<svg width="61" height="61" viewBox="0 0 61 61" fill="none" xmlns="http://www.w3.org/2000/svg">
<path d="M0.530304 60.0574H60.5303V0.057373H0.530304V60.0574Z" fill="#E83819"/>
<path d="M44.2376 22.7463H36.7799C36.7295 22.7463 36.6854 22.7883 36.6854 22.8421V25.3197C36.6854 25.3727 36.7295 25.4156 36.7799 25.4156H39.7496L36.4531 28.7148C34.7916 27.4099 32.702 26.6287 30.431 26.6287C25.0465 26.6287 20.6636 31.0105 20.6636 36.399C20.6636 41.3585 24.3786 45.4629 29.1702 46.0844V48.9407H26.2283C26.1737 48.9407 26.1325 48.9827 26.1325 49.0352V51.6928C26.1325 51.7457 26.1737 51.7869 26.2283 51.7869H29.1702V54.5982C29.1702 54.6512 29.2114 54.6923 29.2643 54.6923H31.9198C31.9715 54.6923 32.0156 54.6512 32.0156 54.5982V51.7869H34.9575C35.0092 51.7869 35.0516 51.7457 35.0516 51.6928V49.0352C35.0516 48.9831 35.0096 48.9407 34.9575 48.9407H32.0156V46.0378C36.6493 45.2776 40.1983 41.2472 40.1983 36.399C40.1983 34.308 39.5358 32.3699 38.4133 30.7789L41.6632 27.5264V30.3015C41.6632 30.3536 41.7073 30.3961 41.7602 30.3961H44.2371C44.2901 30.3961 44.3342 30.3541 44.3342 30.3015V22.8417C44.3342 22.7887 44.2901 22.7458 44.2371 22.7458V22.7463H44.2376ZM30.4314 43.5899C26.4665 43.5899 23.2418 40.363 23.2418 36.3982C23.2418 32.4325 26.4665 29.2064 30.4314 29.2064C34.3959 29.2064 37.621 32.4325 37.621 36.3982C37.621 40.3626 34.3959 43.5899 30.4314 43.5899Z" fill="white"/>
<path d="M34.8227 33.446H26.1018C26.0501 33.446 26.0077 33.4847 26.0077 33.5314V35.6438C26.0077 35.693 26.0497 35.7304 26.1018 35.7304H34.8227C34.8769 35.7304 34.9185 35.693 34.9185 35.6438V33.5314C34.9185 33.4851 34.8769 33.446 34.8227 33.446Z" fill="white"/>
<path d="M34.8227 37.2168H26.1018C26.0501 37.2168 26.0077 37.2567 26.0077 37.305V39.4175C26.0077 39.4638 26.0497 39.5024 26.1018 39.5024H34.8227C34.8769 39.5024 34.9185 39.4642 34.9185 39.4175V37.305C34.9185 37.2571 34.8769 37.2168 34.8227 37.2168Z" fill="white"/>
<path d="M10.4943 8.89682C9.69188 8.89682 9.10248 9.18216 8.78194 9.73518H8.76345V6.71921H12.2616V5.05847H6.90787V11.8779H8.76303V11.6098C8.76303 10.895 9.08441 10.5029 9.65575 10.5029C10.28 10.5029 10.5296 10.932 10.5296 11.5926V14.519C10.5296 15.1628 10.2985 15.6087 9.67297 15.6087C8.97687 15.6087 8.72733 15.1435 8.72733 14.4304V12.9129H6.87216V14.2867C6.87216 16.1251 7.60398 17.3039 9.67381 17.3039C11.7256 17.3039 12.5637 16.2155 12.5637 14.5375V11.5749C12.5637 9.66458 11.5832 8.8964 10.4947 8.8964H10.4943V8.89682Z" fill="white"/>
<path d="M18.2119 7.82398C18.0724 7.77775 17.9237 7.75338 17.7683 7.75338C17.8145 7.5357 17.8691 7.16212 17.9317 6.63221C17.9624 6.39815 17.9859 6.2351 18.0023 6.14055L18.4215 6.18677C18.3606 6.70071 18.2892 7.24701 18.2119 7.82356V7.82398ZM19.5907 6.91293C19.4499 6.77341 19.3105 6.64734 19.171 6.53976V10.5122H18.5627V4.9492H19.171V5.86068C19.4033 6.01742 19.6369 6.1956 19.8705 6.39899L19.5903 6.91293H19.5907ZM20.1977 7.61428C20.1368 7.58235 20.0503 7.54369 19.9415 7.49704C19.8163 7.44913 19.7238 7.41888 19.6613 7.40291C19.9562 6.81165 20.1658 6.12626 20.2918 5.34632L20.8766 5.43919C20.8602 5.53332 20.8287 5.67326 20.7821 5.86026C20.7502 6.00103 20.7279 6.10189 20.7115 6.1645H21.3438V4.94836H21.9735V6.1645H23.3056V6.74904H21.9735V7.91685H23.2124V8.50138H21.9735V9.76374H23.4464V10.2777H19.6613V9.76374H21.3438V8.50138H19.9881V7.91685H21.3438V6.74904H20.5246C20.4317 7.0453 20.3229 7.33231 20.1977 7.61428Z" fill="white"/>
<path d="M25.2406 10.4185C25.2247 10.3403 25.2091 10.2151 25.1944 10.0437C25.1625 9.95079 25.1478 9.88817 25.1478 9.85666H25.7552C26.0833 9.87262 26.2451 9.7247 26.2451 9.41248C26.2615 9.18009 26.269 8.84433 26.269 8.40813H25.3818C25.3503 9.24901 24.9835 9.95877 24.282 10.5353C24.2366 10.4891 24.1505 10.4185 24.0257 10.3239C23.9329 10.2151 23.8543 10.1382 23.7934 10.0903C24.4311 9.63982 24.7655 9.07755 24.7974 8.40813H23.9568V7.84755H24.8214L24.8441 7.38026H25.4288V7.84755H26.9C26.8841 8.03455 26.8694 8.36149 26.8538 8.8292C26.8378 9.17211 26.8299 9.4213 26.8299 9.5772C26.8463 10.1218 26.5564 10.3954 25.9666 10.3954L25.2415 10.4181L25.2406 10.4185ZM24.166 5.20684H26.8303V7.21721H24.166V5.20684ZM24.7735 6.67848H26.2468V5.76701H24.7735V6.67848ZM27.4844 10.4412C27.4525 10.2395 27.4138 10.0357 27.3672 9.83396C27.6155 9.84993 27.881 9.85666 28.1616 9.85666C28.4884 9.85666 28.6371 9.7247 28.6065 9.46038V4.97278H29.2358V9.64654C29.2673 10.1622 28.9942 10.4185 28.4187 10.4185C28.1372 10.4345 27.8268 10.4412 27.484 10.4412H27.4844ZM27.4138 5.60354H27.9982V9.10991H27.4138V5.60354Z" fill="white"/>
<path d="M30.2369 5.81402V5.20679H35.2835V5.81402H33.0868V8.03407H35.5642V8.64172H33.0868V10.5348H32.4336V8.64172H29.9562V8.03407H32.4336V5.81402H30.2369ZM31.4283 7.75378C31.1014 7.33272 30.759 6.92089 30.4003 6.51495L30.8674 6.14011C31.2409 6.5305 31.5913 6.93476 31.9181 7.35625L31.4283 7.75336H31.4278L31.4283 7.75378ZM33.998 7.77732L33.5309 7.37894C33.8737 7.0373 34.232 6.62421 34.6055 6.14011L35.097 6.491C34.7382 6.94274 34.3719 7.37054 33.9984 7.77689V7.77732H33.998Z" fill="white"/>
<path d="M36.4006 6.63276C36.2598 6.49198 36.1124 6.36045 35.9569 6.23564C36.4085 5.87719 36.7593 5.42503 37.0072 4.87957L37.6155 4.94975C37.5521 5.10691 37.4748 5.25399 37.3815 5.39477H38.8771V5.86122H37.7083C37.7865 5.93938 37.8953 6.04822 38.0352 6.18774C38.1133 6.26632 38.1679 6.32221 38.1999 6.35289L37.8016 6.67982C37.6462 6.4924 37.4748 6.30498 37.2878 6.11924L37.6159 5.86164H37.0778C36.953 6.06335 36.7274 6.32263 36.401 6.63318H36.4006V6.63276ZM36.4711 7.21729V6.75H38.4809V6.42306H39.1115V6.75H41.1914V7.21729H39.1115V7.68374H41.6115V8.19768H36.0502V7.68374H38.4809V7.21729H36.4711ZM36.2371 9.15706V8.66539H39.7185V8.1981H40.3491V8.66539H41.4477V9.15706H40.3491V9.671C40.3655 10.1849 40.0916 10.4493 39.5312 10.4656C39.3135 10.4804 39.0094 10.4883 38.62 10.4883C38.6053 10.3955 38.5817 10.2623 38.5494 10.0912C38.5347 10.0131 38.5187 9.95843 38.5032 9.92776C38.7842 9.94373 39.0396 9.95171 39.2745 9.95171C39.5853 9.96558 39.7341 9.83447 39.7185 9.5546V9.15748H37.4752C37.6319 9.26632 37.8646 9.44576 38.1768 9.69411C38.1301 9.6794 38.1604 9.7105 38.2696 9.78866L37.8499 10.1618C37.663 9.97482 37.3828 9.74874 37.0076 9.48484L37.3357 9.1579H36.2371V9.15748V9.15706ZM39.2039 6.44534C39.1577 6.41466 39.0951 6.37474 39.017 6.32809C38.8775 6.23522 38.7674 6.17303 38.6901 6.14109C39.0489 5.75154 39.3211 5.33173 39.508 4.87915L40.1164 4.94933C40.0529 5.10649 39.9823 5.25357 39.905 5.39435H41.5863V5.8608H40.3247C40.3873 5.90703 40.4797 5.98561 40.6062 6.09445C40.715 6.18732 40.8003 6.26632 40.8612 6.32851L40.4894 6.6794C40.3025 6.49198 40.1071 6.31254 39.905 6.14109L40.2079 5.8608H39.6475C39.508 6.06251 39.3593 6.25791 39.2035 6.44534H39.2039Z" fill="white"/>
</svg>
