<svg width="61" height="61" viewBox="0 0 61 61" fill="none" xmlns="http://www.w3.org/2000/svg">
<path d="M0.472565 60.6891H60.4726V0.689087H0.472565V60.6891Z" fill="#D39200"/>
<path d="M45.6981 31.819C43.0478 29.7267 39.5378 29.683 38.2514 29.9885L38.1034 30.0237C36.6175 30.3739 34.259 30.9546 31.4979 34.3804C31.4829 34.3997 31.4679 34.4186 31.4533 34.4387L31.4181 34.4808C31.3906 34.519 31.3717 34.564 31.3717 34.6138C31.3717 34.6546 31.3812 34.6928 31.4014 34.7293L31.4653 34.834C31.8117 35.4134 32.2499 36.1593 32.619 36.8477C32.6216 36.8546 32.6259 36.8602 32.6285 36.8692C32.6675 36.9439 32.7465 36.9979 32.8383 36.9979C32.9023 36.9979 32.9607 36.9722 33.0027 36.9318C33.0203 36.9087 33.0366 36.8855 33.0529 36.861C35.5037 33.4726 37.4291 33.0048 38.733 32.6984L38.8892 32.6619C39.5661 32.5005 42.1374 32.51 43.9955 33.9752C45.4445 35.119 46.1801 36.94 46.1801 39.3846C46.1801 43.488 44.1839 45.0927 42.5096 45.7155C39.915 46.6859 37.4278 45.3902 37.4098 45.3803L37.2986 45.3245C35.8728 44.7073 33.7461 43.4193 31.7421 39.3949C27.7038 31.2825 24.3238 30.5182 22.0885 30.0109L21.9679 29.9851C20.9507 29.7542 17.4158 29.5903 14.6367 31.8087C13.1834 32.9675 11.4546 35.219 11.4546 39.3683C11.4546 41.8962 11.9743 43.5648 13.3083 45.3215C13.6015 45.7206 16.593 49.5631 22.3765 48.4558C23.3019 48.2777 24.5564 47.8369 25.9346 46.8034L27.2089 47.9511C27.2917 48.027 27.4248 48.0202 27.5003 47.9378C27.5368 47.897 27.5518 47.8476 27.5506 47.7991V47.7816L28.4703 42.1331V42.0709C28.4703 42.0151 28.4476 41.9597 28.4025 41.9202C28.3635 41.8837 28.3154 41.87 28.2669 41.87L28.2278 41.8726L28.1682 41.879L22.7564 43.3932L22.6585 43.4099C22.6194 43.4181 22.5838 43.4382 22.5555 43.4696C22.4765 43.5567 22.4834 43.6867 22.5705 43.764L22.6345 43.8219L23.847 44.9168C23.0641 45.4228 22.3817 45.6562 21.8606 45.7567C17.6755 46.5545 15.6088 43.8133 15.5316 43.706L15.502 43.667C14.5303 42.3902 14.2019 41.3061 14.2019 39.367C14.2019 36.9151 14.9238 35.0941 16.3496 33.9542C18.1592 32.5108 20.6533 32.5023 21.3597 32.6628L21.4803 32.6898C23.3122 33.1053 25.8239 33.6722 29.2815 40.6181C31.0769 44.2232 33.3263 46.5816 36.1569 47.8245C36.5183 48.0077 38.236 48.8232 40.4666 48.8232C41.4001 48.8232 42.4207 48.6807 43.4697 48.2914C45.1101 47.6794 48.927 45.5871 48.927 39.3833C48.927 35.2379 47.1711 32.9799 45.6977 31.8173L45.699 31.8181L45.6981 31.819Z" fill="white"/>
<path d="M6.4608 8.57176H6.4784V17.8322H8.51325V5.73401H6.88872L5.01439 7.9297V10.0529H5.03199L6.4608 8.57176Z" fill="white"/>
<path d="M9.72532 8.23316V9.69581H11.5816V8.17865C11.5816 7.44733 11.9387 7.23445 12.3662 7.23445C12.7598 7.23445 13.0976 7.39454 13.0976 8.14389V9.14259C13.0976 10.1426 13.0096 10.5344 12.3486 11.2306L11.2074 12.4439C10.1 13.6215 9.68927 14.4074 9.68927 15.6026V17.8331H14.9719V16.1722H11.634V15.6026C11.634 14.6554 11.9743 14.3001 12.4915 13.7464L13.7933 12.3735C14.8474 11.2486 15.0796 10.5349 15.0796 9.32199V8.14432C15.0796 6.41257 14.2423 5.59326 12.4211 5.59326C10.6357 5.59326 9.72661 6.53918 9.72661 8.23359L9.72532 8.23316Z" fill="white"/>
<path d="M20.2052 7.51348C20.0811 7.38944 19.9326 7.24095 19.7618 7.07013C20.4455 6.63451 21.0468 6.06542 21.561 5.36414L22.2855 5.43495C22.1907 5.59074 22.0817 5.73709 21.9572 5.8783H24.2002V6.39245L23.4757 7.11605H24.8084V9.59243H24.2002V7.67657H21.07V9.63964H20.4387V7.35082L20.2052 7.51348ZM24.9483 10.971C24.5131 10.7375 23.9199 10.4418 23.1718 10.0834C22.9237 9.95852 22.7285 9.86496 22.5881 9.80316C22.2606 10.301 21.467 10.6984 20.2052 10.9946C20.0811 10.8233 19.9477 10.6298 19.8077 10.4109C21.5361 10.1461 22.3615 9.56968 22.2855 8.68257L22.3319 7.93493H22.9628L22.9152 8.7993C22.901 8.98514 22.8692 9.14952 22.8233 9.28943C23.4293 9.55509 24.2547 9.92977 25.2998 10.4113L24.9483 10.9718V10.9714V10.971ZM23.359 6.41563H21.4902C21.3816 6.54052 21.1945 6.71134 20.9297 6.92979C20.8511 7.00704 20.7885 7.0697 20.7425 7.11605H22.6821L23.359 6.41563Z" fill="white"/>
<path d="M26.0462 10.971C25.984 10.8006 25.8904 10.6208 25.7659 10.4337C27.4025 10.3251 28.2278 9.99034 28.2424 9.42983C28.2592 9.32125 28.2669 9.17232 28.2669 8.98477H28.921C28.921 9.04829 28.9128 9.12597 28.8978 9.2191C28.8978 9.34399 28.8884 9.4294 28.8738 9.47575C28.8738 9.49206 28.8669 9.51481 28.8506 9.54614C28.8506 9.62511 28.8343 9.67919 28.8043 9.70923C28.8815 9.74056 29.0064 9.77961 29.179 9.82682C29.6918 9.98176 30.3704 10.1852 31.2104 10.4333L30.9305 10.9706C30.8207 10.9393 30.673 10.8852 30.4867 10.8079C29.5979 10.4805 28.9519 10.2689 28.5467 10.177C28.157 10.55 27.3239 10.8148 26.0471 10.9706L26.0466 10.971H26.0462ZM26.0694 6.27621V5.80797H28.242V5.36462H28.8734V5.80797H31.0473V6.27621H28.8734V6.64916H30.8125V7.09294H28.8734V7.48907H31.3267V7.95731H25.8119V7.48907H28.242V7.09294H26.3278V6.64916H28.242V6.27621H26.0694ZM26.4441 9.91953V8.33198H30.6958V9.89635H30.0644V8.7985H27.0505V9.91953H26.4441Z" fill="white"/>
<path d="M31.8636 8.77535C31.8173 8.51055 31.7546 8.25432 31.6765 8.00454C32.207 7.24189 32.6194 6.36807 32.9156 5.38696L33.5697 5.57409C33.3993 6.05734 33.2345 6.45434 33.0787 6.76549V10.9706H32.4722V7.93373C32.4572 7.96634 32.425 8.0127 32.3787 8.07364C32.2387 8.27707 32.0662 8.51097 31.8645 8.77535H31.8636ZM33.8268 6.53202C33.7946 6.31357 33.7564 6.11142 33.7088 5.92559C34.8311 5.87838 35.9518 5.79941 37.0741 5.69125L37.2141 6.27623C36.7784 6.32215 36.3102 6.36163 35.8123 6.39296V7.93415H37.4016V8.54231H35.8123V10.1316H37.2613V10.6689H33.6628V10.1316H35.1809V8.54231H33.5229V7.93415H35.1809V6.44017C34.729 6.48653 34.2787 6.51743 33.8268 6.53245V6.53202Z" fill="white"/>
<path d="M20.6957 15.6902C20.6185 15.628 20.5013 15.5263 20.3455 15.386C20.0657 15.1675 19.8622 15.0048 19.7373 14.895L20.1352 14.4516C20.2125 14.5139 20.3223 14.5988 20.4627 14.7078C20.7584 14.928 20.976 15.0975 21.1168 15.222L20.6962 15.6902L20.6957 15.6907V15.6902ZM20.4623 18.4001L19.8313 18.2374C20.0657 17.5198 20.2764 16.8031 20.4623 16.0864C20.5249 16.1177 20.6335 16.149 20.7897 16.1804C20.9146 16.2276 21.0082 16.2576 21.0709 16.2739C20.9919 16.5538 20.8837 16.9512 20.7434 17.4653C20.6185 17.8859 20.5249 18.1979 20.4623 18.4001ZM20.8133 14.1722C20.5331 13.892 20.2202 13.6182 19.8785 13.3525L20.2764 12.9332C20.4623 13.0727 20.7202 13.2684 21.0455 13.5169C21.1395 13.5954 21.2099 13.6499 21.2576 13.6812L20.8138 14.1722H20.8133ZM22.1675 14.2186C21.9803 13.9851 21.7301 13.6963 21.4198 13.3529L21.8632 13.0272C22.128 13.307 22.3859 13.5877 22.6357 13.8688L22.1675 14.219V14.2186ZM21.5134 18.4233V14.4289H22.9843V12.8628H23.6396V14.4289H25.1122V17.5821C25.1423 18.0812 24.8856 18.3379 24.3414 18.3529H23.5465C23.4989 18.1194 23.4529 17.9336 23.407 17.7924H24.0839C24.3796 17.8074 24.5191 17.6919 24.5045 17.4422V17.2087H22.1447V18.4228H21.5134V18.4233ZM22.1447 15.5722H24.5045V14.9662H22.1447V15.5722ZM22.1447 16.6713H24.5045V16.0877H22.1447V16.6713ZM24.4109 14.2413L23.9903 13.8684C24.3646 13.4937 24.6363 13.2143 24.8084 13.0267L25.229 13.3997C25.0092 13.6499 24.738 13.9306 24.4109 14.2413Z" fill="white"/>
<path d="M25.999 16.5783C25.9848 16.5469 25.9599 16.4843 25.9286 16.3912C25.8513 16.2512 25.7973 16.1495 25.7659 16.0869C26.7158 15.9474 27.269 15.7058 27.4239 15.3624H26.0926L26.2797 14.1015H27.5875C27.5875 13.9603 27.5943 13.8289 27.6106 13.7041H26.0462V13.2603H27.6106V12.8624H28.1944V13.2603H29.036V12.8624H29.6438V13.2603H30.9992V14.5452H29.6438V14.9431H31.2331C31.2331 15.0053 31.225 15.0976 31.2099 15.2225C31.2099 15.3624 31.2018 15.4641 31.1868 15.5268C31.1705 15.807 30.9996 15.9401 30.6726 15.9242C30.4691 15.9405 30.267 15.9474 30.0648 15.9474V15.901C30.0498 15.8225 30.0172 15.7367 29.9708 15.6435H30.4391C30.5627 15.6585 30.6335 15.6053 30.6494 15.4791V15.3624H29.6438V15.8766H29.036V15.3624H28.0789C28.0004 15.6281 27.8214 15.8534 27.5415 16.0409H30.6018V17.395H29.9936V16.4847H27.2377V17.4894H26.6299V16.4148C26.5823 16.4311 26.5132 16.447 26.4196 16.462C26.2338 16.5242 26.0921 16.5624 25.999 16.5787L25.9986 16.5779L25.999 16.5783ZM30.9752 18.4461C30.2747 18.198 29.4811 17.9482 28.5922 17.6984C28.2965 18.0568 27.4943 18.3066 26.1861 18.4461C26.1076 18.2602 26.0235 18.0731 25.9286 17.8856C27.6111 17.8233 28.3982 17.4341 28.2896 16.7173H28.921C28.921 16.9045 28.8965 17.0753 28.8502 17.2315C28.9442 17.2628 29.0837 17.3019 29.2708 17.3482C30.1271 17.5817 30.7807 17.7538 31.2327 17.8624L30.9752 18.4461ZM26.7694 14.5452L26.7003 14.9431H27.5647V14.8019C27.5797 14.741 27.5879 14.6852 27.5879 14.6388V14.5452H26.7698H26.7694ZM28.1712 14.662C28.1712 14.8019 28.163 14.8955 28.148 14.9431H29.0356V14.5452H28.1708V14.662H28.1712ZM28.1712 14.1015H29.036V13.7041H28.1712V14.1015ZM30.4387 13.7041H29.6438V14.1015H30.4387V13.7041Z" fill="white"/>
<path d="M31.7937 15.1053V14.5448H32.7744V13.774C32.6821 13.774 32.5409 13.7826 32.3538 13.7971C32.1516 13.7971 32.0035 13.8057 31.9104 13.8203C31.8954 13.7431 31.8791 13.6332 31.864 13.495C31.8327 13.3851 31.8164 13.2997 31.8164 13.2371C32.7512 13.2057 33.5225 13.1517 34.1302 13.0731L34.247 13.6336C33.9659 13.6808 33.6701 13.7122 33.3594 13.7272V14.5452H34.3174V15.1057H33.3594V15.8534L33.5697 15.6431C33.662 15.722 33.8015 15.8465 33.989 16.0177C34.1762 16.1881 34.3174 16.3134 34.4109 16.3907L34.0135 16.8576C33.9495 16.7967 33.8491 16.6881 33.7092 16.5319C33.553 16.3757 33.4366 16.2594 33.359 16.1804V18.4233H32.7744V16.0637C32.5722 16.5319 32.2842 17.0066 31.91 17.4881C31.8949 17.4109 31.8559 17.2937 31.7932 17.1379C31.746 16.9834 31.7078 16.8662 31.6765 16.7877C32.0808 16.3671 32.416 15.807 32.6821 15.1049H31.7932L31.7937 15.1053ZM34.6217 18.2602V13.4242H37.1209V18.237H36.5132V17.7229H35.2281V18.2602H34.6217ZM35.2277 17.1628H36.5127V13.9851H35.2277V17.1628Z" fill="white"/>
<path d="M38.3352 15.5972C38.1789 15.4882 37.9849 15.3702 37.7514 15.247C38.2184 14.6543 38.5845 13.9457 38.8493 13.1208L39.5034 13.2376C39.4099 13.5174 39.3082 13.7749 39.1991 14.0084H40.3679V12.8397H41.022V14.0084H43.056V14.6161H41.022V15.7599H42.8688V16.3676H41.022V17.6294H43.3585V18.1667H37.821V17.6294H40.3683V16.3676H38.3583V15.7599H40.3683V14.6161H38.9189C38.7794 14.9281 38.5849 15.2539 38.3352 15.5968H38.3356L38.3352 15.5972Z" fill="white"/>
<path d="M44.1993 18.4461C44.153 18.4148 44.0903 18.3689 44.0131 18.3066C43.841 18.1968 43.7161 18.1114 43.6388 18.05C44.0762 17.5817 44.2779 16.9199 44.2466 16.0637V15.1749H45.5779C45.5157 15.0826 45.4217 14.9509 45.2981 14.7788C45.1569 14.6075 45.0565 14.4831 44.9938 14.4041L45.508 14.1015C45.523 14.1328 45.5543 14.1706 45.6016 14.2183C45.7565 14.4041 45.9436 14.6389 46.1621 14.9182L45.717 15.1749H47.002C47.1892 14.9118 47.4076 14.5603 47.6574 14.1247L48.2652 14.4045C48.1077 14.6389 47.9205 14.8955 47.7038 15.1753H49.1532V15.7367H44.9007V16.1114C44.932 17.0448 44.6968 17.8238 44.1989 18.4465H44.1993V18.4461ZM43.8491 14.0543V13.4706H46.3733C46.3406 13.3771 46.2947 13.2371 46.2321 13.05C46.217 13.0028 46.2007 12.9646 46.1857 12.9333L46.9093 12.8397C46.9256 12.9333 46.9647 13.0728 47.0274 13.2603C47.0587 13.3543 47.0814 13.4247 47.096 13.4706H49.2927V14.0543H43.8483H43.8487H43.8491Z" fill="white"/>
</svg>
