<svg width="61" height="61" viewBox="0 0 61 61" fill="none" xmlns="http://www.w3.org/2000/svg">
<path d="M0.58075 60.5747H60.5807V0.574707H0.58075V60.5747Z" fill="#003067"/>
<path d="M45.8345 36.9621C45.8345 32.748 42.4813 29.3056 38.3059 29.1543C37.2328 26.1201 34.3362 23.941 30.9394 23.941C27.5418 23.941 24.6456 26.1206 23.5712 29.1543C19.3937 29.3069 16.0435 32.7476 16.0435 36.9621C16.0435 39.4627 17.2265 41.6914 19.059 43.1223C18.8606 43.8128 18.7512 44.5391 18.7512 45.2916C18.7512 49.5989 22.2565 53.1042 26.567 53.1042C28.2011 53.1042 29.7201 52.5984 30.9758 51.7361C32.2178 52.5672 33.7099 53.0529 35.3123 53.0529C39.6202 53.0529 43.1273 49.5472 43.1273 45.2399C43.1273 44.5024 43.0221 43.7884 42.8306 43.1134C44.657 41.6816 45.8345 39.4576 45.8345 36.9621ZM37.1802 31.7566C37.1802 34.8844 34.8651 37.473 31.8595 37.9211C31.8095 37.6073 31.7783 37.2883 31.7783 36.9621C31.7783 33.8344 34.093 31.2432 37.0986 30.7964C37.1473 31.1098 37.1807 31.4287 37.1807 31.7562V31.7566H37.1802ZM30.9668 49.7096C29.7988 48.5758 29.0715 46.9914 29.0715 45.2403C29.0715 43.5139 29.7748 41.9509 30.9104 40.8197C32.078 41.9548 32.8065 43.5387 32.8065 45.292C32.8065 47.0171 32.1032 48.5797 30.9664 49.7096H30.9668ZM24.7799 30.7968C27.7838 31.2432 30.1006 33.8348 30.1006 36.9626C30.1006 37.2892 30.0677 37.6077 30.0185 37.9215C27.0121 37.4735 24.6982 34.8848 24.6982 31.757C24.6982 31.4291 24.7294 31.1102 24.7799 30.7972V30.7968ZM29.4328 39.7539C28.405 41.7966 26.2972 43.2031 23.8598 43.2031C22.8247 43.2031 21.8512 42.9462 20.9927 42.4999C22.0188 40.4589 24.1296 39.0497 26.5674 39.0497C27.6012 39.0497 28.5747 39.3063 29.4336 39.7539H29.4332H29.4328ZM32.4243 39.7115C33.2883 39.2588 34.2691 38.9976 35.3123 38.9976C37.7655 38.9976 39.8874 40.4251 40.9067 42.4905C40.0426 42.9432 39.0601 43.2031 38.0186 43.2031C35.5654 43.2031 33.4435 41.7765 32.4243 39.712V39.7115ZM30.939 25.516C33.4953 25.516 35.6958 27.062 36.6595 29.268C34.1208 29.7156 32.0019 31.3919 30.939 33.6595C29.8779 31.3902 27.756 29.7156 25.2185 29.268C26.1814 27.0628 28.381 25.516 30.939 25.516ZM17.6169 36.9621C17.6169 33.7463 20.0611 31.0927 23.1886 30.7566C23.148 31.085 23.1227 31.418 23.1227 31.7566C23.1227 34.0396 24.1091 36.0981 25.676 37.5282C23.0847 37.8232 20.8722 39.39 19.684 41.5897C18.419 40.4469 17.6169 38.7975 17.6169 36.9626L17.6165 36.9621H17.6169ZM20.3241 45.2912C20.3241 44.847 20.3715 44.4152 20.4592 43.9975C21.4874 44.496 22.6413 44.7756 23.8581 44.7756C25.225 44.7756 26.5101 44.4216 27.6311 43.8012C27.5444 44.2672 27.496 44.7478 27.496 45.239C27.496 47.3501 28.34 49.2663 29.7047 50.6737C28.7812 51.2137 27.7107 51.5313 26.5661 51.5313C23.1223 51.5313 20.3241 48.7314 20.3241 45.2907V45.2912ZM41.554 45.2394C41.554 48.6789 38.7527 51.4787 35.3119 51.4787C34.1917 51.4787 33.1443 51.1782 32.2345 50.6613C33.562 49.2599 34.3807 47.3685 34.3807 45.2912C34.3807 44.7798 34.3281 44.2788 34.2349 43.7965C35.3568 44.419 36.6462 44.776 38.0186 44.776C39.241 44.776 40.397 44.4943 41.427 43.9915C41.5099 44.3955 41.5544 44.8128 41.5544 45.2403L41.554 45.2399V45.2394ZM36.2478 37.482C37.7873 36.0528 38.7523 34.0161 38.7523 31.7562C38.7523 31.4176 38.7288 31.0841 38.6877 30.7562C41.8139 31.0922 44.2594 33.7459 44.2594 36.9617C44.2594 38.7881 43.4651 40.4306 42.2089 41.5717C41.0328 39.3687 38.8322 37.7915 36.2469 37.4816V37.482H36.2478Z" fill="white"/>
<path d="M9.56294 5.60242V17.6984H7.52914V8.43904H7.51076L6.0832 9.91998H6.06696V7.79733L7.94086 5.60242H9.56294Z" fill="white"/>
<path d="M10.4907 5.60242H15.5938V7.47625L12.9354 17.6984H10.9187L13.6314 7.26121H10.4907V5.60242Z" fill="white"/>
<path d="M18.3771 8.30346C18.3613 8.22522 18.3459 8.11663 18.3296 7.97555C18.2834 7.77418 18.2514 7.61087 18.2356 7.4856C18.7507 6.72205 19.1394 5.8422 19.4053 4.84521L20.0111 5.00853C19.8713 5.49206 19.6922 5.96704 19.4741 6.43518V10.4291H18.8906V7.55572C18.7349 7.82035 18.5639 8.0696 18.3771 8.30388V8.30346ZM20.2459 7.27526V5.14961H23.493V7.27526H22.2549V8.11663H23.7034V8.6536H22.2549V9.68094H23.9607C23.9146 9.78996 23.8521 9.9708 23.7739 10.2196C22.9795 10.2196 22.4263 10.2111 22.1155 10.1957C21.4293 10.1645 20.938 9.89898 20.643 9.40006C20.5498 9.69804 20.3468 10.0469 20.0351 10.4522L19.5691 10.008C20.0667 9.5266 20.3168 8.77801 20.3168 7.76563L20.9004 7.78957C20.9004 7.85156 20.8923 7.94519 20.8765 8.06875C20.8602 8.31885 20.8461 8.5061 20.8303 8.62966C21.0321 9.12901 21.3044 9.44708 21.6482 9.58817V7.27483H20.2459L20.2454 7.27526H20.2459ZM20.8542 6.71349H22.8863V5.68615H20.8542V6.71349Z" fill="white"/>
<path d="M24.2523 10.4059L23.9479 9.75098C24.0415 9.68899 24.1587 9.57997 24.2993 9.42435C24.455 9.28327 24.5631 9.18323 24.626 9.11995V7.41456H24.0189V6.80662H25.2331V9.09687C25.452 9.48634 25.8483 9.68941 26.4251 9.7048C27.8419 9.7048 28.9181 9.69711 29.65 9.68086C29.6333 9.74285 29.6025 9.83648 29.5564 9.96175C29.5234 10.1011 29.4931 10.2024 29.4627 10.2649H27.4533C26.9698 10.2508 26.5803 10.2345 26.2853 10.2187C25.6153 10.2024 25.1634 9.9998 24.9304 9.6116C24.6657 9.87624 24.4391 10.1396 24.2523 10.4059ZM24.9766 6.29231C24.8675 6.12258 24.7119 5.87248 24.5093 5.54585C24.3998 5.37441 24.3224 5.24915 24.2763 5.17177L24.7671 4.89131C25.048 5.24915 25.3032 5.61554 25.5375 5.98919L24.9766 6.29231ZM25.8184 6.36413V5.80279H26.4734V4.8678H27.0805V5.80279H28.0852V4.8678H28.6923V5.80279H29.3926V6.36413H28.6923V7.4385H29.5799V7.97547H28.6923V9.47009H28.0852V7.97547H27.057C27.0258 8.59837 26.7765 9.1362 26.3092 9.58681C26.2472 9.52524 26.1378 9.44017 25.9826 9.33029C25.8894 9.2683 25.8197 9.22127 25.7718 9.18921C26.1933 8.83095 26.4105 8.42694 26.4268 7.97504H25.5854V7.43807H26.4742V6.3637H25.8192L25.8184 6.36413ZM27.0792 7.4385H28.0839V6.36413H27.0792V7.4385Z" fill="white"/>
<path d="M30.3383 10.406V5.12524H34.7779V10.406H34.1229V10.008H30.9689V10.406H30.3379H30.3383ZM30.9694 6.59721H34.1233V5.68573H30.9694V6.59721ZM30.9694 8.02172H34.1233V7.13418H30.9694V8.02172ZM30.9694 9.47017H34.1233V8.55912H30.9694V9.47017Z" fill="white"/>
<path d="M35.5364 6.50401V5.96661H36.214V4.84607H36.7976V5.96661H37.4047V6.50401H36.7976V7.39155L36.9862 7.18249C37.2192 7.40095 37.4428 7.62626 37.6629 7.85969L37.2888 8.30346C37.1319 8.10038 36.9686 7.90671 36.7976 7.71989V10.43H36.214V7.78957C36.043 8.24146 35.8318 8.66942 35.5838 9.07514C35.5676 9.02768 35.5505 8.958 35.5364 8.86394C35.4902 8.55227 35.4504 8.34236 35.4192 8.23377C35.7625 7.75195 36.0272 7.17479 36.2144 6.50443H35.5368L35.5364 6.50401ZM37.7087 9.82074C37.6305 9.77457 37.4757 9.70488 37.2414 9.61168C37.211 9.59586 37.1875 9.58774 37.1717 9.58774C37.5142 8.98065 37.8028 8.38041 38.037 7.78872L38.5963 7.97555C38.4556 8.28764 38.2474 8.73012 37.9652 9.30685C37.8562 9.54028 37.7707 9.71258 37.7087 9.82031H37.7083L37.7087 9.82074ZM37.4992 7.34537V6.78446H41.0961V7.34537H39.5787V9.68137C39.5929 10.1174 39.3522 10.344 38.8532 10.3586C38.7613 10.3586 38.6441 10.3667 38.5031 10.3825H38.1764C38.1452 10.1957 38.1067 9.99303 38.0593 9.77542H38.6202C38.869 9.78953 38.9862 9.68949 38.9704 9.47102V7.3458H37.4996L37.4992 7.34537ZM37.7326 5.19493H40.8404V5.75584H37.7326V5.19493ZM40.6061 9.77499C40.3718 9.21408 40.1149 8.62282 39.8344 7.99991L40.3718 7.78914C40.4347 7.93023 40.527 8.13929 40.6519 8.42017C40.8708 8.91866 41.0414 9.30771 41.1666 9.58774L40.6057 9.77457V9.77499H40.6061Z" fill="white"/>
<path d="M41.2722 8.81786V8.25652H44.0995L44.1457 8.06969C44.2706 7.51049 44.3325 6.91709 44.3325 6.29419H44.9875C44.9563 7.08895 44.8935 7.68749 44.7998 8.09321L44.7759 8.25695H46.7858V8.81829H44.6139L44.5425 8.98117C45.0564 9.18382 45.7725 9.4647 46.6917 9.82254L46.3886 10.3839C45.6404 10.0256 44.9161 9.71352 44.2158 9.44846C43.7943 9.88453 42.9302 10.2107 41.6211 10.4296C41.5279 10.2428 41.4184 10.0397 41.2949 9.82254C42.8054 9.66735 43.669 9.33132 43.8888 8.81829H41.2709H41.2714L41.2722 8.81786ZM41.3894 6.73838V5.47719H43.7951C43.7793 5.42973 43.749 5.35149 43.7015 5.24376C43.6874 5.18048 43.6318 5.06463 43.5377 4.89191L44.2624 4.79871C44.2928 4.86155 44.3325 4.94706 44.3796 5.0565C44.4411 5.24333 44.4967 5.38313 44.5429 5.47676H46.6699V6.73795H46.0376V6.03767H41.996V6.73795H41.3889L41.3894 6.73838ZM43.1418 8.23472C42.7045 7.98547 42.2846 7.76572 41.8806 7.57975L42.1837 7.11118C42.2774 7.15864 42.4172 7.22918 42.6053 7.32324C42.9781 7.51006 43.2586 7.64944 43.4454 7.74306L43.1423 8.23429H43.1418V8.23472ZM43.6793 7.34589C43.2577 7.09665 42.8537 6.87818 42.4633 6.69093L42.7216 6.24716C43.1414 6.46605 43.554 6.6687 43.958 6.8551L43.6793 7.34504V7.34547V7.34589Z" fill="white"/>
<path d="M46.9842 5.80253V5.24162H48.8991V5.80253H48.2219V7.15778H48.829V7.7187H48.2219V9.09618C48.2993 9.08207 48.401 9.06582 48.5263 9.05001C48.6199 9.0359 48.7606 9.01153 48.9466 8.98032C48.9624 9.10558 48.9701 9.29882 48.9701 9.56389C48.8765 9.57971 48.6819 9.61134 48.3852 9.65752C47.7007 9.73661 47.2403 9.7986 47.0077 9.84435L46.9132 9.26078L47.6387 9.16715V7.7187H47.0539V7.15778H47.6387V5.80253H46.9838H46.9842ZM51.2839 10.2881C50.8154 10.2881 50.5819 10.0547 50.5819 9.58783V8.79392C50.363 9.32362 49.8115 9.86829 48.9226 10.4292C48.8765 10.3664 48.7833 10.2582 48.6439 10.1026C48.5806 10.0235 48.5344 9.96961 48.5028 9.93797C49.2352 9.53396 49.7106 9.14406 49.9278 8.77169C50.1608 8.42753 50.2938 7.87431 50.3254 7.11076C50.3416 6.83158 50.3493 6.48144 50.3493 6.06033H50.9564V6.52761C50.9406 6.7619 50.9325 6.92521 50.9325 7.01756C50.9184 7.4391 50.8709 7.81275 50.7931 8.13938H51.1672V9.47197C51.136 9.68915 51.2288 9.78278 51.446 9.75115H51.6106C51.812 9.76696 51.9295 9.67291 51.9612 9.47197C51.9612 9.42494 51.9753 9.33089 52.0073 9.19152C52.0232 9.00469 52.0385 8.8713 52.0544 8.79392C52.0856 8.80974 52.2656 8.87216 52.5914 8.98075C52.5914 9.12055 52.5678 9.33089 52.5221 9.61177C52.5058 9.65794 52.4982 9.69728 52.4982 9.72891C52.4349 10.1171 52.1702 10.3039 51.7029 10.2881H51.2839ZM49.0872 8.56049V5.07874H52.2177V8.51304H51.6106V5.63965H49.6944V8.56006H49.0872V8.56049Z" fill="white"/>
<path d="M52.8838 10.3351V5.75633H53.5148C53.561 5.58404 53.6225 5.35232 53.7004 5.05476C53.7166 4.96114 53.7316 4.89145 53.7478 4.84528L54.4028 4.93933C54.3391 5.21936 54.2617 5.49127 54.1694 5.75676H55.1728V10.312H54.5892V9.8922H53.4904V10.336H52.8833H52.8838V10.3351ZM53.4909 7.55492H54.5896V6.33947H53.4909V7.55492ZM53.4909 9.35394H54.5896V8.13849H53.4909V9.35394ZM56.0377 10.3116C56.0065 10.079 55.968 9.88365 55.9206 9.72846H56.3404C56.5435 9.7447 56.6987 9.75069 56.8081 9.75069C57.2297 9.75069 57.4388 9.54932 57.4388 9.1436C57.4546 8.89436 57.47 8.36551 57.4862 7.5545C57.502 6.97777 57.5089 6.57247 57.5089 6.33905H56.2246C56.0835 6.65114 55.9441 6.93972 55.803 7.20307C55.7726 7.18896 55.7248 7.1569 55.6636 7.11073C55.5854 7.06327 55.4541 6.99401 55.266 6.89996C55.6239 6.24499 55.9048 5.56052 56.1074 4.84399L56.7385 4.98379C56.7222 5.04536 56.6923 5.13257 56.6444 5.24202C56.5828 5.4592 56.5196 5.63021 56.4576 5.75505H58.1391C58.1079 7.45275 58.0775 8.62202 58.0467 9.25946C58.0608 9.95975 57.7265 10.3022 57.0407 10.2877C56.7299 10.3018 56.3956 10.3099 56.0373 10.3099V10.3107L56.0377 10.3116ZM56.5272 8.74729C56.2626 8.34157 55.9753 7.92986 55.6636 7.50832L56.1532 7.20393C56.434 7.53184 56.738 7.92943 57.0647 8.39715L56.5272 8.74729Z" fill="white"/>
<path d="M18.3767 15.7086C18.3608 15.5526 18.3228 15.3196 18.2595 15.0084C18.2437 14.9609 18.2356 14.9224 18.2356 14.8912C18.8123 14.1131 19.2326 13.2474 19.4985 12.2996L20.1296 12.4838C19.9727 12.937 19.7935 13.3645 19.5921 13.769V17.8817H18.9842V14.869C18.7507 15.2272 18.5481 15.5064 18.3771 15.7095V15.7086H18.3767ZM20.1296 17.9048C20.0984 17.8587 20.0342 17.78 19.9427 17.6714C19.8175 17.5149 19.7315 17.4059 19.6858 17.3439C20.8696 16.5957 21.4609 15.4598 21.4609 13.9327C21.475 13.3419 21.4832 12.8028 21.4832 12.3214H22.1381C22.1381 12.4928 22.13 12.7651 22.1159 13.1379C22.1159 13.512 22.1074 13.7856 22.092 13.9571C22.2014 15.4209 22.8154 16.5184 23.9368 17.2507C23.8757 17.3123 23.7902 17.4217 23.6803 17.5786C23.5862 17.7022 23.5165 17.7877 23.4695 17.8351C22.5819 17.1349 22.0287 16.3089 21.8119 15.3581C21.6708 16.3388 21.1116 17.1892 20.1304 17.9048L20.13 17.9053L20.1296 17.9048ZM20.5259 15.1712C20.3228 14.7048 20.0898 14.2217 19.8256 13.7228L20.3626 13.4894C20.6114 14.0032 20.8538 14.4787 21.0868 14.9143L20.5259 15.1712ZM22.9791 15.1712L22.4417 14.8681C22.6751 14.5086 22.9556 14.0426 23.2835 13.4658L23.8205 13.7224C23.6957 13.9566 23.5088 14.2914 23.2596 14.727C23.1347 14.9301 23.0411 15.0776 22.9791 15.1712Z" fill="white"/>
<path d="M24.1125 15.7322C24.0967 15.6702 24.0813 15.5765 24.0651 15.4513C24.0193 15.2024 23.9877 15.0156 23.9719 14.8921C24.4712 14.1755 24.8753 13.3107 25.1874 12.2979L25.7945 12.4847C25.6551 12.9049 25.4905 13.326 25.3036 13.7463V17.8813H24.6965V14.8921C24.511 15.1866 24.3143 15.4675 24.113 15.7322H24.1125ZM25.8419 15.0545V14.471H27.3131V12.3218H27.9437V14.471H29.4397V15.0545H27.9437V15.8497H29.6509V16.4329H27.9437V17.9053H27.3131V16.4329H25.6316V15.8497H27.3131V15.0545H25.8419ZM26.449 14.1905C26.2459 13.8164 26.0288 13.4428 25.794 13.07L26.3092 12.8117C26.5422 13.1858 26.7671 13.5518 26.986 13.9105L26.449 14.1909V14.1905ZM28.7616 14.2144L28.2477 13.934C28.4503 13.6693 28.6833 13.2953 28.948 12.8117L29.4867 13.07C29.376 13.2568 29.1985 13.5454 28.948 13.934C28.8698 14.0588 28.809 14.1525 28.7616 14.2144Z" fill="white"/>
<path d="M30.1511 14.0506V13.4671H31.4123C31.2097 13.1866 30.9848 12.8968 30.7347 12.6018L31.2717 12.3213C31.5363 12.6018 31.8022 12.922 32.0669 13.2798L31.6689 13.4666H32.9305C33.1332 13.2165 33.3978 12.8279 33.7249 12.2991L34.3799 12.5778C34.1311 12.8899 33.8899 13.1858 33.6556 13.4666H34.963V14.0502H32.8613C32.8613 14.4863 32.8536 14.7979 32.8373 14.9852H35.267V15.5688H32.931C33.2431 16.4563 34.0532 17.0172 35.3611 17.2515C35.2991 17.328 35.2217 17.4529 35.1276 17.6243C35.0486 17.7333 34.9947 17.8111 34.963 17.8586C33.6714 17.4691 32.8613 16.8855 32.5338 16.1062C32.3478 16.8227 31.5607 17.4217 30.1746 17.9052C30.0656 17.75 29.9249 17.5632 29.7531 17.3443C31.2178 16.9403 31.9959 16.3486 32.0908 15.5692H29.8471V14.9856H32.161C32.1909 14.7197 32.2071 14.4089 32.2071 14.0506H30.1511Z" fill="white"/>
<path d="M35.8412 17.718C35.7164 17.547 35.5847 17.3837 35.4432 17.2285C35.8647 17.0096 36.3611 16.6672 36.9379 16.2003L37.3594 16.6219C37.0794 16.839 36.6895 17.1191 36.1918 17.4615C36.0362 17.5705 35.9195 17.656 35.8416 17.718L35.8412 17.7185V17.718ZM36.1914 14.6813L36.0045 14.1444C36.2059 14.0973 36.3786 14.0353 36.5193 13.9575C36.8917 13.7562 37.2739 13.5215 37.6634 13.2572C37.0246 13.2714 36.4248 13.2953 35.8643 13.3269C35.8318 13.1401 35.7933 12.952 35.7472 12.7656C37.4753 12.7186 39.1264 12.6408 40.7002 12.5326L40.8413 13.0696C40.5121 13.0854 39.9982 13.1157 39.2996 13.1636C39.0653 13.1777 38.8857 13.194 38.7609 13.2098C38.185 13.5681 37.6463 13.8801 37.1495 14.1448C37.8045 14.1136 38.3573 14.0978 38.8088 14.0978C39.1816 13.8643 39.5476 13.6395 39.9063 13.4206L40.3971 13.8404C39.229 14.4936 38.1465 15.0563 37.1499 15.5218C37.3688 15.5218 37.7344 15.5077 38.2478 15.4757C38.8866 15.4598 39.3607 15.4445 39.6745 15.4295L39.1593 14.9148L39.6036 14.6343C40.1944 15.1952 40.654 15.639 40.9811 15.9669L40.5386 16.341L40.1414 15.9194L38.6925 15.9669V17.0417C38.7237 17.5389 38.4659 17.7963 37.9212 17.8121C37.7827 17.8279 37.5321 17.8356 37.1739 17.8356C37.1426 17.6013 37.0965 17.3982 37.0345 17.2285C37.2521 17.2426 37.4693 17.2507 37.6878 17.2507C37.9524 17.2666 38.0772 17.1507 38.0619 16.9002V15.9891L36.5659 16.0605C36.3799 16.0605 36.2008 16.0763 36.0298 16.1067L35.819 15.5218C35.9584 15.5077 36.1837 15.4363 36.4971 15.3128C36.9635 15.0939 37.4449 14.8532 37.9443 14.5886C37.8049 14.6044 37.5941 14.6121 37.3137 14.6121C37.0345 14.6262 36.8237 14.6347 36.683 14.6347H36.6134C36.4735 14.6659 36.3325 14.6818 36.1931 14.6818H36.1927L36.1914 14.6813ZM40.6523 17.6723C40.2325 17.3606 39.7271 17.0173 39.1341 16.6441L39.5557 16.2003C39.9901 16.4803 40.4894 16.8228 41.0504 17.2285L40.6523 17.6723Z" fill="white"/>
</svg>
