<svg width="60" height="61" viewBox="0 0 60 61" fill="none" xmlns="http://www.w3.org/2000/svg">
<path d="M0.000125885 0.78894H60.0001V60.7889H0.000125885V0.78894Z" fill="#DD1367"/>
<path d="M19.989 8.49988L20.7757 10.7855H21.6601L20.8594 8.52145C21.3365 8.41233 21.5281 8.09553 21.5281 7.56176V6.92013C21.5281 6.22183 21.2189 5.8031 20.3735 5.8031H19.1507V10.783H19.9907L19.989 8.49988ZM19.989 6.48618H20.2681C20.5553 6.48618 20.6801 6.61814 20.6801 6.89095V7.62859C20.6801 7.89251 20.5553 8.04013 20.2681 8.04013H19.989V6.48618Z" fill="white"/>
<path d="M24.0536 10.102H22.8921V8.58913H23.722V7.91197H22.8921V6.4866H24.0536V5.8031H22.0534V10.7855H24.0536V10.102Z" fill="white"/>
<path d="M25.8681 5.80304H24.5755V10.7829H25.8681C26.7643 10.7829 27.0807 10.2103 27.0807 9.44555V7.14085C27.0807 6.36853 26.7647 5.80261 25.8681 5.80261V5.80304ZM26.2428 9.59486C26.2428 9.89473 26.1113 10.102 25.7628 10.102H25.4104V6.48865H25.7628C26.1087 6.48865 26.2428 6.69421 26.2428 6.98774V9.59486Z" fill="white"/>
<path d="M28.4701 5.8031H27.6301V9.57293C27.6301 10.3448 27.9972 10.8439 28.8791 10.8439C29.7318 10.8439 30.0625 10.3448 30.0625 9.57293V5.8031H29.2919V9.65371C29.2919 9.94725 29.1752 10.1465 28.8812 10.1465C28.5872 10.1465 28.4705 9.94725 28.4705 9.65371V5.8031H28.4701Z" fill="white"/>
<path d="M30.6153 7.08873V9.49833C30.6153 10.2702 30.9833 10.8429 31.8639 10.8429C32.7449 10.8429 33.0465 10.3146 33.0465 9.60153V8.7425H32.2834V9.66074C32.2834 9.9547 32.1802 10.145 31.8795 10.145C31.5788 10.145 31.4523 9.93228 31.4523 9.63156V6.95677C31.4523 6.65689 31.578 6.44203 31.8795 6.44203C32.1815 6.44203 32.2834 6.6184 32.2834 6.92716V7.58148H33.0465V6.99399C33.0465 6.25847 32.7901 5.745 31.8639 5.745C30.9833 5.745 30.6153 6.31049 30.6153 7.08958V7.08873Z" fill="white"/>
<path d="M33.5773 10.7847H35.5757V10.102H34.4156V8.58828H35.2454V7.91197H34.4156V6.4866H35.5757V5.8031H33.5773V10.7847Z" fill="white"/>
<path d="M36.0972 5.80304V10.7829H37.3906C38.2869 10.7829 38.6037 10.2103 38.6037 9.44555V7.14085C38.6037 6.36853 38.2873 5.80261 37.3906 5.80261H36.0972V5.80304ZM37.7658 6.98563V9.59486C37.7658 9.89473 37.633 10.102 37.2857 10.102H36.9334V6.48865H37.2857C37.6309 6.48865 37.7658 6.69463 37.7658 6.98774V6.98563Z" fill="white"/>
<path d="M19.1515 12.9316H19.989V17.9132H19.1515V12.9316Z" fill="white"/>
<path d="M22.959 12.9312H22.2607V15.7903L21.3564 12.9312H20.5338V17.9132H21.2388V14.7829L22.2235 17.9132H22.959V12.9312Z" fill="white"/>
<path d="M25.4282 13.6151V12.9316H23.4297V17.9132H25.4282V17.2297H24.2676V15.7164H25.0974V15.0405H24.2676V13.6151H25.4282Z" fill="white"/>
<path d="M27.0003 12.8728C26.1185 12.8728 25.7361 13.4383 25.7361 14.217V16.6287C25.7361 17.305 26.0224 17.7965 26.6916 17.9153V18.2533L28.2713 18.5472V17.9212L27.6538 17.8011C28.0797 17.596 28.2713 17.1696 28.2713 16.6253V14.217C28.2713 13.437 27.8894 12.8728 26.9999 12.8728H27.0003ZM27.4334 16.8046C27.4334 17.0982 27.301 17.3181 27.0003 17.3181C26.6992 17.3181 26.5736 17.0977 26.5736 16.8046V14.0858C26.5736 13.7855 26.7068 13.5707 27.0003 13.5707C27.2938 13.5707 27.4334 13.7839 27.4334 14.0858V16.8046Z" fill="white"/>
<path d="M28.7399 12.9316V16.7015C28.7399 17.4734 29.1075 17.9725 29.9898 17.9725C30.8424 17.9725 31.1732 17.4734 31.1732 16.7015V12.9316H30.4013V16.7818C30.4013 17.0758 30.2816 17.2746 29.9898 17.2746C29.6983 17.2746 29.5782 17.0758 29.5782 16.7818V12.9316H28.7404H28.7399Z" fill="white"/>
<path d="M32.3845 12.9316L31.4443 17.9116H32.2382L32.385 16.9997H33.2744L33.4288 17.9116H34.2883L33.3408 12.9316H32.3854H32.3845ZM32.4949 16.3339L32.8253 14.3346H32.8324L33.1628 16.3339H32.4945H32.4949Z" fill="white"/>
<path d="M34.6258 12.9316V17.9128H36.4631V17.2302H35.4636V12.9316H34.6258Z" fill="white"/>
<path d="M36.8383 12.9316H37.6757V17.9132H36.8383V12.9316Z" fill="white"/>
<path d="M39.5942 17.9132V13.6151H40.2845V12.9316H38.0581V13.6151H38.7492V17.9132H39.5942Z" fill="white"/>
<path d="M40.6668 12.9316H41.5043V17.9141H40.6668V12.9316Z" fill="white"/>
<path d="M43.9811 17.2302H42.8201V15.7164H43.6508V15.0405H42.8201V13.6151H43.9811V12.9316H41.9822V17.9128H43.9811V17.2302Z" fill="white"/>
<path d="M44.3106 16.1724V16.8406C44.3106 17.4954 44.6409 17.9725 45.494 17.9725C46.3467 17.9725 46.7138 17.4869 46.7138 16.8034V16.5636C46.7138 16.0133 46.493 15.7338 46.0379 15.2706L45.5012 14.7415C45.261 14.5059 45.1045 14.3448 45.1045 14.0656V13.9624C45.1045 13.6828 45.2661 13.5517 45.5012 13.5517C45.766 13.5517 45.8975 13.69 45.8975 13.9772V14.4095H46.6627V14.0043C46.6627 13.2844 46.3323 12.8733 45.494 12.8733C44.6781 12.8733 44.3186 13.3533 44.3186 13.9679V14.1371C44.3186 14.7102 44.5382 14.997 45.0169 15.4669L45.5084 15.96C45.766 16.1999 45.8831 16.38 45.8831 16.6655V16.8567C45.8831 17.1215 45.763 17.2974 45.5012 17.2974C45.2149 17.2974 45.0897 17.1359 45.0897 16.8567V16.1732H44.3106V16.1724Z" fill="white"/>
<path d="M5.78911 8.65089V17.92H7.82479V5.8103H6.19938L4.32442 8.00757V10.1334H4.34176L5.7705 8.65089H5.78911Z" fill="white"/>
<path d="M15.2548 14.7948V8.93556C15.2548 7.0424 14.3087 5.66736 12.2366 5.66736C10.1828 5.66736 9.23662 7.0424 9.23662 8.93556V14.7948C9.23662 16.6698 10.184 18.063 12.2366 18.063C14.3087 18.063 15.2548 16.6698 15.2548 14.7948ZM11.2715 15.1162V8.61495C11.2715 7.88239 11.5392 7.36427 12.2366 7.36427C12.951 7.36427 13.2187 7.88197 13.2187 8.61495V15.1162C13.2187 15.8488 12.951 16.3661 12.2366 16.3661C11.5392 16.3661 11.2715 15.8492 11.2715 15.1162Z" fill="white"/>
<path d="M35.5377 40.2421H24.4609C24.3932 40.2463 24.3408 40.3021 24.3408 40.3702C24.3408 40.3719 24.3408 40.3745 24.3408 40.3761V43.7057C24.3408 43.7078 24.3408 43.7103 24.3408 43.7124C24.3408 43.7801 24.3936 43.8359 24.4609 43.8406H35.5377C35.6053 43.8359 35.6578 43.7801 35.6578 43.7124C35.6578 43.7103 35.6578 43.7078 35.6578 43.7057V40.3761C35.6578 40.3745 35.6578 40.3719 35.6578 40.3702C35.6578 40.3025 35.6053 40.2463 35.5377 40.2421Z" fill="white"/>
<path d="M35.5377 33.1576H24.4609C24.3932 33.1622 24.3408 33.2181 24.3408 33.2857C24.3408 33.2879 24.3408 33.29 24.3408 33.2921V36.6212C24.3408 36.6237 24.3408 36.6263 24.3408 36.6288C24.3408 36.6965 24.3936 36.7523 24.4609 36.7561L35.5377 36.7565C35.6053 36.7523 35.6582 36.6965 35.6582 36.6288C35.6582 36.6263 35.6578 36.6237 35.6578 36.6212V33.2921C35.6578 33.29 35.6578 33.2879 35.6578 33.2857C35.6578 33.2181 35.6053 33.1622 35.5377 33.1576Z" fill="white"/>
<path d="M35.382 28.1256L30.0646 22.809C30.0477 22.7925 30.024 22.7823 29.9999 22.7823C29.9758 22.7823 29.9525 22.7921 29.9352 22.809L24.6182 28.1256C24.6009 28.1429 24.5912 28.1662 24.5912 28.1903C24.5912 28.241 24.6322 28.2821 24.6829 28.2825H35.3173C35.3676 28.2821 35.4091 28.241 35.4091 28.1903C35.4091 28.1662 35.3994 28.1429 35.382 28.1256Z" fill="white"/>
<path d="M40.3742 43.8816L45.6911 38.5642C45.7085 38.5469 45.7186 38.5236 45.7186 38.4991C45.7186 38.4749 45.7089 38.4513 45.6911 38.4339L40.3742 33.1169C40.3568 33.0996 40.3336 33.0898 40.3094 33.0898C40.2587 33.0898 40.2177 33.1309 40.2177 33.1816V43.8165C40.2177 43.8668 40.2587 43.9078 40.3094 43.9078C40.3336 43.9078 40.3568 43.8985 40.3742 43.8808V43.8812V43.8816Z" fill="white"/>
<path d="M24.6182 48.8734L29.9352 54.1887C29.9525 54.206 29.9758 54.2162 29.9999 54.2162C30.024 54.2162 30.0477 54.2065 30.0646 54.1887L35.382 48.8717C35.3994 48.8544 35.4095 48.8307 35.4095 48.8061C35.4095 48.7554 35.3685 48.7144 35.3177 48.7144H35.3173H24.6829C24.6821 48.7144 24.6813 48.7144 24.6808 48.7144C24.6301 48.7144 24.5886 48.7554 24.5886 48.8061C24.5886 48.8315 24.5992 48.856 24.6182 48.8734Z" fill="white"/>
<path d="M19.6261 33.1169L14.3087 38.4339C14.2914 38.4512 14.2816 38.4749 14.2816 38.499C14.2816 38.5231 14.2909 38.5468 14.3087 38.5641L19.6261 43.8811C19.643 43.8985 19.6667 43.9082 19.6908 43.9082C19.7411 43.9082 19.7826 43.8672 19.7826 43.8169V33.182C19.7826 33.1312 19.7411 33.0902 19.6908 33.0902C19.6667 33.0902 19.643 33.0995 19.6261 33.1173V33.1169Z" fill="white"/>
</svg>
