<svg width="61" height="61" viewBox="0 0 61 61" fill="none" xmlns="http://www.w3.org/2000/svg">
<path d="M0.939301 0.78894H60.9393V60.7889H0.939301V0.78894Z" fill="#19486A"/>
<path d="M20.0861 5.80933H21.3088C22.1399 5.80933 22.4436 6.22171 22.4436 6.91029V7.94442C22.4436 8.63257 22.1399 9.05257 21.3088 9.05257H20.9108V10.7165H20.0861V5.80975V5.80933ZM20.9108 6.48225V8.41475H21.2137C21.4966 8.41475 21.618 8.27771 21.618 8.00913V6.88068C21.618 6.61379 21.4983 6.48225 21.2137 6.48225H20.9108Z" fill="white"/>
<path d="M22.5455 10.7161L23.4718 5.80933H24.4116L25.3442 10.7161H24.4987L24.3473 9.81601H23.4727L23.3276 10.7161H22.5464H22.5455ZM23.5805 9.15958H24.2407L23.9146 7.19113H23.9074L23.5805 9.15958Z" fill="white"/>
<path d="M26.5822 8.46883V10.7194H25.7579V5.80969H26.9578C27.7894 5.80969 28.0926 6.22208 28.0926 6.91065V7.54001C28.0926 8.06787 27.9048 8.38001 27.4328 8.48786L28.2212 10.7169H27.3541L26.5818 8.46925L26.5822 8.46883ZM26.5822 6.48516V8.01204H26.8593C27.1422 8.01204 27.2649 7.86781 27.2649 7.60726V6.88062C27.2649 6.61374 27.1448 6.4822 26.8593 6.4822L26.5822 6.48516Z" fill="white"/>
<path d="M28.387 5.80933H30.5787V6.48225H29.8982V10.7161H29.0671V6.48225H28.387V5.80933Z" fill="white"/>
<path d="M31.796 7.63354V10.7161H31.1015V5.80933H31.9102L32.8014 8.62411V5.80933H33.4874V10.7161H32.7646L31.796 7.63354Z" fill="white"/>
<path d="M34.1649 5.80933H36.1317V6.48225H34.9901V7.88605H35.8073V8.55306H34.9901V10.0431H36.1317V10.7161H34.1649V5.80933Z" fill="white"/>
<path d="M37.4703 8.46883V10.7194H36.646V5.80969H37.8459C38.6787 5.80969 38.9816 6.22208 38.9816 6.91065V7.54001C38.9816 8.06787 38.7933 8.38001 38.3217 8.48786L39.1101 10.7169H38.2435L37.4703 8.46925V8.46883ZM37.4703 6.48516V8.01204H37.7457C38.0278 8.01204 38.1509 7.86781 38.1509 7.60726V6.88062C38.1509 6.61374 38.0278 6.4822 37.7457 6.4822L37.4703 6.48516Z" fill="white"/>
<path d="M39.3936 9.65925V8.99943H40.1608V9.67236C40.1608 9.94771 40.2809 10.1067 40.5647 10.1067C40.8257 10.1067 40.9407 9.9329 40.9407 9.67236V9.48922C40.9407 9.20626 40.8257 9.03243 40.5711 8.79345L40.0872 8.30832C39.6169 7.84645 39.4003 7.56307 39.4003 6.99927V6.83262C39.4003 6.22441 39.7548 5.75281 40.5571 5.75281C41.3814 5.75281 41.708 6.158 41.708 6.86773V7.26573H40.9547V6.83896C40.9547 6.55601 40.8253 6.41897 40.5643 6.41897C40.3325 6.41897 40.1743 6.54966 40.1743 6.82458V6.92609C40.1743 7.20144 40.3266 7.35963 40.5643 7.59141L41.0921 8.11207C41.5409 8.56802 41.757 8.84294 41.757 9.38602V9.62584C41.757 10.2996 41.3971 10.7759 40.5571 10.7759C39.7171 10.7759 39.3931 10.3064 39.3931 9.66179V9.65925H39.3936Z" fill="white"/>
<path d="M43.8857 8.55306H43.0906V10.7161H42.265V5.80933H43.0906V7.88732H43.8857V5.80933H44.7164V10.7161H43.8857V8.55306Z" fill="white"/>
<path d="M45.2603 5.80933H46.0843V10.7156H45.2603V5.80933Z" fill="white"/>
<path d="M46.6341 5.80933H47.8594C48.6914 5.80933 48.9951 6.22171 48.9951 6.91029V7.94442C48.9951 8.63257 48.6914 9.05257 47.8594 9.05257H47.4623V10.7165H46.6341V5.80975V5.80933ZM47.4593 6.48225V8.41475H47.7592C48.0421 8.41475 48.1648 8.27771 48.1648 8.00913V6.88068C48.1648 6.61379 48.0451 6.48225 47.7592 6.48225H47.4593Z" fill="white"/>
<path d="M49.3144 9.65925V8.99943H50.0795V9.67236C50.0795 9.94771 50.2026 10.1067 50.4851 10.1067C50.7452 10.1067 50.8616 9.9329 50.8616 9.67236V9.48922C50.8616 9.20626 50.7452 9.03243 50.4923 8.79345L50.0076 8.30832C49.5381 7.84645 49.3207 7.56307 49.3207 6.99927V6.83262C49.3207 6.22441 49.676 5.75281 50.4775 5.75281C51.3023 5.75281 51.6271 6.158 51.6271 6.86773V7.26573H50.8768V6.83896C50.8768 6.55601 50.7461 6.41897 50.4864 6.41897C50.2546 6.41897 50.0964 6.54966 50.0964 6.82458V6.92609C50.0964 7.20144 50.247 7.35963 50.4864 7.59141L51.0142 8.11207C51.4622 8.56802 51.6787 8.84294 51.6787 9.38602V9.62584C51.6787 10.2996 51.3192 10.7759 50.4792 10.7759C49.6392 10.7759 49.3152 10.3064 49.3152 9.66179L49.3144 9.65925Z" fill="white"/>
<path d="M9.91734 5.81738V17.914H7.88335V8.65416H7.86516L6.43769 10.1349H6.42035V8.01169L8.29446 5.81738H9.91734Z" fill="white"/>
<path d="M10.8453 5.81738H15.9491V7.69066L13.29 17.914H11.2725L13.9854 7.47665H10.8453V5.81738Z" fill="white"/>
<path d="M20.0873 12.9363H22.0494V13.6194H20.9248V15.0451H21.7622V15.7198H20.9248V17.9162H20.0873V12.9363Z" fill="white"/>
<path d="M22.3429 16.6288V14.2217C22.3429 13.4418 22.7244 12.8776 23.6029 12.8776C24.481 12.8776 24.8794 13.4435 24.8794 14.2217V16.6288C24.8794 17.3998 24.4979 17.9729 23.6088 17.9729C22.7198 17.9729 22.3488 17.3998 22.3488 16.6288H22.3429ZM24.0453 16.7612V14.0902C24.0453 13.7899 23.9129 13.5759 23.6122 13.5759C23.3111 13.5759 23.1867 13.789 23.1867 14.0902V16.7637C23.1867 17.0636 23.3183 17.278 23.6122 17.278C23.9062 17.278 24.0453 17.0648 24.0453 16.7637V16.7616V16.7612Z" fill="white"/>
<path d="M26.2595 15.6322V17.9162H25.4195V12.9363H26.6385C27.4835 12.9363 27.7923 13.3563 27.7923 14.0529V14.692C27.7923 15.2274 27.6007 15.5442 27.124 15.6517L27.9238 17.9145H27.0437L26.2595 15.6318V15.6322ZM26.2595 13.6194V15.1695H26.5387C26.825 15.1695 26.9502 15.0223 26.9502 14.758V14.0229C26.9502 13.7509 26.8246 13.6194 26.5387 13.6194H26.2595Z" fill="white"/>
<path d="M29.117 12.9363H31.3426V13.6194H30.6528V17.9162H29.8077V13.6194H29.117V12.9363Z" fill="white"/>
<path d="M33.3774 15.7198H32.5692V17.9162H31.7321V12.9363H32.5692V15.0451H33.3774V12.9363H34.2221V17.9162H33.3774V15.7198Z" fill="white"/>
<path d="M34.7668 12.9363H36.7649V13.6194H35.6047V15.0451H36.4341V15.7198H35.6047V17.2335H36.7649V17.9162H34.7668V12.9363Z" fill="white"/>
<path d="M39.4401 15.2575H40.6299V17.9166H40.0297V17.3731C39.9201 17.7483 39.6846 17.9733 39.2295 17.9733C38.5092 17.9733 38.1788 17.4002 38.1788 16.6291V14.2221C38.1788 13.4422 38.5531 12.8779 39.4354 12.8779C40.3609 12.8779 40.6354 13.3922 40.6354 14.1265V14.5668H39.866V14.0605C39.866 13.7522 39.7463 13.5758 39.446 13.5758C39.1461 13.5758 39.0129 13.789 39.0129 14.0901V16.7636C39.0129 17.0635 39.1372 17.278 39.4244 17.278C39.696 17.278 39.8351 17.1227 39.8351 16.7979V15.919H39.4388L39.4401 15.2579V15.2575Z" fill="white"/>
<path d="M41.1073 16.6288V14.2217C41.1073 13.4418 41.4888 12.8776 42.3673 12.8776C43.2458 12.8776 43.6391 13.4435 43.6391 14.2217V16.6288C43.6391 17.3998 43.2568 17.9729 42.3673 17.9729C41.4783 17.9729 41.1073 17.3998 41.1073 16.6288ZM42.8042 16.7612V14.0902C42.8042 13.7899 42.6714 13.5759 42.3703 13.5759C42.0691 13.5759 41.9448 13.789 41.9448 14.0902V16.7637C41.9448 17.0636 42.0767 17.278 42.3703 17.278C42.6638 17.278 42.8042 17.0648 42.8042 16.7637V16.7616V16.7612Z" fill="white"/>
<path d="M43.8765 17.9162L44.8167 12.9363H45.7717L46.7191 17.9162H45.8593L45.7057 17.0051H44.8167L44.6703 17.9162H43.876H43.8765ZM44.9262 16.3369H45.5954L45.2646 14.3388H45.2578L44.9267 16.3369H44.9262Z" fill="white"/>
<path d="M47.1987 12.9363H48.0366V17.2335H49.0348V17.9162H47.1987V12.9363Z" fill="white"/>
<path d="M49.3355 16.8445V16.1758H50.115V16.8589C50.115 17.138 50.2406 17.2996 50.5261 17.2996C50.7909 17.2996 50.9089 17.1224 50.9089 16.8589V16.6677C50.9089 16.3809 50.7888 16.2054 50.5337 15.9622L50.0427 15.4707C49.5626 15.0004 49.3448 14.714 49.3448 14.1405V13.9718C49.3448 13.3551 49.7048 12.8776 50.5194 12.8776C51.3594 12.8776 51.6876 13.2883 51.6876 14.0086V14.4121H50.922V13.9794C50.922 13.6926 50.7896 13.5526 50.5244 13.5526C50.2897 13.5526 50.1281 13.6854 50.1281 13.9641V14.0669C50.1281 14.3461 50.2834 14.5076 50.5244 14.7432L51.0607 15.2715C51.5167 15.7342 51.7379 16.0134 51.7379 16.5641V16.8039C51.7379 17.4874 51.3699 17.9721 50.5181 17.9721C49.6658 17.9721 49.3355 17.492 49.3355 16.8411V16.8436V16.8445Z" fill="white"/>
<path d="M45.8351 37.1777C45.8351 32.9638 42.4828 29.5218 38.3069 29.3691C37.2052 26.246 34.2508 24.1561 30.9386 24.1561C27.6265 24.1561 24.6721 26.2464 23.5708 29.3691C19.3954 29.5218 16.0443 32.9642 16.0443 37.1777C16.0443 39.5861 17.1583 41.8603 19.06 43.3369C18.8565 44.0411 18.7516 44.7728 18.7516 45.5066C18.7516 49.8136 22.2575 53.3191 26.5674 53.3191C26.5691 53.3195 26.5729 53.3195 26.5746 53.3195C28.1463 53.3195 29.6825 52.8424 30.9771 51.9521C32.2562 52.8086 33.764 53.2679 35.3048 53.2679C35.3065 53.2679 35.3112 53.2679 35.3133 53.2679C39.6228 53.2679 43.1282 49.7624 43.1282 45.455C43.1278 44.7368 43.028 44.0199 42.8317 43.3292C44.7266 41.8514 45.8356 39.5814 45.8356 37.1786V37.1777H45.8351ZM37.1794 31.9707C37.1794 35.0993 34.8641 37.6887 31.8586 38.1362C31.807 37.8194 31.7782 37.4979 31.7765 37.1765C31.7808 34.0889 34.0436 31.4665 37.0973 31.011C37.1489 31.3278 37.1768 31.6493 37.1794 31.9711V31.9707ZM30.9674 49.9249C29.7552 48.7533 29.07 47.1371 29.07 45.45C29.07 43.7928 29.7328 42.2016 30.9082 41.0343C32.1212 42.2067 32.8064 43.8216 32.8064 45.5087C32.8064 47.1663 32.1436 48.7566 30.9678 49.9244L30.9674 49.9249ZM24.7792 31.0114C27.7847 31.4589 30.0995 34.0487 30.0995 37.1777C30.0974 37.4992 30.0695 37.8206 30.0175 38.137C27.0132 37.6883 24.6996 35.0989 24.6996 31.9703C24.7013 31.6488 24.7288 31.3274 24.7804 31.0106L24.7787 31.0114H24.7792ZM29.4329 39.9688C28.3823 42.0815 26.2252 43.4181 23.8656 43.4181C22.8661 43.4181 21.8781 43.1761 20.9924 42.7147C22.0431 40.602 24.2001 39.2655 26.5598 39.2655C27.5592 39.2655 28.5473 39.5078 29.4329 39.9688ZM32.4253 39.927C33.3169 39.4579 34.31 39.213 35.3179 39.213C37.6949 39.213 39.866 40.5694 40.9077 42.705C40.0161 43.174 39.0226 43.4185 38.0151 43.4185C35.6381 43.4185 33.4671 42.0621 32.4253 39.9265V39.927ZM30.9399 25.7304C33.4227 25.7325 35.669 27.2069 36.6604 29.482C34.1552 29.9295 32.0193 31.5689 30.9395 33.8732C29.8597 31.5676 27.725 29.9287 25.2186 29.482C26.2104 27.2069 28.4572 25.7325 30.9403 25.7304H30.9399ZM17.6198 37.1777C17.6236 33.9916 20.0251 31.3181 23.1918 30.9721C23.1487 31.3062 23.1258 31.6467 23.1258 31.9847C23.1258 34.1781 24.0529 36.2709 25.6779 37.7441C23.1381 38.0363 20.8994 39.5543 19.6855 41.8045C18.3726 40.6257 17.6206 38.9427 17.6198 37.1773V37.1777ZM20.3254 45.5071V45.5062C20.3254 45.0723 20.3715 44.6375 20.4616 44.2128C21.5199 44.7246 22.6817 44.9915 23.858 44.9915C25.178 44.9915 26.4782 44.6552 27.6324 44.0174C27.5432 44.4924 27.4979 44.9758 27.4979 45.4588C27.4979 47.4873 28.2909 49.4372 29.707 50.8888C28.7524 51.4483 27.6624 51.7448 26.5551 51.7448C23.1152 51.7448 20.3254 48.955 20.3254 45.5151C20.3254 45.5126 20.3254 45.5087 20.3254 45.5062V45.5066V45.5071ZM41.5544 45.4546C41.5544 45.4576 41.5544 45.4605 41.5544 45.4639C41.5544 48.9047 38.7642 51.6949 35.3234 51.6949C34.2411 51.6949 33.1744 51.412 32.235 50.8757C33.6134 49.4291 34.3815 47.5076 34.3815 45.51C34.3815 45.008 34.332 44.5042 34.2364 44.0111C35.3928 44.6535 36.6968 44.9915 38.0206 44.9915C39.2011 44.9915 40.3676 44.7229 41.4288 44.2073C41.5125 44.6176 41.5548 45.0355 41.5548 45.4542V45.455L41.5544 45.4546ZM36.2493 37.6976C37.8447 36.2235 38.7544 34.1464 38.7544 31.9728V31.9711C38.7544 31.6378 38.7308 31.3029 38.6893 30.9725C41.8564 31.3079 44.2622 33.9814 44.2622 37.1672C44.2622 38.9279 43.5156 40.6071 42.2108 41.788C41.0109 39.5345 38.7836 38.0063 36.2493 37.6971L36.2497 37.6976H36.2493Z" fill="white"/>
</svg>
