<svg width="61" height="61" viewBox="0 0 61 61" fill="none" xmlns="http://www.w3.org/2000/svg">
<path d="M60.2264 60.0708H0.226349V0.0708008H60.2264V60.0708Z" fill="#970B31"/>
<path d="M41.5674 29.5899L35.4685 35.3917C35.239 35.6205 35.1204 35.789 35.1204 36.2624V52.521C35.1204 52.7123 35.276 52.8678 35.4685 52.8678H41.7679C41.9605 52.8678 42.1144 52.7123 42.1144 52.521V29.7362C42.1144 29.5437 41.9655 29.1939 41.567 29.5899H41.5674Z" fill="white"/>
<path d="M23.9978 37.1478L17.8981 42.9483C17.6694 43.177 17.5496 43.3456 17.5496 43.819V52.5209C17.5496 52.7113 17.7068 52.8665 17.8981 52.8665H24.1983C24.3913 52.8665 24.5452 52.7113 24.5452 52.5209V37.2937C24.5452 37.1007 24.3938 36.7501 23.9978 37.1473V37.1478Z" fill="white"/>
<path d="M44.3389 22.5545C44.3414 22.5078 44.3242 22.4586 44.2872 22.4216C44.2553 22.3909 44.2141 22.3762 44.1741 22.3724L44.1409 22.375L44.0917 22.3775L39.4223 23.4302L39.337 23.4407C39.3025 23.4462 39.2706 23.4634 39.2453 23.487C39.176 23.5563 39.176 23.6694 39.2453 23.7384L39.2983 23.7914L40.3641 24.8575L29.7822 35.4379L24.8954 30.5505C24.8395 30.4958 24.7521 30.4958 24.6962 30.5505L23.3709 31.8769C23.3697 31.8769 23.3697 31.8782 23.3697 31.8782L15.5349 39.711C15.4802 39.7674 15.4802 39.8578 15.5349 39.9107L16.8626 41.2384C16.9173 41.2931 17.0051 41.2931 17.0594 41.2384L24.7966 33.5022L28.3434 37.0502C28.3472 37.0556 28.3489 37.0607 28.354 37.0662L29.6804 38.3926C29.7351 38.4472 29.8238 38.4472 29.8801 38.3926L41.8886 26.3833L43.0091 27.5012C43.078 27.5718 43.1895 27.5718 43.2588 27.5012C43.2904 27.4696 43.3068 27.4297 43.3093 27.3868L43.3105 27.3721L44.3356 22.6062L44.3381 22.5541V22.5536L44.3389 22.5545Z" fill="white"/>
<path d="M32.8173 38.1655L29.8667 41.14C29.8103 41.1863 29.7283 41.1854 29.6762 41.1333L27.0031 38.409C26.5128 37.9213 26.4073 38.3161 26.4073 38.5074V52.5213C26.4073 52.7117 26.5616 52.8668 26.7529 52.8668H33.0553C33.2457 52.8668 33.4009 52.7113 33.4009 52.5213V38.2749C33.4009 38.0844 33.2508 37.7325 32.8173 38.166V38.1655Z" fill="white"/>
<path d="M11.8405 14.236V12.9163C11.8405 11.756 11.4297 10.9172 10.4846 10.4892C11.2863 10.0974 11.6622 9.38353 11.6622 8.38376V7.8843C11.6622 5.99283 10.6801 4.97583 8.80744 4.97583C6.95164 4.97583 5.98842 5.99283 5.98842 7.8843V8.38376C5.98842 9.36587 6.34579 10.0974 7.1299 10.4892C6.18476 10.9176 5.79166 11.756 5.79166 12.9163V14.236C5.79166 16.0745 6.66616 17.3593 8.80744 17.3593C10.966 17.3593 11.8409 16.0741 11.8409 14.236H11.8405ZM7.89636 7.76028C7.89636 7.02791 8.1461 6.59824 8.80618 6.59824C9.4835 6.59824 9.73408 7.02791 9.73408 7.76028V8.5801C9.73408 9.31163 9.48393 9.74046 8.80618 9.74046C8.14526 9.74046 7.89636 9.31121 7.89636 8.5801V7.76028ZM9.8064 14.45C9.8064 15.1824 9.53774 15.6995 8.8066 15.6995C8.09312 15.6995 7.82446 15.1824 7.82446 14.45V12.4871C7.82446 11.7555 8.09312 11.2388 8.8066 11.2388C9.53774 11.2388 9.8064 11.756 9.8064 12.4871V14.45Z" fill="white"/>
<path d="M16.1718 10.3308V7.41058C16.0003 7.66031 15.822 7.91676 15.6349 8.18163C15.6189 8.04079 15.579 7.84824 15.518 7.59851C15.5016 7.4892 15.4861 7.411 15.4701 7.36433C15.954 6.64751 16.3429 5.78271 16.6397 4.77117L17.2696 4.93472C17.114 5.41736 16.9425 5.86132 16.7554 6.26661V10.3312H16.1718V10.3308ZM17.1998 6.42973V5.86889H18.6726V4.77075H19.2788V5.86889H20.9391V6.42973H19.5365C19.9099 7.36433 20.4552 8.12697 21.1716 8.71851C21.1569 8.78073 21.109 8.88163 21.032 9.02247C20.9538 9.16205 20.8992 9.27094 20.8685 9.34956C20.1214 8.63316 19.5912 7.83857 19.2788 6.96661V8.78746H20.1441V9.32602H19.2788V10.3308H18.6726V9.32602H17.8069V8.78746H18.6726V6.98889C18.3455 7.8928 17.8313 8.70968 17.1308 9.44247C17.0841 9.33358 16.998 9.16205 16.8731 8.9283C16.8268 8.86734 16.7949 8.81941 16.7802 8.78746C17.5126 8.18121 18.0562 7.39544 18.4165 6.42973H17.1998Z" fill="white"/>
<path d="M21.5454 5.588V5.04944H27.0825V5.588H24.5599L24.3257 6.24217H26.8021V10.3308H26.2173V9.98014H22.409V10.3308H21.8027V6.24217H23.648L23.8351 5.588H21.545H21.5454ZM22.4094 9.51347H23.1805V6.75677H22.4094V9.51347ZM23.7649 7.38698H24.8631V6.75551H23.7649V7.38698ZM23.7649 8.43845H24.8631V7.83053H23.7649V8.43845ZM23.7649 9.51347H24.8631V8.88242H23.7649V9.51347ZM26.2177 6.75677H25.4227V9.51347H26.2177V6.75677Z" fill="white"/>
<path d="M27.8536 5.86795V5.23816H32.7357V5.86795H30.6575V9.37342H33.0645V9.95655H27.5497V9.37342H29.9566V5.86795H27.8536Z" fill="white"/>
<path d="M33.6249 8.20437C33.5934 8.06479 33.5467 7.86257 33.4841 7.59686C33.4681 7.5359 33.4534 7.48923 33.4378 7.45728C33.952 6.66269 34.3565 5.76004 34.6525 4.74725L35.2604 4.91079C35.1351 5.3165 34.9876 5.72052 34.816 6.12581V10.3309H34.2085V7.31644C34.0214 7.62755 33.8272 7.92437 33.6249 8.20437ZM35.4702 7.52749C35.3306 7.38665 35.1831 7.23152 35.0262 7.05998C35.5102 6.45205 35.8915 5.68142 36.1719 4.74683L36.8257 4.86412C36.7795 4.97301 36.7168 5.13656 36.6395 5.35433C36.5915 5.47962 36.5533 5.57295 36.5213 5.63349H39.1146V6.21956H37.1751V7.08227H38.7875V7.66707H37.1751V8.55458H38.951V9.11542H37.1751V10.33H36.5676V6.21914H36.2644C36.0302 6.70179 35.7658 7.13608 35.4694 7.52707L35.4702 7.52749Z" fill="white"/>
<path d="M39.5123 7.01327V6.45243H40.4936V5.68138C40.399 5.68138 40.2594 5.68937 40.0736 5.70492C39.8701 5.70492 39.723 5.71333 39.6296 5.72889C39.6132 5.65069 39.5977 5.54138 39.5817 5.40054C39.551 5.29291 39.535 5.2063 39.535 5.14282C40.4709 5.11213 41.242 5.05916 41.8491 4.98096L41.9647 5.5418C41.6843 5.58847 41.3879 5.61916 41.078 5.63471V6.45243H42.0349V7.01327H41.078V7.76162L41.2878 7.55015C41.3807 7.62835 41.522 7.75364 41.7078 7.92349C41.8953 8.09502 42.0349 8.21988 42.1278 8.2985L41.7318 8.76475C41.6692 8.70253 41.5682 8.59322 41.4274 8.43808C41.2718 8.28253 41.155 8.16523 41.0776 8.08703V10.3308H40.4928V7.97015C40.291 8.43766 40.0025 8.91358 39.6288 9.39664C39.6124 9.31928 39.5729 9.20073 39.5115 9.04601C39.4652 8.89045 39.4253 8.77358 39.3946 8.69496C39.7986 8.27538 40.1333 7.71412 40.3982 7.01327H39.5115V7.01285L39.5123 7.01327ZM42.3397 10.1673V5.33075H44.8388V10.1437H44.2313V9.62913H42.946V10.1677H42.3397V10.1673ZM42.946 9.06913H44.2313V5.89243H42.946V9.06913Z" fill="white"/>
<path d="M15.7274 16.2171L15.5411 15.6802C15.7114 15.5873 15.8447 15.4704 15.9376 15.3304C15.9683 15.2825 16.0158 15.2135 16.0785 15.1189C16.1554 15.026 16.2883 14.8398 16.4745 14.5594C16.4135 14.5594 16.3269 14.5673 16.218 14.5821C15.9376 14.5821 15.7421 14.598 15.6345 14.6283L15.4697 14.0914C15.5802 13.9973 15.6732 13.8896 15.7501 13.7643C16.0625 13.2338 16.3433 12.7209 16.5931 12.2227L17.1993 12.4089C16.8575 13.0164 16.5069 13.5625 16.1491 14.0452L16.8256 14.0225C16.9664 13.803 17.09 13.5928 17.1993 13.391L17.7375 13.6475C17.3625 14.239 16.9126 14.894 16.382 15.6091L17.4108 15.4923V15.5385C17.3793 15.6794 17.3629 15.8429 17.3629 16.0304C16.7406 16.0771 16.1958 16.1397 15.7278 16.2167L15.7274 16.2171ZM17.7135 15.914V15.3304H20.9143V15.914H19.6286V17.0583H21.172V17.5729H17.4327V17.1756C17.3864 17.1756 17.3158 17.1836 17.2229 17.1983C16.7554 17.2765 16.2101 17.3707 15.5878 17.4788L15.4932 16.8952C15.883 16.849 16.4598 16.7704 17.2229 16.661C17.3318 16.6472 17.4171 16.6383 17.4793 16.6383V16.8486C17.4634 16.9415 17.4566 17.0121 17.4566 17.0583H18.9984V15.914H17.7131H17.7135ZM17.6669 15.1673L17.3864 14.6064C18.5695 14.2474 19.4268 13.7488 19.9557 13.111H17.8064V12.5502H20.7041V13.1337C20.4544 13.4608 20.1912 13.7412 19.9095 13.975C20.0503 14.0532 20.2681 14.1692 20.5632 14.3256C20.8449 14.4812 21.0535 14.598 21.1947 14.6754L20.8214 15.1673C20.4157 14.9016 19.9494 14.6212 19.4188 14.326C18.9202 14.6531 18.3366 14.9323 17.6669 15.1673Z" fill="white"/>
<path d="M22.4334 15.0731C22.0903 14.7767 21.7712 14.5123 21.4752 14.2781L21.8965 13.8341C22.0836 13.975 22.3404 14.1692 22.6675 14.4189C22.7605 14.4963 22.8311 14.5518 22.8773 14.5825L22.4334 15.0727V15.0731ZM22.2236 17.7831L21.616 17.5717C21.8965 16.7939 22.1063 16.1002 22.2471 15.4931C22.2938 15.5091 22.3627 15.5326 22.4556 15.5637C22.6289 15.626 22.768 15.6726 22.8769 15.7033C22.8 15.953 22.6827 16.3268 22.5275 16.825C22.4014 17.2294 22.3013 17.5485 22.2231 17.7836L22.2236 17.7831ZM22.6436 13.555C22.3165 13.2426 22.0054 12.9701 21.709 12.7364L22.1302 12.2937C22.2379 12.371 22.4014 12.4947 22.6205 12.6658C22.8223 12.8373 22.9778 12.9701 23.0867 13.0631L22.6427 13.555H22.6432H22.6436ZM23.2747 17.876C23.2431 17.8441 23.1885 17.7899 23.1111 17.7125C22.956 17.5872 22.8387 17.493 22.7605 17.4321C23.228 17.1979 23.5168 16.9646 23.6261 16.73C23.7497 16.5282 23.8132 16.1548 23.8132 15.6096H24.443C24.443 16.233 24.3648 16.685 24.2089 16.9642C24.0693 17.2446 23.7569 17.5477 23.2742 17.876H23.2747ZM23.1351 13.4608V12.9235H24.7941L24.5826 12.2697L25.26 12.1991C25.3529 12.4316 25.4315 12.675 25.4925 12.9231H27.0821V13.4604H26.5919C26.2795 13.9893 25.9444 14.4025 25.5871 14.6998C25.9764 14.8713 26.4969 15.0029 27.1528 15.0958C27.1368 15.1273 27.1145 15.174 27.0821 15.2366C26.9732 15.4384 26.9026 15.5864 26.8723 15.6806C26.079 15.4935 25.4542 15.29 25.0035 15.0731C24.5515 15.3228 23.92 15.5393 23.1107 15.7269C23.0325 15.5398 22.9391 15.3535 22.8303 15.166C23.5303 15.0252 24.0697 14.8709 24.4426 14.6998C24.0996 14.4193 23.7729 14.03 23.4605 13.5297L23.5778 13.4608H23.1351ZM25.0039 14.3954C25.3457 14.1612 25.6421 13.8501 25.8914 13.4608H24.1155C24.364 13.8501 24.6608 14.1608 25.0035 14.3954H25.0039ZM25.6114 15.61H26.2429V17.7592H25.6114V15.61Z" fill="white"/>
<path d="M27.5501 14.3251V13.7176H28.0403V12.2684H28.6011V13.7176H29.0451V14.3251H28.6011V16.3112C28.6171 16.3112 28.6394 16.3032 28.6718 16.2872C28.906 16.241 29.0691 16.1947 29.162 16.1476V16.7774C29.0212 16.8253 28.803 16.8863 28.5078 16.9649C28.1021 17.0738 27.791 17.152 27.5719 17.1991L27.4563 16.5912L28.0399 16.4743V14.3247H27.5496H27.5501V14.3251ZM29.186 15.002V12.9007H30.0966C30.0802 12.8688 30.0567 12.8301 30.026 12.7834C29.8864 12.5656 29.7843 12.4101 29.7224 12.3159L30.306 12.199C30.3523 12.2932 30.4469 12.4332 30.5864 12.6203C30.681 12.7599 30.742 12.8532 30.774 12.9007H31.3815C31.5051 12.7132 31.6447 12.479 31.8015 12.1986L32.4326 12.3394C32.2917 12.5413 32.1521 12.7292 32.013 12.9003H32.9476V15.0016H29.1856H29.186V15.002ZM29.4429 17.8302V15.3749H32.6899V17.8302H32.1067V17.5724H30.0264V17.8302H29.4429ZM29.7233 14.5589H30.8215V13.3678H29.7233V14.5589ZM30.3069 14.3718C30.2287 14.2309 30.0971 14.03 29.9108 13.7643C29.8789 13.7479 29.8629 13.7323 29.8629 13.7176L30.1912 13.5061C30.2219 13.554 30.2602 13.6167 30.3069 13.6936C30.4624 13.9114 30.5713 14.0762 30.634 14.1838L30.3069 14.3709V14.3713V14.3718ZM30.0264 16.2868H32.1051V15.8193H30.0264V16.2868ZM30.0264 17.1524H32.1051V16.6849H30.0264V17.1524ZM32.4095 13.3678H31.3352V14.5589H32.4095V13.3678ZM31.8019 14.394L31.4748 14.1843C31.6619 13.9358 31.8179 13.7176 31.9424 13.5301L32.269 13.7399C32.2211 13.8038 32.1442 13.9194 32.0353 14.0909C31.926 14.2305 31.8478 14.3327 31.8011 14.394H31.8015H31.8019Z" fill="white"/>
<path d="M38.6714 17.5961C37.3315 17.1286 36.4595 16.3108 36.0547 15.1442H35.0734V16.965C35.5875 16.7321 36.0383 16.545 36.4293 16.405C36.4293 16.4824 36.4356 16.5992 36.452 16.7548V17.0592C35.9067 17.2454 35.4627 17.409 35.12 17.5494C34.9178 17.6423 34.7383 17.7356 34.5827 17.8286L34.2094 17.2913C34.3489 17.1677 34.4196 16.9961 34.4196 16.7783V15.1433H33.5316V14.5354H34.4196V12.2681H35.0734V14.5354H39.0212V15.1433H36.6857C37.0431 16.03 37.8381 16.661 39.0679 17.0348C39.0532 17.0508 39.0297 17.0731 38.999 17.1054C38.9208 17.1979 38.8115 17.3615 38.6719 17.5956L38.6714 17.5961ZM35.7511 14.2546C35.6569 14.0687 35.556 13.8892 35.4471 13.7177C36.46 13.3427 37.3622 12.9243 38.1573 12.4564L38.5546 12.971C37.699 13.4373 36.7631 13.8665 35.7511 14.2546Z" fill="white"/>
</svg>
