<svg width="61" height="61" viewBox="0 0 61 61" fill="none" xmlns="http://www.w3.org/2000/svg">
<path d="M60.7896 60.2931H0.789612V0.293091H60.7896V60.2931Z" fill="#ED6A02"/>
<path d="M46.5278 39.7291L39.3944 35.6135V27.3781C39.3944 27.2036 39.3021 27.0447 39.1522 26.9562L31.7777 22.6992C31.6265 22.6123 31.4419 22.6123 31.2902 22.6992L23.9162 26.9562C23.765 27.0452 23.6727 27.2036 23.6727 27.3781V35.6135L16.5418 39.7291C16.3906 39.8159 16.2983 39.9769 16.2983 40.151V48.6676C16.2983 48.8421 16.391 49.0022 16.5418 49.0895L23.9162 53.3465C23.9925 53.3889 24.0755 53.4105 24.1598 53.4105C24.2441 53.4105 24.3271 53.3893 24.402 53.3465L31.5355 49.2288L38.6659 53.3465C38.7409 53.3889 38.8243 53.4105 38.9086 53.4105C38.9929 53.4105 39.0759 53.3893 39.1522 53.3465L46.5278 49.0895C46.6778 49.0027 46.7701 48.8421 46.7701 48.6676V40.151C46.7701 39.9773 46.6778 39.8151 46.5278 39.7291ZM31.048 47.8252L25.1318 44.4093L31.048 40.993V47.8252ZM37.9345 35.8939L32.02 39.3073V32.478L37.9345 35.8943V35.8939ZM31.048 39.3081L25.1318 35.8939L31.048 32.4776V39.3081ZM32.5075 40.1505L38.9082 36.4559L45.3101 40.1505L38.9082 43.8464L32.5075 40.1505ZM38.4224 35.0506L32.5079 31.636L38.4224 28.2201V35.0506ZM30.5609 31.636L24.6464 35.0506V28.2201L30.5609 31.636ZM23.6727 52.0823L17.2707 48.3864V40.9934L23.6727 44.691V52.0827V52.0823ZM24.6464 52.0823V45.2517L30.5609 48.6676L24.6464 52.0823ZM45.7981 48.3864L39.3944 52.0823V44.6905L45.7981 40.993V48.386V48.3864Z" fill="white"/>
<path d="M12.1894 8.36421C12.1894 6.49086 11.3686 5.13721 9.22882 5.13721C7.06999 5.13721 6.23221 6.31297 6.23221 8.18632V9.96902C6.23221 11.9491 7.01662 12.9478 8.48041 12.9478C9.33598 12.9478 9.85313 12.5544 10.1555 11.966H10.1729V14.5692C10.1729 15.3002 9.88786 15.8186 9.15639 15.8186C8.42535 15.8186 8.15893 15.39 8.15893 14.6416V13.8381H6.30336V14.4823C6.30336 16.2646 6.94631 17.5124 9.19324 17.5124C11.333 17.5124 12.1899 16.1397 12.1899 14.249V8.36378V8.36421H12.1894ZM10.1729 10.2189C10.1382 10.8966 9.85313 11.3252 9.21061 11.3252C8.51556 11.3252 8.24746 10.8966 8.24746 10.1122V8.00758C8.24746 7.24181 8.53123 6.79581 9.22924 6.79581C9.90692 6.79581 10.1733 7.25875 10.1733 8.00758V10.2198L10.1729 10.2193V10.2189Z" fill="white"/>
<path d="M15.6659 10.5751C15.6193 10.5429 15.5575 10.4971 15.48 10.4344C15.3072 10.3264 15.1822 10.2405 15.1051 10.179C15.5418 9.71017 15.7438 9.04859 15.7129 8.19303V7.30358H17.0458C16.9827 7.21125 16.8891 7.07868 16.7646 6.90714C16.624 6.73603 16.5236 6.61151 16.4605 6.5323L16.9747 6.22989C16.9908 6.26081 17.0213 6.29978 17.0683 6.34637C17.2237 6.5323 17.4109 6.76695 17.6295 7.04649L17.1848 7.30358H18.4702C18.6579 7.03844 18.8747 6.68902 19.1238 6.25234L19.7316 6.53188C19.5761 6.76652 19.3889 7.02362 19.1704 7.30316H20.6193V7.86436H16.3665V8.23792C16.3974 9.17227 16.164 9.95159 15.6663 10.5746L15.6659 10.5751ZM15.3152 6.1833V5.59965H17.8396C17.8074 5.50605 17.7616 5.36501 17.6989 5.17907C17.6829 5.13206 17.668 5.09309 17.6524 5.0626L18.3766 4.96899C18.3915 5.0626 18.4317 5.20194 18.4931 5.38958C18.5253 5.48318 18.5482 5.55264 18.5643 5.59965H20.7604V6.1833H15.3156H15.3152Z" fill="white"/>
<path d="M21.1805 10.2717V9.6881H22.8624V5.06128H23.5155V9.6881H24.405V5.06128H25.0357V9.6881H26.7404V10.2717H21.1805ZM22.1619 8.70632C21.8658 7.83424 21.5778 7.02442 21.297 6.27601L21.8582 6.08965C22.2623 7.13327 22.5596 7.93504 22.7459 8.49455L22.1623 8.70632H22.1619ZM25.69 8.70632L25.1051 8.4488C25.3393 7.95071 25.6583 7.16334 26.0623 6.08923L26.6477 6.29846C26.2728 7.26541 25.9539 8.06719 25.69 8.70632Z" fill="white"/>
<path d="M29.5444 9.94451L29.0772 10.4117L27.8159 9.03261L28.2602 8.6366L29.5444 9.94451Z" fill="white"/>
<path d="M33.0958 7.02361L33.0492 7.00074C33.0492 7.4065 33.0327 7.82708 33.0022 8.26248C32.9861 8.74448 32.7451 8.99479 32.2792 9.00962L31.6244 9.03376C31.6083 8.95583 31.5778 8.81563 31.5308 8.61318C31.5147 8.55007 31.5071 8.50348 31.5071 8.47256C31.7252 8.48908 31.9129 8.49543 32.0683 8.49543C32.3025 8.51195 32.4338 8.38743 32.466 8.12187V7.88892C32.4808 7.7178 32.4889 7.59328 32.4889 7.51535H31.2034V9.50136C31.1886 9.76523 31.3212 9.89907 31.6011 9.89907H32.3495C32.6134 9.89907 32.7684 9.79572 32.815 9.59327C32.815 9.56235 32.8235 9.51576 32.8392 9.45392C32.854 9.40733 32.8777 9.26629 32.9086 9.03376C32.9395 9.04774 32.9946 9.06468 33.0721 9.0795C33.1657 9.12779 33.3063 9.17268 33.4927 9.22012C33.4762 9.34464 33.4376 9.51618 33.3762 9.73431C33.3597 9.81182 33.3453 9.86688 33.3292 9.89907C33.2356 10.2557 32.94 10.4264 32.4415 10.412H31.4597C30.8836 10.426 30.6041 10.1545 30.6189 9.59369V7.18752C30.6041 7.20362 30.5719 7.22607 30.5262 7.25868C30.4944 7.2896 30.4245 7.34466 30.3161 7.42174C30.2369 7.21929 30.1513 7.0325 30.0586 6.86054C30.7752 6.36245 31.3118 5.73179 31.6693 4.96814L32.3013 5.01515C32.2852 5.04692 32.2695 5.08631 32.253 5.13163C32.2221 5.19431 32.1996 5.24133 32.1835 5.27225C32.4487 5.5052 32.7913 5.84107 33.2119 6.27647C33.3525 6.41709 33.4529 6.51747 33.516 6.58058L33.0954 7.02361L33.0958 7.02403V7.02361ZM31.9048 5.73942C31.6248 6.19092 31.2741 6.6043 30.8536 6.97702H33.0497C32.9235 6.82158 32.7375 6.61277 32.4885 6.34763C32.2394 6.08249 32.045 5.87876 31.9048 5.73942ZM33.6575 5.62252H34.2415V9.14981H33.6575V5.62252ZM33.915 10.4823C33.8828 10.2947 33.8438 10.1003 33.7968 9.89864H34.5215C34.7866 9.89864 34.9107 9.77243 34.8951 9.5238V4.99059H35.5033V9.68687C35.5342 10.2011 35.2852 10.4662 34.7549 10.4823H33.9154V10.4827L33.915 10.4823Z" fill="white"/>
<path d="M36.5071 10.0148L36.0399 9.82712C36.2259 9.51666 36.4054 9.1414 36.5766 8.70642L37.0442 8.86991C36.8578 9.33708 36.6782 9.71869 36.5071 10.0148ZM36.25 6.06603V5.55184H37.325C37.3089 5.5061 37.2852 5.43664 37.2555 5.34304C37.2072 5.18632 37.1687 5.08552 37.1373 5.03893L37.7909 4.96777L37.9785 5.55142H38.9374V6.06561H36.9277C37.0831 6.26891 37.2381 6.49423 37.3949 6.74328L37.0442 6.93091H37.7218C37.8154 6.77547 37.948 6.5332 38.1191 6.20622C38.103 6.23714 38.1276 6.19818 38.189 6.08975L38.7273 6.27568C38.5867 6.51033 38.4461 6.72846 38.3055 6.93091H39.0539V7.44467H37.9086V7.98173H38.9374V8.49591H37.9086V9.80383C37.9251 10.2392 37.7129 10.4654 37.278 10.4815H37.0437C36.9188 10.4963 36.8188 10.5044 36.7396 10.5044C36.7248 10.443 36.7007 10.3489 36.6714 10.2248C36.6392 10.0842 36.6151 9.98383 36.6003 9.92072C36.6939 9.93682 36.8332 9.94487 37.0209 9.94487C37.2377 9.95884 37.3394 9.87498 37.3245 9.68735V8.49591H36.2254V7.98173H37.3245V7.44467H36.0861V6.93091H36.8802C36.848 6.8839 36.8027 6.81444 36.7396 6.72083C36.6151 6.51838 36.5215 6.37903 36.4597 6.30025L36.9044 6.06603H36.2496H36.25ZM38.5626 9.75766C38.4702 9.61704 38.3444 9.40823 38.189 9.127C38.1276 9.01857 38.0806 8.93937 38.0484 8.89405L38.4931 8.68397C38.5397 8.74581 38.5948 8.83941 38.6562 8.96393C38.8116 9.19688 38.9294 9.38409 39.0069 9.52513L38.5626 9.75808V9.75766ZM40.5499 10.5048V7.60859H39.8485V7.70219C39.8794 8.93259 39.6608 9.88345 39.1949 10.5518C39.1467 10.5209 39.0624 10.4658 38.9378 10.3883C38.8281 10.3108 38.7422 10.2477 38.6803 10.2007C39.1009 9.65728 39.2953 8.8068 39.2644 7.65518V5.41207C39.9645 5.38115 40.6968 5.31042 41.4601 5.20199L41.6477 5.73905C41.3356 5.78564 40.8752 5.8407 40.2682 5.90212C40.0823 5.91864 39.9417 5.93304 39.848 5.94913V7.04696H41.74V7.60816H41.1094V10.5044H40.5494L40.5499 10.5048Z" fill="white"/>
<path d="M42.1378 7.23456V6.67336H43.1195V5.90208C43.0259 5.90208 42.8849 5.9114 42.699 5.9258C42.4956 5.9258 42.3483 5.93427 42.2547 5.94994C42.2381 5.87116 42.2237 5.76231 42.2076 5.62212C42.1767 5.51369 42.161 5.42771 42.161 5.3646C43.0971 5.33368 43.8667 5.27862 44.4749 5.20154L44.5914 5.76274C44.3114 5.80933 44.0141 5.84067 43.7036 5.85507V6.67336H44.6625V7.23456H43.7036V7.98212L43.9137 7.77204C44.0073 7.84955 44.1479 7.97534 44.3339 8.14561C44.5202 8.31672 44.6625 8.44167 44.7544 8.51918L44.358 8.98635C44.2949 8.92493 44.1932 8.81651 44.0539 8.65979C43.8972 8.50435 43.7807 8.38745 43.7032 8.30867V10.553H43.1195V8.1922C42.9158 8.65979 42.6278 9.13501 42.2547 9.61701C42.2381 9.54077 42.1996 9.4226 42.1382 9.26758C42.0912 9.11214 42.0522 8.99482 42.0217 8.91689C42.4258 8.49631 42.7608 7.93511 43.0259 7.23498H42.1382L42.1378 7.23456ZM44.9645 10.3883V5.55266H47.4643V10.3654H46.8578V9.85123H45.5723V10.3883H44.9641H44.9645ZM45.5727 9.28961H46.8569V6.11216H45.5727V9.28961Z" fill="white"/>
<path d="M15.3855 13.4484V12.9584H16.2263V12.4442H16.8345V12.9584H19.1242V12.4442H19.7548V12.9584H20.5731V13.4484H19.7548V15.2951H20.7591V15.7614H19.2648C19.6384 16.1363 20.1589 16.4162 20.8302 16.6039C20.8141 16.6348 20.7917 16.6814 20.7591 16.7432C20.7121 16.8207 20.6507 16.9533 20.5731 17.1405C20.214 16.9999 19.8484 16.8139 19.4749 16.5793V16.8834H18.283V17.3734H20.3626V17.794H15.5727V17.3734H17.6748V16.8834H16.4833V16.5793C16.1873 16.7818 15.8218 16.9931 15.3851 17.21C15.3237 17.0223 15.2377 16.8444 15.128 16.6729C15.7828 16.4239 16.2966 16.1197 16.6706 15.761H15.1987V15.2947H16.2254V13.448H15.3847L15.3855 13.4484ZM18.2834 15.9952V16.4616H19.2877C18.9916 16.2138 18.7574 15.9808 18.5875 15.7614H17.3715C17.1852 15.9957 16.9429 16.2286 16.6485 16.4616H17.6752V15.9952H18.2834ZM16.8345 13.7996H19.1242V13.4484H16.8345V13.7996ZM16.8345 14.5463H19.1242V14.1727H16.8345V14.5463ZM16.8345 15.2947H19.1242V14.9211H16.8345V15.2947Z" fill="white"/>
<path d="M21.2504 13.379V12.8652H23.2601V13.379H22.4418C22.3631 13.7686 22.2542 14.1502 22.1149 14.5238H23.1191V17.6547H22.6291V17.351H22.1149V17.794H21.6011V15.6449C21.5541 15.7229 21.4749 15.8326 21.3665 15.9719C21.3199 16.035 21.2889 16.0816 21.2729 16.1125L21.0869 15.4819C21.4605 14.8737 21.7256 14.1735 21.8811 13.3794H21.2504V13.379ZM22.1153 16.8364H22.6295V15.0151H22.1153V16.8364ZM23.5871 15.1308V13.0749H24.1242V14.5708H24.779V12.4912H25.3389V14.5708H25.9696V13.0749H26.5308V15.1308H25.3389V17.2099H26.0632V15.6208H26.602V17.9812H26.0632V17.7H23.5164V15.6208H24.0776V17.2099H24.779V15.1308H23.5871Z" fill="white"/>
<path d="M27.9319 17.7241L27.5346 17.3036C27.6443 17.1481 27.6994 16.9766 27.6994 16.7894V14.9215H27.114V14.3379H28.3059V16.5556C28.4935 16.3709 28.6808 16.1752 28.8671 15.9719C28.9446 16.2061 29.0145 16.4014 29.0772 16.5556C28.9993 16.6344 28.8747 16.7589 28.7032 16.9304C28.5012 17.1164 28.3445 17.265 28.236 17.3734C28.1263 17.498 28.0259 17.6161 27.9319 17.7246V17.7241ZM28.2365 13.8686C28.2047 13.8377 28.1589 13.7826 28.0958 13.7055C27.9243 13.4874 27.7074 13.199 27.4423 12.8415L27.9565 12.5137C28.2669 12.8415 28.5469 13.1765 28.7972 13.5179L28.236 13.8686H28.2365ZM28.8201 18.0503C28.7892 18.0045 28.7345 17.9109 28.657 17.7707C28.5791 17.6462 28.5245 17.5526 28.494 17.4912C29.1632 17.3345 29.7163 17.1401 30.1517 16.9075C29.7943 16.5789 29.4673 16.1363 29.1716 15.5746L29.3817 15.4586H28.9844V14.8974H32.3254V15.5056C32.0145 16.0655 31.6397 16.5408 31.2047 16.9304C31.6088 17.1485 32.1234 17.312 32.746 17.4205C32.6215 17.6386 32.5211 17.8326 32.4436 18.0054C31.6481 17.7551 31.056 17.5208 30.668 17.304C30.1848 17.5996 29.5689 17.8491 28.8214 18.0511L28.8201 18.0503ZM29.1471 14.7563C29.0857 14.6627 28.9446 14.5073 28.7282 14.2892C29.2716 14.0562 29.5223 13.7055 29.4753 13.2379V12.7013H31.9755V13.6585C31.959 13.8766 32.0598 13.9783 32.278 13.9626H32.7921L32.6994 14.4997H32.0217C31.5694 14.4997 31.3508 14.3133 31.3669 13.9385V13.2608H30.0814V13.4014C30.128 13.9626 29.8176 14.4137 29.1467 14.7563H29.1471ZM29.779 15.4582C30.0268 15.9092 30.3241 16.2828 30.6668 16.5789C31.0552 16.2993 31.3817 15.9258 31.6469 15.4582H29.779Z" fill="white"/>
<path d="M36.7638 16.9999V15.2951L36.1555 15.4116V16.977C36.1407 17.2879 36.2962 17.4285 36.6227 17.3976H37.6515C37.9785 17.4124 38.1577 17.3116 38.1898 17.0935C38.1898 17.0774 38.1966 17.0388 38.2127 16.977C38.2127 16.8995 38.2356 16.7669 38.2822 16.5797C38.344 16.5937 38.4308 16.6263 38.5397 16.6733C38.6477 16.7042 38.7273 16.736 38.7739 16.7669C38.7417 17.016 38.6951 17.218 38.6333 17.3734C38.5702 17.7322 38.2906 17.9037 37.7921 17.8872H36.3902C35.876 17.8872 35.6189 17.6382 35.6189 17.1401V15.5276L35.3377 15.5734L35.2919 15.0605L35.6189 14.9893V14.3599C35.588 14.4057 35.549 14.4442 35.5024 14.4764C35.3762 14.3358 35.2449 14.1952 35.1047 14.0558L35.2212 13.9152H34.1475C34.1475 14.1947 34.139 14.4522 34.1246 14.6865H35.1513C35.1513 15.3879 35.1373 16.1659 35.1047 17.0215C35.1195 17.5827 34.8946 17.8639 34.427 17.8639C34.2555 17.8787 34.1001 17.8868 33.9599 17.8868C33.945 17.808 33.9141 17.6848 33.8671 17.5132C33.8497 17.4353 33.8353 17.3806 33.8188 17.3502C33.9141 17.3641 34.0535 17.373 34.2394 17.373C34.4596 17.373 34.5753 17.2417 34.5901 16.9762C34.621 16.3684 34.6371 15.7763 34.6371 15.2011H34.1242V15.2239C34.1242 16.4704 33.8976 17.3972 33.4465 18.0037C33.4143 17.9728 33.3432 17.9114 33.2347 17.8177C33.1424 17.7241 33.0717 17.6543 33.0247 17.606C33.3838 17.0931 33.5698 16.3137 33.5859 15.271V14.6644C33.6007 14.3366 33.61 14.0872 33.61 13.916H33.1657V13.379H34.1001C34.0369 13.0833 33.9594 12.7941 33.8671 12.5141L34.4736 12.4446C34.4901 12.5061 34.5126 12.6001 34.5448 12.7242C34.621 13.0202 34.6761 13.2384 34.7083 13.379H35.2919V13.8462C35.6189 13.4569 35.8836 12.9893 36.0861 12.4442L36.7167 12.4908C36.6231 12.7238 36.5308 12.9343 36.4372 13.1215H38.7028V13.6585H36.1331C35.9925 13.8779 35.8209 14.1028 35.6193 14.3362H36.156V14.8974L36.7642 14.7568V13.8462H37.3012V14.6644L38.4927 14.4061C38.4927 14.5158 38.4846 14.6793 38.4698 14.8978C38.4537 15.3493 38.438 15.6839 38.4232 15.902C38.4232 16.3222 38.2597 16.5403 37.9315 16.5552C37.823 16.5712 37.6596 16.5793 37.4414 16.5793C37.4253 16.4857 37.3944 16.3527 37.3478 16.1824C37.3317 16.1341 37.325 16.0956 37.325 16.0647C37.3864 16.0808 37.4965 16.0876 37.6519 16.0876C37.8379 16.0876 37.9315 16.0033 37.9315 15.8317C37.9637 15.5505 37.9785 15.2866 37.9785 15.0363L37.3008 15.1769V16.9995H36.7638V16.9999Z" fill="white"/>
</svg>
