<svg width="61" height="61" viewBox="0 0 61 61" fill="none" xmlns="http://www.w3.org/2000/svg">
<path d="M0.217964 60.2548H60.218V0.254761H0.217964V60.2548Z" fill="#D7A700"/>
<path d="M24.1682 51.2351V52.079C24.1682 52.0845 24.1656 52.0908 24.1656 52.0976C24.1656 52.1044 24.1682 52.1107 24.1682 52.1175C24.1775 52.326 24.3474 52.4931 24.5572 52.4973C24.5597 52.4973 24.5627 52.4986 24.5652 52.4986C24.5678 52.4986 24.572 52.4973 24.5745 52.4973H34.4727C34.4753 52.4973 34.4782 52.4986 34.4812 52.4986C34.4837 52.4986 34.4867 52.4973 34.4892 52.4973C34.7057 52.4931 34.8778 52.3167 34.8795 52.1001C34.8795 52.1001 34.8808 52.0984 34.8808 52.0976C34.8808 52.0976 34.8795 52.0959 34.8795 52.095V51.1399C40.4519 49.3121 44.6251 44.7953 45.5419 39.2912C45.5461 39.2789 45.5461 39.2683 45.5486 39.2578C45.5512 39.2387 45.5541 39.2218 45.5541 39.2015C45.5541 38.9807 45.3753 38.8018 45.1533 38.8018H13.7993H13.6094C13.3874 38.8018 13.2085 38.9811 13.2085 39.2015L13.2297 39.3821C14.1938 44.94 18.4812 49.4817 24.1682 51.2347L24.1686 51.2355L24.1682 51.2351Z" fill="white"/>
<path d="M34.8711 25.3337C34.74 25.5181 31.6933 29.9089 34.9392 33.457C36.4268 35.0856 36.2986 36.5234 35.8733 37.4933H37.955C38.3774 36.061 38.2024 34.2633 36.5126 32.4165C34.1209 29.8006 36.5435 26.266 36.5794 26.2114C36.8657 25.8075 36.7118 25.2884 36.2416 25.0448C35.7692 24.8041 35.1574 24.934 34.8711 25.3337Z" fill="white"/>
<path d="M29.5976 37.4942H31.6806C32.1018 36.0611 31.9267 34.2633 30.237 32.4165C27.844 29.8006 30.2649 26.2677 30.3038 26.2102C30.5871 25.8092 30.4362 25.2902 29.9643 25.0469C29.494 24.8062 28.88 24.9331 28.5955 25.3358C28.4644 25.519 25.4139 29.9098 28.6635 33.4571C30.1512 35.0873 30.0218 36.5251 29.5976 37.4942Z" fill="white"/>
<path d="M22.319 25.3338C22.1866 25.5182 19.14 29.909 22.3858 33.4571C23.8751 35.0874 23.747 36.5235 23.322 37.4934H25.4046C25.8257 36.0611 25.652 34.2633 23.9597 32.4165C21.5676 29.8007 23.9905 26.2661 24.0278 26.2102C24.3107 25.8075 24.1601 25.2889 23.6878 25.0453C23.2176 24.8033 22.6053 24.9332 22.319 25.3342V25.3338Z" fill="white"/>
<path d="M11.7569 15.7046H8.42181V15.1335C8.42181 14.1881 8.75967 13.8311 9.27725 13.2769L10.5796 11.9022C11.6317 10.7787 11.8643 10.0647 11.8643 8.85021V7.67257C11.8643 5.94249 11.0245 5.11975 9.20494 5.11975C7.42175 5.11975 6.51092 6.06685 6.51092 7.76225V9.22499H8.36684V7.70726C8.36684 6.97716 8.72373 6.76185 9.15293 6.76185C9.54492 6.76185 9.88447 6.92217 9.88447 7.67257V8.67171C9.88447 9.67168 9.79356 10.0651 9.13432 10.7605L7.99134 11.9749C6.88684 13.1526 6.47498 13.9381 6.47498 15.1339V17.3661H11.7569V15.705L11.7573 15.7046H11.7569Z" fill="white"/>
<path d="M22.1372 9.35447C21.0927 9.07528 20.228 8.70727 19.5434 8.25677C18.8575 8.73984 17.9775 9.12858 16.9026 9.42426C16.8561 9.25294 16.7783 9.07528 16.6688 8.88789C17.8063 8.62182 18.6702 8.26354 19.2626 7.81135H20.0808L19.9404 7.92937C20.5798 8.31811 21.39 8.61506 22.371 8.81725C22.2776 8.98857 22.1985 9.1675 22.1372 9.35489V9.35447ZM17.1128 6.12822V5.73145H21.8801V6.12822H19.8241V6.45647H22.1367V7.57828H21.5524V6.85325H19.8237V7.78809H19.2152V6.85325H17.5107V7.57828H16.9026V6.45647H19.2152V6.12822H17.1124H17.1132H17.1128ZM20.5493 11.1543C19.707 10.8574 18.8207 10.5846 17.8849 10.3358L18.1429 9.9141C18.6093 10.0545 19.0609 10.195 19.4969 10.3358L20.5718 9.72755H17.5809V9.2834H19.4271C19.3171 9.0977 19.2013 8.92639 19.0765 8.7703L19.6127 8.65397C19.7531 8.82487 19.8707 9.00422 19.9645 9.19161L19.4964 9.28382H21.4348V9.77493L20.1502 10.4771L20.828 10.7098L20.5489 11.1552H20.5493V11.1543ZM17.7686 7.67176H18.866V7.95263H17.7686V7.67176ZM17.8152 7.1337H18.866V7.41457H17.8152V7.1337ZM20.1751 7.1337H21.25V7.41457H20.1751V7.1337ZM20.1751 7.67176H21.2724V7.95263H20.1751V7.67176Z" fill="white"/>
<path d="M22.9977 8.16285C22.9812 8.13197 22.9588 8.08502 22.9279 8.02241C22.8184 7.82022 22.749 7.67175 22.7169 7.57826C23.0442 6.89257 23.2865 6.1997 23.4417 5.49878L24.0261 5.59226C23.9631 5.82449 23.8933 6.05884 23.8146 6.29276H24.9378V6.80628L24.6325 7.69416L24.1195 7.57784L24.3999 6.80628H23.6269C23.4091 7.36676 23.199 7.8198 22.9973 8.16243H22.9981L22.9977 8.16285ZM23.6751 10.851L23.3009 10.4297C23.4087 10.3214 23.4649 10.1725 23.4649 9.98557V7.43825H24.0481V9.82271C24.1737 9.71316 24.3673 9.52704 24.632 9.26054C24.6629 9.47839 24.7031 9.68228 24.75 9.86882C24.6401 9.96146 24.4692 10.118 24.235 10.3358C24.1254 10.4293 24.0413 10.4987 23.9783 10.5456C23.8848 10.6243 23.7829 10.7246 23.6747 10.8506L23.6751 10.851ZM24.7969 11.1548C24.6714 10.9674 24.539 10.7656 24.3999 10.5465C24.7585 10.1878 24.9843 9.83752 25.0765 9.49531C25.1864 9.1531 25.2409 8.61504 25.2409 7.8824V5.82576H27.4136V10.1734C27.4136 10.3299 27.4686 10.3993 27.5764 10.3832H27.6698C27.7942 10.3832 27.8652 10.2897 27.8796 10.104C27.8961 9.91535 27.9185 9.57441 27.9506 9.07569C28.1219 9.12138 28.2779 9.16791 28.417 9.21486C28.3862 9.74573 28.3557 10.1192 28.3236 10.3371C28.2779 10.7258 28.0669 10.9213 27.6927 10.9213H27.4136C27.0085 10.9213 26.8064 10.7034 26.8064 10.266V6.41035H25.8482V7.90567C25.8482 8.74829 25.7771 9.37941 25.6372 9.79945C25.498 10.2208 25.2173 10.6725 24.7974 11.1556V11.1552L24.7969 11.1548Z" fill="white"/>
<path d="M29.0213 8.13872C29.0052 8.06089 28.9663 7.95133 28.905 7.81131C28.8581 7.67088 28.8192 7.57063 28.7887 7.50887C29.0695 6.91666 29.2873 6.26905 29.4424 5.56855L30.0268 5.66077C29.9947 5.75552 29.9482 5.89638 29.8864 6.08208C29.8399 6.22252 29.8078 6.32446 29.793 6.38749H30.681V6.90059L30.4019 7.88238C30.3537 7.8515 30.2603 7.82062 30.1211 7.7889C30.0742 7.77409 30.034 7.75802 30.0032 7.74194V10.0553L30.5651 9.58877C30.5812 9.82142 30.6116 10.0249 30.6586 10.1962C30.6264 10.2123 30.5875 10.2347 30.5406 10.2673C30.2455 10.453 30.0196 10.6095 29.864 10.7338C29.7693 10.7969 29.6767 10.8743 29.5837 10.9678L29.2555 10.5477C29.3959 10.4221 29.4577 10.2588 29.4429 10.0558V7.53213H30.0032V7.64846L30.2374 6.90101H29.6078C29.4501 7.3384 29.256 7.74998 29.0221 8.13957L29.0213 8.13872ZM30.7516 11.0143C30.7195 10.8269 30.6806 10.6319 30.6336 10.4297C30.6954 10.4297 30.774 10.4377 30.8679 10.4525H31.1017C31.3039 10.4686 31.3973 10.3832 31.3825 10.1958V9.23683C31.1487 9.28506 30.9144 9.34005 30.6806 9.40138L30.5643 8.81679C30.8434 8.77026 31.1165 8.71527 31.3825 8.65394V7.7889H30.7744V7.22672H31.3825V6.5275C31.2261 6.55838 31.0455 6.57403 30.8434 6.57403C30.8286 6.48055 30.8049 6.35618 30.774 6.19967C30.7575 6.12057 30.7512 6.06685 30.7512 6.03639C31.2485 6.00552 31.802 5.93487 32.4088 5.82532L32.5251 6.36295C32.3229 6.37903 32.1293 6.40948 31.9424 6.45644V7.22672H32.7593V7.11167C32.7285 6.45601 32.7124 5.93445 32.7124 5.54529H33.2744C33.2744 6.10577 33.2807 6.66582 33.2981 7.2263H34.4423V7.78847H33.3205C33.3205 8.20809 33.3446 8.58287 33.3902 8.91028C33.5932 8.66155 33.7953 8.38914 33.997 8.09177L34.4423 8.42002C34.1307 8.88659 33.8034 9.29309 33.4613 9.6353L33.4841 9.77574C33.5776 10.2275 33.6951 10.4445 33.8355 10.4297C33.9281 10.4445 33.9907 10.3747 34.0216 10.2199C34.0524 9.98597 34.0761 9.73725 34.0926 9.47118C34.2478 9.53378 34.3962 9.58074 34.5349 9.61162C34.4892 9.9699 34.4427 10.2508 34.3962 10.453C34.3171 10.8582 34.1315 11.0612 33.8359 11.0612C33.4456 11.0761 33.1649 10.7486 32.994 10.0799L32.9471 10.1264C32.7762 10.2668 32.5504 10.4153 32.2697 10.5701C32.1762 10.4149 32.0675 10.2668 31.9432 10.1264V10.3591C31.958 10.7804 31.7559 10.9902 31.336 10.9902C31.2265 11.0063 31.0311 11.0143 30.752 11.0143H30.7516ZM32.5496 8.98007C32.3635 9.02829 32.1606 9.07356 31.9424 9.12051V10.1023C32.2845 9.88445 32.5961 9.65815 32.8769 9.42422C32.8608 9.22203 32.8384 8.86375 32.8058 8.35022C32.791 8.1163 32.775 7.92891 32.7593 7.7889H31.9424V8.56045C32.0037 8.54565 32.1136 8.52196 32.2688 8.48939C32.3944 8.47458 32.4866 8.45851 32.5496 8.44286V8.98049V8.98007ZM33.9518 6.85364C33.7488 6.60491 33.5306 6.35576 33.2981 6.10619L33.6951 5.80247C33.8355 5.94164 34.0452 6.16076 34.3248 6.45644C34.1387 6.25424 34.1535 6.27708 34.373 6.5275L33.9514 6.85406L33.9518 6.85364Z" fill="white"/>
</svg>
