<svg width="60" height="61" viewBox="0 0 60 61" fill="none" xmlns="http://www.w3.org/2000/svg">
<path d="M60.0001 60.288H0.000125885V0.287964H60.0001V60.288Z" fill="#DC007A"/>
<path d="M5.76652 8.14889V17.4194H7.80241V5.30981H6.17725L4.30142 7.50613V9.63173H4.3192L5.74746 8.14889H5.76652Z" fill="white"/>
<path d="M15.2321 14.2937V8.4356C15.2321 6.54161 14.2857 5.16675 12.2134 5.16675C10.1605 5.16675 9.21246 6.54161 9.21246 8.4356V14.2937C9.21246 16.1691 10.1605 17.563 12.2134 17.563C14.2857 17.563 15.2321 16.1691 15.2321 14.2937ZM11.2492 14.6151V8.11338C11.2492 7.38085 11.5172 6.863 12.213 6.863C12.9277 6.863 13.1958 7.38085 13.1958 8.11338V14.6151C13.1958 15.3485 12.9277 15.8655 12.213 15.8655C11.5168 15.8655 11.2492 15.348 11.2492 14.6151Z" fill="white"/>
<path d="M19.5605 9.89344L18.9994 9.70755C19.2175 9.06733 19.4216 8.35089 19.6075 7.55697C19.6854 7.58788 19.8645 7.6497 20.1444 7.74455C19.942 8.45929 19.7476 9.17573 19.5605 9.89301V9.89344ZM19.6769 6.97391C19.4749 6.45987 19.2806 5.98478 19.0934 5.54823L19.585 5.36065C19.7565 5.7049 19.9653 6.17024 20.2155 6.76262L19.6769 6.97391ZM21.2191 9.65928V7.79028H22.6223V9.63642C22.7921 9.44884 22.9488 9.23882 23.0894 9.00593C22.9941 8.58547 22.9247 7.79832 22.8777 6.64618C22.8637 6.5526 22.8548 6.46834 22.8548 6.38873H20.962V7.48668C20.962 8.23487 20.9155 8.81073 20.8215 9.21638C20.7287 9.63684 20.5496 10.0797 20.2845 10.5485C20.2066 10.5019 20.0665 10.4147 19.8641 10.2915C19.8175 10.2754 19.7866 10.2593 19.7717 10.2445C20.2231 9.57544 20.4332 8.64771 20.401 7.46424V5.85267H22.8307V4.98804H23.3917V5.85267H24.0464C23.9998 5.80567 23.9299 5.72819 23.8363 5.6181C23.6958 5.47921 23.5941 5.37717 23.5323 5.3145L23.8833 5.05706C23.9447 5.12015 24.0464 5.21372 24.1869 5.33821C24.3119 5.4627 24.397 5.54823 24.4444 5.59396L24.0938 5.85225H24.6548V6.38873H23.4163V6.59875C23.4472 7.28428 23.4862 7.83685 23.5327 8.25732C23.7203 7.85337 23.8982 7.39395 24.0697 6.87991L24.5613 7.08993C24.2962 7.86903 24.0002 8.53847 23.6737 9.09824C23.7046 9.25449 23.75 9.41793 23.8143 9.58942C23.8922 9.77699 23.9697 9.87057 24.0472 9.87057C24.1103 9.87057 24.1488 9.81595 24.1637 9.70755C24.1946 9.59746 24.2187 9.37135 24.2348 9.0288C24.2496 8.95131 24.2577 8.89627 24.2577 8.86578C24.4131 8.92887 24.5617 8.98222 24.7018 9.0288C24.6709 9.34086 24.6307 9.64489 24.5841 9.94086C24.5062 10.3143 24.3284 10.5019 24.0472 10.5019C23.6886 10.4854 23.4235 10.2207 23.2533 9.70798C23.0191 9.97177 22.7617 10.2529 22.4822 10.5485C22.3886 10.4549 22.248 10.3291 22.0604 10.1737C22.107 10.1272 22.1701 10.0658 22.248 9.98786C22.3111 9.94128 22.4271 9.83119 22.5986 9.66013H21.2195L21.2191 9.65928ZM21.1962 6.83164H22.6689V7.32154H21.1962V6.83164ZM21.6637 9.19182H22.1773V8.25732H21.6637V9.19182Z" fill="white"/>
<path d="M25.6347 8.42078C25.4471 8.29629 25.2451 8.18662 25.0283 8.09432C25.4937 7.3313 25.8917 6.5522 26.2182 5.75827L26.85 5.99073C26.4604 6.91041 26.056 7.72043 25.6343 8.42035L25.6347 8.42078ZM25.3548 10.5714C25.276 10.3838 25.1676 10.1657 25.0283 9.91674C27.0684 9.62077 28.5238 8.84971 29.3965 7.60356L29.933 8.0253C28.921 9.33326 27.3949 10.1805 25.3544 10.5714H25.3548ZM27.4813 5.0105H28.1342V8.4212H27.4813V5.0105ZM30.168 7.81485C29.8089 7.34781 29.311 6.73977 28.6724 5.99158L29.164 5.64098C29.7543 6.28078 30.2684 6.86426 30.7049 7.39354L30.1684 7.81528L30.168 7.81485Z" fill="white"/>
<path d="M31.1728 6.03849V5.40674H36.5226V6.03849H34.4676C34.233 6.41195 33.9989 6.76297 33.766 7.08944H34.1395V10.5471H33.4382V7.48661C32.9398 8.07856 32.256 8.66204 31.3833 9.23917C31.2266 8.98893 31.0873 8.80262 30.9611 8.67813C32.256 7.85372 33.1579 6.97299 33.672 6.03807H31.1728V6.03849ZM36.1487 9.12188C35.4631 8.54602 34.8635 8.07094 34.3512 7.69748L34.7712 7.2533C35.4089 7.68986 36.0326 8.13403 36.6403 8.5854L36.1487 9.12231V9.12188Z" fill="white"/>
<path d="M37.2704 5.85133V5.24329H42.3173V5.85133H40.1205V8.07093H42.5972V8.67728H40.1205V10.57H39.4659V8.67728H36.9892V8.07093H39.4659V5.85133H37.2704ZM38.4615 7.79105C38.1346 7.36931 37.792 6.95689 37.4346 6.55295L37.9009 6.17821C38.2743 6.56734 38.6249 6.97341 38.9518 7.39387L38.4619 7.79147L38.4615 7.79105ZM41.0318 7.81391L40.5647 7.41631C40.9073 7.07376 41.2659 6.66134 41.6381 6.17821L42.1297 6.52881C41.7707 6.98145 41.4052 7.40827 41.0318 7.81391Z" fill="white"/>
<path d="M43.3446 6.66992C43.204 6.52934 43.0571 6.39681 42.9004 6.27232C43.3526 5.91495 43.7032 5.46231 43.9514 4.91778L44.5603 4.98722C44.4972 5.14389 44.4197 5.29124 44.3261 5.4314H45.8213V5.89886H44.653C44.7305 5.97635 44.8406 6.08475 44.9808 6.22532C45.0587 6.30323 45.112 6.35828 45.1438 6.38877L44.7466 6.7165C44.5912 6.52892 44.4197 6.34177 44.2325 6.15546L44.5603 5.89844H44.0221C43.8976 6.10041 43.6715 6.35743 43.3446 6.6695V6.66992ZM43.414 7.2534V6.78594H45.4237V6.45948H46.0554V6.78594H48.1341V7.2534H46.0554V7.72044H48.5546V8.23448H42.9936V7.72044H45.4232V7.2534H43.4136H43.414ZM43.182 9.19185V8.70195H46.6627V8.23491H47.2944V8.70195H48.3924V9.19185H47.2944V9.70589C47.3092 10.2212 47.0374 10.485 46.4763 10.5011C46.257 10.5159 45.9547 10.524 45.5647 10.524C45.5486 10.4304 45.5261 10.2978 45.4935 10.1264C45.4787 10.0489 45.4626 9.99552 45.4478 9.96334C45.7273 9.97943 45.9847 9.98705 46.2189 9.98705C46.531 10.0019 46.6779 9.87061 46.6622 9.58987V9.19228H44.4197C44.5751 9.30194 44.808 9.48148 45.1196 9.73045C45.0739 9.71436 45.1048 9.74654 45.2132 9.82276L44.7927 10.1975C44.6052 10.0099 44.3257 9.7855 43.9505 9.52001L44.2783 9.19228H43.1807L43.182 9.19185ZM46.1486 6.48234C46.1029 6.45143 46.0402 6.41248 45.961 6.3659C45.8217 6.27232 45.712 6.2105 45.6358 6.17832C45.9932 5.79004 46.265 5.36958 46.4526 4.91736L47.0607 4.9868C46.9976 5.14347 46.9277 5.29082 46.8507 5.43098H48.5321V5.89844H47.2707C47.3325 5.94502 47.4261 6.02293 47.5519 6.13259C47.6603 6.2249 47.7462 6.30239 47.8076 6.36548L47.4342 6.71608C47.2478 6.5285 47.0522 6.34896 46.8507 6.1779L47.1547 5.89844H46.5936C46.453 6.10041 46.3061 6.29477 46.1494 6.48192L46.1486 6.48234Z" fill="white"/>
<path d="M35.2124 39.8707H24.1649C24.0989 39.8707 24.0459 39.9309 24.0459 40.0041V43.3242C24.0459 43.3991 24.0993 43.4597 24.1649 43.4597H35.2124C35.2794 43.4597 35.3344 43.3996 35.3344 43.3242V40.0041C35.3344 39.9304 35.2794 39.8707 35.2124 39.8707Z" fill="white"/>
<path d="M35.2124 32.8063H24.1649C24.0989 32.8063 24.0459 32.8664 24.0459 32.9401V36.2602C24.0459 36.3351 24.0993 36.3952 24.1649 36.3952H35.2124C35.2794 36.3952 35.3344 36.3351 35.3344 36.2602V32.9401C35.3344 32.8664 35.2794 32.8063 35.2124 32.8063Z" fill="white"/>
<path d="M35.057 27.7878L29.7547 22.4856C29.72 22.4509 29.6612 22.4509 29.6252 22.4856L24.3229 27.7878C24.2653 27.8454 24.3068 27.9445 24.3889 27.9445H34.9944C35.0748 27.9445 35.1163 27.8454 35.0583 27.7878H35.0575H35.057Z" fill="white"/>
<path d="M40.0354 43.5003L45.3377 38.1982C45.3724 38.1634 45.3724 38.1046 45.3377 38.0686L40.0354 32.7673C39.9778 32.7084 39.8787 32.7499 39.8787 32.8312V43.4368C39.8787 43.5168 39.9778 43.5587 40.0354 43.5007V43.5003Z" fill="white"/>
<path d="M24.3216 48.4782L29.6239 53.7804C29.6599 53.8151 29.7175 53.8151 29.7535 53.7804L35.0558 48.4782C35.1129 48.4206 35.0727 48.3215 34.9897 48.3215H24.3843C24.3038 48.3215 24.2623 48.4206 24.3199 48.4782H24.3212H24.3216Z" fill="white"/>
<path d="M19.3441 32.7661L14.0418 38.0682C14.0058 38.1042 14.0058 38.1618 14.0418 38.1978L19.3441 43.5C19.4017 43.5575 19.5008 43.5165 19.5008 43.4339V32.8287C19.5008 32.7487 19.4017 32.7068 19.3441 32.7648V32.7657V32.7661Z" fill="white"/>
</svg>
