<svg width="61" height="61" viewBox="0 0 61 61" fill="none" xmlns="http://www.w3.org/2000/svg">
<path d="M0.351013 0.857422H60.351V60.8574H0.351013V0.857422Z" fill="#FF3A21"/>
<path d="M18.5183 10.8419C18.9675 10.8419 19.1993 10.6174 19.3071 10.249V10.7836H19.9001V8.16467H18.7289V8.81559H19.1197V9.68433C19.1197 10.0024 18.9819 10.1542 18.7141 10.1542C18.432 10.1542 18.3089 9.94444 18.3089 9.64795V7.0134C18.3089 6.71819 18.4392 6.50756 18.7361 6.50756C19.0335 6.50756 19.1485 6.68097 19.1485 6.9876V7.48668H19.9001V7.05232C19.9001 6.32865 19.6324 5.82153 18.7217 5.82153C17.8538 5.82153 17.4854 6.37898 17.4854 7.14579V9.51938C17.4854 10.279 17.8098 10.8436 18.5187 10.8436V10.8419H18.5183Z" fill="white"/>
<path d="M22.41 10.1109H21.2676V8.61997H22.0852V7.95382H21.2676V6.5509H22.41V5.87756H20.4432V10.7842H22.41V10.1109Z" fill="white"/>
<path d="M23.6188 7.70132L24.5874 10.7842H25.3111V5.87756H24.6246V8.69271L23.7343 5.87756H22.9247V10.7842H23.6188V7.70132Z" fill="white"/>
<path d="M28.3206 9.46681V7.19515C28.3206 6.43553 28.0097 5.87512 27.1269 5.87512H25.8525V10.7818H27.1248C28.0071 10.7818 28.318 10.2175 28.318 9.46173L28.3206 9.46681ZM26.6769 10.1063V6.55099H27.0242C27.3638 6.55099 27.4932 6.75359 27.4932 7.04288V9.61188C27.4932 9.90837 27.3638 10.111 27.0242 10.111L26.6769 10.1059V10.1063Z" fill="white"/>
<path d="M30.8308 10.1109H29.6888V8.61997H30.506V7.95382H29.6888V6.5509H30.8308V5.87756H28.864V10.7842H30.8308V10.1109Z" fill="white"/>
<path d="M32.1628 8.53295L32.9326 10.7839H33.8005L33.0151 8.55495C33.4846 8.44667 33.6749 8.13496 33.6749 7.60712V6.97734C33.6749 6.28963 33.3712 5.87683 32.5396 5.87683H31.3397V10.7835H32.1649L32.1628 8.53295ZM32.1628 6.5527H32.436C32.719 6.5527 32.8412 6.68213 32.8412 6.94985V7.66971C32.8412 7.93152 32.7211 8.07532 32.436 8.07532H32.1628V6.5527Z" fill="white"/>
<path d="M19.4518 17.3038H18.3093V15.8133H19.1265V15.1484H18.3093V13.7438H19.4518V13.0709H17.485V17.9771H19.4518V17.3038Z" fill="white"/>
<path d="M20.8996 17.9764V18.3105L22.4536 18.5998V17.9844L21.8462 17.8681C22.2662 17.6659 22.4536 17.2464 22.4536 16.7105V14.3369C22.4536 13.5701 22.078 13.0131 21.2028 13.0131C20.3273 13.0131 19.9593 13.5701 19.9593 14.3369V16.7105C19.9593 17.3771 20.2414 17.8618 20.8996 17.9764ZM20.7833 14.207C20.7833 13.9106 20.9135 13.7004 21.2033 13.7004C21.4934 13.7004 21.63 13.9106 21.63 14.207V16.8852C21.63 17.1745 21.5006 17.391 21.2033 17.391C20.9063 17.391 20.7833 17.174 20.7833 16.8852V14.207Z" fill="white"/>
<path d="M22.9899 13.0709V16.7831C22.9899 17.5428 23.3494 18.0347 24.219 18.0347C25.0591 18.0347 25.3839 17.5428 25.3839 16.7831V13.0709H24.6247V16.8627C24.6247 17.1528 24.5092 17.3474 24.219 17.3474C23.9293 17.3474 23.8143 17.1524 23.8143 16.8627V13.0709H22.9899Z" fill="white"/>
<path d="M26.7149 17.0796H27.5922L27.744 17.9796H28.59L27.6569 13.0739H26.7149L25.7924 17.9775H26.572L26.7149 17.08V17.0796ZM27.1481 14.4531H27.1565L27.4814 16.4215H26.8211L27.1481 14.4531Z" fill="white"/>
<path d="M28.9939 13.0709V17.9771H30.8021V17.3046H29.8191V13.0709H28.9939Z" fill="white"/>
<path d="M31.2437 13.0709H32.0685V17.9771H31.2437V13.0709Z" fill="white"/>
<path d="M34.0285 17.9771V13.7438H34.7078V13.0713H32.5172V13.7438H33.1965V17.9771H34.0285Z" fill="white"/>
<path d="M35.9378 17.9771H36.7625V16.1106L37.6728 13.0713H36.8856L36.3865 14.9302H36.3793L35.8807 13.0713H35.0195L35.9378 16.1106V17.9771Z" fill="white"/>
<path d="M9.91767 9.71548C9.11488 9.71548 8.52653 10.0005 8.20465 10.5555H8.18689V7.53856H11.6844V5.87891H6.33218V12.6956H8.18689V12.427C8.18689 11.7135 8.50834 11.3206 9.07935 11.3206C9.70365 11.3206 9.95447 11.7494 9.95447 12.4105V15.3369C9.95447 15.9794 9.72184 16.4243 9.09711 16.4243C8.40133 16.4243 8.15221 15.9607 8.15221 15.2477V13.7305H6.29538V15.1047C6.29538 16.9424 7.02754 18.1203 9.09754 18.1203C11.1498 18.1203 11.9877 17.0317 11.9877 15.3542V12.3927C11.9877 10.4836 11.0068 9.71632 9.91809 9.71632L9.91767 9.71548Z" fill="white"/>
<path d="M44.0541 23.5601H36.5972C36.5447 23.5609 36.5024 23.6032 36.502 23.6556V26.1333C36.502 26.1857 36.5443 26.2284 36.5972 26.2289H39.566L36.2689 29.5287C34.5559 28.1795 32.4356 27.4427 30.2544 27.4427C30.2531 27.4427 30.2489 27.4427 30.2472 27.4427C24.8624 27.4427 20.48 31.8228 20.48 37.2099C20.48 42.1681 24.1949 46.2699 28.9867 46.8916V49.7474H26.0467C26.0458 49.747 26.0454 49.747 26.045 49.747C25.993 49.747 25.9511 49.7893 25.9511 49.8413V52.4978V52.4982C25.9511 52.5507 25.993 52.5926 26.045 52.5926C26.0458 52.5926 26.0463 52.5926 26.0467 52.5926H28.9867V55.3976C28.9867 55.398 28.9867 55.398 28.9867 55.3984C28.9867 55.4504 29.029 55.4923 29.081 55.4923H29.0815H31.736C31.7364 55.4923 31.7364 55.4923 31.7369 55.4923C31.7893 55.4923 31.832 55.45 31.832 55.3976V52.59L34.7725 52.5904C34.7725 52.59 34.7725 52.59 34.7725 52.59C34.8245 52.59 34.8664 52.5482 34.8664 52.4961C34.8664 52.4957 34.8664 52.4957 34.8664 52.4953V49.8392C34.8664 49.7867 34.8245 49.7448 34.7725 49.7448H31.832V46.8434C36.4661 46.0834 40.0131 42.0531 40.0131 37.2074C40.0131 37.2052 40.0131 37.2019 40.0131 37.1989C40.0131 35.1907 39.3883 33.2287 38.229 31.5906L41.4803 28.3381V31.1114C41.4812 31.1634 41.5239 31.2057 41.5768 31.2057H41.5772H44.0549C44.0553 31.2057 44.0553 31.2057 44.0558 31.2057C44.1082 31.2057 44.1509 31.1634 44.1518 31.111V23.6578C44.1514 23.6049 44.1086 23.5622 44.0558 23.5622C44.0553 23.5622 44.0553 23.5622 44.0549 23.5622V23.5605L44.0541 23.5601ZM30.2476 44.3967C26.2776 44.3967 23.058 41.1772 23.058 37.2074C23.058 33.2376 26.2776 30.0181 30.2476 30.0181C34.2176 30.0181 37.4372 33.2376 37.4372 37.2074C37.4334 41.1755 34.2159 44.3933 30.2476 44.3967Z" fill="white"/>
<path d="M34.7116 34.2563H25.9913C25.99 34.2563 25.9891 34.2563 25.9875 34.2563C25.9392 34.2563 25.8995 34.2936 25.8965 34.3418V36.4527C25.8982 36.5009 25.9384 36.539 25.9862 36.539C25.9879 36.539 25.9896 36.539 25.9913 36.539H34.7116C34.7133 36.539 34.7158 36.539 34.7175 36.539C34.7661 36.539 34.8059 36.5009 34.808 36.4527V34.3418C34.8046 34.2936 34.7644 34.2563 34.7162 34.2563C34.7145 34.2563 34.7128 34.2563 34.7111 34.2563H34.7116Z" fill="white"/>
<path d="M34.7116 38.0253H25.9913C25.9904 38.0253 25.9896 38.0253 25.9891 38.0253C25.9397 38.0253 25.8991 38.0642 25.8965 38.1137V40.2246C25.8991 40.2724 25.9384 40.31 25.9862 40.31C25.9879 40.31 25.9896 40.31 25.9913 40.3096L34.7116 40.31C34.7133 40.31 34.7158 40.31 34.7175 40.31C34.7657 40.31 34.8055 40.2724 34.808 40.2246V38.1137C34.8055 38.0642 34.7644 38.0253 34.715 38.0253C34.7137 38.0253 34.7124 38.0253 34.7111 38.0253H34.7116Z" fill="white"/>
</svg>
