<svg width="61" height="61" viewBox="0 0 61 61" fill="none" xmlns="http://www.w3.org/2000/svg">
<path d="M0.704834 0.857056H60.7048V60.8571H0.704834V0.857056Z" fill="#FD6925"/>
<path d="M11.6935 8.92895C11.6935 7.05574 10.873 5.70105 8.73326 5.70105C6.57326 5.70105 5.73709 6.87768 5.73709 8.75047V10.534C5.73709 12.5138 6.52124 13.512 7.98464 13.512C8.84069 13.512 9.35711 13.1195 9.66037 12.5316H9.67771V15.1369C9.67771 15.8686 9.39264 16.3854 8.66178 16.3854C7.93093 16.3854 7.66447 15.9553 7.66447 15.2059V14.404H5.80772V15.0464C5.80772 16.8291 6.45018 18.0776 8.69774 18.0776C10.8366 18.0776 11.6935 16.7043 11.6935 14.8138V8.92895ZM9.67771 10.7836C9.64218 11.4607 9.35711 11.8887 8.71761 11.8887C8.02271 11.8887 7.75752 11.4607 7.75752 10.6761V8.57199C7.75752 7.80519 8.04216 7.35899 8.73834 7.35899C9.41548 7.35899 9.68278 7.82211 9.68278 8.57199L9.67729 10.7831L9.67771 10.7836Z" fill="white"/>
<path d="M45.6977 40.2935L38.5647 36.177V27.9419C38.5647 27.9415 38.5647 27.9411 38.5647 27.9411C38.5647 27.7685 38.4733 27.609 38.3249 27.5219L30.9507 23.262C30.8767 23.2193 30.7926 23.1969 30.7075 23.1969C30.6221 23.1969 30.5379 23.2193 30.4644 23.262L23.0847 27.5211C22.9363 27.6082 22.8449 27.7676 22.8449 27.9402C22.8449 27.9402 22.8449 27.9406 22.8449 27.9411V36.177L15.7119 40.2935C15.5617 40.3802 15.4691 40.5401 15.4687 40.7135V49.2337C15.4691 49.4071 15.5617 49.5674 15.7119 49.6537L23.0864 53.9136C23.1604 53.9559 23.2446 53.9783 23.3296 53.9783C23.4151 53.9783 23.4992 53.9559 23.5728 53.9136L30.7046 49.7933L37.8347 53.9102C37.9087 53.9521 37.9929 53.9749 38.0779 53.9749C38.1633 53.9749 38.2475 53.9521 38.3211 53.9102L45.6969 49.6503C45.847 49.5636 45.9396 49.4037 45.9405 49.2303V40.7101C45.9388 40.538 45.8462 40.3794 45.6969 40.2935H45.6977ZM30.4614 48.8053L24.5464 45.3896L30.4622 41.9743L30.4614 48.8053ZM37.3495 36.8749L31.4346 40.288V33.4588L37.3495 36.8745V36.8749ZM30.4622 40.2889L24.5473 36.874L30.4622 33.4588V40.2885V40.2889ZM31.9218 41.1288L38.3228 37.4361L44.7254 41.131L38.3228 44.8279L31.9218 41.1288ZM37.8359 36.029L31.9218 32.6133L37.8359 29.1989V36.029ZM29.9758 32.6133L24.0605 36.029V29.2018L29.9758 32.6133ZM23.0885 53.0626L16.6864 49.3674V41.9747L23.0885 45.6738V53.0626ZM24.0613 53.0626V46.2329L29.9767 49.6486L24.0613 53.0626ZM45.213 49.3674L38.8087 53.0626V45.6738L45.2117 41.9773L45.213 49.3674Z" fill="white"/>
<path d="M14.869 5.9801H15.6552V10.66H14.869V5.9801Z" fill="white"/>
<path d="M16.6691 7.71796V10.6578H16.005V5.97839H16.7769L17.6254 8.66112V5.98009H18.2847V10.66H17.5936L16.6691 7.71796Z" fill="white"/>
<path d="M20.9798 7.23585V9.40132C20.9798 10.1216 20.6833 10.657 19.8399 10.657H18.6277V5.97717H19.8446C20.685 5.98013 20.9798 6.5122 20.9798 7.23585ZM19.7452 10.0159C20.0696 10.0159 20.1939 9.82257 20.1939 9.5392V7.09078C20.1939 6.81502 20.0696 6.62216 19.7452 6.62216H19.4144V10.0159H19.7452Z" fill="white"/>
<path d="M23.6079 5.9801V9.52014C23.6079 10.2442 23.2975 10.7133 22.4972 10.7133C21.67 10.7133 21.3248 10.2442 21.3248 9.52014V5.9801H22.1115V9.59458C22.1115 9.87033 22.2211 10.0569 22.4972 10.0569C22.773 10.0569 22.8834 9.87033 22.8834 9.59458V5.9801H23.6079Z" fill="white"/>
<path d="M23.9116 9.64956V9.02234H24.6446V9.66352C24.6446 9.92574 24.7617 10.0776 25.0303 10.0776C25.2786 10.0776 25.3903 9.91179 25.3903 9.66352V9.48334C25.3903 9.21478 25.2794 9.04898 25.0384 8.82355L24.5765 8.36085C24.1277 7.92015 23.9209 7.65073 23.9209 7.11317V6.95414C23.9209 6.37556 24.2593 5.92639 25.0252 5.92639C25.8111 5.92639 26.122 6.31254 26.122 6.98883V7.36821H25.4021V6.96091C25.4021 6.69192 25.2777 6.56123 25.0295 6.56123C24.8087 6.56123 24.6573 6.68515 24.6573 6.94738V7.04423C24.6573 7.30646 24.8019 7.45829 25.0295 7.67822L25.5332 8.17518C25.9604 8.60954 26.1672 8.87135 26.1672 9.38903V9.61742C26.1672 10.2586 25.8221 10.7145 25.0227 10.7145C24.2229 10.7145 23.9116 10.2637 23.9116 9.64998V9.64956Z" fill="white"/>
<path d="M26.2155 5.9801H28.3048V6.62213H27.6569V10.657H26.8651V6.62213H26.2167L26.2155 5.9801Z" fill="white"/>
<path d="M29.3537 8.51151V10.6567H28.5674V5.97681H29.7119C30.5054 5.97681 30.7951 6.37057 30.7951 7.02571V7.62586C30.7951 8.12916 30.6149 8.42565 30.1674 8.52969L30.919 10.6541H30.0913L29.3533 8.51193L29.3537 8.51151ZM29.3537 6.6218V8.07672H29.6159C29.8845 8.07672 30.0021 7.93884 30.0021 7.69015V7.00075C30.0021 6.74529 29.8819 6.6218 29.6159 6.6218H29.3537Z" fill="white"/>
<path d="M32.4784 8.87726V10.657H31.6918V8.87726L30.8158 5.9801H31.6368L32.113 7.75308H32.1194L32.5952 5.9801H33.3451L32.4784 8.87726Z" fill="white"/>
<path d="M34.0235 9.96727L33.6234 11.0225H33.1823L33.2783 9.90552H34.0235V9.96727Z" fill="white"/>
<path d="M34.9891 5.9801H35.7754V10.66H34.9891V5.9801Z" fill="white"/>
<path d="M36.7891 7.71796V10.6578H36.1293V5.97839H36.9025L37.7505 8.66112V5.98009H38.4061V10.66H37.7158L36.7891 7.71796Z" fill="white"/>
<path d="M39.4102 7.71796V10.6578H38.7499V5.97839H39.5222L40.3711 8.66112V5.98009H41.025V10.66H40.3347L39.4102 7.71796Z" fill="white"/>
<path d="M41.3693 9.44952V7.18719C41.3693 6.45635 41.7292 5.92725 42.5552 5.92725C43.3817 5.92725 43.7488 6.45846 43.7488 7.18719V9.44952C43.7488 10.174 43.3889 10.7099 42.5552 10.7099C41.722 10.7099 41.3693 10.174 41.3693 9.44952ZM42.963 9.57386V7.06285C42.963 6.78032 42.8386 6.58281 42.5557 6.58281C42.2727 6.58281 42.156 6.78244 42.156 7.06285V9.57386C42.156 9.85681 42.2803 10.0569 42.5557 10.0569C42.8314 10.0569 42.963 9.85723 42.963 9.57386Z" fill="white"/>
<path d="M46.6113 5.9801L45.7214 10.66H44.8649L43.9755 5.9801H44.7753L45.3154 9.24269H45.3221L45.8737 5.9801H46.6113Z" fill="white"/>
<path d="M46.3647 10.657L47.2474 5.97717H48.1475L49.0374 10.657H48.2249L48.0798 9.80143H47.2457L47.1087 10.657H46.3652H46.3647ZM47.3515 9.17378H47.9787L47.6687 7.2976H47.6615L47.3515 9.17378Z" fill="white"/>
<path d="M48.8187 5.9801H50.9089V6.62213H50.2601V10.657H49.4667V6.62213H48.8187V5.9801Z" fill="white"/>
<path d="M51.1711 5.9801H51.9569V10.66H51.1711V5.9801Z" fill="white"/>
<path d="M52.3084 9.44952V7.18719C52.3084 6.45635 52.6683 5.92725 53.4952 5.92725C54.3221 5.92725 54.6879 6.45846 54.6879 7.18719V9.44952C54.6879 10.174 54.328 10.7099 53.4952 10.7099C52.6624 10.7099 52.3084 10.174 52.3084 9.44952ZM53.9021 9.57386V7.06285C53.9021 6.78032 53.7777 6.58281 53.4952 6.58281C53.2123 6.58281 53.0951 6.78244 53.0951 7.06285V9.57386C53.0951 9.85681 53.2194 10.0569 53.4952 10.0569C53.771 10.0569 53.9021 9.85723 53.9021 9.57386Z" fill="white"/>
<path d="M55.6959 7.71796V10.6578H55.0352V5.97839H55.8084L56.6564 8.66112V5.98009H57.312V10.66H56.6221L55.6959 7.71796Z" fill="white"/>
<path d="M14.7446 17.8636L15.6273 13.1871H16.5206L17.4101 17.8636H16.6048L16.4601 17.0084H15.6244L15.4865 17.8636H14.7446ZM15.7305 16.3808H16.359L16.0482 14.505H16.0414L15.7305 16.3808Z" fill="white"/>
<path d="M18.363 14.9254V17.8653H17.7027V13.1871H18.4755L19.3239 15.8703V13.1871H19.9769V17.8636H19.2867L18.363 14.9254Z" fill="white"/>
<path d="M22.7426 14.4424V16.6083C22.7426 17.3286 22.4453 17.8636 21.6023 17.8636H20.3906V13.1871H21.6044C22.4457 13.1871 22.7426 13.7184 22.7426 14.4424ZM21.5076 17.2224C21.8316 17.2224 21.9559 17.0292 21.9559 16.7462V14.2974C21.9559 14.0216 21.8316 13.8283 21.5076 13.8283H21.1768V17.222L21.5076 17.2229V17.2224Z" fill="white"/>
<path d="M23.8461 13.1871H24.6328V17.8636H23.8461V13.1871Z" fill="white"/>
<path d="M25.7151 14.9254V17.8653H25.0553V13.1871H25.8276L26.6756 15.8703V13.1871H27.3312V17.8636H26.6397L25.7151 14.9254Z" fill="white"/>
<path d="M27.7431 13.1871H29.585V13.8287H28.5298V15.1669H29.3156V15.8013H28.5298V17.8636H27.7431V13.1871Z" fill="white"/>
<path d="M30.6814 15.7184V17.8636H29.8951V13.1871H31.0396C31.8331 13.1871 32.1228 13.58 32.1228 14.236V14.8362C32.1228 15.3395 31.9426 15.636 31.4951 15.74L32.2467 17.864H31.419L30.681 15.7189L30.6814 15.7184ZM30.6814 13.8287V15.2841H30.9449C31.2134 15.2841 31.331 15.1462 31.331 14.8975V14.2085C31.331 13.9527 31.2113 13.8287 30.9449 13.8287H30.6814Z" fill="white"/>
<path d="M32.3922 17.8636L33.2753 13.1871H34.1715L35.061 17.8636H34.254L34.1097 17.0084H33.2753L33.1374 17.8636H32.3922ZM33.3785 16.3808H34.0049L33.6944 14.505H33.6881L33.3785 16.3808Z" fill="white"/>
<path d="M35.2412 16.857V16.2294H35.9725V16.8705C35.9725 17.1328 36.0926 17.2846 36.3582 17.2846C36.6065 17.2846 36.7181 17.1188 36.7181 16.8705V16.6904C36.7181 16.4218 36.6077 16.256 36.3662 16.0306L35.9044 15.5683C35.4565 15.1272 35.2492 14.8578 35.2492 14.3194V14.1612C35.2492 13.5813 35.5872 13.1334 36.3527 13.1334C37.1385 13.1334 37.4494 13.5196 37.4494 14.1959V14.5752H36.7295V14.1684C36.7295 13.899 36.6052 13.7683 36.3569 13.7683C36.1361 13.7683 35.9847 13.8922 35.9847 14.1544V14.2513C35.9847 14.5126 36.1294 14.6649 36.3569 14.8853L36.8611 15.3822C37.2883 15.8166 37.4951 16.0788 37.4951 16.5961V16.8244C37.4951 17.4656 37.15 17.9207 36.3502 17.9207C35.5504 17.9207 35.2412 17.4711 35.2412 16.8574V16.857Z" fill="white"/>
<path d="M37.6828 13.1871H39.7726V13.8287H39.1238V17.8636H38.3308V13.8287H37.6828V13.1871Z" fill="white"/>
<path d="M40.8896 15.7184V17.8636H40.1034V13.1871H41.2483C42.0413 13.1871 42.3281 13.58 42.3281 14.236V14.8362C42.3281 15.3395 42.1479 15.636 41.7004 15.74L42.4524 17.864H41.6243L40.8892 15.7189L40.8896 15.7184ZM40.8896 13.8287V15.2841H41.1519C41.4204 15.2841 41.538 15.1462 41.538 14.8975V14.2085C41.538 13.9527 41.4183 13.8287 41.1519 13.8287H40.8896Z" fill="white"/>
<path d="M45.0079 13.1871V16.7272C45.0079 17.4512 44.6974 17.9199 43.8972 17.9199C43.0699 17.9199 42.7248 17.4508 42.7248 16.7272V13.1871H43.5115V16.8016C43.5115 17.0774 43.6219 17.2635 43.8972 17.2635C44.1725 17.2635 44.2834 17.0774 44.2834 16.8016V13.1871H45.0079Z" fill="white"/>
<path d="M45.4215 16.657V14.3942C45.4215 13.663 45.7666 13.1343 46.5939 13.1343C47.4635 13.1343 47.7046 13.6143 47.7046 14.3067V14.859H46.9843V14.2428C46.9843 13.9527 46.8879 13.7873 46.6045 13.7873C46.3215 13.7873 46.2048 13.9878 46.2048 14.2707V16.7813C46.2048 17.0643 46.3249 17.2614 46.6045 17.2614C46.8841 17.2614 46.9843 17.0812 46.9843 16.8067V15.9469H47.7046V16.7538C47.7046 17.4229 47.4288 17.9195 46.5939 17.9195C45.7594 17.9195 45.4215 17.3815 45.4215 16.6578V16.657Z" fill="white"/>
<path d="M47.8362 13.1871H49.926V13.8287H49.2772V17.8636H48.4841V13.8287H47.8362V13.1871Z" fill="white"/>
<path d="M52.5402 13.1871V16.7272C52.5402 17.4512 52.2298 17.9199 51.4296 17.9199C50.6014 17.9199 50.2571 17.4508 50.2571 16.7272V13.1871H51.0447V16.8016C51.0447 17.0774 51.1551 17.2635 51.4312 17.2635C51.707 17.2635 51.8174 17.0774 51.8174 16.8016V13.1871H52.5398H52.5402Z" fill="white"/>
<path d="M53.7401 15.7184V17.8636H52.9539V13.1871H54.0984C54.8918 13.1871 55.1815 13.58 55.1815 14.236V14.8362C55.1815 15.3395 55.0014 15.636 54.5539 15.74L55.3042 17.864H54.4765L53.7397 15.7189L53.7401 15.7184ZM53.7401 13.8287V15.2841H54.0019C54.2709 15.2841 54.3885 15.1462 54.3885 14.8975V14.2085C54.3885 13.9527 54.2684 13.8287 54.0019 13.8287H53.7401Z" fill="white"/>
<path d="M55.5749 13.1871H57.4511V13.8287H56.3616V15.1669H57.1415V15.8013H56.3616V17.2224H57.4511V17.8636H55.5749V13.1871Z" fill="white"/>
</svg>
