<svg width="61" height="61" viewBox="0 0 61 61" fill="none" xmlns="http://www.w3.org/2000/svg">
<path d="M0.0249634 0.856689H60.025V60.8567H0.0249634V0.856689Z" fill="#FCC30B"/>
<path d="M6.17926 7.54437H9.32006L6.60686 17.982H8.62431L11.283 7.75838V5.88477H6.17926V7.54437Z" fill="white"/>
<path d="M30.0249 29.9264C30.0232 29.9264 30.0228 29.9264 30.0216 29.9264C25.1653 29.9264 21.2268 33.8644 21.2268 38.7206C21.2268 43.5772 25.1653 47.5151 30.0216 47.5151C34.8778 47.5151 38.8159 43.5772 38.8159 38.7206V38.7193C38.8159 33.8648 34.8791 29.9273 30.0249 29.926V29.9264ZM29.374 33.4005C29.374 33.1082 29.6675 32.7851 30.0287 32.7851C30.3899 32.7851 30.6797 33.1082 30.6797 33.4005V36.4202C30.6797 36.7112 30.3887 37.0305 30.0287 37.0305C29.6688 37.0305 29.374 36.7112 29.374 36.4202V33.4005ZM30.0249 43.2266C27.5021 43.2223 25.458 41.1753 25.458 38.6521C25.458 36.6524 26.7581 34.8837 28.6664 34.2869V35.9901C27.664 36.501 27.0322 37.5317 27.0322 38.6571C27.0322 40.3096 28.3729 41.6503 30.0258 41.6503C31.6782 41.6503 33.019 40.3096 33.019 38.6571C33.019 37.5283 32.3837 36.4955 31.3771 35.9863V34.2831C33.2918 34.8752 34.5987 36.6478 34.5987 38.6525C34.5987 41.1783 32.5516 43.2261 30.0254 43.227H30.0249V43.2266Z" fill="white"/>
<path d="M19.9288 38.6435C19.9288 38.2443 19.5756 37.9237 19.2534 37.9237H15.402C15.0776 37.9237 14.7211 38.2464 14.7211 38.6435C14.7211 39.0407 15.0776 39.368 15.402 39.368H19.2534C19.5756 39.368 19.9288 39.0432 19.9288 38.6435Z" fill="white"/>
<path d="M45.3288 38.6435C45.3288 38.2443 44.9757 37.9237 44.6534 37.9237H40.8029C40.4781 37.9237 40.1219 38.2464 40.1219 38.6435C40.1219 39.0407 40.4781 39.368 40.8029 39.368H44.6534C44.9757 39.368 45.3288 39.0432 45.3288 38.6435Z" fill="white"/>
<path d="M30.025 28.5484C30.423 28.5484 30.7453 28.1953 30.7453 27.873V24.0217C30.7453 23.6974 30.4221 23.3408 30.025 23.3408C29.6287 23.3408 29.2996 23.6974 29.2996 24.0217V27.873C29.2996 28.1953 29.6257 28.5484 30.025 28.5484Z" fill="white"/>
<path d="M30.025 53.9479C30.423 53.9479 30.7453 53.5944 30.7453 53.2721V49.4217C30.7453 49.0977 30.4221 48.7407 30.025 48.7407C29.6287 48.7407 29.2996 49.0977 29.2996 49.4217V53.2721C29.2996 53.5944 29.6257 53.9479 30.025 53.9479Z" fill="white"/>
<path d="M21.2649 33.6279C21.4637 33.2819 21.3178 32.8264 21.0369 32.6683L17.6948 30.7553C17.4127 30.5938 16.9436 30.6953 16.7449 31.0433C16.5461 31.3914 16.6954 31.849 16.9766 32.0106L20.3196 33.9231C20.5987 34.0834 21.067 33.9773 21.2649 33.6296V33.6279Z" fill="white"/>
<path d="M43.3084 46.2446C43.5059 45.8995 43.36 45.4431 43.08 45.2849L39.7379 43.372C39.4558 43.2113 38.9863 43.3119 38.7884 43.6609C38.59 44.0094 38.7381 44.4665 39.0193 44.6273L42.3623 46.5398C42.6414 46.7001 43.1096 46.5939 43.3084 46.2463V46.2446Z" fill="white"/>
<path d="M35.0415 29.8832C35.3871 30.0803 35.8426 29.9348 36.0016 29.6549L37.9137 26.3124C38.0757 26.0303 37.9738 25.5604 37.6261 25.3625C37.2789 25.1641 36.82 25.3121 36.6593 25.5942L34.748 28.9367C34.5877 29.2171 34.6943 29.6849 35.0415 29.8837V29.8832Z" fill="white"/>
<path d="M22.4246 51.9276C22.7702 52.1251 23.2257 51.9792 23.3847 51.6993L25.2969 48.3572C25.458 48.0755 25.3569 47.6052 25.0088 47.4073C24.6607 47.2093 24.2048 47.3565 24.0441 47.6391L22.1311 50.9811C21.9708 51.2607 22.0774 51.7293 22.4246 51.9281V51.9276Z" fill="white"/>
<path d="M24.9936 29.8916C25.3387 29.6929 25.4428 29.2255 25.282 28.9459L23.3623 25.6077C23.1999 25.326 22.7431 25.1788 22.3971 25.3772C22.052 25.576 21.9467 26.0471 22.1095 26.3284L24.0293 29.6662C24.1908 29.9458 24.6472 30.0904 24.9949 29.8912H24.9936V29.8916Z" fill="white"/>
<path d="M37.6549 51.9102C38.0005 51.7114 38.1045 51.2441 37.9442 50.9653L36.0245 47.6267C35.8625 47.3446 35.4053 47.1974 35.0589 47.3957C34.7129 47.5945 34.608 48.0657 34.7717 48.3478L36.6915 51.6856C36.8522 51.9652 37.3098 52.1094 37.6566 51.9102H37.6549Z" fill="white"/>
<path d="M38.7783 33.6128C38.977 33.9583 39.4436 34.0624 39.7231 33.9021L43.061 31.9823C43.3431 31.8199 43.4916 31.3627 43.2928 31.0168C43.0936 30.6712 42.6228 30.5668 42.3412 30.7288L39.0033 32.6485C38.7233 32.8096 38.5791 33.2672 38.7787 33.6136V33.6128H38.7783Z" fill="white"/>
<path d="M16.7588 46.2763C16.9576 46.6218 17.4245 46.7259 17.7045 46.5651L21.0424 44.645C21.3237 44.483 21.4725 44.0254 21.2729 43.6794C21.0733 43.3343 20.603 43.2294 20.3217 43.391L16.9838 45.3107C16.7038 45.471 16.5596 45.9295 16.7588 46.2758V46.2763Z" fill="white"/>
<path d="M17.0338 10.7812L17.9596 5.8772H18.9002L19.8332 10.7812H18.9848L18.8334 9.88495H17.9596L17.8149 10.7812H17.0338ZM18.0683 9.22602H18.7285L18.4033 7.25851H18.3961L18.0683 9.22602Z" fill="white"/>
<path d="M20.1369 5.87756H22.0685V6.55003H20.9612V7.95334H21.7864V8.61904H20.9612V10.7786H20.1369V5.87756Z" fill="white"/>
<path d="M22.3937 5.87756H24.3249V6.55003H23.2181V7.95334H24.0428V8.61904H23.2181V10.7786H22.3937V5.87756Z" fill="white"/>
<path d="M24.5783 9.51587V7.1432C24.5783 6.37768 24.9547 5.81982 25.8251 5.81982C26.696 5.81982 27.0766 6.37683 27.0766 7.1432V9.51587C27.0766 10.2755 26.7002 10.8392 25.8251 10.8392C24.9496 10.8392 24.5783 10.2772 24.5783 9.51587ZM26.2493 9.64614V7.01251C26.2493 6.71603 26.1191 6.50625 25.8222 6.50625C25.5248 6.50625 25.4022 6.71603 25.4022 7.01251V9.64614C25.4022 9.94262 25.532 10.1524 25.8222 10.1524C26.1119 10.1524 26.2493 9.94262 26.2493 9.64614Z" fill="white"/>
<path d="M28.3319 8.53192V10.7815H27.505V5.87756H28.7049C29.5398 5.87756 29.8448 6.28993 29.8448 6.97762V7.60695C29.8448 8.13478 29.657 8.44733 29.185 8.55433L29.9733 10.7819H29.1059L28.3319 8.53192ZM28.3319 6.55215V8.07768H28.6068C28.8898 8.07768 29.0124 7.93346 29.0124 7.67293V6.95267C29.0124 6.68495 28.8898 6.55511 28.6068 6.55511L28.3319 6.55215Z" fill="white"/>
<path d="M32.7246 7.1938V9.46497C32.7246 10.2174 32.4138 10.7812 31.5315 10.7812H30.2559V5.8772H31.529C32.4112 5.8772 32.7246 6.43717 32.7246 7.19338V7.1938ZM31.43 10.1087C31.7705 10.1087 31.9003 9.90652 31.9003 9.60962V7.04154C31.9003 6.75225 31.7705 6.55051 31.43 6.55051H31.0827V10.1087H31.43Z" fill="white"/>
<path d="M32.9179 10.7812L33.8433 5.8772H34.7839L35.717 10.7812H34.8702L34.7188 9.88495H33.8433L33.6991 10.7812H32.9179ZM33.9524 9.22602H34.6122L34.2853 7.25851H34.2781L33.9524 9.22602Z" fill="white"/>
<path d="M36.0211 5.87762H37.2142C38.0389 5.87762 38.3138 6.26038 38.3138 6.9578V7.45729C38.3138 7.86965 38.1616 8.13018 37.822 8.23719C38.2343 8.33066 38.4373 8.60641 38.4373 9.0543V9.70563C38.4373 10.3997 38.1256 10.7854 37.3013 10.7854H36.0215V5.8772L36.0211 5.87762ZM36.845 7.94621H37.1351C37.4028 7.94621 37.5259 7.80833 37.5259 7.5478V6.94765C37.5259 6.67993 37.4058 6.55009 37.1279 6.55009H36.845V7.94621ZM36.845 8.57511V10.1087H37.2049C37.4798 10.1087 37.6101 9.97165 37.6101 9.71112V8.9731C37.6101 8.71257 37.487 8.57511 37.1977 8.57511H36.845Z" fill="white"/>
<path d="M38.8125 5.87756H39.6373V10.1086H40.621V10.7811H38.8125V5.87756Z" fill="white"/>
<path d="M40.9607 5.87756H42.9286V6.55003H41.785V7.95334H42.6021V8.61904H41.785V10.1086H42.9248V10.7811H40.9568L40.9607 5.87756Z" fill="white"/>
<path d="M43.9264 10.7812L44.8522 5.8772H45.7924L46.7258 10.7812H45.8795L45.7277 9.88495H44.8526L44.708 10.7812H43.9268H43.9264ZM44.9609 9.22602H45.6207L45.2959 7.25851H45.2878L44.9609 9.22602Z" fill="white"/>
<path d="M47.7248 7.7V10.7811H47.0295V5.87756H47.8395L48.7293 8.69094V5.87756H49.4162V10.7811H48.6934L47.7248 7.7Z" fill="white"/>
<path d="M52.3168 7.1938V9.46497C52.3168 10.2174 52.0059 10.7812 51.1236 10.7812H49.8506V5.8772H51.1236C52.0059 5.8772 52.3168 6.43717 52.3168 7.19338V7.1938ZM51.0251 10.1087C51.3655 10.1087 51.4954 9.90652 51.4954 9.60962V7.04154C51.4954 6.75225 51.3655 6.55051 51.0251 6.55051H50.6783V10.1087H51.0251Z" fill="white"/>
<path d="M17.1577 16.7172V14.3572C17.1577 13.5947 17.5172 13.0372 18.3808 13.0372C19.2876 13.0372 19.5397 13.5409 19.5397 14.2604V14.8368H18.7907V14.1982C18.7907 13.8979 18.69 13.7232 18.3952 13.7232C18.1009 13.7232 17.9752 13.9317 17.9752 14.227V16.8466C17.9752 17.1414 18.0954 17.3499 18.3952 17.3499C18.6955 17.3499 18.7907 17.1626 18.7907 16.8754V15.9771H19.5397V16.817C19.5397 17.5149 19.2517 18.0334 18.3808 18.0334C17.51 18.0334 17.1577 17.4726 17.1577 16.7172Z" fill="white"/>
<path d="M20.0574 13.0973H20.8775V17.3068H21.8562V17.9763H20.0561L20.0574 13.0973Z" fill="white"/>
<path d="M22.3024 13.0973H24.2598V13.7668H23.125V15.1625H23.9379V15.8227H23.125V17.3042H24.2649V17.9742H22.3024V13.0973Z" fill="white"/>
<path d="M24.6413 17.9763L25.5621 13.0973H26.4976L27.426 17.9763H26.586L26.4346 17.0839H25.5621L25.4178 17.9763H24.6413ZM25.6699 16.4292H26.3246L26.0006 14.4718H25.9935L25.6703 16.4292H25.6699Z" fill="white"/>
<path d="M28.5252 14.9113V17.9763H27.8354V13.0973H28.6449L29.5297 15.8967V13.0973H30.2132V17.9763H29.4933L28.5252 14.9113Z" fill="white"/>
<path d="M32.4053 13.0973H34.3623V13.7668H33.2254V15.1625H34.0383V15.8227H33.2254V17.3042H34.3623V17.9742H32.4053V13.0973Z" fill="white"/>
<path d="M35.5448 14.9113V17.9763H34.8521V13.0973H35.6578L36.543 15.8967V13.0973H37.2248V17.9763H36.5049L35.5448 14.9113Z" fill="white"/>
<path d="M37.759 13.0973H39.7164V13.7668H38.5791V15.1625H39.392V15.8227H38.5791V17.3042H39.7164V17.9742H37.759V13.0973Z" fill="white"/>
<path d="M41.033 15.7373V17.975H40.2125V13.0973H41.4073C42.235 13.0973 42.537 13.508 42.537 14.191V14.8174C42.537 15.3422 42.3496 15.6518 41.8823 15.7601L42.6664 17.9763H41.8027L41.033 15.7373ZM41.033 13.7655V15.2835H41.3049C41.5858 15.2835 41.7084 15.1392 41.7084 14.8808V14.1606C41.7084 13.8945 41.5887 13.7651 41.3049 13.7651H41.033V13.7655Z" fill="white"/>
<path d="M44.2922 15.371H45.4583V17.9763H44.8683V17.4438C44.7604 17.8109 44.5303 18.0338 44.0845 18.0338C43.3786 18.0338 43.0555 17.4726 43.0555 16.7172V14.3572C43.0555 13.5947 43.4222 13.0372 44.2854 13.0372C45.1927 13.0372 45.4587 13.5409 45.4587 14.2604V14.6926H44.7105V14.1957C44.7105 13.8958 44.5955 13.7211 44.3002 13.7211C44.0059 13.7211 43.8756 13.9292 43.8756 14.2244V16.8441C43.8756 17.1393 43.9953 17.3474 44.2782 17.3474C44.5447 17.3474 44.6817 17.196 44.6817 16.88V16.0194H44.2931V15.3714L44.2922 15.371Z" fill="white"/>
<path d="M47.581 16.1196V17.9763H46.7605V16.1196L45.847 13.0973H46.7051L47.2021 14.9472H47.2093L47.7033 13.0973H48.4874L47.581 16.1196Z" fill="white"/>
</svg>
