<svg width="61" height="61" viewBox="0 0 61 61" fill="none" xmlns="http://www.w3.org/2000/svg">
<path d="M0.958038 0.793579H60.958V60.7936H0.958038V0.793579Z" fill="#00689D"/>
<path d="M5.57382 8.02088V10.1436H5.59244L7.01935 8.66303H7.03754V17.923H9.07193V5.82581H7.44873L5.57382 8.02088Z" fill="white"/>
<path d="M16.1917 15.0151V13.2308C16.1917 11.2502 15.4065 10.2506 13.9436 10.2506C13.087 10.2506 12.5692 10.6432 12.2663 11.2325H12.249V8.62705C12.249 7.8948 12.4799 7.37786 13.2118 7.37786C13.9441 7.37786 14.1577 7.80638 14.1577 8.55556V9.35973H16.0131V8.71631C16.0131 6.93242 15.4247 5.68323 13.1758 5.68323C11.0348 5.68323 10.2319 7.05763 10.2319 8.94897V14.8366C10.2319 16.7102 11.0534 18.0664 13.194 18.0664C15.3541 18.0664 16.1942 16.8887 16.1942 15.0151H16.1917ZM14.178 15.1953C14.178 15.9623 13.892 16.4081 13.197 16.4081C12.5189 16.4081 12.2519 15.9449 12.2519 15.1953V12.9808C12.2866 12.3031 12.5722 11.8746 13.2147 11.8746C13.9098 11.8746 14.178 12.3031 14.178 13.0887V15.1953Z" fill="white"/>
<path d="M39.7156 30.2491C39.7156 30.2491 39.2109 30.9192 39.3556 31.5728C39.5003 32.2264 40.2486 32.6147 40.2486 32.6147C40.2486 32.6147 40.7537 31.9446 40.6086 31.2915C40.4644 30.6388 39.7156 30.2491 39.7156 30.2491Z" fill="white"/>
<path d="M38.8932 34.0799C38.8932 34.0799 39.3979 33.409 39.2528 32.7563C39.1085 32.1035 38.3606 31.7144 38.3606 31.7144C38.3606 31.7144 37.8551 32.3844 38.0006 33.038C38.1457 33.6916 38.8936 34.0799 38.8936 34.0799H38.8932Z" fill="white"/>
<path d="M40.9678 33.3626C40.9678 33.3626 41.5004 33.9023 42.1079 33.8461C42.7153 33.7898 43.165 33.1676 43.165 33.1676C43.165 33.1676 42.6329 32.6278 42.0245 32.6836C41.4166 32.7395 40.9678 33.363 40.9678 33.363V33.3626Z" fill="white"/>
<path d="M41.8409 30.489C41.3472 30.9898 41.4166 31.8769 41.4166 31.8769C41.4166 31.8769 42.2876 31.9522 42.7826 31.4518C43.2776 30.9513 43.2069 30.0638 43.2069 30.0638C43.2069 30.0638 42.3359 29.9885 41.8409 30.489Z" fill="white"/>
<path d="M40.7516 35.355C41.3561 35.4269 41.9255 34.9074 41.9255 34.9074C41.9255 34.9074 41.5135 34.2695 40.9077 34.2005C40.3023 34.1316 39.7333 34.6485 39.7333 34.6485C39.7333 34.6485 40.1454 35.2835 40.7503 35.355H40.7516Z" fill="white"/>
<path d="M41.2918 45.865H36.7695C36.4167 45.865 36.1299 46.1518 36.1299 46.505C36.1299 46.8578 36.4167 47.1446 36.7695 47.1446H41.2918C41.6446 47.1446 41.9315 46.8578 41.9315 46.505C41.9315 46.1518 41.6446 45.865 41.2918 45.865Z" fill="white"/>
<path d="M41.2918 52.9169H36.7695C36.4167 52.9169 36.1299 53.2037 36.1299 53.5565C36.1299 53.9097 36.4167 54.1965 36.7695 54.1965H41.2918C41.6446 54.1965 41.9315 53.9097 41.9315 53.5565C41.9315 53.2037 41.6446 52.9169 41.2918 52.9169Z" fill="white"/>
<path d="M20.9542 44.3118C20.8514 44.2798 20.7465 44.2524 20.6408 44.2317C20.535 44.211 20.7567 44.2675 20.9547 44.3118H20.9542Z" fill="white"/>
<path d="M41.1252 47.5914H36.9345C36.7336 47.5914 36.5707 47.7542 36.5703 47.9552V49.2242L33.8349 49.5242L29.8385 49.4328V46.9915C30.3736 46.9247 30.91 46.8147 31.4291 46.6687C35.2766 45.5837 36.1155 42.403 36.0313 40.2028C35.948 37.9617 36.6651 37.0911 37.6952 36.704C37.971 36.6021 38.2582 36.5255 38.5488 36.4781C38.5603 37.028 38.6686 37.6685 38.9177 38.4304C39.0095 38.4257 39.098 38.4177 39.1906 38.4084C38.9309 37.6283 38.82 36.9866 38.8137 36.4392C39.0121 36.4142 39.2139 36.4011 39.4144 36.4011C39.518 36.4011 39.6234 36.4045 39.7266 36.4108C39.4195 36.2332 39.1271 36.0255 38.8577 35.7932C39.0307 34.7323 39.6631 34.0804 40.3142 33.4141C40.6742 33.047 41.0422 32.6688 41.3346 32.2174L41.1078 32.071C40.832 32.4996 40.4699 32.8689 40.1209 33.2259C39.4863 33.8757 38.8446 34.5394 38.6275 35.5931C38.3957 35.3842 38.174 35.1617 37.9667 34.9294C37.0179 33.8659 35.7966 34.6468 34.0558 36.2683C32.315 37.8897 30.1223 37.9443 27.9826 35.7552C25.1618 32.8651 22.6967 32.882 21.008 33.0461C22.1633 33.5381 22.5686 34.6176 23.1524 37.361C23.7649 40.2413 25.3124 41.5425 27.4246 41.7219C26.249 42.1377 26.1906 42.8019 24.6152 43.8895C23.3846 44.7381 21.6535 44.4694 20.9542 44.3095C22.242 44.7114 23.7683 46.0621 25.1339 46.5296C25.9385 46.8033 26.7786 46.9759 27.6251 47.0397V49.3765L20.4656 49.2132V50.8431L33.8358 50.5373L36.5707 50.8372V52.1055C36.5711 52.3072 36.734 52.4701 36.935 52.4709H41.1256C41.3265 52.4701 41.4894 52.3072 41.4902 52.1063V47.9556C41.4894 47.7542 41.3265 47.5918 41.1256 47.5918C41.1252 47.5918 41.1247 47.5918 41.1247 47.5918L41.1252 47.5914ZM28.6481 47.4437C28.948 47.4488 29.2454 47.4395 29.5445 47.4192V49.7818L28.6481 49.7615V47.4442V47.4437Z" fill="white"/>
<path d="M20.0739 50.5801C20.0739 50.924 19.8341 51.2028 19.5388 51.2028H19.2164C18.9216 51.2028 18.6808 50.924 18.6808 50.5801V49.4519C18.6808 49.1079 18.9207 48.8296 19.2164 48.8296H19.5388C19.8341 48.8296 20.0739 49.1079 20.0739 49.4519V50.5801Z" fill="white"/>
<path d="M20.1065 5.8186H21.3286C22.1603 5.8186 22.4649 6.23063 22.4649 6.91804V7.95191C22.4649 8.63933 22.1603 9.05854 21.3286 9.05854H20.931V10.7223H20.1065V5.8186ZM20.931 6.49121V8.42231H21.2351C21.5173 8.42231 21.6404 8.28525 21.6404 8.01748V6.88928C21.6404 6.6215 21.5173 6.49121 21.2351 6.49121H20.931Z" fill="white"/>
<path d="M22.8262 5.8186H24.7937V6.49121H23.6503V7.89396H24.4676V8.5598H23.6503V10.0497H24.7937V10.7223H22.8262V5.8186Z" fill="white"/>
<path d="M25.1119 10.7223L26.0375 5.8186H26.9779L27.9107 10.7223H27.0646L26.9128 9.8221H26.0379L25.8937 10.7223H25.1123H25.1119ZM26.1445 9.16726H26.8045L26.4791 7.2002H26.4719L26.1445 9.16726Z" fill="white"/>
<path d="M28.1852 9.45616V7.08512C28.1852 6.31817 28.5452 5.76147 29.4146 5.76147C30.3262 5.76147 30.5796 6.26741 30.5796 6.99078V7.56948H29.8275V6.92479C29.8275 6.62106 29.7268 6.44466 29.4298 6.44466C29.1324 6.44466 29.0097 6.65448 29.0097 6.95102V9.58392C29.0097 9.88046 29.1324 10.0903 29.4298 10.0903C29.7268 10.0903 29.8275 9.90203 29.8275 9.61014V8.71122H30.5801V9.55727C30.5801 10.2586 30.2907 10.7794 29.4154 10.7794C28.5397 10.7794 28.1852 10.2151 28.1852 9.45574V9.45616Z" fill="white"/>
<path d="M31.0285 5.8186H32.996V6.49121H31.8559V7.89396H32.6732V8.5598H31.853V10.0497H32.9931V10.7223H31.0285V5.8186Z" fill="white"/>
<path d="M34.3193 9.99856L33.8992 11.1052H33.4368L33.5379 9.93384H34.318L34.3193 9.99856Z" fill="white"/>
<path d="M37.8132 5.8186V9.60594C37.8132 10.3153 37.5014 10.7777 36.6773 10.7777C35.8241 10.7777 35.5927 10.3082 35.5927 9.68546V8.71166H36.3727V9.70238C36.3727 9.94858 36.4599 10.0933 36.6765 10.0933C36.8931 10.0933 36.9883 9.94858 36.9883 9.69519V5.8186H37.8132Z" fill="white"/>
<path d="M40.7063 5.8186V9.52895C40.7063 10.2878 40.3806 10.7798 39.5417 10.7798C38.6741 10.7798 38.312 10.2878 38.312 9.52895V5.8186H39.1365V9.60594C39.1365 9.89571 39.2524 10.0907 39.5417 10.0907C39.8311 10.0907 39.9474 9.89782 39.9474 9.60594V5.8186H40.7063Z" fill="white"/>
<path d="M41.1692 9.66562V9.00571H41.9361V9.67831C41.9361 9.95328 42.0588 10.1123 42.341 10.1123C42.6016 10.1123 42.7175 9.9389 42.7175 9.67831V9.49049C42.7175 9.20834 42.6016 9.03447 42.3482 8.79546L41.8634 8.3111C41.3938 7.84874 41.1764 7.56573 41.1764 7.00184V6.83559C41.1764 6.22813 41.5309 5.75562 42.3338 5.75562C43.1583 5.75562 43.4836 6.16045 43.4836 6.86944V7.26708H42.7319V6.84532C42.7319 6.56317 42.6016 6.42526 42.341 6.42526C42.1092 6.42526 41.9505 6.55555 41.9505 6.83052V6.93162C41.9505 7.20659 42.102 7.36564 42.341 7.59746L42.8689 8.11778C43.3169 8.5738 43.5344 8.84877 43.5344 9.39108V9.63094C43.5344 10.3031 43.1748 10.7807 42.3346 10.7807C41.4945 10.7807 41.1692 10.3103 41.1692 9.66562Z" fill="white"/>
<path d="M43.9079 5.8186H46.1001V6.49121H45.4228V10.7223H44.5907V6.49121H43.9079V5.8186Z" fill="white"/>
<path d="M46.5223 5.8186H47.3468V10.7223H46.5223V5.8186Z" fill="white"/>
<path d="M47.8595 9.45616V7.08512C47.8595 6.31817 48.2195 5.76147 49.0893 5.76147C50.0005 5.76147 50.2539 6.26741 50.2539 6.99078V7.56948H49.5013V6.92479C49.5013 6.62106 49.4006 6.44466 49.1037 6.44466C48.8063 6.44466 48.6836 6.65448 48.6836 6.95102V9.58392C48.6836 9.88046 48.8033 10.0903 49.1037 10.0903C49.4036 10.0903 49.5013 9.90203 49.5013 9.61014V8.71122H50.2539V9.55727C50.2539 10.2586 49.9645 10.7794 49.0893 10.7794C48.2136 10.7794 47.8595 10.2151 47.8595 9.45574V9.45616Z" fill="white"/>
<path d="M50.7387 5.8186H52.7063V6.49121H51.5632V7.89396H52.3805V8.5598H51.5632V10.0497H52.7063V10.7223H50.7387V5.8186Z" fill="white"/>
<path d="M20.0054 17.9151L20.931 13.011H21.8714L22.8042 17.9151H21.9581L21.8062 17.0187H20.9314L20.7871 17.9151H20.0058H20.0054ZM21.0401 16.3601H21.7001L21.3747 14.393H21.3676L21.0401 16.3601Z" fill="white"/>
<path d="M23.9109 14.8337V17.915H23.2167V13.0105H24.0268L24.9169 15.8245V13.0105H25.6043V17.915H24.8805L23.9109 14.8337Z" fill="white"/>
<path d="M28.6129 14.3274V16.5987C28.6129 17.3508 28.302 17.9151 27.4191 17.9151H26.1445V13.011H27.4174C28.305 13.011 28.6134 13.5668 28.6134 14.3274H28.6129ZM27.318 17.2421C27.6581 17.2421 27.7884 17.0399 27.7884 16.7437V14.1756C27.7884 13.8862 27.6581 13.6836 27.318 13.6836H26.9711V17.2425H27.318V17.2421Z" fill="white"/>
<path d="M29.9438 16.8591V16.1992H30.7104V16.8718C30.7104 17.1467 30.833 17.3058 31.1152 17.3058C31.3758 17.3058 31.4917 17.1324 31.4917 16.8718V16.6873C31.4917 16.4052 31.3758 16.2317 31.1224 15.9927L30.6384 15.5088C30.168 15.0456 29.951 14.7634 29.951 14.1995V14.0333C29.951 13.4254 30.3051 12.9529 31.108 12.9529C31.9325 12.9529 32.2587 13.3581 32.2587 14.0667V14.4669H31.5061V14.0405C31.5061 13.7583 31.3758 13.6204 31.1152 13.6204C30.8842 13.6204 30.7247 13.7503 30.7247 14.0252V14.1268C30.7247 14.4017 30.8762 14.5604 31.1152 14.7913L31.6432 15.3121C32.0916 15.7681 32.309 16.0431 32.309 16.5854V16.8257C32.309 17.4983 31.949 17.9759 31.1089 17.9759C30.2687 17.9759 29.9438 17.5025 29.9438 16.8591Z" fill="white"/>
<path d="M32.6128 13.0105H34.8041V13.6861H34.1264V17.9176H33.2926V13.6861H32.6128V13.0105Z" fill="white"/>
<path d="M36.0851 15.6667V17.9159H35.2606V13.0105H36.4608C37.2924 13.0105 37.597 13.4225 37.597 14.1099V14.7394C37.597 15.2673 37.4088 15.5795 36.9367 15.687L37.7273 17.9146H36.8593L36.0855 15.6667H36.0851ZM36.0851 13.6861V15.2123H36.3601C36.6422 15.2123 36.7645 15.0677 36.7645 14.8079V14.0812C36.7645 13.8134 36.6448 13.6831 36.3601 13.6831L36.0851 13.6861Z" fill="white"/>
<path d="M38.1169 16.6489V14.277C38.1169 13.5101 38.493 12.9534 39.3615 12.9534C40.2296 12.9534 40.6124 13.5105 40.6124 14.277V16.6489C40.6124 17.4087 40.2364 17.9725 39.3615 17.9725C38.4867 17.9725 38.1169 17.4065 38.1169 16.6489ZM39.7879 16.7792V14.1463C39.7879 13.8498 39.6581 13.6399 39.3615 13.6399C39.065 13.6399 38.9414 13.8498 38.9414 14.1463V16.7792C38.9414 17.0757 39.0709 17.2856 39.3615 17.2856C39.6517 17.2856 39.7879 17.0757 39.7879 16.7792Z" fill="white"/>
<path d="M41.8498 14.8337V17.915H41.1552V13.0105H41.9653L42.855 15.8245V13.0105H43.542V17.915H42.822L41.8498 14.8337Z" fill="white"/>
<path d="M45.3285 15.2964H46.5003V17.9149H45.9068V17.3798C45.7989 17.7487 45.5671 17.9733 45.1186 17.9733C44.4101 17.9733 44.0839 17.409 44.0839 16.6496V14.2777C44.0839 13.5108 44.4532 12.9541 45.3209 12.9541C46.2321 12.9541 46.4999 13.4605 46.4999 14.1834V14.6174H45.7473V14.1187C45.7473 13.8145 45.6318 13.6386 45.3352 13.6386C45.0387 13.6386 44.9084 13.8484 44.9084 14.1449V16.7774C44.9084 17.0739 45.0315 17.2837 45.3137 17.2837C45.5814 17.2837 45.7185 17.1323 45.7185 16.8133V15.9483H45.328V15.2968L45.3285 15.2964Z" fill="white"/>
<path d="M20.1433 20.2814H20.9682V25.1855H20.1433V20.2814Z" fill="white"/>
<path d="M22.2115 22.1038V25.1855H21.5169V20.2814H22.3274L23.2167 23.0945V20.2814H23.9045V25.1855H23.1807L22.2115 22.1038Z" fill="white"/>
<path d="M24.4045 24.128V23.4681H25.1715V24.1407C25.1715 24.4157 25.2942 24.5747 25.5764 24.5747C25.837 24.5747 25.952 24.4013 25.952 24.1407V23.9529C25.952 23.6707 25.837 23.4969 25.5835 23.2583L25.0987 22.7735C24.6292 22.3111 24.4117 22.029 24.4117 21.4642V21.298C24.4117 20.6905 24.7662 20.218 25.5692 20.218C26.3937 20.218 26.719 20.6229 26.719 21.3318V21.7295H25.9647V21.3077C25.9647 21.0256 25.8348 20.8877 25.5742 20.8877C25.3424 20.8877 25.1834 21.018 25.1834 21.2929V21.394C25.1834 21.669 25.3352 21.828 25.5742 22.0599L26.1022 22.5806C26.5502 23.0358 26.7672 23.3107 26.7672 23.8535V24.0933C26.7672 24.7664 26.4072 25.2431 25.5671 25.2431C24.7269 25.2431 24.4045 24.7736 24.4045 24.128Z" fill="white"/>
<path d="M27.0722 20.2814H29.2653V20.954H28.5842V25.1855H27.7525V20.954H27.0722V20.2814Z" fill="white"/>
<path d="M29.7192 20.2814H30.5441V25.1855H29.7192V20.2814Z" fill="white"/>
<path d="M30.9997 20.2814H33.191V20.954H32.5112V25.1855H31.6795V20.954H30.9997V20.2814Z" fill="white"/>
<path d="M36.041 20.2814V23.9921C36.041 24.751 35.7157 25.243 34.8768 25.243C34.0083 25.243 33.6475 24.751 33.6475 23.9921V20.2814H34.4716V24.0712C34.4716 24.361 34.5875 24.556 34.8768 24.556C35.1662 24.556 35.2817 24.3606 35.2817 24.0712V20.2814H36.041Z" fill="white"/>
<path d="M36.4903 20.2814H38.6817V20.954H38.0018V25.1855H37.1697V20.954H36.4903V20.2814Z" fill="white"/>
<path d="M39.1373 20.2814H39.9618V25.1855H39.1373V20.2814Z" fill="white"/>
<path d="M40.5113 23.9189V21.547C40.5113 20.7801 40.8874 20.2234 41.7551 20.2234C42.6227 20.2234 43.0077 20.7797 43.0077 21.547V23.9193C43.0077 24.6791 42.6312 25.243 41.7563 25.243C40.8815 25.243 40.5113 24.6783 40.5113 23.9185V23.9189ZM42.1823 24.0492V21.4163C42.1823 21.1198 42.052 20.91 41.7555 20.91C41.4589 20.91 41.3354 21.1198 41.3354 21.4163V24.0492C41.3354 24.3453 41.4657 24.5556 41.7555 24.5556C42.0457 24.5556 42.1823 24.3453 42.1823 24.0492Z" fill="white"/>
<path d="M44.2438 22.1038V25.1855H43.5479V20.2814H44.358L45.2481 23.0945V20.2814H45.9364V25.1855H45.2126L44.2438 22.1038Z" fill="white"/>
<path d="M46.4352 24.128V23.4681H47.2021V24.1407C47.2021 24.4157 47.3248 24.5747 47.607 24.5747C47.8676 24.5747 47.9835 24.4013 47.9835 24.1407V23.9529C47.9835 23.6707 47.8676 23.4969 47.6142 23.2583L47.1294 22.7735C46.6598 22.3111 46.4423 22.029 46.4423 21.4642V21.298C46.4423 20.6905 46.7968 20.218 47.5998 20.218C48.4243 20.218 48.7496 20.6229 48.7496 21.3318V21.7295H47.9974V21.3077C47.9974 21.0256 47.8676 20.8877 47.607 20.8877C47.3751 20.8877 47.2165 21.018 47.2165 21.2929V21.394C47.2165 21.669 47.368 21.828 47.607 22.0599L48.1349 22.5806C48.5829 23.0358 48.8004 23.3107 48.8004 23.8535V24.0933C48.8004 24.7664 48.4408 25.2431 47.6006 25.2431C46.7605 25.2431 46.4352 24.7736 46.4352 24.128Z" fill="white"/>
</svg>
