<svg width="61" height="61" viewBox="0 0 61 61" fill="none" xmlns="http://www.w3.org/2000/svg">
<path d="M0.363403 0.856689H60.3634V60.8567H0.363403V0.856689Z" fill="#A21942"/>
<path d="M12.0215 15.0231V13.7031C12.0215 12.5438 11.6116 11.7052 10.6651 11.2767C11.4674 10.8847 11.843 10.1707 11.843 9.17176V8.67142C11.843 6.78005 10.8622 5.76331 8.98811 5.76331C7.13307 5.76331 6.16791 6.78343 6.16791 8.67142V9.17176C6.16791 10.153 6.52783 10.8847 7.30817 11.2767C6.36246 11.7052 5.96954 12.5438 5.96954 13.7031V15.0231C5.96954 16.8599 6.8442 18.1431 8.986 18.1431C11.1456 18.1431 12.0189 16.8578 12.0189 15.0231H12.0211H12.0215ZM8.07539 8.54327C8.07539 7.81075 8.3262 7.38273 8.98642 7.38273C9.66356 7.38273 9.91394 7.81075 9.91394 8.54327V9.36335C9.91394 10.0946 9.66398 10.5243 8.98642 10.5243C8.32662 10.5243 8.07539 10.0946 8.07539 9.36335V8.54327ZM9.98753 15.2367C9.98753 15.9688 9.71981 16.486 8.98853 16.486C8.2746 16.486 8.00688 15.9688 8.00688 15.2367V13.2742C8.00688 12.543 8.2746 12.0253 8.98853 12.0253C9.72023 12.0253 9.98753 12.543 9.98753 13.2742V15.2367Z" fill="white"/>
<path d="M18.9519 7.19392V9.4651C18.9519 10.2175 18.6402 10.7813 17.7584 10.7813H16.4853V5.87732H17.7584C18.6402 5.87732 18.9519 6.43729 18.9519 7.1935V7.19392ZM17.6573 10.1088C17.9973 10.1088 18.1276 9.90664 18.1276 9.60974V7.04251C18.1276 6.75238 17.9973 6.55064 17.6573 6.55064H17.3096V10.1088H17.6573Z" fill="white"/>
<path d="M19.4726 5.87781H21.4397V6.55028H20.2998V7.95358H21.1174V8.61929H20.2969V10.1089H21.4367V10.7813H19.4726V5.87781Z" fill="white"/>
<path d="M21.8592 9.51587V7.14319C21.8592 6.37641 22.2187 5.81982 23.0883 5.81982C23.9998 5.81982 24.2531 6.32608 24.2531 7.04973V7.6283H23.5011V6.98417C23.5011 6.6805 23.4 6.50414 23.1035 6.50414C22.807 6.50414 22.6835 6.71391 22.6835 7.01039V9.6436C22.6835 9.94008 22.8062 10.1499 23.1035 10.1499C23.4004 10.1499 23.5011 9.96165 23.5011 9.66982V8.77023H24.2531V9.61696C24.2531 10.319 23.9638 10.8397 23.0883 10.8397C22.2132 10.8397 21.8592 10.2767 21.8592 9.51545V9.51587Z" fill="white"/>
<path d="M24.7526 5.87781H26.7197V6.55028H25.5799V7.95358H26.3974V8.61929H25.5769V10.1089H26.7168V10.7813H24.7526V5.87781Z" fill="white"/>
<path d="M27.9036 7.70024V10.7813H27.2116V5.87781H28.0237L28.9132 8.69119V5.87781H29.6004V10.7813H28.8759L27.9036 7.70024Z" fill="white"/>
<path d="M30.0251 5.87781H32.2172V6.55028H31.5371V10.7813H30.7052V6.55028H30.0251V5.87781Z" fill="white"/>
<path d="M35.2404 7.751L34.7777 10.7813H34.0037L33.3439 5.87781H34.1437L34.5269 8.98809H34.5341L34.9464 5.87781H35.6189L36.0744 8.98809H36.0816L36.4576 5.87781H37.1525L36.5135 10.7813H35.7335L35.2489 7.751H35.2404Z" fill="white"/>
<path d="M37.4825 9.51587V7.1432C37.4825 6.37641 37.8585 5.81982 38.7268 5.81982C39.5946 5.81982 39.9774 6.37683 39.9774 7.1432V9.51587C39.9774 10.2755 39.6014 10.8392 38.7268 10.8392C37.8521 10.8392 37.4825 10.2772 37.4825 9.51587ZM39.1531 9.64614V7.01251C39.1531 6.71603 39.0232 6.50625 38.7268 6.50625C38.4303 6.50625 38.3068 6.71603 38.3068 7.01251V9.64614C38.3068 9.94262 38.4366 10.1524 38.7268 10.1524C39.0165 10.1524 39.1531 9.94262 39.1531 9.64614Z" fill="white"/>
<path d="M41.3232 8.53216V10.7818H40.4989V5.87781H41.6988C42.5312 5.87781 42.8348 6.29017 42.8348 6.97702V7.60678C42.8348 8.1346 42.6466 8.44673 42.1746 8.55415L42.9638 10.7822H42.0972L41.3232 8.53259V8.53216ZM41.3232 6.55239V8.07877H41.5981C41.8811 8.07877 42.0037 7.93371 42.0037 7.67318V6.95291C42.0037 6.68519 41.8841 6.55535 41.5981 6.55535L41.3232 6.55239Z" fill="white"/>
<path d="M44.1586 8.39471V10.7813H43.3343V5.87781H44.1586V8.03267L45.0591 5.87781H45.8686L44.914 8.08385L45.8902 10.7839H45.0198L44.1586 8.39471Z" fill="white"/>
<path d="M47.0377 10.7813L47.9635 5.87732H48.9037L49.8371 10.7813H48.9908L48.839 9.88507H47.9639L47.8193 10.7813H47.0381H47.0377ZM48.0722 9.22614H48.732L48.4067 7.25863H48.3991L48.0722 9.22614Z" fill="white"/>
<path d="M50.8061 7.70024V10.7813H50.1112V5.87781H50.922L51.8115 8.69119V5.87781H52.4987V10.7813H51.7751L50.8061 7.70024Z" fill="white"/>
<path d="M55.5076 7.19392V9.4651C55.5076 10.2175 55.1963 10.7813 54.3136 10.7813H53.0435V5.87732H54.3162C55.1963 5.87732 55.5076 6.43729 55.5076 7.1935V7.19392ZM54.213 10.1088C54.5526 10.1088 54.6829 9.90664 54.6829 9.60974V7.04251C54.6829 6.75238 54.5526 6.55064 54.213 6.55064H53.8657V10.1088H54.213Z" fill="white"/>
<path d="M16.4849 13.08H18.4524V13.7524H17.3092V15.1557H18.1272V15.821H17.3092V17.3114H18.4524V17.9843H16.4849V13.08Z" fill="white"/>
<path d="M18.814 16.7186V14.3463C18.814 13.5795 19.174 13.0229 20.0435 13.0229C20.9546 13.0229 21.2079 13.5288 21.2079 14.252V14.831H20.4555V14.1869C20.4555 13.8828 20.3548 13.7068 20.0579 13.7068C19.7606 13.7068 19.6379 13.9166 19.6379 14.2131V16.8459C19.6379 17.1424 19.7606 17.3521 20.0579 17.3521C20.3548 17.3521 20.4555 17.1644 20.4555 16.8721V15.9725H21.2079V16.8167C21.2079 17.5183 20.9186 18.039 20.0435 18.039C19.168 18.039 18.814 17.4765 18.814 16.7177V16.7186Z" fill="white"/>
<path d="M21.6566 16.7186V14.3463C21.6566 13.5795 22.0326 13.0229 22.901 13.0229C23.7688 13.0229 24.1525 13.58 24.1525 14.3463V16.7186C24.1525 17.4782 23.776 18.0419 22.901 18.0419C22.0255 18.0419 21.6566 17.4773 21.6566 16.7186ZM23.3273 16.8484V14.2156C23.3273 13.9187 23.1974 13.7094 22.901 13.7094C22.6045 13.7094 22.481 13.9192 22.481 14.2156V16.8484C22.481 17.1449 22.6108 17.3547 22.901 17.3547C23.1907 17.3547 23.3273 17.1449 23.3273 16.8484Z" fill="white"/>
<path d="M25.3164 14.9028V17.9843H24.6223V13.08H25.4323L26.3222 15.8938V13.08H27.009V17.9843H26.2837L25.3164 14.9028Z" fill="white"/>
<path d="M27.4793 16.7186V14.3463C27.4793 13.5795 27.8558 13.0229 28.7232 13.0229C29.5903 13.0229 29.9747 13.58 29.9747 14.3463V16.7186C29.9747 17.4782 29.5983 18.0419 28.7232 18.0419C27.8477 18.0419 27.4793 17.4773 27.4793 16.7186ZM29.1504 16.8484V14.2156C29.1504 13.9187 29.0201 13.7094 28.7232 13.7094C28.4259 13.7094 28.3028 13.9192 28.3028 14.2156V16.8484C28.3028 17.1449 28.4331 17.3547 28.7232 17.3547C29.0129 17.3547 29.1504 17.1449 29.1504 16.8484Z" fill="white"/>
<path d="M32.7163 14.8013H32.6947L32.1368 17.9814H31.7537L31.1395 14.8013H31.1243V17.9814H30.4446V13.08H31.4047L31.9398 15.8396H31.9469L32.427 13.08H33.4696V17.9843H32.7163V14.8013Z" fill="white"/>
<path d="M33.9381 13.08H34.7625V17.9843H33.9381V13.08Z" fill="white"/>
<path d="M35.2235 16.7186V14.3463C35.2235 13.5795 35.5834 13.0229 36.4526 13.0229C37.364 13.0229 37.6174 13.5288 37.6174 14.252V14.831H36.867V14.1869C36.867 13.8828 36.766 13.7068 36.4695 13.7068C36.173 13.7068 36.0495 13.9166 36.0495 14.2131V16.8459C36.0495 17.1424 36.1721 17.3521 36.4695 17.3521C36.7664 17.3521 36.867 17.1644 36.867 16.8721V15.9725H37.6195V16.8167C37.6195 17.5183 37.3302 18.039 36.4551 18.039C35.5796 18.039 35.2231 17.4765 35.2231 16.7177L35.2235 16.7186Z" fill="white"/>
<path d="M40.2671 15.366H41.4391V17.9844H40.8462V17.4494C40.7375 17.8182 40.5057 18.0423 40.0578 18.0423C39.3485 18.0423 39.0233 17.4781 39.0233 16.7189V14.3467C39.0233 13.5799 39.3916 13.0233 40.2595 13.0233C41.171 13.0233 41.4387 13.5291 41.4387 14.2524V14.6863H40.6863V14.1877C40.6863 13.8836 40.5704 13.7076 40.2739 13.7076C39.9774 13.7076 39.8476 13.9174 39.8476 14.2139V16.8467C39.8476 17.1431 39.9673 17.3529 40.2523 17.3529C40.5201 17.3529 40.6575 17.2015 40.6575 16.8826V16.0173H40.2667V15.3664L40.2671 15.366Z" fill="white"/>
<path d="M42.7337 15.7373V17.9865H41.9086V13.08H43.1085C43.94 13.08 44.2441 13.4919 44.2441 14.1792V14.8085C44.2441 15.3363 44.0559 15.6489 43.5843 15.7563L44.3735 17.9843H43.5077L42.7337 15.7373ZM42.7337 13.7571V15.2835H43.0087C43.2908 15.2835 43.4134 15.1392 43.4134 14.8787V14.1504C43.4134 13.8827 43.2937 13.7524 43.0087 13.7524L42.7337 13.7575V13.7571Z" fill="white"/>
<path d="M44.6213 16.7186V14.3463C44.6213 13.5795 44.9973 13.0229 45.8656 13.0229C46.7335 13.0229 47.1163 13.58 47.1163 14.3463V16.7186C47.1163 17.4782 46.7407 18.0419 45.8656 18.0419C44.9901 18.0419 44.6213 17.4773 44.6213 16.7186ZM46.292 16.8484V14.2156C46.292 13.9187 46.1621 13.7094 45.8656 13.7094C45.5692 13.7094 45.4457 13.9192 45.4457 14.2156V16.8484C45.4457 17.1449 45.5755 17.3547 45.8656 17.3547C46.1554 17.3547 46.292 17.1449 46.292 16.8484Z" fill="white"/>
<path d="M49.2289 14.9531L48.7658 17.9843H47.9922L47.332 13.08H48.1297L48.5129 16.1902H48.5201L48.9324 13.08H49.6049L50.0609 16.1902H50.068L50.4445 13.08H51.1385L50.502 17.9843H49.7216L49.237 14.9531H49.2289Z" fill="white"/>
<path d="M51.3915 13.08H53.5836V13.7524H52.9035V17.9843H52.0716V13.7524H51.3915V13.08Z" fill="white"/>
<path d="M55.4568 15.821H54.6633V17.9814H53.8361V13.08H54.6633V15.1557H55.4589V13.08H56.2904V17.9843H55.4568V15.821Z" fill="white"/>
<path d="M41.8138 30.1933L35.6786 36.0298C35.4476 36.2599 35.3284 36.4295 35.3284 36.9057V53.2616C35.3284 53.454 35.4849 53.6105 35.6786 53.6105H42.0156C42.2093 53.6105 42.3641 53.454 42.3641 53.2616V30.3405C42.3641 30.1468 42.2144 29.7949 41.8134 30.1933H41.8138Z" fill="white"/>
<path d="M24.1393 37.7968L18.0032 43.6321C17.7731 43.8622 17.6526 44.0318 17.6526 44.508V53.2619C17.6526 53.4535 17.8108 53.6096 18.0032 53.6096H24.3411C24.5352 53.6096 24.69 53.4535 24.69 53.2619V37.9436C24.69 37.7494 24.5377 37.3967 24.1393 37.7964V37.7968Z" fill="white"/>
<path d="M44.6019 23.1159C44.6044 23.0689 44.5871 23.0194 44.5499 22.9822C44.5177 22.9513 44.4763 22.9365 44.4361 22.9327L44.4027 22.9353L44.3532 22.9378L39.656 23.9968L39.5701 24.0074C39.5354 24.0129 39.5033 24.0303 39.4779 24.0539C39.4081 24.1237 39.4081 24.2375 39.4779 24.3069L39.5312 24.3602L40.6034 25.4327L29.9582 36.0764L25.0423 31.1597C24.9861 31.1047 24.8981 31.1047 24.8419 31.1597L23.5087 32.4941C23.5075 32.4941 23.5075 32.4954 23.5075 32.4954L15.6259 40.3751C15.5709 40.4318 15.5709 40.5227 15.6259 40.576L16.9615 41.9116C17.0165 41.9666 17.1049 41.9666 17.1595 41.9116L24.9429 34.1292L28.5109 37.6983C28.5147 37.7038 28.5164 37.7089 28.5215 37.7144L29.8559 39.0488C29.9109 39.1037 30.0001 39.1037 30.0568 39.0488L42.137 26.9676L43.2641 28.0922C43.3335 28.1632 43.4456 28.1632 43.5154 28.0922C43.5471 28.0604 43.5636 28.0203 43.5661 27.9771L43.5674 27.9623L44.5985 23.1679L44.6011 23.1154V23.115L44.6019 23.1159Z" fill="white"/>
<path d="M33.0115 38.8203L30.0433 41.8126C29.9866 41.8592 29.9041 41.8583 29.8517 41.8059L27.1626 39.0652C26.6694 38.5746 26.5633 38.9718 26.5633 39.1642V53.262C26.5633 53.4536 26.7185 53.6096 26.9109 53.6096H33.2509C33.4425 53.6096 33.5986 53.4531 33.5986 53.262V38.9303C33.5986 38.7387 33.4476 38.3847 33.0115 38.8208V38.8203Z" fill="white"/>
</svg>
