<svg width="60" height="61" viewBox="0 0 60 61" fill="none" xmlns="http://www.w3.org/2000/svg">
<path d="M0.000125885 0.857422H60.0001V60.8574H0.000125885V0.857422Z" fill="#E5243B"/>
<path d="M17.948 7.64853V10.7306H17.2531V5.8252H18.0622L18.9533 8.64035V5.8252H19.641V10.7306H18.9174L17.948 7.64853Z" fill="white"/>
<path d="M21.4272 10.7895C22.3039 10.7895 22.6787 10.2253 22.6787 9.46482V7.09165C22.6787 6.32358 22.3039 5.76782 21.4272 5.76782C20.5508 5.76782 20.1828 6.324 20.1828 7.09165V9.46482C20.1828 10.2253 20.5593 10.7895 21.4272 10.7895ZM21.0072 6.96096C21.0072 6.66109 21.1374 6.45511 21.4272 6.45511C21.7173 6.45511 21.8543 6.66405 21.8543 6.96096V9.59509C21.8543 9.89538 21.7236 10.1014 21.4272 10.1014C21.1307 10.1014 21.0072 9.892 21.0072 9.59509V6.96096Z" fill="white"/>
<path d="M18.0778 16.3158H18.475C19.3078 16.3158 19.6114 15.8958 19.6114 15.2085V14.1769C19.6114 13.4892 19.3078 13.0764 18.475 13.0764H17.2531V17.9826H18.0778V16.3154V16.3158ZM18.0778 13.7472H18.3815C18.6645 13.7472 18.7867 13.8779 18.7867 14.1452V15.2732C18.7867 15.5418 18.6666 15.6792 18.3815 15.6792H18.0778V13.7472Z" fill="white"/>
<path d="M21.3476 18.0376C22.2244 18.0376 22.6 17.4734 22.6 16.7142V14.3398C22.6 13.573 22.2244 13.0164 21.3476 13.0164C20.4713 13.0164 20.1033 13.5734 20.1033 14.3398V16.7142C20.1033 17.4738 20.4797 18.0376 21.3476 18.0376ZM20.9277 14.2099C20.9277 13.91 21.0571 13.7036 21.3476 13.7036C21.6382 13.7036 21.7757 13.9134 21.7757 14.2099V16.8436C21.7757 17.1405 21.645 17.3503 21.3476 17.3503C21.0507 17.3503 20.9277 17.1405 20.9277 16.8436V14.2099Z" fill="white"/>
<path d="M24.705 17.9801L25.6385 13.0739H24.864L24.285 16.4959H24.277L23.7132 13.0739H22.8741L23.8075 17.9801H24.705Z" fill="white"/>
<path d="M28.0188 17.3076H26.876V15.8158H27.6931V15.1505H26.876V13.7468H28.0188V13.0739H26.0508V17.9801H28.0188V17.3076Z" fill="white"/>
<path d="M29.3494 15.7291L30.1234 17.98H30.9926L30.2034 15.7511C30.6737 15.6432 30.8632 15.3311 30.8632 14.8033V14.1773C30.8632 13.4896 30.5591 13.0768 29.7267 13.0768H28.5268V17.983H29.3524L29.3494 15.7291ZM29.3494 13.7493H29.6239C29.9064 13.7493 30.0295 13.88 30.0295 14.1468V14.8671C30.0295 15.1281 29.9064 15.2719 29.6239 15.2719H29.3494V13.7493Z" fill="white"/>
<path d="M31.8888 17.9801H32.7212V13.7468H33.4013V13.0739H31.2083V13.7468H31.8888V17.9801Z" fill="white"/>
<path d="M34.6376 17.9801H35.4623V16.1132L36.3738 13.0739H35.5854L35.0871 14.9331H35.08L34.58 13.0739H33.7193L34.6376 16.1132V17.9801Z" fill="white"/>
<path d="M8.37706 8.74833H8.39525V18.0088H10.4288V5.91077H8.80466L6.93184 8.10587V10.2287H6.95003L8.37706 8.74833Z" fill="white"/>
<path d="M46.2078 29.4825C46.2086 28.5664 46.9517 27.8237 47.8678 27.8237C48.7848 27.8237 49.5279 28.5669 49.5279 29.4838C49.5279 30.3999 48.7856 31.143 47.8695 31.1439C46.9517 31.1439 46.2078 30.3999 46.2073 29.4821L46.2078 29.4825Z" fill="white"/>
<path d="M49.8092 31.7843C50.9477 31.8891 51.8194 32.8446 51.8194 33.9878C51.8194 33.9887 51.8194 33.9895 51.8194 33.9899V38.5967C51.8194 38.9524 51.531 39.2404 51.1753 39.2404C50.82 39.2404 50.5316 38.9524 50.5316 38.5967V34.6396C50.5316 34.4911 50.4893 34.2907 50.2177 34.2907C50.0299 34.2907 49.991 34.4894 49.9843 34.6159V46.4682C49.9843 46.9796 49.5698 47.394 49.0589 47.394C48.5475 47.394 48.133 46.9796 48.133 46.4682V39.6384C48.133 39.5627 48.1055 39.3669 47.8704 39.3669C47.6348 39.3669 47.6056 39.5623 47.6035 39.6384V46.4682C47.6035 46.4762 47.6035 46.4843 47.6035 46.4919C47.6035 47.0024 47.189 47.4169 46.6781 47.4169C46.1676 47.4169 45.7531 47.0024 45.7531 46.4919C45.7531 46.4839 45.7531 46.4758 45.7531 46.4682V34.6159C45.7476 34.4894 45.7066 34.2907 45.5205 34.2907C45.2485 34.2907 45.2066 34.4911 45.2066 34.6396V38.5967C45.1918 38.941 44.9085 39.2125 44.5633 39.2125C44.2186 39.2125 43.9352 38.9406 43.9204 38.5967V33.9899V33.9891C43.9204 32.8446 44.7934 31.8879 45.9333 31.7838C45.973 31.7779 46.0132 31.7741 46.0534 31.7737H49.6806C49.7225 31.7741 49.7652 31.7779 49.8071 31.7838H49.8092V31.7843Z" fill="white"/>
<path d="M36.3298 30.3551C36.3298 29.4872 35.6256 28.783 34.7572 28.783C33.8894 28.783 33.1851 29.4872 33.1851 30.3555C33.1851 31.2238 33.8894 31.9276 34.7572 31.9276C34.7577 31.9276 34.7585 31.9276 34.7589 31.9276C35.6264 31.9272 36.3302 31.2234 36.3302 30.3555C36.3302 30.3551 36.3302 30.3551 36.3302 30.3546L36.3298 30.3551Z" fill="white"/>
<path d="M31.5889 33.9171L30.2816 38.1771C30.2816 38.1771 30.049 38.957 30.7105 39.152C31.3724 39.3474 31.5691 38.5856 31.5691 38.5856L32.623 35.0329C32.623 35.0329 32.6831 34.7592 32.8857 34.8188C33.0883 34.8785 33.0143 35.1699 33.0143 35.1699L31.1795 41.8301H32.8861V46.598C32.8984 47.0417 33.2617 47.3957 33.7058 47.3957C34.1495 47.3957 34.5132 47.0421 34.525 46.598V41.8246H34.9907V46.5925C35.0026 47.0366 35.3663 47.3902 35.8104 47.3902C36.2545 47.3902 36.6182 47.0366 36.6301 46.5925V41.8246H38.3358L36.5023 35.1644C36.5023 35.1644 36.4245 34.8772 36.6301 34.8167C36.8352 34.7567 36.8927 35.0307 36.8927 35.0307L37.9467 38.5835C37.9467 38.5835 38.1472 39.3448 38.8049 39.1498C39.4626 38.9549 39.2337 38.1766 39.2337 38.1766L37.9264 33.9167C37.9264 33.9167 37.4595 32.6859 36.4262 32.6859H33.0912C32.0567 32.6859 31.5915 33.9167 31.5915 33.9167H31.5885L31.5889 33.9171Z" fill="white"/>
<path d="M26.9094 30.3551C26.909 29.4872 26.2048 28.783 25.3369 28.783C24.4686 28.783 23.7644 29.4872 23.7644 30.3555C23.7644 31.2238 24.4686 31.9276 25.3369 31.9276H25.3373C26.2056 31.9272 26.9094 31.223 26.9094 30.3546V30.3551Z" fill="white"/>
<path d="M22.1677 33.9172L20.8608 38.1771C20.8608 38.1771 20.6269 38.957 21.2893 39.152C21.952 39.3474 22.1479 38.5857 22.1479 38.5857L23.2023 35.0329C23.2023 35.0329 23.259 34.7593 23.4649 34.8189C23.6709 34.8785 23.5927 35.17 23.5927 35.17L21.7583 41.8301H23.4649V46.598C23.4649 47.0506 23.832 47.4177 24.2846 47.4177C24.7372 47.4177 25.1043 47.0506 25.1043 46.598V41.8242L25.5699 41.8246V46.5925C25.5822 47.0362 25.9451 47.3902 26.3896 47.3902C26.8333 47.3902 27.1966 47.0366 27.2089 46.5925V41.8246H28.9159L27.0824 35.1645C27.0824 35.1645 27.0042 34.8722 27.2089 34.8134C27.4136 34.7546 27.4724 35.0274 27.4724 35.0274L28.5259 38.5802C28.5259 38.5802 28.726 39.3415 29.3845 39.1465C30.0426 38.9511 29.813 38.1771 29.813 38.1771L28.5056 33.9172C28.5056 33.9172 28.0395 32.6864 27.0054 32.6864H23.6713C22.6376 32.6864 22.1686 33.9172 22.1686 33.9172H22.1677Z" fill="white"/>
<path d="M41.6128 39.1583C42.3357 39.1583 42.9219 38.5721 42.9219 37.8493C42.9219 37.1265 42.3357 36.5403 41.6128 36.5403C40.8904 36.5403 40.3038 37.1261 40.3038 37.8485C40.3038 37.8493 40.3038 37.8502 40.3038 37.8506C40.3038 38.573 40.8896 39.1588 41.6116 39.1588C41.612 39.1588 41.6128 39.1588 41.6133 39.1588L41.6128 39.1583Z" fill="white"/>
<path d="M38.4737 43.225C38.4098 43.3781 38.3574 43.705 38.6649 43.8442C39.0244 44.01 39.2257 43.664 39.2257 43.664L39.9371 41.3945C39.9371 41.3945 40.0606 41.2426 40.0606 41.4V46.7431H40.0636C40.0746 47.1064 40.3719 47.3948 40.7352 47.3948C41.0985 47.3948 41.3963 47.106 41.4069 46.7431V44.6313C41.4069 44.6313 41.3679 44.3314 41.6086 44.3314C41.8493 44.3314 41.8112 44.6313 41.8112 44.6313V46.7405C41.8112 47.1119 42.1123 47.4135 42.4845 47.4135C42.8563 47.4135 43.1579 47.1123 43.1579 46.7401V41.397C43.1579 41.2401 43.2408 41.3522 43.2408 41.3522L43.7986 42.9057C43.7986 42.9057 44.0384 43.6001 44.1154 43.6306C44.1755 43.6556 44.2406 43.6687 44.3058 43.6687C44.5062 43.6687 44.6873 43.5477 44.7638 43.3625C44.79 43.3015 44.8036 43.2356 44.8036 43.1692C44.8036 43.066 44.771 42.9661 44.7105 42.8824L44.7156 42.8773C44.6991 42.827 43.8815 40.8218 43.7855 40.5405C43.4907 39.6781 42.9527 39.6862 42.4359 39.6718C41.9186 39.6574 41.6086 39.6718 41.6086 39.6718C41.6086 39.6718 41.2783 39.6587 40.5948 39.6781C39.9113 39.698 39.6948 40.0495 38.944 41.9858C38.8366 42.2649 38.4737 43.1666 38.4686 43.2208L38.4737 43.2241V43.225Z" fill="white"/>
<path d="M11.1998 31.1444C11.2002 31.1444 11.2011 31.1444 11.2015 31.1444C12.1193 31.1444 12.8633 30.4004 12.8633 29.4826C12.8633 28.5653 12.1193 27.8213 11.2015 27.8213C10.2841 27.8213 9.54017 28.5653 9.54017 29.4826C9.54101 30.3992 10.2833 31.1423 11.1998 31.1444Z" fill="white"/>
<path d="M13.1534 31.7757C13.1094 31.7668 13.0646 31.7605 13.0202 31.7571H9.39002C9.34984 31.7605 9.30966 31.7664 9.27033 31.7757C8.13133 31.884 7.26005 32.8411 7.26005 33.986C7.26005 33.9877 7.26005 33.9894 7.26005 33.9907V38.5974C7.26005 38.5991 7.26005 38.6004 7.26005 38.6017C7.26005 38.8373 7.38947 39.0534 7.59672 39.165C7.58741 39.1828 7.58022 39.2018 7.57515 39.2217L6.09905 47.0399C6.09609 47.0556 6.09398 47.0716 6.09398 47.0881C6.09398 47.2045 6.17772 47.3038 6.29234 47.3241C6.30672 47.3267 6.3211 47.3284 6.33591 47.3284C6.33633 47.3284 6.33675 47.3284 6.3376 47.3284H6.33844C6.4556 47.3284 6.55584 47.2451 6.57741 47.1296L8.05223 39.3118C8.05266 39.3042 8.05308 39.297 8.05308 39.2894C8.05308 39.2661 8.0497 39.2433 8.04335 39.2209C8.32419 39.1481 8.52002 38.8943 8.52002 38.6042C8.52002 38.6025 8.52002 38.5996 8.52002 38.5979V34.6407C8.52002 34.4923 8.55893 34.2918 8.83046 34.2918C9.01783 34.2918 9.06012 34.4906 9.06012 34.6171V46.4694C9.06012 46.9828 9.47673 47.3994 9.99019 47.3994C10.5032 47.3994 10.9198 46.9828 10.9198 46.4694V39.6396C10.9198 39.6379 10.9198 39.6366 10.9198 39.6349C10.9198 39.4924 11.0353 39.3769 11.1778 39.3769C11.185 39.3769 11.1922 39.3774 11.1994 39.3782C11.435 39.3782 11.4591 39.5639 11.4591 39.6396V46.4694C11.4591 46.9828 11.8757 47.3994 12.3892 47.3994C12.9026 47.3994 13.3188 46.9828 13.3188 46.4694V34.6171C13.3188 34.4906 13.3632 34.2918 13.5485 34.2918C13.8217 34.2918 13.8589 34.4923 13.8589 34.6407V38.5979C13.8589 38.962 14.1545 39.2577 14.5187 39.2577C14.8833 39.2577 15.1785 38.962 15.1785 38.5979V33.9911C15.173 32.8419 14.2967 31.8835 13.1526 31.7765V31.7761L13.1534 31.7757Z" fill="white"/>
<path d="M19.5696 41.3218L20.7843 39.117C20.7843 39.117 20.9306 38.8002 20.9306 38.7245C20.9264 38.4627 20.7132 38.2521 20.4506 38.2521C20.2877 38.2521 20.1355 38.335 20.0471 38.472H20.0416C20.0031 38.505 19.3919 39.5899 19.1902 39.792C18.977 40.0073 18.7858 39.9802 18.7858 39.9802H17.1994C17.1994 39.9802 17.0073 40.0073 16.795 39.792C16.5907 39.5903 15.9825 38.5037 15.9432 38.472L15.939 38.4758C15.8501 38.3413 15.7 38.2601 15.5389 38.2601C15.28 38.2601 15.0677 38.4652 15.0588 38.7241C15.0656 38.7951 15.0817 38.8658 15.1058 38.9334L16.4224 41.3223C16.4677 41.4217 16.4939 41.5287 16.5002 41.6374V42.1077L15.8087 44.6576L16.4985 44.6581V46.758H16.5078C16.5112 47.1175 16.8043 47.4077 17.1643 47.4077C17.1659 47.4077 17.1685 47.4077 17.1702 47.4077C17.5255 47.4077 17.8147 47.1213 17.8186 46.7665V44.7427C17.8029 44.7232 17.7944 44.6995 17.7944 44.6746C17.7944 44.6691 17.7949 44.6636 17.7961 44.6581L18.1861 44.6585C18.1869 44.6669 18.1878 44.675 18.1878 44.6839C18.1878 44.7037 18.1848 44.7236 18.1789 44.7431V46.7669C18.1789 47.131 18.4741 47.4267 18.8387 47.4267C19.2029 47.4267 19.4985 47.131 19.4985 46.7669V44.6581L20.1757 44.6585L19.4985 42.0933V41.6378C19.5036 41.5299 19.5273 41.4229 19.5683 41.3227L19.5696 41.3218Z" fill="white"/>
<path d="M17.9928 39.1583H17.9932C18.7165 39.1583 19.3023 38.5721 19.3023 37.8493C19.3023 37.1265 18.7161 36.5403 17.9932 36.5403C17.2708 36.5403 16.6846 37.1261 16.6842 37.8485C16.6842 37.8493 16.6842 37.8502 16.6842 37.8506C16.6842 38.573 17.2704 39.1588 17.9924 39.1588C17.9928 39.1588 17.9928 39.1588 17.9932 39.1588L17.9928 39.1583Z" fill="white"/>
</svg>
