<svg width="61" height="60" viewBox="0 0 61 60" fill="none" xmlns="http://www.w3.org/2000/svg">
<path d="M0.436234 60H60.4362V0H0.436234V60Z" fill="#00973B"/>
<path d="M51.0266 37.4873C51.0266 35.7982 49.9432 34.4297 48.3025 34.4297C47.4819 34.4297 46.4916 35.3272 45.9549 35.8817C45.4182 35.3272 44.4933 34.428 43.6727 34.428C42.0312 34.428 40.8824 35.7966 40.8824 37.4873C40.8824 38.3308 41.2148 39.0958 41.7528 39.6503L45.9591 43.8643L50.1587 39.6541L50.1561 39.6515C50.6941 39.0975 51.027 38.332 51.027 37.4881V37.4873H51.0266Z" fill="white"/>
<path d="M33.1188 50.7457C33.105 50.7457 33.0899 50.7457 33.0752 50.7444C32.7553 50.7247 32.492 50.4873 32.4375 50.1715L30.3021 37.725L27.0647 43.7266C26.9226 43.9891 26.6274 44.1313 26.3369 44.0793C26.0425 44.0265 25.8161 43.7928 25.7738 43.4976L24.3993 33.8901L21.887 39.5386C21.7746 39.7877 21.528 39.9484 21.2551 39.9484H11.487C11.1054 39.9484 10.7947 39.6384 10.7947 39.2576C10.7947 38.8759 11.105 38.5668 11.487 38.5668H20.8069L24.1134 31.1383C24.2392 30.8556 24.5352 30.6924 24.8396 30.7335C25.1444 30.7772 25.3842 31.0158 25.4278 31.3195L26.8438 41.2251L30.0358 35.3057C30.175 35.0457 30.4639 34.9039 30.7553 34.9526C31.0459 34.9991 31.2748 35.226 31.3255 35.5158L33.3037 47.0447L40.5134 23.0844C40.5972 22.811 40.8371 22.6159 41.1205 22.5954C41.4052 22.574 41.6748 22.7267 41.796 22.9825L45.5901 30.8514C45.7566 31.1945 45.6127 31.6085 45.2693 31.7741C44.926 31.9398 44.5125 31.7951 44.3469 31.452L41.3239 25.1837L33.78 50.2529C33.6912 50.5456 33.4211 50.7444 33.1184 50.7444L33.1192 50.7449L33.1188 50.7457Z" fill="white"/>
<path d="M9.43538 17.2708C11.4874 17.2708 12.3796 16.1824 12.3796 14.5034V12.72C12.3796 11.6139 11.8987 10.8997 10.8819 10.6673C11.7197 10.3997 12.2723 9.72023 12.2723 8.70353V7.65035C12.2723 5.93741 11.4522 4.88464 9.57878 4.88464C7.47186 4.88464 6.7423 6.1337 6.7423 7.91711V8.98833H8.59681V7.75772C8.59681 7.00695 8.83035 6.58039 9.47144 6.58039C10.1142 6.58039 10.3457 7.00695 10.3457 7.66755V8.97113C10.3457 9.61411 9.91756 9.95301 9.25844 9.95301H8.48947V11.507H9.34733C10.0605 11.507 10.3457 11.8455 10.3457 12.4889V14.487C10.3457 15.13 10.061 15.5754 9.43622 15.5754C8.7402 15.5754 8.48947 15.1116 8.48947 14.3981V12.6663H6.63496V14.2547C6.63496 16.0939 7.36662 17.2712 9.4358 17.2712L9.43496 17.2703L9.43538 17.2708Z" fill="white"/>
<path d="M22.3687 10.3829C20.6861 10.0407 19.5968 9.31675 19.0975 8.20946H18.2811V9.70556L19.7285 9.3092V9.86998C19.2622 9.99497 18.7796 10.1338 18.2811 10.2907C18.0928 10.3368 17.9297 10.3993 17.7905 10.4773L17.4392 9.98658C17.5943 9.87627 17.6647 9.70556 17.6484 9.47194V5.47563H19.6119C19.5972 5.44375 19.5813 5.39762 19.5654 5.33512C19.4874 5.14848 19.4333 5.0151 19.4027 4.93876L20.1025 4.84607L20.3369 5.47605H22.0891V8.2103H21.9951L22.3448 8.58443C22.0497 8.7413 21.5666 8.99044 20.8975 9.33227C21.3482 9.55121 21.9566 9.7064 22.7188 9.80035C22.6102 9.98742 22.4933 10.182 22.3691 10.3838V10.3834L22.3687 10.3829ZM18.2803 6.59718H21.4819V6.01334H18.2803V6.59718ZM18.2803 7.67259H21.4819V7.08791H18.2803V7.67259ZM20.4069 9.00428C20.8895 8.7564 21.3641 8.4909 21.8316 8.20946H19.7276C19.9306 8.50684 20.1562 8.77066 20.4065 9.00428H20.4069Z" fill="white"/>
<path d="M23.5331 10.4303C23.4086 10.3053 23.2681 10.1493 23.1113 9.96224C23.5796 9.61999 23.931 9.28445 24.1629 8.95729C23.9918 8.81804 23.744 8.5991 23.4165 8.30382C23.3847 8.27195 23.3608 8.2493 23.3461 8.23336C23.4228 7.90579 23.5406 7.35256 23.6958 6.5741H23.2052V5.98942H23.7897C23.8358 5.61529 23.8824 5.24913 23.9302 4.89136L24.5595 4.93749C24.5448 5.06248 24.5134 5.25752 24.4668 5.52092C24.4354 5.73986 24.4127 5.89631 24.3964 5.98942H25.3779V6.5741C25.3155 7.57024 25.1524 8.31892 24.8874 8.81762C25.1989 9.08144 25.4941 9.331 25.7754 9.56546L25.3075 9.98573C25.2304 9.90772 25.0983 9.79111 24.9113 9.63425C24.7708 9.50968 24.6622 9.41698 24.5838 9.35449C24.365 9.66612 24.0148 10.0243 23.5322 10.4299H23.5318L23.5331 10.4303ZM23.9771 8.06978L24.4434 8.44349C24.6463 7.97541 24.7708 7.35214 24.8174 6.57326H24.3042C24.2564 6.77501 24.1943 7.06399 24.1159 7.4377C24.0551 7.71746 24.0073 7.92844 23.9767 8.06936L23.9771 8.06978ZM25.5893 7.99932V7.41464H26.9436V6.71335L27.8782 5.77845H25.8002V5.1946H28.6501V5.82458L27.5989 6.90168V7.41464H28.8132V7.99932H27.5989V9.6116C27.6136 10.125 27.3499 10.3821 26.8048 10.3821H26.0333C26.0333 10.3515 26.0249 10.2969 26.0094 10.2189C25.9633 9.99999 25.9314 9.86116 25.9167 9.79866H26.57C26.8354 9.79866 26.9599 9.67367 26.944 9.42453V7.99932H25.5897H25.5893Z" fill="white"/>
<path d="M17.6027 17.9326V14.9873C17.5708 15.0653 17.51 15.1819 17.4157 15.3371C17.3377 15.4936 17.2756 15.6106 17.2291 15.6886C17.183 15.4395 17.1205 15.1899 17.0425 14.9408C17.432 14.2395 17.7436 13.3826 17.9771 12.3693L18.5377 12.4632C18.4127 12.9141 18.2807 13.3423 18.1402 13.7483V17.9317H17.6031V17.9326H17.6027ZM19.4253 16.7401C19.6891 17.0518 20.157 17.2241 20.8262 17.2548C21.0756 17.2707 21.3406 17.2774 21.6215 17.2774H22.7419C22.6958 17.4024 22.6413 17.5731 22.5788 17.792C22.0643 17.792 21.5197 17.7761 20.9431 17.7455C20.1171 17.714 19.5339 17.5429 19.1905 17.2313C19.0048 17.4502 18.7859 17.6914 18.5373 17.9552C18.5213 17.9246 18.4911 17.8772 18.4446 17.816C18.3507 17.6754 18.2802 17.5588 18.2337 17.4649C18.4991 17.2468 18.6924 17.0207 18.8182 16.7871C18.6454 16.5535 18.4828 16.1638 18.3264 15.6173L18.7482 15.3615C18.8253 15.689 18.9259 15.9852 19.0517 16.2502C19.1444 16.0158 19.2148 15.627 19.2626 15.0809H18.4446V14.5436L19.2387 13.3759H18.5377V12.8613H19.7993V13.3994L19.0278 14.5671H19.7754V14.8007C19.7289 15.6425 19.6123 16.2884 19.4257 16.7405L19.4253 16.7401ZM19.8215 14.169V13.7249H20.8262V13.3046H20.0563V12.8843H20.8262V12.3697H21.3645V12.8843H22.3918V13.7249H22.7192V14.169H22.3918V15.0108H21.3645V15.3833H22.4622V15.8291H21.3645V16.2255H22.5561V16.6697H21.3645V17.2543H20.8262V16.6697H19.8454V16.2255H20.8262V15.8291H19.962V15.3833H20.8262V15.0108H20.032V14.5666H20.8262V14.169H19.8215ZM21.9012 13.3046H21.3645V13.7265H21.9012V13.3046ZM21.3645 14.5666H21.9012V14.169H21.3645V14.5666Z" fill="white"/>
<path d="M23.627 17.9791C23.5805 17.9476 23.518 17.8931 23.44 17.8159C23.2995 17.7061 23.1976 17.6293 23.1364 17.5815C23.3545 17.2233 23.4945 16.881 23.557 16.5539C23.619 16.2423 23.6509 15.7595 23.6509 15.1043V12.8369H25.9163C25.9004 12.7904 25.8781 12.7136 25.8475 12.6033C25.8157 12.5106 25.7914 12.4401 25.7758 12.3923L26.5012 12.3231C26.5159 12.3697 26.5394 12.4636 26.5716 12.6029C26.6023 12.7132 26.6257 12.7895 26.6421 12.8365H28.6744V13.3507H26.6182V13.7727H28.2542V14.5671H28.7909V15.0112H28.2542V15.8522H28.2303L28.5578 16.2498C28.2773 16.4209 27.9511 16.5996 27.5771 16.7879C27.8727 16.9737 28.261 17.1369 28.7444 17.2787L28.4408 17.7694C27.5062 17.4259 26.8991 17.0362 26.6182 16.5996V17.2313C26.6501 17.6675 26.4463 17.886 26.0115 17.886C25.8865 17.9007 25.6526 17.9086 25.31 17.9086C25.2786 17.7539 25.2396 17.5886 25.1935 17.4179H25.7079C25.9557 17.4326 26.0735 17.3399 26.0576 17.1369V16.881C25.9327 16.9276 25.7377 17.006 25.4731 17.1147C24.9603 17.2858 24.5704 17.4263 24.3058 17.5354L24.0723 17.0689C24.1507 17.0371 24.266 16.9985 24.4224 16.9519C24.7339 16.8433 24.967 16.7573 25.1234 16.6948C25.061 16.6629 24.975 16.6088 24.8664 16.53C24.6329 16.3907 24.4605 16.2888 24.3519 16.2267L24.6555 15.8765C24.9058 16.0015 25.1859 16.1563 25.497 16.3429L25.24 16.6705C25.3805 16.6084 25.5834 16.53 25.8488 16.4373C25.9415 16.4054 26.0119 16.3828 26.058 16.3668V15.8522H24.5628V15.408H26.058V15.0117H24.2354V15.1509C24.2354 15.8375 24.1972 16.3668 24.1188 16.7405C24.0262 17.1306 23.8618 17.5429 23.6283 17.9791L23.6278 17.9795L23.627 17.9791ZM24.6077 14.1933V13.7727H26.0568V13.3507H24.2341V14.5666H26.0568V14.1929H24.6077V14.1933ZM27.6928 14.1933H26.6194V14.5671H27.6928V14.1933ZM26.6178 15.408H27.6916V15.0104H26.6178V15.408ZM26.6643 15.8518C26.8354 16.1009 26.9993 16.3039 27.1549 16.4604C27.5607 16.2414 27.9104 16.0384 28.2073 15.8518H26.6643Z" fill="white"/>
<path d="M29.2316 15.8531H33.297V16.4604H29.2316V15.8531ZM31.8245 17.8617C31.8086 17.6591 31.762 17.4494 31.684 17.2321C32.058 17.2468 32.4463 17.2548 32.8513 17.2548C33.3972 17.2707 33.6693 17.0677 33.6693 16.6475C33.7314 16.1328 33.7633 15.6182 33.7633 15.1052H30.001L30.2354 12.371H30.9109L30.8404 13.1415H34.7893V13.7501H30.7943L30.7255 14.5201H34.4861C34.4702 14.8636 34.432 15.4391 34.3696 16.2494C34.3536 16.4684 34.3457 16.6311 34.3457 16.7414C34.3457 17.5035 33.9255 17.8776 33.0849 17.8617H31.8232H31.8241H31.8245Z" fill="white"/>
<path d="M35.4417 16.2725C35.3951 16.0553 35.3327 15.8283 35.2547 15.5947C35.8153 15.1585 36.2517 14.6217 36.5633 13.9824H35.3717V13.4439H36.3524C36.2597 13.2891 36.1033 13.0316 35.8861 12.6738C35.8702 12.6432 35.8547 12.6193 35.84 12.6034L36.3306 12.3236C36.3612 12.3702 36.4157 12.4553 36.4937 12.5795C36.6966 12.8605 36.8211 13.048 36.8677 13.1419L36.4014 13.4443H37.1478V14.0068C36.993 14.3331 36.822 14.638 36.635 14.9178V14.9882L36.7293 14.8704C36.9146 14.9962 37.1255 15.1753 37.3587 15.4085V15.2453H40.7469V17.9557H40.1863V17.652H37.9436V17.9557H37.3591V15.5247L37.0794 15.8988C37.0329 15.8363 36.9624 15.7583 36.8685 15.6652C36.7599 15.5566 36.6819 15.4785 36.635 15.432V17.9326H36.0744V15.6425C35.9494 15.7977 35.739 16.0087 35.4434 16.2725L35.4425 16.2721L35.4417 16.2725ZM37.2404 12.6273H40.8844V13.0937H37.2404V12.6273ZM37.6144 13.4439H40.4882V14.8695H37.6144V13.4439ZM37.9419 16.2499H38.7826V15.6891H37.9419V16.2499ZM37.9419 17.2544H38.7826V16.6697H37.9419V17.2544ZM38.1993 14.427H39.9058V13.8902H38.1993V14.427ZM40.1851 15.6895H39.3209V16.2503H40.1851V15.6895ZM39.3209 17.2544H40.1851V16.6697H39.3209V17.2544Z" fill="white"/>
<path d="M43.3121 16.1798L42.7037 15.4558V17.933H42.1444V15.7356C42.0966 15.7822 42.0266 15.8459 41.9339 15.9227C41.7624 16.0791 41.6224 16.2037 41.5134 16.2968C41.4803 16.0951 41.4195 15.8761 41.3268 15.6429C41.9339 15.2067 42.3847 14.6766 42.6811 14.0533H41.4656V13.516H42.4471C42.2614 13.157 42.0891 12.8608 41.9343 12.6272L42.4471 12.3701C42.5251 12.4787 42.6417 12.6658 42.7985 12.9309C42.8765 13.0714 42.939 13.1721 42.9851 13.2346L42.4706 13.5156H43.2886V14.0763C43.1176 14.4505 42.9226 14.7856 42.7042 15.0813V15.4311L43.0555 15.1279C43.3046 15.3611 43.5218 15.588 43.7088 15.8052L43.3125 16.1794L43.3121 16.1798ZM43.1255 17.6755V17.1386H43.8266V13.586H44.4098V17.1386H45.1821V12.3701H45.8132V14.1233H46.8643V14.708H45.8132V17.139H47.0274V17.6759H43.1264H43.126L43.1255 17.6755Z" fill="white"/>
</svg>
