<svg width="60" height="61" viewBox="0 0 60 61" fill="none" xmlns="http://www.w3.org/2000/svg">
<path d="M0.000125885 60.2548H60.0001V0.254761H0.000125885V60.2548Z" fill="#E5001E"/>
<path d="M46.2085 28.8687C46.2085 27.9504 46.9531 27.2063 47.8716 27.2063C48.7862 27.2063 49.5292 27.9499 49.5292 28.8687C49.5292 29.7862 48.7862 30.5311 47.8716 30.5311C46.9531 30.5311 46.2085 29.7862 46.2085 28.8687Z" fill="white"/>
<path d="M49.8096 31.1717C50.9365 31.2732 51.8203 32.2216 51.8203 33.3785V33.931V34.1729V37.9842C51.8203 38.3386 51.5315 38.6276 51.1771 38.6276C50.8202 38.6276 50.5327 38.3386 50.5327 37.9842V34.0282C50.5327 33.8802 50.4904 33.6793 50.2185 33.6793C50.0303 33.6793 49.9914 33.8785 49.9846 34.0046V45.8626C49.9846 46.3719 49.5715 46.7881 49.0594 46.7881C48.5473 46.7881 48.1329 46.3719 48.1329 45.8626V39.0286C48.1304 38.9537 48.105 38.757 47.8712 38.757H47.8695C47.6331 38.757 47.6048 38.9541 47.6022 39.0286V45.8626C47.6022 46.3719 47.1903 46.7881 46.6783 46.7881C46.1649 46.7881 45.753 46.3719 45.753 45.8626V34.0046C45.7463 33.8785 45.7061 33.6793 45.5188 33.6793C45.2464 33.6793 45.2063 33.8802 45.2063 34.0282V37.9842C45.2063 38.3386 44.9175 38.6276 44.5618 38.6276C44.2049 38.6276 43.9187 38.3386 43.9187 37.9842V34.1729V33.931V33.3785C43.9187 32.2216 44.8024 31.2732 45.9311 31.1717C45.9687 31.1662 46.0084 31.1611 46.0528 31.1611H47.8712H49.6835C49.7305 31.1611 49.7707 31.1666 49.8096 31.1717Z" fill="white"/>
<path d="M36.3308 29.7418C36.3308 28.8721 35.628 28.1661 34.7599 28.1661C33.8892 28.1661 33.1847 28.8721 33.1847 29.7418C33.1847 30.6111 33.8888 31.3158 34.7599 31.3158C35.6276 31.3158 36.3308 30.6115 36.3308 29.7418Z" fill="white"/>
<path d="M31.5897 33.3057L30.2822 37.5637C30.2822 37.5637 30.0496 38.3445 30.7114 38.5387C31.3689 38.7341 31.5694 37.9714 31.5694 37.9714L32.6244 34.4182C32.6244 34.4182 32.6807 34.1454 32.8862 34.2042C33.0921 34.2634 33.0143 34.5561 33.0143 34.5561L31.1799 41.215H32.8857V45.9856C32.8857 46.4374 33.2532 46.8042 33.7065 46.8042C34.1586 46.8042 34.5248 46.4374 34.5248 45.9856V41.215H34.759H34.9899V45.9856C34.9899 46.4374 35.3548 46.8042 35.8094 46.8042C36.2627 46.8042 36.6289 46.4374 36.6289 45.9856V41.215H38.336L36.5016 34.5561C36.5016 34.5561 36.4238 34.2634 36.6285 34.2042C36.8357 34.1454 36.8919 34.4182 36.8919 34.4182L37.9466 37.9714C37.9466 37.9714 38.1457 38.7337 38.8054 38.5387C39.4684 38.3445 39.2346 37.5637 39.2346 37.5637L37.9267 33.3057C37.9267 33.3057 37.459 32.0752 36.4243 32.0752H34.7586H33.0913C32.0565 32.0752 31.5888 33.3057 31.5888 33.3057H31.5892H31.5897Z" fill="white"/>
<path d="M26.9103 29.7418C26.9103 28.8721 26.207 28.1661 25.3381 28.1661C24.4674 28.1661 23.7659 28.8721 23.7659 29.7418C23.7659 30.6111 24.4678 31.3158 25.3381 31.3158C26.207 31.3158 26.9103 30.6115 26.9103 29.7418Z" fill="white"/>
<path d="M22.1683 33.3057L20.8608 37.5637C20.8608 37.5637 20.6282 38.3445 21.2896 38.5387C21.9475 38.7341 22.1484 37.9714 22.1484 37.9714L23.203 34.4182C23.203 34.4182 23.2597 34.1454 23.4652 34.2042C23.6711 34.2634 23.5933 34.5561 23.5933 34.5561L21.759 41.215H23.4652V45.9856C23.4652 46.4374 23.8344 46.8042 24.286 46.8042C24.7376 46.8042 25.1042 46.4374 25.1042 45.9856V41.215H25.3398H25.5706V45.9856C25.5706 46.4374 25.9343 46.8042 26.3889 46.8042C26.8435 46.8042 27.2097 46.4374 27.2097 45.9856V41.215H28.9159L27.0828 34.5561C27.0828 34.5561 27.005 34.2634 27.2097 34.2042C27.4143 34.1454 27.4718 34.4182 27.4718 34.4182L28.5252 37.9714C28.5252 37.9714 28.7256 38.7337 29.3849 38.5387C30.0466 38.3445 29.8128 37.5637 29.8128 37.5637L28.5053 33.3057C28.5053 33.3057 28.0397 32.0752 27.005 32.0752H25.3393H23.6707C22.6372 32.0752 22.1683 33.3057 22.1683 33.3057Z" fill="white"/>
<path d="M41.6132 38.5475C42.338 38.5475 42.922 37.9617 42.922 37.2371C42.922 36.512 42.3376 35.9279 41.6132 35.9279C40.8884 35.9279 40.3044 36.5124 40.3044 37.2371C40.3044 37.9621 40.8888 38.5475 41.6132 38.5475Z" fill="white"/>
<path d="M38.4743 42.616C38.4104 42.77 38.358 43.0948 38.6659 43.2353C39.0253 43.4011 39.2278 43.0534 39.2278 43.0534L39.9391 40.7827C39.9391 40.7827 40.0613 40.6304 40.0613 40.7882V46.1337H40.0638C40.0638 46.5051 40.3636 46.8046 40.7366 46.8046C41.1083 46.8046 41.4077 46.5047 41.4077 46.1337V44.0246C41.4077 44.0246 41.3692 43.7247 41.6098 43.7247C41.8504 43.7247 41.8128 44.0246 41.8128 44.0246V46.1337C41.8128 46.5051 42.1139 46.8046 42.4851 46.8046C42.8568 46.8046 43.1588 46.5047 43.1588 46.1337V40.7882C43.1588 40.6304 43.2416 40.7442 43.2416 40.7442L43.799 42.2979C43.799 42.2979 44.0413 42.9921 44.1157 43.0229C44.3669 43.1287 44.6582 43.0081 44.7656 42.7543C44.8337 42.5881 44.8079 42.4104 44.7124 42.2768L44.7162 42.273C44.7014 42.2222 43.8819 40.2163 43.7871 39.9342C43.492 39.0729 42.9541 39.0797 42.4369 39.0649C41.9198 39.0526 41.6098 39.0649 41.6098 39.0649C41.6098 39.0649 41.2796 39.0514 40.595 39.0729C39.9137 39.0928 39.6981 39.4435 38.9454 41.3796C38.838 41.6592 38.4751 42.5619 38.4692 42.6156L38.4747 42.6169H38.4743V42.616Z" fill="white"/>
<path d="M12.8628 28.8687C12.8628 27.9504 12.1181 27.2063 11.1996 27.2063C10.2846 27.2063 9.54033 27.9499 9.54033 28.8687C9.54033 29.7862 10.2837 30.5311 11.1996 30.5311C12.1181 30.5311 12.8628 29.7862 12.8628 28.8687Z" fill="white"/>
<path d="M9.2604 31.1717C8.13474 31.2732 7.24969 32.2216 7.24969 33.3785V33.931V34.1729V37.9842C7.24969 38.3386 7.5385 38.6276 7.89413 38.6276C8.24976 38.6276 8.53857 38.3386 8.53857 37.9842V34.0282C8.53857 33.8802 8.58044 33.6793 8.85149 33.6793C9.03967 33.6793 9.07899 33.8785 9.08703 34.0046V45.8626C9.08703 46.3719 9.49847 46.7881 10.0106 46.7881C10.5231 46.7881 10.9358 46.3719 10.9358 45.8626V39.0286C10.9396 38.9537 10.965 38.757 11.2005 38.757C11.4369 38.757 11.4652 38.9541 11.4682 39.0286V45.8626C11.4682 46.3719 11.8796 46.7881 12.3917 46.7881C12.9051 46.7881 13.3169 46.3719 13.3169 45.8626V34.0046C13.3224 33.8785 13.3651 33.6793 13.5508 33.6793C13.8235 33.6793 13.8633 33.8802 13.8633 34.0282V37.9842C13.8633 38.3386 14.1521 38.6276 14.5077 38.6276C14.8633 38.6276 15.1521 38.3386 15.1521 37.9842V34.1729V33.931V33.3785C15.1521 32.2216 14.2684 31.2732 13.1389 31.1717C13.1021 31.1662 13.0628 31.1611 13.0171 31.1611H11.2009H9.38684C9.3399 31.1611 9.30015 31.1666 9.26082 31.1717H9.2604Z" fill="white"/>
<path d="M7.81209 38.6537L6.33757 46.4742" stroke="white" stroke-width="0.705136" stroke-miterlimit="22.9256" stroke-linecap="round"/>
<path d="M15.9404 37.8618C15.8545 37.7269 15.7065 37.6372 15.5353 37.6372C15.2735 37.6372 15.0591 37.8525 15.0591 38.1135C15.0591 38.1896 15.1061 38.3233 15.1061 38.3233L16.4258 40.7133C16.4258 40.7133 16.5057 40.8778 16.5057 41.0293V46.159H16.5083C16.5083 46.516 16.7971 46.8049 17.1552 46.8049C17.5096 46.8049 17.7984 46.516 17.7984 46.159V44.1341C17.7984 44.1341 17.7608 43.8477 17.9921 43.8477C18.2238 43.8477 18.1875 44.1341 18.1875 44.1341V46.159C18.1875 46.516 18.4763 46.8049 18.8332 46.8049C19.1892 46.8049 19.4789 46.516 19.4789 46.159V41.0293C19.4789 40.8783 19.5592 40.7133 19.5592 40.7133L20.78 38.5086C20.78 38.5086 20.928 38.1901 20.928 38.1139C20.928 37.8529 20.7153 37.6376 20.451 37.6376C20.2785 37.6376 20.1318 37.7273 20.0476 37.8622L20.0421 37.8597C20.0053 37.8931 19.3939 38.9802 19.1922 39.1824C18.9782 39.3977 18.7871 39.3741 18.7871 39.3741H17.9929H17.2018C17.2018 39.3741 17.0094 39.3977 16.7967 39.1824C16.5937 38.9802 15.9843 37.8931 15.945 37.8597L15.9408 37.8622L15.9412 37.8618H15.9404Z" fill="white"/>
<path d="M17.9934 38.5475C18.7181 38.5475 19.3021 37.9617 19.3021 37.2371C19.3021 36.512 18.7181 35.9279 17.9934 35.9279C17.2686 35.9279 16.6846 36.5124 16.6846 37.2371C16.6846 37.9621 17.269 38.5475 17.9934 38.5475Z" fill="white"/>
<path d="M17.9955 40.3867L19.4755 41.4654L20.1787 44.0563H17.9955H15.811L16.5155 41.4654L17.9955 40.3867Z" fill="white"/>
<path d="M8.37789 8.12644H8.3948V17.3911H10.4283V5.28894H8.8054L6.93296 7.4839V9.60907H6.94988L8.37789 8.12644Z" fill="white"/>
<path d="M16.8068 6.08251V5.49792H21.5031V6.08251H19.4231C19.407 6.33124 19.3765 6.68149 19.3296 7.13325C19.3296 7.10237 19.3216 7.13325 19.3068 7.22674H21.9006V7.83502H19.2133C19.1973 7.8659 19.1896 7.89677 19.1896 7.9285H19.8218V9.54141C19.8045 9.86797 19.9529 10.0241 20.2658 10.008H20.7563C21.0359 10.0241 21.1991 9.87558 21.2456 9.56425C21.2621 9.43989 21.2858 9.20555 21.3166 8.86334C21.5509 8.95597 21.7606 9.02662 21.9463 9.07315C21.9006 9.4475 21.8621 9.73514 21.8313 9.93692C21.7361 10.3582 21.4169 10.5613 20.8726 10.5452H20.0544C19.4463 10.5617 19.1503 10.2884 19.1668 9.72668V7.97334C18.9021 9.11122 18.1147 10.0317 16.8068 10.7313C16.7603 10.6856 16.6812 10.6002 16.573 10.4741C16.4647 10.3498 16.3856 10.2563 16.3387 10.1933C17.6009 9.57144 18.3257 8.7855 18.5126 7.83375H16.3856V7.22547H18.6289C18.6902 6.86719 18.7304 6.48733 18.7465 6.08082H16.8064V6.08125L16.8068 6.08251Z" fill="white"/>
<path d="M25.1478 7.7884C25.1317 7.75752 25.1156 7.70972 25.1013 7.64797C25.0691 7.50753 25.0383 7.39924 25.0078 7.32056H25.4045C25.6222 7.33664 25.7859 7.34425 25.8954 7.34425C26.1601 7.34425 26.3005 7.25077 26.3153 7.06338C26.347 6.95551 26.3635 6.85357 26.3635 6.75966H24.727C24.6188 7.39924 23.9553 7.82055 22.7417 8.02232C22.6482 7.86708 22.5463 7.7093 22.4381 7.55406C23.4508 7.4297 24.0039 7.1649 24.0961 6.75966H23.3726V6.40941C23.247 6.45637 23.069 6.53378 22.8351 6.64376C22.7256 6.69029 22.6398 6.72117 22.5772 6.73597C22.5624 6.72117 22.5463 6.69029 22.5315 6.64376C22.4381 6.45637 22.359 6.32397 22.2977 6.24487C23.1388 5.96568 23.8081 5.59894 24.3059 5.14717L24.8205 5.40394C24.4314 5.77829 24.0263 6.0672 23.6064 6.2694H26.6426C26.191 6.0672 25.7791 5.77153 25.4045 5.38109L25.8954 5.10022C26.4248 5.59894 27.1192 5.96568 27.9755 6.1996C27.8807 6.35485 27.7966 6.52616 27.7175 6.71313C27.6241 6.68225 27.4854 6.6353 27.298 6.57269C27.1576 6.51093 27.0557 6.47075 26.9927 6.45637L26.9471 7.13402C26.931 7.55406 26.6422 7.76387 26.0823 7.76387C25.8015 7.77994 25.4899 7.78756 25.1478 7.78756H25.1482L25.1478 7.7884ZM27.4849 10.7333C26.6747 10.3911 25.8798 10.1022 25.1013 9.86958C24.711 10.2731 23.8775 10.562 22.6013 10.7333C22.5383 10.5155 22.4529 10.3201 22.3442 10.1492C23.7921 10.0396 24.5862 9.75198 24.7266 9.28372C24.7896 9.14328 24.8201 8.97366 24.8201 8.77062H25.4751C25.4434 9.01934 25.404 9.22238 25.3575 9.37763C25.5914 9.4563 25.9254 9.57305 26.3631 9.72829C27.0008 9.94741 27.4684 10.0946 27.764 10.172L27.4849 10.7333ZM22.9751 9.68092V8.09212H27.2735V9.61155H26.6667V8.58323H23.606V9.68092H22.9751Z" fill="white"/>
<path d="M28.5121 7.95211C28.4651 7.78121 28.3958 7.6099 28.3023 7.43731C29.0495 7.20466 29.7582 6.93182 30.4281 6.62049L30.7088 7.10991C30.1329 7.3599 29.4001 7.6412 28.5125 7.95211H28.5121ZM28.6749 10.7329C28.6609 10.7181 28.644 10.694 28.6292 10.6631C28.5036 10.4131 28.4021 10.2499 28.3243 10.1724C29.4462 9.87677 30.0851 9.38566 30.2399 8.69998H28.6288V8.1395H30.3803C30.412 7.93646 30.4348 7.69577 30.4513 7.41447H31.1051C31.089 7.69534 31.0581 7.93603 31.0116 8.1395H33.3953C33.3792 8.4043 33.3568 8.78542 33.3255 9.28414C33.3086 9.45546 33.3001 9.57982 33.3001 9.6585C33.3166 10.2964 32.9441 10.6162 32.18 10.6162H31.1989C31.1824 10.5532 31.16 10.4529 31.1279 10.3125C31.097 10.172 31.0746 10.0785 31.0581 10.0316H31.5732C31.8053 10.0481 31.9766 10.0557 32.0861 10.0557C32.4603 10.0557 32.6544 9.90046 32.6705 9.58744C32.7014 9.29176 32.717 8.9965 32.717 8.69955H30.9173C30.7769 9.63397 30.0297 10.312 28.674 10.7321H28.6744L28.6749 10.7329ZM28.4892 6.85441V5.77914H30.8957L30.6619 5.21697L31.3622 5.12476L31.6193 5.77872H33.7458V6.85399H33.1149V6.3392H29.0965V6.85399H28.4892V6.85441ZM33.6993 7.99906C32.8261 7.6099 32.103 7.31295 31.5254 7.10991L31.7829 6.64334C31.9233 6.68987 32.1335 6.76897 32.4142 6.87726C33.068 7.10991 33.5746 7.3066 33.9327 7.46185L33.6989 7.99948L33.6993 7.99906Z" fill="white"/>
</svg>
