<svg width="61" height="61" viewBox="0 0 61 61" fill="none" xmlns="http://www.w3.org/2000/svg">
<path d="M0.338158 0.856201H60.3382V60.8562H0.338158V0.856201Z" fill="#DDA63A"/>
<path d="M11.5585 16.3224H8.22314V15.751C8.22314 14.8061 8.56235 14.4492 9.07919 13.896L10.381 12.5219C11.4342 11.3982 11.6663 10.6838 11.6663 9.47044V8.293C11.6663 6.56279 10.8264 5.74146 9.00771 5.74146C7.22414 5.74146 6.31312 6.68713 6.31312 8.38139V9.84474H8.16985V8.32768C8.16985 7.59685 8.52597 7.38201 8.95526 7.38201C9.34691 7.38201 9.68611 7.54357 9.68611 8.293V9.29196C9.68611 10.2914 9.59645 10.6838 8.93665 11.3791L7.79639 12.5921C6.68869 13.7704 6.27844 14.5558 6.27844 15.7505V17.9811H11.5585V16.3215V16.3224Z" fill="white"/>
<path d="M35.8276 25.9483C35.6977 26.1327 32.6479 30.5206 35.8952 34.0682C37.3836 35.6965 37.255 37.1332 36.83 38.1029H38.9121C39.3321 36.6709 39.1591 34.8739 37.472 33.0273C35.0802 30.4124 37.5029 26.8792 37.5392 26.8246C37.8252 26.4212 37.672 25.9022 37.2013 25.6595C36.731 25.4171 36.1173 25.5474 35.8301 25.9483H35.8272H35.8276Z" fill="white"/>
<path d="M30.5547 38.1033H32.6377C33.0577 36.6705 32.8843 34.8743 31.1938 33.0277C28.8007 30.4128 31.2213 26.8809 31.2598 26.8229C31.5436 26.4216 31.3934 25.9026 30.9218 25.6599C30.4494 25.4171 29.8382 25.5474 29.5523 25.9487C29.4216 26.1331 26.3726 30.521 29.62 34.0686C31.1083 35.6969 30.9785 37.1336 30.5547 38.1033Z" fill="white"/>
<path d="M23.2758 25.9483C23.1438 26.1327 20.0961 30.5206 23.343 34.0681C24.8322 35.6973 24.7032 37.1331 24.2795 38.1029H26.3616C26.7816 36.6713 26.6086 34.8743 24.9168 33.0273C22.5246 30.4123 24.9469 26.8792 24.9849 26.8233C25.2679 26.4211 25.1173 25.9018 24.6449 25.6594C24.1724 25.4171 23.5621 25.5469 23.2762 25.9483H23.2758Z" fill="white"/>
<path d="M18.2817 10.1155H19.5332V10.7884H17.421V10.1155L18.7156 6.55693H17.5508V5.88489H19.5839V6.55693L18.2817 10.1155Z" fill="white"/>
<path d="M20.0902 5.88489H22.0581V6.55693H20.9145V7.96063H21.7316V8.62591H20.9145V10.1155H22.0581V10.7884H20.0902V5.88489Z" fill="white"/>
<path d="M23.3959 8.53702V10.7862H22.5708V5.8844H23.7706C24.6022 5.8844 24.9067 6.29633 24.9067 6.98318V7.61292C24.9067 8.14074 24.7185 8.45286 24.2465 8.56029L25.0357 10.7883H24.1699L23.3959 8.53745V8.53702ZM23.3959 6.55686V8.08322H23.6708C23.9529 8.08322 24.0756 7.93815 24.0756 7.67763V6.95484C24.0756 6.68712 23.9529 6.55686 23.6708 6.55686H23.3959Z" fill="white"/>
<path d="M25.4278 9.52241V7.14977C25.4278 6.38299 25.8042 5.82642 26.6721 5.82642C27.5404 5.82642 27.9236 6.38342 27.9236 7.14977V9.52241C27.9236 10.282 27.5476 10.8458 26.6721 10.8458C25.797 10.8458 25.4278 10.2816 25.4278 9.52241ZM27.0984 9.65268V7.01908C27.0984 6.72303 26.9685 6.51283 26.6721 6.51283C26.3756 6.51283 26.2521 6.72303 26.2521 7.01908V9.65268C26.2521 9.94915 26.3819 10.1589 26.6721 10.1589C26.9618 10.1589 27.0984 9.94915 27.0984 9.65268Z" fill="white"/>
<path d="M19.0878 15.8107H18.2918V17.9706H17.4671V13.0692H18.2918V15.145H19.0878V13.0692H19.9193V17.9735H19.0878V15.8107Z" fill="white"/>
<path d="M22.8558 13.0692V16.7796C22.8558 17.5392 22.5306 18.031 21.6914 18.031C20.824 18.031 20.4619 17.5392 20.4619 16.7796V13.0692H21.2863V16.8595C21.2863 17.1488 21.4022 17.3442 21.6914 17.3442C21.9807 17.3442 22.0971 17.1488 22.0971 16.8595V13.0692H22.8558Z" fill="white"/>
<path d="M24.0929 14.892V17.9735H23.398V13.0692H24.2088L25.0983 15.883V13.0692H25.7856V17.9735H25.0619L24.0929 14.892Z" fill="white"/>
<path d="M27.5717 15.3547H28.7441V17.9735H28.1507V17.4385C28.042 17.8069 27.8102 18.0314 27.3623 18.0314C26.653 18.0314 26.3278 17.4672 26.3278 16.7081V14.3359C26.3278 13.5691 26.6966 13.0121 27.5641 13.0121C28.4755 13.0121 28.7437 13.5183 28.7437 14.242V14.6755H27.9912V14.1773C27.9912 13.8736 27.8758 13.7006 27.5793 13.7006C27.2828 13.7006 27.1521 13.91 27.1521 14.2069V16.8396C27.1521 17.1361 27.2748 17.3459 27.5569 17.3459C27.8246 17.3459 27.9625 17.194 27.9625 16.8756V16.0069H27.5712V15.3551L27.5717 15.3547Z" fill="white"/>
<path d="M29.2859 13.0692H31.2538V13.7421H30.111V15.145H30.9282V15.8107H30.111V17.3011H31.2538V17.9735H29.2859V13.0692Z" fill="white"/>
<path d="M32.5916 15.7235V17.9735H31.7669V13.0692H32.9668C33.7983 13.0692 34.102 13.4816 34.102 14.1684V14.7982C34.102 15.326 33.9138 15.6381 33.4417 15.7455L34.2301 17.9739H33.3656L32.5916 15.724V15.7235ZM32.5916 13.7434V15.2697H32.8665C33.1486 15.2697 33.2717 15.1255 33.2717 14.865V14.1397C33.2717 13.8719 33.1516 13.7421 32.8665 13.7421L32.5916 13.7438V13.7434Z" fill="white"/>
<path d="M25.1253 51.8398V52.6836C25.1253 52.6886 25.1228 52.695 25.1228 52.7018C25.1228 52.7085 25.1253 52.7149 25.1253 52.7216C25.1347 52.9301 25.3047 53.0972 25.5145 53.1014C25.517 53.1014 25.52 53.1027 25.5225 53.1027C25.525 53.1027 25.5293 53.1014 25.5318 53.1014H35.4296C35.4321 53.1014 35.4351 53.1027 35.438 53.1027C35.4406 53.1027 35.4435 53.1014 35.4461 53.1014C35.6626 53.0972 35.8348 52.9208 35.8365 52.7043C35.8365 52.7043 35.8377 52.7026 35.8377 52.7018C35.8377 52.7018 35.8365 52.7001 35.8365 52.6992V51.7447C41.4088 49.9172 45.5824 45.4028 46.4989 39.9005C46.5032 39.8882 46.5032 39.8776 46.5057 39.8671C46.5082 39.848 46.5112 39.8311 46.5112 39.8108C46.5112 39.59 46.3323 39.4111 46.1103 39.4111H14.7564H14.5665C14.3444 39.4111 14.1655 39.5905 14.1655 39.8108L14.1867 39.9914C15.1506 45.5466 19.438 50.0872 25.1249 51.8394L25.1253 51.8402V51.8398Z" fill="white"/>
</svg>
