<svg width="61" height="61" viewBox="0 0 61 61" fill="none" xmlns="http://www.w3.org/2000/svg">
<path d="M0.964569 0.78894H60.9646V60.7889H0.964569V0.78894Z" fill="#56C02B"/>
<path d="M20.1384 5.81116V10.7179H21.9474V10.0445H20.9636V5.81116H20.1384Z" fill="white"/>
<path d="M22.3961 5.81116H23.2205V10.717H22.3961V5.81116Z" fill="white"/>
<path d="M23.7631 10.7179H24.5875V8.55362H25.4122V7.8883H24.5875V6.48408H25.6931V5.81116H23.7631V10.7179Z" fill="white"/>
<path d="M26.1278 10.7179H28.0946V10.0445H26.9522V8.55362H27.7702V7.8883H26.9522V6.48408H28.0946V5.81116H26.1278V10.7179Z" fill="white"/>
<path d="M5.35779 8.00631V10.1291H5.37598L6.80303 8.64836H6.82164V17.9086H8.85478V5.81116H7.23106L5.35779 8.00631Z" fill="white"/>
<path d="M13.6904 9.64782C12.8877 9.64782 12.2993 9.93289 11.9775 10.4878H11.9597V7.47043H15.4567V5.81201H10.1042V12.628H11.9597V12.359C11.9597 11.6463 12.2807 11.2534 12.8513 11.2534C13.4764 11.2534 13.7264 11.6818 13.7264 12.3425V15.2689C13.7264 15.9101 13.4946 16.3568 12.8699 16.3568C12.1741 16.3568 11.9259 15.8928 11.9259 15.1793V13.663H10.0653V15.0376C10.0653 16.8749 10.797 18.052 12.8669 18.052C14.9191 18.052 15.757 16.9633 15.757 15.2863V12.3239C15.757 10.4146 14.7762 9.64782 13.6875 9.64782H13.6904Z" fill="white"/>
<path d="M20.1346 16.6483V14.2848C20.1346 13.5201 20.5094 12.9647 21.3747 12.9647C22.2397 12.9647 22.6216 13.5196 22.6216 14.2848V16.6483C22.6216 17.4058 22.2473 17.9683 21.3747 17.9683C20.5022 17.9683 20.1346 17.4062 20.1346 16.6483ZM21.7994 16.7777V14.1545C21.7994 13.8584 21.6699 13.6495 21.3747 13.6495C21.0795 13.6495 20.9547 13.8584 20.9547 14.1545V16.7777C20.9547 17.0733 21.0841 17.2831 21.3747 17.2831C21.6649 17.2831 21.7994 17.0733 21.7994 16.7777Z" fill="white"/>
<path d="M23.7788 14.8397V17.9091H23.0872V13.0231H23.8951L24.7812 15.8264V13.0231H25.4655V17.9091H24.7456L23.7788 14.8397Z" fill="white"/>
<path d="M27.2474 13.0231H28.0688V17.2391H29.0496V17.9091H27.2474V13.0231Z" fill="white"/>
<path d="M29.2916 17.9091L30.214 13.0227H31.1513L32.0809 17.9091H31.2372L31.0845 17.0159H30.2136L30.0702 17.9091H29.2907H29.2916ZM30.3231 16.3598H30.9787L30.6539 14.3999H30.6467L30.3231 16.3598Z" fill="white"/>
<path d="M33.1092 14.8397V17.9091H32.4168V13.0231H33.2242L34.1103 15.8264V13.0231H34.7951V17.9091H34.0752L33.1092 14.8397Z" fill="white"/>
<path d="M37.7858 14.3351V16.5984C37.7858 17.347 37.4766 17.9091 36.5968 17.9091H35.3284V13.0227H36.5968C37.4766 13.0227 37.7858 13.5776 37.7858 14.3351ZM36.4958 17.2392C36.8337 17.2392 36.9644 17.0374 36.9644 16.7426V14.1837C36.9644 13.8948 36.8337 13.6931 36.4958 13.6931H36.1498V17.2392H36.4958Z" fill="white"/>
<path d="M26.116 41.3561C26.1892 41.3561 26.2488 41.4157 26.2488 41.4889V45.858V45.8585C26.2488 45.9312 26.1896 45.9904 26.1165 45.9904H26.116H24.3485C24.3481 45.9904 24.3481 45.9904 24.3477 45.9904C24.2745 45.9904 24.2148 45.9312 24.2148 45.858V41.4889C24.2148 41.4157 24.2745 41.3561 24.3477 41.3561C24.3481 41.3561 24.3481 41.3561 24.3485 41.3561H26.116Z" fill="white"/>
<path d="M45.5326 47.8663H16.3961C16.3217 47.868 16.2629 47.9289 16.2629 48.0029C16.2629 48.0034 16.2629 48.0038 16.2629 48.0038V49.7844C16.2641 49.8568 16.3229 49.9151 16.3957 49.9151C16.3961 49.9151 16.3961 49.9151 16.3965 49.9151H45.5331C45.6058 49.9147 45.665 49.8572 45.6667 49.7844V48.0038C45.6663 47.9294 45.6071 47.8689 45.5331 47.8668L45.5326 47.8663Z" fill="white"/>
<path d="M45.5326 51.4056H16.3961C16.3238 51.4069 16.2658 51.4649 16.2646 51.5372V53.3233C16.2662 53.3961 16.325 53.4544 16.3978 53.4549H45.5322C45.605 53.454 45.6642 53.3961 45.6659 53.3233V51.5372C45.6642 51.4644 45.605 51.4061 45.5322 51.4056H45.5326Z" fill="white"/>
<path d="M39.9881 36.52C39.6244 36.2349 38.6524 35.5701 37.4677 35.5701C36.6205 35.5701 35.833 35.9038 35.1279 36.5644C35.0784 36.6114 35.0505 36.6761 35.0497 36.7446V36.9091C35.0497 36.9129 35.0497 36.9172 35.0497 36.921C35.0497 36.9925 35.0801 37.0606 35.133 37.1084C35.1749 37.1435 35.2282 37.1629 35.2832 37.1629C35.3018 37.1629 35.3204 37.1608 35.3386 37.1566C35.3567 37.1536 35.3754 37.149 35.3931 37.1426C35.4477 37.1227 35.4972 37.0914 35.5386 37.0504C35.6909 36.9476 36.1088 36.8102 36.7056 36.8102C37.3222 36.8102 38.5357 36.976 39.7056 38.0702L39.7326 38.0943C39.799 38.1619 39.8896 38.1996 39.9839 38.1996C39.9847 38.1996 39.9851 38.1996 39.9856 38.1996C39.986 38.1996 39.9864 38.1996 39.9868 38.1996C40.0795 38.1996 40.1674 38.1624 40.2322 38.0964L40.2563 38.0718C41.4342 36.9777 42.6455 36.8119 43.2622 36.8119C43.8624 36.8119 44.2824 36.9523 44.4325 37.0517C44.4782 37.0961 44.5332 37.1299 44.5941 37.1502C44.6212 37.1566 44.6487 37.16 44.6766 37.16C44.7062 37.16 44.7358 37.1561 44.7641 37.149C44.872 37.1189 44.9477 37.0208 44.9477 36.9091V36.7687C44.9468 36.701 44.9189 36.6355 44.8699 36.5885C44.158 35.911 43.362 35.5684 42.5017 35.5684C41.3276 35.5684 40.3603 36.2231 39.986 36.5196L39.9877 36.5204L39.9881 36.52Z" fill="white"/>
<path d="M38.18 24.909C38.1178 24.9398 38.0717 24.9952 38.0531 25.0625L38.0235 25.1594C38.0167 25.1826 38.0129 25.2067 38.0129 25.2308C38.0129 25.2837 38.0303 25.3357 38.062 25.3784C38.1043 25.4364 38.1702 25.4723 38.2422 25.477C38.2481 25.4783 38.2544 25.4787 38.2608 25.4787C38.2667 25.4787 38.273 25.4783 38.2789 25.477C38.328 25.4761 38.3758 25.4639 38.4194 25.441C38.4752 25.4279 38.5319 25.4212 38.589 25.4212C38.5928 25.4212 38.5962 25.4212 38.5995 25.4212C38.7298 25.4212 39.9048 25.4609 40.6809 26.781L40.6911 26.8004C40.7295 26.8736 40.7972 26.9277 40.8772 26.9489C40.9076 26.9582 40.9385 26.9628 40.9702 26.9633C40.9706 26.9633 40.9711 26.9633 40.9711 26.9633C41.0222 26.9633 41.0721 26.951 41.1174 26.9273L41.1369 26.918C41.5387 26.7116 41.984 26.6008 42.4366 26.5961C43.1725 26.5961 43.6534 26.8964 43.7655 27.0216C43.7888 27.0635 43.8209 27.1003 43.8594 27.1291C43.8899 27.1468 43.9216 27.1621 43.9542 27.1747C43.9681 27.1781 43.9829 27.1802 43.9973 27.1802C44.0015 27.1811 44.0062 27.1811 44.01 27.1811C44.0142 27.1811 44.0189 27.1811 44.0227 27.1802C44.0629 27.1802 44.1026 27.1705 44.1381 27.1515C44.1982 27.1206 44.243 27.0669 44.2621 27.0022L44.2866 26.9163C44.2929 26.8948 44.2963 26.8719 44.2963 26.8491C44.2963 26.8478 44.2963 26.8465 44.2963 26.8453C44.2963 26.8444 44.2963 26.844 44.2963 26.8436C44.2963 26.8 44.2845 26.7577 44.2621 26.7201C43.6966 25.738 42.8756 25.5328 42.2856 25.5328C41.9278 25.5371 41.5721 25.6039 41.2367 25.7295C40.9706 25.3696 40.2956 24.6285 39.2716 24.6285C38.8914 24.6336 38.5166 24.7284 38.1796 24.9043V24.909H38.18Z" fill="white"/>
<path d="M32.0235 29.3902L32.0319 29.5218C32.0399 29.6533 32.1491 29.7557 32.2806 29.7557C32.3022 29.7557 32.3237 29.7531 32.3445 29.7472C32.3589 29.7438 32.3732 29.7392 32.3868 29.7341C32.4358 29.7142 32.4794 29.6817 32.5128 29.6411C32.6363 29.5514 33.0352 29.3881 33.6239 29.3881C34.1898 29.3881 35.0501 29.5395 35.9273 30.2598L35.9476 30.281C36.0102 30.3351 36.0897 30.3652 36.1722 30.3656H36.1938C36.2813 30.3601 36.3634 30.3203 36.4226 30.2556L36.4416 30.2336C37.4132 29.2058 38.4591 29.0531 38.9959 29.0531C39.3786 29.0531 39.6498 29.1318 39.7555 29.1919C39.7995 29.2291 39.8515 29.2557 39.9069 29.2705C39.9302 29.2765 39.9539 29.2794 39.978 29.2794C40.011 29.2794 40.0435 29.2739 40.0748 29.2629C40.1742 29.2278 40.2406 29.1335 40.2406 29.0286C40.2406 29.0231 40.2402 29.018 40.2402 29.0125L40.2334 28.8983C40.2292 28.8307 40.1975 28.7685 40.1459 28.7249C39.5664 28.2373 38.9405 27.9919 38.2823 27.9919C37.2575 27.9919 36.4395 28.5968 36.1012 28.892C35.7916 28.6809 35.0391 28.2466 34.1568 28.2466C33.3816 28.2466 32.6871 28.5689 32.0899 29.2016C32.0459 29.2494 32.0218 29.3116 32.0218 29.3763C32.0218 29.3801 32.0222 29.3843 32.0222 29.3881V29.3898L32.0235 29.3902Z" fill="white"/>
<path d="M17.2792 31.7292C17.2792 31.7288 17.2792 31.7283 17.2792 31.7279C17.2792 29.9836 18.694 28.5688 20.4383 28.5688C20.5064 28.5688 20.5732 28.5748 20.6405 28.579C20.8063 26.35 22.6643 24.6239 24.9 24.6239C27.2584 24.6239 29.1715 26.5369 29.1715 28.8954C29.1715 29.5433 29.0234 30.1833 28.7401 30.7653C30.9272 31.2478 32.4862 33.188 32.4862 35.4279C32.4862 38.0647 30.3481 40.2027 27.7114 40.2027C27.7093 40.2027 27.7059 40.2027 27.7038 40.2027C27.5114 40.2027 21.3303 40.1655 21.3303 40.1655C21.3282 40.1655 21.3265 40.1655 21.3248 40.1655C19.46 40.1655 17.9475 38.653 17.9475 36.7878C17.9475 35.9253 18.2778 35.0951 18.87 34.4678C17.887 33.907 17.2797 32.8606 17.2797 31.7283L17.2792 31.7292Z" fill="white"/>
</svg>
