<svg width="61" height="61" viewBox="0 0 61 61" fill="none" xmlns="http://www.w3.org/2000/svg">
<path d="M0.542603 60.9865H60.5426V0.98645H0.542603V60.9865Z" fill="#0076BA"/>
<path d="M46.5671 44.7627C45.8117 43.744 40.9339 37.5253 34.095 37.5253C28.157 37.5253 21.8044 42.9115 21.8044 42.9115C21.8044 42.9115 19.4185 38.0266 14.537 37.5571C14.5076 37.5571 14.4775 37.5517 14.4443 37.5517H14.415C14.3131 37.5571 14.2175 37.6565 14.2284 37.7437C14.2414 37.83 14.3056 37.9227 14.3056 37.9227C14.9336 38.9669 16.5401 41.9394 16.5401 44.9069C16.5401 47.8861 14.9244 50.8654 14.3014 51.9045L14.2595 51.9708C14.241 52.0026 14.2289 52.0341 14.2289 52.0739C14.2289 52.177 14.3085 52.2579 14.4091 52.2663L14.4619 52.2621C14.4779 52.2621 14.4951 52.2621 14.5123 52.2579C19.4097 51.8006 21.8048 46.9027 21.8048 46.9027C21.8048 46.9027 28.1574 52.2889 34.0954 52.2889C40.9347 52.2889 45.8121 46.0702 46.5675 45.0528C46.5872 45.0251 46.6048 45.0008 46.6195 44.9824C46.6287 44.9585 46.6367 44.9362 46.6367 44.9069C46.6367 44.8801 46.6287 44.8541 46.6195 44.8327C46.6048 44.813 46.5877 44.7891 46.5675 44.7623H46.5671V44.7627ZM37.8974 45.6929C36.7961 45.6929 35.9014 44.7983 35.9014 43.6971C35.9014 42.5954 36.7965 41.7026 37.8974 41.7026C39.0029 41.7026 39.8967 42.5954 39.8967 43.6971C39.8967 44.7987 39.0033 45.6929 37.8974 45.6929Z" fill="white"/>
<path d="M21.3562 31.9512C21.3726 31.9285 21.3868 31.9126 21.4082 31.8967C21.4401 31.877 21.4757 31.861 21.5168 31.861C21.5671 31.861 21.6149 31.8807 21.6493 31.9151C21.6518 31.9176 21.656 31.9206 21.6585 31.9235C25.3867 35.4766 29.2969 32.5967 30.1106 31.9235L30.1919 31.848C30.2146 31.8388 30.238 31.8346 30.2649 31.8346C30.2938 31.8346 30.3206 31.8388 30.3441 31.848L30.4238 31.9235C31.2362 32.5967 35.146 35.4766 38.8742 31.9235C38.8759 31.921 38.8784 31.918 38.8809 31.9151C38.9166 31.8807 38.9631 31.861 39.0147 31.861C39.0557 31.861 39.0918 31.877 39.122 31.8967C39.1455 31.9126 39.1601 31.9285 39.1777 31.9512C39.9001 32.6617 43.0229 35.3492 46.3273 32.4802C46.3617 32.4445 46.3839 32.398 46.3839 32.3423V30.9774C46.3839 30.8688 46.298 30.7812 46.1894 30.7812C46.1747 30.7812 46.1626 30.7866 46.1483 30.7904C46.1164 30.8051 46.0846 30.8223 46.0489 30.8394C45.0348 31.3483 41.883 32.5544 39.0268 29.8548C39 29.8296 38.9711 29.8044 38.9434 29.7768C38.9166 29.7621 38.8914 29.7571 38.8595 29.7571C38.8398 29.7571 38.8185 29.7625 38.8 29.7718C38.7581 29.7822 38.7241 29.8099 38.7015 29.8459C37.8492 30.494 33.9394 33.1421 30.456 29.8925L30.4057 29.8418C30.3701 29.8074 30.3198 29.7877 30.264 29.7877C30.2137 29.7877 30.1617 29.8074 30.1286 29.8418L30.0741 29.8925C26.5937 33.1421 22.6797 30.494 21.8287 29.8459C21.806 29.8103 21.7742 29.7827 21.7318 29.7718C21.7121 29.7625 21.6908 29.7571 21.6698 29.7571C21.6417 29.7571 21.6136 29.7625 21.5885 29.7768C21.5621 29.8044 21.5327 29.8296 21.5038 29.8548C18.6463 32.5544 15.4979 31.3483 14.4829 30.8394C14.4473 30.8223 14.4137 30.8051 14.3823 30.7904C14.3659 30.7866 14.3571 30.7812 14.3437 30.7812C14.2368 30.7812 14.1475 30.8692 14.1475 30.9774V32.3423C14.1475 32.3984 14.1702 32.4445 14.2045 32.4802C17.5064 35.3492 20.6314 32.6621 21.355 31.9512H21.3558H21.3562Z" fill="white"/>
<path d="M14.3827 25.8365C14.368 25.834 14.3575 25.8272 14.3454 25.8272C14.2368 25.8272 14.1492 25.9161 14.1492 26.0276V27.3871C14.1492 27.4441 14.1706 27.4944 14.2049 27.5292C17.5068 30.3973 20.6334 27.709 21.3558 26.9989C21.3717 26.9779 21.3864 26.957 21.4086 26.9431C21.44 26.9234 21.4748 26.9088 21.5159 26.9088C21.5662 26.9088 21.6153 26.9285 21.6497 26.9603C21.6509 26.9645 21.6551 26.967 21.6576 26.9696C25.3871 30.5281 29.2973 27.6449 30.1102 26.9696L30.1911 26.8954C30.2146 26.8849 30.2389 26.8824 30.2653 26.8824C30.293 26.8824 30.3215 26.8849 30.3424 26.8954L30.4233 26.9696C31.2371 27.6449 35.1472 30.5281 38.8759 26.9696C38.8759 26.967 38.8813 26.9641 38.8822 26.9603C38.9182 26.9285 38.9635 26.9088 39.0146 26.9088C39.0562 26.9088 39.0926 26.9226 39.1236 26.9431C39.1463 26.9566 39.1618 26.9775 39.1777 26.9989C39.9013 27.7094 43.0229 30.3973 46.3273 27.5292C46.3617 27.4948 46.3843 27.4441 46.3843 27.3871V26.0276C46.3843 25.9161 46.298 25.8272 46.1906 25.8272C46.176 25.8272 46.163 25.834 46.1487 25.8365C46.1181 25.8532 46.0862 25.8696 46.0494 25.888C45.0344 26.3969 41.8851 27.6055 39.0272 24.9008C38.9996 24.8769 38.9727 24.8518 38.9438 24.8229C38.9186 24.8124 38.8935 24.8057 38.8616 24.8057C38.8419 24.8057 38.8197 24.8111 38.8021 24.8136C38.7602 24.8325 38.7254 24.8589 38.7027 24.8916C37.8504 25.5397 33.9403 28.1877 30.4586 24.9394L30.4066 24.8903C30.3709 24.8572 30.3219 24.8321 30.2661 24.8321C30.2158 24.8321 30.163 24.8572 30.1299 24.8903L30.0771 24.9394C26.5949 28.1877 22.6822 25.5397 21.8303 24.8916C21.8077 24.8585 21.7758 24.8321 21.7348 24.8136C21.7151 24.8111 21.6937 24.8057 21.6723 24.8057C21.6446 24.8057 21.6165 24.8124 21.5901 24.8229C21.5633 24.8518 21.5339 24.8769 21.505 24.9008C18.6475 27.6059 15.4991 26.3974 14.4842 25.888C14.4485 25.8696 14.4137 25.8537 14.3835 25.8365H14.3827Z" fill="white"/>
<path d="M8.316 6.03491V18.1271H6.28273V8.87119H6.26428L4.83806 10.3518H4.81961V8.22941L6.69274 6.03491H8.316Z" fill="white"/>
<path d="M14.5081 18.1291V16.1677H15.3281V14.5785H14.5081V6.03149H12.5087L8.99348 14.918V16.1681H12.58V18.1295H14.5072H14.5076L14.5081 18.1291ZM10.7786 14.5785L12.598 9.60053H12.6169V14.5785H10.7786Z" fill="white"/>
<path d="M19.7044 10.3039C19.6726 10.226 19.6118 10.1187 19.5179 9.97655C19.4554 9.86798 19.4089 9.79001 19.3774 9.74306C20.1723 8.98138 20.6775 8.11699 20.8963 7.15074H19.564V6.56638H21.5507V7.12685C21.2845 8.3727 20.6708 9.43327 19.7049 10.3035H19.7044V10.3039ZM24.7516 10.1878C23.7228 9.42447 23.0059 8.52194 22.6018 7.47772V9.86169C22.6324 10.4368 22.3511 10.7324 21.7604 10.7483H21.3864C21.1835 10.763 21.0284 10.7722 20.9202 10.7722C20.9043 10.6632 20.8741 10.5215 20.8263 10.3517C20.81 10.2578 20.7944 10.1954 20.7798 10.1652H21.4807C21.8081 10.1652 21.9633 10.0168 21.9469 9.72126V5.25891H22.6018V6.24025C22.7422 6.62968 22.8969 6.98768 23.0679 7.31507C23.4897 6.95708 23.9093 6.56764 24.3294 6.14593L24.8199 6.61417C24.446 6.95708 23.9638 7.36915 23.3727 7.85332C23.7773 8.47499 24.36 9.05935 25.1234 9.60556C25.0773 9.68227 24.9989 9.80845 24.8916 9.97781C24.8279 10.0881 24.7813 10.1568 24.7512 10.1887L24.7516 10.1882V10.1878Z" fill="white"/>
<path d="M25.5418 6.26288V5.63367H31.1021V6.26288H28.4391V7.68899L28.8131 7.22116C29.4361 7.57874 30.1135 8.00045 30.8451 8.48169L30.4011 9.0673C30.075 8.84848 29.631 8.55169 29.0705 8.17903C28.7896 7.97656 28.58 7.82816 28.4391 7.7351V10.7948H27.7155V6.26204H25.5422L25.5426 6.26246L25.5418 6.26288Z" fill="white"/>
<path d="M32.1971 7.99157C32.0407 7.883 31.8475 7.76604 31.6127 7.64154C32.0805 7.04963 32.4465 6.34035 32.7111 5.51454L33.3642 5.63233C33.2716 5.91193 33.1697 6.16932 33.0611 6.40449H34.2299V5.23535H34.8831V6.40449H36.9164V7.01107H34.8831V8.15589H36.729V8.76289H34.8831V10.0243H37.2199V10.5612H31.6823V10.0243H34.2299V8.76289H32.2206V8.15589H34.2299V7.01107H32.7811C32.6406 7.32253 32.4461 7.64992 32.1967 7.99241L32.1963 7.99157H32.1971Z" fill="white"/>
<path d="M38.0106 7.87512C37.9787 7.86044 37.9326 7.84326 37.8702 7.829C37.7297 7.78247 37.6367 7.75061 37.5893 7.73469C37.7457 7.25387 37.8547 6.59908 37.918 5.77327L38.3607 5.81938C38.3447 6.0688 38.3145 6.30984 38.268 6.54333H38.6659V5.25891H39.249V6.54333H39.7169V6.98726C40.059 6.47332 40.3239 5.89819 40.5109 5.25933L41.0953 5.3985C41.0635 5.4924 41.0027 5.6408 40.9088 5.84243C40.861 5.96735 40.8224 6.06125 40.7918 6.12329H43.1047C43.0888 6.63765 43.0649 7.46347 43.0343 8.60033C43.0028 9.16079 42.9881 9.52675 42.9881 9.69778C43.0028 10.3366 42.6926 10.6636 42.0537 10.6783H41.7024C41.5154 10.6946 41.3749 10.7022 41.2823 10.7022C41.2823 10.6703 41.2739 10.6158 41.2584 10.5391C41.2123 10.3203 41.1733 10.1803 41.1418 10.1174C41.4068 10.1333 41.6474 10.1413 41.8654 10.1413C42.2243 10.1572 42.4033 9.96984 42.4033 9.58041C42.4658 8.53745 42.5039 7.57916 42.5199 6.70723H42.1463C42.0679 8.65273 41.429 10.0004 40.2309 10.7479C40.1051 10.5932 39.95 10.4364 39.763 10.2817C40.9465 9.55022 41.6013 8.35887 41.7258 6.70765H41.3041C41.1649 7.8747 40.6975 8.81118 39.9034 9.5104C39.763 9.33937 39.6146 9.19055 39.4595 9.06647C40.2229 8.47415 40.6975 7.68815 40.884 6.70723H40.5101C40.339 7.06523 40.1445 7.38466 39.9269 7.66426C39.755 7.4949 39.6142 7.36076 39.5052 7.26812L39.6221 7.10379H39.2482V8.17861L39.7387 8.06166C39.7387 8.34252 39.7466 8.54541 39.7626 8.66865C39.5756 8.71644 39.4046 8.76297 39.2482 8.81076V10.8183H38.665V8.9491C38.3678 9.04174 38.0483 9.14444 37.7071 9.2526L37.6367 8.57517C37.9641 8.4972 38.3062 8.41211 38.6654 8.31821V7.10296H38.1972C38.1812 7.18093 38.151 7.29914 38.1033 7.45424C38.0727 7.65671 38.0425 7.79631 38.0106 7.87428L38.0102 7.87386L38.0106 7.87512Z" fill="white"/>
</svg>
