<svg width="61" height="61" viewBox="0 0 61 61" fill="none" xmlns="http://www.w3.org/2000/svg">
<path d="M0.677032 0.856689H60.677V60.8567H0.677032V0.856689Z" fill="#4C9F38"/>
<path d="M9.2388 18.146C11.2914 18.146 12.1838 17.0569 12.1838 15.38V13.5965C12.1838 12.4901 11.7038 11.7761 10.684 11.5448C11.524 11.2771 12.0755 10.5983 12.0755 9.58237V8.52926C12.0755 6.81636 11.2546 5.76367 9.38134 5.76367C7.27547 5.76367 6.54335 7.01176 6.54335 8.79656V9.86701H8.39925V8.63584C8.39925 7.88597 8.63187 7.45838 9.27391 7.45838C9.91594 7.45838 10.1477 7.88597 10.1477 8.54618V9.8484C10.1477 10.4913 9.7197 10.8292 9.06032 10.8292H8.29224V12.3826H9.14914C9.86265 12.3826 10.1477 12.7206 10.1477 13.3634V15.3618C10.1477 16.0038 9.86265 16.4509 9.23796 16.4509C8.54221 16.4509 8.29224 15.9861 8.29224 15.273V13.5423H6.43719V15.13C6.43719 16.9685 7.16804 18.1456 9.23711 18.1456H9.2388V18.146Z" fill="white"/>
<path d="M50.7927 38.3565C50.7927 36.6681 49.7129 35.2969 48.0685 35.2969C47.2488 35.2969 46.2587 36.1969 45.7207 36.7484C45.181 36.1948 44.259 35.2957 43.4406 35.2957C41.8 35.2957 40.65 36.6643 40.65 38.3556C40.65 38.3586 40.65 38.3624 40.65 38.3653C40.65 39.1676 40.9621 39.9395 41.5204 40.5155L45.7266 44.7293L49.9265 40.5206L49.9231 40.5177C50.4806 39.9412 50.7927 39.1693 50.7927 38.3674C50.7927 38.3641 50.7927 38.3607 50.7927 38.3573V38.3569V38.3565Z" fill="white"/>
<path d="M32.8855 51.6092H32.8423C32.523 51.5902 32.2582 51.3525 32.2049 51.037L30.0682 38.5925L26.8314 44.5927C26.7112 44.816 26.4778 44.9552 26.2236 44.9552C25.8802 44.9552 25.5892 44.7027 25.5401 44.363L24.1659 34.7602L21.6524 40.406C21.5415 40.6556 21.2941 40.8167 21.0213 40.8167L11.2516 40.8171C10.8866 40.7956 10.6011 40.4927 10.6011 40.1269C10.6011 39.7611 10.8866 39.4582 11.2516 39.4371H20.5726L23.8788 32.0112C23.99 31.7612 24.237 31.6005 24.5102 31.6005C24.8528 31.6005 25.1438 31.8517 25.1937 32.1909L26.6102 42.0906L29.8017 36.1733C29.9223 35.95 30.1557 35.8112 30.4095 35.8112C30.7458 35.8112 31.0329 36.0532 31.0905 36.3843L33.0703 47.9081L40.2795 23.9576C40.3679 23.6662 40.6364 23.4666 40.9414 23.4666C41.2061 23.4666 41.4485 23.618 41.564 23.8569L45.3578 31.7223C45.4065 31.8187 45.4323 31.9253 45.4323 32.034C45.4323 32.4155 45.1231 32.7247 44.7416 32.7247C44.4717 32.7247 44.2264 32.5673 44.1139 32.3224L41.0911 26.0579L33.5461 51.1182C33.459 51.41 33.19 51.6101 32.8855 51.6101V51.6092Z" fill="white"/>
<path d="M19.0508 8.16492H20.2232V10.7837H19.6298V10.2483C19.5215 10.6171 19.2898 10.8417 18.8414 10.8417C18.1322 10.8417 17.8069 10.2775 17.8069 9.51831V7.14564C17.8069 6.37885 18.1761 5.82227 19.0436 5.82227C19.9546 5.82227 20.2232 6.32852 20.2232 7.05217V7.48568H19.4708V6.98661C19.4708 6.68294 19.3549 6.50658 19.0584 6.50658C18.7619 6.50658 18.6312 6.71636 18.6312 7.01283V9.64604C18.6312 9.94252 18.7543 10.1523 19.0364 10.1523C19.3041 10.1523 19.442 10.0009 19.442 9.68199V8.81624H19.0508V8.16534V8.16492Z" fill="white"/>
<path d="M20.7646 9.51795V7.14527C20.7646 6.37848 21.141 5.8219 22.0089 5.8219C22.8772 5.8219 23.2604 6.37806 23.2604 7.14527V9.51795C23.2604 10.2775 22.8844 10.8413 22.0089 10.8413C21.1338 10.8413 20.7646 10.2771 20.7646 9.51795ZM22.4357 9.64821V7.01458C22.4357 6.7181 22.3054 6.50833 22.0089 6.50833C21.7124 6.50833 21.5889 6.7181 21.5889 7.01458V9.64821C21.5889 9.94469 21.7192 10.1545 22.0089 10.1545C22.2991 10.1545 22.4357 9.94469 22.4357 9.64821Z" fill="white"/>
<path d="M23.8031 9.51795V7.14527C23.8031 6.37848 24.1795 5.8219 25.0474 5.8219C25.9157 5.8219 26.2968 6.37806 26.2968 7.14527V9.51795C26.2968 10.2775 25.9208 10.8413 25.0461 10.8413C24.1715 10.8413 23.8031 10.2771 23.8031 9.51795ZM25.4741 9.64821V7.01458C25.4741 6.7181 25.3439 6.50833 25.0474 6.50833C24.7509 6.50833 24.6274 6.7181 24.6274 7.01458V9.64821C24.6274 9.94469 24.7577 10.1545 25.0474 10.1545C25.3375 10.1545 25.4741 9.94469 25.4741 9.64821Z" fill="white"/>
<path d="M29.3077 7.19612V9.46729C29.3077 10.2197 28.9969 10.7839 28.1146 10.7839H26.8415V5.87952H28.1146C28.9969 5.87952 29.3077 6.43737 29.3077 7.1957V7.19612ZM28.0131 10.111C28.3536 10.111 28.4834 9.90884 28.4834 9.61194V7.04471C28.4834 6.75457 28.3536 6.55283 28.0131 6.55283H27.6663V10.111H28.0131Z" fill="white"/>
<path d="M32.5919 8.621H31.7964V10.7839H30.9716V5.87952H31.7964V7.95529H32.5919V5.87952H33.4235V10.7839H32.5919V8.621Z" fill="white"/>
<path d="M33.9661 5.87952H35.9341V6.55241H34.7942V7.95529H35.6114V8.621H34.7913V10.1106H35.9311V10.7839H33.9631L33.9661 5.87952Z" fill="white"/>
<path d="M36.3169 10.7839L37.2431 5.87952H38.1833L39.1164 10.7839H38.2696L38.1169 9.88727H37.2431L37.0968 10.7839H36.3169ZM37.3514 9.22876H38.0112L37.6859 7.26083H37.6788L37.3514 9.22876Z" fill="white"/>
<path d="M39.5287 5.87952H40.3531V10.1106H41.3368V10.7839H39.5287V5.87952Z" fill="white"/>
<path d="M41.2214 5.87952H43.4131V6.55241H42.7334V10.7839H41.901V6.55241H41.2214V5.87952Z" fill="white"/>
<path d="M45.4889 8.621H44.6934V10.7839H43.869V5.87952H44.6934V7.95529H45.4889V5.87952H46.3204V10.7839H45.4889V8.621Z" fill="white"/>
<path d="M17.6826 17.9747L18.608 13.0703H19.5482L20.4812 17.9747H19.6362L19.4847 17.0747H18.608L18.4637 17.9747H17.6826ZM18.7171 16.4196H19.3769L19.0508 14.452H19.0436L18.7167 16.4196H18.7171Z" fill="white"/>
<path d="M21.5889 14.8931V17.9746H20.897V13.0707H21.7073L22.5968 15.8845V13.0707H23.2841V17.9746H22.5575L21.5889 14.8931Z" fill="white"/>
<path d="M26.2904 14.3873V16.6585C26.2904 17.4109 25.9796 17.9747 25.0969 17.9747H23.8238V13.0703H25.0969C25.9796 13.0703 26.2904 13.6273 26.2904 14.3869V14.3873ZM24.9958 17.3022C25.3358 17.3022 25.4661 17.1001 25.4661 16.8032V14.2376C25.4661 13.9483 25.3358 13.7466 24.9958 13.7466H24.6481V17.3048L24.9958 17.3026V17.3022Z" fill="white"/>
<path d="M29.4439 14.9439L28.9812 17.9746H28.2072L27.5474 13.0707H28.343L28.7262 16.181H28.7334L29.1457 13.0707H29.8182L30.2742 16.181H30.2814L30.6578 13.0707H31.3518L30.7153 17.9746H29.9354L29.4507 14.9439H29.4439Z" fill="white"/>
<path d="M31.7803 13.0707H33.7479V13.7436H32.6076V15.1465H33.4247V15.8126H32.6055V17.3022H33.7453V17.9746H31.7803V13.0707Z" fill="white"/>
<path d="M34.2613 13.0707H35.0861V17.3022H36.0699V17.9746H34.2613V13.0707Z" fill="white"/>
<path d="M36.5186 13.0707H37.3429V17.3022H38.3271V17.9746H36.5186V13.0707Z" fill="white"/>
<path d="M38.218 15.0775H39.3769V15.7373H38.218V15.0775Z" fill="white"/>
<path d="M39.8679 13.0707H41.0611C41.8854 13.0707 42.1603 13.4539 42.1603 14.1505V14.6496C42.1603 15.0615 42.0089 15.322 41.6693 15.4295C42.0812 15.5229 42.2838 15.7978 42.2838 16.2466V16.8975C42.2838 17.5919 41.973 17.9772 41.1486 17.9772H39.8684V13.0703L39.8679 13.0707ZM40.6923 15.1376H40.9816C41.2493 15.1376 41.3719 15.0002 41.3719 14.7396V14.1395C41.3719 13.8718 41.2522 13.7419 40.9744 13.7419H40.6923V15.1376ZM40.6923 15.767V17.3005H41.0522C41.3271 17.3005 41.457 17.1635 41.457 16.903V16.1649C41.457 15.9044 41.3343 15.767 41.045 15.767H40.6923Z" fill="white"/>
<path d="M42.7681 13.0707H44.7352V13.7436H43.5958V15.1465H44.4134V15.8126H43.5924V17.3022H44.7323V17.9746H42.7681V13.0707Z" fill="white"/>
<path d="M45.2491 13.0707H46.0734V17.9746H45.2491V13.0707Z" fill="white"/>
<path d="M47.3178 14.8931V17.9746H46.6237V13.0707H47.4337L48.3235 15.8845V13.0707H49.0108V17.9746H48.2905L47.3178 14.8931Z" fill="white"/>
<path d="M50.7974 15.3567H51.9689V17.9751H51.3768V17.4401C51.2681 17.8089 51.0372 18.0335 50.5884 18.0335C49.8796 18.0335 49.5539 17.4693 49.5539 16.7097V14.3374C49.5539 13.5706 49.9227 13.014 50.791 13.014C51.7021 13.014 51.9698 13.5203 51.9698 14.2431V14.6775H51.2161V14.1784C51.2161 13.8747 51.1006 13.6984 50.8041 13.6984C50.5076 13.6984 50.377 13.9081 50.377 14.2046V16.8378C50.377 17.1343 50.4966 17.3436 50.7826 17.3436C51.0503 17.3436 51.1873 17.1918 51.1873 16.8738V16.008H50.7969V15.3571L50.7974 15.3567Z" fill="white"/>
</svg>
