<svg width="61" height="61" viewBox="0 0 61 61" fill="none" xmlns="http://www.w3.org/2000/svg">
<path d="M0.16394 60.6812H60.1639V0.681152H0.16394V60.6812Z" fill="#C60F28"/>
<path d="M26.7779 32.8423L16.0173 26.6261V46.7338L26.7779 49.981V32.8423Z" fill="white"/>
<path d="M27.961 32.8832V49.99L38.792 46.7313V26.6266L27.961 32.8832Z" fill="white"/>
<path d="M45.0094 46.3774H44.6928L45.9669 50.8291L47.2383 46.3774H46.9222H47.2383V28.4869H46.9222H46.6069H46.271H45.6366H45.3251H45.0094H44.692V46.3774H45.0094Z" fill="white"/>
<path d="M41.1037 27.4899L39.9493 26.578V47.2783L27.9936 51.1434H27.4394H27.3295H26.7779L14.8736 47.8177V26.578L13.7201 27.4899V48.6279L26.7234 52.2269H27.3295H27.4394H28.0472L40.0437 48.4176L41.1037 48.1057V27.4899Z" fill="white"/>
<path d="M47.2392 26.1173C47.2392 25.4126 46.6682 24.8428 45.9669 24.8428C45.2625 24.8428 44.6933 25.4131 44.6933 26.1173V27.4896H47.2392V26.1173Z" fill="white"/>
<path d="M9.57203 17.791H11.4989V15.8278H12.3204V14.2388H11.4989V5.68811H9.50082L5.9863 14.5773V15.8278H9.57246V17.791L9.57203 17.7914V17.791ZM7.76951 14.2392L9.58962 9.25968H9.60806V14.2392H7.76994H7.76951Z" fill="white"/>
<path d="M17.0927 8.93871C17.0468 8.62716 16.9992 8.34695 16.9528 8.09849C17.4813 7.33465 17.8953 6.49358 18.1913 5.57397L18.8227 5.78381C18.6653 6.23568 18.4791 6.67166 18.2612 7.0922V11.1358H17.6533V8.16672C17.4672 8.4169 17.2806 8.6748 17.0927 8.93871ZM18.6121 7.65435V7.04629H19.7325C19.7484 6.56395 19.7561 6.08034 19.7561 5.59758H20.3867C20.3867 5.78424 20.379 6.04987 20.3631 6.39188V7.04629H22.4891V7.65435H20.3164C20.285 9.0713 19.7947 10.2411 18.8441 11.1598L18.3538 10.6693C19.2259 9.87333 19.6699 8.86876 19.6854 7.65435H18.6112H18.6116H18.6121ZM21.2283 10.9723C20.7295 10.9882 20.4888 10.7543 20.5043 10.2716V7.72344H21.1348V10.1317C21.1185 10.3338 21.2048 10.4278 21.3909 10.4114H21.6251C21.8122 10.4114 21.9211 10.3033 21.9529 10.0853C21.9529 10.054 21.9593 9.99949 21.9769 9.92139C22.0073 9.60899 22.0297 9.36053 22.0455 9.173C22.0931 9.18888 22.1716 9.21935 22.2797 9.26569C22.4513 9.31333 22.5676 9.35281 22.6311 9.38327C22.5835 9.77163 22.5371 10.0999 22.4899 10.3655C22.3973 10.7698 22.1318 10.9719 21.6955 10.9719H21.2288L21.2283 10.9723ZM21.6951 6.88279C21.3845 6.61845 21.0885 6.37686 20.8067 6.15844L21.2048 5.7379C21.5308 5.97048 21.8349 6.20435 22.1146 6.43865L21.6946 6.88279H21.6951Z" fill="white"/>
<path d="M23.4894 11.1594C23.3809 11.05 23.2175 10.9019 22.9991 10.7153C23.4036 10.1707 23.5911 9.30519 23.5594 8.12082V5.8997C25.3207 5.88554 26.9092 5.80701 28.3269 5.66711L28.5594 6.22797C28.0133 6.27389 27.4149 6.3138 26.7599 6.34427V6.97593H28.5834V7.49002H26.7599V8.02813H28.2553V9.92098H27.6487V8.56453H25.2654V9.92098H24.6811V8.02813H26.1297V7.49002H24.401V6.97593H26.1297V6.39147C25.2731 6.42279 24.6193 6.43781 24.1672 6.43781V8.144C24.1672 8.92371 24.1213 9.51503 24.0287 9.92055C23.9343 10.3261 23.755 10.7385 23.4894 11.159H23.4899L23.4894 11.1594ZM24.401 11.1835C24.3697 11.1362 24.3311 11.0659 24.2847 10.9719C24.2071 10.817 24.1436 10.6994 24.0973 10.6217C25.4056 10.4355 26.0834 10.0218 26.1297 9.38329C26.161 9.21122 26.1769 9.03313 26.1769 8.84518H26.8075C26.8075 9.0327 26.7912 9.21122 26.7599 9.38329C26.7457 9.52319 26.7136 9.64892 26.6677 9.75706C27.3214 10.0373 27.9914 10.3179 28.6769 10.5981L28.3492 11.1594C27.8194 10.8475 27.1893 10.5278 26.4575 10.2012C26.1297 10.6217 25.4451 10.9492 24.401 11.1835Z" fill="white"/>
<path d="M29.3967 6.78888V6.29882H30.1925V5.59678H30.7527V6.29882H31.4065V6.78888H30.7527V7.32699H31.0088C31.3833 6.84337 31.6548 6.43914 31.8268 6.1113L32.2708 6.36877C32.0688 6.72665 31.8504 7.04506 31.6171 7.32656H31.9431V7.81705H31.219C31.0792 7.95737 30.9312 8.10542 30.7754 8.26119H31.7106V8.72807L31.0088 9.35973V9.40565C31.1173 9.38977 31.2666 9.37518 31.4532 9.35973C31.7029 9.32841 31.8813 9.30524 31.9907 9.28936C31.9907 9.52323 31.9984 9.69445 32.0147 9.80344L31.0092 9.92017V10.4115C31.0092 10.8166 30.7995 11.0423 30.3791 11.0882H29.655C29.6237 10.9179 29.5919 10.7458 29.5615 10.5741C29.6237 10.5741 29.7253 10.5823 29.8656 10.5982H30.1457C30.3636 10.5823 30.4657 10.4965 30.4499 10.3407V9.99054L29.2355 10.1545L29.1883 9.64038L30.4499 9.47646V9.24258L31.0577 8.7285H30.2161C29.966 8.9319 29.6799 9.13402 29.3504 9.33656C29.3204 9.25975 29.2423 9.14217 29.1179 8.9864C29.1025 8.93877 29.0866 8.90873 29.072 8.89242C29.1325 8.84608 29.2277 8.79201 29.3504 8.7285C29.4602 8.64997 29.546 8.59719 29.6082 8.56586V8.26162H30.0286C30.1071 8.19982 30.2238 8.09769 30.3799 7.95737C30.4584 7.89515 30.5121 7.8488 30.5438 7.81705H29.1655V7.32656H30.1938V6.78845H29.398H29.3972L29.3967 6.78888ZM32.1074 8.70576C32.0911 8.67443 32.0611 8.62808 32.0147 8.56586C31.9199 8.36375 31.8427 8.22257 31.7805 8.14404C32.2168 7.44371 32.5273 6.58719 32.7148 5.57361L33.3227 5.64355C33.2913 5.78474 33.2442 5.97913 33.1811 6.2293C33.1348 6.38336 33.1035 6.49321 33.0889 6.55544H34.7241V7.13947H34.2805C34.217 8.16764 34.0004 8.97825 33.6268 9.57043C33.9211 9.9442 34.311 10.2643 34.7944 10.5287C34.779 10.5591 34.7473 10.6072 34.7009 10.669C34.5911 10.8406 34.5066 10.9874 34.4435 11.1127C33.8988 10.7226 33.5105 10.3802 33.275 10.0845C32.9645 10.427 32.5273 10.793 31.9671 11.1831C31.9195 11.1367 31.8586 11.0591 31.7801 10.9488C31.6866 10.8248 31.6085 10.7308 31.5467 10.669C32.1529 10.3261 32.6127 9.96007 32.9246 9.57043C32.6908 9.16577 32.5205 8.69803 32.4107 8.16807C32.3172 8.34015 32.2163 8.51823 32.1065 8.70618H32.107L32.1074 8.70576ZM32.8092 7.34974C32.9014 8.0359 33.0576 8.59719 33.2755 9.0336C33.5256 8.54956 33.6808 7.91918 33.7435 7.13904H32.8791C32.8632 7.20126 32.8396 7.27292 32.8092 7.34931V7.34974Z" fill="white"/>
<path d="M35.2337 6.60219V6.11171H37.7573C37.7414 6.04949 37.7097 5.95551 37.6646 5.83021C37.632 5.73752 37.6093 5.66757 37.5934 5.62079L38.3175 5.54956L38.4814 6.11128H40.7948V6.60176H39.1596C39.7198 6.96094 40.211 7.29565 40.6318 7.60633L40.2114 8.00456L39.7203 7.65439C38.7542 7.65439 37.7105 7.67027 36.5888 7.70074C36.2787 7.70074 36.014 7.72477 35.7961 7.77069L35.6086 7.2802C35.8728 7.18622 36.0762 7.09268 36.2165 7.00042C36.4185 6.8764 36.6124 6.74251 36.8003 6.60219H35.2345V6.60176L35.2337 6.60219ZM35.8874 11.1358V8.05047H40.1634V10.3875C40.1792 10.8556 39.921 11.0895 39.3929 11.0895H38.4578C38.4273 11.0273 38.3879 10.8938 38.3411 10.6926C38.3253 10.6449 38.3171 10.6055 38.3171 10.575H39.1587C39.4225 10.5891 39.5469 10.4965 39.5324 10.2952V10.1776H36.5184V11.1358H35.887H35.8874ZM36.5189 8.93875H39.5328V8.49504H36.5189V8.93875ZM36.5189 9.78026H39.5328V9.33569H36.5189V9.78026ZM36.7535 7.23343C37.0019 7.21927 37.3918 7.21068 37.9216 7.21068C38.4514 7.19438 38.8477 7.18665 39.1124 7.18665C39.0502 7.12443 38.9421 7.04633 38.786 6.95278C38.6461 6.84422 38.5359 6.76612 38.4582 6.71848L38.6221 6.60219H37.6651C37.3678 6.83606 37.0641 7.0459 36.7535 7.233V7.23343Z" fill="white"/>
</svg>
