<svg width="61" height="61" viewBox="0 0 61 61" fill="none" xmlns="http://www.w3.org/2000/svg">
<path d="M0.141632 60.0215H60.1416V0.0214844H0.141632V60.0215Z" fill="#00A6D9"/>
<path d="M41.193 24.2699C41.1426 24.2141 41.0738 24.1838 40.9966 24.1838H19.2283C19.1527 24.1838 19.0822 24.2145 19.0319 24.2699C18.9841 24.3307 18.9656 24.4055 18.9773 24.4755L22.6346 46.6019C22.6544 46.7228 22.7618 46.8143 22.8856 46.8143H27.3737L27.6812 50.4185L25.7922 50.4197L30.1876 54.8164L34.5934 50.4109L32.7056 50.4134L33.0119 46.8143H37.5793C37.7052 46.8143 37.8101 46.7228 37.8286 46.5981L41.2513 24.476C41.2618 24.4004 41.2392 24.3274 41.1926 24.2703V24.2699H41.193ZM32.7799 41.9828C32.7799 41.9828 31.7917 42.9989 30.1825 42.889C28.5691 42.9994 27.5822 41.9828 27.5822 41.9828C25.952 40.3534 26.5332 38.3253 27.1009 37.2772C27.4526 36.6216 29.9572 32.8571 30.172 32.5372V32.5121C30.172 32.5121 30.1758 32.5175 30.1825 32.5242L30.1905 32.5121V32.5372C30.4016 32.8575 32.9095 36.6216 33.2616 37.2772C33.8293 38.3257 34.4088 40.3534 32.7799 41.9828ZM39.6866 28.9251C39.0962 28.6653 38.3481 28.7584 37.6305 29.0485C34.9295 30.1448 33.0908 30.5389 30.2505 29.6483C28.4609 29.0883 26.7866 27.9152 24.809 28.6292C23.4957 29.1026 22.2725 29.5526 20.7875 29.5404L19.9294 25.1446H40.3022L39.6866 28.9251Z" fill="white"/>
<path d="M9.21982 17.2904C11.3783 17.2904 12.2179 16.1122 12.2179 14.2373V12.4526C12.2179 10.4723 11.4312 9.4721 9.9684 9.4721C9.11282 9.4721 8.59545 9.86581 8.29165 10.4538H8.27445V7.84776C8.27445 7.11492 8.50691 6.59907 9.23745 6.59907C9.9684 6.59907 10.1837 7.02761 10.1837 7.77599V8.58018H12.0396V7.93674C12.0396 6.15206 11.4509 4.90295 9.20178 4.90295C7.06053 4.90295 6.25824 6.27798 6.25824 8.16885V14.0589C6.25824 15.9342 7.07815 17.2899 9.22024 17.2899L9.21982 17.2904ZM8.27403 12.2028C8.30844 11.5246 8.59503 11.096 9.23703 11.096C9.93232 11.096 10.2004 11.5246 10.2004 12.3099V14.4173C10.2004 15.1846 9.91511 15.6299 9.21982 15.6299C8.54048 15.6299 8.27403 15.1653 8.27403 14.4173V12.2024V12.2028Z" fill="white"/>
<path d="M18.3806 7.69535C18.3643 7.67898 18.342 7.65673 18.3114 7.62483C18.1087 7.43764 17.8431 7.20385 17.5158 6.92389L17.9363 6.50332C18.264 6.76733 18.5598 7.01665 18.8238 7.25044L18.3806 7.69493V7.69535ZM18.2401 10.4525L17.6325 10.2414C17.7877 9.82085 17.9908 9.13627 18.2401 8.18601C18.272 8.20196 18.3114 8.21665 18.358 8.23218C18.5741 8.31025 18.7306 8.36481 18.8233 8.39545C18.6681 8.98853 18.4734 9.6731 18.2397 10.4521L18.2401 10.4525ZM18.5678 6.19818C18.1935 5.82546 17.914 5.55348 17.7269 5.38097L18.1473 4.98307C18.256 5.0624 18.4046 5.18622 18.5905 5.35831C18.7919 5.52956 18.9421 5.66093 19.0348 5.75495L18.5682 6.19818H18.5678ZM19.1515 5.75495V5.33438H20.7636V4.88989H21.3708V5.33438H23.0995V5.75495H21.3708V6.105H22.9376V6.4794H21.3708V6.8538H23.2175V7.27436H19.0122V6.8538H20.7636V6.4794H19.292V6.105H20.7636V5.75495H19.1515ZM19.3386 10.4765V7.60217H22.8197V9.70416C22.8503 10.1873 22.6006 10.4299 22.0728 10.4299H21.1836C21.153 10.2414 21.1064 10.0781 21.0443 9.93753C21.2298 9.9539 21.4954 9.96146 21.8374 9.96146C22.103 9.97741 22.2272 9.87625 22.2117 9.65757V9.54089H19.9458V10.4765H19.3382H19.3386ZM19.9466 8.39545H22.2125V8.02274H19.9466V8.39545ZM19.9466 9.14383H22.2125V8.77111H19.9466V9.14383Z" fill="white"/>
<path d="M24.4981 7.76506C24.436 7.70253 24.3353 7.60977 24.1947 7.48385C23.9451 7.23579 23.7504 7.05489 23.6098 6.94786L24.0076 6.50336C24.35 6.76863 24.6613 7.03306 24.9429 7.29833L24.4985 7.76506V7.76548L24.4981 7.76506ZM24.3815 10.4757L23.75 10.2419C24.0311 9.55562 24.256 8.87105 24.4276 8.18521C24.5061 8.2318 24.6387 8.28595 24.8241 8.34849C24.9186 8.38038 24.989 8.40431 25.0352 8.419C24.9727 8.6381 24.8632 8.98017 24.7088 9.44733C24.5669 9.91407 24.4595 10.257 24.381 10.4757H24.3815ZM24.7092 6.22131C24.6471 6.16045 24.5447 6.06727 24.4054 5.94135C24.1247 5.69161 23.9224 5.50567 23.7965 5.38143L24.1947 4.95919C24.2728 5.02257 24.3894 5.12372 24.5447 5.26307C24.8246 5.4977 25.0277 5.66895 25.1523 5.77808L24.7088 6.22131H24.7092ZM25.2933 6.24481V5.6849H26.905V4.93652H27.5352V5.6849H29.2648V6.24481H27.5352V7.01585H29.0542V7.55352H25.4326V7.01585H26.905V6.24481H25.2933ZM25.5736 10.4996V8.16171H28.9141V10.4996H28.2838V10.1495H26.1807V10.4996H25.5731H25.5736ZM26.1812 9.65845H28.2842V8.70022H26.1812V9.65845Z" fill="white"/>
<path d="M29.9614 7.57788L29.6337 7.04021C29.9761 6.35563 30.2266 5.63748 30.3818 4.88953L30.989 4.96004C30.9265 5.22531 30.8564 5.47505 30.7779 5.70841H31.9004V6.19949L31.5261 7.2039C31.3696 7.15773 31.1984 7.1187 31.0112 7.08722L31.3616 6.22216H30.5908C30.4674 6.61209 30.2564 7.06455 29.9605 7.57788V7.5783L29.9614 7.57788ZM30.5694 10.2889L30.1951 9.82216C30.3344 9.69708 30.3965 9.54094 30.3822 9.35542V6.92436H30.9659V9.30757C30.9974 9.27693 31.0599 9.23706 31.1526 9.19047C31.4338 9.01922 31.6356 8.88659 31.7602 8.79383C31.7909 8.91891 31.8148 9.09771 31.8307 9.3315C31.8454 9.37809 31.8534 9.41796 31.8534 9.4486C31.7753 9.49477 31.6579 9.56529 31.5034 9.65973C31.2391 9.79908 31.0368 9.91534 30.8958 10.0098C30.8795 10.0245 30.8652 10.0404 30.8493 10.0559C30.7246 10.1344 30.6302 10.2112 30.5694 10.2897V10.2893V10.2889ZM31.9012 10.4988C31.8693 10.4681 31.8232 10.4136 31.7607 10.3355C31.6356 10.1642 31.5349 10.0396 31.4569 9.96109C32.4392 9.44776 32.9998 8.69897 33.1391 7.71849C33.1697 7.39068 33.1856 7.02468 33.1856 6.61964H33.7928C33.7928 6.8996 33.7848 7.16487 33.7702 7.41461C33.9401 8.53612 34.4864 9.355 35.4049 9.86833C35.3277 9.94556 35.2094 10.0866 35.0558 10.2889C35.008 10.3514 34.9778 10.398 34.9614 10.4295C34.2145 9.88428 33.7303 9.23664 33.5129 8.48953C33.3417 9.25217 32.8046 9.92247 31.9012 10.4988ZM34.8208 7.41502C34.6341 7.33696 34.439 7.27442 34.2372 7.22825L34.658 6.27001H32.928C32.7732 6.69058 32.5936 7.11114 32.3922 7.53213C32.3443 7.51576 32.2818 7.48428 32.2054 7.43769C32.0485 7.34493 31.9243 7.28239 31.8311 7.25091C32.2201 6.51975 32.5155 5.73108 32.7186 4.89037L33.3501 5.00831C33.2876 5.24042 33.2096 5.47505 33.1156 5.70883H35.2421V6.27043L34.8213 7.41544L34.8208 7.41502Z" fill="white"/>
<path d="M36.0558 9.96111C36.0243 9.88304 35.9635 9.77517 35.8691 9.63456C35.8065 9.52585 35.7604 9.44778 35.7285 9.39993C36.5232 8.63813 37.0301 7.77307 37.2475 6.80728H35.916V6.22218H37.902V6.78335C37.6364 8.03078 37.0226 9.08975 36.0562 9.96153L36.0558 9.96111ZM41.1024 9.84484C40.0756 9.08178 39.3581 8.1781 38.9523 7.13382V9.51829C38.9838 10.0942 38.7043 10.3901 38.1127 10.406H37.7384C37.5353 10.4207 37.3792 10.4299 37.2718 10.4299C37.2559 10.3196 37.2252 10.1789 37.1774 10.009C37.1614 9.91494 37.1468 9.8524 37.1312 9.82218H37.832C38.1597 9.82218 38.3149 9.67359 38.2986 9.37769V4.91431H38.9527V5.89605C39.0933 6.28514 39.2502 6.64316 39.421 6.97097C39.8415 6.61252 40.2623 6.2226 40.6828 5.80245L41.1737 6.27086C40.7994 6.61336 40.3169 7.02595 39.7252 7.50864C40.1302 8.13235 40.7134 8.71661 41.4763 9.26184C41.4301 9.33991 41.3529 9.46457 41.2442 9.63582C41.1817 9.74495 41.1355 9.81504 41.1036 9.84568L41.1032 9.84484H41.1024Z" fill="white"/>
<path d="M41.9156 7.15725V6.59733H42.897V5.82672C42.8043 5.82672 42.6633 5.83469 42.4766 5.84938C42.2735 5.84938 42.1266 5.85736 42.0322 5.87289C42.0163 5.79482 42.0008 5.68611 41.9861 5.54508C41.9554 5.43595 41.9395 5.35116 41.9395 5.28779C42.8735 5.25715 43.6456 5.203 44.2532 5.12451L44.3699 5.68611C44.0887 5.73228 43.7929 5.76292 43.4811 5.77887V6.59733H44.4391V7.15725H43.4811V7.90562L43.6918 7.69576C43.7845 7.77299 43.9255 7.89765 44.1126 8.0689C44.2985 8.24015 44.4391 8.36439 44.5331 8.44287L44.1365 8.90961C44.0732 8.84707 43.9721 8.73836 43.8315 8.5818C43.6762 8.42651 43.5596 8.30982 43.4815 8.23175V10.4756H42.8975V8.11507C42.6948 8.5818 42.4065 9.05861 42.0326 9.5413C42.0167 9.46323 41.9785 9.34655 41.916 9.19125C41.8694 9.03469 41.8308 8.91759 41.7989 8.8412C42.2038 8.41895 42.5395 7.85861 42.8043 7.15683H41.9156V7.15725ZM44.7429 10.3115V5.47456H47.2437V10.2888H46.6366V9.77509H45.3509V10.3115H44.7433H44.7429ZM45.3505 9.21433H46.6361V6.03616H45.3505V9.21433Z" fill="white"/>
<path d="M17.6094 17.6744V17.0905H19.4322V13.3516H17.891V12.7195H22.7727C22.7727 12.8765 22.7647 13.1338 22.75 13.4905C22.7341 14.1923 22.7181 14.6519 22.7022 14.8706C22.7181 15.6332 22.3455 16.0064 21.5823 15.9921C21.3477 16.0068 21.0515 16.0148 20.6935 16.0148C20.647 15.7965 20.5991 15.5636 20.553 15.3138C20.7544 15.3302 21.0359 15.3377 21.3939 15.3377C21.8303 15.3839 22.0493 15.1745 22.0493 14.7056V14.1684C22.064 13.7952 22.072 13.522 22.072 13.3512H20.1103V17.0901H23.1705V17.6739H17.6094V17.6744Z" fill="white"/>
<path d="M24.2644 15.1271C24.1079 15.018 23.9144 14.9013 23.6807 14.7767C24.1473 14.1836 24.5136 13.4747 24.7793 12.6495L25.433 12.7666C25.3386 13.0465 25.2375 13.3038 25.1292 13.5389H26.2974V12.3704H26.9511V13.5389H28.9837V14.1454H26.9511V15.2904H28.7966V15.8982H26.9511V17.1603H29.2875V17.698H23.7504V17.1603H26.2974V15.8982H24.2875V15.2904H26.2974V14.1454H24.8472C24.7079 14.4572 24.5128 14.7851 24.2636 15.128L24.264 15.1275L24.2644 15.1271Z" fill="white"/>
<path d="M30.5224 17.6513L30.1259 17.2303C30.2329 17.0754 30.2891 16.9042 30.2891 16.717V14.8471H29.7042V14.262H30.8959V16.482C31.0843 16.296 31.271 16.1008 31.4569 15.8977C31.5349 16.1315 31.6054 16.3267 31.668 16.482C31.5899 16.56 31.4649 16.6847 31.2937 16.8563C31.0923 17.0431 30.9357 17.1917 30.8271 17.3008C30.7167 17.4259 30.616 17.5422 30.5233 17.6513L30.5224 17.6509V17.6513ZM30.8262 13.7949C30.7948 13.7642 30.7482 13.7088 30.6857 13.6316C30.5145 13.4125 30.2971 13.1246 30.0319 12.7665L30.5451 12.4387C30.8569 12.7665 31.138 13.1019 31.3877 13.4444L30.8262 13.7944V13.7949ZM31.4103 17.9774C31.3797 17.9309 31.3239 17.8381 31.2471 17.6975C31.1686 17.5728 31.1145 17.4801 31.0839 17.4175C31.7523 17.261 32.3058 17.0671 32.7417 16.8337C32.3838 16.5059 32.0561 16.0605 31.7615 15.4998L31.9713 15.3844H31.5731V14.8232H34.9153V15.431C34.6035 15.9921 34.2292 16.4673 33.7941 16.8563C34.199 17.0754 34.7122 17.2383 35.3353 17.3474C35.2107 17.5648 35.1096 17.76 35.0315 17.9313C34.2368 17.6832 33.6456 17.4482 33.2566 17.2303C32.7736 17.5262 32.1572 17.7756 31.4103 17.9779L31.4099 17.9774H31.4103ZM31.738 14.6822C31.6755 14.5894 31.5349 14.4328 31.3176 14.2154C31.8627 13.9816 32.1106 13.6316 32.0645 13.1644V12.6259H34.5653V13.585C34.549 13.8024 34.6501 13.9031 34.8687 13.8885H35.3823L35.2879 14.4261H34.6119C34.1596 14.4261 33.9422 14.2394 33.9582 13.865V13.1867H32.6725V13.3273C32.7191 13.8885 32.4073 14.3401 31.7389 14.6822H31.7384H31.738ZM32.3695 15.3839C32.6175 15.8352 32.9133 16.2095 33.257 16.5055C33.646 16.2255 33.9724 15.8515 34.2372 15.3839H32.3695Z" fill="white"/>
<path d="M39.4437 16.9269V15.2203L38.8361 15.3383V16.9026C38.8214 17.2144 38.9767 17.355 39.3027 17.3231H40.3307C40.6584 17.3395 40.8376 17.2384 40.8691 17.0193C40.8691 17.0054 40.8758 16.9651 40.8917 16.9026C40.8917 16.8253 40.9157 16.6931 40.9622 16.5059C41.0235 16.5223 41.1095 16.5538 41.2195 16.5987C41.3265 16.6306 41.4053 16.6621 41.4532 16.6931C41.4213 16.9424 41.3747 17.1456 41.3126 17.2996C41.2501 17.6589 40.969 17.8306 40.4713 17.8159H39.069C38.5541 17.8159 38.2986 17.5666 38.2986 17.0675V15.4541L38.0174 15.5003L37.9709 14.9869L38.2986 14.9164V14.286C38.2667 14.3326 38.2281 14.3712 38.1815 14.4031C38.0565 14.2625 37.9243 14.1231 37.785 13.9821L37.9004 13.8415H36.827C36.827 14.1227 36.819 14.3804 36.8035 14.6146H37.8316C37.8316 15.3152 37.8152 16.0942 37.785 16.95C37.7997 17.5116 37.5739 17.7928 37.1073 17.7928C36.9344 17.8067 36.7796 17.8163 36.6386 17.8163C36.6239 17.7383 36.5933 17.6132 36.5459 17.4419C36.5299 17.3639 36.5144 17.3097 36.4997 17.2774C36.5937 17.2933 36.7334 17.3001 36.9202 17.3001C37.1384 17.3001 37.2546 17.1687 37.2705 16.9034C37.3012 16.2969 37.3167 15.7038 37.3167 15.128H36.8035V15.1506C36.8035 16.3981 36.5778 17.324 36.1254 17.9317C36.0948 17.9011 36.023 17.839 35.916 17.745C35.8216 17.6522 35.7511 17.5817 35.705 17.5351C36.0629 17.0201 36.2501 16.2419 36.266 15.1985V14.5907C36.2807 14.2629 36.2895 14.0136 36.2895 13.8423H35.8451V13.3051H36.7788C36.7162 13.0092 36.6382 12.7208 36.545 12.4409L37.1526 12.3704C37.1686 12.4329 37.1908 12.5257 37.2231 12.6503C37.3003 12.9462 37.3557 13.1653 37.3864 13.3047H37.97V13.7731C38.2977 13.3832 38.5621 12.916 38.7648 12.3704L39.3967 12.417C39.3023 12.6503 39.2095 12.8614 39.1168 13.0486H41.3827V13.5846H38.8118C38.6724 13.8037 38.5 14.0304 38.2986 14.2629H38.8357V14.8241L39.4433 14.6835V13.7731H39.9808V14.5903L41.1725 14.333C41.1725 14.4417 41.1657 14.6062 41.1498 14.8241C41.1334 15.2753 41.1179 15.6111 41.102 15.8293C41.102 16.2499 40.9387 16.469 40.6127 16.4833C40.5024 16.4992 40.3391 16.5068 40.1218 16.5068C40.1054 16.4128 40.0739 16.281 40.0274 16.1101C40.0114 16.0623 40.0047 16.0241 40.0047 15.9934C40.066 16.0081 40.1759 16.0161 40.3312 16.0161C40.5183 16.0161 40.6123 15.9309 40.6123 15.7588C40.6429 15.4789 40.6584 15.2144 40.6584 14.9651L39.9808 15.1045V16.9282H39.4433V16.9269H39.4437Z" fill="white"/>
</svg>
