<svg width="61" height="61" viewBox="0 0 61 61" fill="none" xmlns="http://www.w3.org/2000/svg">
<path d="M0.806458 60.9873H60.8065V0.987305H0.806458V60.9873Z" fill="#427935"/>
<path d="M53.2791 38.5498C51.6982 36.3335 44.5486 27.4807 31.2559 27.4807C17.9615 27.4807 10.8136 36.3339 9.23098 38.5498C9.16349 38.6454 9.10521 38.7272 9.05742 38.7963C9.10521 38.8676 9.16349 38.9502 9.23098 39.0453C10.8136 41.2612 17.9615 50.1144 31.2559 50.1144C44.5486 50.1144 51.6982 41.2608 53.2791 39.0453C53.3483 38.9497 53.4049 38.8676 53.4502 38.7963C53.4049 38.7272 53.3483 38.6454 53.2791 38.5498ZM23.8413 33.0788C23.9608 32.9027 24.3599 32.4001 24.4077 32.338C24.5096 32.2056 24.7125 32.1775 24.8554 32.1523C24.9959 32.1255 25.1858 32.2052 25.208 32.3112C25.2319 32.4177 25.1522 32.8281 25.0835 32.8998C24.8881 33.101 24.3809 33.3873 24.1012 33.3425C23.8853 33.3093 23.8002 33.1421 23.8413 33.0788ZM23.3667 34.0224C23.3864 33.9973 23.4066 33.9759 23.4145 33.9667C23.5818 33.7759 23.9143 33.7344 24.1448 33.6988C24.3746 33.659 24.6819 33.7759 24.7183 33.9293C24.7582 34.0803 24.1406 34.3615 24.0279 34.4647C23.708 34.759 23.2074 35.3609 22.9144 35.4242C22.8188 35.4456 22.7408 35.4322 22.6758 35.3991C22.8683 34.9195 23.0988 34.458 23.3663 34.0224L23.3667 34.022V34.0224ZM28.3414 44.2275C28.1611 44.9352 27.9502 45.1896 27.7712 45.4135C27.5922 45.639 26.9298 45.9278 26.5097 45.896C26.088 45.8641 26.0301 44.7402 26.0301 44.1638C26.0301 43.9639 25.7476 44.5562 25.6008 43.3527C25.5052 42.5813 25.011 43.4323 24.9766 42.9196C24.941 42.4065 24.6944 42.5088 24.4345 42.1894C24.1759 41.8687 23.8539 42.22 23.4921 42.3814C23.1345 42.5407 23.2812 42.6253 22.7714 42.4652C22.7567 42.461 22.7517 42.4568 22.7383 42.4518C22.2692 41.3438 22.0105 40.1273 22.0105 38.8483C22.0105 38.5356 22.0277 38.2279 22.0566 37.9244C22.0755 37.8938 22.0927 37.8648 22.1136 37.8384C22.6041 37.2578 22.5924 37.1229 22.5924 37.1229L23.1357 36.9363C23.1357 36.9363 23.9998 37.0688 24.6521 37.314C25.1891 37.5152 26.0331 37.9713 26.5252 37.7714C26.8816 37.6246 27.1587 37.4293 27.1256 37.1338C27.0858 36.7628 26.7927 36.6739 26.4389 36.9246C26.3077 37.0172 26.031 36.3653 25.8121 36.398C25.5941 36.4299 26.0821 37.1644 25.8968 37.195C25.7115 37.2264 25.3388 36.4299 25.2755 36.3016C25.2122 36.1746 24.9242 35.8548 24.6655 36.0987C24.1197 36.6173 23.233 36.5854 23.0552 36.7175C22.5115 37.1245 22.3685 36.585 22.3819 36.2559C22.4029 36.1817 22.4255 36.1063 22.4494 36.0321C22.6268 35.8367 23.2607 35.7709 23.4791 35.9168C23.7189 36.0774 23.8912 35.8757 23.9838 35.7789C24.0794 35.6833 24.0463 35.5299 23.9864 35.4024C23.9256 35.2742 24.1054 35.1798 24.2287 35.1467C24.3549 35.1136 24.767 34.8248 24.9313 34.7279C25.0986 34.6324 25.9547 34.5292 26.3374 34.72C26.7219 34.9136 27.0732 34.756 27.2614 34.5334C27.4983 34.2538 27.7993 34.0392 27.9335 33.9742C28.0672 33.9117 27.6031 33.4787 27.2216 33.9507C26.8388 34.4211 26.6439 34.4647 26.4632 34.4647C26.2833 34.4647 25.2135 34.1985 25.0835 33.8606C24.9523 33.524 25.4176 33.2708 25.8113 33.08C26.2062 32.8901 27.2853 32.8931 27.5608 32.8323C28.1229 32.7078 28.8403 32.4269 29.2021 32.6734C29.5609 32.9145 27.6924 33.3399 28.307 33.6728C28.525 33.7918 29.5135 33.1027 29.851 32.9279C30.6476 32.5158 29.0784 32.3804 29.283 31.547C29.5135 30.6021 27.3595 30.9681 26.2846 31.0473C27.7255 30.1251 29.4351 29.5897 31.2722 29.5897C35.6411 29.5897 39.3006 32.6156 40.2757 36.6844C40.2824 36.8856 40.2506 37.0302 40.2304 37.1136C40.147 37.4461 39.5135 37.7324 39.1463 37.1958C39.052 37.0604 38.6545 36.6852 38.6675 37.327C38.6805 37.9696 39.2918 38.0346 38.7007 38.4203C38.1083 38.8047 38.0009 38.7116 37.7263 38.8089C37.4547 38.9053 37.1897 39.5672 37.2543 39.921C37.3209 40.2736 38.164 41.2399 37.5381 41.2C37.3914 41.1896 36.2859 40.4337 36.1031 39.9479C35.9094 39.4364 35.6985 38.9355 35.5505 38.5498C35.3996 38.165 35.0085 38.0669 34.6781 38.2929C34.3482 38.5192 34.7699 38.7448 34.5322 39.226C34.2962 39.7085 34.1268 40.1378 33.7797 39.74C32.8758 38.7037 31.5623 39.2151 31.3569 38.0623C31.2458 37.4381 30.7071 37.4976 30.2568 37.1442C29.8049 36.7929 29.553 36.6005 29.4771 36.8567C29.4108 37.0805 30.8928 38.2551 30.9989 38.5557C31.1565 39.0034 30.5549 39.3983 30.1147 39.5031C29.6762 39.6092 29.4829 39.2566 29.0507 38.8072C28.6214 38.3595 28.4319 38.0371 28.4009 38.3897C28.359 38.8999 28.8105 39.6473 29.2503 39.9269C29.6255 40.1638 30.0443 40.2715 29.9236 40.6572C29.8024 41.0424 29.921 40.8236 29.501 41.2403C29.0809 41.6578 29.0012 41.7903 29.0318 42.3679C29.0624 42.9456 28.9111 42.9787 28.821 43.46C28.7308 43.9412 28.5216 43.5233 28.3414 44.2301H28.3401L28.3414 44.2275ZM38.2755 40.5348C38.5854 40.5096 39.0536 40.9406 38.8709 41.1061C38.6881 41.2705 38.2227 41.2109 37.988 41.0265C37.7544 40.8462 38.1351 40.5469 38.2755 40.5348ZM37.8806 40.2497C37.7813 40.2124 37.6936 40.1181 37.6169 39.8909C37.5427 39.6641 37.7335 39.5345 37.92 39.6255C38.1099 39.7223 38.356 40.0045 38.356 40.1571C38.356 40.308 37.9821 40.2895 37.8802 40.2497V40.2493L37.8806 40.2497ZM33.7939 40.2338C33.6111 40.3968 33.1433 40.3373 32.9089 40.1545C32.6771 39.9726 33.0557 39.6733 33.1965 39.6611C33.508 39.6347 33.9763 40.0694 33.7943 40.2338H33.7939ZM30.0112 42.072C29.8841 42.2816 29.5366 43.8373 29.3035 43.6574C29.0675 43.4747 29.3978 41.8511 29.4653 41.7274C29.8309 41.0558 30.622 41.0885 30.0112 42.072ZM31.2718 48.1073C30.3667 48.1073 29.4943 47.9761 28.6688 47.735C28.5493 47.6382 28.4818 47.4764 28.556 47.2815C28.8436 46.5353 29.6959 46.2422 30.3692 46.1773C31.8709 46.0314 33.8442 47.1515 34.1587 46.9717C34.4739 46.7914 35.1086 45.9656 36.0389 45.9999C36.6753 46.0234 36.6703 46.1312 36.8837 46.2121C35.3262 47.3997 33.3818 48.1073 31.2714 48.1073L31.2718 48.1069V48.1073ZM37.8022 45.4131C37.7096 45.3854 37.614 45.356 37.5121 45.3045C37.0057 45.0475 37.0669 45.4583 36.8174 45.3678C36.5672 45.2751 37.0983 44.6983 36.3513 45.1863C35.6088 45.6725 35.8092 45.1108 35.4843 44.2862C35.1569 43.4621 35.8582 42.521 36.4422 42.3076C37.2467 42.0162 37.7465 41.958 38.1246 41.8649C39.2364 41.5865 39.4725 40.9263 39.6741 41.3279C39.7123 41.4034 39.7483 41.475 39.7827 41.543C39.846 41.662 39.9219 41.906 39.9244 42.1458C39.4528 43.3837 38.725 44.4942 37.8022 45.4126V45.4131ZM40.3394 40.7372C40.09 40.6697 39.0511 39.2315 39.8732 38.2866C40.0095 38.1315 39.5974 37.6733 39.7102 37.6636C40.1596 37.6293 40.3994 37.9089 40.5172 38.3105C40.5264 38.4878 40.5335 38.6668 40.5335 38.847C40.5335 39.4951 40.466 40.1273 40.3399 40.7372H40.3394Z" fill="white"/>
<path d="M8.38078 6.02026V18.1127H6.34749V8.85661H6.32904L4.90323 10.336H4.88478V8.21396L6.7575 6.02026H8.38078Z" fill="white"/>
<path d="M15.0868 8.64247V9.69467C15.0868 10.7096 14.5343 11.3878 13.6962 11.6561C14.7112 11.888 15.1938 12.601 15.1938 13.7065V15.4906C15.1938 17.1674 14.3016 18.2553 12.2516 18.2553C10.181 18.2553 9.4494 17.0781 9.4494 15.2416V13.6536H11.3049V15.385C11.3049 16.098 11.554 16.5604 12.2516 16.5604C12.8745 16.5604 13.1588 16.1148 13.1588 15.4734V13.4742C13.1588 12.8328 12.8741 12.4937 12.1606 12.4937H11.3045V10.9431H12.0721C12.732 10.9431 13.1588 10.6039 13.1588 9.96087V8.65965C13.1588 7.99941 12.9282 7.57265 12.2855 7.57265C11.6433 7.57265 11.4114 7.99982 11.4114 8.74811V9.97931H9.55589V8.90992C9.55589 7.12578 10.2875 5.87781 12.392 5.87781C14.2651 5.87781 15.0856 6.93001 15.0856 8.64247L15.0868 8.64289V8.64247Z" fill="white"/>
<path d="M18.9392 7.75909C18.9073 7.71256 18.8465 7.64213 18.7522 7.54949C18.6273 7.40905 18.5413 7.30719 18.4952 7.24472C19.0717 6.60711 19.4838 5.93638 19.7332 5.23547L20.412 5.3059C20.3801 5.38387 20.334 5.49245 20.2715 5.6333C20.2397 5.71127 20.2158 5.76577 20.2011 5.79637H23.8447V6.35852H19.9215C19.6708 6.82468 19.3433 7.29126 18.9392 7.75951V7.75909ZM23.4019 10.821C23.028 10.8356 22.7785 10.6642 22.6544 10.3053C22.4981 10.0576 22.4281 9.49669 22.4436 8.62475V8.41389H18.9153V7.85341H23.0984V8.57696C23.0984 9.29254 23.1445 9.79223 23.2376 10.0723C23.2695 10.1662 23.3319 10.2123 23.4258 10.2123C23.503 10.2123 23.5571 10.1435 23.5889 10.0018C23.5889 9.97123 23.5956 9.9247 23.6124 9.86266C23.643 9.53526 23.6589 9.27829 23.6589 9.09132C23.7197 9.10725 23.8061 9.13115 23.9159 9.16175C24.0249 9.20786 24.1016 9.23972 24.1494 9.25439C24.118 9.62832 24.079 9.93309 24.0329 10.1662C23.9549 10.6009 23.744 10.821 23.4019 10.821ZM19.7089 6.82468H23.4242V7.33905H19.7089V6.82468Z" fill="white"/>
<path d="M25.0797 10.8433V7.87571C25.0483 7.93817 24.9938 8.02411 24.9166 8.13269C24.7909 8.35151 24.6978 8.51416 24.6362 8.62441C24.6198 8.49991 24.58 8.27312 24.5192 7.94572C24.5033 7.86859 24.4957 7.81451 24.4957 7.78265C24.9175 7.04988 25.2353 6.20308 25.4537 5.23682L26.0381 5.35377C25.9123 5.81993 25.7811 6.25758 25.6407 6.66211V10.8433H25.0797ZM26.0611 6.07732H26.5755V9.83885H26.0611V6.07732ZM27.1822 8.67053C27.0736 8.59213 26.9172 8.49949 26.716 8.38966C27.0434 8.01699 27.2606 7.61832 27.3692 7.19786L27.907 7.26828L27.7905 7.61832H29.9386V8.13227H28.7715C28.7715 8.21024 28.7635 8.33516 28.7489 8.50746V8.78707H30.1738V9.30143H28.8415C29.1069 9.78394 29.5735 10.1109 30.2439 10.282C30.1189 10.453 30.0095 10.6253 29.9164 10.7963C29.1995 10.5167 28.725 10.1415 28.4919 9.67536C28.3191 10.1415 27.7431 10.5393 26.7621 10.8667C26.6841 10.7263 26.5831 10.5553 26.4586 10.3524C27.44 10.0715 27.9775 9.72147 28.0705 9.30143H26.7386V8.78707H28.1649C28.1787 8.58417 28.1875 8.36534 28.1875 8.13227H27.5561C27.4476 8.31923 27.3226 8.49949 27.1822 8.67053ZM26.8086 7.08132V6.59085H28.9585L29.0063 5.98384H27.0656V5.49337H29.5894L29.519 6.59085H30.1499V7.08132H26.8086Z" fill="white"/>
<path d="M30.801 9.20744C30.7692 9.09845 30.7159 8.94376 30.6379 8.73919C30.6216 8.67841 30.6061 8.63229 30.5914 8.60001C31.1351 8.14811 31.6491 7.54865 32.1329 6.79995L32.6473 7.15124C32.5371 7.33821 32.3585 7.58721 32.1094 7.89868C32.0931 7.91461 32.0788 7.93012 32.0629 7.9448V10.8419H31.432V8.62349C31.245 8.82471 31.0341 9.01964 30.801 9.2066V9.20744ZM30.9654 7.26862C30.8551 6.98901 30.7624 6.78569 30.6845 6.65993C31.245 6.22522 31.7133 5.74984 32.0868 5.23547L32.6234 5.6094C32.0629 6.2642 31.5104 6.81672 30.9654 7.26904V7.26862ZM32.7878 7.96953V7.36252H36.2683V7.96953H35.3103V9.86182C35.3262 10.4374 35.0386 10.7262 34.4463 10.7262H33.4883C33.4422 10.5393 33.3957 10.3447 33.3491 10.1427C33.5202 10.1574 33.7998 10.1653 34.1897 10.1653C34.5171 10.1653 34.6722 10.0249 34.6576 9.74361V7.96911H32.7882H32.7878V7.96953ZM33.0678 5.63288H36.0117V6.21641H33.0678V5.63288Z" fill="white"/>
<path d="M36.6841 7.78218V7.2217H39.3945V7.78218H38.203C37.9536 8.4529 37.7033 9.05195 37.4555 9.58057C37.5016 9.58057 37.5721 9.57428 37.6664 9.55793C38.1011 9.542 38.4361 9.51852 38.6709 9.48792C38.5304 9.14585 38.39 8.81049 38.2491 8.48309L38.7635 8.29654C39.0285 8.87337 39.254 9.41791 39.441 9.93186C39.8464 9.40282 40.0493 8.49147 40.0493 7.19822V7.10558C40.0653 7.04312 40.072 6.99659 40.072 6.9664H39.4171V6.40593H40.072C40.0879 6.0626 40.0954 5.6807 40.0954 5.2594H40.7025C40.6866 5.61824 40.6799 5.9993 40.6799 6.40593H42.1509V6.84861C42.1203 8.37535 42.0964 9.38019 42.0805 9.86227C42.0646 10.4085 41.8009 10.6881 41.2865 10.7036H40.4686C40.4526 10.5636 40.4061 10.3687 40.3281 10.1205H40.6794C40.8345 10.1352 40.9511 10.1431 41.0291 10.1431C41.31 10.1431 41.4496 9.98678 41.4496 9.67531C41.5116 8.75683 41.5435 7.85302 41.5435 6.9664H40.6551V7.22212C40.6698 8.84277 40.2816 10.0572 39.4863 10.8667C39.3312 10.7581 39.1522 10.6336 38.9493 10.4932C39.0897 10.3527 39.2146 10.2199 39.3232 10.0954L38.9493 10.2131L38.9258 10.167C38.9111 10.1033 38.8952 10.0568 38.8792 10.0266C38.7547 10.0413 38.5841 10.0572 38.3648 10.0727C37.9448 10.1033 37.6412 10.1272 37.4547 10.1431C37.2518 10.1595 37.0732 10.1817 36.9168 10.2136L36.6833 9.72184C36.8078 9.62919 36.9005 9.49673 36.9642 9.32569C37.2119 8.77947 37.4081 8.26678 37.5486 7.7826H36.6833V7.78218H36.6841ZM36.965 5.65639H39.2075V6.2395H36.965V5.65639Z" fill="white"/>
</svg>
