<svg width="48" height="40" fill="none" xmlns="http://www.w3.org/2000/svg"><g clip-path="url(#a)"><path fill-rule="evenodd" clip-rule="evenodd" d="M0 38a2 2 0 0 0 2 2h44a2 2 0 0 0 2-2V2A2 2 0 0 0 46.15.005L46 0H2l-.15.005A2 2 0 0 0 0 2v36ZM27 2H2v25h25V2ZM2 29v9h13v-9H2Zm15 9h29v-9H17v9Zm29-11V2H29v25h17Z" fill="#505050"/></g><path fill="#F29D38" d="M2 29h13v9H2z"/><path d="M7.352 36.574v-3.718h.164v-.794h-.164v-.246h.218v-.765h-.218v-.656h-.903v.656H5.33v.793h1.093v.218H5.52l-.11 3.5c0 .092-.036.128-.11.11v.656h.384c.346 0 .52-.182.52-.547l.109-2.925h.109v3.718h.93Zm1.175-3.527c.638.073.957-.237.957-.93l.11-1.668h-1.86v.684h.93l-.027.328h-.219c-.091.018-.128-.018-.11-.11h-.574v.247c0 .328.137.501.41.52h.438l-.027.081c-.019.128-.073.183-.164.164h-.63v.684h.766Zm2.98-.684v.657h-.984a1.141 1.141 0 0 1-.109.003c-.384-.005-.585-.225-.601-.66l-.137-1.914h1.86v.766h-.848l.054.273h.137c.091.018.137-.018.137-.11h.546l-.027.329c-.018.31-.155.438-.41.383h-.355l.027.11c-.018.127.045.181.191.163h.52Zm.028 1.504v-.656H7.652v.656h3.883Zm0 2.078v.547H7.543v-.547h.574l-.082-.3H7.68v-1.56h3.855v1.013c.018.4-.146.583-.492.547l-.055.3h.547Zm-1.039-.957a.133.133 0 0 0 .04.005c.046-.003.07-.041.07-.114v-.11H8.554v.22h1.941Zm-1.45.957h1.04v-.3h-1.04v.3Z" fill="#505050" stroke="#505050"/><path d="M7.352 36.574v-3.718h.164v-.794h-.164v-.246h.218v-.765h-.218v-.656h-.903v.656H5.33v.793h1.093v.218H5.52l-.11 3.5c0 .092-.036.128-.11.11v.656h.384c.346 0 .52-.182.52-.547l.109-2.925h.109v3.718h.93Zm1.175-3.527c.638.073.957-.237.957-.93l.11-1.668h-1.86v.684h.93l-.027.328h-.219c-.091.018-.128-.018-.11-.11h-.574v.247c0 .328.137.501.41.52h.438l-.027.081c-.019.128-.073.183-.164.164h-.63v.684h.766Zm2.98-.684v.657h-.984a1.141 1.141 0 0 1-.109.003c-.384-.005-.585-.225-.601-.66l-.137-1.914h1.86v.766h-.848l.054.273h.137c.091.018.137-.018.137-.11h.546l-.027.329c-.018.31-.155.438-.41.383h-.355l.027.11c-.018.127.045.181.191.163h.52Zm.028 1.504v-.656H7.652v.656h3.883Zm0 2.078v.547H7.543v-.547h.574l-.082-.3H7.68v-1.56h3.855v1.013c.018.4-.146.583-.492.547l-.055.3h.547Zm-1.039-.957a.133.133 0 0 0 .04.005c.046-.003.07-.041.07-.114v-.11H8.554v.22h1.941Zm-1.45.957h1.04v-.3h-1.04v.3Z" fill="#fff"/><path fill="#CCC" d="M2 2h25v25H2z"/><path fill-rule="evenodd" clip-rule="evenodd" d="M22.5 4h-16v9.5h-2l10 11.924 10-11.924h-2V4Z" fill="#F29D38"/><path fill-rule="evenodd" clip-rule="evenodd" d="M17.453 15.928c-.6.346-1.366.14-1.711-.458l-1.107-1.917-1.107 1.917a1.252 1.252 0 1 1-2.169-1.252l1.108-1.918h-2.215a1.252 1.252 0 0 1 0-2.504h2.214L11.359 7.88a1.253 1.253 0 0 1 2.17-1.253l1.107 1.917 1.107-1.917a1.252 1.252 0 1 1 2.168 1.252l-1.108 1.918h2.215a1.252 1.252 0 1 1 0 2.504h-2.214l1.107 1.917c.346.6.14 1.365-.458 1.711Zm-1.03-3.849h2.595a1.031 1.031 0 0 0 0-2.062h-2.597l1.299-2.25a1.031 1.031 0 1 0-1.786-1.03l-1.298 2.248-1.298-2.248a1.032 1.032 0 1 0-1.788 1.032l1.298 2.248h-2.596a1.031 1.031 0 1 0 0 2.062h2.597l-1.299 2.25a1.031 1.031 0 0 0 1.787 1.03l1.298-2.248 1.297 2.248a1.032 1.032 0 0 0 1.788-1.032l-1.298-2.248Z" fill="#505050"/><path fill-rule="evenodd" clip-rule="evenodd" d="M15.932 15.359a1.032 1.032 0 1 0 1.788-1.032l-1.298-2.248h2.596a1.031 1.031 0 0 0 0-2.063H16.42l1.298-2.249a1.031 1.031 0 1 0-1.786-1.031l-1.298 2.248-1.298-2.248a1.032 1.032 0 0 0-1.787 1.032l1.297 2.248h-2.595a1.031 1.031 0 0 0 0 2.063h2.596l-1.298 2.249a1.031 1.031 0 1 0 1.786 1.031l1.298-2.248 1.298 2.248Z" fill="#fff"/><path fill="#F29D38" d="M29 2h17v25H29z"/><path d="M32.852 6.64h3.199c.164 0 .237-.036.218-.109v-.136h.794v.52c.018.345-.192.51-.63.491h-.273l.11 1.285h.765v.766h-.683l.191 2.27c-.018.145.064.21.246.191h.328v.71h-.71c-.475.02-.712-.163-.712-.546l-.246-2.625h-1.695v1.23c0 .055.018.083.055.083h1.613v.738H32.96c-.055 0-.091-.037-.11-.11V6.641ZM30.91 7.653h.192c.127.019.218-.054.273-.218l.465-1.067h1.012l-.52 1.313v4.922h-.875V8.363h-.547v-.71Zm2.242 4.703-.355-.71h1.039l.082.164c.036.09.11.136.219.136h1.285v.684h-1.805a.515.515 0 0 1-.465-.274ZM35.34 8.72l-.11-1.285h-1.476v1.285h1.586ZM39.004 10.113c-.456.091-.73-.118-.82-.629l-.328-1.039h.984l.191.575c.055.255.155.364.301.328h.164v.765h-.492Zm-1.121 1.696h.3c.11.018.183-.082.22-.301l.218-1.121h.957l-.3 1.586c-.019.4-.292.583-.821.546h-.574v-.71Zm.847-3.637c-.255.036-.428-.155-.52-.574l-.355-1.258h.93l.246.765c.091.22.164.31.219.274h.219v.793h-.739Zm1.86-1.012v.383h2.324V7.16H40.59Zm2.16 1.531c.128 0 .191-.073.191-.218V8.28H40.59v.41h2.16Zm-3.117.739V6.34h4.265v2.105c.073.748-.182 1.076-.765.985h-3.5Zm-.192 2.351h.192V9.758h4.265v2.023h.11v.766H39.44v-.766Zm1.368-1.285h-.356v1.285h.356v-1.285Zm.765 1.285h.328v-1.285h-.328v1.285Zm1.149 0h.3v-1.285h-.3v1.285ZM32.852 16.652v-.875h.656l.11-.328h.984l-.082.328h2.624v.875h-2.87l-.383 1.285h.683v-.847h1.04v.848h1.53v.875h-1.53v2.324c0 .346-.174.52-.52.52h-.903v-.739h.301c.055 0 .082-.027.082-.082v-2.023h-1.722v-.684l.437-1.477h-.437Zm-.875 1.094c-.329.018-.502-.1-.52-.355l-.438-1.942h.903l.328 1.367c0 .073.046.11.137.11h.218v.82h-.628Zm-.793 2.953.464-2.16h.985l-.547 2.57c-.055.274-.237.41-.547.41h-.602v-.738h.137c.091.018.128-.009.11-.082Zm1.968-.082.246-1.422h.957L34 21.055c-.018.291-.219.428-.602.41h-.601v-.738h.191c.11 0 .164-.037.164-.11Zm3.309.875c-.255 0-.401-.164-.438-.492l-.218-1.805h.902l.219 1.45c-.018.072.018.1.11.082h.136v.765h-.711ZM37.965 15.559h2.57v-.246h1.04v.246h2.487v1.039h-.984v-.301H38.95v.3h-.984V15.56Zm5.031 5.004h-3.91v.273h3.828c.055 0 .082-.027.082-.082v-.192Zm-2.488-.766v-.3h-2.543v-.74h2.543v-.245h-2.406v-.739h2.406V17.5h-2.434v-.738h2.434v-.301h1.066v.3h2.434v.739h-2.434v.273h2.434v.739h-2.434v.246h2.543v.738h-2.543v.3h2.434v1.122c0 .438-.219.656-.656.656h-5.278v-1.777h2.434Z" fill="#fff"/><path fill-rule="evenodd" clip-rule="evenodd" d="M33.297 6.14a.5.5 0 0 0-.446-.273H31.84a.5.5 0 0 0-.459.3l-.429.985h-.042a.5.5 0 0 0-.5.5v.711a.5.5 0 0 0 .5.5h.047v3.739a.5.5 0 0 0 .5.5h.875a.5.5 0 0 0 .48-.36 1 1 0 0 0 .805.387h1.805a.498.498 0 0 0 .323-.119c.211.101.448.126.67.119h.702a.5.5 0 0 0 .428-.241.498.498 0 0 0 .338.132h.558c.229.014.468-.003.684-.086.087.07.197.113.316.113h4.567a.5.5 0 0 0 .5-.5v-.766a.498.498 0 0 0-.11-.312V9.758a.498.498 0 0 0-.143-.351c.154-.291.174-.646.143-.985V6.34a.5.5 0 0 0-.5-.5h-4.265a.5.5 0 0 0-.424.234.5.5 0 0 0-.424-.234h-.93a.5.5 0 0 0-.417.224.499.499 0 0 0-.376-.17h-.792a.5.5 0 0 0-.431.247h-2.542Zm-.445.5v4.758c.018.073.054.11.109.11h2.46v-.738H33.81c-.037 0-.055-.028-.055-.082V9.457h1.695l.246 2.625c0 .216.076.368.227.457.116.068.278.098.484.09h.711v-.711h-.328a.474.474 0 0 1-.107 0c-.107-.014-.153-.078-.139-.191l-.191-2.27h.683v-.766h-.765l-.11-1.285h.274c.084.004.16 0 .227-.01.282-.042.416-.202.401-.482v-.52h-.792v.137a.071.071 0 0 1 0 .04c-.015.046-.088.07-.22.07h-3.198Zm4.701.468a.87.87 0 0 1-.326.583 1.048 1.048 0 0 1-.523.204l.025.296h.306c.13 0 .247.05.336.13a.501.501 0 0 1 .42-.371 2.153 2.153 0 0 1-.065-.23l-.173-.612Zm.658.49c.03.142.071.258.12.347.098.175.23.251.4.227h.738v-.793h-.219c-.016.01-.033.01-.051 0a.217.217 0 0 1-.066-.07 1.267 1.267 0 0 1-.102-.204l-.048-.149-.198-.616h-.93l.356 1.258Zm1.422 1.832h3.5c.288.045.496-.013.624-.172.131-.164.178-.435.141-.813V6.34h-4.265v3.09Zm0 .328v2.023h-.192v.766h4.567v-.766h-.11V9.758h-4.265Zm-.356 2.215.301-1.586h-.957l-.219 1.12c-.03.186-.087.286-.17.302a.138.138 0 0 1-.048 0h-.301v.71h.574a1.17 1.17 0 0 0 .484-.05c.213-.08.325-.245.336-.496Zm-.899-2.023c.067.076.148.13.243.158a.788.788 0 0 0 .383.005h.492v-.765h-.164a.189.189 0 0 1-.1 0 .195.195 0 0 1-.1-.072.646.646 0 0 1-.1-.256l-.192-.575h-.985l.329 1.04c.036.202.1.357.194.465Zm-.68-.344c.056.29.175.579.413.782l-.18.92h-.048a.5.5 0 0 0-.428.242.498.498 0 0 0-.338-.132h-.098l-.123-1.461h.14a.5.5 0 0 0 .5-.5v-.366l.162.515Zm-2.276 2.34h-1.285c-.11 0-.183-.046-.219-.137l-.082-.164h-1.04l.356.71c.11.183.265.274.465.274h1.805v-.684Zm-3.09-4.266.52-1.313H31.84l-.465 1.067c-.044.13-.11.204-.201.218a.239.239 0 0 1-.072 0h-.192v.711h.547v4.239h.875V7.68Zm2.691 2.59-.03-.313h-.74v.313h.77Zm-.252-2.336h-.517v.285h.541l-.024-.285Zm.46-.5h-1.477v1.285h1.586l-.11-1.285Zm5.359.109V7.16h2.324v.383H40.59Zm2.351.738v.192c0 .145-.063.218-.191.218h-2.16v-.41h2.351Zm-2.488 2.215h.356v1.285h-.356v-1.285Zm1.45 1.285h-.329v-1.285h.328v1.285Zm1.12 0h-.3v-1.285h.3v1.285Zm-10.578 3.705-.037-.154a.5.5 0 0 0-.486-.383h-.902a.5.5 0 0 0-.488.61l.43 1.91a.838.838 0 0 0 .414.65.5.5 0 0 0-.216.315l-.405 1.882a.5.5 0 0 0-.317.465v.739a.5.5 0 0 0 .5.5h.601c.225 0 .465-.05.67-.203.052-.04.099-.083.14-.13a.5.5 0 0 0 .448.278h.59c.125.005.258-.002.389-.03a.5.5 0 0 0 .415.221h.903c.25 0 .53-.063.743-.276a.88.88 0 0 0 .064-.071.9.9 0 0 0 .56.183h.71a.5.5 0 0 0 .433-.248.5.5 0 0 0 .47.33h5.278c.295 0 .61-.074.845-.31.236-.236.31-.55.31-.846v-1.11a.497.497 0 0 0 .11-.312v-.738a.497.497 0 0 0-.11-.312v-.673a.501.501 0 0 0-.018-.136.5.5 0 0 0 .019-.137v-.675a.498.498 0 0 0 .054-.227v-1.04a.5.5 0 0 0-.5-.5h-2.057a.5.5 0 0 0-.43-.245h-1.04a.5.5 0 0 0-.43.246h-2.14a.5.5 0 0 0-.479.354.498.498 0 0 0-.341-.136H35.07a.502.502 0 0 0-.47-.328h-.984a.5.5 0 0 0-.47.328h-.295a.5.5 0 0 0-.407.21Zm.16 1.44h-.218c-.091 0-.137-.037-.137-.11l-.328-1.367h-.902l.437 1.942c.018.255.191.373.52.355h.628v-.82Zm.247 1.203v.683h1.722v2.024c0 .037-.012.061-.037.073a.102.102 0 0 1-.045.009h-.3v.738h.902c.268 0 .432-.104.493-.312a.745.745 0 0 0 .026-.207v-2.325h1.532v-.875h-1.532v-.847h-1.039v.848h-.683l.382-1.286h2.871v-.875H34.52l.082-.328h-.985l-.11.328h-.655v.875h.437l-.437 1.477Zm3.261-.977v.285h1.032a.5.5 0 0 1 .458.3.504.504 0 0 1 .006-.052.5.5 0 0 1-.035-.185v-.59a.5.5 0 0 1-.43.242h-1.03Zm1.852-.554h.984v-.301h4.13v.3h.983V15.56h-2.488v-.246h-1.039v.246h-2.57v1.039Zm3.61.164v-.301h-1.067v.3h-2.434v.739h2.434v.273h-2.406v.739h2.406v.246h-2.543v.738h2.543v.3h-2.434v1.778h5.278c.437 0 .656-.219.656-.656v-1.121h-2.434v-.3h2.543v-.74h-2.543v-.245h2.434v-.739h-2.434V17.5h2.434v-.738h-2.434Zm-4 3.046a.498.498 0 0 1-.11-.312v-.3a.497.497 0 0 1-.236.11l.146.963c.08.036.148.091.2.16v-.62Zm-.868-.613h-.902L36.023 21c.006.05.014.095.024.137a.64.64 0 0 0 .058.153.376.376 0 0 0 .356.202h.71v-.765h-.136a.157.157 0 0 1-.083 0c-.028-.011-.037-.039-.026-.082l-.219-1.45ZM34 21.055l.355-1.86h-.957l-.246 1.422c0 .073-.054.11-.164.11h-.191v.738h.601a.96.96 0 0 0 .293-.025c.193-.052.296-.18.309-.385Zm-1.367-2.516h-.985l-.464 2.16c.01.044.002.071-.027.082a.157.157 0 0 1-.083 0h-.137v.739h.602c.31 0 .492-.137.547-.41l.547-2.57Zm6.453 2.297h3.828c.055 0 .082-.027.082-.082v-.192h-3.91v.274Z" fill="#505050"/><path fill="#F29D38" d="M17 29h29v9H17z"/><path d="M20.648 33.047h-.656c-.02-.354-.208-.537-.562-.547-.344.02-.526.375-.547 1.063.02.677.203 1.026.547 1.046.364-.01.552-.192.562-.547h.656c-.03.636-.437.959-1.218.97-.782-.022-1.183-.511-1.203-1.47.03-.979.432-1.484 1.203-1.515.77.01 1.177.344 1.218 1ZM22.305 35.031c-.907-.02-1.37-.51-1.39-1.468.03-.99.494-1.495 1.39-1.516.885.02 1.343.526 1.375 1.516-.032.958-.49 1.447-1.375 1.468Zm0-2.531c-.49 0-.735.354-.735 1.063 0 .697.245 1.046.735 1.046.479 0 .718-.349.718-1.047 0-.708-.24-1.062-.718-1.062ZM25.992 35h-1.86v-2.89h.61v2.406h1.25V35ZM26.945 32.594v1.922h.328c.573.02.855-.297.844-.953.01-.667-.27-.99-.844-.97h-.328ZM26.335 35v-2.89h.985c.959.01 1.443.494 1.453 1.453-.01.947-.494 1.427-1.453 1.437h-.984ZM30.93 32.11V35h-.625v-2.89h.625ZM34.04 35h-.892l-1.125-2.406-.015.015V35h-.578v-2.89h.922l1.093 2.28.016-.015v-2.266h.578V35ZM35.633 32.11h.61v1.937c-.011.635-.334.963-.97.984-.614.01-.937-.307-.968-.953h.625c0 .354.114.531.343.531.209 0 .329-.177.36-.53v-1.97ZM38.68 32.11h.625v1.812c-.032.719-.448 1.088-1.25 1.11-.823-.022-1.245-.391-1.266-1.11v-1.813h.625v1.578c-.042.636.172.943.64.922.459.021.667-.286.626-.922V32.11ZM40.46 32.594v.765h.517c.291 0 .437-.135.437-.406 0-.25-.146-.37-.437-.36h-.516Zm0 1.25V35h-.624v-2.89h1.234c.657.01.99.26 1 .75-.01.374-.208.609-.593.703v.015c.28.031.453.245.515.64.01.042.016.074.016.094.031.344.083.573.156.688h-.672a3.817 3.817 0 0 1-.11-.781c-.02-.25-.109-.375-.265-.375h-.656ZM43.29 35v-.938l-.985-1.953h.734l.594 1.328.61-1.328h.624l-.969 1.953V35h-.609Z" fill="#fff"/><path fill-rule="evenodd" clip-rule="evenodd" d="M20.863 32.165a1.333 1.333 0 0 0-.233-.247c-.324-.265-.746-.365-1.194-.371h-.027c-.5.02-.941.202-1.25.591-.294.37-.415.864-.432 1.409v.026c.011.537.13 1.026.43 1.392.313.383.76.553 1.26.566h.02c.447-.006.87-.1 1.194-.358.09-.072.167-.151.232-.238l.051.057c.352.372.84.527 1.38.54h.022c.51-.013.974-.158 1.318-.497a.5.5 0 0 0 .499.465h1.86a.5.5 0 0 0 .171-.03c.054.02.111.03.172.03h.99c.555-.006 1.062-.15 1.428-.512.367-.363.513-.867.52-1.42v-.01c-.007-.558-.152-1.065-.518-1.431-.366-.366-.873-.512-1.43-.518h-.99a.5.5 0 0 0-.5.5v1.907h-.594v-1.907a.5.5 0 0 0-.5-.5h-.61a.5.5 0 0 0-.496.447c-.343-.347-.807-.497-1.32-.509h-.023c-.54.013-1.027.175-1.376.556-.019.02-.037.041-.054.062Zm.24.541a1.563 1.563 0 0 0-.118.32 2.357 2.357 0 0 0-.068.615c.007.16.028.306.062.438.03.12.073.23.125.328.105.195.252.344.443.448.203.11.456.17.758.176.304-.007.558-.07.761-.187.295-.171.484-.458.567-.862.026-.128.042-.268.047-.42-.005-.156-.02-.3-.047-.433-.094-.471-.323-.789-.688-.952a1.65 1.65 0 0 0-1.29 0 1.11 1.11 0 0 0-.552.53Zm.727 1.731c.116.113.271.17.465.172h.02a.625.625 0 0 0 .458-.175c.167-.17.25-.46.25-.871 0-.473-.106-.788-.32-.945a.648.648 0 0 0-.388-.118H22.294a.671.671 0 0 0-.4.12c-.215.157-.324.472-.324.943 0 .414.087.706.26.874Zm-1.416-.874v-.016h-.422a.5.5 0 0 1-.499-.47.351.351 0 0 0-.01-.07h-.002l-.001.003c-.04.078-.086.246-.097.552.01.3.056.464.095.538 0 .002.001.003.002.003h.007a.37.37 0 0 0 .005-.055.5.5 0 0 1 .5-.486h.422Zm-.422.5c-.005.185-.06.323-.162.415-.091.08-.221.124-.39.131h-.016a.429.429 0 0 1-.284-.13c-.157-.159-.243-.465-.257-.916.015-.5.115-.824.301-.971a.425.425 0 0 1 .24-.092h.024a.648.648 0 0 1 .31.084c.143.087.221.241.234.463h.656a1.283 1.283 0 0 0-.075-.374.931.931 0 0 0-.059-.126c-.116-.209-.306-.352-.569-.43a1.89 1.89 0 0 0-.515-.07l-.028.001c-.171.01-.324.043-.458.1-.454.196-.694.667-.717 1.414.015.693.228 1.141.64 1.344a1.326 1.326 0 0 0 .563.125h.012c.248-.004.458-.04.63-.108a.861.861 0 0 0 .5-.48c.044-.112.07-.238.076-.38h-.656Zm4.14.937h1.86v-.484h-1.25v-2.407h-.61V35Zm2.204 0h.984c.165-.002.317-.017.453-.047.659-.142.992-.606 1-1.39-.008-.795-.343-1.264-1.004-1.407a2.244 2.244 0 0 0-.449-.047h-.984V35Zm.61-.484h.327a1.5 1.5 0 0 0 .172-.005.888.888 0 0 0 .2-.042c.323-.11.48-.412.472-.907.008-.503-.15-.811-.476-.922a.876.876 0 0 0-.267-.046 1.37 1.37 0 0 0-.054-.001h-.375v1.923Zm.5-.51v-.902c.063.014.084.037.091.045.025.028.085.13.08.406v.015c.005.27-.055.366-.077.392-.007.007-.028.03-.095.044Zm-5.28-.956c-.039.055-.096.2-.096.513 0 .305.057.445.093.497.014.02.025.028.035.032a.25.25 0 0 0 .107.017c.059 0 .086-.01.096-.015a.077.077 0 0 0 .03-.03c.037-.052.092-.194.092-.502 0-.313-.055-.46-.093-.516-.015-.022-.025-.028-.032-.031a.214.214 0 0 0-.093-.015.242.242 0 0 0-.104.017.087.087 0 0 0-.036.033Zm8.764-1.44c.09 0 .176.024.25.066a.497.497 0 0 1 .25-.067h.922a.5.5 0 0 1 .45.284l.159.33v-.114a.5.5 0 0 1 .5-.5h.578a.5.5 0 0 1 .5.5v1.47h.39c.073 0 .142.014.204.042V32.11a.5.5 0 0 1 .5-.5h.61c.1 0 .194.03.273.082a.498.498 0 0 1 .273-.082h.625a.5.5 0 0 1 .5.5v1.578l-.001.033c-.009.13-.003.226.01.293.01.054.022.08.028.091.01.003.035.008.081.006h.045a.284.284 0 0 0 .068-.004.33.33 0 0 0 .027-.09 1.263 1.263 0 0 0 .008-.328v-1.579a.5.5 0 0 1 .5-.5h.625c.097 0 .188.028.265.077a.497.497 0 0 1 .266-.077h1.242c.299.005.592.052.844.178a.5.5 0 0 1 .383-.178h.734a.5.5 0 0 1 .456.296l.144.32.149-.324a.5.5 0 0 1 .454-.292h.625a.5.5 0 0 1 .448.722l-.917 1.849V35a.5.5 0 0 1-.5.5h-.609a.5.5 0 0 1-.5-.5v-.819l-.367-.727c-.03.056-.065.109-.105.16a1.6 1.6 0 0 1 .166.505c.01.042.02.1.024.162.014.152.032.267.05.35.018.076.032.104.031.105l-.002-.004a.5.5 0 0 1-.422.768h-.672a.5.5 0 0 1-.485-.379 4.23 4.23 0 0 1-.046-.207V35a.5.5 0 0 1-.5.5h-.625a.5.5 0 0 1-.494-.425 1.34 1.34 0 0 1-.041.037c-.329.291-.765.407-1.233.42a.55.55 0 0 1-.026 0c-.475-.013-.919-.127-1.25-.418a1.378 1.378 0 0 1-.238-.27 1.25 1.25 0 0 1-.205.276c-.281.286-.663.398-1.06.411h-.007c-.305.005-.605-.053-.858-.212a.499.499 0 0 1-.385.181h-.89a.5.5 0 0 1-.453-.288l-.188-.402V35a.5.5 0 0 1-.5.5h-.578a.497.497 0 0 1-.25-.067.497.497 0 0 1-.25.067h-.625a.5.5 0 0 1-.5-.5v-2.89a.5.5 0 0 1 .5-.5h.625Zm1.078 1 .015-.016L33.148 35h.891v-2.89h-.578v2.265l-.016.016-1.093-2.282h-.922V35h.578v-2.39Zm2.531 2.158c.063.07.138.126.225.168.139.067.308.099.51.095.21-.007.385-.047.527-.121.287-.15.434-.438.441-.863v-1.938h-.61v1.97c-.016.187-.057.325-.124.413a.28.28 0 0 1-.235.117H35.26a.285.285 0 0 1-.222-.102c-.072-.087-.108-.23-.108-.429h-.625c.01.197.046.364.11.5a.783.783 0 0 0 .124.19Zm6.844-.55c.01.272.047.532.11.782h.671c-.059-.092-.104-.259-.136-.5a4.875 4.875 0 0 1-.02-.188.427.427 0 0 0-.016-.093 1.255 1.255 0 0 0-.076-.286.606.606 0 0 0-.19-.26.47.47 0 0 0-.245-.094h-.004v-.017h.001a1.16 1.16 0 0 0 .122-.036.822.822 0 0 0 .205-.108.616.616 0 0 0 .167-.182.767.767 0 0 0 .088-.501.64.64 0 0 0-.194-.386c-.133-.124-.331-.2-.594-.228a2.218 2.218 0 0 0-.202-.012h-1.234V35h.625v-1.156h.656c.014 0 .028 0 .04.003.098.015.165.087.2.217a.86.86 0 0 1 .026.155Zm-.363-.86a.677.677 0 0 0 .097-.011l.014-.003a.329.329 0 0 0 .274-.28.608.608 0 0 0 .01-.11c0-.181-.077-.294-.23-.339a.555.555 0 0 0-.122-.02.87.87 0 0 0-.086-.001h-.516v.765h.559Zm2.27.705V35h.608v-.938l.97-1.953h-.626l-.61 1.328-.593-1.328h-.734l.984 1.953Zm-4.61-.376V32.11h.625v1.813c-.02.434-.178.74-.478.92-.193.116-.444.178-.754.189h-.018c-.316-.008-.572-.067-.77-.178-.318-.177-.483-.488-.496-.931v-1.813h.625v1.578c-.023.353.032.605.167.756.105.118.26.174.463.167H38.065c.2.007.353-.05.456-.171.129-.15.182-.401.159-.752Zm-7.75-1.578h-.625V35h.625v-2.89Z" fill="#505050"/><defs><clipPath id="a"><path fill="#fff" d="M0 0h48v40H0z"/></clipPath></defs></svg>