<svg width="48" height="40" fill="none" xmlns="http://www.w3.org/2000/svg"><g clip-path="url(#a)"><path fill-rule="evenodd" clip-rule="evenodd" d="M0 38a2 2 0 0 0 2 2h44a2 2 0 0 0 2-2V2A2 2 0 0 0 46.15.005L46 0H2l-.15.005A2 2 0 0 0 0 2v36ZM27 2H2v25h25V2ZM2 29v9h13v-9H2Zm15 9h29v-9H17v9Zm29-11V2H29v25h17Z" fill="#505050"/></g><path fill="#FFFD54" d="M2 29h13v9H2z"/><path fill-rule="evenodd" clip-rule="evenodd" d="M7.625 36.273a.959.959 0 0 1-.663.329H5.547v-.711h1.121c.11 0 .219-.055.328-.164l.137-.164H5.629v-2.817h2.434v-.328H5.52v-.766h.683v-.328H5.52v-.738h.683v-.273h.957v.273h2.762v-.3h.93v.3h.765v.738h-.765v.328h.793v.766H9.047v.328h2.488v1.914c.091.693-.255.994-1.039.903h-.328l.11.136c0 .018.008.037.027.055.127.091.228.128.3.11h1.04v.683h-1.56c-.29-.037-.482-.11-.573-.219l-.63-.766h-.519l-.738.711Zm-.465-4.62h2.735v-.329H7.16v.328Zm.875 2.132h-1.45v-.3h1.45v.3Zm1.012 0h1.558v-.3H9.047v.3Zm1.504 1.067H9.074v-.329h1.559v.22c0 .072-.027.109-.082.109Zm-3.965 0h1.45v-.329h-1.45v.329Z" fill="#fff" stroke="#505050"/><path fill-rule="evenodd" clip-rule="evenodd" d="M7.545 36.273a.959.959 0 0 1-.663.329H5.467v-.711h1.121c.11 0 .22-.055.329-.164l.136-.164H5.55v-2.817h2.434v-.328H5.44v-.766h.684v-.328H5.44v-.738h.684v-.273h.957v.273h2.761v-.3h.93v.3h.766v.738h-.766v.328h.793v.766H8.967v.328h2.489v1.914c.09.693-.256.994-1.04.903h-.328l.11.136c0 .018.009.037.027.055.128.091.228.128.3.11h1.04v.683h-1.559c-.291-.037-.483-.11-.574-.219l-.629-.766h-.52l-.738.711Zm-.464-4.62h2.734v-.329H7.08v.328Zm.875 2.132h-1.45v-.3h1.45v.3Zm1.011 0h1.559v-.3H8.967v.3Zm1.504 1.067H8.995v-.329h1.558v.22c0 .072-.027.109-.082.109Zm-3.965 0h1.45v-.329h-1.45v.329Z" fill="#fff"/><path fill="#CCC" d="M2 2h25v25H2z"/><mask id="b" fill="#fff"><path fill-rule="evenodd" clip-rule="evenodd" d="M24 8.5a1.5 1.5 0 1 1-3.001-.002A1.5 1.5 0 0 1 24 8.5"/></mask><path fill-rule="evenodd" clip-rule="evenodd" d="M24 8.5a1.5 1.5 0 1 1-3.001-.002A1.5 1.5 0 0 1 24 8.5" fill="#fff"/><path d="M23.815 8.5c0 .726-.59 1.315-1.315 1.315v.37c.93 0 1.685-.755 1.685-1.685h-.37ZM22.5 9.815A1.315 1.315 0 0 1 21.185 8.5h-.37c0 .93.754 1.685 1.685 1.685v-.37ZM21.185 8.5c0-.725.588-1.315 1.315-1.315v-.37c-.931 0-1.685.755-1.685 1.685h.37ZM22.5 7.185c.725 0 1.315.59 1.315 1.315h.37c0-.93-.755-1.685-1.685-1.685v.37Z" fill="#505050" mask="url(#b)"/><mask id="c" fill="#fff"><path fill-rule="evenodd" clip-rule="evenodd" d="M24 14.5a1.501 1.501 0 1 1-3.002-.002A1.501 1.501 0 0 1 24 14.5"/></mask><path fill-rule="evenodd" clip-rule="evenodd" d="M24 14.5a1.501 1.501 0 1 1-3.002-.002A1.501 1.501 0 0 1 24 14.5" fill="#fff"/><path d="M23.815 14.5c0 .725-.59 1.315-1.315 1.315v.37c.93 0 1.685-.756 1.685-1.686h-.37ZM22.5 15.814c-.727 0-1.315-.59-1.315-1.316h-.37c0 .93.754 1.686 1.685 1.686v-.37Zm-1.315-1.316c0-.725.588-1.314 1.315-1.314v-.37c-.931 0-1.685.754-1.685 1.684h.37Zm1.315-1.314c.726 0 1.315.589 1.315 1.314h.37c0-.93-.755-1.684-1.685-1.684v.37Z" fill="#505050" mask="url(#c)"/><mask id="d" fill="#fff"><path fill-rule="evenodd" clip-rule="evenodd" d="M16.5 11.5a1.5 1.5 0 1 1-3 0 1.5 1.5 0 0 1 3 0"/></mask><path fill-rule="evenodd" clip-rule="evenodd" d="M16.5 11.5a1.5 1.5 0 1 1-3 0 1.5 1.5 0 0 1 3 0" fill="#fff"/><path d="M16.315 11.5c0 .726-.59 1.315-1.315 1.315v.37c.93 0 1.685-.755 1.685-1.685h-.37ZM15 12.815a1.315 1.315 0 0 1-1.315-1.315h-.37c0 .93.754 1.685 1.685 1.685v-.37ZM13.685 11.5c0-.726.588-1.315 1.315-1.315v-.37c-.931 0-1.685.755-1.685 1.685h.37ZM15 10.185c.726 0 1.315.59 1.315 1.315h.37c0-.93-.755-1.685-1.685-1.685v.37Z" fill="#505050" mask="url(#d)"/><mask id="e" fill="#fff"><path fill-rule="evenodd" clip-rule="evenodd" d="M16.5 17.5a1.5 1.5 0 1 1-3 0 1.5 1.5 0 0 1 3 0"/></mask><path fill-rule="evenodd" clip-rule="evenodd" d="M16.5 17.5a1.5 1.5 0 1 1-3 0 1.5 1.5 0 0 1 3 0" fill="#fff"/><path d="M16.315 17.5c0 .725-.59 1.315-1.315 1.315v.37c.93 0 1.685-.756 1.685-1.686h-.37ZM15 18.814c-.727 0-1.315-.59-1.315-1.316h-.37c0 .93.754 1.686 1.685 1.686v-.37Zm-1.315-1.316c0-.725.588-1.314 1.315-1.314v-.37c-.931 0-1.685.754-1.685 1.684h.37ZM15 16.185c.725 0 1.315.589 1.315 1.314h.37c0-.93-.755-1.684-1.685-1.684v.37Z" fill="#505050" mask="url(#e)"/><mask id="f" fill="#fff"><path fill-rule="evenodd" clip-rule="evenodd" d="M9 8.5a1.5 1.5 0 1 1-3.002-.002A1.5 1.5 0 0 1 9 8.5"/></mask><path fill-rule="evenodd" clip-rule="evenodd" d="M9 8.5a1.5 1.5 0 1 1-3.002-.002A1.5 1.5 0 0 1 9 8.5" fill="#fff"/><path d="M8.815 8.5c0 .726-.59 1.315-1.315 1.315v.37c.93 0 1.685-.755 1.685-1.685h-.37ZM7.5 9.815A1.314 1.314 0 0 1 6.185 8.5h-.37c0 .93.754 1.685 1.685 1.685v-.37ZM6.185 8.5c0-.725.588-1.315 1.315-1.315v-.37c-.932 0-1.685.756-1.685 1.685h.37ZM7.5 7.185c.725 0 1.315.59 1.315 1.315h.37c0-.929-.755-1.685-1.685-1.685v.37Z" fill="#505050" mask="url(#f)"/><mask id="g" fill="#fff"><path fill-rule="evenodd" clip-rule="evenodd" d="M9 14.5a1.5 1.5 0 1 1-3 0 1.5 1.5 0 0 1 3 0"/></mask><path fill-rule="evenodd" clip-rule="evenodd" d="M9 14.5a1.5 1.5 0 1 1-3 0 1.5 1.5 0 0 1 3 0" fill="#fff"/><path d="M8.815 14.5c0 .725-.59 1.315-1.315 1.315v.37c.93 0 1.685-.756 1.685-1.686h-.37ZM7.5 15.814c-.727 0-1.315-.59-1.315-1.316h-.37c0 .93.754 1.686 1.685 1.686v-.37Zm-1.315-1.316c0-.724.588-1.314 1.315-1.314v-.37c-.931 0-1.685.755-1.685 1.684h.37ZM7.5 13.185c.725 0 1.315.59 1.315 1.314h.37c0-.929-.756-1.684-1.685-1.684v.37Z" fill="#505050" mask="url(#g)"/><rect x="7" y="21" width="16" height="2" rx="1" fill="#FFFD54"/><path fill="#FFFD54" d="M29 2h17v25H29z"/><path d="M35.5 4.998c-.354.041-.552-.094-.594-.407l-.312-1.406h1.031l.188.781c.041.146.114.209.218.188h.5v.844H35.5Zm1.25-1.563h1.656l.094-.25h1.094l-.063.219h2.157v1.562h-1v-.625h-1.47l-.75 2.188c-.083.229-.166.354-.25.375v2.219c0 .166.063.25.188.25h.813v.843H37.78c-.458.084-.656-.166-.593-.75V7.03h-.5v-.906h.656c.125 0 .198-.063.218-.188l.594-1.594h-.406v.657h-1V3.435Zm-1.344 3.813c-.291.041-.479-.146-.562-.563l-.313-1.344h1.032l.187.813c.02.166.094.24.219.219h.468v.875h-1.03Zm4.375 2.28-.75-4.124h1.032l.343 1.906h.188c.083 0 .125-.062.125-.187V5.466h.875v1.97c.041.52-.146.76-.563.718h-.437l.218 1.062c.021.125.094.188.22.188h.562v.812h-1.125c-.396.063-.625-.166-.688-.687Zm-4.968-.093c.166.02.27-.062.312-.25l.375-1.5h1.031l-.5 1.875c-.062.48-.302.688-.718.625h-.782v-.75h.282ZM36.813 14.654v-.844H41.5v.844l-.781 1v.531h.906v.906h-.875v.375c.02.625-.25.907-.813.844h-3v-.875h2.5c.105 0 .157-.062.157-.187v-.157h-2.969v-.906h2.969v-.187H37.25v-.875h2.469l.25-.47h-3.157Zm-.157-2.281v-.907h3.719c.083 0 .125-.03.125-.093v-.125h1.125v.218c0 .604-.292.907-.875.907h-4.094Zm-2.062 5.093h.218c.188.021.303-.083.344-.312l.25-1.281h1.125l-.343 1.75c-.021.458-.271.677-.75.656h-.844v-.813Zm.343-4.687-.28-1.469h1.25l.156.906c.02.146.083.209.187.188h.188v.875h-.907c-.333.02-.531-.146-.593-.5Zm-.093 2.25-.25-1.406h1.156l.156.843c.021.167.125.24.313.22h.187v.812h-.968c-.355.041-.553-.115-.594-.47Zm5.031-1.438v-.75h.156c.209.021.313-.01.313-.093l.093-.125h1.094l-.187.593c-.063.271-.25.396-.563.375h-.906Zm-.219 0h-.875c-.375.021-.552-.156-.531-.53v-.438h1.031v.125c0 .062.052.093.157.093h.218v.75Zm-1.625 0h-.812c-.354-.02-.542-.198-.563-.53v-.438h1.032v.125c-.021.062.03.093.156.093h.187v.75ZM37.344 22.279V19.09h1.343v3.188h-1.343Zm-2.907-1.375h.407c.104.02.198-.063.281-.25l.531-1.25h1.375l-.937 2.031c-.146.375-.417.542-.813.5h-.843v-1.031Zm5.438.531-.719-2h1.313L41 20.81c.042.083.104.125.188.125h.468v1.063h-1.031c-.396.062-.646-.125-.75-.563Zm-2.563 1.688v-.5h1.344v.5h2.938v1.093h-2.938v1h2.907v1.032h-7.094v-1.032h2.843v-1h-2.906v-1.093h2.907Z" fill="#fff"/><path fill-rule="evenodd" clip-rule="evenodd" d="m35.625 3.185.188.781c.041.146.114.209.218.188h.5v.844H35.5c-.238.028-.406-.025-.503-.157a.538.538 0 0 1-.09-.25l-.313-1.406h1.031Zm-1.21 1.496-.31-1.387a.5.5 0 0 1 .489-.609h1.031a.5.5 0 0 1 .486.383l.139.579v-.212a.5.5 0 0 1 .5-.5h1.317a.5.5 0 0 1 .433-.25h1.094a.5.5 0 0 1 .413.219h1.68a.5.5 0 0 1 .5.5v1.562a.498.498 0 0 1-.123.33c.02.053.03.11.03.17v1.95c.021.298-.01.635-.216.898a.905.905 0 0 1-.67.34l.05.25h.336a.5.5 0 0 1 .5.5v.812a.5.5 0 0 1-.5.5h-1.09c-.297.037-.605-.026-.846-.26a.5.5 0 0 1-.44.26h-1.396c-.308.046-.676 0-.925-.314-.22-.278-.24-.644-.21-.961V9.04l-.165.62c-.042.288-.149.584-.39.793-.251.219-.562.268-.853.232h-.748a.5.5 0 0 1-.5-.5v-.75a.5.5 0 0 1 .5-.5h.141l.312-1.248a.883.883 0 0 1-.29-.195c-.193-.192-.288-.451-.339-.7l-.31-1.337a.5.5 0 0 1 .407-.607 1.174 1.174 0 0 1-.038-.167Zm.116.66h1.032l.187.813c.019.152.081.226.188.222l.03-.003h.47v.875h-1.032a.49.49 0 0 1-.148 0c-.208-.034-.346-.222-.414-.563l-.313-1.344Zm.594 3.844c-.033.15-.107.233-.22.25a.343.343 0 0 1-.093 0h-.28v.75h.78c.417.063.657-.146.72-.625l.5-1.875H35.5l-.375 1.5Zm2.063-2.156v2.437c-.063.584.135.834.593.75h1.438v-.843h-.813c-.125 0-.187-.084-.187-.25v-2.22c.083-.02.166-.145.25-.374l.75-2.188h1.468v.625h1V3.404h-2.156l.063-.219H38.5l-.094.25H36.75v1.563h1V4.34h.406l-.593 1.594c-.021.125-.094.188-.22.188h-.656v.906h.5Zm-.934-1.156a.5.5 0 0 1 .434-.25h.457l.047-.125h-.442a.502.502 0 0 1-.11-.012.502.502 0 0 1-.109.012h-.42l.087.375h.056Zm3.934-.953V4.84h-.612l-.022.063h.508a.5.5 0 0 1 .126.016Zm-1.157.484h1.032l.343 1.906h.188a.105.105 0 0 0 .096-.051.265.265 0 0 0 .029-.136V5.466h.875v1.97c.039.488-.124.73-.489.722a.92.92 0 0 1-.074-.004h-.437l.218 1.062c.021.125.094.188.22.188h.562v.812h-1.125c-.396.063-.625-.166-.688-.687l-.75-4.125Zm-.22 1.583a1.209 1.209 0 0 1-.092.142v1.744h.435l-.343-1.886Zm-1.998 7.667h3.156l-.25.469H37.25v.875h2.344v.187h-2.969v.906h2.969v.157c0 .125-.052.187-.157.187h-2.5v.875h3c.524.058.795-.181.813-.719.002-.04.001-.081 0-.125v-.375h.875v-.906h-.906v-.531l.781-1v-.844h-4.688v.844Zm.073-1.155a.706.706 0 0 0 .333.092h.812v-.75h-.187a.425.425 0 0 1-.094-.008c-.033-.008-.054-.021-.063-.04-.005-.012-.005-.028 0-.045v-.125h-1.03v.437a.646.646 0 0 0 .064.258.45.45 0 0 0 .165.181Zm-.449-.22v-.875h-.187a.18.18 0 0 1-.07 0 .118.118 0 0 1-.023-.008c-.05-.025-.08-.084-.094-.18l-.157-.906h-1.25l.282 1.469a.693.693 0 0 0 .147.344c.102.116.251.168.446.156h.907Zm-.687.344h-1.156l.25 1.406c.026.226.117.372.272.437a.615.615 0 0 0 .322.032h.968v-.813h-.187a.46.46 0 0 1-.113 0c-.117-.016-.184-.09-.2-.219l-.156-.843Zm-.344 2.25-.25 1.28c-.035.192-.12.296-.256.313a.367.367 0 0 1-.087 0h-.22v.813h.844c.48.02.73-.198.75-.656l.344-1.75h-1.125Zm1.035 2.5c-.037.047-.08.092-.127.134-.255.222-.579.283-.887.272h-.833a.5.5 0 0 1-.5-.5v-.813a.5.5 0 0 1 .5-.5h.09l.205-1.054a.89.89 0 0 1-.175-.108c-.235-.185-.333-.452-.365-.7l-.247-1.394a.5.5 0 0 1 .415-.582 1.429 1.429 0 0 1-.071-.258l-.28-1.466a.5.5 0 0 1 .49-.594h1.25a.5.5 0 0 1 .44.263.498.498 0 0 1 .31-.107h3.43a.5.5 0 0 1 .414-.218h1.125a.5.5 0 0 1 .5.5v.218c0 .295-.056.589-.21.836a.5.5 0 0 1 .093.471l-.182.578a1.171 1.171 0 0 1-.019.065.5.5 0 0 1 .193.394v.844a.5.5 0 0 1-.106.308l-.565.723h.296a.5.5 0 0 1 .5.5v.906a.5.5 0 0 1-.5.5h-.375c-.008.325-.09.655-.327.902-.278.288-.657.351-1.011.317H39.1c.026.038.047.08.062.125h1.306a.5.5 0 0 1 .466.32l.456 1.18h.265a.5.5 0 0 1 .5.5v1.063a.5.5 0 0 1-.5.5h-.996c-.279.035-.57-.008-.82-.194-.243-.183-.375-.45-.444-.724l-.209-.58v1.279c0 .076-.017.15-.048.214a.497.497 0 0 1 .017.13h2.438a.5.5 0 0 1 .5.5v1.093a.5.5 0 0 1-.5.5h-.032a.5.5 0 0 1 .5.5v1.032a.5.5 0 0 1-.5.5H34.47a.5.5 0 0 1-.5-.5v-1.032a.5.5 0 0 1 .5-.5h-.063a.5.5 0 0 1-.5-.5v-1.093a.5.5 0 0 1 .5-.5h2.407c0-.077.017-.15.048-.215a.497.497 0 0 1-.017-.13v-1.275l-.29.629a1.283 1.283 0 0 1-.51.635c-.243.15-.516.192-.787.168h-.82a.5.5 0 0 1-.5-.5v-1.031a.5.5 0 0 1 .5-.5h.251l.508-1.196a.5.5 0 0 1 .46-.304h1.224a.497.497 0 0 1 .05-.094.5.5 0 0 1-.489-.438Zm.903.718v3.188h1.343V19.09h-1.343Zm-1.688.313-.531 1.25c-.067.15-.14.233-.22.25a.15.15 0 0 1-.061 0h-.407v1.031h.844c.396.042.667-.125.813-.5l.937-2.031h-1.375Zm1.657 3.719h-2.907v1.093h2.907v1h-2.844v1.032h7.093v-1.032h-2.906v-1h2.938v-1.093h-2.938v-.5h-1.343v.5Zm2.562-1.688c.104.438.354.625.75.563h1.031v-1.063h-.468c-.084 0-.146-.042-.188-.125l-.531-1.375h-1.313l.719 2Zm1.44-8.125a.652.652 0 0 0 .029-.094l.187-.593h-1.093l-.094.125c0 .05-.038.08-.113.093a.52.52 0 0 1-.075.007c-.036 0-.078-.002-.125-.007h-.156v.75h.906c.274.019.452-.075.534-.28Zm-1.659-.469h-.218a.364.364 0 0 1-.063-.005c-.063-.01-.094-.04-.094-.088v-.125H38.25v.437a.739.739 0 0 0 .023.25.36.36 0 0 0 .258.258c.07.02.154.029.25.023h.875v-.75Zm1.094-.468c.306 0 .532-.084.678-.25a.79.79 0 0 0 .172-.375c.017-.085.025-.18.025-.282v-.218H40.5v.125c0 .062-.042.093-.125.093h-3.719v.907h4.094Zm-4.463 1.406h.026v.135l-.026-.135Z" fill="#505050"/><path fill="#FFFD54" d="M17 29h29v9H17z"/><path d="M18.669 32.594v1.922h.328c.573.02.854-.297.844-.953.01-.667-.271-.99-.844-.97h-.328ZM18.059 35v-2.89h.985c.958.01 1.442.494 1.453 1.453-.01.947-.495 1.427-1.453 1.437h-.985ZM20.963 35v-2.89h1.938v.484h-1.313v.672h1.219v.484h-1.219v.766h1.36V35h-1.985ZM26.101 35h-.89l-1.125-2.406-.016.015V35h-.578v-2.89h.922l1.093 2.28.016-.015v-2.266h.578V35ZM28.802 32.938h-.594c-.01-.292-.167-.438-.469-.438-.302.02-.458.146-.468.375 0 .188.15.318.453.39.031.011.057.016.078.016.01 0 .036.005.078.016.677.135 1.01.4 1 .797-.01.604-.422.916-1.234.937-.75 0-1.12-.317-1.11-.953h.625c0 .333.162.51.485.531.375-.01.567-.135.578-.375 0-.198-.183-.333-.547-.406a.483.483 0 0 1-.11-.031c-.635-.146-.953-.412-.953-.797.032-.594.433-.911 1.203-.953.625.031.954.328.985.89ZM29.346 35v-2.89h1.938v.484H29.97v.672h1.219v.484h-1.219v.766h1.36V35h-1.985ZM34.823 32.594v1.922h.328c.573.02.854-.297.844-.953.01-.667-.27-.99-.844-.97h-.328ZM34.213 35v-2.89h.985c.958.01 1.443.494 1.453 1.453-.01.947-.495 1.427-1.453 1.437h-.984ZM39.07 32.11h.626v1.812c-.032.719-.448 1.088-1.25 1.11-.823-.022-1.245-.391-1.266-1.11v-1.813h.625v1.578c-.042.636.172.943.64.922.459.021.667-.286.626-.922V32.11ZM42.459 32.938h-.594c-.01-.292-.167-.438-.469-.438-.302.02-.458.146-.468.375 0 .188.15.318.453.39.03.011.057.016.078.016.01 0 .036.005.078.016.677.135 1.01.4 1 .797-.01.604-.422.916-1.234.937-.75 0-1.12-.317-1.11-.953h.625c0 .333.162.51.485.531.375-.01.567-.135.578-.375 0-.198-.183-.333-.547-.406a.486.486 0 0 1-.11-.031c-.635-.146-.953-.412-.953-.797.032-.594.432-.911 1.203-.953.625.031.954.328.985.89ZM42.816 32.594v-.485h2.343v.485h-.86V35h-.624v-2.406h-.86Z" fill="#fff"/><path fill-rule="evenodd" clip-rule="evenodd" d="M18.06 32.11V35h.984c.165-.002.316-.017.453-.047.544-.118.866-.455.966-1.012.021-.116.032-.242.034-.379a2.335 2.335 0 0 0-.034-.383c-.1-.564-.424-.905-.97-1.023a2.244 2.244 0 0 0-.45-.047h-.984Zm.937.484h-.328v1.922h.328a1.5 1.5 0 0 0 .172-.005.89.89 0 0 0 .2-.042c.322-.11.48-.412.472-.907.008-.503-.151-.811-.477-.922a.876.876 0 0 0-.266-.046 1.6 1.6 0 0 0-.101 0Zm.172.51v.902c.066-.014.088-.037.094-.044.023-.026.082-.123.078-.392v-.015c.004-.276-.056-.378-.08-.406-.007-.008-.028-.031-.092-.045Zm1.294-.993c-.365-.354-.865-.496-1.414-.502h-.99a.5.5 0 0 0-.5.5V35a.5.5 0 0 0 .5.5h.99c.549-.006 1.049-.146 1.414-.498a.5.5 0 0 0 .5.498h1.985c.1 0 .193-.03.272-.08.078.05.171.08.272.08h.578a.5.5 0 0 0 .5-.5v-.19l.188.402a.5.5 0 0 0 .453.288h.89a.5.5 0 0 0 .446-.274c.305.228.696.305 1.099.305h.012c.456-.012.883-.105 1.208-.352l.01-.008a.5.5 0 0 0 .47.329h1.985a.5.5 0 0 0 .5-.5v-.484a.5.5 0 0 0-.262-.44.498.498 0 0 0 .121-.326v-.484a.498.498 0 0 0-.09-.286.499.499 0 0 0 .184-.386v-.485a.5.5 0 0 0-.5-.5h-1.938a.5.5 0 0 0-.468.323 1.043 1.043 0 0 0-.01-.01c-.28-.252-.645-.355-1.026-.375a.5.5 0 0 0-.051 0c-.44.024-.85.13-1.163.377a1.262 1.262 0 0 0-.048.04.5.5 0 0 0-.479-.355h-.578a.5.5 0 0 0-.5.5v.115l-.158-.33a.5.5 0 0 0-.451-.285h-.922a.498.498 0 0 0-.296.097.498.498 0 0 0-.295-.097h-1.938a.5.5 0 0 0-.5.5v.002Zm.5 2.889h1.985v-.484h-1.36v-.766h1.219v-.484h-1.219v-.672h1.313v-.485h-1.938V35Zm4.56-.625-.015.016-1.094-2.282h-.922V35h.578v-2.39l.016-.016L25.21 35h.89v-2.89h-.578v2.265Zm1.013-.297v.052c.002.139.024.262.065.37a.77.77 0 0 0 .503.457 1.698 1.698 0 0 0 .542.074h.011c.318-.01.573-.064.767-.163a.781.781 0 0 0 .422-.514c.021-.08.032-.167.034-.26a.59.59 0 0 0-.034-.219c-.066-.182-.228-.328-.487-.438a1.946 1.946 0 0 0-.15-.056 2.87 2.87 0 0 0-.407-.1.258.258 0 0 1-.078-.015c-.302-.073-.453-.203-.453-.391a.353.353 0 0 1 .088-.231c.076-.084.203-.132.38-.144a.901.901 0 0 1 .103.006.44.44 0 0 1 .22.085c.075.06.122.148.14.267a.722.722 0 0 1 .006.08h.594c-.011-.2-.06-.367-.147-.5a.775.775 0 0 0-.36-.293 1.411 1.411 0 0 0-.478-.098 3.11 3.11 0 0 0-.078.005l-.03.003c-.258.024-.47.082-.638.174-.286.157-.438.414-.457.771 0 .239.122.431.366.578.054.033.115.063.181.092a2.447 2.447 0 0 0 .417.131.574.574 0 0 0 .099.027c.364.073.547.208.547.406a.33.33 0 0 1-.081.213c-.09.102-.256.156-.497.162h-.011a.545.545 0 0 1-.313-.11.45.45 0 0 1-.152-.293.856.856 0 0 1-.009-.128h-.625Zm2.81.922h1.985v-.484h-1.36v-.766h1.219v-.484h-1.219v-.672h1.313v-.485h-1.938V35Zm4.868-2.89V35h.984c.165-.002.316-.017.453-.047.658-.142.992-.606 1-1.39-.008-.795-.343-1.264-1.004-1.407a2.243 2.243 0 0 0-.449-.047h-.984Zm.937.484h-.328v1.922h.375a1.45 1.45 0 0 0 .125-.005.887.887 0 0 0 .2-.042c.322-.11.48-.412.472-.907.008-.503-.151-.811-.476-.922a.877.877 0 0 0-.267-.046l-.054-.001h-.047Zm.172.51v.902c.067-.014.088-.037.094-.044.023-.026.082-.123.078-.392v-.015c.004-.276-.055-.378-.08-.406-.007-.008-.028-.031-.092-.045Zm-1.11 2.396a.5.5 0 0 1-.5-.5v-2.89a.5.5 0 0 1 .5-.5h.99c.558.005 1.064.15 1.43.517l.047.048v-.066a.5.5 0 0 1 .5-.5h.625a.5.5 0 0 1 .5.5v1.578l-.001.033c-.009.13-.003.226.01.293a.31.31 0 0 0 .028.091c.01.003.035.008.081.006h.045a.284.284 0 0 0 .068-.004.334.334 0 0 0 .027-.09 1.264 1.264 0 0 0 .008-.328v-1.579a.5.5 0 0 1 .5-.5h.625a.5.5 0 0 1 .49.402c.031-.03.064-.059.099-.087.313-.248.723-.353 1.162-.376a.501.501 0 0 1 .052 0c.328.016.645.095.905.278a.5.5 0 0 1 .412-.217h2.343a.5.5 0 0 1 .5.5v.485a.5.5 0 0 1-.5.5h-.36V35a.5.5 0 0 1-.5.5h-.624a.5.5 0 0 1-.5-.5v-1.906h-.241a.5.5 0 0 1-.182.248c.187.206.292.465.285.762-.008.426-.165.81-.514 1.075-.325.247-.752.34-1.208.352h-.012c-.433 0-.853-.09-1.166-.359a1.201 1.201 0 0 1-.243-.283c-.058.08-.125.154-.203.223-.328.291-.764.407-1.232.42a.55.55 0 0 1-.026 0c-.475-.013-.919-.127-1.25-.418a1.378 1.378 0 0 1-.322-.413c-.064.103-.14.2-.23.287-.366.363-.872.506-1.428.512h-.989Zm5.98-1.422v.052c.003.175.036.324.1.448.093.18.248.305.468.378a1.697 1.697 0 0 0 .541.075h.012c.318-.01.573-.064.767-.163.298-.152.45-.41.456-.774.007-.288-.166-.506-.521-.657a1.928 1.928 0 0 0-.151-.056 2.871 2.871 0 0 0-.406-.1.257.257 0 0 1-.078-.015c-.303-.073-.453-.203-.453-.391a.353.353 0 0 1 .088-.231c.076-.084.203-.132.38-.144a.904.904 0 0 1 .103.006.44.44 0 0 1 .22.085c.075.06.122.148.139.267a.752.752 0 0 1 .007.08h.594a1.15 1.15 0 0 0-.068-.344.816.816 0 0 0-.075-.151l-.004-.005a.775.775 0 0 0-.36-.293 1.411 1.411 0 0 0-.478-.098 3.101 3.101 0 0 0-.078.005l-.03.003c-.258.024-.47.082-.638.174-.286.157-.438.414-.457.771 0 .239.122.431.366.578.054.033.114.063.181.092a2.449 2.449 0 0 0 .417.131.574.574 0 0 0 .099.027c.364.073.547.208.547.406a.33.33 0 0 1-.081.213c-.09.102-.257.156-.497.162h-.011a.545.545 0 0 1-.313-.11.45.45 0 0 1-.152-.293.856.856 0 0 1-.009-.128h-.625Zm3.482.922h.625v-2.406h.86v-.485h-2.344v.485h.859V35Zm-4.604-1.313V32.11h.625v1.813c-.02.434-.179.74-.478.92-.193.116-.444.178-.754.189h-.018c-.316-.008-.572-.067-.77-.178-.318-.177-.483-.488-.496-.931v-1.813h.625v1.578c-.023.353.032.605.167.756.105.118.26.174.463.167H38.456c.2.007.352-.05.456-.171.129-.15.181-.401.159-.752Z" fill="#505050"/><defs><clipPath id="a"><path fill="#fff" d="M0 0h48v40H0z"/></clipPath></defs></svg>