<svg width="48" height="40" fill="none" xmlns="http://www.w3.org/2000/svg"><g clip-path="url(#a)"><path fill-rule="evenodd" clip-rule="evenodd" d="M0 38a2 2 0 0 0 2 2h44a2 2 0 0 0 2-2V2A2 2 0 0 0 46.15.005L46 0H2l-.15.005A2 2 0 0 0 0 2v36ZM27 2H2v25h25V2ZM2 29v9h13v-9H2Zm15 9h29v-9H17v9Zm29-11V2H29v25h17Z" fill="#505050"/></g><path fill="#F29D38" d="M2 29h13v9H2z"/><path d="M7.352 36.574v-3.718h.164v-.794h-.164v-.246h.218v-.765h-.218v-.656h-.903v.656H5.33v.793h1.093v.218H5.52l-.11 3.5c0 .092-.036.128-.11.11v.656h.384c.346 0 .52-.182.52-.547l.109-2.925h.109v3.718h.93Zm1.175-3.527c.638.073.957-.237.957-.93l.11-1.668h-1.86v.684h.93l-.027.328h-.219c-.091.018-.128-.018-.11-.11h-.574v.247c0 .328.137.501.41.52h.438l-.027.081c-.019.128-.073.183-.164.164h-.63v.684h.766Zm2.98-.684v.657h-.984a1.141 1.141 0 0 1-.109.003c-.384-.005-.585-.225-.601-.66l-.137-1.914h1.86v.766h-.848l.054.273h.137c.091.018.137-.018.137-.11h.546l-.027.329c-.018.31-.155.438-.41.383h-.355l.027.11c-.018.127.045.181.191.163h.52Zm.028 1.504v-.656H7.652v.656h3.883Zm0 2.078v.547H7.543v-.547h.574l-.082-.3H7.68v-1.56h3.855v1.013c.018.4-.146.583-.492.547l-.055.3h.547Zm-1.039-.957a.133.133 0 0 0 .04.005c.046-.003.07-.041.07-.114v-.11H8.554v.22h1.941Zm-1.45.957h1.04v-.3h-1.04v.3Z" fill="#505050" stroke="#505050"/><path d="M7.352 36.574v-3.718h.164v-.794h-.164v-.246h.218v-.765h-.218v-.656h-.903v.656H5.33v.793h1.093v.218H5.52l-.11 3.5c0 .092-.036.128-.11.11v.656h.384c.346 0 .52-.182.52-.547l.109-2.925h.109v3.718h.93Zm1.175-3.527c.638.073.957-.237.957-.93l.11-1.668h-1.86v.684h.93l-.027.328h-.219c-.091.018-.128-.018-.11-.11h-.574v.247c0 .328.137.501.41.52h.438l-.027.081c-.019.128-.073.183-.164.164h-.63v.684h.766Zm2.98-.684v.657h-.984a1.141 1.141 0 0 1-.109.003c-.384-.005-.585-.225-.601-.66l-.137-1.914h1.86v.766h-.848l.054.273h.137c.091.018.137-.018.137-.11h.546l-.027.329c-.018.31-.155.438-.41.383h-.355l.027.11c-.018.127.045.181.191.163h.52Zm.028 1.504v-.656H7.652v.656h3.883Zm0 2.078v.547H7.543v-.547h.574l-.082-.3H7.68v-1.56h3.855v1.013c.018.4-.146.583-.492.547l-.055.3h.547Zm-1.039-.957a.133.133 0 0 0 .04.005c.046-.003.07-.041.07-.114v-.11H8.554v.22h1.941Zm-1.45.957h1.04v-.3h-1.04v.3Z" fill="#fff"/><path fill="#CCC" d="M2 2h25v25H2z"/><path d="M5.925 4.134A1 1 0 0 0 5.56 5.5l3.212 5.562-3.212 5.563a1.011 1.011 0 0 0-.066.138 1 1 0 0 0 .108 1.023L9.38 22.8H5.65a1.25 1.25 0 1 0 0 2.5h18.5a1.25 1.25 0 1 0 0-2.5h-.836l-4.292-5.696 3.19-5.525a1 1 0 0 0 0-1.033L18.722 4.5a1 1 0 1 0-1.733 1l3.212 5.562-3.212 5.563a1.002 1.002 0 0 0-.066.138 1 1 0 0 0 .109 1.023L20.81 22.8h-3.211l-4.292-5.696 3.19-5.525a1 1 0 0 0 0-1.033L13.007 4.5a1 1 0 0 0-1.733 1l3.212 5.562-3.212 5.563a1.013 1.013 0 0 0-.066.138 1 1 0 0 0 .108 1.023l3.779 5.014h-3.211l-4.292-5.696 3.19-5.525a1.019 1.019 0 0 0 .144-.517.995.995 0 0 0-.144-.516L7.292 4.5a1 1 0 0 0-1.367-.366ZM29 2h17v25H29z" fill="#F29D38"/><path fill-rule="evenodd" clip-rule="evenodd" d="M38.398 12.86v-2.344h3.75V9.383h-3.75V5.086h3.555V3.992h-8.516v1.094h3.555v4.297H33.32v1.133h3.672v2.343h1.406ZM41 20.718c.636-.026.953-.404.953-1.133V16.07h-8.672v4.649h7.72Zm-6.313-2.696h5.938v-.82h-5.938v.82Zm5.547 1.72h-5.547v-.782h5.938v.39c-.026.261-.156.391-.39.391Zm-1.875 4.374v.781h-1.484v-.78h-3.75v-1.016h3.75v-.899h-3.672v-1.015h8.828v1.015H38.36v.899h3.711v1.015h-3.71Z" fill="#fff" stroke="#505050"/><path fill-rule="evenodd" clip-rule="evenodd" d="M38.398 12.86v-2.344h3.75V9.383h-3.75V5.086h3.555V3.992h-8.516v1.094h3.555v4.297H33.32v1.133h3.672v2.343h1.406ZM41 20.718c.636-.026.953-.404.953-1.133V16.07h-8.672v4.649h7.72Zm-6.313-2.696h5.938v-.82h-5.938v.82Zm5.547 1.72h-5.547v-.782h5.938v.39c-.026.261-.156.391-.39.391Zm-1.875 4.374v.781h-1.484v-.78h-3.75v-1.016h3.75v-.899h-3.672v-1.015h8.828v1.015H38.36v.899h3.711v1.015h-3.71Z" fill="#fff"/><path fill="#F29D38" d="M17 29h29v9H17z"/><path fill-rule="evenodd" clip-rule="evenodd" d="M27.76 35.04c1.106-.027 1.68-.639 1.718-1.837-.039-1.224-.612-1.855-1.718-1.894-1.133.039-1.713.67-1.739 1.894.026 1.198.606 1.81 1.739 1.836Zm-5.489-1.837C22.26 34.401 21.654 35 20.456 35h-1.23v-3.613h1.23c1.198.013 1.804.618 1.817 1.816Zm-2.285 1.191h.54-.13c.717.027 1.068-.37 1.055-1.19.013-.821-.338-1.225-1.055-1.212h-.41v2.402Zm3.575.606v-1.445h.82c.182 0 .293.156.332.468.013.339.058.664.137.977h.84c-.105-.13-.17-.417-.196-.86a.369.369 0 0 1-.02-.117c-.078-.494-.292-.761-.644-.8v-.02c.482-.117.73-.41.742-.879-.013-.599-.43-.911-1.25-.937H22.78V35h.782Zm0-2.05h.644c.352 0 .534-.17.547-.509-.013-.3-.195-.449-.547-.449h-.644v.957Zm3.28.253c-.012.886.294 1.322.919 1.309.599 0 .898-.437.898-1.309 0-.885-.3-1.328-.898-1.328-.625 0-.931.443-.918 1.328Zm4.805 1.836c1.003-.026 1.524-.488 1.563-1.387v-2.265h-.781v1.972c.039.808-.222 1.192-.781 1.153-.586.039-.853-.345-.801-1.153v-1.972h-.782v2.265c.026.899.554 1.361 1.582 1.387ZM36.295 35c-.208.026-.482.04-.82.04-1.107-.053-1.674-.665-1.7-1.837.026-1.172.593-1.803 1.7-1.894 1.12 0 1.68.39 1.68 1.171h-.821c0-.403-.24-.605-.723-.605-.677.026-1.015.469-1.015 1.328 0 .86.338 1.296 1.015 1.309.196 0 .424-.02.684-.059.013 0 .026-.006.039-.02v-.761h-.703v-.606h1.465v1.817c-.26.078-.528.117-.801.117Zm2.285 0v-1.582h1.387V35h.761v-3.613h-.78v1.425H38.58v-1.425h-.762V35h.762Zm4.395-3.008V35h-.782v-3.008H41.12v-.605h2.93v.605h-1.074Z" fill="#fff" stroke="#505050"/><path fill-rule="evenodd" clip-rule="evenodd" d="M27.76 35.04c1.106-.027 1.68-.639 1.718-1.837-.039-1.224-.612-1.855-1.718-1.894-1.133.039-1.713.67-1.739 1.894.026 1.198.606 1.81 1.739 1.836Zm-5.489-1.837C22.26 34.401 21.654 35 20.456 35h-1.23v-3.613h1.23c1.198.013 1.804.618 1.817 1.816Zm-2.285 1.191h.54-.13c.717.027 1.068-.37 1.055-1.19.013-.821-.338-1.225-1.055-1.212h-.41v2.402Zm3.575.606v-1.445h.82c.182 0 .293.156.332.468.013.339.058.664.137.977h.84c-.105-.13-.17-.417-.196-.86a.369.369 0 0 1-.02-.117c-.078-.494-.292-.761-.644-.8v-.02c.482-.117.73-.41.742-.879-.013-.599-.43-.911-1.25-.937H22.78V35h.782Zm0-2.05h.644c.352 0 .534-.17.547-.509-.013-.3-.195-.449-.547-.449h-.644v.957Zm3.28.253c-.012.886.294 1.322.919 1.309.599 0 .898-.437.898-1.309 0-.885-.3-1.328-.898-1.328-.625 0-.931.443-.918 1.328Zm4.805 1.836c1.003-.026 1.524-.488 1.563-1.387v-2.265h-.781v1.972c.039.808-.222 1.192-.781 1.153-.586.039-.853-.345-.801-1.153v-1.972h-.782v2.265c.026.899.554 1.361 1.582 1.387ZM36.295 35c-.208.026-.482.04-.82.04-1.107-.053-1.674-.665-1.7-1.837.026-1.172.593-1.803 1.7-1.894 1.12 0 1.68.39 1.68 1.171h-.821c0-.403-.24-.605-.723-.605-.677.026-1.015.469-1.015 1.328 0 .86.338 1.296 1.015 1.309.196 0 .424-.02.684-.059.013 0 .026-.006.039-.02v-.761h-.703v-.606h1.465v1.817c-.26.078-.528.117-.801.117Zm2.285 0v-1.582h1.387V35h.761v-3.613h-.78v1.425H38.58v-1.425h-.762V35h.762Zm4.395-3.008V35h-.782v-3.008H41.12v-.605h2.93v.605h-1.074Z" fill="#fff"/><defs><clipPath id="a"><path fill="#fff" d="M0 0h48v40H0z"/></clipPath></defs></svg>