<svg width="48" height="40" fill="none" xmlns="http://www.w3.org/2000/svg"><g clip-path="url(#a)"><path fill-rule="evenodd" clip-rule="evenodd" d="M0 38a2 2 0 0 0 2 2h44a2 2 0 0 0 2-2V2A2 2 0 0 0 46.15.005L46 0H2l-.15.005A2 2 0 0 0 0 2v36ZM27 2H2v25h25V2ZM2 29v9h13v-9H2Zm15 9h29v-9H17v9Zm29-11V2H29v25h17Z" fill="#505050"/></g><path fill="#3A6AF6" d="M2 29h13v9H2z"/><path fill-rule="evenodd" clip-rule="evenodd" d="M11.563 31.516v-.793h-.63l.11-.328H9.84l-.11.328H7.215l-.137-.328H5.875l.11.328h-.63v.793h6.207ZM9.183 32.8c.128.018.228-.046.301-.192l.082-.164h1.996v-.683H9.758l.027-.082h-.93l-.136.273c-.055.128-.146.182-.274.164h-.41v.684h1.149Zm-2.761-1.012v2.023h-.93V31.79h.93Zm1.367 2.023V31.79h-.848v2.023h.848Zm3.774 0H9.02c-.347.019-.547-.063-.602-.246l-.355-.656h1.093l.082.11c.019.109.1.154.246.136h2.079v.657Zm0 2.817v-.738h-.247v-1.832H5.52v1.832h-.192v.738h6.234Zm-5.141-.738h.793v-1.04h-.793v1.04Zm1.613 0v-1.04h.766v1.04h-.766Zm1.64 0h.794v-1.04h-.793v1.04Z" fill="#fff" stroke="#505050"/><path fill-rule="evenodd" clip-rule="evenodd" d="M11.563 31.516v-.793h-.63l.11-.328H9.84l-.11.328H7.215l-.137-.328H5.875l.11.328h-.63v.793h6.207ZM9.183 32.8c.128.018.228-.046.301-.192l.082-.164h1.996v-.683H9.758l.027-.082h-.93l-.136.273c-.055.128-.146.182-.274.164h-.41v.684h1.149Zm-2.761-1.012v2.023h-.93V31.79h.93Zm1.367 2.023V31.79h-.848v2.023h.848Zm3.774 0H9.02c-.347.019-.547-.063-.602-.246l-.355-.656h1.093l.082.11c.019.109.1.154.246.136h2.079v.657Zm0 2.817v-.738h-.247v-1.832H5.52v1.832h-.192v.738h6.234Zm-5.141-.738h.793v-1.04h-.793v1.04Zm1.613 0v-1.04h.766v1.04h-.766Zm1.64 0h.794v-1.04h-.793v1.04Z" fill="#fff"/><path fill="#CCC" d="M2 2h25v25H2z"/><path d="M24.753 16.126c-1.075 1.886-3.39 1.17-1.49 3.205C24.73 20.9 21.825 25 13.834 25h-1.985s1.141-.197 4.219-1.233c3.077-1.035 7.445-4.535 1.737-3.697-5.708.838-7.445 1.232-7.942.493-.496-.74.645-.394 2.234-.493 1.588-.099 7.693-1.232 8.19-3.204.496-1.972.248-2.268-1.738-1.726-1.985.542-2.68 1.676-6.452 1.972-3.773.296-12.657.542-5.212-.493 7.445-1.035 11.863-3.007 12.409-4.683.546-1.676.149-3.155-3.97-3.451 0 0 4.863-3.5 8.933.246 1.192 1.874-.297 3.55-.992 4.19-.695.642 2.65 1.17 1.489 3.205Z" fill="#3A6AF6"/><path d="M13.658 22.26a.655.655 0 0 1-.405.598.666.666 0 0 1-.718-.14.645.645 0 0 1-.143-.705.65.65 0 0 1 .242-.29.666.666 0 0 1 .831.08.642.642 0 0 1 .193.457Zm1-4.562a.518.518 0 0 1-.329.484.54.54 0 0 1-.581-.113.52.52 0 0 1 .08-.806.539.539 0 0 1 .674.065.52.52 0 0 1 .155.37Zm-.533-6.626a.791.791 0 0 1-.435-.13.76.76 0 0 1-.119-1.185.787.787 0 0 1 .854-.167.78.78 0 0 1 .35.284.761.761 0 0 1-.096.971.789.789 0 0 1-.553.227h-.001Zm0-4.439a.791.791 0 0 1-.435-.13.76.76 0 0 1-.119-1.185.787.787 0 0 1 .854-.167.78.78 0 0 1 .35.284.762.762 0 0 1-.096.972.789.789 0 0 1-.553.226h-.001Zm-4 6.904a.79.79 0 0 1-.435-.13.76.76 0 0 1-.119-1.185.787.787 0 0 1 1.205.117.762.762 0 0 1-.097.972.79.79 0 0 1-.554.226Zm-.25-6.904a.791.791 0 0 1-.435-.13.76.76 0 0 1-.119-1.185.786.786 0 0 1 .854-.167.78.78 0 0 1 .35.284.762.762 0 0 1-.096.972.789.789 0 0 1-.553.226h-.001Zm-3 4.439a.791.791 0 0 1-.435-.13.76.76 0 0 1-.119-1.185.786.786 0 0 1 .854-.167.78.78 0 0 1 .351.284.762.762 0 0 1-.351 1.139.792.792 0 0 1-.3.059Zm1.375 7.335a.665.665 0 0 1 .608.4.638.638 0 0 1-.143.705.661.661 0 0 1-.717.14.64.64 0 0 1 0-1.196.667.667 0 0 1 .252-.049Z" fill="#fff" stroke="#505050" stroke-width=".185"/><path fill="#3A6AF6" d="M29 2h17v25H29z"/><path d="M38.242 4.992h1.485v7.383h-1.485V4.992Zm1.914 7.461.313-1.367h1.523l-.39 1.797c0 .807-.456 1.146-1.368 1.015h-4.57v-1.054h3.945c.365.052.547-.078.547-.39Zm-3.476-7.07h1.406l-.352 4.219c0 .859-.3 1.236-.898 1.132h-.977V9.641h.235c.13.026.208-.052.234-.235l.352-4.023Zm3.36-.04h1.483l.196 4.063c.026.209.078.3.156.274h.195v1.054h-.508c-.937.157-1.367-.26-1.289-1.25l-.234-4.14Zm-6.954 7.5h.43c.286.027.442-.103.468-.39l.391-1.64h1.445l-.508 2.304c-.104.521-.572.781-1.406.781h-.82v-1.054Zm.352-5.976-.274-1.758h1.602l.156 1.133c0 .209.143.3.43.274h.507v1.132h-1.25c-.78.079-1.172-.182-1.172-.78Zm.156 2.735-.39-1.524h1.562l.195.86c.026.286.143.416.352.39h.39v1.133H35c-.911.078-1.38-.208-1.406-.86ZM36.68 19.898v-3.984h1.68v3.984h-1.68Zm-3.633-1.718h.508c.13.026.247-.078.351-.313l.664-1.562h1.72l-1.173 2.539c-.182.468-.52.677-1.015.625h-1.055v-1.29Zm6.797.664-.899-2.5h1.64l.665 1.718c.052.105.13.157.234.157h.586v1.328h-1.289c-.495.078-.807-.156-.937-.703Zm-3.203 2.11v-.626h1.68v.625h3.671v1.367H38.32v1.25h3.633v1.29h-8.867v-1.29h3.555v-1.25h-3.633v-1.367h3.633Z" fill="#fff"/><path fill-rule="evenodd" clip-rule="evenodd" d="M37.754 4.883a.5.5 0 0 1 .488-.39h1.485a.5.5 0 0 1 .477.35h1.32a.5.5 0 0 1 .499.477l.186 3.88a.5.5 0 0 1 .361.48v1.054c0 .103-.03.198-.083.277a.5.5 0 0 1-.006.181l-.38 1.748c-.01.47-.156.916-.543 1.204-.374.277-.862.32-1.358.254h-4.536a.5.5 0 0 1-.46-.304 1.544 1.544 0 0 1-.078.046c-.34.188-.761.258-1.22.258h-.82a.5.5 0 0 1-.5-.5v-1.054a.5.5 0 0 1 .5-.5h.41l.002-.007.363-1.523a1.381 1.381 0 0 1-.157-.083c-.388-.237-.576-.62-.607-1.052l-.378-1.477a.5.5 0 0 1 .403-.617 1.347 1.347 0 0 1-.184-.676l-.268-1.723a.5.5 0 0 1 .494-.577h1.602a.5.5 0 0 1 .495.432l.134.975h.464c.094 0 .182.026.257.07l.066-.747a.5.5 0 0 1 .498-.456h1.074Zm.488.11v7.382h1.485V4.992h-1.485Zm1.914 7.46a.43.43 0 0 1-.082.282.301.301 0 0 1-.126.088.56.56 0 0 1-.221.031 1.084 1.084 0 0 1-.118-.01h-3.945v1.054h4.57c.912.13 1.368-.208 1.368-1.015l.39-1.797H40.47l-.313 1.367Zm-4.843.664.507-2.305h-1.445l-.39 1.641c-.024.262-.157.394-.4.394a.747.747 0 0 1-.07-.003h-.43v1.054h.821c.623 0 1.043-.145 1.258-.436a.852.852 0 0 0 .148-.345ZM35 10.461h.703V9.328h-.39a.359.359 0 0 1-.097 0c-.148-.022-.233-.152-.255-.39l-.195-.86h-1.563l.39 1.524c.016.392.193.651.53.779.075.029.16.051.252.066.178.03.386.034.625.014Zm-.39-2.813h1.25V6.516h-.508c-.287.026-.43-.065-.43-.274l-.156-1.133h-1.602l.273 1.758c0 .358.14.595.419.711.188.078.439.102.753.07Zm.684.5.155.679v.001h.254c.06 0 .118.01.171.03l.063-.716a.501.501 0 0 1-.078.006h-.565Zm.91 1.485a.199.199 0 0 1-.11.007h-.235v1.094h.977c.599.104.898-.273.898-1.132l.352-4.22H36.68l-.352 4.024c-.018.124-.06.2-.125.227Zm1.538 1.37c-.268.224-.607.28-.945.231h-.558l-.244 1.11h1.747v-1.34Zm2.849-.417c.216.17.54.22.971.148h.508V9.68h-.195a.07.07 0 0 1-.048 0c-.052-.02-.088-.112-.108-.274l-.196-4.062H40.04l.234 4.14c-.042.534.064.902.318 1.102Zm1.637-1.167v-.002Zm-6.017 10.654a.5.5 0 0 1-.031-.175v-2.163l-.603 1.305c-.12.303-.309.565-.588.737-.277.17-.592.22-.912.192h-1.03a.5.5 0 0 1-.5-.5v-1.29a.5.5 0 0 1 .5-.5h.395l.006-.011.662-1.559a.5.5 0 0 1 .46-.304h1.622a.5.5 0 0 1 .488-.39h1.68a.5.5 0 0 1 .495.437.497.497 0 0 1 .09-.008h1.64a.5.5 0 0 1 .467.32l.601 1.555h.417a.5.5 0 0 1 .5.5v1.328a.5.5 0 0 1-.5.5h-1.253c-.328.044-.66-.007-.941-.217-.275-.207-.43-.514-.512-.842l-.505-1.405v2.315c0 .094-.025.181-.07.256a.5.5 0 0 1 .031.174v.125h3.172a.5.5 0 0 1 .5.5v1.367a.5.5 0 0 1-.5.5H38.82v.25h3.133a.5.5 0 0 1 .5.5v1.29a.5.5 0 0 1-.5.5h-8.867a.5.5 0 0 1-.5-.5v-1.29a.5.5 0 0 1 .5-.5h3.055v-.25h-3.133a.5.5 0 0 1-.5-.5v-1.367a.5.5 0 0 1 .5-.5h3.133v-.125c0-.093.025-.18.07-.255Zm.469-.175h1.68v-3.984h-1.68v3.984Zm-.04 1.055h-3.632v1.367h3.633v1.25h-3.555v1.29h8.867v-1.29H38.32v-1.25h3.672v-1.367H38.32v-.625h-1.68v.625Zm3.204-2.11c.13.548.442.782.937.704h1.29v-1.328h-.587c-.104 0-.182-.052-.234-.157l-.664-1.718h-1.64l.898 2.5Zm-5.274-2.538-.664 1.562c-.104.235-.221.339-.351.313h-.508v1.289h1.055c.494.052.833-.157 1.015-.625l1.172-2.54H34.57Z" fill="#505050"/><path fill="#3A6AF6" d="M17 29h29v9H17z"/><path d="M25.262 32.318v2.403h.41c.716.026 1.068-.371 1.055-1.192.013-.833-.339-1.237-1.055-1.21h-.41Zm-.762 3.008v-3.613h1.23c1.198.013 1.804.618 1.817 1.816-.013 1.185-.619 1.784-1.817 1.797H24.5ZM30.496 31.713h.781v2.265c-.039.899-.56 1.361-1.562 1.387-1.029-.026-1.556-.488-1.582-1.387v-2.265h.781v1.972c-.052.795.215 1.179.8 1.153.574.026.834-.358.782-1.153v-1.972ZM34.656 32.748h-.742c-.013-.364-.208-.547-.586-.547-.378.026-.573.182-.586.469 0 .234.189.397.567.488.039.013.071.02.097.02a.58.58 0 0 1 .098.02c.846.169 1.263.5 1.25.995-.013.756-.527 1.146-1.543 1.172-.938 0-1.4-.397-1.387-1.191h.781c0 .416.202.638.606.664.469-.013.71-.17.723-.469 0-.247-.228-.416-.684-.508a.605.605 0 0 1-.137-.039c-.794-.182-1.191-.514-1.191-.996.039-.742.54-1.14 1.504-1.191.781.039 1.191.41 1.23 1.113ZM35.027 32.318v-.605h2.93v.605h-1.074v3.008h-.781v-3.008h-1.075Z" fill="#fff"/><path fill-rule="evenodd" clip-rule="evenodd" d="M25.73 35.326H24.5v-3.613h1.23c1.198.013 1.804.618 1.817 1.816-.013 1.185-.619 1.784-1.817 1.797Zm-.058-3.008h-.41v2.403h.41c.716.026 1.068-.371 1.055-1.192.013-.833-.339-1.237-1.055-1.21Zm.09 1.904c.21-.005.296-.065.336-.111.058-.066.134-.223.129-.574v-.016c.005-.359-.071-.522-.131-.591-.042-.047-.126-.108-.334-.113v1.405ZM24.5 35.826a.5.5 0 0 1-.5-.5v-3.613a.5.5 0 0 1 .5-.5h1.236c.677.007 1.274.183 1.7.61.073.073.138.15.197.232v-.342a.5.5 0 0 1 .5-.5h.781a.5.5 0 0 1 .5.5v1.972l-.001.033c-.023.356.036.512.073.566a.09.09 0 0 0 .043.035.39.39 0 0 0 .164.02h.044a.353.353 0 0 0 .152-.018.077.077 0 0 0 .037-.032c.037-.055.095-.213.071-.57a.508.508 0 0 1 0-.034v-1.972a.5.5 0 0 1 .5-.5h.78a.5.5 0 0 1 .5.5v.102c.07-.085.149-.164.24-.235.363-.288.846-.416 1.382-.445a.475.475 0 0 1 .052 0c.42.021.813.127 1.122.368a.5.5 0 0 1 .454-.29h2.93a.5.5 0 0 1 .5.5v.605a.5.5 0 0 1-.5.5h-.574v2.508a.5.5 0 0 1-.5.5h-.781a.5.5 0 0 1-.5-.5v-2.508h-.45a.5.5 0 0 1-.34.405c.289.25.452.586.442.98-.01.502-.193.944-.593 1.248-.376.285-.88.4-1.437.414h-.013c-.527 0-1.016-.11-1.376-.419a1.378 1.378 0 0 1-.34-.438 1.611 1.611 0 0 1-.306.365c-.38.337-.893.477-1.461.492h-.026c-.578-.015-1.1-.153-1.484-.49a1.619 1.619 0 0 1-.438-.625c-.09.174-.204.333-.345.472-.427.423-1.024.597-1.7.604H24.5Zm7.324-1.652v.064c.003.163.027.308.072.436.162.46.6.691 1.315.691 1.016-.026 1.53-.417 1.543-1.172.013-.495-.404-.827-1.25-.996a.587.587 0 0 0-.098-.02.322.322 0 0 1-.097-.019c-.378-.091-.567-.254-.567-.488.013-.287.209-.443.586-.469.378 0 .573.182.586.547h.742a1.353 1.353 0 0 0-.129-.53c-.18-.361-.548-.556-1.101-.583-.964.052-1.465.449-1.504 1.191 0 .372.237.655.71.848.08.033.168.063.261.09.07.021.143.04.22.058a.599.599 0 0 0 .137.04c.456.09.684.26.684.507-.013.3-.254.456-.723.469-.396-.026-.597-.239-.605-.64v-.024h-.782Zm4.278-1.856v3.008h.78v-3.008h1.075v-.605h-2.93v.605h1.075Zm-5.606 1.367v-1.972h.781v2.265c-.039.899-.56 1.361-1.562 1.387-1.029-.026-1.556-.488-1.582-1.387v-2.265h.781v1.972c-.052.795.215 1.179.8 1.153.574.026.834-.358.782-1.153Z" fill="#505050"/><defs><clipPath id="a"><path fill="#fff" d="M0 0h48v40H0z"/></clipPath></defs></svg>