<svg width="48" height="40" fill="none" xmlns="http://www.w3.org/2000/svg"><g clip-path="url(#a)"><path fill-rule="evenodd" clip-rule="evenodd" d="M0 38a2 2 0 0 0 2 2h44a2 2 0 0 0 2-2V2A2 2 0 0 0 46.15.005L46 0H2l-.15.005A2 2 0 0 0 0 2v36ZM27 2H2v25h25V2ZM2 29v9h13v-9H2Zm15 9h29v-9H17v9Zm29-11V2H29v25h17Z" fill="#505050"/></g><path fill="#FFFD54" d="M2 29h13v9H2z"/><path fill-rule="evenodd" clip-rule="evenodd" d="M7.625 36.273a.959.959 0 0 1-.663.329H5.547v-.711h1.121c.11 0 .219-.055.328-.164l.137-.164H5.629v-2.817h2.434v-.328H5.52v-.766h.683v-.328H5.52v-.738h.683v-.273h.957v.273h2.762v-.3h.93v.3h.765v.738h-.765v.328h.793v.766H9.047v.328h2.488v1.914c.091.693-.255.994-1.039.903h-.328l.11.136c0 .018.008.037.027.055.127.091.228.128.3.11h1.04v.683h-1.56c-.29-.037-.482-.11-.573-.219l-.63-.766h-.519l-.738.711Zm-.465-4.62h2.735v-.329H7.16v.328Zm.875 2.132h-1.45v-.3h1.45v.3Zm1.012 0h1.558v-.3H9.047v.3Zm1.504 1.067H9.074v-.329h1.559v.22c0 .072-.027.109-.082.109Zm-3.965 0h1.45v-.329h-1.45v.329Z" fill="#fff" stroke="#505050"/><path fill-rule="evenodd" clip-rule="evenodd" d="M7.545 36.273a.959.959 0 0 1-.663.329H5.467v-.711h1.121c.11 0 .22-.055.329-.164l.136-.164H5.55v-2.817h2.434v-.328H5.44v-.766h.684v-.328H5.44v-.738h.684v-.273h.957v.273h2.761v-.3h.93v.3h.766v.738h-.766v.328h.793v.766H8.967v.328h2.489v1.914c.09.693-.256.994-1.04.903h-.328l.11.136c0 .018.009.037.027.055.128.091.228.128.3.11h1.04v.683h-1.559c-.291-.037-.483-.11-.574-.219l-.629-.766h-.52l-.738.711Zm-.464-4.62h2.734v-.329H7.08v.328Zm.875 2.132h-1.45v-.3h1.45v.3Zm1.011 0h1.559v-.3H8.967v.3Zm1.504 1.067H8.995v-.329h1.558v.22c0 .072-.027.109-.082.109Zm-3.965 0h1.45v-.329h-1.45v.329Z" fill="#fff"/><path fill="#CCC" d="M2 2h25v25H2z"/><path fill-rule="evenodd" clip-rule="evenodd" d="M13.968 3.111a.5.5 0 0 1 .671 0l7.863 7.115a.5.5 0 0 1 .107.603l-7.863 14.938a.5.5 0 0 1-.885 0L5.998 10.829a.5.5 0 0 1 .107-.603l7.863-7.115Z" fill="#505050"/><path fill-rule="evenodd" clip-rule="evenodd" d="M13.966 3.83a.5.5 0 0 1 .671 0l7.31 6.612a.5.5 0 0 1 .106.604L14.744 24.93a.5.5 0 0 1-.884 0L6.55 11.046a.5.5 0 0 1 .108-.604l7.308-6.613Z" fill="#fff"/><path fill-rule="evenodd" clip-rule="evenodd" d="m14.302 12.524-7.725-1.987a.502.502 0 0 1 .08-.095l7.31-6.613a.499.499 0 0 1 .335-.129v8.824Zm7.644-2.082-.048-.043-7.596 2.125v12.674a.495.495 0 0 0 .443-.267l7.308-13.885a.5.5 0 0 0-.107-.604Z" fill="#FFFD54"/><path fill-rule="evenodd" clip-rule="evenodd" d="m6.509 10.46 7.66 1.993v.352l-7.828-2.052.168-.294Z" fill="#505050"/><path fill-rule="evenodd" clip-rule="evenodd" d="M14.476 3.653h-.389l.083 21.758h.306V3.653Z" fill="#505050"/><path fill-rule="evenodd" clip-rule="evenodd" d="m14.302 12.49 7.714-2.204.129.27-7.817 2.199-.026-.265Z" fill="#505050"/><path fill="#FFFD54" d="M29 2h17v25H29z"/><path fill-rule="evenodd" clip-rule="evenodd" d="M39.61 11.61c-.053.729-.417 1.106-1.094 1.132h-.938v-1.015h.508c.156.026.234-.066.234-.274v-7.5h1.29v7.656ZM35.937 6.53v1.133h-1.211c-.521 0-.847-.39-.977-1.172l-.508-2.383h1.446l.43 1.914c.025.391.168.56.429.508h.39Zm6.054 6.055V11.53h-.234c-.209.052-.313-.156-.313-.625l-.39-4.844.82-1.718h-1.367l-.586 1.21h-.234v1.094h.234l.351 4.649c.052.807.352 1.237.899 1.289h.82ZM37.5 11.492c-.104.73-.508 1.107-1.21 1.133h-.782v-1.094h.508c.156 0 .26-.143.312-.43l.547-4.96h-1.094V5.047h2.383l-.664 6.445Zm-3.398 1.25c.703.052 1.12-.417 1.25-1.406l.507-2.734h-1.484l-.39 2.421c-.079.443-.222.652-.43.625h-.352v1.094h.899Zm4.14 7.547h-1.445v-2.187h-2.344v2.109h-1.289v-3.008h3.633v-.273h-3.594v-.899h8.75v.899h-3.71v.273h3.71v3.008h-1.328V18.1h-2.383v2.188Zm-1.64-1.094v-.664h-.313c-.13 0-.221-.065-.273-.195h-1.211c0 .547.247.833.742.86h1.055Zm3.71-.86c-.026.574-.442.86-1.25.86h-.585v-.742h.43c.051 0 .13-.026.234-.078.026 0 .052-.013.078-.04h1.093Zm0 1.876v-.625c-.286.026-.442-.052-.468-.234h-1.367v.273c0 .39.312.586.937.586h.898Zm-3.75-.469c0 .339-.169.495-.507.469h-1.29v-.664h.313c.182.026.313-.04.39-.195h1.094v.39Zm-3.085 3.867c-.105.99.208 1.407.937 1.25h7.461v-.898h-6.602c-.234.026-.325-.091-.273-.352h4.219c.65.104.937-.156.86-.78v-1.25h-5.04l.273-.274h5.274v1.367c.052.208-.091.286-.43.234v.86h.547c.807 0 1.224-.339 1.25-1.016v-2.227h-6.055l.079-.156h-1.68l-.117.117c-.13.183-.339.274-.625.274h-.39v1.015h.312v1.836ZM35 22.83h3.281c.03.005.056.008.082.01.203.007.293-.14.27-.44H35v.43Z" fill="#fff" stroke="#505050"/><path fill-rule="evenodd" clip-rule="evenodd" d="M39.61 11.61c-.053.729-.417 1.106-1.094 1.132h-.938v-1.015h.508c.156.026.234-.066.234-.274v-7.5h1.29v7.656ZM35.937 6.53v1.133h-1.211c-.521 0-.847-.39-.977-1.172l-.508-2.383h1.446l.43 1.914c.025.391.168.56.429.508h.39Zm6.054 6.055V11.53h-.234c-.209.052-.313-.156-.313-.625l-.39-4.844.82-1.718h-1.367l-.586 1.21h-.234v1.094h.234l.351 4.649c.052.807.352 1.237.899 1.289h.82ZM37.5 11.492c-.104.73-.508 1.107-1.21 1.133h-.782v-1.094h.508c.156 0 .26-.143.312-.43l.547-4.96h-1.094V5.047h2.383l-.664 6.445Zm-3.398 1.25c.703.052 1.12-.417 1.25-1.406l.507-2.734h-1.484l-.39 2.421c-.079.443-.222.652-.43.625h-.352v1.094h.899Zm4.14 7.547h-1.445v-2.187h-2.344v2.109h-1.289v-3.008h3.633v-.273h-3.594v-.899h8.75v.899h-3.71v.273h3.71v3.008h-1.328V18.1h-2.383v2.188Zm-1.64-1.094v-.664h-.313c-.13 0-.221-.065-.273-.195h-1.211c0 .547.247.833.742.86h1.055Zm3.71-.86c-.026.574-.442.86-1.25.86h-.585v-.742h.43c.051 0 .13-.026.234-.078.026 0 .052-.013.078-.04h1.093Zm0 1.876v-.625c-.286.026-.442-.052-.468-.234h-1.367v.273c0 .39.312.586.937.586h.898Zm-3.75-.469c0 .339-.169.495-.507.469h-1.29v-.664h.313c.182.026.313-.04.39-.195h1.094v.39Zm-3.085 3.867c-.105.99.208 1.407.937 1.25h7.461v-.898h-6.602c-.234.026-.325-.091-.273-.352h4.219c.65.104.937-.156.86-.78v-1.25h-5.04l.273-.274h5.274v1.367c.052.208-.091.286-.43.234v.86h.547c.807 0 1.224-.339 1.25-1.016v-2.227h-6.055l.079-.156h-1.68l-.117.117c-.13.183-.339.274-.625.274h-.39v1.015h.312v1.836ZM35 22.83h3.281c.03.005.056.008.082.01.203.007.293-.14.27-.44H35v.43Z" fill="#fff"/><path fill="#FFFD54" d="M17 29h29v9H17z"/><path fill-rule="evenodd" clip-rule="evenodd" d="M26.246 35v-1.582h1.387V35h.762v-3.613h-.782v1.425h-1.367v-1.425h-.762V35h.762Zm3.281 0 .274-.762h1.426L31.5 35h.781l-1.27-3.613h-.917L28.785 35h.742Zm.47-1.367h1.034l-.488-1.543h-.02l-.527 1.543Zm5 1.367v-.605h-1.563v-3.008h-.762V35h2.324Zm2.773-.605V35h-2.325v-3.613h.762v3.008h1.563Z" fill="#fff" stroke="#505050"/><path fill-rule="evenodd" clip-rule="evenodd" d="M26.246 35v-1.582h1.387V35h.762v-3.613h-.782v1.425h-1.367v-1.425h-.762V35h.762Zm3.281 0 .274-.762h1.426L31.5 35h.781l-1.27-3.613h-.917L28.785 35h.742Zm.47-1.367h1.034l-.488-1.543h-.02l-.527 1.543Zm5 1.367v-.605h-1.563v-3.008h-.762V35h2.324Zm2.773-.605V35h-2.325v-3.613h.762v3.008h1.563Z" fill="#fff"/><defs><clipPath id="a"><path fill="#fff" d="M0 0h48v40H0z"/></clipPath></defs></svg>