<svg width="48" height="40" fill="none" xmlns="http://www.w3.org/2000/svg"><g clip-path="url(#a)"><path fill-rule="evenodd" clip-rule="evenodd" d="M0 38a2 2 0 0 0 2 2h44a2 2 0 0 0 2-2V2A2 2 0 0 0 46.15.005L46 0H2l-.15.005A2 2 0 0 0 0 2v36ZM27 2H2v25h25V2ZM2 29v9h13v-9H2Zm15 9h29v-9H17v9Zm29-11V2H29v25h17Z" fill="#505050"/></g><path fill="#FFFD54" d="M2 29h13v9H2z"/><path fill-rule="evenodd" clip-rule="evenodd" d="M7.625 36.273a.959.959 0 0 1-.663.329H5.547v-.711h1.121c.11 0 .219-.055.328-.164l.137-.164H5.629v-2.817h2.434v-.328H5.52v-.766h.683v-.328H5.52v-.738h.683v-.273h.957v.273h2.762v-.3h.93v.3h.765v.738h-.765v.328h.793v.766H9.047v.328h2.488v1.914c.091.693-.255.994-1.039.903h-.328l.11.136c0 .018.008.037.027.055.127.091.228.128.3.11h1.04v.683h-1.56c-.29-.037-.482-.11-.573-.219l-.63-.766h-.519l-.738.711Zm-.465-4.62h2.735v-.329H7.16v.328Zm.875 2.132h-1.45v-.3h1.45v.3Zm1.012 0h1.558v-.3H9.047v.3Zm1.504 1.067H9.074v-.329h1.559v.22c0 .072-.027.109-.082.109Zm-3.965 0h1.45v-.329h-1.45v.329Z" fill="#fff" stroke="#505050"/><path fill-rule="evenodd" clip-rule="evenodd" d="M7.545 36.273a.959.959 0 0 1-.663.329H5.467v-.711h1.121c.11 0 .22-.055.329-.164l.136-.164H5.55v-2.817h2.434v-.328H5.44v-.766h.684v-.328H5.44v-.738h.684v-.273h.957v.273h2.761v-.3h.93v.3h.766v.738h-.766v.328h.793v.766H8.967v.328h2.489v1.914c.09.693-.256.994-1.04.903h-.328l.11.136c0 .018.009.037.027.055.128.091.228.128.3.11h1.04v.683h-1.559c-.291-.037-.483-.11-.574-.219l-.629-.766h-.52l-.738.711Zm-.464-4.62h2.734v-.329H7.08v.328Zm.875 2.132h-1.45v-.3h1.45v.3Zm1.011 0h1.559v-.3H8.967v.3Zm1.504 1.067H8.995v-.329h1.558v.22c0 .072-.027.109-.082.109Zm-3.965 0h1.45v-.329h-1.45v.329Z" fill="#fff"/><path fill="#CCC" d="M2 2h25v25H2z"/><path d="M13.563 12.977C9.643 8.83 4 9.574 4 14.779s6.376 5.24 10.5 1.72c4.417 4.395 10.31 2.474 10.5-1.72 0-5.717-7.302-6.288-11.437-1.802Zm-7.806 1.767c-.143-1.915 3.515-2.857 6.444-.47-2.367 2.574-6.113 3.117-6.444.47Zm9.912.628c3.221-3.701 7.266-3.582 7.615-1.042.354 1.927-4.033 3.23-7.61 1.039l-.005.003ZM29 2h17v25H29z" fill="#FFFD54"/><path fill-rule="evenodd" clip-rule="evenodd" d="M38.203 11.672v2.07h-1.367v-2.07h-2.383v1.953h-1.367v-2.54h3.75v-.35h-3.711v-.704h8.828v.703h-3.75v.352h3.75v2.656h-1.367v-2.07h-2.383Zm2.031.547c.026.364-.143.534-.507.508h-1.211v-.547h.351c.104 0 .156-.026.156-.078v-.079h1.211v.196Zm-5.039.508h1.407v-.47h-.274c-.13.027-.182-.025-.156-.155v-.04h-1.445v.235c-.047.281.075.425.365.432.032.001.067 0 .103-.002Zm5.04 1.015h-1.133c-.47.026-.677-.156-.625-.547v-.273h1.171V13c-.026.13.04.182.196.156h.39v.586Zm-4.024.04c.208.051.325-.105.352-.47v-.351h-1.368v.156c0 .156-.078.221-.234.195h-.273v.47h1.523Zm.352.546c0 .235-.144.339-.43.313h-3.086v-.547h2.031c.104 0 .156-.026.156-.078v-.118h1.328v.43Zm5.39 4.531v-.78h-1.836v-.235h1.836v-.703h-1.797v-.313h.938c.625.078.911-.182.86-.781v-1.992h-4.845v2.773h1.797v.313H37.11v.703h1.797v.234h-2.031v.781h5.078Zm-6.133-3.75c-.078.26-.182.378-.312.352h-.899v-.586h.547c.078.026.117.013.117-.04v-.116h.586l-.039.39Zm-1.68.391c.261.052.391-.117.391-.508v-.234h-.664v.039c0 .104-.039.143-.117.117h-.703v.586h1.094Zm4.102-.313h.703v-.39h-.703v.39Zm2.578 0h-.742v-.39h.742v.39Zm-4.101 2.93c.052.573-.248.834-.899.781h-2.734v-.585h2.305c.234.026.338-.079.312-.313v-1.64c0-.079-.026-.118-.078-.118h-2.54v-.625h2.58c.051 0 .103-.039.155-.117l.196-.664h.78l-.116.586c-.078.338-.17.508-.274.508.183.052.287.221.313.508v1.68Zm3.867-1.875h-.508v-.39h.742v.195c0 .156-.078.221-.234.195Zm-2.344.04h.703v-.43h-.703v.43Zm-3.476.82c.338.026.547-.053.625-.235l.273-.547h-.781l-.117.157c-.078.078-.144.117-.196.117h-1.484v.508h1.68Zm.625.703c-.026.13-.196.195-.508.195h-1.797v-.586h1.562c.105 0 .183-.039.235-.117l.039-.117h.742l-.273.625Z" fill="#fff" stroke="#505050"/><path fill-rule="evenodd" clip-rule="evenodd" d="M38.203 11.672v2.07h-1.367v-2.07h-2.383v1.953h-1.367v-2.54h3.75v-.35h-3.711v-.704h8.828v.703h-3.75v.352h3.75v2.656h-1.367v-2.07h-2.383Zm2.031.547c.026.364-.143.534-.507.508h-1.211v-.547h.351c.104 0 .156-.026.156-.078v-.079h1.211v.196Zm-5.039.508h1.407v-.47h-.274c-.13.027-.182-.025-.156-.155v-.04h-1.445v.235c-.047.281.075.425.365.432.032.001.067 0 .103-.002Zm5.04 1.015h-1.133c-.47.026-.677-.156-.625-.547v-.273h1.171V13c-.026.13.04.182.196.156h.39v.586Zm-4.024.04c.208.051.325-.105.352-.47v-.351h-1.368v.156c0 .156-.078.221-.234.195h-.273v.47h1.523Zm.352.546c0 .235-.144.339-.43.313h-3.086v-.547h2.031c.104 0 .156-.026.156-.078v-.118h1.328v.43Zm5.39 4.531v-.78h-1.836v-.235h1.836v-.703h-1.797v-.313h.938c.625.078.911-.182.86-.781v-1.992h-4.845v2.773h1.797v.313H37.11v.703h1.797v.234h-2.031v.781h5.078Zm-6.133-3.75c-.078.26-.182.378-.312.352h-.899v-.586h.547c.078.026.117.013.117-.04v-.116h.586l-.039.39Zm-1.68.391c.261.052.391-.117.391-.508v-.234h-.664v.039c0 .104-.039.143-.117.117h-.703v.586h1.094Zm4.102-.313h.703v-.39h-.703v.39Zm2.578 0h-.742v-.39h.742v.39Zm-4.101 2.93c.052.573-.248.834-.899.781h-2.734v-.585h2.305c.234.026.338-.079.312-.313v-1.64c0-.079-.026-.118-.078-.118h-2.54v-.625h2.58c.051 0 .103-.039.155-.117l.196-.664h.78l-.116.586c-.078.338-.17.508-.274.508.183.052.287.221.313.508v1.68Zm3.867-1.875h-.508v-.39h.742v.195c0 .156-.078.221-.234.195Zm-2.344.04h.703v-.43h-.703v.43Zm-3.476.82c.338.026.547-.053.625-.235l.273-.547h-.781l-.117.157c-.078.078-.144.117-.196.117h-1.484v.508h1.68Zm.625.703c-.026.13-.196.195-.508.195h-1.797v-.586h1.562c.105 0 .183-.039.235-.117l.039-.117h.742l-.273.625Z" fill="#fff"/><path fill="#FFFD54" d="M17 29h29v9H17z"/><path fill-rule="evenodd" clip-rule="evenodd" d="M25.973 35v-1.582h1.386V35h.762v-3.613h-.781v1.425h-1.367v-1.425h-.762V35h.762Zm3.28 0 .274-.762h1.426l.274.762h.78l-1.269-3.613h-.918L28.512 35h.742Zm.47-1.367h1.035l-.488-1.543h-.02l-.527 1.543ZM34.957 35v-.605h-1.816l1.777-2.403v-.605h-2.617v.605h1.68l-1.797 2.402V35h2.773Zm2.91-.605V35h-2.48v-3.613h2.422v.605h-1.641v.84h1.523v.605h-1.523v.958h1.7Z" fill="#fff" stroke="#505050"/><path fill-rule="evenodd" clip-rule="evenodd" d="M25.973 35v-1.582h1.386V35h.762v-3.613h-.781v1.425h-1.367v-1.425h-.762V35h.762Zm3.28 0 .274-.762h1.426l.274.762h.78l-1.269-3.613h-.918L28.512 35h.742Zm.47-1.367h1.035l-.488-1.543h-.02l-.527 1.543ZM34.957 35v-.605h-1.816l1.777-2.403v-.605h-2.617v.605h1.68l-1.797 2.402V35h2.773Zm2.91-.605V35h-2.48v-3.613h2.422v.605h-1.641v.84h1.523v.605h-1.523v.958h1.7Z" fill="#fff"/><defs><clipPath id="a"><path fill="#fff" d="M0 0h48v40H0z"/></clipPath></defs></svg>