<svg width="48" height="40" fill="none" xmlns="http://www.w3.org/2000/svg"><g clip-path="url(#a)"><path fill-rule="evenodd" clip-rule="evenodd" d="M0 38a2 2 0 0 0 2 2h44a2 2 0 0 0 2-2V2A2 2 0 0 0 46.15.005L46 0H2l-.15.005A2 2 0 0 0 0 2v36ZM27 2H2v25h25V2ZM2 29v9h13v-9H2Zm15 9h29v-9H17v9Zm29-11V2H29v25h17Z" fill="#505050"/></g><path fill="#C93E34" d="M2 29h13v9H2z"/><path fill-rule="evenodd" clip-rule="evenodd" d="M7.926 35.07v-.847H6.668l1.613-2.57h-1.12l-.384.628h-.355l1.203-1.886H6.559l-1.04 1.613v1.039h.876l-.875 1.258v.765h2.406Zm3.8 1.532v-.875h-1.285V31.27H11.7v-.875H8.281v.875h1.094v4.457H8.254v.875h3.473Zm-3.8-.903v.82H5.492v-.82h2.434Z" fill="#fff"/><path d="M7.926 34.223h.5v-.5h-.5v.5Zm0 .847v.5h.5v-.5h-.5Zm-1.258-.847-.424-.266-.48.766h.904v-.5Zm1.613-2.57.424.265.48-.766h-.904v.5Zm-1.12 0v-.5h-.282l-.146.24.427.26Zm-.384.628v.5h.281l.146-.24-.427-.26Zm-.355 0L6 32.012l-.49.77h.912v-.5Zm1.203-1.886.422.268.49-.768h-.912v.5Zm-1.066 0v-.5h-.273l-.148.229.42.27Zm-1.04 1.613-.42-.27-.08.123v.147h.5Zm0 1.039h-.5v.5h.5v-.5Zm.876 0 .41.285.546-.785h-.956v.5Zm-.875 1.258-.41-.286-.09.129v.157h.5Zm0 .765h-.5v.5h.5v-.5Zm6.207.657h.5v-.5h-.5v.5Zm0 .875v.5h.5v-.5h-.5Zm-1.286-.875h-.5v.5h.5v-.5Zm0-4.457v-.5h-.5v.5h.5Zm1.258 0v.5h.5v-.5h-.5Zm0-.875h.5v-.5h-.5v.5Zm-3.418 0v-.5h-.5v.5h.5Zm0 .875h-.5v.5h.5v-.5Zm1.094 0h.5v-.5h-.5v.5Zm0 4.457v.5h.5v-.5h-.5Zm-1.121 0v-.5h-.5v.5h.5Zm0 .875h-.5v.5h.5v-.5Zm-.328-.082v.5h.5v-.5h-.5Zm0-.82h.5v-.5h-.5v.5Zm-2.434.82h-.5v.5h.5v-.5Zm0-.82v-.5h-.5v.5h.5Zm1.934-1.477v.847h1v-.847h-1Zm-.758.5h1.258v-1H6.668v1Zm1.19-3.336-1.614 2.57.847.532 1.614-2.57-.847-.532Zm-.698.765h1.121v-1h-1.12v1Zm.044.39.383-.63-.854-.52-.383.63.854.52Zm-.782.24h.355v-1h-.355v1Zm.781-2.656L6 32.012l.843.538 1.204-1.887-.844-.537Zm-.644.768h1.066v-1H6.559v1Zm-.62 1.385 1.04-1.614-.84-.541-1.04 1.613.84.542Zm.08.768v-1.04h-1v1.04h1Zm.376-.5H5.52v1h.875v-1ZM5.93 34.59l.875-1.258-.82-.57-.876 1.257.821.571Zm.09.48v-.765h-1v.765h1Zm1.906-.5H5.52v1h2.406v-1Zm3.3 1.157v.875h1v-.875h-1Zm-.785.5h1.286v-1H10.44v1Zm-.5-4.957v4.457h1V31.27h-1Zm1.758-.5h-1.258v1H11.7v-1Zm-.5-.375v.875h1v-.875h-1Zm-2.918.5H11.7v-1H8.281v1Zm.5.375v-.875h-1v.875h1Zm.594-.5H8.281v1h1.094v-1Zm.5 4.957V31.27h-1v4.457h1Zm-1.621.5h1.121v-1H8.254v1Zm.5.375v-.875h-1v.875h1Zm2.973-.5H8.254v1h3.473v-1Zm-3.301.418v-.82h-1v.82h1Zm-2.934.5h2.434v-1H5.492v1Zm-.5-1.32v.82h1v-.82h-1Zm2.934-.5H5.492v1h2.434v-1Z" fill="#505050"/><path fill-rule="evenodd" clip-rule="evenodd" d="M7.834 35.07v-.847H6.576l1.613-2.57H7.068l-.383.628H6.33l1.203-1.886H6.466l-1.039 1.613v1.039h.875l-.875 1.258v.765h2.407Zm3.8 1.532v-.875H10.35V31.27h1.258v-.875H8.19v.875h1.094v4.457H8.162v.875h3.472Zm-3.8-.903v.82H5.4v-.82h2.434Z" fill="#fff"/><path fill="#CCC" d="M2 2h25v25H2z"/><path d="M13.563 12.977C9.643 8.83 4 9.574 4 14.779s6.376 5.24 10.5 1.72c4.417 4.395 10.31 2.474 10.5-1.72 0-5.717-7.302-6.288-11.437-1.802Zm-7.806 1.767c-.143-1.915 3.515-2.857 6.444-.47-2.367 2.574-6.113 3.117-6.444.47Zm9.912.628c3.221-3.701 7.266-3.582 7.615-1.042.354 1.927-4.033 3.23-7.61 1.039l-.005.003ZM29 2h17v25H29z" fill="#C93E34"/><path fill-rule="evenodd" clip-rule="evenodd" d="M38.203 11.672v2.07h-1.367v-2.07h-2.383v1.953h-1.367v-2.54h3.75v-.35h-3.711v-.704h8.828v.703h-3.75v.352h3.75v2.656h-1.367v-2.07h-2.383Zm2.031.547c.026.364-.143.534-.507.508h-1.211v-.547h.351c.104 0 .156-.026.156-.078v-.079h1.211v.196Zm-5.039.508h1.407v-.47h-.274c-.13.027-.182-.025-.156-.155v-.04h-1.445v.235c-.047.281.075.425.365.432.032.001.067 0 .103-.002Zm5.04 1.015h-1.133c-.47.026-.677-.156-.625-.547v-.273h1.171V13c-.026.13.04.182.196.156h.39v.586Zm-4.024.04c.208.051.325-.105.352-.47v-.351h-1.368v.156c0 .156-.078.221-.234.195h-.273v.47h1.523Zm.352.546c0 .235-.144.339-.43.313h-3.086v-.547h2.031c.104 0 .156-.026.156-.078v-.118h1.328v.43Zm5.39 4.531v-.78h-1.836v-.235h1.836v-.703h-1.797v-.313h.938c.625.078.911-.182.86-.781v-1.992h-4.845v2.773h1.797v.313H37.11v.703h1.797v.234h-2.031v.781h5.078Zm-6.133-3.75c-.078.26-.182.378-.312.352h-.899v-.586h.547c.078.026.117.013.117-.04v-.116h.586l-.039.39Zm-1.68.391c.261.052.391-.117.391-.508v-.234h-.664v.039c0 .104-.039.143-.117.117h-.703v.586h1.094Zm4.102-.313h.703v-.39h-.703v.39Zm2.578 0h-.742v-.39h.742v.39Zm-4.101 2.93c.052.573-.248.834-.899.781h-2.734v-.585h2.305c.234.026.338-.079.312-.313v-1.64c0-.079-.026-.118-.078-.118h-2.54v-.625h2.58c.051 0 .103-.039.155-.117l.196-.664h.78l-.116.586c-.078.338-.17.508-.274.508.183.052.287.221.313.508v1.68Zm3.867-1.875h-.508v-.39h.742v.195c0 .156-.078.221-.234.195Zm-2.344.04h.703v-.43h-.703v.43Zm-3.476.82c.338.026.547-.053.625-.235l.273-.547h-.781l-.117.157c-.078.078-.144.117-.196.117h-1.484v.508h1.68Zm.625.703c-.026.13-.196.195-.508.195h-1.797v-.586h1.562c.105 0 .183-.039.235-.117l.039-.117h.742l-.273.625Z" fill="#fff" stroke="#505050"/><path fill-rule="evenodd" clip-rule="evenodd" d="M38.203 11.672v2.07h-1.367v-2.07h-2.383v1.953h-1.367v-2.54h3.75v-.35h-3.711v-.704h8.828v.703h-3.75v.352h3.75v2.656h-1.367v-2.07h-2.383Zm2.031.547c.026.364-.143.534-.507.508h-1.211v-.547h.351c.104 0 .156-.026.156-.078v-.079h1.211v.196Zm-5.039.508h1.407v-.47h-.274c-.13.027-.182-.025-.156-.155v-.04h-1.445v.235c-.047.281.075.425.365.432.032.001.067 0 .103-.002Zm5.04 1.015h-1.133c-.47.026-.677-.156-.625-.547v-.273h1.171V13c-.026.13.04.182.196.156h.39v.586Zm-4.024.04c.208.051.325-.105.352-.47v-.351h-1.368v.156c0 .156-.078.221-.234.195h-.273v.47h1.523Zm.352.546c0 .235-.144.339-.43.313h-3.086v-.547h2.031c.104 0 .156-.026.156-.078v-.118h1.328v.43Zm5.39 4.531v-.78h-1.836v-.235h1.836v-.703h-1.797v-.313h.938c.625.078.911-.182.86-.781v-1.992h-4.845v2.773h1.797v.313H37.11v.703h1.797v.234h-2.031v.781h5.078Zm-6.133-3.75c-.078.26-.182.378-.312.352h-.899v-.586h.547c.078.026.117.013.117-.04v-.116h.586l-.039.39Zm-1.68.391c.261.052.391-.117.391-.508v-.234h-.664v.039c0 .104-.039.143-.117.117h-.703v.586h1.094Zm4.102-.313h.703v-.39h-.703v.39Zm2.578 0h-.742v-.39h.742v.39Zm-4.101 2.93c.052.573-.248.834-.899.781h-2.734v-.585h2.305c.234.026.338-.079.312-.313v-1.64c0-.079-.026-.118-.078-.118h-2.54v-.625h2.58c.051 0 .103-.039.155-.117l.196-.664h.78l-.116.586c-.078.338-.17.508-.274.508.183.052.287.221.313.508v1.68Zm3.867-1.875h-.508v-.39h.742v.195c0 .156-.078.221-.234.195Zm-2.344.04h.703v-.43h-.703v.43Zm-3.476.82c.338.026.547-.053.625-.235l.273-.547h-.781l-.117.157c-.078.078-.144.117-.196.117h-1.484v.508h1.68Zm.625.703c-.026.13-.196.195-.508.195h-1.797v-.586h1.562c.105 0 .183-.039.235-.117l.039-.117h.742l-.273.625Z" fill="#fff"/><path fill="#C93E34" d="M17 29h29v9H17z"/><path fill-rule="evenodd" clip-rule="evenodd" d="M25.973 35v-1.582h1.386V35h.762v-3.613h-.781v1.425h-1.367v-1.425h-.762V35h.762Zm3.28 0 .274-.762h1.426l.274.762h.78l-1.269-3.613h-.918L28.512 35h.742Zm.47-1.367h1.035l-.488-1.543h-.02l-.527 1.543ZM34.957 35v-.605h-1.816l1.777-2.403v-.605h-2.617v.605h1.68l-1.797 2.402V35h2.773Zm2.91-.605V35h-2.48v-3.613h2.422v.605h-1.641v.84h1.523v.605h-1.523v.958h1.7Z" fill="#fff" stroke="#505050"/><path fill-rule="evenodd" clip-rule="evenodd" d="M25.973 35v-1.582h1.386V35h.762v-3.613h-.781v1.425h-1.367v-1.425h-.762V35h.762Zm3.28 0 .274-.762h1.426l.274.762h.78l-1.269-3.613h-.918L28.512 35h.742Zm.47-1.367h1.035l-.488-1.543h-.02l-.527 1.543ZM34.957 35v-.605h-1.816l1.777-2.403v-.605h-2.617v.605h1.68l-1.797 2.402V35h2.773Zm2.91-.605V35h-2.48v-3.613h2.422v.605h-1.641v.84h1.523v.605h-1.523v.958h1.7Z" fill="#fff"/><defs><clipPath id="a"><path fill="#fff" d="M0 0h48v40H0z"/></clipPath></defs></svg>