<svg width="48" height="40" fill="none" xmlns="http://www.w3.org/2000/svg"><g clip-path="url(#a)"><path fill-rule="evenodd" clip-rule="evenodd" d="M0 38a2 2 0 0 0 2 2h44a2 2 0 0 0 2-2V2A2 2 0 0 0 46.15.005L46 0H2l-.15.005A2 2 0 0 0 0 2v36ZM27 2H2v25h25V2ZM2 29v9h13v-9H2Zm15 9h29v-9H17v9Zm29-11V2H29v25h17Z" fill="#505050"/></g><path fill="#C93E34" d="M2 29h13v9H2z"/><path fill-rule="evenodd" clip-rule="evenodd" d="M7.926 35.07v-.847H6.668l1.613-2.57h-1.12l-.384.628h-.355l1.203-1.886H6.559l-1.04 1.613v1.039h.876l-.875 1.258v.765h2.406Zm3.8 1.532v-.875h-1.285V31.27H11.7v-.875H8.281v.875h1.094v4.457H8.254v.875h3.473Zm-3.8-.903v.82H5.492v-.82h2.434Z" fill="#fff"/><path d="M7.926 34.223h.5v-.5h-.5v.5Zm0 .847v.5h.5v-.5h-.5Zm-1.258-.847-.424-.266-.48.766h.904v-.5Zm1.613-2.57.424.265.48-.766h-.904v.5Zm-1.12 0v-.5h-.282l-.146.24.427.26Zm-.384.628v.5h.281l.146-.24-.427-.26Zm-.355 0L6 32.012l-.49.77h.912v-.5Zm1.203-1.886.422.268.49-.768h-.912v.5Zm-1.066 0v-.5h-.273l-.148.229.42.27Zm-1.04 1.613-.42-.27-.08.123v.147h.5Zm0 1.039h-.5v.5h.5v-.5Zm.876 0 .41.285.546-.785h-.956v.5Zm-.875 1.258-.41-.286-.09.129v.157h.5Zm0 .765h-.5v.5h.5v-.5Zm6.207.657h.5v-.5h-.5v.5Zm0 .875v.5h.5v-.5h-.5Zm-1.286-.875h-.5v.5h.5v-.5Zm0-4.457v-.5h-.5v.5h.5Zm1.258 0v.5h.5v-.5h-.5Zm0-.875h.5v-.5h-.5v.5Zm-3.418 0v-.5h-.5v.5h.5Zm0 .875h-.5v.5h.5v-.5Zm1.094 0h.5v-.5h-.5v.5Zm0 4.457v.5h.5v-.5h-.5Zm-1.121 0v-.5h-.5v.5h.5Zm0 .875h-.5v.5h.5v-.5Zm-.328-.082v.5h.5v-.5h-.5Zm0-.82h.5v-.5h-.5v.5Zm-2.434.82h-.5v.5h.5v-.5Zm0-.82v-.5h-.5v.5h.5Zm1.934-1.477v.847h1v-.847h-1Zm-.758.5h1.258v-1H6.668v1Zm1.19-3.336-1.614 2.57.847.532 1.614-2.57-.847-.532Zm-.698.765h1.121v-1h-1.12v1Zm.044.39.383-.63-.854-.52-.383.63.854.52Zm-.782.24h.355v-1h-.355v1Zm.781-2.656L6 32.012l.843.538 1.204-1.887-.844-.537Zm-.644.768h1.066v-1H6.559v1Zm-.62 1.385 1.04-1.614-.84-.541-1.04 1.613.84.542Zm.08.768v-1.04h-1v1.04h1Zm.376-.5H5.52v1h.875v-1ZM5.93 34.59l.875-1.258-.82-.57-.876 1.257.821.571Zm.09.48v-.765h-1v.765h1Zm1.906-.5H5.52v1h2.406v-1Zm3.3 1.157v.875h1v-.875h-1Zm-.785.5h1.286v-1H10.44v1Zm-.5-4.957v4.457h1V31.27h-1Zm1.758-.5h-1.258v1H11.7v-1Zm-.5-.375v.875h1v-.875h-1Zm-2.918.5H11.7v-1H8.281v1Zm.5.375v-.875h-1v.875h1Zm.594-.5H8.281v1h1.094v-1Zm.5 4.957V31.27h-1v4.457h1Zm-1.621.5h1.121v-1H8.254v1Zm.5.375v-.875h-1v.875h1Zm2.973-.5H8.254v1h3.473v-1Zm-3.301.418v-.82h-1v.82h1Zm-2.934.5h2.434v-1H5.492v1Zm-.5-1.32v.82h1v-.82h-1Zm2.934-.5H5.492v1h2.434v-1Z" fill="#505050"/><path fill-rule="evenodd" clip-rule="evenodd" d="M7.834 35.07v-.847H6.576l1.613-2.57H7.068l-.383.628H6.33l1.203-1.886H6.466l-1.039 1.613v1.039h.875l-.875 1.258v.765h2.407Zm3.8 1.532v-.875H10.35V31.27h1.258v-.875H8.19v.875h1.094v4.457H8.162v.875h3.472Zm-3.8-.903v.82H5.4v-.82h2.434Z" fill="#fff"/><path fill="#CCC" d="M2 2h25v25H2z"/><path fill-rule="evenodd" clip-rule="evenodd" d="M6 24.424h16v-9.5h2L14 3 4 14.924h2v9.5Z" fill="#C93E34"/><path fill-rule="evenodd" clip-rule="evenodd" d="M19.56 17.546s-.096-1.093-.346-1.548c-.117-.211-.363-.811-1.574-1.327-.45-.191-1.762-.261-1.762-.261s-1.087.052-1.878.613c-.791.561-1.21 1.749-1.21 1.749s-.376 1.353-.294 2.373c.061.763.264 1.708.696 2.421.095.156.424.762 1.395 1.15.856.342 1.951.267 1.951.267s1.343-.117 2.144-.81c.802-.693.877-2.221.877-2.221H17.36s-.065.744-.234.997c-.073.11-.35.358-.74.453-.08.02-.442.164-.911-.122-.099-.06-.363-.284-.543-.823-.05-.148-.29-.672-.194-2.476.012-.222.13-1.043.58-1.627.075-.098.425-.33.88-.296.1.007.596.073.928.544.148.21.234.944.234.944h2.2Z" fill="#505050"/><path d="M15.995 22.807c2.12-.029 3.237-.917 3.352-2.664h-1.805c-.057.974-.573 1.475-1.547 1.504-.945-.029-1.446-.988-1.503-2.88.057-1.89.558-2.864 1.503-2.92.974.056 1.49.558 1.547 1.503h1.805c-.115-1.776-1.232-2.693-3.352-2.75-2.148.086-3.25 1.475-3.308 4.168.057 2.635 1.16 3.982 3.308 4.039Z" fill="#fff"/><path fill-rule="evenodd" clip-rule="evenodd" d="M12.4 16.6a2.2 2.2 0 1 1-4.4 0 2.2 2.2 0 0 1 4.4 0Zm-1.4.02a.8.8 0 1 1-1.6 0 .8.8 0 0 1 1.6 0Z" fill="#505050"/><path fill-rule="evenodd" clip-rule="evenodd" d="M8.2 16.621a2 2 0 1 1 4 0 2 2 0 0 1-4 0Zm3 0a1 1 0 1 0-2 0 1 1 0 0 0 2 0Z" fill="#fff"/><path fill="#C93E34" d="M29 2h17v25H29z"/><path fill-rule="evenodd" clip-rule="evenodd" d="M41.992 4.383v1.094h-8.867V4.383h3.79V4.03h1.366v.352h3.711Zm-.078 2.812c.026.782-.273 1.146-.898 1.094h-7.657v-2.5h8.555v1.406Zm-1.797.04h-5.312v-.391h5.547V7c0 .182-.079.26-.235.234Zm-5.508 2.5v3.124h-1.484V8.641h8.945v3.007c.052.886-.208 1.277-.78 1.172h-1.056v-.976h.157c.156.026.234-.052.234-.235V9.734h-6.016Zm4.688 2.773c.65.026.95-.235.898-.781v-1.68H35v2.46h4.297Zm-2.813-1.016h1.914c.03.004.058.005.083.005.153-.003.23-.083.23-.24v-.234h-2.227v.47Zm-2.226 7.04h1.054v-1.134H35c-.104.053-.208-.078-.313-.39l-.351-1.094h-1.328l.508 1.797c.096.577.314.854.654.832a.644.644 0 0 0 .088-.012Zm7.383.39c.104 1.094-.26 1.562-1.094 1.406h-5v-4.414h6.094v3.008Zm-1.407-1.29h-3.32v-.546h3.32v.547Zm-3.32 1.641H40c.026.004.05.006.072.004.134-.006.201-.098.201-.277v-.313h-3.359v.586Zm-3.437 1.133c.104.73.494 1.029 1.171.899h.704V20.21h-.235c-.234.078-.377-.065-.43-.43l-.273-.86h-1.406l.469 1.485Zm8.32 3.282v1.132h-6.524v-1.133h.274v-2.89h6.094v2.89h.156Zm-7.93 1.093c.73.026 1.12-.234 1.172-.781l.43-2.305h-1.367l-.313 1.64c-.078.313-.182.457-.312.43h-.43v1.016h.82Zm2.852-1.093h.508v-1.836h-.508v1.835Zm2.07 0h-.469v-1.836h.47v1.835Zm1.172 0h.43v-1.836h-.43v1.835Z" fill="#fff" stroke="#505050"/><path fill-rule="evenodd" clip-rule="evenodd" d="M41.992 4.383v1.094h-8.867V4.383h3.79V4.03h1.366v.352h3.711Zm-.078 2.812c.026.782-.273 1.146-.898 1.094h-7.657v-2.5h8.555v1.406Zm-1.797.04h-5.312v-.391h5.547V7c0 .182-.079.26-.235.234Zm-5.508 2.5v3.124h-1.484V8.641h8.945v3.007c.052.886-.208 1.277-.78 1.172h-1.056v-.976h.157c.156.026.234-.052.234-.235V9.734h-6.016Zm4.688 2.773c.65.026.95-.235.898-.781v-1.68H35v2.46h4.297Zm-2.813-1.016h1.914c.03.004.058.005.083.005.153-.003.23-.083.23-.24v-.234h-2.227v.47Zm-2.226 7.04h1.054v-1.134H35c-.104.053-.208-.078-.313-.39l-.351-1.094h-1.328l.508 1.797c.096.577.314.854.654.832a.644.644 0 0 0 .088-.012Zm7.383.39c.104 1.094-.26 1.562-1.094 1.406h-5v-4.414h6.094v3.008Zm-1.407-1.29h-3.32v-.546h3.32v.547Zm-3.32 1.641H40c.026.004.05.006.072.004.134-.006.201-.098.201-.277v-.313h-3.359v.586Zm-3.437 1.133c.104.73.494 1.029 1.171.899h.704V20.21h-.235c-.234.078-.377-.065-.43-.43l-.273-.86h-1.406l.469 1.485Zm8.32 3.282v1.132h-6.524v-1.133h.274v-2.89h6.094v2.89h.156Zm-7.93 1.093c.73.026 1.12-.234 1.172-.781l.43-2.305h-1.367l-.313 1.64c-.078.313-.182.457-.312.43h-.43v1.016h.82Zm2.852-1.093h.508v-1.836h-.508v1.835Zm2.07 0h-.469v-1.836h.47v1.835Zm1.172 0h.43v-1.836h-.43v1.835Z" fill="#fff"/><path fill="#C93E34" d="M17 29h29v9H17z"/><path fill-rule="evenodd" clip-rule="evenodd" d="M19.323 33.608V35h-.67v-3.18h.67v1.255h1.203V31.82h.687V35h-.67v-1.392h-1.22Zm4.623.86V35h-2.183v-3.18h2.131v.533h-1.443v.74h1.34v.532h-1.34v.842h1.495Zm.945.532.241-.67h1.255l.24.67h.688l-1.117-3.18h-.808L24.238 35h.653Zm.413-1.203h.91l-.429-1.358h-.017l-.464 1.358ZM29.034 35v-2.647h.945v-.533H27.4v.533h.945V35h.688Zm4.434-2.423L32.849 35h-.773l-.774-3.18h.705l.481 2.39.619-2.39h.773l.55 2.39h.018l.515-2.39h.636L34.791 35h-.756l-.567-2.423ZM36.355 35l.241-.67h1.255l.24.67h.688l-1.117-3.18h-.808L35.702 35h.654Zm.413-1.203h.91l-.429-1.358h-.017l-.464 1.358ZM40.773 35l1.168-3.18h-.67l-.825 2.51h-.017l-.825-2.51h-.74l1.17 3.18h.739Zm3.643-.533V35h-2.182v-3.18h2.13v.533h-1.443v.74h1.34v.532h-1.34v.842h1.495Z" fill="#fff" stroke="#505050"/><path fill-rule="evenodd" clip-rule="evenodd" d="M19.323 33.608V35h-.67v-3.18h.67v1.255h1.203V31.82h.687V35h-.67v-1.392h-1.22Zm4.623.86V35h-2.183v-3.18h2.131v.533h-1.443v.74h1.34v.532h-1.34v.842h1.495Zm.945.532.241-.67h1.255l.24.67h.688l-1.117-3.18h-.808L24.238 35h.653Zm.413-1.203h.91l-.429-1.358h-.017l-.464 1.358ZM29.034 35v-2.647h.945v-.533H27.4v.533h.945V35h.688Zm4.434-2.423L32.849 35h-.773l-.774-3.18h.705l.481 2.39.619-2.39h.773l.55 2.39h.018l.515-2.39h.636L34.791 35h-.756l-.567-2.423ZM36.355 35l.241-.67h1.255l.24.67h.688l-1.117-3.18h-.808L35.702 35h.654Zm.413-1.203h.91l-.429-1.358h-.017l-.464 1.358ZM40.773 35l1.168-3.18h-.67l-.825 2.51h-.017l-.825-2.51h-.74l1.17 3.18h.739Zm3.643-.533V35h-2.182v-3.18h2.13v.533h-1.443v.74h1.34v.532h-1.34v.842h1.495Z" fill="#fff"/><defs><clipPath id="a"><path fill="#fff" d="M0 0h48v40H0z"/></clipPath></defs></svg>