<svg width="48" height="40" fill="none" xmlns="http://www.w3.org/2000/svg"><g clip-path="url(#a)"><path fill-rule="evenodd" clip-rule="evenodd" d="M0 38a2 2 0 0 0 2 2h44a2 2 0 0 0 2-2V2A2 2 0 0 0 46.15.005L46 0H2l-.15.005A2 2 0 0 0 0 2v36ZM27 2H2v25h25V2ZM2 29v9h13v-9H2Zm15 9h29v-9H17v9Zm29-11V2H29v25h17Z" fill="#505050"/></g><path fill="#FFFD54" d="M2 29h13v9H2z"/><path fill-rule="evenodd" clip-rule="evenodd" d="M7.625 36.273a.959.959 0 0 1-.663.329H5.547v-.711h1.121c.11 0 .219-.055.328-.164l.137-.164H5.629v-2.817h2.434v-.328H5.52v-.766h.683v-.328H5.52v-.738h.683v-.273h.957v.273h2.762v-.3h.93v.3h.765v.738h-.765v.328h.793v.766H9.047v.328h2.488v1.914c.091.693-.255.994-1.039.903h-.328l.11.136c0 .018.008.037.027.055.127.091.228.128.3.11h1.04v.683h-1.56c-.29-.037-.482-.11-.573-.219l-.63-.766h-.519l-.738.711Zm-.465-4.62h2.735v-.329H7.16v.328Zm.875 2.132h-1.45v-.3h1.45v.3Zm1.012 0h1.558v-.3H9.047v.3Zm1.504 1.067H9.074v-.329h1.559v.22c0 .072-.027.109-.082.109Zm-3.965 0h1.45v-.329h-1.45v.329Z" fill="#fff" stroke="#505050"/><path fill-rule="evenodd" clip-rule="evenodd" d="M7.545 36.273a.959.959 0 0 1-.663.329H5.467v-.711h1.121c.11 0 .22-.055.329-.164l.136-.164H5.55v-2.817h2.434v-.328H5.44v-.766h.684v-.328H5.44v-.738h.684v-.273h.957v.273h2.761v-.3h.93v.3h.766v.738h-.766v.328h.793v.766H8.967v.328h2.489v1.914c.09.693-.256.994-1.04.903h-.328l.11.136c0 .018.009.037.027.055.128.091.228.128.3.11h1.04v.683h-1.559c-.291-.037-.483-.11-.574-.219l-.629-.766h-.52l-.738.711Zm-.464-4.62h2.734v-.329H7.08v.328Zm.875 2.132h-1.45v-.3h1.45v.3Zm1.011 0h1.559v-.3H8.967v.3Zm1.504 1.067H8.995v-.329h1.558v.22c0 .072-.027.109-.082.109Zm-3.965 0h1.45v-.329h-1.45v.329Z" fill="#fff"/><path fill="#CCC" d="M2 2h25v25H2z"/><path d="M20.723 8.071c0 .092-.003.182-.01.272.37.066 1.333.269 1.854.643.63.45 1.383 1.704 1.438 1.796a2.396 2.396 0 1 1-1.68 4.457 3.374 3.374 0 0 1-1.151.402c-.7.096-1.507-.095-1.507-.095s-.653.348-1.394.453c-.74.105-1.8 0-1.8 0s-1.34.808-2.63.762c-1.29-.046-2.385-.94-2.385-.94s-1.458.72-2.75.415c-1.173-.276-1.733-1.285-1.826-1.468a2.3 2.3 0 1 1-.143-3.46c.152-.276.703-1.16 1.68-1.539 1.164-.451 2.241-.057 2.241-.057s.62-.563.96-.81c.34-.247.96-.584.96-.584h.007a4.071 4.071 0 1 1 8.136-.246Z" fill="#FFFD54"/><path fill-rule="evenodd" clip-rule="evenodd" d="M8 19.057c.205.119.275.38.157.586l-.415.718h.83a.429.429 0 0 1 0 .857h-.83l.415.718a.429.429 0 1 1-.742.429L7 21.647l-.415.718a.429.429 0 0 1-.742-.429l.415-.718h-.83a.429.429 0 0 1 0-.857h.83l-.415-.718a.429.429 0 0 1 .742-.429l.415.718.415-.718A.429.429 0 0 1 8 19.057ZM13 19.057c.205.119.275.38.157.586l-.415.718h.83a.429.429 0 0 1 0 .857h-.83l.415.718a.429.429 0 0 1-.742.429L12 21.647l-.415.718a.429.429 0 0 1-.742-.429l.415-.718h-.83a.429.429 0 0 1 0-.857h.83l-.415-.718a.429.429 0 0 1 .742-.429l.415.718.415-.718a.429.429 0 0 1 .585-.157ZM18 19.057c.205.119.275.38.157.586l-.415.718h.83a.429.429 0 0 1 0 .857h-.83l.415.718a.429.429 0 0 1-.742.429L17 21.647l-.415.718a.429.429 0 0 1-.742-.429l.415-.718h-.83a.429.429 0 0 1 0-.857h.83l-.415-.718a.429.429 0 0 1 .742-.429l.415.718.415-.718a.429.429 0 0 1 .585-.157ZM23 19.057c.205.119.275.38.157.586l-.415.718h.83a.429.429 0 0 1 0 .857h-.83l.415.718a.429.429 0 0 1-.742.429L22 21.647l-.415.718a.429.429 0 0 1-.742-.429l.415-.718h-.83a.429.429 0 0 1 0-.857h.83l-.415-.718a.429.429 0 0 1 .742-.429l.415.718.415-.718a.429.429 0 0 1 .585-.157Z" fill="#FFFD54"/><path fill="#FFFD54" d="M29 2h17v25H29z"/><path d="M33.047 6.438h3.594V4.952h1.68v1.484h3.632v1.211h-3.437l2.46 4.57c.105.287.313.417.626.391h.351v1.211h-.703c-.703.026-1.172-.208-1.406-.703L37.5 8.82l-2.266 4.297c-.13.521-.677.742-1.64.664h-.547v-1.133h.39c.313.027.534-.104.665-.39l2.382-4.61h-3.437v-1.21ZM40.781 22.164h-7.343v-1.016h8.632V24c.052.73-.3 1.068-1.054 1.016h-7.618V24h7.266c.078.026.117-.026.117-.156v-.235h-7.539v-1.015h7.54v-.43Zm-3.75-5.156h-3.828v-.977h8.906v.977H38.4v.39h3.71v3.438H40.82v-2.54h-2.422v2.462h-1.367v-2.461h-2.539v2.539h-1.289v-3.438h3.828v-.39Zm-2.11 3.789v-.86h1.759v.86h-1.758Zm0-1.29v-.859h1.759v.86h-1.758Zm3.907 0v-.859h1.563v.86h-1.563Zm0 1.29v-.86h1.563v.86h-1.563Z" fill="#fff"/><path fill-rule="evenodd" clip-rule="evenodd" d="M32.547 6.438a.5.5 0 0 1 .5-.5h3.094v-.985a.5.5 0 0 1 .5-.5h1.68a.5.5 0 0 1 .5.5v.984h3.132a.5.5 0 0 1 .5.5v1.211a.5.5 0 0 1-.5.5h-2.6l2.064 3.834a.497.497 0 0 1 .03.066c.011.033.022.05.027.056l.003.003a.224.224 0 0 0 .083.004.526.526 0 0 1 .042-.002h.351a.5.5 0 0 1 .5.5v1.211a.5.5 0 0 1-.5.5h-.694c-.404.014-.783-.045-1.111-.209a1.631 1.631 0 0 1-.75-.766l-1.89-3.467-1.806 3.425c-.12.398-.404.679-.788.834-.373.151-.833.184-1.34.144h-.527a.5.5 0 0 1-.5-.5v-1.133a.5.5 0 0 1 .5-.5h.39l.042.002c.076.006.102-.008.105-.01.004-.003.03-.018.062-.09a.526.526 0 0 1 .011-.022l2.006-3.88h-2.616a.5.5 0 0 1-.5-.5v-1.21Zm3.937 1.21-2.382 4.61c-.115.252-.3.383-.555.393a.861.861 0 0 1-.11-.003h-.39v1.133h.547c.963.078 1.51-.143 1.64-.664L37.5 8.82l2.344 4.297c.234.495.703.73 1.406.703h.703v-1.21h-.351a.845.845 0 0 1-.148 0c-.232-.022-.39-.152-.477-.391l-2.461-4.57h3.437V6.436H38.32V4.954h-1.68v1.484h-3.593v1.211h3.437Zm4.99 4.458Zm-8.232 10.488h7.54v-.43h-7.344v-1.016h8.632V24c.052.73-.3 1.068-1.054 1.016h-7.618V24h7.266c.078.026.117-.026.117-.156v-.235h-7.539v-1.015Zm-.343 1.38a.499.499 0 0 1-.157-.365v-1.015a.5.5 0 0 1 .197-.398.496.496 0 0 1-.002-.032v-.904a.5.5 0 0 1-.234-.424v-3.438c0-.069.014-.135.04-.195a.498.498 0 0 1-.04-.195v-.977a.5.5 0 0 1 .5-.5h8.906a.5.5 0 0 1 .5.5v.977c0 .07-.014.135-.04.195.026.06.04.126.04.195v3.438c0 .077-.017.15-.048.215.006.032.01.064.01.097v2.835c.027.432-.056.868-.378 1.178-.318.306-.758.382-1.194.355h-7.6a.5.5 0 0 1-.5-.5V24a.6.6 0 0 1 0-.027Zm9.21-6.576H38.4v-.39h3.71v-.977h-8.906v.977h3.828v.39h-3.828v3.438h1.29v-2.54h2.538v2.462h1.367v-2.461h2.422v2.539h1.29v-3.438Zm-1.718 2.54h-1.563v.859h1.563v-.86Zm0-.43v-.86h-1.563v.86h1.563Zm-3.711.43h-1.758v.859h1.758v-.86Zm0-.43v-.86h-1.758v.86h1.758Z" fill="#505050"/><path fill="#FFFD54" d="M17 29h29v9H17z"/><path d="M18.54 35h-.61v-2.89h.61v1.14h1.093v-1.14h.625V35h-.61v-1.266H18.54V35ZM20.758 35v-2.89h1.937v.484h-1.312v.672h1.219v.484h-1.22v.766h1.36V35h-1.984ZM23.602 35h-.594l1.047-2.89h.734L25.805 35h-.625l-.22-.61h-1.14l-.218.61Zm.375-1.094h.828l-.39-1.234h-.017l-.421 1.234ZM26.945 35l-1.062-2.89h.672l.75 2.28h.015l.75-2.28h.61L27.617 35h-.672ZM29.742 35v-.938l-.984-1.953h.734l.594 1.328.61-1.328h.624l-.968 1.953V35h-.61ZM34.883 32.938h-.594c-.01-.292-.167-.438-.469-.438-.302.02-.458.146-.468.375 0 .188.15.318.453.39.03.011.057.016.078.016.01 0 .036.005.078.016.677.135 1.01.4 1 .797-.01.604-.422.916-1.234.937-.75 0-1.12-.317-1.11-.953h.625c0 .333.162.51.485.531.375-.01.567-.135.578-.375 0-.198-.183-.333-.547-.406a.486.486 0 0 1-.11-.031c-.635-.146-.953-.412-.953-.797.032-.594.433-.911 1.203-.953.625.031.954.328.985.89ZM38.008 35h-.89l-1.126-2.406-.015.015V35h-.579v-2.89h.922l1.094 2.28.016-.015v-2.266h.578V35ZM39.805 35.031c-.907-.02-1.37-.51-1.39-1.468.03-.99.494-1.495 1.39-1.516.885.02 1.343.526 1.375 1.516-.032.958-.49 1.447-1.375 1.468Zm0-2.531c-.49 0-.735.354-.735 1.063 0 .697.245 1.046.735 1.046.479 0 .718-.349.718-1.047 0-.708-.24-1.062-.718-1.062ZM42.477 34.281l.562-2.172h.703l.5 2.172h.016l.469-2.172h.578L44.57 35h-.687l-.516-2.203L42.805 35h-.703l-.704-2.89h.641l.438 2.171Z" fill="#fff"/><path fill-rule="evenodd" clip-rule="evenodd" d="M19.04 35a.5.5 0 0 1-.5.5h-.61a.5.5 0 0 1-.5-.5v-2.89a.5.5 0 0 1 .5-.5h.61a.5.5 0 0 1 .5.5v.64h.093v-.64a.5.5 0 0 1 .5-.5h.625c.09 0 .176.024.25.066a.497.497 0 0 1 .25-.067h1.937a.5.5 0 0 1 .5.5v.485a.499.499 0 0 1-.183.386c.057.081.09.18.09.286v.007l.483-1.334a.5.5 0 0 1 .47-.33h.734a.5.5 0 0 1 .472.335l1.015 2.89a.5.5 0 0 1-.471.666h-.625a.5.5 0 0 1-.47-.331l-.1-.278h-.438l-.1.278a.5.5 0 0 1-.47.331h-.594a.498.498 0 0 1-.133-.018.498.498 0 0 1-.133.018h-1.984a.497.497 0 0 1-.25-.067.497.497 0 0 1-.25.067h-.61a.5.5 0 0 1-.5-.5v-.766h-.109V35Zm.608 0h.61v-2.89h-.625v1.14h-1.094v-1.14h-.61V35h.61v-1.266h1.11V35Zm3.094 0v-.484h-1.36v-.766h1.22v-.484h-1.22v-.672h1.313v-.485h-1.937V35h1.984Zm.266 0h.594l.218-.61h1.14l.22.61h.625l-1.016-2.89h-.734L23.008 35Zm.969-1.094h.828l-.39-1.234h-.017l-.421 1.234Zm2.968 1.594a.5.5 0 0 1-.469-.328l-1.063-2.89a.5.5 0 0 1 .47-.673h.672a.5.5 0 0 1 .475.344l.282.86.283-.86a.5.5 0 0 1 .475-.344h.61c.013 0 .026 0 .039.002a.509.509 0 0 1 .039-.002h.734a.5.5 0 0 1 .457.296l.143.32.149-.324a.5.5 0 0 1 .454-.292h.625a.5.5 0 0 1 .448.722l-.916 1.849V35a.5.5 0 0 1-.5.5h-.61a.5.5 0 0 1-.5-.5v-.819l-.457-.908-.698 1.9a.5.5 0 0 1-.47.327h-.672Zm1.735-3.39h-.61l-.75 2.28h-.015l-.75-2.28h-.672L26.945 35h.672l1.063-2.89Zm1.062 1.953V35h.61v-.938l.968-1.953h-.625l-.61 1.328-.593-1.328h-.734l.984 1.953Zm4.698-.626a1.928 1.928 0 0 0-.15-.056 2.871 2.871 0 0 0-.407-.1.257.257 0 0 1-.078-.015c-.302-.073-.453-.203-.453-.391a.353.353 0 0 1 .088-.231c.077-.084.203-.132.38-.144a.901.901 0 0 1 .103.006.44.44 0 0 1 .22.085c.075.06.122.148.14.267a.726.726 0 0 1 .006.08h.594c-.011-.2-.06-.367-.147-.5a.775.775 0 0 0-.36-.293 1.411 1.411 0 0 0-.478-.098 3.133 3.133 0 0 0-.108.008c-.258.024-.47.082-.638.174-.285.157-.438.414-.457.771 0 .239.122.431.366.578.054.033.115.063.181.092a2.449 2.449 0 0 0 .417.131.574.574 0 0 0 .099.027c.364.073.547.208.547.406a.33.33 0 0 1-.081.213c-.09.102-.256.156-.497.162h-.011a.545.545 0 0 1-.313-.11.45.45 0 0 1-.152-.293.856.856 0 0 1-.009-.128h-.625v.052c.003.175.037.324.1.448a.77.77 0 0 0 .468.378 1.698 1.698 0 0 0 .542.075h.011c.318-.01.573-.064.767-.163a.783.783 0 0 0 .393-.425c.04-.103.06-.22.063-.35a.574.574 0 0 0-.063-.283c-.078-.153-.231-.277-.458-.373ZM35.398 35h.579v-2.39l.015-.016L37.117 35h.89v-2.89h-.577v2.265l-.016.016-1.094-2.282h-.922V35Zm1.532-2.776v-.115a.5.5 0 0 1 .5-.5h.578a.5.5 0 0 1 .492.41c.341-.32.794-.46 1.293-.472h.023c.425.01.815.114 1.131.346a.505.505 0 0 1 .451-.284h.641a.5.5 0 0 1 .49.402l.008.04.018-.067a.5.5 0 0 1 .484-.375h.703a.5.5 0 0 1 .487.388l.005.022.004-.015a.5.5 0 0 1 .489-.395h.578a.5.5 0 0 1 .484.623l-.734 2.891a.5.5 0 0 1-.485.377h-.687a.5.5 0 0 1-.487-.386l-.05-.213-.057.223a.5.5 0 0 1-.484.376h-.703a.5.5 0 0 1-.486-.382l-.14-.576a1.662 1.662 0 0 1-.298.448c-.348.371-.83.529-1.362.541h-.023c-.495-.011-.948-.143-1.291-.453a.5.5 0 0 1-.494.422h-.89a.5.5 0 0 1-.454-.288l-.187-.402V35a.5.5 0 0 1-.5.5h-.579a.5.5 0 0 1-.463-.312c-.323.24-.746.332-1.196.343h-.012c-.433 0-.853-.09-1.166-.359-.33-.283-.45-.684-.444-1.102a.5.5 0 0 1 .275-.438 1.09 1.09 0 0 1-.196-.658c.022-.415.181-.787.513-1.05.313-.248.723-.353 1.162-.376a.5.5 0 0 1 .052 0c.377.018.738.12 1.015.365a.5.5 0 0 1 .46-.304h.922a.5.5 0 0 1 .451.284l.159.33Zm1.578 1.955c.1.309.28.534.538.675.204.111.457.17.759.177.304-.007.558-.07.761-.187.389-.225.593-.652.614-1.282a2.669 2.669 0 0 0-.044-.415 1.922 1.922 0 0 0-.048-.198c-.113-.373-.327-.63-.643-.772a1.65 1.65 0 0 0-1.29 0c-.318.142-.533.398-.647.768-.055.179-.087.385-.094.617.005.234.036.439.094.617Zm.822.258c.116.113.271.17.465.172h.02a.625.625 0 0 0 .458-.175c.167-.17.25-.46.25-.871 0-.473-.106-.788-.32-.945a.648.648 0 0 0-.388-.118H39.794a.671.671 0 0 0-.4.12c-.215.157-.324.472-.324.943 0 .414.087.706.26.874Zm2.772.563h.703l.562-2.203.516 2.203h.687l.735-2.89h-.578l-.47 2.171h-.015l-.5-2.172h-.703l-.562 2.172-.438-2.172h-.64L42.101 35Zm-2.437-1.95c-.038.055-.095.2-.095.513 0 .305.057.445.093.497.014.02.025.028.035.032a.25.25 0 0 0 .107.017c.059 0 .086-.01.096-.015a.077.077 0 0 0 .03-.03c.037-.052.092-.194.092-.502 0-.313-.055-.46-.093-.516-.015-.022-.025-.028-.032-.031a.214.214 0 0 0-.093-.015.242.242 0 0 0-.104.017.087.087 0 0 0-.036.033Z" fill="#505050"/><defs><clipPath id="a"><path fill="#fff" d="M0 0h48v40H0z"/></clipPath></defs></svg>