<svg width="48" height="40" fill="none" xmlns="http://www.w3.org/2000/svg"><g clip-path="url(#a)"><path fill-rule="evenodd" clip-rule="evenodd" d="M0 38a2 2 0 0 0 2 2h44a2 2 0 0 0 2-2V2A2 2 0 0 0 46.15.005L46 0H2l-.15.005A2 2 0 0 0 0 2v36ZM27 2H2v25h25V2ZM2 29v9h13v-9H2Zm15 9h29v-9H17v9Zm29-11V2H29v25h17Z" fill="#505050"/></g><path fill="#FFFD54" d="M2 29h13v9H2z"/><path fill-rule="evenodd" clip-rule="evenodd" d="M7.625 36.273a.959.959 0 0 1-.663.329H5.547v-.711h1.121c.11 0 .219-.055.328-.164l.137-.164H5.629v-2.817h2.434v-.328H5.52v-.766h.683v-.328H5.52v-.738h.683v-.273h.957v.273h2.762v-.3h.93v.3h.765v.738h-.765v.328h.793v.766H9.047v.328h2.488v1.914c.091.693-.255.994-1.039.903h-.328l.11.136c0 .018.008.037.027.055.127.091.228.128.3.11h1.04v.683h-1.56c-.29-.037-.482-.11-.573-.219l-.63-.766h-.519l-.738.711Zm-.465-4.62h2.735v-.329H7.16v.328Zm.875 2.132h-1.45v-.3h1.45v.3Zm1.012 0h1.558v-.3H9.047v.3Zm1.504 1.067H9.074v-.329h1.559v.22c0 .072-.027.109-.082.109Zm-3.965 0h1.45v-.329h-1.45v.329Z" fill="#fff" stroke="#505050"/><path fill-rule="evenodd" clip-rule="evenodd" d="M7.545 36.273a.959.959 0 0 1-.663.329H5.467v-.711h1.121c.11 0 .22-.055.329-.164l.136-.164H5.55v-2.817h2.434v-.328H5.44v-.766h.684v-.328H5.44v-.738h.684v-.273h.957v.273h2.761v-.3h.93v.3h.766v.738h-.766v.328h.793v.766H8.967v.328h2.489v1.914c.09.693-.256.994-1.04.903h-.328l.11.136c0 .018.009.037.027.055.128.091.228.128.3.11h1.04v.683h-1.559c-.291-.037-.483-.11-.574-.219l-.629-.766h-.52l-.738.711Zm-.464-4.62h2.734v-.329H7.08v.328Zm.875 2.132h-1.45v-.3h1.45v.3Zm1.011 0h1.559v-.3H8.967v.3Zm1.504 1.067H8.995v-.329h1.558v.22c0 .072-.027.109-.082.109Zm-3.965 0h1.45v-.329h-1.45v.329Z" fill="#fff"/><path fill="#CCC" d="M2 2h25v25H2z"/><path fill-rule="evenodd" clip-rule="evenodd" d="M13.264 5.112c4.15-1.864 7.934-1.16 9.385.458v-.006c1.342 1.498 3.435 5.19 2.438 7.356a10.218 10.218 0 0 1-1.708 2.34 4.934 4.934 0 0 0-1.607 2.693 59.71 59.71 0 0 0 .008 4.072v.442l-.433.105a27.491 27.491 0 0 0-6.804 2.219L14.33 25l-.833-.412.07-.294a12.03 12.03 0 0 0 .387-3.006l-1.03-1.177.95-.634 1.2 1.383v.147c0 .065 0 .094-.25 2.467 1.37-.447 4.644-1.512 5.805-1.85a58.664 58.664 0 0 1 0-3.803c.076-.354.184-.7.322-1.035a31.95 31.95 0 0 0-5.443.337l.063-.309a31.423 31.423 0 0 1 5.492-.318 6.02 6.02 0 0 1 1.488-2.003v.001a9.311 9.311 0 0 0 1.496-2.045c.551-1.165-.312-3.378-1.4-5.03a15.92 15.92 0 0 0-2.996 1.94 68.42 68.42 0 0 0-4.492 3.913l-.33-.115a37.924 37.924 0 0 1 7.642-6 9.291 9.291 0 0 0-.681-.87 4.889 4.889 0 0 0-3.582-1.198h-.024a11.015 11.015 0 0 0-4.433 1.009 6.05 6.05 0 0 0-3.28 4.855l-1.21.624a7.356 7.356 0 0 1 4.003-6.465Z" fill="#FFFD54"/><path d="M9.261 11.577a4.855 4.855 0 0 0-1.305 2.438c-.663 3.107 1.778 6.636 2.844 6.832a3.89 3.89 0 0 0 2.124-.736l.95-.634c.438-.294.838-.64 1.193-1.03.179-.43.326-.872.44-1.324l.064-.309c.173-.806.241-1.631.203-2.455 0-.705-.232-.933-.615-1.087l-.33-.115c-.146-.047-.305-.096-.476-.164a9.121 9.121 0 0 1-1.194-.662 9.029 9.029 0 0 0-2.688-1.378l-1.21.624Z" fill="#FFFD54"/><path d="M15.27 13.252a68.35 68.35 0 0 1 4.42-3.843v-.001a15.86 15.86 0 0 1 2.985-1.933l.064-.032-.04-.059-.176-.262-.033-.049-.05.03a37.988 37.988 0 0 0-7.628 5.983l-.02-.007c-.131-.042-.268-.085-.414-.143a9.063 9.063 0 0 1-1.184-.656 9.091 9.091 0 0 0-2.705-1.387l-.024-.007-.023.012-1.21.623-.008.005-.007.007a4.918 4.918 0 0 0-1.322 2.469c-.336 1.572.115 3.246.779 4.549a7.63 7.63 0 0 0 1.092 1.625c.186.205.37.375.542.5.171.123.335.205.48.232v.002h.015a3.952 3.952 0 0 0 2.157-.747l.95-.634a6.57 6.57 0 0 0 1.203-1.04l.007-.008.004-.01c.175-.42.32-.852.434-1.292a31.887 31.887 0 0 1 5.392-.33h.044l.016-.04.111-.29.032-.082-.088-.003a31.477 31.477 0 0 0-5.414.306c.16-.784.222-1.584.186-2.383 0-.357-.06-.604-.174-.782a.89.89 0 0 0-.392-.323ZM6.394 10.7a.813.813 0 1 1 1.15-1.149.813.813 0 0 1-1.15 1.15ZM3.895 8.346a.374.374 0 1 1 .742-.098.374.374 0 0 1-.742.098ZM6.682 7.277a.374.374 0 1 1 .742-.098.374.374 0 0 1-.742.098ZM8.43 5.552a.374.374 0 1 1 .742-.098.374.374 0 0 1-.743.098ZM3.942 11.3a.375.375 0 1 1 .648-.375.375.375 0 0 1-.648.375Z" fill="#fff" stroke="#505050" stroke-width=".125"/><path fill="#FFFD54" d="M29 2h17v25H29z"/><path d="M34.594 4.248v-.782h5.75c.041 0 .062-.041.062-.125v-.187h1.188v.562c.02.375-.188.552-.625.532h-2.282v.218h2.876v.72h-2.876v.25H41.5v2.25c.02.437-.208.655-.688.655h-2.124v.282h2.843v.718h-2.843v.22h2.906v.718h-7.125V9.56h2.968v-.219H34.47v-.718h2.968V8.34h-2.812V5.435h2.813v-.25H34.5v-.719h2.906v-.218h-2.812Zm1.093 2.28h1.75v-.343h-1.75v.344Zm3 0h1.594v-.343h-1.593v.344Zm-3 1.095h1.75v-.344h-1.75v.344Zm3 0h1.407c.125 0 .187-.042.187-.125v-.22h-1.593v.345ZM36.906 13.029h4.719v.969h-2.531l-.157.812h2.407v2.594c.125.604-.157.854-.844.75h-3.313v-.844h2.782c.187 0 .281-.073.281-.219v-1.343h-2.719l.344-1.75h-.969v-.97Zm4.625-.875h-4.593v-.938h4.593v.938Zm-5.375 3.281c-.687.104-1.083-.135-1.187-.719L34.5 13.53h1.406l.25.656c.084.292.23.417.438.375h.281v.875h-.719Zm-1.625 1.875h.313c.166.02.281-.073.343-.281l.438-1.281h1.344l-.657 1.812c-.062.48-.406.677-1.03.594h-.75v-.844Zm1.282-4.094c-.355.063-.605-.156-.75-.656l-.532-1.469h1.344l.375.875c.083.25.177.354.281.313h.313v.937h-1.032ZM35.344 20.185c-.23.02-.354-.052-.375-.219l-.313-.75h1.094l.125.157c.042.083.115.125.219.125h.781v.687h-1.531Zm1.75-.656h.718v-.313h1.157v.313h2.343v2.094c0 .145.084.218.25.218v.907h-.843c-.417.062-.604-.209-.563-.813v-1.531H38.97v1.437c.062.667-.23.97-.875.907h-1.032v-.844h.563c.125 0 .188-.073.188-.219v-1.281h-.72v-.875Zm-.219 1.844h-1.5c-.146 0-.25-.053-.313-.157l-.437-.843h1.094l.156.156c.042.083.115.125.219.125h.781v.719Zm-1.406.53c.125 0 .198-.03.218-.093l.188-.25h1l-.5.906c-.063.167-.219.24-.469.22H34.47v-.782h1Zm1.875 1.313v-.312h1.218v.312h3.032v.875h-3.032v2.094h-1.218v-2.094H34.5v-.875h2.844Zm2.906 2.938c-.292.041-.49-.063-.594-.313l-.75-1.5h1.125l.532.907c.062.104.145.156.25.156h.75v.75H40.25Zm-4.938-.813c.126 0 .198-.052.22-.156l.343-.75h1.063l-.47 1.219c-.083.354-.301.51-.656.469H34.47v-.782h.843Z" fill="#fff"/><path fill-rule="evenodd" clip-rule="evenodd" d="M34.094 4.175a.497.497 0 0 0-.094.291v.72c0 .126.047.242.125.33v2.743a.499.499 0 0 0-.156.364v.718c0 .038.004.074.012.11a.505.505 0 0 0-.012.11v.718a.5.5 0 0 0 .242.428.5.5 0 0 0-.15.554l.526 1.455c.032.107.07.213.118.313H34.5a.5.5 0 0 0-.465.683l.452 1.145c.076.37.26.7.598.904l.006.004-.357 1.045h-.203a.5.5 0 0 0-.5.5v.844a.5.5 0 0 0 .5.5h.719c.35.042.708.02 1.007-.153.2-.115.34-.276.43-.462v.115a.5.5 0 0 0 .5.5h3.277c.367.05.79.036 1.095-.236.327-.291.348-.712.285-1.062V14.81a.498.498 0 0 0-.118-.323.5.5 0 0 0 .399-.49v-.968a.5.5 0 0 0-.31-.463.5.5 0 0 0 .216-.412v-.938a.5.5 0 0 0-.297-.457.5.5 0 0 0 .36-.48V9.56a.497.497 0 0 0-.063-.242v-.695a.498.498 0 0 0-.145-.352c.093-.188.122-.397.114-.597V5.427a.497.497 0 0 0 .063-.242v-.719a.498.498 0 0 0-.064-.244c.079-.166.102-.348.095-.518v-.55a.5.5 0 0 0-.5-.5h-1.188a.5.5 0 0 0-.463.312h-5.35a.5.5 0 0 0-.5.5v.709Zm5.812-.834v-.003.003Zm1.688.375v-.562h-1.188v.187c0 .084-.02.125-.062.125h-5.75v.782h2.812v.218H34.5v.72h2.938v.25h-2.813V8.34h2.813v.282h-2.97v.718h2.97v.22h-2.97v.718h7.126V9.56h-2.907v-.219h2.844v-.718h-2.843V8.34h2.124c.277 0 .47-.073.58-.218.081-.107.117-.253.108-.438v-2.25h-2.813v-.25h2.876v-.719h-2.876v-.218h2.282c.322.015.52-.077.593-.277l.002-.005a.642.642 0 0 0 .03-.25Zm-4.899 7.063h-.43a.501.501 0 0 1 .07.115l.107.252a.5.5 0 0 1 .253-.367Zm-.25 1.5c-.07-.03-.136-.134-.195-.313l-.375-.875h-1.344l.532 1.47c.058.201.134.358.228.468a.522.522 0 0 0 .522.187h1.03v-.937h-.312a.11.11 0 0 1-.087 0Zm-.539 1.25H34.5l.469 1.187c.052.292.177.498.375.618.082.049.175.084.281.104.152.029.329.028.531-.003h.719v-.875h-.281c-.052.01-.1.01-.145 0-.133-.031-.23-.156-.293-.375l-.25-.656Zm1.063 2.219-.657 1.812c-.062.48-.406.677-1.03.594h-.75v-.844h.312c.03.004.059.004.085 0 .121-.017.207-.11.258-.281l.438-1.281h1.344Zm.145 1.067.22-.608a.5.5 0 0 0 .197.04h2.219v.563h-2.563a.51.51 0 0 0-.073.005Zm3.136-1.067v1.343c0 .146-.094.22-.281.22h-2.782v.843H40.5c.688.104.969-.146.844-.75V14.81h-2.407l.157-.812h2.531v-.97h-4.719v.97h.969l-.344 1.75h2.719Zm1.281-3.594v-.938h-4.593v.938h4.593ZM34.7 16.913v-.002Zm2.739-10.728h-1.75v.344h1.75v-.344Zm2.843 0h-1.593v.344h1.593v-.344ZM37.438 7.28h-1.75v.344h1.75v-.344Zm1.25 0v.344h1.406c.125 0 .187-.042.187-.125v-.22h-1.593ZM35.75 19.216l.125.157c.042.083.115.125.219.125h.781v.687h-1.531c-.23.02-.354-.052-.375-.219l-.313-.75h1.094Zm-1.341.706-.214-.513a.5.5 0 0 1 .461-.693h1.094a.5.5 0 0 1 .39.188l.075.094h.66a.5.5 0 0 1 .179.032.484.484 0 0 1 .04-.001h.255a.5.5 0 0 1 .464-.313h1.156a.5.5 0 0 1 .463.313h1.88a.5.5 0 0 1 .5.5v1.88a.5.5 0 0 1 .25.432v.907a.498.498 0 0 1-.043.205.497.497 0 0 1 .075.263v.875a.5.5 0 0 1-.5.5h-.837l.184.313h.621a.5.5 0 0 1 .5.5v.75a.5.5 0 0 1-.5.5h-1.28a1.075 1.075 0 0 1-.632-.105.998.998 0 0 1-.448-.497l-.14-.28v.413a.5.5 0 0 1-.5.5h-1.218a.5.5 0 0 1-.5-.5v-.107c-.072.139-.172.266-.311.366-.23.164-.497.203-.747.179H34.47a.5.5 0 0 1-.5-.5v-.782a.5.5 0 0 1 .5-.5h.67l.114-.25H34.5a.5.5 0 0 1-.5-.5v-.875c0-.087.022-.17.062-.24a.498.498 0 0 1-.093-.29v-.782a.5.5 0 0 1 .5-.5h.127l-.415-.801a.5.5 0 0 1 .228-.681Zm2.466 1.45v-.718h-.781c-.104 0-.177-.042-.219-.125l-.156-.156h-1.094l.438.843c.062.104.166.157.312.157h1.5Zm-1 .188-.188.25a.111.111 0 0 1-.054.063.346.346 0 0 1-.164.03h-1v.782h1.437c.25.02.407-.052.469-.219l.5-.906h-1Zm1.188 1.188h1.03c.186.017.342.005.47-.037a.55.55 0 0 0 .291-.213c.103-.152.142-.371.115-.657v-1.437h1.187v1.531c-.03.427.056.687.255.781a.53.53 0 0 0 .308.032h.843v-.907c-.166 0-.25-.073-.25-.218v-2.094H38.97v-.313h-1.157v.313h-.718v.875h.718v1.281c0 .146-.062.219-.187.219h-.563v.844Zm1.5.468v-.312h-1.22v.312H34.5v.875h2.844v2.094h1.218v-2.094h3.032v-.875h-3.032Zm1.093 2.625c.104.25.302.354.594.313h1.313v-.75h-.75c-.105 0-.188-.052-.25-.156l-.532-.907h-1.125l.75 1.5Zm-3.781-1.406-.344.75c-.02.104-.093.156-.218.156h-.844v.782h1.343c.355.041.573-.115.657-.47l.468-1.218h-1.062Zm3.432-1.719c.157-.269.187-.59.162-.897v-.915h.187v1.015c-.017.266 0 .552.109.797h-.458Zm2.252-1.375h.002Z" fill="#505050"/><path fill="#FFFD54" d="M17 29h29v9H17z"/><path d="M25.531 33h-.61v-2.89h.61v1.14h1.094v-1.14h.625V33h-.61v-1.266h-1.109V33ZM27.75 33v-2.89h1.938v.484h-1.313v.672h1.219v.484h-1.219v.766h1.36V33H27.75ZM30.594 33H30l1.047-2.89h.734L32.797 33h-.625l-.219-.61h-1.14l-.22.61Zm.375-1.094h.828l-.39-1.234h-.016l-.422 1.234ZM33.938 33l-1.063-2.89h.672l.75 2.28h.016l.75-2.28h.609L34.609 33h-.672ZM36.734 33v-.938l-.984-1.953h.734l.594 1.328.61-1.328h.624l-.968 1.953V33h-.61ZM20.945 37h-.61v-2.89h.892c.791-.011 1.182.286 1.171.89-.02.563-.354.86-1 .89h-.453V37Zm0-2.406v.812h.188c.416.042.62-.093.61-.406 0-.281-.204-.417-.61-.406h-.188ZM24.07 37.031c-.906-.02-1.37-.51-1.39-1.468.03-.99.494-1.495 1.39-1.516.886.02 1.344.526 1.375 1.516-.03.958-.49 1.447-1.375 1.468Zm0-2.531c-.49 0-.734.354-.734 1.063 0 .697.245 1.046.734 1.046.48 0 .72-.349.72-1.047 0-.708-.24-1.062-.72-1.062ZM27.758 37h-1.86v-2.89h.61v2.406h1.25V37ZM29.977 37h-1.86v-2.89h.61v2.406h1.25V37ZM32.242 34.11h.625v1.812c-.031.719-.448 1.088-1.25 1.11-.823-.022-1.245-.391-1.265-1.11v-1.813h.625v1.578c-.042.636.171.943.64.922.458.021.667-.286.625-.922V34.11ZM33.21 34.594v-.485h2.345v.485h-.86V37h-.625v-2.406h-.86ZM36.477 34.11V37h-.625v-2.89h.625ZM38.273 37.031c-.906-.02-1.37-.51-1.39-1.468.031-.99.495-1.495 1.39-1.516.886.02 1.344.526 1.375 1.516-.03.958-.49 1.447-1.375 1.468Zm0-2.531c-.49 0-.734.354-.734 1.063 0 .697.245 1.046.734 1.046.48 0 .72-.349.72-1.047 0-.708-.24-1.062-.72-1.062ZM42.695 37h-.89l-1.125-2.406-.016.015V37h-.578v-2.89h.922l1.094 2.28.015-.015v-2.266h.578V37Z" fill="#fff"/><path fill-rule="evenodd" clip-rule="evenodd" d="M26.031 33a.5.5 0 0 1-.5.5h-.61a.5.5 0 0 1-.5-.5v-2.89a.5.5 0 0 1 .5-.5h.61a.5.5 0 0 1 .5.5v.64h.094v-.64a.5.5 0 0 1 .5-.5h.625c.091 0 .177.024.25.066a.497.497 0 0 1 .25-.067h1.938a.5.5 0 0 1 .5.5v.485a.499.499 0 0 1-.183.386c.056.081.089.18.089.286v.007l.483-1.334a.5.5 0 0 1 .47-.33h.734a.5.5 0 0 1 .472.335l1.016 2.89a.5.5 0 0 1-.472.666h-.625a.5.5 0 0 1-.47-.331l-.1-.278h-.438l-.1.278a.5.5 0 0 1-.47.331H30a.498.498 0 0 1-.133-.018.499.499 0 0 1-.133.018H27.75a.497.497 0 0 1-.25-.067.497.497 0 0 1-.25.067h-.61a.5.5 0 0 1-.5-.5v-.766h-.109V33Zm.61 0h.609v-2.89h-.625v1.14h-1.094v-1.14h-.61V33h.61v-1.266h1.11V33Zm3.093 0v-.484h-1.359v-.766h1.219v-.484h-1.219v-.672h1.313v-.485H27.75V33h1.984ZM30 33h.594l.218-.61h1.141l.219.61h.625l-1.016-2.89h-.734L30 33Zm.969-1.094h.828l-.39-1.234h-.016l-.422 1.234Zm2.968 1.594a.5.5 0 0 1-.469-.328l-1.062-2.89a.5.5 0 0 1 .469-.673h.672a.5.5 0 0 1 .475.344l.283.86.282-.86a.5.5 0 0 1 .475-.344h.61c.013 0 .026 0 .039.002a.509.509 0 0 1 .039-.002h.734a.5.5 0 0 1 .457.296l.143.32.15-.324a.5.5 0 0 1 .453-.292h.626a.5.5 0 0 1 .447.722l-.916 1.849V33a.5.5 0 0 1-.5.5h-.61a.5.5 0 0 1-.5-.5v-.819l-.457-.908-.698 1.9a.5.5 0 0 1-.47.327h-.672Zm1.735-3.39h-.61l-.75 2.28h-.015l-.75-2.28h-.672L33.938 33h.671l1.063-2.89Zm1.062 1.953V33h.61v-.938l.968-1.953h-.624l-.61 1.328-.594-1.328h-.734l.984 1.953ZM21.445 37a.5.5 0 0 1-.5.5h-.61a.5.5 0 0 1-.5-.5v-2.89a.5.5 0 0 1 .5-.5h.888c.443-.006.87.07 1.193.316.088.067.163.142.225.224a1.5 1.5 0 0 1 .041-.047c.35-.38.837-.543 1.377-.556h.023c.513.012.977.162 1.32.509a.5.5 0 0 1 .496-.447h.61a.5.5 0 0 1 .5.5v1.907h.61v-1.907a.5.5 0 0 1 .5-.5h.609a.5.5 0 0 1 .5.5v1.907h.628a2.307 2.307 0 0 1-.003-.08V34.11a.5.5 0 0 1 .5-.5h.625a.5.5 0 0 1 .5.5v1.578c0 .011 0 .022-.002.033-.008.13-.002.226.01.293.01.054.022.08.028.091.01.003.036.008.082.006h.045a.284.284 0 0 0 .068-.004.33.33 0 0 0 .026-.09 1.263 1.263 0 0 0 .008-.328v-1.579a.5.5 0 0 1 .5-.5h.625a.5.5 0 0 1 .172.03.499.499 0 0 1 .172-.03h2.344c.051 0 .101.008.148.023a.499.499 0 0 1 .149-.023h.625a.5.5 0 0 1 .492.41c.341-.32.794-.46 1.293-.472h.023c.506.012.964.158 1.306.495a.5.5 0 0 1 .495-.433h.922a.5.5 0 0 1 .45.284l.16.33v-.114a.5.5 0 0 1 .5-.5h.577a.5.5 0 0 1 .5.5V37a.5.5 0 0 1-.5.5h-.89a.5.5 0 0 1-.453-.288l-.188-.402V37a.5.5 0 0 1-.5.5h-.578a.5.5 0 0 1-.498-.451c-.342.33-.8.47-1.303.482h-.023c-.496-.011-.948-.143-1.291-.453a.5.5 0 0 1-.494.422h-.625a.5.5 0 0 1-.5-.5v-1.906h-.157V37a.5.5 0 0 1-.5.5h-.625a.5.5 0 0 1-.5-.5v-1.906h-.203v.85c-.02.453-.167.87-.504 1.168-.328.291-.765.407-1.233.42a.55.55 0 0 1-.025 0c-.435-.012-.843-.108-1.164-.347a.5.5 0 0 1-.464.315h-1.86a.499.499 0 0 1-.18-.033.499.499 0 0 1-.18.033h-1.859a.5.5 0 0 1-.498-.465c-.344.34-.808.484-1.318.496h-.023c-.54-.012-1.027-.167-1.38-.539a1.771 1.771 0 0 1-.426-.82c-.24.137-.52.2-.808.217V37Zm-.5-1.11h.453c.082-.003.159-.011.23-.024.24-.042.424-.131.552-.268a.76.76 0 0 0 .043-.05.928.928 0 0 0 .175-.548 1.007 1.007 0 0 0-.05-.352c-.112-.318-.407-.495-.887-.532a2.644 2.644 0 0 0-.234-.007h-.891V37h.61v-1.11Zm0-.484h.188a1.168 1.168 0 0 0 .312-.009.534.534 0 0 0 .066-.018c.16-.057.238-.184.231-.379 0-.196-.099-.322-.297-.376a1.047 1.047 0 0 0-.212-.03H20.945v.812Zm1.745.345c.049.536.256.904.622 1.104.204.11.456.17.758.176.305-.007.558-.07.762-.187.295-.171.484-.458.566-.862.027-.128.042-.268.047-.42a2.65 2.65 0 0 0-.047-.433c-.093-.471-.323-.789-.688-.952a1.65 1.65 0 0 0-1.29 0 1.11 1.11 0 0 0-.545.518 1.534 1.534 0 0 0-.121.318 2.455 2.455 0 0 0-.074.55c.001.065.005.128.01.188Zm.906.686c.116.113.27.17.464.172h.02a.625.625 0 0 0 .459-.175c.167-.17.25-.46.25-.871 0-.473-.107-.788-.32-.945a.648.648 0 0 0-.388-.118H24.06a.671.671 0 0 0-.4.12c-.216.157-.324.472-.324.943 0 .414.087.706.26.874Zm2.302.563h1.86v-.484h-1.25v-2.407h-.61V37Zm4.079-.484h-1.25v-2.407h-.61V37h1.86v-.484Zm.497-.05a.896.896 0 0 0 .374.387c.193.109.443.168.75.178a1.23 1.23 0 0 0 .038 0c.31-.01.56-.073.753-.189.3-.18.46-.486.478-.92v-1.813h-.625v1.578c.023.35-.03.601-.159.752-.103.12-.255.178-.455.17h-.022c-.203.008-.357-.048-.463-.166-.134-.15-.19-.403-.166-.755v-1.579h-.625v1.813c.003.114.016.218.04.315.02.082.047.159.082.229ZM34.07 37h.625v-2.406h.86v-.485H33.21v.485h.86V37Zm1.782 0h.625v-2.89h-.625V37Zm1.125-.822c.1.31.28.535.538.676.204.111.457.17.758.177.305-.007.558-.07.762-.187.278-.161.461-.425.55-.792.037-.147.058-.31.063-.49a2.536 2.536 0 0 0-.062-.505c-.102-.431-.326-.725-.673-.88a1.652 1.652 0 0 0-1.289 0c-.318.142-.534.398-.647.768-.056.179-.087.385-.094.617.005.234.036.439.094.617Zm.822.26c.116.112.27.17.465.171h.02a.625.625 0 0 0 .458-.175c.167-.17.25-.46.25-.871 0-.473-.106-.788-.32-.945a.648.648 0 0 0-.388-.118H38.263a.671.671 0 0 0-.4.12c-.216.157-.324.472-.324.943 0 .414.087.706.26.874Zm2.287.562h.578v-2.39l.016-.016L41.805 37h.89v-2.89h-.578v2.265l-.015.016-1.094-2.282h-.922V37ZM23.93 35.05c-.038.055-.095.2-.095.513 0 .305.056.445.093.497.014.02.025.028.035.032a.25.25 0 0 0 .106.017c.06 0 .087-.01.096-.015a.077.077 0 0 0 .031-.03c.037-.052.092-.194.092-.502 0-.313-.056-.46-.094-.516-.014-.022-.025-.028-.031-.031A.215.215 0 0 0 24.07 35a.242.242 0 0 0-.104.017.088.088 0 0 0-.035.033Zm14.203 0c-.038.055-.095.2-.095.513 0 .305.056.445.093.497.014.02.025.028.035.032a.25.25 0 0 0 .106.017c.06 0 .087-.01.096-.015a.077.077 0 0 0 .031-.03c.037-.052.092-.194.092-.502 0-.313-.056-.46-.094-.516-.014-.022-.024-.028-.031-.031a.215.215 0 0 0-.094-.015.242.242 0 0 0-.104.017.088.088 0 0 0-.035.033Z" fill="#505050"/><defs><clipPath id="a"><path fill="#fff" d="M0 0h48v40H0z"/></clipPath></defs></svg>