<svg width="48" height="40" fill="none" xmlns="http://www.w3.org/2000/svg"><g clip-path="url(#a)"><path fill-rule="evenodd" clip-rule="evenodd" d="M0 38a2 2 0 0 0 2 2h44a2 2 0 0 0 2-2V2A2 2 0 0 0 46.15.005L46 0H2l-.15.005A2 2 0 0 0 0 2v36ZM27 2H2v25h25V2ZM2 29v9h13v-9H2Zm15 9h29v-9H17v9Zm29-11V2H29v25h17Z" fill="#505050"/></g><path fill="#C93E34" d="M2 29h13v9H2z"/><path fill-rule="evenodd" clip-rule="evenodd" d="M7.926 35.07v-.847H6.668l1.613-2.57h-1.12l-.384.628h-.355l1.203-1.886H6.559l-1.04 1.613v1.039h.876l-.875 1.258v.765h2.406Zm3.8 1.532v-.875h-1.285V31.27H11.7v-.875H8.281v.875h1.094v4.457H8.254v.875h3.473Zm-3.8-.903v.82H5.492v-.82h2.434Z" fill="#fff"/><path d="M7.926 34.223h.5v-.5h-.5v.5Zm0 .847v.5h.5v-.5h-.5Zm-1.258-.847-.424-.266-.48.766h.904v-.5Zm1.613-2.57.424.265.48-.766h-.904v.5Zm-1.12 0v-.5h-.282l-.146.24.427.26Zm-.384.628v.5h.281l.146-.24-.427-.26Zm-.355 0L6 32.012l-.49.77h.912v-.5Zm1.203-1.886.422.268.49-.768h-.912v.5Zm-1.066 0v-.5h-.273l-.148.229.42.27Zm-1.04 1.613-.42-.27-.08.123v.147h.5Zm0 1.039h-.5v.5h.5v-.5Zm.876 0 .41.285.546-.785h-.956v.5Zm-.875 1.258-.41-.286-.09.129v.157h.5Zm0 .765h-.5v.5h.5v-.5Zm6.207.657h.5v-.5h-.5v.5Zm0 .875v.5h.5v-.5h-.5Zm-1.286-.875h-.5v.5h.5v-.5Zm0-4.457v-.5h-.5v.5h.5Zm1.258 0v.5h.5v-.5h-.5Zm0-.875h.5v-.5h-.5v.5Zm-3.418 0v-.5h-.5v.5h.5Zm0 .875h-.5v.5h.5v-.5Zm1.094 0h.5v-.5h-.5v.5Zm0 4.457v.5h.5v-.5h-.5Zm-1.121 0v-.5h-.5v.5h.5Zm0 .875h-.5v.5h.5v-.5Zm-.328-.082v.5h.5v-.5h-.5Zm0-.82h.5v-.5h-.5v.5Zm-2.434.82h-.5v.5h.5v-.5Zm0-.82v-.5h-.5v.5h.5Zm1.934-1.477v.847h1v-.847h-1Zm-.758.5h1.258v-1H6.668v1Zm1.19-3.336-1.614 2.57.847.532 1.614-2.57-.847-.532Zm-.698.765h1.121v-1h-1.12v1Zm.044.39.383-.63-.854-.52-.383.63.854.52Zm-.782.24h.355v-1h-.355v1Zm.781-2.656L6 32.012l.843.538 1.204-1.887-.844-.537Zm-.644.768h1.066v-1H6.559v1Zm-.62 1.385 1.04-1.614-.84-.541-1.04 1.613.84.542Zm.08.768v-1.04h-1v1.04h1Zm.376-.5H5.52v1h.875v-1ZM5.93 34.59l.875-1.258-.82-.57-.876 1.257.821.571Zm.09.48v-.765h-1v.765h1Zm1.906-.5H5.52v1h2.406v-1Zm3.3 1.157v.875h1v-.875h-1Zm-.785.5h1.286v-1H10.44v1Zm-.5-4.957v4.457h1V31.27h-1Zm1.758-.5h-1.258v1H11.7v-1Zm-.5-.375v.875h1v-.875h-1Zm-2.918.5H11.7v-1H8.281v1Zm.5.375v-.875h-1v.875h1Zm.594-.5H8.281v1h1.094v-1Zm.5 4.957V31.27h-1v4.457h1Zm-1.621.5h1.121v-1H8.254v1Zm.5.375v-.875h-1v.875h1Zm2.973-.5H8.254v1h3.473v-1Zm-3.301.418v-.82h-1v.82h1Zm-2.934.5h2.434v-1H5.492v1Zm-.5-1.32v.82h1v-.82h-1Zm2.934-.5H5.492v1h2.434v-1Z" fill="#505050"/><path fill-rule="evenodd" clip-rule="evenodd" d="M7.834 35.07v-.847H6.576l1.613-2.57H7.068l-.383.628H6.33l1.203-1.886H6.466l-1.039 1.613v1.039h.875l-.875 1.258v.765h2.407Zm3.8 1.532v-.875H10.35V31.27h1.258v-.875H8.19v.875h1.094v4.457H8.162v.875h3.472Zm-3.8-.903v.82H5.4v-.82h2.434Z" fill="#fff"/><path fill="#CCC" d="M2 2h25v25H2z"/><path d="m16.185 6.599 7.56 13.094c.926 1.603.168 2.911-1.68 2.91H6.942c-1.845 0-2.602-1.307-1.678-2.91L12.824 6.6c.927-1.601 2.437-1.601 3.36 0Z" fill="#C93E34"/><path d="M13.467 10.315c.273-.294.619-.44 1.04-.44.42 0 .767.144 1.04.434.27.29.406.653.406 1.09 0 .375-.565 3.134-.752 5.143h-1.36c-.163-2.007-.776-4.768-.776-5.144-.004-.43.13-.79.402-1.083Zm2.056 9.546c-.288.28-.627.417-1.02.417-.394 0-.733-.138-1.021-.417a1.354 1.354 0 0 1-.428-1.01c0-.393.142-.733.428-1.018a1.395 1.395 0 0 1 1.02-.428c.394 0 .735.142 1.021.428.286.285.428.625.428 1.018a1.359 1.359 0 0 1-.428 1.01Z" fill="#fff" stroke="#505050" stroke-width=".2"/><path fill="#C93E34" d="M29 2h17v25H29z"/><path fill-rule="evenodd" clip-rule="evenodd" d="M33.508 5.552h.39V5.2h.446v.39h6.312V5.24h.524v.352h.234v.132h-.352v5.454h.352v.093H33.43v-.133h.468V5.684h-.39v-.132Zm-.61 1.132h-.39V4.552h.39V4.2h2.446v.39h4.312V4.24h2.524v.352h.234v2.132h-.352v3.454h.352v3.93h-2.023c-.23 0-.466-.037-.674-.147a.948.948 0 0 1-.457-.525l-.494-1.165h-2.422l-.636 1.232-.01.018c-.247.394-.657.547-1.089.547h-2.18v-3.93h.47V6.684Zm1.715 5.86-.052.083-.004.007c-.194.29-.502.332-.73.3h-.397v.133h1.18c.163 0 .212-.04.231-.065l.237-.458h-.465Zm5.322-.078.26.612v.003c.025.01.083.025.196.025h1.023v-.094h-.157a.68.68 0 0 1-.406-.062.725.725 0 0 1-.322-.331l-.004-.008-.066-.145h-.524Zm-5.591-6.782h6.312v1.782h-6.312V5.684Zm0 1.914h6.273v1.664h-6.273V7.598Zm.039 1.797h6.234v1.742h-6.234V9.395Zm-.157 5.766h6.118v1.016h2.187v5.257c.014.43-.075.855-.374 1.165-.086.09-.181.162-.284.218h.658v2.172h-5.443c-.438.03-.868-.086-1.155-.458-.264-.34-.327-.799-.3-1.267v-4.76h-.055v6.602h-2.367V19.17h-.547v-2.29h.672a.518.518 0 0 0 .045-.075l.002-.005.843-1.638Zm-.562 3.008h.547v5.937h.367V17.62l.547-1.16v-.204h.097l.044-.094h-.43l-.562 1.093c-.088.175-.21.347-.386.468a.91.91 0 0 1-.224.114v.333Zm2.461-.664h.508v5.788l-.001.015c-.023.386.046.552.092.611.02.027.076.09.308.072l.02-.002h4.48v-.172H37.76c-.18.016-.436-.012-.627-.23-.174-.198-.186-.442-.172-.607v-5.514h1.977v4.726h.367v-4.765h1.898v3.546c0 .156-.039.364-.205.53a.675.675 0 0 1-.264.163v.33h.29l.01.001c.274.01.37-.056.403-.091.037-.039.105-.15.095-.446v-4.283h-2.188V16.16h-.367v1.055H37V16.16h-.328v1.094h-.547v.25Z" fill="#505050"/><path d="m39.727 13.255-.547-1.29h1.601l.196.43c.052.104.13.144.234.117h.703v1.094h-1.523c-.365 0-.586-.117-.664-.351Zm-6.797-.82h.937c.13.025.222 0 .274-.079l.195-.312h1.562l-.625 1.21c-.13.209-.351.313-.664.313h-1.68v-1.133Zm7.187-4.337h-5.273v.664h5.273v-.664Zm0 1.797h-5.234v.742h5.234v-.742Zm-5.273-2.93h5.312v-.78h-5.312v.78Zm-1.446-.78h-.39V5.051h.39V4.7h1.446v.39h5.312V4.74h1.524v.352h.234v1.132h-.352v4.454h.352v1.093H32.93v-1.133h.468V6.184ZM33.164 18.669v-1.29h.156c.209.027.378-.09.508-.35l.703-1.368h1.524l-.977 2.07v6.875h-1.367V18.67h-.547ZM37.5 15.66v1.055h.977V15.66h1.367v1.016h2.187v4.765c.026.73-.312 1.08-1.015 1.055h-.782v-1.29h.235c.156 0 .234-.077.234-.234v-3.046h-.898v4.765h-1.367v-4.726h-.977v5.039c-.026.234.065.338.273.312h4.297v1.172h-4.96c-.678.052-.99-.352-.938-1.21v-5.274h-.508v-1.25h.547V15.66H37.5Z" fill="#fff"/><path fill="#C93E34" d="M17 29h29v9H17z"/><path d="M23.707 36.047c-1.36-.031-2.055-.766-2.086-2.203.047-1.485.742-2.242 2.086-2.274 1.328.032 2.016.79 2.063 2.274-.047 1.437-.735 2.172-2.063 2.203Zm0-3.797c-.734 0-1.102.531-1.102 1.594 0 1.047.368 1.57 1.102 1.57.719 0 1.078-.523 1.078-1.57 0-1.063-.36-1.594-1.078-1.594ZM26.098 32.39v-.726h3.515v.727h-1.289V36h-.937v-3.61h-1.29ZM31.02 36h-.915v-4.336h.915v1.711h1.64v-1.71h.938V36h-.914v-1.898H31.02V36ZM34.348 36v-4.336h2.906v.727h-1.969v1.007h1.828v.727h-1.828v1.148h2.04V36h-2.977ZM38.941 32.39v1.15h.774c.437 0 .656-.204.656-.61 0-.375-.219-.555-.656-.54h-.774Zm0 1.876V36h-.937v-4.336h1.852c.984.016 1.484.39 1.5 1.125-.016.563-.313.914-.891 1.055v.023c.422.047.68.367.773.961.016.063.024.11.024.14.047.516.125.86.234 1.032h-1.008a5.722 5.722 0 0 1-.164-1.172c-.031-.375-.164-.562-.398-.562h-.985Z" fill="#fff"/><path fill-rule="evenodd" clip-rule="evenodd" d="M23.719 36.547h-.024c-.765-.018-1.425-.237-1.892-.73-.463-.49-.665-1.172-.682-1.962a.59.59 0 0 1 0-.027c.026-.81.23-1.505.688-2.004.466-.507 1.122-.736 1.886-.754h.024c.758.018 1.409.248 1.87.756l.009.01v-.172a.5.5 0 0 1 .5-.5h3.515c.09 0 .174.024.246.065a.498.498 0 0 1 .246-.065h.915a.5.5 0 0 1 .5.5v1.211h.64v-1.21a.5.5 0 0 1 .5-.5h.938c.149 0 .283.065.375.168a.499.499 0 0 1 .375-.169h2.906c.15 0 .283.066.375.17a.499.499 0 0 1 .375-.17h1.86c.54.009 1.034.115 1.405.393.395.296.576.73.586 1.221v.025c-.01.369-.115.714-.352.994a1.401 1.401 0 0 1-.09.097c.169.236.265.526.316.835.014.06.029.134.032.21.022.237.05.424.082.563.034.151.066.215.075.23a.5.5 0 0 1-.422.768h-1.008a.5.5 0 0 1-.485-.379 6.22 6.22 0 0 1-.178-1.261.922.922 0 0 0-.013-.094h-.37V36a.5.5 0 0 1-.5.5h-.938a.499.499 0 0 1-.34-.133.499.499 0 0 1-.34.133h-2.976a.499.499 0 0 1-.375-.17.499.499 0 0 1-.375.17h-.914a.5.5 0 0 1-.5-.5v-1.398h-.664V36a.5.5 0 0 1-.5.5h-.915a.5.5 0 0 1-.5-.5v-3.11h-.78V36a.5.5 0 0 1-.5.5h-.938a.5.5 0 0 1-.5-.5v-3.11h-.745a4.228 4.228 0 0 1 .127.97c-.025.789-.23 1.467-.685 1.954-.462.494-1.112.715-1.865.733Zm3.668-4.156V36h.937v-3.61h1.29v-.726h-3.516v.727h1.289ZM30.105 36h.915v-1.898h1.664V36h.914v-4.336h-.938v1.711h-1.64v-1.71h-.915V36Zm7.399-1.193v-.37a.499.499 0 0 1-.39.188h-1.329v.148h1.54c.063 0 .123.012.179.034Zm-2.219.466v-1.148h1.828v-.727h-1.828v-1.007h1.969v-.727h-2.906V36h2.976v-.727h-2.039Zm.5-2.382v.007h1.328a.5.5 0 0 1 .39.188v-.262a.497.497 0 0 1-.25.067h-1.468Zm3.156 1.375h.985c.234 0 .367.187.398.562.016.406.07.797.164 1.172h1.008c-.066-.104-.12-.27-.164-.5a5.717 5.717 0 0 1-.07-.531.642.642 0 0 0-.024-.14c-.043-.275-.121-.491-.235-.649a.734.734 0 0 0-.532-.312h-.006v-.024h.002c.245-.06.44-.159.583-.294.195-.184.297-.438.306-.76-.016-.735-.516-1.11-1.5-1.126h-1.852V36h.937v-1.734Zm.774-1.875h-.774v1.148h.774c.437 0 .656-.203.656-.61 0-.374-.219-.554-.656-.538Zm-.274.648h.274a.434.434 0 0 0 .147-.018.348.348 0 0 0 .008-.123.604.604 0 0 0-.155-.007h-.274v.148ZM23.707 31.57c-1.344.032-2.039.79-2.086 2.274.031 1.437.727 2.172 2.086 2.203 1.328-.031 2.016-.766 2.063-2.203-.047-1.485-.735-2.242-2.063-2.274Zm-.415 1.363c-.1.144-.187.422-.187.91 0 .481.087.752.185.891.075.107.185.18.417.18.22 0 .323-.07.396-.175.097-.14.182-.413.182-.895 0-.49-.086-.77-.183-.915-.075-.11-.178-.179-.395-.179-.23 0-.338.072-.415.183Zm-.687.91c0-1.062.368-1.593 1.102-1.593.719 0 1.078.531 1.078 1.594 0 1.047-.36 1.57-1.078 1.57-.734 0-1.102-.523-1.102-1.57Z" fill="#505050"/><defs><clipPath id="a"><path fill="#fff" d="M0 0h48v40H0z"/></clipPath></defs></svg>