<svg width="48" height="40" fill="none" xmlns="http://www.w3.org/2000/svg"><g clip-path="url(#a)"><path fill-rule="evenodd" clip-rule="evenodd" d="M0 38a2 2 0 0 0 2 2h44a2 2 0 0 0 2-2V2A2 2 0 0 0 46.15.005L46 0H2l-.15.005A2 2 0 0 0 0 2v36ZM27 2H2v25h25V2ZM2 29v9h13v-9H2Zm15 9h29v-9H17v9Zm29-11V2H29v25h17Z" fill="#505050"/></g><path fill="#FFFD54" d="M2 29h13v9H2z"/><path fill-rule="evenodd" clip-rule="evenodd" d="M7.625 36.273a.959.959 0 0 1-.663.329H5.547v-.711h1.121c.11 0 .219-.055.328-.164l.137-.164H5.629v-2.817h2.434v-.328H5.52v-.766h.683v-.328H5.52v-.738h.683v-.273h.957v.273h2.762v-.3h.93v.3h.765v.738h-.765v.328h.793v.766H9.047v.328h2.488v1.914c.091.693-.255.994-1.039.903h-.328l.11.136c0 .018.008.037.027.055.127.091.228.128.3.11h1.04v.683h-1.56c-.29-.037-.482-.11-.573-.219l-.63-.766h-.519l-.738.711Zm-.465-4.62h2.735v-.329H7.16v.328Zm.875 2.132h-1.45v-.3h1.45v.3Zm1.012 0h1.558v-.3H9.047v.3Zm1.504 1.067H9.074v-.329h1.559v.22c0 .072-.027.109-.082.109Zm-3.965 0h1.45v-.329h-1.45v.329Z" fill="#fff" stroke="#505050"/><path fill-rule="evenodd" clip-rule="evenodd" d="M7.545 36.273a.959.959 0 0 1-.663.329H5.467v-.711h1.121c.11 0 .22-.055.329-.164l.136-.164H5.55v-2.817h2.434v-.328H5.44v-.766h.684v-.328H5.44v-.738h.684v-.273h.957v.273h2.761v-.3h.93v.3h.766v.738h-.766v.328h.793v.766H8.967v.328h2.489v1.914c.09.693-.256.994-1.04.903h-.328l.11.136c0 .018.009.037.027.055.128.091.228.128.3.11h1.04v.683h-1.559c-.291-.037-.483-.11-.574-.219l-.629-.766h-.52l-.738.711Zm-.464-4.62h2.734v-.329H7.08v.328Zm.875 2.132h-1.45v-.3h1.45v.3Zm1.011 0h1.559v-.3H8.967v.3Zm1.504 1.067H8.995v-.329h1.558v.22c0 .072-.027.109-.082.109Zm-3.965 0h1.45v-.329h-1.45v.329Z" fill="#fff"/><path fill="#CCC" d="M2 2h25v25H2z"/><path d="M19.966 7.651c-.654-1.917-2.452-3.25-4.414-3.25-2.37 0-4.25 1.75-4.659 4-2.043.417-3.596 2.167-3.596 4.333 0 2.699 2.443 4.78 5.068 4.334-.843 2.748-3.37 6.055-7.718 7.333 5.495.444 13.198-4.798 14.256-8 2.549 0 4.74-1.7 4.74-4.417a4.175 4.175 0 0 0-3.677-4.333Z" fill="#FFFD54"/><path d="M19.269 15.185c.741 0 1.27-.556 1.27-1.334 0-.333-.105-.555-.317-.778.212-.222.317-.444.317-.777 0-.778-.529-1.334-1.27-1.334h-.741c-.318 0-.53.223-.53.556 0 .333.212.555.53.555h.741c.106 0 .212.112.212.223 0 .11-.106.222-.212.222h-.741c-.318 0-.53.222-.53.555 0 .334.212.556.53.556h.741c.106 0 .212.111.212.222s-.106.222-.212.222h-.741c-.318 0-.53.223-.53.556 0 .333.212.556.53.556h.741Z" fill="#fff"/><path fill-rule="evenodd" clip-rule="evenodd" d="M17.257 12.518c0 1.667-1.27 3-2.859 3-1.588 0-2.858-1.333-2.858-3v-1c0-1.667 1.27-3 2.858-3 1.589 0 2.86 1.333 2.86 3v1Zm-4.023-1c0-.778.635-1.333 1.27-1.333.636 0 1.165.555 1.27 1.333v1c0 .778-.529 1.333-1.27 1.333-.74 0-1.27-.666-1.27-1.333v-1Z" fill="#fff"/><path fill-rule="evenodd" clip-rule="evenodd" d="M15.975 11.504v1.014c0 .879-.61 1.533-1.47 1.533-.872 0-1.471-.776-1.471-1.533v-1c0-.89.726-1.533 1.47-1.533.766 0 1.354.663 1.469 1.506l.002.013Zm3.97 1.57.132-.139a.835.835 0 0 0 .262-.64c0-.676-.448-1.133-1.07-1.133h-.741a.318.318 0 0 0-.24.091.373.373 0 0 0-.09.265c0 .124.04.21.09.265.052.053.13.09.24.09h.741c.121 0 .224.062.29.132.068.07.122.173.122.29 0 .118-.054.22-.122.291a.407.407 0 0 1-.29.132h-.741a.317.317 0 0 0-.24.09.373.373 0 0 0-.09.265c0 .124.04.211.09.265.052.054.13.091.24.091h.741c.121 0 .224.062.29.131.068.071.122.174.122.291 0 .117-.054.22-.122.291a.407.407 0 0 1-.29.132h-.741a.317.317 0 0 0-.24.09.373.373 0 0 0-.09.265c0 .124.04.21.09.265.052.053.13.09.24.09h.741c.622 0 1.07-.456 1.07-1.133a.835.835 0 0 0-.262-.64l-.131-.138Zm-4.17-1.556c-.106-.778-.635-1.333-1.27-1.333-.636 0-1.271.555-1.271 1.333v1c0 .667.53 1.333 1.27 1.333.741 0 1.27-.555 1.27-1.333v-1Zm-1.377 3.8c1.47 0 2.66-1.235 2.66-2.8v-1c0-1.565-1.19-2.8-2.66-2.8-1.468 0-2.658 1.235-2.658 2.8v1c0 1.565 1.19 2.8 2.658 2.8Zm5.824-2.245c.212.223.317.445.317.778 0 .778-.529 1.334-1.27 1.334h-.741c-.318 0-.53-.223-.53-.556 0-.333.212-.556.53-.556h.741c.106 0 .212-.11.212-.222 0-.11-.106-.222-.212-.222h-.741c-.318 0-.53-.222-.53-.556 0-.333.212-.555.53-.555h.741c.106 0 .212-.111.212-.222s-.106-.223-.212-.223h-.741c-.318 0-.53-.222-.53-.555 0-.333.212-.556.53-.556h.741c.741 0 1.27.556 1.27 1.334 0 .333-.105.555-.317.777Zm-5.824 2.445c1.589 0 2.86-1.333 2.86-3v-1c0-1.667-1.271-3-2.86-3-1.588 0-2.858 1.333-2.858 3v1c0 1.667 1.27 3 2.858 3Z" fill="#505050"/><path fill="#FFFD54" d="M29 2h17v25H29z"/><path d="M33.281 5.305h1.758l.156-.352h1.72l-.118.352h4.96V9.68c.079.599-.207.86-.859.78h-7.617V5.306Zm1.25.976v.39h5.977v-.39H34.53Zm5.977 1.407H34.53v.39h5.977v-.39ZM34.53 9.055v.39h5.703c.209.026.3-.078.274-.312v-.078H34.53Zm2.188 2.03.117-.39h1.523l-.156.39h1.64v-.233h1.524v.234h.586v.898h-3.555l.352.391c.13.208.352.3.664.273h2.578v1.094H38.79c-.417.026-.703-.091-.86-.351L37.54 13l-.312.352c-.13.234-.482.338-1.055.312h-3.008v-.937h2.188c.416 0 .65-.079.703-.235l.312-.508h-3.242v-.898h3.594ZM34.063 15.992h1.484l-.156.39h6.64v1.055h-7.304c-.183.183-.47.274-.86.274h-.742v-1.133h.195c.365 0 .573-.104.625-.312l.117-.274Zm7.578 3.242v4.453c-.026.183.039.26.195.235h.078v1.055h-.742c-.703.104-1.016-.313-.938-1.25v-3.438h-7.109v-1.055h8.516Zm-7.774 1.29h1.68l.156.43h1.836l.195-.43h1.485v.468h.625v.938h-2.461v.43h2.422v1.054h-2.422v.39h2.383v.86h-2.383v.352h-1.524v-.352h-2.773v-.86h2.773v-.39h-2.734V22.36h2.734v-.43h-2.734v-.976h.742v-.43Zm8.047-2.696v1.055H33.32v-1.055h8.594Z" fill="#fff"/><path fill-rule="evenodd" clip-rule="evenodd" d="M32.781 5.305a.5.5 0 0 1 .5-.5h1.433l.024-.055a.5.5 0 0 1 .457-.297h1.72a.5.5 0 0 1 .477.352h4.366a.5.5 0 0 1 .5.5v4.344c.036.319 0 .671-.223.944a.5.5 0 0 1 .418.493v.898c0 .117-.04.225-.108.31.091.091.147.216.147.354v1.094a.5.5 0 0 1-.5.5h-3.188c-.482.027-.95-.1-1.241-.5-.15.177-.352.283-.556.343a2.629 2.629 0 0 1-.846.08h-2.997a.5.5 0 0 1-.5-.5v-.938c0-.139.056-.264.146-.354a.499.499 0 0 1-.185-.389v-.898a.5.5 0 0 1 .207-.405.498.498 0 0 1-.05-.22V5.305Zm3.938 5.78h-3.594v.9h3.242l-.312.507c-.052.156-.287.235-.703.235h-2.188v.937h3.008c.55.025.897-.07 1.038-.286a.435.435 0 0 0 .017-.026l.312-.352.39.39c.157.261.443.378.86.352h3.203v-1.094h-2.578c-.25.021-.443-.033-.577-.164a.585.585 0 0 1-.087-.109l-.352-.39h3.555v-.9h-.586v-.233h-1.523v.234h-1.64l.155-.39h-1.523l-.117.39Zm4.18-.624c.185.022.342.017.468-.016a.601.601 0 0 0 .162-.067c.198-.12.274-.353.229-.698V5.305h-4.961l.117-.352h-1.719l-.156.352h-1.758v5.156h7.617Zm-.391-1.191a.539.539 0 0 0 0-.137v-.078H34.53v.39h5.703c.162.02.254-.038.274-.175ZM34.53 6.672v-.39h5.977v.39H34.53Zm0 1.406h5.977v-.39H34.53v.39Zm-.928 7.717a.5.5 0 0 1 .46-.303h1.484a.5.5 0 0 1 .488.39h5.996a.5.5 0 0 1 .5.5v1.055a.498.498 0 0 1-.121.327.503.503 0 0 1 .004.064v1.055a.5.5 0 0 1-.273.446v4.147a.5.5 0 0 1 .273.446v1.055a.5.5 0 0 1-.5.5h-.708c-.43.055-.868-.032-1.165-.396a.498.498 0 0 1-.275.083H37.86a.5.5 0 0 1-.477.352h-1.524a.5.5 0 0 1-.477-.352h-2.296a.5.5 0 0 1-.5-.5v-.86c0-.087.022-.169.062-.24a.5.5 0 0 1-.023-.15V22.36c0-.077.017-.15.048-.215a.498.498 0 0 1-.048-.214v-.977c0-.127.048-.244.126-.332a.498.498 0 0 1-.126-.332v-1.055a.5.5 0 0 1 .195-.396v-.73a.5.5 0 0 1-.195-.397v-1.133a.5.5 0 0 1 .5-.5h.195a.884.884 0 0 0 .155-.011l.013-.003.115-.269Zm-.478 1.916h.742c.39 0 .677-.091.86-.273h7.304v-1.055h-6.64l.156-.39h-1.484l-.118.273c-.052.208-.26.312-.625.312h-.195v1.133Zm.195.117v1.055h8.594v-1.055H33.32Zm-.195 2.461h7.11v3.438a2.117 2.117 0 0 0 .031.687c.106.449.408.636.906.563h.742v-1.055h-.078a.258.258 0 0 1-.1 0c-.083-.02-.115-.098-.095-.235v-4.453h-8.516v1.055Zm6.64 3.516h-2.382v-.39h2.422v-1.056h-2.422v-.43h2.46v-.937h-.624v-.469h-1.485l-.195.43h-1.836l-.156-.43h-1.68v.43h-.742v.977h2.734v.43h-2.734v1.054h2.734v.39h-2.773v.86h2.773v.352h1.524v-.352h2.383v-.86Z" fill="#505050"/><path fill="#FFFD54" d="M17 29h29v9H17z"/><path d="M24.576 35.54c-1.133-.027-1.712-.639-1.738-1.837.039-1.237.618-1.868 1.738-1.894 1.107.026 1.68.657 1.719 1.894-.04 1.198-.612 1.81-1.719 1.836Zm0-3.165c-.612 0-.918.443-.918 1.328 0 .872.306 1.309.918 1.309.6 0 .899-.437.899-1.309 0-.885-.3-1.328-.899-1.328ZM26.646 35.5v-.605l1.797-2.403h-1.68v-.605h2.618v.605l-1.777 2.403h1.816v.605h-2.774ZM31.51 35.54c-1.133-.027-1.713-.639-1.739-1.837.04-1.237.619-1.868 1.739-1.894 1.107.026 1.68.657 1.718 1.894-.038 1.198-.611 1.81-1.718 1.836Zm0-3.165c-.612 0-.918.443-.918 1.328 0 .872.306 1.309.918 1.309.599 0 .898-.437.898-1.309 0-.885-.3-1.328-.898-1.328ZM37.037 35.5h-1.113l-1.406-3.008-.02.02V35.5h-.723v-3.613h1.153l1.367 2.851.02-.02v-2.831h.722V35.5ZM37.623 35.5v-3.613h2.422v.605h-1.64v.84h1.523v.605h-1.524v.958h1.7v.605h-2.481Z" fill="#fff"/><path fill-rule="evenodd" clip-rule="evenodd" d="M24.588 36.039h-.023c-.653-.015-1.227-.202-1.636-.635-.405-.428-.576-1.019-.591-1.69v-.027c.022-.686.195-1.287.595-1.723.408-.444.98-.64 1.631-.655h.024c.647.015 1.214.212 1.618.657.02.021.04.044.058.066v-.145a.5.5 0 0 1 .5-.5h2.617a.5.5 0 0 1 .5.5v.062c.406-.434.972-.625 1.617-.64h.023c.648.015 1.215.212 1.619.657.048.053.093.11.135.167v-.246a.5.5 0 0 1 .5-.5h1.153a.5.5 0 0 1 .45.284l.437.909v-.693a.5.5 0 0 1 .5-.5h.722c.11 0 .21.035.293.095a.498.498 0 0 1 .293-.095h2.422a.5.5 0 0 1 .5.5v.605a.5.5 0 0 1-.296.457c.11.092.179.23.179.383v.605a.5.5 0 0 1-.299.458.5.5 0 0 1 .474.5v.605a.5.5 0 0 1-.5.5h-2.48a.498.498 0 0 1-.293-.095.498.498 0 0 1-.293.095h-1.113a.5.5 0 0 1-.453-.288l-.473-1.012v.8a.5.5 0 0 1-.5.5h-.723a.5.5 0 0 1-.5-.5v-.267c-.043.059-.09.115-.14.17-.405.432-.97.62-1.613.636h-.024c-.622-.014-1.173-.185-1.578-.577v.038a.5.5 0 0 1-.5.5h-2.774a.5.5 0 0 1-.5-.5v-.042c-.4.393-.944.567-1.558.58Zm2.199-2.167.658-.88h-.681c-.018 0-.036 0-.053-.003a3.734 3.734 0 0 1 .084.73 4.21 4.21 0 0 1-.008.153Zm1.656-1.38-1.797 2.403v.605h2.774v-.605h-1.817l1.778-2.403v-.605h-2.617v.605h1.68Zm.152 1.903h.755a3.457 3.457 0 0 1-.078-.708 4.3 4.3 0 0 1 .013-.224l-.69.931Zm5.903-1.883.02-.02 1.406 3.008h1.113v-3.613h-.722v2.832l-.02.02-1.367-2.852h-1.153V35.5h.723v-2.988Zm3.906 2.383v-.958h1.524v-.605h-1.524v-.84h1.64v-.605h-2.421V35.5h2.48v-.605h-1.699Zm-13.828-3.086c-1.12.026-1.699.657-1.738 1.894.026 1.198.605 1.81 1.738 1.836 1.107-.026 1.68-.638 1.719-1.836-.04-1.237-.612-1.868-1.719-1.894ZM24.3 32.99c-.069.1-.14.312-.14.712 0 .393.07.599.138.694.044.064.108.115.28.115.16 0 .218-.048.26-.11.067-.097.138-.304.138-.699 0-.402-.071-.615-.14-.716-.044-.065-.102-.112-.259-.112-.168 0-.231.05-.277.116Zm8.93.712c-.04-1.237-.612-1.868-1.72-1.894-1.119.026-1.698.657-1.738 1.894.026 1.198.606 1.81 1.739 1.836 1.107-.026 1.68-.638 1.718-1.836Zm-1.996-.712c-.07.1-.141.312-.141.712 0 .393.072.599.139.694.044.064.108.115.279.115.16 0 .218-.048.261-.11.067-.097.137-.304.137-.699 0-.402-.07-.615-.139-.716-.044-.065-.102-.112-.26-.112-.167 0-.23.05-.276.116Zm-7.575.712c0-.885.306-1.328.918-1.328.6 0 .899.443.899 1.328 0 .872-.3 1.309-.899 1.309-.612 0-.918-.437-.918-1.309Zm6.934 0c0-.885.306-1.328.918-1.328.599 0 .898.443.898 1.328 0 .872-.3 1.309-.898 1.309-.612 0-.918-.437-.918-1.309Z" fill="#505050"/><defs><clipPath id="a"><path fill="#fff" d="M0 0h48v40H0z"/></clipPath></defs></svg>