<svg width="48" height="40" fill="none" xmlns="http://www.w3.org/2000/svg"><g clip-path="url(#a)"><path fill-rule="evenodd" clip-rule="evenodd" d="M0 38a2 2 0 0 0 2 2h44a2 2 0 0 0 2-2V2A2 2 0 0 0 46.15.005L46 0H2l-.15.005A2 2 0 0 0 0 2v36ZM27 2H2v25h25V2ZM2 29v9h13v-9H2Zm15 9h29v-9H17v9Zm29-11V2H29v25h17Z" fill="#505050"/></g><path fill="#3A6AF6" d="M2 29h13v9H2z"/><path fill-rule="evenodd" clip-rule="evenodd" d="M11.563 31.516v-.793h-.63l.11-.328H9.84l-.11.328H7.215l-.137-.328H5.875l.11.328h-.63v.793h6.207ZM9.183 32.8c.128.018.228-.046.301-.192l.082-.164h1.996v-.683H9.758l.027-.082h-.93l-.136.273c-.055.128-.146.182-.274.164h-.41v.684h1.149Zm-2.761-1.012v2.023h-.93V31.79h.93Zm1.367 2.023V31.79h-.848v2.023h.848Zm3.774 0H9.02c-.347.019-.547-.063-.602-.246l-.355-.656h1.093l.082.11c.019.109.1.154.246.136h2.079v.657Zm0 2.817v-.738h-.247v-1.832H5.52v1.832h-.192v.738h6.234Zm-5.141-.738h.793v-1.04h-.793v1.04Zm1.613 0v-1.04h.766v1.04h-.766Zm1.64 0h.794v-1.04h-.793v1.04Z" fill="#fff" stroke="#505050"/><path fill-rule="evenodd" clip-rule="evenodd" d="M11.563 31.516v-.793h-.63l.11-.328H9.84l-.11.328H7.215l-.137-.328H5.875l.11.328h-.63v.793h6.207ZM9.183 32.8c.128.018.228-.046.301-.192l.082-.164h1.996v-.683H9.758l.027-.082h-.93l-.136.273c-.055.128-.146.182-.274.164h-.41v.684h1.149Zm-2.761-1.012v2.023h-.93V31.79h.93Zm1.367 2.023V31.79h-.848v2.023h.848Zm3.774 0H9.02c-.347.019-.547-.063-.602-.246l-.355-.656h1.093l.082.11c.019.109.1.154.246.136h2.079v.657Zm0 2.817v-.738h-.247v-1.832H5.52v1.832h-.192v.738h6.234Zm-5.141-.738h.793v-1.04h-.793v1.04Zm1.613 0v-1.04h.766v1.04h-.766Zm1.64 0h.794v-1.04h-.793v1.04Z" fill="#fff"/><path fill="#CCC" d="M2 2h25v25H2z"/><path fill-rule="evenodd" clip-rule="evenodd" d="M21.7 10.24c.002.248-.03.495-.094.734l-1.284 4.791a.667.667 0 0 1-.816.471l-.644-.172a.667.667 0 0 1-.471-.816l.172-.644-7.727-2.071-.173.644a.667.667 0 0 1-.816.471l-.644-.172a.667.667 0 0 1-.472-.817l1.284-4.79c.064-.242.161-.474.288-.69l1.79-2.97a1.333 1.333 0 0 1 1.474-.607L20.65 5.5c.576.156.978.675.985 1.272l.064 3.468Zm-8.422-5.507a.167.167 0 0 0-.186.074l-1.45 2.42 8.875 2.378-.032-2.817a.167.167 0 0 0-.124-.157l-7.083-1.898Zm-.464 5.57a.667.667 0 0 1-.817.47l-.644-.172a.667.667 0 0 1-.471-.816l.173-.644a.667.667 0 0 1 .816-.472l.644.173c.355.095.567.46.471.816l-.172.644Zm6.267 2.369a.667.667 0 0 0 .816-.472l.173-.644a.667.667 0 0 0-.472-.816l-.644-.173a.667.667 0 0 0-.816.472l-.173.644a.667.667 0 0 0 .472.816l.644.173Z" fill="#505050"/><path fill-rule="evenodd" clip-rule="evenodd" d="m13.07 16.916-4.704-2.894 2.198 2.471-5.52 2.477 7.33 6.144 2.717-1.774-7.244-3.96 5.222-2.464Zm7.455.78-4.212-2.018 1.583 1.941-4.377 3.162 7.694 5.102 2.633-2.082-7.363-3.452 4.042-2.654Z" fill="#3A6AF6"/><path fill="#3A6AF6" d="M29 2h17v25H29z"/><path fill-rule="evenodd" clip-rule="evenodd" d="M32.168 8.406V7.367h-1.012v1.04h1.012Zm4.02 4.156c.528.019.792-.246.792-.792V8.707h-1.804v-.328h1.886V7.64h-.273v-.22h-1.066l-.11.22h-1.586l-.109-.22h-1.04v.22h-.573v.738h1.777v.328h-1.668v3.855h3.773Zm-4.294.82c-.145.183-.428.274-.847.274h-.11v-.793c.146 0 .228-.063.247-.191V9.5h-.274v-.793h1.23v3.61c0 .328.128.5.383.519h4.54v.738H32.44c-.255 0-.437-.064-.547-.191Zm4.102-3.609h-2.57v-.328h2.57v.328Zm-2.57 1.012h2.57v-.3h-2.57v.3Zm2.297 1.04h-2.297v-.302h2.515v.11c0 .121-.05.186-.152.194a.334.334 0 0 1-.066-.003Zm8.203-1.122h-.711c-.255.018-.447-.036-.574-.164l-.246-.191-.301.218a.44.44 0 0 1-.383.137h-1.04v-.765h.63a.485.485 0 0 0 .218-.055l.165-.137-.711-.656h1.312l.63-.656h-.849l-.164.191c-.073.091-.191.128-.355.11h-.656v-.766h.3c.128.018.21-.01.246-.082l.274-.438h.93l-.192.274h1.64v.71l-1.066 1.231.22.191a.447.447 0 0 0 .245.055h.438v.793Zm-3.2 2.899v-.82h-.656v-1.095h.63v-.738h-.63v-.82h.208c.28-.02.421-.202.421-.547V7.559h-2.597v2.57h1.039v2.625h-.192v-2.242h-.875v2.242h-.136v.848h2.789Zm-1.695-4.266h.602c.091 0 .146-.055.164-.164v-.875h-.766v1.039Zm4.375 4.238c.438 0 .657-.191.657-.574v-2.05H40.89v2.624h2.515Zm-1.586-.765h1.203c.019.003.035.004.05.003.077-.005.114-.061.114-.167v-.903H41.82v1.067Zm-4.73 6.566v-.902h-1.258v-.93h1.258v-.902h-1.258v-.301h-1.039v.3h-1.285v.903h1.285v.93H33.48v.902h3.61Zm-3.938.875v.902h-2.27v-.52l.821-1.476h-.82v-1.093l.93-1.668h1.039l-1.149 1.996h.3l.329-.657h1.04L32.14 20.25h1.011Zm3.473 2.297c.292.018.438-.155.438-.52V19.73H33.48v2.817h3.145Zm-2.133-.766h1.45c.109.018.163-.045.163-.191v-1.012h-1.613v1.203Zm-1.312.766v-.82h-2.325v.82h2.325Zm9.297-.82c-.037.51-.292.774-.766.793h-.656v-.711h.355c.11.018.164-.046.164-.192v-5.25h.903v5.36Zm-2.57-2.762v-.793h-.274c-.183.036-.283-.082-.301-.356l-.3-1.34H38.02l.355 1.669c.091.546.319.82.684.82h.847Zm4.238 2.707v.738h-.575c-.383-.036-.592-.337-.629-.902l-.246-3.254h-.164v-.766h.164l.41-.847h.958l-.575 1.203.274 3.39c0 .328.073.474.218.438h.165Zm-3.993.765c.492-.018.775-.282.848-.793l.465-4.511h-1.668v.765h.766l-.383 3.473c-.037.2-.11.3-.22.3h-.355v.767h.547Zm-.656-.902c-.091.693-.383 1.021-.875.985h-.629v-.766h.246c.146.018.246-.128.301-.438l.273-1.695h1.04l-.356 1.914Z" fill="#fff" stroke="#505050"/><path fill-rule="evenodd" clip-rule="evenodd" d="M32.168 8.406V7.367h-1.012v1.04h1.012Zm4.02 4.156c.528.019.792-.246.792-.792V8.707h-1.804v-.328h1.886V7.64h-.273v-.22h-1.066l-.11.22h-1.586l-.109-.22h-1.04v.22h-.573v.738h1.777v.328h-1.668v3.855h3.773Zm-4.294.82c-.145.183-.428.274-.847.274h-.11v-.793c.146 0 .228-.063.247-.191V9.5h-.274v-.793h1.23v3.61c0 .328.128.5.383.519h4.54v.738H32.44c-.255 0-.437-.064-.547-.191Zm4.102-3.609h-2.57v-.328h2.57v.328Zm-2.57 1.012h2.57v-.3h-2.57v.3Zm2.297 1.04h-2.297v-.302h2.515v.11c0 .121-.05.186-.152.194a.334.334 0 0 1-.066-.003Zm8.203-1.122h-.711c-.255.018-.447-.036-.574-.164l-.246-.191-.301.218a.44.44 0 0 1-.383.137h-1.04v-.765h.63a.485.485 0 0 0 .218-.055l.165-.137-.711-.656h1.312l.63-.656h-.849l-.164.191c-.073.091-.191.128-.355.11h-.656v-.766h.3c.128.018.21-.01.246-.082l.274-.438h.93l-.192.274h1.64v.71l-1.066 1.231.22.191a.447.447 0 0 0 .245.055h.438v.793Zm-3.2 2.899v-.82h-.656v-1.095h.63v-.738h-.63v-.82h.208c.28-.02.421-.202.421-.547V7.559h-2.597v2.57h1.039v2.625h-.192v-2.242h-.875v2.242h-.136v.848h2.789Zm-1.695-4.266h.602c.091 0 .146-.055.164-.164v-.875h-.766v1.039Zm4.375 4.238c.438 0 .657-.191.657-.574v-2.05H40.89v2.624h2.515Zm-1.586-.765h1.203c.019.003.035.004.05.003.077-.005.114-.061.114-.167v-.903H41.82v1.067Zm-4.73 6.566v-.902h-1.258v-.93h1.258v-.902h-1.258v-.301h-1.039v.3h-1.285v.903h1.285v.93H33.48v.902h3.61Zm-3.938.875v.902h-2.27v-.52l.821-1.476h-.82v-1.093l.93-1.668h1.039l-1.149 1.996h.3l.329-.657h1.04L32.14 20.25h1.011Zm3.473 2.297c.292.018.438-.155.438-.52V19.73H33.48v2.817h3.145Zm-2.133-.766h1.45c.109.018.163-.045.163-.191v-1.012h-1.613v1.203Zm-1.312.766v-.82h-2.325v.82h2.325Zm9.297-.82c-.037.51-.292.774-.766.793h-.656v-.711h.355c.11.018.164-.046.164-.192v-5.25h.903v5.36Zm-2.57-2.762v-.793h-.274c-.183.036-.283-.082-.301-.356l-.3-1.34H38.02l.355 1.669c.091.546.319.82.684.82h.847Zm4.238 2.707v.738h-.575c-.383-.036-.592-.337-.629-.902l-.246-3.254h-.164v-.766h.164l.41-.847h.958l-.575 1.203.274 3.39c0 .328.073.474.218.438h.165Zm-3.993.765c.492-.018.775-.282.848-.793l.465-4.511h-1.668v.765h.766l-.383 3.473c-.037.2-.11.3-.22.3h-.355v.767h.547Zm-.656-.902c-.091.693-.383 1.021-.875.985h-.629v-.766h.246c.146.018.246-.128.301-.438l.273-1.695h1.04l-.356 1.914Z" fill="#fff"/><path fill="#3A6AF6" d="M17 29h29v9H17z"/><path fill-rule="evenodd" clip-rule="evenodd" d="M24.608 33.419c-.035 1.054-.539 1.593-1.513 1.615-.996-.023-1.506-.561-1.53-1.615.024-1.077.534-1.633 1.53-1.667.974.034 1.479.59 1.513 1.667ZM19.4 35v-1.272h.722c.16 0 .258.138.292.413.011.298.052.584.12.859h.74c-.092-.115-.15-.367-.172-.756a.324.324 0 0 1-.018-.103c-.068-.436-.257-.67-.567-.705v-.017c.424-.103.642-.361.653-.774-.011-.527-.378-.802-1.1-.825h-1.358V35h.688Zm.567-1.805H19.4v-.842h.567c.31 0 .47.132.482.395-.012.298-.172.447-.482.447Zm3.128 1.375c-.55.012-.819-.372-.807-1.151-.012-.78.257-1.169.807-1.169.527 0 .791.39.791 1.169 0 .768-.264 1.151-.79 1.151Zm2.647-.24-.24.67h-.653L26 31.82h.808L27.925 35h-.688l-.24-.67h-1.255Zm1.083-.533h-.91l.463-1.358h.017l.43 1.358Zm4.108-.378C30.92 34.473 30.389 35 29.334 35h-1.082v-3.18h1.082c1.055.012 1.587.545 1.599 1.599Zm-1.65 1.048h-.361v-2.114h.36c.631-.011.94.344.929 1.066.011.722-.298 1.071-.928 1.048Zm4.022-2.647V35h-.688v-3.18h.688Zm1.736 3.214c.848-.011 1.294-.366 1.34-1.065h-.722c-.023.39-.229.59-.618.601-.378-.011-.579-.395-.602-1.151.023-.756.224-1.146.602-1.169.39.023.596.224.618.602h.722c-.046-.71-.492-1.077-1.34-1.1-.86.034-1.3.59-1.324 1.667.023 1.054.464 1.593 1.324 1.615Zm2.406-3.214V35h-.688v-3.18h.688ZM38.633 35v-2.63l.017-.017L39.888 35h.98v-3.18h-.637v2.492l-.017.018-1.203-2.51h-1.014V35h.636Zm4.881 0a6.066 6.066 0 0 1-.722.034c-.974-.045-1.472-.584-1.495-1.615.023-1.031.521-1.587 1.495-1.667.986 0 1.478.343 1.478 1.03h-.722c0-.354-.212-.532-.636-.532-.595.023-.893.413-.893 1.169s.298 1.14.894 1.151c.171 0 .372-.017.601-.051.011 0 .023-.006.034-.017v-.67h-.618v-.534h1.289v1.599c-.23.069-.464.103-.705.103Z" fill="#fff" stroke="#505050"/><path fill-rule="evenodd" clip-rule="evenodd" d="M24.608 33.419c-.035 1.054-.539 1.593-1.513 1.615-.996-.023-1.506-.561-1.53-1.615.024-1.077.534-1.633 1.53-1.667.974.034 1.479.59 1.513 1.667ZM19.4 35v-1.272h.722c.16 0 .258.138.292.413.011.298.052.584.12.859h.74c-.092-.115-.15-.367-.172-.756a.324.324 0 0 1-.018-.103c-.068-.436-.257-.67-.567-.705v-.017c.424-.103.642-.361.653-.774-.011-.527-.378-.802-1.1-.825h-1.358V35h.688Zm.567-1.805H19.4v-.842h.567c.31 0 .47.132.482.395-.012.298-.172.447-.482.447Zm3.128 1.375c-.55.012-.819-.372-.807-1.151-.012-.78.257-1.169.807-1.169.527 0 .791.39.791 1.169 0 .768-.264 1.151-.79 1.151Zm2.647-.24-.24.67h-.653L26 31.82h.808L27.925 35h-.688l-.24-.67h-1.255Zm1.083-.533h-.91l.463-1.358h.017l.43 1.358Zm4.108-.378C30.92 34.473 30.389 35 29.334 35h-1.082v-3.18h1.082c1.055.012 1.587.545 1.599 1.599Zm-1.65 1.048h-.361v-2.114h.36c.631-.011.94.344.929 1.066.011.722-.298 1.071-.928 1.048Zm4.022-2.647V35h-.688v-3.18h.688Zm1.736 3.214c.848-.011 1.294-.366 1.34-1.065h-.722c-.023.39-.229.59-.618.601-.378-.011-.579-.395-.602-1.151.023-.756.224-1.146.602-1.169.39.023.596.224.618.602h.722c-.046-.71-.492-1.077-1.34-1.1-.86.034-1.3.59-1.324 1.667.023 1.054.464 1.593 1.324 1.615Zm2.406-3.214V35h-.688v-3.18h.688ZM38.633 35v-2.63l.017-.017L39.888 35h.98v-3.18h-.637v2.492l-.017.018-1.203-2.51h-1.014V35h.636Zm4.881 0a6.066 6.066 0 0 1-.722.034c-.974-.045-1.472-.584-1.495-1.615.023-1.031.521-1.587 1.495-1.667.986 0 1.478.343 1.478 1.03h-.722c0-.354-.212-.532-.636-.532-.595.023-.893.413-.893 1.169s.298 1.14.894 1.151c.171 0 .372-.017.601-.051.011 0 .023-.006.034-.017v-.67h-.618v-.534h1.289v1.599c-.23.069-.464.103-.705.103Z" fill="#fff"/><defs><clipPath id="a"><path fill="#fff" d="M0 0h48v40H0z"/></clipPath></defs></svg>