<svg width="48" height="40" fill="none" xmlns="http://www.w3.org/2000/svg"><g clip-path="url(#a)"><path fill-rule="evenodd" clip-rule="evenodd" d="M0 38a2 2 0 0 0 2 2h44a2 2 0 0 0 2-2V2A2 2 0 0 0 46.15.005L46 0H2l-.15.005A2 2 0 0 0 0 2v36ZM27 2H2v25h25V2ZM2 29v9h13v-9H2Zm15 9h29v-9H17v9Zm29-11V2H29v25h17Z" fill="#505050"/></g><path fill="#FFFD54" d="M2 29h13v9H2z"/><path fill-rule="evenodd" clip-rule="evenodd" d="M7.625 36.273a.959.959 0 0 1-.663.329H5.547v-.711h1.121c.11 0 .219-.055.328-.164l.137-.164H5.629v-2.817h2.434v-.328H5.52v-.766h.683v-.328H5.52v-.738h.683v-.273h.957v.273h2.762v-.3h.93v.3h.765v.738h-.765v.328h.793v.766H9.047v.328h2.488v1.914c.091.693-.255.994-1.039.903h-.328l.11.136c0 .018.008.037.027.055.127.091.228.128.3.11h1.04v.683h-1.56c-.29-.037-.482-.11-.573-.219l-.63-.766h-.519l-.738.711Zm-.465-4.62h2.735v-.329H7.16v.328Zm.875 2.132h-1.45v-.3h1.45v.3Zm1.012 0h1.558v-.3H9.047v.3Zm1.504 1.067H9.074v-.329h1.559v.22c0 .072-.027.109-.082.109Zm-3.965 0h1.45v-.329h-1.45v.329Z" fill="#fff" stroke="#505050"/><path fill-rule="evenodd" clip-rule="evenodd" d="M7.545 36.273a.959.959 0 0 1-.663.329H5.467v-.711h1.121c.11 0 .22-.055.329-.164l.136-.164H5.55v-2.817h2.434v-.328H5.44v-.766h.684v-.328H5.44v-.738h.684v-.273h.957v.273h2.761v-.3h.93v.3h.766v.738h-.766v.328h.793v.766H8.967v.328h2.489v1.914c.09.693-.256.994-1.04.903h-.328l.11.136c0 .018.009.037.027.055.128.091.228.128.3.11h1.04v.683h-1.559c-.291-.037-.483-.11-.574-.219l-.629-.766h-.52l-.738.711Zm-.464-4.62h2.734v-.329H7.08v.328Zm.875 2.132h-1.45v-.3h1.45v.3Zm1.011 0h1.559v-.3H8.967v.3Zm1.504 1.067H8.995v-.329h1.558v.22c0 .072-.027.109-.082.109Zm-3.965 0h1.45v-.329h-1.45v.329Z" fill="#fff"/><path fill="#CCC" d="M2 2h25v25H2z"/><path fill-rule="evenodd" clip-rule="evenodd" d="M9 17.277 13.856 4l1.34.509L22 7.019v1.27l-8.899 1.9-2.792 7.576L9 17.277Zm5.704-11.389-.95 2.64 5.28-1.056-4.33-1.584Zm6.643 14.47a3.44 3.44 0 0 1-1.49-.605A4.184 4.184 0 0 0 17.795 19a4.76 4.76 0 0 0-1.965.57c-.408.221-.864.361-1.337.412-.474-.05-.93-.19-1.338-.411A4.76 4.76 0 0 0 11.192 19c-.755.068-1.47.33-2.061.753a3.44 3.44 0 0 1-1.491.605c-.17 0-.333.06-.453.168a.541.541 0 0 0-.187.403c0 .152.067.297.187.404.12.107.283.167.453.167a4.511 4.511 0 0 0 2.189-.788 3.274 3.274 0 0 1 1.363-.57c.49.052.96.198 1.382.428a4.632 4.632 0 0 0 1.92.53 4.632 4.632 0 0 0 1.92-.53c.424-.232.9-.378 1.394-.428.5.087.969.283 1.364.57.63.443 1.39.716 2.188.788.17 0 .333-.06.453-.167a.542.542 0 0 0 .187-.404.541.541 0 0 0-.187-.403.681.681 0 0 0-.453-.168h-.013Zm0 2.5a3.44 3.44 0 0 1-1.49-.605 4.184 4.184 0 0 0-2.061-.753 4.76 4.76 0 0 0-1.965.57c-.408.221-.864.361-1.337.412-.474-.05-.93-.19-1.338-.411a4.76 4.76 0 0 0-1.964-.571c-.755.068-1.47.33-2.061.753a3.44 3.44 0 0 1-1.491.605c-.17 0-.333.06-.453.168a.541.541 0 0 0-.187.403c0 .152.067.297.187.404.12.107.283.167.453.167a4.511 4.511 0 0 0 2.189-.788 3.274 3.274 0 0 1 1.363-.57c.49.052.96.198 1.382.428a4.632 4.632 0 0 0 1.92.53 4.632 4.632 0 0 0 1.92-.53c.424-.232.9-.378 1.394-.428.5.087.969.283 1.364.57.63.443 1.39.716 2.188.788.17 0 .333-.06.453-.167a.542.542 0 0 0 .187-.404.541.541 0 0 0-.187-.403.681.681 0 0 0-.453-.168h-.013Z" fill="#FFFD54"/><path fill="#FFFD54" d="M29 2h17v25H29z"/><path d="M32.715 6.914h.164c.237.018.42-.082.547-.3l.11-.247h1.175l-.11.274h2.516v.793H34c-.255.273-.501.4-.738.382h-.547v-.902Zm-.028 2.625v.191h.22V7.871h4.1v1.86h.165v.82h-.164v1.367c.036.492-.173.72-.63.684h-3.472v-2.024h-.246v-.273h-.656c-.438.018-.693-.128-.766-.438l-.328-1.394h1.04l.218.765c.055.219.146.32.273.301h.246Zm3.336-.957h-2.16v1.176h.793l-.465-.793.028-.055h1.066l.52.848h.218V8.582Zm0 3.09v-1.094h-2.16v1.34h.848l-.547-1.012v-.054h1.066l.602 1.011c.128-.018.191-.082.191-.191Zm-3.39-3.445h-.684c-.437 0-.693-.22-.765-.657l-.22-1.148h1.067l.164.793c.037.146.128.219.274.219h.164v.793Zm-.301 3.91c-.055.346-.273.51-.656.492h-.766v-.711h.3c.165 0 .256-.082.274-.246l.192-1.067h.984l-.328 1.532ZM39.77 11.754V6.34h1.039v1.394h3.39v.875h-3.39v3.145h3.39v.82h-6.261v-.82h1.831ZM30.883 16.406h2.515v-1.039h1.176v1.04h2.543v.847h-2.406l1.723 3.2c.073.2.218.29.437.273h.246v.847h-.492c-.492.018-.82-.146-.984-.492L34 18.074l-1.586 3.008c-.091.365-.474.52-1.148.465h-.383v-.793h.273a.43.43 0 0 0 .465-.274l1.668-3.226h-2.406v-.848ZM37.965 20.836c.164.018.237-.055.219-.219v-5.25h5.879v5.305c0 .127.063.2.19.219v.683h-.82a.37.37 0 0 1-.355-.219h-1.066c-.219.019-.356-.054-.41-.218l-.493-.903-.437.766c-.091.255-.264.374-.52.355h-.984c-.036.183-.155.256-.355.22h-.848v-.74Zm5.031-.219v-4.402h-3.773v4.402h.41c.127 0 .2-.036.219-.11l.71-1.257-1.312-2.543h1.094l.793 1.531.793-1.531h1.011l-1.285 2.516.657 1.175c.054.146.136.22.246.22h.437Z" fill="#fff"/><path fill-rule="evenodd" clip-rule="evenodd" d="M32.546 6.443a.499.499 0 0 1 .169-.029h.164c.013 0 .026 0 .038.002a.127.127 0 0 0 .036-.002.13.13 0 0 0 .03-.034l.095-.216a.5.5 0 0 1 .457-.297h1.176a.5.5 0 0 1 .446.274h1.96a.5.5 0 0 1 .5.5v.793c0 .125-.046.239-.121.326a.498.498 0 0 1 .012.111v1.49c.1.09.164.223.164.37v.82a.499.499 0 0 1-.164.37v.577a.5.5 0 0 1 .43-.244h1.331V6.34a.5.5 0 0 1 .5-.5h1.04a.5.5 0 0 1 .5.5v.894h2.89a.5.5 0 0 1 .5.5v.875a.5.5 0 0 1-.5.5h-2.89v2.145h2.89a.5.5 0 0 1 .5.5v.82a.5.5 0 0 1-.5.5h-6.261a.5.5 0 0 1-.5-.5v-.094a.943.943 0 0 1-.192.316c-.245.267-.585.326-.885.306h-3.455a.5.5 0 0 1-.42-.23.987.987 0 0 1-.059.047c-.23.173-.504.22-.762.21h-.755a.5.5 0 0 1-.5-.5v-.711a.5.5 0 0 1 .5-.5h.112l.147-.817a1.01 1.01 0 0 1-.417-.62l-.329-1.394a.5.5 0 0 1 .36-.598 1.587 1.587 0 0 1-.092-.33l-.217-1.144a.5.5 0 0 1 .49-.593h1.067a.5.5 0 0 1 .49.399l.025.122Zm-.35.772-.165-.793h-1.066l.219 1.148c.027.166.08.3.16.403.131.169.333.254.605.254h.684v-.793h-.164c-.125 0-.21-.054-.254-.16a.424.424 0 0 1-.02-.06Zm.519.601h.547c.237.019.483-.109.738-.382h3.117V6.64h-2.515l.109-.274h-1.176l-.11.246c-.107.185-.254.286-.44.301a.661.661 0 0 1-.106 0h-.164v.902Zm.191.055v1.86h-.218v-.192h-.247a.2.2 0 0 1-.056 0c-.098-.015-.17-.116-.217-.3l-.219-.766H30.91l.328 1.394c.031.13.094.232.19.304.066.051.15.088.248.11.095.02.204.029.328.024h.656v.273h.246v2.024h3.473c.456.036.665-.192.629-.684v-1.367h.164v-.82h-.164V7.87h-4.102Zm2.899 1.887h.218V8.582h-2.16v1.176h.793l-.465-.793.028-.055h1.066l.52.848Zm.027 2.105c.088-.012.146-.047.173-.103a.2.2 0 0 0 .018-.088v-1.094h-2.16v1.34h.848l-.547-1.012v-.054h1.066l.602 1.011Zm-3.172-1.258h-.984l-.192 1.067c-.018.164-.109.246-.273.246h-.3v.71h.765c.383.02.601-.145.656-.491l.328-1.532Zm8.149 1.149V8.609h3.39v-.875h-3.39V6.34h-1.04v5.414h-1.831v.82h6.261v-.82h-3.39Zm-10.426 4.652a.5.5 0 0 1 .5-.5h2.015v-.539a.5.5 0 0 1 .5-.5h1.176a.5.5 0 0 1 .5.5v.54h2.043a.5.5 0 0 1 .5.5v.847a.5.5 0 0 1-.5.5h-1.569l1.326 2.462a.258.258 0 0 1 .005.01h.238a.5.5 0 0 1 .457.298.5.5 0 0 1 .11-.102v-5.055a.5.5 0 0 1 .5-.5h5.879a.5.5 0 0 1 .5.5v5.13a.5.5 0 0 1 .19.394v.683a.5.5 0 0 1-.5.5h-.82a.896.896 0 0 1-.594-.219h-.809a.961.961 0 0 1-.52-.1.791.791 0 0 1-.364-.41l-.043-.078a1.009 1.009 0 0 1-.347.426.984.984 0 0 1-.62.162h-.678a.706.706 0 0 1-.144.118.81.81 0 0 1-.54.101h-.81a.5.5 0 0 1-.423-.234.5.5 0 0 1-.424.234h-.483a1.75 1.75 0 0 1-.848-.162 1.292 1.292 0 0 1-.59-.602l-1.188-2.178-1.128 2.138a1.055 1.055 0 0 1-.634.665c-.29.118-.637.14-1 .112h-.363a.5.5 0 0 1-.5-.5v-.793a.5.5 0 0 1 .5-.5H31.176v-.003l1.292-2.497h-1.585a.5.5 0 0 1-.5-.5v-.848Zm2.906.848-1.668 3.226c-.076.168-.196.259-.36.274a.603.603 0 0 1-.105 0h-.273v.793h.383c.674.055 1.057-.1 1.148-.465L34 18.074l1.64 3.008c.165.346.493.51.985.492h.492v-.847h-.246a.593.593 0 0 1-.103 0c-.162-.016-.274-.107-.334-.274l-1.723-3.2h2.406v-.847h-2.543v-1.039h-1.176v1.04h-2.515v.847h2.406Zm5.523 4.32c.201.037.32-.036.356-.219h.984c.256.019.429-.1.52-.355l.437-.766.493.903c.054.164.191.237.41.218h1.066a.37.37 0 0 0 .356.22h.82v-.684c-.128-.019-.191-.091-.191-.22v-5.304h-5.88v5.25c.015.131-.029.204-.13.219a.345.345 0 0 1-.088 0v.738h.847Zm3.5-1.176c.044.117.105.187.184.21.02.006.04.01.063.01h.437v-4.403h-3.773v4.402h.41a.473.473 0 0 0 .09-.008c.072-.014.115-.048.129-.101l.71-1.258-1.312-2.543h1.094l.793 1.531.793-1.531h1.011l-1.285 2.516.657 1.175Zm-.089-1.186.273.49v-1.024l-.273.534Zm-.86-2.497h-.452l.226.436.226-.436Zm-1.64 1.998v1.007l.271-.48-.271-.527Z" fill="#505050"/><path fill="#FFFD54" d="M17 29h29v9H17z"/><path d="M22.184 32.922h-.743c-.013-.365-.208-.547-.585-.547-.378.026-.573.182-.586.469 0 .234.188.397.566.488.039.013.072.02.098.02.013 0 .045.006.097.02.847.168 1.263.5 1.25.995-.013.755-.527 1.146-1.543 1.172-.937 0-1.4-.397-1.386-1.191h.78c0 .416.203.638.606.664.47-.013.71-.17.723-.469 0-.247-.228-.417-.684-.508a.613.613 0 0 1-.136-.039c-.795-.182-1.192-.514-1.192-.996.04-.742.54-1.14 1.504-1.191.781.039 1.192.41 1.23 1.113ZM22.79 35.5v-3.613h2.421v.605h-1.64v.84h1.523v.605H23.57v.958h1.7v.605h-2.48ZM26.344 35.5h-.742l1.308-3.613h.918l1.27 3.613h-.782l-.273-.762h-1.426l-.273.762Zm.468-1.367h1.036l-.489-1.543h-.02l-.526 1.543ZM33.277 34.172h-.703v-.606h1.465v1.817c-.26.078-.527.117-.8.117-.209.026-.482.04-.821.04-1.107-.066-1.673-.678-1.7-1.837.027-1.185.593-1.816 1.7-1.894 1.133 0 1.693.39 1.68 1.171h-.82c0-.403-.242-.605-.723-.605-.664.013-1.003.456-1.016 1.328.013.86.352 1.296 1.016 1.309.195 0 .423-.026.683-.078-.013.013 0 .013.04 0v-.762ZM35.211 35.5h-.742l1.308-3.613h.918l1.27 3.613h-.781l-.274-.762h-1.426l-.273.762Zm.469-1.367h1.035l-.488-1.543h-.02l-.527 1.543ZM40.68 35.5h-2.325v-3.613h.762v3.008h1.563v.605ZM41.07 35.5v-3.613h2.422v.605h-1.64v.84h1.523v.605h-1.523v.958h1.699v.605h-2.48Z" fill="#fff"/><path fill-rule="evenodd" clip-rule="evenodd" d="M22.281 34.367c.013-.495-.403-.827-1.25-.996a.589.589 0 0 0-.097-.02.319.319 0 0 1-.098-.019c-.378-.091-.566-.254-.566-.488.013-.287.208-.443.585-.469.378 0 .573.182.586.547h.743a1.368 1.368 0 0 0-.115-.5c-.175-.38-.547-.585-1.116-.613-.963.052-1.465.449-1.504 1.191 0 .372.237.655.711.848.08.033.167.063.26.09.07.021.144.04.22.058a.613.613 0 0 0 .137.04c.456.09.684.26.684.507-.013.3-.254.456-.723.469-.395-.026-.597-.24-.605-.64a.97.97 0 0 1 0-.024h-.781v.064c.002.163.026.308.071.436.163.46.601.691 1.315.691 1.016-.026 1.53-.417 1.543-1.172Zm-3.002-.514a1.244 1.244 0 0 1-.33-.88c.027-.488.213-.917.595-1.22.363-.287.847-.415 1.382-.444h.052c.46.023.884.147 1.204.436.039.035.075.072.108.11a.5.5 0 0 1 .5-.468h2.421a.5.5 0 0 1 .5.5v.605a.5.5 0 0 1-.296.457c.11.092.179.23.179.383v.605a.5.5 0 0 1-.299.458.497.497 0 0 1 .162.036l.983-2.714a.5.5 0 0 1 .47-.33h.918a.5.5 0 0 1 .472.334l1.27 3.613a.5.5 0 0 1-.472.666h-.782a.5.5 0 0 1-.47-.331l-.155-.43h-.722l-.155.43a.5.5 0 0 1-.47.331h-.742a.5.5 0 0 1-.166-.028.5.5 0 0 1-.166.028h-2.48a.5.5 0 0 1-.5-.46c-.032.03-.066.057-.102.085-.376.285-.88.4-1.437.414h-.013c-.526 0-1.016-.11-1.375-.419-.376-.323-.52-.783-.511-1.28a.5.5 0 0 1 .427-.487Zm5.99 1.647v-.605H23.57v-.958h1.524v-.605H23.57v-.84h1.641v-.605h-2.422V35.5h2.48Zm1.075 0 .273-.762h1.426l.273.762h.782l-1.27-3.613h-.918L25.602 35.5h.742Zm.468-1.367h1.036l-.489-1.543h-.02l-.526 1.543Zm6.465.039h-.703v-.606h1.465v1.817l-.06.017c-.242.067-.488.1-.74.1-.209.026-.482.04-.821.04-1.107-.066-1.673-.678-1.7-1.837.027-1.185.593-1.816 1.7-1.894.858 0 1.387.224 1.588.671a1.131 1.131 0 0 1 .092.5h-.82c0-.403-.242-.605-.723-.605-.664.013-1.003.456-1.016 1.328.013.86.352 1.296 1.016 1.309.058 0 .119-.003.182-.007.151-.011.318-.035.501-.071-.007.007-.006.01.002.01l.007-.002a.305.305 0 0 0 .03-.008v-.762Zm-1.203-.112v-.494a.5.5 0 0 1 .5-.5h.21a.506.506 0 0 1-.007-.086.276.276 0 0 0-.007-.073.502.502 0 0 0-.21-.032c-.21.005-.302.07-.36.145-.076.1-.154.302-.16.683.002.144.015.261.034.357Zm2.397-.746a.498.498 0 0 0 .127-.325c.008-.53-.187-.992-.624-1.297-.403-.282-.948-.383-1.556-.383h-.035c-.642.046-1.198.259-1.592.698-.39.434-.558 1.02-.572 1.685v.022c.015.654.184 1.232.577 1.657.397.428.954.63 1.593.667l.029.001c.334 0 .62-.012.852-.04.295-.002.585-.044.868-.124a.5.5 0 0 0 .33.125h.743a.5.5 0 0 0 .47-.331l.155-.43h.722l.155.43a.5.5 0 0 0 .47.331h.782a.498.498 0 0 0 .195-.04c.06.026.126.04.196.04h2.324c.069 0 .135-.014.195-.04.06.026.126.04.195.04h2.48a.5.5 0 0 0 .5-.5v-.605a.5.5 0 0 0-.473-.5.5.5 0 0 0 .298-.458v-.605a.499.499 0 0 0-.179-.383.5.5 0 0 0 .296-.457v-.605a.5.5 0 0 0-.5-.5H41.07a.5.5 0 0 0-.5.5v2.508h-.953v-2.508a.5.5 0 0 0-.5-.5h-.761a.5.5 0 0 0-.5.5v1.793l-.689-1.959a.5.5 0 0 0-.472-.334h-.918a.5.5 0 0 0-.47.33l-.768 2.12v-.27a.497.497 0 0 0-.069-.253Zm.74 2.186.273-.762h1.426l.274.762h.78l-1.269-3.613h-.918L34.47 35.5h.742Zm.469-1.367h1.035l-.488-1.543h-.02l-.527 1.543Zm2.675 1.367h2.325v-.605h-1.563v-3.008h-.761V35.5Zm2.715 0h2.48v-.605h-1.698v-.958h1.523v-.605h-1.523v-.84h1.64v-.605H41.07V35.5Z" fill="#505050"/><defs><clipPath id="a"><path fill="#fff" d="M0 0h48v40H0z"/></clipPath></defs></svg>