<svg width="48" height="40" fill="none" xmlns="http://www.w3.org/2000/svg"><g clip-path="url(#a)"><path fill-rule="evenodd" clip-rule="evenodd" d="M0 38a2 2 0 0 0 2 2h44a2 2 0 0 0 2-2V2A2 2 0 0 0 46.15.005L46 0H2l-.15.005A2 2 0 0 0 0 2v36ZM27 2H2v25h25V2ZM2 29v9h13v-9H2Zm15 9h29v-9H17v9Zm29-11V2H29v25h17Z" fill="#505050"/></g><path fill="#F29D38" d="M2 29h13v9H2z"/><path d="M7.352 36.574v-3.718h.164v-.794h-.164v-.246h.218v-.765h-.218v-.656h-.903v.656H5.33v.793h1.093v.218H5.52l-.11 3.5c0 .092-.036.128-.11.11v.656h.384c.346 0 .52-.182.52-.547l.109-2.925h.109v3.718h.93Zm1.175-3.527c.638.073.957-.237.957-.93l.11-1.668h-1.86v.684h.93l-.027.328h-.219c-.091.018-.128-.018-.11-.11h-.574v.247c0 .328.137.501.41.52h.438l-.027.081c-.019.128-.073.183-.164.164h-.63v.684h.766Zm2.98-.684v.657h-.984a1.141 1.141 0 0 1-.109.003c-.384-.005-.585-.225-.601-.66l-.137-1.914h1.86v.766h-.848l.054.273h.137c.091.018.137-.018.137-.11h.546l-.027.329c-.018.31-.155.438-.41.383h-.355l.027.11c-.018.127.045.181.191.163h.52Zm.028 1.504v-.656H7.652v.656h3.883Zm0 2.078v.547H7.543v-.547h.574l-.082-.3H7.68v-1.56h3.855v1.013c.018.4-.146.583-.492.547l-.055.3h.547Zm-1.039-.957a.133.133 0 0 0 .04.005c.046-.003.07-.041.07-.114v-.11H8.554v.22h1.941Zm-1.45.957h1.04v-.3h-1.04v.3Z" fill="#505050" stroke="#505050"/><path d="M7.352 36.574v-3.718h.164v-.794h-.164v-.246h.218v-.765h-.218v-.656h-.903v.656H5.33v.793h1.093v.218H5.52l-.11 3.5c0 .092-.036.128-.11.11v.656h.384c.346 0 .52-.182.52-.547l.109-2.925h.109v3.718h.93Zm1.175-3.527c.638.073.957-.237.957-.93l.11-1.668h-1.86v.684h.93l-.027.328h-.219c-.091.018-.128-.018-.11-.11h-.574v.247c0 .328.137.501.41.52h.438l-.027.081c-.019.128-.073.183-.164.164h-.63v.684h.766Zm2.98-.684v.657h-.984a1.141 1.141 0 0 1-.109.003c-.384-.005-.585-.225-.601-.66l-.137-1.914h1.86v.766h-.848l.054.273h.137c.091.018.137-.018.137-.11h.546l-.027.329c-.018.31-.155.438-.41.383h-.355l.027.11c-.018.127.045.181.191.163h.52Zm.028 1.504v-.656H7.652v.656h3.883Zm0 2.078v.547H7.543v-.547h.574l-.082-.3H7.68v-1.56h3.855v1.013c.018.4-.146.583-.492.547l-.055.3h.547Zm-1.039-.957a.133.133 0 0 0 .04.005c.046-.003.07-.041.07-.114v-.11H8.554v.22h1.941Zm-1.45.957h1.04v-.3h-1.04v.3Z" fill="#fff"/><path fill="#CCC" d="M2 2h25v25H2z"/><path fill-rule="evenodd" clip-rule="evenodd" d="M20.713 19.753c.46.313 1.007.52 1.59.605h.014c.181 0 .355.06.483.168.128.107.2.252.2.403a.528.528 0 0 1-.2.404.756.756 0 0 1-.483.167 5.018 5.018 0 0 1-2.334-.788 3.62 3.62 0 0 0-1.454-.57 4.153 4.153 0 0 0-1.488.428 5.197 5.197 0 0 1-2.048.53 5.196 5.196 0 0 1-2.048-.53 4.15 4.15 0 0 0-1.474-.428 3.62 3.62 0 0 0-1.454.57 5.018 5.018 0 0 1-2.334.788.756.756 0 0 1-.483-.167.528.528 0 0 1-.2-.404c0-.151.072-.296.2-.403a.755.755 0 0 1 .483-.168 3.808 3.808 0 0 0 1.59-.605A4.651 4.651 0 0 1 11.471 19a5.334 5.334 0 0 1 2.096.57c.435.221.921.361 1.426.412.505-.05.992-.19 1.427-.411A5.334 5.334 0 0 1 18.515 19c.805.068 1.568.33 2.198.753Zm0 2.5c.46.313 1.007.52 1.59.605h.014c.181 0 .355.06.483.168.128.107.2.252.2.403a.528.528 0 0 1-.2.404.756.756 0 0 1-.483.167 5.018 5.018 0 0 1-2.334-.788 3.62 3.62 0 0 0-1.454-.57 4.153 4.153 0 0 0-1.488.428 5.197 5.197 0 0 1-2.048.53 5.196 5.196 0 0 1-2.048-.53 4.15 4.15 0 0 0-1.474-.428 3.62 3.62 0 0 0-1.454.57A5.018 5.018 0 0 1 7.683 24a.756.756 0 0 1-.483-.167.528.528 0 0 1-.2-.404c0-.151.072-.296.2-.403a.755.755 0 0 1 .483-.168 3.808 3.808 0 0 0 1.59-.605 4.651 4.651 0 0 1 2.198-.753 5.334 5.334 0 0 1 2.096.57c.435.221.921.361 1.426.412.505-.05.992-.19 1.427-.411a5.334 5.334 0 0 1 2.095-.571c.805.068 1.568.33 2.198.753Z" fill="#F29D38"/><path d="M14.588 5H21l-5.449 4.508h4.126l-4.308 3.688h2.143L9 19l3.002-4.141h-1.635l2.72-4.077H11.49L14.588 5ZM29 2h17v25H29z" fill="#F29D38"/><path d="M32.715 6.914h.164c.237.018.42-.082.547-.3l.11-.247h1.175l-.11.274h2.516v.793H34c-.255.273-.501.4-.738.382h-.547v-.902Zm-.028 2.625v.191h.22V7.871h4.1v1.86h.165v.82h-.164v1.367c.036.492-.173.72-.63.684h-3.472v-2.024h-.246v-.273h-.656c-.438.018-.693-.128-.766-.438l-.328-1.394h1.04l.218.765c.055.219.146.32.273.301h.246Zm3.336-.957h-2.16v1.176h.793l-.465-.793.028-.055h1.066l.52.848h.218V8.582Zm0 3.09v-1.094h-2.16v1.34h.848l-.547-1.012v-.054h1.066l.602 1.011c.128-.018.191-.082.191-.191Zm-3.39-3.445h-.684c-.437 0-.693-.22-.765-.657l-.22-1.148h1.067l.164.793c.037.146.128.219.274.219h.164v.793Zm-.301 3.91c-.055.346-.273.51-.656.492h-.766v-.711h.3c.165 0 .256-.082.274-.246l.192-1.067h.984l-.328 1.532ZM39.77 11.754V6.34h1.039v1.394h3.39v.875h-3.39v3.145h3.39v.82h-6.261v-.82h1.831ZM36.46 21.52h-5.55V19.03h6.207v1.805c0 .456-.219.684-.656.684Zm-5.55-5.47v-.655h6.235v.656h-2.626v.273h2.598v2.434h-.902v-1.805h-1.723v1.805h-.957v-1.805h-1.777v1.805h-.848v-2.434h2.598v-.273H30.91Zm3.883 1.778V17.2h1.094v.63h-1.094Zm-2.68.875v-.601h1.094v.601h-1.094Zm2.68 0v-.601h1.094v.601h-1.094Zm-2.68-.875V17.2h1.094v.63h-1.094Zm2.38 2.188h1.722v-.328h-1.723v.328Zm-2.626-.328v.328h1.668v-.328h-1.668Zm4.348.93h-1.696v.3h1.614a.179.179 0 0 0 .082-.082v-.219Zm-2.707 0h-1.614v.3h1.614v-.3ZM40.535 15.559v-.192h1.04v.192h2.57v4.129c.018.528-.183.774-.602.738h-1.969v.3c0 .073.046.11.137.11h2.598v.766h-3.063c-.529.054-.766-.146-.71-.602v-.574h-2.544v-4.867h2.543Zm2.57.875h-1.53v1.12h1.53v-1.12Zm-2.57 1.12v-1.12h-1.504v1.12h1.504Zm0 1.997V18.43h-1.504v1.12h1.504Zm1.04-1.121v1.12h1.421c.073 0 .11-.054.11-.163v-.957h-1.532Z" fill="#fff"/><path fill-rule="evenodd" clip-rule="evenodd" d="M32.546 6.443a.499.499 0 0 1 .169-.029h.164c.013 0 .026 0 .038.002a.127.127 0 0 0 .036-.002.13.13 0 0 0 .03-.034l.095-.216a.5.5 0 0 1 .457-.297h1.176a.5.5 0 0 1 .446.274h1.96a.5.5 0 0 1 .5.5v.793c0 .125-.046.239-.121.326a.498.498 0 0 1 .012.111v1.49c.1.09.164.223.164.37v.82a.499.499 0 0 1-.164.37v.577a.5.5 0 0 1 .43-.244h1.331V6.34a.5.5 0 0 1 .5-.5h1.04a.5.5 0 0 1 .5.5v.894h2.89a.5.5 0 0 1 .5.5v.875a.5.5 0 0 1-.5.5h-2.89v2.145h2.89a.5.5 0 0 1 .5.5v.82a.5.5 0 0 1-.5.5h-6.261a.5.5 0 0 1-.5-.5v-.094a.943.943 0 0 1-.192.316c-.245.267-.585.326-.885.306h-3.455a.5.5 0 0 1-.42-.23.987.987 0 0 1-.059.047c-.23.173-.504.22-.762.21h-.755a.5.5 0 0 1-.5-.5v-.711a.5.5 0 0 1 .5-.5h.112l.147-.817a1.01 1.01 0 0 1-.417-.62l-.328-1.394a.5.5 0 0 1 .36-.598 1.58 1.58 0 0 1-.093-.33l-.217-1.144a.5.5 0 0 1 .49-.593h1.067a.5.5 0 0 1 .49.399l.025.122Zm-.35.772-.165-.793h-1.066l.219 1.148c.027.166.08.3.16.403.131.169.333.254.605.254h.684v-.793h-.164c-.125 0-.21-.054-.254-.16a.424.424 0 0 1-.02-.06Zm.519.601h.547c.237.019.483-.109.738-.382h3.117V6.64h-2.515l.109-.274h-1.176l-.11.246c-.107.185-.254.286-.44.301a.661.661 0 0 1-.106 0h-.164v.902Zm.191.055v1.86h-.218v-.192h-.247a.2.2 0 0 1-.056 0c-.098-.015-.17-.116-.217-.3l-.219-.766H30.91l.328 1.394c.031.13.094.232.19.304.066.051.15.088.248.11.095.02.204.029.328.024h.656v.273h.246v2.024h3.473c.456.036.665-.192.629-.684v-1.367h.164v-.82h-.164V7.87h-4.102Zm2.899 1.887h.218V8.582h-2.16v1.176h.793l-.465-.793.028-.055h1.066l.52.848Zm.027 2.105c.088-.012.146-.047.173-.103a.2.2 0 0 0 .018-.088v-1.094h-2.16v1.34h.848l-.547-1.012v-.054h1.066l.602 1.011Zm-3.172-1.258h-.984l-.192 1.067c-.018.164-.109.246-.273.246h-.3v.71h.765c.383.02.601-.145.656-.491l.328-1.532Zm8.149 1.149V8.609h3.39v-.875h-3.39V6.34h-1.04v5.414h-1.831v.82h6.261v-.82h-3.39ZM30.91 22.02a.5.5 0 0 1-.5-.5V19.03c0-.047.007-.093.02-.136a.5.5 0 0 1-.02-.137v-2.434c0-.047.007-.093.02-.137a.501.501 0 0 1-.02-.136v-.656a.5.5 0 0 1 .5-.5h6.235a.5.5 0 0 1 .471.334.498.498 0 0 1 .376-.17h2.15a.5.5 0 0 1 .393-.192h1.04a.5.5 0 0 1 .393.192h2.176a.5.5 0 0 1 .5.5v4.12c.008.234-.018.484-.122.705a.5.5 0 0 1 .287.452v.766a.5.5 0 0 1-.5.5H41.27c-.303.027-.653-.002-.921-.228-.29-.246-.344-.598-.314-.901v-.047h-2.043a.499.499 0 0 1-.375-.17v.08c0 .3-.072.618-.303.859-.236.245-.552.325-.853.325h-5.55Zm6.235-6.625H30.91v.656h2.598v.273H30.91v2.434h.848v-1.805h1.777v1.805h.957v-1.805h1.723v1.805h.902v-2.434H34.52v-.273h2.624v-.656ZM30.91 19.03v2.489h5.55c.438 0 .657-.228.657-.684V19.03H30.91Zm.957.657v.328h1.668v-.328h-1.668Zm.027.93v.3h1.614v-.3h-1.614Zm4.32-.93h-1.722v.328h1.723v-.328Zm-1.694.93v.3h1.613a.179.179 0 0 0 .082-.082v-.219h-1.696Zm-1.313-1.915v-.601h-1.094v.601h1.094Zm0-.875V17.2h-1.094v.63h1.094Zm2.68.875v-.601h-1.094v.601h1.094Zm0-.875V17.2h-1.094v.63h1.094Zm4.648 2.598V21c-.054.456.183.656.711.602h3.063v-.766H41.71c-.091 0-.137-.037-.137-.11v-.3h1.969c.166.014.298-.016.395-.09.149-.113.218-.33.206-.648v-4.13h-2.57v-.19h-1.039v.19h-2.543v4.868h2.543Zm1.04-3.992h1.53v1.12h-1.53v-1.12Zm.5.62h.53v-.12h-.53v.12Zm-1.54-.62v1.12h-1.504v-1.12h1.504Zm-1.004.5v.12h.504v-.12h-.504Zm1.004 1.496v1.12h-1.504v-1.12h1.504Zm-1.004.5v.12h.504v-.12h-.504Zm2.043.62v-1.12h1.532v.957c0 .11-.037.164-.11.164h-1.422Zm1.032-.62h-.532v.12h.532v-.12Z" fill="#505050"/><path fill="#F29D38" d="M17 29h29v9H17z"/><path d="M29.922 30.938h-.594c-.01-.292-.166-.438-.469-.438-.302.02-.458.146-.468.375 0 .188.15.318.453.39.031.011.057.016.078.016.01 0 .036.006.078.016.677.135 1.01.4 1 .797-.01.604-.422.916-1.234.937-.75 0-1.12-.317-1.11-.953h.625c0 .333.162.51.485.531.375-.01.567-.135.578-.375 0-.198-.183-.333-.547-.406a.484.484 0 0 1-.11-.031c-.635-.146-.953-.412-.953-.797.032-.594.433-.912 1.203-.953.625.031.954.328.985.89ZM30.406 33v-2.89h1.938v.484H31.03v.672h1.219v.484h-1.219v.766h1.36V33h-1.985ZM33.25 33h-.594l1.047-2.89h.734L35.453 33h-.625l-.219-.61h-1.14l-.219.61Zm.375-1.094h.828l-.39-1.234h-.016l-.422 1.234ZM22.547 37h-1.86v-2.89h.61v2.406h1.25V37ZM23.5 34.11V37h-.625v-2.89h.625ZM25.938 35.938h-.563v-.485h1.172v1.453a2.215 2.215 0 0 1-.64.094 5.52 5.52 0 0 1-.657.031c-.885-.052-1.338-.541-1.36-1.468.021-.948.475-1.454 1.36-1.516.906 0 1.354.312 1.344.937h-.657c0-.323-.192-.484-.578-.484-.53.01-.802.365-.812 1.063.01.687.281 1.036.812 1.046.157 0 .339-.02.547-.062-.01.01 0 .01.032 0v-.61ZM27.734 37h-.609v-2.89h.61v1.14h1.093v-1.14h.625V37h-.61v-1.266h-1.109V37ZM29.766 34.594v-.485h2.343v.485h-.859V37h-.625v-2.406h-.86ZM35.031 37h-.89l-1.125-2.406-.016.015V37h-.578v-2.89h.922l1.093 2.28.016-.015v-2.266h.578V37ZM36.14 34.11V37h-.624v-2.89h.625ZM39.25 37h-.89l-1.126-2.406-.015.015V37h-.578v-2.89h.922l1.093 2.28.016-.015v-2.266h.578V37ZM41.688 35.938h-.563v-.485h1.172v1.453a2.215 2.215 0 0 1-.64.094 5.52 5.52 0 0 1-.657.031c-.885-.052-1.339-.541-1.36-1.468.021-.948.475-1.454 1.36-1.516.906 0 1.354.312 1.344.937h-.657c0-.323-.192-.484-.578-.484-.53.01-.802.365-.812 1.063.01.687.281 1.036.812 1.046.157 0 .339-.02.547-.062-.01.01 0 .01.032 0v-.61Z" fill="#fff"/><path fill-rule="evenodd" clip-rule="evenodd" d="M30.406 33h1.985v-.484h-1.36v-.766h1.219v-.484h-1.219v-.672h1.313v-.485h-1.938V33Zm2.255-2.02a.499.499 0 0 0 .183-.386v-.485a.5.5 0 0 0-.5-.5h-1.938a.5.5 0 0 0-.45.285c-.275-.232-.627-.328-.994-.346h-.052c-.439.023-.849.128-1.162.377-.332.262-.491.634-.513 1.049V31c0 .238.07.45.195.632a.5.5 0 0 0-.274.438c-.006.418.114.819.444 1.102.313.27.733.36 1.166.36h.012c.44-.012.852-.1 1.172-.326a.5.5 0 0 0 .456.294h1.985a.5.5 0 0 0 .133-.018.497.497 0 0 0 .132.018h.594a.5.5 0 0 0 .47-.331l.1-.278h.438l.1.278a.5.5 0 0 0 .47.331h.625a.5.5 0 0 0 .472-.666l-1.016-2.89a.5.5 0 0 0-.471-.335h-.735a.5.5 0 0 0-.47.33l-.483 1.334v-.007a.498.498 0 0 0-.09-.286ZM32.656 33h.594l.219-.61h1.14l.22.61h.624l-1.016-2.89h-.734L32.656 33Zm.969-1.094h.828l-.39-1.234h-.016l-.422 1.234Zm-3.719.609c.06-.12.091-.26.094-.421a.568.568 0 0 0-.094-.338c-.085-.128-.227-.234-.427-.319a1.93 1.93 0 0 0-.15-.056 2.864 2.864 0 0 0-.407-.1.257.257 0 0 1-.078-.015c-.302-.073-.453-.203-.453-.391a.353.353 0 0 1 .088-.231c.077-.084.204-.132.38-.144a.904.904 0 0 1 .103.006.44.44 0 0 1 .22.085c.075.06.122.148.14.267a.748.748 0 0 1 .006.08h.594a1.335 1.335 0 0 0-.016-.146.916.916 0 0 0-.13-.355.775.775 0 0 0-.36-.292 1.411 1.411 0 0 0-.479-.098 3.101 3.101 0 0 0-.078.005l-.03.003c-.258.024-.47.082-.637.174-.287.157-.439.414-.458.771 0 .239.122.431.366.578.054.033.115.063.181.092a2.453 2.453 0 0 0 .417.131.573.573 0 0 0 .099.027c.364.073.547.208.547.406a.33.33 0 0 1-.081.213c-.09.102-.256.156-.497.162h-.011a.545.545 0 0 1-.313-.11.45.45 0 0 1-.152-.293.856.856 0 0 1-.009-.128h-.625v.052c.003.175.037.324.1.448.093.18.249.305.468.378a1.698 1.698 0 0 0 .542.075h.011c.318-.01.573-.064.767-.163a.792.792 0 0 0 .362-.353Zm-7.195 4.957a.5.5 0 0 1-.164.028h-1.86a.5.5 0 0 1-.5-.5v-2.89a.5.5 0 0 1 .5-.5h.61a.5.5 0 0 1 .5.5v1.906h.578v-1.907a.5.5 0 0 1 .5-.5h.625a.5.5 0 0 1 .492.411c.326-.295.751-.439 1.223-.472a.517.517 0 0 1 .035-.001c.494 0 .955.082 1.302.324.035.025.068.05.1.077a.5.5 0 0 1 .473-.339h.61a.5.5 0 0 1 .5.5v.641h.093v-.64a.5.5 0 0 1 .5-.5h.625c.055 0 .107.008.156.024a.498.498 0 0 1 .157-.025h2.343c.055 0 .108.01.157.025a.499.499 0 0 1 .156-.025h.922a.5.5 0 0 1 .45.284l.16.33v-.114a.5.5 0 0 1 .5-.5h.577c.088 0 .17.023.242.063a.498.498 0 0 1 .243-.063h.625c.09 0 .176.025.25.067a.497.497 0 0 1 .25-.067h.922a.5.5 0 0 1 .45.284l.159.33v-.114a.5.5 0 0 1 .5-.5h.578a.5.5 0 0 1 .492.411c.326-.295.751-.439 1.223-.472a.517.517 0 0 1 .035-.001c.494 0 .955.082 1.302.324.382.267.55.67.542 1.122a.499.499 0 0 1-.085.27.499.499 0 0 1 .038.19v1.453a.5.5 0 0 1-.356.48 2.716 2.716 0 0 1-.754.114 6.191 6.191 0 0 1-.716.03c-.471-.027-.899-.163-1.227-.453a.5.5 0 0 1-.494.423h-.89a.5.5 0 0 1-.454-.288l-.187-.402V37a.5.5 0 0 1-.5.5h-.578a.498.498 0 0 1-.25-.067.498.498 0 0 1-.25.067h-.625a.498.498 0 0 1-.243-.063.498.498 0 0 1-.242.063h-.89a.5.5 0 0 1-.453-.288l-.188-.402V37a.5.5 0 0 1-.5.5h-.578a.5.5 0 0 1-.5-.5v-1.906h-.172V37a.5.5 0 0 1-.5.5h-.625a.5.5 0 0 1-.5-.5v-1.906h-.172V37a.5.5 0 0 1-.5.5h-.61a.5.5 0 0 1-.5-.5v-.766h-.109V37a.5.5 0 0 1-.5.5h-.609a.498.498 0 0 1-.354-.147.51.51 0 0 1-.08.032 2.716 2.716 0 0 1-.753.115 6.191 6.191 0 0 1-.717.03c-.471-.027-.899-.163-1.227-.453a.5.5 0 0 1-.494.423h-.625a.5.5 0 0 1-.164-.028Zm.789-3.363h-.625V37h.625v-2.89Zm.5 2.103c.115.318.322.543.618.677a1.784 1.784 0 0 0 .733.142h.008c.133-.002.252-.006.357-.013.07-.005.133-.01.19-.018a2.26 2.26 0 0 0 .64-.094v-1.453h-1.171v.484h.563v.61a.218.218 0 0 1-.03.008h-.002c-.005 0-.005-.003 0-.008a2.859 2.859 0 0 1-.547.063 1.197 1.197 0 0 1-.109-.008.737.737 0 0 1-.382-.15c-.208-.166-.315-.462-.321-.89.007-.483.14-.802.397-.955a.77.77 0 0 1 .338-.103l.077-.004c.177 0 .313.034.409.102.106.075.162.192.169.351v.031h.657v-.042a.844.844 0 0 0-.128-.458c-.103-.156-.267-.27-.492-.343a2.236 2.236 0 0 0-.615-.093h-.009l-.1-.001c-.19.013-.361.047-.512.102-.362.13-.608.38-.738.748-.067.19-.104.412-.11.666.006.247.043.464.11.65Zm3.734-.478h1.11V37h.61v-2.89h-.626v1.14h-1.094v-1.14h-.609V37h.61v-1.266ZM30.625 37h.625v-2.406h.86v-.485h-2.344v.485h.859V37Zm1.797 0H33v-2.39l.016-.016L34.14 37h.89v-2.89h-.578v2.265l-.016.016-1.093-2.282h-.922V37Zm4.797-2.39.015-.016L38.36 37h.891v-2.89h-.578v2.265l-.016.016-1.093-2.282h-.922V37h.578v-2.39Zm2.531 1.602c.115.318.322.543.618.677a1.784 1.784 0 0 0 .733.142h.008c.133-.002.252-.006.357-.013.07-.005.133-.01.19-.018a2.26 2.26 0 0 0 .64-.094v-1.453h-1.171v.484h.563v.61a.218.218 0 0 1-.03.008h-.002c-.005 0-.005-.003 0-.008a2.859 2.859 0 0 1-.547.063 1.197 1.197 0 0 1-.109-.008.737.737 0 0 1-.382-.15c-.208-.166-.315-.462-.321-.89.007-.483.14-.802.397-.955a.772.772 0 0 1 .338-.103l.077-.004c.177 0 .313.034.409.102.106.075.162.192.169.351v.031h.657v-.042a.844.844 0 0 0-.128-.458c-.103-.156-.267-.27-.492-.343a2.236 2.236 0 0 0-.615-.093H41.1l-.1-.001c-.19.013-.361.047-.512.102-.362.13-.608.38-.738.748-.067.19-.104.412-.11.666.006.247.043.464.11.65Zm-4.234-2.103V37h.625v-2.89h-.625Zm-14.22 0h-.608V37h1.859v-.484h-1.25v-2.407Z" fill="#505050"/><defs><clipPath id="a"><path fill="#fff" d="M0 0h48v40H0z"/></clipPath></defs></svg>