<svg width="48" height="40" fill="none" xmlns="http://www.w3.org/2000/svg"><g clip-path="url(#a)"><path fill-rule="evenodd" clip-rule="evenodd" d="M0 38a2 2 0 0 0 2 2h44a2 2 0 0 0 2-2V2A2 2 0 0 0 46.15.005L46 0H2l-.15.005A2 2 0 0 0 0 2v36ZM27 2H2v25h25V2ZM2 29v9h13v-9H2Zm15 9h29v-9H17v9Zm29-11V2H29v25h17Z" fill="#505050"/></g><path fill="#C93E34" d="M2 29h13v9H2z"/><path fill-rule="evenodd" clip-rule="evenodd" d="M7.926 35.07v-.847H6.668l1.613-2.57h-1.12l-.384.628h-.355l1.203-1.886H6.559l-1.04 1.613v1.039h.876l-.875 1.258v.765h2.406Zm3.8 1.532v-.875h-1.285V31.27H11.7v-.875H8.281v.875h1.094v4.457H8.254v.875h3.473Zm-3.8-.903v.82H5.492v-.82h2.434Z" fill="#fff"/><path d="M7.926 34.223h.5v-.5h-.5v.5Zm0 .847v.5h.5v-.5h-.5Zm-1.258-.847-.424-.266-.48.766h.904v-.5Zm1.613-2.57.424.265.48-.766h-.904v.5Zm-1.12 0v-.5h-.282l-.146.24.427.26Zm-.384.628v.5h.281l.146-.24-.427-.26Zm-.355 0L6 32.012l-.49.77h.912v-.5Zm1.203-1.886.422.268.49-.768h-.912v.5Zm-1.066 0v-.5h-.273l-.148.229.42.27Zm-1.04 1.613-.42-.27-.08.123v.147h.5Zm0 1.039h-.5v.5h.5v-.5Zm.876 0 .41.285.546-.785h-.956v.5Zm-.875 1.258-.41-.286-.09.129v.157h.5Zm0 .765h-.5v.5h.5v-.5Zm6.207.657h.5v-.5h-.5v.5Zm0 .875v.5h.5v-.5h-.5Zm-1.286-.875h-.5v.5h.5v-.5Zm0-4.457v-.5h-.5v.5h.5Zm1.258 0v.5h.5v-.5h-.5Zm0-.875h.5v-.5h-.5v.5Zm-3.418 0v-.5h-.5v.5h.5Zm0 .875h-.5v.5h.5v-.5Zm1.094 0h.5v-.5h-.5v.5Zm0 4.457v.5h.5v-.5h-.5Zm-1.121 0v-.5h-.5v.5h.5Zm0 .875h-.5v.5h.5v-.5Zm-.328-.082v.5h.5v-.5h-.5Zm0-.82h.5v-.5h-.5v.5Zm-2.434.82h-.5v.5h.5v-.5Zm0-.82v-.5h-.5v.5h.5Zm1.934-1.477v.847h1v-.847h-1Zm-.758.5h1.258v-1H6.668v1Zm1.19-3.336-1.614 2.57.847.532 1.614-2.57-.847-.532Zm-.698.765h1.121v-1h-1.12v1Zm.044.39.383-.63-.854-.52-.383.63.854.52Zm-.782.24h.355v-1h-.355v1Zm.781-2.656L6 32.012l.843.538 1.204-1.887-.844-.537Zm-.644.768h1.066v-1H6.559v1Zm-.62 1.385 1.04-1.614-.84-.541-1.04 1.613.84.542Zm.08.768v-1.04h-1v1.04h1Zm.376-.5H5.52v1h.875v-1ZM5.93 34.59l.875-1.258-.82-.57-.876 1.257.821.571Zm.09.48v-.765h-1v.765h1Zm1.906-.5H5.52v1h2.406v-1Zm3.3 1.157v.875h1v-.875h-1Zm-.785.5h1.286v-1H10.44v1Zm-.5-4.957v4.457h1V31.27h-1Zm1.758-.5h-1.258v1H11.7v-1Zm-.5-.375v.875h1v-.875h-1Zm-2.918.5H11.7v-1H8.281v1Zm.5.375v-.875h-1v.875h1Zm.594-.5H8.281v1h1.094v-1Zm.5 4.957V31.27h-1v4.457h1Zm-1.621.5h1.121v-1H8.254v1Zm.5.375v-.875h-1v.875h1Zm2.973-.5H8.254v1h3.473v-1Zm-3.301.418v-.82h-1v.82h1Zm-2.934.5h2.434v-1H5.492v1Zm-.5-1.32v.82h1v-.82h-1Zm2.934-.5H5.492v1h2.434v-1Z" fill="#505050"/><path fill-rule="evenodd" clip-rule="evenodd" d="M7.833 35.07v-.847H6.577l1.613-2.57H7.068l-.383.628H6.33l1.203-1.886H6.466l-1.039 1.613v1.039h.875l-.875 1.258v.765h2.407Zm3.801 1.532v-.875H10.35V31.27h1.258v-.875H8.189v.875h1.094v4.457H8.162v.875h3.472Zm-3.8-.903v.82H5.4v-.82h2.433Z" fill="#fff"/><path fill="#CCC" d="M2 2h25v25H2z"/><path fill-rule="evenodd" clip-rule="evenodd" d="M17.016 22.86a2.001 2.001 0 1 0 3.467-2l-2.517-4.36H23a2 2 0 1 0 0-4h-5.036l2.518-4.361a2 2 0 0 0-3.464-2l-2.517 4.36-2.517-4.36a2.001 2.001 0 0 0-3.467 2.002l2.517 4.359H6a2 2 0 0 0 0 4h5.036l-2.518 4.361a2 2 0 0 0 3.464 2l2.517-4.36 2.517 4.36Z" fill="#C93E34"/><path fill="#C93E34" d="M29 2h17v25H29z"/><path fill-rule="evenodd" clip-rule="evenodd" d="M36.563 9.656c-.313.39-.6.573-.86.547h-2.656v-.82h1.797c.13.026.26-.104.39-.39h-2.187v-.704h1.055v-.351h-1.055v-.704h1.055v-.312h-.86v-2.93h8.555v2.11c-.078.494-.287.768-.625.82h-.313v.273h1.055v.742H40.86v.352h1.055v.703h-2.031c.052.235.156.352.312.352h1.72v.82h-2.657c-.365 0-.834-.39-1.406-1.172h-.704l-.39.469-.196.195Zm-1.836-4.531h5.546v-.313h-5.546v.313Zm5.546 1.016h-5.546v-.313h5.546v.313Zm-4.648 1.093h3.71v-.312h-3.71v.312Zm3.71 1.055h-3.71v-.351h3.71v.351Zm-1.093 3.633c0 .599-.3.898-.898.898h-1.172V12h.469c.078 0 .117-.026.117-.078V9.93h1.484v1.992Zm-2.07-.352v-.82h-1.016c-.208 0-.377-.104-.508-.313h-1.445c.026.079.065.183.117.313.26.573.547.846.86.82h1.992Zm5.508-.898c-.263.573-.547.872-.854.898H38.75v-.86h1.21c.131.027.248-.051.352-.233h1.446a1.512 1.512 0 0 0-.078.195Zm-6.602 2.11c.339 0 .612-.287.82-.86a.988.988 0 0 1 .118-.235h-1.328c-.13.209-.3.313-.508.313h-1.172v.781h2.07ZM41.836 12v.86H39.96c-.417.025-.794-.326-1.133-1.055h1.328l.117.117c.13.052.274.078.43.078h1.133Zm-7.344 8.875v-2.578h2.54v2.5h1.366v-2.5h2.422v2.578h1.29v-3.477h-3.712v-.39h3.711v-.977h-8.906v.977h3.828v.39h-3.828v3.477h1.29Zm5.977-1.797c.026.365-.222.534-.742.508h-1.094v-.664h.469c.13 0 .195-.078.195-.235v-.078h1.172v.47Zm-3.711.508v-.664h-.352c-.286 0-.416-.04-.39-.117v-.157h-1.211v.274c0 .443.208.664.625.664h1.328Zm3.789 1.289h-1.133c-.046.002-.09.003-.13.002-.417-.007-.634-.159-.652-.456v-.562h1.212v.118c-.026.156.065.234.273.234h.43v.664Zm-4.57 0c.442.026.664-.195.664-.664v-.313h-1.172v.04c0 .156-.078.234-.235.234h-.507v.703h1.25ZM42.07 24c.052.73-.3 1.068-1.054 1.016h-7.618V24h7.266c.078 0 .117-.052.117-.156v-.196h-7.539v-1.015h7.54v-.43h-7.344v-1.015h8.632V24Z" fill="#fff" stroke="#505050"/><path fill-rule="evenodd" clip-rule="evenodd" d="M36.563 9.656c-.313.39-.6.573-.86.547h-2.656v-.82h1.797c.13.026.26-.104.39-.39h-2.187v-.704h1.055v-.351h-1.055v-.704h1.055v-.312h-.86v-2.93h8.555v2.11c-.078.494-.287.768-.625.82h-.313v.273h1.055v.742H40.86v.352h1.055v.703h-2.031c.052.235.156.352.312.352h1.72v.82h-2.657c-.365 0-.834-.39-1.406-1.172h-.704l-.39.469-.196.195Zm-1.836-4.531h5.546v-.313h-5.546v.313Zm5.546 1.016h-5.546v-.313h5.546v.313Zm-4.648 1.093h3.71v-.312h-3.71v.312Zm3.71 1.055h-3.71v-.351h3.71v.351Zm-1.093 3.633c0 .599-.3.898-.898.898h-1.172V12h.469c.078 0 .117-.026.117-.078V9.93h1.484v1.992Zm-2.07-.352v-.82h-1.016c-.208 0-.377-.104-.508-.313h-1.445c.026.079.065.183.117.313.26.573.547.846.86.82h1.992Zm5.508-.898c-.263.573-.547.872-.854.898H38.75v-.86h1.21c.131.027.248-.051.352-.233h1.446a1.512 1.512 0 0 0-.078.195Zm-6.602 2.11c.339 0 .612-.287.82-.86a.988.988 0 0 1 .118-.235h-1.328c-.13.209-.3.313-.508.313h-1.172v.781h2.07ZM41.836 12v.86H39.96c-.417.025-.794-.326-1.133-1.055h1.328l.117.117c.13.052.274.078.43.078h1.133Zm-7.344 8.875v-2.578h2.54v2.5h1.366v-2.5h2.422v2.578h1.29v-3.477h-3.712v-.39h3.711v-.977h-8.906v.977h3.828v.39h-3.828v3.477h1.29Zm5.977-1.797c.026.365-.222.534-.742.508h-1.094v-.664h.469c.13 0 .195-.078.195-.235v-.078h1.172v.47Zm-3.711.508v-.664h-.352c-.286 0-.416-.04-.39-.117v-.157h-1.211v.274c0 .443.208.664.625.664h1.328Zm3.789 1.289h-1.133c-.046.002-.09.003-.13.002-.417-.007-.634-.159-.652-.456v-.562h1.212v.118c-.026.156.065.234.273.234h.43v.664Zm-4.57 0c.442.026.664-.195.664-.664v-.313h-1.172v.04c0 .156-.078.234-.235.234h-.507v.703h1.25ZM42.07 24c.052.73-.3 1.068-1.054 1.016h-7.618V24h7.266c.078 0 .117-.052.117-.156v-.196h-7.539v-1.015h7.54v-.43h-7.344v-1.015h8.632V24Z" fill="#fff"/><path fill="#C93E34" d="M17 29h29v9H17z"/><path fill-rule="evenodd" clip-rule="evenodd" d="M20.3 34.14c-.02.573-.41.87-1.172.89-.723-.01-1.074-.312-1.054-.906h.593c0 .327.154.495.46.505.357-.01.54-.129.55-.356 0-.179-.173-.307-.52-.386-.04-.01-.074-.02-.104-.03-.613-.129-.915-.381-.905-.757.03-.554.41-.856 1.143-.906.594.04.905.322.935.847h-.564c-.02-.277-.168-.416-.445-.416-.287.02-.436.139-.446.356-.02.208.149.337.505.386l.06.03c.653.129.974.376.964.742Zm.935-1.411V35h-.549v-2.746h.876l1.04 2.167.014-.015v-2.152h.55V35h-.847l-1.069-2.286-.015.015Zm3.637 2.3c.841-.02 1.277-.484 1.306-1.395-.03-.93-.465-1.41-1.306-1.44-.86.03-1.301.51-1.32 1.44.019.91.46 1.376 1.32 1.396Zm-.697-1.395c-.01.673.222 1.005.697.995.455 0 .683-.332.683-.995 0-.673-.228-1.009-.683-1.009-.475 0-.707.336-.697 1.01ZM27.722 35l.535-2.093.49 2.093h.653l.697-2.746h-.549l-.445 2.063h-.015l-.475-2.063h-.668l-.535 2.063-.415-2.063h-.609L27.054 35h.668Zm5.864-.86c-.02.573-.411.87-1.173.89-.722-.01-1.074-.312-1.054-.906h.594c0 .327.153.495.46.505.356-.01.54-.129.55-.356 0-.179-.174-.307-.52-.386a1.44 1.44 0 0 1-.104-.03c-.614-.129-.916-.381-.906-.757.03-.554.41-.856 1.143-.906.594.04.906.322.935.847h-.564c-.02-.277-.168-.416-.445-.416-.287.02-.436.139-.445.356-.02.208.148.337.504.386l.06.03c.653.129.974.376.965.742Zm1.588-1.426h.816v-.46h-2.226v.46h.816V35h.594v-2.286Zm1.677 1.188V35h-.594v-2.746h1.173c.623.02.94.257.95.712-.01.357-.198.58-.564.668v.015c.267.03.43.233.49.609 0 .03.005.06.015.089.02.336.069.554.148.653h-.638a3.626 3.626 0 0 1-.104-.742c-.03-.238-.114-.356-.252-.356h-.624Zm.49-.46h-.49v-.728h.49c.267 0 .406.114.416.342-.01.257-.149.385-.416.385Zm4.008.192c-.03.91-.465 1.376-1.306 1.396-.861-.02-1.302-.485-1.322-1.396.02-.93.46-1.41 1.322-1.44.84.03 1.276.51 1.306 1.44Zm-1.306.995c-.475.01-.708-.322-.698-.995-.01-.673.223-1.009.697-1.009.456 0 .683.336.683 1.01 0 .662-.227.994-.683.994Zm2.24-1.974V35h-.548v-2.746h.965l.578 2.004h.015l.624-2.004h.92V35h-.55v-2.36L43.517 35h-.49l-.727-2.36-.015.015Z" fill="#fff" stroke="#505050"/><path fill-rule="evenodd" clip-rule="evenodd" d="M20.3 34.14c-.02.573-.41.87-1.172.89-.723-.01-1.074-.312-1.054-.906h.593c0 .327.154.495.46.505.357-.01.54-.129.55-.356 0-.179-.173-.307-.52-.386-.04-.01-.074-.02-.104-.03-.613-.129-.915-.381-.905-.757.03-.554.41-.856 1.143-.906.594.04.905.322.935.847h-.564c-.02-.277-.168-.416-.445-.416-.287.02-.436.139-.446.356-.02.208.149.337.505.386l.06.03c.653.129.974.376.964.742Zm.935-1.411V35h-.549v-2.746h.876l1.04 2.167.014-.015v-2.152h.55V35h-.847l-1.069-2.286-.015.015Zm3.637 2.3c.841-.02 1.277-.484 1.306-1.395-.03-.93-.465-1.41-1.306-1.44-.86.03-1.301.51-1.32 1.44.019.91.46 1.376 1.32 1.396Zm-.697-1.395c-.01.673.222 1.005.697.995.455 0 .683-.332.683-.995 0-.673-.228-1.009-.683-1.009-.475 0-.707.336-.697 1.01ZM27.722 35l.535-2.093.49 2.093h.653l.697-2.746h-.549l-.445 2.063h-.015l-.475-2.063h-.668l-.535 2.063-.415-2.063h-.609L27.054 35h.668Zm5.864-.86c-.02.573-.411.87-1.173.89-.722-.01-1.074-.312-1.054-.906h.594c0 .327.153.495.46.505.356-.01.54-.129.55-.356 0-.179-.174-.307-.52-.386a1.44 1.44 0 0 1-.104-.03c-.614-.129-.916-.381-.906-.757.03-.554.41-.856 1.143-.906.594.04.906.322.935.847h-.564c-.02-.277-.168-.416-.445-.416-.287.02-.436.139-.445.356-.02.208.148.337.504.386l.06.03c.653.129.974.376.965.742Zm1.588-1.426h.816v-.46h-2.226v.46h.816V35h.594v-2.286Zm1.677 1.188V35h-.594v-2.746h1.173c.623.02.94.257.95.712-.01.357-.198.58-.564.668v.015c.267.03.43.233.49.609 0 .03.005.06.015.089.02.336.069.554.148.653h-.638a3.626 3.626 0 0 1-.104-.742c-.03-.238-.114-.356-.252-.356h-.624Zm.49-.46h-.49v-.728h.49c.267 0 .406.114.416.342-.01.257-.149.385-.416.385Zm4.008.192c-.03.91-.465 1.376-1.306 1.396-.861-.02-1.302-.485-1.322-1.396.02-.93.46-1.41 1.322-1.44.84.03 1.276.51 1.306 1.44Zm-1.306.995c-.475.01-.708-.322-.698-.995-.01-.673.223-1.009.697-1.009.456 0 .683.336.683 1.01 0 .662-.227.994-.683.994Zm2.24-1.974V35h-.548v-2.746h.965l.578 2.004h.015l.624-2.004h.92V35h-.55v-2.36L43.517 35h-.49l-.727-2.36-.015.015Z" fill="#fff"/><defs><clipPath id="a"><path fill="#fff" d="M0 0h48v40H0z"/></clipPath></defs></svg>