<svg width="48" height="40" fill="none" xmlns="http://www.w3.org/2000/svg"><g clip-path="url(#a)"><path fill-rule="evenodd" clip-rule="evenodd" d="M0 38a2 2 0 0 0 2 2h44a2 2 0 0 0 2-2V2A2 2 0 0 0 46.15.005L46 0H2l-.15.005A2 2 0 0 0 0 2v36ZM27 2H2v25h25V2ZM2 29v9h13v-9H2Zm15 9h29v-9H17v9Zm29-11V2H29v25h17Z" fill="#505050"/></g><path fill="#C93E34" d="M2 29h13v9H2z"/><path fill-rule="evenodd" clip-rule="evenodd" d="M7.926 35.07v-.847H6.668l1.613-2.57h-1.12l-.384.628h-.355l1.203-1.886H6.559l-1.04 1.613v1.039h.876l-.875 1.258v.765h2.406Zm3.8 1.532v-.875h-1.285V31.27H11.7v-.875H8.281v.875h1.094v4.457H8.254v.875h3.473Zm-3.8-.903v.82H5.492v-.82h2.434Z" fill="#fff"/><path d="M7.926 34.223h.5v-.5h-.5v.5Zm0 .847v.5h.5v-.5h-.5Zm-1.258-.847-.424-.266-.48.766h.904v-.5Zm1.613-2.57.424.265.48-.766h-.904v.5Zm-1.12 0v-.5h-.282l-.146.24.427.26Zm-.384.628v.5h.281l.146-.24-.427-.26Zm-.355 0L6 32.012l-.49.77h.912v-.5Zm1.203-1.886.422.268.49-.768h-.912v.5Zm-1.066 0v-.5h-.273l-.148.229.42.27Zm-1.04 1.613-.42-.27-.08.123v.147h.5Zm0 1.039h-.5v.5h.5v-.5Zm.876 0 .41.285.546-.785h-.956v.5Zm-.875 1.258-.41-.286-.09.129v.157h.5Zm0 .765h-.5v.5h.5v-.5Zm6.207.657h.5v-.5h-.5v.5Zm0 .875v.5h.5v-.5h-.5Zm-1.286-.875h-.5v.5h.5v-.5Zm0-4.457v-.5h-.5v.5h.5Zm1.258 0v.5h.5v-.5h-.5Zm0-.875h.5v-.5h-.5v.5Zm-3.418 0v-.5h-.5v.5h.5Zm0 .875h-.5v.5h.5v-.5Zm1.094 0h.5v-.5h-.5v.5Zm0 4.457v.5h.5v-.5h-.5Zm-1.121 0v-.5h-.5v.5h.5Zm0 .875h-.5v.5h.5v-.5Zm-.328-.082v.5h.5v-.5h-.5Zm0-.82h.5v-.5h-.5v.5Zm-2.434.82h-.5v.5h.5v-.5Zm0-.82v-.5h-.5v.5h.5Zm1.934-1.477v.847h1v-.847h-1Zm-.758.5h1.258v-1H6.668v1Zm1.19-3.336-1.614 2.57.847.532 1.614-2.57-.847-.532Zm-.698.765h1.121v-1h-1.12v1Zm.044.39.383-.63-.854-.52-.383.63.854.52Zm-.782.24h.355v-1h-.355v1Zm.781-2.656L6 32.012l.843.538 1.204-1.887-.844-.537Zm-.644.768h1.066v-1H6.559v1Zm-.62 1.385 1.04-1.614-.84-.541-1.04 1.613.84.542Zm.08.768v-1.04h-1v1.04h1Zm.376-.5H5.52v1h.875v-1ZM5.93 34.59l.875-1.258-.82-.57-.876 1.257.821.571Zm.09.48v-.765h-1v.765h1Zm1.906-.5H5.52v1h2.406v-1Zm3.3 1.157v.875h1v-.875h-1Zm-.785.5h1.286v-1H10.44v1Zm-.5-4.957v4.457h1V31.27h-1Zm1.758-.5h-1.258v1H11.7v-1Zm-.5-.375v.875h1v-.875h-1Zm-2.918.5H11.7v-1H8.281v1Zm.5.375v-.875h-1v.875h1Zm.594-.5H8.281v1h1.094v-1Zm.5 4.957V31.27h-1v4.457h1Zm-1.621.5h1.121v-1H8.254v1Zm.5.375v-.875h-1v.875h1Zm2.973-.5H8.254v1h3.473v-1Zm-3.301.418v-.82h-1v.82h1Zm-2.934.5h2.434v-1H5.492v1Zm-.5-1.32v.82h1v-.82h-1Zm2.934-.5H5.492v1h2.434v-1Z" fill="#505050"/><path fill-rule="evenodd" clip-rule="evenodd" d="M7.834 35.07v-.847H6.576l1.613-2.57H7.068l-.383.628H6.33l1.203-1.886H6.466l-1.039 1.613v1.039h.875l-.875 1.258v.765h2.407Zm3.8 1.532v-.875H10.35V31.27h1.258v-.875H8.19v.875h1.094v4.457H8.162v.875h3.472Zm-3.8-.903v.82H5.4v-.82h2.434Z" fill="#fff"/><path fill="#CCC" d="M2 2h25v25H2z"/><path fill-rule="evenodd" clip-rule="evenodd" d="M10.78 23.287c1.187.475 2.453.713 3.72.713 1.267 0 2.533-.238 3.72-.713a9.698 9.698 0 0 0 3.01-2.058c.87-.87 1.582-1.9 2.058-3.008.474-1.188.712-2.454.712-3.721a9.73 9.73 0 0 0-.712-3.72 9.698 9.698 0 0 0-2.059-3.01 9.698 9.698 0 0 0-3.008-2.058A10.028 10.028 0 0 0 14.5 5c-1.583 0-3.325.475-4.75 1.267-.396.237-.475.633-.238 1.029.08.237.317.316.555.316.079 0 .237 0 .237-.079h.08c1.345-.712 2.691-1.029 4.037-1.029 4.354 0 7.996 3.563 7.996 7.996s-3.563 8.075-7.996 8.075c-4.354 0-7.996-3.642-7.996-8.075 0-1.346.396-2.692 1.108-4.038v-.079c.159-.396 0-.791-.237-.95-.08-.079-.238-.079-.317-.079a.831.831 0 0 0-.712.396C5.475 11.254 5 12.917 5 14.5c0 1.267.237 2.533.713 3.72a9.697 9.697 0 0 0 2.058 3.01c.87.87 1.9 1.582 3.008 2.057Zm7.837-4.987c-.238.237-.238.712 0 .95.158.08.316.158.475.158.158 0 .316-.079.475-.158l1.266-1.425c.238-.238.238-.713 0-.95l-1.345-1.267c-.159-.079-.317-.158-.476-.158-.158 0-.316 0-.474.158-.08.159-.159.317-.159.475 0 .159 0 .317.159.475l.158.159h-.792c-.158 0-.317 0-.475-.159l-1.425-1.425c-.158-.079-.317-.158-.475-.158-.158 0-.316 0-.475.158-.237.238-.237.713 0 .95l1.504 1.504c.396.317.871.555 1.425.555h.792l-.158.158Zm-10.53-.475c.159.237.317.317.555.317h2.375a1.91 1.91 0 0 0 1.346-.555l5.224-5.225c.08-.079.159-.158.317-.158h.871l-.158.158c-.08.159-.159.317-.159.475 0 .159 0 .317.159.475.158.08.316.159.475.159.158 0 .316 0 .475-.159l1.266-1.266c.238-.238.238-.713 0-.95L19.646 9.75c-.159-.08-.317-.158-.475-.158-.159 0-.317 0-.475.158-.238.237-.238.712 0 .95l.158.158h-.87a1.91 1.91 0 0 0-1.347.554l-5.225 5.225c-.042.022-.079.043-.113.063-.093.053-.166.096-.282.096H8.642c-.238 0-.475.079-.554.316a.594.594 0 0 0 0 .713Zm4.75-3.958c.159.079.317.158.476.158.158 0 .316-.08.474-.158.08-.159.159-.317.159-.475 0-.159 0-.317-.159-.475l-1.425-1.425a1.91 1.91 0 0 0-1.345-.555H8.72a.624.624 0 0 0-.633.634c0 .316.237.633.633.633h2.216c.159 0 .317.08.476.238l1.425 1.425Z" fill="#C93E34"/><path fill="#C93E34" d="M29 2h17v25H29z"/><path fill-rule="evenodd" clip-rule="evenodd" d="M33.5 2.625h8.094V4.802c-.008.183-.04.37-.112.542h.08v2.49c.005.138-.005.28-.037.416h.006v1.281c0 .284-.063.59-.277.828a.946.946 0 0 1-.329.235h.45V11h.219v2.063h-.219v4.427c.01.287-.027.61-.221.863-.22.284-.541.36-.835.334h-.475V19h1.781v1.969h-.156v1.333c.01.25-.031.524-.188.751v1.697h.313v1.969h-1.302a1.329 1.329 0 0 1-.48-.064v.064h-2.156v-.061c-.145.05-.298.067-.448.06h-1.583v-.09c-.195.083-.41.1-.606.09h-1.456v-1.937h.727l.25-.833a.844.844 0 0 1-.387-.237c-.192-.203-.283-.48-.332-.743l-.397-2.03h.493a1.435 1.435 0 0 1-.04-.254l-.376-2.09h-.095v-1.75h.539l.614-1.402-.886-2.723h-.048v-.146l-.095-.292h.095V10.72H38V11h1.219v-.313h-3.094v-.079c-.144.03-.292.031-.434.017H33.5V8.812h1.313v-.437H33.5v-5.75Zm1.69 1.88-.003-.001Zm-.342.338v.003Zm3.996 4.845h.187V5.125h-.156v1.219h-.031v3.343ZM37.406 8.03V6.344h-.125V8.03h.125Zm-1.125-1.594v-.005a1.17 1.17 0 0 1-.02.005h.02ZM37.344 5h.093V3.625h-.093V5ZM40.5 3.625v.813c0 .123-.023.339-.193.51a.642.642 0 0 1-.06.052H40.397a.392.392 0 0 0 .146-.017h.002l.006-.009a.178.178 0 0 0 .014-.033.623.623 0 0 0 .029-.171V3.625H40.5Zm-4.469 0h-.187v1.13a.689.689 0 0 1-.186.56.623.623 0 0 1-.252.154h.38l.037.005a.432.432 0 0 0 .168 0 .253.253 0 0 0 .027-.076c.014-.065.023-.164.014-.305V3.625ZM34.656 5.5H34.5v1.875h.156V5.5Zm1.157 1.938v1.656a.765.765 0 0 1-.191.531h.127l.03.004c.076.009.122.005.144 0a.786.786 0 0 0 .016-.25l-.002-.017V7.437h-.124Zm.104 2.206Zm4.552-3.3V7.53a.66.66 0 0 1-.245.532h.077l.019.001c.147.011.206-.01.223-.018a.406.406 0 0 0 .02-.182v-1.52h-.094Zm.078 1.7Zm-.356 1.643h.246a.336.336 0 0 0 .076-.006.463.463 0 0 0 .018-.15V9.25h-.071a.636.636 0 0 1-.27.438Zm.028 1.907V12H38.28v.063h1.938v5.218a.596.596 0 0 1-.153.407h.304c.005-.04.009-.094.005-.167v-5.458h.219V12h-.219v-.406h-.156ZM37 12.15l-1.284 3.328-.733-2.197h-.076l.721 2.214-.852 1.942a.637.637 0 0 1-.087.157.16.16 0 0 0 .05-.006l.006-.009 1.022-2.172.76 2.282a.714.714 0 0 0 .08 0 .622.622 0 0 1-.13-.3l-.665-1.93L37 12.376v-.226Zm.807.912h.261l-.488 2.126h-.549v.74l-.155-.45.931-2.415Zm.255 4.063v1.469h.188v-1.469h-.188Zm1.109-.25h.048v-.05a.908.908 0 0 1-.048.05Zm-.22-3.094h-.022l-.434 1.892a.575.575 0 0 1-.327.452h.31l.001-.009.472-2.335Zm-1.295 4.906h-.986a1.273 1.273 0 0 1-.66-.12.827.827 0 0 1-.407-.475 1.02 1.02 0 0 1-.64.47h.7l.223 1.157h.051V19h1.72v-.313Zm1 .907v.375h.188v-.375h-.188Zm.688 1.375h-.268l-.26.468h.528v-.468ZM38.469 20h-.186l-1.158 2.187v.243L38.469 20Zm-1.344 2.438v.03h3.178l.022.003a.516.516 0 0 0 .136-.002.511.511 0 0 0 .008-.135v-1.147h-.125v.5c0 .166-.041.402-.238.577a.746.746 0 0 1-.567.174h-2.414Zm-1-.375v-.125l.133-.25h-.542l.075.375h.334Zm-1.486-.125.165.848c.015.082.033.142.049.183h.293l-.01-.006a.67.67 0 0 1-.29-.528l-.1-.497h-.107Zm.827 2.406-.276.92-.012.027a.839.839 0 0 1-.3.375.71.71 0 0 1-.093.053h.272a.84.84 0 0 0 .115 0l.387-1.375h-.093Zm1.365 1.375H37.244a.33.33 0 0 0 .07-.002.579.579 0 0 0 .03-.217v-1.719h-.157V25a.968.968 0 0 1-.101.47.612.612 0 0 1-.255.249Zm1.825 0h.157V23.78h-.157v1.938Zm1.5-1.938v1.74l-.002.02a.609.609 0 0 0 .005.174c.02.003.051.006.1.004h.335v-.05a.602.602 0 0 1-.18-.167.803.803 0 0 1-.133-.47v-1.25h-.125Zm-4.748-3.093a.661.661 0 0 1-.468-.596l-.102-.53h-.146l.18 1.007.002.032a.451.451 0 0 0 .014.096.527.527 0 0 0 .138-.005l.034-.005h.348Z" fill="#505050"/><path d="M35.344 4.031H34v-.906h2.531v1.938c.042.687-.218.99-.781.906h-.594v.968h1.282v2.407c.041.583-.198.844-.72.781H34v-.813h1.125c.125.021.188-.052.188-.218V7.875H34V5h1.125c.167.02.24-.052.219-.219v-.75Zm1.5 1.469V3.125h4.25v1.656c-.021.5-.26.74-.719.719h-.844v.344h1.532v2c.02.52-.24.76-.782.718h-.75v.72h.282c.104.02.156-.032.156-.157V8.75h1.062v.781c0 .438-.198.656-.593.656h-3.813v-.906h1.719v-.75H36.78V5.844h1.594V5.5h-1.531Zm1.093-.875h1.876c.124.02.187-.042.187-.188v-.406h-2.063v.594Zm.407 3.063V6.75h-.438v.938h.438Zm1.187 0h.25c.125.02.188-.032.188-.157v-.75h-.438v.907ZM37.781 12.563V11.5h1.938v-.406h1.156v.406h.219v1.063h-.219V17.5c.02.5-.156.73-.531.688H38.75v-.813h.875c.063 0 .094-.031.094-.094v-4.718H37.78Zm-3.656-.344v-1H37.5v1.25l-1.156 3 .625 1.812c0 .104.062.146.187.125h.407v.782h-.907c-.354.02-.552-.084-.593-.313l-.376-1.125-.5 1.063c-.104.187-.27.28-.5.28h-.78v-.75h.25c.083 0 .135-.03.156-.093l.78-1.781-.874-2.688h1.125L35.75 14l.688-1.781h-2.313ZM38 15.594l.531-2.313h1.032l-.594 2.938c-.063.291-.23.427-.5.406h-.938v-.938h.344c.083 0 .125-.03.125-.093ZM34.375 20.625l-.281-1.563h1.156l.188.97c0 .145.093.208.28.187h.5v.968h-1.124c-.459.063-.698-.125-.719-.562Zm2.063-1.125h1.718v-.406h1.188v.406h1.781v.969h-2.344l-.812 1.468h1.593c.188.021.282-.062.282-.25v-1h1.125v1.625c.02.48-.209.698-.688.657h-3.656v-.907l.844-1.593h-1.032V19.5Zm-2.126 3.375-.28-1.438h1.124l.188.938c0 .167.093.23.281.188h.594v.906h-1.344c-.292.062-.48-.136-.563-.594Zm1.813 2.406h.406c.104.021.157-.073.157-.281v-1.719h1.156V25.5c0 .5-.209.74-.625.719h-1.094v-.938Zm2.031.938V23.28h1.157v2.938h-1.157Zm1.5-.719v-2.219h1.125v1.75c0 .167.052.24.157.219h.156v.969h-.813c-.458.02-.666-.219-.625-.719Zm-4.937-.406.375-1.25h1.125l-.563 2c-.02.27-.229.396-.625.375h-.968v-.938h.374c.126.021.22-.041.282-.187Z" fill="#fff"/><path fill="#C93E34" d="M17 29h29v9H17z"/><path fill-rule="evenodd" clip-rule="evenodd" d="m24.383 29.546.033.002c.266.018.523.076.748.195v-.134h4.375c.376.013.743.09 1.027.303.103.078.187.167.254.265l.058-.066c.349-.38.836-.545 1.378-.564h.035c.502.018.956.166 1.295.498v-.436h1.737l.294.615v-.615h1.578v.411c.323-.289.743-.433 1.21-.471l.02-.002h.02c.491 0 .948.083 1.294.324.38.265.55.665.55 1.113v.5h-.047v1.794l-.356.107a2.717 2.717 0 0 1-.753.115c-.19.022-.422.031-.688.031h-.023c-.47-.022-.897-.154-1.227-.441v.41h-1.709l-.322-.69v.69h-1.578v-.449c-.342.328-.799.468-1.3.48h-.024a2.414 2.414 0 0 1-.66-.1l.055.069h-2.102l-.095-.379a4.138 4.138 0 0 1-.046-.207v.586H27.79v-2.406h-.14V33.5h-1.626v-2.406h-.146l.02.343h-.167c.142.187.222.413.215.67v.004c-.015.424-.175.805-.521 1.069-.324.245-.748.34-1.2.351h-.02c-.435-.006-.855-.099-1.167-.367-.33-.284-.45-.685-.435-1.102l.016-.484h.212a1.087 1.087 0 0 1-.15-.591v-.014c.022-.412.184-.78.513-1.04.311-.247.718-.355 1.156-.385l.034-.002Zm7.743 1.504c-.036.052-.092.194-.087.505v.015c-.005.312.051.45.085.498.012.018.02.023.03.027a.256.256 0 0 0 .109.014h.01c.06 0 .087-.01.096-.015.008-.003.017-.01.031-.03.037-.052.092-.194.092-.502 0-.313-.056-.46-.094-.516-.014-.022-.024-.028-.031-.031a.216.216 0 0 0-.094-.015c-.066 0-.099.012-.112.018a.083.083 0 0 0-.035.032Zm-9.712 2.497h.018c.502.018.956.166 1.295.498v-.436h1.736l.295.615v-.615h2.393l.396 1.204.396-1.204h3.674v.349c.294-.267.672-.394 1.09-.41l.016-.001h.017c.302.008.591.058.846.171v-.109h4.266v.404c.339-.31.786-.449 1.28-.466h.034c.502.018.956.166 1.295.498v-.436h1.737l.294.615v-.615h1.578V37.5h-1.709l-.322-.69v.69h-1.578v-.449c-.342.328-.799.468-1.3.48h-.024c-.493-.011-.943-.142-1.285-.448v.417h-1.625v-2.406h-.157V37.5h-1.625v-1.421.016c-.029.424-.187.81-.525 1.078-.322.256-.742.352-1.187.358h-.02c-.395-.01-.759-.12-1.049-.355v.324H29.68v-1.304L29.2 37.5h-1.37l-.494-1.346V37.5h-1.709l-.322-.69v.69h-1.578v-.449c-.342.328-.8.468-1.301.48h-.023c-.54-.012-1.028-.167-1.38-.539a1.513 1.513 0 0 1-.054-.061c-.067.088-.145.17-.236.242-.323.256-.742.352-1.187.358h-.02c-.499-.013-.947-.183-1.26-.566-.3-.366-.418-.855-.43-1.392V35.552c.012-.545.13-1.041.425-1.414.31-.39.756-.57 1.258-.59l.017-.001h.017c.446.012.865.116 1.186.379.089.073.165.154.23.242.016-.02.032-.038.05-.057.348-.38.836-.545 1.378-.564h.017Zm-1.89 2.016v-.016h-.893l-.029-.47a.305.305 0 0 0-.01-.065l-.003-.001c-.04.078-.086.246-.097.551.01.301.055.466.093.542l.008-.002a.353.353 0 0 0 .01-.069l.027-.47h.893Zm13.256.539a.353.353 0 0 0 .01-.069l.028-.47h1.627v-.016h-1.627l-.028-.47a.305.305 0 0 0-.01-.065l-.004-.001c-.04.078-.086.246-.096.551.01.301.055.466.093.542l.007-.002ZM22.267 35.05c-.036.052-.092.194-.087.505v.015c-.005.312.051.45.085.498.012.018.02.023.029.027a.257.257 0 0 0 .11.014h.01c.06 0 .087-.01.096-.015a.076.076 0 0 0 .03-.03c.037-.052.093-.194.093-.502 0-.313-.056-.46-.094-.516-.015-.022-.025-.028-.032-.031a.216.216 0 0 0-.093-.015c-.066 0-.1.012-.112.018a.083.083 0 0 0-.035.032Zm17.734 0c-.036.052-.092.194-.087.505v.015c-.005.312.051.45.085.498.012.018.02.023.03.027a.256.256 0 0 0 .109.014h.01c.06 0 .087-.01.096-.015.008-.003.017-.01.031-.03.037-.052.092-.194.092-.502 0-.313-.056-.46-.094-.516-.014-.022-.024-.028-.031-.031a.216.216 0 0 0-.094-.015c-.066 0-.099.012-.112.018a.083.083 0 0 0-.035.032Z" fill="#505050"/><path d="M25.367 30.938h-.594c-.02-.292-.177-.438-.468-.438-.302.02-.459.146-.47.375-.02.219.157.354.532.406l.063.032c.687.135 1.026.395 1.015.78-.02.605-.432.917-1.234.938-.76-.01-1.13-.328-1.11-.953h.626c0 .344.161.521.484.531.375-.01.568-.135.578-.375 0-.187-.182-.323-.547-.406a1.506 1.506 0 0 1-.11-.031c-.645-.136-.963-.401-.952-.797.03-.583.432-.901 1.203-.953.625.041.953.338.984.89ZM25.664 30.594v-.485h2.344v.485h-.86V33h-.625v-2.406h-.859ZM28.914 30.594v.765h.516c.28 0 .427-.135.437-.406-.01-.24-.156-.36-.437-.36h-.516Zm0 1.25V33h-.625v-2.89h1.234c.657.02.99.27 1 .75-.01.374-.208.609-.593.703v.015c.28.031.453.245.515.64 0 .032.006.063.016.094.02.355.073.584.156.688h-.672a3.824 3.824 0 0 1-.11-.781c-.03-.25-.119-.375-.265-.375h-.656ZM32.273 33.031c-.906-.02-1.37-.51-1.39-1.468.02-.98.484-1.485 1.39-1.516.886.031 1.344.536 1.375 1.515-.03.959-.49 1.448-1.375 1.47Zm0-2.531c-.5 0-.744.354-.734 1.063-.01.708.234 1.057.734 1.046.48 0 .72-.349.72-1.047 0-.708-.24-1.062-.72-1.062ZM36.695 33h-.89l-1.125-2.406-.016.015V33h-.578v-2.89h.922l1.094 2.28.015-.015v-2.266h.578V33ZM39.133 31.938h-.563v-.485h1.172v1.453a2.214 2.214 0 0 1-.64.094c-.167.02-.386.031-.657.031-.885-.041-1.338-.531-1.36-1.468.022-.938.475-1.443 1.36-1.516.896 0 1.344.312 1.344.937h-.656c0-.323-.193-.484-.578-.484-.542.02-.813.375-.813 1.063 0 .687.271 1.036.813 1.046.156 0 .338-.015.547-.047.01 0 .02-.005.03-.015v-.61ZM20.758 35.047h-.656c-.021-.344-.209-.526-.563-.547-.344.02-.526.375-.547 1.063.021.687.203 1.036.547 1.046.354-.01.542-.192.563-.547h.656c-.042.636-.448.959-1.219.97-.781-.022-1.182-.511-1.203-1.47.02-.979.422-1.484 1.203-1.515.77.02 1.177.354 1.219 1ZM22.414 37.031c-.906-.02-1.37-.51-1.39-1.468.02-.98.484-1.485 1.39-1.516.885.031 1.344.536 1.375 1.516-.031.958-.49 1.447-1.375 1.468Zm0-2.531c-.5 0-.745.354-.734 1.063-.01.708.234 1.057.734 1.046.48 0 .719-.349.719-1.047 0-.708-.24-1.062-.719-1.062ZM26.836 37h-.89l-1.126-2.406-.015.015V37h-.578v-2.89h.921l1.094 2.28.016-.015v-2.266h.578V37ZM28.18 37l-1.063-2.89h.672l.75 2.28h.016l.75-2.28h.61L28.851 37h-.672ZM30.18 37v-2.89h1.937v.484h-1.312v.672h1.218v.484h-1.218v.766h1.36V37H30.18ZM34.945 35.047h-.656c-.02-.344-.208-.526-.562-.547-.344.02-.526.375-.547 1.063.02.687.203 1.036.547 1.046.354-.01.541-.192.562-.547h.656c-.041.636-.448.959-1.218.97-.782-.022-1.183-.511-1.204-1.47.021-.979.422-1.484 1.204-1.515.77.02 1.177.354 1.218 1ZM35.086 34.594v-.485h2.344v.485h-.86V37h-.625v-2.406h-.86ZM38.352 34.11V37h-.625v-2.89h.625ZM40.148 37.031c-.906-.02-1.37-.51-1.39-1.468.02-.98.484-1.485 1.39-1.516.886.031 1.344.536 1.375 1.516-.03.958-.49 1.447-1.375 1.468Zm0-2.531c-.5 0-.744.354-.734 1.063-.01.708.234 1.057.734 1.046.48 0 .72-.349.72-1.047 0-.708-.24-1.062-.72-1.062ZM44.57 37h-.89l-1.125-2.406-.016.015V37h-.578v-2.89h.922l1.094 2.28.015-.015v-2.266h.578V37Z" fill="#fff"/><defs><clipPath id="a"><path fill="#fff" d="M0 0h48v40H0z"/></clipPath></defs></svg>