<svg width="48" height="40" fill="none" xmlns="http://www.w3.org/2000/svg"><g clip-path="url(#a)"><path fill-rule="evenodd" clip-rule="evenodd" d="M0 38a2 2 0 0 0 2 2h44a2 2 0 0 0 2-2V2A2 2 0 0 0 46.15.005L46 0H2l-.15.005A2 2 0 0 0 0 2v36ZM27 2H2v25h25V2ZM2 29v9h13v-9H2Zm15 9h29v-9H17v9Zm29-11V2H29v25h17Z" fill="#505050"/></g><path fill="#C93E34" d="M2 29h13v9H2z"/><path fill-rule="evenodd" clip-rule="evenodd" d="M7.926 35.07v-.847H6.668l1.613-2.57h-1.12l-.384.628h-.355l1.203-1.886H6.559l-1.04 1.613v1.039h.876l-.875 1.258v.765h2.406Zm3.8 1.532v-.875h-1.285V31.27H11.7v-.875H8.281v.875h1.094v4.457H8.254v.875h3.473Zm-3.8-.903v.82H5.492v-.82h2.434Z" fill="#fff"/><path d="M7.926 34.223h.5v-.5h-.5v.5Zm0 .847v.5h.5v-.5h-.5Zm-1.258-.847-.424-.266-.48.766h.904v-.5Zm1.613-2.57.424.265.48-.766h-.904v.5Zm-1.12 0v-.5h-.282l-.146.24.427.26Zm-.384.628v.5h.281l.146-.24-.427-.26Zm-.355 0L6 32.012l-.49.77h.912v-.5Zm1.203-1.886.422.268.49-.768h-.912v.5Zm-1.066 0v-.5h-.273l-.148.229.42.27Zm-1.04 1.613-.42-.27-.08.123v.147h.5Zm0 1.039h-.5v.5h.5v-.5Zm.876 0 .41.285.546-.785h-.956v.5Zm-.875 1.258-.41-.286-.09.129v.157h.5Zm0 .765h-.5v.5h.5v-.5Zm6.207.657h.5v-.5h-.5v.5Zm0 .875v.5h.5v-.5h-.5Zm-1.286-.875h-.5v.5h.5v-.5Zm0-4.457v-.5h-.5v.5h.5Zm1.258 0v.5h.5v-.5h-.5Zm0-.875h.5v-.5h-.5v.5Zm-3.418 0v-.5h-.5v.5h.5Zm0 .875h-.5v.5h.5v-.5Zm1.094 0h.5v-.5h-.5v.5Zm0 4.457v.5h.5v-.5h-.5Zm-1.121 0v-.5h-.5v.5h.5Zm0 .875h-.5v.5h.5v-.5Zm-.328-.082v.5h.5v-.5h-.5Zm0-.82h.5v-.5h-.5v.5Zm-2.434.82h-.5v.5h.5v-.5Zm0-.82v-.5h-.5v.5h.5Zm1.934-1.477v.847h1v-.847h-1Zm-.758.5h1.258v-1H6.668v1Zm1.19-3.336-1.614 2.57.847.532 1.614-2.57-.847-.532Zm-.698.765h1.121v-1h-1.12v1Zm.044.39.383-.63-.854-.52-.383.63.854.52Zm-.782.24h.355v-1h-.355v1Zm.781-2.656L6 32.012l.843.538 1.204-1.887-.844-.537Zm-.644.768h1.066v-1H6.559v1Zm-.62 1.385 1.04-1.614-.84-.541-1.04 1.613.84.542Zm.08.768v-1.04h-1v1.04h1Zm.376-.5H5.52v1h.875v-1ZM5.93 34.59l.875-1.258-.82-.57-.876 1.257.821.571Zm.09.48v-.765h-1v.765h1Zm1.906-.5H5.52v1h2.406v-1Zm3.3 1.157v.875h1v-.875h-1Zm-.785.5h1.286v-1H10.44v1Zm-.5-4.957v4.457h1V31.27h-1Zm1.758-.5h-1.258v1H11.7v-1Zm-.5-.375v.875h1v-.875h-1Zm-2.918.5H11.7v-1H8.281v1Zm.5.375v-.875h-1v.875h1Zm.594-.5H8.281v1h1.094v-1Zm.5 4.957V31.27h-1v4.457h1Zm-1.621.5h1.121v-1H8.254v1Zm.5.375v-.875h-1v.875h1Zm2.973-.5H8.254v1h3.473v-1Zm-3.301.418v-.82h-1v.82h1Zm-2.934.5h2.434v-1H5.492v1Zm-.5-1.32v.82h1v-.82h-1Zm2.934-.5H5.492v1h2.434v-1Z" fill="#505050"/><path fill-rule="evenodd" clip-rule="evenodd" d="M7.834 35.07v-.847H6.576l1.613-2.57H7.068l-.383.628H6.33l1.203-1.886H6.466l-1.039 1.613v1.039h.875l-.875 1.258v.765h2.407Zm3.8 1.532v-.875H10.35V31.27h1.258v-.875H8.19v.875h1.094v4.457H8.162v.875h3.472Zm-3.8-.903v.82H5.4v-.82h2.434Z" fill="#fff"/><path fill="#CCC" d="M2 2h25v25H2z"/><path d="M23.652 20.016a9.943 9.943 0 0 1-.32.514l-.001.003c-.111.167-.227.33-.348.49l-.004.005c-.12.16-.245.314-.374.465l-.006.007c-.129.15-.262.297-.4.44l-.008.008a9.93 9.93 0 0 1-.423.412l-.01.01-.143.13-.005.004c-.097.085-.196.17-.297.251l-.013.011-.148.118-.01.008a9.895 9.895 0 0 1-.308.23l-.016.012c-.05.036-.101.072-.153.107l-.014.01c-.105.072-.211.142-.319.21l-.017.01c-.052.034-.105.066-.158.098l-.019.011a9.93 9.93 0 0 1-.328.189l-.02.01a10 10 0 0 1-.161.087l-.024.012c-.055.029-.111.058-.167.085h-.001a9.447 9.447 0 0 1-.17.083l-.02.01a10.829 10.829 0 0 1-.363.162l-.01.003a8.918 8.918 0 0 1-.168.07l-.021.008a9.643 9.643 0 0 1-.17.066l-.03.01c-.058.022-.115.043-.173.063l-.016.006a9.66 9.66 0 0 1-.17.057l-.02.007-.175.055-.032.01a8.852 8.852 0 0 1-.176.052l-.02.005a8.183 8.183 0 0 1-.37.096l-.035.008a9.615 9.615 0 0 1-.579.118 8.994 8.994 0 0 1-.217.035l-.03.005-.18.025-.012.002a11.39 11.39 0 0 1-.188.022l-.036.004a8.61 8.61 0 0 1-.184.017l-.032.003-.187.014h-.008a8.144 8.144 0 0 1-.415.018h-.035a11.549 11.549 0 0 1-.331.002h-.045l-.091-.003-.053-.002-.083-.002-.056-.003a10.519 10.519 0 0 1-.137-.007l-.078-.005-.057-.004-.079-.006-.055-.005-.08-.007-.054-.005-.085-.009-.048-.005a5.743 5.743 0 0 1-.101-.012l-.031-.004a9.646 9.646 0 0 1-.133-.018l-.022-.003-.11-.016a3.187 3.187 0 0 0-.042-.007l-.088-.014-.049-.008-.082-.015-.05-.01-.08-.015a4.163 4.163 0 0 1-.131-.026l-.05-.01a9.507 9.507 0 0 1-.214-.049l-.042-.01-.096-.024a10.263 10.263 0 0 1-.287-.077l-.019-.005a8.16 8.16 0 0 1-.107-.032l-.034-.01-.09-.028-.04-.012-.085-.028-.041-.013-.084-.029a4.79 4.79 0 0 1-.125-.043l-.038-.014a6.582 6.582 0 0 1-.088-.033l-.034-.012a8.684 8.684 0 0 1-.487-.199l-.009-.004a10.713 10.713 0 0 1-.227-.103l-.027-.013-.09-.043-.03-.014-.088-.045-.028-.014a7.84 7.84 0 0 1-.212-.11l-.017-.01a10.09 10.09 0 0 1-.567-.33l-.012-.008a8.08 8.08 0 0 1-.098-.063l-.016-.01a9.877 9.877 0 0 1-.093-.061l-.017-.011-.093-.063-.015-.01a9.8 9.8 0 0 1-.096-.068l-.01-.006a10.026 10.026 0 0 1-.627-.481l-.004-.004a9.5 9.5 0 0 1-.095-.08l-.008-.007-.092-.079-.007-.007a9.44 9.44 0 0 1-.093-.082l-.005-.004a10.056 10.056 0 0 1-.656-.65l-.002-.001a10.036 10.036 0 0 1-.086-.095l-.005-.005a11.127 11.127 0 0 1-.083-.094l-.004-.004A9.961 9.961 0 0 1 5 15C5 9.477 9.477 5 15 5s10 4.477 10 10a9.954 9.954 0 0 1-1.348 5.016ZM15 6.176a8.824 8.824 0 0 0-6.855 14.38 4.677 4.677 0 0 1 5.635-.603c.97.777 2.305 1.258 3.779 1.258 1.568 0 2.979-.544 3.96-1.412l-.024.004a2.314 2.314 0 0 0 .712-1.698c0-1.219-.883-2.207-1.973-2.207-.576 0-1.094.277-1.455.717a2.466 2.466 0 0 1 4.798.463A8.824 8.824 0 0 0 15 6.177Zm4.978 5.412L17.24 8.85l-.833.833-.829-.828 1.199-1.199a.586.586 0 0 1 .866-.042l.012.015.006-.006.38.379.004-.005 2.762 2.762a.585.585 0 1 1-.829.829Zm-1.218 1.813.014.014a.584.584 0 0 1-.414.999.585.585 0 0 1-.413-.172l-.013-.014h-.001l-4.002-4-4 4H9.93l-.014.014a.585.585 0 1 1-.828-.829l.014-.013 4.351-4.352a.587.587 0 0 1 .881-.074l.005-.004.425.425-.005.005L18.76 13.4Zm-1.26 1.325v1.407c-.506.45-.84 1.227-.84 2.109 0 .307.041.614.125.91a2.04 2.04 0 0 1-.437.047c-.505 0-.957-.182-1.262-.469h-.008V15.888a.166.166 0 0 0-.166-.166H12.842a.166.166 0 0 0-.166.166V18.73h-.011a3.149 3.149 0 0 0-2.313-.066v-3.938l3.574-3.515 3.574 3.515Zm-.088 5.287c.926 0 1.743-.284 2.236-.717.275-.175.45-.431.45-.717 0-.526-.59-.953-1.319-.953-.122 0-.243.012-.362.037.211-.29.574-.482.987-.482.169 0 .335.032.49.096l-.007-.014.074.044c.13.062.246.147.345.252.324.287.514.635.514 1.011 0 .984-1.303 1.781-2.91 1.781-1.01 0-1.898-.314-2.42-.792l.066.005c.486.278 1.139.449 1.856.449ZM29 2h17v25H29z" fill="#C93E34"/><path d="M34.531 9.373c.188.02.271-.063.25-.25v-6H41.5v6.062c0 .146.073.23.219.25v.781h-.938a.423.423 0 0 1-.406-.25h-1.219c-.25.021-.406-.062-.468-.25l-.563-1.03-.5.874c-.104.292-.302.427-.594.406h-1.125c-.041.209-.177.292-.406.25h-.969v-.843Zm5.75-.25V4.09H35.97v5.032h.468c.146 0 .23-.042.25-.125L37.5 7.56 36 4.654h1.25l.906 1.75.907-1.75h1.156L38.75 7.529l.75 1.344c.063.166.156.25.281.25h.5ZM34.594 13.498v-2.344h6.843v1.687c-.062.396-.229.615-.5.657h-.25v.218h.844v.594h-.843v.281h.843v.563h-1.625c.063.187.146.281.25.281h1.375v.656h-2.125c-.291 0-.666-.312-1.125-.937h-.562l-.313.375-.187.187c-.23.292-.448.427-.657.407h-2.124v-.657h1.437c.083 0 .177-.083.281-.25.021-.02.032-.041.032-.062h-1.75v-.563h.843v-.28h-.843v-.563h.843v-.25h-.687Zm5.625-1.438v-.25H35.78v.25h4.438Zm-4.438.563v.25h4.438v-.25H35.78Zm.719.875v.25h2.969v-.25H36.5Zm2.969 1.093v-.28H36.5v.28h2.969Zm-2.157 2.97c.063 0 .094-.022.094-.063v-1.594h1.188v1.594c.02.479-.219.708-.719.687h-.938v-.625h.376Zm-.5-.25c-.02.04-.041.093-.062.155-.167.48-.396.709-.688.688h-1.656v-.594h.938a.423.423 0 0 0 .406-.25h1.063Zm-1.468-.095c-.23 0-.448-.218-.657-.656l-.124-.25h1.156c.104.167.24.25.406.25h.813v.656h-1.594ZM39 16.53h.969c.083 0 .166-.052.25-.156l.031-.032h1.156a.34.34 0 0 0-.062.125c-.23.521-.48.771-.75.75H39v-.687Zm.969 1.687c-.313.042-.615-.229-.907-.812h1.063c.02 0 .052.02.094.062.146.063.26.094.343.094h.907v.656h-1.5ZM36.531 19.435h.782v-.312h1.03v.312h.876v.844h-.875v.375h.718v3.531c.042.458-.166.667-.624.625h-.094v.344h.781v.219h.125c.063 0 .094-.042.094-.125v-6.125h2.468v6.437c.084.52-.135.74-.656.656h-.687v-.875h.125c.083 0 .125-.041.125-.125v-.968h-.344v1.312c.042.5-.167.73-.625.688h-.625v-.282h-.781v.282H37.28v-.282h-.875v-.812h.875v-.344h-.75v-4.156h.782v-.375h-.782v-.844Zm-1.5 1.188-.281-1.47h1.156l.188 1c.02.126.083.188.187.188h.094v.907h-.688c-.395.041-.614-.167-.656-.625Zm5.344.593h.344V20.03h-.344v1.187Zm-5.406 1.657-.157-1.313h1.094l.125.813c.021.145.084.208.188.187h.125v.906h-.75c-.417.063-.625-.135-.625-.593Zm2.687-.594h.375v-.75h-.375v.75Zm2.719.969h.344v-1.125h-.344v1.125Zm-2.344.468v-.53h-.375v.75h.157c.145 0 .218-.074.218-.22Zm-2.718 2.532h-.532v-.813h.125c.125.02.198-.031.219-.156l.375-1.5h.969l-.438 1.906c-.02.438-.26.625-.718.563Z" fill="#fff"/><path fill-rule="evenodd" clip-rule="evenodd" d="M34.281 8.94V3.123a.5.5 0 0 1 .5-.5H41.5a.5.5 0 0 1 .5.5v5.899a.5.5 0 0 1 .219.413v.781a.5.5 0 0 1-.5.5h-.04a.5.5 0 0 1 .258.438v1.687a.497.497 0 0 1-.006.078 1.822 1.822 0 0 1-.104.394.5.5 0 0 1 .204.403v.594a.498.498 0 0 1-.02.14c.013.045.02.093.02.141v.563a.498.498 0 0 1-.02.14c.013.045.02.092.02.141v.656c0 .131-.05.25-.133.34a.5.5 0 0 1-.08.194 3.217 3.217 0 0 1-.228.45.5.5 0 0 1 .379.485v.656a.5.5 0 0 1-.209.407h.053a.5.5 0 0 1 .5.5v6.4c.041.302.022.675-.248.945-.271.271-.644.29-.946.248h-.65a.5.5 0 0 1-.192-.038c-.179.07-.37.083-.548.07h-.604a.499.499 0 0 1-.39-.188.5.5 0 0 1-.391.188H37.28a.5.5 0 0 1-.45-.282h-.425a.5.5 0 0 1-.15-.023.92.92 0 0 1-.112.105c-.26.203-.578.233-.863.2h-.5a.5.5 0 0 1-.5-.5v-.813a.5.5 0 0 1 .413-.492l.27-1.082a.875.875 0 0 1-.183-.134c-.24-.228-.307-.543-.312-.823l-.153-1.285a.5.5 0 0 1 .312-.523 1.573 1.573 0 0 1-.092-.402l-.277-1.446a.5.5 0 0 1 .491-.594h-.344a.5.5 0 0 1-.5-.5v-.594a.5.5 0 0 1 .483-.5 3.123 3.123 0 0 1-.15-.28l-.101-.201v-.001l-.001-.002-.001-.002h-.001v-.002l-.001-.001v-.001l-.001-.001v-.001l-.001-.001v-.001l-.001-.001v-.002h-.001v-.002h-.001v-.002h-.001v-.002h-.001v-.001l-.001-.001v-.001l-.001-.001v-.001l-.001-.001v-.001h-.001v-.002l-.001-.001v-.001l-.001-.002-.001-.002h-.001v-.002l-.001-.001v-.001l-.001-.001v-.001l-.001-.001v-.001a.496.496 0 0 1-.021-.047.498.498 0 0 1-.157-.364v-.657c0-.054.008-.107.024-.156a.499.499 0 0 1-.025-.156v-.563c0-.048.008-.096.02-.14a.502.502 0 0 1-.02-.14v-.563c0-.143.06-.272.157-.364v-2.23a.5.5 0 0 1 .297-.457.5.5 0 0 1-.36-.48v-.844a.5.5 0 0 1 .25-.433Zm1.674 1.714h4.473a.889.889 0 0 1-.298-.188h-.955a1.029 1.029 0 0 1-.559-.105.833.833 0 0 1-.385-.437l-.116-.213-.036.063c-.079.2-.205.387-.398.519-.206.14-.439.186-.665.173h-.81a.74.74 0 0 1-.25.188Zm-.049-.688h1.125c.292.021.49-.114.594-.406l.5-.875.563 1.031c.062.188.218.271.468.25h1.219c.083.167.219.25.406.25h.938v-.78c-.146-.022-.219-.105-.219-.25V3.122h-6.719v6c.017.15-.033.233-.15.25a.4.4 0 0 1-.1 0v.843h.969c.23.042.365-.041.406-.25ZM38.75 7.53l.75 1.344c.063.166.156.25.281.25h.5V4.09H35.97v5.032h.468l.032-.001c.126-.006.2-.047.218-.124L37.5 7.56 36 4.654h1.25l.906 1.75.907-1.75h1.156L38.75 7.529Zm-.218-2.938-.376.726-.375-.726h.75Zm-2.063 2.061v1.716l.463-.819-.463-.897Zm3.312-.043-.464.91.464.832V6.609Zm-5.187 6.889h.687v.25h-.843v.562h.843v.281h-.843v.563h1.75c0 .02-.01.041-.032.062-.104.167-.198.25-.281.25h-1.438v.657h2.126a.486.486 0 0 0 .28-.063 1.063 1.063 0 0 0 .209-.156c.054-.053.11-.116.167-.188l.187-.187.313-.375h.562a6.507 6.507 0 0 0 .313.392c.132.15.255.27.37.358a1.309 1.309 0 0 0 .2.125.56.56 0 0 0 .242.062h2.125v-.656h-1.375c-.104 0-.187-.094-.25-.281h1.625v-.563h-.843v-.28h.843v-.595h-.843v-.218h.25a.51.51 0 0 0 .383-.282c.054-.099.093-.224.117-.375v-1.687h-6.844v2.344Zm1.187-1.688v.25h4.438v-.25H35.78Zm4.438 1.063v-.25H35.78v.25h4.438Zm-.75 1.718v-.28H36.5v.28h2.969ZM36.5 13.498v.25h2.969v-.25H36.5Zm4.906 2.843H40.25l-.031.032c-.084.104-.167.156-.25.156H39v.687h1.594c.13.01.254-.042.374-.156.06-.057.12-.13.178-.219a2.335 2.335 0 0 0 .198-.375.34.34 0 0 1 .062-.125Zm-.843 1.22a.949.949 0 0 1-.344-.095c-.042-.041-.073-.062-.094-.062h-1.063a3.474 3.474 0 0 0 .177.312c.045.07.09.133.136.188.193.235.391.34.594.312h1.5v-.656h-.907Zm-1.084 1.062a1.284 1.284 0 0 1-.305-.206 1.855 1.855 0 0 1-.227-.247.962.962 0 0 1-.172.22 1.013 1.013 0 0 1-.4.233.5.5 0 0 1 .432.312h.073a.5.5 0 0 1 .464-.312h.135Zm-.135.5v6.125c0 .083-.032.125-.094.125h-.125v-.22h-.781v-.343h.093c.077.007.146.007.209 0a.556.556 0 0 0 .198-.056.378.378 0 0 0 .121-.1c.084-.105.116-.262.097-.469v-3.531h-.718v-.375h.875v-.844h-.875v-.312h-1.032v.312h-.78v.844h.78v.375h-.78v4.156h.75v.344h-.876v.812h.875v.282h1.063v-.282h.781v.282h.625a.944.944 0 0 0 .22-.004.575.575 0 0 0 .113-.028c.224-.081.322-.3.292-.656v-1.312h.344v.968c0 .084-.042.125-.125.125h-.125v.875h.687c.521.084.74-.135.657-.656v-6.437h-2.47Zm-3.313 6.562.438-1.906H35.5l-.375 1.5c-.015.09-.056.141-.124.156a.253.253 0 0 1-.095 0h-.125v.813h.532c.287.039.489-.02.604-.178a.496.496 0 0 0 .058-.104.833.833 0 0 0 .056-.28Zm-.437-2.219h.75v-.906h-.125a.16.16 0 0 1-.07 0c-.063-.016-.102-.078-.118-.187l-.125-.813h-1.093l.156 1.313c0 .26.067.437.202.53a.518.518 0 0 0 .329.073 1.02 1.02 0 0 0 .094-.01Zm.093-2.218h.688v-.907h-.094a.175.175 0 0 1-.11-.034.163.163 0 0 1-.029-.028.275.275 0 0 1-.048-.125l-.188-1H34.75l.281 1.469a.862.862 0 0 0 .14.437c.11.15.283.212.517.188Zm.681-2.286a.497.497 0 0 1 .163-.027h.318a.502.502 0 0 1 .221-.25h-.133a.499.499 0 0 1-.362-.156.956.956 0 0 1-.527.125h-.142a.5.5 0 0 1 .462.308Zm-.306-.808a.48.48 0 0 0 .376-.141.921.921 0 0 0 .157-.203 1.538 1.538 0 0 0 .12-.25 2.45 2.45 0 0 0 .035-.094c.02-.062.042-.114.063-.156H35.75a.423.423 0 0 1-.406.25h-.938v.594h1.657Zm.876-.938v-.656h-.813c-.167 0-.302-.083-.406-.25h-1.157l.126.25.03.063c.034.068.07.13.104.187.064.103.128.186.194.25.107.104.216.156.328.156h1.593Zm.468.282c0 .041-.031.062-.093.062h-.376v.625h.938c.47.02.71-.182.72-.605v-.071l-.001-.011v-1.594h-1.188v1.594ZM34.285 9.18v.003Zm.304-.304h.003Zm6.13 12.34h-.344V20.03h.344v1.187Zm-3.063.313v.75h.375v-.75h-.375Zm3.063 1.719h-.344v-1.125h.344v1.125Zm-3.063-.063v.75h.157c.145 0 .218-.073.218-.219v-.53h-.375Z" fill="#505050"/><path fill="#C93E34" d="M17 29h29v9H17z"/><path d="M26.594 30.938H26c-.01-.292-.167-.438-.469-.438-.302.02-.458.146-.468.375 0 .188.15.318.453.39.03.011.057.016.078.016.01 0 .036.006.078.016.677.135 1.01.4 1 .797-.01.604-.422.916-1.235.937-.75 0-1.12-.317-1.109-.953h.625c0 .333.162.51.485.531.375-.01.567-.135.578-.375 0-.198-.183-.333-.547-.406a.486.486 0 0 1-.11-.031c-.635-.146-.953-.412-.953-.797.032-.594.433-.912 1.203-.953.625.031.953.328.985.89ZM26.89 30.594v-.485h2.344v.485h-.859V33h-.625v-2.406h-.86ZM30.844 33.031c-.907-.02-1.37-.51-1.39-1.468.03-.99.494-1.495 1.39-1.516.885.02 1.343.526 1.375 1.515-.032.959-.49 1.448-1.375 1.47Zm0-2.531c-.49 0-.735.354-.735 1.063 0 .697.245 1.046.735 1.046.479 0 .718-.349.718-1.047 0-.708-.24-1.062-.718-1.062ZM33.25 30.594v.765h.516c.291 0 .437-.135.437-.406 0-.25-.146-.37-.437-.36h-.516Zm0 1.25V33h-.625v-2.89h1.234c.657.01.99.26 1 .75-.01.374-.208.609-.593.703v.015c.28.031.453.245.515.64.01.042.016.074.016.094.031.344.083.573.156.688h-.672a3.824 3.824 0 0 1-.11-.781c-.02-.25-.108-.375-.265-.375h-.656ZM37.969 30.516 37.156 33h-.515l-.766-2.484-.016.015V33h-.578v-2.89h1.016l.61 2.109h.015l.656-2.11h.969V33h-.578v-2.484ZM26.922 34.938h-.594c-.01-.292-.167-.438-.469-.438-.302.02-.458.146-.468.375 0 .188.15.318.453.39.031.011.057.016.078.016.01 0 .036.005.078.016.677.135 1.01.4 1 .797-.01.604-.422.916-1.234.937-.75 0-1.12-.317-1.11-.953h.625c0 .333.162.51.485.531.375-.01.567-.135.578-.375 0-.198-.183-.333-.547-.406a.485.485 0 0 1-.11-.031c-.635-.146-.953-.412-.953-.797.032-.594.433-.911 1.203-.953.625.031.954.328.985.89ZM29.36 34.11h.624v1.812c-.03.719-.448 1.088-1.25 1.11-.823-.022-1.244-.391-1.265-1.11v-1.813h.625v1.578c-.042.636.172.943.64.922.459.021.667-.286.625-.922V34.11ZM31.14 34.594v.765h.516c.292 0 .438-.135.438-.406 0-.25-.146-.37-.438-.36h-.515Zm0 1.25V37h-.624v-2.89h1.234c.656.01.99.26 1 .75-.01.374-.208.609-.594.703v.015c.282.031.453.245.516.64.01.042.016.074.016.094.03.344.083.573.156.688h-.672a3.817 3.817 0 0 1-.11-.781c-.02-.25-.109-.375-.265-.375h-.656ZM35.14 35.938h-.562v-.485h1.172v1.453a2.215 2.215 0 0 1-.64.094 5.52 5.52 0 0 1-.657.031c-.885-.052-1.338-.541-1.36-1.468.022-.948.475-1.454 1.36-1.516.906 0 1.354.312 1.344.937h-.656c0-.323-.193-.484-.578-.484-.532.01-.803.365-.813 1.063.01.687.281 1.036.813 1.046.156 0 .338-.02.546-.062-.01.01 0 .01.032 0v-.61ZM36.281 37v-2.89h1.938v.484h-1.313v.672h1.219v.484h-1.219v.766h1.36V37H36.28Z" fill="#fff"/><path fill-rule="evenodd" clip-rule="evenodd" d="M26.15 31.438a1.928 1.928 0 0 0-.15-.057 2.871 2.871 0 0 0-.406-.1.257.257 0 0 1-.078-.015c-.302-.073-.453-.203-.453-.391a.353.353 0 0 1 .088-.231c.076-.084.203-.132.38-.144a.901.901 0 0 1 .103.006.44.44 0 0 1 .22.085c.075.06.122.148.139.267a.722.722 0 0 1 .007.08h.594a1.148 1.148 0 0 0-.068-.344.81.81 0 0 0-.135-.233.796.796 0 0 0-.304-.216 1.411 1.411 0 0 0-.478-.098 3.133 3.133 0 0 0-.109.008c-.257.024-.47.082-.637.174-.286.157-.438.414-.457.771 0 .239.122.431.366.578.054.033.115.063.181.092a2.449 2.449 0 0 0 .417.131.574.574 0 0 0 .099.027c.364.073.547.208.547.406a.33.33 0 0 1-.081.213c-.09.102-.256.156-.497.162h-.011a.545.545 0 0 1-.313-.11.45.45 0 0 1-.152-.293.856.856 0 0 1-.009-.128h-.625v.052c.003.175.037.324.1.448a.77.77 0 0 0 .468.378 1.698 1.698 0 0 0 .541.075h.012c.317-.01.573-.064.767-.163.298-.152.45-.41.456-.774.007-.288-.166-.506-.521-.657Zm1.022.667c-.008.425-.166.81-.514 1.074-.325.247-.752.34-1.208.352h-.012c-.433 0-.853-.09-1.166-.359-.33-.283-.45-.684-.444-1.102a.5.5 0 0 1 .274-.438 1.09 1.09 0 0 1-.195-.658c.022-.415.181-.787.513-1.05.313-.248.723-.353 1.162-.376a.5.5 0 0 1 .052 0c.312.015.613.087.865.25a.499.499 0 0 1 .392-.189h2.343a.5.5 0 0 1 .453.287c.32-.234.715-.339 1.145-.349h.023c.493.012.94.15 1.279.469a.5.5 0 0 1 .491-.407h1.242c.353.006.7.071.978.256a.5.5 0 0 1 .436-.256h1.016a.5.5 0 0 1 .48.362l.154.534.17-.544a.5.5 0 0 1 .477-.352h.969a.5.5 0 0 1 .5.5V33a.5.5 0 0 1-.5.5h-.578a.5.5 0 0 1-.407-.209.5.5 0 0 1-.406.209h-.515a.5.5 0 0 1-.391-.188.499.499 0 0 1-.39.188h-.579a.499.499 0 0 1-.164-.028.5.5 0 0 1-.164.028h-.672a.5.5 0 0 1-.485-.379 4.117 4.117 0 0 1-.046-.207V33a.5.5 0 0 1-.5.5h-.625a.5.5 0 0 1-.494-.425c-.34.31-.786.445-1.276.456h-.023c-.539-.012-1.027-.167-1.379-.539-.347-.366-.488-.867-.5-1.419v-.026a3.2 3.2 0 0 1 .045-.453h-.123V33a.5.5 0 0 1-.5.5h-.625a.5.5 0 0 1-.5-.5v-1.906h-.181a.5.5 0 0 1-.182.248c.188.206.292.465.285.763Zm.578.895h.625v-2.406h.86v-.485H26.89v.485h.859V33Zm1.782-2.005a2.43 2.43 0 0 0-.079.567c.014.64.225 1.07.633 1.293.203.11.456.17.758.176.304-.007.558-.07.761-.187.249-.144.422-.371.52-.68.055-.175.086-.375.094-.602a2.38 2.38 0 0 0-.094-.62c-.113-.37-.327-.624-.641-.765a1.652 1.652 0 0 0-1.29 0 1.1 1.1 0 0 0-.487.417c-.075.115-.133.25-.175.401Zm.902-.376c-.216.158-.325.473-.325.944 0 .415.087.706.26.874.116.113.271.17.465.172h.02a.625.625 0 0 0 .458-.175c.167-.17.25-.46.25-.871 0-.473-.106-.788-.32-.945a.648.648 0 0 0-.388-.118h-.02a.671.671 0 0 0-.4.12ZM32.625 33h.625v-1.156h.656c.014 0 .028 0 .04.003.098.015.165.087.2.217.012.044.021.096.026.155.01.27.047.531.11.781h.671c-.059-.092-.104-.259-.136-.5a4.875 4.875 0 0 1-.02-.188.427.427 0 0 0-.016-.093 1.255 1.255 0 0 0-.076-.286.606.606 0 0 0-.19-.26.467.467 0 0 0-.245-.094h-.004v-.017h.001c.043-.01.083-.023.122-.037a.823.823 0 0 0 .205-.107.613.613 0 0 0 .187-.22.793.793 0 0 0 0-.681c-.114-.225-.354-.357-.72-.396a2.222 2.222 0 0 0-.202-.012h-1.234V33Zm.625-1.64h.516a.877.877 0 0 0 .14-.013l.014-.003a.329.329 0 0 0 .274-.28.606.606 0 0 0 .01-.11c0-.181-.077-.294-.23-.339a.557.557 0 0 0-.122-.02.87.87 0 0 0-.086-.001h-.516v.765ZM35.281 33h.578v-2.469l.016-.015.766 2.484h.515l.813-2.484V33h.578v-2.89h-.969l-.656 2.109h-.016l-.61-2.11h-1.015V33Zm-4.577-1.95c-.038.055-.095.2-.095.512 0 .306.057.446.093.498.014.02.025.028.035.032a.25.25 0 0 0 .107.017c.059 0 .086-.01.096-.015a.077.077 0 0 0 .03-.03c.037-.052.093-.194.093-.502 0-.313-.056-.46-.094-.516-.015-.022-.025-.028-.032-.031a.215.215 0 0 0-.093-.015.242.242 0 0 0-.104.017.088.088 0 0 0-.036.033Zm-4.225 4.387a1.946 1.946 0 0 0-.15-.056 2.87 2.87 0 0 0-.407-.1.258.258 0 0 1-.078-.015c-.302-.073-.453-.203-.453-.391a.353.353 0 0 1 .088-.231c.076-.084.203-.132.38-.144a.901.901 0 0 1 .103.006.44.44 0 0 1 .22.085c.075.06.122.148.14.267a.726.726 0 0 1 .006.08h.594c-.011-.2-.06-.367-.147-.5a.775.775 0 0 0-.36-.293 1.411 1.411 0 0 0-.477-.098 3.11 3.11 0 0 0-.11.008c-.257.024-.47.082-.637.174-.285.157-.438.414-.457.771 0 .239.122.431.366.578.054.033.115.063.181.092a2.45 2.45 0 0 0 .417.131.574.574 0 0 0 .099.027c.364.073.547.208.547.406a.33.33 0 0 1-.081.213c-.09.102-.256.156-.497.162h-.011a.545.545 0 0 1-.313-.11.45.45 0 0 1-.152-.293.856.856 0 0 1-.009-.128h-.625v.052c.003.175.037.324.1.448.093.18.249.305.468.378a1.698 1.698 0 0 0 .542.075h.011c.318-.01.573-.064.767-.163a.796.796 0 0 0 .45-.663c.003-.036.005-.073.006-.111a.613.613 0 0 0-.031-.212c-.065-.185-.228-.334-.49-.444Zm.99.485c.002.063.006.123.014.18v.005l.014.075c.06.307.216.53.468.671.193.109.444.168.75.178h.038c.31-.01.56-.073.753-.189.3-.18.46-.486.478-.92v-1.813h-.625v1.578c.023.35-.03.601-.159.752-.103.12-.255.178-.455.17h-.022c-.203.008-.357-.048-.462-.166-.135-.15-.19-.403-.167-.755v-1.579h-.625v1.813Zm-.204.967a1.266 1.266 0 0 1-.279.29c-.325.247-.752.34-1.208.352h-.012c-.433 0-.853-.09-1.166-.359-.33-.283-.45-.684-.444-1.102a.5.5 0 0 1 .274-.438 1.09 1.09 0 0 1-.195-.658c.022-.415.181-.787.513-1.05.313-.248.723-.353 1.162-.376a.5.5 0 0 1 .052 0c.381.018.747.122 1.026.374l.012.012a.5.5 0 0 1 .469-.325h.625a.5.5 0 0 1 .5.5v1.578l-.001.033c-.009.13-.003.226.01.293.009.054.021.08.027.091.01.003.036.008.082.006h.045a.284.284 0 0 0 .068-.004.33.33 0 0 0 .026-.09 1.263 1.263 0 0 0 .008-.328v-1.579a.5.5 0 0 1 .5-.5h.625c.098 0 .189.028.266.077a.497.497 0 0 1 .266-.077h1.242c.377.006.747.08 1.034.296.104.078.189.168.256.267l.029-.033c.337-.376.81-.553 1.34-.59a.515.515 0 0 1 .036-.002c.494 0 .955.082 1.302.324l.064.048a.5.5 0 0 1 .462-.31h1.938a.5.5 0 0 1 .5.5v.485a.499.499 0 0 1-.183.386c.056.081.089.18.089.286v.484a.498.498 0 0 1-.121.326.5.5 0 0 1 .262.44V37a.5.5 0 0 1-.5.5H36.28c-.13 0-.25-.05-.339-.132a2.716 2.716 0 0 1-.802.132 6.193 6.193 0 0 1-.716.03c-.417-.024-.8-.134-1.11-.36a.5.5 0 0 1-.47.33h-.672a.5.5 0 0 1-.485-.379 4.01 4.01 0 0 1-.046-.207V37a.5.5 0 0 1-.5.5h-.625a.5.5 0 0 1-.495-.425 1.464 1.464 0 0 1-.04.037c-.329.291-.766.407-1.234.42h-.025c-.476-.013-.919-.127-1.25-.418a1.37 1.37 0 0 1-.207-.225Zm4.797-.67c.01.27.047.531.11.781h.672c-.059-.092-.104-.259-.136-.5a4.507 4.507 0 0 1-.02-.188.423.423 0 0 0-.016-.093 1.255 1.255 0 0 0-.077-.286.606.606 0 0 0-.19-.26.468.468 0 0 0-.245-.094h-.004v-.017h.002c.043-.01.083-.023.121-.036a.821.821 0 0 0 .205-.108.628.628 0 0 0 .167-.182.767.767 0 0 0 .086-.52c-.06-.347-.322-.546-.785-.595a2.222 2.222 0 0 0-.202-.012h-1.234V37h.625v-1.156h.656c.014 0 .027 0 .04.003.098.015.164.087.2.217a.86.86 0 0 1 .026.155Zm-.362-.86a.675.675 0 0 0 .097-.012l.014-.003a.329.329 0 0 0 .273-.28.598.598 0 0 0 .01-.11c0-.181-.076-.294-.229-.339a.557.557 0 0 0-.123-.02.872.872 0 0 0-.086-.001h-.515v.765h.559Zm1.398.103a3.21 3.21 0 0 0-.004.1c.015.673.257 1.115.727 1.327a1.784 1.784 0 0 0 .733.142h.008c.133-.002.252-.006.357-.013.07-.005.133-.01.19-.018a2.26 2.26 0 0 0 .641-.094v-1.453h-1.172v.484h.563v.61a.218.218 0 0 1-.03.008h-.002c-.005 0-.005-.003 0-.008a2.859 2.859 0 0 1-.547.063 1.197 1.197 0 0 1-.109-.008.737.737 0 0 1-.382-.15c-.207-.166-.315-.462-.321-.89.007-.483.14-.802.397-.955a.772.772 0 0 1 .338-.103l.078-.004c.176 0 .312.034.408.102.106.075.163.192.169.351v.031h.657v-.042a1.056 1.056 0 0 0-.016-.167.77.77 0 0 0-.112-.29c-.103-.157-.267-.271-.492-.344a2.236 2.236 0 0 0-.614-.093h-.01l-.1-.001c-.19.013-.361.047-.512.102a1.163 1.163 0 0 0-.729.723c-.064.17-.102.367-.114.59ZM36.28 37h1.985v-.484h-1.36v-.766h1.219v-.484h-1.219v-.672h1.313v-.485H36.28V37Z" fill="#505050"/><defs><clipPath id="a"><path fill="#fff" d="M0 0h48v40H0z"/></clipPath></defs></svg>