<svg width="48" height="40" fill="none" xmlns="http://www.w3.org/2000/svg"><g clip-path="url(#a)"><path fill-rule="evenodd" clip-rule="evenodd" d="M0 38a2 2 0 0 0 2 2h44a2 2 0 0 0 2-2V2A2 2 0 0 0 46.15.005L46 0H2l-.15.005A2 2 0 0 0 0 2v36ZM27 2H2v25h25V2ZM2 29v9h13v-9H2Zm15 9h29v-9H17v9Zm29-11V2H29v25h17Z" fill="#505050"/></g><path fill="#FFFD54" d="M2 29h13v9H2z"/><path fill-rule="evenodd" clip-rule="evenodd" d="M7.625 36.273a.959.959 0 0 1-.663.329H5.547v-.711h1.121c.11 0 .219-.055.328-.164l.137-.164H5.629v-2.817h2.434v-.328H5.52v-.766h.683v-.328H5.52v-.738h.683v-.273h.957v.273h2.762v-.3h.93v.3h.765v.738h-.765v.328h.793v.766H9.047v.328h2.488v1.914c.091.693-.255.994-1.039.903h-.328l.11.136c0 .018.008.037.027.055.127.091.228.128.3.11h1.04v.683h-1.56c-.29-.037-.482-.11-.573-.219l-.63-.766h-.519l-.738.711Zm-.465-4.62h2.735v-.329H7.16v.328Zm.875 2.132h-1.45v-.3h1.45v.3Zm1.012 0h1.558v-.3H9.047v.3Zm1.504 1.067H9.074v-.329h1.559v.22c0 .072-.027.109-.082.109Zm-3.965 0h1.45v-.329h-1.45v.329Z" fill="#fff" stroke="#505050"/><path fill-rule="evenodd" clip-rule="evenodd" d="M7.545 36.273a.959.959 0 0 1-.663.329H5.467v-.711h1.121c.11 0 .22-.055.329-.164l.136-.164H5.55v-2.817h2.434v-.328H5.44v-.766h.684v-.328H5.44v-.738h.684v-.273h.957v.273h2.761v-.3h.93v.3h.766v.738h-.766v.328h.793v.766H8.967v.328h2.489v1.914c.09.693-.256.994-1.04.903h-.328l.11.136c0 .018.009.037.027.055.128.091.228.128.3.11h1.04v.683h-1.559c-.291-.037-.483-.11-.574-.219l-.629-.766h-.52l-.738.711Zm-.464-4.62h2.734v-.329H7.08v.328Zm.875 2.132h-1.45v-.3h1.45v.3Zm1.011 0h1.559v-.3H8.967v.3Zm1.504 1.067H8.995v-.329h1.558v.22c0 .072-.027.109-.082.109Zm-3.965 0h1.45v-.329h-1.45v.329Z" fill="#fff"/><path fill="#CCC" d="M2 2h25v25H2z"/><path d="M9.595 17.333H7.333S4.932 16.37 5 14.106c.07-2.264 2.715-3.256 2.715-3.256s-.105-1.146.939-1.565c1.044-.42 1.322-.172 1.322-.172s.174-4.217 4.14-4.111c3.967.106 4.49 4.283 4.49 4.283s1.774.041 2.47 1.14c.696 1.098.835 2.375.835 2.375s2.123.248 2.088 2.055c-.035 1.808-1.67 2.479-1.67 2.479h-1.88l-.66.605 1.183.177-3.897 1.985 1.078-1.311-1.043-.107.591-1.277h-1.044l-1.67 1.703 1.392.709L11.926 24l1.218-2.942-1.6-.07 1.496-3.651-1.635-.003-.731.995.66.567-2.052 2.588.418-1.702-.766-.283.66-2.166ZM29 2h17v25H29z" fill="#FFFD54"/><path fill-rule="evenodd" clip-rule="evenodd" d="M32.578 4.2h9.906v1.938h-.039v6.335c0 .407-.093.804-.367 1.101-.28.305-.67.415-1.07.415h-8.43V4.2Zm1 2.328h.211v2.477h-.21V6.528Zm0 3.867h.367v1.407h.04v1.187h-.407v-2.594Zm3.711 2.594h.445v-1.187h-.039v-1.407h-.367v1.407h-.039v1.187Zm3.867-2.594v2.078a.617.617 0 0 1-.266.516h.118c.224 0 .304-.059.335-.093.039-.042.102-.152.102-.423v-2.078h-.289Zm.29-1.39h-.29V6.528h.29v2.477Zm-3.712-2.578V5.2h-.445v1.227h.04v2.578h.366V6.427h.04ZM38.93 8.95v.039l-.004.03a.491.491 0 0 0 .05.011c.066.013.161.02.292.014H39.475a.744.744 0 0 1-.136-.094h-.41Zm.513-1.234h.159a.421.421 0 0 0 .155-.021.2.2 0 0 0 .007-.034h-.266a.74.74 0 0 1-.055.055Zm-3.938 1.328H35.722a.428.428 0 0 0 .195-.02.233.233 0 0 0 .017-.074h-.31a.64.64 0 0 1-.119.094Zm-2.77 6.156h9.554v2.649l-.006.038a2.09 2.09 0 0 1-.145.516h.268v3.281h.153l-.153.306v.382h-.19l-.019.036c-.012.024-.03.066-.05.13l-.01.026-.01.024a3.332 3.332 0 0 1-.359.62h.56v1.86h-2.361c-.37.017-.69-.137-.95-.379a2.406 2.406 0 0 1-.38-.466 1.187 1.187 0 0 1-.274.434c-.276.277-.65.371-1.027.371h-1.672v-.216c-.168.11-.364.177-.594.177H32.5v-1.781h.665a3.142 3.142 0 0 1-.308-.543l-.005-.01-.004-.012a8.108 8.108 0 0 1-.09-.232h-.219v-.653l-.037-.113h.037v-3.203h.195V15.2Zm1.257 7.445a.758.758 0 0 0 .076.086.224.224 0 0 0 .066.049l.017-.002h.41a1.118 1.118 0 0 1-.159-.133h-.41Zm.926 1.25a1.157 1.157 0 0 1-.105.094h.258c.01 0 .039 0 .097-.06l.03-.034h-.28Zm2.172.133h.246c.222 0 .297-.055.32-.078.023-.023.078-.098.078-.32v-1.492h-.484v1.492a.57.57 0 0 1-.16.398Zm2.675-.015c.075.053.125.057.157.055h.091l-.028-.012-.044-.044h-.176Zm.676-1.235h.313l.019.002c.002 0 .006 0 .017-.004a.307.307 0 0 0 .087-.064.723.723 0 0 0 .027-.028h-.355a.951.951 0 0 1-.108.094Zm-.09-2.578v-1.852h-.523V20.2h.524Zm-1.033.297h-1.002c.245.325.455.552.63.698.2.167.295.177.304.177h.446a.803.803 0 0 1-.078-.076 1.076 1.076 0 0 1-.231-.488l-.07-.311Zm-2.659 0h-.79l-.187.41a1.56 1.56 0 0 1-.297.46.848.848 0 0 1-.049.044h.384l.024.002a.23.23 0 0 0 .093-.041c.08-.051.19-.15.327-.32l.018-.022.198-.199.279-.334Zm-1.542-.297v-1.852h-.523V20.2h.523Zm-.898-2.07V16.2h-.485v1.93h.485Zm6.547-1.93v1.93h.348a.117.117 0 0 0 .063-.047c.034-.045.08-.139.112-.315V16.2h-.523Zm-6.626 6.58h-.006.006Z" fill="#505050"/><path d="M33.078 5.638V4.7h8.906v.938h-3.75v.39h3.711v3.477h-1.289V6.927h-2.46v2.578h-1.368V6.927H34.29v2.578h-1.21V6.028h3.71v-.39h-3.71Zm1.602 1.914V7.2h1.133c-.053.156.052.221.312.195h.39v.782h-1.093c-.469-.026-.716-.235-.742-.625Zm3.75.664v-.82h.468c.157.025.26-.053.313-.235h1.055v.508c-.026.364-.248.547-.664.547H38.43Zm0 .742V8.45h1.172c.026.156.182.221.468.195h.274v.899h-1.055c-.625.026-.911-.17-.86-.586Zm-3.79.586v-.899h.352c.235.026.339-.039.313-.195h1.133v.43c0 .468-.248.69-.743.664h-1.054Zm6.368 3.945h-7.93V9.895h8.867v2.578c0 .677-.312 1.016-.937 1.016Zm-6.563-2.656v.469h2.383v-.47h-2.383Zm3.75.469h2.461v-.47h-2.46v.47Zm-1.406.859h-2.305v.43h2.305v-.43Zm3.867 0h-2.422v.43h2.305c.078 0 .117-.04.117-.118v-.312ZM33.234 18.63V15.7h8.555v2.11c-.078.494-.286.768-.625.82h-.312v.273h1.054v.742h-1.054v.352h1.054v.703h-2.031c.052.234.156.352.313.352h1.718v.82H39.25c-.365 0-.833-.39-1.406-1.172h-.703l-.391.469-.195.195c-.313.39-.6.573-.86.547H33.04v-.82h1.797c.13.026.26-.105.39-.391H33.04v-.703h1.055v-.352h-1.055v-.703h1.055v-.312h-.86Zm7.032-1.797v-.313h-5.547v.313h5.547Zm-5.547.703v.312h5.547v-.312h-5.547Zm.898 1.094v.312h3.711v-.312h-3.71Zm3.711 1.367v-.352h-3.71v.352h3.71ZM36.75 23.63v-1.992h1.484v1.992c0 .599-.3.898-.898.898h-1.172v-.82h.469c.078 0 .117-.026.117-.078Zm-1.68.86H33v-.782h1.172c.208 0 .378-.104.508-.313h1.328a.988.988 0 0 0-.117.235c-.209.573-.482.86-.82.86Zm-1.875-2.345h1.446c.13.209.3.313.507.313h1.016v.82h-1.992c-.313.026-.6-.247-.86-.82a6.036 6.036 0 0 1-.117-.313Zm5.547.274h1.211c.13.026.247-.052.352-.235h1.445a1.518 1.518 0 0 0-.078.196c-.287.625-.6.924-.938.898h-1.992v-.86Zm.078 1.093h1.328l.118.118c.13.052.273.078.43.078h1.132v.86h-1.875c-.417.025-.794-.326-1.133-1.056Z" fill="#fff"/><path fill="#FFFD54" d="M17 29h29v9H17z"/><path fill-rule="evenodd" clip-rule="evenodd" d="M20.797 29.61h4.281v1.14h.094v-1.14h2.812v2.11c-.01.133-.003.231.009.3.009.049.02.076.026.088.012.003.035.005.073.003l.034-.003.034.003h.05a.377.377 0 0 0 .027-.094c.013-.07.02-.17.014-.305l-.001-.012v-2.09h2.924l.295.614v-.615h2.568c.52.006.995.133 1.354.447v-.447H39.578c.377.013.743.09 1.027.303.309.232.45.57.457.937v.024a1.221 1.221 0 0 1-.253.741c.089.163.14.345.17.527l.005.038v.005l.011.033.004.066c.01.162.026.278.043.356a.517.517 0 0 0 .02.067l.635.794h-2.103l-.095-.379a4.23 4.23 0 0 1-.046-.207v.586h-4.062v-.435c-.361.313-.84.435-1.36.435h-2.693l-.322-.69v.69h-1.578v-.45a1.371 1.371 0 0 1-.067.062c-.328.291-.765.407-1.233.42h-.026c-.475-.013-.918-.127-1.25-.418a1.392 1.392 0 0 1-.065-.06v.446h-1.61v-1.266h-.109V33.5h-1.61v-2.406h-.187V33.5h-1.625v-2.406h-.86v-1.485Zm13.36 1.498v.898c.066-.014.087-.037.094-.044.022-.026.082-.122.077-.392v-.015c.004-.268-.054-.369-.08-.398-.008-.01-.03-.033-.092-.049Zm-9.048 2.438.034.002c.265.018.523.075.748.194v-.133h3.343v.256c.31-.207.686-.304 1.092-.318h.035c.487.017.929.157 1.264.468v-.406h1.75c.325.01.643.07.906.224v-.224h1.293l.034-.034.01.034h.555l.258.896.279-.896h1.837V37.5H33.39l-.095-.379a4.01 4.01 0 0 1-.046-.207v.586h-1.625v-.42c-.338.307-.783.44-1.27.451h-.023c-.539-.012-1.027-.167-1.379-.539-.347-.366-.488-.867-.5-1.419V35.552a3.12 3.12 0 0 1 .042-.458h-.12V37.5H26.75v-2.406h-.147l.02.343h-.167c.143.187.223.413.216.67v.004c-.015.424-.175.805-.522 1.068-.324.246-.748.34-1.2.352h-.02c-.434-.006-.854-.099-1.166-.367-.331-.284-.45-.685-.436-1.102l.017-.484h.212a1.089 1.089 0 0 1-.15-.591v-.014c.022-.412.184-.78.513-1.04.31-.247.718-.355 1.156-.385l.033-.002Zm5.087 1.504c-.036.052-.091.194-.087.505v.015c-.004.312.052.45.085.498.013.018.021.023.03.027a.259.259 0 0 0 .11.014h.01c.059 0 .086-.01.096-.015a.077.077 0 0 0 .03-.03c.037-.052.093-.194.093-.502 0-.313-.056-.46-.094-.516-.015-.022-.025-.028-.032-.031a.214.214 0 0 0-.093-.015c-.067 0-.1.012-.113.018a.083.083 0 0 0-.035.032Z" fill="#505050"/><path d="M21.297 30.594v-.485h2.344v.485h-.86V33h-.625v-2.406h-.86ZM24.578 33h-.61v-2.89h.61v1.14h1.094v-1.14h.625V33h-.61v-1.266h-1.109V33ZM28.75 30.11h.625v1.812c-.031.719-.448 1.088-1.25 1.11-.823-.022-1.245-.391-1.266-1.11v-1.813h.625v1.578c-.041.646.172.954.641.922.448.032.656-.276.625-.922V30.11ZM32.547 33h-.89l-1.126-2.406-.015.015V33h-.578v-2.89h.921l1.094 2.28.016-.015v-2.266h.578V33ZM33.656 30.594v1.922h.328c.573.02.855-.297.844-.953.01-.657-.27-.98-.844-.97h-.328ZM33.046 33v-2.89h.985c.959.01 1.443.494 1.453 1.453-.01.958-.494 1.437-1.453 1.437h-.984ZM35.89 33v-2.89h1.938v.484h-1.312v.672h1.218v.484h-1.218v.766h1.359V33h-1.984ZM38.953 30.594v.765h.516c.281 0 .427-.135.437-.406-.01-.24-.156-.36-.437-.36h-.516Zm0 1.25V33h-.625v-2.89h1.234c.657.02.99.27 1 .75-.01.374-.208.609-.593.703v.015c.281.031.453.245.515.64 0 .032.006.063.016.094.02.355.073.584.156.688h-.672a3.817 3.817 0 0 1-.109-.781c-.031-.25-.12-.375-.266-.375h-.656ZM26.094 34.938H25.5c-.02-.292-.177-.438-.469-.438-.302.02-.458.146-.468.375-.021.219.156.354.53.406.022.01.042.021.063.032.688.135 1.026.395 1.016.78-.021.605-.432.917-1.235.938-.76-.01-1.13-.328-1.109-.953h.625c0 .344.162.521.485.531.375-.01.567-.135.578-.375 0-.187-.183-.323-.547-.406a1.492 1.492 0 0 1-.11-.031c-.646-.136-.963-.401-.953-.797.032-.583.433-.901 1.203-.953.625.042.953.338.985.89ZM26.39 34.594v-.485h2.344v.485h-.859V37h-.625v-2.406h-.86ZM30.344 37.031c-.907-.02-1.37-.51-1.39-1.468.02-.98.483-1.485 1.39-1.516.885.031 1.343.536 1.375 1.516-.032.958-.49 1.447-1.375 1.468Zm0-2.531c-.5 0-.745.354-.735 1.063-.01.708.235 1.057.735 1.046.479 0 .718-.349.718-1.047 0-.708-.24-1.062-.718-1.062ZM32.75 34.594v.765h.516c.28 0 .427-.135.437-.406-.01-.24-.156-.36-.437-.36h-.516Zm0 1.25V37h-.625v-2.89h1.234c.657.02.99.27 1 .75-.01.374-.208.609-.593.703v.015c.28.031.453.245.515.64 0 .032.005.063.016.094.02.355.073.584.156.688h-.672a3.824 3.824 0 0 1-.11-.781c-.03-.25-.119-.375-.265-.375h-.656ZM37.469 34.516 36.656 37h-.515l-.766-2.484-.016.015V37h-.578v-2.89h1.016l.61 2.109h.015l.656-2.11h.969V37h-.578v-2.484Z" fill="#fff"/><defs><clipPath id="a"><path fill="#fff" d="M0 0h48v40H0z"/></clipPath></defs></svg>