<svg width="48" height="40" fill="none" xmlns="http://www.w3.org/2000/svg"><g clip-path="url(#a)"><path fill-rule="evenodd" clip-rule="evenodd" d="M0 38a2 2 0 0 0 2 2h44a2 2 0 0 0 2-2V2A2 2 0 0 0 46.15.005L46 0H2l-.15.005A2 2 0 0 0 0 2v36ZM27 2H2v25h25V2ZM2 29v9h13v-9H2Zm15 9h29v-9H17v9Zm29-11V2H29v25h17Z" fill="#505050"/></g><path fill="#FFFD54" d="M2 29h13v9H2z"/><path fill-rule="evenodd" clip-rule="evenodd" d="M7.625 36.273a.959.959 0 0 1-.663.329H5.547v-.711h1.121c.11 0 .219-.055.328-.164l.137-.164H5.629v-2.817h2.434v-.328H5.52v-.766h.683v-.328H5.52v-.738h.683v-.273h.957v.273h2.762v-.3h.93v.3h.765v.738h-.765v.328h.793v.766H9.047v.328h2.488v1.914c.091.693-.255.994-1.039.903h-.328l.11.136c0 .018.008.037.027.055.127.091.228.128.3.11h1.04v.683h-1.56c-.29-.037-.482-.11-.573-.219l-.63-.766h-.519l-.738.711Zm-.465-4.62h2.735v-.329H7.16v.328Zm.875 2.132h-1.45v-.3h1.45v.3Zm1.012 0h1.558v-.3H9.047v.3Zm1.504 1.067H9.074v-.329h1.559v.22c0 .072-.027.109-.082.109Zm-3.965 0h1.45v-.329h-1.45v.329Z" fill="#fff" stroke="#505050"/><path fill-rule="evenodd" clip-rule="evenodd" d="M7.545 36.273a.959.959 0 0 1-.663.329H5.467v-.711h1.121c.11 0 .22-.055.329-.164l.136-.164H5.55v-2.817h2.434v-.328H5.44v-.766h.684v-.328H5.44v-.738h.684v-.273h.957v.273h2.761v-.3h.93v.3h.766v.738h-.766v.328h.793v.766H8.967v.328h2.489v1.914c.09.693-.256.994-1.04.903h-.328l.11.136c0 .018.009.037.027.055.128.091.228.128.3.11h1.04v.683h-1.559c-.291-.037-.483-.11-.574-.219l-.629-.766h-.52l-.738.711Zm-.464-4.62h2.734v-.329H7.08v.328Zm.875 2.132h-1.45v-.3h1.45v.3Zm1.011 0h1.559v-.3H8.967v.3Zm1.504 1.067H8.995v-.329h1.558v.22c0 .072-.027.109-.082.109Zm-3.965 0h1.45v-.329h-1.45v.329Z" fill="#fff"/><path fill="#CCC" d="M2 2h25v25H2z"/><path d="M22.813 12.714H6.188c-.713 0-1.188-.457-1.188-1.143 0-.685.475-1.143 1.188-1.143h16.625c.712 0 1.187.458 1.187 1.143 0 .686-.475 1.143-1.188 1.143Zm-1.04-3.428H7.227c-.624 0-1.04-.457-1.04-1.143 0-.686.416-1.143 1.04-1.143h14.546c.624 0 1.04.457 1.04 1.143 0 .686-.416 1.143-1.04 1.143Zm-.148 6.857H9.75c-.713 0-1.188-.457-1.188-1.143 0-.686.476-1.143 1.188-1.143h11.875c.712 0 1.188.457 1.188 1.143 0 .686-.476 1.143-1.188 1.143Zm-4.75 3.428h-5.938c-.712 0-1.187-.457-1.187-1.143 0-.685.475-1.142 1.188-1.142h5.937c.712 0 1.188.457 1.188 1.142 0 .686-.476 1.143-1.188 1.143ZM12.125 23H9.75c-.713 0-1.188-.457-1.188-1.143 0-.686.476-1.143 1.188-1.143h2.375c.713 0 1.188.457 1.188 1.143 0 .686-.476 1.143-1.188 1.143ZM29 2h17v25H29z" fill="#FFFD54"/><path d="m36.938 3.091-.032.563h3.344c.125 0 .188-.063.188-.188v-.375h1.124v.875c.021.48-.208.709-.687.688h-1.438v1.968h.376c.187.021.302-.062.343-.25l.282-.78h1.156l-.563 1.593c-.083.25-.291.385-.625.406h-.968v1.5c-.021.146.052.209.218.188h1.875v.844h-2.625c-.458 0-.687-.198-.687-.594V7.59h-1.032v-.969h1.032V4.654H36.78l-.343 4.875c-.042.416-.282.614-.72.594h-1.156v-.844h.532c.166 0 .25-.084.25-.25l.312-4.375h-1.093v-1h1.187l.031-.563h1.157ZM37.406 11.216H38.5v1.188h3.031v.687H38.5v.313h3.031v.781h-2.156l.438.188c.104.062.302.093.593.093H41.5v.75h-1.531c-.48.021-.865-.083-1.157-.312l-.78-.438-.782.469c-.292.208-.656.302-1.094.281h-1.75v-.718h1.313a.966.966 0 0 0 .437-.094l.469-.219h-2.188v-.781h2.97v-.313h-2.97v-.687h2.97v-1.188Zm4 4.188v.906c.042.688-.24 1.01-.843.969h-4.5v-.782h3.906c.187-.02.27-.093.25-.218v-.125h-4.532v.968c-.062.313.084.459.438.438h5.406v.656H35.25c-.52.104-.74-.177-.656-.844v-1.968h6.812Zm-2.531-3.281v-.657h1.094c.229 0 .354-.031.375-.093l.093-.188h1.126l-.22.563c-.062.291-.301.416-.718.375h-1.75Zm-1.875 0h-1.281c-.584.02-.927-.105-1.032-.375l-.25-.563h1.157l.093.188c.021.104.188.145.5.125H37v.625ZM34.531 25.372c.188.021.271-.062.25-.25v-6H41.5v6.063c0 .146.073.23.219.25v.781h-.938a.423.423 0 0 1-.406-.25h-1.219c-.25.021-.406-.062-.468-.25l-.563-1.031-.5.875c-.104.292-.302.427-.594.406h-1.125c-.041.209-.177.292-.406.25h-.969v-.844Zm5.75-.25v-5.03H35.97v5.03h.468c.146 0 .23-.041.25-.125l.813-1.437-1.5-2.906h1.25l.906 1.75.907-1.75h1.156l-1.469 2.875.75 1.343c.063.167.156.25.281.25h.5Z" fill="#fff"/><path fill-rule="evenodd" clip-rule="evenodd" d="M37.3 2.748a.5.5 0 0 1 .137.371l-.002.035h2.502V3.09a.5.5 0 0 1 .5-.5h1.126a.5.5 0 0 1 .5.5v.865c.011.309-.053.645-.303.895a.986.986 0 0 1-.396.24h.23a.5.5 0 0 1 .471.667l-.561 1.59a1.034 1.034 0 0 1-.419.545 1.327 1.327 0 0 1-.679.198h-.468v.688h1.593a.5.5 0 0 1 .5.5v.844a.5.5 0 0 1-.5.5h-2.625c-.29 0-.6-.061-.842-.27-.256-.222-.345-.529-.345-.824V8.09h-.532a.5.5 0 0 1-.145-.021l-.106 1.494-.001.014c-.03.293-.137.588-.39.797-.245.203-.549.26-.837.248h-1.145a.5.5 0 0 1-.5-.5v-.844a.5.5 0 0 1 .5-.5h.297l.26-3.625h-.557a.5.5 0 0 1-.5-.5v-1a.5.5 0 0 1 .5-.5h.714l.005-.09a.5.5 0 0 1 .5-.473h1.156a.5.5 0 0 1 .363.157Zm-1.55.906h-1.188v1h1.094l-.312 4.375c0 .166-.084.25-.25.25h-.532v.844h1.157c.437.02.677-.178.718-.594l.344-4.875h1.438v1.968h-1.032v.97h1.032v1.937c0 .396.229.594.687.594h2.625v-.844h-1.875c-.166.02-.24-.042-.218-.188v-1.5h.968c.334-.02.542-.156.625-.406l.563-1.594h-1.157l-.28.781c-.032.142-.105.224-.22.247a.432.432 0 0 1-.125.004h-.375v-1.97h1.438c.48.022.708-.208.688-.687v-.875h-1.126v.375c0 .125-.062.188-.187.188h-3.344l.032-.563H35.78l-.031.563Zm4.445 1.5h-.258v.35l.03-.082a.5.5 0 0 1 .228-.268Zm-2.476.968v-.968h-.472l-.068.969h.54Zm-.763 4.876a.5.5 0 0 1 .45-.282H38.5a.5.5 0 0 1 .433.25h1.055l.002-.005a.5.5 0 0 1 .447-.276h1.126a.5.5 0 0 1 .465.681l-.206.531a1.093 1.093 0 0 1-.025.083.5.5 0 0 1 .234.424v.687a.502.502 0 0 1-.025.157c.017.049.025.101.025.156v.781a.5.5 0 0 1-.039.194.505.505 0 0 1 .008.087v.75c0 .109-.035.21-.094.292v.788c.016.284-.012.575-.128.829a.5.5 0 0 1 .253.435v.656a.5.5 0 0 1-.304.46.5.5 0 0 1 .273.447v5.898a.5.5 0 0 1 .219.414v.781a.5.5 0 0 1-.5.5h-.938a.952.952 0 0 1-.504-.136.892.892 0 0 1-.147-.114h-.955a1.028 1.028 0 0 1-.559-.106.833.833 0 0 1-.385-.436l-.116-.213-.036.063c-.079.2-.205.386-.398.519-.206.14-.439.186-.665.173h-.81a.736.736 0 0 1-.17.145.856.856 0 0 1-.575.105h-.93a.5.5 0 0 1-.5-.5v-.844a.5.5 0 0 1 .25-.433v-5.817a.5.5 0 0 1 .342-.474.861.861 0 0 1-.322-.258c-.231-.297-.248-.694-.207-1.047v-1.736a.499.499 0 0 1-.188-.39v-.72c0-.072.016-.14.043-.203a.502.502 0 0 1-.011-.109v-.781c0-.055.008-.107.024-.156a.499.499 0 0 1-.025-.157v-.687a.5.5 0 0 1 .293-.455l-.004-.008-.245-.553a.5.5 0 0 1 .456-.703h1.157a.5.5 0 0 1 .447.276l.02.042a1.856 1.856 0 0 0 .127-.005h.768Zm.45.218v1.188h-2.968v.687h2.968v.313h-2.968v.781h2.187l-.469.219a.966.966 0 0 1-.437.094h-1.313v.718h1.75c.438.021.802-.073 1.094-.281l.781-.469.782.438c.291.229.677.333 1.156.312H41.5v-.75h-1.094c-.291 0-.49-.031-.593-.093l-.438-.188h2.156v-.781H38.5v-.313h3.031v-.687H38.5v-1.188h-1.094Zm1.469.907h1.75c.333.033.552-.04.66-.22a.513.513 0 0 0 .059-.155l.218-.563h-1.124l-.094.188c-.021.062-.146.093-.375.093h-1.094v.657Zm-4.281 3.28v1.97c-.084.666.135.947.656.843h6.281v-.656h-5.406a1.04 1.04 0 0 1-.063.002c-.247 0-.377-.094-.388-.283a.617.617 0 0 1 .014-.157v-.968h4.53v.125a.194.194 0 0 1 0 .069c-.016.083-.1.133-.25.15h-3.906v.78h4.5c.307.022.531-.051.671-.218.136-.162.194-.412.173-.75v-.906h-6.812Zm1.125-3.28H37v-.625h-.813c-.312.02-.479-.021-.5-.125l-.093-.188h-1.157l.25.563a.442.442 0 0 0 .103.156c.163.162.473.235.929.219Zm-1.434 13.06v-.003Zm.304-.307h.003Zm.911 1.34c.23.042.365-.041.406-.25h1.125c.292.021.49-.114.594-.406l.5-.875.563 1.031c.062.188.218.271.468.25h1.219c.083.167.219.25.406.25h.938v-.781c-.146-.02-.219-.104-.219-.25v-6.063h-6.719v6c.017.15-.033.234-.15.25a.398.398 0 0 1-.1 0v.844h.969Zm3.25-2.687.75 1.343c.063.167.156.25.281.25h.5v-5.03H35.97v5.03h.5c.126-.006.2-.047.218-.125l.813-1.437-1.5-2.906h1.25l.906 1.75.907-1.75h1.156l-1.469 2.875Zm-.218-2.938-.376.725-.375-.725h.75Zm-2.063 2.061v1.716l.463-.819-.463-.897Zm3.312-.043-.464.91.464.832v-1.742Z" fill="#505050"/><path fill="#FFFD54" d="M17 29h29v9H17z"/><path d="M18.951 32.492v-.605h2.93v.605h-1.074V35.5h-.782v-3.008h-1.074ZM23.893 35.54c-1.133-.027-1.713-.639-1.739-1.837.04-1.237.619-1.868 1.739-1.894 1.106.026 1.68.657 1.718 1.894-.039 1.198-.612 1.81-1.718 1.836Zm0-3.165c-.612 0-.918.443-.918 1.328 0 .872.306 1.309.918 1.309.598 0 .898-.437.898-1.309 0-.885-.3-1.328-.898-1.328ZM26.9 32.492v.957h.645c.364 0 .547-.17.547-.508 0-.312-.182-.462-.547-.449H26.9Zm0 1.563V35.5h-.78v-3.613h1.542c.82.013 1.237.325 1.25.937-.013.469-.26.762-.742.88v.019c.351.039.566.306.644.8.014.052.02.092.02.118.039.43.104.716.195.859h-.84a4.773 4.773 0 0 1-.136-.977c-.026-.312-.137-.468-.332-.468h-.82ZM32.74 35.5h-1.113l-1.406-3.008-.02.02V35.5h-.723v-3.613h1.153l1.367 2.851.02-.02v-2.831h.722V35.5ZM33.834 35.5h-.742l1.308-3.613h.918l1.27 3.613h-.781l-.274-.762h-1.426l-.273.762Zm.469-1.367h1.035l-.488-1.543h-.02l-.527 1.543ZM37.72 32.492v2.403h.41c.717.026 1.069-.372 1.055-1.192.014-.833-.338-1.237-1.054-1.21h-.41ZM36.96 35.5v-3.613h1.23c1.198.013 1.804.618 1.817 1.816-.013 1.185-.619 1.784-1.816 1.797h-1.231ZM42.174 35.54c-1.133-.027-1.712-.639-1.739-1.837.04-1.237.619-1.868 1.739-1.894 1.107.026 1.68.657 1.719 1.894-.04 1.198-.612 1.81-1.72 1.836Zm0-3.165c-.612 0-.918.443-.918 1.328 0 .872.306 1.309.918 1.309.599 0 .898-.437.898-1.309 0-.885-.3-1.328-.898-1.328Z" fill="#fff"/><path fill-rule="evenodd" clip-rule="evenodd" d="M18.951 32.992a.5.5 0 0 1-.5-.5v-.605a.5.5 0 0 1 .5-.5h2.93a.5.5 0 0 1 .497.45c.396-.355.917-.515 1.503-.528h.023c.648.015 1.215.212 1.619.657.033.037.066.075.096.115v-.194a.5.5 0 0 1 .5-.5h1.551c.46.007.891.097 1.22.344.033.025.065.05.095.078a.5.5 0 0 1 .494-.422h1.152a.5.5 0 0 1 .45.284l.437.909v-.693a.5.5 0 0 1 .5-.5h.722a.5.5 0 0 1 .5.5v1.735l.69-1.905a.5.5 0 0 1 .47-.33h.918a.5.5 0 0 1 .472.334l.669 1.904v-1.738a.5.5 0 0 1 .5-.5h1.236c.677.007 1.274.183 1.7.61.13.129.235.273.32.43.084-.17.189-.325.316-.463.407-.444.979-.64 1.631-.655h.024c.647.015 1.214.212 1.618.657.395.436.567 1.037.588 1.721v.032c-.022.67-.195 1.257-.593 1.683-.405.433-.97.622-1.613.637h-.024c-.652-.015-1.226-.202-1.635-.635a1.901 1.901 0 0 1-.31-.439 1.848 1.848 0 0 1-.323.431c-.427.423-1.024.597-1.7.604H36.96a.498.498 0 0 1-.186-.036.5.5 0 0 1-.185.036h-.781a.5.5 0 0 1-.471-.331l-.155-.43h-.722l-.154.43a.5.5 0 0 1-.471.331h-.742a.502.502 0 0 1-.176-.032.5.5 0 0 1-.176.032h-1.113a.5.5 0 0 1-.453-.288l-.473-1.012v.8a.5.5 0 0 1-.5.5h-.723a.499.499 0 0 1-.224-.053.5.5 0 0 1-.225.053h-.84a.5.5 0 0 1-.485-.379 5.268 5.268 0 0 1-.15-1.066H27.4v.945a.5.5 0 0 1-.5.5h-.78a.5.5 0 0 1-.5-.5v-.216c-.033.04-.067.08-.103.118-.404.433-.97.622-1.613.637h-.023c-.652-.015-1.226-.202-1.636-.635-.405-.428-.576-1.019-.59-1.69v-.027c.007-.243.034-.476.083-.695h-.431V35.5a.5.5 0 0 1-.5.5h-.782a.5.5 0 0 1-.5-.5v-2.508h-.574Zm1.074-.5V35.5h.782v-3.008h1.074v-.605h-2.93v.605h1.074Zm6.875 1.563h.82a.264.264 0 0 1 .23.117c.056.078.09.195.103.351.013.339.058.664.136.977h.84a.63.63 0 0 1-.05-.101 1.911 1.911 0 0 1-.101-.399 5.163 5.163 0 0 1-.044-.36.536.536 0 0 0-.02-.117c-.03-.19-.08-.346-.15-.469a.623.623 0 0 0-.49-.33l-.004-.001v-.02h.002l.008-.002c.053-.014.103-.029.15-.047a.907.907 0 0 0 .386-.258.895.895 0 0 0 .196-.572c-.013-.612-.43-.924-1.25-.937H26.12V35.5h.781v-1.445Zm.645-1.563H26.9v.957h.645a.853.853 0 0 0 .209-.023.41.41 0 0 0 .277-.203.591.591 0 0 0 .06-.282c0-.312-.181-.462-.546-.449Zm1.933 3.008h.723v-2.988l.02-.02 1.406 3.008h1.113v-3.613h-.722v2.832l-.02.02-1.367-2.852h-1.152V35.5Zm4.356 0 .273-.762h1.426l.274.762h.78l-1.269-3.613H34.4L33.092 35.5h.742Zm.469-1.367h1.035l-.488-1.543h-.02l-.527 1.543ZM38.19 35.5c1.038-.011 1.63-.463 1.78-1.354.021-.135.034-.28.036-.434v-.022a2.94 2.94 0 0 0-.035-.425c-.146-.908-.74-1.367-1.781-1.378h-1.231V35.5h1.23Zm-.06-.605c.717.026 1.069-.372 1.055-1.192.014-.833-.338-1.237-1.054-1.21h-.41v2.401h.41Zm.09-.5c.212-.004.297-.064.337-.11.058-.066.134-.223.129-.574v-.016c.005-.359-.072-.522-.131-.591-.042-.047-.126-.108-.334-.113v1.404Zm2.255-.25c.149.907.715 1.371 1.699 1.394 1.107-.026 1.68-.638 1.719-1.836-.04-1.237-.612-1.868-1.72-1.894-.978.022-1.544.508-1.697 1.457-.022.135-.035.279-.04.433V33.708c.003.156.016.302.039.438Zm-14.864-.442c-.039-1.237-.612-1.868-1.718-1.894-1.12.026-1.7.657-1.739 1.894.026 1.198.606 1.81 1.739 1.836 1.106-.026 1.68-.638 1.718-1.836Zm-1.996-.712c-.068.1-.14.312-.14.712 0 .393.071.599.138.694.045.064.109.115.28.115.16 0 .218-.048.261-.11.067-.097.137-.304.137-.699 0-.402-.07-.615-.139-.716-.044-.065-.103-.112-.26-.112-.167 0-.23.05-.277.116Zm18.282 0c-.07.1-.141.312-.141.712 0 .393.072.599.139.694.044.064.108.115.279.115.16 0 .218-.048.261-.11.067-.097.137-.304.137-.699 0-.402-.07-.615-.139-.716-.044-.065-.102-.112-.26-.112-.167 0-.23.05-.276.116Zm-18.922.712c0-.885.306-1.328.918-1.328.598 0 .898.443.898 1.328 0 .872-.3 1.309-.898 1.309-.612 0-.918-.437-.918-1.309Zm18.28 0c0-.885.307-1.328.919-1.328.599 0 .898.443.898 1.328 0 .872-.3 1.309-.898 1.309-.612 0-.918-.437-.918-1.309Z" fill="#505050"/><defs><clipPath id="a"><path fill="#fff" d="M0 0h48v40H0z"/></clipPath></defs></svg>