<svg width="48" height="40" fill="none" xmlns="http://www.w3.org/2000/svg"><g clip-path="url(#a)"><path fill-rule="evenodd" clip-rule="evenodd" d="M0 38a2 2 0 0 0 2 2h44a2 2 0 0 0 2-2V2A2 2 0 0 0 46.15.005L46 0H2l-.15.005A2 2 0 0 0 0 2v36ZM27 2H2v25h25V2ZM2 29v9h13v-9H2Zm15 9h29v-9H17v9Zm29-11V2H29v25h17Z" fill="#505050"/></g><path fill="#3A6AF6" d="M2 29h13v9H2z"/><path fill-rule="evenodd" clip-rule="evenodd" d="M11.563 31.516v-.793h-.63l.11-.328H9.84l-.11.328H7.215l-.137-.328H5.875l.11.328h-.63v.793h6.207ZM9.183 32.8c.128.018.228-.046.301-.192l.082-.164h1.996v-.683H9.758l.027-.082h-.93l-.136.273c-.055.128-.146.182-.274.164h-.41v.684h1.149Zm-2.761-1.012v2.023h-.93V31.79h.93Zm1.367 2.023V31.79h-.848v2.023h.848Zm3.774 0H9.02c-.347.019-.547-.063-.602-.246l-.355-.656h1.093l.082.11c.019.109.1.154.246.136h2.079v.657Zm0 2.817v-.738h-.247v-1.832H5.52v1.832h-.192v.738h6.234Zm-5.141-.738h.793v-1.04h-.793v1.04Zm1.613 0v-1.04h.766v1.04h-.766Zm1.64 0h.794v-1.04h-.793v1.04Z" fill="#fff" stroke="#505050"/><path fill-rule="evenodd" clip-rule="evenodd" d="M11.563 31.516v-.793h-.63l.11-.328H9.84l-.11.328H7.215l-.137-.328H5.875l.11.328h-.63v.793h6.207ZM9.183 32.8c.128.018.228-.046.301-.192l.082-.164h1.996v-.683H9.758l.027-.082h-.93l-.136.273c-.055.128-.146.182-.274.164h-.41v.684h1.149Zm-2.761-1.012v2.023h-.93V31.79h.93Zm1.367 2.023V31.79h-.848v2.023h.848Zm3.774 0H9.02c-.347.019-.547-.063-.602-.246l-.355-.656h1.093l.082.11c.019.109.1.154.246.136h2.079v.657Zm0 2.817v-.738h-.247v-1.832H5.52v1.832h-.192v.738h6.234Zm-5.141-.738h.793v-1.04h-.793v1.04Zm1.613 0v-1.04h.766v1.04h-.766Zm1.64 0h.794v-1.04h-.793v1.04Z" fill="#fff"/><path fill="#CCC" d="M2 2h25v25H2z"/><path d="M7.612 13.02h2.145v5.5c.7-.03 1.372-.28 1.925-.713a3.59 3.59 0 0 1 2.076-.757 3.346 3.346 0 0 1 2.156.89 1.68 1.68 0 0 0 1.147.58 1.665 1.665 0 0 0 1.39-.58 3.346 3.346 0 0 1 1.845-.872v-4.049h2.145a.27.27 0 0 0 .25-.168.276.276 0 0 0-.056-.297l-2.505-2.523V6.922a.233.233 0 0 0-.23-.232h-.895a.23.23 0 0 0-.23.232V8.67L15.21 5.08a.276.276 0 0 0-.387 0L7.41 12.55a.274.274 0 0 0 .2.47h.001ZM23.8 18.887a5.797 5.797 0 0 1-1.284-.288 5.089 5.089 0 0 0-2.007-.425 3.343 3.343 0 0 0-2.177.9 1.673 1.673 0 0 1-1.268.586 1.66 1.66 0 0 1-1.269-.587 3.353 3.353 0 0 0-2.158-.89 3.6 3.6 0 0 0-2.076.758 3.354 3.354 0 0 1-2.006.718 2.56 2.56 0 0 1-1.726-.637 3.651 3.651 0 0 0-1.504-.744.228.228 0 0 0-.237.098.233.233 0 0 0-.04.135v.636a.234.234 0 0 0 .174.218c.39.102.754.29 1.065.549a3.548 3.548 0 0 0 2.306.827 4.286 4.286 0 0 0 2.518-.969 2.673 2.673 0 0 1 1.534-.597 2.38 2.38 0 0 1 1.545.697 2.936 2.936 0 0 0 1.857.818 2.901 2.901 0 0 0 1.845-.797 2.383 2.383 0 0 1 1.554-.697c.581 0 1.156.124 1.687.362.523.18 1.064.299 1.614.356a.23.23 0 0 0 .253-.208V19.124a.233.233 0 0 0-.2-.237Zm-.055 2.258a5.769 5.769 0 0 1-1.282-.288 5.108 5.108 0 0 0-2.007-.425 3.338 3.338 0 0 0-2.177.9 1.678 1.678 0 0 1-1.268.584 1.665 1.665 0 0 1-1.268-.585 3.345 3.345 0 0 0-2.157-.89 3.6 3.6 0 0 0-2.076.759 3.353 3.353 0 0 1-2.006.718 2.564 2.564 0 0 1-1.725-.637 3.624 3.624 0 0 0-1.501-.742.228.228 0 0 0-.238.099.234.234 0 0 0-.039.135v.634a.234.234 0 0 0 .173.217c.39.103.753.29 1.063.549A3.541 3.541 0 0 0 9.542 23c.923-.05 1.804-.4 2.514-.995a2.687 2.687 0 0 1 1.536-.597 2.384 2.384 0 0 1 1.545.697c.503.486 1.161.776 1.857.818a2.893 2.893 0 0 0 1.845-.797 2.39 2.39 0 0 1 1.556-.697c.581 0 1.156.124 1.686.363.523.179 1.065.298 1.615.355a.23.23 0 0 0 .25-.232v-.558a.233.233 0 0 0-.203-.212ZM29 2h17v25H29z" fill="#3A6AF6"/><path d="M40.273 6.406H37.97l-.352 1.29h1.328l.47 2.538c0 .209.09.3.273.274h.273v1.25h-1.172c-.469.026-.742-.235-.82-.781L37.5 8.203l-.625 2.578c-.13.651-.456.95-.977.899H35v-1.211h.195c.157.026.248-.065.274-.274l.937-3.789h-1.68v6.914h-1.484V5.156h3.399v-.742h1.562v.742h3.555v7.227c.026.625-.339.924-1.094.898h-3.242v-1.094h2.695c.104.027.156-.039.156-.195V6.406ZM37.89 15.96h1.993l.156-.507h1.328v.508h.625v1.172h-5.898V15.96h.39v-.469h1.29l.117.469Zm-1.835 3.517V17.68h5.898v1.718h-1.367v-.546h-3.164v.625h-1.367Zm.039 1.68v-1.173h1.328l.039-.507h1.406l-.039.507h3.086v3.555c0 .52-.26.781-.781.781h-1.68v-1.054h.86c.182.052.26-.013.234-.196v-1.914h-1.875l-.234 2.305c-.079.625-.417.95-1.016.977h-1.29v-1.172h.704a.305.305 0 0 0 .273-.274l.196-1.836h-1.211Zm-2.5-1.329-.235-1.289h1.29l.117.781c.026.209.169.3.43.274h.585v1.093h-.82c-.86.105-1.315-.182-1.367-.859Zm-.313 3.477h.235c.234.026.39-.104.468-.39l.352-1.602h1.367l-.508 2.304c-.078.495-.468.73-1.172.703h-.742v-1.015Zm.43-5.938-.508-1.836h1.367l.352 1.133c.026.26.195.378.508.352h.39v1.132h-1.172c-.52.079-.833-.182-.937-.78Z" fill="#fff"/><path fill-rule="evenodd" clip-rule="evenodd" d="M40.273 6.406H37.97l-.352 1.29h1.328l.47 2.538c0 .162.054.254.165.274a.336.336 0 0 0 .108 0h.273v1.25h-1.172a.808.808 0 0 1-.405-.07c-.225-.11-.363-.348-.415-.711L37.5 8.203l-.625 2.578c-.13.651-.456.95-.977.899H35v-1.211h.195l.032.004a.24.24 0 0 0 .063-.004c.099-.02.159-.112.179-.274l.937-3.789h-1.68v6.914h-1.484V5.156h3.399v-.742h1.562v.742h3.555v7.227c.026.625-.339.924-1.094.898h-3.242v-1.094h2.695c.104.027.156-.039.156-.195V6.406Zm-2.589 5.282a1.725 1.725 0 0 1-.21-.634l-.061-.368-.05.204c-.076.376-.223.725-.491.972-.28.258-.632.348-.996.318h-.65v1.14a.5.5 0 0 1-.5.5h-1.484a.5.5 0 0 1-.5-.5V5.156a.5.5 0 0 1 .5-.5h2.899v-.242a.5.5 0 0 1 .5-.5h1.562a.5.5 0 0 1 .5.5v.242h3.055a.5.5 0 0 1 .5.5v7.217c.015.41-.099.812-.437 1.09-.316.26-.738.332-1.165.318h-3.234a.5.5 0 0 1-.5-.5v-1.094a.5.5 0 0 1 .5-.5h.263Zm-2.457-2.596.54-2.186h-.54v2.186Zm4.546.335v-2.52h-1.422l-.08.288h.674a.5.5 0 0 1 .492.41l.336 1.822Zm-3.68 6.534h.391v-.469h1.29l.117.469h1.992l.156-.508h1.328v.508h.625v1.172h-5.898V15.96Zm-.273 1.055h-.39a.934.934 0 0 1-.11.003c-.242-.008-.375-.127-.398-.355l-.352-1.133h-1.367l.508 1.836c.056.322.172.546.348.672.152.11.348.146.59.11h1.171v-1.133Zm.235.664v1.797h1.367v-.625h3.164v.546h1.367V17.68h-5.898Zm4.03 1.672h-.734a.5.5 0 0 1 .016.132h.726a.507.507 0 0 1-.007-.086v-.046Zm2.252.366a.498.498 0 0 1 .077.266v3.555c0 .338-.085.682-.342.94-.257.257-.602.341-.94.341h-1.679a.5.5 0 0 1-.5-.5v-.987l-.02.19c-.048.387-.185.746-.461 1.011-.28.269-.642.386-1.028.403h-1.312a.5.5 0 0 1-.5-.5v-.509a1.204 1.204 0 0 1-.531.665c-.31.186-.69.24-1.086.227h-.734a.5.5 0 0 1-.5-.5v-1.015a.5.5 0 0 1 .5-.5h.215a.445.445 0 0 0 .003-.012l.349-1.588a.497.497 0 0 1 .05-.132 1.353 1.353 0 0 1-.19-.099c-.388-.244-.57-.64-.61-1.08l-.23-1.265a.5.5 0 0 1 .491-.59h.054a1.864 1.864 0 0 1-.19-.56l-.502-1.814a.5.5 0 0 1 .482-.634h1.367a.5.5 0 0 1 .478.352l.351 1.133h.195v-.555a.5.5 0 0 1 .39-.488.5.5 0 0 1 .5-.48h1.29a.5.5 0 0 1 .484.378l.023.09h1.233l.047-.155a.5.5 0 0 1 .478-.353h1.328a.5.5 0 0 1 .5.5v.008h.125a.5.5 0 0 1 .5.5v1.172c0 .114-.038.219-.102.303.04.072.063.155.063.244v1.718a.498.498 0 0 1-.116.32ZM33.36 18.54h1.29l.117.781c.026.209.169.3.43.274h.585v1.093h-.82c-.86.105-1.315-.182-1.367-.859l-.235-1.289Zm2.735 2.617h1.21l-.195 1.836a.305.305 0 0 1-.273.274h-.703v1.172h1.289c.599-.026.937-.352 1.016-.977l.234-2.305h1.875v1.914c.026.183-.052.248-.234.196h-.86v1.054h1.68c.52 0 .781-.26.781-.78v-3.556h-3.086l.04-.507H37.46l-.04.507h-1.327v1.172Zm3.953.5h-.923l-.15 1.464a.5.5 0 0 1 .48-.354h.593v-1.11Zm-3.416 1.11h-.498a.497.497 0 0 0-.253.068l.26-1.178h.609l-.118 1.11Zm-2.295-1.453-.352 1.601c-.065.239-.184.369-.358.39a.476.476 0 0 1-.11 0h-.235v1.016h.742c.704.026 1.094-.208 1.172-.703l.508-2.305h-1.367Zm1.219-2.22v-.445h-.385l.067.446h.318Z" fill="#505050"/><path fill="#3A6AF6" d="M17 29h29v9H17z"/><path d="m24.662 32.492.633-2.444h.79l.563 2.444h.018l.527-2.444h.65l-.825 3.252h-.774l-.58-2.478-.633 2.478h-.79l-.792-3.252h.72l.493 2.444ZM28.617 33.3h-.668l1.178-3.252h.826l1.143 3.252h-.703l-.247-.685h-1.283l-.246.685Zm.422-1.23h.932l-.44-1.39h-.017l-.475 1.39ZM31.184 30.593v-.545h2.636v.545h-.967V33.3h-.703v-2.707h-.966ZM34.137 33.3v-3.252h2.18v.545H34.84v.756h1.37v.545h-1.37v.861h1.53v.545h-2.233ZM37.582 30.593v.861h.58c.316 0 .48-.152.492-.457-.011-.27-.176-.404-.492-.404h-.58Zm0 1.406V33.3h-.703v-3.252h1.389c.738.024 1.113.305 1.125.844-.012.422-.235.685-.668.79v.018c.316.036.51.276.58.721 0 .035.005.07.017.106.024.398.082.656.176.773h-.756a4.301 4.301 0 0 1-.123-.879c-.035-.281-.135-.422-.299-.422h-.738ZM23.291 37.3h-2.092v-3.252h.686v2.707h1.406v.545ZM25.137 37.335c-1.02-.023-1.541-.574-1.565-1.652.024-1.102.545-1.67 1.565-1.705.996.035 1.511.603 1.547 1.705-.036 1.078-.551 1.629-1.547 1.652Zm0-2.848c-.563 0-.838.399-.826 1.196-.012.797.263 1.19.826 1.178.539 0 .808-.393.808-1.178 0-.797-.27-1.196-.808-1.196ZM29.355 36.105h-.632v-.545h1.318v1.635c-.234.07-.475.105-.72.105a6.187 6.187 0 0 1-.739.035c-.996-.047-1.506-.598-1.53-1.652.024-1.055.534-1.623 1.53-1.705 1.008 0 1.512.351 1.512 1.054h-.739c0-.363-.216-.544-.65-.544-.61.023-.914.421-.914 1.195 0 .773.305 1.166.914 1.178.176 0 .38-.018.615-.053.012 0 .024-.006.035-.018v-.685ZM32.853 36.105h-.632v-.545h1.318v1.635c-.234.07-.474.105-.72.105a6.187 6.187 0 0 1-.739.035c-.996-.047-1.506-.598-1.53-1.652.024-1.055.534-1.623 1.53-1.705 1.008 0 1.512.351 1.512 1.054h-.739c0-.363-.216-.544-.65-.544-.61.023-.914.421-.914 1.195 0 .773.305 1.166.914 1.178.176 0 .381-.018.615-.053.012 0 .024-.006.035-.018v-.685ZM34.857 34.048V37.3h-.703v-3.252h.703ZM38.355 37.3h-1.002l-1.265-2.707-.018.018V37.3h-.65v-3.252h1.037l1.23 2.566.018-.017v-2.549h.65V37.3ZM41.098 36.105h-.633v-.545h1.318v1.635c-.234.07-.474.105-.72.105a6.187 6.187 0 0 1-.739.035c-.996-.047-1.506-.598-1.53-1.652.024-1.055.534-1.623 1.53-1.705 1.008 0 1.512.351 1.512 1.054h-.738c0-.363-.217-.544-.65-.544-.61.023-.915.421-.915 1.195 0 .773.305 1.166.914 1.178.176 0 .381-.018.615-.053.012 0 .024-.006.036-.018v-.685Z" fill="#fff"/><path fill-rule="evenodd" clip-rule="evenodd" d="m24.24 33.3-.79-3.252h.72l.492 2.444.633-2.444h.79l.563 2.444h.018l.527-2.444h.65l-.825 3.252h-.774l-.58-2.478-.633 2.478h-.79Zm1.403-.375-.127.499a.5.5 0 0 1-.03.084c.12.019.238.045.35.08a.5.5 0 0 1-.079-.174l-.114-.489Zm.65.875a1.723 1.723 0 0 1 .58.615 1.817 1.817 0 0 1 .783-.71.5.5 0 0 1-.173-.223.5.5 0 0 1-.465.318h-.725Zm1.513-1.573.85-2.35a.5.5 0 0 1 .471-.329h.826a.5.5 0 0 1 .472.334l.26.739-.001-.028v-.545a.5.5 0 0 1 .5-.5h2.636c.056 0 .109.01.158.026a.501.501 0 0 1 .159-.026h2.18c.104 0 .2.032.28.087a.497.497 0 0 1 .282-.087h1.404c.418.014.815.1 1.12.329.33.247.48.607.49 1.004v.025a1.304 1.304 0 0 1-.294.823l-.005.005a1.719 1.719 0 0 1 .21.658.5.5 0 0 1 .017.105c.011.184.03.319.05.411.014.06.026.087.028.094a.5.5 0 0 1 .05.515l-.005.01a2.974 2.974 0 0 1 .38-.05c.547 0 1.046.093 1.42.354.407.284.592.714.592 1.201a.498.498 0 0 1-.104.306.498.498 0 0 1 .051.222v1.635a.5.5 0 0 1-.356.478c-.271.082-.55.124-.833.127a6.889 6.889 0 0 1-.793.035c-.57-.027-1.077-.2-1.446-.58v.045a.5.5 0 0 1-.5.5h-1.002a.5.5 0 0 1-.452-.288l-.33-.707v.495a.5.5 0 0 1-.5.5h-.651a.497.497 0 0 1-.281-.086.498.498 0 0 1-.282.086h-.703a.499.499 0 0 1-.373-.168.5.5 0 0 1-.098.041c-.272.082-.55.124-.833.127a6.886 6.886 0 0 1-.793.035c-.585-.028-1.103-.208-1.473-.608a1.922 1.922 0 0 1-.043-.048v.016a.5.5 0 0 1-.356.478c-.272.082-.55.124-.833.127a6.889 6.889 0 0 1-.794.035c-.584-.028-1.102-.208-1.472-.608a1.754 1.754 0 0 1-.218-.292 1.765 1.765 0 0 1-.232.311c-.377.402-.9.575-1.488.59h-.023c-.515-.013-.981-.142-1.344-.436a.5.5 0 0 1-.49.4h-2.092a.5.5 0 0 1-.5-.5v-3.252a.5.5 0 0 1 .5-.5h.686a.5.5 0 0 1 .5.5v2.207h.746a3.224 3.224 0 0 1-.059-.583c.014-.62.169-1.174.54-1.58.126-.136.268-.247.423-.336a.5.5 0 0 1-.28-.338l-.792-3.252a.5.5 0 0 1 .486-.618h.72a.5.5 0 0 1 .491.401l.063.313.088-.34a.5.5 0 0 1 .484-.374h.79a.5.5 0 0 1 .488.388l.069.298.063-.291a.5.5 0 0 1 .488-.395h.65a.5.5 0 0 1 .485.623l-.522 2.056Zm-4.077 4.288a1.253 1.253 0 0 0 .848.741 2.18 2.18 0 0 0 .57.079c.178-.005.34-.027.488-.065.513-.136.838-.477.975-1.025.042-.166.066-.35.073-.554v-.016a2.799 2.799 0 0 0-.071-.562c-.177-.728-.668-1.107-1.475-1.135-1.02.035-1.541.603-1.565 1.705.007.325.06.602.157.831Zm1.021.27a.82.82 0 0 0 .376.076h.022a.805.805 0 0 0 .327-.067c.314-.142.47-.512.47-1.111 0-.797-.27-1.196-.808-1.196-.563 0-.838.399-.826 1.196-.01.586.138.953.44 1.102Zm-2.865-.03v-2.707h-.686V37.3h2.092v-.545h-1.406Zm5.238-.51c.15.603.542.957 1.174 1.06.09.016.185.026.285.03h.124c.248-.003.453-.015.614-.035l.074-.001.03-.001c.21-.009.416-.043.617-.103V35.56h-1.318v.545h.633v.685a.087.087 0 0 1-.012.01.042.042 0 0 1-.024.008l-.06.009a4.06 4.06 0 0 1-.555.044 1.347 1.347 0 0 1-.123-.008 1.034 1.034 0 0 1-.179-.036c-.408-.123-.612-.501-.612-1.134 0-.774.305-1.172.914-1.196.434 0 .65.182.65.545h.739c0-.193-.038-.36-.114-.5-.201-.37-.667-.554-1.398-.554-.8.066-1.285.445-1.458 1.137a2.573 2.573 0 0 0-.071.58c.005.202.028.385.07.55Zm1.592-1.257c-.184.008-.257.065-.298.12a.442.442 0 0 0-.06.11.499.499 0 0 1 .366-.158h.133a.495.495 0 0 1-.002-.057.559.559 0 0 0-.14-.015Zm1.717-.67a1.336 1.336 0 0 0-.43-.487c-.259-.18-.577-.28-.93-.325a.515.515 0 0 0 .016-.037l.127-.355h.58l.127.355a.5.5 0 0 0 .47.331h.585a1.788 1.788 0 0 0-.545.518Zm1.085-.748c.06-.017.123-.032.187-.044a.497.497 0 0 1-.054-.226v-2.207h-.466a.5.5 0 0 1-.407-.21l.79 2.251a.5.5 0 0 1-.05.436Zm1.678.095a1.633 1.633 0 0 1 .467.297.499.499 0 0 1 .152-.28.499.499 0 0 1-.177-.382v-2.207h-.284V33.3c0 .144-.06.274-.158.365Zm-.342-3.072h.967v-.545h-2.636v.545h.966V33.3h.703v-2.707Zm1.284 2.707h2.232v-.545h-1.53v-.861h1.372v-.545H34.84v-.756h1.476v-.545h-2.18V33.3Zm2.754.5.017.032.297.62v-.404c0-.09.024-.175.066-.248h-.38Zm1.125-.252h.292a.498.498 0 0 1-.05-.127 4.773 4.773 0 0 1-.136-.922h-.04v.801c0 .09-.024.175-.066.248ZM37.582 32h.742c.103.002.18.059.232.172a.87.87 0 0 1 .063.25c.012.305.053.598.123.879h.756c-.07-.088-.12-.254-.151-.5a4.07 4.07 0 0 1-.025-.273.33.33 0 0 1-.017-.106 1.314 1.314 0 0 0-.112-.378.584.584 0 0 0-.338-.314l-.013-.004a.635.635 0 0 0-.113-.024h-.004v-.018h.002a1.297 1.297 0 0 0 .232-.082.751.751 0 0 0 .288-.234.829.829 0 0 0 .146-.475c-.012-.54-.387-.82-1.125-.844h-1.39V33.3h.704V32Zm1.036-.805a.625.625 0 0 0 .036-.197c-.011-.27-.176-.404-.492-.404h-.58v.861h.58a.81.81 0 0 0 .123-.008c.16-.025.27-.103.325-.233a.366.366 0 0 0 .008-.019Zm.172 2.606a.498.498 0 0 1 .066.248v.048c.11-.116.232-.214.365-.296h-.431Zm.066 1.358a2.635 2.635 0 0 0-.061.525c.004.19.024.365.06.523.144.627.538.993 1.184 1.1.09.015.185.025.285.03l.114-.001h.01c.248-.003.453-.015.614-.035l.074-.001.03-.001c.21-.009.416-.043.617-.103V35.56h-1.318v.545h.633v.685a.082.082 0 0 1-.012.01.042.042 0 0 1-.023.008l-.06.009a4.06 4.06 0 0 1-.556.044 1.347 1.347 0 0 1-.123-.008 1.034 1.034 0 0 1-.178-.036c-.409-.123-.613-.501-.613-1.134 0-.774.305-1.172.914-1.196.434 0 .65.182.65.545h.739c0-.193-.038-.36-.114-.5-.201-.37-.667-.554-1.398-.554-.816.067-1.305.46-1.468 1.18Zm1.6-.17c-.183.008-.256.065-.297.12a.442.442 0 0 0-.06.11.499.499 0 0 1 .366-.158h.133a.495.495 0 0 1-.002-.057.559.559 0 0 0-.14-.015Zm-2.1-.94h-.65v2.549l-.019.017-1.23-2.566H35.42V37.3h.65v-2.69l.018-.017 1.265 2.707h1.002v-3.252Zm-6.002 1.012a.495.495 0 0 1-.002-.057.559.559 0 0 0-.14-.015c-.183.008-.256.065-.297.12a.438.438 0 0 0-.06.11.498.498 0 0 1 .366-.158h.133Zm-.453 1.757c-.408-.123-.612-.501-.612-1.134 0-.774.305-1.172.914-1.196.434 0 .65.182.65.545h.739c0-.193-.038-.36-.114-.5-.201-.37-.667-.554-1.398-.554-.996.082-1.506.65-1.53 1.705.022.949.436 1.49 1.245 1.623.09.015.185.025.285.03l.114-.001h.01c.248-.003.453-.015.614-.035l.074-.001.03-.001c.21-.009.416-.043.617-.103V35.56h-1.318v.545h.633v.685a.081.081 0 0 1-.012.01.042.042 0 0 1-.024.008 4.058 4.058 0 0 1-.615.053c-.034-.001-.068-.003-.1-.006l-.023-.002a1.035 1.035 0 0 1-.179-.036Zm-1.755-4.203.247.686h.703l-1.143-3.252h-.826L27.949 33.3h.668l.246-.685h1.284Zm-.175-.544h-.932l.475-1.39h.017l.44 1.39Zm-4.834 4.29c.13 0 .166-.036.194-.077.051-.075.114-.25.114-.6 0-.358-.063-.538-.116-.617-.03-.043-.065-.079-.192-.079-.148 0-.19.043-.217.084-.052.074-.115.249-.11.605v.014c-.005.357.059.528.108.598.024.034.06.076.208.073h.01Zm9.72-2.312h-.703V37.3h.703v-3.252Z" fill="#505050"/><defs><clipPath id="a"><path fill="#fff" d="M0 0h48v40H0z"/></clipPath></defs></svg>