<svg width="48" height="40" fill="none" xmlns="http://www.w3.org/2000/svg"><g clip-path="url(#a)"><path fill-rule="evenodd" clip-rule="evenodd" d="M0 38a2 2 0 0 0 2 2h44a2 2 0 0 0 2-2V2A2 2 0 0 0 46.15.005L46 0H2l-.15.005A2 2 0 0 0 0 2v36ZM27 2H2v25h25V2ZM2 29v9h13v-9H2Zm15 9h29v-9H17v9Zm29-11V2H29v25h17Z" fill="#505050"/></g><path fill="#3A6AF6" d="M2 29h13v9H2z"/><path fill-rule="evenodd" clip-rule="evenodd" d="M11.563 31.516v-.793h-.63l.11-.328H9.84l-.11.328H7.215l-.137-.328H5.875l.11.328h-.63v.793h6.207ZM9.183 32.8c.128.018.228-.046.301-.192l.082-.164h1.996v-.683H9.758l.027-.082h-.93l-.136.273c-.055.128-.146.182-.274.164h-.41v.684h1.149Zm-2.761-1.012v2.023h-.93V31.79h.93Zm1.367 2.023V31.79h-.848v2.023h.848Zm3.774 0H9.02c-.347.019-.547-.063-.602-.246l-.355-.656h1.093l.082.11c.019.109.1.154.246.136h2.079v.657Zm0 2.817v-.738h-.247v-1.832H5.52v1.832h-.192v.738h6.234Zm-5.141-.738h.793v-1.04h-.793v1.04Zm1.613 0v-1.04h.766v1.04h-.766Zm1.64 0h.794v-1.04h-.793v1.04Z" fill="#fff" stroke="#505050"/><path fill-rule="evenodd" clip-rule="evenodd" d="M11.563 31.516v-.793h-.63l.11-.328H9.84l-.11.328H7.215l-.137-.328H5.875l.11.328h-.63v.793h6.207ZM9.183 32.8c.128.018.228-.046.301-.192l.082-.164h1.996v-.683H9.758l.027-.082h-.93l-.136.273c-.055.128-.146.182-.274.164h-.41v.684h1.149Zm-2.761-1.012v2.023h-.93V31.79h.93Zm1.367 2.023V31.79h-.848v2.023h.848Zm3.774 0H9.02c-.347.019-.547-.063-.602-.246l-.355-.656h1.093l.082.11c.019.109.1.154.246.136h2.079v.657Zm0 2.817v-.738h-.247v-1.832H5.52v1.832h-.192v.738h6.234Zm-5.141-.738h.793v-1.04h-.793v1.04Zm1.613 0v-1.04h.766v1.04h-.766Zm1.64 0h.794v-1.04h-.793v1.04Z" fill="#fff"/><path fill="#CCC" d="M2 2h25v25H2z"/><path d="M13.688 9.517a.8.8 0 0 1 .812-.786.8.8 0 0 1 .812.786v3.62l3.236-1.81a.826.826 0 0 1 1.109.288.773.773 0 0 1-.297 1.075l-3.236 1.81 3.236 1.81a.773.773 0 0 1 .297 1.075.826.826 0 0 1-1.11.288l-3.235-1.81v3.62a.8.8 0 0 1-.812.786.8.8 0 0 1-.812-.786v-3.62l-3.236 1.81a.826.826 0 0 1-1.109-.288.774.774 0 0 1 .297-1.075l3.236-1.81-3.236-1.81a.774.774 0 0 1-.297-1.075.826.826 0 0 1 1.11-.288l3.235 1.81v-3.62Z" fill="#3A6AF6"/><path d="M13.875 5.227a1.25 1.25 0 0 1 1.25 0l7.093 4.095c.387.223.625.636.625 1.083v8.19c0 .447-.238.86-.625 1.083l-7.093 4.095a1.25 1.25 0 0 1-1.25 0l-7.093-4.095a1.25 1.25 0 0 1-.625-1.083v-8.19c0-.447.238-.86.625-1.083l7.093-4.095Z" stroke="#3A6AF6" stroke-width="1.5"/><path fill="#3A6AF6" d="M29 2h17v25H29z"/><path d="M38.32 4.953h1.29v7.656c-.027.704-.391 1.068-1.094 1.094h-.938v-.976h.508c.156 0 .234-.092.234-.274v-7.5Zm-3.593 3.711c-.495 0-.82-.39-.977-1.172l-.508-2.383h1.446l.43 1.875c.051.391.194.573.429.547h.39v1.133h-1.21Zm-1.172 3.984c.208 0 .351-.208.43-.625l.39-2.421h1.484l-.507 2.734c-.13.99-.547 1.445-1.25 1.367h-.899v-1.055h.352Zm2.734.938h-.781V12.53h.508c.156-.026.26-.169.312-.43l.547-4.96h-1.094V6.047h2.383l-.664 6.445c-.104.73-.508 1.094-1.21 1.094Zm3.398-7.031h.235l.586-1.25h1.367l-.82 1.758.39 4.804c.026.495.13.716.313.664h.234v1.016h-.82c-.547-.026-.846-.443-.899-1.25l-.351-4.688h-.234V6.555ZM35.86 17.79v-1.25h.937l.156-.47h1.406l-.117.47h3.75v1.25h-4.101l-.547 1.835h.976v-1.21h1.485v1.21h2.187v1.25h-2.187v3.32c0 .495-.248.742-.742.742h-1.29v-1.054h.43c.078 0 .117-.04.117-.117v-2.891h-2.46v-.977l.624-2.109h-.625Zm-1.25 1.562c-.47.026-.717-.144-.743-.508l-.625-2.774h1.29L35 18.023c0 .105.065.157.195.157h.313v1.172h-.899Zm-1.133 4.218.664-3.086h1.406l-.781 3.672c-.078.39-.339.586-.782.586h-.859v-1.055h.195c.13.026.183-.013.157-.117Zm2.812-.117.352-2.031h1.367l-.508 2.656c-.026.417-.313.612-.86.586h-.859V23.61h.274c.156 0 .234-.052.234-.156Zm4.727 1.25c-.365 0-.573-.234-.625-.703l-.313-2.578h1.29l.312 2.07c-.026.104.026.143.156.117h.195v1.094h-1.015Z" fill="#fff"/><path fill-rule="evenodd" clip-rule="evenodd" d="M37.82 4.953a.5.5 0 0 1 .5-.5h1.29a.5.5 0 0 1 .5.5v.05a.5.5 0 0 1 .398-.198h1.367a.5.5 0 0 1 .453.711l-.764 1.638.38 4.673v.014c.005.075.01.138.017.19h.031a.5.5 0 0 1 .5.5v1.016a.5.5 0 0 1-.5.5h-.82a1.284 1.284 0 0 1-1.04-.54 1.559 1.559 0 0 1-.143-.243c-.07.185-.174.355-.319.5-.3.3-.705.423-1.136.439h-.956a.5.5 0 0 1-.456-.294 1.87 1.87 0 0 1-.833.177h-.781a.499.499 0 0 1-.373-.166c-.3.234-.667.32-1.06.283h-.872a.5.5 0 0 1-.5-.5v-1.055a.5.5 0 0 1 .5-.5h.232a.999.999 0 0 0 .057-.21l.39-2.416a.5.5 0 0 1 .446-.418 1.286 1.286 0 0 1-.6-.413c-.238-.285-.382-.668-.468-1.098l-.507-2.38a.5.5 0 0 1 .49-.604h1.444a.5.5 0 0 1 .488.389l.18.787a.5.5 0 0 1 .426-.238h2.04v-.594Zm.5 7.5c0 .182-.078.274-.234.274h-.508v.976h.938c.703-.026 1.067-.39 1.093-1.094V4.953H38.32v7.5Zm1.602-5.898h-.234v1.054h.234l.351 4.688c.052.807.352 1.224.899 1.25h.82V12.53h-.234a.156.156 0 0 1-.096 0c-.123-.042-.196-.263-.217-.664l-.39-4.805.82-1.757h-1.367l-.586 1.25Zm-1.758-.508h-2.383V7.14h1.094l-.547 4.96c-.052.261-.156.404-.312.43h-.508v1.055h.781c.328 0 .591-.08.79-.239.177-.142.302-.35.374-.62a2.01 2.01 0 0 0 .047-.235l.664-6.445Zm-2.018 3.145.008-.077a.5.5 0 0 1-.086.032.506.506 0 0 1 .078.045Zm-.209-1.66h-.39a.363.363 0 0 1-.084 0c-.185-.024-.3-.206-.346-.548l-.43-1.875h-1.445l.508 2.383c.156.781.482 1.172.977 1.172h1.21V7.531Zm-.078 2.07h-1.484l-.39 2.421c-.079.417-.222.625-.43.625h-.352v1.055h.899c.39.043.692-.078.906-.364.145-.193.25-.463.313-.808.011-.062.022-.128.03-.195l.508-2.734Zm-.351 8.578h-.313c-.13 0-.195-.052-.195-.157l-.469-1.953h-1.289l.625 2.774c.026.364.274.534.742.508h.899V18.18Zm-.146 1.672h-.74c-.282.013-.583-.025-.832-.195a.985.985 0 0 1-.418-.736l-.618-2.74a.5.5 0 0 1 .488-.61h1.29a.5.5 0 0 1 .485.383l.342 1.424v-.839a.5.5 0 0 1 .5-.5h.578l.042-.127a.5.5 0 0 1 .474-.342h1.406a.5.5 0 0 1 .5.47h3.133a.5.5 0 0 1 .5.5v1.25a.5.5 0 0 1-.5.5H40.29a.5.5 0 0 1 .016.124v.711h1.687a.5.5 0 0 1 .5.5v1.25a.5.5 0 0 1-.5.5h-.126l.263 1.744a.5.5 0 0 1 .402.49v1.094a.5.5 0 0 1-.5.5h-1.015a1.044 1.044 0 0 1-.84-.386c-.05.104-.116.201-.203.288-.25.251-.586.332-.91.332h-1.29a.5.5 0 0 1-.48-.358c-.21.075-.44.095-.664.085h-.848a.5.5 0 0 1-.5-.5v-.529l-.026.123a1.191 1.191 0 0 1-.443.738c-.243.182-.536.246-.828.246h-.859a.5.5 0 0 1-.5-.5v-1.055a.5.5 0 0 1 .421-.493l.606-2.815a.5.5 0 0 1 .489-.395h1.218v-.086l.003-.046Zm.497 1.023h2.461v2.89c0 .079-.039.118-.117.118h-.43v1.055h1.29c.494 0 .742-.248.742-.743v-3.32h2.187v-1.25h-2.187v-1.21H38.32v1.21h-.976l.547-1.836h4.101v-1.25h-3.75l.117-.469h-1.406l-.156.47h-.938v1.25h.625l-.625 2.108v.977Zm4.22.547h1.288l.313 2.07c-.016.063-.003.102.037.117.027.01.067.01.119 0h.195v1.094h-1.015c-.365 0-.573-.234-.625-.703l-.313-2.578ZM37.5 24.078l.508-2.656H36.64l-.352 2.031c0 .104-.078.156-.234.156h-.274v1.055h.86c.278.013.489-.03.632-.132.139-.098.214-.25.227-.454Zm-1.359-2.703-.3 1.734h-.06a.498.498 0 0 0-.303.103l.39-1.837h.273Zm-.594-.89H34.14l-.664 3.085c.015.063.003.102-.038.117a.225.225 0 0 1-.119 0h-.195v1.055h.86c.442 0 .703-.195.78-.586l.782-3.672Z" fill="#505050"/><path fill="#3A6AF6" d="M17 29h29v9H17z"/><path d="M22.633 35.5h-.762v-3.613h2.324v.605h-1.562v.86h1.465v.605h-1.465V35.5ZM25.367 32.492v.957h.645c.364 0 .547-.17.547-.508 0-.312-.183-.462-.547-.449h-.645Zm0 1.563V35.5h-.781v-3.613h1.543c.82.013 1.237.325 1.25.937-.013.469-.26.762-.742.88v.019c.351.039.566.306.644.8.013.052.02.092.02.118.039.43.104.716.195.859h-.84a4.78 4.78 0 0 1-.136-.977c-.026-.312-.137-.468-.332-.468h-.82ZM29.566 35.54c-1.132-.027-1.712-.639-1.738-1.837.04-1.237.619-1.868 1.738-1.894 1.107.026 1.68.657 1.72 1.894-.04 1.198-.613 1.81-1.72 1.836Zm0-3.165c-.612 0-.918.443-.918 1.328 0 .872.306 1.309.918 1.309.6 0 .899-.437.899-1.309 0-.885-.3-1.328-.899-1.328ZM31.637 35.5v-.605l1.797-2.403h-1.68v-.605h2.617v.605l-1.777 2.403h1.816v.605h-2.773ZM34.84 35.5v-3.613h2.422v.605h-1.64v.84h1.523v.605H35.62v.958h1.7v.605H34.84ZM41.188 35.5h-1.114l-1.406-3.008-.02.02V35.5h-.722v-3.613h1.152l1.367 2.851.02-.02v-2.831h.722V35.5Z" fill="#fff"/><path fill-rule="evenodd" clip-rule="evenodd" d="M23.133 35.5a.5.5 0 0 1-.5.5h-.762a.5.5 0 0 1-.5-.5v-3.613a.5.5 0 0 1 .5-.5h2.324c.07 0 .136.014.196.04a.498.498 0 0 1 .195-.04h1.55c.46.007.892.097 1.22.344.173.13.3.288.385.466a1.91 1.91 0 0 1 .183-.233c.407-.444.979-.64 1.63-.655h.024c.648.015 1.215.212 1.619.657.02.021.038.044.057.066v-.145a.5.5 0 0 1 .5-.5h2.617c.085 0 .165.02.234.058a.498.498 0 0 1 .235-.058h2.422c.127 0 .243.047.332.126a.498.498 0 0 1 .332-.126h1.152a.5.5 0 0 1 .451.284l.436.909v-.693a.5.5 0 0 1 .5-.5h.722a.5.5 0 0 1 .5.5V35.5a.5.5 0 0 1-.5.5h-1.113a.5.5 0 0 1-.453-.288l-.473-1.012v.8a.5.5 0 0 1-.5.5h-.722a.498.498 0 0 1-.303-.102.498.498 0 0 1-.303.102h-2.48a.498.498 0 0 1-.215-.048.498.498 0 0 1-.215.048h-2.773a.5.5 0 0 1-.5-.5v-.042c-.4.393-.944.567-1.559.58h-.023c-.613-.013-1.156-.179-1.56-.557a.5.5 0 0 1-.499.519h-.84a.5.5 0 0 1-.485-.379 5.268 5.268 0 0 1-.15-1.066h-.154v.945a.5.5 0 0 1-.5.5h-.781a.5.5 0 0 1-.5-.5v-1.043h-.953V35.5Zm.965-1.543v-.605h-1.465v-.86h1.562v-.605h-2.324V35.5h.762v-1.543h1.465Zm.488 1.543h.781v-1.445h.82a.264.264 0 0 1 .23.117c.055.078.09.195.102.351.014.339.06.664.137.977h.84c-.063-.099-.113-.265-.151-.5a5.163 5.163 0 0 1-.044-.36.531.531 0 0 0-.02-.117c-.03-.19-.08-.346-.15-.469a.623.623 0 0 0-.49-.33l-.004-.001v-.02h.002l.008-.002c.053-.014.103-.029.15-.047a.907.907 0 0 0 .386-.258.895.895 0 0 0 .196-.572c-.013-.612-.43-.924-1.25-.937h-1.543V35.5Zm1.635-2.074a.41.41 0 0 0 .277-.203.591.591 0 0 0 .06-.282c0-.312-.182-.462-.546-.449h-.645v.957h.645a.853.853 0 0 0 .209-.023Zm5.556.446.658-.88h-.681c-.018 0-.036 0-.053-.003a3.726 3.726 0 0 1 .084.73 4.211 4.211 0 0 1-.008.153Zm1.657-1.38-1.797 2.403v.605h2.773v-.605h-1.816l1.777-2.403v-.605h-2.617v.605h1.68Zm.906.883-.754 1.02h.754v-1.02Zm.5 2.125h2.48v-.605h-1.699v-.958h1.523v-.605h-1.523v-.84h1.64v-.605H34.84V35.5Zm2.586-1.149a.506.506 0 0 1-.08.044.498.498 0 0 1 .08.01v-.054Zm1.222-1.84.02-.019 1.406 3.008h1.114v-3.613h-.723v2.832l-.02.02-1.367-2.852h-1.152V35.5h.722v-2.988Zm-7.363 1.192c-.039-1.237-.612-1.868-1.719-1.894-1.12.026-1.699.657-1.738 1.894.026 1.198.606 1.81 1.738 1.836 1.107-.026 1.68-.638 1.72-1.836Zm-1.996-.712c-.069.1-.14.312-.14.712 0 .393.071.599.138.694.045.064.108.115.28.115.16 0 .218-.048.261-.11.066-.097.137-.304.137-.699 0-.402-.071-.615-.139-.716-.044-.065-.103-.112-.26-.112-.168 0-.231.05-.277.116Zm-.64.712c0-.885.305-1.328.917-1.328.6 0 .899.443.899 1.328 0 .872-.3 1.309-.899 1.309-.612 0-.918-.437-.918-1.309Z" fill="#505050"/><defs><clipPath id="a"><path fill="#fff" d="M0 0h48v40H0z"/></clipPath></defs></svg>