<svg width="48" height="40" fill="none" xmlns="http://www.w3.org/2000/svg"><g clip-path="url(#a)"><path fill-rule="evenodd" clip-rule="evenodd" d="M0 38a2 2 0 0 0 2 2h44a2 2 0 0 0 2-2V2A2 2 0 0 0 46.15.005L46 0H2l-.15.005A2 2 0 0 0 0 2v36ZM27 2H2v25h25V2ZM2 29v9h13v-9H2Zm15 9h29v-9H17v9Zm29-11V2H29v25h17Z" fill="#505050"/></g><path fill="#C93E34" d="M2 29h13v9H2z"/><path fill-rule="evenodd" clip-rule="evenodd" d="M7.926 35.07v-.847H6.668l1.613-2.57h-1.12l-.384.628h-.355l1.203-1.886H6.559l-1.04 1.613v1.039h.876l-.875 1.258v.765h2.406Zm3.8 1.532v-.875h-1.285V31.27H11.7v-.875H8.281v.875h1.094v4.457H8.254v.875h3.473Zm-3.8-.903v.82H5.492v-.82h2.434Z" fill="#fff"/><path d="M7.926 34.223h.5v-.5h-.5v.5Zm0 .847v.5h.5v-.5h-.5Zm-1.258-.847-.424-.266-.48.766h.904v-.5Zm1.613-2.57.424.265.48-.766h-.904v.5Zm-1.12 0v-.5h-.282l-.146.24.427.26Zm-.384.628v.5h.281l.146-.24-.427-.26Zm-.355 0L6 32.012l-.49.77h.912v-.5Zm1.203-1.886.422.268.49-.768h-.912v.5Zm-1.066 0v-.5h-.273l-.148.229.42.27Zm-1.04 1.613-.42-.27-.08.123v.147h.5Zm0 1.039h-.5v.5h.5v-.5Zm.876 0 .41.285.546-.785h-.956v.5Zm-.875 1.258-.41-.286-.09.129v.157h.5Zm0 .765h-.5v.5h.5v-.5Zm6.207.657h.5v-.5h-.5v.5Zm0 .875v.5h.5v-.5h-.5Zm-1.286-.875h-.5v.5h.5v-.5Zm0-4.457v-.5h-.5v.5h.5Zm1.258 0v.5h.5v-.5h-.5Zm0-.875h.5v-.5h-.5v.5Zm-3.418 0v-.5h-.5v.5h.5Zm0 .875h-.5v.5h.5v-.5Zm1.094 0h.5v-.5h-.5v.5Zm0 4.457v.5h.5v-.5h-.5Zm-1.121 0v-.5h-.5v.5h.5Zm0 .875h-.5v.5h.5v-.5Zm-.328-.082v.5h.5v-.5h-.5Zm0-.82h.5v-.5h-.5v.5Zm-2.434.82h-.5v.5h.5v-.5Zm0-.82v-.5h-.5v.5h.5Zm1.934-1.477v.847h1v-.847h-1Zm-.758.5h1.258v-1H6.668v1Zm1.19-3.336-1.614 2.57.847.532 1.614-2.57-.847-.532Zm-.698.765h1.121v-1h-1.12v1Zm.044.39.383-.63-.854-.52-.383.63.854.52Zm-.782.24h.355v-1h-.355v1Zm.781-2.656L6 32.012l.843.538 1.204-1.887-.844-.537Zm-.644.768h1.066v-1H6.559v1Zm-.62 1.385 1.04-1.614-.84-.541-1.04 1.613.84.542Zm.08.768v-1.04h-1v1.04h1Zm.376-.5H5.52v1h.875v-1ZM5.93 34.59l.875-1.258-.82-.57-.876 1.257.821.571Zm.09.48v-.765h-1v.765h1Zm1.906-.5H5.52v1h2.406v-1Zm3.3 1.157v.875h1v-.875h-1Zm-.785.5h1.286v-1H10.44v1Zm-.5-4.957v4.457h1V31.27h-1Zm1.758-.5h-1.258v1H11.7v-1Zm-.5-.375v.875h1v-.875h-1Zm-2.918.5H11.7v-1H8.281v1Zm.5.375v-.875h-1v.875h1Zm.594-.5H8.281v1h1.094v-1Zm.5 4.957V31.27h-1v4.457h1Zm-1.621.5h1.121v-1H8.254v1Zm.5.375v-.875h-1v.875h1Zm2.973-.5H8.254v1h3.473v-1Zm-3.301.418v-.82h-1v.82h1Zm-2.934.5h2.434v-1H5.492v1Zm-.5-1.32v.82h1v-.82h-1Zm2.934-.5H5.492v1h2.434v-1Z" fill="#505050"/><path fill-rule="evenodd" clip-rule="evenodd" d="M7.834 35.07v-.847H6.576l1.613-2.57H7.068l-.383.628H6.33l1.203-1.886H6.466l-1.039 1.613v1.039h.875l-.875 1.258v.765h2.407Zm3.8 1.532v-.875H10.35V31.27h1.258v-.875H8.189v.875h1.094v4.457H8.162v.875h3.472Zm-3.8-.903v.82H5.4v-.82h2.434Z" fill="#fff"/><path fill="#CCC" d="M2 2h25v25H2z"/><path fill-rule="evenodd" clip-rule="evenodd" d="M13.968 3.111a.5.5 0 0 1 .671 0l7.863 7.115a.5.5 0 0 1 .107.603l-7.863 14.938a.5.5 0 0 1-.885 0L5.998 10.829a.5.5 0 0 1 .107-.603l7.863-7.115Z" fill="#505050"/><path fill-rule="evenodd" clip-rule="evenodd" d="M13.966 3.83a.5.5 0 0 1 .671 0l7.31 6.612a.5.5 0 0 1 .106.604L14.744 24.93a.5.5 0 0 1-.884 0L6.55 11.046a.5.5 0 0 1 .108-.604l7.308-6.613Z" fill="#fff"/><path fill-rule="evenodd" clip-rule="evenodd" d="m14.302 12.524-7.725-1.987a.502.502 0 0 1 .08-.095l7.31-6.613a.499.499 0 0 1 .335-.129v8.824Zm7.644-2.082-.048-.043-7.596 2.125v12.674a.494.494 0 0 0 .442-.267l7.31-13.885a.5.5 0 0 0-.108-.604Z" fill="#C93E34"/><path fill-rule="evenodd" clip-rule="evenodd" d="m6.509 10.46 7.661 1.993v.352l-7.829-2.052.168-.294Z" fill="#505050"/><path fill-rule="evenodd" clip-rule="evenodd" d="M14.476 3.653h-.389l.083 21.758h.306V3.653Z" fill="#505050"/><path fill-rule="evenodd" clip-rule="evenodd" d="m14.302 12.49 7.714-2.204.129.27-7.817 2.199-.026-.265Z" fill="#505050"/><path fill="#C93E34" d="M29 2h17v25H29z"/><path fill-rule="evenodd" clip-rule="evenodd" d="M39.61 11.61c-.053.729-.417 1.106-1.094 1.132h-.938v-1.015h.508c.156.026.234-.066.234-.274v-7.5h1.29v7.656ZM35.937 6.53v1.133h-1.211c-.521 0-.847-.39-.977-1.172l-.508-2.383h1.446l.43 1.914c.025.391.168.56.429.508h.39Zm6.054 6.055V11.53h-.234c-.209.052-.313-.156-.313-.625l-.39-4.844.82-1.718h-1.367l-.586 1.21h-.234v1.094h.234l.351 4.649c.052.807.352 1.237.899 1.289h.82ZM37.5 11.492c-.104.73-.508 1.107-1.21 1.133h-.782v-1.094h.508c.156 0 .26-.143.312-.43l.547-4.96h-1.094V5.047h2.383l-.664 6.445Zm-3.398 1.25c.703.052 1.12-.417 1.25-1.406l.507-2.734h-1.484l-.39 2.421c-.079.443-.222.652-.43.625h-.352v1.094h.899Zm4.14 7.547h-1.445v-2.187h-2.344v2.109h-1.289v-3.008h3.633v-.273h-3.594v-.899h8.75v.899h-3.71v.273h3.71v3.008h-1.328V18.1h-2.383v2.188Zm-1.64-1.094v-.664h-.313c-.13 0-.221-.065-.273-.195h-1.211c0 .547.247.833.742.86h1.055Zm3.71-.86c-.026.574-.442.86-1.25.86h-.585v-.742h.43c.051 0 .13-.026.234-.078.026 0 .052-.013.078-.04h1.093Zm0 1.876v-.625c-.286.026-.442-.052-.468-.234h-1.367v.273c0 .39.312.586.937.586h.898Zm-3.75-.469c0 .339-.169.495-.507.469h-1.29v-.664h.313c.182.026.313-.04.39-.195h1.094v.39Zm-3.085 3.867c-.105.99.208 1.407.937 1.25h7.461v-.898h-6.602c-.234.026-.325-.091-.273-.352h4.219c.65.104.937-.156.86-.78v-1.25h-5.04l.273-.274h5.274v1.367c.052.208-.091.286-.43.234v.86h.547c.807 0 1.224-.339 1.25-1.016v-2.227h-6.055l.079-.156h-1.68l-.117.117c-.13.183-.339.274-.625.274h-.39v1.015h.312v1.836ZM35 22.83h3.281c.03.005.056.008.082.01.203.007.293-.14.27-.44H35v.43Z" fill="#fff" stroke="#505050"/><path fill-rule="evenodd" clip-rule="evenodd" d="M39.61 11.61c-.053.729-.417 1.106-1.094 1.132h-.938v-1.015h.508c.156.026.234-.066.234-.274v-7.5h1.29v7.656ZM35.937 6.53v1.133h-1.211c-.521 0-.847-.39-.977-1.172l-.508-2.383h1.446l.43 1.914c.025.391.168.56.429.508h.39Zm6.054 6.055V11.53h-.234c-.209.052-.313-.156-.313-.625l-.39-4.844.82-1.718h-1.367l-.586 1.21h-.234v1.094h.234l.351 4.649c.052.807.352 1.237.899 1.289h.82ZM37.5 11.492c-.104.73-.508 1.107-1.21 1.133h-.782v-1.094h.508c.156 0 .26-.143.312-.43l.547-4.96h-1.094V5.047h2.383l-.664 6.445Zm-3.398 1.25c.703.052 1.12-.417 1.25-1.406l.507-2.734h-1.484l-.39 2.421c-.079.443-.222.652-.43.625h-.352v1.094h.899Zm4.14 7.547h-1.445v-2.187h-2.344v2.109h-1.289v-3.008h3.633v-.273h-3.594v-.899h8.75v.899h-3.71v.273h3.71v3.008h-1.328V18.1h-2.383v2.188Zm-1.64-1.094v-.664h-.313c-.13 0-.221-.065-.273-.195h-1.211c0 .547.247.833.742.86h1.055Zm3.71-.86c-.026.574-.442.86-1.25.86h-.585v-.742h.43c.051 0 .13-.026.234-.078.026 0 .052-.013.078-.04h1.093Zm0 1.876v-.625c-.286.026-.442-.052-.468-.234h-1.367v.273c0 .39.312.586.937.586h.898Zm-3.75-.469c0 .339-.169.495-.507.469h-1.29v-.664h.313c.182.026.313-.04.39-.195h1.094v.39Zm-3.085 3.867c-.105.99.208 1.407.937 1.25h7.461v-.898h-6.602c-.234.026-.325-.091-.273-.352h4.219c.65.104.937-.156.86-.78v-1.25h-5.04l.273-.274h5.274v1.367c.052.208-.091.286-.43.234v.86h.547c.807 0 1.224-.339 1.25-1.016v-2.227h-6.055l.079-.156h-1.68l-.117.117c-.13.183-.339.274-.625.274h-.39v1.015h.312v1.836ZM35 22.83h3.281c.03.005.056.008.082.01.203.007.293-.14.27-.44H35v.43Z" fill="#fff"/><path fill="#C93E34" d="M17 29h29v9H17z"/><path fill-rule="evenodd" clip-rule="evenodd" d="M26.246 35v-1.582h1.387V35h.762v-3.613h-.782v1.425h-1.367v-1.425h-.762V35h.762Zm3.281 0 .274-.762h1.426L31.5 35h.781l-1.27-3.613h-.917L28.785 35h.742Zm.47-1.367h1.034l-.488-1.543h-.02l-.527 1.543Zm5 1.367v-.605h-1.563v-3.008h-.762V35h2.324Zm2.773-.605V35h-2.325v-3.613h.762v3.008h1.563Z" fill="#fff" stroke="#505050"/><path fill-rule="evenodd" clip-rule="evenodd" d="M26.246 35v-1.582h1.387V35h.762v-3.613h-.782v1.425h-1.367v-1.425h-.762V35h.762Zm3.281 0 .274-.762h1.426L31.5 35h.781l-1.27-3.613h-.917L28.785 35h.742Zm.47-1.367h1.034l-.488-1.543h-.02l-.527 1.543Zm5 1.367v-.605h-1.563v-3.008h-.762V35h2.324Zm2.773-.605V35h-2.325v-3.613h.762v3.008h1.563Z" fill="#fff"/><defs><clipPath id="a"><path fill="#fff" d="M0 0h48v40H0z"/></clipPath></defs></svg>