<svg width="48" height="40" fill="none" xmlns="http://www.w3.org/2000/svg"><g clip-path="url(#a)"><path fill-rule="evenodd" clip-rule="evenodd" d="M0 38a2 2 0 0 0 2 2h44a2 2 0 0 0 2-2V2A2 2 0 0 0 46.15.005L46 0H2l-.15.005A2 2 0 0 0 0 2v36ZM27 2H2v25h25V2ZM2 29v9h13v-9H2Zm15 9h29v-9H17v9Zm29-11V2H29v25h17Z" fill="#505050"/></g><path fill="#C93E34" d="M2 29h13v9H2z"/><path fill-rule="evenodd" clip-rule="evenodd" d="M7.926 35.07v-.847H6.668l1.613-2.57h-1.12l-.384.628h-.355l1.203-1.886H6.559l-1.04 1.613v1.039h.876l-.875 1.258v.765h2.406Zm3.8 1.532v-.875h-1.285V31.27H11.7v-.875H8.281v.875h1.094v4.457H8.254v.875h3.473Zm-3.8-.903v.82H5.492v-.82h2.434Z" fill="#fff"/><path d="M7.926 34.223h.5v-.5h-.5v.5Zm0 .847v.5h.5v-.5h-.5Zm-1.258-.847-.424-.266-.48.766h.904v-.5Zm1.613-2.57.424.265.48-.766h-.904v.5Zm-1.12 0v-.5h-.282l-.146.24.427.26Zm-.384.628v.5h.281l.146-.24-.427-.26Zm-.355 0L6 32.012l-.49.77h.912v-.5Zm1.203-1.886.422.268.49-.768h-.912v.5Zm-1.066 0v-.5h-.273l-.148.229.42.27Zm-1.04 1.613-.42-.27-.08.123v.147h.5Zm0 1.039h-.5v.5h.5v-.5Zm.876 0 .41.285.546-.785h-.956v.5Zm-.875 1.258-.41-.286-.09.129v.157h.5Zm0 .765h-.5v.5h.5v-.5Zm6.207.657h.5v-.5h-.5v.5Zm0 .875v.5h.5v-.5h-.5Zm-1.286-.875h-.5v.5h.5v-.5Zm0-4.457v-.5h-.5v.5h.5Zm1.258 0v.5h.5v-.5h-.5Zm0-.875h.5v-.5h-.5v.5Zm-3.418 0v-.5h-.5v.5h.5Zm0 .875h-.5v.5h.5v-.5Zm1.094 0h.5v-.5h-.5v.5Zm0 4.457v.5h.5v-.5h-.5Zm-1.121 0v-.5h-.5v.5h.5Zm0 .875h-.5v.5h.5v-.5Zm-.328-.082v.5h.5v-.5h-.5Zm0-.82h.5v-.5h-.5v.5Zm-2.434.82h-.5v.5h.5v-.5Zm0-.82v-.5h-.5v.5h.5Zm1.934-1.477v.847h1v-.847h-1Zm-.758.5h1.258v-1H6.668v1Zm1.19-3.336-1.614 2.57.847.532 1.614-2.57-.847-.532Zm-.698.765h1.121v-1h-1.12v1Zm.044.39.383-.63-.854-.52-.383.63.854.52Zm-.782.24h.355v-1h-.355v1Zm.781-2.656L6 32.012l.843.538 1.204-1.887-.844-.537Zm-.644.768h1.066v-1H6.559v1Zm-.62 1.385 1.04-1.614-.84-.541-1.04 1.613.84.542Zm.08.768v-1.04h-1v1.04h1Zm.376-.5H5.52v1h.875v-1ZM5.93 34.59l.875-1.258-.82-.57-.876 1.257.821.571Zm.09.48v-.765h-1v.765h1Zm1.906-.5H5.52v1h2.406v-1Zm3.3 1.157v.875h1v-.875h-1Zm-.785.5h1.286v-1H10.44v1Zm-.5-4.957v4.457h1V31.27h-1Zm1.758-.5h-1.258v1H11.7v-1Zm-.5-.375v.875h1v-.875h-1Zm-2.918.5H11.7v-1H8.281v1Zm.5.375v-.875h-1v.875h1Zm.594-.5H8.281v1h1.094v-1Zm.5 4.957V31.27h-1v4.457h1Zm-1.621.5h1.121v-1H8.254v1Zm.5.375v-.875h-1v.875h1Zm2.973-.5H8.254v1h3.473v-1Zm-3.301.418v-.82h-1v.82h1Zm-2.934.5h2.434v-1H5.492v1Zm-.5-1.32v.82h1v-.82h-1Zm2.934-.5H5.492v1h2.434v-1Z" fill="#505050"/><path fill-rule="evenodd" clip-rule="evenodd" d="M7.834 35.07v-.847H6.576l1.613-2.57H7.068l-.383.628H6.33l1.203-1.886H6.466l-1.039 1.613v1.039h.875l-.875 1.258v.765h2.407Zm3.8 1.532v-.875H10.35V31.27h1.258v-.875H8.189v.875h1.094v4.457H8.162v.875h3.472Zm-3.8-.903v.82H5.4v-.82h2.434Z" fill="#fff"/><path fill="#CCC" d="M2 2h25v25H2z"/><path d="m14.553 14.893.051-7.435c0-1.358-1.12-2.458-2.5-2.458S9.602 6.1 9.602 7.458v7.31C8.052 15.604 7 17.224 7 19.085 7 21.799 9.239 24 12 24c2.762 0 5-2.2 5-4.915 0-1.778-1.012-3.329-2.447-4.192ZM12 22.69c-2.07 0-3.75-1.65-3.75-3.686 0-1.547.971-2.866 2.344-3.415V7.783c0-.813.672-1.474 1.5-1.474.829 0 1.431.66 1.431 1.474v7.896c1.27.59 2.225 1.851 2.225 3.325 0 2.037-1.68 3.687-3.75 3.687Zm.867-6.552v-2.385h-1.59v2.327a3 3 0 0 0-2.36 2.954A3.098 3.098 0 0 0 12 22.114a3.098 3.098 0 0 0 3.083-3.079c0-1.376-.94-2.526-2.217-2.896Z" fill="#C93E34"/><path fill-rule="evenodd" clip-rule="evenodd" d="M20.339 11.68a.682.682 0 0 0 .911.234.628.628 0 0 0 .244-.876l-.839-1.397h1.678A.654.654 0 0 0 23 9a.654.654 0 0 0-.667-.641h-1.678l.839-1.398a.628.628 0 0 0-.244-.875.681.681 0 0 0-.91.235l-.84 1.397-.839-1.397a.682.682 0 0 0-.911-.235.628.628 0 0 0-.244.876l.839 1.397h-1.678a.654.654 0 0 0-.667.64c0 .355.299.642.667.642h1.678l-.839 1.397a.628.628 0 0 0 .244.876.682.682 0 0 0 .91-.235l.84-1.397.839 1.397Z" fill="#C93E34"/><path fill="#C93E34" d="M29 2h17v25H29z"/><path d="M33.125 5.305h3.79v-.352h1.327v.313h3.79v1.25H40.82v-.352h-6.445v.39h1.406v.43h3.555v-.351h1.406v.351h1.172v.86h-1.172v.43h1.133v.898h-1.133v.469h1.25v.859h-1.64l.312.352a.49.49 0 0 0 .43.234h.937v.82h-1.875v.664h-3.32c-.339.026-.586-.13-.742-.468l-.39-.743-.43.391c-.287.13-.652.195-1.094.195h-1.055v-.86h.625c.286 0 .534-.09.742-.273l.352-.312h-1.719v-.86h1.25v-.468H33.32v-.899h1.055v-.43H33.32v-.859h1.055v-.43h-1.25v-1.25Zm2.656 2.968h3.555v-.43H35.78v.43Zm3.555 1.368v-.47H35.82v.47h3.516Zm.508 2.187c-.078 0-.209-.104-.39-.312L38.71 10.5h-2.07l-.82.703h1.132l.352.43a.52.52 0 0 0 .43.195h2.109Zm-4.688 1.914c-.39.026-.664-.143-.82-.508l-.625-1.015h1.562l.274.43c.13.208.286.312.469.312h5.547v.781h-6.407ZM41.758 20.914v1.211l-1.406 1.797h1.406v.976h-2.93c-.469.026-.807-.104-1.016-.39L36.68 23.14h1.718l.352.39c.052.104.117.143.195.117l1.211-1.562h-3.633v-1.172h5.235Zm-4.375-4.922h3.281a3.5 3.5 0 0 1 .195.352c.13.338.26.573.391.703a.265.265 0 0 0 .195.078h.547v1.094h-1.25c-.338 0-.65-.26-.937-.782a4.962 4.962 0 0 1-.157-.273h-1.21a4.14 4.14 0 0 0-.118.273c-.156.339-.325.547-.508.625-.234.13-.481.196-.742.196h-1.093v-1.055h.468c.105 0 .183-.026.235-.078.182-.104.351-.338.508-.703.078-.209.143-.352.195-.43Zm-3.399 7.266.352-2.617h1.445l-.508 3.242c-.078.625-.468.924-1.171.898h-.938v-1.093h.39c.287.026.43-.118.43-.43Zm-.078-4.219-.664-2.93h1.563l.351 1.72c.078.468.196.715.352.741h.39v1.172h-1.093c-.443-.026-.742-.26-.899-.703Zm3.594.625-.508-1.172h1.485l.117.313c.026.104.117.156.273.156h2.266v1.094h-3.008a.653.653 0 0 1-.625-.39Z" fill="#fff"/><path fill-rule="evenodd" clip-rule="evenodd" d="M32.625 5.305a.5.5 0 0 1 .5-.5h3.312a.5.5 0 0 1 .477-.352h1.328a.5.5 0 0 1 .464.313h3.325a.5.5 0 0 1 .5.5v1.25c0 .131-.05.25-.134.34.011.041.017.084.017.128v.86c0 .093-.026.18-.07.255a.5.5 0 0 1 .031.174v.899a.502.502 0 0 1-.017.128c.083.09.134.21.134.34v.86a.498.498 0 0 1-.076.266.498.498 0 0 1 .115.32v.82a.5.5 0 0 1-.5.5h-1.375v.055h.907a.5.5 0 0 1 .5.5v.781a.5.5 0 0 1-.5.5H35.17a1.312 1.312 0 0 1-.776-.182 1.324 1.324 0 0 1-.503-.592l-.607-.987a.517.517 0 0 1-.02-.036h-.14a.5.5 0 0 1-.5-.5v-.86c0-.109.035-.21.095-.292a.498.498 0 0 1-.095-.293v-.86a.5.5 0 0 1 .2-.4.502.502 0 0 1-.005-.068v-.899c0-.076.018-.15.049-.214a.498.498 0 0 1-.049-.215v-.86l.001-.032a.5.5 0 0 1-.196-.397v-1.25Zm.5 1.25h1.25v.43H33.32v.859h1.055v.43H33.32v.898h1.055v.469h-1.25v.859h1.719l-.352.313a1.096 1.096 0 0 1-.742.273h-.625v.86h1.055c.442 0 .807-.066 1.093-.196l.43-.39.39.742a.85.85 0 0 0 .286.359c.127.086.28.123.457.11h3.32v-.665h1.875v-.82h-.937a.49.49 0 0 1-.43-.234l-.312-.352h1.64v-.86h-1.25v-.468h1.133v-.899h-1.133v-.43h1.172v-.859h-1.172v-.351h-1.406v.351H35.78v-.43h-1.406v-.39h6.445v.352h1.211v-1.25h-3.789v-.313h-1.328v.352h-3.789v1.25Zm5.586 3.945h-2.07l-.82.703h1.132l.352.43a.52.52 0 0 0 .43.195h2.109c-.04 0-.094-.027-.162-.082a2.004 2.004 0 0 1-.229-.23l-.742-1.016Zm-.014.828-.24-.328h-1.024l.262.32.004.005a.137.137 0 0 0 .035.003h.963Zm-2.681 1.633c-.183 0-.339-.104-.47-.313l-.273-.43h-1.562l.625 1.016c.156.365.43.534.82.508h6.407v-.781h-5.547Zm3.32-5.117H35.78v.43h3.555v-.43Zm0 1.328v.469H35.82v-.47h3.516Zm2.422 11.242a.5.5 0 0 1 .5.5v1.211a.5.5 0 0 1-.106.308l-.774.989h.38a.5.5 0 0 1 .5.5v.976a.5.5 0 0 1-.5.5H38.84c-.565.029-1.085-.13-1.423-.582l-1.123-1.356a.5.5 0 0 1 .385-.82h1.718a.5.5 0 0 1 .372.166l.105.117.261-.337h-2.613a.5.5 0 0 1-.482-.37l-.272 1.737c-.052.403-.216.77-.543 1.02-.318.244-.718.322-1.133.308h-.929a.5.5 0 0 1-.5-.5v-1.093a.5.5 0 0 1 .5-.5h.325l.351-2.614a.5.5 0 0 1 .458-.432 1.367 1.367 0 0 1-.358-.201 1.577 1.577 0 0 1-.521-.791l-.664-2.93a.5.5 0 0 1 .487-.61h1.563a.5.5 0 0 1 .49.4l.21 1.027a.5.5 0 0 1 .472-.334h.434a.606.606 0 0 1 .02-.012c.035-.02.149-.123.293-.456.077-.204.157-.392.243-.52a.5.5 0 0 1 .416-.223h3.281a.5.5 0 0 1 .416.223 3.95 3.95 0 0 1 .246.45c.09.234.167.378.223.46h.443a.5.5 0 0 1 .5.5v1.094a.5.5 0 0 1-.5.5h-.422c.04.072.063.154.063.242v1.094a.499.499 0 0 1-.153.36h.278Zm-4.213 0a1.204 1.204 0 0 1-.504-.551l-.479-1.105h-.164v.984a.5.5 0 0 1-.348.477.497.497 0 0 1 .208.271.498.498 0 0 1 .265-.076h1.022Zm-1.647-1.844h-.39c-.156-.026-.274-.273-.352-.742l-.351-1.719h-1.563l.664 2.93c.157.443.456.677.899.703h1.093V18.57Zm.079-.312h1.093c.26 0 .508-.065.742-.195.04-.018.08-.041.119-.07.138-.106.267-.291.39-.555a4.14 4.14 0 0 1 .117-.274h1.21c.026.052.079.143.157.273.286.521.599.782.937.782h1.25v-1.094h-.547a.265.265 0 0 1-.195-.078c-.13-.13-.26-.365-.39-.703a3.5 3.5 0 0 0-.196-.352h-3.281a2.358 2.358 0 0 0-.196.43c-.156.364-.325.599-.507.703-.052.052-.13.078-.235.078h-.468v1.055Zm3.38-.594h-.59a2.783 2.783 0 0 1-.187.34.5.5 0 0 1 .365.313l.054.144H40c-.255-.192-.462-.472-.63-.774l-.013-.023Zm-.501.796h.003-.003Zm-1.864.032.508 1.172c.13.26.339.39.625.39h3.008v-1.093h-2.266c-.156 0-.247-.052-.273-.156l-.117-.313h-1.485Zm-2.89 6.29c.703.025 1.093-.274 1.171-.9l.508-3.241h-1.445l-.352 2.617c0 .27-.106.413-.32.43a.63.63 0 0 1-.11 0h-.39v1.093h.938Zm6.054-2.696-1.21 1.562c-.079.026-.144-.013-.196-.117l-.352-.39H36.68l1.133 1.367c.208.286.546.416 1.015.39h2.93v-.976h-1.406l1.406-1.797v-1.21h-5.235v1.17h3.633Z" fill="#505050"/><path fill="#C93E34" d="M17 29h29v9H17z"/><path d="M27.916 33.059h-.82c-.026-.443-.26-.671-.703-.684-.43.026-.658.469-.684 1.328.026.846.254 1.283.684 1.309.455-.013.69-.241.703-.684h.82c-.039.794-.547 1.198-1.523 1.211-.977-.026-1.478-.638-1.504-1.836.039-1.224.54-1.855 1.504-1.894.963.013 1.47.43 1.523 1.25ZM29.986 35.54c-1.133-.027-1.712-.639-1.738-1.837.04-1.237.618-1.868 1.738-1.894 1.107.026 1.68.657 1.72 1.894-.04 1.198-.613 1.81-1.72 1.836Zm0-3.165c-.612 0-.918.443-.918 1.328 0 .872.306 1.309.918 1.309.6 0 .899-.437.899-1.309 0-.885-.3-1.328-.899-1.328ZM34.596 35.5h-2.324v-3.613h.761v3.008h1.563v.605ZM35.787 32.492v2.403h.41c.716.026 1.068-.372 1.055-1.192.013-.833-.339-1.237-1.055-1.21h-.41Zm-.762 3.008v-3.613h1.23c1.199.013 1.804.618 1.817 1.816-.013 1.185-.618 1.784-1.816 1.797h-1.23Z" fill="#fff"/><path fill-rule="evenodd" clip-rule="evenodd" d="M28.176 32.174a1.541 1.541 0 0 0-.363-.43c-.374-.307-.87-.428-1.414-.435h-.027c-.596.024-1.11.24-1.47.692-.344.433-.492 1.02-.513 1.686v.027c.014.656.159 1.236.508 1.663.364.444.886.646 1.482.662h.02c.546-.007 1.043-.123 1.418-.421.15-.119.268-.257.36-.411.049.069.103.135.162.197.41.433.984.62 1.636.635h.023c.643-.015 1.208-.204 1.613-.637.058-.062.112-.127.16-.196v.294a.5.5 0 0 0 .5.5h2.325c.077 0 .15-.017.215-.048a.499.499 0 0 0 .214.048h1.236c.676-.007 1.272-.181 1.699-.603.428-.424.605-1.017.612-1.688v-.011c-.007-.677-.183-1.274-.61-1.701-.427-.427-1.024-.603-1.7-.61h-1.237a.5.5 0 0 0-.5.5v2.508h-.992v-2.508a.5.5 0 0 0-.5-.5h-.761a.5.5 0 0 0-.5.5v.274a1.91 1.91 0 0 0-.156-.195c-.403-.445-.97-.642-1.618-.657h-.023c-.652.015-1.224.21-1.632.655-.06.066-.116.136-.167.21Zm.22.665a2.121 2.121 0 0 0-.06.193 2.75 2.75 0 0 0-.068.381c-.01.093-.017.19-.02.29.002.092.007.18.016.266.013.135.035.262.065.38.02.074.041.144.067.211.24.634.77.96 1.59.98 1.107-.027 1.68-.639 1.72-1.837-.04-1.237-.613-1.868-1.72-1.894-.82.019-1.35.362-1.59 1.03Zm-.644.99a3.878 3.878 0 0 1-.004-.142l.006-.128h-.658a.5.5 0 0 1-.5-.471.472.472 0 0 0-.025-.14.092.092 0 0 0-.02-.034.09.09 0 0 0-.033-.018.426.426 0 0 0-.113-.02c-.013.006-.032.024-.061.08-.063.121-.122.354-.135.747.013.385.072.613.134.73a.202.202 0 0 0 .053.073s.003.003.01.005a.461.461 0 0 0 .122-.021c.025-.01.033-.017.034-.017 0 0 .006-.006.013-.026a.428.428 0 0 0 .02-.134.5.5 0 0 1 .5-.485h.657Zm-.656.5c-.013.442-.248.67-.703.683-.43-.026-.658-.462-.684-1.309.026-.86.254-1.302.684-1.328.442.013.677.24.703.684h.82a1.825 1.825 0 0 0-.034-.258 1.393 1.393 0 0 0-.073-.242c-.201-.49-.674-.74-1.416-.75-.964.039-1.465.67-1.504 1.894.026 1.198.527 1.81 1.504 1.836.744-.01 1.216-.247 1.416-.71.03-.072.054-.148.072-.229.019-.085.03-.175.035-.272h-.82Zm5.937.566v-3.008h-.761V35.5h2.324v-.605h-1.563Zm1.992.605h1.23c1.199-.013 1.804-.612 1.817-1.797-.013-1.198-.618-1.803-1.816-1.816h-1.23V35.5Zm1.172-3.008h-.41v2.403h.41c.716.026 1.068-.372 1.055-1.192.013-.833-.339-1.237-1.055-1.21Zm.09 1.904c.211-.005.296-.065.337-.111.058-.066.134-.223.128-.574v-.016c.006-.359-.071-.522-.131-.591-.041-.047-.125-.108-.334-.113v1.404ZM29.71 32.99c-.069.1-.14.312-.14.712 0 .393.071.599.138.694.045.064.108.115.28.115.16 0 .218-.048.261-.11.066-.097.137-.304.137-.699 0-.402-.071-.615-.139-.716-.044-.065-.103-.112-.26-.112-.168 0-.231.05-.277.116Zm-.64.712c0-.885.305-1.328.917-1.328.6 0 .899.443.899 1.328 0 .872-.3 1.309-.899 1.309-.612 0-.918-.437-.918-1.309Z" fill="#505050"/><defs><clipPath id="a"><path fill="#fff" d="M0 0h48v40H0z"/></clipPath></defs></svg>