<svg width="48" height="40" fill="none" xmlns="http://www.w3.org/2000/svg"><g clip-path="url(#a)"><path fill-rule="evenodd" clip-rule="evenodd" d="M0 38a2 2 0 0 0 2 2h44a2 2 0 0 0 2-2V2A2 2 0 0 0 46.15.005L46 0H2l-.15.005A2 2 0 0 0 0 2v36ZM27 2H2v25h25V2ZM2 29v9h13v-9H2Zm15 9h29v-9H17v9Zm29-11V2H29v25h17Z" fill="#505050"/></g><path fill="#FFFD54" d="M2 29h13v9H2z"/><path fill-rule="evenodd" clip-rule="evenodd" d="M7.625 36.273a.959.959 0 0 1-.663.329H5.547v-.711h1.121c.11 0 .219-.055.328-.164l.137-.164H5.629v-2.817h2.434v-.328H5.52v-.766h.683v-.328H5.52v-.738h.683v-.273h.957v.273h2.762v-.3h.93v.3h.765v.738h-.765v.328h.793v.766H9.047v.328h2.488v1.914c.091.693-.255.994-1.039.903h-.328l.11.136c0 .018.008.037.027.055.127.091.228.128.3.11h1.04v.683h-1.56c-.29-.037-.482-.11-.573-.219l-.63-.766h-.519l-.738.711Zm-.465-4.62h2.735v-.329H7.16v.328Zm.875 2.132h-1.45v-.3h1.45v.3Zm1.012 0h1.558v-.3H9.047v.3Zm1.504 1.067H9.074v-.329h1.559v.22c0 .072-.027.109-.082.109Zm-3.965 0h1.45v-.329h-1.45v.329Z" fill="#fff" stroke="#505050"/><path fill-rule="evenodd" clip-rule="evenodd" d="M7.545 36.273a.959.959 0 0 1-.662.329H5.467v-.711h1.121c.11 0 .22-.055.329-.164l.136-.164H5.55v-2.817h2.434v-.328H5.44v-.766h.684v-.328H5.44v-.738h.684v-.273h.957v.273h2.761v-.3h.93v.3h.766v.738h-.766v.328h.793v.766H8.967v.328h2.489v1.914c.09.693-.256.994-1.04.903h-.328l.11.136c0 .018.009.037.027.055.128.091.228.128.3.11h1.04v.683h-1.559c-.291-.037-.483-.11-.574-.219l-.629-.766h-.52l-.738.711Zm-.464-4.62h2.734v-.329H7.081v.328Zm.875 2.132h-1.45v-.3h1.45v.3Zm1.011 0h1.559v-.3H8.967v.3Zm1.504 1.067H8.995v-.329h1.558v.22c0 .072-.027.109-.082.109Zm-3.965 0h1.45v-.329h-1.45v.329Z" fill="#fff"/><path fill="#CCC" d="M2 2h25v25H2z"/><path d="M5.925 4.134A1 1 0 0 0 5.56 5.5l3.212 5.562-3.212 5.563a1.011 1.011 0 0 0-.066.138 1 1 0 0 0 .108 1.023L9.38 22.8H5.65a1.25 1.25 0 1 0 0 2.5h18.5a1.25 1.25 0 1 0 0-2.5h-.836l-4.292-5.696 3.19-5.525a1 1 0 0 0 0-1.033L18.722 4.5a1 1 0 0 0-1.733 1l3.212 5.562-3.212 5.563a1.013 1.013 0 0 0-.066.138 1 1 0 0 0 .109 1.023L20.81 22.8h-3.211l-4.292-5.696 3.19-5.525a1 1 0 0 0 0-1.033L13.007 4.5a1 1 0 0 0-1.733 1l3.212 5.562-3.212 5.563a1.026 1.026 0 0 0-.066.138 1 1 0 0 0 .108 1.023l3.779 5.014h-3.211l-4.292-5.696 3.19-5.525a1 1 0 0 0 0-1.033L7.292 4.5a1 1 0 0 0-1.367-.366ZM29 2h17v25H29z" fill="#FFFD54"/><path fill-rule="evenodd" clip-rule="evenodd" d="M38.398 12.86v-2.344h3.75V9.383h-3.75V5.086h3.555V3.992h-8.516v1.094h3.555v4.297H33.32v1.133h3.672v2.343h1.406ZM41 20.718c.636-.026.953-.404.953-1.133V16.07h-8.672v4.649h7.72Zm-6.313-2.696h5.938v-.82h-5.938v.82Zm5.547 1.72h-5.547v-.782h5.938v.39c-.026.261-.156.391-.39.391Zm-1.875 4.374v.781h-1.484v-.78h-3.75v-1.016h3.75v-.899h-3.672v-1.015h8.828v1.015H38.36v.899h3.711v1.015h-3.71Z" fill="#fff" stroke="#505050"/><path fill-rule="evenodd" clip-rule="evenodd" d="M38.398 12.86v-2.344h3.75V9.383h-3.75V5.086h3.555V3.992h-8.516v1.094h3.555v4.297H33.32v1.133h3.672v2.343h1.406ZM41 20.718c.636-.026.953-.404.953-1.133V16.07h-8.672v4.649h7.72Zm-6.313-2.696h5.938v-.82h-5.938v.82Zm5.547 1.72h-5.547v-.782h5.938v.39c-.026.261-.156.391-.39.391Zm-1.875 4.374v.781h-1.484v-.78h-3.75v-1.016h3.75v-.899h-3.672v-1.015h8.828v1.015H38.36v.899h3.711v1.015h-3.71Z" fill="#fff"/><path fill="#FFFD54" d="M17 29h29v9H17z"/><path fill-rule="evenodd" clip-rule="evenodd" d="M27.76 35.04c1.106-.027 1.68-.639 1.718-1.837-.039-1.224-.612-1.855-1.718-1.894-1.133.039-1.713.67-1.739 1.894.026 1.198.606 1.81 1.739 1.836Zm-5.489-1.837C22.26 34.401 21.654 35 20.456 35h-1.23v-3.613h1.23c1.198.013 1.804.618 1.817 1.816Zm-2.285 1.191h.54-.13c.717.027 1.068-.37 1.055-1.19.013-.821-.338-1.225-1.055-1.212h-.41v2.402Zm3.575.606v-1.445h.82c.182 0 .293.156.332.468.013.339.058.664.137.977h.84c-.105-.13-.17-.417-.196-.86a.369.369 0 0 1-.02-.117c-.078-.494-.292-.761-.644-.8v-.02c.482-.117.73-.41.742-.879-.013-.599-.43-.911-1.25-.937H22.78V35h.782Zm0-2.05h.644c.352 0 .534-.17.547-.509-.013-.3-.195-.449-.547-.449h-.644v.957Zm3.28.253c-.012.886.294 1.322.919 1.309.599 0 .898-.437.898-1.309 0-.885-.3-1.328-.898-1.328-.625 0-.931.443-.918 1.328Zm4.805 1.836c1.003-.026 1.524-.488 1.563-1.387v-2.265h-.781v1.972c.039.808-.222 1.192-.781 1.153-.586.039-.853-.345-.801-1.153v-1.972h-.782v2.265c.026.899.554 1.361 1.582 1.387ZM36.295 35c-.208.026-.482.04-.82.04-1.107-.053-1.674-.665-1.7-1.837.026-1.172.593-1.803 1.7-1.894 1.12 0 1.68.39 1.68 1.171h-.821c0-.403-.24-.605-.723-.605-.677.026-1.015.469-1.015 1.328 0 .86.338 1.296 1.015 1.309.196 0 .424-.02.684-.059.013 0 .026-.006.039-.02v-.761h-.703v-.606h1.465v1.817c-.26.078-.528.117-.801.117Zm2.285 0v-1.582h1.387V35h.761v-3.613h-.78v1.425H38.58v-1.425h-.762V35h.762Zm4.395-3.008V35h-.782v-3.008H41.12v-.605h2.93v.605h-1.074Z" fill="#fff" stroke="#505050"/><path fill-rule="evenodd" clip-rule="evenodd" d="M27.76 35.04c1.106-.027 1.68-.639 1.718-1.837-.039-1.224-.612-1.855-1.718-1.894-1.133.039-1.713.67-1.739 1.894.026 1.198.606 1.81 1.739 1.836Zm-5.489-1.837C22.26 34.401 21.654 35 20.456 35h-1.23v-3.613h1.23c1.198.013 1.804.618 1.817 1.816Zm-2.285 1.191h.54-.13c.717.027 1.068-.37 1.055-1.19.013-.821-.338-1.225-1.055-1.212h-.41v2.402Zm3.575.606v-1.445h.82c.182 0 .293.156.332.468.013.339.058.664.137.977h.84c-.105-.13-.17-.417-.196-.86a.369.369 0 0 1-.02-.117c-.078-.494-.292-.761-.644-.8v-.02c.482-.117.73-.41.742-.879-.013-.599-.43-.911-1.25-.937H22.78V35h.782Zm0-2.05h.644c.352 0 .534-.17.547-.509-.013-.3-.195-.449-.547-.449h-.644v.957Zm3.28.253c-.012.886.294 1.322.919 1.309.599 0 .898-.437.898-1.309 0-.885-.3-1.328-.898-1.328-.625 0-.931.443-.918 1.328Zm4.805 1.836c1.003-.026 1.524-.488 1.563-1.387v-2.265h-.781v1.972c.039.808-.222 1.192-.781 1.153-.586.039-.853-.345-.801-1.153v-1.972h-.782v2.265c.026.899.554 1.361 1.582 1.387ZM36.295 35c-.208.026-.482.04-.82.04-1.107-.053-1.674-.665-1.7-1.837.026-1.172.593-1.803 1.7-1.894 1.12 0 1.68.39 1.68 1.171h-.821c0-.403-.24-.605-.723-.605-.677.026-1.015.469-1.015 1.328 0 .86.338 1.296 1.015 1.309.196 0 .424-.02.684-.059.013 0 .026-.006.039-.02v-.761h-.703v-.606h1.465v1.817c-.26.078-.528.117-.801.117Zm2.285 0v-1.582h1.387V35h.761v-3.613h-.78v1.425H38.58v-1.425h-.762V35h.762Zm4.395-3.008V35h-.782v-3.008H41.12v-.605h2.93v.605h-1.074Z" fill="#fff"/><defs><clipPath id="a"><path fill="#fff" d="M0 0h48v40H0z"/></clipPath></defs></svg>