<svg width="48" height="40" fill="none" xmlns="http://www.w3.org/2000/svg"><g clip-path="url(#a)"><path fill-rule="evenodd" clip-rule="evenodd" d="M0 38a2 2 0 0 0 2 2h44a2 2 0 0 0 2-2V2A2 2 0 0 0 46.15.005L46 0H2l-.15.005A2 2 0 0 0 0 2v36ZM27 2H2v25h25V2ZM2 29v9h13v-9H2Zm15 9h29v-9H17v9Zm29-11V2H29v25h17Z" fill="#505050"/></g><path fill="#3A6AF6" d="M2 29h13v9H2z"/><path fill-rule="evenodd" clip-rule="evenodd" d="M11.563 31.516v-.793h-.63l.11-.328H9.84l-.11.328H7.215l-.137-.328H5.875l.11.328h-.63v.793h6.207ZM9.183 32.8c.128.018.228-.046.301-.192l.082-.164h1.996v-.683H9.758l.027-.082h-.93l-.136.273c-.055.128-.146.182-.274.164h-.41v.684h1.149Zm-2.761-1.012v2.023h-.93V31.79h.93Zm1.367 2.023V31.79h-.848v2.023h.848Zm3.774 0H9.02c-.347.019-.547-.063-.602-.246l-.355-.656h1.093l.082.11c.019.109.1.154.246.136h2.079v.657Zm0 2.817v-.738h-.247v-1.832H5.52v1.832h-.192v.738h6.234Zm-5.141-.738h.793v-1.04h-.793v1.04Zm1.613 0v-1.04h.766v1.04h-.766Zm1.64 0h.794v-1.04h-.793v1.04Z" fill="#fff" stroke="#505050"/><path fill-rule="evenodd" clip-rule="evenodd" d="M11.563 31.516v-.793h-.63l.11-.328H9.84l-.11.328H7.215l-.137-.328H5.875l.11.328h-.63v.793h6.207ZM9.183 32.8c.128.018.228-.046.301-.192l.082-.164h1.996v-.683H9.758l.027-.082h-.93l-.136.273c-.055.128-.146.182-.274.164h-.41v.684h1.149Zm-2.761-1.012v2.023h-.93V31.79h.93Zm1.367 2.023V31.79h-.848v2.023h.848Zm3.774 0H9.02c-.347.019-.547-.063-.602-.246l-.355-.656h1.093l.082.11c.019.109.1.154.246.136h2.079v.657Zm0 2.817v-.738h-.247v-1.832H5.52v1.832h-.192v.738h6.234Zm-5.141-.738h.793v-1.04h-.793v1.04Zm1.613 0v-1.04h.766v1.04h-.766Zm1.64 0h.794v-1.04h-.793v1.04Z" fill="#fff"/><path fill="#CCC" d="M2 2h25v25H2z"/><path d="m6.5 21.5 4.5-16L21 9l-.5 2-8-3-1 4 4 1.5L15 15l-4-1-2 8-2.5-.5Z" fill="#3A6AF6"/><path fill-rule="evenodd" clip-rule="evenodd" d="M18.253 14c-.288.55-.15 1.109.049 1.517a2.98 2.98 0 0 0 .455.675l.008.009.013.018a5.858 5.858 0 0 1 .192.288c.07.115.144.244.2.366a2.018 2.018 0 0 0-.58-.01 2.867 2.867 0 0 0-.498-.395 5.68 5.68 0 0 0-.306-.187l-.02-.011-.005-.003-.002-.001-.048.088.048-.09-.012-.004-.003-.001-.01-.004a2.635 2.635 0 0 1-.192-.091 2.78 2.78 0 0 1-.457-.3c-.33-.267-.636-.66-.61-1.189l-.2-.01c-.03.62.332 1.069.684 1.355a2.993 2.993 0 0 0 .698.42l.011.004h.001l.019.011a5.326 5.326 0 0 1 .295.18c.124.081.258.177.366.273-.19.048-.37.123-.533.221-.185-.08-.44-.129-.645-.159a5.813 5.813 0 0 0-.274-.032l-.082-.008-.023-.001h-.008l-.007.1.007-.102-.014.001h-.003l-.011.001-.045.001a2.782 2.782 0 0 1-.707-.08c-.412-.104-.856-.331-1.057-.82l-.185.076c.236.573.753.827 1.193.938a2.982 2.982 0 0 0 .81.085h.034a5.5 5.5 0 0 1 .344.04c.155.022.327.054.47.1-.152.118-.288.26-.4.418-.204.003-.463.068-.664.128a5.645 5.645 0 0 0-.34.115l-.021.008-.006.002h-.002l.036.094-.037-.094-.011.007-.003.001-.01.005-.04.02a2.79 2.79 0 0 1-.675.225c-.417.081-.916.063-1.304-.295L14 18.05c.456.42 1.032.431 1.478.345a2.989 2.989 0 0 0 .77-.264l.01-.006h.001l.02-.008.075-.027c.064-.023.152-.053.253-.083.152-.046.324-.09.474-.11-.092.171-.16.358-.2.554a2.73 2.73 0 0 0-.539.393 5.664 5.664 0 0 0-.26.248l-.016.016-.004.004-.001.001.072.07-.073-.07-.008.011-.002.003-.007.009a2.327 2.327 0 0 1-.138.162 2.79 2.79 0 0 1-.406.363c-.344.248-.804.443-1.307.282l-.061.19c.591.189 1.118-.045 1.485-.31a2.978 2.978 0 0 0 .586-.566l.007-.01h.001l.015-.015a4.735 4.735 0 0 1 .622-.531 2.004 2.004 0 0 0 .047.601c-.12.158-.227.38-.305.562a5.797 5.797 0 0 0-.13.334l-.008.021-.002.006v.002l.094.032-.096-.032-.002.013v.003l-.003.011-.01.044a2.79 2.79 0 0 1-.261.662c-.208.371-.542.741-1.066.809l.025.198c.616-.08.994-.513 1.215-.91a2.985 2.985 0 0 0 .292-.76l.003-.011v-.001l.007-.02a4.656 4.656 0 0 1 .126-.322c.056-.131.124-.274.196-.394.074.197.177.378.306.54a3.041 3.041 0 0 0-.03.594 5.742 5.742 0 0 0 .022.359l.002.022v.008l.1-.01-.1.01.003.014.001.003.003.01a1.821 1.821 0 0 1 .035.21c.018.141.032.334.017.545-.03.424-.177.9-.624 1.183l.107.17c.524-.332.684-.886.716-1.338a2.992 2.992 0 0 0-.056-.813l-.003-.011v-.001l-.002-.021a5.59 5.59 0 0 1-.022-.345 3.59 3.59 0 0 1 .007-.394 2 2 0 0 0 .693.437c.065.161.162.332.248.47a5.754 5.754 0 0 0 .198.3l.014.018.003.005.001.001.081-.059-.081.06.009.01.002.002.008.008.03.034a2.786 2.786 0 0 1 .392.593c.186.383.297.869.051 1.337l.177.093c.289-.55.15-1.109-.048-1.517a2.994 2.994 0 0 0-.455-.675l-.008-.009-.013-.018a4.757 4.757 0 0 1-.355-.577 2.01 2.01 0 0 0 .653.039c.12.106.264.208.388.289a5.747 5.747 0 0 0 .306.187l.02.011.005.003h.002v.001l.048-.088-.048.089.012.005h.003l.01.005.042.018a2.784 2.784 0 0 1 .606.372c.33.268.637.661.612 1.19l.2.01c.029-.62-.333-1.069-.685-1.355a2.992 2.992 0 0 0-.698-.42l-.01-.004h-.002l-.018-.011a5.957 5.957 0 0 1-.296-.18 3.998 3.998 0 0 1-.236-.167 1.99 1.99 0 0 0 .605-.258c.146.041.306.07.443.09a5.679 5.679 0 0 0 .357.04l.022.001h.008l.007-.1-.007.102.014-.001h.003l.011-.001a2.211 2.211 0 0 1 .213.001c.142.007.334.027.54.078.411.104.855.331 1.056.82l.185-.076c-.236-.574-.753-.827-1.193-.938a2.982 2.982 0 0 0-.81-.085h-.012l-.022-.001a5.507 5.507 0 0 1-.604-.084 2.01 2.01 0 0 0 .425-.497c.147-.025.3-.065.429-.104a5.685 5.685 0 0 0 .34-.115l.022-.008.005-.002h.002v-.001l-.036-.093.037.094.011-.007.003-.001.01-.005a1.84 1.84 0 0 1 .194-.09c.13-.053.314-.116.521-.156.417-.08.916-.062 1.304.296l.136-.147c-.456-.42-1.032-.431-1.478-.346a2.986 2.986 0 0 0-.77.265l-.01.006h-.001l-.02.008a4.247 4.247 0 0 1-.328.11c-.08.024-.166.048-.252.068.086-.193.141-.402.162-.622a3.62 3.62 0 0 0 .355-.283 5.758 5.758 0 0 0 .26-.248l.016-.016.004-.004.001-.002-.072-.069.073.07.008-.011.002-.003.007-.009a1.913 1.913 0 0 1 .138-.162 2.78 2.78 0 0 1 .406-.363c.344-.249.803-.443 1.308-.282l.06-.19c-.591-.19-1.117.044-1.485.31a2.978 2.978 0 0 0-.586.566l-.007.01-.016.015a4.88 4.88 0 0 1-.465.418 1.994 1.994 0 0 0-.118-.615c.084-.138.16-.298.219-.435a5.847 5.847 0 0 0 .13-.334l.008-.022.002-.005v-.002h.001l-.095-.032.096.032.002-.013.001-.003.002-.011.01-.044a2.79 2.79 0 0 1 .261-.662c.208-.371.542-.741 1.066-.809l-.025-.198c-.616.079-.994.513-1.215.91a2.988 2.988 0 0 0-.292.76l-.002.011v.001l-.008.02a5.043 5.043 0 0 1-.261.607 2.008 2.008 0 0 0-.357-.493c.024-.172.026-.37.02-.533a5.634 5.634 0 0 0-.022-.358l-.002-.022v-.008l-.1.01.1-.01-.003-.014v-.003l-.003-.01a1.821 1.821 0 0 1-.036-.21 2.787 2.787 0 0 1-.017-.545c.03-.424.177-.9.624-1.183l-.107-.17c-.524.332-.683.886-.716 1.338a2.984 2.984 0 0 0 .056.813l.003.011v.001l.002.021a4.9 4.9 0 0 1 .017.707 1.997 1.997 0 0 0-.673-.349 3.052 3.052 0 0 0-.27-.526 5.754 5.754 0 0 0-.198-.3l-.013-.018-.004-.005-.001-.001-.043.03.043-.031-.009-.01-.002-.002-.008-.008a1.82 1.82 0 0 1-.136-.164 2.786 2.786 0 0 1-.286-.463c-.186-.383-.297-.869-.051-1.337L18.253 14Zm.59 6.447a1.6 1.6 0 1 0 0-3.2 1.6 1.6 0 0 0 0 3.2Zm1-1.6a1 1 0 1 1-2.001 0 1 1 0 0 1 2 0Z" fill="#3A6AF6"/><path fill="#3A6AF6" d="M29 2h17v25H29z"/><path d="M38.359 8.219v-.5h-.5v.5h.5Zm0 1.875v.5h.5v-.5h-.5Zm3-1.875v.5h.5v-.5h-.5Zm0-.906h.5v-.5h-.5v.5Zm-3 0h-.5v.5h.5v-.5Zm0-3.438v-.5h-.5v.5h.5Zm2.843 0v.5h.5v-.5h-.5Zm0-.875h.5v-.5h-.5V3ZM34.39 3v-.5h-.5V3h.5Zm0 .875h-.5v.5h.5v-.5Zm2.844 0h.5v-.5h-.5v.5Zm0 3.438v.5h.5v-.5h-.5Zm-2.938 0v-.5h-.5v.5h.5Zm0 .906h-.5v.5h.5v-.5Zm2.938 0h.5v-.5h-.5v.5Zm0 1.875h-.5v.5h.5v-.5Zm1.406 5.937-.483-.127-.005.019-.004.019.492.09Zm-.563.313.032-.5h-.032v.5Zm.72-.907v-.5h-.386l-.098.373.483.127Zm.906 0v.5h.5v-.5h-.5Zm0-.843h.5v-.5h-.5v.5Zm-.813 0-.49-.1-.122.6h.612v-.5Zm.438-2.156v-.5h-.41l-.08.4.49.1Zm.687 0h.5v-.5h-.5v.5Zm0 3.187.5.022v-.022h-.5Zm.406.688v-.5h-.035l.035.5Zm.875 0v.5h.5v-.5h-.5Zm0-.907h.5v-.5h-.5v.5Zm-.218 0v-.5h-.082l-.077.026.159.474Zm-.094-3.969h.5v-.5h-.5v.5Zm-1.5 0-.49-.098-.12.598h.61v-.5Zm.093-.468.49.098.12-.598h-.61v.5Zm-1.062 0v-.5h-.41l-.08.402.49.098Zm-.094.469v.5h.41l.08-.402-.49-.098Zm-1.5 0v-.5h-.5v.5h.5Zm0 1h-.5v.5h.5v-.5Zm1.375 0 .493.086.103-.586h-.596v.5ZM38.11 13.5l-.48.144.972-.057-.492-.087Zm-.188-.625.48-.144-.108-.356h-.372v.5Zm-.937 0v-.5h-.68l.202.649.478-.149Zm.75 2.406.485.121.034-.136-.042-.133-.477.148Zm-.032.125.354.354.098-.098.034-.135-.486-.12Zm-.03.031-.354-.353-.084.083-.037.112.474.159Zm-.75.094v-.5h-.5v.5h.5Zm0 .813h-.5v.5h.5v-.5Zm-1.063 0 .05-.498-.025-.002h-.025v.5Zm.593-.625h-.5v.011l.001.011.5-.022Zm-1.937.625h-.5v.5h.5v-.5Zm0-.813v-.5h-.5v.5h.5Zm.719 0 .098-.49-.049-.01h-.05v.5Zm.156-.75h.5v-1.805l-.929 1.548.429.257Zm-.188.313-.428-.258-.016.027-.012.028.456.203Zm-.5.219.083-.494-.041-.007h-.041v.5Zm-.562 0h-.5v.5h.5v-.5Zm0-.75v-.5h-.5v.5h.5Zm.281 0 .098-.49-.048-.01h-.05v.5Zm.219-.126-.441-.235-.013.024-.01.026.464.185Zm.75-1.406.441.236.059-.11v-.126h-.5Zm0-.562h.5v-.5h-.5v.5Zm-1.25 0h-.5v.5h.5v-.5Zm0-.969V11h-.5v.5h.5Zm1.25 0v.5h.5v-.5h-.5Zm0-.469v-.5h-.5v.5h.5Zm1.063 0h.5v-.5h-.5v.5Zm0 .469h-.5v.5h.5v-.5Zm.28 0h.5V11h-.5v.5Zm0 .906v.5h.5v-.5h-.5Zm-.28 0v-.5h-.5v.5h.5Zm0 .406h-.5v.5h.5v-.5Zm.28 0h.5v-.5h-.5v.5Zm0 .907v.5h.5v-.5h-.5Zm-.28 0v-.5h-.5v.5h.5Zm3.312 3.594h.5v-.5h-.5v.5Zm0 .78v.5h.5v-.5h-.5Zm-.313-.78v-.5h-.061l-.06.014.121.485Zm-.156-.125.49-.099-.003-.02-.006-.019-.48.137Zm-.187-.657.48-.137-.103-.363h-.377v.5Zm-.969 0v-.5h-.623l.135.609.488-.109Zm.25 1.125.49-.098-.002-.01-.488.108Zm.469.438v-.5h-.021l-.02.002.04.498Zm2.437 0v.5h.5v-.5h-.5Zm0-.782h.5v-.5h-.5v.5Zm-.781.782v-.5h-.033l.033.5Zm-.5-.469.499-.031-.003-.04-.009-.04-.487.111Zm-.25-1.094v-.5h-.627l.14.612.487-.112Zm1 0 .491-.093-.077-.407h-.414v.5Zm.125.657-.491.093v.005l.491-.099Zm.125.125v-.5h-.081l-.077.025.158.474Zm-5.406.343.483.13.001-.005-.484-.125Zm.281-1.093.484.124.16-.625h-.644v.5Zm-1.063 0v-.5h-.417l-.074.41.492.09Zm-.124.687.474.158.011-.034.006-.035-.492-.089Zm-.563.094v-.5h-.5v.5h.5Zm0 .781h-.5v.5h.5v-.5Zm4.031 0v.5h.5v-.5h-.5Zm0-.75h.5v-.5h-.5v.5Zm-1.718.281.495-.066-.002-.016-.003-.016-.49.098Zm-.22-1.093v-.5h-.61l.12.598.49-.099Zm1.032 0 .491-.094-.077-.407h-.414v.5Zm.125.656.493-.082-.002-.012-.491.094Zm.25.156v-.5h-.035l-.036.005.071.495Zm-2.094 8.469v-.5h-.36l-.114.342.474.158Zm-.406.25.05-.498-.025-.002h-.025v.5Zm2.125-.657-.434-.248-.01.02-.01.019.454.21Zm.5-.875.436-.245-.433-.768-.437.765.434.248Zm.563 1 .474-.158-.015-.045-.024-.042-.435.245Zm1.687.282.447-.224-.138-.276h-.309v.5Zm1.344.25v.5h.5v-.5h-.5Zm0-.782h.5v-.39l-.379-.095-.121.485Zm-.219-.25.493.083.007-.041v-.041h-.5Zm0-6.093h.5v-.5h-.5v.5Zm-6.719 0v-.5h-.5v.5h.5Zm0 6.031h-.5v.031l.004.031.496-.062Zm-.25.219.056-.497-.556-.062v.559h.5Zm0 .875h-.5v.5h.5v-.5Zm1.907-1.125.07-.495-.035-.005h-.035v.5Zm-.47 0h-.5v.5h.5v-.5Zm.55.005-.018-.5.017.5Zm.17-.13-.436-.246-.04.07-.015.078.49.098Zm.812-1.438.435.246.133-.235-.124-.24-.444.23Zm-1.5-2.906V20h-.82l.376.73.444-.23Zm1.25 0 .444-.23-.14-.27h-.304v.5Zm.906 1.75-.444.23.444.857.444-.857-.444-.23Zm.907-1.75V20h-.305l-.14.27.444.23Zm1.156 0 .445.227.372-.727h-.817v.5Zm-1.469 2.875-.445-.227-.12.235.126.231.439-.239Zm.75 1.375.468-.176-.012-.033-.017-.03-.439.239Zm.281.219v-.5h-.041l-.04.007.081.493Zm.5 0v.5h.5v-.5h-.5Zm0-5.032h.5v-.5h-.5v.5Zm-4.312 0v-.5h-.5v.5h.5Zm2.25-11.718v1.875h1V8.219h-1Zm3.5-.5h-3v1h3v-1Zm-.5-.407v.907h1v-.906h-1Zm-2.5.5h3v-1h-3v1Zm-.5-3.937v3.438h1V3.874h-1Zm3.343-.5H38.36v1h2.843v-1Zm-.5-.375v.875h1V3h-1Zm-6.312.5h6.813v-1H34.39v1Zm.5.375V3h-1v.875h1Zm2.344-.5H34.39v1h2.844v-1Zm.5 3.938V3.874h-1v3.438h1Zm-3.438.5h2.938v-1h-2.938v1Zm.5.406v-.906h-1v.906h1Zm2.438-.5h-2.938v1h2.938v-1Zm.5 2.375V8.219h-1v1.875h1Zm.625-.5h-1.125v1h1.125v-1Zm-.21 6.348c0-.002.003-.02.02-.046a.173.173 0 0 1 .056-.052c.014-.008.017-.005-.004-.002a.528.528 0 0 1-.112.003l-.063.998c.213.013.453-.007.665-.125a.838.838 0 0 0 .42-.597l-.983-.18Zm.164-.632-.157.594.968.255.156-.594-.967-.255Zm1.39-.373h-.907v1h.907v-1Zm-.5-.343v.844h1v-.844h-1Zm-.313.5h.813v-1h-.813v1Zm-.053-2.756-.437 2.156.98.2.438-2.157-.98-.199Zm1.178-.4h-.688v1h.688v-1Zm.5 3.687v-3.188h-1v3.188h1Zm-.13.189c-.005 0 .024-.003.066.018.045.022.07.053.08.07.007.011-.001.003-.009-.044a1.072 1.072 0 0 1-.008-.211l-.998-.044c-.012.27.012.566.154.808a.808.808 0 0 0 .787.4l-.071-.997Zm.911-.002h-.875v1h.875v-1Zm-.5-.406v.906h1v-.906h-1Zm.282.5h.218v-1h-.218v1Zm-.594-.625c0 .07.004.25.123.41a.549.549 0 0 0 .321.207.576.576 0 0 0 .308-.017l-.317-.95a.45.45 0 0 1 .488.159c.05.068.066.129.071.153.006.027.006.042.006.038h-1Zm0-3.844v3.844h1v-3.844h-1Zm-1 .5h1.5v-1h-1.5v1Zm-.397-1.066-.094.468.981.197.094-.47-.98-.195Zm-.572.598h1.063v-1h-1.063v1Zm.397.067.093-.47-.98-.195-.094.468.98.197Zm-1.99.402h1.5v-1h-1.5v1Zm.5.5v-1h-1v1h1Zm.874-.5h-1.375v1h1.375v-1Zm.305 1.649.188-1.063-.985-.173-.188 1.062.985.174Zm-1.159-.568.188.625.958-.288-.188-.625-.958.288Zm-.458.356h.937v-1h-.937v1Zm1.227 1.758-.75-2.407-.955.298.75 2.406.955-.297Zm-.023.395.03-.126-.97-.242-.03.125.97.242Zm-.163.263.031-.031-.707-.707-.031.03.707.708Zm-.479.24a.626.626 0 0 0 .6-.435l-.95-.317a.363.363 0 0 1 .128-.171.375.375 0 0 1 .222-.077v1Zm-.625 0h.625v-1h-.625v1Zm.5.313v-.813h-1v.813h1Zm.657-.5H36.92v1h1.157v-1Zm-2.269.997c.289.03.626-.017.873-.278.236-.248.283-.58.27-.867l-.999.046a.513.513 0 0 1-.01.145c-.004.019-.005.007.014-.013a.127.127 0 0 1 .028-.022l.014-.006a.291.291 0 0 1-.09 0l-.1.995Zm-1.294.003h1.344v-1h-1.344v1Zm-.5-1.313v.813h1v-.813h-1Zm1.219-.5h-.719v1h.719v-1Zm-.344.344s0-.024.01-.061a.379.379 0 0 1 .097-.16c.14-.139.301-.12.335-.113l-.196.98a.62.62 0 0 0 .569-.16.677.677 0 0 0 .185-.486h-1Zm0-.594v.594h1v-.594h-1Zm.741.57.188-.313-.858-.514-.187.313.857.514Zm-1.01.455c.184.03.394.029.594-.059a.862.862 0 0 0 .444-.45l-.913-.406s.004-.01.018-.024a.162.162 0 0 1 .05-.036c.035-.015.036 0-.03-.012l-.164.987Zm-.481.007h.563v-1h-.563v1Zm-.5-1.25v.75h1v-.75h-1Zm.781-.5h-.281v1h.281v-1Zm-.245.189a.298.298 0 0 1 .13-.14.317.317 0 0 1 .213-.04l-.196.98a.685.685 0 0 0 .48-.071.707.707 0 0 0 .301-.358l-.928-.371Zm.773-1.456-.75 1.406.882.47.75-1.405-.882-.471Zm-.059-.327v.562h1v-.562h-1Zm-.75.5h1.25v-1h-1.25v1Zm-.5-1.469v.969h1V11.5h-1Zm1.75-.5h-1.25v1h1.25v-1Zm-.5.031v.469h1v-.469h-1Zm1.563-.5H35.39v1h1.063v-1Zm.5.969v-.469h-1v.469h1Zm-.22-.5h-.28v1h.28v-1Zm.5 1.406V11.5h-1v.906h1Zm-.78.5h.28v-1h-.28v1Zm.5-.094v-.406h-1v.406h1Zm-.22-.5h-.28v1h.28v-1Zm.5 1.407v-.906h-1v.906h1Zm-.78.5h.28v-1h-.28v1Zm.5 1.5v-2h-1v2h1Zm2.312 1.594v.78h1v-.78h-1Zm.188.5h.312v-1h-.313v1Zm-.647-.527c.02.103.074.274.233.401a.61.61 0 0 0 .535.11l-.243-.97a.391.391 0 0 1 .434.203c.016.032.02.054.022.06l-.981.196Zm-.178-.617.188.656.961-.275-.188-.656-.961.275Zm-.488.362h.969v-1h-.969v1Zm.738.517-.25-1.125-.976.217.25 1.125.976-.217Zm-.06.048c-.01 0-.002-.002.018.004a.158.158 0 0 1 .06.034c.014.014.015.021.01.01a.38.38 0 0 1-.026-.086l-.98.196c.042.211.13.44.313.611.2.187.448.247.687.227l-.083-.996Zm.947-.002h-.906v1h.906v-1Zm2.031.5v-.782h-1v.782h1Zm-1.281.5h.781v-1h-.781v1Zm-.999-.938c.015.236.086.503.298.701.217.204.493.252.734.236l-.066-.998c-.035.002-.045-.002-.038 0a.16.16 0 0 1 .075.058l.006.01c0-.001-.003-.007-.005-.018a.391.391 0 0 1-.006-.051l-.998.062Zm-.238-1.013.25 1.093.974-.222-.25-1.094-.974.223Zm1.487-.612h-1v1h1v-1Zm.616 1.063-.125-.656-.982.187.125.656.982-.187Zm-.524-.256a.433.433 0 0 1 .433.105c.086.086.095.17.09.146l-.98.197a.705.705 0 0 0 .183.364.568.568 0 0 0 .59.137l-.316-.949Zm.44-.026h-.282v1h.281v-1Zm-6.171.715a.262.262 0 0 1-.028.07l-.006.01a.014.014 0 0 1-.002 0l-.004.003a.324.324 0 0 1-.102.015v1c.244 0 .494-.058.706-.217.214-.16.339-.385.402-.623l-.966-.258Zm.28-1.089-.282 1.094.969.249.281-1.094-.968-.249Zm-.578.625h1.062v-1h-1.063v1Zm.366.276.125-.687-.983-.179-.125.688.983.178Zm-.648.505c.1 0 .232-.018.36-.095a.625.625 0 0 0 .27-.34l-.948-.317a.375.375 0 0 1 .163-.2.31.31 0 0 1 .155-.048v1Zm-.406 0h.406v-1h-.406v1Zm.5.281v-.781h-1v.781h1Zm.344-.5h-.844v1h.844v-1Zm3.687.5v-.75h-1v.75h1Zm-1.687.5h1.187v-1h-1.187v1Zm-1.027-.903c.031.236.123.48.329.66.206.182.46.243.698.243v-1a.206.206 0 0 1-.057-.006c-.001 0 .008.003.02.014.012.01.016.02.015.017a.223.223 0 0 1-.014-.06l-.991.132Zm-.214-1.061.22 1.093.98-.196-.219-1.094-.98.197Zm1.522-.599h-1.031v1h1.031v-1Zm.616 1.063-.125-.656-.982.187.125.656.982-.187Zm-.312-.245c-.012.002.066-.014.164.048.113.07.144.173.15.209l-.986.164a.68.68 0 0 0 .306.475.748.748 0 0 0 .508.094l-.142-.99Zm.602-.005h-.531v1h.531v-1Zm-3.1 8.81c-.001.007 0 0 .011-.015a.193.193 0 0 1 .054-.049c.051-.031.083-.022.054-.025l-.1.995a.902.902 0 0 0 .57-.118.859.859 0 0 0 .36-.471l-.948-.316Zm1.6-.341h-1.125v1h1.125v-1Zm.14-.116c-.034.073-.062.096-.07.101-.006.004-.022.015-.07.015v1c.223 0 .442-.057.634-.19.19-.129.323-.31.414-.507l-.908-.419Zm.52-.914-.5.875.868.497.5-.875-.868-.497Zm1.432 1.003-.562-1-.872.49.563 1 .871-.49Zm.033.027a.269.269 0 0 1-.057-.005c-.007-.002-.002-.001.01.006a.14.14 0 0 1 .038.034c.01.014.014.024.015.025l-.949.317a.873.873 0 0 0 .381.481c.18.108.379.142.562.142v-1Zm1.219 0h-1.219v1h1.219v-1Zm.406.25h-.006a.094.094 0 0 1 .026.011l.023.019-.002-.004-.894.447c.076.152.19.292.349.39.16.098.335.137.504.137v-1Zm.938 0h-.938v1h.938v-1Zm-.5-.282v.782h1v-.782h-1Zm-.212-.332a.68.68 0 0 0 .156.568c.131.15.303.217.434.25l.243-.97c-.035-.01.017-.005.075.062a.332.332 0 0 1 .078.255l-.986-.165Zm-.007-6.011v6.093h1V18.97h-1Zm-6.219.5h6.719v-1h-6.719v1Zm.5 5.531v-6.031h-1V25h1Zm-.805.716c.14.015.386.016.588-.16.221-.194.233-.46.213-.618l-.992.124s-.004-.032.009-.08a.36.36 0 0 1 .111-.179c.118-.103.229-.076.181-.081l-.11.994Zm.555.378v-.875h-1v.875h1Zm.469-.5h-.969v1h.969v-1Zm.938-1.125h-.47v1h.47v-1Zm.062.005h.008l-.141.99a.955.955 0 0 0 .168.01l-.035-1Zm-.303.272a.35.35 0 0 1 .303-.272l.035 1a.65.65 0 0 0 .643-.532l-.98-.196Zm.868-1.586-.813 1.438.87.492.813-1.438-.87-.492Zm-1.51-2.43 1.5 2.906.89-.46-1.5-2.905-.89.458ZM36.89 20h-1.25v1h1.25v-1Zm1.35 2.02-.906-1.75-.888.46.906 1.75.888-.46Zm.018-1.75-.906 1.75.888.46.907-1.75-.889-.46Zm1.6-.27h-1.155v1h1.156v-1Zm-1.023 3.602 1.469-2.875-.89-.454-1.47 2.875.891.454Zm.744.909-.75-1.375-.878.478.75 1.375.878-.478Zm-.24-.035a.304.304 0 0 1 .225.06c.054.04.058.075.044.038l-.936.352c.049.13.13.284.278.398.165.129.363.17.553.138l-.164-.986Zm.582-.007h-.5v1h.5v-1Zm-.5-4.532v5.032h1v-5.032h-1Zm-3.812.5h4.312v-1H35.61v1Zm.5 4.532v-5.032h-1v5.032h1Z" fill="#505050"/><path fill-rule="evenodd" clip-rule="evenodd" d="M38.359 10.094V8.219h3v-.906h-3V3.874h2.843V3H34.39v.875h2.844v3.438h-2.938v.906h2.938v1.875h1.125Zm-.282 6.25c.334.02.521-.084.563-.313l.156-.593h.907v-.844h-.813l.438-2.156h.687v3.187c-.02.48.115.708.406.688h.875v-.907h-.218c-.063.021-.094-.02-.094-.125v-3.844h-1.5l.093-.468h-1.062l-.094.469h-1.5v1h1.375L38.11 13.5l-.188-.625h-.937l.75 2.406-.032.125-.03.031c-.022.063-.063.094-.126.094h-.625v.813h1.157Zm-1.624-.625c.02.458-.178.666-.594.625h-1.344v-.813h.719c.104.021.156-.031.156-.156v-.594l-.188.313c-.083.187-.25.26-.5.219h-.562v-.75h.281c.104.02.177-.021.219-.126l.75-1.406v-.562h-1.25V11.5h1.25v-.469h1.063v.469h.28v.906h-.28v.406h.28v.907h-.28v2Zm3.312 2.375v-.782h-.313c-.083.021-.135-.02-.156-.125l-.187-.656h-.969l.25 1.125c.063.313.219.459.469.438h.906Zm1.531-.782v.782h-.781c-.313.02-.48-.136-.5-.469l-.25-1.094h1l.125.657c.02.104.063.145.125.125h.281Zm-6.312.813c.333 0 .541-.156.625-.469l.281-1.093h-1.063l-.124.687c-.021.063-.073.094-.157.094h-.406v.781h.844Zm3.187-.75v.75h-1.187c-.313 0-.49-.156-.532-.469l-.218-1.093h1.031l.125.656c.02.125.104.177.25.156h.531Zm-3.031 8.719c.208.02.344-.063.406-.25h1.125c.271 0 .469-.136.594-.407l.5-.875.563 1c.062.188.218.282.468.282h1.219c.083.166.219.25.406.25h.938v-.782c-.167-.041-.24-.125-.219-.25V18.97h-6.719V25c.021.167-.062.24-.25.219v.875h.969Zm.469-1.125h.468c.03.004.056.006.08.005.097-.004.154-.047.17-.13l.813-1.438-1.5-2.906h1.25l.906 1.75.907-1.75h1.156l-1.469 2.875.75 1.375c.063.167.156.24.281.219h.5v-5.032H35.61v5.032Z" fill="#fff"/><path fill="#3A6AF6" d="M17 29h29v9H17z"/><path fill-rule="evenodd" clip-rule="evenodd" d="M21.996 33.48c-.015 1.437-.742 2.156-2.18 2.156H18.34V31.3h1.477c1.437.016 2.164.742 2.18 2.18Zm-2.244 1.43h-.498v-2.883h.492c.86-.016 1.282.468 1.266 1.453.015.982-.405 1.459-1.26 1.43Zm3.838.726v-1.899h1.664v1.899h.914V31.3h-.937v1.71H23.59V31.3h-.914v4.336h.914Zm7.664-3.305-.844 3.305h-1.054L28.3 31.3h.96l.657 3.258.844-3.258h1.055l.75 3.258h.023l.703-3.258h.867l-1.101 4.336h-1.031l-.774-3.305Zm4.29 3.305V31.3h-.938v4.336h.937Zm1.616-3.586v3.586h-.867V31.3h1.383l1.64 3.422.024-.024V31.3h.867v4.336h-1.336l-1.687-3.61-.024.024Zm5.274 3.586c1.437 0 2.164-.719 2.18-2.156-.016-1.438-.743-2.164-2.18-2.18h-1.477v4.336h1.477Zm-.065-.726h-.498v-2.883h.492c.86-.016 1.282.468 1.266 1.453.016.982-.404 1.459-1.26 1.43Z" fill="#505050"/><path d="m21.996 33.48.5.005v-.01l-.5.005Zm-3.656 2.156h-.5v.5h.5v-.5Zm0-4.336v-.5h-.5v.5h.5Zm1.477 0 .005-.5h-.005v.5Zm-.563 3.61h-.5v.5h.5v-.5Zm.498 0 .017-.5h-.017v.5Zm-.498-2.883v-.5h-.5v.5h.5Zm.492 0v.5h.01l-.01-.5Zm1.266 1.453-.5-.008v.016l.5-.008Zm2.578.258v-.5h-.5v.5h.5Zm0 1.898v.5h.5v-.5h-.5Zm1.664-1.899h.5v-.5h-.5v.5Zm0 1.899h-.5v.5h.5v-.5Zm.914 0v.5h.5v-.5h-.5Zm0-4.336h.5v-.5h-.5v.5Zm-.937 0v-.5h-.5v.5h.5Zm0 1.71v.5h.5v-.5h-.5Zm-1.641 0h-.5v.5h.5v-.5Zm0-1.71h.5v-.5h-.5v.5Zm-.914 0v-.5h-.5v.5h.5Zm0 4.336h-.5v.5h.5v-.5Zm7.734 0v.5h.389l.096-.376-.485-.124Zm.844-3.305.487-.114-.971-.01.484.124Zm-1.898 3.305-.486.118.093.382h.393v-.5ZM28.3 31.3v-.5h-.636l.15.618.486-.118Zm.96 0 .491-.099-.08-.401h-.41v.5Zm.657 3.258-.49.099.974.026-.484-.125Zm.844-3.258v-.5h-.387l-.097.375.484.125Zm1.055 0 .487-.112-.09-.388h-.397v.5Zm.75 3.258-.488.112.09.388h.398v-.5Zm.023 0v.5h.404l.085-.395-.489-.105Zm.703-3.258v-.5h-.404l-.085.395.49.105Zm.867 0 .485.123.158-.623h-.643v.5Zm-1.101 4.336v.5h.389l.095-.377-.484-.123Zm-1.031 0-.487.114.09.386h.397v-.5Zm3.515-4.336h.5v-.5h-.5v.5Zm0 4.336v.5h.5v-.5h-.5Zm-.937-4.336v-.5h-.5v.5h.5Zm0 4.336h-.5v.5h.5v-.5Zm2.554 0v.5h.5v-.5h-.5Zm0-3.586-.353-.354-.147.147v.207h.5Zm-.867 3.586h-.5v.5h.5v-.5Zm0-4.336v-.5h-.5v.5h.5Zm1.383 0 .45-.216-.135-.284h-.315v.5Zm1.64 3.422-.45.216.305.637.5-.5-.354-.353Zm.024-.024.354.354.146-.146v-.208h-.5Zm0-3.398v-.5h-.5v.5h.5Zm.867 0h.5v-.5h-.5v.5Zm0 4.336v.5h.5v-.5h-.5Zm-1.336 0-.453.212.135.288h.318v-.5Zm-1.687-3.61.453-.211-.302-.646-.505.504.354.354Zm7.43 1.454.5.005v-.01l-.5.005Zm-2.18-2.18.005-.5h-.005v.5Zm-1.477 0v-.5h-.5v.5h.5Zm0 4.336h-.5v.5h.5v-.5Zm1.412-.726.017-.5h-.017v.5Zm-.498 0h-.5v.5h.5v-.5Zm0-2.883v-.5h-.5v.5h.5Zm.492 0v.5h.01l-.01-.5Zm1.266 1.453-.5-.008v.016l.5-.008Zm-23.812 2.656c.796 0 1.485-.2 1.974-.684.49-.484.697-1.17.705-1.967l-1-.01c-.007.64-.17 1.032-.408 1.266-.237.235-.63.395-1.271.395v1Zm-1.477 0h1.477v-1H18.34v1Zm-.5-4.836v4.336h1V31.3h-1Zm1.977-.5H18.34v1h1.477v-1Zm2.68 2.674c-.01-.796-.216-1.484-.704-1.97-.487-.488-1.174-.695-1.971-.704l-.01 1c.64.007 1.035.17 1.274.41.24.24.403.634.41 1.275l1-.01Zm-3.243 1.935h.497v-1h-.497v1Zm-.5-3.382v2.882h1v-2.882h-1Zm.992-.5h-.492v1h.492v-1Zm1.766 1.96c.009-.552-.102-1.063-.428-1.437-.338-.388-.822-.533-1.347-.523l.018 1c.335-.007.491.083.575.18.096.11.189.333.182.765l1 .016Zm-1.777 1.922c.522.018 1.008-.118 1.349-.505.327-.37.436-.882.428-1.432l-1 .016c.007.432-.086.65-.179.755-.08.09-.23.178-.564.167l-.034 1Zm3.355-1.672v1.899h1v-1.899h-1Zm2.164-.5H23.59v1h1.664v-1Zm.5 2.399v-1.899h-1v1.899h1Zm.414-.5h-.914v1h.914v-1Zm-.5-3.836v4.336h1V31.3h-1Zm-.437.5h.937v-1h-.937v1Zm.5 1.21V31.3h-1v1.71h1Zm-2.141.5h1.64v-1h-1.64v1Zm-.5-2.21v1.71h1V31.3h-1Zm-.414.5h.914v-1h-.914v1Zm.5 3.836V31.3h-1v4.336h1Zm.414-.5h-.914v1h.914v-1Zm7.305.624.843-3.305-.968-.247-.844 3.304.969.248Zm-1.54.376h1.055v-1h-1.054v1Zm-1.54-4.718 1.055 4.336.971-.236-1.054-4.336-.972.236Zm1.447-.618H28.3v1h.96v-1Zm1.146 3.66-.656-3.259-.98.198.656 3.258.98-.198Zm-.13-3.285-.844 3.257.968.251.844-3.258-.968-.25Zm1.539-.375h-1.055v1h1.055v-1Zm1.237 3.646-.75-3.258-.975.224.75 3.258.975-.224Zm-.464-.388h-.023v1h.023v-1Zm.214-2.863-.703 3.257.978.211.703-3.257-.978-.211Zm1.356-.395h-.867v1h.867v-1Zm-.617 4.959 1.102-4.336-.97-.246-1.1 4.336.968.246Zm-1.515.377h1.03v-1h-1.03v1Zm-1.26-3.69.773 3.304.973-.228-.773-3.305-.974.228Zm4.275-1.146v4.336h1V31.3h-1Zm-.437.5h.937v-1h-.937v1Zm.5 3.836V31.3h-1v4.336h1Zm.437-.5h-.937v1h.937v-1Zm2.117.5V32.05h-1v3.586h1Zm-1.367.5h.867v-1h-.867v1Zm-.5-4.836v4.336h1V31.3h-1Zm1.883-.5h-1.383v1h1.383v-1Zm2.091 3.706-1.64-3.422-.902.432 1.64 3.422.902-.432Zm-.78-.161-.024.023.707.707.024-.023-.708-.707ZM38.84 31.3v3.398h1V31.3h-1Zm1.367-.5h-.867v1h.867v-1Zm.5 4.836V31.3h-1v4.336h1Zm-1.836.5h1.336v-1h-1.336v1Zm-2.14-3.898 1.687 3.61.906-.424-1.687-3.61-.906.424Zm.783.166.023-.024-.707-.707-.023.023.707.707Zm6.6 1.07c-.008.642-.172 1.033-.409 1.267-.237.235-.63.395-1.271.395v1c.796 0 1.485-.2 1.974-.684.49-.484.697-1.17.705-1.967l-1-.01ZM42.428 31.8c.641.007 1.036.17 1.275.41.24.24.403.634.41 1.275l1-.01c-.008-.797-.215-1.485-.703-1.972-.487-.487-1.174-.694-1.97-.703l-.012 1Zm-1.47 0h1.476v-1h-1.477v1Zm.5 3.836V31.3h-1v4.336h1Zm.976-.5h-1.477v1h1.477v-1Zm-.065-.726h-.498v1h.498v-1Zm.002.5v-2.883h-1v2.882h1Zm-.5-2.383h.492v-1h-.492v1Zm.502 0c.335-.007.49.083.574.18.096.11.189.333.182.765l1 .016c.009-.553-.102-1.064-.428-1.438-.338-.388-.822-.533-1.347-.523l.019 1Zm.756.96c.007.433-.086.651-.178.756-.08.09-.232.178-.565.167l-.034 1c.522.017 1.008-.12 1.349-.505.327-.372.437-.883.428-1.433l-1 .016Z" fill="#505050"/><path fill-rule="evenodd" clip-rule="evenodd" d="M21.996 33.48c-.015 1.437-.742 2.156-2.18 2.156H18.34V31.3h1.477c1.437.016 2.164.742 2.18 2.18Zm-2.244 1.43h-.498v-2.883h.492c.86-.016 1.282.468 1.266 1.453.015.982-.405 1.459-1.26 1.43Zm3.838.726v-1.899h1.664v1.899h.914V31.3h-.937v1.71H23.59V31.3h-.914v4.336h.914Zm7.664-3.305-.844 3.305h-1.054L28.3 31.3h.96l.657 3.258.844-3.258h1.055l.75 3.258h.023l.703-3.258h.867l-1.101 4.336h-1.031l-.774-3.305Zm4.29 3.305V31.3h-.938v4.336h.937Zm1.616-3.586v3.586h-.867V31.3h1.383l1.64 3.422.024-.024V31.3h.867v4.336h-1.336l-1.687-3.61-.024.024Zm5.274 3.586c1.437 0 2.164-.719 2.18-2.156-.016-1.438-.743-2.164-2.18-2.18h-1.477v4.336h1.477Zm-.065-.726h-.498v-2.883h.492c.86-.016 1.282.468 1.266 1.453.016.982-.404 1.459-1.26 1.43Z" fill="#fff"/><defs><clipPath id="a"><path fill="#fff" d="M0 0h48v40H0z"/></clipPath></defs></svg>