<svg width="48" height="40" fill="none" xmlns="http://www.w3.org/2000/svg"><g clip-path="url(#a)"><path fill-rule="evenodd" clip-rule="evenodd" d="M0 38a2 2 0 0 0 2 2h44a2 2 0 0 0 2-2V2A2 2 0 0 0 46.15.005L46 0H2l-.15.005A2 2 0 0 0 0 2v36ZM27 2H2v25h25V2ZM2 29v9h13v-9H2Zm15 9h29v-9H17v9Zm29-11V2H29v25h17Z" fill="#505050"/></g><path fill="#F29D38" d="M2 29h13v9H2z"/><path d="M7.352 36.574v-3.718h.164v-.794h-.164v-.246h.218v-.765h-.218v-.656h-.903v.656H5.33v.793h1.093v.218H5.52l-.11 3.5c0 .092-.036.128-.11.11v.656h.384c.346 0 .52-.182.52-.547l.109-2.925h.109v3.718h.93Zm1.175-3.527c.638.073.957-.237.957-.93l.11-1.668h-1.86v.684h.93l-.027.328h-.219c-.091.018-.128-.018-.11-.11h-.574v.247c0 .328.137.501.41.52h.438l-.027.081c-.019.128-.073.183-.164.164h-.63v.684h.766Zm2.98-.684v.657h-.984a1.141 1.141 0 0 1-.109.003c-.384-.005-.585-.225-.601-.66l-.137-1.914h1.86v.766h-.848l.054.273h.137c.091.018.137-.018.137-.11h.546l-.027.329c-.018.31-.155.438-.41.383h-.355l.027.11c-.018.127.045.181.191.163h.52Zm.028 1.504v-.656H7.652v.656h3.883Zm0 2.078v.547H7.543v-.547h.574l-.082-.3H7.68v-1.56h3.855v1.013c.018.4-.146.583-.492.547l-.055.3h.547Zm-1.039-.957a.133.133 0 0 0 .04.005c.046-.003.07-.041.07-.114v-.11H8.554v.22h1.941Zm-1.45.957h1.04v-.3h-1.04v.3Z" fill="#505050" stroke="#505050"/><path d="M7.352 36.574v-3.718h.164v-.794h-.164v-.246h.218v-.765h-.218v-.656h-.903v.656H5.33v.793h1.093v.218H5.52l-.11 3.5c0 .092-.036.128-.11.11v.656h.384c.346 0 .52-.182.52-.547l.109-2.925h.109v3.718h.93Zm1.175-3.527c.638.073.957-.237.957-.93l.11-1.668h-1.86v.684h.93l-.027.328h-.219c-.091.018-.128-.018-.11-.11h-.574v.247c0 .328.137.501.41.52h.438l-.027.081c-.019.128-.073.183-.164.164h-.63v.684h.766Zm2.98-.684v.657h-.984a1.141 1.141 0 0 1-.109.003c-.384-.005-.585-.225-.601-.66l-.137-1.914h1.86v.766h-.848l.054.273h.137c.091.018.137-.018.137-.11h.546l-.027.329c-.018.31-.155.438-.41.383h-.355l.027.11c-.018.127.045.181.191.163h.52Zm.028 1.504v-.656H7.652v.656h3.883Zm0 2.078v.547H7.543v-.547h.574l-.082-.3H7.68v-1.56h3.855v1.013c.018.4-.146.583-.492.547l-.055.3h.547Zm-1.039-.957a.133.133 0 0 0 .04.005c.046-.003.07-.041.07-.114v-.11H8.554v.22h1.941Zm-1.45.957h1.04v-.3h-1.04v.3Z" fill="#fff"/><g clip-path="url(#b)"><path fill="#CCC" d="M2 2h25v25H2z"/><path d="m24.753 24.753-13.082-1.06 12.021-12.021 1.06 13.081Z" fill="#F29D38" stroke="#505050" stroke-width=".5"/><path d="m24.753 24.753-13.082-1.06 12.021-12.021 1.06 13.081Z" fill="#F29D38"/><path d="m23.338 23.339-14.495-1.06L22.278 8.842l1.06 14.496Z" fill="#fff" stroke="#505050" stroke-width=".5"/><path d="m23.338 23.339-14.495-1.06L22.278 8.842l1.06 14.496Z" fill="#fff"/><path fill-rule="evenodd" clip-rule="evenodd" d="M18.742 6.722 8.136-3.885-3.885 8.136 6.72 18.743l-1.414 1.414 16.617 1.768-1.767-16.617-1.415 1.414Z" fill="#F29D38"/><path d="m8.136-3.885.176-.176-.176-.177-.177.177.177.176ZM18.742 6.722l-.177.177.177.177.177-.177-.177-.177ZM-3.885 8.136l-.177-.176-.177.176.177.177.177-.177ZM6.72 18.743l.177.177.177-.177-.177-.177-.177.177Zm-1.414 1.414-.177-.177-.37.37.52.056.027-.249Zm16.617 1.768-.026.248.308.033-.033-.308-.249.027ZM20.157 5.308l.248-.027-.055-.52-.37.37.177.177ZM7.959-3.708 18.566 6.9l.353-.354L8.312-4.06l-.353.353ZM-3.708 8.313l12.02-12.02-.353-.354-12.02 12.02.353.354ZM6.898 18.566-3.708 7.96l-.354.353L6.545 18.92l.353-.354Zm-1.414 1.768 1.414-1.414-.353-.354L5.13 19.98l.354.354Zm16.467 1.342L5.334 19.91l-.053.497 16.617 1.768.053-.498ZM19.908 5.334l1.768 16.617.497-.053-1.768-16.617-.497.053ZM18.919 6.9l1.414-1.414-.353-.354-1.415 1.414.354.354Z" fill="#505050"/><path fill-rule="evenodd" clip-rule="evenodd" d="M18.742 6.722 8.136-3.885-3.885 8.136 6.72 18.743l-1.414 1.414 16.617 1.768-1.767-16.617-1.415 1.414Z" fill="#F29D38"/><path fill-rule="evenodd" clip-rule="evenodd" d="M16.56 10.146s-.096-1.093-.346-1.548c-.117-.211-.363-.811-1.574-1.327-.45-.192-1.762-.261-1.762-.261s-1.087.052-1.878.613c-.791.561-1.21 1.749-1.21 1.749s-.376 1.353-.294 2.373c.061.763.264 1.708.696 2.421.095.156.424.762 1.395 1.15.856.342 1.951.267 1.951.267s1.342-.117 2.144-.81c.802-.694.877-2.221.877-2.221H14.36s-.065.744-.234.997c-.073.11-.35.358-.74.453-.08.02-.442.164-.911-.122-.099-.06-.363-.285-.543-.823-.05-.148-.29-.673-.194-2.476.012-.222.13-1.043.58-1.627.075-.098.425-.33.88-.296.1.007.596.073.928.544.148.21.234.944.234.944h2.2Z" fill="#505050"/><path d="M12.995 15.407c2.12-.029 3.237-.917 3.352-2.664h-1.805c-.057.974-.573 1.475-1.547 1.504-.945-.029-1.446-.989-1.504-2.88.058-1.89.559-2.864 1.504-2.921.974.057 1.49.559 1.547 1.504h1.805c-.115-1.776-1.232-2.693-3.352-2.75-2.148.086-3.251 1.475-3.308 4.168.057 2.635 1.16 3.982 3.308 4.039Z" fill="#fff"/><path fill-rule="evenodd" clip-rule="evenodd" d="M9.4 9.2a2.2 2.2 0 1 1-4.4 0 2.2 2.2 0 0 1 4.4 0ZM8 9.22a.8.8 0 1 1-1.6 0 .8.8 0 0 1 1.6 0Z" fill="#505050"/><path fill-rule="evenodd" clip-rule="evenodd" d="M5.2 9.221a2 2 0 1 1 4 0 2 2 0 0 1-4 0Zm3 0a1 1 0 1 0-2 0 1 1 0 0 0 2 0Z" fill="#fff"/></g><path fill="#F29D38" d="M29 2h17v25H29z"/><path d="M30.91 6.887h1.203v-.492h.903v.492h.246v.793h-.246v.328h.246v.738h-.164c-.055 0-.082.027-.082.082v3.145c.018.4-.164.592-.547.574h-1.395v-.711h.82c.146.018.21-.055.192-.219v-.957l-.164.438c-.073.218-.264.328-.574.328h-.438v-.739h.11c.218.019.346-.063.382-.246l.711-2.132v-.63H30.91v-.792Zm2.38 3.746v-.738h2.679v-.247h.902v.192h.246v.793h-.246V12c-.018.328-.255.501-.71.52h-.93v-.684h.437c.237.036.337-.064.3-.3v-.903H33.29Zm.382 1.203c.182 0 .3-.091.355-.274l.164-.628h.985l-.356 1.148c-.054.346-.291.501-.71.465h-.712v-.711h.274Zm1.066-3.09V7.625h-1.285v-.738h1.285v-.492h.903v.492h1.422v.738H35.64v1.121h1.476v.738h-3.8v-.738h1.421ZM41.82 6.75v-.355h.93v.355h1.285v.738H42.75v.383h1.313v2.05h-.711V8.61h-2.79v-.738h1.258v-.383h-1.285V6.75h1.285Zm-3.883 2.598V8.28l.985-1.886h.984L38.786 8.5h.41l.355-.602h.984l-1.558 2.707h1.367v.82h-2.407v-.71l.82-1.367h-.82Zm2.653 2.27v-.74h1.75V8.856h.82v2.024h.82v.738h-.656l.274.301c.018.055.09.082.218.082h.192v.629h-.574a.47.47 0 0 1-.383-.164l-.328-.383-.41.41c-.128.128-.265.182-.41.164H40.59V12h.793a.846.846 0 0 0 .383-.082l.328-.3H40.59Zm.3-1.888c-.09-.036-.163-.127-.218-.273l-.3-.574h.847l.082.137c.036.09.118.136.246.136h.437v.63h-.738l.055.136c.036.073.09.11.164.11h.547v.573h-.985c-.145-.018-.246-.082-.3-.19l-.274-.685h.438Zm-.546 2.926h-2.407v-.738h2.407v.738ZM32.852 15.64h3.199c.164 0 .237-.036.218-.109v-.136h.794v.52c.018.345-.192.51-.63.491h-.273l.11 1.285h.765v.766h-.683l.191 2.27c-.018.145.064.21.246.191h.328v.71h-.71c-.475.02-.712-.163-.712-.546l-.246-2.625h-1.695v1.23c0 .055.018.082.055.082h1.613v.739H32.96c-.055 0-.091-.037-.11-.11v-4.757Zm-1.942 1.012h.192c.127.019.218-.054.273-.218l.465-1.067h1.012l-.52 1.313v4.922h-.875v-4.239h-.547v-.71Zm2.242 4.703-.355-.71h1.039l.082.164c.036.09.11.136.219.136h1.285v.684h-1.805a.515.515 0 0 1-.465-.274Zm2.188-3.636-.11-1.285h-1.476v1.285h1.586ZM39.004 19.113c-.456.091-.73-.118-.82-.629l-.328-1.039h.984l.191.575c.055.255.155.364.301.328h.164v.765h-.492Zm-1.121 1.696h.3c.11.018.183-.082.22-.301l.218-1.121h.957l-.3 1.586c-.019.4-.292.583-.821.547h-.574v-.711Zm.847-3.637c-.255.036-.428-.155-.52-.574l-.355-1.258h.93l.246.765c.091.22.164.31.219.274h.219v.793h-.739Zm1.86-1.012v.383h2.324v-.383H40.59Zm2.16 1.531c.128 0 .191-.072.191-.218v-.192H40.59v.41h2.16Zm-3.117.739v-3.09h4.265v2.105c.073.748-.182 1.076-.765.985h-3.5Zm-.192 2.351h.192v-2.023h4.265v2.023h.11v.766H39.44v-.766Zm1.368-1.285h-.356v1.285h.356v-1.285Zm.765 1.285h.328v-1.285h-.328v1.285Zm1.149 0h.3v-1.285h-.3v1.285Z" fill="#fff"/><path fill-rule="evenodd" clip-rule="evenodd" d="M30.41 6.887a.5.5 0 0 1 .5-.5h.703a.5.5 0 0 1 .5-.492h.903a.5.5 0 0 1 .5.492h.722a.5.5 0 0 1 .5-.492h.903a.5.5 0 0 1 .5.492h.922a.5.5 0 0 1 .5.5v.738a.5.5 0 0 1-.5.5h-.922v.121h.976c.122 0 .234.044.32.116v-.08a.5.5 0 0 1 .057-.232l.985-1.887a.5.5 0 0 1 .443-.268h.984a.5.5 0 0 1 .485.376.5.5 0 0 1 .144-.021h.807a.5.5 0 0 1 .478-.355h.93a.5.5 0 0 1 .479.355h.806a.5.5 0 0 1 .5.5v.738a.5.5 0 0 1-.025.159.498.498 0 0 1 .053.224v2.05a.5.5 0 0 1-.403.491.5.5 0 0 1 .32.467v.738a.498.498 0 0 1-.025.159.498.498 0 0 1 .053.224v.629a.5.5 0 0 1-.5.5h-.574a.973.973 0 0 1-.74-.312l-.028.029c-.201.201-.471.338-.79.31H40.59a.5.5 0 0 1-.123-.015.5.5 0 0 1-.123.015h-2.407a.5.5 0 0 1-.5-.5v-.738c0-.09.024-.173.065-.246a.498.498 0 0 1-.065-.246v-.41a.505.505 0 0 1-.066.048V12.028a.97.97 0 0 1-.396.752c-.232.169-.519.228-.795.24a.44.44 0 0 1-.02 0h-.93a.499.499 0 0 1-.352-.146.054.054 0 0 0-.003.002c-.24.158-.523.19-.786.17h-.69c-.131 0-.25-.05-.339-.13-.19.11-.406.139-.602.13h-1.384a.5.5 0 0 1-.5-.5v-.71c0-.013 0-.026.002-.039a.499.499 0 0 1-.166-.371v-.739a.5.5 0 0 1 .5-.5h.05l.653-1.96V8.18h-.703a.5.5 0 0 1-.5-.5v-.793Zm1.703.793v.629l-.71 2.132c-.03.15-.121.232-.273.246a.615.615 0 0 1-.11 0h-.11v.739h.438c.021 0 .042 0 .062-.002a.875.875 0 0 0 .176-.025.55.55 0 0 0 .15-.063.43.43 0 0 0 .186-.238l.164-.438v.957c.003.031.004.059.002.083-.01.105-.075.15-.194.136h-.82v.71h1.395c.195.01.338-.035.43-.135.087-.096.126-.242.117-.438V8.828c0-.055.027-.082.082-.082h.164v-.738h-.246V7.68h.246v-.793h-.246v-.492h-.903v.492H30.91v.793h1.203Zm1.34-.793v.738h1.285v1.121h-1.422v.738h3.801v-.738h-1.476V7.625h1.422v-.738H35.64v-.492h-.903v.492h-1.285Zm4.15 2.832c.01.039.014.08.014.12v.438l.26-.433a.498.498 0 0 1-.275-.125Zm1.155-.371-.82 1.367v.71h2.406v-.82h-1.367l1.27-2.207.288-.5h-.984l-.356.602h-.41l1.121-2.105h-.984l-.984 1.886v1.067h.82Zm1.18-1.95h.097v-.182l-.097.182Zm.597.09h1.285v.383h-1.258v.738h2.79v1.313h.71v-2.05H42.75v-.384h1.285V6.75H42.75v-.355h-.93v.355h-1.285v.738Zm2.625 1.367h-.82v2.024h-1.75v.738h1.504l-.328.301a.846.846 0 0 1-.383.082h-.793v.656h1.312c.146.018.283-.036.41-.164l.41-.41.329.383a.47.47 0 0 0 .383.164h.574V12h-.192c-.127 0-.2-.027-.218-.082l-.274-.3h.657v-.74h-.82V8.856Zm-2.816 3.063h-2.407v.738h2.407v-.738Zm.496-1.376c.05.033.113.054.187.063h.985v-.574h-.547c-.055 0-.1-.02-.135-.063a.245.245 0 0 1-.03-.046l-.054-.137h.738v-.629h-.437a.299.299 0 0 1-.177-.047.198.198 0 0 1-.07-.09l-.081-.136h-.848l.3.574a.691.691 0 0 0 .098.18.3.3 0 0 0 .122.093h-.438l.274.684a.321.321 0 0 0 .113.128Zm-.775-.437-.076-.189a.527.527 0 0 1-.015-.041l-.133.23h.224Zm-6.776-.21v.738h2.68v.902c.033.215-.047.318-.239.308a.645.645 0 0 1-.062-.007h-.438v.684h.93c.456-.019.693-.192.711-.52v-1.367h.246V9.84h-.246v-.192h-.902v.247h-2.68Zm1.531 2.187.356-1.148h-.985l-.164.629c-.054.182-.173.273-.355.273h-.274v.71h.711c.301.027.508-.045.621-.216a.618.618 0 0 0 .09-.248Zm-1.304-.746h.054l.053-.203h-.107v.203Zm.246-3.09h.476v-.121h-.476v.121Zm-2.68 1.944h-.002.002Zm2.215 4.95a.5.5 0 0 0-.446-.273H31.84a.5.5 0 0 0-.459.3l-.429.985h-.042a.5.5 0 0 0-.5.5v.711a.5.5 0 0 0 .5.5h.047v3.739a.5.5 0 0 0 .5.5h.875a.5.5 0 0 0 .48-.36 1 1 0 0 0 .805.387h1.805a.498.498 0 0 0 .323-.119c.211.101.448.126.67.119h.702a.5.5 0 0 0 .428-.241.498.498 0 0 0 .338.131h.558c.229.015.468-.002.684-.085.087.07.197.113.316.113h4.567a.5.5 0 0 0 .5-.5v-.766a.498.498 0 0 0-.11-.312v-1.711a.498.498 0 0 0-.143-.351c.154-.291.174-.646.143-.985V15.34a.5.5 0 0 0-.5-.5h-4.265a.5.5 0 0 0-.424.235.5.5 0 0 0-.424-.235h-.93a.5.5 0 0 0-.417.225.499.499 0 0 0-.376-.17h-.792a.5.5 0 0 0-.431.246h-2.542Zm-.445.5v4.758c.018.073.054.11.109.11h2.46v-.738H33.81c-.037 0-.055-.028-.055-.082v-1.231h1.695l.246 2.625c0 .216.076.368.227.457.116.068.278.098.484.09h.711v-.711h-.328a.474.474 0 0 1-.107 0c-.107-.014-.153-.078-.139-.191l-.191-2.27h.683v-.766h-.765l-.11-1.285h.274c.084.004.16 0 .227-.01.282-.041.416-.202.401-.482v-.52h-.792v.137a.071.071 0 0 1 0 .04c-.015.046-.088.07-.22.07h-3.198Zm4.701.468a.87.87 0 0 1-.326.583 1.047 1.047 0 0 1-.523.204l.025.296h.306c.13 0 .247.05.336.13a.502.502 0 0 1 .42-.371 2.152 2.152 0 0 1-.065-.23l-.173-.612Zm.658.49c.03.142.071.258.12.347.098.175.23.251.4.227h.738v-.793h-.219c-.016.01-.033.01-.051 0a.217.217 0 0 1-.066-.07 1.265 1.265 0 0 1-.102-.204l-.048-.149-.198-.616h-.93l.356 1.258Zm1.422 1.832h3.5c.288.045.496-.013.624-.172.131-.164.178-.434.141-.813V15.34h-4.265v3.09Zm0 .328v2.023h-.192v.766h4.567v-.766h-.11v-2.023h-4.265Zm-.356 2.215.301-1.586h-.957l-.219 1.12c-.03.186-.087.286-.17.302a.138.138 0 0 1-.048 0h-.301v.71h.574a1.17 1.17 0 0 0 .484-.05c.213-.08.325-.245.336-.496Zm-.899-2.023c.067.076.148.13.243.158a.788.788 0 0 0 .383.005h.492v-.765h-.164a.19.19 0 0 1-.1 0 .195.195 0 0 1-.1-.072.646.646 0 0 1-.1-.256l-.192-.575h-.985l.329 1.04c.036.202.1.357.194.465Zm-.68-.344c.056.29.175.579.413.782l-.18.92h-.048a.5.5 0 0 0-.428.241.498.498 0 0 0-.338-.131h-.098l-.123-1.461h.14a.5.5 0 0 0 .5-.5v-.366l.162.515Zm-2.276 2.34h-1.285c-.11 0-.183-.046-.219-.137l-.082-.165h-1.04l.356.712c.11.182.265.273.465.273h1.805v-.684Zm-3.09-4.266.52-1.313H31.84l-.465 1.067c-.044.13-.11.204-.201.218a.236.236 0 0 1-.072 0h-.192v.711h.547v4.239h.875V16.68Zm2.691 2.59-.03-.313h-.74v.313h.77Zm-.252-2.336h-.517v.285h.541l-.024-.285Zm.46-.5h-1.477v1.285h1.586l-.11-1.285Zm5.359.109v-.383h2.324v.383H40.59Zm2.351.738v.192c0 .146-.063.218-.191.218h-2.16v-.41h2.351Zm-2.488 2.215h.356v1.285h-.356v-1.285Zm1.45 1.285h-.329v-1.285h.328v1.285Zm1.12 0h-.3v-1.285h.3v1.285Z" fill="#505050"/><path fill="#F29D38" d="M17 29h29v9H17z"/><path d="M22.094 33.047h-.657c-.02-.354-.208-.537-.562-.547-.344.02-.526.375-.547 1.063.021.677.203 1.026.547 1.046.365-.01.552-.192.563-.547h.656c-.032.636-.438.959-1.219.97-.781-.022-1.182-.511-1.203-1.47.031-.979.432-1.484 1.203-1.515.77.01 1.177.344 1.219 1ZM23.75 35.031c-.906-.02-1.37-.51-1.39-1.468.03-.99.494-1.495 1.39-1.516.885.02 1.344.526 1.375 1.516-.031.958-.49 1.447-1.375 1.468Zm0-2.531c-.49 0-.734.354-.734 1.063 0 .697.244 1.046.734 1.046.48 0 .719-.349.719-1.047 0-.708-.24-1.062-.719-1.062ZM27.438 35h-1.86v-2.89h.61v2.406h1.25V35ZM28.39 32.594v1.922h.329c.573.02.854-.297.843-.953.01-.667-.27-.99-.843-.97h-.328ZM27.782 35v-2.89h.985c.958.01 1.442.494 1.453 1.453-.01.947-.495 1.427-1.453 1.437h-.985ZM33.906 32.938h-.593c-.01-.292-.167-.438-.47-.438-.301.02-.458.146-.468.375 0 .188.151.318.453.39.031.011.057.016.078.016.01 0 .037.005.078.016.677.135 1.01.4 1 .797-.01.604-.422.916-1.234.937-.75 0-1.12-.317-1.11-.953h.626c0 .333.161.51.484.531.375-.01.568-.135.578-.375 0-.198-.182-.333-.547-.406a.485.485 0 0 1-.11-.031c-.635-.146-.952-.412-.952-.797.031-.594.432-.911 1.203-.953.625.031.953.328.984.89ZM35.031 35h-.61v-2.89h.892c.791-.011 1.182.286 1.171.89-.02.563-.354.86-1 .89h-.453V35Zm0-2.406v.812h.188c.416.042.62-.093.61-.406 0-.281-.204-.417-.61-.406h-.188ZM36.828 35v-2.89h1.938v.484h-1.313v.672h1.219v.484h-1.219v.766h1.36V35h-1.985ZM41.172 35h-1.86v-2.89h.61v2.406h1.25V35ZM43.39 35h-1.859v-2.89h.61v2.406h1.25V35Z" fill="#fff"/><path fill-rule="evenodd" clip-rule="evenodd" d="M22.308 32.165a1.333 1.333 0 0 0-.233-.247c-.323-.265-.746-.365-1.193-.371a.49.49 0 0 0-.027 0c-.5.02-.942.202-1.25.591-.294.37-.416.864-.433 1.409v.026c.012.537.13 1.026.43 1.392.313.383.76.553 1.26.566h.02c.448-.006.87-.1 1.195-.358.09-.072.166-.151.231-.238.017.02.034.039.052.057.351.372.84.527 1.378.54h.024c.51-.013.974-.158 1.317-.497a.5.5 0 0 0 .5.465h1.858a.5.5 0 0 0 .172-.03.5.5 0 0 0 .172.03h.99c.556-.006 1.062-.15 1.428-.512.368-.363.514-.867.52-1.42v-.01c-.006-.558-.152-1.065-.518-1.431-.366-.366-.873-.512-1.43-.518h-.99a.5.5 0 0 0-.5.5v1.907h-.593v-1.907a.5.5 0 0 0-.5-.5h-.61a.5.5 0 0 0-.497.447c-.343-.347-.806-.497-1.32-.509h-.023c-.54.013-1.026.175-1.376.556l-.054.062Zm.24.541a1.557 1.557 0 0 0-.118.32 2.356 2.356 0 0 0-.068.615c.008.16.029.306.062.438.031.12.073.23.125.328.105.195.253.344.443.448.203.11.456.17.758.176.304-.007.558-.07.761-.187.295-.171.484-.458.567-.862.026-.128.042-.268.047-.42a2.65 2.65 0 0 0-.047-.433c-.094-.471-.323-.789-.688-.952a1.65 1.65 0 0 0-1.29 0 1.11 1.11 0 0 0-.551.53Zm.727 1.731c.116.113.271.17.465.172h.02a.625.625 0 0 0 .458-.175c.167-.17.25-.46.25-.871 0-.473-.106-.788-.319-.945a.648.648 0 0 0-.389-.118h-.02a.671.671 0 0 0-.4.12c-.216.157-.324.472-.324.943 0 .414.086.706.26.874Zm-1.416-.874v-.016h-.422a.5.5 0 0 1-.499-.47.351.351 0 0 0-.01-.07h-.001l-.002.003c-.04.078-.086.246-.097.552.011.3.057.464.096.538l.001.003h.008a.37.37 0 0 0 .005-.055.5.5 0 0 1 .5-.486h.421Zm-.422.5c-.005.185-.059.323-.162.415-.091.08-.22.124-.389.131h-.017a.43.43 0 0 1-.284-.13c-.157-.159-.243-.465-.257-.916.015-.5.116-.824.301-.971a.425.425 0 0 1 .24-.092h.024a.649.649 0 0 1 .31.084c.143.087.221.241.235.463h.656a1.287 1.287 0 0 0-.076-.374.931.931 0 0 0-.058-.126c-.117-.209-.306-.352-.57-.43a1.89 1.89 0 0 0-.515-.07l-.027.001c-.172.01-.324.043-.458.1-.455.196-.694.667-.718 1.414.015.693.229 1.141.641 1.344a1.326 1.326 0 0 0 .562.125h.012c.248-.004.458-.04.63-.108a.861.861 0 0 0 .5-.48c.044-.112.07-.238.077-.38h-.657Zm4.141.937h1.86v-.484h-1.25v-2.407h-.61V35Zm2.203 0h.985c.165-.002.316-.017.453-.047.658-.142.991-.606 1-1.39-.009-.795-.344-1.264-1.004-1.407a2.244 2.244 0 0 0-.45-.047h-.984V35Zm.61-.484h.328a1.487 1.487 0 0 0 .172-.005.888.888 0 0 0 .199-.042c.323-.11.48-.412.473-.907.007-.503-.151-.811-.477-.922a.876.876 0 0 0-.266-.046 1.37 1.37 0 0 0-.054-.001h-.375v1.923Zm.5-.51v-.902c.064.014.085.037.091.045.025.028.085.13.08.406v.015c.005.27-.054.366-.077.392-.006.007-.028.03-.094.044Zm-5.28-.956c-.039.055-.095.2-.095.513 0 .305.056.445.093.497.014.02.024.028.034.032a.25.25 0 0 0 .107.017c.059 0 .087-.01.096-.015a.077.077 0 0 0 .03-.03c.037-.052.093-.194.093-.502 0-.313-.056-.46-.094-.516-.015-.022-.025-.028-.032-.031A.215.215 0 0 0 23.75 33a.242.242 0 0 0-.104.017.088.088 0 0 0-.036.033Zm9.853.388a1.93 1.93 0 0 0-.151-.057 2.864 2.864 0 0 0-.407-.1.258.258 0 0 1-.078-.015c-.302-.073-.453-.203-.453-.391a.353.353 0 0 1 .088-.231c.077-.084.204-.132.38-.144a.898.898 0 0 1 .104.006.44.44 0 0 1 .219.085c.076.06.122.148.14.267a.752.752 0 0 1 .007.08h.593c-.01-.2-.06-.367-.146-.5a.775.775 0 0 0-.36-.293 1.412 1.412 0 0 0-.478-.098 3.101 3.101 0 0 0-.078.005l-.031.003c-.258.024-.47.082-.637.174-.286.157-.439.414-.457.771 0 .239.121.431.365.578.054.033.115.063.182.092a2.453 2.453 0 0 0 .416.131.574.574 0 0 0 .1.027c.364.073.546.208.546.406a.33.33 0 0 1-.08.213c-.091.102-.257.156-.498.162h-.01a.545.545 0 0 1-.313-.11.45.45 0 0 1-.152-.293.843.843 0 0 1-.01-.128h-.624v.052c.003.175.036.324.1.448.092.18.248.305.467.378a1.698 1.698 0 0 0 .542.075h.012c.317-.01.573-.064.767-.163a.784.784 0 0 0 .393-.425c.04-.103.06-.22.062-.35a.575.575 0 0 0-.062-.283c-.079-.153-.232-.277-.458-.373ZM34.422 35h.61v-1.11h.452c.082-.003.159-.011.23-.024.282-.049.487-.163.614-.344a.947.947 0 0 0 .156-.522c.004-.226-.048-.408-.156-.548-.15-.196-.411-.308-.78-.336a2.642 2.642 0 0 0-.236-.007h-.89V35Zm.61-1.594h.187a1.167 1.167 0 0 0 .258 0h.007a.687.687 0 0 0 .113-.027c.16-.057.238-.184.231-.379 0-.196-.099-.322-.297-.376a1.047 1.047 0 0 0-.312-.03h-.188v.812Zm-1.07-1.493c-.278-.246-.639-.347-1.015-.366a.5.5 0 0 0-.052 0c-.44.024-.85.13-1.163.377-.331.263-.49.635-.513 1.05V33c0 .238.07.45.196.632a.5.5 0 0 0-.274.438c-.007.418.114.819.443 1.102.314.27.733.36 1.166.36h.013c.45-.012.872-.104 1.196-.344a.5.5 0 0 0 .463.312h.61a.5.5 0 0 0 .5-.5v-.611a1.82 1.82 0 0 0 .796-.212V35a.5.5 0 0 0 .5.5h1.984a.497.497 0 0 0 .25-.067.497.497 0 0 0 .25.067h1.86a.499.499 0 0 0 .18-.033.498.498 0 0 0 .18.033h1.859a.5.5 0 0 0 .5-.5v-.484a.5.5 0 0 0-.5-.5h-.75v-1.907a.5.5 0 0 0-.5-.5h-.61a.5.5 0 0 0-.5.5v1.907h-.61v-1.907a.5.5 0 0 0-.5-.5h-.608c-.101 0-.195.03-.274.082a.498.498 0 0 0-.273-.082h-1.938a.5.5 0 0 0-.43.246c-.308-.19-.692-.25-1.089-.246M36.83 35h1.983v-.484h-1.359v-.766h1.219v-.484h-1.219v-.672h1.313v-.485h-1.938V35Zm3.093-2.89h-.61V35h1.86v-.484h-1.25v-2.407Zm1.61 2.89h1.859v-.484h-1.25v-2.407h-.61V35Z" fill="#505050"/><defs><clipPath id="a"><path fill="#fff" d="M0 0h48v40H0z"/></clipPath><clipPath id="b"><path fill="#fff" transform="translate(2 2)" d="M0 0h25v25H0z"/></clipPath></defs></svg>