<svg width="48" height="40" fill="none" xmlns="http://www.w3.org/2000/svg"><g clip-path="url(#a)"><path fill-rule="evenodd" clip-rule="evenodd" d="M0 38a2 2 0 0 0 2 2h44a2 2 0 0 0 2-2V2A2 2 0 0 0 46.15.005L46 0H2l-.15.005A2 2 0 0 0 0 2v36ZM27 2H2v25h25V2ZM2 29v9h13v-9H2Zm15 9h29v-9H17v9Zm29-11V2H29v25h17Z" fill="#505050"/></g><path fill="#F29D38" d="M2 29h13v9H2z"/><path d="M7.352 36.574v-3.718h.164v-.794h-.164v-.246h.218v-.765h-.218v-.656h-.903v.656H5.33v.793h1.093v.218H5.52l-.11 3.5c0 .092-.036.128-.11.11v.656h.384c.346 0 .52-.182.52-.547l.109-2.925h.109v3.718h.93Zm1.175-3.527c.638.073.957-.237.957-.93l.11-1.668h-1.86v.684h.93l-.027.328h-.219c-.091.018-.128-.018-.11-.11h-.574v.247c0 .328.137.501.41.52h.438l-.027.081c-.019.128-.073.183-.164.164h-.63v.684h.766Zm2.98-.684v.657h-.984a1.141 1.141 0 0 1-.109.003c-.384-.005-.585-.225-.601-.66l-.137-1.914h1.86v.766h-.848l.054.273h.137c.091.018.137-.018.137-.11h.546l-.027.329c-.018.31-.155.438-.41.383h-.355l.027.11c-.018.127.045.181.191.163h.52Zm.028 1.504v-.656H7.652v.656h3.883Zm0 2.078v.547H7.543v-.547h.574l-.082-.3H7.68v-1.56h3.855v1.013c.018.4-.146.583-.492.547l-.055.3h.547Zm-1.039-.957a.133.133 0 0 0 .04.005c.046-.003.07-.041.07-.114v-.11H8.554v.22h1.941Zm-1.45.957h1.04v-.3h-1.04v.3Z" fill="#505050" stroke="#505050"/><path d="M7.352 36.574v-3.718h.164v-.794h-.164v-.246h.218v-.765h-.218v-.656h-.903v.656H5.33v.793h1.093v.218H5.52l-.11 3.5c0 .092-.036.128-.11.11v.656h.384c.346 0 .52-.182.52-.547l.109-2.925h.109v3.718h.93Zm1.175-3.527c.638.073.957-.237.957-.93l.11-1.668h-1.86v.684h.93l-.027.328h-.219c-.091.018-.128-.018-.11-.11h-.574v.247c0 .328.137.501.41.52h.438l-.027.081c-.019.128-.073.183-.164.164h-.63v.684h.766Zm2.98-.684v.657h-.984a1.141 1.141 0 0 1-.109.003c-.384-.005-.585-.225-.601-.66l-.137-1.914h1.86v.766h-.848l.054.273h.137c.091.018.137-.018.137-.11h.546l-.027.329c-.018.31-.155.438-.41.383h-.355l.027.11c-.018.127.045.181.191.163h.52Zm.028 1.504v-.656H7.652v.656h3.883Zm0 2.078v.547H7.543v-.547h.574l-.082-.3H7.68v-1.56h3.855v1.013c.018.4-.146.583-.492.547l-.055.3h.547Zm-1.039-.957a.133.133 0 0 0 .04.005c.046-.003.07-.041.07-.114v-.11H8.554v.22h1.941Zm-1.45.957h1.04v-.3h-1.04v.3Z" fill="#fff"/><path fill="#CCC" d="M2 2h25v25H2z"/><path fill-rule="evenodd" clip-rule="evenodd" d="M17.696 9.896h4.746s-.282-3.278-1.885-4.867C18.955 3.439 15.079 3 15.079 3s-2.89.194-4.937 1.063c-2.046.87-3.353 3.103-3.353 3.103s-.624 1.573-.704 2.471c-.08.898.276 2.33.276 2.33H3v3.297h7.242s.348.183 1.177.426c.829.243 2.777.734 2.777.734s1.523.454 2.196.817c.673.362 1.124.972 1.124.972s.449.688.103 1.725c-.346 1.036-1.535 1.37-1.535 1.37s-2.009.6-3.363.26c-1.354-.34-1.934-1.63-1.934-1.63s-.234-.643-.306-1.082c-.073-.44-.037-1.03-.037-1.03H5.44s-.038 2.083.92 4.136c.96 2.053 4.427 2.898 4.427 2.898s2.707.569 5.404.112c2.697-.457 4.512-1.77 4.512-1.77s1.495-1.38 1.912-2.757c.416-1.376.347-2.907.347-2.907s-.123-.74-.26-1.114c-.137-.374-.472-.855-.472-.855l3.099-1.974-5.256-3.291v1.614h-5.53s-1.706-.306-2.488-.874c-.783-.568-.813-1.407-.813-1.407s-.091-1.168.493-1.872c.584-.704 1.993-.986 1.993-.986s1.174-.233 2.13.114c.956.348 1.44 1.213 1.44 1.213s.203.504.276.834c.073.33.122.956.122.956Z" fill="#505050"/><path d="M13.775 24.972c5.859-.152 8.864-2.435 9.016-6.848.076-2.815-2.397-4.717-7.418-5.706l-.457-.229c-2.739-.38-4.033-1.37-3.88-2.967.076-1.674 1.217-2.587 3.424-2.74 2.13 0 3.271 1.066 3.424 3.196h4.336c-.228-4.032-2.625-6.2-7.19-6.505-5.63.38-8.56 2.701-8.788 6.962-.076 2.891 2.245 4.832 6.962 5.82.228.077.495.153.799.229 2.663.608 3.995 1.598 3.995 2.967-.076 1.75-1.484 2.663-4.223 2.74-2.359-.077-3.538-1.37-3.538-3.881H5.672c-.153 4.565 2.548 6.886 8.103 6.962Z" fill="#F29D38"/><path fill-rule="evenodd" clip-rule="evenodd" d="m24.955 13.595-4.68-2.922v1.46H3.194v2.923h17.08v1.46l4.68-2.921Z" fill="#F29D38"/><path fill-rule="evenodd" clip-rule="evenodd" d="M20.647 11.264v1.238H3.549v2.258h17.098v1.185l3.776-2.354-3.776-2.327Z" fill="#505050"/><path fill-rule="evenodd" clip-rule="evenodd" d="M20.833 12.7v-1.088l3.218 1.983-3.218 1.974v-1.022H3.748V12.7h17.085Z" fill="#fff"/><path fill="#F29D38" d="M29 2h17v25H29z"/><path fill-rule="evenodd" clip-rule="evenodd" d="M38.102 8.563c.674.054.993-.256.957-.93V3.395h-1.04v4.128c.019.165-.045.228-.19.192h-.548v.848h.82Zm-3.446-3.856c0 .438.274.62.82.547h.876V4.46h-.356c-.219.036-.319-.027-.3-.191l-.11-.793h-1.121l.191 1.23Zm5.715 2.707c-.674.11-.975-.182-.902-.875l-.164-2.898h1.011l.164 2.843c-.018.146.019.21.11.192h.11v.738h-.329Zm-3.336.027c.401.073.61-.191.63-.793l.245-2.98h-.984l-.246 2.816c-.037.146-.091.21-.164.192h-.164v.765h.683ZM35.75 7.25c-.638.073-.966-.128-.984-.602l-.274-1.093h1.094l.137.601c0 .2.082.292.246.274h.273v.82h-.492Zm-.766 2.406c.566-.018.894-.2.985-.547l.355-1.64h-1.011l-.274 1.176c-.018.2-.128.282-.328.246h-.3v.765h.573Zm5.414-.71c-.036.564-.364.801-.984.71h-3.2v-.765h2.79c.237.036.364-.046.383-.246l.218-.985h1.067l-.274 1.285Zm-3.472 5.183h1.176v-2.79h-1.176v2.79Zm-1.094-.738c-.146.346-.383.492-.71.437h-.74v-.902h.356c.091.018.173-.046.246-.192l.465-1.12h1.203l-.82 1.777Zm3.309.027c.073.383.291.538.656.465h.902v-.93h-.41c-.091.018-.146-.018-.164-.11l-.465-1.202h-1.148l.629 1.777Zm1.476 3.281v.93H34.41v-.93h2.488v-.875h-2.543v-.957h2.543v-.437h1.176v.437h2.57v.957h-2.57v.875h2.543Zm-4.375 7.043c.183.018.383-.11.602-.383l.136-.136.274-.328h.492c.401.546.73.82.984.82h1.86v-.574h-1.203c-.11 0-.183-.082-.219-.246h1.422v-.493h-.738v-.246h.738v-.52h-.738v-.19h.218c.237-.037.383-.229.438-.575v-1.476h-5.989v2.05h.602v.22h-.738v.491h.738v.246h-.738v.492h1.531c-.091.201-.182.292-.273.274h-1.258v.574h1.86Zm-.683-3.555h3.882v-.218H35.56v.218Zm3.882.711H35.56v-.218h3.882v.218Zm-3.254.766h2.598v-.219h-2.597v.22Zm2.598.738h-2.597v-.246h2.597v.246Zm-.765 2.543c0 .42-.21.63-.63.63h-.82V25h.328c.055 0 .082-.018.082-.055v-1.394h1.04v1.394Zm-1.45-.246v-.574h-.71c-.146 0-.265-.073-.356-.219h-1.012c.018.055.046.128.082.219.183.401.383.592.602.574h1.394Zm3.856-.629c-.2.438-.42.647-.657.63h-1.394v-.602h.848c.09.018.173-.037.246-.164h1.011a1.048 1.048 0 0 0-.054.136Zm-4.621 1.477c.237 0 .428-.2.574-.602a.691.691 0 0 1 .082-.164h-.93c-.09.146-.21.219-.355.219h-.82v.547h1.449Zm4.73-.547v.602h-1.312c-.292.018-.556-.228-.793-.739h.93l.081.082a.802.802 0 0 0 .301.055h.793Z" fill="#fff" stroke="#505050"/><path fill-rule="evenodd" clip-rule="evenodd" d="M38.102 8.563c.674.054.993-.256.957-.93V3.395h-1.04v4.128c.019.165-.045.228-.19.192h-.548v.848h.82Zm-3.446-3.856c0 .438.274.62.82.547h.876V4.46h-.356c-.219.036-.319-.027-.3-.191l-.11-.793h-1.121l.191 1.23Zm5.715 2.707c-.674.11-.975-.182-.902-.875l-.164-2.898h1.011l.164 2.843c-.018.146.019.21.11.192h.11v.738h-.329Zm-3.336.027c.401.073.61-.191.63-.793l.245-2.98h-.984l-.246 2.816c-.037.146-.091.21-.164.192h-.164v.765h.683ZM35.75 7.25c-.638.073-.966-.128-.984-.602l-.274-1.093h1.094l.137.601c0 .2.082.292.246.274h.273v.82h-.492Zm-.766 2.406c.566-.018.894-.2.985-.547l.355-1.64h-1.011l-.274 1.176c-.018.2-.128.282-.328.246h-.3v.765h.573Zm5.414-.71c-.036.564-.364.801-.984.71h-3.2v-.765h2.79c.237.036.364-.046.383-.246l.218-.985h1.067l-.274 1.285Zm-3.472 5.183h1.176v-2.79h-1.176v2.79Zm-1.094-.738c-.146.346-.383.492-.71.437h-.74v-.902h.356c.091.018.173-.046.246-.192l.465-1.12h1.203l-.82 1.777Zm3.309.027c.073.383.291.538.656.465h.902v-.93h-.41c-.091.018-.146-.018-.164-.11l-.465-1.202h-1.148l.629 1.777Zm1.476 3.281v.93H34.41v-.93h2.488v-.875h-2.543v-.957h2.543v-.437h1.176v.437h2.57v.957h-2.57v.875h2.543Zm-4.375 7.043c.183.018.383-.11.602-.383l.136-.136.274-.328h.492c.401.546.73.82.984.82h1.86v-.574h-1.203c-.11 0-.183-.082-.219-.246h1.422v-.493h-.738v-.246h.738v-.52h-.738v-.19h.218c.237-.037.383-.229.438-.575v-1.476h-5.989v2.05h.602v.22h-.738v.491h.738v.246h-.738v.492h1.531c-.091.201-.182.292-.273.274h-1.258v.574h1.86Zm-.683-3.555h3.882v-.218H35.56v.218Zm3.882.711H35.56v-.218h3.882v.218Zm-3.254.766h2.598v-.219h-2.597v.22Zm2.598.738h-2.597v-.246h2.597v.246Zm-.765 2.543c0 .42-.21.63-.63.63h-.82V25h.328c.055 0 .082-.018.082-.055v-1.394h1.04v1.394Zm-1.45-.246v-.574h-.71c-.146 0-.265-.073-.356-.219h-1.012c.018.055.046.128.082.219.183.401.383.592.602.574h1.394Zm3.856-.629c-.2.438-.42.647-.657.63h-1.394v-.602h.848c.09.018.173-.037.246-.164h1.011a1.048 1.048 0 0 0-.054.136Zm-4.621 1.477c.237 0 .428-.2.574-.602a.691.691 0 0 1 .082-.164h-.93c-.09.146-.21.219-.355.219h-.82v.547h1.449Zm4.73-.547v.602h-1.312c-.292.018-.556-.228-.793-.739h.93l.081.082a.802.802 0 0 0 .301.055h.793Z" fill="#fff"/><path fill="#F29D38" d="M17 29h29v9H17z"/><path fill-rule="evenodd" clip-rule="evenodd" d="M19.156 35.031c.802-.02 1.214-.333 1.235-.937.01-.386-.328-.646-1.016-.782l-.063-.03c-.375-.053-.552-.188-.53-.407.01-.23.166-.354.468-.375.292 0 .448.146.469.438h.593c-.03-.553-.359-.85-.984-.891-.77.052-1.172.37-1.203.953-.01.396.307.661.953.797.031.01.068.02.11.031.364.083.546.219.546.406-.01.24-.203.365-.578.375-.323-.01-.484-.187-.484-.53h-.625c-.021.624.349.942 1.11.952ZM21.172 35l.219-.61h1.14l.219.61h.625l-1.016-2.89h-.734L20.578 35h.594Zm.375-1.094h.828l-.39-1.234h-.016l-.422 1.234ZM24.25 35v-2.39l.016-.016L25.39 35h.89v-2.89h-.578v2.265l-.015.016-1.094-2.282h-.922V35h.578Zm4.969-1.438c-.01.959-.495 1.438-1.453 1.438h-.985v-2.89h.985c.958.01 1.442.494 1.453 1.453Zm-1.5.954h-.328v-1.922h.328c.573-.01.854.312.843.968.01.657-.27.974-.843.954Zm5.297-.422c-.021.604-.433.916-1.235.937-.76-.01-1.13-.328-1.11-.953h.626c0 .344.161.521.484.531.375-.01.568-.135.578-.375 0-.187-.182-.323-.547-.406a1.506 1.506 0 0 1-.109-.031c-.646-.136-.963-.401-.953-.797.031-.583.432-.901 1.203-.953.625.042.953.338.985.89h-.594c-.021-.291-.177-.437-.469-.437-.302.02-.458.146-.469.375-.02.219.157.354.532.406l.062.032c.688.135 1.026.395 1.016.78Zm1.672-1.5h.859v-.485h-2.344v.485h.86V35h.624v-2.406Zm1.765 1.25V35h-.625v-2.89h1.234c.657.02.99.27 1 .75-.01.374-.208.609-.593.703v.015c.281.031.453.245.515.64 0 .032.006.063.016.094.02.355.073.584.156.688h-.672a3.817 3.817 0 0 1-.109-.781c-.031-.25-.12-.375-.266-.375h-.656Zm.516-.485h-.516v-.765h.516c.281 0 .427.12.437.36-.01.27-.156.405-.437.405Zm4.218.203c-.03.959-.49 1.448-1.374 1.47-.907-.022-1.37-.511-1.391-1.47.02-.979.484-1.484 1.39-1.515.886.031 1.344.536 1.376 1.516Zm-1.374 1.047c-.5.01-.745-.338-.735-1.047-.01-.708.234-1.062.734-1.062.48 0 .72.354.72 1.063 0 .697-.24 1.046-.72 1.046Zm2.359-2.078V35h-.578v-2.89h1.015l.61 2.109h.015l.657-2.11h.968V35h-.578v-2.484L43.47 35h-.516l-.766-2.484-.015.015Z" fill="#fff" stroke="#505050"/><path fill-rule="evenodd" clip-rule="evenodd" d="M19.156 35.031c.802-.02 1.214-.333 1.235-.937.01-.386-.328-.646-1.016-.782l-.063-.03c-.375-.053-.552-.188-.53-.407.01-.23.166-.354.468-.375.292 0 .448.146.469.438h.593c-.03-.553-.359-.85-.984-.891-.77.052-1.172.37-1.203.953-.01.396.307.661.953.797.031.01.068.02.11.031.364.083.546.219.546.406-.01.24-.203.365-.578.375-.323-.01-.484-.187-.484-.53h-.625c-.021.624.349.942 1.11.952ZM21.172 35l.219-.61h1.14l.219.61h.625l-1.016-2.89h-.734L20.578 35h.594Zm.375-1.094h.828l-.39-1.234h-.016l-.422 1.234ZM24.25 35v-2.39l.016-.016L25.39 35h.89v-2.89h-.578v2.265l-.015.016-1.094-2.282h-.922V35h.578Zm4.969-1.438c-.01.959-.495 1.438-1.453 1.438h-.985v-2.89h.985c.958.01 1.442.494 1.453 1.453Zm-1.5.954h-.328v-1.922h.328c.573-.01.854.312.843.968.01.657-.27.974-.843.954Zm5.297-.422c-.021.604-.433.916-1.235.937-.76-.01-1.13-.328-1.11-.953h.626c0 .344.161.521.484.531.375-.01.568-.135.578-.375 0-.187-.182-.323-.547-.406a1.506 1.506 0 0 1-.109-.031c-.646-.136-.963-.401-.953-.797.031-.583.432-.901 1.203-.953.625.042.953.338.985.89h-.594c-.021-.291-.177-.437-.469-.437-.302.02-.458.146-.469.375-.02.219.157.354.532.406l.062.032c.688.135 1.026.395 1.016.78Zm1.672-1.5h.859v-.485h-2.344v.485h.86V35h.624v-2.406Zm1.765 1.25V35h-.625v-2.89h1.234c.657.02.99.27 1 .75-.01.374-.208.609-.593.703v.015c.281.031.453.245.515.64 0 .032.006.063.016.094.02.355.073.584.156.688h-.672a3.817 3.817 0 0 1-.109-.781c-.031-.25-.12-.375-.266-.375h-.656Zm.516-.485h-.516v-.765h.516c.281 0 .427.12.437.36-.01.27-.156.405-.437.405Zm4.218.203c-.03.959-.49 1.448-1.374 1.47-.907-.022-1.37-.511-1.391-1.47.02-.979.484-1.484 1.39-1.515.886.031 1.344.536 1.376 1.516Zm-1.374 1.047c-.5.01-.745-.338-.735-1.047-.01-.708.234-1.062.734-1.062.48 0 .72.354.72 1.063 0 .697-.24 1.046-.72 1.046Zm2.359-2.078V35h-.578v-2.89h1.015l.61 2.109h.015l.657-2.11h.968V35h-.578v-2.484L43.47 35h-.516l-.766-2.484-.015.015Z" fill="#fff"/><defs><clipPath id="a"><path fill="#fff" d="M0 0h48v40H0z"/></clipPath></defs></svg>