<svg width="48" height="40" fill="none" xmlns="http://www.w3.org/2000/svg"><g clip-path="url(#a)"><path fill-rule="evenodd" clip-rule="evenodd" d="M0 38a2 2 0 0 0 2 2h44a2 2 0 0 0 2-2V2A2 2 0 0 0 46.15.005L46 0H2l-.15.005A2 2 0 0 0 0 2v36ZM27 2H2v25h25V2ZM2 29v9h13v-9H2Zm15 9h29v-9H17v9Zm29-11V2H29v25h17Z" fill="#505050"/></g><path fill="#FFFD54" d="M2 29h13v9H2z"/><path fill-rule="evenodd" clip-rule="evenodd" d="M7.625 36.273a.959.959 0 0 1-.663.329H5.547v-.711h1.121c.11 0 .219-.055.328-.164l.137-.164H5.629v-2.817h2.434v-.328H5.52v-.766h.683v-.328H5.52v-.738h.683v-.273h.957v.273h2.762v-.3h.93v.3h.765v.738h-.765v.328h.793v.766H9.047v.328h2.488v1.914c.091.693-.255.994-1.039.903h-.328l.11.136c0 .018.008.037.027.055.127.091.228.128.3.11h1.04v.683h-1.56c-.29-.037-.482-.11-.573-.219l-.63-.766h-.519l-.738.711Zm-.465-4.62h2.735v-.329H7.16v.328Zm.875 2.132h-1.45v-.3h1.45v.3Zm1.012 0h1.558v-.3H9.047v.3Zm1.504 1.067H9.074v-.329h1.559v.22c0 .072-.027.109-.082.109Zm-3.965 0h1.45v-.329h-1.45v.329Z" fill="#fff" stroke="#505050"/><path fill-rule="evenodd" clip-rule="evenodd" d="M7.545 36.273a.959.959 0 0 1-.662.329H5.467v-.711h1.121c.11 0 .22-.055.329-.164l.136-.164H5.55v-2.817h2.434v-.328H5.44v-.766h.684v-.328H5.44v-.738h.684v-.273h.957v.273h2.761v-.3h.93v.3h.766v.738h-.766v.328h.793v.766H8.967v.328h2.489v1.914c.09.693-.256.994-1.04.903h-.328l.11.136c0 .018.009.037.027.055.128.091.228.128.3.11h1.04v.683h-1.559c-.291-.037-.483-.11-.574-.219l-.629-.766h-.52l-.738.711Zm-.464-4.62h2.734v-.329H7.081v.328Zm.875 2.132h-1.45v-.3h1.45v.3Zm1.011 0h1.559v-.3H8.967v.3Zm1.504 1.067H8.995v-.329h1.558v.22c0 .072-.027.109-.082.109Zm-3.965 0h1.45v-.329h-1.45v.329Z" fill="#fff"/><path fill="#CCC" d="M2 2h25v25H2z"/><path fill-rule="evenodd" clip-rule="evenodd" d="M23 4H7v9.5H5l10 11.924L25 13.5h-2V4Z" fill="#FFFD54"/><path fill-rule="evenodd" clip-rule="evenodd" d="M20.56 10.146s-.096-1.093-.346-1.548c-.117-.211-.363-.811-1.574-1.327-.45-.192-1.762-.261-1.762-.261s-1.087.052-1.878.613c-.791.561-1.21 1.749-1.21 1.749s-.376 1.353-.294 2.373c.061.763.264 1.708.696 2.421.095.156.424.762 1.395 1.15.856.342 1.951.267 1.951.267s1.343-.117 2.144-.81c.802-.694.877-2.221.877-2.221H18.36s-.065.744-.234.997c-.073.11-.35.358-.74.453-.08.02-.442.164-.911-.122-.099-.06-.363-.285-.543-.823-.05-.148-.29-.673-.194-2.476.012-.222.13-1.043.58-1.627.075-.098.425-.33.88-.296.1.007.596.073.928.544.148.21.234.944.234.944h2.2Z" fill="#505050"/><path d="M16.995 15.407c2.12-.029 3.237-.917 3.352-2.664h-1.805c-.057.974-.573 1.475-1.547 1.504-.945-.029-1.446-.989-1.504-2.88.058-1.89.559-2.864 1.504-2.921.974.057 1.49.559 1.547 1.504h1.805c-.115-1.776-1.232-2.693-3.352-2.75-2.148.086-3.251 1.475-3.308 4.168.057 2.635 1.16 3.982 3.308 4.039Z" fill="#fff"/><path fill-rule="evenodd" clip-rule="evenodd" d="M13.4 9.2a2.2 2.2 0 1 1-4.4 0 2.2 2.2 0 0 1 4.4 0Zm-1.4.02a.8.8 0 1 1-1.6 0 .8.8 0 0 1 1.6 0Z" fill="#505050"/><path fill-rule="evenodd" clip-rule="evenodd" d="M9.2 9.221a2 2 0 1 1 4 0 2 2 0 0 1-4 0Zm3 0a1 1 0 1 0-2 0 1 1 0 0 0 2 0Z" fill="#fff"/><path fill="#FFFD54" d="M29 2h17v25H29z"/><path d="M37.031 6.79V5.694h.274a.376.376 0 0 0 .312-.273l.156-.469h1.485l-.04.352h2.93v1.054l-1.64 1.602.39.312c.079.053.26.079.547.079h.703v1.132H40.82c-.39 0-.729-.104-1.015-.312l-.39-.352-.352.274c-.313.234-.626.351-.938.351h-1.094V8.352h.547c.156 0 .3-.053.43-.157l.351-.234-.859-.938h1.758l.703-.625h-1.133c-.338.26-.716.391-1.133.391h-.664Zm1.367 5.194h.977v-1.093h-.977v1.093ZM33.32 5.11h3.477v3.282c-.026.468-.17.716-.43.742.287.026.417.351.39.976v2.54c.053.546-.181.794-.702.742H34.57v.43h-1.25V5.108Zm1.29 3.516h.703c.156 0 .234-.078.234-.234V6.203h-.938v2.422Zm.898 3.438v-1.915c0-.234-.078-.351-.235-.351h-.664v2.539h.625c.183 0 .274-.091.274-.274Zm5.156-2.188h1.406v1.016h-1.367v1.093h1.445v1.133h-1.484v.664h-1.289v-.664h-2.46v-1.133h.233v-2.03h2.188v-.392h1.328v.313ZM34.648 21.305c-.65.13-1.041-.17-1.171-.899l-.47-1.484h1.407l.273.82c.079.365.222.521.43.469h.235v1.094h-.704Zm-1.601 2.422h.43c.156.026.26-.118.312-.43l.313-1.602h1.367l-.43 2.266c-.026.573-.417.833-1.172.781h-.82v-1.015Zm1.21-5.196c-.364.052-.611-.221-.741-.82l-.508-1.797h1.328l.352 1.094c.13.312.234.443.312.39h.313v1.133h-1.055Zm2.657-1.445v.547h3.32v-.547h-3.32ZM40 19.273c.182 0 .273-.104.273-.312v-.273h-3.359v.585H40Zm-4.453 1.055v-4.414h6.094v3.008c.104 1.068-.26 1.536-1.094 1.406h-5Zm-.274 3.36h.274v-2.891h6.094v2.89h.156v1.094h-6.524v-1.093Zm1.954-1.836h-.508v1.835h.508v-1.835Zm1.093 1.835h.47v-1.835h-.47v1.835Zm1.64 0h.43v-1.835h-.43v1.835Z" fill="#fff"/><path fill-rule="evenodd" clip-rule="evenodd" d="M36.47 13.347a.853.853 0 0 1-.415.044H34.57v.43h-1.25V5.108h3.477v3.282a1.702 1.702 0 0 1-.05.345c-.045.166-.117.28-.216.342a.372.372 0 0 1-.164.055.33.33 0 0 1 .164.059.481.481 0 0 1 .166.253 1.012 1.012 0 0 1 .047.215 2.126 2.126 0 0 1 .017.293c0 .05 0 .102-.003.156v2.54c.018.193 0 .35-.053.468a.436.436 0 0 1-.235.23Zm.444-.23h2.461v.664h1.29v-.664h1.483v-1.133h-1.445v-1.093h1.367V9.875h-1.406v-.313h-1.328v.391h-2.188v2.031h-.234v1.133Zm2.89-3.945c.248.18.535.282.86.307.051.003.103.005.156.005h1.328V8.352h-.703c-.282 0-.464-.026-.544-.077a.072.072 0 0 1-.003-.002l-.39-.312 1.64-1.602V5.305h-2.93l.04-.352h-1.485l-.156.469a.376.376 0 0 1-.312.273h-.274V6.79h.664a1.95 1.95 0 0 0 .253-.017 1.784 1.784 0 0 0 .88-.374h1.133l-.703.625H37.5l.86.938-.352.234a.658.658 0 0 1-.43.156h-.547v1.094h1.094c.313 0 .625-.117.938-.351l.351-.274.39.352Zm-2.507-1.32H37.58l-.284-.31v.31Zm-.038-2.935a.5.5 0 0 0-.462-.308H33.32a.5.5 0 0 0-.5.5v8.711a.5.5 0 0 0 .5.5h1.25a.5.5 0 0 0 .495-.43h.967c.312.027.662-.02.923-.273h1.92v.164a.5.5 0 0 0 .5.5h1.29a.5.5 0 0 0 .5-.5v-.164h.983a.5.5 0 0 0 .5-.5v-1.133a.5.5 0 0 0-.5-.5h-.945v-.093h.867a.5.5 0 0 0 .5-.5V9.875a.502.502 0 0 0-.01-.105c.055-.081.088-.18.088-.286V8.352a.5.5 0 0 0-.5-.5h-.703l-.108-.002 1.16-1.133a.5.5 0 0 0 .151-.358V5.305a.5.5 0 0 0-.5-.5h-2.413a.501.501 0 0 0-.477-.352h-1.485a.5.5 0 0 0-.474.342l-.04.122Zm2.116 7.067h-.977v-1.093h.977v1.093Zm-4.766-3.359h.703c.157 0 .235-.078.235-.234V6.203h-.938v2.422Zm0 1.172h.664c.157 0 .235.117.235.351v1.915c0 .182-.091.273-.274.273h-.625v-2.54Zm-.674 11.427c-.233-.14-.386-.413-.458-.818l-.47-1.484h1.407l.273.82c.06.274.154.43.286.469.024.007.048.01.074.01a.312.312 0 0 0 .07-.01h.235v1.094h-.704c-.209.041-.391.039-.546-.008a.735.735 0 0 1-.167-.073Zm.167.471-.313 1.602c-.044.264-.125.407-.244.43a.196.196 0 0 1-.068 0h-.43v1.015h.82c.41.028.711-.035.906-.19.166-.131.254-.328.266-.591l.43-2.266h-1.367Zm1.445 1.992h-.274v1.094h6.524v-1.093h-.156v-2.891h-6.094v2.89Zm5-3.359c.233.037.43.026.589-.031.411-.148.58-.606.505-1.375v-3.008h-6.094v4.414h5Zm-5.5-1.089v-.208h-.07l.07.208Zm-.79-.708a.486.486 0 0 1-.4-.11c-.152-.128-.266-.365-.341-.71l-.508-1.797h1.328l.352 1.094c.093.223.172.353.239.39.026.015.05.015.073 0h.313v1.133h-1.055Zm.79-2.04-.235-.73a.5.5 0 0 0-.476-.347h-1.328a.5.5 0 0 0-.481.636l.504 1.783c.046.209.11.41.205.589h-.228a.5.5 0 0 0-.477.65l.46 1.455c.078.415.247.798.572 1.047l.046.034-.31 1.593-.003.014-.002.012h-.247a.5.5 0 0 0-.5.5v1.015a.5.5 0 0 0 .5.5h.804c.364.023.72-.012 1.02-.163a.5.5 0 0 0 .402.202h6.524a.5.5 0 0 0 .5-.5v-1.093a.498.498 0 0 0-.156-.364v-2.527a.5.5 0 0 0-.277-.448c.278-.382.327-.907.277-1.45v-2.985a.5.5 0 0 0-.5-.5h-6.094a.5.5 0 0 0-.5.5v.578Zm1.867 1.142v-.547h3.32v.547h-3.32Zm3.298 1.555c-.046.057-.116.085-.212.085h-3.086v-.585h3.36v.273c0 .099-.021.175-.062.227Zm-3.493 2.664h.508v1.835h-.508v-1.835Zm2.07 1.835h-.469v-1.835h.47v1.835Zm1.602 0h-.43v-1.835h.43v1.835Z" fill="#505050"/><path fill="#FFFD54" d="M17 29h29v9H17z"/><path d="M23.19 33.059h-.82c-.027-.443-.261-.671-.704-.684-.43.026-.657.469-.684 1.328.027.846.254 1.283.684 1.309.456-.013.69-.241.703-.684h.82c-.039.794-.546 1.198-1.523 1.211-.977-.026-1.478-.638-1.504-1.836.04-1.224.54-1.855 1.504-1.894.964.013 1.471.43 1.523 1.25ZM25.26 35.54c-1.133-.027-1.713-.639-1.739-1.837.04-1.237.619-1.868 1.739-1.894 1.106.026 1.68.657 1.718 1.894-.039 1.198-.612 1.81-1.718 1.836Zm0-3.165c-.612 0-.918.443-.918 1.328 0 .872.306 1.309.918 1.309.599 0 .898-.437.898-1.309 0-.885-.3-1.328-.898-1.328ZM29.146 35.54c-1.132-.027-1.712-.639-1.738-1.837.04-1.237.619-1.868 1.738-1.894 1.107.026 1.68.657 1.72 1.894-.04 1.198-.613 1.81-1.72 1.836Zm0-3.165c-.611 0-.918.443-.918 1.328 0 .872.306 1.309.918 1.309.6 0 .899-.437.899-1.309 0-.885-.3-1.328-.899-1.328ZM33.756 35.5h-2.324v-3.613h.761v3.008h1.563v.605ZM34.947 31.887V35.5h-.781v-3.613h.781ZM38.834 35.5h-1.113l-1.406-3.008-.02.02V35.5h-.723v-3.613h1.153l1.367 2.851.02-.02v-2.831h.722V35.5ZM41.88 34.172h-.702v-.606h1.465v1.817c-.26.078-.528.117-.801.117-.209.026-.482.04-.82.04-1.107-.066-1.674-.678-1.7-1.837.026-1.185.593-1.816 1.7-1.894 1.132 0 1.692.39 1.68 1.171h-.821c0-.403-.241-.605-.723-.605-.664.013-1.002.456-1.015 1.328.013.86.351 1.296 1.015 1.309.195 0 .423-.026.684-.078-.013.013 0 .013.039 0v-.762Z" fill="#fff"/><path fill-rule="evenodd" clip-rule="evenodd" d="M23.45 32.174a1.541 1.541 0 0 0-.363-.43c-.375-.307-.87-.428-1.414-.435h-.027c-.596.024-1.111.24-1.47.692-.344.433-.492 1.02-.514 1.686v.027c.015.656.16 1.236.509 1.663.364.444.885.646 1.482.662h.02c.545-.007 1.043-.123 1.417-.421.15-.119.268-.257.36-.411.05.069.103.135.163.197.409.433.983.62 1.635.635h.023c.643-.015 1.209-.204 1.613-.637.123-.13.224-.276.306-.435.083.16.185.306.31.437.409.433.983.62 1.635.635h.023c.643-.015 1.208-.204 1.613-.637.058-.062.112-.127.16-.196v.294a.5.5 0 0 0 .5.5h2.325a.498.498 0 0 0 .205-.044.498.498 0 0 0 .205.044h.781a.498.498 0 0 0 .313-.11c.085.069.194.11.312.11h.723a.5.5 0 0 0 .5-.5v-.8l.473 1.012a.5.5 0 0 0 .453.288h1.113a.5.5 0 0 0 .5-.5v-.204c.021.026.043.05.066.075.396.428.953.63 1.592.667l.03.001c.333 0 .619-.012.851-.04.311-.002.616-.048.913-.137a.5.5 0 0 0 .357-.48v-1.816a.497.497 0 0 0-.069-.252.498.498 0 0 0 .127-.325c.009-.53-.186-.992-.624-1.297-.403-.282-.948-.383-1.555-.383h-.036c-.641.046-1.198.259-1.592.698l-.06.07v-.19a.5.5 0 0 0-.5-.5h-.723a.5.5 0 0 0-.5.5v.693l-.435-.91a.5.5 0 0 0-.451-.283h-1.153a.498.498 0 0 0-.312.11.498.498 0 0 0-.313-.11h-.781a.5.5 0 0 0-.5.5v2.508h-.973v-2.508a.5.5 0 0 0-.5-.5h-.761a.5.5 0 0 0-.5.5v.274a1.91 1.91 0 0 0-.155-.195c-.404-.445-.971-.642-1.619-.657h-.023c-.652.015-1.224.21-1.631.655a1.97 1.97 0 0 0-.31.45 1.972 1.972 0 0 0-.304-.448c-.404-.445-.971-.642-1.619-.657h-.023c-.652.015-1.224.21-1.631.655-.061.066-.117.136-.167.21Zm.22.665a2.121 2.121 0 0 0-.06.193c-.03.118-.053.246-.068.381-.01.093-.017.19-.02.29.002.092.007.18.015.266.014.135.036.262.066.38.019.074.04.144.066.211.24.634.77.96 1.59.98.97-.024 1.529-.495 1.68-1.415.021-.129.034-.266.04-.413v-.023a3.493 3.493 0 0 0-.038-.408c-.148-.959-.708-1.45-1.681-1.472-.82.019-1.35.362-1.59 1.03Zm-.644.99a4.258 4.258 0 0 1-.004-.142c.001-.043.003-.086.006-.128h-.659a.5.5 0 0 1-.499-.471.47.47 0 0 0-.026-.14.092.092 0 0 0-.019-.034.09.09 0 0 0-.034-.018.425.425 0 0 0-.112-.02c-.013.006-.033.024-.062.08-.062.121-.121.354-.134.747.013.385.072.613.133.73.028.054.05.07.053.073 0 0 .003.003.011.005a.461.461 0 0 0 .122-.021c.025-.01.033-.017.033-.017s.006-.006.014-.026a.434.434 0 0 0 .02-.134.5.5 0 0 1 .5-.485h.657Zm-.657.5c-.013.442-.247.67-.703.683-.43-.026-.657-.462-.684-1.309.027-.86.254-1.302.684-1.328.443.013.677.24.703.684h.82a1.825 1.825 0 0 0-.034-.258 1.384 1.384 0 0 0-.073-.242c-.201-.49-.673-.74-1.416-.75-.963.039-1.465.67-1.504 1.894.026 1.198.527 1.81 1.504 1.836.744-.01 1.217-.247 1.416-.71.03-.072.055-.148.072-.229.019-.085.03-.175.035-.272h-.82Zm5.077-1.047c-.02.127-.032.263-.037.408v.027c.003.145.015.282.035.41.145.918.712 1.39 1.703 1.412 1.106-.026 1.68-.638 1.718-1.836-.039-1.237-.612-1.868-1.718-1.894-.985.022-1.552.513-1.701 1.473Zm4.747 1.613v-3.008h-.761V35.5h2.324v-.605h-1.563Zm1.973.605h.781v-3.613h-.781V35.5Zm3.945-.781-.02.02-1.366-2.852h-1.153V35.5h.723v-2.988l.02-.02L37.72 35.5h1.113v-3.613h-.723v2.832Zm1.223-1.238c-.006.072-.01.146-.012.222.002.075.006.147.012.217.09 1.018.652 1.558 1.688 1.62.338 0 .611-.014.82-.04.273 0 .54-.04.8-.117v-1.817h-1.464v.606h.703v.762a.305.305 0 0 1-.037.01c-.009 0-.01-.003-.002-.01-.183.036-.35.06-.501.07a2.545 2.545 0 0 1-.183.008c-.664-.013-1.002-.45-1.015-1.309.013-.872.351-1.315 1.015-1.328.482 0 .723.202.723.605h.82v-.052a1.131 1.131 0 0 0-.092-.447c-.2-.448-.73-.672-1.587-.672-1.036.073-1.599.63-1.688 1.672Zm1.83-.606c-.21.005-.302.07-.36.145-.077.1-.155.302-.161.683.002.144.015.261.035.357v-.494a.5.5 0 0 1 .5-.5h.21a.506.506 0 0 1-.007-.086.276.276 0 0 0-.008-.073.501.501 0 0 0-.21-.032Zm-16.181.116c-.07.1-.141.312-.141.712 0 .393.072.599.139.694.044.064.108.115.279.115.16 0 .218-.048.261-.11.067-.097.137-.304.137-.699 0-.402-.07-.615-.139-.716-.044-.065-.102-.112-.26-.112-.167 0-.23.05-.276.116Zm3.886 0c-.069.1-.14.312-.14.712 0 .393.071.599.138.694.045.064.108.115.28.115.16 0 .218-.048.261-.11.066-.097.137-.304.137-.699 0-.402-.07-.615-.139-.716-.044-.065-.103-.112-.26-.112-.167 0-.231.05-.277.116Zm-4.527.712c0-.885.306-1.328.918-1.328.599 0 .898.443.898 1.328 0 .872-.3 1.309-.898 1.309-.612 0-.918-.437-.918-1.309Zm3.887 0c0-.885.306-1.328.918-1.328.598 0 .898.443.898 1.328 0 .872-.3 1.309-.899 1.309-.611 0-.918-.437-.918-1.309Z" fill="#505050"/><defs><clipPath id="a"><path fill="#fff" d="M0 0h48v40H0z"/></clipPath></defs></svg>