<svg width="48" height="40" fill="none" xmlns="http://www.w3.org/2000/svg"><g clip-path="url(#a)"><path fill-rule="evenodd" clip-rule="evenodd" d="M0 38a2 2 0 0 0 2 2h44a2 2 0 0 0 2-2V2A2 2 0 0 0 46.15.005L46 0H2l-.15.005A2 2 0 0 0 0 2v36ZM27 2H2v25h25V2ZM2 29v9h13v-9H2Zm15 9h29v-9H17v9Zm29-11V2H29v25h17Z" fill="#505050"/></g><path fill="#3A6AF6" d="M2 29h13v9H2z"/><path fill-rule="evenodd" clip-rule="evenodd" d="M11.563 31.516v-.793h-.63l.11-.328H9.84l-.11.328H7.215l-.137-.328H5.875l.11.328h-.63v.793h6.207ZM9.183 32.8c.128.018.228-.046.301-.192l.082-.164h1.996v-.683H9.758l.027-.082h-.93l-.136.273c-.055.128-.146.182-.274.164h-.41v.684h1.149Zm-2.761-1.012v2.023h-.93V31.79h.93Zm1.367 2.023V31.79h-.848v2.023h.848Zm3.774 0H9.02c-.347.019-.547-.063-.602-.246l-.355-.656h1.093l.082.11c.019.109.1.154.246.136h2.079v.657Zm0 2.817v-.738h-.247v-1.832H5.52v1.832h-.192v.738h6.234Zm-5.141-.738h.793v-1.04h-.793v1.04Zm1.613 0v-1.04h.766v1.04h-.766Zm1.64 0h.794v-1.04h-.793v1.04Z" fill="#fff" stroke="#505050"/><path fill-rule="evenodd" clip-rule="evenodd" d="M11.563 31.516v-.793h-.63l.11-.328H9.84l-.11.328H7.215l-.137-.328H5.875l.11.328h-.63v.793h6.207ZM9.183 32.8c.128.018.228-.046.301-.192l.082-.164h1.996v-.683H9.758l.027-.082h-.93l-.136.273c-.055.128-.146.182-.274.164h-.41v.684h1.149Zm-2.761-1.012v2.023h-.93V31.79h.93Zm1.367 2.023V31.79h-.848v2.023h.848Zm3.774 0H9.02c-.347.019-.547-.063-.602-.246l-.355-.656h1.093l.082.11c.019.109.1.154.246.136h2.079v.657Zm0 2.817v-.738h-.247v-1.832H5.52v1.832h-.192v.738h6.234Zm-5.141-.738h.793v-1.04h-.793v1.04Zm1.613 0v-1.04h.766v1.04h-.766Zm1.64 0h.794v-1.04h-.793v1.04Z" fill="#fff"/><path fill="#CCC" d="M2 2h25v25H2z"/><path fill-rule="evenodd" clip-rule="evenodd" d="M21.177 15.275c.879.01 1.36-.328 1.794-.979.818-1.235.881-2.4.117-3.435-.594-.805-1.402-1.309-2.365-1.58-.293-.083-.456-.01-.59.26-.138.277-.29.548-.462.853l-.237.422-.06-.46a58.703 58.703 0 0 0-.082-.61c-.32-2.26-1.736-3.878-3.78-4.327-.256-.057-.513-.112-.77-.168h-1.25a1.973 1.973 0 0 0-.078.038c-.057.028-.114.057-.173.072-1.902.49-3.09 1.805-4.054 3.45l1.04.9a2.773 2.773 0 0 1-.58-.139c-.063-.02-.126-.04-.189-.058-.92-.265-1.83-.298-2.71.157-1.743.905-2.335 3.678-1.073 5.19.193.229.62.369.94.37 1.87.01 3.741.009 5.613.009 2.983 0 5.966-.001 8.949.035Zm-11.945.957c-.154 0-.299.002-.437.004-.299.004-.568.008-.834-.01-.336-.021-.507.096-.614.424-.203.617-.423 1.23-.643 1.842-.1.276-.199.553-.296.83-.08.224-.157.45-.243.702l-.148.43h1.988L6.66 23.704l.09.046 3.195-4.338H8.271l.962-3.179h-.001Zm3.362 3.182.963-3.176-.43-.001a20.41 20.41 0 0 0-1.107.013c-.095.004-.23.13-.266.23-.404 1.1-.797 2.203-1.22 3.386l-.207.583h2.005l-1.349 3.256.09.043 3.18-4.333h-1.658l-.001-.001Zm10.826-3.389c-.048.062-.09.12-.133.177a5.623 5.623 0 0 1-.23.298c-.988 1.17-2.245 1.835-3.772.861-.287-.182-.588-.34-.889-.498l-.154-.081c-1.62-.86-3.26-.219-3.917 1.554l.623.385.087-.152c.05-.089.093-.163.139-.235.587-.918 1.565-1.628 2.826-.797.425.28.867.563 1.341.734l.146.054c.503.186 1.055.39 1.538.31 1.304-.218 2.306-.978 2.975-2.185l-.58-.425Zm-4.176 3.506c-.337-.21-.69-.395-1.042-.578l-.001-.001c-1.56-.814-3.266-.12-3.856 1.586l.604.336c.034-.055.066-.108.096-.16.062-.103.118-.2.186-.287.83-1.073 1.64-1.41 2.769-.7.225.142.46.269.694.396.099.053.198.107.296.162 1.872 1.04 4.052.32 4.982-1.67l-.558-.4c-.042.056-.08.11-.118.163-.079.112-.152.215-.236.31-1.141 1.305-2.255 1.813-3.816.843Zm.024 2.064c1.54 1.003 2.852.229 3.776-.86v.001c.083-.097.156-.203.241-.325l.126-.18.589.433c-.66 1.181-1.624 1.945-2.885 2.166-.521.09-1.121-.12-1.664-.31l-.126-.044c-.493-.171-.952-.467-1.394-.755-1.248-.812-2.19-.03-2.738.786-.055.081-.104.168-.16.267-.027.05-.056.1-.09.157l-.738-.462c.124-.146.238-.29.348-.429.232-.292.446-.562.702-.785.893-.779 1.88-.902 2.925-.272.156.094.317.179.477.264.208.11.415.22.611.348Z" fill="#3A6AF6"/><path fill="#3A6AF6" d="M29 2h17v25H29z"/><path fill-rule="evenodd" clip-rule="evenodd" d="M30.41 6.895h14.098V8.91l-.006.04a1.87 1.87 0 0 1-.04.187h.128v2.297h.2l-.2.399v.382h-.185l-.005.013-.008.026-.012.025c-.035.076-.072.15-.112.221h.267v1.602h-1.8a1.054 1.054 0 0 1-.77-.305 1.586 1.586 0 0 1-.143-.153.953.953 0 0 1-.106.127c-.232.231-.539.303-.825.303h-1.32v-.065a.916.916 0 0 1-.266.038h-1.95v-.379a.999.999 0 0 1-.034.04c-.235.254-.553.339-.86.339h-6.05V6.895Zm3.598 1h.011v.558h-.011v-.558Zm0 5.152h.011v-.531h-.011v.53Zm3.61-.72v.173h.084a2.913 2.913 0 0 1-.083-.168l-.002-.004Zm3.348.743a.224.224 0 0 0 .04-.009.378.378 0 0 0 .014-.116v-.894h-.04v.894a.56.56 0 0 1-.014.125Zm1.886-2.675h-.067v-.997h.067v.997Zm.622-1.45a.548.548 0 0 0 .034-.117v-.933h-.067v1.05h.033Zm-4.353.453h.066v.997h-.066v-.997Zm-.562-.453v-1.05h-.04v1.05h.04Zm3.331 1.957c.084.097.159.17.223.224.08.066.123.084.134.089h.003a1.06 1.06 0 0 1-.07-.212l-.023-.1h-.267Zm-2.06.281.04-.082.09-.199h.134l-.123.123-.018.022c-.048.06-.09.105-.123.136Zm-6.932 3.684h2.176v1.04h2.543v1.847h-2.072l1.32 2.473h.752v.067l.067.008v-5.435h6.879v5.613l.19.048v1.574h-1.32a.895.895 0 0 1-.594-.22h-.827c-.168 0-.354-.03-.524-.132a.82.82 0 0 1-.341-.402l-.04-.071a1.03 1.03 0 0 1-.954.606h-.72a.758.758 0 0 1-.133.103.842.842 0 0 1-.508.116h-2.158a1.75 1.75 0 0 1-.848-.163 1.291 1.291 0 0 1-.59-.601l-1.19-2.182-1.148 2.156c-.124.247-.32.508-.629.615a1.297 1.297 0 0 1-.4.115c-.16.023-.35.032-.563.032h-.883v-1.82h.806l1.282-2.5h-2.088v-1.848h2.515v-1.039Zm3.37 6.193a.85.85 0 0 1-.191-.195l.01.018.005.012a.295.295 0 0 0 .176.165Zm-.417-.608-1.856-3.478-1.03 2.01 1.03-1.937 1.856 3.404Zm-1.953-3.698h.176v-.887h-.176v.887Zm4.122 3.585c.008 0 .009.001 0 0Zm.664-4.472v.34h.039v-.34h-.04Zm4.812 0v.34h.066v-.34h-.066Zm.066.723-.066.13v4.38l.175.002a.656.656 0 0 1-.108-.432v-4.08Zm-1.066 3.128v-1.04l-.274.537.274.503Zm-1.133-3.003h-.452l.226.436.226-.436Zm-2.64.06-.04-.075v3.92c.01.13-.006.32-.137.482h.177v-4.326Zm1 2.945v-1.007l.271.526-.271.48Z" fill="#505050"/><path d="M30.91 8.05v-.655h6.235v.656h-2.626v.273h2.598v2.434h-.902V8.953h-1.723v1.805h-.957V8.953h-1.777v1.805h-.848V8.324h2.598v-.273H30.91Zm1.121 1.34v-.245h.793c-.036.109.037.154.219.136h.273v.547h-.765c-.328-.018-.502-.164-.52-.437Zm2.625.465v-.574h.328c.11.018.183-.036.22-.164h.737v.355c-.018.256-.173.383-.464.383h-.82Zm0 .52v-.355h.82c.019.109.128.155.329.136h.191v.63h-.738c-.438.017-.638-.12-.602-.411Zm-2.652.41v-.629h.246c.164.018.237-.027.219-.136h.793v.3c0 .328-.173.483-.52.465h-.738Zm4.457 2.762h-5.55V11.03h6.206v1.805c0 .474-.219.71-.656.71Zm-4.594-1.86v.329h1.668v-.329h-1.668Zm2.625.329h1.723v-.329h-1.723v.329Zm-.984.601h-1.614v.301h1.614v-.3Zm2.707 0h-1.696v.301h1.614c.054 0 .082-.027.082-.082v-.219ZM38.02 9.445v-2.05h5.988V8.87c-.055.346-.2.538-.438.574h-.218v.192h.738v.52h-.738v.245h.738v.493h-1.422c.036.164.11.246.219.246h1.203v.574h-1.86c-.255 0-.583-.274-.984-.82h-.492l-.273.328-.137.136c-.219.274-.42.401-.602.383h-1.86v-.574h1.259c.09.018.182-.073.273-.273h-1.531v-.493h.738v-.246h-.738v-.492h.738v-.219h-.602Zm4.921-1.258V7.97H39.06v.218h3.882Zm-3.882.493v.218h3.882V8.68H39.06Zm.629.765v.22h2.597v-.22h-2.597Zm2.597.957v-.246h-2.597v.246h2.597Zm-1.804 2.543v-1.394h1.038v1.394c0 .42-.21.63-.628.63h-.82V13h.327c.055 0 .082-.018.082-.055Zm-1.176.602h-1.45V13h.82c.147 0 .265-.073.356-.219h.93a.691.691 0 0 0-.082.164c-.146.401-.337.602-.574.602Zm-1.313-1.64h1.012c.091.145.21.218.355.218h.711v.574h-1.394c-.219.018-.42-.173-.602-.574a4.193 4.193 0 0 1-.082-.219Zm3.883.19h.848c.09.019.173-.036.246-.163h1.011a1.048 1.048 0 0 0-.054.136c-.2.438-.42.647-.657.63h-1.394v-.602Zm.055.766h.93l.081.082a.802.802 0 0 0 .301.055h.793v.602h-1.312c-.292.018-.556-.228-.793-.739ZM30.883 16.406h2.515v-1.039h1.176v1.04h2.543v.847h-2.406l1.723 3.226c.073.183.218.265.437.247h.246v.875h-.492c-.492.018-.82-.146-.984-.493L34 18.102l-1.586 2.98c-.11.219-.237.346-.383.383-.11.073-.364.11-.765.11h-.383v-.821h.273c.2.036.356-.046.465-.246l1.668-3.254h-2.406v-.848ZM38.184 20.645v-5.278h5.879V20.7c-.019.11.045.182.19.219v.684h-.82a.37.37 0 0 1-.355-.22h-1.066c-.219 0-.356-.081-.41-.245l-.493-.875-.437.765c-.11.237-.283.356-.52.356h-.984c-.055.164-.173.237-.355.219h-.848v-.766c.164.018.237-.046.219-.191Zm4.812-.028v-4.402h-3.773v4.402h.41c.127.018.2-.018.219-.11l.71-1.257-1.312-2.543h1.094l.793 1.531.793-1.531h1.011l-1.285 2.516.657 1.203c.054.146.136.21.246.191h.437Z" fill="#fff"/><path fill="#3A6AF6" d="M17 29h29v9H17z"/><path fill-rule="evenodd" clip-rule="evenodd" d="M20.797 29.61h4.281v1.14h.094v-1.14h2.812v2.11c-.01.133-.003.231.009.3.009.049.02.076.026.088.012.003.035.005.073.003l.034-.003.034.003h.05a.377.377 0 0 0 .027-.094c.013-.07.02-.17.014-.305l-.001-.012v-2.09h2.924l.295.614v-.615h2.568c.52.006.995.133 1.354.447v-.447H39.578c.377.013.743.09 1.027.303.309.232.45.57.457.937v.024a1.221 1.221 0 0 1-.253.741c.089.163.14.345.17.527l.005.038v.005l.011.033.004.066c.01.162.026.278.043.356a.517.517 0 0 0 .02.067l.635.794h-2.103l-.095-.379a4.23 4.23 0 0 1-.046-.207v.586h-4.062v-.435c-.361.313-.84.435-1.36.435h-2.693l-.322-.69v.69h-1.578v-.45a1.371 1.371 0 0 1-.067.062c-.328.291-.765.407-1.233.42h-.026c-.475-.013-.918-.127-1.25-.418a1.392 1.392 0 0 1-.065-.06v.446h-1.61v-1.266h-.109V33.5h-1.61v-2.406h-.187V33.5h-1.625v-2.406h-.86v-1.485Zm13.36 1.498v.898c.066-.014.087-.037.094-.044.022-.026.082-.122.077-.392v-.015c.004-.268-.054-.369-.08-.398-.008-.01-.03-.033-.092-.049Zm-1.173 2.438.034.002c.265.018.523.075.748.194v-.133h3.343v1.485h-.859V37.5h-1.625v-2.406h-.147l.02.343h-.167c.143.187.223.413.216.67v.004c-.015.424-.175.805-.522 1.068-.324.246-.748.34-1.2.352h-.02c-.434-.006-.854-.099-1.166-.367a1.201 1.201 0 0 1-.208-.231c-.05.063-.107.123-.17.18-.328.29-.764.406-1.232.418h-.026c-.475-.012-.919-.126-1.25-.417a1.413 1.413 0 0 1-.097-.092v.256l-.356.107a2.716 2.716 0 0 1-.753.115c-.19.022-.422.031-.688.031h-.023c-.53-.025-1.006-.19-1.348-.559-.337-.364-.476-.857-.488-1.398v-.023c.012-.542.151-1.034.483-1.404.336-.375.806-.555 1.335-.598l.02-.002h.021c.491 0 .948.083 1.294.324.034.024.066.049.097.074v-.336h1.625v2.095l-.001.016c-.009.133-.003.231.01.3.008.049.02.076.026.088.012.003.035.005.072.003l.034-.003.034.003h.05a.38.38 0 0 0 .028-.094c.013-.07.02-.17.013-.305V33.61h1.625v.346l.029-.024c.31-.246.718-.354 1.156-.384l.033-.002Z" fill="#505050"/><path d="M21.297 30.594v-.485h2.344v.485h-.86V33h-.625v-2.406h-.86ZM24.578 33h-.61v-2.89h.61v1.14h1.094v-1.14h.625V33h-.61v-1.266h-1.109V33ZM28.75 30.11h.625v1.812c-.031.719-.448 1.088-1.25 1.11-.823-.022-1.245-.391-1.266-1.11v-1.813h.625v1.578c-.041.646.172.954.641.922.448.032.656-.276.625-.922V30.11ZM32.547 33h-.89l-1.126-2.406-.015.015V33h-.578v-2.89h.921l1.094 2.28.016-.015v-2.266h.578V33ZM33.656 30.594v1.922h.328c.573.02.855-.297.844-.953.01-.657-.27-.98-.844-.97h-.328ZM33.046 33v-2.89h.985c.959.01 1.443.494 1.453 1.453-.01.958-.494 1.437-1.453 1.437h-.984ZM35.89 33v-2.89h1.938v.484h-1.312v.672h1.218v.484h-1.218v.766h1.359V33h-1.984ZM38.953 30.594v.765h.516c.281 0 .427-.135.437-.406-.01-.24-.156-.36-.437-.36h-.516Zm0 1.25V33h-.625v-2.89h1.234c.657.02.99.27 1 .75-.01.374-.208.609-.593.703v.015c.281.031.453.245.515.64 0 .032.006.063.016.094.02.355.073.584.156.688h-.672a3.817 3.817 0 0 1-.109-.781c-.031-.25-.12-.375-.266-.375h-.656ZM27.547 35.938h-.563v-.485h1.172v1.453a2.214 2.214 0 0 1-.64.094 5.52 5.52 0 0 1-.657.031c-.885-.041-1.338-.531-1.359-1.468.02-.938.474-1.443 1.36-1.516.895 0 1.343.312 1.343.937h-.656c0-.323-.193-.484-.578-.484-.542.02-.813.375-.813 1.063 0 .687.271 1.036.813 1.046.156 0 .338-.015.547-.047.01 0 .02-.005.03-.015v-.61ZM30.64 34.11h.626v1.812c-.032.719-.448 1.088-1.25 1.11-.823-.022-1.245-.391-1.266-1.11v-1.813h.625v1.578c-.042.646.172.954.64.922.448.032.657-.276.626-.922V34.11ZM33.969 34.938h-.594c-.02-.292-.177-.438-.469-.438-.302.02-.458.146-.468.375-.021.219.156.354.53.406.022.01.042.021.063.032.688.135 1.026.395 1.016.78-.021.605-.432.917-1.234.938-.76-.01-1.13-.328-1.11-.953h.625c0 .344.162.521.484.531.376-.01.568-.135.579-.375 0-.187-.183-.323-.547-.406a1.492 1.492 0 0 1-.11-.031c-.645-.136-.963-.401-.953-.797.032-.583.433-.901 1.203-.953.625.042.953.338.985.89ZM34.266 34.594v-.485h2.343v.485h-.859V37h-.625v-2.406h-.86Z" fill="#fff"/><defs><clipPath id="a"><path fill="#fff" d="M0 0h48v40H0z"/></clipPath></defs></svg>