<svg width="48" height="40" fill="none" xmlns="http://www.w3.org/2000/svg"><g clip-path="url(#a)"><path fill-rule="evenodd" clip-rule="evenodd" d="M0 38a2 2 0 0 0 2 2h44a2 2 0 0 0 2-2V2A2 2 0 0 0 46.15.005L46 0H2l-.15.005A2 2 0 0 0 0 2v36ZM27 2H2v25h25V2ZM2 29v9h13v-9H2Zm15 9h29v-9H17v9Zm29-11V2H29v25h17Z" fill="#505050"/></g><path fill="#3A6AF6" d="M2 29h13v9H2z"/><path fill-rule="evenodd" clip-rule="evenodd" d="M11.563 31.516v-.793h-.63l.11-.328H9.84l-.11.328H7.215l-.137-.328H5.875l.11.328h-.63v.793h6.207ZM9.183 32.8c.128.018.228-.046.301-.192l.082-.164h1.996v-.683H9.758l.027-.082h-.93l-.136.273c-.055.128-.146.182-.274.164h-.41v.684h1.149Zm-2.761-1.012v2.023h-.93V31.79h.93Zm1.367 2.023V31.79h-.848v2.023h.848Zm3.774 0H9.02c-.347.019-.547-.063-.602-.246l-.355-.656h1.093l.082.11c.019.109.1.154.246.136h2.079v.657Zm0 2.817v-.738h-.247v-1.832H5.52v1.832h-.192v.738h6.234Zm-5.141-.738h.793v-1.04h-.793v1.04Zm1.613 0v-1.04h.766v1.04h-.766Zm1.64 0h.794v-1.04h-.793v1.04Z" fill="#fff" stroke="#505050"/><path fill-rule="evenodd" clip-rule="evenodd" d="M11.563 31.516v-.793h-.63l.11-.328H9.84l-.11.328H7.215l-.137-.328H5.875l.11.328h-.63v.793h6.207ZM9.183 32.8c.128.018.228-.046.301-.192l.082-.164h1.996v-.683H9.758l.027-.082h-.93l-.136.273c-.055.128-.146.182-.274.164h-.41v.684h1.149Zm-2.761-1.012v2.023h-.93V31.79h.93Zm1.367 2.023V31.79h-.848v2.023h.848Zm3.774 0H9.02c-.347.019-.547-.063-.602-.246l-.355-.656h1.093l.082.11c.019.109.1.154.246.136h2.079v.657Zm0 2.817v-.738h-.247v-1.832H5.52v1.832h-.192v.738h6.234Zm-5.141-.738h.793v-1.04h-.793v1.04Zm1.613 0v-1.04h.766v1.04h-.766Zm1.64 0h.794v-1.04h-.793v1.04Z" fill="#fff"/><path fill="#CCC" d="M2 2h25v25H2z"/><path d="M13.583 4h9.848l-8.37 7.084h6.337l-6.616 5.795h3.291L5 26l4.61-6.508H7.1l4.178-6.405H8.825L13.583 4ZM29 2h17v25H29z" fill="#3A6AF6"/><path clip-rule="evenodd" d="M34.297 8.797V6.219h2.539v2.578h1.367V6.219h2.461v2.578h1.29V5.32h-3.712v-.39h3.75v-.938h-8.906v.938h3.71v.39h-3.71v3.477h1.21Zm5.312-1.29c.417 0 .638-.181.664-.546v-.508H39.22c-.052.182-.157.26-.313.234h-.468v.82h1.171Zm-3.086-.82v.782H35.43c-.47-.026-.716-.235-.742-.625v-.352h1.132c-.052.156.052.222.313.196h.39Zm2.774 2.149h1.055v-.899h-.274c-.286.027-.443-.039-.469-.195h-1.172v.508c-.052.417.235.612.86.586Zm-2.852-.664c0 .469-.247.69-.742.664h-1.055v-.899H35c.234.027.339-.039.313-.195h1.132v.43Zm4.57 4.61c.626 0 .938-.34.938-1.016V9.187h-8.867v3.594h7.93Zm-6.562-2.188h2.383v-.469h-2.383v.469Zm6.211 0h-2.46v-.469h2.46v.469Zm-6.172 1.289h2.305v-.43h-2.305v.43Zm6.055 0h-2.305v-.43h2.422v.313c0 .078-.039.117-.117.117Zm1.68 12.976h-4.375c-.05.004-.1.006-.146.006-.653.007-.943-.282-.87-.865v-.781h-3.633v-6.953h3.633v-.274h1.484v.274h3.672v5.898c.026.781-.26 1.133-.86 1.055H38.32v.39c0 .157.065.222.196.196h3.71v1.054Zm-1.72-5.742H38.32v-1.601h2.188v1.601Zm-5.82 0h2.149v-1.601h-2.148v1.601Zm2.149 2.852h-2.148v-1.602h2.148v1.602Zm1.484 0h2.032c.078 0 .13-.078.156-.235v-1.367H38.32v1.602Z" stroke="#505050"/><path fill-rule="evenodd" clip-rule="evenodd" d="M34.297 8.797V6.219h2.539v2.578h1.367V6.219h2.461v2.578h1.29V5.32h-3.712v-.39h3.75v-.938h-8.906v.938h3.71v.39h-3.71v3.477h1.21Zm5.312-1.29c.417 0 .638-.181.664-.546v-.508H39.22c-.052.182-.157.26-.313.234h-.468v.82h1.171Zm-3.086-.82v.782H35.43c-.47-.026-.716-.235-.742-.625v-.352h1.132c-.052.156.052.222.313.196h.39Zm2.774 2.149h1.055v-.899h-.274c-.286.027-.443-.039-.469-.195h-1.172v.508c-.052.417.235.612.86.586Zm-2.852-.664c0 .469-.247.69-.742.664h-1.055v-.899H35c.234.027.339-.039.313-.195h1.132v.43Zm4.57 4.61c.626 0 .938-.34.938-1.016V9.187h-8.867v3.594h7.93Zm-6.562-2.188h2.383v-.469h-2.383v.469Zm6.211 0h-2.46v-.469h2.46v.469Zm-6.172 1.289h2.305v-.43h-2.305v.43Zm6.055 0h-2.305v-.43h2.422v.313c0 .078-.039.117-.117.117Zm1.68 12.976h-4.375c-.05.004-.1.006-.146.006-.653.007-.943-.282-.87-.865v-.781h-3.633v-6.953h3.633v-.274h1.484v.274h3.672v5.898c.026.781-.26 1.133-.86 1.055H38.32v.39c0 .157.065.222.196.196h3.71v1.054Zm-1.72-5.742H38.32v-1.601h2.188v1.601Zm-5.82 0h2.149v-1.601h-2.148v1.601Zm2.149 2.852h-2.148v-1.602h2.148v1.602Zm1.484 0h2.032c.078 0 .13-.078.156-.235v-1.367H38.32v1.602Z" fill="#fff"/><path fill="#3A6AF6" d="M17 29h29v9H17z"/><path clip-rule="evenodd" d="M24.788 35c-.2.025-.463.038-.788.038-1.063-.05-1.606-.638-1.631-1.763.025-1.125.569-1.731 1.631-1.819 1.075 0 1.613.375 1.613 1.125h-.788c0-.387-.231-.581-.694-.581-.65.025-.975.45-.975 1.275s.325 1.244.975 1.256c.188 0 .407-.018.657-.056.012 0 .024-.006.037-.019v-.731h-.675v-.581h1.406v1.744c-.25.075-.506.112-.768.112Zm-4.032 0v-.581h-1.5V31.53h-.731V35h2.231Zm1.144 0v-3.469h-.75V35h.75Zm5.081 0v-1.519h1.331V35h.732v-3.469h-.75V32.9H26.98v-1.369h-.731V35h.731Zm4.219-2.888V35h-.75v-2.888h-1.031v-.58h2.812v.58H31.2ZM33.3 35v-2.869l.019-.019L34.669 35h1.069v-3.469h-.694v2.719l-.019.019-1.313-2.738h-1.106V35h.694Zm3.769-3.469V35h-.75v-3.469h.75ZM38.362 35v-2.869l.02-.019L39.731 35H40.8v-3.469h-.694v2.719l-.019.019-1.312-2.738h-1.106V35h.694Zm5.325 0c-.2.025-.462.038-.787.038-1.063-.05-1.606-.638-1.631-1.763.025-1.125.569-1.731 1.631-1.819 1.075 0 1.613.375 1.613 1.125h-.788c0-.387-.231-.581-.694-.581-.65.025-.975.45-.975 1.275s.325 1.244.975 1.256c.188 0 .407-.018.657-.056.012 0 .024-.006.037-.019v-.731h-.675v-.581h1.406v1.744c-.25.075-.506.112-.769.112Z" stroke="#505050"/><path fill-rule="evenodd" clip-rule="evenodd" d="M24.788 35c-.2.025-.463.038-.788.038-1.063-.05-1.606-.638-1.631-1.763.025-1.125.569-1.731 1.631-1.819 1.075 0 1.613.375 1.613 1.125h-.788c0-.387-.231-.581-.694-.581-.65.025-.975.45-.975 1.275s.325 1.244.975 1.256c.188 0 .407-.018.657-.056.012 0 .024-.006.037-.019v-.731h-.675v-.581h1.406v1.744c-.25.075-.506.112-.768.112Zm-4.032 0v-.581h-1.5V31.53h-.731V35h2.231Zm1.144 0v-3.469h-.75V35h.75Zm5.081 0v-1.519h1.331V35h.732v-3.469h-.75V32.9H26.98v-1.369h-.731V35h.731Zm4.219-2.888V35h-.75v-2.888h-1.031v-.58h2.812v.58H31.2ZM33.3 35v-2.869l.019-.019L34.669 35h1.069v-3.469h-.694v2.719l-.019.019-1.313-2.738h-1.106V35h.694Zm3.769-3.469V35h-.75v-3.469h.75ZM38.362 35v-2.869l.02-.019L39.731 35H40.8v-3.469h-.694v2.719l-.019.019-1.312-2.738h-1.106V35h.694Zm5.325 0c-.2.025-.462.038-.787.038-1.063-.05-1.606-.638-1.631-1.763.025-1.125.569-1.731 1.631-1.819 1.075 0 1.613.375 1.613 1.125h-.788c0-.387-.231-.581-.694-.581-.65.025-.975.45-.975 1.275s.325 1.244.975 1.256c.188 0 .407-.018.657-.056.012 0 .024-.006.037-.019v-.731h-.675v-.581h1.406v1.744c-.25.075-.506.112-.769.112Z" fill="#fff"/><defs><clipPath id="a"><path fill="#fff" d="M0 0h48v40H0z"/></clipPath></defs></svg>