<svg width="48" height="40" fill="none" xmlns="http://www.w3.org/2000/svg"><g clip-path="url(#a)"><path fill-rule="evenodd" clip-rule="evenodd" d="M0 38a2 2 0 0 0 2 2h44a2 2 0 0 0 2-2V2A2 2 0 0 0 46.15.005L46 0H2l-.15.005A2 2 0 0 0 0 2v36ZM27 2H2v25h25V2ZM2 29v9h13v-9H2Zm15 9h29v-9H17v9Zm29-11V2H29v25h17Z" fill="#505050"/></g><path fill="#FFFD54" d="M2 29h13v9H2z"/><path fill-rule="evenodd" clip-rule="evenodd" d="M7.625 36.273a.959.959 0 0 1-.663.329H5.547v-.711h1.121c.11 0 .219-.055.328-.164l.137-.164H5.629v-2.817h2.434v-.328H5.52v-.766h.683v-.328H5.52v-.738h.683v-.273h.957v.273h2.762v-.3h.93v.3h.765v.738h-.765v.328h.793v.766H9.047v.328h2.488v1.914c.091.693-.255.994-1.039.903h-.328l.11.136c0 .018.008.037.027.055.127.091.228.128.3.11h1.04v.683h-1.56c-.29-.037-.482-.11-.573-.219l-.63-.766h-.519l-.738.711Zm-.465-4.62h2.735v-.329H7.16v.328Zm.875 2.132h-1.45v-.3h1.45v.3Zm1.012 0h1.558v-.3H9.047v.3Zm1.504 1.067H9.074v-.329h1.559v.22c0 .072-.027.109-.082.109Zm-3.965 0h1.45v-.329h-1.45v.329Z" fill="#fff" stroke="#505050"/><path fill-rule="evenodd" clip-rule="evenodd" d="M7.545 36.273a.959.959 0 0 1-.662.329H5.467v-.711h1.121c.11 0 .22-.055.329-.164l.136-.164H5.55v-2.817h2.434v-.328H5.44v-.766h.684v-.328H5.44v-.738h.684v-.273h.957v.273h2.761v-.3h.93v.3h.766v.738h-.766v.328h.793v.766H8.967v.328h2.489v1.914c.09.693-.256.994-1.04.903h-.328l.11.136c0 .018.009.037.027.055.128.091.228.128.3.11h1.04v.683h-1.559c-.291-.037-.483-.11-.574-.219l-.629-.766h-.52l-.738.711Zm-.464-4.62h2.734v-.329H7.081v.328Zm.875 2.132h-1.45v-.3h1.45v.3Zm1.011 0h1.559v-.3H8.967v.3Zm1.504 1.067H8.995v-.329h1.558v.22c0 .072-.027.109-.082.109Zm-3.965 0h1.45v-.329h-1.45v.329Z" fill="#fff"/><path fill="#CCC" d="M2 2h25v25H2z"/><path fill-rule="evenodd" clip-rule="evenodd" d="M6 24.424h16v-9.5h2L14 3 4 14.924h2v9.5Z" fill="#FFFD54"/><path fill-rule="evenodd" clip-rule="evenodd" d="M19.56 17.546s-.096-1.093-.346-1.548c-.117-.211-.363-.811-1.574-1.327-.45-.191-1.762-.261-1.762-.261s-1.087.052-1.878.613c-.791.561-1.21 1.749-1.21 1.749s-.376 1.353-.294 2.373c.061.763.264 1.708.696 2.421.095.156.424.762 1.395 1.15.856.342 1.951.267 1.951.267s1.343-.117 2.144-.81c.802-.693.877-2.221.877-2.221H17.36s-.065.744-.234.997c-.073.11-.35.358-.74.453-.08.02-.442.164-.911-.122-.099-.06-.363-.284-.543-.823-.05-.148-.29-.672-.194-2.476.012-.222.13-1.043.58-1.627.075-.098.425-.33.88-.296.1.007.596.073.928.544.148.21.234.944.234.944h2.2Z" fill="#505050"/><path d="M15.995 22.807c2.12-.029 3.237-.917 3.352-2.664h-1.805c-.057.974-.573 1.475-1.547 1.504-.945-.029-1.446-.988-1.504-2.879.058-1.89.559-2.865 1.504-2.922.974.057 1.49.559 1.547 1.504h1.805c-.115-1.776-1.232-2.693-3.352-2.75-2.148.086-3.251 1.475-3.308 4.168.057 2.635 1.16 3.982 3.308 4.039Z" fill="#fff"/><path fill-rule="evenodd" clip-rule="evenodd" d="M12.4 16.6a2.2 2.2 0 1 1-4.4 0 2.2 2.2 0 0 1 4.4 0Zm-1.4.02a.8.8 0 1 1-1.6 0 .8.8 0 0 1 1.6 0Z" fill="#505050"/><path fill-rule="evenodd" clip-rule="evenodd" d="M8.2 16.621a2 2 0 1 1 4 0 2 2 0 0 1-4 0Zm3 0a1 1 0 1 0-2 0 1 1 0 0 0 2 0Z" fill="#fff"/><path fill="#FFFD54" d="M29 2h17v25H29z"/><path fill-rule="evenodd" clip-rule="evenodd" d="M41.992 4.383v1.094h-8.867V4.383h3.79V4.03h1.366v.352h3.711Zm-.078 2.812c.026.782-.273 1.146-.898 1.094h-7.657v-2.5h8.555v1.406Zm-1.797.04h-5.312v-.391h5.547V7c0 .182-.079.26-.235.234Zm-5.508 2.5v3.124h-1.484V8.641h8.945v3.007c.052.886-.208 1.277-.78 1.172h-1.056v-.976h.157c.156.026.234-.052.234-.235V9.734h-6.016Zm4.688 2.773c.65.026.95-.235.898-.781v-1.68H35v2.46h4.297Zm-2.813-1.016h1.914c.03.004.058.005.083.005.153-.003.23-.083.23-.24v-.234h-2.227v.47Zm-2.226 7.04h1.054v-1.134H35c-.104.053-.208-.078-.313-.39l-.351-1.094h-1.328l.508 1.797c.096.577.314.854.654.832a.644.644 0 0 0 .088-.012Zm7.383.39c.104 1.094-.26 1.562-1.094 1.406h-5v-4.414h6.094v3.008Zm-1.407-1.29h-3.32v-.546h3.32v.547Zm-3.32 1.641H40c.026.004.05.006.072.004.134-.006.201-.098.201-.277v-.313h-3.359v.586Zm-3.437 1.133c.104.73.494 1.029 1.171.899h.704V20.21h-.235c-.234.078-.377-.065-.43-.43l-.273-.86h-1.406l.469 1.485Zm8.32 3.282v1.132h-6.524v-1.133h.274v-2.89h6.094v2.89h.156Zm-7.93 1.093c.73.026 1.12-.234 1.172-.781l.43-2.305h-1.367l-.313 1.64c-.078.313-.182.457-.312.43h-.43v1.016h.82Zm2.852-1.093h.508v-1.836h-.508v1.835Zm2.07 0h-.469v-1.836h.47v1.835Zm1.172 0h.43v-1.836h-.43v1.835Z" fill="#fff" stroke="#505050"/><path fill-rule="evenodd" clip-rule="evenodd" d="M41.992 4.383v1.094h-8.867V4.383h3.79V4.03h1.366v.352h3.711Zm-.078 2.812c.026.782-.273 1.146-.898 1.094h-7.657v-2.5h8.555v1.406Zm-1.797.04h-5.312v-.391h5.547V7c0 .182-.079.26-.235.234Zm-5.508 2.5v3.124h-1.484V8.641h8.945v3.007c.052.886-.208 1.277-.78 1.172h-1.056v-.976h.157c.156.026.234-.052.234-.235V9.734h-6.016Zm4.688 2.773c.65.026.95-.235.898-.781v-1.68H35v2.46h4.297Zm-2.813-1.016h1.914c.03.004.058.005.083.005.153-.003.23-.083.23-.24v-.234h-2.227v.47Zm-2.226 7.04h1.054v-1.134H35c-.104.053-.208-.078-.313-.39l-.351-1.094h-1.328l.508 1.797c.096.577.314.854.654.832a.644.644 0 0 0 .088-.012Zm7.383.39c.104 1.094-.26 1.562-1.094 1.406h-5v-4.414h6.094v3.008Zm-1.407-1.29h-3.32v-.546h3.32v.547Zm-3.32 1.641H40c.026.004.05.006.072.004.134-.006.201-.098.201-.277v-.313h-3.359v.586Zm-3.437 1.133c.104.73.494 1.029 1.171.899h.704V20.21h-.235c-.234.078-.377-.065-.43-.43l-.273-.86h-1.406l.469 1.485Zm8.32 3.282v1.132h-6.524v-1.133h.274v-2.89h6.094v2.89h.156Zm-7.93 1.093c.73.026 1.12-.234 1.172-.781l.43-2.305h-1.367l-.313 1.64c-.078.313-.182.457-.312.43h-.43v1.016h.82Zm2.852-1.093h.508v-1.836h-.508v1.835Zm2.07 0h-.469v-1.836h.47v1.835Zm1.172 0h.43v-1.836h-.43v1.835Z" fill="#fff"/><path fill="#FFFD54" d="M17 29h29v9H17z"/><path fill-rule="evenodd" clip-rule="evenodd" d="M19.323 33.608V35h-.67v-3.18h.67v1.255h1.203V31.82h.687V35h-.67v-1.392h-1.22Zm4.623.86V35h-2.183v-3.18h2.131v.533h-1.443v.74h1.34v.532h-1.34v.842h1.495Zm.945.532.241-.67h1.255l.24.67h.688l-1.117-3.18h-.808L24.238 35h.653Zm.413-1.203h.91l-.429-1.358h-.017l-.464 1.358ZM29.034 35v-2.647h.945v-.533H27.4v.533h.945V35h.688Zm4.434-2.423L32.849 35h-.773l-.774-3.18h.705l.481 2.39.619-2.39h.773l.55 2.39h.018l.515-2.39h.636L34.791 35h-.756l-.567-2.423ZM36.355 35l.241-.67h1.255l.24.67h.688l-1.117-3.18h-.808L35.702 35h.654Zm.413-1.203h.91l-.429-1.358h-.017l-.464 1.358ZM40.773 35l1.168-3.18h-.67l-.825 2.51h-.017l-.825-2.51h-.74l1.17 3.18h.739Zm3.643-.533V35h-2.182v-3.18h2.13v.533h-1.443v.74h1.34v.532h-1.34v.842h1.495Z" fill="#fff" stroke="#505050"/><path fill-rule="evenodd" clip-rule="evenodd" d="M19.323 33.608V35h-.67v-3.18h.67v1.255h1.203V31.82h.687V35h-.67v-1.392h-1.22Zm4.623.86V35h-2.183v-3.18h2.131v.533h-1.443v.74h1.34v.532h-1.34v.842h1.495Zm.945.532.241-.67h1.255l.24.67h.688l-1.117-3.18h-.808L24.238 35h.653Zm.413-1.203h.91l-.429-1.358h-.017l-.464 1.358ZM29.034 35v-2.647h.945v-.533H27.4v.533h.945V35h.688Zm4.434-2.423L32.849 35h-.773l-.774-3.18h.705l.481 2.39.619-2.39h.773l.55 2.39h.018l.515-2.39h.636L34.791 35h-.756l-.567-2.423ZM36.355 35l.241-.67h1.255l.24.67h.688l-1.117-3.18h-.808L35.702 35h.654Zm.413-1.203h.91l-.429-1.358h-.017l-.464 1.358ZM40.773 35l1.168-3.18h-.67l-.825 2.51h-.017l-.825-2.51h-.74l1.17 3.18h.739Zm3.643-.533V35h-2.182v-3.18h2.13v.533h-1.443v.74h1.34v.532h-1.34v.842h1.495Z" fill="#fff"/><defs><clipPath id="a"><path fill="#fff" d="M0 0h48v40H0z"/></clipPath></defs></svg>