<svg width="60" height="60" viewBox="0 0 60 60" fill="none" xmlns="http://www.w3.org/2000/svg">
<path d="M50.0375 29.9603C49.2902 27.8236 48.1294 25.8544 46.6211 24.1648C45.8788 23.3368 45.065 22.5755 44.1893 21.8896C43.3195 21.2216 42.4018 20.6182 41.4436 20.0844C39.5534 19.0515 37.5321 18.2783 35.4345 17.7858C35.1678 17.727 34.9011 17.6761 34.65 17.6291C35.1442 15.5067 35.8267 13.2237 37.3486 11.7553C38.3881 10.7567 39.7962 10.0519 40.3806 8.66172C41.0514 7.01704 40.2316 5.07475 38.2351 5.57207C37.0693 5.91324 36.0568 6.64475 35.3678 7.64358C34.4536 9.00823 33.819 10.5401 33.5008 12.1508C33.1085 13.8738 32.7987 15.6164 32.4888 17.355C31.9553 17.308 31.4219 17.2767 30.8806 17.2689L29.1234 17.3198H29.0489L28.7468 17.3511C28.2957 17.2922 27.8594 17.1501 27.4603 16.9321C26.8602 16.5875 26.0639 15.9727 25.3147 16.2351C24.495 16.517 24.1772 17.6565 23.5379 18.2126C23.3127 18.4094 23.0727 18.5887 22.8201 18.7491C22.0965 19.0346 21.3882 19.3574 20.6981 19.7163C20.27 18.5473 20.0548 17.3113 20.0627 16.0667C20.1215 14.0304 21.1805 11.3676 19.9921 9.48797C19.3684 8.509 18.0309 8.14873 17.1209 8.86926C16.6966 9.22961 16.3849 9.70393 16.2226 10.2359C16.0176 10.8863 15.9287 11.5676 15.9598 12.2487C15.9598 12.5071 15.9873 12.7656 16.0148 13.0319C16.0422 13.2981 16.0775 13.6036 16.1246 13.8855C16.4124 15.4461 16.8851 16.9671 17.5327 18.4162C17.874 19.266 18.2662 20.1079 18.6585 20.942L18.2662 21.1965C17.9014 21.4589 17.5327 21.7251 17.1797 22.011C15.4706 23.4089 14.0025 25.077 12.8337 26.949C12.2013 27.8742 11.6564 28.8561 11.2059 29.882C10.7651 30.9207 10.4134 31.9949 10.1547 33.093C9.89224 34.1988 9.72947 35.3259 9.66834 36.4607C9.63696 37.052 9.63696 37.6433 9.63696 38.1876V38.3873C9.66834 38.8846 9.69972 39.3976 9.77425 39.9027C10.0931 42.1656 10.8456 44.346 11.9904 46.3248C14.2418 50.3347 18.0269 53.3734 22.1141 54.4855C22.1634 54.4934 22.2138 54.4934 22.2631 54.4855C22.351 54.4857 22.4378 54.4656 22.5167 54.4269C22.5956 54.3882 22.6645 54.3319 22.7181 54.2623C22.8111 54.1413 22.8522 53.9884 22.8324 53.8371C22.8125 53.6859 22.7333 53.5487 22.6122 53.4557C19.5172 51.1537 17.0825 48.0802 15.5519 44.5431C14.8558 42.8504 14.3761 41.0769 14.1242 39.2645C13.8437 37.4701 13.8252 35.6445 14.0693 33.8449C14.3499 32.0108 14.8708 30.2216 15.6186 28.5231C16.4658 26.8326 17.584 25.2916 18.9291 23.9611C21.6982 21.2233 25.3272 19.521 29.2057 19.1407C33.1028 18.7213 37.0169 19.7624 40.1884 22.0619C41.7141 23.1898 43.0297 24.5762 44.0755 26.1579C45.1047 27.6974 45.9078 29.3761 46.4603 31.1429C47.584 34.6876 47.584 38.4922 46.4603 42.0369C45.5935 44.7428 44.3383 46.9122 42.7301 48.4942C39.9296 51.2353 36.4033 51.2784 34.5559 51.0552C29.8726 50.4835 24.4008 44.7624 24.0321 37.4671C23.9027 34.8904 24.2988 33.0382 25.3147 31.464C25.6026 31.0293 25.9869 30.6668 26.438 30.4046C26.889 30.1425 27.3946 29.9877 27.9153 29.9524C28.4979 29.902 29.0842 29.9868 29.6286 30.2001C30.1729 30.4134 30.6605 30.7495 31.0532 31.182C32.0615 32.229 32.7499 33.5412 33.0379 34.9648C33.1872 35.6887 33.279 36.4233 33.3125 37.1616C33.3478 37.6041 33.3792 38.0427 33.4341 38.4813C33.4477 38.5847 33.4782 38.6852 33.5243 38.7789C33.5859 38.912 33.6786 39.0285 33.7946 39.1184C33.9107 39.2084 34.0466 39.2692 34.1911 39.2958C34.3263 39.3229 34.466 39.3171 34.5984 39.2789C34.7308 39.2407 34.8521 39.1713 34.952 39.0765L35.0383 38.9825C35.1639 38.822 35.3992 38.3912 35.8228 37.5806C36.5798 36.1905 37.8507 33.8605 38.6195 33.0578C38.7666 32.8731 38.9607 32.7313 39.1815 32.6473C39.4023 32.5632 39.6417 32.54 39.8746 32.58C40.2198 32.693 40.5319 32.8889 40.7835 33.1504C41.0352 33.4119 41.2187 33.731 41.3181 34.0798C41.5774 34.8471 41.6931 35.6555 41.6593 36.4646C41.5456 39.2527 40.4316 41.9468 38.1527 44.8798C37.7605 45.3693 36.5838 46.7477 35.8267 47.5857C35.5169 47.9382 35.7914 48.4002 36.2621 48.412C36.6259 48.3901 36.9794 48.2828 37.2937 48.0987C38.3253 47.5505 40.4826 45.4868 41.8907 42.311C42.7772 40.3139 44.099 36.4881 43.2008 33.3789C42.8086 31.9809 42.1026 31.0293 41.1416 30.5046C40.6829 30.2777 40.1827 30.1464 39.6715 30.1188C39.1604 30.0912 38.6489 30.1678 38.1684 30.344C36.5288 30.8766 35.5992 32.4195 34.7795 33.7822L34.4617 34.3069C33.9597 32.349 33.085 30.0582 30.9316 28.9147C29.7677 28.274 28.4718 27.9093 27.1441 27.8489C25.8164 27.7884 24.4925 28.0339 23.2751 28.5662C22.1584 29.0617 21.1711 29.8072 20.3895 30.745C19.608 31.6829 19.0532 32.7877 18.7683 33.9741C18.2113 36.2845 18.5525 38.6732 19.8038 41.242C21.8513 45.4672 25.2284 48.8192 29.8412 51.2158C31.4664 51.9566 33.1997 52.4338 34.9756 52.6294C39.1019 52.9818 42.9772 51.2158 44.4481 50.0175C44.9684 49.6035 45.4635 49.1589 45.9308 48.6861C47.4345 47.067 48.6461 45.2003 49.5119 43.1686C51.2954 38.9773 51.4823 34.2796 50.0375 29.9603Z" fill="#1677FF"/>
</svg>
