<svg width="255" height="60" viewBox="0 0 255 60" fill="none" xmlns="http://www.w3.org/2000/svg">
<g clip-path="url(#clip0_479_38200)">
<path d="M49.4586 29.9521C48.5438 27.3363 47.1227 24.9256 45.2762 22.8571C44.3675 21.8435 43.3713 20.9115 42.2991 20.0719C41.2344 19.2541 40.1109 18.5155 38.9379 17.8619C36.6238 16.5975 34.1493 15.6509 31.5815 15.0479C31.255 14.976 30.9284 14.9137 30.6211 14.8562C31.2262 12.2579 32.0617 9.46309 33.9248 7.66539C35.1973 6.44295 36.9211 5.58006 37.6366 3.87823C38.4577 1.86481 37.4541 -0.512944 35.01 0.0958764C33.5829 0.51353 32.3434 1.40905 31.4999 2.63183C30.3807 4.30244 29.6038 6.17774 29.2142 8.14957C28.734 10.2589 28.3547 12.3921 27.9753 14.5206C27.3223 14.4631 26.6692 14.4247 26.0066 14.4151L23.8554 14.4775H23.7641L23.3944 14.5158C22.8421 14.4437 22.308 14.2698 21.8194 14.0029C21.0847 13.581 20.11 12.8284 19.1928 13.1496C18.1892 13.4947 17.8003 14.8897 17.0176 15.5705C16.7419 15.8114 16.4481 16.0309 16.1389 16.2272C15.253 16.5767 14.3859 16.972 13.5411 17.4113C13.017 15.9802 12.7536 14.4671 12.7632 12.9434C12.8352 10.4506 14.1317 7.19079 12.6768 4.88974C11.9133 3.69127 10.2759 3.25024 9.16185 4.13231C8.6425 4.57345 8.26086 5.15412 8.06224 5.80537C7.81123 6.60156 7.70233 7.43559 7.74051 8.26941C7.74051 8.58581 7.77413 8.9022 7.80774 9.22819C7.84135 9.55417 7.88457 9.92809 7.94219 10.2732C8.29453 12.1838 8.87321 14.0457 9.66604 15.8197C10.0838 16.86 10.564 17.8907 11.0442 18.9118L10.564 19.2234C10.1174 19.5446 9.66604 19.8706 9.23388 20.2205C7.14155 21.9319 5.34427 23.9739 3.91347 26.2656C3.13932 27.3983 2.4722 28.6003 1.92072 29.8562C1.38104 31.1278 0.950535 32.4428 0.633839 33.7872C0.312516 35.1409 0.113245 36.5206 0.0384145 37.9099C0 38.6337 0 39.3576 0 40.024V40.2685C0.0384145 40.8773 0.0768289 41.5053 0.168063 42.1237C0.55846 44.8939 1.47957 47.5632 2.88108 49.9856C5.63732 54.8945 10.2711 58.6146 15.2746 59.976C15.335 59.9857 15.3966 59.9857 15.457 59.976C15.5646 59.9762 15.6709 59.9517 15.7675 59.9043C15.8641 59.8569 15.9484 59.788 16.014 59.7028C16.1279 59.5546 16.1782 59.3674 16.1539 59.1822C16.1296 58.9971 16.0326 58.8291 15.8844 58.7152C12.0955 55.8972 9.11487 52.1346 7.24113 47.8044C6.38887 45.7322 5.80163 43.5611 5.49327 41.3423C5.14992 39.1456 5.12728 36.9108 5.42604 34.7076C5.76959 32.4624 6.40729 30.272 7.32276 28.1927C8.35985 26.1231 9.7288 24.2366 11.3755 22.6079C14.7654 19.2562 19.2081 17.1722 23.9562 16.7066C28.727 16.1933 33.5187 17.4678 37.4013 20.2828C39.269 21.6636 40.8796 23.3608 42.1599 25.2972C43.4198 27.1819 44.403 29.2369 45.0794 31.3998C46.455 35.7392 46.455 40.3969 45.0794 44.7363C44.0182 48.0489 42.4816 50.7047 40.5129 52.6414C37.0844 55.9971 32.7675 56.0499 30.5059 55.7766C24.7725 55.0767 18.074 48.0729 17.6226 39.1419C17.4642 35.9875 17.9492 33.72 19.1928 31.7929C19.5452 31.2608 20.0157 30.817 20.5679 30.4961C21.1201 30.1751 21.739 29.9857 22.3764 29.9425C23.0896 29.8808 23.8075 29.9845 24.4739 30.2456C25.1402 30.5068 25.7371 30.9182 26.2179 31.4477C27.4522 32.7294 28.295 34.3358 28.6476 36.0786C28.8304 36.9648 28.9428 37.8641 28.9837 38.768C29.0269 39.3097 29.0653 39.8466 29.1326 40.3835C29.1493 40.5101 29.1866 40.6332 29.243 40.7478C29.3184 40.9108 29.4319 41.0534 29.574 41.1635C29.716 41.2736 29.8825 41.3481 30.0593 41.3806C30.2248 41.4138 30.3958 41.4067 30.5579 41.36C30.7201 41.3133 30.8686 41.2283 30.9909 41.1122L31.0965 40.9971C31.2502 40.8006 31.5383 40.2732 32.0569 39.2809C32.9836 37.5791 34.5394 34.7267 35.4806 33.744C35.6606 33.5179 35.8983 33.3444 36.1686 33.2415C36.4389 33.1386 36.732 33.1101 37.0171 33.1592C37.4397 33.2975 37.8217 33.5373 38.1298 33.8574C38.4379 34.1775 38.6626 34.5682 38.7842 34.9952C39.1017 35.9345 39.2433 36.9242 39.202 37.9147C39.0627 41.3279 37.699 44.6261 34.9091 48.2167C34.429 48.8159 32.9884 50.5034 32.0617 51.5292C31.6823 51.9607 32.0185 52.5264 32.5947 52.5407C33.04 52.514 33.4727 52.3826 33.8575 52.1572C35.1204 51.4861 37.7614 48.9597 39.4853 45.0719C40.5705 42.627 42.1887 37.9434 41.0891 34.1371C40.6089 32.4257 39.7446 31.2608 38.5681 30.6184C38.0066 30.3406 37.3943 30.1799 36.7685 30.1461C36.1427 30.1123 35.5166 30.2062 34.9284 30.4219C32.9212 31.0738 31.7832 32.9626 30.7796 34.6309L30.3906 35.2732C29.776 32.8763 28.7052 30.0719 26.069 28.6721C24.6442 27.8877 23.0577 27.4413 21.4323 27.3673C19.8069 27.2933 18.1863 27.5938 16.6959 28.2454C15.3289 28.852 14.1201 29.7647 13.1633 30.9128C12.2066 32.0608 11.5274 33.4135 11.1786 34.8658C10.4968 37.6941 10.9145 40.6184 12.4463 43.7632C14.9528 48.9358 19.0872 53.0393 24.7341 55.9732C26.7238 56.8801 28.8456 57.4643 31.0197 57.7037C36.0712 58.1352 40.8154 55.9731 42.616 54.5062C43.253 53.9994 43.8591 53.4551 44.4311 52.8763C46.272 50.8943 47.7552 48.609 48.8152 46.1218C50.9985 40.9907 51.2273 35.2398 49.4586 29.9521Z" fill="#1677FF"/>
<path d="M86.0868 16.8888H75.1243V19.2282H83.4026L82.8888 27.1956H78.6008L79.081 20.4842H76.6801L76.0126 29.535H86.2453C86.2164 32.5312 86.0676 34.3001 85.8035 35.0192C85.4289 36.0403 84.7711 37.186 82.2501 37.186H78.3271V39.5829H82.3606C85.4193 39.5829 87.2632 38.442 88.1612 35.9923C88.6894 34.5542 88.7614 31.3087 88.7614 28.2838V27.1956H85.4001L86.0868 16.8888Z" fill="black"/>
<path d="M109.001 23.3701L111.061 23.1064C111.028 20.6575 110.845 18.2129 110.514 15.7862L108.026 16.1457C108.026 16.1457 108.026 16.256 108.065 16.4238C108.51 18.7194 108.823 21.0386 109.001 23.3701Z" fill="black"/>
<path d="M83.5514 32.0422H74.8601V34.5158H72.3536V36.7114C72.3523 36.7792 72.3245 36.8439 72.276 36.8914C72.2275 36.9389 72.1623 36.9655 72.0943 36.9655H70.3513V32.7565H71.4989C71.8844 32.7843 72.2714 32.729 72.6336 32.5943C72.9958 32.4596 73.3247 32.2486 73.598 31.9758C73.8713 31.7029 74.0826 31.3746 74.2175 31.013C74.3524 30.6514 74.4078 30.265 74.38 29.8802V19.3097H70.3705V15.954H67.8591V19.3097H63.96V32.7565H67.8591V36.9607H63.9072V39.5829H72.8338C73.1091 39.6071 73.3864 39.5708 73.6462 39.4764C73.906 39.3821 74.1419 39.2321 74.3373 39.037C74.5328 38.8419 74.683 38.6063 74.7775 38.347C74.872 38.0877 74.9084 37.8108 74.8842 37.536V34.5494H83.5514V32.0422ZM70.3513 21.7641H71.8494V29.9521C71.8494 30.0449 71.8125 30.1339 71.7467 30.1995C71.681 30.2651 71.5919 30.302 71.4989 30.302H70.3513V21.7641ZM67.8399 30.302H66.4522V21.7641H67.8399V30.302Z" fill="black"/>
<path d="M111.594 32.4736C112.454 31.3436 113.215 30.1424 113.87 28.883C115.57 25.5849 115.724 22.0518 115.724 18.7248H113.102C113.102 21.7354 112.982 24.9041 111.546 27.6846C111.066 28.6089 110.52 29.4981 109.913 30.3452C109.308 29.4969 108.763 28.6079 108.281 27.6846C106.84 24.9041 106.73 21.7354 106.73 18.7248H104.108C104.108 21.908 104.247 25.5849 105.952 28.883C106.605 30.1423 107.365 31.3435 108.223 32.4736C106.637 34.2348 104.924 35.8786 103.1 37.3921V34.5158H100.588V36.7114C100.588 36.7448 100.582 36.7778 100.569 36.8086C100.556 36.8395 100.537 36.8675 100.514 36.8911C100.49 36.9147 100.462 36.9334 100.431 36.9461C100.4 36.9589 100.367 36.9655 100.334 36.9655H98.5859V32.7565H99.7383C100.122 32.7807 100.506 32.7227 100.865 32.5864C101.225 32.4501 101.551 32.2386 101.821 31.9662C102.092 31.6937 102.301 31.3666 102.434 31.0068C102.568 30.647 102.623 30.2629 102.595 29.8802V19.3097H98.5859V15.954H96.0745V19.3097H92.1947V32.7565H96.0937V36.9607H92.1418V39.5829H101.073C101.412 39.6082 101.751 39.5435 102.056 39.3953C102.362 39.2471 102.622 39.0207 102.811 38.7392L103.969 40.1151C106.075 38.3892 108.059 36.5182 109.904 34.5158C111.757 36.5172 113.748 38.3866 115.863 40.1103L117.548 38.1064C115.422 36.3835 113.432 34.5004 111.594 32.4736ZM98.5859 21.7641H100.084V29.9521C100.084 30.044 100.048 30.1323 99.9831 30.1978C99.9184 30.2633 99.8304 30.3008 99.7383 30.302H98.5859V21.7641ZM96.0745 30.302H94.6868V21.7641H96.0745V30.302Z" fill="black"/>
<path d="M161.394 23.5187L160.433 25.7718C163.2 27.3646 166.051 28.8049 168.976 30.0863L170.066 27.3442L169.734 27.2004C166.893 26.1162 164.109 24.8874 161.394 23.5187Z" fill="black"/>
<path d="M155.603 25.6568L154.685 23.4276H169.763V20.7862H163.458C164.875 18.6769 165.859 16.9176 165.912 16.8169L163.742 15.5993C163.742 15.5993 163.689 15.6951 163.602 15.839C163.314 16.4334 162.258 18.5283 160.865 20.7862H155.103L155.833 20.1918C153.797 17.6462 151.79 15.6184 151.694 15.5178L149.816 17.3538L150.013 17.5599C150.441 17.953 151.78 19.1899 153.298 20.7862H146.599V23.4276H154.618C151.838 24.837 148.988 26.1058 146.081 27.2292L145.74 27.3826L146.815 30.1343C149.821 28.7971 152.754 27.3026 155.603 25.6568Z" fill="black"/>
<path d="M191.856 31.1937C193.555 33.0164 195.355 34.7417 197.249 36.3614L199.169 34.1371L198.934 33.9357C198.483 33.5954 197.133 32.5647 195.549 31.1937H198.19V28.5522H194.348V20.4027H198.19V17.7852H194.348V15.5321H191.947V17.7852H182.113V15.5321H179.688V17.7852H175.53V20.4266H179.688V28.5762H175.53V31.2176H178.238C176.649 32.5887 175.304 33.6146 174.848 33.9597C174.709 34.0844 174.618 34.1563 174.613 34.1611L176.534 36.3854C178.429 34.7671 180.229 33.0417 181.926 31.2176H185.643V32.8188H180.471V35.2157H185.652V36.9463H176.049V39.5877H197.657V36.9415H188.053V35.2109H193.234V32.814H188.077V31.1937H191.856ZM182.113 23.9693H191.933V24.8466H182.113V23.9693ZM191.933 20.4266V21.5724H182.113V20.4266H191.933ZM182.113 27.2627H191.933V28.5522H182.113V27.2627Z" fill="black"/>
<path d="M221.152 26.1122V24.6021C222.799 25.8425 224.551 26.9396 226.386 27.8811L227.567 24.6308C223.285 23.0278 219.687 19.9986 217.383 16.0546H217.339H212.504C212.47 16.1217 208.831 22.6078 202.636 25.2828L204.106 28.1591C205.907 27.3662 207.575 26.3007 209.051 25V26.093H213.892V28.5762H205.196V31.2176H213.892V36.9223H212.686C210.602 34.3384 208.504 32.2147 208.398 32.1189L206.478 34.0364L206.684 34.2473C207.068 34.5973 208.168 35.6184 209.488 36.9703H202.843V39.6117H227.361V36.9415H221.186C222.487 34.9281 223.356 33.2886 223.409 33.1927L220.84 31.7066C220.84 31.7066 220.787 31.8073 220.705 31.9559C220.427 32.5647 219.443 34.6644 218.098 36.9415H216.312V31.2368H225.008V28.5954H216.312V26.1122H221.152ZM219.759 23.4899H210.665C212.039 22.0306 213.245 20.4227 214.261 18.696H215.649C216.75 20.5058 218.138 22.1248 219.759 23.4899Z" fill="black"/>
<path d="M167.3 31.8313V29.4343H148.635V36.9607H145.922V39.6021H170.464V36.9415H167.324L167.3 31.8313ZM164.875 36.9415H161.883V31.8313H164.875V36.9415ZM159.463 36.9415H156.472V31.8313H159.463V36.9415ZM151.055 31.8313H154.052V36.9415H151.055V31.8313Z" fill="black"/>
<path d="M135.512 30.1342L133.144 31.4286C134.196 33.3767 135.487 35.1867 136.986 36.8169H124.357C127.611 33.9342 130.129 30.3188 131.704 26.2704L129.178 25.3116C126.297 32.9194 119.767 36.9511 119.704 36.9894L120.4 39.4918H140.64L141.284 36.9607C141.236 36.9655 138.369 35.3403 135.512 30.1342Z" fill="black"/>
<path d="M248.566 32.0134L246.333 33.4803C247.115 34.6761 248.004 35.7992 248.988 36.836H238.002C239.895 35.3005 241.419 33.361 242.462 31.1601H252.546V28.5283H232.561V31.1601H239.442C236.561 35.9827 232.403 36.8121 232.206 36.8456L232.436 39.4822H252.676L253.295 36.9798C253.295 36.9798 251.043 35.7526 248.566 32.0134Z" fill="black"/>
<path d="M134.566 16.6874L132.006 17.6462C132.05 17.8811 133.188 23.5283 141.716 29.7028L143.368 26.6635C139.372 24.4472 136.264 20.9241 134.566 16.6874Z" fill="black"/>
<path d="M129.169 17.6126L126.484 16.7785C126.46 16.8504 123.714 23.7632 117.928 27.2339L119.767 29.8801C126.48 25.8341 129.058 17.9482 129.169 17.6126Z" fill="black"/>
<path d="M244.811 16.0307L244.734 16.0786H239.975C239.942 16.1458 236.302 22.6319 230.112 25.3068L231.582 28.1831C233.784 27.201 235.789 25.8267 237.497 24.1275V25.9828H247.61V23.8063C249.526 25.3775 251.608 26.7358 253.819 27.8572L255 24.6117C250.717 23.005 247.119 19.9748 244.811 16.0307ZM238.261 23.3413C239.582 21.9208 240.747 20.3636 241.737 18.6961H243.092C244.164 20.438 245.506 21.9993 247.068 23.3222L238.261 23.3413Z" fill="black"/>
<path d="M68.0224 45.2828C66.1078 49.3726 64.5121 53.6038 63.2494 57.9386C63.9929 58.0856 64.758 58.0856 65.5014 57.9386C65.9144 56.4717 66.5866 54.4871 66.5866 54.4871C67.5554 54.3735 68.5317 54.3383 69.5061 54.3816C70.4489 54.4141 71.3779 54.6172 72.248 54.9808C72.5361 55.1103 72.6849 55.2013 72.7618 55.4314C72.9154 55.9108 73.1891 56.8073 73.5157 57.9386C73.8885 58.0146 74.2683 58.0516 74.6489 58.0489C75.023 58.0541 75.3965 58.0188 75.7629 57.9434C74.5319 53.5979 72.9386 49.3629 70.9995 45.2828H68.0224ZM69.751 52.7756C68.8383 52.7716 67.9296 52.8975 67.0524 53.1496C67.8303 50.7526 69.1028 47.7996 69.3237 47.3058C69.3861 47.1668 69.4485 47.1237 69.5158 47.1237C69.583 47.1237 69.6406 47.1572 69.6982 47.2771C69.9335 47.7996 71.2012 50.7526 71.9503 52.977C71.2243 52.8476 70.4885 52.7802 69.751 52.7756Z" fill="black"/>
<path d="M176.183 45.2828C174.269 49.3726 172.673 53.6038 171.41 57.9386C171.784 58.0164 172.166 58.0534 172.548 58.0489C172.921 58.052 173.293 58.015 173.657 57.9386C174.075 56.4717 174.747 54.4871 174.747 54.4871C175.716 54.3735 176.692 54.3383 177.667 54.3816C178.61 54.4148 179.538 54.6178 180.409 54.9808C180.692 55.1103 180.846 55.2013 180.923 55.4314C181.076 55.9108 181.35 56.8073 181.672 57.9386C182.045 58.0142 182.424 58.0512 182.805 58.0489C183.179 58.0546 183.553 58.0192 183.919 57.9434C182.692 53.5973 181.1 49.3621 179.16 45.2828H176.183ZM177.907 52.7756C176.994 52.7723 176.086 52.8982 175.208 53.1496C175.991 50.7526 177.264 47.7996 177.48 47.3058C177.547 47.1668 177.609 47.1237 177.677 47.1237C177.744 47.1237 177.801 47.1572 177.854 47.2771C178.089 47.7996 179.362 50.7526 180.106 52.977C179.38 52.8469 178.645 52.7796 177.907 52.7756Z" fill="black"/>
<path d="M127.046 45.1102C125.748 45.1102 124.479 45.4947 123.399 46.215C122.319 46.9353 121.478 47.959 120.981 49.1567C120.485 50.3545 120.355 51.6723 120.609 52.9437C120.862 54.215 121.488 55.3827 122.406 56.299C123.325 57.2153 124.495 57.839 125.769 58.0913C127.042 58.3436 128.362 58.2132 129.562 57.7164C130.761 57.2197 131.786 56.379 132.506 55.3007C133.227 54.2224 133.611 52.955 133.61 51.6587C133.61 50.7983 133.44 49.9464 133.111 49.1516C132.781 48.3568 132.297 47.6347 131.687 47.0265C131.078 46.4184 130.354 45.9361 129.558 45.6073C128.761 45.2785 127.908 45.1096 127.046 45.1102ZM127.046 56.0211C126.182 56.0201 125.338 55.7635 124.62 55.2835C123.902 54.8036 123.343 54.122 123.013 53.3248C122.683 52.5275 122.597 51.6506 122.766 50.8046C122.935 49.9587 123.352 49.1819 123.963 48.5723C124.574 47.9626 125.353 47.5476 126.2 47.3797C127.048 47.2118 127.926 47.2984 128.724 47.6288C129.523 47.9591 130.205 48.5182 130.685 49.2355C131.165 49.9528 131.421 50.7961 131.421 51.6587C131.421 52.2319 131.308 52.7996 131.088 53.3292C130.868 53.8588 130.545 54.3399 130.139 54.745C129.733 55.1502 129.251 55.4714 128.72 55.6904C128.189 55.9093 127.62 56.0217 127.046 56.0211Z" fill="black"/>
<path d="M207.299 45.1102C206 45.1102 204.731 45.4947 203.652 46.215C202.572 46.9353 201.731 47.959 201.234 49.1567C200.737 50.3545 200.608 51.6723 200.861 52.9437C201.115 54.215 201.741 55.3827 202.659 56.299C203.577 57.2153 204.748 57.839 206.021 58.0913C207.295 58.3436 208.615 58.2132 209.814 57.7164C211.013 57.2197 212.038 56.379 212.759 55.3007C213.48 54.2224 213.864 52.955 213.863 51.6586C213.862 49.9215 213.169 48.2559 211.939 47.0279C210.708 45.8 209.039 45.1102 207.299 45.1102ZM207.299 56.0211C206.435 56.0211 205.59 55.7652 204.871 55.2859C204.153 54.8065 203.593 54.1252 203.262 53.3281C202.931 52.5309 202.845 51.6538 203.013 50.8076C203.182 49.9614 203.598 49.184 204.209 48.574C204.82 47.9639 205.599 47.5484 206.446 47.3801C207.294 47.2117 208.173 47.2981 208.971 47.6283C209.769 47.9585 210.452 48.5176 210.932 49.235C211.412 49.9524 211.668 50.7958 211.668 51.6586C211.669 52.2317 211.557 52.7993 211.337 53.3288C211.118 53.8584 210.796 54.3395 210.39 54.7447C209.984 55.15 209.502 55.4713 208.972 55.6903C208.441 55.9093 207.873 56.0217 207.299 56.0211Z" fill="black"/>
<path d="M144.054 45.3499V52.8379C144.054 54.8658 142.854 56.1505 140.866 56.1505C138.878 56.1505 137.677 54.8658 137.677 52.8379V45.3499C136.949 45.2029 136.198 45.2029 135.469 45.3499V52.9099C135.469 56.5963 137.836 58.2119 140.866 58.2119C143.896 58.2119 146.263 56.5963 146.263 52.9099V45.3499C145.534 45.2029 144.783 45.2029 144.054 45.3499Z" fill="black"/>
<path d="M164.63 45.2061H160.899V58.0489H164.63C168.644 58.0489 170.949 55.7095 170.949 51.6299C170.949 47.5503 168.644 45.2061 164.63 45.2061ZM164.534 55.7095H163.036V47.5599H164.534C167.156 47.5599 168.784 49.1227 168.784 51.6443C168.784 54.1658 167.156 55.7095 164.534 55.7095Z" fill="black"/>
<path d="M85.9908 45.3164V54.4679C84.0543 51.2709 81.8962 48.2129 79.5324 45.3164C79.1742 45.2399 78.8087 45.2029 78.4424 45.2061C78.0777 45.204 77.7139 45.2409 77.3572 45.3164V57.9386C77.7123 58.0143 78.0745 58.0513 78.4376 58.0489C78.8006 58.0509 79.1628 58.0139 79.518 57.9386V48.1591C81.8277 51.3375 83.9981 54.6117 85.9476 57.9386C86.6733 58.0856 87.4212 58.0856 88.1468 57.9386V45.3164C87.7919 45.2398 87.4295 45.2029 87.0664 45.2061C86.705 45.2045 86.3444 45.2415 85.9908 45.3164Z" fill="black"/>
<path d="M156.817 45.3164V54.4679C154.879 51.2719 152.721 48.2141 150.359 45.3164C150.001 45.2399 149.635 45.2029 149.269 45.2061C148.904 45.204 148.541 45.2409 148.184 45.3164V57.9386C148.539 58.0143 148.901 58.0513 149.264 58.0489C149.627 58.0509 149.99 58.0139 150.345 57.9386V48.1591C152.659 51.3375 154.83 54.6117 156.779 57.9386C157.505 58.0856 158.253 58.0856 158.978 57.9386V45.3164C158.623 45.2398 158.261 45.2029 157.898 45.2061C157.535 45.2042 157.173 45.2411 156.817 45.3164Z" fill="black"/>
<path d="M225.478 45.2061C225.115 45.2042 224.753 45.2411 224.398 45.3164V54.4679C222.46 51.2719 220.302 48.2141 217.94 45.3164C217.581 45.2399 217.216 45.2029 216.85 45.2061C216.485 45.204 216.121 45.2409 215.764 45.3164V57.9386C216.119 58.0143 216.482 58.0513 216.845 58.0489C217.208 58.0509 217.57 58.0139 217.925 57.9386V48.1591C220.24 51.3375 222.41 54.6117 224.36 57.9386C225.085 58.0856 225.833 58.0856 226.559 57.9386V45.3164C226.204 45.2398 225.842 45.2029 225.478 45.2061Z" fill="black"/>
<path d="M90.0339 47.3634H94.6196V57.9386C95.0053 58.0152 95.3979 58.0522 95.7912 58.0489C96.186 58.0507 96.5801 58.0138 96.9677 57.9386V47.3634H101.553V45.326H90.0291L90.0339 47.3634Z" fill="black"/>
<path d="M183.684 47.3634H188.269V57.9386C188.657 58.0146 189.051 58.0515 189.446 58.0489C189.841 58.0507 190.235 58.0138 190.622 57.9386V47.3634H195.203V45.326H183.679L183.684 47.3634Z" fill="black"/>
<path d="M196.509 45.4363V57.9387C196.897 58.0146 197.291 58.0515 197.686 58.0489C198.08 58.0507 198.474 58.0138 198.862 57.9387V45.4363C198.475 45.3603 198.08 45.3234 197.686 45.326C197.291 45.3242 196.897 45.3611 196.509 45.4363Z" fill="black"/>
<path d="M109.265 47.3634V57.9386C109.651 58.0152 110.043 58.0522 110.437 58.0489C110.832 58.0507 111.226 58.0138 111.613 57.9386V52.6654H118.393V50.628H111.613V47.3634H119.032V45.326H109.265V47.3634Z" fill="black"/>
</g>
<defs>
<clipPath id="clip0_479_38200">
<rect width="255" height="60" fill="white"/>
</clipPath>
</defs>
</svg>
