<svg width="60" height="60" viewBox="0 0 60 60" fill="none" xmlns="http://www.w3.org/2000/svg">
<g clip-path="url(#clip0_477_38025)">
<path d="M33.0721 17.2074C32.8599 17.1585 32.6648 17.0523 32.5073 16.9002C32.3499 16.7481 32.2359 16.5557 32.1775 16.3433C32.0579 15.8931 32.0511 15.4197 32.1579 14.9662C32.5756 12.6129 32.9516 10.2522 33.4948 7.9188C33.9346 6.0287 34.5515 4.15354 35.6869 2.56477C36.5027 1.42174 37.6848 0.440587 39.0536 0.0944428C41.3907 -0.498236 42.3639 1.8152 41.5505 3.77752C40.8673 5.43353 39.2085 6.26776 37.992 7.46308C35.7655 9.63956 35.0676 13.3152 34.4261 16.2487C34.4016 16.4028 34.3468 16.5504 34.2649 16.6827C34.183 16.8149 34.0757 16.9291 33.9494 17.0186C33.8231 17.108 33.6804 17.1708 33.5297 17.2032C33.3789 17.2357 33.2233 17.2371 33.0721 17.2074Z" fill="url(#paint0_linear_477_38025)"/>
<path d="M28.7616 14.2067C27.9382 14.2133 27.1259 14.0131 26.3975 13.6239C25.6897 13.2131 24.7534 12.4809 23.8761 12.7922C22.9128 13.1309 22.5392 14.4881 21.7897 15.153C20.7379 16.0843 19.4575 16.5948 18.273 17.3095C17.241 17.9229 16.2553 18.613 15.324 19.3739C11.5751 22.4672 8.90482 26.6979 7.70572 31.4437C6.50662 36.1895 6.84203 41.2 8.66263 45.7383C10.4832 50.2765 13.6929 54.103 17.8196 56.655C21.9464 59.2069 26.7723 60.3497 31.5878 59.9151C43.1552 58.919 52.1964 49.0353 52.2775 37.2962C52.3192 31.3589 50.0857 25.6368 46.0474 21.3347C42.009 17.0326 36.4809 14.4862 30.6269 14.2316C30.0027 14.2067 29.3662 14.2316 28.7616 14.2067Z" fill="url(#paint1_linear_477_38025)"/>
<path d="M13.1983 5.6427C13.384 5.02294 13.7373 4.46826 14.2181 4.04147C14.6719 3.66943 15.2516 3.49281 15.8326 3.54963C16.4136 3.60645 16.9493 3.89217 17.3244 4.34528C19.1749 6.5865 17.7742 10.0181 17.7004 12.598C17.6365 14.7719 18.359 17.0157 19.2216 18.9356C19.3912 19.3092 19.6713 19.6827 19.7131 20.1135C19.7685 20.4236 19.7244 20.7434 19.5873 21.0262C19.4502 21.309 19.2273 21.5398 18.9513 21.6849C18.042 22.1481 17.4522 21.1669 17.0787 20.4671C16.2143 18.827 15.4334 17.143 14.7391 15.4219C13.9781 13.6836 13.4246 11.8594 13.0901 9.98818C13.0336 9.64951 12.9894 9.31083 12.9574 8.96967C12.9255 8.62851 12.9058 8.35209 12.8935 8.0433C12.8552 7.23117 12.9584 6.41856 13.1983 5.6427Z" fill="url(#paint2_linear_477_38025)"/>
<path d="M50.636 34.161C49.9061 25.5995 43.1603 18.6767 35.5862 18.6767C28.0122 18.6767 22.5196 25.5971 23.2397 34.1162C23.9597 42.6353 30.6564 49.5682 38.2133 49.603C45.7701 49.6379 51.3659 42.725 50.636 34.161ZM46.6868 43.873C45.745 44.954 44.5943 45.8275 43.3058 46.4396C42.0174 47.0518 40.6187 47.3894 39.1963 47.4315C35.9524 47.5336 32.765 46.1989 30.2067 43.6787C27.6251 41.1127 26.0166 37.7082 25.6628 34.0614C25.2745 30.1642 26.3755 26.4263 28.6978 23.7991C29.6417 22.7157 30.7956 21.8409 32.0877 21.2291C33.3797 20.6173 34.7823 20.2816 36.208 20.243C36.321 20.243 36.4341 20.243 36.5471 20.243C39.7419 20.243 42.8678 21.6475 45.3597 24.1926C47.8625 26.7656 49.4112 30.1357 49.7439 33.7327C50.0978 37.5702 48.9796 41.2682 46.6868 43.868V43.873Z" fill="white"/>
</g>
<defs>
<linearGradient id="paint0_linear_477_38025" x1="31.5976" y1="16.4653" x2="40.4328" y2="0.0693655" gradientUnits="userSpaceOnUse">
<stop stop-color="#0066FF"/>
<stop offset="0.2" stop-color="#1677FF"/>
<stop offset="1" stop-color="#04A6FF"/>
</linearGradient>
<linearGradient id="paint1_linear_477_38025" x1="8.03745" y1="44.0373" x2="50.7171" y2="28.7093" gradientUnits="userSpaceOnUse">
<stop stop-color="#0066FF"/>
<stop offset="0.2" stop-color="#1677FF"/>
<stop offset="1" stop-color="#04A6FF"/>
</linearGradient>
<linearGradient id="paint2_linear_477_38025" x1="19.1749" y1="21.655" x2="14.3286" y2="3.80709" gradientUnits="userSpaceOnUse">
<stop stop-color="#0066FF"/>
<stop offset="0.2" stop-color="#1677FF"/>
<stop offset="1" stop-color="#04A6FF"/>
</linearGradient>
<clipPath id="clip0_477_38025">
<rect width="60" height="60" fill="white"/>
</clipPath>
</defs>
</svg>
