<svg width="99" height="47" viewBox="0 0 99 47" fill="none" xmlns="http://www.w3.org/2000/svg">
<path d="M61.6345 30.8624C61.6345 30.6277 61.6345 30.393 61.6345 30.1583C61.6345 28.7501 61.6345 27.2949 61.6345 25.8866C61.6345 25.558 61.7283 25.5111 62.0569 25.4641C63.7938 25.3703 65.4367 24.9478 66.8919 24.0089C69.1921 22.6007 70.5534 20.4883 71.0697 17.8596C71.633 14.9492 71.0697 12.2735 69.239 9.87949C67.8777 8.09571 66.047 7.06299 63.8407 6.54663C62.2447 6.1711 60.6487 6.26498 59.0057 6.26498C58.818 6.26498 58.771 6.35886 58.771 6.49968C58.771 6.54663 58.771 6.64052 58.771 6.68746C58.771 15.7003 58.771 24.7131 58.771 33.6789C58.771 35.3688 59.2874 36.9179 60.1323 38.3262C60.1323 38.3731 60.1793 38.42 60.2262 38.5139H45.909C46.0968 38.0445 46.2845 37.5751 46.4723 37.1057C46.9417 35.9321 47.1295 34.6647 47.1295 33.4442C47.1295 24.3375 47.1295 15.1839 47.1295 6.07721C47.1295 4.19954 46.6601 2.50965 45.4396 1.1014C45.4396 1.1014 45.4396 1.05445 45.3457 0.960571C45.4865 0.960571 45.6274 0.960571 45.7682 0.960571C52.1992 0.960571 58.6302 0.960571 65.0612 0.960571C67.6899 0.960571 70.2717 1.28917 72.7127 2.228C76.7027 3.73014 79.707 6.35886 81.4439 10.302C82.2888 12.2735 82.7113 14.3859 82.5705 16.4983C82.2419 21.568 79.8948 25.4641 75.5761 28.1398C73.4638 29.4542 71.1636 30.1583 68.7227 30.5338C66.7042 30.8624 64.6857 30.7685 62.6202 30.7685C62.2916 30.7685 61.9631 30.7685 61.5406 30.7685L61.6345 30.8624Z" fill="#0E3774"/>
<path d="M26.7097 25.5109C24.832 20.4882 23.0013 15.5124 21.1706 10.4427C20.9828 10.959 20.842 11.3346 20.6542 11.757C19.2929 15.4654 17.9316 19.1738 16.5234 22.8822C15.2559 26.262 13.9885 29.6418 12.768 33.0216C12.4864 33.8196 12.2047 34.5707 12.017 35.4156C11.7822 36.3545 11.97 37.2933 12.3925 38.1852C12.4394 38.2791 12.4864 38.4199 12.5333 38.5607H3.00415C3.05109 38.4669 3.09803 38.373 3.14498 38.2791C4.60017 36.0259 5.58594 33.538 6.47783 31.0501C8.16773 26.4498 9.85764 21.8026 11.5945 17.2023C13.3313 12.5081 15.0212 7.86088 16.7581 3.16671C16.9458 2.65036 16.9928 2.22787 16.5703 1.85234C16.2886 1.61763 16.1009 1.28904 15.8662 0.960449C16.0539 0.960449 16.1478 0.960449 16.2886 0.960449C20.6542 0.960449 25.0198 0.960449 29.4323 0.960449C29.667 0.960449 29.8078 1.00739 29.9017 1.28904C31.5447 5.7485 33.1876 10.208 34.8306 14.6674C36.3797 18.8452 37.9288 22.9761 39.4309 27.1539C40.3228 29.5479 41.1677 31.942 42.1066 34.336C42.6699 35.8381 43.4679 37.2933 44.5006 38.6077H29.9017C29.9956 38.1852 30.1364 37.7627 30.2303 37.3403C30.4181 36.3075 30.2303 35.3218 29.9487 34.336C29.5731 33.2563 29.1976 32.2236 28.8221 31.1439C28.7282 30.9092 28.5874 30.9092 28.3996 30.9092C26.6158 30.9092 24.832 30.9092 23.0482 30.9092C20.842 30.9092 18.6357 30.9092 16.4295 30.9092C16.3356 30.9092 16.2417 30.9092 16.0539 30.9092C16.2417 30.4398 16.3825 30.0173 16.5234 29.5949C16.9928 28.3274 17.4622 27.107 17.8847 25.8395C17.9785 25.6048 18.0724 25.5579 18.3071 25.5579C20.9828 25.5579 23.6585 25.5579 26.2872 25.5579C26.3811 25.5579 26.5219 25.5579 26.6628 25.5579L26.7097 25.5109Z" fill="#0E3774"/>
<path d="M99 41.6543V46.9587H0C0.187767 46.3954 0.375533 45.926 0.5633 45.4096C0.985775 44.283 1.40825 43.1095 1.83073 41.9829C1.92461 41.7951 2.01849 41.7012 2.20626 41.7012C2.48791 41.7012 2.72262 41.7012 3.00427 41.7012C34.643 41.7012 66.3286 41.7012 97.9673 41.7012H98.9531L99 41.6543Z" fill="#BD1D21"/>
<path d="M98.7653 38.6077H83.0398C83.1337 38.5138 83.1806 38.4199 83.2276 38.326C84.3072 37.0117 84.8236 35.4626 84.8236 33.7727C84.8236 24.4313 84.8236 15.1368 84.8236 5.79544C84.8236 4.05859 84.3542 2.41564 83.1337 1.05433C83.1337 1.05433 83.1337 1.00739 83.0867 0.960449H98.6714C98.6714 1.00739 98.6244 1.05433 98.5775 1.10128C97.6387 2.08705 97.2162 3.30753 97.0284 4.62189C96.9345 5.27908 96.9345 5.98321 96.9345 6.6404C96.9345 15.5593 96.9345 24.4313 96.9345 33.3502C96.9345 34.0543 97.0284 34.8054 97.1692 35.5095C97.357 36.4953 97.8264 37.3872 98.4367 38.1852C98.5306 38.326 98.6244 38.4199 98.7653 38.6077Z" fill="#0E3774"/>
</svg>
