<svg width="137" height="46" viewBox="0 0 137 46" fill="none" xmlns="http://www.w3.org/2000/svg">
<path d="M56.7458 30.5382C55.8183 30.5382 55.061 30.838 54.4707 31.4407C53.8803 32.0434 53.585 32.8818 53.585 33.9475C53.585 34.91 53.8361 35.7327 54.3381 36.4174C54.84 37.102 55.6368 37.4412 56.7352 37.4412C57.4156 37.4412 58.004 37.2612 58.4907 36.8923C58.9773 36.5234 59.3136 35.964 59.5089 35.2141L58.6286 34.9872C58.4973 35.5549 58.2671 35.9819 57.9391 36.2643C57.6111 36.5467 57.1858 36.6865 56.661 36.6865C56.0202 36.6865 55.4999 36.4634 55.1018 36.011C54.7036 35.5586 54.5025 34.866 54.5025 33.9369C54.5025 33.1323 54.6916 32.4889 55.0699 32.0107C55.4483 31.5325 56.0029 31.2929 56.7352 31.2929C57.1837 31.2929 57.5605 31.4127 57.8595 31.6465C58.1585 31.8803 58.3813 32.2269 58.5278 32.6915L59.3975 32.4909C59.2114 31.8533 58.8855 31.3653 58.4217 31.0343C57.9579 30.7034 57.3988 30.5382 56.7458 30.5382V30.5382ZM60.6439 30.6543V37.3304H61.5348V34.185H65.0192V37.3304H65.9155V30.6543H65.0192V33.3934H61.5348V30.6543H60.6439ZM67.5595 30.6543V37.3304H68.4505V30.6543H67.5595V30.6543ZM70.0415 30.6543V37.3304H70.8848V32.0898H70.9007L74.4063 37.3304H75.3185V30.6543H74.4699V35.8949H74.454L70.9484 30.6543H70.0415H70.0415ZM78.702 30.6543L76.1245 37.3304H77.0633L77.8057 35.2985H80.6059L81.3962 37.3304H82.3985L79.6566 30.6543H78.702V30.6543ZM88.6088 30.6543V37.3304H92.8038V36.5387H89.4945V30.6543H88.6088V30.6543ZM94.5434 30.6543V37.3304H95.4343V30.6543H94.5434V30.6543ZM97.2852 30.6543V37.3304H98.1709V34.3064H101.326V33.5147H98.1709V31.446H101.809V30.6543H97.2852V30.6543ZM103.13 30.6543V37.3304H108.141V36.5387H104.015V34.28H107.728V33.4884H104.015V31.446H107.988V30.6543H103.13V30.6543ZM79.1528 31.351H79.174C79.2594 31.6789 79.3372 31.9415 79.4074 32.1373C79.4775 32.3332 79.7863 33.1514 80.3355 34.5966H78.055L78.8081 32.5965C78.9515 32.2139 79.0674 31.8003 79.1528 31.351Z" fill="black"/>
<path d="M60.2801 28.0712C59.8861 27.8426 59.7457 27.0152 59.7238 24.7917L59.7058 22.957L58.222 22.959C56.367 22.9614 55.9954 23.0644 55.072 23.8321C54.2384 24.5252 53.9471 24.54 53.495 23.9124C53.1934 23.4937 53.1947 23.4314 53.5297 22.1753C53.7689 21.2783 53.8819 20.2757 53.8924 18.9566C53.9061 17.2229 53.8654 16.962 53.4648 16.2131C53.0154 15.3731 53.0065 14.8752 53.4344 14.5218C53.613 14.3743 53.9411 14.4137 54.7684 14.6819C56.0573 15.0998 58.0897 15.3053 58.833 15.0929C59.3218 14.9531 59.3603 14.8805 59.4109 14.0016C59.48 12.8002 59.7877 12.4479 60.7677 12.4479C61.8726 12.4479 62.1171 12.7993 62.2781 14.6192C62.324 15.1389 62.3273 15.1404 63.5461 15.1889C64.2181 15.2156 65.3964 15.1661 66.1644 15.0788C67.7523 14.8983 68.124 15.0295 68.7032 15.9748C69.1858 16.7625 69.1295 17.303 68.4472 18.4305C67.6319 19.7778 67.4878 20.6802 68.001 21.2239C68.4603 21.7104 68.3791 22.3122 67.777 22.8841C67.4102 23.2326 67.2799 23.2472 65.6408 23.1251C64.6807 23.0536 63.5417 22.9865 63.1097 22.976L62.3242 22.957L62.3135 25.1521C62.3009 27.7274 62.1 28.2587 61.1419 28.2497C60.8321 28.2468 60.4443 28.1665 60.2801 28.0712L60.2801 28.0712ZM59.0824 20.0975C59.5888 19.8278 59.8649 18.9869 59.607 18.4999C59.2953 17.9112 59.1195 17.8383 58.0038 17.8354C56.7348 17.832 56.2545 18.2205 56.3356 19.1848C56.3756 19.6608 56.4998 19.8777 56.8256 20.0409C57.344 20.3005 58.6401 20.333 59.0824 20.0975V20.0975ZM65.5545 20.0028C65.8442 19.6554 65.8667 18.4223 65.5884 18.1454C65.4649 18.0225 64.8126 17.8995 64.1078 17.8661C62.5409 17.792 62.2381 17.9772 62.1867 19.0411C62.1547 19.7048 62.2095 19.8412 62.586 20.0349C63.2136 20.3578 65.277 20.3355 65.5545 20.0028V20.0028ZM125.788 27.2693C125.252 26.897 125.296 26.5783 125.927 26.2534C126.906 25.7494 127.42 24.4078 126.961 23.5535C126.796 23.2469 126.575 23.2175 124.429 23.2175H122.079V22.6096C122.079 22.2752 122.041 22.0016 121.995 22.0016C121.949 22.0016 121.34 22.5764 120.642 23.279C118.706 25.2282 116.967 25.7352 115.583 24.7541C115.154 24.4506 115.097 24.2991 115.097 23.4765C115.097 22.9632 115.176 22.4944 115.273 22.4348C115.37 22.3752 115.655 22.4878 115.907 22.6851C116.509 23.1558 116.952 23.1377 118.337 22.5861C119.48 22.1307 120.683 21.2065 120.683 20.7835C120.683 20.4841 118.637 20.672 117.598 21.0668C116.878 21.3402 116.818 21.339 116.491 21.0439C116.067 20.6626 116.056 20.2953 116.453 19.8072C116.993 19.1449 117.575 18.9643 119.459 18.8749C121.083 18.7979 121.297 18.7507 121.353 18.4572C121.413 18.1457 121.324 18.1323 119.836 18.2283C118.425 18.3192 118.208 18.2926 117.809 17.9805L117.362 17.6309L117.725 17.1238C118.084 16.6225 118.107 16.6168 119.803 16.6168C121.076 16.6168 121.541 16.5567 121.608 16.3839C121.827 15.8157 121.462 15.7131 119.44 15.7736L117.453 15.8331L117.397 15.1462C117.314 14.1365 117.589 14.0113 119.887 14.0107L121.817 14.0102L122.166 13.3593C122.423 12.8808 122.646 12.6936 123.007 12.6524C123.663 12.5775 124.348 13.0425 124.348 13.5628V13.9749L127.821 14.0365C130.968 14.0923 131.329 14.1298 131.67 14.4366C131.931 14.6716 132.03 14.9371 131.994 15.3051L131.942 15.8351H128.241C125.541 15.8351 124.483 15.893 124.326 16.0494C124.207 16.1672 124.17 16.3235 124.243 16.3968C124.317 16.47 125.804 16.5504 127.548 16.5754C131.301 16.6292 131.505 16.6611 131.505 17.1933C131.505 17.9621 131.289 18.0064 127.549 18.0064C124.273 18.0064 123.999 18.0304 123.837 18.331C123.741 18.5095 123.712 18.7049 123.773 18.7653C123.833 18.8256 125.625 18.875 127.754 18.875C130.657 18.875 131.837 18.8111 132.477 18.6194C133.009 18.4604 133.393 18.4254 133.494 18.5268C133.709 18.7403 133.162 19.9503 132.623 20.4539C132.251 20.802 132.089 20.8275 130.81 20.7403C129.533 20.6532 129.388 20.6759 129.22 20.9892C129.118 21.1788 129.082 21.4565 129.139 21.6062C129.228 21.837 129.498 21.8634 130.909 21.7796C132.763 21.6696 132.94 21.7665 132.557 22.6847C132.279 23.3539 131.597 23.6061 130.256 23.536L129.149 23.4781L129.052 24.7809C128.999 25.4974 128.861 26.2541 128.747 26.4624C128.201 27.4539 126.66 27.8743 125.788 27.2693V27.2693V27.2693ZM125.309 21.5314L127.141 21.5743V21.101C127.141 20.6959 127.052 20.611 126.518 20.5114C126.175 20.4474 125.267 20.4312 124.5 20.4754C123.39 20.5393 123.031 20.6294 122.742 20.9168C122.242 21.4145 122.428 21.8855 123.034 21.6562C123.278 21.5639 124.302 21.5078 125.309 21.5314ZM74.305 26.9377C72.9811 26.3662 72.8563 25.9917 73.4359 24.3304C73.7484 23.4348 73.7983 22.8297 73.8282 19.5697C73.847 17.5157 73.7944 15.3638 73.7113 14.7879C73.5932 13.9697 73.6124 13.7 73.799 13.555C73.9608 13.4293 74.7147 13.4127 76.1327 13.5034C80.1092 13.7579 85.651 13.6247 87.9668 13.2189C88.7739 13.0775 89.2215 13.4105 89.5093 14.3662C89.6619 14.8731 89.6374 15.4744 89.3955 17.1606C89.1415 18.9314 89.1083 19.9229 89.2065 22.7997C89.3005 25.5533 89.2782 26.3286 89.1006 26.472C88.9476 26.5955 87.9803 26.6067 86.0825 26.507C84.5464 26.4263 81.7892 26.3566 79.9553 26.3522C76.7264 26.3445 76.5952 26.3579 75.8003 26.7785C75.3489 27.0173 74.9641 27.2097 74.9452 27.2059C74.9263 27.2022 74.6382 27.0815 74.305 26.9377V26.9377ZM87.2467 23.8255C86.1396 23.8255 87.4494 15.7361 87.2599 15.5476C87.1632 15.4513 85.0179 15.3731 82.1368 15.3608C77.8549 15.3426 77.1058 15.3784 76.634 15.6244C76.3336 15.781 76.0377 16.0389 75.9766 16.1976C75.9154 16.3563 75.8153 18.1399 75.7542 20.1611C75.6725 22.8644 75.6983 23.9387 75.8517 24.2241L76.0604 24.612L81.5923 24.5662L87.1241 24.5203L87.2468 23.8255H87.2467V23.8255ZM76.432 23.9027C76.0424 23.749 76.0398 23.7318 76.3221 23.1774C76.8847 22.0723 77.0199 22.0016 78.5687 22.0016C79.4417 22.0016 80.0713 21.9212 80.1999 21.7932C80.5034 21.4912 80.4595 20.6683 80.1333 20.5437C79.6726 20.3678 78.2225 20.4257 78.0191 20.6281C77.8811 20.7655 77.7043 20.7372 77.3801 20.5257C76.827 20.1652 76.6626 19.6976 76.9203 19.2184C77.0983 18.8874 77.2524 18.8573 78.6005 18.8895C79.7851 18.9179 80.1433 18.8667 80.375 18.6362C80.601 18.4113 80.6221 18.2807 80.4705 18.0466C80.3076 17.7953 80.0545 17.7551 78.9303 17.8021C77.5151 17.8612 76.9147 17.6158 76.9209 16.9807C76.928 16.2412 77.0519 16.2196 81.0813 16.2556C83.4929 16.2772 85.0594 16.2222 85.2729 16.1085C85.5345 15.9692 85.697 15.9971 85.9723 16.2285C86.2668 16.476 86.3073 16.6386 86.1987 17.1379L86.0665 17.7458L84.5698 17.6843C82.8733 17.6144 82.2769 17.8103 82.3626 18.409C82.4124 18.7572 82.5234 18.7903 83.726 18.8158C84.446 18.831 85.1333 18.8505 85.2534 18.8592C85.5966 18.8839 85.5082 19.6566 85.1224 20.004C84.6406 20.438 84.6852 20.612 85.2783 20.612C85.9092 20.612 86.0997 21.0354 85.7249 21.6046C85.448 22.0251 85.4495 22.0269 86.0264 21.9709C86.5504 21.9202 86.6117 21.9625 86.6632 22.4111C86.6946 22.6841 86.6306 23.1229 86.521 23.3861L86.3218 23.8648L82.5364 23.8452C80.4545 23.8343 78.319 23.8783 77.791 23.9428C77.263 24.0073 76.6514 23.9892 76.432 23.9027V23.9027ZM83.8879 21.5439C84.3824 20.9182 84.3423 20.6598 83.7299 20.526C82.7405 20.3097 82.1498 20.8172 82.4168 21.6542C82.5843 22.1794 83.436 22.1156 83.8879 21.5439V21.5439ZM121.24 26.3423C120.73 26.0307 120.668 25.9136 120.716 25.3417C120.766 24.7344 120.803 24.6977 121.294 24.7524C122.443 24.8805 123.523 24.7897 123.919 24.5316C124.481 24.1653 124.697 24.1895 124.697 24.6186C124.697 25.2034 124.387 25.6127 123.603 26.0612C122.506 26.689 121.921 26.7586 121.24 26.3423V26.3423ZM108.056 25.3972C107.184 25.0877 105.796 24.1394 104.723 23.1191C103.632 22.0828 101.893 20.9594 101.38 20.9594C101.163 20.9594 100.392 21.354 99.6677 21.8364C97.9732 22.9642 95.9068 23.9123 95.1434 23.9123C94.0747 23.9123 93.101 22.8071 93.101 21.594C93.101 21.126 93.2359 20.8775 93.719 20.4554C94.3121 19.9372 94.3574 19.926 94.845 20.1769C95.5521 20.5407 96.0076 20.5034 97.1158 19.9908C98.5698 19.3183 99.4102 18.3919 99.8925 16.9299C100.082 16.3561 100.062 16.2146 99.7079 15.6022C99.2064 14.7351 99.4348 14.3586 100.462 14.3586C102.248 14.3586 103.54 16.1624 102.771 17.5824C102.523 18.0408 102.49 18.2575 102.633 18.4867C102.966 19.0214 104.508 20.0834 105.481 20.4481C107.607 21.2454 110.884 21.2427 112.247 20.4424C113.174 19.8983 113.307 20.1525 112.929 21.7472C112.58 23.2188 111.965 24.1624 110.756 25.0798C109.919 25.7156 109.194 25.8009 108.056 25.3973V25.3972V25.3972Z" fill="black"/>
<path d="M22.6935 13.3588C22.6935 7.52603 27.4443 2.79904 33.3046 2.79904C39.1654 2.79904 43.9162 7.52603 43.9162 13.3588C43.9162 19.1904 39.1654 23.9186 33.3046 23.9186C27.4443 23.9186 22.6935 19.1904 22.6935 13.3588Z" fill="url(#paint0_radial_223_23675)"/>
<path d="M23.5131 43.2009C34.4661 43.2009 43.365 34.4768 43.5912 23.6316H34.0757C33.853 29.2467 29.2103 33.7314 23.5131 33.7314C17.6743 33.7314 12.9397 29.0217 12.9397 23.2108C12.9397 17.5766 17.3908 12.9768 22.9839 12.7028V3.23389C12.1345 3.51479 3.42415 12.3471 3.42415 23.2108C3.42415 34.2512 12.4185 43.2009 23.5131 43.2009" fill="#00A86D"/>
<defs>
<radialGradient id="paint0_radial_223_23675" cx="0" cy="0" r="1" gradientUnits="userSpaceOnUse" gradientTransform="translate(31.94 17.4757) rotate(59.9433) scale(20.2143 17.9344)">
<stop stop-color="#F7F7F8"/>
<stop offset="0.343404" stop-color="#B9B9BA"/>
<stop offset="0.686807" stop-color="#7B7B7C"/>
<stop offset="1"/>
</radialGradient>
</defs>
</svg>
