<svg width="46" height="46" viewBox="0 0 46 46" fill="none" xmlns="http://www.w3.org/2000/svg">
<g clip-path="url(#clip0_338_13210)">
<path d="M33.6847 14.2348C34.8351 12.1406 34.628 9.95469 33.0171 7.6767C30.6237 5.74371 28.2078 5.3758 25.8148 6.50334L22.9614 9.26469L19.97 6.61834C18.0599 5.42162 15.8278 5.65207 13.2969 7.30879C11.1797 9.5176 10.8347 11.796 12.2614 14.1661L15.0915 12.3023C14.7694 11.4739 14.8844 10.7606 15.4136 10.0701C15.897 9.37969 16.8403 9.24178 18.2437 9.70178L20.2688 11.5198L18.2208 13.7286L20.6596 16.2137L22.9838 13.9815L25.216 16.1907L28.0007 13.5673L25.7456 11.6114L27.3794 9.72424C28.6678 9.03379 29.6116 9.03379 30.21 9.72424C30.9691 10.3455 31.1533 11.1968 30.6704 12.2785L22.8697 20.3325L15.092 12.3014L12.2385 14.1652L20.4534 22.8405L12.1698 31.5846C10.8581 33.6096 11.0881 35.9339 12.929 38.5111C15.4374 40.4441 17.7383 40.6512 19.9013 39.1323L22.8926 36.486L25.7232 39.0632C28.3924 40.467 30.8083 40.1215 32.9255 38.0277L30.21 36.2789C29.2666 36.716 28.2999 36.6473 27.2873 36.0718L25.6077 34.1851L27.8628 32.2292L25.1014 29.6062L22.8464 31.815L20.5455 29.5829L18.0833 32.0679L20.1776 34.2767L18.1296 36.0947C16.8179 36.7852 15.8745 36.8081 15.2303 36.2326C14.4711 35.5885 14.3557 34.6446 14.977 33.4713L22.7547 25.4177L30.6241 33.3792C31.2917 34.5759 31.1075 35.5422 30.21 36.2785L32.9255 38.0273C34.6743 36.2785 34.8814 34.0921 33.593 31.5154L25.4469 22.9326L33.6847 14.2348Z" fill="#E50017"/>
<path d="M34.8351 20.3555L32.1196 17.6633L29.5424 20.3788L32.2579 23.0018L29.7958 25.5102L32.1659 28.2716L34.9501 25.5102L37.6656 23.0018L37.6194 22.9331C38.1486 21.8284 39.0461 21.2534 40.2886 21.1843C41.6003 21.3226 42.2674 21.9434 42.3137 22.9331C42.3829 23.8998 41.7153 24.5206 40.2886 24.7969C39.069 24.5669 38.1715 23.9456 37.6423 23.0018L34.9268 25.5102C36.8368 27.5353 38.5856 28.5474 40.1045 28.5016C43.2337 28.3637 45.1209 27.029 45.7188 24.4056C46.4092 22.1276 45.8338 20.1717 43.9013 18.5379C41.6004 16.9499 39.1382 16.9499 36.5606 18.515L34.8351 20.3555ZM16.5187 20.2634L13.9186 17.5478L11.2031 20.2171L9.45426 18.3991C6.87709 16.8574 4.41492 16.8574 2.11402 18.422C0.203945 20.0334 -0.417325 22.0122 0.272675 24.2906C0.893945 26.9136 2.78066 28.2482 5.91037 28.3866L5.72619 24.659C4.29947 24.3827 3.63193 23.7614 3.70111 22.7952C3.74693 21.8055 4.39156 21.1843 5.72619 21.0464C6.94582 21.1155 7.77418 21.7368 8.11918 22.8643L8.16545 22.9564C7.82 23.8077 6.99164 24.4061 5.72619 24.6361L5.91037 28.3637C7.45209 28.3866 9.17799 27.397 11.1339 25.3723L13.9181 28.1337L16.2882 25.3723L13.8031 22.8873L16.5187 20.2634Z" fill="#E50017"/>
</g>
<defs>
<clipPath id="clip0_338_13210">
<rect width="46" height="46" fill="white"/>
</clipPath>
</defs>
</svg>
