<svg width="46" height="46" viewBox="0 0 46 46" fill="none" xmlns="http://www.w3.org/2000/svg">
<path d="M43.8475 28.039C40.0662 22.9221 34.4069 17.7013 32.8588 16.3506C31.793 15.4156 30.6509 15 29.5851 15C28.5192 15 27.4533 15.4935 26.5397 16.2727C26.3875 16.4286 26.1337 16.6883 25.8038 16.9481C23.5705 18.8961 16.617 25.4416 16.4393 25.6234C15.9571 26.1169 15.1958 26.4545 14.4598 26.4545C13.8 26.4545 13.0641 26.1169 12.3281 25.4416C11.8459 24.9481 9.46039 23 6.66882 19.8052C4.94312 17.8831 3.54733 16.1169 3.54733 16.1169C3.54733 16.1169 3.21742 16.7922 3.06515 17.2078C2.91288 17.6234 3.06515 17.8052 3.14129 17.961C4.05489 19.3117 8.31838 24.5065 14.1299 29.6494C15.1958 30.5844 16.3378 31 17.4037 31C18.4696 31 19.5354 30.5065 20.449 29.7273C20.6013 29.5714 20.9312 29.3117 21.185 29.0519C23.3929 27.1299 27.6564 23.1818 29.6358 21.2338C30.0419 20.8182 30.3718 20.5584 30.5494 20.4026C31.0316 19.9091 31.793 19.5714 32.5289 19.5714C33.1887 19.5714 33.9247 19.9091 34.6607 20.5844C35.9042 21.6753 37.9344 23.5974 40.3199 26.1169C42.0456 28.039 43.4414 29.8052 43.4414 29.8052C43.4414 29.8052 43.7713 29.1299 43.9236 28.6364C44.1012 28.3766 43.9236 28.1429 43.8475 28.039Z" fill="#95C122"/>
<path d="M21.578 9.56792C19.5975 10.9393 11.5488 18.2702 10 20.0406C10 20.0406 11.1426 21.2624 12.7929 22.6089C13.1992 23.0078 13.7832 22.933 14.1894 22.4592C17.3124 19.3923 23.6346 13.9066 24.4471 13.2583C26.8338 11.2386 29.6267 11.089 32.1657 12.9341C38.3356 17.4473 43.8199 24.6286 44.7339 26C44.7339 26 44.8863 25.3517 44.9878 24.7782C44.9878 24.7782 45.064 24.2047 44.8355 23.7309C38.9957 15.5024 32.8513 10.4157 30.4646 9.14403C27.9002 7.79755 24.701 7.29885 21.578 9.56792Z" fill="#0E84C7"/>
<path d="M15.2628 5.30695C11.383 8.49381 6.30163 13.2488 5 14.6399C5 14.6399 5.97622 15.8792 7.42804 17.3462C7.75344 17.5991 8.00376 17.4979 8.32916 17.2703C12.209 13.5017 16.4143 9.58138 18.8423 7.68445C22.9725 4.49759 27.7534 4.16879 32.5344 7.93737C34.3116 9.32846 35.8636 10.7195 38.1164 13.097C41.02 16.2839 42.8974 18.9902 45 22C45 22 45 21.1906 44.7497 20.1284C44.7497 19.9766 44.6746 19.6478 44.4994 19.3949C44.0989 18.5855 42.2215 15.3987 39.5682 12.2877C34.3116 6.06573 30.9825 4.19408 28.8048 3.05592C26.0513 1.56366 20.5444 1.13369 15.2628 5.30695Z" fill="#0E84C7"/>
<path d="M25.4472 36.4861C27.4233 35.1185 35.4546 27.8079 37 26.0424C37 26.0424 35.8599 24.824 34.2131 23.4812C33.8078 23.0834 33.2251 23.158 32.8197 23.6304C29.6275 26.6143 23.319 32.0849 22.5083 32.7065C20.1268 34.7207 17.3399 34.8699 14.8064 33.0298C8.64997 28.529 3.17758 21.3676 2.26551 20C2.26551 20 2.1135 20.6465 2.01216 21.2184C2.01216 21.2184 1.93616 21.7904 2.16417 22.2628C7.99126 30.4686 14.1224 35.5412 16.5039 36.8094C19.2147 38.2516 22.331 38.6495 25.4472 36.4861Z" fill="#0E84C7"/>
<path d="M31.6928 40.6396C35.5799 37.4581 40.6959 32.7112 42 31.3224C42 31.3224 41.0219 30.0852 39.5674 28.6207C39.2414 28.3682 38.9906 28.4692 38.7649 28.6964C34.8777 32.4587 30.6646 36.3724 28.232 38.2408C24.094 41.4223 19.3041 41.7505 14.5141 37.9883C12.7335 36.5996 11.1787 35.2109 8.92163 32.8374C5.96238 29.7064 4.10658 27.0047 2 24C2 24 2 24.7322 2.25078 25.8685C2.32602 26.02 2.32602 26.3482 2.50157 26.6007C2.90282 27.4087 4.7837 30.5902 7.44201 33.7969C12.7085 40.0083 16.0439 41.8768 18.2257 43.013C20.9843 44.4018 26.5768 44.8815 31.6928 40.6396Z" fill="#0E84C7"/>
</svg>
