<svg width="180" height="46" viewBox="0 0 180 46" fill="none" xmlns="http://www.w3.org/2000/svg">
<path fill-rule="evenodd" clip-rule="evenodd" d="M9.17634 23.7711C12.3936 26.8949 20.1876 30.8386 21.9934 31.7311C22.0141 31.7415 22.1075 31.7726 22.1698 31.7C22.1698 31.7 22.2424 31.6377 22.2009 31.5443C17.2402 20.7614 10.4632 12.5834 10.4632 12.5834C10.4632 12.5834 6.76861 16.0705 7.03844 19.5679C7.17336 22.204 9.17634 23.7711 9.17634 23.7711Z" fill="url(#paint0_radial_354_13983)"/>
<path fill-rule="evenodd" clip-rule="evenodd" d="M20.9555 34.3775C20.9244 34.2634 20.7895 34.2634 20.7895 34.2634L7.81681 34.7096C9.22824 37.2108 11.5945 39.1515 14.0645 38.5495C15.7665 38.124 19.6271 35.4465 20.8933 34.5436C20.9971 34.4502 20.9555 34.3775 20.9555 34.3775Z" fill="url(#paint1_radial_354_13983)"/>
<path fill-rule="evenodd" clip-rule="evenodd" d="M8.8131 32.769C10.0585 33.2775 11.2935 33.3087 11.2935 33.3087C11.4907 33.3398 19.0044 33.3087 21.0178 33.2983C21.1008 33.2983 21.1527 33.2153 21.1527 33.2153C21.215 33.1115 21.1008 33.0181 21.1008 33.0181C15.4136 29.1885 4.37125 23.3145 4.37125 23.3145C3.36457 26.4072 4.72411 28.898 4.72411 28.898C6.12516 31.8661 8.8131 32.769 8.8131 32.769Z" fill="url(#paint2_radial_354_13983)"/>
<path fill-rule="evenodd" clip-rule="evenodd" d="M42.3657 34.7096L29.3826 34.2634C29.3826 34.2634 29.2684 34.2737 29.2373 34.3671C29.2373 34.3671 29.2062 34.4813 29.2892 34.5436C30.5346 35.4257 34.2915 38.0514 36.1076 38.5599C36.1076 38.5599 39.4598 39.6911 42.3657 34.7096Z" fill="url(#paint3_radial_354_13983)"/>
<path fill-rule="evenodd" clip-rule="evenodd" d="M28.0127 31.4924C28.0127 31.4924 27.9504 31.617 28.0438 31.7C28.0438 31.7 28.1372 31.7623 28.2202 31.7104C30.0779 30.7867 37.8096 26.8741 41.0165 23.7711C41.0165 23.7711 43.0402 22.1521 43.1544 19.5472C43.3827 15.9252 39.7296 12.5834 39.7296 12.5834C39.7296 12.5834 32.9734 20.7303 28.0127 31.4924Z" fill="url(#paint4_radial_354_13983)"/>
<path fill-rule="evenodd" clip-rule="evenodd" d="M26.2069 30.5274C26.2173 30.6415 26.3107 30.6727 26.3107 30.6727C26.4352 30.7245 26.4975 30.6 26.4975 30.6C27.7429 28.8046 33.3471 20.5332 34.4886 15.4894C34.4886 15.4894 35.1113 13.0506 34.5094 11.39C34.5094 11.39 33.6584 8.23509 30.2232 7.40484C30.2232 7.40484 29.2373 7.15576 28.1787 7.01045C28.1787 7.00009 24.3388 11.9297 26.2069 30.5274Z" fill="url(#paint5_radial_354_13983)"/>
<path fill-rule="evenodd" clip-rule="evenodd" d="M23.6954 30.6207C23.7784 30.7037 23.851 30.6726 23.851 30.6726C23.986 30.631 23.9756 30.5065 23.9756 30.5065C25.8437 11.9192 22.0141 7 22.0141 7C21.4537 7.05189 19.9281 7.39437 19.9281 7.39437C16.4929 8.27651 15.6834 11.3796 15.6834 11.3796C15.0608 13.3307 15.7042 15.4789 15.7042 15.4789C16.8458 20.5435 22.4811 28.8668 23.6954 30.6207Z" fill="url(#paint6_radial_354_13983)"/>
<path fill-rule="evenodd" clip-rule="evenodd" d="M45.8216 23.2937C45.8216 23.2937 34.8 29.1885 29.1024 33.018C29.1024 33.018 28.9986 33.0803 29.0401 33.2048C29.0401 33.2048 29.092 33.2982 29.175 33.2982C31.2195 33.2982 38.9409 33.3086 39.1381 33.2775C39.1381 33.2775 40.1344 33.236 41.3694 32.769C41.3694 32.769 44.1196 31.8972 45.5414 28.7941C45.531 28.7837 46.8075 26.2515 45.8216 23.2937Z" fill="url(#paint7_radial_354_13983)"/>
<path fill-rule="evenodd" clip-rule="evenodd" d="M67.6936 23.3616H58.2111V15H54V35.6919H58.2111V27.3H67.6936V35.6919H71.8744V15H67.6936V23.3616Z" fill="black"/>
<path fill-rule="evenodd" clip-rule="evenodd" d="M91.3544 26.8456C91.3544 30.2084 89.6882 31.9958 86.6586 31.9958C83.5988 31.9958 81.9325 30.1478 81.9325 26.6941V15H77.7214V26.8456C77.7214 32.6623 80.9631 35.9948 86.598 35.9948C92.2936 35.9948 95.5655 32.6017 95.5655 26.6638V15H91.3544V26.8456Z" fill="black"/>
<path fill-rule="evenodd" clip-rule="evenodd" d="M139.888 29.2389L135.192 15H131.769L127.073 29.2389L122.498 15H118.015L125.225 35.6919H128.709L133.405 22.1195L138.131 35.6919H141.645L148.825 15H144.463L139.888 29.2389Z" fill="black"/>
<path fill-rule="evenodd" clip-rule="evenodd" d="M156.369 26.785H164.003V23.0283H156.369V18.7869H167.457V15H152.218V35.6919H167.851V31.9049H156.369V26.785Z" fill="black"/>
<path d="M177 15H172.85V35.6616H177V15Z" fill="black"/>
<path d="M110.471 15H106.805L97.6862 35.6919H101.958L103.715 31.6929L103.836 31.3899H113.319L115.167 35.6919H119.56L110.532 15.1212L110.471 15ZM111.743 27.6332H105.381L105.593 27.1485L108.562 20.2108L111.562 27.1485L111.743 27.6332Z" fill="black"/>
<defs>
<radialGradient id="paint0_radial_354_13983" cx="0" cy="0" r="1" gradientUnits="userSpaceOnUse" gradientTransform="translate(2362.79 -122.92) scale(3040.8 3040.8)">
<stop stop-color="#F7BFA4"/>
<stop offset="0.0113075" stop-color="#F7BB9F"/>
<stop offset="0.427" stop-color="#E60012"/>
<stop offset="0.6628" stop-color="#E50012"/>
<stop offset="0.7574" stop-color="#E10011"/>
<stop offset="0.8268" stop-color="#DA0010"/>
<stop offset="0.8838" stop-color="#CF000E"/>
<stop offset="0.9331" stop-color="#C00009"/>
<stop offset="0.9765" stop-color="#AE0003"/>
<stop offset="1" stop-color="#A00000"/>
</radialGradient>
<radialGradient id="paint1_radial_354_13983" cx="0" cy="0" r="1" gradientUnits="userSpaceOnUse" gradientTransform="translate(768.436 -2305.78) scale(3047.37 3047.37)">
<stop stop-color="#F7BFA4"/>
<stop offset="0.0113075" stop-color="#F7BB9F"/>
<stop offset="0.427" stop-color="#E60012"/>
<stop offset="0.6628" stop-color="#E50012"/>
<stop offset="0.7574" stop-color="#E10011"/>
<stop offset="0.8268" stop-color="#DA0010"/>
<stop offset="0.8838" stop-color="#CF000E"/>
<stop offset="0.9331" stop-color="#C00009"/>
<stop offset="0.9765" stop-color="#AE0003"/>
<stop offset="1" stop-color="#A00000"/>
</radialGradient>
<radialGradient id="paint2_radial_354_13983" cx="0" cy="0" r="1" gradientUnits="userSpaceOnUse" gradientTransform="translate(1555.04 -1222.21) scale(3046.66 3046.65)">
<stop stop-color="#F7BFA4"/>
<stop offset="0.0113075" stop-color="#F7BB9F"/>
<stop offset="0.427" stop-color="#E60012"/>
<stop offset="0.6628" stop-color="#E50012"/>
<stop offset="0.7574" stop-color="#E10011"/>
<stop offset="0.8268" stop-color="#DA0010"/>
<stop offset="0.8838" stop-color="#CF000E"/>
<stop offset="0.9331" stop-color="#C00009"/>
<stop offset="0.9765" stop-color="#AE0003"/>
<stop offset="1" stop-color="#A00000"/>
</radialGradient>
<radialGradient id="paint3_radial_354_13983" cx="0" cy="0" r="1" gradientUnits="userSpaceOnUse" gradientTransform="translate(59.201 -2307.26) scale(3050.47 3050.47)">
<stop stop-color="#F7BFA4"/>
<stop offset="0.0113075" stop-color="#F7BB9F"/>
<stop offset="0.427" stop-color="#E60012"/>
<stop offset="0.6628" stop-color="#E50012"/>
<stop offset="0.7574" stop-color="#E10011"/>
<stop offset="0.8268" stop-color="#DA0010"/>
<stop offset="0.8838" stop-color="#CF000E"/>
<stop offset="0.9331" stop-color="#C00009"/>
<stop offset="0.9765" stop-color="#AE0003"/>
<stop offset="1" stop-color="#A00000"/>
</radialGradient>
<radialGradient id="paint4_radial_354_13983" cx="0" cy="0" r="1" gradientUnits="userSpaceOnUse" gradientTransform="translate(290.253 -124.992) scale(3045.31 3045.31)">
<stop stop-color="#F7BFA4"/>
<stop offset="0.0113075" stop-color="#F7BB9F"/>
<stop offset="0.427" stop-color="#E60012"/>
<stop offset="0.6628" stop-color="#E50012"/>
<stop offset="0.7574" stop-color="#E10011"/>
<stop offset="0.8268" stop-color="#DA0010"/>
<stop offset="0.8838" stop-color="#CF000E"/>
<stop offset="0.9331" stop-color="#C00009"/>
<stop offset="0.9765" stop-color="#AE0003"/>
<stop offset="1" stop-color="#A00000"/>
</radialGradient>
<radialGradient id="paint5_radial_354_13983" cx="0" cy="0" r="1" gradientUnits="userSpaceOnUse" gradientTransform="translate(517.921 154.455) scale(3047.09 3047.09)">
<stop stop-color="#F7BFA4"/>
<stop offset="0.0113075" stop-color="#F7BB9F"/>
<stop offset="0.427" stop-color="#E60012"/>
<stop offset="0.6628" stop-color="#E50012"/>
<stop offset="0.7574" stop-color="#E10011"/>
<stop offset="0.8268" stop-color="#DA0010"/>
<stop offset="0.8838" stop-color="#CF000E"/>
<stop offset="0.9331" stop-color="#C00009"/>
<stop offset="0.9765" stop-color="#AE0003"/>
<stop offset="1" stop-color="#A00000"/>
</radialGradient>
<radialGradient id="paint6_radial_354_13983" cx="0" cy="0" r="1" gradientUnits="userSpaceOnUse" gradientTransform="translate(1533.35 157.362) scale(3046.72 3046.72)">
<stop stop-color="#F7BFA4"/>
<stop offset="0.0113075" stop-color="#F7BB9F"/>
<stop offset="0.427" stop-color="#E60012"/>
<stop offset="0.6628" stop-color="#E50012"/>
<stop offset="0.7574" stop-color="#E10011"/>
<stop offset="0.8268" stop-color="#DA0010"/>
<stop offset="0.8838" stop-color="#CF000E"/>
<stop offset="0.9331" stop-color="#C00009"/>
<stop offset="0.9765" stop-color="#AE0003"/>
<stop offset="1" stop-color="#A00000"/>
</radialGradient>
<radialGradient id="paint7_radial_354_13983" cx="0" cy="0" r="1" gradientUnits="userSpaceOnUse" gradientTransform="translate(110.539 -1219.38) scale(3047.03 3047.02)">
<stop stop-color="#F7BFA4"/>
<stop offset="0.0113075" stop-color="#F7BB9F"/>
<stop offset="0.427" stop-color="#E60012"/>
<stop offset="0.6628" stop-color="#E50012"/>
<stop offset="0.7574" stop-color="#E10011"/>
<stop offset="0.8268" stop-color="#DA0010"/>
<stop offset="0.8838" stop-color="#CF000E"/>
<stop offset="0.9331" stop-color="#C00009"/>
<stop offset="0.9765" stop-color="#AE0003"/>
<stop offset="1" stop-color="#A00000"/>
</radialGradient>
</defs>
</svg>
