<svg width="46" height="46" viewBox="0 0 46 46" fill="none" xmlns="http://www.w3.org/2000/svg">
<path fill-rule="evenodd" clip-rule="evenodd" d="M7.92027 39.6578H4.87705V36.9744H3.52558V43.615H4.87705V40.9218H7.92027V43.615H9.26201V36.9744H7.92027V39.6578Z" fill="black"/>
<path fill-rule="evenodd" clip-rule="evenodd" d="M15.5137 40.776C15.5137 41.8552 14.979 42.4288 14.0067 42.4288C13.0247 42.4288 12.49 41.8357 12.49 40.7273V36.9744H11.1385V40.776C11.1385 42.6427 12.1788 43.7122 13.9873 43.7122C15.8152 43.7122 16.8652 42.6233 16.8652 40.7176V36.9744H15.5137V40.776Z" fill="black"/>
<path fill-rule="evenodd" clip-rule="evenodd" d="M31.0896 41.5441L29.5826 36.9744H28.4839L26.9769 41.5441L25.5087 36.9744H24.0698L26.3838 43.615H27.5019L29.0089 39.2592L30.5257 43.615H31.6535L33.9578 36.9744H32.5577L31.0896 41.5441Z" fill="black"/>
<path fill-rule="evenodd" clip-rule="evenodd" d="M36.3788 40.7565H38.8289V39.5509H36.3788V38.1897H39.9373V36.9744H35.0468V43.615H40.0637V42.3997H36.3788V40.7565Z" fill="black"/>
<path d="M43 36.9744H41.668V43.6053H43V36.9744Z" fill="black"/>
<path d="M21.6488 36.9744H20.4724L17.5458 43.615H18.9167L19.4806 42.3316L19.5195 42.2344H22.5628L23.1558 43.615H24.5656L21.6683 37.0133L21.6488 36.9744ZM22.0572 41.0288H20.0154L20.0834 40.8732L21.0363 38.6467L21.9988 40.8732L22.0572 41.0288Z" fill="black"/>
<path fill-rule="evenodd" clip-rule="evenodd" d="M8.30918 19.1428C11.3232 22.0694 18.625 25.764 20.3168 26.6002C20.3362 26.6099 20.4237 26.6391 20.4821 26.571C20.4821 26.571 20.5501 26.5127 20.5112 26.4252C15.8638 16.3232 9.5148 8.66168 9.5148 8.66168C9.5148 8.66168 6.0535 11.9285 6.30629 15.2051C6.43269 17.6747 8.30918 19.1428 8.30918 19.1428Z" fill="url(#paint0_radial_354_13960)"/>
<path fill-rule="evenodd" clip-rule="evenodd" d="M19.3445 29.0795C19.3154 28.9725 19.189 28.9725 19.189 28.9725L7.03551 29.3906C8.3578 31.7338 10.5746 33.552 12.8886 32.988C14.4831 32.5894 18.1 30.0809 19.2862 29.235C19.3834 29.1475 19.3445 29.0795 19.3445 29.0795Z" fill="url(#paint1_radial_354_13960)"/>
<path fill-rule="evenodd" clip-rule="evenodd" d="M7.96888 27.5725C9.13561 28.0489 10.2926 28.0781 10.2926 28.0781C10.4774 28.1073 17.5166 28.0781 19.4028 28.0684C19.4806 28.0684 19.5292 27.9906 19.5292 27.9906C19.5876 27.8934 19.4806 27.8059 19.4806 27.8059C14.1526 24.2182 3.80754 18.7151 3.80754 18.7151C2.86443 21.6125 4.13811 23.9459 4.13811 23.9459C5.45069 26.7266 7.96888 27.5725 7.96888 27.5725Z" fill="url(#paint2_radial_354_13960)"/>
<path fill-rule="evenodd" clip-rule="evenodd" d="M39.4026 29.3906L27.2394 28.9725C27.2394 28.9725 27.1324 28.9823 27.1033 29.0698C27.1033 29.0698 27.0741 29.1767 27.1519 29.235C28.3186 30.0615 31.8383 32.5213 33.5397 32.9978C33.5397 32.9978 36.6802 34.0575 39.4026 29.3906Z" fill="url(#paint3_radial_354_13960)"/>
<path fill-rule="evenodd" clip-rule="evenodd" d="M25.956 26.3766C25.956 26.3766 25.8977 26.4932 25.9852 26.571C25.9852 26.571 26.0727 26.6293 26.1504 26.5807C27.8908 25.7154 35.1343 22.0499 38.1386 19.1428C38.1386 19.1428 40.0346 17.6261 40.1415 15.1857C40.3554 11.7924 36.933 8.66168 36.933 8.66168C36.933 8.66168 30.6035 16.294 25.956 26.3766Z" fill="url(#paint4_radial_354_13960)"/>
<path fill-rule="evenodd" clip-rule="evenodd" d="M24.2642 25.4724C24.274 25.5794 24.3615 25.6085 24.3615 25.6085C24.4781 25.6572 24.5365 25.5405 24.5365 25.5405C25.7032 23.8584 30.9535 16.1094 32.023 11.3841C32.023 11.3841 32.6064 9.09929 32.0424 7.54365C32.0424 7.54365 31.2452 4.58793 28.0269 3.81011C28.0269 3.81011 27.1033 3.57676 26.1116 3.44063C26.1116 3.43092 22.5141 8.04923 24.2642 25.4724Z" fill="url(#paint5_radial_354_13960)"/>
<path fill-rule="evenodd" clip-rule="evenodd" d="M21.9113 25.5599C21.9891 25.6376 22.0572 25.6085 22.0572 25.6085C22.1836 25.5696 22.1738 25.4529 22.1738 25.4529C23.9239 8.03944 20.3362 3.43085 20.3362 3.43085C19.8112 3.47946 18.382 3.80031 18.382 3.80031C15.1637 4.62675 14.4054 7.53385 14.4054 7.53385C13.822 9.36173 14.4248 11.3743 14.4248 11.3743C15.4943 16.1191 20.7738 23.9167 21.9113 25.5599Z" fill="url(#paint6_radial_354_13960)"/>
<path fill-rule="evenodd" clip-rule="evenodd" d="M42.6403 18.6956C42.6403 18.6956 32.3147 24.2181 26.9769 27.8058C26.9769 27.8058 26.8797 27.8642 26.9185 27.9809C26.9185 27.9809 26.9672 28.0684 27.0449 28.0684C28.9603 28.0684 36.1941 28.0781 36.3788 28.0489C36.3788 28.0489 37.3122 28.01 38.4692 27.5725C38.4692 27.5725 41.0457 26.7558 42.3777 23.8487C42.368 23.839 43.5639 21.4666 42.6403 18.6956Z" fill="url(#paint7_radial_354_13960)"/>
<defs>
<radialGradient id="paint0_radial_354_13960" cx="0" cy="0" r="1" gradientUnits="userSpaceOnUse" gradientTransform="translate(2213.29 -118.284) scale(2848.77 2848.77)">
<stop stop-color="#F7BFA4"/>
<stop offset="0.0113075" stop-color="#F7BB9F"/>
<stop offset="0.427" stop-color="#E60012"/>
<stop offset="0.6628" stop-color="#E50012"/>
<stop offset="0.7574" stop-color="#E10011"/>
<stop offset="0.8268" stop-color="#DA0010"/>
<stop offset="0.8838" stop-color="#CF000E"/>
<stop offset="0.9331" stop-color="#C00009"/>
<stop offset="0.9765" stop-color="#AE0003"/>
<stop offset="1" stop-color="#A00000"/>
</radialGradient>
<radialGradient id="paint1_radial_354_13960" cx="0" cy="0" r="1" gradientUnits="userSpaceOnUse" gradientTransform="translate(719.621 -2163.29) scale(2854.92 2854.93)">
<stop stop-color="#F7BFA4"/>
<stop offset="0.0113075" stop-color="#F7BB9F"/>
<stop offset="0.427" stop-color="#E60012"/>
<stop offset="0.6628" stop-color="#E50012"/>
<stop offset="0.7574" stop-color="#E10011"/>
<stop offset="0.8268" stop-color="#DA0010"/>
<stop offset="0.8838" stop-color="#CF000E"/>
<stop offset="0.9331" stop-color="#C00009"/>
<stop offset="0.9765" stop-color="#AE0003"/>
<stop offset="1" stop-color="#A00000"/>
</radialGradient>
<radialGradient id="paint2_radial_354_13960" cx="0" cy="0" r="1" gradientUnits="userSpaceOnUse" gradientTransform="translate(1456.55 -1148.15) scale(2854.26 2854.26)">
<stop stop-color="#F7BFA4"/>
<stop offset="0.0113075" stop-color="#F7BB9F"/>
<stop offset="0.427" stop-color="#E60012"/>
<stop offset="0.6628" stop-color="#E50012"/>
<stop offset="0.7574" stop-color="#E10011"/>
<stop offset="0.8268" stop-color="#DA0010"/>
<stop offset="0.8838" stop-color="#CF000E"/>
<stop offset="0.9331" stop-color="#C00009"/>
<stop offset="0.9765" stop-color="#AE0003"/>
<stop offset="1" stop-color="#A00000"/>
</radialGradient>
<radialGradient id="paint3_radial_354_13960" cx="0" cy="0" r="1" gradientUnits="userSpaceOnUse" gradientTransform="translate(55.1748 -2164.68) scale(2857.83 2857.83)">
<stop stop-color="#F7BFA4"/>
<stop offset="0.0113075" stop-color="#F7BB9F"/>
<stop offset="0.427" stop-color="#E60012"/>
<stop offset="0.6628" stop-color="#E50012"/>
<stop offset="0.7574" stop-color="#E10011"/>
<stop offset="0.8268" stop-color="#DA0010"/>
<stop offset="0.8838" stop-color="#CF000E"/>
<stop offset="0.9331" stop-color="#C00009"/>
<stop offset="0.9765" stop-color="#AE0003"/>
<stop offset="1" stop-color="#A00000"/>
</radialGradient>
<radialGradient id="paint4_radial_354_13960" cx="0" cy="0" r="1" gradientUnits="userSpaceOnUse" gradientTransform="translate(271.636 -120.226) scale(2853 2853)">
<stop stop-color="#F7BFA4"/>
<stop offset="0.0113075" stop-color="#F7BB9F"/>
<stop offset="0.427" stop-color="#E60012"/>
<stop offset="0.6628" stop-color="#E50012"/>
<stop offset="0.7574" stop-color="#E10011"/>
<stop offset="0.8268" stop-color="#DA0010"/>
<stop offset="0.8838" stop-color="#CF000E"/>
<stop offset="0.9331" stop-color="#C00009"/>
<stop offset="0.9765" stop-color="#AE0003"/>
<stop offset="1" stop-color="#A00000"/>
</radialGradient>
<radialGradient id="paint5_radial_354_13960" cx="0" cy="0" r="1" gradientUnits="userSpaceOnUse" gradientTransform="translate(484.927 141.574) scale(2854.66 2854.66)">
<stop stop-color="#F7BFA4"/>
<stop offset="0.0113075" stop-color="#F7BB9F"/>
<stop offset="0.427" stop-color="#E60012"/>
<stop offset="0.6628" stop-color="#E50012"/>
<stop offset="0.7574" stop-color="#E10011"/>
<stop offset="0.8268" stop-color="#DA0010"/>
<stop offset="0.8838" stop-color="#CF000E"/>
<stop offset="0.9331" stop-color="#C00009"/>
<stop offset="0.9765" stop-color="#AE0003"/>
<stop offset="1" stop-color="#A00000"/>
</radialGradient>
<radialGradient id="paint6_radial_354_13960" cx="0" cy="0" r="1" gradientUnits="userSpaceOnUse" gradientTransform="translate(1436.23 144.297) scale(2854.32 2854.32)">
<stop stop-color="#F7BFA4"/>
<stop offset="0.0113075" stop-color="#F7BB9F"/>
<stop offset="0.427" stop-color="#E60012"/>
<stop offset="0.6628" stop-color="#E50012"/>
<stop offset="0.7574" stop-color="#E10011"/>
<stop offset="0.8268" stop-color="#DA0010"/>
<stop offset="0.8838" stop-color="#CF000E"/>
<stop offset="0.9331" stop-color="#C00009"/>
<stop offset="0.9765" stop-color="#AE0003"/>
<stop offset="1" stop-color="#A00000"/>
</radialGradient>
<radialGradient id="paint7_radial_354_13960" cx="0" cy="0" r="1" gradientUnits="userSpaceOnUse" gradientTransform="translate(103.271 -1145.51) scale(2854.6 2854.6)">
<stop stop-color="#F7BFA4"/>
<stop offset="0.0113075" stop-color="#F7BB9F"/>
<stop offset="0.427" stop-color="#E60012"/>
<stop offset="0.6628" stop-color="#E50012"/>
<stop offset="0.7574" stop-color="#E10011"/>
<stop offset="0.8268" stop-color="#DA0010"/>
<stop offset="0.8838" stop-color="#CF000E"/>
<stop offset="0.9331" stop-color="#C00009"/>
<stop offset="0.9765" stop-color="#AE0003"/>
<stop offset="1" stop-color="#A00000"/>
</radialGradient>
</defs>
</svg>
