<svg width="102" height="46" viewBox="0 0 102 46" fill="none" xmlns="http://www.w3.org/2000/svg">
<g clip-path="url(#clip0_515_241)">
<path d="M0.31875 4.47222H11.0925V0H15.1725V4.47222H28.4325V0H32.5125V4.47222H41.7562V6.26111H32.5125V7.53889C32.5125 10.2861 31.4925 11.5 28.4325 12.7778V6.26111H15.1725V8.17778C15.1725 10.925 14.1525 12.1389 11.0925 13.4167V6.26111H0.82875L0.31875 4.47222ZM15.3 12.7778C11.22 19.4861 6.69375 26.0028 0 31.3056C3.73511 30.2571 7.14829 28.1424 10.2 25.4406V45.3611C13.26 44.0833 14.28 42.8694 14.28 40.1222V21.268C16.065 19.1878 17.6836 16.9504 19.125 14.6944L15.3 12.7778ZM30.5362 36.225C29.1127 34.063 28.6531 31.9298 28.5039 29.0931C33.6791 27.2148 38.6631 23.8644 42.7125 19.4861L39.1425 16.6111C35.6579 21.0412 32.5973 24.2382 28.4382 26.5842C28.4325 25.9184 28.4325 25.2163 28.4325 24.4694V14.0556H24.225V24.4694C24.225 30.6028 24.225 34.5 26.5837 37.8861C28.9425 41.2722 33.9787 44.5944 43.35 46C37.2937 42.9333 32.7675 39.6111 30.5362 36.225ZM102 28.8778V30.6667H96.2625C96.2625 34.0528 96.2625 37.0556 94.6687 39.7389C93.075 42.4222 90.0787 44.4667 85.425 46C88.3575 43.5083 90.1425 41.2722 91.0987 38.7167C92.055 36.1611 92.055 33.6056 92.055 30.6667H68.595V39.9306C68.595 42.8056 67.575 44.0833 64.3875 45.3611V30.6667H59.16L58.65 28.8778H64.3875V9.58333H68.595V11.6278H78.285V4.34444H61.71L61.2 2.55556H99.45V4.34444H82.365V11.6278H92.055V9.58333H96.2625V28.8778H102ZM68.595 28.8778H78.285V21.85H71.7825L71.2725 20.0611H78.285V13.4167H68.595V28.8778ZM92.055 28.8778V13.4167H82.365V20.0611H89.3775V21.85H82.365V28.8778H92.055Z" fill="#212222"/>
</g>
<defs>
<clipPath id="clip0_515_241">
<rect width="102" height="46" fill="white"/>
</clipPath>
</defs>
</svg>
