<svg width="108" height="46" viewBox="0 0 108 46" fill="none" xmlns="http://www.w3.org/2000/svg">
<g clip-path="url(#clip0_513_60)">
<path d="M54.8914 0H46.973V9.26465H54.8914C58.5355 9.26465 62.0303 10.7107 64.607 13.2846C67.1838 15.8586 68.6314 19.3496 68.6314 22.9897C68.6314 26.6298 67.1838 30.1208 64.607 32.6947C62.0303 35.2687 58.5355 36.7147 54.8914 36.7147H46.973V9.26465H37.6982V46H46.973V45.9794H54.8914C60.9953 45.9794 66.8492 43.5572 71.1653 39.2458C75.4814 34.9344 77.9062 29.0869 77.9062 22.9897C77.9062 16.8924 75.4814 11.0449 71.1653 6.73352C66.8492 2.42212 60.9953 0 54.8914 0Z" fill="#E1251B"/>
<path d="M13.8468 0V9.26465H23.1216V29.3209C23.1223 30.9626 22.576 32.5579 21.5688 33.8553C20.5615 35.1526 19.1507 36.0782 17.5587 36.4861C15.9667 36.894 14.2841 36.761 12.7761 36.1082C11.2681 35.4553 10.0205 34.3196 9.23003 32.8802C9.03644 32.5325 8.87289 32.169 8.74116 31.7935L0 34.892C0.3003 35.7405 0.66992 36.5629 1.10512 37.3509C2.89003 40.5885 5.70193 43.1414 9.09834 44.6078C12.4948 46.0742 16.2829 46.3709 19.8666 45.4512C23.4503 44.5315 26.6262 42.4477 28.8945 39.5276C31.1628 36.6075 32.3947 33.0169 32.3963 29.3209V0H13.8468Z" fill="#E1251B"/>
<path d="M95.409 0H93.8047H75.2551V9.26465H86.8469V46H96.1217V9.26465H107.717V0H95.409Z" fill="#E1251B"/>
</g>
<defs>
<clipPath id="clip0_513_60">
<rect width="108" height="46" fill="white"/>
</clipPath>
</defs>
</svg>
