<svg width="314" height="46" viewBox="0 0 314 46" fill="none" xmlns="http://www.w3.org/2000/svg">
<g clip-path="url(#clip0_513_50)">
<path d="M143.842 11.8336H162.515V15.785H119.216V11.8336H137.807V9.26465H143.856L143.842 11.8336ZM124.456 33.6746H130.935L123.251 45.0508H119.216L124.456 33.6746ZM143.842 30.951V37.2443C143.842 40.4793 142.924 42.7949 141.088 44.1911C139.499 45.397 137.102 46 133.896 46V42.0486C135.326 41.9867 136.325 41.6703 136.894 41.0994C137.464 40.5286 137.765 39.529 137.8 38.1006V30.951H121.932V18.4502H159.744V30.951H143.842ZM127.792 26.9652H153.957V22.3982H127.792V26.9652ZM157.183 33.6746L162.515 45.0508H158.367L150.703 33.6746H157.183Z" fill="black"/>
<path d="M194.815 29.2486V37.2925C194.815 43.0975 191.48 46 184.81 46V42.1449C186.27 42.0188 187.286 41.6543 187.857 41.0513C188.46 40.4185 188.763 39.3696 188.763 37.9115V29.2486H171.425L176.665 15.785H169.728V11.7854H178.207L179.206 9.26465H185.303L184.349 11.7854H213.027V15.785H182.762L179.047 25.3488H188.763V19.4475H194.815V25.3488H211.296V29.2486H194.815ZM175.191 33.1519H181.671L173.807 45.0508H169.728L175.191 33.1519ZM207.488 33.1519L213.01 45.0508H208.879L200.96 33.1553L207.488 33.1519Z" fill="black"/>
<path d="M232.386 24.919V46H226.967V22.4945C226.096 28.4853 224.775 34.4022 223.015 40.195H219.872C221.019 35.4056 222.083 29.3942 223.063 22.1609H220.206V18.5431H226.967V14.0724H221.156V10.4545H230.017C233.162 10.4545 235.845 10.137 238.067 9.50194V13.3089C236.189 13.6478 234.291 13.8706 232.386 13.9761V18.5431H238.531V22.1609H232.386V24.5407H236.517L238.473 37.8152H235.484L232.386 24.919ZM259.966 36.529V46H254.251V36.7697L239.781 37.485V33.7228L254.265 32.9628V9.26465H259.98V32.722L263.505 32.5329V36.3399L259.966 36.529ZM246.308 21.6829L250.739 28.8222H246.501L240.115 21.6829H246.308ZM247.878 11.8336L252.258 18.8766H248.071L241.64 11.8336H247.878Z" fill="black"/>
<path d="M281.511 29.2039V36.8144C281.511 39.9279 280.716 42.1804 279.128 43.5721C277.765 44.7459 275.637 45.5231 272.745 45.9037V42.2412C274.047 41.9867 274.92 41.4135 275.365 40.5217C275.682 39.8855 275.844 38.8022 275.844 37.2374V30.6311L270.68 31.962V27.8559L275.844 26.525V18.3539H270.68V14.5951H275.844V9.26465H281.511V14.5951H285.036V18.3539H281.511V25.1047L285.322 24.1039V28.155L281.511 29.2039ZM303.2 37.6707C306.154 39.5439 309.758 41.0673 314.014 42.2412V46C308.361 44.7941 303.47 42.8911 299.341 40.2913C295.064 42.7707 290.485 44.6894 285.718 46V42.2412C289.254 41.1287 292.657 39.6294 295.863 37.7705C292.181 34.8655 289.332 31.0392 287.608 26.6797H293.278C294.808 29.9055 296.999 32.7747 299.709 35.1018C303.393 32.0595 305.79 28.7133 306.901 25.0634H287.322V21.2564H297.089V16.9749H286.465V13.1679H297.089V9.26465H302.756V13.1679H313.473V16.9749H302.756V21.2564H312.427V25.0634C311.029 29.8849 307.949 34.0873 303.186 37.6707H303.2Z" fill="black"/>
<path d="M54.8914 0H46.973V9.26465H54.8914C58.5355 9.26465 62.0303 10.7107 64.607 13.2846C67.1838 15.8586 68.6314 19.3496 68.6314 22.9897C68.6314 26.6298 67.1838 30.1208 64.607 32.6947C62.0303 35.2687 58.5355 36.7147 54.8914 36.7147H46.973V9.26465H37.6982V46H46.973V45.9794H54.8914C60.9953 45.9794 66.8492 43.5572 71.1653 39.2458C75.4814 34.9344 77.9062 29.0869 77.9062 22.9897C77.9062 16.8924 75.4814 11.0449 71.1653 6.73352C66.8492 2.42212 60.9953 0 54.8914 0Z" fill="#E1251B"/>
<path d="M13.8468 0V9.26465H23.1216V29.3209C23.1223 30.9626 22.576 32.5579 21.5688 33.8553C20.5615 35.1526 19.1507 36.0782 17.5587 36.4861C15.9667 36.894 14.2841 36.761 12.7761 36.1082C11.2681 35.4553 10.0205 34.3196 9.23003 32.8802C9.03644 32.5325 8.87289 32.169 8.74116 31.7935L0 34.892C0.3003 35.7405 0.66992 36.5629 1.10512 37.3509C2.89003 40.5885 5.70193 43.1414 9.09834 44.6078C12.4948 46.0742 16.2829 46.3709 19.8666 45.4512C23.4503 44.5315 26.6262 42.4477 28.8945 39.5276C31.1628 36.6075 32.3947 33.0169 32.3963 29.3209V0H13.8468Z" fill="#E1251B"/>
<path d="M95.409 0H93.8047H75.2551V9.26465H86.8469V46H96.1217V9.26465H107.717V0H95.409Z" fill="#E1251B"/>
</g>
<defs>
<clipPath id="clip0_513_50">
<rect width="314" height="46" fill="white"/>
</clipPath>
</defs>
</svg>
