<svg width="215" height="46" viewBox="0 0 215 46" fill="none" xmlns="http://www.w3.org/2000/svg">
<g clip-path="url(#clip0_300_254)">
<path d="M0 43.2923H14.2946C14.2946 43.2923 15.1039 4.7195 27.9691 6.70865C27.9691 6.70865 19.3015 0.582372 11.5265 6.64058C3.7514 12.6988 0.80171 29.1414 0 43.2923Z" fill="#04314D"/>
<path d="M30.0263 15.9132C26.2262 20.6444 23.6309 26.227 22.463 32.1819C22.463 32.1819 31.3499 48.5337 54.418 43.7083C54.418 43.7083 37.0829 42.3696 30.0263 15.9132Z" fill="#04314D"/>
<path d="M20.8218 0.816844C20.8218 0.816844 36.1904 1.34628 44.7672 28.5137C44.7672 28.5137 52.0053 18.6814 52.4591 12.1618C52.4591 12.1618 43.9655 -3.47911 20.8218 0.816844Z" fill="#04314D"/>
<path d="M60.1434 1.43701H74.7103C74.7103 1.43701 75.2397 29.9431 61.2098 39.3292C54.4028 42.9066 46.9152 37.9904 46.9152 37.9904C46.9152 37.9904 52.9658 38.4367 56.3844 29.0506C59.803 19.6646 60.4988 7.24563 60.1434 1.43701Z" fill="#04314D"/>
<path d="M94.0496 17.5015V19.294C94.0496 19.3848 94.0118 19.4301 93.9513 19.4301H84.467C84.4485 19.4326 84.4297 19.4308 84.412 19.4249C84.3944 19.4189 84.3783 19.409 84.3652 19.3958C84.352 19.3826 84.342 19.3666 84.3361 19.3489C84.3301 19.3313 84.3283 19.3125 84.3308 19.294V17.5015C84.3283 17.483 84.3301 17.4642 84.3361 17.4466C84.342 17.4289 84.352 17.4129 84.3652 17.3997C84.3783 17.3865 84.3944 17.3766 84.412 17.3706C84.4297 17.3647 84.4485 17.3629 84.467 17.3654H93.9513C94.0118 17.3654 94.0496 17.4107 94.0496 17.5015ZM93.8454 9.6508V11.4433C93.8454 11.5341 93.8001 11.5794 93.7169 11.5794H85.2611C85.1779 11.5794 85.1325 11.5341 85.1325 11.4433V9.6508C85.1325 9.58273 85.1779 9.54491 85.2611 9.54491H93.7169C93.8001 9.54491 93.8454 9.58273 93.8454 9.6508ZM87.5301 0.4992V3.09341H94.0118C94.0799 3.09341 94.1177 3.13879 94.1177 3.22955V5.02205C94.1177 5.11281 94.0799 5.15819 94.0118 5.15819H85.4956C85.4275 5.15819 85.3972 5.11281 85.3972 5.02205V0.484073C85.3972 0.416004 85.3972 0.385751 85.4956 0.385751H87.4242C87.4923 0.400878 87.5301 0.431131 87.5301 0.4992ZM89.8898 10.5433V27.78H92.8168C92.8622 27.78 92.8849 27.78 92.8849 27.8784V29.8146C92.8849 29.8751 92.8849 29.9129 92.8168 29.9129H87.8931C87.8477 29.9129 87.8175 29.9129 87.8099 29.8751C87.8009 29.8429 87.8009 29.8089 87.8099 29.7767V10.5433C87.8099 10.4601 87.8099 10.4147 87.9082 10.4147H89.7688C89.8445 10.4147 89.8898 10.4601 89.8898 10.5433ZM114.244 18.5301C114.268 18.5569 114.282 18.5921 114.281 18.6284V28.5817C114.282 28.5999 114.28 28.618 114.273 28.635C114.267 28.6519 114.257 28.6673 114.244 28.6801C114.212 28.6931 114.177 28.6931 114.145 28.6801H110.084C110.016 28.6801 109.986 28.6347 109.986 28.5515V26.8195C109.986 26.7287 109.986 26.6834 110.084 26.6834H112.217V20.5268H97.7103V28.7481C97.7103 28.8313 97.6649 28.8767 97.5741 28.8767H95.7816C95.6909 28.8767 95.6455 28.8313 95.6455 28.7481V18.6284C95.6406 18.5958 95.6406 18.5627 95.6455 18.5301C95.6455 18.5301 95.6984 18.5301 95.7665 18.5301H114.13C114.148 18.5214 114.167 18.5169 114.187 18.5169C114.207 18.5169 114.226 18.5214 114.244 18.5301ZM96.5455 2.32952H113.381C113.45 2.32952 113.48 2.32952 113.48 2.42784V15.3081C113.48 15.3762 113.48 15.4065 113.381 15.4065H96.5455C96.4775 15.4065 96.4472 15.4065 96.4472 15.3081V2.45053C96.4472 2.35977 96.4775 2.32952 96.5455 2.32952ZM112.428 8.08519V9.74912C112.428 9.81719 112.428 9.84744 112.323 9.84744H97.5741C97.5061 9.84744 97.4758 9.84744 97.4758 9.74912V8.08519C97.4758 8.01712 97.4758 7.98687 97.5741 7.98687H112.345C112.413 7.98687 112.451 8.01712 112.451 8.08519H112.428ZM111.392 4.25816H98.5044V13.5081H111.415L111.392 4.25816ZM105.969 0.128599V3.20686C105.969 3.27493 105.969 3.30518 105.871 3.30518H104.033C103.965 3.30518 103.927 3.30519 103.927 3.20686V0.128599C103.926 0.114677 103.928 0.100627 103.933 0.0875442C103.938 0.0744618 103.946 0.0627023 103.956 0.0531833C103.966 0.0436642 103.978 0.0366433 103.992 0.0326697C104.005 0.028696 104.019 0.0278759 104.033 0.030275H105.894C105.907 0.0291202 105.92 0.030872 105.933 0.0354048C105.945 0.0399377 105.956 0.0471416 105.966 0.0565127C105.975 0.0658839 105.982 0.077194 105.987 0.0896475C105.992 0.102101 105.993 0.115396 105.992 0.128599H105.969ZM105.969 14.5745V30.1776C105.969 30.2457 105.969 30.2759 105.871 30.2759H104.033C103.965 30.2759 103.927 30.2759 103.927 30.1776V14.5518C103.927 14.4837 103.927 14.4535 104.033 14.4535H105.894C105.962 14.4762 105.992 14.5064 105.992 14.5518L105.969 14.5745Z" fill="#04314D"/>
<path d="M120.302 10.3466V15.3686C120.302 17.4788 120.226 19.4376 120.083 21.2604C119.949 23.015 119.711 24.7601 119.372 26.4866C119.364 26.5247 119.343 26.5587 119.313 26.5824C119.282 26.6061 119.244 26.6178 119.205 26.6152L117.541 26.2824C117.473 26.2824 117.443 26.2824 117.443 26.1841C117.776 24.5072 118.013 22.8129 118.154 21.1091C118.295 19.3696 118.368 17.4561 118.373 15.3686V10.3163C118.373 10.2482 118.373 10.2104 118.472 10.2104H120.166C120.184 10.2079 120.203 10.2097 120.221 10.2157C120.238 10.2216 120.254 10.2316 120.268 10.2448C120.281 10.2579 120.291 10.274 120.297 10.2916C120.303 10.3093 120.304 10.3281 120.302 10.3466ZM128.251 5.42285V7.35149C128.251 7.41956 128.251 7.44982 128.153 7.44982H117.64C117.572 7.44982 117.541 7.44982 117.541 7.35149V5.42285C117.541 5.37747 117.541 5.35478 117.64 5.35478H128.16C128.221 5.35478 128.251 5.37747 128.251 5.42285ZM124.991 0.234426V30.1775C124.991 30.2456 124.991 30.2759 124.893 30.2759H123.032C122.941 30.2759 122.896 30.2759 122.896 30.1775V0.234426C122.896 0.166356 122.941 0.12854 123.032 0.12854H124.893C124.961 0.12854 124.991 0.181483 124.991 0.234426ZM128.773 15.4367L127.774 17.1006C127.774 17.1687 127.714 17.1762 127.646 17.1006L123.486 14.6047C123.441 14.6047 123.426 14.5442 123.486 14.4761L124.484 12.8122C124.503 12.7962 124.528 12.7874 124.552 12.7874C124.577 12.7874 124.601 12.7962 124.621 12.8122L128.78 15.3005C128.788 15.3459 128.795 15.3913 128.75 15.4367H128.773ZM136.192 12.4113C134.585 18.5053 132.076 24.3251 128.75 29.6784C128.735 29.708 128.71 29.7312 128.68 29.7438C128.649 29.7563 128.615 29.7572 128.584 29.7464L127.071 28.7481C127.026 28.7481 127.018 28.68 127.071 28.6195C128.693 26.0048 130.121 23.2747 131.344 20.4511C132.531 17.6878 133.49 14.832 134.211 11.9122C134.214 11.898 134.22 11.8846 134.229 11.8732C134.238 11.8617 134.25 11.8524 134.263 11.8459C134.276 11.8394 134.29 11.8358 134.305 11.8355C134.319 11.8352 134.334 11.8381 134.347 11.8441L136.139 12.2752C136.15 12.2821 136.16 12.2912 136.167 12.3018C136.175 12.3124 136.18 12.3243 136.183 12.337C136.186 12.3496 136.186 12.3627 136.184 12.3755C136.181 12.3882 136.177 12.4004 136.17 12.4113H136.192ZM146.494 1.17984C146.494 1.17984 146.494 1.17984 146.494 1.23278L133.78 11.0651H147.023C147.031 11.0615 147.04 11.0597 147.049 11.0597C147.059 11.0597 147.068 11.0615 147.076 11.0651C147.084 11.0923 147.084 11.1211 147.076 11.1483V30.0565C147.079 30.0791 147.079 30.102 147.076 30.1246C147.076 30.1246 147.076 30.1246 147.023 30.1246H141.464C141.45 30.126 141.436 30.1241 141.423 30.1191C141.41 30.1142 141.398 30.1063 141.389 30.096C141.379 30.0858 141.372 30.0735 141.368 30.0601C141.364 30.0466 141.363 30.0325 141.366 30.0187V28.1657C141.365 28.1525 141.366 28.1392 141.371 28.1267C141.375 28.1143 141.383 28.103 141.392 28.0936C141.401 28.0842 141.413 28.077 141.425 28.0725C141.437 28.068 141.451 28.0662 141.464 28.0674H145.026V13.1072H128.387C128.342 13.1072 128.319 13.1072 128.319 13.1072C128.319 13.1072 128.319 13.1072 128.319 13.0542L140.995 3.22193H129.083C129.015 3.22193 128.985 3.18411 128.985 3.11604V1.26304C128.985 1.19497 128.985 1.16471 129.083 1.16471H146.418L146.494 1.17984ZM142.712 12.3735C142.072 15.414 141.253 18.4142 140.261 21.3587C139.266 24.2587 138.089 27.093 136.737 29.8448C136.737 29.9279 136.654 29.9506 136.571 29.9053L134.975 29.1489C134.945 29.1342 134.922 29.1092 134.909 29.0786C134.897 29.0479 134.896 29.0138 134.907 28.9825C137.539 23.5863 139.495 17.8858 140.73 12.0105C140.745 11.9901 140.765 11.9734 140.787 11.9617C140.809 11.9499 140.834 11.9433 140.859 11.9424L142.659 12.3433C142.697 12.2828 142.727 12.3281 142.727 12.3735H142.712Z" fill="#04314D"/>
<path d="M154.405 13.7047V17.7965C154.44 21.3869 154.008 24.9667 153.119 28.4456C153.122 28.4641 153.12 28.4828 153.114 28.5005C153.108 28.5182 153.098 28.5342 153.085 28.5474C153.071 28.5605 153.055 28.5705 153.038 28.5765C153.02 28.5824 153.001 28.5842 152.983 28.5817L151.319 28.1506C151.274 28.1506 151.258 28.1052 151.258 28.0145C152.087 24.6727 152.489 21.2393 152.453 17.7965V13.7047C152.453 13.6366 152.453 13.6064 152.552 13.6064H154.284C154.375 13.6064 154.405 13.6366 154.405 13.7047ZM163.224 9.16673V11.0273C163.226 11.0411 163.225 11.0552 163.221 11.0686C163.217 11.0821 163.21 11.0944 163.201 11.1046C163.191 11.1149 163.179 11.1228 163.166 11.1277C163.153 11.1327 163.139 11.1346 163.125 11.1332H151.674C151.606 11.1332 151.576 11.1332 151.576 11.0273V9.18185C151.576 9.11379 151.576 9.08353 151.674 9.08353H163.125C163.138 9.08238 163.152 9.08413 163.164 9.08866C163.177 9.09319 163.188 9.1004 163.197 9.10977C163.207 9.11914 163.214 9.13045 163.218 9.1429C163.223 9.15536 163.225 9.16865 163.224 9.18185V9.16673ZM162.951 1.29333V3.16147C162.951 3.22954 162.951 3.25979 162.853 3.25979H152.174C152.16 3.26094 152.147 3.25919 152.135 3.25466C152.122 3.25013 152.111 3.24292 152.102 3.23355C152.092 3.22418 152.085 3.21287 152.08 3.20042C152.076 3.18796 152.074 3.17467 152.075 3.16147V1.29333C152.074 1.28013 152.076 1.26683 152.08 1.25438C152.085 1.24193 152.092 1.23062 152.102 1.22125C152.111 1.21187 152.122 1.20467 152.135 1.20014C152.147 1.1956 152.16 1.19385 152.174 1.19501H162.823C162.838 1.18774 162.855 1.1848 162.871 1.18652C162.888 1.18823 162.904 1.19452 162.917 1.20471C162.931 1.21489 162.941 1.22856 162.947 1.2442C162.953 1.25984 162.954 1.27685 162.951 1.29333ZM159.17 2.35976V30.1095C159.17 30.1776 159.124 30.2078 159.034 30.2078H157.135C157.067 30.2078 157.037 30.2078 157.037 30.1473V2.35976C157.037 2.269 157.037 2.23118 157.135 2.23118H159.034C159.17 2.23118 159.17 2.269 159.17 2.35976ZM163.458 17.8343L162.392 19.3469C162.392 19.415 162.324 19.4226 162.263 19.3469L157.657 16.1703C157.589 16.1703 157.581 16.1023 157.619 16.0342L158.686 14.5215C158.686 14.4535 158.754 14.4459 158.822 14.5215L163.481 17.7435C163.519 17.7208 163.534 17.7662 163.488 17.8343H163.458ZM181.126 20.194V22.0622C181.127 22.0754 181.125 22.0887 181.121 22.1011C181.116 22.1136 181.109 22.1249 181.1 22.1342C181.09 22.1436 181.079 22.1508 181.067 22.1554C181.054 22.1599 181.041 22.1616 181.028 22.1605H163.859C163.846 22.1616 163.832 22.1599 163.82 22.1554C163.808 22.1508 163.796 22.1436 163.787 22.1342C163.777 22.1249 163.77 22.1136 163.766 22.1011C163.761 22.0887 163.759 22.0754 163.761 22.0622V20.194C163.761 20.126 163.761 20.0957 163.859 20.0957H181.028C181.103 20.0957 181.156 20.126 181.156 20.194H181.126ZM172.307 13.7425L171.551 15.3384C171.541 15.351 171.528 15.3611 171.514 15.3681C171.499 15.3751 171.484 15.3788 171.468 15.3788C171.452 15.3788 171.436 15.3751 171.421 15.3681C171.407 15.3611 171.394 15.351 171.384 15.3384L164.661 11.8139C164.641 11.808 164.623 11.7976 164.609 11.7835C164.594 11.7694 164.583 11.7521 164.576 11.7329C164.57 11.7137 164.568 11.6932 164.571 11.6731C164.573 11.653 164.581 11.6339 164.593 11.6172L165.387 10.0138C165.432 9.95331 165.493 9.93819 165.583 10.0138L172.307 13.5761C172.375 13.5988 172.383 13.6518 172.337 13.7425H172.307ZM172.572 5.78593L171.816 7.38179C171.806 7.39779 171.792 7.41156 171.777 7.42223C171.761 7.4329 171.744 7.44025 171.725 7.4438C171.707 7.44736 171.688 7.44704 171.67 7.44288C171.651 7.43871 171.634 7.43079 171.619 7.41961L164.895 3.89511C164.827 3.84973 164.819 3.78166 164.857 3.6909L165.659 2.09504C165.669 2.08246 165.682 2.07228 165.696 2.06529C165.71 2.05829 165.726 2.05465 165.742 2.05465C165.758 2.05465 165.774 2.05829 165.788 2.06529C165.803 2.07228 165.815 2.08246 165.825 2.09504L172.549 5.64979C172.625 5.64223 172.647 5.70274 172.602 5.78593H172.572ZM177.322 0.332792V30.1095C177.322 30.1776 177.322 30.2078 177.223 30.2078H175.325C175.257 30.2078 175.227 30.2078 175.227 30.1473V0.294975C175.225 0.281772 175.227 0.268477 175.232 0.256024C175.236 0.24357 175.243 0.232261 175.253 0.22289C175.262 0.213519 175.273 0.206314 175.286 0.201781C175.298 0.197248 175.312 0.195498 175.325 0.196652H177.223C177.322 0.181526 177.322 0.242033 177.322 0.332792Z" fill="#04314D"/>
<path d="M194.331 6.11871V7.98685C194.333 8.00005 194.331 8.01334 194.326 8.0258C194.322 8.03825 194.315 8.04956 194.305 8.05893C194.296 8.0683 194.285 8.07551 194.272 8.08004C194.26 8.08457 194.246 8.08632 194.233 8.08517H184.454C184.363 8.08517 184.318 8.04735 184.318 7.98685V6.11871C184.318 6.05064 184.363 6.02039 184.454 6.02039H194.233C194.301 6.02039 194.331 6.05064 194.331 6.11871ZM194.331 16.1325V18.0309C194.331 18.099 194.331 18.1292 194.233 18.1292H184.454C184.363 18.1292 184.318 18.1292 184.318 18.0007V16.1703C184.315 16.1519 184.317 16.1331 184.323 16.1154C184.329 16.0978 184.339 16.0817 184.352 16.0686C184.365 16.0554 184.381 16.0454 184.399 16.0395C184.417 16.0335 184.435 16.0317 184.454 16.0342H194.233C194.246 16.033 194.26 16.0348 194.272 16.0393C194.285 16.0439 194.296 16.0511 194.305 16.0604C194.315 16.0698 194.322 16.0811 194.326 16.0936C194.331 16.106 194.333 16.1193 194.331 16.1325ZM190.641 0.249589V29.8145C190.65 29.8414 190.65 29.8709 190.641 29.8977H190.572H185.641C185.627 29.9001 185.613 29.8993 185.6 29.8953C185.586 29.8914 185.574 29.8843 185.564 29.8748C185.554 29.8653 185.546 29.8535 185.541 29.8405C185.536 29.8274 185.534 29.8133 185.535 29.7994V27.8783C185.534 27.8644 185.536 27.8504 185.541 27.8373C185.546 27.8242 185.554 27.8124 185.564 27.8029C185.574 27.7934 185.586 27.7864 185.6 27.7824C185.613 27.7784 185.627 27.7776 185.641 27.78H188.568V0.264716C188.568 0.196646 188.614 0.166392 188.697 0.166392H190.565C190.61 0.181519 190.641 0.18152 190.641 0.264716V0.249589ZM213.202 11.9122C213.202 11.9122 213.202 11.9122 213.202 11.9651C212.471 16.3643 210.437 20.443 207.363 23.6731C204.115 26.8959 200.065 29.1935 195.632 30.3288C195.615 30.336 195.596 30.339 195.578 30.3377C195.559 30.3363 195.541 30.3307 195.525 30.3212C195.509 30.3116 195.495 30.2985 195.485 30.2827C195.474 30.267 195.468 30.2491 195.466 30.2305L194.967 28.4304C194.964 28.4007 194.973 28.371 194.991 28.3473C195.009 28.3236 195.036 28.3074 195.065 28.3019C198.767 27.3465 202.193 25.5328 205.064 23.0076C207.701 20.5595 209.587 17.4116 210.502 13.9316H196.132C196.063 13.9316 196.033 13.9316 196.033 13.8333V12.0105C196.033 11.9425 196.033 11.9122 196.132 11.9122H213.134H213.202ZM214.162 4.3489V6.15653C214.162 6.21703 214.117 6.25485 214.034 6.25485H195.632C195.619 6.25601 195.606 6.25425 195.593 6.24972C195.581 6.24519 195.57 6.23798 195.56 6.22861C195.551 6.21924 195.544 6.20793 195.539 6.19548C195.535 6.18302 195.533 6.16973 195.534 6.15653V4.32621C195.534 4.25814 195.534 4.22789 195.632 4.22789H214.034C214.117 4.22789 214.162 4.25814 214.162 4.32621V4.3489ZM199.028 15.3081C200.439 18.5167 202.532 21.3791 205.162 23.6958C207.756 25.918 210.841 27.4916 214.162 28.2867C214.23 28.2867 214.261 28.3624 214.261 28.4531L213.799 30.2532C213.8 30.2713 213.798 30.2895 213.791 30.3064C213.785 30.3234 213.774 30.3387 213.762 30.3515C213.762 30.3515 213.709 30.3515 213.663 30.3515C210.039 29.4379 206.675 27.7013 203.831 25.2766C200.959 22.7789 198.671 19.6805 197.13 16.2006C197.085 16.1174 197.13 16.072 197.198 16.072L198.862 15.2703C198.874 15.2594 198.889 15.2517 198.905 15.2476C198.922 15.2436 198.938 15.2434 198.955 15.2471C198.971 15.2508 198.986 15.2582 198.999 15.2688C199.012 15.2794 199.022 15.2929 199.028 15.3081ZM205.949 0.105886V12.8425C205.949 12.9106 205.911 12.9408 205.843 12.9408H203.914C203.869 12.9408 203.846 12.9408 203.846 12.8425V0.0983223C203.846 0.0302526 203.846 0 203.914 0H205.843C205.911 0 205.949 0.0302526 205.949 0.0983223V0.105886Z" fill="#04314D"/>
<path d="M87.1519 43.1335H86.3048V33.8306H87.1519V43.1108V43.1335ZM90.9336 33.808H92L86.7738 39.8586L86.4258 38.9813L90.9033 33.7626L90.9336 33.808ZM92.537 43.1411H91.5235L87.5528 37.998L88.3772 37.7333L92.5521 43.1411C92.5521 43.1411 92.5445 43.1411 92.537 43.1411Z" fill="#04314D"/>
<path d="M94.2539 42.8082C93.7488 42.4948 93.3322 42.0574 93.0437 41.5376C92.7464 41.0009 92.5926 40.3965 92.5975 39.7829C92.5905 39.1788 92.7392 38.5832 93.0293 38.0533C93.3195 37.5234 93.7412 37.0772 94.2539 36.7576C94.7615 36.4475 95.3456 36.2851 95.9405 36.2887C96.531 36.2795 97.1097 36.4539 97.5968 36.7879C98.079 37.1131 98.4676 37.559 98.7238 38.0812C98.9924 38.6015 99.1326 39.1785 99.1326 39.764C99.1326 40.3495 98.9924 40.9266 98.7238 41.4468C98.4699 41.9726 98.081 42.4215 97.5968 42.7477C97.1097 43.0816 96.531 43.2561 95.9405 43.2469C95.3485 43.2596 94.7646 43.1077 94.2539 42.8082ZM97.3397 42.1578C97.7365 41.9279 98.0592 41.5894 98.27 41.1821C98.4915 40.753 98.6071 40.2772 98.6071 39.7943C98.6071 39.3114 98.4915 38.8355 98.27 38.4064C98.0541 38.0003 97.7294 37.6624 97.3321 37.4307C96.9252 37.1892 96.459 37.0661 95.9859 37.0753C95.5416 37.0683 95.105 37.1919 94.7304 37.4307C94.3455 37.6683 94.0319 38.0054 93.8228 38.4064C93.6012 38.8355 93.4856 39.3114 93.4856 39.7943C93.4856 40.2772 93.6012 40.753 93.8228 41.1821C94.0297 41.5847 94.3438 41.9223 94.7304 42.1578C95.107 42.3923 95.5422 42.5156 95.9859 42.5133C96.461 42.5195 96.9289 42.3967 97.3397 42.1578ZM99.4196 43.1335H98.5801V40.6905L98.7843 39.8207L98.5801 38.9963V36.4853H99.4196V43.0956C99.4196 43.0956 99.4196 43.1259 99.4196 43.1335Z" fill="#04314D"/>
<path d="M101.326 38.3006C101.544 37.738 101.907 37.2426 102.377 36.8636C102.834 36.4996 103.404 36.307 103.988 36.319C104.396 36.3174 104.794 36.4473 105.122 36.6896C105.484 36.9524 105.769 37.3077 105.947 37.7182C106.159 38.1936 106.262 38.7104 106.249 39.2309V43.126H105.425V39.2082C105.431 38.8319 105.359 38.4585 105.213 38.1115C105.091 37.8112 104.89 37.5497 104.631 37.3552C104.41 37.1966 104.146 37.1071 103.874 37.098C103.478 37.0865 103.088 37.2032 102.763 37.4308C102.454 37.6685 102.218 37.9883 102.082 38.3535C101.916 38.7956 101.836 39.2655 101.847 39.7376L101.008 40.1914C100.992 39.5466 101.1 38.9047 101.326 38.3006ZM101.794 43.1335H100.97V36.4854H101.794V43.0957C101.794 43.0957 101.802 43.126 101.794 43.1335ZM105.773 38.3157C105.992 37.7535 106.355 37.2582 106.824 36.8787C107.287 36.5154 107.862 36.323 108.45 36.3341C108.851 36.3318 109.244 36.4504 109.577 36.6745C109.934 36.924 110.218 37.2632 110.402 37.6577C110.612 38.115 110.715 38.6142 110.704 39.1174V43.1335H109.887V39.1174C109.895 38.7475 109.82 38.3805 109.668 38.0434C109.539 37.7699 109.338 37.5371 109.085 37.3703C108.85 37.2147 108.574 37.133 108.291 37.1358C107.898 37.1216 107.51 37.2357 107.187 37.4611C106.87 37.6958 106.631 38.0197 106.499 38.3914C106.328 38.8322 106.245 39.3026 106.257 39.7754L105.417 40.2217C105.411 39.5693 105.532 38.922 105.773 38.3157Z" fill="#04314D"/>
<path d="M114.546 42.8612L111.665 36.4854H112.519C112.519 36.4854 112.565 36.4854 112.557 36.4854L115.318 42.6873L114.546 42.8612ZM113.858 45.9924H113.034L117.284 36.4854H118.139L113.835 45.9697L113.858 45.9924Z" fill="#04314D"/>
<path d="M120.362 42.8082C119.857 42.4948 119.441 42.0574 119.152 41.5376C118.855 41.0009 118.701 40.3965 118.706 39.7829C118.699 39.1788 118.848 38.5832 119.138 38.0533C119.428 37.5234 119.85 37.0772 120.362 36.7576C120.87 36.4475 121.454 36.2851 122.049 36.2887C122.639 36.2795 123.218 36.4539 123.705 36.7879C124.188 37.1131 124.576 37.559 124.832 38.0812C125.096 38.6031 125.233 39.1795 125.233 39.764C125.233 40.3486 125.096 40.9249 124.832 41.4468C124.578 41.9726 124.19 42.4215 123.705 42.7477C123.218 43.0816 122.639 43.2561 122.049 43.2469C121.457 43.2596 120.873 43.1077 120.362 42.8082ZM123.448 42.1578C123.841 41.9235 124.163 41.5861 124.378 41.1821C124.6 40.753 124.716 40.2772 124.716 39.7943C124.716 39.3114 124.6 38.8355 124.378 38.4064C124.158 37.9986 123.83 37.659 123.43 37.4244C123.03 37.1898 122.573 37.069 122.11 37.0753C121.665 37.0683 121.229 37.1919 120.854 37.4307C120.469 37.6683 120.156 38.0054 119.946 38.4064C119.725 38.8355 119.609 39.3114 119.609 39.7943C119.609 40.2772 119.725 40.753 119.946 41.1821C120.153 41.5847 120.467 41.9223 120.854 42.1578C121.228 42.4003 121.664 42.5315 122.11 42.536C122.582 42.5326 123.044 42.402 123.448 42.1578ZM125.505 43.1335H124.666V40.6905L124.87 39.8207L124.666 38.9963V36.4853H125.505V43.0956C125.505 43.0956 125.513 43.1259 125.505 43.1335Z" fill="#04314D"/>
<path d="M127.464 38.3082C127.706 37.7377 128.092 37.2398 128.584 36.8636C129.062 36.5018 129.648 36.3101 130.248 36.319C130.685 36.3234 131.112 36.4576 131.473 36.7048C131.869 36.966 132.194 37.3222 132.418 37.7409C132.662 38.1914 132.786 38.6963 132.781 39.2082V43.1336H131.942V39.2082C131.947 38.8349 131.853 38.4669 131.67 38.1418C131.507 37.8337 131.267 37.5731 130.974 37.3855C130.707 37.2084 130.394 37.1138 130.074 37.1132C129.668 37.105 129.269 37.2211 128.932 37.446C128.594 37.6787 128.331 38.0046 128.175 38.3838C127.993 38.8169 127.903 39.283 127.911 39.7528L127.071 40.2066C127.067 39.5532 127.201 38.9063 127.464 38.3082ZM127.903 43.1336H127.079V36.4854H127.903V43.0957C127.903 43.0957 127.911 43.126 127.903 43.1336Z" fill="#04314D"/>
<path d="M135.761 42.8083C135.252 42.4963 134.835 42.0553 134.551 41.5301C134.252 40.9968 134.098 40.3944 134.105 39.783C134.099 39.1837 134.253 38.5937 134.551 38.0737C134.833 37.5491 135.251 37.1101 135.761 36.8031C136.264 36.489 136.847 36.3262 137.44 36.3341C138.03 36.3262 138.607 36.4976 139.097 36.8257C139.579 37.1526 139.97 37.5979 140.231 38.1191C140.495 38.6395 140.632 39.2147 140.632 39.7981C140.632 40.3816 140.495 40.9568 140.231 41.4772C139.974 42.0032 139.583 42.452 139.097 42.7781C138.61 43.112 138.031 43.2864 137.44 43.2772C136.848 43.2814 136.266 43.1189 135.761 42.8083ZM134.211 44.268L134.839 43.8521C135.125 44.2617 135.497 44.6048 135.928 44.858C136.394 45.1009 136.915 45.2182 137.44 45.1983C137.892 45.2038 138.338 45.0917 138.734 44.8731C139.125 44.6544 139.45 44.3327 139.671 43.9428C139.912 43.5191 140.035 43.0385 140.027 42.5512V40.6301L140.178 39.783L140.027 38.9586V36.4854H140.851V42.536C140.859 43.1586 140.694 43.7712 140.375 44.3059C140.083 44.8216 139.664 45.2539 139.157 45.5614C138.644 45.8548 138.062 46.0086 137.471 46.0076C136.794 46.0309 136.123 45.8743 135.527 45.5538C135.003 45.2309 134.555 44.8003 134.211 44.2907C134.211 44.2907 134.165 44.2756 134.211 44.268ZM138.877 42.1579C139.274 41.928 139.597 41.5895 139.808 41.1822C140.029 40.7531 140.145 40.2772 140.145 39.7943C140.145 39.3114 140.029 38.8356 139.808 38.4065C139.594 38.003 139.272 37.6675 138.877 37.4384C138.468 37.2022 138.003 37.0795 137.531 37.0829C137.083 37.0767 136.644 37.203 136.268 37.4459C135.887 37.683 135.577 38.0172 135.368 38.414C135.142 38.8345 135.028 39.3058 135.035 39.783C135.027 40.27 135.141 40.7512 135.368 41.1822C135.571 41.5824 135.88 41.9197 136.26 42.1579C136.642 42.3944 137.082 42.5177 137.531 42.5134C137.991 42.5101 138.441 42.3876 138.84 42.1579H138.877Z" fill="#04314D"/>
<path d="M152.635 33.8156V34.6475H145.979V33.8912H152.635V33.8156ZM149.746 43.1335H148.876V34.2164H149.753V43.1335H149.746Z" fill="#04314D"/>
<path d="M158.822 40.0022H158.065C158.083 39.4473 157.964 38.8965 157.718 38.3988C157.517 37.9835 157.199 37.6363 156.802 37.4005C156.414 37.1837 155.976 37.0717 155.532 37.0752C155.038 37.0661 154.55 37.1777 154.11 37.4005C153.712 37.6159 153.389 37.9451 153.18 38.3459C152.953 38.7877 152.842 39.2792 152.854 39.7753C152.841 40.2764 152.953 40.7728 153.18 41.2199C153.391 41.6257 153.721 41.9579 154.125 42.1729C154.574 42.4032 155.073 42.5176 155.577 42.5057C156.093 42.5066 156.599 42.3624 157.037 42.0897C157.476 41.8177 157.831 41.4306 158.065 40.9704H158.103L158.731 41.3636C158.418 41.9289 157.958 42.3992 157.4 42.725C156.845 43.0677 156.206 43.2485 155.554 43.2469C154.91 43.2593 154.274 43.1029 153.709 42.7931C153.184 42.5027 152.751 42.0702 152.461 41.5452C152.166 40.9952 152.011 40.3807 152.011 39.7564C152.011 39.1322 152.166 38.5177 152.461 37.9677C152.751 37.4491 153.181 37.022 153.701 36.7349C154.256 36.4338 154.878 36.2802 155.509 36.2887C156.081 36.2871 156.644 36.433 157.143 36.7122C157.681 37.0101 158.122 37.4564 158.413 37.998C158.736 38.6098 158.893 39.2958 158.867 39.9871C158.867 39.9871 158.829 40.0022 158.822 40.0022ZM158.428 40.0022H152.559V39.2989H158.413L158.428 40.0022Z" fill="#04314D"/>
<path d="M165.697 41.1821L166.325 41.6057C166.004 42.0855 165.573 42.4822 165.069 42.7629C164.553 43.0639 163.965 43.2206 163.367 43.2167C162.756 43.2191 162.155 43.0571 161.628 42.7477C161.106 42.4384 160.671 42.0011 160.365 41.4771C160.053 40.9477 159.888 40.3445 159.888 39.73C159.888 39.1155 160.053 38.5123 160.365 37.9829C160.669 37.4593 161.104 37.024 161.628 36.7198C162.156 36.4127 162.757 36.2533 163.367 36.2584C163.97 36.2533 164.563 36.41 165.084 36.7122C165.616 37.0212 166.057 37.4646 166.362 37.998L165.712 38.414C165.477 38.0133 165.141 37.6819 164.736 37.4534C164.344 37.2321 163.9 37.1198 163.451 37.1282C162.979 37.1229 162.514 37.2429 162.104 37.4761C161.708 37.7012 161.381 38.0308 161.159 38.4291C160.93 38.8459 160.812 39.3149 160.818 39.7905C160.811 40.2735 160.928 40.7503 161.159 41.1746C161.381 41.5749 161.707 41.9071 162.104 42.1351C162.514 42.3683 162.979 42.4884 163.451 42.483C163.901 42.487 164.344 42.3722 164.736 42.1502C165.137 41.9164 165.481 41.596 165.742 41.2124L165.697 41.1821Z" fill="#04314D"/>
<path d="M168.246 43.1335H167.489V33.634H168.246V43.1033C168.246 43.1033 168.283 43.126 168.246 43.1335ZM167.807 38.3082C168.048 37.7377 168.434 37.2398 168.926 36.8636C169.405 36.5018 169.99 36.3101 170.59 36.319C171.028 36.3224 171.455 36.4568 171.816 36.7047C172.22 36.9631 172.553 37.3195 172.784 37.7409C173.027 38.1914 173.152 38.6963 173.147 39.2082V43.1335H172.315V39.2082C172.32 38.8349 172.226 38.4669 172.042 38.1418C171.88 37.8337 171.64 37.5731 171.347 37.3854C171.08 37.2084 170.767 37.1137 170.447 37.1132C170.041 37.105 169.642 37.2211 169.305 37.4459C168.967 37.6787 168.704 38.0045 168.548 38.3838C168.366 38.8169 168.276 39.283 168.283 39.7527L167.444 40.2065C167.44 39.5531 167.574 38.9063 167.837 38.3082H167.807Z" fill="#04314D"/>
<path d="M175.113 38.3082C175.352 37.7382 175.735 37.2403 176.225 36.8636C176.703 36.5018 177.289 36.3101 177.889 36.319C178.327 36.321 178.754 36.4555 179.114 36.7048C179.513 36.9656 179.84 37.3217 180.067 37.7409C180.31 38.1914 180.435 38.6963 180.43 39.2082V43.1033H179.591V39.2082C179.596 38.8349 179.502 38.4669 179.318 38.1418C179.151 37.8371 178.912 37.5775 178.622 37.3855C178.353 37.209 178.037 37.1145 177.715 37.1132C177.309 37.106 176.911 37.222 176.573 37.446C176.241 37.6847 175.979 38.0087 175.816 38.3838C175.637 38.8175 175.55 39.2836 175.559 39.7528L174.712 40.2066C174.711 39.5526 174.848 38.9058 175.113 38.3082ZM175.552 43.1336H174.72V36.4854H175.552V43.0957C175.552 43.0957 175.552 43.126 175.552 43.1336Z" fill="#04314D"/>
<path d="M183.486 42.8083C182.963 42.4972 182.526 42.0604 182.215 41.5377C181.905 41.0108 181.743 40.4097 181.746 39.7981C181.742 39.1818 181.904 38.5758 182.215 38.0435C182.524 37.5213 182.962 37.0866 183.486 36.7804C184.013 36.4723 184.614 36.3128 185.225 36.319C185.838 36.3141 186.442 36.4734 186.972 36.7804C187.499 37.0803 187.936 37.5166 188.235 38.0435C188.546 38.5758 188.708 39.1818 188.704 39.7981C188.708 40.4097 188.546 41.0108 188.235 41.5377C187.924 42.0604 187.488 42.4972 186.965 42.8083C186.436 43.1152 185.836 43.2768 185.225 43.2768C184.614 43.2768 184.014 43.1152 183.486 42.8083ZM186.564 42.1428C186.959 41.9116 187.283 41.5768 187.502 41.1747C187.736 40.754 187.856 40.2795 187.85 39.7981C187.857 39.3153 187.739 38.8387 187.509 38.4141C187.291 38.0119 186.967 37.6772 186.572 37.446C186.168 37.2105 185.708 37.0902 185.24 37.098C184.766 37.0891 184.298 37.2094 183.887 37.446C183.493 37.6792 183.169 38.0135 182.949 38.4141C182.72 38.8383 182.601 39.3126 182.601 39.7944C182.601 40.2762 182.72 40.7504 182.949 41.1747C183.167 41.5768 183.492 41.9116 183.887 42.1428C184.294 42.3756 184.756 42.498 185.225 42.498C185.695 42.498 186.156 42.3756 186.564 42.1428Z" fill="#04314D"/>
<path d="M190.936 43.1335H190.104V33.634H190.936V43.1033C190.936 43.1033 190.936 43.126 190.936 43.1335Z" fill="#04314D"/>
<path d="M194.006 42.8083C193.484 42.499 193.049 42.0617 192.743 41.5376C192.427 41.0127 192.262 40.4107 192.267 39.7981C192.262 39.1806 192.427 38.5738 192.743 38.0434C193.047 37.5198 193.483 37.0845 194.006 36.7803C194.538 36.478 195.138 36.319 195.75 36.319C196.361 36.319 196.962 36.478 197.493 36.7803C198.025 37.0841 198.467 37.5248 198.771 38.0568C199.076 38.5888 199.233 39.1927 199.225 39.8056C199.232 40.4176 199.07 41.0197 198.756 41.5452C198.449 42.0714 198.012 42.5092 197.485 42.8158C196.957 43.1227 196.357 43.2843 195.746 43.2843C195.135 43.2843 194.535 43.1227 194.006 42.8158V42.8083ZM197.085 42.1427C197.482 41.912 197.809 41.5773 198.03 41.1746C198.258 40.752 198.375 40.2783 198.37 39.7981C198.376 39.3163 198.262 38.8406 198.037 38.414C197.817 38.0134 197.493 37.6792 197.1 37.4459C196.689 37.2174 196.227 37.0975 195.757 37.0975C195.287 37.0975 194.825 37.2174 194.415 37.4459C194.017 37.6766 193.69 38.0113 193.469 38.414C193.241 38.8382 193.121 39.3125 193.121 39.7943C193.121 40.2761 193.241 40.7504 193.469 41.1746C193.688 41.5789 194.016 41.9142 194.415 42.1427C194.821 42.3756 195.281 42.4981 195.75 42.4981C196.218 42.4981 196.678 42.3756 197.085 42.1427Z" fill="#04314D"/>
<path d="M201.963 42.8083C201.456 42.4941 201.039 42.0537 200.753 41.5301C200.457 40.9954 200.304 40.3939 200.306 39.783C200.309 39.1828 200.468 38.5936 200.768 38.0737C201.052 37.5508 201.47 37.1124 201.978 36.803C202.484 36.49 203.069 36.3273 203.665 36.3341C204.254 36.3262 204.831 36.4976 205.321 36.8257C205.801 37.153 206.189 37.5984 206.448 38.1191C206.716 38.638 206.857 39.2138 206.857 39.7981C206.857 40.3824 206.716 40.9582 206.448 41.4772C206.19 42.0048 205.796 42.4539 205.306 42.7781C204.819 43.112 204.24 43.2864 203.649 43.2772C203.055 43.2808 202.471 43.1184 201.963 42.8083ZM200.375 44.268L201.002 43.852C201.288 44.2595 201.657 44.6023 202.084 44.858C202.551 45.0993 203.071 45.2165 203.597 45.1983C204.049 45.2038 204.494 45.0917 204.89 44.8731C205.284 44.6545 205.61 44.333 205.835 43.9428C206.074 43.5185 206.194 43.0378 206.183 42.5512V40.6301L206.334 39.783L206.183 38.9586V36.4854H207.015V42.536C207.023 43.1586 206.858 43.7712 206.539 44.3058C206.235 44.8178 205.804 45.2419 205.286 45.5363C204.769 45.8307 204.184 45.9853 203.589 45.9849C202.915 46.0091 202.246 45.8524 201.653 45.5311C201.117 45.2141 200.655 44.786 200.299 44.2756L200.375 44.268ZM205.041 42.1579C205.438 41.9258 205.763 41.5881 205.979 41.1822C206.2 40.7531 206.316 40.2772 206.316 39.7943C206.316 39.3114 206.2 38.8356 205.979 38.4065C205.76 38.0043 205.436 37.6696 205.041 37.4384C204.635 37.2011 204.173 37.0782 203.702 37.0829C203.255 37.0767 202.815 37.203 202.439 37.4459C202.055 37.6805 201.741 38.0151 201.532 38.414C201.309 38.8358 201.195 39.3062 201.199 39.783C201.196 40.2694 201.31 40.7493 201.532 41.1822C201.738 41.5827 202.049 41.9198 202.432 42.1579C202.813 42.3955 203.254 42.5189 203.702 42.5133C204.173 42.518 204.635 42.3951 205.041 42.1579Z" fill="#04314D"/>
<path d="M210.956 42.8612L208.044 36.4854H208.898C208.936 36.4854 208.944 36.4854 208.936 36.4854L211.697 42.6873L210.956 42.8612ZM210.275 45.9924H209.367L213.671 36.4854C213.671 36.4854 213.671 36.4854 213.709 36.4854H214.563L210.252 45.9697L210.275 45.9924Z" fill="#04314D"/>
</g>
<defs>
<clipPath id="clip0_300_254">
<rect width="214.601" height="46" fill="white"/>
</clipPath>
</defs>
</svg>
