<svg width="46" height="46" viewBox="0 0 46 46" fill="none" xmlns="http://www.w3.org/2000/svg">
<path d="M2 34.6693H10.1587C10.1587 34.6693 10.6206 12.6537 17.9635 13.789C17.9635 13.789 13.0165 10.2924 8.5788 13.7502C4.14113 17.2079 2.45758 26.5926 2 34.6693Z" fill="#04314D"/>
<path d="M19.1377 19.0425C16.9688 21.7428 15.4875 24.9291 14.8209 28.3279C14.8209 28.3279 19.8931 37.6608 33.0593 34.9067C33.0593 34.9067 23.1652 34.1426 19.1377 19.0425Z" fill="#04314D"/>
<path d="M13.8841 10.4262C13.8841 10.4262 22.6559 10.7284 27.5511 26.2343C27.5511 26.2343 31.6823 20.6225 31.9413 16.9014C31.9413 16.9014 27.0935 7.97429 13.8841 10.4262Z" fill="#04314D"/>
<path d="M36.3271 10.7802H44.6413C44.6413 10.7802 44.9435 27.0502 36.9358 32.4073C33.0507 34.4491 28.7771 31.6432 28.7771 31.6432C28.7771 31.6432 32.2305 31.8979 34.1817 26.5408C36.1329 21.1836 36.53 14.0954 36.3271 10.7802Z" fill="#04314D"/>
</svg>
