<svg width="46" height="46" viewBox="0 0 46 46" fill="none" xmlns="http://www.w3.org/2000/svg">
<g clip-path="url(#clip0_356_14017)">
<path d="M45.0395 0.924464C45.0395 0.916987 45.0365 0.909816 45.0311 0.904528C45.0258 0.899241 45.0185 0.896271 45.011 0.896271H1.16914C1.16158 0.896271 1.15432 0.899241 1.14898 0.904528C1.14363 0.909816 1.14063 0.916987 1.14062 0.924464V44.2283C1.14062 44.2357 1.14363 44.2429 1.14898 44.2482C1.15432 44.2535 1.16158 44.2565 1.16914 44.2565H45.011C45.0185 44.2565 45.0258 44.2535 45.0311 44.2482C45.0365 44.2429 45.0395 44.2357 45.0395 44.2283V0.924464Z" stroke="#D4E597" stroke-width="2"/>
<path d="M14.8206 9.52721C14.8201 9.52474 14.8216 9.51287 14.8251 9.4916C14.8266 9.47973 14.8311 9.4686 14.8386 9.45821C15.1352 9.03382 15.3896 8.59954 15.6017 8.15537C15.6593 8.03518 15.6252 7.95184 15.4997 7.90534L14.1902 7.41937C14.0912 7.38228 14.0174 7.41047 13.9688 7.50395C13.6532 8.11036 13.341 8.7274 13.0323 9.35508C12.9633 9.49654 12.8778 9.56629 12.7757 9.56431C11.2449 9.53834 9.71253 9.56431 8.1817 9.55021C8.17054 9.55008 8.15947 9.55225 8.14919 9.55659C8.13891 9.56092 8.12964 9.56733 8.12196 9.57541C8.11428 9.58349 8.10836 9.59307 8.10456 9.60354C8.10077 9.61402 8.09918 9.62516 8.09991 9.63628L8.15468 10.4902C8.15762 10.5344 8.17698 10.576 8.20901 10.6068C8.24103 10.6377 8.28344 10.6556 8.32803 10.6572C8.77902 10.6742 9.30281 10.6431 9.67801 10.6438C10.3664 10.6463 11.055 10.6478 11.7439 10.6483C11.7964 10.6483 11.8439 10.6557 11.8865 10.6705C11.8999 10.6752 11.912 10.6829 11.9218 10.6932C11.9315 10.7035 11.9386 10.716 11.9423 10.7296C11.9461 10.7432 11.9465 10.7574 11.9434 10.7712C11.9403 10.785 11.9339 10.7978 11.9247 10.8085C11.8742 10.8679 11.8197 10.9245 11.7611 10.9784C10.8246 11.845 10.0007 12.6656 8.82855 13.3511C8.30927 13.6548 7.77473 13.9405 7.22493 14.2081C7.18141 14.2289 7.16965 14.261 7.18966 14.3045C7.28646 14.5182 7.41028 14.8172 7.59038 14.976C7.59973 14.984 7.6109 14.9899 7.62301 14.9929C7.63512 14.996 7.64783 14.9963 7.66017 14.9938C7.78573 14.9661 7.93457 14.9149 8.10666 14.8402C9.13472 14.3926 10.0717 13.9217 10.9177 13.4276C11.1323 13.3022 11.3252 13.1338 11.5345 12.9854C12.3615 12.3992 13.1216 11.6046 13.7835 10.8434C13.8405 10.7774 13.9223 10.6601 14.0139 10.6616C14.4846 10.6686 14.9564 10.6589 15.4291 10.6327C15.7586 10.6141 15.8809 10.6735 16.061 10.9258C16.7198 11.848 17.6466 12.6745 18.6874 13.3868C19.5421 13.9707 20.5567 14.3921 21.4842 14.8818C21.5086 14.8946 21.5369 14.8984 21.5638 14.8924C21.5908 14.8864 21.6148 14.8711 21.6313 14.8491C21.8834 14.5138 22.2021 14.2323 22.5873 14.0048C22.7944 13.8824 22.9355 13.6012 22.6818 13.4439C22.6368 13.4162 22.5237 13.3764 22.3426 13.3244C20.6152 12.8296 18.8112 12.1544 17.4635 10.928C17.418 10.8869 17.388 10.8427 17.3734 10.7952C17.3686 10.78 17.3675 10.7639 17.3701 10.7482C17.3727 10.7325 17.379 10.7177 17.3885 10.7048C17.398 10.692 17.4104 10.6815 17.4247 10.6743C17.4391 10.667 17.4549 10.6632 17.471 10.6631L21.5757 10.6394C21.5911 10.6393 21.6063 10.6361 21.6204 10.63C21.6344 10.6238 21.6471 10.6148 21.6574 10.6036C21.6678 10.5924 21.6757 10.5791 21.6806 10.5647C21.6855 10.5503 21.6874 10.5351 21.686 10.5199C21.6553 10.1875 21.7288 9.95828 21.4166 9.74682C21.2058 9.60437 20.5582 9.15995 20.3698 9.30166C20.0029 9.57915 19.6877 9.53982 19.2855 9.54279C18.0243 9.55367 16.7634 9.54774 15.5027 9.52499C15.3051 9.52152 15.1065 9.53982 14.9069 9.57989C14.8884 9.58374 14.8691 9.58042 14.8531 9.57061C14.837 9.5608 14.8254 9.54527 14.8206 9.52721Z" stroke="#D4E597" stroke-width="2"/>
<path d="M37.5752 11.3731C37.5882 11.3823 37.5979 11.3954 37.6029 11.4103C37.6079 11.4253 37.6079 11.4414 37.6029 11.4562C37.4589 11.888 37.3561 12.3295 37.2945 12.7806C37.29 12.8148 37.297 12.8495 37.3145 12.8793C37.332 12.9091 37.359 12.9323 37.3913 12.9453C37.6165 13.0366 38.1252 13.1968 38.2686 12.9097C38.4752 12.4982 38.6978 12.0953 38.9364 11.7011C39.1653 11.3219 39.3469 10.9562 39.548 10.5793C39.5522 10.5714 39.553 10.5622 39.5504 10.5536C39.5477 10.545 39.5418 10.5377 39.5337 10.5333C39.2351 10.3686 38.9244 10.2825 38.6145 10.1593C38.4584 10.0978 38.156 9.93156 38.0059 10.0503C37.8358 10.1848 37.6397 10.2533 37.4176 10.2558C35.9318 10.2721 34.4437 10.2513 32.9572 10.2506C32.8406 10.2501 32.7808 10.1925 32.7778 10.0777L32.7583 9.33505C32.7579 9.32125 32.7603 9.30752 32.7654 9.29467C32.7704 9.28181 32.7781 9.27009 32.7878 9.2602C32.7975 9.2503 32.8091 9.24244 32.822 9.23707C32.8349 9.23171 32.8487 9.22894 32.8626 9.22895L37.7455 9.21411C37.7644 9.21412 37.783 9.21037 37.8004 9.2031C37.8178 9.19582 37.8335 9.18516 37.8466 9.17174C37.8598 9.15833 37.8701 9.14243 37.877 9.12498C37.8838 9.10754 37.8871 9.0889 37.8866 9.07017L37.8761 8.70143C37.8751 8.67039 37.8665 8.64007 37.8509 8.61315C37.8353 8.58624 37.8133 8.56356 37.7868 8.54711L36.7632 7.90979C36.74 7.89529 36.7131 7.88748 36.6855 7.88721C36.658 7.88695 36.6308 7.89425 36.6072 7.9083C36.3468 8.06263 36.0939 8.19246 35.7757 8.19543C32.6885 8.22214 29.6028 8.18876 26.5142 8.21547C26.5008 8.2156 26.4876 8.21849 26.4755 8.22395C26.4633 8.2294 26.4524 8.2373 26.4436 8.24715C26.4347 8.25699 26.4279 8.26856 26.4238 8.28112C26.4197 8.29368 26.4183 8.30694 26.4196 8.32008L26.4924 9.0635C26.5029 9.16836 26.5617 9.22128 26.6688 9.22227L31.0797 9.25269C31.0963 9.25278 31.1128 9.25618 31.1282 9.26269C31.1435 9.2692 31.1573 9.27869 31.1689 9.29059C31.1804 9.30249 31.1894 9.31657 31.1954 9.33198C31.2013 9.34739 31.2041 9.36382 31.2035 9.3803L31.1757 10.1304C31.1743 10.1701 31.1575 10.2078 31.1288 10.2354C31.1001 10.2629 31.0617 10.2782 31.0219 10.278L26.6823 10.2558C26.6694 10.2558 26.6567 10.2527 26.6452 10.2469C26.6338 10.241 26.6239 10.2326 26.6164 10.2222C26.6089 10.2118 26.6041 10.1998 26.6022 10.1872C26.6003 10.1746 26.6015 10.1617 26.6057 10.1497C26.6232 10.0987 26.6315 10.0466 26.6305 9.99314C26.6301 9.97898 26.6244 9.96545 26.6144 9.95517C26.6045 9.94489 26.5909 9.93859 26.5765 9.9375C26.3458 9.92216 26.1135 9.90906 25.8793 9.89817C25.7285 9.8915 25.6647 9.96717 25.6317 10.0985C25.4726 10.7336 25.2342 11.3375 24.9166 11.9103C24.738 12.2323 24.5286 12.6033 24.4603 12.9668C24.4288 13.133 24.4986 13.1842 24.6149 13.2807C24.8453 13.4713 25.0494 13.5982 25.36 13.5366C26.271 13.3549 26.4909 12.2279 26.5735 11.4651C26.5748 11.4523 26.5799 11.4401 26.5882 11.4299C26.5964 11.4198 26.6075 11.4122 26.62 11.408C26.693 11.3828 26.7808 11.3707 26.8834 11.3717C28.2651 11.3796 29.6469 11.3761 31.0286 11.3613C31.0465 11.3611 31.0642 11.3644 31.0807 11.3712C31.0973 11.3779 31.1123 11.3878 31.1249 11.4004C31.1374 11.413 31.1474 11.428 31.154 11.4444C31.1607 11.4609 31.164 11.4785 31.1637 11.4963C31.1447 12.5499 31.1467 13.5836 31.1697 14.5976C31.1722 14.7089 31.1825 14.8276 31.2005 14.9537C31.2037 14.9759 31.2151 14.9961 31.2324 15.0106C31.2496 15.025 31.2716 15.0328 31.2943 15.0324C31.6777 15.0249 32.7636 15.1103 32.7703 14.4678C32.7808 13.4963 32.7746 12.51 32.7516 11.5089C32.751 11.48 32.7615 11.4519 32.7808 11.4304C32.8001 11.4088 32.8269 11.3952 32.8559 11.3924C32.9729 11.3816 33.102 11.3759 33.2431 11.3754C34.6563 11.3709 36.0696 11.3623 37.4829 11.3494C37.5209 11.3489 37.5517 11.3568 37.5752 11.3731Z" stroke="#D4E597" stroke-width="2"/>
<path d="M27.1317 12.1707L27.1272 12.8874C27.1271 12.8995 27.1295 12.9115 27.134 12.9227C27.1386 12.9339 27.1454 12.9441 27.154 12.9527C27.1625 12.9613 27.1727 12.9682 27.184 12.9729C27.1952 12.9776 27.2073 12.9801 27.2195 12.9802L30.4531 13.0024C30.4713 13.0026 30.4894 13.0004 30.5063 12.996C30.5233 12.9917 30.5386 12.9852 30.5516 12.977C30.5646 12.9688 30.5749 12.959 30.5819 12.9482C30.5889 12.9374 30.5926 12.9259 30.5926 12.9141L30.5971 12.1915C30.5972 12.1679 30.5827 12.1453 30.5568 12.1284C30.531 12.1116 30.4958 12.102 30.4591 12.1017L27.2255 12.0795C27.2133 12.0794 27.2012 12.0817 27.1899 12.0862C27.1786 12.0907 27.1682 12.0974 27.1595 12.1059C27.1508 12.1144 27.1439 12.1245 27.1391 12.1356C27.1344 12.1467 27.1318 12.1586 27.1317 12.1707Z" stroke="#D4E590" stroke-width="2"/>
<path d="M36.8566 12.213C36.8565 12.1843 36.8448 12.1568 36.8242 12.1365C36.8036 12.1163 36.7757 12.105 36.7466 12.1051L33.5184 12.1162C33.504 12.1163 33.4898 12.1191 33.4765 12.1246C33.4632 12.1301 33.4512 12.1381 33.4411 12.1482C33.4309 12.1583 33.4229 12.1703 33.4174 12.1834C33.412 12.1966 33.4092 12.2107 33.4092 12.2249L33.4116 12.8897C33.4117 12.9184 33.4233 12.9459 33.444 12.9662C33.4646 12.9864 33.4925 12.9977 33.5215 12.9976L36.7498 12.9865C36.7642 12.9864 36.7784 12.9836 36.7917 12.9781C36.8049 12.9726 36.817 12.9646 36.8271 12.9545C36.8373 12.9444 36.8453 12.9324 36.8507 12.9193C36.8562 12.9061 36.859 12.892 36.8589 12.8778L36.8566 12.213Z" stroke="#D4E590" stroke-width="2"/>
<path d="M16.9457 13.0247C16.7371 13.2844 16.0948 13.2287 15.7961 13.231C14.4454 13.2423 13.0946 13.249 11.7439 13.251C11.6638 13.251 11.5873 13.2549 11.5143 13.2629C11.4838 13.2662 11.4558 13.2813 11.4363 13.3048C11.4169 13.3284 11.4074 13.3586 11.41 13.389C11.4355 13.6709 11.53 13.9388 11.5458 14.2311C11.5473 14.2615 11.5606 14.2902 11.5828 14.3112C11.605 14.3322 11.6345 14.3439 11.6651 14.3439L18.2619 14.3513C18.2758 14.3512 18.2896 14.3483 18.3023 14.3428C18.315 14.3372 18.3264 14.3291 18.3357 14.319C18.345 14.3088 18.3521 14.2969 18.3564 14.284C18.3608 14.271 18.3623 14.2573 18.361 14.2437C18.331 13.9425 18.337 13.5737 18.021 13.435C17.7224 13.3039 17.4365 13.1548 17.1633 12.9876C17.1285 12.9665 17.0871 12.9586 17.047 12.9654C17.007 12.9723 16.9709 12.9934 16.9457 13.0247Z" stroke="#D4E597" stroke-width="2"/>
<path d="M36.8212 13.806C36.8212 13.7934 36.8186 13.781 36.8138 13.7693C36.8089 13.7577 36.8017 13.7472 36.7927 13.7383C36.7837 13.7295 36.773 13.7224 36.7613 13.7176C36.7495 13.7128 36.7369 13.7104 36.7242 13.7104L33.5095 13.716C33.4968 13.716 33.4842 13.7185 33.4724 13.7233C33.4607 13.7281 33.4501 13.7352 33.4411 13.7441C33.4321 13.753 33.425 13.7636 33.4201 13.7752C33.4153 13.7868 33.4128 13.7993 33.4128 13.8118L33.414 14.4677C33.414 14.4803 33.4165 14.4927 33.4214 14.5043C33.4263 14.5159 33.4335 14.5265 33.4425 14.5353C33.4515 14.5442 33.4622 14.5512 33.4739 14.556C33.4857 14.5608 33.4983 14.5633 33.511 14.5633L36.7257 14.5577C36.7384 14.5577 36.751 14.5552 36.7627 14.5504C36.7745 14.5455 36.7851 14.5385 36.7941 14.5296C36.8031 14.5207 36.8102 14.5101 36.815 14.4985C36.8199 14.4869 36.8224 14.4744 36.8223 14.4618L36.8212 13.806Z" stroke="#D4E597" stroke-width="2"/>
<path d="M30.5543 13.8638C30.5545 13.8286 30.5406 13.7947 30.5155 13.7697C30.4904 13.7447 30.4563 13.7305 30.4207 13.7303L27.2571 13.7139C27.2394 13.7138 27.2219 13.7172 27.2056 13.7238C27.1893 13.7304 27.1744 13.7401 27.1619 13.7523C27.1493 13.7646 27.1394 13.7792 27.1325 13.7953C27.1257 13.8113 27.1221 13.8286 27.122 13.846L27.119 14.4129C27.1188 14.4481 27.1328 14.4819 27.1579 14.507C27.1829 14.532 27.217 14.5462 27.2526 14.5464L30.4163 14.5627C30.434 14.5628 30.4514 14.5595 30.4678 14.5529C30.4841 14.5463 30.499 14.5366 30.5115 14.5243C30.524 14.5121 30.534 14.4975 30.5408 14.4814C30.5477 14.4653 30.5512 14.4481 30.5513 14.4306L30.5543 13.8638Z" stroke="#D4E590" stroke-width="2"/>
<path d="M29.8948 15.5747C28.6591 15.5995 27.4152 15.5814 26.163 15.5206C26.1543 15.5201 26.1456 15.5215 26.1375 15.5247C26.1294 15.5278 26.122 15.5326 26.1159 15.5387C26.1097 15.5449 26.1049 15.5522 26.1018 15.5604C26.0987 15.5685 26.0973 15.5772 26.0977 15.5858C26.1142 15.8485 26.133 16.1131 26.154 16.3797C26.1645 16.5083 26.223 16.5741 26.3296 16.5771C28.2206 16.629 30.4318 16.6374 32.9632 16.6023C33.8562 16.5904 34.909 16.6216 35.8785 16.6001C35.8938 16.5998 35.909 16.6025 35.9232 16.6081C35.9375 16.6136 35.9505 16.6219 35.9614 16.6325C35.9724 16.643 35.9811 16.6557 35.9871 16.6696C35.9931 16.6835 35.9962 16.6985 35.9963 16.7136L36.0001 17.6974C36.0001 17.7249 35.9891 17.7514 35.9695 17.7708C35.95 17.7903 35.9234 17.8013 35.8958 17.8013L26.7806 17.7872C26.7627 17.7872 26.7451 17.7909 26.7288 17.7981C26.7125 17.8053 26.698 17.8159 26.6862 17.829C26.6743 17.8422 26.6654 17.8577 26.6601 17.8746C26.6548 17.8914 26.6531 17.9091 26.6552 17.9267L26.749 18.702C26.7525 18.7318 26.767 18.7593 26.7897 18.7793C26.8124 18.7993 26.8417 18.8103 26.8721 18.8103C29.8767 18.8007 32.8694 18.8452 35.8642 18.7732C35.8864 18.7727 35.9084 18.7766 35.929 18.7846C35.9496 18.7927 35.9683 18.8047 35.9842 18.8201C36.0001 18.8354 36.0127 18.8537 36.0213 18.874C36.03 18.8942 36.0345 18.9159 36.0346 18.9379L36.0376 19.9596C36.0376 19.9937 36.024 20.0265 35.9997 20.0508C35.9754 20.0752 35.9423 20.089 35.9078 20.0894C32.6605 20.1314 29.4132 20.127 26.166 20.076C26.0919 20.0751 26.0584 20.1107 26.0654 20.1829C26.0879 20.4267 26.129 20.6847 26.1885 20.9567C26.2283 21.1392 26.4789 21.1222 26.6207 21.1214C28.6408 21.113 30.6609 21.1093 32.681 21.1103C33.646 21.1103 34.8632 21.0791 35.9513 21.0969C35.9629 21.0971 35.9744 21.0996 35.9851 21.1042C35.9957 21.1088 36.0054 21.1154 36.0135 21.1236C36.0216 21.1319 36.0279 21.1417 36.0322 21.1524C36.0364 21.1631 36.0385 21.1745 36.0383 21.186L36.0248 21.778C36.0248 21.7863 36.0265 21.7945 36.0299 21.802C36.0332 21.8096 36.0382 21.8163 36.0444 21.8218C36.0505 21.8273 36.0578 21.8314 36.0657 21.8338C36.0736 21.8363 36.0819 21.837 36.0901 21.8359C36.6039 21.7677 37.1069 21.6539 37.5992 21.4946C37.6282 21.4852 37.6427 21.4652 37.6427 21.4345L37.6517 15.5985C37.6518 15.5781 37.6447 15.5583 37.6316 15.5424C37.6185 15.5264 37.6001 15.5153 37.5797 15.5109C37.3178 15.4538 37.1444 15.4182 36.8165 15.3173C36.5314 15.2305 36.2402 15.2809 35.9776 15.413C35.884 15.46 35.7945 15.4874 35.7089 15.4953C34.6411 15.5918 33.5905 15.5206 32.5339 15.5421C31.5967 15.5614 30.7742 15.5577 29.8948 15.5747Z" stroke="#D4E597" stroke-width="2"/>
<path d="M15.7983 16.9376C17.4785 16.8946 19.1542 16.9458 20.8336 16.9191C20.9732 16.9169 21.0767 16.879 21.088 16.7314C21.106 16.4962 21.1803 16.2981 20.9394 16.1512C20.6522 15.9756 20.3653 15.799 20.0787 15.6215C19.9901 15.5658 19.8828 15.5398 19.7943 15.5844C19.5211 15.7224 19.2515 15.7961 18.9853 15.8055C18.1088 15.8366 17.0185 15.801 16.3596 15.8017C14.4956 15.8062 12.6324 15.8225 10.7684 15.8092C10.1125 15.8047 9.44814 15.8151 8.77528 15.8403C8.76185 15.8408 8.74867 15.8441 8.73662 15.8499C8.72456 15.8558 8.71389 15.8641 8.70532 15.8744C8.69675 15.8846 8.69046 15.8965 8.68686 15.9093C8.68327 15.9221 8.68246 15.9355 8.68448 15.9486L8.80454 16.7685C8.81015 16.8074 8.82978 16.8431 8.85984 16.8688C8.8899 16.8946 8.92835 16.9087 8.96813 16.9087L13.8623 16.9057C13.8829 16.9057 13.9034 16.9098 13.9224 16.9177C13.9415 16.9256 13.9587 16.9372 13.9732 16.9518C13.9877 16.9663 13.999 16.9836 14.0067 17.0026C14.0143 17.0216 14.018 17.0419 14.0176 17.0623C13.9871 18.5719 13.9816 20.0565 14.0011 21.5161C14.0036 21.71 14.1082 21.7986 14.3148 21.7817C14.7915 21.7437 15.229 21.6415 15.6273 21.4753C15.638 21.4709 15.6472 21.4636 15.6537 21.4544C15.6603 21.4451 15.6638 21.4344 15.664 21.4234L15.6978 17.0393C15.698 17.0128 15.7086 16.9874 15.7273 16.9684C15.7461 16.9494 15.7715 16.9384 15.7983 16.9376Z" stroke="#D4E597" stroke-width="2"/>
<path d="M11.4602 17.4444C11.4363 17.4244 11.4053 17.4145 11.374 17.4167C11.3426 17.4189 11.3133 17.4331 11.2921 17.4563C10.2693 18.5759 9.25403 19.55 7.91231 20.3023C7.81825 20.3548 7.79549 20.4287 7.84402 20.5242L8.1697 21.1637C8.17752 21.179 8.19087 21.1908 8.20703 21.1968C8.2232 21.2027 8.24097 21.2023 8.25674 21.1956C9.90989 20.5071 11.3559 19.6198 12.6714 18.4156C12.6777 18.4098 12.6828 18.4028 12.6863 18.395C12.6899 18.3872 12.6919 18.3789 12.6922 18.3704C12.6925 18.3619 12.691 18.3534 12.688 18.3455C12.6849 18.3376 12.6803 18.3304 12.6744 18.3243C12.6249 18.2724 12.5758 18.2319 12.5273 18.2027C12.1681 17.989 11.8124 17.7362 11.4602 17.4444Z" stroke="#D4E597" stroke-width="2"/>
<path d="M18.1846 17.7397C17.7922 17.5809 17.2489 17.3598 17.107 17.8666C17.041 18.101 17.2091 18.2205 17.3742 18.3221C18.2692 18.8746 19.0318 19.5668 19.6622 20.3988C19.8055 20.588 20.1927 21.042 20.4299 21.0732C20.8388 21.1266 21.3596 20.9612 21.4744 20.513C21.599 20.0293 21.199 19.435 20.8238 19.1382C20.0434 18.5232 19.1211 18.1196 18.1846 17.7397Z" stroke="#D4E597" stroke-width="2"/>
<path d="M12.4433 35.3822C12.5063 35.3995 12.5371 35.4405 12.5356 35.5053L12.5183 36.3971C12.5181 36.407 12.5199 36.4168 12.5235 36.4259C12.5271 36.4351 12.5325 36.4435 12.5394 36.4506C12.5463 36.4577 12.5546 36.4634 12.5637 36.4673C12.5728 36.4712 12.5826 36.4734 12.5926 36.4736C12.8928 36.4795 13.1862 36.4627 13.4728 36.4231C13.715 36.3895 13.8423 36.2431 13.8548 35.9839C13.8943 35.1781 13.9086 34.5413 13.8976 34.0734C13.86 32.4337 13.9313 30.7978 13.8923 29.1581C13.8878 28.9808 13.9208 28.7278 13.9186 28.5141C13.9091 27.7177 13.9078 26.8972 13.9148 26.0523C13.9152 26.018 13.9049 25.9843 13.8853 25.9559C13.8657 25.9275 13.8378 25.9057 13.8053 25.8936C13.6352 25.8293 13.4418 25.7724 13.2252 25.7229C13.0278 25.6777 12.8372 25.4417 12.6234 25.6725C12.3029 26.0197 11.8062 25.9054 11.3732 25.9299C11.3626 25.9305 11.352 25.9285 11.3424 25.924C11.3328 25.9195 11.3245 25.9127 11.3183 25.9042C11.3121 25.8957 11.3082 25.8857 11.3069 25.8753C11.3056 25.8649 11.307 25.8543 11.3109 25.8446L12.1739 23.7442C12.2159 23.6428 12.1831 23.578 12.0756 23.5498C11.6148 23.4303 11.1286 23.3777 10.6866 23.2196C10.6813 23.2177 10.6757 23.217 10.6701 23.2174C10.6646 23.2178 10.6591 23.2194 10.6542 23.222C10.6492 23.2247 10.6448 23.2284 10.6414 23.2328C10.6379 23.2372 10.6354 23.2424 10.634 23.2478C10.5035 23.7721 10.3736 24.2984 10.2446 24.8267C10.1568 25.1858 10.033 25.5449 9.92565 25.9025C9.91977 25.9223 9.9075 25.9397 9.8907 25.952C9.87391 25.9644 9.85351 25.9709 9.8326 25.9707L8.39632 25.967C8.37641 25.967 8.35733 25.9748 8.34325 25.9887C8.32918 26.0027 8.32128 26.0215 8.32128 26.0412L8.31677 36.7763C8.31672 36.7984 8.32143 36.8203 8.33058 36.8406C8.33973 36.8608 8.35311 36.8789 8.36985 36.8936C8.38659 36.9083 8.4063 36.9194 8.42768 36.926C8.44906 36.9326 8.47162 36.9347 8.49387 36.9321C8.84131 36.8913 9.72154 36.912 9.73729 36.4105C9.7478 36.0964 9.7523 35.7828 9.7508 35.4697C9.75074 35.4558 9.75362 35.4421 9.75927 35.4293C9.76493 35.4166 9.77322 35.4052 9.78361 35.3958C9.79401 35.3864 9.80628 35.3793 9.81963 35.3749C9.83298 35.3705 9.84711 35.369 9.86111 35.3703C10.601 35.4378 11.3432 35.3718 12.0846 35.3903C12.1829 35.3926 12.3405 35.354 12.4433 35.3822Z" stroke="#D4E597" stroke-width="2"/>
<path d="M17.4928 25.7585L18.385 23.7916C18.3933 23.7732 18.3976 23.7532 18.3976 23.7329C18.3975 23.7127 18.3931 23.6927 18.3847 23.6742C18.3763 23.6558 18.364 23.6393 18.3486 23.6259C18.3333 23.6126 18.3152 23.6025 18.2957 23.5965C17.971 23.4976 17.6268 23.3925 17.2631 23.2812C17.1311 23.2411 17.001 23.2231 16.8729 23.227C16.8591 23.2275 16.8458 23.2322 16.8349 23.2405C16.824 23.2487 16.8161 23.2601 16.8121 23.273C16.2951 24.9216 15.6498 26.4648 14.6922 27.9146C14.5219 28.1728 14.188 28.4718 14.1354 28.7582C14.1307 28.7849 14.1332 28.8124 14.1429 28.8379C14.1525 28.8633 14.1689 28.8858 14.1902 28.9028L14.78 29.368C14.8041 29.3868 14.8258 29.3851 14.8453 29.3628C15.4306 28.702 15.9852 28.0293 16.509 27.3448C16.5833 27.2476 16.6185 27.1689 16.6576 27.0569C16.6657 27.0331 16.683 27.0134 16.7056 27.002C16.7956 26.957 16.8927 26.935 16.9967 26.936C18.0323 26.9434 19.0631 26.9459 20.0892 26.9434C20.1123 26.9434 20.1344 26.9525 20.1507 26.9686C20.167 26.9847 20.1762 27.0066 20.1762 27.0295C20.1767 28.1092 20.1747 29.1835 20.1702 30.2524C20.1657 31.3394 20.0892 32.4359 20.0344 33.5273C20.0029 34.1639 19.7838 35.509 18.8915 35.5595C18.1161 35.603 17.3482 35.6201 16.5878 35.6107C16.559 35.6104 16.531 35.6194 16.5079 35.6363C16.4847 35.6531 16.4677 35.677 16.4595 35.7042C16.3814 35.9643 16.4622 36.1167 16.7018 36.1612C16.9485 36.2077 17.2511 36.3064 17.6098 36.4572C18.009 36.6256 18.2522 36.872 18.5148 37.1635C18.5432 37.195 18.5794 37.2185 18.6198 37.2319C18.6602 37.2453 18.7034 37.2481 18.7452 37.24C19.8145 37.03 20.6715 36.8482 21.121 35.7427C21.3816 35.1012 21.5295 34.3684 21.5645 33.5444C21.6095 32.4931 21.68 31.4321 21.686 30.3941C21.694 28.9211 21.6988 27.439 21.7003 25.9477C21.7003 25.9209 21.6921 25.8947 21.6768 25.8727C21.6615 25.8507 21.6399 25.8339 21.6148 25.8246C21.3051 25.7093 20.9849 25.6091 20.6542 25.5241C20.4126 25.4625 20.2933 25.5174 20.1019 25.6606C19.9121 25.8038 19.5526 25.8097 19.323 25.8119C18.7352 25.8159 18.1484 25.8186 17.5626 25.8201C17.5518 25.8202 17.5409 25.8185 17.5308 25.8151C17.5207 25.8117 17.5118 25.8067 17.5049 25.8006C17.4979 25.7944 17.4932 25.7874 17.4911 25.78C17.489 25.7727 17.4895 25.7653 17.4928 25.7585Z" stroke="#D4E597" stroke-width="2"/>
<path d="M33.8997 24.5774C33.9027 24.6847 33.8499 24.7386 33.7413 24.7391L30.2249 24.7562C30.1299 24.7567 30.0831 24.7099 30.0846 24.616L30.1064 23.5246C30.107 23.4912 30.0945 23.4589 30.0716 23.4344C30.0487 23.4099 30.017 23.3952 29.9833 23.3933L28.5733 23.3109C28.5052 23.3064 28.4712 23.3381 28.4712 23.4059L28.475 24.6427C28.475 24.6619 28.4679 24.6805 28.455 24.695C28.4422 24.7094 28.4245 24.7188 28.4052 24.7213C28.2871 24.7362 28.1676 24.7453 28.0465 24.7488C27.071 24.7755 26.0954 24.7762 25.1199 24.751C25.0003 24.748 24.8885 24.7364 24.7845 24.7161C24.7774 24.7147 24.77 24.7148 24.763 24.7166C24.7559 24.7183 24.7494 24.7215 24.7438 24.7261C24.7382 24.7306 24.7337 24.7364 24.7306 24.7429C24.7275 24.7493 24.7259 24.7564 24.7259 24.7636C24.7254 25.0846 24.7635 25.4007 24.84 25.7118C24.8471 25.7408 24.8637 25.7667 24.8874 25.7853C24.9111 25.8038 24.9404 25.814 24.9706 25.8142L28.3271 25.8409C28.4397 25.8419 28.4957 25.8978 28.4952 26.0086C28.493 26.4656 28.4307 27.0317 28.5395 27.4687C28.5456 27.4922 28.5601 27.5126 28.5803 27.5262C28.6005 27.5397 28.625 27.5454 28.6491 27.5422C29.0423 27.4887 29.515 27.4761 29.8805 27.3211C30.0103 27.2662 30.0463 27.1734 30.0538 27.0436C30.0726 26.6912 30.0396 26.2378 30.1401 25.904C30.1481 25.8773 30.1659 25.8602 30.1934 25.8528C30.2574 25.835 30.3422 25.8248 30.4478 25.8223C31.5759 25.7951 32.7045 25.7993 33.8336 25.835C33.8877 25.8364 33.9144 25.8641 33.9139 25.9181L33.9057 27.3685C33.9055 27.3864 33.9105 27.404 33.9201 27.419C33.9297 27.434 33.9434 27.4459 33.9597 27.4531C34.2569 27.5889 34.9668 27.4093 35.2977 27.3552C35.3364 27.349 35.3718 27.3294 35.3975 27.3C35.4233 27.2706 35.4379 27.2332 35.4388 27.1942L35.4658 25.9403C35.466 25.9294 35.4694 25.9189 35.4756 25.9099C35.4817 25.901 35.4903 25.894 35.5003 25.8899C35.5738 25.8577 35.6594 25.8414 35.7569 25.8409C36.9516 25.833 38.1382 25.8322 39.3169 25.8387C39.3396 25.8387 39.3616 25.8303 39.3783 25.815C39.395 25.7997 39.4052 25.7788 39.4069 25.7563C39.4302 25.4529 39.4572 25.1346 39.1435 24.955C38.8639 24.7948 38.577 24.6328 38.2828 24.4691C38.2509 24.4514 38.2144 24.4436 38.178 24.4468C38.1416 24.45 38.107 24.4639 38.0787 24.4869C37.8408 24.6775 37.5174 24.702 37.1452 24.7176C36.6129 24.7409 36.0904 24.7448 35.5776 24.7295C35.5501 24.7285 35.524 24.717 35.5049 24.6973C35.4859 24.6776 35.4753 24.6514 35.4755 24.6241L35.4838 23.5194C35.4843 23.4205 35.4345 23.371 35.3345 23.371L33.9522 23.368C33.9404 23.368 33.9288 23.3703 33.9179 23.3749C33.907 23.3794 33.8972 23.386 33.889 23.3943C33.8808 23.4026 33.8744 23.4124 33.8702 23.4232C33.866 23.434 33.864 23.4455 33.8644 23.4571L33.8997 24.5774Z" stroke="#D4E597" stroke-width="2"/>
<path d="M32.8093 27.1549L32.9054 27.025C32.917 27.0094 32.9252 26.9915 32.9295 26.9726C32.9338 26.9537 32.9341 26.9341 32.9305 26.915C32.9268 26.896 32.9192 26.8778 32.9082 26.8618C32.8972 26.8457 32.8829 26.8321 32.8664 26.8217C32.5072 26.5947 32.1402 26.3877 31.7655 26.2007C31.6244 26.131 31.5064 26.1542 31.4113 26.2705C30.9196 26.87 30.3915 27.4361 29.8272 27.9688C29.4385 28.336 29.025 28.615 28.6071 28.9422C28.012 29.4096 27.3696 29.7375 26.7108 30.1011C25.9499 30.5203 25.1732 30.8564 24.377 31.1739C24.3631 31.1795 24.3505 31.1878 24.34 31.1983C24.3294 31.2089 24.3212 31.2214 24.3157 31.2351C24.3102 31.2489 24.3076 31.2636 24.3081 31.2783C24.3086 31.293 24.3121 31.3075 24.3185 31.3208C24.3955 31.4831 24.4633 31.654 24.5218 31.8335C24.5599 31.9497 24.6434 31.9883 24.7725 31.9492C25.6139 31.692 26.3929 31.4235 27.1092 31.1435C28.9117 30.4401 30.5874 29.397 31.9561 28.0326C31.9815 28.0072 32.0158 27.9927 32.0518 27.9922C32.0877 27.9916 32.1224 28.0051 32.1482 28.0296C32.9662 28.8057 33.8622 29.5431 34.8272 30.1167C35.8037 30.6964 36.8353 31.163 37.9219 31.5167C38.1477 31.5901 38.3841 31.7103 38.6228 31.7853C38.6465 31.7926 38.6721 31.7916 38.6953 31.7824C38.7184 31.7732 38.7376 31.7564 38.7496 31.7348C38.9972 31.2882 39.4399 30.9699 39.8324 30.665C39.8443 30.6556 39.8538 30.6436 39.86 30.6299C39.8662 30.6162 39.869 30.6012 39.8681 30.5862C39.8672 30.5712 39.8627 30.5567 39.8549 30.5438C39.8471 30.5309 39.8363 30.52 39.8234 30.5121C39.6078 30.3801 39.3894 30.2848 39.1683 30.2265C38.2933 29.994 37.4319 29.722 36.5839 29.4103C35.2399 28.9162 33.9207 28.1401 32.8191 27.2313C32.7916 27.209 32.7883 27.1835 32.8093 27.1549Z" stroke="#D4E597" stroke-width="2"/>
<path d="M16.8512 31.5212C17.0042 31.8765 17.5528 32.942 17.9693 32.758C18.3305 32.5982 18.5386 32.3205 18.5936 31.9248C18.6867 31.2503 18.1839 30.7525 17.6954 30.3029C17.3212 29.9581 16.9282 29.6356 16.5165 29.3354C16.2028 29.1062 15.9882 29.302 15.7998 29.5469C15.7777 29.5756 15.7654 29.6106 15.7644 29.6468C15.7635 29.683 15.774 29.7186 15.7946 29.7487C16.1998 30.3333 16.5337 30.7889 16.8512 31.5212Z" stroke="#D4E597" stroke-width="2"/>
<path d="M31.0744 31.3913L27.3029 31.3186C27.2733 31.3181 27.244 31.3237 27.2168 31.3351C27.1896 31.3465 27.1652 31.3635 27.145 31.3849C27.1248 31.4063 27.1094 31.4317 27.0998 31.4594C27.0901 31.4871 27.0865 31.5164 27.089 31.5456L27.1595 32.3358C27.162 32.3651 27.1755 32.3924 27.1974 32.4122C27.2192 32.432 27.2478 32.4429 27.2773 32.4426L31.0264 32.4315C31.0531 32.4313 31.079 32.4407 31.0992 32.4581C31.1194 32.4755 31.1325 32.4995 31.1359 32.5257C31.1484 32.6177 31.1547 32.707 31.1547 32.7936C31.1557 34.2522 31.1587 35.7049 31.1637 37.1517C31.1638 37.173 31.1682 37.1941 31.1766 37.2138C31.1849 37.2335 31.1972 37.2514 31.2126 37.2664C31.228 37.2814 31.2462 37.2933 31.2663 37.3014C31.2864 37.3094 31.3079 37.3135 31.3295 37.3134C31.7738 37.3105 32.212 37.2578 32.6443 37.1554C32.6671 37.1501 32.6876 37.1375 32.7026 37.1196C32.7177 37.1017 32.7264 37.0793 32.7275 37.056C32.7961 35.6344 32.8156 34.2075 32.7861 32.775C32.7846 32.6954 32.7848 32.6279 32.7868 32.5725C32.7882 32.5351 32.8043 32.4998 32.8318 32.474C32.8593 32.4482 32.8959 32.4341 32.9339 32.4345L37.0079 32.4834C37.0264 32.4837 37.0442 32.4769 37.0578 32.4644C37.0713 32.452 37.0795 32.4349 37.0807 32.4167C37.1032 32.0954 37.158 31.7808 36.8585 31.5538C36.6762 31.4158 36.0061 30.9231 35.7802 31.0908C35.5483 31.263 35.4125 31.3364 35.1041 31.3379C34.3652 31.3428 33.63 31.3411 32.8986 31.3327C32.8839 31.3326 32.8693 31.3296 32.8558 31.3238C32.8422 31.3181 32.83 31.3097 32.8198 31.2992C32.8096 31.2887 32.8016 31.2762 32.7963 31.2626C32.791 31.249 32.7886 31.2345 32.7891 31.2199L32.8364 29.63C32.8374 29.5941 32.8262 29.5589 32.8045 29.5302C32.7828 29.5015 32.752 29.481 32.717 29.4719C32.2533 29.3525 31.7295 29.3784 31.2643 29.3658C31.2504 29.3654 31.2365 29.3678 31.2236 29.3727C31.2106 29.3777 31.1988 29.3852 31.1888 29.3947C31.1788 29.4042 31.1709 29.4157 31.1654 29.4283C31.1599 29.4409 31.157 29.4545 31.1569 29.4682L31.1472 31.3208C31.1471 31.3302 31.1451 31.3394 31.1414 31.348C31.1377 31.3566 31.1323 31.3644 31.1256 31.371C31.1188 31.3775 31.1108 31.3827 31.102 31.3862C31.0932 31.3897 31.0839 31.3914 31.0744 31.3913Z" stroke="#D4E597" stroke-width="2"/>
<path d="M27.6233 35.7168C28.5208 35.2123 29.3287 34.5969 30.0471 33.8708C30.1251 33.7922 30.1189 33.7202 30.0283 33.6549C29.7532 33.4581 29.478 33.2479 29.2029 33.0243C29.1173 32.955 29.0348 32.9083 28.9553 32.8841C28.9243 32.8745 28.8911 32.8749 28.8603 32.8852C28.8296 32.8955 28.8029 32.9151 28.7842 32.9412C28.6466 33.1306 28.5113 33.3144 28.3782 33.4925C28.2451 33.671 27.8662 34.0318 27.2413 34.5749C26.7055 35.0409 26.1317 35.4551 25.5199 35.8177C25.1814 36.0187 25.3698 36.4669 25.643 36.6101C25.6543 36.616 25.6669 36.6192 25.6797 36.6193C25.6925 36.6194 25.7051 36.6165 25.7165 36.6108C25.8646 36.5396 26.0149 36.4768 26.1675 36.4224C26.674 36.2428 27.1565 35.9794 27.6233 35.7168Z" stroke="#D4E597" stroke-width="2"/>
<path d="M37.0687 34.336C36.2109 33.7662 35.2069 33.2847 34.2074 33.0169C34.1268 32.9951 34.069 33.0216 34.034 33.0963C33.9597 33.2521 33.7556 33.5503 33.962 33.6757C34.7134 34.1313 35.3807 34.6825 35.9641 35.3295C36.2215 35.6151 36.7235 36.4394 37.1279 36.4936C37.3351 36.521 37.8191 36.5248 37.9151 36.2821C38.0885 35.8466 38.0577 35.2635 37.7118 34.8858C37.5202 34.6766 37.3058 34.4933 37.0687 34.336Z" stroke="#D4E597" stroke-width="2"/>
<path d="M12.4977 27.1198C12.4977 27.1088 12.4955 27.0979 12.4912 27.0878C12.487 27.0776 12.4807 27.0684 12.4728 27.0606C12.4649 27.0528 12.4556 27.0467 12.4453 27.0425C12.435 27.0383 12.4239 27.0361 12.4128 27.0361L9.8314 27.0406C9.80891 27.0406 9.78736 27.0495 9.77148 27.0653C9.75561 27.081 9.74671 27.1023 9.74675 27.1246L9.75185 30.0166C9.75187 30.0276 9.75409 30.0385 9.75837 30.0487C9.76264 30.0589 9.76891 30.0681 9.77679 30.0759C9.78468 30.0836 9.79404 30.0898 9.80434 30.094C9.81463 30.0982 9.82566 30.1003 9.8368 30.1003L12.4182 30.0959C12.4407 30.0958 12.4622 30.087 12.4781 30.0712C12.494 30.0555 12.5029 30.0341 12.5028 30.0119L12.4977 27.1198Z" stroke="#D4E597" stroke-width="2"/>
<path d="M12.4958 31.2199C12.4958 31.2053 12.49 31.1913 12.4796 31.1808C12.4692 31.1704 12.4551 31.1645 12.4403 31.1643L9.80933 31.1428C9.79454 31.1428 9.78033 31.1485 9.7698 31.1588C9.75927 31.1691 9.75325 31.183 9.75305 31.1977L9.73729 34.247C9.7372 34.2544 9.73858 34.2617 9.74136 34.2685C9.74415 34.2754 9.74828 34.2816 9.75351 34.2868C9.75875 34.2921 9.76499 34.2963 9.77186 34.2991C9.77874 34.3019 9.78612 34.3034 9.79358 34.3034L12.453 34.3286C12.4605 34.3287 12.4679 34.3274 12.4748 34.3246C12.4817 34.3219 12.488 34.3178 12.4933 34.3126C12.4986 34.3074 12.5028 34.3013 12.5057 34.2945C12.5086 34.2877 12.5101 34.2804 12.5101 34.273L12.4958 31.2199Z" stroke="#D4E597" stroke-width="2"/>
<path d="M45.0395 44.2283C45.0395 44.2357 45.0365 44.2429 45.0311 44.2482C45.0258 44.2535 45.0185 44.2565 45.011 44.2565H1.16914C1.16158 44.2565 1.15432 44.2535 1.14898 44.2482C1.14363 44.2429 1.14063 44.2357 1.14062 44.2283V0.924464C1.14062 0.916987 1.14363 0.909816 1.14898 0.904528C1.15432 0.899241 1.16158 0.896271 1.16914 0.896271H45.011C45.0185 0.896271 45.0258 0.899241 45.0311 0.904528C45.0365 0.909816 45.0395 0.916987 45.0395 0.924464V44.2283ZM14.8206 9.52721C14.8201 9.52473 14.8216 9.51286 14.8251 9.49159C14.8266 9.47972 14.8311 9.46859 14.8386 9.45821C15.1352 9.03382 15.3896 8.59954 15.6017 8.15537C15.6593 8.03517 15.6252 7.95183 15.4997 7.90534L14.1902 7.41937C14.0912 7.38227 14.0174 7.41046 13.9688 7.50395C13.6532 8.11036 13.341 8.7274 13.0323 9.35508C12.9633 9.49654 12.8778 9.56628 12.7757 9.5643C11.2449 9.53833 9.71253 9.5643 8.1817 9.55021C8.17054 9.55007 8.15947 9.55224 8.14919 9.55658C8.13891 9.56092 8.12964 9.56733 8.12196 9.57541C8.11428 9.58349 8.10836 9.59306 8.10457 9.60354C8.10077 9.61401 8.09918 9.62515 8.09991 9.63627L8.15469 10.4902C8.15763 10.5344 8.17698 10.576 8.20901 10.6068C8.24103 10.6377 8.28345 10.6556 8.32803 10.6572C8.77903 10.6742 9.30281 10.6431 9.67801 10.6438C10.3664 10.6463 11.055 10.6478 11.7439 10.6483C11.7964 10.6483 11.8439 10.6557 11.8865 10.6705C11.8999 10.6752 11.912 10.6829 11.9218 10.6932C11.9315 10.7035 11.9386 10.716 11.9423 10.7296C11.9461 10.7432 11.9465 10.7574 11.9434 10.7712C11.9403 10.785 11.9339 10.7978 11.9247 10.8085C11.8742 10.8679 11.8197 10.9245 11.7611 10.9784C10.8246 11.845 10.0007 12.6656 8.82855 13.3511C8.30927 13.6548 7.77473 13.9405 7.22493 14.2081C7.18141 14.2289 7.16965 14.261 7.18966 14.3045C7.28646 14.5182 7.41028 14.8172 7.59038 14.976C7.59974 14.984 7.6109 14.9898 7.62301 14.9929C7.63512 14.996 7.64784 14.9963 7.66017 14.9938C7.78574 14.9661 7.93457 14.9149 8.10666 14.8402C9.13472 14.3926 10.0717 13.9217 10.9177 13.4276C11.1323 13.3022 11.3252 13.1338 11.5345 12.9854C12.3615 12.3992 13.1216 11.6046 13.7835 10.8434C13.8405 10.7774 13.9223 10.6601 14.0139 10.6616C14.4846 10.6685 14.9564 10.6589 15.4291 10.6327C15.7586 10.6141 15.8809 10.6735 16.061 10.9258C16.7198 11.848 17.6466 12.6745 18.6874 13.3868C19.5421 13.9707 20.5567 14.3921 21.4842 14.8818C21.5086 14.8946 21.5369 14.8984 21.5638 14.8924C21.5908 14.8864 21.6148 14.8711 21.6313 14.8491C21.8834 14.5138 22.2021 14.2323 22.5873 14.0048C22.7944 13.8824 22.9355 13.6012 22.6818 13.4439C22.6368 13.4162 22.5237 13.3764 22.3426 13.3244C20.6152 12.8296 18.8112 12.1544 17.4635 10.928C17.418 10.8869 17.388 10.8427 17.3734 10.7952C17.3686 10.78 17.3675 10.7639 17.3701 10.7482C17.3727 10.7325 17.379 10.7176 17.3885 10.7048C17.398 10.692 17.4104 10.6815 17.4247 10.6742C17.4391 10.667 17.4549 10.6632 17.471 10.6631L21.5757 10.6394C21.5911 10.6393 21.6063 10.6361 21.6204 10.63C21.6344 10.6238 21.6471 10.6148 21.6574 10.6036C21.6678 10.5924 21.6757 10.5791 21.6806 10.5647C21.6855 10.5503 21.6874 10.5351 21.686 10.5199C21.6553 10.1875 21.7288 9.95827 21.4166 9.74682C21.2058 9.60437 20.5582 9.15995 20.3698 9.30166C20.0029 9.57914 19.6877 9.53982 19.2855 9.54279C18.0243 9.55367 16.7634 9.54773 15.5027 9.52498C15.3051 9.52152 15.1065 9.53982 14.9069 9.57988C14.8884 9.58373 14.8691 9.58041 14.8531 9.57061C14.837 9.5608 14.8254 9.54526 14.8206 9.52721ZM37.5752 11.3731C37.5882 11.3823 37.5979 11.3954 37.6029 11.4103C37.6079 11.4253 37.6079 11.4414 37.6029 11.4562C37.4589 11.888 37.3561 12.3295 37.2945 12.7806C37.29 12.8148 37.297 12.8495 37.3145 12.8793C37.332 12.9091 37.359 12.9323 37.3913 12.9453C37.6164 13.0366 38.1252 13.1968 38.2686 12.9097C38.4752 12.4982 38.6978 12.0953 38.9364 11.7011C39.1653 11.3219 39.3469 10.9562 39.548 10.5793C39.5522 10.5714 39.553 10.5622 39.5504 10.5536C39.5477 10.545 39.5417 10.5377 39.5337 10.5333C39.2351 10.3686 38.9244 10.2825 38.6145 10.1593C38.4584 10.0978 38.156 9.93156 38.0059 10.0503C37.8358 10.1848 37.6397 10.2533 37.4176 10.2558C35.9318 10.2721 34.4437 10.2513 32.9572 10.2506C32.8406 10.2501 32.7808 10.1925 32.7778 10.0777L32.7583 9.33504C32.7579 9.32125 32.7603 9.30752 32.7654 9.29467C32.7704 9.28181 32.778 9.27009 32.7878 9.26019C32.7975 9.2503 32.8091 9.24244 32.822 9.23707C32.8348 9.2317 32.8487 9.22894 32.8626 9.22895L37.7455 9.21411C37.7644 9.21412 37.783 9.21037 37.8004 9.2031C37.8177 9.19582 37.8335 9.18516 37.8466 9.17174C37.8598 9.15832 37.8701 9.14242 37.877 9.12498C37.8838 9.10753 37.8871 9.0889 37.8866 9.07017L37.8761 8.70143C37.8751 8.67039 37.8665 8.64007 37.8509 8.61315C37.8353 8.58624 37.8133 8.56356 37.7868 8.54711L36.7632 7.90979C36.74 7.89529 36.7131 7.88747 36.6855 7.88721C36.658 7.88695 36.6308 7.89425 36.6071 7.9083C36.3468 8.06262 36.0939 8.19246 35.7757 8.19543C32.6885 8.22214 29.6028 8.18875 26.5142 8.21546C26.5008 8.2156 26.4876 8.21849 26.4755 8.22395C26.4633 8.2294 26.4524 8.2373 26.4435 8.24715C26.4346 8.25699 26.4279 8.26856 26.4238 8.28112C26.4197 8.29367 26.4183 8.30694 26.4196 8.32008L26.4924 9.0635C26.5029 9.16836 26.5617 9.22128 26.6687 9.22227L31.0796 9.25269C31.0963 9.25278 31.1128 9.25618 31.1281 9.26269C31.1435 9.2692 31.1573 9.27869 31.1689 9.29059C31.1804 9.30249 31.1894 9.31656 31.1954 9.33198C31.2013 9.34739 31.2041 9.36382 31.2035 9.3803L31.1757 10.1304C31.1743 10.1701 31.1575 10.2078 31.1288 10.2354C31.1 10.2629 31.0617 10.2782 31.0219 10.278L26.6823 10.2558C26.6694 10.2558 26.6567 10.2527 26.6452 10.2469C26.6338 10.241 26.6239 10.2326 26.6164 10.2222C26.6089 10.2118 26.604 10.1998 26.6022 10.1872C26.6003 10.1746 26.6015 10.1617 26.6057 10.1497C26.6232 10.0987 26.6315 10.0466 26.6305 9.99314C26.6301 9.97898 26.6244 9.96545 26.6144 9.95517C26.6045 9.94489 26.5909 9.93859 26.5764 9.9375C26.3458 9.92216 26.1134 9.90906 25.8793 9.89817C25.7285 9.8915 25.6647 9.96717 25.6317 10.0985C25.4726 10.7336 25.2342 11.3375 24.9165 11.9103C24.7379 12.2323 24.5286 12.6033 24.4603 12.9668C24.4288 13.133 24.4986 13.1842 24.6149 13.2807C24.8453 13.4713 25.0494 13.5982 25.36 13.5366C26.271 13.3549 26.4909 12.2279 26.5734 11.4651C26.5748 11.4523 26.5799 11.44 26.5882 11.4299C26.5964 11.4198 26.6074 11.4122 26.62 11.408C26.693 11.3828 26.7808 11.3707 26.8834 11.3717C28.2651 11.3796 29.6469 11.3761 31.0286 11.3613C31.0465 11.3611 31.0642 11.3644 31.0807 11.3712C31.0972 11.3779 31.1123 11.3878 31.1248 11.4004C31.1374 11.413 31.1474 11.428 31.154 11.4444C31.1607 11.4609 31.164 11.4785 31.1637 11.4963C31.1447 12.5499 31.1467 13.5836 31.1697 14.5976C31.1722 14.7089 31.1824 14.8276 31.2005 14.9537C31.2037 14.9759 31.2151 14.9961 31.2323 15.0105C31.2496 15.025 31.2716 15.0328 31.2943 15.0324C31.6777 15.0249 32.7636 15.1103 32.7703 14.4678C32.7808 13.4963 32.7746 12.51 32.7516 11.5089C32.751 11.48 32.7615 11.4519 32.7808 11.4304C32.8001 11.4088 32.8269 11.3952 32.8559 11.3924C32.9729 11.3815 33.102 11.3759 33.2431 11.3754C34.6563 11.3709 36.0696 11.3623 37.4829 11.3494C37.5209 11.3489 37.5517 11.3568 37.5752 11.3731ZM27.1317 12.1707L27.1272 12.8874C27.1271 12.8995 27.1295 12.9115 27.134 12.9227C27.1386 12.9339 27.1454 12.9441 27.154 12.9527C27.1625 12.9613 27.1727 12.9682 27.184 12.9729C27.1952 12.9776 27.2073 12.9801 27.2195 12.9802L30.4531 13.0024C30.4713 13.0026 30.4894 13.0004 30.5063 12.996C30.5233 12.9917 30.5386 12.9852 30.5516 12.977C30.5646 12.9688 30.5749 12.959 30.5819 12.9482C30.5889 12.9374 30.5926 12.9259 30.5926 12.9141L30.5971 12.1915C30.5972 12.1679 30.5827 12.1453 30.5568 12.1284C30.531 12.1116 30.4958 12.102 30.4591 12.1017L27.2255 12.0795C27.2133 12.0794 27.2012 12.0816 27.1899 12.0862C27.1786 12.0907 27.1682 12.0974 27.1595 12.1059C27.1508 12.1144 27.1439 12.1244 27.1391 12.1356C27.1344 12.1467 27.1318 12.1586 27.1317 12.1707ZM36.8566 12.213C36.8565 12.1843 36.8449 12.1568 36.8242 12.1365C36.8036 12.1163 36.7757 12.105 36.7467 12.1051L33.5184 12.1162C33.504 12.1162 33.4898 12.1191 33.4765 12.1246C33.4633 12.1301 33.4512 12.1381 33.4411 12.1482C33.4309 12.1583 33.4229 12.1703 33.4174 12.1834C33.412 12.1966 33.4092 12.2107 33.4092 12.2249L33.4116 12.8897C33.4117 12.9184 33.4233 12.9459 33.444 12.9662C33.4646 12.9864 33.4925 12.9977 33.5215 12.9976L36.7498 12.9865C36.7642 12.9864 36.7784 12.9836 36.7917 12.9781C36.8049 12.9726 36.817 12.9646 36.8271 12.9545C36.8373 12.9444 36.8453 12.9324 36.8508 12.9193C36.8562 12.9061 36.859 12.892 36.8589 12.8778L36.8566 12.213ZM16.9457 13.0247C16.7371 13.2844 16.0948 13.2287 15.7961 13.2309C14.4454 13.2423 13.0946 13.249 11.7439 13.251C11.6638 13.251 11.5873 13.2549 11.5143 13.2629C11.4838 13.2662 11.4558 13.2813 11.4363 13.3048C11.4169 13.3284 11.4074 13.3586 11.41 13.389C11.4355 13.6709 11.53 13.9388 11.5458 14.2311C11.5473 14.2615 11.5606 14.2902 11.5828 14.3112C11.605 14.3322 11.6345 14.3439 11.6651 14.3439L18.2619 14.3513C18.2758 14.3512 18.2896 14.3483 18.3023 14.3428C18.315 14.3372 18.3264 14.3291 18.3357 14.319C18.345 14.3088 18.3521 14.2969 18.3564 14.2839C18.3608 14.271 18.3623 14.2573 18.361 14.2437C18.331 13.9425 18.337 13.5737 18.021 13.435C17.7224 13.3039 17.4365 13.1548 17.1633 12.9876C17.1285 12.9665 17.0871 12.9586 17.047 12.9654C17.007 12.9723 16.9709 12.9933 16.9457 13.0247ZM36.8212 13.806C36.8212 13.7934 36.8186 13.781 36.8138 13.7694C36.8089 13.7578 36.8017 13.7472 36.7927 13.7383C36.7837 13.7295 36.773 13.7224 36.7613 13.7177C36.7495 13.7129 36.7369 13.7104 36.7242 13.7104L33.5095 13.716C33.4968 13.716 33.4842 13.7185 33.4724 13.7233C33.4607 13.7282 33.45 13.7352 33.4411 13.7441C33.4321 13.753 33.425 13.7636 33.4201 13.7752C33.4153 13.7868 33.4128 13.7993 33.4128 13.8119L33.414 14.4677C33.414 14.4803 33.4165 14.4927 33.4214 14.5043C33.4263 14.5159 33.4335 14.5265 33.4425 14.5354C33.4515 14.5442 33.4622 14.5513 33.4739 14.556C33.4857 14.5608 33.4983 14.5633 33.511 14.5633L36.7257 14.5577C36.7384 14.5577 36.751 14.5552 36.7627 14.5504C36.7745 14.5455 36.7851 14.5385 36.7941 14.5296C36.8031 14.5207 36.8102 14.5101 36.815 14.4985C36.8199 14.4869 36.8224 14.4744 36.8223 14.4618L36.8212 13.806ZM30.5543 13.8638C30.5545 13.8286 30.5405 13.7947 30.5155 13.7697C30.4904 13.7447 30.4563 13.7305 30.4207 13.7303L27.257 13.7139C27.2394 13.7138 27.2219 13.7172 27.2056 13.7238C27.1893 13.7304 27.1744 13.7401 27.1619 13.7523C27.1493 13.7646 27.1393 13.7792 27.1325 13.7953C27.1257 13.8113 27.1221 13.8286 27.122 13.846L27.119 14.4129C27.1188 14.4481 27.1328 14.4819 27.1579 14.507C27.1829 14.532 27.217 14.5462 27.2526 14.5464L30.4163 14.5627C30.4339 14.5628 30.4514 14.5595 30.4678 14.5529C30.4841 14.5463 30.499 14.5366 30.5115 14.5243C30.524 14.5121 30.534 14.4975 30.5408 14.4814C30.5477 14.4653 30.5512 14.4481 30.5513 14.4306L30.5543 13.8638ZM29.8948 15.5747C28.6591 15.5995 27.4152 15.5814 26.163 15.5206C26.1543 15.5201 26.1456 15.5215 26.1375 15.5247C26.1294 15.5278 26.122 15.5326 26.1159 15.5387C26.1097 15.5449 26.1049 15.5522 26.1018 15.5604C26.0987 15.5685 26.0973 15.5772 26.0977 15.5859C26.1142 15.8485 26.133 16.1131 26.154 16.3797C26.1645 16.5083 26.223 16.5741 26.3296 16.5771C28.2206 16.629 30.4318 16.6374 32.9632 16.6023C33.8562 16.5904 34.909 16.6216 35.8785 16.6001C35.8938 16.5998 35.909 16.6025 35.9232 16.6081C35.9375 16.6136 35.9504 16.6219 35.9614 16.6325C35.9724 16.643 35.9811 16.6557 35.9871 16.6696C35.9931 16.6835 35.9962 16.6985 35.9963 16.7136L36.0001 17.6974C36.0001 17.7249 35.9891 17.7514 35.9695 17.7708C35.95 17.7903 35.9234 17.8013 35.8958 17.8013L26.7806 17.7872C26.7627 17.7872 26.7451 17.7909 26.7288 17.7981C26.7125 17.8053 26.698 17.8159 26.6862 17.829C26.6743 17.8422 26.6654 17.8577 26.6601 17.8746C26.6548 17.8914 26.6531 17.9091 26.6552 17.9267L26.749 18.702C26.7525 18.7318 26.767 18.7593 26.7897 18.7793C26.8124 18.7993 26.8417 18.8103 26.8721 18.8103C29.8767 18.8007 32.8694 18.8452 35.8642 18.7732C35.8864 18.7727 35.9084 18.7766 35.929 18.7847C35.9496 18.7927 35.9683 18.8047 35.9842 18.8201C36.0001 18.8354 36.0127 18.8537 36.0213 18.874C36.03 18.8942 36.0345 18.9159 36.0346 18.9379L36.0376 19.9596C36.0376 19.9937 36.024 20.0265 35.9997 20.0509C35.9754 20.0752 35.9423 20.089 35.9078 20.0894C32.6605 20.1314 29.4132 20.127 26.166 20.076C26.0919 20.0751 26.0584 20.1107 26.0654 20.1829C26.0879 20.4267 26.129 20.6847 26.1885 20.9567C26.2283 21.1392 26.4789 21.1222 26.6207 21.1214C28.6408 21.113 30.6609 21.1093 32.681 21.1103C33.646 21.1103 34.8632 21.0791 35.9513 21.0969C35.9629 21.0971 35.9744 21.0996 35.9851 21.1042C35.9957 21.1088 36.0054 21.1154 36.0135 21.1236C36.0216 21.1319 36.0279 21.1417 36.0322 21.1524C36.0364 21.1631 36.0385 21.1745 36.0383 21.186L36.0248 21.778C36.0248 21.7863 36.0265 21.7945 36.0299 21.802C36.0332 21.8096 36.0382 21.8163 36.0444 21.8218C36.0505 21.8273 36.0578 21.8314 36.0657 21.8338C36.0736 21.8363 36.0819 21.837 36.0901 21.8359C36.6039 21.7677 37.1069 21.6539 37.5992 21.4946C37.6282 21.4852 37.6427 21.4652 37.6427 21.4345L37.6517 15.5985C37.6518 15.5781 37.6447 15.5583 37.6316 15.5424C37.6184 15.5264 37.6001 15.5153 37.5797 15.5109C37.3178 15.4538 37.1444 15.4182 36.8165 15.3173C36.5314 15.2305 36.2402 15.2809 35.9776 15.413C35.884 15.46 35.7945 15.4874 35.7089 15.4953C34.6411 15.5918 33.5905 15.5206 32.5339 15.5421C31.5967 15.5614 30.7742 15.5577 29.8948 15.5747ZM15.7983 16.9377C17.4785 16.8946 19.1542 16.9458 20.8336 16.9191C20.9732 16.9169 21.0767 16.879 21.088 16.7314C21.106 16.4962 21.1803 16.2981 20.9394 16.1512C20.6522 15.9756 20.3653 15.799 20.0787 15.6215C19.9901 15.5658 19.8828 15.5399 19.7943 15.5844C19.5211 15.7224 19.2515 15.7961 18.9853 15.8055C18.1088 15.8366 17.0185 15.801 16.3596 15.8018C14.4956 15.8062 12.6324 15.8225 10.7684 15.8092C10.1125 15.8047 9.44814 15.8151 8.77527 15.8403C8.76185 15.8408 8.74867 15.8441 8.73661 15.85C8.72456 15.8558 8.71389 15.8641 8.70532 15.8744C8.69674 15.8846 8.69045 15.8965 8.68686 15.9093C8.68327 15.9221 8.68246 15.9355 8.68448 15.9487L8.80454 16.7685C8.81015 16.8074 8.82978 16.8431 8.85984 16.8688C8.88989 16.8946 8.92835 16.9088 8.96813 16.9087L13.8623 16.9058C13.8829 16.9057 13.9034 16.9098 13.9224 16.9177C13.9415 16.9256 13.9587 16.9372 13.9732 16.9518C13.9877 16.9664 13.999 16.9836 14.0067 17.0026C14.0143 17.0216 14.018 17.0419 14.0176 17.0623C13.9871 18.5719 13.9816 20.0565 14.0011 21.5161C14.0036 21.71 14.1082 21.7986 14.3148 21.7818C14.7915 21.7437 15.229 21.6415 15.6272 21.4753C15.638 21.4709 15.6472 21.4636 15.6537 21.4544C15.6603 21.4452 15.6638 21.4344 15.664 21.4234L15.6978 17.0393C15.698 17.0128 15.7086 16.9874 15.7273 16.9684C15.7461 16.9494 15.7715 16.9384 15.7983 16.9377ZM11.4602 17.4444C11.4363 17.4244 11.4053 17.4145 11.374 17.4167C11.3426 17.4189 11.3133 17.4331 11.2921 17.4563C10.2693 18.5759 9.25403 19.55 7.91231 20.3023C7.81825 20.3548 7.79549 20.4287 7.84402 20.5242L8.1697 21.1637C8.17752 21.179 8.19087 21.1908 8.20703 21.1967C8.2232 21.2027 8.24097 21.2023 8.25674 21.1956C9.90989 20.5071 11.3559 19.6198 12.6714 18.4156C12.6777 18.4098 12.6828 18.4027 12.6863 18.395C12.6899 18.3872 12.6919 18.3789 12.6922 18.3704C12.6925 18.3619 12.691 18.3534 12.688 18.3455C12.6849 18.3376 12.6803 18.3304 12.6744 18.3243C12.6249 18.2724 12.5758 18.2318 12.5273 18.2027C12.1681 17.989 11.8124 17.7362 11.4602 17.4444ZM18.1846 17.7397C17.7922 17.5809 17.2489 17.3598 17.1071 17.8666C17.041 18.101 17.2091 18.2205 17.3742 18.3221C18.2692 18.8746 19.0318 19.5668 19.6622 20.3988C19.8055 20.588 20.1927 21.042 20.4299 21.0732C20.8388 21.1266 21.3596 20.9612 21.4744 20.513C21.599 20.0293 21.199 19.435 20.8238 19.1382C20.0434 18.5232 19.1211 18.1196 18.1846 17.7397ZM12.4433 35.3822C12.5063 35.3995 12.5371 35.4405 12.5356 35.5053L12.5183 36.3971C12.5181 36.407 12.5199 36.4168 12.5235 36.4259C12.5271 36.4351 12.5325 36.4435 12.5394 36.4506C12.5463 36.4577 12.5546 36.4633 12.5637 36.4673C12.5728 36.4712 12.5826 36.4734 12.5926 36.4736C12.8928 36.4795 13.1862 36.4627 13.4728 36.4231C13.715 36.3895 13.8423 36.2431 13.8548 35.9839C13.8943 35.1781 13.9086 34.5413 13.8976 34.0734C13.86 32.4337 13.9313 30.7978 13.8923 29.1581C13.8878 28.9808 13.9208 28.7278 13.9186 28.5141C13.9091 27.7177 13.9078 26.8972 13.9148 26.0523C13.9152 26.018 13.9049 25.9843 13.8853 25.9559C13.8657 25.9275 13.8378 25.9057 13.8053 25.8936C13.6352 25.8293 13.4418 25.7724 13.2252 25.7229C13.0278 25.6777 12.8372 25.4417 12.6234 25.6725C12.3029 26.0197 11.8062 25.9054 11.3732 25.9299C11.3626 25.9305 11.352 25.9285 11.3424 25.924C11.3328 25.9195 11.3245 25.9127 11.3183 25.9042C11.3121 25.8957 11.3082 25.8857 11.3069 25.8753C11.3056 25.8649 11.307 25.8543 11.3109 25.8446L12.1739 23.7442C12.2159 23.6428 12.1831 23.578 12.0756 23.5498C11.6148 23.4303 11.1286 23.3777 10.6866 23.2196C10.6813 23.2177 10.6757 23.2169 10.6701 23.2174C10.6646 23.2178 10.6591 23.2194 10.6542 23.222C10.6492 23.2247 10.6448 23.2284 10.6414 23.2328C10.6379 23.2372 10.6354 23.2424 10.634 23.2478C10.5035 23.7721 10.3736 24.2984 10.2446 24.8267C10.1568 25.1858 10.033 25.5449 9.92565 25.9025C9.91977 25.9223 9.9075 25.9397 9.89071 25.952C9.87391 25.9643 9.85351 25.9709 9.8326 25.9707L8.39632 25.967C8.37642 25.967 8.35733 25.9748 8.34326 25.9887C8.32918 26.0027 8.32128 26.0215 8.32128 26.0412L8.31678 36.7763C8.31672 36.7984 8.32143 36.8203 8.33058 36.8406C8.33973 36.8608 8.35312 36.8789 8.36986 36.8936C8.3866 36.9083 8.40631 36.9194 8.42768 36.926C8.44906 36.9326 8.47162 36.9347 8.49387 36.9321C8.84131 36.8913 9.72154 36.912 9.7373 36.4105C9.7478 36.0964 9.75231 35.7828 9.7508 35.4697C9.75074 35.4558 9.75362 35.442 9.75928 35.4293C9.76493 35.4166 9.77322 35.4051 9.78362 35.3958C9.79401 35.3864 9.80628 35.3793 9.81963 35.3749C9.83298 35.3705 9.84711 35.369 9.86111 35.3703C10.601 35.4378 11.3432 35.3718 12.0846 35.3903C12.1829 35.3926 12.3405 35.354 12.4433 35.3822ZM17.4928 25.7585L18.385 23.7917C18.3933 23.7732 18.3976 23.7532 18.3976 23.7329C18.3975 23.7127 18.3931 23.6927 18.3847 23.6743C18.3763 23.6558 18.364 23.6394 18.3486 23.626C18.3333 23.6126 18.3152 23.6025 18.2957 23.5965C17.971 23.4976 17.6268 23.3925 17.2631 23.2812C17.1311 23.2411 17.001 23.2231 16.8729 23.227C16.8591 23.2275 16.8458 23.2322 16.8349 23.2405C16.824 23.2487 16.8161 23.2601 16.8121 23.273C16.2951 24.9216 15.6498 26.4649 14.6922 27.9146C14.5219 28.1728 14.188 28.4718 14.1354 28.7582C14.1307 28.7849 14.1332 28.8125 14.1429 28.8379C14.1525 28.8633 14.1689 28.8858 14.1902 28.9029L14.78 29.368C14.8041 29.3868 14.8258 29.3851 14.8453 29.3629C15.4306 28.702 15.9852 28.0293 16.509 27.3448C16.5833 27.2476 16.6185 27.1689 16.6576 27.0569C16.6657 27.0331 16.683 27.0134 16.7056 27.002C16.7956 26.957 16.8927 26.935 16.9967 26.936C18.0323 26.9434 19.0631 26.9459 20.0892 26.9434C20.1123 26.9434 20.1344 26.9525 20.1507 26.9686C20.167 26.9847 20.1762 27.0066 20.1762 27.0295C20.1767 28.1092 20.1747 29.1835 20.1702 30.2524C20.1657 31.3394 20.0892 32.4359 20.0344 33.5273C20.0029 34.1639 19.7838 35.509 18.8915 35.5595C18.1161 35.603 17.3482 35.6201 16.5878 35.6107C16.559 35.6104 16.531 35.6194 16.5079 35.6363C16.4847 35.6531 16.4677 35.677 16.4594 35.7042C16.3814 35.9643 16.4622 36.1167 16.7018 36.1612C16.9485 36.2077 17.2511 36.3064 17.6098 36.4572C18.009 36.6257 18.2522 36.872 18.5148 37.1636C18.5432 37.195 18.5794 37.2185 18.6198 37.2319C18.6602 37.2453 18.7034 37.2481 18.7452 37.24C19.8145 37.03 20.6715 36.8482 21.121 35.7428C21.3816 35.1012 21.5295 34.3684 21.5645 33.5444C21.6095 32.4931 21.68 31.4321 21.686 30.3941C21.694 28.9212 21.6988 27.439 21.7003 25.9477C21.7003 25.9209 21.6921 25.8947 21.6768 25.8727C21.6615 25.8507 21.6399 25.8339 21.6148 25.8246C21.3051 25.7093 20.9849 25.6092 20.6542 25.5241C20.4126 25.4625 20.2933 25.5174 20.1019 25.6606C19.9121 25.8038 19.5526 25.8097 19.323 25.8119C18.7352 25.8159 18.1484 25.8186 17.5625 25.8201C17.5518 25.8202 17.5409 25.8185 17.5308 25.8151C17.5207 25.8117 17.5118 25.8067 17.5049 25.8006C17.4979 25.7944 17.4932 25.7874 17.4911 25.78C17.489 25.7727 17.4895 25.7653 17.4928 25.7585ZM33.8997 24.5774C33.9027 24.6847 33.8499 24.7386 33.7413 24.7391L30.2249 24.7562C30.1299 24.7567 30.0831 24.7099 30.0846 24.6159L30.1064 23.5246C30.107 23.4912 30.0945 23.4589 30.0716 23.4344C30.0487 23.4099 30.017 23.3951 29.9833 23.3932L28.5733 23.3109C28.5052 23.3064 28.4712 23.3381 28.4712 23.4059L28.475 24.6427C28.475 24.6619 28.4679 24.6805 28.455 24.695C28.4422 24.7094 28.4245 24.7188 28.4052 24.7213C28.2871 24.7361 28.1676 24.7453 28.0465 24.7488C27.071 24.7755 26.0954 24.7762 25.1199 24.751C25.0003 24.748 24.8885 24.7364 24.7845 24.7161C24.7774 24.7147 24.77 24.7148 24.763 24.7166C24.7559 24.7183 24.7494 24.7215 24.7438 24.7261C24.7382 24.7306 24.7337 24.7364 24.7306 24.7428C24.7275 24.7493 24.7259 24.7564 24.7259 24.7636C24.7254 25.0846 24.7635 25.4007 24.84 25.7118C24.8471 25.7408 24.8637 25.7667 24.8874 25.7853C24.9111 25.8038 24.9404 25.814 24.9706 25.8142L28.3271 25.8409C28.4397 25.8419 28.4957 25.8978 28.4952 26.0086C28.493 26.4656 28.4307 27.0317 28.5395 27.4687C28.5456 27.4922 28.5601 27.5126 28.5803 27.5262C28.6005 27.5397 28.625 27.5454 28.6491 27.5421C29.0423 27.4887 29.515 27.4761 29.8805 27.321C30.0103 27.2661 30.0463 27.1734 30.0538 27.0436C30.0726 26.6911 30.0396 26.2378 30.1401 25.9039C30.1481 25.8772 30.1659 25.8602 30.1934 25.8528C30.2574 25.8349 30.3422 25.8248 30.4478 25.8223C31.5759 25.7951 32.7045 25.7993 33.8336 25.8349C33.8877 25.8364 33.9144 25.8641 33.9139 25.918L33.9057 27.3685C33.9055 27.3864 33.9105 27.404 33.9201 27.419C33.9297 27.434 33.9434 27.4459 33.9597 27.4531C34.2569 27.5889 34.9668 27.4093 35.2977 27.3552C35.3364 27.3489 35.3718 27.3294 35.3975 27.3C35.4233 27.2706 35.4379 27.2332 35.4388 27.1942L35.4658 25.9403C35.466 25.9294 35.4694 25.9189 35.4756 25.9099C35.4817 25.901 35.4903 25.894 35.5003 25.8899C35.5738 25.8577 35.6594 25.8414 35.7569 25.8409C36.9516 25.833 38.1382 25.8322 39.3169 25.8387C39.3396 25.8387 39.3616 25.8303 39.3783 25.815C39.395 25.7997 39.4052 25.7787 39.4069 25.7563C39.4302 25.4529 39.4572 25.1346 39.1435 24.955C38.8639 24.7948 38.577 24.6328 38.2828 24.469C38.2509 24.4514 38.2144 24.4436 38.178 24.4468C38.1416 24.4499 38.107 24.4639 38.0787 24.4869C37.8408 24.6775 37.5174 24.702 37.1452 24.7176C36.6129 24.7408 36.0904 24.7448 35.5776 24.7295C35.5501 24.7285 35.524 24.717 35.5049 24.6973C35.4859 24.6776 35.4753 24.6514 35.4755 24.6241L35.4838 23.5194C35.4843 23.4204 35.4345 23.371 35.3345 23.371L33.9522 23.368C33.9404 23.368 33.9288 23.3703 33.9179 23.3748C33.907 23.3794 33.8972 23.386 33.889 23.3943C33.8808 23.4026 33.8744 23.4124 33.8702 23.4232C33.866 23.434 33.864 23.4455 33.8644 23.457L33.8997 24.5774ZM32.8093 27.1549L32.9054 27.025C32.917 27.0093 32.9252 26.9915 32.9295 26.9726C32.9338 26.9537 32.9341 26.9341 32.9305 26.915C32.9268 26.8959 32.9192 26.8778 32.9082 26.8618C32.8972 26.8457 32.8829 26.8321 32.8664 26.8217C32.5072 26.5947 32.1402 26.3877 31.7655 26.2007C31.6244 26.131 31.5064 26.1542 31.4113 26.2705C30.9196 26.8699 30.3915 27.436 29.8272 27.9688C29.4385 28.336 29.025 28.615 28.6071 28.9422C28.012 29.4096 27.3696 29.7375 26.7108 30.1011C25.9499 30.5203 25.1732 30.8564 24.377 31.1739C24.3631 31.1795 24.3505 31.1878 24.34 31.1983C24.3294 31.2089 24.3212 31.2214 24.3157 31.2351C24.3102 31.2489 24.3076 31.2636 24.3081 31.2783C24.3086 31.293 24.3121 31.3075 24.3185 31.3208C24.3955 31.4831 24.4633 31.6539 24.5218 31.8335C24.5599 31.9497 24.6434 31.9883 24.7725 31.9492C25.6139 31.692 26.3928 31.4235 27.1092 31.1435C28.9117 30.4401 30.5874 29.397 31.9561 28.0326C31.9815 28.0072 32.0158 27.9927 32.0518 27.9922C32.0877 27.9916 32.1224 28.0051 32.1482 28.0296C32.9662 28.8057 33.8622 29.5431 34.8272 30.1167C35.8037 30.6964 36.8353 31.163 37.9219 31.5167C38.1477 31.5901 38.3841 31.7103 38.6227 31.7853C38.6465 31.7926 38.6721 31.7916 38.6952 31.7824C38.7184 31.7732 38.7375 31.7564 38.7496 31.7348C38.9972 31.2882 39.4399 30.9699 39.8324 30.6649C39.8443 30.6556 39.8538 30.6436 39.86 30.6299C39.8662 30.6162 39.869 30.6012 39.8681 30.5862C39.8672 30.5712 39.8627 30.5567 39.8549 30.5438C39.8471 30.5309 39.8363 30.52 39.8234 30.5121C39.6078 30.38 39.3894 30.2848 39.1683 30.2265C38.2933 29.994 37.4318 29.7219 36.5839 29.4103C35.2399 28.9162 33.9207 28.1401 32.8191 27.2313C32.7916 27.209 32.7883 27.1835 32.8093 27.1549ZM16.8512 31.5211C17.0042 31.8765 17.5528 32.9419 17.9693 32.7579C18.3305 32.5982 18.5386 32.3205 18.5936 31.9248C18.6867 31.2503 18.1839 30.7525 17.6954 30.3029C17.3212 29.9581 16.9282 29.6356 16.5165 29.3354C16.2028 29.1061 15.9882 29.302 15.7998 29.5469C15.7777 29.5756 15.7654 29.6106 15.7644 29.6468C15.7635 29.683 15.774 29.7186 15.7946 29.7487C16.1998 30.3333 16.5337 30.7889 16.8512 31.5211ZM31.0744 31.3913L27.3028 31.3186C27.2733 31.3181 27.244 31.3237 27.2168 31.3351C27.1896 31.3465 27.1652 31.3635 27.145 31.3849C27.1248 31.4063 27.1094 31.4317 27.0998 31.4594C27.0901 31.487 27.0864 31.5164 27.089 31.5456L27.1595 32.3358C27.162 32.3651 27.1755 32.3924 27.1973 32.4122C27.2192 32.432 27.2478 32.4429 27.2773 32.4426L31.0264 32.4315C31.0531 32.4313 31.079 32.4407 31.0992 32.4581C31.1194 32.4754 31.1324 32.4995 31.1359 32.5257C31.1484 32.6177 31.1547 32.707 31.1547 32.7936C31.1557 34.2522 31.1587 35.7049 31.1637 37.1517C31.1638 37.173 31.1682 37.1941 31.1765 37.2138C31.1849 37.2335 31.1972 37.2513 31.2126 37.2664C31.228 37.2814 31.2462 37.2933 31.2663 37.3013C31.2864 37.3094 31.3078 37.3135 31.3295 37.3134C31.7738 37.3105 32.212 37.2578 32.6442 37.1554C32.6671 37.1501 32.6876 37.1375 32.7026 37.1196C32.7177 37.1017 32.7264 37.0793 32.7275 37.056C32.7961 35.6344 32.8156 34.2074 32.7861 32.775C32.7846 32.6954 32.7848 32.6279 32.7868 32.5725C32.7882 32.5351 32.8043 32.4998 32.8318 32.474C32.8593 32.4482 32.8959 32.434 32.9339 32.4345L37.0079 32.4834C37.0263 32.4837 37.0442 32.4769 37.0578 32.4644C37.0713 32.452 37.0795 32.4349 37.0807 32.4167C37.1032 32.0954 37.1579 31.7808 36.8585 31.5538C36.6762 31.4158 36.0061 30.9231 35.7802 31.0908C35.5483 31.2629 35.4125 31.3364 35.1041 31.3379C34.3652 31.3428 33.63 31.3411 32.8986 31.3327C32.8839 31.3326 32.8693 31.3296 32.8558 31.3238C32.8422 31.3181 32.83 31.3097 32.8198 31.2992C32.8095 31.2887 32.8016 31.2762 32.7963 31.2626C32.791 31.249 32.7886 31.2345 32.7891 31.2199L32.8363 29.6299C32.8374 29.5941 32.8262 29.5589 32.8045 29.5302C32.7828 29.5015 32.752 29.481 32.717 29.4719C32.2533 29.3525 31.7295 29.3784 31.2642 29.3658C31.2504 29.3654 31.2365 29.3678 31.2236 29.3727C31.2106 29.3777 31.1988 29.3852 31.1888 29.3947C31.1788 29.4042 31.1708 29.4156 31.1654 29.4283C31.1599 29.4409 31.157 29.4545 31.1569 29.4682L31.1472 31.3208C31.1471 31.3302 31.1451 31.3394 31.1414 31.348C31.1377 31.3566 31.1323 31.3644 31.1256 31.371C31.1188 31.3775 31.1108 31.3827 31.102 31.3862C31.0932 31.3897 31.0839 31.3914 31.0744 31.3913ZM27.6233 35.7168C28.5208 35.2123 29.3287 34.597 30.0471 33.8708C30.1251 33.7922 30.1189 33.7202 30.0283 33.6549C29.7532 33.4581 29.478 33.2479 29.2029 33.0243C29.1173 32.9551 29.0348 32.9083 28.9552 32.8841C28.9243 32.8746 28.891 32.8749 28.8603 32.8852C28.8296 32.8955 28.8029 32.9151 28.7841 32.9412C28.6466 33.1306 28.5112 33.3144 28.3782 33.4925C28.2451 33.671 27.8661 34.0319 27.2413 34.5749C26.7055 35.0409 26.1317 35.4551 25.5199 35.8177C25.1814 36.0188 25.3698 36.4669 25.6429 36.6101C25.6543 36.616 25.6669 36.6192 25.6797 36.6193C25.6925 36.6194 25.7051 36.6165 25.7165 36.6108C25.8646 36.5396 26.0149 36.4768 26.1675 36.4224C26.674 36.2428 27.1565 35.9794 27.6233 35.7168ZM37.0686 34.336C36.2109 33.7662 35.2069 33.2847 34.2073 33.0169C34.1268 32.9951 34.069 33.0216 34.034 33.0963C33.9597 33.2521 33.7556 33.5503 33.962 33.6757C34.7134 34.1313 35.3807 34.6825 35.964 35.3295C36.2214 35.6151 36.7235 36.4394 37.1279 36.4936C37.335 36.521 37.8191 36.5248 37.9151 36.2821C38.0885 35.8466 38.0577 35.2635 37.7117 34.8858C37.5201 34.6766 37.3058 34.4933 37.0686 34.336Z" fill="#A9CA2E"/>
<path d="M12.4128 27.0361L9.83139 27.0406C9.78456 27.0407 9.74666 27.0783 9.74675 27.1246L9.75185 30.0166C9.75193 30.0629 9.78996 30.1004 9.83679 30.1003L12.4182 30.0959C12.465 30.0958 12.5029 30.0582 12.5028 30.0119L12.4977 27.1198C12.4977 27.0735 12.4596 27.0361 12.4128 27.0361Z" fill="#A9CA2E"/>
<path d="M12.4958 31.2199L12.5101 34.273C12.5101 34.2804 12.5086 34.2877 12.5057 34.2945C12.5028 34.3013 12.4986 34.3074 12.4933 34.3126C12.488 34.3178 12.4817 34.3219 12.4748 34.3246C12.4679 34.3274 12.4605 34.3287 12.453 34.3286L9.79358 34.3034C9.78612 34.3034 9.77874 34.3019 9.77186 34.2991C9.76499 34.2963 9.75875 34.2921 9.75351 34.2868C9.74828 34.2816 9.74415 34.2754 9.74136 34.2685C9.73858 34.2617 9.7372 34.2544 9.73729 34.247L9.75305 31.1977C9.75325 31.183 9.75927 31.1691 9.7698 31.1588C9.78033 31.1485 9.79454 31.1428 9.80933 31.1428L12.4403 31.1643C12.4551 31.1645 12.4692 31.1704 12.4796 31.1808C12.49 31.1913 12.4958 31.2053 12.4958 31.2199Z" fill="#A9CA2E"/>
<path d="M0 0H46V46H0V0ZM45.0395 0.924452C45.0395 0.916974 45.0365 0.909803 45.0311 0.904516C45.0258 0.899228 45.0185 0.896258 45.011 0.896258H1.16914C1.16157 0.896258 1.15432 0.899228 1.14897 0.904516C1.14362 0.909803 1.14062 0.916974 1.14062 0.924452V44.2283C1.14062 44.2357 1.14362 44.2429 1.14897 44.2482C1.15432 44.2535 1.16157 44.2564 1.16914 44.2564H45.011C45.0185 44.2564 45.0258 44.2535 45.0311 44.2482C45.0365 44.2429 45.0395 44.2357 45.0395 44.2283V0.924452Z" fill="white"/>
<path d="M14.8206 9.52718C14.8254 9.54524 14.837 9.56077 14.8531 9.57058C14.8691 9.58039 14.8884 9.58371 14.9069 9.57986C15.1065 9.53979 15.3051 9.52149 15.5027 9.52496C16.7634 9.54771 18.0243 9.55364 19.2855 9.54276C19.6877 9.53979 20.0029 9.57912 20.3698 9.30163C20.5582 9.15992 21.2058 9.60434 21.4166 9.74679C21.7288 9.95825 21.6553 10.1875 21.686 10.5199C21.6874 10.535 21.6855 10.5503 21.6806 10.5647C21.6757 10.5791 21.6678 10.5923 21.6574 10.6036C21.6471 10.6148 21.6344 10.6238 21.6204 10.6299C21.6063 10.6361 21.5911 10.6393 21.5757 10.6393L17.471 10.6631C17.4549 10.6632 17.4391 10.667 17.4247 10.6742C17.4104 10.6815 17.398 10.6919 17.3885 10.7048C17.379 10.7176 17.3727 10.7325 17.3701 10.7482C17.3675 10.7639 17.3686 10.78 17.3734 10.7951C17.388 10.8426 17.418 10.8869 17.4635 10.928C18.8112 12.1544 20.6152 12.8295 22.3426 13.3244C22.5237 13.3763 22.6368 13.4162 22.6818 13.4439C22.9355 13.6011 22.7944 13.8823 22.5873 14.0048C22.2021 14.2323 21.8834 14.5137 21.6313 14.8491C21.6148 14.871 21.5908 14.8864 21.5638 14.8924C21.5369 14.8984 21.5086 14.8946 21.4842 14.8817C20.5567 14.3921 19.5421 13.9706 18.6874 13.3867C17.6466 12.6745 16.7198 11.848 16.061 10.9257C15.8809 10.6735 15.7586 10.6141 15.4291 10.6327C14.9564 10.6589 14.4846 10.6685 14.0139 10.6616C13.9223 10.6601 13.8405 10.7773 13.7835 10.8434C13.1216 11.6046 12.3615 12.3992 11.5345 12.9853C11.3252 13.1337 11.1323 13.3021 10.9177 13.4275C10.0717 13.9217 9.13472 14.3925 8.10666 14.8402C7.93457 14.9149 7.78573 14.9661 7.66017 14.9938C7.64783 14.9963 7.63512 14.996 7.62301 14.9929C7.6109 14.9898 7.59973 14.984 7.59038 14.976C7.41028 14.8172 7.28646 14.5182 7.18966 14.3045C7.16965 14.261 7.18141 14.2288 7.22493 14.2081C7.77473 13.9405 8.30927 13.6548 8.82855 13.3511C10.0007 12.6656 10.8246 11.845 11.7611 10.9784C11.8197 10.9245 11.8742 10.8679 11.9247 10.8085C11.9339 10.7977 11.9403 10.7849 11.9434 10.7712C11.9465 10.7574 11.9461 10.7431 11.9423 10.7295C11.9386 10.716 11.9315 10.7035 11.9218 10.6932C11.912 10.6829 11.8999 10.6751 11.8865 10.6705C11.8439 10.6557 11.7964 10.6482 11.7439 10.6482C11.055 10.6478 10.3664 10.6463 9.67801 10.6438C9.30281 10.6431 8.77902 10.6742 8.32803 10.6571C8.28344 10.6556 8.24103 10.6376 8.20901 10.6068C8.17698 10.576 8.15762 10.5344 8.15468 10.4902L8.09991 9.63625C8.09918 9.62513 8.10077 9.61399 8.10456 9.60351C8.10836 9.59304 8.11428 9.58346 8.12196 9.57538C8.12964 9.5673 8.13891 9.56089 8.14919 9.55656C8.15947 9.55222 8.17054 9.55005 8.1817 9.55018C9.71253 9.56428 11.2449 9.53831 12.7757 9.56428C12.8778 9.56626 12.9633 9.49651 13.0323 9.35505C13.341 8.72737 13.6532 8.11033 13.9688 7.50392C14.0174 7.41044 14.0912 7.38225 14.1902 7.41934L15.4997 7.90531C15.6252 7.9518 15.6593 8.03515 15.6017 8.15534C15.3896 8.59951 15.1352 9.03379 14.8386 9.45818C14.8311 9.46857 14.8266 9.4797 14.8251 9.49157C14.8216 9.51284 14.8201 9.52471 14.8206 9.52718Z" fill="white"/>
<path d="M37.5752 11.3731C37.5517 11.3568 37.5209 11.3489 37.4829 11.3494C36.0696 11.3623 34.6563 11.3709 33.2431 11.3754C33.102 11.3759 32.9729 11.3816 32.8559 11.3924C32.8269 11.3952 32.8001 11.4088 32.7808 11.4304C32.7615 11.4519 32.751 11.48 32.7515 11.5089C32.7746 12.51 32.7808 13.4963 32.7703 14.4678C32.7636 15.1103 31.6777 15.0249 31.2943 15.0324C31.2716 15.0328 31.2496 15.025 31.2323 15.0106C31.2151 14.9961 31.2037 14.9759 31.2005 14.9537C31.1824 14.8276 31.1722 14.7089 31.1697 14.5976C31.1467 13.5836 31.1447 12.5499 31.1637 11.4963C31.164 11.4785 31.1607 11.4609 31.154 11.4444C31.1474 11.428 31.1374 11.413 31.1248 11.4004C31.1122 11.3878 31.0972 11.3779 31.0807 11.3712C31.0642 11.3644 31.0465 11.3611 31.0286 11.3613C29.6469 11.3761 28.2651 11.3796 26.8834 11.3717C26.7808 11.3707 26.693 11.3828 26.62 11.408C26.6074 11.4122 26.5964 11.4198 26.5881 11.4299C26.5799 11.4401 26.5748 11.4523 26.5734 11.4651C26.4909 12.2279 26.271 13.3549 25.36 13.5366C25.0494 13.5982 24.8452 13.4713 24.6149 13.2807C24.4986 13.1842 24.4288 13.133 24.4603 12.9668C24.5286 12.6033 24.7379 12.2323 24.9165 11.9103C25.2342 11.3375 25.4726 10.7336 25.6317 10.0985C25.6647 9.96717 25.7285 9.8915 25.8793 9.89817C26.1134 9.90906 26.3458 9.92216 26.5764 9.9375C26.5909 9.93859 26.6044 9.94489 26.6144 9.95517C26.6244 9.96545 26.6301 9.97898 26.6305 9.99314C26.6315 10.0466 26.6232 10.0987 26.6057 10.1497C26.6015 10.1617 26.6003 10.1746 26.6022 10.1872C26.604 10.1998 26.6089 10.2118 26.6164 10.2222C26.6239 10.2326 26.6338 10.241 26.6452 10.2469C26.6567 10.2527 26.6694 10.2558 26.6822 10.2558L31.0219 10.278C31.0617 10.2782 31.1 10.2629 31.1288 10.2354C31.1575 10.2078 31.1743 10.1701 31.1757 10.1304L31.2035 9.3803C31.2041 9.36382 31.2013 9.34739 31.1954 9.33198C31.1894 9.31657 31.1804 9.30249 31.1689 9.29059C31.1573 9.27869 31.1435 9.2692 31.1281 9.26269C31.1128 9.25618 31.0963 9.25278 31.0796 9.25269L26.6687 9.22227C26.5617 9.22128 26.5029 9.16836 26.4924 9.0635L26.4196 8.32008C26.4182 8.30694 26.4197 8.29368 26.4238 8.28112C26.4279 8.26856 26.4346 8.25699 26.4435 8.24715C26.4524 8.2373 26.4633 8.2294 26.4755 8.22395C26.4876 8.21849 26.5008 8.2156 26.5142 8.21547C29.6028 8.18876 32.6885 8.22214 35.7757 8.19543C36.0939 8.19246 36.3467 8.06263 36.6071 7.9083C36.6308 7.89425 36.6579 7.88695 36.6855 7.88721C36.7131 7.88748 36.74 7.89529 36.7632 7.90979L37.7868 8.54711C37.8133 8.56356 37.8353 8.58624 37.8509 8.61315C37.8665 8.64007 37.8751 8.67039 37.8761 8.70143L37.8866 9.07017C37.8871 9.0889 37.8838 9.10754 37.8769 9.12498C37.8701 9.14243 37.8598 9.15833 37.8466 9.17174C37.8335 9.18516 37.8177 9.19582 37.8004 9.2031C37.783 9.21037 37.7644 9.21412 37.7455 9.21411L32.8626 9.22895C32.8487 9.22894 32.8348 9.23171 32.822 9.23707C32.8091 9.24244 32.7975 9.2503 32.7878 9.2602C32.778 9.27009 32.7704 9.28181 32.7654 9.29467C32.7603 9.30752 32.7579 9.32125 32.7583 9.33505L32.7778 10.0777C32.7808 10.1925 32.8406 10.2501 32.9572 10.2506C34.4437 10.2513 35.9318 10.2721 37.4176 10.2558C37.6397 10.2533 37.8358 10.1848 38.0059 10.0503C38.156 9.93156 38.4584 10.0978 38.6145 10.1593C38.9244 10.2825 39.2351 10.3686 39.5337 10.5333C39.5417 10.5377 39.5477 10.545 39.5504 10.5536C39.553 10.5622 39.5522 10.5714 39.548 10.5793C39.3469 10.9562 39.1653 11.3219 38.9364 11.7011C38.6978 12.0953 38.4752 12.4982 38.2685 12.9097C38.1252 13.1968 37.6164 13.0366 37.3913 12.9453C37.359 12.9323 37.332 12.9091 37.3145 12.8793C37.297 12.8495 37.2899 12.8148 37.2945 12.7806C37.356 12.3295 37.4589 11.888 37.6029 11.4562C37.6079 11.4414 37.6079 11.4253 37.6029 11.4103C37.5979 11.3954 37.5882 11.3823 37.5752 11.3731Z" fill="white"/>
<path d="M15.7961 13.2309C16.0948 13.2287 16.7371 13.2843 16.9457 13.0247C16.9709 12.9933 17.007 12.9722 17.047 12.9654C17.0871 12.9586 17.1285 12.9665 17.1633 12.9876C17.4365 13.1548 17.7224 13.3039 18.021 13.435C18.337 13.5737 18.331 13.9424 18.361 14.2437C18.3623 14.2572 18.3608 14.271 18.3564 14.2839C18.3521 14.2969 18.345 14.3088 18.3357 14.3189C18.3264 14.3291 18.315 14.3372 18.3023 14.3427C18.2896 14.3483 18.2758 14.3512 18.2619 14.3512L11.6651 14.3438C11.6345 14.3439 11.605 14.3322 11.5828 14.3112C11.5606 14.2902 11.5473 14.2615 11.5458 14.2311C11.53 13.9387 11.4355 13.6709 11.41 13.389C11.4074 13.3585 11.4169 13.3283 11.4363 13.3048C11.4558 13.2812 11.4838 13.2662 11.5143 13.2628C11.5873 13.2549 11.6638 13.251 11.7439 13.251C13.0946 13.249 14.4454 13.2423 15.7961 13.2309Z" fill="white"/>
<path d="M36.7242 13.7104L33.5095 13.716C33.456 13.7161 33.4127 13.759 33.4128 13.8118L33.414 14.4677C33.4141 14.5206 33.4575 14.5633 33.511 14.5632L36.7257 14.5577C36.7792 14.5576 36.8224 14.5147 36.8223 14.4618L36.8212 13.806C36.8211 13.7531 36.7777 13.7103 36.7242 13.7104Z" fill="white"/>
<path d="M29.8948 15.5747C30.7742 15.5577 31.5967 15.5614 32.5339 15.5421C33.5905 15.5206 34.6411 15.5918 35.7089 15.4953C35.7945 15.4874 35.884 15.46 35.9776 15.413C36.2402 15.2809 36.5314 15.2305 36.8165 15.3173C37.1444 15.4182 37.3178 15.4538 37.5797 15.5109C37.6001 15.5153 37.6185 15.5264 37.6316 15.5424C37.6447 15.5583 37.6518 15.5781 37.6517 15.5985L37.6427 21.4345C37.6427 21.4652 37.6282 21.4852 37.5992 21.4946C37.1069 21.6539 36.6039 21.7677 36.0901 21.8359C36.0819 21.837 36.0736 21.8363 36.0657 21.8338C36.0578 21.8314 36.0505 21.8273 36.0444 21.8218C36.0382 21.8163 36.0332 21.8096 36.0299 21.802C36.0265 21.7945 36.0248 21.7863 36.0248 21.778L36.0383 21.186C36.0385 21.1745 36.0364 21.1631 36.0322 21.1524C36.0279 21.1417 36.0216 21.1319 36.0135 21.1236C36.0054 21.1154 35.9957 21.1088 35.9851 21.1042C35.9744 21.0996 35.9629 21.0971 35.9513 21.0969C34.8632 21.0791 33.646 21.1103 32.681 21.1103C30.6609 21.1093 28.6408 21.113 26.6207 21.1214C26.4789 21.1222 26.2283 21.1392 26.1885 20.9567C26.129 20.6847 26.0879 20.4267 26.0654 20.1829C26.0584 20.1107 26.0919 20.0751 26.166 20.076C29.4132 20.127 32.6605 20.1314 35.9078 20.0894C35.9423 20.089 35.9754 20.0752 35.9997 20.0508C36.024 20.0265 36.0376 19.9937 36.0376 19.9596L36.0346 18.9379C36.0345 18.9159 36.03 18.8942 36.0213 18.874C36.0127 18.8537 36.0001 18.8354 35.9842 18.8201C35.9683 18.8047 35.9496 18.7927 35.929 18.7846C35.9084 18.7766 35.8864 18.7727 35.8642 18.7732C32.8694 18.8452 29.8767 18.8007 26.8721 18.8103C26.8417 18.8103 26.8124 18.7993 26.7897 18.7793C26.767 18.7593 26.7525 18.7318 26.749 18.702L26.6552 17.9267C26.6531 17.9091 26.6548 17.8914 26.6601 17.8746C26.6654 17.8577 26.6743 17.8422 26.6862 17.829C26.698 17.8159 26.7125 17.8053 26.7288 17.7981C26.7451 17.7909 26.7627 17.7872 26.7806 17.7872L35.8958 17.8013C35.9234 17.8013 35.95 17.7903 35.9695 17.7708C35.9891 17.7514 36.0001 17.7249 36.0001 17.6974L35.9963 16.7136C35.9962 16.6985 35.9931 16.6835 35.9871 16.6696C35.9811 16.6557 35.9724 16.643 35.9614 16.6325C35.9505 16.6219 35.9375 16.6136 35.9232 16.6081C35.909 16.6025 35.8938 16.5998 35.8785 16.6001C34.909 16.6216 33.8562 16.5904 32.9632 16.6023C30.4318 16.6374 28.2206 16.629 26.3296 16.5771C26.223 16.5741 26.1645 16.5083 26.154 16.3797C26.133 16.1131 26.1142 15.8485 26.0977 15.5858C26.0973 15.5772 26.0987 15.5685 26.1018 15.5604C26.1049 15.5522 26.1097 15.5449 26.1159 15.5387C26.122 15.5326 26.1294 15.5278 26.1375 15.5247C26.1456 15.5215 26.1543 15.5201 26.163 15.5206C27.4152 15.5814 28.6591 15.5995 29.8948 15.5747Z" fill="white"/>
<path d="M15.7983 16.9376C15.7715 16.9384 15.7461 16.9494 15.7273 16.9684C15.7086 16.9874 15.698 17.0128 15.6978 17.0393L15.664 21.4234C15.6638 21.4344 15.6603 21.4451 15.6537 21.4544C15.6472 21.4636 15.638 21.4709 15.6273 21.4753C15.229 21.6415 14.7915 21.7437 14.3148 21.7817C14.1082 21.7986 14.0036 21.71 14.0011 21.5161C13.9816 20.0565 13.9871 18.5719 14.0176 17.0623C14.018 17.0419 14.0143 17.0216 14.0067 17.0026C13.999 16.9836 13.9877 16.9663 13.9732 16.9518C13.9587 16.9372 13.9415 16.9256 13.9224 16.9177C13.9034 16.9098 13.8829 16.9057 13.8623 16.9057L8.96813 16.9087C8.92835 16.9087 8.8899 16.8946 8.85984 16.8688C8.82978 16.8431 8.81015 16.8074 8.80454 16.7685L8.68448 15.9486C8.68246 15.9355 8.68327 15.9221 8.68686 15.9093C8.69046 15.8965 8.69675 15.8846 8.70532 15.8744C8.71389 15.8641 8.72456 15.8558 8.73662 15.8499C8.74867 15.8441 8.76185 15.8408 8.77528 15.8403C9.44814 15.8151 10.1125 15.8047 10.7684 15.8092C12.6324 15.8225 14.4956 15.8062 16.3596 15.8017C17.0185 15.801 18.1088 15.8366 18.9853 15.8055C19.2515 15.7961 19.5211 15.7224 19.7943 15.5844C19.8828 15.5398 19.9901 15.5658 20.0787 15.6215C20.3653 15.799 20.6522 15.9756 20.9394 16.1512C21.1803 16.2981 21.106 16.4962 21.088 16.7314C21.0767 16.879 20.9732 16.9169 20.8336 16.9191C19.1542 16.9458 17.4785 16.8946 15.7983 16.9376Z" fill="white"/>
<path d="M11.4602 17.4444C11.8124 17.7362 12.1681 17.989 12.5273 18.2026C12.5758 18.2318 12.6249 18.2724 12.6744 18.3243C12.6803 18.3304 12.6849 18.3376 12.688 18.3455C12.691 18.3534 12.6925 18.3619 12.6922 18.3703C12.6919 18.3788 12.6899 18.3872 12.6863 18.395C12.6828 18.4027 12.6777 18.4097 12.6714 18.4156C11.3559 19.6197 9.90989 20.5071 8.25674 21.1956C8.24097 21.2022 8.2232 21.2026 8.20703 21.1967C8.19087 21.1908 8.17752 21.179 8.1697 21.1637L7.84402 20.5242C7.79549 20.4287 7.81825 20.3547 7.91231 20.3023C9.25403 19.55 10.2693 18.5758 11.2921 17.4563C11.3133 17.4331 11.3426 17.4189 11.374 17.4167C11.4053 17.4145 11.4363 17.4244 11.4602 17.4444Z" fill="white"/>
<path d="M18.1846 17.7397C19.1211 18.1196 20.0434 18.5232 20.8238 19.1382C21.199 19.435 21.599 20.0293 21.4744 20.513C21.3596 20.9612 20.8388 21.1266 20.4299 21.0732C20.1927 21.042 19.8055 20.588 19.6622 20.3988C19.0318 19.5668 18.2692 18.8746 17.3742 18.3221C17.2091 18.2205 17.041 18.101 17.107 17.8666C17.2489 17.3598 17.7922 17.5809 18.1846 17.7397Z" fill="white"/>
<path d="M12.4433 35.3821C12.3405 35.354 12.1829 35.3925 12.0846 35.3903C11.3432 35.3718 10.601 35.4378 9.86111 35.3703C9.84711 35.3689 9.83298 35.3705 9.81963 35.3749C9.80628 35.3793 9.79401 35.3864 9.78361 35.3958C9.77322 35.4051 9.76493 35.4165 9.75927 35.4293C9.75362 35.442 9.75074 35.4558 9.7508 35.4697C9.7523 35.7828 9.7478 36.0964 9.73729 36.4105C9.72154 36.912 8.84131 36.8912 8.49387 36.9321C8.47162 36.9347 8.44906 36.9326 8.42768 36.926C8.4063 36.9193 8.38659 36.9083 8.36985 36.8936C8.35311 36.8788 8.33973 36.8608 8.33058 36.8405C8.32143 36.8203 8.31672 36.7984 8.31677 36.7762L8.32128 26.0412C8.32128 26.0215 8.32918 26.0026 8.34325 25.9887C8.35733 25.9748 8.37641 25.967 8.39632 25.967L9.8326 25.9707C9.85351 25.9709 9.87391 25.9643 9.8907 25.952C9.9075 25.9397 9.91977 25.9223 9.92565 25.9024C10.033 25.5448 10.1568 25.1857 10.2446 24.8266C10.3736 24.2984 10.5035 23.7721 10.634 23.2478C10.6354 23.2423 10.6379 23.2372 10.6414 23.2328C10.6448 23.2283 10.6492 23.2247 10.6542 23.222C10.6591 23.2193 10.6646 23.2177 10.6701 23.2173C10.6757 23.2169 10.6813 23.2177 10.6866 23.2196C11.1286 23.3776 11.6148 23.4303 12.0756 23.5498C12.1831 23.578 12.2159 23.6427 12.1739 23.7441L11.3109 25.8446C11.307 25.8543 11.3056 25.8649 11.3069 25.8753C11.3082 25.8857 11.3121 25.8956 11.3183 25.9041C11.3245 25.9127 11.3328 25.9195 11.3424 25.924C11.352 25.9285 11.3626 25.9305 11.3732 25.9299C11.8062 25.9054 12.3029 26.0197 12.6234 25.6724C12.8372 25.4417 13.0278 25.6776 13.2252 25.7229C13.4418 25.7724 13.6352 25.8292 13.8053 25.8935C13.8378 25.9057 13.8657 25.9275 13.8853 25.9559C13.9049 25.9843 13.9152 26.0179 13.9148 26.0523C13.9078 26.8971 13.9091 27.7177 13.9186 28.5141C13.9208 28.7277 13.8878 28.9807 13.8923 29.1581C13.9313 30.7977 13.86 32.4337 13.8976 34.0734C13.9086 34.5413 13.8943 35.1781 13.8548 35.9839C13.8423 36.243 13.715 36.3894 13.4728 36.4231C13.1862 36.4627 12.8928 36.4795 12.5926 36.4735C12.5826 36.4733 12.5728 36.4712 12.5637 36.4673C12.5546 36.4633 12.5463 36.4576 12.5394 36.4505C12.5325 36.4434 12.5271 36.4351 12.5235 36.4259C12.5199 36.4167 12.5181 36.407 12.5183 36.3971L12.5356 35.5053C12.5371 35.4405 12.5063 35.3995 12.4433 35.3821ZM12.4977 27.1198C12.4977 27.1088 12.4955 27.0979 12.4912 27.0877C12.487 27.0776 12.4807 27.0683 12.4728 27.0606C12.4649 27.0528 12.4556 27.0466 12.4453 27.0424C12.435 27.0382 12.4239 27.0361 12.4128 27.0361L9.8314 27.0406C9.80891 27.0406 9.78736 27.0495 9.77148 27.0652C9.75561 27.081 9.74671 27.1023 9.74675 27.1246L9.75185 30.0166C9.75187 30.0276 9.75409 30.0385 9.75837 30.0487C9.76264 30.0589 9.76891 30.0681 9.77679 30.0759C9.78468 30.0836 9.79404 30.0898 9.80434 30.094C9.81463 30.0982 9.82566 30.1003 9.8368 30.1003L12.4182 30.0958C12.4407 30.0958 12.4622 30.0869 12.4781 30.0712C12.494 30.0554 12.5029 30.0341 12.5028 30.0119L12.4977 27.1198ZM12.4958 31.2199C12.4958 31.2053 12.49 31.1912 12.4796 31.1808C12.4692 31.1704 12.4551 31.1644 12.4403 31.1642L9.80933 31.1427C9.79454 31.1427 9.78033 31.1485 9.7698 31.1588C9.75927 31.169 9.75325 31.183 9.75305 31.1976L9.73729 34.247C9.73719 34.2544 9.73858 34.2617 9.74136 34.2685C9.74415 34.2753 9.74828 34.2816 9.75351 34.2868C9.75875 34.2921 9.76499 34.2962 9.77186 34.2991C9.77874 34.3019 9.78612 34.3034 9.79357 34.3034L12.453 34.3286C12.4605 34.3287 12.4679 34.3273 12.4748 34.3246C12.4817 34.3218 12.488 34.3177 12.4933 34.3126C12.4986 34.3074 12.5028 34.3012 12.5057 34.2944C12.5086 34.2876 12.5101 34.2803 12.5101 34.273L12.4958 31.2199Z" fill="white"/>
<path d="M17.4928 25.7585C17.4895 25.7653 17.489 25.7727 17.4911 25.78C17.4932 25.7874 17.4979 25.7944 17.5049 25.8006C17.5118 25.8067 17.5207 25.8117 17.5308 25.8151C17.5409 25.8185 17.5518 25.8202 17.5626 25.8201C18.1484 25.8186 18.7352 25.8159 19.323 25.8119C19.5526 25.8097 19.9121 25.8038 20.1019 25.6606C20.2933 25.5174 20.4126 25.4625 20.6542 25.5241C20.9849 25.6091 21.3051 25.7093 21.6148 25.8246C21.6399 25.8339 21.6615 25.8507 21.6768 25.8727C21.6921 25.8947 21.7003 25.9209 21.7003 25.9477C21.6988 27.439 21.694 28.9211 21.686 30.3941C21.68 31.4321 21.6095 32.4931 21.5645 33.5444C21.5295 34.3684 21.3816 35.1012 21.121 35.7427C20.6715 36.8482 19.8145 37.03 18.7452 37.24C18.7034 37.2481 18.6602 37.2453 18.6198 37.2319C18.5794 37.2185 18.5432 37.195 18.5148 37.1635C18.2522 36.872 18.009 36.6256 17.6098 36.4572C17.2511 36.3064 16.9485 36.2077 16.7018 36.1612C16.4622 36.1167 16.3814 35.9643 16.4595 35.7042C16.4677 35.677 16.4847 35.6531 16.5079 35.6363C16.531 35.6194 16.559 35.6104 16.5878 35.6107C17.3482 35.6201 18.1161 35.603 18.8915 35.5595C19.7838 35.509 20.0029 34.1639 20.0344 33.5273C20.0892 32.4359 20.1657 31.3394 20.1702 30.2524C20.1747 29.1835 20.1767 28.1092 20.1762 27.0295C20.1762 27.0066 20.167 26.9847 20.1507 26.9686C20.1344 26.9525 20.1123 26.9434 20.0892 26.9434C19.0631 26.9459 18.0323 26.9434 16.9967 26.936C16.8927 26.935 16.7956 26.957 16.7056 27.002C16.683 27.0134 16.6657 27.0331 16.6576 27.0569C16.6185 27.1689 16.5833 27.2476 16.509 27.3448C15.9852 28.0293 15.4306 28.702 14.8453 29.3628C14.8258 29.3851 14.8041 29.3868 14.78 29.368L14.1902 28.9028C14.1689 28.8858 14.1525 28.8633 14.1429 28.8379C14.1332 28.8124 14.1307 28.7849 14.1354 28.7582C14.188 28.4718 14.5219 28.1728 14.6922 27.9146C15.6498 26.4648 16.2951 24.9216 16.8121 23.273C16.8161 23.2601 16.824 23.2487 16.8349 23.2405C16.8458 23.2322 16.8591 23.2275 16.8729 23.227C17.001 23.2231 17.1311 23.2411 17.2631 23.2812C17.6268 23.3925 17.971 23.4976 18.2957 23.5965C18.3152 23.6025 18.3333 23.6126 18.3486 23.6259C18.364 23.6393 18.3763 23.6558 18.3847 23.6742C18.3931 23.6927 18.3975 23.7127 18.3976 23.7329C18.3976 23.7532 18.3933 23.7732 18.385 23.7916L17.4928 25.7585Z" fill="white"/>
<path d="M33.8997 24.5774L33.8644 23.457C33.864 23.4455 33.866 23.434 33.8702 23.4232C33.8744 23.4124 33.8808 23.4026 33.889 23.3943C33.8972 23.3859 33.907 23.3793 33.9179 23.3748C33.9288 23.3703 33.9404 23.368 33.9522 23.368L35.3345 23.371C35.4345 23.371 35.4843 23.4204 35.4838 23.5194L35.4755 24.6241C35.4753 24.6513 35.4859 24.6776 35.5049 24.6973C35.524 24.7169 35.5501 24.7285 35.5776 24.7294C36.0904 24.7448 36.6129 24.7408 37.1452 24.7176C37.5174 24.702 37.8408 24.6775 38.0787 24.4868C38.107 24.4639 38.1416 24.4499 38.178 24.4467C38.2144 24.4436 38.2509 24.4513 38.2828 24.469C38.577 24.6327 38.8639 24.7947 39.1435 24.955C39.4572 25.1345 39.4302 25.4528 39.4069 25.7563C39.4052 25.7787 39.395 25.7997 39.3783 25.815C39.3616 25.8302 39.3396 25.8387 39.3169 25.8386C38.1382 25.8322 36.9516 25.833 35.7569 25.8409C35.6594 25.8414 35.5738 25.8577 35.5003 25.8898C35.4903 25.894 35.4817 25.901 35.4756 25.9099C35.4694 25.9189 35.466 25.9294 35.4658 25.9403L35.4388 27.1942C35.4379 27.2331 35.4233 27.2706 35.3975 27.3C35.3718 27.3294 35.3364 27.3489 35.2977 27.3552C34.9668 27.4093 34.2569 27.5889 33.9597 27.4531C33.9434 27.4459 33.9297 27.434 33.9201 27.419C33.9105 27.404 33.9055 27.3864 33.9057 27.3685L33.9139 25.918C33.9144 25.8641 33.8877 25.8364 33.8336 25.8349C32.7045 25.7993 31.5759 25.7951 30.4478 25.8223C30.3422 25.8248 30.2574 25.8349 30.1934 25.8527C30.1659 25.8602 30.1481 25.8772 30.1401 25.9039C30.0396 26.2378 30.0726 26.6911 30.0538 27.0435C30.0463 27.1734 30.0103 27.2661 29.8805 27.321C29.515 27.4761 29.0423 27.4887 28.6491 27.5421C28.625 27.5454 28.6005 27.5397 28.5803 27.5262C28.5601 27.5126 28.5456 27.4921 28.5395 27.4687C28.4307 27.0317 28.493 26.4656 28.4952 26.0085C28.4957 25.8977 28.4397 25.8419 28.3271 25.8409L24.9706 25.8142C24.9404 25.814 24.9111 25.8038 24.8874 25.7852C24.8637 25.7667 24.8471 25.7408 24.84 25.7118C24.7635 25.4007 24.7254 25.0846 24.7259 24.7636C24.7259 24.7564 24.7275 24.7493 24.7306 24.7428C24.7337 24.7363 24.7382 24.7306 24.7438 24.7261C24.7494 24.7215 24.7559 24.7183 24.763 24.7165C24.77 24.7148 24.7774 24.7147 24.7845 24.7161C24.8885 24.7364 25.0003 24.748 25.1199 24.751C26.0954 24.7762 27.071 24.7754 28.0465 24.7487C28.1676 24.7453 28.2871 24.7361 28.4052 24.7213C28.4245 24.7188 28.4422 24.7094 28.455 24.6949C28.4679 24.6805 28.475 24.6619 28.475 24.6426L28.4712 23.4058C28.4712 23.3381 28.5052 23.3064 28.5733 23.3109L29.9833 23.3932C30.017 23.3951 30.0487 23.4099 30.0716 23.4344C30.0945 23.4589 30.107 23.4912 30.1064 23.5245L30.0846 24.6159C30.0831 24.7099 30.1299 24.7567 30.2249 24.7562L33.7413 24.7391C33.8499 24.7386 33.9027 24.6847 33.8997 24.5774Z" fill="white"/>
<path d="M32.8191 27.2312C33.9207 28.1401 35.2399 28.9162 36.5839 29.4103C37.4318 29.7219 38.2933 29.994 39.1683 30.2264C39.3894 30.2848 39.6078 30.38 39.8234 30.5121C39.8363 30.52 39.8471 30.5308 39.8549 30.5437C39.8627 30.5566 39.8672 30.5712 39.8681 30.5862C39.869 30.6012 39.8662 30.6162 39.86 30.6299C39.8538 30.6436 39.8443 30.6556 39.8324 30.6649C39.4399 30.9699 38.9972 31.2882 38.7496 31.7348C38.7375 31.7564 38.7183 31.7732 38.6952 31.7824C38.6721 31.7916 38.6465 31.7926 38.6227 31.7852C38.3841 31.7103 38.1477 31.5901 37.9219 31.5167C36.8353 31.163 35.8037 30.6963 34.8272 30.1166C33.8621 29.5431 32.9662 28.8056 32.1482 28.0296C32.1223 28.005 32.0877 27.9916 32.0518 27.9922C32.0158 27.9927 31.9815 28.0072 31.9561 28.0325C30.5874 29.397 28.9117 30.4401 27.1092 31.1435C26.3928 31.4234 25.6139 31.692 24.7725 31.9492C24.6434 31.9883 24.5598 31.9497 24.5218 31.8335C24.4633 31.6539 24.3955 31.483 24.3185 31.3208C24.3121 31.3075 24.3086 31.293 24.3081 31.2783C24.3076 31.2635 24.3102 31.2489 24.3157 31.2351C24.3211 31.2214 24.3294 31.2088 24.3399 31.1983C24.3505 31.1878 24.3631 31.1795 24.377 31.1739C25.1732 30.8563 25.9498 30.5202 26.7108 30.1011C27.3696 29.7375 28.012 29.4096 28.607 28.9421C29.025 28.615 29.4385 28.336 29.8272 27.9687C30.3915 27.436 30.9195 26.8699 31.4113 26.2704C31.5064 26.1542 31.6244 26.131 31.7655 26.2007C32.1402 26.3877 32.5072 26.5947 32.8664 26.8217C32.8829 26.8321 32.8972 26.8457 32.9082 26.8618C32.9192 26.8778 32.9268 26.8959 32.9305 26.915C32.9341 26.934 32.9338 26.9536 32.9295 26.9726C32.9251 26.9915 32.9169 27.0093 32.9054 27.025L32.8093 27.1548C32.7883 27.1835 32.7916 27.209 32.8191 27.2312Z" fill="white"/>
<path d="M16.8512 31.5211C16.5337 30.7888 16.1998 30.3333 15.7946 29.7486C15.774 29.7186 15.7635 29.683 15.7644 29.6468C15.7654 29.6106 15.7777 29.5756 15.7998 29.5468C15.9882 29.302 16.2028 29.1061 16.5165 29.3354C16.9282 29.6356 17.3212 29.9581 17.6954 30.3029C18.1839 30.7525 18.6867 31.2503 18.5936 31.9247C18.5386 32.3204 18.3305 32.5982 17.9693 32.7579C17.5528 32.9419 17.0042 31.8765 16.8512 31.5211Z" fill="white"/>
<path d="M31.0744 31.3913C31.0838 31.3914 31.0932 31.3896 31.102 31.3861C31.1108 31.3827 31.1188 31.3775 31.1255 31.3709C31.1323 31.3644 31.1377 31.3566 31.1414 31.348C31.1451 31.3394 31.1471 31.3301 31.1472 31.3208L31.1569 29.4682C31.157 29.4544 31.1599 29.4409 31.1654 29.4282C31.1708 29.4156 31.1788 29.4042 31.1888 29.3947C31.1988 29.3851 31.2106 29.3777 31.2236 29.3727C31.2365 29.3678 31.2504 29.3654 31.2642 29.3658C31.7295 29.3784 32.2533 29.3524 32.717 29.4719C32.752 29.4809 32.7828 29.5015 32.8045 29.5302C32.8262 29.5589 32.8374 29.594 32.8363 29.6299L32.7891 31.2199C32.7886 31.2345 32.791 31.249 32.7963 31.2626C32.8016 31.2762 32.8095 31.2886 32.8198 31.2992C32.83 31.3097 32.8422 31.3181 32.8558 31.3238C32.8693 31.3296 32.8839 31.3326 32.8986 31.3327C33.63 31.3411 34.3652 31.3428 35.1041 31.3379C35.4125 31.3364 35.5483 31.2629 35.7802 31.0908C36.0061 30.9231 36.6762 31.4158 36.8585 31.5538C37.1579 31.7808 37.1032 32.0954 37.0806 32.4166C37.0795 32.4349 37.0713 32.452 37.0577 32.4644C37.0442 32.4768 37.0263 32.4836 37.0079 32.4834L32.9339 32.4344C32.8959 32.434 32.8593 32.4482 32.8318 32.474C32.8043 32.4998 32.7882 32.5351 32.7868 32.5724C32.7848 32.6278 32.7846 32.6954 32.7861 32.775C32.8156 34.2074 32.7961 35.6344 32.7275 37.056C32.7264 37.0793 32.7177 37.1016 32.7026 37.1196C32.6876 37.1375 32.6671 37.1501 32.6442 37.1554C32.212 37.2578 31.7738 37.3104 31.3295 37.3134C31.3078 37.3135 31.2864 37.3094 31.2663 37.3013C31.2462 37.2933 31.228 37.2814 31.2126 37.2663C31.1972 37.2513 31.1849 37.2335 31.1765 37.2138C31.1681 37.1941 31.1638 37.173 31.1637 37.1517C31.1587 35.7049 31.1557 34.2522 31.1547 32.7935C31.1547 32.707 31.1484 32.6177 31.1359 32.5257C31.1324 32.4995 31.1194 32.4754 31.0992 32.4581C31.079 32.4407 31.0531 32.4312 31.0264 32.4315L27.2773 32.4426C27.2478 32.4429 27.2192 32.432 27.1973 32.4122C27.1755 32.3924 27.162 32.3651 27.1595 32.3358L27.089 31.5456C27.0864 31.5164 27.0901 31.487 27.0998 31.4593C27.1094 31.4316 27.1248 31.4063 27.145 31.3849C27.1652 31.3635 27.1896 31.3465 27.2168 31.3351C27.244 31.3237 27.2733 31.318 27.3028 31.3186L31.0744 31.3913Z" fill="white"/>
<path d="M27.6233 35.7168C27.1565 35.9794 26.674 36.2428 26.1675 36.4224C26.0149 36.4768 25.8646 36.5396 25.7165 36.6108C25.7051 36.6165 25.6925 36.6194 25.6797 36.6193C25.6669 36.6192 25.6543 36.616 25.6429 36.6101C25.3698 36.4669 25.1814 36.0187 25.5199 35.8177C26.1317 35.4551 26.7055 35.0409 27.2413 34.5749C27.8661 34.0318 28.2451 33.671 28.3782 33.4925C28.5112 33.3144 28.6466 33.1306 28.7841 32.9412C28.8029 32.9151 28.8296 32.8955 28.8603 32.8852C28.891 32.8749 28.9243 32.8745 28.9552 32.8841C29.0348 32.9083 29.1173 32.955 29.2029 33.0243C29.478 33.2479 29.7532 33.4581 30.0283 33.6549C30.1189 33.7202 30.1251 33.7922 30.0471 33.8708C29.3287 34.5969 28.5207 35.2123 27.6233 35.7168Z" fill="white"/>
<path d="M34.2073 33.0169C35.2069 33.2847 36.2109 33.7662 37.0686 34.336C37.3058 34.4933 37.5201 34.6766 37.7117 34.8858C38.0577 35.2635 38.0884 35.8466 37.9151 36.2821C37.8191 36.5248 37.335 36.521 37.1279 36.4936C36.7235 36.4394 36.2214 35.6151 35.964 35.3295C35.3807 34.6825 34.7134 34.1313 33.962 33.6757C33.7556 33.5503 33.9597 33.2521 34.034 33.0963C34.069 33.0216 34.1268 32.9951 34.2073 33.0169Z" fill="white"/>
<path d="M27.1316 12.1707C27.1317 12.1586 27.1342 12.1467 27.139 12.1355C27.1437 12.1244 27.1507 12.1143 27.1594 12.1059C27.1681 12.0974 27.1784 12.0907 27.1897 12.0862C27.2011 12.0816 27.2132 12.0793 27.2254 12.0794L30.4589 12.1017C30.4957 12.102 30.5308 12.1116 30.5567 12.1284C30.5826 12.1452 30.5971 12.1679 30.597 12.1915L30.5925 12.9141C30.5925 12.9258 30.5888 12.9374 30.5818 12.9482C30.5747 12.959 30.5644 12.9688 30.5515 12.977C30.5385 12.9852 30.5231 12.9916 30.5062 12.996C30.4893 13.0004 30.4712 13.0025 30.4529 13.0024L27.2194 12.9801C27.2072 12.9801 27.1951 12.9776 27.1839 12.9729C27.1726 12.9682 27.1624 12.9613 27.1538 12.9527C27.1453 12.9441 27.1385 12.9339 27.1339 12.9227C27.1293 12.9115 27.127 12.8995 27.1271 12.8874L27.1316 12.1707Z" fill="#FFFFF1"/>
<path d="M36.7467 12.105L33.5184 12.1162C33.4579 12.1164 33.409 12.165 33.4093 12.2249L33.4116 12.8896C33.4118 12.9495 33.461 12.9978 33.5215 12.9976L36.7498 12.9864C36.8103 12.9862 36.8592 12.9376 36.859 12.8777L36.8566 12.213C36.8564 12.1531 36.8072 12.1048 36.7467 12.105Z" fill="#FFFFF1"/>
<path d="M30.4206 13.7305L27.257 13.7139C27.1828 13.7135 27.1223 13.7727 27.122 13.846L27.119 14.4128C27.1186 14.4862 27.1784 14.546 27.2526 14.5463L30.4163 14.563C30.4905 14.5634 30.5509 14.5042 30.5513 14.4309L30.5543 13.8641C30.5547 13.7907 30.4948 13.7309 30.4206 13.7305Z" fill="#FFFFF1"/>
</g>
<defs>
<clipPath id="clip0_356_14017">
<rect width="46" height="46" fill="white"/>
</clipPath>
</defs>
</svg>
