<svg width="46" height="46" viewBox="0 0 46 46" fill="none" xmlns="http://www.w3.org/2000/svg">
<path fill-rule="evenodd" clip-rule="evenodd" d="M23.1537 20.734L23.0806 20.0032V19.4915L23.044 19.1264L23.2269 18.9073L23.52 18.8343V20.734C23.52 20.734 24.0685 20.588 24.5444 20.6245L25.0204 20.7706L25.13 20.9902L25.0569 21.2093L24.8375 21.3553L24.5078 21.5014C24.5078 21.5014 23.7394 21.7576 24.2147 22.5614L24.0685 22.744L23.8125 22.7805L23.4834 22.744C23.4834 22.744 23.2634 22.7074 23.2634 23.0367V25.8139L23.2269 26.1425V26.4717L23.0806 26.6542L22.9709 26.4717L22.8978 26.2155V23.5849C22.8978 23.5849 23.044 23.0001 22.6053 23.0732C22.6053 23.0732 22.4218 22.8535 22.6778 22.744C22.6778 22.744 23.0075 22.5614 23.1172 22.3058C23.1172 22.3058 23.1537 22.2322 23.1172 21.9036C23.1172 21.9036 23.1903 21.3553 22.5681 21.7576C22.5681 21.7576 21.8362 22.1957 21.6899 22.9636C21.6899 22.9636 21.3609 23.1462 21.3974 22.2693C21.3974 22.2693 21.5071 21.6845 21.7265 21.3188C21.7265 21.3188 22.1293 20.8807 22.0928 21.4284C22.0928 21.4284 22.1293 21.7576 22.4584 21.4649C22.4584 21.4649 22.8612 21.0633 23.0806 20.9537L23.1537 20.734ZM23.3 21.648C23.3 21.648 23.3 21.3553 23.7028 21.3553C23.7028 21.3553 23.9222 21.575 23.5931 21.7941L23.3737 21.8671L23.3 21.648ZM26.2648 20.6245C26.2648 20.6245 27.216 20.1493 27.6189 19.9667C27.6189 19.9667 28.0942 19.8572 28.5702 20.0032C28.5702 20.0032 29.0461 20.0397 29.1192 20.8071C29.1192 20.8071 29.2655 22.2693 29.302 22.744C29.302 22.744 29.3752 23.0367 29.2289 23.4018C29.2289 23.4018 29.1924 23.877 29.0461 24.1326L28.8261 24.6078C28.8261 24.6078 28.6798 25.0466 28.3508 24.8634C28.3508 24.8634 28.0576 24.6443 28.4239 24.2421C28.4239 24.2421 28.8261 23.9865 28.7895 23.5113C28.7895 23.5113 28.753 22.1227 28.6798 21.9766L28.497 20.9537C28.497 20.9537 28.5336 20.1858 27.692 20.3689L27.0332 20.6245L26.7035 20.7706L26.4841 20.8807L26.2648 20.8436V20.6245ZM25.5694 21.648L25.4232 22.0862V22.89C25.4232 22.89 25.5329 23.3652 25.1666 23.4748L25.13 23.7675V24.0596L25.2763 24.2792L25.4957 24.1326L25.6791 23.95L25.7157 23.6208V22.0496L25.7888 21.8306L25.7523 21.648H25.5694ZM26.4476 21.6115L26.996 21.575C26.996 21.575 27.0698 21.2093 26.9229 20.9902C26.9229 20.9902 27.3989 21.1363 27.5086 21.5379V22.0496C27.5086 22.0496 27.3623 22.4154 27.8383 22.2322C27.8383 22.2322 28.4239 21.6115 28.0942 22.2693C28.0942 22.2693 27.8383 22.4884 27.6554 22.7074C27.6554 22.7074 27.5451 23.0001 27.8383 23.2192L27.9114 23.6579L28.0576 23.8405L28.0211 24.023L27.8383 24.0961L27.8748 24.2792L28.1673 24.3888L27.8383 24.4618L27.7286 24.6078L27.216 24.6443L26.8504 24.5348L26.5207 24.4983L26.2282 24.4618L26.3013 24.3157C26.3013 24.3157 27.216 23.8405 27.3623 23.3652C27.3623 23.3652 27.5086 22.7074 27.1429 22.3789C27.1429 22.3789 26.8504 22.7805 26.5938 23.0732C26.5938 23.0732 26.9601 23.1462 27.1429 23.1097C27.1429 23.1097 26.8138 23.4383 26.3379 23.6945C26.3379 23.6945 25.8619 23.8405 26.0448 23.4383C26.0448 23.4383 26.4476 23.1462 26.4841 22.7805L26.3745 22.6344L26.3379 22.3058L26.5207 22.2322L26.4841 22.0496L26.1916 22.0862V21.9401L26.2648 21.7211L26.4476 21.6115ZM27.6189 21.0633L27.8017 21.2823L28.0576 21.2458L28.0211 21.0267L27.8748 20.8807L27.692 20.7706L27.5451 20.8071L27.6189 21.0633ZM31.2418 20.661C31.2418 20.661 31.864 20.3324 33.4009 20.1493L33.6569 20.1128L33.4009 20.4055L33.1815 20.661L32.925 20.8436L32.5228 20.9537L32.0834 21.0267L31.644 20.8807L31.388 20.6975L31.2418 20.661ZM31.8274 21.3188L31.5343 21.5014L31.3149 21.6845L31.2052 21.9036L31.1687 22.3789L31.0224 22.817L30.8762 23.2922L30.6927 23.731L30.5465 24.0596L30.3636 24.4618L30.2168 24.7174L30.0339 25.0466L29.778 25.4482L29.5586 25.7409L29.3752 26.0695L29.1924 26.3257L28.973 26.6177L28.753 26.8733L28.5336 27.166L28.3508 27.4216L28.2045 27.7143L28.6433 27.3851L28.9364 27.093L29.1558 26.8003L29.302 26.5812L29.4849 26.3257L29.6683 25.9964L29.8511 25.7774L29.9974 25.4847L30.1802 25.1561L30.3265 24.8634L30.4733 24.6443L30.583 24.4253L30.6927 24.2421L30.7658 24.0961L30.8762 23.95L31.059 24.1326L31.2418 24.2792C31.2418 24.2792 31.7909 24.3888 31.8274 23.95V23.731L31.6806 23.6208C31.6806 23.6208 31.7171 23.0732 32.1199 23.1462L32.5228 23.2192C32.5228 23.2192 33.145 23.0732 32.925 23.6208L32.669 23.9135C32.669 23.9135 32.4125 24.3888 33.145 24.0961L33.6203 23.95L33.9134 23.804L33.6203 23.731C33.6203 23.731 33.2181 23.6945 33.474 23.1462L33.6934 22.8535L33.9134 22.6344C33.9134 22.6344 34.1694 22.1227 33.5472 22.3789L33.2547 22.5249C33.2547 22.5249 32.8153 22.9636 32.3399 22.8535L31.9737 22.817L31.7171 22.8535C31.7171 22.8535 31.2784 22.7805 31.4977 22.2693L31.644 22.0496L31.7171 21.7941L31.7543 21.6115L31.9006 21.5014L31.8274 21.3188ZM36.4748 20.442L36.2919 20.588L36.1457 20.7706L35.9257 21.2093L35.7794 21.3918L35.5966 21.575L35.4504 21.7941L35.231 21.9766L35.0841 22.1592L34.9378 22.3058H34.7185L34.5722 22.4154L34.5356 22.5979L34.7916 22.6344L35.0475 22.5979C35.0475 22.5979 35.4504 22.5249 35.56 22.1957C35.56 22.1957 35.816 21.9401 35.8526 22.2693V22.9636C35.8526 22.9636 35.9629 23.2922 35.6332 23.5113L35.3772 23.7675L35.1944 23.95H35.6332C35.6332 23.95 36.1823 23.877 36.2919 23.1827V22.5979L36.2554 22.3423C36.2554 22.3423 36.2919 21.9766 36.036 21.8671C36.036 21.8671 35.7429 21.7576 36.036 21.4649L36.1457 21.2093L36.2919 20.9537L36.4748 20.7706L36.7313 20.6245L36.9142 20.515L36.841 20.3689L36.6582 20.4055L36.4748 20.442ZM37.7192 21.3188C37.7192 21.3188 37.902 21.8671 37.1701 22.0131L36.9873 22.0496V22.2322H37.2432L37.3901 22.2693L37.4267 22.744V23.2192C37.4267 23.2192 37.4267 24.0961 38.3414 24.0596L39.0733 24.023H39.4395C39.4395 24.023 40.0977 23.9865 40.7936 23.3652L41.2696 23.0001L41.5249 22.6709C41.5249 22.6709 42.0009 22.3423 41.7084 21.8671L41.5621 21.5379L41.5987 20.9172L41.5249 20.4785L41.4152 20.2959L41.3421 20.515L41.2696 20.8071V21.4649L41.2324 21.8671L41.2696 22.1592V22.4519L41.1958 22.6344L41.0496 22.8535L40.8302 23.0732L40.5371 23.2557L40.2446 23.4748L40.0252 23.5849L39.732 23.6945L39.403 23.731H39.0367L38.7442 23.6579C38.7442 23.6579 37.9386 23.4383 37.8661 22.7805V22.0862L38.0854 21.8671L38.4876 21.5379L38.927 21.2093L39.2195 20.9902L39.4761 20.8071L39.6589 20.6245L39.5127 20.442L39.2561 20.4785L39.0733 20.5515L38.927 20.734L38.6705 20.9537C38.6705 20.9537 38.2683 21.2458 38.122 20.9902L38.0854 20.734L37.902 20.8807L37.7557 21.0267L37.7192 21.3188Z" fill="black"/>
<path d="M23.8488 1.65875C12.6311 1.65875 3.53858 10.7394 3.53858 21.9405C3.53858 24.0612 3.86427 26.1045 4.46851 28.026L5.40577 27.0681C4.95151 25.4357 4.70906 23.7165 4.70906 21.9405C4.70906 11.3848 13.2781 2.8275 23.8488 2.8275C34.4201 2.8275 42.99 11.3848 42.99 21.9405C42.99 27.0649 40.9695 31.7178 37.6818 35.1498L38.5824 35.8997C42.0393 32.2635 44.1605 27.3496 44.1605 21.9405C44.1605 10.7394 35.0665 1.65875 23.8488 1.65875ZM6.9268 30.838L6.31956 32.1561C7.66685 34.4717 9.46335 36.4944 11.5896 38.1083V36.6129C9.68087 35.017 8.09065 33.0571 6.9268 30.838Z" fill="#ED1C24"/>
<path fill-rule="evenodd" clip-rule="evenodd" d="M33.3278 36.5943L35.4504 34.5478L37.4267 36.5943H34.7916V38.7137H37.5729V40.2484H34.7916V42.4408H37.4267L35.4504 44.3412L33.3278 42.1487V36.5943ZM27.6189 36.5943L29.8146 34.5478L31.864 36.5943V42.1487L30.4733 43.6834L28.9364 42.0757H30.5465V36.7403H28.8627V44.3412H27.6189V36.5943ZM21.7631 36.6673L23.8856 34.5478L26.0082 36.5943V42.2948L23.8125 44.3412L21.7631 42.2948V36.6673ZM8.28835 36.9754C9.10887 37.5206 13.1315 40.507 9.10081 44.2682H2.65999L5.29507 42.0027C5.29507 42.0027 6.57605 42.4408 7.74671 41.2354C7.74671 41.2354 8.5883 39.6271 7.49076 38.7867C7.49076 38.7867 6.61199 37.7632 4.92881 36.8863C4.92881 36.8863 2.51374 35.7904 3.53815 32.3548C3.53815 32.3548 4.27004 27.093 10.8577 24.2421L11.2444 24.1029C11.4428 24.0961 6.39261 27.4581 5.29507 32.1357C5.29507 32.1357 4.96538 33.1957 5.29507 34.6574C5.29507 34.6574 5.29507 35.6438 6.57605 36.3016C6.57605 36.3016 7.71015 36.7768 8.0764 36.8498L8.28835 36.9754ZM12.9797 44.3412H14.4441V4.58238L12.9797 5.89736V44.3412ZM15.5416 4.50503V44.3412H17.0786L17.0817 27.9698V27.312L18.8355 44.3412H20.2261V2.90106H18.8355C18.8355 2.90106 18.7989 21.4649 18.8355 21.4649L16.8592 3.7049L15.5416 4.50503ZM23.0075 36.8133H24.6907V42.1487H23.0075V36.8133ZM39.1098 36.5206L41.0862 34.5478L43.2818 36.8133V38.6407H42.0374V36.6673H40.2811V42.0757H41.9643V40.3944H43.2818V42.2218L41.1593 44.3412L39.1098 42.2948V36.5206Z" fill="black"/>
</svg>
