<svg width="361" height="46" viewBox="0 0 361 46" fill="none" xmlns="http://www.w3.org/2000/svg">
<g clip-path="url(#clip0_223_23566)">
<path d="M1.63162 0.0234878L0 6.38606H15.1184L9.57141 28.5742L5.49254 44.9433H15.3903L19.4689 28.5742L25.0158 6.38606H40.0798L41.657 0.0231323H1.63162V0.0234878ZM303.78 0.51308C302.975 3.81934 302.236 6.39957 301.496 8.61607H297.799L298.995 7.85448C301.057 6.51655 302.073 5.82927 302.095 5.73362C300.994 3.24726 300.063 1.53102 299.213 0.675922C299.189 0.521258 297.618 1.48089 294.59 3.44957L293.557 4.102C293.579 4.15 293.703 4.33453 293.937 4.64564C295.003 6.03122 295.904 7.33644 296.602 8.61571H293.557L292.578 13.1842H299.43L298.941 14.109L298.451 15.0334H291.055L290.13 19.6019H295.242C293.06 22.2642 290.465 24.4025 287.466 26.0192L292.251 3.17828H279.036L274.088 26.7804C273.955 27.398 273.805 27.9857 273.652 28.5749C272.502 33.1412 270.79 37.2372 268.486 40.8655C269.883 42.0989 271.02 43.4212 271.966 44.8353C274.735 40.8851 276.911 35.8274 278.547 29.6081H281.429L279.797 37.3307C279.669 38.3881 278.594 38.8641 276.643 38.6903C277.05 40.5804 277.224 42.4733 277.078 44.4548C281.788 44.4242 284.166 43.3629 284.257 41.1919L286.922 28.5749L287.084 27.7048C287.367 27.985 287.639 28.2752 287.9 28.5749C288.535 29.3233 289.029 30.0589 289.369 30.8045C290.091 30.4479 290.948 29.8997 291.924 29.0641L290.184 34.7199H306.01L305.737 36.1883C305.111 39.2425 304.23 40.7262 303.127 40.5388L303.997 36.1883H287.03L286.05 40.702H299.864C300.654 42.4051 300.991 44.1498 300.843 45.9769C305.25 45.8336 307.949 45.1549 309 43.9105C309.329 43.5475 309.674 42.9167 310.033 41.844C310.753 39.6883 311.597 36.536 312.644 32.3814L313.242 29.9889H307.369L307.695 28.5745L308.13 26.3996C309.174 27.313 310.101 28.0245 310.904 28.5745C311.498 28.9816 312.022 29.2927 312.481 29.4993C312.733 29.1839 312.992 28.8728 313.242 28.5745C314.757 26.7367 316.194 25.205 317.539 23.9524C313.993 22.943 311.396 21.4941 309.762 19.6019H317.539L318.463 15.0334H304.487C304.861 14.4851 305.209 13.896 305.466 13.1845H316.995L317.919 8.61643H313.787C315.592 6.85219 317.18 5.40118 318.626 4.26591L313.787 1.27467C312.236 3.25402 310.563 5.18145 308.729 7.0392L311.666 8.83367H307.478L308.077 6.93041L308.838 5.02679C309.473 3.42361 309.995 2.2055 310.361 1.43751C310.396 1.12214 310.189 0.963207 309.545 0.893519C308.325 0.702233 306.408 0.576013 303.78 0.51308V0.51308ZM333.038 0.893519C331.563 1.38311 329.27 2.27696 326.077 3.61241C327.082 6.47743 327.806 9.3357 328.307 12.205C329.436 11.7762 331.885 10.9346 335.594 9.59454C334.048 4.02592 333.162 1.11325 333.038 0.893519V0.893519ZM338.422 3.34077L337.28 8.61607H341.63L339.564 18.4591H334.125L332.983 23.7341H338.476L337.443 28.5738L334.125 44.2906H340.216L343.48 28.5738L344.513 23.7341H348.863L347.993 27.7038C347.93 27.9975 347.884 28.2851 347.83 28.5738C346.716 34.4059 347.289 38.9673 349.516 42.2241C350.873 44.1537 352.511 44.9697 354.465 44.6717C356.487 44.7759 358.513 41.5105 360.501 34.8827C358.86 34.1384 357.21 33.4133 355.552 32.7074C354.565 35.7442 353.951 36.7294 353.703 35.6443C353.314 34.0955 353.395 31.7396 353.921 28.5742C354.091 27.552 354.308 26.4533 354.574 25.2569L359.196 3.34077H338.422V3.34077ZM248.093 3.88476L246.027 12.2597H238.086L236.564 18.4595H265.604L248.093 3.88476V3.88476ZM283.115 7.85448H285.997L284.637 14.3259H281.81L283.115 7.85448V7.85448ZM347.667 8.61607H352.235L350.169 18.4591H345.601L347.667 8.61607ZM53.0228 10.4105C46.9884 10.4105 41.7551 11.9878 37.3065 15.1418C32.882 18.3418 30.0084 22.5337 28.7139 27.7041C28.6378 28.0071 28.5574 28.2784 28.4966 28.5742C27.5025 33.3755 28.3836 37.2908 31.1615 40.2668C34.1218 43.3992 38.6903 44.9433 44.8658 44.9433C55.3919 44.9433 63.4604 38.5218 64.2803 37.8195L59.7122 36.7863C58.6377 37.0341 52.7861 38.729 46.9323 38.2003C39.5471 37.5369 37.8725 32.1293 38.2856 29.4446H67.924L68.196 28.5745L68.4135 27.6501C69.7579 22.2596 69.0464 18.02 66.2927 14.979C63.5162 11.9117 59.118 10.4105 53.0228 10.4105V10.4105ZM140.851 10.4105C134.501 10.4105 128.758 12.0574 123.557 15.4138C118.347 18.7727 115.151 22.9337 113.931 27.8133C113.864 28.0807 113.766 28.3111 113.714 28.5745C112.803 33.1035 114.01 36.9346 117.303 40.0492C120.796 43.3163 125.741 44.9437 132.149 44.9437C136.032 44.9437 140.107 44.1387 144.385 42.5512L146.887 32.5994C144.042 34.7899 141.655 36.2452 139.763 37.0046C137.81 37.7875 135.697 38.2007 133.4 38.2007C129.8 38.2007 127.076 37.235 125.243 35.2642C123.62 33.4889 123.039 31.2355 123.503 28.5749C123.554 28.2816 123.644 28.0074 123.72 27.7048C124.47 24.7076 126.276 22.1885 129.158 20.2003C132.034 18.212 135.29 17.209 138.892 17.209C141.188 17.209 143.045 17.5987 144.548 18.4054C146.08 19.1862 147.685 20.6525 149.334 22.7559L151.836 12.6953C148.593 11.1522 144.934 10.4105 140.851 10.4105V10.4105ZM176.689 10.4105C170.652 10.4105 165.419 11.9878 160.972 15.1418C156.546 18.3418 153.672 22.5337 152.38 27.7041C152.303 28.0071 152.225 28.2784 152.162 28.5742C151.166 33.3755 152.045 37.2908 154.827 40.2668C157.783 43.3992 162.358 44.9433 168.532 44.9433C179.053 44.9433 187.128 38.5218 187.946 37.8195L183.378 36.7863C182.303 37.0341 176.452 38.729 170.598 38.2003C163.215 37.5369 161.534 32.1293 161.951 29.4446H191.59L191.862 28.5745L192.079 27.6501C193.428 22.2596 192.762 18.02 190.013 14.979C187.237 11.9117 182.786 10.4105 176.689 10.4105V10.4105ZM99.5743 11.335C95.3806 11.335 91.28 12.6313 87.284 15.2506L78.4194 12.2597L74.3406 28.5742L70.2617 44.9433H79.8875L83.8028 29.1729C83.8533 28.9706 83.9159 28.7573 83.966 28.5742C84.9665 24.8156 86.3087 22.1355 87.9361 20.5803C89.6804 18.927 92.1039 18.1331 95.2775 18.1331C98.1966 18.1331 100.087 18.7269 100.879 19.9819C101.703 21.2089 101.686 23.4493 100.879 26.6709L100.444 28.5742L96.3107 44.9433H105.936L110.015 28.5742L110.94 24.8764C112.095 20.2671 111.777 16.9672 109.961 14.9246C107.866 12.5314 104.395 11.335 99.5743 11.335V11.335ZM222.424 11.335C218.228 11.335 214.134 12.6313 210.134 15.2506L201.269 12.2597L197.191 28.5742L193.112 44.9433H202.738L206.653 29.1729C206.705 28.9706 206.764 28.7573 206.816 28.5742C207.821 24.8156 209.155 22.1355 210.786 20.5803C212.533 18.927 214.95 18.1331 218.128 18.1331C221.045 18.1331 222.935 18.7269 223.729 19.9819C224.551 21.2089 224.536 23.4493 223.729 26.6709L223.24 28.5742L219.161 44.9433H228.787L232.865 28.5742L233.79 24.8764C234.945 20.2671 234.625 16.9672 232.811 14.9246C230.719 12.5314 227.24 11.335 222.424 11.335V11.335ZM320.149 14.761L319.007 20.0907H324.392L322.597 28.5742L321.455 34.2303C321.207 35.4135 320.261 36.6469 318.627 37.9824C318.146 38.3785 317.85 38.633 317.811 38.7443C318.409 40.6174 319.475 42.4442 320.965 44.1281C321.081 44.1586 321.718 43.5972 322.814 42.4964C324.45 40.7628 328.6 36.941 335.322 31.0221C335.3 30.9457 334.93 30.1521 334.235 28.6837L334.18 28.5745L333.201 26.3996L332.114 27.3241C331.591 27.7831 331.087 28.2055 330.645 28.5749C329.471 29.5928 328.579 30.3395 327.98 30.8045L328.47 28.5749L331.352 14.7618H320.149V14.761V14.761ZM51.5004 17.2083C56.6036 17.2083 59.3314 19.214 59.6574 23.2448H40.4605C41.0042 22.3051 41.6353 21.4827 42.4186 20.7432C43.1951 20.0079 44.0715 19.353 45.029 18.8396C46.0121 18.2998 47.0411 17.913 48.1287 17.6431C49.2287 17.3511 50.3623 17.2049 51.5004 17.2083V17.2083ZM175.166 17.2083C180.269 17.2083 183.001 19.214 183.323 23.2448H164.126C164.674 22.3051 165.307 21.4827 166.084 20.7432C166.865 20.0079 167.748 19.353 168.694 18.8396C169.686 18.2998 170.707 17.913 171.794 17.6431C172.894 17.3513 174.028 17.2051 175.166 17.2083V17.2083ZM280.831 18.8399H283.659L282.408 24.8764H279.58L280.831 18.8399ZM301.66 19.6011H303.345C303.579 20.2691 303.89 20.9078 304.27 21.5044H300.137L300.899 20.5256L301.66 19.6011ZM244.123 19.8731L241.948 28.5742L237.815 44.9433H247.386L251.519 28.5742L253.694 19.8731H244.123V19.8731ZM295.786 25.8009H302.584L302.04 28.5742L301.66 30.1517H296.983C297.157 29.5686 297.314 29.0467 297.472 28.5742C297.653 28.0305 297.799 27.5672 297.962 27.1601C297.733 27.0297 297.594 26.9429 297.472 26.9429H294.644L295.786 25.8009V25.8009Z" fill="#006CB6"/>
</g>
<defs>
<clipPath id="clip0_223_23566">
<rect width="360.502" height="46" fill="white"/>
</clipPath>
</defs>
</svg>
