<svg width="46" height="46" viewBox="0 0 46 46" fill="none" xmlns="http://www.w3.org/2000/svg">
<path d="M18.695 4.49101C27.1033 2.44352 36.6081 6.97977 40.2312 14.7402C43.4551 21.2416 42.1858 29.6139 37.1265 34.8621C31.9779 40.4515 23.2657 42.6049 16.1326 39.7219C10.2331 37.6038 5.56712 32.3792 4.32763 26.2779C3.66021 22.3183 3.94029 18.0762 5.84124 14.4637C8.30831 9.41558 13.2544 5.86189 18.695 4.49101ZM9.29752 13.2987C6.15707 17.5467 5.38239 23.3008 7.31314 28.2078C13.9039 22.5301 19.1181 15.0285 20.8999 6.47378C16.3471 7.1857 11.9434 9.49206 9.29752 13.2987ZM25.1845 6.47967C27.2165 14.9638 31.9064 22.8125 38.5508 28.5608C39.9929 24.5482 40.1418 19.9649 38.2528 16.064C35.9466 10.9041 30.786 7.3269 25.1845 6.47967ZM19.7498 15.6581C20.5483 15.4168 21.3468 15.1697 22.1453 14.9285C22.1394 13.2164 22.1632 11.5042 22.1751 9.79213C21.4064 11.7631 20.6317 13.7341 19.7498 15.6581ZM24.0225 9.70387C23.945 11.4572 23.9748 13.2164 23.9748 14.9697C24.7673 15.1933 25.5599 15.4227 26.3525 15.6522C25.4705 13.7047 24.7852 11.6866 24.0225 9.70387ZM17.3244 22.2006C17.0324 25.5543 20.447 28.449 23.7603 27.89C27.5741 27.6253 29.8207 23.2773 28.468 19.8766C27.1093 21.6181 26.6802 23.8127 26.0605 25.8779C25.5242 25.8955 24.4456 25.9367 23.9092 25.9602C23.6053 24.8482 23.3372 23.7362 23.063 22.6183C22.7055 23.7127 22.3777 24.8188 22.0679 25.9308C21.5435 25.9249 20.4947 25.9132 19.9703 25.9073C19.2909 23.9598 18.6593 21.9947 17.9621 20.0531C18.5341 20.059 19.6723 20.0708 20.2384 20.0766C20.5483 21.2004 20.8701 22.3183 21.1978 23.4303C21.472 22.3183 21.7342 21.1945 22.0083 20.0766C22.634 20.059 23.2597 20.0413 23.8854 20.0237C24.1774 21.1886 24.4754 22.3536 24.7912 23.5127C25.113 22.383 25.399 21.2475 25.691 20.1119C26.5968 20.0413 27.5085 19.9707 28.4203 19.9119C27.3953 18.794 26.3525 17.5055 24.8091 17.0878C21.4898 15.7993 17.1993 18.641 17.3244 22.2006ZM8.0759 29.9552C9.2856 31.8791 10.7337 33.6501 12.426 35.1857C14.333 32.8676 16.2339 30.3906 17.0741 27.4782C16.4306 25.9073 15.6499 24.3775 15.2864 22.7066C13.0577 25.2895 10.7098 27.7724 8.0759 29.9552ZM30.7562 22.9302C30.3868 24.66 29.6717 26.2897 28.5633 27.69C29.922 30.3082 31.1972 33.0323 33.1637 35.2739C34.9932 33.9501 36.3816 32.1674 37.6926 30.367C35.16 28.1019 32.7943 25.6484 30.7562 22.9302ZM18.7725 28.6961C17.5926 31.4496 15.9121 33.9443 14.0469 36.2859C16.5557 37.6038 19.2909 38.4511 22.1275 38.6688C22.1453 35.7211 22.1334 32.7734 22.1692 29.8257C21.025 29.4727 19.8988 29.0903 18.7725 28.6961ZM24.0225 29.8022C23.9986 32.7558 23.9569 35.7152 23.9927 38.6747C26.6385 38.4393 29.1771 37.6333 31.5428 36.4683C29.8147 34.0443 28.313 31.479 27.0199 28.8079C26.0247 29.1491 25.0236 29.4845 24.0225 29.8022Z" fill="#DF0615"/>
</svg>
