<svg width="135" height="46" viewBox="0 0 135 46" fill="none" xmlns="http://www.w3.org/2000/svg">
<path d="M15.2805 6.44498C22.3264 4.70498 30.2913 8.55998 33.3274 15.155C36.0289 20.68 34.9653 27.795 30.7257 32.255C26.4112 37.005 19.1106 38.835 13.1332 36.385C8.18953 34.585 4.27953 30.145 3.24085 24.96C2.68157 21.595 2.91627 17.99 4.50923 14.92C6.57659 10.63 10.7213 7.60998 15.2805 6.44498ZM7.40553 13.93C4.77389 17.54 4.12472 22.43 5.74265 26.6C11.2656 21.775 15.635 15.4 17.1281 8.12998C13.313 8.73498 9.62269 10.695 7.40553 13.93ZM20.7185 8.13498C22.4213 15.345 26.3513 22.015 31.9192 26.9C33.1276 23.49 33.2525 19.595 31.6695 16.28C29.737 11.895 25.4125 8.85498 20.7185 8.13498ZM16.1643 15.935C16.8335 15.73 17.5026 15.52 18.1718 15.315C18.1668 13.86 18.1867 12.405 18.1967 10.95C17.5526 12.625 16.9034 14.3 16.1643 15.935ZM19.7447 10.875C19.6798 12.365 19.7048 13.86 19.7048 15.35C20.3689 15.54 21.0331 15.735 21.6973 15.93C20.9582 14.275 20.3839 12.56 19.7447 10.875ZM14.1319 21.495C13.8872 24.345 16.7486 26.805 19.525 26.33C22.7209 26.105 24.6035 22.41 23.47 19.52C22.3314 21 21.9719 22.865 21.4526 24.62C21.0031 24.635 20.0993 24.67 19.6499 24.69C19.3952 23.745 19.1705 22.8 18.9408 21.85C18.6412 22.78 18.3665 23.72 18.1068 24.665C17.6674 24.66 16.7885 24.65 16.3491 24.645C15.7798 22.99 15.2505 21.32 14.6662 19.67C15.1456 19.675 16.0994 19.685 16.5738 19.69C16.8335 20.645 17.1031 21.595 17.3778 22.54C17.6075 21.595 17.8272 20.64 18.0569 19.69C18.5812 19.675 19.1056 19.66 19.6299 19.645C19.8746 20.635 20.1243 21.625 20.3889 22.61C20.6586 21.65 20.8983 20.685 21.143 19.72C21.902 19.66 22.666 19.6 23.43 19.55C22.5711 18.6 21.6973 17.505 20.4039 17.15C17.6225 16.055 14.0271 18.47 14.1319 21.495ZM6.38184 28.085C7.39554 29.72 8.60899 31.225 10.0272 32.53C11.6251 30.56 13.2181 28.455 13.9222 25.98C13.3829 24.645 12.7287 23.345 12.4241 21.925C10.5565 24.12 8.58901 26.23 6.38184 28.085ZM25.3875 22.115C25.0779 23.585 24.4787 24.97 23.5499 26.16C24.6884 28.385 25.7571 30.7 27.405 32.605C28.938 31.48 30.1015 29.965 31.2001 28.435C29.0778 26.51 27.0953 24.425 25.3875 22.115ZM15.3454 27.015C14.3566 29.355 12.9484 31.475 11.3854 33.465C13.4878 34.585 15.7798 35.305 18.1568 35.49C18.1718 32.985 18.1618 30.48 18.1917 27.975C17.233 27.675 16.2892 27.35 15.3454 27.015ZM19.7447 27.955C19.7248 30.465 19.6898 32.98 19.7198 35.495C21.9369 35.295 24.0642 34.61 26.0467 33.62C24.5985 31.56 23.3402 29.38 22.2565 27.11C21.4226 27.4 20.5837 27.685 19.7447 27.955Z" fill="#DF0615"/>
<path d="M123.677 6.37495C126.069 5.09995 129.34 8.81495 127.447 11.03C126.244 13 123.073 12.85 121.959 10.86C120.751 9.20995 122.104 7.15995 123.677 6.37495ZM123.043 7.16995C123.757 7.26995 125.19 7.47495 125.904 7.57495C125.16 7.90495 124.336 7.99495 123.542 8.10495C123.912 8.71495 124.461 9.10495 125.15 9.28495C125.579 8.69995 126.004 8.10995 126.508 7.57995C126.328 8.40495 126.114 9.21495 125.869 10.02C126.199 10.4 126.528 10.785 126.858 11.165C127.033 10.21 127.837 9.11995 127.023 8.24995C126.348 6.69995 124.381 7.04995 123.043 7.16995ZM123.033 11.405C123.168 10.09 123.173 8.76495 123.078 7.44495C121.964 8.57495 122.169 10.2 123.033 11.405ZM123.872 9.44995C123.822 10.05 123.722 11.255 123.672 11.855C124.566 11.81 125.46 11.75 126.353 11.665C125.659 10.785 124.93 9.89495 123.872 9.44995Z" fill="#DF0615"/>
<path d="M112.716 10.37C113.36 9.50501 114.444 9.21501 115.392 8.82001C114.563 10.92 113.839 13.08 113.874 15.365C115.962 14.52 117.34 12.665 117.744 10.465C118.603 11.93 120.266 12.62 121.215 13.975C120.181 16.54 116.915 16.71 114.793 17.995C113.834 18.275 114.099 19.465 113.814 20.2C115.392 18.985 116.995 17.805 118.618 16.655C119.387 17.435 119.173 18.46 118.958 19.42C119.782 19.085 120.601 18.73 121.435 18.415C121.485 19.34 121.614 20.265 121.55 21.195C119.717 22.545 117.864 23.985 116.801 26.06C117.894 27.21 119.502 27.66 120.835 28.475C124.166 30.43 127.971 31.265 131.582 32.535C129.689 32.925 127.787 33.355 126.059 34.265C125.809 34.275 125.305 34.295 125.05 34.305C121.44 31.74 117.939 28.94 114.044 26.825C113.874 28.735 114.014 30.65 113.989 32.56C113.65 33.475 112.726 34.215 111.737 33.745C111.238 31.845 110.394 30.085 109.245 28.49C109.869 28.8 110.484 29.125 111.103 29.44C111.153 28.285 111.198 27.125 111.263 25.965C110.359 27.04 109.49 28.175 108.336 28.995C107.273 28.825 106.704 27.825 106.039 27.095C107.687 25.625 109.67 24.49 111.028 22.72C111.288 21.505 111.118 20.24 111.173 19.005C109.565 18.715 108.451 17.585 108.436 15.905C109.35 15.845 110.269 15.805 111.183 15.775C111.552 13.95 111.482 11.885 112.716 10.37ZM116.166 23.215C117.44 22.675 118.454 21.515 118.399 20.055C117.385 20.89 116.621 21.985 116.166 23.215ZM114.349 25.565C114.818 25.38 115.263 25.13 115.702 24.875C115.238 24.13 114.918 23.315 114.763 22.455C113.984 23.32 113.55 24.545 114.349 25.565Z" fill="#DF0615"/>
<path d="M78.3498 14.72C78.9091 12.51 80.2873 10.585 82.2648 9.42999C82.135 11.06 81.4209 12.56 81.0064 14.125C82.155 13.635 83.1187 12.84 83.9926 11.96C84.5119 12.185 85.0313 12.41 85.5556 12.635C84.6518 14.325 83.2685 15.665 82.145 17.195C83.0638 16.665 83.8827 15.99 84.7267 15.35C86.4794 16.24 88.5018 15.835 90.0948 14.805C90.7989 15.175 91.493 15.55 92.1921 15.93C91.508 17.86 90.8738 19.84 90.9837 21.92C89.5904 23.23 87.5481 22.735 85.8153 22.955C86.5044 23.465 87.1586 24.065 87.9825 24.355C89.7053 24.175 90.8488 22.71 91.8825 21.48C92.4668 22.5 93.056 23.525 93.6153 24.565C92.267 25.155 90.8039 25.4 89.3408 25.495C92.7065 28.4 96.4766 30.815 100.646 32.38C99.0633 32.87 97.5303 33.89 95.8125 33.685C93.1409 32.115 90.8988 29.915 88.4869 27.99C87.4881 29.52 86.804 31.215 86.4445 33.005C86.1449 33.22 85.5456 33.65 85.246 33.865C84.497 33.185 83.8028 32.45 83.1387 31.685C83.668 27.665 83.3934 23.625 83.5032 19.59C83.3584 19.67 83.0738 19.82 82.934 19.895C82.155 21.705 80.7418 23.38 80.9864 25.475C80.9065 28.12 82.1899 31.255 80.0277 33.39C79.2786 32.81 78.4647 32.295 77.8405 31.565C77.9503 30.11 78.1251 28.66 78.1401 27.2C77.3411 28.085 76.647 29.07 75.7531 29.86C74.8693 29.92 73.9954 29.75 73.1265 29.645C73.0566 25.695 78.6994 24.675 78.3049 20.61C77.1563 21.17 76.0727 21.85 74.9042 22.355C73.7357 22.145 72.7919 21.375 71.923 20.62C73.7807 18.725 77.2163 19.86 78.6195 17.355C77.2562 17.055 75.9579 16.51 75.6383 15.01C76.5371 14.905 77.446 14.815 78.3498 14.72ZM81.0114 15.77C80.9315 15.955 80.7667 16.32 80.6818 16.5C81.5607 18.01 82.7742 14.92 81.0114 15.77ZM86.1898 17.805C86.1748 18.255 86.1598 18.7 86.1448 19.15C86.9189 18.91 87.7029 18.675 88.4869 18.45C88.5668 18.22 88.7216 17.755 88.8015 17.52C87.9326 17.61 87.0587 17.71 86.1898 17.805ZM82.0251 18.725C81.4159 18.88 80.5969 19.605 80.8816 20.285C81.6007 20.675 82.8341 19.13 82.0251 18.725ZM85.7753 20.535C86.3096 21.88 87.623 20.985 88.6267 20.795C88.5817 20.555 88.4918 20.085 88.4469 19.845C87.558 20.085 86.6692 20.315 85.7753 20.535ZM85.7903 29.685C86.4994 28.75 87.1685 27.79 87.8527 26.84C87.2185 26.29 86.5843 25.74 85.9451 25.195C85.8303 26.69 85.8003 28.185 85.7903 29.685Z" fill="#DF0615"/>
<path d="M85.5256 14.385C86.5793 12.91 87.618 11.4 88.8464 10.06C90.0848 10.19 90.4793 11.935 91.2184 12.79C89.4456 13.68 87.558 14.505 85.5256 14.385Z" fill="#DF0615"/>
<path d="M102.604 16.72C103.043 14.48 103.408 12.22 104.152 10.055C105.25 10.57 106.324 11.13 107.348 11.78C107.003 12.505 106.664 13.225 106.329 13.955C104.966 14.7 103.732 15.65 102.604 16.72Z" fill="#DF0615"/>
<path d="M55.9934 14.045C58.0008 13.58 59.9533 12.905 61.9508 12.41C63.1492 12.02 63.9382 13.22 64.7722 13.84C63.7834 15.51 62.7797 17.175 61.8409 18.88C62.9195 18.755 63.9882 18.435 65.0818 18.435C66.2053 18.74 66.6148 19.96 67.2041 20.835C65.0968 22.88 63.4589 25.335 62.1256 27.94C64.113 27.835 66.0805 27.515 67.9931 26.96C68.6322 27.505 69.3014 28.02 69.8657 28.64C69.9655 29.615 69.0867 30.225 68.5873 30.935C67.0593 30.665 65.4213 30.415 64.0231 31.28C63.8733 31.245 63.5737 31.18 63.4289 31.145C64.0481 30.63 64.6623 30.115 65.2765 29.595C61.1668 29.875 57.087 30.735 53.3018 32.385C51.2744 33.315 49.0123 33.355 46.8551 33.745C45.5967 32.38 44.2334 31.125 42.8702 29.865C44.553 29.21 46.1859 30.15 47.8588 30.315C51.0747 30.71 54.2706 29.855 57.3317 28.94C57.9958 28.675 58.8997 28.585 59.1843 27.81C60.193 25.695 61.2367 23.605 62.2554 21.495C59.1643 22.27 58.9746 25.98 56.7474 27.745C55.9285 28.49 54.8349 27.99 53.8961 27.865C54.5802 26.335 55.3792 24.855 56.293 23.45C55.6039 23.39 54.9148 23.325 54.2307 23.26C53.9061 22.695 53.5865 22.13 53.2719 21.56C54.705 21.15 56.1832 20.81 57.5115 20.11C58.9646 19.375 59.1594 17.615 59.6987 16.255C58.0408 16.385 56.5027 15.735 55.9934 14.045Z" fill="#DF0615"/>
<path d="M101.63 20.95C101.82 19.77 102.209 18.635 102.589 17.5C103.453 18.315 105.146 18.69 105.215 20.075C104.981 21.565 104.147 22.9 104.027 24.415C103.957 25.8 104.107 27.185 104.292 28.55C105.275 26.74 105.24 24.575 106.179 22.745C106.159 25.67 105.645 28.69 106.629 31.525C106.988 32.73 105.67 33.31 104.981 34C104.357 33.415 103.742 32.825 103.133 32.235C103.403 28.35 100.841 24.84 101.63 20.95Z" fill="#DF0615"/>
</svg>
