<svg width="46" height="46" viewBox="0 0 46 46" fill="none" xmlns="http://www.w3.org/2000/svg">
<g clip-path="url(#clip0_287_9)">
<path d="M41.2059 4.80609C36.8655 0.482772 30.6253 0 23 0C15.365 0 9.11574 0.488465 4.77762 4.82317C0.439505 9.15787 0 15.3958 0 23.0222C0 30.6486 0.440643 36.8911 4.78218 41.2258C9.12371 45.5605 15.3656 46 23 46C30.6344 46 36.8826 45.5611 41.2178 41.2258C45.5531 36.8905 46 30.6492 46 23.0222C46 15.3855 45.5537 9.13965 41.2059 4.80609Z" fill="#FF6900"/>
<path d="M21.3069 31.5236C21.3069 31.5613 21.2994 31.5986 21.2849 31.6333C21.2704 31.6681 21.2491 31.6996 21.2223 31.7261C21.1955 31.7526 21.1637 31.7735 21.1288 31.7876C21.0939 31.8017 21.0565 31.8087 21.0188 31.8083H17.0963C17.0584 31.8088 17.0209 31.8018 16.9857 31.7878C16.9505 31.7738 16.9185 31.7529 16.8914 31.7265C16.8643 31.7 16.8427 31.6685 16.8279 31.6337C16.813 31.5989 16.8052 31.5615 16.8048 31.5236V21.2653C16.8052 21.2274 16.813 21.19 16.8279 21.1552C16.8427 21.1204 16.8643 21.0888 16.8914 21.0624C16.9185 21.036 16.9505 21.0151 16.9857 21.0011C17.0209 20.987 17.0584 20.9801 17.0963 20.9806H21.0188C21.0565 20.9802 21.0939 20.9872 21.1288 21.0013C21.1637 21.0154 21.1955 21.0363 21.2223 21.0628C21.2491 21.0893 21.2704 21.1208 21.2849 21.1555C21.2994 21.1903 21.3069 21.2276 21.3069 21.2653V31.5236Z" fill="white"/>
<path d="M28.988 31.5237C28.9872 31.5998 28.9563 31.6725 28.902 31.7259C28.8476 31.7793 28.7743 31.8089 28.6982 31.8083H24.9641C24.9262 31.8091 24.8886 31.8023 24.8534 31.7883C24.8182 31.7743 24.7862 31.7535 24.7591 31.727C24.7321 31.7005 24.7106 31.6688 24.696 31.6339C24.6813 31.599 24.6738 31.5615 24.6738 31.5237V22.6732C24.6698 21.1275 24.5815 19.542 23.7834 18.7416C23.1002 18.0533 21.8187 17.8956 20.4882 17.8626H13.7203C13.6826 17.862 13.6451 17.869 13.6101 17.8831C13.5751 17.8971 13.5433 17.918 13.5164 17.9445C13.4896 17.971 13.4683 18.0026 13.4537 18.0374C13.4391 18.0722 13.4317 18.1095 13.4317 18.1472V31.5259C13.4306 31.6023 13.3993 31.6751 13.3447 31.7285C13.2901 31.7818 13.2165 31.8113 13.1402 31.8106H9.40267C9.365 31.811 9.32762 31.804 9.29269 31.7899C9.25776 31.7758 9.22597 31.7549 9.19918 31.7284C9.17238 31.7019 9.15111 31.6704 9.13659 31.6357C9.12207 31.6009 9.1146 31.5636 9.1146 31.5259V14.478C9.1146 14.4404 9.12207 14.4031 9.13659 14.3683C9.15111 14.3335 9.17238 14.302 9.19918 14.2755C9.22597 14.2491 9.25776 14.2282 9.29269 14.2141C9.32762 14.2 9.365 14.1929 9.40267 14.1934H20.1831C23.0006 14.1934 25.9456 14.322 27.3985 15.7766C28.8513 17.2312 28.988 20.1774 28.988 22.9983V31.5237Z" fill="white"/>
<path d="M36.6799 31.5237C36.679 31.5998 36.648 31.6724 36.5937 31.7258C36.5394 31.7791 36.4662 31.8088 36.3901 31.8083H32.6537C32.616 31.8089 32.5785 31.802 32.5434 31.788C32.5083 31.7739 32.4764 31.7531 32.4495 31.7266C32.4226 31.7001 32.4012 31.6685 32.3866 31.6337C32.372 31.5988 32.3645 31.5614 32.3645 31.5237V14.478C32.3645 14.4403 32.372 14.4029 32.3866 14.3681C32.4012 14.3332 32.4226 14.3016 32.4495 14.2751C32.4764 14.2486 32.5083 14.2278 32.5434 14.2137C32.5785 14.1997 32.616 14.1928 32.6537 14.1934H36.3901C36.4662 14.1929 36.5394 14.2226 36.5937 14.276C36.648 14.3293 36.679 14.4019 36.6799 14.478V31.5237Z" fill="white"/>
</g>
<defs>
<clipPath id="clip0_287_9">
<rect width="46" height="46" fill="white"/>
</clipPath>
</defs>
</svg>
