<svg width="138" height="46" viewBox="0 0 138 46" fill="none" xmlns="http://www.w3.org/2000/svg">
<path d="M41.6888 1.1748H39.3521V18.944H41.6888V1.1748Z" fill="#0000E3"/>
<path d="M34.9836 19.0515C31.4972 19.0515 28.6606 16.2149 28.6606 12.7286C28.6606 9.24221 31.4972 6.40564 34.9836 6.40564C38.4699 6.40564 41.3065 9.24221 41.3065 12.7286C41.3065 16.2149 38.4699 19.0515 34.9836 19.0515ZM34.9836 8.79986C32.8168 8.79986 31.0524 10.5618 31.0524 12.7311C31.0524 14.9004 32.8143 16.6623 34.9836 16.6623C37.1529 16.6623 39.1297 14.9004 39.1297 12.7311C39.1297 10.5618 37.1529 8.79986 34.9836 8.79986Z" fill="#0000E3"/>
<path d="M17.7017 5.93323H15.365V18.9415H17.7017V5.93323Z" fill="#0000E3"/>
<path d="M26.7563 18.9414H24.3646V11.7113C24.3646 9.87439 22.8701 8.37988 21.0332 8.37988C19.1963 8.37988 17.7018 9.87439 17.7018 11.7113H16.2073C16.2073 8.55482 17.8767 5.98816 21.0332 5.98816C24.1897 5.98816 26.7563 8.55732 26.7563 11.7113V18.9414Z" fill="#0000E3"/>
<path d="M46.6898 5.93323H44.353V18.9415H46.6898V5.93323Z" fill="#0000E3"/>
<path d="M53.9998 18.9414H51.6081V10.8365C51.6081 9.48196 50.5059 8.37732 49.1489 8.37732C47.7918 8.37732 46.6897 9.47946 46.6897 10.8365H45.1377C45.1377 8.16239 46.4748 5.9856 49.1489 5.9856C51.823 5.9856 53.9998 8.16239 53.9998 10.8365V18.9414Z" fill="#0000E3"/>
<path d="M61.3076 18.9414H58.9159V10.8365C58.9159 9.48196 57.8138 8.37732 56.4567 8.37732C55.0996 8.37732 53.9975 9.47946 53.9975 10.8365H52.448C52.448 8.16239 53.7801 5.9856 56.4542 5.9856C59.1283 5.9856 61.3051 8.16239 61.3051 10.8365V18.9414H61.3076Z" fill="#0000E3"/>
<path d="M10.2092 5.93323L6.41791 15.825L2.56666 5.93323H0L5.14332 19.1464L3.69879 22.9177H6.26046L12.7708 5.93323H10.2092Z" fill="#0000E3"/>
<path d="M38.4873 43.5685L38.9122 39.8648C38.9172 39.8223 38.9522 39.7923 38.9947 39.7923H41.2964V37.4555H35.3234C35.2784 37.4555 35.2409 37.4181 35.2409 37.3731V34.1516H32.9042V37.3731C32.9042 37.4181 32.8667 37.4555 32.8217 37.4555H26.8486V39.7923H29.1404C29.1829 39.7923 29.2179 39.8248 29.2229 39.8648L29.6477 43.5685C29.6527 43.6185 29.6152 43.661 29.5652 43.661H26.3313V45.9978H41.8113V43.661H38.5773C38.5273 43.661 38.4898 43.6185 38.4948 43.5685H38.4873ZM31.6521 39.7923H36.473C36.523 39.7923 36.5605 39.8348 36.5555 39.8847L36.1306 43.5885C36.1256 43.631 36.0906 43.661 36.0481 43.661H32.0744C32.0319 43.661 31.997 43.6285 31.992 43.5885L31.5671 39.8847C31.5621 39.8348 31.5996 39.7923 31.6496 39.7923H31.6521Z" fill="#0000E3"/>
<path d="M27.3136 32.9944H40.8242C41.0891 32.9944 41.3066 32.7895 41.3265 32.527L41.8439 24.9845H26.2939L26.8113 32.527C26.8288 32.7895 27.0487 32.9944 27.3136 32.9944ZM32.8943 27.4012V29.4805H35.251V27.4012C35.251 27.3562 35.2885 27.3212 35.331 27.3212H39.2522C39.2997 27.3212 39.3372 27.3612 39.3322 27.4087L39.1248 30.4127C39.1148 30.5502 38.9998 30.6576 38.8624 30.6576H29.268C29.1305 30.6576 29.0156 30.5502 29.0056 30.4127L28.7981 27.4087C28.7956 27.3612 28.8331 27.3212 28.8781 27.3212H32.8068C32.8518 27.3212 32.8868 27.3587 32.8868 27.4012H32.8943Z" fill="#0000E3"/>
<path d="M46.4949 38.1377H52.9228C53.0278 38.1377 53.1152 38.2227 53.1152 38.3301V42.1839C53.1152 42.6637 53.1152 43.6634 50.9134 43.6634H48.1468V46.0001H50.9134C53.755 46.0001 55.452 44.5731 55.452 42.1814V38.3276C55.452 38.2227 55.5369 38.1352 55.6444 38.1352H60.7152V35.7985H46.4974V38.1352L46.4949 38.1377Z" fill="#0000E3"/>
<path d="M58.9684 26.6315V27.3813C58.9684 27.4463 58.9159 27.4963 58.8535 27.4963H54.8697C54.8048 27.4963 54.7548 27.4438 54.7548 27.3813V24.8596H52.418V27.3813C52.418 27.4463 52.3656 27.4963 52.3031 27.4963H48.3194C48.2544 27.4963 48.2044 27.4438 48.2044 27.3813V26.6315H45.8677V32.9745H48.2044V29.9505C48.2044 29.8855 48.2569 29.8355 48.3194 29.8355H58.856C58.9209 29.8355 58.9709 29.888 58.9709 29.9505V32.9745H61.3077V26.6315H58.9709H58.9684Z" fill="#0000E3"/>
<path d="M66.1234 16.5498H63.7317V18.9415H66.1234V16.5498Z" fill="#0000E3"/>
<path d="M109.372 27.6815H84.7897C84.04 27.6815 83.3477 27.2742 82.9853 26.6169L82.6279 25.9696H73.7708C72.9836 25.9696 72.4962 26.8268 72.8986 27.5041L77.6071 35.4015C77.7895 35.7089 78.1219 35.8964 78.4793 35.8964H88.1086L88.0936 35.8714H88.3936L93.9867 46.0006H99.5699C99.9398 46.0006 100.28 45.8006 100.457 45.4757L105.76 35.8714H106.06L106.045 35.8964H115.675C116.032 35.8964 116.362 35.7089 116.547 35.4015L121.255 27.5041C121.658 26.8268 121.17 25.9696 120.383 25.9696H111.526L111.169 26.6169C110.806 27.2742 110.114 27.6815 109.364 27.6815H109.372Z" fill="#0000E3"/>
<path d="M116.575 6.11328L114.463 9.93953C114 10.7768 113.121 11.2966 112.163 11.2966H81.9958C81.0386 11.2966 80.1589 10.7768 79.6965 9.93953L77.5847 6.11328H68.3177C67.323 6.11328 66.7083 7.19543 67.2181 8.05015L71.6116 15.4153C71.8416 15.8026 72.2614 16.04 72.7113 16.04H80.9011C81.8333 16.04 82.698 16.5349 83.1679 17.3396L84.0551 18.8541C84.285 19.2465 84.7049 19.4889 85.1597 19.4889H109.004C109.459 19.4889 109.879 19.2465 110.109 18.8541L110.996 17.3396C111.469 16.5349 112.331 16.04 113.263 16.04H121.453C121.903 16.04 122.323 15.8026 122.553 15.4153L126.946 8.05015C127.456 7.19543 126.841 6.11328 125.846 6.11328H116.579H116.575Z" fill="#0000E3"/>
<path d="M135.441 6.41546C135.386 6.33298 135.344 6.268 135.314 6.22052C135.281 6.17054 135.249 6.12056 135.216 6.07057C135.184 6.02559 135.141 5.95811 135.086 5.86564L134.439 4.86597C134.386 4.77599 134.329 4.68352 134.269 4.59605L134.151 4.41361C134.351 4.37113 134.531 4.29615 134.691 4.19118C134.896 4.05873 135.059 3.87628 135.174 3.65136C135.289 3.42643 135.349 3.15652 135.349 2.84912C135.349 2.51173 135.279 2.21683 135.141 1.96941C135.001 1.71949 134.801 1.52955 134.544 1.3996C134.291 1.27214 134.006 1.20715 133.694 1.20715H131.445V6.62789H132.297V4.48359H133.199C133.287 4.61605 133.374 4.751 133.457 4.88096C133.552 5.03341 133.674 5.22335 133.824 5.45077C133.959 5.66071 134.074 5.84314 134.171 6.00309C134.269 6.16304 134.386 6.35298 134.521 6.56791L134.559 6.62789H135.326L135.411 6.61289L135.478 6.47794L135.439 6.41796L135.441 6.41546ZM132.3 2.01689H133.629C133.809 2.02189 133.966 2.05188 134.096 2.10436C134.219 2.15434 134.314 2.23682 134.386 2.35428C134.459 2.47424 134.496 2.63919 134.496 2.84662C134.496 3.05405 134.456 3.2165 134.379 3.33396C134.299 3.45392 134.196 3.5364 134.066 3.58638C133.929 3.64137 133.767 3.66885 133.589 3.66885H132.297V2.01439L132.3 2.01689Z" fill="#0000E3"/>
<path d="M133.334 7.83245C131.175 7.83245 129.418 6.07552 129.418 3.91622C129.418 1.75692 131.175 0 133.334 0C135.494 0 137.25 1.75692 137.25 3.91622C137.25 6.07552 135.494 7.83245 133.334 7.83245ZM133.334 0.754751C131.592 0.754751 130.175 2.17179 130.175 3.91373C130.175 5.65566 131.592 7.07269 133.334 7.07269C135.076 7.07269 136.493 5.65566 136.493 3.91373C136.493 2.17179 135.076 0.754751 133.334 0.754751Z" fill="#0000E3"/>
</svg>
