<svg width="169" height="46" viewBox="0 0 169 46" fill="none" xmlns="http://www.w3.org/2000/svg">
<g clip-path="url(#clip0_340_13322)">
<path fill-rule="evenodd" clip-rule="evenodd" d="M155.516 25.5279C154.945 23.548 154.689 21.4907 154.689 19.4317V13.2985L151.389 13.0678L151.369 19.1337C151.364 20.6489 151.236 22.1624 150.96 23.6524C149.664 30.6829 146.483 37.1445 138.783 39.7254C138.418 39.8483 137.483 40.0991 136.03 40.0991H135.667H116.695V33.5366H121.021V30.3934H116.695V26.3983H121.954V23.2567H116.695V19.4822H121.316V16.339H116.695V13.1722L113.551 12.9533V16.339H108.873V19.4822H113.551V23.2567H108.396V26.3983H113.551V39.4206C112.928 39.1395 112.341 38.7775 111.81 38.3347L110.89 37.5653C111.57 34.9036 111.917 32.0752 111.853 29.4102V28.9758L108.694 28.959V29.4842C108.79 33.5383 107.915 37.6074 106.184 41.2894L108.566 43.5487C109.049 42.6985 109.474 41.7642 109.858 40.7911C111.775 42.3702 114.193 43.2406 116.678 43.2406H134.236H134.911H136.188C138.34 43.2406 139.791 42.845 141.712 42.0335C147.945 39.3987 151.298 34.0871 152.972 28.826H153.113C155.979 36.3751 162.132 41.4678 168.356 42.9039V39.5755C162.95 37.9559 157.597 32.7369 155.516 25.5262V25.5279ZM83.9576 38.9105V28.1913H103.058V25.0481H83.9576V21.8897C93.5724 20.9873 101.573 16.8036 101.898 16.6168L100.34 13.8894C100.268 13.9315 92.7475 17.8306 83.9576 18.7347V13.1739L80.8161 12.955V25.0464H75.9203V28.1896H80.8161V43.239H84.0839L93.1027 34.6763L101.768 42.8938L104.113 40.6682L93.1044 30.2267L83.9593 38.9088L83.9576 38.9105ZM48.256 38.9273C49.6062 36.4778 49.8284 33.2941 49.8284 30.4691V24.2096H52.8134V21.0664H49.8284V13.9247L46.6869 13.7059V21.0664H43.5184V24.2096H46.6869V30.4691C46.6869 33.9305 45.8737 38.2724 43.6161 39.4998L44.5151 42.4426L53.3723 41.5722L53.2124 38.4038L48.256 38.9273ZM123.638 38.7337H136.66V27.3562H123.638V38.7337ZM126.888 30.4977H133.626V35.5905H126.888V30.4977ZM71.708 43.2406H54.7225V29.5499H71.708V43.2406ZM68.5648 32.6931H57.8641V34.8245H68.5648V32.6931ZM68.5648 37.9677H57.8641V40.0991H68.5648V37.9677ZM127.052 25.9908H123.085L123.084 25.9892C124.752 23.4857 125.853 20.4654 126.277 18.1337L126.345 17.7616H123.52L123.683 14.6032H136.66V26.075H130.929L131.158 22.755H133.177V17.7633H129.811L129.767 18.068C129.348 21.0698 128.146 24.1558 127.052 25.9908ZM66.558 12.955H69.7012L68.9941 14.8137H72.0279V28.1929H54.4027V14.8137H57.46L56.7293 12.955H59.8709L60.6015 14.8137H65.8273L66.558 12.955ZM63.2144 21.6203L57.8237 25.0497H68.6035L63.2144 21.6203ZM63.2161 17.9552L68.8864 21.7651V17.9552H63.2161ZM57.5459 21.7634L63.2161 17.9552H57.5459V21.7634Z" fill="#21232D"/>
<path d="M17.9417 11.96C21.2444 11.96 23.9218 9.28269 23.9218 5.98002C23.9218 2.67734 21.2444 0 17.9417 0C14.6391 0 11.9617 2.67734 11.9617 5.98002C11.9617 9.28269 14.6391 11.96 17.9417 11.96Z" fill="#00DE5A"/>
<path d="M30.8109 22.4941L17.935 40.8735C18.9334 39.2674 19.5108 37.3701 19.5108 35.3397C19.5108 31.1712 17.0814 27.57 13.5628 25.8713H13.5611L12.9786 25.612L12.3506 25.3359L1.50342 20.5226C0.569044 19.9839 -0.0538749 18.9637 0.00336629 17.7919C0.0824938 16.1858 1.46807 14.9517 3.07419 14.9517H26.8074C29.2772 14.9517 31.4153 16.7834 31.6695 19.2381C31.7958 20.4587 31.4506 21.5883 30.8109 22.4924V22.4941Z" fill="#00DE5A"/>
<path d="M13.5628 25.8713H13.5611L12.9786 25.612L12.3506 25.3359C12.423 25.3713 12.4954 25.41 12.5627 25.4521C13.4348 25.974 14.019 26.9286 14.019 28.0195C14.019 28.3579 13.9618 28.6862 13.8574 28.9893L13.8221 29.0869L9.34378 41.4493H9.34546C9.22088 41.8046 9.14848 42.185 9.14848 42.5824C9.14848 43.9242 9.92124 45.0858 11.0475 45.6431C11.5055 45.8704 12.0206 46 12.5661 46C13.6992 46 14.7026 45.4444 15.3238 44.5942C15.3238 44.5942 17.7279 41.2052 17.9316 40.8735C18.93 39.2674 19.5074 37.37 19.5074 35.3397C19.5074 31.1712 17.0781 27.57 13.5594 25.8713H13.5628Z" fill="#005DD9"/>
</g>
<defs>
<clipPath id="clip0_340_13322">
<rect width="168.356" height="46" fill="white"/>
</clipPath>
</defs>
</svg>
