<svg width="120" height="46" viewBox="0 0 120 46" fill="none" xmlns="http://www.w3.org/2000/svg">
<path d="M69.44 9.05902H69.3926L66.3896 9.06347L66.3926 11.8621H60.6133C60.3701 11.8601 60.1354 11.9519 59.9578 12.1185C59.7802 12.285 59.6733 12.5136 59.6593 12.7568L59.6578 12.8043V15.7839H66.3956V21.1303L66.3852 23.3012L66.3807 23.5431L66.3748 23.779C66.363 24.1752 66.3452 24.6738 66.317 25.0448L66.3007 25.2659L66.2563 25.7793H59.2489C59.0051 25.777 58.7698 25.8688 58.5919 26.0357C58.414 26.2026 58.307 26.4318 58.2933 26.6755V29.7012H66.0148C64.5956 33.6705 61.9422 36.2673 58.2918 37.6992L59.2474 40.9237C59.3407 41.2353 59.7985 41.3243 60.0178 41.2353C62.6385 40.1995 67.2622 37.5864 69.6089 31.3601C71.6859 37.2808 76.4978 40.0408 78.683 41.0216L78.8667 41.1032C79.5941 41.4193 79.9037 41.1032 80.0207 40.7115L80.92 37.6992C79.443 37.1131 75.0681 35.2182 73.2118 29.7012H80.0074C80.2445 29.6941 80.4704 29.5983 80.6404 29.4327C80.8104 29.267 80.9123 29.0436 80.9259 28.8064V25.7793H79.0296V12.8058C79.0275 12.562 78.9319 12.3284 78.7626 12.1532C78.5933 11.9781 78.3632 11.8749 78.12 11.865L78.0726 11.8635H70.3511L70.3481 9.98199V9.94934C70.3348 9.72285 70.2408 9.50867 70.0831 9.34581C69.9254 9.18294 69.7145 9.08222 69.4889 9.06199L69.44 9.05902ZM55.36 9.05902H52.3556V40.2455C52.3556 40.7501 52.757 41.1626 53.2622 41.1863L53.3096 41.1878L56.3141 41.17V22.2388H58.6978C58.9349 22.2317 59.1607 22.1359 59.3308 21.9703C59.5008 21.8046 59.6027 21.5812 59.6163 21.344V18.3169H56.3126V9.96567C56.3017 9.72861 56.2026 9.50422 56.0348 9.33669C55.867 9.16917 55.6426 9.07064 55.4059 9.0605H55.3585L55.36 9.05902ZM113.024 9.43296C112.498 10.1853 111.483 11.04 109.99 11.0578H86.8785V14.0374C86.8785 14.5256 87.2548 14.9277 87.7378 14.9737L87.7867 14.9782H99.9985V20.1168H88.9437C88.7002 20.1149 88.4653 20.2069 88.2877 20.3738C88.11 20.5406 88.0033 20.7696 87.9896 21.0131V21.0606L87.9881 24.0387H99.9985V28.7129H85.5096C85.2661 28.7106 85.031 28.8022 84.8531 28.9688C84.6752 29.1354 84.5681 29.3641 84.5541 29.6077V32.6333H99.9985V36.113L99.9956 36.1768L99.9926 36.2094L99.9867 36.2628C99.9452 36.5337 99.8109 36.7817 99.6068 36.9642C99.4027 37.1467 99.1415 37.2523 98.8681 37.263L98.8133 37.2644H93.4815L94.3452 40.4651C94.3962 40.6539 94.5025 40.8231 94.6504 40.9508C94.7982 41.0786 94.9809 41.159 95.1748 41.1819L95.2237 41.1848H98.9407L99.0222 41.1819L99.1096 41.1774C101.797 41.0261 103.913 38.8418 103.957 36.1768V32.6333H117.933C118.17 32.6262 118.396 32.5305 118.566 32.3648C118.736 32.1992 118.838 31.9757 118.852 31.7385V28.7114H103.957V24.0387H114.375C114.612 24.0317 114.838 23.9359 115.008 23.7702C115.178 23.6046 115.28 23.3811 115.293 23.1439L115.295 23.0979V20.1183H103.956V14.9797C105.267 14.9871 107.249 14.9856 109.902 14.9737C114.225 14.9915 116.437 11.8546 117.025 10.4093L114.166 9.18515C113.622 8.95218 113.222 9.14954 113.024 9.43296ZM49.7393 13.3251H46.7348V24.0135L46.7318 24.3548L46.7289 24.5699C46.6652 26.8588 46.2858 29.1279 45.6015 31.3126C45.5341 31.5333 45.5504 31.7711 45.6472 31.9806C45.7439 32.19 45.9144 32.3564 46.1259 32.4478L46.1718 32.4656L49.0904 33.442C50.0948 30.6597 50.6326 27.7395 50.6904 24.5536L50.6918 24.2954L50.6933 24.0431L50.6963 22.9926L50.6933 22.9911V14.2214C50.6801 13.9946 50.5862 13.78 50.4285 13.6167C50.2708 13.4533 50.0599 13.352 49.8341 13.3311L49.7867 13.3266L49.7393 13.3251ZM70.3556 15.7824H75.0696V25.7793H70.2341L70.277 25.1828C70.3141 24.6144 70.3363 23.9066 70.3452 23.2849L70.3467 23.0178L70.3496 22.3545L70.3556 15.7824Z" fill="white"/>
<path fill-rule="evenodd" clip-rule="evenodd" d="M31.1407 24.2464C35.4415 24.2464 38.9259 27.7187 38.9259 31.9997V38.1577C38.9259 42.4387 35.4415 45.9095 31.1407 45.9095H19.6919C18.0547 45.9121 16.4585 45.3977 15.13 44.4395C13.8015 43.4813 12.8084 42.128 12.2919 40.572L5.47111 43.976C4.57609 44.4239 3.54049 44.499 2.59039 44.1849C1.64029 43.8707 0.852862 43.1928 0.4 42.2992C0.136902 41.7764 -9.94756e-05 41.199 5.41913e-08 40.6135V29.5706C5.41913e-08 27.4931 1.69185 25.809 3.77778 25.809C4.37037 25.809 4.95556 25.947 5.48444 26.2141L12.2756 29.6373C12.7838 28.0689 13.7755 26.7022 15.1081 25.7338C16.4407 24.7654 18.0455 24.2452 19.6919 24.2479L31.1407 24.2464ZM31.0919 28.2381H19.8074C18.7889 28.2347 17.8099 28.6326 17.0815 29.3457C16.3532 30.0588 15.9339 31.0301 15.9141 32.0501V38.042C15.9171 39.0618 16.3201 40.0397 17.0362 40.7647C17.7523 41.4897 18.7241 41.9038 19.7422 41.9179H31.0267C32.0447 41.9208 33.0231 41.523 33.7511 40.8102C34.4791 40.0974 34.8983 39.1267 34.9185 38.1073V32.1139C34.9155 31.0943 34.5127 30.1167 33.797 29.3917C33.0812 28.6668 32.1097 28.2524 31.0919 28.2381ZM5.03704 30.6419C4.76791 30.6415 4.50933 30.7467 4.31682 30.9351C4.12431 31.1235 4.01322 31.38 4.00741 31.6495V38.591C4.00883 38.7654 4.05423 38.9366 4.13941 39.0886C4.22458 39.2407 4.34676 39.3687 4.49459 39.4608C4.64241 39.5529 4.81108 39.6061 4.98492 39.6154C5.15875 39.6247 5.33212 39.5898 5.48889 39.514L5.50519 39.5051L11.9067 36.2539V33.9539L5.49926 30.7517C5.35576 30.6797 5.19752 30.6422 5.03704 30.6419ZM14.5407 1.44676C16.4103 1.44387 18.247 1.93915 19.8624 2.8818C21.4778 3.82445 22.8138 5.18053 23.7333 6.81095C25.4071 5.26249 27.603 4.40442 29.8815 4.40857C34.877 4.40857 38.9259 8.44173 38.9259 13.4157C38.9259 18.3896 34.877 22.4228 29.8815 22.4228C28.4582 22.4249 27.0546 22.0908 25.7845 21.4475C24.5144 20.8042 23.4137 19.8699 22.5719 18.7205C21.5809 19.8835 20.3494 20.8169 18.9627 21.4561C17.5761 22.0954 16.0672 22.4252 14.5407 22.4228C8.72296 22.4228 4.00741 17.7263 4.00741 11.9333C4.00741 6.14024 8.72296 1.44676 14.5407 1.44676ZM14.5407 5.66392C11.0622 5.66392 8.24444 8.4714 8.24444 11.9348C8.24444 15.3981 11.0622 18.2056 14.5407 18.2056C18.0178 18.2056 20.837 15.3981 20.837 11.9348C20.837 8.4714 18.0178 5.66392 14.5407 5.66392ZM29.8815 8.62869C29.2519 8.62694 28.6282 8.7494 28.0459 8.98909C27.4635 9.22879 26.9341 9.58101 26.4876 10.0257C26.0412 10.4703 25.6866 10.9987 25.4441 11.5806C25.2016 12.1625 25.0758 12.7866 25.0741 13.4171C25.0758 14.0477 25.2016 14.6718 25.4441 15.2537C25.6866 15.8356 26.0412 16.364 26.4876 16.8086C26.9341 17.2533 27.4635 17.6055 28.0459 17.8452C28.6282 18.0849 29.2519 18.2074 29.8815 18.2056C30.5112 18.2075 31.1351 18.0852 31.7176 17.8456C32.3001 17.606 32.8297 17.2538 33.2763 16.8092C33.7228 16.3645 34.0776 15.8361 34.3202 15.254C34.5628 14.672 34.6886 14.0479 34.6904 13.4171C34.6886 12.7864 34.5628 12.1623 34.3202 11.5802C34.0776 10.9982 33.7228 10.4698 33.2763 10.0251C32.8297 9.58047 32.3001 9.22827 31.7176 8.98867C31.1351 8.74906 30.5112 8.62674 29.8815 8.62869Z" fill="#FF3D13"/>
</svg>
