<svg width="46" height="46" viewBox="0 0 46 46" fill="none" xmlns="http://www.w3.org/2000/svg">
<path fill-rule="evenodd" clip-rule="evenodd" d="M33.6765 23.7664C37.7981 23.7664 41.1373 27.0939 41.1373 31.1965V37.098C41.1373 41.2006 37.7981 44.5268 33.6765 44.5268H22.7047C21.1358 44.5293 19.606 44.0364 18.3329 43.1181C17.0597 42.1998 16.108 40.9028 15.613 39.4117L9.07648 42.6738C8.21875 43.1031 7.2263 43.1751 6.31579 42.874C5.40528 42.5729 4.65065 41.9233 4.21666 41.0669C3.96453 40.5659 3.83323 40.0126 3.83333 39.4515V28.8686C3.83333 26.8778 5.45469 25.2638 7.4537 25.2638C8.0216 25.2638 8.5824 25.396 9.08925 25.652L15.5974 28.9326C16.0845 27.4295 17.0349 26.1198 18.3119 25.1918C19.589 24.2637 21.1269 23.7652 22.7047 23.7678L33.6765 23.7664ZM33.6297 27.5917H22.8154C21.8393 27.5885 20.9011 27.9697 20.2031 28.6531C19.5051 29.3366 19.1033 30.2674 19.0843 31.2449V36.9871C19.0872 37.9644 19.4734 38.9015 20.1597 39.5963C20.8459 40.2911 21.7773 40.688 22.753 40.7015H33.5672C34.5428 40.7043 35.4805 40.3231 36.1781 39.64C36.8758 38.9569 37.2775 38.0266 37.2969 37.0497V31.306C37.294 30.3289 36.908 29.392 36.2221 28.6973C35.5361 28.0025 34.6051 27.6055 33.6297 27.5917ZM8.66049 29.8954C8.40257 29.8949 8.15477 29.9958 7.97028 30.1763C7.78579 30.3569 7.67933 30.6027 7.67376 30.8609V37.5132C7.67512 37.6803 7.71864 37.8444 7.80026 37.9901C7.88189 38.1359 7.99898 38.2585 8.14064 38.3468C8.2823 38.4351 8.44394 38.486 8.61054 38.4949C8.77713 38.5038 8.94327 38.4704 9.09351 38.3978L9.10913 38.3892L15.2439 35.2735V33.0694L9.10345 30.0006C8.96593 29.9316 8.81429 29.8956 8.66049 29.8954ZM17.7682 1.91667C19.5599 1.9139 21.32 2.38855 22.8681 3.29192C24.4162 4.19529 25.6965 5.49487 26.5778 7.05735C28.1818 5.57341 30.2862 4.7511 32.4697 4.75507C37.2572 4.75507 41.1373 8.62018 41.1373 13.3869C41.1373 18.1536 37.2572 22.0187 32.4697 22.0187C31.1058 22.0207 29.7606 21.7005 28.5435 21.084C27.3263 20.4675 26.2715 19.5722 25.4647 18.4707C24.515 19.5852 23.3349 20.4797 22.006 21.0923C20.677 21.7049 19.2311 22.021 17.7682 22.0187C12.1928 22.0187 7.67376 17.5179 7.67376 11.9662C7.67376 6.41459 12.1928 1.91667 17.7682 1.91667ZM17.7682 5.95811C14.4346 5.95811 11.7343 8.64862 11.7343 11.9677C11.7343 15.2867 14.4346 17.9772 17.7682 17.9772C21.1004 17.9772 23.8022 15.2867 23.8022 11.9677C23.8022 8.64862 21.1004 5.95811 17.7682 5.95811ZM32.4697 8.79936C31.8664 8.79767 31.2687 8.91503 30.7106 9.14474C30.1526 9.37444 29.6451 9.71199 29.2173 10.1381C28.7895 10.5642 28.4497 11.0706 28.2173 11.6283C27.9848 12.1859 27.8643 12.784 27.8626 13.3883C27.8643 13.9926 27.9848 14.5907 28.2173 15.1483C28.4497 15.706 28.7895 16.2123 29.2173 16.6385C29.6451 17.0646 30.1526 17.4021 30.7106 17.6318C31.2687 17.8615 31.8664 17.9789 32.4697 17.9772C33.0732 17.9791 33.6711 17.8619 34.2293 17.6322C34.7875 17.4026 35.2951 17.0651 35.7231 16.639C36.151 16.2128 36.491 15.7064 36.7235 15.1487C36.956 14.5909 37.0766 13.9927 37.0783 13.3883C37.0766 12.7839 36.956 12.1857 36.7235 11.6279C36.491 11.0702 36.151 10.5638 35.7231 10.1376C35.2951 9.71147 34.7875 9.37395 34.2293 9.14433C33.6711 8.91471 33.0732 8.79749 32.4697 8.79936Z" fill="#FF3D13"/>
</svg>
