<svg width="48" height="48" fill="none" xmlns="http://www.w3.org/2000/svg"><path d="M4 13.25 44 11v24L4 37V13.25Z" fill="#FF353C"/><path d="M9.5 19.5V17l5.5.5V20l-5.5-.5ZM9.5 23.5V21l5.5.5V24l-5.5-.5Z" fill="#fff"/><path d="M15.5 25.5c1.507-3.412 1-9.5 1-9.5H19s.816 6.026-.5 9.5c-1.329 3.508-6 7.5-6 7.5h-4s5.381-3.835 7-7.5ZM20.5 32.5 18.25 29l2.75-.25 2.5 3.75h-3ZM25 18.5l2-3.5 3 1 9-.5V18l-3.5 2.5 4.5.5v2.5l-8-1-7.5 2V22l4.5-1-4-2.5Z" fill="#fff"/><path d="M31 23.5h2.5V32H31v-8.5ZM24.5 32l2.5-4h3l-2.5 4h-3ZM37.5 31.5 35 28h3l2.5 3.5h-3ZM8 28v-2l15.5-1v2L8 28Z" fill="#fff"/><path d="M24.5 27.5v-2l15.5-1v2l-15.5 1Z" fill="#fff"/><path d="m29 18 7-.5-3.5 2L29 18Z" fill="#FF353C"/></svg>