<svg width="46" height="46" viewBox="0 0 46 46" fill="none" xmlns="http://www.w3.org/2000/svg">
<path d="M41.6875 13.9438V20.6281C41.3281 20.6281 40.8969 20.7 40.4656 20.7C37.2313 20.7 34.2125 19.4781 31.9125 17.5375V31.7688C31.9125 34.6438 30.9781 37.375 29.325 39.5313C27.025 42.6219 23.2875 44.7063 19.0469 44.7063C14.4469 44.7063 10.4219 42.2625 8.19376 38.6688C10.4938 40.825 13.5844 42.1906 16.9625 42.1906C21.1313 42.1906 24.8688 40.1782 27.1688 37.0157C28.75 34.8594 29.7563 32.2 29.7563 29.2531V14.95C32.0563 16.9625 35.0031 18.1125 38.3094 18.1125C38.7406 18.1125 39.1 18.1125 39.5313 18.0406V13.7281C40.1781 13.8719 40.7531 13.9438 41.4 13.9438H41.6875Z" fill="#FF004F"/>
<path d="M20.8438 18.9031V26.3062C20.3406 26.1625 19.7656 26.0906 19.2625 26.0906C16.1 26.0906 13.5125 28.75 13.5125 31.9843C13.5125 32.7031 13.6563 33.35 13.8719 33.9968C12.4344 32.9187 11.4281 31.1937 11.4281 29.2531C11.4281 26.0187 14.0156 23.3594 17.1781 23.3594C17.7531 23.3594 18.2563 23.4312 18.7594 23.575V18.8312H19.1906C19.7656 18.8312 20.3406 18.8312 20.8438 18.9031ZM32.9906 8.62498C31.6969 7.47498 30.7625 5.89373 30.2594 4.2406H31.9844V5.24685C32.1281 6.39685 32.4875 7.54685 32.9906 8.62498Z" fill="#FF004F"/>
<path d="M39.6031 13.8V18.1125C39.2437 18.1844 38.8125 18.1844 38.3812 18.1844C35.1469 18.1844 32.1281 16.9625 29.8281 15.0219V29.2531C29.8281 32.1281 28.8937 34.8593 27.2406 37.0156C24.8687 40.1781 21.2031 42.1906 17.0344 42.1906C13.6562 42.1906 10.5656 40.825 8.26562 38.6687C7.04375 36.6562 6.325 34.3562 6.325 31.8406C6.325 24.8687 11.8594 19.1906 18.7594 18.975V23.7187C18.2562 23.575 17.6812 23.5031 17.1781 23.5031C14.0156 23.5031 11.4281 26.1625 11.4281 29.3969C11.4281 31.3375 12.3625 33.1343 13.8719 34.1406C14.6625 36.3687 16.8187 38.0219 19.2625 38.0219C22.425 38.0219 25.0125 35.3625 25.0125 32.1281V4.2406H30.2594C30.7625 5.9656 31.6969 7.47498 32.9906 8.62498C34.2844 11.2125 36.7281 13.1531 39.6031 13.8Z" fill="black"/>
<path d="M18.7594 16.3875V18.8313C11.8594 19.0469 6.325 24.725 6.325 31.6969C6.325 34.2125 7.04375 36.5125 8.26562 38.525C5.82187 36.1531 4.3125 32.8469 4.3125 29.1094C4.3125 21.9938 10.0625 16.2438 17.1062 16.2438C17.6812 16.2438 18.2562 16.3156 18.7594 16.3875Z" fill="#00F7EF"/>
<path d="M30.2594 4.24063H25.0125V31.9844C25.0125 35.2188 22.425 37.8781 19.2625 37.8781C16.7469 37.8781 14.6625 36.2969 13.8719 33.9969C14.8062 34.6437 15.9562 35.075 17.1781 35.075C20.3406 35.075 22.9281 32.4875 22.9281 29.2531V1.4375H29.9V1.58125C29.9 1.86875 29.9 2.15625 29.9719 2.44375C29.9719 3.01875 30.1156 3.66563 30.2594 4.24063ZM39.6031 11.1406V13.7281C36.7281 13.1531 34.2844 11.2125 32.9187 8.625C34.7156 10.2781 37.0156 11.2125 39.6031 11.1406Z" fill="#00F7EF"/>
</svg>
