<svg width="126" height="37" viewBox="0 0 126 37" fill="none" xmlns="http://www.w3.org/2000/svg">
<path d="M60.1464 5.66064H56.5058V27.0196C56.5058 28.7967 55.8654 29.3093 54.6182 29.3093H53.4384V33.0001H54.6182C58.3261 33.0001 60.1464 31.2572 60.1464 27.0196V5.66064ZM49.0562 13.2132C49.0562 20.4581 48.7866 23.2604 47 26.2336L50.1686 28.079C52.2923 24.4565 52.6968 21.3467 52.6968 13.2132H49.0562ZM63.888 13.2132C63.888 21.3467 64.2925 24.4565 66.4162 28.079L69.5848 26.2336C67.7982 23.2604 67.5286 20.4581 67.5286 13.2132H63.888Z" fill="#333333"/>
<path d="M119.619 9.47315V6.43414H110.667V5H106.963V6.43414H98.01V9.47315H112.485V11.4536H105.145V10.1561H101.44V11.4536H97.324V14.4585H120.305V11.4536H116.189V9.47315H119.619ZM119.619 28.834V25.8292H110.667V24.7023H119.619V15.4829H98.01V24.7023H106.963V25.8292H98.01V28.834H106.963V29.995H97.324V32.9999H120.305V29.995H110.667V28.834H119.619ZM101.715 19.2048V17.8048H106.963V19.2048H101.715ZM115.915 17.8048V19.2048H110.667V17.8048H115.915ZM101.715 22.3804V20.9804H106.963V22.3804H101.715ZM115.915 20.9804V22.3804H110.667V20.9804H115.915Z" fill="#333333"/>
<path d="M74.7511 7.52682H70.7734V11.2146H74.7511V13.0585H70.7734V16.7463H71.7847V20.195H70.7734V23.8828H74.7511V25.6243H70.7734V29.3121H74.7511V32.9999H78.4253V29.3121H82.4029V25.6243H78.4253V23.8828H82.4029V20.195H81.3917V16.7463H82.4029V13.0585H78.4253V11.2146H82.4029V7.52682H78.4253V5H74.7511V7.52682ZM86.7176 9.37071H89.3806C89.3132 10.7707 89.0098 11.1805 88.1671 11.1805V14.8682C91.2009 14.8682 93.0211 13.1268 93.0211 8.89266V5.68292H83.4142V32.9999H86.7176V30.3365L87.9986 32.9999C88.6727 32.3852 89.2795 31.7706 89.7851 31.1218C90.3582 31.8047 90.9986 32.4194 91.7739 32.9999L93.3582 29.6877C92.6841 29.2096 92.1447 28.6633 91.6391 28.0828C93.0886 24.8731 93.3582 20.9804 93.3582 15.6536H86.7176V9.37071ZM75.4252 20.195V16.7463H77.7511V20.195H75.4252ZM89.6503 24.2584C89.3806 23.3023 89.2121 22.3121 89.1109 21.356L86.7176 22.0389V19.3414H90.3245C90.2233 21.3219 90.0211 22.8926 89.6503 24.2584ZM86.7176 22.7219C86.9199 24.3267 87.257 26.1365 87.9311 27.8779C87.594 28.3901 87.1895 28.8682 86.7176 29.3462V22.7219Z" fill="#333333"/>
<rect width="37" height="37" rx="7" fill="#B14B43"/>
<rect x="8" y="8" width="11" height="3" fill="white"/>
<path d="M20 6H29C29 6 29 8 29 9C29 12 28 14 25 14C25 13 25 12 25 11C25.5 11 26 10 26 9C24.1562 9 20 9 20 9V6Z" fill="white"/>
<path d="M20 15H29C29 15 29 17 29 18C29 25 28 27.5 24.5 30C24 28.5 23.8438 28 23.5 27C26 24.5 26 20 26 18C23.5 18 20 18 20 18V15Z" fill="white"/>
<rect x="8" y="13" width="11" height="3" fill="white"/>
<rect x="8" y="19" width="11" height="3" fill="white"/>
<rect x="8" y="24" width="11" height="3" fill="white"/>
<rect x="15" y="5" width="10" height="3" transform="rotate(90 15 5)" fill="white"/>
<rect x="23" y="9" width="21" height="3" transform="rotate(90 23 9)" fill="white"/>
<path d="M24.5 20.5C25.5 24 28 26.5 29.5 28L28 30C25.5 28 23 23.5 22.5 21L24.5 20.5Z" fill="white"/>
<rect x="15" y="21" width="9" height="3" transform="rotate(90 15 21)" fill="white"/>
<path d="M12.5 13L12.5 22L9.99999 22L9.99999 13L12.5 13Z" fill="white"/>
<path d="M17 13L17 22L14.5 22L14.5 13L17 13Z" fill="white"/>
</svg>
