<svg width="48" height="48" fill="none" xmlns="http://www.w3.org/2000/svg"><rect x="6" y="6" width="36" height="36" rx="8" fill="#F82800"/><path d="M34 15h-8a1 1 0 0 0-1 1v6m0 12V22m0 0h8v12" stroke="#fff" stroke-width="2"/><path d="M19.25 33h-1v2h1v-2ZM17 35a1 1 0 1 0 0-2v2Zm-1.4-19h3.8v-2h-3.8v2Zm4.4.6v15.8h2V16.6h-2Zm-5 15.8V16.6h-2v15.8h2Zm4.4.6h-.15v2h.15v-2ZM17 33h-1.4v2H17v-2Zm-4-.6a2.6 2.6 0 0 0 2.6 2.6v-2a.6.6 0 0 1-.6-.6h-2Zm7 0a.6.6 0 0 1-.6.6v2a2.6 2.6 0 0 0 2.6-2.6h-2ZM19.4 16a.6.6 0 0 1 .6.6h2a2.6 2.6 0 0 0-2.6-2.6v2Zm-3.8-2a2.6 2.6 0 0 0-2.6 2.6h2a.6.6 0 0 1 .6-.6v-2ZM36 14a2 2 0 0 1-2 2v-2h2ZM36 21a2 2 0 0 1-2 2v-2h2ZM34 34a2 2 0 0 1-2 2v-2h2ZM26 34a2 2 0 0 1-2 2v-2h2Z" fill="#fff"/><path d="M20 32c0 2.21-.895 4-2 4v-4h2Z" fill="#F72900"/></svg>