<svg width="48" height="40" fill="none" xmlns="http://www.w3.org/2000/svg"><g clip-path="url(#a)"><path fill-rule="evenodd" clip-rule="evenodd" d="M0 38a2 2 0 0 0 2 2h44a2 2 0 0 0 2-2V2A2 2 0 0 0 46.15.005L46 0H2l-.15.005A2 2 0 0 0 0 2v36ZM27 2H2v25h25V2ZM2 29v9h13v-9H2Zm15 9h29v-9H17v9Zm29-11V2H29v25h17Z" fill="#505050"/></g><path fill="#FFFD54" d="M2 29h13v9H2z"/><path fill-rule="evenodd" clip-rule="evenodd" d="M7.625 36.273a.959.959 0 0 1-.663.329H5.547v-.711h1.121c.11 0 .219-.055.328-.164l.137-.164H5.629v-2.817h2.434v-.328H5.52v-.766h.683v-.328H5.52v-.738h.683v-.273h.957v.273h2.762v-.3h.93v.3h.765v.738h-.765v.328h.793v.766H9.047v.328h2.488v1.914c.091.693-.255.994-1.039.903h-.328l.11.136c0 .018.008.037.027.055.127.091.228.128.3.11h1.04v.683h-1.56c-.29-.037-.482-.11-.573-.219l-.63-.766h-.519l-.738.711Zm-.465-4.62h2.735v-.329H7.16v.328Zm.875 2.132h-1.45v-.3h1.45v.3Zm1.012 0h1.558v-.3H9.047v.3Zm1.504 1.067H9.074v-.329h1.559v.22c0 .072-.027.109-.082.109Zm-3.965 0h1.45v-.329h-1.45v.329Z" fill="#fff" stroke="#505050"/><path fill-rule="evenodd" clip-rule="evenodd" d="M7.545 36.273a.959.959 0 0 1-.662.329H5.467v-.711h1.121c.11 0 .22-.055.329-.164l.136-.164H5.55v-2.817h2.434v-.328H5.44v-.766h.684v-.328H5.44v-.738h.684v-.273h.957v.273h2.761v-.3h.93v.3h.766v.738h-.766v.328h.793v.766H8.967v.328h2.489v1.914c.09.693-.256.994-1.04.903h-.328l.11.136c0 .018.009.037.027.055.128.091.228.128.3.11h1.04v.683h-1.559c-.291-.037-.483-.11-.574-.219l-.629-.766h-.52l-.738.711Zm-.464-4.62h2.734v-.329H7.081v.328Zm.875 2.132h-1.45v-.3h1.45v.3Zm1.011 0h1.559v-.3H8.967v.3Zm1.504 1.067H8.995v-.329h1.558v.22c0 .072-.027.109-.082.109Zm-3.965 0h1.45v-.329h-1.45v.329Z" fill="#fff"/><path fill="#CCC" d="M2 2h25v25H2z"/><path d="m13.553 14.893.051-7.435c0-1.358-1.12-2.458-2.5-2.458S8.602 6.1 8.602 7.458v7.31C7.052 15.604 6 17.224 6 19.085 6 21.799 8.239 24 11 24c2.762 0 5-2.2 5-4.915 0-1.778-1.012-3.329-2.447-4.192ZM11 22.69c-2.07 0-3.75-1.65-3.75-3.686 0-1.547.971-2.866 2.344-3.415V7.783c0-.813.672-1.474 1.5-1.474.829 0 1.431.66 1.431 1.474v7.896c1.27.59 2.225 1.851 2.225 3.325 0 2.037-1.68 3.687-3.75 3.687Zm.867-6.552v-2.385h-1.59v2.327a3 3 0 0 0-2.36 2.954A3.098 3.098 0 0 0 11 22.114a3.098 3.098 0 0 0 3.083-3.079c0-1.376-.94-2.526-2.217-2.896Z" fill="#FFFD54"/><path fill-rule="evenodd" clip-rule="evenodd" d="M20.578 12.572a.86.86 0 0 0 1.172.313c.41-.236.55-.759.314-1.168l-1.079-1.863h2.158A.856.856 0 0 0 24 9a.856.856 0 0 0-.857-.855h-2.158l1.079-1.863a.853.853 0 0 0-.314-1.167.859.859 0 0 0-1.17.312L19.5 7.29l-1.078-1.862a.86.86 0 0 0-1.172-.313.854.854 0 0 0-.314 1.168l1.079 1.862h-2.158A.856.856 0 0 0 15 9c0 .472.384.854.857.854h2.158l-1.079 1.864a.853.853 0 0 0 .314 1.167.859.859 0 0 0 1.17-.313l1.08-1.862 1.078 1.862ZM21.339 20.68a.682.682 0 0 0 .911.234.628.628 0 0 0 .244-.876l-.839-1.397h1.678A.654.654 0 0 0 24 18a.654.654 0 0 0-.667-.641h-1.678l.839-1.398a.628.628 0 0 0-.244-.875.682.682 0 0 0-.91.234l-.84 1.398-.839-1.397a.682.682 0 0 0-.911-.235.628.628 0 0 0-.244.876l.839 1.397h-1.678a.654.654 0 0 0-.667.64c0 .355.299.642.667.642h1.678l-.839 1.397a.628.628 0 0 0 .244.876.682.682 0 0 0 .91-.235l.84-1.397.839 1.397Z" fill="#FFFD54"/><path fill="#FFFD54" d="M29 2h17v25H29z"/><path d="M33.047 6.281v-1.21h8.906v1.21h-2.617V9.29h2.734v1.25h-7.343v2.5c0 .547-.248.82-.743.82h-.976v-1.015h.195c.156.026.221-.052.195-.235V9.29h2.579V6.281h-2.93Zm4.18 3.008h.859V6.281h-.86V9.29Zm2.734-1.64h.469c.156.025.247-.053.273-.235l.156-.664h1.211l-.273 1.29c-.052.468-.313.676-.781.624H39.96V7.648Zm-4.61-.079v1.094h-1.054c-.39.026-.625-.13-.703-.469l-.469-1.406h1.29l.194.586c.026.13.118.195.274.195h.469ZM33.125 16.305h3.79v-.352h1.327v.313h3.79v1.25H40.82v-.352h-6.445v.39h1.406v.43h3.555v-.351h1.406v.351h1.172v.86h-1.172v.43h1.133v.898h-1.133v.469h1.25v.859h-1.64l.312.352a.49.49 0 0 0 .43.234h.937v.82h-1.875v.664h-3.32c-.339.026-.586-.13-.742-.468l-.39-.743-.43.391c-.287.13-.652.195-1.094.195h-1.055v-.86h.625c.286 0 .534-.09.742-.273l.352-.312h-1.719v-.86h1.25v-.468H33.32v-.899h1.055v-.43H33.32v-.859h1.055v-.43h-1.25v-1.25Zm2.656 2.968h3.555v-.43H35.78v.43Zm3.555 1.368v-.47H35.82v.47h3.516Zm.508 2.187c-.078 0-.209-.104-.39-.312L38.71 21.5h-2.07l-.82.703h1.132l.352.43a.52.52 0 0 0 .43.195h2.109Zm-4.688 1.914c-.39.026-.664-.143-.82-.508l-.625-1.015h1.562l.274.43c.13.208.286.312.469.312h5.547v.781h-6.407Z" fill="#fff"/><path fill-rule="evenodd" clip-rule="evenodd" d="M32.662 6.6a.498.498 0 0 1-.115-.319v-1.21a.5.5 0 0 1 .5-.5h8.906a.5.5 0 0 1 .5.5v1.21a.503.503 0 0 1-.017.129.5.5 0 0 1 .123.444l-.268 1.267c-.03.237-.107.475-.266.668h.045a.5.5 0 0 1 .5.5v1.25a.5.5 0 0 1-.5.5h-6.843v2c0 .339-.076.686-.315.95-.248.275-.59.37-.928.37h-.976a.5.5 0 0 1-.5-.5v-1.015a.5.5 0 0 1 .39-.488V9.289a.5.5 0 0 1 .441-.496 1.146 1.146 0 0 1-.226-.46l-.462-1.386a.5.5 0 0 1 .011-.347Zm.463.19h1.29l.194.585c.026.13.118.195.274.195h.469v1.094h-1.055c-.39.026-.625-.13-.703-.469l-.469-1.406Zm2.852 2.5h-2.579v3.32c.02.136-.012.214-.095.234a.257.257 0 0 1-.1 0h-.195v1.015h.976c.495 0 .743-.273.743-.82v-2.5h7.343V9.29h-2.734V6.281h2.617v-1.21h-8.906v1.21h2.93V9.29Zm-.5-2.509h-.538l.096.29h.317c.043 0 .085.005.125.015v-.305Zm4.861 0h-.502v.383a.502.502 0 0 1 .125-.016h.291l.086-.367Zm1.459 1.258.273-1.289h-1.21l-.157.664c-.024.17-.105.25-.242.238a.371.371 0 0 1-.031-.004h-.47v1.016h1.056c.468.052.729-.156.78-.625Zm-3.711 1.25h-.86V6.281h.86V9.29Zm-5.461 7.016a.5.5 0 0 1 .5-.5h3.312a.5.5 0 0 1 .477-.352h1.328a.5.5 0 0 1 .464.313h3.325a.5.5 0 0 1 .5.5v1.25c0 .131-.05.25-.134.34.011.041.017.084.017.128v.86c0 .093-.026.18-.07.255a.5.5 0 0 1 .031.174v.899a.503.503 0 0 1-.017.128c.083.09.134.21.134.34v.86a.498.498 0 0 1-.076.266.498.498 0 0 1 .115.32v.82a.5.5 0 0 1-.5.5h-1.375v.055h.907a.5.5 0 0 1 .5.5v.781a.5.5 0 0 1-.5.5H35.17a1.312 1.312 0 0 1-.776-.182 1.324 1.324 0 0 1-.503-.592l-.607-.987a.517.517 0 0 1-.02-.036h-.14a.5.5 0 0 1-.5-.5v-.86c0-.108.035-.21.095-.292a.498.498 0 0 1-.095-.293v-.86a.5.5 0 0 1 .2-.4.503.503 0 0 1-.005-.068v-.899c0-.076.018-.15.049-.214a.498.498 0 0 1-.049-.215v-.86l.001-.032a.5.5 0 0 1-.196-.397v-1.25Zm.5 1.25h1.25v.43H33.32v.859h1.055v.43H33.32v.898h1.055v.469h-1.25v.859h1.719l-.352.313a1.096 1.096 0 0 1-.742.273h-.625v.86h1.055c.442 0 .807-.066 1.093-.196l.43-.39.39.742a.85.85 0 0 0 .286.359c.127.087.28.123.457.11h3.32v-.665h1.875v-.82h-.937a.49.49 0 0 1-.43-.234l-.312-.352h1.64v-.86h-1.25v-.468h1.133v-.899h-1.133v-.43h1.172v-.859h-1.172v-.351h-1.406v.351H35.78v-.43h-1.406v-.39h6.445v.352h1.211v-1.25h-3.789v-.313h-1.328v.352h-3.789v1.25Zm5.586 3.945h-2.07l-.82.703h1.132l.352.43a.52.52 0 0 0 .43.195h2.109c-.04 0-.094-.027-.162-.082a2.004 2.004 0 0 1-.229-.23l-.742-1.016Zm-.014.828-.24-.328h-1.024l.262.32.004.005a.137.137 0 0 0 .035.003h.963Zm-2.681 1.633c-.183 0-.339-.104-.47-.313l-.273-.43h-1.562l.625 1.016c.156.365.43.534.82.508h6.407v-.781h-5.547Zm3.32-5.117H35.78v.43h3.555v-.43Zm0 1.328v.469H35.82v-.47h3.516Z" fill="#505050"/><path fill="#FFFD54" d="M17 29h29v9H17z"/><path d="M20.172 32.938h-.594c-.01-.292-.166-.438-.469-.438-.302.02-.458.146-.468.375 0 .188.15.318.453.39.031.011.057.016.078.016.01 0 .036.005.078.016.677.135 1.01.4 1 .797-.01.604-.422.916-1.234.937-.75 0-1.12-.317-1.11-.953h.625c0 .333.162.51.485.531.375-.01.567-.135.578-.375 0-.198-.183-.333-.547-.406a.484.484 0 0 1-.11-.031c-.635-.146-.953-.412-.953-.797.032-.594.433-.911 1.203-.953.625.031.954.328.985.89ZM20.656 35v-2.89h1.938v.484H21.28v.672H22.5v.484h-1.219v.766h1.36V35h-1.985ZM23.969 35l-1.063-2.89h.672l.75 2.28h.016l.75-2.28h.61L24.64 35h-.672ZM25.969 35v-2.89h1.937v.484h-1.312v.672h1.218v.484h-1.218v.766h1.36V35h-1.985ZM29.031 32.594v.765h.516c.291 0 .437-.135.437-.406 0-.25-.146-.37-.437-.36h-.516Zm0 1.25V35h-.625v-2.89h1.235c.656.01.99.26 1 .75-.01.374-.209.609-.594.703v.015c.281.031.453.245.515.64.01.042.016.074.016.094.031.344.084.573.156.688h-.672a3.817 3.817 0 0 1-.109-.781c-.02-.25-.11-.375-.265-.375h-.657ZM31.063 35v-2.89H33v.484h-1.313v.672h1.22v.484h-1.22v.766h1.36V35h-1.984ZM36.938 33.047h-.657c-.02-.354-.208-.537-.562-.547-.344.02-.526.375-.547 1.063.02.677.203 1.026.547 1.046.364-.01.552-.192.562-.547h.657c-.032.636-.438.959-1.22.97-.78-.022-1.182-.511-1.202-1.47.03-.979.432-1.484 1.203-1.515.77.01 1.177.344 1.218 1ZM38.594 35.031c-.907-.02-1.37-.51-1.39-1.468.03-.99.494-1.495 1.39-1.516.885.02 1.343.526 1.375 1.516-.032.958-.49 1.447-1.375 1.468Zm0-2.531c-.49 0-.735.354-.735 1.063 0 .697.245 1.046.735 1.046.479 0 .718-.349.718-1.047 0-.708-.24-1.062-.718-1.062ZM42.281 35h-1.86v-2.89h.61v2.406h1.25V35ZM43.234 32.594v1.922h.328c.573.02.855-.297.844-.953.01-.667-.27-.99-.843-.97h-.329ZM42.625 35v-2.89h.984c.959.01 1.443.494 1.453 1.453-.01.947-.494 1.427-1.453 1.437h-.984Z" fill="#fff"/><path fill-rule="evenodd" clip-rule="evenodd" d="M20.656 35h1.985v-.484h-1.36v-.766H22.5v-.484h-1.219v-.672h1.313v-.485h-1.938V35Zm2.094-3.366a.5.5 0 0 0-.156-.025h-1.938a.5.5 0 0 0-.45.285c-.275-.232-.627-.328-.994-.346h-.052c-.439.023-.849.128-1.162.377-.332.262-.491.634-.513 1.049V33c0 .238.07.45.195.632a.5.5 0 0 0-.274.438c-.006.418.114.819.444 1.102.313.27.733.36 1.166.36h.012c.44-.012.852-.1 1.172-.326a.5.5 0 0 0 .456.294h1.985a.5.5 0 0 0 .5-.5v-.484a.5.5 0 0 0-.262-.44.498.498 0 0 0 .118-.27l.502 1.367a.5.5 0 0 0 .47.327h.672a.5.5 0 0 0 .469-.328l.359-.976V35a.5.5 0 0 0 .5.5h1.984c.082 0 .159-.02.227-.054a.497.497 0 0 0 .226.054h.625a.5.5 0 0 0 .5-.5v-.086c.014.07.03.139.046.207a.5.5 0 0 0 .485.379h.672a.5.5 0 0 0 .164-.028.5.5 0 0 0 .165.028h1.984a.5.5 0 0 0 .5-.5v-.484a.5.5 0 0 0-.262-.44.498.498 0 0 0 .121-.326v-.484a.497.497 0 0 0-.089-.286.499.499 0 0 0 .183-.386v-.485a.5.5 0 0 0-.5-.5h-1.938a.5.5 0 0 0-.436.256c-.278-.185-.625-.25-.977-.256h-1.243a.497.497 0 0 0-.25.067.497.497 0 0 0-.25-.067H25.97a.5.5 0 0 0-.133.018.497.497 0 0 0-.133-.018h-.61a.5.5 0 0 0-.474.344l-.283.86-.283-.86a.5.5 0 0 0-.475-.344h-.672a.5.5 0 0 0-.156.025Zm.156.475h.672l.75 2.282h.016l.75-2.282h.61L24.64 35h-.672l-1.063-2.89Zm3.063 0V35h1.984v-.484h-1.36v-.766h1.22v-.484h-1.22v-.672h1.313v-.485H25.97ZM28.406 35h.625v-1.156h.657c.014 0 .027 0 .04.003.097.015.164.087.2.217.012.044.02.096.025.155.01.27.047.531.11.781h.671c-.058-.092-.104-.259-.135-.5a4.875 4.875 0 0 1-.02-.188.427.427 0 0 0-.017-.093 1.255 1.255 0 0 0-.076-.286.606.606 0 0 0-.19-.26.47.47 0 0 0-.245-.094h-.004v-.017h.002c.042-.01.083-.023.12-.036a.822.822 0 0 0 .206-.108.614.614 0 0 0 .188-.22.793.793 0 0 0 0-.681c-.115-.225-.355-.357-.72-.396a2.222 2.222 0 0 0-.202-.012h-1.235V35Zm.625-1.64h.516a.877.877 0 0 0 .14-.013l.014-.003a.329.329 0 0 0 .274-.28.606.606 0 0 0 .01-.11c0-.181-.077-.294-.229-.339a.557.557 0 0 0-.123-.02.87.87 0 0 0-.086-.001h-.516v.765ZM31.063 35h1.984v-.484h-1.36v-.766h1.22v-.484h-1.22v-.672H33v-.485h-1.938V35Zm-10.907-.485c.06-.12.091-.26.094-.421a.568.568 0 0 0-.094-.337c-.085-.129-.227-.235-.427-.32a1.93 1.93 0 0 0-.15-.056 2.864 2.864 0 0 0-.407-.1.258.258 0 0 1-.078-.015c-.302-.073-.453-.203-.453-.391a.353.353 0 0 1 .088-.231c.077-.084.204-.132.38-.144a.904.904 0 0 1 .103.006.44.44 0 0 1 .22.085c.075.06.122.148.14.267a.748.748 0 0 1 .006.08h.594a1.335 1.335 0 0 0-.016-.146.916.916 0 0 0-.13-.355.775.775 0 0 0-.36-.292 1.411 1.411 0 0 0-.479-.098 3.101 3.101 0 0 0-.108.008c-.258.024-.47.082-.637.174-.287.157-.439.414-.458.771 0 .239.122.431.366.578.054.033.115.063.181.092a2.453 2.453 0 0 0 .417.131.573.573 0 0 0 .099.027c.364.073.547.208.547.406a.33.33 0 0 1-.081.213c-.09.102-.256.156-.497.162h-.011a.545.545 0 0 1-.313-.11.45.45 0 0 1-.152-.293.856.856 0 0 1-.009-.128h-.625v.052c.003.175.037.324.1.448.093.18.249.305.468.378a1.698 1.698 0 0 0 .542.075h.011c.318-.01.573-.064.767-.163a.792.792 0 0 0 .362-.353Zm16.996-2.35a1.33 1.33 0 0 0-.233-.247c-.324-.265-.746-.365-1.194-.371H35.7c-.5.02-.942.202-1.25.591-.295.37-.416.864-.433 1.409v.026c.011.537.13 1.026.43 1.392.313.383.76.553 1.26.566h.02c.447-.006.87-.1 1.194-.358.09-.072.167-.151.232-.238l.051.057c.352.372.84.527 1.38.54h.022c.51-.013.974-.158 1.318-.497a.5.5 0 0 0 .499.465h1.86a.5.5 0 0 0 .171-.03.5.5 0 0 0 .172.03h.99c.556-.006 1.062-.15 1.428-.512.367-.363.513-.867.52-1.42v-.01c-.007-.558-.152-1.065-.518-1.431-.366-.366-.873-.512-1.43-.518h-.99a.5.5 0 0 0-.5.5v1.907h-.594v-1.907a.5.5 0 0 0-.5-.5h-.61a.5.5 0 0 0-.496.447c-.343-.347-.807-.497-1.32-.509h-.023c-.54.013-1.027.175-1.376.556-.019.02-.037.041-.054.062Zm.24.541a1.563 1.563 0 0 0-.118.32 2.365 2.365 0 0 0-.068.615c.008.16.028.306.062.438.031.12.073.23.125.328.105.195.252.344.443.447.203.111.456.17.758.177.304-.007.558-.07.761-.187.295-.171.484-.458.567-.862.026-.128.042-.268.047-.42-.005-.156-.02-.3-.047-.433-.094-.471-.323-.788-.688-.952a1.651 1.651 0 0 0-1.29 0 1.111 1.111 0 0 0-.552.53Zm.727 1.731c.116.113.271.17.465.172h.02a.625.625 0 0 0 .458-.175c.167-.17.25-.46.25-.871 0-.473-.106-.788-.32-.945a.648.648 0 0 0-.388-.118h-.02a.671.671 0 0 0-.4.12c-.216.157-.325.472-.325.943 0 .414.087.706.26.874Zm-1.416-.874v-.016h-.422a.5.5 0 0 1-.499-.47.353.353 0 0 0-.01-.07h-.002l-.001.003c-.04.078-.086.246-.097.552.01.3.056.464.095.538 0 .002.002.002.002.003h.007a.353.353 0 0 0 .005-.055.5.5 0 0 1 .5-.486h.422Zm-.422.5c-.005.185-.06.323-.162.415-.091.08-.22.124-.389.131h-.017a.429.429 0 0 1-.284-.13c-.157-.159-.243-.465-.257-.916.015-.5.115-.824.301-.971a.426.426 0 0 1 .24-.092h.024a.649.649 0 0 1 .31.084c.143.087.221.241.234.463h.657a1.283 1.283 0 0 0-.076-.374.957.957 0 0 0-.059-.126c-.116-.209-.305-.352-.569-.43a1.89 1.89 0 0 0-.502-.07h-.013l-.028.001c-.171.01-.324.043-.458.1-.454.196-.694.667-.717 1.414.015.693.228 1.141.64 1.344a1.326 1.326 0 0 0 .563.125h.012c.248-.004.458-.04.63-.108a.86.86 0 0 0 .5-.48c.044-.112.07-.238.077-.38h-.657Zm4.14-1.954h.61v2.407h1.25V35h-1.86v-2.89Zm2.204 0h.984c.164.002.314.018.45.047.66.143.995.612 1.004 1.407-.01.784-.343 1.248-1 1.39-.138.03-.288.045-.454.047h-.984v-2.89Zm.61 2.407h.374a1.45 1.45 0 0 0 .125-.005.887.887 0 0 0 .2-.042c.323-.11.48-.412.472-.907.008-.503-.15-.811-.476-.922a.877.877 0 0 0-.267-.046l-.054-.001h-.375v1.923Zm.5-.51v-.902c.064.014.084.037.091.045.025.028.085.13.08.406v.015c.005.27-.054.366-.077.392-.007.007-.028.03-.095.044Zm-5.28-.956c-.039.055-.096.2-.096.513 0 .305.057.445.093.497.014.02.025.028.035.032a.25.25 0 0 0 .107.017c.059 0 .086-.01.096-.015a.077.077 0 0 0 .03-.03c.037-.052.093-.194.093-.502 0-.313-.056-.46-.094-.516-.015-.022-.025-.028-.032-.031a.214.214 0 0 0-.093-.015.241.241 0 0 0-.104.017.087.087 0 0 0-.036.033Z" fill="#505050"/><defs><clipPath id="a"><path fill="#fff" d="M0 0h48v40H0z"/></clipPath></defs></svg>