<svg width="48" height="40" fill="none" xmlns="http://www.w3.org/2000/svg"><g clip-path="url(#a)"><path fill-rule="evenodd" clip-rule="evenodd" d="M0 38a2 2 0 0 0 2 2h44a2 2 0 0 0 2-2V2A2 2 0 0 0 46.15.005L46 0H2l-.15.005A2 2 0 0 0 0 2v36ZM27 2H2v25h25V2ZM2 29v9h13v-9H2Zm15 9h29v-9H17v9Zm29-11V2H29v25h17Z" fill="#505050"/></g><path fill="#F29D38" d="M2 29h13v9H2z"/><path d="M7.352 36.574v-3.718h.164v-.794h-.164v-.246h.218v-.765h-.218v-.656h-.903v.656H5.33v.793h1.093v.218H5.52l-.11 3.5c0 .092-.036.128-.11.11v.656h.384c.346 0 .52-.182.52-.547l.109-2.925h.109v3.718h.93Zm1.175-3.527c.638.073.957-.237.957-.93l.11-1.668h-1.86v.684h.93l-.027.328h-.219c-.091.018-.128-.018-.11-.11h-.574v.247c0 .328.137.501.41.52h.438l-.027.081c-.019.128-.073.183-.164.164h-.63v.684h.766Zm2.98-.684v.657h-.984a1.141 1.141 0 0 1-.109.003c-.384-.005-.585-.225-.601-.66l-.137-1.914h1.86v.766h-.848l.054.273h.137c.091.018.137-.018.137-.11h.546l-.027.329c-.018.31-.155.438-.41.383h-.355l.027.11c-.018.127.045.181.191.163h.52Zm.028 1.504v-.656H7.652v.656h3.883Zm0 2.078v.547H7.543v-.547h.574l-.082-.3H7.68v-1.56h3.855v1.013c.018.4-.146.583-.492.547l-.055.3h.547Zm-1.039-.957a.133.133 0 0 0 .04.005c.046-.003.07-.041.07-.114v-.11H8.554v.22h1.941Zm-1.45.957h1.04v-.3h-1.04v.3Z" fill="#505050" stroke="#505050"/><path d="M7.352 36.574v-3.718h.164v-.794h-.164v-.246h.218v-.765h-.218v-.656h-.903v.656H5.33v.793h1.093v.218H5.52l-.11 3.5c0 .092-.036.128-.11.11v.656h.384c.346 0 .52-.182.52-.547l.109-2.925h.109v3.718h.93Zm1.175-3.527c.638.073.957-.237.957-.93l.11-1.668h-1.86v.684h.93l-.027.328h-.219c-.091.018-.128-.018-.11-.11h-.574v.247c0 .328.137.501.41.52h.438l-.027.081c-.019.128-.073.183-.164.164h-.63v.684h.766Zm2.98-.684v.657h-.984a1.141 1.141 0 0 1-.109.003c-.384-.005-.585-.225-.601-.66l-.137-1.914h1.86v.766h-.848l.054.273h.137c.091.018.137-.018.137-.11h.546l-.027.329c-.018.31-.155.438-.41.383h-.355l.027.11c-.018.127.045.181.191.163h.52Zm.028 1.504v-.656H7.652v.656h3.883Zm0 2.078v.547H7.543v-.547h.574l-.082-.3H7.68v-1.56h3.855v1.013c.018.4-.146.583-.492.547l-.055.3h.547Zm-1.039-.957a.133.133 0 0 0 .04.005c.046-.003.07-.041.07-.114v-.11H8.554v.22h1.941Zm-1.45.957h1.04v-.3h-1.04v.3Z" fill="#fff"/><path fill="#CCC" d="M2 2h25v25H2z"/><path d="M7.612 13.02h2.145v5.5c.7-.03 1.372-.28 1.925-.713a3.59 3.59 0 0 1 2.076-.757 3.346 3.346 0 0 1 2.156.89 1.677 1.677 0 0 0 1.147.58 1.663 1.663 0 0 0 1.39-.58 3.345 3.345 0 0 1 1.845-.872V13.02h2.145a.27.27 0 0 0 .25-.168.276.276 0 0 0-.056-.297l-2.505-2.523V6.922a.233.233 0 0 0-.23-.232h-.895a.23.23 0 0 0-.23.232V8.67L15.21 5.08a.276.276 0 0 0-.387 0L7.41 12.55a.275.275 0 0 0 .2.47h.001ZM23.8 18.887a5.797 5.797 0 0 1-1.284-.288 5.087 5.087 0 0 0-2.007-.425 3.343 3.343 0 0 0-2.177.9 1.673 1.673 0 0 1-1.268.586 1.662 1.662 0 0 1-1.269-.587 3.352 3.352 0 0 0-2.158-.89 3.6 3.6 0 0 0-2.076.758 3.355 3.355 0 0 1-2.006.718 2.561 2.561 0 0 1-1.726-.637 3.651 3.651 0 0 0-1.504-.744.232.232 0 0 0-.276.233v.636a.234.234 0 0 0 .173.218c.39.102.754.29 1.065.549a3.548 3.548 0 0 0 2.306.827 4.286 4.286 0 0 0 2.518-.969 2.673 2.673 0 0 1 1.534-.597 2.379 2.379 0 0 1 1.545.697 2.935 2.935 0 0 0 1.857.818 2.9 2.9 0 0 0 1.845-.797 2.383 2.383 0 0 1 1.554-.697c.581 0 1.156.124 1.687.362.523.18 1.064.299 1.614.356a.23.23 0 0 0 .253-.208V19.124a.234.234 0 0 0-.2-.237Zm-.055 2.258a5.769 5.769 0 0 1-1.282-.288 5.106 5.106 0 0 0-2.007-.424 3.337 3.337 0 0 0-2.177.898 1.679 1.679 0 0 1-1.268.585 1.665 1.665 0 0 1-1.268-.585 3.344 3.344 0 0 0-2.157-.89 3.6 3.6 0 0 0-2.076.759 3.354 3.354 0 0 1-2.006.718 2.564 2.564 0 0 1-1.725-.637 3.624 3.624 0 0 0-1.501-.741.23.23 0 0 0-.277.233v.634a.234.234 0 0 0 .173.218c.39.102.753.29 1.063.548A3.542 3.542 0 0 0 9.542 23c.923-.05 1.804-.4 2.514-.995a2.687 2.687 0 0 1 1.536-.597 2.383 2.383 0 0 1 1.545.697c.503.486 1.161.776 1.857.818a2.892 2.892 0 0 0 1.845-.797 2.39 2.39 0 0 1 1.556-.697c.581 0 1.156.124 1.686.363.523.179 1.065.298 1.615.355a.228.228 0 0 0 .225-.123.235.235 0 0 0 .025-.11v-.557a.233.233 0 0 0-.203-.212ZM29 2h17v25H29z" fill="#F29D38"/><path d="M40.273 6.406H37.97l-.352 1.29h1.328l.47 2.538c0 .209.09.3.273.274h.273v1.25h-1.172c-.469.026-.742-.235-.82-.781L37.5 8.203l-.625 2.578c-.13.651-.456.95-.977.899H35v-1.211h.195c.157.026.248-.065.274-.274l.937-3.789h-1.68v6.914h-1.484V5.156h3.399v-.742h1.562v.742h3.555v7.227c.026.625-.339.924-1.094.898h-3.242v-1.094h2.695c.104.027.156-.039.156-.195V6.406ZM37.89 15.96h1.993l.156-.507h1.328v.508h.625v1.172h-5.898V15.96h.39v-.469h1.29l.117.469Zm-1.835 3.517V17.68h5.898v1.718h-1.367v-.546h-3.164v.625h-1.367Zm.039 1.68v-1.173h1.328l.039-.507h1.406l-.039.507h3.086v3.555c0 .52-.26.781-.781.781h-1.68v-1.054h.86c.182.052.26-.013.234-.196v-1.914h-1.875l-.234 2.305c-.079.625-.417.95-1.016.977h-1.29v-1.172h.704a.305.305 0 0 0 .273-.274l.196-1.836h-1.211Zm-2.5-1.329-.235-1.289h1.29l.117.781c.026.209.169.3.43.274h.585v1.093h-.82c-.86.105-1.315-.182-1.367-.859Zm-.313 3.477h.235c.234.026.39-.104.468-.39l.352-1.602h1.367l-.508 2.304c-.078.495-.468.73-1.172.703h-.742v-1.015Zm.43-5.938-.508-1.836h1.367l.352 1.133c.026.26.195.378.508.352h.39v1.132h-1.172c-.52.079-.833-.182-.937-.78Z" fill="#fff"/><path fill-rule="evenodd" clip-rule="evenodd" d="M40.273 6.406H37.97l-.352 1.29h1.328l.47 2.538c0 .162.054.254.165.274a.336.336 0 0 0 .108 0h.273v1.25h-1.172a.807.807 0 0 1-.405-.07c-.225-.11-.363-.348-.415-.711L37.5 8.203l-.625 2.578c-.13.651-.456.95-.977.899H35v-1.211h.195l.032.004a.24.24 0 0 0 .063-.004c.099-.02.159-.112.179-.274l.937-3.789h-1.68v6.914h-1.484V5.156h3.399v-.742h1.562v.742h3.555v7.227c.026.625-.339.924-1.094.898h-3.242v-1.094h2.695c.104.027.156-.039.156-.195V6.406Zm-2.589 5.282a1.725 1.725 0 0 1-.21-.634l-.061-.368-.05.204c-.076.376-.223.725-.491.972-.28.258-.632.348-.996.318h-.65v1.14a.5.5 0 0 1-.5.5h-1.484a.5.5 0 0 1-.5-.5V5.156a.5.5 0 0 1 .5-.5h2.899v-.242a.5.5 0 0 1 .5-.5h1.562a.5.5 0 0 1 .5.5v.242h3.055a.5.5 0 0 1 .5.5v7.217c.015.41-.099.812-.437 1.09-.316.26-.738.332-1.165.318h-3.234a.5.5 0 0 1-.5-.5v-1.094a.5.5 0 0 1 .5-.5h.263Zm-2.457-2.596.54-2.186h-.54v2.186Zm4.546.335v-2.52h-1.422l-.08.288h.674a.5.5 0 0 1 .492.41l.336 1.822Zm-3.68 6.534h.391v-.469h1.29l.117.469h1.992l.156-.508h1.328v.508h.625v1.172h-5.898V15.96Zm-.273 1.055h-.39a.934.934 0 0 1-.11.003c-.242-.008-.375-.127-.398-.355l-.352-1.133h-1.367l.508 1.836c.056.322.172.546.348.672.152.11.348.146.59.11h1.171v-1.133Zm.235.664v1.797h1.367v-.625h3.164v.546h1.367V17.68h-5.898Zm4.03 1.672h-.734a.5.5 0 0 1 .016.132h.726a.507.507 0 0 1-.007-.086v-.046Zm2.252.366a.497.497 0 0 1 .077.266v3.555c0 .338-.085.682-.342.94-.257.257-.602.341-.94.341h-1.679a.5.5 0 0 1-.5-.5v-.987l-.02.19c-.048.387-.185.746-.461 1.011-.28.269-.642.386-1.028.403h-1.312a.5.5 0 0 1-.5-.5v-.509a1.204 1.204 0 0 1-.531.665c-.31.186-.69.24-1.086.227h-.734a.5.5 0 0 1-.5-.5v-1.015a.5.5 0 0 1 .5-.5h.215a.445.445 0 0 0 .003-.012l.349-1.588a.497.497 0 0 1 .05-.132 1.353 1.353 0 0 1-.19-.099c-.388-.244-.57-.64-.61-1.08l-.23-1.265a.5.5 0 0 1 .491-.59h.054a1.864 1.864 0 0 1-.19-.56l-.502-1.814a.5.5 0 0 1 .482-.634h1.367a.5.5 0 0 1 .478.352l.351 1.133h.195v-.555a.5.5 0 0 1 .39-.488.5.5 0 0 1 .5-.48h1.29a.5.5 0 0 1 .484.378l.023.09h1.233l.047-.155a.5.5 0 0 1 .478-.353h1.328a.5.5 0 0 1 .5.5v.008h.125a.5.5 0 0 1 .5.5v1.172c0 .114-.038.219-.102.303.04.072.063.155.063.244v1.718a.498.498 0 0 1-.116.32ZM33.36 18.54h1.29l.117.781c.026.209.169.3.43.274h.585v1.093h-.82c-.86.105-1.315-.182-1.367-.859l-.235-1.289Zm2.735 2.617h1.21l-.195 1.836a.305.305 0 0 1-.273.274h-.703v1.172h1.289c.599-.026.937-.352 1.016-.977l.234-2.305h1.875v1.914c.026.183-.052.248-.234.196h-.86v1.054h1.68c.52 0 .781-.26.781-.78v-3.556h-3.086l.04-.507H37.46l-.04.507h-1.327v1.172Zm3.953.5h-.923l-.15 1.464a.5.5 0 0 1 .48-.354h.593v-1.11Zm-3.416 1.11h-.498a.497.497 0 0 0-.253.068l.26-1.178h.609l-.118 1.11Zm-2.295-1.453-.352 1.601c-.065.239-.184.369-.358.39a.476.476 0 0 1-.11 0h-.235v1.016h.742c.704.026 1.094-.208 1.172-.703l.508-2.305h-1.367Zm1.219-2.22v-.445h-.385l.067.446h.318Z" fill="#505050"/><path fill="#F29D38" d="M17 29h29v9H17z"/><path d="m24.662 32.491.633-2.443h.79l.563 2.443h.018l.527-2.443h.65l-.825 3.252h-.774l-.58-2.478-.633 2.478h-.79l-.792-3.252h.72l.493 2.443ZM28.617 33.3h-.668l1.178-3.252h.826l1.143 3.252h-.703l-.247-.686h-1.283l-.246.686Zm.422-1.23h.932l-.44-1.39h-.017l-.475 1.39ZM31.184 30.593v-.545h2.636v.545h-.967V33.3h-.703v-2.707h-.966ZM34.137 33.3v-3.252h2.18v.545H34.84v.756h1.37v.545h-1.37v.861h1.53v.545h-2.233ZM37.582 30.593v.861h.58c.316 0 .48-.152.492-.457-.011-.27-.176-.404-.492-.404h-.58Zm0 1.406V33.3h-.703v-3.252h1.389c.738.024 1.113.305 1.125.844-.012.422-.235.685-.668.79v.018c.316.035.51.276.58.721 0 .035.005.07.017.106.024.398.082.656.176.773h-.756a4.302 4.302 0 0 1-.123-.879c-.035-.281-.135-.422-.299-.422h-.738ZM23.291 37.3h-2.092v-3.252h.686v2.707h1.406v.545ZM25.137 37.335c-1.02-.023-1.541-.574-1.565-1.652.024-1.102.545-1.67 1.565-1.705.996.035 1.511.603 1.547 1.705-.036 1.078-.551 1.629-1.547 1.652Zm0-2.848c-.563 0-.838.399-.826 1.196-.012.797.263 1.19.826 1.178.539 0 .808-.393.808-1.178 0-.797-.27-1.196-.808-1.196ZM29.355 36.105h-.632v-.545h1.318v1.634c-.234.07-.475.106-.72.106a6.211 6.211 0 0 1-.739.035c-.996-.047-1.506-.598-1.53-1.652.024-1.055.534-1.623 1.53-1.705 1.008 0 1.512.351 1.512 1.054h-.739c0-.363-.216-.544-.65-.544-.61.023-.914.421-.914 1.195 0 .773.305 1.166.914 1.178.176 0 .38-.018.615-.053.012 0 .024-.006.035-.018v-.685ZM32.853 36.105h-.632v-.545h1.318v1.634c-.234.07-.474.106-.72.106a6.211 6.211 0 0 1-.739.035c-.996-.047-1.506-.598-1.53-1.652.024-1.055.534-1.623 1.53-1.705 1.008 0 1.512.351 1.512 1.054h-.739c0-.363-.216-.544-.65-.544-.61.023-.914.421-.914 1.195 0 .773.305 1.166.914 1.178.176 0 .381-.018.615-.053.012 0 .024-.006.035-.018v-.685ZM34.857 34.048V37.3h-.703v-3.252h.703ZM38.355 37.3h-1.002l-1.265-2.707-.018.017v2.69h-.65v-3.252h1.037l1.23 2.566.018-.017v-2.549h.65V37.3ZM41.098 36.105h-.633v-.545h1.318v1.634c-.234.07-.474.106-.72.106a6.211 6.211 0 0 1-.739.035c-.996-.047-1.506-.598-1.53-1.652.024-1.055.534-1.623 1.53-1.705 1.008 0 1.512.351 1.512 1.054h-.738c0-.363-.217-.544-.65-.544-.61.023-.915.421-.915 1.195 0 .773.305 1.166.914 1.178.176 0 .381-.018.615-.053.012 0 .024-.006.036-.018v-.685Z" fill="#fff"/><path fill-rule="evenodd" clip-rule="evenodd" d="m24.24 33.3-.79-3.252h.72l.492 2.443.633-2.443h.79l.563 2.443h.018l.527-2.443h.65l-.825 3.252h-.774l-.58-2.478-.633 2.478h-.79Zm1.403-.375-.127.499a.5.5 0 0 1-.03.084c.12.019.238.045.35.08a.5.5 0 0 1-.079-.174l-.114-.489Zm.65.875a1.722 1.722 0 0 1 .58.615 1.818 1.818 0 0 1 .782-.71.498.498 0 0 1-.172-.223.5.5 0 0 1-.465.318h-.725Zm1.513-1.573.85-2.35a.5.5 0 0 1 .471-.329h.826a.5.5 0 0 1 .472.334l.26.739-.001-.028v-.545a.5.5 0 0 1 .5-.5h2.636c.056 0 .109.009.158.026a.499.499 0 0 1 .159-.026h2.18c.104 0 .2.032.28.087a.498.498 0 0 1 .282-.087h1.404c.418.014.815.1 1.12.329.33.247.48.607.49 1.004v.025a1.304 1.304 0 0 1-.294.823l-.005.005a1.719 1.719 0 0 1 .21.658c.01.034.015.07.017.105.011.184.03.319.05.41.014.061.026.088.028.095a.5.5 0 0 1 .045.524 3.02 3.02 0 0 1 .38-.048c.547 0 1.046.092 1.42.353.407.284.592.714.592 1.201a.498.498 0 0 1-.104.306.499.499 0 0 1 .051.222v1.634a.5.5 0 0 1-.356.48c-.271.08-.55.123-.833.126a6.889 6.889 0 0 1-.793.035c-.57-.027-1.077-.2-1.446-.58v.045a.5.5 0 0 1-.5.5h-1.002a.5.5 0 0 1-.452-.288l-.33-.707v.495a.5.5 0 0 1-.5.5h-.651a.497.497 0 0 1-.281-.087.497.497 0 0 1-.282.087h-.703a.499.499 0 0 1-.373-.168.495.495 0 0 1-.098.041c-.272.082-.55.124-.833.127a6.886 6.886 0 0 1-.793.035c-.585-.028-1.103-.209-1.473-.608a1.759 1.759 0 0 1-.043-.048v.015a.5.5 0 0 1-.356.48c-.272.08-.55.123-.833.126a6.889 6.889 0 0 1-.794.035c-.584-.028-1.102-.209-1.472-.608a1.749 1.749 0 0 1-.218-.292 1.765 1.765 0 0 1-.232.311c-.377.402-.9.575-1.488.589h-.023c-.515-.012-.981-.141-1.344-.435a.5.5 0 0 1-.49.4h-2.092a.5.5 0 0 1-.5-.5v-3.252a.5.5 0 0 1 .5-.5h.686a.5.5 0 0 1 .5.5v2.207h.746a3.226 3.226 0 0 1-.059-.583c.014-.62.169-1.174.54-1.58.126-.136.268-.247.423-.336a.5.5 0 0 1-.28-.338l-.792-3.252a.5.5 0 0 1 .486-.618h.72a.5.5 0 0 1 .491.401l.063.313.088-.34a.5.5 0 0 1 .484-.374h.79a.5.5 0 0 1 .488.388l.069.298.063-.292a.5.5 0 0 1 .488-.394h.65a.5.5 0 0 1 .485.623l-.522 2.056Zm-4.077 4.287a1.253 1.253 0 0 0 .848.741 2.185 2.185 0 0 0 .57.08c.178-.005.34-.027.488-.066.513-.135.838-.476.975-1.024.042-.166.066-.35.073-.554v-.016a2.8 2.8 0 0 0-.071-.562c-.177-.728-.668-1.107-1.475-1.135-1.02.035-1.541.603-1.565 1.705.007.325.06.602.157.831Zm1.021.27a.818.818 0 0 0 .376.077h.022a.805.805 0 0 0 .327-.067c.314-.142.47-.512.47-1.111 0-.797-.27-1.196-.808-1.196-.563 0-.838.399-.826 1.196-.01.586.138.953.44 1.102Zm-2.865-.029v-2.707h-.686V37.3h2.092v-.545h-1.406Zm5.238-.51c.15.603.542.957 1.174 1.06.09.016.185.025.285.03h.124c.248-.003.453-.015.614-.035a2.582 2.582 0 0 0 .721-.105V35.56h-1.318v.545h.633v.685a.081.081 0 0 1-.012.01.042.042 0 0 1-.024.008l-.06.009c-.21.029-.394.044-.555.044a1.295 1.295 0 0 1-.123-.008 1.015 1.015 0 0 1-.179-.037c-.408-.122-.612-.5-.612-1.133 0-.774.305-1.172.914-1.196.434 0 .65.182.65.545h.739c0-.193-.038-.36-.114-.5-.201-.37-.667-.554-1.398-.554-.8.066-1.285.444-1.458 1.137a2.572 2.572 0 0 0-.071.556v.024c.005.202.028.385.07.55Zm1.592-1.258c-.184.01-.257.066-.298.12a.442.442 0 0 0-.06.11.499.499 0 0 1 .366-.157h.133a.499.499 0 0 1-.002-.057.562.562 0 0 0-.14-.016Zm1.717-.669a1.337 1.337 0 0 0-.43-.487c-.259-.18-.577-.28-.93-.325a.515.515 0 0 0 .016-.037l.127-.355h.58l.127.355a.5.5 0 0 0 .47.331h.585a1.788 1.788 0 0 0-.545.518Zm1.085-.748c.06-.017.123-.032.187-.044a.498.498 0 0 1-.054-.226v-2.207h-.466a.5.5 0 0 1-.407-.21l.79 2.251a.5.5 0 0 1-.05.436Zm1.678.095c.109.046.21.1.305.166.058.041.112.085.162.131a.5.5 0 0 1 .152-.28.499.499 0 0 1-.177-.382v-2.207h-.284V33.3c0 .144-.06.274-.158.365Zm-.342-3.072h.967v-.545h-2.636v.545h.966V33.3h.703v-2.707Zm1.284 2.707h2.232v-.545h-1.53v-.861h1.372v-.545H34.84v-.756h1.476v-.545h-2.18V33.3Zm2.754.5.017.032.297.62v-.404c0-.09.024-.175.066-.248h-.38Zm1.125-.252h.292a.499.499 0 0 1-.05-.127 4.775 4.775 0 0 1-.136-.922h-.04v.801c0 .09-.024.175-.066.248Zm-.434-1.549h.742c.103.002.18.059.232.172.03.065.05.148.063.25.012.305.053.598.123.879h.756c-.07-.088-.12-.255-.151-.5a4.076 4.076 0 0 1-.025-.273.33.33 0 0 1-.017-.106 1.313 1.313 0 0 0-.112-.378.584.584 0 0 0-.464-.342h-.004v-.018h.002l.06-.017c.063-.018.12-.04.172-.065a.75.75 0 0 0 .288-.234.829.829 0 0 0 .146-.475c-.012-.54-.387-.82-1.125-.844h-1.39V33.3h.704V32Zm1.036-.805a.625.625 0 0 0 .036-.197c-.011-.27-.176-.404-.492-.404h-.58v.861h.58a.81.81 0 0 0 .123-.008c.16-.025.27-.103.325-.233a.37.37 0 0 0 .008-.019Zm.172 2.606a.498.498 0 0 1 .066.248v.048c.11-.116.232-.214.365-.296h-.431Zm.066 1.358c-.037.159-.057.334-.061.525.004.19.024.365.06.523.144.627.538.993 1.184 1.1.09.015.185.024.285.03l.114-.001h.01c.248-.003.453-.015.614-.035l.074-.001.03-.001c.21-.009.416-.043.617-.104V35.56h-1.318v.545h.633v.685a.076.076 0 0 1-.012.01.042.042 0 0 1-.023.008l-.06.009c-.21.029-.395.044-.556.044a1.295 1.295 0 0 1-.123-.008 1.015 1.015 0 0 1-.178-.037c-.409-.122-.613-.5-.613-1.133 0-.774.305-1.172.914-1.196.434 0 .65.182.65.545h.739c0-.193-.038-.36-.114-.5-.201-.37-.667-.554-1.398-.554-.816.067-1.305.46-1.468 1.18Zm1.6-.17c-.183.008-.256.065-.297.12a.442.442 0 0 0-.06.11.499.499 0 0 1 .366-.158h.133a.499.499 0 0 1-.002-.057.562.562 0 0 0-.14-.016Zm-2.1-.94h-.65v2.549l-.019.017-1.23-2.566H35.42V37.3h.65v-2.69l.018-.017 1.265 2.707h1.002v-3.252Zm-6.002 1.012a.498.498 0 0 1-.002-.057.562.562 0 0 0-.14-.016c-.183.01-.256.066-.297.12a.438.438 0 0 0-.06.11.499.499 0 0 1 .366-.157h.133Zm-.453 1.756c-.408-.122-.612-.5-.612-1.133 0-.774.305-1.172.914-1.196.434 0 .65.182.65.545h.739c0-.193-.038-.36-.114-.5-.201-.37-.667-.554-1.398-.554-.996.082-1.506.65-1.53 1.705.022.949.436 1.49 1.245 1.623.09.015.185.024.285.03l.114-.001h.01c.248-.003.453-.015.614-.035l.074-.001.03-.001c.21-.009.416-.043.617-.104V35.56h-1.318v.545h.633v.685a.076.076 0 0 1-.012.01.042.042 0 0 1-.024.008l-.06.009c-.21.029-.394.044-.555.044a1.296 1.296 0 0 1-.123-.008 1.017 1.017 0 0 1-.179-.037Zm-1.755-4.202.247.686h.703l-1.143-3.252h-.826L27.949 33.3h.668l.246-.686h1.284Zm-.175-.544h-.932l.475-1.39h.017l.44 1.39Zm-4.834 4.29c.13 0 .166-.036.194-.077.051-.075.114-.25.114-.6 0-.358-.063-.538-.116-.617-.03-.043-.065-.079-.192-.079-.148 0-.19.043-.217.084-.052.074-.115.249-.11.604v.015c-.005.357.059.528.108.598.024.034.06.076.208.073h.01Zm9.72-2.312h-.703V37.3h.703v-3.252Z" fill="#505050"/><defs><clipPath id="a"><path fill="#fff" d="M0 0h48v40H0z"/></clipPath></defs></svg>