<svg width="48" height="40" fill="none" xmlns="http://www.w3.org/2000/svg"><g clip-path="url(#a)"><path fill-rule="evenodd" clip-rule="evenodd" d="M0 38a2 2 0 0 0 2 2h44a2 2 0 0 0 2-2V2A2 2 0 0 0 46.15.005L46 0H2l-.15.005A2 2 0 0 0 0 2v36ZM27 2H2v25h25V2ZM2 29v9h13v-9H2Zm15 9h29v-9H17v9Zm29-11V2H29v25h17Z" fill="#505050"/></g><path fill="#F29D38" d="M2 29h13v9H2z"/><path d="M7.352 36.574v-3.718h.164v-.794h-.164v-.246h.218v-.765h-.218v-.656h-.903v.656H5.33v.793h1.093v.218H5.52l-.11 3.5c0 .092-.036.128-.11.11v.656h.384c.346 0 .52-.182.52-.547l.109-2.925h.109v3.718h.93Zm1.175-3.527c.638.073.957-.237.957-.93l.11-1.668h-1.86v.684h.93l-.027.328h-.219c-.091.018-.128-.018-.11-.11h-.574v.247c0 .328.137.501.41.52h.438l-.027.081c-.019.128-.073.183-.164.164h-.63v.684h.766Zm2.98-.684v.657h-.984a1.141 1.141 0 0 1-.109.003c-.384-.005-.585-.225-.601-.66l-.137-1.914h1.86v.766h-.848l.054.273h.137c.091.018.137-.018.137-.11h.546l-.027.329c-.018.31-.155.438-.41.383h-.355l.027.11c-.018.127.045.181.191.163h.52Zm.028 1.504v-.656H7.652v.656h3.883Zm0 2.078v.547H7.543v-.547h.574l-.082-.3H7.68v-1.56h3.855v1.013c.018.4-.146.583-.492.547l-.055.3h.547Zm-1.039-.957a.133.133 0 0 0 .04.005c.046-.003.07-.041.07-.114v-.11H8.554v.22h1.941Zm-1.45.957h1.04v-.3h-1.04v.3Z" fill="#505050" stroke="#505050"/><path d="M7.352 36.574v-3.718h.164v-.794h-.164v-.246h.218v-.765h-.218v-.656h-.903v.656H5.33v.793h1.093v.218H5.52l-.11 3.5c0 .092-.036.128-.11.11v.656h.384c.346 0 .52-.182.52-.547l.109-2.925h.109v3.718h.93Zm1.175-3.527c.638.073.957-.237.957-.93l.11-1.668h-1.86v.684h.93l-.027.328h-.219c-.091.018-.128-.018-.11-.11h-.574v.247c0 .328.137.501.41.52h.438l-.027.081c-.019.128-.073.183-.164.164h-.63v.684h.766Zm2.98-.684v.657h-.984a1.141 1.141 0 0 1-.109.003c-.384-.005-.585-.225-.601-.66l-.137-1.914h1.86v.766h-.848l.054.273h.137c.091.018.137-.018.137-.11h.546l-.027.329c-.018.31-.155.438-.41.383h-.355l.027.11c-.018.127.045.181.191.163h.52Zm.028 1.504v-.656H7.652v.656h3.883Zm0 2.078v.547H7.543v-.547h.574l-.082-.3H7.68v-1.56h3.855v1.013c.018.4-.146.583-.492.547l-.055.3h.547Zm-1.039-.957a.133.133 0 0 0 .04.005c.046-.003.07-.041.07-.114v-.11H8.554v.22h1.941Zm-1.45.957h1.04v-.3h-1.04v.3Z" fill="#fff"/><path fill="#CCC" d="M2 2h25v25H2z"/><path fill-rule="evenodd" clip-rule="evenodd" d="M25 14.173c0 .27-.014.536-.042.798-.401-3.94-3.609-7.01-7.505-7.01h-.004c2.516 1.175 4.27 3.807 4.27 6.866 0 2.275-.97 4.313-2.502 5.692C17.607 22.05 15.353 23 12.859 23 7.966 23 4 19.34 4 14.827c0-.27.014-.536.042-.798.357 3.503 2.933 6.319 6.238 6.9-1.816-1.366-2.999-3.59-2.999-6.102 0-.11.003-.22.007-.33a7.668 7.668 0 0 1-.007-.324C7.281 9.66 11.248 6 16.141 6 21.034 6 25 9.66 25 14.173Zm-8 .327a2.5 2.5 0 1 1-5 0 2.5 2.5 0 0 1 5 0Z" fill="#F29D38"/><path fill="#F29D38" d="M29 2h17v25H29z"/><path fill-rule="evenodd" clip-rule="evenodd" d="M40.898 7.742c.756.104 1.094-.247 1.016-1.054V5.125h-1.367v1.094c0 .26-.078.364-.234.312h-5.43l1.758-2.46h-1.68l-1.758 2.382v1.29h7.695Zm-.351 5.274c.937.078 1.38-.326 1.328-1.211V8.328h-8.633v4.688h7.305Zm-5.899-1.172h5.508c.03.003.057.004.083.002.18-.011.269-.142.269-.393V9.54h-5.86v2.305Zm-.273 13.015c.26.026.43-.078.508-.312h1.406c.339 0 .586-.17.742-.508l.625-1.094.703 1.25c.078.235.274.352.586.352h1.524a.528.528 0 0 0 .508.312h1.171v-.976c-.208-.052-.299-.156-.273-.313v-7.617h-8.398v7.54c.026.208-.079.299-.313.273v1.093h1.211Zm.586-1.406h.586c.182.026.286-.026.312-.156l1.016-1.797L35 17.867h1.563l1.132 2.188 1.133-2.188h1.445l-1.836 3.594.938 1.719c.078.208.195.3.352.273h.625v-6.289H34.96v6.29Z" fill="#fff" stroke="#505050"/><path fill-rule="evenodd" clip-rule="evenodd" d="M40.898 7.742c.756.104 1.094-.247 1.016-1.054V5.125h-1.367v1.094c0 .26-.078.364-.234.312h-5.43l1.758-2.46h-1.68l-1.758 2.382v1.29h7.695Zm-.351 5.274c.937.078 1.38-.326 1.328-1.211V8.328h-8.633v4.688h7.305Zm-5.899-1.172h5.508c.03.003.057.004.083.002.18-.011.269-.142.269-.393V9.54h-5.86v2.305Zm-.273 13.015c.26.026.43-.078.508-.312h1.406c.339 0 .586-.17.742-.508l.625-1.094.703 1.25c.078.235.274.352.586.352h1.524a.528.528 0 0 0 .508.312h1.171v-.976c-.208-.052-.299-.156-.273-.313v-7.617h-8.398v7.54c.026.208-.079.299-.313.273v1.093h1.211Zm.586-1.406h.586c.182.026.286-.026.312-.156l1.016-1.797L35 17.867h1.563l1.132 2.188 1.133-2.188h1.445l-1.836 3.594.938 1.719c.078.208.195.3.352.273h.625v-6.289H34.96v6.29Z" fill="#fff"/><path fill="#F29D38" d="M17 29h29v9H17z"/><path fill-rule="evenodd" clip-rule="evenodd" d="M35.846 33.203c-.04 1.198-.612 1.81-1.719 1.836-1.133-.026-1.712-.638-1.738-1.836.026-1.224.605-1.855 1.738-1.894 1.107.039 1.68.67 1.719 1.894ZM26.627 35v-1.387h.566c.808-.039 1.224-.41 1.25-1.113 0-.755-.488-1.126-1.465-1.113h-1.113V35h.762Zm-5.547-3.008V35H20.3v-3.008h-1.074v-.605h2.93v.605H21.08Zm3.184 1.836V35h-.762v-1.172l-1.23-2.441h.918l.742 1.66.761-1.66h.782l-1.211 2.441Zm2.363-.82c.039 0 .117.006.234.02.521.051.775-.124.762-.528 0-.352-.254-.52-.762-.508a.665.665 0 0 1-.234 0v1.016ZM29.693 35v-1.582h1.387V35h.762v-3.613h-.781v1.425h-1.368v-1.425h-.761V35h.761Zm4.434-.488c-.625.013-.931-.423-.918-1.309-.013-.885.293-1.328.918-1.328.599 0 .898.443.898 1.328 0 .872-.3 1.309-.898 1.309Zm5.605-1.309c-.039 1.198-.612 1.81-1.718 1.836-1.133-.026-1.713-.638-1.739-1.836.026-1.224.606-1.855 1.739-1.894 1.106.039 1.68.67 1.718 1.894Zm-1.718 1.309c-.625.013-.931-.423-.918-1.309-.013-.885.293-1.328.918-1.328.599 0 .898.443.898 1.328 0 .872-.3 1.309-.898 1.309Zm2.988-2.5V35h-.723v-3.613h1.153l1.367 2.851.02-.02v-2.831h.722V35h-1.113l-1.406-3.008-.02.02Z" fill="#fff" stroke="#505050"/><path fill-rule="evenodd" clip-rule="evenodd" d="M35.846 33.203c-.04 1.198-.612 1.81-1.719 1.836-1.133-.026-1.712-.638-1.738-1.836.026-1.224.605-1.855 1.738-1.894 1.107.039 1.68.67 1.719 1.894ZM26.627 35v-1.387h.566c.808-.039 1.224-.41 1.25-1.113 0-.755-.488-1.126-1.465-1.113h-1.113V35h.762Zm-5.547-3.008V35H20.3v-3.008h-1.074v-.605h2.93v.605H21.08Zm3.184 1.836V35h-.762v-1.172l-1.23-2.441h.918l.742 1.66.761-1.66h.782l-1.211 2.441Zm2.363-.82c.039 0 .117.006.234.02.521.051.775-.124.762-.528 0-.352-.254-.52-.762-.508a.665.665 0 0 1-.234 0v1.016ZM29.693 35v-1.582h1.387V35h.762v-3.613h-.781v1.425h-1.368v-1.425h-.761V35h.761Zm4.434-.488c-.625.013-.931-.423-.918-1.309-.013-.885.293-1.328.918-1.328.599 0 .898.443.898 1.328 0 .872-.3 1.309-.898 1.309Zm5.605-1.309c-.039 1.198-.612 1.81-1.718 1.836-1.133-.026-1.713-.638-1.739-1.836.026-1.224.606-1.855 1.739-1.894 1.106.039 1.68.67 1.718 1.894Zm-1.718 1.309c-.625.013-.931-.423-.918-1.309-.013-.885.293-1.328.918-1.328.599 0 .898.443.898 1.328 0 .872-.3 1.309-.898 1.309Zm2.988-2.5V35h-.723v-3.613h1.153l1.367 2.851.02-.02v-2.831h.722V35h-1.113l-1.406-3.008-.02.02Z" fill="#fff"/><defs><clipPath id="a"><path fill="#fff" d="M0 0h48v40H0z"/></clipPath></defs></svg>