<svg width="48" height="40" fill="none" xmlns="http://www.w3.org/2000/svg"><g clip-path="url(#a)"><path fill-rule="evenodd" clip-rule="evenodd" d="M0 38a2 2 0 0 0 2 2h44a2 2 0 0 0 2-2V2A2 2 0 0 0 46.15.005L46 0H2l-.15.005A2 2 0 0 0 0 2v36ZM27 2H2v25h25V2ZM2 29v9h13v-9H2Zm15 9h29v-9H17v9Zm29-11V2H29v25h17Z" fill="#505050"/></g><path fill="#3A6AF6" d="M2 29h13v9H2z"/><path fill-rule="evenodd" clip-rule="evenodd" d="M11.563 31.516v-.793h-.63l.11-.328H9.84l-.11.328H7.215l-.137-.328H5.875l.11.328h-.63v.793h6.207ZM9.183 32.8c.128.018.228-.046.301-.192l.082-.164h1.996v-.683H9.758l.027-.082h-.93l-.136.273c-.055.128-.146.182-.274.164h-.41v.684h1.149Zm-2.761-1.012v2.023h-.93V31.79h.93Zm1.367 2.023V31.79h-.848v2.023h.848Zm3.774 0H9.02c-.347.019-.547-.063-.602-.246l-.355-.656h1.093l.082.11c.019.109.1.154.246.136h2.079v.657Zm0 2.817v-.738h-.247v-1.832H5.52v1.832h-.192v.738h6.234Zm-5.141-.738h.793v-1.04h-.793v1.04Zm1.613 0v-1.04h.766v1.04h-.766Zm1.64 0h.794v-1.04h-.793v1.04Z" fill="#fff" stroke="#505050"/><path fill-rule="evenodd" clip-rule="evenodd" d="M11.563 31.516v-.793h-.63l.11-.328H9.84l-.11.328H7.215l-.137-.328H5.875l.11.328h-.63v.793h6.207ZM9.183 32.8c.128.018.228-.046.301-.192l.082-.164h1.996v-.683H9.758l.027-.082h-.93l-.136.273c-.055.128-.146.182-.274.164h-.41v.684h1.149Zm-2.761-1.012v2.023h-.93V31.79h.93Zm1.367 2.023V31.79h-.848v2.023h.848Zm3.774 0H9.02c-.347.019-.547-.063-.602-.246l-.355-.656h1.093l.082.11c.019.109.1.154.246.136h2.079v.657Zm0 2.817v-.738h-.247v-1.832H5.52v1.832h-.192v.738h6.234Zm-5.141-.738h.793v-1.04h-.793v1.04Zm1.613 0v-1.04h.766v1.04h-.766Zm1.64 0h.794v-1.04h-.793v1.04Z" fill="#fff"/><path fill="#CCC" d="M2 2h25v25H2z"/><path fill-rule="evenodd" clip-rule="evenodd" d="M9.282 8.837 3 22.52l12.581.208-6.3-13.891ZM11.413 10.207l5.168 11.02h9.568l-2.568-6.402-.745.522-2.963-7.151-1.84 4.46-3.92-8.156-2.7 5.707Z" fill="#3A6AF6"/><path fill-rule="evenodd" clip-rule="evenodd" d="m18.781 5.456-7.816 10.066 4.616.691-5.392 8.097 9.23-9.821-4.615-.5 3.977-8.533Z" fill="#fff" stroke="#505050" stroke-width=".2"/><path fill="#3A6AF6" d="M29 2h17v25H29z"/><path fill-rule="evenodd" clip-rule="evenodd" d="M38.512 13.574c.383.037.565-.164.547-.601V9.664h2.023v.465h-1.695v2.078h.875v-1.313h2.816v1.34h.875V10.13h-1.969v-.465h2.078v-.766h-2.078v-.464h1.532c.382.036.565-.155.547-.575v-.52h-.876v.11c0 .091-.036.128-.109.11h-4.894v5.058c0 .146-.055.21-.164.192h-.192v.765h.684Zm-5.25 0v-.793h-.63v-3.91h.712v3.856c-.037.565.218.838.765.82h3.145v-.793h-2.762c-.146.018-.21-.046-.191-.191V8.788l.547-.027v3.636h.957V8.734l.52-.027v2.543c0 .164-.065.237-.192.219h-.192v.847h.41c.62.037.921-.218.903-.765V7.887l-1.45.082v-.602h-.984v.656l-.52.028v-.574h-.956v.628h-.711v-.71H31.62v.71h-.601v.793h.601v3.883h-.601v.793h2.242Zm5.797-4.676h2.023v-.464h-2.023v.464Zm1.312 4.676c.164 0 .337-.064.52-.191l.738-.492.848.492c.164.11.328.164.492.164h1.011v-.684h-.656c-.09.019-.191-.018-.3-.11l-.985-.655v-.903h-.93v.93l-.683.52c-.146.145-.274.2-.383.164h-.684v.765h1.012Zm-8.367 3.75v.63h-.93v-1.45h2.406v-.192h1.313v.192h2.352v1.45h-.876v-.63h-4.265Zm.383 5.223c.364 0 .601-.091.71-.274l.985-1.476 1.23 1.476c.128.165.31.247.547.247h1.34v-.793h-1.011c-.128 0-.201-.028-.22-.082l-1.476-1.75V17.87h-.93v2.024l-1.175 1.777c-.073.055-.183.082-.328.082h-.985v.793h1.313Zm4.293-2.735c-.078.188-.197.288-.355.302h-1.013v-.794h.52c.055 0 .11-.036.164-.11l.356-.901h.875l-.547 1.503Zm-4.758.301h.93v-.793h-.493c-.09.018-.155-.018-.191-.11l-.273-.847h-.875l.437 1.45c.055.218.21.319.465.3Zm7.027-2.789v.301h-.984v-1.04h2.57v-.245h1.04v.246h2.487v1.039h-.984v-.3H38.95Zm4.403 5.25c.437 0 .656-.21.656-.629v-1.12h-2.434v-.302h2.543v-.738h-2.543v-.273h2.434v-.739h-2.434v-.246h2.434v-.738h-2.434v-.3h-1.066v.3h-2.434v.738h2.434v.246h-2.406v.739h2.406v.273h-2.543v.738h2.543v.301h-2.434v1.75h5.278Zm-4.266-.71h3.828c.036 0 .064-.028.082-.083v-.191h-3.91v.273Z" fill="#fff" stroke="#505050"/><path fill-rule="evenodd" clip-rule="evenodd" d="M38.512 13.574c.383.037.565-.164.547-.601V9.664h2.023v.465h-1.695v2.078h.875v-1.313h2.816v1.34h.875V10.13h-1.969v-.465h2.078v-.766h-2.078v-.464h1.532c.382.036.565-.155.547-.575v-.52h-.876v.11c0 .091-.036.128-.109.11h-4.894v5.058c0 .146-.055.21-.164.192h-.192v.765h.684Zm-5.25 0v-.793h-.63v-3.91h.712v3.856c-.037.565.218.838.765.82h3.145v-.793h-2.762c-.146.018-.21-.046-.191-.191V8.788l.547-.027v3.636h.957V8.734l.52-.027v2.543c0 .164-.065.237-.192.219h-.192v.847h.41c.62.037.921-.218.903-.765V7.887l-1.45.082v-.602h-.984v.656l-.52.028v-.574h-.956v.628h-.711v-.71H31.62v.71h-.601v.793h.601v3.883h-.601v.793h2.242Zm5.797-4.676h2.023v-.464h-2.023v.464Zm1.312 4.676c.164 0 .337-.064.52-.191l.738-.492.848.492c.164.11.328.164.492.164h1.011v-.684h-.656c-.09.019-.191-.018-.3-.11l-.985-.655v-.903h-.93v.93l-.683.52c-.146.145-.274.2-.383.164h-.684v.765h1.012Zm-8.367 3.75v.63h-.93v-1.45h2.406v-.192h1.313v.192h2.352v1.45h-.876v-.63h-4.265Zm.383 5.223c.364 0 .601-.091.71-.274l.985-1.476 1.23 1.476c.128.165.31.247.547.247h1.34v-.793h-1.011c-.128 0-.201-.028-.22-.082l-1.476-1.75V17.87h-.93v2.024l-1.175 1.777c-.073.055-.183.082-.328.082h-.985v.793h1.313Zm4.293-2.735c-.078.188-.197.288-.355.302h-1.013v-.794h.52c.055 0 .11-.036.164-.11l.356-.901h.875l-.547 1.503Zm-4.758.301h.93v-.793h-.493c-.09.018-.155-.018-.191-.11l-.273-.847h-.875l.437 1.45c.055.218.21.319.465.3Zm7.027-2.789v.301h-.984v-1.04h2.57v-.245h1.04v.246h2.487v1.039h-.984v-.3H38.95Zm4.403 5.25c.437 0 .656-.21.656-.629v-1.12h-2.434v-.302h2.543v-.738h-2.543v-.273h2.434v-.739h-2.434v-.246h2.434v-.738h-2.434v-.3h-1.066v.3h-2.434v.738h2.434v.246h-2.406v.739h2.406v.273h-2.543v.738h2.543v.301h-2.434v1.75h5.278Zm-4.266-.71h3.828c.036 0 .064-.028.082-.083v-.191h-3.91v.273Z" fill="#fff"/><path fill="#3A6AF6" d="M17 29h29v9H17z"/><path fill-rule="evenodd" clip-rule="evenodd" d="M20.04 33.031c.27 0 .489-.01.655-.031.22 0 .433-.031.64-.094v-1.453h-1.17v.485h.562v.609c-.01.01-.021.016-.032.016a3.74 3.74 0 0 1-.547.046c-.541-.01-.812-.359-.812-1.047 0-.687.27-1.041.812-1.062.386 0 .579.162.579.484h.656c0-.625-.448-.937-1.344-.937-.885.073-1.338.578-1.36 1.515.022.938.475 1.428 1.36 1.47ZM23.851 33v-.484h-1.36v-.766h1.219v-.484h-1.219v-.672h1.313v-.485h-1.938V33h1.985Zm3.156-1.438c-.031.959-.49 1.448-1.375 1.47-.906-.022-1.37-.511-1.39-1.47.02-.979.484-1.484 1.39-1.515.885.031 1.344.536 1.375 1.515Zm-1.375 1.047c-.5.01-.745-.338-.735-1.047-.01-.708.235-1.062.735-1.062.479 0 .719.354.719 1.063 0 .697-.24 1.046-.72 1.046Zm3.687-.093V33h-1.86v-2.89h.61v2.406h1.25Zm1.64.515c.886-.02 1.345-.51 1.376-1.468-.031-.98-.49-1.485-1.375-1.516-.906.031-1.37.536-1.39 1.515.02.959.484 1.448 1.39 1.47Zm-.733-1.468c-.01.708.234 1.057.734 1.046.48 0 .719-.349.719-1.047 0-.708-.24-1.062-.72-1.062-.5 0-.744.354-.733 1.063Zm3.796 1.468c.271 0 .49-.01.657-.031.218 0 .432-.031.64-.094v-1.453h-1.172v.485h.563v.609c-.01.01-.02.016-.031.016a3.74 3.74 0 0 1-.547.046c-.542-.01-.813-.359-.813-1.047 0-.687.271-1.041.813-1.062.385 0 .578.162.578.484h.656c0-.625-.448-.937-1.344-.937-.885.073-1.338.578-1.359 1.515.02.938.474 1.428 1.36 1.47Zm2.47-2.922V33h-.626v-2.89h.625Zm1.577 2.922c.771-.01 1.177-.333 1.22-.968h-.657c-.021.354-.209.536-.563.546-.343-.01-.526-.359-.547-1.047.021-.687.204-1.041.547-1.062.355.02.542.203.563.547h.656c-.042-.646-.448-.98-1.219-1-.78.031-1.182.536-1.203 1.515.021.959.422 1.448 1.203 1.47Zm2.172-.64-.219.609h-.593l1.047-2.89h.734L42.227 33h-.625l-.22-.61h-1.14Zm.985-.485h-.829l.422-1.234h.016l.39 1.234Zm3.171.61V33H42.54v-2.89h.61v2.406h1.25ZM25.422 37v-1.266h1.11V37h.609v-2.89h-.625v1.14h-1.094v-1.14h-.61V37h.61Zm2.844-.61-.22.61h-.593l1.047-2.89h.734L30.25 37h-.625l-.219-.61h-1.14Zm.984-.484h-.828l.422-1.234h.015l.391 1.234Zm3.36.61V37h-2.22v-.484l1.438-1.922h-1.344v-.485h2.094v.485l-1.422 1.922h1.453Zm.75.484.218-.61h1.14l.22.61h.624l-1.015-2.89h-.734L32.766 37h.593Zm.796-2.328-.422 1.234h.828l-.39-1.234h-.016ZM36.844 37c.958 0 1.442-.48 1.453-1.438-.01-.958-.495-1.442-1.453-1.453h-.985V37h.985Zm-.375-.484h.328c.573.02.854-.297.844-.953.01-.657-.271-.98-.844-.97h-.328v1.923Z" fill="#fff" stroke="#505050"/><path fill-rule="evenodd" clip-rule="evenodd" d="M20.04 33.031c.27 0 .489-.01.655-.031.22 0 .433-.031.64-.094v-1.453h-1.17v.485h.562v.609c-.01.01-.021.016-.032.016a3.74 3.74 0 0 1-.547.046c-.541-.01-.812-.359-.812-1.047 0-.687.27-1.041.812-1.062.386 0 .579.162.579.484h.656c0-.625-.448-.937-1.344-.937-.885.073-1.338.578-1.36 1.515.022.938.475 1.428 1.36 1.47ZM23.851 33v-.484h-1.36v-.766h1.219v-.484h-1.219v-.672h1.313v-.485h-1.938V33h1.985Zm3.156-1.438c-.031.959-.49 1.448-1.375 1.47-.906-.022-1.37-.511-1.39-1.47.02-.979.484-1.484 1.39-1.515.885.031 1.344.536 1.375 1.515Zm-1.375 1.047c-.5.01-.745-.338-.735-1.047-.01-.708.235-1.062.735-1.062.479 0 .719.354.719 1.063 0 .697-.24 1.046-.72 1.046Zm3.687-.093V33h-1.86v-2.89h.61v2.406h1.25Zm1.64.515c.886-.02 1.345-.51 1.376-1.468-.031-.98-.49-1.485-1.375-1.516-.906.031-1.37.536-1.39 1.515.02.959.484 1.448 1.39 1.47Zm-.733-1.468c-.01.708.234 1.057.734 1.046.48 0 .719-.349.719-1.047 0-.708-.24-1.062-.72-1.062-.5 0-.744.354-.733 1.063Zm3.796 1.468c.271 0 .49-.01.657-.031.218 0 .432-.031.64-.094v-1.453h-1.172v.485h.563v.609c-.01.01-.02.016-.031.016a3.74 3.74 0 0 1-.547.046c-.542-.01-.813-.359-.813-1.047 0-.687.271-1.041.813-1.062.385 0 .578.162.578.484h.656c0-.625-.448-.937-1.344-.937-.885.073-1.338.578-1.359 1.515.02.938.474 1.428 1.36 1.47Zm2.47-2.922V33h-.626v-2.89h.625Zm1.577 2.922c.771-.01 1.177-.333 1.22-.968h-.657c-.021.354-.209.536-.563.546-.343-.01-.526-.359-.547-1.047.021-.687.204-1.041.547-1.062.355.02.542.203.563.547h.656c-.042-.646-.448-.98-1.219-1-.78.031-1.182.536-1.203 1.515.021.959.422 1.448 1.203 1.47Zm2.172-.64-.219.609h-.593l1.047-2.89h.734L42.227 33h-.625l-.22-.61h-1.14Zm.985-.485h-.829l.422-1.234h.016l.39 1.234Zm3.171.61V33H42.54v-2.89h.61v2.406h1.25ZM25.422 37v-1.266h1.11V37h.609v-2.89h-.625v1.14h-1.094v-1.14h-.61V37h.61Zm2.844-.61-.22.61h-.593l1.047-2.89h.734L30.25 37h-.625l-.219-.61h-1.14Zm.984-.484h-.828l.422-1.234h.015l.391 1.234Zm3.36.61V37h-2.22v-.484l1.438-1.922h-1.344v-.485h2.094v.485l-1.422 1.922h1.453Zm.75.484.218-.61h1.14l.22.61h.624l-1.015-2.89h-.734L32.766 37h.593Zm.796-2.328-.422 1.234h.828l-.39-1.234h-.016ZM36.844 37c.958 0 1.442-.48 1.453-1.438-.01-.958-.495-1.442-1.453-1.453h-.985V37h.985Zm-.375-.484h.328c.573.02.854-.297.844-.953.01-.657-.271-.98-.844-.97h-.328v1.923Z" fill="#fff"/><defs><clipPath id="a"><path fill="#fff" d="M0 0h48v40H0z"/></clipPath></defs></svg>