<svg width="48" height="40" fill="none" xmlns="http://www.w3.org/2000/svg"><g clip-path="url(#a)"><path fill-rule="evenodd" clip-rule="evenodd" d="M0 38a2 2 0 0 0 2 2h44a2 2 0 0 0 2-2V2A2 2 0 0 0 46.15.005L46 0H2l-.15.005A2 2 0 0 0 0 2v36ZM27 2H2v25h25V2ZM2 29v9h13v-9H2Zm15 9h29v-9H17v9Zm29-11V2H29v25h17Z" fill="#505050"/></g><path fill="#3A6AF6" d="M2 29h13v9H2z"/><path fill-rule="evenodd" clip-rule="evenodd" d="M11.563 31.516v-.793h-.63l.11-.328H9.84l-.11.328H7.215l-.137-.328H5.875l.11.328h-.63v.793h6.207ZM9.183 32.8c.128.018.228-.046.301-.192l.082-.164h1.996v-.683H9.758l.027-.082h-.93l-.136.273c-.055.128-.146.182-.274.164h-.41v.684h1.149Zm-2.761-1.012v2.023h-.93V31.79h.93Zm1.367 2.023V31.79h-.848v2.023h.848Zm3.774 0H9.02c-.347.019-.547-.063-.602-.246l-.355-.656h1.093l.082.11c.019.109.1.154.246.136h2.079v.657Zm0 2.817v-.738h-.247v-1.832H5.52v1.832h-.192v.738h6.234Zm-5.141-.738h.793v-1.04h-.793v1.04Zm1.613 0v-1.04h.766v1.04h-.766Zm1.64 0h.794v-1.04h-.793v1.04Z" fill="#fff" stroke="#505050"/><path fill-rule="evenodd" clip-rule="evenodd" d="M11.563 31.516v-.793h-.63l.11-.328H9.84l-.11.328H7.215l-.137-.328H5.875l.11.328h-.63v.793h6.207ZM9.183 32.8c.128.018.228-.046.301-.192l.082-.164h1.996v-.683H9.758l.027-.082h-.93l-.136.273c-.055.128-.146.182-.274.164h-.41v.684h1.149Zm-2.761-1.012v2.023h-.93V31.79h.93Zm1.367 2.023V31.79h-.848v2.023h.848Zm3.774 0H9.02c-.347.019-.547-.063-.602-.246l-.355-.656h1.093l.082.11c.019.109.1.154.246.136h2.079v.657Zm0 2.817v-.738h-.247v-1.832H5.52v1.832h-.192v.738h6.234Zm-5.141-.738h.793v-1.04h-.793v1.04Zm1.613 0v-1.04h.766v1.04h-.766Zm1.64 0h.794v-1.04h-.793v1.04Z" fill="#fff"/><path fill="#CCC" d="M2 2h25v25H2z"/><path fill-rule="evenodd" clip-rule="evenodd" d="M12.203 4 5 23.772l1.941.726 4.142-11.282 13.197-2.83V8.497L14.19 4.757 12.203 4Zm-.153 6.743 1.41-3.931 6.422 2.359-7.832 1.572Z" fill="#3A6AF6"/><path fill="#3A6AF6" d="M29 2h17v25H29z"/><path fill-rule="evenodd" clip-rule="evenodd" d="M41.953 12.86v-1.25h-.351c-.313.025-.521-.092-.625-.352l-2.461-4.61h3.437v-1.21H38.32V3.952h-1.68v1.485h-3.593v1.21h3.437l-2.382 4.649c-.157.286-.378.403-.664.351h-.391v1.172h.547c.573 0 .937-.052 1.093-.156.209-.052.391-.234.547-.547L37.5 7.86l2.344 4.297c.215.454.626.688 1.235.704.055.002.112.002.171 0h.703Zm-7.578 12c.26.025.43-.079.508-.313h1.406c.339 0 .586-.17.742-.508l.625-1.094.703 1.25c.078.235.274.352.586.352h1.524a.528.528 0 0 0 .508.312h1.171v-.976c-.208-.052-.299-.156-.273-.313v-7.617h-8.398v7.54c.026.208-.079.299-.313.273v1.093h1.211Zm.586-1.407h.586c.182.026.286-.026.312-.156l1.016-1.797L35 17.867h1.563l1.132 2.188 1.133-2.188h1.445l-1.836 3.594.938 1.719c.078.208.195.3.352.273h.625v-6.289H34.96v6.29Z" fill="#fff" stroke="#505050"/><path fill-rule="evenodd" clip-rule="evenodd" d="M41.953 12.86v-1.25h-.351c-.313.025-.521-.092-.625-.352l-2.461-4.61h3.437v-1.21H38.32V3.952h-1.68v1.485h-3.593v1.21h3.437l-2.382 4.649c-.157.286-.378.403-.664.351h-.391v1.172h.547c.573 0 .937-.052 1.093-.156.209-.052.391-.234.547-.547L37.5 7.86l2.344 4.297c.215.454.626.688 1.235.704.055.002.112.002.171 0h.703Zm-7.578 12c.26.025.43-.079.508-.313h1.406c.339 0 .586-.17.742-.508l.625-1.094.703 1.25c.078.235.274.352.586.352h1.524a.528.528 0 0 0 .508.312h1.171v-.976c-.208-.052-.299-.156-.273-.313v-7.617h-8.398v7.54c.026.208-.079.299-.313.273v1.093h1.211Zm.586-1.407h.586c.182.026.286-.026.312-.156l1.016-1.797L35 17.867h1.563l1.132 2.188 1.133-2.188h1.445l-1.836 3.594.938 1.719c.078.208.195.3.352.273h.625v-6.289H34.96v6.29Z" fill="#fff"/><path fill="#3A6AF6" d="M17 29h29v9H17z"/><path fill-rule="evenodd" clip-rule="evenodd" d="M26.744 35.33c.339 0 .612-.012.82-.039.274 0 .54-.039.801-.117v-1.816H26.9v.605h.704v.762c-.014.013-.026.02-.04.02a4.68 4.68 0 0 1-.683.058c-.677-.013-1.016-.45-1.016-1.308 0-.86.339-1.302 1.016-1.329.482 0 .723.202.723.606h.82c0-.781-.56-1.172-1.68-1.172-1.107.091-1.673.723-1.7 1.895.027 1.171.593 1.783 1.7 1.836Zm2.793-.039.274-.761h1.425l.274.761h.781l-1.27-3.613h-.918l-1.308 3.613h.742Zm.469-1.367h1.035l-.488-1.543h-.02l-.527 1.543Zm5 1.367v-.605h-1.563v-3.008h-.761v3.613h2.324Zm2.871-.605v.605h-2.48v-3.613h2.421v.606h-1.64v.84H37.7v.605h-1.523v.957h1.699Z" fill="#fff" stroke="#505050"/><path fill-rule="evenodd" clip-rule="evenodd" d="M26.744 35.33c.339 0 .612-.012.82-.039.274 0 .54-.039.801-.117v-1.816H26.9v.605h.704v.762c-.014.013-.026.02-.04.02a4.68 4.68 0 0 1-.683.058c-.677-.013-1.016-.45-1.016-1.308 0-.86.339-1.302 1.016-1.329.482 0 .723.202.723.606h.82c0-.781-.56-1.172-1.68-1.172-1.107.091-1.673.723-1.7 1.895.027 1.171.593 1.783 1.7 1.836Zm2.793-.039.274-.761h1.425l.274.761h.781l-1.27-3.613h-.918l-1.308 3.613h.742Zm.469-1.367h1.035l-.488-1.543h-.02l-.527 1.543Zm5 1.367v-.605h-1.563v-3.008h-.761v3.613h2.324Zm2.871-.605v.605h-2.48v-3.613h2.421v.606h-1.64v.84H37.7v.605h-1.523v.957h1.699Z" fill="#fff"/><defs><clipPath id="a"><path fill="#fff" d="M0 0h48v40H0z"/></clipPath></defs></svg>