<svg width="48" height="40" fill="none" xmlns="http://www.w3.org/2000/svg"><g clip-path="url(#a)"><path fill-rule="evenodd" clip-rule="evenodd" d="M0 38a2 2 0 0 0 2 2h44a2 2 0 0 0 2-2V2A2 2 0 0 0 46.15.005L46 0H2l-.15.005A2 2 0 0 0 0 2v36ZM27 2H2v25h25V2ZM2 29v9h13v-9H2Zm15 9h29v-9H17v9Zm29-11V2H29v25h17Z" fill="#505050"/></g><path fill="#FFFD54" d="M2 29h13v9H2z"/><path fill-rule="evenodd" clip-rule="evenodd" d="M7.625 36.273a.959.959 0 0 1-.663.329H5.547v-.711h1.121c.11 0 .219-.055.328-.164l.137-.164H5.629v-2.817h2.434v-.328H5.52v-.766h.683v-.328H5.52v-.738h.683v-.273h.957v.273h2.762v-.3h.93v.3h.765v.738h-.765v.328h.793v.766H9.047v.328h2.488v1.914c.091.693-.255.994-1.039.903h-.328l.11.136c0 .018.008.037.027.055.127.091.228.128.3.11h1.04v.683h-1.56c-.29-.037-.482-.11-.573-.219l-.63-.766h-.519l-.738.711Zm-.465-4.62h2.735v-.329H7.16v.328Zm.875 2.132h-1.45v-.3h1.45v.3Zm1.012 0h1.558v-.3H9.047v.3Zm1.504 1.067H9.074v-.329h1.559v.22c0 .072-.027.109-.082.109Zm-3.965 0h1.45v-.329h-1.45v.329Z" fill="#fff" stroke="#505050"/><path fill-rule="evenodd" clip-rule="evenodd" d="M7.545 36.273a.959.959 0 0 1-.662.329H5.467v-.711h1.121c.11 0 .22-.055.329-.164l.136-.164H5.55v-2.817h2.434v-.328H5.44v-.766h.684v-.328H5.44v-.738h.684v-.273h.957v.273h2.761v-.3h.93v.3h.766v.738h-.766v.328h.793v.766H8.967v.328h2.489v1.914c.09.693-.256.994-1.04.903h-.328l.11.136c0 .018.009.037.027.055.128.091.228.128.3.11h1.04v.683h-1.559c-.291-.037-.483-.11-.574-.219l-.629-.766h-.52l-.738.711Zm-.464-4.62h2.734v-.329H7.081v.328Zm.875 2.132h-1.45v-.3h1.45v.3Zm1.011 0h1.559v-.3H8.967v.3Zm1.504 1.067H8.995v-.329h1.558v.22c0 .072-.027.109-.082.109Zm-3.965 0h1.45v-.329h-1.45v.329Z" fill="#fff"/><path fill="#CCC" d="M2 2h25v25H2z"/><path d="M4 8a2 2 0 0 1 2-2h17a2 2 0 1 1 0 4H6a2 2 0 0 1-2-2ZM4 14a2 2 0 0 1 2-2h17a2 2 0 1 1 0 4H6a2 2 0 0 1-2-2ZM6 18a2 2 0 1 0 0 4h17a2 2 0 1 0 0-4H6ZM29 2h17v25H29z" fill="#FFFD54"/><path fill-rule="evenodd" clip-rule="evenodd" d="M41.953 12.86v-1.25h-.351c-.313.025-.521-.092-.625-.352l-2.461-4.61h3.437v-1.21H38.32V3.952h-1.68v1.485h-3.593v1.21h3.437l-2.382 4.649c-.157.286-.378.403-.664.351h-.391v1.172h.547c.573 0 .937-.052 1.093-.156.209-.052.391-.234.547-.547L37.5 7.86l2.344 4.297c.215.454.626.688 1.235.704.055.002.112.002.171 0h.703Zm-7.422 6.648v-1.602h2.344v1.524h1.25v-1.563h2.344v1.524h1.289v-2.188h-3.633v-.351h3.672v-.82h-8.633v.82h3.711v.39h-3.633v2.266h1.29Zm5.508-.977c-.052.157-.182.222-.39.196h-1.212v-.47h.743c.052 0 .104-.025.156-.077l.039-.117h.938l-.274.468Zm-4.453.274h.898v-.508h-.468c-.078 0-.13-.026-.157-.078l-.078-.117h-1.015l.351.468c.067.157.192.236.373.24.03 0 .063-.002.096-.005Zm4.57.664h-.898c-.235.026-.378-.026-.43-.157l-.39-.43h.937l.078.079c.052.078.117.104.195.078h.508v.43Zm-4.258.039c.209.026.339-.04.391-.195l.234-.391h-.898l-.078.078c-.026.078-.091.104-.195.078h-.47v.43h1.016Zm.313 4.883c-.104.364-.326.547-.664.547h-2.383v-.82h1.563c.104 0 .195-.066.273-.196l.117-.274h-1.875v-.859h2.031l.118-.352h-2.188v-.78h2.11c.13.025.26.025.39 0 .13-.027.3-.066.508-.118L35 20.875h2.11l.35.195 1.485-.508H35.04c-.13.157-.339.222-.625.196h-1.21v-.742h.702c.13.026.222-.013.274-.118l.195-.195h1.133l-.117.117h6.406v.86l-2.813.86c.052.051.222.064.508.038h2.344v.781h-2.813c-.546.026-.898-.013-1.054-.117l-.508-.195-.508.195c-.182.078-.482.13-.898.156h.703l-.117.391h5.156v1.367c0 .469-.208.703-.625.703h-3.086v-.82h2.11c.182 0 .273-.065.273-.195v-.196h-4.024l-.234.743Z" fill="#fff"/><path d="M41.953 11.61h.5v-.5h-.5v.5Zm0 1.25v.5h.5v-.5h-.5Zm-.351-1.25v-.5h-.021l-.021.001.042.498Zm-.625-.352.464-.186-.01-.025-.013-.025-.441.236Zm-2.461-4.61v-.5h-.834l.393.736.44-.236Zm3.437 0v.5h.5v-.5h-.5Zm0-1.21h.5v-.5h-.5v.5Zm-3.633 0h-.5v.5h.5v-.5Zm0-1.485h.5v-.5h-.5v.5Zm-1.68 0v-.5h-.5v.5h.5Zm0 1.485v.5h.5v-.5h-.5Zm-3.593 0v-.5h-.5v.5h.5Zm0 1.21h-.5v.5h.5v-.5Zm3.437 0 .445.229.373-.729h-.818v.5Zm-2.382 4.649.439.24.006-.012-.445-.228Zm-.664.351.089-.492-.044-.008h-.045v.5Zm-.391 0v-.5h-.5v.5h.5Zm0 1.172h-.5v.5h.5v-.5Zm1.64-.156-.12-.485-.085.021-.072.048.278.416Zm.547-.547-.441-.235-.006.012.447.223ZM37.5 7.86l.439-.239-.444-.815-.436.82.441.234Zm2.344 4.297.452-.214-.007-.013-.006-.012-.44.24Zm1.235.704.013-.5-.013.5Zm.171 0v-.5h-.019l.019.5Zm-6.719 5.046v-.5h-.5v.5h.5Zm0 1.602v.5h.5v-.5h-.5Zm2.344-1.602h.5v-.5h-.5v.5Zm0 1.524h-.5v.5h.5v-.5Zm1.25 0v.5h.5v-.5h-.5Zm0-1.563v-.5h-.5v.5h.5Zm2.344 0h.5v-.5h-.5v.5Zm0 1.524h-.5v.5h.5v-.5Zm1.289 0v.5h.5v-.5h-.5Zm0-2.188h.5v-.5h-.5v.5Zm-3.633 0h-.5v.5h.5v-.5Zm0-.351v-.5h-.5v.5h.5Zm3.672 0v.5h.5v-.5h-.5Zm0-.82h.5v-.5h-.5v.5Zm-8.633 0v-.5h-.5v.5h.5Zm0 .82h-.5v.5h.5v-.5Zm3.711 0h.5v-.5h-.5v.5Zm0 .39v.5h.5v-.5h-.5Zm-3.633 0v-.5h-.5v.5h.5Zm0 2.266h-.5v.5h.5v-.5Zm6.406-.781.063-.497-.031-.003h-.032v.5Zm.391-.196-.432-.252-.026.045-.016.05.474.157Zm-1.602.196h-.5v.5h.5v-.5Zm0-.47v-.5h-.5v.5h.5Zm.899-.077.354.353.083-.083.037-.112-.474-.158Zm.039-.117v-.5h-.36l-.114.341.474.159Zm.938 0 .431.251.439-.752h-.87v.5Zm-3.829.742v.5h.5v-.5h-.5Zm-.898 0v-.5h-.028l-.027.003.055.497Zm.898-.508h.5v-.5h-.5v.5Zm-.625-.078.448-.224-.014-.028-.018-.026-.416.278Zm-.078-.117.416-.278-.148-.222h-.268v.5Zm-1.015 0v-.5h-1l.6.8.4-.3Zm.351.468.46-.197-.024-.055-.036-.048-.4.3Zm.373.24.009-.5-.009.5Zm3.768.659v-.5h-.028l-.027.003.055.497Zm.898 0v.5h.5v-.5h-.5Zm-1.328-.157.464-.185-.033-.084-.06-.067-.37.337Zm-.39-.43v-.5h-1.13l.76.837.37-.336Zm.937 0 .354-.353-.147-.146h-.207v.5Zm.078.079.416-.277-.027-.042-.035-.035-.354.354Zm.195.078v-.5h-.08l-.078.026.158.474Zm.508 0h.5v-.5h-.5v.5Zm-3.867.273-.429-.257-.028.047-.017.052.474.159Zm-.39.196.062-.496-.031-.004h-.032v.5Zm.624-.586.43.257.453-.757h-.883v.5Zm-.898 0v-.5h-.207l-.147.146.354.354Zm-.078.078-.354-.354-.083.084-.038.112.475.158Zm-.195.078.12-.485-.059-.015h-.061v.5Zm-.47 0v-.5h-.5v.5h.5Zm0 .43h-.5v.5h.5v-.5Zm1.329 4.883-.477-.151-.004.013.48.138Zm-3.047.547h-.5v.5h.5v-.5Zm0-.82v-.5h-.5v.5h.5ZM35 23.921l.429.257.017-.029.014-.031-.46-.197Zm.117-.274.46.197.299-.697h-.759v.5Zm-1.875 0h-.5v.5h.5v-.5Zm0-.859v-.5h-.5v.5h.5Zm2.031 0v.5h.36l.115-.342-.475-.158Zm.118-.352.474.159.22-.659h-.694v.5Zm-2.188 0h-.5v.5h.5v-.5Zm0-.78v-.5h-.5v.5h.5Zm2.11 0 .098-.491-.049-.01h-.05v.5Zm.898-.118.121.485 1.239-.31-1.12-.613-.24.438ZM35 20.875v-.5l-.24.938.24-.438Zm2.11 0 .242-.437-.113-.063h-.13v.5Zm.35.195-.242.437.194.108.21-.072-.161-.473Zm1.485-.508.162.474-.162-.974v.5Zm-3.906 0v-.5h-.234l-.15.18.384.32Zm-.625.196.045-.498-.022-.002h-.023v.5Zm-1.21 0h-.5v.5h.5v-.5Zm0-.742v-.5h-.5v.5h.5Zm.702 0 .098-.49-.048-.01h-.05v.5Zm.274-.118-.354-.353-.057.057-.036.073.447.223Zm.195-.195v-.5h-.207l-.147.147.354.353Zm1.133 0 .353.354.854-.854h-1.207v.5Zm-.117.117-.354-.353-.853.853h1.207v-.5Zm6.406 0h.5v-.5h-.5v.5Zm0 .86.146.478.354-.108v-.37h-.5Zm-2.813.86-.146-.48-.796.244.589.589.353-.354Zm.508.038v-.5h-.023l-.022.002.045.498Zm2.344 0h.5v-.5h-.5v.5Zm0 .781v.5h.5v-.5h-.5Zm-2.813 0v-.5H39l.023.5Zm-1.054-.117.277-.416-.046-.03-.052-.02-.18.466Zm-.508-.195.18-.467-.18-.069-.18.07.18.466Zm-.508.195-.18-.466-.008.003-.009.004.197.46Zm-.898.156-.032-.499.032 1v-.5Zm.703 0 .479.144.193-.644h-.672v.5Zm-.117.391-.48-.144-.192.644h.672v-.5Zm5.156 0h.5v-.5h-.5v.5Zm-3.711 2.07h-.5v.5h.5v-.5Zm0-.82v-.5h-.5v.5h.5Zm2.383-.39h.5v-.5h-.5v.5Zm-4.024 0v-.5h-.366l-.11.349.476.15Zm5.008-12.04v1.25h1v-1.25h-1Zm.149.5h.351v-1h-.351v1Zm-1.09-.665c.087.216.234.409.454.533.215.12.452.15.677.13l-.083-.996c-.087.007-.11-.01-.104-.006.003.002.004.004.003.002a.137.137 0 0 1-.018-.035l-.929.372Zm-2.437-4.56 2.46 4.61.883-.472-2.461-4.609-.882.47Zm3.878-.736h-3.437v1h3.437v-1Zm-.5-.71v1.21h1v-1.21h-1Zm-3.133.5h3.633v-1H38.32v1Zm-.5-1.985v1.485h1V3.952h-1Zm-1.18.5h1.68v-1h-1.68v1Zm.5.984V3.954h-1v1.485h1Zm-4.093.5h3.594v-1h-3.594v1Zm.5.711v-1.21h-1v1.21h1Zm2.937-.5h-3.437v1h3.437v-1Zm-1.938 5.377 2.383-4.648-.89-.457-2.382 4.649.89.456Zm-1.198.615c.235.043.479.02.704-.099a1.21 1.21 0 0 0 .489-.505l-.878-.479c-.046.083-.077.1-.079.1a.02.02 0 0 1-.007.003.166.166 0 0 1-.05-.004l-.179.984Zm-.301.008h.39v-1h-.39v1Zm.5.672v-1.172h-1v1.172h1Zm.047-.5h-.547v1h.547v-1Zm.816-.072c.02-.013-.018.014-.184.038a4.67 4.67 0 0 1-.632.034v1c.298 0 .559-.013.774-.044.198-.028.422-.08.597-.196l-.555-.832Zm.377-.354a.933.933 0 0 1-.16.24c-.04.04-.06.045-.06.045l.242.97c.418-.104.691-.445.873-.808l-.895-.447Zm2.272-4.27-2.266 4.258.883.47 2.265-4.258-.882-.47Zm3.224 4.293L37.939 7.62l-.878.479 2.344 4.297.878-.48Zm.81.444c-.47-.013-.682-.175-.797-.419l-.904.428c.314.664.925.97 1.674.99l.026-1Zm.138-.001a2.177 2.177 0 0 1-.139 0l-.026 1c.066.002.134.002.203-.001l-.038-1Zm.722 0h-.703v1h.703v-1Zm-7.922 5.546v1.602h1v-1.602h-1Zm2.844-.5h-2.344v1h2.344v-1Zm.5 2.024v-1.524h-1v1.524h1Zm.75-.5h-1.25v1h1.25v-1Zm-.5-1.063v1.563h1v-1.563h-1Zm2.844-.5h-2.344v1h2.344v-1Zm.5 2.024v-1.524h-1v1.524h1Zm.789-.5h-1.29v1h1.29v-1Zm-.5-1.688v2.188h1v-2.188h-1Zm-3.133.5h3.633v-1h-3.633v1Zm-.5-.851v.351h1v-.351h-1Zm4.172-.5h-3.672v1h3.672v-1Zm-.5-.32v.82h1v-.82h-1Zm-8.133.5h8.633v-1h-8.633v1Zm.5.32v-.82h-1v.82h1Zm3.211-.5h-3.71v1h3.71v-1Zm.5.89v-.39h-1v.39h1Zm-4.133.5h3.633v-1h-3.633v1Zm.5 1.766v-2.266h-1v2.266h1Zm.79-.5h-1.29v1h1.29v-1Zm5.054.215c.161.02.355.014.54-.078.2-.1.325-.27.387-.456l-.948-.316a.195.195 0 0 1 .034-.06.247.247 0 0 1 .08-.063c.054-.027.079-.014.032-.02l-.125.993Zm-1.148.004h1.21v-1h-1.21v1Zm-.5-.97v.47h1v-.47h-1Zm1.242-.5h-.742v1h.742v-1Zm-.198.07a.289.289 0 0 1 .198-.07v1a.721.721 0 0 0 .51-.224l-.708-.707Zm-.081.077-.04.118.95.316.038-.117-.948-.317Zm1.411-.341h-.937v1h.938v-1Zm.159 1.22.273-.469-.863-.503-.274.468.864.504Zm-3.987-.478h-.898v1h.898v-1Zm-.5-.008v.508h1v-.508h-1Zm.032.5h.468v-1h-.468v1Zm-.604-.355c.14.28.412.355.604.355v-1a.29.29 0 0 1 .126.033c.07.036.13.094.165.165l-.895.447Zm-.047-.063.078.117.832-.555-.078-.117-.832.555Zm-.6.223h1.016v-1h-1.015v1Zm.752-.332-.351-.468-.8.6.351.468.8-.6Zm-.018.04c-.02 0 0-.004.032.016.015.01.027.021.036.032.008.01.01.017.01.015l-.92.394a.88.88 0 0 0 .334.401.93.93 0 0 0 .49.141l.018-1Zm.032-.002a.223.223 0 0 1-.032.002l-.018 1c.054 0 .108-.002.16-.008l-.11-.994Zm3.727 1.66h.898v-1h-.898v1Zm-.894-.47c.084.21.247.351.44.421.172.063.353.064.509.047l-.11-.994a.398.398 0 0 1-.07.003c-.01-.001-.005-.002.012.004a.274.274 0 0 1 .147.148l-.928.371Zm-.296-.279.39.43.74-.673-.39-.43-.74.673Zm1.307-.836h-.938v1h.938v-1Zm.432.224-.078-.078-.708.707.079.078.707-.707Zm-.317-.042a.35.35 0 0 1 .38.119l-.833.554a.651.651 0 0 0 .77.275l-.317-.948Zm.666-.026h-.508v1h.508v-1Zm.5.93v-.43h-1v.43h1Zm-4.841-.315a.195.195 0 0 1 .034-.06.249.249 0 0 1 .08-.063c.054-.027.079-.013.032-.02l-.125.993c.161.02.355.014.54-.078.2-.1.325-.27.387-.455l-.948-.317Zm.28-.49-.235.391.858.515.234-.39-.857-.515Zm-.47.758h.898v-1h-.898v1Zm.275-.068.079-.079-.708-.707-.078.078.707.708Zm-.67.21a.703.703 0 0 0 .434-.022.618.618 0 0 0 .357-.384l-.949-.316a.383.383 0 0 1 .35-.254c.03 0 .047.004.05.005l-.242.97Zm-.347.014h.469v-1h-.47v1Zm.5-.07v-.43h-1v.43h1Zm.515-.5h-1.015v1h1.015v-1Zm-.351 6.43c.263 0 .522-.074.738-.251.21-.174.336-.41.407-.659l-.962-.275c-.033.116-.07.153-.081.162-.006.004-.027.023-.102.023v1Zm-2.383 0h2.383v-1h-2.383v1Zm-.5-1.32v.82h1v-.82h-1Zm2.063-.5h-1.563v1h1.563v-1Zm-.156.047c-.015.026-.015.015.011-.003a.264.264 0 0 1 .144-.044v1c.353 0 .58-.233.703-.439l-.858-.514Zm.087-.213-.118.273.92.394.117-.274-.92-.393Zm-1.416.696h1.875v-1h-1.875v1Zm-.5-1.359v.86h1v-.86h-1Zm2.531-.5h-2.03v1h2.03v-1Zm-.357-.01-.117.352.949.316.117-.351-.949-.317Zm-1.713.659h2.188v-1h-2.188v1Zm-.5-1.282v.782h1v-.782h-1Zm2.61-.5h-2.11v1h2.11v-1Zm.292.01a.486.486 0 0 1-.194 0l-.197.98c.195.04.392.04.587 0l-.196-.98Zm.485-.112c-.205.051-.366.088-.485.112l.196.98c.141-.028.32-.069.531-.122l-.242-.97Zm-1.33.26 1.21.663.481-.876-1.21-.664-.481.876Zm2.35-.939H35v1h2.11v-1Zm.594.258-.352-.195-.485.874.351.195.486-.874Zm1.08-.544-1.485.508.324.946 1.484-.507-.324-.947Zm-3.745.974h3.906v-1H35.04v1Zm-.67.193c.377.034.78-.044 1.054-.373l-.768-.64-.002.001s-.005.004-.017.007a.477.477 0 0 1-.177.009l-.09.996Zm-1.166.002h1.211v-1h-1.21v1Zm-.5-1.242v.742h1v-.742h-1Zm1.203-.5h-.703v1h.703v-1Zm-.173.159a.287.287 0 0 1 .142-.129c.075-.031.128-.02.13-.02l-.197.98c.132.026.296.03.461-.04a.714.714 0 0 0 .358-.344l-.895-.447Zm.288-.325-.195.195.707.707.196-.195-.708-.707Zm1.487-.147h-1.133v1h1.133v-1Zm.236.97.117-.116-.707-.707-.117.117.707.707Zm6.053-.853H35.39v1h6.406v-1Zm.5 1.36v-.86h-1v.86h1Zm-3.166 1.337 2.812-.86-.292-.956-2.813.86.292.956Zm.316-.937a1.71 1.71 0 0 1-.258.01c-.022-.002-.02-.004-.002.001a.399.399 0 0 1 .151.094l-.707.708a.64.64 0 0 0 .273.157c.073.022.146.032.208.036.125.01.27.004.425-.01l-.09-.996Zm2.389-.002h-2.344v1h2.344v-1Zm.5 1.281v-.78h-1v.78h1Zm-3.313.5h2.813v-1h-2.813v1Zm-1.332-.2c.181.12.407.166.603.188.213.023.466.025.753.012l-.047-1c-.26.013-.456.01-.595-.006-.155-.018-.183-.043-.159-.027l-.555.832Zm-.41-.145.508.195.36-.933-.509-.196-.359.934Zm-.148.195.507-.195-.359-.934-.507.196.359.933Zm-1.047.189c.425-.027.798-.082 1.064-.196l-.394-.92c-.098.043-.324.092-.733.117l.063.998Zm.672-1h-.703v1h.703v-1Zm.361 1.035.118-.39-.958-.288-.117.39.958.288Zm4.678-.644H36.64v1h5.156v-1Zm.5 1.867V22.79h-1v1.367h1Zm-1.125 1.203c.302 0 .615-.087.842-.343.218-.245.283-.562.283-.86h-1c0 .171-.04.206-.03.195.005-.006.01-.006.003-.004a.295.295 0 0 1-.098.012v1Zm-3.086 0h3.086v-1h-3.086v1Zm-.5-1.32v.82h1v-.82h-1Zm2.61-.5h-2.11v1h2.11v-1Zm-.227.305a.345.345 0 0 1 .141-.26c.077-.056.132-.045.085-.045v1a.843.843 0 0 0 .496-.142.667.667 0 0 0 .278-.553h-1Zm0-.196v.196h1v-.196h-1Zm-3.524.5h4.024v-1h-4.024v1Zm.243.393.234-.742-.953-.301-.235.742.954.301Z" fill="#505050"/><path fill-rule="evenodd" clip-rule="evenodd" d="M41.953 12.86v-1.25h-.351c-.313.025-.521-.092-.625-.352l-2.461-4.61h3.437v-1.21H38.32V3.952h-1.68v1.485h-3.593v1.21h3.437l-2.382 4.649c-.157.286-.378.403-.664.351h-.391v1.172h.547c.573 0 .937-.052 1.093-.156.209-.052.391-.234.547-.547L37.5 7.86l2.344 4.297c.215.454.626.688 1.235.704.055.002.112.002.171 0h.703Zm-7.422 6.648v-1.602h2.344v1.524h1.25v-1.563h2.344v1.524h1.289v-2.188h-3.633v-.351h3.672v-.82h-8.633v.82h3.711v.39h-3.633v2.266h1.29Zm5.508-.977c-.052.157-.182.222-.39.196h-1.212v-.47h.743c.052 0 .104-.025.156-.077l.039-.117h.938l-.274.468Zm-4.453.274h.898v-.508h-.468c-.078 0-.13-.026-.157-.078l-.078-.117h-1.015l.351.468c.067.157.192.236.373.24.03 0 .063-.002.096-.005Zm4.57.664h-.898c-.235.026-.378-.026-.43-.157l-.39-.43h.937l.078.079c.052.078.117.104.195.078h.508v.43Zm-4.258.039c.209.026.339-.04.391-.195l.234-.391h-.898l-.078.078c-.026.078-.091.104-.195.078h-.47v.43h1.016Zm.313 4.883c-.104.364-.326.547-.664.547h-2.383v-.82h1.563c.104 0 .195-.066.273-.196l.117-.274h-1.875v-.859h2.031l.118-.352h-2.188v-.78h2.11c.13.025.26.025.39 0 .13-.027.3-.066.508-.118L35 20.875h2.11l.35.195 1.485-.508H35.04c-.13.157-.339.222-.625.196h-1.21v-.742h.702c.13.026.222-.013.274-.118l.195-.195h1.133l-.117.117h6.406v.86l-2.813.86c.052.051.222.064.508.038h2.344v.781h-2.813c-.546.026-.898-.013-1.054-.117l-.508-.195-.508.195c-.182.078-.482.13-.898.156h.703l-.117.391h5.156v1.367c0 .469-.208.703-.625.703h-3.086v-.82h2.11c.182 0 .273-.065.273-.195v-.196h-4.024l-.234.743Z" fill="#fff"/><path fill="#FFFD54" d="M17 29h29v9H17z"/><path fill-rule="evenodd" clip-rule="evenodd" d="M40.895 33.383c-.035 1.078-.55 1.629-1.546 1.652-1.02-.023-1.541-.574-1.565-1.652.024-1.102.545-1.67 1.565-1.705.996.035 1.511.603 1.547 1.705Zm-21.48.193V35h-.685v-3.252h.685v1.283h1.23v-1.283h.704V35h-.686v-1.424h-1.248Zm4.729.88V35H21.91v-3.252h2.18v.545h-1.477v.756h1.371v.545h-1.37v.861h1.529Zm.966.544.246-.685h1.284l.246.685h.703l-1.143-3.252h-.826L24.442 35h.668Zm.422-1.23h.932l-.44-1.39h-.017l-.475 1.39ZM29.628 35l1.195-3.252h-.685l-.844 2.567h-.018l-.843-2.567h-.756L28.872 35h.756Zm3.076-1.055V35h-.685v-1.055l-1.108-2.197h.826l.668 1.494.686-1.494h.703l-1.09 2.197ZM36.097 35v-1.389h1.318v-.545h-1.318v-.773h1.406v-.545H35.41V35h.686Zm3.252-.44c-.563.012-.838-.38-.826-1.177-.012-.797.263-1.196.826-1.196.539 0 .808.399.808 1.196 0 .785-.27 1.177-.808 1.177Zm4.183.44a6.208 6.208 0 0 1-.738.035c-.996-.047-1.506-.597-1.53-1.652.024-1.055.534-1.623 1.53-1.705 1.008 0 1.512.351 1.512 1.054h-.739c0-.363-.216-.544-.65-.544-.61.023-.914.421-.914 1.195 0 .773.305 1.166.914 1.177.176 0 .38-.017.615-.052.012 0 .024-.006.035-.018v-.685h-.632v-.545h1.318v1.635c-.234.07-.475.105-.72.105Z" fill="#fff" stroke="#505050"/><path fill-rule="evenodd" clip-rule="evenodd" d="M40.895 33.383c-.035 1.078-.55 1.629-1.546 1.652-1.02-.023-1.541-.574-1.565-1.652.024-1.102.545-1.67 1.565-1.705.996.035 1.511.603 1.547 1.705Zm-21.48.193V35h-.685v-3.252h.685v1.283h1.23v-1.283h.704V35h-.686v-1.424h-1.248Zm4.729.88V35H21.91v-3.252h2.18v.545h-1.477v.756h1.371v.545h-1.37v.861h1.529Zm.966.544.246-.685h1.284l.246.685h.703l-1.143-3.252h-.826L24.442 35h.668Zm.422-1.23h.932l-.44-1.39h-.017l-.475 1.39ZM29.628 35l1.195-3.252h-.685l-.844 2.567h-.018l-.843-2.567h-.756L28.872 35h.756Zm3.076-1.055V35h-.685v-1.055l-1.108-2.197h.826l.668 1.494.686-1.494h.703l-1.09 2.197ZM36.097 35v-1.389h1.318v-.545h-1.318v-.773h1.406v-.545H35.41V35h.686Zm3.252-.44c-.563.012-.838-.38-.826-1.177-.012-.797.263-1.196.826-1.196.539 0 .808.399.808 1.196 0 .785-.27 1.177-.808 1.177Zm4.183.44a6.208 6.208 0 0 1-.738.035c-.996-.047-1.506-.597-1.53-1.652.024-1.055.534-1.623 1.53-1.705 1.008 0 1.512.351 1.512 1.054h-.739c0-.363-.216-.544-.65-.544-.61.023-.914.421-.914 1.195 0 .773.305 1.166.914 1.177.176 0 .38-.017.615-.052.012 0 .024-.006.035-.018v-.685h-.632v-.545h1.318v1.635c-.234.07-.475.105-.72.105Z" fill="#fff"/><defs><clipPath id="a"><path fill="#fff" d="M0 0h48v40H0z"/></clipPath></defs></svg>