<svg width="48" height="40" fill="none" xmlns="http://www.w3.org/2000/svg"><g clip-path="url(#a)"><path fill-rule="evenodd" clip-rule="evenodd" d="M0 38a2 2 0 0 0 2 2h44a2 2 0 0 0 2-2V2A2 2 0 0 0 46.15.005L46 0H2l-.15.005A2 2 0 0 0 0 2v36ZM27 2H2v25h25V2ZM2 29v9h13v-9H2Zm15 9h29v-9H17v9Zm29-11V2H29v25h17Z" fill="#505050"/></g><path fill="#3A6AF6" d="M2 29h13v9H2z"/><path fill-rule="evenodd" clip-rule="evenodd" d="M11.563 31.516v-.793h-.63l.11-.328H9.84l-.11.328H7.215l-.137-.328H5.875l.11.328h-.63v.793h6.207ZM9.183 32.8c.128.018.228-.046.301-.192l.082-.164h1.996v-.683H9.758l.027-.082h-.93l-.136.273c-.055.128-.146.182-.274.164h-.41v.684h1.149Zm-2.761-1.012v2.023h-.93V31.79h.93Zm1.367 2.023V31.79h-.848v2.023h.848Zm3.774 0H9.02c-.347.019-.547-.063-.602-.246l-.355-.656h1.093l.082.11c.019.109.1.154.246.136h2.079v.657Zm0 2.817v-.738h-.247v-1.832H5.52v1.832h-.192v.738h6.234Zm-5.141-.738h.793v-1.04h-.793v1.04Zm1.613 0v-1.04h.766v1.04h-.766Zm1.64 0h.794v-1.04h-.793v1.04Z" fill="#fff" stroke="#505050"/><path fill-rule="evenodd" clip-rule="evenodd" d="M11.563 31.516v-.793h-.63l.11-.328H9.84l-.11.328H7.215l-.137-.328H5.875l.11.328h-.63v.793h6.207ZM9.183 32.8c.128.018.228-.046.301-.192l.082-.164h1.996v-.683H9.758l.027-.082h-.93l-.136.273c-.055.128-.146.182-.274.164h-.41v.684h1.149Zm-2.761-1.012v2.023h-.93V31.79h.93Zm1.367 2.023V31.79h-.848v2.023h.848Zm3.774 0H9.02c-.347.019-.547-.063-.602-.246l-.355-.656h1.093l.082.11c.019.109.1.154.246.136h2.079v.657Zm0 2.817v-.738h-.247v-1.832H5.52v1.832h-.192v.738h6.234Zm-5.141-.738h.793v-1.04h-.793v1.04Zm1.613 0v-1.04h.766v1.04h-.766Zm1.64 0h.794v-1.04h-.793v1.04Z" fill="#fff"/><path fill="#CCC" d="M2 2h25v25H2z"/><path d="M20.723 8.071c0 .092-.003.182-.01.272.37.066 1.333.269 1.854.643.63.451 1.383 1.704 1.438 1.796a2.396 2.396 0 1 1-1.68 4.457 3.371 3.371 0 0 1-1.151.402c-.7.096-1.507-.095-1.507-.095s-.653.348-1.394.453c-.74.105-1.8 0-1.8 0s-1.34.808-2.63.762c-1.29-.046-2.385-.94-2.385-.94s-1.458.72-2.75.415c-1.173-.276-1.733-1.285-1.826-1.468a2.3 2.3 0 1 1-.143-3.46c.152-.276.703-1.16 1.68-1.539 1.164-.451 2.241-.057 2.241-.057s.62-.563.96-.81c.34-.247.96-.584.96-.584h.007a4.071 4.071 0 1 1 8.136-.246ZM15.274 20.968l1.593-2.983s.14-.3.293-.3c.152 0 .31.3.31.3l1.473 2.983h-.003a2.108 2.108 0 1 1-3.666 0ZM12.148 17.985l-1.593 2.983a2.107 2.107 0 1 0 3.665 0h.004l-1.474-2.983s-.157-.3-.31-.3c-.152 0-.292.3-.292.3ZM21.824 17.985l-1.593 2.983a2.108 2.108 0 1 0 3.666 0h.002l-1.474-2.983s-.157-.3-.309-.3-.292.3-.292.3ZM7.358 17.985l-1.593 2.983a2.107 2.107 0 1 0 3.665 0h.004L7.96 17.985s-.157-.3-.31-.3c-.152 0-.292.3-.292.3ZM29 2h17v25H29z" fill="#3A6AF6"/><path fill-rule="evenodd" clip-rule="evenodd" d="M35.703 10.203c.26.026.547-.156.86-.547l.195-.195.39-.469h.704c.573.781 1.041 1.172 1.406 1.172h2.656v-.82h-1.719c-.156 0-.26-.117-.312-.352h2.031V8.29H40.86v-.351h1.055v-.743H40.86v-.273h.313c.338-.052.547-.326.625-.82v-2.11h-8.555v2.93h.86v.312h-1.055v.704h1.055v.351h-1.055v.703h2.187c-.13.287-.26.417-.39.39h-1.797v.821h2.656Zm4.57-5.078h-5.546v-.313h5.546v.313Zm-5.546 1.016h5.546v-.313h-5.546v.313Zm4.609 1.093h-3.711v-.312h3.71v.312ZM35.625 8.29h3.71v-.351h-3.71v.351Zm1.719 4.531c.599 0 .898-.3.898-.898V9.93h-1.484v1.992c0 .052-.04.078-.117.078h-.47v.82h1.173Zm-1.172-2.07v.82H34.18c-.313.026-.6-.247-.86-.82a6.036 6.036 0 0 1-.117-.313h1.445c.13.209.3.313.508.313h1.016Zm4.654.82c.307-.026.591-.325.854-.898.026-.078.052-.143.078-.195h-1.446c-.104.182-.22.26-.351.234H38.75v.86l2.076-.001Zm-4.928.352c-.208.573-.481.86-.82.86h-2.07V12h1.172c.208 0 .377-.104.508-.313h1.328a.988.988 0 0 0-.118.235Zm5.938.937V12h-1.133c-.156 0-.3-.026-.43-.078l-.117-.117h-1.328c.339.729.716 1.08 1.133 1.054h1.875Zm-.078 11.102c.052.599-.248.872-.899.82h-1.718v-1.133h.937c.104 0 .156-.065.156-.195v-4.57h-1.992v5.898H36.72v-5.898h-1.992v5.898h-1.485V17.75h3.477v-.547h-3.633V16.07h8.867v1.133h-3.71v.547h3.515v6.21Zm-6.836-3.594c-.104.677.143.964.742.86h.86V20.21h-.196c-.13.026-.182-.065-.156-.273v-.547h-1.25v.976Zm5.117-.078c.078.807-.26 1.146-1.016 1.016h-.586V20.25h.196c.104.026.17-.065.195-.273v-.547h1.211v.86Zm-1.523 2.305c-.105.703.143 1.002.742.898h.781v-1.055h-.156c-.13.053-.183-.026-.156-.234v-.547h-1.211v.938Zm-2.032-.04c.078.756-.26 1.081-1.015.977h-.586v-1.054h.195c.13.026.195-.066.195-.274v-.547h1.211v.899Z" fill="#fff" stroke="#505050"/><path fill-rule="evenodd" clip-rule="evenodd" d="M35.703 10.203c.26.026.547-.156.86-.547l.195-.195.39-.469h.704c.573.781 1.041 1.172 1.406 1.172h2.656v-.82h-1.719c-.156 0-.26-.117-.312-.352h2.031V8.29H40.86v-.351h1.055v-.743H40.86v-.273h.313c.338-.052.547-.326.625-.82v-2.11h-8.555v2.93h.86v.312h-1.055v.704h1.055v.351h-1.055v.703h2.187c-.13.287-.26.417-.39.39h-1.797v.821h2.656Zm4.57-5.078h-5.546v-.313h5.546v.313Zm-5.546 1.016h5.546v-.313h-5.546v.313Zm4.609 1.093h-3.711v-.312h3.71v.312ZM35.625 8.29h3.71v-.351h-3.71v.351Zm1.719 4.531c.599 0 .898-.3.898-.898V9.93h-1.484v1.992c0 .052-.04.078-.117.078h-.47v.82h1.173Zm-1.172-2.07v.82H34.18c-.313.026-.6-.247-.86-.82a6.036 6.036 0 0 1-.117-.313h1.445c.13.209.3.313.508.313h1.016Zm4.654.82c.307-.026.591-.325.854-.898.026-.078.052-.143.078-.195h-1.446c-.104.182-.22.26-.351.234H38.75v.86l2.076-.001Zm-4.928.352c-.208.573-.481.86-.82.86h-2.07V12h1.172c.208 0 .377-.104.508-.313h1.328a.988.988 0 0 0-.118.235Zm5.938.937V12h-1.133c-.156 0-.3-.026-.43-.078l-.117-.117h-1.328c.339.729.716 1.08 1.133 1.054h1.875Zm-.078 11.102c.052.599-.248.872-.899.82h-1.718v-1.133h.937c.104 0 .156-.065.156-.195v-4.57h-1.992v5.898H36.72v-5.898h-1.992v5.898h-1.485V17.75h3.477v-.547h-3.633V16.07h8.867v1.133h-3.71v.547h3.515v6.21Zm-6.836-3.594c-.104.677.143.964.742.86h.86V20.21h-.196c-.13.026-.182-.065-.156-.273v-.547h-1.25v.976Zm5.117-.078c.078.807-.26 1.146-1.016 1.016h-.586V20.25h.196c.104.026.17-.065.195-.273v-.547h1.211v.86Zm-1.523 2.305c-.105.703.143 1.002.742.898h.781v-1.055h-.156c-.13.053-.183-.026-.156-.234v-.547h-1.211v.938Zm-2.032-.04c.078.756-.26 1.081-1.015.977h-.586v-1.054h.195c.13.026.195-.066.195-.274v-.547h1.211v.899Z" fill="#fff"/><path fill="#3A6AF6" d="M17 29h29v9H17z"/><path fill-rule="evenodd" clip-rule="evenodd" d="M32.133 34.094c-.021.604-.433.916-1.235.937-.76-.01-1.13-.328-1.109-.953h.625c0 .344.162.521.484.531.375-.01.568-.135.579-.375 0-.187-.183-.323-.547-.406a1.506 1.506 0 0 1-.11-.031c-.646-.136-.963-.401-.953-.797.031-.583.432-.901 1.203-.953.625.042.953.338.985.89h-.594c-.02-.291-.177-.437-.469-.437-.302.02-.458.146-.469.375-.02.219.157.354.532.406l.062.032c.688.135 1.026.395 1.016.78ZM19.617 35v-1.156h.656c.146 0 .235.125.266.375.01.27.047.531.11.781h.671c-.083-.104-.135-.333-.156-.688a.293.293 0 0 1-.016-.093c-.062-.396-.234-.61-.515-.64v-.017c.385-.093.583-.328.594-.703-.01-.479-.344-.729-1-.75h-1.235V35h.625Zm.516-1.64h-.516v-.766h.516c.281 0 .427.12.437.36-.01.27-.156.405-.437.405Zm2.14 1.03-.218.61h-.594l1.047-2.89h.734L24.258 35h-.625l-.219-.61h-1.14Zm.985-.484h-.828l.422-1.234h.015l.39 1.234Zm1.906-1.797V35h-.625v-2.89h.625ZM26.242 35v-2.39l.016-.016L27.383 35h.89v-2.89h-.578v2.265l-.015.016-1.094-2.282h-.922V35h.578Zm7.563-2.406h.86v-.485H32.32v.485h.86V35h.625v-2.406Zm1.765 1.25V35h-.625v-2.89h1.235c.656.02.99.27 1 .75-.01.374-.209.609-.594.703v.015c.281.031.453.245.516.64 0 .032.005.063.015.094.021.355.073.584.156.688h-.671a3.817 3.817 0 0 1-.11-.781c-.031-.25-.12-.375-.265-.375h-.657Zm.516-.485h-.516v-.765h.516c.281 0 .427.12.437.36-.01.27-.156.405-.437.405Zm4.219.203c-.032.959-.49 1.448-1.375 1.47-.907-.022-1.37-.511-1.39-1.47.02-.979.483-1.484 1.39-1.515.885.031 1.343.536 1.375 1.516ZM38.93 34.61c-.5.01-.745-.338-.735-1.047-.01-.708.235-1.062.735-1.062.479 0 .718.354.718 1.063 0 .697-.24 1.046-.718 1.046Zm2.36-2.078V35h-.58v-2.89h1.017l.609 2.109h.016l.656-2.11h.969V35h-.579v-2.484L42.586 35h-.516l-.765-2.484-.016.015Z" fill="#fff" stroke="#505050"/><path fill-rule="evenodd" clip-rule="evenodd" d="M32.133 34.094c-.021.604-.433.916-1.235.937-.76-.01-1.13-.328-1.109-.953h.625c0 .344.162.521.484.531.375-.01.568-.135.579-.375 0-.187-.183-.323-.547-.406a1.506 1.506 0 0 1-.11-.031c-.646-.136-.963-.401-.953-.797.031-.583.432-.901 1.203-.953.625.042.953.338.985.89h-.594c-.02-.291-.177-.437-.469-.437-.302.02-.458.146-.469.375-.02.219.157.354.532.406l.062.032c.688.135 1.026.395 1.016.78ZM19.617 35v-1.156h.656c.146 0 .235.125.266.375.01.27.047.531.11.781h.671c-.083-.104-.135-.333-.156-.688a.293.293 0 0 1-.016-.093c-.062-.396-.234-.61-.515-.64v-.017c.385-.093.583-.328.594-.703-.01-.479-.344-.729-1-.75h-1.235V35h.625Zm.516-1.64h-.516v-.766h.516c.281 0 .427.12.437.36-.01.27-.156.405-.437.405Zm2.14 1.03-.218.61h-.594l1.047-2.89h.734L24.258 35h-.625l-.219-.61h-1.14Zm.985-.484h-.828l.422-1.234h.015l.39 1.234Zm1.906-1.797V35h-.625v-2.89h.625ZM26.242 35v-2.39l.016-.016L27.383 35h.89v-2.89h-.578v2.265l-.015.016-1.094-2.282h-.922V35h.578Zm7.563-2.406h.86v-.485H32.32v.485h.86V35h.625v-2.406Zm1.765 1.25V35h-.625v-2.89h1.235c.656.02.99.27 1 .75-.01.374-.209.609-.594.703v.015c.281.031.453.245.516.64 0 .032.005.063.015.094.021.355.073.584.156.688h-.671a3.817 3.817 0 0 1-.11-.781c-.031-.25-.12-.375-.265-.375h-.657Zm.516-.485h-.516v-.765h.516c.281 0 .427.12.437.36-.01.27-.156.405-.437.405Zm4.219.203c-.032.959-.49 1.448-1.375 1.47-.907-.022-1.37-.511-1.39-1.47.02-.979.483-1.484 1.39-1.515.885.031 1.343.536 1.375 1.516ZM38.93 34.61c-.5.01-.745-.338-.735-1.047-.01-.708.235-1.062.735-1.062.479 0 .718.354.718 1.063 0 .697-.24 1.046-.718 1.046Zm2.36-2.078V35h-.58v-2.89h1.017l.609 2.109h.016l.656-2.11h.969V35h-.579v-2.484L42.586 35h-.516l-.765-2.484-.016.015Z" fill="#fff"/><defs><clipPath id="a"><path fill="#fff" d="M0 0h48v40H0z"/></clipPath></defs></svg>