<svg width="48" height="40" fill="none" xmlns="http://www.w3.org/2000/svg"><g clip-path="url(#a)"><path fill-rule="evenodd" clip-rule="evenodd" d="M0 38a2 2 0 0 0 2 2h44a2 2 0 0 0 2-2V2A2 2 0 0 0 46.15.005L46 0H2l-.15.005A2 2 0 0 0 0 2v36ZM27 2H2v25h25V2ZM2 29v9h13v-9H2Zm15 9h29v-9H17v9Zm29-11V2H29v25h17Z" fill="#505050"/></g><path fill="#F29D38" d="M2 29h13v9H2z"/><path d="M7.352 36.574v-3.718h.164v-.794h-.164v-.246h.218v-.765h-.218v-.656h-.903v.656H5.33v.793h1.093v.218H5.52l-.11 3.5c0 .092-.036.128-.11.11v.656h.384c.346 0 .52-.182.52-.547l.109-2.925h.109v3.718h.93Zm1.175-3.527c.638.073.957-.237.957-.93l.11-1.668h-1.86v.684h.93l-.027.328h-.219c-.091.018-.128-.018-.11-.11h-.574v.247c0 .328.137.501.41.52h.438l-.027.081c-.019.128-.073.183-.164.164h-.63v.684h.766Zm2.98-.684v.657h-.984a1.141 1.141 0 0 1-.109.003c-.384-.005-.585-.225-.601-.66l-.137-1.914h1.86v.766h-.848l.054.273h.137c.091.018.137-.018.137-.11h.546l-.027.329c-.018.31-.155.438-.41.383h-.355l.027.11c-.018.127.045.181.191.163h.52Zm.028 1.504v-.656H7.652v.656h3.883Zm0 2.078v.547H7.543v-.547h.574l-.082-.3H7.68v-1.56h3.855v1.013c.018.4-.146.583-.492.547l-.055.3h.547Zm-1.039-.957a.133.133 0 0 0 .04.005c.046-.003.07-.041.07-.114v-.11H8.554v.22h1.941Zm-1.45.957h1.04v-.3h-1.04v.3Z" fill="#505050" stroke="#505050"/><path d="M7.352 36.574v-3.718h.164v-.794h-.164v-.246h.218v-.765h-.218v-.656h-.903v.656H5.33v.793h1.093v.218H5.52l-.11 3.5c0 .092-.036.128-.11.11v.656h.384c.346 0 .52-.182.52-.547l.109-2.925h.109v3.718h.93Zm1.175-3.527c.638.073.957-.237.957-.93l.11-1.668h-1.86v.684h.93l-.027.328h-.219c-.091.018-.128-.018-.11-.11h-.574v.247c0 .328.137.501.41.52h.438l-.027.081c-.019.128-.073.183-.164.164h-.63v.684h.766Zm2.98-.684v.657h-.984a1.141 1.141 0 0 1-.109.003c-.384-.005-.585-.225-.601-.66l-.137-1.914h1.86v.766h-.848l.054.273h.137c.091.018.137-.018.137-.11h.546l-.027.329c-.018.31-.155.438-.41.383h-.355l.027.11c-.018.127.045.181.191.163h.52Zm.028 1.504v-.656H7.652v.656h3.883Zm0 2.078v.547H7.543v-.547h.574l-.082-.3H7.68v-1.56h3.855v1.013c.018.4-.146.583-.492.547l-.055.3h.547Zm-1.039-.957a.133.133 0 0 0 .04.005c.046-.003.07-.041.07-.114v-.11H8.554v.22h1.941Zm-1.45.957h1.04v-.3h-1.04v.3Z" fill="#fff"/><path fill="#CCC" d="M2 2h25v25H2z"/><path d="M13.563 12.977C9.643 8.83 4 9.574 4 14.779c0 5.204 6.376 5.24 10.5 1.72 4.417 4.395 10.31 2.474 10.5-1.72 0-5.717-7.302-6.288-11.437-1.802Zm-7.806 1.767c-.143-1.915 3.515-2.857 6.444-.47-2.367 2.573-6.113 3.117-6.444.47Zm9.912.628c3.221-3.701 7.266-3.582 7.615-1.042.354 1.927-4.033 3.23-7.61 1.039l-.005.003Z" fill="#F29D38"/><mask id="b" fill="#fff"><path fill-rule="evenodd" clip-rule="evenodd" d="M7.429 7.857a1.429 1.429 0 1 0 0-2.857 1.429 1.429 0 0 0 0 2.857Zm7.143 1.429a1.429 1.429 0 1 0 0-2.858 1.429 1.429 0 0 0 0 2.858ZM16 21.143a1.429 1.429 0 1 1-2.857 0 1.429 1.429 0 0 1 2.857 0ZM7.43 24a1.428 1.428 0 1 0 0-2.857 1.428 1.428 0 0 0 0 2.857ZM23.143 6.429a1.429 1.429 0 1 1-2.857 0 1.429 1.429 0 0 1 2.857 0Zm-1.429 17.57a1.429 1.429 0 1 0 0-2.856 1.429 1.429 0 0 0 0 2.857Z"/></mask><path fill-rule="evenodd" clip-rule="evenodd" d="M7.429 7.857a1.429 1.429 0 1 0 0-2.857 1.429 1.429 0 0 0 0 2.857Zm7.143 1.429a1.429 1.429 0 1 0 0-2.858 1.429 1.429 0 0 0 0 2.858ZM16 21.143a1.429 1.429 0 1 1-2.857 0 1.429 1.429 0 0 1 2.857 0ZM7.43 24a1.428 1.428 0 1 0 0-2.857 1.428 1.428 0 0 0 0 2.857ZM23.143 6.429a1.429 1.429 0 1 1-2.857 0 1.429 1.429 0 0 1 2.857 0Zm-1.429 17.57a1.429 1.429 0 1 0 0-2.856 1.429 1.429 0 0 0 0 2.857Z" fill="#fff"/><path d="M8.672 6.429c0 .686-.557 1.243-1.243 1.243v.37c.89 0 1.613-.722 1.613-1.613h-.37ZM7.43 5.185c.686 0 1.243.557 1.243 1.244h.37c0-.892-.722-1.614-1.613-1.614v.37ZM6.185 6.429c0-.687.557-1.244 1.244-1.244v-.37c-.892 0-1.614.722-1.614 1.614h.37Zm1.244 1.243A1.244 1.244 0 0 1 6.185 6.43h-.37c0 .89.722 1.613 1.614 1.613v-.37Zm8.386.185c0 .687-.557 1.244-1.243 1.244v.37c.89 0 1.613-.723 1.613-1.614h-.37Zm-1.243-1.243c.686 0 1.243.556 1.243 1.243h.37c0-.891-.722-1.614-1.613-1.614v.37Zm-1.244 1.243c0-.687.557-1.243 1.244-1.243v-.37c-.892 0-1.614.722-1.614 1.613h.37Zm1.244 1.244a1.244 1.244 0 0 1-1.244-1.244h-.37c0 .891.722 1.614 1.614 1.614V9.1Zm0 13.655c.89 0 1.613-.722 1.613-1.613h-.37c0 .687-.557 1.243-1.243 1.243v.37Zm-1.614-1.613c0 .89.722 1.613 1.614 1.613v-.37a1.243 1.243 0 0 1-1.244-1.243h-.37Zm1.614-1.614c-.892 0-1.614.723-1.614 1.614h.37c0-.687.557-1.244 1.244-1.244v-.37Zm1.613 1.614c0-.891-.722-1.614-1.613-1.614v.37c.686 0 1.243.557 1.243 1.244h.37ZM8.672 22.57c0 .687-.557 1.244-1.243 1.244v.37c.89 0 1.613-.723 1.613-1.614h-.37ZM7.43 21.328c.686 0 1.243.557 1.243 1.243h.37c0-.89-.722-1.613-1.613-1.613v.37ZM6.185 22.57c0-.686.557-1.243 1.244-1.243v-.37c-.892 0-1.614.722-1.614 1.613h.37Zm1.244 1.244a1.244 1.244 0 0 1-1.244-1.244h-.37c0 .891.722 1.614 1.614 1.614v-.37ZM21.714 8.042c.891 0 1.614-.722 1.614-1.613h-.37c0 .686-.557 1.243-1.244 1.243v.37ZM20.101 6.43c0 .89.722 1.613 1.613 1.613v-.37a1.244 1.244 0 0 1-1.243-1.243h-.37Zm1.613-1.614c-.89 0-1.613.722-1.613 1.614h.37c0-.687.556-1.244 1.243-1.244v-.37Zm1.614 1.614c0-.892-.723-1.614-1.614-1.614v.37c.687 0 1.244.557 1.244 1.244h.37Zm-.37 16.142c0 .687-.557 1.244-1.244 1.244v.37c.891 0 1.614-.723 1.614-1.614h-.37Zm-1.244-1.243c.687 0 1.244.557 1.244 1.243h.37c0-.89-.723-1.613-1.614-1.613v.37Zm-1.243 1.243c0-.686.556-1.243 1.243-1.243v-.37c-.89 0-1.613.722-1.613 1.613h.37Zm1.243 1.244a1.243 1.243 0 0 1-1.243-1.244h-.37c0 .891.722 1.614 1.613 1.614v-.37Z" fill="#505050" mask="url(#b)"/><path fill="#F29D38" d="M29 2h17v25H29z"/><path d="M33.281 5.617h1.055v-.703h1.602v.742h6.289v1.172h-6.368l-.43 5.547c-.051.885-.481 1.328-1.288 1.328h-.899V12.57h.313c.182-.026.286-.143.312-.351l.43-5.39H33.28V5.616Zm3.164 6.953c.209 0 .326-.052.352-.156l1.289-2.5V7.375h1.484v2.54l1.328 2.42c.13.21.326.313.586.313h.703v1.133h-1.25c-.546.052-.898-.104-1.054-.469l-.977-1.796-.86 1.601c-.155.39-.468.586-.937.586h-1.406V12.57h.742Zm3.36-3.71h.39c.235 0 .365-.079.39-.235l.313-.898h1.329l-.43 1.64c-.078.417-.443.612-1.094.586h-.898V8.86Zm-2.617-1.172.234 1.054c0 .156.13.235.39.235v.976h-.82c-.547 0-.846-.208-.898-.625l-.235-1.64h1.328ZM37.11 20.055h4.804v1.953c.078.599-.208.86-.86.781h-.937v.313h1.797v.703h-1.797v.273h1.797v.781h-5.039v-.78h1.992v-.274H37.11v-.703h1.797v-.313H37.11v-2.734Zm-.274-3.32h-3.711v-.704h8.79v.703h-3.712v.352h3.711v2.656h-1.367v-2.07h-2.383v2.07h-1.328v-2.07h-2.383v1.953h-1.367v-2.54h3.75v-.35ZM35.82 21.46l.196-.664h.78l-.116.625c-.078.312-.17.469-.274.469.209.052.313.234.313.547v1.68c.078.572-.222.833-.899.78h-2.734v-.585h2.305c.234.026.338-.079.312-.313v-1.64c.026-.105 0-.157-.078-.157h-2.54v-.586h2.58c.077 0 .13-.052.155-.156Zm.313-.82h-3.086v-.547h2.031c.104 0 .156-.026.156-.078v-.118h1.328v.43c.027.209-.117.313-.43.313Zm-.469 2.5-.273.625c-.026.156-.196.234-.508.234h-1.797v-.625h1.562c.13 0 .209-.026.235-.078l.039-.156h.742Zm0-.82-.273.546c-.078.182-.287.26-.625.235h-1.68v-.547h1.484c.078 0 .144-.04.196-.117l.117-.118h.781Zm2.969-2.657V19h1.562v.664h-1.562Zm0-1.016v-.664h1.562v.664h-1.562Zm-3.75 1.016V19h1.523v.664h-1.523Zm0-1.016v-.664h1.523v.664h-1.523ZM34.14 21.5h-1.094v-.586h.703c.078 0 .117-.039.117-.117v-.078h.664v.234c.026.39-.104.573-.39.547Zm1.367-.078h-.899v-.547h.547c.078 0 .117-.026.117-.078v-.078h.586l-.039.39c-.052.235-.156.339-.312.313Zm2.695.82h.703v-.43h-.703v.43Zm1.836-1.094h.742v-.39h-.742v.39Zm0 1.055h.547c.156 0 .221-.065.195-.195v-.195h-.742v.39Zm-1.133-1.055v-.39h-.703v.39h.703Z" fill="#fff"/><path fill-rule="evenodd" clip-rule="evenodd" d="M32.781 5.617a.5.5 0 0 1 .5-.5h.555v-.203a.5.5 0 0 1 .5-.5h1.602a.5.5 0 0 1 .5.5v.242h5.789a.5.5 0 0 1 .5.5v1.172a.5.5 0 0 1-.28.45.5.5 0 0 1 .263.575l-.425 1.626c-.07.344-.27.62-.584.788-.291.156-.643.2-1.008.186h-.257l.893 1.628c.03.045.061.067.155.067h.703a.5.5 0 0 1 .5.5v1.133a.5.5 0 0 1-.5.5H40.96c-.316.028-.626 0-.9-.121a1.22 1.22 0 0 1-.626-.627l-.525-.965-.41.763c-.112.267-.289.493-.539.65-.254.159-.548.222-.85.222h-1.407a.5.5 0 0 1-.466-.318c-.309.225-.69.318-1.096.318h-.899a.5.5 0 0 1-.5-.5V12.57a.5.5 0 0 1 .5-.5h.135l.378-4.742h-.474a.5.5 0 0 1-.5-.5v-1.21Zm1.516 1.211-.43 5.39c-.026.21-.13.326-.312.352h-.313v1.133h.899c.497 0 .852-.168 1.062-.505.105-.167.174-.377.208-.628.008-.062.015-.127.019-.195l.43-5.547h6.367V5.656h-6.29v-.742h-1.601v.703H33.28v1.211h1.016Zm1.562.86h1.328l.235 1.054c0 .101.055.17.164.206.06.019.135.029.227.029v.976h-.82c-.443 0-.724-.136-.843-.41a.782.782 0 0 1-.056-.215l-.235-1.64Zm.239 2.537-.143 1.845h.457l.833-1.617h-.253c-.317 0-.633-.057-.894-.228Zm.699 2.19c-.026.103-.143.155-.352.155h-.742v1.133h1.406c.47 0 .782-.195.938-.586l.86-1.601.976 1.796c.156.365.508.521 1.054.47h1.25v-1.134h-.703a.645.645 0 0 1-.586-.312L39.57 9.914V7.375h-1.484v2.54l-1.29 2.5Zm.789-5.03v-.01c0-.016 0-.031.002-.047h-.053a.485.485 0 0 1 .05.057Zm2.482-.057a.485.485 0 0 1 .002.047v.984h.079l.277-.797a.499.499 0 0 1 .17-.234h-.528Zm-.263 1.531v1.094h.898c.651.026 1.016-.17 1.094-.586l.43-1.64h-1.329l-.312.898c-.026.156-.156.234-.39.234h-.391Zm-2.97 8.813h-2.382v1.953h-1.367v-2.54h3.75v-.35h-3.711v-.704h8.79v.703h-3.712v.352h3.711v2.656h-1.367v-2.07h-2.383v2.07h-1.328v-2.07Zm-.429.312h-1.523v.664h1.523v-.664ZM34.883 19v.664h1.523V19h-1.523Zm.351.898v.118c0 .052-.052.078-.156.078h-2.031v.547h3.086a.888.888 0 0 0 .216-.023c.161-.041.233-.138.214-.29v-.43h-1.329Zm.782.899-.196.664c-.026.104-.078.156-.156.156h-2.578v.586h2.539c.015 0 .028.002.04.006.043.015.057.06.042.133a.336.336 0 0 1-.004.017V24c.026.234-.078.338-.312.313h-2.305v.585h2.734c.228.018.413 0 .555-.053.281-.105.396-.347.344-.728v-1.68c0-.045-.002-.088-.007-.128a.565.565 0 0 0-.103-.29.36.36 0 0 0-.203-.128c.075 0 .142-.08.203-.24.022-.055.042-.12.062-.197l.009-.032.117-.625h-.781Zm1.093 1.992h1.797v.313H37.11v.703h1.758v.273h-1.992v.781h5.04v-.78h-1.798v-.274h1.797v-.703h-1.797v-.313h.938c.364.044.615-.019.75-.187.107-.133.143-.33.11-.594v-1.953h-4.806v2.734Zm3.672-.686a.205.205 0 0 0 0-.095v-.195h-.742v.39h.547c.111 0 .177-.033.195-.1Zm-1.875.14v-.43h-.703v.43h.703Zm1.29-2.579V19h-1.563v.664h1.562Zm0-1.016v-.664h-1.563v.664h1.562Zm2.193 1.25c.016.05.025.102.025.157v1.923c.03.263.011.55-.123.795a.498.498 0 0 1 .123.329v.703a.497.497 0 0 1-.019.136c.012.044.02.09.02.137v.781a.5.5 0 0 1-.5.5h-5.04a.497.497 0 0 1-.26-.072c-.25.111-.539.13-.813.111h-2.716a.5.5 0 0 1-.5-.5v-.585c0-.055.009-.108.025-.157a.5.5 0 0 1-.025-.156v-.625c0-.047.007-.093.019-.137a.498.498 0 0 1-.02-.136v-.547a.5.5 0 0 1 .033-.176.5.5 0 0 1-.032-.176v-.509a.5.5 0 0 1-.04-.194v-.586c0-.047.008-.093.02-.137a.5.5 0 0 1-.02-.136v-.547c0-.1.03-.193.08-.271a.498.498 0 0 1-.04-.198v-2.54c0-.081.02-.158.055-.227a.503.503 0 0 1-.016-.124v-.703a.5.5 0 0 1 .5-.5h8.79a.5.5 0 0 1 .5.5v.703a.5.5 0 0 1-.033.176.5.5 0 0 1 .032.176v2.656a.5.5 0 0 1-.025.156ZM33.047 21.5h1.094c.12.011.213-.015.279-.078a.378.378 0 0 0 .1-.203.714.714 0 0 0 .012-.102 1.24 1.24 0 0 0 0-.164v-.234h-.665v.078c0 .078-.039.117-.117.117h-.703v.586Zm1.562-.078h.899a.23.23 0 0 0 .132-.014.185.185 0 0 0 .024-.013.336.336 0 0 0 .125-.176.788.788 0 0 0 .031-.11l.04-.39h-.587v.078c0 .052-.039.078-.117.078h-.547v.547Zm-1.523 1.68h1.68c.055.004.107.005.156.004a.833.833 0 0 0 .281-.055.39.39 0 0 0 .104-.066.333.333 0 0 0 .084-.118l.273-.547h-.781l-.117.117c-.052.079-.118.118-.196.118h-1.484v.547Zm2.578.039h-.742l-.04.156c-.016.034-.055.057-.116.069a.678.678 0 0 1-.117.01h-1.563v.624h1.797a1 1 0 0 0 .32-.042.417.417 0 0 0 .06-.026.253.253 0 0 0 .096-.084.205.205 0 0 0 .032-.082l.273-.625Zm5.117-2.383h-.742v.39h.742v-.39Zm-2.578.39h.703v-.39h-.703v.39Z" fill="#505050"/><path fill="#F29D38" d="M17 29h29v9H17z"/><path d="M25.973 35.307h-.762v-3.614h.762v1.426h1.367v-1.426h.781v3.614h-.762v-1.582h-1.386v1.582ZM29.254 35.307h-.742l1.308-3.614h.918l1.27 3.614h-.781l-.274-.762h-1.426l-.273.762Zm.469-1.367h1.035l-.488-1.543h-.02l-.527 1.543ZM32.184 35.307V34.7L33.98 32.3H32.3v-.606h2.617v.606L33.141 34.7h1.816v.606h-2.773ZM35.387 35.307v-3.614h2.422v.606h-1.641v.84h1.523v.605h-1.523v.957h1.7v.606h-2.481Z" fill="#fff"/><path fill-rule="evenodd" clip-rule="evenodd" d="M26.473 35.307a.5.5 0 0 1-.5.5h-.762a.5.5 0 0 1-.5-.5v-3.614a.5.5 0 0 1 .5-.5h.762a.5.5 0 0 1 .5.5v.926h.367v-.926a.5.5 0 0 1 .5-.5h.781a.5.5 0 0 1 .5.5v1.843l.73-2.013a.5.5 0 0 1 .47-.33h.917a.5.5 0 0 1 .472.335l.87 2.477.902-1.206h-.681a.5.5 0 0 1-.5-.5v-.606a.5.5 0 0 1 .5-.5h2.617c.085 0 .164.021.234.059a.497.497 0 0 1 .235-.059h2.422a.5.5 0 0 1 .5.5v.606a.5.5 0 0 1-.296.456c.109.092.178.23.178.384v.605a.5.5 0 0 1-.298.458.5.5 0 0 1 .474.5v.605a.5.5 0 0 1-.5.5h-2.48a.498.498 0 0 1-.215-.049.499.499 0 0 1-.215.049h-2.773a.501.501 0 0 1-.088-.008.5.5 0 0 1-.088.008h-.781a.5.5 0 0 1-.471-.331l-.155-.431h-.722l-.155.43a.5.5 0 0 1-.47.332h-.742a.5.5 0 0 1-.195-.04.5.5 0 0 1-.196.04h-.762a.5.5 0 0 1-.5-.5v-1.082h-.386v1.082Zm.886-1.582v1.582h.762v-3.614h-.781v1.426h-1.367v-1.426h-.762v3.614h.762v-1.582h1.386Zm1.895 1.582.273-.762h1.426l.274.762h.78l-1.269-3.614h-.918l-1.308 3.614h.742Zm.469-1.367h1.035l-.488-1.543h-.02l-.527 1.543Zm5.234 1.367V34.7h-1.816l1.777-2.402v-.606h-2.617v.606h1.68L32.184 34.7v.606h2.773Zm-.07-2.125-.755 1.02h.755v-1.02Zm.5 2.125h2.48V34.7h-1.699v-.957h1.523v-.605h-1.523v-.84h1.64v-.606h-2.421v3.614Z" fill="#505050"/><defs><clipPath id="a"><path fill="#fff" d="M0 0h48v40H0z"/></clipPath></defs></svg>