<svg width="48" height="40" fill="none" xmlns="http://www.w3.org/2000/svg"><g clip-path="url(#a)"><path fill-rule="evenodd" clip-rule="evenodd" d="M0 38a2 2 0 0 0 2 2h44a2 2 0 0 0 2-2V2A2 2 0 0 0 46.15.005L46 0H2l-.15.005A2 2 0 0 0 0 2v36ZM27 2H2v25h25V2ZM2 29v9h13v-9H2Zm15 9h29v-9H17v9Zm29-11V2H29v25h17Z" fill="#505050"/></g><path fill="#C93E34" d="M2 29h13v9H2z"/><path fill-rule="evenodd" clip-rule="evenodd" d="M7.926 35.07v-.847H6.668l1.613-2.57h-1.12l-.384.628h-.355l1.203-1.886H6.559l-1.04 1.613v1.039h.876l-.875 1.258v.765h2.406Zm3.8 1.532v-.875h-1.285V31.27H11.7v-.875H8.281v.875h1.094v4.457H8.254v.875h3.473Zm-3.8-.903v.82H5.492v-.82h2.434Z" fill="#fff"/><path d="M7.926 34.223h.5v-.5h-.5v.5Zm0 .847v.5h.5v-.5h-.5Zm-1.258-.847-.424-.266-.48.766h.904v-.5Zm1.613-2.57.424.265.48-.766h-.904v.5Zm-1.12 0v-.5h-.282l-.146.24.427.26Zm-.384.628v.5h.281l.146-.24-.427-.26Zm-.355 0L6 32.012l-.49.77h.912v-.5Zm1.203-1.886.422.268.49-.768h-.912v.5Zm-1.066 0v-.5h-.273l-.148.229.42.27Zm-1.04 1.613-.42-.27-.08.123v.147h.5Zm0 1.039h-.5v.5h.5v-.5Zm.876 0 .41.285.546-.785h-.956v.5Zm-.875 1.258-.41-.286-.09.129v.157h.5Zm0 .765h-.5v.5h.5v-.5Zm6.207.657h.5v-.5h-.5v.5Zm0 .875v.5h.5v-.5h-.5Zm-1.286-.875h-.5v.5h.5v-.5Zm0-4.457v-.5h-.5v.5h.5Zm1.258 0v.5h.5v-.5h-.5Zm0-.875h.5v-.5h-.5v.5Zm-3.418 0v-.5h-.5v.5h.5Zm0 .875h-.5v.5h.5v-.5Zm1.094 0h.5v-.5h-.5v.5Zm0 4.457v.5h.5v-.5h-.5Zm-1.121 0v-.5h-.5v.5h.5Zm0 .875h-.5v.5h.5v-.5Zm-.328-.082v.5h.5v-.5h-.5Zm0-.82h.5v-.5h-.5v.5Zm-2.434.82h-.5v.5h.5v-.5Zm0-.82v-.5h-.5v.5h.5Zm1.934-1.477v.847h1v-.847h-1Zm-.758.5h1.258v-1H6.668v1Zm1.19-3.336-1.614 2.57.847.532 1.614-2.57-.847-.532Zm-.698.765h1.121v-1h-1.12v1Zm.044.39.383-.63-.854-.52-.383.63.854.52Zm-.782.24h.355v-1h-.355v1Zm.781-2.656L6 32.012l.843.538 1.204-1.887-.844-.537Zm-.644.768h1.066v-1H6.559v1Zm-.62 1.385 1.04-1.614-.84-.541-1.04 1.613.84.542Zm.08.768v-1.04h-1v1.04h1Zm.376-.5H5.52v1h.875v-1ZM5.93 34.59l.875-1.258-.82-.57-.876 1.257.821.571Zm.09.48v-.765h-1v.765h1Zm1.906-.5H5.52v1h2.406v-1Zm3.3 1.157v.875h1v-.875h-1Zm-.785.5h1.286v-1H10.44v1Zm-.5-4.957v4.457h1V31.27h-1Zm1.758-.5h-1.258v1H11.7v-1Zm-.5-.375v.875h1v-.875h-1Zm-2.918.5H11.7v-1H8.281v1Zm.5.375v-.875h-1v.875h1Zm.594-.5H8.281v1h1.094v-1Zm.5 4.957V31.27h-1v4.457h1Zm-1.621.5h1.121v-1H8.254v1Zm.5.375v-.875h-1v.875h1Zm2.973-.5H8.254v1h3.473v-1Zm-3.301.418v-.82h-1v.82h1Zm-2.934.5h2.434v-1H5.492v1Zm-.5-1.32v.82h1v-.82h-1Zm2.934-.5H5.492v1h2.434v-1Z" fill="#505050"/><path fill-rule="evenodd" clip-rule="evenodd" d="M7.834 35.07v-.847H6.576l1.613-2.57H7.068l-.383.628H6.33l1.203-1.886H6.466l-1.039 1.613v1.039h.875l-.875 1.258v.765h2.407Zm3.8 1.532v-.875H10.35V31.27h1.258v-.875H8.189v.875h1.094v4.457H8.162v.875h3.472Zm-3.8-.903v.82H5.4v-.82h2.434Z" fill="#fff"/><g clip-path="url(#b)"><path fill="#CCC" d="M2 2h25v25H2z"/><path d="M24 3C19.697 13.71 5.176 19.78 2 21.106V25.6h.657c.375-.52.889-1.039 1.47-1.3 1.317-.642 1.734.626 1.75.9.014.275.111.833.773.797.66-.036.854-1.159.803-2.939-.05-1.78 1.32-1.79 1.32-1.79s.469-.32 1.67.919c1.2 1.24 1.19 3.912 1.994 3.808.804-.103 1.424-1.22 1.618-3.529 0-4.532 1.597-4.532 1.597-4.532s1.425-.135 1.974 1.738c.295.983-.04 3.446.773 3.415.813-.031.37-3.767.6-5.492.231-1.724 1.371-4.988 2.51-4.996.95-.055.747 2.99 1.194 3.753C24.21 18.961 26 5.49 26 5.49V3h-2Z" fill="#fff" stroke="#505050" stroke-width=".1"/><path d="M2.324 26C2.174 26 2 25.893 2 25.59v-5.415a.02.02 0 0 1 .013-.018c.04-.016 4.221-1.56 8.952-4.558C15.33 12.837 21.071 8.233 23.63 2.013a.02.02 0 0 1 .007-.009.02.02 0 0 1 .01-.003h3.333a.02.02 0 0 1 .02.02V4.48c-.062.455-1.524 11.08-2.944 11.08-.148 0-.292-.114-.425-.34-.173-.289-.25-.897-.332-1.54-.128-1.01-.274-2.156-.832-2.156h-.025c-.5.003-1.067.649-1.596 1.819-.434.96-.794 2.175-.922 3.097-.08.592-.08 1.444-.08 2.267.004 1.621.007 3.153-.547 3.173h-.016c-.535 0-.583-1.004-.63-1.976-.025-.55-.05-1.066-.156-1.41-.476-1.583-1.584-1.706-1.912-1.706-.04 0-.062 0-.062.002s-.403.008-.796.556c-.365.509-.8 1.599-.8 3.9-.184 2.15-.771 3.395-1.653 3.506a.4.4 0 0 1-.048.003c-.393 0-.588-.622-.834-1.41-.245-.781-.55-1.753-1.152-2.36-.81-.818-1.285-.94-1.497-.94a.325.325 0 0 0-.164.033 1.387 1.387 0 0 0-.906.405c-.298.306-.438.76-.422 1.346.057 1.96-.207 2.89-.831 2.921h-.062c-.448 0-.711-.287-.741-.807-.013-.231-.3-1.048-1.062-1.048-.206 0-.435.059-.679.175-1.146.503-2.056 2.034-2.118 2.52-.045.267-.257.409-.432.409Z" fill="#C93E34"/><path d="M24.893 2C19.417 11.24 10.935 18.77 2 21.058V22c9.295-2.179 18.256-10.141 24-20h-1.107Z" fill="#505050"/></g><path fill="#C93E34" d="M29 2h17v25H29z"/><path d="M33.535 6.559v-.192h1.04v.192h2.57v4.128c.018.53-.183.775-.602.739h-1.969v.3c0 .073.046.11.137.11h2.598v.766h-3.063c-.529.054-.766-.146-.71-.602v-.574h-2.544V6.559h2.543Zm2.57.875h-1.53v1.12h1.53v-1.12Zm-2.57 1.12v-1.12h-1.504v1.12h1.504Zm0 1.997V9.43h-1.504v1.12h1.504Zm1.04-1.121v1.12h1.421c.073 0 .11-.054.11-.163V9.43h-1.532ZM37.965 9.02v-.848l.957-1.832h1.012l-1.012 1.914h.328l.328-.602h1.066l-1.558 2.844h1.258v.848h-2.38v-.766l.876-1.558h-.875Zm2.762-1.395v-.793h1.039l-.028-.465h.903l.027.465h.492c.11-.018.164-.082.164-.191v-.22h.848v.821c-.018.255-.155.383-.41.383H42.75l.027.902h1.395v.793h-1.313l.055 1.34.41-1.012h.875l-.574 1.586c-.11.292-.292.429-.547.41.018.183.091.265.219.247h.82v.765h-1.422c-.346.018-.52-.155-.52-.52l-.054-.491h-1.586v-.766h1.504l-.11-1.559h-1.367v-.793h1.313l-.055-.902h-1.093Zm-.41 5.004h-2.38v-.738h2.38v.738ZM37.008 18.375c.054.456-.137.656-.574.602h-2.38v-3.528h2.954v2.926Zm-6.098-1.914v-.848h1.996c.055 0 .082-.018.082-.054v-.11h.875v.547c-.018.292-.182.447-.492.465h-.52v.766h.985v.875h-.984v.355h.82l.164 2.215c.018.091.046.127.082.11h.055v.136h.218c.073.018.119-.027.137-.137l.164-1.531h.957l-.218 1.832c-.019.383-.22.556-.602.52h-.684v-.082h-.41c-.291.036-.437-.137-.437-.52l-.164-1.996h-.082v2.625h-.903V19.03h-.055l-.163 2.051c0 .31-.137.456-.41.438h-.548v-.711h.082c.055 0 .082-.037.082-.11l.22-2.242h.792v-.355H30.91v-.875h1.04v-.766h-1.04Zm4.156 1.64h.82c.128.019.183-.036.165-.163v-1.532h-.985v1.696Zm1.368 3.5c-.347.037-.52-.145-.52-.546l-.137-1.778h.903l.136 1.477c0 .091.037.137.11.137h.082v.71h-.574ZM41.574 15.367h.903v5.36c-.019.492-.274.747-.766.765h-.656v-.683h.355c.11 0 .164-.064.164-.192v-5.25Zm-2.515 2.598c-.347 0-.575-.274-.684-.82l-.355-1.668h1.011l.301 1.312c.036.273.137.401.3.383h.274v.793h-.847Zm-.82 2.789c.145 0 .245-.146.3-.438l.273-1.695h1.04l-.356 1.914c-.091.693-.383 1.012-.875.957h-.629v-.738h.246Zm1.913.656h-.547v-.738h.356c.11-.018.182-.119.219-.3l.383-3.474h-.766v-.765h1.668L41 20.645c-.073.51-.355.765-.848.765Zm2.38-4.922h.163l.41-.875h.958l-.575 1.23.274 3.364c.018.346.09.501.218.465h.165v.71h-.575c-.383-.017-.592-.31-.629-.874l-.246-3.281h-.164v-.739Z" fill="#fff"/><path fill-rule="evenodd" clip-rule="evenodd" d="M37.309 11.836v.766h-3.063c-.529.054-.766-.146-.71-.602v-.574h-2.544V6.559h2.543v-.192h1.04v.192h2.57v4.128c.01.32-.058.536-.207.649-.097.074-.229.104-.395.09h-1.969v.3c0 .073.046.11.137.11h2.598Zm.297 1.167a.498.498 0 0 1-.297.099H34.27c-.303.027-.653-.002-.921-.228-.29-.246-.344-.599-.314-.901v-.047h-2.043a.5.5 0 0 1-.5-.5V6.559a.5.5 0 0 1 .5-.5h2.15a.5.5 0 0 1 .393-.192h1.04a.5.5 0 0 1 .393.192h2.176a.5.5 0 0 1 .5.5v1.146l.835-1.597a.5.5 0 0 1 .443-.268h1.012a.5.5 0 0 1 .49.593.498.498 0 0 1 .303-.101h.513a.5.5 0 0 1 .498-.465h.903c.146 0 .279.063.37.165a.498.498 0 0 1 .313-.11h.848a.5.5 0 0 1 .5.5v.82a.913.913 0 0 1-.275.653.809.809 0 0 1-.193.133.5.5 0 0 1 .468.5v.792a.5.5 0 0 1-.016.125.5.5 0 0 1 .013.374L44.1 11.39h.017a.5.5 0 0 1 .5.5v.765a.5.5 0 0 1-.5.5h-1.41c-.25.01-.536-.044-.755-.262-.209-.21-.271-.484-.276-.727l-.002-.022h-.858v.484a.5.5 0 0 1-.5.5h-2.379a.498.498 0 0 1-.33-.126Zm2.71-1.112h-2.379v.738h2.38v-.738Zm1.805-.246.055.492c0 .364.173.537.52.52h1.421v-.766h-.82c-.128.018-.2-.064-.219-.246a.53.53 0 0 0 .181-.017l.01-.002a.468.468 0 0 0 .282-.235.949.949 0 0 0 .074-.157l.574-1.586h-.875l-.41 1.012-.055-1.34h1.313v-.793h-1.395l-.027-.902h1.012c.255 0 .392-.128.41-.383v-.82h-.848v.219c0 .109-.054.173-.164.191h-.492l-.027-.465h-.903l.028.465h-1.04v.793h1.094l.055.902h-1.313v.793h1.368l.11 1.559h-1.505v.766h1.586Zm-1.777-.301v-.848h-1.258l1.559-2.844h-1.067l-.328.602h-.328l1.012-1.914h-1.012l-.957 1.832v.848h.875l-.875 1.558v.766h2.379ZM37.986 9.52h-.021a.498.498 0 0 1-.32-.117v.724l.34-.607Zm2.084-2.368h.157v-.296l-.157.296Zm.078 2.447-.218.397h.414a.5.5 0 0 1 .486.383h.673l-.04-.559h-.9a.5.5 0 0 1-.415-.22Zm-5.574-2.165h1.532v1.12h-1.532v-1.12Zm.5.62h.532v-.12h-.532v.12Zm-1.539-.62v1.12h-1.504v-1.12h1.504Zm-1.004.5v.12h.504v-.12h-.504Zm1.004 1.496v1.12h-1.504V9.43h1.504Zm-1.004.5v.12h.504v-.12h-.504Zm2.043.62V9.43h1.532v.957c0 .11-.037.164-.11.164h-1.422Zm1.032-.62h-.532v.12h.532v-.12Zm.445 8.008v-1.532h-.985v1.696h.82c.128.018.183-.037.165-.165Zm-1.996-2.489h2.953v2.926c.025.21-.002.366-.081.468a.375.375 0 0 1-.247.134.875.875 0 0 1-.246 0h-2.38v-3.528Zm-.22 1.778h-.983v-.766h.52a.746.746 0 0 0 .183-.032c.191-.061.294-.205.308-.433v-.547h-.875v.11c0 .036-.027.054-.082.054H30.91v.848h1.04v.766h-1.04v.875h1.04v.355h-.794l-.218 2.242c0 .073-.028.11-.082.11h-.083v.71h.547a.55.55 0 0 0 .13-.005c.187-.031.28-.175.28-.432l.165-2.05h.054v2.597h.903v-2.625h.082L33.098 21c0 .292.084.462.254.51.028.008.06.013.093.014a.56.56 0 0 0 .09-.005h.41v.083h.684c.383.036.583-.137.602-.52l.218-1.832h-.957l-.164 1.531c-.013.078-.04.124-.08.137a.101.101 0 0 1-.057 0h-.218v-.137h-.055c-.012.006-.023.006-.033 0-.013-.007-.024-.024-.034-.05a.328.328 0 0 1-.012-.047l-.002-.009-.001-.003-.164-2.215h-.82v-.355h.984v-.875Zm2.08 3.828c0 .4.172.583.519.547h.574v-.711h-.082c-.073 0-.11-.046-.11-.137l-.136-1.477h-.903l.137 1.778Zm1.268-1.766.11 1.191a.5.5 0 0 1 .2.286v-.012a.5.5 0 0 1 .5-.5h.049l.005-.024.272-1.689a.498.498 0 0 1 .133-.267 1.11 1.11 0 0 1-.208-.194c-.189-.226-.296-.522-.359-.834l-.354-1.665a.5.5 0 0 1 .489-.604h1.011a.5.5 0 0 1 .488.388l.071.312a.499.499 0 0 1 .207-.044h1.277v-.266a.5.5 0 0 1 .5-.5h.903a.5.5 0 0 1 .449.28.499.499 0 0 1 .18-.034h.956a.5.5 0 0 1 .454.712l-.519 1.11.263 3.232.001.014v.005a.5.5 0 0 1 .383.486v.71a.5.5 0 0 1-.5.5h-.597a1.05 1.05 0 0 1-.794-.396c-.037.055-.08.106-.128.155-.245.245-.57.339-.896.35l-.018.001h-.656a.499.499 0 0 1-.375-.17 1.53 1.53 0 0 1-.528.088h-.547a.497.497 0 0 1-.268-.078c-.22.136-.477.184-.74.16h-.605a.5.5 0 0 1-.484-.376.5.5 0 0 1-.5.486h-.551c-.258.02-.553-.031-.776-.265a.874.874 0 0 1-.118-.157.89.89 0 0 1-.17.197c-.235.203-.526.245-.786.225h-.662a.497.497 0 0 1-.274-.082h-.11a.953.953 0 0 1-.36-.033.498.498 0 0 1-.35.142h-.902a.498.498 0 0 1-.344-.137 1.017 1.017 0 0 1-.299.027h-.533a.5.5 0 0 1-.5-.5v-.71a.5.5 0 0 1 .19-.392l.184-1.89a.5.5 0 0 1-.237-.425v-.875c0-.154.07-.291.178-.383a.5.5 0 0 1-.178-.383v-.848a.5.5 0 0 1 .5-.5h1.708a.499.499 0 0 1 .37-.164h.875c.033 0 .065.003.096.01a.503.503 0 0 1 .096-.01h2.953a.5.5 0 0 1 .5.5v2.898c.028.276 0 .613-.241.865a.837.837 0 0 1-.084.077Zm1.438 2.203a.682.682 0 0 0 .484-.106c.182-.129.305-.367.37-.714.008-.044.015-.09.021-.137l.356-1.914h-1.04l-.273 1.695c-.055.292-.155.438-.3.438h-.247v.738h.63Zm1.34-.82h-.355v.738h.546a.983.983 0 0 0 .403-.076c.206-.091.343-.267.412-.525.014-.052.025-.107.033-.165l.465-4.511h-1.668v.765h.766l-.383 3.473c-.034.17-.1.269-.198.296a.191.191 0 0 1-.021.005Zm-.055-3.5h-.273a.249.249 0 0 1-.059 0c-.108-.013-.182-.105-.222-.274a1.127 1.127 0 0 1-.02-.109l-.3-1.312H38.02l.355 1.668c.11.546.337.82.684.82h.847v-.793Zm1.805 4.32c.467-.017.72-.248.76-.691.003-.024.005-.05.006-.074v-5.36h-.903v5.25c0 .096-.03.156-.092.18a.198.198 0 0 1-.072.012h-.355v.683h.656Zm.984-5.004h-.164v.739h.164l.246 3.28a2.058 2.058 0 0 0 .034.265c.08.392.278.596.595.61h.575v-.71h-.165a.11.11 0 0 1-.066 0c-.087-.03-.138-.185-.152-.465l-.274-3.363.575-1.23h-.958l-.41.874Z" fill="#505050"/><path fill="#C93E34" d="M17 29h29v9H17z"/><path d="m21.422 34.281.562-2.172h.703l.5 2.172h.016l.469-2.172h.578L23.516 35h-.688l-.515-2.203L21.75 35h-.703l-.703-2.89h.64l.438 2.171ZM25.172 32.11V35h-.625v-2.89h.625ZM26.266 32.594v.765h.515c.292 0 .438-.135.438-.406 0-.25-.146-.37-.438-.36h-.515Zm0 1.25V35h-.625v-2.89h1.234c.656.01.99.26 1 .75-.01.374-.208.609-.594.703v.015c.282.031.453.245.516.64.01.042.015.074.015.094.032.344.084.573.157.688h-.672a3.817 3.817 0 0 1-.11-.781c-.02-.25-.109-.375-.265-.375h-.656ZM28.297 35v-2.89h1.937v.484h-1.312v.672h1.219v.484h-1.22v.766h1.36V35h-1.984ZM32.484 32.11V35h-.625v-2.89h.625ZM35.281 33.047h-.656c-.02-.354-.208-.537-.563-.547-.343.02-.526.375-.546 1.063.02.677.203 1.026.547 1.046.364-.01.552-.192.562-.547h.656c-.031.636-.437.959-1.218.97-.782-.022-1.183-.511-1.204-1.47.032-.979.433-1.484 1.203-1.515.771.01 1.178.344 1.22 1ZM36.25 32.11V35h-.625v-2.89h.625ZM39.36 35h-.891l-1.125-2.406-.016.015V35h-.578v-2.89h.922l1.094 2.28.015-.015v-2.266h.578V35ZM41.797 33.938h-.563v-.485h1.172v1.453a2.214 2.214 0 0 1-.64.094 5.52 5.52 0 0 1-.657.031c-.885-.052-1.338-.541-1.359-1.468.02-.948.474-1.454 1.36-1.516.906 0 1.354.312 1.343.937h-.656c0-.323-.193-.484-.578-.484-.532.01-.802.365-.813 1.063.01.687.282 1.036.813 1.046.156 0 .338-.02.547-.062-.01.01 0 .01.03 0v-.61Z" fill="#fff"/><path fill-rule="evenodd" clip-rule="evenodd" d="m21.047 35-.703-2.89h.64l.438 2.171.562-2.172h.703l.5 2.172h.016l.469-2.172h.578L23.516 35h-.688l-.515-2.203L21.75 35h-.703Zm1.244-.1-.056.224a.5.5 0 0 1-.485.376h-.703a.5.5 0 0 1-.486-.382l-.703-2.89a.5.5 0 0 1 .486-.619h.64a.5.5 0 0 1 .49.402l.009.04.017-.067a.5.5 0 0 1 .484-.375h.703a.5.5 0 0 1 .488.388l.005.022.003-.015a.5.5 0 0 1 .489-.395h.578a.5.5 0 0 1 .148.023.5.5 0 0 1 .149-.023h.625c.085 0 .164.021.234.059a.497.497 0 0 1 .235-.059h1.242c.353.006.7.071.978.256a.5.5 0 0 1 .436-.256h1.937a.5.5 0 0 1 .5.5v.485a.499.499 0 0 1-.183.386c.057.081.09.18.09.286v.484a.498.498 0 0 1-.121.326.5.5 0 0 1 .261.44V35a.5.5 0 0 1-.5.5h-1.984a.5.5 0 0 1-.164-.028.5.5 0 0 1-.164.028h-.672a.5.5 0 0 1-.485-.379 4.23 4.23 0 0 1-.046-.207V35a.5.5 0 0 1-.5.5h-.625a.498.498 0 0 1-.235-.058.499.499 0 0 1-.234.058h-.625a.5.5 0 0 1-.5-.5v-.06l-.047.183a.5.5 0 0 1-.484.377h-.688a.5.5 0 0 1-.487-.386l-.05-.213Zm2.256.1h.625v-2.89h-.625V35Zm2.64-.781c.01.27.047.531.11.781h.672c-.059-.092-.104-.259-.136-.5a4.684 4.684 0 0 1-.02-.188.427.427 0 0 0-.016-.093 1.255 1.255 0 0 0-.077-.286.606.606 0 0 0-.19-.26.47.47 0 0 0-.245-.094h-.004v-.017h.002a1.16 1.16 0 0 0 .121-.036.822.822 0 0 0 .206-.108.616.616 0 0 0 .187-.22.793.793 0 0 0 0-.681c-.115-.225-.355-.357-.72-.396a2.22 2.22 0 0 0-.202-.012h-1.234V35h.625v-1.156h.656c.014 0 .027 0 .04.003.098.015.164.087.2.217a.86.86 0 0 1 .026.155Zm-.362-.86a.677.677 0 0 0 .097-.012l.014-.003a.329.329 0 0 0 .273-.28.606.606 0 0 0 .01-.11c0-.181-.076-.294-.229-.339a.556.556 0 0 0-.115-.02h-.008a.87.87 0 0 0-.086-.001h-.515v.765h.559ZM28.297 35h1.984v-.484h-1.36v-.766h1.22v-.484h-1.22v-.672h1.313v-.485h-1.937V35Zm4.687-2.183a2.45 2.45 0 0 0-.125.745c.007.293.048.541.125.746.106.281.278.48.517.598a1.326 1.326 0 0 0 .562.125h.012c.248-.004.457-.04.63-.108a.87.87 0 0 0 .44-.36c.081-.137.127-.304.136-.5h-.656c-.005.185-.06.323-.162.415-.092.08-.221.124-.39.131h-.016a.43.43 0 0 1-.284-.13c-.158-.159-.244-.465-.257-.916.015-.5.115-.824.3-.971a.425.425 0 0 1 .24-.092H34.081a.649.649 0 0 1 .31.084c.143.087.221.241.234.463h.656a1.168 1.168 0 0 0-.156-.538.925.925 0 0 0-.547-.392 1.89 1.89 0 0 0-.543-.069c-.171.01-.324.043-.458.1-.278.12-.476.343-.593.67ZM35.625 35h.625v-2.89h-.625V35Zm.875-3.324a.497.497 0 0 0-.25-.067h-.625a.5.5 0 0 0-.435.254c-.313-.224-.706-.31-1.12-.316h-.028c-.414.017-.79.145-1.081.41a.5.5 0 0 0-.477-.348h-.625a.5.5 0 0 0-.5.5V35a.5.5 0 0 0 .5.5h.625a.5.5 0 0 0 .48-.355c.295.257.673.375 1.085.386h.02c.411-.005.802-.086 1.113-.298a.5.5 0 0 0 .443.267h.625a.497.497 0 0 0 .25-.067.497.497 0 0 0 .25.067h.578a.5.5 0 0 0 .5-.5v-.19l.188.402a.5.5 0 0 0 .453.288h.89a.5.5 0 0 0 .494-.423c.329.29.756.426 1.227.453l.03.001c.266 0 .497-.01.687-.031.256-.003.508-.041.753-.115a.5.5 0 0 0 .356-.479v-1.453a.499.499 0 0 0-.037-.19.499.499 0 0 0 .084-.27c.008-.451-.16-.855-.542-1.122-.347-.242-.807-.324-1.302-.324l-.035.001c-.471.033-.897.177-1.223.472a.5.5 0 0 0-.492-.41h-.578a.5.5 0 0 0-.5.5v.114l-.158-.33a.5.5 0 0 0-.451-.285h-.922a.497.497 0 0 0-.25.067Zm2.281 2.699-.015.016-1.094-2.282h-.922V35h.578v-2.39l.016-.016L38.469 35h.89v-2.89h-.578v2.265Zm1.078-1.478c-.067.19-.103.412-.109.666.006.247.042.464.11.65.115.317.32.542.618.676a1.785 1.785 0 0 0 .733.142h.008c.133-.002.252-.006.356-.013.07-.005.133-.01.19-.018a2.26 2.26 0 0 0 .641-.094v-1.453h-1.172v.484h.563v.61a.218.218 0 0 1-.03.008h-.001c-.006 0-.006-.003 0-.008a2.859 2.859 0 0 1-.547.063 1.197 1.197 0 0 1-.11-.008.737.737 0 0 1-.382-.15c-.207-.166-.314-.462-.32-.89.007-.483.139-.802.396-.955a.771.771 0 0 1 .339-.103l.077-.004c.176 0 .312.034.408.102.106.075.163.192.17.351v.031h.656v-.042a.844.844 0 0 0-.128-.458c-.103-.156-.267-.27-.492-.343a2.237 2.237 0 0 0-.614-.093h-.01l-.1-.001c-.19.013-.361.047-.512.102-.361.13-.607.38-.738.748Zm-7.375-.788h-.625V35h.625v-2.89Zm2.641 1.453v-.015h-.5a.5.5 0 0 1-.5-.47.351.351 0 0 0-.009-.07h-.002s0 .002-.002.003c-.04.078-.086.246-.096.552.01.3.056.464.095.538 0 .002.001.002.002.003h.007a.37.37 0 0 0 .005-.055.5.5 0 0 1 .5-.486h.5Z" fill="#505050"/><defs><clipPath id="a"><path fill="#fff" d="M0 0h48v40H0z"/></clipPath><clipPath id="b"><path fill="#fff" transform="translate(2 2)" d="M0 0h25v25H0z"/></clipPath></defs></svg>