<svg width="48" height="40" fill="none" xmlns="http://www.w3.org/2000/svg"><g clip-path="url(#a)"><path fill-rule="evenodd" clip-rule="evenodd" d="M0 38a2 2 0 0 0 2 2h44a2 2 0 0 0 2-2V2A2 2 0 0 0 46.15.005L46 0H2l-.15.005A2 2 0 0 0 0 2v36ZM27 2H2v25h25V2ZM2 29v9h13v-9H2Zm15 9h29v-9H17v9Zm29-11V2H29v25h17Z" fill="#505050"/></g><path fill="#F29D38" d="M2 29h13v9H2z"/><path d="M7.352 36.574v-3.718h.164v-.794h-.164v-.246h.218v-.765h-.218v-.656h-.903v.656H5.33v.793h1.093v.218H5.52l-.11 3.5c0 .092-.036.128-.11.11v.656h.384c.346 0 .52-.182.52-.547l.109-2.925h.109v3.718h.93Zm1.175-3.527c.638.073.957-.237.957-.93l.11-1.668h-1.86v.684h.93l-.027.328h-.219c-.091.018-.128-.018-.11-.11h-.574v.247c0 .328.137.501.41.52h.438l-.027.081c-.019.128-.073.183-.164.164h-.63v.684h.766Zm2.98-.684v.657h-.984a1.141 1.141 0 0 1-.109.003c-.384-.005-.585-.225-.601-.66l-.137-1.914h1.86v.766h-.848l.054.273h.137c.091.018.137-.018.137-.11h.546l-.027.329c-.018.31-.155.438-.41.383h-.355l.027.11c-.018.127.045.181.191.163h.52Zm.028 1.504v-.656H7.652v.656h3.883Zm0 2.078v.547H7.543v-.547h.574l-.082-.3H7.68v-1.56h3.855v1.013c.018.4-.146.583-.492.547l-.055.3h.547Zm-1.039-.957a.133.133 0 0 0 .04.005c.046-.003.07-.041.07-.114v-.11H8.554v.22h1.941Zm-1.45.957h1.04v-.3h-1.04v.3Z" fill="#505050" stroke="#505050"/><path d="M7.352 36.574v-3.718h.164v-.794h-.164v-.246h.218v-.765h-.218v-.656h-.903v.656H5.33v.793h1.093v.218H5.52l-.11 3.5c0 .092-.036.128-.11.11v.656h.384c.346 0 .52-.182.52-.547l.109-2.925h.109v3.718h.93Zm1.175-3.527c.638.073.957-.237.957-.93l.11-1.668h-1.86v.684h.93l-.027.328h-.219c-.091.018-.128-.018-.11-.11h-.574v.247c0 .328.137.501.41.52h.438l-.027.081c-.019.128-.073.183-.164.164h-.63v.684h.766Zm2.98-.684v.657h-.984a1.141 1.141 0 0 1-.109.003c-.384-.005-.585-.225-.601-.66l-.137-1.914h1.86v.766h-.848l.054.273h.137c.091.018.137-.018.137-.11h.546l-.027.329c-.018.31-.155.438-.41.383h-.355l.027.11c-.018.127.045.181.191.163h.52Zm.028 1.504v-.656H7.652v.656h3.883Zm0 2.078v.547H7.543v-.547h.574l-.082-.3H7.68v-1.56h3.855v1.013c.018.4-.146.583-.492.547l-.055.3h.547Zm-1.039-.957a.133.133 0 0 0 .04.005c.046-.003.07-.041.07-.114v-.11H8.554v.22h1.941Zm-1.45.957h1.04v-.3h-1.04v.3Z" fill="#fff"/><path fill="#CCC" d="M2 2h25v25H2z"/><path fill-rule="evenodd" clip-rule="evenodd" d="M5 22.362 11.35 5l1.752.665L22 8.95v1.659l-11.636 2.485L6.712 23 5 22.362ZM12.46 7.47l-1.244 3.452 6.906-1.38-5.662-2.072Zm9.54 6.53h-4.22v.002c-.018 0-2.32 4.111-2.32 4.111h1.298l-1.517 2.521h.988L14 23.6l5.343-3.94h-1.466l2.737-2.444h-2.542L22 14Z" fill="#F29D38"/><path fill="#F29D38" d="M29 2h17v25H29z"/><path fill-rule="evenodd" clip-rule="evenodd" d="M30.337 6.4h7.235v.055h6.972v1.793h-.136v4.21c.02.282-.033.61-.293.847-.249.228-.575.267-.855.247h-3.38v-.875a1.565 1.565 0 0 1-.394.002v.873h-2.04v-.655c-.045.113-.11.22-.198.317-.234.253-.553.338-.86.338h-6.05V6.4Zm3.598 1h.012v.559h-.012V7.4Zm0 5.152h.012v-.53h-.012v.53Zm4.512-3.922v3.922h.039V8.63h-.04Zm2.433 3.922h.067V7.455h-.067v5.097Zm2.461-3.922v3.493a.657.657 0 0 1-.136.414v.015h.094l.02.002c.039.003.07.003.093.002l-.002-.035-.002-.021V8.63h-.067Zm-10.515 6.743H35v1.039h2.543v1.847h-2.072l1.32 2.473h.752v.068l.067.007v-5.434h6.879v5.612l.191.048v1.574h-1.32a.896.896 0 0 1-.595-.219h-.827c-.168 0-.354-.03-.524-.133a.821.821 0 0 1-.34-.401l-.041-.072a1.03 1.03 0 0 1-.954.606h-.72a.758.758 0 0 1-.133.104.84.84 0 0 1-.508.115H36.56a1.75 1.75 0 0 1-.848-.162 1.292 1.292 0 0 1-.59-.602l-1.19-2.182-1.148 2.156c-.124.248-.32.508-.628.615a1.299 1.299 0 0 1-.401.115 4.08 4.08 0 0 1-.563.033h-.883v-1.82h.807l1.281-2.5H30.31v-1.848h2.516v-1.04Zm3.37 6.193a.845.845 0 0 1-.192-.195l.01.017.006.013a.294.294 0 0 0 .175.165Zm-.417-.609-1.857-3.478-1.03 2.01 1.03-1.936 1.857 3.404Zm-1.953-3.698H34v-.886h-.175v.886Zm4.785-.886v.34h.039v-.34h-.04Zm4.812 0v.34h.067v-.34h-.067Zm.067.723-.067.13v4.38l.175.001a.656.656 0 0 1-.108-.432v-4.08Zm-1.067 3.128v-1.04l-.274.537.274.503ZM41.29 17.22h-.452l.226.437.226-.437Zm-2.64.06-.04-.075v3.921c.01.13-.006.32-.137.481h.177v-4.326Zm1 2.945v-1.007l.271.527-.271.48Z" fill="#505050"/><path d="M30.837 7.556V6.9h6.235v.656h-2.625v.274h2.597v2.433h-.902V8.46h-1.723v1.804h-.957V8.46h-1.777v1.804h-.848V7.83h2.598v-.274h-2.598Zm1.121 1.34V8.65h.793c-.036.11.037.155.22.137h.273v.547h-.766c-.328-.019-.501-.164-.52-.438Zm2.625.465v-.574h.329c.109.018.182-.037.218-.164h.739v.355c-.019.255-.174.383-.465.383h-.82Zm0 .52v-.356h.82c.019.11.128.155.329.137h.191v.629h-.738c-.438.018-.638-.119-.602-.41Zm-2.652.41v-.63h.246c.164.019.237-.027.219-.136h.793v.3c0 .329-.173.484-.52.466h-.738Zm4.457 2.761h-5.55v-2.515h6.206v1.804c0 .474-.218.711-.656.711Zm-4.594-1.859v.328h1.668v-.328h-1.668Zm2.625.328h1.723v-.328h-1.723v.328Zm-.984.602h-1.613v.3h1.613v-.3Zm2.707 0h-1.695v.3h1.613c.055 0 .082-.027.082-.082v-.218ZM40.38 7.748h-2.543v-.793h6.207v.793h-2.597v.382h2.46v4.348c.037.42-.172.61-.628.574h-1.203v-.793h.656c.073 0 .11-.045.11-.136v-3.2h-1.395v4.13H40.38v-4.13h-1.394v4.13h-1.04V8.13h2.434v-.382Zm1.614 2.87h-.41V9.88h.136c.073.019.119-.045.137-.19v-.384h.848v.602c.054.565-.183.802-.711.71Zm-.356.903v-.656h.848v.383c-.018.146.018.2.11.164h.109v.738h-.547c-.42.073-.593-.137-.52-.629Zm-2.133.656h-.41v-.738h.137c.091.018.137-.046.137-.191v-.383h.847v.629c.055.528-.182.756-.71.683Zm-.383-2.214v-.684h.876v.383c-.019.146.018.21.109.191h.137v.711h-.602c-.42.073-.592-.127-.52-.601ZM30.81 16.912h2.516v-1.04H34.5v1.04h2.543v.847h-2.406l1.723 3.227c.073.182.219.264.437.246h.246v.875h-.492c-.492.018-.82-.146-.984-.492l-1.64-3.008-1.587 2.98c-.11.22-.237.347-.383.383-.109.073-.364.11-.765.11h-.383v-.82h.273c.201.036.356-.046.465-.247l1.668-3.254H30.81v-.847ZM38.11 21.15v-5.277h5.88v5.332c-.019.11.045.182.191.218v.684h-.82a.37.37 0 0 1-.356-.219H41.94c-.219 0-.356-.082-.41-.246l-.492-.875-.438.766c-.11.237-.282.355-.52.355h-.984c-.054.164-.173.237-.355.219h-.848v-.766c.164.019.237-.045.219-.191Zm4.813-.027V16.72H39.15v4.403h.41c.128.018.2-.019.219-.11l.71-1.258-1.312-2.543h1.094l.793 1.532.793-1.532h1.012l-1.286 2.516.657 1.203c.054.146.136.21.246.192h.437Z" fill="#fff"/><path fill="#F29D38" d="M17 29h29v9H17z"/><path fill-rule="evenodd" clip-rule="evenodd" d="M25.042 29.5h.02c.491 0 .948.083 1.294.324.029.02.056.04.081.061v-.323h1.61v1.141h.094v-1.14h5.33l.295.614v-.614h3.924l.294.614v-.614h1.578v.41c.323-.289.743-.433 1.21-.471l.02-.002h.02c.491 0 .948.083 1.294.324.38.265.55.665.55 1.113v.5h-.047v1.794l-.356.107a2.712 2.712 0 0 1-.753.115c-.19.022-.421.031-.688.031h-.023c-.47-.022-.897-.154-1.227-.441v.41h-1.708l-.323-.69v.69h-3.896l-.322-.69v.69h-1.579v-2.406h-.172v2.406h-1.625v-2.406h-.171v2.406h-1.61v-1.266h-.11v1.266h-1.608v-.096a2.715 2.715 0 0 1-.688.096c-.19.022-.421.031-.688.031h-.023c-.47-.022-.897-.154-1.227-.441v.41H20v-3.89h1.61v2.406h.578v-2.407h1.625v.412c.322-.29.742-.434 1.209-.472l.02-.002Zm2.445 4h.02c.491 0 .949.083 1.295.324.375.262.546.657.55 1.1l.493-1.361h1.439l.474 1.348v-1.349h1.61v2.407h.562v-2.407h2.937v1.485h-.094v.922h.141v1.484H30.97l-.22-.61h-.436l-.22.61h-1.657l.005-.014a2.776 2.776 0 0 1-.246.014c-.19.022-.421.031-.687.031h-.024c-.529-.025-1.005-.189-1.347-.558-.338-.365-.476-.858-.488-1.4V35.506c.012-.543.15-1.035.483-1.405.335-.375.805-.555 1.335-.598l.02-.002Z" fill="#505050"/><path d="M22.36 32.953H20.5v-2.89h.61v2.406h1.25v.484ZM23.313 30.063v2.89h-.625v-2.89h.625ZM25.75 31.89h-.563v-.484h1.172v1.453a2.218 2.218 0 0 1-.64.094c-.167.021-.386.031-.657.031-.885-.041-1.338-.53-1.359-1.468.021-.938.474-1.443 1.36-1.516.895 0 1.343.313 1.343.938h-.656c0-.323-.193-.485-.578-.485-.542.021-.813.375-.813 1.063 0 .687.271 1.036.813 1.047.156 0 .338-.016.547-.047.01 0 .02-.006.031-.016v-.61ZM27.547 32.953h-.61v-2.89h.61v1.14h1.094v-1.14h.625v2.89h-.61v-1.266h-1.11v1.266ZM29.578 30.547v-.485h2.344v.485h-.86v2.406h-.625v-2.406h-.859ZM34.844 32.953h-.89l-1.126-2.406-.016.015v2.391h-.578v-2.89h.922l1.094 2.28.016-.015v-2.266h.578v2.891ZM35.953 30.063v2.89h-.625v-2.89h.625ZM39.063 32.953h-.891l-1.125-2.406-.016.015v2.391h-.578v-2.89h.922l1.094 2.28.015-.015v-2.266h.578v2.891ZM41.5 31.89h-.563v-.484h1.172v1.453a2.218 2.218 0 0 1-.64.094c-.167.021-.386.031-.657.031-.885-.041-1.338-.53-1.359-1.468.021-.938.474-1.443 1.36-1.516.895 0 1.343.313 1.343.938H41.5c0-.323-.193-.485-.578-.485-.542.021-.813.375-.813 1.063 0 .687.271 1.036.813 1.047.156 0 .338-.016.547-.047.01 0 .02-.006.031-.016v-.61ZM28.195 35.89h-.562v-.484h1.172v1.453a2.217 2.217 0 0 1-.64.094c-.168.021-.386.031-.657.031-.886-.041-1.339-.53-1.36-1.468.021-.938.474-1.443 1.36-1.516.896 0 1.344.313 1.344.938h-.657c0-.323-.192-.485-.578-.485-.541.021-.812.375-.812 1.063 0 .687.27 1.036.812 1.047.156 0 .339-.016.547-.047.01 0 .02-.006.031-.016v-.61ZM29.742 36.953h-.594l1.047-2.89h.735l1.015 2.89h-.625l-.218-.61H29.96l-.219.61Zm.375-1.094h.828l-.39-1.234h-.016l-.422 1.234ZM34.117 36.953h-1.86v-2.89h.61v2.406h1.25v.484ZM34.43 36.953v-2.89h1.937v.484h-1.312v.672h1.218v.484h-1.218v.766h1.36v.484H34.43Z" fill="#fff"/><defs><clipPath id="a"><path fill="#fff" d="M0 0h48v40H0z"/></clipPath></defs></svg>