<svg width="48" height="40" fill="none" xmlns="http://www.w3.org/2000/svg"><g clip-path="url(#a)"><path fill-rule="evenodd" clip-rule="evenodd" d="M0 38a2 2 0 0 0 2 2h44a2 2 0 0 0 2-2V2A2 2 0 0 0 46.15.005L46 0H2l-.15.005A2 2 0 0 0 0 2v36ZM27 2H2v25h25V2ZM2 29v9h13v-9H2Zm15 9h29v-9H17v9Zm29-11V2H29v25h17Z" fill="#505050"/></g><path fill="#F29D38" d="M2 29h13v9H2z"/><path d="M7.352 36.574v-3.718h.164v-.794h-.164v-.246h.218v-.765h-.218v-.656h-.903v.656H5.33v.793h1.093v.218H5.52l-.11 3.5c0 .092-.036.128-.11.11v.656h.384c.346 0 .52-.182.52-.547l.109-2.925h.109v3.718h.93Zm1.175-3.527c.638.073.957-.237.957-.93l.11-1.668h-1.86v.684h.93l-.027.328h-.219c-.091.018-.128-.018-.11-.11h-.574v.247c0 .328.137.501.41.52h.438l-.027.081c-.019.128-.073.183-.164.164h-.63v.684h.766Zm2.98-.684v.657h-.984a1.141 1.141 0 0 1-.109.003c-.384-.005-.585-.225-.601-.66l-.137-1.914h1.86v.766h-.848l.054.273h.137c.091.018.137-.018.137-.11h.546l-.027.329c-.018.31-.155.438-.41.383h-.355l.027.11c-.018.127.045.181.191.163h.52Zm.028 1.504v-.656H7.652v.656h3.883Zm0 2.078v.547H7.543v-.547h.574l-.082-.3H7.68v-1.56h3.855v1.013c.018.4-.146.583-.492.547l-.055.3h.547Zm-1.039-.957a.133.133 0 0 0 .04.005c.046-.003.07-.041.07-.114v-.11H8.554v.22h1.941Zm-1.45.957h1.04v-.3h-1.04v.3Z" fill="#505050" stroke="#505050"/><path d="M7.352 36.574v-3.718h.164v-.794h-.164v-.246h.218v-.765h-.218v-.656h-.903v.656H5.33v.793h1.093v.218H5.52l-.11 3.5c0 .092-.036.128-.11.11v.656h.384c.346 0 .52-.182.52-.547l.109-2.925h.109v3.718h.93Zm1.175-3.527c.638.073.957-.237.957-.93l.11-1.668h-1.86v.684h.93l-.027.328h-.219c-.091.018-.128-.018-.11-.11h-.574v.247c0 .328.137.501.41.52h.438l-.027.081c-.019.128-.073.183-.164.164h-.63v.684h.766Zm2.98-.684v.657h-.984a1.141 1.141 0 0 1-.109.003c-.384-.005-.585-.225-.601-.66l-.137-1.914h1.86v.766h-.848l.054.273h.137c.091.018.137-.018.137-.11h.546l-.027.329c-.018.31-.155.438-.41.383h-.355l.027.11c-.018.127.045.181.191.163h.52Zm.028 1.504v-.656H7.652v.656h3.883Zm0 2.078v.547H7.543v-.547h.574l-.082-.3H7.68v-1.56h3.855v1.013c.018.4-.146.583-.492.547l-.055.3h.547Zm-1.039-.957a.133.133 0 0 0 .04.005c.046-.003.07-.041.07-.114v-.11H8.554v.22h1.941Zm-1.45.957h1.04v-.3h-1.04v.3Z" fill="#fff"/><path fill="#CCC" d="M2 2h25v25H2z"/><path d="M13.563 12.977C9.643 8.83 4 9.574 4 14.779s6.376 5.24 10.5 1.72c4.417 4.395 10.31 2.474 10.5-1.72 0-5.717-7.302-6.288-11.437-1.802Zm-7.806 1.767c-.143-1.915 3.515-2.857 6.444-.47-2.367 2.574-6.113 3.117-6.444.47Zm9.912.628c3.221-3.701 7.266-3.582 7.615-1.042.354 1.927-4.033 3.23-7.61 1.039l-.005.003ZM29 2h17v25H29z" fill="#F29D38"/><path fill-rule="evenodd" clip-rule="evenodd" d="M38.203 11.672v2.07h-1.367v-2.07h-2.383v1.953h-1.367v-2.54h3.75v-.35h-3.711v-.704h8.828v.703h-3.75v.352h3.75v2.656h-1.367v-2.07h-2.383Zm2.031.547c.026.364-.143.534-.507.508h-1.211v-.547h.351c.104 0 .156-.026.156-.078v-.079h1.211v.196Zm-5.039.508h1.407v-.47h-.274c-.13.027-.182-.025-.156-.155v-.04h-1.445v.235c-.047.281.075.425.365.432.032.001.067 0 .103-.002Zm5.04 1.015h-1.133c-.47.026-.677-.156-.625-.547v-.273h1.171V13c-.026.13.04.182.196.156h.39v.586Zm-4.024.04c.208.051.325-.105.352-.47v-.351h-1.368v.156c0 .156-.078.221-.234.195h-.273v.47h1.523Zm.352.546c0 .235-.144.339-.43.313h-3.086v-.547h2.031c.104 0 .156-.026.156-.078v-.118h1.328v.43Zm5.39 4.531v-.78h-1.836v-.235h1.836v-.703h-1.797v-.313h.938c.625.078.911-.182.86-.781v-1.992h-4.845v2.773h1.797v.313H37.11v.703h1.797v.234h-2.031v.781h5.078Zm-6.133-3.75c-.078.26-.182.378-.312.352h-.899v-.586h.547c.078.026.117.013.117-.04v-.116h.586l-.039.39Zm-1.68.391c.261.052.391-.117.391-.508v-.234h-.664v.039c0 .104-.039.143-.117.117h-.703v.586h1.094Zm4.102-.313h.703v-.39h-.703v.39Zm2.578 0h-.742v-.39h.742v.39Zm-4.101 2.93c.052.573-.248.834-.899.781h-2.734v-.585h2.305c.234.026.338-.079.312-.313v-1.64c0-.079-.026-.118-.078-.118h-2.54v-.625h2.58c.051 0 .103-.039.155-.117l.196-.664h.78l-.116.586c-.078.338-.17.508-.274.508.183.052.287.221.313.508v1.68Zm3.867-1.875h-.508v-.39h.742v.195c0 .156-.078.221-.234.195Zm-2.344.04h.703v-.43h-.703v.43Zm-3.476.82c.338.026.547-.053.625-.235l.273-.547h-.781l-.117.157c-.078.078-.144.117-.196.117h-1.484v.508h1.68Zm.625.703c-.026.13-.196.195-.508.195h-1.797v-.586h1.562c.105 0 .183-.039.235-.117l.039-.117h.742l-.273.625Z" fill="#fff" stroke="#505050"/><path fill-rule="evenodd" clip-rule="evenodd" d="M38.203 11.672v2.07h-1.367v-2.07h-2.383v1.953h-1.367v-2.54h3.75v-.35h-3.711v-.704h8.828v.703h-3.75v.352h3.75v2.656h-1.367v-2.07h-2.383Zm2.031.547c.026.364-.143.534-.507.508h-1.211v-.547h.351c.104 0 .156-.026.156-.078v-.079h1.211v.196Zm-5.039.508h1.407v-.47h-.274c-.13.027-.182-.025-.156-.155v-.04h-1.445v.235c-.047.281.075.425.365.432.032.001.067 0 .103-.002Zm5.04 1.015h-1.133c-.47.026-.677-.156-.625-.547v-.273h1.171V13c-.026.13.04.182.196.156h.39v.586Zm-4.024.04c.208.051.325-.105.352-.47v-.351h-1.368v.156c0 .156-.078.221-.234.195h-.273v.47h1.523Zm.352.546c0 .235-.144.339-.43.313h-3.086v-.547h2.031c.104 0 .156-.026.156-.078v-.118h1.328v.43Zm5.39 4.531v-.78h-1.836v-.235h1.836v-.703h-1.797v-.313h.938c.625.078.911-.182.86-.781v-1.992h-4.845v2.773h1.797v.313H37.11v.703h1.797v.234h-2.031v.781h5.078Zm-6.133-3.75c-.078.26-.182.378-.312.352h-.899v-.586h.547c.078.026.117.013.117-.04v-.116h.586l-.039.39Zm-1.68.391c.261.052.391-.117.391-.508v-.234h-.664v.039c0 .104-.039.143-.117.117h-.703v.586h1.094Zm4.102-.313h.703v-.39h-.703v.39Zm2.578 0h-.742v-.39h.742v.39Zm-4.101 2.93c.052.573-.248.834-.899.781h-2.734v-.585h2.305c.234.026.338-.079.312-.313v-1.64c0-.079-.026-.118-.078-.118h-2.54v-.625h2.58c.051 0 .103-.039.155-.117l.196-.664h.78l-.116.586c-.078.338-.17.508-.274.508.183.052.287.221.313.508v1.68Zm3.867-1.875h-.508v-.39h.742v.195c0 .156-.078.221-.234.195Zm-2.344.04h.703v-.43h-.703v.43Zm-3.476.82c.338.026.547-.053.625-.235l.273-.547h-.781l-.117.157c-.078.078-.144.117-.196.117h-1.484v.508h1.68Zm.625.703c-.026.13-.196.195-.508.195h-1.797v-.586h1.562c.105 0 .183-.039.235-.117l.039-.117h.742l-.273.625Z" fill="#fff"/><path fill="#F29D38" d="M17 29h29v9H17z"/><path fill-rule="evenodd" clip-rule="evenodd" d="M25.973 35v-1.582h1.386V35h.762v-3.613h-.781v1.425h-1.367v-1.425h-.762V35h.762Zm3.28 0 .274-.762h1.426l.274.762h.78l-1.269-3.613h-.918L28.512 35h.742Zm.47-1.367h1.035l-.488-1.543h-.02l-.527 1.543ZM34.957 35v-.605h-1.816l1.777-2.403v-.605h-2.617v.605h1.68l-1.797 2.402V35h2.773Zm2.91-.605V35h-2.48v-3.613h2.422v.605h-1.641v.84h1.523v.605h-1.523v.958h1.7Z" fill="#fff" stroke="#505050"/><path fill-rule="evenodd" clip-rule="evenodd" d="M25.973 35v-1.582h1.386V35h.762v-3.613h-.781v1.425h-1.367v-1.425h-.762V35h.762Zm3.28 0 .274-.762h1.426l.274.762h.78l-1.269-3.613h-.918L28.512 35h.742Zm.47-1.367h1.035l-.488-1.543h-.02l-.527 1.543ZM34.957 35v-.605h-1.816l1.777-2.403v-.605h-2.617v.605h1.68l-1.797 2.402V35h2.773Zm2.91-.605V35h-2.48v-3.613h2.422v.605h-1.641v.84h1.523v.605h-1.523v.958h1.7Z" fill="#fff"/><defs><clipPath id="a"><path fill="#fff" d="M0 0h48v40H0z"/></clipPath></defs></svg>