<svg width="46" height="46" viewBox="0 0 46 46" fill="none" xmlns="http://www.w3.org/2000/svg">
<path fill-rule="evenodd" clip-rule="evenodd" d="M29.3399 16.2744C32.8666 12.8244 36.3626 9.41273 39.8471 5.99148C40.1652 5.67906 40.3761 5.52381 40.792 5.90906C42.9272 7.89473 44.4816 10.2101 45.0087 13.0793C45.7293 16.9951 44.817 20.5121 42.1471 23.5501C40.4527 25.4801 38.3367 26.7547 35.8317 27.4217C35.7473 27.4428 35.6707 27.4984 35.5825 27.5425C35.6362 27.8357 35.8968 27.8664 36.0904 27.945C39.2203 29.2291 42.3522 30.5056 45.4878 31.7745C45.9057 31.9431 46.1299 32.1137 45.9191 32.6197C45.0221 34.7664 43.8587 36.7271 42.0167 38.2413C39.9947 39.905 37.6851 40.9016 35.0439 41.147C31.3217 41.492 28.0672 40.3995 25.2996 37.9806C23.0667 36.0256 21.7499 33.5531 21.3052 30.6436C21.04 29.0218 21.1243 27.362 21.5525 25.7753C21.5966 25.6105 21.6483 25.4207 21.3512 25.1792L5.73999 40.4493C1.92965 37.4919 -0.02918 32.8018 1.03649 28.0504C2.14432 23.0958 5.39499 20.0579 10.2499 18.5322C10.1713 18.1029 9.82824 18.0492 9.54649 17.9342C6.50474 16.6807 3.4649 15.4234 0.415487 14.1871C0.05132 14.0376 -0.0962633 13.9016 0.0647367 13.4952C1.26457 10.4439 3.1199 7.92539 6.12715 6.35756C9.69982 4.49456 13.3837 4.26839 17.1269 5.81706C21.1596 7.48456 23.5918 10.4937 24.5827 14.6299C25.0121 16.422 24.9507 18.2351 24.5233 20.0311C24.4601 20.2917 24.3432 20.5409 24.5176 20.9779L29.3399 16.2744Z" fill="black"/>
</svg>
