<svg width="172" height="46" viewBox="0 0 172 46" fill="none" xmlns="http://www.w3.org/2000/svg">
<path d="M25.0816 44.5625C35.8418 44.5625 44.5626 35.8244 44.5626 25.047C44.5626 14.2677 35.8418 5.53149 25.0816 5.53149C14.3234 5.53149 5.60254 14.2677 5.60254 25.047C5.60254 35.8244 14.3234 44.5625 25.0816 44.5625Z" fill="#3F3FAA"/>
<path d="M20.9185 40.4685C31.6767 40.4685 40.3976 31.7304 40.3976 20.953C40.3976 10.1756 31.6767 1.4375 20.9185 1.4375C10.1583 1.4375 1.4375 10.1756 1.4375 20.953C1.4375 31.7304 10.1583 40.4685 20.9185 40.4685Z" fill="#8E47FF"/>
<path d="M20.6138 33.9404C19.23 33.9404 17.8998 33.4804 16.7901 32.6179C16.1411 32.1125 15.5986 31.4835 15.194 30.7674C14.7894 30.0512 14.5306 29.262 14.4326 28.4453C14.3684 27.948 14.3645 27.4447 14.4211 26.9464C14.0358 27.0231 13.641 27.0538 13.2366 27.0538C11.5792 27.0517 9.99031 26.3923 8.81855 25.2202C7.64678 24.0481 6.98785 22.459 6.98633 20.8016C6.98729 19.8594 7.20069 18.9294 7.61065 18.0811C8.02062 17.2327 8.6166 16.4876 9.35426 15.9014C10.0919 15.3151 10.9523 14.9027 11.8713 14.6949C12.7904 14.487 13.7444 14.4891 14.6626 14.7009C14.5634 13.8252 14.65 12.9385 14.9167 12.0986C15.1834 11.2587 15.6243 10.4844 16.2105 9.82642C16.7967 9.16841 17.5151 8.64143 18.3187 8.27985C19.1224 7.91828 19.9932 7.73024 20.8745 7.72803C21.7453 7.73047 22.6061 7.91458 23.4017 8.2686C24.1973 8.62261 24.9104 9.13874 25.4952 9.78399C26.08 10.4292 26.5237 11.1894 26.7981 12.0159C27.0724 12.8424 27.1713 13.7171 27.0883 14.5839C28.4372 14.3519 29.825 14.568 31.0395 15.1991C32.254 15.8302 33.2285 16.8416 33.8139 18.0788C34.3994 19.316 34.5636 20.7108 34.2815 22.0502C33.9994 23.3895 33.2865 24.5996 32.2518 25.4955C31.6333 26.0332 30.914 26.4426 30.1358 26.6999C29.3576 26.9572 28.5361 27.0573 27.7189 26.9944C27.4185 26.9738 27.12 26.9315 26.8257 26.8679C26.8257 26.8832 26.8353 26.8947 26.8353 26.9062C26.9382 27.722 26.8787 28.5501 26.6603 29.3429C26.4418 30.1356 26.0688 30.8773 25.5627 31.5254C24.9791 32.2818 24.2287 32.8932 23.3699 33.3118C22.5111 33.7303 21.5672 33.9448 20.6119 33.9384L20.6138 33.9404ZM17.1485 25.6738C16.7115 26.4347 16.5352 27.2972 16.6444 28.1731C16.7075 28.6972 16.8734 29.2036 17.1327 29.6634C17.392 30.1232 17.7395 30.5273 18.1553 30.8524C18.5711 31.1776 19.047 31.4175 19.5558 31.5583C20.0645 31.6991 20.596 31.738 21.1198 31.6729C21.6445 31.6099 22.1514 31.4434 22.6114 31.1831C23.0713 30.9229 23.475 30.5741 23.7993 30.1569C24.1249 29.7409 24.3645 29.2645 24.5044 28.7551C24.6442 28.2458 24.6815 27.7137 24.6139 27.1899C24.5286 26.4914 24.2609 25.8277 23.8377 25.2655C23.5615 24.9942 23.3113 24.6978 23.0902 24.38C23.0052 24.2608 22.9446 24.1261 22.9117 23.9835C22.8788 23.8409 22.8744 23.6932 22.8986 23.5488C22.9228 23.4045 22.9752 23.2663 23.0528 23.1422C23.1304 23.0181 23.2316 22.9106 23.3508 22.8256C23.47 22.7407 23.6048 22.68 23.7474 22.6471C23.89 22.6143 24.0377 22.6098 24.182 22.634C24.3264 22.6582 24.4645 22.7106 24.5886 22.7882C24.7127 22.8658 24.8203 22.9671 24.9052 23.0863C24.9896 23.2051 25.0739 23.3105 25.1678 23.4179C25.2464 23.4734 25.3179 23.5384 25.3806 23.6114L25.4879 23.7475C26.0467 24.2489 26.7348 24.5836 27.4742 24.7138C28.2136 24.844 28.9746 24.7644 29.671 24.484C30.3675 24.2036 30.9714 23.7337 31.4143 23.1276C31.8573 22.5214 32.1215 21.8033 32.1771 21.0546C32.2574 19.9928 31.9129 18.9426 31.2193 18.1346C30.5256 17.3267 29.5396 16.8272 28.4779 16.7459C27.6371 16.6812 26.7975 16.8852 26.0802 17.3286C25.9087 17.4703 25.6986 17.5573 25.4771 17.5781C25.2557 17.599 25.0331 17.5528 24.8382 17.4455C24.578 17.3011 24.3852 17.06 24.3016 16.7744C24.218 16.4888 24.2503 16.1818 24.3916 15.9199C24.7245 15.3075 24.8929 14.6192 24.8802 13.9223C24.8675 13.2253 24.6743 12.5436 24.3193 11.9437C23.9643 11.3438 23.4597 10.8463 22.8549 10.4998C22.2501 10.1533 21.5658 9.96958 20.8687 9.96669C20.1425 9.96826 19.4302 10.1663 18.8074 10.5398C18.1845 10.9133 17.6743 11.4484 17.3309 12.0883C16.9875 12.7282 16.8236 13.4491 16.8566 14.1746C16.8896 14.9001 17.1183 15.6032 17.5184 16.2093L17.5759 16.3166C18.7451 17.4551 19.4792 19.0383 19.4792 20.7997C19.4798 21.7361 19.2708 22.6607 18.8675 23.5057C18.4642 24.3508 17.8768 25.0949 17.1485 25.6834V25.6738ZM13.227 16.7747C12.1618 16.7777 11.1414 17.2033 10.3897 17.9579C9.63794 18.7125 9.21631 19.7345 9.21733 20.7997C9.21733 23.023 11.0113 24.8266 13.227 24.8266C14.2947 24.8266 15.3188 24.4024 16.0738 23.6474C16.8288 22.8924 17.253 21.8684 17.253 20.8007C17.253 19.7329 16.8288 18.7089 16.0738 17.9539C15.3188 17.1989 14.2947 16.7747 13.227 16.7747Z" fill="white"/>
<path fill-rule="evenodd" clip-rule="evenodd" d="M55 32.138C55 31.199 55.81 30.515 56.9065 30.515C57.7165 30.515 58.339 30.9425 58.8145 31.754C59.8135 33.5045 61.4845 34.6595 64.2955 34.6595C67.8235 34.6595 69.8725 32.525 69.8725 29.4905C69.8725 26.285 67.537 24.1505 63.913 24.1505H63.5815C62.3425 24.1505 61.627 23.468 61.627 22.4855C61.627 21.5045 62.3425 20.8205 63.5815 20.8205H63.8665C67.0135 20.8205 69.2545 18.9845 69.2545 15.95C69.2545 13.172 67.3015 11.336 64.06 11.336C61.3885 11.336 59.9095 12.5315 59.0995 14.114C58.6705 14.9255 58.0495 15.353 57.2395 15.353C56.143 15.353 55.3795 14.7125 55.3795 13.7735C55.3795 13.517 55.4755 13.133 55.5685 12.8765C56.5675 10.2695 59.4775 8.006 64.1995 8.006C69.8725 8.006 73.354 11.2535 73.354 15.7835C73.354 18.86 71.449 20.9525 69.349 22.1045V22.19C71.449 22.958 73.972 25.523 73.972 29.4545C73.972 34.496 69.967 38 64.2955 38C59.335 38 56.3815 35.78 55.1425 32.96C55.0484 32.6993 55.0002 32.4242 55 32.147V32.138ZM78.265 22.9955C78.265 16.1615 78.5965 14.621 78.979 13.511C80.269 9.9635 83.365 8 87.8455 8C92.3275 8 95.4265 9.965 96.712 13.511C97.0945 14.621 97.426 16.1615 97.426 22.9955C97.426 29.8295 97.0945 31.37 96.712 32.48C95.4265 36.026 92.3275 37.991 87.847 37.991C83.365 37.991 80.2645 36.026 78.979 32.48C78.5965 31.37 78.265 29.8295 78.265 22.9955ZM87.85 34.661C90.235 34.661 91.999 33.6785 92.7595 31.754C93.091 30.857 93.2845 29.6195 93.2845 22.994C93.2845 16.3715 93.094 15.134 92.7595 14.237C91.9945 12.3155 90.2305 11.33 87.8485 11.33C85.4665 11.33 83.6995 12.3125 82.939 14.237C82.6075 15.1325 82.414 16.3715 82.414 22.9955C82.414 29.6195 82.603 30.857 82.939 31.754C83.704 33.674 85.468 34.661 87.85 34.661ZM102.961 33.5465L114.023 20.9015C115.501 19.1915 116.266 17.6945 116.266 15.902C116.266 13.2515 114.312 11.33 111.163 11.33C108.303 11.33 106.727 12.695 106.013 14.834C105.682 15.773 104.964 16.244 104.154 16.244C102.961 16.244 102.149 15.602 102.149 14.579C102.149 14.408 102.198 14.108 102.247 13.937C103.012 10.946 105.917 8 111.307 8C116.695 8 120.365 11.375 120.365 15.905C120.365 18.512 119.222 20.69 117.17 22.955L107.252 34.106V34.19H118.744C119.983 34.19 120.697 34.874 120.697 35.855C120.697 36.8375 119.983 37.52 118.744 37.52H103.725C102.486 37.52 101.771 36.8375 101.771 35.9405C101.771 35.1725 102.103 34.5755 102.964 33.5465H102.961ZM127.468 32.558C128.947 32.558 130.186 33.734 130.186 35.1395C130.186 36.545 128.947 37.721 127.468 37.721C125.991 37.721 124.751 36.545 124.751 35.141C124.751 33.734 125.991 32.558 127.468 32.558ZM134.855 35.1275L144.823 10.391C145.348 9.026 146.158 8.2565 147.586 8.2565C149.015 8.2565 149.921 9.0245 150.446 10.391L160.267 35.126C160.363 35.3825 160.456 35.681 160.456 35.981C160.456 37.049 159.549 37.7315 158.454 37.7315C157.5 37.7315 156.736 37.262 156.403 36.3665L154.21 30.7685H140.909L138.715 36.365C138.382 37.262 137.619 37.73 136.665 37.73C135.57 37.73 134.662 37.049 134.662 35.981C134.662 35.681 134.758 35.3825 134.851 35.126H134.854L134.855 35.1275ZM152.832 27.2645L147.682 14.063H147.54L142.294 27.2645H152.832ZM164.995 10.9025C164.995 9.212 165.852 8.183 166.998 8.183C168.144 8.183 169.001 9.212 169.001 10.9025V35.015C169.001 36.7055 168.144 37.7345 166.998 37.7345C165.852 37.7345 164.995 36.7055 164.995 35.015V10.9025Z" fill="black"/>
</svg>
