<svg width="46" height="46" viewBox="0 0 46 46" fill="none" xmlns="http://www.w3.org/2000/svg">
<g clip-path="url(#clip0_525_592)">
<path fill-rule="evenodd" clip-rule="evenodd" d="M14.7108 0.538607C14.8395 0.336857 15.0272 0.179558 15.2483 0.0880206C15.4694 -0.00351727 15.7134 -0.0248695 15.947 0.0268567L35.2038 4.28569L40.0165 5.34944L41.2202 5.61586L41.5211 5.68102L41.5978 5.70019L41.617 5.70211C41.6183 5.70271 41.6195 5.70335 41.6208 5.70402L41.7358 5.73469C42.0034 5.82308 42.2299 6.00527 42.3736 6.24764C42.5174 6.49001 42.5686 6.77619 42.5178 7.05336L35.5603 45.0417C35.5235 45.2423 35.4349 45.4297 35.3031 45.5854C35.1714 45.741 35.0012 45.8595 34.8095 45.9289C34.6177 45.9983 34.4111 46.0162 34.2103 45.981C34.0094 45.9457 33.8213 45.8584 33.6647 45.7279L3.29321 20.3263C3.07589 20.1444 2.93214 19.8898 2.88876 19.6097C2.84538 19.3297 2.90534 19.0435 3.05746 18.8044L14.7108 0.538607ZM6.40204 19.8835L31.5449 40.9113L20.5049 15.2394L6.40204 19.8835ZM22.7301 14.5073L33.9886 40.687L39.8095 8.88377L22.7282 14.5073H22.7301ZM6.78346 17.2999L19.5772 13.0889L15.5081 3.62636L6.78346 17.2999ZM21.8025 12.3549L37.5095 7.18369L34.6997 6.56269L17.695 2.80219L21.8025 12.3549Z" fill="black"/>
</g>
<defs>
<clipPath id="clip0_525_592">
<rect width="46" height="46" fill="white"/>
</clipPath>
</defs>
</svg>
