<svg width="169" height="46" viewBox="0 0 169 46" fill="none" xmlns="http://www.w3.org/2000/svg">
<g clip-path="url(#clip0_525_626)">
<path fill-rule="evenodd" clip-rule="evenodd" d="M23 2.17017e-05H23.0345C25.8577 -0.00381163 28.5545 0.500272 31.0443 1.44519C39.7804 4.70736 46 13.1292 46 23C46 35.7018 35.7017 46 23 46C10.2983 46 0 35.7018 0 23C0 10.2983 10.2983 2.17017e-05 23 2.17017e-05ZM39.491 36.3534C42.556 32.5787 44.2254 27.8624 44.2175 23C44.2175 19.7091 43.47 16.5907 42.1303 13.8115C41.3972 14.6885 40.384 15.2857 39.2617 15.5022C38.1394 15.7187 36.9767 15.5412 35.9701 14.9999C35.038 14.4821 34.1788 13.8427 33.4152 13.0985C31.2091 10.9825 28.9589 8.93169 26.2507 7.47502C20.0962 4.16111 13.1694 4.59811 7.66858 8.33177C3.88442 12.2766 1.7749 17.5336 1.7825 23C1.7825 26.1874 2.48592 29.2119 3.74517 31.9259C5.18267 30.061 7.82958 29.3461 9.93983 30.5651C11.2182 31.3011 12.3491 32.3284 13.4607 33.3385L13.7981 33.6452C16.4143 36.0104 19.1532 38.1589 22.5342 39.3281C28.3858 41.3464 34.7166 40.1657 39.491 36.3534Z" fill="url(#paint0_linear_525_626)"/>
<path d="M10.8162 19.7647C9.22539 19.9755 8.13097 21.2328 8.11755 22.8658C8.10574 23.658 8.38043 24.4278 8.89108 25.0335C9.40173 25.6392 10.114 26.0402 10.8967 26.1625C12.4396 26.4078 14.0401 25.346 14.4809 23.7475C14.5691 23.4274 14.6266 23.0997 14.6841 22.77C14.732 22.5017 14.7799 22.2295 14.8451 21.965C15.4546 19.4407 17.216 18.2275 20.1887 18.2658C22.2702 18.2907 22.7149 18.7852 23.4087 21.8212C23.4413 21.9669 23.4911 22.1107 23.5429 22.2544C24.0412 23.6229 25.4136 24.4969 26.7437 24.2957C27.4252 24.1884 28.0528 23.8608 28.5304 23.3631C29.0081 22.8653 29.3096 22.2248 29.3887 21.5395C29.5478 20.1422 28.7217 19.1168 27.2382 18.5207C26.5866 18.2601 25.9656 18.2179 25.3311 18.2505C23.9396 18.3214 23.1826 17.5605 22.7647 16.3779C22.6382 15.9721 22.5522 15.5548 22.5079 15.1321C22.4811 14.9538 22.4561 14.7756 22.4255 14.5992C22.1265 12.8992 20.8251 11.7051 19.2266 11.6629C17.7105 11.6246 16.4206 12.719 16.0353 14.3807L15.9203 14.8982L15.8724 15.1225C15.192 18.2582 14.0056 19.3487 10.8162 19.7647Z" fill="url(#paint1_linear_525_626)"/>
<path d="M34.6135 26.151C36.5091 25.7562 37.6361 24.5448 37.6648 22.8984C37.6936 21.3076 36.4688 19.8662 34.8665 19.5941C33.3907 19.3449 31.8018 20.3282 31.3322 21.8557C31.1999 22.2774 31.1079 22.7144 31.0159 23.1514C30.9009 23.7072 30.7821 24.2631 30.5847 24.7882C29.8813 26.6781 27.5314 27.7514 24.9765 27.4601C23.3972 27.278 22.8567 26.6052 22.4043 24.2516C22.0593 22.4537 20.7483 21.3095 19.1824 21.4398C17.5533 21.574 16.2787 23.0287 16.3688 24.6464C16.4646 26.3561 17.6683 27.4064 19.6367 27.5003C22.2721 27.623 22.9908 28.2593 23.3282 30.9254C23.4566 31.9432 23.8399 32.7788 24.6411 33.3941C26.5961 34.8948 29.2545 33.7927 29.7394 31.2704L29.7816 31.0519C30.0729 29.5262 30.3566 28.0293 31.7749 27.025C32.4649 26.5362 33.2335 26.4002 34.0098 26.2641C34.211 26.2277 34.4123 26.1932 34.6135 26.1491V26.151Z" fill="url(#paint2_linear_525_626)"/>
<path d="M26.5074 15.2586C26.5074 15.6424 26.355 16.0105 26.0836 16.2818C25.8122 16.5532 25.4442 16.7057 25.0604 16.7057C24.6766 16.7057 24.3085 16.5532 24.0371 16.2818C23.7657 16.0105 23.6133 15.6424 23.6133 15.2586C23.6133 14.8748 23.7657 14.5067 24.0371 14.2354C24.3085 13.964 24.6766 13.8115 25.0604 13.8115C25.4442 13.8115 25.8122 13.964 26.0836 14.2354C26.355 14.5067 26.5074 14.8748 26.5074 15.2586Z" fill="url(#paint3_linear_525_626)"/>
<path d="M20.7176 31.9662C21.1016 31.9662 21.47 31.8136 21.7415 31.542C22.0131 31.2705 22.1656 30.9022 22.1656 30.5181C22.1656 30.1341 22.0131 29.7658 21.7415 29.4942C21.47 29.2226 21.1016 29.0701 20.7176 29.0701C20.3338 29.0701 19.9657 29.2225 19.6943 29.4939C19.423 29.7653 19.2705 30.1334 19.2705 30.5172C19.2705 30.9009 19.423 31.269 19.6943 31.5404C19.9657 31.8118 20.3338 31.9662 20.7176 31.9662Z" fill="url(#paint4_linear_525_626)"/>
</g>
<path fill-rule="evenodd" clip-rule="evenodd" d="M78.967 8H55V9.794C55 11.324 56.2405 12.5645 57.772 12.5645H79.6195C80.3904 12.5645 81.1538 12.7164 81.866 13.0114C82.5782 13.3065 83.2253 13.739 83.7704 14.2842C84.3154 14.8294 84.7478 15.4766 85.0426 16.1889C85.3375 16.9012 85.4892 17.6646 85.489 18.4355V20.3915H57.934V24.956H85.489V27.728C85.489 29.2847 84.8706 30.7776 83.7699 31.8784C82.6691 32.9791 81.1762 33.5975 79.6195 33.5975H57.772C56.242 33.5975 55 34.838 55 36.3695V38H78.967C80.423 38.0002 81.8648 37.7136 83.2101 37.1565C84.5553 36.5995 85.7777 35.7829 86.8073 34.7534C87.8369 33.7239 88.6537 32.5016 89.2109 31.1565C89.7682 29.8113 90.055 28.3695 90.055 26.9135V19.085C90.0548 17.6291 89.7678 16.1875 89.2105 14.8425C88.6532 13.4975 87.8364 12.2754 86.8068 11.2461C85.7772 10.2168 84.5549 9.4003 83.2097 8.84334C81.8646 8.28637 80.4229 7.9998 78.967 8Z" fill="black"/>
<path fill-rule="evenodd" clip-rule="evenodd" d="M93.9668 18.4355C93.9666 17.065 94.2364 15.708 94.7608 14.4418C95.2851 13.1756 96.0538 12.0251 97.0228 11.056C97.9919 10.087 99.1424 9.31832 100.409 8.79395C101.675 8.26959 103.032 7.9998 104.402 8H128.207V9.956C128.207 11.396 127.037 12.566 125.597 12.566H104.239C102.682 12.566 101.189 13.1844 100.088 14.2851C98.9877 15.3859 98.3693 16.8788 98.3693 18.4355V20.3915H120.869C122.772 20.3915 124.597 21.1474 125.942 22.4929C127.288 23.8383 128.044 25.6632 128.044 27.566V30.8255C128.044 31.7677 127.858 32.7006 127.498 33.5711C127.137 34.4415 126.609 35.2324 125.942 35.8986C125.276 36.5649 124.485 37.0933 123.615 37.4539C122.744 37.8144 121.811 38 120.869 38H104.402C103.032 38.0002 101.675 37.7304 100.409 37.206C99.1424 36.6817 97.9919 35.913 97.0228 34.944C96.0538 33.9749 95.2851 32.8244 94.7608 31.5582C94.2364 30.292 93.9666 28.935 93.9668 27.5645V18.4355ZM98.3693 24.794V27.566C98.3693 30.896 101.069 33.5975 104.402 33.5975H120.542C122.344 33.5975 123.805 32.138 123.805 30.3365V28.055C123.805 26.2535 122.344 24.794 120.544 24.794H98.3693ZM142.39 8.1635C139.666 8.1639 137.053 9.2463 135.127 11.1726C133.201 13.099 132.119 15.7115 132.119 18.4355V27.728C132.119 30.4523 133.202 33.065 135.128 34.9914C137.054 36.9178 139.667 38 142.391 38H156.086C158.811 38 161.423 36.9178 163.35 34.9914C165.276 33.065 166.358 30.4523 166.358 27.728V18.4355C166.358 15.7112 165.276 13.0985 163.35 11.1721C161.423 9.24573 158.811 8.1635 156.086 8.1635H142.391H142.39ZM142.39 12.5645C141.619 12.5647 140.856 12.7167 140.144 13.0119C139.432 13.307 138.785 13.7395 138.24 14.2847C137.695 14.8299 137.263 15.477 136.968 16.1892C136.673 16.9014 136.522 17.6647 136.522 18.4355V27.728C136.522 29.2847 137.14 30.7776 138.241 31.8784C139.342 32.9791 140.835 33.5975 142.391 33.5975H156.086C157.643 33.5975 159.136 32.9791 160.237 31.8784C161.337 30.7776 161.956 29.2847 161.956 27.728V18.4355C161.956 17.6646 161.804 16.9012 161.509 16.1889C161.215 15.4766 160.782 14.8294 160.237 14.2842C159.692 13.739 159.045 13.3065 158.333 13.0114C157.621 12.7164 156.857 12.5645 156.086 12.5645H142.391H142.39Z" fill="black"/>
<defs>
<linearGradient id="paint0_linear_525_626" x1="23" y1="2.17017e-05" x2="23" y2="46" gradientUnits="userSpaceOnUse">
<stop stop-color="#12B7FA"/>
<stop offset="1" stop-color="#006FFB"/>
</linearGradient>
<linearGradient id="paint1_linear_525_626" x1="22.8912" y1="11.6629" x2="22.8912" y2="34.0745" gradientUnits="userSpaceOnUse">
<stop stop-color="#006FFB"/>
<stop offset="1" stop-color="#12B7FA"/>
</linearGradient>
<linearGradient id="paint2_linear_525_626" x1="22.8912" y1="11.6629" x2="22.8912" y2="34.0745" gradientUnits="userSpaceOnUse">
<stop stop-color="#006FFB"/>
<stop offset="1" stop-color="#12B7FA"/>
</linearGradient>
<linearGradient id="paint3_linear_525_626" x1="22.8907" y1="11.6629" x2="22.8907" y2="34.0745" gradientUnits="userSpaceOnUse">
<stop stop-color="#006FFB"/>
<stop offset="1" stop-color="#12B7FA"/>
</linearGradient>
<linearGradient id="paint4_linear_525_626" x1="22.8911" y1="11.6629" x2="22.8911" y2="34.0745" gradientUnits="userSpaceOnUse">
<stop stop-color="#006FFB"/>
<stop offset="1" stop-color="#12B7FA"/>
</linearGradient>
<clipPath id="clip0_525_626">
<rect width="46" height="46" fill="white"/>
</clipPath>
</defs>
</svg>
