<svg width="46" height="46" viewBox="0 0 46 46" fill="none" xmlns="http://www.w3.org/2000/svg">
<path d="M16.9778 32.8038C17.2768 32.0103 17.1024 32.2805 17.9266 32.9916C21.8998 36.4263 37.7334 29.4362 35.2437 25.3498C32.1674 21.0891 20.056 23.9698 13.2039 25.2578C14.2964 24.7614 18.6377 23.345 20.2687 22.9329C22.5093 22.3656 23.4312 22.1816 25.5166 21.6852C20.8207 22.1643 13.6026 24.5468 6.94983 27.0461C10.1928 24.4663 16.6807 22.1816 18.17 21.4858C15.0918 22.1816 9.361 24.7595 5.05042 26.9388C2.60283 28.175 1.78633 28.635 0 29.6278C1.334 28.4874 2.9325 26.9771 5.65608 25.3805C8.94125 23.4581 9.13483 23.3718 10.1277 22.7758C7.74333 23.7686 5.56025 24.7633 4.071 25.2598C5.55258 24.2363 8.33942 22.678 9.43192 22.1816C9.10033 22.2103 8.43908 22.4787 8.04233 22.5783C10.028 21.4858 11.4904 20.9875 12.3242 20.7192C26.5458 16.0387 42.9889 16.537 45.5208 21.7312C48.0547 26.9253 40.2193 34.1627 29.5224 36.5068C27.6709 36.9131 26.0322 37.1354 24.4893 37.1929C22.8869 37.2523 21.7139 37.1833 20.585 36.9629C17.5892 36.3783 16.2974 34.6016 16.9778 32.8038Z" fill="#003E97"/>
<path d="M22.0419 11.8546C23.3318 12.0539 23.9279 12.1536 24.6236 12.1536C23.5311 11.4578 23.2781 11.3773 20.752 9.96858C23.2321 9.77117 24.4051 9.92258 27.2035 9.86892C26.0132 9.17508 25.4171 9.17508 24.1272 8.579C25.9107 8.43896 27.6992 8.37246 29.4881 8.37967C29.2756 8.09424 29.0043 7.85766 28.6927 7.68583C31.4719 7.58617 35.4202 7.86983 37.6723 8.87417C42.0653 10.8426 41.496 13.8939 36.5798 14.7449C35.677 14.9002 34.0594 15.0286 32.988 15.0324C31.6129 15.0145 30.2419 14.8785 28.8901 14.6261C25.304 13.9399 22.5383 12.7478 22.0419 11.8546Z" fill="#D70D19"/>
</svg>
