<svg width="324" height="46" viewBox="0 0 324 46" fill="none" xmlns="http://www.w3.org/2000/svg">
<g clip-path="url(#clip0_525_619)">
<path d="M28.8041 27.14C28.737 27.876 28.9747 28.6216 29.4807 29.1659C29.9886 29.7103 30.7055 29.9978 31.3552 30.2546C32.0644 30.5325 32.6815 30.7587 33.3447 31.1516C33.9772 31.5253 34.5369 31.9892 35.0045 32.5623C35.9324 33.6978 36.4047 35.1379 36.3296 36.6024C36.2545 38.0669 35.6373 39.4511 34.5982 40.4858C33.5665 41.5142 32.1835 42.1137 30.7276 42.1635C29.2717 42.2132 27.8509 41.7097 26.7514 40.7541C26.1664 40.2236 25.6529 39.6193 25.2238 38.9563C24.576 34.7128 25.8333 30.268 28.8041 27.14Z" fill="#85A8FF"/>
<path d="M31.5425 24.9627C32.2555 24.5468 32.9225 24.2535 33.6988 23.9794C34.4463 23.7188 35.2072 23.5022 35.9758 23.3086C36.7425 23.1131 37.5149 22.9483 38.2892 22.7815C39.0616 22.6167 39.8302 22.4557 40.5777 22.172C44.2385 20.7671 46.4561 16.997 45.9214 13.0755C45.3847 9.15593 42.2414 6.13335 38.339 5.7826C36.5661 5.62543 34.8545 6.0471 33.2714 6.78693C31.692 7.52293 30.2469 8.56943 28.9895 9.76735C26.45 12.1823 24.5716 15.2835 23.4274 18.584C22.2825 21.9242 21.8363 25.464 22.1164 28.9838C22.2505 30.728 22.5649 32.4856 23.067 34.1646C23.5577 35.811 24.2688 37.5111 25.2252 38.9524C24.8093 36.2456 25.1716 33.4763 26.2698 30.9676C27.3661 28.4759 29.185 26.3388 31.5425 24.9627Z" fill="#0057CC"/>
<path d="M15.2604 27.3508C15.0134 27.0667 14.7449 26.8021 14.4573 26.5593C14.8176 27.1822 14.854 27.8913 14.7026 28.5718C14.54 29.2455 14.2297 29.8746 13.7941 30.4137C13.3562 30.9481 12.8497 31.4225 12.2876 31.8243C11.8027 32.1885 11.0935 32.6504 10.6546 33.0855C10.0264 33.7106 9.62287 34.5262 9.50706 35.4049C9.39125 36.2835 9.56966 37.1758 10.0144 37.9423C10.4532 38.7068 11.1364 39.3014 11.9542 39.6303C12.7719 39.9592 13.6766 40.0033 14.5224 39.7555C15.4808 39.4718 16.2954 38.8355 16.9413 38.1072C17.5929 37.3693 18.1239 36.4933 18.5436 35.6078C18.439 32.5582 17.2784 29.6396 15.2604 27.3508Z" fill="#85A8FF"/>
<path d="M7.06655 10.3423C9.72497 10.3404 12.3048 11.8316 14.1735 13.5048C16.1573 15.2816 17.6925 17.5452 18.7045 20.0062C19.7204 22.4787 20.211 25.1543 20.1919 27.8262C20.1727 30.4213 19.6667 33.235 18.5435 35.6078C18.4392 32.557 17.2787 29.6371 15.2603 27.347C14.9174 26.9475 14.5274 26.591 14.0988 26.2852C13.6659 25.9884 13.1953 25.7505 12.6996 25.5779C11.7298 25.231 10.6335 25.0681 9.6253 24.9569C8.58455 24.8381 7.53996 24.7691 6.50113 24.6138C5.43546 24.4548 4.47905 24.219 3.52838 23.6613C2.17835 22.8666 1.12606 21.6513 0.532705 20.2015C-0.060648 18.7517 -0.162338 17.1474 0.243215 15.6343C0.638605 14.1238 1.52193 12.7863 2.75586 11.8297C3.9898 10.873 5.50522 10.3489 7.06655 10.3423Z" fill="#0057CC"/>
</g>
<g clip-path="url(#clip1_525_619)">
<path fill-rule="evenodd" clip-rule="evenodd" d="M311.559 33.605C309.798 33.605 308.221 33.206 306.827 32.408C305.453 31.6085 304.325 30.4478 303.567 29.0525C302.79 27.638 302.403 26.063 302.403 24.3275C302.403 22.595 302.79 21.02 303.567 19.604C304.321 18.2144 305.45 17.0642 306.827 16.2845C308.221 15.4625 309.798 15.0515 311.559 15.0515C313.319 15.0515 314.897 15.4625 316.291 16.2845C317.664 17.0837 318.791 18.2439 319.549 19.6385C320.328 21.0545 320.715 22.6175 320.715 24.329C320.715 26.063 320.328 27.638 319.549 29.054C318.791 30.4487 317.664 31.6089 316.291 32.408C314.897 33.206 313.319 33.605 311.559 33.605ZM311.559 30.149C312.519 30.149 313.41 29.9195 314.234 29.4635C315.057 28.9835 315.708 28.3115 316.189 27.4445C316.692 26.5535 316.943 25.5155 316.943 24.329C316.943 23.1425 316.692 22.115 316.189 21.248C315.741 20.4131 315.062 19.7239 314.234 19.262C313.423 18.7863 312.499 18.5381 311.559 18.5435C310.599 18.5435 309.708 18.7835 308.884 19.2635C308.051 19.7299 307.362 20.4165 306.894 21.248C306.415 22.115 306.175 23.1425 306.175 24.329C306.175 25.5155 306.415 26.5535 306.894 27.4445C307.368 28.2809 308.054 28.9775 308.884 29.4635C309.701 29.9188 310.623 30.1549 311.559 30.149ZM296.949 13.067C296.613 13.0729 296.28 13.0123 295.968 12.8888C295.656 12.7652 295.371 12.581 295.131 12.347C294.897 12.107 294.712 11.823 294.589 11.5114C294.465 11.1999 294.405 10.867 294.411 10.532C294.411 9.827 294.651 9.233 295.131 8.753C295.366 8.51022 295.649 8.31816 295.962 8.18866C296.275 8.05915 296.611 7.99495 296.949 8C297.657 8 298.252 8.2505 298.731 8.753C299.235 9.233 299.487 9.8255 299.487 10.5335C299.487 11.24 299.235 11.846 298.731 12.3485C298.499 12.5835 298.221 12.7684 297.915 12.892C297.608 13.0156 297.28 13.0751 296.949 13.067ZM295.063 15.599H298.835V33.059H295.063V15.599ZM281.065 33.605C279.487 33.605 278.058 33.206 276.778 32.408C275.497 31.6085 274.48 30.5135 273.725 29.1215C272.994 27.7055 272.628 26.1095 272.628 24.329C272.628 22.5485 272.994 20.963 273.725 19.571C274.48 18.155 275.497 17.048 276.778 16.25C278.058 15.4505 279.487 15.0515 281.065 15.0515C282.299 15.0515 283.408 15.326 284.391 15.8735C285.375 16.421 286.117 17.0945 286.621 17.8925H286.792L286.621 15.428V8.5475H290.393V33.0575H286.792V30.8H286.621C286.117 31.5755 285.375 32.2385 284.391 32.786C283.408 33.3335 282.299 33.605 281.065 33.605ZM281.613 30.1475C282.527 30.1475 283.373 29.9075 284.152 29.429C284.951 28.949 285.591 28.265 286.072 27.374C286.551 26.486 286.792 25.469 286.792 24.329C286.792 23.189 286.551 22.184 286.072 21.317C285.591 20.426 284.951 19.742 284.152 19.262C283.391 18.7873 282.511 18.5377 281.613 18.542C280.698 18.542 279.842 18.782 279.041 19.262C278.241 19.742 277.601 20.426 277.12 21.317C276.641 22.184 276.4 23.1875 276.4 24.329C276.4 25.469 276.641 26.486 277.12 27.374C277.601 28.265 278.241 28.949 279.041 29.429C279.842 29.909 280.698 30.149 281.613 30.149V30.1475ZM260.173 33.605C258.047 33.605 256.424 32.978 255.303 31.7225C254.206 30.4445 253.658 28.6775 253.658 26.417V15.599H257.429V25.904C257.429 27.3185 257.762 28.379 258.424 29.087C259.11 29.795 260.002 30.1475 261.099 30.1475C261.99 30.1475 262.779 29.9195 263.466 29.4635C264.151 28.9835 264.677 28.3565 265.042 27.581C265.41 26.7994 265.598 25.9455 265.592 25.082V15.599H269.364V33.059H265.798V30.7985H265.592C265.112 31.6205 264.369 32.294 263.362 32.8175C262.38 33.3366 261.285 33.6071 260.173 33.605ZM247.532 33.332C246.784 33.3372 246.04 33.2097 245.337 32.9555C244.65 32.705 244.091 32.3735 243.657 31.9625C242.672 30.9815 242.181 29.6465 242.181 27.9575V18.92H239.129V15.599H242.181V10.67H245.954V15.599H250.207V18.92H245.954V27.1355C245.954 28.0715 246.136 28.733 246.503 29.1215C246.845 29.5775 247.441 29.8055 248.287 29.8055C248.674 29.8055 249.017 29.7605 249.315 29.6705C249.612 29.555 249.932 29.384 250.275 29.156V32.819C249.52 33.161 248.607 33.332 247.532 33.332ZM229.158 33.605C227.183 33.6248 225.256 33.0001 223.67 31.826C222.047 30.6395 220.927 28.973 220.31 26.828L223.945 25.3565C224.31 26.702 224.95 27.809 225.865 28.676C226.803 29.5205 227.923 29.9435 229.226 29.9435C230.438 29.9435 231.466 29.6345 232.312 29.018C233.158 28.379 233.582 27.512 233.582 26.417C233.582 25.412 233.205 24.5915 232.451 23.9525C231.719 23.291 230.426 22.628 228.575 21.9665L227.032 21.419C225.385 20.849 224.002 20.027 222.881 18.9545C221.761 17.882 221.201 16.4675 221.201 14.7095C221.201 13.5005 221.533 12.3815 222.196 11.3555C222.858 10.328 223.774 9.518 224.94 8.9255C226.128 8.3075 227.466 8 228.952 8C231.101 8 232.816 8.525 234.096 9.575C235.376 10.601 236.234 11.765 236.669 13.067L233.205 14.5385C232.952 13.763 232.473 13.0775 231.764 12.4835C231.056 11.891 230.141 11.594 229.02 11.594C227.9 11.594 226.952 11.879 226.173 12.449C225.419 13.0205 225.042 13.751 225.042 14.6405C225.042 15.485 225.385 16.181 226.071 16.73C226.757 17.2775 227.831 17.8025 229.295 18.305L230.838 18.818C232.942 19.5485 234.565 20.507 235.709 21.6935C236.875 22.8575 237.458 24.4205 237.458 26.3825C237.458 27.98 237.046 29.327 236.222 30.422C235.406 31.4898 234.315 32.3179 233.067 32.819C231.83 33.3399 230.501 33.6062 229.158 33.605ZM205.614 8.5475H209.455V33.0575H205.614V8.5475ZM188.662 8.5475H193.053L202.277 33.0575H198.024L195.83 26.7935H185.917L183.687 33.0575H179.435L188.662 8.5475ZM194.527 23.2325L191.921 15.9425L190.959 13.1H190.755L189.793 15.941L187.187 23.234H194.527V23.2325ZM162.348 33.605C160.634 33.605 159.09 33.206 157.718 32.408C156.378 31.6188 155.276 30.4834 154.528 29.1215C153.773 27.707 153.396 26.1215 153.396 24.3635C153.396 22.697 153.763 21.1565 154.493 19.742C155.211 18.3446 156.289 17.1631 157.616 16.319C158.941 15.4745 160.45 15.0515 162.142 15.0515C163.902 15.0515 165.423 15.44 166.703 16.2155C167.98 16.9628 169.007 18.0709 169.653 19.4C170.338 20.7455 170.681 22.2635 170.681 23.9525C170.681 24.272 170.648 24.6725 170.579 25.151H157.17C157.306 26.771 157.877 28.0265 158.883 28.916C159.873 29.7692 161.142 30.2317 162.45 30.2165C163.525 30.2165 164.452 29.9765 165.229 29.4965C166.029 28.9954 166.689 28.3016 167.149 27.479L170.338 28.985C169.516 30.422 168.44 31.5515 167.115 32.3735C165.789 33.1955 164.2 33.605 162.348 33.605ZM166.841 22.2755C166.787 21.634 166.588 21.0132 166.257 20.4605C165.914 19.8455 165.388 19.331 164.679 18.92C163.994 18.509 163.148 18.305 162.142 18.305C160.931 18.305 159.902 18.6695 159.056 19.4C158.232 20.1065 157.661 21.065 157.341 22.2755H166.841ZM146.318 8.5475H150.09V33.0575H146.318V8.5475ZM133.174 41C131.025 41 129.242 40.5095 127.824 39.5285C126.429 38.5475 125.491 37.3835 125.012 36.0365L128.544 34.565C128.891 35.4548 129.501 36.2184 130.293 36.755C131.116 37.325 132.077 37.61 133.174 37.61C134.774 37.61 136.021 37.1315 136.912 36.173C137.828 35.237 138.284 33.914 138.284 32.2025V30.593H138.079C137.508 31.415 136.741 32.066 135.779 32.5445C134.843 33.0005 133.757 33.23 132.523 33.23C131.084 33.2364 129.671 32.845 128.441 32.099C127.184 31.346 126.178 30.284 125.424 28.916C124.692 27.524 124.327 25.937 124.327 24.158C124.327 22.3775 124.692 20.8025 125.424 19.433C126.178 18.041 127.184 16.9685 128.441 16.2155C129.664 15.4494 131.079 15.0457 132.523 15.0515C133.734 15.0515 134.821 15.2915 135.781 15.7715C136.741 16.25 137.508 16.901 138.079 17.7215H138.284V15.599H141.885V32.099C141.885 33.9935 141.52 35.603 140.788 36.926C140.096 38.2332 139.019 39.2966 137.701 39.9725C136.398 40.658 134.888 41 133.174 41ZM133.208 29.8055C134.123 29.8055 134.969 29.5895 135.748 29.156C136.534 28.6893 137.174 28.0137 137.598 27.2045C138.056 26.3375 138.284 25.322 138.284 24.158C138.284 22.3775 137.793 20.9975 136.809 20.015C135.848 19.01 134.649 18.509 133.208 18.509C132.272 18.509 131.414 18.737 130.637 19.1945C129.858 19.628 129.242 20.267 128.784 21.1115C128.327 21.956 128.099 22.9715 128.099 24.1565C128.099 25.3445 128.327 26.36 128.784 27.2045C129.208 28.0136 129.85 28.6887 130.637 29.1545C131.414 29.5895 132.27 29.8055 133.208 29.8055ZM112.652 33.605C110.891 33.605 109.313 33.206 107.918 32.408C106.545 31.6083 105.418 30.4476 104.66 29.0525C103.883 27.638 103.494 26.063 103.494 24.3275C103.494 22.595 103.883 21.02 104.66 19.604C105.413 18.2146 106.542 17.0643 107.918 16.2845C109.313 15.4625 110.891 15.0515 112.652 15.0515C114.41 15.0515 115.988 15.4625 117.384 16.2845C118.757 17.0838 119.884 18.2439 120.642 19.6385C121.419 21.0545 121.808 22.6175 121.808 24.329C121.808 26.063 121.419 27.638 120.642 29.054C119.884 30.4486 118.757 31.6087 117.384 32.408C115.989 33.206 114.412 33.6065 112.65 33.6065L112.652 33.605ZM112.652 30.149C113.611 30.149 114.503 29.9195 115.327 29.4635C116.149 28.9835 116.799 28.3115 117.28 27.4445C117.784 26.5535 118.035 25.5155 118.035 24.329C118.035 23.1425 117.784 22.115 117.28 21.248C116.833 20.4133 116.155 19.7241 115.327 19.262C114.516 18.7863 113.592 18.5381 112.652 18.5435C111.69 18.5435 110.799 18.7835 109.977 19.2635C109.144 19.7299 108.455 20.4165 107.987 21.248C107.506 22.115 107.266 23.1425 107.266 24.329C107.266 25.5155 107.506 26.5535 107.987 27.4445C108.46 28.2807 109.146 28.9773 109.975 29.4635C110.793 29.9188 111.716 30.1549 112.652 30.149ZM91.819 33.605C90.0578 33.605 88.4814 33.206 87.0853 32.408C85.712 31.6083 84.5851 30.4476 83.8273 29.0525C83.0504 27.638 82.6627 26.063 82.6627 24.3275C82.6627 22.595 83.0504 21.02 83.8288 19.604C84.5817 18.2146 85.7106 17.0643 87.0868 16.2845C88.4814 15.4625 90.0578 15.0515 91.819 15.0515C93.5803 15.0515 95.1567 15.4625 96.5527 16.2845C97.9252 17.084 99.0516 18.2442 99.8092 19.6385C100.588 21.0545 100.975 22.6175 100.975 24.329C100.975 26.063 100.588 27.638 99.8092 29.054C99.0512 30.4486 97.9243 31.6087 96.5512 32.408C95.1567 33.206 93.5803 33.605 91.819 33.605ZM91.819 30.149C92.7793 30.149 93.6704 29.9195 94.4939 29.4635C95.3175 28.9835 95.9682 28.3115 96.4475 27.4445C96.9525 26.5535 97.2034 25.5155 97.2034 24.329C97.2034 23.1425 96.9525 22.115 96.449 21.248C96.0013 20.4133 95.3234 19.7241 94.4954 19.262C93.6845 18.786 92.7597 18.5378 91.819 18.5435C90.8588 18.5435 89.9676 18.7835 89.1441 19.2635C88.3106 19.7297 87.6222 20.4164 87.1545 21.248C86.6736 22.115 86.4346 23.1425 86.4346 24.329C86.4346 25.5155 86.6751 26.5535 87.156 27.4445C87.6286 28.2808 88.3145 28.9774 89.1441 29.4635C89.9615 29.9188 90.883 30.1549 91.819 30.149ZM67.8665 33.605C65.5342 33.605 63.3853 33.047 61.4196 31.928C59.4788 30.8349 57.8587 29.2534 56.7205 27.341C55.5784 25.379 55.0059 23.1995 55.0059 20.8025C55.0059 18.407 55.5769 16.238 56.7205 14.2985C57.851 12.3716 59.4723 10.7776 61.4196 9.6785C63.3853 8.558 65.5342 8 67.8665 8C69.7179 8 71.4446 8.33 73.045 8.993C74.6455 9.6545 75.9829 10.5785 77.0574 11.765L74.3825 14.435C73.5853 13.5473 72.6016 12.8461 71.5017 12.3815C70.4047 11.9015 69.1814 11.6615 67.8319 11.6615C66.254 11.6615 64.7813 12.0395 63.4078 12.7925C62.0371 13.545 60.899 14.6577 60.1168 16.01C59.2932 17.402 58.8815 18.9995 58.8815 20.8025C58.8815 22.6055 59.2932 24.203 60.1153 25.595C60.8977 26.948 62.0364 28.0613 63.4078 28.814C64.7726 29.5653 66.3079 29.9543 67.8665 29.9435C69.3302 29.9435 70.5534 29.726 71.5362 29.2925C72.5097 28.8652 73.4028 28.2746 74.1766 27.5465C74.68 27.044 75.1038 26.417 75.4464 25.664C75.8116 24.911 76.052 24.089 76.1663 23.1995H67.8319V19.775H79.8014C79.9156 20.414 79.9728 21.0755 79.9728 21.7595C79.9728 23.312 79.7323 24.8075 79.2529 26.2445C78.7854 27.6389 77.9981 28.905 76.9537 29.942C74.6455 32.384 71.6159 33.605 67.8665 33.605Z" fill="black"/>
</g>
<defs>
<clipPath id="clip0_525_619">
<rect width="46" height="46" fill="white"/>
</clipPath>
<clipPath id="clip1_525_619">
<rect width="272" height="36" fill="white" transform="translate(52 5)"/>
</clipPath>
</defs>
</svg>
