<svg width="46" height="46" viewBox="0 0 46 46" fill="none" xmlns="http://www.w3.org/2000/svg">
<g clip-path="url(#clip0_525_513)">
<path d="M28.8041 27.14C28.737 27.876 28.9747 28.6216 29.4807 29.1659C29.9886 29.7103 30.7055 29.9978 31.3552 30.2546C32.0644 30.5325 32.6815 30.7587 33.3447 31.1516C33.9772 31.5253 34.5369 31.9892 35.0045 32.5623C35.9324 33.6978 36.4047 35.1379 36.3296 36.6024C36.2545 38.0669 35.6373 39.4511 34.5982 40.4858C33.5665 41.5142 32.1835 42.1137 30.7276 42.1635C29.2717 42.2132 27.8509 41.7097 26.7514 40.7541C26.1664 40.2236 25.6529 39.6193 25.2238 38.9563C24.576 34.7128 25.8333 30.268 28.8041 27.14Z" fill="#85A8FF"/>
<path d="M31.5425 24.9627C32.2555 24.5468 32.9225 24.2535 33.6988 23.9794C34.4463 23.7188 35.2072 23.5022 35.9758 23.3086C36.7425 23.1131 37.5149 22.9483 38.2892 22.7815C39.0616 22.6167 39.8302 22.4557 40.5777 22.172C44.2385 20.7671 46.4561 16.997 45.9214 13.0755C45.3847 9.15593 42.2414 6.13335 38.339 5.7826C36.5661 5.62543 34.8545 6.0471 33.2714 6.78693C31.692 7.52293 30.2469 8.56943 28.9895 9.76735C26.45 12.1823 24.5716 15.2835 23.4274 18.584C22.2825 21.9242 21.8363 25.464 22.1164 28.9838C22.2505 30.728 22.5649 32.4856 23.067 34.1646C23.5577 35.811 24.2688 37.5111 25.2252 38.9524C24.8093 36.2456 25.1716 33.4763 26.2698 30.9676C27.3661 28.4759 29.185 26.3388 31.5425 24.9627Z" fill="#0057CC"/>
<path d="M15.2604 27.3508C15.0134 27.0667 14.7449 26.8021 14.4573 26.5593C14.8176 27.1822 14.854 27.8913 14.7026 28.5718C14.54 29.2455 14.2297 29.8746 13.7941 30.4137C13.3562 30.9481 12.8497 31.4225 12.2876 31.8243C11.8027 32.1885 11.0935 32.6504 10.6546 33.0855C10.0264 33.7106 9.62287 34.5262 9.50706 35.4049C9.39125 36.2835 9.56966 37.1758 10.0144 37.9423C10.4532 38.7068 11.1364 39.3014 11.9542 39.6303C12.7719 39.9592 13.6766 40.0033 14.5224 39.7555C15.4808 39.4718 16.2954 38.8355 16.9413 38.1072C17.5929 37.3693 18.1239 36.4933 18.5436 35.6078C18.439 32.5582 17.2784 29.6396 15.2604 27.3508Z" fill="#85A8FF"/>
<path d="M7.06655 10.3423C9.72497 10.3404 12.3048 11.8316 14.1735 13.5048C16.1573 15.2816 17.6925 17.5452 18.7045 20.0062C19.7204 22.4787 20.211 25.1543 20.1919 27.8262C20.1727 30.4213 19.6667 33.235 18.5435 35.6078C18.4392 32.557 17.2787 29.6371 15.2603 27.347C14.9174 26.9475 14.5274 26.591 14.0988 26.2852C13.6659 25.9884 13.1953 25.7505 12.6996 25.5779C11.7298 25.231 10.6335 25.0681 9.6253 24.9569C8.58455 24.8381 7.53996 24.7691 6.50113 24.6138C5.43546 24.4548 4.47905 24.219 3.52838 23.6613C2.17835 22.8666 1.12606 21.6513 0.532705 20.2015C-0.060648 18.7517 -0.162338 17.1474 0.243215 15.6343C0.638605 14.1238 1.52193 12.7863 2.75586 11.8297C3.9898 10.873 5.50522 10.3489 7.06655 10.3423Z" fill="#0057CC"/>
</g>
<defs>
<clipPath id="clip0_525_513">
<rect width="46" height="46" fill="white"/>
</clipPath>
</defs>
</svg>
