<svg width="46" height="46" viewBox="0 0 46 46" fill="none" xmlns="http://www.w3.org/2000/svg">
<path fill-rule="evenodd" clip-rule="evenodd" d="M4.54858 8.24358L1.91699 14.6874C3.04628 15.1315 4.07195 15.8035 4.93 16.6616C5.78805 17.5196 6.46008 18.5453 6.90416 19.6746C8.77483 24.3168 6.55916 29.5818 1.98599 31.4525L4.61949 37.8925C8.63683 36.2308 11.7552 33.1123 13.348 29.095C14.1406 27.1482 14.5418 25.0643 14.5286 22.9624C14.5154 20.8605 14.088 18.7818 13.271 16.8451C12.454 14.9084 11.2632 13.1518 9.76693 11.6755C8.27061 10.1993 6.49802 9.03245 4.55049 8.24167L4.54858 8.24358ZM11.3393 40.388L15.4947 46C17.5052 44.5452 19.305 42.7436 20.8287 40.8058L15.4257 36.5087C14.2379 37.9738 12.8642 39.2779 11.3393 40.388ZM27.1346 23.069C27.1346 14.0626 22.7703 5.543 15.4947 0.207L11.3393 5.819C16.8804 9.83633 20.1368 16.2802 20.2058 23.138C20.2068 27.5889 21.2544 31.9772 23.264 35.9486C25.2737 39.92 28.1891 43.3631 31.7748 46L35.8631 40.388C30.3891 36.3017 27.1346 29.9268 27.1346 23.069ZM36.072 5.681L32.0508 0C29.9129 1.52612 28.0004 3.34565 26.3698 5.405L31.7748 9.69833C33.0159 8.16957 34.4604 6.8179 36.0682 5.681H36.072ZM40.7812 26.9483C38.6346 22.3081 40.7122 16.7651 45.3544 14.6184L42.4449 8.31258C38.8598 9.9676 36.0021 12.8744 34.4083 16.4872C30.736 24.6617 34.4083 34.293 42.6519 37.8963L45.4924 31.5905C43.4072 30.6712 41.7312 29.0197 40.7812 26.9483Z" fill="black"/>
</svg>
