<svg width="388" height="46" viewBox="0 0 388 46" fill="none" xmlns="http://www.w3.org/2000/svg">
<path fill-rule="evenodd" clip-rule="evenodd" d="M4.54858 8.24358L1.91699 14.6874C3.04628 15.1315 4.07195 15.8035 4.93 16.6616C5.78805 17.5196 6.46008 18.5453 6.90416 19.6746C8.77483 24.3168 6.55916 29.5818 1.98599 31.4525L4.61949 37.8925C8.63683 36.2308 11.7552 33.1123 13.348 29.095C14.1406 27.1482 14.5418 25.0643 14.5286 22.9624C14.5154 20.8605 14.088 18.7818 13.271 16.8451C12.454 14.9084 11.2632 13.1518 9.76693 11.6755C8.27061 10.1993 6.49802 9.03245 4.55049 8.24167L4.54858 8.24358ZM11.3393 40.388L15.4947 46C17.5052 44.5452 19.305 42.7436 20.8287 40.8058L15.4257 36.5087C14.2379 37.9738 12.8642 39.2779 11.3393 40.388ZM27.1346 23.069C27.1346 14.0626 22.7703 5.543 15.4947 0.207L11.3393 5.819C16.8804 9.83633 20.1368 16.2802 20.2058 23.138C20.2068 27.5889 21.2544 31.9772 23.264 35.9486C25.2737 39.92 28.1891 43.3631 31.7748 46L35.8631 40.388C30.3891 36.3017 27.1346 29.9268 27.1346 23.069ZM36.072 5.681L32.0508 0C29.9129 1.52612 28.0004 3.34565 26.3698 5.405L31.7748 9.69833C33.0159 8.16957 34.4604 6.8179 36.0682 5.681H36.072ZM40.7812 26.9483C38.6346 22.3081 40.7122 16.7651 45.3544 14.6184L42.4449 8.31258C38.8598 9.9676 36.0021 12.8744 34.4083 16.4872C30.736 24.6617 34.4083 34.293 42.6519 37.8963L45.4924 31.5905C43.4072 30.6712 41.7312 29.0197 40.7812 26.9483Z" fill="black"/>
<path d="M63.6835 38H55L65.434 8H77.65L88.084 38H78.817L74.0665 23.1335L71.6995 15.3005H71.0665L68.617 23.1335L63.6835 38ZM81.9505 32.216H61.084V24.884H81.949L81.9505 32.216ZM100.234 38H91.7995V8H100.234V38ZM115.267 38H94.132V30.434H115.267V38ZM128.517 38H120.034V8H128.434L128.517 38ZM144.334 15.566H122.399V8H144.334V15.566ZM143.683 26.717H122.399V19.2005H143.685V26.7155L143.683 26.717ZM144.334 38H122.399V30.434H144.334V38ZM189.75 38H181.316V8H189.75V38ZM205.4 26.717H183.583V19.1495H205.4V26.717ZM209.5 38H200.917V8H209.35L209.5 38ZM232.666 38H223.984L234.417 8H246.65L257.083 38H247.867L243.117 23.1335L240.75 15.3005H240.05L237.566 23.1335L232.666 38ZM251.066 32.216H230.184V24.884H251.05V32.216H251.066ZM269.184 38H260.917V8H269.317L269.184 38ZM284.249 38H263.116V30.434H284.249V38ZM328.551 38H320.117V8H328.551V38ZM344.2 26.717H322.384V19.1495H344.2V26.717ZM348.267 38H339.866V8H348.267V38ZM360.65 38H351.967L362.399 8H374.617L385.05 38H375.717L370.966 23.1335L368.601 15.3005H367.966L365.483 23.1335L360.65 38ZM379.05 32.216H358.183V24.884H379.05V32.216ZM158.7 38H150.299V8H158.7V38Z" fill="black"/>
<path d="M164.95 30.05H153.583V22.55H164.634C165.65 22.6467 166.67 22.4193 167.55 21.9005C168.049 21.0337 168.312 20.0509 168.312 19.0505C168.312 18.0501 168.049 17.0673 167.55 16.2005C166.669 15.6866 165.648 15.465 164.634 15.5675H153.583V8.015H164.95C167.1 7.96753 169.232 8.41237 171.184 9.3155C172.882 10.163 174.3 11.4822 175.267 13.115C176.22 14.9597 176.717 17.0057 176.717 19.082C176.717 21.1582 176.22 23.2043 175.267 25.049C174.302 26.667 172.882 27.9653 171.184 28.7825C169.225 29.6499 167.09 30.0495 164.95 29.9495V30.0485V30.05ZM297.449 38H289.016V8H297.449V38Z" fill="black"/>
<path d="M303.233 30.05H291.866V22.55H302.917C303.933 22.6468 304.954 22.4194 305.833 21.9005C306.332 21.0338 306.595 20.0509 306.595 19.0505C306.595 18.0501 306.332 17.0672 305.833 16.2005C304.952 15.6865 303.931 15.4649 302.917 15.5675H291.866V8.015H303.233C305.383 7.96766 307.515 8.4125 309.466 9.3155C311.164 10.1629 312.582 11.4821 313.55 13.115C314.503 14.9597 315 17.0057 315 19.082C315 21.1583 314.503 23.2043 313.55 25.049C312.584 26.6672 311.164 27.9655 309.466 28.7825C307.507 29.6498 305.373 30.0493 303.233 29.9495V30.0485V30.05Z" fill="black"/>
</svg>
