<svg width="46" height="46" viewBox="0 0 46 46" fill="none" xmlns="http://www.w3.org/2000/svg">
<path d="M33.7005 23.6593L27.9945 33.5417H39.483C39.9047 33.5417 40.2957 33.3174 40.5085 32.9513L45.8732 23.6593H33.7005ZM45.8732 22.3407L40.5085 13.0487C40.4046 12.8687 40.2551 12.7194 40.075 12.6158C39.895 12.5121 39.6908 12.4578 39.483 12.4583H27.9945L33.7005 22.3407H45.8732ZM16.5846 12.4583H27.9945L22.2503 2.50891C22.1467 2.32864 21.9973 2.17893 21.8172 2.07493C21.6371 1.97094 21.4328 1.91634 21.2249 1.91666H10.4954L16.5846 12.4583ZM9.35496 2.57407L3.99212 11.8661C3.88852 12.0459 3.83398 12.2498 3.83398 12.4574C3.83398 12.6649 3.88852 12.8688 3.99212 13.0487L9.73637 22.9981L15.4404 13.1157L9.35496 2.57407ZM15.4423 32.8804L9.73829 23L3.99212 32.9513C3.88852 33.1312 3.83398 33.3351 3.83398 33.5426C3.83398 33.7502 3.88852 33.9541 3.99212 34.1339L9.35496 43.4259L15.4404 32.8842H15.4423V32.8804ZM10.4954 44.0833H21.2249C21.6465 44.0833 22.0375 43.8591 22.2503 43.493L27.9945 33.5417H16.5846L10.4973 44.0833H10.4954Z" fill="#0163FB"/>
</svg>
