<svg width="46" height="46" viewBox="0 0 46 46" fill="none" xmlns="http://www.w3.org/2000/svg">
<path d="M20.3071 2.875C18.8802 2.87479 17.4864 3.30563 16.3086 4.11106C15.1307 4.9165 14.2236 6.05896 13.7061 7.38875L0 42.665H10.4113L21.2002 14.9002H21.2041C21.3409 14.5591 21.5766 14.2669 21.881 14.061C22.1854 13.8552 22.5444 13.7451 22.9118 13.7451C23.2793 13.7451 23.6383 13.8552 23.9427 14.061C24.247 14.2669 24.4828 14.5591 24.6196 14.9002H26.0571V9.26708H23.3872L25.8712 2.875H20.3071Z" fill="#2545D3"/>
<path d="M13.7058 7.38875C14.2017 6.11512 15.0554 5.01216 16.1641 4.21294C17.2728 3.41371 18.5891 2.95238 19.9542 2.88458L19.9503 2.875H25.6927C28.6137 2.875 31.2376 4.669 32.2937 7.38875L45.9998 42.665H35.4102L22.1181 8.45825C21.7335 7.60844 21.1118 6.88769 20.3277 6.38255C19.5435 5.87742 18.6302 5.60936 17.6974 5.61058C16.7646 5.61179 15.852 5.88222 15.0692 6.3894C14.2863 6.89658 13.6665 7.61894 13.2842 8.46975L13.7058 7.38875Z" fill="#566DE8"/>
</svg>
