<svg width="264" height="46" viewBox="0 0 264 46" fill="none" xmlns="http://www.w3.org/2000/svg">
<path d="M20.3071 2.875C18.8802 2.87479 17.4864 3.30563 16.3086 4.11106C15.1307 4.9165 14.2236 6.05896 13.7061 7.38875L0 42.665H10.4113L21.2002 14.9002H21.2041C21.3409 14.5591 21.5766 14.2669 21.881 14.061C22.1854 13.8552 22.5444 13.7451 22.9118 13.7451C23.2793 13.7451 23.6383 13.8552 23.9427 14.061C24.247 14.2669 24.4828 14.5591 24.6196 14.9002H26.0571V9.26708H23.3872L25.8712 2.875H20.3071Z" fill="#2545D3"/>
<path d="M13.7058 7.38875C14.2017 6.11512 15.0554 5.01216 16.1641 4.21294C17.2728 3.41371 18.5891 2.95238 19.9542 2.88458L19.9503 2.875H25.6927C28.6137 2.875 31.2376 4.669 32.2937 7.38875L45.9998 42.665H35.4102L22.1181 8.45825C21.7335 7.60844 21.1118 6.88769 20.3277 6.38255C19.5435 5.87742 18.6302 5.60936 17.6974 5.61058C16.7646 5.61179 15.852 5.88222 15.0692 6.3894C14.2863 6.89658 13.6665 7.61894 13.2842 8.46975L13.7058 7.38875Z" fill="#566DE8"/>
<path fill-rule="evenodd" clip-rule="evenodd" d="M61.3635 33.665L63.747 27.323H74.2695L76.6905 33.6665H81.1995L71.6295 8H66.6075L57 33.665H61.3635ZM68.9895 12.548L73.0965 23.7305H64.92L68.988 12.548H68.9895ZM83.184 27.47C83.295 31.5395 86.742 33.887 91.764 33.887C96.312 33.887 99.7215 31.613 99.7215 28.0205C99.7215 23.84 96.237 22.9595 91.947 22.4465C89.235 22.154 87.438 21.9335 87.438 20.174C87.438 18.6695 88.9785 17.717 91.3245 17.717C93.672 17.717 95.2845 18.9275 95.505 20.6495H99.3915C99.135 16.8005 95.871 14.6735 91.251 14.6735C86.742 14.6375 83.5515 16.9475 83.5515 20.504C83.5515 24.389 86.925 25.307 91.215 25.82C94.11 26.186 95.835 26.333 95.835 28.3505C95.835 29.8535 94.221 30.806 91.7655 30.806C88.905 30.806 87.2175 29.414 87.0705 27.47H83.1855H83.184ZM102.725 27.47C102.836 31.5395 106.281 33.887 111.304 33.887C115.851 33.887 119.262 31.613 119.262 28.0205C119.262 23.84 115.779 22.9595 111.489 22.4465C108.774 22.154 106.979 21.9335 106.979 20.174C106.979 18.6695 108.519 17.717 110.864 17.717C113.213 17.717 114.825 18.9275 115.045 20.6495H118.93C118.675 16.8005 115.411 14.6735 110.792 14.6735C106.281 14.6375 103.092 16.9475 103.092 20.504C103.092 24.389 106.466 25.307 110.756 25.82C113.651 26.186 115.375 26.333 115.375 28.3505C115.375 29.8535 113.761 30.806 111.306 30.806C108.445 30.806 106.758 29.414 106.611 27.47H102.725ZM132.341 33.887C136.997 33.887 140.151 31.0625 140.811 27.359H136.851C136.301 29.45 134.541 30.659 132.12 30.659C129.003 30.659 126.987 28.5695 126.877 25.379V25.124H141.03C141.102 24.6257 141.138 24.123 141.139 23.6195C141.03 18.119 137.4 14.675 131.975 14.675C126.437 14.675 122.735 18.524 122.735 24.3185C122.735 30.074 126.437 33.8885 132.341 33.8885V33.887ZM127.023 22.226C127.317 19.55 129.48 17.8625 132.01 17.8625C134.76 17.8625 136.704 19.439 137.034 22.2275L127.023 22.226ZM167.039 14.6735C163.958 14.6735 161.832 16.0295 160.622 18.083C159.485 15.6635 157.286 14.6735 154.829 14.6735C152.006 14.7095 150.391 15.956 149.328 17.3495L148.888 14.8925H145.44V33.6665H149.4V23.6195C149.4 20.2835 151.087 18.0845 153.799 18.0845C156.403 18.0845 157.759 19.8065 157.759 23.1065V33.6665H161.757V23.51C161.757 20.135 163.48 18.083 166.192 18.083C168.759 18.083 170.117 19.8065 170.117 23.1065V33.6665H174.077V22.85C174.077 16.91 170.925 14.6735 167.039 14.6735ZM188.814 14.6735C185.919 14.6735 183.974 15.9935 182.727 17.6795V8H178.767V33.665H182.214L182.691 30.953C183.864 32.6405 185.881 33.887 188.814 33.887C193.948 33.887 197.688 30.0365 197.688 24.2795C197.688 18.23 193.948 14.6735 188.814 14.6735ZM188.154 30.5495C184.854 30.5495 182.691 27.947 182.691 24.2435C182.691 20.6135 184.854 18.047 188.154 18.047C191.454 18.047 193.654 20.612 193.654 24.2795C193.654 27.9845 191.452 30.5495 188.154 30.5495ZM201.96 33.665H205.921V8H201.961L201.96 33.665ZM216.329 33.776L215.597 35.6105C215.009 37.1495 214.643 37.5155 213.102 37.5155H210.316V41H214.569C217.32 41 218.125 39.644 219.298 36.6005L227.807 14.894H223.588L218.493 29.1575L213.249 14.8925H209.033L216.329 33.776ZM232.654 33.665L235.038 27.323H245.562L247.981 33.6665H252.492L242.922 8H237.898L228.291 33.665H232.654ZM240.282 12.5465L244.389 23.729H236.211L240.282 12.5465ZM256.224 33.665H260.44V8H256.224V33.665Z" fill="black"/>
</svg>
