<svg width="357" height="46" viewBox="0 0 357 46" fill="none" xmlns="http://www.w3.org/2000/svg">
<path opacity="0.8" d="M16.2188 6.70834H21.8231L37.7889 39.2917H34.9906L20.3492 9.47218L17.5853 9.47409L16.2188 6.70834Z" fill="#E00054"/>
<path d="M10.4918 39.2917L15.8911 29.0068L21.3977 39.2917H32.0179L15.9908 6.70834L0 39.2917H10.4918Z" fill="#E00054"/>
<path opacity="0.4" d="M24.4717 6.71024L40.4663 39.2917H43.2646L27.2892 6.71599L24.4717 6.71024Z" fill="#E00054"/>
<path opacity="0.2" d="M27.207 6.71024L43.2016 39.2917H45.9999L30.0264 6.71599L27.207 6.71024Z" fill="#E00054"/>
<path opacity="0.6" d="M21.7354 6.71024L37.7261 39.2917H40.5321L24.5529 6.71599L21.7354 6.71024Z" fill="#E00054"/>
<path fill-rule="evenodd" clip-rule="evenodd" d="M320.546 16.3235C322.667 16.3235 324.498 16.7765 326.041 17.684C327.573 18.5792 328.813 19.8988 329.611 21.4835C330.45 23.1095 330.868 25.007 330.868 27.176C330.868 29.3255 330.448 31.214 329.611 32.84C328.813 34.4246 327.573 35.7443 326.041 36.6395C324.498 37.547 322.667 38 320.546 38C318.423 38 316.591 37.547 315.048 36.6395C313.516 35.7443 312.276 34.4246 311.478 32.84C310.641 31.214 310.221 29.3255 310.221 27.176C310.221 25.007 310.641 23.1095 311.478 21.4835C312.276 19.8988 313.516 18.5792 315.048 17.684C316.593 16.7765 318.423 16.3235 320.546 16.3235ZM287.526 16.3235C290.175 16.3235 292.263 16.8845 293.787 18.0035C295.313 19.1255 296.202 20.651 296.457 22.583L291.132 22.9115C291.041 22.4567 290.839 22.0316 290.544 21.674C290.225 21.2907 289.82 20.9867 289.363 20.786C288.876 20.5625 288.295 20.4515 287.623 20.4515C286.72 20.4515 285.961 20.6405 285.342 21.0185C284.722 21.3965 284.412 21.9005 284.412 22.529C284.412 23.03 284.613 23.453 285.014 23.7995C285.414 24.1445 286.103 24.4235 287.076 24.6335L290.871 25.3985C292.911 25.8185 294.432 26.492 295.433 27.422C296.435 28.352 296.936 29.5715 296.936 31.085C296.936 32.4605 296.532 33.668 295.727 34.706C294.921 35.7455 293.82 36.554 292.422 37.1315C291.024 37.7105 289.416 38 287.595 38C284.818 38 282.609 37.4195 280.965 36.257C279.322 35.096 278.359 33.512 278.077 31.508L283.799 31.208C283.971 32.054 284.391 32.699 285.056 33.1415C285.72 33.5825 286.57 33.8045 287.608 33.8045C288.628 33.8045 289.449 33.6065 290.073 33.209C290.697 32.813 291.013 32.3 291.022 31.6715C291.021 31.4168 290.96 31.166 290.843 30.9393C290.727 30.7126 290.559 30.5164 290.354 30.3665C289.917 30.0245 289.244 29.7635 288.333 29.5805L284.7 28.856C282.651 28.4465 281.13 27.7355 280.133 26.7245C279.135 25.7135 278.637 24.4235 278.637 22.856C278.637 21.5075 279.003 20.3465 279.736 19.3715C280.468 18.3965 281.502 17.645 282.836 17.1155C284.171 16.5875 285.734 16.3235 287.526 16.3235ZM164.439 16.3235C165.822 16.3235 167.114 16.544 168.309 16.9865C169.487 17.4159 170.559 18.0943 171.452 18.9755C172.347 19.859 173.046 20.9675 173.547 22.3025C174.048 23.6375 174.297 25.1975 174.297 26.984V28.583H160.014C160.014 29.636 160.209 30.533 160.595 31.289C160.959 32.0212 161.531 32.6297 162.24 33.038C162.951 33.449 163.793 33.653 164.766 33.653C165.413 33.653 166.005 33.563 166.542 33.38C167.079 33.1985 167.538 32.9255 167.922 32.561C168.303 32.1965 168.594 31.7495 168.795 31.2215L174.175 31.577C173.922 32.8309 173.346 33.9969 172.503 34.9595C171.66 35.9195 170.577 36.668 169.252 37.2005C167.928 37.733 166.401 38 164.671 38C162.513 38 160.659 37.5605 159.106 36.68C157.567 35.8145 156.319 34.5114 155.521 32.936C154.684 31.319 154.266 29.4035 154.266 27.1895C154.266 25.0295 154.684 23.135 155.521 21.5045C156.36 19.8725 157.54 18.602 159.066 17.69C160.59 16.7795 162.381 16.3235 164.439 16.3235ZM68.334 9.2165C70.41 9.2165 72.2235 9.572 73.776 10.2815C75.327 10.9925 76.536 11.9825 77.4015 13.2485C78.2655 14.5145 78.711 15.9815 78.7395 17.6495H73.0725C72.963 16.547 72.4935 15.6905 71.6655 15.08C70.8375 14.4695 69.7125 14.165 68.2935 14.165C67.3275 14.165 66.513 14.2985 65.8485 14.567C65.184 14.837 64.677 15.2075 64.326 15.6815C63.975 16.1555 63.801 16.6925 63.801 17.294C63.7815 17.795 63.8895 18.233 64.1205 18.6065C64.353 18.98 64.6755 19.301 65.0835 19.5695C65.493 19.8395 65.967 20.0705 66.504 20.267C66.9075 20.414 67.329 20.543 67.7745 20.657L70.737 21.3665C71.9565 21.6395 73.077 22.004 74.097 22.4615C75.117 22.916 75.999 23.4755 76.746 24.1415C77.4915 24.806 78.072 25.5905 78.486 26.492C78.9 27.3935 79.113 28.427 79.122 29.594C79.113 31.307 78.678 32.7905 77.817 34.043C76.9575 35.2955 75.7185 36.266 74.103 36.9545C72.4875 37.643 70.542 37.9865 68.265 37.9865C66.0075 37.9865 64.044 37.6415 62.373 36.947C60.7035 36.2555 59.4015 35.228 58.4685 33.866C57.5355 32.504 57.045 30.815 57 28.802H62.721C62.7855 29.741 63.0555 30.521 63.534 31.1465C64.0125 31.7705 64.653 32.2385 65.46 32.5535C66.2655 32.8685 67.1775 33.0245 68.1975 33.0245C69.198 33.0245 70.071 32.879 70.812 32.588C71.5545 32.2955 72.1305 31.8905 72.54 31.3715C72.9495 30.8525 73.155 30.2555 73.155 29.5805C73.155 28.952 72.969 28.424 72.6 27.995C72.2325 27.5675 71.6955 27.203 70.989 26.9015C70.425 26.6615 69.759 26.438 68.994 26.2325L65.3565 25.3175C62.9985 24.743 61.137 23.8445 59.772 22.6235C58.407 21.4025 57.729 19.7585 57.738 17.69C57.729 15.995 58.1805 14.5145 59.0955 13.2485C60.0105 11.9825 61.2705 10.9925 62.871 10.283C64.4745 9.572 66.294 9.2165 68.334 9.2165ZM106.8 16.3235C107.966 16.3235 109.083 16.46 110.153 16.733C111.172 16.984 112.139 17.4148 113.007 18.005C113.84 18.578 114.498 19.3145 114.979 20.2115C115.462 21.11 115.704 22.1825 115.704 23.4305V37.5905H110.187V34.679H110.022C109.685 35.3351 109.227 35.9214 108.672 36.407C108.107 36.905 107.428 37.292 106.636 37.5695C105.844 37.847 104.93 37.9865 103.892 37.9865C102.554 37.9865 101.361 37.751 100.314 37.2815C99.3018 36.8417 98.4404 36.1154 97.836 35.192C97.23 34.2665 96.927 33.1115 96.927 31.727C96.927 30.56 97.1415 29.582 97.569 28.787C97.9812 28.0121 98.5829 27.3541 99.318 26.8745C100.093 26.3752 100.944 26.0058 101.838 25.781C102.543 25.5965 103.278 25.454 104.037 25.3505L106.245 25.1015L107.058 24.9995L107.757 24.9005C108.503 24.7865 109.044 24.6155 109.382 24.3875C109.718 24.1595 109.887 23.822 109.887 23.3765V23.294C109.887 22.4285 109.617 21.758 109.074 21.284C108.532 20.8115 107.766 20.5745 106.773 20.5745C105.726 20.5745 104.893 20.804 104.274 21.2645C103.682 21.6862 103.249 22.2948 103.044 22.9925L97.665 22.556C97.938 21.281 98.475 20.1755 99.276 19.241C100.077 18.308 101.114 17.588 102.383 17.081C103.653 16.577 105.126 16.3235 106.8 16.3235ZM126.15 9.599V20.123H126.327C126.582 19.5575 126.952 18.983 127.44 18.3935C127.927 17.807 128.565 17.3135 129.353 16.9175C130.14 16.5215 131.121 16.3235 132.294 16.3235C133.824 16.3235 135.234 16.7225 136.527 17.519C137.82 18.317 138.853 19.514 139.627 21.1145C140.401 22.7135 140.789 24.7145 140.789 27.1205C140.789 29.462 140.414 31.4375 139.662 33.0455C138.911 34.6535 137.892 35.87 136.602 36.695C135.315 37.52 133.873 37.931 132.282 37.931C131.152 37.931 130.194 37.745 129.406 37.3715C128.672 37.0372 128.015 36.5558 127.475 35.957C127.009 35.4404 126.622 34.8576 126.327 34.2275H126.067V37.5905H120.333V9.6005L126.15 9.599ZM90.18 11.567V16.5965H94.1265V20.9705H90.18V31.139C90.18 31.676 90.2625 32.093 90.426 32.39C90.591 32.6855 90.8205 32.8925 91.116 33.011C91.4115 33.131 91.755 33.1895 92.1465 33.1895C92.4195 33.1895 92.6925 33.164 92.9655 33.1145L93.5955 32.9975L94.5105 37.331L94.1025 37.448L93.5835 37.58L93.2805 37.652C92.7525 37.775 92.1105 37.85 91.3545 37.877C89.9535 37.931 88.7265 37.745 87.675 37.316C86.6235 36.8885 85.806 36.2225 85.224 35.321C84.6405 34.4195 84.354 33.281 84.363 31.904V20.969H81.4965V16.598H84.3615L84.363 11.5685H90.18V11.567ZM260.91 16.5965V28.925C260.921 30.164 261.252 31.1435 261.907 31.8635C262.563 32.5835 263.442 32.9435 264.543 32.9435C265.245 32.9435 265.901 32.7815 266.51 32.4575C267.129 32.1254 267.642 31.6259 267.991 31.016C268.369 30.3785 268.554 29.591 268.545 28.652V16.595H274.362V37.589H268.776V33.776H268.559C268.101 34.9856 267.278 36.0223 266.203 36.7415C265.105 37.4885 263.769 37.862 262.195 37.862C260.793 37.862 259.56 37.5425 258.493 36.905C257.428 36.2675 256.599 35.36 256.004 34.1855C255.407 33.0095 255.104 31.6025 255.095 29.9615V16.5965H260.91ZM150.471 9.599V37.589H144.654V9.6005L150.471 9.599ZM233.618 8.2865C234.51 8.2865 235.327 8.3555 236.068 8.492L236.748 8.624C237.158 8.7095 237.485 8.789 237.728 8.861L236.689 13.235C236.414 13.1501 236.133 13.0814 235.85 13.0295C235.514 12.9653 235.174 12.9332 234.833 12.9335C233.978 12.9335 233.38 13.1315 233.044 13.529C232.707 13.925 232.539 14.4785 232.539 15.1895V16.595L236.716 16.5965V20.9705H232.538V37.5905H226.735V20.9705H223.771V16.595H226.734V15.08C226.734 13.5575 227.034 12.296 227.629 11.294C228.202 10.3133 229.056 9.52724 230.081 9.038C231.119 8.537 232.298 8.2865 233.618 8.2865ZM306.428 16.5965V37.5905H300.61V16.595L306.428 16.5965ZM220.795 16.5965V37.5905H214.979V16.595L220.795 16.5965ZM197.115 9.599C199.929 9.599 202.35 10.157 204.381 11.273C206.41 12.389 207.973 13.991 209.071 16.0775C210.166 18.164 210.717 20.66 210.717 23.567C210.717 26.483 210.168 28.988 209.071 31.085C208.023 33.1309 206.381 34.8123 204.36 35.909C202.315 37.0295 199.875 37.589 197.034 37.589H187.119V9.6005L197.115 9.599ZM248.445 8.2865C249.338 8.2865 250.155 8.3555 250.896 8.492L251.575 8.624L252.028 8.723C252.234 8.771 252.409 8.8175 252.555 8.861L251.519 13.235C251.243 13.1501 250.962 13.0814 250.679 13.0295C250.343 12.9653 250.003 12.9332 249.661 12.9335C248.806 12.9335 248.21 13.1315 247.872 13.529C247.535 13.925 247.366 14.4785 247.366 15.1895V16.595L251.546 16.5965V20.9705H247.365L247.366 37.5905H241.563V20.9705H238.601V16.595H241.562L241.563 15.0785C241.563 13.556 241.862 12.2945 242.457 11.2925C243.03 10.3115 243.884 9.52549 244.91 9.0365C245.946 8.5355 247.125 8.2865 248.445 8.2865ZM346.763 16.3235C348.219 16.3235 349.489 16.643 350.572 17.2805C351.655 17.918 352.499 18.8255 353.099 20.0075C353.699 21.1865 354 22.592 354 24.2225V37.5905H348.183V25.262C348.192 23.9765 347.865 22.973 347.199 22.247C346.535 21.524 345.621 21.161 344.454 21.161C343.673 21.161 342.982 21.3305 342.387 21.668C341.787 22.0088 341.302 22.5206 340.993 23.138C340.66 23.7785 340.491 24.551 340.482 25.454V37.589H334.665V16.598H340.209V20.303H340.453C340.918 19.0805 341.697 18.113 342.789 17.3975C343.881 16.682 345.205 16.325 346.764 16.325L346.763 16.3235ZM109.927 27.8585C109.746 27.9785 109.497 28.0835 109.184 28.1795C108.869 28.2755 108.516 28.3625 108.125 28.439L107.538 28.5485L106.95 28.6445L105.885 28.802C105.271 28.8838 104.67 29.0446 104.097 29.2805C103.587 29.4995 103.191 29.792 102.909 30.161C102.627 30.5315 102.486 30.989 102.486 31.535C102.486 32.3285 102.774 32.9315 103.353 33.3455C103.931 33.761 104.666 33.968 105.558 33.968C106.413 33.968 107.169 33.797 107.824 33.455C108.48 33.1145 108.994 32.651 109.368 32.069C109.741 31.484 109.927 30.824 109.927 30.086V27.8585ZM320.572 20.765C319.597 20.765 318.781 21.044 318.121 21.599C317.461 22.154 316.965 22.9115 316.632 23.8685C316.3 24.824 316.134 25.913 316.134 27.134C316.134 28.355 316.299 29.444 316.632 30.401C316.965 31.358 317.461 32.111 318.121 32.663C318.781 33.2135 319.597 33.4895 320.572 33.4895C321.537 33.4895 322.343 33.2135 322.989 32.663C323.636 32.111 324.124 31.358 324.457 30.401C324.789 29.444 324.955 28.355 324.955 27.134C324.955 25.913 324.79 24.824 324.457 23.8685C324.124 22.9115 323.636 22.1555 322.989 21.599C322.344 21.044 321.537 20.765 320.572 20.765ZM130.437 20.957C129.492 20.957 128.693 21.2075 128.042 21.7085C127.391 22.2095 126.891 22.9205 126.546 23.84C126.201 24.761 126.027 25.8455 126.027 27.0935C126.027 28.3415 126.199 29.4305 126.546 30.3605C126.891 31.2905 127.392 32.0105 128.048 32.5265C128.703 33.041 129.5 33.299 130.437 33.299C131.385 33.299 132.186 33.0365 132.842 32.513C133.497 31.988 133.995 31.259 134.335 30.326C134.677 29.3915 134.848 28.3145 134.848 27.0935C134.848 25.8815 134.679 24.815 134.343 23.8955C134.006 22.9745 133.51 22.2545 132.855 21.7355C132.199 21.2165 131.394 20.957 130.437 20.957ZM196.801 14.669H193.035V32.519H196.79C198.537 32.519 200.01 32.207 201.207 31.583C202.404 30.959 203.306 29.9885 203.91 28.673C204.516 27.356 204.819 25.6535 204.819 23.567C204.819 21.4985 204.516 19.808 203.91 18.497C203.306 17.1845 202.407 16.2185 201.214 15.599C200.02 14.9795 198.551 14.669 196.805 14.669H196.801ZM164.535 20.669C163.652 20.669 162.87 20.873 162.192 21.278C161.514 21.683 160.985 22.226 160.602 22.904C160.273 23.491 160.078 24.1436 160.03 24.815L160.021 24.974H168.822C168.822 24.137 168.64 23.3945 168.276 22.7465C167.922 22.1098 167.4 21.5826 166.767 21.2225C166.125 20.8535 165.381 20.669 164.535 20.669ZM217.899 8C218.763 8 219.504 8.2895 220.119 8.8685C220.733 9.446 221.04 10.136 221.04 10.9385C221.04 11.7485 220.733 12.4445 220.118 13.0235C219.503 13.601 218.763 13.8905 217.897 13.8905C217.033 13.8905 216.294 13.601 215.681 13.0235C215.066 12.4445 214.758 11.7485 214.758 10.9385C214.758 10.136 215.066 9.446 215.681 8.8685C216.296 8.2895 217.033 8 217.899 8ZM303.531 8C304.395 8 305.136 8.2895 305.749 8.8685C306.364 9.446 306.671 10.136 306.671 10.9385C306.671 11.7485 306.364 12.4445 305.749 13.0235C305.134 13.601 304.395 13.8905 303.529 13.8905C302.665 13.8905 301.926 13.601 301.311 13.0235C300.696 12.4445 300.39 11.7485 300.39 10.9385C300.39 10.136 300.697 9.446 301.311 8.8685C301.926 8.2895 302.666 8 303.531 8Z" fill="black"/>
</svg>
