<svg width="46" height="46" viewBox="0 0 46 46" fill="none" xmlns="http://www.w3.org/2000/svg">
<g clip-path="url(#clip0_526_655)">
<path d="M36.5432 0.251097C36.4205 0.0479306 36.1368 -0.0747361 35.8915 0.0479306L31.3107 2.60285C28.9992 3.90235 27.5387 5.28043 26.6455 7.91585C26.2509 9.0924 26.105 10.3381 26.2168 11.574C26.3287 12.8099 26.6959 14.0091 27.2952 15.0957C27.416 15.2988 27.7016 15.4215 27.9431 15.2988L32.5278 12.7439C34.8393 11.4444 36.2997 10.0663 37.191 7.43093C37.5861 6.25423 37.7326 5.00829 37.621 3.77204C37.5095 2.53579 37.1425 1.33618 36.5432 0.249181V0.251097ZM3.6915 10.3903C3.53092 10.3937 3.37788 10.459 3.26431 10.5726C3.15074 10.6861 3.08542 10.8392 3.082 10.9998C3.082 14.2849 4.50033 17.2443 6.73325 19.2721C9.32842 21.6258 11.7607 22.2333 15.088 22.2333H21.6583C21.9822 22.2333 22.2659 21.9497 22.2659 21.6258C22.2659 18.3406 20.8476 15.3774 18.6166 13.3515C16.0195 10.9998 13.5872 10.3883 10.2599 10.3883H3.69342L3.6915 10.3903ZM45.6665 20.2055C45.6626 20.0456 45.5973 19.8933 45.4842 19.7802C45.3711 19.6671 45.2188 19.6018 45.0589 19.5979V19.6363H38.4081C35.0405 19.6363 32.568 20.2879 29.9307 22.6397C27.6594 24.6253 26.2008 27.6671 26.2008 30.9944C26.2008 31.3183 26.4845 31.602 26.8084 31.602H33.4593C36.8268 31.602 39.2993 30.9523 41.9367 28.6005C43.1121 27.5407 44.0518 26.2458 44.6946 24.7996C45.3375 23.3534 45.6674 21.7882 45.6665 20.2055ZM0 30.2642C0 29.8176 0.364167 29.4113 0.851 29.4113H10.0587C14.7219 29.4113 18.1278 30.3044 21.7791 33.5896C24.9032 36.3879 26.8487 40.5663 26.8889 45.1471C26.8889 45.5937 26.5247 46 26.0379 46H16.8322C12.167 46 8.76108 45.149 5.10983 41.8638C1.98567 39.0233 0.04025 34.845 0 30.2642Z" fill="#416FDC"/>
</g>
<defs>
<clipPath id="clip0_526_655">
<rect width="46" height="46" fill="white"/>
</clipPath>
</defs>
</svg>
