<svg width="46" height="46" viewBox="0 0 46 46" fill="none" xmlns="http://www.w3.org/2000/svg">
<g clip-path="url(#clip0_524_488)">
<path fill-rule="evenodd" clip-rule="evenodd" d="M31.1133 0C32.4799 0 33.6913 1.05608 34.1263 2.54725C34.5614 4.03842 37.1068 13.2614 37.1068 13.2614V31.5886H27.8818L28.0697 0H31.1133Z" fill="url(#paint0_linear_524_488)"/>
<path d="M44.6541 14.3175C44.6541 13.6658 44.1271 13.1675 43.5041 13.1675H38.0704C36.2334 13.169 34.4721 13.8996 33.1734 15.1987C31.8746 16.4978 31.1446 18.2593 31.1436 20.0962V31.5886H37.7292C39.5655 31.5866 41.326 30.856 42.6243 29.5574C43.9226 28.2587 44.6526 26.4981 44.6541 24.6617V14.3175Z" fill="url(#paint1_linear_524_488)"/>
<path fill-rule="evenodd" clip-rule="evenodd" d="M31.1134 2.3914e-06C30.864 -0.00178205 30.6167 0.0460303 30.3859 0.14066C30.1551 0.23529 29.9455 0.37485 29.7691 0.551228C29.5927 0.727606 29.4532 0.937283 29.3585 1.16807C29.2639 1.39886 29.2161 1.64616 29.2179 1.89559L29.032 36.7751C29.0314 39.2215 28.0594 41.5676 26.3295 43.2975C24.5996 45.0274 22.2535 45.9995 19.807 46H3.06687C2.88359 46.0011 2.70275 45.9581 2.53955 45.8747C2.37636 45.7913 2.23558 45.6699 2.12907 45.5207C2.02256 45.3716 1.95344 45.199 1.92752 45.0176C1.9016 44.8362 1.91964 44.6512 1.98012 44.4782L15.3968 6.18125C16.0288 4.378 17.2046 2.81516 18.762 1.7081C20.3194 0.601042 22.1819 0.00426202 24.0927 2.3914e-06H31.1441H31.1134Z" fill="url(#paint2_linear_524_488)"/>
</g>
<defs>
<linearGradient id="paint0_linear_524_488" x1="34.9639" y1="32.2709" x2="27.1995" y2="1.18067" gradientUnits="userSpaceOnUse">
<stop stop-color="#712575"/>
<stop offset="0.09" stop-color="#9A2884"/>
<stop offset="0.18" stop-color="#BF2C92"/>
<stop offset="0.27" stop-color="#DA2E9C"/>
<stop offset="0.34" stop-color="#EB30A2"/>
<stop offset="0.4" stop-color="#F131A5"/>
<stop offset="0.5" stop-color="#EC30A3"/>
<stop offset="0.61" stop-color="#DF2F9E"/>
<stop offset="0.72" stop-color="#C92D96"/>
<stop offset="0.83" stop-color="#AA2A8A"/>
<stop offset="0.95" stop-color="#83267C"/>
<stop offset="1" stop-color="#712575"/>
</linearGradient>
<linearGradient id="paint1_linear_524_488" x1="37.9151" y1="0.651662" x2="37.9151" y2="44.5088" gradientUnits="userSpaceOnUse">
<stop stop-color="#DA7ED0"/>
<stop offset="0.08" stop-color="#B17BD5"/>
<stop offset="0.19" stop-color="#8778DB"/>
<stop offset="0.3" stop-color="#6276E1"/>
<stop offset="0.41" stop-color="#4574E5"/>
<stop offset="0.54" stop-color="#2E72E8"/>
<stop offset="0.67" stop-color="#1D71EB"/>
<stop offset="0.81" stop-color="#1471EC"/>
<stop offset="1" stop-color="#1171ED"/>
</linearGradient>
<linearGradient id="paint2_linear_524_488" x1="35.2745" y1="1.64642" x2="6.20254" y2="48.2674" gradientUnits="userSpaceOnUse">
<stop stop-color="#DA7ED0"/>
<stop offset="0.05" stop-color="#B77BD4"/>
<stop offset="0.11" stop-color="#9079DA"/>
<stop offset="0.18" stop-color="#6E77DF"/>
<stop offset="0.25" stop-color="#5175E3"/>
<stop offset="0.33" stop-color="#3973E7"/>
<stop offset="0.42" stop-color="#2772E9"/>
<stop offset="0.54" stop-color="#1A71EB"/>
<stop offset="0.68" stop-color="#1371EC"/>
<stop offset="1" stop-color="#1171ED"/>
</linearGradient>
<clipPath id="clip0_524_488">
<rect width="46" height="46" fill="white"/>
</clipPath>
</defs>
</svg>
