<svg width="198" height="46" viewBox="0 0 198 46" fill="none" xmlns="http://www.w3.org/2000/svg">
<g clip-path="url(#clip0_524_493)">
<path fill-rule="evenodd" clip-rule="evenodd" d="M31.1133 0C32.4799 0 33.6913 1.05608 34.1263 2.54725C34.5614 4.03842 37.1068 13.2614 37.1068 13.2614V31.5886H27.8818L28.0697 0H31.1133Z" fill="url(#paint0_linear_524_493)"/>
<path d="M44.6541 14.3175C44.6541 13.6658 44.1271 13.1675 43.5041 13.1675H38.0704C36.2334 13.169 34.4721 13.8996 33.1734 15.1987C31.8746 16.4978 31.1446 18.2593 31.1436 20.0962V31.5886H37.7292C39.5655 31.5866 41.326 30.856 42.6243 29.5574C43.9226 28.2587 44.6526 26.4981 44.6541 24.6617V14.3175Z" fill="url(#paint1_linear_524_493)"/>
<path fill-rule="evenodd" clip-rule="evenodd" d="M31.1134 2.3914e-06C30.864 -0.00178205 30.6167 0.0460303 30.3859 0.14066C30.1551 0.23529 29.9455 0.37485 29.7691 0.551228C29.5927 0.727606 29.4532 0.937283 29.3585 1.16807C29.2639 1.39886 29.2161 1.64616 29.2179 1.89559L29.032 36.7751C29.0314 39.2215 28.0594 41.5676 26.3295 43.2975C24.5996 45.0274 22.2535 45.9995 19.807 46H3.06687C2.88359 46.0011 2.70275 45.9581 2.53955 45.8747C2.37636 45.7913 2.23558 45.6699 2.12907 45.5207C2.02256 45.3716 1.95344 45.199 1.92752 45.0176C1.9016 44.8362 1.91964 44.6512 1.98012 44.4782L15.3968 6.18125C16.0288 4.378 17.2046 2.81516 18.762 1.7081C20.3194 0.601042 22.1819 0.00426202 24.0927 2.3914e-06H31.1441H31.1134Z" fill="url(#paint2_linear_524_493)"/>
</g>
<path fill-rule="evenodd" clip-rule="evenodd" d="M72.756 9.5L83.1285 36.9875H77.865L75.4275 30.1655H64.5705L62.2275 36.9875H57L67.374 9.5H72.756ZM70.047 14.6H69.912L65.8365 26.177H74.0985L70.0485 14.5985L70.047 14.6ZM85.5 17.282H101.276V19.142L90.9195 33.308H101.334V36.9875H84.7695V34.7825L94.9725 20.963H85.5V17.282ZM121.8 17.282V36.9875H117.11V34.4015H117.034C116.409 35.3045 115.558 36.0275 114.565 36.4985C113.532 37.004 112.377 37.2575 111.096 37.2575C108.801 37.2575 107.058 36.608 105.861 35.3105C104.663 34.0145 104.061 31.9985 104.061 29.2625V17.282H108.772V28.7075C108.772 30.3695 109.101 31.6175 109.762 32.4545C110.421 33.2915 111.416 33.71 112.748 33.71C114.068 33.71 115.125 33.248 115.92 32.321C116.715 31.3955 117.11 30.182 117.11 28.6895V17.282H121.8ZM135.162 16.9565C135.533 16.9565 135.865 16.982 136.161 17.033C136.455 17.084 136.707 17.147 136.911 17.225V21.9215C136.665 21.7415 136.314 21.5735 135.846 21.4145C135.378 21.254 134.811 21.1745 134.146 21.1745C133.005 21.1745 132.039 21.6545 131.251 22.6115C130.464 23.5715 130.07 25.0475 130.07 27.0395V36.9875H125.419V17.282H130.07V20.387H130.147C130.567 19.3145 131.212 18.4745 132.067 17.867C132.927 17.261 133.958 16.9565 135.162 16.9565ZM146.671 16.8815C149.401 16.8815 151.525 17.7125 153.046 19.382C154.561 21.0485 155.32 23.354 155.32 26.2925V28.5335H141.793C142 30.5135 142.637 31.898 143.708 32.6855C144.773 33.4715 146.157 33.863 147.846 33.863C148.93 33.8681 150.007 33.6963 151.035 33.3545C151.992 33.0445 152.899 32.5962 153.726 32.024V35.84C152.958 36.3245 151.953 36.7175 150.709 37.016C149.466 37.3175 148.141 37.4675 146.73 37.4675C143.719 37.4675 141.381 36.5795 139.71 34.8035C138.036 33.026 137.202 30.5555 137.202 27.386C137.202 24.332 138.095 21.815 139.883 19.841C141.668 17.867 143.932 16.8815 146.671 16.8815ZM146.671 20.426C145.56 20.426 144.561 20.8265 143.677 21.626C142.792 22.4225 142.203 23.594 141.907 25.1405H150.747C150.747 23.609 150.393 22.4405 149.682 21.6335C148.971 20.8295 147.969 20.426 146.671 20.426Z" fill="black"/>
<path fill-rule="evenodd" clip-rule="evenodd" d="M72.756 9.5L83.1285 36.9875H77.865L75.4275 30.1655H64.5705L62.2275 36.9875H57L67.374 9.5H72.756ZM70.047 14.6H69.912L65.8365 26.177H74.0985L70.0485 14.5985L70.047 14.6ZM85.5 17.282H101.276V19.142L90.9195 33.308H101.334V36.9875H84.7695V34.7825L94.9725 20.963H85.5V17.282ZM121.8 17.282V36.9875H117.11V34.4015H117.035C116.409 35.3045 115.558 36.0275 114.566 36.4985C113.532 37.004 112.377 37.2575 111.096 37.2575C108.801 37.2575 107.058 36.608 105.861 35.3105C104.663 34.0145 104.061 31.9985 104.061 29.2625V17.282H108.773V28.7075C108.773 30.3695 109.101 31.6175 109.763 32.4545C110.421 33.2915 111.416 33.71 112.748 33.71C114.068 33.71 115.125 33.248 115.92 32.321C116.715 31.3955 117.11 30.182 117.11 28.6895V17.282H121.8ZM135.162 16.9565C135.533 16.9565 135.866 16.982 136.161 17.033C136.455 17.084 136.707 17.147 136.911 17.225V21.9215C136.665 21.7415 136.314 21.5735 135.846 21.4145C135.378 21.254 134.811 21.1745 134.147 21.1745C133.005 21.1745 132.039 21.6545 131.252 22.6115C130.464 23.5715 130.07 25.0475 130.07 27.0395V36.9875H125.42V17.282H130.07V20.387H130.148C130.568 19.3145 131.213 18.4745 132.068 17.867C132.927 17.261 133.958 16.9565 135.162 16.9565ZM146.672 16.8815C149.402 16.8815 151.526 17.7125 153.047 19.382C154.562 21.0485 155.321 23.354 155.321 26.2925V28.5335H141.794C142.001 30.5135 142.637 31.898 143.708 32.6855C144.773 33.4715 146.157 33.863 147.846 33.863C148.93 33.8681 150.007 33.6963 151.035 33.3545C151.992 33.0445 152.899 32.5962 153.726 32.024V35.84C152.958 36.3245 151.953 36.7175 150.71 37.016C149.466 37.3175 148.142 37.4675 146.73 37.4675C143.72 37.4675 141.381 36.5795 139.71 34.8035C138.036 33.026 137.202 30.5555 137.202 27.386C137.202 24.332 138.095 21.815 139.883 19.841C141.668 17.867 143.933 16.8815 146.672 16.8815ZM146.672 20.426C145.56 20.426 144.561 20.8265 143.678 21.626C142.793 22.4225 142.203 23.594 141.908 25.1405H150.747C150.747 23.609 150.393 22.4405 149.682 21.6335C148.971 20.8295 147.969 20.426 146.672 20.426ZM177.756 9.5L188.129 36.9875H182.865L180.428 30.1655H169.571L167.228 36.9875H162L172.374 9.5H177.756ZM175.047 14.6H174.912L170.837 26.177H179.099L175.049 14.5985L175.047 14.6ZM194.57 36.9875H189.92V9.5H194.57V36.9875Z" fill="black"/>
<defs>
<linearGradient id="paint0_linear_524_493" x1="34.9639" y1="32.2709" x2="27.1995" y2="1.18067" gradientUnits="userSpaceOnUse">
<stop stop-color="#712575"/>
<stop offset="0.09" stop-color="#9A2884"/>
<stop offset="0.18" stop-color="#BF2C92"/>
<stop offset="0.27" stop-color="#DA2E9C"/>
<stop offset="0.34" stop-color="#EB30A2"/>
<stop offset="0.4" stop-color="#F131A5"/>
<stop offset="0.5" stop-color="#EC30A3"/>
<stop offset="0.61" stop-color="#DF2F9E"/>
<stop offset="0.72" stop-color="#C92D96"/>
<stop offset="0.83" stop-color="#AA2A8A"/>
<stop offset="0.95" stop-color="#83267C"/>
<stop offset="1" stop-color="#712575"/>
</linearGradient>
<linearGradient id="paint1_linear_524_493" x1="37.9151" y1="0.651662" x2="37.9151" y2="44.5088" gradientUnits="userSpaceOnUse">
<stop stop-color="#DA7ED0"/>
<stop offset="0.08" stop-color="#B17BD5"/>
<stop offset="0.19" stop-color="#8778DB"/>
<stop offset="0.3" stop-color="#6276E1"/>
<stop offset="0.41" stop-color="#4574E5"/>
<stop offset="0.54" stop-color="#2E72E8"/>
<stop offset="0.67" stop-color="#1D71EB"/>
<stop offset="0.81" stop-color="#1471EC"/>
<stop offset="1" stop-color="#1171ED"/>
</linearGradient>
<linearGradient id="paint2_linear_524_493" x1="35.2745" y1="1.64642" x2="6.20254" y2="48.2674" gradientUnits="userSpaceOnUse">
<stop stop-color="#DA7ED0"/>
<stop offset="0.05" stop-color="#B77BD4"/>
<stop offset="0.11" stop-color="#9079DA"/>
<stop offset="0.18" stop-color="#6E77DF"/>
<stop offset="0.25" stop-color="#5175E3"/>
<stop offset="0.33" stop-color="#3973E7"/>
<stop offset="0.42" stop-color="#2772E9"/>
<stop offset="0.54" stop-color="#1A71EB"/>
<stop offset="0.68" stop-color="#1371EC"/>
<stop offset="1" stop-color="#1171ED"/>
</linearGradient>
<clipPath id="clip0_524_493">
<rect width="46" height="46" fill="white"/>
</clipPath>
</defs>
</svg>
