<svg width="199" height="46" viewBox="0 0 199 46" fill="none" xmlns="http://www.w3.org/2000/svg">
<g clip-path="url(#clip0_526_676)">
<path fill-rule="evenodd" clip-rule="evenodd" d="M0 8.97L16.5025 0L23.3699 3.841L29.3116 0.515583L46 9.85167V26.5286L39.1345 30.3696V37.0185L23.0728 46L6.81567 37.3367V29.9633L0 26.6417V8.97ZM2.461 11.7913V17.4148L17.6717 25.2693L17.6103 27.9891L2.461 20.1691V25.2636L21.7101 35.4277V22.5592L2.461 11.7913ZM23.0479 20.4777L41.814 10.2618L36.7732 7.44433L22.5937 15.3736L20.1959 13.9629L34.3141 6.06625L29.3116 3.26792L10.5167 13.5029L23.0479 20.4796V20.4777ZM8.05 12.1287L20.9089 5.21717L16.5025 2.75233L3.634 9.6715L8.05 12.1287ZM29.21 39.813L24.1922 42.6209V22.885L36.6735 15.9045V35.6423L31.671 38.4407V22.6454L29.2119 23.9526V39.8168L29.21 39.813ZM9.27667 31.3413L21.7101 38.18V42.4542L9.27667 35.9624V31.3433V31.3413ZM43.539 25.1505V12.0597L39.1345 14.5283V27.6173L43.539 25.1524V25.1505Z" fill="black"/>
</g>
<path fill-rule="evenodd" clip-rule="evenodd" d="M77.1547 8H56.9893V14.924H74.325C74.9204 14.9455 75.4842 15.198 75.8979 15.6283C76.3115 16.0586 76.5426 16.6332 76.5426 17.231C76.5426 17.8288 76.3115 18.4034 75.8979 18.8337C75.4842 19.264 74.9204 19.5165 74.325 19.538H56.9893V26.462H74.325C74.9145 26.4922 75.4699 26.7484 75.8764 27.1777C76.283 27.6071 76.5098 28.1767 76.5098 28.769C76.5098 29.3613 76.283 29.9309 75.8764 30.3603C75.4699 30.7896 74.9145 31.0458 74.325 31.076H56.9893V38H77.1547C78.8883 38.0012 80.5869 37.5105 82.0545 36.5847C83.5222 35.6589 84.6991 34.3356 85.4495 32.7674C86.1999 31.1993 86.4933 29.4503 86.2957 27.7221C86.0982 25.9939 85.4178 24.3569 84.333 23C85.4159 21.6426 86.0948 20.0059 86.2914 18.2783C86.488 16.5507 86.1943 14.8026 85.4442 13.2351C84.6941 11.6677 83.5181 10.3447 82.0515 9.4185C80.585 8.49232 78.8875 8.00061 77.1547 8ZM196.551 8H186.139V38H196.551V8ZM163.751 8H153.338L140.539 38H150.948L158.551 20.186L166.152 38H176.563L163.762 8H163.751ZM119.333 8H108.922L96.1198 38H106.531L114.133 20.186L121.735 38H132.147L119.344 8H119.333Z" fill="black"/>
<defs>
<clipPath id="clip0_526_676">
<rect width="46" height="46" fill="white"/>
</clipPath>
</defs>
</svg>
