<svg width="121" height="46" viewBox="0 0 121 46" fill="none" xmlns="http://www.w3.org/2000/svg">
<path d="M14.0549 3.83334H7.92158L4.08825 12.1383V34.1167L0 42.1667H9.96667L13.8537 34.1167L14.0549 3.83334ZM28.1118 3.83334H18.1451V42.1667H28.1118V3.83334ZM32.2 14.8216H42.1667V42.1667H32.2V14.8216ZM42.1667 3.83334H32.2V11.7549H42.1667V3.83334Z" fill="url(#paint0_linear_526_675)"/>
<path fill-rule="evenodd" clip-rule="evenodd" d="M56.9775 8V12.068H69.0911L68.2484 15.797H60.3424V37.661H64.3803V35.627H78.8478V37.661H83.2222V15.797H72.6258L73.6337 12.068H86.0838V8H56.9775ZM64.3803 32.0675V27.6605H78.8478V31.898L64.3803 32.0675ZM64.3803 19.526V23.9315L78.8478 23.762V19.526H64.3803ZM97.0182 8.1695H92.8121V24.272C92.8121 27.152 91.1252 31.754 88.7743 35.1185L92.3074 38C95.0961 34.133 97.0182 27.9995 97.0182 24.6095V8.1695ZM103.074 9.5255H107.111V34.4405H103.075L103.074 9.5255ZM117.206 8H113.168V37.4915H117.206V8Z" fill="black"/>
<defs>
<linearGradient id="paint0_linear_526_675" x1="749.049" y1="336.49" x2="3885.69" y2="3803.91" gradientUnits="userSpaceOnUse">
<stop stop-color="#FEC13E"/>
<stop offset="1" stop-color="#FF6933"/>
</linearGradient>
</defs>
</svg>
