<svg width="216" height="46" viewBox="0 0 216 46" fill="none" xmlns="http://www.w3.org/2000/svg">
<path d="M41.6204 10.7525L33.9863 15.18C33.7248 15.3294 33.4288 15.408 33.1276 15.408C32.8265 15.408 32.5305 15.3294 32.269 15.18L23.8433 10.3193C23.5816 10.1696 23.2852 10.0908 22.9837 10.0908C22.6821 10.0908 22.3858 10.1696 22.1241 10.3193L13.7156 15.18C13.4541 15.3294 13.1582 15.408 12.857 15.408C12.5558 15.408 12.2598 15.3294 11.9983 15.18L4.3623 10.7659L23.0038 0L41.6204 10.7525Z" fill="#5BCA87"/>
<path d="M35.7287 18.1451C35.4721 18.2964 35.2596 18.5122 35.1123 18.7711C34.965 19.0301 34.8881 19.323 34.8892 19.6209V29.3423C34.8878 29.6412 34.8084 29.9346 34.6588 30.1935C34.5092 30.4523 34.2946 30.6676 34.0363 30.8181L25.5493 35.6289C25.2874 35.7787 25.0703 35.9958 24.9203 36.2576C24.7704 36.5194 24.6931 36.8165 24.6964 37.1182V45.9483L33.1853 41.0876L43.3628 35.2475V13.7176L35.7287 18.1451Z" fill="#EC5D3E"/>
<path d="M21.0445 36.3036C20.9096 36.033 20.7085 35.801 20.4599 35.6289L11.971 30.8066C11.7202 30.6528 11.5128 30.4377 11.3682 30.1815C11.2237 29.9252 11.1468 29.6364 11.1449 29.3422V19.6094C11.139 19.3132 11.056 19.0236 10.9041 18.7691C10.7522 18.5147 10.5366 18.3043 10.2786 18.1585L9.4142 17.6602L2.64453 13.7195V35.2475L12.8239 41.0876L21.3244 46V37.168C21.3115 36.8604 21.2147 36.5602 21.0445 36.3036Z" fill="#2464F5"/>
<path fill-rule="evenodd" clip-rule="evenodd" d="M102.41 9.596V8H107.285V9.596H118.028V12.863H93.6901V31.0685C93.7287 33.395 93.4753 35.7171 92.9356 37.9805H88.6006C89.3956 35.7665 89.7496 33.419 89.6431 31.0685V9.596H102.41Z" fill="black"/>
<path fill-rule="evenodd" clip-rule="evenodd" d="M72.5685 17.0975L73.824 13.328H86.2005V9.5585H57V13.328H68.547L67.353 17.0975H58.3695V37.9925H81.1755C81.6525 38.0241 82.1308 37.9568 82.5805 37.7947C83.0302 37.6325 83.4414 37.3792 83.7885 37.0505C84.4605 36.3905 84.8235 35.4785 84.7935 34.5365V17.0975H72.5685ZM63.018 25.5905V20.666H80.232V25.5905H63.018ZM63.018 29.096H80.295V32.6015C80.3055 33.0605 80.1495 33.506 79.8555 33.8585C79.7013 34.0033 79.5197 34.1158 79.3213 34.1892C79.1229 34.2626 78.9118 34.2956 78.7005 34.286H63.0165L63.018 29.096ZM97.698 14.333V15.3755H95.184V18.6425H97.698V24.3845H113.478C113.988 24.3845 114.477 24.191 114.849 23.8445C115.202 23.471 115.395 22.9745 115.389 22.463V18.6935H118.029V15.3755H115.389V14.333H111.294V15.3755H101.795V14.333H97.698ZM101.793 21.1175V18.605H111.292V20.075C111.292 20.729 110.978 21.0545 110.351 21.0545L101.795 21.1175H101.793ZM95.8755 30.065L102.246 33.5825L102.573 33.7955L102.183 33.9095C101.232 34.3385 100.218 34.6145 99.18 34.7255H94.833V37.9925H99.6075C100.907 37.9925 103.155 37.2425 106.354 35.7425V35.681H106.469V35.744C109.709 37.244 111.954 37.9925 113.204 37.9925H118.028V34.688H113.692C112.641 34.5645 111.613 34.2892 110.64 33.8705L110.25 33.758L116.922 29.9885V26.219H95.877V30.0635L95.8755 30.065ZM101.203 29.51L101.304 29.1215H111.556L111.619 29.5115L111.577 29.5325C110.668 30.0034 109.748 30.453 108.817 30.881C107.272 31.5965 106.658 31.874 106.469 31.9235C105.582 31.6186 104.716 31.2532 103.879 30.83C102.993 30.4037 102.101 29.9892 101.203 29.5865V29.51Z" fill="black"/>
<path fill-rule="evenodd" clip-rule="evenodd" d="M208.117 29.2595H212.013V34.487C212.027 34.9557 211.941 35.4219 211.761 35.855C211.581 36.2881 211.312 36.6781 210.97 36.9995C210.659 37.323 210.284 37.5784 209.869 37.7493C209.453 37.9203 209.007 38.0031 208.558 37.9925H185.224V34.7135L189.823 23.4035H184.998V19.562H212.541V23.393H194.146L189.661 34.187H206.974C207.28 34.1945 207.574 34.076 207.792 33.86C207.998 33.6326 208.114 33.3375 208.117 33.0305V29.2595ZM212.44 13.0505V9.206H185.752V13.0505H212.44ZM128.218 8.615L127.389 9.7595H136.234V13.151H130.869V14.684H136.284V18.077H131.635L132.615 19.334C132.828 19.529 133.095 19.6505 133.381 19.685H135.931V23.1785H132.64C132.221 23.1762 131.806 23.0881 131.422 22.9197C131.037 22.7513 130.691 22.506 130.405 22.199L128.808 20.276L127.765 21.809C127.21 22.658 126.265 23.171 125.253 23.1785H121.647V19.685H124.699C124.888 19.6791 125.073 19.6253 125.236 19.5288C125.398 19.4323 125.534 19.2961 125.629 19.133L126.232 18.0275H121.582V14.6345H126.835V13.151H124.75C124.332 13.5365 123.786 13.751 123.217 13.754H121.483V10.349H122.236C122.497 10.3655 122.746 10.241 122.89 10.0235L123.933 8.615H128.218Z" fill="black"/>
<path fill-rule="evenodd" clip-rule="evenodd" d="M149.19 22.199C149.53 21.8764 149.799 21.4859 149.978 21.0527C150.158 20.6196 150.244 20.1536 150.231 19.685V9.095H137.151V23.243H146.751C147.22 23.2543 147.685 23.1673 148.118 22.9878C148.551 22.8082 148.941 22.54 149.264 22.2005H149.189L149.19 22.199ZM146.184 19.145C145.944 19.3633 145.63 19.4805 145.305 19.472H140.919V12.863H146.574V18.329C146.55 18.64 146.411 18.9309 146.184 19.145ZM122.175 24.008H149.541V34.4735C149.529 35.3985 149.157 36.2824 148.506 36.9389C147.854 37.5954 146.973 37.9731 146.048 37.9925H122.174L122.175 24.008ZM125.955 27.626V29.096H145.796V27.626H125.955ZM144.98 34.4495C145.198 34.4487 145.408 34.3682 145.571 34.223C145.724 34.0455 145.804 33.8167 145.796 33.5825V32.765H125.957V34.4495H144.98Z" fill="black"/>
<path fill-rule="evenodd" clip-rule="evenodd" d="M165.07 17.474C165.457 17.4788 165.84 17.4044 166.197 17.2553C166.553 17.1061 166.875 16.8855 167.143 16.607C167.715 16.091 168.036 15.3545 168.024 14.5835V12.275H164.529V13.2155C164.529 13.718 164.254 13.97 163.701 13.97H158.814L162.871 8.6555H158.221L153.675 14.471V17.474H165.07ZM180.085 13.868C179.782 14.1878 179.415 14.4403 179.008 14.6091C178.601 14.7778 178.163 14.8591 177.723 14.8475H172.548V17.9765C172.545 18.1109 172.574 18.2442 172.63 18.3663C172.686 18.4883 172.769 18.5961 172.873 18.6815C173.053 18.887 173.314 19.0055 173.59 19.007H181.543V22.7H172.459C171.99 22.7121 171.524 22.6254 171.091 22.4456C170.658 22.2657 170.268 21.9967 169.945 21.656C169.605 21.3341 169.338 20.9436 169.16 20.5105C168.982 20.0773 168.899 19.6114 168.915 19.1435V8.78H172.521V11.129H176.568C177.019 11.129 177.246 10.9145 177.246 10.475V8.942H181.015V11.456C181.036 12.3512 180.701 13.2182 180.085 13.868ZM177.36 26.093C177.36 26.483 177.157 26.684 176.743 26.684H172.633V23.894H169.029V34.424C169.009 35.369 169.383 36.278 170.059 36.9365C170.734 37.583 171.637 37.9355 172.572 37.9175H181.656V34.298H173.59C173.327 34.3026 173.071 34.2084 172.873 34.034C172.67 33.825 172.553 33.5469 172.546 33.2555V30.4535H178.087C178.468 30.46 178.845 30.3849 179.194 30.2333C179.543 30.0817 179.856 29.857 180.111 29.5745C180.681 29.0315 181 28.2755 180.99 27.4895V24.5495H177.22L177.358 26.0945L177.36 26.093Z" fill="black"/>
<path fill-rule="evenodd" clip-rule="evenodd" d="M163.914 33.482V33.2555H158.097V37.9925H154.327V18.5795H167.47V34.3745C167.477 34.8517 167.389 35.3255 167.21 35.7679C167.031 36.2103 166.765 36.6122 166.428 36.95C165.755 37.6078 164.856 37.9811 163.915 37.9925H162.658V34.7375C162.828 34.7577 163 34.7392 163.162 34.6833C163.323 34.6273 163.47 34.5355 163.591 34.4147C163.712 34.2938 163.804 34.1471 163.86 33.9855C163.916 33.824 163.934 33.6518 163.914 33.482ZM158.097 27.7895V29.537H163.953V27.7895H158.097ZM158.097 24.0575H163.953V22.2995H158.097V24.0575Z" fill="black"/>
</svg>
