<svg width="46" height="46" viewBox="0 0 46 46" fill="none" xmlns="http://www.w3.org/2000/svg">
<path d="M25.0122 29.7332H30.9155C31.3257 29.7332 31.6611 30.0725 31.6611 30.4884V33.9767C32.3721 34.1521 33.0036 34.5613 33.454 35.1386C33.9045 35.716 34.1479 36.428 34.1451 37.1603C34.1451 38.9677 32.698 40.434 30.9155 40.434C29.1311 40.434 27.684 38.9677 27.684 37.1603C27.684 35.6136 28.7458 34.316 30.1699 33.9748V31.2436H25.0141V40.181C25.0146 40.3108 24.9817 40.4386 24.9186 40.552C24.8555 40.6655 24.7643 40.7608 24.6538 40.8288L19.4979 43.9741C19.381 44.0456 19.2464 44.0832 19.1093 44.0825C18.9721 44.0818 18.8379 44.0429 18.7217 43.9702L9.28017 38.0554C9.17123 37.987 9.08151 37.892 9.01947 37.7793C8.95743 37.6667 8.92512 37.54 8.92559 37.4114V31.2417L4.20867 28.5008C4.10141 28.4386 4.01105 28.3511 3.94555 28.2458C3.88005 28.1405 3.8414 28.0208 3.83301 27.8971V27.8453V18.0282C3.83301 17.7598 3.97292 17.5107 4.20101 17.3765L8.92559 14.5743V8.52533C8.92559 8.27808 9.04442 8.04808 9.24184 7.90816L9.28209 7.88133L18.7255 2.02783C18.8426 1.95495 18.9777 1.91632 19.1155 1.91632C19.2534 1.91632 19.3885 1.95495 19.5056 2.02783L24.6614 5.23825C24.7704 5.30663 24.8601 5.40164 24.9221 5.51432C24.9842 5.62699 25.0165 5.75362 25.016 5.88224V14.5667H32.4067V10.8924C31.6953 10.717 31.0636 10.3075 30.6131 9.72975C30.1626 9.152 29.9194 8.43955 29.9227 7.70691C29.9227 5.89949 31.3698 4.43324 33.1523 4.43324C34.9367 4.43324 36.3818 5.89949 36.3818 7.70691C36.3818 9.25366 35.3219 10.5512 33.8978 10.8924V15.3218C33.8986 15.4204 33.8799 15.5182 33.8428 15.6095C33.8057 15.7008 33.751 15.784 33.6817 15.8541C33.6125 15.9243 33.5301 15.9801 33.4392 16.0183C33.3483 16.0565 33.2508 16.0765 33.1523 16.077H25.016V19.5385H37.712C37.8751 18.8259 38.2744 18.1893 38.8451 17.7324C39.4158 17.2755 40.1243 17.0251 40.8553 17.0219C42.6378 17.0219 44.0849 18.4862 44.0849 20.2937C44.0849 22.1011 42.6398 23.5673 40.8553 23.5673C40.124 23.564 39.4154 23.3133 38.8446 22.8561C38.2739 22.3988 37.8747 21.7618 37.712 21.0488H25.0122V24.7614H34.5054L36.2592 27.0231C36.7476 26.7375 37.3034 26.5873 37.8692 26.588C39.6536 26.588 41.0988 28.0523 41.0988 29.8597C41.0988 31.6672 39.6536 33.1334 37.8692 33.1334C36.0867 33.1334 34.6396 31.6672 34.6396 29.8597C34.6396 29.1966 34.8351 28.5794 35.1686 28.0638L33.7809 26.2717H25.0122V29.7332ZM19.1146 3.55733L15.1988 5.98383V11.6725H13.7077V6.90766L10.4168 8.94891V14.5935L14.4609 17.2002L18.6143 14.5858V10.2235H20.1055V15.0075C20.1055 15.2682 19.9713 15.5116 19.7528 15.6496L15.2621 18.4728V22.4614L17.9876 24.3953L17.1328 25.6335L14.4379 23.7207L11.5054 25.6469L10.6947 24.3819L13.7709 22.3598V18.5457L9.65584 15.8892L5.32417 18.4575V21.6698L9.10384 19.3909L9.86667 20.6885L5.32417 23.4274V27.4083L9.47567 29.8195L13.8265 27.1975L14.5874 28.4951L10.4168 31.0078V36.9917L14.0124 39.2437L18.5453 36.5106L19.3082 37.8101L15.4423 40.1407L19.1184 42.4427L23.5229 39.7536V28.6752L14.4034 34.2202L13.6368 32.9264L23.5229 26.9157V6.30391L19.1146 3.55733ZM30.9155 35.4008C30.6854 35.4021 30.4578 35.4487 30.2457 35.5381C30.0336 35.6274 29.8412 35.7577 29.6796 35.9215C29.5179 36.0853 29.3901 36.2794 29.3036 36.4926C29.217 36.7058 29.1734 36.934 29.1752 37.1642C29.1752 38.1359 29.9533 38.9237 30.9155 38.9237C31.1453 38.9222 31.3726 38.8754 31.5843 38.7861C31.796 38.6967 31.9881 38.5666 32.1495 38.403C32.311 38.2394 32.4386 38.0457 32.5251 37.8328C32.6117 37.6199 32.6554 37.392 32.6539 37.1622C32.6557 36.9323 32.6121 36.7042 32.5257 36.4911C32.4393 36.278 32.3117 36.084 32.1502 35.9202C31.9888 35.7565 31.7966 35.6261 31.5847 35.5367C31.3729 35.4472 31.1455 35.4023 30.9155 35.4008ZM37.873 28.0983C37.6429 28.0996 37.4153 28.1462 37.2032 28.2356C36.9911 28.3249 36.7987 28.4552 36.6371 28.619C36.4754 28.7828 36.3476 28.9769 36.2611 29.1901C36.1745 29.4033 36.1309 29.6315 36.1327 29.8617C36.1327 30.8353 36.9108 31.625 37.8711 31.625C38.1012 31.6237 38.3288 31.5771 38.5409 31.4878C38.753 31.3984 38.9454 31.2681 39.107 31.1043C39.2687 30.9405 39.3964 30.7465 39.483 30.5332C39.5696 30.32 39.6132 30.0918 39.6114 29.8617C39.6132 29.6315 39.5696 29.4033 39.483 29.1901C39.3964 28.9769 39.2687 28.7828 39.107 28.619C38.9454 28.4552 38.753 28.3249 38.5409 28.2356C38.3288 28.1462 38.1031 28.0996 37.873 28.0983ZM40.8534 18.5342C40.6233 18.5354 40.3957 18.582 40.1836 18.6714C39.9715 18.7607 39.7791 18.891 39.6175 19.0548C39.4558 19.2186 39.3281 19.4127 39.2415 19.6259C39.155 19.8392 39.1113 20.0674 39.1131 20.2975C39.1131 21.2692 39.8932 22.057 40.8534 22.057C41.0832 22.0555 41.3105 22.0087 41.5222 21.9194C41.734 21.8301 41.926 21.6999 42.0874 21.5363C42.2489 21.3728 42.3765 21.179 42.463 20.9661C42.5496 20.7532 42.5934 20.5254 42.5918 20.2956C42.5936 20.0656 42.55 19.8376 42.4636 19.6244C42.3772 19.4113 42.2496 19.2173 42.0881 19.0536C41.9267 18.8898 41.7345 18.7595 41.5227 18.67C41.3108 18.5806 41.0834 18.5337 40.8534 18.5322V18.5342ZM33.1503 5.94166C32.9204 5.94317 32.693 5.98998 32.4811 6.07944C32.2692 6.16889 32.0771 6.29923 31.9156 6.463C31.7542 6.62677 31.6266 6.82075 31.5402 7.03386C31.4537 7.24697 31.4102 7.47503 31.4119 7.70499C31.4119 8.67866 32.1901 9.46833 33.1503 9.46833C33.3805 9.46707 33.6081 9.42044 33.8202 9.3311C34.0323 9.24176 34.2246 9.11146 34.3863 8.94767C34.5479 8.78387 34.6757 8.5898 34.7623 8.37657C34.8488 8.16333 34.8924 7.93512 34.8907 7.70499C34.8924 7.47487 34.8488 7.24666 34.7623 7.03342C34.6757 6.82019 34.5479 6.62612 34.3863 6.46232C34.2246 6.29853 34.0323 6.16823 33.8202 6.07889C33.6081 5.98955 33.3805 5.94291 33.1503 5.94166Z" fill="url(#paint0_linear_524_472)"/>
<defs>
<linearGradient id="paint0_linear_524_472" x1="3223.99" y1="845.24" x2="696.744" y2="3257.75" gradientUnits="userSpaceOnUse">
<stop stop-color="#6350FB"/>
<stop offset="0.5" stop-color="#3D8FFF"/>
<stop offset="1" stop-color="#9AD8F8"/>
</linearGradient>
</defs>
</svg>
