<svg width="46" height="46" viewBox="0 0 46 46" fill="none" xmlns="http://www.w3.org/2000/svg">
<g clip-path="url(#clip0_530_704)">
<path d="M22.9429 14.5072C22.5326 14.5583 22.1533 14.7519 21.8713 15.0543C21.5893 15.3566 21.4225 15.7485 21.4 16.1613C21.3751 16.5351 21.3808 16.5619 22.2242 18.7431C24.1408 23.7072 24.6047 24.9032 24.6833 25.0719C24.873 25.4801 25.1375 25.8635 25.4691 26.2066C25.7259 26.4711 25.8946 26.6129 26.1783 26.8026C26.6766 27.14 26.9258 27.232 28.8712 27.8127C30.7668 28.3781 31.8018 28.7519 32.693 29.1985C33.8488 29.7773 34.6557 30.4328 35.1655 31.2129C35.5316 31.7726 35.8555 32.775 35.9973 33.7851C36.0529 34.1799 36.0529 35.052 35.9973 35.4085C35.9056 36.1092 35.6595 36.7809 35.2767 37.375C35.085 37.6644 35.1521 37.6165 35.4319 37.2638C36.2273 36.2671 37.0381 34.5651 37.4521 33.0222C37.953 31.1374 38.0198 29.1636 37.6476 27.2492C37.2937 25.4293 36.5456 23.7089 35.4559 22.209C34.3662 20.709 32.9613 19.4658 31.3398 18.5667C30.4984 18.1147 29.6538 17.6688 28.806 17.2289L28.3192 16.974C27.3123 16.4468 26.306 15.9185 25.3004 15.3889C24.2501 14.8331 23.8054 14.6107 23.6789 14.5724C23.4972 14.5239 23.3109 14.495 23.1231 14.4861L22.9448 14.5053L22.9429 14.5072Z" fill="url(#paint0_radial_530_704)"/>
<path d="M25.2313 33.0433C25.1001 33.1197 24.971 33.1996 24.8441 33.2829C23.6959 33.9929 22.549 34.7053 21.4037 35.42C20.7733 35.8145 20.1414 36.2068 19.5081 36.5968L18.6207 37.1488C17.6665 37.7586 16.7068 38.3598 15.7419 38.9524C15.117 39.3358 14.3925 39.5926 13.6527 39.6942C13.3077 39.7402 12.656 39.7402 12.311 39.6942C11.3944 39.5732 10.5243 39.2181 9.78488 38.663C9.40228 38.3523 9.05344 38.0022 8.74413 37.6184C8.26251 36.9705 7.93122 36.2234 7.7743 35.4315C7.75313 35.3142 7.72691 35.1978 7.69571 35.0827C7.68038 35.0673 7.70721 35.3472 7.75704 35.7152C7.80879 36.0966 7.91996 36.6486 8.03879 37.1201C8.96263 40.7752 11.5846 43.746 15.14 45.1605C16.1586 45.5666 17.2277 45.8322 18.3179 45.9502C18.7395 45.9981 19.9355 46.0173 20.3764 45.9828C22.3965 45.8294 24.156 45.2295 25.9596 44.0814C26.5576 43.6996 27.1563 43.3189 27.7555 42.9391L28.4915 42.4714L29.8025 41.6377L30.251 41.3521L30.2683 41.3425L30.3162 41.3099L30.3411 41.2965L30.6708 41.0857L31.815 40.3573C33.2717 39.4354 33.7068 39.1115 34.3834 38.4445C34.667 38.1647 35.0925 37.6893 35.1136 37.6299C35.1175 37.6165 35.1941 37.4996 35.2823 37.3693C35.6623 36.7764 35.9065 36.1068 35.9972 35.4085C36.0522 34.8688 36.0522 34.3248 35.9972 33.7851C35.8944 33.0343 35.6893 32.3011 35.3877 31.6058C34.9584 30.7012 34.046 29.8808 32.737 29.2196C32.4866 29.0847 32.2265 28.9687 31.9588 28.8727C31.9396 28.8727 30.7206 29.624 29.2505 30.5402C28.1912 31.1987 27.1319 31.8574 26.0727 32.5163L25.2313 33.0433Z" fill="url(#paint1_radial_530_704)"/>
<path d="M7.67274 28.6465L7.68041 35.029L7.76091 35.3989C8.01774 36.5566 8.46241 37.3922 9.23674 38.1685C9.72401 38.6675 10.3071 39.063 10.951 39.3311C11.5949 39.5992 12.2864 39.7344 12.9838 39.7286C14.0112 39.7286 14.9005 39.4699 15.8186 38.9045L17.166 38.0707L18.2317 37.4076V15.3391C18.2317 10.9192 18.224 8.2953 18.2087 8.09022C18.1293 6.81397 17.586 5.61079 16.6811 4.7073C16.4032 4.4313 16.1674 4.2473 15.4602 3.75664C13.9874 2.73685 12.5154 1.71591 11.0442 0.693804C10.3618 0.220388 10.312 0.187804 10.1031 0.113054C9.85829 0.0216694 9.59661 -0.0155569 9.33605 0.00394098C9.0755 0.0234388 8.82226 0.0991971 8.59381 0.225995C8.36535 0.352793 8.16711 0.527616 8.01273 0.738417C7.85835 0.949218 7.75151 1.19098 7.69958 1.44705C7.67274 1.5678 7.66699 3.17972 7.66699 11.9274V22.2659L7.67274 28.6465Z" fill="url(#paint2_linear_530_704)"/>
</g>
<defs>
<radialGradient id="paint0_radial_530_704" cx="0" cy="0" r="1" gradientUnits="userSpaceOnUse" gradientTransform="translate(352.064 -1689.38) rotate(-140.292) scale(2009.07 2794.92)">
<stop stop-color="#00CACC"/>
<stop offset="1" stop-color="#048FCE"/>
</radialGradient>
<radialGradient id="paint1_radial_530_704" cx="0" cy="0" r="1" gradientUnits="userSpaceOnUse" gradientTransform="translate(522.38 991.25) rotate(-35.5329) scale(2883.38 2265.06)">
<stop stop-color="#00BBEC"/>
<stop offset="1" stop-color="#2756A9"/>
</radialGradient>
<linearGradient id="paint2_linear_530_704" x1="535.9" y1="-0.00109863" x2="535.9" y2="3972.99" gradientUnits="userSpaceOnUse">
<stop stop-color="#00BBEC"/>
<stop offset="1" stop-color="#2756A9"/>
</linearGradient>
<clipPath id="clip0_530_704">
<rect width="46" height="46" fill="white"/>
</clipPath>
</defs>
</svg>
