<svg width="132" height="46" viewBox="0 0 132 46" fill="none" xmlns="http://www.w3.org/2000/svg">
<g clip-path="url(#clip0_530_693)">
<path d="M86.6208 8.67869V31.6787L86.6476 31.7074H90.883V23.0537C90.883 20.9185 90.8563 19.0843 90.7472 17.5509C90.7072 16.9887 90.6587 16.427 90.6018 15.8662L96.649 25.4361H98.8107L105.04 15.7857C104.975 16.4259 104.921 17.0699 104.877 17.7158C104.785 19.4846 104.739 21.2556 104.739 23.0269V31.6787H108.975V8.67869H105.149L97.8599 20.4106L90.665 8.6806L86.6208 8.67869ZM113.266 8.67869V31.6787H128.134V27.7361H117.53V8.67869H113.266ZM26.7827 6.57227C30.8269 6.57227 34.5439 8.05002 37.3867 10.4861L41.6222 5.47594C37.4861 1.93533 32.2228 -0.0068826 26.7827 1.83267e-05C14.1298 1.83267e-05 3.82617 10.3232 3.82617 23C3.82617 35.6769 14.1298 46 26.7827 46C32.4396 46 37.6048 43.9473 41.6222 40.5509L37.865 35.5408C34.9954 37.9769 30.8269 39.4278 26.7827 39.4278C17.7359 39.4278 10.386 32.0639 10.386 23C10.386 13.9361 17.7359 6.57227 26.7827 6.57227Z" fill="#00A87B"/>
<path d="M72.5996 18.1259V14.375H76.0163V9.96667H80.0605V14.375H83.8043V18.1259H80.0605V31.6787H76.0163V18.1259H72.5996Z" fill="black"/>
<path d="M38.7655 30.8583C40.1601 31.625 41.7728 32.0084 43.5768 32.0084L43.5481 31.9815C44.3791 31.9798 45.2062 31.869 46.0083 31.6518C46.8295 31.4325 47.6262 31.13 48.3862 30.7491C49.1514 30.3658 49.8076 29.9 50.4083 29.3518L48.413 26.5593C47.6478 27.2435 46.9094 27.7093 46.2264 27.9833C45.5434 28.2306 44.805 28.3667 43.9862 28.3667C42.8384 28.3667 41.7996 28.1194 40.9521 27.6824C40.1142 27.2529 39.4204 26.5865 38.9568 25.7658C38.634 25.179 38.4189 24.5389 38.3217 23.8759H51.12V22.4518C51.154 21.2959 50.9683 20.1439 50.5728 19.0574C50.1902 18.0167 49.6163 17.1408 48.9047 16.3741C48.1659 15.6261 47.2947 15.0222 46.3354 14.5935C45.3377 14.1505 44.2569 13.9263 43.1655 13.9361C41.8819 13.9361 40.7073 14.1565 39.613 14.6223C38.559 15.0563 37.6089 15.7096 36.8257 16.5389C36.0269 17.373 35.4042 18.36 34.9949 19.4408C34.5448 20.6298 34.3222 21.8932 34.3388 23.1648C34.3388 24.863 34.7481 26.3944 35.5134 27.7093C36.3073 29.0509 37.3728 30.0917 38.7655 30.8583ZM38.4021 21.1102C38.4901 20.677 38.6182 20.2822 38.7923 19.9333C39.1749 19.1667 39.7221 18.5648 40.4605 18.1547C41.1989 17.7426 42.1 17.5241 43.1655 17.5241C43.8485 17.5241 44.5047 17.6602 45.0786 17.9611C45.6525 18.2352 46.1174 18.6473 46.5 19.1686C46.8826 19.6593 47.1007 20.2611 47.1561 20.9473V21.1102H38.4021Z" fill="black"/>
<path d="M54.5889 14.375V31.6538H58.635V21.1945C58.635 20.6751 58.7172 20.1806 58.9353 19.7436C59.1266 19.3047 59.427 18.8945 59.7828 18.5648C60.1386 18.2103 60.5748 17.963 61.0664 17.7713C61.5581 17.5797 62.0784 17.4973 62.6791 17.4973C63.3889 17.4704 64.0183 17.6084 64.5099 17.8806C65.0303 18.1547 65.3842 18.5936 65.631 19.1686C65.8758 19.7436 65.9868 20.4834 65.9868 21.3593V31.6538H70.031V21.0853C70.031 19.4963 69.7842 18.1834 69.348 17.1427C68.9099 16.1019 68.227 15.3084 67.3527 14.7871C66.4517 14.2677 65.3574 13.9936 64.045 13.9936C63.144 13.9936 62.241 14.2121 61.3668 14.5954C60.4925 14.9788 59.7273 15.4982 59.0998 16.1556C58.9009 16.3626 58.721 16.5773 58.5642 16.7958L58.5259 14.3769L54.5889 14.375ZM22.2317 31.1861C23.5708 32.0083 25.1012 32.4185 26.7962 32.4185H26.823C28.3266 32.4185 29.748 32.0908 31.1139 31.4602C31.8927 31.1047 32.6194 30.6443 33.2737 30.0917L30.8958 27.2703C30.8136 27.3528 30.7045 27.4352 30.5955 27.5176C30.1038 27.9009 29.5835 28.175 29.0096 28.3667C28.4603 28.577 27.8757 28.6791 27.2878 28.6676C26.3045 28.6676 25.4016 28.3935 24.6096 27.9009C23.8012 27.4109 23.1402 26.7108 22.6965 25.875C22.2193 24.9929 21.975 24.0033 21.9868 23C21.9868 21.9324 22.2049 20.9453 22.6697 20.0963C23.1059 19.2491 23.7353 18.5629 24.5273 18.0703C25.3414 17.5718 26.2803 17.3159 27.2343 17.3324C27.8082 17.3324 28.4089 17.4685 29.0096 17.687C29.5835 17.9074 30.1574 18.2352 30.6777 18.6185C30.7313 18.6453 30.869 18.7546 30.869 18.7546L33.3005 15.8796C32.6782 15.3245 31.9783 14.8635 31.223 14.5111C29.8838 13.8824 28.4911 13.5796 26.7962 13.5796C25.1012 13.5796 23.5708 13.9917 22.2317 14.812C20.8657 15.6343 19.827 16.7574 19.035 18.1796C18.243 19.6037 17.8604 21.1926 17.8604 23C17.8604 24.8074 18.243 26.3944 19.035 27.8185C19.7887 29.2015 20.8908 30.3625 22.2317 31.1861Z" fill="black"/>
</g>
<defs>
<clipPath id="clip0_530_693">
<rect width="132" height="46" fill="white"/>
</clipPath>
</defs>
</svg>
