<svg width="46" height="46" viewBox="0 0 46 46" fill="none" xmlns="http://www.w3.org/2000/svg">
<path fill-rule="evenodd" clip-rule="evenodd" d="M27.065 5.17691C22.338 5.17691 17.8046 7.0547 14.4622 10.3972C11.1197 13.7396 9.24189 18.273 9.24189 23C9.24189 27.727 11.1197 32.2603 14.4622 35.6028C17.8046 38.9453 22.338 40.8231 27.065 40.8231V43.5083C15.7375 43.5083 6.55664 34.3256 6.55664 22.9981C6.55664 11.6706 15.7356 2.48975 27.0631 2.48975V5.175L27.065 5.17691ZM36.173 12.2245C34.7569 11.0224 33.1172 10.1121 31.348 9.54593C29.5789 8.97976 27.7153 8.76891 25.8645 8.92548C24.0136 9.08206 22.2119 9.60297 20.563 10.4583C18.9142 11.3136 17.4506 12.4864 16.2566 13.9093C15.0626 15.3322 14.1616 16.9771 13.6056 18.7494C13.0495 20.5217 12.8492 22.3865 13.0163 24.2364C13.1834 26.0864 13.7146 27.8851 14.5793 29.529C15.4439 31.173 16.6251 32.6298 18.0547 33.8157L16.3278 35.8742C14.6395 34.458 13.2467 32.7231 12.2289 30.7686C11.2111 28.8141 10.5883 26.6782 10.3961 24.4829C10.2039 22.2877 10.446 20.0761 11.1086 17.9744C11.7712 15.8727 12.8413 13.9221 14.2578 12.2341C15.6742 10.5457 17.4092 9.15282 19.3639 8.13503C21.3186 7.11723 23.4547 6.49444 25.6501 6.30222C27.8455 6.11 30.0573 6.35212 32.1591 7.01474C34.2609 7.67736 36.2117 8.74751 37.8999 10.1641L36.173 12.2245ZM31.8509 13.8422C29.4231 12.5882 26.5983 12.3438 23.9912 13.1622C21.3841 13.9806 19.2057 15.7955 17.9301 18.212C16.6546 20.6286 16.385 23.4511 17.18 26.0654C17.9751 28.6796 19.7705 30.8741 22.1756 32.1712L20.9182 34.5479C17.9142 32.9007 15.6783 30.1385 14.6929 26.8572C13.7075 23.576 14.0517 20.0389 15.6512 17.0092C17.2507 13.9795 19.9772 11.7002 23.2425 10.663C26.5077 9.62589 30.0498 9.91411 33.1044 11.4655L31.8509 13.8422ZM27.0631 16.3664C25.3037 16.3664 23.6164 17.0653 22.3724 18.3093C21.1284 19.5534 20.4295 21.2407 20.4295 23C20.4295 24.7593 21.1284 26.4466 22.3724 27.6906C23.6164 28.9347 25.3037 29.6336 27.0631 29.6336V32.3207C24.591 32.3207 22.2203 31.3387 20.4723 29.5908C18.7243 27.8428 17.7423 25.472 17.7423 23C17.7423 20.528 18.7243 18.1572 20.4723 16.4092C22.2203 14.6613 24.591 13.6792 27.0631 13.6792V16.3664Z" fill="#F15A29"/>
<path d="M29.5305 20.769C29.2448 20.4613 28.9155 20.1972 28.553 19.9851C28.2373 19.7975 27.8776 19.697 27.5104 19.6937C27.0216 19.6937 26.5846 19.7838 26.1994 19.9621C25.827 20.1298 25.4924 20.3711 25.2157 20.6715C24.9391 20.9719 24.726 21.3252 24.5894 21.7101C24.4475 22.0992 24.3785 22.5074 24.3785 22.9195C24.3785 23.3373 24.4475 23.7437 24.5894 24.1289C24.7271 24.5134 24.9406 24.8664 25.2171 25.1669C25.4937 25.4675 25.8277 25.7096 26.1994 25.8788C26.5827 26.0571 27.0235 26.1472 27.5104 26.1472C27.9244 26.1472 28.3096 26.059 28.6642 25.8884C29.0245 25.7159 29.335 25.4572 29.5746 25.1371L31.3533 27.0652C31.085 27.3336 30.7783 27.5655 30.4295 27.761C29.7843 28.1208 29.0822 28.3671 28.3537 28.4893C28.0279 28.5392 27.7461 28.566 27.5104 28.566C26.737 28.5708 25.9692 28.4344 25.2449 28.1635C24.56 27.9102 23.9335 27.521 23.403 27.0192C22.8754 26.5152 22.4555 25.9095 22.1686 25.2387C21.8569 24.5057 21.7015 23.7159 21.7125 22.9195C21.7125 22.0685 21.8658 21.2961 22.1686 20.6003C22.4561 19.9295 22.874 19.3238 23.401 18.8197C23.9339 18.3195 24.5606 17.9304 25.2449 17.6774C25.9692 17.4065 26.737 17.2701 27.5104 17.2749C28.1908 17.2749 28.875 17.4052 29.565 17.6659C30.257 17.9304 30.878 18.3559 31.3744 18.9098L29.5305 20.769Z" fill="black"/>
</svg>
