<svg width="46" height="46" viewBox="0 0 46 46" fill="none" xmlns="http://www.w3.org/2000/svg">
<path fill-rule="evenodd" clip-rule="evenodd" d="M19.0076 3.83333C28.4107 3.83333 38.5154 11.3984 36.1234 24.1117C36.0966 24.2458 36.0525 24.38 36.0142 24.5142L36.0084 23.9832C35.8493 18.2332 33.0682 6.85974 19.0076 6.85974C12.5043 6.85974 3.41167 12.7132 3.80842 22.4959C3.73175 31.6537 10.6222 38.5959 19.0459 38.4656L19.1858 38.4637C21.4858 38.4004 24.4816 37.6414 25.1275 35.2877C25.2482 35.2283 25.6258 36.3112 25.6412 36.4339C25.7332 36.9246 25.8558 37.1412 26.0092 37.0856C27.8894 36.4186 30.3907 34.7434 29.7505 32.5239C29.4132 31.3547 26.3484 32.2422 26.0686 31.8588C26.8697 29.9824 30.3504 30.084 32.1118 30.4865C32.9609 30.682 33.3711 31.2148 34.0515 31.3337C34.6073 31.4333 35.9317 30.9503 35.8915 31.7975C33.0165 37.628 26.5132 42.1667 19.0095 42.1667C7.0035 42.1667 0 31.7668 0 22.4959C0 11.3984 9.50475 3.83333 19.0076 3.83333ZM18.975 10.1583C19.9027 10.1583 21.1312 10.5896 21.62 11.2796C28.6522 11.5575 29.8866 16.4277 30.6168 21.7139C31.1056 25.2367 31.2206 26.1222 30.9657 24.3723L31.1247 25.5032C31.2551 26.3618 32.1866 26.9157 33.0069 26.4922C33.2829 26.3484 33.4937 26.0494 33.6356 25.5913C33.6507 25.5419 33.6757 25.496 33.7091 25.4564C33.7424 25.4169 33.7834 25.3845 33.8296 25.3612C33.8758 25.3379 33.9263 25.3242 33.9779 25.3209C34.0296 25.3177 34.0813 25.3249 34.1301 25.3422L35.328 25.7638C35.4171 25.7969 35.4908 25.8618 35.5347 25.9461C35.5786 26.0304 35.5897 26.128 35.5657 26.22C35.3892 26.879 35.0536 27.4845 34.5882 27.9833C32.9053 29.7409 29.3039 29.256 28.6848 26.795C28.4165 25.7332 28.5794 25.5952 28.0236 24.4145C27.4639 23.2242 25.6507 23.0556 24.7844 23.8491C24.1232 24.4528 24.0043 25.392 24.0062 26.3062L24.15 30.475C24.15 30.9325 23.9683 31.3713 23.6448 31.6948C23.3213 32.0183 22.8825 32.2 22.425 32.2H19.7417C19.5151 32.2 19.2908 32.1554 19.0815 32.0687C18.8722 31.982 18.6821 31.8549 18.5219 31.6948C18.3617 31.5346 18.2347 31.3444 18.148 31.1351C18.0613 30.9258 18.0167 30.7015 18.0167 30.475V29.2292C18.0167 28.9397 17.9597 28.6531 17.8489 28.3857C17.7381 28.1182 17.5758 27.8753 17.3711 27.6706C17.1664 27.4659 16.9234 27.3035 16.656 27.1928C16.3886 27.082 16.102 27.025 15.8125 27.025C15.523 27.025 15.2364 27.082 14.969 27.1928C14.7016 27.3035 14.4586 27.4659 14.2539 27.6706C14.0492 27.8753 13.8869 28.1182 13.7761 28.3857C13.6653 28.6531 13.6083 28.9397 13.6083 29.2292V30.475C13.6083 30.9325 13.4266 31.3713 13.1031 31.6948C12.7796 32.0183 12.3408 32.2 11.8833 32.2H9.2C8.7425 32.2 8.30374 32.0183 7.98024 31.6948C7.65674 31.3713 7.475 30.9325 7.475 30.475L7.54208 24.2669C7.56508 20.6559 8.22442 17.2557 12.2763 16.3434C12.6596 16.2572 12.7593 16.5926 12.8321 16.9989C12.88 17.2941 12.9145 17.4819 12.9337 17.5624C14.2772 23.4236 16.2878 25.8022 18.9597 24.6962L20.2247 24.0618L20.7115 23.8127C21.0143 23.6555 21.1907 23.5616 21.2405 23.5252C21.2635 23.506 20.9242 23.1303 20.4604 22.6358L18.5207 20.5907C18.3913 20.4548 18.2642 20.3168 18.1393 20.1767C18.0492 20.1116 17.917 20.3071 17.7407 20.7632C17.5988 21.0642 17.2596 21.2462 17.2193 21.3881C17.1944 21.4992 17.4263 21.9592 17.9132 22.7681C18.2275 23.3201 18.3348 23.7417 17.319 23.4255C15.3257 21.8922 14.4095 19.0689 14.0913 16.2859C14.0837 16.2188 13.7808 12.6193 13.7808 12.6193C13.7382 12.0109 13.9389 11.4104 14.339 10.9499C14.739 10.4895 15.3056 10.2068 15.9141 10.1641L18.975 10.1583ZM43.8802 26.795C43.9511 28.1309 43.1077 28.1443 41.5552 27.9277L38.1378 27.3987C37.6299 27.2972 37.3999 27.209 37.5379 27.117C38.4387 26.5132 43.8016 25.3345 43.8821 26.795H43.8802ZM42.1264 26.6359L40.3516 26.7164C38.7224 26.864 37.5686 27.1764 40.9994 27.3604L41.1968 27.3662C42.7589 27.3892 43.6195 26.6781 42.1264 26.6359ZM45.3215 19.734H45.3407C46.8548 20.4968 45.4691 21.7082 44.0948 22.4039C43.8265 22.5381 43.1537 22.7412 42.0785 23.0077C41.6166 23.0843 41.2026 23.184 41.4402 23.3143L41.4594 23.3239C45.2008 25.1601 35.4737 26.2641 36.6773 25.7868L37.4057 25.5032C38.709 24.9933 40.4992 24.196 40.5988 22.9406C40.6717 22.0206 43.0004 22.0934 43.4604 21.0852C43.5524 20.8821 43.4604 20.6329 43.1844 20.3397C43.0886 20.2496 43.0042 20.1595 42.9793 20.056C42.8394 19.4714 44.321 19.2299 45.3215 19.734ZM40.3995 18.8255C40.1407 21.1217 35.6481 26.8602 36.6639 24.3129L36.6965 24.2324C37.2677 22.8582 37.4172 19.9755 39.2591 18.0588C39.7382 17.5605 40.4781 18.1259 40.3995 18.8255ZM25.1122 18.3406C25.1505 17.0104 27.0327 16.4852 27.692 17.6755C27.7112 15.2337 23.9717 16.2035 25.1122 18.3406Z" fill="url(#paint0_linear_522_396)"/>
<defs>
<linearGradient id="paint0_linear_522_396" x1="-862.767" y1="1896.39" x2="2963.18" y2="4025.39" gradientUnits="userSpaceOnUse">
<stop stop-color="#504AF4"/>
<stop offset="1" stop-color="#3485FF"/>
</linearGradient>
</defs>
</svg>
