<svg width="184" height="46" viewBox="0 0 184 46" fill="none" xmlns="http://www.w3.org/2000/svg">
<g clip-path="url(#clip0_534_841)">
<path fill-rule="evenodd" clip-rule="evenodd" d="M32.6504 7.64941C37.9212 7.64941 42.1954 11.9427 42.1954 17.2385V20.4336L44.9745 25.9842C45.1101 26.2547 45.1804 26.5533 45.1797 26.8558C45.179 27.1584 45.1074 27.4566 44.9707 27.7265L42.1954 33.2158V36.4128C42.1954 41.7067 37.9212 46 32.6504 46H13.5584C8.28569 46 4.01344 41.7067 4.01344 36.4128V33.2158L1.17677 27.7437C1.03403 27.4696 0.959018 27.1652 0.958018 26.8561C0.957018 26.547 1.03006 26.2421 1.17102 25.967L4.01152 20.4336V17.2385C4.01152 11.9427 8.28569 7.64941 13.5565 7.64941H32.6504ZM15.8412 18.4C14.6852 18.4 13.5766 18.8592 12.7593 19.6766C11.9419 20.4939 11.4827 21.6026 11.4827 22.7585V30.5057C11.5066 31.6455 11.9762 32.7307 12.7908 33.5283C13.6054 34.326 14.7001 34.7728 15.8402 34.7728C16.9803 34.7728 18.0751 34.326 18.8897 33.5283C19.7043 32.7307 20.1739 31.6455 20.1978 30.5057V22.7585C20.1978 21.6029 19.7388 20.4946 18.9219 19.6773C18.1049 18.8599 16.9968 18.4005 15.8412 18.4ZM29.8827 18.4C28.7267 18.4 27.6181 18.8592 26.8008 19.6766C25.9834 20.4939 25.5242 21.6026 25.5242 22.7585V30.5057C25.5242 31.6616 25.9834 32.7702 26.8008 33.5876C27.6181 34.405 28.7267 34.8642 29.8827 34.8642C31.0386 34.8642 32.1472 34.405 32.9646 33.5876C33.782 32.7702 34.2412 31.6616 34.2412 30.5057V22.7585C34.2412 22.186 34.1284 21.6191 33.9092 21.0901C33.6901 20.5612 33.3689 20.0806 32.9639 19.6759C32.559 19.2711 32.0783 18.9501 31.5493 18.7312C31.0203 18.5123 30.4552 18.3997 29.8827 18.4Z" fill="black"/>
<path fill-rule="evenodd" clip-rule="evenodd" d="M23.1038 10.6528C24.5164 10.6528 25.8712 10.0917 26.8701 9.09276C27.869 8.09387 28.4302 6.73907 28.4302 5.32642C28.4302 3.91376 27.869 2.55897 26.8701 1.56007C25.8712 0.561174 24.5164 0 23.1038 0C21.6911 0 20.3363 0.561174 19.3374 1.56007C18.3385 2.55897 17.7773 3.91376 17.7773 5.32642C17.7773 6.73907 18.3385 8.09387 19.3374 9.09276C20.3363 10.0917 21.6911 10.6528 23.1038 10.6528Z" fill="black"/>
</g>
<path fill-rule="evenodd" clip-rule="evenodd" d="M171.337 37.979C169.642 37.979 168.087 37.6955 166.675 37.1315C165.326 36.5995 164.1 35.7988 163.071 34.778C162.064 33.7833 161.271 32.5935 160.74 31.2815C160.195 29.8834 159.922 28.3944 159.934 26.894V26.024C159.934 24.23 160.218 22.6055 160.783 21.149C161.347 19.694 162.124 18.452 163.114 17.42C164.084 16.4021 165.253 15.5944 166.548 15.047C167.873 14.4791 169.301 14.1901 170.743 14.198C172.398 14.198 173.86 14.4815 175.131 15.047C176.403 15.5975 177.471 16.367 178.332 17.357C179.194 18.359 179.844 19.553 180.282 20.939C180.72 22.3235 180.939 23.834 180.939 25.4735V27.6575H165.043V27.7625C165.198 28.7675 165.438 29.6075 165.763 30.2855C166.089 30.9635 166.533 31.571 167.098 32.108C167.664 32.6735 168.328 33.1115 169.09 33.422C169.867 33.7325 170.716 33.887 171.634 33.887C172.891 33.887 174.064 33.647 175.153 33.167C176.208 32.6983 177.132 31.9783 177.844 31.07L180.556 33.698C179.794 34.799 178.621 35.789 177.039 36.665C175.47 37.541 173.568 37.979 171.337 37.979ZM170.722 18.3095C170.002 18.3095 169.332 18.4445 168.709 18.713C168.102 18.968 167.557 19.334 167.077 19.8155C166.597 20.3105 166.194 20.903 165.87 21.596C165.527 22.345 165.285 23.1358 165.15 23.948H175.936V23.609C175.936 22.9445 175.816 22.289 175.576 21.638C175.351 20.999 175.006 20.4089 174.559 19.8995C174.113 19.4035 173.563 19.0126 172.948 18.755C172.312 18.458 171.57 18.3095 170.722 18.3095ZM134.565 37.5545V14.6225H139.143L139.461 17.8865C139.771 17.4485 140.11 17.0465 140.478 16.679C140.86 16.2965 141.262 15.959 141.687 15.6605C143.089 14.6975 144.754 14.1872 146.455 14.198C147.55 14.1859 148.639 14.3583 149.677 14.708C150.629 15.0324 151.488 15.585 152.178 16.3175C152.869 17.0525 153.408 17.993 153.789 19.1375C154.17 20.267 154.36 21.638 154.36 23.2475V37.5545H149.295V23.3345C149.295 22.3865 149.19 21.5945 148.977 20.96C148.765 20.324 148.455 19.8155 148.045 19.433C147.624 19.0456 147.114 18.7688 146.56 18.6275C145.912 18.4486 145.241 18.3627 144.568 18.3725C143.947 18.3725 143.368 18.458 142.831 18.6275C141.9 18.8915 141.062 19.4136 140.415 20.1335C140.117 20.4587 139.855 20.8135 139.63 21.1925V37.5545H134.565ZM109.66 14.6225H121.827V33.3575H128.566V37.5545H109.662V33.359H116.719V18.839H109.66V14.6225ZM116.253 8.6885C116.253 8.2775 116.323 7.904 116.464 7.5635C116.6 7.21869 116.81 6.90789 117.079 6.653C117.334 6.413 117.637 6.23 117.99 6.1025C118.357 5.9615 118.768 5.891 119.22 5.891C119.983 5.891 120.597 6.0875 121.065 6.4835C121.545 6.8645 121.819 7.3595 121.89 7.9685C121.989 8.5895 121.884 9.1325 121.572 9.599C121.261 10.052 120.81 10.355 120.216 10.511C119.917 10.7801 119.551 10.9631 119.157 11.0405C118.747 11.126 118.294 11.09 117.799 10.9355C117.325 10.8048 116.913 10.5117 116.634 10.1075C116.375 9.68015 116.243 9.18804 116.253 8.6885ZM83.4011 5H95.7581V33.359H102.709V37.5545H83.4011V33.359H90.6491V9.218H83.4011V5ZM77.0651 28.0595C76.9226 29.558 76.5701 30.9215 76.0046 32.15C75.47 33.3221 74.7142 34.3799 73.7786 35.2655C72.817 36.1598 71.6856 36.8519 70.4516 37.301C69.1796 37.766 67.7666 38 66.2126 38C64.9406 38 63.7676 37.8305 62.6936 37.4915C61.6713 37.1573 60.7117 36.6555 59.8541 36.0065C59.0419 35.4066 58.327 34.6852 57.7346 33.8675C57.1311 33.001 56.6265 32.0697 56.2301 31.091C55.8191 30.101 55.5101 29.0285 55.2971 27.869C55.096 26.6715 54.9966 25.4592 55.0001 24.245V20.027C55.0001 18.827 55.0991 17.6675 55.2971 16.5515C55.4951 15.4355 55.7921 14.3825 56.1866 13.3925C56.5914 12.3263 57.141 11.3208 57.8201 10.4045C58.477 9.52161 59.2634 8.74285 60.1526 8.0945C60.9987 7.50914 61.9267 7.05219 62.9066 6.7385C63.9841 6.40448 65.107 6.24002 66.2351 6.251C67.8596 6.251 69.3086 6.491 70.5791 6.971C71.8661 7.451 72.9611 8.1305 73.8641 9.0065C74.7988 9.91989 75.5351 11.0162 76.0271 12.227C76.5641 13.4855 76.9091 14.8835 77.0651 16.424H71.9786C71.9096 15.5781 71.7316 14.7447 71.4491 13.9445C71.1941 13.1945 70.8416 12.56 70.3886 12.0365C69.9183 11.5111 69.3302 11.1045 68.6726 10.85C67.9931 10.568 67.1816 10.4255 66.2351 10.4255C65.5706 10.4255 64.9706 10.5185 64.4336 10.7015C63.9101 10.8845 63.4436 11.147 63.0341 11.486C62.4511 11.9156 61.9668 12.4649 61.6136 13.097C61.2292 13.7881 60.9238 14.5202 60.7031 15.2795C60.5186 15.986 60.3776 16.742 60.2786 17.5475C60.1932 18.3572 60.1512 19.1708 60.1526 19.985V24.245C60.1526 25.277 60.2081 26.2445 60.3221 27.149C60.4481 28.052 60.6401 28.88 60.8936 29.6285C61.0916 30.2495 61.3391 30.815 61.6361 31.3235C61.9466 31.8335 62.3141 32.27 62.7371 32.6375C63.1751 33.0335 63.6776 33.3365 64.2431 33.5495C64.8221 33.7475 65.4791 33.8465 66.2141 33.8465C67.0901 33.8465 67.8671 33.719 68.5451 33.464C69.2231 33.209 69.8021 32.8355 70.2836 32.3405C70.7486 31.8605 71.1236 31.2605 71.4056 30.5405C71.6891 29.819 71.8721 28.9925 71.9576 28.0595H77.0651Z" fill="black"/>
<defs>
<clipPath id="clip0_534_841">
<rect width="46" height="46" fill="white"/>
</clipPath>
</defs>
</svg>
