<svg width="46" height="46" viewBox="0 0 46 46" fill="none" xmlns="http://www.w3.org/2000/svg">
<path fill-rule="evenodd" clip-rule="evenodd" d="M1.91699 13.8633C1.91699 7.2661 7.14949 1.91669 13.6048 1.91669H16.8133C18.0783 1.91669 19.1037 2.9651 19.1037 4.25885V6.36719C19.1037 7.66094 18.0783 8.70935 16.8133 8.70935H13.6048C10.9464 8.70935 8.10399 11.1474 8.10399 13.8652V17.1427C8.10399 18.4364 7.07858 19.4868 5.81358 19.4868H4.20933C2.94433 19.4868 1.91699 18.4364 1.91699 17.1427V13.8652V13.8633ZM44.0837 32.1368C44.0837 38.7339 38.8512 44.0834 32.3958 44.0834H29.1873C27.9223 44.0834 26.8969 43.0349 26.8969 41.7412V39.6329C26.8969 38.3391 27.9223 37.2888 29.1873 37.2888H32.3958C35.0542 37.2888 37.8967 34.8546 37.8967 32.1368V28.8574C37.8967 27.5636 38.9221 26.5133 40.1871 26.5133H41.7913C43.0563 26.5133 44.0837 27.5617 44.0837 28.8574V32.1368ZM32.3958 1.91669C38.8512 1.91669 44.0837 7.26419 44.0837 13.8633V17.1427C44.0837 18.4364 43.0582 19.4868 41.7913 19.4868H39.729C38.464 19.4868 37.4386 18.4364 37.4386 17.1427V13.8652C37.4386 11.1474 35.0542 8.24169 32.3977 8.24169H29.1873C27.9223 8.24169 26.8969 7.19327 26.8969 5.89952V4.25885C26.8969 2.9651 27.9223 1.91669 29.1873 1.91669H32.3958ZM13.6048 44.0834C7.14949 44.0834 1.91699 38.7359 1.91699 32.1368V28.8574C1.91699 27.5636 2.94241 26.5133 4.20933 26.5133H6.27166C7.53666 26.5133 8.56208 27.5617 8.56208 28.8574V32.1349C8.56208 34.8527 10.9464 37.7584 13.6029 37.7584H16.8133C18.0783 37.7584 19.1037 38.8068 19.1037 40.1005V41.7412C19.1037 43.0349 18.0783 44.0834 16.8133 44.0834H13.6048Z" fill="black"/>
</svg>
