<svg width="46" height="46" viewBox="0 0 46 46" fill="none" xmlns="http://www.w3.org/2000/svg">
<path d="M31.6116 33.35C31.8703 32.3533 31.7649 31.4659 31.303 30.7855C30.8909 30.1568 30.1683 29.7907 29.2905 29.7907L12.6864 29.5818C12.6328 29.5827 12.5801 29.5685 12.5343 29.5406C12.4885 29.5128 12.4516 29.4726 12.4277 29.4247C12.3759 29.3212 12.3759 29.2157 12.3759 29.1122C12.4277 28.9551 12.5829 28.7979 12.7382 28.7979L29.4975 28.5871C31.51 28.4836 33.6241 26.8621 34.3965 24.8745L35.3759 22.3637C35.4277 22.2582 35.4277 22.1528 35.4277 22.0493C34.3467 17.0775 30.015 13.4167 24.8055 13.4167C20.0081 13.4167 15.9352 16.5562 14.4919 20.8974C14.0064 20.5204 13.4511 20.2432 12.858 20.0817C12.265 19.9202 11.6458 19.8776 11.0362 19.9563C8.717 20.1652 6.90958 22.0493 6.65275 24.403C6.601 25.0317 6.65275 25.6067 6.75625 26.128C2.99 26.2353 0 29.3748 0 33.1947C0 33.5589 0.05175 33.8752 0.05175 34.2393C0.05175 34.3965 0.205083 34.5019 0.360333 34.5019H30.9944C31.1478 34.5019 31.3548 34.3965 31.4065 34.1876L31.6116 33.35Z" fill="#F38020"/>
<path d="M36.8726 22.5208H36.4088C36.3053 22.5208 36.2018 22.6243 36.15 22.7298L35.4792 25.0298C35.2224 26.0264 35.3259 26.9138 35.7897 27.5943C36.2018 28.2229 36.9244 28.5871 37.8022 28.5871L41.3576 28.7979C41.4611 28.7979 41.5646 28.8497 41.6164 28.9551C41.6681 29.0586 41.6681 29.164 41.6681 29.2675C41.6164 29.4247 41.4611 29.5818 41.3078 29.5818L37.647 29.7927C35.6345 29.8962 33.5204 31.5177 32.746 33.5053L32.4892 34.1857C32.4375 34.2911 32.539 34.4483 32.6943 34.4483H45.329C45.4842 34.4483 45.6395 34.3428 45.6395 34.1857C45.8445 33.3998 45.9998 32.5642 45.9998 31.6748C45.948 26.6532 41.8732 22.5189 36.8726 22.5189" fill="#FCAD32"/>
</svg>
