<svg width="283" height="46" viewBox="0 0 283 46" fill="none" xmlns="http://www.w3.org/2000/svg">
<g clip-path="url(#clip0_534_845)">
<path d="M25.9072 23.2032C27.4846 23.2032 28.2551 25.1045 27.1703 26.2315L16.8644 36.5873C16.6994 36.7544 16.5029 36.8872 16.2863 36.9778C16.0696 37.0684 15.8371 37.1151 15.6022 37.1151C15.3674 37.1151 15.1349 37.0684 14.9182 36.9778C14.7015 36.8872 14.505 36.7544 14.3401 36.5873L0.524776 22.6397C0.188748 22.3033 0 21.8473 0 21.3718C0 20.8963 0.188748 20.4403 0.524776 20.1039L12.1302 8.44484C12.592 7.98812 13.2153 7.73196 13.8648 7.73196C14.5143 7.73196 15.1376 7.98812 15.5994 8.44484C16.054 8.91123 16.3084 9.53675 16.3084 10.188C16.3084 10.8393 16.054 11.4649 15.5994 11.9313L7.46694 20.1384C7.13091 20.4748 6.94217 20.9308 6.94217 21.4063C6.94217 21.8818 7.13091 22.3378 7.46694 22.6742L14.3746 29.6125C14.5395 29.7797 14.736 29.9124 14.9527 30.0031C15.1694 30.0937 15.4019 30.1403 15.6367 30.1403C15.8716 30.1403 16.1041 30.0937 16.3208 30.0031C16.5374 29.9124 16.7339 29.7797 16.8989 29.6125L17.8093 28.6983C17.9786 28.5336 18.1125 28.3362 18.2028 28.118C18.2931 27.8998 18.3379 27.6655 18.3344 27.4294V25.6316C18.3344 25.3843 18.3344 25.139 18.3709 24.8918C18.4012 24.4396 18.6033 24.0162 18.9358 23.7083C19.2683 23.4004 19.706 23.2313 20.1591 23.2358H25.9072V23.2013V23.2032Z" fill="#00E7E7"/>
<path d="M45.5013 24.6828L33.8671 36.3783C33.4053 36.835 32.782 37.0912 32.1325 37.0912C31.483 37.0912 30.8598 36.835 30.398 36.3783C29.9428 35.9118 29.688 35.2859 29.688 34.6342C29.688 33.9824 29.9428 33.3565 30.398 32.89L38.563 24.6828C38.899 24.3464 39.0877 23.8904 39.0877 23.4149C39.0877 22.9395 38.899 22.4835 38.563 22.1471L31.6246 15.2087C31.4597 15.0415 31.2632 14.9088 31.0465 14.8182C30.8299 14.7276 30.5974 14.6809 30.3625 14.6809C30.1277 14.6809 29.8951 14.7276 29.6785 14.8182C29.4618 14.9088 29.2653 15.0415 29.1004 15.2087L28.19 16.123C27.8554 16.4615 27.6668 16.9178 27.6648 17.3937V19.1897C27.6648 19.4388 27.6648 19.6822 27.6284 19.9295C27.5981 20.3816 27.3959 20.8051 27.0634 21.113C26.731 21.4209 26.2933 21.5899 25.8401 21.5855H20.092C18.5146 21.5855 17.7422 19.6842 18.829 18.5572L26.6451 10.6988L27.661 9.6389L29.0985 8.19374C29.2634 8.02626 29.4601 7.89326 29.6769 7.80248C29.8937 7.7117 30.1265 7.66495 30.3615 7.66495C30.5966 7.66495 30.8294 7.7117 31.0462 7.80248C31.263 7.89326 31.4597 8.02626 31.6246 8.19374L45.4725 22.1087C45.8057 22.452 45.9949 22.9097 46.0014 23.388C46.0078 23.8663 45.8309 24.3289 45.507 24.6809L45.5051 24.6828H45.5013Z" fill="#00BFFF"/>
</g>
<path fill-rule="evenodd" clip-rule="evenodd" d="M59.8285 33.3185C63.031 36.4235 67.0375 38 71.74 38L71.737 37.997C74.842 37.997 77.6215 37.274 79.996 35.849C82.3675 34.424 84.3325 32.4185 85.8385 29.888L86.0095 29.5985L82.0195 26.9255L81.8305 27.2465C79.4875 31.2215 76.0915 33.233 71.7355 33.233C68.428 33.233 65.6245 32.1155 63.403 29.912C61.186 27.713 60.0595 24.878 60.0595 21.497C60.0595 18.116 61.1755 15.281 63.382 13.082C65.587 10.8815 68.3815 9.7625 71.692 9.7625C76.021 9.7625 79.417 11.7485 81.7885 15.662L81.979 15.9725L85.9645 13.355L85.7995 13.067C82.7185 7.715 77.944 5 71.6035 5C66.9895 5 63.028 6.575 59.8285 9.6815C56.6245 12.7955 55 16.769 55 21.5C55 26.231 56.6245 30.209 59.8285 33.3185Z" fill="black"/>
<path fill-rule="evenodd" clip-rule="evenodd" d="M91.158 34.337C93.501 36.7055 96.48 37.907 100.008 37.907C103.509 37.907 106.47 36.7055 108.813 34.337C111.157 31.967 112.344 28.985 112.344 25.5575C112.344 22.13 111.159 19.2005 108.814 16.8455C106.474 14.4935 103.512 13.2995 100.009 13.2995C96.5085 13.2995 93.54 14.4905 91.182 16.8455C88.824 19.2005 87.627 22.0985 87.627 25.5575C87.627 29.0165 88.818 31.97 91.158 34.337ZM94.494 19.9205C95.964 18.4145 97.818 17.6525 100.011 17.6525V17.657C102.201 17.657 104.049 18.419 105.501 19.9205C106.957 21.425 107.694 23.3675 107.694 25.604C107.694 27.839 106.944 29.735 105.459 31.241C103.974 32.747 102.109 33.5075 99.9195 33.5075C97.7295 33.5075 95.8875 32.753 94.452 31.2665C93.0105 29.774 92.2815 27.8705 92.2815 25.604C92.2815 23.336 93.024 21.425 94.4955 19.919L94.494 19.9205ZM126.091 37.817C122.799 37.817 119.943 36.626 117.603 34.271C115.258 31.919 114.073 29.003 114.073 25.6055C114.073 22.2065 115.258 19.2875 117.603 16.9175C119.947 14.5475 122.803 13.3475 126.091 13.3475C129.055 13.3475 131.602 14.2235 133.669 15.9545L133.957 16.1945V5.50101H138.652V37.451H133.957V34.913L133.666 35.1665C131.665 36.9215 129.115 37.814 126.091 37.814V37.817ZM126.318 17.792C124.158 17.792 122.326 18.554 120.873 20.0555C119.418 21.5615 118.68 23.426 118.68 25.601C118.68 27.776 119.416 29.645 120.873 31.1465C122.326 32.6495 124.158 33.4145 126.318 33.4145C128.479 33.4145 130.375 32.66 131.859 31.1675C133.344 29.6765 134.094 27.8045 134.094 25.6025C134.094 23.3975 133.344 21.5615 131.859 20.0555C130.374 18.5495 128.512 17.789 126.318 17.789V17.792Z" fill="black"/>
<path fill-rule="evenodd" clip-rule="evenodd" d="M171.63 33.3395C174.771 36.431 178.714 38 183.36 38L183.364 37.997C187.981 37.997 191.77 36.437 194.626 33.3665C197.476 30.3035 198.922 26.4605 198.922 21.9515V20.1845H183.739V24.9065H193.459L193.428 25.1105C193.065 27.3905 192.015 29.3105 190.308 30.8105C188.445 32.45 186.153 33.2795 183.499 33.2795C180.223 33.2795 177.451 32.1695 175.258 29.9825C173.068 27.797 171.957 24.9695 171.957 21.497C171.957 18.023 173.067 15.1715 175.255 13.0145C177.445 10.856 180.249 9.7625 183.589 9.7625C187.212 9.7625 190.159 11.135 192.349 13.832L192.585 14.1215L196.191 10.814L195.978 10.556C192.925 6.869 188.725 5 183.496 5C178.854 5 174.886 6.5585 171.702 9.635C168.511 12.7175 166.893 16.7405 166.893 21.5C166.893 26.2595 168.486 30.2435 171.63 33.3395Z" fill="black"/>
<path fill-rule="evenodd" clip-rule="evenodd" d="M213.019 37.9085C209.425 37.9085 206.453 36.719 204.187 34.379C201.92 32.042 200.774 29.072 200.774 25.5575C200.774 22.043 201.938 19.2005 204.233 16.85C206.53 14.495 209.485 13.2995 213.019 13.2995C216.553 13.2995 219.506 14.438 221.713 16.6865C223.919 18.9365 225.037 21.7505 225.037 25.0535C225.037 25.8335 224.987 26.471 224.891 26.9465L224.836 27.2285H205.517L205.552 27.437C205.861 29.1965 206.636 30.6455 207.845 31.748C209.195 32.975 210.967 33.596 213.103 33.596C216.347 33.596 218.833 32.2985 220.481 29.7425L220.669 29.4575L224.351 31.688L224.162 31.991C221.713 35.9165 217.963 37.904 213.016 37.904L213.019 37.9085ZM213.017 17.474C211.052 17.474 209.39 18.038 208.067 19.148C206.899 20.132 206.099 21.4535 205.691 23.072L205.636 23.291H220.138L220.091 23.075C219.734 21.425 218.966 20.096 217.808 19.1225C216.503 18.0275 214.889 17.4725 213.017 17.4725V17.474ZM230.317 34.379C232.585 36.719 235.556 37.9085 239.149 37.9085V37.904C244.096 37.904 247.846 35.9165 250.295 31.991L250.486 31.688L246.8 29.4575L246.616 29.7425C244.966 32.2985 242.482 33.596 239.236 33.596C237.098 33.596 235.327 32.975 233.98 31.748C232.766 30.6455 231.994 29.1965 231.68 27.437L231.646 27.2285H250.966L251.021 26.9465C251.116 26.471 251.165 25.832 251.165 25.0535C251.165 21.7505 250.051 18.9335 247.843 16.6865C245.635 14.4365 242.681 13.2995 239.149 13.2995C235.615 13.2995 232.661 14.4935 230.362 16.85C228.068 19.2005 226.903 22.043 226.903 25.5575C226.903 29.072 228.05 32.0405 230.317 34.3775V34.379ZM234.197 19.148C235.519 18.038 237.185 17.474 239.146 17.474C241.019 17.474 242.632 18.0275 243.937 19.124C245.095 20.096 245.864 21.425 246.223 23.075L246.268 23.291H231.766L231.823 23.072C232.229 21.4535 233.03 20.132 234.197 19.148Z" fill="black"/>
<path fill-rule="evenodd" clip-rule="evenodd" d="M272.992 37.451L264.78 25.2725L256.524 37.451H250.584L261.811 21.1805L251.04 5.50101H257.158L264.87 17.0375L272.583 5.50251H278.478L267.838 21.0425L279.162 37.451H272.992Z" fill="black"/>
<path fill-rule="evenodd" clip-rule="evenodd" d="M144.163 34.379C146.43 36.719 149.403 37.9085 152.997 37.9085L152.992 37.904C157.939 37.904 161.689 35.9165 164.139 31.991L164.328 31.688L160.645 29.4575L160.458 29.7425C158.808 32.2985 156.324 33.596 153.079 33.596C150.943 33.596 149.17 32.975 147.823 31.748C146.613 30.6455 145.837 29.1965 145.528 27.437L145.494 27.2285H164.812L164.868 26.9465C164.964 26.471 165.013 25.832 165.013 25.0535C165.013 21.7505 163.896 18.9365 161.689 16.6865C159.484 14.4365 156.529 13.2995 152.995 13.2995C149.463 13.2995 146.508 14.4935 144.21 16.85C141.915 19.2005 140.749 22.043 140.749 25.5575C140.749 29.072 141.897 32.0405 144.163 34.3775V34.379ZM148.045 19.148C149.368 18.038 151.032 17.474 152.998 17.474H152.994C154.867 17.474 156.481 18.0275 157.786 19.124C158.944 20.096 159.712 21.425 160.071 23.075L160.116 23.291H145.614L145.671 23.072C146.077 21.4535 146.878 20.132 148.045 19.148Z" fill="black"/>
<defs>
<clipPath id="clip0_534_845">
<rect width="46" height="46" fill="white"/>
</clipPath>
</defs>
</svg>
