<svg width="46" height="46" viewBox="0 0 46 46" fill="none" xmlns="http://www.w3.org/2000/svg">
<path d="M29.2694 31.7304L40.2328 41.078C40.2328 41.078 33.9538 47.0676 26.3887 35.5848L29.2694 31.7304Z" fill="url(#paint0_linear_534_757)"/>
<path d="M29.5164 31.6691L38.3254 43.0675C38.3254 43.0675 30.9462 47.6483 25.9111 34.8393L29.5183 31.6691H29.5164Z" fill="url(#paint1_radial_534_757)"/>
<path d="M26.5128 40.3324H19.3828C19.2152 40.334 19.0509 40.2856 18.911 40.1935C18.771 40.1013 18.6617 39.9695 18.5969 39.8149L3.87885 5.63501C3.7121 5.26318 4.00343 4.82809 4.41552 4.82809H11.6337C11.9864 4.82809 12.2969 5.03509 12.4195 5.34559L27.0533 39.5217C27.1989 39.9146 26.9287 40.3305 26.5147 40.3305L26.5128 40.3324Z" fill="url(#paint2_linear_534_757)"/>
<path d="M14.6371 6.7984C10.637 7.87557 9.16504 11.523 9.16504 11.523C9.16504 11.523 11.7142 10.6317 15.26 9.84399C16.8776 9.5052 18.5089 9.23598 20.1495 9.03707C20.067 7.85449 17.7038 5.9704 14.6371 6.7984Z" fill="url(#paint3_linear_534_757)"/>
<path d="M12.7729 9.67917C9.62194 12.3932 9.70627 16.3108 9.70627 16.3108C9.70627 16.3108 11.5079 14.5705 14.2239 12.1651C16.0466 10.5493 18.1185 9.09842 18.1185 9.09842C17.4764 8.10367 15.3029 7.50184 12.7729 9.67917Z" fill="url(#paint4_linear_534_757)"/>
<path d="M12.0885 13.7617C9.47611 16.9529 10.076 20.2496 10.076 20.2496C10.076 20.2496 11.6113 18.7776 13.9113 16.0003C14.9869 14.7452 16.1142 13.5354 17.2904 12.374C16.5026 11.5 14.1604 11.2547 12.0885 13.7617Z" fill="url(#paint5_linear_534_757)"/>
<path d="M28.668 7.93691C28.668 7.93691 27.8821 5.88608 26.2644 4.99483C24.6889 4.12466 20.4608 3.93683 17.4765 6.1755C13.5186 9.1195 12.1712 13.9265 11.8799 15.0688C9.0202 26.1759 14.866 32.4338 21.352 35.4622L28.668 7.93883V7.93691Z" fill="url(#paint6_linear_534_757)"/>
<path d="M9.41441 21.5548C9.49439 25.3171 11.0654 28.8936 13.782 31.4976C16.4986 34.1017 20.1383 35.5202 23.9006 35.4411L23.3007 7.04758C15.4653 7.23349 9.24766 13.7195 9.41441 21.5548Z" fill="url(#paint7_linear_534_757)"/>
<path d="M12.0672 24.1883C12.9163 31.9163 19.9006 37.4919 27.6305 36.6428L24.5236 8.62115C20.8101 9.03884 17.4136 10.9118 15.0786 13.8295C12.7437 16.7472 11.6608 20.4735 12.0672 24.1883Z" fill="url(#paint8_radial_534_757)"/>
<path d="M17.8503 7.25458C16.8199 8.32903 16.2294 9.75042 16.195 11.2387C16.1605 12.7269 16.6848 14.1741 17.6644 15.295C18.6434 16.4169 20.0052 17.134 21.4842 17.3066C22.9632 17.4791 24.4535 17.0948 25.6645 16.2284L17.8503 7.25458Z" fill="url(#paint9_radial_534_757)"/>
<path d="M22.5972 15.4809C23.338 15.4947 24.0741 15.3606 24.7624 15.0866C25.4508 14.8127 26.0777 14.4042 26.6064 13.8852C27.1351 13.3662 27.5551 12.747 27.8418 12.0638C28.1285 11.3807 28.2762 10.6472 28.2762 9.9063C28.2762 9.16541 28.1285 8.43194 27.8418 7.74877C27.5551 7.06559 27.1351 6.4464 26.6064 5.92739C26.0777 5.40838 25.4508 4.99995 24.7624 4.72596C24.0741 4.45198 23.338 4.31794 22.5972 4.33168C21.1366 4.35876 19.745 4.95799 18.7217 6.00049C17.6983 7.04298 17.125 8.44547 17.125 9.9063C17.125 11.3671 17.6983 12.7696 18.7217 13.8121C19.745 14.8546 21.1366 15.4538 22.5972 15.4809Z" fill="url(#paint10_radial_534_757)"/>
<path d="M16.7302 26.1146C18.6776 32.3112 25.2901 35.7727 31.4867 33.8234L24.4391 11.3582C22.9634 11.82 21.5932 12.5682 20.407 13.56C19.2207 14.5518 18.2416 15.7678 17.5256 17.1383C16.8096 18.5088 16.3709 20.007 16.2344 21.5473C16.0979 23.0875 16.2664 24.6395 16.7302 26.1146Z" fill="url(#paint11_linear_534_757)"/>
<path d="M18.3268 23.1514C18.5865 24.4619 19.1018 25.7085 19.8434 26.8198C20.5849 27.9311 21.5382 28.8854 22.6487 29.6281C23.7592 30.3709 25.0052 30.8876 26.3154 31.1486C27.6257 31.4097 28.9745 31.4101 30.2849 31.1497L26.3059 11.1933C20.8127 12.2724 17.2286 17.6372 18.3268 23.1514Z" fill="url(#paint12_linear_534_757)"/>
<path d="M21.2273 5.40882C21.2273 5.40882 19.9853 7.56507 20.6696 9.97049C21.5187 12.9528 24.6888 13.3879 26.0362 13.0563L27.9644 9.01599L24.5853 4.49649L21.2273 5.40882Z" fill="url(#paint13_radial_534_757)"/>
<path d="M24.7305 11.1301C24.7305 11.1301 23.6955 11.4406 23.0304 12.6826C22.4708 13.7195 22.6375 15.1493 22.6375 15.1493L26.8446 11.9178L24.7305 11.1301Z" fill="url(#paint14_linear_534_757)"/>
<path d="M29.3734 19.1092C29.3734 19.1092 25.8084 19.067 24.9171 15.7512C24.3172 13.4933 25.3944 11.937 25.3944 11.937L27.7155 11.2547L29.3734 19.1092Z" fill="url(#paint15_linear_534_757)"/>
<path d="M13.4551 1.45093C13.4551 1.45093 14.2217 4.99484 18.0781 6.42468C20.9991 7.50184 25.8904 4.55976 25.8904 4.55976C25.8904 4.55976 23.3221 3.50176 19.5079 3.50176C16.6482 3.50176 13.4551 1.45093 13.4551 1.45093Z" fill="url(#paint16_radial_534_757)"/>
<path d="M32.3996 8.95275C32.3996 8.95275 32.8558 6.57033 31.3416 4.35275C30.182 2.65267 27.2783 0.745583 21.8925 1.92817C17.3519 2.92292 16.6696 0 16.6696 0C16.5239 0.7475 17.0203 5.59667 21.7468 4.89133C27.5485 4.02117 27.0521 9.70025 29.103 10.6528C30.8031 11.4003 32.3996 8.95275 32.3996 8.95275Z" fill="url(#paint17_linear_534_757)"/>
<path d="M26.3675 12.2897C27.1259 12.2897 27.8533 11.9884 28.3896 11.4521C28.9259 10.9158 29.2271 10.1884 29.2271 9.43001C29.2271 8.67158 28.9259 7.94421 28.3896 7.40792C27.8533 6.87163 27.1259 6.57034 26.3675 6.57034C25.609 6.57034 24.8817 6.87163 24.3454 7.40792C23.8091 7.94421 23.5078 8.67158 23.5078 9.43001C23.5078 10.1884 23.8091 10.9158 24.3454 11.4521C24.8817 11.9884 25.609 12.2897 26.3675 12.2897Z" fill="url(#paint18_radial_534_757)"/>
<path d="M19.2796 40.3324H26.6166C26.7842 40.334 26.9485 40.2856 27.0884 40.1935C27.2284 40.1013 27.3377 39.9695 27.4025 39.8149L42.1205 5.63501C42.2873 5.26317 41.996 4.82809 41.5839 4.82809H34.1625C33.9946 4.82612 33.83 4.87433 33.6896 4.96652C33.5493 5.05872 33.4397 5.19071 33.3748 5.34559L18.741 39.5217C18.5954 39.9146 18.8656 40.3324 19.2796 40.3324Z" fill="url(#paint19_linear_534_757)"/>
<path d="M19.2796 40.3324H26.6166C26.7843 40.3343 26.9486 40.286 27.0886 40.1938C27.2287 40.1016 27.3379 39.9696 27.4025 39.8149L39.0941 12.7056C39.259 12.3318 38.9695 11.8967 38.5536 11.8967H31.1361C30.9679 11.8944 30.8028 11.9424 30.6621 12.0346C30.5214 12.1269 30.4114 12.2591 30.3465 12.4143L18.741 39.5236C18.5954 39.9165 18.8656 40.3324 19.2796 40.3324Z" fill="url(#paint20_radial_534_757)"/>
<path d="M30.8029 9.36866C30.8029 9.36866 30.9064 5.92824 27.3414 4.12466C22.3676 1.61574 17.8079 7.56508 12.585 4.12466C12.585 4.12466 13.643 9.42999 24.2958 7.42133C26.9274 6.92299 28.0889 7.75099 28.6677 8.70549C29.166 9.51241 29.1239 10.2177 29.1239 10.6317L30.8029 9.36866Z" fill="url(#paint21_radial_534_757)"/>
<path d="M30.0361 10.0107C30.0361 10.0107 30.3045 8.14582 28.752 7.00541C27.073 5.78257 25.7236 6.03174 25.7236 6.03174C25.7236 6.03174 26.6781 5.45099 28.0466 5.45099C28.7731 5.45099 29.0203 5.34749 29.0203 5.34749C29.0203 5.34749 29.1238 5.01591 28.6676 4.49649C32.5642 6.21766 31.5484 9.15974 31.5484 9.15974L30.0361 10.0107Z" fill="url(#paint22_linear_534_757)"/>
<path d="M31.3411 13.1407C31.3411 13.1407 29.8078 14.5705 27.6113 13.823C27.4656 13.7827 27.4867 12.9126 27.6113 12.3529C27.7358 11.7089 28.1709 11.0055 28.5236 10.5704C30.906 10.7774 31.3411 13.1407 31.3411 13.1407Z" fill="url(#paint23_linear_534_757)"/>
<path d="M32.3995 8.80899C32.3995 8.80899 33.5801 10.6528 33.2275 12.7458C32.8135 15.1704 30.5135 16.3108 30.5135 16.3108C30.5135 16.3108 31.6117 12.0827 28.501 10.5704C28.501 10.5704 29.145 9.86507 30.0784 9.42999C31.445 8.80899 32.3995 8.80899 32.3995 8.80899Z" fill="url(#paint24_linear_534_757)"/>
<path d="M25.913 10.5493C26.2813 10.5493 26.6345 10.403 26.8949 10.1426C27.1554 9.88221 27.3017 9.52901 27.3017 9.16072C27.3017 8.79243 27.1554 8.43923 26.8949 8.17881C26.6345 7.9184 26.2813 7.77209 25.913 7.77209C25.5448 7.77209 25.1916 7.9184 24.9311 8.17881C24.6707 8.43923 24.5244 8.79243 24.5244 9.16072C24.5244 9.52901 24.6707 9.88221 24.9311 10.1426C25.1916 10.403 25.5448 10.5493 25.913 10.5493Z" fill="url(#paint25_radial_534_757)"/>
<path d="M25.6012 9.90724C26.0938 9.90724 26.4925 9.47982 26.4925 8.95274C26.4925 8.42757 26.0938 8.00015 25.6012 8.00015C25.1086 8.00015 24.71 8.42757 24.71 8.95274C24.71 9.47982 25.1086 9.90724 25.6012 9.90724Z" fill="url(#paint26_radial_534_757)"/>
<path d="M26.2216 8.47741C26.2768 8.47741 26.3297 8.4555 26.3687 8.4165C26.4077 8.3775 26.4296 8.32461 26.4296 8.26945C26.4296 8.2143 26.4077 8.1614 26.3687 8.1224C26.3297 8.0834 26.2768 8.06149 26.2216 8.06149C26.1665 8.06149 26.1136 8.0834 26.0746 8.1224C26.0356 8.1614 26.0137 8.2143 26.0137 8.26945C26.0137 8.32461 26.0356 8.3775 26.0746 8.4165C26.1136 8.4555 26.1665 8.47741 26.2216 8.47741Z" fill="white"/>
<defs>
<linearGradient id="paint0_linear_534_757" x1="26.9675" y1="36.133" x2="38.9333" y2="38.4924" gradientUnits="userSpaceOnUse">
<stop offset="0.006" stop-color="#E8096A"/>
<stop offset="1" stop-color="#00AFFF"/>
</linearGradient>
<radialGradient id="paint1_radial_534_757" cx="0" cy="0" r="1" gradientUnits="userSpaceOnUse" gradientTransform="translate(30.2532 37.3467) rotate(5.75) scale(12.3218 12.3218)">
<stop stop-color="#00CAFF"/>
<stop offset="1" stop-color="#38E700"/>
</radialGradient>
<linearGradient id="paint2_linear_534_757" x1="22.5472" y1="39.3549" x2="7.4956" y2="3.70301" gradientUnits="userSpaceOnUse">
<stop stop-color="#412DF5"/>
<stop offset="0.691" stop-color="#0606B6"/>
<stop offset="1" stop-color="#4B00B4"/>
</linearGradient>
<linearGradient id="paint3_linear_534_757" x1="10.0237" y1="9.32649" x2="16.1935" y2="8.65949" gradientUnits="userSpaceOnUse">
<stop stop-color="#E60030"/>
<stop offset="1" stop-color="#690040"/>
</linearGradient>
<linearGradient id="paint4_linear_534_757" x1="10.2717" y1="12.9433" x2="15.2052" y2="11.5249" gradientUnits="userSpaceOnUse">
<stop stop-color="#FF6500"/>
<stop offset="1" stop-color="#EE182C"/>
</linearGradient>
<linearGradient id="paint5_linear_534_757" x1="10.5954" y1="15.5403" x2="16.4643" y2="16.6731" gradientUnits="userSpaceOnUse">
<stop stop-color="#EA4D07"/>
<stop offset="1" stop-color="#C5171E"/>
</linearGradient>
<linearGradient id="paint6_linear_534_757" x1="23.0444" y1="5.76341" x2="13.5263" y2="34.5383" gradientUnits="userSpaceOnUse">
<stop stop-color="#0091FF"/>
<stop offset="0.005" stop-color="#0292FC"/>
<stop offset="0.126" stop-color="#37A5C2"/>
<stop offset="0.249" stop-color="#65B58E"/>
<stop offset="0.372" stop-color="#8CC363"/>
<stop offset="0.496" stop-color="#ACCF3F"/>
<stop offset="0.62" stop-color="#C4D823"/>
<stop offset="0.745" stop-color="#D6DE10"/>
<stop offset="0.871" stop-color="#E1E204"/>
<stop offset="1" stop-color="#E4E300"/>
</linearGradient>
<linearGradient id="paint7_linear_534_757" x1="13.0388" y1="9.21341" x2="26.0971" y2="35.2667" gradientUnits="userSpaceOnUse">
<stop offset="0.006" stop-color="#DE003B"/>
<stop offset="0.241" stop-color="#D976FF"/>
<stop offset="1" stop-color="#00A4EA"/>
</linearGradient>
<radialGradient id="paint8_radial_534_757" cx="0" cy="0" r="1" gradientUnits="userSpaceOnUse" gradientTransform="translate(21.3234 17.3378) rotate(-6.338) scale(22.0068)">
<stop stop-color="#00DFFF"/>
<stop offset="1" stop-color="#ABE700"/>
</radialGradient>
<radialGradient id="paint9_radial_534_757" cx="0" cy="0" r="1" gradientUnits="userSpaceOnUse" gradientTransform="translate(20.3922 11.8383) rotate(-40.957) scale(5.30708)">
<stop stop-color="#0068FF"/>
<stop offset="1" stop-color="#9CE830"/>
</radialGradient>
<radialGradient id="paint10_radial_534_757" cx="0" cy="0" r="1" gradientUnits="userSpaceOnUse" gradientTransform="translate(22.5972 9.90726) scale(5.58697)">
<stop stop-color="#008A43"/>
<stop offset="1" stop-color="#A3E830"/>
</radialGradient>
<linearGradient id="paint11_linear_534_757" x1="21.9167" y1="15.065" x2="24.1669" y2="30.9542" gradientUnits="userSpaceOnUse">
<stop stop-color="#FF9500"/>
<stop offset="1" stop-color="#F7FF2B"/>
</linearGradient>
<linearGradient id="paint12_linear_534_757" x1="29.6984" y1="26.0111" x2="20.3087" y2="16.2457" gradientUnits="userSpaceOnUse">
<stop offset="0.207" stop-color="#FF8E00"/>
<stop offset="1" stop-color="#F41B56"/>
</linearGradient>
<radialGradient id="paint13_radial_534_757" cx="0" cy="0" r="1" gradientUnits="userSpaceOnUse" gradientTransform="translate(25.6912 9.33416) scale(4.59626)">
<stop stop-color="#FF0000"/>
<stop offset="1" stop-color="#FFFF00"/>
</radialGradient>
<linearGradient id="paint14_linear_534_757" x1="23.0592" y1="14.2562" x2="24.5638" y2="12.6193" gradientUnits="userSpaceOnUse">
<stop stop-color="#FFB41F"/>
<stop offset="1" stop-color="#F42A56"/>
</linearGradient>
<linearGradient id="paint15_linear_534_757" x1="25.8218" y1="18.3502" x2="28.6182" y2="13.2787" gradientUnits="userSpaceOnUse">
<stop stop-color="#FFB900"/>
<stop offset="1" stop-color="#F41880"/>
</linearGradient>
<radialGradient id="paint16_radial_534_757" cx="0" cy="0" r="1" gradientUnits="userSpaceOnUse" gradientTransform="translate(18.6771 4.42941) rotate(-9.492) scale(6.35477)">
<stop offset="0.001" stop-color="#72003F"/>
<stop offset="1" stop-color="#CA1D67"/>
</radialGradient>
<linearGradient id="paint17_linear_534_757" x1="16.6485" y1="5.39733" x2="32.4648" y2="5.39733" gradientUnits="userSpaceOnUse">
<stop stop-color="#FF6500"/>
<stop offset="1" stop-color="#EE182C"/>
</linearGradient>
<radialGradient id="paint18_radial_534_757" cx="0" cy="0" r="1" gradientUnits="userSpaceOnUse" gradientTransform="translate(26.4058 9.41084) scale(2.26255)">
<stop stop-color="#D1DEE7"/>
<stop offset="1" stop-color="white"/>
</radialGradient>
<linearGradient id="paint19_linear_534_757" x1="20.2322" y1="40.618" x2="40.913" y2="3.89084" gradientUnits="userSpaceOnUse">
<stop stop-color="#008DFF"/>
<stop offset="0.181" stop-color="#331DEA"/>
<stop offset="0.833" stop-color="#39C3FE"/>
<stop offset="1" stop-color="#60F5A9"/>
</linearGradient>
<radialGradient id="paint20_radial_534_757" cx="0" cy="0" r="1" gradientUnits="userSpaceOnUse" gradientTransform="translate(30.2488 31.5781) rotate(-156.16) scale(5.28137 14.6456)">
<stop offset="0.001" stop-color="#7F06FB"/>
<stop offset="1" stop-color="#7A10FB" stop-opacity="0"/>
</radialGradient>
<radialGradient id="paint21_radial_534_757" cx="0" cy="0" r="1" gradientUnits="userSpaceOnUse" gradientTransform="translate(13.6085 5.40691) scale(16.5609)">
<stop offset="0.001" stop-color="#FF0042"/>
<stop offset="0.422" stop-color="#0068FF"/>
<stop offset="0.659" stop-color="#1877E2"/>
<stop offset="1" stop-color="#4EEFBE"/>
</radialGradient>
<linearGradient id="paint22_linear_534_757" x1="28.6485" y1="5.04274" x2="28.752" y2="9.48366" gradientUnits="userSpaceOnUse">
<stop stop-color="#E60030"/>
<stop offset="1" stop-color="#690040"/>
</linearGradient>
<linearGradient id="paint23_linear_534_757" x1="29.3918" y1="13.6927" x2="29.5663" y2="10.9231" gradientUnits="userSpaceOnUse">
<stop stop-color="#FFD71F"/>
<stop offset="1" stop-color="#DD001B"/>
</linearGradient>
<linearGradient id="paint24_linear_534_757" x1="29.2293" y1="12.4047" x2="32.8269" y2="12.6557" gradientUnits="userSpaceOnUse">
<stop stop-color="#FF4C00"/>
<stop offset="1" stop-color="#FFFF1E"/>
</linearGradient>
<radialGradient id="paint25_radial_534_757" cx="0" cy="0" r="1" gradientUnits="userSpaceOnUse" gradientTransform="translate(25.248 9.20001) scale(1.73478)">
<stop stop-color="#FF9100"/>
<stop offset="0.226" stop-color="#FF9500"/>
<stop offset="0.443" stop-color="#FEA000"/>
<stop offset="0.657" stop-color="#FCB400"/>
<stop offset="0.867" stop-color="#F9CF00"/>
<stop offset="1" stop-color="#F7E400"/>
</radialGradient>
<radialGradient id="paint26_radial_534_757" cx="0" cy="0" r="1" gradientUnits="userSpaceOnUse" gradientTransform="translate(25.1661 8.89332) scale(1.86561 1.86561)">
<stop/>
<stop offset="0.092" stop-color="#000004"/>
<stop offset="0.177" stop-color="#01000F"/>
<stop offset="0.258" stop-color="#020021"/>
<stop offset="0.338" stop-color="#03003C"/>
<stop offset="0.417" stop-color="#05005D"/>
<stop offset="0.494" stop-color="#080087"/>
<stop offset="0.571" stop-color="#0A00B8"/>
<stop offset="0.645" stop-color="#0E00F0"/>
<stop offset="0.654" stop-color="#0E00F7"/>
</radialGradient>
</defs>
</svg>
