<svg width="206" height="46" viewBox="0 0 206 46" fill="none" xmlns="http://www.w3.org/2000/svg">
<path d="M27.8648 42.9103H18.0284C17.9258 42.9127 17.8243 42.8881 17.7342 42.839C17.6441 42.7899 17.5684 42.718 17.5147 42.6305L0.107584 4.47541C0.0445105 4.38121 0.00799879 4.27175 0.00189219 4.15855C-0.0042144 4.04534 0.02031 3.93259 0.072884 3.83215C0.125458 3.73171 0.204137 3.6473 0.30064 3.5878C0.397142 3.52831 0.507898 3.49593 0.621251 3.49408H10.4576C10.6684 3.49408 10.8543 3.588 10.9713 3.77391L28.3784 41.906C28.6582 42.3507 28.3554 42.9103 27.8648 42.9103Z" fill="url(#paint0_linear_534_844)"/>
<path d="M45.4346 3.5171H35.4584C35.3648 3.5156 35.2725 3.5385 35.1905 3.58353C35.1085 3.62857 35.0396 3.69419 34.9907 3.77393L17.5145 42.0229C17.4578 42.1083 17.425 42.2073 17.4197 42.3097C17.4144 42.412 17.4367 42.5139 17.4844 42.6047C17.532 42.6955 17.6032 42.7717 17.6904 42.8255C17.7777 42.8793 17.8778 42.9086 17.9803 42.9103H27.9585C28.052 42.9118 28.1443 42.8889 28.2263 42.8439C28.3083 42.7989 28.3772 42.7333 28.4261 42.6535L45.9023 4.40451C45.9591 4.31904 45.9919 4.21982 45.9971 4.1173C46.0024 4.01477 45.9799 3.91274 45.932 3.82192C45.8841 3.7311 45.8127 3.65487 45.7252 3.60122C45.6376 3.54758 45.5373 3.51852 45.4346 3.5171Z" fill="url(#paint1_linear_534_844)"/>
<path d="M41.3924 5.61966C39.7096 5.52766 37.8408 6.62591 35.1307 9.89574C34.5001 10.6682 32.1177 10.6682 32.4205 12.3031C33.8465 20.3876 26.3696 37.3271 28.0275 37.4191C29.6873 37.5149 33.8925 34.3141 35.3645 32.4434C36.8365 30.5747 37.8178 29.0317 38.9621 26.7183C40.1083 24.4049 41.2755 21.0642 42.3048 17.4666C43.3321 13.869 43.3781 10.3174 43.449 8.30682C43.495 7.69924 43.0753 5.71357 41.3924 5.61966Z" fill="#191935"/>
<path d="M34.5227 11.5326C34.126 9.35908 32.4431 4.96608 31.2989 3.565C30.1546 2.162 29.0564 1.50842 27.2566 2.185C26.2753 2.55875 23.9619 3.89083 22.279 9.03133C21.7424 10.6662 20.855 11.4847 20.0595 12.5829C19.266 13.6562 18.0049 15.1532 18.0049 17.2097C18.0049 19.2893 18.8444 21.0412 19.9906 22.3732C21.1348 23.7053 26.0185 27.6307 27.0458 28.704C28.098 29.7792 30.9481 32.6293 31.6956 33.9154L32.4431 35.1996C32.4431 35.1996 33.8461 31.9527 34.2889 30.9005C34.7335 29.8732 35.552 24.4049 35.621 21.298C35.6919 18.2122 34.8025 13.0966 34.5227 11.5326Z" fill="black"/>
<path d="M28.6584 39.2418C28.4724 39.3358 28.3555 38.7972 28.9861 37.8868C29.6186 36.9763 30.8779 35.2226 31.8841 34.4521C32.9095 33.6816 35.4587 31.625 36.417 31.4142C37.3754 31.2033 37.3754 32.0467 36.9077 32.3955C36.0184 33.074 35.8554 32.9111 34.7342 33.9384C33.6129 34.9658 32.2329 35.5043 31.3934 36.2748C30.5501 37.0453 29.1739 38.962 28.6584 39.2418Z" fill="black"/>
<path d="M19.5003 23.7513C16.5793 22.9099 11.8356 21.9765 10.0377 28.635C10.0377 28.635 8.75356 29.1947 7.79523 31.3912C6.25231 34.9197 9.64098 44.3363 19.6632 41.883C24.43 40.7138 28.4032 38.1915 29.5705 37.0453C31.3453 35.3165 32.4915 35.2245 32.4915 35.2245C31.6961 32.7002 25.994 25.6431 19.5003 23.7513ZM36.3459 32.0697C37.3042 31.1822 38.5424 29.8502 39.0791 28.9148C39.6157 27.9814 40.1543 26.6723 40.2482 26.2986C40.3421 25.9248 40.1083 24.7557 40.6699 24.8266C41.2296 24.8956 40.8788 25.8079 40.645 26.2526C40.3191 26.8352 39.9205 27.7476 39.6636 28.3782C39.4068 29.0317 38.4715 30.199 37.747 31.0423C36.9995 31.8818 36.275 32.4664 36.275 32.4664L36.3459 32.0697Z" fill="black"/>
<path d="M36.0654 32.3725C36.0654 32.3725 37.2557 31.671 38.214 30.9944C39.1723 30.3159 41.112 28.5641 41.5797 27.9335C42.0703 27.301 42.1393 26.7183 42.3962 26.8602C42.8408 27.14 42.0933 27.7936 41.7886 28.0964C41.4628 28.4012 40.3645 29.4764 39.5231 30.176C38.6587 30.8775 36.4373 32.4894 36.0654 32.3725Z" fill="black"/>
<path d="M33.074 32.9341C33.0989 33.028 33.1698 33.097 33.1698 32.9801C33.3787 30.9484 34.1952 28.5411 34.2201 22.6071C34.2431 16.3204 34.2201 13.4473 29.6393 12.2801C29.3365 12.2092 29.0566 12.2801 29.1026 12.5829C29.2196 13.2844 30.8085 16.7421 31.602 21.275C32.5603 26.8583 32.8861 31.9988 33.074 32.9341Z" fill="url(#paint2_linear_534_844)"/>
<path d="M13.238 30.13C11.6721 30.5747 15.4345 31.3452 19.0321 32.0467C21.4854 32.5373 29.2191 33.7276 31.8354 33.8675C31.8833 33.8675 31.9063 33.7985 31.8584 33.7755C29.2421 32.0697 23.4481 28.3533 21.7882 28.3533C18.7982 28.3303 14.4052 29.8023 13.238 30.13Z" fill="url(#paint3_linear_534_844)"/>
<path d="M22.2102 18.0033C22.2102 18.0033 23.4483 20.5965 25.388 22.2103C27.0689 23.5884 28.5428 24.4758 29.0795 25.1294C30.9253 27.3029 31.6478 31.1113 32.5602 32.9111C32.7001 33.1679 25.8557 26.3925 22.3731 20.5965C21.5796 19.2663 21.9993 17.6525 22.2102 18.0033Z" fill="url(#paint4_linear_534_844)"/>
<path d="M26.6032 6.62591C27.3277 6.48407 29.2424 7.58424 29.2424 8.14391C29.2424 8.40074 26.4863 7.88707 26.0186 7.65324C25.3861 7.32741 26.1336 6.71791 26.6032 6.62591Z" fill="url(#paint5_linear_534_844)"/>
<path d="M25.3404 8.63459C25.6911 8.32984 27.1631 8.65759 27.4449 8.91443C27.7247 9.21918 25.9959 9.40509 25.4343 9.47601C24.9436 9.52201 24.9915 8.94126 25.3404 8.63459Z" fill="url(#paint6_linear_534_844)"/>
<path d="M28.7306 4.10167C29.804 4.19558 31.9526 7.3485 31.4868 7.72417C31.23 7.91008 27.8873 5.8535 27.3966 5.27083C26.975 4.75525 27.9122 4.03075 28.7306 4.10167Z" fill="url(#paint7_linear_534_844)"/>
<path d="M39.4064 8.98534C39.9431 9.05434 41.0184 10.2465 40.9014 10.6682C40.8554 10.8541 39.0327 9.84976 38.7529 9.56993C38.3791 9.17126 39.0576 8.93743 39.4064 8.98534Z" fill="url(#paint8_linear_534_844)"/>
<path d="M38.0513 10.2235C38.3081 10.0606 39.3604 10.6452 39.3834 10.925C39.4064 11.1588 38.3541 10.9001 37.9344 10.8292C37.5836 10.7832 37.7715 10.4094 38.0494 10.2235H38.0513Z" fill="url(#paint9_linear_534_844)"/>
<path d="M41.182 7.69925C41.9295 8.004 42.562 10.1066 42.3281 10.3174C42.0713 10.5493 40.2006 8.7515 39.9898 8.23783C39.8039 7.79317 40.6223 7.48842 41.182 7.69925Z" fill="url(#paint10_linear_534_844)"/>
<path d="M30.8084 25.4342C30.5745 24.265 30.2008 19.4293 28.9875 16.5313C28.0982 14.4287 25.6909 10.5263 25.2002 11.8584C24.4757 13.8211 22.8408 15.6438 23.4024 17.0909C23.962 18.5418 25.8557 20.5275 27.2798 21.7657C28.6598 22.9808 30.8333 25.5511 30.8084 25.4342Z" fill="url(#paint11_linear_534_844)"/>
<path d="M17.7481 33.074C15.9023 32.8172 13.0752 32.2326 11.3215 31.8818C10.2232 31.671 11.5093 34.7089 13.0043 35.5043C14.2885 36.1809 20.0845 35.8072 23.9159 35.4334C27.0937 35.1076 31.9525 34.2642 30.2946 34.2432C26.0949 34.0723 21.907 33.682 17.7481 33.074Z" fill="url(#paint12_linear_534_844)"/>
<path d="M30.7141 35.0137C30.808 34.9657 30.9249 34.7798 30.854 34.8258C29.4299 35.2935 24.1725 36.7425 18.4244 37.3731C14.0314 37.8407 13.0961 37.467 12.5844 37.6989C11.9768 37.9577 13.6577 40.2481 17.4201 40.0372C21.7192 39.7804 28.2608 36.6026 30.7141 35.0137Z" fill="url(#paint13_linear_534_844)"/>
<path d="M13.6356 27.9565C13.3558 27.9565 13.3558 27.14 14.2681 26.7413C14.2681 26.7413 15.2954 25.4342 17.3501 25.8309C18.7761 26.1108 21.0416 27.3968 20.7388 27.3259C19.6654 27.0691 14.9907 27.9565 13.6356 27.9565Z" fill="url(#paint14_linear_534_844)"/>
<path d="M34.4541 32.0218C34.4541 31.9298 35.3645 30.5038 36.5567 24.1711C37.3042 20.2477 37.1164 16.7881 36.9994 16.1115C36.9304 15.6208 38.6114 16.6022 38.6363 18.4479C38.6593 19.78 38.3545 25.1064 35.9491 29.8962C34.9678 31.8818 34.4541 32.1368 34.4541 32.0218Z" fill="url(#paint15_linear_534_844)"/>
<path d="M37.9344 27.0921C37.9114 27.14 37.8175 27.117 37.8405 27.0691C38.3312 25.9957 39.6633 21.4149 39.9431 17.9342C40.06 16.5792 40.06 15.4809 40.2248 15.1302C40.3878 14.7085 41.4151 13.5393 41.6489 13.4013C42.1396 13.1215 41.9058 15.9946 40.8075 19.5692C40.1539 21.7887 38.7988 25.5741 37.9344 27.0921Z" fill="url(#paint16_linear_534_844)"/>
<path fill-rule="evenodd" clip-rule="evenodd" d="M138.428 10.775C137.805 10.1525 137.525 9.3395 137.525 8.372C137.525 7.373 137.836 6.5615 138.428 5.936C139.05 5.312 139.798 5 140.761 5C141.727 5 142.474 5.312 143.096 5.936C143.688 6.5615 143.999 7.373 143.999 8.372C143.999 9.3095 143.688 10.121 143.096 10.745C142.474 11.4005 141.727 11.7125 140.762 11.7125C139.798 11.7125 139.05 11.4005 138.428 10.7765V10.775ZM137.775 33.257C137.733 33.2172 137.7 33.1688 137.678 33.1149C137.656 33.061 137.646 33.003 137.649 32.945V13.961C137.649 13.8365 137.681 13.7105 137.775 13.6175C137.815 13.5754 137.863 13.5425 137.917 13.521C137.971 13.4995 138.028 13.4899 138.086 13.493H143.376C143.501 13.493 143.594 13.523 143.688 13.6175C143.781 13.7105 143.812 13.805 143.812 13.961V32.945C143.812 33.0695 143.781 33.194 143.688 33.257C143.648 33.2993 143.6 33.3324 143.546 33.3539C143.492 33.3754 143.434 33.3848 143.376 33.3815H138.086C138.028 33.3846 137.971 33.375 137.917 33.3535C137.863 33.332 137.815 33.2991 137.775 33.257ZM56.2357 29.1035C57.0431 30.572 58.2272 31.6955 59.7194 32.5085C61.2145 33.2885 62.9579 33.6935 64.9494 33.6935C66.9409 33.6935 68.6843 33.3185 70.1779 32.5685C71.6716 31.82 72.8243 30.728 73.6631 29.354C74.5034 27.98 74.9086 26.357 74.9086 24.545C74.9086 24.4205 74.8772 24.3275 74.7845 24.2645C74.7445 24.2222 74.6959 24.1891 74.6419 24.1676C74.588 24.1461 74.53 24.1367 74.472 24.14L69.1822 23.858C68.9011 23.858 68.7456 24.0155 68.7456 24.296C68.7456 25.481 68.3718 26.4185 67.6885 27.137C66.9708 27.8555 66.0693 28.199 64.918 28.199C63.7667 28.199 62.8323 27.854 62.149 27.137C61.4313 26.4185 61.0904 25.4825 61.0904 24.296V15.554C61.0904 14.3675 61.4642 13.43 62.149 12.6815C62.8637 11.9615 63.7667 11.588 64.918 11.588C66.0693 11.588 66.9723 11.9315 67.6885 12.65C68.4032 13.3685 68.7456 14.3045 68.7456 15.5225C68.7456 15.803 68.8712 15.959 69.1822 15.959L74.472 15.6155C74.5976 15.6155 74.6903 15.554 74.7845 15.491C74.8264 15.4511 74.8593 15.4026 74.8807 15.3487C74.9021 15.2948 74.9116 15.2369 74.9086 15.179C74.9086 13.3985 74.5049 11.807 73.6631 10.433C72.8542 9.059 71.6716 7.997 70.1779 7.2485C68.6828 6.4985 66.9409 6.1235 64.9494 6.1235C62.9579 6.1235 61.2145 6.4985 59.7209 7.31C58.2257 8.123 57.0745 9.215 56.2357 10.682C55.3939 12.1505 54.9902 13.805 54.9902 15.71V24.0155C54.9902 25.9505 55.3939 27.6365 56.2357 29.1035ZM76.6205 26.8565C77.1184 28.9475 78.1755 30.6335 79.7319 31.8515C81.2869 33.0695 83.1857 33.6935 85.4897 33.7265C87.7309 33.7265 89.6612 33.0695 91.2161 31.8215C92.7711 30.572 93.7997 28.8545 94.329 26.7005C94.6086 25.607 94.7327 24.4835 94.7327 23.2955C94.7327 21.986 94.5458 20.768 94.2034 19.613C93.5814 17.6135 92.5543 16.022 91.0292 14.897C89.5356 13.742 87.6681 13.181 85.4897 13.181C83.2799 13.181 81.4124 13.7735 79.856 14.897C78.301 16.022 77.2425 17.6135 76.6818 19.643C76.3394 20.7365 76.1839 21.9845 76.1839 23.39C76.1839 24.6395 76.3095 25.7945 76.6205 26.855V26.8565ZM88.2288 25.5755C88.0105 26.387 87.6681 27.044 87.2017 27.5105C86.9703 27.7455 86.6936 27.9305 86.3884 28.0544C86.0832 28.1782 85.756 28.2381 85.4269 28.2305C84.7122 28.2305 84.1202 27.98 83.6223 27.5105C83.1244 27.044 82.782 26.3885 82.5951 25.5755C82.4377 24.858 82.3645 24.1245 82.3768 23.39C82.3768 22.547 82.4396 21.7985 82.5951 21.173C83.0616 19.5185 83.9961 18.6755 85.4269 18.6755C86.1446 18.6755 86.7352 18.8945 87.2017 19.331C87.6681 19.769 88.0105 20.3615 88.1974 21.173C88.3529 21.86 88.4456 22.61 88.4456 23.39C88.4456 24.17 88.3843 24.92 88.2288 25.5755ZM108.053 13.6175C108.093 13.5754 108.141 13.5425 108.195 13.521C108.249 13.4995 108.306 13.4899 108.364 13.493H113.655C113.779 13.493 113.872 13.523 113.966 13.6175C114.059 13.7105 114.09 13.805 114.09 13.961V31.166C114.09 34.6925 113.126 37.1915 111.134 38.72C109.173 40.22 106.683 41 103.696 41C102.575 41 101.394 40.9055 100.148 40.688C99.8984 40.6565 99.7743 40.5005 99.7743 40.1885L99.9612 35.411C99.9612 35.2235 100.024 35.099 100.117 35.036C100.211 34.9745 100.335 34.9745 100.491 35.006C101.518 35.2235 102.451 35.348 103.322 35.348C104.723 35.348 105.843 35.0045 106.683 34.349C107.524 33.6935 107.929 32.633 107.929 31.196L107.679 31.4765C106.778 32.414 105.501 32.8505 103.822 32.8505C102.171 32.8505 100.677 32.4755 99.3078 31.7255C97.9383 30.977 96.9739 29.666 96.3519 27.7925C95.9468 26.5745 95.7599 25.0445 95.7599 23.234C95.7599 21.2675 96.0081 19.643 96.476 18.395C97.0352 16.802 97.9697 15.5225 99.2136 14.585C100.468 13.6364 102.001 13.1316 103.572 13.1495C105.345 13.1495 106.746 13.7105 107.711 14.8355C107.773 14.897 107.805 14.897 107.866 14.897C107.929 14.867 107.929 14.8355 107.929 14.7725V13.9295C107.929 13.805 107.959 13.7105 108.053 13.6175ZM107.929 23.234C107.929 22.547 107.897 21.9845 107.866 21.611C107.814 21.2235 107.71 20.8449 107.555 20.486C107.393 19.9508 107.053 19.4879 106.591 19.175C106.154 18.863 105.625 18.707 105.003 18.707C103.822 18.707 103.011 19.2995 102.513 20.5175C102.14 21.236 101.953 22.172 101.953 23.3585C101.953 24.608 102.108 25.544 102.451 26.138C102.669 26.669 103.011 27.1055 103.446 27.449C103.883 27.794 104.412 27.9485 105.034 27.9485C106.31 27.9485 107.15 27.356 107.555 26.1695C107.805 25.514 107.929 24.545 107.929 23.234ZM114.464 6.9665L121.965 33.0065C122.058 33.257 122.213 33.3815 122.432 33.3815H128.095C128.345 33.3815 128.53 33.257 128.593 33.0065L136.281 6.9665C136.309 6.90654 136.32 6.84055 136.315 6.77488C136.309 6.7092 136.287 6.64605 136.25 6.5915C136.156 6.4985 136.063 6.437 135.906 6.437H130.337C130.056 6.437 129.869 6.5615 129.807 6.812L125.606 24.3275C125.575 24.4205 125.543 24.452 125.482 24.452C125.419 24.452 125.388 24.389 125.356 24.3275L121.062 6.8105C120.968 6.5615 120.813 6.4355 120.533 6.4355H114.836C114.557 6.4355 114.433 6.5615 114.433 6.8105L114.464 6.9665ZM183.525 25.2005C183.834 25.2005 183.99 25.0445 184.021 24.7325C184.084 23.453 184.051 22.4525 183.866 21.7355C183.64 20.1753 183.1 18.6774 182.279 17.333C181.501 16.0669 180.42 15.0153 179.135 14.273C177.86 13.5545 176.396 13.181 174.747 13.181C172.724 13.181 170.949 13.7105 169.487 14.804C168.025 15.8975 166.966 17.396 166.313 19.2995C165.91 20.539 165.711 21.8359 165.722 23.1395C165.722 25.076 165.97 26.669 166.5 27.9485C167.216 29.759 168.336 31.196 169.924 32.195C171.51 33.2255 173.409 33.725 175.68 33.725C177.205 33.725 178.606 33.4445 179.881 32.945C181.11 32.4701 182.209 31.7105 183.088 30.728C183.181 30.6335 183.244 30.509 183.244 30.416C183.245 30.3551 183.231 30.2949 183.204 30.2404C183.177 30.1859 183.137 30.1386 183.088 30.1025L180.225 26.7005C180.131 26.606 180.038 26.5445 179.913 26.5445C179.845 26.5463 179.779 26.5641 179.719 26.5965C179.66 26.6288 179.609 26.6747 179.57 26.7305C178.7 27.7925 177.455 28.3235 175.898 28.3235C175.026 28.3235 174.28 28.1675 173.688 27.824C173.135 27.5129 172.673 27.0606 172.35 26.513C172.183 26.1536 172.058 25.7761 171.976 25.388C171.947 25.358 171.946 25.295 172.008 25.2635C172.023 25.256 172.038 25.248 172.053 25.2395C172.085 25.2156 172.124 25.202 172.165 25.2005H183.525ZM172.072 21.3305C172.108 21.0541 172.17 20.7818 172.257 20.5175C172.661 19.2695 173.501 18.644 174.81 18.6125C175.526 18.6125 176.085 18.77 176.552 19.1135C177.02 19.4555 177.362 19.9235 177.517 20.5805C177.61 20.8925 177.673 21.1415 177.673 21.3605C177.673 21.455 177.61 21.5165 177.517 21.5165H172.225C172.069 21.5165 172.006 21.455 172.069 21.329L172.072 21.3305ZM188.564 31.85C187.009 30.632 185.95 28.946 185.452 26.855C185.14 25.793 185.016 24.638 185.016 23.39C185.016 21.983 185.171 20.735 185.513 19.6415C186.074 17.612 187.133 16.0205 188.688 14.8955C190.244 13.772 192.112 13.1795 194.321 13.1795C196.5 13.1795 198.367 13.7405 199.861 14.8955C201.386 16.0205 202.413 17.612 203.035 19.6115C203.377 20.7665 203.564 21.983 203.564 23.2955C203.564 24.4805 203.44 25.6055 203.159 26.699C202.631 28.853 201.604 30.569 200.048 31.8185C198.493 33.068 196.563 33.7235 194.321 33.7235C192.019 33.6935 190.118 33.068 188.564 31.85ZM196.065 27.5105C196.531 27.0425 196.872 26.3855 197.092 25.5755C197.247 24.9185 197.309 24.17 197.309 23.3885C197.309 22.6085 197.216 21.8585 197.06 21.1715C196.842 20.3615 196.531 19.7675 196.065 19.3295C195.597 18.893 195.006 18.674 194.29 18.674C192.859 18.674 191.893 19.517 191.458 21.1715C191.303 21.797 191.24 22.5455 191.24 23.3885C191.24 24.2 191.303 24.9185 191.458 25.574C191.645 26.3855 191.987 27.0425 192.485 27.509C192.983 27.9785 193.574 28.229 194.29 28.229C194.975 28.229 195.567 27.9785 196.065 27.509V27.5105ZM163.666 6.467C163.792 6.467 163.886 6.4985 163.98 6.593C164.022 6.63302 164.055 6.68164 164.076 6.73551C164.097 6.78937 164.106 6.84719 164.103 6.905V32.945C164.103 33.0695 164.073 33.1625 163.979 33.257C163.939 33.2991 163.891 33.332 163.837 33.3535C163.783 33.375 163.726 33.3846 163.668 33.3815H158.377C158.319 33.3846 158.261 33.375 158.207 33.3535C158.154 33.332 158.105 33.2991 158.066 33.257C157.973 33.194 157.941 33.0695 157.941 32.945V31.664C157.941 31.6025 157.941 31.571 157.879 31.5395C157.817 31.5395 157.786 31.5395 157.723 31.6025C156.727 33.0065 155.297 33.725 153.429 33.725C151.794 33.7414 150.207 33.1771 148.947 32.132C147.64 31.0715 146.737 29.6345 146.178 27.824C145.774 26.45 145.586 24.9515 145.586 23.3585C145.586 21.5795 145.835 19.955 146.363 18.5195C146.883 16.9986 147.835 15.6637 149.102 14.6795C150.379 13.7105 151.904 13.211 153.677 13.211C155.452 13.211 156.79 13.805 157.723 15.023C157.786 15.0845 157.849 15.116 157.879 15.0845C157.918 15.0418 157.94 14.9864 157.941 14.9285V6.935C157.941 6.779 157.971 6.686 158.066 6.593C158.105 6.55062 158.154 6.5174 158.207 6.49564C158.261 6.47389 158.319 6.46411 158.377 6.467H163.666ZM153.834 27.3875L157.819 25.013C159.094 24.233 159.094 22.298 157.819 21.485L153.834 19.112C152.559 18.362 150.941 19.331 150.941 20.861V25.6385C150.941 27.1985 152.559 28.1675 153.834 27.386V27.3875Z" fill="black"/>
<defs>
<linearGradient id="paint0_linear_534_844" x1="4.16517" y1="6.32308" x2="22.0879" y2="36.3592" gradientUnits="userSpaceOnUse">
<stop stop-color="#19D46A"/>
<stop offset="1" stop-color="#0D00B5"/>
</linearGradient>
<linearGradient id="paint1_linear_534_844" x1="24.52" y1="39.3683" x2="37.053" y2="11.1914" gradientUnits="userSpaceOnUse">
<stop stop-color="#D70066"/>
<stop offset="1" stop-color="#0D00B5"/>
</linearGradient>
<linearGradient id="paint2_linear_534_844" x1="31.2244" y1="12.4564" x2="34.1051" y2="33.0644" gradientUnits="userSpaceOnUse">
<stop stop-color="#8890F4"/>
<stop offset="0.283" stop-color="#FFCFFD"/>
<stop offset="0.606" stop-color="#F4F0FE"/>
<stop offset="0.734" stop-color="#EFFFFF"/>
<stop offset="1" stop-color="#75D9DD"/>
</linearGradient>
<linearGradient id="paint3_linear_534_844" x1="11.7698" y1="27.9201" x2="33.0161" y2="33.7544" gradientUnits="userSpaceOnUse">
<stop offset="0.005" stop-color="#6F69F4"/>
<stop offset="0.415" stop-color="#FFCEAD"/>
<stop offset="0.596" stop-color="#EFEFB9"/>
<stop offset="0.673" stop-color="#E7FFBF"/>
<stop offset="1" stop-color="#75D9DD"/>
</linearGradient>
<linearGradient id="paint4_linear_534_844" x1="20.6749" y1="17.2021" x2="35.4275" y2="34.8431" gradientUnits="userSpaceOnUse">
<stop offset="0.005" stop-color="#6F69F4"/>
<stop offset="0.382" stop-color="#FFAFFF"/>
<stop offset="0.513" stop-color="#F5D1E4"/>
<stop offset="0.673" stop-color="#E7FFBF"/>
<stop offset="0.972" stop-color="#75D9DD"/>
</linearGradient>
<linearGradient id="paint5_linear_534_844" x1="28.7537" y1="9.23449" x2="27.4523" y2="7.65324" gradientUnits="userSpaceOnUse">
<stop stop-color="#FFA2FF"/>
<stop offset="0.557" stop-color="#FFFFB0"/>
<stop offset="0.713" stop-color="#DDFFCA"/>
<stop offset="1" stop-color="#97FFFF"/>
</linearGradient>
<linearGradient id="paint6_linear_534_844" x1="26.9542" y1="10.0203" x2="25.7889" y2="8.51576" gradientUnits="userSpaceOnUse">
<stop stop-color="#FFA2FF"/>
<stop offset="0.557" stop-color="#FFFFB0"/>
<stop offset="0.713" stop-color="#DDFFCA"/>
<stop offset="1" stop-color="#97FFFF"/>
</linearGradient>
<linearGradient id="paint7_linear_534_844" x1="31.23" y1="8.88375" x2="29.4226" y2="6.118" gradientUnits="userSpaceOnUse">
<stop stop-color="#FFA2FF"/>
<stop offset="0.557" stop-color="#FFFFB0"/>
<stop offset="0.713" stop-color="#DDFFCA"/>
<stop offset="1" stop-color="#97FFFF"/>
</linearGradient>
<linearGradient id="paint8_linear_534_844" x1="40.2824" y1="11.3256" x2="39.7553" y2="9.91493" gradientUnits="userSpaceOnUse">
<stop stop-color="#FFA2FF"/>
<stop offset="0.557" stop-color="#FFFFB0"/>
<stop offset="0.713" stop-color="#DDFFCA"/>
<stop offset="1" stop-color="#97FFFF"/>
</linearGradient>
<linearGradient id="paint9_linear_534_844" x1="38.8716" y1="11.5613" x2="38.3369" y2="10.2465" gradientUnits="userSpaceOnUse">
<stop stop-color="#FFA2FF"/>
<stop offset="0.557" stop-color="#FFFFB0"/>
<stop offset="0.713" stop-color="#DDFFCA"/>
<stop offset="1" stop-color="#97FFFF"/>
</linearGradient>
<linearGradient id="paint10_linear_534_844" x1="41.7685" y1="11.0496" x2="41.1762" y2="9.039" gradientUnits="userSpaceOnUse">
<stop stop-color="#FFA2FF"/>
<stop offset="0.557" stop-color="#FFFFB0"/>
<stop offset="0.713" stop-color="#DDFFCA"/>
<stop offset="1" stop-color="#97FFFF"/>
</linearGradient>
<linearGradient id="paint11_linear_534_844" x1="31.692" y1="22.8256" x2="23.7263" y2="13.5451" gradientUnits="userSpaceOnUse">
<stop offset="0.005" stop-color="#6F69F4"/>
<stop offset="0.329" stop-color="#FFD9AD"/>
<stop offset="0.635" stop-color="#EAFABD"/>
<stop offset="0.673" stop-color="#E7FFBF"/>
<stop offset="1" stop-color="#75D9DD"/>
</linearGradient>
<linearGradient id="paint12_linear_534_844" x1="31.1226" y1="34.7396" x2="11.0014" y2="33.741" gradientUnits="userSpaceOnUse">
<stop offset="0.005" stop-color="#6F69F4"/>
<stop offset="0.33" stop-color="#FFECEC"/>
<stop offset="0.591" stop-color="#EDFACB"/>
<stop offset="0.673" stop-color="#E7FFBF"/>
<stop offset="0.972" stop-color="#75D9DD"/>
</linearGradient>
<linearGradient id="paint13_linear_534_844" x1="12.4483" y1="38.0305" x2="30.992" y2="37.0511" gradientUnits="userSpaceOnUse">
<stop offset="0.005" stop-color="#6F69F4"/>
<stop offset="0.33" stop-color="#FFECEC"/>
<stop offset="0.591" stop-color="#EDFACB"/>
<stop offset="0.673" stop-color="#E7FFBF"/>
<stop offset="0.972" stop-color="#75D9DD"/>
</linearGradient>
<linearGradient id="paint14_linear_534_844" x1="28.2866" y1="30.1358" x2="12.7923" y2="26.1874" gradientUnits="userSpaceOnUse">
<stop offset="0.005" stop-color="#6F69F4"/>
<stop offset="0.601" stop-color="#FFCEAD"/>
<stop offset="0.707" stop-color="#EFEFB9"/>
<stop offset="0.752" stop-color="#E7FFBF"/>
<stop offset="0.976" stop-color="#75D9DD"/>
</linearGradient>
<linearGradient id="paint15_linear_534_844" x1="38.3162" y1="15.916" x2="34.7589" y2="33.9154" gradientUnits="userSpaceOnUse">
<stop stop-color="#8890F4"/>
<stop offset="0.425" stop-color="#FFB8FD"/>
<stop offset="0.549" stop-color="#F4D9FE"/>
<stop offset="0.673" stop-color="#E7FFFF"/>
<stop offset="1" stop-color="#75D9DD"/>
</linearGradient>
<linearGradient id="paint16_linear_534_844" x1="37.9881" y1="26.7567" x2="41.3863" y2="14.2236" gradientUnits="userSpaceOnUse">
<stop offset="0.005" stop-color="#6F69F4"/>
<stop offset="0.329" stop-color="#FFCEAD"/>
<stop offset="0.571" stop-color="#EFEFB9"/>
<stop offset="0.673" stop-color="#E7FFBF"/>
<stop offset="1" stop-color="#75D9DD"/>
</linearGradient>
</defs>
</svg>
