<svg width="46" height="46" viewBox="0 0 46 46" fill="none" xmlns="http://www.w3.org/2000/svg">
<path d="M27.8648 42.9103H18.0284C17.9258 42.9127 17.8243 42.8881 17.7342 42.839C17.6441 42.7899 17.5684 42.718 17.5147 42.6305L0.107584 4.47541C0.0445105 4.38121 0.00799879 4.27175 0.00189219 4.15855C-0.0042144 4.04534 0.02031 3.93259 0.072884 3.83215C0.125458 3.73171 0.204137 3.6473 0.30064 3.5878C0.397142 3.52831 0.507898 3.49593 0.621251 3.49408H10.4576C10.6684 3.49408 10.8543 3.588 10.9713 3.77391L28.3784 41.906C28.6582 42.3507 28.3554 42.9103 27.8648 42.9103Z" fill="url(#paint0_linear_534_788)"/>
<path d="M45.4346 3.5171H35.4584C35.3648 3.5156 35.2725 3.5385 35.1905 3.58353C35.1085 3.62857 35.0396 3.69419 34.9907 3.77393L17.5145 42.0229C17.4578 42.1083 17.425 42.2073 17.4197 42.3097C17.4144 42.412 17.4367 42.5139 17.4844 42.6047C17.532 42.6955 17.6032 42.7717 17.6904 42.8255C17.7777 42.8793 17.8778 42.9086 17.9803 42.9103H27.9585C28.052 42.9118 28.1443 42.8889 28.2263 42.8439C28.3083 42.7989 28.3772 42.7333 28.4261 42.6535L45.9023 4.40451C45.9591 4.31904 45.9919 4.21982 45.9971 4.1173C46.0024 4.01477 45.9799 3.91274 45.932 3.82192C45.8841 3.7311 45.8127 3.65487 45.7252 3.60122C45.6376 3.54758 45.5373 3.51852 45.4346 3.5171Z" fill="url(#paint1_linear_534_788)"/>
<path d="M41.3924 5.61966C39.7096 5.52766 37.8408 6.62591 35.1307 9.89574C34.5001 10.6682 32.1177 10.6682 32.4205 12.3031C33.8465 20.3876 26.3696 37.3271 28.0275 37.4191C29.6873 37.5149 33.8925 34.3141 35.3645 32.4434C36.8365 30.5747 37.8178 29.0317 38.9621 26.7183C40.1083 24.4049 41.2755 21.0642 42.3048 17.4666C43.3321 13.869 43.3781 10.3174 43.449 8.30682C43.495 7.69924 43.0753 5.71357 41.3924 5.61966Z" fill="#191935"/>
<path d="M34.5227 11.5326C34.126 9.35908 32.4431 4.96608 31.2989 3.565C30.1546 2.162 29.0564 1.50842 27.2566 2.185C26.2753 2.55875 23.9619 3.89083 22.279 9.03133C21.7424 10.6662 20.855 11.4847 20.0595 12.5829C19.266 13.6562 18.0049 15.1532 18.0049 17.2097C18.0049 19.2893 18.8444 21.0412 19.9906 22.3732C21.1348 23.7053 26.0185 27.6307 27.0458 28.704C28.098 29.7792 30.9481 32.6293 31.6956 33.9154L32.4431 35.1996C32.4431 35.1996 33.8461 31.9527 34.2889 30.9005C34.7335 29.8732 35.552 24.4049 35.621 21.298C35.6919 18.2122 34.8025 13.0966 34.5227 11.5326Z" fill="black"/>
<path d="M28.6584 39.2418C28.4724 39.3358 28.3555 38.7972 28.9861 37.8868C29.6186 36.9763 30.8779 35.2226 31.8841 34.4521C32.9095 33.6816 35.4587 31.625 36.417 31.4142C37.3754 31.2033 37.3754 32.0467 36.9077 32.3955C36.0184 33.074 35.8554 32.9111 34.7342 33.9384C33.6129 34.9658 32.2329 35.5043 31.3934 36.2748C30.5501 37.0453 29.1739 38.962 28.6584 39.2418Z" fill="black"/>
<path d="M19.5003 23.7513C16.5793 22.9099 11.8356 21.9765 10.0377 28.635C10.0377 28.635 8.75356 29.1947 7.79523 31.3912C6.25231 34.9197 9.64098 44.3363 19.6632 41.883C24.43 40.7138 28.4032 38.1915 29.5705 37.0453C31.3453 35.3165 32.4915 35.2245 32.4915 35.2245C31.6961 32.7002 25.994 25.6431 19.5003 23.7513ZM36.3459 32.0697C37.3042 31.1822 38.5424 29.8502 39.0791 28.9148C39.6157 27.9814 40.1543 26.6723 40.2482 26.2986C40.3421 25.9248 40.1083 24.7557 40.6699 24.8266C41.2296 24.8956 40.8788 25.8079 40.645 26.2526C40.3191 26.8352 39.9205 27.7476 39.6636 28.3782C39.4068 29.0317 38.4715 30.199 37.747 31.0423C36.9995 31.8818 36.275 32.4664 36.275 32.4664L36.3459 32.0697Z" fill="black"/>
<path d="M36.0654 32.3725C36.0654 32.3725 37.2557 31.671 38.214 30.9944C39.1723 30.3159 41.112 28.5641 41.5797 27.9335C42.0703 27.301 42.1393 26.7183 42.3962 26.8602C42.8408 27.14 42.0933 27.7936 41.7886 28.0964C41.4628 28.4012 40.3645 29.4764 39.5231 30.176C38.6587 30.8775 36.4373 32.4894 36.0654 32.3725Z" fill="black"/>
<path d="M33.074 32.9341C33.0989 33.028 33.1698 33.097 33.1698 32.9801C33.3787 30.9484 34.1952 28.5411 34.2201 22.6071C34.2431 16.3204 34.2201 13.4473 29.6393 12.2801C29.3365 12.2092 29.0566 12.2801 29.1026 12.5829C29.2196 13.2844 30.8085 16.7421 31.602 21.275C32.5603 26.8583 32.8861 31.9988 33.074 32.9341Z" fill="url(#paint2_linear_534_788)"/>
<path d="M13.238 30.13C11.6721 30.5747 15.4345 31.3452 19.0321 32.0467C21.4854 32.5373 29.2191 33.7276 31.8354 33.8675C31.8833 33.8675 31.9063 33.7985 31.8584 33.7755C29.2421 32.0697 23.4481 28.3533 21.7882 28.3533C18.7982 28.3303 14.4052 29.8023 13.238 30.13Z" fill="url(#paint3_linear_534_788)"/>
<path d="M22.2102 18.0033C22.2102 18.0033 23.4483 20.5965 25.388 22.2103C27.0689 23.5884 28.5428 24.4758 29.0795 25.1294C30.9253 27.3029 31.6478 31.1113 32.5602 32.9111C32.7001 33.1679 25.8557 26.3925 22.3731 20.5965C21.5796 19.2663 21.9993 17.6525 22.2102 18.0033Z" fill="url(#paint4_linear_534_788)"/>
<path d="M26.6032 6.62591C27.3277 6.48407 29.2424 7.58424 29.2424 8.14391C29.2424 8.40074 26.4863 7.88707 26.0186 7.65324C25.3861 7.32741 26.1336 6.71791 26.6032 6.62591Z" fill="url(#paint5_linear_534_788)"/>
<path d="M25.3404 8.63459C25.6911 8.32984 27.1631 8.65759 27.4449 8.91443C27.7247 9.21918 25.9959 9.40509 25.4343 9.47601C24.9436 9.52201 24.9915 8.94126 25.3404 8.63459Z" fill="url(#paint6_linear_534_788)"/>
<path d="M28.7306 4.10167C29.804 4.19558 31.9526 7.3485 31.4868 7.72417C31.23 7.91008 27.8873 5.8535 27.3966 5.27083C26.975 4.75525 27.9122 4.03075 28.7306 4.10167Z" fill="url(#paint7_linear_534_788)"/>
<path d="M39.4064 8.98534C39.9431 9.05434 41.0184 10.2465 40.9014 10.6682C40.8554 10.8541 39.0327 9.84976 38.7529 9.56993C38.3791 9.17126 39.0576 8.93743 39.4064 8.98534Z" fill="url(#paint8_linear_534_788)"/>
<path d="M38.0513 10.2235C38.3081 10.0606 39.3604 10.6452 39.3834 10.925C39.4064 11.1588 38.3541 10.9001 37.9344 10.8292C37.5836 10.7832 37.7715 10.4094 38.0494 10.2235H38.0513Z" fill="url(#paint9_linear_534_788)"/>
<path d="M41.182 7.69925C41.9295 8.004 42.562 10.1066 42.3281 10.3174C42.0713 10.5493 40.2006 8.7515 39.9898 8.23783C39.8039 7.79317 40.6223 7.48842 41.182 7.69925Z" fill="url(#paint10_linear_534_788)"/>
<path d="M30.8084 25.4342C30.5745 24.265 30.2008 19.4293 28.9875 16.5313C28.0982 14.4287 25.6909 10.5263 25.2002 11.8584C24.4757 13.8211 22.8408 15.6438 23.4024 17.0909C23.962 18.5418 25.8557 20.5275 27.2798 21.7657C28.6598 22.9808 30.8333 25.5511 30.8084 25.4342Z" fill="url(#paint11_linear_534_788)"/>
<path d="M17.7481 33.074C15.9023 32.8172 13.0752 32.2326 11.3215 31.8818C10.2232 31.671 11.5093 34.7089 13.0043 35.5043C14.2885 36.1809 20.0845 35.8072 23.9159 35.4334C27.0937 35.1076 31.9525 34.2642 30.2946 34.2432C26.0949 34.0723 21.907 33.682 17.7481 33.074Z" fill="url(#paint12_linear_534_788)"/>
<path d="M30.7141 35.0137C30.808 34.9657 30.9249 34.7798 30.854 34.8258C29.4299 35.2935 24.1725 36.7425 18.4244 37.3731C14.0314 37.8407 13.0961 37.467 12.5844 37.6989C11.9768 37.9577 13.6577 40.2481 17.4201 40.0372C21.7192 39.7804 28.2608 36.6026 30.7141 35.0137Z" fill="url(#paint13_linear_534_788)"/>
<path d="M13.6356 27.9565C13.3558 27.9565 13.3558 27.14 14.2681 26.7413C14.2681 26.7413 15.2954 25.4342 17.3501 25.8309C18.7761 26.1108 21.0416 27.3968 20.7388 27.3259C19.6654 27.0691 14.9907 27.9565 13.6356 27.9565Z" fill="url(#paint14_linear_534_788)"/>
<path d="M34.4541 32.0218C34.4541 31.9298 35.3645 30.5038 36.5567 24.1711C37.3042 20.2477 37.1164 16.7881 36.9994 16.1115C36.9304 15.6208 38.6114 16.6022 38.6363 18.4479C38.6593 19.78 38.3545 25.1064 35.9491 29.8962C34.9678 31.8818 34.4541 32.1368 34.4541 32.0218Z" fill="url(#paint15_linear_534_788)"/>
<path d="M37.9344 27.0921C37.9114 27.14 37.8175 27.117 37.8405 27.0691C38.3312 25.9957 39.6633 21.4149 39.9431 17.9342C40.06 16.5792 40.06 15.4809 40.2248 15.1302C40.3878 14.7085 41.4151 13.5393 41.6489 13.4013C42.1396 13.1215 41.9058 15.9946 40.8075 19.5692C40.1539 21.7887 38.7988 25.5741 37.9344 27.0921Z" fill="url(#paint16_linear_534_788)"/>
<defs>
<linearGradient id="paint0_linear_534_788" x1="4.16517" y1="6.32308" x2="22.0879" y2="36.3592" gradientUnits="userSpaceOnUse">
<stop stop-color="#19D46A"/>
<stop offset="1" stop-color="#0D00B5"/>
</linearGradient>
<linearGradient id="paint1_linear_534_788" x1="24.52" y1="39.3683" x2="37.053" y2="11.1914" gradientUnits="userSpaceOnUse">
<stop stop-color="#D70066"/>
<stop offset="1" stop-color="#0D00B5"/>
</linearGradient>
<linearGradient id="paint2_linear_534_788" x1="31.2244" y1="12.4564" x2="34.1051" y2="33.0644" gradientUnits="userSpaceOnUse">
<stop stop-color="#8890F4"/>
<stop offset="0.283" stop-color="#FFCFFD"/>
<stop offset="0.606" stop-color="#F4F0FE"/>
<stop offset="0.734" stop-color="#EFFFFF"/>
<stop offset="1" stop-color="#75D9DD"/>
</linearGradient>
<linearGradient id="paint3_linear_534_788" x1="11.7698" y1="27.9201" x2="33.0161" y2="33.7544" gradientUnits="userSpaceOnUse">
<stop offset="0.005" stop-color="#6F69F4"/>
<stop offset="0.415" stop-color="#FFCEAD"/>
<stop offset="0.596" stop-color="#EFEFB9"/>
<stop offset="0.673" stop-color="#E7FFBF"/>
<stop offset="1" stop-color="#75D9DD"/>
</linearGradient>
<linearGradient id="paint4_linear_534_788" x1="20.6749" y1="17.2021" x2="35.4275" y2="34.8431" gradientUnits="userSpaceOnUse">
<stop offset="0.005" stop-color="#6F69F4"/>
<stop offset="0.382" stop-color="#FFAFFF"/>
<stop offset="0.513" stop-color="#F5D1E4"/>
<stop offset="0.673" stop-color="#E7FFBF"/>
<stop offset="0.972" stop-color="#75D9DD"/>
</linearGradient>
<linearGradient id="paint5_linear_534_788" x1="28.7537" y1="9.23449" x2="27.4523" y2="7.65324" gradientUnits="userSpaceOnUse">
<stop stop-color="#FFA2FF"/>
<stop offset="0.557" stop-color="#FFFFB0"/>
<stop offset="0.713" stop-color="#DDFFCA"/>
<stop offset="1" stop-color="#97FFFF"/>
</linearGradient>
<linearGradient id="paint6_linear_534_788" x1="26.9542" y1="10.0203" x2="25.7889" y2="8.51576" gradientUnits="userSpaceOnUse">
<stop stop-color="#FFA2FF"/>
<stop offset="0.557" stop-color="#FFFFB0"/>
<stop offset="0.713" stop-color="#DDFFCA"/>
<stop offset="1" stop-color="#97FFFF"/>
</linearGradient>
<linearGradient id="paint7_linear_534_788" x1="31.23" y1="8.88375" x2="29.4226" y2="6.118" gradientUnits="userSpaceOnUse">
<stop stop-color="#FFA2FF"/>
<stop offset="0.557" stop-color="#FFFFB0"/>
<stop offset="0.713" stop-color="#DDFFCA"/>
<stop offset="1" stop-color="#97FFFF"/>
</linearGradient>
<linearGradient id="paint8_linear_534_788" x1="40.2824" y1="11.3256" x2="39.7553" y2="9.91493" gradientUnits="userSpaceOnUse">
<stop stop-color="#FFA2FF"/>
<stop offset="0.557" stop-color="#FFFFB0"/>
<stop offset="0.713" stop-color="#DDFFCA"/>
<stop offset="1" stop-color="#97FFFF"/>
</linearGradient>
<linearGradient id="paint9_linear_534_788" x1="38.8716" y1="11.5613" x2="38.3369" y2="10.2465" gradientUnits="userSpaceOnUse">
<stop stop-color="#FFA2FF"/>
<stop offset="0.557" stop-color="#FFFFB0"/>
<stop offset="0.713" stop-color="#DDFFCA"/>
<stop offset="1" stop-color="#97FFFF"/>
</linearGradient>
<linearGradient id="paint10_linear_534_788" x1="41.7685" y1="11.0496" x2="41.1762" y2="9.039" gradientUnits="userSpaceOnUse">
<stop stop-color="#FFA2FF"/>
<stop offset="0.557" stop-color="#FFFFB0"/>
<stop offset="0.713" stop-color="#DDFFCA"/>
<stop offset="1" stop-color="#97FFFF"/>
</linearGradient>
<linearGradient id="paint11_linear_534_788" x1="31.692" y1="22.8256" x2="23.7263" y2="13.5451" gradientUnits="userSpaceOnUse">
<stop offset="0.005" stop-color="#6F69F4"/>
<stop offset="0.329" stop-color="#FFD9AD"/>
<stop offset="0.635" stop-color="#EAFABD"/>
<stop offset="0.673" stop-color="#E7FFBF"/>
<stop offset="1" stop-color="#75D9DD"/>
</linearGradient>
<linearGradient id="paint12_linear_534_788" x1="31.1226" y1="34.7396" x2="11.0014" y2="33.741" gradientUnits="userSpaceOnUse">
<stop offset="0.005" stop-color="#6F69F4"/>
<stop offset="0.33" stop-color="#FFECEC"/>
<stop offset="0.591" stop-color="#EDFACB"/>
<stop offset="0.673" stop-color="#E7FFBF"/>
<stop offset="0.972" stop-color="#75D9DD"/>
</linearGradient>
<linearGradient id="paint13_linear_534_788" x1="12.4483" y1="38.0305" x2="30.992" y2="37.0511" gradientUnits="userSpaceOnUse">
<stop offset="0.005" stop-color="#6F69F4"/>
<stop offset="0.33" stop-color="#FFECEC"/>
<stop offset="0.591" stop-color="#EDFACB"/>
<stop offset="0.673" stop-color="#E7FFBF"/>
<stop offset="0.972" stop-color="#75D9DD"/>
</linearGradient>
<linearGradient id="paint14_linear_534_788" x1="28.2866" y1="30.1358" x2="12.7923" y2="26.1874" gradientUnits="userSpaceOnUse">
<stop offset="0.005" stop-color="#6F69F4"/>
<stop offset="0.601" stop-color="#FFCEAD"/>
<stop offset="0.707" stop-color="#EFEFB9"/>
<stop offset="0.752" stop-color="#E7FFBF"/>
<stop offset="0.976" stop-color="#75D9DD"/>
</linearGradient>
<linearGradient id="paint15_linear_534_788" x1="38.3162" y1="15.916" x2="34.7589" y2="33.9154" gradientUnits="userSpaceOnUse">
<stop stop-color="#8890F4"/>
<stop offset="0.425" stop-color="#FFB8FD"/>
<stop offset="0.549" stop-color="#F4D9FE"/>
<stop offset="0.673" stop-color="#E7FFFF"/>
<stop offset="1" stop-color="#75D9DD"/>
</linearGradient>
<linearGradient id="paint16_linear_534_788" x1="37.9881" y1="26.7567" x2="41.3863" y2="14.2236" gradientUnits="userSpaceOnUse">
<stop offset="0.005" stop-color="#6F69F4"/>
<stop offset="0.329" stop-color="#FFCEAD"/>
<stop offset="0.571" stop-color="#EFEFB9"/>
<stop offset="0.673" stop-color="#E7FFBF"/>
<stop offset="1" stop-color="#75D9DD"/>
</linearGradient>
</defs>
</svg>
