<svg width="46" height="46" viewBox="0 0 46 46" fill="none" xmlns="http://www.w3.org/2000/svg">
<g clip-path="url(#clip0_534_732)">
<path d="M11.5268 0C14.881 0.463833 17.4666 2.07575 19.2836 4.83383C19.5883 5.29383 19.8701 5.934 20.0809 6.325C20.0946 6.35016 20.1153 6.3708 20.1404 6.38441C20.1656 6.39803 20.1942 6.40402 20.2227 6.40167C22.0915 6.22917 23.9334 6.22917 25.7466 6.40167C25.7751 6.40427 25.8038 6.39838 25.8291 6.38475C25.8543 6.37111 25.8749 6.35032 25.8884 6.325C26.1491 5.84583 26.4519 5.16925 26.8372 4.61342C28.658 1.98758 31.1938 0.452333 34.4387 0H36.6428C37.7008 0.197417 38.3659 0.341167 38.6362 0.429333C40.8921 1.16917 42.6938 2.48017 44.0412 4.36425C45.3837 6.21627 46.0715 8.46249 45.9962 10.7487C45.9463 13.0353 45.1586 15.1474 43.631 17.0852C43.6041 17.1189 43.5879 17.16 43.5845 17.203C43.5811 17.246 43.5906 17.2891 43.6118 17.3267C44.7557 19.3064 45.5134 21.4852 45.8448 23.7475C45.9272 24.3033 45.9732 24.9416 45.9827 25.6565C45.9962 26.657 45.9885 27.2972 45.9617 27.577C45.0532 36.8173 37.5437 43.3876 28.8727 45.3522C27.6134 45.6378 26.2353 45.8486 24.7384 45.9847H21.2558C20.5412 45.9014 19.8275 45.81 19.1149 45.7106C17.7663 45.5235 16.4355 45.2254 15.1359 44.8193C9.87467 43.1748 5.14242 39.7574 2.37283 34.9504C1.2995 33.0874 0.596083 31.2129 0.2645 29.3269C0.168993 28.7339 0.0808198 28.1397 0 27.5444L0 24.7538C0.255705 22.1286 1.06508 19.5874 2.37475 17.2979C2.39478 17.263 2.40368 17.2229 2.40025 17.1828C2.39683 17.1427 2.38124 17.1046 2.35558 17.0737C1.27351 15.7761 0.5353 14.2272 0.208917 12.5695C0.14375 12.2341 0.0728333 11.8987 0 11.5575V9.34375C0.174417 8.18992 0.4255 7.22967 0.751333 6.46492C2.06233 3.38292 4.76675 0.9775 8.10558 0.251083C8.51192 0.162917 8.92017 0.0785833 9.33033 0H11.5268ZM18.7718 10.4363C18.7886 9.33236 18.5856 8.23616 18.1748 7.21144C17.7639 6.18672 17.1534 5.25395 16.3787 4.46739C15.6039 3.68083 14.6805 3.0562 13.6622 2.62985C12.6438 2.20349 11.5508 1.98393 10.4468 1.98393C9.34278 1.98393 8.24978 2.20349 7.23141 2.62985C6.21305 3.0562 5.28964 3.68083 4.51493 4.46739C3.74021 5.25395 3.12967 6.18672 2.71881 7.21144C2.30796 8.23616 2.105 9.33236 2.12175 10.4363C2.12175 12.6444 2.99895 14.7622 4.56038 16.3236C6.12181 17.8851 8.23956 18.7622 10.4478 18.7622C12.6559 18.7622 14.7737 17.8851 16.3351 16.3236C17.8965 14.7622 18.7737 12.6444 18.7737 10.4363H18.7718ZM43.8648 10.4363C43.8648 9.34286 43.6495 8.26018 43.2311 7.25003C42.8126 6.23987 42.1993 5.32202 41.4262 4.54888C40.6531 3.77574 39.7352 3.16245 38.7251 2.74403C37.7149 2.32561 36.6322 2.11025 35.5388 2.11025C34.4454 2.11025 33.3628 2.32561 32.3526 2.74403C31.3425 3.16245 30.4246 3.77574 29.6515 4.54888C28.8783 5.32202 28.265 6.23987 27.8466 7.25003C27.4282 8.26018 27.2128 9.34286 27.2128 10.4363C27.2128 12.6444 28.09 14.7622 29.6515 16.3236C31.2129 17.8851 33.3306 18.7622 35.5388 18.7622C37.747 18.7622 39.8648 17.8851 41.4262 16.3236C42.9876 14.7622 43.8648 12.6444 43.8648 10.4363ZM22.9847 34.4904C23.3009 34.4904 23.6037 34.4866 23.8912 34.4789C25.5565 34.4305 27.219 34.3135 28.8746 34.1282C31.2091 33.8656 33.5129 33.3807 35.7823 32.6734C38.433 31.8473 42.366 30.13 43.5716 27.4313C43.8169 26.8851 43.907 26.1836 43.8437 25.3288C43.654 22.8543 43.033 20.6904 41.9788 18.8313C41.9715 18.8186 41.9602 18.8086 41.9468 18.8027C41.9333 18.7969 41.9184 18.7955 41.9041 18.7987C41.8943 18.8012 41.8851 18.8057 41.8773 18.8121C39.928 20.1863 37.8983 20.8898 35.788 20.9204C33.5647 20.9549 31.5713 20.3895 29.8157 19.2203C27.1132 17.4225 25.5415 14.8695 25.1045 11.5556C24.9703 10.5532 25.0566 9.69067 25.2157 8.62117C25.2183 8.60568 25.2176 8.58982 25.2136 8.57462C25.2096 8.55942 25.2025 8.54524 25.1927 8.533C25.183 8.52052 25.1709 8.51016 25.157 8.50258C25.1432 8.495 25.1279 8.49034 25.1122 8.48892C24.6541 8.43908 23.9468 8.41225 22.9904 8.41225C22.0359 8.41225 21.3287 8.43908 20.8725 8.48892C20.8411 8.49175 20.8122 8.50692 20.792 8.53108C20.7824 8.54344 20.7754 8.55763 20.7714 8.57279C20.7674 8.58795 20.7666 8.60376 20.769 8.61925C20.9262 9.68875 21.0124 10.5513 20.8782 11.5537C20.4374 14.8657 18.8657 17.4187 16.1632 19.2146C14.4037 20.3818 12.4123 20.9473 10.1871 20.9128C8.07875 20.8802 6.04708 20.1748 4.09975 18.7987C4.09154 18.7928 4.08216 18.7887 4.07224 18.7867C4.06233 18.7847 4.0521 18.7849 4.04225 18.7872C4.03307 18.7893 4.02442 18.7933 4.01683 18.7989C4.00925 18.8045 4.0029 18.8116 3.99817 18.8198C2.944 20.6751 2.32108 22.839 2.13133 25.3134C2.06425 26.1683 2.15433 26.8698 2.39967 27.4179C3.60333 30.1185 7.53633 31.8358 10.1852 32.6657C12.4564 33.3749 14.7583 33.8618 17.0928 34.1243C18.7201 34.3103 20.3799 34.4272 22.0762 34.4789C22.3637 34.4866 22.6665 34.4904 22.9847 34.4904ZM22.9904 43.8591C24.6138 43.8591 26.0111 43.7326 27.7303 43.401C34.4042 42.113 40.3056 37.9289 42.8854 31.5483C42.8872 31.543 42.8877 31.5374 42.887 31.5318C42.8862 31.5262 42.8841 31.5209 42.881 31.5163C42.8778 31.5117 42.8737 31.5078 42.8688 31.5051C42.8639 31.5023 42.8584 31.5007 42.8528 31.5004C42.8452 31.5004 42.8375 31.5042 42.8337 31.5081C42.0095 32.1367 41.1125 32.6945 40.1408 33.1756C36.6888 34.8948 32.7367 35.834 28.8765 36.271C26.9732 36.4876 24.9703 36.616 22.9923 36.616C21.0143 36.616 19.0133 36.4876 17.1101 36.271C13.2499 35.8302 9.29775 34.8948 5.84583 33.1756C4.89697 32.7067 3.99576 32.147 3.15483 31.5043C3.14851 31.5003 3.14119 31.4983 3.13375 31.4985C3.12644 31.4989 3.11943 31.5015 3.11362 31.5059C3.1078 31.5104 3.10347 31.5165 3.10117 31.5234C3.09868 31.5309 3.09868 31.539 3.10117 31.5464C5.67908 37.927 11.5805 42.1111 18.2543 43.3991C19.9736 43.7326 21.3708 43.8591 22.9923 43.8591H22.9904Z" fill="#5EAE91"/>
<path d="M11.496 17.71C13.1445 17.71 14.7255 17.0551 15.8912 15.8894C17.0569 14.7238 17.7118 13.1428 17.7118 11.4943C17.7118 9.84573 17.0569 8.26473 15.8912 7.09905C14.7255 5.93337 13.1445 5.2785 11.496 5.2785C9.8475 5.2785 8.2665 5.93337 7.10082 7.09905C5.93515 8.26473 5.28027 9.84573 5.28027 11.4943C5.28027 13.1428 5.93515 14.7238 7.10082 15.8894C8.2665 17.0551 9.8475 17.71 11.496 17.71ZM34.4903 17.71C36.1388 17.71 37.7198 17.0551 38.8855 15.8894C40.0512 14.7238 40.706 13.1428 40.706 11.4943C40.706 9.84573 40.0512 8.26473 38.8855 7.09905C37.7198 5.93337 36.1388 5.2785 34.4903 5.2785C32.8418 5.2785 31.2608 5.93337 30.0951 7.09905C28.9294 8.26473 28.2745 9.84573 28.2745 11.4943C28.2745 13.1428 28.9294 14.7238 30.0951 15.8894C31.2608 17.0551 32.8418 17.71 34.4903 17.71ZM17.6869 30.0898C17.9267 30.0976 18.1658 30.0571 18.3897 29.9708C18.6136 29.8844 18.8179 29.7538 18.9904 29.5869C19.1629 29.42 19.3 29.2201 19.3937 28.9991C19.4873 28.7781 19.5356 28.5406 19.5356 28.3005C19.5356 28.0605 19.4873 27.823 19.3937 27.602C19.3 27.381 19.1629 27.1811 18.9904 27.0142C18.8179 26.8472 18.6136 26.7167 18.3897 26.6303C18.1658 26.5439 17.9267 26.5035 17.6869 26.5113C17.2225 26.5265 16.7822 26.7217 16.459 27.0556C16.1359 27.3895 15.9553 27.8359 15.9553 28.3005C15.9553 28.7652 16.1359 29.2116 16.459 29.5455C16.7822 29.8794 17.2225 30.0746 17.6869 30.0898ZM28.2994 30.0917C28.7747 30.0917 29.2306 29.9029 29.5666 29.5668C29.9027 29.2307 30.0915 28.7749 30.0915 28.2996C30.0915 27.8243 29.9027 27.3685 29.5666 27.0324C29.2306 26.6963 28.7747 26.5075 28.2994 26.5075C27.8242 26.5075 27.3683 26.6963 27.0322 27.0324C26.6962 27.3685 26.5074 27.8243 26.5074 28.2996C26.5074 28.7749 26.6962 29.2307 27.0322 29.5668C27.3683 29.9029 27.8242 30.0917 28.2994 30.0917Z" fill="#5EAE91"/>
</g>
<defs>
<clipPath id="clip0_534_732">
<rect width="46" height="46" fill="white"/>
</clipPath>
</defs>
</svg>
