<svg width="46" height="46" viewBox="0 0 46 46" fill="none" xmlns="http://www.w3.org/2000/svg">
<g clip-path="url(#clip0_534_726)">
<path fill-rule="evenodd" clip-rule="evenodd" d="M7.49045 17.434C7.48944 15.3969 7.88974 13.3796 8.66848 11.4972C9.44723 9.61489 10.5892 7.90438 12.0291 6.46341C13.469 5.02244 15.1786 3.87924 17.0604 3.0991C18.9422 2.31897 20.9592 1.91717 22.9963 1.91667H23.0078C31.5714 1.91667 38.5136 8.87033 38.5136 17.434V23.9353H42.2358C46.5099 23.9353 47.4721 29.9268 43.4145 31.2723L38.5155 32.9015V35.7113C38.5158 36.3476 38.3533 36.9734 38.0436 37.5292C37.7339 38.0849 37.2872 38.5523 36.746 38.8869C36.2048 39.2214 35.587 39.4121 34.9514 39.4406C34.3158 39.4692 33.6834 39.3348 33.1144 39.0502L30.3927 37.6951C30.2643 37.6376 30.1071 37.6951 30.0669 37.8312C27.8684 44.7063 18.1356 44.7063 15.9353 37.8312C15.9243 37.8 15.9068 37.7715 15.8841 37.7475C15.8613 37.7235 15.8338 37.7046 15.8032 37.6919C15.7727 37.6793 15.7398 37.6732 15.7067 37.6741C15.6737 37.6749 15.6412 37.6827 15.6114 37.697L12.8897 39.0502C10.4172 40.296 7.49045 38.4905 7.49045 35.7113V32.9015L2.58953 31.2723C-1.47764 29.9364 -0.503971 23.9353 3.76828 23.9353H7.49045V17.434ZM16.2515 22.4423C15.853 22.4423 15.4708 22.6006 15.189 22.8824C14.9072 23.1642 14.7489 23.5464 14.7489 23.9449V26.9503C14.7489 27.3488 14.9072 27.731 15.189 28.0128C15.4708 28.2946 15.853 28.4529 16.2515 28.4529C16.6501 28.4529 17.0323 28.2946 17.3141 28.0128C17.5959 27.731 17.7542 27.3488 17.7542 26.9503V23.9449C17.7542 23.5464 17.5959 23.1642 17.3141 22.8824C17.0323 22.6006 16.6501 22.4423 16.2515 22.4423ZM29.7544 23.9353C29.3559 23.9353 28.9737 24.0937 28.6919 24.3755C28.4101 24.6573 28.2518 25.0395 28.2518 25.438C28.2518 25.8365 28.4101 26.2187 28.6919 26.5005C28.9737 26.7824 29.3559 26.9407 29.7544 26.9407C30.153 26.9407 30.5352 26.7824 30.817 26.5005C31.0988 26.2187 31.2571 25.8365 31.2571 25.438C31.2571 25.0395 31.0988 24.6573 30.817 24.3755C30.5352 24.0937 30.153 23.9353 29.7544 23.9353ZM17.8979 30.4808C17.9734 30.6629 18.0841 30.8284 18.2238 30.9676C18.85 31.5953 19.5938 32.0934 20.4128 32.4332C21.2317 32.773 22.1096 32.9479 22.9963 32.9479C23.8829 32.9479 24.7609 32.773 25.5798 32.4332C26.3987 32.0934 27.1426 31.5953 27.7688 30.9676C27.9081 30.8284 28.0186 30.6631 28.0941 30.4812C28.1695 30.2993 28.2084 30.1043 28.2085 29.9074C28.2086 29.7105 28.1699 29.5154 28.0946 29.3335C28.0193 29.1515 27.9089 28.9861 27.7697 28.8468C27.6305 28.7075 27.4653 28.5969 27.2834 28.5215C27.1015 28.4461 26.9065 28.4072 26.7095 28.4071C26.5126 28.407 26.3176 28.4457 26.1356 28.521C25.9536 28.5963 25.7883 28.7066 25.6489 28.8458C24.9453 29.5484 23.9916 29.9431 22.9972 29.9431C22.0029 29.9431 21.0492 29.5484 20.3455 28.8458C20.1717 28.67 19.9569 28.54 19.7204 28.4675C19.484 28.3951 19.2333 28.3824 18.9907 28.4306C18.7482 28.4789 18.5214 28.5865 18.3307 28.744C18.14 28.9014 17.9913 29.1037 17.8979 29.3327C17.822 29.5149 17.7829 29.7103 17.7829 29.9077C17.7829 30.105 17.822 30.3005 17.8979 30.4827V30.4808Z" fill="black"/>
</g>
<defs>
<clipPath id="clip0_534_726">
<rect width="46" height="46" fill="white"/>
</clipPath>
</defs>
</svg>
