<svg width="145" height="46" viewBox="0 0 145 46" fill="none" xmlns="http://www.w3.org/2000/svg">
<path d="M141.986 9.42235V9.43002C141.318 12.1134 139.404 14.0588 138.029 15.2854L137.995 15.3161C137.781 15.502 137.556 15.6784 137.321 15.8394C137.422 16.0502 137.51 16.2649 137.577 16.4872L137.588 16.5274C137.851 17.411 137.916 18.3425 137.785 19.2568C137.534 20.7827 137.123 22.2776 136.56 23.7169C136.312 24.4164 136.075 25.0777 135.892 25.7294C135.394 27.4697 134.824 29.5282 134.366 31.6327C134.039 33.1672 133.924 34.7395 134.024 36.3055C134.084 36.9973 133.96 37.6927 133.665 38.3208C133.371 38.949 132.916 39.4877 132.347 39.882C131.242 40.7391 130.003 41.4062 128.68 41.8562C126.501 42.5232 124.979 41.9424 124.088 41.3368C123.941 41.2378 123.801 41.1296 123.668 41.0129C122.567 41.7067 121.337 42.1629 120.051 42.3507C119.536 42.4274 119.019 42.4676 118.5 42.4714C117.491 42.5004 116.488 42.3146 115.556 41.9261C114.624 41.5376 113.784 40.9553 113.093 40.2174C112.91 40.025 112.738 39.8228 112.578 39.6118C112.095 39.9606 111.585 40.2749 111.057 40.549C109.564 41.3434 107.858 41.6401 106.186 41.3962C104.775 41.2398 103.439 40.6752 102.342 39.7709C101.081 38.6476 100.256 37.1137 100.01 35.4392C99.9318 35.0231 99.8789 34.6026 99.8519 34.1799C99.1078 35.2475 98.3046 36.248 97.5299 37.1891C96.095 39.0117 94.2749 40.4912 92.2012 41.5208C90.0486 42.5772 87.5814 42.7897 85.2813 42.1169C84.0125 41.8022 82.8017 41.2865 81.6944 40.5893C81.1069 40.2047 80.5775 39.7374 80.1223 39.2016C79.6701 39.6712 79.218 40.1024 78.7868 40.5184C78.5235 40.7714 78.2564 41.0244 77.9969 41.2812C77.5924 41.6829 77.1118 41.9992 76.5836 42.2112C76.0553 42.4232 75.4901 42.5267 74.9214 42.5155C74.62 42.5155 74.3185 42.4906 74.019 42.4408C72.703 42.2451 71.4186 41.8752 70.1994 41.3406L70.1612 41.3214C68.9281 40.7701 67.8742 39.8814 67.12 38.7569C65.9772 39.6954 64.7184 40.4813 63.3748 41.0953C62.0408 41.7432 60.6052 42.1544 59.1317 42.3104C57.8343 42.4561 56.5293 42.5079 55.2262 42.4638C53.0423 42.3836 50.9218 41.7049 49.0942 40.5011C47.1833 39.1944 45.8192 37.2256 45.2632 34.9715C45.2536 34.9236 45.2384 34.8757 45.2269 34.8278C44.5973 35.1191 43.9372 35.3357 43.258 35.4699C41.489 35.8608 39.6453 35.7304 37.9483 35.0942C37.0558 34.7543 36.2639 34.1923 35.6468 33.4608C35.0298 32.7292 34.6078 31.8522 34.4206 30.912C33.0366 32.899 31.7756 34.9698 30.6449 37.1124C30.5266 37.3329 30.4083 37.6012 30.2786 37.8791C30.0251 38.4636 29.7338 39.0309 29.4067 39.5773C28.8475 40.5123 28.0522 41.2821 27.1012 41.8086C26.1502 42.3351 25.0776 42.5995 23.9921 42.5749H23.973C22.8172 42.6087 21.6708 42.3573 20.6342 41.8428C20.5171 41.7802 20.4025 41.7131 20.2907 41.6415C20.1306 41.7237 19.9691 41.8029 19.8061 41.8792C18.3185 42.6322 16.7115 43.1186 15.0574 43.3167L14.7903 43.3474C14.1073 43.4144 13.3555 43.4892 12.5638 43.4892C12.3386 43.4892 12.1078 43.4815 11.8788 43.47C9.60074 43.3733 7.41266 42.5495 5.63238 41.1183C3.83347 39.6398 2.60305 37.5783 2.15238 35.2878C1.83116 33.7391 1.78273 32.1459 2.00929 30.5804C2.34127 28.2996 3.07771 26.0993 4.18048 24.0791C5.02186 22.4653 6.02541 20.9415 7.17587 19.5309C8.42826 17.9978 9.91141 16.6708 11.5717 15.5979C12.9166 14.717 14.4204 14.1094 15.998 13.8096C18.1482 13.4071 20.2144 13.9246 22.3265 15.3928C23.4208 16.1451 24.3617 17.1008 25.0986 18.2084C26.541 16.1824 28.3478 15.0114 30.4674 14.7354C31.5381 14.5599 32.6365 14.7151 33.6174 15.1806C34.5982 15.6461 35.4152 16.3998 35.9603 17.342C36.5701 16.9216 37.214 16.5536 37.8853 16.2419C39.2943 15.5438 40.852 15.2029 42.4223 15.249C44.8453 15.3564 46.6884 16.1633 48.0506 17.7177C48.5924 18.3368 49.0046 19.0594 49.2602 19.8452C49.8059 19.1801 50.403 18.561 51.0441 17.9918C52.7552 16.3987 54.8842 15.3306 57.1799 14.9136C58.0221 14.7927 58.875 14.7657 59.7231 14.8331L60.2592 14.8523C61.5427 14.9012 62.8037 15.2068 63.9682 15.7512C65.4459 16.3892 66.7017 17.4539 67.576 18.8102C67.7611 18.5035 67.9614 18.1969 68.1713 17.9036C69.4305 16.1518 71.0064 15.1187 72.8571 14.8293C73.6769 14.6739 74.5199 14.6904 75.3332 14.8777C76.1464 15.0651 76.9123 15.4192 77.5829 15.9179C78.3744 16.5344 78.9709 17.3682 79.3 18.3184C79.6292 19.2686 79.6769 20.2943 79.4374 21.2712C79.3668 21.6066 79.2924 21.9439 79.218 22.2794C79.5194 21.6354 79.8266 20.9856 80.1471 20.3435C81.1182 18.3789 82.3984 17.0373 84.0583 16.2457C85.0729 15.7377 86.2061 15.5169 87.3362 15.6071C88.4663 15.6972 89.5506 16.0949 90.4726 16.7574C91.3102 17.3324 92.3348 18.4499 92.4759 20.5333C92.5215 21.7893 92.3292 23.0427 91.9093 24.2267L91.6613 25.0374L91.8158 24.6809C92.1306 23.9603 92.4492 23.2377 92.7717 22.5247C93.7561 20.3301 94.7654 18.0895 97.4651 16.4124C98.061 16.0244 98.6984 15.7049 99.3653 15.4599C101.456 14.7469 105.772 14.9232 107.296 17.7024C108.109 16.9568 109.027 16.3367 110.021 15.8624C111.375 15.1875 112.866 14.8372 114.377 14.8389L114.518 14.8427C115.672 14.8109 116.824 14.9577 117.933 15.2778C118.647 15.4982 119.312 15.8509 119.898 16.3166C121.558 15.7244 123.67 15.7608 125.227 16.9932C125.534 17.2385 125.809 17.526 126.042 17.8442C126.515 17.0967 127.053 16.3894 127.648 15.7359C128.316 14.9884 129.121 14.3808 130.02 13.9438C129.684 13.1422 129.434 12.3069 129.275 11.4521C129.104 10.6371 129.005 9.80841 128.98 8.97577V8.91252C128.938 7.34937 129.402 5.81485 130.302 4.53869C130.856 3.74125 131.588 3.08572 132.441 2.62496C133.293 2.16419 134.241 1.91107 135.209 1.88602C136.58 1.81843 137.945 2.11737 139.164 2.75235C140.312 3.38353 141.215 4.38517 141.727 5.59545C142.239 6.80574 142.331 8.15398 141.986 9.42235Z" fill="black" stroke="white" stroke-width="1.959"/>
<path d="M141.986 9.42235V9.43002C141.318 12.1134 139.404 14.0588 138.029 15.2854L137.995 15.3161C137.781 15.502 137.556 15.6784 137.321 15.8394C137.422 16.0502 137.51 16.2649 137.577 16.4872L137.588 16.5274C137.851 17.411 137.916 18.3425 137.785 19.2568C137.534 20.7827 137.123 22.2776 136.56 23.7169C136.312 24.4164 136.075 25.0777 135.892 25.7294C135.394 27.4697 134.824 29.5282 134.366 31.6327C134.039 33.1672 133.924 34.7395 134.024 36.3055C134.084 36.9973 133.96 37.6927 133.665 38.3208C133.371 38.949 132.916 39.4877 132.347 39.882C131.242 40.7391 130.003 41.4062 128.68 41.8562C126.501 42.5232 124.979 41.9424 124.088 41.3368C123.941 41.2378 123.801 41.1296 123.668 41.0129C122.567 41.7067 121.337 42.1629 120.051 42.3507C119.536 42.4274 119.019 42.4676 118.5 42.4714C117.491 42.5004 116.488 42.3146 115.556 41.9261C114.624 41.5376 113.784 40.9553 113.093 40.2174C112.91 40.025 112.738 39.8228 112.578 39.6118C112.095 39.9606 111.585 40.2749 111.057 40.549C109.564 41.3434 107.858 41.6401 106.186 41.3962C104.775 41.2398 103.439 40.6752 102.342 39.7709C101.081 38.6476 100.256 37.1137 100.01 35.4392C99.9318 35.0231 99.8789 34.6026 99.8519 34.1799C99.1078 35.2475 98.3046 36.248 97.5299 37.1891C96.095 39.0117 94.2749 40.4912 92.2012 41.5208C90.0486 42.5772 87.5814 42.7897 85.2813 42.1169C84.0125 41.8022 82.8017 41.2865 81.6944 40.5893C81.1069 40.2047 80.5775 39.7374 80.1223 39.2016C79.6701 39.6712 79.218 40.1024 78.7868 40.5184C78.5235 40.7714 78.2564 41.0244 77.9969 41.2812C77.5924 41.6829 77.1118 41.9992 76.5836 42.2112C76.0553 42.4232 75.4901 42.5267 74.9214 42.5155C74.62 42.5155 74.3185 42.4906 74.019 42.4408C72.703 42.2451 71.4186 41.8752 70.1994 41.3406L70.1612 41.3214C68.9281 40.7701 67.8742 39.8814 67.12 38.7569C65.9772 39.6954 64.7184 40.4813 63.3748 41.0953C62.0408 41.7432 60.6052 42.1544 59.1317 42.3104C57.8343 42.4561 56.5293 42.5079 55.2262 42.4638C53.0423 42.3836 50.9218 41.7049 49.0942 40.5011C47.1833 39.1944 45.8192 37.2256 45.2632 34.9715C45.2536 34.9236 45.2384 34.8757 45.2269 34.8278C44.5973 35.1191 43.9372 35.3357 43.258 35.4699C41.489 35.8608 39.6453 35.7304 37.9483 35.0942C37.0558 34.7543 36.2639 34.1923 35.6468 33.4608C35.0298 32.7292 34.6078 31.8522 34.4206 30.912C33.0366 32.899 31.7756 34.9698 30.6449 37.1124C30.5266 37.3329 30.4083 37.6012 30.2786 37.8791C30.0251 38.4637 29.7339 39.0309 29.4067 39.5773C28.8475 40.5123 28.0522 41.2821 27.1012 41.8086C26.1502 42.3351 25.0776 42.5995 23.9921 42.5749H23.973C22.8172 42.6087 21.6708 42.3573 20.6342 41.8428C20.5171 41.7802 20.4025 41.7131 20.2907 41.6415C20.1306 41.7237 19.9691 41.8029 19.8061 41.8792C18.3185 42.6322 16.7115 43.1186 15.0574 43.3167L14.7903 43.3474C14.1073 43.4144 13.3555 43.4892 12.5638 43.4892C12.3386 43.4892 12.1078 43.4815 11.8788 43.47C9.60074 43.3733 7.41266 42.5495 5.63238 41.1183C3.83347 39.6398 2.60305 37.5783 2.15238 35.2878C1.83116 33.7391 1.78273 32.1459 2.00929 30.5804C2.34127 28.2996 3.07771 26.0993 4.18048 24.0791C5.02186 22.4653 6.02541 20.9415 7.17587 19.5309C8.42826 17.9978 9.91141 16.6708 11.5717 15.5979C12.9166 14.717 14.4204 14.1094 15.998 13.8096C18.1482 13.4071 20.2144 13.9246 22.3265 15.3928C23.4208 16.1451 24.3617 17.1008 25.0986 18.2084C26.541 16.1824 28.3478 15.0114 30.4674 14.7354C31.5381 14.5599 32.6365 14.7151 33.6174 15.1806C34.5982 15.6461 35.4152 16.3998 35.9603 17.342C36.5701 16.9216 37.214 16.5536 37.8853 16.2419C39.2943 15.5438 40.852 15.203 42.4223 15.249C44.8453 15.3564 46.6884 16.1633 48.0506 17.7177C48.5924 18.3368 49.0046 19.0594 49.2602 19.8452C49.8059 19.1801 50.403 18.561 51.0441 17.9918C52.7552 16.3987 54.8842 15.3306 57.1799 14.9136C58.0221 14.7927 58.875 14.7657 59.7231 14.8331L60.2592 14.8523C61.5427 14.9012 62.8037 15.2068 63.9682 15.7512C65.4459 16.3892 66.7017 17.4539 67.576 18.8102C67.7611 18.5035 67.9614 18.1969 68.1713 17.9036C69.4305 16.1518 71.0064 15.1187 72.8571 14.8293C73.6769 14.6739 74.5199 14.6904 75.3332 14.8777C76.1464 15.0651 76.9123 15.4192 77.5829 15.9179C78.3744 16.5344 78.9709 17.3682 79.3 18.3184C79.6292 19.2686 79.6769 20.2943 79.4374 21.2712C79.3668 21.6066 79.2924 21.9439 79.218 22.2794C79.5194 21.6354 79.8266 20.9856 80.1471 20.3435C81.1182 18.3789 82.3984 17.0373 84.0583 16.2457C85.0729 15.7377 86.2061 15.5169 87.3362 15.6071C88.4663 15.6972 89.5506 16.0949 90.4726 16.7574C91.3102 17.3324 92.3348 18.4499 92.4759 20.5333C92.5215 21.7893 92.3292 23.0427 91.9093 24.2267L91.6613 25.0374L91.8158 24.6809C92.1306 23.9603 92.4492 23.2377 92.7717 22.5247C93.7561 20.3301 94.7654 18.0895 97.4651 16.4124C98.061 16.0244 98.6984 15.7049 99.3653 15.4599C101.456 14.7469 105.772 14.9232 107.296 17.7024C108.109 16.9568 109.027 16.3367 110.021 15.8624C111.375 15.1875 112.866 14.8372 114.377 14.8389L114.518 14.8427C115.672 14.8109 116.824 14.9577 117.933 15.2778C118.647 15.4982 119.312 15.8509 119.898 16.3166C121.558 15.7244 123.67 15.7608 125.227 16.9932C125.534 17.2385 125.809 17.526 126.042 17.8442C126.515 17.0967 127.053 16.3894 127.648 15.7359C128.316 14.9884 129.121 14.3808 130.02 13.9438C129.684 13.1422 129.434 12.3069 129.275 11.4521C129.104 10.6371 129.005 9.80841 128.98 8.97577V8.91252C128.938 7.34937 129.402 5.81485 130.302 4.53869C130.856 3.74125 131.588 3.08572 132.441 2.62496C133.293 2.16419 134.241 1.91107 135.209 1.88602C136.58 1.81843 137.945 2.11737 139.164 2.75235C140.312 3.38353 141.215 4.38517 141.727 5.59545C142.239 6.80574 142.331 8.15398 141.986 9.42235Z" fill="#262626"/>
<path d="M139.286 8.75532C138.842 10.5436 137.518 12.0117 136.18 13.202C135.706 13.6113 135.172 13.9455 134.597 14.1929C133.902 14.5015 133.435 14.306 133.017 13.6754C132.499 12.8246 132.15 11.8807 131.99 10.8962C131.85 10.2393 131.769 9.57077 131.75 8.89907C131.713 7.92659 131.992 6.96842 132.546 6.16974C132.854 5.71707 133.266 5.34513 133.746 5.08503C134.227 4.82494 134.762 4.68425 135.308 4.67474C136.194 4.62682 137.079 4.81466 137.869 5.22291C139.137 5.88416 139.62 7.40407 139.286 8.75532ZM134.927 17.3247C134.635 16.3913 133.78 16.2246 132.954 16.146C131.599 16.0233 130.539 16.7076 129.682 17.6333C128.978 18.4249 128.363 19.2928 127.85 20.2208C126.778 22.0857 126.126 24.1442 125.5 26.1893C125.093 27.5176 124.737 28.6867 124.231 30.4137C123.93 31.4333 123.592 33.0069 122.651 33.8023C122.416 34.0202 122.109 34.1431 121.789 34.1473C121.396 34.0917 121.255 33.6758 121.238 33.2887C121.216 32.8616 121.214 32.4336 121.234 32.0064C121.341 30.6954 121.615 29.4036 122.045 28.1616C122.674 26.1184 123.352 24.0867 123.96 22.0359C124.222 21.3267 124.235 20.5505 123.994 19.8337C123.891 19.5813 123.725 19.3592 123.514 19.1877C122.667 18.5169 121.129 18.63 120.202 19.251C119.894 19.4618 119.591 19.6822 119.269 19.9046C119.198 19.7896 119.143 19.7072 119.091 19.6171C118.884 19.2178 118.601 18.8635 118.257 18.5747C117.913 18.2859 117.516 18.0683 117.088 17.9342C116.192 17.6961 115.266 17.5934 114.341 17.6295C113.251 17.6351 112.178 17.8935 111.204 18.3847C109.675 19.162 108.373 20.3251 107.426 21.7599C106.377 23.1974 105.442 24.7192 104.637 26.3062C103.798 27.9047 103.183 29.6125 102.819 31.3816C102.695 32.0294 102.62 32.6849 102.597 33.3442C102.59 33.879 102.639 34.4118 102.741 34.9351C102.874 35.9777 103.37 36.9399 104.139 37.6491C104.843 38.2107 105.692 38.5537 106.587 38.64C107.68 38.8007 108.795 38.6052 109.769 38.0822C110.826 37.5233 111.777 36.7818 112.578 35.8915C112.915 35.5273 113.27 35.1785 113.656 34.776C113.699 35.0098 113.732 35.1593 113.755 35.3088C113.892 36.4205 114.365 37.4632 115.106 38.3007C116.355 39.6232 117.958 39.8437 119.646 39.5945C120.575 39.456 121.464 39.1215 122.254 38.6132C122.667 38.3487 123.876 36.9227 124.351 37.2926C124.931 37.7468 124.99 38.5882 125.639 39.0272C125.976 39.2196 126.351 39.3343 126.738 39.3628C127.124 39.3913 127.512 39.333 127.873 39.192C128.906 38.8227 129.873 38.2894 130.737 37.6127C130.925 37.4886 131.073 37.3131 131.164 37.1068C131.256 36.9006 131.286 36.6724 131.252 36.4492C131.143 34.6342 131.277 32.8133 131.653 31.0347C132.099 28.9953 132.649 26.9752 133.221 24.9684C133.799 22.9233 134.749 20.9875 135.039 18.8562C135.113 18.3429 135.075 17.8215 134.927 17.3247ZM116.256 23.7494C115.668 26.2415 114.519 28.5652 112.898 30.5421C112.335 31.2947 111.657 31.9521 110.887 32.4894C110.429 32.7961 109.987 32.9072 109.735 32.3418C109.666 32.1863 109.622 32.0206 109.605 31.8512C109.506 30.8794 109.983 29.8693 110.313 28.9838C110.675 27.9872 111.082 27.0116 111.53 26.0571C112.179 24.6771 112.936 23.3546 114.121 22.3617C114.508 22.0685 114.94 21.8385 115.398 21.6775C115.712 21.551 116.082 21.8347 116.226 22.1835C116.399 22.6895 116.409 23.2377 116.256 23.7494Z" fill="#FF5A50"/>
<path d="M46.8329 28.9129C46.1746 30.9695 44.862 32.3054 42.708 32.7386C41.4548 33.0251 40.1458 32.9399 38.9399 32.4932C38.4001 32.286 37.9338 31.9222 37.6003 31.4482C37.2667 30.9742 37.0808 30.4113 37.0664 29.831C36.9786 28.2804 37.5968 26.9426 38.3141 25.6335C38.6137 25.0911 38.9246 24.5525 39.1727 23.9851C39.2795 23.6976 39.3196 23.3948 39.291 23.092C39.276 22.9914 39.2384 22.8955 39.1811 22.8117C39.1238 22.7278 39.0483 22.6581 38.9603 22.6079C38.8723 22.5577 38.774 22.5282 38.673 22.5218C38.5719 22.5153 38.4707 22.532 38.3771 22.5706C37.8429 22.8198 37.3468 23.1399 36.8966 23.5232C35.0955 25.185 33.6474 27.1457 32.2527 29.1582C30.7606 31.2867 29.4034 33.5074 28.1889 35.8071C27.794 36.5642 27.4964 37.3826 27.0499 38.1033C26.738 38.6375 26.2875 39.0765 25.7464 39.3732C25.2053 39.67 24.5941 39.8134 23.9782 39.7881C23.2685 39.8199 22.5618 39.6771 21.9196 39.3721C21.4235 39.103 21.0437 38.6593 20.8531 38.1263C20.1166 38.5384 19.3878 38.9965 18.6189 39.3606C17.4169 39.974 16.1196 40.3765 14.7841 40.5471C13.8752 40.6659 12.9585 40.7127 12.0424 40.687C10.3436 40.6253 8.70933 40.018 7.37951 38.9543C6.07003 37.8759 5.17877 36.3701 4.86109 34.6993C4.60894 33.464 4.57471 32.1937 4.75998 30.9465C5.04732 28.9936 5.68126 27.1084 6.63162 25.3805C7.38715 23.9334 8.28767 22.5668 9.31794 21.3037C10.3875 19.9936 11.6536 18.8588 13.0708 17.94C14.1174 17.2567 15.2864 16.7847 16.5126 16.5504C18.1 16.2533 19.4698 16.8034 20.7424 17.687C21.6296 18.2907 22.3775 19.0766 22.9365 19.9927C23.4516 20.9261 23.589 22.0244 23.3181 23.0556C23.0434 24.1826 22.64 25.274 22.1161 26.3081C21.6353 27.3815 21.1583 28.451 20.6661 29.5186C20.5844 29.7503 20.4147 29.94 20.1941 30.0464C19.9735 30.1527 19.7199 30.1669 19.4889 30.0859C18.8028 29.8677 18.1855 29.4728 17.6984 28.9405C17.2114 28.4082 16.8716 27.757 16.7129 27.0518C16.5985 26.0417 16.7606 25.0201 17.1861 24.0963C17.6268 22.9559 18.1343 21.8404 18.6227 20.723C18.668 20.6478 18.6975 20.5642 18.7096 20.4772C18.7216 20.3902 18.7158 20.3017 18.6926 20.217C18.6693 20.1323 18.6292 20.0533 18.5745 19.9848C18.5199 19.9162 18.4519 19.8596 18.3747 19.8183C17.8138 19.9486 17.3063 20.2476 16.9171 20.6731C16.2283 21.3574 15.5758 22.0781 14.9558 22.8256C13.7033 24.3968 12.6349 26.1075 11.7715 27.9239C11.2312 28.9676 10.8945 30.1054 10.7794 31.2761C10.6649 32.177 10.6954 33.0874 10.8652 33.9786C10.9592 34.5448 11.244 35.0614 11.6719 35.4417C12.0999 35.8221 12.6449 36.0431 13.2158 36.0678C15.4051 36.1911 17.5783 35.6263 19.4336 34.4521C20.1395 33.9633 20.8187 33.4362 21.4674 32.8746C21.5862 32.7623 21.6754 32.622 21.7269 32.4664C22.3832 30.7069 22.9975 28.934 23.692 27.1956C24.2033 25.9037 24.81 24.6502 25.3805 23.3871C25.9166 22.1451 26.5729 20.9606 27.3418 19.8471C28.208 18.6242 29.2993 17.6985 30.8199 17.5011C32.0448 17.342 33.1743 17.7541 33.7581 19.1456C34.2732 20.3684 33.9775 21.5414 33.5806 22.7182C33.4776 23.0191 33.3784 23.3201 33.2487 23.7072C33.9622 22.9252 34.5689 22.1816 35.2539 21.528C36.3561 20.4051 37.6366 19.4744 39.0429 18.7737C40.0504 18.2666 41.1654 18.0128 42.2921 18.0339C43.6887 18.0971 44.9898 18.4498 45.9686 19.5615C46.3941 20.0636 46.6745 20.6731 46.7775 21.3248C47.0065 22.5323 46.6077 23.6171 46.1632 24.702C45.835 25.507 45.4973 26.3081 45.2493 27.1381C45.0509 27.8108 45.4058 28.2881 46.1155 28.4682C46.2739 28.5104 46.4341 28.5372 46.5963 28.5468C46.8596 28.5583 46.8958 28.7078 46.8348 28.911L46.8329 28.9129ZM104.915 19.1475C104.331 17.8326 101.452 17.6946 100.263 18.101C99.7934 18.2776 99.3447 18.5072 98.926 18.7852C96.938 20.0215 96.2321 21.6066 95.2991 23.6785C94.3738 25.7236 93.5229 27.8051 92.5327 29.8176C91.8735 31.1107 91.1237 32.3552 90.289 33.5416C89.812 34.3141 89.0527 34.8641 88.175 35.075C87.6523 35.1785 87.4386 34.9427 87.2535 34.4866C87.0831 34.0665 86.9795 33.6222 86.9464 33.1698C86.8721 31.8712 87.039 30.57 87.4386 29.3326C88.0262 27.3508 88.6596 25.3843 89.2549 23.4063C89.5697 22.5476 89.7223 21.6372 89.7071 20.723C89.7109 20.4037 89.641 20.0878 89.503 19.8002C89.365 19.5126 89.1625 19.2609 88.9115 19.0651C88.3884 18.6809 87.7698 18.4495 87.124 18.3964C86.4783 18.3432 85.8304 18.4705 85.2521 18.7641C84.0235 19.3506 83.2202 20.3991 82.6307 21.5893C81.7989 23.2626 81.0471 24.9761 80.2325 26.657C79.6735 27.8204 79.0706 28.9646 78.4868 30.1146C77.7456 31.6942 76.8543 33.1981 75.8252 34.6054C75.6631 34.8124 75.3731 35.1037 75.188 35.0692C74.9667 35.0366 74.7873 34.6974 74.6004 34.4866C74.568 34.4477 74.5452 34.4017 74.5336 34.3524C74.251 33.3282 74.2015 32.2532 74.3886 31.2071C74.5794 30.0246 74.8141 28.8458 75.085 27.6805C75.6192 25.3479 76.2259 23.0326 76.7258 20.6885C76.8545 20.2282 76.8444 19.7399 76.6966 19.2854C76.5489 18.8309 76.2702 18.4307 75.8958 18.1355C75.5223 17.8674 75.0975 17.6801 74.6483 17.5854C74.199 17.4907 73.7351 17.4907 73.2858 17.5854C72.0533 17.7771 71.149 18.5284 70.424 19.5327C69.5407 20.768 68.9145 22.1695 68.5829 23.6536C68.2967 24.8802 68.1097 26.128 67.9056 27.3776C67.814 27.9526 67.8102 28.5411 67.7396 29.1256C67.7194 29.2873 67.6509 29.439 67.5431 29.5607C67.0508 30.0782 66.551 30.5823 66.0358 31.0768C65.0628 32.0198 63.9467 32.8018 62.7295 33.396C61.9363 33.8232 61.0609 34.0737 60.1627 34.1303C59.2645 34.1868 58.3647 34.0482 57.5247 33.7237C56.9815 33.5177 56.4992 33.1767 56.1229 32.7325C55.7465 32.2884 55.4884 31.7557 55.3726 31.1841C56.0938 31.1841 56.7883 31.1918 57.4846 31.1841C59.131 31.1659 60.7475 30.7407 62.1914 29.946C63.5527 29.2502 64.6594 28.139 65.3528 26.772C66.135 25.2463 66.3258 23.4811 65.8813 21.8231C65.6838 21.0388 65.3063 20.3117 64.7788 19.7003C64.2514 19.0889 63.5887 18.6101 62.8439 18.3022C62.0107 17.9062 61.1071 17.6814 60.1862 17.641C59.339 17.5674 58.4867 17.5758 57.6411 17.6659C55.859 17.9994 54.2089 18.8372 52.8847 20.0809C51.4777 21.3525 50.315 22.8726 49.4543 24.5659C48.4613 26.4457 47.8473 28.5039 47.6475 30.6226C47.5293 31.8339 47.6285 33.0567 47.9414 34.2336C48.3229 35.8436 49.2883 37.2523 50.6468 38.1896C52.0586 39.1096 53.6937 39.6271 55.3745 39.6807C56.5473 39.7158 57.721 39.6671 58.8869 39.5351C60.05 39.4022 61.1818 39.0703 62.2334 38.5537C63.9651 37.7585 65.5262 36.6323 66.8295 35.2379C67.2359 34.8086 67.6251 34.3601 67.9742 33.9691C68.3062 34.7836 68.6058 35.627 68.9854 36.4301C69.4471 37.4746 70.2733 38.3122 71.3073 38.7837C72.309 39.2246 73.3641 39.5274 74.4458 39.6865C74.7248 39.7594 75.0174 39.7621 75.2976 39.6942C75.5778 39.6263 75.8371 39.49 76.0523 39.2974C76.7658 38.5901 77.5099 37.9097 78.2063 37.1852C78.5955 36.7521 78.9618 36.2997 79.3052 35.8282C79.8127 35.1766 80.3107 34.5153 80.8411 33.8234C80.8983 34.1626 80.9403 34.4482 81.0033 34.7319C81.3333 36.1694 81.9439 37.4191 83.2202 38.2643C84.0864 38.7991 85.0327 39.192 86.021 39.4316C87.6756 39.9222 89.4531 39.7717 91.0025 39.0099C92.7107 38.1518 94.2086 36.9245 95.3888 35.4161C96.3354 34.2955 97.2189 33.1226 98.035 31.9029C99.2698 29.9835 100.451 28.0297 101.576 26.0436C102.152 25.0355 102.713 24.0177 103.268 22.9981C103.724 22.1662 104.942 20.6981 105.014 19.7646C105.034 19.5538 105 19.3414 104.915 19.1475ZM55.8668 26.4308C56.2483 25.3824 56.8245 24.4183 57.5629 23.5865C58.0074 23.0268 58.6217 22.6281 59.3124 22.4556C59.5417 22.4178 59.7769 22.4388 59.9959 22.5168C60.215 22.5947 60.4108 22.7271 60.5652 22.9016C60.7197 23.076 60.8277 23.2869 60.8791 23.5146C60.9306 23.7422 60.9239 23.9793 60.8597 24.2036C60.3312 26.4634 58.8392 27.7418 56.67 28.2996C56.1969 28.3796 55.7187 28.4257 55.2391 28.4376C55.468 27.6939 55.6454 27.0537 55.8687 26.4289L55.8668 26.4308Z" fill="white"/>
</svg>
