<svg width="254" height="46" viewBox="0 0 254 46" fill="none" xmlns="http://www.w3.org/2000/svg">
<path d="M22.9997 0L8.78375 12.6174C2.59292 18.1163 2.59292 27.8837 8.78375 33.3826L22.9997 46L37.2156 33.3826C43.4064 27.8837 43.4064 18.1163 37.2156 12.6174L22.9997 0Z" fill="url(#paint0_linear_535_915)"/>
<path fill-rule="evenodd" clip-rule="evenodd" d="M80.9201 42.1667C90.6625 42.1667 97.5225 36.3208 98.5909 28.0715H90.9488C89.5921 33.6298 85.6549 35.7631 80.8163 35.7631C74.9613 35.7631 70.1747 30.3236 70.1747 20.8878C70.1747 11.4521 74.9594 6.40358 81.0892 6.40358C85.5895 6.40358 89.423 8.25125 90.9353 13.9246H98.5909C97.2342 5.45292 90.7124 0 81.143 0C69.2754 0 61.8428 7.86025 61.8428 20.8878C61.8428 33.9154 68.7662 42.1667 80.9201 42.1667ZM117.651 18.5342C118.771 18.5342 119.738 18.5342 120.86 18.7028V11.4138C120.302 11.3426 119.739 11.3042 119.177 11.2988C115.629 11.2988 112.932 12.7554 111.183 16.5159V11.2317H103.527V41.4518H111.287V25.6124C111.287 19.9391 113.829 18.5342 117.651 18.5342ZM143.486 37.4555C141.738 40.5413 138.427 42.1667 134.659 42.1667C127.395 42.1667 124.474 37.7296 124.474 30.3236V11.2336H132.232V28.6446C132.232 32.6926 132.847 35.9471 137.189 35.9471C142.364 35.9471 143.486 31.7304 143.486 26.9656V11.2451H151.246V41.4518H143.486V37.4555ZM168.797 16.0023C172.398 16.0023 174.654 17.7982 175.267 20.3243H182.544C181.476 13.3611 175.725 10.4458 169.205 10.4458C162.685 10.4458 156.83 13.9208 156.83 19.4254C156.83 24.9301 160.598 27.2857 166.284 28.4721L170.782 29.4208C173.43 30.0457 175.738 30.9427 175.738 33.1296C175.738 35.3146 173.663 36.5527 170.287 36.5527C166.232 36.5527 164.197 34.3524 163.753 31.4372H156.269C156.999 38.3487 162.619 42.1609 170.052 42.1609C176.912 42.1609 183.157 38.6208 183.157 32.3859C183.157 26.1548 178.046 24.6426 172.022 23.2913L167.967 22.3924C165.096 21.781 163.911 20.5448 163.911 18.9175C163.911 17.0698 165.932 16.0042 168.799 16.0042L168.797 16.0023ZM186.222 26.3887C186.222 15.7703 193.76 10.5513 201.414 10.5513C209.07 10.5513 216.606 15.7684 216.606 26.3887C216.606 37.007 209.07 42.1628 201.414 42.1628C193.76 42.1628 186.222 36.9418 186.222 26.3887ZM194.099 26.3887C194.099 32.7386 197.137 36.0966 201.414 36.0966C205.691 36.0966 208.729 32.7271 208.729 26.3887C208.729 20.0503 205.691 16.6137 201.414 16.6137C197.137 16.6137 194.099 20.0368 194.099 26.3887ZM235.401 36.1637C231.684 36.1637 228.191 33.6375 227.747 28.4702L227.761 28.4568H250.099C250.387 17.8001 244.192 10.5513 235.247 10.5513C226.302 10.5513 220.055 17.526 220.055 26.22C220.055 34.9121 225.741 42.1609 235.468 42.1609C243.737 42.1609 248.131 37.1642 249.761 32.6734H241.767C240.189 35.3165 237.828 36.1618 235.403 36.1618L235.401 36.1637ZM242.209 23.1342H227.866C228.493 18.0205 232.261 16.2246 235.182 16.2246C238.443 16.2246 242.04 18.0205 242.209 23.1342Z" fill="black"/>
<defs>
<linearGradient id="paint0_linear_535_915" x1="36.2611" y1="10.7237" x2="9.30125" y2="35.0769" gradientUnits="userSpaceOnUse">
<stop stop-color="#F4BF45"/>
<stop offset="0.35" stop-color="#E48047"/>
<stop offset="0.69" stop-color="#C73361"/>
<stop offset="1" stop-color="#A42F5F"/>
</linearGradient>
</defs>
</svg>
