<svg width="46" height="46" viewBox="0 0 46 46" fill="none" xmlns="http://www.w3.org/2000/svg">
<path d="M41.8239 18.9635L23.0214 29.6872L2.88491 18.2294L1.91699 18.7584V27.0767L23.0195 39.0674L41.8239 28.3839V32.7865L23.0214 43.5122L2.88491 32.0524L1.91699 32.5833V34.0113L23.0195 46L44.0837 34.0113V25.6929L43.1157 25.162L23.0214 36.5796L4.17674 25.8961V21.4916L23.0214 32.1751L44.0837 20.1863V11.9887L43.0352 11.3773L23.0214 22.7547L5.14466 12.6423L23.0214 2.48783L37.7088 10.8483L38.9987 10.1142V9.09458L23.0214 0L1.91699 11.9887V13.294L23.0195 25.2827L41.8239 14.559V18.9635Z" fill="#EE3D2C"/>
</svg>
