<svg width="46" height="46" viewBox="0 0 46 46" fill="none" xmlns="http://www.w3.org/2000/svg">
<g clip-path="url(#clip0_535_882)">
<path fill-rule="evenodd" clip-rule="evenodd" d="M44.1485 32.6977C44.1811 32.6325 44.2137 32.5654 44.2137 32.5002C44.4724 31.8352 44.7312 31.0378 44.8615 30.3727C46.5482 24.3927 46.6785 16.6877 40.5835 8.44991C40.4302 8.29275 40.3248 8.1375 40.2347 8.00908C40.1714 7.91708 40.1197 7.84041 40.0641 7.78483C41.6204 6.58883 43.5658 6.19016 44.9918 6.19016C45.77 6.19016 46.1591 5.26058 45.6397 4.72775C40.5835 -0.851669 35.0079 -0.719419 31.1171 1.40616C24.7653 -0.985836 17.8921 -0.188503 13.7425 2.73633C6.6125 7.65258 6.6125 13.232 10.2427 18.4147C9.58094 19.6693 9.10081 21.0116 8.81667 22.4013C8.556 23.7296 10.1123 24.6592 11.0208 23.7296C12.8359 22.0027 15.1704 19.8771 16.3358 19.0797C19.1897 16.9522 21.0048 16.1549 23.598 15.7582H23.7264C24.6349 15.624 25.4131 15.4917 26.3197 15.4917C29.8074 15.4896 33.1851 16.7123 35.8632 18.9466C38.5412 21.1808 40.3496 24.2846 40.9726 27.7162L41.0109 28.0382C41.1259 28.9717 41.2313 29.8188 41.2313 30.7714V31.4365L40.8423 30.2405C39.2859 27.1853 36.3055 24.9256 32.6734 24.9256C32.6734 25.8571 32.6734 26.9189 32.545 27.8485C32.0256 32.8989 29.0433 36.8856 25.024 39.1434C24.8937 39.1434 24.8937 39.2776 24.7653 39.2776C24.3762 39.4098 23.8568 39.6743 23.4677 39.8085C23.3634 39.8617 23.2551 39.9066 23.1438 39.9427C23.0479 39.9733 22.9502 40.0078 22.8179 40.073C21.4998 40.6042 20.0913 40.8749 18.6703 40.8703H17.8921C16.9855 40.8703 15.9467 40.8703 15.0401 40.6039C12.9643 40.2072 11.1493 39.2757 9.59292 38.0797C8.68633 37.4165 7.90817 36.6192 7.13 35.6896C10.5033 41.0045 16.077 44.857 22.6895 45.7866C24.1463 46.0285 25.629 46.0736 27.0978 45.9207C28.3188 45.7635 29.5306 45.5415 30.728 45.2557C31.8973 44.9969 33.0302 44.5952 34.1013 44.0597C35.0079 43.661 35.7861 43.2623 36.5643 42.7314C36.5643 42.7314 36.6083 42.6854 36.6716 42.6471C36.7175 42.6178 36.7705 42.6012 36.8249 42.5992C37.0818 42.3308 37.4708 42.2005 37.7315 41.9341C38.3295 41.4434 38.8163 40.9527 39.2955 40.464L39.2859 40.4736C39.675 40.073 39.9357 39.6743 40.3248 39.2757C40.9688 38.4841 41.6128 37.5583 42.2587 36.6345L42.2683 36.6192C42.918 35.4232 43.5658 34.2272 44.0833 32.8989C44.0833 32.8318 44.1159 32.7647 44.1485 32.6996V32.6977ZM5.70592 27.8485V33.6943H0V27.8485H5.70592Z" fill="black"/>
</g>
<defs>
<clipPath id="clip0_535_882">
<rect width="46" height="46" fill="white"/>
</clipPath>
</defs>
</svg>
