<svg width="404" height="46" viewBox="0 0 404 46" fill="none" xmlns="http://www.w3.org/2000/svg">
<g clip-path="url(#clip0_535_912)">
<path fill-rule="evenodd" clip-rule="evenodd" d="M11.477 3.10883C9.75232 4.79567 8.42188 6.84293 7.58091 9.10407C6.73994 11.3652 6.40925 13.7843 6.6125 16.1882C7.28142 24.6368 15.249 31.5119 22.4748 31.5119C29.1966 31.5119 31.8282 25.645 31.1784 21.6602C30.9385 20.1966 30.3096 18.8243 29.3576 17.687C30.5689 18.3387 31.7419 19.1743 32.8248 20.1787C35.7382 22.8907 37.5015 26.3676 37.7832 29.9537C38.41 37.8791 32.545 46 22.7374 46C19.4887 46 16.0674 45.172 13.1924 43.8092C5.39733 40.1292 0 32.1942 0 23.0038C0 14.5111 4.60958 7.09167 11.477 3.10883ZM23.2607 0C26.5113 0 29.9326 0.828 32.8057 2.19075C40.6065 5.87075 46 13.8057 46 22.9962C46 31.4889 41.3904 38.9102 34.523 42.8912C36.2477 41.2043 37.5781 39.1571 38.4191 36.8959C39.2601 34.6348 39.5907 32.2157 39.3875 29.8118C38.7186 21.3632 30.751 14.4881 23.5252 14.4881C16.8034 14.4881 14.1718 20.355 14.8216 24.3398C15.0616 25.8045 15.6926 27.1772 16.6482 28.313C15.39 27.6342 14.2241 26.7968 13.179 25.8213C10.2657 23.1092 8.50233 19.6362 8.21675 16.0463C7.59 8.12092 13.455 0 23.2626 0H23.2607Z" fill="#4285F4"/>
</g>
<g clip-path="url(#clip1_535_912)">
<path fill-rule="evenodd" clip-rule="evenodd" d="M215.868 32.5833V2.392H225.078C229.675 2.392 233.37 3.7835 236.159 6.5665C238.95 9.3495 240.344 12.9892 240.344 17.4877C240.344 22.0129 238.948 25.6603 236.159 28.4299C233.369 31.1995 229.675 32.5833 225.078 32.5833H215.868ZM219.737 6.10267V28.8727H225.078C228.582 28.8727 231.344 27.8683 233.363 25.8578C235.381 23.8472 236.391 21.0584 236.391 17.4877C236.391 13.9457 235.381 11.1627 233.363 9.13867C231.344 7.11467 228.584 6.10267 225.078 6.10267H219.737ZM253.507 33.258C250.479 33.258 247.983 32.2173 246.021 30.1377C244.058 28.0581 243.078 25.4284 243.078 22.2525C243.078 19.1034 244.031 16.4833 245.937 14.3884C247.843 12.2935 250.282 11.247 253.255 11.247C256.312 11.247 258.743 12.2379 260.551 14.2198C262.36 16.2016 263.264 18.9769 263.264 22.5477L263.222 22.9693H247.031C247.088 24.9933 247.759 26.6244 249.049 27.8607C249.66 28.4616 250.383 28.9351 251.177 29.2536C251.971 29.5721 252.82 29.7292 253.675 29.716C256.141 29.716 258.078 28.4798 259.479 26.0053L262.928 27.692C262.048 29.3867 260.716 30.8028 259.08 31.7822C257.439 32.7654 255.581 33.258 253.507 33.258ZM247.325 19.7647H259.143C259.102 19.0845 258.926 18.4192 258.627 17.8075C258.327 17.1959 257.909 16.65 257.397 16.2016C256.346 15.2605 254.937 14.789 253.171 14.789C251.712 14.789 250.458 15.2394 249.407 16.1383C248.355 17.0392 247.662 18.2467 247.325 19.7647ZM276.049 33.258C273.021 33.258 270.524 32.2173 268.563 30.1377C266.6 28.0581 265.619 25.4284 265.619 22.2525C265.619 19.1034 266.573 16.4833 268.479 14.3884C270.385 12.2935 272.824 11.247 275.797 11.247C278.853 11.247 281.285 12.2379 283.093 14.2198C284.901 16.2016 285.806 18.9769 285.806 22.5477L285.764 22.9693H269.572C269.63 24.9933 270.301 26.6244 271.591 27.8607C272.201 28.4616 272.924 28.9351 273.718 29.2536C274.513 29.5721 275.362 29.7292 276.217 29.716C278.683 29.716 280.619 28.4798 282.021 26.0053L285.469 27.692C284.589 29.3867 283.257 30.8028 281.621 31.7822C279.981 32.7654 278.123 33.258 276.049 33.258ZM269.867 19.7647H281.684C281.643 19.0845 281.468 18.4192 281.168 17.8075C280.869 17.1959 280.451 16.65 279.939 16.2016C278.888 15.2605 277.479 14.789 275.712 14.789C274.254 14.789 273 15.2394 271.948 16.1383C270.897 17.0392 270.203 18.2467 269.867 19.7647ZM299.432 29.716C301.282 29.716 302.838 29.0126 304.1 27.6077C305.361 26.2296 305.992 24.4452 305.992 22.2525C305.992 20.0867 305.361 18.3042 304.1 16.8973C302.838 15.4924 301.282 14.789 299.432 14.789C297.552 14.789 295.983 15.4924 294.721 16.8973C293.488 18.3023 292.871 20.0886 292.871 22.2525C292.871 24.4452 293.488 26.2449 294.721 27.6498C295.983 29.0279 297.552 29.716 299.432 29.716ZM300.062 33.258C298.624 33.2757 297.202 32.9429 295.92 32.2882C294.672 31.6423 293.712 30.7836 293.039 29.716H292.871L293.039 32.5833V41.6913H289.17V11.9217H292.871V14.789H293.039C293.712 13.7214 294.672 12.8628 295.92 12.2168C297.202 11.5621 298.624 11.2293 300.062 11.247C302.783 11.247 305.08 12.3146 306.959 14.4517C308.894 16.6175 309.861 19.2165 309.861 22.2525C309.861 25.3173 308.894 27.9163 306.959 30.0533C305.08 32.1904 302.783 33.258 300.062 33.258ZM317.936 32.5833H314.067V2.392H317.936L328.408 20.7767H328.576L339.048 2.392H342.917V32.5833H339.048V14.6625L339.216 9.6025H339.048L329.627 26.174H327.356L317.936 9.6025H317.768L317.936 14.6625V32.5833ZM353.304 4.7955C353.304 5.5545 353.037 6.20042 352.505 6.73517C352.255 6.99416 351.954 7.19888 351.621 7.33667C351.288 7.47447 350.931 7.54242 350.571 7.53633C349.814 7.53633 349.17 7.268 348.636 6.73517C348.378 6.48376 348.174 6.18193 348.036 5.84832C347.899 5.51471 347.831 5.1564 347.837 4.7955C347.837 4.0365 348.105 3.39058 348.636 2.85583C348.887 2.59684 349.188 2.39213 349.521 2.25433C349.853 2.11653 350.211 2.04858 350.571 2.05467C351.328 2.05467 351.972 2.323 352.505 2.85583C353.039 3.39058 353.304 4.0365 353.304 4.7955ZM352.505 11.9217V32.5833H348.636V11.9217H352.505ZM357.552 11.9217H361.253V14.789H361.421C362.01 13.777 362.914 12.9337 364.134 12.259C365.295 11.5998 366.605 11.2513 367.94 11.247C370.463 11.247 372.405 11.9715 373.764 13.4186C375.123 14.8657 375.804 16.9261 375.804 19.596V32.5833H371.935V19.849C371.851 16.4757 370.155 14.789 366.846 14.789C365.303 14.789 364.015 15.4138 362.977 16.6654C361.939 17.917 361.421 19.4139 361.421 21.1562V32.5833H357.552V11.9217ZM389.598 29.716C391.504 29.716 393.06 29.026 394.266 27.6498C395.528 26.2718 396.159 24.4739 396.159 22.2525C396.159 20.0867 395.528 18.3042 394.266 16.8973C393.033 15.4924 391.475 14.789 389.598 14.789C387.748 14.789 386.192 15.4924 384.93 16.8973C383.668 18.3023 383.037 20.0886 383.037 22.2525C383.037 24.4452 383.668 26.2296 384.93 27.6077C386.192 29.0126 387.748 29.716 389.598 29.716ZM388.967 33.258C386.276 33.258 383.963 32.1904 382.028 30.0533C380.122 27.8875 379.168 25.2885 379.168 22.2525C379.168 19.2165 380.122 16.6175 382.028 14.4517C383.963 12.3146 386.276 11.247 388.967 11.247C390.481 11.247 391.861 11.5709 393.11 12.2168C394.358 12.8628 395.318 13.7214 395.99 14.789H396.159L395.99 11.9217V2.392H399.859V32.5833H396.159V29.716H395.99C395.318 30.7836 394.358 31.6423 393.11 32.2882C391.827 32.9429 390.406 33.2757 388.967 33.258ZM96.1308 16.2572H79.8497V21.1178H91.3976C90.828 27.9354 85.1907 30.843 79.8707 30.843C73.0616 30.843 67.1203 25.4533 67.1203 17.8998C67.1203 10.5417 72.7844 4.876 79.8841 4.876C85.3627 4.876 88.5914 8.38925 88.5914 8.38925L91.9749 4.86258L91.7379 4.62108C90.7324 3.63783 86.5594 0 79.7101 0C69.6245 0 61.8232 8.56367 61.8232 17.8135C61.8232 26.8774 69.1638 35.7152 79.9663 35.7152C89.4707 35.7152 96.4252 29.1659 96.4252 19.481C96.4338 18.5135 96.3583 17.547 96.1996 16.5926L96.1308 16.2572ZM109.537 17.2443C112.823 17.2443 115.935 19.918 115.935 24.2248C115.935 28.4395 112.836 31.188 109.522 31.188C105.88 31.188 103.007 28.2555 103.007 24.1922C103.007 20.2151 105.846 17.2443 109.537 17.2443ZM109.47 12.7363C102.789 12.7363 98.0003 17.9918 98.0003 24.1213C98.0003 30.3408 102.646 35.6941 109.548 35.6941C115.799 35.6941 120.919 30.8871 120.919 24.2554C120.919 16.8245 115.23 12.9164 109.845 12.742L109.47 12.7363ZM134.483 17.2443C137.771 17.2443 140.883 19.918 140.883 24.2248C140.883 28.4395 137.783 31.188 134.468 31.188C130.828 31.188 127.955 28.2555 127.955 24.1922C127.955 20.2151 130.792 17.2443 134.483 17.2443ZM134.418 12.7363C127.735 12.7363 122.949 17.9918 122.949 24.1213C122.949 30.3408 127.594 35.6941 134.495 35.6941C140.746 35.6941 145.867 30.8871 145.867 24.2554C145.867 16.8245 140.178 12.9164 134.793 12.742L134.418 12.7363ZM159.326 17.25C162.333 17.25 165.421 19.8337 165.421 24.2458C165.421 28.727 162.341 31.1995 159.261 31.1995C155.993 31.1995 152.949 28.5277 152.949 24.2861C152.949 19.8797 156.107 17.2519 159.326 17.2519V17.25ZM158.883 12.7497C152.751 12.7497 147.929 18.1547 147.929 24.219C147.929 31.1286 153.519 35.7113 158.778 35.7113C162.028 35.7113 163.758 34.4118 165.034 32.9226V35.1843C165.034 39.146 162.645 41.5169 159.038 41.5169C155.551 41.5169 153.804 38.9103 153.196 37.4306L148.813 39.2744C150.367 42.5826 153.498 46.0345 159.074 46.0345C165.172 46.0345 169.817 42.1705 169.817 34.0668V13.4397H165.034V15.3832C163.656 13.8882 161.802 12.88 159.376 12.7612L158.883 12.7497ZM191.286 17.1388C193.37 17.1388 194.871 18.2524 195.509 19.5903L185.292 23.8855C184.852 20.5601 187.983 17.1388 191.286 17.1388ZM191.088 12.7228C185.303 12.7228 180.446 17.3535 180.446 24.1864C180.446 31.4161 185.859 35.7056 191.644 35.7056C196.471 35.7056 199.434 33.0472 201.202 30.6667L197.258 28.0274C196.234 29.624 194.525 31.1861 191.667 31.1861C188.459 31.1861 186.983 29.4189 186.072 27.7073L201.37 21.3191L200.577 19.4484C199.149 15.9083 195.886 12.9337 191.556 12.7324L191.088 12.7228ZM173.155 35.0213H178.179V1.18833H173.155V35.0213Z" fill="black"/>
</g>
<defs>
<clipPath id="clip0_535_912">
<rect width="46" height="46" fill="white"/>
</clipPath>
<clipPath id="clip1_535_912">
<rect width="346" height="46" fill="white" transform="translate(58)"/>
</clipPath>
</defs>
</svg>
