<svg width="46" height="46" viewBox="0 0 46 46" fill="none" xmlns="http://www.w3.org/2000/svg">
<g clip-path="url(#clip0_535_867)">
<path fill-rule="evenodd" clip-rule="evenodd" d="M11.477 3.10883C9.75232 4.79567 8.42188 6.84293 7.58091 9.10407C6.73994 11.3652 6.40925 13.7843 6.6125 16.1882C7.28142 24.6368 15.249 31.5119 22.4748 31.5119C29.1966 31.5119 31.8282 25.645 31.1784 21.6602C30.9385 20.1966 30.3096 18.8243 29.3576 17.687C30.5689 18.3387 31.7419 19.1743 32.8248 20.1787C35.7382 22.8907 37.5015 26.3676 37.7832 29.9537C38.41 37.8791 32.545 46 22.7374 46C19.4887 46 16.0674 45.172 13.1924 43.8092C5.39733 40.1292 0 32.1942 0 23.0038C0 14.5111 4.60958 7.09167 11.477 3.10883ZM23.2607 0C26.5113 0 29.9326 0.828 32.8057 2.19075C40.6065 5.87075 46 13.8057 46 22.9962C46 31.4889 41.3904 38.9102 34.523 42.8912C36.2477 41.2043 37.5781 39.1571 38.4191 36.8959C39.2601 34.6348 39.5907 32.2157 39.3875 29.8118C38.7186 21.3632 30.751 14.4881 23.5252 14.4881C16.8034 14.4881 14.1718 20.355 14.8216 24.3398C15.0616 25.8045 15.6926 27.1772 16.6482 28.313C15.39 27.6342 14.2241 26.7968 13.179 25.8213C10.2657 23.1092 8.50233 19.6362 8.21675 16.0463C7.59 8.12092 13.455 0 23.2626 0H23.2607Z" fill="#4285F4"/>
</g>
<defs>
<clipPath id="clip0_535_867">
<rect width="46" height="46" fill="white"/>
</clipPath>
</defs>
</svg>
