<svg width="101" height="46" viewBox="0 0 101 46" fill="none" xmlns="http://www.w3.org/2000/svg">
<g clip-path="url(#clip0_535_862)">
<path fill-rule="evenodd" clip-rule="evenodd" d="M45.4195 11.2144C48.0931 11.2144 49.086 9.56608 49.086 7.52483C49.086 5.48358 48.0988 3.83333 45.4195 3.83333C42.742 3.83333 41.7549 5.48358 41.7549 7.52483C41.7549 9.56416 42.742 11.2144 45.4195 11.2144Z" fill="black"/>
<path fill-rule="evenodd" clip-rule="evenodd" d="M14.9349 3.83717H3.81152V38.0957H14.9349C28.6728 38.0957 32.5984 30.1913 32.5984 20.9645C32.5984 11.7377 28.6747 3.83717 14.9349 3.83717ZM15.0664 32.8268H10.0926V9.10801H15.0664C22.9672 9.10801 26.3212 13.0123 26.3212 20.9645C26.3212 28.9168 22.9672 32.821 15.0664 32.821V32.8268Z" fill="black"/>
<path fill-rule="evenodd" clip-rule="evenodd" d="M58.2424 12.0079V14.3827H52.2262V19.6535H58.2424V32.8306H48.2948V14.3769H35.2163V19.6477H42.5416V32.8267H33.9014V38.0957H73.1523V32.8248H63.9956V19.6477H73.1523V14.375H63.9956V9.10416H73.1523V3.83908H66.3471C64.1947 3.84314 62.1317 4.70559 60.6106 6.2373C59.0894 7.76901 58.2343 9.84494 58.2328 12.0098L58.2424 12.0079Z" fill="black"/>
<path fill-rule="evenodd" clip-rule="evenodd" d="M91.8091 14.3769L86.5742 31.51L81.3413 14.3788H75.125L82.7152 36.5374C83.5042 38.8432 82.1664 40.733 79.7424 40.733H77.0859V46H80.9963C84.4075 46 87.4756 43.8265 88.6285 40.5969L98.0234 14.3769H91.8091Z" fill="black"/>
</g>
<defs>
<clipPath id="clip0_535_862">
<rect width="101" height="46" fill="white"/>
</clipPath>
</defs>
</svg>
