<svg width="46" height="46" viewBox="0 0 46 46" fill="none" xmlns="http://www.w3.org/2000/svg">
<path d="M13.4993 12.4334C16.6331 12.4334 17.7946 10.511 17.7946 8.13433C17.7946 5.75766 16.6388 3.83333 13.5012 3.83333C10.3598 3.83333 9.20215 5.75574 9.20215 8.13433C9.20215 10.511 10.3598 12.4334 13.4974 12.4334H13.4993Z" fill="#0033FF"/>
<path d="M28.5258 13.3592V16.1249H21.4743V22.264H28.5277V37.6203H16.8686V16.1192H1.53525V22.2582H10.1219V37.6146H0V43.7537H46V37.6146H35.2667V22.2582H46V16.1192H35.2667V9.97816H46V3.83908H38.0248C35.5023 3.84365 33.0847 4.84849 31.3021 6.63319C29.5196 8.41789 28.5177 10.8367 28.5162 13.3592H28.5258Z" fill="#0033FF"/>
</svg>
