<svg width="46" height="46" viewBox="0 0 46 46" fill="none" xmlns="http://www.w3.org/2000/svg">
<path d="M41.5146 13.4492C42.1204 12.8645 42.6036 12.1649 42.9361 11.3914C43.2686 10.6178 43.4437 9.78578 43.4511 8.94384C43.4586 8.1019 43.2983 7.2669 42.9796 6.48758C42.6609 5.70826 42.1901 5.00022 41.5948 4.40479C40.9995 3.80936 40.2916 3.33846 39.5123 3.01958C38.7331 2.7007 37.8981 2.54022 37.0562 2.54751C36.2142 2.5548 35.3822 2.72971 34.6086 3.06203C33.8349 3.39435 33.1353 3.87744 32.5504 4.48308L25.9225 11.1109C25.3169 11.6958 24.8338 12.3955 24.5015 13.1691C24.1691 13.9427 23.9942 14.7748 23.9869 15.6167C23.9797 16.4587 24.1401 17.2936 24.459 18.0729C24.7779 18.8522 25.2488 19.5601 25.8442 20.1554C26.4397 20.7507 27.1477 21.2214 27.927 21.5402C28.7063 21.8589 29.5413 22.0192 30.3833 22.0117C31.2252 22.0042 32.0572 21.8291 32.8308 21.4967C33.6043 21.1642 34.3039 20.6809 34.8887 20.0752L41.5146 13.4492ZM20.0767 34.8891C20.6748 34.3024 21.1507 33.6031 21.4769 32.8314C21.8031 32.0597 21.9731 31.2311 21.9772 30.3933C21.9812 29.5555 21.8192 28.7253 21.5005 27.9505C21.1817 27.1757 20.7126 26.4718 20.1202 25.8794C19.5278 25.287 18.8239 24.8179 18.0491 24.4991C17.2743 24.1804 16.4441 24.0184 15.6063 24.0224C14.7685 24.0265 13.9399 24.1965 13.1682 24.5227C12.3965 24.8489 11.6972 25.3248 11.1105 25.9229L4.48269 32.5507C3.87704 33.1357 3.39396 33.8353 3.06163 34.609C2.72931 35.3826 2.5544 36.2146 2.54711 37.0566C2.53982 37.8985 2.7003 38.7335 3.01919 39.5127C3.33807 40.292 3.80897 40.9999 4.4044 41.5952C4.99983 42.1905 5.70786 42.6613 6.48718 42.98C7.26651 43.2987 8.1015 43.459 8.94344 43.4515C9.78539 43.4441 10.6174 43.269 11.391 42.9365C12.1645 42.604 12.8641 42.1208 13.4489 41.515L20.0767 34.8891Z" fill="#7748F9"/>
<path d="M34.8886 25.9229C34.302 25.3248 33.6026 24.8489 32.8309 24.5227C32.0593 24.1965 31.2306 24.0265 30.3928 24.0224C29.5551 24.0184 28.7248 24.1804 27.95 24.4991C27.1752 24.8179 26.4713 25.287 25.8789 25.8794C25.2865 26.4718 24.8174 27.1757 24.4986 27.9505C24.1799 28.7253 24.0179 29.5555 24.0219 30.3933C24.026 31.2311 24.196 32.0597 24.5222 32.8314C24.8484 33.6031 25.3243 34.3024 25.9224 34.8891L32.5503 41.5169C33.7432 42.687 35.3497 43.3388 37.0207 43.3308C38.6916 43.3227 40.2918 42.6553 41.4733 41.4738C42.6549 40.2923 43.3222 38.6921 43.3303 37.0211C43.3384 35.3502 42.6865 33.7436 41.5164 32.5507L34.8886 25.9229ZM13.4488 4.48308C12.8621 3.88498 12.1628 3.40908 11.3911 3.08287C10.6194 2.75667 9.79077 2.58663 8.953 2.58258C8.11523 2.57853 7.28496 2.74055 6.51018 3.05929C5.7354 3.37802 5.03147 3.84714 4.43907 4.43954C3.84667 5.03194 3.37755 5.73588 3.05882 6.51066C2.74008 7.28544 2.57806 8.1157 2.58211 8.95347C2.58615 9.79124 2.75619 10.6199 3.0824 11.3916C3.40861 12.1632 3.88451 12.8626 4.48261 13.4492L11.1104 20.0752C12.3064 21.2297 13.908 21.8683 15.5702 21.8536C17.2325 21.8389 18.8225 21.1719 19.9978 19.9963C21.1731 18.8208 21.8397 17.2307 21.8541 15.5684C21.8685 13.9061 21.2295 12.3047 20.0747 11.109L13.4488 4.48308Z" fill="#BFABFB"/>
</svg>
