<svg width="46" height="46" viewBox="0 0 46 46" fill="none" xmlns="http://www.w3.org/2000/svg">
<g clip-path="url(#clip0_535_854)">
<path d="M21.7197 46H1.83042C1.59064 46.0008 1.35306 45.9542 1.13127 45.8631C0.909473 45.772 0.707815 45.6381 0.537819 45.469C0.367824 45.2999 0.232826 45.0989 0.140543 44.8776C0.0482604 44.6563 0.000502549 44.4189 0 44.1792H21.7369C25.4661 44.2001 29.1353 43.2411 32.3773 41.3981C35.6192 39.5551 38.3202 36.8928 40.2098 33.6777C44.0431 27.1438 44.0814 19.0727 40.3133 12.4986C38.4545 9.26626 35.7794 6.57883 32.5556 4.70526C29.3319 2.83169 25.6725 1.83769 21.9439 1.82275H0C0 0.814583 0.818417 0 1.83042 0H21.9439C28.074 0.0039702 33.9528 2.43681 38.2931 6.76583C40.4368 8.90346 42.1367 11.4438 43.2952 14.2407C44.4537 17.0376 45.0479 20.0359 45.0436 23.0632C45.0091 35.7822 34.4866 46 21.7197 46Z" fill="#5468FF"/>
<path d="M0 41.0933H14.1124C15.8555 41.0999 17.5385 40.4569 18.8332 39.2898H0V41.0933ZM0 36.1867H21.6487C22.0857 35.6002 22.4921 35.0118 22.8697 34.3601H0V36.1867ZM0 31.2743H24.4164C24.6657 30.6795 24.8826 30.0716 25.0662 29.4534H0V31.2743ZM0 26.3676H25.7734C25.8635 25.7811 25.9344 25.1563 25.9747 24.5468H0V26.3676ZM0 21.4609H25.9689C25.9267 20.8438 25.8577 20.2343 25.7677 19.6324H0V21.4609ZM0 16.5485H25.0662C24.8764 15.9313 24.6579 15.3218 24.4164 14.7277H0V16.5485ZM0 11.6418H22.8697C22.4944 11.0142 22.0869 10.4065 21.6487 9.821H0V11.6418ZM0 4.90667V6.73517H18.8504C17.5563 5.56709 15.8729 4.92395 14.1297 4.93159L0 4.90667Z" fill="black"/>
</g>
<defs>
<clipPath id="clip0_535_854">
<rect width="46" height="46" fill="white"/>
</clipPath>
</defs>
</svg>
