<svg width="387" height="46" viewBox="0 0 387 46" fill="none" xmlns="http://www.w3.org/2000/svg">
<g clip-path="url(#clip0_535_910)">
<path d="M21.7197 46H1.83042C1.59064 46.0008 1.35306 45.9542 1.13127 45.8631C0.909473 45.772 0.707815 45.6381 0.537819 45.469C0.367824 45.2999 0.232826 45.0989 0.140543 44.8776C0.0482604 44.6563 0.000502549 44.4189 0 44.1792H21.7369C25.4661 44.2001 29.1353 43.2411 32.3773 41.3981C35.6192 39.5551 38.3202 36.8928 40.2098 33.6777C44.0431 27.1438 44.0814 19.0727 40.3133 12.4986C38.4545 9.26626 35.7794 6.57883 32.5556 4.70526C29.3319 2.83169 25.6725 1.83769 21.9439 1.82275H0C0 0.814583 0.818417 0 1.83042 0H21.9439C28.074 0.0039702 33.9528 2.43681 38.2931 6.76583C40.4368 8.90346 42.1367 11.4438 43.2952 14.2407C44.4537 17.0376 45.0479 20.0359 45.0436 23.0632C45.0091 35.7822 34.4866 46 21.7197 46Z" fill="#5468FF"/>
<path d="M0 41.0933H14.1124C15.8555 41.0999 17.5385 40.4569 18.8332 39.2898H0V41.0933ZM0 36.1867H21.6487C22.0857 35.6002 22.4921 35.0118 22.8697 34.3601H0V36.1867ZM0 31.2743H24.4164C24.6657 30.6795 24.8826 30.0716 25.0662 29.4534H0V31.2743ZM0 26.3676H25.7734C25.8635 25.7811 25.9344 25.1563 25.9747 24.5468H0V26.3676ZM0 21.4609H25.9689C25.9267 20.8438 25.8577 20.2343 25.7677 19.6324H0V21.4609ZM0 16.5485H25.0662C24.8764 15.9313 24.6579 15.3218 24.4164 14.7277H0V16.5485ZM0 11.6418H22.8697C22.4944 11.0142 22.0869 10.4065 21.6487 9.821H0V11.6418ZM0 4.90667V6.73517H18.8504C17.5563 5.56709 15.8729 4.92395 14.1297 4.93159L0 4.90667Z" fill="black"/>
</g>
<path fill-rule="evenodd" clip-rule="evenodd" d="M93.1835 32.775C91.6238 35.6041 89.2675 37.9105 86.4084 39.4067C83.1881 41.0592 79.6064 41.8782 75.9894 41.7891H61.8252V4.40834H75.9798C79.5993 4.31365 83.1864 5.11413 86.4237 6.739C89.2834 8.19953 91.643 10.4819 93.2007 13.294C94.8167 16.2749 95.6314 19.6256 95.5649 23.0173C95.6241 26.4206 94.8037 29.7833 93.1835 32.775ZM83.434 30.8986C85.3927 29.0356 86.374 26.4078 86.374 23.0173C86.374 19.6267 85.3927 17.0028 83.434 15.1436C81.4676 13.2748 78.719 12.3395 75.1841 12.3395H70.8976V33.695H75.1822C78.7247 33.695 81.4753 32.7635 83.434 30.8986ZM127.16 6.29242C129.996 7.90433 132.339 10.2608 133.937 13.1081C135.624 16.1157 136.483 19.518 136.428 22.9674C136.473 26.4301 135.595 29.8421 133.886 32.8517C132.268 35.7154 129.902 38.0836 127.042 39.7018C124.109 41.3141 120.819 42.1593 117.474 42.1593C114.129 42.1593 110.839 41.3141 107.906 39.7018C105.047 38.0853 102.683 35.7166 101.07 32.8517C99.355 29.8443 98.4771 26.4308 98.5278 22.9674C98.4765 19.5119 99.3546 16.1062 101.07 13.1081C102.691 10.2581 105.054 7.9025 107.906 6.29242C110.849 4.67939 114.149 3.83398 117.504 3.83398C120.858 3.83398 124.158 4.67939 127.101 6.29242H127.16ZM110.456 15.1187C108.712 17.0411 107.835 19.6554 107.83 22.9674C107.824 26.2775 108.7 28.8861 110.456 30.7893C112.338 32.6517 114.876 33.696 117.521 33.696C120.166 33.696 122.704 32.6517 124.586 30.7893C126.342 28.8573 127.22 26.2507 127.22 22.9674C127.22 19.6842 126.344 17.0756 124.593 15.1436C122.703 13.2884 120.162 12.2493 117.516 12.2493C114.87 12.2493 112.329 13.2884 110.439 15.1436L110.456 15.1187ZM169.573 7.79509C172.73 10.3482 174.881 13.94 175.646 17.9323H166.057C165.405 16.2807 164.268 14.8664 162.796 13.8767C161.247 12.8632 159.427 12.3446 157.578 12.3893C156.359 12.346 155.146 12.5833 154.033 13.083C152.92 13.5828 151.936 14.3316 151.156 15.272C149.53 17.2021 148.718 19.7953 148.718 23.0441C148.718 26.2928 149.53 28.8708 151.156 30.7817C151.937 31.7206 152.921 32.4683 154.034 32.9676C155.147 33.4669 156.359 33.7045 157.578 33.6624C159.423 33.7203 161.242 33.2164 162.796 32.2173C164.258 31.2365 165.394 29.8392 166.057 28.2057H175.655C174.883 32.1949 172.733 35.784 169.582 38.3429C166.459 40.8595 162.505 42.1207 157.723 42.1264C154.369 42.2 151.057 41.3685 148.134 39.7191C145.395 38.1333 143.173 35.7858 141.738 32.9609C140.197 29.8985 139.423 26.5059 139.484 23.0767C139.422 19.6449 140.196 16.2496 141.738 13.1848C143.173 10.3598 145.395 8.01241 148.134 6.42659C151.057 4.7875 154.365 3.96472 157.713 4.04417C162.503 4.04417 166.455 5.29384 169.573 7.79509ZM205.361 36.7118C204.283 38.4326 202.738 39.8097 200.906 40.6813C198.676 41.7223 196.235 42.2289 193.775 42.1609C189.573 42.1609 186.111 41.1374 183.389 39.0943C182.048 38.0964 180.951 36.8071 180.179 35.3232C179.407 33.8393 178.981 32.1994 178.932 30.5268H188.582C188.653 31.786 189.19 32.9724 190.089 33.856C190.99 34.6802 192.18 35.1172 193.4 35.0731C194.409 35.1315 195.401 34.7916 196.162 34.1263C196.841 33.4593 197.207 32.5412 197.17 31.5924C197.182 31.1545 197.105 30.7188 196.945 30.3112C196.785 29.9036 196.545 29.5324 196.239 29.2196C195.581 28.5515 194.799 28.02 193.936 27.6556C193.02 27.2493 191.742 26.8123 190.116 26.2028C188.131 25.548 186.192 24.7604 184.313 23.8453C182.768 23.0502 181.439 21.8905 180.441 20.4662C179.298 18.7384 178.731 16.6915 178.823 14.6203C178.771 12.5699 179.364 10.5549 180.518 8.86075C181.699 7.1957 183.33 5.90308 185.219 5.13475C187.394 4.23801 189.729 3.79831 192.081 3.84292C196.247 3.84292 199.56 4.82809 202.016 6.79842C203.239 7.78985 204.242 9.02673 204.959 10.4296C205.677 11.8325 206.094 13.3703 206.184 14.9443H196.375C196.257 13.8411 195.78 12.8074 195.019 12.0022C194.627 11.633 194.164 11.347 193.66 11.1613C193.155 10.9755 192.618 10.8939 192.081 10.9212C191.16 10.8897 190.258 11.1887 189.538 11.7645C188.856 12.4066 188.498 13.317 188.565 14.2504C188.538 15.0803 188.842 15.8892 189.412 16.4968C190.037 17.1446 190.786 17.659 191.614 18.009C192.494 18.3962 193.766 18.8907 195.426 19.4848C197.448 20.1365 199.416 20.9415 201.314 21.8941C202.875 22.7225 204.219 23.9093 205.235 25.3575C206.398 27.1055 206.972 29.1755 206.88 31.2704C206.893 33.1908 206.365 35.0761 205.361 36.7118ZM220.96 11.5958V19.4273H233.666V26.2526H220.96V34.5575H235.216V41.7968H211.928V4.40834H235.248V11.5958H220.96ZM263.458 34.9715H249.413L247.075 41.7891H237.538L251.268 4.67859H261.712L275.461 41.7891H265.796L263.458 34.9715ZM261.128 28.0945L256.461 14.352L251.742 28.0945H261.128ZM297.485 41.7891L289.371 27.6728H287.32V41.7891H278.256V4.40834H293.742C296.339 4.34032 298.917 4.87837 301.272 5.98C303.198 6.89221 304.806 8.36328 305.888 10.2024C306.934 12.0673 307.462 14.1757 307.422 16.3089C307.496 18.81 306.7 21.2591 305.169 23.2358C303.485 25.2289 301.177 26.5905 298.621 27.0978L307.531 41.7968L297.485 41.7891ZM287.32 21.5146H292.946C294.373 21.6418 295.796 21.222 296.926 20.3397C297.373 19.8766 297.717 19.3243 297.936 18.7189C298.155 18.1136 298.245 17.4687 298.198 16.8264C298.233 16.1869 298.136 15.5469 297.913 14.9467C297.69 14.3465 297.345 13.7989 296.901 13.3381C295.803 12.4126 294.384 11.9575 292.953 12.0712H287.32V21.5146ZM340.161 7.79509C343.321 10.346 345.473 13.9387 346.234 17.9323H336.636C335.99 16.2725 334.852 14.851 333.375 13.8594C331.826 12.8454 330.006 12.3274 328.156 12.374C326.937 12.3312 325.725 12.5704 324.613 13.073C323.501 13.5755 322.52 14.328 321.745 15.272C320.119 17.2021 319.304 19.7953 319.304 23.0441C319.304 26.2928 320.119 28.8708 321.745 30.7817C322.523 31.7209 323.505 32.469 324.617 32.9684C325.728 33.4678 326.939 33.7052 328.156 33.6624C330.005 33.711 331.825 33.1949 333.375 32.1828C334.84 31.2048 335.976 29.8067 336.636 28.1712H346.234C345.465 32.1616 343.314 35.7517 340.161 38.3084C337.038 40.825 333.084 42.0862 328.302 42.0919C324.945 42.1666 321.63 41.3351 318.703 39.6846C315.965 38.1005 313.746 35.7524 312.317 32.9264C310.774 29.8646 310 26.4716 310.063 23.0422C309.998 19.6113 310.771 16.2169 312.317 13.1503C313.746 10.3244 315.965 7.9763 318.703 6.39209C321.63 4.74392 324.945 3.91506 328.302 3.99242C333.086 4.02692 337.038 5.29575 340.161 7.79509ZM383.174 4.40834V41.7891H374.052V26.1951H359.846V41.7891H350.781V4.40834H359.846V18.8945H374.052V4.40834H383.174Z" fill="black"/>
<defs>
<clipPath id="clip0_535_910">
<rect width="46" height="46" fill="white"/>
</clipPath>
</defs>
</svg>
