<svg width="46" height="46" viewBox="0 0 46 46" fill="none" xmlns="http://www.w3.org/2000/svg">
<g clip-path="url(#clip0_524_456)">
<path d="M10.1775 30.199C10.5072 23.0115 13.7866 18.7009 15.0631 17.2826C8.81479 21.2271 4.6652 28.1271 2.87695 33.2063V35.3529C2.87695 41.2333 8.09987 46 14.5475 46C15.9837 46.0019 17.4097 45.7588 18.7642 45.2813C19.4408 45.0513 20.1059 44.8059 20.7556 44.5568C22.5055 42.8337 23.9181 40.8959 25.0547 38.8221C15.7071 43.4815 9.7712 38.9601 10.1756 30.1971L10.1775 30.199Z" fill="#1E37FC"/>
<path d="M43.2594 19.7091C40.9364 17.9822 35.3839 15.1014 29.0819 14.3424C29.6473 21.6104 29.2601 31.1439 25.0569 38.824C23.9121 40.9361 22.4629 42.8683 20.7559 44.5587C27.9702 41.7833 33.6857 37.9327 37.2315 34.5556C42.6365 29.4132 43.6581 24.6311 43.6734 21.7906C43.6782 21.0771 43.5373 20.3701 43.2594 19.7129V19.7091Z" fill="#37E1BE"/>
<path d="M27.4141 3.57842C24.8304 1.34167 21.5587 0 17.9975 0C14.4363 0 11.2758 1.29758 8.71125 3.46342C5.34942 6.30583 3.11842 10.6509 2.875 15.5729V33.2082C4.66133 28.129 8.81092 21.229 15.0592 17.2864C16.0176 16.6769 17.0238 16.146 18.0665 15.6975C21.6756 14.1622 25.4993 13.9112 29.0797 14.3443C28.6542 8.92017 27.7035 4.75717 27.4122 3.57842H27.4141Z" fill="#A569FF"/>
<path d="M33.168 9.50858C32.4753 8.8123 31.7853 8.11335 31.098 7.41175C30.7108 7.0035 30.3352 6.60867 29.9748 6.21958L27.4199 3.57842C27.7093 4.75717 28.6619 8.91825 29.0855 14.3443C35.3875 15.1014 40.9401 17.9822 43.2612 19.711C40.758 17.2673 36.6008 13.0276 33.168 9.50858Z" fill="#1E37FC"/>
</g>
<defs>
<clipPath id="clip0_524_456">
<rect width="46" height="46" fill="white"/>
</clipPath>
</defs>
</svg>
