<svg width="211" height="46" viewBox="0 0 211 46" fill="none" xmlns="http://www.w3.org/2000/svg">
<g clip-path="url(#clip0_524_492)">
<path d="M10.1775 30.199C10.5072 23.0115 13.7866 18.7009 15.0631 17.2826C8.81479 21.2271 4.6652 28.1271 2.87695 33.2063V35.3529C2.87695 41.2333 8.09987 46 14.5475 46C15.9837 46.0019 17.4097 45.7588 18.7642 45.2813C19.4408 45.0513 20.1059 44.8059 20.7556 44.5568C22.5055 42.8337 23.9181 40.8959 25.0547 38.8221C15.7071 43.4815 9.7712 38.9601 10.1756 30.1971L10.1775 30.199Z" fill="#1E37FC"/>
<path d="M43.2594 19.7091C40.9364 17.9822 35.3839 15.1014 29.0819 14.3424C29.6473 21.6104 29.2601 31.1439 25.0569 38.824C23.9121 40.9361 22.4629 42.8683 20.7559 44.5587C27.9702 41.7833 33.6857 37.9327 37.2315 34.5556C42.6365 29.4132 43.6581 24.6311 43.6734 21.7906C43.6782 21.0771 43.5373 20.3701 43.2594 19.7129V19.7091Z" fill="#37E1BE"/>
<path d="M27.4141 3.57842C24.8304 1.34167 21.5587 0 17.9975 0C14.4363 0 11.2758 1.29758 8.71125 3.46342C5.34942 6.30583 3.11842 10.6509 2.875 15.5729V33.2082C4.66133 28.129 8.81092 21.229 15.0592 17.2864C16.0176 16.6769 17.0238 16.146 18.0665 15.6975C21.6756 14.1622 25.4993 13.9112 29.0797 14.3443C28.6542 8.92017 27.7035 4.75717 27.4122 3.57842H27.4141Z" fill="#A569FF"/>
<path d="M33.168 9.50858C32.4753 8.8123 31.7853 8.11335 31.098 7.41175C30.7108 7.0035 30.3352 6.60867 29.9748 6.21958L27.4199 3.57842C27.7093 4.75717 28.6619 8.91825 29.0855 14.3443C35.3875 15.1014 40.9401 17.9822 43.2612 19.711C40.758 17.2673 36.6008 13.0276 33.168 9.50858Z" fill="#1E37FC"/>
</g>
<path fill-rule="evenodd" clip-rule="evenodd" d="M180.612 9.4025H195.931V12.335H193.006V16.1945H196.629V19.2545H193.006V25.9175H189.829V19.2545H186.524C186.141 22.3775 184.966 24.7055 183.06 26.3L180.548 24.0995C182.01 22.9835 182.9 21.3575 183.283 19.2545H179.787V16.1945H183.472V12.335H180.612V9.4025ZM186.683 12.335V16.1945H189.829V12.335H186.683ZM197.837 10.4555H200.982V21.3575H197.836V10.457L197.837 10.4555ZM181.439 28.4045H192.212V26.2685H195.517V28.4045H206.068V31.4645H195.517V34.1105H207.816V37.1405H179.66V34.1105H192.212V31.4645H181.439V28.4045ZM203.748 26.3315H199.489L198.758 23.207C200.125 23.3345 201.429 23.4305 202.635 23.4305C203.239 23.4305 203.558 22.9205 203.558 21.9005V8.7005H206.767V22.697C206.767 25.121 205.75 26.3315 203.748 26.3315ZM157.064 10.6775H161.226V8.3825H164.309V10.6775H168.472V8.3825H171.587V10.6775H176.162V13.6115H171.587V15.4925H168.472V13.61H164.309V15.491H161.226V13.61H157.064V10.6775ZM166.153 31.7825C165.818 32.3315 165.458 32.8625 165.072 33.377C163.61 35.258 161.005 36.725 157.318 37.808L156.174 35.0675C159.193 34.238 161.386 33.0275 162.72 31.4975C162.821 31.3736 162.916 31.2455 163.006 31.1135H156.334V28.1165H164.534C164.692 27.5765 164.818 27.0005 164.946 26.4275H158.496V16.1945H174.257V26.4275H167.87C167.775 27.0005 167.68 27.575 167.553 28.1165H176.228V31.1135H169.236C170.953 32.7725 173.399 34.1735 176.642 35.258L174.384 37.937C170.634 36.2795 167.87 34.238 166.155 31.784L166.153 31.7825ZM154.457 22.6025V37.682H151.343V23.8445C150.516 26.1725 149.563 28.34 148.42 30.3485L146.989 26.651C148.959 23.972 150.422 20.9435 151.343 17.564V17.2775H148.007V14.2475H151.343V8.48H154.457V14.2505H157.445V17.279H154.457V18.935C155.829 20.5462 157.143 22.2052 158.399 23.909L156.649 26.555C155.947 25.2216 155.217 23.9038 154.457 22.6025ZM171.268 23.9405V22.538H161.449V23.9405H171.268ZM161.449 20.1155H171.268V18.7445H161.449V20.1155ZM117.594 16.2905H129.638C129.837 14.5857 129.954 12.8722 129.986 11.156V8.2865H133.357V10.391C133.357 12.464 133.228 14.441 133.007 16.289H145.751V19.541H133.769C136.057 26.204 140.284 31.337 146.48 34.9715L144.384 37.7135C138.409 34.0145 134.182 28.8815 131.767 22.3145C129.606 29.4245 125.347 34.652 118.992 38L116.863 35.195C123.282 32.0705 127.35 26.8415 129.065 19.541H117.592V16.289L117.594 16.2905ZM106.089 17.6915V28.1495H94.8721V33.059C94.8721 33.8555 95.3162 34.2695 96.2701 34.2695H110.699C111.333 34.2065 111.746 33.9515 111.97 33.4745C112.129 33.122 112.319 32.006 112.508 30.158L115.656 31.2095C115.432 33.122 115.179 34.4615 114.893 35.2595C114.448 36.5975 113.431 37.2995 111.779 37.3625H94.8721C92.6472 37.3625 91.5347 36.374 91.5347 34.3985V19.1585C90.8992 19.8605 90.2952 20.5295 89.6597 21.1685L87.3077 18.362C90.041 15.938 92.393 12.464 94.4265 8L97.7953 8.765C97.414 9.6575 97.0013 10.52 96.62 11.348H113.845C113.845 19.8275 113.654 25.0565 113.337 27.0335C113.018 29.009 111.683 30.029 109.331 30.029C108.95 30.029 108.251 29.966 107.298 29.87L106.504 26.906C107.393 27.0005 108.156 27.065 108.791 27.065C109.554 27.065 109.999 26.555 110.127 25.535C110.316 24.4505 110.412 20.7845 110.475 14.504H94.8721C94.2097 15.599 93.4995 16.6625 92.7429 17.6915H106.089ZM94.8721 25.1525H102.752V20.6885H94.8721V25.1525ZM58.1984 9.818H84.5744V12.941H58.1984V9.818ZM56.9902 33.536H65.1886C64.5111 31.5153 63.6937 29.5445 62.7424 27.638L65.6028 26.6825C66.5553 28.5635 67.3507 30.572 68.049 32.708L66.2383 33.536H74.024C75.0407 31.6235 75.9304 29.297 76.6945 26.618L79.9347 27.512C79.2476 29.5993 78.3645 31.6163 77.2971 33.536H85.5612V36.7895H56.9902V33.536ZM61.1844 15.11H81.557V26.1725H61.1844V15.11ZM78.3467 23.1125V18.17H64.3947V23.1125H78.3452H78.3467Z" fill="black"/>
<defs>
<clipPath id="clip0_524_492">
<rect width="46" height="46" fill="white"/>
</clipPath>
</defs>
</svg>
