<svg width="335" height="46" viewBox="0 0 335 46" fill="none" xmlns="http://www.w3.org/2000/svg">
<path fill-rule="evenodd" clip-rule="evenodd" d="M3.82812 1.91669H12.5132V43.3857H3.82812V1.91669ZM21.0816 1.91669H29.7667V43.3857H21.0816V1.91669ZM38.3331 1.91669H64.0382V8.82819H47.0202V18.7029H62.8724V25.6144H47.0182V36.4742H64.0382V43.3857H38.3331V1.91669ZM69.3426 1.91669H77.5607V43.3857H69.3407L69.3426 1.91669ZM82.5148 27.8204C82.5148 16.4949 88.1696 11.6169 96.9696 11.6169C105.771 11.6169 110.785 16.4374 110.785 27.9374V29.7965H90.618C90.909 36.5336 92.9477 38.7972 96.8548 38.7972C99.9425 38.7972 101.866 36.9955 102.215 33.8618H110.435C109.91 40.7139 104.198 44.0834 96.8548 44.0834C87.5284 44.0834 82.5148 39.146 82.5148 27.8204ZM102.682 24.3934C102.274 18.7009 100.293 16.8418 96.8548 16.8418C93.4148 16.8418 91.2574 18.7584 90.6754 24.3934H102.682ZM120.927 12.3127H112.533L122.675 43.3876H131.71L141.852 12.3127H133.458L127.108 35.7209L120.925 12.3127H120.927ZM143.425 27.8204C143.425 16.4949 149.08 11.6169 157.882 11.6169C166.682 11.6169 171.696 16.4374 171.696 27.9374V29.7965H151.529C151.82 36.5336 153.86 38.7972 157.765 38.7972C160.855 38.7972 162.777 36.9955 163.127 33.8618H171.345C170.821 40.7139 165.109 44.0834 157.765 44.0834C148.439 44.0834 143.425 39.146 143.425 27.8204ZM163.594 24.3934C163.187 18.7009 161.203 16.8418 157.765 16.8418C154.325 16.8418 152.17 18.7584 151.586 24.3934H163.594ZM184.987 25.0892C184.987 20.2113 187.316 17.5394 190.93 17.5394C193.903 17.5394 195.594 19.3986 195.594 23.4064V43.3857H203.814V22.1299C203.814 14.927 199.732 11.6169 193.787 11.6169C189.767 11.6169 186.443 13.6486 184.987 16.3204V12.3146H176.65V43.3857H184.987V25.0892ZM210.63 1.91669H219.315V36.4742H235.637V43.3857H210.63V1.91669Z" fill="black"/>
<path fill-rule="evenodd" clip-rule="evenodd" d="M237.678 27.8204C237.678 15.9716 243.156 11.6169 250.209 11.6169C253.706 11.6169 256.912 13.5911 258.195 15.6803V12.3146H266.587V43.3876H258.429V39.7287C257.203 42.1667 253.765 44.0834 249.975 44.0834C242.515 44.0834 237.678 39.3204 237.678 27.8204ZM252.366 17.7139C256.445 17.7139 258.66 20.792 258.66 27.8204C258.66 34.8489 256.445 37.9845 252.366 37.9845C248.285 37.9845 245.953 34.8489 245.953 27.8204C245.953 20.792 248.285 17.7139 252.366 17.7139ZM281.101 39.7268V43.3876H272.941V1.91669H281.161V15.6822C282.558 13.5336 285.824 11.6169 289.321 11.6169C296.199 11.6169 301.678 15.9716 301.678 27.8204C301.678 39.6693 296.314 44.0834 289.145 44.0834C285.357 44.0834 282.267 42.1667 281.101 39.7268ZM286.99 17.7733C291.069 17.7733 293.401 20.792 293.401 27.8204C293.401 34.8489 291.069 37.9845 286.99 37.9845C282.908 37.9845 280.694 34.8489 280.694 27.8204C280.694 20.792 282.908 17.7733 286.99 17.7733Z" fill="black"/>
<path fill-rule="evenodd" clip-rule="evenodd" d="M305.059 34.1512H313.277C313.393 37.4038 315.143 38.9716 318.231 38.9716C321.32 38.9716 323.07 37.5782 323.07 35.1383C323.07 32.9322 321.728 32.1195 318.815 31.4199L316.307 30.7836C309.197 28.9819 305.641 27.0653 305.641 21.2003C305.641 15.3334 311.121 11.6169 318.114 11.6169C325.109 11.6169 330.413 14.3463 330.647 20.792H322.429C322.253 17.9477 320.505 16.7287 317.999 16.7287C315.491 16.7287 313.744 17.9477 313.744 20.2707C313.744 22.4174 315.143 23.2319 317.59 23.8127L320.155 24.4529C326.916 26.1357 331.171 27.8204 331.171 34.0937C331.171 40.3669 325.576 44.0834 317.999 44.0834C309.779 44.0834 305.233 41.0052 305.059 34.1512Z" fill="black"/>
</svg>
