<svg width="98" height="46" viewBox="0 0 98 46" fill="none" xmlns="http://www.w3.org/2000/svg">
<g clip-path="url(#clip0_537_1018)">
<path fill-rule="evenodd" clip-rule="evenodd" d="M29.6642 0C30.4597 0 31.0998 0.647833 31.1746 1.44133C31.5096 4.87815 33.0278 8.09194 35.4697 10.5335C37.9116 12.975 41.1256 14.4928 44.5625 14.8273C45.3541 14.904 46.0038 15.5423 46.0038 16.3377V29.6623C46.0038 30.4577 45.356 31.096 44.5625 31.1727C41.1256 31.5072 37.9116 33.025 35.4697 35.4665C33.0278 37.9081 31.5096 41.1218 31.1746 44.5587C31.0979 45.3522 30.4597 46 29.6642 46H16.3396C15.5422 46 14.904 45.3522 14.8273 44.5587C14.4923 41.1221 12.9744 37.9086 10.5329 35.4671C8.09141 33.0256 4.87785 31.5077 1.44133 31.1727C0.647833 31.096 0 30.4577 0 29.6623V16.3377C0 15.5423 0.647833 14.904 1.44133 14.8273C4.87785 14.4923 8.09141 12.9744 10.5329 10.5329C12.9744 8.09141 14.4923 4.87785 14.8273 1.44133C14.904 0.647833 15.5442 0 16.3415 0H29.6623H29.6642ZM9.23642 22.9617C9.23541 24.7806 9.59271 26.5819 10.2879 28.2628C10.9831 29.9436 12.0026 31.4711 13.2882 32.7579C14.5738 34.0447 16.1002 35.0657 17.7804 35.7625C19.4606 36.4594 21.2616 36.8184 23.0805 36.8192C24.8994 36.8184 26.7004 36.4594 28.3806 35.7625C30.0608 35.0657 31.5872 34.0447 32.8728 32.7579C34.1584 31.4711 35.1779 29.9436 35.8731 28.2628C36.5683 26.5819 36.9256 24.7806 36.9246 22.9617C36.9246 15.3065 30.7261 9.10417 23.0805 9.10417C19.4071 9.1062 15.885 10.5673 13.2888 13.166C10.6925 15.7647 9.23489 19.2883 9.23642 22.9617Z" fill="#EC0648"/>
</g>
<path fill-rule="evenodd" clip-rule="evenodd" d="M55.9753 21.9605C57.4087 21.9605 57.7189 22.04 57.7189 22.7855V34.04C57.7189 37.529 57.796 37.685 58.1062 37.685H63.4926C63.8042 37.685 63.92 37.529 63.92 34.04V22.784C63.92 22.04 64.1915 21.9605 65.9351 21.9605H67.7172C67.9887 21.9605 68.0288 21.7655 68.0288 20.1575V19.883C68.0288 18.275 68.0288 18.1175 67.6786 18.1175H65.9351C64.1915 18.1175 63.92 18.0005 63.92 17.294V14.864C63.92 12.6665 64.6945 12.0395 65.9351 12.0395C66.6221 12.0395 67.0984 12.2315 67.3447 12.332C67.4338 12.368 67.4931 12.392 67.5228 12.392C67.64 12.392 67.64 12.0395 67.64 10.5485V10.0385C67.64 8.588 67.64 8.471 67.5629 8.3915C67.37 8.2745 66.168 8 64.423 8C60.0055 8 57.7189 10.274 57.7189 14.8625V17.294C57.7189 17.999 57.526 18.119 56.0911 18.119H55.2794C55.0064 18.1175 54.9678 18.275 54.9678 19.8815V20.156C54.9678 21.7625 55.0064 21.959 55.2779 21.959H55.9753V21.9605ZM94.4758 12.0395V34.04C94.4758 37.529 94.4373 37.6865 94.0099 37.6865H88.7407C88.3133 37.6865 88.2362 37.529 88.2362 34.04V12.0395C88.2362 8.549 88.3133 8.393 88.7407 8.393H94.0099C94.4373 8.393 94.4758 8.549 94.4758 12.0395Z" fill="black"/>
<path fill-rule="evenodd" clip-rule="evenodd" d="M79.6978 24.902V24.0785C79.6978 22.118 78.8075 21.3335 77.2569 21.3335C75.7448 21.3335 74.9316 22.157 74.6987 23.6075C74.6811 23.7105 74.6667 23.814 74.6556 23.918C74.623 24.197 74.6007 24.392 74.4271 24.392H69.198C68.8864 24.392 68.8864 24.314 68.8864 24.0395C68.8864 21.9605 70.8258 17.6465 77.567 17.6465C82.3347 17.6465 85.7461 19.568 85.7461 24.902V32.7455C85.7461 33.9965 86.2105 35.6045 86.4969 36.5915C86.6231 37.0265 86.7136 37.3415 86.7136 37.451C86.7136 37.607 86.5978 37.6865 86.4806 37.6865H80.6683C80.3967 37.6865 80.3582 37.529 80.1638 36.5495L80.0094 35.804C79.8937 35.216 79.8165 35.0195 79.5836 35.0195C79.4248 35.0195 79.2957 35.204 79.0939 35.495C78.901 35.774 78.6428 36.1475 78.2273 36.5495C77.2969 37.412 76.1736 38 74.2357 38C71.0958 38 68.2676 36.1955 68.2676 32.2745C68.2676 27.8825 71.6389 26 76.6381 25.8035C77.1842 25.7795 77.6367 25.772 78.0092 25.766C79.41 25.7435 79.7008 25.7375 79.7008 24.902H79.6978ZM79.6978 30.587V29.804C79.6978 29.0195 79.5049 28.784 78.8461 28.823L77.4112 28.9025C75.5905 29.0195 74.5058 29.96 74.5058 31.7255C74.5058 33.4505 75.4362 34.3145 76.7909 34.3145C78.3045 34.3145 79.6993 32.9015 79.6993 30.5885L79.6978 30.587Z" fill="black"/>
<defs>
<clipPath id="clip0_537_1018">
<rect width="46" height="46" fill="white"/>
</clipPath>
</defs>
</svg>
