<svg width="46" height="46" viewBox="0 0 46 46" fill="none" xmlns="http://www.w3.org/2000/svg">
<path d="M43.5543 5.91865C41.2601 4.55398 38.1608 3.83331 34.5843 3.83331C29.1142 3.83331 23.0843 5.51423 17.6678 8.43906L17.6295 8.42565L17.6218 8.4659C15.9831 9.35523 14.3942 10.3461 12.903 11.4521C4.11508 17.9706 1.65408 25.7063 3.73175 29.8425C1.45667 33.6221 0.0575 37.5341 0 42.1666C4.37 34.0534 6.992 27.4792 21.229 16.4105C17.1618 17.2596 10.1315 21.2884 5.40117 27.4026C4.95458 23.8261 7.8545 18.0511 14.3137 13.2595C15.134 12.6538 15.9831 12.0865 16.8513 11.5479C16.1728 13.6006 16.3913 13.0908 14.9826 15.9696C17.0641 14.0511 18.4326 12.8646 20.4892 9.57756C23.0996 8.31873 25.8509 7.37609 28.6848 6.76965C28.2287 8.23973 27.3623 10.7314 26.1893 12.7017C26.1893 12.7017 29.1659 12.0807 31.6269 12.2226C30.2833 13.6658 29.072 15.2298 27.8453 16.8283C26.1663 19.0171 24.4298 21.2788 22.2046 23.3852C21.9362 23.6401 21.6813 23.8701 21.4226 24.1078C18.0032 23.7877 15.7473 25.0336 13.6313 27.232C15.2988 26.4749 17.5413 25.852 18.9443 26.2276C16.3568 28.2842 12.2801 30.9944 8.93167 30.7701C8.29533 31.7131 8.25508 31.7419 7.55742 32.8785C12.9912 34.1971 19.8145 28.819 23.8299 25.0144C26.1855 22.7834 27.9795 20.447 29.7141 18.1911C33.2829 13.5393 36.3668 9.52198 43.2074 7.9944L46 7.37148L43.5543 5.91865Z" fill="#FFE184"/>
</svg>
