<svg width="46" height="46" viewBox="0 0 46 46" fill="none" xmlns="http://www.w3.org/2000/svg">
<path opacity="0.35" fill-rule="evenodd" clip-rule="evenodd" d="M45.1488 23.3622C45.6165 23.3622 45.9998 23.6037 45.9998 23.8989V25.7217C45.9998 26.0168 45.6165 26.2583 45.1488 26.2583C44.6812 26.2583 44.2978 26.0168 44.2978 25.7217V23.897C44.2978 23.6037 44.6812 23.3622 45.1488 23.3622ZM41.7678 24.0752C42.2355 24.0752 42.6188 24.3167 42.6188 24.6119V28.6273C42.6188 28.9206 42.2355 29.1621 41.7678 29.1621C41.2983 29.1621 40.9168 28.9206 40.9168 28.6254V24.61C40.9168 24.3167 41.3002 24.0752 41.7678 24.0752ZM38.3849 24.9071C38.8526 24.9071 39.2359 25.1467 39.2359 25.4418V29.9556C39.2359 30.2507 38.8526 30.4922 38.3849 30.4922C37.9173 30.4922 37.5339 30.2507 37.5339 29.9556V25.4418C37.5339 25.1467 37.9173 24.9071 38.3849 24.9071ZM35.0039 25.5952C35.4716 25.5952 35.8549 25.8347 35.8549 26.1299V30.5957C35.8549 30.889 35.4716 31.1305 35.0039 31.1305C34.5363 31.1305 34.1529 30.889 34.1529 30.5938V26.128C34.1529 25.8347 34.5363 25.5952 35.0039 25.5952ZM31.621 26.2008C32.0906 26.2008 32.472 26.4423 32.472 26.7375V30.6034C32.472 30.8986 32.0887 31.1401 31.621 31.1401C31.1533 31.1401 30.77 30.8986 30.77 30.6034V26.7375C30.77 26.4423 31.1533 26.2008 31.621 26.2008ZM28.2573 28.6676C28.7249 28.6676 29.1083 28.9072 29.1083 29.2042V30.4309C29.1083 30.7242 28.7249 30.9638 28.2573 30.9638C27.7896 30.9638 27.4062 30.7242 27.4062 30.429V29.2023C27.4062 28.9072 27.7896 28.6676 28.2573 28.6676Z" fill="black"/>
<path fill-rule="evenodd" clip-rule="evenodd" d="M45.149 18.4575C45.6167 18.4575 46 18.6971 46 18.9922V22.011C46 22.3062 45.6167 22.5477 45.149 22.5477C44.6813 22.5477 44.298 22.3062 44.298 22.011V18.9922C44.298 18.6971 44.6813 18.4556 45.149 18.4556V18.4575ZM41.768 16.4297C42.2357 16.4297 42.619 16.6692 42.619 16.9663V22.3522C42.619 22.6454 42.2357 22.885 41.768 22.885C41.2984 22.885 40.917 22.6454 40.917 22.3502V16.9644C40.917 16.6692 41.3003 16.4297 41.768 16.4297ZM38.3851 15.6668C38.8528 15.6668 39.2361 15.9083 39.2361 16.2035V23.2319C39.2361 23.5252 38.8528 23.7686 38.3851 23.7686C37.9174 23.7686 37.5341 23.5252 37.5341 23.2319V16.2016C37.5341 15.9083 37.9174 15.6668 38.3851 15.6668ZM35.0041 15.3333C35.4718 15.3333 35.8551 15.5748 35.8551 15.87V24.0925C35.8551 24.3877 35.4718 24.6292 35.0041 24.6292C34.5364 24.6292 34.1531 24.3877 34.1531 24.0925V15.87C34.1531 15.5748 34.5364 15.3333 35.0041 15.3333ZM31.6212 15.5422C32.0907 15.5422 32.4722 15.7837 32.4722 16.0789V24.426C32.4722 24.7212 32.0888 24.9627 31.6212 24.9627C31.1535 24.9627 30.7702 24.7212 30.7702 24.426V16.077C30.7702 15.7837 31.1535 15.5403 31.6212 15.5403V15.5422ZM28.2574 16.0655C28.7251 16.0655 29.1084 16.3051 29.1084 16.6022V27.0173C29.1084 27.3106 28.7251 27.554 28.2574 27.554C27.7897 27.554 27.4064 27.3125 27.4064 27.0173V16.5983C27.4064 16.3032 27.7897 16.0617 28.2574 16.0617V16.0655ZM24.8055 16.9529C25.2732 16.9529 25.6565 17.1925 25.6565 17.4877V29.2982C25.6565 29.5933 25.2732 29.8348 24.8055 29.8348C24.3378 29.8348 23.9545 29.5933 23.9545 29.2982V17.4877C23.9545 17.1925 24.3378 16.951 24.8055 16.951V16.9529ZM21.4245 18.4556C21.8922 18.4556 22.2755 18.6971 22.2755 18.9922V30.3542C22.2755 30.6494 21.8922 30.8909 21.4245 30.8909C20.9549 30.8909 20.5735 30.6494 20.5735 30.3542V18.9922C20.5735 18.6971 20.9568 18.4556 21.4245 18.4556ZM18.0416 20.4144C18.5112 20.4144 18.8926 20.6559 18.8926 20.9511V30.843C18.8926 31.1382 18.5092 31.3797 18.0416 31.3797C17.5739 31.3797 17.1906 31.1382 17.1906 30.843V20.9492C17.1906 20.654 17.5739 20.4125 18.0416 20.4125V20.4144ZM14.6606 21.7676C15.1283 21.7676 15.5116 22.0091 15.5116 22.3042V32.0486C15.5116 32.3418 15.1283 32.5833 14.6606 32.5833C14.1929 32.5833 13.8096 32.3418 13.8096 32.0467V22.3042C13.8096 22.0091 14.1929 21.7676 14.6606 21.7676ZM11.2949 22.8888C11.7645 22.8888 12.1459 23.1303 12.1459 23.4255V28.6101C12.1459 28.9052 11.7626 29.1467 11.2949 29.1467C10.8273 29.1467 10.4439 28.9052 10.4439 28.6101V23.4236C10.4439 23.1303 10.8273 22.8888 11.2949 22.8888ZM7.81233 17.8327C8.28 17.8327 8.66333 18.0742 8.66333 18.3693V25.5971C8.66333 25.8922 8.28 26.1337 7.81233 26.1337C7.34467 26.1337 6.96133 25.8922 6.96133 25.5971V18.3693C6.96133 18.0742 7.34467 17.8327 7.81233 17.8327ZM4.3355 18.3061C4.80317 18.3061 5.18458 18.5476 5.18458 18.8427V21.0661C5.18458 21.3593 4.80125 21.6008 4.3355 21.6008C3.86592 21.6008 3.4845 21.3593 3.4845 21.0642V18.8408C3.4845 18.5476 3.86783 18.3061 4.3355 18.3061ZM0.851 18.0071C1.31867 18.0071 1.702 18.2486 1.702 18.5437V19.5462C1.702 19.8394 1.31867 20.0809 0.851 20.0809C0.383333 20.0809 0 19.8394 0 19.5442V18.5437C0 18.2486 0.383333 18.0071 0.851 18.0071ZM11.2968 17.1599C11.7645 17.1599 12.1459 17.4014 12.1459 17.6966V18.4479C12.1459 18.7431 11.7626 18.9846 11.2949 18.9846C10.8273 18.9846 10.4439 18.7431 10.4439 18.4479V17.6947C10.4439 17.3995 10.8273 17.158 11.2949 17.158L11.2968 17.1599Z" fill="black"/>
</svg>
