<svg width="302" height="46" viewBox="0 0 302 46" fill="none" xmlns="http://www.w3.org/2000/svg">
<path opacity="0.35" fill-rule="evenodd" clip-rule="evenodd" d="M45.1488 23.3622C45.6165 23.3622 45.9998 23.6037 45.9998 23.8989V25.7217C45.9998 26.0168 45.6165 26.2583 45.1488 26.2583C44.6812 26.2583 44.2978 26.0168 44.2978 25.7217V23.897C44.2978 23.6037 44.6812 23.3622 45.1488 23.3622ZM41.7678 24.0752C42.2355 24.0752 42.6188 24.3167 42.6188 24.6119V28.6273C42.6188 28.9206 42.2355 29.1621 41.7678 29.1621C41.2983 29.1621 40.9168 28.9206 40.9168 28.6254V24.61C40.9168 24.3167 41.3002 24.0752 41.7678 24.0752ZM38.3849 24.9071C38.8526 24.9071 39.2359 25.1467 39.2359 25.4418V29.9556C39.2359 30.2507 38.8526 30.4922 38.3849 30.4922C37.9173 30.4922 37.5339 30.2507 37.5339 29.9556V25.4418C37.5339 25.1467 37.9173 24.9071 38.3849 24.9071ZM35.0039 25.5952C35.4716 25.5952 35.8549 25.8347 35.8549 26.1299V30.5957C35.8549 30.889 35.4716 31.1305 35.0039 31.1305C34.5363 31.1305 34.1529 30.889 34.1529 30.5938V26.128C34.1529 25.8347 34.5363 25.5952 35.0039 25.5952ZM31.621 26.2008C32.0906 26.2008 32.472 26.4423 32.472 26.7375V30.6034C32.472 30.8986 32.0887 31.1401 31.621 31.1401C31.1533 31.1401 30.77 30.8986 30.77 30.6034V26.7375C30.77 26.4423 31.1533 26.2008 31.621 26.2008ZM28.2573 28.6676C28.7249 28.6676 29.1083 28.9072 29.1083 29.2042V30.4309C29.1083 30.7242 28.7249 30.9638 28.2573 30.9638C27.7896 30.9638 27.4062 30.7242 27.4062 30.429V29.2023C27.4062 28.9072 27.7896 28.6676 28.2573 28.6676Z" fill="black"/>
<path fill-rule="evenodd" clip-rule="evenodd" d="M45.149 18.4575C45.6167 18.4575 46 18.6971 46 18.9922V22.011C46 22.3062 45.6167 22.5477 45.149 22.5477C44.6813 22.5477 44.298 22.3062 44.298 22.011V18.9922C44.298 18.6971 44.6813 18.4556 45.149 18.4556V18.4575ZM41.768 16.4297C42.2357 16.4297 42.619 16.6692 42.619 16.9663V22.3522C42.619 22.6454 42.2357 22.885 41.768 22.885C41.2984 22.885 40.917 22.6454 40.917 22.3502V16.9644C40.917 16.6692 41.3003 16.4297 41.768 16.4297ZM38.3851 15.6668C38.8528 15.6668 39.2361 15.9083 39.2361 16.2035V23.2319C39.2361 23.5252 38.8528 23.7686 38.3851 23.7686C37.9174 23.7686 37.5341 23.5252 37.5341 23.2319V16.2016C37.5341 15.9083 37.9174 15.6668 38.3851 15.6668ZM35.0041 15.3333C35.4718 15.3333 35.8551 15.5748 35.8551 15.87V24.0925C35.8551 24.3877 35.4718 24.6292 35.0041 24.6292C34.5364 24.6292 34.1531 24.3877 34.1531 24.0925V15.87C34.1531 15.5748 34.5364 15.3333 35.0041 15.3333ZM31.6212 15.5422C32.0907 15.5422 32.4722 15.7837 32.4722 16.0789V24.426C32.4722 24.7212 32.0888 24.9627 31.6212 24.9627C31.1535 24.9627 30.7702 24.7212 30.7702 24.426V16.077C30.7702 15.7837 31.1535 15.5403 31.6212 15.5403V15.5422ZM28.2574 16.0655C28.7251 16.0655 29.1084 16.3051 29.1084 16.6022V27.0173C29.1084 27.3106 28.7251 27.554 28.2574 27.554C27.7897 27.554 27.4064 27.3125 27.4064 27.0173V16.5983C27.4064 16.3032 27.7897 16.0617 28.2574 16.0617V16.0655ZM24.8055 16.9529C25.2732 16.9529 25.6565 17.1925 25.6565 17.4877V29.2982C25.6565 29.5933 25.2732 29.8348 24.8055 29.8348C24.3378 29.8348 23.9545 29.5933 23.9545 29.2982V17.4877C23.9545 17.1925 24.3378 16.951 24.8055 16.951V16.9529ZM21.4245 18.4556C21.8922 18.4556 22.2755 18.6971 22.2755 18.9922V30.3542C22.2755 30.6494 21.8922 30.8909 21.4245 30.8909C20.9549 30.8909 20.5735 30.6494 20.5735 30.3542V18.9922C20.5735 18.6971 20.9568 18.4556 21.4245 18.4556ZM18.0416 20.4144C18.5112 20.4144 18.8926 20.6559 18.8926 20.9511V30.843C18.8926 31.1382 18.5092 31.3797 18.0416 31.3797C17.5739 31.3797 17.1906 31.1382 17.1906 30.843V20.9492C17.1906 20.654 17.5739 20.4125 18.0416 20.4125V20.4144ZM14.6606 21.7676C15.1283 21.7676 15.5116 22.0091 15.5116 22.3042V32.0486C15.5116 32.3418 15.1283 32.5833 14.6606 32.5833C14.1929 32.5833 13.8096 32.3418 13.8096 32.0467V22.3042C13.8096 22.0091 14.1929 21.7676 14.6606 21.7676ZM11.2949 22.8888C11.7645 22.8888 12.1459 23.1303 12.1459 23.4255V28.6101C12.1459 28.9052 11.7626 29.1467 11.2949 29.1467C10.8273 29.1467 10.4439 28.9052 10.4439 28.6101V23.4236C10.4439 23.1303 10.8273 22.8888 11.2949 22.8888ZM7.81233 17.8327C8.28 17.8327 8.66333 18.0742 8.66333 18.3693V25.5971C8.66333 25.8922 8.28 26.1337 7.81233 26.1337C7.34467 26.1337 6.96133 25.8922 6.96133 25.5971V18.3693C6.96133 18.0742 7.34467 17.8327 7.81233 17.8327ZM4.3355 18.3061C4.80317 18.3061 5.18458 18.5476 5.18458 18.8427V21.0661C5.18458 21.3593 4.80125 21.6008 4.3355 21.6008C3.86592 21.6008 3.4845 21.3593 3.4845 21.0642V18.8408C3.4845 18.5476 3.86783 18.3061 4.3355 18.3061ZM0.851 18.0071C1.31867 18.0071 1.702 18.2486 1.702 18.5437V19.5462C1.702 19.8394 1.31867 20.0809 0.851 20.0809C0.383333 20.0809 0 19.8394 0 19.5442V18.5437C0 18.2486 0.383333 18.0071 0.851 18.0071ZM11.2968 17.1599C11.7645 17.1599 12.1459 17.4014 12.1459 17.6966V18.4479C12.1459 18.7431 11.7626 18.9846 11.2949 18.9846C10.8273 18.9846 10.4439 18.7431 10.4439 18.4479V17.6947C10.4439 17.3995 10.8273 17.158 11.2949 17.158L11.2968 17.1599Z" fill="black"/>
<path fill-rule="evenodd" clip-rule="evenodd" d="M56.0735 37.367C55.3549 37.367 54.9941 37.067 54.9941 36.47V8.8985C54.9941 8.2985 55.3534 8 56.0735 8H78.8429C79.5615 8 79.9208 8.3 79.9208 8.8985V12.1745C79.9208 12.7745 79.5615 13.073 78.8429 13.073H60.9792V20.168H76.1917C76.9103 20.168 77.2711 20.468 77.2711 21.0665V24.3425C77.2711 24.9425 76.9118 25.241 76.1917 25.241H60.9822V36.47C60.9822 37.0685 60.6214 37.367 59.9013 37.367H56.0735ZM111.328 37.9805C108.594 37.9805 106.067 37.6265 103.749 36.9185C103.195 36.755 102.84 36.5855 102.684 36.4085C102.529 36.2315 102.451 35.939 102.451 35.531V34.061C102.451 33.5165 102.693 33.2435 103.177 33.2435C103.365 33.2435 103.701 33.293 104.183 33.392L104.632 33.488C107.087 34.0325 109.303 34.3055 111.276 34.3055C113.008 34.3055 114.27 34.0955 115.066 33.6725C115.862 33.251 116.261 32.6045 116.261 31.733C116.261 31.133 116.018 30.6515 115.533 30.284C115.087 29.9435 114.285 29.5985 113.13 29.249L108.524 27.854C104.647 26.684 102.71 24.779 102.71 22.1375C102.71 20.2325 103.609 18.728 105.409 17.6255C107.21 16.523 109.615 15.9725 112.626 15.9725C114.773 15.9725 116.936 16.2575 119.115 16.829C119.635 16.9655 119.981 17.1215 120.154 17.2985C120.328 17.4755 120.413 17.7815 120.413 18.218V19.6475C120.413 19.9475 120.353 20.1575 120.232 20.279C120.112 20.402 119.895 20.4635 119.584 20.4635C119.333 20.4472 119.084 20.4136 118.838 20.363L118.285 20.258C116.105 19.8515 114.34 19.6475 112.99 19.6475C111.397 19.6475 110.229 19.8305 109.485 20.198C108.741 20.5655 108.368 21.143 108.368 21.9335C108.368 22.5335 108.638 23.015 109.174 23.3825C109.71 23.75 110.671 24.152 112.056 24.587L116.053 25.8125C118.129 26.438 119.626 27.1865 120.544 28.058C121.461 28.928 121.921 30.032 121.921 31.3655C121.921 33.407 120.985 35.0195 119.115 36.2045C117.247 37.3895 114.651 37.9805 111.328 37.9805ZM131.436 37.367C130.716 37.367 130.356 37.067 130.356 36.47V9.125C130.356 8.525 130.716 8.225 131.434 8.225H135.067C135.786 8.225 136.145 8.525 136.145 9.125V17.1605C136.654 16.7885 140.033 15.683 143.141 15.683C146.255 15.683 149.576 16.496 150.82 17.543C152.063 18.593 152.684 20.1095 152.684 22.097V36.47C152.684 37.0685 152.325 37.367 151.605 37.367H147.973C147.255 37.367 146.894 37.067 146.894 36.47V25.079C146.894 23.744 146.56 22.3415 145.912 21.761C145.265 21.1805 143.3 20.765 141.861 20.765C139.701 20.765 136.147 21.2195 136.147 22.64V36.47C136.147 37.0685 135.788 37.367 135.067 37.367H131.436ZM185.731 9.071C186.06 9.071 186.323 9.14 186.517 9.275C186.697 9.41404 186.834 9.6012 186.913 9.815L196.573 35.9795L196.683 36.2945L196.761 36.5405C196.793 36.6367 196.813 36.7364 196.822 36.8375C196.825 36.9122 196.809 36.9865 196.777 37.0539C196.744 37.1213 196.696 37.1799 196.636 37.2245C196.484 37.3279 196.302 37.378 196.118 37.367H192.017C191.711 37.367 191.484 37.307 191.332 37.184C191.181 37.061 191.05 36.851 190.939 36.551L183.785 16.7765L176.672 36.551C176.562 36.878 176.43 37.0955 176.279 37.205C176.127 37.313 175.9 37.367 175.596 37.367H171.659C171.475 37.378 171.293 37.3279 171.141 37.2245C171.081 37.18 171.032 37.1216 171 37.0541C170.967 36.9867 170.951 36.9124 170.954 36.8375C170.954 36.728 171.036 36.4415 171.202 35.9795L180.846 9.9695C180.957 9.6425 181.108 9.4115 181.301 9.275C181.496 9.14 181.756 9.071 182.088 9.071H185.731ZM211.638 37.9805C209.316 37.9805 207.524 37.442 206.264 36.368C205.006 35.2925 204.376 33.7475 204.376 31.733V17.483C204.376 16.883 204.735 16.5845 205.455 16.5845H209.087C209.806 16.5845 210.166 16.8845 210.166 17.483V30.3035C210.166 31.6385 210.494 32.618 211.148 33.2435C211.803 33.8705 212.849 34.1825 214.289 34.1825C216.317 34.1825 218.361 33.6245 220.422 32.5085V17.483C220.422 16.883 220.782 16.5845 221.502 16.5845H225.133C225.853 16.5845 226.213 16.8845 226.213 17.483V36.47C226.213 37.0685 225.853 37.367 225.135 37.367H221.597C221.139 37.367 220.88 36.929 220.815 36.629V36.368C217.74 38.3 214.681 37.9805 211.638 37.9805ZM241.719 37.8155C238.578 37.8155 236.066 36.8435 234.186 34.898C232.304 32.951 231.364 30.3305 231.364 27.038C231.364 24.7775 231.813 22.811 232.713 21.137C233.612 19.463 234.864 18.1835 236.467 17.2985C238.07 16.4135 239.919 15.9725 242.012 15.9725C244.63 15.9725 246.84 16.25 249.177 17.1365V9.125C249.177 8.525 249.536 8.2265 250.258 8.2265H253.888C254.608 8.2265 254.969 8.5265 254.969 9.1265V36.4715C254.969 37.07 254.609 37.3685 253.888 37.3685H250.645C249.927 37.3685 249.553 37.163 249.422 36.6185V36.164C247.198 37.799 244.63 37.8185 241.719 37.8185V37.8155ZM243.535 34.0205C245.464 34.0205 247.346 33.503 249.178 32.468V21.239C247.509 20.2595 245.66 19.769 243.632 19.769C241.44 19.769 239.829 20.348 238.798 21.5045C237.768 22.661 237.253 24.437 237.253 26.8325C237.253 31.6235 239.346 34.0205 243.535 34.0205ZM263.737 37.367C263.018 37.367 262.659 37.037 262.659 36.377V16.502C262.659 15.842 263.018 15.512 263.737 15.512H267.368C268.088 15.512 268.448 15.842 268.448 16.502V36.377C268.448 37.037 268.088 37.367 267.37 37.367H263.737ZM87.7127 37.367C86.9941 37.367 86.6349 37.037 86.6349 36.377V16.502C86.6349 15.842 86.9941 15.512 87.7127 15.512H91.3444C92.0645 15.512 92.4238 15.842 92.4238 16.502V36.377C92.4238 37.037 92.0645 37.367 91.3459 37.367H87.7127ZM263.737 13.7615C263.018 13.7615 262.659 13.4615 262.659 12.863V8.8985C262.659 8.2985 263.018 8 263.737 8H267.368C268.088 8 268.448 8.3 268.448 8.8985V12.863C268.448 13.463 268.088 13.7615 267.37 13.7615H263.737ZM87.7127 13.7615C86.9941 13.7615 86.6349 13.4615 86.6349 12.863V8.8985C86.6349 8.2985 86.9941 8 87.7127 8H91.3444C92.0645 8 92.4238 8.3 92.4238 8.8985V12.863C92.4238 13.463 92.0645 13.7615 91.3459 13.7615H87.7127ZM286.934 37.9805C283.139 37.9805 280.178 37.007 278.053 35.0615C275.925 33.1145 274.862 30.4115 274.862 26.9555C274.862 23.498 275.925 20.804 278.051 18.8705C280.178 16.9385 283.139 15.9725 286.934 15.9725C290.729 15.9725 293.69 16.9385 295.816 18.8705C297.942 20.804 299.006 23.498 299.006 26.9555C299.006 30.413 297.943 33.1145 295.817 35.0615C293.69 37.007 290.728 37.9805 286.934 37.9805ZM286.934 34.1825C291.056 34.1825 293.117 31.7735 293.117 26.9555C293.117 22.1645 291.056 19.7705 286.934 19.7705C282.812 19.7705 280.752 22.1645 280.752 26.9555C280.752 31.7735 282.812 34.1825 286.934 34.1825Z" fill="black"/>
</svg>
