<svg width="46" height="46" viewBox="0 0 46 46" fill="none" xmlns="http://www.w3.org/2000/svg">
<path fill-rule="evenodd" clip-rule="evenodd" d="M3.83301 32.8746C3.83301 27.7054 8.05351 23.5156 13.2036 23.5156C18.3019 23.5156 22.4803 27.6651 22.4803 32.7826C22.4803 37.9001 18.3479 42.0497 13.2496 42.0497H3.83301V32.8746ZM42.1663 42.1666H32.7498C27.6514 42.1666 23.5172 38.0171 23.5172 32.8996C23.5172 27.7821 27.6955 23.6325 32.7938 23.6325C37.9458 23.6325 42.1663 27.8223 42.1663 32.9916V42.1666ZM42.1663 13.1253C42.1663 18.2946 37.9458 22.4844 32.7958 22.4844C27.6974 22.4844 23.5191 18.3348 23.5191 13.2173C23.5191 8.09981 27.6514 3.95023 32.7498 3.95023H42.1663V13.1253ZM3.83301 3.83331H13.2496C18.3479 3.83331 22.4822 7.9829 22.4822 13.1004C22.4822 18.2179 18.3038 22.3675 13.2036 22.3675C8.05351 22.3675 3.83301 18.1776 3.83301 13.0084V3.83331Z" fill="black"/>
</svg>
