<svg width="46" height="46" viewBox="0 0 46 46" fill="none" xmlns="http://www.w3.org/2000/svg">
<path fill-rule="evenodd" clip-rule="evenodd" d="M25.208 5.75C23.9813 5.75 22.9885 6.7275 22.9885 7.92925V36.11C22.9885 37.3137 23.9832 38.2892 25.2099 38.2892H31.5503C32.7769 38.2892 33.7697 37.3117 33.7697 36.11V7.92925C33.7717 6.7275 32.7769 5.75 31.5503 5.75H25.208ZM13.248 5.90525C12.6462 5.90525 12.0999 6.141 11.7012 6.52433C11.6993 6.52817 11.6936 6.52433 11.6955 6.5205C11.6955 6.51667 11.6917 6.51475 11.6897 6.51858L11.6227 6.60483C11.5224 6.71122 11.4332 6.82745 11.3563 6.95175C11.1454 7.22775 10.9614 7.51908 10.8062 7.82575L0.772417 27.5233L0.205083 28.7768C0.194458 28.7984 0.184234 28.8201 0.174417 28.842L0.113083 28.9762C0.113083 28.98 0.113083 28.98 0.116917 28.98C0.0386924 29.2075 -0.000197428 29.4467 0.00191667 29.6873L0 36.1713C0.00300455 36.4583 0.0625013 36.7418 0.175093 37.0058C0.287684 37.2697 0.451165 37.5089 0.6562 37.7097C0.861235 37.9104 1.10381 38.0688 1.37007 38.1758C1.63633 38.2829 1.92106 38.3364 2.208 38.3333H8.832C9.11894 38.3364 9.40367 38.2829 9.66993 38.1758C9.93619 38.0688 10.1788 37.9104 10.3838 37.7097C10.5888 37.5089 10.7523 37.2697 10.8649 37.0058C10.9775 36.7418 11.037 36.4583 11.04 36.1713V25.3613C11.04 20.5869 14.9941 16.7152 19.872 16.7152C20.1589 16.7183 20.4437 16.6648 20.7099 16.5578C20.9762 16.4508 21.2188 16.2923 21.4238 16.0916C21.6288 15.8908 21.7923 15.6516 21.9049 15.3877C22.0175 15.1237 22.077 14.8402 22.08 14.5532V8.06725C22.077 7.78031 22.0175 7.49677 21.9049 7.23282C21.7923 6.96887 21.6288 6.72969 21.4238 6.52892C21.2188 6.32816 20.9762 6.16975 20.7099 6.06274C20.4437 5.95573 20.1589 5.90221 19.872 5.90525H13.248ZM34.96 32.9302C34.96 29.9441 37.4325 27.5252 40.48 27.5252C43.5275 27.5252 46 29.9441 46 32.9302C46 35.9107 43.5275 38.3333 40.48 38.3333C37.4325 38.3333 34.96 35.9164 34.96 32.9302Z" fill="black"/>
</svg>
