<svg width="46" height="46" viewBox="0 0 46 46" fill="none" xmlns="http://www.w3.org/2000/svg">
<g clip-path="url(#clip0_522_392)">
<path fill-rule="evenodd" clip-rule="evenodd" d="M23.6517 11.4099C23.4437 10.7031 23.2855 9.98259 23.1783 9.25367V7.13C27.1424 7.16925 30.9472 8.69608 33.8388 11.408L23.6517 11.4099ZM22.3292 11.4099C22.5457 10.695 22.7106 9.96283 22.8217 9.21533V7.13C18.8576 7.16925 15.0528 8.69608 12.1612 11.408H22.3272L22.3292 11.4099ZM11.9159 11.7683H22.2142C22.0645 12.2207 21.8937 12.6659 21.7024 13.1023C20.9113 14.9946 19.7664 16.7185 18.3291 18.1815L11.9159 11.7683ZM11.4099 11.4099H5.70592V11.7683H11.293C8.43195 14.7414 6.81577 18.6958 6.77542 22.8217H0V23.1783H6.77542C6.81577 27.3042 8.43195 31.2586 11.293 34.2317H5.70592V34.5882H11.4099V40.2941H11.7683V34.707C14.7414 37.568 18.6958 39.1842 22.8217 39.2246V46H23.1783V39.2246C27.3042 39.1842 31.2586 37.568 34.2317 34.707V40.2941H34.5882V34.5882H40.2941V34.2317H34.707C37.568 31.2586 39.1842 27.3042 39.2246 23.1783H46V22.8217H39.2246C39.1842 18.6958 37.568 14.7414 34.707 11.7683H40.2941V11.4099H34.5882V5.70592H34.2317V11.293C31.2586 8.43195 27.3042 6.81577 23.1783 6.77542V0H22.8217V6.77542C18.6958 6.81577 14.7414 8.43195 11.7683 11.293V5.70592H11.4099V11.4099ZM23.1783 38.8681C27.1426 38.8283 30.9474 37.3008 33.8388 34.5882H23.6517C23.4447 35.2916 23.2875 36.0123 23.1783 36.7463V38.8681ZM22.8217 36.7847C22.7109 36.0414 22.5456 35.3073 22.3272 34.5882H12.1612C15.0526 37.3008 18.8574 38.8283 22.8217 38.8681V36.7847ZM7.13192 22.8217H9.25367C9.98259 22.7145 10.7031 22.5563 11.4099 22.3483V12.1612C8.698 15.0528 7.17116 18.8576 7.13192 22.8217ZM9.21533 23.1783H7.13C7.16925 27.1424 8.69608 30.9472 11.408 33.8388V23.6727C10.6895 23.4545 9.95797 23.2892 9.21533 23.1783ZM38.8662 22.8217C38.8269 18.8576 37.3001 15.0528 34.5882 12.1612V22.3483C35.2916 22.5553 36.0123 22.7125 36.7463 22.8217H38.8662ZM36.7847 23.1783C36.0372 23.2894 35.305 23.4542 34.5882 23.6727V33.8388C37.3008 30.9474 38.8283 27.1426 38.8681 23.1783H36.7847ZM34.2317 34.0841V23.7858C33.7793 23.9355 33.3341 24.1063 32.8977 24.2976C31.0054 25.0886 29.2815 26.2335 27.8185 27.6709L34.2317 34.0841ZM34.2317 22.2391V11.7932L34.2087 11.7683H23.7609C23.9066 12.2187 24.0714 12.6653 24.2592 13.1023C25.0878 15.0232 26.2706 16.771 27.7457 18.2543C29.2289 19.7301 30.9766 20.9135 32.8977 21.7427C33.3347 21.9286 33.7793 22.0934 34.2317 22.2391ZM11.7683 34.2087V23.7858C12.2187 23.9353 12.6653 24.1059 13.1023 24.2976C15.0268 25.1025 16.7765 26.2735 18.2543 27.7457C19.7264 29.2235 20.8975 30.9733 21.7024 32.8977C21.8941 33.3347 22.0666 33.7793 22.2142 34.2317H11.7913L11.7683 34.2087ZM11.7683 22.2391V12.1248L18.0742 18.4307C16.6294 19.8244 14.9451 20.9464 13.1023 21.7427C12.6655 21.9283 12.2203 22.094 11.7683 22.2391ZM23.7609 34.2317H33.8752L27.5693 27.9258C26.1756 29.3706 25.0536 31.0548 24.2573 32.8977C24.0716 33.3345 23.906 33.7797 23.7609 34.2317ZM19.2625 19.2625C17.6716 20.8465 15.7997 22.1204 13.7425 23.0192C15.8032 23.8945 17.677 25.1567 19.2625 26.7375C20.8433 28.323 22.1055 30.1968 22.9808 32.2575C23.8796 30.2003 25.1535 28.3284 26.7375 26.7375C28.323 25.1567 30.1968 23.8945 32.2575 23.0192C30.2003 22.1204 28.3284 20.8465 26.7375 19.2625C25.1535 17.6717 23.8795 15.7998 22.9808 13.7425C22.1055 15.8032 20.8433 17.677 19.2625 19.2625Z" fill="url(#paint0_linear_522_392)"/>
</g>
<defs>
<linearGradient id="paint0_linear_522_392" x1="1123.27" y1="3476.73" x2="3458.92" y2="1158.92" gradientUnits="userSpaceOnUse">
<stop stop-color="#446EFF"/>
<stop offset="0.36661" stop-color="#2E96FF"/>
<stop offset="0.83221" stop-color="#B1C5FF"/>
</linearGradient>
<clipPath id="clip0_522_392">
<rect width="46" height="46" fill="white"/>
</clipPath>
</defs>
</svg>
