<svg width="46" height="46" viewBox="0 0 46 46" fill="none" xmlns="http://www.w3.org/2000/svg">
<g clip-path="url(#clip0_537_950)">
<path fill-rule="evenodd" clip-rule="evenodd" d="M28.9034 28.0542C29.3212 29.6163 29.785 31.2129 30.2834 32.8708C30.7395 34.385 29.3787 34.9792 28.8363 33.5532C28.2547 32.0294 27.7026 30.4945 27.1803 28.9493C24.2248 30.4347 21.2769 31.6729 17.9362 33.0663C19.2721 37.9788 20.5045 42.0881 22.4212 45.9923C22.6129 45.9981 22.8045 46 23 46C35.7037 46 46 35.7017 46 23C46 18.4383 44.6718 14.1872 42.3814 10.6107C36.4071 11.1492 31.1094 12.0252 26.243 13.1177C26.5762 17.3764 27.2667 21.5997 28.3073 25.7427C30.6553 24.6933 32.9813 23.5954 35.2839 22.4499C37.0473 21.5683 38.7493 21.5107 35.8819 23.759C33.6395 25.323 31.3088 26.7565 28.9014 28.0523L28.9034 28.0542ZM41.5802 9.43958C39.7434 6.92123 37.4137 4.80274 34.7326 3.21293C32.0515 1.62311 29.0751 0.595194 25.9843 0.191667C25.7907 3.29092 25.8501 7.20283 26.0839 10.9307C30.7606 10.2216 35.8474 9.729 41.5802 9.43958ZM22.9272 0C22.7248 3.80187 22.8222 7.61377 23.2185 11.4003C19.9794 11.9715 16.9319 12.6577 13.984 13.4588C13.8556 11.9887 13.7924 10.6471 13.7924 9.47792C13.7924 9.07125 13.6308 8.68124 13.3433 8.39369C13.0557 8.10613 12.6657 7.94458 12.259 7.94458C11.8524 7.94458 11.4624 8.10613 11.1748 8.39369C10.8872 8.68124 10.7257 9.07125 10.7257 9.47792C10.7257 10.9001 10.8426 12.5331 11.0554 14.3041C9.58528 14.7526 8.13436 15.2318 6.69303 15.7416C6.32004 15.8848 6.01769 16.1679 5.85033 16.5307C5.68297 16.8935 5.66382 17.3073 5.79696 17.684C5.93011 18.0607 6.20502 18.3705 6.56319 18.5476C6.92135 18.7246 7.33447 18.7549 7.71461 18.6319C8.96044 18.1911 10.2178 17.7541 11.4885 17.3267C12.1019 21.0833 13.0353 25.2348 14.1105 29.2292C14.2984 29.9249 14.4977 30.6207 14.7047 31.3107C10.7429 32.6753 6.70069 33.7832 3.00344 34.3716C1.02913 30.9073 -0.0061724 26.9874 2.76846e-05 23C2.76846e-05 10.3213 10.258 0.0383333 22.9272 0ZM4.82044 37.0913C6.72146 39.5469 9.10062 41.5916 11.8142 43.1017C14.5277 44.6118 17.5193 45.556 20.608 45.8773C19.0804 43.0733 17.1734 38.7742 15.571 34.0285C12.006 35.3932 8.34711 36.3438 4.81853 37.0913H4.82044ZM26.4213 26.5803C25.3988 23.252 24.6097 19.8564 24.0599 16.4182C23.8424 15.54 23.6652 14.6523 23.529 13.7578C20.4232 14.5339 17.3446 15.4148 14.2984 16.399C14.7737 20.0982 15.5749 24.3033 16.6865 28.4299L17.1925 30.314V30.3178L17.2174 30.406C18.5917 29.8912 19.9553 29.3487 21.3076 28.7788C23.017 28.0602 24.7203 27.3273 26.4174 26.5803H26.4213Z" fill="black"/>
</g>
<defs>
<clipPath id="clip0_537_950">
<rect width="46" height="46" fill="white"/>
</clipPath>
</defs>
</svg>
