<svg width="46" height="46" viewBox="0 0 46 46" fill="none" xmlns="http://www.w3.org/2000/svg">
<path fill-rule="evenodd" clip-rule="evenodd" d="M33.9633 20.9338C34.4175 20.5256 34.4137 20.447 33.9173 19.9487C33.0356 19.067 32.1501 18.1911 31.2684 17.3094C30.8065 16.8475 30.3503 16.376 29.8884 15.9141C29.6929 15.7205 29.5894 15.5442 29.8673 15.3333C30.0245 15.2145 29.9498 15.0861 29.829 14.9845C29.5223 14.7258 29.1716 14.5954 28.7883 14.7679C28.3283 14.973 27.9794 15.2011 27.9219 15.8374C27.7418 17.8327 26.0513 19.067 24.0388 18.7929C22.0665 18.5246 20.7996 16.7958 20.7421 14.996C20.745 14.9045 20.7259 14.8136 20.6866 14.7309C20.6473 14.6483 20.5888 14.5762 20.5159 14.5207C20.2859 14.3482 20.0521 14.1776 19.824 14.0089C19.686 14.1048 19.7282 14.2159 19.755 14.3137C19.8125 14.5207 19.732 14.6395 19.5403 14.7123C18.3367 15.1685 17.1368 15.6381 15.9293 16.0808C15.3045 16.3108 14.6873 16.5581 14.0778 16.8283C13.7489 16.9838 13.4782 17.2403 13.3054 17.5605C12.9758 17.3823 12.9547 17.1254 13.0122 16.8494C13.0464 16.6526 13.1245 16.466 13.2406 16.3034C13.3567 16.1408 13.5079 16.0065 13.683 15.9103C14.3136 15.5538 14.9978 15.3314 15.6706 15.0746C16.7228 14.6721 17.7693 14.2562 18.8235 13.8537C19.0305 13.7732 19.2509 13.7233 19.4752 13.6563C19.5116 13.4799 19.433 13.3189 19.41 13.1541C19.3487 12.7133 19.5442 12.4066 19.9812 12.3395C20.7862 12.2149 21.6027 12.1862 22.4 12.0098C22.975 11.8833 23.5443 11.7415 24.1442 11.7511C25.6813 11.776 26.8428 12.4277 27.6153 13.7598C27.6593 13.8326 27.7073 13.9035 27.7686 13.9993C28.7576 13.4052 29.7351 13.3803 30.6915 14.0856C30.8736 13.8326 30.9924 13.5681 31.1764 13.3438C31.9431 12.4104 32.9513 11.9159 34.1166 11.7089C34.5191 11.638 34.912 11.7434 35.2934 11.8412C36.0946 12.0463 36.913 12.1517 37.7276 12.2743C38.0726 12.3261 38.4233 12.4028 38.5518 12.7918C38.6898 13.2039 38.5671 13.5873 38.1627 13.8556C37.626 14.2121 37.3768 14.6893 37.3385 15.3276C37.2963 16.0808 36.9609 16.7306 36.5067 17.3171C36.1521 17.7771 35.7688 18.216 35.1938 18.4192C34.7951 18.561 34.3983 18.6875 33.9594 18.4307C33.9613 18.7067 34.1377 18.8408 34.2699 18.9884C34.5498 19.3008 34.8315 19.6113 35.0692 19.9583C35.4908 20.5735 35.4544 21.1351 34.9465 21.6794C34.7932 21.8443 34.7683 21.9535 34.9082 22.1682C35.2915 22.7547 35.579 23.3833 35.6423 24.104C35.694 24.6924 35.2513 25.4553 34.6188 25.714C34.3619 25.8175 34.2584 25.9728 34.1607 26.2219C33.7083 27.3662 32.8918 28.0811 31.6383 28.2421C30.7509 28.3571 29.9248 28.1846 29.1735 27.7112C28.8247 27.4927 28.5027 27.4122 28.1251 27.6268C27.7034 27.8664 27.2913 28.129 27.23 28.6503C27.0537 30.1223 26.9866 31.6039 27.0288 33.0855C27.0403 33.4305 27.2108 33.7218 27.4255 33.9825C27.6363 34.2393 27.713 34.5192 27.5309 34.8143C27.046 35.6002 27.2913 36.3189 27.7264 37.0147C27.8913 37.2773 28.0887 37.5226 28.3014 37.7488C28.518 37.9826 28.5506 38.2394 28.4835 38.525C28.4471 38.6803 28.4164 38.8508 28.3321 38.9812C28.0868 39.3683 28.1692 39.744 28.3359 40.1178C29.1793 42.0038 30.1146 43.8227 31.7898 45.1356C31.8223 45.1605 31.8549 45.1931 31.8837 45.2237C32.0063 45.3541 32.1942 45.4921 32.0792 45.6857C32.0178 45.7884 31.9252 45.8688 31.8148 45.915C31.7044 45.9613 31.5821 45.9709 31.4658 45.9425C31.1607 45.8679 30.883 45.7084 30.6647 45.4825C29.3038 44.2022 28.2669 42.7091 27.6862 40.9208C27.6034 40.6651 27.5146 40.4114 27.4198 40.1599C27.2856 39.8015 27.2588 39.4354 27.4466 39.1C27.5961 38.8317 27.5328 38.6055 27.3623 38.4215C26.4614 37.4536 26.3618 36.2557 26.3349 35.0271C26.3292 34.7818 26.3234 34.5249 26.2506 34.2949C25.896 33.1641 25.9305 32.0026 25.9631 30.8449C25.9746 30.4808 25.8462 30.3274 25.5127 30.2412C24.0368 29.8636 22.6722 29.2483 21.5068 28.2555C21.1258 27.9431 20.6677 27.7392 20.1805 27.6652C18.1143 27.2723 16.3357 25.4936 15.9274 23.4332C15.8872 23.2243 15.9063 23.0345 16.0865 22.9157C16.305 22.7738 16.5465 22.6684 16.8148 22.7566C16.926 22.7911 16.9586 22.9042 16.9701 23.0192C17.1752 25.0278 19.0708 26.496 20.9989 26.795C22.4403 27.0154 23.8375 26.8755 25.2405 26.5612C26.149 26.3561 27.0805 26.2641 28.0005 26.1395C28.3973 26.0858 28.7212 26.2449 29.0106 26.4807C29.5396 26.9177 30.1548 27.1611 30.8199 27.2627C31.4601 27.3604 32.0868 27.3106 32.635 26.9081C32.8631 26.7413 33.0548 26.5439 33.1008 26.2603C33.0605 26.2028 33.0164 26.197 32.9781 26.2162C32.2114 26.5918 31.4448 26.4692 30.6915 26.2028C29.6697 25.853 28.7522 25.2519 28.0235 24.4548C27.9342 24.3619 27.8586 24.2567 27.7993 24.1423C27.7073 23.9526 27.7226 23.7667 27.9028 23.6229C28.0829 23.4792 28.2631 23.4447 28.4528 23.6114C29.0374 24.1251 29.6527 24.587 30.4078 24.8266C30.9426 24.9972 31.4754 25.0087 32.0236 24.8783C32.9704 24.6541 32.9647 23.2837 32.4357 22.7125C31.991 22.2353 31.4294 22.1893 30.8544 22.1183C30.4021 22.0608 29.9919 21.919 29.7562 21.4858C29.5568 21.1217 29.6258 20.9358 30.013 20.7939C30.588 20.5831 31.1745 20.4183 31.8013 20.4528C32.3188 20.4834 32.6983 20.7134 32.9378 21.1753C33.0107 21.3191 33.0835 21.4628 33.1755 21.5951C33.3327 21.8193 33.4707 21.8136 33.6163 21.5759C33.7371 21.3747 33.8387 21.16 33.9652 20.9338H33.9633ZM23.7206 13.4301C23.6324 13.8441 23.7973 14.1335 24.2189 14.26C24.5467 14.3616 24.8706 14.4651 25.1523 14.674C25.3555 14.8216 25.528 14.9538 25.3708 15.249C25.3172 15.3487 25.3383 15.5039 25.3574 15.6285C25.4111 15.9678 25.7676 16.2227 26.0532 16.1403C26.3828 16.0444 26.4998 15.8029 26.333 15.4215C26.1548 15.0133 26.0072 14.6108 26.0014 14.1584C25.9881 13.9954 25.9183 13.8422 25.804 13.7253C25.5188 13.3844 25.1296 13.1467 24.6962 13.0487C24.3263 12.972 23.9602 12.9969 23.7187 13.4301H23.7206ZM34.4424 14.3999C34.5689 14.3961 34.7031 14.4287 34.8008 14.3098C35.0883 13.9668 34.8181 13.1771 34.3773 13.1043C34.1652 13.0724 33.9496 13.0711 33.7371 13.1004C33.4055 13.1445 33.3039 13.4167 33.2311 13.6946C33.164 13.9553 33.3576 14.053 33.5378 14.1546C33.8003 14.306 34.0706 14.4306 34.4424 14.3999ZM34.0188 22.6991C33.6873 23.2108 33.7543 23.7648 33.8808 24.3091C33.9098 24.426 33.9801 24.5284 34.0788 24.5975C34.1774 24.6666 34.2978 24.6975 34.4175 24.6848C34.6628 24.6618 34.7338 24.4222 34.7338 24.1941C34.7299 23.5558 34.5038 22.9674 34.3543 22.356C34.1683 22.4078 34.1396 22.5668 34.0188 22.6991ZM35.9068 15.4119C35.7381 15.0478 35.4717 14.9155 35.1401 15.0439C34.8737 15.1493 34.8622 15.3774 34.9101 15.6074C34.9676 15.9083 35.2168 16.1096 35.464 16.0789C35.7515 16.0444 35.924 15.8125 35.9068 15.4119Z" fill="black"/>
<path fill-rule="evenodd" clip-rule="evenodd" d="M34.0146 11.0247C33.4358 10.7602 32.9413 10.9863 32.4525 11.2163C32.1497 11.3582 31.889 11.569 31.6226 11.7683C31.475 11.8776 31.3006 11.9849 31.1166 11.9025C30.9422 11.8201 30.992 11.6246 30.9767 11.4674C30.9652 11.3505 30.9307 11.2297 30.9441 11.1147C31.0821 9.95324 30.3691 9.33033 29.4798 8.84158C29.0236 8.59241 28.5521 8.33175 27.9944 8.37966C27.7356 8.40075 27.5229 8.487 27.4194 8.74958C27.5344 8.89333 27.6896 8.89333 27.8353 8.92016C28.6154 9.06008 29.3571 9.27475 29.9359 9.87466C30.3614 10.3155 30.5474 10.7947 30.2924 11.3907C30.2269 11.5223 30.2078 11.6722 30.2385 11.816C30.2691 11.9598 30.3476 12.0889 30.4611 12.1823C30.6029 12.3146 30.7812 12.4353 30.8253 12.7094C30.4563 12.6644 30.1086 12.5125 29.8248 12.2724C29.6676 12.1421 29.5392 11.9792 29.3916 11.8392C29.1865 11.6476 29.0945 11.4578 29.2095 11.1607C29.3303 10.8483 29.152 10.5608 28.7687 10.3634C28.2397 10.0874 27.6589 9.98008 27.0801 9.86316C26.4323 9.729 25.8132 9.50475 25.3743 8.97191C25.1884 8.74766 24.9948 8.74766 24.7456 8.81858C23.9061 9.05241 23.1126 9.41275 22.3019 9.72325C20.9544 10.235 19.6511 10.8502 18.388 11.5364C16.9352 12.3242 15.4824 13.1272 14.1944 14.1737C13.3748 14.8406 12.7136 15.6812 12.2585 16.6347C12.1244 16.9088 12.0707 17.2097 12.0745 17.5107C12.0861 17.7704 11.9952 18.0244 11.8215 18.2179C11.0434 19.0996 10.8824 20.1116 11.1948 21.2232C11.2849 21.5452 11.3481 21.8711 11.2331 22.2046C11.1852 22.3483 11.1085 22.4595 10.959 22.4921C9.84352 22.7336 8.72419 22.8371 7.64319 22.3732C6.8056 22.0148 6.56027 21.344 6.87269 20.4949C7.14869 19.7455 7.6336 19.1283 8.13769 18.5265C9.52727 16.8628 11.1334 15.4311 12.8623 14.122C14.2053 13.102 15.6167 12.1753 17.0866 11.3486C18.8499 10.3615 20.665 9.48941 22.5625 8.78216C24.2511 8.14966 25.9454 7.53249 27.6858 7.06291C29.1523 6.6526 30.6506 6.36601 32.165 6.20616C33.2345 6.10266 34.3021 6.01833 35.3697 6.21383C35.6974 6.27133 36.0156 6.36908 36.3127 6.52816C36.995 6.89233 37.225 7.46158 36.9203 8.17841C36.6059 8.92208 36.0865 9.52583 35.477 10.051C35.1282 10.3519 34.7659 10.6375 34.4152 10.9384C34.3002 11.0381 34.189 11.1013 34.0146 11.0247ZM14.7866 11.6188C14.3324 12.0137 14.2384 11.9907 14.0966 11.4022C13.7875 10.0844 13.6911 8.72556 13.811 7.37724C13.8781 6.54158 13.9509 5.70783 14.271 4.92391C14.823 3.58608 15.5839 2.39391 16.7033 1.44899C16.8451 1.33016 17.1384 1.19983 17.0138 0.992828C16.8604 0.739828 16.6228 0.985161 16.4541 1.07333C15.7449 1.44899 15.2121 2.01633 14.7924 2.69674C14.1215 3.78924 13.5542 4.92583 13.2839 6.19466C13.1804 6.67766 13.1574 7.17216 13.1057 7.65899C13.0482 8.21483 13.0214 8.77258 13.0252 9.33033C13.0362 9.63397 12.9345 9.93095 12.7396 10.1641C12.362 9.72325 12.2183 9.21725 12.155 8.68441C12.0132 7.4865 12.3601 6.37099 12.7415 5.26124C13.1306 4.12466 13.6692 3.07241 14.478 2.16774C14.9936 1.59083 15.6568 1.24774 16.3238 0.896995C16.7608 0.666995 17.1939 0.429328 17.6386 0.216578C17.9089 0.0881614 18.2002 -0.0057553 18.5107 0.0459947C19.308 0.180161 19.6339 0.745578 19.4575 1.67516C19.2869 2.55491 18.8269 3.31199 18.411 4.08249C17.5964 5.59283 16.7493 7.08783 16.3564 8.78216C16.2088 9.41849 16.0689 10.0548 15.9309 10.6931C15.8829 10.9135 15.7871 11.0707 15.5571 11.1684C15.2926 11.2815 15.0549 11.4559 14.7866 11.6188ZM21.9933 7.93308C20.4216 8.60008 18.8499 9.19808 17.3894 10.1104C17.3109 9.86125 17.3607 9.63508 17.3914 9.42808C17.4719 8.88758 17.5964 8.35475 17.6999 7.81808C17.7383 7.613 17.8379 7.51141 18.0641 7.49224C18.4551 7.45391 18.7924 7.24883 19.1432 7.08591C20.6753 6.35734 22.2891 5.8149 23.9502 5.47016C24.4581 5.36858 24.9737 5.36283 25.4893 5.37816C25.5602 5.38008 25.6484 5.39541 25.7001 5.43758C25.9761 5.67716 26.2444 5.92249 26.5109 6.17166C26.5722 6.22916 26.622 6.30583 26.5894 6.40933C25.0197 6.76966 23.5362 7.40408 21.9933 7.93308Z" fill="black"/>
<path fill-rule="evenodd" clip-rule="evenodd" d="M13.0235 29.6393C12.9651 29.8671 12.9406 30.1021 12.9507 30.337C12.9507 30.6053 13.104 30.7683 13.3187 30.8986C13.7135 31.1382 13.794 31.3433 13.6062 31.6039C13.3723 31.924 12.8893 32.0275 12.6076 31.7956C12.0345 31.3279 11.8026 30.6993 11.8045 29.9767C11.8045 29.6087 11.8888 29.2503 12.0671 28.9244C12.2588 28.5756 12.2434 28.2018 12.2243 27.8262C12.2185 27.7188 12.2108 27.6096 12.2204 27.5042C12.2741 26.9004 12.1208 26.3983 11.7662 25.8673C11.0666 24.8208 11.2621 23.7015 11.8141 22.6282C11.9521 22.3637 12.138 22.1222 12.2243 21.8289C12.2626 21.6948 12.2818 21.5798 12.1648 21.4782C11.3215 20.7403 11.7087 18.9903 12.5118 18.3962C12.7686 18.2045 13.0293 18.0167 13.2171 17.7503C13.7058 18.1834 13.7231 18.6204 13.2842 19.0517C12.8932 19.435 12.6095 19.8663 12.7858 20.4508C12.8568 20.6923 13.0101 20.8917 13.1998 21.0527C13.3493 21.1792 13.3877 21.3095 13.2842 21.4724C13.0265 21.8824 12.878 22.3516 12.8529 22.8352C12.8318 23.1112 12.6593 23.3335 12.575 23.5865C12.4159 24.0657 12.3373 24.541 12.5118 25.0336C12.5878 25.2704 12.7334 25.4787 12.9296 25.6316C13.1366 25.7868 13.1788 25.9613 13.1098 26.22C12.8925 26.9863 12.8879 27.7973 13.0963 28.566C13.1941 28.9244 13.0925 29.2656 13.0235 29.6393ZM31.09 0.406336C31.4082 0.787753 31.5155 1.21134 31.5443 1.67517C31.619 2.93059 31.3296 4.10167 30.791 5.22292C30.7124 5.38967 30.6319 5.52384 30.4268 5.5315C29.5528 5.56409 28.7172 5.82475 27.8604 5.96084C27.7588 5.97617 27.6419 6.04709 27.5729 5.91867C27.5154 5.80367 27.5959 5.7155 27.6649 5.63117C28.4134 4.72731 28.9773 3.68542 29.3248 2.5645C29.4992 2.00292 29.4608 1.42025 29.5624 0.852919C29.6046 0.617169 29.6717 0.392919 29.871 0.233836C30.2428 -0.0632474 30.6262 -0.0153307 31.09 0.406336ZM13.6771 38.0861C13.6618 38.7953 13.7614 39.4661 13.7787 40.1388C13.7978 40.8231 13.7653 41.515 13.4912 42.1609C13.3647 42.4581 13.3249 42.785 13.3762 43.1039C13.426 43.4451 13.4548 43.7882 13.2918 44.114C13.2401 44.2156 13.1788 44.3153 13.0503 44.2788C12.9392 44.2463 12.943 44.1332 12.9392 44.0354C12.9238 43.7211 12.9909 43.4163 13.0369 43.1097C13.081 42.8088 13.0963 42.5308 12.8318 42.2817C12.6018 42.0651 12.5673 41.7412 12.6172 41.4364C12.7888 40.4412 12.7868 39.4237 12.6114 38.4292C12.5731 38.2107 12.598 37.9788 12.6057 37.7545C12.6421 36.5738 12.5348 35.3951 12.529 34.2144C12.5252 33.8311 12.4773 33.4458 12.4734 33.0587C12.4734 32.8191 12.5578 32.6658 12.8165 32.6485C13.0657 32.6332 13.288 32.6389 13.3589 32.9552C13.4797 33.5033 13.5008 34.063 13.5353 34.615C13.6081 35.7612 13.6311 36.9073 13.6771 38.0861ZM18.4611 17.6678C18.0548 17.5912 17.6618 17.5509 17.3207 17.3171C16.9412 17.0583 16.7783 16.6597 16.9048 16.2591C16.9948 15.9773 17.1654 15.9045 17.4223 16.054C17.5322 16.1204 17.6344 16.1988 17.727 16.2878C18.0375 16.5792 18.4036 16.5983 18.7773 16.4718C19.0821 16.3683 19.3792 16.2418 19.6648 16.0943C19.8813 15.985 19.9925 16.0233 20.0864 16.2418C20.3068 16.744 20.5541 17.2289 20.8953 17.6659C21.1253 17.9573 21.3706 18.216 21.6907 18.4058C21.9571 18.5668 21.9609 18.6549 21.7175 18.8198C21.3981 19.0505 21.0257 19.1969 20.6348 19.2455C20.2438 19.294 19.8469 19.2432 19.4808 19.0977C19.0342 18.929 18.7716 18.5572 18.6125 18.1144C18.5627 17.9745 18.5224 17.8288 18.4611 17.6678ZM15.6666 41.2275C15.4892 41.0027 15.357 40.7456 15.2775 40.4704C15.2219 40.2423 15.2373 40.0181 15.3848 39.8283C15.7049 39.4182 16.1132 39.4757 16.3029 39.9606C16.4524 40.3382 16.6767 40.6525 17.0063 40.894C17.2038 41.0378 17.4433 41.1623 17.313 41.4786C17.1923 41.7661 16.8722 41.9194 16.5444 41.8677C16.1477 41.8044 15.9196 41.5227 15.6666 41.2275ZM23.0458 33.005C22.9288 32.7942 22.8311 32.6044 22.8867 32.3763C22.9691 32.0448 23.2125 31.8167 23.5 31.8052C23.8239 31.7937 24.1268 32.0486 24.2283 32.4185C24.2618 32.5705 24.2465 32.7292 24.1846 32.872C24.1226 33.0149 24.0172 33.1345 23.8833 33.2139C23.5978 33.3826 23.3678 33.3308 23.0458 33.005ZM13.2823 12.604C12.9564 12.9318 12.7149 12.88 12.6172 12.4698C12.521 12.1295 12.4751 11.7769 12.4811 11.4233C12.4868 11.3198 12.4753 11.1895 12.6018 11.155C12.7264 11.1205 12.7935 11.2317 12.8568 11.3141C13.1443 11.6859 13.173 12.1459 13.2823 12.604Z" fill="black"/>
</svg>
