<svg width="46" height="46" viewBox="0 0 46 46" fill="none" xmlns="http://www.w3.org/2000/svg">
<path fill-rule="evenodd" clip-rule="evenodd" d="M36.5103 0H29.0295V4.45433C27.2278 3.55733 25.1962 3.0475 23.0457 3.0475C15.6224 3.04367 9.58301 9.085 9.58301 16.5082C9.58301 19.7493 10.7349 22.7297 12.6535 25.0566H9.58301V32.5354H17.0618V28.5641C18.8635 29.4611 20.8952 29.9709 23.0457 29.9709C26.6153 29.9674 30.0377 28.5479 32.562 26.024C35.0862 23.5001 36.5062 20.0779 36.5103 16.5082C36.5103 13.0372 35.1878 9.86892 33.0238 7.48075H36.5103V0ZM23.0457 22.4921C21.4593 22.4901 19.9385 21.859 18.8167 20.7372C17.695 19.6155 17.0639 18.0946 17.0618 16.5082C17.0639 14.9219 17.695 13.401 18.8167 12.2793C19.9385 11.1575 21.4593 10.5264 23.0457 10.5244C24.6321 10.5264 26.1529 11.1575 27.2746 12.2793C28.3964 13.401 29.0275 14.9219 29.0295 16.5082C29.0295 19.8049 26.3462 22.4921 23.0457 22.4921ZM23.0457 32.5373L17.0618 32.5354V40.0162H23.0457C24.6321 40.0182 26.1529 40.6493 27.2746 41.771C28.3964 42.8928 29.0275 44.4136 29.0295 46H36.5103C36.5062 42.4304 35.0862 39.0082 32.562 36.4843C30.0377 33.9603 26.6153 32.5409 23.0457 32.5373Z" fill="black"/>
</svg>
