<svg width="46" height="46" viewBox="0 0 46 46" fill="none" xmlns="http://www.w3.org/2000/svg">
<g clip-path="url(#clip0_537_926)">
<path fill-rule="evenodd" clip-rule="evenodd" d="M41.3902 45.2525C43.627 44.7657 45.9998 43.4432 45.9998 43.4432L41.8464 40.0238C39.7939 38.3337 38.0468 36.3039 36.681 34.0227C34.7935 30.8709 32.1858 28.2113 29.0718 26.2622L27.55 25.3767C27.2886 25.2012 27.0693 24.9702 26.9076 24.7002C26.7459 24.4302 26.6459 24.1278 26.6146 23.8146C26.5759 23.4236 26.6808 23.0318 26.9098 22.7125C27.7014 21.597 31.7935 16.7421 32.5448 16.1192C33.5089 15.3218 34.586 14.6587 35.5846 13.8977C35.7265 13.7904 35.8683 13.6831 36.0082 13.5719C36.014 13.5681 36.0216 13.5642 36.0255 13.5585C36.3455 13.3074 36.6484 13.0372 36.888 12.719C37.7562 11.7147 37.967 10.8253 38.0188 10.4324C37.9019 10.0548 37.5511 9.20767 36.5755 8.23208C37.187 8.27042 37.9268 8.75342 38.5995 9.32267C39.05 8.602 39.5215 7.84108 39.993 7.07825C40.3092 6.56842 39.8396 6.187 39.8281 6.1755H39.8262V6.17167C39.8128 6.15825 39.4314 5.6925 38.9235 6.00683C37.8367 6.67767 36.75 7.35233 35.782 7.96375C35.782 7.96375 34.6378 7.94075 33.2808 9.11183C32.9653 9.36235 32.6832 9.65221 32.4413 9.97433L32.4279 9.99158C32.3167 10.1296 32.2094 10.2733 32.102 10.4152C31.3411 11.4137 30.678 12.4909 29.8787 13.4569C29.2596 14.2063 24.4028 18.2984 23.2854 19.0919C22.9665 19.3201 22.5754 19.4243 22.1852 19.3852C21.872 19.3539 21.5696 19.2539 21.2996 19.0922C21.0295 18.9305 20.7986 18.7111 20.6231 18.4498L19.7376 16.928C17.7887 13.8138 15.1291 11.206 11.977 9.31883C9.6968 7.95256 7.66768 6.20545 5.97788 4.15342L2.5528 0C2.5528 0 1.23221 2.37283 0.747296 4.60958C1.42196 5.42992 3.18146 7.46542 5.2323 9.02175C3.02813 7.98675 1.39896 7.1875 0.114796 6.51667C-0.0826205 7.98292 -0.00595381 10.1967 0.197213 11.914C1.58871 12.5216 3.9558 13.4588 6.36696 13.9572C4.4388 14.4095 2.3228 14.49 0.691713 14.4593C0.979213 15.5212 1.37788 16.6041 1.91838 17.6947C2.14646 18.1988 2.39755 18.6913 2.66588 19.1705C3.53221 19.4101 6.92471 19.9046 8.73021 19.4983L3.91938 21.2175C5.42585 23.0664 7.05485 24.8119 8.79538 26.4423C12.6881 24.3493 13.5755 24.0637 16.4965 22.1528C11.7681 26.0015 10.5395 27.5732 9.21321 29.187L8.28746 30.4865C7.8083 31.1592 7.38855 31.8761 7.04163 32.6274C5.87246 35.1383 4.22413 40.4857 4.22413 40.4857C3.92896 41.4172 4.6113 42.0996 5.51596 41.7776C5.51596 41.7776 10.8635 40.1273 13.3743 38.9601C14.1256 38.6112 14.8425 38.1934 15.5171 37.7142L16.8147 36.7885C17.2498 36.4301 17.683 36.0793 18.1583 35.6653C18.1583 35.6653 21.4262 39.537 24.7861 42.0843L26.5035 37.2715C26.099 39.077 26.5916 42.4695 26.8293 43.3339C27.3123 43.6061 27.8049 43.8552 28.309 44.0852C29.3995 44.6219 30.4825 45.0244 31.5443 45.3119C31.5136 43.677 31.5941 41.5629 32.0445 39.6348C32.5429 42.0459 33.482 44.413 34.0896 45.8045C35.805 46.0077 38.0207 46.0843 39.487 45.8869C38.617 44.1981 37.7812 42.4919 36.98 40.7694C38.5344 42.8202 40.5718 44.5797 41.3921 45.2544L41.3902 45.2525Z" fill="black"/>
</g>
<defs>
<clipPath id="clip0_537_926">
<rect width="46" height="46" fill="white"/>
</clipPath>
</defs>
</svg>
