<svg width="46" height="46" viewBox="0 0 46 46" fill="none" xmlns="http://www.w3.org/2000/svg">
<g clip-path="url(#clip0_537_920)">
<path fill-rule="evenodd" clip-rule="evenodd" d="M21.5398 14.5724C21.9843 14.3175 22.4878 14.1834 23.0003 14.1834C23.5127 14.1834 24.0162 14.3175 24.4608 14.5724L44.5244 26.0724C44.9737 26.3293 45.3472 26.7003 45.6069 27.148C45.8666 27.5957 46.0034 28.104 46.0034 28.6216C46.0034 29.1391 45.8666 29.6475 45.6069 30.0952C45.3472 30.5428 44.9737 30.9139 44.5244 31.1708L24.4608 42.6708C23.5561 43.1883 22.4444 43.1883 21.5398 42.6708L1.47609 31.1708C1.02727 30.9135 0.654327 30.5423 0.394967 30.0947C0.135607 29.6471 -0.000976563 29.1389 -0.000976562 28.6216C-0.000976563 28.1043 0.135607 27.5961 0.394967 27.1485C0.654327 26.7009 1.02727 26.3297 1.47609 26.0724L21.5398 14.5724ZM8.84375 28.6216L23.0003 36.7348L37.1568 28.6216L23.0003 20.5064L8.84375 28.6216Z" fill="url(#paint0_linear_537_920)"/>
<path fill-rule="evenodd" clip-rule="evenodd" d="M21.539 3.32158C21.9837 3.06689 22.4871 2.93289 22.9995 2.93289C23.5119 2.93289 24.0154 3.06689 24.46 3.32158L44.5237 14.8216C44.9726 15.0786 45.3456 15.4496 45.605 15.897C45.8644 16.3445 46.001 16.8526 46.001 17.3698C46.001 17.887 45.8644 18.3951 45.605 18.8425C45.3456 19.29 44.9726 19.661 44.5237 19.918L24.46 31.418C23.5554 31.9355 22.4437 31.9355 21.539 31.418L1.47538 19.918C1.02652 19.661 0.653507 19.29 0.394088 18.8425C0.134669 18.3951 -0.00195312 17.887 -0.00195312 17.3698C-0.00195313 16.8526 0.134669 16.3445 0.394088 15.897C0.653507 15.4496 1.02652 15.0786 1.47538 14.8216L21.539 3.32158ZM8.84304 17.3707L22.9995 25.484L37.156 17.3707L22.9995 9.25558L8.84304 17.3707Z" fill="url(#paint1_linear_537_920)"/>
<path fill-rule="evenodd" clip-rule="evenodd" d="M24.5026 19.6746L4.39098 31.1247L1.4834 26.0187L21.5969 14.5686L24.5026 19.6746Z" fill="url(#paint2_linear_537_920)"/>
</g>
<defs>
<linearGradient id="paint0_linear_537_920" x1="0.349088" y1="28.5718" x2="37.1395" y2="28.5718" gradientUnits="userSpaceOnUse">
<stop stop-color="#F9D100"/>
<stop offset="1" stop-color="#F97700"/>
</linearGradient>
<linearGradient id="paint1_linear_537_920" x1="45.5012" y1="17.3209" x2="8.66096" y2="17.3209" gradientUnits="userSpaceOnUse">
<stop stop-color="#F9D100"/>
<stop offset="1" stop-color="#F97700"/>
</linearGradient>
<linearGradient id="paint2_linear_537_920" x1="0.348732" y1="28.5717" x2="37.0874" y2="28.3532" gradientUnits="userSpaceOnUse">
<stop stop-color="#F9D100"/>
<stop offset="1" stop-color="#F97700"/>
</linearGradient>
<clipPath id="clip0_537_920">
<rect width="46" height="46" fill="white"/>
</clipPath>
</defs>
</svg>
