<svg width="165" height="46" viewBox="0 0 165 46" fill="none" xmlns="http://www.w3.org/2000/svg">
<g clip-path="url(#clip0_537_1007)">
<path fill-rule="evenodd" clip-rule="evenodd" d="M21.5398 14.5724C21.9843 14.3175 22.4878 14.1834 23.0003 14.1834C23.5127 14.1834 24.0162 14.3175 24.4608 14.5724L44.5244 26.0724C44.9737 26.3293 45.3472 26.7003 45.6069 27.148C45.8666 27.5957 46.0034 28.104 46.0034 28.6216C46.0034 29.1391 45.8666 29.6475 45.6069 30.0952C45.3472 30.5428 44.9737 30.9139 44.5244 31.1708L24.4608 42.6708C23.5561 43.1883 22.4444 43.1883 21.5398 42.6708L1.47609 31.1708C1.02727 30.9135 0.654327 30.5423 0.394967 30.0947C0.135607 29.6471 -0.000976563 29.1389 -0.000976562 28.6216C-0.000976563 28.1043 0.135607 27.5961 0.394967 27.1485C0.654327 26.7009 1.02727 26.3297 1.47609 26.0724L21.5398 14.5724ZM8.84375 28.6216L23.0003 36.7348L37.1568 28.6216L23.0003 20.5064L8.84375 28.6216Z" fill="url(#paint0_linear_537_1007)"/>
<path fill-rule="evenodd" clip-rule="evenodd" d="M21.539 3.32158C21.9837 3.06689 22.4871 2.93289 22.9995 2.93289C23.5119 2.93289 24.0154 3.06689 24.46 3.32158L44.5237 14.8216C44.9726 15.0786 45.3456 15.4496 45.605 15.897C45.8644 16.3445 46.001 16.8526 46.001 17.3698C46.001 17.887 45.8644 18.3951 45.605 18.8425C45.3456 19.29 44.9726 19.661 44.5237 19.918L24.46 31.418C23.5554 31.9355 22.4437 31.9355 21.539 31.418L1.47538 19.918C1.02652 19.661 0.653507 19.29 0.394088 18.8425C0.134669 18.3951 -0.00195312 17.887 -0.00195312 17.3698C-0.00195313 16.8526 0.134669 16.3445 0.394088 15.897C0.653507 15.4496 1.02652 15.0786 1.47538 14.8216L21.539 3.32158ZM8.84304 17.3707L22.9995 25.484L37.156 17.3707L22.9995 9.25558L8.84304 17.3707Z" fill="url(#paint1_linear_537_1007)"/>
<path fill-rule="evenodd" clip-rule="evenodd" d="M24.5026 19.6746L4.39098 31.1247L1.4834 26.0187L21.5969 14.5686L24.5026 19.6746Z" fill="url(#paint2_linear_537_1007)"/>
</g>
<g clip-path="url(#clip1_537_1007)">
<path fill-rule="evenodd" clip-rule="evenodd" d="M55.1056 38.3225L58.0315 34.7225C59.6482 36.2 61.4517 36.938 63.4374 36.938C64.7708 36.938 65.8692 36.7415 66.7325 36.347C67.5974 35.954 68.0283 35.4125 68.0283 34.7225C68.0283 33.5525 67.073 32.969 65.1596 32.969C64.6413 32.969 63.8699 33.0305 62.8453 33.1535C61.8208 33.2765 61.0494 33.338 60.5311 33.338C57.346 33.338 55.755 32.1995 55.755 29.9225C55.755 29.2715 56.0201 28.631 56.5505 28.0025C57.0475 27.4001 57.6825 26.9253 58.4022 26.618C56.1422 25.154 55.0137 23.0795 55.0137 20.3975C55.0137 18.2795 55.7911 16.532 57.346 15.1535C58.9009 13.763 60.8143 13.0685 63.0864 13.0685C64.8643 13.0685 66.3498 13.4 67.5461 14.0645L69.3617 11.96L72.5648 14.858L70.3621 16.4645C71.1275 17.621 71.5102 18.9875 71.5102 20.5625C71.5102 22.8155 70.8171 24.6185 69.4355 25.973C68.0659 27.314 66.3318 27.9845 64.233 27.9845C63.7877 27.9773 63.3431 27.9468 62.9011 27.893L62.1417 27.782C62.0543 27.782 61.7214 27.917 61.1413 28.187C60.5733 28.4465 60.29 28.7165 60.29 29C60.29 29.492 60.7164 29.738 61.5677 29.738C61.9504 29.738 62.5922 29.6465 63.4932 29.462C64.3942 29.2775 65.1656 29.1845 65.8074 29.1845C70.3124 29.1845 72.5648 30.9875 72.5648 34.5935C72.5648 36.5885 71.6638 38.1515 69.8619 39.2825C68.0599 40.427 65.8873 41 63.3455 41C60.3795 41.0231 57.4868 40.0831 55.1056 38.3225ZM59.7341 20.4155C59.7341 21.5855 60.055 22.526 60.6983 23.24C61.3522 23.942 62.2276 24.2915 63.326 24.2915C64.4258 24.2915 65.2696 23.9465 65.8632 23.258C66.4553 22.568 66.7521 21.6215 66.7521 20.4155C66.7521 19.418 66.4312 18.575 65.7878 17.8865C65.1596 17.1965 64.3384 16.8515 63.326 16.8515C62.2653 16.8515 61.4004 17.1845 60.7345 17.849C60.0685 18.5135 59.7341 19.3685 59.7341 20.414V20.4155ZM87.0801 17.7755C86.275 17.24 85.3272 16.9568 84.359 16.9625C83.2848 16.9625 82.328 17.45 81.4888 18.422C80.6602 19.394 80.2473 20.582 80.2473 21.9845V33.2465H75.6188V13.4735H80.2473V15.2825C81.5431 13.8305 83.2652 13.1045 85.4137 13.1045C86.9942 13.1045 88.2025 13.3445 89.0417 13.8245L87.0786 17.7755H87.0801ZM101.687 31.271C101.267 31.961 100.533 32.5265 99.4844 32.969C98.4523 33.3985 97.3442 33.6178 96.2255 33.614C94.0906 33.614 92.4122 33.086 91.1902 32.027C89.9683 30.9575 89.3566 29.4425 89.3566 27.4865C89.3566 25.1975 90.2154 23.4065 91.9315 22.1135C93.6582 20.822 96.108 20.1755 99.281 20.1755C99.8234 20.1755 100.465 20.267 101.205 20.4515C101.205 18.1265 99.73 16.9625 96.7815 16.9625C95.0413 16.9625 93.5843 17.252 92.4122 17.831L91.4117 14.249C93.0043 13.4855 94.8982 13.1045 97.0964 13.1045C100.12 13.1045 102.335 13.7945 103.741 15.173C105.15 16.538 105.853 19.136 105.853 22.9625V27.191C105.853 29.825 106.383 31.481 107.444 32.156C107.063 32.822 106.637 33.2285 106.168 33.3755C105.648 33.5435 105.103 33.6246 104.556 33.6155C103.891 33.6155 103.292 33.3695 102.761 32.8775C102.23 32.384 101.873 31.8485 101.687 31.271ZM101.243 23.942C100.453 23.7815 99.8611 23.702 99.4649 23.702C95.8112 23.702 93.9851 24.896 93.9851 27.2825C93.9851 29.0555 95.0157 29.942 97.0768 29.942C99.8551 29.942 101.243 28.5575 101.243 25.787V23.942ZM123.626 33.2465V32.0465C123.243 32.465 122.595 32.834 121.682 33.1535C120.77 33.4612 119.813 33.6173 118.85 33.6155C116.085 33.6155 113.908 32.741 112.314 30.9935C110.735 29.246 109.944 26.8085 109.944 23.6825C109.944 20.5565 110.851 18.0155 112.666 16.058C114.492 14.0885 116.775 13.1045 119.516 13.1045C121.022 13.1045 122.393 13.412 123.626 14.027V6.107L128.254 5V33.245H123.627L123.626 33.2465ZM123.626 18.2C122.639 17.4125 121.607 17.018 120.534 17.018C118.682 17.018 117.257 17.585 116.258 18.7175C115.258 19.8365 114.758 21.449 114.758 23.5535C114.758 27.6635 116.745 29.72 120.719 29.72C121.164 29.72 121.706 29.591 122.348 29.3315C123.004 29.0615 123.428 28.7915 123.626 28.52V18.2ZM136.53 5.813C137.27 5.813 137.901 6.077 138.418 6.6065C138.949 7.1225 139.214 7.751 139.214 8.489C139.214 9.227 138.949 9.8615 138.418 10.391C138.173 10.6418 137.88 10.84 137.555 10.9734C137.23 11.1068 136.882 11.1725 136.53 11.1665C135.789 11.1665 135.155 10.907 134.623 10.391C134.372 10.1422 134.173 9.8455 134.04 9.51873C133.906 9.19195 133.84 8.84175 133.845 8.489C133.845 7.751 134.105 7.124 134.623 6.6065C135.155 6.077 135.789 5.813 136.53 5.813ZM134.142 33.245V17.258H131.605V13.475H138.827V33.248H134.142V33.245ZM142.937 23.312C142.937 20.297 143.806 17.8415 145.548 15.947C147.3 14.051 149.607 13.103 152.471 13.103C155.483 13.103 157.82 14.0135 159.487 15.836C161.154 17.6585 161.987 20.15 161.987 23.3135C161.987 26.4635 161.134 28.9685 159.432 30.8285C157.741 32.6855 155.421 33.6155 152.471 33.6155C149.458 33.6155 147.115 32.6795 145.435 30.8105C143.768 28.9265 142.937 26.426 142.937 23.312ZM147.749 23.312C147.749 27.6695 149.323 29.8475 152.471 29.8475C153.916 29.8475 155.056 29.282 155.896 28.1495C156.747 27.017 157.173 25.4045 157.173 23.312C157.173 19.0175 155.606 16.8695 152.471 16.8695C151.026 16.8695 149.879 17.435 149.027 18.5675C148.175 19.7 147.749 21.2825 147.749 23.312Z" fill="black"/>
</g>
<defs>
<linearGradient id="paint0_linear_537_1007" x1="0.349088" y1="28.5718" x2="37.1395" y2="28.5718" gradientUnits="userSpaceOnUse">
<stop stop-color="#F9D100"/>
<stop offset="1" stop-color="#F97700"/>
</linearGradient>
<linearGradient id="paint1_linear_537_1007" x1="45.5012" y1="17.3209" x2="8.66096" y2="17.3209" gradientUnits="userSpaceOnUse">
<stop stop-color="#F9D100"/>
<stop offset="1" stop-color="#F97700"/>
</linearGradient>
<linearGradient id="paint2_linear_537_1007" x1="0.348732" y1="28.5717" x2="37.0874" y2="28.3532" gradientUnits="userSpaceOnUse">
<stop stop-color="#F9D100"/>
<stop offset="1" stop-color="#F97700"/>
</linearGradient>
<clipPath id="clip0_537_1007">
<rect width="46" height="46" fill="white"/>
</clipPath>
<clipPath id="clip1_537_1007">
<rect width="113" height="36" fill="white" transform="translate(52 5)"/>
</clipPath>
</defs>
</svg>
