<svg width="218" height="46" viewBox="0 0 218 46" fill="none" xmlns="http://www.w3.org/2000/svg">
<g clip-path="url(#clip0_546_1151)">
<path fill-rule="evenodd" clip-rule="evenodd" d="M6.42644 0.00768589C6.25779 0.040179 6.08844 0.068936 5.91852 0.0939359C5.04069 0.230019 4.00952 0.667019 3.27736 1.21327C2.73302 1.62152 1.37411 3.01877 1.06744 3.48644C0.45582 4.41219 0.0938344 5.4803 0.0165962 6.58715C-0.0606419 7.69401 0.149489 8.80204 0.626607 9.80377C0.921774 10.4209 1.29744 10.9346 1.98744 11.6668C2.34586 12.0463 2.81927 12.5983 3.04161 12.8934C4.51704 14.8683 5.3861 17.2298 5.54286 19.6899C5.56202 19.9544 5.60994 22.77 5.65211 25.9459C5.73452 32.2192 5.72494 32.0409 6.04119 32.6255C6.55102 33.5724 7.84286 34.1397 8.86636 33.8675C9.42219 33.7199 9.75377 33.4765 11.4596 31.9777C13.2939 30.3677 13.5526 30.1914 14.2311 30.0994C14.4688 30.0668 15.4405 30.0994 17.4128 30.2009C20.3127 30.3543 20.5216 30.3524 20.9586 30.1703C21.7119 29.8559 21.9917 29.4036 22.2255 28.1118C22.6989 25.5051 24.7095 23.2051 27.2855 22.3196C27.5079 22.2429 28.0004 22.1203 28.3819 22.0436C28.7614 21.9669 29.1984 21.8481 29.3517 21.7791C29.919 21.5184 30.3388 20.9664 30.4365 20.3531C30.4691 20.1423 30.4231 19.3009 30.2659 17.2826C30.0915 15.0229 30.0609 14.4402 30.1069 14.1757C30.2161 13.5202 30.3733 13.294 32.0427 11.4004C32.8994 10.4305 33.6719 9.52969 33.7581 9.40127C34.2603 8.65377 34.3101 7.6571 33.8884 6.82335C33.5458 6.21047 32.9823 5.75124 32.3129 5.53919C32.1213 5.4836 30.7144 5.46827 25.5203 5.46635H18.9691L18.327 5.3456C16.4909 5.00252 14.9441 4.40644 13.566 3.50944C12.8722 3.0571 12.4486 2.7236 11.6149 1.96844C10.8329 1.25927 10.484 1.00627 9.84961 0.684269C9.02578 0.247126 8.10846 0.0156609 7.17586 0.00960256C6.92621 -0.00279395 6.67609 -0.00471062 6.42644 0.00768589ZM36.5718 11.2355C36.3188 11.3294 36.1559 11.4789 35.6518 12.0789C34.5171 13.4339 34.2334 14.6395 34.634 16.4029C34.8372 17.296 34.9464 17.4992 35.3259 17.6928C35.5272 17.7963 35.6499 17.7982 40.3802 17.7809L45.2294 17.7637L45.4555 17.6429C45.6031 17.5605 45.7287 17.4439 45.8219 17.3028C45.915 17.1618 45.9729 17.0005 45.9908 16.8324C46.0086 16.6643 45.9858 16.4944 45.9244 16.3369C45.8629 16.1795 45.7646 16.0391 45.6376 15.9275C44.2229 15.1166 42.8026 14.3154 41.3769 13.524C36.9819 11.0669 37.0049 11.0784 36.5718 11.2355ZM30.4078 24.0964C29.501 24.4681 28.6266 24.9143 27.7934 25.4304C26.1758 26.4979 25.0066 28.037 24.1077 30.2795C23.7033 31.2858 23.7205 31.717 24.1844 32.0716C24.3971 32.2384 36.6005 38.0899 36.9628 38.2011C37.256 38.2912 37.4803 38.2529 37.7869 38.0593C37.9247 37.9677 38.0384 37.8443 38.1185 37.6995C38.1986 37.5547 38.2426 37.3928 38.2469 37.2274C38.2469 37.1124 38.1894 36.8824 38.1224 36.7214C37.8234 36.0161 32.1845 24.3264 32.0695 24.1769C31.7475 23.7514 31.3144 23.7322 30.4078 24.0964ZM14.1544 34.5556C13.2862 34.7511 12.5636 35.1689 11.6915 35.9835C11.1242 36.5144 11.0475 36.8805 11.3714 37.513C11.473 37.7104 12.5406 39.629 13.7404 41.7757C16.2264 46.2166 16.0788 46.0039 16.7266 45.9962C17.0179 45.9924 17.1061 45.9674 17.2939 45.8352C17.4278 45.7349 17.5405 45.6092 17.6255 45.4653C17.7367 45.2544 17.7405 45.1739 17.7789 40.4915C17.8134 36.7924 17.8076 35.6807 17.7578 35.4967C17.7052 35.3328 17.6145 35.1837 17.4933 35.0616C17.3208 34.8872 17.2249 34.8469 16.7151 34.7243C15.5996 34.4598 14.8138 34.408 14.1544 34.5556Z" fill="#44A775"/>
</g>
<path d="M204.121 35.0575C201.802 35.0575 199.742 34.5273 197.941 33.4668C196.189 32.4016 194.751 30.8886 193.777 29.083C192.775 27.2192 192.274 25.142 192.274 22.8495C192.274 20.4992 192.775 18.422 193.777 16.616C194.756 14.8622 196.177 13.3951 197.897 12.36C199.615 11.2995 201.559 10.7693 203.733 10.7693C205.48 10.7693 207.039 11.0702 208.413 11.6722C209.786 12.2742 210.946 13.1055 211.89 14.166C212.833 15.1985 213.55 16.3885 214.036 17.7343C214.551 19.0818 214.81 20.5132 214.81 22.0322C214.81 22.405 214.794 22.7918 214.766 23.1943C214.738 23.595 214.679 23.9677 214.595 24.3107H196.094V20.4432H211.848L209.529 22.2055C209.816 20.8002 209.716 19.5543 209.229 18.464C208.804 17.3874 208.054 16.4707 207.083 15.8425C206.139 15.1827 205.021 14.8537 203.735 14.8537C202.447 14.8537 201.303 15.1827 200.301 15.8425C199.298 16.4725 198.526 17.3895 197.983 18.5935C197.439 19.7678 197.224 21.201 197.34 22.8933C197.196 24.4683 197.409 25.8437 197.983 27.0197C198.543 28.1496 199.405 29.1018 200.473 29.7708C201.559 30.4305 202.79 30.7595 204.165 30.7595C205.566 30.7595 206.754 30.4445 207.726 29.8145C208.705 29.2078 209.516 28.3656 210.087 27.3645L214.036 29.2982C213.578 30.3867 212.863 31.3755 211.89 32.2645C210.946 33.1238 209.802 33.8115 208.456 34.3277C207.14 34.8142 205.695 35.0593 204.121 35.0593V35.0575ZM182.697 34.543V2H187.547V34.543H182.697ZM172.176 34.543V11.2855H177.026V34.543H172.176ZM172.176 8.104V2.51625H177.026V8.104H172.176ZM164.823 34.8003C162.392 34.8003 160.503 34.1125 159.158 32.737C157.812 31.3615 157.14 29.426 157.14 26.934V15.671H153.063V11.2855H153.706C154.795 11.2855 155.639 10.9705 156.24 10.3405C156.839 9.7105 157.14 8.8495 157.14 7.761V5.955H161.99V11.2855H167.271V15.671H161.99V26.7188C161.99 27.5203 162.12 28.208 162.376 28.782C162.635 29.3262 163.049 29.7568 163.622 30.0718C164.194 30.3588 164.938 30.5023 165.854 30.5023C166.083 30.5023 166.339 30.4865 166.626 30.4585C166.913 30.4305 167.185 30.4007 167.442 30.371V34.543C167.04 34.599 166.598 34.6568 166.111 34.7145C165.625 34.7723 165.195 34.8003 164.823 34.8003ZM126.442 43.1408V11.2855H131.079V16.0998L130.52 14.9833C131.374 13.6676 132.558 12.5996 133.954 11.8858C135.387 11.142 137.017 10.7693 138.846 10.7693C141.052 10.7693 143.026 11.2995 144.77 12.3618C146.526 13.4025 147.967 14.9029 148.936 16.7018C149.967 18.5358 150.48 20.599 150.48 22.8933C150.48 25.1858 149.965 27.249 148.936 29.083C147.968 30.8802 146.547 32.3917 144.814 33.4668C143.068 34.5273 141.079 35.0593 138.848 35.0593C137.045 35.0593 135.399 34.6865 133.912 33.9392C132.487 33.2264 131.307 32.104 130.522 30.7158L131.292 29.8145V43.1408H126.442ZM138.376 30.5443C139.75 30.5443 140.966 30.2153 142.025 29.5555C143.084 28.8951 143.944 27.9587 144.513 26.8465C145.142 25.674 145.457 24.3545 145.457 22.8915C145.457 21.4302 145.142 20.1265 144.513 18.9803C143.944 17.8687 143.084 16.9329 142.025 16.273C140.966 15.6133 139.75 15.2843 138.376 15.2843C137.031 15.2843 135.815 15.6133 134.728 16.273C133.662 16.9388 132.789 17.8721 132.194 18.9803C131.593 20.1265 131.292 21.4303 131.292 22.8933C131.292 24.3545 131.593 25.6723 132.194 26.8483C132.823 27.9945 133.669 28.8958 134.728 29.5555C135.829 30.2184 137.092 30.5608 138.376 30.5443ZM111.021 35.0575C108.702 35.0575 106.642 34.5273 104.839 33.4668C103.088 32.4013 101.651 30.8882 100.677 29.083C99.6738 27.2192 99.1741 25.142 99.1741 22.8495C99.1741 20.4992 99.6738 18.422 100.677 16.616C101.657 14.8622 103.077 13.3951 104.797 12.36C106.513 11.2995 108.46 10.7693 110.633 10.7693C112.381 10.7693 113.939 11.0702 115.313 11.6722C116.686 12.2742 117.846 13.1055 118.79 14.166C119.734 15.1985 120.45 16.3885 120.936 17.7343C121.451 19.0818 121.708 20.5132 121.708 22.0322C121.708 22.405 121.694 22.7918 121.666 23.1943C121.637 23.595 121.579 23.9677 121.495 24.3107H102.994V20.4432H118.75L116.431 22.2055C116.718 20.8002 116.616 19.5543 116.131 18.464C115.706 17.3874 114.956 16.4707 113.985 15.8425C113.041 15.1827 111.923 14.8537 110.637 14.8537C109.349 14.8537 108.204 15.1827 107.203 15.8425C106.2 16.4725 105.428 17.3895 104.884 18.5935C104.341 19.7678 104.126 21.201 104.24 22.8933C104.098 24.4683 104.311 25.8437 104.884 27.0197C105.445 28.1496 106.307 29.1018 107.374 29.7708C108.461 30.4305 109.691 30.7595 111.065 30.7595C112.468 30.7595 113.655 30.4445 114.63 29.8145C115.608 29.2076 116.418 28.3654 116.989 27.3645L120.938 29.2982C120.48 30.3867 119.765 31.3755 118.792 32.2645C117.848 33.1238 116.704 33.8115 115.358 34.3277C114.041 34.8142 112.597 35.0593 111.023 35.0593L111.021 35.0575ZM84.5661 34.543V11.2855H89.2019V15.972L88.7737 15.2843C89.2875 13.7653 90.1192 12.6767 91.262 12.017C92.4065 11.3292 93.7817 10.9845 95.384 10.9845H96.7994V15.412H94.7829C93.1806 15.412 91.8788 15.9143 90.8758 16.917C89.9043 17.8918 89.4168 19.297 89.4168 21.131V34.543H84.5661ZM67.6428 44C65.9549 44 64.3945 43.727 62.9634 43.1828C61.5944 42.6762 60.3398 41.9016 59.2729 40.9043C58.2555 39.9777 57.4625 38.8309 56.9542 37.5513L61.4187 35.705C61.8206 36.7935 62.5492 37.6965 63.6081 38.4122C64.695 39.1297 66.0265 39.4885 67.5991 39.4885C68.831 39.4885 69.9319 39.2435 70.9052 38.757C71.8631 38.3113 72.6689 37.5931 73.2222 36.692C73.7953 35.8047 74.0819 34.732 74.0819 33.4702V28.2255L74.9381 29.2142C74.1857 30.6548 73.0204 31.8371 71.5919 32.6092C70.1887 33.3827 68.6021 33.7713 66.8268 33.7713C64.681 33.7713 62.7484 33.269 61.0325 32.2663C59.3304 31.2783 57.9225 29.8531 56.9542 28.138C55.9809 26.3915 55.4951 24.428 55.4951 22.2475C55.4951 20.0425 55.9809 18.0772 56.9542 16.3587C57.9245 14.6707 59.3152 13.2635 60.9906 12.2742C62.6785 11.2715 64.6094 10.7693 66.7849 10.7693C68.5584 10.7693 70.1328 11.156 71.5063 11.9295C72.9076 12.675 74.0522 13.7652 74.9398 15.1967L74.2951 16.4008V11.2855H78.8889V33.4668C78.8889 35.474 78.4031 37.2643 77.4298 38.841C76.4882 40.4437 75.1212 41.7534 73.4808 42.6245C71.7928 43.5415 69.8463 44 67.6428 44ZM67.386 29.2545C68.672 29.2545 69.8183 28.9535 70.8195 28.3515C71.8059 27.736 72.6181 26.8774 73.1785 25.8578C73.7813 24.799 74.0819 23.609 74.0819 22.2913C74.0819 20.9718 73.7813 19.7835 73.1802 18.7213C72.6106 17.694 71.7814 16.8347 70.7759 16.2292C69.7598 15.595 68.5831 15.2669 67.386 15.2843C66.0684 15.2843 64.896 15.5992 63.865 16.2292C62.8407 16.8253 61.9957 17.6868 61.4187 18.723C60.8456 19.7555 60.5607 20.9438 60.5607 22.2913C60.5607 23.581 60.8456 24.7553 61.4187 25.8158C62.0198 26.8763 62.8341 27.7215 63.865 28.3533C64.896 28.9535 66.0684 29.2545 67.386 29.2545Z" fill="black"/>
<defs>
<clipPath id="clip0_546_1151">
<rect width="46" height="46" fill="white"/>
</clipPath>
</defs>
</svg>
