<svg width="46" height="46" viewBox="0 0 46 46" fill="none" xmlns="http://www.w3.org/2000/svg">
<g clip-path="url(#clip0_522_410)">
<path fill-rule="evenodd" clip-rule="evenodd" d="M17.7675 29.3058L33.0587 18.0033C33.8081 17.4474 34.8795 17.664 35.2379 18.5246C37.1162 23.0652 36.2768 28.52 32.5354 32.2652C28.796 36.0103 23.5903 36.8307 18.8332 34.96L13.6371 37.3693C21.091 42.4695 30.1415 41.2083 35.7976 35.5427C40.2845 31.05 41.6741 24.9263 40.3746 19.4043L40.3861 19.4178C38.502 11.3064 40.8499 8.06343 45.6569 1.43368C45.7719 1.27651 45.8869 1.11934 46 0.958344L39.6731 7.29293V7.27376L17.7618 29.3097M14.6107 32.0524C9.25942 26.9349 10.1832 19.0172 14.7468 14.4498C18.1221 11.0707 23.6536 9.69068 28.4817 11.7185L33.6663 9.32268C32.5886 8.52998 31.4096 7.88534 30.1607 7.40601C27.0208 6.12088 23.571 5.79293 20.2451 6.46341C16.9193 7.1339 13.8661 8.77287 11.4693 11.1742C6.61442 16.0348 5.08683 23.5098 7.70883 29.8885C9.66767 34.6553 6.45725 38.0267 3.22383 41.4307C2.07575 42.6382 0.92575 43.8438 0 45.1203L14.605 32.0582" fill="black"/>
</g>
<defs>
<clipPath id="clip0_522_410">
<rect width="46" height="46" fill="white"/>
</clipPath>
</defs>
</svg>
