<svg width="149" height="46" viewBox="0 0 149 46" fill="none" xmlns="http://www.w3.org/2000/svg">
<g clip-path="url(#clip0_524_437)">
<path fill-rule="evenodd" clip-rule="evenodd" d="M17.7675 29.3058L33.0587 18.0033C33.8081 17.4474 34.8795 17.664 35.2379 18.5246C37.1162 23.0652 36.2768 28.52 32.5354 32.2652C28.796 36.0103 23.5903 36.8307 18.8332 34.96L13.6371 37.3693C21.091 42.4695 30.1415 41.2083 35.7976 35.5427C40.2845 31.05 41.6741 24.9263 40.3746 19.4043L40.3861 19.4178C38.502 11.3064 40.8499 8.06343 45.6569 1.43368C45.7719 1.27651 45.8869 1.11934 46 0.958344L39.6731 7.29293V7.27376L17.7618 29.3097M14.6107 32.0524C9.25942 26.9349 10.1832 19.0172 14.7468 14.4498C18.1221 11.0707 23.6536 9.69068 28.4817 11.7185L33.6663 9.32268C32.5886 8.52998 31.4096 7.88534 30.1607 7.40601C27.0208 6.12088 23.571 5.79293 20.2451 6.46341C16.9193 7.1339 13.8661 8.77287 11.4693 11.1742C6.61442 16.0348 5.08683 23.5098 7.70883 29.8885C9.66767 34.6553 6.45725 38.0267 3.22383 41.4307C2.07575 42.6382 0.92575 43.8438 0 45.1203L14.605 32.0582" fill="black"/>
</g>
<path fill-rule="evenodd" clip-rule="evenodd" d="M125.505 37.4675V8.6855H130.078V27.68L139.752 16.6265H145.298L136.594 26.1005L145.378 37.4675H139.913L132.8 27.6995L130.078 27.6815V37.4675H125.505ZM111.633 37.952C104.832 37.952 101.15 33.155 101.15 27.0275C101.15 20.8595 104.834 16.103 111.633 16.103C118.475 16.103 122.116 20.858 122.116 27.0275C122.116 33.155 118.475 37.952 111.633 37.952ZM105.926 27.0275C105.926 31.7825 108.516 34.1615 111.633 34.1615C114.791 34.1615 117.341 31.784 117.341 27.0275C117.341 22.2695 114.791 19.8515 111.633 19.8515C108.516 19.8515 105.926 22.2695 105.926 27.0275ZM88.4199 37.4675V19.9325L92.2651 16.6265H100.441V20.4965H92.995V37.4675H88.4199ZM70.9309 38C62.2135 38 57.0156 31.703 57.0156 23.117C57.0156 14.45 62.399 8 71.1013 8C77.9021 8 82.8798 11.4665 84.0544 17.9165H78.8325C78.0634 14.249 74.9872 12.1925 71.1013 12.1925C64.8282 12.1925 62.0748 17.594 62.0748 23.117C62.0748 28.64 64.8282 34.001 71.1013 34.001C77.0923 34.001 79.7221 29.687 79.9257 26.1005H70.8992V21.926H84.54L84.5174 24.1085C84.5174 32.2175 81.1954 38 70.9309 38Z" fill="black"/>
<defs>
<clipPath id="clip0_524_437">
<rect width="46" height="46" fill="white"/>
</clipPath>
</defs>
</svg>
