<svg width="123" height="46" viewBox="0 0 123 46" fill="none" xmlns="http://www.w3.org/2000/svg">
<path fill-rule="evenodd" clip-rule="evenodd" d="M72.8867 3.90807C80.8472 3.90807 87.3181 10.3634 87.3181 18.3367L87.3104 18.8044C87.0644 26.5612 80.7049 32.7654 72.8867 32.7654C64.911 32.7654 58.4554 26.3101 58.4554 18.3367C58.4554 10.3634 64.9129 3.90807 72.8867 3.90807ZM51.4694 3.86399C51.9691 3.86399 52.4726 3.89274 52.9588 3.95216L52.9877 3.93682C54.9686 4.16002 56.8812 4.79255 58.6034 5.79407L55.907 10.4803C54.5543 9.71607 53.024 9.31951 51.4694 9.33032H50.9831L50.4969 9.36099C49.8473 9.41849 49.2285 9.53732 48.6096 9.70024C47.4161 10.0242 46.3111 10.5992 45.3367 11.3658C43.9423 12.4928 42.9799 14.0645 42.6115 15.8163L42.5346 16.2648L42.4769 16.7152C42.4635 16.8628 42.4327 17.0238 42.4327 17.1714L42.4058 22.3713V27.3412L42.3751 32.1751H36.965L36.9073 22.6435V16.9663C36.9073 16.6999 36.9362 16.4642 36.9496 16.215C36.9938 15.7128 37.0688 15.2126 37.1706 14.7257C37.3628 13.7233 37.6876 12.7516 38.1143 11.822C38.9823 9.97134 40.2628 8.34291 41.8581 7.06099C43.417 5.81442 45.2197 4.90633 47.1509 4.39491C48.0926 4.14382 49.0536 3.98091 50.0241 3.90807C50.2605 3.89274 50.5104 3.86399 50.7468 3.86399H51.4694ZM72.8867 9.31499C71.7005 9.3165 70.5262 9.551 69.4309 10.0051C68.3356 10.4592 67.3407 11.124 66.503 11.9616C65.6653 12.7992 65.0012 13.7931 64.5486 14.8866C64.0961 15.9801 63.864 17.1518 63.8655 18.3348C63.864 19.5178 64.0961 20.6895 64.5486 21.783C65.0012 22.8766 65.6653 23.8705 66.503 24.708C67.3407 25.5456 68.3356 26.2104 69.4309 26.6645C70.5262 27.1186 71.7005 27.3531 72.8867 27.3547C74.073 27.3531 75.2472 27.1186 76.3426 26.6645C77.4379 26.2104 78.4328 25.5456 79.2705 24.708C80.1082 23.8705 80.7723 22.8766 81.2249 21.783C81.6774 20.6895 81.9095 19.5178 81.908 18.3348L81.8984 17.9208C81.7946 15.6058 80.8002 13.4196 79.1219 11.8169C77.4435 10.2142 75.2104 9.3181 72.8867 9.31499ZM18.4074 3.83332C10.4316 3.75666 3.91642 10.1545 3.84339 18.1278C3.77036 26.1012 10.1664 32.6159 18.1421 32.6887H23.1544V27.2799H18.4074C13.4259 27.3393 9.34188 23.345 9.2823 18.3636C9.26706 17.1806 9.48564 16.0061 9.92555 14.9074C10.3655 13.8086 11.0181 12.807 11.8462 11.9598C12.6743 11.1126 13.6616 10.4364 14.7518 9.96977C15.8419 9.50314 17.0136 9.25525 18.1998 9.24024H18.4074C23.2505 9.24024 27.2038 13.0582 27.4325 17.8461L27.4421 18.2601V31.5541C27.4421 36.4914 23.4196 40.5164 18.4958 40.5739C16.1363 40.5534 13.8802 39.6057 12.217 37.9366L8.38478 41.7699C11.0345 44.4351 14.6288 45.9545 18.392 46H18.5842C26.4562 45.8812 32.7791 39.5006 32.8233 31.6307V17.9208C32.6312 10.0817 26.2352 3.83332 18.4074 3.83332ZM104.755 3.90616C96.7795 3.90616 90.3239 10.3615 90.3239 18.3348C90.3239 26.3082 96.7814 32.7635 104.755 32.7635H109.694V27.3547H104.755C103.569 27.3531 102.395 27.1186 101.299 26.6645C100.204 26.2104 99.2092 25.5456 98.3715 24.708C97.5338 23.8705 96.8697 22.8766 96.4172 21.783C95.9646 20.6895 95.7325 19.5178 95.734 18.3348C95.7325 17.1518 95.9646 15.9801 96.4172 14.8866C96.8697 13.7931 97.5338 12.7992 98.3715 11.9616C99.2092 11.124 100.204 10.4592 101.299 10.0051C102.395 9.551 103.569 9.3165 104.755 9.31499C106.942 9.32058 109.052 10.1157 110.696 11.5534C112.34 12.991 113.407 14.9738 113.698 17.135L113.744 17.5567V45.264H119.156V18.3348C119.141 10.3768 112.714 3.90616 104.755 3.90616Z" fill="black"/>
</svg>
