<svg width="213" height="46" viewBox="0 0 213 46" fill="none" xmlns="http://www.w3.org/2000/svg">
<g clip-path="url(#clip0_546_1150)">
<path d="M46.0001 23.0001C46.0001 10.2983 35.6501 -0.0325065 22.9426 7.68644e-05C10.3309 0.0326602 0.0288269 10.3309 7.68644e-05 22.9426C-0.0325065 35.6501 10.2983 46.0001 23.0001 46.0001H38.113C40.2012 46.0001 42.2039 45.1705 43.6805 43.6939C45.1571 42.2173 45.9867 40.2146 45.9867 38.1264V23.7667C45.9943 23.5118 46.0001 23.2569 46.0001 23.0001ZM11.1723 35.7727C7.51149 32.6486 5.25366 27.6461 5.35908 22.5477C5.36674 22.1912 5.38399 21.8347 5.41658 21.4782V21.4552C5.94749 15.3717 9.87666 9.69841 15.3832 7.06299C20.8917 4.42758 27.7764 4.93166 32.8441 8.33566C37.9117 11.7416 40.9765 17.9267 40.6181 24.0217C40.5296 25.3562 40.3185 26.6798 39.9875 27.9757C39.861 28.4932 39.7057 29.028 39.3397 29.4132C38.9755 29.7985 38.3353 29.9787 37.9022 29.6701C37.4882 29.3749 37.4268 28.7961 37.3923 28.2901C37.1048 24.1999 36.0123 19.9813 33.2485 16.953C31.1234 14.654 28.2251 13.2195 25.1084 12.9242C21.9918 12.6547 18.8813 13.5055 16.3358 15.3238C14.2294 16.8322 12.5753 18.9923 11.7742 21.4572C10.9768 23.9201 11.0573 26.682 12.1096 29.051C12.8893 30.8 14.1529 32.2897 15.7512 33.3443C18.563 35.1901 22.4117 35.4527 25.3346 33.7852C28.2556 32.1177 30.0017 28.499 29.258 25.2177C28.5124 21.9363 25.187 19.3776 21.8405 19.7245C21.3307 19.7762 20.5985 19.7207 20.5812 19.207C20.5659 18.8102 21.0432 18.6013 21.4342 18.5304C24.8286 17.9209 28.4683 19.6459 30.3275 22.5497C32.1924 25.4534 32.2863 29.3423 30.7664 32.4397C29.2446 35.5351 26.2239 37.7967 22.8736 38.6132C18.356 39.7153 14.2658 38.412 11.1762 35.7727H11.1723Z" fill="url(#paint0_linear_546_1150)"/>
</g>
<path fill-rule="evenodd" clip-rule="evenodd" d="M76.2952 40.1168V26.3653H63.6375V40.1168H55.5V6.71275H63.6375V19.7975H76.2952V6.711H84.4327V40.1168H76.2952ZM88.6677 26.7975C88.6677 24.0063 89.191 21.5948 90.2375 19.563C91.284 17.533 92.6945 15.9632 94.4725 14.8537C96.2392 13.7459 98.2865 13.1678 100.372 13.1878C102.339 13.1878 104.02 13.585 105.417 14.3777C106.812 15.1705 107.86 16.154 108.558 17.3282V13.5675H116.696V40.1203H108.558V36.3595C107.827 37.5355 106.764 38.5172 105.37 39.31C103.971 40.1027 102.293 40.5 100.324 40.5C98.1667 40.5 96.2085 39.9365 94.448 38.8112C92.6875 37.686 91.284 36.0988 90.2375 34.053C89.191 32.0055 88.6677 29.5887 88.6677 26.7957V26.7975ZM108.558 26.8447C108.558 24.7185 107.977 23.0928 106.82 21.9658C105.662 20.8405 104.306 20.277 102.753 20.277C101.201 20.277 99.8835 20.8335 98.7092 21.943C97.535 23.0525 96.9487 24.6695 96.9487 26.7957C96.9487 28.922 97.5367 30.5565 98.7092 31.6975C99.8817 32.8385 101.231 33.4107 102.753 33.4107C104.276 33.4107 105.664 32.8472 106.822 31.722C107.979 30.5967 108.558 28.971 108.558 26.8447ZM126.69 10.8025C125.23 10.8025 124.054 10.3772 123.167 9.51975C122.28 8.66225 121.835 7.6315 121.835 6.42575C121.835 5.21825 122.28 4.142 123.167 3.2845C124.056 2.427 125.23 2 126.69 2C128.149 2 129.275 2.427 130.164 3.2845C131.053 4.142 131.497 5.1885 131.497 6.42575C131.497 7.663 131.053 8.66225 130.164 9.51975C129.275 10.3772 128.116 10.8025 126.69 10.8025ZM122.595 40.1185V13.5675H130.732V40.115H122.595V40.1185ZM136.626 40.1185V4.905H144.764V40.1185H136.626ZM176.896 13.5658V40.115H168.758V36.4995C167.965 37.6405 166.872 38.5768 165.473 39.3065C164.077 40.0363 162.491 40.4003 160.715 40.4003C157.639 40.4003 155.155 39.4027 153.269 37.4025C151.381 35.404 150.437 32.6268 150.437 29.076V13.5658H158.528V27.9823C158.528 29.7918 158.995 31.1795 159.931 32.1472C160.867 33.1132 162.096 33.5997 163.62 33.5997C165.143 33.5997 166.457 33.115 167.379 32.1472C168.3 31.1795 168.76 29.7918 168.76 27.9823V13.5675L176.896 13.5658ZM208.723 26.8447C208.723 29.636 208.105 32.0545 206.868 34.1003C205.671 36.1098 203.941 37.7489 201.87 38.8357C199.775 39.9452 197.427 40.4983 194.828 40.4983C192.227 40.4983 189.895 39.9452 187.833 38.8357C185.791 37.7437 184.094 36.1037 182.933 34.1003C181.726 32.0528 181.124 29.636 181.124 26.8447C181.124 24.0517 181.736 21.5947 182.956 19.5647C184.145 17.5641 185.867 15.9331 187.929 14.8537C190.024 13.7425 192.355 13.1878 194.922 13.1878C197.491 13.1878 199.863 13.7442 201.94 14.8537C203.991 15.9392 205.704 17.5685 206.891 19.563C208.112 21.593 208.723 24.022 208.723 26.8447ZM189.403 26.8447C189.403 29.0655 189.94 30.7228 191.018 31.8165C192.096 32.9103 193.367 33.458 194.826 33.458C196.286 33.458 197.586 32.9103 198.729 31.8165C199.873 30.7228 200.442 29.0655 200.442 26.8447C200.442 24.6222 199.878 22.9247 198.753 21.8467C197.626 20.7705 196.35 20.2297 194.921 20.2297C193.493 20.2297 192.177 20.7705 191.065 21.8467C189.956 22.9265 189.403 24.5907 189.403 26.8447Z" fill="black"/>
<defs>
<linearGradient id="paint0_linear_546_1150" x1="1.03316" y1="1.69441" x2="52.6835" y2="51.7922" gradientUnits="userSpaceOnUse">
<stop offset="0.09" stop-color="#FFAB0C"/>
<stop offset="0.31" stop-color="#FF5538"/>
<stop offset="0.46" stop-color="#E9405D"/>
<stop offset="0.75" stop-color="#D266DA"/>
<stop offset="0.89" stop-color="#D584EF"/>
</linearGradient>
<clipPath id="clip0_546_1150">
<rect width="46" height="46" fill="white"/>
</clipPath>
</defs>
</svg>
