<svg width="46" height="46" viewBox="0 0 46 46" fill="none" xmlns="http://www.w3.org/2000/svg">
<path fill-rule="evenodd" clip-rule="evenodd" d="M33.9112 20.3416C32.8167 20.3583 31.7298 20.1571 30.7137 19.7498C29.6977 19.3425 28.7728 18.7371 27.9929 17.969C27.213 17.2009 26.5936 16.2853 26.1708 15.2756C25.7481 14.2659 25.5304 13.1821 25.5304 12.0875C25.5304 10.9928 25.7481 9.9091 26.1708 8.89937C26.5936 7.88964 27.213 6.97407 27.9929 6.20595C28.7728 5.43783 29.6977 4.8325 30.7137 4.42517C31.7298 4.01785 32.8167 3.81668 33.9112 3.83336C36.0786 3.86638 38.146 4.75054 39.667 6.2949C41.188 7.83925 42.0405 9.91988 42.0405 12.0875C42.0405 14.2551 41.188 16.3357 39.667 17.8801C38.146 19.4244 36.0786 20.3086 33.9112 20.3416ZM42.1606 33.6203C42.1605 31.9506 41.6641 30.3187 40.7345 28.9317C39.8048 27.5448 38.4839 26.4655 36.9396 25.8309C35.9142 25.4054 34.8236 25.2559 33.6391 25.1927C31.9562 25.1026 30.0645 24.8189 28.4947 24.3417C26.8847 23.8549 25.5105 22.7988 24.3241 21.6143C23.1357 20.4298 22.1314 19.0402 21.5871 17.4551C21.0408 15.8643 20.8549 13.9227 20.738 12.259C20.623 10.6107 20.2397 8.96236 19.3082 7.57469C18.611 6.53831 17.6931 5.66905 16.6203 5.02924C15.5476 4.38942 14.3465 3.99492 13.1033 3.874C11.8601 3.75309 10.6056 3.90877 9.42962 4.32988C8.25368 4.75098 7.18549 5.42708 6.30166 6.30969C5.41885 7.19179 4.74312 8.25906 4.32333 9.43431C3.90354 10.6096 3.75019 11.8634 3.87437 13.1052C3.99855 14.347 4.39715 15.5457 5.04135 16.6145C5.68555 17.6834 6.55924 18.5957 7.59924 19.2855C8.94091 20.1749 10.6314 20.5927 12.2989 20.6981C14.0488 20.8093 15.8639 21.0431 17.5122 21.5376C19.1203 22.0244 20.4927 23.0824 21.681 24.2669C22.8693 25.4514 23.8717 26.841 24.418 28.4261C24.9585 29.9959 25.2153 31.9489 25.2594 33.6222C25.292 34.8929 25.4511 35.8474 25.8708 36.8824C26.2922 37.9183 26.9146 38.8606 27.7019 39.6548C28.4892 40.449 29.4259 41.0796 30.4581 41.51C31.4903 41.9405 32.5974 42.1624 33.7158 42.1629C34.8341 42.1635 35.9415 41.9426 36.9741 41.5131C38.0071 41.0833 38.9441 40.452 39.7302 39.6559C40.5168 38.8625 41.1372 37.9203 41.5552 36.8842C41.9731 35.8482 42.1802 34.7392 42.1644 33.6222L42.1606 33.6203ZM3.83299 33.9116C3.81631 35.0061 4.01749 36.0931 4.42481 37.1091C4.83213 38.1252 5.43747 39.0501 6.20559 39.83C6.97371 40.6099 7.88927 41.2292 8.899 41.652C9.90873 42.0748 10.9925 42.2925 12.0871 42.2925C13.1818 42.2925 14.2655 42.0748 15.2752 41.652C16.285 41.2292 17.2005 40.6099 17.9686 39.83C18.7368 39.0501 19.3421 38.1252 19.7494 37.1091C20.1567 36.0931 20.3579 35.0061 20.3412 33.9116C20.3082 31.7443 19.4241 29.6769 17.8797 28.1559C16.3353 26.6349 14.2547 25.7823 12.0871 25.7823C9.91952 25.7823 7.83889 26.6349 6.29453 28.1559C4.75017 29.6769 3.86602 31.7443 3.83299 33.9116Z" fill="black"/>
</svg>
