<svg width="46" height="46" viewBox="0 0 46 46" fill="none" xmlns="http://www.w3.org/2000/svg">
<path fill-rule="evenodd" clip-rule="evenodd" d="M19.0974 43.5409L22.2983 38.0017L26.9155 46L32.7422 42.6382L27.4867 33.5417L26.1795 31.28L24.6462 28.6254H19.9446L18.4113 31.28L17.1041 33.5417L13.2689 40.1791L19.0974 43.5409ZM3.25044 29.8866H9.64827L5.0291 37.8829L10.8558 41.2467L16.1113 32.1483L17.4184 29.8866L18.9518 27.2339L16.6 23.1648H3.25044V29.8866ZM7.16044 9.34567L10.3613 14.8848H1.11719V21.6066H17.3092L19.6648 17.5375L18.1314 14.8829L16.8243 12.6212L12.989 5.98575L7.16044 9.34567ZM26.9174 2.45908L23.7166 7.99825L19.0994 0L13.2727 3.36183L18.5263 12.4583L19.8354 14.72L21.3687 17.3746H26.0703L27.6036 14.72L28.9089 12.4583L32.7441 5.82092L26.9174 2.45908ZM42.7644 16.1134H36.3666L40.9858 8.11708L35.1591 4.75525L29.9036 13.8518L28.5964 16.1134L27.0631 18.768L29.4149 22.8352H42.7644V16.1134ZM38.8544 36.6524L35.6536 31.1152H44.8958V24.3934H28.7038L26.3539 28.4625L27.8873 31.1171L29.1944 33.3788L33.0278 40.0162L38.8564 36.6524H38.8544Z" fill="black"/>
</svg>
