<svg width="213" height="46" viewBox="0 0 213 46" fill="none" xmlns="http://www.w3.org/2000/svg">
<g clip-path="url(#clip0_546_1148)">
<path d="M23 46C35.7025 46 46 35.7025 46 23C46 10.2975 35.7025 0 23 0C10.2975 0 0 10.2975 0 23C0 35.7025 10.2975 46 23 46Z" fill="#0055E9"/>
<path d="M23 0C23.9928 0 24.9703 0.06325 25.9287 0.184C28.7112 0.891635 31.1426 2.58461 32.7717 4.94879C34.4008 7.31298 35.117 10.1879 34.7874 13.04C34.4578 15.8921 33.1048 18.5279 30.9794 20.4582C28.854 22.3885 26.1006 23.4823 23.23 23.5367L23 23.5386C17.2692 23.5386 12.9528 27.715 12.3548 33.3328C11.9274 37.3309 13.0314 41.7891 16.652 45.1126C7.038 42.3583 0 33.5014 0 23C0 10.2983 10.2983 0 23 0Z" fill="#A8DFF5"/>
<path d="M10.1315 9.58333C10.6427 9.92284 11.0821 10.3597 11.4245 10.8691C11.7669 11.3784 12.0056 11.9502 12.1269 12.5517C12.2483 13.1533 12.25 13.7729 12.1319 14.3752C12.0138 14.9774 11.7783 15.5505 11.4387 16.0617C3.84483 27.4965 5.27658 36.6524 16.514 45.0723C6.969 42.274 0 33.4497 0 23C0 19.5749 0.7475 16.3262 2.08917 13.4052C2.57408 12.5714 3.09542 11.7338 3.65508 10.8924C4.34044 9.86014 5.40772 9.14234 6.62223 8.89685C7.83674 8.65136 9.09902 8.89829 10.1315 9.58333Z" fill="#0055E9"/>
<path d="M24.8787 0.0766847C25.4 0.116935 25.9194 0.178268 26.4312 0.254935C27.5486 0.458101 28.5721 0.741768 29.379 1.09827C42.1018 6.70835 44.8465 20.3646 32.7293 31.0788C31.1585 32.4673 29.1005 33.1751 27.0078 33.0464C24.9152 32.9177 22.9594 31.9631 21.5705 30.3926C18.6763 27.1228 19.0788 22.3733 22.2548 19.2338C23.8993 17.6084 28.2118 16.8897 30.0077 14.5552C32.4169 11.4234 34.0748 3.03793 25.1719 0.168685L24.8787 0.0766847Z" fill="#00BCFF"/>
<path d="M25.9288 0.183993C28.7334 0.893567 31.1819 2.6039 32.8133 4.99301C34.4447 7.38211 35.1465 10.2852 34.7865 13.1557C34.4266 16.0262 33.0297 18.6661 30.8589 20.5784C28.6881 22.4907 25.8931 23.5435 23.0002 23.5386C21.8893 23.5354 20.7843 23.7002 19.7227 24.0273C20.0044 22.2927 20.8631 20.608 22.2546 19.2337C23.8991 17.6084 28.2116 16.8897 30.0075 14.5552C32.4417 11.3907 34.1092 2.85583 24.8785 0.0766602C25.2312 0.103493 25.5819 0.13991 25.9288 0.183993Z" fill="#ECECEE"/>
</g>
<path fill-rule="evenodd" clip-rule="evenodd" d="M87.3885 18.7405C87.8558 19.5665 88.743 20.3487 90.052 21.0837C91.3627 21.8187 92.6122 22.3298 93.8057 22.6133L92.7943 26.0205C92.0312 25.8566 91.2831 25.6295 90.5578 25.3415C89.6264 24.9735 88.7341 24.5133 87.8942 23.9678L86.9615 28.0715H88.8672C89.8262 28.0715 90.4283 28.2395 90.675 28.5755C90.92 28.9115 90.9918 29.363 90.8885 29.93C90.6558 31.4525 90.3635 33.1762 90.0135 35.0995L89.0615 40.346H78.523L77.823 37.2082H85.3655L86.4557 31.9058C86.5607 31.3895 86.3385 31.1305 85.7943 31.1305H72.5327L73.777 24.7815C73.5443 24.8847 73.084 25.065 72.398 25.324C71.7103 25.5813 70.9122 25.814 70.0057 26.0205L70.823 22.1477C72.084 21.8158 73.3034 21.3421 74.4578 20.7355C75.6128 20.1283 76.577 19.4632 77.3558 18.7405H71.4828L72.1058 15.7218H79.4172C79.7025 15.2318 79.9737 14.6367 80.2327 13.9402H72.4172L73.0385 10.8427H75.723L74.7885 6.1965H78.873C79.027 7.04875 79.3385 8.5975 79.8057 10.8427H81.2057C81.5695 9.09492 81.8035 7.32259 81.9058 5.54025H86.027C85.8975 7.62975 85.6648 9.39725 85.327 10.8427H86.8442C87.5529 9.33484 88.1637 7.78288 88.673 6.1965H92.7557C92.1906 7.78439 91.5284 9.33606 90.773 10.8427H93.65L92.9115 13.9402H84.3925C84.3663 14.0697 84.1335 14.663 83.6925 15.7218H94.1155L93.3752 18.7405H87.3885ZM69.85 6.54475C70.627 6.54475 71.2115 6.6235 71.6 6.7775C71.9885 6.93325 72.223 7.1905 72.3 7.55275C72.377 7.91325 72.377 8.32625 72.3 8.79175L66.6615 40.3425H62.6925L64.9868 28.2255H62.3442C62.0376 29.7475 61.7063 31.2643 61.3502 32.7755C60.7589 35.3144 60.1042 37.8381 59.3868 40.3442H55.5C56.747 36.2828 57.7855 32.1602 58.6115 27.9927L62.4615 6.543L69.85 6.54475ZM68.2942 10.5715C68.3467 10.288 68.3135 10.0937 68.198 9.9905C68.0807 9.88725 67.8795 9.8365 67.5943 9.8365H65.65L64.6 15.72H67.323L68.2942 10.5715ZM83.3442 18.7405H81.9058C81.1217 19.8068 80.1921 20.7582 79.1442 21.5667H85.173C84.8053 21.1389 84.4673 20.6864 84.1615 20.2122C83.8509 19.7445 83.5776 19.253 83.3442 18.7423V18.7405ZM65.573 25.0528L66.7385 18.8578H64.0173L62.927 25.0528H65.573ZM77.2 28.0715H82.9557L83.7327 24.5102H75.8L77.627 25.7493L77.2 28.0715ZM84.123 32.6793L83.423 35.6997H70.0057L69.4615 32.6793H84.123ZM108.467 13.9402H104.227L102.788 5.80975H106.833L108.467 13.9402ZM129.077 6.158C130.218 6.158 130.949 6.3505 131.275 6.739C131.599 7.12575 131.671 7.81 131.489 8.79175L126.55 36.4348H131.373L129.973 40.0363H121.573C122.637 34.143 123.673 28.2448 124.683 22.342H118.462L115.35 40.0345H111.073L114.183 22.342H108.858L109.519 19.052H114.769L116.246 10.7657L120.019 13.5535L119.046 19.0503H125.269C125.864 15.5397 126.372 12.7538 126.785 10.6888C126.863 10.3265 126.844 10.05 126.727 9.85575C126.61 9.66325 126.254 9.56525 125.658 9.56525H111.307L110.529 6.158H129.077ZM107.223 15.993L104.265 32.5235C105.07 31.9302 106.782 30.602 109.4 28.537L108.467 33.57C106.891 34.8159 105.269 36.0038 103.606 37.1313C101.898 38.3005 100.16 39.4238 98.3925 40.5L102.321 19.3985H98.3138L98.8982 15.993H107.223ZM147.277 13.4362H142.261C141.276 11.3975 140.109 8.7515 138.761 5.5H143.389C144.563 8.20354 145.86 10.8517 147.277 13.4362ZM167.384 6.2735C168.188 6.2735 168.797 6.33825 169.211 6.46775C169.626 6.59725 169.912 6.8545 170.067 7.243C170.223 7.628 170.235 8.2755 170.106 9.1785L168.356 21.607H147.433L149.417 6.2735H167.384ZM165.323 9.44975H153.266L152.916 12.2375H165.438L165.75 10.0675C165.827 9.65625 165.685 9.44975 165.323 9.44975ZM145.527 23.5022H140.589C139.461 20.7803 138.437 18.0169 137.517 15.2177H141.95C143.039 18.0234 144.232 20.7874 145.527 23.504V23.5022ZM152.139 18.4307H164.506L164.973 15.3735H152.527L152.139 18.4307ZM155.833 31.0535H150.158L149.263 36.9388H155.719L154.475 40.346H144.479L147.163 23.077H151.363L150.663 27.6848H156.3L155.833 31.0535ZM168.94 29.426C167.202 30.0472 164.674 30.847 161.356 31.827L160.656 36.937H169.173L167.965 40.346H155.95L158.4 23.077H162.6L161.9 28.187C165.141 27.1037 167.642 26.1745 169.406 25.401L168.94 29.426ZM140.667 26.3688H145.256C142.974 31.9443 140.861 36.6028 138.917 40.346H133.86C136.351 35.7983 138.623 31.1339 140.667 26.3688ZM208.45 7.5125L207.867 11.0755H181.343L181.925 7.5125H208.45ZM208.956 21.53H200.361L198.262 36.629H208.644L207.283 40.346H192.933L195.733 21.5283H190.327C189.889 23.9325 189.212 26.2869 188.306 28.5563C187.441 30.7077 186.311 32.7428 184.942 34.6147C183.581 36.4732 181.747 38.3843 179.438 40.346H172.789C174.915 38.7185 176.633 37.266 177.942 35.9885C179.218 34.7501 180.376 33.3962 181.402 31.9443C182.432 30.467 183.299 28.8828 183.988 27.2193C184.715 25.4903 185.273 23.5933 185.661 21.5283H176.911L177.454 17.967H209.5L208.956 21.53Z" fill="black"/>
<defs>
<clipPath id="clip0_546_1148">
<rect width="46" height="46" fill="white"/>
</clipPath>
</defs>
</svg>
