<svg width="264" height="46" viewBox="0 0 264 46" fill="none" xmlns="http://www.w3.org/2000/svg">
<g clip-path="url(#clip0_546_1154)">
<path d="M0.369917 37.3805C0.135576 37.9422 0.0144275 38.5447 0.0134167 39.1534C0.0134167 41.6776 2.14475 43.9795 5.66758 45.741C5.98917 45.8972 6.3399 45.9844 6.69723 45.997C7.05455 46.0096 7.41055 45.9473 7.74234 45.8141C8.07414 45.6809 8.37438 45.4797 8.62377 45.2235C8.87317 44.9673 9.06618 44.6617 9.19042 44.3265L13.1177 34.8773C13.8057 33.2347 14.3482 31.5327 14.7392 29.7943C7.46542 31.0152 1.98183 33.804 0.463833 37.2156L0.4025 37.3613L0.369917 37.3805ZM14.7257 16.207C14.3342 14.4681 13.7917 12.7667 13.1042 11.1221L9.18083 1.67296C9.05593 1.33775 8.86238 1.03233 8.61258 0.776273C8.36278 0.520212 8.06225 0.319157 7.73024 0.185991C7.39822 0.0528248 7.04205 -0.00951566 6.68455 0.00296407C6.32704 0.0154438 5.97609 0.102468 5.65417 0.258462C2.13133 2.01988 0 4.32371 0 6.84796C0 7.45555 0.122667 8.05738 0.3565 8.61896V8.63813L0.417833 8.78571C1.97033 12.1974 7.45008 14.9842 14.7257 16.207ZM40.3439 0.260379C43.8667 2.01988 45.9981 4.32371 45.9981 6.84605C45.989 7.45578 45.8614 8.05793 45.6224 8.61896L45.5707 8.73971C44.0661 12.1744 38.5691 14.9765 31.2723 16.207C31.6633 14.4686 32.2058 12.7666 32.8938 11.1221L36.8192 1.67296C36.9434 1.33745 37.1364 1.03166 37.386 0.775274C37.6355 0.518892 37.936 0.317601 38.268 0.184356C38.6 0.051112 38.9563 -0.0111319 39.3138 0.00163131C39.6713 0.0143945 40.0222 0.101882 40.3439 0.258462V0.260379ZM31.2934 29.7943C31.6787 31.5308 32.2134 33.2309 32.8977 34.8735L36.823 44.3265C36.9475 44.6615 37.1406 44.9669 37.3901 45.2229C37.6395 45.479 37.9397 45.68 38.2714 45.8132C38.6031 45.9464 38.959 46.0088 39.3163 45.9963C39.6735 45.9839 40.0242 45.8969 40.3458 45.741C43.8706 43.9776 46.0019 41.6776 46.0019 39.1534C45.9993 38.5449 45.8782 37.9427 45.6454 37.3805L45.5937 37.2616C44.0948 33.827 38.5767 31.021 31.2934 29.7943ZM31.0462 18.2176C36.2116 17.4222 40.5049 15.8735 43.4662 13.8515L42.6267 15.8697C40.7444 20.4347 40.7444 25.559 42.6267 30.124L43.4604 32.1326C40.4953 30.1105 36.202 28.5772 31.0423 27.7722L30.9082 27.753C28.2909 27.3557 25.6472 27.1584 23 27.1627C20.3607 27.1589 17.7253 27.3544 15.1148 27.7511L14.9787 27.7703C9.81717 28.5619 5.52383 30.1125 2.55875 32.1345L3.39633 30.122C5.27858 25.557 5.27858 20.4328 3.39633 15.8678L2.55875 13.8515C5.51042 15.8831 9.80375 17.4222 14.9653 18.2176L15.1014 18.2368C20.3416 19.0169 25.668 19.0169 30.9062 18.2368L31.0423 18.2176H31.0462Z" fill="#594CE9"/>
</g>
<g clip-path="url(#clip1_546_1154)">
<path fill-rule="evenodd" clip-rule="evenodd" d="M55.5039 36.636V6.33125H59.5407V19.7537H74.9466V6.33125H78.9833V36.6412H74.9466V23.3482H59.5407V36.6395H55.5039V36.636ZM98.9727 12.8255H103.267L91.5492 41.7915C91.2981 42.4482 90.8514 43.0121 90.2692 43.4071C89.687 43.802 88.9975 44.009 88.2938 44H81.0473V40.6242H88.0345L90.1633 35.3445L81.0525 12.8307H85.3451L92.1606 30.9292L98.9727 12.8307V12.8255ZM109.138 14.558C109.138 15.468 109.138 16.245 109.051 17.2407H109.138C110.829 14.1222 113.869 12.2182 117.73 12.2182C123.679 12.2182 128.709 16.5897 128.709 24.6012C128.709 32.6127 123.673 37.245 117.73 37.245C113.869 37.245 110.831 35.3392 109.138 32.2225H109.051C109.138 33.2182 109.138 33.997 109.138 34.9052V43.9965H105.231V12.8255H109.138V14.558ZM116.821 33.8657C121.42 33.9095 124.632 30.1417 124.632 24.6012C124.632 19.059 121.42 15.5537 116.821 15.5975C112.178 15.6395 109.094 19.3197 109.094 24.5575C109.094 29.7952 112.178 33.822 116.821 33.8657ZM152.952 22.9125V26.031H134.294C134.771 30.9257 137.723 33.871 141.802 33.871C145.015 33.871 147.575 32.051 148.53 29.3245H152.735C151.736 33.913 147.487 37.2485 141.802 37.2485C134.858 37.2485 130.172 32.2697 130.172 24.736C130.172 17.2022 134.943 12.22 141.802 12.22C148.223 12.22 152.952 16.8085 152.952 22.916V22.9125ZM141.802 15.5975C137.632 15.5975 134.811 18.6722 134.338 22.5695H149.003C148.567 18.4972 145.833 15.5975 141.802 15.5975ZM155.857 36.636V12.822H159.677V16.98H159.764C160.891 14.684 163.062 12.2182 166.878 12.2182H169.18V15.5922H166.359C162.364 15.5922 159.762 18.2347 159.762 23.2135V36.636H155.857ZM175.026 14.558C175.026 15.468 175.026 16.245 174.939 17.2407H175.026C176.717 14.1222 179.757 12.2182 183.618 12.2182C189.565 12.2182 194.597 16.5897 194.597 24.6012C194.597 32.6127 189.562 37.245 183.618 37.245C179.755 37.245 176.717 35.3392 175.026 32.2225H174.939C175.026 33.2182 175.026 33.997 175.026 34.9052V36.6377H171.119V2H175.026V14.558ZM182.707 33.8657C187.307 33.9095 190.52 30.1417 190.52 24.6012C190.52 19.059 187.307 15.5537 182.706 15.5975C178.063 15.6395 174.983 19.3197 174.983 24.5575C174.983 29.7952 178.064 33.822 182.707 33.8657ZM208.698 37.245C202.103 37.245 196.85 32.7002 196.85 24.7325C196.85 16.763 202.099 12.2182 208.698 12.2182C215.298 12.2182 220.543 16.7192 220.543 24.7307C220.543 32.7422 215.292 37.245 208.698 37.245ZM208.698 33.8657C213.036 33.822 216.468 30.7472 216.468 24.7307C216.468 18.716 213.041 15.6395 208.699 15.5957C204.361 15.5537 200.931 18.6722 200.931 24.7307C200.931 30.791 204.356 33.9095 208.698 33.8657ZM222.674 36.636V2H226.581V36.636H222.674ZM230.781 8.79875V4.7265H234.859V8.79875H230.781ZM230.866 36.636V12.822H234.774V36.636H230.866ZM249.475 37.245C242.399 37.245 237.626 32.2645 237.626 24.687C237.626 17.1095 242.05 12.2182 249.475 12.2182C256.245 12.2182 259.977 16.5897 260.496 21.9167H256.415C256.152 18.541 253.726 15.5975 249.47 15.5975C244.653 15.5975 241.701 19.3635 241.701 24.687C241.701 30.3167 245.084 33.8657 249.47 33.8657C253.855 33.8657 256.023 30.6597 256.415 28.0207H260.496C259.846 32.8682 256.028 37.2415 249.475 37.2415V37.245Z" fill="black"/>
</g>
<defs>
<clipPath id="clip0_546_1154">
<rect width="46" height="46" fill="white"/>
</clipPath>
<clipPath id="clip1_546_1154">
<rect width="212" height="42" fill="white" transform="translate(52 2)"/>
</clipPath>
</defs>
</svg>
