<svg width="46" height="46" viewBox="0 0 46 46" fill="none" xmlns="http://www.w3.org/2000/svg">
<g clip-path="url(#clip0_546_1099)">
<path d="M39.6999 12.7555C38.9064 10.0223 36.3496 8.01746 33.2657 8.01746C32.1296 8.01687 31.0107 8.29527 30.0073 8.82821C28.0217 5.83821 24.541 3.83337 20.5754 3.83337C14.8925 3.83337 10.1775 7.97337 9.47408 13.3094C4.09783 14.1642 0 18.6454 0 24.1117C0 30.13 5.02167 34.9984 11.2355 34.9984C14.3213 34.9984 17.1388 33.7602 19.1667 31.7956C19.6957 31.2839 20.1806 30.728 20.5773 30.0898C20.1828 30.6783 19.7245 31.2215 19.2108 31.7094C16.9955 34.6971 15.8055 38.3209 15.8183 42.0402V42.1667C20.7667 38.9281 26.5164 37.1255 32.4281 36.9591H32.5163C38.3333 36.9591 43.3128 33.373 45.2065 28.336C45.74 26.902 46.0088 25.383 46 23.853C46 19.2012 43.4892 15.1034 39.6999 12.7555ZM13.3515 24.6656C13.3485 24.8765 13.3039 25.0848 13.2202 25.2784C13.1366 25.4721 13.0155 25.6473 12.8639 25.794C12.7124 25.9408 12.5334 26.0561 12.3371 26.1335C12.1409 26.2109 11.9313 26.2488 11.7204 26.245C11.5151 26.2437 11.312 26.2018 11.123 26.1215C10.934 26.0412 10.7628 25.9243 10.6193 25.7774C10.4758 25.6305 10.3628 25.4566 10.287 25.2658C10.2112 25.0749 10.1739 24.8709 10.1775 24.6656V20.4815C10.1739 20.2762 10.2112 20.0722 10.287 19.8814C10.3628 19.6906 10.4758 19.5167 10.6193 19.3698C10.7628 19.2229 10.934 19.1059 11.123 19.0257C11.312 18.9454 11.5151 18.9034 11.7204 18.9022C12.6021 18.9022 13.3496 19.6286 13.3496 20.4815L13.3515 24.6656ZM19.1226 26.7145C19.1191 26.931 19.073 27.1447 18.9869 27.3433C18.9008 27.542 18.7764 27.7217 18.6209 27.8723C18.4653 28.0229 18.2816 28.1413 18.0803 28.2209C17.8789 28.3005 17.6639 28.3396 17.4474 28.336C17.0106 28.3427 16.5889 28.1757 16.2752 27.8716C15.9614 27.5676 15.7812 27.1514 15.7742 26.7145V17.3229C15.7812 16.886 15.9614 16.4699 16.2752 16.1658C16.5889 15.8618 17.0106 15.6947 17.4474 15.7014C17.6639 15.6978 17.8789 15.7369 18.0803 15.8165C18.2816 15.8961 18.4653 16.0145 18.6209 16.1651C18.7764 16.3157 18.9008 16.4954 18.9869 16.6941C19.073 16.8927 19.1191 17.1064 19.1226 17.3229V26.7145ZM25.0719 24.7078C25.0719 25.5607 24.2784 26.2871 23.3968 26.2871C22.5151 26.2871 21.7676 25.5607 21.7676 24.7078V20.4394C21.7676 19.5845 22.471 18.86 23.3968 18.86C24.2784 18.86 25.07 19.5845 25.07 20.4394V24.7078H25.0719ZM31.1075 26.7567C31.104 26.9732 31.0579 27.1868 30.9718 27.3855C30.8857 27.5841 30.7614 27.7639 30.6058 27.9145C30.4502 28.065 30.2665 28.1835 30.0652 28.2631C29.8639 28.3426 29.6488 28.3818 29.4323 28.3782C28.9955 28.3849 28.5739 28.2178 28.2601 27.9138C27.9464 27.6097 27.7661 27.1936 27.7591 26.7567V17.365C27.7661 16.9282 27.9464 16.512 28.2601 16.208C28.5739 15.9039 28.9955 15.7369 29.4323 15.7435C29.6488 15.74 29.8639 15.7791 30.0652 15.8587C30.2665 15.9383 30.4502 16.0567 30.6058 16.2073C30.7614 16.3579 30.8857 16.5376 30.9718 16.7363C31.0579 16.9349 31.104 17.1486 31.1075 17.365V26.7567ZM37.0108 24.6656C37.0078 24.8764 36.9633 25.0845 36.8797 25.278C36.7962 25.4715 36.6753 25.6466 36.524 25.7933C36.3726 25.94 36.1938 26.0554 35.9978 26.1329C35.8018 26.2104 35.5924 26.2485 35.3817 26.245C35.1763 26.2437 34.9733 26.2018 34.7842 26.1215C34.5952 26.0412 34.424 25.9243 34.2805 25.7774C34.137 25.6305 34.0241 25.4566 33.9482 25.2658C33.8724 25.0749 33.8352 24.8709 33.8388 24.6656V20.4815C33.8352 20.2762 33.8724 20.0722 33.9482 19.8814C34.0241 19.6906 34.137 19.5167 34.2805 19.3698C34.424 19.2229 34.5952 19.1059 34.7842 19.0257C34.9733 18.9454 35.1763 18.9034 35.3817 18.9022C36.2633 18.9022 37.0108 19.6286 37.0108 20.4815V24.6656Z" fill="#2A80E2"/>
</g>
<defs>
<clipPath id="clip0_546_1099">
<rect width="46" height="46" fill="white"/>
</clipPath>
</defs>
</svg>
