<svg width="303" height="46" viewBox="0 0 303 46" fill="none" xmlns="http://www.w3.org/2000/svg">
<path fill-rule="evenodd" clip-rule="evenodd" d="M43.4685 41.5706H33.7783V4.42367H43.4685V41.5706ZM28.6695 41.5706H21.7944V4.42367H28.6675V41.5687L28.6695 41.5706ZM17.2398 41.5706H11.9661V4.42367H17.2398V41.5706ZM7.6052 41.5706H3.83496V4.42367H7.6052V41.5706ZM58.0048 4.42367L73.8261 26.105V4.42367H83.127V41.5687H74.8674L58.4958 19.5462V41.5687H49.1987V4.42558H58.0029L58.0048 4.42367ZM88.8648 4.42367H111.711V12.3587H98.3633V19.0574H111.218V26.9924H98.3595V41.5783H88.8667V4.42175L88.8648 4.42367ZM116.06 4.42367H139.353V12.3587H125.557V18.6166H138.86V26.5516H125.557V33.6471H139.353V41.5821H116.06V4.42367ZM153.785 28.2708V41.5763H144.197V4.42367H156.509C165.357 4.42367 171.44 8.75533 171.44 16.3453C171.44 21.3172 168.423 24.9684 163.775 26.8372L175.64 41.5706H163.969L153.78 28.2651L153.785 28.2708ZM153.785 21.0757H156.451C159.669 21.0757 161.594 19.3507 161.594 16.6424C161.594 13.9342 159.669 12.259 156.453 12.259H153.787L153.785 21.0757ZM176.978 4.42367H200.267V12.3587H186.469V18.6166H199.774V26.5516H186.469V33.6471H200.267V41.5821H176.978V4.42367ZM213.919 4.42367L229.743 26.105V4.42367H239.04V41.5687H230.782L214.412 19.5462V41.5687H205.115V4.42558L213.919 4.42367ZM262.725 33.1008C266.383 33.1008 269.351 31.625 271.133 29.6987V40.3918C268.559 41.5706 265.543 42.1667 262.526 42.1667C251.647 42.1667 242.896 33.5417 242.896 23C242.896 12.4583 251.647 3.83333 262.526 3.83333C265.543 3.83333 268.559 4.4735 271.133 5.60817V16.3013C269.351 14.3827 266.383 12.8992 262.725 12.8992C256.844 12.8992 252.588 17.1829 252.588 23C252.588 28.8171 256.836 33.1008 262.725 33.1008ZM275.582 4.42367H298.869V12.3587H285.071V18.6166H298.378V26.5516H285.071V33.6471H298.869V41.5821H275.582V4.42367Z" fill="black"/>
</svg>
