<svg width="46" height="46" viewBox="0 0 46 46" fill="none" xmlns="http://www.w3.org/2000/svg">
<path d="M18.5645 22.954C18.562 19.688 18.5582 16.422 18.553 13.156C18.5515 12.9769 18.479 12.8057 18.3515 12.6799C18.2239 12.5542 18.0517 12.4841 17.8726 12.4851H4.36776C4.22576 12.4846 4.08975 12.4279 3.98952 12.3273C3.88929 12.2267 3.83301 12.0905 3.83301 11.9485V4.26648C3.83301 4.15148 3.87709 4.04223 3.95759 3.95981C3.99682 3.91979 4.04364 3.88798 4.09531 3.86626C4.14698 3.84454 4.20246 3.83334 4.25851 3.83331H26.6164C26.7515 3.83368 26.8812 3.88606 26.9787 3.97957C27.0761 4.07309 27.1338 4.20055 27.1397 4.33548C27.408 10.3557 27.1838 16.4028 27.1895 23.046L27.2048 32.8401C27.2053 33.0193 27.2769 33.1909 27.4037 33.3173C27.5305 33.4438 27.7023 33.5148 27.8814 33.5148H41.3863C41.5283 33.5153 41.6643 33.5721 41.7645 33.6727C41.8647 33.7733 41.921 33.9095 41.921 34.0515V41.7354C41.9209 41.8202 41.8959 41.9031 41.8493 41.974C41.8026 42.0448 41.7363 42.1004 41.6584 42.1341C41.6068 42.1556 41.5514 42.1667 41.4955 42.1666H19.1376C19.0024 42.1668 18.8724 42.1145 18.7749 42.0209C18.6773 41.9273 18.6198 41.7996 18.6143 41.6645C18.346 35.6442 18.576 29.5971 18.5645 22.954ZM41.4361 3.9119L33.9688 3.87356C33.8257 3.87305 33.6883 3.92925 33.5867 4.02984C33.485 4.13043 33.4274 4.26721 33.4263 4.41023L33.388 11.8891C33.3842 12.1881 33.6257 12.4296 33.9247 12.4315L41.3901 12.4698C41.4611 12.4703 41.5315 12.4568 41.5972 12.4301C41.663 12.4034 41.7229 12.3641 41.7734 12.3142C41.824 12.2644 41.8642 12.2051 41.8918 12.1397C41.9194 12.0743 41.9339 12.0041 41.9344 11.9331L41.9728 4.45623C41.9733 4.38525 41.9598 4.31487 41.9331 4.2491C41.9064 4.18333 41.867 4.12346 41.8172 4.07291C41.7673 4.02237 41.708 3.98213 41.6426 3.9545C41.5773 3.92688 41.5071 3.9124 41.4361 3.9119ZM11.8178 33.5761H4.42717C4.27518 33.5761 4.12942 33.6365 4.02194 33.744C3.91447 33.8515 3.85409 33.9972 3.85409 34.1492V41.538C3.85409 41.8561 4.11092 42.113 4.42909 42.113H11.8178C11.8934 42.1132 11.9683 42.0985 12.0382 42.0697C12.1081 42.0409 12.1715 41.9986 12.225 41.9451C12.2784 41.8917 12.3208 41.8282 12.3496 41.7583C12.3784 41.6884 12.3931 41.6136 12.3928 41.538V34.1492C12.3931 34.0736 12.3784 33.9988 12.3496 33.9289C12.3208 33.859 12.2784 33.7955 12.225 33.7421C12.1715 33.6886 12.1081 33.6463 12.0382 33.6175C11.9683 33.5887 11.8934 33.5759 11.8178 33.5761Z" fill="#4334F5"/>
</svg>
