<svg width="46" height="46" viewBox="0 0 46 46" fill="none" xmlns="http://www.w3.org/2000/svg">
<path fill-rule="evenodd" clip-rule="evenodd" d="M15.9869 46C14.971 46 14.375 45.4097 14.375 44.4207V43.9013C14.375 42.9161 14.8503 42.4542 15.732 42.1264L17.6965 41.469C19.0535 40.9496 19.525 40.3516 19.525 38.9716V7.02842C19.525 5.64842 19.0535 5.05617 17.6965 4.531L15.7166 3.87167C14.835 3.54392 14.373 3.08967 14.373 2.09683V1.57933C14.375 0.59225 14.9845 0 16.0003 0H29.3556C30.3734 0 30.9848 0.59225 30.9848 1.57933V2.09875C30.9848 3.08392 30.5075 3.54583 29.6259 3.87358L27.6498 4.52525C26.2257 5.04658 25.7485 5.64267 25.7485 7.02267V38.962C25.7485 40.342 26.2257 40.9323 27.6498 41.4594L29.6125 42.1149C30.4941 42.4446 30.9695 42.8969 30.9695 43.8897V44.4111C30.9695 45.3982 30.36 45.9904 29.3403 45.9904L15.9888 46H15.9869Z" fill="black"/>
</svg>
