<svg width="46" height="46" viewBox="0 0 46 46" fill="none" xmlns="http://www.w3.org/2000/svg">
<path fill-rule="evenodd" clip-rule="evenodd" d="M12.665 41.0473C15.0076 41.0473 17.2543 40.1167 18.9108 38.4602C20.5673 36.8037 21.4979 34.557 21.4979 32.2144C21.4979 29.8717 20.5673 27.625 18.9108 25.9685C17.2543 24.312 15.0076 23.3814 12.665 23.3814C10.3223 23.3814 8.07565 24.312 6.41914 25.9685C4.76264 27.625 3.83203 29.8717 3.83203 32.2144C3.83203 34.557 4.76264 36.8037 6.41914 38.4602C8.07565 40.1167 10.3223 41.0473 12.665 41.0473ZM40.0465 3.86208C41.2233 3.86208 42.1663 4.80508 42.1663 5.98191V23.2357C42.1663 33.0682 34.216 41.078 24.5004 41.1949V23.2645L24.4429 5.95316C24.4429 4.77633 25.384 3.83333 26.5627 3.83333H40.2822L40.0465 3.86208Z" fill="black"/>
</svg>
