<svg width="185" height="46" viewBox="0 0 185 46" fill="none" xmlns="http://www.w3.org/2000/svg">
<g clip-path="url(#clip0_546_1143)">
<path fill-rule="evenodd" clip-rule="evenodd" d="M14.2234 0.0325685C17.9724 -0.230015 21.2768 2.37857 21.7598 5.97998C22.2198 9.39932 19.8776 12.7075 16.3586 13.4837C15.4769 13.6792 14.4994 13.6237 13.5641 13.7425C11.3549 14.0026 9.29928 15.0047 7.73361 16.5849L7.71444 16.5945L7.69528 16.5926L7.68186 16.5811L7.67611 16.5619C7.67595 16.5503 7.67929 16.539 7.6857 16.5293C7.69556 16.5153 7.70091 16.4986 7.70103 16.4814C7.67736 13.2691 7.67033 10.0568 7.67994 6.8444C7.68569 3.2794 10.5013 0.297068 14.2234 0.0325685Z" fill="black"/>
<path fill-rule="evenodd" clip-rule="evenodd" d="M14.6182 29.8272C9.84949 29.7888 6.43207 25.093 8.0919 20.7019C8.55687 19.4872 9.34994 18.4255 10.3828 17.6349C11.4156 16.8444 12.6476 16.3562 13.9416 16.2246C14.7562 16.1383 15.7356 16.1594 16.5195 16.0157C20.5522 15.2682 23.6687 12.1823 24.2973 8.25507C24.4372 7.38491 24.3625 6.34607 24.5695 5.42224C25.5221 1.14424 30.4249 -1.25543 34.5419 0.676572C36.6867 1.68666 38.1261 3.59374 38.4826 5.87074C38.5535 6.33649 38.5784 6.91532 38.5535 7.60532C38.0877 20.0023 27.4982 29.9287 14.6182 29.8233M20.6269 31.7975C20.6067 31.7898 20.5903 31.7747 20.5809 31.7553V31.7419L20.5847 31.7304C20.5847 31.7247 20.5847 31.7227 20.5905 31.7208L20.602 31.7151C25.4952 30.5938 29.733 28.3417 33.3191 24.9569C33.3823 24.8975 33.4417 24.9013 33.4954 24.9703C34.0685 25.7293 34.6703 26.542 35.1495 27.3182C37.1052 30.4488 38.2604 34.0125 38.5132 37.6951C38.565 38.4445 38.5822 39.0233 38.5631 39.4335C38.3848 43.0522 35.3584 45.9693 31.5385 45.9904C28.1594 46.0115 25.1886 43.7057 24.5484 40.48C24.3951 39.7152 24.4411 38.6592 24.3146 37.8522C23.9159 35.3702 22.7027 33.3596 20.6748 31.8262L20.6269 31.7975ZM13.4777 45.8888C10.6066 45.3905 8.29699 43.1595 7.7814 40.3861C7.6989 39.8117 7.66365 39.2316 7.67599 38.6515V29.4783C7.67599 29.4477 7.68557 29.4438 7.70857 29.463C9.58499 31.1305 11.5592 32.1502 14.1352 32.3188L14.8252 32.3399C18.1812 32.4492 21.0237 34.6476 21.6792 37.8407C22.649 42.5634 18.3748 46.7437 13.4758 45.8907L13.4777 45.8888Z" fill="black"/>
</g>
<path d="M155.761 40.5H147.834L159.916 5.5H169.451L181.516 40.5H173.586L164.819 13.4975H164.546L155.761 40.5ZM155.266 26.7432H173.996V32.5182H155.267L155.266 26.7432ZM120.262 40.5V5.5H143.845V11.6005H127.661V19.941H142.633V26.0415H127.661V34.3995H143.915V40.5H120.262ZM88.68 40.5V5.5H102.488C105.132 5.5 107.387 5.9725 109.256 6.9175C111.136 7.852 112.566 9.18025 113.544 10.9005C114.536 12.6085 115.032 14.621 115.032 16.9327C115.032 19.2567 114.531 21.2553 113.528 22.9318C112.526 24.5943 111.073 25.8717 109.171 26.759C107.281 27.648 104.988 28.0925 102.3 28.0925H93.055V22.146H101.105C102.517 22.146 103.69 21.9518 104.624 21.565C105.559 21.1765 106.254 20.5955 106.71 19.822C107.178 19.0468 107.41 18.0843 107.41 16.9345C107.41 15.7708 107.178 14.7908 106.71 13.9945C106.255 13.1965 105.554 12.5927 104.607 12.1815C103.674 11.7615 102.495 11.5497 101.07 11.5497H96.0807V40.5H88.68ZM107.58 24.5715L116.281 40.5H108.112L99.6 24.5715H107.58ZM55.5 40.5V5.5H62.9008V20.9315H63.361L75.9575 5.5H84.8265L71.838 21.1712L84.9805 40.5H76.1272L66.5425 26.1098L62.9025 30.5547V40.5H55.5Z" fill="black"/>
<defs>
<clipPath id="clip0_546_1143">
<rect width="46" height="46" fill="white"/>
</clipPath>
</defs>
</svg>
