<svg width="46" height="46" viewBox="0 0 46 46" fill="none" xmlns="http://www.w3.org/2000/svg">
<path fill-rule="evenodd" clip-rule="evenodd" d="M37.8313 11.0707C38.1437 10.6701 38.4178 10.304 38.7072 9.94941C38.8413 9.78266 38.8298 9.65616 38.6995 9.48175C37.4441 7.8315 37.3253 5.99916 38.0478 4.14C38.5903 2.74083 39.7901 2.08533 41.2563 1.94541C42.1706 1.85916 43.0676 1.95308 43.8994 2.39775C44.9919 2.98233 45.6283 3.87358 45.8353 5.10408C46.0001 6.08541 45.9694 7.04375 45.6915 7.99441C45.1989 9.67725 43.9895 10.5493 42.3316 10.7697C40.9554 10.9537 39.5601 10.9767 38.1724 11.0707C38.0651 11.0783 37.9559 11.0707 37.8313 11.0707Z" fill="#027AFF"/>
<path fill-rule="evenodd" clip-rule="evenodd" d="M34.4272 3.53433H26.1357L19.5711 18.5035H10.2906V3.5995H2.875V42.1667H10.2925V25.9191H23.3718C24.4767 25.919 25.5585 25.6033 26.4899 25.009C27.4213 24.4148 28.1636 23.5668 28.6293 22.5649V42.1667H36.0467V25.9191C36.0469 24.0453 35.3379 22.2409 34.0621 20.8685C32.7864 19.496 31.0385 18.6573 29.1698 18.5207V18.5016H25.0968C26.0782 18.1663 26.98 17.6325 27.746 16.9334C28.5121 16.2343 29.1259 15.385 29.5493 14.4382L34.4272 3.53433Z" fill="black"/>
</svg>
