<svg width="46" height="46" viewBox="0 0 46 46" fill="none" xmlns="http://www.w3.org/2000/svg">
<g clip-path="url(#clip0_524_483)">
<path d="M10.3728 26.4021C11.3453 23.429 12.6289 20.5669 14.2023 17.8633C20.2781 7.33699 29.1427 1.07908 34.0015 3.88316C23.0726 -2.42651 8.81264 1.80933 2.1503 13.3477C1.35516 14.7243 0.689772 16.1718 0.16272 17.6717C-0.333697 19.0881 0.339053 20.6118 1.63855 21.3632L10.3728 26.404V26.4021Z" fill="url(#paint0_radial_524_483)"/>
<path d="M35.6267 19.481C34.6536 22.4541 33.3694 25.3163 31.7953 28.0197C25.7194 38.5461 16.8548 44.8059 11.9961 41.9999C22.9268 48.3115 37.1868 44.0737 43.8492 32.5354C44.6441 31.1593 45.3095 29.7124 45.8368 28.2133C46.3332 26.7988 45.6604 25.2732 44.3609 24.5237L35.6267 19.4829V19.481Z" fill="url(#paint1_radial_524_483)"/>
<path d="M31.7971 28.0217C37.873 17.4953 38.862 6.68916 34.0013 3.88316C29.1464 1.07908 20.2818 7.34083 14.2021 17.8633C18.1773 10.9825 25.3361 7.67624 30.1948 10.4803C35.0516 13.2863 35.7685 21.137 31.7952 28.0197L31.7971 28.0217Z" fill="url(#paint2_linear_524_483)"/>
<path d="M14.2025 17.8633C8.12666 28.3897 7.13766 39.1958 11.9983 41.9999C16.8552 44.8059 25.7197 38.5461 31.7975 28.0198C27.8223 34.9025 20.6636 38.2088 15.8048 35.4028C10.948 32.5987 10.2312 24.7461 14.2044 17.8653L14.2025 17.8633Z" fill="url(#paint3_linear_524_483)"/>
</g>
<defs>
<radialGradient id="paint0_radial_524_483" cx="0" cy="0" r="1" gradientUnits="userSpaceOnUse" gradientTransform="translate(9.91472 26.1376) rotate(-59.132) scale(27.9348 38.2812)">
<stop offset="0.095" stop-color="#FFF959"/>
<stop offset="0.326" stop-color="#0DF35E"/>
<stop offset="0.64" stop-color="#0BF2F9"/>
<stop offset="1" stop-color="#04A6F0"/>
</radialGradient>
<radialGradient id="paint1_radial_524_483" cx="0" cy="0" r="1" gradientUnits="userSpaceOnUse" gradientTransform="translate(36.0833 19.7454) rotate(120.868) scale(27.9348 38.2812)">
<stop offset="0.095" stop-color="#FFF959"/>
<stop offset="0.326" stop-color="#0DF35E"/>
<stop offset="0.64" stop-color="#0BF2F9"/>
<stop offset="1" stop-color="#04A6F0"/>
</radialGradient>
<linearGradient id="paint2_linear_524_483" x1="29.8575" y1="3.44616" x2="34.6185" y2="18.9002" gradientUnits="userSpaceOnUse">
<stop stop-color="#003EFF"/>
<stop offset="1" stop-color="#0BFFE7"/>
</linearGradient>
<linearGradient id="paint3_linear_524_483" x1="16.1422" y1="42.4388" x2="11.3812" y2="26.9848" gradientUnits="userSpaceOnUse">
<stop stop-color="#003EFF"/>
<stop offset="1" stop-color="#0BFFE7"/>
</linearGradient>
<clipPath id="clip0_524_483">
<rect width="46" height="46" fill="white"/>
</clipPath>
</defs>
</svg>
