<svg width="221" height="46" viewBox="0 0 221 46" fill="none" xmlns="http://www.w3.org/2000/svg">
<path d="M3.83301 11.4981L23.751 0V46L3.83301 34.5V11.4981Z" fill="black"/>
<path d="M23.751 46L3.83301 34.5L23.751 23L43.6709 34.5L23.751 46Z" fill="url(#paint0_linear_524_496)"/>
<path d="M23.751 46L3.83301 34.5L23.751 23L43.6709 34.5L23.751 46Z" fill="url(#paint1_linear_524_496)"/>
<path style="mix-blend-mode:screen" d="M3.83301 11.4981L23.751 0V46L3.83301 34.5V11.4981Z" fill="url(#paint2_linear_524_496)"/>
<path style="mix-blend-mode:overlay" d="M23.751 46L3.83301 34.5L23.751 23L43.6709 34.5L23.751 46Z" fill="url(#paint3_linear_524_496)"/>
<path style="mix-blend-mode:overlay" d="M3.83301 11.4981L23.751 0V46L3.83301 34.5V11.4981Z" fill="url(#paint4_linear_524_496)"/>
<path fill-rule="evenodd" clip-rule="evenodd" d="M57.0088 8H60.4902V34.0325H73.9194V37.2575H57.0088V8ZM99.7397 26.099C99.7397 27.6965 99.5336 29.2115 99.1184 30.644C98.7317 32.078 98.0953 33.344 97.2122 34.4465C96.3546 35.5205 95.2217 36.389 93.812 37.049C92.4038 37.6835 90.6916 38 88.6741 38C86.6581 38 84.9429 37.6835 83.5347 37.049C82.125 36.389 80.9786 35.5205 80.0939 34.4465C79.221 33.3119 78.5739 32.0212 78.1877 30.644C77.7943 29.1611 77.599 27.6329 77.607 26.099V8H81.0899V25.604C81.0899 26.789 81.2133 27.9305 81.4615 29.033C81.7112 30.1355 82.125 31.1135 82.7057 31.967C83.2865 32.822 84.0598 33.509 85.0272 34.0325C85.9931 34.529 87.2087 34.7765 88.6741 34.7765C90.138 34.7765 91.3536 34.529 92.321 34.0325C93.2515 33.542 94.0482 32.8331 94.6425 31.967C95.2383 31.0757 95.6599 30.0803 95.8852 29.033C96.1349 27.9305 96.2583 26.7875 96.2583 25.604V8H99.7397V26.099ZM106.915 8H112.095L122.043 30.935H122.125L132.156 8H137.211V37.256H133.731V12.71H133.647L123.12 37.256H121.006L110.479 12.71H110.396V37.256H106.913V8H106.915ZM154.048 8H157.323L169.798 37.256H165.736L162.753 30.0665H148.081L145.055 37.256H141.117L154.048 8ZM155.623 12.4625H155.54L149.447 26.843H161.426L155.623 12.4625ZM194.766 8H198.041L210.516 37.256H206.454L203.471 30.0665H188.797L185.773 37.256H181.835L194.766 8ZM196.341 12.4625H196.258L190.165 26.843H202.144L196.341 12.4625ZM214.416 8H217.897V37.256H214.416V8Z" fill="black"/>
<defs>
<linearGradient id="paint0_linear_524_496" x1="3.83301" y1="34.5" x2="43.6709" y2="34.5" gradientUnits="userSpaceOnUse">
<stop stop-color="#0000AA"/>
<stop offset="1" stop-color="#A78DFF"/>
</linearGradient>
<linearGradient id="paint1_linear_524_496" x1="3.83301" y1="34.5" x2="43.6709" y2="34.5" gradientUnits="userSpaceOnUse">
<stop stop-color="#0000AA"/>
<stop offset="1" stop-color="#A78DFF"/>
</linearGradient>
<linearGradient id="paint2_linear_524_496" x1="26.35" y1="43.3972" x2="8.95434" y2="7.17792" gradientUnits="userSpaceOnUse">
<stop stop-color="#004EFF"/>
<stop offset="1" stop-color="#00FFFF"/>
</linearGradient>
<linearGradient id="paint3_linear_524_496" x1="3.83301" y1="34.5" x2="43.6709" y2="34.5" gradientUnits="userSpaceOnUse">
<stop stop-color="#0000AA"/>
<stop offset="1" stop-color="#A78DFF"/>
</linearGradient>
<linearGradient id="paint4_linear_524_496" x1="26.35" y1="43.3972" x2="8.95434" y2="7.17792" gradientUnits="userSpaceOnUse">
<stop stop-color="#004EFF"/>
<stop offset="1" stop-color="#00FFFF"/>
</linearGradient>
</defs>
</svg>
