<svg width="46" height="46" viewBox="0 0 46 46" fill="none" xmlns="http://www.w3.org/2000/svg">
<path d="M3.83301 11.4981L23.751 0V46L3.83301 34.5V11.4981Z" fill="black"/>
<path d="M23.751 46L3.83301 34.5L23.751 23L43.6709 34.5L23.751 46Z" fill="url(#paint0_linear_524_476)"/>
<path d="M23.751 46L3.83301 34.5L23.751 23L43.6709 34.5L23.751 46Z" fill="url(#paint1_linear_524_476)"/>
<path style="mix-blend-mode:screen" d="M3.83301 11.4981L23.751 0V46L3.83301 34.5V11.4981Z" fill="url(#paint2_linear_524_476)"/>
<path style="mix-blend-mode:overlay" d="M23.751 46L3.83301 34.5L23.751 23L43.6709 34.5L23.751 46Z" fill="url(#paint3_linear_524_476)"/>
<path style="mix-blend-mode:overlay" d="M3.83301 11.4981L23.751 0V46L3.83301 34.5V11.4981Z" fill="url(#paint4_linear_524_476)"/>
<defs>
<linearGradient id="paint0_linear_524_476" x1="3.83301" y1="34.5" x2="43.6709" y2="34.5" gradientUnits="userSpaceOnUse">
<stop stop-color="#0000AA"/>
<stop offset="1" stop-color="#A78DFF"/>
</linearGradient>
<linearGradient id="paint1_linear_524_476" x1="3.83301" y1="34.5" x2="43.6709" y2="34.5" gradientUnits="userSpaceOnUse">
<stop stop-color="#0000AA"/>
<stop offset="1" stop-color="#A78DFF"/>
</linearGradient>
<linearGradient id="paint2_linear_524_476" x1="26.35" y1="43.3972" x2="8.95434" y2="7.17792" gradientUnits="userSpaceOnUse">
<stop stop-color="#004EFF"/>
<stop offset="1" stop-color="#00FFFF"/>
</linearGradient>
<linearGradient id="paint3_linear_524_476" x1="3.83301" y1="34.5" x2="43.6709" y2="34.5" gradientUnits="userSpaceOnUse">
<stop stop-color="#0000AA"/>
<stop offset="1" stop-color="#A78DFF"/>
</linearGradient>
<linearGradient id="paint4_linear_524_476" x1="26.35" y1="43.3972" x2="8.95434" y2="7.17792" gradientUnits="userSpaceOnUse">
<stop stop-color="#004EFF"/>
<stop offset="1" stop-color="#00FFFF"/>
</linearGradient>
</defs>
</svg>
