<svg width="197" height="46" viewBox="0 0 197 46" fill="none" xmlns="http://www.w3.org/2000/svg">
<path fill-rule="evenodd" clip-rule="evenodd" d="M73.3242 5.06192H80.5004L92.7029 27.2378L104.905 5.06192H111.927V41.4997H106.074V13.5738L95.3748 32.913H89.8818L79.1807 13.5738V41.4997H73.328V5.06384L73.3242 5.06192ZM130.814 42.1552C128.102 42.1552 125.719 41.5533 123.662 40.3458C121.625 39.1587 119.96 37.423 118.856 35.3357C117.709 33.2024 117.135 30.7548 117.135 27.9968C117.135 25.2042 117.695 22.7298 118.818 20.5793C119.941 18.4268 121.499 16.7459 123.494 15.5288C125.489 14.3156 127.782 13.708 130.372 13.708C132.946 13.708 135.161 14.3194 137.018 15.5423C138.874 16.7651 140.304 18.4786 141.306 20.6828C142.307 22.8869 142.808 25.4725 142.808 28.4395V30.0533H122.936C123.299 32.2748 124.194 34.0208 125.619 35.2973C127.044 36.5719 128.844 37.2102 131.02 37.2102C132.765 37.2102 134.268 36.9495 135.528 36.4301C136.849 35.8698 138.053 35.0662 139.078 34.0611L142.186 37.8868C139.095 40.733 135.303 42.1552 130.814 42.1552ZM135.088 20.539C133.861 19.2817 132.256 18.653 130.269 18.653C128.335 18.653 126.715 19.2951 125.411 20.5793C124.108 21.8634 123.282 23.5884 122.938 25.7581H137.187C137.014 23.5367 136.314 21.7983 135.088 20.539ZM149.907 19.1743H144.52V14.3597H149.907V6.39592H155.555V14.3597H163.741V19.1743H155.555V31.3816C155.555 33.4113 155.9 34.8603 156.592 35.7267C157.281 36.5949 158.466 37.03 160.14 37.03C160.884 37.03 161.513 36.9993 162.034 36.938L162.848 36.8307C163.135 36.7885 163.432 36.7425 163.741 36.6908V41.4537C162.216 41.8893 160.638 42.1087 159.052 42.1053C152.956 42.1053 149.907 38.755 149.907 32.0582V19.1743ZM193.175 41.5035H187.63V37.7047C186.675 39.1021 185.383 40.2349 183.874 40.9975C182.353 41.7699 180.626 42.1552 178.691 42.1552C176.309 42.1552 174.196 41.5438 172.358 40.3209C170.518 39.0981 169.072 37.4133 168.018 35.2705C166.966 33.1277 166.438 30.6782 166.438 27.9182C166.438 25.1428 166.974 22.6857 168.045 20.5524C169.116 18.4192 170.596 16.744 172.488 15.5308C174.379 14.3156 176.55 13.708 179.002 13.708C180.852 13.708 182.51 14.0683 183.977 14.7871C185.426 15.4918 186.681 16.5422 187.63 17.8461V14.3558H193.175V41.5035ZM187.527 23.8587C186.922 22.3138 185.968 21.0948 184.664 20.2017C183.359 19.3085 181.852 18.86 180.144 18.86C177.725 18.86 175.799 19.6765 174.366 21.3076C172.932 22.9387 172.214 25.1409 172.216 27.9201C172.216 30.7127 172.905 32.9245 174.288 34.5556C175.669 36.1867 177.543 37.0013 179.911 37.0013C181.653 37.0013 183.208 36.5508 184.574 35.6481C185.915 34.7746 186.948 33.5006 187.527 32.0064V23.8587Z" fill="black"/>
<path fill-rule="evenodd" clip-rule="evenodd" d="M20.3253 3.83334H20.2699L20.1934 10.1008L20.2469 10.0989C24.3514 10.0989 27.534 13.3496 34.4577 25.0623L34.8785 25.7753L34.9052 25.8213L38.7802 19.9813L38.7534 19.9372C37.9062 18.5479 37.03 17.1766 36.1255 15.824C35.2352 14.49 34.2974 13.1883 33.3139 11.9217C28.739 6.06626 24.9099 3.83334 20.3272 3.83334H20.3253Z" fill="url(#paint0_linear_516_281)"/>
<path fill-rule="evenodd" clip-rule="evenodd" d="M20.2701 3.83334C15.6645 3.85826 11.5944 6.84826 8.65475 11.4253C8.64643 11.4387 8.63814 11.4521 8.62988 11.4655L14.0235 14.4172L14.0522 14.375C15.7678 11.7798 17.9042 10.1238 20.1936 10.1008L20.2452 10.0989L20.3256 3.83334H20.2701Z" fill="url(#paint1_linear_516_281)"/>
<path fill-rule="evenodd" clip-rule="evenodd" d="M8.65454 11.4291L8.62968 11.4674C6.69793 14.49 5.25773 18.1968 4.47929 22.195L4.46973 22.2467L10.5327 23.6842C10.5327 23.6651 10.5366 23.6497 10.5404 23.6306C11.1888 20.1173 12.4224 16.859 14.0252 14.4191L14.05 14.3807L8.65454 11.4291Z" fill="url(#paint2_linear_516_281)"/>
<path fill-rule="evenodd" clip-rule="evenodd" d="M10.5404 23.6325L4.47931 22.1988L4.46975 22.2506C4.04561 24.4492 3.82979 26.6831 3.8252 28.9225L3.8252 28.9762L10.0412 29.5358V29.4802C10.0182 27.5199 10.186 25.5621 10.5423 23.6344L10.5404 23.6325Z" fill="url(#paint3_linear_516_281)"/>
<path fill-rule="evenodd" clip-rule="evenodd" d="M10.2308 31.4755C10.1192 30.8314 10.0559 30.1798 10.0415 29.5262V29.4726L3.82546 28.9129V28.9723C3.81884 30.299 3.93602 31.6235 4.17547 32.9283L10.2385 31.5272C10.2359 31.51 10.2333 31.4927 10.2308 31.4755Z" fill="url(#paint4_linear_516_281)"/>
<path fill-rule="evenodd" clip-rule="evenodd" d="M11.6477 34.7147C10.9706 33.9729 10.4906 32.9034 10.24 31.5349L10.2304 31.4832L4.16553 32.8842L4.17509 32.936C4.63412 35.3548 5.53305 37.3692 6.82025 38.893L6.85467 38.9352L11.6821 34.7549C11.6699 34.7422 11.6578 34.7294 11.6458 34.7166L11.6477 34.7147Z" fill="url(#paint5_linear_516_281)"/>
<path fill-rule="evenodd" clip-rule="evenodd" d="M29.6149 17.3784C27.6367 20.419 25.68 23.4736 23.7451 26.542C18.8775 34.2087 17.1925 35.9279 14.4823 35.9279C13.3519 35.9279 12.4071 35.5235 11.6822 34.7492C11.67 34.7365 11.6579 34.7237 11.6459 34.7108L6.82031 38.8892L6.85474 38.9294C8.63348 41.0109 11.1409 42.1667 14.2451 42.1667C18.9425 42.1667 22.3202 39.9433 28.3239 29.3978L32.5508 21.8979C31.6134 20.365 30.6344 18.8579 29.6149 17.3784Z" fill="#0082FB"/>
<path fill-rule="evenodd" clip-rule="evenodd" d="M36.1294 8.49466C35.1253 9.58203 34.1858 10.7276 33.3159 11.9255C34.2187 13.0832 35.152 14.3807 36.1275 15.8317C37.275 14.0492 38.3461 12.6078 39.3981 11.5038L39.4344 11.4655L36.1294 8.49466Z" fill="url(#paint6_linear_516_281)"/>
<path fill-rule="evenodd" clip-rule="evenodd" d="M53.871 7.93884C51.3234 5.35134 48.2843 3.83334 45.0347 3.83334C41.6111 3.83334 38.7288 5.71934 36.1296 8.49084C36.1168 8.50359 36.104 8.51637 36.0913 8.52918L39.4001 11.5L39.4365 11.4598C41.1483 9.66959 42.8065 8.77643 44.6426 8.77643C46.6203 8.77643 48.4698 9.71176 50.0745 11.3505L50.1108 11.3888L53.9112 7.97718L53.871 7.93884Z" fill="#0082FB"/>
<path fill-rule="evenodd" clip-rule="evenodd" d="M61.24 28.0907C61.0966 19.7858 58.2028 12.3606 53.9089 7.97525L53.8707 7.93692L50.0703 11.3486L50.1086 11.3869C53.339 14.7219 55.5557 20.9223 55.7565 28.0888V28.1424L61.24 28.1443V28.0907Z" fill="url(#paint7_linear_516_281)"/>
<path fill-rule="evenodd" clip-rule="evenodd" d="M61.2424 28.1501L61.2404 28.0964H55.757V28.1482C55.7665 28.4855 55.7723 28.8228 55.7723 29.164C55.7723 31.119 55.4815 32.6964 54.8905 33.8368L54.8638 33.8886L58.951 38.1589L58.9816 38.1129C60.4658 35.8129 61.2443 32.6159 61.2443 28.7404C61.2443 28.543 61.2443 28.3475 61.2404 28.1501H61.2424Z" fill="url(#paint8_linear_516_281)"/>
<path fill-rule="evenodd" clip-rule="evenodd" d="M54.8924 33.8292L54.8637 33.879C54.353 34.8412 53.6224 35.4813 52.6699 35.7612L54.5328 41.6626C54.8911 41.5402 55.2406 41.3935 55.579 41.2237C56.9037 40.5535 58.0305 39.5478 58.8477 38.3065C58.8834 38.2552 58.9184 38.2034 58.9529 38.1512L58.9816 38.1033L54.8905 33.8292H54.8924Z" fill="url(#paint9_linear_516_281)"/>
<path fill-rule="evenodd" clip-rule="evenodd" d="M51.4818 35.9222C50.8564 35.9222 50.3056 35.8283 49.7662 35.5868L47.8574 41.6262C48.9285 41.9942 50.0761 42.1609 51.3499 42.1609C52.5261 42.1609 53.6049 41.9846 54.5822 41.6434L52.7193 35.7458C52.3177 35.8666 51.9007 35.926 51.4818 35.9222Z" fill="url(#paint10_linear_516_281)"/>
<path fill-rule="evenodd" clip-rule="evenodd" d="M47.6626 33.8618L47.6282 33.8215L43.2368 38.4081L43.2751 38.4464C44.7994 40.0813 46.2588 41.0953 47.9093 41.6511L49.8162 35.6136C49.12 35.3146 48.4449 34.7703 47.6626 33.8618Z" fill="url(#paint11_linear_516_281)"/>
<path fill-rule="evenodd" clip-rule="evenodd" d="M47.628 33.8157C46.3121 32.2786 44.6825 29.716 42.1196 25.5741L38.7802 19.9774L38.7534 19.9333L34.8784 25.7715L34.9052 25.8175L37.2711 29.8176C39.5663 33.6739 41.4349 36.4627 43.2385 38.4042L43.2748 38.4426L47.6643 33.8579C47.6521 33.8439 47.64 33.8299 47.628 33.8157Z" fill="url(#paint12_linear_516_281)"/>
<defs>
<linearGradient id="paint0_linear_516_281" x1="1431.01" y1="1964.13" x2="438.591" y2="663.15" gradientUnits="userSpaceOnUse">
<stop offset="0.0006" stop-color="#0867DF"/>
<stop offset="0.4539" stop-color="#0668E1"/>
<stop offset="1" stop-color="#0064E0"/>
</linearGradient>
<linearGradient id="paint1_linear_516_281" x1="262.075" y1="806.479" x2="1085.5" y2="181.163" gradientUnits="userSpaceOnUse">
<stop offset="0.1323" stop-color="#0064DF"/>
<stop offset="0.9988" stop-color="#0064E0"/>
</linearGradient>
<linearGradient id="paint2_linear_516_281" x1="370.888" y1="1103.7" x2="707.349" y2="256.514" gradientUnits="userSpaceOnUse">
<stop offset="0.0147" stop-color="#0072EC"/>
<stop offset="0.6881" stop-color="#0064DF"/>
</linearGradient>
<linearGradient id="paint3_linear_516_281" x1="319.712" y1="683.923" x2="360.754" y2="138.217" gradientUnits="userSpaceOnUse">
<stop offset="0.0731" stop-color="#007CF6"/>
<stop offset="0.9943" stop-color="#0072EC"/>
</linearGradient>
<linearGradient id="paint4_linear_516_281" x1="338.31" y1="262.968" x2="326.52" y2="175.227" gradientUnits="userSpaceOnUse">
<stop offset="0.0731" stop-color="#007FF9"/>
<stop offset="1" stop-color="#007CF6"/>
</linearGradient>
<linearGradient id="paint5_linear_516_281" x1="287.459" y1="125.05" x2="467.347" y2="506.672" gradientUnits="userSpaceOnUse">
<stop offset="0.0731" stop-color="#007FF9"/>
<stop offset="1" stop-color="#0082FB"/>
</linearGradient>
<linearGradient id="paint6_linear_516_281" x1="293.327" y1="419.895" x2="430.945" y2="229.545" gradientUnits="userSpaceOnUse">
<stop stop-color="#007FF8"/>
<stop offset="1" stop-color="#0082FB"/>
</linearGradient>
<linearGradient id="paint7_linear_516_281" x1="538.778" y1="133.93" x2="1021.27" y2="1909.61" gradientUnits="userSpaceOnUse">
<stop stop-color="#0082FB"/>
<stop offset="0.9995" stop-color="#0081FA"/>
</linearGradient>
<linearGradient id="paint8_linear_516_281" x1="438.141" y1="74.9977" x2="155.193" y2="646.99" gradientUnits="userSpaceOnUse">
<stop offset="0.0619" stop-color="#0081FA"/>
<stop offset="1" stop-color="#0080F9"/>
</linearGradient>
<linearGradient id="paint9_linear_516_281" x1="243.623" y1="498.507" x2="471.633" y2="343.186" gradientUnits="userSpaceOnUse">
<stop stop-color="#027AF3"/>
<stop offset="1" stop-color="#0080F9"/>
</linearGradient>
<linearGradient id="paint10_linear_516_281" x1="185.265" y1="364.302" x2="600.042" y2="364.302" gradientUnits="userSpaceOnUse">
<stop stop-color="#0377EF"/>
<stop offset="0.9994" stop-color="#0279F1"/>
</linearGradient>
<linearGradient id="paint11_linear_516_281" x1="308.315" y1="310.19" x2="542.408" y2="447.991" gradientUnits="userSpaceOnUse">
<stop offset="0.0019" stop-color="#0471E9"/>
<stop offset="1" stop-color="#0377EF"/>
</linearGradient>
<linearGradient id="paint12_linear_516_281" x1="446.942" y1="384.917" x2="1211.97" y2="1347.22" gradientUnits="userSpaceOnUse">
<stop offset="0.2765" stop-color="#0867DF"/>
<stop offset="1" stop-color="#0471E9"/>
</linearGradient>
</defs>
</svg>
