<svg width="46" height="46" viewBox="0 0 46 46" fill="none" xmlns="http://www.w3.org/2000/svg">
<path d="M13.2192 7.66666H13.1732L13.1138 12.6787H13.1559C16.443 12.6787 18.9941 15.2797 24.5409 24.6502L24.8764 25.2195L24.8994 25.2578L28.0044 20.585L27.9814 20.5486C27.3028 19.4377 26.6012 18.3411 25.8769 17.2596C25.1637 16.1922 24.4125 15.1508 23.6248 14.1373C19.9582 9.45299 16.8915 7.66666 13.2192 7.66666Z" fill="url(#paint0_linear_516_298)"/>
<path d="M13.1733 7.66666C9.48754 7.68582 6.22346 10.0778 3.87171 13.7425C3.86529 13.7533 3.8589 13.7642 3.85254 13.7751L8.17271 16.1345L8.19379 16.1019C9.56996 14.0262 11.2796 12.7017 13.1158 12.6807H13.156L13.2174 7.66666H13.1733Z" fill="url(#paint1_linear_516_298)"/>
<path d="M3.86979 13.7425L3.84871 13.7751C2.30004 16.1901 1.14621 19.1571 0.525208 22.356L0.515625 22.3982L5.37246 23.5482L5.38012 23.506C5.89762 20.6942 6.88663 18.0857 8.17079 16.1364L8.19188 16.1038L3.86979 13.7425Z" fill="url(#paint2_linear_516_298)"/>
<path d="M5.38008 23.506L0.525167 22.356L0.515583 22.3982C0.176333 24.1577 0.00383333 25.9459 0 27.738V27.7821L4.9795 28.2287V28.1846C4.96138 26.6163 5.09619 25.05 5.382 23.5079L5.38008 23.506Z" fill="url(#paint3_linear_516_298)"/>
<path d="M5.13115 29.7793C5.04186 29.2644 4.99124 28.7435 4.97974 28.221V28.1788L0.000235952 27.7303V27.7763C-0.00535226 28.8382 0.0883331 29.8983 0.280069 30.9427L5.13882 29.8214C5.13623 29.8074 5.13367 29.7933 5.13115 29.7793Z" fill="url(#paint4_linear_516_298)"/>
<path d="M6.26731 32.3725C5.72297 31.7783 5.33964 30.9235 5.13839 29.8272L5.13072 29.7869L0.271973 30.9082L0.279639 30.9484C0.647639 32.8843 1.36831 34.4943 2.39947 35.7152L2.42631 35.7478L6.29414 32.4032C6.2845 32.393 6.27684 32.3828 6.26731 32.3725Z" fill="url(#paint5_linear_516_298)"/>
<path d="M20.6619 18.5035C17.7332 23.0077 15.9584 25.8348 15.9584 25.8348C12.058 31.9681 10.7087 33.3423 8.53899 33.3423C8.1123 33.3535 7.68825 33.2722 7.2959 33.1042C6.90355 32.9361 6.55216 32.6852 6.26582 32.3687L2.3999 35.7113L2.42674 35.7439C3.85274 37.4095 5.8614 38.3333 8.34924 38.3333C12.1117 38.3333 14.8161 36.5547 19.6269 28.1175L23.0117 22.1183C22.2608 20.8923 21.4785 19.6869 20.6619 18.5035Z" fill="#0082FB"/>
<path d="M25.879 11.3965L25.8483 11.4272C25.0817 12.2513 24.3418 13.1675 23.625 14.1412C24.3495 15.0669 25.097 16.1038 25.8771 17.2653C26.7971 15.8413 27.6557 14.6874 28.4972 13.8019L28.5278 13.7713L25.879 11.3965Z" fill="url(#paint6_linear_516_298)"/>
<path d="M40.0928 10.9499C38.0516 8.87991 35.6174 7.66666 33.0146 7.66666C30.2699 7.66666 27.9603 9.17507 25.8788 11.3927L25.8481 11.4233L28.497 13.8L28.5276 13.7674C29.8981 12.3357 31.2263 11.6207 32.6983 11.6207C34.2815 11.6207 35.765 12.3682 37.0491 13.6812L37.0779 13.7118L40.1235 10.9806L40.0928 10.9499Z" fill="#0082FB"/>
<path d="M45.9963 27.0729C45.8813 20.4278 43.5621 14.4881 40.1236 10.9806L40.093 10.9499L37.0493 13.6793L37.0781 13.7099C39.6656 16.3779 41.4423 21.3383 41.6033 27.071V27.1151H45.9963V27.0729Z" fill="url(#paint7_linear_516_298)"/>
<path d="M45.9961 27.1208V27.0768H41.6031V27.1189C41.6108 27.3873 41.6146 27.6594 41.6146 27.9316C41.6146 29.4937 41.3827 30.7568 40.9093 31.6691L40.8882 31.7113L44.1619 35.1268L44.1868 35.0884C45.3751 33.2484 45.9999 30.6935 45.9999 27.5943C45.9999 27.4352 45.9999 27.278 45.9961 27.1208Z" fill="url(#paint8_linear_516_298)"/>
<path d="M40.9095 31.6633L40.8884 31.7017C40.4783 32.4722 39.8937 32.9858 39.1309 33.2101L40.622 37.9289C40.9094 37.8318 41.1899 37.7152 41.4615 37.5801C42.5229 37.0435 43.4255 36.2387 44.0797 35.2456L44.164 35.121L44.187 35.0827L40.9095 31.6633Z" fill="url(#paint9_linear_516_298)"/>
<path d="M38.1801 33.3366C37.6779 33.3366 37.2371 33.2618 36.8039 33.0682L35.2744 37.9021C36.135 38.1953 37.0512 38.3276 38.0727 38.3276C39.0157 38.3276 39.8802 38.1877 40.6641 37.9155L39.1691 33.1967C38.849 33.2925 38.5174 33.3404 38.1801 33.3366Z" fill="url(#paint10_linear_516_298)"/>
<path d="M35.1191 31.6902L35.0922 31.6576L31.5732 35.3261L31.6039 35.3587C32.8248 36.6658 33.9921 37.4766 35.3165 37.9213L36.8441 33.0913C36.2863 32.8517 35.7458 32.4147 35.1191 31.6902Z" fill="url(#paint11_linear_516_298)"/>
<path d="M35.0923 31.6537C34.0381 30.4232 32.731 28.3724 30.6782 25.0604L28.0025 20.5831L27.9815 20.5447L24.8765 25.2176L24.8995 25.2559L26.795 28.4529C28.6331 31.5387 30.13 33.7697 31.5733 35.3242L31.604 35.3548L35.1191 31.6863C35.1101 31.6755 35.1012 31.6646 35.0923 31.6537Z" fill="url(#paint12_linear_516_298)"/>
<defs>
<linearGradient id="paint0_linear_516_298" x1="1143.26" y1="1576.78" x2="219.883" y2="362.927" gradientUnits="userSpaceOnUse">
<stop offset="0.0006" stop-color="#0867DF"/>
<stop offset="0.4539" stop-color="#0668E1"/>
<stop offset="0.8591" stop-color="#0064E0"/>
</linearGradient>
<linearGradient id="paint1_linear_516_298" x1="206.788" y1="650.155" x2="865.64" y2="148.702" gradientUnits="userSpaceOnUse">
<stop offset="0.1323" stop-color="#0064DF"/>
<stop offset="0.9988" stop-color="#0064E0"/>
</linearGradient>
<linearGradient id="paint2_linear_516_298" x1="294.232" y1="887.692" x2="562.834" y2="209.492" gradientUnits="userSpaceOnUse">
<stop offset="0.0147" stop-color="#0072EC"/>
<stop offset="0.6881" stop-color="#0064DF"/>
</linearGradient>
<linearGradient id="paint3_linear_516_298" x1="253.126" y1="552.012" x2="285.893" y2="115.213" gradientUnits="userSpaceOnUse">
<stop offset="0.0731" stop-color="#007CF6"/>
<stop offset="0.9943" stop-color="#0072EC"/>
</linearGradient>
<linearGradient id="paint4_linear_516_298" x1="268.015" y1="215.012" x2="258.598" y2="144.719" gradientUnits="userSpaceOnUse">
<stop offset="0.0731" stop-color="#007FF9"/>
<stop offset="1" stop-color="#007CF6"/>
</linearGradient>
<linearGradient id="paint5_linear_516_298" x1="227.241" y1="104.309" x2="370.985" y2="410.179" gradientUnits="userSpaceOnUse">
<stop offset="0.0731" stop-color="#007FF9"/>
<stop offset="1" stop-color="#0082FB"/>
</linearGradient>
<linearGradient id="paint6_linear_516_298" x1="194.283" y1="415.649" x2="367.63" y2="175.195" gradientUnits="userSpaceOnUse">
<stop offset="0.2799" stop-color="#007FF8"/>
<stop offset="0.9141" stop-color="#0082FB"/>
</linearGradient>
<linearGradient id="paint7_linear_516_298" x1="428.588" y1="111.74" x2="813.628" y2="1532.66" gradientUnits="userSpaceOnUse">
<stop stop-color="#0082FB"/>
<stop offset="0.9995" stop-color="#0081FA"/>
</linearGradient>
<linearGradient id="paint8_linear_516_298" x1="347.874" y1="64.5978" x2="121.978" y2="522.595" gradientUnits="userSpaceOnUse">
<stop offset="0.0619" stop-color="#0081FA"/>
<stop offset="1" stop-color="#0080F9"/>
</linearGradient>
<linearGradient id="paint9_linear_516_298" x1="192.242" y1="403.338" x2="374.51" y2="278.807" gradientUnits="userSpaceOnUse">
<stop stop-color="#027AF3"/>
<stop offset="1" stop-color="#0080F9"/>
</linearGradient>
<linearGradient id="paint10_linear_516_298" x1="145.401" y1="296.04" x2="477.831" y2="296.04" gradientUnits="userSpaceOnUse">
<stop stop-color="#0377EF"/>
<stop offset="0.9994" stop-color="#0279F1"/>
</linearGradient>
<linearGradient id="paint11_linear_516_298" x1="244.004" y1="252.752" x2="431.169" y2="363.243" gradientUnits="userSpaceOnUse">
<stop offset="0.0019" stop-color="#0471E9"/>
<stop offset="1" stop-color="#0377EF"/>
</linearGradient>
<linearGradient id="paint12_linear_516_298" x1="355.243" y1="312.585" x2="966.612" y2="1083.61" gradientUnits="userSpaceOnUse">
<stop offset="0.2765" stop-color="#0867DF"/>
<stop offset="1" stop-color="#0471E9"/>
</linearGradient>
</defs>
</svg>
