<svg width="46" height="46" viewBox="0 0 46 46" fill="none" xmlns="http://www.w3.org/2000/svg">
<path d="M13.8801 3.09158C14.0223 2.66905 14.2936 2.30186 14.6557 2.04186C15.0179 1.78186 15.4525 1.64219 15.8983 1.64258H29.2709L15.3904 42.7723C15.248 43.1942 14.9768 43.5607 14.6151 43.8203C14.2534 44.08 13.8193 44.2195 13.3741 44.2194H2.96658C2.62835 44.2199 2.29488 44.1398 1.99383 43.9856C1.69277 43.8315 1.43281 43.6078 1.23549 43.3331C1.03818 43.0584 0.9092 42.7406 0.859258 42.4061C0.809317 42.0715 0.839851 41.7299 0.948326 41.4096L13.8801 3.09158Z" fill="url(#paint0_linear_526_642)"/>
<path d="M35.2605 29.3173H14.1829C13.9872 29.3181 13.7962 29.3775 13.6347 29.488C13.4732 29.5984 13.3485 29.7549 13.2769 29.937C13.2052 30.1191 13.1899 30.3185 13.2328 30.5094C13.2758 30.7003 13.3751 30.874 13.5178 31.0078L27.061 43.6483C27.4558 44.0163 27.9752 44.2194 28.5138 44.2194H40.447L35.2605 29.3173Z" fill="#0078D4"/>
<path d="M29.2713 1.64258H14.3693L0 44.2194H14.9021L17.9611 35.1536L27.6747 44.2194H40.4493L35.2609 29.3173H19.9314L29.2713 1.64258Z" fill="url(#paint1_linear_526_642)"/>
<path d="M32.9533 3.09158C32.8112 2.66936 32.5402 2.30239 32.1784 2.04242C31.8167 1.78245 31.3824 1.64259 30.9369 1.64258H15.9678H16.0349C16.9491 1.64258 17.7599 2.22524 18.0512 3.09158L30.9849 41.4096C31.0933 41.7298 31.1238 42.0712 31.074 42.4056C31.0242 42.7399 30.8953 43.0576 30.6983 43.3323C30.5012 43.6069 30.2414 43.8307 29.9406 43.985C29.6398 44.1392 29.3066 44.2196 28.9685 44.2194H28.7385H43.8706C44.2087 44.2196 44.5419 44.1392 44.8427 43.985C45.1435 43.8307 45.4032 43.6069 45.6003 43.3323C45.7974 43.0576 45.9262 42.7399 45.9761 42.4056C46.0259 42.0712 45.9954 41.7298 45.8869 41.4096L32.9533 3.09158Z" fill="url(#paint2_linear_526_642)"/>
<defs>
<linearGradient id="paint0_linear_526_642" x1="15.8063" y1="3.1165" x2="1.92007" y2="44.1408" gradientUnits="userSpaceOnUse">
<stop stop-color="#114A8B"/>
<stop offset="1" stop-color="#0669BC"/>
</linearGradient>
<linearGradient id="paint1_linear_526_642" x1="26.9138" y1="29.3288" x2="23.621" y2="30.452" gradientUnits="userSpaceOnUse">
<stop stop-opacity="0.3"/>
<stop offset="0.071" stop-opacity="0.2"/>
<stop offset="0.321" stop-opacity="0.1"/>
<stop offset="0.623" stop-opacity="0.05"/>
<stop offset="1" stop-opacity="0"/>
</linearGradient>
<linearGradient id="paint2_linear_526_642" x1="24.6119" y1="3.1165" x2="39.8533" y2="43.7268" gradientUnits="userSpaceOnUse">
<stop stop-color="#3CCBF4"/>
<stop offset="1" stop-color="#2892DF"/>
</linearGradient>
</defs>
</svg>
