<svg width="46" height="46" viewBox="0 0 46 46" fill="none" xmlns="http://www.w3.org/2000/svg">
<g clip-path="url(#clip0_516_316)">
<path fill-rule="evenodd" clip-rule="evenodd" d="M42.8739 33.879C40.2155 36.2921 36.7981 38.4368 32.6542 40.4282C32.7386 40.4857 32.8191 40.5375 32.9034 40.5873L32.9379 40.6065L32.9743 40.6295C33.3883 40.8652 33.7793 40.9822 34.2029 40.9822C34.6284 40.9822 35.0194 40.8652 35.4334 40.6295L35.4679 40.6084L35.5043 40.5873C35.7727 40.4263 36.0142 40.2462 36.4473 39.8858L36.7885 39.6022C37.3232 39.1575 37.605 38.9467 37.9864 38.7282C38.5691 38.3947 39.1594 38.2183 39.8053 38.2183C40.4512 38.2183 41.0416 38.3947 41.6242 38.7282L41.6683 38.755C42.0287 38.9639 42.3085 39.1747 42.8222 39.6022L43.1633 39.8858C43.5869 40.2385 43.8265 40.4187 44.0891 40.5758L44.1427 40.6084L44.1772 40.6276C44.5797 40.8576 44.9573 40.9745 45.3656 40.9822H45.4077C45.4895 40.9756 45.5718 40.986 45.6493 41.0128C45.7269 41.0395 45.7981 41.0821 45.8583 41.1377C45.9186 41.1934 45.9668 41.2609 45.9997 41.336C46.0326 41.4112 46.0496 41.4924 46.0496 41.5744C46.0496 41.6565 46.0326 41.7376 45.9997 41.8128C45.9668 41.8879 45.9186 41.9554 45.8583 42.0111C45.7981 42.0667 45.7269 42.1093 45.6493 42.136C45.5718 42.1628 45.4895 42.1732 45.4077 42.1667C44.7618 42.1667 44.1715 41.9903 43.5869 41.6568C43.5288 41.6233 43.4713 41.5888 43.4144 41.5533L43.3722 41.5265L43.3301 41.5016L43.2917 41.4747C42.965 41.2522 42.6515 41.0109 42.3526 40.7522L42.0478 40.4992C41.7578 40.2452 41.4483 40.0145 41.1221 39.8092L41.0703 39.7766L41.0339 39.7574C40.6638 39.5306 40.2393 39.4081 39.8053 39.4028C39.3798 39.4028 38.9888 39.5197 38.5767 39.7555L38.5384 39.7766L38.5039 39.7977C38.2356 39.9587 37.9941 40.1388 37.5609 40.4992L37.2581 40.7522C36.9482 41.0215 36.6217 41.2712 36.2806 41.4997L36.2384 41.5265L36.1962 41.5533L36.0237 41.6568C35.4734 41.9869 34.8446 42.1629 34.2029 42.1667C33.557 42.1667 32.9686 41.9903 32.384 41.6568C32.3259 41.6233 32.2684 41.5888 32.2115 41.5533L32.1693 41.5265L32.1272 41.5016L32.0773 41.469C31.7946 41.2764 31.5227 41.0684 31.2627 40.8461C31.1709 40.803 31.0917 40.737 31.0327 40.6544L30.8449 40.4992C30.5549 40.2452 30.2453 40.0145 29.9192 39.8092L29.8674 39.7766L29.831 39.7574C29.4609 39.5306 29.0364 39.4081 28.6024 39.4028C28.1769 39.4028 27.7859 39.5197 27.3719 39.7555L27.3374 39.7766L27.301 39.7977C27.0327 39.9587 26.7912 40.1388 26.358 40.4992L26.0552 40.7522C25.7453 41.0215 25.4188 41.2712 25.0777 41.4997L25.0336 41.5265L24.9914 41.5533L24.8189 41.6568C24.2692 41.9865 23.641 42.1626 23 42.1667C22.3541 42.1667 21.7637 41.9903 21.1811 41.6568C21.123 41.6233 21.0655 41.5888 21.0086 41.5533L20.9664 41.5265L20.9242 41.5016L20.884 41.4747C20.5573 41.2522 20.2437 41.0109 19.9448 40.7522L19.642 40.4992C19.352 40.2452 19.0424 40.0145 18.7162 39.8092L18.6626 39.7766L18.6281 39.7574C18.2574 39.5303 17.8322 39.4078 17.3976 39.4028C16.974 39.4028 16.583 39.5197 16.169 39.7555L16.1326 39.7766L16.0981 39.7977C15.8278 39.9587 15.5882 40.1388 15.1551 40.4992L14.8522 40.7522C14.5417 41.0216 14.2146 41.2712 13.8728 41.4997L13.8307 41.5265L13.7885 41.5533L13.616 41.6568C13.0452 41.9977 12.3909 42.1729 11.7262 42.1628C10.2963 41.9903 9.19807 41.4345 8.10365 40.503L8.03657 40.4455C7.94649 40.3669 7.8104 40.2423 7.66857 40.112L7.2929 39.7651L7.08782 39.5734L7.06674 39.5542C6.8754 39.3637 6.65869 39.2006 6.42274 39.0693C6.3655 39.0406 6.30403 39.0211 6.24065 39.0118H6.23107C6.00299 39.054 5.7749 39.1249 5.53915 39.2227C5.49653 39.2693 5.4467 39.3087 5.39157 39.3396L5.37624 39.3492C5.30129 39.3878 5.21896 39.41 5.13474 39.4143C4.6138 39.7039 4.11762 40.036 3.65124 40.4072L2.8539 41.0282L2.74849 41.1106C2.54615 41.2677 2.33906 41.4185 2.12749 41.5629C1.5429 41.9597 1.06949 42.1667 0.594152 42.1667C0.444948 42.1573 0.304748 42.0921 0.201516 41.9839C0.0982832 41.8758 0.0396059 41.7327 0.0371872 41.5833C0.0347685 41.4338 0.0887861 41.2889 0.188466 41.1775C0.288146 41.0661 0.426162 40.9963 0.574986 40.9822H0.594152C0.766652 40.9822 1.04457 40.8633 1.43365 40.6027L1.51032 40.5509C1.6579 40.4474 1.82274 40.3267 2.02782 40.1695L2.76574 39.5926L2.88074 39.5025C3.3944 39.1077 3.85057 38.7876 4.2799 38.5346L3.06665 36.2154C3.02118 36.128 2.99821 36.0307 2.99984 35.9322C3.00147 35.8337 3.02764 35.7372 3.07597 35.6514C3.12431 35.5655 3.19329 35.4931 3.27667 35.4407C3.36005 35.3882 3.45519 35.3574 3.55349 35.351L42.4369 32.8497C42.5595 32.8417 42.6815 32.872 42.7861 32.9364C42.8907 33.0008 42.9727 33.0962 43.0207 33.2093C43.0687 33.3223 43.0804 33.4475 43.0541 33.5675C43.0278 33.6875 42.9648 33.7964 42.8739 33.879ZM40.7311 34.1473L4.54057 36.4742L5.35132 38.0247C5.59665 37.9385 5.84199 37.8752 6.09499 37.8331C6.12788 37.8271 6.16122 37.8239 6.19465 37.8235C6.44765 37.8235 6.69299 37.8848 6.93449 38.0017C7.22774 38.1417 7.49799 38.3448 7.86024 38.6726L7.8909 38.7013L8.06724 38.8662L8.34324 39.123L8.52915 39.2936C8.65374 39.4086 8.76874 39.5121 8.83582 39.5696C9.7654 40.3707 10.6528 40.8307 11.8143 40.9802H11.8354C12.2404 40.9694 12.6361 40.8559 12.9854 40.6506L13.0257 40.6295L13.0621 40.6084L13.0966 40.5873C13.3668 40.4263 13.6064 40.2462 14.0396 39.8858L14.3807 39.6022C14.9155 39.1575 15.1972 38.9467 15.5787 38.7282C16.1632 38.3947 16.7517 38.2183 17.3995 38.2183C18.0435 38.2183 18.6338 38.3947 19.2165 38.7282L19.2606 38.755C19.6209 38.9639 19.9027 39.1747 20.4163 39.6022L20.7556 39.8858C21.1811 40.2385 21.4187 40.4187 21.6832 40.5758L21.735 40.6084L21.7714 40.6276C22.1835 40.8652 22.5764 40.9822 23 40.9822C23.4255 40.9822 23.8165 40.8652 24.2286 40.6295L24.265 40.6084L24.2995 40.5873C24.5697 40.4263 24.8112 40.2462 25.2444 39.8858L25.5837 39.6022C26.1203 39.1575 26.4021 38.9467 26.7835 38.7282C27.3662 38.3947 27.9565 38.2183 28.6024 38.2183C29.2483 38.2183 29.8367 38.3947 30.4213 38.7282L30.4692 38.7569C30.8277 38.9658 31.1094 39.1786 31.625 39.606C35.2034 37.9232 38.2337 36.1349 40.6908 34.178L40.7311 34.1473ZM7.00157 3.88315C11.6399 5.86499 16.6558 9.47024 20.7 13.9112C25.415 19.0862 28.5756 25.0815 29.5876 31.4467C29.6034 31.5502 29.5917 31.656 29.5535 31.7534C29.5153 31.8509 29.4521 31.9365 29.3702 32.0017C29.2883 32.0668 29.1907 32.1092 29.0872 32.1245C28.9836 32.1398 28.8779 32.1275 28.7807 32.0888C24.2803 30.2776 20.079 29.6777 16.1498 30.1338C12.8167 30.5172 9.7539 31.6518 6.91915 33.3979C6.35565 33.7467 5.73082 33.0491 6.1429 32.5277C9.70024 28.014 11.0898 22.9636 10.6337 17.5892C10.2599 13.1962 8.65757 8.7534 6.25599 4.73032C6.19313 4.62264 6.16574 4.49792 6.17769 4.37381C6.18964 4.2497 6.24034 4.1325 6.32259 4.0388C6.40484 3.9451 6.51449 3.87965 6.636 3.85171C6.75752 3.82378 6.88474 3.83478 6.99965 3.88315H7.00157ZM19.2433 8.52915C22.6512 9.5699 26.703 12.558 30.3255 16.6616C34.1282 20.9702 37.1335 26.1184 38.6572 31.1937C38.6883 31.2988 38.6897 31.4105 38.6613 31.5163C38.6328 31.6221 38.5757 31.718 38.4961 31.7934C38.4166 31.8688 38.3177 31.9207 38.2105 31.9434C38.1033 31.9661 37.9919 31.9587 37.8887 31.9221L37.8465 31.9029L37.1067 31.6077C36.9218 31.5334 36.7359 31.4619 36.5489 31.3931L36.5182 31.3816C35.2149 30.9082 34.2202 30.8238 32.7922 31.188C32.6416 31.2262 32.482 31.2038 32.3476 31.1257C32.2133 31.0476 32.1148 30.92 32.0735 30.7702C29.4745 21.3191 25.0566 13.9457 18.7354 9.58332C18.1777 9.19807 18.5974 8.33174 19.2452 8.52915H19.2433ZM8.1899 5.74232L8.20524 5.77107C10.1756 9.4894 11.4789 13.4972 11.8182 17.4877C12.2264 22.3042 11.224 26.8908 8.61157 31.0807L8.57324 31.1401L8.57899 31.1382C10.8752 30.0246 13.3132 29.2809 15.9102 28.9685L16.0157 28.957C19.8126 28.5162 23.8414 29.0126 28.1079 30.5612L28.2344 30.6092L28.221 30.5344C27.0844 24.8802 24.1807 19.5385 19.9602 14.858L19.826 14.7085C16.4047 10.9518 12.2667 7.80849 8.29915 5.79599L8.1899 5.74232ZM23.3699 11.9485L23.4619 12.0405C27.7495 16.4392 30.9082 22.4499 32.9954 29.6566L33.0682 29.9096L33.1104 29.9019C34.4712 29.647 35.5714 29.7812 36.8728 30.2469L36.9246 30.2661L37.0511 30.3121L37.1392 30.3466L37.0913 30.2067C35.5369 25.7849 32.8593 21.3517 29.5473 17.5682L29.4362 17.4436C27.4812 15.2298 25.4054 13.3572 23.3987 11.9696L23.3699 11.9485Z" fill="black"/>
</g>
<defs>
<clipPath id="clip0_516_316">
<rect width="46" height="46" fill="white"/>
</clipPath>
</defs>
</svg>
