<svg width="46" height="46" viewBox="0 0 46 46" fill="none" xmlns="http://www.w3.org/2000/svg">
<path d="M6.57031 6.51666H13.1426V13.087H6.57031V6.51666ZM32.8555 6.51666H39.4296V13.087H32.8555V6.51666Z" fill="#FFD700"/>
<path d="M6.57031 13.087H19.7129V19.6592H6.57223L6.57031 13.087ZM26.2851 13.087H39.4277V19.6592H26.2851V13.087Z" fill="#FFAF00"/>
<path d="M6.57031 19.6612H39.4296V26.2315H6.57031V19.6612Z" fill="#FF8205"/>
<path d="M6.57031 26.2315H13.1426V32.8018H6.57031V26.2315ZM19.7148 26.2315H26.2871V32.8018H19.7148V26.2315ZM32.8555 26.2315H39.4296V32.8018H32.8555V26.2315Z" fill="#FA500F"/>
<path d="M0 32.8018H19.7148V39.3741H0V32.8018ZM26.2852 32.8018H46V39.3741H26.2852V32.8018Z" fill="#E10500"/>
</svg>
