<svg width="167" height="46" viewBox="0 0 167 46" fill="none" xmlns="http://www.w3.org/2000/svg">
<path fill-rule="evenodd" clip-rule="evenodd" d="M21.7539 3.83334C16.074 3.83334 11.6341 5.64076 8.43233 9.36101C5.33611 12.8743 3.83887 17.4225 3.83887 23.0518C3.83887 28.6312 5.33611 33.1775 8.43425 36.6908C11.6322 40.3075 16.074 42.1667 21.7539 42.1667C27.3801 42.1667 31.82 40.3593 35.0736 36.7425C38.1718 33.281 39.7189 28.7347 39.7189 23.0518C39.7189 17.3688 38.1718 12.7708 35.0736 9.30926C31.82 5.64076 27.3801 3.83334 21.752 3.83334H21.7539ZM21.7539 9.15401C25.5738 9.15401 28.5165 10.3423 30.5819 12.8225C32.5955 15.3027 33.6282 18.7124 33.6282 23.0518C33.6282 27.3911 32.5955 30.7491 30.5819 33.1775C28.5165 35.6059 25.5738 36.846 21.752 36.846C17.9321 36.846 14.9376 35.5542 12.8741 33.0223C10.8586 30.5421 9.87966 27.2358 9.87966 23.0518C9.87966 18.8159 10.8586 15.5097 12.8741 13.0276C14.9895 10.4458 17.9341 9.15401 21.7539 9.15401ZM44.1089 3.83334V41.4441H49.9942V3.83334H44.1089ZM55.9313 3.83334V41.4441H61.8167V3.83334H55.9313ZM79.3689 14.0108C75.9617 14.0108 73.2782 14.5782 71.3165 15.8183C68.9938 17.1618 67.5465 19.3315 66.9783 22.2774L72.8137 22.7413C73.1227 21.3459 73.8963 20.3128 75.0327 19.642C76.0136 19.0229 77.3054 18.7642 78.9562 18.7642C82.7761 18.7642 84.688 20.47 84.688 23.9813V25.0163L78.8526 25.1697C74.929 25.2732 71.8846 26.0993 69.7156 27.6498C67.3411 29.2503 66.2047 31.5752 66.2047 34.5728C66.2047 36.7943 67.0301 38.6017 68.6809 40.0488C70.2837 41.4441 72.4509 42.1667 75.24 42.1667C77.5626 42.1667 79.5762 41.7527 81.2789 40.9783C82.7761 40.2558 84.068 39.2725 85.0988 37.9308V41.4441H90.5733V24.3953C90.5733 21.1408 89.7479 18.6607 88.0952 16.9548C86.2351 14.9922 83.2925 14.0108 79.3689 14.0108ZM84.6861 29.2503V30.5938C84.6861 32.66 83.8607 34.3658 82.3116 35.7094C80.7644 37.0013 78.8526 37.6721 76.5818 37.6721C75.2918 37.6721 74.2591 37.3098 73.4337 36.6908C72.6064 36.0698 72.2436 35.2954 72.2436 34.3658C72.2436 31.2723 74.4108 29.6259 78.7892 29.4208L84.6861 29.2503ZM108.592 14.0108C106.012 14.0108 103.584 15.1474 101.365 17.4723V14.7334H95.4777V41.4441H101.363V25.4284C101.363 23.6708 101.879 22.1222 102.912 20.8821C103.945 19.5404 105.287 18.9194 106.991 18.9194C110.5 18.9194 112.256 20.9319 112.256 25.0144V41.4441H118.142V25.1179C118.142 23.1553 118.606 21.6564 119.639 20.5716C120.62 19.435 121.808 18.9194 123.253 18.9194C125.317 18.9194 126.764 19.3833 127.693 20.3646C128.571 21.2961 129.035 22.8448 129.035 24.9646V41.4441H134.92V23.9296C134.92 20.9856 133.991 18.6089 132.237 16.7498C130.377 14.8906 128.106 14.0108 125.369 14.0108C123.563 14.0108 122.067 14.3213 120.877 14.9404C119.535 15.5614 118.245 16.698 117.005 18.3521C115.303 15.4579 112.516 14.0108 108.592 14.0108ZM151.96 14.0108C148.553 14.0108 145.868 14.5782 143.906 15.8183C141.583 17.1618 140.138 19.3315 139.568 22.2774L145.403 22.7413C145.712 21.3459 146.488 20.3128 147.622 19.642C148.603 19.0229 149.895 18.7642 151.546 18.7642C155.365 18.7642 157.277 20.47 157.277 23.9813V25.0163L151.442 25.1697C147.52 25.2732 144.474 26.0993 142.305 27.6498C139.93 29.2503 138.794 31.5752 138.794 34.5728C138.794 36.7943 139.619 38.6017 141.272 40.0488C142.873 41.4441 145.042 42.1667 147.829 42.1667C150.152 42.1667 152.168 41.7527 153.87 40.9783C155.367 40.2558 156.657 39.2725 157.69 37.9308V41.4441H163.161V24.3953C163.161 21.1408 162.335 18.6607 160.683 16.9548C158.824 14.9922 155.884 14.0108 151.96 14.0108ZM157.277 29.2503V30.5938C157.277 32.66 156.452 34.3658 154.903 35.7094C153.354 37.0013 151.444 37.6721 149.171 37.6721C147.881 37.6721 146.848 37.3098 146.023 36.6908C145.198 36.0698 144.835 35.2954 144.835 34.3658C144.835 31.2723 147 29.6259 151.38 29.4208L157.277 29.2503Z" fill="black"/>
</svg>
