<svg width="46" height="46" viewBox="0 0 46 46" fill="none" xmlns="http://www.w3.org/2000/svg">
<path fill-rule="evenodd" clip-rule="evenodd" d="M41.3041 19.1743C41.7827 17.7554 41.9486 16.2497 41.7905 14.7606C41.6323 13.2715 41.1539 11.8342 40.388 10.5474C38.0554 6.54158 33.3691 4.47925 28.7921 5.44908C27.7784 4.32668 26.5385 3.43162 25.154 2.82279C23.7695 2.21396 22.2718 1.90514 20.7594 1.91667C16.0808 1.90708 11.9293 4.87983 10.4899 9.27283C9.01031 9.56901 7.61063 10.1764 6.38369 11.0547C5.15675 11.9331 4.13059 13.0622 3.37329 14.3673C2.22861 16.3113 1.7394 18.5719 1.97788 20.8152C2.21637 23.0586 3.16991 25.1658 4.69771 26.8257C4.21856 28.2448 4.05218 29.7507 4.20999 31.2402C4.3678 32.7297 4.84607 34.1673 5.61196 35.4545C7.94454 39.4603 12.6308 41.5208 17.2078 40.5528C18.2212 41.675 19.4608 42.5698 20.845 43.1784C22.2292 43.7869 23.7266 44.0953 25.2386 44.0833C29.921 44.0948 34.0745 41.1202 35.5139 36.7233C36.9945 36.4272 38.3951 35.8195 39.6227 34.9404C40.8504 34.0614 41.877 32.9313 42.6343 31.625C43.7768 29.6811 44.2644 27.4216 44.0253 25.1795C43.7861 22.9374 42.8329 20.8316 41.306 19.1724L41.3041 19.1743ZM25.2405 41.3272C23.371 41.3317 21.5582 40.6852 20.1135 39.4987C20.1786 39.4642 20.2917 39.4028 20.3665 39.3568L28.8765 34.5077C29.0888 34.3891 29.2656 34.2159 29.3883 34.0059C29.511 33.7959 29.5752 33.5568 29.5741 33.3136V21.4762L33.1717 23.5252C33.21 23.5443 33.235 23.5808 33.2407 23.621V33.4247C33.235 37.7832 29.6565 41.3176 25.2405 41.3272ZM8.03462 34.0783C7.09666 32.4828 6.75823 30.6052 7.08012 28.7826C7.14146 28.8209 7.25262 28.888 7.33121 28.9321L15.8412 33.7812C16.2725 34.0304 16.8072 34.0304 17.2404 33.7812L27.6287 27.8626V31.9604C27.6295 31.9815 27.6253 32.0024 27.6163 32.0214C27.6073 32.0404 27.5938 32.057 27.577 32.0697L18.975 36.9687C15.1435 39.146 10.2503 37.8503 8.03654 34.0745L8.03462 34.0783ZM5.79404 15.7473C6.73568 14.1412 8.21091 12.9162 9.96279 12.2858L9.95896 12.5752V22.2736C9.95778 22.5171 10.0219 22.7565 10.1446 22.9668C10.2673 23.1771 10.4441 23.3507 10.6566 23.4696L21.045 29.3863L17.4493 31.4372C17.4315 31.4486 17.4112 31.4554 17.3901 31.4571C17.3691 31.4588 17.3479 31.4552 17.3285 31.4467L8.72462 26.542C4.90087 24.357 3.58987 19.5308 5.79212 15.7512L5.79404 15.7473ZM35.3433 22.5323L24.955 16.6137L28.5506 14.5667C28.5682 14.5549 28.5885 14.5478 28.6096 14.5458C28.6306 14.5438 28.6519 14.547 28.6714 14.5552L37.2753 19.4561C41.1048 21.6411 42.4177 26.4749 40.2059 30.2527C39.2634 31.8578 37.7894 33.083 36.039 33.7161V23.7283C36.0403 23.4853 35.9764 23.2464 35.854 23.0364C35.7317 22.8264 35.5553 22.653 35.3433 22.5342V22.5323ZM38.9217 17.2174C38.838 17.1665 38.7537 17.1167 38.6687 17.0679L30.1587 12.2187C29.9462 12.0965 29.7053 12.0321 29.4601 12.0321C29.2149 12.0321 28.974 12.0965 28.7615 12.2187L18.3731 18.1374V14.0396C18.3723 14.0185 18.3766 13.9976 18.3856 13.9786C18.3946 13.9596 18.4081 13.943 18.4249 13.9303L27.025 9.03325C30.8583 6.854 35.7554 8.15158 37.9634 11.9332C38.8968 13.5297 39.238 15.4004 38.9217 17.2174ZM16.4181 24.5199L12.8205 22.4729C12.8018 22.4637 12.7856 22.4499 12.7735 22.4329C12.7615 22.4158 12.7539 22.3959 12.7515 22.3752V12.5714C12.7535 8.20717 16.3415 4.67092 20.7651 4.67475C22.6358 4.67475 24.4451 5.32258 25.8845 6.50325C25.8194 6.53775 25.7082 6.59908 25.6335 6.64317L17.1235 11.4923C16.9107 11.6106 16.7336 11.7838 16.6105 11.9938C16.4875 12.2038 16.423 12.443 16.4239 12.6864L16.4181 24.518V24.5199ZM18.3731 20.3646L23 17.7292L27.6268 20.3646V25.6354L23 28.2708L18.3712 25.6354V20.3646H18.3731Z" fill="black"/>
</svg>
