<svg width="46" height="46" viewBox="0 0 46 46" fill="none" xmlns="http://www.w3.org/2000/svg">
<g clip-path="url(#clip0_521_352)">
<path fill-rule="evenodd" clip-rule="evenodd" d="M32.2077 3.75092L46.046 11.6188V11.7856L32.0658 19.5692L32.0984 15.5116L30.5248 15.4541C28.4951 15.4004 27.4371 15.4579 26.1778 15.6649C24.1385 16.0003 22.2717 16.7708 20.1461 18.2562L15.9946 21.1408C15.4503 21.5146 15.0458 21.7848 14.6913 22.0129L13.7042 22.6301L12.9433 23.0786L13.6812 23.5194L14.697 24.1672C15.6093 24.7691 16.9395 25.6929 19.8739 27.7437C22.0014 29.2292 23.8663 29.9997 25.9057 30.3351L26.4807 30.4213C27.8108 30.5957 29.1161 30.6015 31.8953 30.4846L31.9374 26.3465L45.7758 34.2144V34.3812L31.7956 42.1667L31.8224 38.5978L30.6053 38.64C27.9488 38.7205 26.5094 38.6438 24.5908 38.3295C21.344 37.7928 18.3425 36.5547 15.2356 34.3831L11.0994 31.5081C10.6236 31.18 10.1412 30.8618 9.65233 30.5536L8.75725 30.0169C8.27385 29.7384 7.78828 29.4637 7.30058 29.1927C5.57367 28.2325 1.07908 27.0557 0 27.0557V18.952L0.268333 18.9597C1.34933 18.9462 5.84583 17.7675 7.56892 16.8053L9.51625 15.6937L10.3558 15.1685C11.1761 14.6318 12.4104 13.777 15.5039 11.6169C18.6108 9.44533 21.6104 8.20525 24.8592 7.6705C27.0672 7.30633 28.6427 7.26225 32.1693 7.406L32.2077 3.75092Z" fill="black"/>
</g>
<defs>
<clipPath id="clip0_521_352">
<rect width="46" height="46" fill="white"/>
</clipPath>
</defs>
</svg>
