<svg width="268" height="46" viewBox="0 0 268 46" fill="none" xmlns="http://www.w3.org/2000/svg">
<g clip-path="url(#clip0_521_357)">
<path fill-rule="evenodd" clip-rule="evenodd" d="M32.2077 3.75092L46.046 11.6188V11.7856L32.0658 19.5692L32.0984 15.5116L30.5248 15.4541C28.4951 15.4004 27.4371 15.4579 26.1778 15.6649C24.1385 16.0003 22.2717 16.7708 20.1461 18.2562L15.9946 21.1408C15.4503 21.5146 15.0458 21.7848 14.6913 22.0129L13.7042 22.6301L12.9433 23.0786L13.6812 23.5194L14.697 24.1672C15.6093 24.7691 16.9395 25.6929 19.8739 27.7437C22.0014 29.2292 23.8663 29.9997 25.9057 30.3351L26.4807 30.4213C27.8108 30.5957 29.1161 30.6015 31.8953 30.4846L31.9374 26.3465L45.7758 34.2144V34.3812L31.7956 42.1667L31.8224 38.5978L30.6053 38.64C27.9488 38.7205 26.5094 38.6438 24.5908 38.3295C21.344 37.7928 18.3425 36.5547 15.2356 34.3831L11.0994 31.5081C10.6236 31.18 10.1412 30.8618 9.65233 30.5536L8.75725 30.0169C8.27385 29.7384 7.78828 29.4637 7.30058 29.1927C5.57367 28.2325 1.07908 27.0557 0 27.0557V18.952L0.268333 18.9597C1.34933 18.9462 5.84583 17.7675 7.56892 16.8053L9.51625 15.6937L10.3558 15.1685C11.1761 14.6318 12.4104 13.777 15.5039 11.6169C18.6108 9.44533 21.6104 8.20525 24.8592 7.6705C27.0672 7.30633 28.6427 7.26225 32.1693 7.406L32.2077 3.75092Z" fill="black"/>
</g>
<path fill-rule="evenodd" clip-rule="evenodd" d="M68.401 8C70.5859 8 72.5358 8.525 74.2523 9.575C75.9718 10.6235 77.3247 12.125 78.3138 14.078C79.3015 16.0325 79.7969 18.3695 79.7969 21.0905C79.7969 23.8115 79.303 26.1485 78.3138 28.103C77.3262 30.056 75.9718 31.5575 74.2538 32.6075C72.5358 33.6575 70.5844 34.181 68.4025 34.181C66.2101 34.181 64.2542 33.656 62.5362 32.606C60.8182 31.5575 59.4654 30.0545 58.4762 28.0955C57.4885 26.138 56.9932 23.8025 56.9932 21.0905C56.9932 18.3695 57.487 16.0325 58.4762 14.078C59.4639 12.125 60.8182 10.6235 62.5362 9.5735C64.2542 8.525 66.2101 8 68.401 8ZM68.401 11.51C66.9434 11.51 65.6415 11.876 64.4951 12.611C63.3503 13.3445 62.4449 14.423 61.782 15.845C61.119 17.2685 60.7883 19.016 60.7883 21.0905C60.7883 23.165 61.119 24.9125 61.782 26.336C62.4464 27.758 63.3503 28.8365 64.4951 29.57C65.6415 30.305 66.9434 30.6725 68.401 30.6725C69.8526 30.6725 71.1516 30.305 72.3009 29.57C73.4502 28.8365 74.3571 27.758 75.02 26.336C75.683 24.9125 76.0152 23.165 76.0152 21.0905C76.0152 19.016 75.683 17.2685 75.02 15.845C74.3571 14.423 73.4502 13.3445 72.3009 12.611C71.1516 11.876 69.8511 11.51 68.401 11.51ZM92.8239 14.471C94.3564 14.471 95.7242 14.861 96.9274 15.641C98.1305 16.421 99.0763 17.5445 99.7647 19.013C100.453 20.4815 100.797 22.247 100.797 24.314C100.797 26.3795 100.453 28.148 99.7707 29.621C99.0868 31.0925 98.147 32.225 96.9528 33.017C95.7571 33.8105 94.3938 34.2065 92.8614 34.2065C91.7076 34.2065 90.7663 34.0115 90.0375 33.6215C89.3072 33.2315 88.737 32.7755 88.3255 32.252C87.9709 31.8142 87.6526 31.3482 87.3737 30.8585H87.1507V41H83.4543V14.72H87.0639V17.8175H87.3737C87.5877 17.42 87.8975 16.9595 88.3015 16.4375C88.7056 15.914 89.2638 15.455 89.9821 15.062C90.6989 14.6675 91.6447 14.471 92.8239 14.471ZM92.0338 17.6315C90.9623 17.6315 90.0584 17.909 89.3206 18.4655C88.5829 19.0205 88.0247 19.796 87.6445 20.7905C87.2659 21.788 87.0759 22.949 87.0759 24.2765C87.0759 25.6205 87.2704 26.7965 87.658 27.8105C88.0456 28.8215 88.6053 29.612 89.3386 30.1805C90.0719 30.749 90.9698 31.0325 92.0323 31.0325C93.1367 31.0325 94.0601 30.7355 94.8008 30.143C95.5431 29.5505 96.1058 28.7435 96.4889 27.7235C96.872 26.7035 97.0635 25.553 97.0635 24.2765C97.0635 23.0165 96.8765 21.8825 96.5009 20.879C96.1267 19.874 95.5655 19.0835 94.8203 18.503C94.075 17.921 93.1442 17.6315 92.0338 17.6315ZM112.067 14.471C113.139 14.471 114.178 14.6495 115.183 15.005C116.195 15.3654 117.118 15.9382 117.89 16.685C118.69 17.45 119.32 18.4385 119.78 19.6535C120.243 20.8685 120.473 22.343 120.473 24.077V25.397L106.981 25.3955L106.984 25.553C107.029 26.651 107.25 27.599 107.65 28.3955C108.099 29.291 108.727 29.9735 109.535 30.4415C110.342 30.911 111.286 31.145 112.364 31.145C113.066 31.145 113.703 31.043 114.279 30.8405C114.839 30.6482 115.349 30.336 115.776 29.9255C116.196 29.519 116.518 29.0165 116.74 28.4195L120.238 29.054C119.969 30.071 119.453 31.0053 118.736 31.7735C118.015 32.549 117.114 33.1505 116.03 33.578C114.945 34.004 113.712 34.2185 112.328 34.2185C110.457 34.2185 108.849 33.8135 107.502 33.005C106.155 32.195 105.116 31.055 104.386 29.5835C103.657 28.1105 103.293 26.3825 103.293 24.401C103.293 22.442 103.657 20.717 104.386 19.2245C105.116 17.7305 106.137 16.565 107.452 15.728C108.766 14.8895 110.305 14.471 112.067 14.471ZM112.093 17.5445C111.054 17.5445 110.15 17.7995 109.38 18.3095C108.609 18.8195 108.016 19.4825 107.599 20.3C107.288 20.9107 107.09 21.573 107.015 22.2545L106.985 22.6085H116.852C116.852 21.629 116.654 20.7605 116.258 20.0015C115.879 19.2605 115.305 18.6382 114.597 18.203C113.883 17.7635 113.049 17.5445 112.093 17.5445ZM127.492 22.484V33.833H123.797V14.72H127.344V17.831H127.58C128.007 16.8301 128.724 15.9805 129.638 15.392C130.573 14.777 131.752 14.471 133.179 14.471C134.472 14.471 135.606 14.741 136.577 15.2855C137.55 15.8285 138.304 16.6355 138.84 17.7065C139.376 18.776 139.644 20.099 139.644 21.6755V33.833H135.947V22.124C135.947 20.738 135.588 19.6535 134.873 18.869C134.154 18.086 133.171 17.693 131.919 17.693C131.061 17.693 130.301 17.8805 129.638 18.254C128.967 18.6343 128.421 19.2025 128.067 19.889C127.685 20.6075 127.492 21.4715 127.492 22.484ZM153.115 8.348C155.076 8.348 156.707 8.6885 158.003 9.368C159.302 10.049 160.271 10.988 160.913 12.188C161.557 13.3865 161.879 14.768 161.879 16.337C161.879 17.897 161.555 19.268 160.907 20.45C160.261 21.632 159.288 22.55 157.991 23.2055C157.747 23.3289 157.497 23.439 157.241 23.5355L162.842 33.833H158.492L153.35 24.188H147.912V33.833H144.093V8.348H153.115ZM152.707 11.6465H147.912V20.879H152.756C153.992 20.879 155.001 20.7005 155.779 20.3435C156.557 19.9865 157.127 19.469 157.491 18.788C157.853 18.1085 158.034 17.291 158.034 16.337C158.034 15.3755 157.852 14.5415 157.485 13.8365C157.117 13.1315 156.545 12.59 155.767 12.212C154.989 11.834 153.968 11.6465 152.707 11.6465ZM173.212 14.471C174.992 14.471 176.544 14.8805 177.872 15.7025C179.198 16.5245 180.229 17.6765 180.962 19.1615C181.695 20.6465 182.062 22.3805 182.062 24.3635C182.062 26.3375 181.695 28.0625 180.962 29.5385C180.229 31.016 179.198 32.165 177.872 32.987C176.544 33.8075 174.992 34.217 173.212 34.217C171.431 34.217 169.879 33.8075 168.553 32.987C167.226 32.165 166.196 31.016 165.463 29.54C164.729 28.0625 164.363 26.3375 164.363 24.3635C164.363 22.3805 164.729 20.6465 165.463 19.1615C166.196 17.6765 167.226 16.5245 168.553 15.7025C169.879 14.8805 171.432 14.471 173.212 14.471ZM173.224 17.582C172.062 17.582 171.1 17.8925 170.338 18.515C169.575 19.1375 169.011 19.9595 168.644 20.984C168.268 22.0657 168.083 23.2046 168.095 24.35C168.095 25.5785 168.278 26.702 168.644 27.7235C169.011 28.7435 169.577 29.561 170.338 30.1745C171.102 30.7895 172.062 31.0955 173.224 31.0955C174.377 31.0955 175.334 30.788 176.092 30.1745C176.85 29.5595 177.412 28.7435 177.779 27.7235C178.146 26.7035 178.328 25.5785 178.328 24.35C178.328 23.1305 178.146 22.01 177.779 20.984C177.412 19.9595 176.851 19.1375 176.092 18.515C175.334 17.8925 174.377 17.582 173.224 17.582ZM197.413 25.907V14.72H201.12V33.833H197.486V30.5225H197.289C196.845 31.5525 196.118 32.4351 195.194 33.068C194.235 33.743 193.042 34.082 191.616 34.082C190.396 34.082 189.318 33.8105 188.383 33.266C187.448 32.723 186.715 31.916 186.183 30.8465C185.652 29.7755 185.386 28.4525 185.386 26.876V14.72H189.082V26.429C189.082 27.731 189.441 28.769 190.157 29.54C190.875 30.311 191.806 30.6965 192.951 30.6965C193.642 30.6965 194.333 30.5225 195.02 30.1745C195.709 29.8265 196.282 29.2985 196.738 28.5935C197.196 27.8885 197.421 26.993 197.412 25.9055L197.413 25.907ZM210.253 10.1405V14.7185H214.147V17.7065H210.253V28.2215C210.253 28.9415 210.361 29.483 210.575 29.8445C210.79 30.2045 211.069 30.4505 211.41 30.5795C211.751 30.707 212.125 30.7715 212.528 30.7715C212.826 30.7715 213.084 30.7505 213.306 30.71L213.827 30.6095L214.494 33.6845C214.195 33.7914 213.889 33.8766 213.578 33.9395C213.183 34.025 212.689 34.0745 212.097 34.082C211.163 34.1061 210.235 33.9275 209.376 33.5585C208.548 33.2033 207.84 32.6157 207.338 31.8665C206.819 31.103 206.56 30.1445 206.56 28.9925L206.557 17.705H203.778V14.72H206.557L206.558 10.1405H210.253ZM225.16 14.471C226.231 14.471 227.27 14.6495 228.274 15.005C229.286 15.3652 230.209 15.938 230.983 16.685C231.78 17.45 232.41 18.4385 232.873 19.6535C233.334 20.8685 233.564 22.343 233.564 24.077V25.397L220.072 25.3955L220.076 25.553C220.121 26.651 220.343 27.599 220.742 28.3955C221.191 29.291 221.82 29.9735 222.626 30.4415C223.434 30.911 224.377 31.145 225.456 31.145C226.156 31.145 226.795 31.043 227.372 30.8405C227.931 30.6482 228.442 30.336 228.868 29.9255C229.287 29.519 229.609 29.0165 229.832 28.4195L233.329 29.054C233.06 30.0708 232.545 31.0051 231.828 31.7735C231.107 32.549 230.204 33.1505 229.121 33.578C228.038 34.004 226.804 34.2185 225.42 34.2185C223.55 34.2185 221.941 33.8135 220.592 33.005C219.246 32.195 218.207 31.055 217.48 29.5835C216.749 28.1105 216.384 26.3825 216.384 24.401C216.384 22.442 216.749 20.717 217.478 19.2245C218.207 17.7305 219.229 16.565 220.543 15.728C221.858 14.8895 223.397 14.471 225.16 14.471ZM225.185 17.5445C224.147 17.5445 223.243 17.7995 222.472 18.3095C221.701 18.8195 221.109 19.4825 220.691 20.3C220.38 20.9107 220.183 21.573 220.108 22.2545L220.078 22.6085H229.943C229.943 21.629 229.745 20.7605 229.35 20.0015C228.972 19.2605 228.397 18.6382 227.689 18.203C226.975 17.7635 226.14 17.5445 225.185 17.5445ZM236.889 33.833V14.72H240.461V17.756H240.659C240.98 16.7607 241.627 15.9033 242.495 15.323C243.376 14.7289 244.417 14.4186 245.479 14.4335L246.072 14.4485L246.301 14.4575C246.618 14.474 246.868 14.495 247.049 14.5205V18.0785C246.899 18.038 246.638 17.99 246.257 17.936C245.881 17.8822 245.501 17.8551 245.12 17.855C244.248 17.855 243.471 18.0395 242.792 18.41C242.126 18.7652 241.569 19.2938 241.178 19.94C240.777 20.6099 240.572 21.3789 240.584 22.16V33.833H236.889Z" fill="black"/>
<defs>
<clipPath id="clip0_521_357">
<rect width="46" height="46" fill="white"/>
</clipPath>
</defs>
</svg>
