<svg width="46" height="46" viewBox="0 0 46 46" fill="none" xmlns="http://www.w3.org/2000/svg">
<path d="M37.9212 0V13.938H43.125V33.7717H37.4996V46L24.012 34.1282V45.9061H21.9209V34.1147L8.418 46V33.6087H2.875V13.777H8.40267V0L21.9209 12.4468V0.364167H24.0101V12.8033L37.9212 0ZM24.012 17.3343V31.3624L35.4085 41.3942V27.6767L24.012 17.3343ZM21.9056 17.181L10.5091 27.5272V41.3942L21.9056 31.3624V17.1829V17.181ZM37.4996 31.7093H41.0339V16.0022H25.7983L37.4996 26.6206V31.7093ZM20.2841 15.8393H4.96417V31.5464H8.41417V26.6091L20.2822 15.8374L20.2841 15.8393ZM10.4937 4.74567V13.7732H20.2975L10.4937 4.74567ZM35.8302 4.74567L26.0264 13.7732H35.8302V4.74567Z" fill="#22B8CD"/>
</svg>
