<svg width="230" height="46" viewBox="0 0 230 46" fill="none" xmlns="http://www.w3.org/2000/svg">
<path d="M37.9212 0V13.938H43.125V33.7717H37.4996V46L24.012 34.1282V45.9061H21.9209V34.1147L8.418 46V33.6087H2.875V13.777H8.40267V0L21.9209 12.4468V0.364167H24.0101V12.8033L37.9212 0ZM24.012 17.3343V31.3624L35.4085 41.3942V27.6767L24.012 17.3343ZM21.9056 17.181L10.5091 27.5272V41.3942L21.9056 31.3624V17.1829V17.181ZM37.4996 31.7093H41.0339V16.0022H25.7983L37.4996 26.6206V31.7093ZM20.2841 15.8393H4.96417V31.5464H8.41417V26.6091L20.2822 15.8374L20.2841 15.8393ZM10.4937 4.74567V13.7732H20.2975L10.4937 4.74567ZM35.8302 4.74567L26.0264 13.7732H35.8302V4.74567Z" fill="#22B8CD"/>
<path fill-rule="evenodd" clip-rule="evenodd" d="M111.978 12.827H113.709V16.385H111.468C109.713 16.385 108.405 16.8065 107.539 17.6495C106.674 18.494 106.241 19.877 106.241 21.8015V33.461H102.704V12.9065H106.241V16.187C106.241 16.3715 106.334 16.4645 106.517 16.4645C106.621 16.4645 106.699 16.439 106.754 16.385C106.827 16.2913 106.88 16.1835 106.91 16.0685C107.591 13.9085 109.282 12.8285 111.981 12.8285L111.978 12.827ZM135.084 17.234C136.012 18.881 136.48 20.864 136.48 23.183C136.48 25.5005 136.015 27.4835 135.084 29.1305C134.151 30.7775 132.948 32.0105 131.467 32.8265C130.008 33.6384 128.364 34.0605 126.693 34.052C123.338 34.052 120.981 32.708 119.618 30.02C119.514 29.81 119.382 29.7035 119.224 29.7035C119.066 29.7035 118.988 29.7815 118.988 29.9405V40.9685H115.451V12.9065H118.988V16.424C118.988 16.583 119.066 16.6625 119.224 16.6625C119.382 16.6625 119.511 16.5575 119.618 16.346C120.981 13.6565 123.338 12.3125 126.693 12.3125C128.396 12.3125 129.987 12.7205 131.467 13.538C132.948 14.3555 134.152 15.587 135.084 17.234ZM132.942 23.183C132.942 20.7575 132.295 18.8675 130.998 17.5115C129.701 16.1555 127.992 15.476 125.868 15.476C123.743 15.476 122.036 16.1555 120.739 17.5115C119.441 18.869 118.965 20.7605 118.965 23.1815C118.965 25.6055 119.441 27.4985 120.737 28.8545C122.036 30.212 123.746 30.8885 125.867 30.8885C127.989 30.8885 129.701 30.209 130.998 28.8545C132.295 27.4985 132.942 25.6055 132.942 23.183ZM76.6396 17.2655C77.5692 18.9125 78.0355 20.8955 78.0355 23.213C78.0355 25.532 77.5722 27.515 76.6396 29.162C75.7084 30.809 74.5035 32.0405 73.0248 32.858C71.5652 33.67 69.92 34.0921 68.2487 34.0835C64.8942 34.0835 62.537 32.7395 61.1756 30.0515C61.0703 29.8415 60.938 29.7335 60.7815 29.7335C60.6236 29.7335 60.5438 29.813 60.5438 29.972V41H57.0088V12.938H60.5453V16.4555C60.5453 16.6145 60.6251 16.694 60.783 16.694C60.9395 16.694 61.0688 16.589 61.1756 16.376C62.5385 13.688 64.8957 12.344 68.2502 12.344C69.9531 12.344 71.5446 12.752 73.0263 13.5695C74.505 14.387 75.7084 15.6185 76.6396 17.2655ZM74.499 23.213C74.499 20.789 73.8521 18.8975 72.5539 17.543C71.2573 16.187 69.5484 15.5075 67.4244 15.5075C65.3003 15.5075 63.5915 16.187 62.2948 17.543C60.9981 18.9005 60.5228 20.7905 60.5228 23.213C60.5228 25.6355 60.9981 27.53 62.2948 28.8845C63.5915 30.2435 65.3003 30.92 67.4244 30.92C69.5484 30.92 71.2573 30.2405 72.5539 28.8845C73.8521 27.53 74.499 25.634 74.499 23.213ZM96.1936 26.9345H99.9272C99.4308 28.859 98.4139 30.527 96.8841 31.9355C95.3497 33.3455 93.155 34.0505 90.2984 34.0505C88.1488 34.0505 86.2579 33.608 84.6197 32.7245C83.0089 31.8685 81.6891 30.555 80.8275 28.9505C79.9354 27.317 79.4902 25.3925 79.4902 23.18C79.4902 20.966 79.9234 19.043 80.7883 17.4095C81.6518 15.776 82.8642 14.5175 84.4242 13.634C85.9826 12.752 87.8088 12.3095 89.9057 12.3095C92.0012 12.3095 93.7371 12.7445 95.1918 13.6145C96.6479 14.4845 97.734 15.638 98.453 17.072C99.1751 18.5105 99.5346 20.084 99.5346 21.797V24.167H83.2238C83.3531 26.222 84.0421 27.857 85.2846 29.069C86.5302 30.2795 88.2014 30.8885 90.2969 30.8885C91.9997 30.8885 93.3054 30.5405 94.208 29.8415C95.112 29.1425 95.7724 28.175 96.1936 26.9345ZM83.2644 21.2045H95.6054C95.6054 19.4135 95.1466 18.0095 94.2305 16.994C93.3129 15.98 91.8718 15.4715 89.9072 15.4715C88.072 15.4715 86.5723 15.9665 85.4095 16.9535C84.2437 17.942 83.5291 19.3595 83.2674 21.2015L83.2644 21.2045ZM139.281 33.4595H142.819V5H139.278V33.461V33.458L139.281 33.4595ZM188.356 10.661H192.488V6.215H188.356V10.664V10.661ZM202.929 30.395C202.289 30.4595 201.9 30.494 201.771 30.494C201.692 30.4983 201.612 30.4864 201.537 30.4591C201.463 30.4317 201.394 30.3895 201.336 30.335C201.282 30.2766 201.241 30.2081 201.214 30.1333C201.187 30.0586 201.175 29.9793 201.18 29.9C201.18 29.7695 201.213 29.378 201.278 28.733C201.342 28.088 201.377 27.092 201.377 25.751V15.9185H206.422L205.429 12.9065H201.38V7.3715H197.842V12.9035H193.995V15.9155H197.842V26.7365C197.842 29.0045 198.394 30.6905 199.494 31.7975C200.595 32.903 202.27 33.458 204.525 33.458H207.278V30.2975H205.902C204.564 30.2975 203.575 30.3305 202.932 30.3965L202.929 30.395ZM223.627 12.902L217.77 30.149C217.691 30.3605 217.567 30.638 217.166 30.638C216.763 30.638 216.639 30.3605 216.561 30.149L210.705 12.902H207.098L213.879 33.4565H216.277C216.396 33.4522 216.515 33.4653 216.63 33.4955C216.71 33.521 216.775 33.5855 216.827 33.695C216.933 33.8525 216.918 34.091 216.788 34.4045L215.689 37.4075C215.531 37.8035 215.23 38.0015 214.786 38.0015C214.627 38.0015 214.261 37.967 213.685 37.9025C212.94 37.829 212.192 37.7959 211.444 37.8035H208.575V40.964H212.348C214.548 40.964 215.874 40.589 217.014 39.839C218.153 39.089 219.037 37.7645 219.667 35.864L226.992 13.6925V12.9035L223.627 12.902ZM176.803 20.5715L171.263 12.905H167.37V13.6955L174.011 22.5905L165.915 32.6705V33.4595H169.886L176.332 25.199L182.346 33.4595H186.16V32.6705L179.124 23.1845L186.751 13.7375V12.908H182.78L176.806 20.5775L176.803 20.5745V20.5715ZM188.734 33.4565H192.27V12.9065H188.735V33.4595L188.734 33.4565ZM166.076 26.933C165.578 28.8575 164.563 30.5255 163.031 31.934C161.497 33.344 159.302 34.049 156.447 34.049C154.296 34.049 152.407 33.6065 150.769 32.723C149.157 31.8672 147.837 30.5538 146.975 28.949C146.083 27.3155 145.639 25.391 145.639 23.1785C145.639 20.9645 146.072 19.0415 146.936 17.408C147.799 15.7745 149.012 14.516 150.572 13.6325C152.13 12.7505 153.956 12.308 156.053 12.308C158.15 12.308 159.885 12.743 161.341 13.613C162.795 14.483 163.881 15.6365 164.602 17.0705C165.322 18.509 165.682 20.0825 165.682 21.7955V24.1655H149.373C149.502 26.2205 150.191 27.8555 151.435 29.0675C152.679 30.278 154.35 30.887 156.447 30.887C158.15 30.887 159.456 30.539 160.358 29.84C161.261 29.141 161.923 28.1735 162.343 26.933H166.076ZM149.412 21.203H161.754C161.754 19.412 161.296 18.008 160.378 16.9925C159.46 15.9785 158.019 15.47 156.056 15.47C154.221 15.47 152.721 15.965 151.557 16.952C150.391 17.9405 149.677 19.358 149.415 21.2L149.412 21.203Z" fill="black"/>
</svg>
