<svg width="46" height="46" viewBox="0 0 46 46" fill="none" xmlns="http://www.w3.org/2000/svg">
<path d="M24.158 2.5683C24.9112 3.8908 25.6606 5.21714 26.4081 6.54539C26.4383 6.59851 26.4821 6.64265 26.535 6.67329C26.5879 6.70394 26.6479 6.71999 26.709 6.7198H37.3504C37.6839 6.7198 37.9675 6.93064 38.2052 7.34655L40.992 12.2724C41.3562 12.9183 41.452 13.1886 41.038 13.8766C40.5397 14.7008 40.0548 15.5326 39.5814 16.3683L38.878 17.6295C38.6748 18.0051 38.4505 18.1661 38.8013 18.6108L43.8843 27.4984C44.214 28.0753 44.097 28.4452 43.8019 28.9742C42.9643 30.4788 42.1114 31.9719 41.2431 33.4592C40.9384 33.9806 40.5685 34.178 39.9398 34.1684C38.4505 34.1377 36.9651 34.1492 35.4797 34.1991C35.4479 34.2007 35.4169 34.2103 35.3898 34.2271C35.3627 34.2438 35.3402 34.2672 35.3245 34.2949C33.6106 37.3314 31.8824 40.3598 30.1399 43.3799C29.816 43.9415 29.4115 44.0756 28.7503 44.0776C26.8394 44.0833 24.9131 44.0852 22.9677 44.0814C22.7866 44.0809 22.6088 44.0326 22.4523 43.9414C22.2958 43.8502 22.1662 43.7193 22.0765 43.562L19.5177 39.1096C19.5028 39.0804 19.48 39.0561 19.4518 39.0395C19.4236 39.0229 19.3913 39.0146 19.3586 39.0156H9.54912C9.00287 39.0731 8.4892 39.0137 8.0062 38.8393L4.93378 33.5301C4.84292 33.3729 4.79476 33.1947 4.79409 33.0131C4.79341 32.8316 4.84025 32.653 4.92995 32.4951L7.24337 28.4318C7.27632 28.3743 7.29366 28.3093 7.29366 28.243C7.29366 28.1768 7.27632 28.1117 7.24337 28.0542C6.0383 25.9679 4.84038 23.8774 3.64962 21.7829L2.13545 19.1091C1.82878 18.515 1.80387 18.1585 2.31753 17.2596C3.20878 15.7013 4.09428 14.145 4.97595 12.5906C5.22895 12.1421 5.55862 11.9504 6.09528 11.9485C7.74936 11.9415 9.40345 11.9409 11.0575 11.9466C11.0993 11.9462 11.1403 11.9349 11.1763 11.9137C11.2123 11.8925 11.2421 11.8622 11.2626 11.8258L16.6408 2.44372C16.7223 2.30099 16.84 2.18226 16.982 2.09949C17.124 2.01671 17.2853 1.97282 17.4496 1.97222C18.454 1.9703 19.4679 1.97222 20.4837 1.96072L22.433 1.91664C23.0865 1.91089 23.8206 1.97797 24.158 2.5683ZM17.58 3.34072C17.5598 3.34071 17.5399 3.34602 17.5224 3.35611C17.5049 3.3662 17.4904 3.38073 17.4803 3.39822L11.9871 13.0103C11.9607 13.0556 11.923 13.0932 11.8776 13.1194C11.8322 13.1457 11.7808 13.1596 11.7284 13.1598H6.2352C6.12787 13.1598 6.10103 13.2077 6.15662 13.3016L17.2925 32.7673C17.3404 32.8478 17.3174 32.8861 17.2273 32.8881L11.8702 32.9168C11.7919 32.9142 11.7144 32.9337 11.6466 32.973C11.5788 33.0123 11.5235 33.0699 11.4869 33.1391L8.95687 37.5666C8.87253 37.7161 8.91662 37.7928 9.0872 37.7928L20.0429 37.8081C20.131 37.8081 20.1962 37.8465 20.2422 37.9251L22.9313 42.6286C23.0195 42.7838 23.1076 42.7857 23.1977 42.6286L32.7925 25.8386L34.2933 23.1897C34.3024 23.1734 34.3158 23.1597 34.332 23.1503C34.3481 23.1408 34.3665 23.1358 34.3853 23.1358C34.404 23.1358 34.4224 23.1408 34.4386 23.1503C34.4548 23.1597 34.4681 23.1734 34.4773 23.1897L37.2066 28.0389C37.2271 28.0752 37.2569 28.1053 37.293 28.1262C37.329 28.1471 37.37 28.158 37.4117 28.1577L42.7075 28.1194C42.721 28.1195 42.7344 28.116 42.7462 28.1093C42.758 28.1026 42.7677 28.0928 42.7745 28.0811C42.7811 28.0693 42.7845 28.0561 42.7845 28.0427C42.7845 28.0293 42.7811 28.0161 42.7745 28.0044L37.2162 18.2562C37.1962 18.2236 37.1856 18.1862 37.1856 18.1479C37.1856 18.1097 37.1962 18.0722 37.2162 18.0396L37.7778 17.0679L39.9245 13.2786C39.9705 13.2001 39.9475 13.1598 39.8574 13.1598H17.6336C17.5205 13.1598 17.4937 13.11 17.5512 13.0122L20.2997 8.21097C20.3203 8.17825 20.3312 8.14038 20.3312 8.10172C20.3312 8.06306 20.3203 8.02519 20.2997 7.99247L17.6815 3.40014C17.6715 3.382 17.6568 3.36691 17.6389 3.35645C17.621 3.34599 17.6007 3.34056 17.58 3.34072ZM29.6358 18.7124C29.724 18.7124 29.747 18.7507 29.701 18.8274L28.1063 21.6353L23.098 30.4232C23.0886 30.4403 23.0747 30.4545 23.0578 30.4643C23.041 30.4741 23.0217 30.4791 23.0022 30.4788C22.9828 30.4787 22.9637 30.4736 22.9469 30.4638C22.9301 30.454 22.9161 30.4401 22.9064 30.4232L16.2881 18.8619C16.2498 18.7967 16.269 18.7622 16.3418 18.7584L16.7558 18.7354L29.6396 18.7124H29.6358Z" fill="url(#paint0_linear_523_422)"/>
<defs>
<linearGradient id="paint0_linear_523_422" x1="1.91602" y1="1.91632" x2="4218.64" y2="1.91632" gradientUnits="userSpaceOnUse">
<stop stop-color="#6336E7" stop-opacity="0.84"/>
<stop offset="1" stop-color="#6F69F7" stop-opacity="0.84"/>
</linearGradient>
</defs>
</svg>
