<svg width="195" height="46" viewBox="0 0 195 46" fill="none" xmlns="http://www.w3.org/2000/svg">
<path fill-rule="evenodd" clip-rule="evenodd" d="M34.232 44.068C29.1164 44.5376 24.8652 38.5557 21.5877 35.5312C19.9298 47.4547 1.91699 46.3392 1.91699 34.2317V11.7875C1.91699 10.0222 2.38466 8.22058 3.32191 6.70833C5.05074 3.78925 8.40108 1.87833 11.7878 1.91667H34.232C46.3377 1.91667 47.4915 19.9295 35.5296 21.5491L41.2221 27.2052C47.4551 33.0778 42.7707 44.3191 34.2339 44.0661L34.232 44.068ZM31.495 36.9361C35.0255 40.5739 40.6452 34.9542 37.0073 31.4237L27.171 21.5874H21.6587V27.0997L30.161 35.6021L31.495 36.9361ZM7.89699 34.1972C7.82608 39.2418 15.7879 39.2418 15.6787 34.1972V11.753C15.7515 9.23067 13.0854 7.24883 10.6723 8.00592C10.5631 8.04233 10.4557 8.07683 10.3848 8.11325C8.87066 8.69017 7.82608 10.2024 7.86058 11.8239V34.1972H7.89699ZM34.232 15.6438C39.2767 15.7147 39.2767 7.78933 34.232 7.86217H20.8671C21.8752 9.98775 21.6242 13.3381 21.6587 15.6438H34.232Z" fill="black"/>
<g clip-path="url(#clip0_522_405)">
<path fill-rule="evenodd" clip-rule="evenodd" d="M57 12.995H62.1375L62.6325 15.656C63.6225 13.5515 65.7885 12.5 68.0775 12.5C69.1062 12.5091 70.1243 12.7085 71.0805 13.088L69.873 19.2455C68.9622 18.7144 67.9258 18.4368 66.8715 18.4415C64.7985 18.4415 63.096 19.8335 63.096 22.9595V32.8925H57V12.995ZM73.185 25.4975V12.872H79.3725V24.35C79.3725 26.6705 80.703 27.9095 82.653 27.9095C84.633 27.9095 86.3355 26.393 86.3355 23.0495V12.9035H92.5245V32.8325H87.357L86.676 30.2015C85.686 31.7795 83.271 33.296 80.271 33.296C76.2165 33.266 73.1835 30.728 73.1835 25.499L73.185 25.4975ZM95.7105 12.995H100.817L101.498 15.626C102.458 14.0465 104.84 12.5315 107.81 12.5315C111.74 12.5315 114.71 15.0365 114.71 20.267V32.924H108.615V21.536C108.615 19.184 107.409 17.915 105.398 17.915C103.541 17.915 101.838 19.4315 101.838 22.8665V32.954H95.742L95.712 12.995H95.7105ZM116.072 12.872H122.168L125.789 26.456L129.006 17.513L127.428 12.872H133.494L137.424 26.456L140.919 12.872H147.048L140.55 32.924H134.3L131.607 24.9395L128.823 32.924H122.603L116.072 12.872ZM147.389 22.898C147.389 16.058 152.339 12.5315 156.888 12.5315C159.672 12.5315 161.684 13.6445 162.675 14.7905L163.23 12.995H168.863V32.7995H163.511L162.675 30.8495C161.84 31.8395 160.044 33.2645 156.609 33.2645C151.689 33.2645 147.389 29.2415 147.389 22.898ZM162.891 22.898C162.891 19.679 160.818 17.699 158.187 17.699C155.526 17.699 153.485 19.709 153.485 22.898C153.485 26.084 155.526 28.0955 158.187 28.0955C160.818 28.0955 162.891 26.1155 162.891 22.898ZM175.208 41L178.583 31.871L170.565 12.872H177.126L181.581 25.28L185.604 12.872H192.009L181.461 41H175.211H175.208Z" fill="black"/>
</g>
<defs>
<clipPath id="clip0_522_405">
<rect width="141" height="36" fill="white" transform="translate(54 5)"/>
</clipPath>
</defs>
</svg>
