<svg width="46" height="46" viewBox="0 0 46 46" fill="none" xmlns="http://www.w3.org/2000/svg">
<path d="M13.8439 40.25C21.9936 40.25 27.2951 35.995 27.2951 29.5933C27.2951 24.6292 24.0713 21.4743 18.3059 20.1672L14.6068 19.0728C11.3599 18.354 9.46434 17.4915 9.91092 15.2873C10.2828 13.4531 11.3925 12.4181 13.9781 12.4181C22.191 12.4181 25.2347 15.2873 25.2347 15.2873V8.38733C25.2347 8.38733 22.2715 5.75 13.9781 5.75C6.15809 5.75 1.9165 9.7175 1.9165 15.8566C1.9165 20.8207 4.85667 23.7092 10.8194 25.0796L11.4596 25.2387C12.3662 25.5147 13.5909 25.8807 15.1319 26.335C18.1794 27.0537 18.9633 27.8166 18.9633 30.1032C18.9633 32.1923 16.7592 33.3807 13.8458 33.3807C5.44509 33.3807 1.9165 29.1927 1.9165 29.1927V36.8383C1.9165 36.8383 4.1245 40.25 13.8439 40.25Z" fill="url(#paint0_linear_521_328)"/>
<path d="M39.05 39.7325C41.9345 39.7325 44.0831 37.6759 44.0831 34.891C44.0831 32.0467 41.9959 30.0495 39.05 30.0495C36.1654 30.0495 34.0781 32.0467 34.0781 34.891C34.0781 37.7353 36.1654 39.7325 39.05 39.7325Z" fill="#E80000"/>
<defs>
<linearGradient id="paint0_linear_521_328" x1="1270.85" y1="5.75" x2="1270.85" y2="3455.75" gradientUnits="userSpaceOnUse">
<stop stop-color="#9D39FF"/>
<stop offset="1" stop-color="#A380FF"/>
</linearGradient>
</defs>
</svg>
