<svg width="46" height="46" viewBox="0 0 46 46" fill="none" xmlns="http://www.w3.org/2000/svg">
<path opacity="0.2" fill-rule="evenodd" clip-rule="evenodd" d="M33.3209 21.5241C35.6669 21.5241 37.9167 20.5922 39.5756 18.9334C41.2344 17.2745 42.1663 15.0247 42.1663 12.6787C42.1663 10.3328 41.2344 8.08291 39.5756 6.42408C37.9167 4.76524 35.6669 3.83331 33.3209 3.83331C30.975 3.83331 28.7251 4.76524 27.0663 6.42408C25.4074 8.08291 24.4755 10.3328 24.4755 12.6787C24.4755 15.0247 25.4074 17.2745 27.0663 18.9334C28.7251 20.5922 30.975 21.5241 33.3209 21.5241ZM33.3209 42.1666C35.6669 42.1666 37.9167 41.2347 39.5756 39.5759C41.2344 37.917 42.1663 35.6672 42.1663 33.3212C42.1663 30.9753 41.2344 28.7254 39.5756 27.0666C37.9167 25.4077 35.6669 24.4758 33.3209 24.4758C30.975 24.4758 28.7251 25.4077 27.0663 27.0666C25.4074 28.7254 24.4755 30.9753 24.4755 33.3212C24.4755 35.6672 25.4074 37.917 27.0663 39.5759C28.7251 41.2347 30.975 42.1666 33.3209 42.1666ZM12.6784 42.1666C15.0244 42.1666 17.2742 41.2347 18.9331 39.5759C20.5919 37.917 21.5238 35.6672 21.5238 33.3212C21.5238 30.9753 20.5919 28.7254 18.9331 27.0666C17.2742 25.4077 15.0244 24.4758 12.6784 24.4758C10.3325 24.4758 8.08261 25.4077 6.42377 27.0666C4.76493 28.7254 3.83301 30.9753 3.83301 33.3212C3.83301 35.6672 4.76493 37.917 6.42377 39.5759C8.08261 41.2347 10.3325 42.1666 12.6784 42.1666Z" fill="black"/>
<path d="M12.6784 21.5241C17.5636 21.5241 21.5238 17.5639 21.5238 12.6787C21.5238 7.79354 17.5636 3.83331 12.6784 3.83331C7.79324 3.83331 3.83301 7.79354 3.83301 12.6787C3.83301 17.5639 7.79324 21.5241 12.6784 21.5241Z" fill="#0F6FFF"/>
</svg>
