<svg width="150" height="46" viewBox="0 0 150 46" fill="none" xmlns="http://www.w3.org/2000/svg">
<g clip-path="url(#clip0_521_383)">
<path d="M22.9827 45.0474C22.9203 45.0464 22.8584 45.058 22.8007 45.0816C22.743 45.1052 22.6906 45.1403 22.6469 45.1848C22.6031 45.2292 22.5689 45.2821 22.5462 45.3402C22.5236 45.3983 22.513 45.4604 22.515 45.5228C22.5127 45.5853 22.5231 45.6476 22.5456 45.7059C22.5682 45.7643 22.6024 45.8174 22.6462 45.8621C22.6899 45.9067 22.7424 45.942 22.8002 45.9657C22.8581 45.9894 22.9202 46.0011 22.9827 46C23.0454 46.0014 23.1077 45.9899 23.1658 45.9663C23.2239 45.9427 23.2765 45.9075 23.3205 45.8628C23.3645 45.8181 23.3989 45.7649 23.4215 45.7064C23.4442 45.6479 23.4547 45.5854 23.4523 45.5228C23.4561 45.4048 23.4145 45.2899 23.336 45.2018C23.2576 45.1137 23.1482 45.0591 23.0306 45.0494L22.9827 45.0474ZM18.536 10.2829C19.357 10.5459 20.0399 11.124 20.4349 11.8902C20.8299 12.6564 20.9045 13.5481 20.6425 14.3693L20.5064 14.6989L20.4757 14.7756L20.4412 14.8791C20.307 15.1858 20.2419 15.4924 20.2419 15.8336C20.1748 17.1944 21.1427 18.285 22.515 18.3521H23.2165C25.7255 18.4537 27.6977 20.6004 27.598 23.1879C27.4984 25.7409 25.39 27.7495 22.8485 27.6479H22.515C21.1446 27.6824 20.0732 28.8746 20.1403 30.2699C20.1403 30.5076 20.1748 30.7108 20.2419 30.9159C20.6425 31.6308 21.2769 32.177 22.0819 32.4492C23.5194 32.89 24.9895 32.2096 25.7235 30.9504L25.758 30.8833C26.5285 29.6566 28.0005 29.0433 29.438 29.5205C31.0749 30.0649 32.0792 31.8704 31.5445 33.6739C31.4221 34.0742 31.222 34.4465 30.9556 34.7694C30.6892 35.0923 30.3618 35.3594 29.992 35.5556C29.6223 35.7518 29.2175 35.8731 28.8007 35.9127C28.384 35.9522 27.9636 35.9092 27.5635 35.7861C26.8439 35.5466 26.2296 35.065 25.8251 34.4234L25.7925 34.3563C25.4092 33.7372 24.9051 33.2446 24.1615 32.9935L24.0541 32.959C23.3609 32.7264 22.6084 32.7418 21.9252 33.0026C21.2421 33.2634 20.6708 33.7534 20.309 34.3889C20.0859 34.7587 19.7899 35.0793 19.439 35.331C19.088 35.5828 18.6895 35.7604 18.2677 35.8532C17.4373 36.0311 16.5703 35.8731 15.856 35.4138C15.1417 34.9545 14.6382 34.2311 14.4555 33.4018C14.0549 31.6653 15.0918 29.8943 16.8647 29.486C17.0511 29.445 17.2412 29.4225 17.432 29.4189H17.4665C18.7699 29.2829 19.6726 28.2268 19.6055 26.864C19.5895 26.389 19.4386 25.9283 19.1705 25.5358C18.6777 24.7277 18.4337 23.7925 18.469 22.8467C18.4911 22.026 18.7334 21.2263 19.1705 20.5314C19.4388 20.1576 19.573 19.6804 19.6055 19.2031C19.64 17.8423 18.6357 16.7862 17.3324 16.6501L17.1982 16.6156C17.0029 16.5916 16.8108 16.5466 16.6251 16.4814L16.5293 16.445C15.7355 16.1606 15.083 15.5794 14.7087 14.8238C14.3345 14.0682 14.2678 13.197 14.5225 12.3932C14.778 11.5833 15.3432 10.9071 16.0949 10.5118C16.8466 10.1166 17.724 10.0343 18.536 10.2829ZM7.85063 29.6604C8.34896 29.1544 9.07538 28.957 9.75579 29.1429C10.4362 29.3269 10.969 29.8694 11.1511 30.5613C11.3332 31.2551 11.1377 31.9949 10.6394 32.5029C9.86888 33.2887 8.62113 33.2887 7.85063 32.5029C7.48043 32.1228 7.27326 31.6132 7.27326 31.0826C7.27326 30.552 7.48043 30.0405 7.85063 29.6604ZM36.3035 29.0969C36.9916 28.9244 37.718 29.1429 38.2049 29.6662C38.6917 30.1914 38.8642 30.9408 38.6591 31.6308C38.454 32.3208 37.9001 32.8459 37.2101 33.0069C36.154 33.2523 35.1018 32.5853 34.8526 31.51C34.7303 30.9977 34.8138 30.4578 35.085 30.0063C35.3563 29.5548 35.7938 29.2295 36.3035 29.0969ZM36.1809 20.6828C36.7827 21.2961 37.12 22.126 37.12 22.9943C37.12 23.8606 36.7827 24.6924 36.1809 25.3058C35.5771 25.9191 34.7625 26.2641 33.9096 26.2641C33.0586 26.2641 32.2421 25.9191 31.6403 25.3058C31.0371 24.6875 30.6995 23.858 30.6995 22.9943C30.6995 22.1305 31.0371 21.301 31.6403 20.6828C31.9356 20.3797 32.2887 20.1389 32.6786 19.9744C33.0685 19.81 33.4874 19.7252 33.9106 19.7252C34.3338 19.7252 34.7527 19.81 35.1426 19.9744C35.5325 20.1389 35.8855 20.3797 36.1809 20.6828ZM14.6318 20.9952C15.3295 21.9229 15.4885 23.1572 15.0496 24.2363C14.8934 24.6301 14.6603 24.9889 14.364 25.2917C14.0676 25.5945 13.714 25.8352 13.3236 25.9999C12.9333 26.1646 12.514 26.2498 12.0903 26.2508C11.6667 26.2517 11.2471 26.1683 10.856 26.0054C9.21721 25.3154 8.44096 23.4025 9.11754 21.735C9.32927 21.2081 9.67659 20.7465 10.1243 20.3971C10.572 20.0477 11.1041 19.8229 11.6667 19.7455C12.8033 19.5922 13.9341 20.0694 14.6318 20.9952ZM36.7597 12.9049C37.465 12.9049 38.1167 13.2883 38.4694 13.9093C38.822 14.5303 38.822 15.2969 38.4694 15.9179C38.2989 16.2218 38.0508 16.4749 37.7504 16.6514C37.45 16.8278 37.1081 16.9213 36.7597 16.9223C35.671 16.9223 34.7855 16.0214 34.7855 14.9136C34.7855 13.8039 35.671 12.9049 36.7597 12.9049ZM9.24021 12.9049C9.94554 12.9049 10.5953 13.2883 10.948 13.9093C11.3006 14.5303 11.3006 15.2969 10.948 15.9179C10.7777 16.2215 10.5298 16.4744 10.2298 16.6509C9.92977 16.8273 9.58828 16.921 9.24021 16.9223C8.14963 16.9223 7.26604 16.0214 7.26604 14.9136C7.26604 13.8039 8.14963 12.9049 9.24021 12.9049ZM28.4663 10.0779C30.2392 10.0779 31.6767 11.5422 31.6767 13.3477C31.6767 15.1532 30.2392 16.6156 28.4663 16.6156C26.6934 16.6156 25.2578 15.1532 25.2578 13.3477C25.2578 11.5422 26.6953 10.0779 28.4663 10.0779ZM23.4331 8.76686C24.127 8.6097 24.6847 8.08453 24.8917 7.3907C24.994 7.051 25.0057 6.69048 24.9257 6.34487C24.8456 5.99926 24.6767 5.68056 24.4355 5.42036C24.1973 5.16359 23.8943 4.97574 23.5584 4.87658C23.2225 4.77742 22.866 4.77061 22.5265 4.85686C21.4781 5.1252 20.838 6.19853 21.0852 7.26611C21.3344 8.33561 22.379 9.00453 23.4331 8.76686ZM23.4331 41.1125C24.1212 40.9458 24.6675 40.4225 24.8706 39.7325C24.9699 39.3955 24.9803 39.0384 24.9007 38.6962C24.8211 38.3539 24.6542 38.0381 24.4164 37.7794C24.1814 37.5241 23.8826 37.336 23.5508 37.2346C23.2189 37.1332 22.866 37.1221 22.5285 37.2025C22.185 37.2816 21.8688 37.4505 21.6122 37.692C21.3555 37.9334 21.1677 38.2388 21.068 38.5768C20.861 39.2687 21.0354 40.0219 21.526 40.5471C21.9956 41.0512 22.6875 41.2697 23.3526 41.1317L23.435 41.1125H23.4331ZM32.9475 6.70836C33.1073 6.70762 33.2653 6.67521 33.4125 6.61302C33.5597 6.55083 33.6932 6.46008 33.8051 6.34602C33.917 6.23195 34.0052 6.09684 34.0646 5.94849C34.124 5.80014 34.1534 5.64148 34.1511 5.4817C34.1511 4.80128 33.6164 4.25503 32.9475 4.25503C32.7877 4.25577 32.6296 4.28818 32.4824 4.35037C32.3352 4.41257 32.2018 4.50332 32.0898 4.61738C31.9779 4.73144 31.8897 4.86655 31.8303 5.0149C31.7709 5.16326 31.7415 5.32191 31.7438 5.4817C31.7438 6.16211 32.2805 6.70836 32.9475 6.70836ZM13.0525 6.70836C13.2123 6.70762 13.3703 6.67521 13.5175 6.61302C13.6647 6.55083 13.7982 6.46008 13.9101 6.34602C14.022 6.23195 14.1102 6.09684 14.1696 5.94849C14.229 5.80014 14.2584 5.64148 14.2561 5.4817C14.2561 4.80128 13.7195 4.25503 13.0525 4.25503C12.8927 4.25577 12.7346 4.28818 12.5874 4.35037C12.4402 4.41257 12.3068 4.50332 12.1948 4.61738C12.0829 4.73144 11.9947 4.86655 11.9353 5.0149C11.8759 5.16326 11.8465 5.32191 11.8488 5.4817C11.8488 6.16211 12.3835 6.70836 13.0525 6.70836ZM3.12029 21.758C2.96049 21.7588 2.80242 21.7912 2.65522 21.8534C2.50802 21.9156 2.3746 22.0063 2.26268 22.1204C2.15076 22.2344 2.06255 22.3695 2.00315 22.5179C1.94375 22.6663 1.91435 22.8249 1.91663 22.9847C1.91663 23.6632 2.45329 24.2094 3.12029 24.2094C3.43173 24.2082 3.73065 24.0866 3.95459 23.8702C4.17853 23.6538 4.31018 23.3592 4.32204 23.0479L4.32396 22.9828C4.32916 22.8222 4.30175 22.6623 4.24339 22.5126C4.18504 22.363 4.09695 22.2267 3.98444 22.112C3.87194 21.9974 3.73736 21.9067 3.58883 21.8456C3.4403 21.7844 3.28091 21.754 3.12029 21.7561V21.758ZM13.0525 39.2572C12.8927 39.2579 12.7346 39.2903 12.5874 39.3525C12.4402 39.4147 12.3068 39.5055 12.1948 39.6195C12.0829 39.7336 11.9947 39.8687 11.9353 40.0171C11.8759 40.1654 11.8465 40.3241 11.8488 40.4839C11.8488 41.1643 12.3835 41.7105 13.0525 41.7105C13.2123 41.7098 13.3703 41.6774 13.5175 41.6152C13.6647 41.553 13.7982 41.4622 13.9101 41.3482C14.022 41.2341 14.1102 41.099 14.1696 40.9507C14.229 40.8023 14.2584 40.6436 14.2561 40.4839C14.2561 39.8034 13.7195 39.2572 13.0525 39.2572ZM32.9475 39.2917C32.7877 39.2924 32.6296 39.3248 32.4824 39.387C32.3352 39.4492 32.2018 39.54 32.0898 39.654C31.9779 39.7681 31.8897 39.9032 31.8303 40.0516C31.7709 40.1999 31.7415 40.3586 31.7438 40.5184C31.7438 41.1988 32.2805 41.745 32.9475 41.745C33.1073 41.7443 33.2653 41.7119 33.4125 41.6497C33.5597 41.5875 33.6932 41.4967 33.8051 41.3827C33.917 41.2686 34.0052 41.1335 34.0646 40.9852C34.124 40.8368 34.1534 40.6781 34.1511 40.5184C34.1511 39.8379 33.6164 39.2917 32.9475 39.2917ZM42.8796 21.758C42.7198 21.7588 42.5618 21.7912 42.4146 21.8534C42.2674 21.9156 42.1339 22.0063 42.022 22.1204C41.9101 22.2344 41.8219 22.3695 41.7625 22.5179C41.7031 22.6663 41.6737 22.8249 41.676 22.9847C41.676 23.6632 42.2107 24.2094 42.8796 24.2094C43.0394 24.2087 43.1975 24.1763 43.3447 24.1141C43.4919 24.0519 43.6253 23.9612 43.7372 23.8471C43.8492 23.733 43.9374 23.5979 43.9968 23.4496C44.0562 23.3012 44.0856 23.1426 44.0833 22.9828C44.0833 22.3024 43.5466 21.7561 42.8796 21.7561V21.758ZM42.1436 12.19C42.2062 12.1911 42.2683 12.1794 42.3261 12.1557C42.384 12.132 42.4364 12.0967 42.4802 12.0521C42.5239 12.0074 42.5581 11.9543 42.5807 11.8959C42.6032 11.8376 42.6137 11.7753 42.6113 11.7128C42.6137 11.6503 42.6032 11.588 42.5807 11.5296C42.5581 11.4713 42.5239 11.4182 42.4802 11.3735C42.4364 11.3288 42.384 11.2936 42.3261 11.2698C42.2683 11.2461 42.2062 11.2344 42.1436 11.2355C42.0811 11.2344 42.019 11.2461 41.9611 11.2698C41.9033 11.2936 41.8509 11.3288 41.8071 11.3735C41.7633 11.4182 41.7291 11.4713 41.7066 11.5296C41.684 11.588 41.6736 11.6503 41.676 11.7128C41.676 11.9849 41.9098 12.19 42.1436 12.19ZM22.9827 0.952613C23.0452 0.953951 23.1074 0.942527 23.1653 0.919039C23.2233 0.89555 23.2758 0.860491 23.3198 0.816002C23.3637 0.771514 23.3982 0.718532 23.4209 0.660293C23.4437 0.602054 23.4544 0.539781 23.4523 0.47728C23.4547 0.414456 23.4441 0.351811 23.4214 0.293214C23.3986 0.234616 23.364 0.18131 23.3199 0.136586C23.2757 0.0918623 23.2228 0.0566706 23.1645 0.0331837C23.1062 0.00969676 23.0436 -0.00158666 22.9808 3.00659e-05C22.9183 -0.00105659 22.8562 0.0106186 22.7983 0.034342C22.7404 0.0580655 22.688 0.093339 22.6443 0.138007C22.6005 0.182675 22.5663 0.235799 22.5437 0.294133C22.5212 0.352467 22.5108 0.414785 22.5131 0.47728C22.5131 0.732197 22.7201 0.929613 22.9405 0.950697L22.9808 0.952613H22.9827ZM3.85438 12.19C3.91707 12.1914 3.97937 12.1799 4.03746 12.1563C4.09555 12.1327 4.1482 12.0975 4.19218 12.0528C4.23616 12.0081 4.27053 11.9549 4.2932 11.8964C4.31586 11.8379 4.32633 11.7754 4.32396 11.7128C4.32632 11.6503 4.3159 11.588 4.29336 11.5296C4.27081 11.4713 4.23661 11.4182 4.19284 11.3735C4.14907 11.3288 4.09665 11.2936 4.03878 11.2698C3.98092 11.2461 3.91882 11.2344 3.85629 11.2355C3.79376 11.2344 3.73167 11.2461 3.67381 11.2698C3.61594 11.2936 3.56352 11.3288 3.51975 11.3735C3.47598 11.4182 3.44178 11.4713 3.41923 11.5296C3.39669 11.588 3.38627 11.6503 3.38863 11.7128C3.38627 11.7753 3.39669 11.8376 3.41923 11.8959C3.44178 11.9543 3.47598 12.0074 3.51975 12.0521C3.56352 12.0967 3.61594 12.132 3.67381 12.1557C3.73167 12.1794 3.79376 12.1911 3.85629 12.19H3.85438ZM3.85438 33.7774C3.79217 33.7766 3.73045 33.7884 3.67295 33.8122C3.61544 33.8359 3.56334 33.871 3.51981 33.9155C3.47627 33.9599 3.4422 34.0127 3.41965 34.0707C3.3971 34.1287 3.38655 34.1906 3.38863 34.2528C3.38627 34.3153 3.39669 34.3776 3.41923 34.4359C3.44178 34.4943 3.47598 34.5474 3.51975 34.5921C3.56352 34.6367 3.61594 34.672 3.67381 34.6957C3.73167 34.7194 3.79376 34.7311 3.85629 34.73C3.91882 34.7311 3.98092 34.7194 4.03878 34.6957C4.09665 34.672 4.14907 34.6367 4.19284 34.5921C4.23661 34.5474 4.27081 34.4943 4.29336 34.4359C4.3159 34.3776 4.32632 34.3153 4.32396 34.2528C4.32205 34.1286 4.2724 34.01 4.18532 33.9215C4.09823 33.8329 3.9804 33.7814 3.85629 33.7774H3.85438ZM42.1781 33.7429C42.1156 33.7416 42.0535 33.753 41.9955 33.7765C41.9376 33.8 41.885 33.8351 41.841 33.8796C41.7971 33.924 41.7627 33.977 41.7399 34.0353C41.7171 34.0935 41.7064 34.1558 41.7085 34.2183C41.7059 34.2811 41.7162 34.3438 41.7387 34.4025C41.7613 34.4612 41.7956 34.5146 41.8396 34.5595C41.8836 34.6044 41.9364 34.6398 41.9946 34.6636C42.0528 34.6873 42.1153 34.6988 42.1781 34.6974C42.2408 34.6985 42.3031 34.6868 42.3611 34.663C42.4191 34.6391 42.4716 34.6037 42.5154 34.5588C42.5592 34.5139 42.5934 34.4606 42.6158 34.402C42.6382 34.3435 42.6484 34.2809 42.6458 34.2183C42.6439 34.0941 42.5942 33.9755 42.5072 33.887C42.4201 33.7984 42.3022 33.7469 42.1781 33.7429Z" fill="#3859FF"/>
</g>
<path fill-rule="evenodd" clip-rule="evenodd" d="M148.5 10.1075H144.495V35.8925H148.5V10.1075ZM138.531 10.1075L142.671 35.8925H138.621L138.176 32.978L137.952 31.5875C137.907 31.3175 137.551 31.094 137.151 31.094H133.68C133.279 31.094 132.924 31.319 132.879 31.5875L132.657 32.978L132.211 35.8925H128.52L132.615 10.1075H138.531ZM135.372 15.803C135.105 15.803 134.881 16.028 134.838 16.3415L133.458 27.596C133.458 27.821 133.635 28.046 133.858 28.046H136.929C137.151 28.046 137.329 27.866 137.284 27.596L135.905 16.3415C135.86 16.0265 135.639 15.803 135.372 15.803ZM119.885 24.053C120.143 24.052 120.398 24.0002 120.636 23.9006C120.874 23.8009 121.09 23.6553 121.272 23.4722C121.454 23.289 121.597 23.0718 121.695 22.833C121.793 22.5943 121.843 22.3385 121.842 22.0805C121.843 21.8225 121.793 21.5667 121.695 21.328C121.597 21.0892 121.454 20.872 121.272 20.6888C121.09 20.5057 120.874 20.3601 120.636 20.2604C120.398 20.1608 120.143 20.109 119.885 20.108C119.626 20.1088 119.371 20.1604 119.133 20.26C118.894 20.3596 118.678 20.5051 118.496 20.6883C118.314 20.8715 118.17 21.0887 118.072 21.3276C117.974 21.5665 117.925 21.8223 117.926 22.0805C117.926 23.138 118.751 24.0005 119.789 24.0515L119.885 24.0545V24.053ZM108.891 25.5335V38H106.221V36.8345H97.455V38H94.875V25.535H108.893L108.891 25.5335ZM60.204 8L62.697 8.225C62.5048 8.96028 62.2205 9.66837 61.851 10.3325H69.2835V12.6635H65.679C65.679 12.9785 65.634 13.4255 65.589 13.964L65.586 15.074C65.5785 15.9245 65.5575 16.913 65.5005 17.0585H70.0395V19.3895H65.19C65.9475 19.9745 67.149 20.78 68.706 21.857C69.285 22.2155 69.6855 22.529 69.951 22.664L68.484 24.995H78.7635V37.91H76.0035V36.6095H62.9205V37.91H60.2505V25.085C59.7165 25.31 59.1375 25.6235 58.6035 26.027C58.1312 25.1764 57.6114 24.3531 57.0465 23.561C59.895 22.394 61.719 20.96 62.3865 19.346H57.222V17.0135H62.874C63.009 16.2515 63.0975 13.6055 63.0975 12.6635H60.6045C60.053 13.5608 59.3958 14.3887 58.647 15.1295C58.4685 14.9945 58.335 14.771 58.113 14.5475C57.978 14.2775 57.6225 13.874 57 13.247C58.4947 11.7972 59.5971 9.99188 60.204 8ZM91.179 19.6145V32.1695L91.3725 31.9445C91.4208 31.8894 91.4703 31.8354 91.521 31.7825L91.5795 31.7225C92.4255 30.8705 93.0045 30.197 93.315 29.7035C93.4935 30.5105 93.627 31.5875 93.849 32.978C91.8915 34.772 90.423 36.341 89.4435 37.6415L87.7965 35.0855C88.2855 34.6355 88.509 33.92 88.509 32.888V22.529H86.328V19.6145H91.179ZM106.221 32.3045H97.455V34.637H106.222L106.221 32.3045ZM76.0035 31.991H62.919V34.547H76.0035V31.991ZM106.221 27.866H97.455V30.332H106.222L106.221 27.866ZM76.0035 27.416H62.919V29.8835H76.0035V27.416ZM64.0755 21.365C63.453 22.5755 62.2515 23.786 60.3825 24.9515H68.4825L67.4715 24.1145C66.804 23.5655 66.006 22.9145 65.1 22.172L64.809 21.914C64.527 21.668 64.2765 21.4655 64.0755 21.365ZM95.985 8.63L98.478 8.045L98.604 8.231C98.778 8.4935 98.9805 8.8235 99.228 9.203L99.636 9.824C100.098 10.5335 100.439 11.084 100.659 11.4545H103.15C103.901 10.3763 104.585 9.25323 105.198 8.0915L107.778 8.6735C107.601 8.8085 107.468 9.0785 107.246 9.482L106.983 9.896C106.762 10.241 106.427 10.766 105.999 11.4545H110.538V13.652H105.243V21.23H111.206V23.4275H92.4705V21.23H98.2545V13.6055H93.405V11.408H97.722L97.269 10.628C96.699 9.6605 96.2715 8.987 95.9865 8.6285L95.985 8.63ZM80.631 10.109V22.979H71.0625V10.109H80.631ZM103.017 13.607H100.659V21.23H103.017V13.607ZM78.1845 12.71H73.5555V20.558H78.1845V12.71ZM93.315 16.385L95.0505 15.0845L95.283 15.362C95.5455 15.6815 95.8965 16.127 96.297 16.7C96.876 17.372 97.2765 17.9105 97.542 18.314L95.6745 19.7495L95.505 19.4855C94.8038 18.4319 94.0736 17.398 93.315 16.385ZM108.624 15.041L110.493 16.3415L110.406 16.484C110.118 16.9445 109.617 17.6495 108.936 18.539L108.632 18.995C108.472 19.2464 108.291 19.4837 108.092 19.7045L106.266 18.314L106.893 17.504C107.717 16.433 108.302 15.62 108.624 15.041ZM87.039 10.1075L89.088 8.717L89.571 9.332C90.3705 10.352 91.314 11.6015 92.3805 13.157L90.0225 14.771L89.8875 14.543C89.5725 14.021 89.0745 13.253 88.395 12.242L88.2855 12.08C87.8498 11.4358 87.4346 10.778 87.0405 10.1075H87.039Z" fill="black"/>
<defs>
<clipPath id="clip0_521_383">
<rect width="46" height="46" fill="white"/>
</clipPath>
</defs>
</svg>
