<svg width="207" height="46" viewBox="0 0 207 46" fill="none" xmlns="http://www.w3.org/2000/svg">
<g clip-path="url(#clip0_266_385)">
<path d="M42.2338 26.4616C41.9827 26.3966 41.7663 26.2376 41.6293 26.0174C41.4923 25.7973 41.4452 25.5329 41.4978 25.279C43.8495 14.4843 37.2811 3.60148 26.4615 0.71306C15.3333 -2.25777 3.84867 4.33173 0.839505 15.4081L0.835672 15.4273L0.826089 15.458C-1.00433 22.3254 0.222338 29.5225 4.30101 35.468C7.15736 39.6169 11.2342 42.774 15.9658 44.5012C29.1659 49.3082 43.3799 42.1054 47.5813 29.2292C47.6326 29.0699 47.651 28.9017 47.6352 28.735C47.6194 28.5683 47.5698 28.4066 47.4895 28.2597C47.4091 28.1128 47.2997 27.9838 47.1678 27.8806C47.036 27.7774 46.8845 27.7022 46.7226 27.6595L42.2338 26.4616ZM20.3071 36.9208C18.3146 36.3968 16.4459 35.4827 14.8091 34.2315C13.1724 32.9804 11.8001 31.4169 10.7717 29.6317C9.73683 27.8579 9.06497 25.8961 8.79516 23.8603C8.52534 21.8245 8.66296 19.7554 9.20001 17.7733C10.9921 11.1781 17.8288 7.25081 24.4567 9.02181C30.7529 10.7027 34.6323 16.9204 33.5033 23.1994C33.45 23.4841 33.506 23.7784 33.6602 24.0236C33.8144 24.2688 34.0555 24.4467 34.3352 24.5219L38.5633 25.6508C39.1 25.7946 39.4009 26.36 39.2227 26.8813C36.5777 34.5959 28.3168 39.0636 20.3052 36.9246L20.3071 36.9208Z" fill="url(#paint0_linear_266_385)"/>
<path fill-rule="evenodd" clip-rule="evenodd" d="M165.211 18.5859H163.492C163.204 18.5859 162.993 18.3808 162.999 18.0933L163.037 15.7856C163.037 15.4981 163.242 15.2931 163.53 15.2931H165.479L165.966 9.43572C166.01 9.14822 166.215 8.98147 166.503 8.98147H175.697L176.324 7.41555C176.406 7.16638 176.573 6.99963 176.86 6.99963H179.992C180.37 6.99963 180.529 7.24305 180.408 7.57463L179.847 8.97572H190.722C191.009 8.97572 191.212 9.1808 191.212 9.4683V15.2854H193.317C193.604 15.2854 193.809 15.4905 193.809 15.778L193.725 18.0856C193.725 18.3731 193.522 18.5782 193.233 18.5782H191.212V19.6075C191.212 22.0819 189.186 24.4356 186.507 24.4356H185.516C185.394 24.437 185.275 24.4025 185.172 24.3364C185.07 24.2702 184.99 24.1754 184.941 24.0637L183.619 21.3037C183.452 20.9319 183.619 20.7268 183.988 20.7268H185.311C186.507 20.7268 187.007 20.6444 187.128 19.1992V18.5782H179.168L181.066 22.2103C181.232 22.5361 181.066 22.7853 180.696 22.7853H177.64C177.519 22.7869 177.4 22.7527 177.297 22.6869C177.195 22.6211 177.114 22.5267 177.065 22.4154L175.126 18.7009C175.101 18.6627 175.082 18.6214 175.068 18.5782H169.334L168.893 23.943C168.847 24.2305 168.644 24.3972 168.356 24.3972H165.261C164.935 24.3972 164.73 24.2362 164.768 23.9046L165.211 18.5859ZM187.134 15.2854V12.7669C187.136 12.7012 187.124 12.6358 187.1 12.5748C187.075 12.5138 187.038 12.4585 186.992 12.4123C186.945 12.3661 186.889 12.33 186.828 12.3063C186.767 12.2825 186.701 12.2716 186.635 12.2743H179.41L180.887 15.2854H187.134ZM175.308 12.2762H169.859L169.61 15.2854H176.784L175.308 12.2762ZM68.5113 8.5598H75.3595C75.6547 8.5598 75.8578 8.76488 75.8578 9.0658C75.8656 11.2043 75.7132 13.3403 75.4017 15.456C75.2292 16.7497 75.072 17.917 75.072 19.4618C75.072 20.8035 75.2579 22.1375 75.4438 23.4676C75.6278 24.7978 75.8138 26.1261 75.8138 27.4658C75.8138 30.2258 74.2038 31.7553 71.5243 31.7553H69.0038V36.9533C69.0038 37.2408 68.8007 37.4459 68.5113 37.4459H65.5404C65.475 37.4486 65.4098 37.4377 65.3488 37.4139C65.2878 37.3901 65.2324 37.3539 65.1861 37.3076C65.1398 37.2613 65.1036 37.2059 65.0798 37.145C65.056 37.084 65.0451 37.0187 65.0478 36.9533V9.05813C65.0478 8.76488 65.251 8.5598 65.5385 8.5598H68.5113ZM70.4375 28.0351C71.4763 28.0427 71.9766 28.0466 71.9766 26.5056C71.9766 25.3364 71.8022 24.1615 71.6258 22.9866C71.4514 21.8097 71.2751 20.6291 71.2751 19.4484C71.2751 18.3367 71.4495 17.2212 71.6258 16.1076C71.8022 14.9941 71.9785 13.8805 71.9785 12.7669C71.9812 12.7015 71.9703 12.6362 71.9465 12.5752C71.9227 12.5142 71.8865 12.4588 71.8402 12.4126C71.794 12.3663 71.7386 12.3301 71.6776 12.3063C71.6166 12.2825 71.5513 12.2716 71.4859 12.2743H69.0115V28.0351H70.4375ZM157.508 12.3951H133.289C133.224 12.3975 133.159 12.3864 133.098 12.3626C133.038 12.3388 132.983 12.3028 132.937 12.2567C132.89 12.2107 132.854 12.1556 132.831 12.095C132.807 12.0344 132.796 11.9695 132.798 11.9044V9.05813C132.798 8.77063 133.001 8.56747 133.289 8.56747H157.508C157.795 8.56747 158 8.77063 158 9.05813V11.9044C158 12.1919 157.795 12.3951 157.508 12.3951ZM83.697 30.3044C86.0871 30.3044 87.9041 28.3686 87.9041 25.7657V15.4541C87.9071 15.3885 87.8964 15.323 87.8727 15.2618C87.849 15.2006 87.8129 15.145 87.7666 15.0985C87.7202 15.052 87.6648 15.0156 87.6036 14.9917C87.5425 14.9678 87.4771 14.9568 87.4115 14.9596H78.5833C78.5178 14.9566 78.4523 14.9673 78.3911 14.9909C78.3299 15.0146 78.2742 15.0508 78.2277 15.0971C78.1812 15.1434 78.1449 15.1989 78.121 15.26C78.0971 15.3211 78.0861 15.3866 78.0888 15.4521V29.8118C78.0888 30.0993 78.2939 30.3044 78.5814 30.3044H81.1383C81.1574 30.3044 81.1708 30.3006 81.1862 30.2967C81.198 30.2934 81.2103 30.2915 81.2226 30.291C81.2494 30.299 81.2771 30.3035 81.305 30.3044H83.697ZM84.3544 18.8791V25.438C84.3544 26.9272 83.214 26.9061 82.2308 26.887C82.1266 26.8847 82.0225 26.8834 81.9183 26.8831H81.6308V18.3808H83.8561C84.1513 18.3808 84.3544 18.5859 84.3544 18.8791ZM93.9703 8.5598H78.5833C78.5179 8.55709 78.4527 8.56798 78.3917 8.59178C78.3307 8.61558 78.2753 8.65177 78.229 8.69806C78.1827 8.74435 78.1465 8.79974 78.1227 8.86072C78.0989 8.92171 78.088 8.98697 78.0908 9.05238V11.776C78.0908 12.0635 78.2958 12.2686 78.5833 12.2686H89.9319C90.2194 12.2686 90.4245 12.4736 90.4245 12.7611V27.6575C90.4245 31.6595 88.4427 33.7237 85.0598 33.7237H82.7904C82.725 33.721 82.6597 33.7319 82.5988 33.7557C82.5378 33.7795 82.4824 33.8157 82.4361 33.862C82.3898 33.9083 82.3536 33.9637 82.3298 34.0246C82.306 34.0856 82.2951 34.1509 82.2978 34.2163V36.9399C82.2978 37.2274 82.5029 37.4325 82.7904 37.4325H85.0598C91.9904 37.4325 94.4648 32.7711 94.4648 27.6575V9.05813C94.4681 8.99233 94.4576 8.92656 94.4341 8.86502C94.4105 8.80348 94.3744 8.7475 94.3281 8.70064C94.2818 8.65378 94.2263 8.61707 94.165 8.59282C94.1037 8.56858 94.0362 8.55733 93.9703 8.5598ZM191.628 33.6873H193.361C193.648 33.6873 193.859 33.8981 193.859 34.178V36.9859C193.859 37.2734 193.656 37.4765 193.369 37.4765H163.536C163.471 37.479 163.406 37.4679 163.345 37.4441C163.285 37.4203 163.229 37.3843 163.183 37.3382C163.137 37.2922 163.101 37.2371 163.077 37.1765C163.054 37.1159 163.043 37.051 163.045 36.9859V34.178C163.045 33.8905 163.248 33.6854 163.536 33.6854H165.556V26.5899C165.556 26.3024 165.761 26.0973 166.048 26.0973H191.136C191.423 26.0973 191.628 26.3024 191.628 26.5899V33.6873ZM187.544 33.6873V30.3025C187.546 30.2369 187.535 30.1717 187.511 30.1107C187.487 30.0496 187.451 29.9941 187.405 29.9475C187.359 29.9009 187.303 29.8641 187.243 29.8395C187.182 29.8148 187.117 29.8028 187.051 29.8041H183.958V33.6835H187.542L187.544 33.6873ZM176.776 33.6873H180.326V29.8041H176.774V33.6835L176.776 33.6873ZM173.146 29.8118H169.681V33.6931H173.146V29.8118ZM159.528 17.8882H131.391C131.326 17.8855 131.261 17.8964 131.2 17.9202C131.139 17.944 131.083 17.9802 131.037 18.0265C130.991 18.0728 130.955 18.1282 130.931 18.1891C130.907 18.2501 130.896 18.3154 130.899 18.3808V21.2251C130.899 21.5126 131.104 21.7177 131.391 21.7177H138.736L133.904 30.5095C131.966 34.5115 134.025 37.5226 138.774 37.5666L154.081 37.6491C157.508 37.6491 159.695 34.5939 157.878 31.257L155.156 25.643C155.033 25.3555 154.784 25.3115 154.497 25.438L151.773 26.8371C151.524 26.9598 151.44 27.255 151.568 27.5425L153.301 31.0902C154.248 32.7386 153.793 33.8521 152.189 33.8521H139.562C137.663 33.8521 137.126 32.8612 138.163 31.0078L143.225 21.7235H159.536C159.823 21.7235 160.026 21.5203 160.026 21.2328V18.3866C160.029 18.3203 160.018 18.2542 159.995 18.1924C159.971 18.1305 159.934 18.0744 159.887 18.0275C159.84 17.9806 159.784 17.944 159.722 17.92C159.66 17.8961 159.594 17.8852 159.528 17.8882ZM115.343 34.0572H128.008C128.296 34.0572 128.501 34.268 128.501 34.5498V36.984C128.501 37.2715 128.296 37.4765 128.008 37.4765H99.2891C99.224 37.479 99.1591 37.4679 99.0985 37.4441C99.0379 37.4203 98.9828 37.3843 98.9368 37.3382C98.8907 37.2922 98.8546 37.2371 98.8308 37.1765C98.807 37.1159 98.796 37.051 98.7984 36.9859V34.5498C98.7984 34.2623 99.0016 34.0572 99.2891 34.0572H111.22V31.0001H101.522C101.457 31.0028 101.392 30.992 101.331 30.9683C101.27 30.9446 101.215 30.9086 101.168 30.8625C101.122 30.8164 101.086 30.7613 101.062 30.7005C101.038 30.6398 101.027 30.5747 101.029 30.5095V28.0734C101.029 27.7859 101.233 27.5808 101.522 27.5808H111.226V24.7346H103.713C103.701 24.7343 103.689 24.7323 103.678 24.7288C103.667 24.7252 103.655 24.7233 103.644 24.7231C103.625 24.7288 103.605 24.7346 103.586 24.7346H100.529C100.464 24.737 100.399 24.7259 100.339 24.7021C100.278 24.6783 100.223 24.6423 100.177 24.5962C100.131 24.5502 100.095 24.4951 100.071 24.4345C100.047 24.3739 100.036 24.309 100.039 24.2439V9.05813C100.039 8.77063 100.242 8.56747 100.529 8.56747H126.027C126.314 8.56747 126.519 8.77063 126.519 9.05813V20.4451C126.519 22.8811 124.748 24.7346 122.395 24.7346H115.345V27.5808H125.657C125.944 27.5808 126.151 27.7859 126.151 28.0734V30.5076C126.151 30.7951 125.946 31.0001 125.659 31.0001H115.347V34.0572H115.343ZM122.396 18.8734V12.765C122.399 12.6994 122.388 12.6339 122.364 12.5729C122.34 12.5118 122.303 12.4566 122.256 12.4108C122.209 12.365 122.153 12.3297 122.091 12.3072C122.029 12.2846 121.964 12.2754 121.898 12.2801H115.337V14.8369H118.923C119.211 14.8369 119.416 15.042 119.416 15.3295V17.7636C119.416 18.0511 119.211 18.2562 118.923 18.2562H115.337V21.0181H120.248C121.45 21.0181 122.395 20.4815 122.395 18.8715L122.396 18.8734ZM104.079 12.2743V21.0143H111.213V18.2543H107.46C107.394 18.257 107.329 18.2461 107.268 18.2222C107.207 18.1983 107.151 18.1619 107.105 18.1154C107.058 18.0689 107.022 18.0133 106.999 17.9521C106.975 17.8908 106.964 17.8254 106.967 17.7598V15.3256C106.967 15.0381 107.172 14.8331 107.46 14.8331H111.213V12.2743H104.079Z" fill="black"/>
</g>
<defs>
<linearGradient id="paint0_linear_266_385" x1="5.48707e-06" y1="5.99375e-05" x2="50.5348" y2="42.5654" gradientUnits="userSpaceOnUse">
<stop stop-color="#446DFF"/>
<stop offset="1" stop-color="#637DFF" stop-opacity="0.75"/>
</linearGradient>
<clipPath id="clip0_266_385">
<rect width="207" height="46" fill="white"/>
</clipPath>
</defs>
</svg>
