<svg width="46" height="46" viewBox="0 0 46 46" fill="none" xmlns="http://www.w3.org/2000/svg">
<path d="M40.7794 26.3112C40.5371 26.249 40.3281 26.0969 40.1958 25.8863C40.0635 25.6758 40.0181 25.4228 40.0688 25.18C42.3395 14.8545 35.9975 4.4446 25.5508 1.68172C14.8062 -1.16 3.71743 5.14312 0.811983 15.7381L0.808282 15.7565L0.799029 15.7858C-0.968296 22.3548 0.216089 29.239 4.15417 34.9261C6.91207 38.8947 10.8484 41.9146 15.4169 43.5668C28.162 48.1649 41.8861 41.2751 45.9426 28.9585C45.9922 28.8061 46.0099 28.6453 45.9947 28.4858C45.9795 28.3264 45.9316 28.1717 45.854 28.0311C45.7764 27.8906 45.6708 27.7673 45.5435 27.6686C45.4161 27.5698 45.2699 27.4979 45.1136 27.457L40.7794 26.3112ZM19.6086 36.3158C17.6848 35.8146 15.8805 34.9403 14.3001 33.7435C12.7198 32.5466 11.3947 31.0512 10.4018 29.3435C9.40263 27.6469 8.75393 25.7703 8.49342 23.823C8.2329 21.8757 8.36578 19.8965 8.88431 18.0005C10.6146 11.6919 17.2157 7.93533 23.6151 9.62936C29.6943 11.2372 33.44 17.1847 32.3499 23.1908C32.2984 23.4631 32.3525 23.7446 32.5014 23.9791C32.6503 24.2137 32.883 24.3839 33.1531 24.4558L37.2355 25.5356C37.7537 25.6732 38.0443 26.214 37.8721 26.7127C35.3183 34.092 27.3422 38.3655 19.6067 36.3195L19.6086 36.3158Z" fill="url(#paint0_linear_287_22)"/>
<defs>
<linearGradient id="paint0_linear_287_22" x1="0.00141965" y1="0.999707" x2="48.4148" y2="42.1615" gradientUnits="userSpaceOnUse">
<stop stop-color="#446DFF"/>
<stop offset="1" stop-color="#637DFF" stop-opacity="0.75"/>
</linearGradient>
</defs>
</svg>
