<svg width="200" height="46" viewBox="0 0 200 46" fill="none" xmlns="http://www.w3.org/2000/svg">
<path d="M59.6212 1C65.9392 1 71.0902 6.0244 71.3221 12.3093L71.3299 12.7496V33.2504C71.3299 39.5918 66.323 44.7584 60.0576 44.9903L59.6193 45H44.1155L47.856 39.6873L59.1595 36.2117C60.0998 35.912 60.9277 35.3355 61.535 34.5576C62.1422 33.7797 62.5005 32.8365 62.563 31.8516L62.5747 31.5048V14.4952C62.5813 13.5108 62.292 12.5472 61.7441 11.7294C61.1962 10.9116 60.4152 10.2774 59.5024 9.9091L59.1595 9.78636L47.858 6.31078L44.1136 1H59.6173H59.6212ZM28.2143 1L24.4738 6.31078L13.1704 9.78636C12.1733 10.1043 11.304 10.7328 10.6896 11.58C10.0751 12.4271 9.74771 13.4486 9.75519 14.4952V31.5048C9.74782 32.5511 10.0753 33.5723 10.6898 34.4192C11.3042 35.266 12.1734 35.8941 13.1704 36.2117L24.4719 39.6873L28.2143 45H12.7106C6.24259 45 1 39.7399 1 33.2504V12.7496C1 6.26208 6.24065 1 12.7087 1H28.2143ZM157.734 2.16697V25.446H143.902V29.919H158.278V34.4661H143.9V39.2859H159.408V43.8311H123.863V39.2859H139.371V34.4661H124.993V29.919H139.371V25.4479H125.534V2.16697H157.734ZM95.6063 2.16697V6.71406L92.8107 19.1085H95.6063V34.7389C95.6077 35.8886 95.173 36.996 94.3898 37.8378C93.6067 38.6795 92.5334 39.1929 91.3865 39.2743L91.0748 39.2859H88.8091V34.7408L89.8572 34.7389C90.1397 34.7388 90.4133 34.6406 90.6315 34.4612C90.8497 34.2818 90.9988 34.0322 91.0534 33.755L91.0748 33.5641V23.6556H88.2792V19.1085L91.0748 6.71406H86.4284V43.8311H81.8988V2.16697H95.6083H95.6063ZM119.168 2.16697V6.71406H117.524V36.7358C117.526 38.5495 116.833 40.2952 115.587 41.6133C114.341 42.9314 112.637 43.7216 110.826 43.8213L110.45 43.8311H105.809V39.2996H109.257C111.229 39.2996 112.842 37.7722 112.992 35.8337L113.004 35.5415V6.71406H97.4571V2.16697H119.168ZM199.622 19.1085V23.6556H178.033L170.964 39.2859H192.784L189.527 32.1497H194.505L198.337 40.5795C198.471 40.8815 198.565 41.2069 198.565 41.5595C198.565 42.7304 197.682 43.6947 196.546 43.8194L196.299 43.8311H165.985V39.2859L173.053 23.6556H164.078V19.1085H199.622ZM110.029 11.5339V34.9863H98.5851V11.5339H110.029ZM105.501 16.079H103.117V30.4411H105.501V16.0771V16.079ZM47.8833 20.2326V25.5317H24.4504V20.2326H47.8814H47.8833ZM139.809 16.079H130.506V20.9008H139.809V16.0771V16.079ZM153.643 16.079H144.34V20.9008H153.643V16.0771V16.079ZM139.811 6.71406H130.506V11.5339H139.809V6.71406H139.811ZM153.643 6.71406H144.34V11.5339H153.643V6.71406ZM197.951 2.5683V7.11539H165.751V2.5683H197.951Z" fill="#FF6A00"/>
</svg>
