<svg width="188" height="60" viewBox="0 0 188 60" fill="none" xmlns="http://www.w3.org/2000/svg">
<g clip-path="url(#clip0_479_38094)">
<path d="M107.501 28.1234L107.891 16.9047C107.891 15.6596 107.578 14.7904 106.905 14.1742C106.232 13.558 105.392 13.2947 104.099 13.2947H90.4349V16.8741H103.733C104.196 16.8741 104.196 17.03 104.196 17.1681L103.807 27.9189H95.709C95.5547 27.938 95.3986 27.9018 95.2686 27.8166C95.2354 27.7834 95.2379 27.7067 95.2456 27.6453L96.1494 18.6049H92.4498L91.5461 27.832C91.4775 28.338 91.532 28.8532 91.7049 29.3338C91.8778 29.8144 92.164 30.2464 92.5394 30.5932C93.2461 31.24 94.0321 31.4905 95.3429 31.4905H105.525C105.993 31.4905 105.993 31.667 105.993 31.8101V36.0159H91.5896L92.3167 39.5952H105.993V44.6216C105.993 45.0205 105.85 45.0511 105.648 45.0511H93.7914L94.5595 48.6305H105.942C107.235 48.6305 108.131 48.3288 108.758 47.6845C109.427 47.0172 109.698 46.2298 109.698 44.9744V31.5391C109.698 30.2889 109.383 29.4248 108.71 28.8188C108.368 28.4951 107.954 28.2568 107.501 28.1234Z" fill="#3E3A39"/>
<path d="M87.3472 40.1398L88.0026 43.5631L84.1623 43.7779V37.0053H86.1541C87.4496 37.0053 88.2638 36.7496 88.9704 36.1079C89.677 35.4662 89.9535 34.6199 89.9535 33.3825V20.4022C89.9535 19.1648 89.6412 18.2981 88.9678 17.6717C88.2945 17.0453 87.4547 16.7769 86.1516 16.7769H84.1597V13.172H80.4755V16.7769H78.4811C77.1857 16.7769 76.3741 17.0325 75.6649 17.6743C74.9557 18.316 74.6766 19.1571 74.6766 20.4022V33.3825C74.6766 34.6301 74.9915 35.4968 75.6649 36.1104C76.3382 36.724 77.1754 37.0053 78.4811 37.0053H80.4755V43.9748L74.0033 44.3404V47.9197L88.6811 47.0888L88.9729 48.6228H92.716L91.0928 40.1398H87.3472ZM84.1751 20.3511H85.8008C86.2642 20.3511 86.2642 20.5198 86.2642 20.6681V33.114C86.2642 33.2649 86.2642 33.4336 85.8008 33.4336H84.1751V20.3511ZM80.4755 33.4336H78.8549C78.3864 33.4336 78.3864 33.2649 78.3864 33.114V20.6681C78.3864 20.5198 78.3864 20.3511 78.8549 20.3511H80.4781L80.4755 33.4336Z" fill="#3E3A39"/>
<path d="M142.576 22.5575L141.268 13.172H137.443L138.754 22.5575H142.576Z" fill="#3E3A39"/>
<path d="M145.912 30.2429C148.936 23.2401 149.179 14.8287 149.179 14.7597V14.371H145.421V14.7494C145.421 14.8261 145.127 22.5217 142.484 28.6424C141.791 30.2382 140.999 31.7897 140.114 33.2879C139.228 31.7867 138.435 30.2327 137.74 28.6347C135.098 22.514 134.806 14.8287 134.804 14.7494V14.371H131.04V14.7597C131.04 14.8389 131.283 23.2401 134.307 30.2429C135.312 32.5404 136.493 34.7568 137.84 36.8723L130.29 48.4157L128.708 40.1398H125.195L125.874 43.6884L124.368 43.7856V37.0053H126.365C127.658 37.0053 128.472 36.7496 129.181 36.1079C129.891 35.4662 130.167 34.6173 130.167 33.3825V20.4022C130.167 19.1674 129.855 18.3007 129.179 17.6717C128.503 17.0428 127.666 16.7769 126.363 16.7769H124.366V13.172H120.658V16.7769H118.661C117.369 16.7769 116.557 17.0325 115.845 17.6743C115.133 18.316 114.867 19.175 114.867 20.4022V33.3825C114.867 34.6225 115.18 35.4892 115.855 36.1104C116.531 36.7317 117.369 37.0053 118.672 37.0053H120.669V43.9901L114.186 44.3506V47.9299L126.539 47.2269L126.808 48.6305H134.455L134.571 48.4592C134.571 48.4592 136.734 45.2557 140.108 40.2778C143.483 45.248 145.644 48.4592 145.646 48.4592L145.761 48.6305H150.07L142.39 36.8698C143.733 34.7548 144.911 32.5392 145.912 30.2429ZM124.355 20.3511H125.986C126.45 20.3511 126.45 20.5198 126.45 20.6681V33.114C126.45 33.2649 126.45 33.4336 125.986 33.4336H124.355V20.3511ZM120.658 33.4336H119.03C118.562 33.4336 118.562 33.2572 118.562 33.114V20.6681C118.562 20.5198 118.562 20.3511 119.03 20.3511H120.658V33.4336Z" fill="#3E3A39"/>
<path d="M170.096 45.0818C170.04 45.0818 169.985 45.0595 169.945 45.0198C169.905 44.9801 169.882 44.9261 169.881 44.8696V23.6492H164.367V27.1595H166.184V45.3579C166.185 46.2148 166.526 47.0364 167.133 47.6423C167.74 48.2482 168.562 48.5889 169.42 48.5896H187.992V45.0818H170.096Z" fill="#3E3A39"/>
<path d="M159.832 44.8696V36.3329H163.417V32.8226H159.832V27.1621H163.189V23.6518H153.629V27.1621H156.151V32.8226H153.629V36.3329H156.151V45.3605C156.151 46.2174 156.493 47.039 157.099 47.6449C157.706 48.2508 158.529 48.5915 159.387 48.5921H163.629V45.0818H160.045C159.988 45.0818 159.934 45.0595 159.895 45.0197C159.855 44.9799 159.832 44.9259 159.832 44.8696Z" fill="#3E3A39"/>
<path d="M169.733 20.9008L168.291 13.3586H164.548L165.99 20.9008H169.733Z" fill="#3E3A39"/>
<path d="M178.215 43.9339H181.894V39.5236H187.232V36.0133H181.894V31.5468H187.232V28.0365H181.894V22.5575H178.215V28.0365H175.734L177.27 20.1977H187.232V16.6874H177.959L178.612 13.3586H174.866L174.213 16.6874H171.067V20.1977H173.524L171.3 31.5468H172.81H175.045H178.215V36.0133H171.067V39.5236H178.215V43.9339Z" fill="#3E3A39"/>
<path d="M156.673 20.1977H163.586V16.6874H157.354L157.999 13.3586H154.254L152.469 22.5677H156.212L156.673 20.1977Z" fill="#3E3A39"/>
<path d="M24.5015 55.7994C29.8919 57.7523 35.7631 57.951 41.2735 56.3669L41.5475 56.2877C41.7105 56.2392 41.8624 56.1591 41.9945 56.0519C42.1265 55.9448 42.2362 55.8127 42.3171 55.6633C42.3981 55.5138 42.4487 55.3499 42.4663 55.1809C42.4838 55.0119 42.4678 54.8411 42.4192 54.6783C42.3706 54.5154 42.2904 54.3637 42.1831 54.2319C42.0758 54.1 41.9436 53.9905 41.7939 53.9097C41.6443 53.8288 41.4801 53.7782 41.3109 53.7607C41.1416 53.7432 40.9706 53.7592 40.8075 53.8077L40.5515 53.8793C35.5679 55.313 30.2576 55.134 25.3822 53.368C25.2221 53.3089 25.0519 53.2819 24.8813 53.2887C24.7108 53.2955 24.5433 53.3359 24.3884 53.4076C24.2335 53.4792 24.0944 53.5808 23.9789 53.7063C23.8634 53.8318 23.774 53.9789 23.7156 54.1391C23.6572 54.2993 23.6312 54.4694 23.6388 54.6396C23.6465 54.8099 23.6878 54.977 23.7604 55.1313C23.8329 55.2856 23.9353 55.424 24.0616 55.5387C24.1879 55.6533 24.3356 55.7419 24.4963 55.7994H24.5015ZM53.432 49.0523L53.6676 48.7966C58.4638 43.6629 61.0858 36.8755 60.9846 29.8551C60.8835 22.8347 58.067 16.1255 53.1248 11.1317C53.0051 11.0109 52.8627 10.9147 52.7058 10.8488C52.5489 10.7829 52.3806 10.7484 52.2104 10.7475C52.0401 10.7465 51.8714 10.7791 51.7138 10.8433C51.5561 10.9074 51.4127 11.002 51.2917 11.1215C51.1706 11.241 51.0744 11.3832 51.0083 11.5399C50.9423 11.6966 50.9079 11.8647 50.9069 12.0347C50.906 12.2047 50.9385 12.3732 51.0028 12.5306C51.0671 12.688 51.1617 12.8312 51.2814 12.9521C55.7557 17.4714 58.3056 23.5441 58.3972 29.8986C58.4888 36.2531 56.1151 42.3966 51.773 47.0428L51.5605 47.2677C51.3228 47.5159 51.1936 47.8482 51.2013 48.1915C51.209 48.5348 51.3529 48.861 51.6015 49.0983C51.85 49.3356 52.1827 49.4647 52.5265 49.457C52.8703 49.4493 53.1969 49.3056 53.4346 49.0574L53.432 49.0523ZM40.805 3.99861C33.9588 2.17789 26.6716 3.09106 20.4882 6.54456C14.3047 9.99805 9.71103 15.7204 7.68077 22.4987C7.58232 22.8276 7.61871 23.182 7.78196 23.4841C7.94521 23.7861 8.22193 24.0111 8.55125 24.1094C8.88057 24.2077 9.23552 24.1714 9.538 24.0083C9.84049 23.8453 10.0657 23.569 10.1642 23.2401C12.0027 17.1081 16.1589 11.9313 21.7529 8.80605C27.3469 5.68081 33.9393 4.85248 40.1342 6.49648C40.3003 6.54648 40.4748 6.56266 40.6472 6.54405C40.8197 6.52545 40.9867 6.47244 41.1383 6.38817C41.2899 6.3039 41.4229 6.19009 41.5296 6.05349C41.6363 5.91688 41.7145 5.76027 41.7594 5.59294C41.8043 5.42561 41.8151 5.25098 41.7912 5.07939C41.7673 4.90781 41.7091 4.74277 41.6201 4.59407C41.5311 4.44538 41.413 4.31605 41.273 4.21376C41.133 4.11147 40.9739 4.03831 40.805 3.99861Z" fill="#00B6FF"/>
<path d="M44.8934 14.4222V45.9537H47.4869V14.4222H44.8934ZM42.0465 47.9274L14.2603 31.9201L12.9648 34.1623L40.751 50.1696L42.0465 47.9274ZM14.5931 28.4072L42.0465 12.5916L40.751 10.3494L13.2951 26.1676L14.5931 28.4072Z" fill="#1677FF"/>
<path d="M42.7867 14.4861C41.4558 13.7174 40.383 12.5719 39.7039 11.1944C39.0248 9.81696 38.7699 8.26934 38.9714 6.74722C39.1729 5.2251 39.8217 3.79679 40.8359 2.64286C41.8502 1.48892 43.1842 0.661152 44.6694 0.264189C46.1546 -0.132774 47.7244 -0.0811119 49.1802 0.412645C50.636 0.906402 51.9126 1.82009 52.8485 3.03821C53.7844 4.25633 54.3377 5.72419 54.4384 7.25626C54.5391 8.78833 54.1827 10.3158 53.4143 11.6457C52.9041 12.5299 52.2242 13.3049 51.4137 13.9264C50.6031 14.5479 49.6777 15.0036 48.6906 15.2675C47.7034 15.5313 46.6738 15.5981 45.6607 15.464C44.6477 15.33 43.671 14.9976 42.7867 14.4861ZM44.0822 12.2465C44.9702 12.7589 45.9904 12.9968 47.0138 12.9301C48.0372 12.8634 49.0178 12.4951 49.8316 11.8718C50.6453 11.2484 51.2557 10.3981 51.5854 9.42832C51.9151 8.45854 51.9494 7.41289 51.6839 6.42365C51.4184 5.4344 50.8651 4.54601 50.094 3.87085C49.3228 3.19569 48.3684 2.76411 47.3516 2.63068C46.3347 2.49726 45.3011 2.668 44.3815 3.1213C43.4618 3.5746 42.6975 4.29009 42.1851 5.17727C41.4992 6.36623 41.3138 7.77837 41.6694 9.10373C42.0251 10.4291 42.8929 11.5594 44.0822 12.2465Z" fill="#1677FF"/>
<path d="M3.89134 36.3201C2.55999 35.5519 1.4866 34.4068 0.80687 33.0295C0.127144 31.6522 -0.128397 30.1046 0.0725518 28.5823C0.273501 27.06 0.921917 25.6313 1.93583 24.477C2.94974 23.3226 4.28362 22.4944 5.76883 22.097C7.25405 21.6996 8.82391 21.7508 10.28 22.2443C11.736 22.7377 13.0129 23.6512 13.9491 24.8692C14.8854 26.0872 15.439 27.5551 15.5399 29.0872C15.6409 30.6194 15.2846 32.147 14.5163 33.4771C14.0063 34.3612 13.3267 35.1362 12.5165 35.7577C11.7062 36.3792 10.7812 36.835 9.79427 37.0991C8.80737 37.3632 7.77802 37.4303 6.76512 37.2966C5.75222 37.1629 4.77566 36.8311 3.89134 36.3201ZM5.18681 34.0779C6.07479 34.5903 7.09501 34.8282 8.11841 34.7615C9.14181 34.6948 10.1224 34.3265 10.9362 33.7032C11.7499 33.0798 12.3602 32.2295 12.69 31.2597C13.0197 30.2899 13.054 29.2443 12.7885 28.2551C12.523 27.2658 11.9697 26.3774 11.1985 25.7023C10.4274 25.0271 9.47301 24.5955 8.45617 24.4621C7.43934 24.3287 6.40572 24.4994 5.48607 24.9527C4.56642 25.406 3.80206 26.1215 3.28969 27.0087C2.60381 28.1976 2.41836 29.6098 2.77404 30.9351C3.12972 32.2605 3.99747 33.3908 5.18681 34.0779Z" fill="#1677FF"/>
<path d="M43.2677 58.9595C41.9364 58.191 40.8632 57.0457 40.1837 55.6683C39.5042 54.2908 39.2489 52.7431 39.4502 51.2208C39.6514 49.6985 40.3002 48.2699 41.3143 47.1158C42.3285 45.9616 43.6626 45.1336 45.148 44.7365C46.6333 44.3394 48.2032 44.3911 49.6592 44.8849C51.1151 45.3787 52.3918 46.2925 53.3278 47.5108C54.2637 48.729 54.8169 50.1971 54.9175 51.7293C55.018 53.2616 54.6614 54.7892 53.8926 56.119C53.3824 57.0029 52.7027 57.7776 51.8923 58.3989C51.082 59.0202 50.1569 59.4757 49.17 59.7396C48.1831 60.0034 47.1539 60.0703 46.1411 59.9364C45.1283 59.8026 44.1518 59.4706 43.2677 58.9595ZM44.5631 56.7198C45.4511 57.2322 46.4713 57.4701 47.4947 57.4034C48.5181 57.3367 49.4987 56.9684 50.3125 56.3451C51.1262 55.7218 51.7366 54.8714 52.0663 53.9017C52.396 52.9319 52.4303 51.8862 52.1648 50.897C51.8994 49.9077 51.346 49.0193 50.5749 48.3442C49.8037 47.669 48.8493 47.2374 47.8325 47.104C46.8157 46.9706 45.7821 47.1413 44.8624 47.5946C43.9428 48.0479 43.1784 48.7634 42.666 49.6506C41.9806 50.8402 41.7959 52.2528 42.1526 53.5782C42.5092 54.9037 43.3781 56.0336 44.5683 56.7198H44.5631Z" fill="#1677FF"/>
<path d="M12.033 48.5308C13.0181 48.3625 14.0312 48.5083 14.9286 48.9475V48.8989C14.9683 48.6867 15.0534 48.4855 15.178 48.309C15.3026 48.1325 15.4638 47.9849 15.6506 47.8763C15.4383 47.6342 15.2781 47.3513 15.1797 47.045C15.0813 46.7387 15.0468 46.4154 15.0785 46.0953C15.1102 45.7751 15.2073 45.4649 15.3638 45.1837C15.5203 44.9025 15.733 44.6564 15.9885 44.4605L15.0438 42.7169C15.014 42.6683 14.9945 42.6142 14.9863 42.5579C14.9781 42.5015 14.9816 42.4441 14.9963 42.3891C15.0111 42.3341 15.037 42.2827 15.0723 42.238C15.1077 42.1933 15.1517 42.1563 15.2019 42.1292C15.252 42.1021 15.3071 42.0854 15.3639 42.0803C15.4207 42.0752 15.478 42.0816 15.5322 42.0993C15.5864 42.117 15.6364 42.1455 15.6792 42.1831C15.722 42.2207 15.7567 42.2666 15.7812 42.3181L16.731 44.0719C17.0549 43.973 17.3962 43.9443 17.732 43.9876L18.1494 42.1698C18.1741 42.0613 18.2411 41.9671 18.3354 41.9078C18.4298 41.8486 18.5438 41.8293 18.6524 41.854C18.7611 41.8788 18.8554 41.9456 18.9147 42.0398C18.974 42.134 18.9934 42.2479 18.9686 42.3564L18.536 44.2304C18.9735 44.4604 19.3278 44.8217 19.5489 45.2634C19.77 45.705 19.8468 46.2048 19.7685 46.6923C19.6902 47.1799 19.4607 47.6306 19.1124 47.9811C18.764 48.3315 18.3144 48.564 17.8268 48.6458C17.9215 48.8961 17.9477 49.1671 17.9027 49.4309C17.8577 49.6947 17.7431 49.9417 17.5708 50.1466L19.1325 51.3201C19.207 51.377 19.2604 51.4572 19.284 51.5479C19.3075 51.6386 19.3 51.7346 19.2626 51.8205C19.2252 51.9064 19.16 51.9774 19.0775 52.022C18.995 52.0666 18.8999 52.0823 18.8073 52.0666C18.743 52.0536 18.682 52.0275 18.6281 51.9899L16.795 50.6221C16.5827 50.6778 16.361 50.6874 16.1447 50.6502C16.078 50.6374 16.0121 50.6204 15.9476 50.5991C15.8605 51.3917 15.1206 52.1331 14.0402 52.5959L14.3833 54.066C14.3966 54.1202 14.399 54.1765 14.3903 54.2317C14.3816 54.2869 14.3621 54.3398 14.3328 54.3873C14.3035 54.4349 14.265 54.4762 14.2197 54.5088C14.1743 54.5414 14.1228 54.5647 14.0684 54.5773C14.0141 54.5902 13.9577 54.5924 13.9026 54.5836C13.8475 54.5748 13.7947 54.5552 13.7471 54.526C13.6996 54.4968 13.6582 54.4585 13.6255 54.4134C13.5928 54.3682 13.5693 54.3171 13.5563 54.2628L13.2312 52.8643C13.0392 52.9103 12.8446 52.9513 12.6423 52.9794C10.6479 53.2581 8.89158 52.4911 8.72005 51.2638C8.54851 50.0366 10.0309 48.8094 12.033 48.5308Z" fill="#1677FF"/>
</g>
<defs>
<clipPath id="clip0_479_38094">
<rect width="188" height="60" fill="white"/>
</clipPath>
</defs>
</svg>
