<svg width="188" height="60" viewBox="0 0 188 60" fill="none" xmlns="http://www.w3.org/2000/svg">
<g clip-path="url(#clip0_479_38144)">
<path d="M64.8539 39.9953L64.4868 37.0574C65.1848 37.0341 65.8797 36.9524 66.5641 36.8129C67.7042 36.7322 68.5562 36.6546 69.1201 36.5801V30.816H67.6632V32.0382H65.3396V16.8618H69.127V12.0871H72.5474V16.8618H76.214V30.816H72.1849V36.2007L74.383 35.9562L73.7719 33.0183L76.0955 32.6504C76.2052 33.0518 76.2829 33.4613 76.3279 33.875C76.9785 36.5693 77.4672 38.6497 77.7941 40.1164L75.2381 40.6076L74.871 38.5264C73.8114 38.6816 72.1423 38.926 69.8636 39.2597C67.6624 39.5856 65.9925 39.8308 64.8539 39.9953ZM67.6632 20.0442V27.6336H69.7405V20.0442H67.6632ZM73.8951 20.0442H71.9386V27.6336H73.8904L73.8951 20.0442ZM77.4385 34.6083V31.4282H87.9435V34.6106L77.4385 34.6083ZM82.6899 40.9731V40.6076C82.5561 39.615 82.3518 38.6332 82.0788 37.6697C83.3831 37.7504 84.9717 37.7907 86.8445 37.7907C88.3935 37.7907 89.2076 37.1381 89.2866 35.8328C89.4415 33.061 89.5236 30.5723 89.5329 28.3669H78.1705L79.1487 17.963H82.5691L81.8348 25.0611H87.2116L87.9435 16.6151H77.8034V13.3116H91.6079L90.6319 25.0611H93.1879C93.1073 26.6954 92.985 29.1437 92.8208 32.406C92.748 34.2855 92.7116 35.5892 92.7116 36.3171C92.7116 39.4987 90.9603 41.0507 87.4579 40.9731H82.6899Z" fill="#3E3A39"/>
<path d="M96.2504 39.6275L95.6416 36.5685C97.1907 36.3217 98.8172 36.0765 100.521 35.8328V30.4481H99.055V31.661H96.6175V16.9945H100.528V12.1057H103.704V16.9945H107.613V30.4598H103.704V35.4767L105.782 35.1112L105.048 32.1732L107.371 31.682C107.859 33.6422 108.348 35.5193 108.837 37.3135C111.361 35.5193 113.193 33.9285 114.335 32.541C111.726 28.6951 110.018 23.1824 109.209 16.0028L112.506 15.2695C113.32 21.4775 114.704 26.2111 116.661 29.4704C118.772 26.1196 120.238 21.2626 121.059 14.8993L124.48 15.5116C123.42 23.1832 121.628 28.855 119.103 32.5271C120.97 34.6131 123.156 36.389 125.579 37.7884C125.254 38.1143 124.683 38.9307 123.869 40.2375C123.636 40.6449 123.46 40.9359 123.381 41.0942C120.284 38.8903 118.039 37.0551 116.645 35.5884C115.25 37.0582 112.849 39.0168 109.441 41.4643C108.953 40.7287 108.421 39.9534 107.852 39.1363L106.997 39.3691L106.509 37.7767C102.602 38.3556 99.1828 38.9726 96.2504 39.6275ZM99.0619 20.1653V27.2657H101.016V20.1653H99.0619ZM105.171 20.1653H103.214V27.2657H105.171V20.1653ZM116.166 19.7881C115.432 17.6665 114.536 15.4231 113.478 13.0579L116.645 12.0871C117.783 14.6991 118.679 16.8618 119.333 18.5753L116.166 19.7881Z" fill="#3E3A39"/>
<path d="M127.77 30.4481V27.5102H133.27V24.3278H136.446V27.5102H140.722V30.4481H136.446V32.406L137.557 31.4282C137.88 31.661 138.331 32.0009 138.9 32.4083C139.225 32.6536 139.959 33.2658 141.1 34.2451L138.777 36.203C138.062 35.4081 137.285 34.6717 136.453 34.0007V41.3433H133.27V33.875C132.09 35.9588 130.51 37.7887 128.623 39.2597C128.259 38.6971 127.851 38.1653 127.401 37.6697C127.182 37.3239 126.937 36.9961 126.666 36.6896C129.19 34.8132 131.104 32.7327 132.408 30.4481H127.77ZM128.137 18.084V15.1461H139.987V11.9637H143.531V15.1461H155.381V18.084H145.364C148.215 19.8813 151.92 21.1873 156.48 22.0021C156.147 22.7166 155.862 23.4523 155.625 24.2044C155.46 24.6933 155.339 25.0611 155.258 25.3056C150.128 24.0019 146.219 22.207 143.531 19.9208V25.3056H139.987V19.9208C137.38 22.1232 133.508 24.0003 128.369 25.5523C127.964 24.4085 127.516 23.3066 127.026 22.2465C131.503 21.2657 135.168 19.8782 138.022 18.084H128.137ZM142.311 30.4481V27.5102H146.586V24.4442H149.765V27.5055H155.628V30.4435H150.372C151.957 33.017 154.188 35.1289 156.843 36.5685C156.664 36.8711 156.46 37.1577 156.232 37.4252C155.744 38.24 155.377 38.8926 155.133 39.3831C152.688 37.6759 150.897 35.9213 149.758 34.1194V41.3363H146.584V33.9891C145.365 36.1914 143.492 38.1089 140.966 39.7416C140.711 39.3897 140.425 39.0616 140.111 38.7615C139.539 38.1073 139.132 37.6208 138.888 37.2925C141.724 35.597 144.114 33.2472 145.859 30.4388L142.311 30.4481Z" fill="#3E3A39"/>
<path d="M159.046 21.1454V17.8396H163.323V12.2104H166.865V17.8396H170.652V21.1454H166.865V24.6933L168.087 23.4711C168.575 23.8792 169.267 24.4907 170.164 25.3055C171.058 26.0412 171.75 26.6535 172.241 27.1424L169.797 29.7032C168.877 28.7061 167.898 27.7662 166.865 26.8886V41.3223H163.323V27.6336C162.228 30.3742 160.79 32.9649 159.046 35.344C158.801 33.792 158.476 32.1189 158.07 30.3248C160.187 27.9564 161.938 24.8966 163.323 21.1454H159.046ZM171.874 21.1454V17.8396H176.754V12.2104H180.311V17.8396H186.908V21.1454H180.544C182.333 26.1227 184.819 28.4367 187.995 31.2094C187.263 32.7622 186.731 35.6326 186.408 36.6896C183.639 33.7516 181.602 30.6476 180.3 27.3775V41.3316H176.761V27.5102C175.376 30.6142 173.34 33.7555 170.652 36.934L170.285 36.2007C169.834 35.1802 169.302 34.1977 168.693 33.2627C172.281 29.9561 174.971 25.7906 176.512 21.157L171.874 21.1454Z" fill="#3E3A39"/>
<path fill-rule="evenodd" clip-rule="evenodd" d="M36.8664 10.0431C41.4044 5.64311 46.0307 4.13455 46.0841 4.11825C46.5994 3.93607 47.024 3.56069 47.2686 3.07115C47.5132 2.5816 47.5587 2.01607 47.3955 1.4936C47.2323 0.971127 46.8732 0.532463 46.3937 0.269945C45.9142 0.00742636 45.3517 -0.0584693 44.8247 0.0861283C44.5459 0.165281 38.1351 2.21161 32.4097 8.57408C30.3634 8.08763 28.2671 7.84384 26.1639 7.84774C24.1816 7.86428 22.2074 8.10323 20.2782 8.56011C14.5575 2.20928 8.15369 0.165281 7.87718 0.0791443C7.34971 -0.0651257 6.78695 0.00139565 6.30748 0.26469C5.82801 0.527984 5.46928 0.967486 5.3069 1.49057C5.14452 2.01366 5.19116 2.57948 5.437 3.06879C5.68284 3.5581 6.10867 3.93268 6.62476 4.1136C6.67588 4.13688 11.272 5.6012 15.8309 10.0361C6.45978 14.1241 -0.0764995 23.4897 0.000179287 34.322C0.0404851 39.4665 1.58684 44.486 4.44756 48.7584C7.30828 53.0307 11.3576 56.368 16.0934 58.3564C16.6078 58.5546 17.1787 58.5461 17.687 58.3327C18.1953 58.1193 18.6017 57.7174 18.8213 57.211C19.0371 56.7021 19.0444 56.1285 18.8419 55.6142C18.6393 55.0998 18.243 54.6859 17.7385 54.4616C13.7655 52.7919 10.3688 49.9908 7.96951 46.4054C5.5702 42.8201 4.27372 38.6082 4.24075 34.2917C4.15245 22.1301 13.9999 12.1755 26.1941 12.0777C31.6146 12.0145 36.8677 13.9575 40.9469 17.5345C45.0261 21.1114 47.6444 26.0707 48.3001 31.4619C48.9559 36.8532 47.6029 42.2973 44.5004 46.7511C41.398 51.2048 36.7643 54.3549 31.4873 55.5977L30.7391 55.7467C30.0094 55.8608 29.7655 55.6419 29.6493 55.5372C28.8174 54.7945 28.5247 52.5271 28.5874 51.2373L28.4364 42.8704C37.9631 42.1511 39.2992 32.5829 39.3433 32.2407C38.9739 32.2128 28.3597 31.682 26.5241 42.3676H26.3242C24.3422 31.6913 13.7257 32.3734 13.3609 32.4013C13.405 32.7482 14.8549 42.1348 24.1958 42.8565L24.3515 51.0883C24.3166 51.9148 24.2562 56.3729 26.8052 58.6684C27.7833 59.5492 29.0595 60.0237 30.3743 59.9953C30.7432 59.9945 31.1115 59.9641 31.4756 59.9045L32.3795 59.7276C37.7592 58.4846 42.6096 55.5708 46.2383 51.4021C49.867 47.2333 52.0887 42.0226 52.5862 36.5137C53.0836 31.0048 51.8316 25.4792 49.0086 20.7256C46.1856 15.972 41.9361 12.2333 36.8664 10.0431Z" fill="#2D9485"/>
<path d="M73.2189 54.1031H72.1454L71.3879 51.9637H67.2612L66.5037 54.1031H65.4302L68.9156 44.6374H69.766L73.2189 54.1031ZM67.5656 51.0767H71.0835L69.3315 46.0645L67.5656 51.0767Z" fill="#3E3A39"/>
<path d="M86.7678 54.1031H85.8128L80.7962 46.5115V54.1031H79.7877V44.6374H80.7427L85.7594 52.2035V44.6374H86.7678V54.1031Z" fill="#3E3A39"/>
<path d="M100.052 45.5407H97.3192V54.1031H96.3108V45.5407H93.5759V44.6374H100.052V45.5407Z" fill="#3E3A39"/>
<path d="M120.827 45.5407H115.971V49.0327H120.109V49.936H115.978V54.1031H114.969V44.6374H120.827V45.5407Z" fill="#3E3A39"/>
<path d="M130.389 44.5583C130.842 44.5467 131.293 44.6259 131.716 44.7911C132.364 45.0673 132.907 45.5457 133.263 46.1553C133.397 46.4008 133.492 46.6654 133.547 46.9398C133.614 47.2774 133.655 47.62 133.667 47.9642C133.684 48.3522 133.693 48.8178 133.693 49.361C133.693 49.9034 133.693 50.3667 133.667 50.7578C133.655 51.1019 133.614 51.4445 133.547 51.7821C133.492 52.0564 133.396 52.321 133.263 52.5666C132.908 53.1766 132.365 53.6545 131.716 53.9285C131.294 54.0985 130.843 54.1824 130.389 54.1753C129.932 54.1817 129.479 54.0978 129.055 53.9285C128.67 53.7701 128.321 53.5375 128.026 53.2441C127.821 53.0437 127.645 52.8157 127.503 52.5666C127.37 52.3206 127.273 52.0563 127.217 51.7821C127.149 51.4447 127.112 51.1019 127.106 50.7578C127.092 50.3667 127.085 49.9034 127.085 49.361C127.085 48.8185 127.085 48.3553 127.106 47.9642C127.112 47.62 127.149 47.2772 127.217 46.9398C127.273 46.6656 127.369 46.4011 127.503 46.1553C127.647 45.9101 127.825 45.686 128.03 45.4895C128.324 45.1911 128.674 44.9538 129.06 44.7911C129.483 44.6271 129.935 44.548 130.389 44.5583ZM130.389 45.4615C130.087 45.4552 129.786 45.511 129.507 45.6255C129.227 45.74 128.974 45.9108 128.762 46.1273C128.616 46.2705 128.495 46.4364 128.402 46.6186C128.307 46.8186 128.241 47.0309 128.205 47.2495C128.155 47.5397 128.126 47.8329 128.116 48.1271C128.105 48.4693 128.098 48.8837 128.098 49.3703C128.098 49.8568 128.098 50.2735 128.116 50.6134C128.126 50.9077 128.155 51.2009 128.205 51.4911C128.24 51.7097 128.307 51.9222 128.402 52.122C128.494 52.3053 128.616 52.472 128.762 52.6155C129.199 53.0383 129.782 53.2746 130.389 53.2746C130.996 53.2746 131.579 53.0383 132.015 52.6155C132.162 52.472 132.283 52.3053 132.375 52.122C132.471 51.9222 132.537 51.7097 132.573 51.4911C132.623 51.201 132.651 50.9077 132.659 50.6134C132.673 50.2735 132.68 49.8592 132.68 49.3703C132.68 48.8814 132.673 48.467 132.659 48.1271C132.651 47.8329 132.622 47.5396 132.573 47.2495C132.537 47.0309 132.47 46.8186 132.375 46.6186C132.283 46.4364 132.161 46.2705 132.015 46.1273C131.804 45.9108 131.551 45.74 131.271 45.6255C130.991 45.511 130.691 45.4552 130.389 45.4615Z" fill="#3E3A39"/>
<path d="M144.735 44.6374C145.118 44.6339 145.498 44.6945 145.861 44.8167C146.19 44.9274 146.493 45.1041 146.751 45.3358C147.002 45.5672 147.199 45.8509 147.328 46.1669C147.469 46.5172 147.54 46.8924 147.534 47.2704C147.56 47.8868 147.357 48.4909 146.963 48.9652C146.577 49.4072 146.053 49.7051 145.476 49.8103L147.72 54.1031H146.538L144.388 49.9127H142.121V54.1031H141.112V44.6374H144.735ZM142.121 45.5407V49.0118H144.642C145.131 49.0335 145.612 48.8827 146.001 48.5857C146.349 48.304 146.526 47.8687 146.526 47.282C146.544 47.0383 146.506 46.7936 146.415 46.5667C146.324 46.3399 146.182 46.1371 146.001 45.9737C145.614 45.672 145.132 45.5185 144.642 45.5407H142.121Z" fill="#3E3A39"/>
<path d="M160.726 45.5407H155.867V48.8884H160.008V49.7917H155.867V53.2092H160.726V54.1125H154.859V44.6374H160.726V45.5407Z" fill="#3E3A39"/>
<path d="M170.334 44.5583C170.847 44.5358 171.361 44.6158 171.843 44.7936C172.326 44.9715 172.768 45.2436 173.145 45.5942L172.497 46.2461C172.226 45.9799 171.906 45.7702 171.554 45.6292C171.151 45.4813 170.723 45.411 170.294 45.422C169.757 45.3879 169.228 45.5612 168.814 45.9062C168.639 46.0698 168.502 46.2693 168.411 46.4912C168.321 46.713 168.279 46.9518 168.289 47.1913C168.275 47.3952 168.306 47.5997 168.379 47.7903C168.453 47.981 168.567 48.1532 168.714 48.2947C168.878 48.4255 169.061 48.5285 169.258 48.5997C169.484 48.683 169.717 48.7454 169.955 48.7859L171.056 48.9582C171.404 49.0087 171.746 49.0913 172.079 49.205C172.336 49.3025 172.573 49.4487 172.776 49.6357C173.029 49.855 173.23 50.1276 173.366 50.4342C173.508 50.7705 173.578 51.133 173.57 51.4981C173.576 51.8854 173.497 52.2692 173.338 52.6225C173.186 52.9498 172.961 53.2381 172.681 53.4653C172.374 53.707 172.025 53.8879 171.651 53.9984C171.214 54.1271 170.761 54.1898 170.306 54.1846C169.979 54.1865 169.653 54.1616 169.33 54.1101C169.045 54.0648 168.764 53.9915 168.493 53.8913C168.233 53.7937 167.986 53.6647 167.757 53.5072C167.515 53.3366 167.289 53.145 167.081 52.9345L167.757 52.2547C168.087 52.606 168.49 52.8809 168.937 53.0602C169.386 53.2145 169.857 53.2886 170.331 53.279C170.916 53.3115 171.495 53.1476 171.977 52.8134C172.173 52.6617 172.33 52.4645 172.434 52.2387C172.538 52.0128 172.586 51.7651 172.574 51.5167C172.588 51.2975 172.554 51.0778 172.473 50.8733C172.393 50.6689 172.269 50.4848 172.109 50.3341C172.04 50.2742 171.967 50.219 171.891 50.1688C171.811 50.1177 171.726 50.0755 171.637 50.0431C171.532 50.0024 171.423 49.9712 171.312 49.95C171.189 49.922 171.042 49.8964 170.875 49.8685L169.774 49.7102C169.142 49.6416 168.543 49.3918 168.05 48.9908C167.804 48.7665 167.611 48.4905 167.484 48.1825C167.358 47.8746 167.301 47.5425 167.318 47.2099C167.313 46.8358 167.386 46.4649 167.531 46.1204C167.668 45.7977 167.875 45.5091 168.136 45.2753C168.411 45.0317 168.734 44.8485 169.084 44.7375C169.488 44.6108 169.91 44.5502 170.334 44.5583Z" fill="#3E3A39"/>
<path d="M186.097 45.5407H183.364V54.1031H182.356V45.5407H179.614V44.6374H186.097V45.5407Z" fill="#3E3A39"/>
</g>
<defs>
<clipPath id="clip0_479_38144">
<rect width="188" height="60" fill="white"/>
</clipPath>
</defs>
</svg>
