<svg width="60" height="60" viewBox="0 0 60 60" fill="none" xmlns="http://www.w3.org/2000/svg">
<path fill-rule="evenodd" clip-rule="evenodd" d="M40.1907 11.3257C44.4371 7.20852 48.766 5.79691 48.816 5.78167C49.2982 5.61119 49.6955 5.25994 49.9244 4.80186C50.1533 4.34377 50.1959 3.81459 50.0432 3.3257C49.8905 2.8368 49.5544 2.42633 49.1057 2.18068C48.657 1.93503 48.1307 1.87337 47.6376 2.00868C47.3767 2.08274 41.3779 3.99756 36.0205 9.95112C34.1057 9.49593 32.1441 9.26781 30.1761 9.27146C28.3212 9.28694 26.4739 9.51053 24.6687 9.93805C19.3156 3.99538 13.3234 2.08274 13.0646 2.00214C12.5711 1.86715 12.0445 1.92939 11.5958 2.17576C11.1471 2.42214 10.8115 2.83339 10.6595 3.32286C10.5076 3.81233 10.5512 4.34179 10.7813 4.79965C11.0113 5.25751 11.4098 5.60802 11.8927 5.77731C11.9405 5.79909 16.2412 7.16931 20.5071 11.3192C11.7383 15.1444 5.62211 23.9081 5.69386 34.0442C5.73158 38.8581 7.17855 43.5551 9.85542 47.5528C12.5323 51.5506 16.3213 54.6734 20.7528 56.534C21.2341 56.7195 21.7684 56.7115 22.244 56.5118C22.7196 56.3121 23.0999 55.9361 23.3054 55.4622C23.5073 54.986 23.5142 54.4493 23.3246 53.968C23.1351 53.4867 22.7643 53.0994 22.2922 52.8896C18.5745 51.3271 15.3961 48.706 13.151 45.3511C10.9059 41.9962 9.69275 38.055 9.66189 34.0159C9.57927 22.6359 18.7938 13.3211 30.2043 13.2296C35.2765 13.1705 40.192 14.9886 44.009 18.3356C47.826 21.6827 50.2761 26.3232 50.8897 31.368C51.5032 36.4128 50.2372 41.507 47.3341 45.6745C44.4311 49.842 40.0952 52.7897 35.1573 53.9526L34.4572 54.092C33.7745 54.1988 33.5462 53.994 33.4375 53.896C32.6591 53.2011 32.3851 51.0793 32.4438 49.8725L32.3025 42.0433C41.217 41.3702 42.4672 32.417 42.5085 32.0967C42.1628 32.0706 32.2308 31.5739 30.5131 41.5728H30.3261C28.4714 31.5826 18.5372 32.2209 18.1959 32.247C18.2372 32.5716 19.5939 41.3549 28.3345 42.0302L28.4801 49.733C28.4475 50.5064 28.391 54.678 30.7762 56.8259C31.6914 57.6501 32.8855 58.0941 34.1158 58.0676C34.4611 58.0668 34.8057 58.0384 35.1464 57.9826L35.9922 57.8171C41.0262 56.654 45.5648 53.9275 48.9603 50.0266C52.3558 46.1258 54.4347 41.25 54.9002 36.0951C55.3657 30.9403 54.1941 25.7698 51.5526 21.3217C48.911 16.8736 44.9346 13.3752 40.1907 11.3257Z" fill="#2D9485"/>
</svg>
