<svg width="46" height="46" viewBox="0 0 46 46" fill="none" xmlns="http://www.w3.org/2000/svg">
<g clip-path="url(#clip0_266_376)">
<path d="M35.2667 46H10.7333C4.81296 46 0 41.187 0 35.2667V10.7333C0 4.81296 4.81296 0 10.7333 0H35.2667C41.187 0 46 4.81296 46 10.7333V35.2667C46 41.187 41.187 46 35.2667 46Z" fill="white"/>
<path d="M15.7593 10.3287C17.3991 8.17779 20.0185 6.81483 22.7232 6.77224C24.5546 6.72964 26.4074 7.24075 27.9194 8.26298C29.8361 9.49816 31.2417 11.5 31.7528 13.7361C31.838 14.2472 32.0296 14.7583 31.9444 15.2908C31.6676 14.3324 30.7093 13.587 29.687 13.6722C28.5796 13.6722 27.7065 14.6519 27.6213 15.7167C27.6426 13.3528 25.5556 11.2445 23.213 11.1593C21.5306 11.0315 19.8482 11.9472 18.9537 13.3528C18.5278 13.9917 18.3574 14.7583 18.2083 15.5037C18.0593 14.4815 17.1222 13.6509 16.0787 13.6722C15.0352 13.6296 14.0982 14.4389 13.9278 15.4398C13.9278 13.587 14.6732 11.7769 15.7593 10.3287ZM7.68797 19.8908C9.26389 18.1232 11.6278 17.0796 13.9917 17.1222C14.4602 20.9343 17.6546 24.1713 21.4454 24.7463C23.8732 25.1722 26.4926 24.5333 28.4519 23C30.3259 21.5945 31.6037 19.4222 31.9232 17.1009C33.8824 17.037 35.8204 17.7824 37.3324 19.0389C39.3343 20.6787 40.5056 23.2769 40.3991 25.8537C40.3565 29.5593 37.5667 33.0306 33.9463 33.8611C31.3056 34.5426 28.3454 33.8185 26.3009 32.0083C25.3213 31.1352 25.4278 29.3676 26.5352 28.6435C27.0676 28.1963 27.7917 28.2389 28.4306 28.3028C29.0694 28.5158 29.538 29.0695 30.1556 29.325C31.3269 29.9213 32.775 29.8574 33.925 29.1972C35.6713 28.2602 36.5444 25.9815 35.7991 24.15C35.0963 22.0843 32.6046 20.8917 30.5602 21.6796C29.4954 21.9991 28.7926 22.9148 28.0046 23.6389C25.3426 26.3222 22.6593 28.963 19.9972 31.6463C18.6982 32.9454 16.9732 33.7759 15.163 34.0315C12.6074 34.3935 9.90278 33.4778 8.0713 31.6676C6.60186 30.2408 5.66482 28.2389 5.55834 26.1945C5.32408 23.9158 6.13334 21.5732 7.68797 19.8908ZM13.1824 21.5306C11.5852 21.85 10.2222 23.1491 9.90278 24.7676C9.37037 26.8759 10.8824 29.1972 12.9907 29.6658C15.1204 30.262 17.5056 28.7926 17.9954 26.663C18.4852 24.9593 17.6546 23.0213 16.1426 22.1056C15.2907 21.488 14.2046 21.4028 13.1824 21.5306Z" fill="#2EBBFD"/>
<path d="M22.9361 42.6565H30.7306C30.7093 43.7 30.7093 44.7435 30.7306 45.7871H22.9361V42.6565Z" fill="#2879F2"/>
<path d="M13.9278 15.4185C14.0981 14.4176 15.0565 13.6083 16.0787 13.6509C17.1222 13.6296 18.0593 14.4601 18.2083 15.4824C17.9954 18.0379 20.1463 20.4657 22.7019 20.5296C25.3213 20.7 27.7917 18.3361 27.6 15.6953C27.6852 14.6305 28.5583 13.6722 29.6657 13.6509C30.688 13.5444 31.6463 14.2898 31.9231 15.2694C31.9657 15.887 31.9657 16.5046 31.8806 17.1222C31.5611 19.4435 30.2833 21.6157 28.4093 23.0213C26.45 24.5546 23.8519 25.1935 21.4028 24.7676C17.6333 24.1926 14.4389 20.9342 13.9491 17.1435C13.9491 16.5472 13.9065 15.9935 13.9278 15.4185ZM15.1417 42.6777C17.7398 42.6564 20.338 42.6777 22.9361 42.6777V45.8083H15.1417C15.163 44.7435 15.163 43.7 15.1417 42.6777Z" fill="#EF4C59"/>
</g>
<defs>
<clipPath id="clip0_266_376">
<rect width="46" height="46" fill="white"/>
</clipPath>
</defs>
</svg>
