<svg width="214" height="46" viewBox="0 0 214 46" fill="none" xmlns="http://www.w3.org/2000/svg">
<g clip-path="url(#clip0_243_307)">
<mask id="mask0_243_307" style="mask-type:luminance" maskUnits="userSpaceOnUse" x="0" y="0" width="214" height="46">
<path d="M213.133 0H0V46H213.133V0Z" fill="white"/>
</mask>
<g mask="url(#mask0_243_307)">
<path d="M138.613 11.3474C137.847 12.4207 136.007 15.6408 136.16 20.7008C136.16 27.6008 145.36 30.2075 150.727 23.9208C156.247 17.4808 153.333 11.0407 148.273 10.7341C146.87 10.6367 145.463 10.8626 144.16 11.3942C142.858 11.9259 141.694 12.7491 140.76 13.8007C141.833 11.1941 139.533 9.81407 138.613 11.3474ZM147.813 14.4141C153.027 16.1008 149.653 25.1475 143.98 24.0741C140.147 23.6141 139.38 20.7008 139.687 17.9408C140.76 15.4875 145.053 13.3407 147.66 14.4141H147.813ZM167.287 4.14073C166.06 4.14073 162.687 3.68073 160.08 3.68073C161.153 5.98073 163.453 11.9607 163.147 20.8541C162.84 33.1208 155.787 40.0208 146.28 40.0208C137.387 40.0208 132.48 34.3475 131.867 32.3541C131.253 30.3608 132.633 30.3608 133.247 30.9741C134.32 32.2008 135.393 33.2741 137.387 34.3475C144.44 37.4141 157.013 35.8808 158.24 23.6141C159.467 13.1874 156.4 5.98073 155.173 3.68073C147.797 3.94545 140.505 5.34173 133.553 7.82073C129.72 9.35407 129.107 6.90073 129.107 5.8274C129.16 5.1633 129.429 4.53471 129.871 4.03674C130.314 3.53876 130.907 3.19848 131.56 3.0674C146.893 -1.0726 163.76 1.53407 166.06 1.84073C168.513 2.30073 168.36 4.14073 167.133 4.14073H167.287ZM177.713 6.90073C180.978 5.82581 184.307 4.95524 187.68 4.29407C182.467 7.97407 175.413 18.0941 180.78 26.0675C186.913 35.2675 204.24 31.4341 204.7 19.6275C205.007 8.1274 191.36 7.36073 187.833 13.8007C184.767 19.1675 189.06 22.6941 191.513 22.8475C191.973 23.7675 192.433 24.3808 192.893 24.3808C193.66 24.2275 193.507 23.4608 193.2 22.5408C193.967 22.2341 196.42 21.0075 197.033 18.4008C197.647 15.3341 193.66 14.1074 191.82 17.9408C191.427 18.8085 191.219 19.7483 191.207 20.7008C186.607 19.1675 190.287 10.7341 197.493 13.8007C204.087 16.4075 199.793 29.4408 188.6 26.0675C177.867 22.5408 186.147 4.60073 195.807 3.0674C199.333 3.0674 203.473 3.22073 206.233 3.68073C208.687 3.9874 208.687 1.99407 207.153 1.53407C202.553 0.000731304 186.607 -0.919268 177.253 2.1474C175.72 2.6074 174.647 3.68073 174.493 5.21407C174.493 6.7474 175.873 7.51407 177.56 6.90073H177.713ZM194.733 16.8675C196.42 16.8675 195.04 19.9341 192.893 20.7008C192.893 19.1675 193.507 16.7141 194.733 16.8675ZM212.98 32.3541C212.2 31.6512 211.48 30.8817 210.833 30.0541C212.196 27.7386 212.837 25.0691 212.673 22.3875C212.06 17.7875 207.46 18.2475 207.153 23.6141C207.009 25.4762 207.218 27.3489 207.767 29.1341C205.724 31.4407 203.19 33.2585 200.35 34.4528C197.509 35.6471 194.437 36.1876 191.36 36.0341C184.153 35.8808 176.947 33.2741 173.267 27.1408C172.347 25.6075 171.12 25.6075 171.12 27.1408C171.12 29.9008 177.407 40.3275 191.053 40.6341C200.56 40.7875 206.387 36.8008 209.453 32.2008C210.067 32.9675 210.987 33.5808 211.6 34.0408C213.133 34.9608 213.9 33.2741 212.98 32.5075V32.3541ZM209.913 20.8541C210.833 20.8541 211.14 23.6141 209.3 26.9875L209.147 26.6808C208.38 24.2275 208.687 20.7008 209.76 20.7008L209.913 20.8541ZM122.207 27.9075C121.9 27.9075 121.747 28.0608 121.593 28.3675C120.367 31.8941 118.68 34.0408 117.3 34.0408C116.533 34.0408 116.227 33.1208 116.227 31.7408C116.759 26.517 117.891 21.3721 119.6 16.4075C119.6 15.3341 118.987 14.8741 117.607 14.8741C116.227 14.8741 114.54 15.3341 113.16 17.9408C112.7 15.6408 111.013 14.7207 108.867 14.7207C106.26 14.7207 103.807 16.2541 101.813 19.0141C99.82 21.6208 97.3667 22.5408 95.68 22.0808C96.6871 19.8049 97.2592 17.3606 97.3667 14.8741C97.3667 12.1141 95.9867 10.4274 93.84 10.4274C90.4667 10.4274 88.6265 13.4941 88.6265 17.0208C88.6265 19.4741 89.7 22.2341 92.3067 23.4608C90.16 28.3675 87.0933 32.6608 85.8667 32.6608C84.3333 32.6608 83.8733 25.3008 83.8733 19.7808C83.8733 16.7141 84.18 16.5608 84.18 15.6408C84.18 15.0274 83.8732 14.7207 82.4932 14.7207C79.2732 14.7207 78.1999 17.4808 77.8932 20.7008C77.8932 21.9275 77.8933 23.1541 77.4333 24.2275C76.0533 29.1341 73.2933 32.8141 71.3 32.8141C70.5333 32.8141 70.38 32.0475 70.38 30.8208C70.38 27.2941 72.3733 23.0008 72.3733 19.1675C72.3733 16.4075 71.1467 14.5674 68.8467 14.5674C66.24 14.5674 62.7132 17.9408 59.1865 23.7675C60.4132 19.1675 60.7198 14.8741 57.6532 14.8741C56.9104 14.8456 56.1724 15.0037 55.5067 15.3341C55.2938 15.4542 55.1218 15.6351 55.0125 15.8536C54.9032 16.0723 54.8617 16.3184 54.8932 16.5608C55.1998 21.4675 50.9067 33.8875 46.92 33.8875C46.1533 33.8875 45.8467 33.1208 45.8467 31.7408C46.38 26.5173 47.5119 21.3724 49.2198 16.4075C49.2198 15.3341 48.6065 14.8741 47.2265 14.8741C45.8465 14.8741 44.16 15.4875 42.78 17.9408C42.32 15.7941 40.6333 14.8741 38.4867 14.8741C34.8067 14.8741 30.82 18.5541 29.1333 23.6141C26.68 30.2075 21.9267 36.6475 15.3333 36.6475C9.65992 36.6475 6.59326 31.7408 6.59326 24.0741C6.43992 12.8807 14.7199 3.83407 20.7 3.83407C23.7667 3.83407 24.9932 5.67407 24.9932 8.43407C24.9932 11.9607 23.1533 13.4941 23.1533 14.8741C23.1533 15.1807 23.46 15.6408 24.0733 15.6408C26.68 15.6408 29.7467 12.5741 29.7467 8.28073C29.7467 3.9874 26.3733 1.07406 20.3933 1.07406C10.4266 1.07406 0.306591 10.8874 0.306591 24.0741C0.306591 34.1941 5.36659 40.3275 14.1066 40.3275C20.0867 40.3275 25.2998 35.7275 28.0598 30.3608C28.3665 34.8075 30.5133 37.1075 33.58 37.1075C36.3398 37.1075 38.4865 35.5741 40.3265 32.5075C40.9398 35.5741 42.6265 37.1075 44.9265 37.1075C47.5332 37.1075 49.5267 35.5741 51.6733 32.5075C51.6733 34.8075 52.2867 37.1075 54.28 37.1075C55.3533 37.1075 56.4267 36.8008 56.7333 36.0341C58.88 26.8341 64.4 19.4741 65.9333 19.4741C66.3933 19.4741 66.5467 19.9341 66.5467 20.5475C66.5467 23.0008 64.8598 28.0608 64.8598 31.2808C64.8598 34.8075 66.3932 37.1075 69.4598 37.1075C72.8332 37.1075 76.2065 32.9675 78.6599 26.8341C79.2732 32.5075 80.8065 37.1075 83.2599 37.1075C86.3265 37.1075 91.5399 30.8208 94.7599 24.0741C95.9865 24.2275 97.8267 24.2275 99.6667 23.0008C98.8788 24.9509 98.4628 27.031 98.4398 29.1341C98.4398 35.2675 101.507 37.1075 103.96 37.1075C106.72 37.1075 108.867 35.5741 110.553 32.5075C111.167 35.1141 112.547 37.1075 115.153 37.1075C119.447 37.1075 122.973 32.8141 122.973 29.4408C122.973 28.5208 122.667 27.9075 122.207 27.9075ZM36.0333 33.7341C34.5 33.7341 33.7333 32.0475 33.7333 29.5941C33.7333 25.1475 36.8 17.9408 39.8667 17.9408C41.2467 17.9408 41.7067 19.4741 41.7067 21.4675C41.7067 25.9141 38.9467 33.7341 36.0333 33.7341ZM93.38 20.7008C92.4296 19.4763 91.941 17.9563 92 16.4075C92 14.7207 92.7667 13.1874 93.5333 13.1874C94.3 13.1874 94.6067 13.9541 94.6067 15.0274C94.6067 16.7141 93.84 19.3208 93.38 20.7008ZM106.413 33.7341C104.88 33.7341 104.113 31.7408 104.113 29.5941C104.113 25.3008 107.18 17.9408 110.247 17.9408C111.78 17.9408 112.087 19.4741 112.087 21.4675C112.087 25.9141 109.327 33.7341 106.413 33.7341Z" fill="url(#paint0_linear_243_307)"/>
</g>
</g>
<defs>
<linearGradient id="paint0_linear_243_307" x1="0.306591" y1="20.376" x2="213.377" y2="20.376" gradientUnits="userSpaceOnUse">
<stop stop-color="#05B9C6"/>
<stop offset="1" stop-color="#7126E3"/>
</linearGradient>
<clipPath id="clip0_243_307">
<rect width="213.133" height="46" fill="white"/>
</clipPath>
</defs>
</svg>
