<svg width="46" height="46" viewBox="0 0 46 46" fill="none" xmlns="http://www.w3.org/2000/svg">
<g clip-path="url(#clip0_280_22)">
<circle cx="23" cy="23" r="23" fill="url(#paint0_linear_280_22)"/>
<path d="M40.775 25.2031C40.685 25.2031 40.64 25.25 40.595 25.3438C40.235 26.4219 39.74 27.0781 39.335 27.0781C39.11 27.0781 39.02 26.7969 39.02 26.375C39.1762 24.7781 39.5083 23.2052 40.01 21.6875C40.01 21.3594 39.83 21.2187 39.425 21.2187C39.02 21.2187 38.525 21.3594 38.12 22.1563C37.985 21.4531 37.49 21.1719 36.86 21.1719C36.095 21.1719 35.375 21.6406 34.79 22.4844C34.205 23.2813 33.485 23.5625 32.99 23.4219C33.2856 22.7261 33.4535 21.9789 33.485 21.2187C33.485 20.375 33.08 19.8594 32.45 19.8594C31.46 19.8594 30.92 20.7969 30.92 21.875C30.92 22.625 31.235 23.4688 32 23.8438C31.37 25.3438 30.47 26.6563 30.11 26.6563C29.66 26.6563 29.525 24.4063 29.525 22.7188C29.525 21.7813 29.615 21.7344 29.615 21.4531C29.615 21.2656 29.525 21.1719 29.12 21.1719C28.175 21.1719 27.86 22.0156 27.77 23C27.77 23.375 27.77 23.75 27.635 24.0781C27.23 25.5781 26.42 26.7031 25.835 26.7031C25.61 26.7031 25.565 26.4688 25.565 26.0938C25.565 25.0156 26.15 23.7031 26.15 22.5313C26.15 21.6875 25.79 21.125 25.115 21.125C24.35 21.125 23.315 22.1563 22.28 23.9375C22.64 22.5313 22.73 21.2187 21.83 21.2187C21.612 21.21 21.3954 21.2584 21.2 21.3594C21.1376 21.3961 21.0871 21.4514 21.055 21.5182C21.0229 21.585 21.0107 21.6603 21.02 21.7344C21.11 23.2344 19.85 27.0313 18.68 27.0313C18.455 27.0313 18.365 26.7969 18.365 26.375C18.5215 24.7782 18.8537 23.2053 19.355 21.6875C19.355 21.3594 19.175 21.2187 18.77 21.2187C18.365 21.2187 17.87 21.4063 17.465 22.1563C17.33 21.5 16.835 21.2187 16.205 21.2187C15.125 21.2187 13.955 22.3438 13.46 23.8906C12.74 25.9063 11.345 27.875 9.41 27.875C7.745 27.875 6.845 26.375 6.845 24.0313C6.8 20.6094 9.23 17.8437 10.985 17.8437C11.885 17.8437 12.245 18.4062 12.245 19.25C12.245 20.3281 11.705 20.7969 11.705 21.2187C11.705 21.3125 11.795 21.4531 11.975 21.4531C12.74 21.4531 13.64 20.5156 13.64 19.2031C13.64 17.8906 12.65 17 10.895 17C7.97 17 5 20 5 24.0313C5 27.125 6.485 29 9.05 29C10.805 29 12.335 27.5938 13.145 25.9531C13.235 27.3125 13.865 28.0156 14.765 28.0156C15.575 28.0156 16.205 27.5469 16.745 26.6094C16.925 27.5469 17.42 28.0156 18.095 28.0156C18.86 28.0156 19.445 27.5469 20.075 26.6094C20.075 27.3125 20.255 28.0156 20.84 28.0156C21.155 28.0156 21.47 27.9219 21.56 27.6875C22.19 24.875 23.81 22.625 24.26 22.625C24.395 22.625 24.44 22.7656 24.44 22.9531C24.44 23.7031 23.945 25.25 23.945 26.2344C23.945 27.3125 24.395 28.0156 25.295 28.0156C26.285 28.0156 27.275 26.75 27.995 24.875C28.175 26.6094 28.625 28.0156 29.345 28.0156C30.245 28.0156 31.775 26.0938 32.72 24.0313C33.08 24.0781 33.62 24.0781 34.16 23.7031C33.9288 24.2993 33.8067 24.9352 33.8 25.5781C33.8 27.4531 34.7 28.0156 35.42 28.0156C36.23 28.0156 36.86 27.5469 37.355 26.6094C37.535 27.4063 37.94 28.0156 38.705 28.0156C39.965 28.0156 41 26.7031 41 25.6719C41 25.3906 40.91 25.2031 40.775 25.2031ZM15.485 26.9844C15.035 26.9844 14.81 26.4688 14.81 25.7188C14.81 24.3594 15.71 22.1563 16.61 22.1563C17.015 22.1563 17.15 22.625 17.15 23.2344C17.15 24.5938 16.34 26.9844 15.485 26.9844ZM32.315 23C32.0361 22.6257 31.8927 22.161 31.91 21.6875C31.91 21.1719 32.135 20.7031 32.36 20.7031C32.585 20.7031 32.675 20.9375 32.675 21.2656C32.675 21.7813 32.45 22.5781 32.315 23ZM36.14 26.9844C35.69 26.9844 35.465 26.375 35.465 25.7188C35.465 24.4063 36.365 22.1563 37.265 22.1563C37.715 22.1563 37.805 22.625 37.805 23.2344C37.805 24.5938 36.995 26.9844 36.14 26.9844Z" fill="white"/>
</g>
<defs>
<linearGradient id="paint0_linear_280_22" x1="6" y1="5" x2="40.5" y2="39.5" gradientUnits="userSpaceOnUse">
<stop stop-color="#00C3CB"/>
<stop offset="1" stop-color="#7126E3"/>
</linearGradient>
<clipPath id="clip0_280_22">
<rect width="46" height="46" fill="white"/>
</clipPath>
</defs>
</svg>
