<svg width="180" height="47" viewBox="0 0 180 47" fill="none" xmlns="http://www.w3.org/2000/svg">
<g clip-path="url(#clip0_509_45)">
<path fill-rule="evenodd" clip-rule="evenodd" d="M141.995 31.7925C142.182 31.7925 142.372 31.8298 142.553 31.909C143.245 32.2094 143.556 32.9992 143.246 33.6727C141.471 37.5419 138.703 40.8176 135.241 43.1458C131.668 45.5492 127.523 46.8193 123.254 46.8193C118.988 46.8193 114.847 45.5513 111.276 43.1525C107.817 40.8286 105.049 37.5582 103.272 33.6949C102.962 33.0218 103.272 32.2318 103.963 31.9304C104.654 31.6289 105.466 31.9301 105.776 32.6031C109.003 39.6168 115.864 44.1486 123.254 44.1486C130.653 44.1486 137.517 39.6089 140.741 32.5836C140.969 32.0869 141.47 31.7925 141.995 31.7925ZM12.8526 23.9902V27.5422H22.7416V29.3179C22.7416 29.8761 22.2913 30.3316 21.7263 30.3565L21.6776 30.3576H12.8526V35.699H9.66518V23.9902H12.8526ZM79.4495 11.1662L79.4508 13.0646C79.4508 13.6013 79.0176 14.0396 78.4729 14.0645L78.4246 14.0656L72.6653 14.0691V18.505H79.5955V20.1896C79.5955 20.7144 79.1443 21.1427 78.5778 21.1667L78.5275 21.1678H77.6247V35.6127H74.4227V21.1678H72.6653V31.9873C72.6656 31.9925 72.6658 32.001 72.6659 32.0125L72.6659 32.0395C72.6633 32.313 72.5885 33.4934 71.6228 34.4641C70.8409 35.2503 69.7361 35.6633 68.3386 35.6971L68.2247 35.699V32.7999C69.1361 32.7862 69.643 32.5216 69.6884 32.0288L69.6911 31.9883V12.6205C69.6911 11.8373 70.3285 11.1993 71.1251 11.172L71.1773 11.1711L79.4495 11.1662ZM40.5935 26.2204V27.3468H51.1685V29.0945C51.1685 29.6592 50.7168 30.1199 50.1503 30.1451L50.1015 30.1462H41.9646C43.0543 31.2287 45.5313 32.7044 50.9694 32.7685L51.1351 32.77L51.1158 35.699C46.5386 35.6696 43.0271 34.7433 40.6788 32.9459C39.6203 32.1357 39.0164 31.3003 38.6785 30.6821C38.3406 31.3003 37.7368 32.1357 36.6782 32.9459C34.3626 34.7183 30.9158 35.6437 26.4314 35.6973L26.2413 35.699L26.222 32.77C31.72 32.7346 34.2412 31.2693 35.3591 30.1791L35.3925 30.1462H27.2198C26.6471 30.1462 26.1794 29.7011 26.1539 29.1426L26.1528 29.0945V27.3468H36.6792V26.2204H40.5935ZM60.2651 30.1234C60.2525 30.7722 60.095 32.6127 58.7709 34.0432C57.7753 35.118 56.4041 35.6746 54.6942 35.6983L54.5797 35.699V32.6848C55.5139 32.6848 56.2151 32.4438 56.664 31.9687C57.2365 31.3628 57.339 30.4836 57.3571 30.1513L57.3585 30.1234H60.2651ZM64.4085 30.1234C64.4194 30.658 64.6038 32.2722 66.4252 32.6178C66.5454 32.6385 66.8713 32.669 67.047 32.6707L67.0876 32.6705V35.699C66.62 35.699 66.059 35.6293 65.8683 35.5931C62.3654 34.9286 61.4298 31.9086 61.4028 30.1755L61.4022 30.1234H64.4085ZM142.809 17.681C146.263 17.681 149.063 20.4268 149.063 23.8143C149.063 27.2015 146.263 29.9474 142.809 29.9474C139.355 29.9474 136.555 27.2015 136.555 23.8143C136.555 20.4268 139.355 17.681 142.809 17.681ZM157.376 17.681C159.693 17.681 161.571 19.4596 161.571 21.6537C161.571 23.8234 159.734 25.5869 157.452 25.6254L157.376 25.6261H153.476V29.9474H151.906V17.681H157.376ZM178.174 18.2386V20.7678H180V22.1258H178.174V27.793C178.174 28.2922 178.625 28.5275 179.09 28.5417L179.135 28.5424H180V29.9474H178.222C177.656 29.9474 176.627 29.2702 176.59 27.8714L176.589 27.793V18.2386H178.174ZM104.149 17.681C107.603 17.681 110.403 20.4268 110.403 23.8143C110.403 27.2015 107.603 29.9474 104.149 29.9474C100.695 29.9474 97.8947 27.2015 97.8947 23.8143C97.8947 20.4268 100.695 17.681 104.149 17.681ZM125.301 17.681L128.359 22.5691L131.322 17.681H134.85V29.9474H132.169V21.2778L128.876 26.581H127.747L124.408 21.2778L124.36 29.9474H121.773V17.681H125.301ZM91.8143 17.681C94.099 17.681 96.1055 18.819 97.245 20.5331L97.2986 20.6151L95.41 21.7841C94.7059 20.6317 93.3968 19.8573 91.8982 19.8573C89.6542 19.8573 87.8354 21.5931 87.8354 23.7342C87.8354 25.8753 89.6542 27.6109 91.8982 27.6109C93.3248 27.6109 94.5791 26.9093 95.3041 25.8481L95.3487 25.7813L97.3262 26.97C96.2021 28.7539 94.1543 29.9474 91.8143 29.9474C88.2645 29.9474 85.3868 27.2014 85.3868 23.8143C85.3868 20.427 88.2645 17.681 91.8143 17.681ZM164.424 17.681V29.9474H162.849V17.681H164.424ZM116.204 17.681C119.148 17.681 120.803 19.2068 120.92 19.3189L120.927 19.3254C120.927 19.3254 120.511 19.7839 120.088 20.2573L120.003 20.3521C119.721 20.6676 119.449 20.9766 119.306 21.1476C117.037 19.4142 114.166 19.681 114.166 21.1032C114.166 22.9698 121.205 21.9476 121.205 26.2142C121.205 27.3699 120.464 29.9474 116.204 29.9474C115.278 29.9474 112.823 29.8585 110.971 28.0365C111.09 27.8741 111.325 27.5752 111.577 27.2613L111.657 27.1618L111.737 27.0621C112.125 26.5815 112.499 26.1253 112.499 26.1253L112.5 26.1262L112.508 26.1336C112.52 26.1445 112.543 26.1659 112.577 26.1958L112.615 26.2284C113.023 26.5757 114.469 27.6808 116.342 27.6808C117.449 27.6808 118.473 27.2758 118.473 26.3919C118.473 24.6587 111.341 25.281 111.341 21.4587C111.341 19.9475 112.36 17.681 116.204 17.681ZM169.986 20.4688C171.232 20.4688 172.367 20.9441 173.216 21.722L173.286 21.7875V20.5736H174.883V29.8191H173.286V28.6287C172.43 29.4454 171.267 29.9474 169.986 29.9474C167.353 29.9474 165.218 27.8255 165.218 25.2081C165.218 22.5906 167.353 20.4688 169.986 20.4688ZM57.8381 10.6086V12.8835H62.802V10.6086H66.1116V12.8835H67.6561V14.75C67.6561 15.3186 67.1994 15.7824 66.6266 15.807L66.5786 15.8081H66.1116V26.6412H67.4353V28.5077C67.4353 29.0763 66.9786 29.5401 66.4058 29.5648L66.3578 29.5658H53.9517C53.3726 29.5658 52.9003 29.1173 52.8752 28.5548L52.8741 28.5077V26.6412H54.5295V15.9285C54.503 15.9025 54.4821 15.882 54.4613 15.8615L54.3933 15.7946C53.8141 15.7946 53.3419 15.3461 53.3168 14.7837L53.3157 14.7366V12.8835H54.5295V10.6086H57.8381ZM170.015 22.0329C168.235 22.0329 166.792 23.4546 166.792 25.2081C166.792 26.9616 168.235 28.3832 170.015 28.3832C171.796 28.3832 173.239 26.9616 173.239 25.2081C173.239 23.4546 171.796 22.0329 170.015 22.0329ZM142.809 19.9393C140.627 19.9393 138.858 21.6743 138.858 23.8143C138.858 25.9542 140.627 27.6889 142.809 27.6889C144.991 27.6889 146.76 25.9542 146.76 23.8143C146.76 21.6743 144.991 19.9393 142.809 19.9393ZM104.149 19.9393C101.966 19.9393 100.197 21.6743 100.197 23.8143C100.197 25.9542 101.966 27.6889 104.149 27.6889C106.331 27.6889 108.1 25.9542 108.1 23.8143C108.1 21.6743 106.331 19.9393 104.149 19.9393ZM40.9686 11.1662V12.9392H47.4354C49.1389 12.9392 50.0042 13.7288 50.0308 15.3063L50.0314 15.382V26.4274C50.0202 26.536 49.9956 26.6333 49.963 26.7242L49.9425 26.778H46.9871C46.9676 26.732 46.9477 24.785 46.9314 22.5933L46.93 22.4076L46.9287 22.2209L46.9273 22.0334L46.9252 21.7254L46.9224 21.3114L46.921 21.1049C46.9205 21.0362 46.9201 20.9675 46.9197 20.8991L46.9183 20.6943L46.9171 20.4909C46.9052 18.5978 46.897 16.9156 46.8952 16.5278L46.895 16.4919L46.8948 16.4562L46.8948 16.4441C46.7589 16.1808 46.5937 16.0085 46.3968 15.9289L46.3541 15.9132H31.5358C31.264 15.9802 31.0875 16.1415 31.0083 16.3954L30.9946 16.4441V26.4274C30.9839 26.536 30.959 26.6333 30.9266 26.7242L30.9062 26.778H27.9507C27.9131 26.6895 27.8831 26.5955 27.8666 26.4913L27.8584 26.4274V15.276C27.8584 13.7444 28.66 12.9646 30.2662 12.9398L30.3459 12.9392H37.0728V11.1662H40.9686ZM62.3281 24.6911H58.312C58.0617 24.6911 57.8567 24.8817 57.8393 25.1233L57.8381 25.1565V26.1758C57.8381 26.4216 58.0322 26.623 58.2782 26.64L58.312 26.6412H62.3281C62.5785 26.6412 62.7835 26.4505 62.8009 26.209L62.802 26.1758V25.1565C62.802 24.8995 62.5899 24.6911 62.3281 24.6911ZM40.5576 16.1843V19.8495H46.0517V21.2353C46.0517 21.7845 45.5966 22.2326 45.0247 22.2571L44.9754 22.2582H43.1163C43.1501 22.7171 43.3687 23.589 44.5211 23.7956C44.6086 23.8095 44.8641 23.8323 44.9831 23.8319L45.0144 23.8311L45.1813 26.1998C45.1203 26.2037 45.0554 26.2055 44.989 26.2055C44.6159 26.2055 44.186 26.1513 44.0581 26.1283C41.4406 25.6595 40.6816 23.5802 40.6176 22.3034L40.6156 22.2582H40.5576V25.9234H37.3019L37.3215 22.2582H37.281C37.2525 22.8088 37.0738 24.0378 36.092 25.0088C35.5443 25.5502 34.5416 26.1936 32.8581 26.2196L32.752 26.2204V23.8464C33.4418 23.8464 33.9561 23.6876 34.28 23.3741C34.6257 23.04 34.7361 22.5712 34.7715 22.2947L34.7759 22.2582H32.9144C32.3367 22.2582 31.8651 21.8253 31.8393 21.2821L31.8382 21.2353V19.8495H37.3175V16.1843H40.5576ZM157.327 19.075H153.476V24.2325H157.327C158.831 24.2325 160.05 23.0778 160.05 21.6537C160.05 20.2294 158.831 19.075 157.327 19.075ZM12.8903 11.1733V14.5783H23.4749V16.3337C23.4749 16.9109 22.9997 17.3788 22.4134 17.3788H12.8903V20.5401H24.9965V22.3247C24.9965 22.9019 24.5212 23.3698 23.9349 23.3698H1.06161C0.475297 23.3698 0 22.9019 0 22.3247V20.5401H9.71006V11.1733H12.8903ZM62.3281 20.2498H58.312C58.0617 20.2498 57.8567 20.4405 57.8393 20.682L57.8381 20.7152V21.734C57.8381 21.9799 58.0322 22.1812 58.2782 22.1983L58.312 22.1994H62.3281C62.5785 22.1994 62.7835 22.0088 62.8009 21.7673L62.802 21.734V20.7152C62.802 20.4583 62.5899 20.2498 62.3281 20.2498ZM44.3285 16.7418C44.3822 17.505 44.3646 18.4954 43.4978 19.4637L43.4374 19.5296H40.9348C41.9928 18.8907 42.0434 17.0704 42.0134 16.7571L42.0117 16.7418H44.3285ZM35.3095 16.7418C35.277 17.0005 35.3084 18.814 36.3308 19.4943L36.3865 19.5296H33.8839C32.9781 18.5626 32.9392 17.5676 32.9893 16.7942L32.9928 16.7418H35.3095ZM62.3281 15.8081H58.312C58.0617 15.8081 57.8567 15.9988 57.8393 16.2403L57.8381 16.2735V17.2928C57.8381 17.5387 58.0322 17.74 58.2782 17.757L58.312 17.7582H62.3281C62.5785 17.7582 62.7835 17.5676 62.8009 17.3261L62.802 17.2928V16.2735C62.802 16.0165 62.5899 15.8081 62.3281 15.8081ZM123.653 0C127.923 0 132.068 1.26228 135.641 3.65116C139.102 5.96532 141.87 9.22115 143.646 13.0669C143.955 13.7362 143.645 14.5213 142.953 14.82C142.771 14.8985 142.581 14.9358 142.394 14.9358C141.869 14.9358 141.368 14.6431 141.141 14.1495C137.917 7.16665 131.052 2.65448 123.653 2.65448C116.263 2.65448 109.402 7.1588 106.175 14.13C105.865 14.7989 105.054 15.0983 104.362 14.7986C103.671 14.499 103.361 13.7139 103.671 13.0448C105.449 9.205 108.217 5.95438 111.676 3.6446C115.246 1.26027 119.388 0 123.653 0Z" fill="#004BAA"/>
</g>
<defs>
<clipPath id="clip0_509_45">
<rect width="180" height="47" fill="white"/>
</clipPath>
</defs>
</svg>
