<svg width="300" height="46" viewBox="0 0 300 46" fill="none" xmlns="http://www.w3.org/2000/svg">
<path d="M49.5165 8.59052C49.0297 8.35285 48.8188 8.8071 48.5352 9.03902C48.4374 9.11377 48.355 9.21152 48.2726 9.29969C47.5596 10.0606 46.7278 10.5589 45.641 10.4995C44.0521 10.4114 42.6952 10.9097 41.4953 12.1249C41.2404 10.626 40.3933 9.73285 39.1053 9.15785C38.4306 8.85885 37.7483 8.56177 37.2749 7.91202C36.9452 7.4501 36.8551 6.93452 36.6903 6.42852C36.5849 6.12185 36.4795 5.80944 36.1287 5.75769C35.7454 5.69827 35.5959 6.01835 35.4464 6.28669C34.8465 7.38302 34.6146 8.59052 34.6376 9.81335C34.6893 12.5657 35.8508 14.7584 38.1604 16.3166C38.4229 16.4949 38.49 16.675 38.4076 16.9357C38.2505 17.4724 38.0626 17.9937 37.8978 18.5323C37.7924 18.8754 37.6352 18.9482 37.2672 18.8006C36.0238 18.2662 34.8943 17.4985 33.9399 16.5389C32.2974 14.9519 30.8139 13.2001 28.9624 11.8278C28.5334 11.5108 28.0929 11.2097 27.6418 10.925C25.7539 9.09077 27.891 7.58427 28.3855 7.40602C28.903 7.21819 28.5637 6.57802 26.8924 6.58569C25.2211 6.59335 23.6916 7.1511 21.7424 7.89669C21.4527 8.00768 21.1547 8.09549 20.8511 8.15927C19.0296 7.81606 17.1667 7.75015 15.3255 7.96377C11.7126 8.36627 8.82803 10.0759 6.7063 12.9912C4.15716 16.4949 3.55725 20.4777 4.29133 24.6292C5.06374 29.0069 7.29855 32.6313 10.7313 35.4641C14.2924 38.4024 18.3921 39.8418 23.0706 39.5658C25.9111 39.4029 29.0755 39.0214 32.6423 36.0008C33.5432 36.4493 34.4862 36.6275 36.054 36.7617C37.2615 36.8748 38.423 36.7042 39.3219 36.5164C40.7306 36.2174 40.6328 34.9121 40.1249 34.6744C35.9946 32.7501 36.9011 33.534 36.0751 32.8996C38.1757 30.4156 41.3382 27.8358 42.5763 19.4772C42.6722 18.8121 42.5897 18.3943 42.5763 17.8576C42.5687 17.5318 42.6434 17.4034 43.0171 17.3669C44.0541 17.2594 45.0601 16.9501 45.9784 16.4565C48.654 14.9941 49.735 12.5944 49.9899 9.7156C50.0282 9.27477 49.9822 8.82244 49.5165 8.59052ZM26.1967 34.5C22.1928 31.3529 20.2512 30.3159 19.4501 30.36C18.6988 30.406 18.8348 31.2628 18.9997 31.8224C19.1722 32.3744 19.3964 32.7539 19.7107 33.2389C19.9292 33.5589 20.0787 34.0362 19.4942 34.3946C18.2043 35.1919 15.9637 34.1263 15.8583 34.0745C13.2497 32.5374 11.0667 30.5095 9.53144 27.7361C8.04795 25.0662 7.18546 22.2027 7.04363 19.1456C7.0053 18.4058 7.22188 18.1451 7.95787 18.0109C8.92407 17.826 9.91405 17.8008 10.8884 17.9362C14.9747 18.5342 18.4515 20.3608 21.3686 23.253C23.0323 24.9014 24.2915 26.8698 25.5891 28.7941C26.9691 30.8373 28.4526 32.7846 30.3424 34.3793C31.0094 34.9389 31.5403 35.3644 32.0501 35.6769C30.513 35.8494 27.9485 35.8877 26.1967 34.5ZM28.1133 22.1567C28.113 22.0615 28.1358 21.9676 28.1799 21.8832C28.224 21.7988 28.2879 21.7264 28.3662 21.6722C28.4445 21.6181 28.5348 21.5838 28.6294 21.5724C28.7239 21.5609 28.8198 21.5727 28.9087 21.6066C29.0221 21.6473 29.12 21.7223 29.1887 21.8213C29.2574 21.9202 29.2935 22.0381 29.292 22.1586C29.2923 22.2364 29.2771 22.3135 29.2472 22.3854C29.2174 22.4573 29.1736 22.5225 29.1183 22.5773C29.063 22.6321 28.9973 22.6753 28.9251 22.7044C28.853 22.7336 28.7757 22.748 28.6979 22.747C28.6207 22.7473 28.5441 22.7321 28.4728 22.7025C28.4015 22.6728 28.3368 22.6292 28.2826 22.5742C28.2283 22.5193 28.1856 22.454 28.1568 22.3823C28.1281 22.3106 28.112 22.2339 28.1133 22.1567ZM34.0741 25.2157C33.6908 25.3709 33.3093 25.5051 32.9433 25.5224C32.3925 25.5416 31.8521 25.3695 31.4138 25.0355C30.8886 24.5947 30.513 24.3494 30.3558 23.5827C30.3016 23.208 30.312 22.8268 30.3865 22.4557C30.5206 21.8289 30.3711 21.4264 29.9284 21.0623C29.57 20.7633 29.1119 20.6809 28.6097 20.6809C28.4378 20.6709 28.2708 20.6196 28.1229 20.5314C27.9121 20.4279 27.7396 20.1672 27.9044 19.8452C27.9581 19.7417 28.2111 19.4887 28.2724 19.4427C28.9547 19.0555 29.7425 19.182 30.4689 19.4734C31.1435 19.7494 31.6534 20.2554 32.3874 20.9722C33.1368 21.8366 33.2729 22.0762 33.7003 22.724C34.0377 23.2319 34.3443 23.7533 34.5532 24.3494C34.6817 24.7231 34.5168 25.0279 34.0741 25.2157Z" fill="#4D6BFE"/>
<path fill-rule="evenodd" clip-rule="evenodd" d="M276.137 0H269.984V37.191H276.137V0ZM66.6743 9.99542H70.1818V15.4349H66.6743C64.4989 15.4349 62.3043 15.9754 60.8879 17.4819C59.4735 18.9865 58.9406 21.2961 58.9406 23.6038C58.9406 25.9114 59.4524 28.2191 60.8879 29.7237C62.3254 31.2302 64.4989 31.7707 66.6724 31.7707C68.8478 31.7707 71.0423 31.2302 72.4568 29.7237C73.8732 28.2191 74.406 25.9095 74.406 23.6038V1.24392H80.5585V37.191H74.406V34.9025H73.2771C73.1595 35.0344 73.0368 35.1617 72.9091 35.2839C71.3701 36.6888 69.0107 37.191 66.6935 37.191C63.0633 37.191 59.4332 36.2863 57.0527 33.7793C54.6761 31.2685 53.8328 27.4141 53.8328 23.5808C53.8328 19.7474 54.6953 15.9141 57.0527 13.3841C59.4332 10.8771 63.0633 9.99158 66.6743 9.99158V9.99542ZM160.329 36.225H156.822V30.7874H160.329C162.503 30.7874 164.699 30.245 166.112 28.7404C167.528 27.2358 168.061 24.9263 168.061 22.6186C168.061 20.3109 167.549 18.0033 166.112 16.4968C164.676 14.9922 162.503 14.4498 160.329 14.4498C158.156 14.4498 155.959 14.9922 154.545 16.4968C153.13 18.0033 152.596 20.3109 152.596 22.6186V44.9573H146.443V9.03133H152.596V11.3198H153.726C153.84 11.1913 153.959 11.0672 154.083 10.948L154.092 10.9384C155.632 9.5335 157.991 9.03133 160.308 9.03133C163.94 9.03133 167.568 9.93408 169.949 12.443C172.327 14.9538 173.169 18.8063 173.169 22.6397C173.169 26.473 172.306 30.3063 169.949 32.8344C167.591 35.3644 163.94 36.225 160.329 36.225ZM111.428 25.3077V23.1227C111.428 19.1667 110.546 15.1934 108.066 12.5848C105.603 9.97433 101.81 9.05242 98.0555 9.05242C94.3027 9.05242 90.5269 9.99542 88.0468 12.5848C85.5647 15.1723 84.6831 19.1667 84.6831 23.1208C84.6831 27.0748 85.5839 31.0481 88.0468 33.6586C90.5078 36.2653 94.3027 37.191 98.0555 37.191C101.81 37.191 105.603 36.2461 108.066 33.6586C109.337 32.3323 110.178 30.6264 110.711 28.7404H104.639C104.459 28.9838 104.267 29.2185 104.064 29.4438C102.588 31.0078 100.311 31.5713 98.0555 31.5713C95.7996 31.5713 93.5227 30.9887 92.0449 29.4438C90.5691 27.8971 90.0363 25.4898 90.0363 23.1208C90.0363 20.7518 90.5691 18.3636 92.0468 16.7996C93.5227 15.2337 95.7996 14.6721 98.0555 14.6721C100.311 14.6721 102.588 15.2337 104.066 16.7996C105.092 17.8825 105.665 19.3679 105.912 20.953H95.0406V25.3077H111.428ZM142.32 23.1208V25.3077H125.933V20.953H136.802C136.555 19.3679 135.982 17.8825 134.957 16.7996C133.481 15.2337 131.202 14.6721 128.946 14.6721C126.69 14.6721 124.413 15.2337 122.935 16.7996C121.46 18.3636 120.925 20.7537 120.925 23.1208C120.925 25.4898 121.46 27.8971 122.937 29.4438C124.413 30.9887 126.69 31.5713 128.946 31.5713C131.202 31.5713 133.479 31.0078 134.957 29.4438C135.162 29.2215 135.346 28.9819 135.53 28.7404H141.602C141.069 30.6283 140.227 32.3323 138.957 33.6586C136.494 36.2461 132.701 37.191 128.946 37.191C125.191 37.191 121.398 36.2672 118.937 33.6586C116.474 31.0481 115.572 27.0748 115.572 23.1208C115.572 19.1667 116.453 15.1723 118.935 12.5848C121.419 9.99542 125.191 9.05242 128.946 9.05242C132.701 9.05242 136.494 9.97433 138.955 12.5848C141.439 15.1915 142.32 19.1667 142.32 23.1208ZM200.715 35.1038C198.254 36.6486 194.461 37.191 190.706 37.191C186.953 37.191 183.199 36.6275 180.717 35.1018C178.235 33.5781 177.353 31.211 177.353 28.8803H184.573C184.573 29.785 185.004 30.7069 186.152 31.2896C187.302 31.8723 189.104 32.0927 190.871 32.0927C192.634 32.0927 194.419 31.8723 195.586 31.2877C196.757 30.7069 197.167 29.785 197.167 28.8803C197.167 27.9795 196.757 27.0557 195.588 26.473C194.419 25.8903 192.469 25.6699 190.706 25.6699C187.3 25.6699 183.877 25.1083 181.64 23.5808C179.404 22.057 178.604 19.6899 178.604 17.3612C178.604 15.0324 179.404 12.6845 181.64 11.1397C183.877 9.59292 187.3 9.0505 190.706 9.0505C194.11 9.0505 197.537 9.614 199.772 11.1397C202.009 12.6634 202.808 15.0324 202.808 17.3612H196.552C196.552 16.4584 196.163 15.5557 195.116 14.9519C194.07 14.3712 192.45 14.1488 190.85 14.1488C189.25 14.1488 187.63 14.3501 186.583 14.9538C185.518 15.5346 185.146 16.4584 185.146 17.3612C185.146 18.262 185.537 19.1667 186.583 19.7685C187.628 20.3512 189.106 20.5735 190.706 20.5735C194.461 20.5735 198.254 21.1332 200.715 22.6588C203.197 24.1845 204.081 26.5535 204.081 28.8803C204.081 31.2091 203.178 33.557 200.715 35.1038ZM234.969 23.1208V25.3077H218.582V20.953H229.453C229.206 19.3679 228.631 17.8825 227.607 16.7996C226.13 15.2337 223.853 14.6721 221.597 14.6721C219.341 14.6721 217.062 15.2337 215.586 16.7996C214.11 18.3636 213.577 20.7537 213.577 23.1208C213.577 25.4898 214.11 27.8971 215.586 29.4438C217.062 30.9887 219.341 31.5713 221.595 31.5713C223.853 31.5713 226.13 31.0078 227.607 29.4438C227.81 29.2215 227.996 28.9819 228.182 28.7404H234.252C233.718 30.6283 232.878 32.3323 231.607 33.6586C229.146 36.2461 225.35 37.191 221.595 37.191C217.844 37.191 214.047 36.2672 211.586 33.6586C209.125 31.0481 208.224 27.0748 208.224 23.1208C208.224 19.1667 209.106 15.1723 211.586 12.5848C214.07 9.99542 217.844 9.05242 221.595 9.05242C225.351 9.05242 229.146 9.97433 231.607 12.5848C234.087 15.1915 234.969 19.1667 234.969 23.1208ZM265.86 25.3077V23.1227C265.86 19.1667 264.978 15.1934 262.498 12.5848C260.035 9.97433 256.24 9.05242 252.487 9.05242C248.733 9.05242 244.959 9.99542 242.479 12.5848C239.995 15.1723 239.113 19.1667 239.113 23.1208C239.113 27.0748 240.016 31.0481 242.479 33.6586C244.94 36.2653 248.733 37.191 252.487 37.191C256.24 37.191 260.035 36.2461 262.498 33.6586C263.769 32.3323 264.61 30.6264 265.143 28.7404H259.071L259.048 28.7711C258.87 29.0011 258.693 29.2311 258.496 29.4419C257.02 31.0078 254.745 31.5694 252.487 31.5694C250.231 31.5694 247.954 30.9887 246.477 29.4419C245.001 27.8971 244.466 25.4898 244.466 23.1208C244.466 20.7518 245.001 18.3636 246.477 16.7996C247.954 15.2337 250.231 14.6721 252.487 14.6721C254.745 14.6721 257.02 15.2337 258.496 16.7996C259.523 17.8825 260.098 19.3679 260.344 20.953H249.472V25.3077H265.86ZM296.729 37.191L286.64 22.2793L296.729 10.2963H289.12L279.029 22.2774L289.12 37.1891L296.729 37.191Z" fill="black"/>
</svg>
