<svg width="50" height="46" viewBox="0 0 50 46" fill="none" xmlns="http://www.w3.org/2000/svg">
<mask id="mask0_316_188" style="mask-type:luminance" maskUnits="userSpaceOnUse" x="0" y="0" width="51" height="46">
<path d="M50.0018 0H0.551788V46H50.0018V0Z" fill="white"/>
</mask>
<g mask="url(#mask0_316_188)">
<path d="M31.6018 21.85L12.0518 18.4V43.8921C12.0518 45.0563 12.9956 46 14.1598 46H47.8938C49.0582 46 50.0018 45.0563 50.0018 43.8921V34.5001L31.6018 21.85Z" fill="#185C37"/>
<path d="M31.6018 0H14.1598C12.9956 0 12.0518 0.943756 12.0518 2.10795V11.5L31.6018 23L41.9518 26.45L50.0018 23V11.5L31.6018 0Z" fill="#21A366"/>
<path d="M12.0518 11.5H31.6018V23H12.0518V11.5Z" fill="#107C41"/>
<path opacity="0.1" d="M26.0438 9.20007H12.0518V37.95H26.0438C27.2065 37.9463 28.148 37.0047 28.1518 35.8421V11.308C28.148 10.1454 27.2065 9.20384 26.0438 9.20007Z" fill="black"/>
<path opacity="0.2" d="M24.8938 10.3501H12.0518V39.1001H24.8938C26.0564 39.0963 26.998 38.1548 27.0018 36.9922V12.458C26.998 11.2954 26.0564 10.3539 24.8938 10.3501Z" fill="black"/>
<path opacity="0.2" d="M24.8938 10.3501H12.0518V36.8001H24.8938C26.0564 36.7963 26.998 35.8548 27.0018 34.6922V12.458C26.998 11.2954 26.0564 10.3539 24.8938 10.3501Z" fill="black"/>
<path opacity="0.2" d="M23.7438 10.3501H12.0518V36.8001H23.7438C24.9064 36.7963 25.848 35.8548 25.8518 34.6922V12.458C25.848 11.2954 24.9064 10.3539 23.7438 10.3501Z" fill="black"/>
<path d="M2.65974 10.3501H23.7438C24.908 10.3501 25.8518 11.2938 25.8518 12.458V33.5421C25.8518 34.7063 24.908 35.6501 23.7438 35.6501H2.65974C1.49554 35.6501 0.551788 34.7063 0.551788 33.5422V12.458C0.551788 11.2938 1.49554 10.3501 2.65974 10.3501Z" fill="url(#paint0_linear_316_188)"/>
<path d="M7.08035 29.8518L11.5148 22.9805L7.45181 16.1472H10.7201L12.9373 20.5172C13.142 20.9323 13.2823 21.2405 13.3582 21.4441H13.387C13.5326 21.1129 13.6859 20.7913 13.8469 20.4792L16.2171 16.1495H19.2174L15.051 22.9426L19.3232 29.8517H16.1309L13.5698 25.0551C13.4492 24.851 13.3468 24.6367 13.2639 24.4145H13.226C13.151 24.6321 13.0514 24.8405 12.9293 25.0356L10.2923 29.8518H7.08035Z" fill="white"/>
<path d="M47.8938 0H31.6018V11.5H50.0018V2.10795C50.0018 0.943756 49.0582 0 47.8938 0Z" fill="#33C481"/>
<path d="M31.6018 23H50.0018V34.5H31.6018V23Z" fill="#107C41"/>
</g>
<defs>
<linearGradient id="paint0_linear_316_188" x1="4.94691" y1="8.70299" x2="21.4567" y2="37.2972" gradientUnits="userSpaceOnUse">
<stop stop-color="#18884F"/>
<stop offset="0.5" stop-color="#117E43"/>
<stop offset="1" stop-color="#0B6631"/>
</linearGradient>
</defs>
</svg>
