<svg width="174" height="46" viewBox="0 0 174 46" fill="none" xmlns="http://www.w3.org/2000/svg">
<path d="M85.9551 35.5346C80.9876 35.5346 76.9793 31.4989 76.9793 26.574C76.9793 21.6149 81.0219 17.6134 85.9551 17.6134C90.9226 17.6134 94.9309 21.6491 94.9309 26.574C94.9309 31.5331 90.9226 35.5346 85.9551 35.5346ZM85.9551 20.5547C82.632 20.5547 79.9256 23.2565 79.9256 26.574C79.9256 29.8915 82.632 32.5933 85.9551 32.5933C89.2782 32.5933 91.9846 29.8915 91.9846 26.574C91.9846 23.2565 89.2782 20.5547 85.9551 20.5547ZM111.204 34.9874H109.936C109.457 34.9874 109.08 34.6112 109.08 34.1324V24.7272C109.08 22.1279 106.956 19.939 104.352 19.9733C101.817 20.0075 99.7956 22.0937 99.7956 24.6246V34.1666C99.7956 34.6454 99.4188 35.0216 98.9392 35.0216H97.6716C97.192 35.0216 96.8151 34.6454 96.8151 34.1666V24.7614C96.8151 20.6231 100.035 17.1346 104.181 17.032C108.463 16.8952 111.992 20.3495 111.992 24.6246V34.1666C112.06 34.6112 111.683 34.9874 111.204 34.9874ZM158.001 34.9874H156.185C155.877 34.9874 155.637 34.748 155.637 34.4402V24.7272C155.637 22.1279 153.513 19.939 150.91 19.9733C148.374 20.0075 146.353 22.0937 146.353 24.6246V34.4744C146.353 34.7822 146.113 35.0216 145.805 35.0216H143.989C143.681 35.0216 143.441 34.7822 143.441 34.4744V24.7614C143.441 20.6231 146.662 17.1346 150.807 17.032C155.089 16.8952 158.618 20.3495 158.618 24.6246V34.4744C158.549 34.748 158.31 34.9874 158.001 34.9874ZM132.239 35.5346C127.271 35.5346 123.263 31.4989 123.263 26.574C123.263 21.6149 127.305 17.6134 132.239 17.6134C137.206 17.6134 141.214 21.6491 141.214 26.574C141.214 31.5331 137.172 35.5346 132.239 35.5346ZM132.239 20.5547C128.916 20.5547 126.209 23.2565 126.209 26.574C126.209 29.8915 128.916 32.5933 132.239 32.5933C135.562 32.5933 138.268 29.8915 138.268 26.574C138.268 23.2565 135.562 20.5547 132.239 20.5547ZM71.909 29.5153C70.8128 31.4647 68.6545 32.7643 66.2221 32.5591C63.3786 32.3539 61.049 30.0967 60.7407 27.258C60.3296 23.6669 63.1731 20.5889 66.7017 20.5889C68.8943 20.5889 70.8128 21.7517 71.8405 23.4959C71.9433 23.6669 72.1146 23.7695 72.3201 23.7695H74.4442C74.8553 23.7695 75.1294 23.3591 74.9581 22.9829C73.4849 19.6312 70.0248 17.3056 66.0851 17.5792C61.6314 17.887 58 21.4781 57.6917 25.9242C57.3148 31.1911 61.4944 35.5688 66.7017 35.5688C70.4702 35.5688 73.7248 33.2431 75.0608 29.9599C75.1979 29.5837 74.9238 29.2075 74.547 29.2075H72.4229C72.1831 29.2075 72.0118 29.3101 71.909 29.5153ZM54.3686 35.09H52.5529C52.2445 35.09 52.0047 34.8506 52.0047 34.5428V18.4684C52.0047 18.1606 52.2445 17.9212 52.5529 17.9212H54.3686C54.6769 17.9212 54.9167 18.1606 54.9167 18.4684V34.5428C54.9167 34.8506 54.6769 35.09 54.3686 35.09ZM118.501 34.9874H116.685C116.377 34.9874 116.137 34.748 116.137 34.4402V16.69C116.137 14.0907 118.261 11.9703 120.865 11.9703H122.509C122.817 11.9703 123.057 12.2097 123.057 12.5175V14.3643C123.057 14.6721 122.817 14.9115 122.509 14.9115H120.865C119.905 14.9115 119.118 15.6982 119.118 16.6558V34.406C119.049 34.748 118.809 34.9874 118.501 34.9874ZM165.058 12.3807H163.243C162.934 12.3807 162.695 12.6201 162.695 12.9279V30.6781C162.695 33.2773 164.819 35.3978 167.422 35.3978H169.067C169.375 35.3978 169.615 35.1584 169.615 34.8506V33.0379C169.615 32.7301 169.375 32.4907 169.067 32.4907H167.422C166.463 32.4907 165.675 31.7041 165.675 30.7465V12.9279C165.607 12.6201 165.367 12.3807 165.058 12.3807Z" fill="white"/>
<path d="M122.646 21.2387H114.15C113.842 21.2387 113.602 20.9993 113.602 20.6915V18.8788C113.602 18.571 113.842 18.3316 114.15 18.3316H122.646C122.955 18.3316 123.194 18.571 123.194 18.8788V20.6915C123.194 20.9993 122.955 21.2387 122.646 21.2387ZM167.868 20.9651H161.05C160.742 20.9651 160.502 20.7257 160.502 20.4178V18.6052C160.502 18.2974 160.742 18.058 161.05 18.058H167.868C168.176 18.058 168.416 18.2974 168.416 18.6052V20.4178C168.416 20.7257 168.176 20.9651 167.868 20.9651ZM162.66 14.0223C162.66 13.7145 162.9 13.4751 163.208 13.4751H165.024C165.333 13.4751 165.572 13.7145 165.572 14.0223M55.2936 12.4149C55.2936 13.4067 54.4714 14.2275 53.4779 14.2275C52.4844 14.2275 51.6621 13.4067 51.6621 12.4149C51.6621 11.4231 52.4844 10.6022 53.4779 10.6022C54.4714 10.6022 55.2936 11.4231 55.2936 12.4149Z" fill="white"/>
<path d="M41.7614 24.7955C42.0354 25.1717 42.1725 25.6163 42.1382 26.0609C41.7614 35.2267 34.1902 42.5457 24.9061 42.5457C15.622 42.5457 8.0508 35.2267 7.67395 26.0609C7.63969 25.6163 7.77673 25.1717 8.0508 24.7955L23.4672 4.37767C24.2552 3.35165 25.7968 3.35165 26.5848 4.37767L41.7614 24.7955Z" fill="#00F9E5"/>
<path d="M19.3904 31.5673C15.896 34.7138 10.5517 34.4402 7.39988 30.9859C4.24808 27.4974 4.52215 22.1621 7.98228 19.0156C11.4767 15.8692 16.821 16.1428 19.9728 19.597C23.1246 23.0513 22.8848 28.4208 19.3904 31.5673Z" fill="white"/>
<path d="M13.7035 34.5428C11.1683 34.5428 8.6332 33.5167 6.81748 31.4989C3.39161 27.7026 3.66568 21.8201 7.4684 18.4C9.31837 16.7242 11.6822 15.8692 14.1488 16.006C16.6155 16.1428 18.9108 17.203 20.5895 19.0498C24.0154 22.8461 23.7413 28.7286 19.9386 32.1487C18.1571 33.7562 15.9303 34.5428 13.7035 34.5428ZM13.6692 17.5792C11.7507 17.5792 9.93503 18.2632 8.49616 19.5628C5.34436 22.4015 5.10455 27.2922 7.94802 30.4387C9.31837 31.9777 11.2369 32.8669 13.2924 32.9695C15.3479 33.0721 17.3349 32.3539 18.8423 30.9859C21.9941 28.1472 22.2339 23.2565 19.3904 20.1101C18.0201 18.571 16.1016 17.6818 14.0461 17.5792H13.6692Z" fill="#0C6066"/>
<path d="M10.6202 21.8885C8.77023 23.5643 8.6332 26.403 10.3119 28.2156C11.9905 30.0625 14.834 30.1993 16.6497 28.5234C17.2664 27.9762 17.6775 27.2922 17.9173 26.574L10.6202 21.8885Z" fill="#1E1E1E"/>
<path d="M13.3952 16.5532L22.782 3.65949C23.2959 2.97547 24.0839 2.56506 24.9403 2.56506C25.7968 2.56506 26.5848 2.97547 27.0986 3.65949L36.3485 16.5874L34.4985 16.7242L25.8996 4.61711C25.694 4.3435 25.3514 4.1725 24.9746 4.1725C24.5978 4.1725 24.2894 4.3435 24.0839 4.61711L15.0738 16.9294L13.3952 16.5532ZM10.4489 33.2089C11.2369 34.7138 12.2989 36.0818 13.5665 37.313C16.6155 40.2201 20.6237 41.8617 24.8376 41.8617C29.0514 41.8617 33.0597 40.2543 36.1087 37.313C37.479 36.0134 38.5753 34.5086 39.3975 32.8669L41.6243 31.6699C40.6994 34.2008 39.192 36.5264 37.205 38.4416C33.8476 41.6565 29.4625 43.435 24.8376 43.435C20.2283 43.4381 15.7966 41.661 12.4702 38.4758C10.5174 36.5948 9.0443 34.3718 8.11932 31.9093L10.4489 33.2089Z" fill="#0C6066"/>
<path d="M21.4802 28.6944C22.8163 25.6164 22.2682 21.8885 19.733 19.3234C16.5812 16.1428 11.4082 15.9718 8.0508 18.913C7.81099 19.1524 7.57118 19.3576 7.33137 19.6312C7.26285 19.6996 7.29711 19.8022 7.36562 19.8364L21.2404 28.7628C21.3089 28.797 21.446 28.7628 21.4802 28.6944Z" fill="url(#paint0_linear_194_8233)"/>
<path d="M21.4802 28.6944L22.1996 29.0022C22.7135 27.8052 22.9876 26.5398 22.9876 25.2743C22.9876 22.9145 22.0969 20.5546 20.3154 18.742C18.4997 16.9293 16.1016 16.0059 13.7035 16.0059C11.5109 16.0059 9.28411 16.7583 7.53692 18.3316C7.26285 18.571 6.98878 18.8446 6.74897 19.084C6.57767 19.2892 6.50916 19.4944 6.50916 19.7338C6.50916 20.0416 6.64619 20.3494 6.95452 20.5204L20.795 29.4126C20.9663 29.5152 21.1376 29.5494 21.3089 29.5494C21.4802 29.5494 21.6515 29.5152 21.8228 29.4126C21.9598 29.31 22.0969 29.1732 22.1996 29.0022L21.4802 28.6944L20.7608 28.3866L21.3432 28.6602L21.0006 28.113C20.8978 28.1814 20.795 28.284 20.7608 28.3866L21.3432 28.6602V28.0104C21.2061 28.0104 21.1034 28.0446 21.0006 28.113L21.3432 28.6602L21.6858 28.113C21.583 28.0446 21.446 28.0104 21.3432 28.0104V28.6602L21.6858 28.113L7.81099 19.1866L7.4684 19.7338H8.11931C8.11931 19.5286 8.01654 19.3234 7.81099 19.1866L7.4684 19.7338L7.94802 20.1784C8.0508 20.0416 8.11931 19.9048 8.11931 19.7338H7.4684L7.94802 20.1784C8.15357 19.9732 8.35913 19.7338 8.59894 19.5286C10.0378 18.2632 11.8535 17.6134 13.7035 17.6134C15.6905 17.6134 17.7118 18.3658 19.1849 19.8706C20.6923 21.3754 21.4117 23.3249 21.4117 25.2743C21.4117 26.3345 21.2061 27.3948 20.7608 28.3524L21.4802 28.6944Z" fill="#0C6066"/>
<path d="M30.3532 31.5673C33.8476 34.7138 39.192 34.4402 42.3438 30.9859C45.4956 27.4974 45.2215 22.1621 41.7614 19.0156C38.267 15.8692 32.9226 16.1428 29.7708 19.597C26.619 23.0513 26.8588 28.4208 30.3532 31.5673Z" fill="white"/>
<path d="M29.8051 32.1487C26.0024 28.7286 25.7283 22.8461 29.1542 19.0498C30.8328 17.203 33.0939 16.1428 35.5948 16.006C38.0614 15.8692 40.4595 16.7242 42.2753 18.4C46.078 21.8201 46.352 27.7026 42.9262 31.4989C41.1105 33.5167 38.5753 34.5428 36.0402 34.5428C33.8134 34.5428 31.5865 33.7562 29.8051 32.1487ZM35.6633 17.5792C33.6078 17.6818 31.7236 18.571 30.319 20.1101C27.4755 23.2565 27.7153 28.1472 30.8671 30.9859C32.4087 32.3539 34.3615 33.0721 36.417 32.9695C38.4725 32.8669 40.3568 31.9777 41.7614 30.4387C44.6048 27.2922 44.365 22.4015 41.2132 19.5628C39.7744 18.2632 37.9587 17.5792 36.0402 17.5792H35.6633Z" fill="#0C6066"/>
<path d="M39.1234 21.8542C40.9734 23.5301 41.1105 26.3687 39.4318 28.1814C37.7531 30.0282 34.9096 30.165 33.0939 28.4892C32.4773 27.942 32.0662 27.258 31.8263 26.5397L39.1234 21.8542Z" fill="#1E1E1E"/>
<path d="M28.2634 28.6603C26.9273 25.5822 27.4755 21.8543 30.0106 19.2892C33.1624 16.1086 38.3355 15.9376 41.6929 18.8788C41.9327 19.1182 42.1725 19.3234 42.4123 19.5971C42.4808 19.6655 42.4465 19.7681 42.378 19.8023L28.5032 28.7287C28.4005 28.7971 28.2977 28.7629 28.2634 28.6603Z" fill="url(#paint1_linear_194_8233)"/>
<path d="M28.2634 28.6602L28.9829 28.3524C28.5375 27.3606 28.332 26.3346 28.332 25.2743C28.332 23.3249 29.0514 21.3755 30.5588 19.8706C32.0319 18.3658 34.0532 17.6134 36.0402 17.6134C37.8559 17.6134 39.6716 18.2632 41.1447 19.5286C41.3845 19.7338 41.5901 19.939 41.7956 20.1784L42.2753 19.7338H41.6243C41.6243 19.8706 41.6929 20.0416 41.7956 20.1784L42.2753 19.7338L41.9327 19.1866C41.7614 19.3234 41.6243 19.5286 41.6243 19.7338H42.2753L41.9327 19.1866L28.0579 28.0788L28.4005 28.626V27.9762C28.2977 27.9762 28.1607 28.0104 28.0579 28.0788L28.4005 28.626L28.7431 28.0788C28.6403 28.0104 28.5375 27.9762 28.4005 27.9762V28.626L28.9829 28.3524C28.9144 28.2156 28.8458 28.113 28.7431 28.0788L28.4005 28.626L28.9829 28.3524L28.2634 28.6602L27.544 28.968C27.6125 29.139 27.7496 29.31 27.9209 29.3784C28.0579 29.481 28.2634 29.5152 28.4347 29.5152C28.606 29.5152 28.7773 29.481 28.9486 29.3784L42.8234 20.452C43.0975 20.281 43.2345 19.9732 43.2345 19.6654C43.2345 19.4602 43.166 19.2208 42.9947 19.0498C42.7549 18.7762 42.4808 18.5368 42.2067 18.2974C40.4595 16.7584 38.2327 15.9717 36.0402 15.9717C33.6421 15.9717 31.2097 16.8952 29.4282 18.7078C27.6468 20.5204 26.7561 22.8803 26.7561 25.2401C26.7561 26.5056 27.0301 27.771 27.544 28.968L28.2634 28.6602Z" fill="#0C6066"/>
<defs>
<linearGradient id="paint0_linear_194_8233" x1="10.5582" y1="16.5912" x2="22.1562" y2="28.2088" gradientUnits="userSpaceOnUse">
<stop stop-color="#00F9E5"/>
<stop offset="0.568" stop-color="#299DF4"/>
<stop offset="1" stop-color="#4A54FF"/>
</linearGradient>
<linearGradient id="paint1_linear_194_8233" x1="39.1781" y1="16.5675" x2="27.5801" y2="28.1851" gradientUnits="userSpaceOnUse">
<stop stop-color="#00F9E5"/>
<stop offset="0.568" stop-color="#299DF4"/>
<stop offset="1" stop-color="#4A54FF"/>
</linearGradient>
</defs>
</svg>
