<svg width="46" height="46" viewBox="0 0 46 46" fill="none" xmlns="http://www.w3.org/2000/svg">
<path d="M40.3268 25.2305C40.6008 25.6067 40.7378 26.0513 40.7035 26.4959C40.3268 35.6617 32.7584 42.9806 23.4776 42.9806C14.1968 42.9806 6.62837 35.6617 6.25166 26.4959C6.21742 26.0513 6.3544 25.6067 6.62837 25.2305L22.0393 4.81261C22.8269 3.78659 24.368 3.78659 25.1557 4.81261L40.3268 25.2305Z" fill="#00F9E5"/>
<path d="M17.9639 32.0022C14.4708 35.1487 9.12835 34.8751 5.97768 31.4208C2.82701 27.9323 3.10098 22.597 6.55987 19.4506C10.053 16.3041 15.3954 16.5777 18.5461 20.032C21.6968 23.4863 21.4571 28.8558 17.9639 32.0022Z" fill="white"/>
<path d="M12.279 34.9777C9.74479 34.9777 7.21055 33.9517 5.39549 31.9338C1.97085 28.1376 2.24482 22.255 6.04617 18.835C7.89548 17.1591 10.2585 16.3041 12.7242 16.4409C15.19 16.5777 17.4845 17.6379 19.1625 19.4848C22.5872 23.2811 22.3132 29.1636 18.5119 32.5837C16.7311 34.1911 14.505 34.9777 12.279 34.9777ZM12.2448 18.0141C10.327 18.0141 8.51192 18.6982 7.07357 19.9978C3.9229 22.8364 3.68317 27.7272 6.52562 30.8736C7.89548 32.4127 9.81328 33.3019 11.8681 33.4045C13.9228 33.5071 15.9091 32.7889 17.416 31.4208C20.5667 28.5822 20.8064 23.6915 17.9639 20.545C16.5941 19.006 14.6763 18.1167 12.6215 18.0141H12.2448Z" fill="#0C6066"/>
<path d="M9.19685 22.3234C7.34754 23.9993 7.21056 26.8379 8.88863 28.6506C10.5667 30.4974 13.4092 30.6342 15.2242 28.9584C15.8407 28.4112 16.2516 27.7271 16.4913 27.0089L9.19685 22.3234Z" fill="#1E1E1E"/>
<path d="M11.9708 16.9881L21.3543 4.09442C21.868 3.41041 22.6557 3 23.5119 3C24.368 3 25.1557 3.41041 25.6694 4.09442L34.9159 17.0223L33.0666 17.1591L24.4708 5.05204C24.2653 4.77844 23.9228 4.60743 23.5461 4.60743C23.1694 4.60743 22.8612 4.77844 22.6557 5.05204L13.6489 17.3643L11.9708 16.9881ZM9.02562 33.6439C9.81329 35.1487 10.8749 36.5167 12.142 37.748C15.19 40.655 19.1968 42.2967 23.4091 42.2967C27.6214 42.2967 31.6283 40.6892 34.6762 37.748C36.046 36.4483 37.1419 34.9435 37.9638 33.3019L40.1899 32.1048C39.2652 34.6357 37.7584 36.9613 35.7721 38.8766C32.4159 42.0914 28.0324 43.8699 23.4091 43.8699C18.8015 43.873 14.3714 42.096 11.0462 38.9108C9.09412 37.0297 7.62152 34.8067 6.69687 32.3442L9.02562 33.6439Z" fill="#0C6066"/>
<path d="M20.053 29.1294C21.3886 26.0513 20.8406 22.3234 18.3064 19.7584C15.1557 16.5777 9.98451 16.4067 6.62837 19.348C6.38864 19.5874 6.14892 19.7926 5.90919 20.0662C5.8407 20.1346 5.87494 20.2372 5.94344 20.2714L19.8132 29.1978C19.8817 29.232 20.0187 29.1978 20.053 29.1294Z" fill="url(#paint0_linear_198_8263)"/>
<path d="M20.053 29.1293L20.7721 29.4371C21.2858 28.2401 21.5598 26.9747 21.5598 25.7093C21.5598 23.3494 20.6694 20.9896 18.8886 19.1769C17.0735 17.3643 14.6763 16.4409 12.279 16.4409C10.0873 16.4409 7.86124 17.1933 6.11467 18.7665C5.8407 19.0059 5.56673 19.2795 5.32701 19.5189C5.15577 19.7241 5.08728 19.9293 5.08728 20.1687C5.08728 20.4765 5.22427 20.7844 5.53248 20.9554L19.368 29.8475C19.5393 29.9502 19.7105 29.9844 19.8817 29.9844C20.053 29.9844 20.2242 29.9502 20.3954 29.8475C20.5324 29.7449 20.6694 29.6081 20.7721 29.4371L20.053 29.1293L19.3338 28.8215L19.916 29.0951L19.5735 28.5479C19.4708 28.6163 19.368 28.7189 19.3338 28.8215L19.916 29.0951V28.4453C19.779 28.4453 19.6762 28.4795 19.5735 28.5479L19.916 29.0951L20.2584 28.5479C20.1557 28.4795 20.0187 28.4453 19.916 28.4453V29.0951L20.2584 28.5479L6.38864 19.6215L6.04618 20.1687H6.69686C6.69686 19.9635 6.59412 19.7583 6.38864 19.6215L6.04618 20.1687L6.52563 20.6133C6.62837 20.4765 6.69686 20.3397 6.69686 20.1687H6.04618L6.52563 20.6133C6.73111 20.4081 6.93659 20.1687 7.17631 19.9635C8.61466 18.6981 10.4297 18.0483 12.279 18.0483C14.2653 18.0483 16.2859 18.8007 17.7585 20.3055C19.2653 21.8104 19.9845 23.7598 19.9845 25.7093C19.9845 26.7695 19.779 27.8297 19.3338 28.7873L20.053 29.1293Z" fill="#0C6066"/>
<path d="M28.9228 32.0022C32.4159 35.1487 37.7584 34.8751 40.909 31.4208C44.0597 27.9323 43.7857 22.597 40.3268 19.4506C36.8337 16.3041 31.4913 16.5777 28.3406 20.032C25.1899 23.4863 25.4296 28.8558 28.9228 32.0022Z" fill="white"/>
<path d="M28.3748 32.5837C24.5735 29.1636 24.2995 23.2811 27.7242 19.4848C29.4022 17.6379 31.6625 16.5777 34.1625 16.4409C36.6282 16.3041 39.0255 17.1591 40.8405 18.835C44.6419 22.255 44.9158 28.1376 41.4912 31.9338C39.6761 33.9517 37.1419 34.9777 34.6077 34.9777C32.3817 34.9777 30.1556 34.1911 28.3748 32.5837ZM34.231 18.0141C32.1762 18.1167 30.2926 19.006 28.8885 20.545C26.0461 23.6915 26.2858 28.5822 29.4365 31.4208C30.9776 32.7889 32.9296 33.5071 34.9844 33.4045C37.0392 33.3019 38.9227 32.4127 40.3268 30.8736C43.1693 27.7272 42.9296 22.8364 39.7789 19.9978C38.3405 18.6982 36.5255 18.0141 34.6077 18.0141H34.231Z" fill="#0C6066"/>
<path d="M37.6899 22.2892C39.5392 23.965 39.6761 26.8037 37.9981 28.6163C36.32 30.4632 33.4775 30.6 31.6625 28.9241C31.0461 28.3769 30.6351 27.6929 30.3954 26.9747L37.6899 22.2892Z" fill="#1E1E1E"/>
<path d="M26.8337 29.0952C25.4981 26.0171 26.0461 22.2892 28.5803 19.7242C31.731 16.5435 36.9022 16.3725 40.2583 19.3138C40.4981 19.5532 40.7378 19.7584 40.9775 20.032C41.046 20.1004 41.0118 20.203 40.9433 20.2372L27.0735 29.1636C26.9707 29.232 26.868 29.1978 26.8337 29.0952Z" fill="url(#paint1_linear_198_8263)"/>
<path d="M26.8337 29.0952L27.5529 28.7873C27.1077 27.7955 26.9022 26.7695 26.9022 25.7093C26.9022 23.7598 27.6214 21.8104 29.1283 20.3056C30.6009 18.8007 32.6214 18.0483 34.6077 18.0483C36.4227 18.0483 38.2378 18.6981 39.7104 19.9636C39.9501 20.1688 40.1556 20.374 40.3611 20.6134L40.8405 20.1688H40.1898C40.1898 20.3056 40.2583 20.4766 40.3611 20.6134L40.8405 20.1688L40.4981 19.6215C40.3268 19.7583 40.1898 19.9636 40.1898 20.1688H40.8405L40.4981 19.6215L26.6283 28.5137L26.9707 29.061V28.4111C26.868 28.4111 26.731 28.4453 26.6283 28.5137L26.9707 29.061L27.3132 28.5137C27.2105 28.4453 27.1077 28.4111 26.9707 28.4111V29.061L27.5529 28.7873C27.4844 28.6505 27.4159 28.5479 27.3132 28.5137L26.9707 29.061L27.5529 28.7873L26.8337 29.0952L26.1146 29.403C26.1831 29.574 26.3201 29.745 26.4913 29.8134C26.6283 29.916 26.8337 29.9502 27.005 29.9502C27.1762 29.9502 27.3474 29.916 27.5187 29.8134L41.3885 20.887C41.6624 20.716 41.7994 20.4082 41.7994 20.1004C41.7994 19.8952 41.7309 19.6557 41.5597 19.4847C41.32 19.2111 41.046 18.9717 40.772 18.7323C39.0255 17.1933 36.7994 16.4067 34.6077 16.4067C32.2104 16.4067 29.7789 17.3301 27.9981 19.1427C26.2173 20.9554 25.3269 23.3152 25.3269 25.6751C25.3269 26.9405 25.6009 28.2059 26.1146 29.403L26.8337 29.0952Z" fill="#0C6066"/>
<defs>
<linearGradient id="paint0_linear_198_8263" x1="9.13487" y1="17.0261" x2="20.7329" y2="28.6396" gradientUnits="userSpaceOnUse">
<stop stop-color="#00F9E5"/>
<stop offset="0.568" stop-color="#299DF4"/>
<stop offset="1" stop-color="#4A54FF"/>
</linearGradient>
<linearGradient id="paint1_linear_198_8263" x1="37.7445" y1="17.0024" x2="26.1465" y2="28.6159" gradientUnits="userSpaceOnUse">
<stop stop-color="#00F9E5"/>
<stop offset="0.568" stop-color="#299DF4"/>
<stop offset="1" stop-color="#4A54FF"/>
</linearGradient>
</defs>
</svg>
