<svg width="177" height="46" fill="none" xmlns="http://www.w3.org/2000/svg"><path d="M.35 33.436 12.61 9.58c1.125-2.19 4.228-2.24 5.422-.087l13.187 23.765c1.335 2.404-.897 5.227-3.534 4.47l-10.862-3.118a3.065 3.065 0 0 0-1.691 0l-11.2 3.21c-2.592.743-4.815-1.979-3.58-4.383Z" fill="#3970E3"/><path d="m36.847 36.273 5.063 1.454c2.638.757 4.869-2.066 3.535-4.47L32.258 9.492c-1.195-2.153-4.298-2.103-5.423.087l-2.17 4.224 12.182 22.47Z" fill="#3970E3" opacity=".5"/><path fill-rule="evenodd" clip-rule="evenodd" d="M142.39 32.08c-1.389 0-2.614-.28-3.673-.84a6.132 6.132 0 0 1-2.448-2.358c-.573-1.013-.86-2.184-.86-3.512v-5.372c0-1.328.287-2.49.86-3.485a6.132 6.132 0 0 1 2.448-2.359c1.059-.559 2.284-.838 3.673-.838 1.372 0 2.587.27 3.646.812 1.059.524 1.876 1.25 2.449 2.175a5.59 5.59 0 0 1 .885 3.066v.131a.325.325 0 0 1-.104.236.28.28 0 0 1-.208.079h-3.699a.379.379 0 0 1-.234-.079.386.386 0 0 1-.079-.236c0-.681-.243-1.258-.729-1.73-.468-.488-1.111-.733-1.927-.733-.799 0-1.442.262-1.928.786s-.729 1.206-.729 2.044v5.634c0 .839.269 1.52.808 2.044.538.524 1.215.787 2.031.787.764 0 1.381-.201 1.85-.603.468-.42.703-.996.703-1.73v-.733c0-.088-.044-.131-.13-.131h-2.605a.382.382 0 0 1-.235-.08.384.384 0 0 1-.077-.235v-2.883c0-.087.025-.157.077-.21a.325.325 0 0 1 .235-.104h6.668c.087 0 .156.035.208.105.07.052.104.122.104.21V25.5c0 1.31-.295 2.464-.885 3.46-.573.995-1.39 1.764-2.449 2.306-1.041.541-2.257.812-3.646.812ZM67.554 13.525c-.173 0-.295.07-.364.21l-3.569 5.712c-.052.105-.104.105-.156 0l-3.62-5.713a.408.408 0 0 0-.365-.21h-3.673a.323.323 0 0 0-.234.105.284.284 0 0 0-.078.21v17.715c0 .087.026.166.078.236a.38.38 0 0 0 .234.078h3.699a.28.28 0 0 0 .208-.078.327.327 0 0 0 .104-.236v-10.56c0-.07.018-.106.052-.106.035 0 .07.027.105.079l2.266 3.642c.07.14.19.21.364.21h1.85c.173 0 .295-.07.364-.21l2.24-3.616c.035-.052.07-.078.105-.078.034 0 .052.034.052.104v10.535c0 .087.026.166.078.236a.38.38 0 0 0 .234.078h3.699a.28.28 0 0 0 .208-.078.327.327 0 0 0 .105-.236V13.84a.25.25 0 0 0-.105-.21.247.247 0 0 0-.208-.105h-3.673Zm41.853 7.966a.328.328 0 0 1-.104.236.282.282 0 0 1-.209.078h-2.37c-.087 0-.13.044-.13.131v4.77c0 .996.399 1.494 1.198 1.494h.964c.087 0 .156.034.208.104a.25.25 0 0 1 .104.21v3.04c0 .192-.104.306-.312.34-.834.035-1.442.053-1.824.053-1.51 0-2.63-.236-3.36-.708-.729-.489-1.102-1.406-1.12-2.751v-6.552c0-.087-.043-.13-.13-.13h-1.485a.379.379 0 0 1-.234-.08.385.385 0 0 1-.078-.235v-2.857c0-.087.026-.157.078-.21a.323.323 0 0 1 .234-.104h1.485c.087 0 .13-.044.13-.13v-3.172c0-.087.026-.157.079-.21a.321.321 0 0 1 .234-.104h3.516c.087 0 .157.035.209.104a.25.25 0 0 1 .104.21v3.171c0 .087.043.131.13.131h2.37c.087 0 .157.035.209.105a.25.25 0 0 1 .104.21v2.856Zm14.191 4.481c.035-.856.009-1.546-.078-2.07-.174-1.118-.547-2.114-1.12-2.987a5.802 5.802 0 0 0-2.188-2.07c-.903-.508-1.928-.76-3.074-.76-1.423 0-2.656.375-3.698 1.126-1.025.734-1.763 1.747-2.214 3.04a8.273 8.273 0 0 0-.417 2.62c0 1.31.182 2.403.547 3.276.486 1.24 1.276 2.21 2.37 2.909 1.112.681 2.458 1.022 4.038 1.022 1.059 0 2.031-.175 2.917-.524.903-.35 1.658-.856 2.266-1.52.069-.07.104-.14.104-.21a.25.25 0 0 0-.104-.21l-2.005-2.305a.248.248 0 0 0-.209-.105c-.087 0-.165.043-.234.13-.626.717-1.485 1.075-2.579 1.075-.608 0-1.12-.113-1.537-.34a2.315 2.315 0 0 1-.937-.892 3.61 3.61 0 0 1-.261-.76c-.017-.034-.009-.06.026-.078.035-.035.07-.052.104-.052h7.945c.208 0 .321-.105.338-.315Zm-44.066-7.862c1.164 0 2.214.201 3.152.603.938.385 1.676.926 2.214 1.625.538.681.808 1.441.808 2.28v8.936a.326.326 0 0 1-.105.236.28.28 0 0 1-.208.078h-3.699a.38.38 0 0 1-.234-.078.385.385 0 0 1-.078-.236v-.917c0-.07-.017-.105-.052-.105-.035-.018-.07.009-.105.078-.66.979-1.788 1.468-3.386 1.468-1.389 0-2.5-.323-3.334-.97-.816-.663-1.224-1.633-1.224-2.908 0-1.346.46-2.385 1.38-3.119.938-.734 2.293-1.1 4.064-1.1h2.527c.086 0 .13-.044.13-.132v-.498c0-.471-.157-.838-.469-1.1-.313-.28-.747-.42-1.302-.42-.417 0-.782.08-1.094.236-.296.158-.487.359-.573.603-.087.192-.209.28-.365.262l-3.75-.498c-.21-.035-.313-.113-.313-.235.069-.77.364-1.46.885-2.07.538-.63 1.25-1.119 2.136-1.468.903-.367 1.901-.55 2.995-.55ZM93.576 32.08c-1.233 0-2.31-.166-3.23-.498-.92-.35-1.632-.83-2.136-1.441a3.42 3.42 0 0 1-.73-2.15v-.287c0-.088.027-.158.079-.21a.323.323 0 0 1 .234-.105h3.517c.087 0 .156.035.208.105a.25.25 0 0 1 .104.21c0 .332.183.611.547.838.365.21.825.315 1.38.315.487 0 .869-.079 1.147-.236.295-.175.443-.402.443-.681 0-.28-.157-.48-.47-.603-.294-.14-.78-.271-1.458-.393-1.094-.21-1.98-.463-2.657-.76-.885-.367-1.588-.821-2.11-1.363-.52-.559-.78-1.319-.78-2.28 0-1.363.52-2.437 1.562-3.223 1.06-.804 2.448-1.206 4.168-1.206 1.163 0 2.179.193 3.047.577.886.367 1.572.891 2.058 1.572.486.682.73 1.468.73 2.359a.327.327 0 0 1-.105.236.28.28 0 0 1-.209.078h-3.412a.38.38 0 0 1-.234-.078.386.386 0 0 1-.078-.236c0-.332-.157-.603-.47-.813-.312-.21-.737-.314-1.276-.314-.486 0-.885.087-1.198.262-.295.157-.442.384-.442.681 0 .297.165.516.494.655.33.123.886.262 1.667.42 1.008.21 1.711.375 2.11.498 1.077.35 1.91.82 2.5 1.415.609.594.913 1.389.913 2.385 0 1.362-.539 2.42-1.615 3.17-1.06.734-2.492 1.101-4.298 1.101Zm60.023-1.258c1.094.839 2.423 1.258 3.985 1.258 1.58 0 2.918-.428 4.012-1.284 1.093-.856 1.823-2.018 2.187-3.485a9.075 9.075 0 0 0 .287-2.306c0-.892-.122-1.73-.365-2.516-.416-1.363-1.154-2.429-2.214-3.197-1.059-.787-2.353-1.18-3.881-1.18-1.545 0-2.865.393-3.959 1.18-1.076.768-1.814 1.843-2.214 3.223-.225.734-.338 1.581-.338 2.542 0 .856.104 1.642.312 2.358.365 1.433 1.094 2.569 2.188 3.407Zm-19.613-12.343c-.347-.227-.833-.34-1.459-.34-1.111 0-2.014.463-2.709 1.389-.017.052-.043.07-.078.052-.035-.018-.052-.053-.052-.105v-.838a.25.25 0 0 0-.104-.21.248.248 0 0 0-.209-.105h-3.698a.325.325 0 0 0-.235.105.285.285 0 0 0-.078.21v12.919c0 .087.026.166.078.236.07.052.148.078.235.078h3.698a.282.282 0 0 0 .209-.078.328.328 0 0 0 .104-.236v-6.892c0-.577.183-1.04.547-1.39.382-.349.842-.558 1.381-.628.156-.035.381-.052.677-.052.278 0 .573.035.886.104.225.088.347.027.364-.183l.599-3.643c.035-.174-.017-.305-.156-.393Zm-18.645 4.639c.296-.856.894-1.284 1.797-1.284.486 0 .886.113 1.199.34.33.227.555.56.677.996.07.21.104.384.104.524 0 .07-.034.105-.104.105h-3.699c-.104 0-.139-.044-.104-.131.017-.175.061-.358.13-.55Zm43.494 4.77c-.33.314-.747.47-1.251.47-.503 0-.928-.156-1.276-.47-.33-.333-.564-.778-.703-1.337a6.693 6.693 0 0 1-.156-1.494c0-.594.052-1.1.156-1.52.312-1.136.972-1.703 1.979-1.703.504 0 .921.148 1.251.445.329.297.564.716.703 1.258.122.49.182.996.182 1.52 0 .541-.052 1.04-.156 1.494-.156.559-.4 1.004-.729 1.336Zm-79.72 1.073c.66 0 1.199-.165 1.616-.497.434-.35.65-.804.65-1.363v-.629c0-.087-.043-.131-.13-.131H79.69c-.66 0-1.172.113-1.537.34-.347.228-.52.568-.52 1.023 0 .384.13.69.39.917.26.227.625.34 1.094.34Z" fill="#000"/></svg>