<svg width="50" height="46" viewBox="0 0 50 46" fill="none" xmlns="http://www.w3.org/2000/svg">
<g clip-path="url(#clip0_316_154)">
<mask id="mask0_316_154" style="mask-type:luminance" maskUnits="userSpaceOnUse" x="0" y="0" width="50" height="46">
<path d="M49.7006 0H0.162109V45.9787H49.7006V0Z" fill="white"/>
</mask>
<g mask="url(#mask0_316_154)">
<path d="M34.7158 17.2419H47.5117C48.7205 17.2419 49.7006 18.2198 49.7006 19.426V31.0551C49.7006 35.4882 46.0988 39.0818 41.6558 39.0818H41.6177C37.1747 39.0824 33.5724 35.4893 33.5717 31.0562C33.5717 31.0558 33.5717 31.0555 33.5717 31.0551V18.3834C33.5718 17.753 34.084 17.2419 34.7158 17.2419Z" fill="#5059C9"/>
<path d="M43.3642 14.9431C46.2275 14.9431 48.5487 12.6273 48.5487 9.77048C48.5487 6.91375 46.2275 4.5979 43.3642 4.5979C40.5011 4.5979 38.18 6.91375 38.18 9.77048C38.18 12.6273 40.5011 14.9431 43.3642 14.9431Z" fill="#5059C9"/>
<path d="M27.2355 14.9431C31.3711 14.9431 34.7238 11.5979 34.7238 7.47155C34.7238 3.34512 31.3711 0 27.2355 0C23.0997 0 19.7471 3.34512 19.7471 7.47155C19.7471 11.5979 23.0997 14.9431 27.2355 14.9431Z" fill="#7B83EB"/>
<path d="M37.2204 17.2419H16.0985C14.904 17.2714 13.9591 18.2606 13.9868 19.4524V32.7161C13.82 39.8683 19.4913 45.8036 26.6594 45.9787C33.8276 45.8036 39.4989 39.8683 39.3321 32.7161V19.4524C39.3598 18.2606 38.4149 17.2714 37.2204 17.2419Z" fill="#7B83EB"/>
<path opacity="0.1" d="M27.8115 17.2419V35.8288C27.8058 36.6812 27.2881 37.4469 26.4982 37.7714C26.2467 37.8776 25.9764 37.9323 25.7033 37.9324H15.0006C14.8509 37.553 14.7126 37.1737 14.5974 36.7829C14.1941 35.4639 13.9883 34.0928 13.9868 32.7138V19.4489C13.9591 18.259 14.9025 17.2714 16.0951 17.2419H27.8115Z" fill="black"/>
<path opacity="0.2" d="M26.6595 17.2419V36.9783C26.6594 37.2508 26.6045 37.5205 26.4982 37.7714C26.1729 38.5596 25.4055 39.0761 24.5512 39.0818H15.5421C15.3463 38.7025 15.1619 38.3232 15.0006 37.9324C14.8394 37.5416 14.7126 37.1737 14.5974 36.7829C14.1941 35.464 13.9883 34.0928 13.9868 32.7138V19.4489C13.9591 18.259 14.9025 17.2714 16.0951 17.2419H26.6595Z" fill="black"/>
<path opacity="0.2" d="M26.6595 17.2419V34.6794C26.6507 35.8375 25.7119 36.7741 24.5512 36.7829H14.5974C14.1941 35.4639 13.9884 34.0928 13.9868 32.7138V19.4489C13.9591 18.259 14.9025 17.2714 16.0951 17.2419H26.6595Z" fill="black"/>
<path opacity="0.2" d="M25.5074 17.2419V34.6794C25.4986 35.8375 24.5598 36.7741 23.3991 36.7829H14.5974C14.1941 35.4639 13.9884 34.0928 13.9868 32.7138V19.4489C13.9591 18.259 14.9025 17.2714 16.0951 17.2419H25.5074Z" fill="black"/>
<path opacity="0.1" d="M27.8115 11.2993V14.9201C27.6157 14.9316 27.4313 14.9431 27.2355 14.9431C27.0396 14.9431 26.8553 14.9317 26.6594 14.9201C26.2706 14.8944 25.8849 14.8328 25.5074 14.7362C23.1744 14.185 21.2471 12.5525 20.3231 10.3453C20.1641 9.97462 20.0407 9.58972 19.9545 9.1958H25.7032C26.8658 9.20019 27.8071 10.1394 27.8115 11.2993Z" fill="black"/>
<path opacity="0.2" d="M26.6594 12.4487V14.9201C26.2706 14.8943 25.8849 14.8328 25.5074 14.7362C23.1745 14.1849 21.2471 12.5525 20.3232 10.3452H24.5512C25.7137 10.3496 26.655 11.2888 26.6594 12.4487Z" fill="black"/>
<path opacity="0.2" d="M26.6594 12.4487V14.9201C26.2706 14.8943 25.8849 14.8328 25.5074 14.7362C23.1745 14.1849 21.2471 12.5525 20.3232 10.3452H24.5512C25.7137 10.3496 26.655 11.2888 26.6594 12.4487Z" fill="black"/>
<path opacity="0.2" d="M25.5074 12.4487V14.7362C23.1744 14.1849 21.2471 12.5525 20.3231 10.3452H23.3991C24.5617 10.3496 25.503 11.2888 25.5074 12.4487Z" fill="black"/>
<path d="M2.27382 10.3452H23.3956C24.5619 10.3452 25.5073 11.2885 25.5073 12.4521V33.5265C25.5073 34.6901 24.5619 35.6334 23.3956 35.6334H2.27382C1.10754 35.6334 0.162109 34.6901 0.162109 33.5265V12.4521C0.162109 11.2885 1.10757 10.3452 2.27382 10.3452Z" fill="url(#paint0_linear_316_154)"/>
<path d="M18.3923 18.3662H14.17V29.8379H11.48V18.3662H7.27722V16.1409H18.3923V18.3662Z" fill="white"/>
</g>
</g>
<defs>
<linearGradient id="paint0_linear_316_154" x1="4.5651" y1="8.69887" x2="21.0486" y2="37.312" gradientUnits="userSpaceOnUse">
<stop stop-color="#5A62C3"/>
<stop offset="0.5" stop-color="#4D55BD"/>
<stop offset="1" stop-color="#3940AB"/>
</linearGradient>
<clipPath id="clip0_316_154">
<rect width="49.5385" height="46" fill="white" transform="translate(0.162109)"/>
</clipPath>
</defs>
</svg>
