<svg width="124" height="46" viewBox="0 0 124 46" fill="none" xmlns="http://www.w3.org/2000/svg">
<g clip-path="url(#clip0_266_426)">
<path d="M0.3694 20.1392V0.527667C0.3694 0.298119 0.559049 0.108521 0.788599 0.108521H11.1682C11.3978 0.108521 11.5874 0.298119 11.5874 0.527667V20.1392C11.5874 20.3688 11.3978 20.5584 11.1682 20.5584H0.788599C0.559049 20.5584 0.3694 20.3688 0.3694 20.1392Z" fill="#FF3333"/>
<path d="M18.7039 20.1383V0.526813C18.7039 0.297265 18.8935 0.107666 19.123 0.107666H29.5027C29.7323 0.107666 29.9219 0.297265 29.9219 0.526813V20.1383C29.9219 20.3679 29.7323 20.5575 29.5027 20.5575H19.123C18.8935 20.5575 18.7039 20.3679 18.7039 20.1383Z" fill="#FF3333"/>
<path d="M49.6931 0.107666C49.9226 0.107666 50.1122 0.297265 50.1122 0.526813V16.0165C50.1122 17.5534 50.0025 19.0804 49.8027 20.5575C48.2461 31.8354 40.9802 41.2969 31.0098 45.9178C30.8002 46.0176 30.5407 45.9178 30.4509 45.7082L26.2192 36.2268C26.1293 36.0172 26.2192 35.7677 26.4288 35.6679C33.8043 32.1947 38.9043 24.6994 38.9043 16.0165V0.526813C38.9043 0.297265 39.094 0.107666 39.3235 0.107666H49.6931Z" fill="#FF3333"/>
<path d="M96.7599 0.337231V4.0699C96.7599 4.21961 96.8798 4.34938 97.0391 4.34938H103.716C103.547 7.09399 103.227 12.5732 103.147 14.0603C102.988 17.1243 102.239 19.5695 100.872 21.5357C99.6542 23.2722 97.9777 24.5997 95.772 25.5578C95.6322 25.6177 95.562 25.7873 95.6322 25.927L97.1692 29.2705C97.2292 29.4102 97.3885 29.4701 97.5284 29.4102C103.467 26.8652 106.93 21.7253 107.339 14.8288L107.958 4.35932H118.917V28.8214C118.917 28.9711 119.036 29.1009 119.186 29.1009H122.919C123.068 29.1009 123.198 28.9811 123.198 28.8214V0.357211C123.198 0.207505 123.078 0.07773 122.919 0.07773H97.0391C96.8798 0.0677498 96.7599 0.187525 96.7599 0.337231Z" fill="black"/>
<path d="M88.9585 15.5875H77.4013V14.3201H88.5793C88.7289 14.3201 88.8586 14.2003 88.8586 14.0406V11.795C88.8586 11.6453 88.7387 11.5156 88.5793 11.5156H77.4013V10.248H88.5793C88.7289 10.248 88.8586 10.1283 88.8586 9.96862V0.337484C88.8586 0.187778 88.7387 0.0679932 88.5793 0.0679932H62.6599C62.5103 0.0679932 62.3904 0.187778 62.3904 0.337484V9.96862C62.3904 10.1183 62.5103 10.248 62.6599 10.248H73.8379V11.5156H62.6599C62.5103 11.5156 62.3904 11.6353 62.3904 11.795V14.0406C62.3904 14.1903 62.5103 14.3201 62.6599 14.3201H73.8379V15.5875H62.2808C62.1312 15.5875 62.0015 15.7074 62.0015 15.867V18.1126C62.0015 18.2623 62.121 18.3821 62.2808 18.3821H88.9585C89.1081 18.3821 89.2377 18.2623 89.2377 18.1126V15.867C89.2377 15.7074 89.1081 15.5875 88.9585 15.5875ZM85.2854 7.44359H77.4013V2.86251H85.2854V7.44359ZM65.9534 2.86251H73.8379V7.44359H65.9534V2.86251Z" fill="black"/>
<path d="M77.399 25.2585H88.8265C88.9766 25.2585 89.1062 25.1388 89.1062 24.9791V22.7335C89.1062 22.5838 88.9863 22.454 88.8265 22.454H77.399V19.42C77.399 19.2703 77.2796 19.1405 77.1197 19.1405H74.1056C73.956 19.1405 73.8263 19.2603 73.8263 19.42V22.454H62.3984C62.2487 22.454 62.1191 22.5738 62.1191 22.7335V24.9791C62.1191 25.1288 62.239 25.2585 62.3984 25.2585H73.8361V26.2765H61.5304C61.3808 26.2765 61.2507 26.3963 61.2507 26.556V28.8016C61.2507 28.9513 61.3705 29.081 61.5304 29.081H89.7052C89.8548 29.081 89.9844 28.9613 89.9844 28.8016V26.556C89.9844 26.4063 89.8645 26.2765 89.7052 26.2765H77.399V25.2585Z" fill="black"/>
<path d="M70.9228 3.88037H68.1479C68.0582 3.88037 67.9983 3.96022 68.0182 4.04007L68.4676 6.30559C68.4773 6.36549 68.5373 6.41539 68.5972 6.41539H71.3716C71.4617 6.41539 71.5217 6.33552 71.5017 6.25569L71.0524 3.99016C71.0524 3.93028 70.9925 3.88037 70.9228 3.88037Z" fill="black"/>
<path d="M82.768 6.3155L83.2173 4.04995C83.2368 3.96013 83.1671 3.89026 83.0872 3.89026H80.3128C80.2431 3.89026 80.1929 3.94017 80.1832 4.00005L79.7338 6.2656C79.7139 6.35541 79.784 6.4253 79.8635 6.4253H82.6383C82.6983 6.4253 82.748 6.38534 82.768 6.3155Z" fill="black"/>
<path d="M85.6739 21.6954H88.4483C88.5384 21.6954 88.5979 21.6155 88.5784 21.5357L88.1291 19.2701C88.1189 19.2103 88.0594 19.1604 87.9994 19.1604H85.2148C85.1251 19.1604 85.0652 19.2402 85.0852 19.3201L85.534 21.5856C85.554 21.6455 85.6042 21.6954 85.6739 21.6954Z" fill="black"/>
<path d="M80.3133 21.6954H83.0877C83.1773 21.6954 83.2373 21.6155 83.2173 21.5357L82.7685 19.2701C82.7582 19.2103 82.6983 19.1604 82.6388 19.1604H79.8639C79.7743 19.1604 79.7143 19.2402 79.7343 19.3201L80.1836 21.5856C80.1934 21.6455 80.2431 21.6954 80.3133 21.6954Z" fill="black"/>
<path d="M65.702 21.5856L66.1513 19.3201C66.1713 19.2302 66.1016 19.1604 66.0217 19.1604H63.2468C63.1771 19.1604 63.1274 19.2103 63.1172 19.2701L62.6581 21.5357C62.6381 21.6255 62.7083 21.6954 62.7877 21.6954H65.5626C65.6323 21.6954 65.682 21.6455 65.702 21.5856Z" fill="black"/>
<path d="M71.0622 21.5856L71.511 19.3201C71.531 19.2302 71.4613 19.1604 71.3814 19.1604H68.607C68.5368 19.1604 68.4871 19.2103 68.4769 19.2701L68.0178 21.5357C67.9978 21.6255 68.068 21.6954 68.1479 21.6954H70.9223C70.992 21.6954 71.0519 21.6455 71.0622 21.5856Z" fill="black"/>
<path d="M112.171 40.0595C110.694 40.0595 109.507 38.782 109.676 37.265C109.806 36.0973 110.764 35.1591 111.932 35.0493C112.67 34.9794 113.349 35.239 113.848 35.6881C113.898 35.738 113.988 35.738 114.037 35.6881L114.756 34.9695C114.816 34.9196 114.816 34.8198 114.756 34.7699C113.968 34.0413 112.87 33.6421 111.682 33.7918C109.966 34.0114 108.598 35.4086 108.398 37.1153C108.139 39.4108 109.926 41.357 112.171 41.357C113.169 41.357 114.077 40.9677 114.756 40.339C114.816 40.2891 114.816 40.1992 114.756 40.1393L114.037 39.4208C113.988 39.3709 113.908 39.3709 113.848 39.4208C113.399 39.82 112.81 40.0595 112.171 40.0595Z" fill="black"/>
<path d="M120.614 40.0595C119.138 40.0595 117.95 38.782 118.12 37.265C118.249 36.0973 119.207 35.1591 120.375 35.0493C121.113 34.9794 121.792 35.239 122.291 35.6881C122.341 35.738 122.431 35.738 122.481 35.6881L123.2 34.9695C123.26 34.9196 123.26 34.8198 123.2 34.7699C122.411 34.0413 121.313 33.6421 120.126 33.7918C118.409 34.0114 117.042 35.4086 116.842 37.1153C116.583 39.4108 118.369 41.357 120.614 41.357C121.612 41.357 122.521 40.9677 123.2 40.339C123.26 40.2891 123.26 40.1992 123.2 40.1393L122.481 39.4208C122.431 39.3709 122.351 39.3709 122.291 39.4208C121.852 39.82 121.263 40.0595 120.614 40.0595Z" fill="black"/>
<path d="M106.543 41.3469H105.604C105.525 41.3469 105.465 41.287 105.465 41.2072V40.269C105.465 40.1892 105.525 40.1293 105.604 40.1293H106.543C106.622 40.1293 106.682 40.1892 106.682 40.269V41.2072C106.673 41.287 106.613 41.3469 106.543 41.3469Z" fill="black"/>
<path d="M100.085 33.7618C97.9791 33.7618 96.2725 35.4685 96.2725 37.5744C96.2725 39.6802 97.9791 41.3869 100.085 41.3869C102.191 41.3869 103.898 39.6802 103.898 37.5744C103.898 35.4685 102.191 33.7618 100.085 33.7618ZM100.085 40.0894C98.6979 40.0894 97.5702 38.9617 97.5702 37.5744C97.5702 36.1871 98.6979 35.0593 100.085 35.0593C101.472 35.0593 102.6 36.1871 102.6 37.5744C102.6 38.9617 101.472 40.0894 100.085 40.0894Z" fill="black"/>
<path d="M83.3971 33.8716H80.6627C80.5828 33.8716 80.5228 33.9314 80.5228 34.0113V41.1174C80.5228 41.1972 80.5828 41.2571 80.6627 41.2571H83.497C85.5926 41.2571 87.2895 39.5105 87.1896 37.3847C87.0897 35.3986 85.383 33.8716 83.3971 33.8716ZM83.497 40.0694H81.7402V35.0792H83.497C84.8143 35.0792 85.9522 36.2469 85.9522 37.5643C85.9522 38.8817 84.8143 40.0694 83.497 40.0694Z" fill="black"/>
<path d="M94.1462 41.3769H95.1843C95.2842 41.3769 95.3441 41.2771 95.3139 41.1873L92.1901 33.8417C92.1701 33.7918 92.1204 33.7618 92.0604 33.7618H91.3421C91.2822 33.7618 91.2422 33.7918 91.212 33.8417L88.0882 41.1873C88.0482 41.2771 88.1184 41.3769 88.2178 41.3769H89.2558C89.3158 41.3769 89.3557 41.347 89.3859 41.2971L90.2739 39.2012H93.1482L94.0366 41.2971C94.0468 41.347 94.0965 41.3769 94.1462 41.3769ZM90.7632 38.0235L91.7013 35.8178L92.6394 38.0235H90.7632Z" fill="black"/>
<path d="M74.6548 33.7517C72.549 33.7517 70.8424 35.4584 70.8424 37.5643C70.8424 39.6701 72.549 41.3768 74.6548 41.3768C76.7606 41.3768 78.4672 39.6701 78.4672 37.5643C78.4672 35.4584 76.7606 33.7517 74.6548 33.7517ZM74.6548 40.0893C73.2674 40.0893 72.1397 38.9615 72.1397 37.5743C72.1397 36.187 73.2674 35.0592 74.6548 35.0592C76.0422 35.0592 77.1699 36.187 77.1699 37.5743C77.1797 38.9615 76.052 40.0893 74.6548 40.0893Z" fill="black"/>
<path d="M68.2064 33.7917L65.0427 36.9554L61.8789 33.7917C61.8487 33.7617 61.8189 33.7517 61.779 33.7517H61.4296C61.3496 33.7517 61.2897 33.8116 61.2897 33.8915V41.237C61.2897 41.3169 61.3496 41.3768 61.4296 41.3768H62.5075C62.5875 41.3768 62.6469 41.3169 62.6469 41.237V36.4664L64.9428 38.7619C64.9925 38.8118 65.0826 38.8118 65.1323 38.7619L67.4277 36.4664V41.237C67.4277 41.3169 67.4876 41.3768 67.5675 41.3768H68.6455C68.7254 41.3768 68.7849 41.3169 68.7849 41.237V33.8915C68.7849 33.8116 68.7254 33.7517 68.6455 33.7517H68.2961C68.2659 33.7517 68.2362 33.7717 68.2064 33.7917Z" fill="black"/>
</g>
<defs>
<clipPath id="clip0_266_426">
<rect width="123.596" height="46" fill="white"/>
</clipPath>
</defs>
</svg>
