<svg width="46" height="46" viewBox="0 0 46 46" fill="none" xmlns="http://www.w3.org/2000/svg">
<g clip-path="url(#clip0_268_485)">
<mask id="mask0_268_485" style="mask-type:luminance" maskUnits="userSpaceOnUse" x="0" y="0" width="46" height="46">
<path d="M40.25 0H5.75C2.57436 0 0 2.57436 0 5.75V40.25C0 43.4256 2.57436 46 5.75 46H40.25C43.4256 46 46 43.4256 46 40.25V5.75C46 2.57436 43.4256 0 40.25 0Z" fill="white"/>
</mask>
<g mask="url(#mask0_268_485)">
<path d="M0 0H46V46H0V0Z" fill="#FF3333"/>
<path d="M7.17312 23.5751V11.0832C7.17312 10.9394 7.28812 10.8101 7.44625 10.8101H14.0444C14.1881 10.8101 14.3031 10.9251 14.3031 11.0832V23.5463C14.3031 23.6901 14.1881 23.8194 14.0444 23.8194H7.43187C7.39665 23.8195 7.36178 23.8124 7.32942 23.7985C7.29705 23.7846 7.26786 23.7642 7.24363 23.7386C7.21941 23.7131 7.20066 23.6828 7.18853 23.6497C7.17641 23.6167 7.17116 23.5815 7.17312 23.5463V23.5751ZM18.8456 23.5751V11.0832C18.8456 10.9394 18.9606 10.8101 19.1044 10.8101H25.7169C25.8606 10.8101 25.9756 10.9251 25.9756 11.0832V23.5463C25.9756 23.6901 25.8606 23.8194 25.7025 23.8194H19.1187C19.0835 23.8195 19.0487 23.8124 19.0163 23.7985C18.9839 23.7846 18.9547 23.7642 18.9305 23.7386C18.9063 23.7131 18.8875 23.6828 18.8754 23.6497C18.8633 23.6167 18.858 23.5815 18.86 23.5463L18.8456 23.5751ZM38.5537 10.8244C38.7119 10.8244 38.8412 10.9394 38.8412 11.0976V20.9444C38.8322 21.9059 38.7649 22.866 38.64 23.8194C38.1553 27.2957 36.8066 30.5949 34.7172 33.4151C32.6277 36.2353 29.8644 38.4865 26.68 39.9626C26.5362 40.0201 26.3781 39.9626 26.3206 39.8188L23.6181 33.7957C23.5606 33.6519 23.6181 33.5082 23.7619 33.4363C26.1353 32.32 28.1419 30.5512 29.5471 28.3365C30.9522 26.1218 31.6979 23.5529 31.6969 20.9301V11.0976C31.6969 10.9538 31.8119 10.8244 31.9556 10.8244H38.5681H38.5537Z" fill="white"/>
</g>
</g>
<defs>
<clipPath id="clip0_268_485">
<rect width="46" height="46" fill="white"/>
</clipPath>
</defs>
</svg>
