<svg width="250" height="46" fill="none" xmlns="http://www.w3.org/2000/svg"><mask id="a" style="mask-type:luminance" maskUnits="userSpaceOnUse" x="189" y="11" width="56" height="22"><path d="M244.283 11.324h-54.971v21.294h54.971V11.324Z" fill="#fff"/></mask><g mask="url(#a)" fill="#000"><path d="m193.185 12.922.207-1.067h21.681L212.4 30.662a2.158 2.158 0 0 1-.811 1.421 2.302 2.302 0 0 1-1.5.536h-5.945l2.673-2.755.541-3.939h-11.019l-1.322 6.694h-5.705l3.873-19.697Zm3.694 10.19h10.899l.391-2.813H197.45l-.571 2.813Zm1.11-5.628h10.569l.42-2.813h-10.416l-.573 2.813ZM234.256 12.687l-.209 1.42h2.852l.24-1.748-1.022-1.035h5.673l-.391 2.784h2.882l-.391 2.813h-2.913l-.3 2.25h2.311l-.39 2.814h-2.344l-.299 2.387h2.372l-.421 2.842h-2.342l-.33 2.192h2.943l-.491 3.152h-10.269.011-4.623l2.342-16.498-1.141.296.48-3.376 5.975-1.63-.205 1.337Zm-15.011 5.272 3.872-5.864.493-.74h5.122l-4.354 6.604h3.422l-4.384 6.753h3.422l-.42 2.874h-8.557l.419-2.873 2.673-3.939h-2.099l.391-2.815Zm6.635 14.036-8.647.032.421-2.813 8.617-.032-.391 2.813Zm7.446-12.824h2.851l.301-2.25h-2.822l-.33 2.25Zm-1.411 10.235h2.822l.3-2.192h-2.823l-.299 2.192Zm.72-5.034h2.822l.301-2.387h-2.822l-.301 2.387Z"/></g><path d="m74.25 26.436-5.565-7.06v13.226h-4.404V11.267h2.797l7.85 9.764 7.137-9.764h2.696v21.335h-4.47V20.153l-4.339 6.048-1.702.235ZM97.36 32.808c-2.618 0-4.66-.783-6.13-2.35-1.47-1.566-2.202-3.662-2.202-6.3 0-2.615.768-4.694 2.303-6.248 1.536-1.555 3.637-2.332 6.298-2.332 2.755 0 4.886.806 6.404 2.414 1.511 1.608 2.273 3.722 2.273 6.336 0 2.615-.821 4.682-2.458 6.2-1.637 1.52-3.803 2.28-6.487 2.28Zm4.375-8.48c0-1.554-.345-2.773-1.041-3.662-.697-.89-1.679-1.337-2.952-1.337-1.298 0-2.31.394-3.042 1.183-.726.79-1.095 1.99-1.095 3.616 0 1.625.316 2.85.94 3.68.625.837 1.59 1.249 2.887 1.249 1.274 0 2.31-.377 3.107-1.13.798-.755 1.196-1.95 1.196-3.599ZM117.508 32.808c-2.619 0-4.66-.783-6.13-2.35-1.47-1.566-2.203-3.662-2.203-6.3 0-2.615.768-4.694 2.304-6.248 1.535-1.555 3.636-2.332 6.297-2.332 2.755 0 4.886.806 6.404 2.414 1.512 1.608 2.274 3.722 2.274 6.336 0 2.615-.822 4.682-2.458 6.2-1.643 1.52-3.804 2.28-6.488 2.28Zm4.369-8.48c0-1.554-.346-2.773-1.042-3.662-.696-.89-1.678-1.337-2.952-1.337-1.298 0-2.309.394-3.041 1.183-.727.79-1.096 1.99-1.096 3.616 0 1.625.316 2.85.941 3.68.625.837 1.589 1.249 2.886 1.249 1.274 0 2.31-.377 3.107-1.13.798-.755 1.197-1.95 1.197-3.599ZM133.655 17.78c.75-.742 1.69-1.33 2.815-1.755 1.125-.43 2.137-.642 3.024-.642 2.256 0 3.851.654 4.797 1.961.946 1.307 1.416 2.903 1.416 4.8v10.27h-4.44V22.337c0-1.037-.249-1.832-.749-2.38-.5-.553-1.226-.83-2.185-.83-.637 0-1.303.165-1.999.49-.697.323-1.328.706-1.893 1.13V32.4h-4.44V16.02h2.321l1.333 1.761ZM154.243 32.402l-6.35-15.776 4.577-.607 3.82 9.935 3.62-9.934h4.677l-6.523 16.382h-3.821ZM170.087 33.18l.785-1.927-5.904-14.627 4.577-.607 3.82 9.935 3.62-9.934h4.677l-7.409 18.543c-.524 1.33-1.447 2.467-2.768 3.41-1.322.947-2.708 1.59-4.167 1.925l-1.571-3.616a29.856 29.856 0 0 0 2.541-1.23c.905-.477 1.501-1.107 1.799-1.873Z" fill="#090B10"/><path d="M22.857 15.632c12.446-7.073 24.35-9.687 26.587-5.836l-.004.002c2.643 4.598-5.282 14.043-17.72 21.109-12.441 7.066-24.674 9.088-27.354 4.51-2.238-3.851 6.046-12.713 18.491-19.785Z" fill="#6357FF"/><path d="M42.195 25.547c-1.071 4.081-3.744 7.75-7.731 10.017a16.589 16.589 0 0 1-12.559 1.584c3.369-1.19 6.934-2.815 10.505-4.846 3.684-2.096 6.994-4.405 9.785-6.755Z" fill="#3830A6"/><path d="m41.183 14.536-28.51 16.211c-.07-.123-.148-.247-.22-.37a16.34 16.34 0 0 1-1.357-3.003 15.932 15.932 0 0 1-.803-5.943c.048-.924.173-1.837.381-2.738a16.264 16.264 0 0 1 7.85-10.529 16.559 16.559 0 0 1 15.725-.353c1.78.907 3.41 2.138 4.785 3.675a16.6 16.6 0 0 1 1.94 2.679c.072.124.144.247.21.37Z" fill="#4138C2"/><path d="M41.153 14.49c1.334 2.296-3.97 7.784-11.844 12.26-7.874 4.475-15.338 6.241-16.67 3.945l28.514-16.206Z" fill="#3830A6"/><path d="M16.745 28.362c-3.226-5.553-1.292-12.643 4.321-15.834 5.613-3.192 12.779-1.278 16.005 4.275l-20.326 11.56Z" fill="#F8F8FF"/><path d="M16.745 28.362c.756 1.296 5.916-.235 11.528-3.427 5.613-3.191 9.553-6.83 8.803-8.126L16.745 28.362Z" fill="#E4E4F5"/></svg>