<svg width="46" height="46" viewBox="0 0 46 46" fill="none" xmlns="http://www.w3.org/2000/svg">
<path d="M45.5531 36.4116L41.1073 24.2258L38.5191 28.7999L42.8532 36.641C42.9214 36.7646 43.052 36.841 43.1931 36.841H45.2531C45.4743 36.8399 45.6284 36.6199 45.5531 36.4116Z" fill="#E43E2A"/>
<path d="M33.6641 19.5932C33.4712 19.4732 33.2159 19.5379 33.1041 19.7367L29.8453 25.532L23.6466 36.5565C23.5748 36.6836 23.6665 36.8412 23.8124 36.8412H33.8394C33.8864 36.8142 33.9229 36.7918 33.97 36.7648L38.5182 28.8002L41.1064 24.2261L33.6641 19.5932Z" fill="#F0B500"/>
<path d="M25.8996 14.7154L16.8785 9.07429C16.7185 8.97429 16.5185 9.12017 16.5644 9.30252L23.4079 36.5329C23.4537 36.714 23.6161 36.84 23.802 36.84H33.8443C33.9384 36.84 34.0031 36.747 33.9703 36.6588L25.8996 14.7154Z" fill="#00C62D"/>
<path d="M16.1813 9.25425L1.06606 36.0835C0.875472 36.4211 1.12017 36.8399 1.50723 36.8399H13.1071C13.293 36.8399 13.4648 36.74 13.5554 36.5776L20.3812 24.4882L25.9001 14.7142L16.8825 9.07661C16.6412 8.92484 16.3213 9.00602 16.1813 9.25425Z" fill="#005BFF"/>
</svg>
