<svg width="50" height="46" viewBox="0 0 50 46" fill="none" xmlns="http://www.w3.org/2000/svg">
<g clip-path="url(#clip0_316_101)">
<mask id="mask0_316_101" style="mask-type:luminance" maskUnits="userSpaceOnUse" x="0" y="0" width="50" height="46">
<path d="M49.5518 0H0.118958V45.9787H49.5518V0Z" fill="white"/>
</mask>
<g mask="url(#mask0_316_101)">
<path d="M49.5518 24.1388C49.5542 23.7524 49.3548 23.3926 49.0251 23.1905H49.0193L48.9986 23.179L31.8697 13.0407C31.7958 12.9908 31.719 12.9451 31.6398 12.904C30.9784 12.5628 30.1928 12.5628 29.5315 12.904C29.4522 12.9451 29.3755 12.9908 29.3015 13.0407L12.1725 23.179L12.1519 23.1905C11.6283 23.516 11.4678 24.2043 11.7934 24.7277C11.8893 24.882 12.0214 25.0105 12.1783 25.1021L29.3073 35.2404C29.3815 35.2899 29.4583 35.3356 29.5372 35.3772C30.1986 35.7183 30.9842 35.7183 31.6456 35.3772C31.7246 35.3356 31.8013 35.29 31.8756 35.2404L49.0044 25.1021C49.3466 24.9026 49.5557 24.5349 49.5518 24.1388Z" fill="#0A2767"/>
<path d="M14.1694 17.3696H25.4101V27.6723H14.1694V17.3696ZM47.2525 6.89681V2.18398C47.2796 1.00566 46.3468 0.028235 45.1684 0H15.9984C14.8199 0.028235 13.8872 1.00566 13.9142 2.18398V6.89681L31.1582 11.4946L47.2525 6.89681Z" fill="#0364B8"/>
<path d="M13.9142 6.89685H25.4101V17.242H13.9142V6.89685Z" fill="#0078D4"/>
<path d="M36.9062 6.89685H25.4101V17.242L36.9062 27.5872H47.2525V17.242L36.9062 6.89685Z" fill="#28A8EA"/>
<path d="M25.4101 17.2419H36.9061V27.5871H25.4101V17.2419Z" fill="#0078D4"/>
<path d="M25.4101 27.5872H36.9061V37.9324H25.4101V27.5872Z" fill="#0364B8"/>
<path d="M14.1694 27.6722H25.4101V37.038H14.1694V27.6722Z" fill="#14447D"/>
<path d="M36.9062 27.5872H47.2525V37.9324H36.9062V27.5872Z" fill="#0078D4"/>
<path d="M49.0251 25.0388L49.0034 25.0503L31.8743 34.6828C31.7996 34.7288 31.7238 34.7725 31.6444 34.8116C31.3535 34.9501 31.0375 35.0283 30.7156 35.0415L29.7798 34.4943C29.7007 34.4546 29.6239 34.4105 29.5498 34.3621L12.1909 24.456H12.1828L11.6149 24.1388V43.6383C11.6238 44.9393 12.6854 45.9869 13.9866 45.9787H47.2169C47.2365 45.9787 47.2537 45.9694 47.2744 45.9694C47.5492 45.9519 47.8202 45.8953 48.0791 45.8016C48.191 45.7542 48.299 45.6981 48.4019 45.6338C48.4791 45.5901 48.6114 45.4947 48.6114 45.4947C49.2004 45.059 49.5489 44.3709 49.5518 43.6384V24.1388C49.5513 24.5117 49.35 24.8556 49.0251 25.0388Z" fill="url(#paint0_linear_316_101)"/>
<path opacity="0.5" d="M48.6322 24.0617V25.2572L30.7213 37.5875L12.1783 24.4641C12.1783 24.4577 12.1731 24.4526 12.1668 24.4526L10.4653 23.4295V22.5674L11.1666 22.5559L12.6496 23.4065L12.6841 23.418L12.8105 23.4985C12.8105 23.4985 30.2384 33.4414 30.2844 33.4644L30.9512 33.8552C31.0087 33.8322 31.0661 33.8092 31.1351 33.7862C31.1696 33.7632 48.4367 24.0502 48.4367 24.0502L48.6322 24.0617Z" fill="#0A2767"/>
<path d="M49.0251 25.0388L49.0034 25.0515L31.8743 34.6839C31.7996 34.7299 31.7238 34.7736 31.6444 34.8127C30.9792 35.1376 30.2013 35.1376 29.536 34.8127C29.4573 34.7737 29.3805 34.7307 29.3061 34.6839L12.1771 25.0515L12.1564 25.0388C11.8258 24.8595 11.6184 24.5149 11.615 24.1388V43.6383C11.6232 44.9391 12.6845 45.9869 13.9854 45.9787H13.9855H47.1813C48.482 45.9869 49.5436 44.9391 49.5518 43.6384V43.6383V24.1388C49.5513 24.5117 49.35 24.8556 49.0251 25.0388Z" fill="#1490DF"/>
<path opacity="0.1" d="M32.1238 34.5415L31.8674 34.6852C31.7932 34.7325 31.7164 34.7758 31.6375 34.815C31.3551 34.9537 31.048 35.035 30.734 35.0542L37.251 42.7602L48.6196 45.4994C48.931 45.2641 49.1786 44.9547 49.3404 44.5993L32.1238 34.5415Z" fill="black"/>
<path opacity="0.05" d="M33.2849 33.8885L31.8674 34.6851C31.7932 34.7324 31.7164 34.7758 31.6375 34.815C31.3551 34.9536 31.048 35.0349 30.734 35.0541L33.7873 43.4716L48.623 45.4958C49.2071 45.0571 49.5513 44.369 49.5518 43.6383V43.3865L33.2849 33.8885Z" fill="black"/>
<path d="M14.0177 45.9786H47.1778C47.6881 45.9812 48.1857 45.82 48.5974 45.5189L29.7786 34.4966C29.6995 34.4569 29.6228 34.4128 29.5487 34.3645L12.1898 24.4583H12.1817L11.615 24.1388V43.5716C11.6137 44.8997 12.6894 45.9774 14.0177 45.9786Z" fill="#28A8EA"/>
<path opacity="0.1" d="M27.7093 11.3027V35.8209C27.7073 36.6805 27.1846 37.4532 26.3873 37.775C26.1403 37.8811 25.8744 37.9359 25.6056 37.9359H11.6149V10.3452H13.9142V9.1958H25.6056C26.767 9.20019 27.7068 10.1415 27.7093 11.3027Z" fill="black"/>
<path opacity="0.2" d="M26.5598 12.4522V36.9703C26.5626 37.2479 26.5038 37.5228 26.3873 37.7749C26.0681 38.5617 25.3052 39.0779 24.456 39.0818H11.6149V10.3452H24.456C24.7896 10.3419 25.1183 10.4251 25.4101 10.5866C26.1149 10.9416 26.5595 11.6632 26.5598 12.4522Z" fill="black"/>
<path opacity="0.2" d="M26.5598 12.4522V34.6714C26.5541 35.8321 25.6168 36.7728 24.456 36.7829H11.6149V10.3452H24.456C24.7896 10.3419 25.1183 10.4251 25.4101 10.5866C26.1149 10.9416 26.5595 11.6632 26.5598 12.4522Z" fill="black"/>
<path opacity="0.2" d="M25.4101 12.4522V34.6714C25.4089 35.8339 24.469 36.7773 23.3064 36.783H11.6149V10.3452H23.3064C24.4689 10.3458 25.4108 11.2887 25.4101 12.4511C25.4101 12.4515 25.4101 12.4518 25.4101 12.4522Z" fill="black"/>
<path d="M2.22617 10.3452H23.303C24.4667 10.3452 25.4101 11.2886 25.4101 12.4522V33.5265C25.4101 34.6902 24.4667 35.6335 23.303 35.6335H2.22617C1.06238 35.6335 0.118962 34.6901 0.118962 33.5265V12.4522C0.118962 11.2886 1.06241 10.3452 2.22617 10.3452Z" fill="url(#paint1_linear_316_101)"/>
<path d="M6.70502 19.1822C7.2244 18.0758 8.06269 17.1499 9.11231 16.5236C10.2747 15.8581 11.5981 15.5264 12.937 15.5649C14.1779 15.538 15.4024 15.8525 16.4766 16.4741C17.4867 17.0764 18.3002 17.9588 18.8184 19.0144C19.3827 20.1775 19.664 21.4576 19.6392 22.7502C19.6666 24.101 19.3772 25.4394 18.7942 26.6583C18.2637 27.7517 17.4244 28.6656 16.3801 29.2872C15.2644 29.9279 13.9945 30.2506 12.7083 30.2205C11.4409 30.2512 10.1894 29.9331 9.09045 29.301C8.07167 28.6979 7.24796 27.8145 6.71767 26.756C6.15001 25.6097 5.86539 24.344 5.88769 23.0651C5.86404 21.7258 6.14345 20.3984 6.70502 19.1822ZM9.27094 25.4239C9.54784 26.1233 10.0174 26.7299 10.6251 27.1733C11.2442 27.6059 11.9854 27.8291 12.7404 27.8101C13.5445 27.8419 14.337 27.6111 14.9982 27.1526C15.5983 26.7106 16.0555 26.1023 16.3134 25.4032C16.6016 24.6223 16.7438 23.7951 16.733 22.9628C16.7419 22.1226 16.6081 21.287 16.3375 20.4915C16.0985 19.7733 15.6559 19.14 15.0638 18.6684C14.4191 18.1882 13.6287 17.9447 12.8255 17.9788C12.0541 17.9588 11.2963 18.1837 10.6608 18.6213C10.0428 19.0666 9.56426 19.6786 9.28127 20.3857C8.65347 22.0066 8.65018 23.8029 9.27205 25.4261L9.27094 25.4239Z" fill="white"/>
<path d="M36.9062 6.89685H47.2525V17.242H36.9062V6.89685Z" fill="#50D9FF"/>
</g>
</g>
<defs>
<linearGradient id="paint0_linear_316_101" x1="30.5833" y1="24.1388" x2="30.5833" y2="45.9787" gradientUnits="userSpaceOnUse">
<stop stop-color="#35B8F1"/>
<stop offset="1" stop-color="#28A8EA"/>
</linearGradient>
<linearGradient id="paint1_linear_316_101" x1="4.51256" y1="8.69892" x2="21.0137" y2="37.2815" gradientUnits="userSpaceOnUse">
<stop stop-color="#1784D9"/>
<stop offset="0.5" stop-color="#107AD5"/>
<stop offset="1" stop-color="#0A63C9"/>
</linearGradient>
<clipPath id="clip0_316_101">
<rect width="49.4328" height="46" fill="white" transform="translate(0.118958)"/>
</clipPath>
</defs>
</svg>
