<svg width="46" height="46" viewBox="0 0 46 46" fill="none" xmlns="http://www.w3.org/2000/svg">
<path d="M23.25 33.6L23.3723 33.5993C23.2917 34.1629 23.25 34.7391 23.25 35.325C23.25 37.1623 23.6604 38.9037 24.3944 40.4626C24.016 40.4874 23.6345 40.5 23.25 40.5C13.7231 40.5 6 32.7769 6 23.25C6 13.7231 13.7231 6 23.25 6C32.7769 6 40.5 13.7231 40.5 23.25C40.5 23.6345 40.4874 24.016 40.4626 24.3944C38.9037 23.6604 37.1623 23.25 35.325 23.25C34.7391 23.25 34.1629 23.2917 33.5993 23.3723L33.6 23.25C33.6 17.5339 28.9662 12.9 23.25 12.9C17.5339 12.9 12.9 17.5339 12.9 23.25C12.9 28.9662 17.5339 33.6 23.25 33.6Z" fill="#15A675"/>
<path d="M35.325 40.5C38.183 40.5 40.5 38.1831 40.5 35.325C40.5 32.467 38.183 30.15 35.325 30.15C32.467 30.15 30.15 32.467 30.15 35.325C30.15 38.1831 32.467 40.5 35.325 40.5Z" fill="#15A675"/>
</svg>
