<svg width="173" height="46" viewBox="0 0 173 46" fill="none" xmlns="http://www.w3.org/2000/svg">
<path d="M20.125 33.35L20.2473 33.3493C20.1667 33.9129 20.125 34.4891 20.125 35.075C20.125 36.9123 20.5354 38.6537 21.2694 40.2126C20.891 40.2374 20.5095 40.25 20.125 40.25C10.5981 40.25 2.875 32.5269 2.875 23C2.875 13.4731 10.5981 5.75 20.125 5.75C29.6519 5.75 37.375 13.4731 37.375 23C37.375 23.3845 37.3624 23.766 37.3376 24.1444C35.7787 23.4104 34.0373 23 32.2 23C31.6141 23 31.0379 23.0417 30.4743 23.1223L30.475 23C30.475 17.2839 25.8412 12.65 20.125 12.65C14.4089 12.65 9.775 17.2839 9.775 23C9.775 28.7162 14.4089 33.35 20.125 33.35Z" fill="#15A675"/>
<path d="M32.2 40.25C35.058 40.25 37.375 37.9331 37.375 35.075C37.375 32.217 35.058 29.9 32.2 29.9C29.342 29.9 27.025 32.217 27.025 35.075C27.025 37.9331 29.342 40.25 32.2 40.25Z" fill="#15A675"/>
<path fill-rule="evenodd" clip-rule="evenodd" d="M67.0181 31.3136C69.0145 29.2448 70.0728 26.2736 70.0728 22.865H70.096C70.096 16.4762 66.4358 11.5 59.5039 11.5C52.572 11.5 48.875 16.4762 48.875 22.865C48.875 29.2538 52.572 34.23 59.5039 34.23C61.2671 34.2683 63.0128 33.8786 64.5873 33.0954L66.3619 36.0437H69.948L67.0181 31.3136ZM59.0465 23.9131L62.7804 30.1197C61.7682 30.6525 60.6323 30.9149 59.4855 30.8807C54.7532 30.8807 52.6644 27.1987 52.6644 22.865C52.6644 18.5314 54.7764 14.8676 59.4809 14.8676C64.1854 14.8676 66.2695 18.5541 66.2695 22.8879C66.3343 24.6801 65.8927 26.455 64.994 28.0144L62.4707 23.9131H59.0465Z" fill="#3E3D49"/>
<path d="M76.0113 11.5H72.3974V14.8448H76.0113V11.5Z" fill="#3E3D49"/>
<path d="M75.9512 33.8291H72.4297V18.1942H75.9512V33.8291Z" fill="#3E3D49"/>
<path d="M90.3094 33.8293V24.7154C90.3094 22.168 89.1263 20.8784 86.7879 20.8784C84.2648 20.8784 82.6751 22.9974 82.6751 25.4354V33.8293H79.1536V18.1944H82.5503V19.7027H83.299C84.2231 18.5042 85.7621 17.798 87.8785 17.798C91.8344 17.798 93.8308 20.1629 93.8308 24.0637V33.8293H90.3094Z" fill="#3E3D49"/>
<path fill-rule="evenodd" clip-rule="evenodd" d="M111.484 18.1945V33.0637C111.484 37.4884 108.462 40.25 103.822 40.25C99.6121 40.25 96.7793 38.5001 96.4279 35.2146H99.917C100.259 36.7776 101.632 37.3928 103.78 37.3928C106.77 37.3928 107.986 35.5701 107.986 32.8358V31.7741H107.196C106.452 32.8495 105.047 33.6789 102.773 33.6789C98.4429 33.6789 95.7949 30.2976 95.7949 25.7544C95.7949 21.211 98.5261 17.8161 102.791 17.8161C105.158 17.8161 106.623 18.7275 107.339 19.7209H108.087V18.1945H111.484ZM108.087 25.7544C108.087 23.0476 106.623 20.7417 103.665 20.7417C100.925 20.7417 99.3348 22.7969 99.3348 25.7544C99.3348 28.7118 100.925 30.7306 103.665 30.7306C106.623 30.7306 108.087 28.4247 108.087 25.7544Z" fill="#3E3D49"/>
<path d="M118.619 11.5H115.098V33.8336H118.619V11.5Z" fill="#3E3D49"/>
<path d="M166.103 33.8293V24.7154C166.103 22.168 164.92 20.8784 162.583 20.8784C160.058 20.8784 158.469 22.9974 158.469 25.4354V33.8293H154.948V18.1944H158.345V19.7027H159.092C160.017 18.5042 161.556 17.798 163.672 17.798C167.628 17.798 169.625 20.1629 169.625 24.0637V33.8293H166.103Z" fill="#3E3D49"/>
<path fill-rule="evenodd" clip-rule="evenodd" d="M145.182 34.2531C150.163 34.2531 153.186 30.8125 153.186 26.0186C153.186 21.2612 150.167 17.8161 145.182 17.8161C140.195 17.8161 137.172 21.2476 137.172 26.0186C137.172 30.7898 140.199 34.2531 145.182 34.2531ZM145.182 20.769C148.277 20.769 149.664 23.2845 149.664 26.0186C149.664 28.8167 148.282 31.3047 145.182 31.3047C142.08 31.3047 140.694 28.7529 140.694 26.0186C140.694 23.2845 142.085 20.769 145.182 20.769Z" fill="#3E3D49"/>
<path d="M128.851 34.1905C132.709 34.1905 135.388 32.0114 135.897 28.7887L132.36 28.8147C132.216 29.5819 131.773 30.2651 131.124 30.7221C130.476 31.1792 129.671 31.3746 128.877 31.2678C125.73 31.2678 124.47 28.7625 124.47 25.9703C124.47 23.178 125.689 20.751 128.877 20.751C129.614 20.6793 130.353 20.8603 130.967 21.2629C131.581 21.6656 132.031 22.2644 132.24 22.9562H135.763C135.294 19.9029 132.776 17.8154 128.851 17.8154C123.868 17.8154 120.907 21.1817 120.907 25.9703C120.907 30.7589 123.868 34.1905 128.851 34.1905Z" fill="#3E3D49"/>
</svg>
