<svg width="176" height="46" viewBox="0 0 176 46" fill="none" xmlns="http://www.w3.org/2000/svg">
<path d="M27.3293 5C34.6801 5 40.8322 10.5943 41.6576 17.9284L41.647 17.8528L41.7351 17.8864C45.9571 19.517 48.8568 23.5741 48.9947 28.2214L48.9991 28.382L49 28.5678C49 34.8814 43.9434 40 37.7043 40H34.1174C33.4708 39.9972 32.8519 39.7369 32.3965 39.2763C31.9412 38.8154 31.6869 38.1919 31.6894 37.5432C31.6894 36.1854 32.7773 35.0851 34.1174 35.0851H37.7043C41.2609 35.0851 44.1442 32.1672 44.1442 28.5678C44.1442 24.9685 41.26 22.0517 37.7043 22.0517C37.2921 22.0517 36.9721 22.0779 36.742 22.1294C36.8425 21.6222 36.8936 20.777 36.8936 19.5937C36.8936 14.2493 32.612 9.91497 27.3293 9.91497C22.2045 9.91497 17.9961 14.0036 17.7743 19.1653L17.7555 19.6231L17.3172 19.5118L13.2793 18.4859L13 18.4156V17.9683L13.0021 17.9263C13.817 10.6814 19.8393 5.1218 27.0939 5.0021L27.3261 5H27.3293Z" fill="#0D53FF"/>
<path d="M16.3616 17C22.6364 17 27.7232 22.1492 27.7232 28.5006C27.7234 29.4636 27.6045 30.423 27.3695 31.3566C27.2915 31.6709 27.1524 31.9666 26.9603 32.2268C26.7681 32.4869 26.5266 32.7063 26.2496 32.8724C25.9727 33.0385 25.6658 33.148 25.3465 33.1947C25.0273 33.2413 24.702 33.2241 24.3894 33.1441C23.7579 32.9775 23.2177 32.5668 22.8868 32.0016C22.556 31.4365 22.4614 30.7628 22.6237 30.1279C22.7584 29.5961 22.8258 29.0493 22.8244 28.5006C22.8244 24.8865 19.9309 21.9584 16.3616 21.9584C12.7923 21.9584 9.89883 24.8865 9.89883 28.4995C9.89883 32.1136 12.7923 35.0417 16.3616 35.0417H27.5511C28.9028 35.0417 30 36.1517 30 37.5213C30.0012 37.8456 29.9389 38.1672 29.8164 38.4672C29.694 38.767 29.5138 39.0399 29.2864 39.2702C29.0589 39.5002 28.7884 39.6832 28.4905 39.8085C28.1926 39.9337 27.873 39.9987 27.55 40H16.3627C10.0868 40 5 34.8509 5 28.5006C5 22.1492 10.0868 17 16.3616 17Z" fill="url(#paint0_linear_314_65)"/>
<path fill-rule="evenodd" clip-rule="evenodd" d="M70.76 14.18H72.27C73.26 15.95 74.31 17.35 75.41 18.38H66.96C68.39 17.23 69.66 15.83 70.76 14.18ZM83.18 18.23C80.55 17.74 78.18 15.83 77.1 14.18H82.74C82.89 14.18 83.02 14.05 83.02 13.9V10.67C83.02 10.52 82.89 10.39 82.74 10.39H72.83C72.89 10.28 72.96 10.09 73.05 9.84C73.22 9.44 73.35 9.12 73.44 8.88C73.44 8.87 73.45 8.86 73.46 8.85L73.56 8.61C73.67 8.32 73.66 8.2 73.36 8.2H69.15C69.02 8.2 68.91 8.27 68.85 8.39L68.69 8.71C68.42 9.28 68.12 9.84 67.8 10.39H59.89C59.74 10.39 59.61 10.52 59.61 10.67V13.9C59.61 14.06 59.74 14.18 59.89 14.18H65.28C64.02 15.85 61.98 17.17 59.22 18.26C59.09 18.31 59.01 18.43 59 18.57V22.05C59 22.24 59.19 22.38 59.38 22.33C61.09 21.81 62.73 21.11 64.29 20.24V21.71C64.29 21.87 64.42 21.99 64.58 21.99H78.27C78.43 21.99 78.56 21.86 78.56 21.71V20.55C79.9 21.22 81.42 21.74 83.11 22.13C83.29 22.17 83.46 22.03 83.46 21.85V18.56C83.46 18.4 83.34 18.26 83.18 18.23ZM93.56 25.5H105.62V21.3H93.56V25.5ZM111.84 35.43H106.02V29.23H109.72C109.88 29.23 110 29.11 110 28.95V17.84C110 17.69 109.87 17.56 109.72 17.56H101.91V14.68H111.48C111.63 14.68 111.76 14.55 111.76 14.4V11.09C111.76 10.94 111.63 10.81 111.48 10.81H101.91V8.67C101.91 8.52 101.78 8.39 101.63 8.39H97.65C97.5 8.39 97.37 8.52 97.37 8.67V10.8H87.88C87.73 10.8 87.6 10.93 87.6 11.08V14.39C87.6 14.55 87.73 14.67 87.88 14.67H97.37V17.55H89.45C89.3 17.55 89.17 17.67 89.17 17.83V28.94C89.17 29.09 89.3 29.22 89.45 29.22H93.55C93.55 32.74 90.66 34.94 87.6 35.58C87.44 35.61 87.33 35.75 87.33 35.91V39.71C87.33 39.87 87.46 40 87.62 40C87.63 40 87.65 40 87.66 40C93.86 39.12 97.7 34.96 98.01 29.23H101.56V38.99C101.56 39.21 101.74 39.39 101.96 39.39H111.84C111.99 39.39 112.12 39.26 112.12 39.11V35.71C112.12 35.55 111.99 35.43 111.84 35.43ZM83.04 24.09H59.34C59.19 24.09 59.06 24.21 59.06 24.37V27.6C59.06 27.76 59.19 27.88 59.34 27.88H63.53L61.78 33.86C61.74 34.01 61.82 34.16 61.97 34.21C62 34.21 62.02 34.22 62.05 34.22H76.3L74.79 39.37C74.75 39.52 74.83 39.67 74.98 39.72C75.01 39.72 75.03 39.73 75.06 39.73H78.95C79.1 39.73 79.23 39.63 79.27 39.49L81.87 30.71C81.91 30.56 81.83 30.41 81.68 30.36C81.65 30.36 81.63 30.35 81.6 30.35H67.21L67.93 27.88H83.04C83.19 27.88 83.32 27.75 83.32 27.6V24.37C83.32 24.22 83.19 24.09 83.04 24.09ZM140.99 9.01C141.14 9.01 141.27 9.13 141.27 9.29V39.22C141.27 39.37 141.14 39.5 140.99 39.5H135.31C135.16 39.5 135.03 39.38 135.03 39.22V36.09C135.03 35.94 135.16 35.81 135.31 35.81H137.21V12.67H120.97V39.29C120.97 39.45 120.84 39.57 120.69 39.57H117.18C117.02 39.57 116.9 39.45 116.9 39.29V9.29C116.9 9.14 117.03 9.01 117.18 9.01H140.99ZM129.33 14.77C129.48 14.77 129.61 14.89 129.61 15.05C129.61 15.07 129.61 15.09 129.61 15.11L128.2 21.73L130.84 22.89L132.05 17.23C132.08 17.07 132.22 16.96 132.38 16.96H135.68C135.83 16.96 135.96 17.08 135.96 17.24C135.96 17.26 135.96 17.28 135.96 17.3L134.43 24.47L135.95 25.14C136.07 25.19 136.15 25.31 136.15 25.45V28.95C136.15 29.11 136.02 29.23 135.87 29.23C135.83 29.23 135.79 29.23 135.76 29.21L133.63 28.27L132.46 33.77C132.43 33.93 132.29 34.04 132.13 34.04H128.83C128.68 34.04 128.55 33.92 128.55 33.76C128.55 33.74 128.55 33.72 128.55 33.7L130.04 26.7L127.4 25.54L126.11 31.58C126.08 31.74 125.94 31.85 125.78 31.85H122.48C122.33 31.85 122.2 31.73 122.2 31.57C122.2 31.55 122.2 31.53 122.2 31.51L123.81 23.97L122.13 23.23C122.01 23.18 121.93 23.06 121.93 22.92V19.42C121.93 19.22 122.14 19.08 122.32 19.16L124.62 20.17L125.71 15.05C125.74 14.89 125.88 14.78 126.04 14.78H129.34L129.33 14.77ZM168.34 27.95C168.49 27.95 168.62 28.07 168.62 28.23V36.17H170.72C170.87 36.17 171 36.29 171 36.45V39.27C171 39.42 170.87 39.55 170.72 39.55H145.37C145.22 39.55 145.09 39.43 145.09 39.27V36.45C145.09 36.3 145.22 36.17 145.37 36.17H147.5V28.24C147.5 28.09 147.63 27.96 147.78 27.96H168.34V27.95ZM164.75 31.12H162.57V36.16H164.75V31.12ZM159.05 31.12H157.01V36.16H159.05V31.12ZM153.49 31.12H151.37V36.16H153.49V31.12ZM158.82 8C158.97 8 159.1 8.12 159.1 8.28C159.1 8.3 159.1 8.32 159.1 8.35L158.75 9.79H168.08C168.23 9.79 168.36 9.91 168.36 10.07V17.27H170.56C170.71 17.27 170.84 17.4 170.84 17.55V20.19C170.84 20.34 170.72 20.47 170.56 20.47H168.36V26.58C168.36 26.73 168.23 26.86 168.08 26.86H162.45C162.3 26.86 162.17 26.73 162.17 26.58V24.04C162.17 23.89 162.3 23.76 162.45 23.76H164.15V20.47H152.42L151.49 26.95H147.42C147.27 26.95 147.14 26.83 147.14 26.67C147.14 26.66 147.14 26.64 147.14 26.63L148.07 20.47H145.72C145.57 20.47 145.44 20.34 145.44 20.19V17.54C145.44 17.39 145.57 17.26 145.72 17.26H148.49V10.07C148.49 9.92 148.62 9.79 148.77 9.79H153.98L154.35 8.26C154.37 8.11 154.51 8 154.67 8H158.82ZM158.7 21.55C158.84 21.55 158.97 21.64 159.02 21.77C159.49 23.07 159.87 24.4 160.16 25.75C160.19 25.9 160.09 26.05 159.94 26.08C159.92 26.08 159.9 26.08 159.88 26.08H156.63C156.47 26.08 156.33 25.97 156.3 25.81C156.02 24.49 155.69 23.19 155.29 21.9C155.24 21.75 155.33 21.59 155.48 21.55C155.51 21.55 155.53 21.54 155.56 21.54H158.7V21.55ZM164.14 13.25H152.69V17.27H156.75C156.56 16.46 156.31 15.71 155.99 14.64C155.95 14.49 156.03 14.33 156.18 14.29C156.21 14.29 156.23 14.28 156.26 14.28H159.38C159.52 14.28 159.65 14.37 159.7 14.5C160.03 15.39 160.34 16.18 160.62 17.27H164.14V13.25Z" fill="#151515"/>
<defs>
<linearGradient id="paint0_linear_314_65" x1="4.82365" y1="17.0381" x2="30.2586" y2="40.2623" gradientUnits="userSpaceOnUse">
<stop offset="0.273176" stop-color="#00BDFF"/>
<stop offset="1" stop-color="#00FD35"/>
</linearGradient>
</defs>
</svg>
