<svg width="46" height="46" viewBox="0 0 46 46" fill="none" xmlns="http://www.w3.org/2000/svg">
<path d="M23.3293 5C30.6801 5 36.8322 10.5943 37.6576 17.9284L37.647 17.8528L37.7351 17.8864C41.9571 19.517 44.8568 23.5741 44.9947 28.2214L44.9991 28.382L45 28.5678C45 34.8814 39.9434 40 33.7043 40H30.1174C29.4708 39.9972 28.8519 39.7369 28.3965 39.2763C27.9412 38.8154 27.6869 38.1919 27.6894 37.5432C27.6894 36.1854 28.7773 35.0851 30.1174 35.0851H33.7043C37.2609 35.0851 40.1442 32.1672 40.1442 28.5678C40.1442 24.9685 37.26 22.0517 33.7043 22.0517C33.2921 22.0517 32.9721 22.0779 32.742 22.1294C32.8425 21.6222 32.8936 20.777 32.8936 19.5937C32.8936 14.2493 28.612 9.91497 23.3293 9.91497C18.2045 9.91497 13.9961 14.0036 13.7743 19.1653L13.7555 19.6231L13.3172 19.5118L9.27929 18.4859L9 18.4156V17.9683L9.00209 17.9263C9.81699 10.6814 15.8393 5.1218 23.0939 5.0021L23.3261 5H23.3293Z" fill="#0D53FF"/>
<path d="M12.3616 17C18.6364 17 23.7232 22.1492 23.7232 28.5006C23.7234 29.4636 23.6045 30.423 23.3695 31.3566C23.2915 31.6709 23.1524 31.9666 22.9603 32.2268C22.7681 32.4869 22.5266 32.7063 22.2496 32.8724C21.9727 33.0385 21.6658 33.148 21.3465 33.1947C21.0273 33.2413 20.702 33.2241 20.3894 33.1441C19.7579 32.9775 19.2177 32.5668 18.8868 32.0016C18.556 31.4365 18.4614 30.7628 18.6237 30.1279C18.7584 29.5961 18.8258 29.0493 18.8244 28.5006C18.8244 24.8865 15.9309 21.9584 12.3616 21.9584C8.79229 21.9584 5.89883 24.8865 5.89883 28.4995C5.89883 32.1136 8.79229 35.0417 12.3616 35.0417H23.5511C24.9028 35.0417 26 36.1517 26 37.5213C26.0012 37.8456 25.9389 38.1672 25.8164 38.4672C25.694 38.767 25.5138 39.0399 25.2864 39.2702C25.0589 39.5002 24.7884 39.6832 24.4905 39.8085C24.1926 39.9337 23.873 39.9987 23.55 40H12.3627C6.08681 40 1 34.8509 1 28.5006C1 22.1492 6.08681 17 12.3616 17Z" fill="url(#paint0_linear_314_60)"/>
<defs>
<linearGradient id="paint0_linear_314_60" x1="0.823654" y1="17.0381" x2="26.2586" y2="40.2623" gradientUnits="userSpaceOnUse">
<stop offset="0.273176" stop-color="#00BDFF"/>
<stop offset="1" stop-color="#00FD35"/>
</linearGradient>
</defs>
</svg>
