<svg width="46" height="46" viewBox="0 0 46 46" fill="none" xmlns="http://www.w3.org/2000/svg">
<path fill-rule="evenodd" clip-rule="evenodd" d="M22.7047 16.8909C20.3985 21.2809 19.4304 27.1122 17.1719 30.7718C14.0865 35.6219 8.04466 35.7576 4.54461 32.6482C2.00829 30.3583 1.9638 27.937 2.00829 24.7799C2.00829 22.0341 2.19279 19.4967 3.48428 17.2111C4.72585 14.9212 7.49334 11.8118 13.2085 11.2637C13.381 11.2475 13.5666 11.2388 13.7554 11.2388H13.8043C14.8527 11.2388 16.0942 11.4395 17.1719 11.8596C18.878 12.5921 21.1842 13.9607 22.7047 16.8909Z" fill="#FF5AA3"/>
<path fill-rule="evenodd" clip-rule="evenodd" d="M40.8659 32.6482C37.3605 35.7576 31.323 35.6219 28.2343 30.7707C25.9769 27.1133 25.0077 21.2809 22.7047 16.8899C24.2252 13.9607 26.5325 12.5921 28.2343 11.8596C29.3108 11.4534 30.4513 11.2432 31.6019 11.2388C31.8114 11.2388 32.0089 11.2475 32.1988 11.2626C37.9183 11.8118 40.6804 14.9212 41.9263 17.21C43.2178 19.4967 43.4023 22.033 43.4023 24.7788C43.4468 27.937 43.4023 30.3594 40.8659 32.6482Z" fill="#00EFF5"/>
<path fill-rule="evenodd" clip-rule="evenodd" d="M31.6019 11.2388C30.5535 11.2388 29.312 11.4395 28.2343 11.8595C26.5325 12.5921 24.2252 13.9607 22.7047 16.8909C21.1853 13.9607 18.878 12.5921 17.1719 11.8595C16.0954 11.4534 14.9549 11.2432 13.8043 11.2388C13.8043 11.2388 17.2414 11 22.7036 11C28.0954 11 31.6019 11.2388 31.6019 11.2388Z" fill="#395AE5"/>
</svg>
