<svg width="50" height="46" viewBox="0 0 50 46" fill="none" xmlns="http://www.w3.org/2000/svg">
<g clip-path="url(#clip0_316_85)">
<mask id="mask0_316_85" style="mask-type:luminance" maskUnits="userSpaceOnUse" x="0" y="0" width="50" height="46">
<path d="M49.8795 0H0V45.9787H49.8795V0Z" fill="white"/>
</mask>
<g mask="url(#mask0_316_85)">
<path d="M47.7532 0H13.7261C12.5518 0 11.5999 0.943323 11.5999 2.10698V11.4947L31.3197 17.242L49.8795 11.4947V2.10698C49.8795 0.943323 48.9277 0 47.7532 0Z" fill="#41A5EE"/>
<path d="M49.8795 11.4946H11.5999V22.9893L31.3197 26.4377L49.8795 22.9893V11.4946Z" fill="#2B7CD3"/>
<path d="M11.5999 22.9894V34.4841L30.1597 36.783L49.8795 34.4841V22.9894H11.5999Z" fill="#185ABD"/>
<path d="M13.7261 45.9786H47.7533C48.9277 45.9786 49.8795 45.0353 49.8795 43.8717V34.484H11.5999V43.8717C11.5999 45.0353 12.5518 45.9786 13.7261 45.9786Z" fill="#103F91"/>
<path opacity="0.1" d="M25.7134 9.1958H11.5999V37.9324H25.7134C26.8862 37.9287 27.8359 36.9876 27.8397 35.8255V11.3028C27.8359 10.1407 26.8862 9.19957 25.7134 9.1958Z" fill="black"/>
<path opacity="0.2" d="M24.5535 10.3452H11.5999V39.0818H24.5535C25.7262 39.0781 26.6759 38.137 26.6797 36.9749V12.4522C26.6759 11.2901 25.7262 10.349 24.5535 10.3452Z" fill="black"/>
<path opacity="0.2" d="M24.5535 10.3452H11.5999V36.783H24.5535C25.7262 36.7791 26.6759 35.8381 26.6797 34.6759V12.4522C26.6759 11.2901 25.7262 10.349 24.5535 10.3452Z" fill="black"/>
<path opacity="0.2" d="M23.3935 10.3452H11.5999V36.783H23.3935C24.5662 36.7791 25.5159 35.8381 25.5197 34.6759V12.4522C25.5159 11.2901 24.5662 10.349 23.3935 10.3452Z" fill="black"/>
<path d="M2.12627 10.3452H23.3935C24.5678 10.3452 25.5198 11.2885 25.5198 12.4522V33.5265C25.5198 34.6902 24.5678 35.6335 23.3935 35.6335H2.12627C0.951958 35.6335 0 34.6902 0 33.5265V12.4522C0 11.2885 0.951958 10.3452 2.12627 10.3452Z" fill="url(#paint0_linear_316_85)"/>
<path d="M8.72544 26.5044C8.76719 26.8297 8.79505 27.1125 8.80781 27.355H8.85652C8.87508 27.1251 8.91371 26.8481 8.9725 26.5239C9.0313 26.1998 9.08424 25.9258 9.13144 25.7021L11.3679 16.1408H14.2597L16.5797 25.5584C16.7145 26.144 16.811 26.7376 16.8686 27.3355H16.9069C16.9501 26.7562 17.0307 26.1803 17.1481 25.6113L18.9983 16.1362H21.6303L18.38 29.8379H15.3049L13.1009 20.7639C13.0371 20.503 12.9641 20.1616 12.884 19.742C12.804 19.3225 12.7541 19.0156 12.7344 18.8225H12.6961C12.6706 19.0455 12.6207 19.3766 12.5464 19.8157C12.4722 20.2548 12.4126 20.5796 12.3678 20.7904L10.296 29.8355H7.1687L3.90103 16.1408H6.58057L8.59548 25.7216C8.64078 25.9182 8.6837 26.1803 8.72544 26.5044Z" fill="white"/>
</g>
</g>
<defs>
<linearGradient id="paint0_linear_316_85" x1="4.4333" y1="8.69887" x2="20.8599" y2="37.4095" gradientUnits="userSpaceOnUse">
<stop stop-color="#2368C4"/>
<stop offset="0.5" stop-color="#1A5DBE"/>
<stop offset="1" stop-color="#1146AC"/>
</linearGradient>
<clipPath id="clip0_316_85">
<rect width="49.8795" height="46" fill="white"/>
</clipPath>
</defs>
</svg>
