<svg width="50" height="50" viewBox="0 0 50 50" fill="none" xmlns="http://www.w3.org/2000/svg">
<g clip-path="url(#clip0_465_36091)">
<path fill-rule="evenodd" clip-rule="evenodd" d="M25 0C11.193 0 0 11.1928 0 25C0 38.807 11.193 50 25 50C38.8072 50 50 38.807 50 25C50 11.1928 38.8072 0 25 0Z" fill="#1472FF"/>
<path fill-rule="evenodd" clip-rule="evenodd" d="M40.2588 16.5081C40.0327 16.7343 39.7202 16.8743 39.3748 16.8743H37.8123C36.9494 16.8743 36.25 17.5737 36.25 18.4367V26.8743C36.25 34.1229 30.3736 39.9992 23.125 39.9992C15.8761 39.9992 10 34.1229 10 26.8743C10 26.5443 10.012 26.2173 10.0361 25.8935C10.0373 25.8743 10.0389 25.8549 10.0405 25.8359C10.0909 25.3656 10.4891 24.9995 10.9725 24.9995C11.2558 24.9995 11.5095 25.1248 11.6814 25.3234L11.6836 25.3259C11.6964 25.3421 11.7094 25.3582 11.7223 25.3742C11.723 25.3748 11.7234 25.3754 11.7239 25.376C12.4689 26.2903 13.6036 26.8743 14.8748 26.8743H29.0623C31.3061 26.8743 33.125 25.0553 33.125 22.8118V12.6556H33.1305C33.2106 11.5202 34.1567 10.6241 35.3125 10.6241C36.4678 10.6241 37.4141 11.5202 37.4944 12.6556H37.5V13.1243C37.5 13.8146 38.0595 14.3743 38.75 14.3743H39.3748C40.0653 14.3743 40.625 14.9338 40.625 15.6243C40.625 15.9695 40.485 16.282 40.2588 16.5081Z" fill="white"/>
</g>
<defs>
<clipPath id="clip0_465_36091">
<rect width="50" height="50" fill="white"/>
</clipPath>
</defs>
</svg>
