<svg width="46" height="46" viewBox="0 0 46 46" fill="none" xmlns="http://www.w3.org/2000/svg">
<g clip-path="url(#clip0_266_448)">
<mask id="mask0_266_448" style="mask-type:luminance" maskUnits="userSpaceOnUse" x="0" y="0" width="46" height="46">
<path d="M36.3548 0H9.64516C4.31829 0 0 4.31829 0 9.64516V36.3548C0 41.6817 4.31829 46 9.64516 46H36.3548C41.6817 46 46 41.6817 46 36.3548V9.64516C46 4.31829 41.6817 0 36.3548 0Z" fill="white"/>
</mask>
<g mask="url(#mask0_266_448)">
<path d="M36.3548 0H9.64516C4.31829 0 0 4.31829 0 9.64516V36.3548C0 41.6817 4.31829 46 9.64516 46H36.3548C41.6817 46 46 41.6817 46 36.3548V9.64516C46 4.31829 41.6817 0 36.3548 0Z" fill="#FCF7F2"/>
<path opacity="0.6" d="M0 19.9333L23 30.1556V46H0V19.9333Z" fill="#FFE8D5"/>
<path opacity="0.6" d="M46 19.9333L23 30.1556V46H46V19.9333Z" fill="#FFE8D5"/>
<path d="M15.0778 16.1917C15.0778 15.8961 15.0778 15.7484 15.1075 15.6075C15.1339 15.4825 15.1775 15.3619 15.237 15.2491C15.3041 15.122 15.3984 15.0089 15.587 14.7826L21.3362 7.88221C21.9081 7.19578 22.194 6.85258 22.5358 6.72725C22.8357 6.61728 23.1644 6.61728 23.4642 6.72725C23.806 6.85258 24.092 7.19578 24.6639 7.88221L30.4131 14.7826C30.6016 15.0089 30.6959 15.122 30.763 15.2491C30.8226 15.3619 30.8661 15.4825 30.8926 15.6075C30.9222 15.7484 30.9222 15.8961 30.9222 16.1917V22.6268C30.9222 25.582 30.9222 27.0596 30.625 28.4683C30.3613 29.7179 29.9255 30.9241 29.3302 32.0519C28.6591 33.3233 27.7165 34.4547 25.8312 36.7175L24.6639 38.1185C24.092 38.8049 23.806 39.1481 23.4642 39.2734C23.1644 39.3834 22.8357 39.3834 22.5358 39.2734C22.194 39.1481 21.9081 38.8049 21.3362 38.1185L20.1689 36.7175C18.2836 34.4547 17.341 33.3233 16.6699 32.0519C16.0746 30.9241 15.6387 29.7179 15.3751 28.4683C15.0778 27.0596 15.0778 25.582 15.0778 22.6268V16.1917Z" fill="url(#paint0_linear_266_448)"/>
<path d="M23 39.3563C22.8429 39.3562 22.6858 39.3288 22.5358 39.2738L23 39.3563Z" fill="url(#paint1_linear_266_448)"/>
<path d="M22.5358 39.2737C22.1941 39.1484 21.9082 38.8052 21.3363 38.1188L22.5358 39.2737Z" fill="url(#paint2_linear_266_448)"/>
<path d="M20.169 36.7178C18.2837 34.455 17.341 33.3236 16.67 32.0522L20.169 36.7178Z" fill="url(#paint3_linear_266_448)"/>
<path d="M16.67 32.0523C16.0746 30.9245 15.6387 29.7182 15.3751 28.4686L16.67 32.0523Z" fill="url(#paint4_linear_266_448)"/>
<path d="M15.3751 28.4687C15.2567 27.9077 15.1855 27.3358 15.1427 26.6641L15.3751 28.4687Z" fill="url(#paint5_linear_266_448)"/>
<path d="M23.0001 30.1562L30.8575 26.6641C30.8146 27.3358 30.7434 27.9077 30.625 28.4687C30.3613 29.7182 29.9255 30.9246 29.3302 32.0523C28.659 33.3237 27.7164 34.4551 25.8311 36.7179L24.6639 38.1188C24.0919 38.8052 23.806 39.1485 23.4642 39.2738C23.3143 39.3288 23.1571 39.3562 23 39.3563" fill="url(#paint6_linear_266_448)"/>
<path d="M22.5358 39.2738L23 39.3563C23.1571 39.3562 23.3143 39.3288 23.4642 39.2738C23.806 39.1485 24.0919 38.8052 24.6639 38.1188L25.8311 36.7179C27.7164 34.4551 28.659 33.3237 29.3302 32.0523C29.9255 30.9246 30.3613 29.7182 30.625 28.4687C30.7434 27.9077 30.8146 27.3358 30.8575 26.6641L23.0001 30.1562L15.1427 26.6641L15.3751 28.4687L16.67 32.0523L20.169 36.7179L21.3363 38.1188L22.5358 39.2738Z" fill="url(#paint7_linear_266_448)"/>
<path d="M22.4108 30.6775C22.4044 30.391 22.635 30.1553 22.9217 30.1553H23.0781C23.3647 30.1553 23.5953 30.391 23.5891 30.6775L23.2554 45.9997H22.7443L22.4108 30.6775Z" fill="url(#paint8_linear_266_448)"/>
</g>
</g>
<defs>
<linearGradient id="paint0_linear_266_448" x1="23" y1="6.64477" x2="23" y2="39.3558" gradientUnits="userSpaceOnUse">
<stop stop-color="#54C204"/>
<stop offset="1" stop-color="#D6F2C2"/>
</linearGradient>
<linearGradient id="paint1_linear_266_448" x1="23.0001" y1="26.6643" x2="23.0001" y2="39.3563" gradientUnits="userSpaceOnUse">
<stop stop-color="#54BF08"/>
<stop offset="1" stop-color="#B1E68A"/>
</linearGradient>
<linearGradient id="paint2_linear_266_448" x1="23.0001" y1="26.664" x2="23.0001" y2="39.3562" gradientUnits="userSpaceOnUse">
<stop stop-color="#54BF08"/>
<stop offset="1" stop-color="#B1E68A"/>
</linearGradient>
<linearGradient id="paint3_linear_266_448" x1="23.0001" y1="26.664" x2="23.0001" y2="39.3562" gradientUnits="userSpaceOnUse">
<stop stop-color="#54BF08"/>
<stop offset="1" stop-color="#B1E68A"/>
</linearGradient>
<linearGradient id="paint4_linear_266_448" x1="23.0001" y1="26.664" x2="23.0001" y2="39.3562" gradientUnits="userSpaceOnUse">
<stop stop-color="#54BF08"/>
<stop offset="1" stop-color="#B1E68A"/>
</linearGradient>
<linearGradient id="paint5_linear_266_448" x1="23.0001" y1="26.6641" x2="23.0001" y2="39.3563" gradientUnits="userSpaceOnUse">
<stop stop-color="#54BF08"/>
<stop offset="1" stop-color="#B1E68A"/>
</linearGradient>
<linearGradient id="paint6_linear_266_448" x1="23.0001" y1="26.6641" x2="23.0001" y2="39.3563" gradientUnits="userSpaceOnUse">
<stop stop-color="#54BF08"/>
<stop offset="1" stop-color="#B1E68A"/>
</linearGradient>
<linearGradient id="paint7_linear_266_448" x1="23.0001" y1="26.6641" x2="23.0001" y2="39.3563" gradientUnits="userSpaceOnUse">
<stop stop-color="#54BF08"/>
<stop offset="1" stop-color="#B1E68A"/>
</linearGradient>
<linearGradient id="paint8_linear_266_448" x1="22.9999" y1="30.1553" x2="22.9999" y2="45.9998" gradientUnits="userSpaceOnUse">
<stop stop-color="#61CC14" stop-opacity="0"/>
<stop offset="0.700433" stop-color="#89DB4E"/>
<stop offset="1" stop-color="#FEEEE1"/>
</linearGradient>
<clipPath id="clip0_266_448">
<rect width="46" height="46" fill="white"/>
</clipPath>
</defs>
</svg>
