<svg width="100" height="46" viewBox="0 0 100 46" fill="none" xmlns="http://www.w3.org/2000/svg">
<path fill-rule="evenodd" clip-rule="evenodd" d="M45.4828 6.49187H26.6224V39.2408H31.2437L31.8608 43.1845L38.1098 39.2408H45.4828V6.49187ZM37.5096 35.1499L33.8407 37.4637L33.4809 35.1514H30.841V10.5567H41.2229V35.1514H37.5096V35.1499Z" fill="#1772F6"/>
<path d="M23.1419 21.2257H16.2849C16.2849 20.836 16.2996 20.441 16.3146 20.0385C16.3274 19.695 16.3404 19.3459 16.3447 18.9901V10.5567H24.1632V8.56647C24.1618 8.29312 24.1064 8.02274 24.0003 7.77091C23.8941 7.51907 23.7392 7.29074 23.5446 7.09907C23.1494 6.70949 22.6169 6.49136 22.0623 6.49187H9.85522L9.86592 6.45818C9.90523 6.33435 9.94454 6.21052 9.98384 6.10087C10.4034 4.84354 11.7494 1.00101 11.7494 1.00101C10.4383 0.977966 9.15076 1.35092 8.05447 2.07127C7.18166 2.68461 6.65797 3.11701 5.95513 5.05514C5.52861 6.22162 5.13022 7.36709 4.77863 8.37799C4.4587 9.29786 4.17753 10.1063 3.94919 10.7177C3.21113 12.7663 1.42875 16.3711 1.42875 16.3711C2.76867 16.3523 4.08731 16.0327 5.2875 15.4358C7.00097 14.5265 7.85847 13.1327 8.43269 11.0152L8.5705 10.5552H12.1444V18.9885C12.1444 19.5515 12.1073 20.0995 12.0706 20.6412C12.0573 20.8372 12.044 21.0324 12.0327 21.2272H5.72391C4.63672 21.2272 3.59547 21.6535 2.82525 22.4155C2.44571 22.7914 2.14433 23.2389 1.93854 23.7321C1.73274 24.2253 1.62661 24.7545 1.62628 25.289H11.6207C11.4214 27.1908 11.0221 29.0663 10.4294 30.8841C9.39542 33.8375 7.8325 36.5773 5.81731 38.9694C4.31277 40.5947 2.70356 42.1195 1 43.5341C1 43.5341 5.79281 45.3358 9.30703 42.0713C11.4324 40.0903 13.3357 36.2232 14.253 33.2899C15.078 30.678 15.6522 27.9933 15.968 25.2721H25.1049V23.1715C25.1063 22.9152 25.0564 22.6612 24.9584 22.4245C24.8603 22.1878 24.7159 21.9731 24.5338 21.793C24.3505 21.6113 24.1332 21.4677 23.8943 21.3703C23.6555 21.273 23.3998 21.2238 23.1419 21.2257Z" fill="#1772F6"/>
<path d="M18.2572 29.6344L14.7169 31.9206L22.4314 43.3562C22.9633 42.2887 23.3112 41.1389 23.4604 39.9553C23.7183 38.8315 23.5662 37.6523 23.0316 36.631L18.2572 29.6344Z" fill="#1772F6"/>
<path d="M79.7813 22.7651V8.42381C86.1834 8.10948 92.0129 7.80281 94.2332 7.68321L95.5363 7.60654C96.1289 6.99474 96.8915 3.93421 96.5913 2.97434C96.4796 2.59101 96.2652 1.95314 95.6144 2.12334C93.4579 2.63716 91.2702 3.00953 89.0653 3.23808C84.9742 3.7135 83.1147 3.84844 77.7019 4.24123L77.1154 4.28381C66.8284 5.03054 57.6547 5.38781 57.6547 5.38781C57.6538 5.91415 57.7604 6.43512 57.9679 6.91872C58.1754 7.40231 58.4794 7.83832 58.8613 8.19994C59.2444 8.56543 59.6973 8.8497 60.1927 9.03571C60.6882 9.22173 61.2161 9.30566 61.7447 9.28248C65.2329 9.13681 70.3166 8.89914 75.5198 8.65381V22.7651H55.9504C55.9504 23.843 56.3807 24.8765 57.1494 25.6385C57.9208 26.4022 58.9618 26.8303 60.0465 26.8299H75.5198V37.6783C75.5198 39.0383 74.8093 39.506 73.6348 39.5397H67.6323C67.886 40.4114 68.323 41.2187 68.914 41.9072C69.5065 42.5986 70.2387 43.1562 71.0623 43.5433C72.3972 43.9904 73.8145 44.1355 75.212 43.968C77.2945 43.8668 79.7552 42.7015 79.7552 38.494V26.8299H97.0278C97.5514 26.8299 98.0537 26.6229 98.4212 26.2565C98.7918 25.89 99 25.3932 99 24.8734V22.7651H79.7813Z" fill="#1772F6"/>
<path d="M65.2397 12.1306C65.636 12.3742 65.9802 12.694 66.2527 13.0713L70.6688 19.1755L67.2388 21.6595L60.7233 12.6895L61.2991 12.2725C62.0646 11.725 63.0148 11.5019 63.9436 11.6515C64.4029 11.7241 64.8434 11.8869 65.2397 12.1306Z" fill="#1772F6"/>
<path d="M84.032 19.0575L88.8172 12.7754C89.3886 12.0237 90.2329 11.5296 91.1677 11.4015C91.6311 11.3375 92.1026 11.3658 92.5551 11.4847C93.0076 11.6037 93.4322 11.8109 93.8045 12.0946L94.3787 12.5193L87.462 21.6074L84.032 19.0575Z" fill="#1772F6"/>
</svg>
