<svg width="128" height="128" fill="none" xmlns="http://www.w3.org/2000/svg"><g filter="url(#a)"><path d="m53.59 72.525-1.797-3.779h-.273l-1.66 3.916c-.274.537-.274.81-.694.81v.137h1.524v-.136c-.274 0-.557 0-.557-.274 0-.136.136-.4.273-.947h1.66c.137.137.41.674.41.947 0 .274-.136.274-.556.274v.136h2.49v-.136c-.41 0-.41-.274-.82-.948Zm-2.354-2.294.694 1.62h-1.387l.693-1.62Zm7.325-1.397v.137c.556 0 .693.273.693.673v2.159l-2.627-2.969h-1.66v.137c.136 0 .136 0 .693.537v3.379c0 .4-.137.537-.693.537v.136h1.797v-.136c-.557 0-.694-.137-.694-.674v-2.832l3.457 3.78h.274v-4.19c0-.274 0-.537.556-.537l-.136-.137h-1.66Zm7.47 4.502s-2.217-2.432-2.353-2.705c1.24-1.211 1.66-1.621 2.49-1.621v-.137h-2.217v.137c.557 0 .693.136.693.273s0 .137-.273.4c0 0-1.387 1.211-1.66 1.485v-1.484c0-.537.273-.537.693-.674v-.137h-2.627v.137c.41 0 .694 0 .694.537v3.516c0 .4-.274.4-.694.537v.136h2.627V73.6c-.41 0-.693-.137-.693-.537v-1.348l.137-.137 1.386 1.621a.424.424 0 0 1 .137.274c0 .136-.137.136-.556.136v.137h2.626v-.273c-.136 0-.273 0-.41-.137Zm2.9-2.158c0 .674.274 1.347.83 1.894.557.4 1.241.674 1.934.674.83 0 1.524-.273 1.934-.674.556-.4.83-1.084.83-1.894 0-1.485-1.103-2.569-2.764-2.569-1.66 0-2.763 1.084-2.763 2.569Zm2.764-2.168c1.24 0 1.387.947 1.387 2.295 0 1.347-.41 2.295-1.387 2.295-.83 0-1.386-.948-1.386-2.295 0-1.348.283-2.295 1.386-2.295Zm3.184-.264v.137c.41 0 .693 0 .693.537v3.516c0 .4-.273.4-.693.537v.136h2.764v-.136c-.557 0-.83 0-.83-.537v-1.622c.966 0 1.103.538 1.103 1.084h.137v-2.431h-.137c-.137.537-.137 1.084-1.103 1.084V69.43c0-.274.136-.274.556-.274 1.387 0 1.524.4 1.66 1.211h.137l.137-1.62h-4.424Zm11.24 2.666c-.195-.185-.537-.312-1.016-.371.41-.137 1.104-.273 1.104-1.084 0-.81-.693-1.21-2.07-1.21h-2.354v.136c.41 0 .694 0 .694.537v3.516c0 .4-.274.4-.694.537v.136h2.49c1.66 0 2.217-.957 2.217-1.347 0-.4-.175-.664-.37-.85Zm-2.256-2.129c0-.136 0-.273.41-.273.557 0 .88.41.83.947-.048.537-.273.947-1.24.947v-1.62ZM84 71.178c.557 0 1.103.136 1.103 1.084 0 .674-.273 1.084-.966 1.084-.137 0-.274 0-.274-.4v-1.758H84v-.01Zm-35.342.234c-.195-.185-.537-.312-1.015-.371.41-.137 1.103-.273 1.103-1.084 0-.81-.693-1.21-2.07-1.21h-2.354v.136c.41 0 .694 0 .694.537v3.516c0 .4-.274.4-.694.537v.136h2.49c1.66 0 2.217-.957 2.217-1.347-.01-.4-.176-.664-.37-.85Zm-2.265-2.129c0-.136 0-.273.41-.273.556 0 .879.41.83.947-.049.537-.274.947-1.24.947v-1.62Zm.146 1.895c.557 0 1.104.136 1.104 1.084 0 .674-.274 1.084-.967 1.084-.137 0-.274 0-.274-.4v-1.758h.137v-.01Zm42.988 2.158c-.556 0-.693-.137-.693-.4v-1.758c.693 0 1.103.136 1.24 1.084h.137V69.83h-.137c-.136.81-.556 1.084-1.24 1.084v-1.621c0-.274.137-.274.557-.274 1.103 0 1.523.137 1.796 1.212h.137v-1.485H86.9v.137c.41 0 .694 0 .694.537v3.516c0 .4-.274.4-.694.537v.136h4.56l.274-1.484h-.136c-.547 1.074-1.377 1.21-2.07 1.21Zm2.764-4.59v.273c.41 0 .693 0 .693.538v3.515c0 .4-.273.4-.693.537v.137h2.764v-.137c-.41 0-.694 0-.694-.537v-3.515c0-.4.274-.4.694-.538v-.136H92.29v-.137Zm4.014 0v.273c.41 0 .693 0 .693.538v3.916c0 .273 0 .537-.41.537-.137 0-.264-.059-.273-.137-.01-.078.019-.137.126-.137.108 0 .157-.136.157-.273 0-.4-.41-.537-.557-.537-.273 0-.557.136-.557.537 0 0 0 .947 1.387.947.557 0 .83-.137 1.104-.273.41-.274.556-.674.556-1.348v-3.105c0-.537.274-.537.694-.674v-.137h-2.9v-.127h-.02Zm3.183 0v.273c.41 0 .694 0 .694.538v3.515c0 .4-.274.4-.694.537v.137h2.764v-.137c-.41 0-.693 0-.693-.537v-3.515c0-.4.273-.4.693-.538v-.136h-2.764v-.137Zm6.768 0v.273c.557 0 .693.274.693.674v2.159l-2.627-2.97h-1.66v.137c.137 0 .137 0 .693.538v3.515c0 .4-.136.537-.693.537v.137h1.797v-.137c-.557 0-.693-.136-.693-.673v-2.97l3.457 3.78h.136v-4.19c0-.273 0-.537.557-.537v-.136h-1.66v-.137Zm5.117 2.832v.137c.557 0 .693 0 .693.537v.81c0 .274-.136.538-.83.538-1.24 0-1.523-1.348-1.523-2.295 0-1.485.41-2.295 1.387-2.295.966 0 1.523.947 1.796 1.484h.137v-1.621h-.273c-.137.137-.156.273-.254.273s-.059-.019-.303-.136-.693-.274-1.103-.274c-1.661 0-2.764 1.084-2.764 2.569 0 1.21.83 2.568 2.9 2.568.694 0 1.66-.137 2.071-.4v-.948c0-.537.136-.537.693-.673v-.274h-2.627Zm-7.959-13.34c.42.284.693.557.977.42.254 0 .4-.117.527-.254l.029-.029c0-.137.264-.137.401-.137h.566l.693-.136h1.114c.42.136 1.25 0 1.396 0h.039c.196 0 .821.01 1.074.136.528.137.801.137 1.065.137h.049l.556.137h.694c.283 0 .693-.137 1.113 0h.029c.127 0 .244.01.244.136 0 .137-.136.557-.136.84-.137.137-.274.41-.938.684l-.039.02-.137.136c-.136.137-.283.283-.556.283h-.059c-.293 0-.888-.01-1.162-.127l-.029-.01-.137-.136c-.283-.283-.557-.42-.693-.42-.274 0-.41.127-.547.39l-.01.03v.42c0 .136.127.527.137.683v2.823c0 .136.137.283.137.42.136.273.136.41.136.547v.996c-.01-.108-.136.41-.136.43 0 .126-.118.263-.137.39v.312c-.137 0-.137.137-.283.137-.137 0-.274-.264-.274-.283l-.137-.283c-.136-.274-.136-.41-.136-.547v-.03c0-.146-.01-.41-.137-.546-.127-.127-.137-.381-.137-.645v-.059a1.235 1.235 0 0 0 0-.986c0-.137-.127-.537-.136-.81v-.733c0-.03 0-.82-.264-1.103l-.02-.02v-.136c0-.284-.283-.557-.839-.557-.694 0-.977 0-1.25.136-.274 0-.811.137-.967.01l-.01-.01h-.84c-.273.137-.41.137-.547.391l-.009.03v.84c0 .273-.127.536-.137.683v.02l-.137.42c0 .136 0 .282-.137.42 0 .282-.136.42-.136.556 0 .137-.137.137-.137.283 0 .137-.137.283-.137.283-.137.284-.283.42-1.113.84-.557.283-.557.283-.693.42-.127 0-.264.127-.391.137h-.234c-.411 0-.918-.01-1.055-.137-.274-.273-.547-.41-.557-.81v-.45c0-.283.137-.42.137-.556.137-.703.42-.703.693-.84.264-.137.528-.264.801-.283h.322c.284 0 .557-.137.84-.284.137-.283.557-.556.694-.84.136-.283.419-.556.419-.84.137-.282.137-.556 0-.702-.136 0-.283-.137-.419-.137-.42 0-.84.137-1.114.283-.127.127-.254.137-.498.137h-.195c-.137-.137-.283-.137-.42 0-.283.136-.557.136-.693.136-.137 0-.42-.136-.42-.42 0-.42-.137-.702-.284-.986a1.518 1.518 0 0 1-.136-.673v-.03c.136-.137.283-.283.556-.42.537-.273.684-.283.82-.283h.294c.273-.137.537-.01.81 0h1.699c.264-.127.411-.127.684.156ZM83.658 54.03c.127 0 .127.01.264.137.137 0 .283.283.42.42l.283.137.283.283c.137.283.42.137.557.137h.283c.137 0 .42.136.557.136.263 0 .527-.254.556-.273 0 0 0-.137.137-.137.137-.137.283-.137.283-.283l.137-.137c.137 0 .283-.136.42-.136s.693.136.977.136c.136 0 .556-.136 1.396 0h3.066c0 .137.137.137.284.137h.048c.225 0 .235.01.372.137.126.127.38.136.634.136h.059c.136 0 .283.137.42.284.137.146.137.136.137.283 0 .136-.137.136-.137.283-.137.137-.283.42-.557.557-.283.136-.42.42-.42.84v.986c-.136.136-.136.42-.136.556v1.123c0 .137-.137.137-.137.284-.137.136-.137.283-.283.283h-.557c-.283.137-.42.283-.42.556v.137c0 .127.117.254.244.381l.04.04.556.556.136.136c.284.284.694.84 1.114.987l.283.283c.137.137.283.283.557.283h.556c.137 0 .284 0 .284.137.136.283-.137.703-.284.84l-.283.283c-.283.137-.556.557-.84.703-.283.137-.42.283-.84 0-.42-.137-.556-.283-.84-.703-.283-.557-.693-.703-1.113-.703-.136.137-.283.137-.42.283-.136.137-.283.137-.136.703h-.967c-.615 0-.987.01-1.123.137-.137 0-.283.137-.42.283-.283.137-.42.283-.557.42-.137 0-.283.137-.42.283l-.136.137c-.284.137-.84.137-.977 0l-.137-.137c-.283-.283-.556-.42-.556-.986v-.84c0-.137-.137-.42-.42-.42-.42-.137-.977.283-1.25.42 0 .137-.137.137-.137.137-.42.136-1.113.84-1.533 1.123l-.137.137c-.283.283-.42.42-.556.42-.284-.137-.557-.284-.557-.557V64.41l.137-.137c0-.136.136-.136.136-.136l.42-.42c.127-.127.137-.381.137-.645v-.117c0-.244-.01-.371-.137-.508 0-.137-.244-.137-.508-.137h-.048c-.137 0-.557.137-.694 0-.283-.136-.42-.42-.42-.986v-.136c0-.538.127-.557.264-.557h.293c.557.137.84.137.977 0 .136 0 .283-.283.283-.42s0-.283-.284-.42h-.976l-.137-.137c-.136-.136.137-.42-.136-.556-.137-.137-.284-.137-.42-.137l-.284.137h-.556c-.284 0-.557-.283-.557-1.123 0-.703.84-1.26 1.25-1.543l.283-.137c.284-.283.977-.557 1.114-.703.283-.137.136-.137.42-.283.42-.284.693-.42.84-.84.136-.284.136-.284.282-.42l.264-.02Zm-13.965-.537c.391 0 .772.02 1.035.274.137.136.274.547.557.683.41.137.41.274.557.41.273.274.967.137 1.103.137 0 0 .664-.127 1.211-.137h.44l.693.137c.137 0 .273-.137.41-.137.127-.127.254-.136.381-.136h.04c.263 0 .4 0 .536.117l.02.01.136.136.557.274c.137 0 .274.137.274.41 0 .127-.127.137-.137.244v.02l-.137.41c0 .136 0 .273-.137.273-.136.137-.273.137-.693.547-.137.137-.273.273-.41.273-.137 0-.273 0-.557-.136-.273 0-.273-.137-.41 0l-.03.03c-.126.126-.243.263-.243.517.02.049.273.556.273.81 0 .274-.137.41-.273.547-.137.137-.694.684-.694 1.358 0 .8.264 1.074.41 1.347l.01.02.137.136c.137.274.273.274.137.41-.127.127-.371.137-.518.137h-.039l-.273-.136c-.41 0-.694 0-1.104-.137-.137 0-.273-.137-.41-.137 0 0-.137-.137-.41-.137-.557-.136-1.66-.136-1.797.547v.108c0 .537.01 1.26.137 1.513.136.41.136 1.084 0 1.358l-.059.088c-.254.38-.518.732-.772.732-.136 0-.556-.547-.693-1.22-.136-.401-.01-.919.127-1.446l.01-.049v-.273c.127-.381.137-.527.137-.762v-.049c0-.41-.137-.683-.83-.683h-.088c-.479 0-.625.01-1.016.136-.254.127-.273.137-.723.137h-.166c-.39 0-.78.01-.908.274-.137 0-.137.136-.137.273 0 .273.137.41.274.41.137.137.41.137.556 0 .137 0 .4-.127.665-.01l.029.01.273.137c.137 0 .274.137.41.137.137 0 .4 0 .41.127v.146c-.136 0-.136.137-.136.273v.05c0 .243-.02.37-.273.497-.274.274-1.524.684-2.217.684h-.069c-.8 0-1.464-.03-1.875-.947-.127-.254-.136-.391-.136-.518v-.166s.127-.127.254-.137h.293c.273-.136.41-.136.546-.644l.01-.03v-.312c.137-.264.137-.517.137-.781v-.46c0-.126.02-.253.41-.116.137-.127.264-.391.273-.772v-1.055c0-.39-.01-.869-.254-1.132l-.019-.02-.137-.137c-.137-.273-.41-.547-1.387-.547-.693 0-.693-.136-.83-.273-.136-.137-.136-.41-.136-.41l-.02-.069c-.127-.38-.234-.77.166-1.152.4-.39.664-.41 1.055-.41h4.062c.274 0 .274-.273.41-.41 0-.137.137-.273.274-.41.137-.137.273-.137.273-.274 0-.136.137-.273.41-.41.127-.127.254-.137.499-.137l.136.01Zm4.893 9.522c.137.136.283.136.42.136.556 0 .84.137.976.42.284.42.284.703-.136.84v.84c-.137.137-.284.557-.694.703-.38.127-.41.137-.634.137h-.127c-.245 0-.372-.01-.498-.137l-.42-.137c-.264-.127-.4-.136-.762-.136h-.078c-.557-.137-.84-.284-1.114-.703l-.283-.42c-.283-.284-.42-.42-.42-.704 0-.556.137-.84.42-.84.137 0 .42.137.557.137h1.113c.137 0 .42.137.557 0l.283-.136h.84ZM53.17 53.492c.137 0 .273.274.273.547 0 .264 0 .527.254 1.045l.02.039.273.274c.274.263.547.663 1.338.546l.04-.01h1.103c.41 0 .693.137.967.137h.058c.273 0 .645.01.772.137.273.137.41.518.41.918v.166c-.137.4-.4.928-.801 1.074l-.03.01h-1.796c-.137 0-.274.137-.557.137-.41 0-.693-.137-.83-.137-.273 0-.273.137-.41.273 0 .137 0 .274-.137.41-.136.264-.136.528-.136.665v.83c0 .273-.137.683 0 .947.136.264.273.928.927 1.074l.04.01.556.137h.693c.274 0 .41-.137.694-.137h.068c.371 0 .635-.02.898-.274.41-.273.557-.41.83-.546.274-.137.274-.137.41-.41 0 0 .128-.127.137-.254v-.157s.137-.41.274-.273c.136.273.136.81.273.947.137.264.137.645.137 1.045v.186l-.137 1.084v.273c-.136.41-.556 1.084-1.386 1.22-.811.138-1.348.138-1.885.138h-.059c-.088 0-.869.019-1.65.273-.41 0-.948.127-.967.137h-.274c-.136 0-.273-.137-.41-.137a.424.424 0 0 1-.273-.137c-.137-.136-.274-.136-.41-.273-.137-.137-.527-.39-.557-.654v-.313c0-.156-.02-.664-.41-.664-.41 0-.83.137-1.523.547-.137 0-.137 0-.41.136-.274.137-.694.274-.967.547-.274.274-.83.41-1.797.547-1.524.137-2.07 0-2.354-.273-.547-.4-.683-.664-.693-1.319v-.175c.137-.801.41-.948.674-1.084l.01-.01h.292c.147 0 .4-.01.538-.137.136-.136.136-.264.527-.273h1.27c.693-.137.966-.41 1.103-.81.137-.41 0-.948-.41-1.221-.264-.127-.537-.01-.674 0h-.42c-.273-.137-1.103-.547-1.24-.684a1.123 1.123 0 0 1-.557-.547c-.137-.264-.264-.273-.273-.517v-.166c.127-.381.136-.528.136-.762v-.752c0-.254.01-.39.274-.518.4-.127.928-.136 1.22-.136h.723c.264.127.664.136.938.01l.029-.01h.137c.273-.137.537-.137.556-.518v-.303c0-.273.137-.547.274-.683.273-.274.273-.274.693 0 .42.273.557.547.557.947.136.4.273 1.982.273 2.422v3.34c0 .234.01.36.137.488.137 0 .137.137.41.137.4 0 .41-.127.547-.137h.44c.146 0 .41-.01.537-.274.136-.263.273-1.445.273-1.875v-.302c0-.313-.137-2.94-.137-4.56v-.733c0-.274.137-.41.274-.547.127-.127.136-.137.244-.137l.039.04Zm38.545 8.399c-.283-.137-.42-.137-.557 0-.283.136-.283.136-.283.42v.556c0 .137.137.283.283.283.283.137.694.137.977-.136.127 0 .136 0 .136-.117v-.03c0-.136-.136-.283-.136-.283v-.137c0-.137-.137-.137-.137-.283l-.283-.273Zm-2.344-.987h-.02c-.136 0-.42.137-.556.42-.137.283 0 .42 0 .557v.42c-.127.127-.137.254-.137.38v.04c0 .283 0 .42.137.42h.557l.283-.284c.136-.283.136-.42.136-.556v-.42c.127-.264.137-.528.137-.557-.136-.4-.4-.42-.537-.42ZM85.31 56.56c-.557-.137-.84-.137-1.25 0-.42 0-.557.283-.557.556 0 .137.137.283.42.283h1.133c.136 0 .263.01.4.137l.42.137c.127.127.137.137.244.137h.03s.136 0 .136.136v.596c0 .127-.01.254-.137.254h-.283l-.283-.137c0-.136-1.113-.283-1.396.137v.146l-.137.284v.136c0 .137.136.137.136.284.137.136.284.136.557.136.274 0 .694.137 1.25.137.283.137.42.283.42.557 0 .283-.283.42-.42.42-.283.136-.136.136-.283.283-.127.127-.137.137-.244.137h-.762c-.264 0-.39.01-.527.136-.137.137-.137.283-.137.557 0 .556.283.556.42.556h.137c.283 0 .556-.136.556-.136.137-.137.284-.137.284-.137h.048c.235 0 .235.01.235.137.137 0 .137.137.137.283.136.137.136.137.42.283.42.137.556 0 .693-.137l.137-.136c.283-.137.42-.703.42-.987v-.283c0-.136.136-.556.283-.703 0-.42-.137-.703-.137-.84-.127-.127-.137-.635-.137-1.62v-.225c0-.186-.02-1.114-.556-1.25l-.42-.118c-.137-.136-.42-.136-.557-.136h-.693Zm-17.608 2.5h-.283c-.274 0-.693.136-.83.547-.137.136 0 .273 0 .41.137.127.39.263.664.273h5.146c.274 0 .41-.137.557-.273 0-.127.127-.137.01-.254l-.01-.01v-.274c-.137-.136-.273-.527-1.064-.41l-.04.01h-3.32c-.283-.146-.683-.03-.83-.02Zm22.9-.537c-.136-.137-.42 0-.556 0h-.283c-.137 0-.42.136-.557.283-.137.136-.137.136-.137.283v.137c.137.42.694.283 1.114.283.283 0 .693 0 .556.136.284 0 .557 0 .694-.283.136 0 .136-.136.283-.136.283-.137.42-.137.42-.284v-.283c0-.136-.244-.136-.508-.136h-1.025Zm-21.454-2.588h-.079c-.263 0-.527.127-.674.136h-.292c-.41.137-1.104 0-1.387 0-.137 0-.41 0-.557.137-.136.127-.136.264-.136.39v.06c0 .224.01.234.253.35l.02.01h5.166c.41 0 .928.01 1.328.137.41.137.693.274.83.274.137.127.4.137.537.01l.02-.01v-.147c0-.136-.01-.263-.274-.527-.136-.137-.136-.137-.966-.547-.264-.127-.528-.137-.792-.137H70.31c-.254-.127-.752-.136-1.162-.136Zm22.988-.078h-1.416c-.166 0-.694.01-1.094.136-.42.137-.693.283-.693.557 0 0 0 .136.136.283.137.283.694.137.84.137h.977c.283-.137.976 0 1.113 0 .283 0 .557 0 .693-.137.137-.137.137-.283.137-.42 0-.273-.42-.556-.693-.556Zm6.27-1.963c.42-.42 1.25-.42 1.806-.284l.557.137c.283 0 .556.137.839.137h.284c.283 0 .283.136.42.136 0 .137.283.137.419.284 0 .137.42.283.42.283.137 0 .284.137.284.283v.156c0 .127.009.127.136.264l.137.137c.137.283.42.42.557.283.127 0 .136-.117.136-.254v-.03c0-.136.137-.136.284-.42.146-.282.556-.556.839-.556l.42-.136a2.815 2.815 0 0 1 1.25-.284c.694 0 .84.137.977.137h2.109c.127 0 .147.01.684.137.557 0 .693.137.84.283l.42.283c.283.137.42.283.42.42l.136.283c.137.283.137.283 0 .557v.137c-.136.283-.283.283-.556-.137h-4.6c-.137.137-.283.137-.557 0-.136 0-.42.137-.556.137l-.283.136c-.284 0-.42 0-.557.137-.137 0-.137.137-.42.137-.283.136-.283 0-.42-.137l-.137-.137c-.136-.136-.283-.136-.42-.136h-.136c-.127-.127-.137-.137-.244-.137h-.03c-.283-.137-.283 0-.42 0-.136.137-.136.137-.283 0h-.693c-.283 0-.557.137-.84.283h-.137c-.136.137-.84.283-1.113.137h-.303c-.136 0-.283-.02-.81-.283-.557-.284-.84-.557-.977-.84-.127-.137-.137-.762-.137-.957v-.04c-.029-.126-.02-.273.254-.536Zm-72.745-1.69C19.137 52.203 14 57.535 14 64c0 6.602 5.273 11.797 11.66 11.797 3.057 0 5.137-1.123 6.104-1.69 2.216-1.406 3.466-3.369 3.193-5.332-.273-1.69-1.807-2.949-3.75-3.515-.137 0-.42-.137-.557-.137.967-.566 1.524-1.26 1.67-2.246.274-2.11-2.08-4.209-5.273-4.639-2.91-.42-5.274-.136-6.104-.136v3.789c1.67-.284 3.887-.284 5.694 0 1.523.283 2.5.84 2.636 1.543 0 .136 0 .42-.136.566-.42.566-1.114.566-1.67.42-1.944-.283-4.16-.283-6.387 0v3.789c2.08-.283 5.547-.283 7.217 0 1.523.283 2.5.986 2.637 1.826 0 .42-.137.703-.42 1.123-.557.703-2.217 1.406-4.58 1.406-4.717 0-8.604-3.935-8.604-8.71 0-4.776 3.887-8.711 8.604-8.711 4.716 0 8.603 3.935 8.603 8.71v.987c.557.283 1.523.986 2.637 2.246.273-.986.42-2.11.42-3.233-.137-6.455-5.41-11.65-11.934-11.65Z" fill="#E50012"/></g><defs><filter id="a" x="-13" y="0" width="154" height="157" filterUnits="userSpaceOnUse" color-interpolation-filters="sRGB"><feFlood flood-opacity="0" result="BackgroundImageFix"/><feColorMatrix in="SourceAlpha" values="0 0 0 0 0 0 0 0 0 0 0 0 0 0 0 0 0 0 127 0" result="hardAlpha"/><feOffset dy="16"/><feGaussianBlur stdDeviation="6.5"/><feColorMatrix values="0 0 0 0 0 0 0 0 0 0 0 0 0 0 0 0 0 0 0.03 0"/><feBlend in2="BackgroundImageFix" result="effect1_dropShadow_18_280"/><feBlend in="SourceGraphic" in2="effect1_dropShadow_18_280" result="shape"/></filter></defs></svg>