<svg width="48" height="48" fill="none" xmlns="http://www.w3.org/2000/svg"><circle cx="24" cy="24" r="20" fill="#B14B43"/><path fill="#fff" d="M13 14h11v3H13zM25 12h9v3c0 3-1 5-4 5v-3c.5 0 1-1 1-2h-6v-3ZM25 21h9v3c0 7-1 9.5-4.5 12-.5-1.5-.656-2-1-3 2.5-2.5 2.5-7 2.5-9h-6v-3ZM13 19h11v3H13zM13 25h11v3H13zM13 30h11v3H13z"/><path fill="#fff" d="M20 11v10h-3V11zM28 15v21h-3V15z"/><path d="M29.5 26.5c1 3.5 3.5 6 5 7.5L33 36c-2.5-2-5-6.5-5.5-9l2-.5ZM20 27v9h-3v-9z" fill="#fff"/><path d="M17.5 19v9H15v-9h2.5ZM22 19v9h-2.5v-9H22Z" fill="#fff"/></svg>