<svg width="256" height="256" viewBox="0 0 256 256" fill="none" xmlns="http://www.w3.org/2000/svg">
<path fill-rule="evenodd" clip-rule="evenodd" d="M227.907 54.231C231.347 55.5834 235.412 54.8689 238.193 52.0875C241.936 48.3446 241.936 42.2761 238.193 38.5332L217.47 17.8072C213.728 14.0643 207.66 14.0643 203.918 17.8072C201.148 20.5775 200.428 24.6218 201.758 28.0543L181.281 37.4915C178.021 38.9937 175.768 42.0726 175.321 45.6344L171.544 75.7723C171.366 77.1897 173.083 78.0296 174.093 77.0194L191.834 59.2759C191.681 58.7037 191.6 58.1024 191.6 57.4819C191.6 53.657 194.7 50.5563 198.524 50.5563C202.349 50.5563 205.449 53.657 205.449 57.4819C205.449 61.3069 202.349 64.4076 198.524 64.4076C197.904 64.4076 197.303 64.326 196.731 64.173L179.035 81.8716C178.021 82.8855 178.871 84.6075 180.292 84.4192L210.23 80.4547C213.724 79.9921 216.744 77.7896 218.253 74.6047L227.907 54.231ZM233.297 47.1903C232.259 48.2286 230.575 48.2286 229.537 47.1903L208.814 26.4642C207.776 25.426 207.776 23.7426 208.814 22.7044C209.852 21.6661 211.535 21.6661 212.574 22.7044L233.297 43.4304C234.335 44.4687 234.335 46.152 233.297 47.1903Z" fill="#06B30C"/>
<path fill-rule="evenodd" clip-rule="evenodd" d="M63.5601 212.577C73.4172 217.6 86.3208 217.6 112.128 217.6H143.872C169.679 217.6 182.583 217.6 192.44 212.577C201.11 208.16 208.16 201.11 212.578 192.44C217.6 182.583 217.6 169.679 217.6 143.872V128V122.281C217.6 106.332 202.57 94.6586 187.117 98.6051C169.138 103.197 152.803 86.8618 157.395 68.8825C161.341 53.43 149.667 38.3999 133.719 38.3999L128 38.3999L112.128 38.3999C86.3208 38.3999 73.4172 38.3999 63.5601 43.4223C54.8896 47.8402 47.8403 54.8895 43.4224 63.56C38.4 73.4171 38.4 86.3207 38.4 112.128L38.4 143.872C38.4 169.679 38.4 182.583 43.4224 192.44C47.8403 201.11 54.8896 208.16 63.5601 212.577ZM145.34 173.67C151.222 177.591 152.812 185.538 148.89 191.42C144.969 197.302 137.022 198.891 131.14 194.97L77.3798 159.13C73.0299 156.23 70.8808 150.976 71.9512 145.859C73.0216 140.742 77.0964 136.79 82.2439 135.877L121.1 128.983L71.4904 106.367C67.3004 104.457 64.4594 100.443 64.0505 95.8563C63.6417 91.2697 65.728 86.8169 69.5141 84.1958L102.794 61.1558C108.606 57.1319 116.58 58.5817 120.604 64.3939C124.628 70.2062 123.178 78.18 117.366 82.2039L102.611 92.4191L169.15 122.753C174.249 125.078 177.243 130.449 176.538 136.009C175.834 141.569 171.594 146.024 166.076 147.003L118.106 155.514L145.34 173.67Z" fill="#06B30C"/>
</svg>
