<svg width="128" height="137" fill="none" xmlns="http://www.w3.org/2000/svg"><g filter="url(#a)" fill="#063398"><path d="M63.998 20C39.738 20 20 39.734 20 63.996 20 88.26 39.738 108 63.998 108 88.262 108 108 88.263 108 63.996 108 39.734 88.262 20 63.998 20Zm0 86.084c-23.209 0-42.085-18.88-42.085-42.091 0-23.2 18.88-42.087 42.085-42.087 23.209 0 42.089 18.886 42.089 42.087 0 23.211-18.88 42.091-42.089 42.091Z"/><path d="M95.27 64.155c0-17.459-14.15-31.609-31.606-31.609-17.463 0-31.613 14.15-31.613 31.609 0 2.194.225 4.339.65 6.41-1.772.32-4.842.904-6.79 1.452l9.206 16.752s2.958-1.097 7.167-1.333c5.63 5.166 13.134 8.327 21.38 8.327a31.503 31.503 0 0 0 21.345-8.295c.218-.014 3.295-.074 7.497 1.312l9.052-16.745s-2.38-.805-6.949-1.403c.436-2.092.661-4.258.661-6.477ZM81.595 47.477v5.447c-1.097-.94-2.912-1.544-4.966-1.544-2.092 0-3.942.63-5.028 1.6v-5.503h9.994Zm0 8.439v5.447c-1.097-.943-2.912-1.547-4.966-1.547-2.092 0-3.942.636-5.028 1.596v-5.496h9.994Zm-4.93 8.242s-.324 3.506-4.674 3.64H55.407s-3.534.453-4.961-3.64h26.219Zm-18.11-24.66h10v5.443c-1.1-.931-2.915-1.547-4.968-1.547-2.093 0-3.939.637-5.032 1.604v-5.5Zm0 7.979h10v5.447c-1.1-.94-2.915-1.544-4.968-1.544-2.093 0-3.939.63-5.032 1.6v-5.503Zm0 8.439h10v5.447c-1.1-.943-2.915-1.547-4.968-1.547-2.093 0-3.939.636-5.032 1.596v-5.496Zm-13.043-8.44h9.998v5.447c-1.101-.938-2.916-1.543-4.97-1.543-2.092 0-3.938.63-5.028 1.6v-5.503Zm0 8.44h9.998v5.447c-1.101-.943-2.916-1.547-4.97-1.547-2.092 0-3.938.636-5.028 1.596v-5.496Zm54.481 17.047-8 14.4c-14.825-4.002-25.656 1.663-25.656 1.663h-5.303c-12.628-5.795-25.34-1.751-25.34-1.751l-7.648-14.407c26.612-5.612 35.245 1.765 35.245 1.765h.848c12.568-7.658 35.854-1.67 35.854-1.67ZM48.702 95.946a7.962 7.962 0 0 1-1.727-.021l-.292.904c.967.13 1.846.133 2.634.014l-1.196 3.723 1.854.598 1.666-5.197-1.505-.482c-.313.25-.79.405-1.434.461ZM58.498 97.623c-.935-.123-1.73-.06-2.384.197-.65.253-1.009.658-1.083 1.192-.07.528.165.985.696 1.393.531.4 1.193.647 1.98.752.728.095 1.358.032 1.882-.218-.159.619-.39 1.006-.693 1.171-.303.155-.65.222-1.045.169-.31-.049-.555-.127-.735-.25a.64.64 0 0 1-.291-.499l-1.889-.13c.081.457.348.83.802 1.118.45.285 1.072.482 1.86.587 1.09.144 2.005.039 2.74-.306.738-.348 1.17-1.012 1.297-1.994.134-.963-.109-1.709-.707-2.215-.601-.51-1.413-.833-2.43-.967Zm.612 2.708c-.278.126-.598.161-.967.109-.383-.046-.696-.173-.928-.366-.232-.193-.33-.468-.285-.812.046-.341.193-.573.45-.693.257-.116.563-.151.918-.105.373.052.696.186.956.404.26.218.366.492.327.826a.758.758 0 0 1-.47.637ZM70.025 98.028c-.594-.313-1.375-.408-2.352-.296-.978.113-1.713.38-2.216.813-.608.52-.854 1.29-.738 2.303.12 1.033.503 1.73 1.15 2.064.643.334 1.46.443 2.437.33.977-.109 1.716-.383 2.219-.815.605-.521.854-1.291.735-2.311-.12-1.023-.531-1.723-1.235-2.088Zm-.84 3.695a.832.832 0 0 1-.37.478 1.53 1.53 0 0 1-.604.194c-.229.024-.44.017-.626-.049-.193-.06-.359-.197-.503-.422-.148-.222-.257-.658-.33-1.287-.074-.64-.06-1.097.042-1.382a.87.87 0 0 1 .373-.482c.172-.102.369-.169.597-.193.236-.025.443-.007.633.052.19.06.359.204.503.422.144.229.253.661.324 1.291.077.636.063 1.097-.039 1.378ZM78.472 95.39c-.77-.161-1.635-.052-2.595.313-.88.341-1.55.781-2 1.312-.447.534-.574 1.058-.374 1.565.19.489.609.79 1.27.882.657.095 1.36.004 2.106-.281.682-.264 1.2-.63 1.54-1.09.159.615.141 1.069-.045 1.36-.19.282-.468.5-.837.644-.292.116-.549.162-.763.134a.64.64 0 0 1-.5-.292l-1.723.784c.292.366.707.566 1.242.605.538.035 1.17-.088 1.909-.373 1.027-.397 1.78-.921 2.265-1.575.478-.661.541-1.449.186-2.377-.352-.918-.914-1.449-1.68-1.61Zm-.76 2.406a1.79 1.79 0 0 1-.801.555c-.362.14-.693.186-.992.127-.299-.063-.513-.257-.636-.584-.127-.32-.102-.594.063-.816.169-.228.422-.404.756-.541.352-.13.696-.173 1.034-.095.334.067.563.26.682.57a.782.782 0 0 1-.105.784Z"/><path d="M27.49 62.027c.165-.383.274-.633.338-.738a.829.829 0 0 1 .299-.32.884.884 0 0 1 .981.221c.165.159.235.398.21.697-.02.288-.14.51-.348.66-.21.155-.527.247-.945.26l.042.936c.717-.007 1.266-.154 1.663-.443.397-.285.619-.72.665-1.308.028-.411-.018-.756-.155-1.034-.13-.288-.352-.513-.661-.685a2.324 2.324 0 0 0-1.002-.31c-.401-.032-.742.004-1.027.11a1.56 1.56 0 0 0-.69.463c-.172.208-.348.528-.534.97-.183.455-.348.725-.492.838a.588.588 0 0 1-.398.109.526.526 0 0 1-.376-.187c-.14-.165-.204-.383-.18-.654.018-.27.106-.457.261-.583.151-.116.39-.183.721-.197l.025-.953c-.584-.032-1.059.091-1.432.358-.376.268-.587.697-.63 1.277-.024.362.022.671.149.939.126.26.327.47.597.63.268.157.566.245.89.27.503.046.939-.067 1.312-.324.267-.179.506-.52.717-1.002ZM30.708 58.588l-2.718-.573.383-1.807 2.715.57.193-.922-6.21-1.308-.197.925 2.45.513-.382 1.815-2.444-.517-.197.921 6.21 1.308.197-.925ZM31.675 54.604l-1.231-.85.633-1.773 1.491.102.341-.96-6.61-.348-.342.95 5.377 3.832.34-.953Zm-2.145-1.48-2.008-1.378 2.44.172-.432 1.206ZM34.33 48.408l.432-.84-5.64-2.918-.405.78 3.78 1.952-4.659-.24-.418.813 5.637 2.919.397-.778-3.696-1.916 4.572.228ZM32.455 45.173a5.209 5.209 0 0 0 1.544.76c.527.148 1.013.158 1.452.018.436-.141.795-.401 1.084-.802.221-.324.362-.679.418-1.104.056-.422.035-.791-.067-1.104l-2.068-1.463-1.178 1.66.876.622.63-.89.66.464c.043.208.046.422.018.654a1.275 1.275 0 0 1-.218.577c-.232.327-.573.482-1.027.468-.446-.018-.984-.236-1.6-.679-.573-.4-.932-.809-1.083-1.216a1.14 1.14 0 0 1 .137-1.115.944.944 0 0 1 .616-.401c.253-.042.527 0 .823.127l.348-.9c-.531-.26-1.03-.36-1.488-.278-.464.073-.865.348-1.199.815-.256.37-.387.739-.39 1.101 0 .482.148.956.45 1.42.299.458.72.88 1.262 1.267ZM38.672 42.258l-2.014-1.895 1.262-1.354 2.026 1.903.64-.686-4.621-4.35-.647.69 1.825 1.712-1.27 1.347-1.825-1.713-.647.686 4.628 4.353.643-.693ZM41.57 39.357l-.608-1.364 1.46-1.188 1.223.861.791-.64-5.475-3.734-.78.636 2.605 6.062.784-.633Zm-2.06-4.595 1.993 1.41-.995.808-.998-2.218ZM45.503 36.449 41.97 31.18l-.785.527 3.534 5.268.785-.527ZM47.689 35l.798-.365-2.096-4.54 2.94 4.15.823-.38-1.26-4.923 2.104 4.533.794-.373-2.665-5.76-1.29.594 1.061 4.28-2.58-3.57-1.295.598 2.666 5.757ZM52.981 32.73l-.042-1.495 1.804-.535.802 1.27.977-.289L52.9 26.13l-.963.288.074 6.597.97-.285Zm1.16-2.969-1.234.366-.066-2.433 1.3 2.067ZM57.739 31.498l-.405-2.616.19-.028c.215-.035.373-.035.482-.007a.825.825 0 0 1 .32.222c.11.112.316.39.633.844l.883 1.258L60.956 31l-.749-1.14c-.295-.45-.527-.762-.689-.935a2.602 2.602 0 0 0-.58-.45c.39-.144.664-.38.82-.72.154-.345.196-.742.122-1.214a2.298 2.298 0 0 0-.351-.953c-.183-.274-.39-.446-.633-.52-.24-.077-.609-.077-1.1-.003l-1.96.305.97 6.27.933-.14Zm-.081-5.327a7.35 7.35 0 0 1 .679-.084.556.556 0 0 1 .39.197c.102.12.172.285.2.499.032.183.025.348-.017.482a.59.59 0 0 1-.222.313c-.102.063-.376.13-.823.204l-.685.102-.246-1.59.724-.123ZM62.249 30.928l-.39-6.342-.944.058.39 6.342.944-.058ZM66.562 24.656l-3.71-.078-.018 1.076 1.379.025-.11 5.274.947.025.105-5.282 1.386.029.02-1.07ZM68.657 24.868l-.937-.103-.694 6.309.937.103.694-6.309ZM69.653 31.428l1.058-4.884-.15 5.078.889.19L73.4 27.12l-1.047 4.884.858.183 1.336-6.2-1.39-.302-1.722 4.058.084-4.41-1.389-.302-1.336 6.206.858.19ZM77.241 33.654l.37-1.006-2.459-.9.591-1.614 2.216.812.365-1.002-2.208-.819.485-1.326 2.377.876.37-1.01-3.26-1.198-2.194 5.96 3.347 1.227ZM80.948 35.74c.316.182.612.284.875.288.268.007.51-.05.735-.17.229-.112.447-.291.65-.537.205-.246.5-.7.887-1.354l1.698-2.877-.812-.478-1.786 3.024a9.83 9.83 0 0 1-.588.908.968.968 0 0 1-.488.348c-.197.063-.405.017-.633-.113-.229-.137-.366-.31-.422-.52-.05-.218-.025-.44.074-.69.063-.147.228-.457.51-.931l1.75-2.961-.815-.482-1.723 2.922c-.362.612-.609 1.09-.739 1.428a2.045 2.045 0 0 0-.133.745c0 .257.066.514.197.753.126.236.383.471.763.696ZM85.4 38.714l.738.59 3.931-4.989-.689-.545-2.63 3.344 1.118-4.533-.72-.57-3.929 4.994.69.534 2.574-3.266-1.084 4.441ZM87.338 40.515l4.368-4.601-.684-.649-4.367 4.601.683.649ZM94.638 38.999l-4.284 2.257 2.747-3.99-.679-.77-3.66 5.446.678.763 5.859-2.957-.662-.75ZM92.724 47.153l.886-.608-1.483-2.16 1.424-.973 1.329 1.94.886-.597-1.33-1.948 1.161-.798 1.432 2.085.882-.605-1.962-2.866-5.236 3.59 2.011 2.94ZM93.466 48.507l2.36-1.206.084.172c.095.194.148.341.151.45a.797.797 0 0 1-.105.377c-.074.133-.278.425-.608.864l-.922 1.235.514 1.005.844-1.069c.337-.429.559-.745.671-.949.113-.207.194-.44.246-.69.257.328.57.514.943.55.37.045.766-.043 1.188-.26.338-.17.602-.38.802-.637.2-.25.296-.514.296-.76 0-.253-.116-.605-.342-1.048l-.903-1.765-5.651 2.883.432.848Zm4.695-2.402.334.654c.176.341.274.552.292.623a.54.54 0 0 1-.064.429.936.936 0 0 1-.404.348c-.169.084-.327.13-.471.137a.55.55 0 0 1-.359-.116c-.102-.074-.246-.316-.454-.714l-.312-.622 1.438-.739ZM98.372 50.916c-.165.278-.246.682-.24 1.22.008.408.004.678-.006.798a.815.815 0 0 1-.148.419.736.736 0 0 1-.33.218.903.903 0 0 1-.658-.011c-.215-.088-.373-.274-.478-.552-.099-.274-.081-.524.049-.746.126-.225.38-.432.756-.633l-.426-.826c-.647.292-1.093.658-1.34 1.076-.239.43-.263.918-.063 1.477.134.38.327.682.563.88.236.21.527.326.879.361.352.032.696-.01 1.04-.133.377-.13.676-.31.89-.514.219-.214.363-.443.437-.703.074-.257.105-.633.091-1.111-.018-.485.018-.805.11-.957a.514.514 0 0 1 .312-.26.54.54 0 0 1 .426.004c.196.095.341.274.429.53.094.247.091.458 0 .63-.088.172-.278.334-.574.485l.363.869c.548-.211.931-.514 1.164-.91.232-.398.246-.873.052-1.425-.123-.341-.292-.601-.52-.795a1.434 1.434 0 0 0-.805-.327c-.31-.035-.62 0-.922.113-.468.155-.82.429-1.051.823ZM96.577 56.602l6.145-1.594-.237-.912-6.144 1.593.236.913ZM102.581 59.787l1.055-.179-.63-3.653-1.054.179.232 1.36-5.201.9.165.93 5.197-.894.236 1.357ZM103.97 64.665l-.06-1.09-2.574-.94 2.458-1.23-.06-1.118-3.579 1.916-2.67.137.053.946 2.655-.144 3.777 1.523ZM43.283 81.191c-.13-.014-.264.07-.415.092-.5.077-.995.123-1.555.242-.246.05-.52.159-.805.113-.18-.306-.394-1.055-.274-1.547.063-.26.204-.517.25-.82.098-.58-.092-1.185.098-1.69.067-.166.221-.275.316-.409.064-.098.338-.97.292-1.097a4.172 4.172 0 0 0-.14-.246c-.134-.08-.268-.113-.503-.098-.795.404-.94 1.322-1.073 2.359l.074.858c-.032.457-.063.918-.088 1.382.084.38.162.854.183 1.385-.14.106-.299.092-.517.099-.204.02-.411.035-.615.049-.56-.084-.763-.383-1.178.2-.113.162-.359.32-.211.683.105.253.798.492 1.153.517 1.61.144 3.028-.306 4.332-.665.215-.053.433-.099.647-.144.155-.078.338-.26.496-.348.134-.074.33-.014.398-.159.193-.51-.517-.71-.865-.756ZM64.49 79.897a46 46 0 0 0-.351-.974c-.088-.38.028-.801-.144-1.058-.215-.042-.366 0-.552.053-.148-.021-.303-.035-.454-.053-.373.313-1.238.338-1.938.345-.014-.028-.02-.057-.038-.078.221-.474 1.15-1.245 1.631-1.49.19-.096.447-.018.647-.081.18-.067.493-.366.373-.616-.088-.162-.383-.221-.622-.148-.11.07-.215.134-.32.194-.464.02-.929.038-1.393.06-.207.003-.496.12-.654.035-.098-.078-.116-.236-.218-.32a3.062 3.062 0 0 0-.358-.021c-.211.102-.349.123-.482.306-.028.26-.056.527-.088.801.612.366 1.276.057 1.997-.035.127-.003.25-.014.373-.021h.028c-.032.257-.96.886-1.185 1.069-.527.429-1.03 1.006-1.417 1.568l-.433.791c-.13.05-.26.088-.387.145-.457.193-1.146.432-1.403.83-.028.003-.052.003-.08.003-.268-.485-.208-1.906.049-2.272.116-.165.44-.116.513-.32.099-.274-.07-.647-.102-.847a.52.52 0 0 1 .074-.077c.724.088.809-.074.921-.71.018-.11.074-.233.007-.363-.066-.116-.78-.436-.97-.373-.134.074-.485.69-.426.957.035.158.166.27.092.464-.11.288-.45.387-.514.714-.031.162.07.228.11.323.063.176.031.405-.004.58-.2.957-.552 1.892-.32 3.035.056.275-.102.577.003.791.032.067.067.088.134.11.105.045.229-.015.306-.04.665-.22.218-.83.53-1.283.075-.123.659-.457.898-.4.056.393-.183 1.012.12 1.346.172.194.51.172.787.243.65.162 1.516.172 2.177-.046.292-.109.587-.215.886-.316.316-.025.636-.057.953-.078.253-.158.408-.689.12-.897-.004-.031-.004-.066-.004-.09l.46-.314c.12-.112.152-.281.313-.366.419-.133.718.426 1.133-.175.397-.563-.394-.837-.777-.9Zm-1.694 1.576c-.268-.035-.334-.271-.595-.313a.158.158 0 0 1-.06.038c-.056.314.032.398.099.634-.007.014-.01.024-.014.028-.454.242-2.634.116-3.024-.06-.032-.137.014-.33.102-.405.091-.073.988-.365 1.11-.327.018.007.033.007.05.014.05.313-.017.437.134.693 1.248.296.77-.562 1.245-.875.344.01.991-.095 1.318.031.187.134-.27.475-.365.542Zm.717-1.663c-.204.123-1.438.084-1.72 0a7.83 7.83 0 0 1-.091-.338c-.144-.035-.348-.088-.503-.035-.18.088-.225.34-.33.496-.271.066-.64.112-.908.06a.222.222 0 0 1-.035-.064c-.077-.21.236-.64.334-.791.137 0 .271.003.408.003.187-.052.454-.137.714-.186.443-.07 1.238.07 1.78-.158.041.003.084.003.13.007.203.123.263.69.221 1.006ZM54.317 79.778c-.478-.31-.07-1.217-.689-1.509-.538-.25-2.06.345-2.704.211-.07.021-.099.007-.116-.077.183-.303.872-1.07 1.2-1.189.21-.077.463 0 .681-.08.134-.057.158-.243.267-.32.187-.127.412-.12.514-.324l.028-.162a.808.808 0 0 0-.285-.281c-.468-.07-1.825.524-2.219.193.039-.161.078-.33.116-.495.127-.176.443-.24.341-.595-.045-.056-.087-.112-.137-.172-.13-.01-.256-.014-.386-.025-.134.099-.292.152-.384.292a3.994 3.994 0 0 0-.154.24c-.63.513-1.337.875-1.896 1.455-.88.907-1.487 2.1-2 3.365-.11.285-.219.57-.331.855-.014.38-.032.77-.05 1.153-.028.113-.126.225-.084.404.032.145.084.398.158.5.341.074.76-.035.837-.313.099-.366-.278-.623-.32-.96-.05-.376.187-1.502.306-1.85.324-.907 1.104-2.324 1.772-2.89.38-.288.76-.58 1.143-.872.025-.004.046-.004.067-.004.092.19-.007.528.12.714.218.324.995.18 1.434.207a.384.384 0 0 1 .018.074c-.246.243-.5.493-.742.735-.113.144-.222.275-.327.415-.105.046-.207.078-.31.123a61.83 61.83 0 0 1-.488.503c-.081.123-.085.26-.152.408-.031.074-.474.82-.513.84-.257.166-.682.13-.97.127-.074.077-.148.151-.218.229-.398.267-.844.235-.82.9.549.59.992.109 1.678.056.042.084.003.162.02.27.064.391.064.715.254.954.446.559 1.512.348 2.247.197.158 0 .313.003.471.003.43-.109.798-.302 1.34-.313.12-.183.468-.707.172-.914.018-.084.886-.96.96-.985.236-.07.38.078.598-.091.204-.176.264-.619.042-.837-.13-.123-.327-.074-.489-.165Zm-2.078 2.124c-.492.186-2.36.457-2.616-.028-.081-.166-.035-.394.035-.51.19-.043.851-.208 1.066-.145.221.074.418.289.787.194.264-.063.3-.281.492-.387l.553-.126c.15-.004.33-.018.44.017 0 .018.01.035.013.056-.246.334-.594.514-.77.929Zm1.055-2.142c-.095.162-.366.021-.594.063-.292.032-.587.067-.876.088-.18-.049-.337-.305-.576-.274-.306.046-.257.348-.479.433-.172.074-.548.12-.742.074-.028-.18.064-.55.211-.626.162.014.324.031.486.038.527-.052 1.81-.12 2.2-.32.068-.003.131-.003.198-.01.077.095.246.348.172.534ZM46.233 78.607c.025.091.05.183.074.278.067.003.548-.141.661-.187.193-.383-.067-.784-.099-1.195.004-.014.008-.025.015-.032.263-.155.633.338 1.037-.035.475-.433.39-1.477-.433-1.466-.26.2-.562.432-.675.77-.08.235-.046.545-.176.735-.161.232-.555.422-.626.717-.066.267.141.306.222.415ZM84.615 80.08c.552.257.419-1.174.528-1.424.126-.281 1.048-.394 1.431-.5 1.252-.32 2.553-.794 4.023-.808.014.018.032.035.05.056-.032.225-.092.401.189.394.109.162.169.383.355.464.605.243.97-.612.795-1.195-.151-.503-.91-.528-1.495-.573-.007-.032-.01-.067-.017-.099.362-.489.66-1.255.394-2.103-.095-.186-.503-.284-.77-.172-.475.2-.89.75-1.467.834-.007-.004-.01-.007-.017-.018-.036-.264.197-.556.105-.862-.028-.07-.053-.098-.116-.126-.074 0-.144-.004-.211-.014-.425.228-.584.527-.84.9a.206.206 0 0 1-.067.007 1.002 1.002 0 0 0-.187-.355c-.636-.13-.872 1.385-1.283 1.691-.004-.007-.014-.01-.018-.014.004-.158.014-.32.021-.475.074-.038.123-.02.208-.052.21-.155-.004-.844-.187-.925-.228.014-.432.133-.481.306.01.102.014.207.024.31-.074.379-.172.745-.095 1.233.029.187.099.479.035.668-.007.015-.01.032-.014.05-.144.01-.218-.07-.344-.106-.215-.06-.52.137-.609.26-.313.444-.21 1.593-.073 2.082.042.144.02.51.133.566Zm4.382-4.198c.042-.169-.021-.426.067-.552.176-.267.731-.275 1.03-.436.225.014.208.383.176.562-.063.31-.338.992-.658.946-.003-.014-.014-.035-.017-.046.123-.161.615-.404.499-.7-.084-.175-.316-.147-.52-.098-.602.144-.447.587-.626 1.041-.085.018-.17.028-.253.042-.008-.024-.018-.049-.022-.077.13-.193.26-.436.324-.682Zm-1.393-.496c.085.053.25.257.222.397l-.215.384c-.074.232-.147.467-.225.7a.651.651 0 0 1-.274.056c-.003-.004-.014-.007-.018-.01.029-.771.074-1.073.51-1.527Zm-1.167.76c.032.024.028.017.053.049.095.232-.021.84-.155.946-.053.01-.106.014-.158.028-.01-.028-.025-.05-.032-.074-.12-.267.165-.802.292-.95Z"/><path d="M42.653 78.35c.116-.091.243-.2.303-.351.197-.521-.085-.95-.49-1.08a7.97 7.97 0 0 1-.502.017c-.13-.035-.151-.13-.362-.116-.26.219-.464.81-.45 1.263.52.306.91.738 1.501.267ZM88.895 79.764c-.01-.004-.021-.018-.035-.028-.004-.018-.01-.035-.014-.046.168-.229.31-.144.524-.295.291-.197.302-.661.105-.911-.126-.014-.25-.028-.376-.046-.222.032-.44.06-.661.085-.77.19-2.704.334-2.402 1.29.415.207.95-.123 1.312-.232.165-.053.422-.14.506-.053-.042.127-.08.253-.12.376-.418.257-.875.345-1.367.56-.243.109-.405.344-.605.506-.17.137-.51.541-.296.868.11.173.524.222.813.145.302-.088.517-.405.763-.577.07-.05.91-.306.998-.324.313.51-.074 1.26-.432 1.513-.176.123-.348.182-.46.365-.06.088.034.116.006.24-.102.418-.257 1.065.443.79.327-.13.306-.485.5-.738.074-.053.147-.109.221-.165.549-.588.77-1.294.714-2.391.366-.254 1.234-.025 1.713-.194.27-.133.161-.752-.07-.84-.279-.106-1.38.084-1.78.102ZM74.878 76.216c-.042-.904-2.306-.172-3.045-.306-.204-.366.151-.957-.464-.978-.587.341-.39.373-.33.999-.296.316-2.3.274-2.884.44-.285.077-.742.168-.626.597.077.313.485.405.883.31.798-.204 1.589-.486 2.472-.545.003.02.007.045.017.066-.165.222-1.691.844-2.05.971-.373.12-.517.2-.601.601 0 .113-.007.232-.007.352.14.323.552.281.847.144.33-.155.257-.362.443-.517.208-.186.936-.513 1.284-.541.01.02.02.035.031.052.134.349-.432.289-.654.36-.446.143-.538.33-.45.762-.007.007-.014.007-.017.018-.106.154-1.045.51-1.284.566-.506.144-1.364.05-1.146.749.088.18.66.365.98.263.148-.066.296-.137.447-.207.584-.2 1.414-.285 2.117-.32.014.014.025.021.035.035v.064c-.32.207-.896.12-1.322.218-.415.091-.826.182-1.248.28-.13.04-.267.082-.397.12-.373.022-.96.092-1.326.204-.046.081-.095.187-.053.313.148.317.858.166 1.234.078.591-.141 1.309-.151 2.008-.285.215-.025.433-.05.647-.07.222.024.454-.099.665-.018.046.025.039.025.067.063-.383.661-1.621.204-2.31.373-.289.07-.858.316-.63.714.236.453 2.268.003 2.792-.014.021.035.046.067.07.098-.147.39-.34 1.1-.745 1.234-.229.014-.454.028-.682.04 0 .045-.007.084-.01.136.19.183.161.398.291.549.039.06.067.067.148.08.657-.365 1.195-.773 1.568-1.406.116-.207.243-.703.366-.858.162-.204.703-.176.932-.313.33-.207.485-.671.752-.977.348-.405 1.192-.166 1.175-.932-.243-.243-.542-.155-.725-.303-.13-.109-.161-.316-.306-.418-.327-.225-1.08-.274-1.526-.127-.038-.035-.028-.017-.053-.067.064-.056.127-.115.19-.168.102-.151.064-.478.211-.573.296-.211 1.308-.345 1.112-.915-.106-.295-.707-.481-1.101-.453-.208 0-.412.014-.615.017-.018-.017-.036-.02-.05-.035v-.017c.549-.341 2.662-.067 2.873-.503Zm-5.19 3.245a.053.053 0 0 0-.014-.028c.207-.095.415-.19.626-.281.133-.028.27-.053.4-.077h.113c.021.045.035.077.053.13-.243.172-.767.256-1.178.256Zm2.43 1.523c-.05-.025-.05-.035-.078-.08.078-.279.24-.198.493-.307.102 0 .207.007.31.014.03.039.038.035.052.11-.06.098-.636.298-.777.263Zm.323-1.326c.176-.003.394-.014.52.018.011.025.025.053.036.08-.106.138-.482.173-.71.184a1.392 1.392 0 0 0-.081-.067c.007-.18.109-.148.235-.215Zm-.418-2.096c.063-.144.21-.137.352-.2.126-.014.25-.017.372-.017a.53.53 0 0 0 .05.045c-.032.208-.49.56-.75.475-.013 0-.035-.007-.049-.01a.427.427 0 0 1 .025-.293ZM80.505 80.527c-.018-.081-.039-.165-.056-.246-.081-.2-.31-.257-.609-.24-.105.043-.214.085-.32.124-.594.436.106 1.051.348 1.385.306.43.707.844 1.168 1.104.214.074.425.148.636.225.31.165.7.412 1.1.454.106-.074.131-.211.222-.278.225-.07.454-.137.68-.204.214-.387-.282-.738-.483-.879-.221-.155-.46-.215-.724-.33-.56-.268-1.178-.545-1.663-.9-.07-.057-.246-.152-.3-.215Z"/><path d="M80.051 77.155c-.306-.5.964-2.57-.345-2.522-.225.124-.573.349-.488.728.042.159.088.313.126.468a5.532 5.532 0 0 1-.38 1.52c-.65.249-2.591.548-2.31 1.497.282.552.594.703 1.35.661a.198.198 0 0 1 .036.053c-.327.865-.96 1.783-1.505 2.475-.401.514-.953.967-1.375 1.505l.02.106a.984.984 0 0 0 .13.031c.919-.615 2.005-1.54 2.645-2.412.246-.337.514-.692.735-1.048.218-.337.32-.752.623-1.005.464-.39 2.053-.464 2.278-1.023.046-.127.06-.373.014-.535-.169-.63-.847-.534-1.554-.5Z"/></g><defs><filter id="a" x="-13" y="0" width="154" height="157" filterUnits="userSpaceOnUse" color-interpolation-filters="sRGB"><feFlood flood-opacity="0" result="BackgroundImageFix"/><feColorMatrix in="SourceAlpha" values="0 0 0 0 0 0 0 0 0 0 0 0 0 0 0 0 0 0 127 0" result="hardAlpha"/><feOffset dy="16"/><feGaussianBlur stdDeviation="6.5"/><feColorMatrix values="0 0 0 0 0 0 0 0 0 0 0 0 0 0 0 0 0 0 0.03 0"/><feBlend in2="BackgroundImageFix" result="effect1_dropShadow_49_8382"/><feBlend in="SourceGraphic" in2="effect1_dropShadow_49_8382" result="shape"/></filter></defs></svg>