<svg width="128" height="128" fill="none" xmlns="http://www.w3.org/2000/svg"><path d="M73.221 100.372c-.186-.93-.579-1.606-1.175-2.028-.597-.422-1.306-.551-2.127-.386a2.984 2.984 0 0 0-1.155.466 2.2 2.2 0 0 0-.618.657 2.699 2.699 0 0 0-.36.885c-.093.431-.079.935.037 1.516.181.91.569 1.572 1.162 1.993.591.42 1.303.545 2.133.38.817-.163 1.419-.556 1.804-1.174.383-.617.483-1.387.3-2.309Zm-2.306 2.498c-.448.09-.85-.003-1.21-.277-.357-.275-.601-.735-.731-1.381-.13-.658-.088-1.179.13-1.56.22-.382.56-.62 1.022-.714.465-.093.87-.006 1.214.262.345.265.582.722.713 1.378.133.66.089 1.186-.132 1.575a1.427 1.427 0 0 1-1.006.717ZM34.292 44.965l.849-1.074-.482-.38 1.224-1.55 2.314 1.826.9-1.139-2.316-1.825 1.249-1.583.4.316.924-1.169-3.044-2.402-2.17 2.752-.668-.526a1.424 1.424 0 0 1-.43-.512c-.025-.056-.05-.084-.072-.089-.02-.016-.09.05-.21.198-.06.073-.152.183-.272.333l-.58.733 1.307 1.032-2.046 2.595 3.123 2.464Zm1.841-7.219 1.176.927-1.248 1.582-1.173-.928 1.245-1.58Zm-2.145 2.72 1.175.926-1.223 1.55-1.176-.928 1.224-1.548Zm13.552-8.384-.653.402.337-.606c-.033-.018-.12-.052-.262-.11-.272-.11-.483-.198-.627-.26l.411-.254-.444-.722-1.545.947-.394-.636 1.682-1.034-.443-.723-4.325 2.658.445.724 1.545-.95.392.639-1.408.863.445.725 1.408-.865.588.954-1.614.994.464.753 4.461-2.744-.463-.755Zm-1.75 1.078-.587-.955.685-.424-.336.607c.313.102.622.219.925.35l-.688.422Z" fill="#004F97"/><path d="m44.278 37.314-.232-.378 4.941-3.04.196.32 1.134-.697-4.023-6.537-7.171 4.41 4.056 6.596 1.099-.674Zm1.365-8.853 2.869 4.663-4.943 3.04-2.868-4.665 4.942-3.038Zm6.477-.928 1.119-.154.32 2.323c-.297.114-.598.214-.904.301-.184.055-.287.092-.302.107.055.193.246.59.572 1.19.03-.006.164-.082.403-.222.49-.298 1.314-.748 2.474-1.343.026.006.012-.093-.044-.297a6.747 6.747 0 0 1-.127-.64l-.876.432-.28-2.022.44-.06.44.986.514-.26.37 2.677c.053.516.239.826.555.927.293.126.908.121 1.848-.014l.998-.138c.629-.084 1.064-.161 1.306-.233.281-.072.485-.17.615-.29.255-.18.364-.68.323-1.495a8.64 8.64 0 0 1-1.36-.12c.037.434-.014.711-.15.83-.121.145-.44.251-.951.316l-.719.101a5.52 5.52 0 0 1-.688.063.707.707 0 0 1-.361-.069c-.161-.07-.267-.312-.313-.733l-.322-2.325.57-.285.381 2.762 1.24-.17-.43-3.1.61-.29.208 1.5c.038.248.025.407-.038.472-.05.08-.203.134-.465.163.207.302.4.613.577.933.68-.17 1.083-.33 1.205-.48.148-.114.177-.402.094-.866l-.449-3.251-1.872.876-.194-1.398a1.656 1.656 0 0 1-.005-.371c.008-.062.008-.102-.002-.126-.05-.072-.35-.07-.895.005l-.419.057.32 2.308-.576.25-.132-.942c-.013-.11-.01-.232.012-.366.017-.078.017-.126-.002-.15-.007-.07-.292-.066-.85.014l-.44.06.25 1.803-.309.129-.1-.742-.96.132-.185-1.346a1.447 1.447 0 0 1-.005-.433.355.355 0 0 0 .01-.118c0-.049-.064-.072-.19-.068-.127.002-.38.027-.764.08l-.379.052.277 2.006-1.117.153.124.91Zm19.756 1.078c.017-.037.01-.071-.027-.106-.213-.05-.545-.115-.997-.2-.186-.037-.314-.058-.388-.073a5.07 5.07 0 0 1-.089.33c-.032.11-.062.22-.09.332-.11.423-.263.722-.456.894-.276.315-1.131.505-2.57.574.188.34.352.685.498 1.035 1.206-.143 2.178-.385 2.918-.728.976.479 1.932.996 2.867 1.55.179-.14.468-.44.863-.897a34.633 34.633 0 0 0-3.088-1.416c.081-.139.175-.354.278-.648.105-.293.2-.508.281-.647Z" fill="#004F97"/><path d="m68.139 27.165.152-1.041 2.353.347-.09.606-1.954-.289-.416 2.827 1.196.174.28-1.915 3.032.446-.273 1.852 1.354.199.402-2.724-2.35-.348.094-.64 3.228.477.124-.84-3.188-.472.094-.638c.877.08 1.506.14 1.889.18.607.063.876.08.807.046-.126-.285-.392-.691-.797-1.218-.832.117-3.06-.05-6.686-.507l-.487 3.296c-.18 1.178-.702 2.22-1.561 3.129.481.265.868.502 1.158.706.88-1.025 1.426-2.242 1.639-3.653Zm.351-2.386c.18.016.445.047.802.087a65 65 0 0 0 1.607.165l-.089.606-2.393-.354.073-.504Zm13.949 8.372c-.132 1.474.432 2.934 1.696 4.385.416-.3.93-.487 1.546-.555-1.804-1.681-2.37-3.343-1.698-4.986l3.078 1.759.505-.886-3.115-1.778.709-1.24c.099-.171.208-.317.325-.437.052-.05.084-.093.092-.13.009-.028-.024-.072-.101-.125-.039-.023-.093-.058-.162-.102-.056-.032-.167-.094-.333-.19l-.805-.46-1.088 1.904-3.22-1.836-.503.886 3.113 1.777c-.987 1.43-2.726 1.873-5.215 1.33.24.514.37.992.391 1.427 2.118.266 3.714.019 4.785-.743Zm7.526 8.402c-.133.116-.45-.062-.955-.536a1.258 1.258 0 0 0-.135-.117 3.654 3.654 0 0 1-.573 1.038c.645.73 1.088 1.15 1.33 1.253.233.142.49.076.769-.2l.837-.732 2.388 2.726.72-.628-2.366-2.696.065-.056c.889.43 1.697.517 2.42.262l-3.622-4.135-.691.604 2.085 2.378a3.096 3.096 0 0 1-.706-.307c-.102-.088-.196-.083-.275.014l-.205.18-2.602-2.97-.715.629 2.601 2.967-.37.326Z" fill="#004F97"/><path d="m91.092 37.138 4.01 4.575-.667.584.904 1.03 1.38-1.212-1.3-1.485.093.003c.604.022 1.016.044 1.234.068.129.01.268.03.42.059.1.02.159.02.178.006.036-.03-.172-.525-.624-1.488-.893.188-1.66.278-2.297.27l-1.924-2.197c.096.041.263.109.499.204.218.086.356.143.416.17.115-.468.2-.99.258-1.564-.417-.235-.846-.45-1.285-.641-.009.64-.063 1.144-.166 1.512l-1.288-1.47-1.355 1.188.849.97.665-.582Z" fill="#004F97"/><path d="M95.542 37.87a.462.462 0 0 1 .037-.06c-.36-.348-.736-.678-1.13-.989-.206.434-.434.858-.682 1.27.334.297.675.587 1.021.87.27-.35.522-.715.754-1.092ZM26.813 54.25l.658-.964c-.382-.212-.638-.452-.766-.718a1.134 1.134 0 0 1-.066-.84c.116-.395.358-.674.731-.834.372-.162.912-.14 1.62.068.664.191 1.109.458 1.333.797.225.337.277.71.16 1.114a1.184 1.184 0 0 1-.47.672 1.232 1.232 0 0 1-.804.205l-.05 1.17c.482.005.88-.08 1.191-.26.525-.3.885-.783 1.081-1.45.222-.765.144-1.454-.233-2.075-.379-.618-1.032-1.063-1.962-1.334-.88-.256-1.64-.225-2.284.095-.642.318-1.07.84-1.281 1.563-.17.587-.163 1.112.021 1.58.186.466.56.871 1.121 1.212Zm3.34 5.137-2.269-.314.31-2.227 2.268.315.158-1.137-5.762-.8-.159 1.136 2.52.35-.309 2.228-2.52-.35-.159 1.136 5.765.8.157-1.137Zm-.145 2.064-5.817-.21-.041 1.146 5.816.212.042-1.148Zm.102 5.38-3.878.245 3.73-2.568-.07-1.114-5.808.37.069 1.063 3.785-.239-3.642 2.524.075 1.15 5.807-.367-.068-1.065Zm.485 3.31-6.15-.973.25 1.192 1.39.189.466 2.223-1.193.757.256 1.221 5.23-3.42-.25-1.19Zm-3.16 2.07-.318-1.52L29.39 71l-1.954 1.21Zm3.477 8.525 2.81-1.204-.452-1.056-2.96 1.268c-.422.181-.733.297-.929.346a.822.822 0 0 1-.579-.078c-.19-.1-.35-.298-.478-.597-.127-.295-.159-.556-.1-.782.06-.227.19-.41.39-.55.126-.083.417-.225.877-.422l2.898-1.24-.452-1.054-2.853 1.222c-.6.257-1.037.484-1.314.684a1.648 1.648 0 0 0-.467.55c-.124.232-.19.5-.198.808-.008.31.096.713.31 1.21.177.414.375.727.593.937.218.21.45.35.699.428.248.074.517.084.807.025.288-.055.755-.222 1.398-.495Zm6.022 3.865-4.618 3.546.698.91 4.619-3.544-.699-.912Zm3.544 4.109-4.095 1.933 2.16-3.996-.85-.909-2.86 5.465.839.892 5.637-2.497-.831-.888Zm-.253 4.157 2.22 1.794.615-.764-2.218-1.793.812-1.003 2.383 1.929.621-.766-3.277-2.652-3.661 4.525 3.36 2.72.617-.761-2.468-1.999.996-1.23Zm8.024 3.486c.173-.298.258-.603.252-.916a1.309 1.309 0 0 0-.283-.817c-.183-.23-.537-.5-1.06-.811l-2.076-1.233-2.971 5.004.986.584 1.241-2.088.2.12c.227.134.38.251.463.35.083.1.14.227.172.384.034.157.063.506.085 1.045l.068 1.511 1.18.703-.018-1.33c-.004-.53-.03-.913-.08-1.147a2.585 2.585 0 0 0-.279-.732c.468.188.88.228 1.243.11.36-.116.653-.362.877-.737Zm-1.059-.54a.76.76 0 0 1-.322.315.605.605 0 0 1-.402.047c-.143-.028-.45-.183-.924-.462l-.73-.434.754-1.272.77.457c.4.239.637.386.71.446a.71.71 0 0 1 .256.417.71.71 0 0 1-.112.486Zm4.573 3.07c-.194-.233-.522-.522-.987-.859-.466-.335-.741-.587-.829-.76a.446.446 0 0 1-.023-.39.425.425 0 0 1 .305-.265c.229-.059.498-.024.804.105.301.12.5.273.6.456.098.183.115.42.046.717l1.084.387c.184-.5.17-.97-.04-1.4-.213-.436-.649-.786-1.31-1.057-.403-.168-.773-.247-1.11-.238a1.535 1.535 0 0 0-1.425.953c-.175.425-.162.851.04 1.281.143.306.47.646.98 1.024.397.295.648.49.754.582.155.142.25.274.286.393a.548.548 0 0 1-.023.369c-.083.2-.239.337-.474.415-.234.075-.524.045-.864-.097-.323-.134-.545-.321-.666-.565-.123-.244-.144-.557-.06-.939l-1.075-.32c-.178.629-.153 1.176.075 1.638.228.458.673.826 1.337 1.099.458.189.866.281 1.227.273.36-.006.678-.106.956-.309.271-.191.482-.456.607-.763.139-.34.188-.654.142-.942a1.628 1.628 0 0 0-.357-.789Zm.74 3.615 1.1.324 1.645-5.58-1.104-.325-1.641 5.581Zm2.915-4.123 1.655.318-.904 4.75 1.126.213.908-4.75 1.652.317.184-.967-4.439-.845-.182.964Zm7.386 2.444-1.218-2.367-1.344-.07 1.907 3.473-.125 2.446 1.143.056.125-2.435 2.26-3.266-1.32-.068-1.428 2.231Zm14.274-2.238-2.26.723-.42-1.313 2.618-.836-.3-.939-3.711 1.185 1.773 5.546 1.093-.351-.754-2.355 2.26-.722-.3-.938Zm4.985-2.297.488.851 1.142-.654.365.639c-.09.222-.213.43-.364.616-.152.196-.34.36-.556.484-.42.243-.845.29-1.279.138-.43-.15-.82-.524-1.164-1.124-.318-.555-.431-1.049-.335-1.477.094-.43.358-.77.793-1.02.287-.163.568-.23.84-.197.274.034.516.155.73.364l.879-.758c-.365-.407-.796-.644-1.29-.709-.496-.064-1.047.08-1.66.43-.47.27-.817.58-1.036.928-.284.44-.426.959-.404 1.483.02.532.179 1.06.482 1.586.278.485.632.877 1.062 1.177.41.296.903.455 1.409.455.511.002 1.023-.146 1.537-.44a3.758 3.758 0 0 0 1.067-.927c.306-.384.502-.74.594-1.065l-1.156-2.011-2.144 1.231Zm5.065-.791-.986-1.239 2.232-1.78-.609-.767-2.235 1.78-.802-1.011 2.398-1.91-.612-.771-3.298 2.626 3.625 4.552 3.384-2.693-.612-.767-2.485 1.98Zm5.497-7.892c-.694-.645-1.409-.964-2.139-.959-.731.006-1.382.315-1.952.929a2.996 2.996 0 0 0-.665 1.053c-.1.271-.136.57-.118.895.02.32.095.635.225.929.176.403.483.804.916 1.208.679.632 1.38.943 2.108.938.725-.004 1.376-.319 1.953-.937.567-.61.827-1.28.778-2.007-.05-.725-.418-1.409-1.106-2.049Zm-.412 3.375a1.443 1.443 0 0 1-1.144.483c-.451-.015-.918-.246-1.4-.695-.49-.457-.761-.904-.807-1.342-.044-.438.092-.83.414-1.176.323-.348.7-.513 1.138-.497.434.014.894.247 1.383.702.494.458.765.91.813 1.356.045.445-.085.834-.397 1.169Zm4.284-6.878c-.302-.209-.599-.321-.892-.337a1.589 1.589 0 0 0-.842.183c-.27.136-.62.398-1.047.783-.429.384-.733.6-.918.65a.46.46 0 0 1-.39-.058.426.426 0 0 1-.192-.355c-.01-.237.08-.491.268-.766.185-.268.377-.43.575-.489.2-.058.436-.023.71.105l.608-.976c-.452-.287-.912-.374-1.38-.257-.466.116-.903.468-1.308 1.055-.248.361-.404.706-.466 1.04a1.544 1.544 0 0 0 .63 1.59c.38.263.8.34 1.262.23.328-.074.732-.32 1.209-.739.37-.326.614-.529.728-.615.171-.121.319-.187.442-.196a.54.54 0 0 1 .358.1c.176.122.278.305.304.551.026.245-.067.52-.274.823-.2.29-.429.47-.695.534-.267.069-.574.02-.93-.141l-.54.984c.58.307 1.12.397 1.617.272.498-.125.95-.483 1.358-1.076.279-.406.455-.786.526-1.14.07-.353.036-.686-.1-1a1.734 1.734 0 0 0-.621-.755Zm2.546-5.155-.816.837c.337.277.547.555.627.84.081.284.053.565-.083.837a1.244 1.244 0 0 1-.868.695c-.393.093-.92-.025-1.58-.352-.62-.306-1.01-.647-1.172-1.02a1.281 1.281 0 0 1 .04-1.126c.134-.273.329-.464.58-.578.25-.113.528-.136.826-.062l.256-1.139c-.474-.09-.882-.077-1.218.044-.57.204-1.009.616-1.319 1.239-.352.712-.397 1.406-.136 2.082.265.675.83 1.229 1.697 1.657.821.407 1.575.513 2.264.31.688-.2 1.2-.639 1.535-1.314.27-.547.356-1.067.257-1.558-.1-.493-.396-.955-.89-1.392ZM95.58 76.54l5.454 2.034.399-1.074-5.452-2.035-.4 1.075Zm5.682-1.678-1.529-.406.731-2.757-.948-.252-.73 2.757-1.249-.332.789-2.962-.95-.252-1.084 4.073 5.625 1.492 1.107-4.178-.947-.253-.815 3.07Zm-3.367-8.169 3.859.463L97.617 69l-.132 1.108 5.778.694.128-1.059-3.77-.451 4.04-1.823.14-1.142-5.779-.695-.128 1.06Zm1.958-5.354-.304-1.129c-.462.141-.815.343-1.057.607-.411.445-.606 1.014-.591 1.707.018.796.302 1.431.85 1.908.545.476 1.302.702 2.271.68.916-.022 1.633-.282 2.148-.78.516-.496.766-1.125.746-1.88-.012-.608-.178-1.106-.496-1.497-.318-.39-.796-.66-1.435-.816l-.334 1.12c.428.085.743.236.948.45.204.215.309.475.316.778.008.414-.138.754-.446 1.02-.306.266-.827.407-1.561.425-.693.016-1.198-.104-1.514-.358a1.29 1.29 0 0 1-.488-1.013 1.2 1.2 0 0 1 .243-.784c.172-.217.405-.362.704-.438Zm2.618-3.48-1.562.254-.457-2.815-.969.157.457 2.814-1.275.208-.489-3.027-.973.157.674 4.158 5.745-.93-.691-4.266-.968.157.508 3.133Zm-4.637-6.198-.382-1.082c-.507.17-.86.476-1.061.913-.204.44-.202 1.001.007 1.684.128.417.3.754.52 1.01.217.256.474.426.77.509.282.08.583.078.865-.006.442-.134.765-.414.969-.841.147-.303.204-.772.174-1.407-.022-.493-.028-.81-.023-.954.01-.208.052-.365.12-.467a.543.543 0 0 1 .302-.215c.206-.064.411-.029.621.107.206.13.364.376.471.729.101.334.096.626-.017.873-.111.25-.342.461-.689.637l.431 1.037c.601-.258 1.009-.624 1.221-1.09.214-.47.217-1.047.008-1.735-.144-.473-.33-.848-.562-1.123a1.658 1.658 0 0 0-.844-.546 1.745 1.745 0 0 0-.978.013c-.351.106-.624.269-.82.487a1.622 1.622 0 0 0-.383.771c-.059.299-.073.735-.04 1.31.032.573.01.947-.066 1.12a.456.456 0 0 1-.497.282.427.427 0 0 1-.19-.084c-.19-.14-.332-.37-.43-.689-.094-.31-.1-.56-.023-.754.08-.193.254-.357.526-.49Z" fill="#004F97"/><path d="M64 20c-24.26 0-44 19.74-44 43.999C20 88.26 39.74 108 64 108c24.262 0 44-19.74 44-44.001C108 39.739 88.262 20 64 20Zm0 85.873c-23.09 0-41.875-18.784-41.875-41.874 0-23.09 18.785-41.874 41.876-41.874 23.09 0 41.875 18.785 41.875 41.874 0 23.09-18.785 41.874-41.875 41.874Z" fill="#004F97"/><path d="M51.882 34.384c-11.543 4.799-19.687 16.233-19.687 29.544 0 17.62 14.268 31.954 31.81 31.954 17.538 0 31.807-14.334 31.807-31.954S81.543 31.972 64.004 31.972a31.499 31.499 0 0 0-12.077 2.395l-.023-.015-.022.032Zm-.161 1.123c.258.144.52.282.784.414.308.154.675.325 1.087.506 1.132.492 2.296.905 3.486 1.235-1.554 1.503-5.74 5.92-8.716 12.32a21.091 21.091 0 0 1 2.314-2.22c3.193-5.683 7.027-9.256 7.623-9.793 1.648.378 3.33.593 5.02.64v4.393a20.905 20.905 0 0 0-12.643 4.76c-.827.68-1.6 1.423-2.314 2.22-.295.331-.578.672-.851 1.021a53.477 53.477 0 0 1-4.43-1.645c3.824-7.086 9.217-11.849 10.51-12.931-.366-.16-.728-.328-1.086-.506-1.827 1.59-6.809 6.28-10.42 13.002a53.781 53.781 0 0 1-3.892-1.931A31.068 31.068 0 0 1 51.72 35.507Zm6.662 2.388-.11.07h-.001l.113-.071h-.002Zm15.92-1.568a27.705 27.705 0 0 0 0 .001c1.065.858 6.728 5.64 10.522 13.075a53.43 53.43 0 0 1-4.324 1.603 21.188 21.188 0 0 0-1.252-1.448l-.002-.001c-3.036-6.091-7.106-10.354-8.653-11.851l-.381.101.38-.101c-.388-.375-.622-.582-.638-.597.018.016.252.221.64.597a25.158 25.158 0 0 0 3.709-1.379Zm-.202 55.025a27.962 27.962 0 0 0-4.715-1.53c-.057.055-.109.11-.165.167v-.001c.055-.055.108-.112.165-.166a26.903 26.903 0 0 0-4.978-.667v-4.297a20.903 20.903 0 0 0 12.65-4.553c-1.958 3.236-4.517 6.414-7.672 9.517.41.094.817.198 1.222.31 3.928-3.942 6.911-8.006 8.962-12.165a.385.385 0 0 0 .021-.022l.014-.028c.308-.345.605-.7.891-1.064 1.297.417 2.574.884 3.826 1.396-2.366 4.411-5.776 8.787-10.221 13.103Zm-3.84-.866c-.092.095-.184.188-.28.284l-.38-.392.38.39c.096-.093.188-.187.28-.282Zm-12.21-.49-.625.582.623-.583c-.073-.08-.143-.161-.218-.241-2.927-3.168-5.293-6.383-7.12-9.633a20.92 20.92 0 0 0 12.608 4.731v4.28a25.058 25.058 0 0 0-5.487.62c.074.082.144.164.219.245Zm-4.319 1.282.028.026-.028-.026Zm-.541.981.337-.383-.337.385c-.085-.074-.165-.15-.246-.223.08.073.161.148.246.221Zm.386-1.125-.002-.001c-4.586-4.103-8.092-8.325-10.502-12.636a53.45 53.45 0 0 1 4.434-1.65c.275.35.56.692.855 1.024 1.92 4.124 4.688 8.19 8.308 12.18.203.222.396.447.603.67-.208-.223-.4-.448-.603-.67a24.808 24.808 0 0 0-3.093 1.083Zm10.425-47.148a19.95 19.95 0 0 1 14.216 5.936c.983.997 1.86 2.093 2.618 3.27v.002c2 3.105 3.091 6.709 3.15 10.402l-18.5-3.152v-4.12h-.001l-.005-3.218s-.212-2.77 14.81-.57c-.06-.044-10.17-7.272-27.93-4.984l-.598.598.638 3.121s.209 1.4 1.717.667c0 0 7.254-1.602 8.145.866v7.552l-18.241 3.16a19.782 19.782 0 0 1 2.879-9.9c.296-.485.614-.957.952-1.414l.036.012c.206-.304.42-.598.644-.889h-.002c.255-.31.516-.616.788-.91 3.654-3.952 8.882-6.43 14.684-6.43Zm17.196 30.09.014-.04v.003a.607.607 0 0 1-.016.039c-.148.25-.303.496-.463.739.165-.255.326-.515.478-.778l.002-.005a19.56 19.56 0 0 1-1.068 1.615l-.027-.008c-.173.253-.353.501-.538.745-.332.413-.68.812-1.043 1.197a.21.21 0 0 1-.013.028c-3.648 3.85-8.807 6.257-14.521 6.257-5.784 0-10.999-2.467-14.653-6.396l-.002-.002c-.922-.99-1.74-2.07-2.444-3.225a19.776 19.776 0 0 1-2.876-9.567l18.181 3.151-.015 3.38v10.924s.023 1.54 1.612 1.54c0 0 1.698.061 1.681-1.515l.06-11.162h-.003l-.025-3.25L83.98 64.6a19.776 19.776 0 0 1-2.758 9.439l-.023.038Zm-18.98-8.252-.005 1.108-8.496-1.38-8.656-1.383h17.157v1.655Zm3.339-1.69V61.37l8.822 1.382 8.67 1.38H65.558Zm-22.53-.652H39.12c0-.076 0-.152.002-.227.144-4.81 1.568-9.198 3.477-12.976a54.822 54.822 0 0 0 4.254 1.6 20.774 20.774 0 0 0-3.828 11.603Zm-4.993-.268c-.003.088-.003.179-.004.268H33.17a30.9 30.9 0 0 1 4.468-15.615 55.108 55.108 0 0 0 3.966 1.976c-1.96 3.89-3.422 8.411-3.571 13.371Zm-.005 1.403c.088 4.55 1.277 9.025 3.551 13.403a54.642 54.642 0 0 0-3.942 1.964 30.885 30.885 0 0 1-4.464-15.367h4.855Zm1.092 0h3.91a20.774 20.774 0 0 0 3.824 11.356 55.102 55.102 0 0 0-4.275 1.61c-2.215-4.242-3.372-8.573-3.46-12.966Zm42.032 11.358a20.777 20.777 0 0 0 3.82-11.24h3.306c-.217 4.214-1.38 8.418-3.478 12.59a54.151 54.151 0 0 0-3.648-1.35Zm8.218-11.24h5.46a30.885 30.885 0 0 1-4.464 15.253 54.146 54.146 0 0 0-4.556-2.24c2.155-4.305 3.345-8.648 3.56-13.013Zm.037-1.136a28.92 28.92 0 0 0-.047-2.025c-.252-4.328-1.46-8.254-3.08-11.675a54.8 54.8 0 0 0 4.09-2.03 30.91 30.91 0 0 1 4.467 15.73h-5.43Zm-1.136-1.95c.038.65.052 1.3.045 1.95h-3.333a20.77 20.77 0 0 0-3.83-11.72 54.352 54.352 0 0 0 4.129-1.548c1.573 3.317 2.745 7.124 2.989 11.317Zm-18.93-23.626a20.055 20.055 0 0 0 0 .001c.624.565 4.271 3.983 7.463 9.325a20.93 20.93 0 0 0-12.397-4.355v-4.38a24.177 24.177 0 0 0 4.934-.591ZM38.19 80.859a53.721 53.721 0 0 1 3.88-1.926c2.412 4.337 5.89 8.575 10.428 12.693v.001c-.376.181-.748.37-1.115.569A31.072 31.072 0 0 1 38.19 80.858Zm14.493 11.89c10.161-5.058 19.472-1.207 22.207.167a30.56 30.56 0 0 1-10.886 1.995 30.564 30.564 0 0 1-11.32-2.162Zm23.518-.368a15.971 15.971 0 0 0-1.04-.547c4.408-4.327 7.804-8.724 10.172-13.163a53.65 53.65 0 0 1 4.48 2.194A31.061 31.061 0 0 1 76.202 92.38Zm13.616-45.387a53.911 53.911 0 0 1-3.992 1.977C82.27 41.974 77.106 37.26 75.38 35.8c.227-.119.456-.231.684-.358l-.024-.046a31.078 31.078 0 0 1 13.778 11.597ZM64.004 32.94a30.58 30.58 0 0 1 10.771 1.952c-9.838 5.039-18.69 1.595-21.743.077a30.562 30.562 0 0 1 10.972-2.03ZM36.032 83.17l-3.426 2.028 2.206-4.072-.582-.98-5.13 3.038.558.937 3.344-1.982-2.143 3.993.603 1.011 5.127-3.038-.557-.935Z" fill="#004F97"/><path d="M59.379 91.783a1.864 1.864 0 0 1-.6.3v.617c.174-.054.319-.108.435-.168.117-.057.235-.132.36-.227v1.808h.765v-2.76h-.626a1.218 1.218 0 0 1-.334.43Zm3.46-.29c-.166-.092-.384-.14-.656-.14-.226 0-.415.04-.565.116a.836.836 0 0 0-.353.335.957.957 0 0 0-.128.492c0 .265.084.483.252.656a.832.832 0 0 0 .617.258.79.79 0 0 0 .33-.064.929.929 0 0 0 .28-.204c-.026.292-.063.482-.111.573-.07.122-.164.183-.285.183a.253.253 0 0 1-.173-.065c-.047-.043-.081-.116-.1-.224l-.752.095a.986.986 0 0 0 .191.362.79.79 0 0 0 .312.22c.126.048.296.073.513.073.365 0 .653-.112.86-.34.205-.229.31-.587.31-1.077 0-.333-.05-.602-.148-.805a.994.994 0 0 0-.394-.444Zm-.358 1.135a.343.343 0 0 1-.264.116.327.327 0 0 1-.258-.12c-.069-.081-.103-.195-.103-.35 0-.148.033-.262.1-.337a.317.317 0 0 1 .249-.113.356.356 0 0 1 .271.126.496.496 0 0 1 .111.344.48.48 0 0 1-.106.334Zm2.533-.337a.995.995 0 0 0-.246.03c-.086.02-.17.05-.25.088l.066-.407H65.8v-.6h-1.796l-.24 1.455.644.095a.64.64 0 0 1 .168-.142.454.454 0 0 1 .211-.053c.115 0 .208.037.276.113.07.075.106.194.106.355 0 .159-.036.276-.104.356a.328.328 0 0 1-.261.119.343.343 0 0 1-.243-.094.454.454 0 0 1-.13-.279l-.765.082c.037.128.084.236.14.32a.882.882 0 0 0 .218.229.95.95 0 0 0 .327.151c.128.034.281.05.462.05.249 0 .454-.042.616-.127a.89.89 0 0 0 .37-.37c.087-.161.13-.33.13-.506a.83.83 0 0 0-.252-.619c-.172-.164-.392-.246-.664-.246Zm2.254 1.209c.07-.068.13-.123.181-.165.052-.042.155-.116.306-.22.257-.18.433-.346.53-.497a.846.846 0 0 0 .145-.473.73.73 0 0 0-.125-.421.761.761 0 0 0-.35-.28c-.148-.059-.356-.09-.621-.09-.255 0-.455.031-.599.096a.764.764 0 0 0-.337.273 1.22 1.22 0 0 0-.162.498l.758.062c.02-.154.062-.26.124-.322a.318.318 0 0 1 .235-.09.325.325 0 0 1 .233.087.283.283 0 0 1 .09.212.424.424 0 0 1-.092.243c-.062.085-.203.21-.425.374-.363.268-.61.5-.743.697a1.43 1.43 0 0 0-.237.63h2.27V93.5h-1.18Z" fill="#004F97"/></svg>