<svg width="128" height="128" fill="none" xmlns="http://www.w3.org/2000/svg"><path fill-rule="evenodd" clip-rule="evenodd" d="M33.88 33.881C26.17 41.59 21.402 52.237 21.402 64c0 11.765 4.767 22.412 12.478 30.123 7.711 7.709 18.356 12.474 30.121 12.474 11.763 0 22.41-4.765 30.12-12.474 7.712-7.711 12.477-18.358 12.477-30.123 0-11.763-4.765-22.41-12.476-30.119-7.711-7.71-18.358-12.48-30.121-12.48-11.765 0-22.41 4.77-30.12 12.48ZM20.001 64c0-24.299 19.7-43.998 44-44 24.299.002 43.998 19.701 43.998 44 0 24.303-19.7 44-43.998 44-24.3 0-44-19.697-44-44Z" fill="#1B5293"/><path fill-rule="evenodd" clip-rule="evenodd" d="M41.807 41.806c-5.68 5.683-9.193 13.525-9.193 22.193 0 8.67 3.513 16.514 9.194 22.197 5.68 5.679 13.524 9.192 22.193 9.192 8.668 0 16.512-3.513 22.193-9.192C91.876 80.513 95.387 72.67 95.387 64c0-8.668-3.51-16.51-9.193-22.193-5.68-5.68-13.525-9.192-22.193-9.192-8.669 0-16.513 3.511-22.194 9.192Zm-10.18 22.193c0-17.88 14.494-32.372 32.374-32.372 17.88 0 32.376 14.492 32.376 32.372 0 17.884-14.496 32.378-32.376 32.378-17.88 0-32.374-14.494-32.374-32.378ZM24.888 73.837l1.855-.59.093.295c-.993.75-1.353 1.489-1.077 2.221.281.884 1.199 1.08 2.747.588 1.53-.488 2.146-1.244 1.841-2.271-.338-.996-1.098-1.35-2.28-1.06l-.114-.352c1.367-.39 2.28.108 2.745 1.495.483 1.726-.1 2.916-1.752 3.571-1.686.34-2.858-.26-3.521-1.797-.137-.434-.145-.972-.026-1.615l-.418-.193-.093-.292ZM26.646 70.402l-.26-1.742-1.557.233c-.373.036-.51.287-.42.749l-.305.05-.412-2.751.305-.048c.061.553.274.782.633.687l3.73-.558c.372-.012.507-.294.404-.842l.304-.045.412 2.75-.304.046c-.05-.474-.257-.669-.621-.595l-1.831.275.258 1.743 1.834-.274c.37-.036.509-.287.42-.753l.304-.046.406 2.721-.305.044c-.06-.531-.268-.75-.628-.653l-3.729.556c-.374.014-.507.286-.41.812l-.304.044-.408-2.72.306-.045c.05.472.257.67.62.595l1.558-.233Z" fill="#1B5293"/><path fill-rule="evenodd" clip-rule="evenodd" d="m29.1 63.381.076 2.874-.308.008c.006-.555-.175-.808-.545-.758l-3.768.098c-.373-.03-.54.23-.506.788l-.308.008-.074-2.872.308-.01c-.008.557.176.812.544.758l3.768-.1c.372.034.539-.228.505-.782l.309-.012Z" fill="#1B5293"/><path fill-rule="evenodd" clip-rule="evenodd" d="m23.905 63.004-.308-.03.18-1.906 3.936-2.301.004-.032-2.77-.259c-.345-.073-.576.185-.693.775l-.307-.026.183-1.973.307.03c.014.52.199.774.55.766l4.492.416-.07.739-4.465 2.625-.002.032 3.354.312c.363.096.566-.199.61-.875l.306.028-.197 2.123-.309-.03c.074-.549-.077-.822-.45-.816l-3.753-.35c-.365-.074-.566.177-.598.752ZM28.12 54.428l-1.791.277 1.447 1.071.344-1.348Zm1.897 1.567-.534 2.096-.3-.076c.048-.434-.201-.838-.744-1.21l-3.637-2.743.1-.39 5.053-.816c.369-.036.601-.229.693-.591l.299.078-.703 2.754-.299-.077.078-.299c.1-.312.048-.485-.157-.515a1.667 1.667 0 0 0-.247-.034c.085.002.064.006-.068.016l-.967.167-.426 1.678.537.392c.086.086.233.165.45.24.243.044.4-.077.472-.358l.1-.388.3.076ZM26.526 48.75l1.218-2.5.279.136c-.27.512-.23.83.12.954l2.915 1.42c.611.256 1.099.08 1.46-.525.395-.814.188-1.42-.626-1.817L29.31 45.16c-.287-.209-.6-.04-.934.506l-.276-.136.877-1.803.279.133c-.18.51-.104.822.23.94l2.527 1.232c1.037.504 1.254 1.375.649 2.617-.605 1.194-1.358 1.585-2.256 1.17l-2.804-1.367c-.314-.2-.58-.055-.796.434l-.279-.135ZM29.494 43.446l-.252-.177 1.092-1.572 4.56-.066.018-.024-2.283-1.588c-.264-.233-.59-.122-.983.332l-.253-.177 1.129-1.622.253.177c-.243.456-.21.77.101.937l3.704 2.576-.424.605-5.179.088-.018.026 2.765 1.922c.269.263.59.108.961-.462l.253.178-1.216 1.75-.255-.178c.335-.444.339-.754.01-.934l-3.093-2.153c-.28-.245-.577-.122-.89.362ZM38.906 39.64l-1.91 2.146-.232-.205c.384-.404.424-.71.122-.927l-2.815-2.506c-.25-.279-.551-.205-.905.226l-.231-.205 1.91-2.145.231.205c-.386.402-.425.712-.121.927l2.815 2.508c.248.275.55.201.905-.23l.231.206ZM35.49 35.727l-.205-.23 1.958-1.748.207.229c-.398.33-.507.563-.324.706-.102-.022.886.576 2.962 1.786l.021-.02c-.051-.12-.12-.29-.21-.516-.76-1.996-1.121-2.864-1.077-2.6-.191-.214-.45-.178-.773.11l-.205-.233 1.336-1.19.207.231c-.265.29-.326.581-.181.864l1.797 4.566-.486.432-4.15-2.424c-.35-.24-.642-.227-.877.037ZM43.89 28.891l1.113 1.599-.285.185c-.816-.723-1.618-.828-2.412-.31-.42.224-.513.477-.276.767l.841 1.294c.605-.318.78-.8.532-1.45l.259-.168 1.196 1.84-.26.168c-.49-.491-1.004-.527-1.541-.105l.993 1.53c.173.305.446.325.814.06.852-.577 1.097-1.413.73-2.502l.287-.183 1.075 1.768-4.196 2.727-.167-.261c.475-.283.595-.572.36-.86l-2.054-3.159c-.167-.334-.478-.34-.934-.022l-.169-.259 4.095-2.659ZM47.21 28.163l.7 1.548c.89-.378 1.164-.898.822-1.556-.3-.612-.71-.82-1.233-.63-.32.144-.416.355-.288.638Zm4.101 1.878.283-.125c.338.75.159 1.282-.536 1.596-.706.34-1.238.106-1.604-.702-.325-.87-.796-1.14-1.417-.816l.67 1.492c.14.456.464.55.972.275l.127.28-2.561 1.155-.13-.278c.516-.211.679-.478.49-.799l-1.549-3.435c-.115-.356-.422-.406-.92-.161l-.127-.28 2.534-1.143c1.21-.524 2.02-.36 2.428.497.327.778-.075 1.435-1.214 1.97l.014.027c.7-.247 1.284-.08 1.75.501.448.54.708.74.778.597.157-.047.161-.266.012-.65ZM52.308 30.975l-.582-2.018.327-.096c.647 1.061 1.37 1.485 2.165 1.276.63-.203.872-.585.733-1.144-.098-.335-.601-.524-1.513-.56-1.242-.071-1.952-.424-2.136-1.056-.254-1.105.176-1.85 1.286-2.236.374-.11.76-.111 1.155-.012a.777.777 0 0 0 .262.022c.08-.024.138-.113.178-.276a.446.446 0 0 1 .032-.106l.298-.087.522 1.81-.297.088c-.567-.931-1.21-1.301-1.929-1.116-.569.185-.794.517-.676.995.101.36.595.55 1.482.573 1.274.04 2.019.424 2.23 1.159.23 1.025-.223 1.755-1.362 2.191a3.605 3.605 0 0 1-1.316.123c-.155-.021-.262-.021-.322-.003-.1.025-.171.145-.219.35l-.022.04-.296.083ZM59.008 29.364l-2.824.523-.058-.306c.552-.08.773-.3.665-.657l-.685-3.704c-.028-.375-.312-.498-.856-.377l-.055-.306 2.824-.522.058.307c-.551.08-.773.298-.665.657l.685 3.702c.028.374.312.5.856.378l.055.305ZM58.55 23.888l5.085-.362.165 1.909-.37.028c-.318-1.012-.868-1.49-1.65-1.433l.299 4.221c-.014.374.286.528.901.464l.02.306-3.081.217-.022-.304c.659-.028.946-.223.856-.587l-.297-4.224c-.782.056-1.258.607-1.433 1.65l-.368.026-.105-1.91ZM64.573 23.842l.024-.309 2.62.2-.026.31c-.41-.032-.623.034-.633.199-.006.06.026.177.095.348a.266.266 0 0 1 .026.094l.71 1.634.853-1.421c.095-.181.147-.319.157-.424.016-.223-.201-.353-.653-.388l.022-.309 2.002.153-.022.309c-.475.004-.778.165-.905.488l-1.316 2.225-.107 1.413c-.07.368.205.565.822.591l-.024.309-3.02-.231.026-.307c.655.07.968-.081.932-.457l.111-1.448-.866-2.048c-.22-.637-.495-.947-.828-.931ZM73.08 27.414c-.447 1.564-.254 2.466.578 2.703.804.25 1.435-.414 1.887-1.998.454-1.583.273-2.484-.547-2.695-.832-.237-1.471.425-1.917 1.99Zm-1.424-.408c.647-1.594 1.795-2.24 3.445-1.94 1.533.634 2.158 1.787 1.871 3.46-.623 1.579-1.757 2.208-3.4 1.888-1.584-.602-2.225-1.738-1.916-3.408ZM78.999 32.435l-2.691-1.246.13-.28c.495.254.803.202.923-.152l1.584-3.42c.191-.318.032-.583-.482-.8l.132-.28 4.426 2.054-.76 1.789-.31-.141c.18-1.075-.16-1.812-1.017-2.212-.415-.235-.68-.177-.799.177l-.648 1.402c.59.342 1.094.237 1.51-.32l.28.129-.92 1.99-.281-.131c.155-.677-.088-1.13-.73-1.36l-.781 1.68c-.193.323-.006.601.563.842l-.13.279ZM86.023 31.319l-.932 1.345.227.158c.611.426 1.127.332 1.549-.279.364-.599.338-1.067-.078-1.407-.287-.2-.543-.137-.766.183Zm-1.867 4.158-2.363-1.64.177-.253c.446.334.757.338.936.008l2.147-3.097c.245-.283.134-.57-.336-.872l.177-.253 2.335 1.62c1.009.751 1.266 1.517.772 2.302-.575.756-1.37.817-2.386.189l-.735-.51-.9 1.294c-.268.316-.153.635.35.955l-.174.257ZM92.944 35.813l-1.278 1.469-.249-.229c.502-.967.406-1.773-.288-2.416-.32-.355-.592-.377-.812-.078l-1.051 1.135c.457.505.97.559 1.536.159l.227.209-1.489 1.612-.227-.211c.355-.597.263-1.105-.276-1.523l-1.24 1.338c-.253.243-.205.511.141.806.77.683 1.638.716 2.603.093l.251.233-1.453 1.477-3.67-3.4.209-.226c.394.392.703.438.924.14l2.56-2.768c.282-.242.212-.545-.21-.911l.21-.225 3.582 3.316ZM93.729 36.614l3.202 3.967-1.47 1.226-.233-.287c.646-.838.722-1.562.23-2.171l-3.292 2.659c-.314.2-.268.535.136 1.003l-.241.195-1.94-2.404.24-.195c.396.527.72.648.971.368l3.293-2.661c-.492-.608-1.217-.685-2.172-.231l-.233-.289 1.509-1.18ZM97.598 43.244l-1.46.868c.475.84 1.022 1.055 1.64.64.573-.364.734-.797.487-1.295-.179-.303-.402-.372-.667-.213Zm-1.409 4.283.16.267c-.71.42-1.258.303-1.649-.354-.416-.663-.245-1.218.518-1.67.83-.42 1.047-.92.655-1.503l-1.41.838c-.44.187-.493.518-.163.995l-.266.156-1.436-2.417.267-.157c.265.488.547.619.844.396l3.242-1.927c.34-.15.359-.461.058-.93l.265-.158 1.421 2.39c.653 1.146.58 1.967-.225 2.47-.736.414-1.435.084-2.092-.985l-.028.014c.327.669.225 1.268-.298 1.795-.49.508-.661.786-.508.842.066.151.28.13.645-.062ZM98.586 49.213c-1.518.585-2.121 1.282-1.81 2.088.282.796 1.193.898 2.73.307 1.539-.591 2.148-1.278 1.825-2.058-.31-.806-1.226-.918-2.745-.337Zm-.531-1.381c1.662-.442 2.87.087 3.623 1.584.418 1.605-.128 2.799-1.639 3.575-1.636.454-2.82-.074-3.552-1.578-.472-1.628.051-2.823 1.568-3.581ZM98.46 58.403l-.99-4.43.302-.068c.102.55.328.762.68.64l3.679-.823c.37-.04.484-.33.344-.868l.301-.066.627 2.8-.301.069c-.101-.544-.328-.759-.68-.637l-3.649.816c-.366.057-.49.266-.368.619.23.75.912 1.158 2.046 1.22l.074.332-2.064.396ZM104.314 63.529l-1.939.183-.022-.34c1.031-.352 1.515-1.003 1.457-1.95.01-.472-.167-.677-.533-.616l-1.543.098c-.02.682.315 1.074 1.003 1.174l.018.31-2.189.138-.02-.309c.671-.187.953-.619.85-1.291l-1.82.111c-.352.002-.501.229-.453.683.085 1.023.692 1.646 1.821 1.863l.02.34-2.07.068-.313-4.996.309-.018c.014.555.205.802.573.738l3.762-.236c.372.02.529-.25.474-.803l.31-.02.305 4.873ZM104.348 64.39l-.223 2.773-.308-.026c.067-.573-.088-.854-.458-.842l-3.235-.26c-.66-.015-1.048.328-1.166 1.02-.074.904.34 1.392 1.244 1.463l2.864.231c.345.09.573-.18.685-.812l.308.026-.161 2.002-.306-.026c-.02-.539-.205-.802-.558-.788l-2.802-.227c-1.15-.093-1.668-.828-1.559-2.201.13-1.334.687-1.969 1.674-1.913l3.109.253c.367.072.562-.161.584-.697l.308.024ZM97.903 71.985l.553-1.965.297.086c-.12.5.048.814.505.943l3.48.98c.31.107.523-.078.639-.56l.296.084-.621 2.201-3.837.076-.01.026 3.238 2.068-.629 2.231-.297-.084c.17-.529.072-.824-.296-.885l-3.629-1.02c-.344-.14-.583.056-.714.6l-.299-.084.747-2.647.296.084c-.153.473-.05.744.315.826l3.863 1.088-4.257-2.772.185-.653 5.061-.084-3.658-1.03c-.476-.132-.784.057-.931.572l-.297-.081ZM59.77 90.048v3.025c0 .153.061.231.19.231h.359v.19h-1.734v-.19h.339c.125-.014.189-.084.189-.213v-2.366a3.078 3.078 0 0 1-.635.274l-.084-.15a3.628 3.628 0 0 0 1.079-.801h.297ZM61.845 91.084c-.028.59.1.882.38.868.128 0 .277-.058.446-.172.026-.225.042-.414.042-.57 0-.65-.155-.972-.466-.972-.282-.014-.416.269-.402.846Zm-.275 2.452-.127-.147c.635-.195 1.03-.655 1.184-1.376a.957.957 0 0 1-.549.191c-.58-.043-.89-.38-.931-1.015.055-.706.423-1.084 1.1-1.142.747.042 1.135.521 1.163 1.439-.07 1.1-.683 1.783-1.84 2.05ZM64.326 91.844l.061-1.712h1.207c.113 0 .177-.035.19-.105h.17l-.086.633h-1.29l-.02.657c.142-.042.29-.066.442-.066.749.046 1.145.416 1.187 1.123-.058.734-.5 1.12-1.334 1.164-.466-.014-.71-.15-.74-.404.014-.181.105-.275.274-.275.128 0 .241.086.34.257.098.153.204.229.317.229.31-.026.48-.267.508-.717-.014-.507-.233-.776-.657-.804-.14 0-.28.036-.422.106l-.147-.086ZM67.693 91.844l-.085-.147c.38-.309.565-.585.55-.826-.013-.253-.14-.388-.381-.4-.211 0-.38.125-.505.38l-.172-.062c.183-.481.508-.728.974-.74.438.026.676.225.718.593 0 .28-.189.533-.571.758h.022c.507.028.782.33.824.91-.056.776-.506 1.184-1.354 1.228-.477-.03-.738-.17-.782-.422.014-.171.114-.263.297-.277.113 0 .225.078.338.233.114.167.24.255.38.255.297-.03.452-.277.466-.74-.014-.496-.197-.757-.55-.785a.17.17 0 0 0-.085.022.184.184 0 0 1-.084.02ZM55.886 38.793h6.616v10.792s-2.126.887-4.548 3.756c0 0-2.942-.333-5.536.84-3.415 1.548-6.574 5.784-4.745 11.172 1.889 5.567 7.759 7.217 7.958 7.217 0 0-11.07 2.126-13.593-7.86-1.899-7.518 3.171-16.065 13.848-16.706v-9.211Z" fill="#1B5293"/><path fill-rule="evenodd" clip-rule="evenodd" d="M65.713 38.795v10.59s-11.27 4.599-9.836 14.634c.445 1.927 2.225 2.373 3.164 2.321.94-.05 3.163-.247 3.36-3.16.2-2.326 1.087-8.356 7.416-11.024 5.142-2.125 11.764-.547 15.57 3.904 0 0-3.165-7.859-13.1-8.008v-9.257h-6.574Z" fill="#1B5293"/><path fill-rule="evenodd" clip-rule="evenodd" d="M44.706 71.088s5.092 4.99 13.891 2.272c6.03-2.52 6.672-7.216 7.066-10.231.299-2.425 1.929-3.61 3.907-3.312 1.58.199 3.113 1.73 2.916 3.706-.199 1.976-1.088 9.442-9.986 13.198v7.612s-.246.891.743.989h1.877s.742 0 .692-.938v-7.907s3.066-1.88 4.153-3.659c0 0 4.27.37 8.303-3.608 3.856-3.808 4.994-14.584-6.425-16.067 0 0 5.932-2.42 11.666 2.57 4.893 4.303 2.964 15.077-3.708 19.23-3.412 2.373-7.561 3.066-7.561 3.066v5.73s.493 2.968-2.966 3.856h-10.53s-2.818-.541-2.868-3.607V77.91s-7.364-.94-11.17-6.822ZM37.07 87.37c-.176.07-.528 0-.576-.062-.048-.064.161-.195.161-.195a.283.283 0 0 1 .333.004c.085.066.256.18.081.253Zm1.406-1.873c.178-.408-.497-.787-.577-.673 0 0-.183.06-.141.406.04.348-.215.38-.432.57-.217.184-.816.62-.816.62s-1.586-.657-1.72-.784c-.131-.13-.153.352.088.493.243.14.921.418 1.06.49.14.072.3.13.178.225-.124.096-.414.422-.542.404-.127-.012-.808-.42-.963-.07-.153.35-.09.815-.008.898.084.082-2.157 1.523-2.689 2.005-.531.481-.52.684-.048.549.47-.14 1.135-.655 1.63-1.061.492-.402 1.418-1.077 1.551-1.115.135-.04.9-.159 1.264-.177.362-.024.486-.12.826.213.338.327.484.508.685.138.203-.375.35-1.05.043-1.338-.306-.289-.806-.442-.75-.52.056-.075 1.182-.871 1.361-1.273Zm-4.87 1.049c-.07.336.02.597.243.44.223-.16.308-1.464.22-1.81-.087-.342-.338-.41-.338-.41-.434-.091-.31.424-.113.699.197.274.056.75-.012 1.08ZM50.466 98.911c-.14-.432-.444-.452-.762-.384-.317.066-.633-.064-.872-.02-.24.036.213.466.33.627.116.16-.23.29-.515.283-.283-.006-.364.11-.408.01-.042-.1-.141-.538-.255-.763-.11-.22-.404-.258-.404-.258-.22-.11.229.33.396.71.165.378.09.695.13.989.04.289.543.405 1.11.679.567.277.627.076.595-.018-.032-.095-.041-.531.06-.792.102-.265.145-.215.591-.195.444.022.145-.434.004-.868Zm-.032-2.577c.36-.044.799-.04 1.083.15.285.19.57-.021.18-.499-.393-.475-.323-.22-.894-.225-.568-.004-1.648-.27-1.668-.227 0 0-.052.102.063.267.118.162-.026.323.221.428.247.108.514.173.144.345-.369.17-3.677 2.215-5.53 2.601-.255.15.137.223 1.16-.034 1.024-.255 1.137-.253 2.188-.782 1.051-.53 2.6-1.385 2.8-1.642.202-.251-.107-.335.253-.382ZM66.89 98.26s.07.126.187.225c.115.102.207.83.215 1.254.006.422.185.713-.237.888-.42.177-.987.195-.812.45.177.251.601.424.733.412.13-.008.346.095.083.296-.263.203-1.612 1.549-1.801 1.599-.191.051.072.151.764.042.693-.114 1.149-.148 1.567-.532.42-.38.382-.703.507-.798.126-.094.088-.118.372.115.283.235 1.109 1.394 1.696 1.808.585.416.962.266 1.92.01.409-.197-.027-.225-.6-.436-.571-.211-1.157-.434-2.052-1.272-.898-.838-1.11-.93-.956-1.113.156-.179.585-.903.888-.913.3-.008.356-.546.002-.759-.354-.217-.754-.087-.92-.175-.163-.082-.246-.717-.533-.997-.287-.28-1.264-.255-1.023-.104ZM78.795 98.785c-.197-.006-.414-.335-.603-.474-.191-.141.032-.352.163-.446.127-.093.366-.364.014-.579-.352-.213-.54-.358-.981.141-.44.498-1.17.952-1.014 1.08 0 0 .285.244.544.057.259-.187.45-.295.428-.13-.02.164.004.35.294.512.293.165.625.217.494.338-.13.124-1.188.908-1.38 1.197-.19.288-.087.286.261.189.35-.098.842-.319 1.153-.54.308-.223.55-.298.645.08.093.372.13 1.349-.144 1.505-.274.153-1.528.543-1.462.694.065.154.925.066 1.194.211.27.146.965.124 1.114-.875.15-1.002.126-1.394-.268-2.2.07-.083.268-.259.505-.28.24-.024.225-.422-.177-.578-.404-.153-.581.106-.78.098Zm1.246-2.805c-.135-.229-.231-.515-1.097-.137-.868.382-1.523 1.142-2.05 1.493-.525.354.818-1.113 1.274-1.45.456-.334.288-.732-.098-.843-.384-.11-.672.04-.79.101-.117.062-.517.558-.762.661-.243.102-.307.13-.285.185 0 0 .327.434.572.486.242.056.324-.03.342-.354.022-.319-.042-.683.2-.76.242-.076.49-.102.409.166-.082.27-1.97 3.307-2.166 3.183-.197-.127-.348-.205-.481-.15-.132.057-.03.142-.11.383-.08.245-.346.812.126.975.473.166.111-.565.47-.885.36-.32.46-.546 1.307-1.463.848-.92 1.929-1.56 1.939-1.384.01.178.026.122-.26.281-.284.16-.499.601-.302.543.197-.055.498-.3.972-.438.477-.137.927-.364.79-.593Zm-4.453 1.376c.285.179.508.398.725.177.219-.225-.127-.792-.263-.866-.133-.074.032.193-.103.213-.136.018-1.119-.151-.92.167 0 0 .279.132.561.309ZM60.165 100.686c-.16.062-.171.072-.255.434-.081.358-.481 1.449-.645 1.624-.165.175-.153-.048-.169-.189-.014-.137-.3-.145-.418-.103-.12.043-.087-.162-.06-.406.026-.245.194-.12.562-.172.37-.055-.132-.579-.21-.645-.077-.061.066-.784.066-.784.651-.195.892-.069 1.157-.014.265.054.131.195-.028.255Zm1.02.237c-.702-.669-.895-.862-2.182-.733.061-.087-.026-.708.163-.718.187-.008.42.006.195-.603-.227-.61-.727-1.059-.8-.836-.072.225.026.239-.026.716-.052.478-.064 1.258-.191 1.426-.126.163-.74.28-1.103.519 0 0 .038.165.283.108.245-.062.65-.269.746-.317.096-.048.167-.195.112.155-.054.351-.106.83-.213.8-.11-.031-.661-.306-.583-.007.075.296.129.519.224.535.098.014.106.115.092.199-.012.086-.173.157-.309.149-.135-.01-.087.398-.354-.205-.265-.601-.517-1.19-.687-1.218-.17-.024-.119.046.052.297.171.25.263.613.355.977.091.36-.058.985.411.922.47-.06.486-.084.827-.042.342.042.382-.124.44-.016.057.107.145.88.47.955.322.076.544-.237.98-1.021.438-.79.434-1.24.749-1.262.314-.026 1.049-.105.348-.78Zm-5.81 1.427c-.331.356-.234.147-.598.165-.364.016.181.81.508.788.326-.021.772-1.566.772-1.566.04-.243-.352.255-.683.613Zm.548-1.182c.271.02.303-.187.315-.335.01-.149-.66-.925-.66-.925-.387-.076.075 1.242.345 1.26Zm.651-1.276c.227.135.289-.016.297-.227.01-.209-.677-.977-.677-.977-.334-.092.153 1.069.38 1.204ZM40.025 94.459c-.116 0-.253-.068-.621-.345-.369-.276-.773-.567-.773-.567-.298-.299-.29.209-.043.418.248.207.607.478 1.134.87.528.398.448.298.484.101.038-.197-.066-.48-.181-.478Zm1.548-.126c.233.147.355.022.235-.452-.121-.473-.006-.784-.131-.905-.126-.122.237-.436.298-.512.066-.073.203-.008.546.201.346.207.696.098.587-.35-.108-.45-.082-.344-.985-.506-.904-.159-1.497-.595-1.378-.428 0 0-.107.478.16.524.268.048.704.091.67.207-.034.117-.243.446-.354.48-.114.037-.233-.032-.267-.108-.032-.078-.2-.09-.223.052-.024.143-.073.282-.095.424-.024.141-.092.167-.373.173-.282.006-.666-.056-.76.303-.091.36-.032.638.273.684.302.044.366-.034.591.22.225.254.49.057.474-.138-.018-.193.268-.438.308-.484.04-.048.203-.107.197.115-.008.222-.006.353.227.5Zm-.838-3.286c.118-.16-.18-.249-.18-.249-.08-.002-.083.078-.29.327-.206.246-1.248 1.48-1.66 1.703-.411.22-.406.388-.39.596.02.212.522-.116.763-.365a69.861 69.861 0 0 0 1.757-2.012Zm3.963 2.118c.102-.335-.01-.936-.1-1.155-.089-.223-.354-.738-1.319-.901-.967-.164-1.903-.496-1.736-.191 0 0 .19.27.476.3.285.03 1.238.15 1.517.205.276.056.59.319.511.547-.075.225-.698.984-1.128 1.515-.43.532-1.949 2.954-2.08 2.647-.134-.304-.273-1.122-.384-.873-.112.245-.114.52-.203.915-.09.396-.436 1.061-.024 1.149.414.087.352.197 1.538-1.27 1.187-1.47 2.096-2.665 2.253-2.697.156-.03.576.145.68-.191ZM84.81 95.504a.592.592 0 1 1-1.186 0 .593.593 0 0 1 1.186 0ZM88.589 92.744a1.35 1.35 0 0 1-.118.28.461.461 0 0 0-.05.321.646.646 0 0 1-.01.259c.005.06.005.11 0 .153-.013.111.044.275.172.486.028.057.048.085.06.073.023.002.05-.028.08-.093a6.13 6.13 0 0 0 .296-.83 6.572 6.572 0 0 0-.191-.313 3.086 3.086 0 0 1-.24-.336Zm-.64-3.03c-.039-.051-.023-.081.047-.099.675-.191 1.009-.225 1.009-.1.12.174.243.357.372.542.12.173.227.332.327.484.101-.207.195-.43.276-.66.068-.2.23-.258.484-.172.239.139.312.308.22.505-.115.241-.214.466-.296.673-.066.199-.163.312-.292.33.127.313.236.526.326.641.187.2.356.231.508.088a.612.612 0 0 0 .189-.153 11.7 11.7 0 0 0 .199-.251c.151-.227.3-.35.454-.368.23-.022.402.035.513.177.143.177.135.348-.02.515a9.64 9.64 0 0 1-.513.444c-.175.141-.313.24-.41.299-.273.177-.532.19-.78.035-.242-.093-.45-.298-.624-.615a6.425 6.425 0 0 0-.272-.495c-.03-.038-.058-.058-.08-.06-.022-.002-.048.018-.076.06-.097.264-.159.676-.185 1.238a2.846 2.846 0 0 0 .325.516.187.187 0 0 0 .042.089.822.822 0 0 1 .053.147c-.002.02 0 .05.008.086.02.026.054.091.098.2.028.058.03.1.006.12-.002.022-.03.016-.084-.026-.141-.073-.253-.11-.332-.107.052.376.047.627-.014.758a.385.385 0 0 1-.32.261c-.265.004-.448-.106-.55-.336a.57.57 0 0 0-.066-.198l-.01-.051c-.071-.09-.17-.378-.302-.876-.21.125-.472.058-.788-.205-.054-.02-.082-.036-.078-.062.002-.022.028-.053.078-.095.113-.09.21-.2.294-.329.122-.18.273-.354.452-.52a2.38 2.38 0 0 0-.796-.602c-.056-.016-.088-.044-.096-.08.002-.02.028-.052.078-.091.346-.22.609-.275.796-.174.229.104.398.24.508.398.17.315.354.647.547.988.064-.693.131-1.173.205-1.441a7.363 7.363 0 0 0-.617-.806c-.185-.206-.332-.337-.44-.39-.014.007-.024.007-.034-.005-.167-.055-.28-.129-.338-.227ZM95.197 87.63a4.19 4.19 0 0 0-.293.802c.215-.032.38-.106.496-.219.161-.068.189-.151.087-.255l-.17-.173a1.09 1.09 0 0 0-.12-.155Zm-.737-.29c.116.067.207.007.277-.174-.103-.103-.189-.131-.257-.085-.08.101-.087.187-.02.258Zm.094-1.663c-.068 0-.104.08-.104.24a.76.76 0 0 0-.017.152.922.922 0 0 0-.034.171c-.048.16-.082.333-.106.516.251-.14.446-.171.581-.102.026-.206-.008-.445-.1-.722-.067-.18-.14-.265-.22-.255Zm-2.633-.696c.08-.01.199-.062.36-.152.022-.024.04-.04.052-.053.228-.18.461-.243.702-.183.205.02.3.073.29.153.055.173-.041.338-.294.497-.091.066-.199.197-.326.39-.138.184-.333.48-.585.888-.058.104-.08.104-.07 0 .127-.282.26-.607.4-.973.102-.193.068-.295-.103-.309-.227-.022-.377-.07-.444-.139-.046-.02-.064-.04-.052-.052 0-.022.024-.044.07-.067Zm1.455-.046c.045-.203.115-.319.207-.34a.258.258 0 0 0 .137-.036.575.575 0 0 0 .153-.05c.116-.022.19-.004.223.052.046.045.05.143.016.29-.105.514-.133.874-.09 1.079.207-.386.522-.528.944-.422.135.022.205.082.203.171.012.102.024.171.034.205.135.528.145.926.032 1.198.022.07.05.11.085.122.215-.265.412-.48.583-.649.08-.08.19-.127.327-.153.434-.022.706.151.818.52.012.1-.024.157-.104.168a.274.274 0 0 1-.101.068c-.08.012-.183.034-.31.068-.023.022-.044.034-.066.034-.185.043-.36.061-.532.047-.034.014-.047.012-.034 0l.068-.067c.275-.181.378-.327.31-.444-.17-.173-.457-.002-.86.511.206.227.343.355.41.379.216.193.359.37.429.531-.002.044.02.102.065.171l.052.054c.058.125-.028.175-.257.151-.205-.07-.44-.066-.702.014-.08.036-.195.058-.343.066a3.745 3.745 0 0 0-.189-.016c.022.275.062.487.118.635.058.171.028.257-.088.255-.159 0-.312-.03-.462-.086-.08-.036-.129-.076-.153-.123v-.034c-.012-.171-.111-.353-.304-.548-.058-.081-.034-.149.067-.205a.297.297 0 0 1 .257.086c.07.091.143.054.223-.118.277-.523.46-.855.553-.993a4.557 4.557 0 0 1-.137-.137c-.308.171-.553.12-.734-.155 0 .067.015.187.047.358.024.07.042.121.052.155.068.162.044.253-.07.273-.286.102-.491-.022-.615-.376-.034-.084-.034-.13 0-.14.034.036.036-.031.002-.205a10.997 10.997 0 0 1-.131-1.68c.002-.065-.01-.08-.034-.03-.185.409-.34.88-.468 1.416-.023.414-.258.689-.706.836-.215.101-.376.08-.478-.072-.034-.032-.028-.062.018-.083l.018-.016c.25-.114.531-.518.842-1.215a8.84 8.84 0 0 0 .19-.392c.162-.364.282-.63.363-.802.034-.06.076-.165.122-.326Z" fill="#1B5293"/></svg>