<svg width="128" height="137" fill="none" xmlns="http://www.w3.org/2000/svg"><g filter="url(#a)" fill-rule="evenodd" clip-rule="evenodd" fill="#0067A5"><path d="m28.935 80.353-1.49-3.598.245-.102c.143.438.366.584.67.44l2.985-1.236c.3-.105.356-.366.164-.784l.244-.102.942 2.277-.245.101c-.165-.447-.388-.594-.669-.44l-2.962 1.226c-.306.09-.38.282-.22.579.29.606.926.85 1.91.73l.11.27-1.684.639ZM32.422 82.732l.923-1.254-1.53.228.607 1.026Zm-2.101.197-.945-1.598.228-.134c.22.3.614.395 1.185.284l3.873-.535.175.296-2.578 3.558c-.213.228-.235.488-.063.777l-.228.135-1.242-2.1.228-.134.135.228c.129.253.265.326.408.221a.641.641 0 0 0 .133-.14l.068-.04.486-.688-.756-1.279-.564.088c-.112-.016-.252.025-.419.124-.183.108-.207.276-.071.505l.175.296-.228.135ZM35.866 83.612l.206-.168 1.04 1.273-1.017 3.78.016.021 1.848-1.512c.255-.163.24-.46-.043-.89l.205-.168 1.075 1.314-.206.167c-.32-.308-.586-.353-.796-.136l-2.996 2.453-.404-.493 1.145-4.295-.017-.021-2.237 1.83c-.294.172-.241.473.155.902l-.205.168-1.159-1.416.205-.168c.264.378.52.454.769.228l2.504-2.05c.258-.188.228-.46-.088-.819ZM40.25 92.12l-1.242 1.305-2.668-2.462.235-.253 4.505-1.286-.33-.306c-.739-.634-1.41-.663-2.01-.089l-.215-.198 1.135-1.151 2.512 2.319-.323.35-4.358 1.243c.887.915 1.735 1.025 2.545.33l.214.197ZM42.904 93.137l1.245.857.767-1.113c.196-.252.12-.486-.225-.702l.151-.218 1.965 1.353-.15.22c-.384-.286-.65-.288-.802-.006l-1.836 2.663c-.22.256-.123.505.29.747l-.15.218-1.965-1.354.15-.218c.315.26.56.247.737-.04l.902-1.31-1.244-.857-.902 1.31c-.221.255-.145.49.224.702l-.151.217-1.942-1.338.15-.219c.343.28.604.276.78-.01l1.836-2.663c.195-.251.105-.496-.269-.732l.15-.218 1.943 1.34-.15.217c-.34-.255-.584-.242-.736.04l-.767 1.114ZM47.342 96.181c-.625 1.268-.592 2.057.101 2.369.646.328 1.273-.145 1.883-1.42.6-1.26.576-2.044-.078-2.357-.685-.327-1.32.142-1.906 1.409Zm-1.148-.548c.752-1.245 1.816-1.628 3.191-1.147 1.207.753 1.569 1.817 1.089 3.193-.769 1.237-1.817 1.607-3.145 1.11-1.254-.736-1.632-1.789-1.135-3.156ZM51.867 95.724l2.284.69-.077.254c-.468-.16-.732-.083-.79.232l-.804 2.664c-.147.547.069.935.645 1.164.728.22 1.212-.04 1.454-.779l.713-2.36c.12-.278-.066-.519-.558-.722l.077-.254 1.65.498-.077.254c-.46-.066-.715.042-.763.323l-.697 2.31c-.286.947-.996 1.25-2.13.907-1.094-.349-1.527-.931-1.299-1.749l.774-2.563c.109-.3-.05-.504-.478-.615l.076-.254ZM61.48 97.855l2.382.01v.264c-.494-.02-.724.13-.69.447l-.01 2.782c.014.565.332.875.95.93.759.003 1.148-.383 1.169-1.161l.01-2.463c.036-.3-.21-.478-.74-.532v-.265l1.722.006v.265c-.46.069-.673.245-.638.527l-.01 2.411c-.004.989-.597 1.48-1.78 1.476-1.147-.022-1.728-.457-1.743-1.304l.01-2.675c.02-.318-.192-.47-.634-.453l.002-.265ZM66.573 98.12l-.037-.262 1.624-.237 2.714 2.817.026-.003-.344-2.36c-.008-.302-.27-.443-.784-.422l-.039-.261 1.678-.245.04.262c-.43.116-.606.32-.528.612l.558 3.829-.628.092-3.09-3.191-.027.003.417 2.858c-.004.339.28.45.852.331l.038.262-1.809.264-.038-.263c.46-.031.656-.211.59-.541l-.466-3.199c-.028-.316-.277-.432-.747-.345ZM75.531 100.802l-2.374.656-.07-.255c.451-.089.625-.292.518-.611l-.86-3.114c-.068-.311-.32-.398-.758-.258l-.071-.255 2.374-.656.07.256c-.463.11-.636.312-.517.61l.86 3.114c.055.333.308.419.758.258l.07.255ZM74.86 96.447l-.1-.246 2.09-.844.1.246c-.41.166-.565.324-.466.474-.085-.022.54.745 1.874 2.302l.024-.01c0-.095-.004-.246-.011-.453-.052-1.826-.095-2.64-.126-2.436-.093-.23-.312-.274-.656-.136l-.1-.245 1.427-.576.099.246c-.291.175-.424.39-.396.646l.127 4.209-.516.208-2.65-3.16c-.214-.295-.454-.37-.72-.225ZM82.64 92.381l.881 1.42-.252.146c-.656-.642-1.34-.767-2.053-.377-.36.188-.45.403-.27.646l.663 1.149c.53-.247.705-.653.52-1.22l.23-.132.94 1.63-.23.132c-.389-.428-.828-.48-1.315-.159l.782 1.355c.129.293.36.322.694.09.74-.45.988-1.153.74-2.112l.253-.145.842 1.564-3.719 2.147-.132-.23c.415-.199.531-.44.348-.721l-1.616-2.8c-.144-.285-.41-.305-.8-.06l-.132-.23 3.627-2.093ZM85.152 91.416l.905 1.144c.674-.488.794-.978.36-1.469-.39-.435-.776-.524-1.158-.267-.25.198-.285.395-.107.592Zm3.807.708.208-.165c.439.555.402 1.035-.111 1.44-.516.432-1.01.349-1.482-.248-.324-.352-.553-.541-.689-.57-.157-.056-.378.006-.663.187l.872 1.102c.211.351.5.36.866.025l.164.208-1.892 1.499-.165-.21c.383-.257.463-.512.24-.764L84.3 92.091c-.183-.261-.449-.242-.799.058l-.164-.209 1.87-1.48c.9-.689 1.608-.719 2.126-.093.448.593.248 1.225-.598 1.894l.017.021c.528-.33 1.05-.312 1.56.05.498.372.757.484.773.335.108-.063.067-.244-.125-.543ZM90.71 91.905l-1.299-1.248.202-.21c.934.531 1.653.535 2.155.013.39-.408.408-.796.051-1.163-.204-.196-.659-.118-1.363.234-.94.494-1.618.539-2.04.135-.663-.686-.665-1.422-.007-2.21.22-.23.498-.391.833-.486a.62.62 0 0 0 .222-.117c.062-.039.06-.163-.007-.374l.183-.191 1.166 1.118-.183.191c-.821-.42-1.458-.42-1.912.003-.329.393-.353.737-.072 1.031.23.221.672.155 1.326-.195.976-.532 1.7-.572 2.17-.12.614.687.593 1.424-.066 2.212-.27.28-.576.511-.923.693-.136.04-.217.073-.241.099-.062.064-.065.195-.011.394l-.184.191ZM95.553 86.303l-1.498 1.96-.21-.16c.307-.344.321-.611.044-.801l-2.572-1.964c-.241-.207-.496-.123-.76.253l-.211-.16 1.497-1.961.21.16c-.303.37-.318.637-.043.802l2.57 1.964c.247.232.5.147.761-.254l.212.16ZM92.248 82.982l2.222-3.762 1.428.812-.162.275c-.868-.267-1.472-.112-1.813.466l3.123 1.845c.262.217.518.08.766-.409l.227.135-1.347 2.28-.228-.134c.308-.454.31-.75.003-.891l-3.124-1.846c-.35.593-.194 1.197.466 1.814l-.162.273-1.4-.858ZM94.848 79.051l-.244-.103.872-2.075.245.102c-.145.343-.148.532-.01.57.048.021.147.035.298.04a.274.274 0 0 0 .094-.018l1.523-.135-.927-1.079c-.118-.127-.218-.207-.3-.241-.17-.052-.334.089-.495.424l-.244-.102.668-1.588.244.103c-.115.41-.065.701.152.868l1.452 1.673 1.123.472c.289.18.523.01.702-.509l.245.103-1.006 2.393-.245-.103c.246-.49.206-.785-.117-.883l-1.147-.481-1.903.148c-.576.006-.904.147-.98.421Z"/><path d="M64 20c24.297 0 44 19.704 44 44 0 24.297-19.703 44-44 44-24.296 0-44-19.703-44-44 0-24.296 19.704-44 44-44Zm0 1.194c23.637 0 42.806 19.169 42.806 42.806 0 23.637-19.169 42.806-42.806 42.806-23.637 0-42.806-19.169-42.806-42.806 0-23.637 19.169-42.806 42.806-42.806Z"/><path d="M64 34.037c16.545 0 29.963 13.418 29.963 29.963S80.545 93.963 64 93.963 34.037 80.545 34.037 64 47.455 34.037 64 34.037Zm0 .813c16.097 0 29.15 13.053 29.15 29.15 0 16.097-13.053 29.15-29.15 29.15-16.096 0-29.15-13.053-29.15-29.15 0-16.097 13.053-29.15 29.15-29.15Z"/><path d="M86.779 64.027h2.36v-2.416h-2.36v2.416Zm-23.134-20.59h.214v-.557h.283v.557h.213v.606h-.213v1.25l.157.486V47.4l.502.599v2.708h.68v5.078h.752v-.637h.8v2.958h10.93v-1.704h.612v.51h1.993v-.533h.612v1.727h8.606v11.525H38.215V58.107h8.606V56.38h.61l.001.533h1.993v-.51h.613v1.704h10.929v-2.958h.8v.637h.752v-5.078h.68V48l.502-.6V45.78l.158-.487v-1.249h-.214v-.605ZM86 66.21h3.14v-1.966h-3.14v1.966Zm3.14.218h-3.65v1.582h1.24v-1.187h.649v1.187h.52v.941h1.24v-2.523Zm-8.511-2.4h2.709v-2.416h-2.71v2.416Zm0 2.182h3.604v-1.966h-3.604v1.966Zm0 .218h4.188v1.582h-1.422v-1.187h-.745v1.187h-.398v.941h-1.623v-2.523Zm0-4.996h2.709v-2.089h-2.71v2.089Zm5.55-2.067h-2.264v4.462h.708v1.886h.991v-1.886h.565v-4.462Zm-7.602-1.242h2.013v-.648h-2.013v.648Zm-.162 10.827h1.61v-9.936h-1.61v9.936ZM66.01 62.422h.75v-1.174h-.75v1.174Zm11.777-1.174h-.67v1.418h-.835v-1.418h-.751v1.418h-.836v-1.418h-.751v1.418h-.836v-1.418h-.751v1.418h-.836v-1.418h-.75v1.418h-.837v-1.418h-.75v1.418h-.837v-1.418h-.75v1.174h.228v.62h9.962v-1.794Zm-2.475 4.226h1.214v-2.172h-1.214v2.172Zm-1.412 0h1.214v-2.172H73.9v2.172Zm-1.443 0h1.245v-2.172h-1.245v2.172Zm4.285 0h1.048v-2.172h-1.048v2.172Zm1.048.199h-9.151v3.265h3.401v-2.745h.638v2.745h.788v-2.745h.638v2.745h.787v-2.745h.638v2.745h.787v-2.745h.639v2.745h.835v-3.265Zm8.989-4.243h2.36v-2.088h-2.36v2.088Zm-22.373.992h.768v-1.174h-.768v1.174Zm-25.544 1.605h2.36v-2.416h-2.36v2.416Zm0 2.182h3.14v-1.966h-3.14v1.966Zm0 .218h3.648v1.582h-1.239v-1.187h-.648v1.187h-.52v.941h-1.241v-2.523Zm5.801-2.4h2.71v-2.416h-2.71v2.416Zm-.895 2.182h3.604v-1.966h-3.604v1.966Zm3.604.218h-4.188v1.582h1.423v-1.187h.744v1.187h.398v.941h1.623v-2.523Zm-2.709-4.997h2.71v-2.088h-2.71v2.088Zm-2.84-2.066h2.264v4.462h-.71v1.886h-.99v-1.886h-.565v-4.462Zm5.588-1.242h2.013v-.648H47.41v.648Zm.566 10.827h1.61v-9.936h-1.61v9.936Zm13.262-6.527h.751v-1.174h-.75v1.174Zm-11.025-1.174h.668v1.418h.836v-1.418h.751v1.418h.836v-1.418h.751v1.418h.836v-1.418h.751v1.418h.836v-1.418h.751v1.418h.836v-1.418h.75v1.418h.837v-1.418h.75v1.174h-.227v.62h-9.962v-1.794Zm1.26 4.225h1.215v-2.172h-1.214v2.172Zm1.412 0H54.1v-2.172h-1.214v2.172Zm1.412 0h1.245v-2.172h-1.245v2.172Zm-4.087 0h1.048v-2.172H50.21v2.172Zm0 .2h9.15v3.265h-3.4v-2.745h-.64v2.745h-.786v-2.745h-.639v2.745h-.787v-2.745h-.638v2.745h-.787v-2.745h-.639v2.745h-.834v-3.265ZM38.86 61.43h2.36v-2.089h-2.36v2.089Zm23.965.991h.768v-1.174h-.768v1.174Zm1.644-11.69v-2.31l-.47-.308-.47.309v2.31h.94Zm-1.367 5.064h1.794V51.44h-1.794v4.356Zm-1.364 2.31h4.522V56.56h-4.522v1.548ZM64 59.145c.223 0 .406.188.406.418v.124h.773v-.124c0-.23.183-.418.407-.418.223 0 .405.188.405.418v.124h.774v-.124c0-.23.183-.418.406-.418.223 0 .406.188.406.418v.124h.774v-.124c0-.23.182-.418.406-.418.223 0 .405.188.405.418v.124h.774v-.124c0-.23.183-.418.406-.418.223 0 .406.188.406.418v.124h.774v-.124c0-.23.182-.418.405-.418.224 0 .407.188.407.418v.124h.773v-.124c0-.23.183-.418.406-.418.223 0 .406.188.406.418v.124h.774v-.124c0-.23.182-.418.405-.418.224 0 .406.188.406.418v.124h.774v-.124c0-.23.183-.418.406-.418.223 0 .406.188.406.418v.124h.697v-.975H50.214v.975h.696v-.124c0-.23.183-.418.406-.418.224 0 .406.188.406.418v.124h.774v-.124c0-.23.182-.418.406-.418.223 0 .405.188.405.418v.124h.774v-.124c0-.23.183-.418.406-.418.224 0 .406.188.406.418v.124h.774v-.124c0-.23.182-.418.406-.418.223 0 .405.188.405.418v.124h.774v-.124c0-.23.183-.418.406-.418.224 0 .406.188.406.418v.124h.774v-.124c0-.23.183-.418.405-.418.224 0 .407.188.407.418v.124h.773v-.124c0-.23.183-.418.406-.418.223 0 .406.188.406.418v.124h.774v-.124c0-.23.182-.418.406-.418.223 0 .406.188.406.418v.124h.773v-.124c0-.23.183-.418.406-.418Zm13.787 1.896v-1.164h-.697v.826h-.812v-.826h-.774v.826h-.811v-.826h-.774v.826h-.812v-.826h-.773v.826h-.812v-.826h-.774v.826h-.812v-.826h-.774v.826h-.811v-.826h-.774v.826h-.812v-.826h-.774v.826h-.811v-.826h-.774v.826h-.812v-.826h-.773v.826h-.812v-.826h-.774v.826h-.812v-.826h-.773v.826h-.812v-.826h-.774v.826h-.812v-.826h-.774v.826h-.811v-.826h-.774v.826h-.812v-.826h-.774v.826h-.811v-.826h-.774v.826h-.812v-.826h-.696v1.164h27.573Zm-11.088 2.105 1.942 1.395v.933h3.602v-2.172h-4.651v-.65h-7.184v.65h-4.65v2.172h3.601v-.933l1.942-1.395H66.7Zm-1.847 1.181c.745 0 1.354.647 1.354 1.436v3.176h.694v-4.385l-.559-.578H61.66l-.56.578v4.385h.695v-3.176c0-.79.61-1.436 1.354-1.436h1.704Zm.352 1.465v3.147h.465v-3.391a.812.812 0 0 0-.798-.822h-1.742a.812.812 0 0 0-.797.822v3.391h.464v-3.147h2.408Zm-.438 3.147v-2.274c0-.08-.123-.146-.274-.146h-.984c-.15 0-.273.066-.273.146v2.274h1.53Zm-4.34 2.79h7.148v-.631h-7.148v.632Zm-1.172.948h9.492v-.632h-9.492v.632Zm2.461-1.889h4.57v-.632h-4.57v.632ZM28.115 65.3c.709 0 1.338-.551 1.338-1.26 0-.71-.63-1.34-1.338-1.34-.71 0-1.34.63-1.34 1.34 0 .709.63 1.26 1.34 1.26ZM99.806 65.3c.71 0 1.261-.551 1.261-1.26 0-.71-.551-1.34-1.261-1.34-.709 0-1.339.63-1.339 1.34 0 .709.63 1.26 1.339 1.26ZM56.026 80.645v-.975a6.3 6.3 0 0 0 1.296-.716h1.044v4.901h-1.12v-3.84a5.813 5.813 0 0 1-1.22.63Zm3.797 2.005h1.132c.065.392.249.593.55.603.59-.002.85-.525.774-1.567-.14.116-.286.195-.437.238a1.853 1.853 0 0 1-.567.067c-.93-.088-1.444-.579-1.543-1.474.073-1.038.687-1.595 1.842-1.67 1.243-.003 1.864.724 1.863 2.181.072 1.984-.567 2.96-1.918 2.927-1.116.012-1.681-.422-1.696-1.305Zm1.063-2.203c.01.552.25.83.724.838.432-.01.655-.289.67-.837-.023-.58-.245-.877-.67-.893-.466.014-.707.312-.724.892Zm5.7.963c.004-1.216-.218-1.834-.666-1.855-.449.021-.67.639-.663 1.855-.007 1.21.214 1.825.662 1.843.449-.018.671-.633.666-1.843Zm1.153 0c-.032 1.674-.646 2.522-1.842 2.545-1.164-.026-1.762-.873-1.793-2.545.033-1.682.632-2.536 1.793-2.564 1.194.025 1.808.88 1.842 2.564Zm.616 1.24h1.132c.065.392.249.593.55.603.59-.002.849-.525.774-1.567-.14.116-.286.195-.437.238a1.855 1.855 0 0 1-.567.067c-.93-.088-1.444-.579-1.543-1.474.073-1.038.687-1.595 1.842-1.67 1.243-.003 1.864.724 1.863 2.181.072 1.984-.568 2.96-1.918 2.927-1.116.012-1.681-.422-1.696-1.305Zm1.063-2.203c.01.552.25.83.724.838.432-.01.655-.289.67-.837-.023-.58-.245-.877-.67-.893-.466.014-.707.312-.724.892ZM48.237 30.873c-.025-.048.123-.08.22-.124a.858.858 0 0 1 .143-.056c.079-.006.104-.009.275.049.17.057.285.103.37.057.084-.046.17-.088.187-.12.016-.033.02-.115.038-.198.017-.083.06-.157.054-.26-.004-.104-.018-.19-.004-.24.014-.05.11-.306.168-.352.06-.047.378-.22.779-.27 0 0 .136.024.168.12.034.097.145.376.17.414.024.039.046.072.139.085.093.012.202.005.272-.153.07-.157.179-.377.222-.497.044-.12.075-.266.09-.367.016-.1.002-.275.055-.362a.413.413 0 0 1 .296-.22c.18-.041.295-.064.377-.077a.55.55 0 0 1 .178.01s.083.043.116.14c.033.096.058.203.083.229.024.026.247.208.46.09 0 0 .092-.043.115-.073.024-.03.074-.122.112-.308.037-.186.038-.305.07-.438.03-.133.063-.423.146-.593.082-.17.142-.229.192-.308.05-.08.204-.27.324-.321.285-.119.471-.014.777.047.131.027.241.075.278.114.037.039.059.072.043.105-.016.032-.026.424-.141.67 0 0-.014.132-.005.19.009.059.067.156.067.237 0 .081.048.221.103.326.01.02-.007.059.003.12a.918.918 0 0 0 .112.279c.053.091.108.222.16.311.026.043.076.065.105.11.037.057.052.138.069.201 0 0 .01.062.007.115-.004.068-.029.14-.02.204.013.079-.001.142.054.205.025.029.113.048.16.088.156.135.432.558.431.758 0 .141-.205.34-.242.443-.037.104-.154.493-.255.564-.101.072-.32.126-.4.09a.966.966 0 0 1-.193-.154l-.227-.065-.195.054s-.027-.085 0-.158c.026-.074.034-.188.028-.357-.005-.169-.147-.628-.255-.86 0 0-.033-.303-.096-.518-.064-.214-.245-.521-.266-.696-.02-.173-.005-.377-.008-.436-.004-.06-.015-.397-.1-.553-.086-.156-.17-.178-.234-.16-.065.018-.103.146-.13.245-.028.098-.163.358-.074.732 0 0 .035.18.114.191.08.012.192.07.22.13.029.06.102.295.105.355.004.06-.002.282-.073.34-.07.058-.194.054-.332.021-.139-.033-.25.043-.327-.043-.077-.086-.206-.1-.25-.274-.046-.175-.046-.175-.053-.294a.562.562 0 0 0-.14-.301c-.05-.05-.12-.018-.12-.018s0 .258-.043.326c-.04.069.003.293.033.462.031.17.028.294.034.438.006.144.162.45.21.526.047.075.337.588.287.795-.05.207-.06.396-.117.533-.059.137-.448.246-.448.246s-.226-.065-.33-.31c-.102-.246-.246-.448-.267-.598-.02-.148-.058-.437-.075-.577a4.382 4.382 0 0 1-.01-.57c.009-.139.048-.34.036-.445-.012-.105-.037-.314-.131-.282 0 0-.106.062-.137.285-.03.222-.064.385-.052.49.012.104-.127.328-.276.325 0 0-.159 0-.244.053-.086.052-.041.252-.024.341.018.09.281.86.295 1.099.014.238-.175 1.037-.314 1.212 0 0-.243.212-.37.308-.126.096-.258.023-.258.023s-.363-.148-.442-.184c-.078-.037-.104-.172-.2-.274-.098-.101-.066-.165-.015-.238.052-.073.255-.266.255-.266s.309-.647.263-.98c-.046-.334-.023-.834-.143-1.01-.12-.177-.23-.41-.37-.393a.386.386 0 0 0-.25.108c-.028.03-.06.06-.079.107-.004.009-.008.018-.008.028.004.091-.063.18-.063.18s.03.157.023.246c-.008.09.058.291.14.412.058.087.133.226.12.327-.006.04-.062.073-.082.096-.22.254-.194.612-.6.366-.136-.083-.299-.117-.299-.117s-.082-.035-.23-.283c-.271-.453.043-.261-.006-.512-.013-.069.006-.197-.03-.294a.256.256 0 0 0-.1-.11c-.074-.027-.164-.038-.198-.104ZM89.62 43.81c.127.01.406.026.616.046.21.02.465.073.685.304 0 0-.143.283-.177.402-.033.12-.06.278-.39.502-.33.225-.305.173-.305.173s-.136.012-.484-.216-.458-.329-.635-.469c-.177-.14-.315-.347-.315-.347-.044.23.013.175.088.387.035.098.296.467.368.589.073.122.1.244.111.38.011.135.001.512.146.726 0 0 .287.287.414.298.128.01.422-.02.422-.02s.633.017.898-.322c.265-.34.26-.423.402-.69.143-.267.303-.633.522-.665 0 0 .269.053.383.05.114-.004.275-.013.328-.049a.476.476 0 0 0 .152-.188c.032-.092-.018-.129-.037-.174-.047-.113.075-.179.154-.358 0 0-.067-.213-.177-.328-.11-.116-.19-.216-.496-.292-.307-.076-.596-.257-1.058-.434-.463-.178-1.053-.367-1.327-.533 0 0-.33-.069-.529-.217-.205-.153-.273-.479-.562-.391-.068.02-.055.096-.055.096s-.047.353.008.55c.102.367-.073.798.343.996.194.05.379.183.507.194Zm4.928-4.924s-.585.65-.745.803c-.16.152-.777.769-.853.857-.077.089-.156.293-.25.43s-.135.21-.13.268c.004.059.112.069.326.074.104.003.19.059.243.064.023.002.036-.008.06 0l.243.066.265.046c.104.02.218.035.283.031.062-.004.08.011.138.067.164.16.191.473.191.473.002.042-.065.094 0 .146.043.034.117-.062.206-.05.06.007.126.09.2.16.146.142.133.212.13.355a.34.34 0 0 1-.07.209c-.065.076-.154.072-.24.084-.095.012-.187.035-.237.025a1.201 1.201 0 0 1-.36-.126c-.028-.018-.112-.09-.222-.162a7.076 7.076 0 0 0-.515-.295c-.123-.065-.265-.105-.367-.152-.385-.177-1.111-.648-1.253-.716-.14-.067-.555-.324-.555-.324-.182-.013-.279.326-.297.42-.019.096-.022.223-.032.294-.01.071.09.209.09.209s.57.372.696.44c.125.066.827.267.827.267.2-.008.365-.016.514.022.284.073.467.24.55.253.127.02.572.03.572.03s.19.022.23.063c.038.04.067.152.073.224.006.071-.18.186-.291.183-.112-.003-.497-.125-.497-.125s-.22-.069-.19-.02c.03.048.464.603.51.652.144.152.15.176.443.246.269.055.287-.024.37-.133.081-.109.246-.637.242-.756-.01-.21-.035-.293.088-.347 0 0 .202.164.249.213.147.155.319.05.4-.1.144-.272-.084-.434.22-.468.036-.004.033.003.067.02a.45.45 0 0 0 .28.033c.215-.034 1.115-.13 1.186-.12.072.01.35.01.398-.02.049-.032.158-.227.153-.378-.008-.322.15-.253-.073-.415a.456.456 0 0 0-.188-.086 4.87 4.87 0 0 1-.256-.077c-.18-.06-.41-.182-.487-.203-.403-.114-.282-.321-.082-.51.148-.141.207-.122.104-.332l-.119-.165c-.007-.01-.012-.02-.01-.029 0-.008.013-.025.022-.04a.698.698 0 0 1 .165-.162c.069-.049.195-.139.28-.232a.707.707 0 0 0 .112-.17s.012-.135-.025-.24c-.037-.104-.049-.263-.07-.367-.009-.045-.007-.085-.013-.12-.004-.02-.022-.056-.026-.074-.022-.104-.056-.105-.121-.037-.017.018-.026.051-.05.075-.075.07-.196.216-.299.24-.043.01-.152.085-.247.122-.112.045-.22.023-.275.045a.437.437 0 0 1-.278-.031c-.054-.027-.171-.156-.257-.225-.036-.029-.075-.06-.096-.053-.013.003-.01.03-.022.052l.009.118c.021.095.031.162.044.223.01.048.03.087-.002.161-.034.08-.274.137-.444.22-.169.083-.658.105-.658.105.06.111.256.056.37.054.181-.003.22.032.307.074.087.042.33.118.448.129.12.01.2.08.2.08.114.199-.098.304-.098.304s-.15.076-.39.123c-.238.048-.648.231-.742.197-.094-.034-.193-.34-.193-.34s-.086-.2-.12-.179c-.177.112-.08.078-.097.206-.01.071-.001.357-.001.357-.05.063-.393.15-.49.164-.066.01-.309.02-.459-.002-.034-.005-.08-.019-.07-.064.018-.071.022-.133.047-.165s.078-.087.127-.165c.028-.046.083-.123.106-.181.061-.155.541-.815.635-.936.065-.082.273-.275.374-.41.046-.062.022-.126.036-.138.042-.04.07-.195.07-.195l.011-.09-.048-.051Zm1.47 2.444.486.543c.066.085.045.168-.03.248a1.5 1.5 0 0 1-.432.285c-.1.045-.195.111-.3.104a.645.645 0 0 1-.288-.123c-.02-.014-.349-.031-.356-.117-.004-.052.029-.247.032-.326-.008-.07-.043-.275-.043-.374 0-.017-.042-.118-.009-.14.033-.024.549-.078.815-.124.105-.019.1.007.125.024Zm-3.014-2.36c.005.127-.013.535-.005.592.01.064.129.145.05.226l-.159.166a9.5 9.5 0 0 1-.348.35c-.045.04-.127.143-.248.246-.118.1-.272.2-.392.265-.07.038-.112.082-.1-.04a.22.22 0 0 1 .018-.066c.045-.101.058-.172.14-.265.082-.092.134-.24.198-.352.063-.111.239-.261.306-.362.067-.1.08-.179.145-.298.037-.071.154-.237.253-.36.05-.063.1-.117.124-.134.022-.016.017.018.018.032ZM32.82 44.869s-.075.255.072.55c.053.107.217.214.292.361.087.17.107.345.248.574.008.013.063.06.118.15.03.047.023.117.065.174.029.039.106.064.132.1.042.06.04.122.081.166.078.083.195.119.266.075.079-.049.242-.116.475-.13.105-.007.387-.23.31-.329-.056-.07-.123-.163-.286-.276-.162-.111-.65-.323-.932-.583-.283-.261-.492-.492-.613-.586-.122-.094-.227-.246-.227-.246Zm3.23-2.104c.014-.045.08-.017.18-.036.063-.013.129-.05.18-.055.057-.005.121.043.24.045.421.008.66-.007.965.133 0 0 .228.122.276.31.048.189.012.228.002.28-.01.052-.307.38-.307.38s-.202-.09-.294-.161c-.09-.07-.635-.401-.694-.435-.023-.014-.16-.03-.256-.096a2.243 2.243 0 0 1-.296-.235l-.018-.063.022-.067Zm-4.107-.402c.023-.1.017-.182.02-.27a1.04 1.04 0 0 0-.026-.268c-.012-.054-.059-.125-.073-.194-.066-.317-.107-.776-.207-1.297-.018-.09-.065-.16-.095-.246-.027-.078-.038-.174-.055-.244-.074-.309-.044-.47-.09-.684-.06-.282-.124-.574-.133-.644-.019-.15-.02-.276-.053-.373-.032-.097-.008-.185.024-.215.031-.029.147.007.147.007s.26-.023.354.005c.095.029.157.122.223.164a.592.592 0 0 0 .303.084c.104-.007.193-.088.258-.115 0 0 .13-.15.183-.02.053.129.031.169.014.205-.03.064-.044.11-.07.15-.02.03-.063.074-.087.12-.104.193-.397.685-.446 1.255-.011.131-.014.28-.022.429-.006.123-.02.244-.014.368.008.164-.024.324.002.479.011.065.038.13.04.188.003.075-.02.143-.017.214.005.086.012.158.01.238-.004.09-.022.195-.035.29-.013.087-.033.173-.043.256-.004.038 0 .075-.004.113-.016.08-.01.116.077.14.045.013.053.017.088-.015.067-.06.19-.349.256-.762.067-.412.126-.761.126-.761s.03-.367.03-.47c-.002-.102.05-.09.05-.09s.118-.023.136.02c.016.043.05.079.05.079s.157.03.259-.022c.06-.03.05-.155.06-.235.015-.11-.005-.49.02-.663.013-.1.051-.252.119-.395.05-.104.123-.2.17-.292.108-.219.149-.388.215-.539.058-.133.119-.317.272-.273 0 0 .143.05.162.104a.503.503 0 0 0 .13.223c.07.054.29.447.44.593.15.146 1.456 1.384 1.784 1.596.328.213.53.4.603.467.074.067.782.574.815.6.032.025 1.308.95 1.44 1.063.133.113.494.378.542.425.03.03.309.24.358.298.056.066.046.16.019.221a1.514 1.514 0 0 0-.128.352c-.001.033-.105.208-.16.276a.18.18 0 0 1-.147.066.637.637 0 0 1-.226-.052c-.048-.021-.13-.034-.225-.058-.124-.03-.278-.071-.479-.085a58.66 58.66 0 0 1-.698-.053c-.03-.002-.035-.006-.06-.025-.058-.04-.179-.115-.16-.148.01-.019.091-.125.177-.236.068-.085.126-.178.179-.218.017-.014.105-.022.214-.04.1-.017.179-.048.217-.105.032-.046.123-.07.142-.165.018-.093-.067-.108-.114-.145-.033-.025-.953-.865-1.223-1.064-.18-.132-.721-.509-1.135-.82a4.872 4.872 0 0 1-.467-.383c-.241-.25-.727-.654-.818-.756-.09-.102-.665-.621-.78-.774-.115-.152-.196-.25-.226-.294-.065-.097-.164-.13-.172-.053a.378.378 0 0 1-.126.235c-.099.094-.229.101-.274.146-.09.09-.207.525-.204.602.004.077.1.448.06.555-.041.106-.11.319-.193.37 0 0-.072-.002-.15-.01-.08-.008-.19.012-.258.098-.066.087-.05.395-.034.483a.468.468 0 0 0 .062.154s.17-.166.227-.238c.28-.364.246-.33.65-.155 0 0 .157-.217.188-.31.03-.094.146-.025.146-.025s.08.073.1.13c.02.058.11.447.118.602.008.154.08.252.14.299.06.046.121.062.19-.012.068-.075.097-.222.364-.1 0 0 .15.052.15.106.002.054.014.243.01.304-.005.06.147.687.345 1.02 0 0 .014.16.49.38.477.221.601.307.644.36.043.055.371.193.334.79 0 0 .01.273-.358.242 0 0-.21-.003-.424-.179a3.18 3.18 0 0 0-.237-.188c-.036-.023-.034-.012-.058.025-.032.047-.078.132-.056.178.033.067.132.187.182.258.052.071.126.33.103.43-.014.061-.043.099-.104.114a.354.354 0 0 1-.145.001c-.06-.01-.131-.002-.18-.02-.083-.028-.126-.093-.127-.187 0 0-.04-.168-.058-.363-.018-.195-.025-.337-.039-.401-.014-.065-.02-.166-.064-.22-.042-.054-.346-.279-.405-.325 0 0-.093-.018-.127.04-.035.058-.062.122.007.197.07.074.119.134.083.18-.036.047-.248.211-.38.12-.131-.09-.253-.206-.268-.366 0 0 .058-.253.04-.49-.018-.236-.066-.38-.147-.453-.081-.074-.08-.104-.08-.104s-.07.2-.075.345c-.006.144.024.38-.006.473-.03.093-.031.177-.082.201-.05.025-.086.071-.331.072-.246.002-.351.11-.523.073-.173-.038-.143-.131-.143-.227s.183-.346.207-.487c.024-.14.111-.444.138-.657.026-.213.064-.576.076-.673.011-.098-.026-.159-.026-.159l-.271-.252s-.077.015-.186.143c-.109.127-.164.075-.344.582 0 0-.083.244-.18.37-.098.126-.126.094-.177.16a1.88 1.88 0 0 1-.212.218c-.065.056-.473.113-.506.102-.032-.01.138-.216.205-.356.068-.14.141-.285.154-.355a.386.386 0 0 0 .008-.086c-.001-.044-.005-.078.005-.113a.146.146 0 0 1 .034-.07c.024-.028.043-.035.058-.104Zm-1.909.662c.043-.124.123-.176.18-.36.036-.11.04-.19.07-.307.033-.136.087-.261.074-.377 0 0-.006-.067.002-.159.007-.071.038-.158-.006-.241-.03-.056-.1-.081-.2-.129l-.02-.009c-.03-.013-.07-.01-.093-.032-.104-.098-.292-.14-.36-.248-.046-.075-.026-.156.014-.228.024-.043.023-.095.11-.106.067-.009.313.02.384.006.071-.014.186-.072.24-.09.053-.018.278-.072.376.029.028.028.115.08.157.095.042.015.05-.032.073-.03.045.006.144.015.209.035.064.02.181-.01.193.128.009.095-.082.14-.063.206.01.03.046.057.073.127.038.102.12.273.092.364-.034.11-.184.133-.223.19-.07.104-.049.27-.056.433-.007.164-.056.523-.027.575.03.053.017.172.003.241-.013.069-.089.12-.195.127-.075.006-.213-.016-.329-.023-.045-.003-.092-.02-.123-.008-.112.042-.262.018-.323.02-.04.002-.133.045-.188.035-.075-.013-.073-.177-.044-.264ZM78.251 32.44s.198.093.242.169c.03.05.189.48.218.553.03.076.195.134.283.313.062.127.06.297.095.454.027.123.092.243.114.3.085.221.133.831-.029.904-.06.028-.189-.046-.278-.029-.15.027-.363.05-.472.06-.176.015-.285.134-.426.099-.141-.035-.198-.085-.174-.231.024-.146.277-.792.308-1.104.066-.666.139-1.194.12-1.487Zm-4.679-2.726c.095.05.209.181.344.203.136.023 1.25.215 1.748.188.497-.028.676-.006.794-.027.119-.022.389.028.567-.216.178-.244.541-.775.657-1.016.117-.24.246-.597.294-.734.047-.138.096-.42.02-.635 0 0-.024-.228.076-.319.1-.09.289-.106.335-.158a.13.13 0 0 1 .11-.039c.025.003.058.023.068.03.02.012.033.04.037.05.023.053.127.305.222.466.104.179.382.66.408.768.026.108.056.291-.05.452 0 0-.114.12-.178.214-.064.093-.029.266-.142.303-.112.036-.36.184-.433.298-.073.113-.13.247-.151.322-.021.077-.04.178-.04.178s.061.026.165.01c.104-.015.314.003.423-.023.054-.013.233.002.392-.038.096-.024.161-.101.25-.121.062-.014.127.001.171-.011.062-.018.12-.018.157-.03.049-.016.071-.045.103-.069.053-.04.05-.096.04-.15a.413.413 0 0 0-.032-.107c-.015-.033-.022-.082-.043-.124-.008-.015-.01-.024-.004-.035l.011-.023c.01-.015.028-.017.042-.006.038.03.158.123.2.195.049.085.208.289.234.38.025.09-.032.152-.096.16-.046.007-.227.021-.404.049-.074.01-.162.018-.206.038-.08.036-.205.064-.321.146-.103.073-.175.184-.29.214-.246.064-.614.058-.731.105-.117.046-.347.129-.476.231-.13.102-.201.24-.28.255-.08.014-.28.17-.347.214-.068.043-.222.317-.359.464a3.025 3.025 0 0 0-.368.544c-.036.082-.158.222-.257.337a.844.844 0 0 1-.627.3s-.258-.004-.41.04c-.152.043-.306.076-.429.107-.123.032-.359.1-.906-.064-.548-.164-.656-.223-.954-.29-.261-.06-.728-.181-.84-.21-.044-.012.004-.121.069-.107.05.01.147.028.261.035.165.01.623-.094.995-.14.371-.046.783-.099 1.036-.207.253-.11.894-.245 1.127-.362.233-.118.58-.527.624-.629 0 0-.004-.16-.143-.147-.139.013-.703.11-.887.115-.184.005-.305-.023-.636.04-.33.063-.555.16-.723.015-.167-.145-.247-.325-.37-.573-.069-.135-.181-.386-.201-.581-.006-.062.035-.1.091-.148.057-.049.168-.177.263-.127Z"/></g><defs><filter id="a" x="-13" y="0" width="154" height="157" filterUnits="userSpaceOnUse" color-interpolation-filters="sRGB"><feFlood flood-opacity="0" result="BackgroundImageFix"/><feColorMatrix in="SourceAlpha" values="0 0 0 0 0 0 0 0 0 0 0 0 0 0 0 0 0 0 127 0" result="hardAlpha"/><feOffset dy="16"/><feGaussianBlur stdDeviation="6.5"/><feColorMatrix values="0 0 0 0 0 0 0 0 0 0 0 0 0 0 0 0 0 0 0.03 0"/><feBlend in2="BackgroundImageFix" result="effect1_dropShadow_49_8934"/><feBlend in="SourceGraphic" in2="effect1_dropShadow_49_8934" result="shape"/></filter></defs></svg>