<svg width="128" height="128" fill="none" xmlns="http://www.w3.org/2000/svg"><g filter="url(#a)" fill-rule="evenodd" clip-rule="evenodd" fill="#144E8C"><path d="M29.535 68.229h.514v-.15h-.514v.15Zm.006-1.292v1.085l.401.006.013-.013.007-.018.006-.038.006-.044.006-.044v-.044l-.006-.037-.006-.032-.032-.056-.044-.05-.037-.031-.013-.02.013-.037.019-.113-.007-.044-.006-.043-.019-.044-.025-.038-.031-.031-.025-.032-.038-.025-.031-.025v-.025l-.019-.075-.013-.025-.018-.025-.02-.026-.024-.018-.038-.025-.019-.013Zm-.025-1.404h.113v-.144h-.113v.144Zm.013.539h.1v-.144h-.1v.144Zm-.006-.709v-.062h.024v-.025l.007-.05.012-.044.013-.019.019-.019.025-.019.025-.012.044-.025.038-.025.005-.032-.005-.018h.005l.007-.007h.019l.012.007.007.006.012.006.013.025v.056l-.007.02-.025.037-.018.013-.013.018-.019.025-.012.032-.013.044-.019.037-.012.013-.02.012-.018.006h-.106Zm-.515-.062v.05l-.031.006-.05-.006-.025-.006-.032-.013-.03-.012-.026-.02-.012-.018-.013-.012-.006-.013v-.031l.006-.013.013-.013.018-.012.02-.012v-.032l.012-.019.025-.019.019-.006h.056l.019.006v.189l.037.006Zm-.006 1.047.006-.245h-.257l.007.007.006.018.012.026.02.025.024.019.02.018.05.038.05.025.043.044.02.025Zm-.777 0v-.245h.257l-.007.007-.006.018-.012.026-.019.025-.025.019-.019.018-.05.038-.05.025-.044.037-.025.032Zm0-.276h.783v-.144h-.783v.144Zm0-.182h.783v-.307h-.783v.307Zm-.57-.69v-.056h-.02l-.006-.025v-.05l-.019-.044-.075-.063-.069-.05.007-.031.006-.019-.013-.006h-.012l-.02.006-.012.006-.019.007-.012.012-.012.019-.007.012v.02l.038.08.056.076.013.044.018.038.02.012.012.012.025.007h.025l.075-.007Zm.294-.946h.025l.013.012.018.013.013.019.025.044.012.037.013.057v.025l.019.019.025.018.019.025.012.026.006.025.007.031-.007.019-.012.025-.019.019-.006.018v.007l-.013.006h-.012l-.144-.006h-.17v-.007l-.006-.006v-.012l-.019-.026-.012-.018-.006-.025v-.025l.012-.025.013-.032.018-.025.02-.019.024-.012v-.032l.013-.056.012-.038.025-.037.013-.019.012-.019.02-.006.018-.006h.019v.006Zm-.972 1.83h-.263v.258h.019l.025-.013.012-.025.019-.044.013-.019.025-.012.031-.013.031-.025.032-.019.025-.025.019-.025.018-.019v-.012l-.006-.006Zm1.248-.551h.783v-.144h-.783v.144Zm0-.17h.088v-.125h-.088v.125Zm0-.163-.007-.056h.026l.006-.025v-.05l.012-.044.082-.063.069-.05-.006-.031-.013-.019h.006l.013-.006h.012l.02.006.012.006.018.007.013.012.013.019.006.012v.02l-.044.08-.05.076-.013.044-.018.038-.02.012-.018.012-.019.007H28.3l-.075-.007Zm1.015-.67h.032l.018.006.026.013.018.025.007.018.025.044.012.05.006.032.013.012.019.013.012.019.007.012.006.019v.019l-.006.025-.031.031-.007.013v.006l.007.006.006.013.006.012v.02l-.006.006h-.308l-.006-.007v-.019l.013-.025.006-.006-.006-.006v-.013l-.013-.012-.019-.019-.006-.025v-.038l.012-.012.013-.02.013-.012.019-.012.006-.032.012-.05.02-.044.012-.018.019-.025.025-.013.018-.006Zm-.207.451-.018.007-.007.012v.238l.007.013.018.006h.452l.019-.006.006-.013V65l-.006-.013-.02-.006h-.45Zm.026.32v.156l.012.007v2.746h.401V65.3h-.413Zm-1.373-.564-.006.006h-.007l-.006.013v.32l.006.006.007.006.006.006h.514l.006-.006.006-.006.006-.007v-.32l-.006-.012h-.006l-.006-.006h-.514Zm.037 3.485h.426V65.17h-.426v3.053Zm-.338-2.137h.263v.257h-.019l-.025-.013-.012-.025-.02-.044-.012-.019-.025-.012-.031-.013-.031-.025-.032-.019-.025-.025-.019-.025-.018-.019v-.012l.006-.006Zm-.671-.07h.934v-.137h-.934v.137Zm0-.181h.934v-.414h-.934v.414Zm0-.464h.934v-.144h-.934v.144Zm0-.176h.138v-.175h-.138v.175Zm.019-.413h.019l.03-.02.032-.03.025-.032.038-.019.05-.006.019-.006.019-.013.012-.013.006-.012-.006-.019-.012-.019.012.007.006-.007.013-.006.025-.006.025.012.02.026.018.018v.026l-.007.024-.025.038-.03.031-.039.032-.018.019-.013.037-.019.05-.012.025-.019.026-.025.012-.025.007h-.12v-.182Zm-.314-.99.025.005.02.007.018.018.013.02.03.037.02.044.012.069v.03l.025.02.025.019.02.025.012.025.006.025v.031l-.006.025-.013.025-.012.038v.031l-.007.006-.006.007h-.389l-.006-.007-.006-.006v-.031l-.012-.038-.013-.025-.007-.025v-.031l.007-.025.012-.025.02-.025.018-.02.031-.018v-.031l.013-.07.019-.043.025-.038.018-.019.02-.018.018-.007.025-.006h.025Zm-.294.55h.564l.012.007.007.006.006.007v.35l-.006.013h-.006l-.013.006h-.564l-.007-.006h-.012v-.012l-.007-.007v-.338l.007-.006v-.007l.012-.006.007-.006Zm.05 3.875h.463v-3.43h-.463v3.43Zm-.076-3.241v-.176l-.006-.006-.025-.025-.044-.056-.044-.05-.025-.02-.031-.006-.031.007-.038.012-.038.057-.03.069v.043l.005.025.013.026.018.018.02.025.024.02.07.018.075.013.062.006h.025Zm-.326 1.047.314.006v.288h-.019l-.038-.018-.018-.02-.013-.018-.006-.019-.006-.019v-.018l-.007-.013-.018-.006-.044-.013-.031-.012-.026-.019-.025-.025-.019-.025-.03-.044-.014-.025Zm-5.266 2.207h.514v-.15h-.514v.15Zm.508-1.292v1.085l-.395.006-.012-.013-.013-.018-.006-.038-.006-.044v-.125l.012-.032.032-.056.037-.05.038-.031.012-.02-.012-.037-.02-.113.007-.044.013-.043.012-.044.025-.038.032-.031.031-.032.031-.025.032-.025v-.025l.019-.075.012-.025.019-.025.019-.026.025-.018.044-.025.012-.013Zm-.088-1.404h.12v-.144h-.12v.144Zm0 .539h.1v-.144h-.1v.144Zm.107-.709v-.062h-.019l-.006-.025-.006-.05-.013-.044-.012-.019-.02-.019-.024-.019-.02-.012-.05-.025-.037-.025-.006-.032.006-.018h-.006l-.007-.007h-.018l-.006.007-.013.006-.013.006-.012.025v.056l.012.02.007.018.019.019.012.013.012.018.02.025.012.032.012.044.02.037.018.013.013.012.025.006h.1Zm.514-.062v.05l.031.006.05-.006.026-.006.031-.013.031-.012.025-.02.02-.018.006-.012.006-.013v-.031l-.006-.013-.013-.013-.019-.012-.019-.012v-.032l-.012-.019-.025-.019-.013-.006h-.063l-.018.006.006.189-.044.006Zm.006 1.047v-.245h.251v.007l-.012.018-.013.026-.019.025-.019.019-.025.018-.05.038-.05.025-.044.044-.019.025Zm.778 0v-.245h-.251v.007l.006.018.019.026.019.025.019.019.025.018.05.038.05.025.038.037.025.032Zm-.784-.276h.784v-.144h-.784v.144Zm0-.182h.784v-.307h-.784v.307Zm1.354-.69v-.056h.019l.006-.025.007-.05.012-.044.075-.063.07-.05-.007-.031-.006-.019.012-.006h.013l.019.006.018.006.013.007.013.012.012.019.006.012.007.02-.044.08-.057.076-.012.044-.02.038-.012.012-.018.012-.025.007h-.026l-.075-.007Zm-.288-.946h-.025l-.02.012-.018.013-.012.019-.02.044-.018.037-.013.057v.025l-.018.019-.025.018-.013.025-.019.026-.006.025-.006.031.006.019.013.025.018.019.007.018v.007h.006l.006.006h.013l.144-.006h.17l.005-.007v-.018l.02-.026.012-.018.006-.025v-.025l-.013-.025-.012-.032-.019-.025-.019-.019-.018-.012-.007-.032-.012-.056-.013-.038-.019-.037-.018-.019-.013-.019-.019-.006-.019-.006h-.012v.006Zm.965 1.83h.264l.006.251-.006.007h-.02l-.024-.013-.013-.025-.013-.044-.018-.019-.025-.012-.032-.013-.03-.025-.032-.019-.025-.025-.019-.025-.013-.019-.006-.012.006-.006Zm-2.031-.551h.784v-.144h-.784v.144Zm.696-.17h.088v-.125h-.088v.125Zm.088-.163.006-.056h-.025v-.025l-.006-.05-.013-.044-.082-.063-.062-.05v-.031l.012-.019h-.006l-.006-.006h-.019l-.019.006-.012.006-.02.007-.012.012-.012.019-.007.012v.02l.044.08.05.076.013.044.025.038.013.012.018.012.02.007h.024l.076-.007Zm-1.016-.67h-.031l-.019.006-.019.013-.025.025-.006.018-.019.044-.019.05v.032l-.019.012-.018.013-.013.019-.006.012-.006.019v.019l.012.025.012.019.013.012.006.013v.012l-.012.013-.006.012.006.02v.006h.307l.006-.007v-.019l-.012-.025v-.012l.012-.025.02-.019.005-.025v-.038l-.012-.012-.013-.02-.012-.012-.019-.012-.006-.032-.013-.05-.019-.044-.012-.018-.019-.025-.025-.013-.019-.006Zm.213.451.013.007.006.012v.238l-.006.013-.013.006h-.457l-.013-.006-.006-.013V65l.006-.013.013-.006h.457Zm-.031.32v.156l-.013.007v2.746h-.4V65.3h.413Zm1.373-.564.006.006h.006l.007.013v.32l-.013.012-.006.006h-.508l-.012-.006-.013-.013v-.32l.006-.012h.006l.013-.006h.508Zm-.464 3.485h.426V65.17h-.426v3.053Zm.771-2.137h-.27v.257h.026l.018-.013.013-.025.019-.044.012-.019.025-.012.032-.013.031-.025.031-.019.05-.05.013-.019.006-.012-.006-.006Zm-.27-.07h.94v-.137h-.94v.137Zm.007-.181h.928v-.414h-.928v.414Zm-.006-.464h.934v-.144h-.934v.144Zm.796-.176h.138v-.175h-.138v.175Zm.119-.413h-.02l-.03-.02-.025-.03-.032-.032-.037-.019-.044-.006-.025-.006-.019-.013-.013-.013-.006-.012.006-.019.013-.019-.006.007-.025-.013-.026-.006-.018.012-.025.026-.013.018-.006.013.006.013.006.024.019.038.031.031.038.032.019.019.012.037.02.05.012.025.018.026.026.012.025.007h.119v-.182Zm.313-.99-.018.005-.026.007-.018.018-.013.02-.025.037-.019.044-.019.069v.03l-.05.039-.013.025-.012.025-.012.025v.031l.006.025.018.025.013.038v.037l.006.007h.389l.013-.007v-.037l.012-.038.013-.025.006-.025v-.031l-.006-.025-.013-.025-.019-.025-.019-.02-.024-.018-.007-.031-.012-.07-.02-.043-.024-.038-.019-.019-.019-.018-.019-.007-.018-.006h-.032Zm.295.55h-.564l-.013.007-.006.006-.006.007v.35l.006.013h.006l.013.006h.564l.012-.006h.007l.006-.012v-.351l-.006-.007-.007-.006-.012-.006Zm-.514 3.875h.464v-3.43h-.464v3.43Zm.539-3.241v-.176l.013-.006.018-.025.044-.056.044-.05.025-.02.032-.006.03.007.038.012.038.057.032.069.006.006v.019l-.006.018-.007.025-.012.026-.02.018-.018.025-.025.02-.069.018-.075.013-.063.006h-.025Zm.326 1.047-.313.006v.288h.018l.038-.018.019-.02.012-.018.007-.019.006-.019v-.018l.006-.013.019-.006.044-.013.031-.012.025-.019.025-.025.025-.025.032-.044.006-.025Zm1.316-1.01h-1.642v.17h1.642v-.17Zm0 .81h-1.642v.169h1.642v-.17Zm0-.584h-1.642v.514h1.642v-.514Zm-6.206 3.04h10.883l-.871.897h-9.366l-.646-.896ZM24.513 60.687l-.043.025-.044.019-.032.025-.037.025-.057.056-.044.05-.044.044-.037.057-.038.069-.025.075-.019.013-.019.006-.037.006-.057.012-.068.013-.076.006h-.075l-.069-.006-.056-.019-.05-.018-.1-.063-.114-.088-.056-.032-.063-.037-.062-.025-.063-.032-.107-.037-.044-.013.025-.025.07-.062.075-.082.062-.075.044-.07.038-.068.019-.038.025-.031.031-.038.031-.031.038-.031.038-.025.037-.025.044-.026.05-.012.057-.019.069-.006.075-.007.081-.006.07.013.062.012.056.02.057.024.05.032.05.037.05.038.05.044.044.056.038.056.031.063.044.1.013.044.012.007Zm.126-.853.038.006.03.007.032.019.025.018.019.032.019.025.006.037.006.032-.006.037-.006.032-.019.03-.019.026-.025.025-.063.025h-.075l-.031-.012-.032-.013-.025-.025-.019-.025-.018-.031-.013-.032v-.069l.013-.037.018-.025.02-.032.024-.018.032-.02.031-.006.038-.006Zm1.36.853.019-.007.012-.043.044-.1.032-.063.037-.057.044-.056.05-.044.05-.038.05-.037.05-.032.05-.025.057-.019.138-.025.082.007.075.006.07.006.055.019.05.012.045.026.037.025.038.025.038.031.03.031.026.038.025.031.025.038.075.138.063.075.144.144.031.025-.044.013-.106.037-.063.032-.069.025-.063.038-.05.031-.119.088-.1.063-.05.018-.056.019-.063.006h-.082l-.069-.006-.069-.013-.056-.012-.044-.006-.013-.007-.018-.012-.032-.075-.031-.07-.044-.056-.037-.044-.05-.05-.057-.056-.032-.025-.037-.025-.088-.044Zm-.12-.853.032.006.038.007.025.019.025.018.025.032.013.025.012.037.007.032-.007.037-.012.032-.013.03-.025.026-.025.025-.025.013-.038.012h-.069l-.03-.012-.032-.013-.025-.025-.025-.025-.013-.031-.013-.032v-.069l.013-.037.013-.025.025-.032.025-.018.031-.02.031-.006.038-.006Zm-.62 2.15-.05-.05-.075-.069-.082-.075-.08-.069-.039-.018-.044-.02-.05-.012-.056-.019-.12-.025-.106-.031-.037-.007-.032-.018-.025-.019-.031-.019-.044-.05-.038-.056-.03-.057-.02-.056-.006-.057.006-.05.013-.044.018-.044.02-.037.018-.038.05-.063.025-.025.032-.025.031-.019.031-.018.032-.013.037-.013.07-.018h.075l.056.006.063.019.062.025.057.025.113.07.081.062.025.012.02.006h.055l.025-.006.02-.012.087-.063.107-.07.063-.024.062-.025.056-.019.057-.006h.075l.075.018.032.013.031.013.038.018.031.02.025.024.031.025.025.032.026.031.018.038.02.037.018.044.013.044.006.05-.025.113-.032.056-.037.057-.05.05-.025.019-.032.019-.031.018-.031.007-.113.031-.113.025-.056.019-.05.013-.044.019-.038.018-.082.07-.087.074-.07.07-.05.05Zm.038.39h-.075l-.038-.007-.038-.013-.037-.018-.07-.038-.062-.05-.056-.063-.05-.063-.038-.069-.031-.069-.038-.08-.012-.058.05.02.056.024.057.038.062.056.113.107.082.082.05.05.037.025.032-.025.056-.05.082-.082.106-.107.063-.056.063-.038.05-.025.05-.019-.013.057-.031.081-.031.07-.044.068-.05.063-.057.063-.063.05-.068.038-.032.018-.037.013-.038.006Zm-.038-2.646.032.006.037.006.032.019.025.019.019.031.018.025.007.038.006.031-.006.038-.007.031-.018.031-.02.025-.024.026-.032.012-.037.013-.032.006-.037-.006-.032-.013-.031-.013-.025-.025-.025-.025-.013-.031-.012-.031v-.07l.012-.037.013-.025.025-.031.025-.02.031-.018.032-.006.037-.006Zm-.113.501v.552l-.012-.006-.012-.013-.007-.038-.006-.05-.025-.081-.038-.088-.044-.1-.056-.088-.044-.07-.019-.024-.169.125.044.05.037.07.038.075.032.069.012.03.012.026-.043-.013-.044-.006-.044-.006h-.044l-.013-.038-.018-.05-.026-.069-.043-.081-.032-.057-.037-.056-.044-.057-.044-.05-.05-.05-.057-.044-.069-.044-.081-.037-.075-.032-.075-.019-.082-.012-.082-.006v-.007l.007-.106.012-.094.025-.088.038-.1.019-.057.025-.062.012-.063.006-.056.013-.113.013-.07h.012l.05.026.076.025.125.025.144.031.125.032.044.018.044.02.044.024.044.025.082.057.081.063.082.062.081.057.038.025.044.025.043.018.044.013.044-.013.044-.018.038-.025.044-.025.081-.057.075-.063.082-.062.081-.057.044-.025.044-.025.044-.019.05-.018.126-.032.138-.031.125-.025.075-.025.057-.025h.006l.012.069.019.113.006.056.013.063.019.062.025.057.037.1.026.088.012.094v.113l-.075.006-.082.012-.081.02-.07.03-.08.038-.07.044-.062.044-.05.05-.044.05-.038.057-.037.056-.038.056-.038.082-.031.069-.013.05-.012.038h-.044l-.044.006-.044.006-.044.013.007-.025.012-.032.032-.068.037-.076.044-.069.037-.05-.169-.125-.019.025-.043.069-.05.087-.05.1-.032.089-.025.081-.006.05-.007.038-.018.013-.013.006v-.552h-.22Zm-.645 1.574.025.075.031.075.032.075.037.075.044.076.1.138.057.056.044.044.05.038.044.031.056.025.05.025.063.019.056.013.07.006.062-.006.063-.013.056-.019.057-.025.05-.025.05-.031.044-.038.1-.1.056-.07.044-.068.045-.076.037-.075.038-.075.03-.075.026-.075.069-.025.069-.032.056-.037.057-.05.044-.057.037-.063.038-.075.025-.081v-.013l.006-.012v.012l.019.006.056.013.082.013.088.012h.087l.076-.012.069-.013.05-.007.037-.012.038-.012.038-.026.037-.025.076-.062.087-.063.107-.056.119-.057.119-.05.113-.044.05-.013.031-.018.026-.02.018-.018.013-.019.006-.019v-.03l-.006-.02-.013-.018-.018-.02-.026-.03-.075-.063-.1-.082-.056-.044-.05-.056-.044-.056-.038-.057-.038-.063-.037-.056-.044-.056-.05-.057-.07-.056-.075-.057-.081-.044-.057-.025-.062-.019-.076-.012v-.12l-.006-.08-.006-.057-.056-.15-.057-.151-.019-.075-.019-.088-.012-.1-.006-.1v-.076l-.007-.019-.006-.012-.006-.013-.013-.006-.03-.012-.045-.013h-.069l-.025.013-.056.025-.063.025-.07.025-.068.018-.082.013-.094.025-.093.025-.07.025-.087.038-.082.038-.075.043-.069.044-.144.1-.145.113h-.012l-.15-.112-.138-.1-.15-.088-.076-.038-.088-.038-.069-.025-.094-.025-.1-.025-.075-.013-.07-.018-.068-.025-.07-.025-.055-.025-.02-.013h-.068l-.044.013-.038.012-.012.006-.007.013-.006.012v.02l-.006.037.006.037-.006.1-.013.101-.019.088-.075.225-.056.15-.013.057-.006.082v.075l.006.044-.075.012-.063.02-.063.024-.075.044-.081.057-.07.056-.05.057-.037.056-.044.056-.037.063-.038.056-.088.113-.056.044-.1.082-.076.062-.031.032-.019.019-.012.018-.007.02v.03l.007.02.012.018.019.019.025.019.038.018.044.013.112.044.126.05.119.057.1.056.088.063.081.062.038.025.038.026.037.012.038.013.044.006.069.013.081.012h.082l.094-.012.081-.013.05-.013.026-.006.006.013.025.081.031.075.038.063.05.056.05.05.063.038.063.032.069.025h.006Z"/><path d="m25.29 52.957-.281.006-.565.025-.282.025-.551.076-.27.043-.27.05-.27.057-.269.069-.263.069-.257.081-.257.082-.257.088-.502.2-.244.107-.245.113-.238.119-.238.125-.464.264-.226.144-.22.144-.218.15-.214.157-.213.163-.207.17-.2.169-.201.175-.194.182-.188.182-.182.194-.182.188-.175.2-.17.202-.17.206-.162.214-.157.212-.15.22-.145.22-.144.225-.263.464-.125.238-.12.238-.112.245-.107.244-.106.251-.095.25-.175.515-.075.257-.07.263-.068.27-.056.27-.05.269-.045.27-.043.276-.032.275-.025.283-.025.564-.006.282v.006l.006.282.025.564.025.283.031.275.044.276.044.27.05.27.057.27.069.269.069.263.163.514.087.257.095.25.106.252.107.244.113.245.119.238.125.238.263.464.144.226.145.219.15.22.157.213.163.213.17.207.169.2.175.2.182.195.182.188.188.182.194.182.2.175.201.17.207.169.213.163.213.157.22.15.22.144.225.145.464.263.238.125.238.12.245.112.244.107.251.106.25.094.515.176.257.075.263.07.27.068.27.056.27.05.269.045.275.043.276.032.282.025.565.025.282.006.288-.006.564-.025.276-.025.282-.032.276-.043.27-.044.27-.05.269-.057.527-.138.263-.081.257-.082.257-.088.25-.094.251-.106.245-.107.245-.113.238-.119.238-.125.232-.132.226-.131.451-.289.22-.15.212-.157.207-.163.414-.339.195-.175.388-.364.182-.188.182-.194.175-.2.17-.201.169-.207.163-.213.15-.214.157-.219.144-.22.138-.225.138-.232.132-.232.125-.238.12-.238.112-.245.107-.244.2-.502.088-.257.082-.257.081-.257.069-.263.126-.54.05-.27.044-.269.037-.276.032-.275.025-.283.018-.282.013-.282.006-.282h-.006v-.006h.006l-.006-.282-.013-.282-.018-.282-.025-.283-.032-.275-.037-.276-.045-.27-.05-.27-.125-.539-.069-.263-.081-.257-.082-.257-.088-.257-.2-.502-.107-.244-.113-.245-.119-.238-.125-.238-.132-.232-.138-.232-.138-.226-.144-.219-.157-.22-.15-.212-.163-.214-.17-.206-.169-.201-.175-.2-.182-.189-.182-.194-.388-.364-.195-.175-.207-.17-.2-.169-.214-.163-.213-.157-.219-.15-.451-.288-.226-.132-.232-.132-.238-.125-.238-.12-.245-.112-.245-.107-.501-.2-.257-.088-.257-.082-.263-.081-.264-.07-.263-.068-.27-.057-.27-.05-.269-.043-.276-.044-.282-.032-.276-.025-.564-.025-.288-.006Zm.189 3.912h-.37l-.182.006-.182.013-.181.018-.182.02-.176.024-.35.063-.177.038-.169.044-.169.043-.17.05-.169.057-.162.057-.163.062-.157.063-.163.069-.314.15-.15.082-.15.088-.151.087-.144.088-.145.094-.413.3-.132.114-.131.106-.132.113-.126.12-.119.119-.238.25-.113.126-.106.131-.113.132-.2.276-.101.138-.094.144-.094.15-.088.144-.082.15-.081.158-.075.15-.075.157-.07.163-.062.157-.063.163-.063.169-.05.163-.05.169-.044.17-.044.175-.037.17-.038.175-.025.175-.025.182-.019.176-.018.181-.013.182-.006.182v.37l.006.182.012.181.02.182.018.182.05.351.076.351.043.17.044.169.1.338.063.163.063.163.063.157.069.163.075.157.075.157.081.15.082.15.088.15.188.29.3.413.114.132.106.131.113.132.12.12.118.125.157.156.163.144.17.145.169.138.181.138.176.125.376.238.194.113.195.107.2.094.207.094.207.088.207.08.213.076.22.063.144-.22-.213-.062-.207-.07-.213-.08-.201-.082-.207-.088-.194-.1-.195-.1-.194-.107-.188-.113-.182-.125-.175-.126-.176-.131-.17-.132-.169-.144-.163-.145-.269-.269-.113-.125-.107-.12-.106-.125-.107-.132-.2-.263-.094-.138-.088-.138-.088-.144-.087-.138-.082-.144-.15-.3-.138-.302-.063-.157-.056-.156-.057-.163-.056-.157-.044-.163-.05-.163-.038-.17-.038-.162-.031-.17-.025-.169-.025-.175-.019-.17-.019-.175-.012-.176-.007-.175v-.358l.007-.175.012-.176.019-.175.019-.17.025-.175.025-.17.031-.169.038-.163.044-.169.088-.326.056-.157.056-.163.057-.156.063-.157.137-.301.151-.301.082-.144.087-.138.088-.144.088-.138.094-.138.2-.264.107-.125.107-.132.106-.119.113-.125.113-.113.119-.119.125-.113.12-.106.125-.107.132-.106.131-.1.132-.095.276-.188.138-.088.288-.163.15-.081.15-.075.302-.138.156-.063.314-.113.163-.056.163-.044.163-.044.17-.044.162-.038.17-.03.169-.026.175-.025.17-.019.175-.019.175-.012.176-.006h.358l.175.006.175.012.176.02.17.018.169.025.175.025.17.032.162.037.17.044.163.044.163.044.156.056.164.057.156.056.15.063.158.069.15.069.15.075.145.081.15.082.138.081.144.088.138.094.138.094.132.094.131.1.25.214.127.106.119.113.119.12.119.112.113.125.106.12.107.131.106.125.1.132.095.132.188.276.088.144.081.138.082.15.081.145.075.15.138.3.063.158.056.156.057.163.05.157.05.163.044.163.044.17.037.162.032.17.025.169.025.176.019.169.019.175.018.527v.006l-.018.527-.02.175-.018.17-.025.175-.025.17-.032.169-.037.163-.044.169-.044.163-.05.163-.05.157-.057.163-.056.156-.063.157-.138.301-.075.15-.081.151-.082.144-.081.138-.088.144-.188.276-.094.132-.1.132-.107.131-.107.125-.106.12-.113.125-.12.113-.156.156-.157.145-.169.144-.17.132-.175.131-.175.126-.188.125-.189.113-.188.106-.194.1-.2.101-.201.088-.207.081-.207.082-.207.069-.22.063.151.219.22-.063.213-.075.207-.081.206-.088.207-.094.201-.094.194-.107.195-.113.188-.113.363-.25.351-.276.17-.145.163-.144.156-.156.12-.126.119-.119.113-.132.213-.263.106-.138.201-.276.094-.144.088-.144.175-.301.082-.15.15-.314.07-.163.062-.157.063-.163.056-.169.056-.163.05-.17.088-.338.038-.175.063-.351.025-.182.019-.176.018-.182.013-.181.006-.182v-.37l-.006-.182-.013-.182-.018-.181-.02-.176-.024-.182-.063-.35-.038-.17-.044-.176-.043-.169-.05-.17-.057-.162-.056-.17-.063-.163-.063-.156-.069-.163-.075-.157-.075-.15-.082-.157-.087-.15-.088-.145-.088-.15-.094-.144-.2-.276-.107-.138-.213-.263-.113-.126-.239-.25-.125-.12-.125-.119-.126-.113-.131-.106-.132-.113-.414-.3-.144-.095-.15-.088-.144-.087-.151-.088-.157-.082-.15-.075-.157-.075-.163-.07-.157-.062-.163-.062-.169-.057-.163-.056-.17-.05-.169-.044-.175-.044-.17-.038-.35-.063-.182-.025-.176-.019-.182-.018-.181-.013-.182-.006Zm-.188-4.163.583.012.288.02.289.025.564.075.276.044.551.113.276.068.27.07.263.08.527.176.257.1.257.107.25.107.49.238.244.132.238.131.232.138.232.145.452.3.219.163.213.163.213.17.207.175.207.182.389.376.376.389.351.414.17.206.169.22.313.439.15.232.145.226.138.238.131.238.132.238.119.25.12.245.106.251.106.257.094.257.094.264.088.263.075.263.075.27.07.276.056.27.056.281.044.276.038.282.031.282.025.289.02.288.012.288.006.289v.006l-.006.288-.013.289-.019.288-.025.288-.031.283-.038.282-.044.276-.056.282-.056.27-.07.275-.075.27-.075.263-.088.264-.094.263-.094.257-.106.257-.107.25-.12.251-.118.245-.132.238-.131.238-.138.239-.145.225-.15.232-.313.439-.17.22-.169.206-.351.414-.376.389-.389.376-.207.182-.207.175-.213.17-.213.162-.22.164-.219.15-.232.15-.232.145-.232.138-.238.131-.244.132-.49.238-.25.107-.257.106-.257.1-.527.176-.263.082-.27.069-.276.069-.551.112-.276.044-.564.075-.289.026-.288.018-.583.013-.577-.013-.288-.018-.289-.026-.564-.075-.276-.044-.282-.056-.27-.056-.275-.07-.27-.068-.263-.082-.527-.175-.257-.1-.257-.107-.25-.107-.252-.119-.244-.12-.238-.13-.238-.132-.239-.138-.232-.145-.225-.15-.22-.15-.439-.326-.206-.17-.207-.175-.207-.182-.389-.376-.376-.389-.182-.207-.175-.207-.17-.206-.326-.44-.15-.219-.15-.232-.145-.225-.138-.239-.138-.238-.125-.238-.12-.245-.118-.25-.107-.251-.106-.257-.1-.257-.176-.527-.082-.263-.069-.27-.069-.275-.056-.27-.056-.282-.044-.276-.076-.565-.025-.288-.019-.288-.012-.577v-.006l.012-.577.02-.288.024-.288.076-.565.043-.276.057-.282.056-.27.07-.275.068-.27.082-.263.175-.527.1-.257.107-.257.107-.25.119-.245.119-.25.125-.24.276-.475.144-.226.15-.232.151-.22.326-.438.17-.207.175-.207.182-.207.376-.389.194-.188.195-.188.207-.182.207-.175.206-.17.44-.326.219-.15.225-.15.232-.145.239-.138.476-.263.245-.119.25-.12.251-.106.257-.106.257-.1.527-.176.263-.082.27-.069.275-.069.27-.056.276-.056.282-.044.564-.075.289-.026.288-.019.288-.006.289-.006Z"/><path d="m16.006 60.65-.013-.013-.024-.026-.02-.006-.012-.006-.012.006-.013.025-.013.05-.018.044-.007.02-.012.005-.006.013h-.013l-.031-.006-.031-.007-.013-.012-.013-.006-.006-.013v-.013l.006-.037.007-.044.006-.019-.006-.018v-.013l-.013-.006-.044-.013-.069-.019-.063-.019-.024-.012-.02-.006-.043-.013-.025-.012-.02-.013-.018-.012-.012-.02-.007-.05.007-.062v-.031l.024-.063.013-.025.013-.02.012-.012.013-.006h.056l.019-.006h.025l.013.006.018.006.013.013.069.069.063.056.025.013.025.012h.012v-.019l-.012-.056-.02-.081-.024-.088-.038-.094-.056-.12-.063-.1-.025-.043-.025-.038-.006-.032v-.025l.012-.03.019-.032.019-.019.025-.019.044-.025.044-.013h.018l.02.013.05.025.037.032.013.012v.088l.006.081.019.076.031.119.013.087.006.082.012.1v.17l.013.024.006.013.025.013h.02l.037.019.044.037.056.05.05.05.044.044.038.025.012.007.006-.007.007-.012v-.019l-.007-.037v-.026l-.006-.012-.012-.025-.038-.05-.044-.07-.012-.037-.007-.031v-.02l.007-.006h.062l.038-.006.012-.006.007-.006-.007-.013-.012-.019-.05-.056-.05-.063-.044-.056-.032-.044-.03-.038-.026-.044-.013-.05.013-.018.019-.02.019-.005.018-.007h.038l.031.019.038.063.019.031.012.019.006.012.013.013.019.006.019.013.019.012h.006l.006-.006v-.013l-.006-.025-.013-.062-.025-.07-.025-.062-.013-.038v-.031l.013-.044.019-.044.025-.037.013-.007h.006l.012.007.006.012.013.031.013.038.006.032.012.056.013.069.013.075.006.057-.006.056v.044l.006.031.044.082.075.138.075.138.05.075.013.019h.012l.013-.007.006-.006.007-.006-.007-.013-.012-.132-.007-.206v-.213l.007-.076.006-.05.019-.05.019-.044.006-.019.012-.006.007-.006h.012l.031.025.032.038.025.043.006.044v.038l-.012.044-.02.044-.018.037-.006.032-.007.056-.006.063v.206l.006.088.007.076v.037l.081.038.132.075.069.031.063.025.031.007.025.006h.019l.012-.006.007-.013v-.025l-.007-.056.013-.063.006-.031.013-.02.012-.018.02-.012h.024l.019.006.025.006.013.006.018.02.007.012.006.018v.02l-.019.056-.012.069-.007.031v.031l.007.026.012.012.1.031.176.05.182.044.113.032.037.012.05.013.05.025.05.031.045.032.025.03.006.02v.019l-.025.037-.075.063-.07.044-.05.025-.037.006-.032-.006h-.025l-.006-.006v-.026l.006-.012.007-.019.006-.013v-.018l-.013-.019-.018-.019-.038-.025-.056-.031-.076-.032-.137-.069-.1-.037-.032-.013-.019-.006h-.012l-.007.006v.044l.013.063.012.063.02.03.03.032.044.05.013.038v.05l-.006.013-.013.018-.013.013-.037.025-.038.019-.037.006h-.038l-.05-.012-.019-.013-.006-.019.006-.037v-.032l-.006-.044-.025-.087-.02-.094-.005-.082.006-.081.006-.02-.382-.144h-.006l-.02.007-.006.006-.006.013v.056l.019.1.025.145.019.087.025.088.031.1.032.094.069.164.05.1.012.031.013.038v.031l-.006.044-.013.044-.019.038-.019.03-.012.026-.019.019-.012.012h-.013l-.006-.006-.057-.025-.063-.025-.024-.057-.02-.062-.018-.063-.013-.063-.025-.138-.025-.288-.012-.138-.007-.132-.012-.125-.013-.081-.006-.07-.006-.043-.006-.013-.038-.025-.082-.044-.094-.056-.056-.032h-.006l-.006.013v.05l.006.088.012.1V61l.025.07.013.068v.031l-.006.026-.013.025-.019.018-.044.013h-.056l-.025-.019-.013-.019-.012-.025-.007-.031-.006-.038-.006-.144v-.094l-.025-.019-.025-.012-.05-.05-.057-.05-.056-.05-.063-.05ZM19.48 57.464l-.051.032-.019.012h-.044l-.025-.025-.012-.012-.006-.025v-.025l.012-.02.019-.024.025-.026.025-.018.019-.02.012-.018.007-.019v-.019l.006-.018.012-.025.013-.02.019-.024.018-.013.02-.012.018-.007h.025l.019.007.019.006.019.012.012.013.013.025-.007.013-.025.044-.037.056-.032.056-.012.05-.006.013v.013l-.007.006h-.006l-.012.006-.007-.006-.025.012Zm.068.12.1-.076.088-.056v-.138l.013-.038.025-.019.037-.018h.02l.012.006.006.013.006.025-.006.062-.006.07v.056l.006.037.044.063.082.094.112.132.013.019.019.05.006.025-.006.025v.006l-.013.013-.013.006h-.012l-.031.006h-.063l-.031-.006-.026-.013-.024-.012-.032-.02-.025-.03-.05-.044-.032-.031h-.024l-.013.006-.013.012-.031.044-.05.044-.019.013-.012.006-.007-.013v-.025l.032-.069.025-.044.019-.031.012-.013-.138-.137Zm-.965-.145.006-.025.013-.081.012-.088.031-.12.02-.056.018-.05.019-.037.019-.026h.025l.012.013.013.013.025.037.031.05.057.113.037.082.013.025.019.025.018.019.038.037.019.02.012.024v.025l-.006.057-.025.062-.025.07-.019.068v.013l.006.006.007.006.006-.006.031-.013.032-.018.069-.057.03-.025v-.294h.045l.081.012.02-.006.012-.006.012-.019.013-.019v-.063l-.013-.019-.012-.037-.007-.056-.006-.057-.006-.044v-.025l.006-.025.019-.031.019-.031.037-.082.038-.1.013-.044v-.038l-.013-.031-.013-.02-.018-.018-.02-.013-.024-.012-.025-.006-.02-.007-.012-.012-.006-.013v-.025l.006-.075.025-.125.007-.063.012-.044.013-.025.012-.012h.013l.012.006.007.012.012.02.056.093.12.182.144.207.125.163.138.163.157.188.075.088.063.075.044.063.012.031v.025l-.018.013-.026.018-.031.013-.075.025-.07.025-.043.025-.019.019v.013h.006l.007.006.062.006h.113l.144-.006.132-.013.031-.006.026-.006.018-.013.02-.012.03-.032.02-.031.018-.056.006-.032-.03-.031-.082-.088-.139-.15-.181-.201-.1-.107-.107-.119-.113-.138-.12-.144-.112-.138-.107-.144-.087-.125-.075-.12-.013-.018-.013-.007-.018-.006-.02.006-.018.013-.019.019-.012.019-.05.1-.02.081-.018.076-.019.075-.025.144-.038.144v.006h-.006l-.019.007-.012.012-.013.02-.006.018-.006.019v.05l.006.025.006.006v.007l.013.037.019.05.006.032.012.031v.075l-.006.063-.006.056-.013.05-.019.038-.018.038-.02.031-.018.019-.012.019h-.013l-.012-.007-.007-.018-.012-.02-.02-.05-.018-.03-.013-.038-.012-.075-.019-.107-.031-.138-.013-.063-.012-.056v-.1l.025-.094.025-.1.012-.057v-.05l-.012-.044-.013-.044-.043-.063-.044-.05-.02-.012-.018-.007-.012.013-.013.012-.019.05-.013.05-.012.038-.019.013h-.037l-.063-.013-.12-.012-.112-.02-.075-.005h-.013l-.012.006-.007.012v.007l.007.031.025.031.031.044.038.075.056.088.075.12.032.056.025.05.012.038.006.03v.057l-.012.032-.025.081-.031.1-.02.095-.018.087-.025.107-.025.094-.019.069-.031.05-.057.094-.006.019-.006.012.006.013v.012l.019.013.031.013h.032l.024-.007.032-.006.012-.006.013-.013h.05l.025-.012.031-.013.02-.019.018-.044.006-.05.007-.05v-.019Zm.395.42.006-.012.012-.025.013-.013.019-.006.019-.006.018-.006.032.006.031.019.044.018.05.031.1.076.113.081.1.094.082.088.031.038.026.037.018.032v.019l-.025.05-.063.075-.03.038-.032.03-.032.013-.025.007-.012-.013-.019-.013-.019-.024-.012-.026-.032-.056-.031-.056-.037-.063-.044-.07-.044-.062-.05-.062-.107-.12-.1-.119ZM22.758 54.731h.012l.007.006.018.025.007.063.006.1.006.113.007.113v.044l-.007.038-.012.025-.044.043-.019.007-.044.019-.094.069-.019.025-.018.019-.007.006-.006.006h-.006l-.007-.006-.006.025-.012.063v.03l.006.032v.007l.006.012h.02l.05-.019.062-.031.063-.032.043-.012.02.006.018.019.006.025.013.032.006.056-.006.038-.013.03-.025.057-.019.063-.018.044-.007.044-.006.05-.006.063-.013.056-.006.031.006.02.013.018.019.012.025.007h.025l.025-.007.031-.018.025-.02.032-.03.031-.044.031-.05.025-.07.032-.081.037-.094.032-.113.05-.213.031-.15.013-.094v-.032l-.019.044-.031.094-.013.038-.019.025-.012.006h-.019l-.019-.006-.025-.013-.019-.012v-.02l.006-.018.013-.025.031-.038.02-.043v-.026l-.007-.012-.013-.013-.012-.006-.032-.012-.012-.007.006-.044.006-.113.007-.131.006-.107.006-.056.025-.082.02-.081.012-.075v-.026l-.013-.025-.012-.018-.02-.02-.037-.037-.019-.025v-.012l-.012-.007-.006-.006h-.013l-.031.013-.032.018-.069.05-.056.05-.056.045-.1.068-.05.038-.05.044-.051.038-.031.037-.02.025v.032l.007.025v.025l.013.006.012.013.025.012.031.013.095.031.025-.006.025-.019.019-.019.018-.025.044-.038.019-.012Zm.52-.238.013.018.006.026.013.037.018.082.007.087.006.076.013.063.012.025.019.018.031.013.038.006.044-.006.025-.006.019-.02.012-.018v-.088l-.012-.063-.02-.112-.018-.113-.012-.088-.013-.025-.019-.019-.019-.006-.03-.006-.064.012-.069.013-.025.012-.012.013-.006.012v.007l.012.025.019.012.012.013Zm.39-.226-.151.082.006-.025.019-.063.025-.044.025-.044.044-.056.056-.057.125-.119.107-.113.05-.044.044-.044.038-.025.037-.018.032-.013.037-.006h.07l.03.006.026.013.006.012.006.013.006.012v.013l-.006.081-.012.082-.025.088-.026.062-.025.138-.037.245-.032.244-.018.132-.006.019-.02.025-.025.025-.03.025-.064.038-.044.024-.012.007-.012.019-.007.018v.026l-.006.068.006.1.007.095.012.056.006.013.013.012.012.006h.02l.055-.006.07-.006h.037l.025.006.013.006.012.007.006.012v.057l-.018.056-.025.063-.031.069-.063.119-.026.056-.024.044-.007.038v.012l.013.013.012.006h.026l.056-.019.056-.025.057-.025.05-.025h.025l.025-.006h.012l.02.006.062.063.019.031.006.031v.032l-.006.031-.013.032-.025.031-.037.019-.05.012-.088.02-.044.012-.038.012-.044.013h-.081l-.1-.007-.05-.006-.045-.019-.018-.006-.013-.013-.013-.018-.006-.013-.006-.031.006-.019.013-.012.019-.013.018-.012.013-.007.013-.019-.007-.019-.006-.062v-.176l-.006-.025-.007-.006-.037-.006-.038-.02-.019-.018-.012-.019-.006-.019.006-.018.025-.025.025-.044v-.07l-.006-.075-.013-.062-.012-.044-.038-.031-.05-.038-.019-.019-.012-.025-.007-.012v-.013l.007-.012.006-.02.025-.024.025-.038.012-.056.013-.063.006-.056.013-.038.006-.013v-.019l-.012-.006h-.082l-.012-.012-.013-.013-.006-.019v-.019l.006-.025.013-.018.03-.02.039-.012.025-.006.018-.012.02-.02.012-.018.012-.088.006-.088.013-.106v-.013l.013-.006.03-.025.02-.006h.019l.012.006.006.012.007.05v.057l-.007.056v.057l.007.05.012.038.013.012.012.006.013-.006.012-.012.032-.107.037-.188.038-.182.025-.119.013-.056v-.057l-.007-.019-.006-.012h-.013l-.018.012-.088.1-.213.189-.088.1ZM27.968 54.556l-.02-.02V54.5l.02-.019.019-.006h.044l.024.006.026.007.025.018.05.025.044.026.044.025.05.018.113.025.169.032.088.006.068.006.063-.006.044-.006.07-.006h.05l.062.03.075.057.063.05.031.026-.006.018v.044l-.006.025-.013.025-.012.025-.025.02-.063.043-.12.094-.15.113-.15.132-.088.081-.069.075-.044.05-.019.026-.012.025v.012l.012.006h.025l.063-.006.082-.019.037-.025.032-.018.037.018.05.025.038.032.025.025.006.019v.025l-.012.031-.019.031-.013.013-.018.019-.02.006-.018.013-.031.006-.025.006h-.038l-.031-.006-.082-.007h-.075l-.075.007-.075.006-.157.031-.157.044-.17.044-.169.057-.075.031-.069.031-.056.025-.038.026-.012.012-.02.006-.012.007h-.018l-.038-.007-.038-.018-.075-.044-.082-.05-.03-.02-.026-.025-.025-.03-.019-.038-.006-.038-.006-.031v-.07l.006-.024.013-.02.012-.012.025-.006h.063l.037.006.038.006.069.013.063.013h.037l.044-.013.1-.025.132-.038.12-.025.093-.025.057-.012.1-.07.176-.156.181-.157.113-.1.1-.075.145-.107.062-.05.05-.05.02-.019.006-.019V54.8l-.006-.013h-.044l-.057.007-.069.012-.075.013-.157.044-.113.025-.025.025-.018.025-.032.006h-.038l-.03-.006-.039-.013-.062-.037-.032-.025-.024-.038-.026-.056-.025-.076-.012-.037-.007-.038v-.031l.007-.032ZM32.168 56.787l-.081.132-.088.138-.056.069-.013.012-.025.007-.031.006h-.113l-.057-.006-.075-.013-.107-.012-.119-.013-.094-.012-.056-.013h-.056l-.02.013-.012.018-.012.02-.013.024v.038l.006.025.02.031.037.038.044.031.044.013.05.012.094.007.081-.007.063-.006h.044v.013l-.013.018-.019.032-.012.019-.019.012-.025.019-.031.012-.07.025-.087.02-.195.05-.206.068-.05.013-.05.006-.05.006-.057.007h-.12l-.119.006-.15.019-.138.019-.113.025-.069.006-.044.006-.031.013-.037.025-.007.013-.006.012.006.006.006.007.138.012.251.012h.2l.095.007h.106l.1-.007.132-.018.17-.025.15-.026.088-.018.063-.02.1-.043.113-.056.1-.063.082-.038.087-.025.094-.063.088-.056.032-.012.037.006.038.006.037.02.07.037.05.03h.024l.02-.005.012-.007.031-.018.025-.032.025-.037.013-.038.006-.037-.006-.038-.013-.007-.012-.012h-.019l-.025-.006-.05-.007-.057-.006h-.03l-.007.006-.006.007v.006h-.013l-.006-.013.006-.018.019-.038.037-.05.044-.057.1-.113.076-.094.025-.037.012-.038-.012-.062-.038-.063-.044-.056-.031-.05-.025-.02-.025-.006-.038.013-.05.012-.037.013-.02.012-.012.007-.006.012v.07l-.006.024-.013.019-.044.075Zm-.294.847-.013.056-.019.126.007.093.006.12.019.125.025.1.031.088.031.081.032.07.031.05.019.037.012.038-.006.019-.006.006h-.025l-.032-.013-.188-.163-.056-.037-.056-.025-.05-.02-.032-.024-.019-.019-.012-.019-.007-.019v-.1l.013-.119.012-.05.007-.044.012-.044.019-.031.019-.063.012-.05.007-.05.012-.05.007-.019.012-.019.012-.013.02-.012.087-.006h.057ZM33.992 60.36l.026.007.025.013.018.012.013.012.013.02.006.018.006.019v.019l-.006.019-.019.006h-.05l-.063-.012-.044-.02h-.019l-.018-.006h-.013l-.019.007-.012.006-.006.013-.007.006.007.012.006.013.019.012.018.007.032.012.069.019.087.025.038.019.025.019.013.018.006.013-.006.012-.007.013-.025.013h-.025l-.031.006h-.019l-.012.006-.02.013-.018.012-.006.006v.007l.006.006.006.006.025.007.032.006.069.006h.094l.025.006.037.013.038.019.038.006h.043l.044-.006.025-.007.013-.006.013-.012.012-.013.013-.038.019-.062.012-.025.019-.02h.019l.025.013.044.038.037.038.038.037.05.044.044.044.031.044v.019l-.006.012-.013.007-.025.006h-.05l-.05-.006-.063-.007-.088-.006-.094-.006-.094-.007-.087-.012-.088-.006h-.144l-.013-.013-.019-.006-.037-.038-.063-.056-.063-.05-.056-.032-.113-.056-.056-.038-.057-.044-.05-.05-.056-.063-.032-.025-.025-.019-.031-.006h-.019l-.019.006-.012.02v.018l.012.032.05.03.05.026.032.044.05.056.056.057.063.05.12.094.068.044.019.012v.007l-.019.006-.044.012-.025.007h-.087l-.044-.013-.088-.019-.05-.019-.038-.024-.044-.032-.019-.019-.025-.006-.019-.012h-.025l-.043.006-.044-.013-.044-.019-.05-.031-.038-.025-.056-.031-.063-.038-.063-.025-.056-.025-.038-.006-.056-.032-.057-.05-.056-.056-.038-.05-.019-.032-.018-.031-.026-.025-.018-.013-.019.007-.031.018-.02.025-.012.02.032.08.044.076.018.031.025.025.025.032.026.018.062.05.07.038.124.076.1.069.032.03.025.032.013.019v.019l-.007.012-.006.013-.019.012-.018.013-.032.025-.044.032-.062.037-.063.038-.081.019-.075.012-.05.019-.026.006-.013-.006-.018-.025-.019-.025-.019-.038-.031-.07-.031-.062-.013-.018-.013-.007h-.012l-.006.007-.013.024-.006.026.006.03.013.057.018.076.013.081.006.082.007.056.006.013.006.006.012.013.013.006.038.006.037.006.076-.006.05-.012.069-.032.1-.056.107-.063.075-.038.069-.044.081-.069.019-.018.019-.013.019-.006.018-.006h.02l.018.012.031.02.026.03.018.02.007.012.006.012-.006.006-.026.007-.025.006h-.087l-.02.006h-.018l-.006.007v.006l.025.019.056.025.07.037.08.044.07.05.044.026h.018l.02-.007.018-.019.019-.03.012-.039v-.044l-.006-.043-.013-.044-.018-.044-.02-.032-.024-.025-.013-.006-.031-.012-.025-.02-.032-.037-.03-.044-.007-.012-.006-.006.006-.007v-.006l.025-.006.031.006.082.019.081.025.07.025.08.025.038.025.044.025.044.031.05.044.044.044.038.025.037.013.026.006.043-.006.044-.013.013-.012v-.038l-.006-.025-.013-.031-.006-.025-.006-.032.006-.031.006-.019.013-.012.018-.007h.025l.07.007.087.006h.056l.057.012.05.013.057.019.106.044.094.031.044.013.044.006.05.006.05-.012.044-.02.038-.024.025-.038.012-.038.007-.031.006-.044-.006-.025-.007-.019-.018-.019-.026-.012-.08-.05-.101-.07-.1-.062-.063-.037h-.02l-.018-.013-.019-.013-.012-.012-.013-.012-.006-.02-.006-.012.006-.019v-.031l-.013-.032v-.05l.013-.019.025-.024.019-.007.019-.006.044.006.05.013.069.025.081.025.088.031.075.032.038.012.025.006h.025l.019-.006.037-.018.032-.007h.012l.02-.006.011-.025.013-.057.006-.081-.006-.044-.013-.038-.012-.025-.019-.012-.019-.007h-.018l-.013.007-.006.006-.007.019-.018.012-.038.013-.069.044-.025.006-.031.012h-.038l-.038.007-.087-.007-.094-.006-.163-.025-.082-.019-.012-.006-.013-.012-.006-.013-.006-.019-.013-.031-.019-.044-.025-.031-.025-.032-.025-.019-.031-.018-.007-.007-.006-.018v-.038l.013-.038.006-.012v-.013l.012-.025.007-.018v-.02l-.007-.018-.006-.025-.012-.013-.013-.012h-.031l-.013.012-.019.013-.012.019-.013.03-.044.07-.068.094-.076.094-.069.075-.037.032-.025.018-.032.013-.025.006-.019-.006-.012-.006-.006-.007.006-.012.037-.094.026-.088.006-.025v-.038l-.013-.031-.019-.044-.012-.012-.006-.007-.013.007-.006.012-.025.038-.025.062-.032.057-.031.05-.031.044-.032.019-.025.012-.019.013-.018.019-.026.03-.012.02-.006.006.006.013.006.006.025.006.038.012.07.02.093.012.1.012.075.007Zm.088-.03h.044l.075-.013.013-.007.012-.018.007-.019v-.05l-.013-.013-.025-.006h-.025l-.031.019-.025.012-.013.025-.012.02-.007.03v.02Zm.17-.151-.007-.006-.006-.026-.006-.012v-.012l.006-.013.012-.013.032-.018.019-.013.006-.006h.013l.006.006.006.019.019.031.019.032.006.018v.025l-.006.007-.013.019-.019.012-.025-.006-.025-.013-.031-.025-.007-.006Zm.03.188-.005-.025.006-.038.006-.012.013-.013h.019l.024.013.044.031.032.025.012.013.007.012.006.013v.044l-.007.019-.006.006h-.006l-.006-.006-.013-.007-.037-.019h-.026l-.024-.019-.038-.037Zm-.08.32.006-.025.012-.032.013-.012.006-.013.019-.006h.019l.069-.006.062-.006.025.012.025.031.007.013v.019l-.007.006-.012.006-.025.013-.038.019-.012.006-.026.006H34.3l-.076-.019-.025-.012ZM20.432 71.833l-.188-.163.477-.457-.289.62Zm-.307-.056.238.207-.27.558.145.081.72-1.567-.162-.107-1.285 1.21.125.088.489-.47Zm-.922.15.132.094 1.223-1.247-.132-.094-.771.758.501-.928-.188-.163-1.222 1.198.138.119 1.066-1.078-.747 1.341Zm-.664-.564-.113-.106 1.26-1.154.12.107-1.267 1.153Zm-.282-.276-.107-.1.659-.583-.264-.326-.708.564-.107-.119 1.323-1.066.107.12-.496.4.263.327.502-.458.107.113-1.28 1.128Zm-.37-1.103.075.138-.056.037-.05.032-.05.025-.044.019-.044.012-.038.013-.044.006H17.6l-.032-.006-.038-.013-.025-.012-.03-.02-.026-.018-.025-.031-.025-.032-.019-.037-.019-.044-.018-.05-.007-.044v-.044l.006-.05.007-.044.018-.05.026-.044.03-.056.045-.057.056-.056.057-.063.069-.063.075-.062.075-.063.082-.056.087-.057.082-.056.163-.088.081-.032.076-.03.069-.02.062-.012h.044l.044.006.044.013.038.019.03.024.032.026.025.037.025.044.02.038.012.037.012.075v.076l-.012.037-.013.038-.012.038-.02.031-.024.038-.032.037-.031.032-.038.03-.037.038-.044.032-.075-.138.069-.056.056-.05.038-.05.018-.045.013-.043v-.038l-.012-.031-.013-.038-.025-.038-.031-.031-.02-.006-.024-.007-.025-.006H18.5l-.031.006-.044.007-.044.018-.05.02-.094.05-.094.05-.094.05-.088.062-.088.063-.081.063-.082.069-.075.069-.075.088-.025.03-.025.038-.013.032-.012.031-.007.025v.025l.007.05.012.044.019.032.025.025.031.019.038.006h.05l.063-.019.075-.038.088-.056Zm-1.116-.746 1.53-.809-.088-.138-.64.326-.219-.42.633-.288-.069-.144-1.567.72.075.145.765-.376.245.438-.747.408.082.138Zm.696-2.1.132-.057.275.608-.137.05-.107-.231-1.455.595-.069-.163 1.461-.583-.1-.22Zm-1.643.119.026.063.037.056.019.031.025.02.025.024.031.019.063.025.038.006.037.007h.038l.037-.007.038-.006.044-.012 1.291-.464-.056-.15-1.291.457-.044.012h-.044l-.038-.006-.037-.012-.038-.025-.032-.026-.018-.03-.013-.038-.006-.038v-.038l.006-.044.02-.044L16 67l.031-.038.038-.025.038-.025 1.278-.433-.037-.144-1.317.433-.038.025-.037.019-.025.031-.031.025-.02.032-.024.037-.013.032-.025.075-.006.031-.006.038.006.075.012.069Zm-.144-1.016.013.063.025.025.012.019.02.012.024.013.032.012.03.013.045.006h.1l.088-.012.138-.02.144-.024.107-.025.106-.031.125-.032.12-.038.081-.03.05-.026.044-.019.031-.025.032-.025.019-.025.018-.025.013-.025.006-.019.013-.031v-.032l-.013-.031-.025-.025-.012-.013-.02-.018-.024-.013-.032-.013-.031-.012-.044-.006h-.1l-.094.006-.113.013-.125.025-.132.025-.125.037-.12.032-.113.037-.087.038-.05.025-.038.019-.037.025-.032.025-.019.025-.019.025-.012.025-.013.025-.006.025Zm-.131.063-.007-.05v-.044l.013-.075.019-.032.025-.031.025-.038.031-.03.05-.045.057-.038.069-.03.069-.038.081-.032.082-.031.087-.025.088-.025.176-.038.169-.025.163-.019.138-.006.063.006.062.006.063.02.05.024.044.038.037.044.02.025.012.025.012.031.007.032.012.056v.044l-.006.044-.013.038-.018.037-.026.031-.024.038-.038.031-.044.038-.063.031-.081.038-.088.038-.094.037-.094.032-.188.05-.094.019-.1.018-.107.013-.1.013-.1.006-.095.006-.075-.006-.056-.013-.044-.012-.038-.02-.031-.024-.032-.025-.018-.032-.02-.031-.018-.044-.012-.05Zm1.216-.752-.02-.17.032-.006.038-.006.037-.007.038-.018.038-.025.025-.032.012-.018.007-.026.006-.025v-.025l-.013-.056-.012-.044-.019-.031-.019-.025-.031-.032-.032-.025-.037-.019-.032-.012-.037-.006h-.063l-.037.012-.07.031-.068.044-.07.057-.068.062-.126.145-.113.144-.056.069-.044.056-.044.044-.037.038-.038.025-.044.012-.056.013-.07.012h-.037l-.05-.012-.056-.013-.057-.031-.031-.019-.025-.019-.025-.025-.019-.031-.019-.031-.019-.044-.006-.038-.006-.044-.007-.069.007-.056.012-.056.02-.044.024-.044.025-.038.032-.025.03-.025.07-.038.063-.025.062-.012.057-.007.012.163-.075.013-.063.018-.05.02-.037.03-.025.032-.013.044-.013.044v.056l.007.044.019.031.012.032.025.019.031.012.032.013.037.006h.038l.056-.006.044-.02.038-.018.031-.025.1-.12.1-.118.107-.12.107-.106.056-.05.063-.044.063-.037.069-.032.069-.019.075-.012h.081l.088.006.031.013.026.018.03.02.026.018.025.019.025.025.02.031.018.032.019.037.012.038.006.05.007.044v.1l-.013.044-.012.038-.02.031-.018.031-.025.032-.025.018-.063.038-.056.025-.063.02-.056.011Zm17.629-.157.783.144.025-.163-.796-.15-.852-.44-.013.17.677.332-.752.138-.032.176.96-.207Zm.714.526-.833-.181-.07.37.139.031.037-.194.075.012.1.019.095.019.062.018.063.026.05.025.019.019.019.018.013.02.012.018.012.025v.088l-.012.044-.025.037-.019.02-.019.012-.025.012-.025.006-.056.013-.057.013h-.125l-.138-.013-.144-.019-.144-.031-.138-.038-.12-.037-.1-.044-.044-.02-.043-.024-.038-.025-.025-.019-.025-.025-.013-.025-.012-.02-.013-.024-.006-.038v-.062l.012-.032.013-.025.019-.025.031-.019.038-.019.043-.012h.05l.057.006.063.013.031-.163-.081-.013-.075-.006h-.076l-.069.019-.044.012-.037.025-.038.032-.031.03-.032.039-.018.044-.013.037-.006.044v.05l.006.05.006.044.02.044.012.044.025.038.031.031.032.038.05.037.062.038.07.031.162.063.094.031.094.019.094.025.094.019.1.013.095.012.088.006.087.007.075-.007.076-.006.063-.013.037-.012.038-.019.037-.019.032-.031.025-.031.025-.038.019-.044.012-.05.006-.038v-.075l-.006-.038-.012-.03-.013-.032-.013-.031-.024-.032.113.025.024-.132Zm-.683 1.449H34.3l-.05-.013-.07-.013-.087-.024-.094-.032-.088-.031-.1-.044-.126-.05-.188-.094-.087-.063-.057-.056-.038-.05-.025-.05-.006-.026V66.8l-.006-.025.006-.025.006-.025.013-.019.012-.019.02-.019.024-.018.025-.013.032-.012.037-.007.038-.006h.038l.043.006.057.013.081.019.12.044.125.044.107.037.081.038.094.037.082.038.062.031.088.063.057.056.024.025.02.026.018.025.013.025.006.031.006.025.006.025-.006.025-.006.02-.013.024-.018.019-.02.019-.024.012-.032.013-.037.013-.038.006Zm.32-.044-.019.044-.025.044-.032.03-.037.026-.044.025-.044.013-.05.018-.044.007-.056.006h-.057l-.069-.013-.075-.012-.163-.038-.081-.031-.082-.031-.182-.076-.181-.094-.082-.05-.075-.044-.063-.05-.038-.044-.03-.037-.032-.044-.019-.05-.019-.05-.012-.05-.007-.05v-.051l.013-.057.019-.043.025-.044.031-.038.038-.025.037-.025.044-.019.044-.012.05-.007.057-.006.069.007.081.018.094.019.195.056.181.07.163.075.15.075.07.037.056.044.05.038.038.044.031.044.032.044.018.043.026.057.012.05.006.05v.05l-.012.057Zm-1.825-.057-.062.15 1.486.86.244-.577-.125-.069-.188.426-1.355-.79Zm1.029 1.499.012-.05.013-.044-.006-.032v-.025l-.013-.031-.013-.031-.018-.032-.063-.075-.038-.044-.069-.056-.1-.082-.107-.081-.087-.063-.094-.063-.1-.069-.1-.069-.127-.062-.043-.013-.038-.012-.038-.007h-.03l-.026.007-.025.006-.019.013-.031.03-.032.038-.018.044-.007.05v.025l.007.026.025.062.018.032.026.037.031.038.038.044.069.056.093.075.1.082.089.063.081.056.1.063.088.05.07.037.056.026.062.03.057.026.044.013h.031l.025-.007.025-.006.019-.013.031-.025.032-.037Zm.113.081-.026.044-.025.038-.031.031-.038.025-.037.019-.038.012-.044.007h-.044l-.056-.013-.069-.025-.075-.031-.088-.044-.176-.107-.163-.106-.075-.057-.081-.062-.076-.063-.075-.069-.069-.063-.063-.062-.043-.057-.031-.056-.026-.044-.012-.05-.013-.044v-.094l.013-.044.012-.05.026-.044.024-.044.032-.038.031-.037.032-.025.037-.019.044-.013h.088l.05.007.069.025.069.031.081.044.176.1.163.107.157.119.156.138.07.063.062.068.05.057.032.05.025.05.012.044.013.05v.094l-.013.044-.012.05-.026.044Zm-.408.677-1.38-.633 1.117.997-.088.132-1.292-1.154.145-.213 1.153.57-.953-.859.076-.137 1.31 1.166-.088.131Zm-.495.684-1.21-1.26-.1.119.564.558-.27.332-.558-.564-.094.125 1.185 1.248.1-.12-.526-.576.27-.332.538.589.1-.12Zm-1.041.426.063.088.044.075.031.069.006.05v.05l-.006.038-.019.031-.025.031-.038.026-.037.018h-.044l-.031-.006-.026-.012L32 71.08l-.031-.025-.044-.025-.038-.038-.056-.062-.076-.082-.075-.094-.069-.081-.063-.095-.075-.106-.069-.1-.043-.082-.026-.05-.018-.05-.02-.044-.005-.038-.007-.037-.006-.032.006-.025.007-.025.018-.044.025-.037.032-.02.025-.018.031-.012.038.006.044.012.043.032.057.05.056.069.107-.113-.069-.082-.069-.062-.038-.025-.031-.02-.037-.018-.032-.006-.031-.006h-.07l-.062.025-.031.019-.025.018-.032.032-.031.037-.025.038-.025.044-.013.044-.006.043-.006.05v.05l.012.05.02.057.024.076.038.081.05.082.05.087.056.088.057.088.063.081.125.15.132.139.062.063.057.05.056.043.05.026.044.012.044.013h.038l.044-.007.037-.012.038-.019.038-.025.062-.063.025-.03.019-.039.013-.037.012-.032.006-.043v-.076l-.006-.044-.012-.044-.013-.043-.019-.05-.056-.095-.07-.1-.112.113Zm-.702 1.31-.903-1.492.458-.395.087.138-.338.288.27.477.27-.232.087.138-.27.232.37.608.364-.314.088.139-.483.413Zm-1.524-.852.245-.17.815 1.342.119-.088-.809-1.341.238-.17-.087-.138-.602.427.081.138Zm-.32 1.968-.639-1.611.527-.282.069.157-.401.207.188.445.35-.188.057.156-.35.188.331.86-.131.068Zm-.557.075-.044.013h-.038l-.025-.006-.025-.013-.019-.019-.025-.018-.025-.032-.031-.037-.025-.044-.025-.05-.038-.076-.044-.113-.037-.113-.038-.106-.031-.1-.032-.107-.031-.094-.019-.075-.006-.063-.007-.056v-.044l.007-.044v-.031l.012-.032.006-.025.02-.019.03-.031.038-.025.038-.013h.044l.025.007.019.012.025.013.025.025.025.025.025.037.025.044.063.126.037.088.076.2.031.107.038.119.03.113.02.087.006.063.006.05v.088l-.006.038-.006.031-.013.025-.012.019-.032.031-.037.025Zm.044.15.043-.024.038-.025.032-.025.025-.038.025-.038.018-.043.013-.05.006-.05.006-.064-.006-.075-.012-.081-.02-.094-.043-.201-.056-.194-.038-.1-.031-.088-.038-.088-.038-.082-.043-.075-.038-.069-.038-.05-.038-.044-.03-.031-.038-.025-.038-.02-.038-.012-.043-.006h-.044l-.038.013-.05.012-.038.025-.037.025-.032.032-.031.031-.019.044-.019.044-.012.044-.006.056-.007.056.007.07.012.075.013.088.044.181.062.188.07.195.075.188.037.081.044.07.037.062.038.044.031.031.038.025.038.019.044.013.037.006h.044l.038-.013.044-.012Zm-1.58-.338.169.809.138-.044-.17-.802.114-.985-.139.044-.081.752-.314-.664-.137.044.42.846Zm-1.173-.564-.012-.163.69-.1.012.15-.276.057.195 1.542-.145.025-.194-1.549-.27.038Zm.057 1.567-.144-1.724-.145.02.145 1.723.144-.019Zm-1.649-.959.025-.57.138.006.038.006.037.019.032.025.025.038.019.037.012.044.006.05.006.057-.006.056-.018.063-.02.056-.024.05-.026.032-.03.025-.038.012h-.044l-.132-.006Zm.476 1.01-.188-.86.026-.012.024-.019.02-.018.018-.02.063-.1.019-.062.012-.057.013-.006.006-.013.006-.043v-.176l-.012-.069-.019-.069-.032-.069-.018-.031-.025-.025-.025-.025-.032-.02-.031-.018-.031-.013-.038-.012h-.038l-.307-.019-.075 1.73.15.007.032-.822.15.007.176.827.156.007Zm-1.48-.126.208-1.705.57.081-.018.17-.427-.063-.063.558.32.05-.019.17-.32-.044-.087.633.451.062-.018.163-.596-.075Zm-.432-.445-.006-1.386-.15-.05.031 1.78.138.032.52-1.655-.138-.025-.395 1.304Zm-.595.226.357-1.68-.144-.038-.358 1.68.145.038Zm-.47-.145.006-1.623-.445 1.473-.138-.056.495-1.643.22.082-.02 1.335.327-1.235.138.05-.445 1.661-.139-.044Zm-.972-.382h.063l.03-.012.032-.013.032-.019.031-.019.025-.025.025-.031.025-.031.025-.038.019-.038.019-.043.47-1.236-.138-.069-.464 1.242-.025.05-.025.037-.031.032-.038.025-.037.013-.032.006h-.038l-.03-.013-.032-.019-.025-.025-.019-.037-.019-.044-.012-.044v-.05l.006-.05.012-.05.464-1.242-.131-.069-.464 1.235-.013.05-.012.044-.007.044v.132l.013.038.006.037.025.044.025.044.026.038.03.03.038.032.044.019.05.019.057.006Zm4.733-.382h-.132v-.07l-.025-.112-.018-.044-.026-.031-.03-.026-.038-.018-.044-.006-.05.006-.044.012-.038.025-.025.032-.025.044-.013.056-.012.063v.112l.006.038.006.032.013.03.037.051.02.019.024.019.038.025.056.025.05.025.038.019.07.037.055.044.044.044.038.05.025.057.019.062.012.07v.074l-.012.107-.019.1-.012.044-.019.038-.013.037-.025.032-.018.031-.032.025-.025.019-.031.019-.032.019-.037.012-.044.007h-.094l-.057-.013-.044-.019-.043-.025-.038-.038-.031-.043-.032-.057-.025-.056-.006-.05-.013-.07v-.194h.126v.1l.006.088.013.07.024.056.013.025.019.019.019.018.025.013.019.006.025.013h.062l.05-.007.044-.018.038-.02.025-.03.025-.044.019-.05.012-.057.007-.063-.006-.056-.007-.05-.012-.038-.02-.037-.018-.032-.031-.031-.032-.019-.037-.025h-.013l-.012-.019-.032-.012-.044-.02-.094-.056-.062-.043-.032-.025-.031-.032-.019-.037-.019-.044-.018-.05-.006-.057-.007-.063v-.069l.007-.106.012-.088.012-.044.02-.038.012-.037.019-.031.025-.025.019-.026.031-.025.025-.012.031-.019.032-.006.075-.013.038.006.043.007.032.006.037.013.025.018.032.02.025.024.019.032.018.03.02.038.012.038.012.044.013.094.006.107ZM25.554 70.63l.006-.032.007-.025.012-.018.013-.02.012-.012.019-.006.025-.007h.05l.019.007.019.012.019.013.012.019.006.025.007.031.006.038v.031l-.013.038-.012.031-.025.025-.025.025-.025.02-.025.011-.032.007v.025l.057.006.044.007.03.018.032.019.02.025.018.025.012.025.007.032v.05l-.007.025-.006.025-.012.025-.02.025-.018.019-.019.013-.025.018-.025.007-.031.006-.032.006-.024-.05-.02-.019-.012-.006-.019-.007-.019.007-.018.012-.013.02-.006.024v.025l.012.013.02.019.024.019.025.006.019.012h.075l.044-.012.044-.019.044-.031.031-.038.032-.038.024-.05.013-.044v-.05l-.006-.05-.006-.025-.025-.05-.02-.019-.024-.025-.026-.019-.024-.019-.038-.019.05-.037.038-.044.018-.044.013-.044v-.037l-.006-.044-.013-.038-.019-.031-.03-.025-.032-.025-.032-.013-.037-.006-.044.006-.038.013-.037.025-.032.037-.018.025-.007.032-.006.037-.006.038.031-.006Zm-.67-.063-.02-.038-.03-.025-.013-.006-.02-.006h-.037l-.025.006-.012.006-.02.02-.012.018-.006.025-.006.038-.006.031v.119l.012.082.012.037.02.025.018.013.013.006h.043l.038-.013.038-.012.025-.025.006-.013.006-.019.007-.043.006-.063-.006-.038-.007-.043-.012-.038-.013-.044Zm-.277.74v-.025l.05-.02.044-.018.044-.025.032-.038.044-.062.037-.063.025-.075.019-.07-.044.026-.031.025-.019.006-.019.007h-.05l-.031-.007-.025-.019-.026-.018-.018-.038-.019-.038-.019-.044-.006-.05v-.05l.006-.044.013-.05.012-.044.019-.044.019-.031.018-.019.026-.019.019-.012.044-.019h.062l.025.006.025.013.019.012.038.044.031.05.025.057.019.069.006.075v.082l-.006.075-.019.075-.012.038-.02.037-.018.038-.025.031-.025.031-.031.032-.038.025-.032.025-.043.019-.044.019-.05.019-.05.006Zm-.77-.182-.013.006-.007.007-.012.006-.019.006-.044-.006-.056-.007-.006.025.332.088.006-.025-.044-.018-.031-.02-.007-.012-.006-.013v-.025l.195-.733-.063.025-.069.013-.069.012-.069.006-.006.032h.05l.05.006.02.012.011.013v.025l-.006.031-.138.546Zm2.82-.207-.1-.42-.144.483.244-.063Zm-.056-.564.132.545.069-.012.025.081-.075.013.062.244-.075.019-.063-.245-.288.07-.025-.088.2-.62.038-.007ZM112.391 74.814l.522-1.023-.831-1.963.078.013.071.006h.315l.083-.006.078-.013.032.09.032.103.039.11.038.122.052.128.045.135.058.148.057.155.039.09.032.077.026.064.026.052.161-.412.083-.212.077-.219.078-.212.084-.22.038.014.039.006h.167l.045-.006.045-.013-.418.94-.135.302-.123.283-.122.27-.109.264-.103.25-.09.239-.084.225-.077.213h-.348Zm-1.936-2.33.006.11.013.096.019.084.026.07.038.052.02.02.019.012.026.02.026.006.032.006h.064l.032-.006.052-.026.025-.02.02-.025.019-.026.019-.038.033-.078.019-.096.013-.11.006-.135-.006-.102-.02-.09-.019-.078-.026-.064-.019-.032-.019-.02-.02-.019-.019-.02-.026-.012-.025-.013-.026-.006-.032-.007-.033.007-.032.006-.032.013-.026.02-.025.019-.026.019-.019.032-.02.032-.013.032-.012.045-.013.04-.007.05-.012.11v.122Zm1.241-.669v.174h-.366l.051.045.039.045.038.051.032.058.039.116.013.129-.013.083-.013.071-.019.071-.026.064-.032.058-.039.058-.045.045-.045.045-.058.039-.064.038-.071.026-.077.026-.077.02-.09.012-.097.013h-.128l-.058.006-.045.007-.026.006-.02.013-.006.02-.006.012-.02.026-.012.02-.007.019.007.019v.052l.012.045.013.019.013.019.019.013.02.013.045.025.058.013.071.007h.083l.354.013.071.006.064.013.064.013.058.013.052.02.051.025.078.051.038.032.026.039.026.039.025.045.013.045.013.045.006.058v.051l-.006.103-.019.09-.026.09-.032.078-.039.077-.045.07-.058.065-.064.058-.071.051-.077.045-.084.039-.096.032-.103.032-.109.02-.116.019-.123.013-.096-.007-.09-.013-.084-.012-.077-.02-.071-.025-.071-.026-.058-.026-.051-.032-.052-.039-.077-.077-.025-.045-.026-.052-.019-.05-.007-.059-.006-.064.006-.084.013-.077.026-.064.038-.065.045-.051.058-.045.071-.045.077-.033.065-.025-.033-.02-.051-.012-.039-.02-.038-.032-.026-.032-.026-.039-.013-.045-.013-.051V73.5l.007-.065.019-.057.026-.058.032-.058.045-.052.052-.045.064-.038.071-.039.064-.02-.064-.012-.116-.039-.052-.025-.045-.033-.038-.032-.039-.032-.038-.045-.026-.038-.026-.046-.026-.051-.012-.052-.026-.116v-.206l.006-.07.02-.065.051-.115.039-.052.103-.09.057-.032.071-.032.071-.026.084-.026.09-.013.096-.012.11-.013h.18l.058.006.051.007.045.006h.682Zm-1.467 2.246-.013.032-.006.038v.033l.006.045v.051l.013.045.013.045.013.045.019.039.026.038.032.033.032.032.033.026.045.025.045.02.051.02.052.012.058.013.058.012h.07l.052-.006.045-.006.051-.013.039-.02.045-.019.038-.02.033-.018.032-.032.032-.026.026-.032.026-.039.019-.032.019-.045.013-.039.013-.045.006-.051v-.103l-.013-.04-.013-.044-.025-.038-.026-.033-.026-.032-.038-.026-.039-.019-.045-.026-.051-.013-.058-.013-.058-.006-.065-.006h-.238l-.077.006-.071.013-.058.026-.025.013-.026.019-.019.026-.02.019-.013.026-.012.025-.013.032-.007.033Zm-1.834-2.092-.051.007-.045.013-.045.02-.045.025-.033.032-.038.039-.026.044-.032.052-.019.058-.026.064-.019.071-.013.077-.013.084-.007.09-.006.103v.2l.013.18.013.077.013.07.019.072.019.057.026.058.026.045.026.039.032.039.038.025.039.026.045.013.045.013h.045l.045-.007.045-.013.039-.019.032-.026.039-.032.032-.045.025-.045.026-.058.026-.064.019-.07.019-.078.013-.084.026-.193.013-.225-.006-.167-.02-.142-.019-.07-.013-.058-.019-.052-.026-.052-.026-.045-.025-.032-.033-.032-.032-.032-.038-.02-.039-.012-.039-.013-.045-.007Zm-.019 1.854-.116-.007-.109-.013-.103-.025-.097-.026-.09-.039-.083-.038-.071-.052-.129-.116-.051-.07-.045-.078-.033-.083-.032-.097-.019-.096-.019-.103-.007-.116.007-.123.019-.115.019-.11.032-.103.033-.09.045-.083.051-.084.064-.07.065-.059.071-.058.083-.045.09-.045.097-.032.103-.026.109-.012.116-.013.116.013.109.012.103.026.097.026.083.038.084.046.071.051.071.058.058.064.051.071.045.077.039.084.032.09.019.103.019.103.007.11-.007.128-.019.116-.019.11-.032.096-.039.096-.045.084-.051.077-.058.071-.142.116-.084.045-.083.039-.097.032-.103.019-.109.02-.116.006Zm-1.647-3.108v3.076h-.554v-3.076h.058l.084.013.039.006h.07l.032-.006h.116l.084-.013h.071Zm-2.188 1.254-.052.007-.045.013-.045.02-.038.025-.039.032-.032.039-.032.044-.026.052-.026.058-.019.064-.019.071-.013.077-.013.084-.006.09-.007.103v.2l.007.09.006.09.013.077.013.07.012.072.02.057.026.058.025.045.033.039.031.039.033.025.045.026.038.013.046.013h.051l.045-.007.039-.013.038-.019.039-.026.032-.032.032-.045.032-.045.026-.058.019-.064.026-.07.013-.078.019-.084.026-.193.013-.225-.013-.167-.019-.142-.013-.07-.019-.058-.02-.052-.019-.052-.026-.045-.032-.032-.032-.032-.032-.032-.032-.02-.039-.012-.045-.013-.045-.007Zm-.013 1.854-.122-.007-.11-.013-.103-.025-.096-.026-.09-.039-.078-.038-.077-.052-.064-.058-.058-.058-.051-.07-.045-.078-.039-.083-.032-.097-.02-.096-.013-.103-.006-.116.006-.123.013-.115.02-.11.032-.103.039-.09.045-.083.051-.084.058-.07.064-.059.077-.058.078-.045.09-.045.096-.032.103-.026.11-.012.122-.013.116.013.109.012.097.026.096.026.09.038.078.046.077.051.064.058.058.064.052.071.044.077.039.084.032.09.026.103.013.103.013.11-.013.128-.013.116-.026.11-.032.096-.039.096-.044.084-.052.077-.058.071-.064.058-.077.058-.078.045-.09.039-.096.032-.097.019-.109.02-.116.006Zm-3.404-.032v-1.963l.064.013.065.006h.276l.065-.006.07-.013v.302l.142-.141.077-.052.077-.051.084-.032.084-.033.09-.019.09-.006.077.006.071.007.071.019.064.02.058.025.051.038.052.04.039.05.038.052.032.064.026.065.02.07.019.084.013.084.006.09v1.28h-.56V72.64l-.013-.135-.013-.065-.012-.051-.02-.052-.019-.045-.019-.038-.026-.033-.032-.032-.026-.02-.039-.019-.032-.012-.045-.007h-.038l-.052.007-.045.006-.039.013-.038.02-.032.025-.032.032-.033.039-.019.045-.026.045-.019.058-.013.058-.013.064-.006.077v.078l-.007.083.007.084v.927h-.56Zm-1.93-3.076v1.402l.07-.07.071-.065.077-.051.071-.045.077-.039.078-.026.077-.019.083-.006.071.006.071.007.064.012.065.026.057.026.052.032.052.039.045.045.045.045.032.045.032.058.026.058.019.07.013.071.006.077v1.378h-.553v-.992l-.007-.16-.012-.135-.007-.065-.02-.051-.012-.052-.02-.045-.025-.038-.026-.033-.026-.032-.032-.02-.032-.019-.038-.012-.039-.007h-.039l-.051.007-.045.006-.045.013-.039.02-.038.025-.033.032-.025.039-.026.045-.02.045-.019.058-.012.058-.013.064-.007.077v.161l.007.084v.927h-.56v-3.076h.058l.083.013.039.006h.07l.033-.006h.148l.07-.013h.059ZM98.1 71.969l-.155.431h-.096l-.026-.09-.039-.083-.038-.071-.052-.058-.026-.026-.025-.025-.032-.02-.033-.019-.07-.02-.078-.019-.058.007-.051.013-.045.02-.052.025-.038.032-.045.039-.032.038-.039.045-.026.058-.025.058-.026.064-.02.071-.019.077-.013.084-.012.09-.007.097v.096l.007.09.012.084.02.077.019.07.032.065.026.064.038.052.046.045.045.039.051.038.051.026.065.02.064.019.071.006.077.007.058-.007.064-.006.058-.013.052-.026.051-.026.052-.032.051-.038.045-.046.065.045-.097.258-.051.026-.052.019-.058.02-.064.019-.148.025-.174.02-.122-.007-.122-.013-.11-.025-.103-.026-.096-.039-.09-.045-.078-.045-.07-.058-.065-.064-.051-.07-.052-.084-.038-.084-.026-.09-.026-.103-.013-.103-.006-.116.013-.122.013-.11.026-.109.032-.097.045-.09.045-.083.058-.078.058-.07.07-.065.168-.103.09-.038.103-.032.11-.026.115-.02.122-.012.11.006.096.013.097.013.09.02.167.05.077.04.065.031Zm-2.317.85h-1.165v.09l.007.09.006.077.013.078.02.07.019.058.032.058.032.051.032.045.045.04.045.031.052.026.058.026.064.013.064.006.071.007.065-.007.064-.006.058-.013.064-.026.058-.026.058-.032.058-.038.058-.046.045.045-.077.226-.071.032-.065.032-.141.052-.077.013-.077.019-.078.006-.083.007-.123-.007-.115-.019-.104-.02-.102-.031-.09-.04-.084-.044-.142-.116-.058-.07-.051-.078-.045-.084-.039-.096-.026-.097-.025-.11-.013-.115-.007-.129.007-.109.038-.206.026-.09.039-.084.039-.077.051-.07.051-.065.065-.058.07-.051.071-.045.084-.04.09-.025.097-.026.102-.012.116-.013.103.006.097.02.096.019.084.032.077.038.071.046.058.051.058.058.045.07.045.072.032.083.026.09.02.097.012.109.006.11-.006.122Zm-1.165-.193h.612l-.013-.148-.013-.129-.02-.116-.031-.09-.02-.038-.02-.033-.019-.032-.025-.02-.026-.018-.026-.013-.032-.013-.026-.007-.045.007-.038.013-.033.013-.064.038-.025.032-.026.033-.026.038-.02.045-.012.045-.013.058-.013.058-.02.129-.006.148ZM92.83 71.3v2.49h-.605V71.3l-.129.007-.148.006-.16.013-.188.026h-.141l.013-.077.006-.104-.006-.077-.013-.077h2.104l-.013.038-.006.04v.038l.006.038-.006.058v.046l.006.038.013.039h-.058l-.064-.007-.058-.006-.058-.007-.148-.012-.135-.007-.116-.007-.097-.006Zm-3.527.798h-.302l.006-.064v-.136l-.006-.07h.302l.013-.097.02-.096.025-.09.026-.084.025-.084.04-.077.031-.07.045-.071.033-.065.032-.058.038-.058.039-.051.045-.045.045-.038.045-.033.052-.032.058-.026.057-.02.058-.012.065-.006.064-.007h.07l.072.007.07.013-.019.128-.006.129v.135l.013.135-.065.013-.09-.038-.083-.04-.09-.019-.09-.012h-.084l-.065.012-.026.007-.019.006-.02.013-.005.007-.026.019-.013.02-.007.019-.006.025.006.058.026.129.02.064.025.071.065.142.038.077h.412l-.013.064v.135l.013.071h-.38v1.693h-.579v-1.693Zm-1.68-.129-.044.007-.052.013-.038.02-.046.025-.038.032-.032.039-.032.044-.026.052-.026.058-.02.064-.019.071-.012.077-.013.084-.007.09-.006.103v.2l.006.09.007.09.013.077.013.07.019.072.038.115.033.045.025.039.033.039.077.051.038.013.045.013h.052l.045-.007.038-.013.04-.019.038-.026.032-.032.032-.045.032-.045.026-.058.026-.064.019-.07.02-.078.012-.084.026-.193.013-.225-.013-.167-.02-.142-.012-.07-.02-.058-.019-.052-.02-.052-.025-.045-.025-.032-.065-.064-.039-.02-.038-.012-.045-.013-.045-.007Zm-.012 1.854-.116-.007-.116-.013-.103-.025-.096-.026-.084-.039-.084-.038-.07-.052-.071-.058-.058-.058-.052-.07-.045-.078-.038-.083-.052-.193-.012-.103-.007-.116.007-.123.012-.115.026-.11.026-.103.038-.09.046-.083.051-.084.058-.07.142-.117.083-.045.084-.045.096-.032.103-.026.116-.012.116-.013.116.013.11.012.102.026.097.026.083.038.084.046.07.051.065.058.064.064.052.071.045.077.038.084.026.09.026.103.02.103.006.11-.007.128-.019.116-.026.11-.026.096-.038.096-.045.084-.052.077-.064.071-.064.058-.071.058-.084.045-.083.039-.097.032-.103.019-.11.02-.115.006Zm-3.925.99.527-1.022-.83-1.963.071.013.077.006h.316l.077-.006.083-.013.026.09.039.103.032.11.045.122.045.128.051.135.052.148.058.155.038.09.033.077.032.064.026.052.16-.412.078-.212.083-.219.078-.212.077-.22.045.014.038.006h.161l.045-.006.045-.013-.411.94-.136.302-.128.283-.116.27-.11.264-.103.25-.096.239-.084.225-.07.213h-.354Zm-1.056-2.715v1.152l-.006.058v.11l.007.044.006.039.032.064.026.026.025.02.026.012.039.013h.077l.045-.007.052-.012.051-.02v.161l-.064.02-.078.013-.096.012-.077.013-.064.007h-.117l-.057-.007-.058-.013-.052-.012-.051-.026-.039-.026-.039-.032-.038-.039-.026-.039-.026-.051-.019-.051-.02-.058-.012-.065-.007-.064v-1.242h-.289l.006-.064.007-.065-.007-.07-.006-.071h.29v-.463l.128-.052.142-.058.141-.07.148-.078v.72h.348l-.007.072-.006.07.006.065.007.064h-.347Zm-2.027-1.017.007-.07.019-.058.032-.052.032-.045.046-.038.051-.026.064-.02.065-.012.07.013.065.025.051.026.052.038.032.046.032.051.02.058.012.064-.013.065-.019.058-.032.051-.032.045-.052.039-.051.026-.065.019-.07.013-.071-.007-.065-.02-.051-.025-.045-.038-.032-.039-.026-.058-.02-.058-.006-.07Zm.045 2.71v-1.963l.071.013.071.006h.27l.07-.006.078-.013v1.963h-.56Zm-1.904-.496h.096l.039.084.045.07.051.058.052.052.064.038.065.026.07.02.078.006.07-.013.058-.02.052-.019.045-.032.032-.032.032-.038.02-.052.012-.052-.006-.038-.02-.039-.025-.038-.045-.04-.052-.038-.058-.038-.077-.032-.084-.039-.07-.026-.065-.032L79.06 73l-.051-.032-.052-.039-.052-.032-.077-.077-.032-.039-.032-.045-.026-.045-.02-.045-.012-.045-.013-.052-.006-.044v-.052l.006-.077.007-.064.019-.071.02-.058.025-.058.032-.052.039-.045.038-.045.045-.038.052-.032.058-.033.064-.025.065-.02.07-.019.078-.013.083-.006.078.006.083.013.077.013.078.026.07.025.071.032.129.078-.02.09-.025.09-.026.09-.026.077h-.11l-.025-.07-.032-.065-.045-.051-.045-.045-.052-.04-.057-.031-.071-.02-.071-.012-.064.013-.058.012-.052.02-.038.025-.033.033-.026.038-.012.045-.007.058.007.039.019.045.026.038.038.039.052.039.058.032.07.038.084.032.071.026.07.032.065.033.058.032.058.038.045.032.045.04.045.038.032.045.032.045.026.045.02.045.019.045.013.052.006.051v.051l-.006.078-.013.064-.02.064-.025.058-.032.052-.04.051-.038.045-.045.04-.058.037-.058.033-.064.032-.064.02-.077.019-.078.012-.09.013-.09.007-.077-.007-.084-.006-.07-.013-.142-.039-.064-.019-.116-.058.006-.084.02-.109.019-.103.013-.09Zm-1.725.496v-1.963l.07.013.072.006h.283l.07-.006.065-.013v.508l.02-.064.025-.058.026-.058.064-.103.032-.045.039-.039.039-.038.045-.032.045-.026.051-.026.052-.02.051-.012.058-.013.058-.006h.064l-.013.148-.006.141v.142l.006.129-.032.032-.058-.026-.051-.026-.052-.006-.051-.007-.07.007-.072.019-.058.02-.051.031-.045.04-.039.044-.026.052-.019.058-.02.083-.012.11-.006.128.006.155v.72h-.56Zm-.624-.972H75.23v.18l.007.077.013.078.019.07.025.058.026.058.033.051.038.045.045.04.045.031.052.026.058.026.058.013.07.006.071.007.065-.007.057-.006.064-.013.058-.026.058-.026.058-.032.058-.038.058-.046.052.045-.084.226-.129.064-.07.026-.078.026-.07.013-.078.019-.167.013-.122-.007-.219-.038-.097-.032-.09-.04-.083-.044-.077-.058-.065-.058-.064-.07-.052-.078-.045-.084-.032-.096-.032-.097-.02-.11-.012-.115-.007-.129.007-.109.013-.103.019-.103.032-.09.032-.084.046-.077.044-.07.058-.065.058-.058.07-.051.078-.045.084-.04.09-.025.097-.026.103-.012.109-.013.11.006.096.02.09.019.084.032.077.038.07.046.065.051.051.058.052.07.038.072.039.083.026.09.02.097.012.109v.232Zm-1.165-.193h.605l-.006-.148-.013-.129-.026-.116-.032-.09-.013-.038-.02-.033-.025-.032-.02-.02-.025-.018-.032-.013-.026-.013-.032-.007-.039.007-.038.013-.039.013-.032.019-.026.02-.032.031-.026.033-.02.038-.019.045-.019.045-.013.058-.012.058-.013.129-.007.148Zm-2.316-.798.444 1.422.07-.174.13-.347.063-.18.059-.174.057-.18.058-.187.058-.18.045.013.039.006h.167l.039-.006.045-.013v.026l-.007.019-.013.02-.012.012v.02l-.058.122-.058.115-.045.123-.045.115-.039.084-.038.11-.084.186-.071.174-.07.167-.059.155-.058.148-.09.257-.032.11h-.418l-.02-.052-.019-.052-.019-.058-.02-.064-.096-.27-.096-.257-.084-.239-.084-.225-.077-.212-.07-.193-.071-.18-.058-.161.077.013.084.006h.308l.084-.006.084-.013Zm-1.821-.747.013-.07.019-.058.026-.052.038-.045.039-.038.058-.026.058-.02.064-.012.07.013.065.025.058.026.045.038.039.046.025.051.026.058.007.064-.007.065-.026.058-.025.051-.039.045-.045.039-.058.026-.064.019-.071.013-.07-.007-.058-.02-.058-.025-.046-.038-.032-.039-.026-.058-.019-.058-.006-.07Zm.045 2.71v-1.963l.07.013.078.006h.264l.07-.006.078-.013v1.963h-.56Zm-2.555 0v-1.963l.064.013.065.006h.276l.065-.006.07-.013v.302l.072-.07.07-.071.077-.052.078-.051.083-.032.084-.033.084-.019.096-.006.077.006.071.007.07.019.065.02.058.025.052.038.045.04.045.05.038.052.032.064.026.065.02.07.019.084.013.084.006.09v1.28h-.56V72.64l-.013-.135-.012-.065-.013-.051-.02-.052-.019-.045-.02-.038-.025-.033-.032-.032-.026-.02-.038-.019-.033-.012-.045-.007h-.038l-.052.007-.045.006-.038.013-.04.02-.031.025-.032.032-.033.039-.019.045-.025.045-.02.058-.013.058-.013.064-.006.077v.078l-.007.083.007.084v.927h-.56Zm-3.256-.972v-1.802h.058l.084.013.045.006h.077l.039-.006.025.006h.071l.045-.006.09-.013h.071v1.145l-.007.258.007.219.013.174.02.135.012.077.013.07.02.065.025.058.032.058.032.051.045.045.045.039.045.038.046.039.05.032.059.026.058.02.064.012.07.007h.194l.058-.007.115-.026.052-.025.045-.02.045-.032.045-.032.077-.077.039-.052.032-.045.032-.058.026-.057.026-.065.02-.051.012-.065.02-.083.006-.097.019-.245v-1.53h.322v1.447l.006.116v.103l-.006.103-.007.096-.013.09-.019.084-.02.084-.025.077-.026.07-.038.065-.032.064-.045.052-.045.051-.052.052-.051.038-.058.04-.084.037-.09.04-.09.031-.097.026-.193.038-.103.013h-.231l-.116-.012-.11-.013-.103-.02-.096-.019-.09-.032-.084-.032-.077-.039-.07-.045-.065-.045-.058-.058-.052-.058-.044-.058-.039-.07-.026-.071-.026-.078-.032-.109-.02-.122-.012-.135Zm-1.77-.483v1.12l-.006.051.013.039.013.032.02.032.031.02.039.012.045.007h.051v.097l-.032.012-.032.02-.097.019-.083.013-.07.013h-.052l-.078-.007-.064-.019-.058-.02-.051-.031-.052-.04-.038-.044-.033-.052-.025-.058-.052.058-.051.052-.058.045-.058.039-.071.032-.077.019-.077.02-.084.006-.07-.007-.065-.006-.065-.013-.102-.039-.052-.019-.045-.032-.038-.026-.033-.032-.032-.039-.026-.045-.019-.038-.02-.052-.012-.051-.006-.052-.007-.058-.007-.058.007-.058.007-.051.019-.051.02-.052.031-.045.039-.039.038-.045.052-.038.058-.032.064-.032.071-.033.077-.026.084-.025.09-.02.103-.019.026-.006.051-.013.071-.013.058-.026.051-.026.046-.025.025-.039.02-.038.012-.04.007-.044-.02-.071-.025-.064-.039-.058-.045-.052-.051-.045-.065-.032-.07-.026-.084-.019-.077.007-.071.012-.065.026-.064.026-.058.032-.058.045-.051.052-.052.051h-.032l-.051-.238.077-.058.077-.051.09-.045.09-.04.097-.031.103-.02.103-.019.115-.006.09.006.084.013.084.013.07.02.071.025.065.02.058.031.051.032.045.033.039.045.032.038.032.045.026.052.02.051.006.058.012.058Zm-.56.798v-.399l-.057.026-.071.026-.097.032-.077.032-.064.032-.052.032-.032.033-.025.038-.026.045-.02.039-.012.045-.007.039-.006.044v.052l.006.077.013.071.013.051.026.052.032.032.038.032.045.013.052.007h.038l.033-.007.025-.006.033-.013.025-.013.026-.02.026-.019.019-.025.02-.033.013-.032.019-.038.012-.039.02-.097.013-.109Zm-3.48.657v-1.963l.064.013.064.006h.27l.071-.006.071-.013v.302l.142-.141.154-.103.077-.032.09-.033.084-.019.09-.006.077.006.078.007.07.019.058.02.065.025.051.038.045.04.045.05.039.052.032.064.026.065.019.07.02.084.006.084.006.09v1.28h-.553v-.99l-.007-.161-.013-.135-.006-.065-.02-.051-.012-.052-.02-.045-.025-.038-.026-.033-.026-.032-.032-.02-.032-.019-.039-.012-.038-.007h-.039l-.051.007-.045.006-.04.013-.038.02-.038.025-.032.032-.026.039-.026.045-.02.045-.019.058-.012.058-.013.064-.007.077-.006.078v1.094h-.554Zm-1.346-2.71.013-.07.02-.058.025-.052.04-.045.044-.038.052-.026.057-.02.065-.012.077.013.058.025.058.026.045.038.038.046.026.051.026.058.013.064-.013.065-.026.058-.026.051-.038.045-.045.039-.058.026-.058.019-.077.013-.07-.007-.059-.02-.058-.025-.038-.038-.039-.039-.026-.058-.02-.058-.005-.07Zm.046 2.71v-1.963l.077.013.07.006h.264l.071-.006.077-.013v1.963h-.56Zm-1.995-3.076v1.402l.07-.07.078-.065.07-.051.078-.045.077-.039.077-.026.078-.019.077-.006.077.006.064.007.071.012.058.026.058.026.058.032.045.039.051.045.039.045.032.045.032.058.026.058.02.07.012.071.007.077.006.084v1.294h-.56v-1.152l-.013-.135-.013-.065-.012-.051-.02-.052-.02-.045-.018-.038-.026-.033-.032-.032-.026-.02-.039-.019-.032-.012-.038-.007h-.045l-.052.007-.045.006-.045.013-.039.02-.032.025-.032.032-.032.039-.026.045-.02.045-.018.058-.013.058-.007.064-.006.077-.007.078v.083l.007.084v.927h-.56v-3.076h.058l.083.013.04.006h.076l.033-.006h.141l.07-.013h.059Zm-1.23 2.6.046.032-.077.347-.097.032-.193.052-.103.019-.103.013-.103.013-.11.012h-.109l-.18-.006-.16-.02-.161-.031-.142-.039-.071-.026-.064-.025-.065-.033-.057-.032-.058-.032-.058-.039-.052-.038-.045-.039-.051-.045-.039-.045-.045-.045-.039-.051-.032-.058-.032-.052-.032-.058-.026-.064-.026-.064-.025-.065-.013-.064-.02-.07-.025-.155-.013-.155.006-.09.007-.09.013-.084.013-.083.012-.077.02-.078.025-.077.026-.07.026-.065.032-.07.032-.065.039-.058.038-.058.045-.058.046-.051.05-.045.052-.052.058-.045.058-.038.058-.04.065-.038.07-.032.071-.032.071-.026.077-.026.077-.019.084-.026.084-.013.18-.025.193-.02.116.007.116.013.109.02.103.025.103.026.096.031.097.04.09.044-.026.058-.019.065-.02.077-.012.09-.013.077-.007.052h-.064l-.07-.084-.072-.07-.077-.065-.083-.052-.084-.045-.09-.032-.097-.026-.096-.013-.11.013-.102.02-.097.032-.09.032-.084.052-.077.05-.07.072-.065.07-.058.084-.045.09-.045.103-.039.11-.025.122-.026.129-.013.135-.013.148.006.141.02.129.019.122.032.116.033.103.044.097.052.083.058.078.064.07.071.064.077.052.084.039.096.038.097.026.11.02.109.006.096-.007.097-.013.09-.025.096-.032.09-.046.09-.051.09-.058.09-.07Zm-5.109-2.6v1.402l.071-.07.078-.065.07-.051.078-.045.077-.039.077-.026.077-.019.078-.006.077.006.07.007.065.012.058.026.058.026.058.032.051.039.045.045.039.045.038.045.026.058.026.058.02.07.012.071.013.077v1.378h-.56v-1.152l-.013-.135-.013-.065-.012-.051-.02-.052-.02-.045-.018-.038-.052-.065-.032-.02-.032-.019-.04-.012-.038-.007h-.045l-.051.007-.045.006-.039.013-.045.02-.032.025-.032.032-.032.039-.02.045-.025.045-.013.058-.02.058-.006.064-.007.077-.006.078v.083l.006.084v.927h-.56v-3.076h.065l.084.013.038.006h.071l.032-.006h.142l.07-.013h.058Zm-1.454 1.383v1.152l-.006.058v.11l.006.044.026.078.013.025.026.026.025.02.033.012.032.013h.077l.045-.007.051-.012.052-.02v.161l-.064.02-.078.013-.096.012-.077.013-.065.007h-.116l-.058-.007-.057-.013-.052-.012-.045-.026-.045-.026-.039-.032-.032-.039-.032-.039-.026-.051-.019-.051-.02-.058-.012-.065-.007-.064v-1.242h-.283v-.064l.007-.065-.007-.07v-.071h.283v-.463l.135-.052.136-.058.141-.07.148-.078v.72h.354l-.013.072-.006.07.006.065.013.064h-.354Zm-1.377-.27v1.963h-.54v-.27l-.078.076-.077.058-.077.058-.077.039-.077.039-.078.019-.077.013h-.083l-.097-.007-.084-.013-.083-.019-.071-.026-.064-.032-.052-.032-.051-.045-.039-.052-.032-.038-.026-.052-.02-.058-.019-.064-.012-.077-.013-.084-.007-.096v-.103l.007-.032.013-.033v-1.132l.07.013.071.006h.277l.064-.006.07-.013v1.132l.007.103.007.09.019.078.02.064.025.052.026.044.032.04.032.031.039.02.045.013.038.006h.136l.045-.013.032-.02.039-.019.025-.025.032-.026.02-.039.026-.038.019-.045.013-.052.013-.058.006-.058.006-.064.007-.07-.007-.078v-1.068l.071.013.064.006h.284l.07-.006.071-.013Zm-3.365.141-.052.007-.045.013-.045.02-.045.025-.032.032-.039.039-.025.044-.033.052-.025.058-.02.064-.019.071-.013.077-.013.084-.006.09-.006.103v.2l.006.09.006.09.013.077.013.07.02.072.019.057.025.058.026.045.026.039.032.039.039.025.038.026.045.013.045.013h.045l.046-.007.045-.013.038-.019.032-.026.039-.032.032-.045.026-.045.026-.058.026-.064.019-.07.019-.078.013-.084.026-.193.012-.225-.006-.167-.026-.142-.013-.07-.013-.058-.019-.052-.025-.052-.026-.045-.026-.032-.064-.064-.039-.02-.039-.012-.038-.013-.045-.007Zm-.02 1.854-.115-.007-.11-.013-.103-.025-.096-.026-.09-.039-.084-.038-.07-.052-.072-.058-.057-.058-.052-.07-.045-.078-.032-.083-.032-.097-.02-.096-.02-.103-.005-.116.006-.123.02-.115.019-.11.032-.103.032-.09.045-.083.052-.084.058-.07.07-.059.071-.058.084-.045.09-.045.096-.032.103-.026.11-.012.115-.013.116.013.11.012.103.026.096.026.084.038.083.046.071.051.071.058.058.064.051.071.046.077.038.084.032.09.02.103.019.103.006.11-.006.128-.02.116-.019.11-.032.096-.038.096-.046.084-.051.077-.058.071-.07.058-.072.058-.083.045-.084.039-.096.032-.103.019-.11.02-.116.006Zm-1.756-2.285h-.045l-.045-.083-.045-.078-.058-.057-.052-.052-.064-.045-.07-.026-.071-.02-.078-.006-.051.007-.052.006-.051.007-.04.013-.044.019-.032.02-.032.019-.033.025-.025.026-.026.032-.02.032-.012.04-.013.038-.006.038-.007.045v.084l.007.026.006.032.013.032.038.058.058.064.071.058.084.065.103.064.116.064.167.09.077.052.077.051.065.052.058.051.058.052.051.051.045.058.039.058.032.058.026.058.019.058.02.064.006.058.006.064-.013.103-.02.09-.025.09-.032.084-.045.077-.045.071-.058.065-.064.057-.071.052-.077.045-.09.039-.09.032-.104.026-.109.025-.116.013-.129.006h-.083l-.077-.012-.084-.013-.084-.013-.083-.02-.078-.025-.083-.026-.077-.032.038-.129.026-.129.026-.135.019-.135h.084l.013.058.013.045.019.045.025.045.02.04.032.037.026.033.038.026.032.025.04.026.044.02.045.019.045.012.052.007.058.006.05.007.059-.007.052-.006.044-.007.045-.012.04-.02.038-.013.038-.025.032-.026.026-.026.026-.032.02-.032.019-.032.019-.039.013-.045.006-.045.007-.052-.007-.032-.006-.038-.006-.032-.014-.033-.019-.038-.026-.032-.025-.033-.032-.032-.071-.07-.09-.059-.11-.064-.122-.064-.084-.039-.077-.038-.07-.046-.071-.05-.058-.046-.058-.052-.052-.051-.045-.051-.038-.058-.039-.058-.026-.058-.025-.064-.02-.065-.013-.064-.006-.065-.006-.07.006-.097.02-.096.019-.084.025-.084.039-.07.038-.071.052-.064.051-.059.065-.045.07-.045.155-.077.09-.026.097-.019.102-.013.117-.013.09.007.09.013.09.02.083.018.078.026.077.032.07.039.071.038-.012.045-.02.046-.026.058-.019.057-.026.071-.012.052-.02.051-.006.032ZM45.733 54.122c.2-.837 1.216-.773 1.278.19.006.33-.076.568-.214.87-.288.631.125.743.626.209.896-.43 1.064-1.177 1.931-1.946.285-.255.563-.36.829-.243.284.187.457.419.518.68-.096.298-.247.483-.455.558-.452.044-1.182.256-1.668.755-.51.523-1.182.88-2.136 1.084-.018.671-.231 1.086-.517 1.86-.204.55.262.573.693.07.245-.652.519-.89.863-.776.442.392.573.395.893-.329l.3-.812c.198-.539.917-.43.881.102-.16.197-.25.202-.427.471-.329.5.042.798.484.239.181-.23.409-.372.634-.476.303-.14.682-.192.814.081.052.475-.362.575-.909.712-.614.154-1.054.602-1.631.825-.376.373-.732.83-1.04 1.47-.261.675-.104.75.698.32.824-.443 1.494-.829 2.108-.96.867-.353 1.371.193.747.646-.543.313-1.06.368-1.66.411-.504.509-1.704.349-2.228.99l-.075 1.342c-.077.579.046.741.575.487.425-.256 1.016-.077.983.37-.01.383-.238.615-.73.665l-.673-.017c-.162.97-.14 1.9.118 2.945.13.53.264 1.086.052 1.42a.68.68 0 0 1-1.1-.032l-.549-.574c-.215-.278.005-.528.51-.76.217-.653-.014-1.496.113-2.32h-.495c-.22.145-.31.427-.553.76-.39.534-.814.661-1.151.064l-.173-.407c-.048-.302.016-.494.41-.558.373-.334.82-.583 1.408-.774.323-.211.476-.462.513-.78l.016-.743c.02-.832-.172-.972-.786-.55-1.669.475-2.401 1.658-3.242 2.453-.255.241-.582.416-.92.508-.661.18-1.48-.412-.498-.952 1.768-.97 3.231-2.108 5.16-2.823.189-.109.398-.15.477-.444l.254-1.11c.048-.272-.058-.42-.318-.444-.369-.018-.522.221-.876.747a.956.956 0 0 1-.816.051c-.083.272-.227.481-.433.63-.32.065-.635.022-.739-.128-.12-.225-.052-.434.2-.634.377-.3.782-.43 1.184-.491.21-.158.259-.345.245-.604-.022-.256.146-.88.442-1.23l-.031-.53a.93.93 0 0 1-.508-.064c-.384-.21-.314-.583.075-.682.325-.023.461-.133.433-.428-.19-.498-.206-.962.086-1.364Zm39.237 4.49a7.544 7.544 0 0 0 2.255-.172c.55-.13.835-.23 1.192.043.677.538.23 1.26-.332 1.814-.705.694-1.209 1.27-1.404 1.762-.42.518-.114.689.347.406.773-.475.946.06.536.51-.659.288-1.293.471-1.934.505l-2.499 1.47c-.636.281-1.09.225-1.285-.155-.882-.036-.808-.686.034-.77.764-.106 1.677-.507 2.54-.91 1.033-1.353 1.89-2.582 2.905-3.522.266-.447.167-.594-.44-.471-.417.196-.806.392-1.223.587-.374.393-.854.424-1.229-.019-.854-1.19-.4-1.399.537-1.079Zm25.29-3.098c.24.615-.537 1.572-.817 2.217-.14.446-.53.454-1.009.39a.354.354 0 0 0-.33.128c-.224.39-.537.366-.806-.033-.521-.439-1.027-.318-.602.285.322.532.674 1.036.996 1.569.295.645.053.946-.329.58-.132-.246-.356-.421-.616-.54-.436-.044-.693-.078-.415.408.299.268.407.453.617.761.013.701.34 1.035.762.586.311-.52.56-1.017.822-1.207.527-.587 1.014-.013.378.42-.285.255.109.548.323.127.139-.202.3-.37.477-.42.381-.373.635-.231.545.153-.002.39.154.294.386.047.231-.73.903-.88.782-1.76-.254-.186-.472-.343-.144-.6.27.015.63-.264.899-.429.38-.316.641-.091.514.318-.477.855-1.058 1.768-1.512 2.564-.113.404-.408.653-.924.715-.627.244-1.269.655-1.927 1.055-.725.33-.673.605.035.42.575-.165 1.113-.446 1.651-.84.439-.392.732-.342.622.221-.252.42-.605.844-.858 1.265-.801.253-.523.617-.766.926-1.23.327-1.992 1.482-2.621 1.587-.884-.078-1.236 1.015.472.51.725-.444 1.351-.878 1.878-1.023.714-.395.88.018.967.546l.042 1.093c.029.664-.342.923-.967.927-.69-.047-1.325.535.757.537.771.278 1.063-.053.977-.363.26-.326.122-1.57-.207-2.633-.361-.348-.381-.736.118-1.06.482-.312.72-.174.575.119-.403.23-.181.606.071.347.13-.133.392-.343.769-.515.377-.42.615-.884-.385-1.046-.309.098-.558.04-.908.356-.46.416-.861.108-.211-.453.406-.378.887-.906 1.294-1.285.783-.472 1.235-.838.714-1.21-.395-.027-.809-.185-.345-.775.327-.275.804-.869 1.112-1.331.046-.388.429-.7.793-1.051.224-.662.123-1.455-1.34-.78-.393.135-.916.532-1.309.799-1.165.225-1.531-.106-1.209-.599.458-.36.89-.878 1.31-1.313.588-.44.696-.882-.122-1.414-.816-.587-1.52-.02-.979.704Zm-2.396 3.479c.009-.266.138-.343.35-.239.067.1.075.22-.026.337-.127.005-.248.031-.324-.098Zm.972.153c.194-.22.387-.317.58-.29.237.002.299.116.188.341-.405.256-.661.24-.768-.05Zm1.434.41c.194-.366.376-.37.546.008-.027.17-.078.35-.154.52-.22.305-.391.3-.512-.016.077-.208.117-.379.12-.512Zm-2.048.153c.131-.21.262-.198.392-.085.094.13.056.262 0 .392-.223.156-.387.206-.437.04.006-.097.039-.25.045-.347ZM96.579 57.91c.079.6.078 1.13.07 1.707.079.588-.172 1.028-.728 1.193-.346.188-.765.422-1.292.61-.935-.216-.88.93.122.803.388-.05.75-.233 1.072-.609.487-.329.547-.145.317.39-1.029 1.622-2.312 2.978-3.826 4.158-.763.509-.273.76.372.26.522-.35.832-.733 1.314-1.066a9.965 9.965 0 0 0 3.578-4.473c-.078-.317.17-.706.551-.699.35.007 1.134-.25.798-.742-.119-.173-.373-.271-.7-.053-.345.24-.638.278-.382-.285a.898.898 0 0 0 .171-.633c-.049-.476.567-.89-.204-1.23-.641-.787-1.54-.87-1.233.67Zm.744 4.91c-.056-.928.396-.854.934-.154.608.985 1.279 1.575 2.074 1.872.666.313.308.531-.133.503-.374 0-.654-.21-1.04.047-.313-.154-.66-.303-.912-.646-.325-.47-.691-.964-.923-1.622Zm-28.047-4.053c.474-.425.9-.803 1.42-.965.267-.29.556-.208.752.044.363.281.156.649-.01.978-.207.348-.264.65-.188.974-.246.621-.299 1.243-.263 1.864-.046.705.05.72.285.044.08-.073.171-.23.252-.303.298-.194.346-.007.165.391-.088.38-.258.714-.418.949-.257 1.379-.668 2.038-1.215 2.547-.709.346-1.003.202-.852-.424.096-.65.361-1.253.752-1.361a1.02 1.02 0 0 1-.044-.614c-.126-.172-.442-.125-.608.032-.692.086-.785-.163-.592-.468.278-.262.571-.388.85-.486.29-.098.477-.289.46-.614-.005-.518.08-1.025.175-1.601-.054-.465-.215-.567-.483-.22-.197.114-.56.18-.7.08-.53-.258-.311-.68.262-.847Zm3.62-.526c.356.12.534-.171.833-.594.578-.82 1.025-1.014 1.453-1.007.1-.223.391-.429.677-.494.375-.59.707-.604.916-.255.644.576.442 1.086-.085 1.626-.295 1.05-.8 2.134-1.243 3.147-.248.095-.373.218-.622.313-.27.22-.388.509-.438.949-.199.699-.141 1.002.478.795.95-.316 1.067.443.311.937-.145.343-.372.602-.526.878-.322.576.037.604.592.329.764-.17 1.322-.015 1.34.518.023.682-.397.774-.683.513-.133.03-.385-.09-.529.021-.464.356-1.13.297-1.533.056-.453-.195-.502-.45-.176-.75.3-.357.505-.902.135-1.359-.333-.238-.14-.534-.01-.767.1-.18-.117-.642-.058-.99-.434-.429-.418-.69-.087-.905.001-.202.034-.47.283-.844-.397-.316-.512-.575.024-.823.182-.344.336-.655.443-1.053.104-.536.294-.462.434-.11l.022.658c-.04.507.16.498.375-.089.285-.629.522-1.278.838-1.907-.016-.251-.103-.32-.423-.066-.537.454-.8.551-1.356.761-.592.275-.65.802-.991.819-.235.405-.1.93-.014 1.447-.004.878-.79.972-.878.326.008-.307-.015-.567-.007-.874-.232-.894-.249-1.523.504-1.206Zm-14.636-.33-2.727 1.314c-.56-.002-.881.322-.495.771l.495.406c.188.233.505.205.82-.065.264-.446.75-.72 1.282-.803.414-.487 1.01-.398.779.178-.26.575-.373.978-.373 1.51-.235.326-.524.518-.866.575-.592-.008-.805.436-.308.552.408.17.968-.079 1.376-.421.204-.38.417-.351.62-.112.286.346.557.203.816-.259.492-.755 1.29-.715 1.978-1.064.464-.149.436-.352.154-.835-.196-.203-.072-.425.222-.627l.66-.482c.437-.224.626-.15.533.311l-.073.463c-.66 2.098-.803 4.056-.901 6-.033.437-.268.513-.56.207l-.612-.394c-.397-.293-.726-.413-.475.2l1.501 1.363c.316.513.733.546 1.003-.054.096-.395.097-.593.002-1.111-.11-.598.035-1.236.218-1.887-.039-1.07.165-2.53.506-4.13.008-.45.144-.865.367-1.254-.202-.563-.679-.621-1.5-.161-.698.524-.985.837-1.789 1.235-.528.26-1.276.927-1.733 1.303-.358.202-.595.226-.566-.14.28-.358.417-.434.356-.655a5.666 5.666 0 0 0 1.332-1.52c.236-.388.701-.485 1.072-.519.459-.403.769-1.003.456-1.364l-.953-.002c-.193-.487-.628-.992-1.052-1.373-.185-.066-.296-.106-.463.022l-.177.387.04.777c-.222.33-.318.65-.354.925-.055.419-.251.63-.611.733Zm-2.263 5.33c-.053-.762.61-.936.855-.056.113.461.181.888.203 1.35.245.456.242 1.112-.08 1.66-.39.428-.742.462-.951.066-.39-.39-.436-.94-.14-1.514.14-.502.155-1.004.113-1.506Zm3.057-.884a2.747 2.747 0 0 1 1.15-.196c.458.112.482.39.145.729-.358-.023-.644.268-1.135.138-.14-.02-.32-.124-.596-.237-.038-.337.14-.536.436-.434Zm-.17 1.677c-.071-.554.182-.689.662-.441.18.219.399.098.688-.096.455-.304.755-.27.79.183-.134.253-.292.38-.472.382-.33.074-.397.37-.427.697-.02.334-.064.71-.014 1.027-.072.29-.134.507-.304.67-.203.192-.372.208-.571-.01-.134-.156-.251-.325-.247-.573.007-.206.023-.43.03-.636.029-.306-.259-.464-.551-.404-.507.045-.45-.345-.205-.44.36-.035.582-.095.62-.359Z"/></g><defs><filter id="a" x="-13" y="0" width="154" height="157" filterUnits="userSpaceOnUse" color-interpolation-filters="sRGB"><feFlood flood-opacity="0" result="BackgroundImageFix"/><feColorMatrix in="SourceAlpha" values="0 0 0 0 0 0 0 0 0 0 0 0 0 0 0 0 0 0 127 0" result="hardAlpha"/><feOffset dy="16"/><feGaussianBlur stdDeviation="6.5"/><feColorMatrix values="0 0 0 0 0 0 0 0 0 0 0 0 0 0 0 0 0 0 0.03 0"/><feBlend in2="BackgroundImageFix" result="effect1_dropShadow_49_4129"/><feBlend in="SourceGraphic" in2="effect1_dropShadow_49_4129" result="shape"/></filter></defs></svg>