<svg width="128" height="128" fill="none" xmlns="http://www.w3.org/2000/svg"><path fill-rule="evenodd" clip-rule="evenodd" d="M69.12 99.309c.155.137.282.307.38.511.097.203.157.433.178.688.021.256 0 .493-.065.709a1.564 1.564 0 0 1-.296.564 1.52 1.52 0 0 1-1.051.546 1.528 1.528 0 0 1-.634-.075 1.444 1.444 0 0 1-.52-.311 1.607 1.607 0 0 1-.367-.51 1.932 1.932 0 0 1-.173-.665c-.022-.263 0-.5.065-.713.064-.213.163-.4.294-.562.13-.16.287-.288.47-.383.182-.095.377-.15.583-.168.214-.018.42.006.616.07.196.065.37.164.52.299Zm27.661-22.187a.542.542 0 0 0-.023.125.807.807 0 0 0 .03.277c.01.027.04.085.09.175.104.177.213.345.328.506.115.162.262.365.44.61.066.091.122.157.169.198.046.041.12.084.223.13l.562.253c.049.022.097.032.142.029a.232.232 0 0 0 .134-.063c.025-.024.061-.07.11-.138.05-.067.086-.123.108-.169l.147.067-.62 1.376-.147-.066c.015-.04.036-.1.063-.182a.752.752 0 0 0 .043-.174.219.219 0 0 0-.04-.141.314.314 0 0 0-.119-.088l-.715-.322a.406.406 0 0 0-.139-.015 5.489 5.489 0 0 0-.24.01 33.999 33.999 0 0 0-1.24.088c-.1.01-.178.024-.234.041a.69.69 0 0 0-.16.073.448.448 0 0 0-.102.099.841.841 0 0 0-.077.115l-.147-.066.565-1.254.147.066a1.425 1.425 0 0 0-.105.312c-.01.065 0 .105.03.118a.16.16 0 0 0 .05.008h.094c.044-.001.095-.005.153-.009a24.185 24.185 0 0 0 .623-.044c.152-.012.351-.028.597-.05-.252-.373-.45-.662-.594-.864-.144-.201-.236-.312-.275-.33a.104.104 0 0 0-.092.002.271.271 0 0 0-.087.073.714.714 0 0 0-.081.12 5.827 5.827 0 0 1-.07.126l-.148-.066.46-1.023.147.067Zm.338 3.565c-.013.034-.03.08-.05.14a.523.523 0 0 0-.034.151.2.2 0 0 0 .04.132.36.36 0 0 0 .116.094l.221.12.327.172.142.067a3.415 3.415 0 0 1-.1.632c-.053.2-.124.385-.216.556a1.573 1.573 0 0 1-.915.756c-.195.06-.405.078-.627.055a1.804 1.804 0 0 1-.671-.216c-.218-.117-.4-.26-.547-.432a1.637 1.637 0 0 1-.32-.564 1.523 1.523 0 0 1-.068-.624c.02-.216.084-.424.192-.625a1.535 1.535 0 0 1 .595-.63l-.092-.155.086-.161 1.007.517-.089.166a3.227 3.227 0 0 0-.38-.07 1.316 1.316 0 0 0-.374.006.845.845 0 0 0-.33.132.81.81 0 0 0-.258.298.935.935 0 0 0-.12.431.95.95 0 0 0 .104.433c.067.142.172.28.314.413a2.483 2.483 0 0 0 1.068.575c.184.043.356.054.518.033a.986.986 0 0 0 .78-.53c.062-.117.102-.234.118-.351a.668.668 0 0 0-.004-.267 1.682 1.682 0 0 0-.202-.131l-.18-.099-.157-.084a.516.516 0 0 0-.162-.057.181.181 0 0 0-.147.044.71.71 0 0 0-.142.155c-.05.071-.089.127-.115.169l-.147-.08.672-1.25.147.079Zm-3.29 2.617c.203-.034.415-.026.635.027.22.052.436.15.647.294.213.145.383.31.51.497.129.186.212.381.252.585a1.51 1.51 0 0 1-.236 1.16c-.127.187-.28.335-.457.446a1.44 1.44 0 0 1-.569.208 1.6 1.6 0 0 1-.627-.035 1.94 1.94 0 0 1-.626-.284 1.886 1.886 0 0 1-.513-.5 1.634 1.634 0 0 1-.252-.582 1.483 1.483 0 0 1-.002-.606c.041-.201.12-.388.237-.559.12-.178.268-.322.442-.434.174-.112.36-.185.56-.217h-.001Zm1.708 1.575a1.533 1.533 0 0 0-.284-.418 2.716 2.716 0 0 0-.453-.379 2.683 2.683 0 0 0-.543-.29 1.504 1.504 0 0 0-.5-.11.858.858 0 0 0-.762.388.835.835 0 0 0-.158.455.978.978 0 0 0 .101.45c.068.137.166.272.293.404.128.133.274.254.437.366.181.123.357.218.525.284.168.067.333.104.495.11a.915.915 0 0 0 .434-.08.847.847 0 0 0 .346-.306.86.86 0 0 0 .069-.874Zm-1.808 1.926.688.671-1.628 1.924-.123-.105a6 6 0 0 0 .09-.13c.039-.058.062-.101.07-.13a.193.193 0 0 0-.002-.13.298.298 0 0 0-.09-.118l-1.763-1.492a.327.327 0 0 0-.12-.068.195.195 0 0 0-.14.017.83.83 0 0 0-.136.078.872.872 0 0 0-.124.099l-.123-.104.88-1.04.123.105c-.027.034-.056.08-.09.14-.032.06-.055.105-.066.135a.169.169 0 0 0 .002.142c.022.043.051.08.09.112l1.653 1.4c.076.064.138.11.187.138a.21.21 0 0 0 .142.03.31.31 0 0 0 .141-.084 3.577 3.577 0 0 0 .307-.349c.037-.048.069-.096.098-.144a.955.955 0 0 0 .066-.136.238.238 0 0 0 .017-.115 2.096 2.096 0 0 0-.1-.37 2.312 2.312 0 0 0-.153-.353l.104-.123Zm-3.615 1.365c.206.005.413.054.619.148.206.092.398.23.579.412a1.9 1.9 0 0 1 .406.584c.09.208.135.415.135.623a1.516 1.516 0 0 1-.454 1.094c-.16.159-.338.275-.533.35a1.438 1.438 0 0 1-.599.096 1.6 1.6 0 0 1-.608-.155 1.936 1.936 0 0 1-.56-.398 1.886 1.886 0 0 1-.41-.588 1.635 1.635 0 0 1-.135-.62 1.485 1.485 0 0 1 .113-.595c.08-.19.192-.358.34-.503.152-.152.325-.266.516-.343.193-.076.39-.112.591-.105Zm1.376 1.872a1.533 1.533 0 0 0-.198-.465 2.72 2.72 0 0 0-.373-.458 2.686 2.686 0 0 0-.477-.389 1.507 1.507 0 0 0-.47-.203.857.857 0 0 0-.822.236.834.834 0 0 0-.243.416.979.979 0 0 0 .014.46c.041.149.111.3.21.454.101.154.22.301.36.442a2.7 2.7 0 0 0 .46.38c.153.097.308.165.465.202.153.038.3.039.442.004a.848.848 0 0 0 .398-.234.862.862 0 0 0 .234-.845Zm-3.51-.037a.952.952 0 0 0-.124.152.684.684 0 0 0-.098.173c-.017.064.002.142.057.234.054.093.134.202.239.326l1.504 1.774-.149.126-3.148-.737 1.06 1.25c.118.14.218.24.3.3a.39.39 0 0 0 .216.091.52.52 0 0 0 .221-.067c.102-.047.165-.082.192-.103l.103.12-.994.843-.102-.12a1.27 1.27 0 0 0 .126-.166.553.553 0 0 0 .092-.17.332.332 0 0 0-.043-.215 2.24 2.24 0 0 0-.262-.354l-1.012-1.193a.614.614 0 0 0-.16-.134.38.38 0 0 0-.177-.06.689.689 0 0 0-.248.045.803.803 0 0 0-.207.1l-.102-.12.691-.587 2.93.692-.978-1.153a1.953 1.953 0 0 0-.303-.302c-.082-.06-.151-.088-.207-.084a.77.77 0 0 0-.21.07c-.09.04-.153.075-.193.105l-.103-.121.985-.836.103.121ZM86.95 94.9l-1.115.773-.093-.134.124-.103a.45.45 0 0 0 .102-.105.191.191 0 0 0 .036-.127.298.298 0 0 0-.057-.138l-.663-.955-1.261.876.648.934a.32.32 0 0 0 .099.097.23.23 0 0 0 .141.02 1.11 1.11 0 0 0 .28-.117l.094.134-1.114.773-.093-.134.123-.103a.448.448 0 0 0 .103-.105.197.197 0 0 0 .035-.127.294.294 0 0 0-.056-.138l-1.344-1.937a.31.31 0 0 0-.101-.093.215.215 0 0 0-.14-.02.837.837 0 0 0-.154.043.843.843 0 0 0-.142.065l-.093-.135 1.114-.773.093.135a1.063 1.063 0 0 0-.118.106 1.137 1.137 0 0 0-.094.108.169.169 0 0 0-.034.136c.01.045.03.089.059.13l.577.832 1.261-.875-.564-.814a.307.307 0 0 0-.101-.093.212.212 0 0 0-.14-.02.832.832 0 0 0-.154.043.842.842 0 0 0-.141.065l-.094-.134 1.114-.773.093.134a1.105 1.105 0 0 0-.118.107 1.082 1.082 0 0 0-.094.107.165.165 0 0 0-.034.136c.01.045.03.09.059.13l1.342 1.935c.03.044.064.076.1.096a.22.22 0 0 0 .14.02 1.112 1.112 0 0 0 .28-.116l.094.134Zm-6.409 2.746.342.887-2.428 1.12-.067-.146c.04-.022.092-.053.156-.094a.667.667 0 0 0 .122-.09.209.209 0 0 0 .054-.122.287.287 0 0 0-.031-.138l-.97-2.102a.338.338 0 0 0-.078-.11c-.032-.028-.076-.042-.134-.042a1.182 1.182 0 0 0-.332.066l-.068-.146 2.263-1.044.325.705-.155.071a1.052 1.052 0 0 0-.331-.25c-.146-.076-.263-.1-.35-.073a1.958 1.958 0 0 0-.158.058c-.06.025-.128.054-.204.089l-.46.212.536 1.162.33-.152a.724.724 0 0 0 .218-.137.354.354 0 0 0 .083-.159.578.578 0 0 0 .003-.195 1.135 1.135 0 0 0-.044-.208l.154-.072.528 1.144-.155.072a1.042 1.042 0 0 0-.141-.19.588.588 0 0 0-.149-.124.32.32 0 0 0-.193-.038.86.86 0 0 0-.227.074l-.33.152.405.878c.04.088.08.155.114.2a.214.214 0 0 0 .126.082.34.34 0 0 0 .17-.017c.065-.021.155-.058.269-.11l.179-.083c.074-.034.135-.066.183-.095.05-.03.1-.064.148-.104a.281.281 0 0 0 .092-.114c.032-.095.053-.225.06-.39a2.163 2.163 0 0 0-.003-.358l.148-.069Zm-3.257-.048-.148.053a1.1 1.1 0 0 0-.137-.16 1.76 1.76 0 0 0-.185-.16 1.116 1.116 0 0 0-.204-.123.293.293 0 0 0-.179-.032c-.046.01-.103.026-.172.047a4.715 4.715 0 0 0-.19.063l-.125.045.88 2.448a.308.308 0 0 0 .077.12c.034.032.08.05.139.054.029 0 .087-.005.177-.017a1.33 1.33 0 0 0 .203-.042l.055.153-1.445.519-.055-.153c.04-.017.098-.045.178-.083a.803.803 0 0 0 .16-.094.225.225 0 0 0 .076-.119.28.28 0 0 0-.018-.153l-.886-2.468-.125.045c-.045.016-.1.038-.166.064a2.26 2.26 0 0 0-.184.081.28.28 0 0 0-.117.138c-.033.07-.06.144-.08.225a1.534 1.534 0 0 0-.044.452l-.15.054-.3-.83 2.667-.958.298.83Zm-4.91 1.534-.168.03a1.16 1.16 0 0 0-.263-.341c-.123-.116-.231-.172-.324-.17a1.944 1.944 0 0 0-.166.017c-.064.008-.136.02-.216.034l-.53.096.23 1.27.362-.065a.77.77 0 0 0 .25-.08.412.412 0 0 0 .137-.135.459.459 0 0 0 .054-.167.937.937 0 0 0 .008-.231l.17-.03.223 1.241-.17.03a1.012 1.012 0 0 0-.085-.214.556.556 0 0 0-.116-.165.34.34 0 0 0-.189-.083.919.919 0 0 0-.25.014l-.362.065.196 1.091a.287.287 0 0 0 .053.126c.026.035.066.06.12.075a.78.78 0 0 0 .151.012c.077.001.135-.001.174-.006l.029.158-1.371.247-.029-.158.176-.046a.548.548 0 0 0 .14-.053.194.194 0 0 0 .081-.103.287.287 0 0 0 .006-.142l-.412-2.282a.337.337 0 0 0-.048-.126c-.023-.035-.063-.06-.12-.075a1.216 1.216 0 0 0-.337-.02l-.028-.157 2.48-.448.143.791Zm-13.64 3.029-1.442-.184.02-.16.179.009a.65.65 0 0 0 .165-.006.228.228 0 0 0 .12-.067.256.256 0 0 0 .05-.136l.295-2.318a.308.308 0 0 0-.008-.135c-.011-.037-.047-.071-.105-.104a1.304 1.304 0 0 0-.329-.121l.02-.16 1.442.183-.02.16a1.417 1.417 0 0 0-.344.011c-.06.011-.102.035-.126.073a.31.31 0 0 0-.046.132l-.295 2.315a.28.28 0 0 0 .016.136c.016.041.05.077.1.106.03.016.08.036.15.059.068.023.128.039.178.047l-.02.16Zm-7.468-2.827-.402.861-2.49-.972.059-.15c.044.013.102.03.176.047a.67.67 0 0 0 .148.026.209.209 0 0 0 .127-.046.288.288 0 0 0 .077-.118l.842-2.157a.337.337 0 0 0 .025-.132.2.2 0 0 0-.063-.126 1.18 1.18 0 0 0-.278-.194l.059-.15 2.321.907-.282.723-.16-.062a1.055 1.055 0 0 0-.048-.413c-.047-.157-.11-.258-.19-.302a2.025 2.025 0 0 0-.152-.074 4.885 4.885 0 0 0-.206-.085l-.47-.184-.467 1.192.339.133a.726.726 0 0 0 .25.061.355.355 0 0 0 .171-.05.576.576 0 0 0 .143-.133c.049-.06.088-.12.12-.177l.158.062-.458 1.173-.159-.062c.02-.07.033-.147.038-.233a.592.592 0 0 0-.013-.193.32.32 0 0 0-.106-.166.86.86 0 0 0-.211-.112l-.339-.132-.351.9a1.05 1.05 0 0 0-.065.222.217.217 0 0 0 .028.147.34.34 0 0 0 .13.11c.06.033.15.072.266.118l.184.072c.076.03.141.051.195.066.056.015.115.027.178.035a.281.281 0 0 0 .146-.013c.09-.043.199-.119.323-.228.125-.11.21-.193.255-.25l.152.059Zm-6.336-1.809-1.259-.726.081-.14.16.077c.07.034.123.053.156.058a.228.228 0 0 0 .135-.015.258.258 0 0 0 .1-.106l1.168-2.024a.31.31 0 0 0 .045-.127c.004-.04-.016-.085-.057-.137a1.326 1.326 0 0 0-.257-.24l.081-.14 1.259.727-.081.14a1.421 1.421 0 0 0-.32-.123c-.06-.012-.108-.006-.145.02a.307.307 0 0 0-.094.103l-1.166 2.021a.268.268 0 0 0-.039.132c0 .044.017.09.052.136.021.026.06.064.115.112.055.048.104.086.147.112l-.081.14Zm-9.19-8.696-.772.556-1.697-2.065.124-.102c.031.033.075.076.13.127a.67.67 0 0 0 .117.095.21.21 0 0 0 .133.022.289.289 0 0 0 .125-.066l1.788-1.47a.34.34 0 0 0 .087-.104c.019-.037.02-.084.007-.14a1.184 1.184 0 0 0-.148-.305l.124-.102 1.583 1.924-.6.494-.108-.132a1.05 1.05 0 0 0 .158-.384c.036-.16.03-.28-.018-.357a1.977 1.977 0 0 0-.096-.139 4.797 4.797 0 0 0-.138-.174l-.321-.391-.989.813.23.28c.074.09.137.15.188.177.051.027.11.04.175.04a.577.577 0 0 0 .19-.047c.072-.028.135-.06.19-.096l.108.132-.973.8-.108-.132c.052-.05.101-.112.148-.184a.586.586 0 0 0 .082-.176.322.322 0 0 0-.012-.196.854.854 0 0 0-.13-.2l-.23-.281-.747.614a1.04 1.04 0 0 0-.164.161.213.213 0 0 0-.047.142.339.339 0 0 0 .059.16c.037.058.095.135.175.232l.125.153c.052.063.098.114.138.153.041.04.088.08.139.117a.281.281 0 0 0 .133.06c.1.007.232-.006.394-.04.163-.036.277-.067.345-.095l.103.126Zm46.855 8.87a1.399 1.399 0 0 1-1.105.085 1.568 1.568 0 0 1-.525-.31 1.878 1.878 0 0 1-.428-.556 1.967 1.967 0 0 1-.22-.672c-.029-.22-.016-.43.036-.629.052-.195.142-.373.27-.532.127-.159.285-.288.473-.387a1.46 1.46 0 0 1 .808-.173l.01-.179.161-.084.55 1.003-.163.086a2.633 2.633 0 0 0-.266-.27 1.408 1.408 0 0 0-.303-.215.827.827 0 0 0-.34-.093.67.67 0 0 0-.344.082.88.88 0 0 0-.471.683c-.02.148-.009.318.035.508.044.19.12.387.228.593.095.182.205.336.331.463.126.127.261.225.407.295.145.069.293.104.443.107a.902.902 0 0 0 .443-.11.945.945 0 0 0 .436-.467 1.253 1.253 0 0 0 .067-.602l.187-.007c.033.341-.012.623-.139.844-.126.22-.319.399-.58.536ZM29.59 81.593l-.555-1.237.15-.067.078.14a.45.45 0 0 0 .084.12.191.191 0 0 0 .118.058.298.298 0 0 0 .147-.03l1.06-.476-.629-1.4-1.037.465a.318.318 0 0 0-.113.079.229.229 0 0 0-.046.136 1.11 1.11 0 0 0 .063.297l-.149.067-.555-1.237.15-.067.078.14a.449.449 0 0 0 .084.12.197.197 0 0 0 .118.058.295.295 0 0 0 .146-.03l2.15-.965a.307.307 0 0 0 .111-.082.214.214 0 0 0 .045-.134.933.933 0 0 0-.051-.31l.15-.067.554 1.237-.149.067a1.067 1.067 0 0 0-.083-.136 1.168 1.168 0 0 0-.088-.113.168.168 0 0 0-.128-.058.376.376 0 0 0-.139.034l-.924.414.629 1.401.903-.405a.308.308 0 0 0 .11-.083.213.213 0 0 0 .045-.133.932.932 0 0 0-.05-.31l.148-.067.555 1.237-.149.067a1.072 1.072 0 0 0-.083-.136 1.11 1.11 0 0 0-.088-.113.165.165 0 0 0-.127-.058.363.363 0 0 0-.14.034l-2.148.964a.306.306 0 0 0-.113.08.22.22 0 0 0-.045.135 1.113 1.113 0 0 0 .063.297l-.15.067Zm2.559 2.439-.85.427-1.352-2.306.139-.082c.026.038.062.087.108.147.047.06.08.097.101.112a.21.21 0 0 0 .128.042.29.29 0 0 0 .133-.045l1.998-1.171a.341.341 0 0 0 .102-.089c.024-.034.033-.08.028-.137a1.169 1.169 0 0 0-.098-.324l.139-.082 1.26 2.15-.67.392-.085-.147a1.05 1.05 0 0 0 .216-.354c.061-.153.074-.272.038-.355a2.058 2.058 0 0 0-.073-.152 5.089 5.089 0 0 0-.108-.195l-.256-.436-1.105.648.184.313c.059.1.112.168.158.203a.355.355 0 0 0 .166.067.58.58 0 0 0 .195-.016 1.13 1.13 0 0 0 .203-.065l.086.147-1.087.637-.086-.147c.06-.042.118-.094.175-.159a.583.583 0 0 0 .11-.16.32.32 0 0 0 .018-.196.857.857 0 0 0-.097-.218l-.183-.313-.834.489a1.036 1.036 0 0 0-.188.133.213.213 0 0 0-.069.133.34.34 0 0 0 .034.167c.027.063.072.149.136.257l.1.17a1.295 1.295 0 0 0 .23.31.282.282 0 0 0 .122.08c.098.023.23.031.395.022a2.18 2.18 0 0 0 .356-.038l.083.14Zm2.848 1.543-.097-.14c.08-.094.149-.22.203-.38.055-.16.062-.282.021-.365a1.984 1.984 0 0 0-.083-.145 4.259 4.259 0 0 0-.12-.183l-.305-.444-1.064.732.21.304a.765.765 0 0 0 .175.195.411.411 0 0 0 .179.07c.044.006.103 0 .175-.02a.946.946 0 0 0 .213-.088l.098.142-1.04.715-.097-.142c.052-.042.105-.097.16-.167a.574.574 0 0 0 .103-.174.335.335 0 0 0-.003-.205.883.883 0 0 0-.115-.222l-.209-.304-.912.628a.29.29 0 0 0-.094.1.212.212 0 0 0-.019.14.8.8 0 0 0 .051.143c.031.07.057.123.078.156l-.133.09-.79-1.147.133-.09.115.14a.54.54 0 0 0 .105.107.192.192 0 0 0 .128.031.287.287 0 0 0 .132-.053l1.91-1.315a.338.338 0 0 0 .095-.095c.023-.036.028-.082.019-.14a1.188 1.188 0 0 0-.121-.316l.132-.09 1.429 2.076-.662.456Zm1.278 5.233-.99-1.063.117-.11.132.12c.057.053.1.087.131.102a.227.227 0 0 0 .134.025.257.257 0 0 0 .126-.073l1.71-1.593a.308.308 0 0 0 .08-.108c.015-.037.01-.086-.015-.148a1.33 1.33 0 0 0-.175-.304l.118-.11.991 1.063-.118.11a1.397 1.397 0 0 0-.27-.21c-.054-.03-.102-.038-.145-.025a.308.308 0 0 0-.12.072l-1.707 1.59a.27.27 0 0 0-.075.115.225.225 0 0 0 .01.145.99.99 0 0 0 .077.141c.038.063.074.113.107.15l-.118.11Zm6.014 1.307a1.189 1.189 0 0 0-.16-.1.585.585 0 0 0-.201-.073c-.062-.007-.136.024-.222.095-.086.07-.18.165-.283.285l-.913 1.067a.932.932 0 0 1-.823.34 1.236 1.236 0 0 1-.403-.112 1.619 1.619 0 0 1-.67-.603 1.148 1.148 0 0 1-.156-.405.828.828 0 0 1 .187-.691l1.241-1.452a.308.308 0 0 0 .067-.119.255.255 0 0 0-.016-.144.527.527 0 0 0-.078-.133 1.053 1.053 0 0 0-.095-.113l.105-.123 1.023.874-.105.123a1.15 1.15 0 0 0-.135-.088 1.049 1.049 0 0 0-.13-.067.166.166 0 0 0-.139.002.369.369 0 0 0-.11.089l-1.16 1.357a1.41 1.41 0 0 0-.155.225.662.662 0 0 0-.036.588.918.918 0 0 0 .266.332c.127.108.25.18.37.212a.69.69 0 0 0 .341.015.785.785 0 0 0 .268-.11.968.968 0 0 0 .204-.18l.861-1.008c.11-.128.19-.24.241-.338.052-.097.07-.173.056-.229a.608.608 0 0 0-.108-.209 1.362 1.362 0 0 0-.136-.165l.105-.122 1.004.858.727.514.064 3.009.871-1.235c.107-.152.179-.275.217-.37.038-.094.047-.168.03-.22a.77.77 0 0 0-.12-.187 1.111 1.111 0 0 0-.151-.16l.092-.13 1.056.744-.092.13a.94.94 0 0 0-.178-.081.682.682 0 0 0-.191-.052c-.067 0-.137.038-.213.114-.077.075-.162.18-.256.313l-1.34 1.9-.16-.111-.075-3.234-.944 1.34c-.106.15-.177.272-.216.365a.39.39 0 0 0-.034.233.52.52 0 0 0 .12.198c.072.086.122.138.15.16l-.092.13-1.065-.752.091-.13c.035.02.099.048.192.082a.553.553 0 0 0 .187.046.33.33 0 0 0 .198-.095 2.24 2.24 0 0 0 .277-.343l.902-1.278a.616.616 0 0 0 .089-.19.38.38 0 0 0 .013-.185.687.687 0 0 0-.105-.23.81.81 0 0 0-.148-.173h-.002Zm7.126 4.221a.637.637 0 0 0-.287-.05.371.371 0 0 0-.164.055c-.05.031-.103.07-.16.117a196.323 196.323 0 0 0-2.16 1.939l-.167-.083a1063.654 1063.654 0 0 0 .303-2.944.389.389 0 0 0-.01-.142.513.513 0 0 0-.159-.254.737.737 0 0 0-.112-.082l.071-.144 1.184.587-.07.143a1.83 1.83 0 0 0-.27-.096c-.077-.02-.125-.01-.143.027a.573.573 0 0 0-.028.111l-.077.766-.155 1.508a71.604 71.604 0 0 0 1.404-1.272c.106-.1.174-.172.204-.215a.833.833 0 0 0 .068-.11.105.105 0 0 0-.003-.098.433.433 0 0 0-.083-.108 1.137 1.137 0 0 0-.12-.098 2.492 2.492 0 0 0-.132-.085l.072-.143 1.065.528-.071.143Zm4.985 5.008-.846-.24a19.32 19.32 0 0 0-.596-1.706l-.322-.091-.282.996a.374.374 0 0 0-.014.143c.005.043.03.083.079.119a1.55 1.55 0 0 0 .295.131l-.045.157-1.328-.376.045-.157.158.028c.07.012.12.016.149.011a.19.19 0 0 0 .12-.057.3.3 0 0 0 .07-.132l.643-2.271c.015-.052.02-.1.016-.144-.003-.044-.029-.084-.077-.12a1.367 1.367 0 0 0-.278-.141l.044-.157 1.45.41a1.7 1.7 0 0 1 .361.147c.11.06.203.134.28.221a.688.688 0 0 1 .153.294.711.711 0 0 1-.015.367.899.899 0 0 1-.147.306.695.695 0 0 1-.231.194 1 1 0 0 1-.286.097c-.106.02-.22.031-.341.032.096.25.176.458.239.627.063.169.14.375.233.618.04.107.08.189.12.246.04.056.083.106.127.147.033.03.076.058.131.085.055.027.101.046.14.058l-.045.158Zm-.501-2.672c.054-.19.042-.356-.036-.499-.077-.142-.216-.241-.415-.297l-.376-.107-.382 1.347.29.082a.73.73 0 0 0 .564-.051c.173-.092.291-.25.355-.475Zm3.006 1.637a.735.735 0 0 1 .102.271.92.92 0 0 1-.01.316.894.894 0 0 1-.437.633c-.24.142-.513.185-.818.128a1.5 1.5 0 0 1-.41-.144 1.689 1.689 0 0 1-.336-.228l-.126.145-.178-.034.17-1.087.181.034c.012.141.033.269.063.386.03.117.076.229.14.338a.814.814 0 0 0 .576.405.813.813 0 0 0 .276.009.482.482 0 0 0 .207-.078.472.472 0 0 0 .138-.153.697.697 0 0 0 .036-.594.665.665 0 0 0-.272-.307c-.09-.057-.192-.12-.308-.19a5.431 5.431 0 0 1-.298-.193 1.065 1.065 0 0 1-.356-.392.835.835 0 0 1-.053-.536.8.8 0 0 1 .136-.323.913.913 0 0 1 .6-.363c.125-.021.251-.02.379.003.146.027.271.073.379.14.106.066.2.137.285.214l.119-.134.178.033-.178 1.051-.18-.033a4.228 4.228 0 0 0-.045-.365 1.236 1.236 0 0 0-.104-.328.739.739 0 0 0-.195-.25.703.703 0 0 0-.324-.14.522.522 0 0 0-.386.07.438.438 0 0 0-.21.302.578.578 0 0 0 .032.357.707.707 0 0 0 .237.273c.098.073.196.138.294.195.098.057.19.117.28.178.083.055.16.115.233.179a.977.977 0 0 1 .183.212Zm5.152-.183-.158-.011a1.09 1.09 0 0 0-.06-.201 1.747 1.747 0 0 0-.105-.222 1.113 1.113 0 0 0-.137-.195.293.293 0 0 0-.15-.101 2.086 2.086 0 0 0-.177-.027 4.968 4.968 0 0 0-.199-.019l-.132-.01-.184 2.596a.308.308 0 0 0 .022.141.214.214 0 0 0 .106.105c.026.013.082.03.169.056.086.024.153.039.202.044l-.011.162-1.532-.108.011-.163.198-.004a.835.835 0 0 0 .183-.021.233.233 0 0 0 .118-.078.283.283 0 0 0 .046-.148l.185-2.615-.133-.01a5.72 5.72 0 0 0-.177-.008 2.253 2.253 0 0 0-.201 0 .28.28 0 0 0-.163.079c-.058.05-.112.108-.163.174a1.542 1.542 0 0 0-.224.395l-.16-.011.063-.88 2.727.193 1.375.026-.003.161c-.155 0-.264.008-.328.026-.064.017-.096.041-.096.075 0 .01.004.025.012.048.009.023.021.052.037.087.018.04.042.085.068.137l.074.148c.069.136.14.272.211.408l.281.529c.245-.379.432-.675.56-.887.13-.211.195-.339.196-.382a.105.105 0 0 0-.037-.084.271.271 0 0 0-.102-.052.712.712 0 0 0-.142-.026c-.052-.005-.1-.01-.144-.016l.004-.161 1.12.021-.002.162a.546.546 0 0 0-.124.028.811.811 0 0 0-.243.136c-.022.018-.064.069-.126.151-.122.165-.234.331-.337.501-.103.169-.232.384-.388.645a1.206 1.206 0 0 0-.115.232.911.911 0 0 0-.032.256l-.012.616a.287.287 0 0 0 .03.143c.021.04.058.073.11.098.032.013.089.029.17.047.082.02.147.03.198.033l-.003.161-1.51-.028.003-.162c.043-.002.107-.006.192-.013a.788.788 0 0 0 .178-.029.218.218 0 0 0 .114-.092.315.315 0 0 0 .034-.145l.015-.784a.412.412 0 0 0-.042-.133 5.148 5.148 0 0 0-.102-.217 32.585 32.585 0 0 0-.57-1.106 1.258 1.258 0 0 0-.13-.198.451.451 0 0 0-.26-.173.922.922 0 0 0-.047-.012l-.05.712Zm6.915 1.502a1.53 1.53 0 0 0 .147-.484 2.71 2.71 0 0 0 .009-.59 2.68 2.68 0 0 0-.115-.605 1.51 1.51 0 0 0-.23-.458.859.859 0 0 0-.781-.348.834.834 0 0 0-.454.164.98.98 0 0 0-.285.361c-.064.14-.108.3-.13.483a2.76 2.76 0 0 0-.01.57 2.7 2.7 0 0 0 .11.586c.053.173.129.324.225.454a.906.906 0 0 0 .336.287c.13.065.283.09.456.076a.867.867 0 0 0 .722-.496ZM31.09 51.367c-.06-.552-.08-1.1-.383-1.611-.04-.07-.065-.108-.082-.185l-.119-.56c-.124-.707-.347-1.335-.556-1.973-.2-.672-.573-.88-.892-1.22-.347-.66-.766-1.242-.913-2.088.003-.193.3-.487.45-.554.706.188 1.181.533 1.616.95.089.086.459.16.562.227.494-.237 1.087-.44 1.805-.604.239-.055.479-.153.746-.2.69-.696 1.695-1.922 2.086-1.838.334.053.473.317.419.792-.22.569-.52 1.216-.918 1.756-.13.177-.168.185-.387.25-.564.165-1.124.352-1.668.593l-.17.07-.144-.047-.179.035-.137.12-.314.023c-.832-.017-1.245.283-1.152.965l.006.449c.002.127.14.227.207.346l.135.27-.008.207.16.248.11.406-.038.211c.075.168.135.327.14.45l.032.613c.068.198.115.411.183.614l.053.082a.179.179 0 0 1 .041.128l-.005.127c-.003.073.054.097.112.135.05.032.05.041.056.095l.023.197.03.18-.145.232-.13.15-.109.082-.143.028-.1-.018c-.155-.018-.263.031-.28-.133Zm1.517-4.263-.187.132-.339-.126-.13-.275-.052-.195-.051-.14.045-.09.02-.182.046-.09c.127-.27.267-.49.404-.72l.229.023.224.162.147.135.035.13.094.146.006.176.038.143-.025.114-.045.09-.068.11-.061.134.052.195.035.13.042.155-.086.044-.144-.122-.229-.079Zm.299.857.168-.046.5-.67.078-.179.023-.223.042-.104.075-.137.235-.209.201-.025.243.076.24.063.223.161.307.214.065.138.187.182.112.156.074.122.029.158a1.532 1.532 0 0 1-.403.57l-.074-.068-.096.21.077.135.009.135-.061.135-.118.077c-.38.123-.845.113-1.35.042l-.253-.115-.258-.236-.09-.024-.089-.283-.096-.255Zm1.05-.23.014-.098.046-.091.071-.096.065-.067.102-.033.19.086.094.091-.018.14.035.13.011.093-.068.109-.047-.073-.062.08-.092.018-.144-.068-.116-.073-.082-.148ZM42.635 38.651l-.168-.179-.173-.223-.179-.268-.18-.205-.281-.335-.14-.314-.134-.332.014-.331.015-.099-.089-.165.066-.182-.07-.157.052-.083-.087-.227-.014-.196-.118-.2-.1-.19-.07-.158-.13-.225-.167-.242-.167-.242-.108-.11.033-.091-.21-.24-.142-.252-.093-.21-.087-.227s-.089-.923-.017-1.06c.07-.138.51-.409.51-.409l.017-.224c.188-.264.38-.444.584-.438l.168-.053.213.114.203.258.087.228-.028.135.007.214.19.294.192.231.081.184.004.107.197.275.196.276.027.16.628.78.014.196.165.305.205.195.255.112c.167.036.31.177.4.304.235.331.287.891 0 .819l-.238-.105-.238-.104-.306-.092-.121-.075.012-.268-.148-.234-.125-.18-.218-.16-.216.01-.205.037-.112.077-.066.182-.032.26.06.3.008.214.105.236.313.306.027.159.044.23.045.167.022.115.222.266-.01.143.071.095-.14.212-.033.09-.047.128-.016.16.024.285-.078.156-.175.07Zm.76-5.453-.274-.013-.094-.041-.169-.136-.129-.242c-.012-.404.039-.754.174-1.034l.155-.426.222-.396c.164-.21.348-.333.535-.444l.35-.109.328-.136c.391-.095.438.225.434.563l.076.388.053.41.047.298.035.246-.13.36-.004.307-.084.318-.107.292.025.273c.227.43.527.602.9.519l.371-.254.502-.397c.207-.155.395-.356.602-.512l.326-.284.148-.15c.018-.108.011-.202-.05-.265l-.051-.228-.311-.383-.106-.093-.136-.013-.062-.043-.144-.202.037-.184.144-.014.237.12.102.06.177.154.147.065.173.122.188.083.21.061c.319-.015.521.242.484.552l.027.181-.193.317-.122.208-.142.262-.126.176-.319.277-.177.06-.17.081-.26.117-.13.144-.163.02-.19.056-.19.133-.17.126-.26.163-.216.121-.188.134-.166.112-.243-.014-.216-.048-.187-.083-.143-.078-.172-.168-.216-.218-.117-.19-.1-.152-.177-.155-.1-.152-.058-.226-.059-.18-.129-.072-.12-.099-.138-.045Zm-.032-1.62.108.218.096.12.13.026.175.076.096-.05.139.045.165-.112.114-.058.052-.1-.081-.16-.105-.139-.102-.106-.165-.057-.155.04-.127.052-.142.046-.132.065-.066.095Zm.21 1.05.202-.174.134.059.186.053.078.076.202.044.11.126.024.103-.039.106-.042.074-.126-.04-.102-.06-.091.037-.12-.053-.058-.056-.099-.028-.093-.087-.167-.18Zm-1.698 1.34-.119.012-.032.088.045.122.117.064.091-.075.058.089.11.048.082-.053.125-.06.054-.115.051-.105-.005-.091-.116-.102-.094.047-.121-.053-.102.07-.144.115Zm-.798-1.645-.181.089-.065.119-.053.145.02.178.077.139.022.114.2.151.133.1.214.053.118-.033.123.012.103-.165.04-.11-.027-.158-.04-.123-.15-.172-.072-.094-.09-.103-.121-.074-.117-.03-.134-.038ZM56.4 26.768l.285-.197.18-.088.23-.15.18-.088.225-.073.239-.123.167-.084.288-.094.072-.082c.568-.17 1.072-.315 1.634-.355.21-.015.377.221.306.553l-.028.277-.054.329-.105.108-.21.128-.097.136-.164.142-.068.186-.081.19-.053.194-.086.266-.177.236-.138.045-.114.126-.238.078-.121.099-.131.161-.047.12-.118.112.031.198.002.192.158-.022.313-.057.271-.059.197-.079.2-.065.205-.141.13-.072.276-.09.2-.065.175-.058.138-.044.158-.023c.551-.01 1.24.009 1.236.74l-.16.157-.134.058-.25.082-.2.02-.196.035-.154-.01-.233.002-.141-.013-.27-.076-.183-.014-.178-.001-.246.006-.063.02-.166-.005-.283.063-.171.026-.137-.045-.051.106-.23.06-.095.002-.296.066-.242.064-.176.058-.1.032-.038.102-.22-.003-.118.068-.151.139-.2.065c-.01.179-.102.347-.377.494l-.167.084-.15.049-.167.04-.191.003-.216-.034-.142-.013-.149-.04-.15-.041-.106-.129-.035-.166-.04-.225.11-.184.115-.126.284-.108.162-.053.226-.073.125-.041.209-.038.175-.058.113-.036.28-.077.191-.047.13-.117.135-.103.093-.194.014-.138.035-.16.073-.128.084-.131.098-.136.006-.165.067-.096.035-.115-.128-.063-.092-.03-.082-.046-.1-.012-.104.019-.187-.029-.187-.028-.149-.085-.103-.07-.102-.115-.032-.108-.015-.144-.036-.122.013-.093.006-.165-.011-.086.054-.092ZM70.855 27.08l.048-.141.077-.17.124-.093.102-.177-.108-.08.017-.095.01-.134.093-.164.032-.146.248-.187a.601.601 0 0 1 .515.05l.213-.14.068-.41.016-.311c.302-.47.568-.69.796-.659.276-.057.542-.013.797.132l.092.212-.011.351.05.118.016.222.167.1.107-.099.26-.221.294-.268c.32-.353.708-.367.807-.302.127.085.192.422.082.956l.1.093.24.103.262.059c.072.144.12.286.093.381-.045.16-.224.369-.547.273l-.618-.067c-.293.157-.33.354-.113.591l.334.042.183.107.196.07.22.002.211.077c.144.157-.08.7-.334.696l-.203-.042-.139.028-.903-.091c-.062.312.037.668-.275.65-.619-.038-1.119.429-.844.998-.043.452-.236.65-.594.826-.077.038-.127.154-.215.191-.072.03-.201.304-.268.35-.269 1.135.2 1.958-.73 1.768a.422.422 0 0 1-.281-.152l-.369-.38-.155-.294-.18-.065-.309-.113c-.081-.053-.157-.182-.22-.475l.125-.31.254-.204c.31-.012.565.05.596.236l-.094.047-.05.158-.042.281.165.16.26.152.201.035.115-.156.132-.17c.085-.193.003-.328.005-.492l-.257-.054-.128-.106c-.114-.133-.113-.25.006-.35l.332-.258c.1-.128.158-.35.176-.667l-.115-.2-.043-.193-.122-.124-.137-.188.024-.228.067-.193.152-.123.126-.152.205-.063.252.013c.039.064.142.06.162.122.13.404.122.625.665.297l.177-.034.372-.122.235-.151.232-.034.173-.076.01-.135-.18-.065-.152-.036-.122.035-.195-.071-.163-.06-.226.017-.13-.047-.138.029-.128.052-.826-.103-.87-.139-.223.117-.287.034-.12.046c-.054.003-.109.047-.161.01l-.158-.058-.246-.03-.278.115a.194.194 0 0 1-.157.062l-.19-.069-.105.04c-1.197.232-1.536.226-1.343-.137.08-.15.48-.283.87-.319.235-.021.367-.044.612.053l.21-.023.242-.01.258-.005.252.013.161-.04.108-.1Zm2.852 4.001-.125-.022-.081.043-.063.084-.088-.032-.184-.043-.099-.035-.09.038-.04.117-.028.11-.03.12-.02.124-.01.092-.026.075-.074.02.06.178.137.181.149.114.148.019.078-.032.11-.032.048-.042.084-.053.08-.007.064-.12.103-.106.041-.057.044-.127-.002-.12.033-.097-.07-.12-.085-.103-.01-.1-.054-.067Zm-2.446-4.08.136-.066.177-.029.11-.052.307.024-.042.263-.18-.005-.219-.001-.132.011-.123-.034-.034-.11Zm2.05-.45-.03-.13.049-.14.083-.187.108-.1.134-.07.142.013.13.047.057.1-.036.106-.048.14-.094.006-.046.081-.049.14-.138.105-.14.012-.123-.124ZM83.687 31.87l.647.235.28.03.167.125.328-.05.328-.05.255-.26a4.444 4.444 0 0 1 1.104-.694c.294-.13.523-.141.603.263.056.29-.087.663-.385 1.239-.003.144.056.246.178.308.166.126.35.219.292.43-.06.224-.298.547-1.018.526l-.424-.092c-.144-.086-.259-.072-.37-.004-.17.103-.192.261-.24.438.151.977.41 1.83.699 2.716.078.2.195.372.326.53.058.07.116.095.196.135.18.09.29.16.31.312.022.175-.095.264-.212.273a.56.56 0 0 1-.304-.047 9.65 9.65 0 0 1-.856-.45l-.163-.2-.218-.375-.056-.222-.168-.62-.012-.393-.07-.284-.03-.216-.029-.217-.012-.392-.076-.256-.119-.205-.32-.144-.1.16-.148.072-1.219.444-.429.163-.343.107-.43-.002-.182-.07-.301-.274-.067-.404c.2-.254.201-.271.46-.111l.15-.028.182.07.176-.068.155.063.168-.04.086-.056.126.012.215.001.15-.028.173-.113.22-.072.175-.068c.241-.142.32-.343.104-.562l-.445-.275-.182-.234.034-.187.04-.262.052-.198.14-.21.111-.096.298-.124ZM96.297 43.906c.084-.1.097-.205.341-.287l.501-.37.13-.026.108-.029.212-.139.162.018.123.013.122.013.088.09.197-.06.118.154.088.09.033.165-.031.178-.083.233-.119.088-.177.062-.15.145-.052.176c.163.213.323.21.48-.01l.149-.024.122.013.153-.044.204.022.088.09.25.228.06.248.006.203-.028.158-.025.139.102.131.159.038c.245.219.835.047 1.15.011.484.08.499.5.154.833l-.174.042-.058.095-.13.147-.038.218-.416.238c-.542.07-.461-.206-1.065-.315l-.272.132-.028.158-.14.086-.133.168-.11.15.003.221.145.237-.045.258.016.264c-.433.548-.889.742-1.397.153l-.028-.18-.154-.202-.115-.174-.125-.114-.08-.25c.056-.511.494-.007.547.078l.19.101.15-.145-.003-.222c-.1-.613-.404-1.082-1.04-1.16l-.304.19-.199.303-.395.256-.204.203-.066.255-.042.237-.024.139.06.127-.096.312.026.205.074.259a.74.74 0 0 1-.44.548c-.442.221-.487.029-.642-.216-.244-.177-.595-.36-.949-.326-.265-.061-.516-.206-.763-.374l-.235-.315c-.105-.192-.292-.358-.331-.625-.024-.166.083-.326.192-.47.265-.364.477-.43.573.161-.013.17-.023.33.152.49l.08.2c.289.224.52.29.62.006.076-.478-.127-.86-.408-1.213-.152-.124-.222-.218-.1-.313.103-.117.315-.082.526.137l.253.33c.15.123.325.115.523-.026l.467-.293.21-.018.18-.081.022-.119-.05-.187.031-.178.11-.15.159.038c.166.004.21-.126.171-.265l-.257-.188-.163-.018-.173-.078-.132-.196-.132-.075-.227-.125-.135-.054-.187-.121-.217-.063-.08-.13-.204-.022-.098-.151c-.221.015-.245-.015-.366-.146-.25-.272-.503-.59-.455-.728-.079-.204.117-.278.587-.224.263.03.369.322.524.514l.198.172.114.173.177.06.162.138.186.12.214.084.155.178.214.083.252-.135.204-.099.15-.145.157-.185.106-.13.11-.27Zm.902 1.323-.194-.32-.13.033-.089.01-.183-.002-.117.175.032.088-.044.089-.025.137-.066.05.036.069-.016.092.116.162.075.064.128-.07.117-.063.073-.086.067.054.072-.02.091-.084.026-.091.082-.085-.02-.105-.03-.097Zm.707.253.071-.02.101-.027.085.01.066.006.088.047.08.093.04.107v.112l-.02.11-.09.131-.028.044-.112.091-.059.06-.075-.009-.089.01-.061-.035-.06-.147-.1-.095-.039-.05.02-.064.019-.101.022-.129.05-.06.09-.084Z" fill="#1B1918"/><path fill-rule="evenodd" clip-rule="evenodd" d="M64 32.454c15.423 0 28.263 11.075 31.004 25.703H94.7C91.963 43.694 79.258 32.752 64 32.752S36.037 43.694 33.3 58.157h-.303C35.738 43.53 48.577 32.454 64 32.454Zm29.391 43.022c-4.591 11.746-16.02 20.07-29.39 20.07-13.37 0-24.8-8.324-29.392-20.07h.32C39.504 87.054 50.797 95.247 64 95.247c13.203 0 24.496-8.193 29.072-19.771h.32Z" fill="#AE1623"/><path fill-rule="evenodd" clip-rule="evenodd" d="M92.686 59.513h-1.53v1.061h1.53v-1.06Zm-1.857 1.576h15.914v10.733H90.829v2.274h14.71v.33H22.77v-.33h14.371v-2.274H21.233V61.089H37.14v-2.51H21.965v-.72h15.176l-.038-3.866h-.476v-.94h16.097v-1.009H57.904v1.008h12.182v-1.008H75.266v1.008h16.076v.94h-.513v3.867h15.388v.72H90.829v2.51Zm-55.6 8.789h1.53v1.06h-1.53v-1.06Zm-2.678 0h1.529v1.06h-1.53v-1.06Zm-2.679 0h1.53v1.06h-1.53v-1.06Zm-2.678 0h1.529v1.06h-1.53v-1.06Zm-2.679 0h1.53v1.06h-1.53v-1.06Zm-2.678 0h1.529v1.06h-1.53v-1.06Zm13.392-2.591h1.53v1.06h-1.53v-1.06Zm-2.678 0h1.529v1.06h-1.53v-1.06Zm-2.679 0h1.53v1.06h-1.53v-1.06Zm-2.678 0h1.529v1.06h-1.53v-1.06Zm-2.679 0h1.53v1.06h-1.53v-1.06Zm-2.678 0h1.529v1.06h-1.53v-1.06Zm13.392-2.591h1.53v1.06h-1.53v-1.06Zm-2.678 0h1.529v1.06h-1.53v-1.06Zm-2.679 0h1.53v1.06h-1.53v-1.06Zm-2.678 0h1.529v1.06h-1.53v-1.06Zm-2.679 0h1.53v1.06h-1.53v-1.06Zm-2.678 0h1.529v1.06h-1.53v-1.06Zm13.392-2.591h1.53v1.06h-1.53v-1.06Zm-2.678 0h1.529v1.06h-1.53v-1.06Zm-2.679 0h1.53v1.06h-1.53v-1.06Zm-2.678 0h1.529v1.06h-1.53v-1.06Zm-2.679 0h1.53v1.06h-1.53v-1.06Zm-2.678 0h1.529v1.06h-1.53v-1.06Zm15.635-5.495h15.626v-2.617H37.434l.038 2.616Zm15.958 0h3.768v-2.617H53.43v2.616Zm4.1 0h12.93v-2.617H57.53v2.616Zm13.262 0h3.768v-2.617h-3.768v2.616Zm4.1 0h15.605v-2.617H74.891v2.616Zm15.605 12.203H74.891v5.283h15.606v-5.283Zm-15.937 0h-3.772v5.283h3.772v-5.283Zm-4.304 0h-3.82v5.283h.496v-1.99h2.713v1.99h.611v-5.283Zm-4.353 0h-3.82v5.283h.581v-1.99h2.714v1.99h.525v-5.283Zm-4.352 0h-3.82v5.283h.666v-1.99h2.713v1.99h.44v-5.283Zm-4.353 0H53.43v5.283h3.768v-5.283Zm-4.1 0H37.472v5.283h15.626v-5.283Zm23.624.818h-1.53v1.308h1.53V69.63ZM22.77 75.846V75.3h82.768v.547H22.77Zm12.458-3.377h1.53v1.06h-1.53v-1.06Zm-2.678 0h1.529v1.06h-1.53v-1.06Zm-2.679 0h1.53v1.06h-1.53v-1.06Zm-2.678 0h1.529v1.06h-1.53v-1.06Zm-2.679 0h1.53v1.06h-1.53v-1.06Zm-2.678 0h1.529v1.06h-1.53v-1.06Zm51.603-.363h-1.529v1.307h1.53v-1.307Zm-17.362 0H54.55v1.307h1.53v-1.307Zm-3.23 0H51.32v1.307h1.53v-1.307Zm-2.678 0h-1.53v1.307h1.53v-1.307Zm-2.678 0h-1.53v1.307h1.53v-1.307Zm-2.679 0h-1.529v1.307h1.53v-1.307Zm-2.678 0h-1.53v1.307h1.53v-1.307Zm-2.679 0h-1.529v1.307h1.53v-1.307Zm37.266 0h-1.53v1.307h1.53v-1.307Zm2.678 0h-1.53v1.307h1.53v-1.307Zm2.679 0h-1.53v1.307h1.53v-1.307Zm2.678 0h-1.53v1.307h1.53v-1.307Zm2.679 0h-1.53v1.307h1.53v-1.307Zm2.678 0h-1.53v1.307h1.53v-1.307Zm2.572.363h-1.53v1.06h1.53v-1.06Zm2.678 0h-1.53v1.06h1.53v-1.06Zm2.679 0h-1.53v1.06h1.53v-1.06Zm2.678 0h-1.53v1.06h1.53v-1.06Zm2.679 0h-1.53v1.06h1.53v-1.06Zm2.678 0h-1.529v1.06h1.529v-1.06ZM39.456 69.63h-1.529v1.308h1.53V69.63Zm2.679 0h-1.53v1.308h1.53V69.63Zm2.678 0h-1.529v1.308h1.53V69.63Zm2.679 0h-1.53v1.308h1.53V69.63Zm2.678 0h-1.53v1.308h1.53V69.63Zm2.679 0h-1.53v1.308h1.53V69.63Zm3.23 0h-1.53v1.308h1.53V69.63Zm2.318 0h2.713v1.238h-2.713v-1.238Zm4.267 0h2.714v1.238h-2.714v-1.238Zm4.268 0h2.713v1.238h-2.713v-1.238Zm12.468 0h-1.53v1.308h1.53V69.63Zm2.679 0h-1.53v1.308h1.53V69.63Zm2.678 0h-1.53v1.308h1.53V69.63Zm2.679 0h-1.53v1.308h1.53V69.63Zm2.678 0h-1.53v1.308h1.53V69.63Zm-16.674 0h-1.529v1.308h1.53V69.63ZM35.23 59.513h1.53v1.061h-1.53v-1.06Zm-2.678 0h1.529v1.061h-1.53v-1.06Zm-2.679 0h1.53v1.061h-1.53v-1.06Zm-2.678 0h1.529v1.061h-1.53v-1.06Zm-2.679 0h1.53v1.061h-1.53v-1.06Zm-2.678 0h1.529v1.061h-1.53v-1.06Zm53.108-6.46v-.689h-4.538v.688h4.538Zm-17.362 0v-.689h-4.539v.688h4.539Zm15.857 1.802h-1.529v1.061h1.53v-1.06Zm3.306 0h-1.53v1.061h1.53v-1.06Zm2.664 0h-1.53v1.061h1.53v-1.06Zm2.664 0h-1.53v1.061h1.53v-1.06Zm2.664 0h-1.53v1.061h1.53v-1.06Zm2.664 0h-1.53v1.061h1.53v-1.06Zm2.663 0h-1.529v1.061h1.53v-1.06Zm-23.133 0h2.713v1.061h-2.713v-1.06Zm-4.268 0h2.714v1.061h-2.714v-1.06Zm-4.267 0h2.713v1.061h-2.713v-1.06Zm-3.848 0h1.53v1.061h-1.53v-1.06Zm-3.305 0h1.53v1.061h-1.53v-1.06Zm-2.664 0h1.53v1.061h-1.53v-1.06Zm-2.664 0h1.53v1.061h-1.53v-1.06Zm-2.664 0h1.53v1.061h-1.53v-1.06Zm-2.664 0h1.53v1.061h-1.53v-1.06Zm-2.664 0h1.53v1.061h-1.53v-1.06Zm57.44 4.658h-1.53v1.061h1.53v-1.06Zm2.679 0h-1.53v1.061h1.53v-1.06Zm2.678 0h-1.53v1.061h1.53v-1.06Zm2.679 0h-1.53v1.061h1.53v-1.06Zm2.678 0h-1.529v1.061h1.529v-1.06Zm-68.154 6.988h1.53v1.06h-1.53v-1.06Zm2.664 0h1.53v1.06h-1.53v-1.06Zm2.664 0h1.53v1.06h-1.53v-1.06Zm2.664 0h1.53v1.06h-1.53v-1.06Zm2.664 0h1.53v1.06h-1.53v-1.06Zm2.664 0h1.53v1.06h-1.53v-1.06Zm3.305 0h1.53v1.06h-1.53v-1.06Zm3.848 0h2.713v1.06h-2.713v-1.06Zm4.267 0h2.714v1.06h-2.714v-1.06Zm4.268 0h2.713v1.06h-2.713v-1.06Zm23.133 0h-1.529v1.06h1.53v-1.06Zm-2.663 0h-1.53v1.06h1.53v-1.06Zm-2.664 0h-1.53v1.06h1.53v-1.06Zm-2.664 0h-1.53v1.06h1.53v-1.06Zm-2.664 0h-1.53v1.06h1.53v-1.06Zm-2.664 0h-1.53v1.06h1.53v-1.06Zm-3.306 0h-1.529v1.06h1.53v-1.06Zm0-2.863h-1.529v1.06h1.53v-1.06Zm3.306 0h-1.53v1.06h1.53v-1.06Zm2.664 0h-1.53v1.06h1.53v-1.06Zm2.664 0h-1.53v1.06h1.53v-1.06Zm2.664 0h-1.53v1.06h1.53v-1.06Zm2.664 0h-1.53v1.06h1.53v-1.06Zm2.663 0h-1.529v1.06h1.53v-1.06Zm-23.133 0h2.713v1.06h-2.713v-1.06Zm-4.268 0h2.714v1.06h-2.714v-1.06Zm-4.267 0h2.713v1.06h-2.713v-1.06Zm-3.848 0h1.53v1.06h-1.53v-1.06Zm-3.305 0h1.53v1.06h-1.53v-1.06Zm-2.664 0h1.53v1.06h-1.53v-1.06Zm-2.664 0h1.53v1.06h-1.53v-1.06Zm-2.664 0h1.53v1.06h-1.53v-1.06Zm-2.664 0h1.53v1.06h-1.53v-1.06Zm-2.664 0h1.53v1.06h-1.53v-1.06Zm0-2.863h1.53v1.06h-1.53v-1.06Zm2.664 0h1.53v1.06h-1.53v-1.06Zm2.664 0h1.53v1.06h-1.53v-1.06Zm2.664 0h1.53v1.06h-1.53v-1.06Zm2.664 0h1.53v1.06h-1.53v-1.06Zm2.664 0h1.53v1.06h-1.53v-1.06Zm3.305 0h1.53v1.06h-1.53v-1.06Zm3.848 0h2.713v1.06h-2.713v-1.06Zm4.267 0h2.714v1.06h-2.714v-1.06Zm4.268 0h2.713v1.06h-2.713v-1.06Zm23.133 0h-1.529v1.06h1.53v-1.06Zm-2.663 0h-1.53v1.06h1.53v-1.06Zm-2.664 0h-1.53v1.06h1.53v-1.06Zm-2.664 0h-1.53v1.06h1.53v-1.06Zm-2.664 0h-1.53v1.06h1.53v-1.06Zm-2.664 0h-1.53v1.06h1.53v-1.06Zm-3.306 0h-1.529v1.06h1.53v-1.06Zm-35.516-2.863h1.53v1.06h-1.53v-1.06Zm2.664 0h1.53v1.06h-1.53v-1.06Zm2.664 0h1.53v1.06h-1.53v-1.06Zm2.664 0h1.53v1.06h-1.53v-1.06Zm2.664 0h1.53v1.06h-1.53v-1.06Zm2.664 0h1.53v1.06h-1.53v-1.06Zm3.305 0h1.53v1.06h-1.53v-1.06Zm3.848 0h2.713v1.06h-2.713v-1.06Zm4.267 0h2.714v1.06h-2.714v-1.06Zm4.268 0h2.713v1.06h-2.713v-1.06Zm23.133 0h-1.529v1.06h1.53v-1.06Zm-2.663 0h-1.53v1.06h1.53v-1.06Zm-2.664 0h-1.53v1.06h1.53v-1.06Zm-2.664 0h-1.53v1.06h1.53v-1.06Zm-2.664 0h-1.53v1.06h1.53v-1.06Zm-2.664 0h-1.53v1.06h1.53v-1.06Zm-3.306 0h-1.529v1.06h1.53v-1.06Zm19.246 11.966h-1.53v1.06h1.53v-1.06Zm2.678 0h-1.53v1.06h1.53v-1.06Zm2.679 0h-1.53v1.06h1.53v-1.06Zm2.678 0h-1.53v1.06h1.53v-1.06Zm2.679 0h-1.53v1.06h1.53v-1.06Zm2.678 0h-1.529v1.06h1.529v-1.06Zm-13.392-2.591h-1.53v1.06h1.53v-1.06Zm2.678 0h-1.53v1.06h1.53v-1.06Zm2.679 0h-1.53v1.06h1.53v-1.06Zm2.678 0h-1.53v1.06h1.53v-1.06Zm2.679 0h-1.53v1.06h1.53v-1.06Zm2.678 0h-1.529v1.06h1.529v-1.06Zm-13.392-2.591h-1.53v1.06h1.53v-1.06Zm2.678 0h-1.53v1.06h1.53v-1.06Zm2.679 0h-1.53v1.06h1.53v-1.06Zm2.678 0h-1.53v1.06h1.53v-1.06Zm2.679 0h-1.53v1.06h1.53v-1.06Zm2.678 0h-1.529v1.06h1.529v-1.06Zm-13.392-2.591h-1.53v1.06h1.53v-1.06Zm2.678 0h-1.53v1.06h1.53v-1.06Zm2.679 0h-1.53v1.06h1.53v-1.06Zm2.678 0h-1.53v1.06h1.53v-1.06Zm2.679 0h-1.53v1.06h1.53v-1.06Zm2.678 0h-1.529v1.06h1.529v-1.06Z" fill="#AE1623"/><path fill-rule="evenodd" clip-rule="evenodd" d="M64 20c24.296 0 44 19.703 44 44 0 24.296-19.704 44-44 44-24.297 0-44-19.704-44-44 0-24.297 19.703-44 44-44Zm0 1.962c23.213 0 42.038 18.825 42.038 42.038 0 23.213-18.825 42.038-42.038 42.038-23.213 0-42.038-18.825-42.038-42.038 0-23.213 18.825-42.038 42.038-42.038Z" fill="#AE1623"/><path fill-rule="evenodd" clip-rule="evenodd" d="M57.848 80.914H54.67v-.332h3.178v.332Zm1.67 1.658h-.642v-2.758h-.836v-.248c.334 0 .595-.05.78-.145a.689.689 0 0 0 .363-.435h.334v3.586Zm3.34-1.824c0 .567-.135 1.02-.405 1.358-.269.339-.655.508-1.157.508-.352 0-.636-.097-.849-.29-.213-.194-.32-.408-.32-.642h.64c0 .138.051.263.153.373.103.11.237.165.405.165a.682.682 0 0 0 .627-.352c.139-.236.228-.58.265-1.037a.928.928 0 0 1-.39.352 1.24 1.24 0 0 1-.558.124c-.353 0-.642-.096-.864-.29-.223-.193-.335-.47-.335-.83 0-.358.112-.649.334-.87.223-.221.558-.331 1.004-.331.446 0 .8.138 1.06.414.26.276.39.726.39 1.348Zm-.697-.477c0-.304-.07-.532-.21-.684-.138-.152-.329-.228-.57-.228a.644.644 0 0 0-.446.176c-.13.118-.195.335-.195.653 0 .235.051.418.153.549.102.132.264.197.488.197.241 0 .432-.062.57-.186a.612.612 0 0 0 .21-.477Zm4.13 1.389h-.585v.912h-.64v-.912h-1.868v-.394l1.867-2.28h.641v2.28h.585v.394Zm-1.226-.394v-1.534l-1.255 1.534h1.255Zm4.327.021c0 .415-.135.74-.405.974-.268.235-.626.353-1.072.353-.392 0-.712-.096-.962-.29a1.02 1.02 0 0 1-.405-.788h.641c0 .208.066.373.195.498.13.124.316.186.558.186.241 0 .432-.076.57-.228.14-.152.21-.387.21-.705 0-.277-.06-.481-.18-.612a.63.63 0 0 0-.488-.197 1.02 1.02 0 0 0-.432.083.988.988 0 0 0-.348.29h-.558l.168-1.824h2.396v.394h-1.866l-.113.953c.112-.083.232-.145.363-.186.13-.042.306-.062.529-.062.353 0 .64.1.865.3.222.201.334.488.334.861Zm3.888-.373h-3.178v-.332h3.178v.332Z" fill="#AE1623"/></svg>