<svg width="128" height="137" fill="none" xmlns="http://www.w3.org/2000/svg"><g filter="url(#a)" fill-rule="evenodd" clip-rule="evenodd" fill="#E60013"><path d="m68.395 33.204 2.584.456.203-1.147-1.09-.192.221-1.26.928.163.192-1.09-.928-.164.193-1.09.99.175.203-1.148-2.485-.438-1.011 5.735ZM71.414 33.8l1.507-5.626 1.465.393-1.507 5.625-1.465-.392Z"/><path d="m64 25.43 1.98.045 1.96.156 1.916.248 1.898.335 1.871.43 1.814.529 1.8.61 1.749.686 1.712.781 1.664.853 1.612.93 1.56 1.002 1.508 1.083 1.465 1.132 1.396 1.226 1.348 1.27 1.271 1.346 1.226 1.4 1.144 1.461 1.072 1.508 1 1.563.943 1.613.846 1.665.776 1.709.686 1.75.617 1.8.521 1.822.43 1.861.337 1.897.247 1.932.152 1.948.051 1.98-.051 1.989-.152 1.949-.247 1.927-.337 1.895-.43 1.864-.521 1.825-.617 1.789-.686 1.748-.776 1.71-.846 1.666-.943 1.614-1 1.561-1.072 1.518-1.144 1.452-1.226 1.407-1.271 1.35-1.348 1.268-1.396 1.217-1.465 1.154-1.508 1.074-1.56 1-1.612.93-1.664.857-1.712.765-1.749.699-1.8.611-1.814.515-1.87.442-1.9.334-1.915.239-1.96.153-1.98.047-1.98-.047-1.96-.153-1.917-.239-1.897-.334-1.87-.442-1.816-.515-1.8-.611-1.748-.699-1.713-.765-1.664-.857-1.612-.93-1.562-1-1.505-1.074-1.463-1.154-1.398-1.217-1.348-1.269-1.273-1.35-1.223-1.406-1.145-1.452-1.073-1.518-1-1.561-.94-1.614-.848-1.665-.776-1.71-.687-1.75-.612-1.788-.525-1.825-.43-1.864-.335-1.895-.25-1.927-.153-1.95-.05-1.988.05-1.98.153-1.948.25-1.932.335-1.897.43-1.86.525-1.823.612-1.8.687-1.75.776-1.709.847-1.665.94-1.613 1.001-1.563 1.073-1.508 1.145-1.461 1.223-1.4 1.273-1.345 1.348-1.271 1.398-1.226 1.463-1.132 1.505-1.083 1.562-1.001 1.612-.93 1.664-.854 1.713-.78 1.748-.686 1.8-.611 1.815-.53 1.87-.428 1.898-.335 1.917-.25 1.96-.155L64 25.43Zm2.762-3.627-2.592 2.729-.17.18-.17-.18-2.592-2.729-2.215 3.052-.155.194-.18-.153-2.939-2.37-1.8 3.305-.119.22-.209-.122-3.21-1.972-1.449 3.746-.217-.098-3.45-1.528-.881 3.662-.059.238-3.84-1.132-.412 3.744-.017.246-.242-.047-3.721-.584.093 3.78.002.236-.245-.005-3.77-.09.585 3.718.035.249-.235.01-3.744.414 1.062 3.602.07.236-.235.06-3.664.88 1.528 3.45.1.22-.232.098-3.514 1.351 1.97 3.208.123.222-.222.107-3.304 1.8 2.368 2.937.157.186-.195.15-3.052 2.217 2.91 2.761-.183.171-2.727 2.6 3.052 2.205.195.154-.157.194-2.368 2.925 3.304 1.803.222.116-.123.211-1.97 3.21 3.514 1.371.232.075-.1.23-1.528 3.44 3.664.88.236.065-.071.23-1.061 3.614 3.743.404.235.013-.035.255-.584 3.717 3.769-.098h.245l-.003.254-.092 3.754 3.721-.583.242-.037.017.235.411 3.76 3.604-1.075.237-.066.94 3.899 3.45-1.528.217-.104.089.244 1.36 3.501 3.21-1.956.21-.121.119.208 1.8 3.315 2.937-2.381.18-.152.156.201 2.215 3.048 2.592-2.733.17-.181.17.181 2.592 2.733 2.216-3.048.155-.201.182.152 2.936 2.381 1.799-3.315.122-.208.206.121 3.21 1.956 1.361-3.501.09-.244.216.104 3.45 1.528.881-3.656.06-.243.236.066 3.603 1.075.412-3.76.02-.235.239.037 3.72.583-.092-3.754-.003-.254h.248l3.765.098-.582-3.717-.038-.255.238-.013 3.743-.404-1.062-3.614-.07-.23.235-.065 3.664-.88-1.528-3.44-.096-.23.229-.075 3.514-1.37-1.97-3.21-.12-.212.219-.116 3.305-1.803-2.37-2.925-.155-.194.195-.154 3.051-2.206-2.726-2.599-.185-.171.185-.174 2.726-2.587-3.051-2.217-.195-.15.155-.186 2.37-2.937-3.305-1.8-.219-.107.12-.222 1.97-3.208-3.514-1.351-.229-.098 1.624-3.67-3.664-.88-.235-.06.07-.236 1.062-3.602-3.743-.414-.239-.01.62-3.967-3.764.09-.248.005.003-.236.093-3.78-3.721.584-.24.047-.019-.246-.412-3.744-3.839 1.132-.06-.238-.88-3.662-3.451 1.528-.217.098-.089-.228-1.36-3.518-3.21 1.972-.207.122-.122-.22-1.8-3.306-2.935 2.371-.182.153-.155-.194-2.216-3.052Z"/><path d="m64 24.04 2.618-2.758.202-.205.159.22 2.24 3.08 2.955-2.398.22-.165.131.242 1.821 3.344 3.243-1.99.234-.144.103.26 1.37 3.558 3.474-1.55.255-.117.065.27.898 3.7 3.635-1.071.274-.088.028.29.401 3.775 3.76-.596.278-.037-.01.28-.093 3.799 3.797-.092.283-.008-.038.278-.597 3.757 3.775.4.289.028-.087.274-1.07 3.648 3.699.885.271.065-.116.254-1.55 3.479 3.558 1.372.258.1-.142.234-1.989 3.24 3.342 1.823.241.132-.166.22-2.397 2.95 3.081 2.243.22.17-.205.19L103.956 64l2.762 2.618.205.2-.22.161-3.081 2.243 2.397 2.962.166.209-.241.133-3.342 1.82 1.989 3.245.142.242-.258.092-3.558 1.37 1.666 3.736-.271.06-3.699.895 1.07 3.643.087.28-.29.017-3.774.403.596 3.766.04.268h-.284l-3.797-.098.092 3.793.011.29-.278-.046-3.76-.584-.4 3.775-.029.28-.274-.076-3.635-1.088-.898 3.704-.065.27-.255-.11-3.473-1.546-1.37 3.546-.104.266-.234-.15-3.243-1.978-1.82 3.332-.132.259-.22-.18-2.956-2.389-2.24 3.069-.158.226-.202-.2L64 103.967l-2.618 2.761-.203.2-.158-.226-2.24-3.069-2.955 2.389-.22.18-.131-.259-1.82-3.332-3.244 1.978-.232.15-.105-.266-1.37-3.546-3.476 1.546-.254.11-.064-.27-.898-3.704-3.635 1.088-.274.076-.029-.28-.4-3.774-3.758.583-.28.045.01-.288.095-3.794-3.8.098h-.282l.038-.268.596-3.766-3.774-.403-.29-.017.088-.28 1.073-3.643-3.703-.895-.27-.06.116-.259 1.55-3.478-3.556-1.37-.26-.09.141-.243 1.993-3.245-3.345-1.82-.242-.133.167-.21 2.397-2.961-3.081-2.243-.219-.16.204-.2 2.76-2.62-2.76-2.617-.204-.192.219-.17 3.081-2.243-2.397-2.95-.167-.219 3.587-1.954-1.993-3.24-.14-.236.259-.099 3.556-1.372-1.55-3.479-.116-.254.27-.065 3.703-.885-1.073-3.648-.087-.274.289-.028 3.774-.4-.596-3.757-.038-.278.283.008 3.799.092-.095-3.799-.01-.28.28.037 3.757.596.401-3.775.03-.29.273.088 3.635 1.072.898-3.701.064-.27.254.117 3.476 1.55 1.37-3.558.105-.26.232.144 3.243 1.99 1.953-3.586.22.165 2.954 2.398 2.24-3.08.158-.22.203.205L64 24.04ZM64 20l2.254.055 2.227.176 2.21.276 2.159.382 2.124.497 2.083.593 2.045.697 1.998.783 1.951.894 1.892.97 1.845 1.063 1.786 1.15 1.721 1.231 1.667 1.296 1.595 1.389 1.53 1.46 1.463 1.53 1.385 1.598 1.3 1.664 1.231 1.72 1.148 1.787 1.063 1.846.975 1.901.887 1.945.784 1.993.696 2.047.596 2.084.492 2.124.387 2.157.275 2.209.176 2.227.056 2.256-.056 2.264-.176 2.229-.275 2.2-.387 2.158-.492 2.123-.596 2.095-.696 2.045-.784 1.983-.887 1.955-.975 1.892-1.063 1.844-1.148 1.788-1.232 1.732-1.299 1.66-1.385 1.59-1.463 1.529-1.53 1.462-1.595 1.387-1.667 1.31-1.72 1.23-1.787 1.151-1.845 1.048-1.892.975-1.95.892-2 .791-2.044.689-2.083.594-2.124.493-2.158.395-2.21.278-2.228.171L64 108l-2.254-.047-2.227-.171-2.21-.278-2.157-.395-2.126-.493-2.083-.594-2.045-.689-1.998-.791-1.952-.892-1.893-.975-1.843-1.048-1.787-1.151-1.72-1.23-1.666-1.31-1.596-1.387-1.53-1.462-1.46-1.529-1.387-1.59-1.298-1.66-1.234-1.732-1.148-1.788-1.063-1.844-.973-1.892-.893-1.955-.78-1.983-.696-2.045-.597-2.095-.493-2.123-.385-2.158-.276-2.2-.175-2.229L19.998 64l.056-2.256.175-2.227.276-2.21.385-2.156.493-2.124.597-2.084.697-2.047.78-1.993.892-1.945.973-1.9 1.063-1.847 1.148-1.787 1.234-1.72 1.298-1.664 1.387-1.597 1.46-1.53 1.53-1.461 1.596-1.39 1.666-1.295 1.72-1.232 1.787-1.149 1.843-1.063 1.893-.97 1.952-.894 1.998-.783 2.045-.697 2.083-.593 2.126-.497 2.156-.382 2.212-.276 2.226-.176L64 20Z"/><path d="m59.872 93.585.007.048.01.04v.103l-.017.04-.012.05-.008.03-.022.04-.027.038-.026.039-.029.033-.038.016-.038.016-.038.025-.05.01h-.042l-.071-.01-.08-.013h-.078l-.065.013-.143.015-.132.034h-.067l-.071.005h-.054l-.065-.005-.029-.011-.034-.014-.026-.013-.028-.011-.025-.028-.03-.029-.034-.033-.025-.039.019-.025.03-.04.014-.027.013-.04.02-.077.018-.09.028-.166.021-.161.005-.078.012-.087.026-.066.025-.065.026-.04.022-.026.017-.024.027-.026.027-.025.033-.014.038-.022.039-.016.066-.068.044-.047.05-.05.058-.029.042-.028.043-.008.027-.005h.038l.035.013.026.014.028.014.027.028.022.038.02.034.026.043.023.051.064.203.077.208.049.095.044.087.033.045.016.03.038.031.031.027Zm14.14-.996.002.072.036.046.013.037.039.025.04.035.037.016.05.023.056.007.094.009.109.016h.046l.046.022.05.014.039.014.045.048.049.039.05.05.055.032.049.032.045.04.062.04.053.026.13.046.113.039.12.03.137.018.12.022h.27l.13-.022.131-.009.114-.029.121-.04.116-.038.04.03h.027l.037.021.04.01.088.017.076.02.038.01.026.018.039.019.018.03.032.028.007.04v.093l-1.453 1.319-.077-.01-.078-.017-.077-.01-.065-.04-.08-.017-.064-.048-.064-.028-.065-.04-.068-.049-.061-.048-.066-.053-.055-.053-.125-.115-.115-.114-.226-.249-.23-.237-.119-.115-.115-.103-.055-.049-.06-.038-.054-.046-.06-.038-.096-.155-.126-.164-.13-.17-.116-.173.038-.048.05-.04.039-.037.05-.026.053-.022.057-.019.058-.009h.183l.053.01h.06l.116.04.108.015Zm-.463-2.307v.024l.01.038v.015l-.01.036-.006.016-.01.021-.014.03-.017.008-.038.035-.049.032-.038.04-.025.038-.027.016h-.062l-.016-.01-.035-.006-.016-.022-.02-.016-.019-.012-.028-.04-.036-.046-.029-.037-.05-.03-.009-.068v-.062l.021-.062.015-.046.052-.114.054-.106.049-.009h.04l.027.01.037.005.025.023.013.026.023.024.006.038.037.053.03.056.03.035.019.025.036.017.03.025Zm-.469-1.656v.371l.013.067v.066l.01.076.015.062.023.065.016.077.028.055.027.057.039.06.049.054.052.058.035-.037.047-.011.038-.01h.047l.04.01h.037l.038.026.041.022.077.047.085.037.038.023.038.01.046.007h.052l.142-.007h.209l.068.018.062.022.061.016.068.01.054.038.051.03.054.038.05.05.038.053.027.056.038.078-.055.086-.06.078-.055.077-.065.065-.077.067-.068.066-.075.066-.078.072-.164.102-.148.118-.174.104-.158.104-.16.116-.142.105-.087.064-.067.066-.065.061-.06.073-.066.072-.044.077-.06.072-.045.085-.037.087-.05.096-.03.094-.023.11.03.069.023.08.012.037.002.048v.052l-.002.036-.05.058-.053.06-.025.054-.04.065-.017.061-.032.068-.017.064v.077l-.026.133-.023.144v.066l-.011.075-.015.067-.028.059-.029.12-.036.117-.051.114-.048.13-.058.113-.046.105-.068.117-.067.102-.067.116-.077.106-.077.092-.073.105-.077.099-.09.085-.093.097-.09.083-.091.089-.106.087-.097.07-.106.08-.105.065-.091.075-.117.063-.102.053-.13.06-.115.046-.121.049-.105.038-.126.025-.122.04-.127.024-.125.028-.016-.028-.023-.012-.006-.02-.033-.007-.038-.01-.045-.015-.05-.009h-.047l-.038-.016-.04-.027.021-.048.013-.052.026-.044.011-.037.026-.051.027-.036.031-.04.037-.027.066-.057.088-.06.087-.05.085-.043.192-.064.201-.073.085-.04.1-.044.081-.035.09-.061.053-.04.048-.044.055-.04.04-.047.088-.105.087-.094.068-.115.054-.116.049-.105.057-.113.098-.233.154-.34.065-.105.055-.11.077-.106-.048-.027-.038-.029-.046-.02h-.048l-.04-.006h-.048l-.038.007-.035.02-.049.011-.029.017-.038.027-.049.023-.064.065-.068.077-.151.16-.148.166-.071.074-.08.067-.05.029-.029.028-.048.021-.038.01h-.22l-.11-.01-.114-.02-.1-.018-.118-.027-.103-.033-.093-.03-.093-.036-.1-.044-.094-.05-.078-.065-.085-.067-.076-.076-.068-.079-.064-.098.064-.33.194-.06.207-.078.204-.066.199-.09.204-.081.185-.097.194-.107.18-.101.191-.118.173-.117.165-.118.17-.144.155-.138.152-.148.067-.077.065-.078.08-.088.052-.076.01-.082v-.077l.015-.089-.014-.082v-.154l-.04-.167-.065-.323-.076-.313-.04-.165-.037-.17-.017-.165-.023-.161-.003-.089v-.087l.003-.07.013-.09.01-.093.017-.087.022-.09.028-.09-.05-.131-.043-.158-.022-.087-.04-.077-.009-.077-.017-.083-.011-.076-.01-.088.01-.076.011-.067.017-.039.01-.028.022-.048.017-.027.022-.04.026-.028.04-.026.027-.036.103.012.119.024.1.026.118.028.114.029.105.038.106.035.105.053.103.048.088.068.08.054.091.076.026.04.04.048.033.038.03.045.036.049.015.04.023.056.016.05Zm-12.94-2.242.026.034.029.026.02.041.018.038.01.04.01.042.008.038v.243l-.008.18v.093l.008.09v.043l.02.033v.043l.018.036.022.026.027.036.028.019.032.028.032.019.051.019.05.011.065.011.03-.06.026-.047.05-.036.05-.038.049-.027.045-.024.059-.016.044-.01h.22l.059.01.056.016.05.024.047.004.03.04.038.033.039.024.038.016.084.03.077.039.05.011.037.023.039.016.038.029.039.017.026.04.041.04.015.042v.078l-.015.066-.015.08-.015.07-.023.067-.036.054-.017.06-.05.056-.027.055-.049.06-.038.048-.058.045-.096.106-.117.087-.113.087-.122.079-.128.083-.122.065-.246.136-.221.143-.137.04-.142.039-.145.041-.141.051-.057.027-.065.04-.063.036-.047.05-.043.054-.04.063-.01.027-.017.049-.01.04-.015.034.064.03.055.03.054.015.062.023.053.017.06.01.057.011h.113l.05-.012.056-.009.067-.004.104-.036.103-.026.222-.084.218-.088.117-.05.104-.04.116-.026.106-.016.03-.035.019-.027.038-.01h.026l.028-.007.021.007h.039l.019.01.068.026.057.013h.029l.026.011.035.012h.039l.03.016.04.026.033.04.026.03.026.035.023.034.016.045.03.037.05.155.046.172-.203.136-.195.018-.216.01-.199.01-.218.017h-.21l-.214.013-.209.018-.2.02-.105.017-.098.02-.092.006-.106.02-.098.04-.093.016-.094.04-.096.038-.085.038-.087.049-.089.051-.084.054-.085.066-.068.065-.088.079-.065.075v.107l.015.032.023.033.01.02.028.029.026.026.051.063.068.038.049.026.055.027.103-.011h.138l.043.023h.042l.049.017.047.01.039.03.028.02.043.029.033.026.028.04.039.038.026.05v.076l-.016.04-.01.037-.062.066-.043.055-.034.028-.016.032-.016.04-.022.026v.145l.028.049.21.186.218.202.213.171.22.164.228.184.233.17.216.181.24.181.03.094.016.09.028.077.011.087v.15l-.016.036-.023.049-.015.038-.03.051-.228.045-.468.098-.242.044-.238.05-.23.067-.113.031-.118.032-.103.037-.109.053-.217.028-.208.021-.106.019-.115.007-.115.017-.094.024-.105.014-.097.038-.052.026-.045.027-.048.02-.04.028-.038.026-.036.031-.038.035-.039.042-.038.036-.029.049-.029.059-.038.048-.092.377-.1.386-.044.194-.05.181-.05.186-.067.194-.062.18-.067.191-.038.088-.038.083-.054.08-.045.087-.046.082-.05.09-.053.075-.063.078-.065.076-.054.077-.073.068-.07.064-.116-.01-.116-.04-.067-.005-.048-.01-.053-.03-.063-.021-.055-.026-.047-.04-.05-.027-.045-.038-.039-.038-.033-.05-.04-.058-.014-.065-.038-.047-.01-.05-.019-.055-.023-.05-.027-.103-.017-.107v-.22l.008-.102.02-.11.04-.102.028-.097.048-.094.044-.104.061-.101.065-.08.08-.09.063-.064.04-.028.026-.012.021-.026.018-.035.011-.027.012-.027.003-.028v-.296l-.038-.04-.041-.038-.039-.027-.05-.011-.05-.012h-.107l-.042.023-.103.018-.11.03-.046.008h-.103l-.061-.008-.153-.213-.135-.196-.026-.05-.05-.05-.038-.04-.038-.044-.043-.028-.048-.038-.068-.037-.063-.035-.007-.063v-.068l.018-.055.013-.067.006-.03.01-.017.023-.03.013-.02.03-.013.025-.014.039-.013.022-.011.21.038.221.023.114.01.118.006.105-.006.115-.01.103-.01.106-.018.103-.04.098-.037.04-.029.044-.02.039-.028.05-.036.037-.03.028-.05.038-.04.023-.054-.023-.07-.012-.085-.006-.074v-.08l.006-.063.013-.088.022-.076.016-.069.05-.142.044-.143.07-.142.058-.131.014-.08.033-.065.017-.073.012-.064.015-.066v-.198l-.004-.072-.023-.065-.026-.052-.028-.069-.05-.07-.055-.068-.063-.066-.08-.065.032-.04.048-.049.052-.038.04-.029.09-.054.102-.065.032-.04.039-.035.04-.035.03-.039.014-.055.016-.05v-.056l-.016-.075-.035-.078-.029-.068-.059-.053-.055-.06-.056-.055-.071-.051-.07-.048-.074-.039-.07-.04-.077-.028-.088-.014-.088-.023-.082-.018-.088-.02h-.173l-.075.02-.06.03-.055.025-.049.042-.045.037-.04.037-.038.051-.032.045-.027.05-.03.049-.014.055-.024.058-.027.112-.02.115-.046.254-.05.244-.016.055-.022.064-.019.055-.03.055-.017.046-.04.052-.038.055-.047.039-.028.105-.051.096-.026.096-.039.104-.052.201-.055.212-.052.209-.061.209-.054.214-.067.199-.04.102-.028.099-.035.105-.052.084-.037.098-.061.095-.054.087-.056.08-.07.089-.068.079-.077.087-.072.066-.085.066-.091.068-.091.074-.105.05-.155.155-.169.159-.053.03-.047.037-.057.02-.058.018-.055.012h-.067l-.077-.012-.069-.027-.037-.03-.027-.036-.032-.039-.016-.037-.022-.041v-.04l-.006-.037v-.038l.006-.074.022-.07.026-.085.03-.066.031-.085.025-.075v-.074l.01-.043-.01-.027v-.077l-.018-.035-.03-.032-.016-.04-.039-.031-.049-.039-.038-.038v-.055l.011-.054.006-.048.01-.063.03-.032.021-.049.026-.04.039-.05.056-.077.088-.076.087-.054.096-.066.098-.067.081-.073.1-.07.093-.071.05-.04.04-.043.025-.04.043-.038.034-.048.03-.05.038-.056.014-.054.194-.308.18-.296.087-.154.08-.157.083-.156.075-.167.066-.16.07-.164.068-.16.055-.165.05-.172.046-.168.037-.178.038-.17.047-.05.055-.053.052-.128.021-.065.017-.055v-.066l.01-.077v-.144l-.022-.153-.005-.154-.032-.155-.019-.154v-.22l.011-.066.008-.053.02-.068.03-.065.027-.062.039-.048.047-.056.058-.049.067-.037.07-.041.093-.038.075-.065.09-.076.065-.084.068-.088.051-.094.051-.088.051-.093.05-.087.025-.106.031-.103.008-.102.006-.102v-.208l-.014-.107-.03-.102-.039-.062-.037-.056-.021-.056-.017-.072-.023-.052v-.347l.01-.142v-.209l-.01-.066.11-.04.046-.01.05-.01.037-.006.04.006.05.01h.03l.037.021.04.018.039.011.038.039.067.049.07.065.056.055.054.079.061.076.055.077.066.082.062.07.053.078.067.053.088.093.089.1.104.106.087.105.035.053.047.062.024.067.026.054.016.073.022.064v.078l-.01.078.01.065-.022.052-.016.053-.021.048-.03.046-.036.038-.04.038-.043.036-.1.063-.107.052-.102.051-.087.045-.045-.027-.047-.018-.057-.023h-.154l-.05.023-.048.018-.105.027-.107.038-.087.05-.093.05-.011.027-.015.03-.023.023-.006.023-.047.044-.05.033-.107.044-.093.05-.048.024-.04.026-.017.015-.02.022v.02l-.018.01-.01.026v.029l-.012.033.013.016.01.049v.028l.017.04.02.047.017.044.028.049.035.052.016.037.038.039.028.032.036.034.051.027.154.115.147.105.077.049.07.056.036.026.033.03.028.037.016.04.021.033.018.053.01.038v.05l.01.055v.053l-.01.074-.01.055.036.05.035.044.032.037.048.035.052.029.04.025.042.022.048.006.052.02h.153l.052-.02.054-.007.043-.021.036-.016.04-.038.034-.035.015-.026.029-.037.029-.068.038-.067.009-.087.024-.077.005-.082.011-.089.01-.17.01-.167.006-.078.022-.09.03-.065.025-.078-.005-.04-.033-.021-.017-.028-.028-.015-.06-.038-.068-.03-.152-.038-.142-.048-.067-.017-.05-.035-.016-.003-.022-.033-.015-.018-.012-.02v-.047l.012-.037.015-.026.022-.037.028-.042.038-.048.05-.05h.149l.077-.018.072-.01.072-.028.069-.02.067-.038.065-.03.059-.05.07-.043.052-.05.051-.055.055-.048.05-.07.038-.054.038-.08.044-.122.049-.155.041-.131.077-.438.052-.298.034-.144.03-.143.036-.142.04-.143.04-.142.075-.128.027-.067.038-.06.038-.067.039-.065h.172l.131-.01.126.01h.168l.042.03.05.035.038.053.038.035.054.08.057.093.03.036.028.041.03.038.038.029.039.02.036.029.057.01.06.004Zm-12.877-5.805h.17l.17.004.167.04.158.03.166.041.152.043.162.038.154.062.309.092.312.104.165.05.148.04.165.016.17.025.038.039.03.034.038.039.039.025.074.058.09.047.194.096.18.088.084.049.087.056.026.026.029.027.038.034.032.039.027.037.013.046.028.037.006.06.01.044v.177l-.044.066-.04.043-.06.05-.05.049-.044.048-.048.03-.054.036-.051.02-.066.026-.06.02-.055.018-.062.012-.12.024-.132.003-.26.011-.267.01-.128.011-.132.006-.127.023-.12.028-2.177-.132-.036.004-.037.023-.028.016-.083.069-.057.059-.105.112-.116.119.02.054.029.054.015.062.039.048.033.045.035.05.05.036.038.051.086.078.096.064.103.08.104.062.214.122.221.145.093.088.091.076.051.036.051.053.038.055.043.048h.154l.078.005.055.035.073.014.052.051.063.038.054.057.01.06-.01.054-.01.05-.017.042-.027.05-.032.041-.041.046-.038.04-.084.066-.097.054-.093.052-.09.05-.077.015h-.067l-.053.011h-.067l-.065-.01h-.071l-.054-.017-.068-.023-.104-.037-.116-.046-.105-.049-.114-.06-.103-.046-.108-.046-.057-.018-.057-.023-.061-.016-.055-.01h-.18l-.067.01-.06.008-.067.03-.065.02-.079.036-.085-.027-.096-.024-.106-.004-.103-.023-.115.012-.102.01-.05.005-.039.014-.05.021-.045.016-.035.105-.054.105-.049.104-.038.11-.026.11-.029.11-.027.111-.021.114-.039.233-.029.234-.017.241-.01.238-.016.49-.012.495-.01.246v.244l-.016.236-.035.233.05.208.04.202.026.201.04.212.028.197.038.22.049.194.054.197.038.1.034.093.038.092.044.089.052.094.049.087.052.087.055.083.062.079.077.075.08.08.08.066.087.063.103.075.096.064.126.053.22.144.193.144.049.05.045.027.04.049.047.039.03.055.038.049.025.049.028.056-.053.026-.05.035-.056.017-.066.027-.048.012-.116.016h-.184l-.12-.016-.125-.012-.119-.027-.257-.055-.258-.064-.13-.015-.134-.022h-.192l-.067.013-.048-.062-.05-.032-.056-.05-.05-.028-.055-.032-.066-.017-.069-.022-.067-.006-.121-.01-.144-.012h-.414l-.141-.004-.06-.022-.055-.018-.06-.01-.054-.027-.055-.033-.051-.039-.05-.038-.052-.056-.032-.05-.036-.066-.04-.074-.03-.085-.045-.066-.04-.076-.037-.078-.029-.067-.039-.076-.01-.079-.016-.063-.023-.09-.01-.076-.008-.077v-.088l-.008-.08.008-.168.008-.159.039-.336.049-.334.016-.171.012-.165.01-.162-.01-.175.075-.18.066-.183.062-.187.068-.18.114-.387.105-.379.066-.183.076-.184.066-.182.087-.184.077-.166.105-.172.055-.09.05-.08.064-.078.057-.089-.018-.049-.027-.04-.026-.043-.039-.026-.034-.012-.014-.022h-.029l-.034-.007-.026-.01h-.03l-.016.01-.038.007-1.715 1.59-.132.066-.12.077-.137.074-.123.079-.136.079-.124.064-.075.017-.065.03-.077.018-.069.016-.07.075-.071.065-.078.065-.073.05-.08.056-.078.056-.077.048-.088.06-.083.04-.088.045-.087.034-.093.04-.088.028-.082.038-.1.028-.08.022-.092.018-.104.031-.088.008-.092.009-.093.023h-.102l-.092.006h-.099l-.093-.006h-.093l-.1-.012-.091-.02-.096-.007-.098-.023-.094-.027-.1-.022-.077-.055-.064-.038-.083-.056-.077-.031-.175-.066-.173-.056-.077-.028-.076-.037-.076-.04-.072-.05-.074-.047-.063-.067-.018-.038-.028-.03-.031-.05-.03-.039-.114-.064-.12-.075-.069-.045-.068-.04-.058-.047-.052-.056-.05-.062-.063-.055-.037-.066-.04-.06-.018-.067-.014-.076-.022-.04v-.13l.013-.028.01-.033.028-.027.043-.027.038-.061h.27l.065.07.078.078.066.053.068.058.076.072.077.041.077.063.076.043.076.05.08.039.087.048.08.04.088.039.085.026.088.036.087.019.081.028.09.019.087.019.094.011.087.011.096.012h.275l.087-.023.093-.011.099-.02.087-.007.094-.026.095-.016.098-.04.131-.033.133-.04.127-.044.121-.048.126-.038.114-.05.116-.065.116-.048.116-.072.104-.074.105-.072.115-.078.105-.087.105-.093.103-.103.104-.113h.134l.02-.043.03-.049.057-.079.068-.074.078-.079.16-.144.153-.14.077-.068.057-.075.023-.04.024-.027.018-.04.012-.038.023-.048v-.123l-.015-.05-.008-.04-.016-.046-.035-.044-.105-.011h-.105l-.103.011-.105.007-.105.01-.106.027-.103.02-.105.027-.422.135-.414.138-.092.025-.106.02-.104.02-.098.01-.105.007-.084.01-.106-.01-.085-.008-.099-.02-.095-.029-.092-.038-.088-.048-.09-.056-.17-.165-.077-.082-.055-.066-.02-.06-.028-.056v-.061l-.017-.121-.013-.113v-.05l-.01-.058v-.058l-.01-.056-.018-.061-.02-.054-.033-.056-.049-.062.014-.073.024-.067.011-.079.005-.077.023-.152.014-.144.01-.077.02-.073.019-.069.03-.069.027-.063.038-.066.038-.062.064-.043.075-.04.064-.025.067-.022.057-.011h.126l.053.011.05.022.056.014.05.023.049.028.049.037.083.068.087.066.084.087.087.077.088.078.093.064.038.04.053.015.053.025.05.015.054.023h.183l2.575.324.168-.156.166-.165.157-.16.154-.163.167-.16.148-.175.143-.16.154-.183.297-.346.287-.352.297-.346.306-.353.018-.036.037-.039.01-.027.018-.05.02-.077.02-.082v-.08l.01-.084-.01-.08v-.238l.01-.076.024-.088.003-.04.01-.025.023-.05.016-.024.017-.04.034-.042.039-.036.027-.038h.056l.06-.007h.102l.107.007.086.022.093.037.094.039.087.045.079.05.159.097.176.093.083.055.087.039.094.027.099.036Zm37.64-1.4-.036.066-.015.066-.012.062v.12l.012.062.003.066.012.055.023.06.014.077.015.053v.127l-.026.057-.026.063-.027.065.027.091.026.089.01.082.016.1-.015.082v.085l-.014.09-.011.094-.027.171-.023.18-.013.097v.098l.013.092.011.1-.04.037-.026.013-.037.016-.04.02h-.116l-.067-.033-.065-.027-.07-.037-.055-.05-.069-.044-.064-.04-.073-.038-.069-.028-.038-.012-.04-.008-.04-.013h-.048l-.039.013-.04.008h-.048l-.038.02-.106-.125-.103-.137-.116-.13-.103-.123-.039-.074-.04-.077-.028-.066-.027-.072-.01-.04v-.16l.02-.037.007-.027.01-.05.155-.247.155-.244.143-.235.143-.247.152-.244.161-.235.076-.114.1-.116.084-.115.097-.117.045-.007h.038l.038.007h.041l.024.02h.033l.03.02.015.02.024.017.015.02.012.03.015.027.022.047.015.07.024.13.012.143.003.07.012.069.023.047.014.056Zm.337-.851.029.05.028.05.028.053.02.05.019.044.02.06.012.056v.05l.017.115v.22l-.012.116-.005.236-.012.23v.116l.012.116.005.103.034.117-.022.093-.012.091v.101l-.005.093.005.21.012.213.022.216.016.232.01.218.013.22v.116l-.014.105v.106l-.009.103-.016.098-.022.105-.029.093-.038.088-.039.094-.05.09-.066.076-.053.082-.076.078-.093.06-.09.065-.105.053.005.04.022.052v.22l-.037.165-.027.141-.024.068-.005.064v.066l.005.066.024.041.003.026.012.039.027.033.022.014.04.041.026.026.037.022.096-.089.1-.086.09-.082.09-.099.162-.188.162-.181.153-.193.149-.206.167-.183.152-.204.055-.038.052-.02.055-.008h.137l.043.015.038.024.098.048.085.056.085.054.08.073-.012.143-.011.148.011.165v.17l.011.175.011.16v.171l-.01.175-.012.082v.079l-.014.086-.013.08-.023.079-.018.077-.026.073-.038.073-.027.074-.04.062-.05.077-.053.053-.062.068-.065.063-.077.054-.078.047.013.05v.083l-.022.04-.016.086-.03.076-.087.174-.093.153-.04.076-.027.078-.013.033-.018.04-.008.047v.067l.008.037.01.026.008.04.019.05.032.027.03.039.037.028h.082l.064-.028.08-.017.07-.049.072-.038.07-.052.058-.051.066-.068.247-.258.23-.26.06-.055.056-.049.054-.05.06-.038.056-.027.061-.028.068-.008h.053l.066.008.06.017.065.038.067.05.066.067.073.087.07.103.077.118-.006.08-.033.078-.027.069-.038.074-.043.074-.06.066-.067.065-.069.065-.293.237-.286.221-.062.059-.065.05-.05.055-.045.053-.037.062-.024.055-.015.06-.011.055.011.067.015.068.038.07.048.066.07.076.088.067.102.077.133.076.022.064.016.069.029.063.032.063.066.13.077.116.066.121.075.115.077.128.07.134.081.142.07.163.057.155.06.16.043.17.039.177.028.17.011.172-.12.114-.15.092-.13.1-.146.09-.153.065-.143.067-.151.054-.16.06-.17.039-.154.04-.168.025-.16.018-.175.022-.182.01h-.352l-.036-.05-.053-.036-.035-.053-.038-.048-.008-.027-.02-.028v-.079l.02-.026.018-.029.028-.02.05-.056.059-.062.053-.04.05-.05.115-.09.122-.076.249-.146.258-.12.125-.065.122-.07.112-.071.117-.088.053-.052.051-.043.05-.05.039-.059.05-.047.026-.064.047-.072.038-.077-.03-.07-.037-.09-.026-.084-.041-.086-.05-.087-.038-.078-.041-.078-.05-.074-.116-.162-.117-.142-.133-.144-.114-.155-.066.013-.066.007-.06.032-.055.017-.056.048-.058.038-.05.04-.046.043-.099.107-.08.114-.08.103-.086.1-.08.093-.076.1-.073.094-.06.092-.064.106-.068.103-.058.1-.056.102-.105.21-.098.219-.093.21-.089.22-.044.05-.06.039-.043.028-.074.02-.052.03-.066.016-.063.01-.066.01h-.197l-.065-.01-.071-.01-.068-.003-.064-.025-.055-.018-.061-.026-.057-.033-.048-.043-.039-.035-.04-.043-.025-.049-.023-.055-.018-.051-.02-.062v-.17l.01-.064.025-.048.003-.055.023-.06.17-.19.18-.214.195-.21.17-.207.087-.114.078-.116.078-.118.064-.108.054-.128.049-.125.02-.055.02-.07.018-.063.007-.07.119-.123.141-.13.143-.148.144-.145.05-.07.056-.077.047-.089.05-.089.02-.038.009-.043.009-.051.01-.048.01-.044v-.05l-.01-.049v-.058l-.04-.007-.033-.018-.025-.022-.038-.018-.016-.023-.032-.026-.016-.021-.01-.028-.029-.066-.016-.053-.012-.066-.01-.08v-.076l.01-.065.012-.078.004-.076.027-.14.023-.13.05-.067.039-.077.045-.066.057-.076.097-.145.09-.154.039-.066.023-.087.029-.078.02-.08v-.08l-.013-.046-.007-.05-.01-.041-.02-.042-.01-.05-.038-.037-.013-.051-.016-.017-.022-.022-.016-.016-.026-.01h-.025l-.016.01H85.8l-.073.048-.097.058-.054.02-.04.03-.037.037-.026.039-.023.037-.016.043-.013.04-.01.06-.011.085-.005.097-.024.046-.017.037-.02.038-.038.04-.04.104-.043.108-.05.104-.05.106-.114.19-.11.19-.126.18-.132.182-.138.182-.132.175-.287.352-.284.35-.14.185-.142.18-.12.194-.138.19-.04.08-.028.081-.016.078-.03.087-.02.171-.015.18v.09l-.023.094-.015.088-.023.088-.028.065-.05.081-.015.04-.027.027-.022.04-.041.037h-.124l-.068.024-.064.013-.133.041-.138.036-.066.01-.063.012-.056-.011-.062-.01-.04-.016-.015-.011-.038-.016-.023-.023-.026-.013-.017-.036-.026-.036-.024-.041-.336-.791.116-.105.093-.105.09-.117.076-.112.064-.115.062-.112.056-.115.05-.128.093-.237.077-.252.049-.12.055-.132.05-.129.055-.13.28-.374.533-.737.257-.374.123-.198.126-.181.126-.192.116-.192.109-.2.112-.192.103-.204.104-.197v-.067l-.01-.066-.01-.071-.016-.054-.023-.056-.03-.051-.024-.05-.03-.04-.047-.05-.029-.04-.048-.05-.052-.038-.103-.076-.104-.078-.057-.017h-.098l-.038.017-.042.02-.041.031-.047.027-.038.032-.08.071-.078.088-.064.088-.067.084-.064.069-.062.058-.029.015-.027.011-.028.01-.026-.01-.023-.011-.028-.015-.02-.03-.018-.034-.026-.063-.023-.069-.016-.08-.022-.1v-.026l-.005-.028-.011-.028-.021-.023-.045-.047-.052-.04-.064-.005h-.065l-.073.005-.055.02h-.016l-.035.02-.014.02-.028.018-.022.032v.028l-.015.028v.027l.064.063-.027.116-.022.132-.015.111v.133l-.013.247-.012.257-.015.128-.01.105-.024.066-.015.048-.016.058-.023.05-.026.052-.038.05-.03.05-.037.04-.05.042-.051.029-.054.038-.061.04.022.01.016.009.023.011v.02l.011.026.005.037-.016.077.011.067-.011.038-.013.029v.135l.013.067.038.125.055.143.021.056.018.065.011.067v.1l-.01.039-.007.037-.02.03-.013.038-.027.027-.017.038-.038.029-.077-.012-.087-.017-.067-.016-.09-.038-.064-.035-.068-.037-.052-.044-.062-.052-.066-.052-.054-.049-.06-.068-.055-.06-.103-.133-.114-.133-.092-.135-.103-.134-.118-.125-.116-.11-.053-.06-.06-.056-.066-.05-.067-.05-.065-.039-.067-.027-.075-.026-.079-.027-.049.003h-.038l-.039-.014-.029-.013-.054-.052-.06-.05-.013-.058v-.088l.024-.05.013-.037.025-.039.026-.027.04-.026.067-.067.078-.06.073-.043.067-.04.09.012.093.028.086.017.09.026.071.039.087.033.08.055.087.026.146.098.166.085.166.1.16.074.038-.058.026-.051.023-.044.016-.05.01-.05.013-.038-.013-.044v-.036l-.02-.042-.02-.037-.019-.041-.028-.036-.056-.065-.066-.066-.164-.14-.157-.13-.079-.077-.078-.077-.021-.039-.028-.043-.015-.041-.023-.048-.123-.193-.124-.196-.127-.204-.132-.198-.077-.1-.078-.094-.077-.088-.081-.063-.08-.09-.102-.065-.088-.057-.107-.036-.026.027-.048.01-.04.016-.027.013h-.039l-.038-.013-.037-.007-.038-.01-.07-.028-.085-.037-.029-.012-.04-.02h-.036l-.039-.018h-.018L79 81.941l-.023-.018-.007-.01-.01-.028v-.19l.079-.051.075-.026.082-.028.077-.031.101-.008.08-.012h.177l.182.012.185.008.194.03.183.029.097.01h.095l.095.01h.087l.092-.01.089-.01.077-.012.09-.016.08-.031.089-.035.063-.05.078-.048.077-.067.065-.076.057-.083.06-.103.048.011h.034l.04-.013.035-.012.052-.06.055-.054.022-.289.039-.317v-.15l.016-.163v-.314l-.005-.154-.023-.135-.011-.084-.026-.067-.017-.065-.021-.073-.029-.067-.037-.055-.03-.065-.05-.05-.044-.054-.06-.05-.053-.05-.062-.044-.01-.071v-.065l.01-.056.01-.06.018-.03.021-.026.013-.021.016-.028.026-.01.022-.017.039-.011h.038l.057.01h.062l.053-.01.054-.017.099-.037.097-.05.094-.05.107-.034.055-.01.05-.012h.055l.065.013.076.026.068.038.058.05.043.037.023.046.041.05.01.05.016.053.013.067v.058l-.013.059v.064l-.025.127-.042.132v.22l.013.023.01.025.008.03.02.02.012.029.017.015.026.013.028.017h.049l.049-.017.047-.023.036-.03.039-.023.04-.031.038-.025.028-.051.109-.166.09-.158.078-.165.07-.16.088-.175.08-.15.05-.088.055-.064.05-.067.065-.066.076-.051.076-.06.09-.045.083-.037h.145l.068.016.053.021.064.018.056.039.052.04.063.038.054.053.05.049.04.052.051.054.078.115.088.105ZM57.835 50.827c.378.521.371 1.057-.21 1.607-1.265 1.303-1.425 2.855-1.077 4.517.1.623.966.706 1.063-.021.06-.768.026-1.648.277-2.592.222-.629.802-.535.842 0 .076 2.585-.57 4.066-1.43 5.571-.396 1.119.56 1.617.926 1.173.744-1.005 1.335-2.642 1.508-6.024 0-2.16-.062-4.19-.679-5.1-.64-1.095-2.002-.658-1.22.869Zm9.608-.985c.061-.366-.467-.556-.699-.336-.431.444-.568 1.05-.539 1.751.152 2.833.381 4.685.377 6.3-.106 1.009-.315 1.642-.65 1.822.167.102-.004.715.409 1.208.318.168.577.033.757-.532.19-.577.264-1.466.287-2.498l.009-2.96c.513-.536.732-1.512.77-2.754.153-.768.748-.757.76-.302-.067.298-.278.51-.272.761.046.44.7.598.882.782.301.365-.22 1.376-.337 2.27-.049.266.047.27.154.38.234.231.457.587.461.945.008.596-.467 1.303-.433 2.293.332.63.656 1.79.996 1.894.535.137.682-.326.802-.53-.008-1.266.838-1.008.93-1.44.308-.456.063-.663-.177-.7-.913-.348-.608-.813-.913-1.22-.228-1.337 1-1.147 1.002-1.637.05-.68-.734-.842-1.1-1.26-.266-.473-.105-1.381.511-1.454.234-.022.354-.042.588-.065.263-.034.565-.642.221-.857-.277-.138-.393-.411-.34-.825.007-.368.016-.736.027-1.103-.072-.326-.59-.421-.809-.187-.377.237-.438.91-.716 1.42-.367.225-.509-1.022-1.33-1.381-.655-.233-.981.17-1.148.617-.155.725-.31 1.448-.461 2.173-.128.384-.633.363-.498-.193.112-1.075.32-1.589.479-2.382Zm-2.065 5.644c.026-.506.74-.298.708.247.05 1.483.1 2.967-.453 4.368-.208.332-1.01.136-.908-.461.36-1.386.523-2.632.653-4.154Zm.008-6.056c-.634 1.154-.752 2.472-.634 3.862.213 1.033.97.748.909.175-.142-1.482.023-2.732.644-3.642.177-.49-.68-.77-.919-.395Zm-3.69-.103c.39-.475 1.174-.094.936.59-.49 1.582-.584 2.744.192 2.971.797.279.97 1.674.79 3.693-.077.717-.878.837-1.05.137-.075-.863-.148-1.722-.225-2.585-.14-.614-.702-.745-.777.063-.113 2.012.337 3.88 1.219 5.644.211.502-.606 1.807-1.306.717-.57-1.275-.895-3-.86-5.386-.029-2.437-.011-4.521 1.081-5.844Zm7.059 20.108-.145.865c.099-.068.188-.115.264-.145.129-.052.28-.073.452-.073.311 0 .579.097.805.297.268.236.403.563.403.989 0 .363-.093.669-.28.919-.255.342-.645.512-1.167.512-.35 0-.644-.093-.884-.282-.278-.217-.415-.513-.415-.892h.784a.684.684 0 0 0 .167.403c.09.094.222.143.39.143a.522.522 0 0 0 .438-.208c.106-.138.158-.32.158-.542a.815.815 0 0 0-.135-.486.51.51 0 0 0-.448-.226.704.704 0 0 0-.248.034.523.523 0 0 0-.28.254l-.703-.034.276-2.192h2.191v.664h-1.623Zm-4.167 2.336h.783a.477.477 0 0 0 .152.3.48.48 0 0 0 .308.1c.182 0 .333-.08.45-.244.137-.193.207-.484.207-.869l-.024-.01a.728.728 0 0 1-.342.27 1.168 1.168 0 0 1-.41.066c-.366 0-.655-.12-.876-.364-.219-.238-.325-.535-.325-.884 0-.469.13-.83.39-1.083.236-.23.56-.347.966-.347.47 0 .822.166 1.054.496.239.33.352.85.352 1.553 0 .711-.15 1.243-.453 1.6-.253.297-.585.444-.995.444-.34 0-.622-.09-.847-.274-.226-.184-.356-.433-.39-.754Zm.71-1.747c0 .276.06.473.179.591.097.093.235.14.41.14a.557.557 0 0 0 .393-.157c.123-.119.184-.292.184-.513 0-.236-.048-.415-.148-.542-.097-.129-.249-.193-.453-.193a.54.54 0 0 0-.359.118c-.136.116-.206.301-.206.556Zm-2.116 1.517a.682.682 0 0 0-.122-.417c-.103-.136-.259-.207-.461-.207a.537.537 0 0 0-.389.147c-.114.112-.174.268-.174.47 0 .197.054.352.157.464.1.115.243.173.423.173.19 0 .337-.069.437-.208a.68.68 0 0 0 .13-.422Zm.81-.034c0 .317-.098.595-.291.83-.253.309-.615.462-1.091.462-.468 0-.826-.133-1.074-.398a1.18 1.18 0 0 1-.31-.817c0-.19.027-.346.077-.468.092-.24.272-.42.532-.54-.322-.163-.483-.42-.483-.783 0-.33.119-.591.353-.792.235-.196.534-.295.888-.295.402 0 .715.102.944.309.214.191.32.434.32.73 0 .18-.037.337-.11.472a.775.775 0 0 1-.351.33c.202.1.348.217.437.356.107.155.16.356.16.604Zm-1.376-1.184a.47.47 0 0 0 .355-.138.49.49 0 0 0 .131-.357.49.49 0 0 0-.13-.356.439.439 0 0 0-.33-.139c-.175 0-.308.045-.4.132a.484.484 0 0 0-.138.363c0 .126.047.242.135.344.092.1.215.15.377.15Zm-4.472-.377v-.55h.111c.344 0 .6-.078.77-.23a.61.61 0 0 0 .207-.46h.644v3.987h-.785v-2.747h-.947Zm9.851-14.806c.09-.278.557-.069.657.53.164 1.459.094 2.97-.257 4.551-.098.384-.967.425-.888-.317.372-1.626.533-3.205.488-4.764Zm-15.904-2.628c4.9 2.749 4.301 8.62-1.392 10.807.967 7.171 4.798 13.272 13.427 16.936 9.291-4.056 11.888-9.148 13.463-16.783-4.246-1.053-6.527-7.234-1.065-10.77-.408-1.93-1.19-3.825-2.313-5.684-3.918.61-7.202.044-9.761-1.905-1.941 1.618-5.156 2.326-10.061 1.831-.97 1.843-1.84 3.862-2.297 5.568Z"/><path d="M51.22 53.092c5.164 2.255 3.883 8.64-1.452 9.578 1.039 7.704 5.052 15.368 14.368 18.567 9.98-4.354 13.347-11.18 14.502-18.603-4.871-.136-6.713-7.7-1.127-9.27-.448-2.874-1.915-5.606-2.775-7.146-4.205.66-7.7.186-10.263-2.408-1.978 2.054-4.766 3.132-10.191 2.13-.933 1.428-2.845 4.308-3.062 7.152Zm-3.764 2.579c6.63-1.49 4.972 6.485-.596 2.9-.39 12.275 6.364 21.916 17.364 25.694 15.749-6.115 17.255-18.525 17.25-25.43-5.86 3.572-6.757-4.61-.466-2.905-.334-5.15-4-12.292-4.99-13.255-6.38 2.563-8.468.13-11.495-2.932-2.063 2.226-5.191 5.862-11.746 2.701-1.1 1.684-5.214 8.5-5.321 13.227ZM64.39 32.96l1.513.106.164-2.337.401.027c.33.024.599 0 .813-.08a.805.805 0 0 0 .444-.365c.09-.16.145-.43.171-.802l.035-.502a4.391 4.391 0 0 0 0-.815.956.956 0 0 0-.199-.453c-.1-.13-.258-.235-.476-.315-.217-.08-.53-.138-.94-.166l-1.52-.107-.406 5.81Zm2.224-4.593c.06.069.08.2.066.394l-.033.48c-.016.215-.054.35-.109.418-.055.06-.157.09-.294.08a.645.645 0 0 1-.107-.014l.103-1.47c.194.013.32.05.374.112ZM63.427 27.197c-.41.007-.718.048-.918.13-.207.083-.335.2-.397.353-.062.152-.085.476-.077.965l.053 2.976c.008.488.043.811.11.961.067.15.199.263.401.338.196.076.513.106.93.099l.46-.008-.014-.762c-.215.004-.345-.008-.41-.029-.058-.02-.094-.063-.117-.127-.023-.065-.04-.23-.045-.496l-.052-2.975c-.005-.288.006-.46.034-.518a.215.215 0 0 1 .127-.125c.057-.015.187-.025.388-.028l-.013-.762-.46.008ZM58.086 27.777a32.798 32.798 0 0 0-.011 2.338c-.105-.383-.358-1.12-.761-2.202l-1.374.242 1.694 3.476.365 2.074 1.38-.243-.365-2.075.445-3.852-1.373.242ZM77.19 29.533c-.467.808-.832 1.49-1.108 2.06.089-.388.21-1.157.363-2.302l-1.326-.431-.137 3.864-.65 2.003 1.332.434.651-2.004 2.202-3.193-1.327-.431ZM52.026 29.11l.302 1.126.868-.233 1.206 4.5 1.465-.392-1.206-4.5.861-.231-.301-1.125-3.195.856ZM79.657 30.584l-3.336 4.836 1.397.712.56-.893.486.248-.405.971 1.377.702 1.868-5.584-1.947-.992Zm-.928 3.723a47.18 47.18 0 0 1 1.372-2.044c-.38.904-.678 1.663-.905 2.282l-.467-.238ZM51.602 35.562l-2.087-5.436 1.416-.544 2.087 5.437-1.416.543ZM84.886 33.51l-1.39 2.225.67-2.675-1.072-.67-3.086 4.938 1.073.67 1.401-2.243-.73 2.662 1.121.701 3.086-4.938-1.073-.67ZM49.09 32.015c-.208-.41-.397-.685-.568-.816-.165-.133-.403-.19-.706-.18-.305.018-.63.11-.982.29a2.23 2.23 0 0 0-.741.571 1.145 1.145 0 0 0-.265.684c-.01.231.088.552.29.95.14.275.293.48.455.623.159.137.32.232.481.28.158.04.467.092.911.14.448.055.737.1.876.15.129.048.272.234.425.535.072.14.105.253.096.346a.247.247 0 0 1-.143.21c-.09.046-.167.053-.234.015-.062-.041-.143-.153-.244-.352l-.32-.628-1.256.64.173.34c.2.39.388.666.58.834.184.173.442.267.766.271.325.004.669-.082 1.027-.265.333-.17.592-.374.774-.62.19-.242.282-.475.28-.7-.005-.215-.097-.507-.286-.878-.261-.513-.524-.839-.795-.991-.275-.143-.803-.245-1.581-.3-.274-.014-.457-.058-.548-.125-.087-.06-.181-.181-.27-.354-.068-.135-.098-.24-.088-.334.005-.084.046-.145.13-.188.07-.035.141-.04.196-.01.058.034.13.143.22.322l.197.385 1.255-.64-.105-.205ZM88.675 38.918c.305-.363.508-.672.604-.92.09-.253.085-.538-.025-.865-.11-.327-.331-.635-.667-.916-.347-.292-.697-.445-1.052-.47-.348-.02-.629.045-.834.2-.212.152-.492.442-.853.871L84.74 38.14a6.985 6.985 0 0 0-.55.722 1.445 1.445 0 0 0-.199.573c-.032.217-.002.44.09.676.092.237.232.44.425.6.165.14.336.227.512.252.176.036.363.014.561-.054l-.163.407.733.615 2.01-2.396-1.355-1.137-.569.678.227.19-.444.528c-.176.21-.308.333-.396.381-.087.049-.18.037-.263-.033-.072-.06-.099-.14-.07-.218.028-.09.128-.23.294-.43l1.798-2.141c.19-.226.32-.36.394-.392.069-.037.141-.022.213.038.082.069.104.144.076.223-.034.084-.157.253-.37.507l-.341.407 1.161.975.162-.193ZM44.79 39.692l1.243-.87-1.505-2.15c.17-.119.291-.16.374-.13.086.036.215.183.392.436l1.11 1.584 1.154-.808-.882-1.26c-.268-.383-.445-.61-.52-.68a.946.946 0 0 0-.358-.172c-.152-.042-.375-.01-.668.1.255-.214.384-.418.387-.614.002-.185-.128-.472-.388-.843-.285-.406-.555-.655-.817-.753a.986.986 0 0 0-.745.013c-.24.097-.657.354-1.24.762l-.877.615 3.34 4.77Zm-1.186-4.953c.086.01.185.09.288.237l.186.265c.148.212.205.356.177.428-.024.079-.112.167-.247.261l-.742-1.06c.141-.099.252-.141.338-.13ZM42.432 41.745l2.01-1.687-.748-.892-.848.712-.823-.98.722-.606-.712-.848-.721.605-.712-.848.77-.647-.748-.892-1.933 1.622 3.743 4.46ZM93.145 41.135l-3.335 2.7c-.224.181-.377.288-.457.315-.075.033-.144.005-.203-.067-.05-.061-.058-.128-.015-.19.037-.068.151-.179.352-.342l3.392-2.746-.955-1.179-2.676 2.167c-.514.416-.84.699-.983.843-.149.147-.25.33-.308.545-.06.224-.054.47.023.748.079.28.228.556.446.824.199.246.41.427.627.546.223.116.453.17.688.165.232-.012.431-.062.583-.148.158-.091.407-.275.754-.555l3.022-2.448-.955-1.178ZM36.593 39.432l.753.788a70.32 70.32 0 0 0 2.092 2.153 105.72 105.72 0 0 0-3.34-2.37l-1.048 1.204 4.97 3.158 1.51-1.736-3.89-4.401-1.047 1.204ZM96.01 45.106l-2.2 1.43 1.738-2.14-.69-1.062-4.883 3.171.689 1.061 2.219-1.44-1.788 2.104.72 1.11 4.884-3.172-.689-1.062ZM38.37 46.524l-4.712-3.423.892-1.227 4.71 3.423-.89 1.227ZM92.093 50.019l5.278-2.46.64 1.374-5.277 2.46-.64-1.374ZM32.256 45.368l2.273 1.312-2.697-.578-.632 1.096 5.043 2.912.632-1.096-2.291-1.323 2.687.638.661-1.145-5.043-2.912-.633 1.096ZM99.26 52.18l-1.06.258c-.853.195-1.826.44-2.91.737 1.026-.445 2.268-1.01 3.723-1.709l-.52-1.509-5.22 2.726.75 2.175 5.756-1.169-.52-1.509ZM29.925 49.99l3.98 1.607c.266.108.434.192.497.248.065.05.074.123.039.21-.03.073-.085.113-.16.106-.076 0-.229-.046-.469-.143l-4.046-1.635-.568 1.407 3.193 1.29c.613.248 1.018.396 1.213.451.202.058.411.058.626.005a1.4 1.4 0 0 0 .644-.384c.206-.203.375-.468.505-.788.118-.293.174-.566.173-.814a1.405 1.405 0 0 0-.19-.682 1.323 1.323 0 0 0-.412-.438c-.156-.094-.437-.222-.85-.39l-3.607-1.457-.568 1.407ZM94.301 55.865l.635 2.546 1.13-.282-.267-1.074 1.241-.31.228.914 1.074-.267-.228-.915 1.075-.267.243.977 1.13-.282-.61-2.449-5.65 1.409ZM95.025 58.931l.212 1.503 2.598-.365c.03.206.01.332-.054.392-.071.06-.26.109-.566.152l-1.916.27.197 1.395 1.523-.215c.463-.065.746-.119.842-.154a.94.94 0 0 0 .315-.24c.107-.117.179-.33.215-.64.075.323.198.53.37.623.165.085.48.1.928.036.491-.069.836-.197 1.042-.386a.985.985 0 0 0 .327-.67c.022-.257-.018-.746-.117-1.45l-.149-1.061-5.767.81Zm4.952 1.192c-.048.072-.164.125-.342.15l-.32.045c-.256.036-.411.021-.463-.037-.059-.057-.097-.175-.12-.339l1.282-.18c.024.171.011.29-.037.361ZM28.109 55.502l2.546.635-2.751.188-.307 1.228 5.65 1.409.307-1.228-2.567-.64 2.758-.127.32-1.284-5.65-1.408-.306 1.227ZM33.007 61.233l-5.768-.81.212-1.502 5.767.81-.211 1.502ZM99.772 66.429c.46.008.791-.03.987-.12.195-.082.357-.267.491-.537.127-.279.198-.608.204-1.003a2.216 2.216 0 0 0-.156-.924 1.149 1.149 0 0 0-.479-.554c-.2-.119-.529-.182-.975-.19a2.085 2.085 0 0 0-.764.109 1.311 1.311 0 0 0-.472.294c-.11.12-.301.368-.553.738-.258.37-.434.603-.544.702-.102.092-.333.13-.67.125-.159-.003-.273-.026-.352-.078a.248.248 0 0 1-.118-.225c.002-.1.032-.172.097-.214.066-.035.203-.054.425-.05l.705.012.024-1.409-.38-.007c-.439-.007-.77.03-1.01.12-.238.081-.442.265-.598.55-.156.285-.242.629-.249 1.03-.006.375.053.7.185.975.124.282.286.472.486.576.192.097.493.153.91.16.575.01.986-.069 1.248-.237.255-.175.593-.594 1.007-1.255.14-.235.265-.377.367-.425.095-.049.246-.075.44-.072.151.003.258.027.337.079.07.044.106.11.104.203-.001.079-.031.143-.082.178-.058.035-.188.047-.39.043l-.43-.007-.025 1.409.23.004ZM27.068 63.2l4.096.143c.222.008.366.02.444.03.08.01.143.048.19.115.05.059.075.146.07.254 0 .036-.01.1-.02.194l1.02.035.026-.754c.012-.338-.008-.583-.052-.75a.74.74 0 0 0-.267-.413.819.819 0 0 0-.44-.173c-.172-.02-.545-.04-1.127-.06l-3.887-.137-.053 1.516ZM95.346 66.961l5.779.71-.185 1.505-5.78-.71.186-1.505ZM27.136 66.13l2.617-.184-2.558 1.03.088 1.261 5.81-.406-.089-1.262-2.64.184 2.585-.973-.092-1.32-5.81.407.089 1.262ZM100.886 70.272l-1.135-.262-.202.876-4.54-1.048-.34 1.478 4.539 1.048-.2.87 1.134.26.744-3.222ZM27.873 72.434l5.87-.246-.273-1.544-1.05.09-.095-.537 1.02-.26-.268-1.523-5.584 1.868.38 2.152Zm3.531-1.498c-.51.046-1.326.095-2.458.134.95-.24 1.737-.46 2.367-.651l.091.517ZM99.337 76.435a33.04 33.04 0 0 0-2.06-1.108c.388.088 1.157.21 2.302.362l.431-1.326-3.864-.136-2.004-.651-.433 1.333 2.004.65 3.193 2.202.43-1.326ZM34.406 73.9l-5.625 1.507-.393-1.465 5.625-1.507.393 1.465ZM97.739 78.07c-.082.184-.141.3-.178.346a.215.215 0 0 1-.164.069c-.064.003-.228-.054-.49-.171l-2.72-1.211c-.243-.108-.387-.189-.438-.235-.05-.046-.075-.096-.071-.157.003-.061.046-.192.133-.39l-.696-.309-.187.42c-.17.381-.265.685-.272.894-.01.216.043.381.155.502.111.12.395.278.841.477l2.72 1.21c.446.2.753.304.918.307.164.002.322-.07.479-.228.154-.151.312-.42.479-.793l.187-.42-.696-.31ZM30.224 79.513l1.087-.417-.322-.84 4.35-1.669-.544-1.416-4.35 1.67-.319-.833-1.087.418 1.185 3.087Z"/></g><defs><filter id="a" x="-13" y="0" width="154" height="157" filterUnits="userSpaceOnUse" color-interpolation-filters="sRGB"><feFlood flood-opacity="0" result="BackgroundImageFix"/><feColorMatrix in="SourceAlpha" values="0 0 0 0 0 0 0 0 0 0 0 0 0 0 0 0 0 0 127 0" result="hardAlpha"/><feOffset dy="16"/><feGaussianBlur stdDeviation="6.5"/><feColorMatrix values="0 0 0 0 0 0 0 0 0 0 0 0 0 0 0 0 0 0 0.03 0"/><feBlend in2="BackgroundImageFix" result="effect1_dropShadow_49_9270"/><feBlend in="SourceGraphic" in2="effect1_dropShadow_49_9270" result="shape"/></filter></defs></svg>