<svg width="128" height="128" fill="none" xmlns="http://www.w3.org/2000/svg"><path fill-rule="evenodd" clip-rule="evenodd" d="M64 20c12.145 0 23.149 4.924 31.11 12.89C103.07 40.851 108 51.85 108 64c0 12.15-4.924 23.148-12.89 31.11C87.149 103.07 76.15 108 64 108c-12.15 0-23.149-4.924-31.11-12.89C24.929 87.148 20 76.15 20 64c0-12.15 4.924-23.149 12.89-31.11C40.851 24.929 51.85 20 64 20Zm30.188 13.807C86.461 26.08 75.787 21.299 64 21.299c-11.787 0-22.466 4.78-30.193 12.508-7.727 7.727-12.508 18.401-12.508 30.188 0 11.787 4.78 22.466 12.508 30.188 7.727 7.728 18.401 12.508 30.193 12.508 11.787 0 22.46-4.78 30.188-12.508 7.728-7.727 12.508-18.401 12.508-30.188-.005-11.782-4.78-22.46-12.508-30.188Z" fill="#004E36"/><path fill-rule="evenodd" clip-rule="evenodd" d="M64.005 22.226c11.533 0 21.973 4.675 29.534 12.235 7.56 7.56 12.235 18 12.235 29.534 0 11.534-4.675 21.974-12.236 29.534-7.56 7.56-18 12.236-29.533 12.236-11.534 0-21.974-4.676-29.534-12.236-7.56-7.56-12.236-18-12.236-29.534 0-11.534 4.675-21.974 12.236-29.534 7.56-7.56 18-12.235 29.534-12.235ZM93.209 34.79c-7.474-7.474-17.8-12.102-29.204-12.102-11.405 0-21.73 4.623-29.21 12.102-7.474 7.474-12.102 17.804-12.102 29.204 0 11.405 4.623 21.73 12.102 29.205 7.475 7.474 17.805 12.102 29.21 12.102 11.404 0 21.73-4.623 29.204-12.103 7.474-7.474 12.097-17.8 12.097-29.204.005-11.405-4.623-21.73-12.097-29.204Z" fill="#004E36"/><path fill-rule="evenodd" clip-rule="evenodd" d="M64 34.547c16.262 0 29.448 13.186 29.448 29.448S80.262 93.443 64 93.443 34.552 80.257 34.552 63.995c0-16.257 13.186-29.448 29.448-29.448Zm-2.235 52.76c.54-.034.821-.392.835-1.07-.019-.645-.31-.975-.888-.994-.54.033-.83.382-.864 1.046 0 .697.305 1.036.917 1.017Zm-3.616-2.613h-.42c-.067.644-.468.95-1.208.917v.468h1.06v3.314h.568v-4.7Zm7.073.683h1.873v-.573h-2.293l-.32 2.53.468.03c.215-.297.492-.445.84-.445.607.038.932.387.96 1.046-.047.664-.353 1.017-.912 1.075-.573 0-.897-.272-.96-.812h-.568c.081.821.559 1.237 1.433 1.256 1.022-.02 1.562-.55 1.629-1.59-.067-.927-.56-1.428-1.48-1.52-.311 0-.593.096-.837.287l.167-1.284Zm4.743 1.303c.497-.033.76-.286.788-.754-.034-.435-.31-.664-.836-.678-.458.014-.707.253-.74.702.033.453.296.697.788.73Zm-9.633 1.596c.067.783.501 1.184 1.309 1.198 1.022-.033 1.561-.907 1.628-2.612-.033-1.428-.55-2.154-1.552-2.168-.903.033-1.38.573-1.428 1.619.033.96.492 1.466 1.38 1.519.497-.02.831-.201 1.013-.55h.024c-.13 1.185-.483 1.767-1.06 1.753-.445 0-.703-.253-.765-.76h-.549Zm10.97-2.379c-.067-.764-.52-1.165-1.356-1.203-.822.019-1.266.444-1.333 1.28 0 .472.196.783.593.94-.492.21-.74.593-.74 1.151-.015.488.133.85.443 1.099.296.191.65.296 1.06.31.956-.033 1.457-.515 1.505-1.432 0-.54-.239-.913-.716-1.127.363-.21.544-.55.544-1.018Zm-1.337 1.304c-.573.014-.879.306-.912.86.033.606.344.921.936.936.592-.014.888-.31.888-.884-.01-.587-.315-.893-.912-.912Zm17.532-38.866s-3.988.41-8.568 1.065a229.375 229.375 0 0 0-11.257 1.93C41.659 56.545 40.55 63.967 40.656 65.853c.411 7.465 6.472 6.958 6.472 6.958s-2.88-1.16-2.159-5.076c1.8-9.753 40.017-11.376 40.017-11.376l2.512-8.024ZM74.344 59.047c-22.852 1.93-27.375 7.293-27.633 8.94-.616 3.96 3.085 4.065 3.085 4.065-1.748-1.07-.85-2.402.77-3.505 6.623-4.518 22.24-5.082 22.24-5.082l1.538-4.418ZM68.15 43.984l-.65 6.5 1.472-.272.682-6.6-1.504.372Zm-3.868 1.084-.511 6.228 1.47-.339.617-6.3-1.576.411Zm-3.769 1.085-.582 6.127 1.47-.473.617-6.094-1.505.44ZM56.678 67.17s-4.775 11.07-16.18 8.482l.616 1.624s7.345 2.235 14.28-5.13c1.113-1.184 2.67-4.264 2.98-5.382l-1.696.406Zm4.112-1.012S56.783 80.735 41.835 79.21l.616 1.624s8.215 1.37 14.896-5.736c1.194-1.266 3.701-4.165 5.034-9.189l-1.59.249Zm3.836-.612s-3.664 17.437-21.401 17.265l.616 1.557s9.69.678 17.021-7.923c0 0 6.543 4.871 16.367 5.177l.511-1.524s-8.386.406-15.89-5.043l1.094-1.657s6.2 4.91 15.407 4.77l.483-1.623s-7.637 1.013-15.068-4.504l.86-1.895s4.517 4.67 14.828 4.403l.445-1.662s-7.98 1.557-14.657-4.332c0 0 1.026-2.574 1.026-3.219l-1.642.21ZM94.279 78.71l.1.052c-.167.272-.076.697.277 1.27l.912 1.7 1.242.67c.397.295.702.186.917-.34l.124.067-1.036 1.94-.124-.068c.325-.487.224-.817-.301-.993l-1.094-.588-1.667.191c-1.045.077-1.566.234-1.566.473l-.1-.052.945-1.763.1.053a.54.54 0 0 0-.037.076c-.125.273-.125.435 0 .478a.566.566 0 0 0 .324.048l1.92-.182-.946-1.69a.443.443 0 0 0-.172-.22c-.147-.081-.3.029-.463.325l-.1-.053.745-1.394Zm.75 7.822c-.301.459-.616.511-.941.168l-2.942-2.236.239-.315c.363-.597.84-.716 1.442-.358l.1-.134-.998-.687-2.454 3.228.93.779.101-.134c-.506-.483-.52-.974-.043-1.48l.239-.316 2.87 2.183c.463.258.52.582.172.979l.115.086 1.28-1.681-.11-.082Zm-3.711 4.705-.105-.096c.382-.339.372-.65-.024-.936l-2.378-2.159c-.301-.372-.612-.348-.936.067l-.086-.076 1.437-1.586.086.077c-.382.363-.377.683.01.955L91.7 89.64c.325.368.64.34.95-.086l.105.096-1.437 1.586ZM87.02 88.58l-.105.096c.1.138.095.258-.015.358a1.147 1.147 0 0 1-.262.129c-.296.124-.507.239-.63.353-.583.616-.631 1.213-.149 1.787.344.425.946.52 1.8.29.994-.252 1.572-.21 1.734.13.316.396.282.788-.105 1.175-.482.444-1.127.468-1.934.062l-.124.114 1.141.941.125-.114c-.048-.082-.034-.172.047-.277.043-.039.139-.086.287-.148.286-.163.51-.32.678-.473.65-.65.735-1.309.253-1.963-.358-.387-1.046-.463-2.063-.239-.802.181-1.323.148-1.552-.1-.268-.316-.244-.645.08-.994.507-.444 1.118-.449 1.835-.01l.124-.114-1.165-1.003Zm-4.518 4.351.984 1.476c.96-.592 1.232-1.194.826-1.805-.363-.545-.893-.588-1.581-.13-.286.172-.363.325-.23.46Zm5.029 1.59.076.115-.984.66-2.645-.908-.335.258.783 1.17c.206.406.502.463.898.176l.077.12-1.662 1.113-.077-.12c.425-.239.464-.559.105-.955l-1.738-2.598c-.205-.406-.497-.473-.874-.196l-.062-.095 1.662-1.113c1.012-.654 1.748-.65 2.211.01.377.563.244 1.136-.401 1.728l2.235.707c.282.086.525.062.73-.072Zm-4.986 1.92.286 1.223-3.41 1.872-.067-.124c.416-.186.492-.473.234-.864l-1.547-2.814c-.167-.425-.454-.515-.855-.272l-.052-.1 3.357-1.844.511.874-.172.096c-.282-.511-.72-.559-1.328-.139l-.84.459c-.158.062-.191.181-.1.344l.773 1.409.989-.545c.487-.205.602-.535.353-.998l.148-.081.812 1.48-.148.082c-.253-.459-.592-.53-1.017-.21l-1.003.515.87 1.581c.057.143.138.191.243.153.057-.01.344-.158.855-.435.735-.339 1.046-.864.936-1.576l.172-.086Zm-5.407-1.237-1.375.497.038.105c.363-.11.569-.062.621.139.024.071.038.195.043.372-.01.081-.014.134-.005.153l-.11 2.856-1.862-1.934a4.03 4.03 0 0 1-.248-.268c-.168-.181-.258-.296-.277-.353-.1-.163.038-.31.41-.444l-.038-.105-1.8.65.038.104c.267-.133.592.014.974.459l2.995 3.085.105-.038.157-4.308c-.01-.516.12-.802.382-.855l-.048-.115Zm-5.797 6.691-.03-.138c.507-.038.693-.296.545-.764l-.601-3.157c-.015-.478-.277-.645-.784-.511l-.019-.11 2.102-.401.023.11c-.52.062-.711.315-.568.769l.602 3.156c.033.488.306.66.812.507l.028.138-2.11.401Zm-1.09-4.57.01.11c-.487.014-.683.344-.578.993l.378 3.73-.139.014-3.53-3.548h-.028l.282 2.775c.029.659.287.945.769.855l.014.138-1.686.172-.014-.139c.53.005.73-.329.606-.998l-.32-3.166c-.272-.277-.52-.382-.74-.325l-.01-.11 1.233-.124 3.095 3.171-.244-2.411c-.029-.66-.282-.941-.764-.855l-.014-.11 1.68-.172Zm-4.818.592-1.657-.124-.01.115c.487 0 .693.324.607.979l-.144 1.939c-.038.506-.114.831-.243.974-.249.339-.66.497-1.223.473-.86-.062-1.237-.583-1.127-1.552l.172-2.307c-.024-.454.21-.655.697-.597l.01-.115-2.02-.148-.01.115c.487.014.688.248.597.692l-.167 2.25c-.11 1.198.44 1.838 1.638 1.929 1.275.096 1.939-.487 1.992-1.743l.138-1.882c-.01-.64.239-.936.745-.879l.005-.119Zm-13.702.492 1.58.52-.157-2.13-1.423 1.61Zm2.832 2.741-.043.134-1.767-.583.043-.133c.334.129.525.09.568-.11.02-.053.024-.158.015-.32a.515.515 0 0 1 .019-.143l-.082-.74-1.795-.593-.583.697a.87.87 0 0 0-.134.225c-.071.215.058.363.387.454l-.043.133-1.366-.449.043-.133a.658.658 0 0 0 .392-.02c.124-.076.373-.315.74-.706a.857.857 0 0 1 .096-.115l2.526-2.904.134.043.425 4.471c.005.477.148.74.425.792Zm-7.26-2.731 1.906.979.067-.125c-.492-.19-.606-.492-.33-.898l1.471-2.855c.168-.445.473-.53.922-.258l.053-.1-1.906-.98-.052.1c.487.21.587.502.305.889l-1.466 2.856c-.172.458-.473.55-.898.267l-.071.124Zm1.787-4.237-.062.096c-.268-.21-.688-.21-1.266 0l-1.585.563.114 2.403c-.01.44.12.73.382.874l-.076.119-1.81-1.141.076-.12c.014.01.029.02.048.029.32.2.506.22.563.057.053-.081.067-.334.053-.769l-.033-1.218-1.309.44-.12.024c-.305.138-.482.238-.52.3-.09.144.014.311.32.502l-.076.12-1.41-.884.077-.12c.153.182.592.139 1.318-.133l1.691-.569-.053-1.399c.005-.993-.152-1.552-.482-1.667l.062-.095 1.834 1.156-.057.095c-.015-.01-.034-.019-.048-.029-.32-.2-.506-.22-.563-.057-.072.043-.082.444-.034 1.213l.024.545 1.232-.42c.258-.058.425-.144.492-.254.072-.114-.005-.258-.22-.44a.365.365 0 0 1-.071-.047l.062-.095 1.447.921Zm-5.516-.917-1.419-1.198-.09.105c.41.272.434.578.076.912l-.745.883c-.2.148-.544.048-1.027-.315-.87-.836-.893-1.776-.076-2.832.936-1.074 1.872-1.28 2.808-.616.573.487.712 1.142.406 1.963l.129.11.94-1.199-.11-.09c-.114.076-.248.061-.405-.049a1.769 1.769 0 0 1-.2-.243 3.386 3.386 0 0 0-.64-.764c-1.223-.884-2.374-.803-3.458.248-.502.559-.731 1.142-.693 1.739.072.673.425 1.299 1.075 1.867.611.468 1.17.73 1.666.778l.927-1.098c.224-.325.477-.358.75-.105l.086-.096Zm-2.431-4.852-.086.076c-.296-.386-.678-.353-1.142.115l-2.794 2.498-.095-.105.798-4.943-.02-.02-2.077 1.859c-.516.41-.597.783-.244 1.122l-.105.095-1.127-1.26.105-.096c.306.43.698.396 1.16-.096l2.375-2.12c.062-.382.004-.645-.177-.788l.086-.076.826.926-.745 4.365 1.805-1.614c.516-.41.597-.783.244-1.122l.086-.077 1.127 1.261Zm-8.434-2.875 1.25 1.739.115-.082c-.353-.391-.315-.711.115-.95l2.608-1.877c.348-.32.659-.258.936.191l.09-.067-1.25-1.738-.091.067c.339.406.296.711-.13.926l-2.607 1.877c-.363.33-.669.272-.922-.172l-.114.086Zm3.768-2.76-.1.052c-.196-.449-.574-.506-1.137-.162l-3.315 1.748-.067-.124 1.968-4.604-.014-.024-2.47 1.299c-.601.272-.768.616-.505 1.031l-.125.062-.788-1.494.125-.067c.195.492.577.554 1.15.19l2.818-1.485c.153-.353.158-.625.02-.807l.1-.052.578 1.098-1.782 4.06 2.145-1.132c.601-.272.768-.616.506-1.032l.1-.052.793 1.495Z" fill="#004E36"/><path fill-rule="evenodd" clip-rule="evenodd" d="M33.181 46.229s1.333-4.289 1.586-4.929c.253-.64.754-1.829.783-1.93.024-.1-.024-.534.277-.887.3-.354.587-.54.764-.411.182.124.248.821.024 1.242-.005.01-.334.702-.449 1.084.02.005.048 0 .081-.015 0 0 .23-.21.363.043.139.258-.31 1.328-.31 1.328s.057-.01.129.005c.071.014.2-.12.3-.23.1-.11.044-.171.12-.253.077-.08.287-.176.387-.162.1.014.253.1.253.186s.005.105-.029.292c.1-.091.268-.096.368-.048.067.148.057.296.1.387.039.076.425.592.56.769.023.033.056.005.056.005s.048-.072.077-.149c.029-.076.105-.157.234-.21.124-.052.344-.138.434-.086.087.053.072.225.03.34-.044.114-.087.157-.216.257-.086.067-.181.139-.234.187-.024.023-.01.066-.01.066s.789.999.856 1.118c.066.12.162.463-.03.64-.185.177-.238.243-.415.215-.176-.029-.587-.234-.678-.244-.09-.01-.124-.138-.09-.176.033-.039.128-.12.128-.12s.134-.029.072-.124c-.062-.095-.306-.511-.306-.511a9.68 9.68 0 0 0-.506 1.342s.43.401.401.673c-.028.277-.09.296-.133.316-.043.019-.344-.13-.382-.144-.039-.014-.106-.033-.13 0-.019.034-.334 2.36-.391 2.522-.057.162-.038.215-.2.263-.163.043-.478.023-.612-.134-.138-.158-.172-.34-.172-.34s.177-.066.34-.262c.162-.196.31-.52.334-.597.023-.076.458-1.93.458-1.93s-.654-.859-.716-1.05c-.067-.186-.1-.277-.062-.306.038-.028.243.086.362.134.12.043.177.134.225-.01.048-.138.086-.367.033-.51-.052-.144-.171-.282-.171-.282-.077.248-.024.363-.11.473-.058.071-.325.028-.378-.015-.047-.043.039-.162.063-.215.023-.057.1-.348.176-.582-.067-.277-.11-.258-.052-.358.057-.106.186-.091.243-.144.048-.067.058-.19.058-.291.004-.1-.072-.182-.072-.182-.206.148-.377.516-.607.645-.08.043-.363-.01-.396-.072-.034-.057.033-.22-.11-.157-.138.057-.368.01-.353-.005.014-.014.014.2.19.32.182.12.397.167.469.325.071.157.19.497.062.726-.134.229-.315.33-.45.229-.138-.1-.4-.392-.434-.606-.028-.215-.038-.922 0-1.003-.052-.072-.047-.077-.076-.115-.029-.038-.09-.205-.053-.268.039-.062.158-.157.23-.262.08-.13.334-.483.348-.616.005-.048.091-.487.086-.43-.01.052-.277.449-.372.415-.029-.11.019-.234.1-.415.095-.22.22-.984.153-1.313-.005-.015-.034-.005-.043-.015 0 0-.12.22-.196.478-.076.258-.664 2.96-.788 3.39-.124.435-.406 2.398-.406 2.398s-.172.76-.258.931c-.086.172-.157.287-.358.292-.2.01-.387.071-.64-.272-.258-.344-.105-.53-.105-.53l.186-.12Zm4.045-3.31s.015.005.043.086c.034.077.196.325.268.411.071.086.177.253.239.41.062.154 0 .354-.063.483-.062.13.02.258.077.325.157-.468.334-.822.396-1.032-.067-.152-.788-1.251-.788-1.251-.052.105-.08.124-.105.22l-.067.348Zm-1.146-1.408s-.157.525-.124.673c.033.143.024.23.1.263.215.095.507-.411.483-.53-.005-.03-.139-.053-.139-.053s-.105-.067-.129-.038c-.024.028-.043.114-.11.2-.067-.167-.062-.19-.062-.473l-.005-.119-.014.077Zm-2.182-.784s.143-.277.238-.52c.1-.244.2-1.056.191-1.213-.01-.163.072-.12.177-.244s.32-.425.129-.788c-.191-.363-.989-.32-1.304-.234-.315.086-.702.315-.611.449.095.134.387.296.559.349.167.052.41.181.515.434.1.258.024.774.015 1.084-.01.31.09.683.09.683ZM48.994 29.509s.42-.096.769-.392c.349-.296 2.398-2.488 2.765-2.765.363-.277.855-.803 1.242-.888.387-.082.645-.187.711-.048.067.143-.004.3-.133.506-.124.2-.55.65-.55.65l-.425.334s.698.024.77.248c.071.23.315 2.345.272 2.937-.043.593-.258.946-.564 1.003-.306.058-.692-.286-.635-.506.057-.22.105-1.113.057-1.347-.048-.234-.095-.587-.129-.697-.033-.115-.12-.55-.12-.55l-.195-.028-.124.234-.191.358-.153.13.158.3s-.038.287-.072.373c-.038.086-.043.391-.196.372-.153-.014-.2-.382-.243-.468-.048-.086-.067-.162-.067-.162s-.177.157-.263.038c-.086-.12-.028-.315.086-.41.31-.25.879-1.109 1.175-1.472.005-.005-.005-.019-.014-.01a9.692 9.692 0 0 0-.378.292c-.152.096-.114.105-.267.196-.005.005-.014 0-.01-.01.105-.205.569-.716.75-1.031 0 0-2.297 2.493-2.388 2.808-.09.315-.516.783-.664.745-.148-.033-.468.134-.74-.282-.291-.41-.234-.458-.234-.458Zm3.405.291.072.224s0 .086-.038.268c-.038.181.129.63.129.63l.047.091s.115-.325.144-.42c.033-.096.167-.43.047-.669-.119-.239-.4-.124-.4-.124Zm-.568.005s-.014.253-.02.41c0 .158-.095.56-.128.636-.033.076-.086.51.129 1.074.215.569.616.33.616.33l.033.114s-.033.053-.038.096c-.005.038-.11.372-.11.372s-.181.464-.286.66c-.1.195-.377.74-.483.869-.105.133-.229.998-.229.998l.253.134s.105-.072.177-.191c.072-.12.3-.53.349-.698.047-.167.697-1.542.768-1.662.072-.119.244-.267.411-.41.167-.144.258-.225.258-.225s.09.015.143.058c.053.043.187.2.234.286-.08.09-.133.115-.224.177-.086.057-.105.08-.172.1-.067.02-.143.062-.177.124.029.09.254.287.44.282.186 0 .396-.353.396-.353l.043.023s.182.115.277.187c.096.071.21.129.435.062.224-.067.44-.062.487-.483.043-.42-.578-.587-.697-.601.028-.105.133-.349.105-.52-.029-.173.124-.373-.02-.45-.224-.124-1.71.946-1.733 1.075-.01.071-.02-.13-.029-.172-.014-.038.081-.196.158-.244.072-.047.272-.253.272-.253s-.01-.296-.024-.33c-.01-.033-.167-.171-.286-.238-.12-.062-.416-.13-.416-.13s-.105.063-.138.106c-.034.043-.015.244.071.406.081.162-.014.44-.09.492-.077.052-.163-.186-.163-.186s.02-.258-.01-.435c-.028-.177-.305-1.07-.381-1.223-.067-.162-.201-.267-.201-.267Zm2.049 2.23c.086-.086.449-.277.568-.32.081.115-.033.292-.067.406-.248-.067-.353-.072-.501-.086ZM72.143 30.134s.153-.152.172.043c.019.21-.01.282.196.358a.98.98 0 0 0 .243.048c.172.029.363.124.444.134.24.029 2.632.234 2.637.234.047-.005.506.09.65-.043.142-.134.505-.721.591-.87.091-.147.636-.878.683-1.188.053-.31.005-.836.153-1.18s.248-.396.34-.382c.09.019.357.287.42.382.124.181.133.33.243.463.1.12.196.306.215.664-.162.296-.401.425-.401.425s-.984 1.6-.994 1.638c-.014.038-.023.1-.014.115.01.014.697-.053.922-.077.224-.023.72-.143.974-.267.234.11.44.401.473.564-.072.133-.344.09-.75.19-.817.201-1.323.24-2.125.287-1.041 1.223-2.173 2.006-3.978 1.538-.45-.115-.97-.463-.97-.463 0-.038-.005-.053.048-.081.463-.02 1.347.1 1.748.004.578-.143 1.15-.41 1.299-.554.148-.143.535-.501.535-.501a7.155 7.155 0 0 1-1.218-.077c-.764-.133-1.423.325-2.24.03-.578-.206-.716-.373-.683-.56.033-.186.153-.563.244-.702.105-.134.143-.172.143-.172Zm5.702 3.472c-.143-.153-.19-.229-.33-.095-.281.286-.233 1.031-.295 1.323-.034.148-.206.162-.22.215-.014.052.105.239.19.315.082.076.23.1.326.12.095.018.535 0 .659-.049.42-.3-.062-1.552-.33-1.829ZM90.778 44.677c.34.23 1.366.94 1.624 1.251.02.124.167.31.029.42-.139.105-.85.1-.908.077-.057-.024-.635-.55-.735-.578-.244.272-.44.745-.64 1.065-.3.482-1.218.287-1.519-.09-.11-.154-.162-.292-.224-.445a2.073 2.073 0 0 0-.186-.363c-.058-.081-.096-.148-.048-.22.047-.071-.01-.234.028-.214.039.019.182.18.297.305.114.124.148.186.425.334.272.153.286.172.439.22.153.048.196.033.3-.052.11-.086.135-.134.225-.196.215-.153.387-.33.516-.583-.072-.334-2.36-.97-2.75-1.117-.306-.12-.378-.172-.397-.32-.014-.148-.005-.144.105-.368.11-.225.224-.45.3-.506.077-.058.096-.096.263-.005.884.473 2.092.879 2.856 1.385Zm3.792-.483c-.047.043-1.466-.53-1.561-.573-1.151-.506-1.92-.84-3.114-1.29l-.143.082s.028.22.334.53c.305.31.344.263 1.065.664s1.523.511 1.805.559c.287.048.893.267 1.017.253.106.019.177.057.23.138.076.115-.382.115-.459.125-.014 0-.888-.063-.917-.067-.41-.072-.826-.172-.845-.124-.02.047.057.148.129.22.33.329 1.843.864 2.326.811.444-.048.673-.315.764-.434.095-.12-.397-.865-.63-.894Zm-.272-.501c-.2.02-.516-.11-.606-.153-.086-.048-.225-.1-.191-.19.105.004.568-.015.692-.082-.052-.248-.072-.506-.095-.635 0 0-.44-.053-.621-.077-.062-.023-.583-.162-.487-.348.062 0 1.065.019 1.06 0-.014-.086-.072-.693-.005-.688.158.243.196.492.263.678.205-.01 1.58-.062 1.61-.072.013-.009.023-.062.009-.076-.507-.11-.827-.09-1.218-.43.081-.076.903.105.993.11-.062-.181-.434-.434-.549-.807-.043-.139.105-.267.153-.258.043.01.12.062.12.062.128.225.582.74.845.898.291-.01 1.074-.22 1.198-.339.125-.124.297-.244.349-.253.053-.01.086.01.11.038.024.029.143.449-.2.707-.345.258-.746.22-.946.258-.091.019-.115.12-.225.157-.072.024-.234-.014-.277.029a.251.251 0 0 0-.052.09c-.053.22 1.614.86 1.695 1.677-.282 1.151-2.842.22-3.295-.019-.005.134-.134.172-.177.177-.081-.081-.138-.368-.153-.454Zm1.62-1.26c.07-.101.439.878.482 1.016.033.105.08.082.014.163-.167.205-1.165.038-1.7.21-.067.005-.077.029-.11-.038-.02-.038-.005-.081-.024-.143.234-.039.578-.397.62-.617.006-.11.01-.119-.033-.167-.043-.052-.157.067-.277.139-.119.071-.286.224-.4.229-.015-.124-.068-.463-.082-.602.258.062 1.457-.124 1.51-.19Zm-4.557-2.035c.053.019.076.138.096.31.033.301-.139.84-.34 1.013-.2.172-.64.172-.683.129-.038-.044-.11-.1-.076-.225.033-.124.072-.41.22-.554.148-.143.44-.358.473-.406.047-.067.224-.296.31-.267Zm1.772-1.52c-.014-.013-.057-.023-.062 0-.244.96-.115 1.887-.927 2.642-.095.086-.239.248-.181.306.057.062.3.148.477.143.177-.005.392-.029.52-.153.837-.807.33-2.283.173-2.937Z" fill="#004E36"/></svg>