<svg width="128" height="128" fill="none" xmlns="http://www.w3.org/2000/svg"><g filter="url(#a)" fill-rule="evenodd" clip-rule="evenodd"><path d="M29.719 48C21.038 48 14 55.038 14 63.719s7.038 15.72 15.719 15.72c8.682 0 15.72-7.039 15.72-15.72C45.439 55.038 38.4 48 29.719 48Z" fill="#115740"/><path d="M29.72 74.156c-5.765 0-10.437-4.672-10.437-10.436s4.672-10.436 10.436-10.436 10.436 4.672 10.436 10.436-4.672 10.436-10.436 10.436Z" fill="#fff"/><path d="M26.984 72.61v-.57l.006-.28-.025-.02-.42.076v.095l.022-.003c.041-.003.153-.01.184.01.036.023.042.092.043.102v.59c0 .104-.002.196-.004.303h-.273l-.001.11h.737l.001-.11h-.266c-.002-.11-.004-.199-.004-.304ZM28.742 72.967c-.148 0-.243-.1-.243-.262 0-.128.056-.203.17-.282.232.11.301.193.301.31 0 .14-.086.234-.228.234Zm-.21-.976c0-.125.098-.203.21-.203.125 0 .195.1.195.231 0 .109-.036.19-.14.276-.212-.1-.264-.198-.264-.304Zm.385.362c-.008-.008-.022-.019-.025-.03-.003-.02.025-.042.028-.044.131-.084.179-.18.179-.268 0-.168-.129-.296-.355-.296-.211 0-.379.128-.379.332 0 .128.062.237.201.323.008.006.02.017.017.028-.003.011-.02.025-.022.028-.154.076-.235.17-.235.304 0 .192.154.304.404.304.254 0 .424-.137.424-.337 0-.15-.075-.251-.237-.344ZM30.847 72.3s0 .014-.009.031c-.005.017-.022.03-.03.04a.3.3 0 0 1-.16.041c-.15 0-.258-.103-.258-.315 0-.206.106-.31.228-.31.137 0 .232.131.232.455 0 .02-.003.04-.003.058Zm-.226-.585c-.24 0-.424.156-.427.407 0 .243.168.385.385.385.064 0 .12-.011.17-.034.009-.002.03-.008.045 0 .017.012.014.045.011.065l-.003.01c-.07.204-.226.346-.504.441l.01.056c.497-.111.74-.427.74-.808 0-.321-.16-.522-.427-.522ZM32.596 72.342c.194-.052.288-.169.288-.317 0-.182-.14-.31-.38-.31-.187 0-.412.13-.375.264.017.046.053.062.092.062.06 0 .095-.032.113-.114l.012-.049s.021-.037.05-.059a.189.189 0 0 1 .106-.028c.122.017.191.101.191.24 0 .18-.11.276-.281.276h-.073v.078h.087c.198 0 .3.103.3.289 0 .174-.09.277-.26.29l.002-.001s-.052 0-.094-.016c-.034-.013-.06-.064-.064-.072l-.014-.055c-.023-.096-.05-.148-.114-.15-.044-.003-.093.017-.093.082.015.206.173.283.387.283.27 0 .447-.155.447-.369 0-.165-.098-.286-.328-.324Z" fill="#115740"/><path d="M35.782 74.067c-.006.02-.016.045-.047.056-.031.012-.05.002-.056-.002-.005-.003-.016-.013.002-.037a.143.143 0 0 1 .065-.05c.016-.003.041.013.036.033Zm-.11.33c-.012.033-.03.083-.07.094-.041.01-.064-.001-.07-.023a.145.145 0 0 1 .065-.134c.044-.027.086.03.075.063Zm.26-.666c-.072-.04-.157-.073-.185-.052-.027.02-.04.019-.069.065-.029.047-.072.154-.12.092s-.087-.162-.127-.188a.219.219 0 0 0-.139-.023c-.043.005-.084-.003-.086.028-.002.03.02.15.043.217.024.067.057.142.029.181-.03.039-.178.05-.196.075-.018.025-.06.073-.018.101.04.03.114.065.115.1.001.036-.026.125 0 .164.026.04.1.074.138.006.037-.068.1-.06.093-.004-.007.057-.003.106-.075.169-.072.063-.19.091-.112.14.078.047.139.068.146.126.007.059 0 .086-.016.106-.015.02-.019.043.026.056.044.012.07 0 .1-.014.028-.014.069-.032.081.008.013.04.021.067.014.082-.004.007-.067.05-.103.131-.052.114-.124.275-.226.382-.171.178-.18.207-.235.224-.044.015-.052.008-.065.018-.012.01-.02.044-.01.06.01.014.056.13.159.125.102-.005.214-.038.277-.127.062-.09.383-.95.43-1.008.046-.056.128-.063.135-.035a.245.245 0 0 1-.033.182c-.048.084-.1.133-.101.152-.001.02.035.078.056.135.019.052.01.078.041.114.03.036.064.068.066.076.001.008-.037.11-.109.247-.072.137-.09.162-.125.194-.035.031-.076.052-.074.073.003.022.034.066.087.069.052.003.093-.003.118-.031.024-.029.054-.124.107-.218.054-.095.066-.136.084-.15.017-.013.09-.003.119.053.029.057.04.116-.002.185-.043.068-.123.11-.127.126-.003.016.015.083.122.083.106 0 .143-.033.188-.056.044-.023.099-.014.13-.046.033-.032.063-.145.012-.25a.945.945 0 0 0-.119-.2c-.04-.049-.133-.156-.076-.218.057-.063.08-.079.107-.09.026-.01.088-.077.069-.124-.019-.047-.078-.09-.108-.07-.03.02-.06.113-.102.156-.041.043-.101.1-.158.057a.363.363 0 0 1-.112-.12c-.006-.024.05-.093.09-.193.04-.1.111-.325.072-.435-.04-.111-.093-.122-.12-.112-.026.01-.14.09-.178.04-.04-.049-.036-.106.011-.214a.643.643 0 0 0 .061-.22c0-.035-.003-.068.034-.102.037-.034.12-.072.091-.142-.028-.07-.052-.117-.124-.156Z" fill="#fff"/><path d="M34.86 75.446c-.003-.005 0-.025.02-.04.017-.013.051-.107-.018-.188-.07-.081-.166-.163-.173-.184-.007-.022-.01-.05.042-.079.053-.028.085-.053.077-.091-.009-.039-.025-.047-.012-.07.014-.023.041-.052.142-.02.1.034.164.107.18.13.017.022.037.054.014.128-.024.075-.08.153-.072.192.008.04.04.063.042.084.002.021.005.147-.028.188-.034.041-.1.035-.142.006a.251.251 0 0 1-.071-.056ZM24.319 75.17a.508.508 0 0 1-.09.161c-.019.014-.044-.036-.05-.076-.006-.036-.02-.068.001-.139.022-.07.054-.113.081-.127.028-.015.071-.002.082.018.01.02.011.077-.024.164Zm-.243-.122c-.006.047-.074.143-.105.155-.024.01-.047.01-.124-.05-.077-.06-.098-.156-.08-.17.017-.015.042-.028.104-.026a.49.49 0 0 1 .165.03c.04.016.044.023.04.06Zm1.044-.957c.05-.086.064-.1.044-.147a.6.6 0 0 0-.123-.16.24.24 0 0 0-.123-.063c-.041-.009-.052.022-.055.033-.003.014-.014.108-.067.27-.05.162-.243.586-.279.653-.033.067-.047.07-.078.09-.027.016-.597-.015-.887-.03-.29-.01-.365-.026-.47-.054-.11-.031-.113-.042-.14-.051-.026-.005-.048.048-.048.048s.006.02.023.061c.02.039.094.106.114.145.022.039.053.095.067.103.014.008.064-.023.176-.036a1.03 1.03 0 0 1 .317.008c.056.017.06.034.056.05-.005.017-.022.023-.1.129a.488.488 0 0 0-.092.265c.003.028.047.039.055.041.006.004.04 0 .106-.016.065-.02.16-.1.19-.114.028-.017.095-.004.115 0 .019.002.044.013.042.03 0 .02-.048.131-.101.192-.055.062-.246.084-.666.128-.419.046-.68-.077-.709-.088-.03-.011-.033-.034-.036-.037-.006-.002-.023.006-.036.017-.011.008-.04.053-.014.143a.286.286 0 0 0 .134.17c.047.022.427.052.68.035.251-.019.797-.192.831-.198.034-.007.067-.007.075-.002.006.006.04.153.047.29.009.139-.002.462 0 .48.004.016.05.033.062.039.014.005.036.008.07-.006a.648.648 0 0 0 .123-.084.195.195 0 0 0 .05-.058c.011-.02.053-.129.14-.312.088-.187.197-.354.202-.374.009-.02-.005-.03-.019-.076-.014-.044-.014-.07-.023-.091-.007-.026-.024.002-.027.005 0 .006 0 .002-.04.09-.038.086-.144.255-.172.286-.025.03-.075.05-.089.02a1.024 1.024 0 0 1-.009-.321c.014-.153.109-.443.14-.516.03-.075.08-.05.109-.047.03 0 .139.008.175-.008.034-.017.053-.03.058-.096.009-.064-.061-.064-.086-.064-.024.004-.1-.016-.112-.049-.013-.03-.007-.042.099-.248.105-.207.248-.388.3-.475Z" fill="#fff"/><path d="M22.903 75.33c.01-.028.064-.023.089-.026.025 0 .09-.016.148-.053.061-.033.083-.092.103-.08.017.01.022.117.02.22 0 .1-.101.09-.126.092-.028 0-.232.003-.257-.017-.025-.022.014-.109.023-.136ZM23.828 74.306c.003-.014.014-.016.023-.02.008-.002.036.023.12.043.08.019.231.022.29.013.058-.01.136-.016.197.02.062.039.031.178.012.217-.02.04-.076.031-.16.034-.08.003-.203.02-.242.02-.039-.003-.111-.042-.178-.132-.067-.089-.067-.184-.062-.195ZM25.465 74.853c-.061.172-.254.15-.298.148-.048-.003-.062-.023-.062-.028 0-.006.084-.14.12-.229.037-.092.02-.254.02-.254s.067.025.114.056c.045.033.167.134.106.307ZM27.612 76.339c-.058.061-.09.192-.164.424-.078.234-.129.535-.156.652-.028.117-.062.204-.157.19-.092-.014-.175-.173-.186-.226-.012-.053.02-.095.053-.14.03-.044.089-.206.133-.343.042-.133.042-.362.081-.454.017-.04.081-.165.098-.279.017-.117.033-.248.053-.27a.07.07 0 0 1 .047-.023c.02 0 .048.014.084.062.039.047.056.094.075.14.02.047.034.077.067.08.034.005.056-.025.059-.025.005 0 .025.014.025.056 0 .044-.05.092-.112.156ZM27.445 75.014c.011-.022.042-.07.07-.064.03.009.072.112.106.207.039.106.05.217.017.287-.031.07-.107.123-.145.184-.04.064-.042.095-.073.111-.028.02-.047.028-.056.014a1.674 1.674 0 0 1 .017-.31c.02-.091.059-.139.059-.236 0-.098-.003-.17.005-.193ZM28.8 77.516c-.039.005-.159-.065-.195-.076-.036-.008-.058-.017-.053-.03.003-.011.02-.034.053-.059.034-.025.07-.067.075-.1.009-.031-.05-.126-.055-.16a.296.296 0 0 1 .014-.091c.002-.009.008-.014.036-.011.028 0 .055.022.106.066.053.048.075.148.114.215.04.067.053.059.05.109-.005.047-.105.131-.145.137ZM28.46 76.237c-.027.017-.085.03-.115.009-.03-.02-.022-.045-.022-.045.007-.041.082-.079.124-.05.042.028.038.068.013.086Zm-.185.223c-.075 0-.076-.025-.08-.038-.005-.013.012-.055.054-.069a.119.119 0 0 1 .093.006c.016.008.06.047.06.047s-.053.055-.127.054Zm-.04-.634c.018-.023.05-.037.1-.037.051-.002.087.005.102.047s-.005.065-.084.07c-.078.005-.136-.057-.118-.08Zm.83-.572c.07-.083.083-.15.075-.198-.008-.047-.042-.09-.091-.12-.054-.03-.118.02-.12.037-.01.025 0 .042-.018.128-.016.09-.05.128-.128.156-.08.03-.13-.117-.153-.14-.02-.022-.031.028-.034.067-.005.042.009.212-.022.22-.028.01-.09-.114-.125-.141-.014-.009-.036.002-.06.027-.021.026-.021.07-.03.14-.005.07-.011.089-.089.164-.075.076-.384.151-.398.156-.006.004-.011.009-.011.015 0 .008.005.03.042.072a.267.267 0 0 0 .141.08c.048.009.079.015.098.062.02.05.003.182-.003.243-.005.064-.061.12-.14.175-.078.056-.108.129-.108.182-.003.055.126.114.19.103.061-.011.128-.067.145-.081.016-.017.042-.022.053-.014a.164.164 0 0 1 .047.109c.002.061-.095.125-.137.145-.041.02-.086.008-.111.002-.025-.002-.031.009-.036.02-.003.011.01.044.035.064.023.022.12.008.134.02.012.008.037.041.031.109-.002.066-.134.164-.178.222-.047.056.033.06.078.042a.79.79 0 0 0 .23-.164.725.725 0 0 0 .127-.249s.073.011.154.006a.535.535 0 0 0 .24-.108.581.581 0 0 0 .16-.156c.01-.023-.013-.057-.08-.084a.522.522 0 0 0-.192-.037c-.05-.002-.042.064-.05.104-.007.036-.042.077-.12.103-.079.025-.054-.061-.03-.09.027-.035.074-.083.163-.192.087-.112.081-.173.059-.217-.022-.045-.045-.134-.028-.157.017-.024.03-.019.114-.072.084-.053.084-.09.053-.167-.027-.079-.187-.095-.218-.128-.027-.035-.01-.107.023-.176.034-.073.245-.2.318-.282ZM32.72 76.669c-.113.024-.183-.028-.189-.059-.006-.033-.018-.07-.049-.091-.033-.025-.135-.031-.177-.034-.043-.003-.05.043-.062.08-.009.036-.165.3-.22.364-.055.067-.153.064-.199.012-.046-.05-.015-.117.092-.236.11-.12.19-.29.19-.327 0-.037-.016-.089-.025-.092-.009-.006-.024 0-.052.015a.559.559 0 0 0-.137.114.328.328 0 0 1-.104.08c-.034.011-.068.008-.089-.01a.352.352 0 0 1-.073-.076c-.019-.031-.013-.065.018-.114.028-.046.098-.043.11-.043.015.004.052-.003.14-.04a.368.368 0 0 0 .132-.07.312.312 0 0 0 .064-.128c.022-.07-.012-.211-.036-.279-.022-.064-.077-.106-.089-.122-.012-.012-.006-.027-.006-.07 0-.04-.01-.074-.012-.098-.003-.025.037-.046.058-.05.021-.002.08.032.098.047.018.012.043.003.067-.003.025-.003.046.009.092.036.046.028.052.052.052.08-.003.028-.058.138-.055.165.006.03.042.138.058.141.018.003.021-.034.043-.055.018-.025.082-.043.15-.028.067.019.091.061.091.09.003.027-.018.066-.119.152-.1.089-.147.125-.168.184-.022.058 0 .091.042.122.046.027.184-.003.24-.015.057-.016.137.015.207.07.07.055.083.156.08.187 0 .027-.05.073-.162.1ZM40.736 69.576V65.19c1.14-.555 1.252-2.752 1.328-2.998-.1.062-.918.946-1.936.957H19.31c-1.018-.011-1.834-.895-1.935-.957.076.246.187 2.443 1.328 2.998v4.386h-1.576l1.988 1.994h21.21l1.987-1.993h-1.575Z" fill="#fff"/><path d="M29.72 49.093c-8.065 0-14.627 6.561-14.627 14.626s6.562 14.627 14.627 14.627c8.065 0 14.626-6.562 14.626-14.627 0-8.065-6.561-14.626-14.626-14.626Zm0 29.68c-8.3 0-15.053-6.753-15.053-15.054 0-8.3 6.752-15.053 15.053-15.053 8.3 0 15.053 6.753 15.053 15.053S38.02 78.772 29.72 78.772Z" fill="#fff"/><path d="M36.67 62.717c.106-.124.212-.258.31-.39H22.459c.098.132.204.266.312.39h13.9ZM29.383 56.555h.104c-.092.152-.204.71.008 1.176a.046.046 0 0 0 0 .093h.449c.026 0 .047-.021.047-.047a.046.046 0 0 0-.047-.046c.213-.467.1-1.024.009-1.176h.104a.06.06 0 0 0 0-.12h-.007v-.012c0-.087-.06-.16-.141-.18a.13.13 0 0 0 .042-.095v-.043a.046.046 0 0 0-.007-.092h-.046v-.008a.1.1 0 0 0-.093-.1h-.17a.1.1 0 0 0-.094.1v.008h-.046a.046.046 0 0 0-.007.092v.043a.13.13 0 0 0 .043.095.185.185 0 0 0-.142.18v.013h-.006a.06.06 0 0 0 0 .119ZM29.23 61.549h.982V61.2h-.982v.349ZM26.41 61.295v.385l-.733.357v-.388l.733-.354ZM33.029 61.295v.385l.733.357v-.388l-.733-.354ZM30.486 61.549h.982V61.2h-.982v.349ZM31.744 61.549h.982V61.2h-.982v.349ZM26.713 61.549h.982V61.2h-.982v.349ZM27.971 61.549h.982V61.2h-.982v.349ZM19.294 71.172h20.851l.5-.5h-21.85l.499.5ZM18.657 70.537h22.125l.497-.498H18.16l.498.498ZM24.731 69.278h9.977l-.078-.235h-9.82l-.079.235ZM24.585 69.718h10.269l-.078-.235H24.664l-.079.234ZM24.958 68.604l-.08.234h9.684l-.08-.234h-9.524ZM24.71 63.237v-.224h-.533v.375c.198-.026.376-.08.532-.15ZM23.398 63.284a.858.858 0 0 0 .428.12v-.39h-.53v.2c.034.026.068.047.102.07ZM36.053 63.284c.03-.018.06-.04.09-.063v-.208h-.53v.39a.864.864 0 0 0 .44-.12ZM35.262 63.386v-.373h-.53v.22c.154.07.332.127.53.153Z" fill="#002554"/><path d="M19.192 64.715h21.055c.643 0 1.034-1.24 1.034-1.24s-1.015.61-1.792.12c-.777-.49-1.624-1.994-1.624-1.994s-.846 1.503-1.624 1.994c-.776.49-1.791-.12-1.791-.12s.139.486.411.85h-.45a5.241 5.241 0 0 1-.186-.449 6.802 6.802 0 0 1-.248-.863h-.122v1.312h-.341v-1.313h-.527v1.313h-.356v-1.313h-.527v1.313h-.357v-1.313h-.526v1.313h-.357v-1.313h-.527v1.313h-.353v-1.313h-.533v1.313h-.353v-1.313h-.527v1.313h-.357v-1.313h-.526v1.313h-.357v-1.313h-.526v1.313h-.357v-1.313h-.527v1.313h-.339v-1.312h-.122c-.056.25-.136.561-.248.863-.048.13-.11.329-.17.449h-.45c.273-.364.397-.85.397-.85s-1.015.61-1.792.12c-.777-.49-1.624-1.994-1.624-1.994s-.846 1.503-1.623 1.994c-.778.49-1.792-.12-1.792-.12s.39 1.24 1.034 1.24ZM25.094 61.446l1.364-.663h6.523l1.364.663c1.048-.164 1.425-1.37 1.425-1.37-.724.762-2.344.51-2.07-.246.238-.62.121-1.023.121-1.023a1.459 1.459 0 0 1-1.223.769c-.42.012-.741-.244-.741-.244v-.718l.187-.133v-.664h-.585v.312h-1.38v-.155h-.732v.155H27.97v-.312h-.575v.664l.188.133v.718s-.322.256-.742.244a1.458 1.458 0 0 1-1.223-.77s-.117.405.122 1.024c.273.756-1.347 1.008-2.07.246 0 0 .377 1.206 1.424 1.37ZM23.044 66.8h-.742v-.742h.742v.741Zm-1.093 0h-.742v-.742h.742v.741Zm-1.09 0h-.742v-.742h.742v.741Zm-1.648 2.919h4.735v-4.587h-4.735v4.587ZM39.323 66.8h-.742v-.742h.742v.741Zm-1.093 0h-.742v-.742h.742v.741Zm-1.093 0h-.742v-.742h.742v.741Zm-1.645 2.919h4.734v-4.587h-4.734v4.587ZM34.489 68.046h-.282v-2h.282v2Zm-.527-2.256h-1.815v-.282h1.815v.282Zm0 2.25h-1.815v-1.765l.357-.229h1.084l.374.24v1.754Zm-2.06-2.256h-.285V65.5h.284v.284Zm0 2.256h-.285v-1.994h.284v1.994Zm-.53-2.25-1.305-.003v-.282l1.305.003v.282Zm0 2.256h-.74v-1.478H28.82v1.478h-.733v-1.757l.37-.243h2.508l.407.243v1.757Zm-.865 0h-.122v-1.244h-1.303v1.244h-.122V66.71h1.547v1.336ZM27.83 65.79h-.276v-.282h.276v.282Zm0 2.256h-.276v-2h.276v2Zm-.524-2.256h-1.815v-.282h1.815v.282Zm0 2.25h-1.815v-1.748l.374-.246h1.093l.348.246v1.748Zm-2.072.006h-.276v-2.002h.276v2.002Zm2.872-2.538h1.263v.282h-1.263v-.282Zm1.96-.39v-.24l-.697.003v.237h-4.795l-.006 3.237h10.297l.006-3.237h-4.804Z" fill="#002554"/><path d="m17.584 58.064-.17-.057-.227.67.17.057.117-.227 1.06.703-1.287-.037.055-.275-.17-.058-.268.79.17.058.045-.093a.143.143 0 0 1 .214-.053l.892.656-1.257-.095.05-.25-.17-.058-.269.79.171.059.036-.076a.239.239 0 0 1 .229-.135l1.762.101.054-.159-1.241-.885 1.533.025.055-.16-1.597-1.048.043-.243ZM19.642 56.618l-.843-.517.099-.227-.153-.095-.389.634.153.094.081-.098a.19.19 0 0 1 .247-.041l.635.389c.215.132.345.256.397.38.049.114.033.23-.05.365-.106.174-.29.336-.77.042l-.199-.122a40.24 40.24 0 0 1-.622-.387l.121-.265-.154-.094-.451.737.153.094.043-.054a.191.191 0 0 1 .247-.045c.18.107.352.212.49.296l.273.167a.998.998 0 0 0 .512.169c.228 0 .422-.12.567-.355.113-.184.143-.366.09-.54-.058-.192-.219-.37-.477-.527ZM21.72 55.159c-.199-.178-.394-.36-.544-.498l-.107-.1c-.151-.14-.347-.322-.538-.506l.155-.212-.132-.123-.587.633.132.122.073-.061a.191.191 0 0 1 .251.004l.383.35-.58.627a40.384 40.384 0 0 1-.5-.471l.154-.212-.133-.123-.586.633.132.122.073-.062a.191.191 0 0 1 .252.004c.154.14.302.276.42.386l.107.1c.126.117.27.25.416.39.07.066.08.173.023.25l-.056.078.132.123.587-.633-.132-.122-.2.17a41.83 41.83 0 0 1-.542-.496l.58-.626c.148.137.285.264.414.387a.19.19 0 0 1 .023.25l-.056.078.132.123.587-.633-.132-.122-.2.17ZM22.675 53.592l-.39.282-.242-.747.632.465Zm.694.106-1.454-1.055-.18.13.59 1.847-.175.176.105.145.577-.419-.105-.145-.239.125-.138-.426.496-.36.364.268-.198.185.106.146.676-.49-.106-.146-.064.035a.238.238 0 0 1-.255-.016ZM24.945 51.191l-.076-.162-.677.32.077.162.148-.048a.167.167 0 0 1 .202.088l.441.937-1.48-.852-.439.208.077.163.035-.009a.239.239 0 0 1 .273.13l.6 1.273-.202.136.076.162.677-.319-.077-.163-.288.092-.556-1.18 1.641.934.134-.063-.788-1.672.202-.137ZM30.364 50.352l.132.021a.19.19 0 0 1 .16.195l-.03 1.014-.933-1.43-.486-.015-.005.18.035.008a.239.239 0 0 1 .185.24l-.043 1.407-.242.029-.005.18.747.022.006-.18-.298-.05.04-1.304 1.039 1.578.147.004.056-1.847.242-.03.005-.18-.747-.022-.005.18ZM31.738 50.482l.152.047a.12.12 0 0 1 .082.134c-.037.223-.077.438-.11.624l-.027.143c-.034.181-.073.39-.115.602a.143.143 0 0 1-.15.115l-.137-.009-.033.178.85.157.033-.178-.132-.04a.143.143 0 0 1-.098-.162c.037-.22.076-.434.107-.603l.027-.143c.034-.187.074-.402.118-.623a.12.12 0 0 1 .125-.095l.158.01.033-.178-.85-.156-.033.177ZM34.974 51.371l.058-.17-.677-.233-.063.184.218.103-.816 1.085.01-1.365.253.063.063-.184-.792-.273-.058.17.07.035c.082.04.134.121.135.212l.02 1.824.158.054 1.169-1.553.252.048ZM35.688 53.62l-.439-.245c.11-.206.224-.414.35-.642l.226.126a.12.12 0 0 1 .053.148l-.065.163.165.092.37-.665-.165-.092-.108.144a.12.12 0 0 1-.153.033l-.224-.125c.095-.17.216-.386.34-.599l.389.217a.19.19 0 0 1 .087.23l-.074.209.194.108.267-.526-1.287-.716-.088.158.078.056a.191.191 0 0 1 .056.245c-.1.184-.196.36-.275.5l-.071.128c-.079.142-.177.317-.28.498a.191.191 0 0 1-.238.081l-.089-.036-.087.157 1.337.744.306-.504-.195-.108-.137.172a.19.19 0 0 1-.242.048ZM37.585 53.845l-.147-.119c.163-.2.312-.384.462-.563l.166.134c.105.084.163.17.175.257.011.083-.02.168-.094.26-.151.186-.356.198-.562.031Zm.83.183a.489.489 0 0 0 .105-.44c-.038-.15-.149-.303-.32-.442l-.641-.518-.114.14.067.069a.191.191 0 0 1 .013.252c-.126.16-.248.312-.356.445l-.092.114c-.129.16-.298.367-.468.57l-.223-.14-.113.14.672.543.113-.14-.184-.189c.142-.182.289-.365.44-.551l.084.068c.171.138.215.224.117.425l-.21.44c-.07.144-.037.248.116.371.065.053.128.09.192.114l.021.008.108-.134-.069-.07a.19.19 0 0 1-.038-.209l.122-.28c.079-.182.09-.321.03-.445.244.094.478.044.628-.141ZM39.21 55.303l-.041-.114c-.077-.213-.06-.35.058-.455.07-.062.15-.089.233-.076.079.012.157.06.226.137l.002.002a.235.235 0 0 1 .004.3l-.124.156.155.173.336-.275-.001-.016a.778.778 0 0 0-.203-.47.743.743 0 0 0-.432-.253.535.535 0 0 0-.448.14c-.21.189-.25.442-.126.797l.039.111c.092.259.083.37-.037.478a.29.29 0 0 1-.25.078.48.48 0 0 1-.264-.166.67.67 0 0 1-.058-.073.235.235 0 0 1 .015-.28l.14-.172-.155-.174-.359.296.003.018c.027.18.127.384.26.533a.786.786 0 0 0 .455.27.553.553 0 0 0 .46-.143c.218-.196.25-.434.112-.822ZM40.025 56.74l.12-.082c.156-.108.336-.232.523-.358a.12.12 0 0 1 .156.02l.105.12.149-.103-.492-.71-.148.102.074.14a.12.12 0 0 1-.037.153c-.19.135-.373.263-.519.363l-.12.083c-.142.098-.32.222-.506.346-.06.04-.14.03-.187-.024l-.091-.104-.149.103.492.71.148-.102-.065-.122a.144.144 0 0 1 .044-.183c.184-.13.361-.254.503-.352ZM40.883 58.236l.13-.066c.197-.098.428-.214.662-.326l.096.19a.19.19 0 0 1-.058.24l-.18.133.1.199.517-.288-.724-1.444-.54.244.1.199.214-.066a.19.19 0 0 1 .226.097l.096.19c-.233.123-.462.239-.657.337l-.13.065c-.183.092-.422.21-.66.326l-.16-.244-.161.08.413.823.162-.08-.102-.274c.233-.122.462-.238.657-.335ZM42.694 59.909l-.172.052.037.24-.86-.114.657-.565.103.235.173-.052-.25-.827-.173.052.018.102a.238.238 0 0 1-.075.22l-.64.576a.716.716 0 0 1-.274.154l-.3.089a.12.12 0 0 1-.142-.068l-.074-.172-.173.052.267.881.172-.052-.053-.288c.181-.058.378-.118.566-.175l1.113.157.114.236.172-.052-.206-.681ZM28.448 51.408l-.162-.976.238-.074-.03-.177-.733.12.029.178.127-.003a.19.19 0 0 1 .193.16l.122.734c.04.249.032.429-.027.55-.055.111-.154.175-.31.2-.201.034-.444.001-.536-.554l-.038-.23a39.9 39.9 0 0 1-.114-.725l.28-.08-.03-.179-.853.141.03.178.068-.003a.191.191 0 0 1 .196.157c.037.206.07.404.097.564l.052.316c.035.213.106.38.208.498.15.172.366.24.64.195.212-.035.37-.13.466-.284.107-.17.136-.407.087-.706Z" fill="#fff"/><path d="M54.349 56.612c.012.087.275.605.893.918.619.312 1.137.343 1.362.237.225-.106.856-.53 1.306-.78.45-.25.787-.35.787-.625s-.225-1.15-.669-1.187c-.443-.038-.855.218-1.162.43-.306.213-1.143.626-1.661.744-.519.119-.731.063-.775.1-.044.038-.094.075-.081.163ZM62.777 53.688s.55.862.606 1.468c.056.606-.05 1.58-.032 1.612.02.03.157.112.419 0 .262-.113 1.4-.538 1.256-1.668-.144-1.131-1.1-1.362-1.45-1.412-.35-.05-.8 0-.8 0ZM52.293 65.74c.206.043 1.331-.544 1.475-.62.143-.074.73-.293.456-.868-.275-.574-.6-1.155-.731-1.168-.132-.013-.1.375-.338.743-.237.369-.55.638-.687.713-.137.075-.443.193-.425.374.02.182.044.781.25.825Z" fill="#C00D1E"/><path d="M59.46 61.222c-.07.138-.35-.075-.5-.28-.137-.189-.294-.326-.376-.782-.08-.456-.018-.78.094-.937.113-.156.394-.206.506-.125.113.081.281.394.325.98.044.588.019 1.007-.05 1.144Zm-1.806.013c-.106.115-.232.187-.831.062-.6-.125-.981-.593-.925-.724.056-.132.157-.278.512-.438.375-.168.731-.275 1.006-.293.272-.02.314.007.394.23.1.282-.013 1.006-.156 1.163Zm6.06.3c-.013-.132-.113-.144-.319-.357-.206-.212-.281-.343-.387-.456-.107-.112-.131.088-.131.113l.018.606c.02.587-.093 1.85-.156 2.087-.062.237-.281.48-.444.362-.162-.119-.587-.875-.943-1.774-.356-.9-.624-2.774-.662-3.28-.037-.506.306-.488.475-.569.168-.081.793-.337.95-.525.155-.187.218-.33.074-.7-.143-.368-.525-.193-.662-.106-.137.088-.612.175-.775.032-.162-.144-.15-.213-.137-1.662.012-1.45.3-2.861.35-3.486.05-.625.087-.744-.163-.962-.25-.22-.768-.42-1.124-.538-.356-.118-.606-.075-.862-.012-.257.062-.244.268-.22.343.026.075.22.65.388 1.693.17 1.044.263 3.949.256 4.417-.006.469-.075.538-.187.719-.112.181-3.374 1.6-5.03 2.33-1.655.731-2.117.856-2.798.994-.681.137-.737.087-.906.118-.169.032-.144.394-.144.394s.088.1.3.268c.212.17.819.338 1.05.5.231.163.55.388.656.394.106.006.3-.312.88-.7.582-.387 1.438-.78 1.8-.843.362-.063.419.025.444.13.025.107-.057.195-.2 1-.144.807.143 1.587.23 1.737.088.15.382.088.426.082.043-.007.218-.107.537-.4.319-.294.618-1 .743-1.169.125-.168.531-.268.65-.312.119-.044.281-.05.325.056.044.107.1.863-.038 1.356-.137.494-1.13 1.143-3.354 2.568-2.225 1.424-4.024 1.462-4.218 1.48-.193.02-.274-.093-.306-.1-.03-.006-.093.1-.143.188-.05.087-.069.418.318.837.388.419.9.587 1.218.581.32-.006 2.537-.9 3.893-1.7 1.355-.799 3.936-3.292 4.098-3.43.163-.136.362-.224.413-.211.05.012.643.743 1.08 1.486.438.744 1.269 2.593 1.337 2.674.069.082.369.057.456.05.088-.006.219-.062.369-.218s.393-.681.456-.825a1.33 1.33 0 0 0 .119-.462c0-.132-.075-.869-.1-2.143-.025-1.275.112-2.524.1-2.655ZM88.038 60.316c.062.181.225.4.325.519s.281.181.475.15c.193-.031.45-.15.674-.319.225-.168.719-.43.9-.475.181-.043.262-.062.312-.025.05.038.075.344.032.55-.044.206-.694 1.056-1.437 1.593-.744.538-.994.887-.794 1.219.2.33.731.462 1.118.162.388-.3 1.562-1.587 1.662-1.774.1-.188.194-.438.431-.375.238.062.788.219.944.387.156.169.168.387.168.569 0 .181.325.562.988.55.662-.013.987-.213 1.03-.375.044-.163.094-.737-.237-1.125-.331-.387-.737-.65-1.062-.643-.325.006-1.137.025-1.35-.188-.212-.212-.28-.437-.1-.73.182-.294.488-.45 1.15-.82.662-.368.825-.555.85-.718.025-.162-.056-.43-.413-.6-.356-.168-.73-.137-.874-.03-.144.105-.206.306-.294.262-.087-.044-.162-.675-.156-.844.006-.168.443-.712.487-.862.044-.15.025-.294-.193-.506-.22-.212-.319-.3-.463-.306-.144-.006-.293.025-.381-.075-.087-.1-.362-.362-.487-.369-.125-.006-.381.075-.388.213-.006.137.007.331-.043.562-.05.231-.106.306-.057.4.05.094.306.394.363.787.056.394.075 1.225-.131 1.593-.207.369-.394.569-.513.638-.118.068-.287.143-.812.237-.525.094-.75.081-.825.056-.074-.025-.456-.125-.668.106-.213.231-.294.425-.231.606ZM111.814 55.437c-.106.075-.256.15-.45.081-.193-.069-.243-.194-.256-.231-.012-.038-.025-.131.156-.175.182-.044.425-.025.512.025.088.05.144.225.038.3Zm-1.849 1.137c-.188.112-.475.281-.712.169-.238-.113-.3-.263-.238-.388.066-.133.419-.443.844-.38.322.047.293.486.106.599Zm3.923-2.143c-.187-.481-.468-.98-.681-.993-.212-.013-.268-.069-.593.037-.325.106-.962.444-.944-.044.019-.487.231-1.124.144-1.405-.087-.281-.337-.519-.569-.669-.231-.15-.393-.35-.524-.212-.131.137-.506.793-.663 1.212-.156.418-.299.912-.593.98-.294.07-1.05-.468-1.237-.424-.188.044-.575.112-.494.412.082.3.288.769.15.944-.137.175-.625.487-.656.78-.031.294.188.757.638.581.449-.174.724.113.462.357-.262.243-.437.493-1.037.506-.6.012-1.275-.325-1.093.218.181.544.387.888.187 1.194-.2.306-.344.406-.5.443-.156.038-.262.131-.1.369.163.237.338.28.531.331.194.05.463.125.363.369-.1.243-.169.406-.269.45-.041.017-.515-.03-1.019.212-.699.337-1.693.818-2.611.918-1.531.167-1.693.269-2.024.138-.268-.106-.281-.175-.381-.175-.1 0-.269.13-.281.243-.013.113-.263.85.25 1.237.512.388 1.18.675 1.836.5.656-.175 5.648-3.011 6.098-3.098.45-.088.868.212.787.374-.081.163-.312.531-.881.738-.568.206-1.018.237-1.099.324-.082.088-.138.513-.269.869-.121.328-.262.418-.262.712s.037.58.012.625c-.025.044-.618.38-1.512.75-.893.368-1.081.412-1.374.424-.294.013-.575-.056-.65.057-.075.112-.1.45.138.674.237.225.462.363.693.325.231-.037.75-.375 1.387-.612s.862-.387.999-.381c.138.006.444.344.357.73-.088.388-.269.72-.75.875-.481.157-1.031.038-1.112.1-.081.063-.263.456.25.881.512.425.818.419 1.124.488.306.068.531.33.813.306.281-.025.88-.444 1.055-1.15.175-.706.225-1.043.231-1.437.007-.393-.012-1.28.513-1.35.525-.068.7-.055.868 0 .169.057.731-.018.831-.318.1-.3-.012-.743-.237-.768-.225-.025-.744.3-1.112.337-.369.038-.888.075-.988-.362-.099-.438-.112-.887-.05-1.025.063-.137.607-.244 1.2-.562.593-.319 1.837-1.106 2.093-1.793.256-.688.044-.956-.125-1.012-.169-.057-1.031-.132-1.018-.525.012-.394.256-.656.912-.981.656-.325 1.043-.65 1.181-.812.137-.163.256-.338.568-.35.313-.013.862.137 1.006-.312.144-.45.219-.769.031-1.25Z" fill="#C00D1E"/><path d="M101.874 58.342c.002-.038.1-.119.244-.112.144.006.681-.306.675-.975-.007-.669-.138-1.443-.088-1.574.05-.132.15-.281.519-.207.368.075.618.088.731-.13.112-.22.068-.326.225-.382.156-.056.406-.087.756.475.349.562.362 1.168.349 1.343-.012.175-.043.406-.456.669-.412.262-.993.412-1.112.63-.119.22-.062.457-.137.57-.075.112-.562.724-.887.786-.325.063-.613-.23-.706-.537-.094-.306-.119-.425-.113-.556ZM80.43 64.627c.037.212.43.775.399.975-.031.2-.25.487-.45.65-.2.162-.287.312-.312.387-.025.075.112.119.343.169.231.05 1.006.45 1.244.4.237-.05.85-.594.856-.9.006-.307-.082-.256-.344-.656-.262-.4-.444-1.031-.775-1.3-.33-.269-.512-.393-.687-.393-.175 0-.206.037-.225.08-.019.044-.087.376-.05.588ZM71.433 61.022c-.213.587-.144 2.012-.369 2.868-.225.856-.543 1.9-.725 2.186-.18.288-.362.557-.275.882.088.324.65 1.293 1.238 1.349.587.056.768-.5.905-1.237.138-.737.357-2.63.763-4.11.406-1.482.55-2.3.9-2.712.35-.413.649-.731.636-1-.012-.268-.137-.343-.162-.343-.025 0-.156.193-.369.18-.212-.012-.3-.193-.437-.48-.137-.288-.262-.569-.512-.85s-.419-.362-.544-.356a.398.398 0 0 0-.287.15c-.12.148-.186.962-.25 1.705-.063.725-.42 1.514-.512 1.768ZM72.12 56.687c-.056-.075-.057-1.458.018-1.95.088-.568.313-.874.282-1.487-.032-.612-.069-1.062-.019-1.205.05-.144.225-.45.412-.419.188.031.485.671.725 1.243.275.656.381 1.35.2 1.793-.181.444-.619.794-.85 1.2-.23.406-.23.6-.412.718-.181.12-.3.181-.356.107ZM79.117 59.342c-.156.118-.518.218-.712.1-.194-.12-.156-.275-.156-.275.037-.263.493-.519.762-.357.269.163.262.413.106.532Zm-1.08 1.455c-.463.02-.482-.13-.513-.212-.031-.081.063-.344.319-.444.256-.1.474-.05.58 0 .107.05.388.282.388.282s-.312.356-.775.374Zm-.45-3.942c.106-.15.293-.244.612-.269.318-.024.543.013.65.27.106.255-.013.405-.5.462-.488.056-.869-.313-.762-.463Zm4.847 4.373a3.464 3.464 0 0 0-1.224-.175c-.306.013-.244.425-.269.663-.025.237-.243.512-.724.687-.481.175-.343-.364-.213-.55.163-.23.444-.543.956-1.256.512-.712.45-1.1.3-1.368-.15-.268-.317-.82-.225-.974.094-.157.187-.12.687-.482s.488-.58.288-1.062c-.2-.48-1.212-.537-1.4-.73-.187-.194-.112-.657.075-1.106.188-.45 1.468-1.325 1.887-1.862.418-.538.481-.962.412-1.256-.068-.293-.287-.53-.618-.712-.331-.181-.712.15-.737.268-.034.162.012.257-.063.807s-.262.805-.75 1.012c-.487.206-.85-.688-.987-.819s-.187.181-.2.431c-.012.25.132 1.303-.056 1.375-.181.069-.593-.688-.837-.844-.082-.052-.219.032-.356.194-.137.162-.125.437-.144.874-.019.438-.044.563-.5 1.056-.456.494-2.361 1.056-2.436 1.094-.044.022-.081.056-.075.106.006.05.044.187.281.431.237.244.637.412.925.456.287.044.493.056.63.356.138.3.07 1.125.05 1.518-.018.394-.337.756-.812 1.131-.474.375-.637.837-.624 1.175.012.337.83.668 1.218.575.387-.094.78-.45.88-.556.1-.107.257-.144.332-.1.075.043.269.28.319.662.05.38-.55.825-.8.956-.25.13-.531.075-.687.056-.156-.019-.194.062-.219.131-.025.069.081.262.237.387.157.126.756.007.838.07.08.062.243.249.237.674-.006.425-.78 1.075-1.05 1.443-.268.369.238.362.513.237.275-.124.924-.574 1.374-1.093.45-.518.719-1.593.719-1.593s.456.056.95-.019c.493-.075.936-.337 1.455-.75.539-.428.918-.868.962-1.018.044-.15-.106-.35-.519-.5Z" fill="#C00D1E"/><path d="m54.004 73.245.52.078-.697 2.63-.809-2.634.57-.073v-.303H51.97v.303l.226.028a.283.283 0 0 1 .235.365l-.725 2.288-.672-2.614.52-.067v-.303H49.93v.303l.153.019c.2.024.364.165.418.359l.947 3.427h.29l.912-3.027.97 3.027h.295l.885-3.416a.495.495 0 0 1 .404-.365l.164-.025v-.302h-1.364v.302ZM58.472 73.246l.283.039a.353.353 0 0 1 .304.348l.006 1.512c0 .994-.284 1.418-.95 1.418-.635 0-.918-.406-.918-1.315v-.473c0-.418-.006-.914.005-1.46l.583-.069v-.303h-1.682v.303l.166.02c.175.02.308.168.311.344.008.42.013.803.013 1.165v.647c0 1.05.507 1.63 1.428 1.63.637 0 1.398-.306 1.398-1.76l-.007-1.977.497-.07v-.302h-1.437v.303ZM63.04 73.246l.218.026a.353.353 0 0 1 .312.345c.004.334.006.7.006 1.141h-1.79c0-.406.002-.928.012-1.45l.525-.062v-.303h-1.678v.303l.22.026c.175.022.308.17.31.347.007.442.008.87.008 1.21v.296c0 .365-.001.81-.007 1.25a.353.353 0 0 1-.312.347l-.22.026v.303h1.679v-.303l-.527-.063c-.009-.492-.01-1.052-.01-1.585h1.79c0 .441 0 .873-.005 1.275a.353.353 0 0 1-.311.347l-.22.026v.303h1.678v-.303l-.526-.063a83.72 83.72 0 0 1-.012-1.56v-.295c0-.452.001-.984.012-1.52l.526-.064v-.303H63.04v.303ZM67.754 75.397H66.69l.537-1.648.527 1.648Zm-.186-2.454h-.403l-1.133 3.454a.474.474 0 0 1-.377.32l-.202.032v.302h1.376v-.302l-.549-.079.3-.931h1.284l.298.94-.553.07v.302h1.622v-.302l-.144-.018a.474.474 0 0 1-.392-.324l-1.127-3.464ZM73.788 72.943v.302l-.027.005-.46.072-.006 3.73h-.247l-2.24-3.194v2.808l.603.082v.304h-1.445v-.304l.246-.036c.139-.02.242-.14.242-.281v-2.69a.494.494 0 0 0-.441-.492l-.02-.002v-.304h.932l.01.013 2.011 2.89v-2.212a.353.353 0 0 0-.307-.35l-.296-.04v-.3h1.445ZM85.066 72.943v.302l-.027.005-.461.072-.005 3.73h-.247l-2.24-3.194v2.808l.603.082v.304h-1.445v-.304l.245-.036c.14-.02.243-.14.243-.281v-2.69a.494.494 0 0 0-.442-.492l-.02-.002v-.304h.933l.01.013 2.01 2.89v-2.212a.353.353 0 0 0-.306-.35l-.296-.04v-.3h1.445ZM79.071 73.245l.282.04a.353.353 0 0 1 .304.35v1.51c0 .994-.284 1.418-.95 1.418-.635 0-.918-.406-.918-1.316v-.472c0-.418.001-.914.012-1.46l.583-.069v-.303h-1.682v.303l.165.02c.176.02.31.168.312.345.006.42.006.802.006 1.164v.647c0 1.05.508 1.63 1.428 1.63.638 0 1.398-.306 1.398-1.76v-1.977l.497-.07v-.302h-1.437v.302ZM85.802 73.246l.343.041a.212.212 0 0 1 .187.207c.007.486.008.962.008 1.336v.295c0 .382 0 .852-.007 1.313a.283.283 0 0 1-.25.277l-.281.033v.303h1.68v-.303l-.282-.033a.283.283 0 0 1-.249-.277 96.087 96.087 0 0 1-.007-1.314v-.294c0-.4 0-.862.008-1.335a.213.213 0 0 1 .187-.208l.343-.04v-.304h-1.68v.303ZM104.005 73.246l.343.041a.212.212 0 0 1 .187.207c.008.486.009.962.009 1.336v.295c0 .382-.001.852-.008 1.313a.283.283 0 0 1-.249.277l-.282.033v.304h1.681v-.304l-.282-.033a.282.282 0 0 1-.249-.277 90.901 90.901 0 0 1-.008-1.313v-.295c0-.4.001-.862.009-1.335a.212.212 0 0 1 .187-.208l.343-.04v-.304h-1.681v.303ZM90.624 73.274l.495.053-.888 2.744-.924-2.748.537-.048v-.332h-1.626v.303l.14.017a.496.496 0 0 1 .407.325l1.224 3.443.007.02h.293l1.12-3.452a.474.474 0 0 1 .384-.323l.212-.03v-.303h-1.381v.33ZM94.996 76.688h-1.104c-.009-.49-.01-1.03-.01-1.583h.608c.106 0 .196.08.21.185l.05.378h.32v-1.474h-.32l-.053.386a.212.212 0 0 1-.21.183h-.605c0-.59.004-1.04.012-1.456h.987c.173 0 .32.125.349.295l.078.467h.388l-.042-1.126H92.74v.303l.22.027c.176.02.31.169.312.346.006.442.006.87.006 1.21v.296c0 .365 0 .81-.006 1.25a.354.354 0 0 1-.311.347l-.221.026v.303h3.028l.043-1.126h-.389l-.078.468a.353.353 0 0 1-.348.295ZM98.976 74.028c0 .505-.319.795-.875.795h-.414c0-.545.001-1.04.01-1.538h.465c.548 0 .814.243.814.743Zm.34 1.761c-.117-.42-.297-.652-.592-.755.546-.138.88-.516.88-1.01 0-.677-.532-1.08-1.424-1.08h-1.634v.302l.22.027c.176.02.31.17.312.347.006.441.007.868.007 1.21v.295c0 .382-.001.851-.008 1.312a.284.284 0 0 1-.25.278l-.28.033v.303h1.68v-.303l-.53-.063c-.009-.488-.01-1.022-.01-1.526h.251c.445 0 .648.076.757.545l.228.96c.07.298.24.409.623.409.166 0 .308-.021.435-.063l.021-.008v-.293l-.212-.026a.353.353 0 0 1-.298-.257l-.176-.636ZM102.213 74.773l-.226-.092c-.439-.177-.626-.395-.626-.73 0-.396.284-.643.743-.643h.031c.23.006.419.183.459.41l.069.386h.41l.037-.828-.013-.01a1.54 1.54 0 0 0-.962-.323c-.791 0-1.323.459-1.323 1.142 0 .556.321.949 1.01 1.234l.219.09c.467.193.69.35.69.73 0 .431-.321.69-.859.69-.082 0-.156-.006-.225-.017a.485.485 0 0 1-.392-.407l-.07-.432h-.411l-.037.889.015.01c.303.198.738.321 1.137.321.832 0 1.391-.47 1.391-1.172 0-.585-.299-.935-1.067-1.248ZM106.468 72.943l-.046 1.098-.001.033h.388l.081-.473a.352.352 0 0 1 .348-.294h.517c.011.543.012 1.074.012 1.523v.295c0 .381-.001.849-.008 1.308a.284.284 0 0 1-.252.278l-.336.037v.303h1.795v-.303l-.584-.065a88.625 88.625 0 0 1-.011-1.558v-.295c0-.453.001-.986.011-1.523h.518c.172 0 .319.124.348.294l.08.473h.389l-.047-1.13h-3.202ZM112.627 72.943v.303l.501.07-.772 1.703-.755-1.709.531-.064v-.303h-1.68v.303l.19.023c.169.02.316.126.389.28l.752 1.599c.09.19.136.397.135.607-.001.247-.002.503-.005.743a.21.21 0 0 1-.189.205l-.401.045v.303h1.795v-.303l-.587-.065c-.007-.368-.009-.8-.009-1.274l.859-1.853a.473.473 0 0 1 .356-.27l.263-.041v-.302h-1.373Z" fill="#115740"/></g><defs><filter id="a" x="-13" y="0" width="154" height="157" filterUnits="userSpaceOnUse" color-interpolation-filters="sRGB"><feFlood flood-opacity="0" result="BackgroundImageFix"/><feColorMatrix in="SourceAlpha" values="0 0 0 0 0 0 0 0 0 0 0 0 0 0 0 0 0 0 127 0" result="hardAlpha"/><feOffset dy="16"/><feGaussianBlur stdDeviation="6.5"/><feColorMatrix values="0 0 0 0 0 0 0 0 0 0 0 0 0 0 0 0 0 0 0.03 0"/><feBlend in2="BackgroundImageFix" result="effect1_dropShadow_49_845"/><feBlend in="SourceGraphic" in2="effect1_dropShadow_49_845" result="shape"/></filter></defs></svg>