<svg width="128" height="137" fill="none" xmlns="http://www.w3.org/2000/svg"><g filter="url(#a)" fill-rule="evenodd" clip-rule="evenodd"><path d="M64 20.41v.005c12.145 0 23.144 4.88 31.106 12.765 7.962 7.886 12.888 18.783 12.888 30.819H108V64h-.006c0 12.037-4.926 22.934-12.888 30.821-7.963 7.885-18.96 12.764-31.105 12.764v.004H64v-.004c-12.145 0-23.143-4.879-31.105-12.765-7.963-7.886-12.89-18.783-12.89-30.819H20V64h.005c0-12.036 4.926-22.933 12.889-30.82 7.962-7.885 18.96-12.764 31.105-12.764v-.004H64Zm0 2.502v.004h-.001v-.004c-11.46 0-21.834 4.6-29.343 12.038C27.146 42.388 22.5 52.658 22.5 64h.006V64H22.5c.001 11.34 4.645 21.611 12.154 29.048 7.51 7.438 17.886 12.039 29.345 12.039v-.004H64v.004c11.458 0 21.833-4.601 29.343-12.038C100.853 85.612 105.5 75.34 105.5 64h-.005V64h.005c0-11.34-4.646-21.611-12.155-29.048-7.51-7.438-17.885-12.04-29.344-12.04Z" fill="#333372"/><path d="M63.999 21.612c23.632 0 42.799 18.982 42.799 42.388s-19.167 42.388-42.799 42.388C40.365 106.388 21.2 87.406 21.2 64S40.365 21.612 64 21.612Z" fill="#005C3F"/><path d="M64 21.255c11.914 0 22.703 4.786 30.512 12.521 7.811 7.736 12.642 18.422 12.643 30.223h.001v.002h-.001c0 11.802-4.832 22.488-12.643 30.224-7.81 7.734-18.598 12.519-30.511 12.519v.003h-.003v-.003c-11.914 0-22.703-4.785-30.512-12.52-7.81-7.735-12.642-18.42-12.642-30.222h-.001v-.003h.001c0-11.801 4.832-22.488 12.642-30.223 7.809-7.735 18.598-12.519 30.512-12.52v-.001H64Zm0 .714v.002h-.002v-.002c-11.718 0-22.328 4.707-30.01 12.313-7.68 7.607-12.43 18.114-12.43 29.717v.003c0 11.602 4.75 22.11 12.43 29.716 7.681 7.608 18.292 12.313 30.01 12.313v-.001h.003v.001c11.717 0 22.328-4.705 30.008-12.312 7.68-7.608 12.433-18.115 12.433-29.718h-.002v-.002h.002c0-11.603-4.753-22.11-12.433-29.717-7.68-7.606-18.291-12.313-30.01-12.313Z" fill="#fff"/><path d="M64.167 35.897v.001c7.927 0 15.105 3.191 20.301 8.348 5.196 5.157 8.411 12.282 8.411 20.15h.001v.003c0 7.87-3.216 14.995-8.412 20.152a28.732 28.732 0 0 1-20.3 8.347h-.002a28.728 28.728 0 0 1-20.3-8.348c-5.195-5.157-8.41-12.281-8.41-20.15h-.002v-.002h.001c0-7.87 3.216-14.995 8.412-20.153a28.732 28.732 0 0 1 20.299-8.347h.001Zm0 .715h-.001c-7.73 0-14.73 3.11-19.796 8.14-5.067 5.029-8.201 11.975-8.201 19.646v.001c0 7.67 3.134 14.616 8.2 19.645a28.016 28.016 0 0 0 19.797 8.14h.002c7.73 0 14.73-3.11 19.797-8.14 5.066-5.029 8.2-11.975 8.2-19.645v-.002c0-7.67-3.134-14.616-8.2-19.645a28.016 28.016 0 0 0-19.798-8.14Z" fill="#E2DFDE"/><path d="M64.079 36.879c15.228 0 27.649 12.327 27.649 27.443 0 15.114-12.421 27.442-27.65 27.442S36.43 79.436 36.43 64.322c0-15.116 12.42-27.443 27.65-27.443Z" fill="#96C4D7"/><path d="M64.079 36.522a28.022 28.022 0 0 1 19.787 8.157c5.072 5.035 8.218 11.985 8.219 19.642-.001 7.658-3.147 14.607-8.22 19.644A28.031 28.031 0 0 1 64.08 92.12v.001h-.002a28.027 28.027 0 0 1-19.786-8.159c-5.074-5.035-8.219-11.984-8.219-19.64v-.002c0-7.656 3.145-14.607 8.22-19.642 5.072-5.035 12.073-8.156 19.785-8.156v-.002h.001Zm0 .714v.001h-.001v-.001a27.304 27.304 0 0 0-19.283 7.95c-4.944 4.906-8.009 11.677-8.009 19.135h.002v.002h-.002c0 7.458 3.065 14.228 8.01 19.135 4.943 4.907 11.767 7.95 19.282 7.95v-.002h.002v.002c7.515 0 14.338-3.043 19.283-7.95 4.943-4.906 8.008-11.677 8.008-19.136v-.001c0-7.458-3.065-14.229-8.008-19.135-4.945-4.908-11.768-7.95-19.284-7.95Z" fill="#333372"/><path d="M56.549 40.084c-5.858 9.955-6.997 17.631-5.113 24.027 3.3 8.181 8.091 11.15 13.327 12.21-4.537-4.432-6.015-10.204-1.15-17.922 3.103-5.072 9.07-9.828 16.597-14.627-10.376 2.259-18.538 1.72-23.661-3.688Z" fill="#fff"/><path d="M89.56 59.776c-2.477 10.18-6.299 19.16-14.34 22.953-13.671 6.451-24.045 1.848-33.012-4.632 12.407 3.531 26.384 3.102 29.764-14.578 3.546 5.904 14.18 1.478 17.587-3.743ZM26.689 63.422l3.058-1.082.034-.012.002.036.028.44.002.021-.022.008-2.008.638c-.104.034-.21.065-.316.096-.064.019-.129.036-.193.054.108.019.2.035.277.05l.186.034 2.141.47.02.004.001.021.033.519.001.02-.02.007-1.545.576-.002.001-.16.059-.158.054a8.238 8.238 0 0 1-.629.184l.18.03c.115.018.237.04.366.064l2.032.367.02.005.03.452.002.037-.036-.007-3.167-.671-.02-.005-.003-.02-.025-.415-.002-.02c.87-.313 1.735-.638 2.605-.951l-.013-.003c-.095-.017-.18-.034-.254-.05l-2.414-.521-.02-.005-.001-.02-.03-.459.02-.006Zm3.62 5.546.071.425.005.025-.027.005-1.776.323-.017.002a2.457 2.457 0 0 1-.466.047c-.104 0-.198-.008-.282-.026a.87.87 0 0 1-.28-.112 1.111 1.111 0 0 1-.43-.524 1.908 1.908 0 0 1-.114-.418l-.002-.016a2.148 2.148 0 0 1-.027-.242 1.42 1.42 0 0 1 .058-.519v-.001a1.008 1.008 0 0 1 .072-.169.9.9 0 0 1 .302-.331c.089-.06.197-.111.325-.156.125-.045.27-.08.435-.11l1.776-.323.027-.005.005.027.07.425.004.026-1.8.327h-.003c-.036.007-.072.013-.106.021a2.126 2.126 0 0 0-.099.023 1.286 1.286 0 0 0-.36.136.524.524 0 0 0-.086.068.575.575 0 0 0-.15.238l-.003.007a.994.994 0 0 0-.03.117c-.016.103-.014.218.007.344v.002a1.877 1.877 0 0 0 .055.234c.056.177.14.302.247.376l.004.003a.44.44 0 0 0 .151.064c.155.04.369.035.64-.014l1.773-.322.027-.005.005.028Zm-2.905 1.952 3.042-.725.027-.006.097.448.006.026-.027.006-1.222.29.346 1.596 1.222-.29.027-.008.006.028.092.42.004.026-.026.007-3.04.724-.027.007-.007-.027-.092-.42-.004-.027.025-.006 1.408-.335-.347-1.596-1.407.336-.027.006-.006-.027-.091-.42-.006-.026.027-.007Zm.72 3.065 3.335.192h.02l.005.018.135.441.006.018-.013.012-2.58 2.265-.032.028-.013-.04-.143-.467-.006-.017.014-.012.775-.652-.387-1.259-.985-.037h-.02l-.005-.02-.134-.434-.012-.038.04.002Zm1.53.54.3.974.69-.574c.112-.091.213-.174.303-.244.059-.045.114-.087.164-.123-.068.006-.137.01-.206.014a4.024 4.024 0 0 1-.315-.001l-.936-.046Zm-.459 2.942 2.855-1.316.024-.012.012.026.17.404.006.013-.007.012-1.535 2.52 2.16-.996.026-.011.01.025.16.378.01.023-.023.012-2.855 1.317-.026.011-.01-.026-.17-.403-.006-.013.007-.012 1.536-2.522-2.162.997-.026.012-.01-.026-.16-.378-.01-.023.024-.012Zm5.57 4.431.2.378.011.022-.022.014-1.58.908-.004.002-.113.063-.11.055c-.182.088-.345.14-.489.162-.1.014-.2.01-.3-.01a1.01 1.01 0 0 1-.295-.118 1.124 1.124 0 0 1-.276-.234 1.871 1.871 0 0 1-.237-.355 2.137 2.137 0 0 1-.16-.388 1.4 1.4 0 0 1-.056-.356l.001-.056c.001-.03.004-.06.007-.09.004-.029.01-.057.016-.086a.942.942 0 0 1 .173-.368c.066-.086.151-.173.258-.257.106-.085.231-.17.378-.253l1.58-.908.025-.014.013.025.198.376.012.024-.023.013-1.578.907a3.23 3.23 0 0 0-.096.057l-.085.054a1.372 1.372 0 0 0-.3.252l-.014.02a.604.604 0 0 0-.03.045.588.588 0 0 0-.084.306v.03l.003.058a1.034 1.034 0 0 0 .119.362v.003a1.711 1.711 0 0 0 .125.202c.11.148.226.238.35.27l.002.002a.498.498 0 0 0 .163.01c.16-.015.36-.091.603-.23l1.578-.907.024-.015.013.025Zm-2.06 2.75 2.561-1.86.024-.017.015.023.242.363.008.011-.006.013-1.045 2.778 1.961-1.424.015.024.227.339.014.022-.021.015-2.562 1.86-.024.017-.015-.024-.249-.373.005-.013 1.047-2.78-1.94 1.408-.023.017-.015-.024-.227-.339-.014-.021.021-.015Zm1.992 2.956 2.466-1.998.023-.017.016.022.253.34.016.021-.02.016-2.466 1.997-.023.02-.016-.024-.253-.34-.016-.02.02-.017Zm1.44 1.813 1.468-3.139.018-.037.028.032.303.342.013.013c-.408.794-.79 1.599-1.197 2.392a8.508 8.508 0 0 1-.142.26l.157-.078c.081-.039.165-.076.25-.113l2.236-.964.018-.008.013.015.286.323.026.028-.036.014-3.119 1.28-.018.007-.013-.014-.288-.323-.011-.014.008-.017Zm1.559 1.713 2.175-2.335.02-.021.02.02 1.615 1.638.019.02-.019.018-.257.276-.019.02-.02-.02-1.3-1.318-.628.675 1.218 1.235.018.019-.018.019-.255.274-.02.02-.02-.02-1.217-1.233-.702.756 1.354 1.372.017.018-.017.02-.257.275-.02.02-.019-.02-1.668-1.69-.019-.019.019-.019Zm2.29 2.252 1.973-2.524.017-.022.022.018 1.07.91v.001h.002l.087.076c.028.026.055.05.078.074.13.126.222.24.278.343a.773.773 0 0 1 .085.484.96.96 0 0 1-.203.48.9.9 0 0 1-.243.218.771.771 0 0 1-.296.103h-.003a.769.769 0 0 1-.208-.002 1.22 1.22 0 0 1-.431-.16c.011.029.022.056.03.082.016.05.027.096.033.137.012.086.019.175.019.27 0 .095-.005.193-.016.298l-.122 1.094-.04-.033-.4-.341-.013-.01.002-.015.091-.796c.013-.114.023-.217.03-.309.005-.09.01-.169.01-.232v-.001c.002-.065 0-.122-.005-.172a.628.628 0 0 0-.111-.308l-.015-.018-.017-.017a1.719 1.719 0 0 0-.133-.125l-.35-.296-.859 1.099-.016.022-.023-.019-.338-.288.015-.021Zm1.48-1.125.668.567.002.002.059.049.057.043c.094.07.18.119.254.144a.409.409 0 0 0 .289.008.508.508 0 0 0 .125-.063.512.512 0 0 0 .102-.1.484.484 0 0 0 .1-.378.524.524 0 0 0-.089-.211 1.073 1.073 0 0 0-.205-.222l-.742-.631-.62.792Zm1.605 2.365.344.192.023.012-.012.023c-.034.072-.06.141-.076.208a.724.724 0 0 0-.023.189c0 .06.01.122.031.184a.905.905 0 0 0 .093.194h.001a.96.96 0 0 0 .076.107c.073.087.161.166.266.237.064.045.129.081.19.11.064.029.125.05.187.063a.624.624 0 0 0 .17.016.431.431 0 0 0 .417-.457.47.47 0 0 0-.036-.145.942.942 0 0 0-.093-.163h-.001l-.025-.036-.035-.045a8.862 8.862 0 0 0-.318-.366 4.845 4.845 0 0 1-.251-.298 1.54 1.54 0 0 1-.149-.22v-.001l-.019-.035-.03-.064a.904.904 0 0 1-.074-.358.775.775 0 0 1 .125-.415l.002-.001v-.001c.012-.02.025-.039.038-.057l.044-.052a.813.813 0 0 1 .282-.208l.004-.002a.654.654 0 0 1 .135-.046.842.842 0 0 1 .375-.004h.001c.093.02.186.048.276.087a1.73 1.73 0 0 1 .533.365c.076.075.142.156.195.24a1.02 1.02 0 0 1 .14.315l.01.053c.011.055.016.11.016.166a1.048 1.048 0 0 1-.144.53l-.014.024-.024-.013-.347-.2-.022-.012.011-.024.002-.003c.011-.025.023-.05.032-.074.009-.025.018-.048.025-.073a.612.612 0 0 0 .004-.344.647.647 0 0 0-.124-.219 1.182 1.182 0 0 0-.238-.208 1.373 1.373 0 0 0-.283-.15.529.529 0 0 0-.23-.036h-.005a.71.71 0 0 0-.056.01c-.017.003-.034.009-.05.013a.356.356 0 0 0-.194.155v.002h-.002a1.437 1.437 0 0 0-.037.08.35.35 0 0 0-.007.208v.001a.366.366 0 0 0 .045.103c.061.106.176.25.346.433.121.13.22.243.298.337.079.095.136.174.174.234l.001.002.019.033c.015.025.028.05.039.073a.905.905 0 0 1 .108.414v.04a.655.655 0 0 1-.017.134.888.888 0 0 1-.123.302.855.855 0 0 1-.387.34.908.908 0 0 1-.26.074c-.092.01-.187.01-.287-.006v-.001h-.002l-.082-.015a1.502 1.502 0 0 1-.495-.224 2.372 2.372 0 0 1-.314-.253 1.429 1.429 0 0 1-.22-.268 1.078 1.078 0 0 1-.158-.802c.004-.027.01-.051.016-.076a1.3 1.3 0 0 1 .134-.318l.013-.023.023.013Zm2.277 2.77 1.57-2.814.015-.024.023.014.357.216.022.014-.013.022-1.57 2.814-.013.025-.024-.014-.356-.217-.023-.013.012-.023Zm1.864 1.096 1.29-2.507-.883-.492-.023-.013.012-.024.174-.339.013-.025.025.013 2.177 1.217.017.008-.005-.017.048.02.465.197.012.005.004.014.213 1.151c.02.11.037.216.052.32.013.09.026.179.036.268l.026-.021.067-.053c.117-.092.249-.191.393-.294v-.001l.907-.65.012-.007.015.005.444.19.046.02-.042.026-1.824 1.245-.498 1.268-.009.026-.027-.011-.381-.162-.025-.01.01-.025.497-1.27-.43-2.201-.004-.019-.008.014-.174.338-.013.026-.024-.014-.885-.494-1.288 2.506-.013.026-.025-.014-.363-.203-.024-.013.013-.024Zm5.989.939c.073-.263.171-.487.297-.673.125-.185.277-.333.455-.442.177-.108.365-.172.562-.194.196-.023.402 0 .617.064h.001a1.333 1.333 0 0 1 .224.087c.183.085.343.204.476.353l.003.002a1.787 1.787 0 0 1 .14.184c.106.167.176.352.21.558l.002.006a2.06 2.06 0 0 1 .023.244c.007.21-.021.428-.084.653a2.2 2.2 0 0 1-.174.442 1.755 1.755 0 0 1-.253.364 1.298 1.298 0 0 1-.693.42 1.58 1.58 0 0 1-.398.04 1.56 1.56 0 0 1-.397-.067 1.564 1.564 0 0 1-.393-.177 1.446 1.446 0 0 1-.317-.272v-.003a1.467 1.467 0 0 1-.348-.746l-.001-.008a1.394 1.394 0 0 1-.015-.119 1.922 1.922 0 0 1 .063-.716Zm.459.144a1.662 1.662 0 0 0-.067.519c.007.159.043.306.108.439.064.135.15.247.253.335.103.088.228.153.37.197.145.044.286.057.42.041a.968.968 0 0 0 .386-.143v-.001a1.06 1.06 0 0 0 .192-.16c.15-.161.266-.384.345-.669v-.005c.011-.035.02-.07.028-.104l.02-.102c.03-.17.033-.33.013-.48v-.004a1.76 1.76 0 0 0-.037-.17.987.987 0 0 0-.672-.674 1.04 1.04 0 0 0-.402-.042c-.132.014-.26.055-.386.123l-.001.001a.764.764 0 0 0-.195.152c-.157.164-.283.414-.375.747Zm2.744 2.418.607-3.193.005-.027.027.005 2.065.424.025.006-.004.026-.072.376-.005.027-.028-.004-1.63-.336-.179.936 1.41.289.025.006-.005.025-.071.377-.005.028-.028-.006-1.408-.29-.27 1.423-.005.029-.027-.006-.406-.084-.026-.005.005-.026Zm3.777-.403.39.002h.028v.025c.002.081.01.154.025.221a.707.707 0 0 0 .065.179.548.548 0 0 0 .111.146.761.761 0 0 0 .168.124l.004.003.056.029c.02.009.039.019.06.026.102.042.214.068.338.079a1.144 1.144 0 0 0 .411-.032.657.657 0 0 0 .159-.07.444.444 0 0 0 .187-.217.447.447 0 0 0 .025-.269.426.426 0 0 0-.148-.23.772.772 0 0 0-.154-.099v-.001l-.04-.019-.05-.022c-.097-.04-.245-.096-.446-.167a5.199 5.199 0 0 1-.356-.139 1.665 1.665 0 0 1-.231-.122l-.002-.001c-.02-.015-.04-.027-.058-.043a.828.828 0 0 1-.256-.3.807.807 0 0 1-.075-.428v-.006a1.11 1.11 0 0 1 .01-.069c.003-.023.009-.046.014-.068a.888.888 0 0 1 .154-.316l.002-.001V99.8a.55.55 0 0 1 .046-.055.92.92 0 0 1 .384-.242 1.477 1.477 0 0 1 .59-.057c.117.01.227.031.329.06a1.373 1.373 0 0 1 .353.159c.022.015.044.03.064.046a.892.892 0 0 1 .251.302l.004.007h.001c.01.023.021.045.03.07a1.097 1.097 0 0 1 .076.462l-.002.026h-.025l-.397-.006h-.026v-.027l-.002-.023a1.2 1.2 0 0 0-.018-.153.568.568 0 0 0-.147-.29.582.582 0 0 0-.208-.133 1.091 1.091 0 0 0-.303-.067 1.29 1.29 0 0 0-.319.005.546.546 0 0 0-.22.082l-.004.003a.267.267 0 0 0-.045.036.376.376 0 0 0-.14.269v.004c-.002.016-.002.031-.002.045a.344.344 0 0 0 .09.229c.035.038.1.082.197.128.098.048.23.099.392.153.165.057.303.107.414.152.112.045.2.085.26.122h.001v.001a.975.975 0 0 1 .137.094.895.895 0 0 1 .245.284l.002.004a.978.978 0 0 1 .053.127.918.918 0 0 1-.024.612.955.955 0 0 1-.582.56l-.003.001v.001a1.267 1.267 0 0 1-.163.047 1.476 1.476 0 0 1-.454.024 2.378 2.378 0 0 1-.39-.07 1.35 1.35 0 0 1-.316-.129 1.044 1.044 0 0 1-.425-.438l-.004-.006a1.167 1.167 0 0 1-.118-.607l.001-.026h.026Zm5.43.136.413.111.026.007-.007.026v.001a2.42 2.42 0 0 1-.092.28 1.367 1.367 0 0 1-.387.541 1.202 1.202 0 0 1-.384.212c-.141.047-.294.071-.46.071a1.878 1.878 0 0 1-.463-.057 1.182 1.182 0 0 1-.37-.164l-.001-.001a1.277 1.277 0 0 1-.169-.138 1.45 1.45 0 0 1-.32-.496l-.036-.097c-.013-.037-.024-.076-.036-.115-.01-.039-.021-.077-.03-.116a2.447 2.447 0 0 1-.06-.555c0-.171.016-.332.049-.481.032-.149.08-.288.143-.416.063-.128.14-.242.231-.34.09-.097.195-.18.312-.246.116-.067.24-.116.367-.149a1.625 1.625 0 0 1 .843.016 1.16 1.16 0 0 1 .639.498c.075.119.134.255.176.408l.007.027-.027.006-.407.1-.025.006-.008-.025a1.289 1.289 0 0 0-.13-.301.704.704 0 0 0-.398-.322 1.108 1.108 0 0 0-.6.004.875.875 0 0 0-.463.334.973.973 0 0 0-.13.264 2.765 2.765 0 0 0-.055.202 1.962 1.962 0 0 0-.045.414c0 .137.008.266.027.385.02.118.047.23.085.332a.992.992 0 0 0 .143.262.754.754 0 0 0 .204.187.974.974 0 0 0 .515.15.828.828 0 0 0 .767-.451c.053-.101.094-.219.122-.352l.006-.029.027.007Zm1.196 1.121-.15-3.25-.002-.028.027-.001.412-.021.027-.001.001.027.151 3.249.002.027-.027.002-.413.022-.027.001-.001-.027Zm1.392-.121-.313-3.237-.004-.027.027-.003 2.244-.24.027-.003.003.027.037.382.003.027-.027.003-1.807.193.092.938 1.689-.182.027-.003.004.027.036.381.002.027-.027.002-1.69.182.102 1.047 1.878-.201.027-.003.04.41.002.027-.026.002-2.315.249-.029.002-.002-.027Zm3.096-.422-.637-3.184-.005-.027.026-.006.415-.09.015-.004.01.01 2.039 2.084-.481-2.41-.006-.026.027-.006.387-.085.027-.006.006.027.636 3.185.006.026-.027.006-.414.09-.016.004-.01-.011-2.04-2.085.483 2.413.005.025-.026.006-.415.091-.005-.027Zm5.155-2.579.425-.021.028-.001v.028l.002.01v.15c-.002.05-.006.098-.01.144a1.4 1.4 0 0 1-.219.627 1.264 1.264 0 0 1-.307.321 1.463 1.463 0 0 1-.42.206 1.81 1.81 0 0 1-.46.088 1.159 1.159 0 0 1-.4-.044h-.002a1.193 1.193 0 0 1-.2-.083 1.368 1.368 0 0 1-.443-.375h-.002v-.001a2.084 2.084 0 0 1-.141-.201 2.402 2.402 0 0 1-.35-1.067c-.012-.153-.005-.3.02-.443.026-.141.068-.273.126-.392a1.494 1.494 0 0 1 .54-.585c.114-.071.237-.129.37-.171.153-.048.299-.072.44-.072a1.13 1.13 0 0 1 .752.282c.105.09.199.203.281.337l.015.022-.023.015-.361.218-.023.013-.014-.02a1.293 1.293 0 0 0-.207-.25.684.684 0 0 0-.472-.185 1.135 1.135 0 0 0-.574.187.889.889 0 0 0-.35.46.997.997 0 0 0-.05.294v.013c-.002.03-.002.059 0 .088a1.92 1.92 0 0 0 .077.517c.038.132.083.252.134.36.05.108.108.206.173.291a.946.946 0 0 0 .211.208.758.758 0 0 0 .248.116.955.955 0 0 0 .819-.156v-.001a.861.861 0 0 0 .323-.523c.023-.112.028-.237.018-.374l-.003-.029h.029Zm1.393.74-1.207-2.998-.01-.025.024-.01 2.079-.914.026-.012.01.027.144.353.009.025-.025.01-1.674.737.35.867 1.565-.689.025-.01.011.026.142.352.01.024-.025.01-1.566.69.39.97 1.74-.765.026-.012.01.027.142.353.01.025-.024.01-2.145.943-.026.012-.01-.026Zm3.236-1.473-.393-3.46-.001-.018.015-.01.394-.217.016-.01.014.014 2.584 2.254.029.025-.035.02-.417.229-.016.01-.014-.014-.749-.68-1.12.617.135 1.02.002.018-.016.01-.388.213-.036.02-.004-.041Zm.248-1.666.869-.478-.663-.612a12.04 12.04 0 0 1-.425-.412 4.157 4.157 0 0 1 .102.53v.002l.117.97Zm2.826-.052-1.733-2.702-.014-.022.02-.015.365-.254.015.006 2.64 1.133-1.313-2.046-.013-.022.02-.016.33-.23.023-.016.015.023 1.734 2.703.014.021-.021.016-.352.246-.013.008-.013-.006-2.643-1.135 1.314 2.048.014.022-.021.016-.352.246-.016-.023Zm2.815-2.004L85.1 92.662l-.015-.02.021-.017.86-.672.001-.001h.001l.08-.061.075-.056c.126-.09.232-.156.32-.195l.007-.004.072-.03.072-.025c.122-.038.242-.052.363-.045l.006.001h.001a.81.81 0 0 1 .092.01l.089.016c.152.034.3.098.44.193.098.064.195.143.286.236a2.605 2.605 0 0 1 .448.608 2.148 2.148 0 0 1 .204.562 1.355 1.355 0 0 1 .014.47.971.971 0 0 1-.047.2v.001c-.005.018-.012.035-.018.053a1.332 1.332 0 0 1-.189.318 1.83 1.83 0 0 1-.167.183 2.5 2.5 0 0 1-.207.18l-.903.705-.022.017-.016-.023Zm.137-.62.511-.4c.082-.063.152-.124.21-.182a.957.957 0 0 0 .22-.314.633.633 0 0 0 .04-.147V93.6c.005-.02.006-.038.008-.058l.001-.06a1.14 1.14 0 0 0-.06-.339 1.6 1.6 0 0 0-.112-.263 2.647 2.647 0 0 0-.179-.282v-.002a2.34 2.34 0 0 0-.162-.204 1.155 1.155 0 0 0-.404-.312.928.928 0 0 0-.266-.07.65.65 0 0 0-.24.021.885.885 0 0 0-.196.093 2.867 2.867 0 0 0-.26.184l-.505.394 1.394 1.944Zm3.775-2.748-1.917-2.013-.71.735-.02.021-.02-.02-.259-.273-.017-.019.017-.019 1.775-1.839.02.02.26.272.017.019-.017.019-.715.741 1.918 2.015.019.02-.019.018-.292.303-.02.02-.02-.02Zm1.464-1.575-2.328-2.2.017-.02 1.516-1.745.019-.02.02.018.272.258.018.017-.016.02-1.221 1.406.667.631 1.142-1.313.019-.022.02.02.27.256.02.017-.017.02-1.143 1.317.746.704 1.27-1.46.017-.021.021.019.272.258.02.017-.017.02-1.564 1.801-.019.021-.02-.019Zm2.515-5.051.356-.296.016.023.015.02a2.188 2.188 0 0 1 .155.242c.11.207.167.417.17.63.004.153-.02.302-.068.447-.049.146-.123.287-.224.424-.102.142-.21.259-.321.353a1.212 1.212 0 0 1-.35.21l-.011.003a1.302 1.302 0 0 1-.208.055c-.178.03-.366.02-.562-.032h-.001a1.679 1.679 0 0 1-.115-.035 2.18 2.18 0 0 1-.66-.359 2.218 2.218 0 0 1-.338-.331 1.668 1.668 0 0 1-.233-.37c-.06-.13-.1-.263-.12-.395v-.001a1.395 1.395 0 0 1 0-.407 1.663 1.663 0 0 1 .313-.76c.095-.132.2-.241.313-.326a1.134 1.134 0 0 1 .767-.235c.137.01.277.043.42.1l.026.01-.012.026-.169.397-.01.025-.024-.01a1.22 1.22 0 0 0-.308-.072.7.7 0 0 0-.26.023.705.705 0 0 0-.226.115 1.243 1.243 0 0 0-.36.503.956.956 0 0 0-.06.299.962.962 0 0 0 .16.558v.001l.049.072.051.068a2.152 2.152 0 0 0 .622.52c.101.055.203.098.303.127.1.03.196.042.287.039a.746.746 0 0 0 .267-.059.987.987 0 0 0 .425-.339c.068-.093.119-.19.15-.29a.901.901 0 0 0 .042-.306.902.902 0 0 0-.074-.315 1.324 1.324 0 0 0-.196-.313l-.018-.022.021-.017Zm1.558-.316-2.666-1.682-.023-.014.013-.022.215-.37.014-.024.024.015 1.072.675.813-1.4-1.074-.676-.022-.015.013-.022.215-.37.014-.023.024.015 2.667 1.682.022.014-.013.022-.214.37-.014.023-.024-.014-1.233-.777-.814 1.4 1.235.778.022.014-.012.022-.215.37-.014.025-.025-.016Zm1.721-3.009-2.799-1.432-.022-.013.198-.42.006-.013.014-.002 2.837-.398-2.121-1.085-.024-.013.012-.023.175-.371.011-.026.026.013 2.798 1.433.022.012-.01.024-.187.396-.007.014-.014.003-2.838.396 2.123 1.087.023.011-.012.025-.175.37-.011.025-.025-.013Zm.04-3.59a2.144 2.144 0 0 1-.622-.356 1.48 1.48 0 0 1-.39-.503 1.486 1.486 0 0 1-.146-.596 1.722 1.722 0 0 1 .106-.637v-.001a2.081 2.081 0 0 1 .098-.228c.095-.184.22-.341.372-.472a1.361 1.361 0 0 1 .738-.316l.004-.002a1.926 1.926 0 0 1 .235-.008c.202.007.41.052.621.133.151.057.289.128.412.211.123.083.233.18.33.289a1.436 1.436 0 0 1 .352.75 1.715 1.715 0 0 1-.083.824 1.745 1.745 0 0 1-.198.395c-.08.117-.175.22-.283.311l-.003.002a1.713 1.713 0 0 1-.19.133c-.167.097-.35.156-.548.177h-.005a1.237 1.237 0 0 1-.115.008c-.037.001-.076.003-.114.001a1.757 1.757 0 0 1-.57-.114Zm.172-.465c.174.066.337.1.49.104a.986.986 0 0 0 .766-.322c.091-.102.164-.227.214-.372a1.05 1.05 0 0 0-.04-.848v-.002a.89.89 0 0 0-.063-.108 1.296 1.296 0 0 0-.076-.102c-.143-.167-.349-.302-.615-.404l-.006-.003-.097-.034a1.42 1.42 0 0 0-.554-.074h-.004a.863.863 0 0 0-.163.027.908.908 0 0 0-.36.178h-.002a1.066 1.066 0 0 0-.33.476c-.049.14-.072.28-.069.418.004.137.034.274.09.41l.002.001a.745.745 0 0 0 .131.214c.146.175.374.321.686.44Zm2.498-2.668-2.98-.958-.025-.009.008-.025.122-.412.008-.026.027.008 2.601.837.455-1.531.026.008.352.113.025.01-.008.024-.577 1.944-.008.025-.026-.008Zm-.773-2.896a2.098 2.098 0 0 1-.663-.262 1.478 1.478 0 0 1-.678-1.011 1.722 1.722 0 0 1 .02-.645v-.003a1.653 1.653 0 0 1 .372-.759h.001a1.935 1.935 0 0 1 .168-.16 1.35 1.35 0 0 1 .52-.26 1.575 1.575 0 0 1 .382-.055l.107.001a2.082 2.082 0 0 1 .815.2c.134.064.256.144.365.238a1.412 1.412 0 0 1 .448.691 1.693 1.693 0 0 1 .028.827 1.69 1.69 0 0 1-.142.421 1.479 1.479 0 0 1-.239.349h-.001a1.524 1.524 0 0 1-.17.158 1.38 1.38 0 0 1-.521.258l-.031.008a1.676 1.676 0 0 1-.224.038c-.184.019-.37.008-.557-.034Zm.109-.486c.181.041.347.052.499.033a1.002 1.002 0 0 0 .715-.43c.078-.116.132-.25.163-.4a1.029 1.029 0 0 0-.152-.833l-.001-.002a.998.998 0 0 0-.166-.187c-.164-.146-.386-.25-.663-.313l-.025-.004a1.103 1.103 0 0 0-.099-.019c-.033-.005-.066-.01-.097-.013a1.378 1.378 0 0 0-.444.022v.002a.823.823 0 0 0-.16.049.95.95 0 0 0-.501.466 1.17 1.17 0 0 0-.111.706c.022.136.07.267.144.393v.001a.842.842 0 0 0 .158.194c.168.15.415.262.74.335Zm1.015-4.678-.364-.041-.027-.004.003-.027.141-1.37.003-.027.028.004 1.15.127.013.003.007.01c.07.116.13.233.179.349.049.116.089.233.119.35l.002.008c.008.032.015.066.021.098a1.998 1.998 0 0 1 .027.606l-.001.004c-.005.046-.011.09-.018.134-.007.043-.016.087-.024.128a1.877 1.877 0 0 1-.248.59v.002a1.316 1.316 0 0 1-.148.192 1.314 1.314 0 0 1-.491.342l-.004.001v.001l-.112.04a1.814 1.814 0 0 1-.745.066h-.005a2.574 2.574 0 0 1-.25-.045 1.854 1.854 0 0 1-.58-.252h-.002l-.001-.001a1.262 1.262 0 0 1-.194-.15 1.29 1.29 0 0 1-.339-.495v-.004a1.81 1.81 0 0 1-.07-.23 2.003 2.003 0 0 1-.032-.654v-.004l.013-.099.017-.093c.031-.159.08-.304.149-.436.013-.027.027-.051.04-.076a.992.992 0 0 1 .562-.465c.091-.032.191-.056.3-.073l.027-.004.004.027.061.398.005.026-.026.004a1.545 1.545 0 0 0-.217.058.844.844 0 0 0-.165.077v.001h-.001l-.038.027a.76.76 0 0 0-.2.247l-.003.004-.025.053a1.208 1.208 0 0 0-.097.37l-.002.008c-.002.026-.005.052-.006.079l-.002.076c-.001.127.013.242.04.345.022.072.048.14.078.2.03.059.066.112.107.16a1.008 1.008 0 0 0 .278.232l.002.002c.027.015.052.029.078.04l.078.037a1.796 1.796 0 0 0 .822.117c.115-.012.22-.036.316-.075a.916.916 0 0 0 .447-.377 1.328 1.328 0 0 0 .195-.577 1.468 1.468 0 0 0-.046-.544 1.702 1.702 0 0 0-.08-.242 1.09 1.09 0 0 0-.085-.166l-.537-.06-.098.923-.002.027-.027-.002Zm1.396-2.762-1.311-.075-1.855 1.145-.045.027.004-.052.028-.522v-.015l.013-.007.973-.586a9.074 9.074 0 0 1 .506-.28l-.031-.022-.069-.048a11.598 11.598 0 0 1-.395-.292l-.881-.682-.012-.008.001-.015.027-.501.003-.053.042.034 1.717 1.394 1.311.074.027.002-.002.027-.023.43-.001.026h-.027ZM92.854 44.538s.338-.197.472-.255c.133-.06.313-.229.372-.26.06-.032.183-.024.25.011.066.035.21.185.132.516-.078.33-.204.58-.253.695-.05.116-.278.544-.605.547-.327.004-.505-.126-.597-.228-.091-.102-.151-.44-.08-.618.07-.18.212-.316.261-.362l.048-.046Zm4.125.164s-.155.179-.215.334c-.06.155-.127.298-.132.387-.006.09-.072.276-.144.287a.277.277 0 0 1-.233-.048c-.095-.065-.26-.218-.265-.265-.006-.048-.05-.2.015-.267.066-.065.275-.22.3-.274.023-.054.148-.239.202-.364.054-.125.174-.418.174-.513 0-.096-.03-.203-.119-.24-.09-.035-.281 0-.4.173-.12.174-.436.466-.544.537-.108.072-.24.197-.31.215-.068.019-.333.26-.379.328-.045.07-.164.37.032.434.196.065.439.119.557.22.119.1.337.265.461.366.123.1.481.462.566.551.083.09.154.157.205.198.05.042.448.386.655.539.207.154.613.352.78.63.165.278.1.41.069.465-.03.056-.211.12-.439.09a2.338 2.338 0 0 1-.575-.167c-.102-.045-.218-.051-.278.03-.06.08-.011.135.035.187.049.053.545.447.914.54.37.091.646.077.79.077.145 0 .54-.06.552-.35.012-.291-.005-.5-.085-.633-.081-.133-.485-.522-.603-.641-.12-.12-.37-.326-.43-.375-.057-.048-.15-.163-.057-.247.091-.085.285-.039.471-.039.188 0 .485-.01.637-.111.154-.101.3-.308.398-.452.096-.145.095-.25.16-.36a.6.6 0 0 1 .32-.265c.142-.045.337-.2.395-.351.058-.149.093-.377.021-.432-.071-.055-.31-.08-.385-.089-.077-.008-.467-.006-.57.054a1 1 0 0 0-.25.198c-.067.073-.438.184-.6.184-.162 0-.903.026-1.007-.105a.842.842 0 0 1-.19-.393c-.053-.202-.08-.202-.172-.22-.091-.018-.198.028-.232.073a.88.88 0 0 1-.095.104Zm.296 1.068s.52-.004.738-.008c.219-.004.504-.021.602-.026.099-.003.253-.031.302.018.049.05.095.22.011.298-.082.077-.288.263-.392.276-.103.011-.463.065-.863.011-.4-.054-.626-.08-.713-.194-.087-.117-.045-.195.008-.265.054-.07.078-.097.144-.097l.163-.013Zm-2.194 1.327.085.317c.03.116.061.417-.132.549-.194.13-.433.354-.688.324-.255-.032-.495-.187-.641-.264-.147-.078-.413-.283-.477-.322-.063-.038-.246-.005-.242.107.004.11.06.212.148.358.09.144.14.259.192.324.05.063.14.195.221.293.081.098.289.268.294.388.003.12.022.309-.277.444-.3.133-.377.23-.539.236-.162.008-.37.016-.512-.06-.143-.076-.33-.203-.405-.25-.076-.046-.284-.014-.191.201.091.215.275.364.356.43.081.067.392.177.736.225.345.048.64-.108.77-.114.133-.006.364-.146.384-.27.021-.124.034-.227.097-.24.06-.012.218-.05.382.129.165.177.27.377.373.484.103.108.394.411.7.467.304.057.532-.014.581-.13.05-.116.067-.33-.112-.613-.178-.283-.204-.395-.462-.655s-.307-.306-.444-.398c-.138-.09-.207-.177-.141-.326.066-.148.094-.14.16-.166.065-.025.255-.134.335-.192.079-.058.359-.233.274-.583-.084-.35-.11-.335-.218-.515-.106-.18-.238-.341-.31-.376-.072-.035-.165-.046-.2-.01a.39.39 0 0 0-.094.119c-.007.032-.003.09-.003.09ZM85.603 39.098s.015.257-.051.407c-.067.15-.072.22-.1.248-.028.029-.118.113-.107.168.012.055.03.215.142.226a.63.63 0 0 0 .29-.04c.056-.03.194-.115.28-.175.084-.061.2-.157.323-.178.124-.023.216-.04.336-.058.12-.019.19-.012.237-.04.045-.03.123-.129.123-.178a.47.47 0 0 0-.085-.203 8.988 8.988 0 0 0-.209-.234c-.032-.031-.04-.069-.092-.18-.05-.11-.08-.21-.125-.296a.836.836 0 0 0-.167-.23c-.079-.072-.107-.11-.128-.135a1.936 1.936 0 0 0-.197-.142c-.037-.024-.166-.115-.21-.14a.637.637 0 0 0-.248-.074c-.083 0-.226.083-.226.166 0 .107-.001.163.027.249.03.086.017.154.035.223.015.069.019.131.035.209.016.077.067.209.079.29.013.081.038.117.038.117Zm.73-4.818s-.12.218-.182.262c-.062.045-.164.23-.226.262a.942.942 0 0 1-.29.09 1.185 1.185 0 0 1-.353-.035c-.075-.017-.177-.003-.267-.07a2.286 2.286 0 0 0-.336-.212.667.667 0 0 0-.271-.031c-.076.013-.191.076-.205.13-.013.053.03.28.06.356.032.075.153.266.207.338.053.07.147.166.139.242-.01.075-.037.307-.112.343-.076.035-.111.115-.16.134-.05.017-.307.164-.398.189-.092.025-.247.184-.315.272-.066.088-.116.232-.34.306-.224.075-.444.16-.51.168a.793.793 0 0 0-.29.17c-.04.05-.032.156-.015.2.016.043.071.14.2.142.127.003.355-.038.49-.103.137-.065.45-.225.517-.269.067-.043.225-.193.378-.27a3.95 3.95 0 0 1 .529-.222c.156-.046.477-.255.542-.306.064-.052.285-.125.6-.014.313.11.682.26.843.29.16.028.339.054.463.041a.934.934 0 0 1 .326.037c.076.02.303.097.358.11.054.013.174.054.255.093.082.038.305.206.484.197.18-.01.302-.065.438-.12.135-.054.124-.13.148-.215.053-.195-.13-.351-.287-.484-.07-.06-.184-.136-.24-.207-.199-.258-.353-.314-.616-.445-.177-.088-.401-.094-.575-.19-.077-.044-.163-.052-.194-.107-.029-.055-.077-.291-.038-.35.038-.06.085-.1.143-.164.058-.063.068-.107.083-.148.014-.042.094-.2.175-.29.07-.08.158-.12.226-.186.074-.07.127-.164.196-.251.045-.055.204-.363.231-.402.027-.04.161-.21.202-.258.041-.05.214-.2.13-.366-.132-.262-.273-.67-.6-.804-.081-.033-.343-.09-.407-.062-.066.028-.204.078-.17.184.04.114.131.308.112.468-.027.226.005.312-.183.508-.12.125-.236.361-.396.442-.034.017-.315.337-.345.37-.03.035-.154.237-.154.237ZM72.519 28.472s.322-.123.418-.337c.098-.213.104-.21-.004-.378-.108-.169-.159-.122-.257-.12-.097 0-.198.003-.236-.023-.036-.027-.131-.091-.149-.138-.016-.047-.026-.24.05-.337.076-.095.126-.218.146-.256l.117-.213c.038-.066.115-.223.108-.271a.424.424 0 0 0-.102-.195c-.042-.035-.152-.033-.21-.014a.894.894 0 0 0-.307.283c-.072.12-.164.406-.18.431-.016.026-.004.146-.013.212-.009.065-.047.129-.095.232-.048.103-.017.102-.147.188-.132.084-.162.13-.335.146-.173.015-.233.015-.281.018-.047.003-.3.075-.345.085-.045.01-.163.03-.206.055-.042.024-.102.094-.11.14-.01.046.003.163.043.183.04.02.16.142.281.208.12.066.359.176.43.193a.36.36 0 0 1 .235.179c.078.125.1.2.096.262a.33.33 0 0 1-.085.183c-.03.021-.159.145-.373.176-.214.03-.47.102-.64.147-.17.043-.618.126-.761.183-.143.059-.454.212-.5.266-.044.054.01.28.047.337.037.058.202.097.3.097.098 0 .274.02.514-.146.243-.167.34-.238.45-.278.112-.041.173-.041.245-.068.071-.029.138-.055.195-.055.056-.002.136.02.247.13.111.108.095.17.095.19 0 .02-.054.22-.192.421-.139.2-.153.218-.152.27a.495.495 0 0 1-.032.202 1.117 1.117 0 0 0-.06.173c-.012.05-.08.187-.102.217-.024.032-.048.172-.075.224-.029.054-.19.24-.248.277-.059.037-.136.095-.176.122-.04.028-.115.11-.109.163a.327.327 0 0 0 .075.166c.032.027.054.048.157.052.105.005.278-.116.309-.149.033-.031.067-.104.109-.136.042-.032.16-.151.191-.186.055-.06.177-.17.212-.242.034-.068.101-.191.152-.238.034-.033.1-.17.135-.216.034-.047.062-.186.108-.273.009-.017.137-.218.143-.222.035-.026.09-.247.096-.29.005-.042.021-.205.039-.325.017-.12.05-.293.078-.316a.472.472 0 0 0 .078-.1.55.55 0 0 1 .17-.126.553.553 0 0 1 .222-.08c.07-.006.05-.023.177-.036.126-.011.177.016.235.027.06.013.185.006.257.005.074 0 .364.002.438-.03.073-.031.165-.089.23-.106.066-.018.23-.093.342-.124.113-.031.434-.128.516-.146.083-.018.252-.07.404-.001.153.07.188.195.205.238.018.043.014.231.01.323-.004.091.103.414.226.54.123.125.289.351.338.445.05.095.072.357-.093.473-.163.116-.25.19-.334.246-.083.056-.252.197-.447.182a1.992 1.992 0 0 1-.412-.072c-.067-.02-.152-.023-.25-.037a.499.499 0 0 0-.234.015.368.368 0 0 0-.183.128c-.028.046-.028.13.034.213.063.084.115.192.146.243.032.052.04.141-.022.187-.06.046-.073.109-.154.109-.08.001-.225-.025-.299-.027a.92.92 0 0 0-.312.053.61.61 0 0 0-.21.202c-.022.055-.035.104.027.218.061.112.102.2.18.213l.197.037c.036.005.104.009.186-.013.084-.023.154-.057.231-.068.077-.013.237-.01.293-.018.055-.006.12-.047.193-.074.074-.028.183-.083.218-.091.034-.007.106-.058.166-.052.058.005.053.007.096.014.044.007.086.002.127.02.04.019.133.076.23.153.095.077.339.276.39.327.052.051.1.15.122.189.021.038.2.286.271.335.07.05.194.172.316.148a.85.85 0 0 0 .269-.103c.066-.039.11-.13.14-.174.028-.043.056-.084.062-.123.006-.038.014-.102.014-.14 0-.038.011-.292-.016-.364a1.437 1.437 0 0 0-.217-.338c-.041-.03-.194-.085-.237-.116-.044-.032-.16-.108-.187-.13-.026-.023-.129-.09-.143-.106-.013-.017-.163-.173-.162-.306.003-.134.08-.179.106-.202a4.62 4.62 0 0 0 .183-.162c.055-.054.068-.097.122-.158.055-.063.103-.132.135-.187.032-.055.103-.125.124-.162.078-.136.136-.196.17-.313.009-.026.044-.177.02-.235a1.708 1.708 0 0 0-.167-.278c-.063-.08-.128-.155-.17-.172-.041-.018-.041.002-.081-.025a1.12 1.12 0 0 1-.185-.148c-.03-.038-.123-.11-.201-.258-.079-.147-.162-.285-.17-.403a.345.345 0 0 1 .109-.264c.05-.045.209-.227.356-.29.148-.065.263-.163.326-.202.064-.04.195-.08.27-.113.075-.032.452-.271.584-.352.133-.08.226-.138.273-.16.045-.023.278-.191.308-.381a.769.769 0 0 0-.092-.474c-.049-.076-.164-.22-.3-.193-.137.027-.163.008-.241.165-.078.157-.035.254-.138.35-.1.097-.247.233-.302.255-.054.022-.195.116-.24.138-.048.023-.082.037-.127 0-.047-.036-.12-.071-.106-.206.014-.134.08-.363.115-.439.034-.075.057-.12.091-.188a.866.866 0 0 1 .099-.163c.043-.056.094-.146.133-.228.038-.08.075-.148.08-.173.005-.026-.009-.06-.056-.095-.048-.033-.149-.088-.22-.046-.073.043-.23.35-.287.411-.055.062-.138.232-.177.289-.039.055-.084.238-.203.348-.117.11-.273.3-.305.364a3.01 3.01 0 0 0-.137.402.457.457 0 0 1-.108.203c-.04.035-.202.164-.306.184-.103.02-.47.04-.892.19-.423.15-.687.244-.84.292-.154.049-.463.176-.614.233-.152.056-.28.178-.454.068-.175-.11-.249-.217-.187-.358.062-.14.073-.186.166-.24.091-.057.217-.139.25-.157.034-.018.103-.038.103-.038ZM40.983 36.94s-.28-.105-.423-.226c-.145-.12-.192-.205-.213-.41-.02-.206-.083-.443-.11-.572a1.643 1.643 0 0 1-.008-.56c.035-.21.028-.363-.005-.44-.034-.079-.273-.17-.388-.145-.115.026-.344.104-.376.264a.718.718 0 0 0 .075.478c.08.144.115.341.183.473.067.131.082.3.201.48.12.18.253.371.28.463.026.092.104.212.16.298.057.085.144.22.178.314.034.096.24.309.284.35.044.043.175.227.335.388.159.16.373.522.41.618.038.099.083.358.126.437.042.078.192.212.281.303.09.093.31.464.405.643.094.179.439.532.677.57.238.037.33.031.451-.118.124-.148.016-.904.008-1.044-.01-.14-.093-.671-.17-1.046-.078-.373-.15-.572-.206-.648-.055-.078-.125-.11-.205-.09-.081.02-.15.105-.142.174.008.07.143.334.152.488.01.154.072.447.052.66-.02.214.019.313-.135.338-.154.023-.204-.064-.381-.325a5.098 5.098 0 0 1-.4-.685c-.154-.303-.272-.715-.645-1.088-.372-.372-.474-.35-.474-.35l.023.009Zm2.58-1.587s-.275-.239-.369-.259c-.094-.019-.235-.044-.281.07-.047.115-.015.259.027.384.042.126.137.298.203.417.064.118.22.241.31.256.091.016.18-.022.213-.107a.727.727 0 0 0 .055-.35c-.017-.131-.064-.302-.111-.355l-.046-.056Zm.877-2.58s-.348.248-.447.367c-.097.12-.234.27-.363.424-.128.155-.206.311-.144.395.063.082.135.118.207.103.073-.017.082-.103.203-.094.118.01.253.06.25.16-.001.103-.088.37-.214.535-.126.165-.129.214-.088.282.041.07.122.142.187.123.064-.017.152-.133.212-.126.061.005.192.055.205.114a.962.962 0 0 1-.078.38c-.046.075-.074.183.014.25.087.069.247.15.31.18.06.03.117.07.117.238-.001.167-.048.445-.099.506-.051.062-.136.22-.189.339a.81.81 0 0 0-.06.328c.008.032.094.102.172.098.079-.004.097-.065.209-.078.112-.011.21-.036.287.02.078.056.067.177.068.235.001.057.055.295.078.43.022.134.028.318.082.415.055.096.084.154.207.148.124-.005.155-.12.158-.193a.378.378 0 0 0-.06-.225 1.04 1.04 0 0 1-.13-.385 16.718 16.718 0 0 0-.037-.577c-.01-.081-.057-.523.037-.709.095-.186.314-.39.438-.488.126-.098.006.028.43-.335.425-.364.482-.412.524-.456.043-.043.31-.374.346-.518.037-.144.087-.43.048-.506-.038-.074-.28-.22-.42-.08-.142.139-.193.476-.495.7a14.79 14.79 0 0 0-.513.393c-.098.08-.265.342-.319.387-.055.044-.169.109-.228.07-.06-.04-.179-.054-.118-.237.061-.181.147-.261.234-.358.086-.094.24-.326.2-.48-.042-.153-.16-.19-.33-.242-.168-.053-.21-.215-.168-.296.04-.082.1-.35.157-.489.057-.14.153-.375.246-.514a.822.822 0 0 0 .125-.467c-.017-.089-.104-.156-.184-.177-.081-.02-.267-.053-.39.005-.123.057-.334.241-.42.284-.086.04-.148.078-.184.091-.038.013-.073.03-.073.03Zm-1.877-1.68s-.298.246-.423.406c-.126.158-.31.3-.43.301-.118.002-.215.012-.27-.052-.057-.063-.177-.193-.258-.163-.08.03-.109.061-.12.108-.013.047.02.217.063.322.043.104.126.247.079.472-.048.226-.226.65-.267.74-.04.095-.13.306-.058.382.072.077.17.103.235.079.065-.024.35-.33.447-.362.099-.031.251-.036.344-.037.092-.001.277-.133.35-.229.074-.096.138-.148.21-.12.071.025.08.096.115.212.034.113.08.198.266.208.185.01.416-.026.591-.162s.238-.201.404-.353c.166-.152.333-.348.363-.484.03-.137.047-.273-.098-.312-.147-.04-.278-.047-.399.109-.12.156-.31.412-.332.444-.022.032-.08.065-.157.066-.078 0-.223-.016-.234-.07a.695.695 0 0 1 .025-.305c.039-.114.127-.256.232-.623.107-.369.252-.492.35-.553a1.76 1.76 0 0 0 .517-.54c.159-.27.223-.445.141-.636-.083-.193-.504-.21-.675-.213-.17-.002-.484-.026-.635.044-.152.068-.203.256-.136.373.065.117.221.281.201.388a.65.65 0 0 1-.232.398 1.262 1.262 0 0 1-.209.162Zm5.394 5.044s-.138-.03-.287.044c-.15.072-.252.132-.306.141-.057.009-.119.048-.256.188-.136.14-.292.292-.32.407-.025.115-.052.234.024.272.075.04.234.057.4.094.167.038.21.001.285.084.077.082.193.225.264.264.072.038.225.07.3.038.076-.033.14-.214.12-.372-.023-.158-.08-.228-.08-.343a1.86 1.86 0 0 1 .055-.389c.025-.106.036-.232.02-.272a.464.464 0 0 0-.147-.144c-.028-.008-.072-.012-.072-.012ZM55.847 26.213c.105-.33-.402-.494-.621-.488-.27.007-.404-.017-.49.249-.024.076.053.247.125.42.083.204.162.379.313.406.189.034.205.035.386-.171.091-.104.238-.273.287-.416Zm2.71 2.389s.017-.562-.209-.843c-.226-.281-.35-.245-.51-.597-.16-.353-.25-.322-.322-.348-.073-.026-.138.013-.185.108-.047.095-.077.211-.037.267.037.055.266.383.339.477.074.095.273.288.35.484.077.196.144.55.117.763-.027.212-.21 1.065-.188 1.289.021.223.058.438.26.529.204.093.468.008.91-.375.443-.385.673-.485.813-.554.138-.07.295-.155.442.01.148.165.2.468.212.694.014.225.027.59.063.775.035.187.035.501.04.629.006.128.074.582.074.625.002.044.069.105.13.122.06.017.168-.211.181-.25.013-.04.035-.306.045-.375.008-.068.062-.294.047-.426-.015-.131-.002-.413-.002-.455 0-.042-.004-.344.002-.555.006-.21-.012-.81-.03-.986-.016-.178-.083-.25-.075-.389.009-.14.002-.25.117-.487.116-.234.1-.282.204-.411a1.03 1.03 0 0 0 .172-.377.188.188 0 0 0-.06-.194c-.065-.06-.131-.056-.19-.044-.058.012-.134.08-.177.115-.045.034-.129.075-.211.046-.081-.03-.2.007-.216-.3-.015-.31-.05-.412-.087-.48a3.022 3.022 0 0 1-.118-.413c-.005-.04-.09-.167-.18-.29a.974.974 0 0 1-.169-.34.814.814 0 0 0-.084-.232c-.035-.056-.053-.109-.082-.175-.03-.067-.086-.174-.167-.174-.08 0-.138 0-.18.064-.041.066-.044.166-.04.24a.463.463 0 0 1-.025.186.985.985 0 0 0 .021.416c.042.138.032.306.035.353.004.046.058.268.115.374.058.105.118.34.13.439.015.097.093.287.093.42a.855.855 0 0 0 .088.36c.035.068.249.465-.108.922-.056.072-.17.15-.26.205-.526.322-.541.344-.81.253-.27-.091-.239-.307-.252-.428a8.347 8.347 0 0 1-.015-.534c0-.062-.012-.133-.012-.133Zm-2.339.354s.426-.433.43-.56c.005-.126.005-.226-.121-.279-.127-.051-.17.01-.248.023-.078.01-.33.337-.384.374a.238.238 0 0 1-.258.033c-.132-.053-.358-.21-.463-.052-.105.158-.115.48-.194.569-.08.09-.364.348-.575.385-.213.037-.317.198-.433.26-.115.062-.217.13-.365.173-.148.044-.39.127-.459.195a.694.694 0 0 0-.168.225c-.03.082-.007.226.105.33.111.102.285.244.55.185.265-.06.395-.222.507-.378.111-.157.294-.352.387-.42.091-.067.27-.296.421-.272.15.022.405.138.421.341.017.202.076.752-.03.896-.107.143-.433.919-.593 1.145-.16.227-.146.302-.368.541-.222.24-.277.352-.277.463.001.112.083.208.226.222.144.014.392-.152.532-.48.14-.33.082-.267.237-.498.154-.23.192-.265.276-.369.083-.103.154-.224.262-.224.108 0 .316.092.352.213.038.12-.008.447.222.624.23.176.284.156.346.12a.346.346 0 0 0 .169-.392c-.056-.231-.18-.43-.2-.481-.02-.05-.216-.421-.084-.636.133-.215.195-.26.264-.268.07-.008.14-.012.211-.116.07-.103.15-.23.085-.343a.736.736 0 0 0-.243-.228c-.046-.028-.167-.035-.234-.045-.068-.01-.376-.088-.497-.198-.12-.109-.323-.31-.305-.393.017-.082.001-.196.14-.359.14-.163.273-.25.301-.273.027-.023.055-.053.055-.053ZM31.819 47.748s-.486-.102-.645.163c-.158.265-.197.44-.435.738-.237.298-.428.616-.697.675-.268.06-.312.013-.4-.068-.088-.08-.29-.248-.105-.594.183-.346.315-.712.337-.832.022-.119.244-.513.276-.642.033-.13.058-.122.214-.41.157-.285.286-.385.44-.63.189-.298.253-.738.272-.827.017-.09.07-.288.211-.482.072-.1.13-.182.171-.268h.002-.002c.043-.082.027-.198-.002-.333-.06-.276-.34-.479-.523-.55a1.786 1.786 0 0 1-.617-.36c-.21-.198-.272-.235-.228-.367.046-.13.195-.222.383-.208.186.014.383.12.569.248.186.128.373.235.488.27.116.037.503.058.836.289.333.23.595.47.936.589.342.12.852.203.994.265.142.063.355.18.503.212.149.033.343.093.568.085.226-.007.367-.03.553.074.187.103.395.154.55.154.157.002.342.086.457.118.115.03.31.005.415-.044.104-.05.227-.085.495.058.27.143.664.497.71.576.047.078.094.424-.042.428-.137.002-.46-.053-.638-.046-.177.007-.63.033-.89-.109-.263-.142-.452-.237-.646-.238-.193-.001-.549-.065-.758-.191-.207-.126-.687-.143-.857-.191-.17-.047-.97-.239-1.278-.393-.307-.156-.46-.276-.59-.314-.13-.038-.536-.126-.649.2-.112.328-.235.819-.337.952-.102.133-.223.696-.223.696s-.07.388.25.467c.323.08.52.171.627.186.107.017.234-.043.304-.29.07-.25.133-.654.34-.723.208-.07.383-.023.528.243.144.265-.017.7-.094.824-.077.125-.361.4-.404.495-.044.095-.03.351.113.47.145.117.362.206.498.418.137.213.238.368.396.273.16-.095.204-.403.285-.564.08-.16.08-.387.226-.547.145-.161.073-.507.06-.64-.015-.131-.071-.468-.114-.547-.043-.081-.107-.264-.027-.33s.224-.014.323.213c.101.228.172.49.233.776.06.284.234.675.048 1.084-.184.408-.285.96-.302 1.075-.016.115-.183.364-.288.45-.106.085-.356.477-.417.56-.06.084-.342.363-.633.465-.292.101-.521.177-.691.119-.172-.058-.38-.117-.532-.2-.151-.084-.354-.284-.474-.374-.12-.09-.284-.123-.29-.29-.005-.168.065-.225.287-.263.222-.037.367-.011.5.003.132.013.424.053.531.04a.934.934 0 0 0 .425-.159c.14-.102.241-.224.23-.301-.013-.077-.219-.365-.547-.57-.328-.205-.761-.552-.86-.71a.94.94 0 0 0-.274-.295l-.075-.051Zm.986-6.848s-.441-.089-.69.032c-.247.12-.502.205-.516.306-.014.1-.12.35.104.473.226.122.57.028.731.157.162.13.285.363.318.475.033.112.404.122.468-.03.064-.154.172-.275.117-.651-.057-.377-.05-.398-.123-.555-.071-.157-.15-.224-.232-.224-.082 0-.177.017-.177.017Zm-3.777 4.445c.163-.526.109-.346.204-.536.095-.191.321-.511.422-.613.225-.227.373-.206.574-.183.304.032.442.305.438.972-.002.315-.493.442-.822.645-.46.284-.98.243-.816-.285Z" fill="#fff"/></g><defs><filter id="a" x="-13" y="0" width="154" height="157" filterUnits="userSpaceOnUse" color-interpolation-filters="sRGB"><feFlood flood-opacity="0" result="BackgroundImageFix"/><feColorMatrix in="SourceAlpha" values="0 0 0 0 0 0 0 0 0 0 0 0 0 0 0 0 0 0 127 0" result="hardAlpha"/><feOffset dy="16"/><feGaussianBlur stdDeviation="6.5"/><feColorMatrix values="0 0 0 0 0 0 0 0 0 0 0 0 0 0 0 0 0 0 0.03 0"/><feBlend in2="BackgroundImageFix" result="effect1_dropShadow_49_8328"/><feBlend in="SourceGraphic" in2="effect1_dropShadow_49_8328" result="shape"/></filter></defs></svg>