<svg width="128" height="128" fill="none" xmlns="http://www.w3.org/2000/svg"><g filter="url(#a)" fill-rule="evenodd" clip-rule="evenodd" fill="#0B6F4F"><path d="M89.475 62.947c.06-.396.303-.579.581-.849.118-.114.516-.244.465-.413-.046-.153.297-.315.621-.547.228-.162.28-.508.341-.877.061-.368.81-.926.93-1.31.034-.113.248-.401.48-.687.079-.099.154-.24.234-.316.132-.124.239-.243.279-.355.117-.336.055-.503.016-.601-.127-.31-.37.238-.743.684-.095.114-.302.14-.396.24-.114.12-.093.213-.207.305-.322.255-.344.622-.832.622-.092 0-.53-.012-.592-.163-.118-.287-.165-.807-.116-1.334.064-.677.251-1.263.259-1.486.01-.294-.031-.71-.146-.98-.102-.238-.234-.424-.514-.423-.223 0-.282.06-.384.13-.161.113-.106.367-.154.677-.052.34-.044.547-.069.907-.006.09.09.387.085.468-.014.247-.258.322-.258.433 0 .633-.103 1.32-.316 1.95-.04.115-.12.038-.166.15-.097.228-.173.637-.302.837-.136.21-.29.401-.462.565-.307.293-.718.379-1.1.587l-.713.39-1.37.322c-.23.054-.393.162-.612.201-.232.041-.516.014-.596.105-.135.152-.082.211-.022.385.045.124.075.325.189.452.343.382.95.696 1.641.78.377.046.87-.142 1.07-.117.133.017.525-.088.54-.016.065.295.03.427-.219.83-.121.197-.257.36-.41.615-.052.087-.107.285-.199.408-.084.114-.099.262-.183.378l-.09.123c-.089.123-.275.137-.307.237-.042.129.076.371.254.44.271.104.503.264.703.25a.602.602 0 0 0 .361-.128c.113-.076.114-.2.216-.32.283-.33.712-.599.915-1.013.217-.44.366-.787.654-1.22.12-.18.225-.388.356-.605.13-.217.288-.444.288-.71Zm2.295 4.17c0-.377.194-.531.296-.794.07-.178.207-.497.164-.647-.078-.266-.438-.327-1.12-.201-.67.123-.91-.31-.689-.612.104-.142.4-.272.675-.27l1.943.007c.675.003 1.079.55.853 1.034-.052.111-.3.19-.415.285-.419.344-1.671 1.44-1.707 1.198Zm-18.454-7.583c-.157.533-.314 1.035-.314 1.63 0 .336.001.78-.048 1.137-.022.158-.128.336-.152.494-.033.217-.087.323-.11.536-.008.09.102.195.096.285-.006.116-.105.216-.106.33-.002.146.086.236.1.38.02.209.171.257.228.456.05.175 0 .5.09.66.123.214.286.41.504.583.148.117.598.263.817.307.765.152 1.298.051 1.893-.155.357-.123.637-.2 1.032-.394.304-.15-.181-.596-.275-.69-.242-.241-.65-.255-1.084-.164-.523.11-1.078.36-1.37.36-.262 0-.325-.431-.227-.82.041-.163-.03-.477.038-.61.1-.193.438-.179.456-.217a.698.698 0 0 1 .072-.117c.025-.036.094-.07.082-.135-.024-.121.032-.247.104-.38.089-.164.18-.328.312-.458.103-.102.247-.18.34-.227.094-.048.243-.051.303-.155.063-.107.096-.31.236-.393.177-.102.425-.163.593-.265.261-.16.398-.206.514-.368.055-.077.279-.06.299-.15.011-.05 0-.072-.012-.13-.14-.12-.217-.246-.353-.486a.545.545 0 0 0-.145-.148c-.08-.061-.165-.083-.251-.134-.106-.061-.285-.064-.42-.177-.513-.432-1.676-.456-1.35.022.052.075.08.145.154.187.164.093.426.114.487.232.03.06.184.432.142.53-.061.141-.447.232-.576.301-.197.106-.3.236-.459.31-.284.131-.577.16-.681.093-.311-.199-.163-1.147-.166-1.723-.001-.306.017-.537-.034-.702-.076-.245-.211-.316-.342-.303-.25.022-.387-.072-.417.668Zm-2.665 5.57a.549.549 0 0 0 .026.176c.02.063.213.127.19.202-.156.507-.75 1.13-1.142.296-.058-.126-.068-.188-.273-.098-.12.052-.167.128-.316.224-.196.126-.427.283-.619.427-.05.038-.116.036-.16.071-.128.103-.24.193-.266.245-.102.212-.558.33-1.043.355-.145.007-.266-.073-.405-.096-.357-.057-.696-.123-.833-.256-.158-.153-.115-.272-.01-.396.792-.283 2.428-.797 3.04-1.19.213-.139.48-.085.57-.354.05-.15-.03-.588-.007-.763.099-.756-.029-1.693-.029-2.343 0-.096.055-.187.037-.253-.023-.088-.144-.052-.223-.117-.102-.085.257-.076.263-.247.005-.15-.243-.413-.3-.498-.188-.283-.486-.657-.567-.9-.036-.11.005-.222.064-.236.201-.047.32-.079.49-.073.331.01.517.15.768.22.172.047.468.003.6.069.09.043.148.102.216.169.116.114.215.227.283.385.06.142.034.363.063.53.065.363-.111.976-.111 1.34 0 .18-.059.398-.038.632.005.054-.149.193-.144.322.016.39-.008.762-.052 1.02-.131.765-.042.985-.072 1.138Zm-3.976-.778c.184 0 .392-.302.562-.387.065-.032.136-.075.2-.091.19-.052.363-.023.594-.068.161-.031.444-.254.505-.379.194-.394-.529-.427-.714-.467a8.45 8.45 0 0 0-1.494-.139.249.249 0 0 0-.253.191c-.024.093-.007.204.13.272.223.111.575.116.601.231.014.06.02.038-.124.182-.033.033-.036.178-.133.294-.103.124-.247.194-.247.242 0 .186.341.119.373.119Zm-12.454.296c.1-.159.16-.328.249-.505.15-.31.337-.665.345-1.011l.018-.541c.015-.444-.19-.246-.35-.087-.092.092-.072.324-.13.514-.07.223-.03.46-.079.61-.06.196-.035.435-.088.612-.027.08-.089.497.088.408h-.053Zm-.468 3.489c.123-.378.295-1.037.405-1.377l.405-1.241c.119-.364.188-.63.305-.905.066-.154.19-.282.24-.505.045-.194.083-.247.099-.331.01-.06-.013-.226.024-.245.013-.007.015-.092.058-.123.043-.031.129-.009.153.016.03.029.042.256.057.274.048.06.091.16.147.267.064.119.012.214.102.335.076.1.194.163.33.24.134.077.286.167.429.167.08 0 .118-.026.18-.048.094-.033.057-.196.149-.283.093-.088.315-.101.354-.204a.442.442 0 0 0 .024-.087c.044-.315-.184-.705-.466-.92a3.472 3.472 0 0 1-.576-.593c-.068-.093-.032-.165-.094-.264-.035-.056-.03-.14-.062-.195-.047-.08-.126-.139-.158-.21-.08-.177-.103-.313-.02-.352.094-.046.137-.128.279-.232.186-.136.153-.384.385-.575.255-.209.695-.553.97-.808.091-.085.18-.11.217-.184.075-.153.166-.281.177-.431.01-.128-.155-.148-.185-.27-.017-.067-.1-.145-.125-.21-.03-.079-.044-.151-.1-.213-.129-.138-.739-.202-.84-.327-.075-.09-.02-.388-.04-.47-.025-.103-.153-.04-.306.027-.062.027-.179.141-.245.122a.321.321 0 0 1-.18-.148c-.042-.084-.003-.183-.003-.221 0-.225-.26-.333-.341-.284-.091.055-.2.25-.309.503-.04.096-.042.23-.081.337-.041.114-.122.23-.162.345-.143.41-.234.8-.234.958 0 .102-.077.142-.093.239-.054.339-.242.665-.279 1.016-.04.374-.207.72-.307 1.04l-.099.312.008.558-.089.403-.175.28-.167.447.006.199-.078.611-.173.415-.076.678-.62 1.848-.157.362c-.255.587-.398.735.331.735.355 0 .56.113.722-.072.012-.014.02-.078.03-.095.02-.028.06-.033.076-.071.024-.053.161-.166.178-.24Zm4.511-3.085c-.119.084-.49-.355-.76-.547-.174-.123-.327-.077-.284.05l.085.253.267.55.107.4c.145.538.186 1.394.414 1.867.163.338.923.091 1.259.058.382-.039.445-.89.433-1.679-.001-.045-.092-.091-.109-.137a1.814 1.814 0 0 1-.13-.47c-.019-.24-.015-.616-.015-.716 0-.372-.02-.771-.077-1.065-.05-.259.07-.452.07-.78 0-.524.102-.157.002-.725-.033-.19-.156-.697-.143-.893.073-1.187.405-2.233.815-3.313.13-.342.355-.645.565-.964.589-.894.785-1.925.097-2.308-.501-.243-1.012.089-1.495.512-.352.31-.69.684-.998.835-.1.049-.259.08-.394.187-.128.1-.45.222-.696.375-.21.13-.287.362-.4.514-.089.118-.233.155-.26.276-.029.126-.162.247-.043.367 0 0 .059.029.199-.023.109-.04.03-.161.181-.21.117-.036.177-.27.34-.29.367-.046.435.14.655.14.18 0 .473-.148.709-.347.241-.203.587-.633.653-.596.038.022-.018.276-.142.564-.041.096-.094.241-.143.339-.174.348-.278.843-.373 1.316-.107.537-.194 1.06-.213 1.592-.01.28-.042.729-.05.972l-.126 3.896Zm-7.346-3.176c-.368.441-.88 1.034-.974 1.505-.016.08-.146.304-.126.346.02.041.191-.099.227-.138.103-.113.387-.478.431-.539.094-.129.207-.259.354-.479.1-.15.34-.304.403-.39.515-.694 1.09-1.39 1.68-1.102.07.034.264.026.249.14-.012.086-.022.248-.074.36-.088.187-.242.34-.331.541-.127.285-.17.549-.165.689.007.21-.056.589-.058.858-.002.117.062.161.06.25-.02.624-.112.946-.47 1.08-.26.1-.537.212-.899.143-.357-.067-.686-.262-.64-.56.01-.063.15-.237.18-.354.01-.039-.105-.026-.09-.06.023-.056.029-.078.08-.119.168-.128.77-.764.431-.73-.077.007-.067-.005-.193.044-.238.091-.425.648-.597 1-.064.133-.136.194-.194.253-.213.213-.184.427-.298.666-.073.153-.39.444-.677.497-.288.054-.557-.14-.557-.543 0-.322.08-.501.198-.762.115-.252.267-.587.418-.834.153-.25.298-.526.419-.807.034-.08 1.049-1.407.78-1.47l-1.17-.279c-.214-.05-.157-.51-.08-.712.08-.21.404-.166.675-.282.27-.118.564-.198.77-.279a3.29 3.29 0 0 0 .592-.293c.167-.106.311-.227.46-.376.166-.167.66-1.42.774-1.659.126-.261.294-.59.446-.895.08-.163.105-.325.16-.481.072-.208.137-.327.22-.566.022-.063-.05-.13-.087-.193-.155-.267-.05-.611.299-.774.383-.18 1.026.33 1.286.59.378.379.414.64.406 1.066-.013.703-.1.454-.198.75-.105.315-.503.479-.503.644 0 0-.003.202.302.024.134-.079.116.267-.21.43-.236.117-.544.52-.733.71-.403.402-1.113 1.159-1.633 1.42-.379.189-1.288 1.454-1.343 1.67Zm-3.441 3.315c.159.008-.078.373-.078.396 0 .09-.192.385-.25.315-.081-.1.016-.234.063-.358.044-.113.182-.353.265-.353Zm.1-.602c.181-.325.378-.886.538-1.44.085-.295.264-.709.25-1.374-.005-.244.002-.588.073-.867s.169-.563.276-.829c.071-.177.02-.346.104-.5.161-.294.485-.532.756-.665.366-.18.729-.458.816-.838.12-.522-.182-1.201-.82-1.76-.5-.44-.663-.024-.663.673 0 .434.08.982-.208 1.342-.277.345-.198 1.149-.419 1.463-.464.66-.412 2.065-.492 2.979-.06.695-1.057 2.065-1.31 2.682-.17.417-.062.947-.193 1.435-.15.562.204 1.819.973 1.049.385-.385.421-.506.656-.99.126-.261.107-.9.152-1.204.01-.067.092-.35.15-.55.044-.154.027-.252.073-.295.18-.166.173-.11.852-1.272.034-.057.027-.128.029-.191l.043-1.323c.014-.41-.373.419-.373.419-.05.171-.193.58-.204.696-.031.363-.096.505-.383.918-.239.345-.675 1.308-.675.442Zm60.559.481c.238 0 .496-.209.577-.457.112-.348.054-.47-.275-.14-.082.083-.805.597-.302.597Zm-1.674 1.23c.292 0 .512-.257.356-.569-.082-.174-.402-.11-.485-.037l-.503.386c-.229.184-.238.257.019.423.192.128.475-.211.613-.203Zm5.274-11.272c.083 0 .09-.129.328-.207.266-.086.306-.025.642-.046.447-.03.635.047.83.264.049.055.173.095.214.174.071.132.215.301.236.512.007.07.031.145-.007.224-.171.352-.662.405-1.072.616-.289.149-.63.305-.925.445-.561.268-1.049.516-1.401.651-.095.037-.195.112-.298.154-.079.033-.073.155-.156.19l-.211.09c-.107.045-.24.051-.351.098-.425.18-.888.382-1.256.617-.321.205-.902.52-.94.63a.158.158 0 0 0 .074.196c.131.07.344-.135.569-.07.351.101.727.579.517.998a2.005 2.005 0 0 1-.46.627c-.252.248-.458.364-.537.685-.132.533-.027 1.39-.027 2.097 0 .074.09.102.271.04.236-.08.488-.185.68-.303.131-.08.234-.191.285-.206.299-.09 1.066-.192 1.347.096.111.113.191.45-.01.65-.422.422-1.088.593-1.479.986-.072.072-.257.227-.276.27-.055.13-.042.343-.042.52 0 .642-.445.91-.921 1.147-.673.335-1.518.483-2.2.483-.514 0-.766-.018-.905-.145-.178-.163-.148-.477-.018-.857.084-.243.173-.553.319-.835.115-.222.347-.276.581-.406.183-.101.359-.296.541-.342.262-.067.453-.171.592-.334.06-.07.202-.11.244-.195.042-.084.063-.22.012-.307a1.71 1.71 0 0 1-.193-1.102c.015-.098.106-.117.125-.222.025-.134-.021-.354.01-.493.087-.385.151-.735.276-1.083.018-.049.155-.198.166-.295.01-.097-.109-.154-.146-.134-.026.014-.09 0-.142.037-.093.065-.201.195-.358.261-.245.105-.558.17-.881.007-.23-.114-.157-.383-.003-.649.051-.089.08-.214.151-.284.119-.116.252-.064.373-.159.144-.113.28-.242.364-.27.538-.185.928-.912 1.439-1.17.397-.2.914-.612 1.323-.816l.945-.47.437-.386.569-.429c.178-.134.958-.6 1.045-.925.045-.17-.147-.35-.597-.174-.057.023-.141.003-.198.026a9.505 9.505 0 0 0-.696.32c-.069.036-.191.011-.26.048-.105.057-.209.152-.312.214a12.41 12.41 0 0 0-.454.291c-.118.08-.242.082-.357.163-.068.049-.189.115-.256.164-.179.13-.381.393-.554.523-.781.585-1.408.565-1.909.143-.167-.14-.178-.233-.284-.498-.175-.437-.127-.784.413-.706.255.037.677.05.997-.01.593-.11 1.129-.169 1.3-.236.341-.132.746-.238 1.089-.38.211-.088.416-.136.623-.216.108-.042.216-.125.326-.16.133-.04.268-.075.406-.1.14-.023.283-.037.433-.037Zm-10.989 2.744c-.416.082-.466 1.285-.138 1.744 1.018 1.427 3.36-1.177 3.513-1.582.01-.026-.051-.065-.076-.053-.786.364-1.59.62-2.194.554-.436-.048-.563-.653-1.105-.663ZM112.683 74.485h-2.204v-.195h.189c.188 0 .319-.046.393-.14.073-.092.11-.256.11-.49v-.904l-1.178-1.618a7.9 7.9 0 0 0-.28-.364.475.475 0 0 0-.157-.13.569.569 0 0 0-.208-.03v-.193h1.858v.192c-.25 0-.375.06-.375.177 0 .04.02.095.059.163.04.07.114.178.223.325l.762 1.07.75-1.004c.19-.26.286-.434.286-.524 0-.076-.032-.13-.094-.16a.7.7 0 0 0-.296-.046h-.125v-.193h1.573v.192a.764.764 0 0 0-.449.13 1.864 1.864 0 0 0-.403.422l-1.137 1.552v.944c0 .166.016.294.049.385.033.09.09.154.172.19a.893.893 0 0 0 .349.054h.133v.195Zm-3.764-3.099h-.189c-.023-.237-.093-.406-.209-.504-.117-.1-.303-.149-.559-.149h-.546v2.928c0 .17.016.299.048.388a.31.31 0 0 0 .166.187.875.875 0 0 0 .35.054h.116v.195h-2.169v-.195h.148c.186 0 .322-.044.407-.13.086-.088.128-.254.128-.5v-2.927h-.454c-.271 0-.473.045-.605.135-.131.09-.217.263-.256.518h-.188l.026-.965h3.76l.026.965Zm-4.252 3.099h-2.205v-.195h.151c.229 0 .38-.045.454-.134.074-.088.11-.254.11-.495v-2.418c0-.168-.015-.296-.046-.385a.312.312 0 0 0-.164-.19.87.87 0 0 0-.354-.055h-.151v-.192h2.205v.192h-.122a.843.843 0 0 0-.342.054.314.314 0 0 0-.167.19c-.033.091-.05.22-.05.386v2.418c0 .166.017.294.05.385.033.09.088.154.167.19a.848.848 0 0 0 .342.054h.122v.195Zm-5.646-1.304h.186c.085.222.198.417.337.585.14.167.294.296.463.384.168.09.344.134.526.134a.762.762 0 0 0 .351-.078.566.566 0 0 0 .321-.518.685.685 0 0 0-.209-.489 1.26 1.26 0 0 0-.269-.208c-.118-.07-.297-.175-.54-.313a12.218 12.218 0 0 1-.54-.32 2.048 2.048 0 0 1-.312-.247 1.008 1.008 0 0 1-.209-1.137 1 1 0 0 1 .256-.332c.108-.093.237-.166.386-.218.15-.051.311-.077.483-.077.126 0 .238.009.336.027.098.018.201.043.31.078.108.034.197.059.264.076a.722.722 0 0 0 .161.025c.106 0 .179-.069.218-.206h.194v1.324h-.183a1.992 1.992 0 0 0-.315-.545 1.476 1.476 0 0 0-.428-.362.997.997 0 0 0-.481-.127.635.635 0 0 0-.423.134.439.439 0 0 0-.159.355c0 .136.053.258.16.368.06.058.177.135.352.233.174.096.341.187.5.272.159.085.317.177.474.274.157.098.284.197.381.297.134.138.228.278.283.42.054.144.081.296.081.458 0 .214-.055.409-.166.586-.11.177-.264.315-.46.415-.195.1-.41.15-.642.15-.159 0-.302-.018-.429-.051a6.314 6.314 0 0 1-.432-.135 1.265 1.265 0 0 0-.323-.084.308.308 0 0 0-.204.073.337.337 0 0 0-.113.19h-.186v-1.41Zm-3.726-.82h.476c.29 0 .513-.08.671-.24a.813.813 0 0 0 .237-.597.813.813 0 0 0-.063-.33.7.7 0 0 0-.178-.247.807.807 0 0 0-.281-.158 1.164 1.164 0 0 0-.374-.056c-.207 0-.37.027-.488.08v1.547Zm1.282.209 1.178 1.432c.08.096.168.165.265.207.097.042.23.069.398.08v.196h-1.253l-1.483-1.81h-.387v.986c0 .177.018.311.055.4.037.088.1.149.19.181s.23.048.418.048v.195h-2.123v-.195c.188 0 .326-.017.414-.05a.305.305 0 0 0 .185-.18c.035-.089.052-.222.052-.4v-2.49c0-.215-.045-.362-.135-.441-.09-.08-.231-.119-.423-.119a.94.94 0 0 0-.093.004v-.193h2.315c.203 0 .391.02.564.057.172.038.326.1.46.183a.88.88 0 0 1 .31.324c.072.132.108.29.108.473 0 .266-.094.502-.282.707-.188.206-.432.341-.733.405Zm-3.546-2.148v.94h-.177c-.081-.245-.175-.41-.282-.492-.107-.084-.255-.125-.445-.125h-1.213v1.438h1.05c.188 0 .322-.04.402-.121.079-.081.119-.227.119-.44h.195v1.475h-.195c0-.23-.037-.385-.11-.466-.072-.08-.21-.121-.411-.121h-1.05v1.256c0 .115.008.2.023.253.016.053.047.089.092.11.046.019.119.03.22.03h.89c.2 0 .367-.03.499-.09a.878.878 0 0 0 .334-.264c.092-.118.187-.282.286-.492h.19l-.332 1.172h-3.607v-.195c.163 0 .287-.016.37-.048a.298.298 0 0 0 .176-.181c.034-.089.05-.223.05-.4v-2.418c0-.176-.016-.309-.049-.4a.292.292 0 0 0-.174-.182 1.109 1.109 0 0 0-.373-.047v-.193h3.522Zm-5.765 4.177h-.194l-1.6-3.363a3.49 3.49 0 0 0-.213-.4.497.497 0 0 0-.171-.176.466.466 0 0 0-.221-.046v-.193h1.754v.192c-.25 0-.376.085-.376.255 0 .048.01.098.03.15.019.052.07.165.153.338l.984 2.062.802-2.038c.09-.225.134-.384.134-.476 0-.104-.03-.178-.09-.223-.06-.045-.159-.067-.297-.067v-.193h1.19v.192a.57.57 0 0 0-.244.084.647.647 0 0 0-.173.23c-.06.115-.137.294-.231.537L87.266 74.6Zm-2.786-.114h-2.205v-.195h.151c.229 0 .38-.045.454-.134.074-.088.11-.254.11-.495v-2.418c0-.168-.015-.296-.046-.385a.31.31 0 0 0-.165-.19.864.864 0 0 0-.353-.055h-.151v-.192h2.205v.192h-.123a.845.845 0 0 0-.341.054.316.316 0 0 0-.168.19c-.033.091-.05.22-.05.386v2.418c0 .166.017.294.05.385.033.09.089.154.168.19a.85.85 0 0 0 .341.054h.123v.195Zm-4.32-4.064h1.696v.192h-.187a.583.583 0 0 0-.293.062.349.349 0 0 0-.152.2c-.03.093-.046.216-.046.368v3.278h-.113l-3.086-3.182v2.322c0 .166.016.294.05.385.032.09.089.154.168.19.08.036.193.054.34.054h.177v.195h-1.753v-.195h.224c.17 0 .296-.044.376-.13.08-.088.121-.23.121-.43v-2.685a1.131 1.131 0 0 0-.33-.303.923.923 0 0 0-.391-.129v-.192h1.262l2.658 2.772v-2.016c0-.196-.038-.339-.113-.429-.076-.09-.202-.135-.378-.135h-.23v-.192Zm-8.578 0h2.194v.192h-.134a.89.89 0 0 0-.35.054.314.314 0 0 0-.171.19c-.033.091-.05.22-.05.386v1.8c0 .254.056.47.167.646.11.177.257.308.44.393.183.085.383.127.6.127.379 0 .695-.111.95-.334.255-.223.383-.519.383-.889v-1.81c0-.205-.042-.35-.126-.435-.083-.085-.207-.127-.372-.127h-.157v-.193h1.594v.192h-.09a.836.836 0 0 0-.34.054.323.323 0 0 0-.168.19c-.033.091-.05.22-.05.386v1.708c0 .367-.082.675-.246.923-.164.247-.383.43-.656.548-.274.118-.57.177-.89.177-.336 0-.645-.056-.928-.167a1.485 1.485 0 0 1-.672-.502 1.312 1.312 0 0 1-.247-.8v-1.96c0-.195-.04-.337-.12-.425-.079-.088-.213-.132-.404-.132h-.157v-.192Zm-3.785 4.064h-2.205v-.195h.152c.229 0 .38-.045.453-.134.074-.088.11-.254.11-.495v-2.418c0-.168-.014-.296-.046-.385a.311.311 0 0 0-.164-.19.864.864 0 0 0-.353-.055h-.152v-.192h2.205v.192h-.122a.845.845 0 0 0-.342.054.317.317 0 0 0-.167.19c-.033.091-.05.22-.05.386v2.418c0 .166.017.294.05.385.033.09.089.154.167.19a.85.85 0 0 0 .342.054h.122v.195Zm-3.02-4.064v.941H64.6c-.081-.245-.175-.41-.282-.492-.107-.084-.255-.125-.445-.125H62.66v1.438h1.05c.188 0 .322-.04.401-.121.08-.081.12-.227.12-.44h.195v1.475h-.195c0-.23-.037-.385-.11-.466-.072-.08-.21-.121-.411-.121h-1.05v1.256c0 .115.008.2.023.253.016.053.047.089.092.11a.59.59 0 0 0 .22.03h.89c.201 0 .368-.03.498-.09a.878.878 0 0 0 .335-.264c.092-.118.187-.282.286-.492h.19l-.332 1.172h-3.607v-.195c.163 0 .287-.016.37-.048a.298.298 0 0 0 .176-.181c.034-.089.05-.223.05-.4v-2.418c0-.176-.016-.309-.049-.4a.294.294 0 0 0-.174-.182 1.11 1.11 0 0 0-.373-.047v-.193h3.522Zm-6.288 2.155v1.522c.176.054.353.081.53.081.195 0 .364-.032.505-.096a.731.731 0 0 0 .442-.698.754.754 0 0 0-.138-.447.874.874 0 0 0-.392-.299 1.537 1.537 0 0 0-.59-.105 1.35 1.35 0 0 0-.357.042Zm0-1.831v1.468c.085.02.212.03.381.03.196 0 .367-.03.513-.09a.723.723 0 0 0 .333-.26.692.692 0 0 0 .114-.399.753.753 0 0 0-.115-.42.73.73 0 0 0-.332-.27 1.263 1.263 0 0 0-.508-.095c-.116 0-.245.012-.386.036Zm-1.5-.324h2.291c.273 0 .517.048.73.143.213.095.377.223.493.385a.9.9 0 0 1 .173.533c0 .156-.04.299-.116.427a.954.954 0 0 1-.328.323c-.14.085-.295.14-.463.161v.012c.21.02.4.076.565.17.166.092.295.21.387.353a.862.862 0 0 1 .138.475c0 .178-.049.349-.147.514-.098.165-.253.3-.465.407-.212.107-.483.16-.813.16h-2.446v-.194h.13c.148 0 .262-.018.341-.054a.32.32 0 0 0 .17-.19c.034-.091.051-.22.051-.385v-2.454c0-.204-.035-.354-.106-.45-.07-.096-.206-.144-.406-.144h-.18v-.192Zm-5.356 0h2.193v.192h-.134a.888.888 0 0 0-.349.054.314.314 0 0 0-.172.19c-.032.091-.049.22-.049.386v1.8c0 .254.055.47.166.646.11.177.257.308.44.393.184.085.384.127.601.127.378 0 .695-.111.95-.334.255-.223.382-.519.382-.889v-1.81c0-.205-.041-.35-.125-.435-.083-.085-.207-.127-.372-.127h-.157v-.193H56.6v.192h-.09a.834.834 0 0 0-.34.054.32.32 0 0 0-.168.19c-.034.091-.05.22-.05.386v1.708c0 .367-.083.675-.247.923-.163.247-.382.43-.656.548a2.22 2.22 0 0 1-.89.177c-.335 0-.644-.056-.927-.167a1.487 1.487 0 0 1-.672-.502 1.314 1.314 0 0 1-.247-.8v-1.96c0-.195-.04-.337-.12-.425-.079-.088-.214-.132-.404-.132h-.157v-.192Zm-3.848 2.16v1.08c0 .166.016.294.05.385.032.09.09.154.172.19.083.036.2.054.354.054h.128v.195H46.3v-.195h.114c.15 0 .264-.018.343-.054a.32.32 0 0 0 .17-.19c.034-.091.051-.22.051-.385v-2.472c0-.194-.038-.338-.113-.433-.076-.095-.21-.142-.402-.142h-.163v-.193h2.188v.192h-.128a.91.91 0 0 0-.354.054.312.312 0 0 0-.173.189 1.15 1.15 0 0 0-.05.38v.977h1.981v-1.03c0-.206-.04-.353-.122-.44-.081-.086-.206-.13-.375-.13h-.198v-.192h2.181v.192h-.177c-.188 0-.318.046-.391.137-.073.09-.11.253-.11.486v2.425c0 .162.017.29.05.381a.317.317 0 0 0 .168.194.851.851 0 0 0 .341.054h.12v.195H49.07v-.195h.134c.15 0 .264-.018.343-.054.08-.036.136-.1.169-.19.033-.091.05-.22.05-.385v-1.08h-1.981ZM37.14 70.15c-.01.006-.017.014-.026.022l-.002.01.027-.033ZM18.36 58.484c.202.09.252.1.283-.005.058.036.09.1.134.12-.04.06-.092.119-.134.179-.074-.112-.225-.225-.283-.294Zm.914-1.392c.198.198.457.349.666.56-.4-.057-.561.077-.666-.064-.068-.202-.157-.363 0-.496Zm-1.206.692c-.03-.116-.29-.136-.39.01-.097.159.27.65.27.65s.9.87.849 1c-.14.545.602.36.266-.248-.3-.183-.125-.196.07-.111.03-.06.047-.052.07-.138-.025-.061-.167-.248-.174-.332.035.013.033-.067.066-.047.052.03.15.144.219.158l.075-.23c-.005-.032-.642-.948-.658-.465-.025.437-.116-.57-.116-.57.255.23 1.208 1.08 1.069 1.473.108.091.196-.07.285-.208-.195-.421-.465-.706-.302-.775.202-.134.302-.215.693.1.207-.142.245-.249.245-.249-.515-.416-1.044-.741-1.423-1.276-.14-.255-.352-.5-.362-.442-.074.094-.083.144-.135.236.098.199-.08.252-.166.418.014.078.055.218.138.248.104-.103.157-.21.26-.312.051.1.199.177.25.28-.127.184-.325.29-.525.105-.06.037-.129.058-.165.138-.088-.108-.166-.182-.275-.181-.108.027-.123.206-.128.285.073.129.088.15.162.278.24.264.265.563.133.861-.02-.008-.326-.29-.301-.656ZM34.95 58.163c-.057 0-.071.082.015.146.13.067.286 0 .29-.042-.004-.099-.227-.15-.305-.104Zm1.563-1.391c-.004.037.794.234.802.296.11.035.31.24.275.237.009.157.004.273-.127.288 0 0-.2.035-.354.002-.154-.034-.893-.086-.893-.086.01.018-.188.19-.232.19-.033.023-.18.087-.18.087s-.13.121-.158.158c-.03.036.217.236.254.249.056.172.165.103-.05.316-.016.111-.464-.095-.546.103-.036.012-.19.067-.28.043a.554.554 0 0 1-.423-.599s.19-.357.375-.21c.186.148.313.055.35.019.036-.036.333-.299.333-.299s-.076-.078-.117-.086c-.232-.192.079-.411.178-.344.071.188.577.09.66.073.24.028.431.054.67.08.008-.029.02-.03.029-.06-.007-.053-.75-.24-.88-.236-.148-.535.229-.342.314-.221ZM22.814 55.048c-.234-.347.054-.65.365-.522.182.238-.033.465-.365.522Z"/><path d="M23.087 53.466c-.024-.019.238-.185.349-.035.075.227.44 1.546.66 1.553.122.198.052.187-.013.252-.23.026-.146.036-.23.008l-.446.414c-.23.1-.337-.055-.314-.164.268-.136.427-.23.564-.48-.162-.486-.41-1.001-.57-1.548ZM24.065 53.01l-.1.04a.633.633 0 0 0-.03.236c.192.534.325 1.114.599 1.614.089.134.216.176.327.16a1.46 1.46 0 0 0 .464-.214c.012-.16.092-.274-.083-.352-.1.051-.134.055-.215.136-.066.108-.113.079-.217.092a1.962 1.962 0 0 1-.209-.512c.159-.353.457-.658.382-1.008-.05-.099-.112-.178-.186-.18-.047.004-.146.068-.226.081.053.308.136.42-.05.524-.078.01-.151.078-.197-.034l-.259-.583ZM30.364 54.084c.126-.397.255-.586.488-1.097a.318.318 0 0 1 .131-.167c.091.007.183.011.242.077-.061.283-.226.522-.274.744.021.05.082.088.133.08a.82.82 0 0 0 .344-.345c.078-.022.087 0 .108.076-.121.433-.503.848-.842 1.064-.142.344-.401.626-.764.69-.16-.08-.19-.186-.054-.419.072-.04.084-.078.157-.119.073-.056.137-.13.082-.185a.537.537 0 0 0-.41.038c-.125-.057-.203-.142-.233-.258-.183-.27.711-.074.892-.18ZM30.739 54.824c.019-.015.387.034.56.138.134.146-.302.434-.463.425-.089-.042-.067-.127-.03-.22l.088-.111c-.05-.015-.234-.17-.155-.232ZM35.576 56.23c-.094.152.018.275.152.34-.267.13-.484.085-.55-.229.028-.268.228-.204.398-.111Z"/><path d="M27.443 77.242c-7.033 0-12.77-5.737-12.77-12.77 0-7.034 5.737-12.77 12.77-12.77 7.034 0 12.77 5.736 12.77 12.77 0 7.033-5.736 12.77-12.77 12.77Zm.01.664c7.41 0 13.453-6.044 13.453-13.453 0-7.41-6.043-13.453-13.453-13.453C20.044 51 14 57.044 14 64.453s6.044 13.453 13.453 13.453Z"/><path d="M27.503 73.792a9.189 9.189 0 0 1-6.513-2.706 9.192 9.192 0 0 1-2.707-6.515c0-5.078 4.143-9.22 9.22-9.22 5.078 0 9.221 4.142 9.221 9.22a9.197 9.197 0 0 1-2.706 6.515 9.192 9.192 0 0 1-6.515 2.706Zm0-.253a8.941 8.941 0 0 0 6.337-2.632 8.938 8.938 0 0 0 2.632-6.336c0-4.94-4.028-8.968-8.969-8.968-4.939 0-8.967 4.028-8.967 8.968a8.935 8.935 0 0 0 2.631 6.336 8.942 8.942 0 0 0 6.336 2.632Z"/><path d="M27.503 55.672c-4.907 0-8.899 3.992-8.899 8.9 0 2.37.929 4.603 2.611 6.287a8.843 8.843 0 0 0 6.288 2.612 8.843 8.843 0 0 0 6.29-2.612 8.843 8.843 0 0 0 2.61-6.288c0-4.907-3.992-8.9-8.9-8.9Zm0 17.936a8.974 8.974 0 0 1-6.385-2.652 8.972 8.972 0 0 1-2.652-6.385c0-4.983 4.055-9.037 9.037-9.037 4.984 0 9.038 4.054 9.038 9.037a8.973 8.973 0 0 1-2.652 6.385 8.973 8.973 0 0 1-6.386 2.652Zm0-18.189c-5.045 0-9.151 4.106-9.151 9.152 0 2.438.954 4.734 2.686 6.466a9.088 9.088 0 0 0 6.465 2.685 9.088 9.088 0 0 0 6.467-2.685 9.088 9.088 0 0 0 2.686-6.466c0-5.046-4.106-9.151-9.152-9.151Zm0 18.442a9.226 9.226 0 0 1-6.562-2.726 9.22 9.22 0 0 1-2.726-6.564c0-5.122 4.166-9.288 9.288-9.288 5.124 0 9.29 4.166 9.29 9.288a9.228 9.228 0 0 1-2.726 6.564 9.227 9.227 0 0 1-6.564 2.725Z"/><path d="M30.227 69.928v1.437h-.397v-.942a1.11 1.11 0 0 1-.186.118c-.06.031-.135.06-.227.088v-.323a.965.965 0 0 0 .312-.155.648.648 0 0 0 .174-.223h.324Zm-1.957.433-.371-.067a.468.468 0 0 1 .177-.271.637.637 0 0 1 .373-.095c.185 0 .318.034.4.103a.324.324 0 0 1 .074.424.427.427 0 0 1-.152.13c.055.015.096.03.125.048a.303.303 0 0 1 .11.115c.026.047.04.103.04.169 0 .082-.024.16-.066.237a.439.439 0 0 1-.186.174.712.712 0 0 1-.318.061.844.844 0 0 1-.306-.045.467.467 0 0 1-.183-.132.623.623 0 0 1-.11-.22l.393-.051c.015.078.04.132.07.163a.18.18 0 0 0 .125.046.166.166 0 0 0 .131-.058.218.218 0 0 0 .054-.154c0-.066-.017-.117-.052-.152a.177.177 0 0 0-.137-.055.492.492 0 0 0-.126.024l.02-.28c.021.002.039.005.05.005a.178.178 0 0 0 .129-.05.152.152 0 0 0 .051-.116.138.138 0 0 0-.038-.104.142.142 0 0 0-.106-.038.158.158 0 0 0-.113.041c-.029.028-.048.078-.058.148Zm-1.09.057a.262.262 0 0 0-.057-.18.18.18 0 0 0-.14-.066.164.164 0 0 0-.13.06c-.035.038-.053.097-.053.175 0 .08.02.14.054.182a.18.18 0 0 0 .27.002c.038-.04.057-.098.057-.173Zm-.721.63.39-.049c.01.054.026.093.051.116a.127.127 0 0 0 .09.033c.063 0 .112-.032.147-.095a.944.944 0 0 0 .059-.298.48.48 0 0 1-.145.106.412.412 0 0 1-.172.033.429.429 0 0 1-.32-.134.473.473 0 0 1-.13-.341c0-.094.02-.18.065-.257a.439.439 0 0 1 .184-.176.648.648 0 0 1 .292-.058c.142 0 .255.025.34.073a.507.507 0 0 1 .206.23c.05.106.077.246.077.42 0 .254-.054.442-.162.56a.574.574 0 0 1-.446.178.715.715 0 0 1-.266-.04.408.408 0 0 1-.162-.114.491.491 0 0 1-.098-.187Zm-.578-1.12v1.437h-.396v-.942a1.167 1.167 0 0 1-.413.206v-.323a.99.99 0 0 0 .312-.155.66.66 0 0 0 .173-.223h.324ZM29.392 64.674s-.214.035-.312.127c0 0-.11.072-.054.13 0 0 .263.014.405-.098 0 0 .18-.126-.039-.16Z"/><path d="M29.392 64.674s-.214.035-.312.127c0 0-.11.072-.054.13 0 0 .263.014.405-.098 0 0 .18-.126-.039-.16Z"/><path d="M29.392 64.674s-.214.035-.312.127c0 0-.11.072-.054.13 0 0 .263.014.405-.098 0 0 .18-.126-.039-.16ZM28.276 65.455s.292-.029.402-.14c0 0 .099-.093.134 0 0 0 .012.096.17.115v.197s-.453-.12-.706.088v-.26ZM28.56 61.066s-.37.177-.11.602c0 0 .21.144.394-.04 0 0 .054-.066 0-.168 0 0-.062-.09-.11.035 0 0 .035.067-.068.067 0 0-.167.011-.167-.167 0 0 .053-.183.207-.164 0 0 .225-.027.276.118v-.283s-.264-.118-.421 0ZM28.982 65.056v-2.365c-.221-.28-.705-.336-.705-.336v.148c.69.307.488 1.042.488 1.042-.07.225-.488.8-.488.8v.768c.127-.059.346-.19.346-.19.205-.055.358.133.358.133Z"/><path d="m27.014 61.004-.166-.153c-.106-.071-.129.13-.129.13-.036.65-.544 1.676-.544 1.676-.082.201-.248.06-.248.06-.212-.048-.058-.307-.058-.307.778-1.028.613-1.641.613-1.641-.023-.154.012-.32.012-.32.047-.365-.141-.542-.141-.542-.048-.272.117-.095.117-.095.095.154.236.355.236.355 0 .07.013.295.013.295.047.083.152.283.152.283.284.236.143.26.143.26Zm-2.55-.755s-.178.236-.271.307c0 0-.213.082-.096-.118 0 0 .308-.083.096-.319 0 0-.177-.19-.272.059 0 0-.012.107.012.236 0 0-.083.154-.13-.07 0 0-.166-.567-.036-.803 0 0 .142.012.142.165 0 0 .06.307.188.082 0 0 .072-.318.072-.472 0 0 0-.118.117-.2 0 0 .13-.237.177-.355 0 0 .142-.177.13.047 0 0-.153.19-.082.45 0 0 .012.105-.083.164 0 0-.212.296-.154.473 0 0 .084.26.225-.024 0 0 .26-.377.272-.106 0 0-.248.366-.308.484Zm-.39 1.64-.013.474s-.07.282-.2-.013c0 0-.047-.318.048-.449 0 0 .012-.578-.307-.27 0 0-.248.59-.248.99 0 0-.154.367-.236.024 0 0 .189-.85.224-.956 0 0 .012-.248.106-.366 0 0 .26-.224.366-.448 0 0 .213-.19.177.094 0 0-.247.33-.022.484 0 0 .2.201.106.437ZM22.93 66.99s-.095.154-.17 0v-.028a.109.109 0 0 0-.005-.029.146.146 0 0 0-.03-.066c-.026-.031-.071-.058-.146-.058 0 0-.008-.025.006-.043.01-.013.026-.021.06-.021l.009-.007a.169.169 0 0 0 .029-.026.339.339 0 0 0 .064-.136s.083-.188.183 0v.414Zm5.253-10.914h-.855s-.1.005-.1.1v.325s-.012.095-.095.095h-.674s-.082.016-.082.082v.236s.024.097.098.097h.663s.09-.009.09.089v.15s-.012.074-.075.074h-.675s-.101.009-.101.1v.186s-.006.083.082.083h.704s.064 0 .064.065v.425s.006.071-.07.071h-3.01s-.15-.04-.198.197c-.047.236-1.043 4.194-1.043 4.194s-.14 1.063.52 1.464c0 0 .19.284-.141.142l-.248-.13s-.137-.124-.238.107c0 0-.258.495-.08.92l.164.509s.059.258-.095.105c0 0-.26-.283-.272-.401 0 0-.082-.166-.13 0-.046.165 0 .283-.106.413 0 0 .024.306-.07.483 0 0-.06.201.082.154 0 0 .224-.259.235-.059 0 0-.14.201-.164.283 0 0 .036.131-.13.118 0 0-.2-.011-.2.332 0 0-.036.152.13.093 0 0 .248-.2.188.012 0 0-.118.12-.047.249 0 0 .19.165-.082.142 0 0-.295-.249-.26.046 0 0 .46.355.637.45 0 0 .107-.013.107.093 0 0-.06.508-.012.638 0 0 0 .141-.119.165l-.117-.024-.011-.72s.01-.13-.107-.13l-.354-.224s-.212.012-.106.142c0 0 .259.118.106.212 0 0-.142.13.022.154 0 0 .343.142-.022.118 0 0-.366-.023-.296.201l-.317 1.772.026-.02a9.405 9.405 0 0 1 6.878-2.188v-2.55c-.152.058-.672.081-.672.081-1.251.13-2.125-1.027-2.125-1.027-.555-.968.011-1.853.011-1.853.52-.39.473.2.473.2-.076.078-.165.697-.165.697 0 1.594 1.345 1.77 1.345 1.77h.78c.083 0 .353-.129.353-.129v-.342c-.59.318-1.38.059-1.38.059-.969-.165-.944-1.31-.944-1.31.058-.225.188.094.188.094.85 1.11 2.137.39 2.137.39v-1.843c0-.008-.188.048-.188.048-.131 0-.19.355-.19.355 0 .118.177.059.177.059.216 0 .016.173.016.173a.275.275 0 0 1-.343-.103c-.106-.39.225-.63.225-.63.1-.1.303-.05.303-.05V56.17s.012-.094-.095-.094ZM29.392 64.674s-.214.035-.312.127c0 0-.11.072-.054.13 0 0 .263.014.405-.098 0 0 .18-.126-.039-.16Z"/><path d="M29.43 64.833c-.142.113-.404.098-.404.098-.058-.059.054-.13.054-.13.098-.092.312-.127.312-.127.218.033.039.16.039.16Z"/><path d="M31.984 67.198c-.025-.033-.036-.06-.036-.06-.082-.154 0-.419 0-.419a.273.273 0 0 0 .067-.128c.016-.073.005-.137.005-.137.082-.177.135.04.135.04 0 .054.01.083.022.1.013.017.028.02.038.02l.01-.001c.035.033.05.063.056.09a.08.08 0 0 1 .003.02.111.111 0 0 1-.023.074.202.202 0 0 1-.024.026l-.006.004-.005.005c0 .05-.037.091-.065.113a.223.223 0 0 1-.03.022.15.15 0 0 0-.021.137.165.165 0 0 0 .028.052.267.267 0 0 0 .056.056c.042.087.021.108-.011.108a.31.31 0 0 1-.199-.122Zm-.738-5.42c-.284.284-.224.626-.224.626-.06.217-.194.036-.194.036-.08-.184 0-.507 0-.507a.91.91 0 0 1 .304-.303c.101-.182 0-.165 0-.215 0-.05-.193-.191-.193-.191-.165-.32.166-.165.166-.165.56.336.596.866.596.866.1.226.182 1.087.182 1.087-.042.33-.154 0-.154 0-.146-.419-.224-1.163-.224-1.163-.118-.212-.259-.07-.259-.07Zm-.596-1.558c-.083-.301 0-.561 0-.561.15-.15 0-.378 0-.378-.071-.182-.31-.392-.31-.392-.18-.275.133-.132.133-.132.04.153.365.465.365.465.131.307-.028.467-.028.467-.101.278 0 .419 0 .419.064.177.047.2.047.2.03.225-.1.101-.1.101-.066-.064-.107-.19-.107-.19Zm-.16.018s-.123.165-.123-.047c0 0 .004-.164.046-.201 0 0 .13-.142.13.047 0 0 .015.133-.052.2Zm-.153-.951c-.036.106-.053.343-.053.343-.208.206-.219-.065-.219-.065.041-.248.142-.372.142-.372.2-.148.13.094.13.094Zm.624-.398.011-.045a.446.446 0 0 1 .014-.04c.037-.037.06-.047.075-.044a.03.03 0 0 1 .012.007c.012.013.014.036.014.036.037.038.124.307.124.307a.18.18 0 0 1-.031.063c-.052.057-.129-.016-.129-.016-.086-.05-.101-.138-.097-.214a.39.39 0 0 1 .007-.054Zm2.235 9.776c0-.216-.087-.087-.087-.087-.145.264-.29.292-.29.292-.272.137-.091-.091-.091-.091.085 0 .102-.102.102-.102 0-.158.063-.158.063-.158.134-.133 0-.251 0-.251-.201-.099-.095-.197-.095-.197.197-.09.193.09.193.09 0 .162.098.099.098.099v-.276c.04-.212-.196-.134-.196-.134-.047.048-.354.252-.354.252-.11.031-.11.11-.11.11v.269c-.04.25-.173.046-.173.046 0-.15-.064-.322-.064-.322-.164-.08 0-.157 0-.157.654-.324.693-.426.693-.426.244-.243-.06-.146-.06-.146-.145.08-.078-.078-.078-.078 0-.122-.121-.122-.121-.122-.12-.119 0-.157 0-.157.074.074.22.055.22.055.188.078.03-.22.03-.22 0-.253-.102-.229-.102-.229-.188-.054-.216-.216-.216-.216-.114-.162.115-.114.115-.114.15-.04.046-.283.046-.283-.097-.1-.093-.497-.093-.497-.047-.173-.198 0-.198 0-.133.055-.338.417-.338.417-.228.118 0-.267 0-.267.322-.528.063-1.323.063-1.323-.015-.165-.236-.085-.236-.085-.08.078-.283.133-.283.133-.165-.048.038-.173.038-.173.187-.106.331-.41.331-.41.205-.204.047-.842.047-.842l-.37-2.188c0-.196-.148-.276-.148-.276-.308-.235-.45-.707-.45-.707 0-.22.174 0 .174 0 0 .141.284.542.284.542.149.064.03-.157.03-.157-.134-.284-.321-1.66-.321-1.66-.065-.142-.253-.252-.253-.252-.913-.283-1.818.03-1.818.03-.216.147-.197.268-.197.268v2.401c.071.025.187.11.187.11.284.207.514.939.514.939a1.545 1.545 0 0 1-.18 1.283c-.086.157-.121-.12-.121-.12-.036-.225-.201-.496-.201-.496-.095-.218 0-.39 0-.39.26-.667-.198-1.043-.198-1.043l-.001 1.468s.382.241.217 1.133c0 0-.044.227.091.092 0 0 .416-.481.575-1.384 0 0 .034-.614-.424-1.434 0 0-.319-.674-.319-.773 0 0-.118-.367.036-.656 0 0 .235-.443.636-.142 0 0 .3.258.101.455 0 0-.02.086.042.147 0 0 .07.148-.06.154 0 0-.141.047-.147-.106 0 0-.041-.083-.154-.09 0 0-.141.025-.176-.123 0 0-.03-.141.07-.171 0 0 .071-.017.09.059 0 0-.072.242.14.136 0 0 .184-.088.066-.278 0 0-.112-.236-.355-.13 0 0-.247.16-.135.644 0 0 .14.62.395.998 0 0 .436.708.436 1.198 0 0-.005.944-.678 1.623 0 0-.237.319-.278.319 0 0-.12.165-.17 0l.001.942s.102.02.279 0c0 0 .117.042-.05.13 0 0-.16.067-.229.067v2.722a9.436 9.436 0 0 1 4.537 2.057l-.322-1.741ZM21.398 70.453a.21.21 0 0 0-.026.021l-.002.01.028-.03ZM17.956 68.254c.041-.013.066-.027.077-.042.011-.015.014-.034.01-.058l-.03-.144.075-.025a7.809 7.809 0 0 0 .281.816l-.076.027-.093-.18c-.012-.023-.027-.037-.043-.04-.015-.003-.041.002-.077.015l-1.374.472c-.041.014-.069.028-.081.042-.012.014-.017.039-.012.076l.03.22-.074.026a4.38 4.38 0 0 0-.058-.196c-.025-.08-.053-.161-.08-.241a19.431 19.431 0 0 1-.04-.119l-.044-.12a6.41 6.41 0 0 0-.041-.109l-.037-.087.075-.025.084.154c.011.02.03.033.05.034a.338.338 0 0 0 .102-.023l.614-.21-.304-.887-.615.21a.298.298 0 0 0-.094.046c-.016.015-.022.035-.016.061l.027.173-.075.026c-.007-.026-.014-.056-.026-.092a2.666 2.666 0 0 0-.032-.11l-.04-.123a5 5 0 0 0-.043-.121 7.356 7.356 0 0 0-.158-.427l.075-.025.112.193c.015.029.033.044.052.048.022.004.052 0 .092-.015l1.377-.473a.182.182 0 0 0 .076-.041c.01-.015.015-.034.01-.06l-.03-.142.076-.027c.008.038.025.097.05.175.026.08.052.163.082.248a5.453 5.453 0 0 0 .153.41l-.075.025-.098-.194c-.013-.023-.027-.036-.044-.04a.176.176 0 0 0-.077.014l-.63.216.306.886.631-.217Z"/><path d="m18.863 69.572-.073.046-.116-.143c-.023-.028-.048-.043-.076-.044a.21.21 0 0 0-.106.04l-.889.551c-.138.088-.222.188-.25.302-.03.114-.002.239.08.372.051.083.105.146.162.19.055.046.12.071.19.079a.553.553 0 0 0 .244-.04c.09-.035.196-.089.316-.163l.683-.424c.069-.044.087-.105.057-.183l-.066-.17.072-.045c.02.045.073.134.155.268.02.032.041.066.064.1.02.034.04.066.06.094.02.03.035.055.051.077a.379.379 0 0 0 .034.046l-.073.045-.125-.13c-.032-.033-.083-.027-.155.019l-.748.465c-.226.14-.426.198-.6.176-.174-.022-.328-.14-.46-.353-.145-.231-.208-.436-.19-.616.016-.18.113-.325.29-.434l.9-.56a.26.26 0 0 0 .082-.07c.013-.019.013-.042.001-.068l-.072-.163.072-.044a10.46 10.46 0 0 0 .317.526c.022.038.044.072.067.105.02.033.04.062.058.088.018.026.032.047.044.061Z"/><path d="M19.293 71.504a.357.357 0 0 0 .046.06c.022.027.056.063.101.113.079.083.163.124.25.12.086-.005.177-.05.27-.136.076-.07.11-.15.106-.237a.376.376 0 0 0-.101-.231.997.997 0 0 0-.177-.15l-.495.46Zm-.098.09-.462.43c-.056.052-.079.112-.07.178.01.067.05.139.12.214a.374.374 0 0 0 .278.133c.102 0 .2-.042.292-.13.225-.207.228-.428.01-.662l-.08-.08a1.752 1.752 0 0 0-.088-.082Zm.168-1.03.067-.062.128.125.335.327c.085.084.14.14.162.163.06.064.114.132.165.206.05.073.087.146.111.22.024.072.03.144.02.213a.334.334 0 0 1-.112.191.31.31 0 0 1-.122.072.407.407 0 0 1-.145.015.636.636 0 0 1-.303-.111 1.4 1.4 0 0 1 .12.205c.03.067.048.133.055.199a.448.448 0 0 1-.16.375.42.42 0 0 1-.22.108.62.62 0 0 1-.262-.015 1.001 1.001 0 0 1-.275-.123 1.237 1.237 0 0 1-.26-.215 41.88 41.88 0 0 1-.447-.486l-.166-.18.069-.064.129.087c.031.02.061.028.088.026.026 0 .06-.02.104-.06l1.011-.942.029-.026a.044.044 0 0 0 .01-.031.086.086 0 0 0-.014-.044.488.488 0 0 0-.043-.066l-.074-.107ZM21.39 74.01a2.712 2.712 0 0 0-.226.217 3.246 3.246 0 0 0-.19.21c-.1-.08-.203-.16-.311-.244a58.923 58.923 0 0 0-.369-.28l-.406-.302a16.858 16.858 0 0 0-.355-.258l.049-.065.175.113a.16.16 0 0 0 .072.026c.016 0 .038-.02.066-.056l.88-1.17a.216.216 0 0 0 .05-.092.078.078 0 0 0-.026-.065l-.156-.145.05-.068c.065.054.16.128.281.221l.416.316.382.286c.1.073.184.133.25.179-.02.02-.045.049-.073.083-.029.032-.055.068-.082.104a5.064 5.064 0 0 0-.079.108l-.064.095-.03-.023c.029-.073.048-.134.059-.182a.382.382 0 0 0 .007-.126.185.185 0 0 0-.034-.091.343.343 0 0 0-.07-.071l-.436-.328c-.028-.02-.053-.027-.073-.019a.209.209 0 0 0-.074.068l-.373.495.373.28a.307.307 0 0 0 .1.052c.032.01.064.003.095-.02l.179-.12.068.052c-.155.185-.3.379-.438.581l-.048-.036.046-.223a.18.18 0 0 0-.023-.132.4.4 0 0 0-.1-.108l-.317-.24-.396.526c-.026.036-.038.065-.035.088.003.024.023.052.067.083l.411.31a.366.366 0 0 0 .251.082.613.613 0 0 0 .176-.037c.067-.023.145-.06.233-.11l.048.037ZM21.611 74.558l.74-1.313c.017-.03.024-.053.022-.071-.003-.018-.016-.035-.04-.05l-.152-.118.038-.068c.015.015.198.122.55.32.105.059.188.103.253.133l-.04.071-.18-.07c-.026-.013-.047-.016-.062-.011-.015.006-.032.024-.05.055l-.741 1.312c-.018.032-.025.055-.02.07.003.013.018.028.043.044l.159.108-.051.09a2.556 2.556 0 0 0-.147-.094 15.382 15.382 0 0 0-.5-.282 2.923 2.923 0 0 0-.155-.078l.05-.09.174.081c.028.011.049.015.063.011.014-.004.03-.02.046-.05ZM25.222 74.221l-.021.082-.183-.02c-.035-.006-.064.001-.085.02a.223.223 0 0 0-.049.101l-.258 1.014c-.04.158-.032.29.028.391.057.102.163.174.317.213a.707.707 0 0 0 .247.025.348.348 0 0 0 .192-.077.526.526 0 0 0 .148-.197c.04-.087.08-.198.114-.336l.199-.779c.02-.078-.009-.135-.084-.17l-.166-.077.021-.083c.046.018.145.046.297.085l.115.03.11.026.088.02a.438.438 0 0 0 .057.009l-.021.082-.18-.005c-.046-.003-.078.037-.1.12l-.217.853c-.065.257-.169.438-.31.543-.142.105-.334.126-.576.064-.265-.067-.453-.17-.564-.313-.113-.141-.144-.313-.093-.514l.263-1.029a.262.262 0 0 0 .01-.104c-.004-.023-.02-.04-.046-.05l-.165-.068.021-.082a15.301 15.301 0 0 0 .468.128l.125.031c.042.011.082.022.12.03.04.01.075.017.104.023l.074.014Z"/><path d="M26.631 76.184c-.003.05.002.085.014.102.01.018.034.03.073.036l.238.043-.004.092a7.622 7.622 0 0 0-.785-.043l.005-.091.168-.021c.07-.009.114-.02.134-.036.02-.014.03-.045.034-.089l.065-1.22a.528.528 0 0 0-.02-.21c-.017-.045-.054-.075-.11-.088l-.177-.037.006-.11.544.03a.513.513 0 0 1 .06.007.175.175 0 0 1 .084.04.408.408 0 0 1 .042.042l1.061 1.247.053-.99c.003-.055-.004-.094-.019-.118a.113.113 0 0 0-.082-.045l-.225-.043.005-.097a10.256 10.256 0 0 0 .555.038c.072.003.122.003.151 0l-.006.097-.179.003c-.035.002-.056.017-.064.046a.505.505 0 0 0-.018.125l-.089 1.656-.072-.004-1.373-1.628-.069 1.266Z"/><path d="m29 76.274-.22-1.49c-.004-.035-.013-.059-.027-.07-.012-.013-.033-.019-.061-.015h-.193l-.011-.078c.02.003.23-.025.63-.084.119-.017.213-.034.28-.05l.013.08-.185.055c-.028.007-.046.016-.055.03-.01.014-.012.039-.005.075l.218 1.49c.006.037.015.059.026.066.012.01.032.012.063.01l.191-.013.015.102a8.44 8.44 0 0 0-.458.055c-.114.017-.207.032-.283.045a2.522 2.522 0 0 0-.17.034l-.016-.101.187-.044c.03-.007.048-.018.057-.03.01-.01.01-.033.005-.067Z"/><path d="m31.366 73.927-.146.077a.14.14 0 0 0-.064.056.172.172 0 0 0-.025.078l-.117 1.885-.097.03-1.225-1.392a.329.329 0 0 0-.088-.082.163.163 0 0 0-.08-.013l-.144.01-.028-.087a5.8 5.8 0 0 0 .4-.122l.288-.094a4.25 4.25 0 0 0 .207-.077l.03.087-.066.034c-.07.035-.103.071-.102.109.002.037.03.09.085.155l.742.893.05-1.171c0-.042 0-.077-.003-.104-.002-.027-.012-.046-.027-.058a.118.118 0 0 0-.07-.017.783.783 0 0 0-.13.018l-.12.023-.028-.086c.029-.006.074-.017.14-.038l.244-.078c.189-.06.303-.101.346-.122l.028.086Z"/><path d="M33.538 74.118c.012.046.027.096.046.145.017.052.038.102.057.15.02.05.04.097.06.142.02.046.039.085.054.117-.114.058-.23.12-.35.184l-.407.22-.444.245c-.143.08-.272.153-.382.217l-.038-.07.175-.115a.147.147 0 0 0 .053-.052c.007-.016-.002-.044-.023-.085l-.703-1.284a.23.23 0 0 0-.064-.083c-.02-.013-.043-.014-.07-.003l-.197.083-.04-.074c.076-.038.183-.093.318-.165.135-.074.288-.156.458-.25l.419-.23c.107-.06.197-.112.265-.155.011.03.026.063.046.102l.06.119.067.115.06.097-.034.019a1.255 1.255 0 0 0-.14-.129.39.39 0 0 0-.114-.06.206.206 0 0 0-.096-.005.365.365 0 0 0-.094.035l-.478.263c-.03.016-.045.035-.047.058a.188.188 0 0 0 .032.095l.295.542.41-.223a.307.307 0 0 0 .09-.07.11.11 0 0 0 .021-.094l-.037-.212.075-.04c.106.216.222.428.349.637l-.052.03-.185-.135a.179.179 0 0 0-.128-.033.389.389 0 0 0-.142.045l-.347.19.315.58c.022.038.044.06.065.068.024.007.058-.001.104-.027l.452-.247a.37.37 0 0 0 .178-.194.64.64 0 0 0 .038-.177c.008-.07.006-.156-.003-.257l.053-.03ZM33.923 73.257a.983.983 0 0 0 .192-.175.509.509 0 0 0 .087-.162.265.265 0 0 0-.001-.147.407.407 0 0 0-.072-.135.433.433 0 0 0-.252-.175c-.09-.015-.197.025-.319.122a.584.584 0 0 0-.048.04c-.021.016-.038.032-.05.045l.463.587Zm.099 1.148.065-.075c.042-.041.066-.074.07-.1.004-.025-.013-.063-.054-.115l-.835-1.058-.053-.06a.113.113 0 0 0-.051-.034.115.115 0 0 0-.062.003.323.323 0 0 0-.086.043l-.054.035a.485.485 0 0 0-.03-.037c-.01-.01-.02-.023-.03-.036l.073-.058a.451.451 0 0 0 .056-.05.327.327 0 0 1 .048-.043l.35-.303.044-.038.043-.035c.083-.066.166-.122.251-.17a.837.837 0 0 1 .245-.095.489.489 0 0 1 .229.012c.072.024.136.07.194.144a.428.428 0 0 1 .077.139c.013.044.018.09.015.139a.501.501 0 0 1-.035.148 1.853 1.853 0 0 1-.073.17l.59.229c.09.035.163.059.216.071a.426.426 0 0 0 .14.015.283.283 0 0 0 .111-.031l.12-.066.055.069a.724.724 0 0 0-.054.039l-.058.045-.302.239a4.087 4.087 0 0 0-.134.109l-.856-.378a.243.243 0 0 0-.093-.015.147.147 0 0 0-.083.035l-.074.058.402.51c.03.037.06.06.088.064a.2.2 0 0 0 .112-.022l.139-.064.055.07a5.49 5.49 0 0 0-.188.136l-.193.148c-.06.05-.122.098-.18.147l-.156.134-.054-.068ZM35.541 71.258a.507.507 0 0 0-.308-.093.41.41 0 0 0-.254.142.374.374 0 0 0-.106.208.209.209 0 0 0 .068.197.232.232 0 0 0 .112.063c.04.008.082.007.126-.004a.777.777 0 0 0 .145-.05l.171-.075c.093-.042.175-.074.247-.096a.655.655 0 0 1 .204-.03.44.44 0 0 1 .184.046c.06.028.121.072.185.131a.576.576 0 0 1 .147.21c.029.075.042.154.034.236a.684.684 0 0 1-.068.247.992.992 0 0 1-.168.24c-.135.142-.292.24-.472.291l-.328-.354.046-.049a.506.506 0 0 0 .352.12.491.491 0 0 0 .178-.04.49.49 0 0 0 .281-.358.263.263 0 0 0-.081-.238.331.331 0 0 0-.139-.084.308.308 0 0 0-.142-.001.988.988 0 0 0-.171.06l-.216.095a1.15 1.15 0 0 1-.242.08.578.578 0 0 1-.191.009.432.432 0 0 1-.155-.05.701.701 0 0 1-.13-.095.493.493 0 0 1-.136-.209.476.476 0 0 1-.015-.222.636.636 0 0 1 .078-.218.887.887 0 0 1 .138-.187.711.711 0 0 1 .398-.229l.266.268-.038.04ZM36.906 71.516l-1.2-.91c-.029-.021-.052-.032-.07-.03-.016 0-.035.01-.053.031l-.138.137-.062-.049c.016-.011.146-.178.39-.501.073-.095.129-.173.167-.233l.065.05-.095.168c-.015.024-.021.044-.018.06.002.017.02.036.048.058l1.2.91c.03.023.051.032.064.03.015-.001.032-.014.053-.036l.126-.143.082.062a8.285 8.285 0 0 0-.288.36 16.58 16.58 0 0 0-.17.23c-.044.06-.077.11-.098.144l-.082-.063.103-.161c.015-.026.022-.046.02-.061-.002-.014-.017-.032-.044-.053ZM35.964 69.87c-.04-.04-.057-.064-.049-.076.008-.011.035-.017.081-.017h.054a.08.08 0 0 0 .035-.014.152.152 0 0 0 .028-.03l.029-.048.575-1.023.042-.08a.13.13 0 0 0 .014-.053.103.103 0 0 0-.008-.042.413.413 0 0 0-.026-.042c-.024-.035-.034-.06-.024-.074.012-.022.035-.024.07-.004l.47.272a.067.067 0 0 1 .03.026c.004.01.003.019-.003.024-.009.007-.022.01-.04.01a.326.326 0 0 1-.088-.02 1.07 1.07 0 0 0-.105-.023.183.183 0 0 0-.162.05.476.476 0 0 0-.077.106l-.151.27 1.278.72c.046.026.08.037.104.035.023-.001.05-.019.078-.05l.161-.181.07.038a2.218 2.218 0 0 0-.09.144 11.98 11.98 0 0 0-.12.208l-.172.306-.107.193a.83.83 0 0 0-.051.108l-.07-.039.077-.221c.019-.056.024-.099.01-.127a.195.195 0 0 0-.083-.078l-1.277-.718-.154.275a.295.295 0 0 0-.035.076.193.193 0 0 0-.002.085.464.464 0 0 0 .033.111c.016.041.04.093.07.154.02.044.03.074.033.092.001.017-.002.025-.013.025-.009-.001-.024-.009-.042-.023a1.155 1.155 0 0 1-.062-.05l-.33-.295Z"/><path d="m38.93 67.785.083-.15.08.026a11.81 11.81 0 0 0-.178.535l-.058.193c-.021.071-.04.139-.056.204l-.075-.025.02-.186a.19.19 0 0 0-.009-.093.082.082 0 0 0-.054-.051l-.454-.142a.14.14 0 0 0-.072-.008.66.66 0 0 0-.089.015l-.878.213a.69.69 0 0 0-.166.06.181.181 0 0 0-.073.069l-.058.122-.08-.026c.016-.035.056-.153.12-.356l.048-.15a3.89 3.89 0 0 0 .044-.148l.036-.126c.01-.037.019-.065.022-.086l.082.026-.004.104c-.007.055.004.087.03.095a.047.047 0 0 0 .035-.001l.846-.195-.256-.291a25.93 25.93 0 0 1-.256-.293.3.3 0 0 0-.05-.046.23.23 0 0 0-.041-.021c-.03-.01-.059.008-.086.053l-.072.127-.081-.025c.012-.017.044-.11.098-.281.026-.087.048-.158.063-.214a.855.855 0 0 0 .028-.117l.08.025-.007.107a.362.362 0 0 0 .028.13c.02.053.063.117.13.188l.5.573c.016.022.038.041.065.056a.776.776 0 0 0 .133.051l.446.14c.056.017.102-.01.137-.081Z"/></g><defs><filter id="a" x="-13" y="0" width="154" height="157" filterUnits="userSpaceOnUse" color-interpolation-filters="sRGB"><feFlood flood-opacity="0" result="BackgroundImageFix"/><feColorMatrix in="SourceAlpha" values="0 0 0 0 0 0 0 0 0 0 0 0 0 0 0 0 0 0 127 0" result="hardAlpha"/><feOffset dy="16"/><feGaussianBlur stdDeviation="6.5"/><feColorMatrix values="0 0 0 0 0 0 0 0 0 0 0 0 0 0 0 0 0 0 0.03 0"/><feBlend in2="BackgroundImageFix" result="effect1_dropShadow_49_3761"/><feBlend in="SourceGraphic" in2="effect1_dropShadow_49_3761" result="shape"/></filter></defs></svg>