<svg width="128" height="137" fill="none" xmlns="http://www.w3.org/2000/svg"><g filter="url(#a)" clip-rule="evenodd"><path fill-rule="evenodd" d="M64 20c24.234 0 44 19.766 44 44s-19.766 44-44 44-44-19.766-44-44 19.766-44 44-44Z" fill="#00A0E9"/><path fill-rule="evenodd" d="M64 34.494c16.25 0 29.505 13.254 29.505 29.506 0 16.251-13.254 29.506-29.506 29.506-16.251 0-29.506-13.255-29.506-29.506 0-16.252 13.255-29.506 29.506-29.506ZM25.326 67.245c.008.205.345.245.746.38.24.083.486.302.747.328 1.751.322 2.218-.348 2.87-1.698l1.164-.091c.512-.288.837-.715 1.136-1.162-.106-.88-.046-1.67.179-2.37l-.363-.72c-.25.021-.676.019-.904-.08-.196.864-.197 1.267-.264 1.726.323 1.075-.003 1.68-.67 1.6.096-.654.094-1.082-.548-2.118-.56.075-1.093.003-1.568-.39l-1.456-1.626c-.865.395-1.517 1.04-2.19 1.71-1.352-.294-2.245.219-2.616 1.187.942-.105 1.773-.221 2.259.196.521.936 1.202 1.658 2.041 2.167.732-.359 1.503-.601 2.15.194-.913.63-2.443.516-2.713.767Zm-.238-3.807c.162.301.473.448.932.44l.976.038a.846.846 0 0 0 .08-.75l-.887-.841c-.193-.345-.66-.208-1.02.383-.09.248.01.483-.08.73Zm2.468 1.316.302-.164.014-.38c-.165.007-.167-.138-.332-.132.06.175-.044.501.016.676Zm.757-.11.259-.227.003-.627-.26.226-.002.628ZM29.238 43.632c-.015-.245.072-.469.096-.748.026-.318-.003-.694.119-.973.134-.465.515-.638.923-.639.214 0 .45.11.647.187.78.722 1.295 1.596 1.789 2.564.613-.215.919-.946 1.354-1.439.132-.15.61-.83 1.078-1 .281-.101.453.1.596.47.096.249-.624.939-.662 1.168.58.681 1.177 1.037 1.643 2.311-.285.486-.61 1.15-1.082 1.609-.333.325-.528.751-.786 1.03a2.306 2.306 0 0 0-1.874-.692c-.31.158-.634.172-1.004-.26-.2-.526.469-1.265.964-1.962l-.645-.075c-.434-.493-.731-1.038-1.163-1.817-.303.233-.789.105-.877-.215-.08-.292-.504.354-1.116.48Zm4.064 3.214c.446-.918.606-1.52 1.158-2.126.577.107.898.405.965.898-.659 1.133-1.367 1.543-2.123 1.228ZM98.69 42.996c-.785.474-1.596.642-2.325.992-.658.316-1.281.41-1.894.306-.17-.431-.3-.786-.258-1.279-.057-.416-.884-.627-1.506-.458-.056.08.4.358.29.881-.129.615.105 1.19.444 1.558-.713.152-1.388-.06-2.057-.323-1.169-.151-1.112.403 1.64 2.512 1.032.043 1.89-.14 2.865-.459.876.998 2.162 2.404 2.582 2.527.359-.34.002-.993.02-1.535-.293-.273-.585-.428-.942-.611-.398-.205-.878-.366-.925-.767.893-.49 1.788-.439 2.382-1.108.356-.402.634-.903.804-1.467-.222-.513-.69-.099-1.12-.77Zm-5.1 4.584c.742 1.137 1.335 2.258.781 3.42-.429.657-.74.21-1.075-.015-.267-.53-.625-1.096-.36-1.45.41-.549.222-1.35.655-1.955ZM105.49 61.212c-.715-.293-1.241.078-1.842.785.011.457.096.683.374.749.177.043.413-.034.633-.063.221-.03.426-.011.629-.104.594-.272.907-1.601.206-1.367Zm-.186 3.313c.38-.257.884-.445.574-1.091-.693-.334-1.086.128-1.239.397-.273.182-.022.297.665.694Zm1.814 1.656c-1.202-.234-1.729-.614-2.709-.896.738.6.805 1.294.934 1.924.593.641.934.825 1.022.552.688-.467 1.23-.954.753-1.58Zm-6.927-5.449c.526-.05 1.248.092 1.774.043 1.222 1.373 1.518 2.717 1.667 5.195-.128.267-.597.608-.886.603-.445-.27-.499-.508-.944-.776-.697.28-1.605-.083-2.527-.367-.37.107-.254.588-.023 1.145.13.313.39.656.246.961-.372.788-.852.353-.899.21-.234-.714-.457-1.458-.348-1.628-.205-.05-.2.08-.43.08-1.068-.003-1.57-.38-1.738-.866-.649-1.26-.59-2.264.818-2.535.69-.929 1.297-1.36 1.718-.694-.373.436-.16 1.308.322 2.38.695.235 1.391.471 2.086.708-.04-.368-.113-1.13-.878-1.19-.813-.064-.714-.621-.681-.891 1.274-.8 1.81 1.554 2.707 2.026.433-.569-.133-1.475-1.09-2.77-.028-.055-.189-.476-.303-.465-.832.08-1.515-1.013-.591-1.169ZM97.564 63.3c.063.588.163 1.168.225 1.756-.309-.04-.435-.12-.745-.161-.175-.525-.335-.91-.247-1.074.261-.486.453-.636.767-.52ZM47.087 25.149c-.59.802-.615 2.1-.381 3.622-.054.164-1.272 1.172-1.449 2.08-.098.503.004 1.05.234.814l1.057-.952c.217.902-.012 1.823-.331 2.805.164.844.572.794.811.592l1.459-1.582.437 1.214c-.199.414-.456.246-.701.195.01.689.96.996 1.412.634-.02-.877-.534-1.811-.963-2.88.174-.894.663-2.195.788-3.13.038-.284-.24-.281-.186-.555-.136.18-.352.296-.326.54.068.644-.685 2.315-.931 1.724-.127-.367-.145-.773-.272-1.14-.098-.285-.306-.53-.404-.816-.203-.718-.038-1.393.232-2.054.24-1.026.346-1.832-.486-1.111Zm3.318-1.336c.228.689.397 1.653.537 2.374-.473.246-.948.24-1.421.486-.042.424.054.616.189.978.117.466-.103 1.145.312 1.44.17.024.464-.08.635-.056-.442.904-.786 1.213-.468 1.795.088.422.377.53.704.289.439-.13.824-.41 1.262-.538.137 2.097 1.496 3.12 2.247 4.573-.206-2.345-.502-4.233-.707-6.577.758-.678.282-1.675-.862-1.668-.832-2.087-1.745-3.79-2.428-3.096Zm-2.938 7.488c.175-.063.357-.005.406.13.048.133-.055.294-.231.357-.176.064-.358.006-.406-.129-.049-.134.055-.295.23-.358Zm3.004-3.241c.305.144.657.102 1.055-.126-.038-.339-.216-.444-.618-.54-.454.15-.627.297-.438.666Zm.647 1.8c.306.143.383-.308.781-.536-.16-.52-.449-.332-.461-.342-.455.15-.51.508-.32.877ZM76.81 25.889a11.842 11.842 0 0 0-1.208 1.667c-.148.629-.704.354-1.318-.05-.132.49.107.86.646 1.334-.297.719-.61 1.533-.941 1.91-.11.126-.222.203-.336.212-.631.231-.991.254-1.53.18.123 1.136-.11 1.398.628 1.61.213-.24.708-.31.921-.548-.006.325.275.53.27.856.33-.029.63.087.88-.41l.213-1.619c.791-.26 1.674-.981 2.479-2.014.243.297.508.749.997.968-.3.142-.587.372-.887.515-.334-.056-.466-.09-.8-.146-.047.384-.31.66-.357 1.043l1.594 1.678c-.677.052-1.404.013-1.75-.364-.269-.293-.244-.836-.197-1.401-.438.218-.867 1.274-.99 1.923 1.08.6 2.344.869 3.64.758.458.267.135 1.047.592 1.315.872.51 2.887.202 3.76.713-.106-.133-.052-.254-.221-.356-.56-.338-1.3-.664-1.855-1.156-.614-.545-.866-.892-1.192-1.309.963-.866 1.78-2.428 1.27-3.007-.2-.226-.754.076-1.355.06.167-.397.454-.868 1.211-.64.403.123.778-.324 1.166-.486.208-.451.4-.99.394-1.424-.866.435-1.375.7-1.985.66.525-.93.53-1.793.017-2.592-.7.965-1.164 1.877-1.2 2.49-.82.69-1.278.053-1.985.367-.424.189-.86.57-1.62.982-.37-.53-.143-.843.786-1.344.866-.466 1.136-2.202.264-2.375Zm1.76 5.73c.356-.211.814-.39 1.373-.54.067.599-.51.77-.857 1.447-.562-.399-.798-.655-.516-.907ZM57.282 97.176h.184l-.82 3.214-.684 2.995a3.219 3.219 0 0 0-.085.501c0 .09.045.153.134.19.09.036.228.063.416.079.17.008.346.033.526.073l-.123.294c-.7-.09-1.3-.135-1.797-.135-.497 0-1.03.045-1.6.135l.097-.294c.48-.098.817-.179 1.008-.244.192-.065.335-.224.428-.477.094-.252.17-.481.226-.684l.648-2.469c.212-.962.318-1.492.318-1.59 0-.146-.061-.22-.183-.22-.09 0-.485.164-1.186.49l-.122-.306c.766-.359 1.306-.627 1.62-.807.313-.179.645-.428.995-.745Zm1.746 7.382.073-.354c1.858-.041 3.072-.994 3.643-2.86-.44.366-.892.55-1.357.55-.473 0-.843-.163-1.112-.489-.27-.326-.404-.783-.404-1.369 0-.79.218-1.453.654-1.987.436-.533.992-.8 1.669-.8.562 0 1.014.214 1.356.642.343.428.514 1.004.514 1.73 0 1.287-.456 2.432-1.37 3.434-.912 1.002-2.134 1.503-3.666 1.503Zm3.826-3.679c.114-.635.17-1.145.17-1.528 0-.57-.089-1.008-.268-1.314-.18-.305-.428-.458-.746-.458-.35 0-.62.194-.812.58-.192.388-.288.928-.288 1.62 0 .562.084.976.25 1.241.168.265.374.397.618.397.31 0 .668-.179 1.076-.538Zm7.466-3.801h.33l-.428.88c-.057.13-.306.196-.746.196-.961 0-1.54.02-1.736.06-.138.343-.207.575-.207.697 0 .074.032.147.098.22.065.074.15.127.256.16.497.179.866.43 1.106.751.24.322.36.735.36 1.241 0 .847-.335 1.605-1.007 2.273-.673.668-1.416 1.002-2.231 1.002-.375 0-.652-.055-.831-.165-.18-.11-.27-.246-.27-.409 0-.09.037-.171.11-.244a.326.326 0 0 1 .233-.111c.09 0 .212.057.367.171.22.172.48.257.782.257.522 0 1.004-.232 1.448-.696.445-.465.667-.978.667-1.541 0-.374-.108-.711-.324-1.008-.216-.297-.524-.536-.923-.715a.97.97 0 0 1-.324-.195.378.378 0 0 1-.092-.27c0-.122.065-.386.196-.794l.403-1.26c.18-.113.383-.17.611-.17h1.284c.244 0 .425-.023.544-.067a.743.743 0 0 0 .324-.263Zm6.304.159-.073.354c-1.899.066-3.113 1.023-3.643 2.873.44-.367.893-.55 1.357-.55.49 0 .864.171 1.125.513.26.342.39.79.39 1.345 0 .806-.22 1.472-.66 1.998-.44.526-.993.788-1.662.788-.57 0-1.026-.211-1.369-.635-.342-.424-.513-1.023-.513-1.797 0-.782.208-1.56.624-2.335a4.803 4.803 0 0 1 1.766-1.858c.762-.464 1.648-.696 2.658-.696Zm-3.838 3.691a9.221 9.221 0 0 0-.159 1.565c0 .578.092 1.012.275 1.301.184.29.426.434.727.434.36 0 .632-.197.82-.592.187-.396.28-.911.28-1.547 0-.554-.075-.976-.225-1.265-.151-.289-.361-.434-.63-.434-.318 0-.68.18-1.088.538Z" fill="#fff"/><path d="M57.282 97.176h.184l-.82 3.214-.684 2.995a3.219 3.219 0 0 0-.085.501c0 .09.045.153.134.19.09.036.228.063.416.079.17.008.346.033.526.073l-.123.294c-.7-.09-1.3-.135-1.797-.135-.497 0-1.03.045-1.6.135l.097-.294c.48-.098.817-.179 1.008-.244.192-.065.335-.224.428-.477.094-.252.17-.481.226-.684l.648-2.469c.212-.962.318-1.492.318-1.59 0-.146-.061-.22-.183-.22-.09 0-.485.164-1.186.49l-.122-.306c.766-.359 1.306-.627 1.62-.807.313-.179.645-.428.995-.745Zm1.746 7.382.073-.354c1.858-.041 3.072-.994 3.643-2.86-.44.366-.892.55-1.357.55-.473 0-.843-.163-1.112-.489-.27-.326-.404-.783-.404-1.369 0-.79.218-1.453.654-1.987.436-.533.992-.8 1.669-.8.562 0 1.014.214 1.356.642.343.428.514 1.004.514 1.73 0 1.287-.456 2.432-1.37 3.434-.912 1.002-2.134 1.503-3.666 1.503Zm3.826-3.679c.114-.635.17-1.145.17-1.528 0-.57-.089-1.008-.268-1.314-.18-.305-.428-.458-.746-.458-.35 0-.62.194-.812.58-.192.388-.288.928-.288 1.62 0 .562.084.976.25 1.241.168.265.374.397.618.397.31 0 .668-.179 1.076-.538Zm7.466-3.801h.33l-.428.88c-.057.13-.306.196-.746.196-.961 0-1.54.02-1.736.06-.138.343-.207.575-.207.697 0 .074.032.147.098.22.065.074.15.127.256.16.497.179.866.43 1.106.751.24.322.36.735.36 1.241 0 .847-.335 1.605-1.007 2.273-.673.668-1.416 1.002-2.231 1.002-.375 0-.652-.055-.831-.165-.18-.11-.27-.246-.27-.409 0-.09.037-.171.11-.244a.326.326 0 0 1 .233-.111c.09 0 .212.057.367.171.22.172.48.257.782.257.522 0 1.004-.232 1.448-.696.445-.465.667-.978.667-1.541 0-.374-.108-.711-.324-1.008-.216-.297-.524-.536-.923-.715a.97.97 0 0 1-.324-.195.378.378 0 0 1-.092-.27c0-.122.065-.386.196-.794l.403-1.26c.18-.113.383-.17.611-.17h1.284c.244 0 .425-.023.544-.067a.743.743 0 0 0 .324-.263Zm6.304.159-.073.354c-1.899.066-3.113 1.023-3.643 2.873.44-.367.893-.55 1.357-.55.49 0 .864.171 1.125.513.26.342.39.79.39 1.345 0 .806-.22 1.472-.66 1.998-.44.526-.993.788-1.662.788-.57 0-1.026-.211-1.369-.635-.342-.424-.513-1.023-.513-1.797 0-.782.208-1.56.624-2.335a4.803 4.803 0 0 1 1.766-1.858c.762-.464 1.648-.696 2.658-.696Zm-3.838 3.691a9.221 9.221 0 0 0-.159 1.565c0 .578.092 1.012.275 1.301.184.29.426.434.727.434.36 0 .632-.197.82-.592.187-.396.28-.911.28-1.547 0-.554-.075-.976-.225-1.265-.151-.289-.361-.434-.63-.434-.318 0-.68.18-1.088.538Z" stroke="#fff" stroke-width=".216"/><path fill-rule="evenodd" d="M50.197 56.439c-.029.032-.043-.08-.065-.12-1.36-2.51-2.666-5.386-2.68-8.82 1.333-10.668 20.36 3.785 23.768 6.602l1.907-.147c-3.282-4.046-8.791-8.184-14.084-10.067-9.062-3.224-17.35-.196-9.83 13.882-.662 6.382 2.175 8.73 6.601 9.243 3.008 2.812 8.287 8.246 14.233 10.627 8.86 3.547 17.797 1.902 11.59-12.534h-2.055c11.185 21.018-15.907 9.723-21.567.44 6.35-3.948.858-14.437-6.602-10.123a5.716 5.716 0 0 0-1.216 1.017Z" fill="#F08300"/><path fill-rule="evenodd" d="M58.603 61.142c0-.509-.02-.997-.057-1.467a3.43 3.43 0 0 0-.41-1.35c-.59-1.172-1.663-1.76-3.228-1.76-2.27.118-3.462 1.447-3.58 3.991-.04 2.621 1.154 3.91 3.58 3.873 2.11 0 3.265-.784 3.46-2.349h-2.053c-.195.666-.666.98-1.407.94-.901.04-1.332-.586-1.292-1.878h4.987Zm-4.987-1.525c.04-1.056.468-1.585 1.292-1.585.899 0 1.35.529 1.35 1.585h-2.642Z" fill="#fff"/><path fill-rule="evenodd" d="M71.856 64.894c1.398-.087 1.82.427 3.219.34-3.687 4.28-12.917 13.347-20.64 13.687-5.385.236-11.037-3.145-5.993-14.25.7.613.798.849 1.497 1.46-3.637 6.042-2.303 9.77.304 11.216 4.889 2.712 16.83-5.605 21.613-12.453ZM59.252 54.1c-1.21.075-1.575-.37-2.785-.294 2.185-2.35 6.518-6.319 11.351-9.052 2.118-1.197 4.333-2.376 6.503-2.542 4.782-.366 11.552 2.594 7.149 12.08-.606-.53-.936-.242-1.54-.772 3.382-6.33.74-10.168-1.983-10.192-5.668-.05-14.726 4.723-18.696 10.771ZM45.028 57.25v4.04c.028.882-.08 1.48-.32 1.802-.24.373-.666.56-1.28.56s-1.053-.187-1.32-.56c-.24-.321-.347-.92-.32-1.801V57.25h-1.601v4.642c.054 1.84 1.133 2.787 3.242 2.84 2.053-.053 3.12-1 3.2-2.84V57.25h-1.6Z" fill="#0068B7"/><path fill-rule="evenodd" d="M70.023 59.077c-.087-1.583-1.011-2.417-2.768-2.505-2.167.118-3.296 1.01-3.384 2.681 0 1.084.894 1.832 2.681 2.24.058.03.161.06.307.089 1.026.206 1.538.587 1.538 1.144-.028.673-.57 1.023-1.626 1.053-.907-.058-1.363-.556-1.363-1.494h-1.757c-.03 1.787 1.01 2.681 3.12 2.681 2.286-.058 3.443-.937 3.473-2.636.028-1.114-.91-1.862-2.813-2.242a1.445 1.445 0 0 0-.22-.044c-1.055-.146-1.554-.526-1.493-1.143.028-.644.468-.996 1.318-1.054.85 0 1.288.41 1.318 1.23h1.669ZM71.9 58.111h2.417v6.767h1.76v-6.767h2.416v-1.363H71.9v1.363ZM87.326 58.78c-.118-1.717-1.26-2.59-3.427-2.618-2.17.082-3.296 1.406-3.384 3.97.058 2.508 1.186 3.791 3.384 3.845 2.197-.028 3.34-.872 3.427-2.536H85.48c-.029.927-.555 1.403-1.58 1.431-.968-.054-1.48-.969-1.54-2.74.06-1.802.572-2.729 1.54-2.783.995.028 1.521.505 1.58 1.432h1.846Z" fill="#0068B7"/></g><defs><filter id="a" x="-13" y="0" width="154" height="157" filterUnits="userSpaceOnUse" color-interpolation-filters="sRGB"><feFlood flood-opacity="0" result="BackgroundImageFix"/><feColorMatrix in="SourceAlpha" values="0 0 0 0 0 0 0 0 0 0 0 0 0 0 0 0 0 0 127 0" result="hardAlpha"/><feOffset dy="16"/><feGaussianBlur stdDeviation="6.5"/><feColorMatrix values="0 0 0 0 0 0 0 0 0 0 0 0 0 0 0 0 0 0 0.03 0"/><feBlend in2="BackgroundImageFix" result="effect1_dropShadow_49_8134"/><feBlend in="SourceGraphic" in2="effect1_dropShadow_49_8134" result="shape"/></filter></defs></svg>