<svg width="128" height="128" fill="none" xmlns="http://www.w3.org/2000/svg"><g filter="url(#a)" fill-rule="evenodd" clip-rule="evenodd" fill="#004B81"><path d="M47.281 71.158h-1.395v.667h1.201v.364h-1.2v1.116h-.413v-2.523h1.807v.376ZM49.317 70.794h.413v1.456c.024.76-.328 1.124-1.056 1.091-.695.025-1.035-.34-1.018-1.091v-1.456h.412v1.456c-.008.51.194.756.606.74.445.016.66-.23.643-.74v-1.456ZM51.135 70.782h.412v1.735c.025.574-.23.849-.764.824-.453.008-.7-.238-.74-.74l.4-.06c.017.307.134.453.352.437.235.008.348-.142.34-.45v-1.746ZM52.055 73.305h.413v-2.51h-.413v2.51ZM53.57 72.335h.837l-.34-.886a.737.737 0 0 1-.06-.242h-.012a.815.815 0 0 1-.073.242l-.352.886Zm1.225.97-.243-.607h-1.128l-.254.607h-.437l1.055-2.523h.4l1.056 2.523h-.449ZM57.17 72.808v-.012a4.46 4.46 0 0 1-.023-.45v-1.552h.4v2.511h-.413c-.485-.712-.84-1.237-1.067-1.577-.09-.153-.166-.299-.23-.436h-.013c.025.145.037.311.037.497v1.516h-.4v-2.51h.424a83.64 83.64 0 0 1 1.043 1.564c.089.13.17.279.243.449ZM61.29 70.794h.412v1.456c.025.76-.327 1.124-1.055 1.091-.695.025-1.035-.34-1.019-1.091v-1.456h.413v1.456c-.008.51.194.756.606.74.445.016.66-.23.643-.74v-1.456ZM63.896 72.808v-.012a4.485 4.485 0 0 1-.024-.45v-1.552h.4v2.511h-.412c-.485-.712-.841-1.237-1.068-1.577-.089-.153-.165-.299-.23-.436h-.012c.024.145.036.311.036.497v1.516h-.4v-2.51h.424a83.9 83.9 0 0 1 1.043 1.564c.09.13.17.279.243.449ZM64.804 73.305h.412v-2.51h-.412v2.51ZM65.518 70.794h.437l.752 1.892c.024.081.036.15.036.207h.013a.862.862 0 0 1 .048-.219l.728-1.88h.449l-1.043 2.511h-.377l-1.043-2.51ZM68.622 72.953h1.552v.352H68.21v-2.523h1.905v.376h-1.492v.667h1.407v.364h-1.407v.764ZM70.985 71.158v.704h.692c.363 0 .541-.126.533-.376-.008-.21-.186-.32-.533-.328h-.692Zm1.917 2.147h-.558l-.85-1.067h-.509v1.067h-.412v-2.523h1.177c.565.017.86.255.885.716 0 .412-.223.65-.667.715l.934 1.092ZM75.047 71.437l-.425.121c-.072-.307-.258-.456-.558-.448-.34 0-.513.113-.52.34-.034.161.157.278.569.351.687.13 1.023.4 1.007.813-.025.469-.352.711-.983.727-.63.025-1.002-.234-1.116-.776l.413-.121c.04.372.27.55.691.534.372 0 .558-.126.558-.377.032-.185-.178-.323-.63-.412-.655-.129-.97-.376-.947-.74.025-.452.34-.687.946-.703.55.008.881.239.995.691ZM75.543 73.305h.412v-2.51h-.412v2.51ZM78.38 71.158h-.838v2.147h-.412v-2.147h-.849v-.364h2.098v.364ZM80.913 70.794l-1.068 1.48v1.031h-.412v-1.019l-1.02-1.504h.474l.704 1.055c0 .008.004.017.012.025a.28.28 0 0 1 .036.073.143.143 0 0 0 .025-.037 44.814 44.814 0 0 0 .728-1.104h.52ZM83.855 73.002c.542-.024.82-.34.837-.946-.04-.582-.31-.898-.812-.946-.518.04-.793.356-.825.946.024.59.291.905.8.946Zm.037-2.256c.768.048 1.18.481 1.237 1.298-.024.84-.445 1.273-1.262 1.297-.792-.04-1.205-.468-1.237-1.285.04-.833.461-1.27 1.262-1.31ZM87.31 71.158h-1.394v.667h1.2v.364h-1.2v1.116h-.412v-2.523h1.807v.376ZM91.187 71.158h-.837v2.147h-.411v-2.147h-.85v-.364h2.098v.364ZM91.877 72.953h1.553v.352h-1.965v-2.523h1.904v.376h-1.492v.667h1.407v.364h-1.407v.764ZM95.987 71.486l-.436.12c-.113-.306-.328-.468-.643-.484-.477.024-.728.335-.752.934.008.606.25.917.728.934.38.008.614-.19.704-.595l.448.11c-.146.566-.526.844-1.14.836-.768-.016-1.16-.444-1.177-1.285.016-.85.42-1.286 1.213-1.31.501.008.853.255 1.055.74ZM98.023 70.794h.425v2.511h-.424V72.19h-1.226v1.116h-.412v-2.51h.412v1.03h1.225v-1.03ZM100.629 72.808v-.012a4.576 4.576 0 0 1-.024-.45v-1.552h.401v2.511h-.413c-.485-.712-.84-1.237-1.067-1.577a5.6 5.6 0 0 1-.23-.436h-.013c.025.145.037.311.037.497v1.516h-.4v-2.51h.424c.477.703.825 1.224 1.043 1.564.089.13.17.279.242.449ZM102.617 73.002c.542-.024.821-.34.837-.946-.041-.582-.311-.898-.813-.946-.517.04-.792.356-.824.946.024.59.291.905.8.946Zm.037-2.256c.767.048 1.18.481 1.237 1.298-.025.84-.445 1.273-1.262 1.297-.792-.04-1.205-.468-1.237-1.285.041-.833.461-1.27 1.262-1.31ZM104.241 70.794h.425v2.16h1.261v.351h-1.686v-2.51ZM107.369 73.002c.541-.024.82-.34.836-.946-.04-.582-.311-.898-.812-.946-.518.04-.793.356-.825.946.025.59.291.905.801.946Zm.036-2.256c.768.048 1.181.481 1.237 1.298-.024.84-.445 1.273-1.261 1.297-.792-.04-1.205-.468-1.237-1.285.04-.833.461-1.27 1.261-1.31ZM110.132 71.934h1.201v.959c-.226.299-.598.448-1.116.448-.832-.032-1.265-.46-1.298-1.285.033-.841.449-1.278 1.25-1.31.566.008.946.255 1.14.74l-.437.12c-.113-.314-.352-.476-.715-.484-.502.04-.768.352-.801.934.033.582.316.893.849.934.332 0 .57-.085.716-.255v-.437h-.789v-.364ZM114 70.794l-1.068 1.48v1.031h-.412v-1.019l-1.018-1.504h.472l.704 1.055c0 .008.004.017.012.025s.02.032.036.073a.14.14 0 0 0 .025-.037 45.256 45.256 0 0 0 .727-1.104H114ZM57.274 63.67c-.16.193-.203.56-.522.55-.32-.009-.314-.424-.286-.584.04-.223.087-.286.155-.89.068-.605.28-.702.547-.687.266.014.508.334.512.653.005.319-.246.764-.406.957Zm-1.901.961c-.264-.015-.517-.166-.448-.9.068-.731.343-.84.501-.835.161.005.457-.04.463.669.007.71-.162 1.086-.516 1.066Zm3.436-2.745a.75.75 0 0 0-.278-.545s-.174-.16-.455-.164c-.953-.002-2.082.622-2.335.619a.802.802 0 0 1-.175-.023c-.077-.025-.282-.11-.33-.344 0 0-.048-.192.064-.357.346-.524 1.352-1.762 1.395-1.978.045-.226-.135-.252-.27-.29-.136-.039-.485-.097-.433-.439.052-.336.348-.47.703-.786a.6.6 0 0 0 .06-.062l.011-.014a.483.483 0 0 0 .082-.152c.056-.146.082-.374-.111-.625 0 0-.239-.316-.661-.19-.254.075-.456.34-.653.503-.268.225-.569.411-.899.528-.227.08-.428.229-.627.363-.526.354-1.035.732-1.56 1.086l-.117.078c-.427.282-.865.635-1.21.912-.316.254-.596.42-.672.428-.043.006-.085.016-.132-.003-.062-.026-.08-.064-.097-.108l-.011-.042c-.116-.465-.472-.543-.925-.51-.47.036-1.358.387-1.578.451-.22.065-.69.149-1.205.239-.516.09-.49.426.11.677.6.252.883-.193 1.56-.374.286-.076.526-.084.716-.041a.61.61 0 0 1 .374.275c.185.287.034.59.035.59a1.997 1.997 0 0 1-.364.498c-.326.338-.708.633-1.06.943-.453.4-.917.794-1.346 1.22-.233.234-.42.51-.588.792-.141.235-.328.486-.352.764 0 0-.013.168.116.307.044.07.126.124.26.149h.003a.217.217 0 0 0 .068.008c.605.026 1.1-1.235 1.816-2.164.48-.623.828-.983 1.103-1.074a.381.381 0 0 1 .328.062s.12.075.145.248l.003.031v.006c.032.418-.17 1.162-.252 1.54-.104.483-.702 2.037-.573 2.501.056.201.196.373.352.506.137.118.352.277.544.263a.28.28 0 0 0 .185-.086c.117-.127.1-.356.08-.515a1.75 1.75 0 0 0-.176-.573c-.127-.247-.007-.745.125-1.239.082-.31.277-1.819.38-2.36.058-.305.124-1.113.15-1.843.003-.058.014-.139.029-.214 0 0 .035-.208.143-.394a1.357 1.357 0 0 1 .232-.272c.12-.112.265-.225.44-.33.763-.465 3.54-2.461 3.843-2.493.303-.032.412.354.187.606-.226.252-.786.487-.987.6-.198.111-1.438.883-1.219 1.16.22.278.697-.064 1.122-.335.279-.177.61-.451.889-.547 0 0 .206-.08.386.089 0 0 .127.105.107.316v.007c-.044.29-.279.669-.595 1.045-.282.334-.576.66-.88.973-.322.33-.653.673-1.062.892-.484.259-.89.58-1.27.978-.687.722-.703 1.084-.444 1.187.258.103.8-.258 1.044-.445.23-.175 1.654-1.416 2.218-1.613a.37.37 0 0 1 .318.057.365.365 0 0 1 .152.229c.02.155-.01.328-.037.418-.058.193-.104.503-.039 1.083.064.58-.277.583-.393.651-.213.126-.29.91-.033 1.232.252.314.562.035.844-.074.196-.075.407-.106.605-.177.819-.295 1.572-.926 2.072-1.632 0 0 .717-.994.923-2.031.022-.112.09-.382.082-.652ZM49.167 58.098c-.07.075-.193.195-.26.313l-.003.005-.006.012a.204.204 0 0 0-.003.183c.052.108.132.118.194.126.26.006.442-.365.816-.365.428 0 .539-.225.633-.389.1-.173.485-.66-.175-.846-.661-.187-.663-.342-.855-.497-.125-.1-.473-.212-.625.019-.175.264.16.733.325.907.165.174.099.383-.04.532ZM110.336 66.447c-.253.669-.73.715-1.322.676l-.02-.002c-.734-.066-.836-.745-.836-.745a1.02 1.02 0 0 1-.004-.27 1.39 1.39 0 0 1 .037-.165c.109-.334.382-.488.381-.489.173-.105.361-.172.547-.247.363-.145.829-.413 1.217-.188.292.17.253.761 0 1.43Zm3.658-2.038a.382.382 0 0 0-.203-.336c-.189-.087-.473-.111-.811-.14-.654-.053-2.225.335-2.782-.246a3.391 3.391 0 0 1-.23-.263.914.914 0 0 1-.171-.528s-.008-.217.106-.426a1.32 1.32 0 0 1 .025-.042s.831-1.455 1.971-1.7c.277-.06.755-.155.766-.422.01-.26-.315-.476-.631-.4-.315.077-1.19.163-2.613.861a.903.903 0 0 1-.518.099c-.045-.01-.226-.066-.233-.278.004-.205.146-.33.459-.613.487-.439 1.079-1.12 1.338-1.345.272-.236 1.323-.856 1.691-1.122.282-.205.577-.388.784-.549l-.001-.001a.902.902 0 0 0-.767-1.58.896.896 0 0 0-.153.05 7.209 7.209 0 0 0-.796.316l-.001.001c-.309.136-.589.292-.818.418-.239.13-1.014.216-1.313.292-.249.064-.412.338-.637.455-.406.213-.942.101-1.371.026a5.966 5.966 0 0 1-.778-.191c-.13-.042-.251-.112-.377-.169a1.859 1.859 0 0 0-1.015-.142 2.96 2.96 0 0 0-.214.035c-.295.058.36.605.425.664.561.505 1.163 1.067 1.899 1.297.427.13.894.076 1.311-.067.29-.1.592-.229.829-.434.121-.104.225-.23.291-.376.072-.157.067-.353.196-.48a.473.473 0 0 1 .315-.132H110a.48.48 0 0 1 .34.165c.133.143.114.335.104.396a1.2 1.2 0 0 1-.049.171c-.178.496-1.578 2.105-2.585 2.773-.956.633-2.876 2.08-3.13 2.338-.286.29-.746.965-.454 1.234.331.305.877-.226 1.104-.44.416-.39.896-.73 1.401-.997.552-.29 1.914-1.153 2.237-1.207.323-.053.884.016.669.615-.216.6-.554.93-.246 1.46.307.53.403.685-.062.946-.129.072-1.546.654-1.987.834-.257.105-.724.713-.688 1.224.022.293.235.486.458.648.493.356.973.818 1.56 1.012.45.148.663.115.905.121.242.006 1.236-.265 1.558-1.05.282-.685.386-1.532.436-1.85a.282.282 0 0 1 .197-.232l.006-.002h.002c.167-.045.414-.05.62-.075.238-.028.967-.1 1.367-.265.242-.113.231-.35.231-.35ZM72.13 62.995c-.041-.041-.052-.101-.052-.101a.214.214 0 0 1 .054-.192c.094-.091.21-.193.415-.202.219-.01.216.13.233.419.017.288-.11.387-.23.407-.115.02-.29-.2-.42-.33Zm2.616.158a.212.212 0 0 0-.262-.084c-.187.078-.234.295-.38.425-.528.47-1.029.98-1.494 1.515-.021.025-.044.05-.063.076-.099.134-.26.216-.18-.057.08-.273.826-1.393.906-1.948.081-.556.151-1.058-.129-1.281-.137-.11-.136-.538-.1-.854a.74.74 0 0 1 .606-.641c.056-.01.114-.016.178-.017.1-.003.203-.021.253-.119.03-.059.04-.126.065-.187.048-.114.342-.336.253-.471-.084-.127-.395-.074-.56.041-.164.116-.863.237-.994.23-.13-.008-.544.075-.74-.025 0 0-.409-.213-.538.136-.128.35.162.82.432.834.27.014.583-.14.595.133.011.273.134.827-.073.896-.206.07-1.112.336-1.268 1.133l-.007.04a.218.218 0 0 0 .076.198c.1.08.215.034.215.034v.002c.143-.041.298-.099.365-.017.157.19.453.608.385.937-.07.329-.629 1.572-.699 1.866-.09.38-.205.752.222.903.338.12.644-.105.825-.556.18-.451 2.296-2.11 2.25-2.56-.025-.25-.065-.462-.14-.582ZM75.234 59.026a.677.677 0 0 0-.004-.03.277.277 0 0 0-.04-.106c-.06-.087-.232-.118-.332-.114-.13.006-.216.089-.248.212-.104.42.228 1.992.647 2.29.42.297.594-.123.455-.857-.043-.22-.12-.43-.216-.633-.076-.16-.162-.318-.223-.485-.033-.089-.026-.184-.039-.277ZM77.996 59.303c-.053.042-.125.077-.192.045-.065-.032-.1-.107-.125-.17-.077-.205-.085-.44-.08-.656.002-.081.007-.162.017-.242.01-.083.02-.17.06-.245.027-.053.085-.087.137-.115a.62.62 0 0 1 .43-.065.352.352 0 0 1 .08.033c.237.13.106 1.074-.327 1.415Zm-1.01 1.177a.073.073 0 0 1 .025-.007c.01 0 .021.002.03.007.07.032.112.129.14.195a.945.945 0 0 1 .065.247c.023.17-.004.414-.189.49-.203.084-.25-.33-.248-.45a.908.908 0 0 1 .045-.273c.018-.053.068-.177.132-.209Zm2.988-1.738s.608-.745-.122-1.472l-.035-.036c-1.074-.883-3.154-.308-3.68.076a.364.364 0 0 0-.113.433s.055.186.285.23c.2.032.438-.002.556.001.165.004.265.32.256.58a.458.458 0 0 1-.265.375c-.311.142-.871.458-.48.758.453.35-.105 1.293-.49 2.062-.229.459.375.495 1.078.374.057.001.219.02.231.216.007.4-.022.873-.19.975 0 0-1.084.55-.77 1.039.316.49.874.874.594 1.328-.278.454-.576 1.206.176 1.416.33.092 1.04.136 1.686.065h.001c.547-.014.851-.153 1.015-.277l.009-.005.02-.017c.113-.095.146-.174.146-.174.202-.337-.034-.655-.034-.655h.002c-.598-.871-2.05-.37-1.757-.778.31-.431 1.166-1.06.711-1.567-.293-.328-.585-.457-.757-.508 0 0-.15-.045-.151-.203v-.93a.22.22 0 0 1 .144-.201c.094-.032.18-.066.258-.098.796-.332.395-.853.053-1.233-.05-.058-.054-.113-.054-.113a.214.214 0 0 1 .032-.15c.24-.325 1.169-.874 1.645-1.511ZM65.125 64.47a.85.85 0 0 1-.288-.09.453.453 0 0 1-.212-.555c.094-.338.55-.573.863-.363a.511.511 0 0 1 .168.655.645.645 0 0 1-.32.326.436.436 0 0 1-.211.027Zm4.013 1.884c-.025-.134-.157-.163-.157-.163-.257-.095-.51-.227-.789-.242-.285-.015-.563.075-.822.187-.425.185-.954.48-1.52.556a.467.467 0 0 1-.326-.098s-.137-.09-.17-.301a2.095 2.095 0 0 1 .012-.53c.02-.12.103-.223.102-.223.132-.15.364-.381.48-1.286.086-.668.252-1.065.436-1.304.22-.279.535-.36.535-.361.273-.091.603-.247.626-.575.012-.176-.187-.21-.322-.237-.143-.03-.321-.04-.444-.13-.197-.145-.392-.435-.354-1.188a2.49 2.49 0 0 1 .034-.306c.104-.494.486-.779.96-.86a1.66 1.66 0 0 0 .652-.245c.138-.092.299-.236.299-.417 0-.632-.52-.696-.627-.726-.12-.032-.586-.023-.901-.035h-.005l-.019-.001a.75.75 0 0 1-.666-.533 1.963 1.963 0 0 1-.065-.44c-.04-.805-.238-1.102-.838-1.155-.601-.053-.796.161-.554.495.026.038.055.078.089.118.267.32.74.673.708 1.117-.028.392-.161.46-.527.6-.402.153-1.546.763-1.775.897-.17.099-.36.22-.628.404-.19.132-.405.232-.631.282-.188.041-.075.197.01.288.08.086.218.212.345.21.247-.007.981-.72 1.631-1.045.52-.26.85-.522 1.203-.564.128-.008.532.007.657.489.008.043.014.086.019.129.032.297-.191.576-.508.695-.177.066-.316.143-.204.34a.127.127 0 0 0 .027.037c.078.066.272-.014.362-.024.114-.013.238-.001.304.107.158.262.115.982.08 1.14-.035.159-.249.691-.763.864-.343.115-.826.371-1.121.724a1.08 1.08 0 0 0-.232.915l.002.014c.046.197.137.382.248.551.105.16.229.307.358.449.1.11.206.215.3.33.058.071.102.15.146.23.052.097.112.188.15.292a.74.74 0 0 1-.156.753s-.204.234-.528.232c-.346-.017-.683-.115-.964-.407-.658-.683-1.13-1.516-1.13-1.516s-.494-.964-1.046-1.074a.357.357 0 0 0-.188-.002c-.042.015-.056.048-.05.111.032.298.246.606.394.856.26.44.56.857.844 1.282.248.37.499.773.833 1.074l.03.027c.432.365.926.737 1.565.751.532.013 1.946-.418 2.66-.696.128-.05.259-.089.396-.104.155-.018.307-.016.456-.064.113-.035.222-.078.33-.123.232-.098.475-.207.674-.364.105-.09.073-.207.073-.207ZM90.01 64.865c-.049-.212-.342-.406-.527-.486-.45-.195-.965-.013-1.417.096-.339.082-.707.226-1.057.243a.643.643 0 0 1-.256-.038.464.464 0 0 1-.272-.319.893.893 0 0 1 .011-.366c.139-.655.349-1.613 0-2.155a1.218 1.218 0 0 1-.112-.215c-.05-.17 0-.257 0-.257a.369.369 0 0 1 .216-.213 1.03 1.03 0 0 1 .22-.037c.36-.026 1.625-.452 1.212-.761-.413-.31-1.084-.671-1.471-.581-.387.09-1.651.593-2.994.658 0 0-.137.02-.278.067a.097.097 0 0 1-.016.006.272.272 0 0 0-.08.486l.013.009c.597.367 1.58.458 1.964.465 0 0 .487-.006.59.525.016.123.018.273.001.455-.025.263-.027.536-.037.802-.01.208-.128 1.752-1.433 1.894-.139.007-.303 0-.504-.025-.838-.103-1.135-.336-1.471-.684-.335-.349-.206.929.297 1.2.503.27 1.187.555 2.426.27 1.238-.283 3.729-.696 4.567-.683a.59.59 0 0 0 .262-.043h.002l.011-.005a.195.195 0 0 0 .055-.044.27.27 0 0 0 .077-.264ZM102.044 65.063c-.113-.484-.592-.944-.928-1.28-.4-.4-.861-.75-1.401-.932-.557-.187-1.133-.32-1.653-.601 0 0-.198-.091-.384-.099a.285.285 0 0 0-.263.182.28.28 0 0 0 .067.313c.112.103.28.202.446.302.367.222 1.274 1.073 1.79 1.836.516.764 1.456 1.197 1.913 1.11.211-.041.566-.17.413-.831ZM96.696 61.056a.914.914 0 0 1 .414-.33c.236-.096.516-.142.772-.232.475-.168.93-.375 1.421-.497.231-.058.499-.061.695-.21a.453.453 0 0 0 .132-.572c-.124-.248-.5-.523-1.338-.452-.663.057-1.274.38-1.462.41a4.481 4.481 0 0 1-.389.047 1.116 1.116 0 0 1-.969-.434c-.217-.37-.416-.626-.855-.471-.452.159-.019.945.013 1.105.031.163.004.267-.198.316-.198.047-1.816.512-2.11.598l-.02.007a.387.387 0 0 0-.24.284s-.06.233.154.391c.021.016.045.03.07.045.348.191 1.572.104 2.117.18.049.008.18.042.263.17.07.11.065.223.055.284-.049.223-.184.476-.258.624a10.88 10.88 0 0 1-.463.745c-.337.51-.717 1-1.172 1.41-.23.208-.478.386-.744.542-.234.137-.553.326-.696.565a.077.077 0 0 1-.008.011c0 .002-.002.004-.003.005a.859.859 0 0 0-.037.054c-.054.102-.043.204-.043.204a.39.39 0 0 0 .147.281c.368.263.945-.105 1.162-.2.203-.088.397-.183.599-.306.225-.138.858-.605 1.226-1.14.431-.628.878-1.248 1.182-1.95.2-.46.378-.932.542-1.407l.04-.077ZM27.34 51.426c-7.12 0-12.913 5.793-12.913 12.914 0 7.12 5.792 12.913 12.913 12.913 7.12 0 12.913-5.793 12.913-12.913S34.46 51.426 27.34 51.426Zm0 26.253a13.251 13.251 0 0 1-9.433-3.907A13.252 13.252 0 0 1 14 64.34c0-3.564 1.387-6.914 3.907-9.433A13.251 13.251 0 0 1 27.34 51c3.563 0 6.913 1.388 9.432 3.907a13.25 13.25 0 0 1 3.907 9.433c0 3.563-1.387 6.913-3.907 9.432a13.251 13.251 0 0 1-9.432 3.907Z"/><path d="M27.34 55.675c-4.778 0-8.665 3.887-8.665 8.665 0 4.777 3.887 8.664 8.665 8.664 4.777 0 8.664-3.887 8.664-8.664 0-4.778-3.887-8.665-8.664-8.665Zm0 17.755c-5.013 0-9.091-4.078-9.091-9.09 0-5.013 4.078-9.091 9.09-9.091 5.013 0 9.091 4.078 9.091 9.09 0 5.013-4.078 9.091-9.09 9.091Z"/><path d="M29.01 67.559h.366v-.402h-.367v.402Zm-3.707 0h.367v-.402h-.367v.402Zm0-8.067h-.55v7.084h-1.575v.58h1.576v.403h-2.492v.58h2.492v.418h-3.408v.581h3.957v-.998h.916v-.983h.916V57.51h-.55v9.066h-.366v-8.083h-.55v8.083h-.366v-7.084Zm4.073 0h.55v7.084H31.5v.58h-1.576v.403h2.492v.58h-2.492v.418h3.408v.581h-3.957v-.998h-.916v-.983h-.916V57.51h.55v9.066h.366v-8.083h.55v8.083h.366v-7.084ZM16.559 65.031l-.014-.764-.366.007.012.657-.199.004-.012-.658-.611.011-.004-.226 1.382-.025.018.99-.206.004ZM16.872 66.007l.027.224-.79.1c-.412.064-.634-.103-.666-.5-.06-.377.115-.586.525-.628l.79-.099.029.224-.791.099c-.278.03-.398.157-.361.38.02.242.17.342.445.299l.792-.099ZM17.053 66.86l.05.22-.925.212c-.304.084-.482-.019-.534-.307-.06-.24.042-.402.304-.485l.082.206c-.163.046-.226.127-.19.241.024.126.118.168.28.127l.933-.214ZM15.895 67.856l-.064-.216 1.318-.391.064.215-1.318.392ZM16.58 68.235l.164.427.386-.347a.402.402 0 0 1 .112-.079l-.002-.006a.445.445 0 0 1-.138.01l-.522-.005Zm-.255.817.262-.243-.222-.577-.36-.011-.086-.223 1.497.043.08.205-1.083 1.035-.088-.23ZM17.158 70.115l.006-.003c.074-.05.145-.091.211-.127l.753-.396.102.194-1.217.641-.105-.2c.22-.416.384-.723.491-.92.052-.082.103-.157.153-.223l-.003-.006a1.714 1.714 0 0 1-.232.145l-.734.387-.103-.193 1.216-.642.11.206a46.6 46.6 0 0 1-.492.905c-.04.076-.092.153-.156.232ZM19.252 71.194l.14.177-.624.495c-.318.27-.594.243-.828-.08-.248-.29-.207-.56.121-.81l.625-.495.14.177-.624.495c-.222.17-.259.341-.111.512.144.197.323.205.536.024l.625-.495ZM19.368 72.91l.005-.004c.056-.069.11-.13.163-.184l.598-.604.156.154-.967.977-.161-.159c.086-.463.15-.805.193-1.025.024-.094.05-.18.078-.258l-.004-.005a1.657 1.657 0 0 1-.178.207l-.585.59-.155-.154.968-.977.165.164c-.086.457-.152.794-.197 1.01a1.43 1.43 0 0 1-.08.269ZM19.721 73.576l-.173-.146.886-1.05.174.145-.887 1.051ZM20.638 72.576l.194.14-.268 1.082a.399.399 0 0 1-.05.103l.005.004c.03-.033.06-.06.091-.082l.924-.604.2.143-1.265.785-.168-.12.337-1.45Z"/><path d="m21.356 74.494.742.415-.094.168-.94-.525.674-1.207.911.51-.1.179-.714-.398-.178.319.673.375-.098.174-.672-.376-.204.366ZM22.884 74.185l-.147.356.35.145c.183.077.3.051.348-.077.04-.108-.027-.201-.2-.278l-.35-.146Zm.518 1.49-.282-.118-.205-.719-.258-.107-.224.54-.209-.087.531-1.276.595.248c.283.127.382.31.297.548-.086.209-.25.282-.488.222l.243.748ZM24.84 75.019h-.243c.008-.173-.067-.28-.226-.32-.179-.052-.287-.018-.326.1-.041.08.041.17.247.27.343.172.48.366.408.58-.083.244-.292.322-.626.236-.336-.083-.493-.275-.472-.577l.236-.002c-.035.202.06.33.284.385.196.056.313.018.35-.114.045-.093-.045-.197-.27-.312-.326-.167-.454-.344-.387-.532.081-.235.283-.31.604-.228.289.087.429.258.42.514ZM25.043 76.096l-.221-.046.275-1.347.222.045-.276 1.348ZM26.499 75.123l-.455-.06-.152 1.166-.224-.029.152-1.166-.46-.06.025-.198 1.14.15-.026.197ZM27.953 74.955l-.601.798-.012.565-.226-.005.012-.558-.541-.835.259.005.373.586c0 .005.002.01.007.014.004.004.01.018.018.04a.079.079 0 0 0 .014-.02 25.238 25.238 0 0 0 .41-.597l.287.007ZM29.663 75.923c.288-.071.404-.27.348-.598-.084-.309-.264-.449-.538-.421-.274.077-.388.276-.342.597.077.314.254.455.532.422Zm-.223-1.216c.418-.056.686.132.804.564.078.455-.102.732-.538.833-.43.063-.697-.123-.802-.558-.069-.452.11-.731.536-.84ZM31.181 74.453l-.727.236.113.348.626-.204.061.19-.626.203.19.581-.215.07-.427-1.314.941-.306.064.196ZM32.856 73.647l-.406.213.546 1.042-.2.105-.546-1.042-.412.216-.092-.177 1.018-.533.092.176ZM33.627 74.315l.707-.472.107.16-.895.597-.767-1.15.869-.578.114.171-.68.453.202.304.642-.427.11.166-.641.427.232.349ZM34.897 72.332l-.14.206c-.156-.089-.303-.08-.44.024-.192.179-.186.398.015.657.218.25.43.295.635.133.162-.131.19-.297.084-.498l.226-.112c.14.288.079.539-.18.753-.328.265-.644.224-.948-.122-.293-.361-.278-.687.045-.977.212-.174.447-.195.703-.064ZM35.324 71.325l.16-.17 1.005.938-.159.17-.447-.417-.458.491.447.417-.154.165-1.005-.938.154-.165.413.385.457-.49-.413-.386ZM37.006 70.956 37 70.952a2.506 2.506 0 0 1-.206-.135l-.686-.502.13-.177 1.11.812-.134.183c-.472-.016-.82-.029-1.043-.039a3.092 3.092 0 0 1-.267-.04l-.004.006c.072.037.15.085.232.145l.67.49-.13.177-1.11-.812.138-.188c.465.017.808.032 1.029.046.086.002.178.015.277.038ZM37.667 70.079c.133-.266.056-.483-.23-.653-.29-.135-.512-.09-.669.138-.118.258-.04.474.233.646.29.146.511.102.666-.131Zm-1.07-.618c.227-.355.544-.437.95-.247.397.235.492.552.286.95-.23.368-.545.452-.945.25-.388-.241-.485-.559-.291-.953ZM36.963 68.82l.09-.216 1.09.457.267-.638.178.075-.356.852-1.269-.53ZM38.674 67.677c.07-.288-.052-.484-.368-.585-.312-.069-.52.025-.623.281-.058.279.065.472.37.58.315.078.522-.014.621-.276Zm-1.18-.366c.144-.396.435-.547.873-.45.438.142.6.43.488.862-.144.41-.432.561-.866.453-.432-.15-.597-.438-.495-.865ZM38.43 66.095l.102-.65.52.081c.142.148.191.362.147.642-.087.448-.356.646-.805.594-.453-.089-.654-.351-.603-.787.052-.306.218-.49.497-.554l.028.246c-.18.034-.288.15-.323.346-.02.275.126.446.438.513.318.031.51-.095.577-.381.028-.18.002-.316-.077-.409l-.236-.037-.067.427-.197-.031ZM37.96 64.022l.79.612.564.02-.008.225-.558-.019-.842.53.009-.26.59-.365c.005 0 .01-.002.014-.006a.15.15 0 0 1 .04-.019.082.082 0 0 0-.019-.013 24.031 24.031 0 0 0-.59-.42l.01-.285ZM24.927 71.607a.11.11 0 1 1-.22 0 .11.11 0 0 1 .22 0ZM29.973 71.607a.11.11 0 1 1-.22 0 .11.11 0 0 1 .22 0ZM25.931 72.156v-1.088h-.23v-.152h.417v1.24h-.187ZM26.59 71.24c0 .062.016.11.048.147a.162.162 0 0 0 .128.055.163.163 0 0 0 .129-.055.214.214 0 0 0 .048-.147.215.215 0 0 0-.048-.146.163.163 0 0 0-.13-.056.162.162 0 0 0-.127.055.217.217 0 0 0-.048.147Zm-.021.568c0 .067.018.12.053.16.036.04.084.06.144.06.06 0 .108-.02.144-.06a.23.23 0 0 0 .054-.16.227.227 0 0 0-.054-.159.186.186 0 0 0-.144-.06c-.06 0-.109.02-.144.06a.23.23 0 0 0-.053.16Zm.001-.303a.332.332 0 0 1-.114-.117.319.319 0 0 1-.037-.156.33.33 0 0 1 .1-.245.343.343 0 0 1 .248-.097c.1 0 .183.033.248.098a.33.33 0 0 1 .099.244c0 .059-.012.11-.037.156a.336.336 0 0 1-.114.117.349.349 0 0 1 .182.31.368.368 0 0 1-.23.341.398.398 0 0 1-.148.027.397.397 0 0 1-.146-.027.373.373 0 0 1-.232-.342.348.348 0 0 1 .181-.309ZM27.89 71.29a.275.275 0 0 0-.057-.183.19.19 0 0 0-.154-.069.19.19 0 0 0-.154.069.276.276 0 0 0-.058.183c0 .076.02.138.058.184a.19.19 0 0 0 .154.069.19.19 0 0 0 .153-.07.276.276 0 0 0 .058-.183Zm-.123.365a.346.346 0 0 1-.14.03.304.304 0 0 1-.239-.113.42.42 0 0 1-.097-.284.4.4 0 0 1 .106-.286.359.359 0 0 1 .272-.112c.115 0 .21.04.282.118a.43.43 0 0 1 .11.305.59.59 0 0 1-.032.189.767.767 0 0 1-.095.187l-.317.467H27.4l.366-.501ZM28.385 71.782c0 .077.02.138.058.184.038.045.09.068.153.068a.191.191 0 0 0 .154-.068.274.274 0 0 0 .058-.184.276.276 0 0 0-.058-.183.192.192 0 0 0-.154-.069.19.19 0 0 0-.153.069.275.275 0 0 0-.058.183Zm.123-.365a.272.272 0 0 1 .066-.022.36.36 0 0 1 .075-.007.3.3 0 0 1 .205.082.38.38 0 0 1 .096.138.45.45 0 0 1 .034.176.404.404 0 0 1-.106.288.354.354 0 0 1-.27.112.37.37 0 0 1-.283-.119.432.432 0 0 1-.11-.306c0-.062.01-.125.031-.188a.796.796 0 0 1 .095-.188l.32-.467h.214l-.367.501ZM18.253 58.785c.02.052.087.1.05.162-.037.061-.118.014-.146-.009-.038-.032-.046-.048-.156-.128-.11-.079-.106-.131-.074-.181.032-.05.121-.063.183-.029a.408.408 0 0 1 .143.185Zm-.022.475c-.032.05-.089.083-.224-.011s-.126-.16-.108-.19c.019-.03.042-.093.181-.016.139.076.194.15.151.217Zm-.157-.97a.168.168 0 0 0-.137-.006s-.05.017-.082.071c-.105.185-.107.474-.135.523a.19.19 0 0 1-.024.031c-.014.012-.053.043-.103.026 0 0-.043-.011-.063-.051-.064-.125-.194-.457-.232-.489-.039-.033-.063 0-.086.021-.022.022-.072.084-.133.036-.06-.047-.053-.12-.076-.223l-.005-.018-.002-.004a.138.138 0 0 0-.154-.08s-.088.012-.11.108c-.013.058.016.126.027.182a.66.66 0 0 1 .004.234c-.01.052-.003.108.002.161.011.142.029.282.04.424l.002.03c.008.115.029.239.045.336.015.09.016.162.01.178-.004.009-.006.018-.016.025-.011.01-.02.009-.031.008l-.01-.003c-.103-.029-.157.032-.2.124-.045.096-.074.307-.085.357-.012.05-.047.15-.086.26-.04.11.029.143.144.053.114-.089.059-.193.098-.344a.339.339 0 0 1 .07-.144c.044-.045.095-.043.095-.043.076-.005.119.058.119.058.029.041.047.092.057.126.03.1.046.207.067.31.028.131.054.265.09.395a.89.89 0 0 0 .09.202c.03.053.058.117.11.152 0 0 .03.02.072.011.019-.001.038-.01.058-.034a.064.064 0 0 0 .01-.013c.07-.115-.12-.35-.223-.591-.069-.162-.1-.27-.088-.333a.086.086 0 0 1 .048-.057s.028-.015.064 0l.007.002c.086.04.208.161.273.219.082.073.32.36.424.386a.24.24 0 0 0 .137-.013c.038-.014.093-.038.11-.077a.062.062 0 0 0 .004-.046c-.011-.036-.058-.058-.091-.072a.387.387 0 0 0-.13-.028c-.063-.003-.147-.08-.228-.16-.052-.05-.324-.254-.418-.334a3.69 3.69 0 0 0-.342-.231.327.327 0 0 1-.039-.03s-.037-.029-.061-.07a.339.339 0 0 1-.018-.043l-.001-.004a.626.626 0 0 1-.025-.15c-.006-.2-.09-.96-.063-1.022.027-.062.114-.041.138.03.024.072.009.207.009.258 0 .051.014.377.092.365.078-.013.064-.143.058-.256-.004-.073-.02-.168-.01-.232 0 0 .008-.05.06-.066 0 0 .035-.013.074.014h.001c.052.041.1.128.138.231.034.092.066.185.093.279.03.098.06.2.057.304a1.11 1.11 0 0 0 .052.355c.064.213.133.255.182.216.048-.039.037-.184.028-.252-.01-.064-.094-.477-.071-.609a.084.084 0 0 1 .107-.06.248.248 0 0 1 .078.053.605.605 0 0 0 .206.127c.12.05.083.118.084.148.001.055.145.156.236.141.089-.014.069-.105.078-.172.007-.047.024-.091.032-.137a1.016 1.016 0 0 0-.09-.583s-.115-.248-.294-.402c-.02-.017-.065-.06-.118-.088ZM16.279 59.752c.006.022.016.059.032.084v.002l.002.002c.004.007.015.02.035.021.027.002.038-.013.046-.024.03-.05-.022-.126.019-.199.047-.083.015-.13-.007-.166-.022-.038-.075-.167-.183-.058-.11.108-.14.09-.191.111-.033.014-.093.069-.065.124.032.063.16.049.212.036.052-.013.086.023.1.067ZM36.814 60.723c-.15-.003-.193-.095-.227-.215l-.001-.004c-.038-.15.09-.219.09-.219a.212.212 0 0 1 .088-.024c.074-.002.124.042.124.041.033.028.06.06.088.092.054.062.14.136.122.229-.013.07-.133.104-.284.1Zm.663.584a.08.08 0 0 0 .052-.064.573.573 0 0 0-.03-.171c-.035-.134-.222-.419-.146-.57a.676.676 0 0 1 .036-.064.192.192 0 0 1 .093-.072s.043-.017.092-.009l.01.002s.348.063.477.273c.032.05.084.139.138.122.052-.016.072-.096.035-.153-.038-.057-.117-.225-.355-.459a.191.191 0 0 1-.056-.096c-.001-.01-.003-.05.039-.066.04-.014.075.006.154.048.121.066.298.136.361.171.066.038.263.203.342.258.06.041.118.087.164.117a.19.19 0 0 0 .26-.264l-.001-.002a1.504 1.504 0 0 0-.138-.16c-.049-.053-.1-.097-.141-.134-.043-.039-.114-.187-.15-.24-.03-.046-.096-.059-.136-.095-.07-.066-.086-.18-.1-.27a1.227 1.227 0 0 1-.018-.169c0-.029.005-.058.007-.087a.393.393 0 0 0-.065-.252c-.032-.054-.095.114-.102.132-.06.147-.13.306-.124.468a.451.451 0 0 0 .105.256c.04.05.087.102.145.135.03.016.061.028.095.031.036.003.075-.012.11.005.021.01.039.03.048.053l.001.006c.014.046-.008.08-.008.08a.1.1 0 0 1-.071.048.24.24 0 0 1-.038.003c-.11 0-.53-.166-.733-.319a8.841 8.841 0 0 0-.684-.458c-.078-.036-.245-.08-.278-.003-.037.087.107.158.165.188.107.056.209.127.297.209.097.09.364.3.397.36.034.06.06.176-.075.176-.134 0-.224-.045-.308.053-.083.099-.107.129-.192.055a15.1 15.1 0 0 1-.305-.336c-.04-.044-.193-.094-.292-.051-.056.025-.08.08-.096.136-.037.123-.095.252-.092.382.002.1.024.14.04.188.016.048.14.227.318.236.156.008.332-.031.398-.044a.06.06 0 0 1 .06.023l.001.001c.02.03.04.08.059.119.022.045.088.185.149.252.04.04.086.022.086.022ZM24.386 53.896c-.011-.008-.016-.02-.016-.02a.05.05 0 0 1 .005-.046.137.137 0 0 1 .086-.063c.049-.01.054.021.069.086.015.065-.01.092-.036.101-.025.01-.073-.033-.108-.058Zm.598-.068a.049.049 0 0 0-.062-.009c-.04.025-.041.076-.07.112-.1.127-.193.262-.277.402l-.012.02c-.017.034-.05.059-.043-.006.008-.065.132-.348.128-.477-.004-.13-.008-.246-.08-.285-.035-.02-.052-.117-.057-.19a.17.17 0 0 1 .112-.169.27.27 0 0 1 .04-.01c.022-.005.045-.014.052-.037.005-.015.005-.03.008-.045.006-.028.064-.09.038-.117-.024-.026-.092-.001-.125.031a.704.704 0 0 1-.216.092c-.03.004-.12.039-.169.024 0 0-.1-.032-.116.052-.015.084.07.18.131.172.062-.008.127-.055.14.006.014.061.063.182.02.206-.045.024-.24.12-.243.307v.01c0 .005.003.028.025.04.026.015.05 0 .05 0 .031-.015.064-.034.082-.018.043.037.127.12.125.197-.003.077-.08.38-.085.45-.005.09-.016.179.087.196.08.014.142-.05.164-.159.023-.11.436-.569.408-.669a.351.351 0 0 0-.055-.126ZM24.931 52.874l-.002-.006a.066.066 0 0 0-.013-.023c-.017-.017-.058-.017-.08-.012-.03.006-.045.028-.048.057-.007.1.131.443.238.493.106.05.13-.051.069-.212a.6.6 0 0 0-.074-.135c-.024-.033-.05-.065-.07-.1-.011-.02-.013-.041-.02-.062ZM25.567 52.827c-.01.012-.025.023-.041.018-.016-.005-.027-.02-.035-.034a.572.572 0 0 1-.05-.2c-.001-.02-.002-.04.004-.058.004-.013.015-.023.026-.032a.143.143 0 0 1 .095-.032c.006.001.013.002.02.005.058.02.066.239-.018.333Zm-.181.307a.017.017 0 0 1 .005-.003h.007c.017.005.03.025.04.04.01.016.018.034.024.052.012.038.015.094-.023.119-.043.027-.07-.065-.074-.092a.21.21 0 0 1-.001-.063c.002-.014.008-.043.022-.053Zm.607-.513s.108-.192-.086-.328l-.01-.006c-.278-.158-.726.055-.83.163a.084.084 0 0 0-.008.102s.02.04.073.04c.047 0 .1-.017.127-.02.037-.006.072.061.08.12a.106.106 0 0 1-.045.096c-.064.044-.178.138-.078.19.116.062.027.297-.03.487-.033.113.105.097.26.042.013-.002.05-.005.06.04.018.09.03.198-.004.228 0 0-.223.167-.133.266.091.098.233.163.188.277-.046.114-.083.296.096.313.078.008.24-.01.384-.052a.4.4 0 0 0 .219-.103l.002-.002.003-.004c.022-.026.027-.045.027-.045.032-.085-.034-.147-.034-.147-.17-.174-.479-.003-.428-.107.053-.11.222-.286.099-.383a.39.39 0 0 0-.192-.085s-.035-.004-.042-.04l-.037-.21c-.005-.036.024-.052.024-.052.02-.01.039-.022.055-.032.167-.107.056-.209-.037-.281-.014-.011-.017-.024-.017-.024a.05.05 0 0 1 .002-.035c.041-.083.23-.244.312-.408ZM20.88 56.117a.196.196 0 0 1-.06.033c-.024.007-.084.018-.126-.052-.042-.07-.01-.182.075-.201a.118.118 0 0 1 .136.075.149.149 0 0 1 .004.105.102.102 0 0 1-.029.04Zm.948-.373c-.026-.017-.052 0-.052 0-.056.028-.118.05-.165.094a.426.426 0 0 0-.098.167c-.037.1-.07.235-.148.341a.108.108 0 0 1-.067.04s-.037.008-.077-.02a.493.493 0 0 1-.087-.086c-.017-.022-.021-.052-.021-.052-.004-.046-.006-.121-.139-.283a.617.617 0 0 1-.149-.279c-.011-.08.024-.146.024-.146.029-.06.055-.14.003-.195-.027-.03-.064-.002-.09.016-.028.02-.058.047-.092.054-.055.01-.134-.004-.254-.129a.545.545 0 0 1-.046-.054c-.066-.095-.053-.204.008-.296a.385.385 0 0 0 .062-.147c.006-.038.008-.087-.022-.116-.105-.1-.198-.023-.22-.01-.024.015-.097.094-.149.145a.173.173 0 0 1-.198.03.449.449 0 0 1-.083-.058c-.14-.12-.222-.134-.325-.042-.104.092-.099.158-.005.17.01.002.022.004.034.004.095.006.229-.017.298.058.061.067.051.1.017.183a5.086 5.086 0 0 0-.13.438c-.01.044-.02.095-.032.169a.418.418 0 0 1-.053.15c-.022.037.021.043.05.043.027 0 .07-.003.09-.025.037-.042.034-.277.082-.437.039-.127.047-.223.096-.29a.14.14 0 0 1 .186-.032.35.35 0 0 1 .024.017c.055.042.066.123.036.195-.017.04-.026.075.024.088a.023.023 0 0 0 .01 0c.024-.002.042-.046.054-.063.016-.021.038-.04.066-.034.069.015.182.136.203.167.02.03.076.15.024.263a.615.615 0 0 0-.052.334.25.25 0 0 0 .111.15l.003.002c.04.024.085.038.131.046a.85.85 0 0 0 .132.011c.034.001.068 0 .102.002.021.002.041.007.062.012.024.007.049.011.072.022a.17.17 0 0 1 .101.144s.007.071-.045.125a.312.312 0 0 1-.22.097 1.975 1.975 0 0 1-.431-.051s-.239-.07-.344.005a.083.083 0 0 0-.03.031c-.005.01-.001.017.01.026.055.042.14.054.205.07.115.025.232.041.347.06.102.018.208.04.311.031h.01c.129-.015.268-.039.372-.143.086-.087.237-.391.303-.554a.374.374 0 0 1 .046-.083c.021-.028.045-.053.061-.086.012-.024.022-.049.032-.074a.673.673 0 0 0 .045-.17c.002-.032-.023-.045-.023-.045ZM31.133 54.646c.003-.05-.05-.114-.086-.145-.088-.074-.216-.068-.325-.074-.081-.005-.174.002-.254-.017a.158.158 0 0 1-.055-.026.11.11 0 0 1-.039-.09.205.205 0 0 1 .027-.082c.076-.138.188-.339.146-.484a.29.29 0 0 1-.01-.056c0-.042.017-.058.017-.058a.087.087 0 0 1 .063-.033c.017 0 .034.002.052.006.083.019.396.009.324-.089-.071-.097-.198-.224-.29-.23-.094-.006-.412.021-.718-.055 0 0-.032-.005-.067-.004h-.004a.064.064 0 0 0-.051.104l.002.003c.11.123.324.21.41.238 0 0 .11.031.097.158a.478.478 0 0 1-.03.102c-.024.057-.043.119-.064.178-.016.046-.147.385-.45.328a.647.647 0 0 1-.112-.04c-.181-.08-.232-.152-.284-.253-.052-.101-.11.194-.015.29.095.095.23.205.527.225.298.02.886.097 1.073.157.026.008.047.01.062.008h.003a.051.051 0 0 0 .015-.007.063.063 0 0 0 .035-.054ZM34.987 57.514c.07-.096.077-.254.085-.367a.884.884 0 0 0-.052-.398c-.053-.13-.12-.254-.15-.392 0 0-.015-.05-.043-.085a.069.069 0 0 0-.074-.018.067.067 0 0 0-.045.06c-.002.037.007.083.015.128.017.101.006.398-.05.61-.057.212.012.45.1.518.04.032.119.075.214-.056ZM34.87 55.924a.217.217 0 0 1 .125.023c.054.027.106.07.163.103.104.059.213.108.312.178.046.032.089.08.146.092a.109.109 0 0 0 .124-.066c.025-.061.016-.172-.128-.312-.114-.11-.268-.17-.303-.199a1.063 1.063 0 0 1-.07-.062.266.266 0 0 1-.073-.243c.033-.097.047-.173-.049-.227-.1-.057-.173.144-.197.175-.024.031-.047.043-.088.014a36.593 36.593 0 0 0-.442-.289.091.091 0 0 0-.089.001s-.051.026-.046.09a.15.15 0 0 0 .003.02c.02.091.227.298.299.408.006.01.02.04.01.074a.094.094 0 0 1-.042.055c-.048.026-.115.041-.153.051-.03.007-.114.02-.207.033-.144.02-.292.028-.437.01a1.075 1.075 0 0 1-.214-.049c-.062-.02-.145-.049-.21-.037h-.005a.092.092 0 0 0-.059.026.092.092 0 0 0-.028.071c.01.108.167.154.218.178.048.023.095.043.149.06.06.019.243.06.397.042.18-.02.362-.037.536-.092a4.93 4.93 0 0 0 .338-.123.371.371 0 0 1 .02-.005Z"/></g><defs><filter id="a" x="-13" y="0" width="154" height="157" filterUnits="userSpaceOnUse" color-interpolation-filters="sRGB"><feFlood flood-opacity="0" result="BackgroundImageFix"/><feColorMatrix in="SourceAlpha" values="0 0 0 0 0 0 0 0 0 0 0 0 0 0 0 0 0 0 127 0" result="hardAlpha"/><feOffset dy="16"/><feGaussianBlur stdDeviation="6.5"/><feColorMatrix values="0 0 0 0 0 0 0 0 0 0 0 0 0 0 0 0 0 0 0.03 0"/><feBlend in2="BackgroundImageFix" result="effect1_dropShadow_49_3685"/><feBlend in="SourceGraphic" in2="effect1_dropShadow_49_3685" result="shape"/></filter></defs></svg>