<svg width="128" height="128" fill="none" xmlns="http://www.w3.org/2000/svg"><path fill-rule="evenodd" clip-rule="evenodd" d="M28.713 49.805c-7.838 0-14.195 6.357-14.195 14.195s6.357 14.195 14.195 14.195c7.839 0 14.195-6.357 14.195-14.195s-6.356-14.195-14.195-14.195Zm0 3.51C22.814 53.316 18.03 58.1 18.03 64s4.784 10.684 10.683 10.684c5.9 0 10.684-4.784 10.684-10.684 0-5.9-4.784-10.684-10.684-10.684Zm0-.317c-6.075 0-11.002 4.927-11.002 11.002 0 6.076 4.928 11.002 11.002 11.002 6.075 0 11.002-4.926 11.002-11.002 0-6.075-4.927-11.002-11.002-11.002Zm.995 14.675v1.321c.586.58 1.137.953 2.026 1.058l-.016-2.38h-2.01Zm2.909.008v2.383c.49-.097 1.1-.31 2.002-1.079v-1.3l-2.002-.004Zm.009-.98h1.993v-1.557h-1.993V66.7Zm-2.919-1.544.002 1.537 1.99-.01.019-1.527h-2.01Zm-1.465-7.487v.836l1.472.024v1.076l2.292.974 2.443-.963.024-1.104 1.253-.023c.069 1.03.461 2.258.837 2.739.213.257.879-.074.601-.34-.318-.422-.436-.657-.582-1.385-.076-.253.094-.92-.25-1.13-.086-.014-.527.137-.505-.063v-.608l-7.585-.033Zm-6.56 4.451c.132 2.271.089 4.4-.258 8.472l1.308.055c.235-3.08.404-6.054.257-8.523l-1.306-.004Zm-.102-2.192-.005 1.272 2.253-.008-.01 10.096 1.417.02.112-10.12 2.277-.005.002-1.267-6.047.012Zm.056-1.032h5.85v-1.132h-5.85v1.132Zm4.323 3.328.162 8.526 1.418-.061-.21-8.482-1.37.017Zm2.667-2.323.024 2.282c1.583 1.912 5.818 1.169 6.735-.06l-.011-2.246c-.343-.096-.88-.043-1.246.033l.008 1.553c-.833 1.122-3.632 1.053-4.269.01l-.015-1.572c-.237-.126-.989-.103-1.226 0Zm-.216 4.25v4.831c.816 2.817 6.34 3.315 7.504 0l-.022-4.858-7.482.027Zm.303-10.186c-5.54 0-10.034 4.493-10.034 10.034s4.494 10.034 10.034 10.034c5.542 0 10.035-4.493 10.035-10.034s-4.493-10.034-10.035-10.034ZM16.097 64.614a.686.686 0 1 0 0 1.371.686.686 0 0 0 0-1.37Zm25.16-.131a.686.686 0 1 0 .002 1.371.686.686 0 0 0-.001-1.371Zm-.312-1.947.842.335a.524.524 0 0 1 .183.104c.03.04.058.1.081.181l.112-.022-.132-.682-.112.023.007.033c.015.082.007.137-.026.167-.034.022-.093.018-.177-.012l-.59-.233.514-.576c.04-.038.076-.049.11-.032.027.018.047.06.06.127l.009.045.112-.022-.183-.939-.112.022.005.022a.37.37 0 0 1 .007.161.313.313 0 0 1-.092.123l-.696.773-.403.078c-.132.034-.213-.025-.242-.173l-.016-.078-.111.022.191.983.112-.022-.009-.045c-.042-.178.013-.273.165-.287l.391-.076Zm.308-2.572.117.32c.041.115.05.193.025.234-.02.039-.098.1-.237.183l.04.107.497-.23-.034-.095c-.054-.014-.088-.05-.101-.11l-.476-1.305a.266.266 0 0 1-.016-.08.265.265 0 0 1 .024-.068l-.031-.086-.534.134.043.118c.16-.026.26-.03.3-.012.045.015.087.076.126.184l.12.331-1.25.456c-.134.056-.228.01-.282-.14l-.036-.096-.106.039.358.984.107-.039-.023-.064c-.07-.169-.03-.272.117-.31l1.252-.455Zm-.953-2.261.016.03c.075.131.044.229-.095.291l-1.035.527c-.118.07-.211.036-.28-.099l-.016-.03-.101.05.418.823.101-.052-.02-.04c-.079-.14-.05-.24.09-.301l1.025-.523c.128-.065.227-.03.295.105l.02.04.102-.051-.418-.822-.102.051Zm-2.248-.47.044.067c.034-.005.057.003.07.021a.522.522 0 0 1 .038.098c.062.16.121.281.176.363.229.313.49.387.784.226a.555.555 0 0 0 .226-.358 1.804 1.804 0 0 0-.01-.544c-.024-.267.005-.428.087-.483.115-.06.225-.02.329.121.125.199.107.405-.054.613l.064.095.356-.308-.033-.048c-.014-.008-.02-.01-.015-.003-.026-.01-.043-.022-.051-.034a.53.53 0 0 1-.026-.08 1.381 1.381 0 0 0-.157-.333c-.227-.296-.469-.37-.727-.224-.207.195-.27.443-.186.744.059.262.02.457-.113.584-.16.09-.3.051-.42-.114-.137-.202-.11-.42.078-.658l-.064-.094-.396.35Zm.189-2.496-.636.553.074.086c.25.286.478.334.685.144.201-.185.195-.406-.018-.663l-.105-.12Zm-.722.627.15.172c.004.097-.018.256-.066.48a2.29 2.29 0 0 0-.062.31.605.605 0 0 0 .045.278c.048.078.13.183.244.315l.12.138.068-.06a.526.526 0 0 1-.117-.411c.007-.086.026-.21.06-.368a2.19 2.19 0 0 0 .06-.4c.24.163.453.17.635.02a.445.445 0 0 0 .16-.319c.024-.191-.101-.44-.376-.744-.07-.08-.18-.196-.331-.346a5.682 5.682 0 0 0-.203-.217.307.307 0 0 1-.06-.052l-.087.075.038.043c.12.127.118.234-.006.322l-.868.755c-.11.105-.22.089-.328-.047l-.03-.035-.086.074.665.766.086-.075-.06-.068c-.1-.116-.095-.22.014-.315l.335-.291Zm-.522-1.639c.1.056.102.167.006.332l.09.069.227-.357-1.282-.966-.069.09.027.02c.145.1.17.205.077.315l-.706.937c-.08.12-.182.128-.305.027l-.09-.069-.07.091 1.4 1.056.303-.344-.091-.068c-.159.147-.306.16-.442.038l-.392-.295c-.075-.039-.076-.1-.002-.187l.316-.418.346.26c.166.107.195.214.086.322l.09.069.35-.464-.091-.069c-.081.12-.18.13-.296.033l-.382-.288.39-.518.51.384Zm-3.146-.006.167.074 1.126-1.044c.166-.168.31-.215.436-.142l.011.004.046-.104-.676-.3-.046.103.062.029c.143.07.177.144.101.218l-.84.798-.018-1.08c-.004-.102.014-.163.058-.186.043-.022.12-.009.23.04l.042.02.047-.105-.926-.412-.046.104.02.01c.076.034.126.072.148.115.02.034.03.11.037.228l.02 1.63Zm-1.334-2.322.032.011c.147.04.193.13.139.273l-.36 1.104c-.034.133-.124.175-.268.129l-.032-.01-.035.107.876.285.036-.108-.044-.014c-.153-.042-.204-.135-.15-.277l.357-1.093c.044-.137.138-.182.283-.136l.043.014.035-.108-.877-.285-.035.108Zm-2.239-.18 1.174 1.627.159.022.215-1.535c.008-.105.093-.143.258-.113l.033.005.016-.113-.744-.104-.015.113.033.005c.12.017.194.042.22.076.026.034.03.104.016.21l-.122.868-1.012-1.396-.586-.082-.016.113c.09.012.163.042.218.088l-.188 1.331c-.009.121-.089.172-.238.15l-.023-.003-.016.112.7.098.015-.112c-.205-.014-.288-.106-.249-.277l.152-1.082Zm-1.444-.39h.045c.167-.007.247.09.239.296v.705c-.008.35-.198.529-.57.536-.34-.007-.516-.167-.522-.479v-.865c0-.129.067-.193.204-.193h.045v-.114h-.91v.114h.056c.145-.007.213.057.206.193v.865c.007.433.291.654.853.662.54-.008.813-.259.82-.752v-.73c-.007-.166.08-.245.262-.238h.023v-.114h-.751v.114Zm-5.552 1.068.042-.02c.146-.08.26-.027.344.16l.31.635c.146.317.054.56-.278.73-.31.144-.537.078-.68-.2l-.379-.777c-.057-.116-.024-.204.1-.264l.04-.02-.05-.103-.819.4.05.103.052-.025c.126-.07.215-.043.268.084l.38.777c.196.386.548.46 1.056.22.482-.244.618-.589.408-1.035l-.32-.656c-.08-.146-.036-.256.131-.328l.02-.01-.049-.103-.676.33.05.102ZM20.55 54.43c.386.44.761.537 1.127.29.286-.252.284-.573-.004-.965-.386-.43-.755-.522-1.104-.278-.286.261-.293.58-.02.953Zm-.25.378c.399.41.863.42 1.389.034.522-.453.606-.935.249-1.448-.393-.425-.858-.443-1.394-.058-.52.47-.6.96-.245 1.472Zm-.276 1.469.088.073.6-.715-.087-.073-.03.034c-.097.127-.2.14-.311.036l-.89-.747c-.116-.087-.122-.186-.018-.297l.036-.044-.088-.073-.6.715.088.073.015-.017c.101-.133.208-.147.32-.044l.348.293-.622.741-.357-.3c-.116-.087-.12-.19-.011-.307l.029-.034-.087-.074-.601.716.088.073.03-.035c.092-.11.19-.121.295-.034l.89.746c.11.094.12.195.026.306l-.028.034.087.074.6-.716-.087-.072-.03.034c-.098.117-.202.128-.313.036l-.4-.337.622-.742.393.33c.115.097.128.201.035.312l-.03.035Zm-1.387 1.001-.057.1c.132.119.21.212.233.278.024.066.01.142-.04.228l-.448.778-.643-1.87-.139-.08-.843 1.46.413.265.057-.1c-.19-.126-.237-.263-.144-.41l.393-.68.643 1.869.138.08.922-1.598-.485-.32Zm-2.351 2.156.016-.042c.056-.158.177-.195.364-.11l.655.264c.321.137.415.38.283.729-.135.313-.348.415-.64.306l-.802-.325c-.12-.048-.154-.135-.102-.262l.016-.042-.105-.042-.342.844.106.042.022-.053c.047-.137.132-.175.256-.117l.802.324c.404.155.715-.026.932-.544.196-.503.065-.85-.389-1.042l-.676-.273c-.158-.056-.199-.166-.124-.332l.01-.022-.106-.042-.283.697.107.042Zm-.739 2.75.09-.562c.003-.122.095-.17.275-.14l.016-.102-.405-.065-.23 1.452.101.016.006-.034c.013-.129.105-.176.276-.14l1.158.182c.121.013.168.077.143.196l-.008.045.113.018.135-.855-.112-.018-.01.057c-.007.144-.1.195-.277.152l-.461-.073.07-.45c.016-.144.094-.2.235-.17l.018-.114-.573-.09-.018.113c.152.008.207.101.163.279l-.064.405-.64-.101Zm21.802 12.249c-.05.05-.303.19-.01.204.202-.013.204-.13.224-.15.022-.043.005-.28-.214-.054Zm-1.467-1.816c-.018.04-.027.123-.011.153.01.02.025.032.045.038.011.003.014.006.023.013.033.027.072.029.121.03.08 0 .115.023.19-.018.108-.053.115-.275.21-.417.089-.22.166-.119.16-.031-.023.308-.13.61-.226.835-.13.306-.448.881-.388.993.146.286.375.158.345-.011-.011-.094-.004-.153.057-.276.102-.215.254-.513.384-.713.194-.36.508-.307.527-.032-.064.426-.224.365-.485.587-.247.348-.03.279.057.198l.023-.018.017-.014c.196-.172.144.187.135.308-.002.024-.003.028.008.047.062.103-.005.156-.143.26a.08.08 0 0 1-.018.011c-.164.065-.122.166-.076.211.006.006.008.008.018.008.109.006.191.03.287.044l.012.003c.103.031.194.012.291.019.183-.008.372-.178.396-.438.014-.225-.167-.251.059-.402.15-.124.258-.366-.04-.312a.035.035 0 0 0-.015.005c-.07.04-.11.129-.288.268l-.03.025c-.074.07-.26.194-.217-.117v-.016c-.002-.21.033-.22.105-.31.201-.295.249-.899-.151-.889-.13.005-.412.233-.315-.069.01-.04.006-.067.017-.132v-.014c-.002-.198.094-.505-.159-.444l-.01.002c-.038 0-.055-.007-.102.01a.802.802 0 0 0-.272.227.121.121 0 0 1-.036.043c-.107.084-.15.188-.323.228-.067.025-.139.014-.182.107Zm-.255.282c-.047.079-.018.186.002.232.005.01.007.02.01.03.033.134.104.113.177.105.12-.017.18-.018.204-.186.017-.08.044-.158-.085-.19l-.023-.007c-.025-.012-.052-.013-.092-.018-.007 0-.01 0-.014-.004-.033-.02-.096-.027-.159.018a.067.067 0 0 0-.02.02Zm-15.02-.824c-.029.047.007.062.02.085.016.04.003.062.019.123.003.014.005.054.019.085l.002.006c-.004.076.007.088.018.129 0 .002 0 .003.003.005.008.013.03.026.067.038.004 0 .008.002.012.005.047.027.12.051.174.034.022-.008.034-.037.031-.052l-.002-.009c.002-.06-.028-.083-.028-.12l-.001-.01c-.006-.035-.017-.073-.023-.109-.001-.006-.002-.007-.006-.012-.048-.061-.09-.123-.156-.189l-.008-.004c-.085-.046-.112-.027-.134-.01a.018.018 0 0 0-.004.002l-.003.003Zm.358.67c-.202-.025-.509-.004-.728-.041h-.012a.53.53 0 0 1-.243-.015l-.012-.008c-.136-.058-.074-.107-.134-.157l-.003-.002c-.029-.015-.079-.022-.126.035l-.002.004c-.082.155-.063.305-.012.346l.01.01c.063.069.163.074.222.076l.005.001.003.001c.057.026.034.059-.001.094l-.006.004a.369.369 0 0 1-.115.035l-.007.001a.824.824 0 0 1-.433.068c-.19-.014-.312-.076-.458.075a.055.055 0 0 0-.008.01c-.073.13-.073.207-.04.235.062.062.206-.005.304-.025.002 0 .003 0 .004-.002.061-.017.092-.026.16-.012.157.05.058.143.009.174-.258.183-.241.324-.202.374a.043.043 0 0 0 .007.006c.065.05.107.023.145.007l.011-.005c.02-.014.045-.022.064-.04a.055.055 0 0 1 .016-.01c.015-.01.018-.018.026-.023l.011-.008c.012-.007.03-.012.043-.022.008-.006.016-.01.022-.017.07-.066.055-.1.171-.238.013-.015.023-.026.032-.042.07-.12.137-.029.186.025.017.018.035.033.05.052.044.056.088.04.133.046h.011c.074-.007.26-.039.23-.167-.033-.07-.101-.015-.154-.014-.009 0-.017.002-.026.003-.068.006-.159-.03-.132-.14l.001-.004c.006-.038 0-.071.042-.116l.004-.003a.21.21 0 0 1 .072-.043c.06-.018.095-.022.194-.06l.013-.002c.043-.002.075-.03.115-.037.025-.002.034-.007.052-.015.023-.015.05-.026.075-.038l.01-.002c.02-.005.033-.008.056-.02l.004-.002a.594.594 0 0 1 .109-.056c.086-.049.375-.096.35-.197l-.003-.005c-.025-.045-.019-.07-.11-.093h-.005Zm.979.448c-.032-.104-.1-.082-.147-.091l-.007-.001c-.145-.001-.256.028-.338.003-.113-.041-.189-.21-.317-.137a.026.026 0 0 0-.008.006c-.05.06-.022.122.022.161.038.034.089.034.105.066.03.05-.02.072-.043.082-.063.032-.087.06-.1.064l-.008.001c-.032.01-.066.007-.095.033a.976.976 0 0 0-.151.06c-.032.02-.084.025-.126.037-.028.013-.044.012-.068.02-.034.015-.07.037-.095.041a.04.04 0 0 0-.015.005c-.035.02-.066.03-.106.061-.064.041-.103.09-.16.1a.026.026 0 0 0-.013.007c-.077.063-.117.126-.237.19-.073.046-.159.124-.22.14-.008.003-.01.004-.015.01-.11.109-.1.244-.062.276.075.066.188-.115.273-.182.067-.058.144-.079.213-.13.07-.053.147-.16.195-.187.117-.071.249-.137.366-.161.086-.018.324-.078.274.066-.03.046-.117.084-.175.126-.104.096-.13.086-.195.128-.095.134-.034.243.017.246.312.094.503.11.451.37-.185.314-.282.338-.459.456-.137.038-.35.054-.39-.064.03-.07.078-.058.115-.106.014-.028-.018-.073.013-.103.045-.05.064-.041.13-.08.083-.05.173-.11.118-.185-.063-.21-.284-.127-.39-.122-.038 0-.08.01-.098-.056-.005-.022-.02-.063-.09-.07-.075-.017-.139.067-.192.115-.024.023-.062.062-.062.089.002.068.012.18.038.208.052.052.113.053.172.084.06.045-.004.101-.073.105-.043.002-.13-.014-.137.029.007.053.095.062.124.069.07.017.072.072.07.103v.005c.01.106.056.136.118.18a.01.01 0 0 0 .005.002c.118.057.264.068.449.04a.399.399 0 0 0 .24-.13.076.076 0 0 1 .022-.014.37.37 0 0 0 .122-.096l.006-.006c.047-.035.102-.075.137-.121.11-.149.31-.259.211-.513-.087-.206-.255-.2-.383-.297l-.006-.006a.056.056 0 0 1 0-.075l.006-.005c.022-.015.04-.01.07-.018a.22.22 0 0 0 .087-.047c.037-.035.017-.082.088-.117.079-.041.213-.048.213-.151.003-.046-.013-.078-.104-.127-.05-.028-.103-.05-.11-.092-.007-.055.064-.05.1-.073l.006-.002a.601.601 0 0 0 .156-.055c.075-.027.184-.034.283-.04.105-.008.199-.017.18-.124Zm2.28 2.675c-.03.066-.021.12-.03.179 0 .005 0 .008.002.013.047.192.166.115.202.039a.356.356 0 0 0 .038-.233c-.003-.053-.079-.2-.211.002Zm-.038-.43c-.04.057-.024.095-.116.171-.07.118.037.096.09.061.046-.031.017-.048.137-.095.081-.095-.035-.23-.111-.137Zm.062-1.175c-.078-.053-.228.095-.337.163-.02.012-.026.02-.04.037-.09.109-.25.195-.374.294a.058.058 0 0 0-.015.014c-.114.132-.249.316-.365.406a.09.09 0 0 1-.016.01c-.199.106-.514.27-.613.616a.086.086 0 0 0-.002.02c-.002.066-.01.175.085.205.007.002.01.003.015-.003.024-.028.08-.171.117-.247a1.51 1.51 0 0 1 .231-.248c.022-.017.086-.047.116.022.012.035.048.081.138.028a.547.547 0 0 0 .114-.109.069.069 0 0 0 .012-.021.381.381 0 0 1 .08-.119c.046-.046.114-.116.244-.131.204-.016.424.05.345.173a.12.12 0 0 0-.008.012c-.152.275-.413.453-.593.585-.398.238-.495.246-.602.136-.05-.045-.132-.051-.173-.05-.018 0-.023.007-.031.021-.064.117-.023.18.007.216a.74.74 0 0 1 .022.03c.099.157.314.152.42.135l.012-.004c.344-.123.534-.208.837-.547a.325.325 0 0 1 .055-.06c.067-.044.121-.086.078.061-.032.073-.087.173-.038.296a.343.343 0 0 1 .025.101c.005.039.017.08.045.12.01.017.023.031.034.047.011.016.022.032.034.046.103.11.273-.04.324-.105a.47.47 0 0 0 .14-.326c.01-.18.119-.088.149-.018.005.013.01.023.019.036.16.255.18.738-.05.952-.25.256-.6.063-.61.13-.082.116.18.276.349.255.038-.004.082-.02.12-.034.197-.065.506-.254.487-.907-.036-.335-.168-.694-.459-.897a.406.406 0 0 1-.074-.133c-.044-.061-.084-.137-.156-.194a.304.304 0 0 1-.058-.11.055.055 0 0 1 .002-.03.344.344 0 0 0 0-.127l-.009-.044c-.01-.05-.043-.132-.114-.14-.068.008-.092.092-.094.127.104.18-.105.197-.227.074-.095-.062-.136.001-.204-.019-.026-.01-.079-.04-.003-.106.203-.213.747-.485.61-.64Zm1.378 1.373c-.04.107-.035.15-.04.227-.017.168-.113.17-.177.242-.144.13.007.134.08.106.016-.006.03-.015.046-.022.073-.036.133-.09.22-.106.028-.005.05-.007.075-.017.082-.032.225-.104.148-.173-.014-.011-.025-.018-.037-.031-.034-.04-.084-.086-.076-.158.001-.021.007-.034.002-.056-.039-.19-.193-.125-.24-.012Zm7.003-.525c.29.612.25.657.125.77-.035.031-.048.046-.093.057-.361.085-.302.202-.302.314 0 .025-.005.035.012.056.058.075.24.135.275.132.065-.002.14-.073.203-.063.099.04.07.165.072.321-.01.119.035.248.24.243.08-.013.114-.147.108-.171-.039-.164-.228-.59.023-.817a.219.219 0 0 0 .028-.028c.194-.223.399-.463.869-.686.02-.01.026-.011.036-.033.078-.15-.007-.313-.311-.3a.097.097 0 0 0-.048.01c-.098.049-.142.162-.218.261-.082.106-.199.197-.287.29-.093.08-.204.276-.288-.169-.006-.029 0-.043-.001-.07-.002-.078-.12-.21-.21-.31-.006-.006-.01-.012-.019-.017-.044-.03-.192-.113-.24.097-.012.05.004.068.026.114Zm1.173.896c-.059.315.238.396.374.425.036 0 .251-.067.245-.281-.013-.061-.085-.136-.32-.178-.102-.01-.257-.077-.3.034Zm-6.377-.082-.114-.01a1.407 1.407 0 0 1-.443.273l.027.06c.078-.015.163-.044.254-.084l-.08.915c-.005.048-.032.073-.082.075l-.13-.012-.007.074.67.058.007-.073-.14-.012c-.048-.005-.07-.037-.065-.096l.103-1.168Zm.773.402c-.017.229.028.342.138.34a.32.32 0 0 0 .174-.06c.014-.088.02-.162.023-.221.006-.252-.05-.379-.17-.382-.11-.008-.165.099-.165.323Zm-.133.947c.45-.09.695-.349.735-.775 0-.355-.146-.545-.436-.57-.262.015-.408.159-.438.431.01.246.126.381.35.404a.374.374 0 0 0 .215-.068c-.068.277-.226.45-.473.52l.047.058Zm1.117-.65.059.031a.353.353 0 0 1 .163-.044c.164.007.25.109.26.305-.007.176-.07.27-.19.283-.044 0-.086-.028-.125-.087-.04-.065-.084-.097-.134-.096-.066.002-.1.038-.104.11.013.097.11.147.29.148.322-.023.492-.177.507-.461-.023-.273-.178-.415-.468-.424a.622.622 0 0 0-.172.028l.003-.255.5-.01.027-.247-.065.001c-.005.028-.03.042-.073.043l-.467.01-.01.665Zm1.626-.458c-.028-.156-.109-.227-.238-.214-.113.022-.164.09-.153.204.01.115.118.201.32.26a.284.284 0 0 0 .07-.25Zm.142.75c.006-.112-.115-.205-.364-.28-.067.066-.09.155-.068.268.025.179.11.26.25.245.134-.03.195-.108.182-.234Zm.06-.788c-.05-.186-.198-.27-.443-.25-.236.05-.349.186-.339.406.014.13.107.235.278.315-.157.095-.226.21-.206.345.051.203.206.293.462.272.257-.054.382-.2.376-.435-.022-.147-.131-.255-.33-.326.157-.1.224-.209.202-.327Zm-2.296-26.842c8.124 0 14.713 6.589 14.713 14.713 0 8.124-6.589 14.713-14.713 14.713C20.59 78.713 14 72.124 14 64c0-8.124 6.589-14.713 14.713-14.713ZM48.432 51.822c.078.349.313.25.484.293.25.115.3.283.657.49.077.05.272.219.482.301.015.006.022.009.033.02.336.362.443.368.678.504a.09.09 0 0 0 .038.014c.1.015.263-.027.481-.14a.407.407 0 0 1 .077-.029c.35-.095.79-.317.958-.652.067-.133-.01-.33-.097-.379a.162.162 0 0 1-.044-.03c-.274-.29-.51-.256-.687-.425-.018-.016-.03-.03-.05-.042-.189-.13-.417-.263-.61-.392a.15.15 0 0 0-.086-.034c-.502-.058-.98-.146-1.587-.14a.193.193 0 0 0-.058.01c-.6.185-.64.395-.67.576l-.002.03.003.025ZM53.175 53.25c-1.048.816-2.365 2.334-3.541 3.172a.256.256 0 0 0-.06.059c-.47.617-1.01 1.004-1.182 1.055-.033.01-.057.01-.09.023-.9.357-.838-.151-1.342-.106a.095.095 0 0 0-.025.005c-.203.063-.465.258-.416.74.001.01.003.018.006.026.34 1.093 1.123 1.697 1.546 1.651h.085c.61.025 1.096-.412 1.383-.677a.088.088 0 0 1 .025-.018l.017-.01c.377-.144.424.114.43.438 0 .019 0 .03-.006.048-.108.318-.251.522-.373.694a.165.165 0 0 0-.02.037c-.524 1.292-1.24 1.962-1.683 2.312-.937.81-1.786 1.093-1.762 2.455 0 .033.005.057.013.09.263.936.621 1.29.895 1.262.57 0 .93-.977 1.29-1.524a.15.15 0 0 0 .011-.02c.2-.364.296-.547.678-.798.958-.495.924.386.843.757-.335 2.036.386 2.604.803 2.654a.166.166 0 0 0 .054 0c.534-.07.603-.39.705-.64a.383.383 0 0 0 .022-.074c.035-.158.104-.307.115-.479a.73.73 0 0 1 .018-.126c.026-.111.009-.162.017-.22.004-.028.012-.06.019-.088.02-.089.077-.19.094-.301.008-.058.029-.12.03-.178.008-.63-.218-.715-.32-1.888-.011-.12-.02-.224-.051-.34-.232-.874.5-.761.977-.743.157.006.31-.01.467.009.46.055.592-.226.823-.406a.281.281 0 0 0 .053-.05c.308-.371 1.018-1.38.292-1.83-.477-.16-.535.4-.776.646-.041.042-.071.089-.108.134-.284.341-.87.601-1.254-.035a.17.17 0 0 0-.013-.02c-.151-.208-.333-.324-.342-.727 0-.01 0-.02.002-.03.024-.272.052-.336.133-.536.19-.356.335-.535.621-1.17a.229.229 0 0 1 .044-.07c.185-.208.203-.484.364-.706.1-.122.12-.19.162-.301.044-.18.113-.357.177-.526a.275.275 0 0 1 .03-.058c.073-.114.121-.187.168-.35l.007-.025a3.33 3.33 0 0 1 .232-.715.364.364 0 0 0 .014-.043c.168-.625 1.276-2.18.696-2.526a.092.092 0 0 0-.033-.013c-.327-.086-.413-.23-.938.083a.177.177 0 0 0-.026.017Z" fill="#E50012"/><path fill-rule="evenodd" clip-rule="evenodd" d="M59.75 50.79c-.628-.33-.847.083-1.103.258a.176.176 0 0 0-.032.027c-.676.667-1.045 1.315-1.546 1.576-.705.327-1.834-.093-2.089.837a.143.143 0 0 0-.006.062c.044.507.46.662.846.64.331-.014.565-.252.789-.178.368.098.24.42.176.575-.135.44-.12.675-.168.754-.01.014-.018.025-.026.04-.1.195-.27.342-.29.591a.12.12 0 0 1-.02.057c-.155.261-.297.642-.4.916-.051.24-.267.503-.4.756-.068.192-.147.258-.218.406-.09.226-.155.49-.25.625a.27.27 0 0 0-.046.095c-.073.247-.163.447-.206.77-.105.489-.056.89-.277 1.203-.024.034-.026.047-.03.088-.058.646.046 1.122-.207 1.97-.125.547-.156 1.305-.365 1.667a.159.159 0 0 0-.027.104c-.002 1.014.678 1.587.995 1.562.643-.047.333-1.4.416-2.1.038-.575.297-1.03.375-1.581.078-.565-.063-1.413.032-1.765.213-.866.512-1.779.947-2.432.307-.478 1.125-1.852 1.559-.961.076.353-.147.927-.22 1.39-.034.92-.202.993-.303 1.49.175 1.059.964 1.276 1.21 1.053 1.87-1.007 2.82-1.817 3.792-.377.595 2.3.262 2.854-.008 4.21-.452.81-1.362 1.87-2.09 1.507-.186-.459.092-.622.033-1.014-.064-.195-.417-.25-.413-.533-.018-.44.106-.49.23-.969.156-.612.288-1.307-.314-1.396-1.258-.678-1.896.729-2.36 1.246-.165.173-.329.408-.706.188-.128-.08-.377-.202-.732.092-.429.263-.335.952-.36 1.424-.005.216.004.566.13.688.32.307.883.777 1.134.783.474.004.765-.277 1.177-.406.492-.073.453.483.152.812-.191.216-.66.538-.498.772.282.212.733-.153.894-.254.394-.25.66-.003.799.152a.128.128 0 0 0 .02.021c.535.436.884.368 1.366.283a.21.21 0 0 0 .04-.01c.81-.286 1.529-.91 2.248-1.896.376-.601.505-.892.514-1.707.001-.069.005-.103.03-.166.122-.323.148-.721.118-1.005a.19.19 0 0 1 0-.057c.054-.374.124-.816.07-1.189-.184-1.19.226-2.616-1.395-3.335-1.36-.544-2.1.259-3.143.406a.272.272 0 0 1-.052.003.369.369 0 0 1-.346-.395c.035-.172.146-.242.246-.415.085-.146.16-.362.18-.617.005-.33-.3-.453-.138-.944.176-.553.76-1.209.284-1.685-.2-.219-.42-.29-1.06-.099-.367.11-.707.247-.943.09-.277-.22.07-.53.127-.797a.091.091 0 0 1 .016-.039c.206-.322.331-.57.463-.971.223-.468.691-1.009 1.116-1.5.453-.522.84-.99.264-1.396ZM76.41 57.948c.23-.567 1.005-.088.758.5-.521.413-.355.453-.532.679-.2.25-.69.523-.53-.165.335-.509.203-.676.305-1.014Zm.85 2.045c.337-1.196.93-.59 1.032-.335.244.46.232 1.022.172 1.195-.06.432-.523.986-1.052.123a.13.13 0 0 1-.022-.064c-.05-.302-.184-.552-.13-.919Zm-2.345-7.885c-.466-.139-.972.813-1.403 1.317-.074.085-.094.135-.137.239-.275.67-.92 1.34-1.375 2.01a.556.556 0 0 0-.053.097c-.356.82-.734 1.922-1.161 2.543a.514.514 0 0 1-.064.076c-.81.819-2.095 2.104-2.047 3.95.001.04.006.066.016.103.09.323.219.87.73.867.037 0 .05.001.066-.035.08-.174.13-.961.197-1.391.04-.261.381-.916.75-1.566.078-.116.344-.36.597-.066.113.148.358.319.719-.08.178-.258.285-.424.39-.703a.425.425 0 0 0 .028-.123c.021-.2.092-.512.206-.703.155-.3.379-.748.992-1.017.974-.39 2.153-.406 1.953.316a.923.923 0 0 0-.018.07c-.322 1.578-1.325 2.85-2.006 3.77-1.58 1.774-2.04 1.963-2.733 1.593-.314-.148-.725-.05-.921.016-.09.03-.1.07-.118.154-.14.67.16.912.361 1.046.054.036.105.07.156.114.727.613 1.766.26 2.259.009.02-.01.035-.021.053-.034 1.496-1.128 2.29-1.837 3.254-3.96.08-.193.122-.3.176-.378.26-.318.461-.604.476.179-.042.409-.161.976.272 1.507.136.168.182.259.275.457.084.179.202.362.403.519.078.06.16.111.236.172.08.06.157.124.242.171.67.38 1.272-.608 1.418-1.003.234-.457.413-1.2.187-1.812-.222-.898.445-.612.698-.319.05.058.09.098.15.149 1.179 1 2.015 3.329 1.215 4.733-.83 1.631-2.837 1.225-2.781 1.566-.22.694 1.302 1.077 2.096.714.181-.082.37-.23.533-.347.865-.619 2.087-2.023.993-5.184-.694-1.586-1.886-3.142-3.622-3.686-.225-.126-.407-.333-.566-.533-.308-.233-.624-.543-1.062-.708-.231-.164-.365-.312-.448-.45-.035-.059-.037-.087-.043-.153a1.712 1.712 0 0 0-.186-.619c-.039-.066-.074-.133-.112-.2-.13-.229-.42-.578-.772-.51-.326.146-.313.595-.264.763.778.724-.217 1.129-1.002.713-.561-.155-.66.214-1.026.22-.142-.008-.445-.076-.176-.514.667-1.352 2.91-3.518 1.999-4.06ZM83.757 56.706c-.028.586.057.791.148 1.172.18.85-.289 1.007-.492 1.452-.502.856.239.648.56.397.066-.052.123-.12.185-.18.304-.285.514-.637.919-.852.126-.067.225-.107.339-.198.35-.28.94-.855.452-1.072-.08-.037-.147-.052-.224-.099-.23-.138-.544-.29-.618-.652-.022-.111-.015-.174-.073-.277-.48-.875-1.136-.318-1.196.31ZM94.255 56.496c.042 3.137-.212 3.247-.957 3.48-.21.065-.291.105-.505.063-1.68-.339-1.663.264-1.876.734-.05.109-.087.142-.058.265.103.426.748 1.027.904 1.083.278.121.732-.033.976.132.342.361-.026.826-.316 1.488-.27.48-.331 1.111.546 1.486.354.1.762-.4.781-.51.154-.768.179-2.924 1.678-3.397a1.55 1.55 0 0 0 .17-.065c1.247-.567 2.575-1.177 4.979-1.208.106-.002.134 0 .219-.068.62-.49.578-1.337-.729-1.868a.5.5 0 0 0-.223-.05c-.507.017-.91.408-1.423.68-.547.29-1.218.443-1.767.666-.546.152-1.395.769-.89-1.27.033-.133.085-.18.133-.295.143-.332-.102-1.12-.284-1.71a.45.45 0 0 0-.046-.108c-.132-.213-.596-.849-1.202-.06-.144.188-.113.297-.11.532ZM97.466 62.53c-.856 1.213.24 2.13.758 2.515.151.067 1.185.205 1.577-.71.063-.285-.102-.736-1.007-1.367-.411-.24-.936-.82-1.328-.437ZM108.918 66.817c-.355.073-1.868-.155-.584 1.076.939.72 1.262.09 1.403.06.215-.157.767-1.508-.819-1.136Zm-1.803-15.649c.442-.334.735.007 1.104.138.889.456 1.353.059 2.059.019.134-.008.161-.022.278-.085.507-.27 1.136-.234 1.719-.197.039.003.069.01.107.023.261.087.316.201.488.34a.268.268 0 0 0 .051.032c1.305.664.057 1.956-.457 3.042a.468.468 0 0 1-.046.076c-.215.31-.269.47-.421.652-1.235 1.262.638 1.128 1.238 1.61 1.832 1.515.014 4.618-1.678 5.441-.563.209-.742.113-1.286 1.27a.75.75 0 0 1-.05.09c-1.014 1.519.154 1.579.671 1.489a1.63 1.63 0 0 1 .201-.023c1.166-.059 1.591-.385 2.011-.324a.187.187 0 0 1 .081.031c1.487.871.361 1.765-.648 1.857-1.419-.072-.675.785-1.33 1.956-.795 1.319-2.099 1.51-2.948.83-.421-.419-.878-.671-1.263-1.247a.444.444 0 0 0-.044-.057c-.393-.456-.704-.91-1.179-1.367-.042-.04-.049-.054-.061-.113-.09-.43-.014-1.141.902-.856a.274.274 0 0 0 .11.016c.897-.03 1.338-.051 1.336-.864-.001-.136.012-.16.083-.28.368-.62 1.555-2.373.21-2.212a.955.955 0 0 1-.115.009.963.963 0 0 0-.147.015c-.603.097-1.774-.38.267-1.306 1.767-.18 2.322.772 3.741-1.295.644-1.575-.632-3.087-2.459-1.892-1.121.58-2.595 1.61-3.62 2.381-.603.426-.791.718-.985 1.277-.318 1.042-1.689.84-1.589-1.288.023-.85 2.982-2.74 4.38-3.893 1.03-.843 2.31-2.08 3.231-3.664.259-.45.18-1.31-.802-.456-.811.4-1.425 1.579-2.055 1.447-.45-.067-.539-.332-.903-.647-.218-.194-.384-.357-.464-.636-.021-.073-.029-.103-.071-.164a.562.562 0 0 1-.103-.38c.008-.226.273-.649.456-.795Zm-1.895.542c-.425.242-.581.934-.608 1.273-.005.069-.02.126-.036.193-.205.859.171 1.029.517 1.273.591.378.867.606 1.418-.211.286-.378.616-.69.114-1.374a1.024 1.024 0 0 1-.081-.13c-.08-.159-.199-.273-.368-.452a.21.21 0 0 1-.053-.084.837.837 0 0 0-.761-.523.233.233 0 0 0-.142.035ZM110.564 77.288h.889V75.92l1.415-2.853h-.913l-.89 1.94-.867-1.94h-1.072l1.438 2.853v1.368Zm-5.321-3.513h1.254v3.513h.913v-3.513h1.255v-.708h-3.422v.708Zm-1.648 3.513h.913v-4.221h-.913v4.221Zm-1.054-3.012c-.045-.821-.524-1.254-1.437-1.3-1.125.061-1.711.525-1.757 1.392 0 .563.464.95 1.392 1.163a.658.658 0 0 0 .16.046c.533.108.798.305.798.594-.015.349-.296.532-.844.547-.471-.03-.708-.29-.708-.776h-.912c-.015.928.524 1.392 1.62 1.392 1.187-.03 1.787-.486 1.804-1.369.014-.578-.473-.966-1.462-1.164a.76.76 0 0 0-.114-.023c-.547-.075-.806-.273-.775-.593.014-.335.243-.517.684-.547.442 0 .669.212.684.638h.867ZM96.08 75.6h.958c.23 0 .359.183.388.548.016.395.069.776.16 1.14h.982c-.107-.167-.184-.501-.23-1.003a.582.582 0 0 0-.022-.137c-.03-.609-.281-.92-.753-.936v-.022c.564-.138.852-.48.867-1.028-.015-.714-.502-1.08-1.46-1.095h-1.802v4.221h.912V75.6Zm0-1.825h.754c.426-.016.639.16.639.524 0 .396-.213.594-.64.594h-.753v-1.118Zm-4.795 3.513h2.896v-.707h-1.984v-1.118h1.779v-.708h-1.78v-.98h1.918v-.708h-2.83v4.221Zm-3.246 0h.981l1.552-4.221h-.89l-1.095 3.332h-.023l-1.096-3.332h-.98l1.551 4.221Zm-3.199 0h.913v-4.221h-.913v4.221Zm-1.03 0v-4.221h-.846v3.308l-.022.023-1.597-3.331h-1.347v4.221h.845v-3.49l.022-.023 1.644 3.513h1.301Zm-5.87-4.221v2.305c.016.502-.045.843-.181 1.026-.138.214-.381.32-.731.32s-.6-.106-.754-.32c-.136-.183-.197-.524-.182-1.026v-2.305h-.912v2.647c.03 1.05.646 1.59 1.848 1.62 1.171-.03 1.78-.57 1.825-1.62v-2.647h-.913Zm-6.16 0v2.305c.015.502-.046.843-.182 1.026-.138.214-.381.32-.73.32-.351 0-.6-.106-.754-.32-.136-.183-.197-.524-.183-1.026v-2.305h-.912v2.647c.03 1.05.646 1.59 1.849 1.62 1.17-.03 1.78-.57 1.825-1.62v-2.647h-.912Zm-5.777.571c.7 0 1.05.517 1.05 1.552 0 1.019-.35 1.528-1.05 1.528-.716 0-1.072-.51-1.072-1.528 0-1.035.356-1.552 1.072-1.552Zm0 3.696c1.293-.03 1.962-.746 2.008-2.144-.046-1.446-.715-2.183-2.008-2.215-1.308.032-1.985.769-2.03 2.215.03 1.398.706 2.114 2.03 2.144Zm-5.503-.046v-1.847h1.618v1.847h.891v-4.221h-.913v1.666H60.5v-1.666h-.891v4.221h.89Zm-5.025 0h3.24v-.707h-2.122l2.076-2.806v-.708h-3.057v.708h1.962l-2.099 2.806v.707Zm-1.83-4.221v2.305c.016.502-.046.843-.183 1.026-.137.214-.38.32-.73.32s-.6-.106-.753-.32c-.136-.183-.197-.524-.181-1.026v-2.305h-.914v2.647c.031 1.05.646 1.59 1.849 1.62 1.17-.03 1.78-.57 1.825-1.62v-2.647h-.913Zm-5.457 4.221v-1.802h1.71v-.708h-1.71v-1.003h1.825v-.708h-2.715v4.221h.89Z" fill="#E50012"/></svg>