<svg width="128" height="128" fill="none" xmlns="http://www.w3.org/2000/svg"><g filter="url(#a)" fill-rule="evenodd" clip-rule="evenodd" fill="#C92B2F"><path d="M53.152 51.04s2.855.26 2.748 1.445c0 0-.15.373.037.574.074.074.618-.037 1.113-.186.336-.112.633-.335.693-.335 0 0 3.042-.652 1.541.849 0 0-1.291.148-2.7.887-.372.185-1.213.659-1.362.544-.074-.075-.03-.262.518-.79 0 0-.89.335-1.925.63-.336.073-.793.297-1.114.297-.372.028-1.08.187-1.232.021-.15-.187.54-.26 1.188-.61.547-.299.867-.69 1.076-1.227.111-.335.149-.573.015-.987-.112-.335-.149-.73-.6-1.099l.004-.013ZM52.61 56.823c.112.028.112.149.112.394-.01.112.026.224-.037.373 0 0 .406-.037 1.106-.51.92-.611 1.593-.927 2.11-.957.262-.016.504.111.701.185.299.075.563.112.75.224.222.15.11.395.073.582-.009.223.03.413-.223.528-.224.075-.548.007-.8.037-.336.038-.637.224-.843.038-.148-.111.075-.335.15-.596.111-.298.074-.298-.016-.373-.111-.037-.297-.111-.45-.023-.298.224-.559.656-.607.716-.443.529-1.013.77-1.586 1.044-.372.185-.812.185-1.17.335-.52.223-.946.588-1.407.737-.566.187-.551-.298-.03-.932.222-.297.614-.462.993-.774.15-.112.414-.384.67-.652.187-.187.336-.444.521-.395l-.016.02ZM47.589 68.425s.6-.187 1.31-.73c.299-.224.563-.645.898-.95.678-.615 1.37-1.401 1.925-2.12.432-.559.715-1.152.913-1.524.334-.596-.009-1.066-.38-1.583-.26-.384-.637-.738-.741-.913-.816-1.382.442-.186 1.101.298.534.395.679.757.753.764.075.008.075-.336.387-.865.298-.477.372-.883.499-1.025.075-.074-.074.035.61.437.828.495 1.289 1.568.62 2.235 0 .013-1.025.392-.299 1.21.149.187.726.787 1.34 1.555.417.525.768 1.173 1.348 1.598.63.462 1.337 1.114 1.944 1.308.738.223 1.292.335 1.08.473-.112.074-.335.112-1.467.297-.618.075-1.307.299-1.977.112-.67-.186-1.315-.74-1.754-1.423a27.22 27.22 0 0 1-1.002-1.974c-.335-.742-.599-1.475-.86-1.52-.335-.075-.5.517-.815.987-.38.566-.92.946-1.482 1.493-.533.515-2.67 2.013-3.355 2.098-1.374.187-.187-.447-.581-.223l-.015-.015ZM67.272 55.64s.678-.421 1.582-1.021c.45-.298.842-.752 1.363-1.155.872-.667 1.914-1.322 2.71-1.87.91-.626 1.718-.805 1.855-1.166 0 0 .652-.186 1.073-.037.26.074.335.503.39.77 0 0-.781.98-1.448 1.808-.484.604-.965 1.076-.76 1.3 0 0 .973.764.395 1.147 0 0-2.048 1.464-2.528.887 0 0 1.069-.607 1.262-1.334 0 0-.625-.432-.037-1.251 0 0 1.057-1.278 1.3-1.905 0 0-.906.63-1.758 1.313-1.028.819-2.264 2.048-2.714 2.261-.261.387-3.303.26-2.678.26l-.007-.007ZM65.56 60.18c.335.187.715.262.954.459.893.692 1.001 1.52.815 1.866-.15.26-.298.112-.484.112-.261-.01-.581.035-.73-.112-.075-.075.003-.372-.075-.67-.149-.69-.591-1.506-.484-1.643l.005-.012ZM66.778 65.629s-.03-.372.005-.76c.027-.298.186-.663-.112-.83 1.095.387 1.158 1.39.808 1.743-.149.149-.506-.26-.708-.149l.007-.004ZM64.093 65.54c-.007-.224.529.022 1.307.26.533.15 1.177.223 1.832.473.808.299 1.65.593 2.514.872 2.293.745 4.729 1.297 6.955.708 0 0 .186.779-1.475 1.17 0 0-.223-.034-.54.186-.394.261-.934.835-1.448 1.025-.562.224-2.126-1.24-4.201-2.348-.902-.48-2.004-.749-2.794-1.087-.837-.373-1.344-.786-1.657-.961-.223-.112-.492-.15-.495-.299h.002ZM85.247 57.407c.007-.075 2.454.499 3.452.074 0 0 2.99-5.486 2.848-6.34 0 0 1.992.428 1.281 1.922 0 0-1.709 2.742-1.635 3.81 0 0 1.207.014 1.248-.405 0 0 1.94-.262 2.022.223 0 0-.15.809-1.623 1.23 0 0-2.693.614-2.86 1.247 0 0-1.545 1.74-1.627 2.709 0 0 2.32 1.434 2.655 2.276 0 0 .68.63 2.003.946.704.187 2.055.15 2.774.075 0 0-.532.552-1.028.786-.387.187-.8.223-.8.447 0 0-1.415 1.36-2.637.392 0 0-.945-.477-1.492-2.079 0 0-1.188-2.396-1.949-2.27-.379.075-.8.843-1.34 1.595-1.564 2.176-3.89 3.469-6.278 4.625-.804.392-1.478.708-1.66.42 0 0 .618-.185 1.51-.848 1.591-1.188 3.904-3.234 4.66-4.83.975-1.247 1.493-2.093 1.932-2.704.413-.574.786-.939.532-1.36-.186-.298-.71-.38-1.198-.846-.459-.443-.794-1.028-.79-1.061v-.035ZM100.544 55.353c.297.148.576.499.908.887.429.495.864 1.042.816 1.527-.075.86-.779 1.032-1.103.636-.297-.335-.26-.975-.383-1.586-.112-.54-.261-1.13-.224-1.464h-.014ZM107.19 62.437s.953-.335 1.158.187c-.112.186-.406.652-.783 1.114-.185.224-.417.54-.617.54-.15 0-.809.149-.894-.112-.037-.148.298-.186.473-.373.112-.111-.012-.297.186-.42-1.117.626-1.766.574-2.115.42-.112-.036-.547-.394-.51-.532.032-.112.525.037 1.064-.032.786-.111 1.739-.45 2.048-.808l-.01.016ZM101.435 66.364s.335.335.919.335c.186.003.544-.185.89-.297.507-.15.652-.373 1.638-.839 0 0 1.088-.574 2.231-.954.335-.111.998-.185 1.456-.375.458-.187.569-.444.856-.425 1.266.074 1.728 1.46 1.586 1.46-.074 0-.715-.075-1.288.149-.841.335-1.78.574-2.268.223 0 0 .224-.074.86-.447-.01.011-1.56.037-1.307.403 0 0 .261 1.032.388 2.325.074.767.148 2.473.074 3.792-.036.6-.006 1.125-.223 1.453-.112.186-.488.224-1.009.01-.298-.112-.518-.399-.857-.578-.961-.506-2.167-1.077-3.112-1.65-.76-.462-1.341-.976-1.565-1.092 0 0 .995.57 2.141.827.656.15 1.303.15 1.769.223.682.112 1.069.262 1.33.112.372-.224.223-.722.223-1.311-.028-.64.298-3.921.372-3.95 0 0-.856.224-1.403.675-.663.562-1.62 1.117-1.866 1.072-.45-.075-1.366.299-1.571-.375.186.655-.224-.784-.224-.784l-.04.018ZM68.558 61.438c.112-.336.149-.95.372-1.326.187-.298.336-.45.496-.808 0 0-.002.562.111 1.21 0 0 .588-1.27 1.59-2.384 1.166-1.296 2.61-1.893 3.352-1.781.766.112.539 1.159.297 2.094-.42 1.553-.718 3.233-.98 4.877-.148.92-.334 1.792-.372 2.69 0 0-.666.484-.968-.112 0 0-.185-.845-.778-.618 0 0-.592.812-.782.111 0 0 .075-1.877.075-2.488 0 0-.779.297-.894-.261 0 0 .384-.876.764-1.714.372-.41.112-.648.112-.8-.002-.075.111-.112.412-.224 0 0 .187-.809-.112-.962 0 0-.58.842-1.098 1.628a5.83 5.83 0 0 0-.54 1.189c-.26.883.187 2.142-.149 2.694-.148.223-.625.111-.95-.224-.42-.435-.442-1.17.038-2.802l.004.01Zm2.986-2.831s1.977-1.766 2.484-1.573c0 0-.187 2.367-.55 3.693l-.444 2.172-.187 2.228s-.978.005-.941-.5c0 0-.004-.335.01-.86.01-.403.037-.883.186-1.219.111-.223.383-.335.536-.42.425-.697.533-.991.261-1.3-.112-.15-.715-.224-.886-.46-.15-.185.074-.856-.075-1.318-.075-.223-.297-.373-.406-.447l.012.004Z"/><path d="M102.881 56.805s.075-.455-.186-1.774c-.149-.69-.335-1.722-.838-2.82 0 0 1.188 1.248 1.937 2.462.335.544.223 1.278.487 1.442.373.223.506-.372.749-.708.298-.447.376-.864.443-1.107.149-.532-.149-.529-.7-1.486 0 0 .465-.224.927-.075 0 0 2.401-3.08 2.35-3.646 0 0-.037-.98-.298-1.085-.26-.111 2.171.901 1.757 2.142l-2.539 1.982c-.469.373-.775.697-.92.745 0 0 .402.026.659.112.112.037 1.944-.994 3.69-1.695 2.041-.82 4.042-1.155 3.516.074-.373.496-2.909 3.637-4.135 5.782-.409.716-.692 1.163-.58 1.413.074.149.372-.03.659-.112 1.285-.335 3.983-1.069 3.983-.335 0 0-.021.685-.509 1.226-.261.297-.693.462-1.203.774-.853.525-2.618.563-3.671.917-.861.298-1.732.64-2.588.544-.022-.03.39-.112 1.001-.38 1.166-.489 3.106-1.341 4.47-1.919.958-.406 1.263-.797 1.203-.913-.074-.149-.807.038-1.627.223-1.053.225-2.256.549-2.405.813 0 0-.186.186-.492.373-.424.26-1.005.398-1.281.074 0 0-1.444.514-2.658 1.107-.443.223-1.18.644-1.824 1.292-.653.652-1.244 1.71-1.799 2.337-.67.76-1.262 1.02-1.482.87 0 0-.521-.223.297-1.739.336-.633.891-1.538 1.825-2.734 0 0-1.802 2.664-1.65 3.491 0 0 .861-.768 1.639-1.584 1.46-1.523 2.104-1.975 4.175-2.973.48-.223.912-.48 1.281-.533-.149-.26-.028-.871-.261-1.072-.26-.224-.562-.15-.73-.261-.334-.224-.413-.559-.591-.51-.336.111-.571.535-.935.983-.261.298-.54.726-1.117.808.298-.398 1.43-1.788 1.266-2.377-.037-.148-.298-.186-.626-.186-.186-.01-.402-.112-.655.021l-.014.017Zm4.011-1.953c.149-.186.514-.186.596-.387.224-.537-.335-1.256-.585-1.08 0 0 .812-.444.964-.187 0 0 .459.585.656 1.2.187.544.112 1.113-.149 1.33 0 0-1.024.887-1.702 1.027-.111.025-.186-.26-.26-.506-.029-.111-.028-.26-.075-.298-.112-.027.075.794-.112.88-.335.148-.573.036-.502-.336.075-.298.767-1.118 1.158-1.676l.011.033Zm5.625-3.64c.224.224.038.56-.334 1.07-.372.48-.768 1.225-1.233 1.903-1.72 2.489-3.132 4.411-3.766 4.705-.224.112-.224-.335-.373-.782-.074-.26-.186-.6-.111-.808.074-.15.372-.15.726-.298.26-.112 1.802-.771 1.887-.906.387-.592-.027-1.486-.297-2.056-.384-.857-.998-.98-.786-1.203.409-.433 4.056-1.848 4.276-1.61l.011-.015ZM35.392 58.168s-.934-.187-.42-1.684c0 0 .298-.377.484-1.263a7.388 7.388 0 0 0 .15-2.176s.26.15.475.611c.15.297.15.856.26 1.26.076.223.113.416.3.461.11.029 2.07-1.118 2.222-1.252.149-.149.149-.298.224-.477.111-.298.26-.61.335-.927.149-.44.297-.887.372-1.431.03-.298.075-.614-.004-.946-.008-.031-.073-.038-.111-.075 0 0-.336-.335-.224-.532.075-.112.187-.112.384-.15.846-.112 1.668.719 1.925.999.224.26.074.604-.024.883-.148.533-.629 1.047-.629 1.52 0 0 .186.112.45.017.47-.149.987-.746 1.386-.753.26-.003.465.26.644.522.186.26.55.473.614.741.149.63-1.731 2.183-2.32 2.702-.372.297-.703.71-1.035.74-.149.017-.149-.111-.223-.335-.111-.186-.335-.477-.335-.819 0 0 .186.186.465.074.336-.149 1.065-1.4 1.277-1.803.112-.186.224-.399.224-.633.009-.186-.187-.111-.372-.075-.299.075-.753.299-1.2.868a4.16 4.16 0 0 0-.61 1.01c-.074.186-.477 1.517-.823 2.456-.224.562-.458.919-.432.972 0 0 .038.149.15.149.222-.03.673-.224 1.377-.433.651-.223 1.548-.48 2.387-.819.472-.186.886-.492 1.317-.615a2.3 2.3 0 0 1 1.237.037c1.884.694-.466 1.778-1.37 1.818-.075.005-.54.112-.942.187-.649.148-.727.26-.298-.187.074-.074.074-.186.186-.297 0 0-1.393.372-2.491.715-.704.224-1.445.447-1.46.678 0 0 .335.335.64.652.667.707.73.458.38 1.255-.111.299-.658 1.48-.595 1.777.074.261.297.187.796.597.41.372.336.614.26.842-.148.372-.62.715-1.478.335-.148-.075-.26-.036-.334-.02-.335.075-2.107 2.313-2.402 2.63-.756.812-1.639 1.543-2.61 2.008-2.014.966-3.571.373-3.59.262-.003-.02-.148-.485-.036-.876.038-.15.075-.335.15-.335.149-.075.52.074.93.186.637.15 1.393.298 1.743.111 1.162-.625 2.22-1.683 3.046-2.563.752-.8 1.325-1.438 1.422-1.788.034-.112-.074-.186-.26-.224-.727-.185-1.18-.469-1.266-.905-.112-.622.223-1.382.554-2.023.373-.726.652-1.33.224-1.225-.387.074-.86.383-1.389.61-1.005.436-2.14.916-2.8 1.271-.842.454-1.441.905-1.564 1.013-.67.582-.95.812-1.701-.719-.262-.544-.224-.704.185-.842.399-.149.901.017 1.3-.149.525-.186 2.108-.96 3.641-1.516 1.445-.522 2.86-.842 3.11-1.103.186-.223.335-.473.473-.771.297-.66.484-1.502.647-2.426.075-.335.299-.712.112-.748-.112-.023-.26.186-.469.298-.596.335-1.623 1.36-1.992 1.911-.335.491-.009.372-.67.704l.021.033Zm2.07 3.797s.188-.995.478-1.408c.223-.335.49-.112.54.185.027.187-.075.299-.186.574-.034.075-.299.545-.41 1.021-.074.298.008.787-.298.98-.223.15-.462-.003-.499-.298-.028-.224.112-.574.387-1.031l-.011-.023ZM19.064 56.787c-.017 0-.849.418-1.511.388-.454-.021-.715-.298-.942-1.155 0 0 .447-.017 1.095-.26 2.126-.753 6.755-2.594 7.765-3.559 0 0 2.36.224 1.195 1.319 0 0-5.152 2.578-5.152 3.006 0 0 .462-.797.674-1.382 0 0-2.41.939-2.13 1.244 0 0 .15.112.373.224.636.261 1.038.5 1.188.842.149.298.074.694-.075 1.278-.223 1.002.298.745.838.261.48-.432.983-1.01 1.623-.824.224.075.336.299.623.604.185.224.454.372.454.679 0 .185-.187.424-.38.71-.298.496-.987 1.882-1.646 3.1-.224.4-.466.768-.667 1.092-.398.652-.785 1.237-1.574.473-.262-.26-.5-.655-.704-.909-.391-.477-.474-.376-.696.112-.075.149-.075.42-.15.544-.149.223-.297.298-.413.477-.075.112.019.26.186.335.26.112.73.075 1.136.075.372-.004.69.018.752.037.395.149.428.54.074.812-.148.112-.335.26-.599.462-.075.075-.335.298-.577.387-.26.075-.41.075-.444.075 0 0 .425-.391.45-.44.262-.477-.185-.477-.527-.394-.477.112-.98.335-1.248.112-.297-.262-.224-.772-.075-1.256.038-.15.559-1.156.335-1.219-.148-.034-.45-.074-.67-.223-.11-.074-.149-.417-.334-.686-.15-.185-.336.008-1.128.57-.463.336-.906.63-1.047.619 0 0 .112.462.26.98.15.454.373.972.336 1.427-.019.26-.15.45-.298.618-.15.186-.336.298-.581.26-1.315-.223-.801-3.088-.477-4.208.075-.298.075-.58.186-.536.075.029.112.224.187.462.074.297.074.614.26.622.15.005.905-.548 1.5-.999.373-.26.645-.477.712-.577.112-.15.038-.335.035-.838-.007-.224-.038-1.864.112-1.997.074-.075.297.186.528.61.15.261.298.63.473.828a.54.54 0 0 0 .51.148c-.149.033.596.013 1.027-.632.262-.388.224-1.126.299-1.853.149-1.072-1.143-1.873-1.158-1.873l.017.028Zm1.874 5.297s1.042-1.129.975-1.62c.76-.776 1.125-.95 1.203-.786.075.111-.075.45-.224.834-.148.432-.335.935-.48 1.3-.186.507-.298 1.137-.748 1.464-.805.6-1.452-.26-.72-1.192h-.006ZM14.291 76.08c.252.02.43.03.538.03.1 0 .275-.01.524-.03.1.171.208.347.327.53l.423.65c.118-.15.258-.337.422-.555l.463-.624c.144.02.242.03.295.03.115 0 .214-.01.295-.03v.031l-.561.636a55.36 55.36 0 0 0-.231.265c-.077.09-.154.178-.232.266l-.23.268.082.112.3.44c.105.15.203.293.297.43a21.692 21.692 0 0 1 .565.879c-.058-.003-.143-.006-.256-.013a5.132 5.132 0 0 0-.259-.01c-.058 0-.146.004-.26.01-.116.007-.202.01-.256.013a18.049 18.049 0 0 0-.33-.524l-.457-.702-.552.695-.25.366a.81.81 0 0 1-.064.089.623.623 0 0 0-.055.076 9.013 9.013 0 0 0-.268-.022c-.11 0-.21.007-.305.022.11-.133.297-.36.562-.677.266-.317.5-.602.704-.856l-1.23-1.794Zm5.518.653-.02.454a8.228 8.228 0 0 0-.019.493c0 .141.006.316.018.526.01.21.017.372.02.484.003.082.011.202.023.361.011.16.02.28.023.357-.051-.003-.13-.006-.238-.013a4.596 4.596 0 0 0-.767.013c.055-.521.082-1.117.082-1.787v-.26c0-.105-.001-.218-.004-.34a10.814 10.814 0 0 0-.05-.94c.235.02.398.03.486.03.092 0 .255-.01.49-.03-.024.289-.038.507-.044.652Zm2.206-.293a.574.574 0 0 1-.119.014.548.548 0 0 1-.304-.096.305.305 0 0 1-.131-.263c0-.17.08-.282.242-.336a.804.804 0 0 1 .248-.037c.19 0 .328.06.416.179.05.083.074.172.074.268a.88.88 0 0 1-.296.66 1.097 1.097 0 0 1-.582.268v-.202a.637.637 0 0 0 .333-.195.351.351 0 0 0 .119-.26Zm-.17 2.932.442-.831a40.59 40.59 0 0 0 1.246-2.483c.02.001.046.004.074.008a1.211 1.211 0 0 0 .158.014c.032 0 .07-.002.107-.008l.113-.014.048.082a80.886 80.886 0 0 0 1.57 3.17l.035.052v.046c-.06-.003-.146-.006-.257-.013a5.176 5.176 0 0 0-.259-.01c-.168 0-.334.008-.499.023a15.023 15.023 0 0 0-.416-.995c-.074 0-.185-.002-.331-.007a10.101 10.101 0 0 0-.334-.008c-.155 0-.397.006-.728.015l-.027.068c-.068.152-.138.309-.209.472a3.966 3.966 0 0 0-.17.455 1.768 1.768 0 0 0-.563 0v-.036Zm1.125-1.252h1.1c-.13-.296-.311-.675-.537-1.135-.214.397-.394.76-.543 1.092l-.02.043Zm4.44 1.28a1.892 1.892 0 0 0-.515.008 14.3 14.3 0 0 0 .088-1.085 29.42 29.42 0 0 0 .019-1.617 28.788 28.788 0 0 1-.005-.393c0-.1-.003-.177-.01-.233.132.02.22.03.269.03.054 0 .146-.01.275-.03.238.213.462.408.668.59l.694.601.654.57c.18.159.377.337.59.535v-1.614c0-.08-.006-.183-.017-.305-.01-.123-.018-.215-.02-.278l-.01-.099c.13.02.22.03.268.03.04 0 .088-.003.142-.01l.134-.013a2.997 2.997 0 0 0-.018.27c-.023.236-.04.44-.048.613-.003.102-.004.186-.008.248l-.014.23a9.674 9.674 0 0 0-.013.444v1.516a.217.217 0 0 0-.065-.007 1.289 1.289 0 0 0-.166-.008c-.11 0-.195.005-.256.015a49.835 49.835 0 0 0-1.97-1.787l-.648-.553c-.013.3-.018.516-.018.648v.451c0 .553.013.967.038 1.24l-.038-.006Zm6.045.553c.287-.046.441-.196.462-.448a8.6 8.6 0 0 0 .036-.815c0-.098.001-.244.004-.438.004-.192.004-.336.004-.428 0-.072.002-.18.006-.326l.004-.333-.004-.24a7.932 7.932 0 0 1-.006-.239 9.926 9.926 0 0 1-.017-.304 6.667 6.667 0 0 0-.02-.302c.25.02.417.03.5.03.108 0 .273-.01.497-.03-.023.281-.04.49-.045.629-.006.13-.01.327-.01.59-.007.042-.01.1-.01.18 0 .126.003.302.01.53.006.23.01.427.01.593v.296c0 .321-.062.564-.184.727-.236.32-.617.504-1.146.553l-.091-.225Zm3.973-3.22c-.003.104-.01.255-.02.454a9.065 9.065 0 0 0-.02.493c0 .141.008.316.02.526a17.468 17.468 0 0 0 .042.846l.023.356c-.051-.003-.13-.006-.237-.013a4.623 4.623 0 0 0-.768.013c.055-.521.082-1.117.082-1.787v-.26c0-.105 0-.218-.004-.34a7.664 7.664 0 0 1-.005-.281 11.553 11.553 0 0 0-.045-.66c.236.02.398.03.487.03.09 0 .255-.01.49-.03-.025.29-.04.508-.045.653Zm1.305 2.639.44-.831c.514-.95.929-1.778 1.247-2.483a.84.84 0 0 1 .073.008 1.353 1.353 0 0 0 .159.014.69.69 0 0 0 .108-.008l.112-.014.048.082a80.746 80.746 0 0 0 1.57 3.17l.035.052v.046c-.059-.003-.145-.006-.258-.013a5.108 5.108 0 0 0-.257-.01c-.168 0-.335.008-.5.023a14.392 14.392 0 0 0-.416-.995c-.074 0-.184-.002-.331-.007a10.017 10.017 0 0 0-.334-.008c-.156 0-.397.006-.727.015l-.028.068-.208.472a3.963 3.963 0 0 0-.171.455 1.761 1.761 0 0 0-.562 0v-.036Zm1.123-1.252h1.1a29.83 29.83 0 0 0-.536-1.135c-.214.397-.394.76-.543 1.092l-.02.043Zm7.557.922c-.442.303-.995.456-1.655.456-.689 0-1.233-.162-1.634-.486-.393-.308-.59-.725-.59-1.249 0-.538.236-.97.712-1.302.448-.3.998-.448 1.651-.448.552 0 1.016.109 1.394.33.315.183.53.392.646.627.123.237.185.494.185.772 0 .248-.062.486-.184.713a1.716 1.716 0 0 1-.525.587Zm-.547-.39c.175-.262.26-.596.26-1.002 0-.22-.044-.437-.134-.645a1.164 1.164 0 0 0-.42-.51c-.192-.131-.429-.197-.713-.197-.263 0-.489.054-.674.164a1.123 1.123 0 0 0-.423.403c-.155.255-.231.602-.231 1.04 0 .224.043.435.13.632.088.197.227.358.415.482.19.124.427.185.71.185.457 0 .817-.183 1.08-.552Zm4.204-1.854c0 .136-.004.338-.01.608-.006.269-.01.47-.01.603 0 .068.002.17.005.308.004.136.005.24.005.314 0 .082.005.213.014.388.01.176.014.305.014.389l-.235-.013a5.145 5.145 0 0 0-.255-.01c-.052 0-.132.004-.24.01-.11.007-.19.01-.247.013.003-.079.01-.193.02-.347a45.769 45.769 0 0 0 .055-1.993c-.001-.144-.008-.35-.02-.62-.117 0-.292.004-.528.014-.224.016-.419.035-.581.052a.557.557 0 0 0 .028-.201c0-.08-.004-.137-.01-.173a.107.107 0 0 1-.009-.03.15.15 0 0 0-.01-.03 41.939 41.939 0 0 0 1.542.03h.62c.104 0 .254-.004.45-.014.195-.01.355-.016.482-.016a.7.7 0 0 0-.027.197c0 .075.007.156.027.237a8.485 8.485 0 0 0-1.062-.066l-.018.35Zm5.969 2.244c-.442.303-.995.456-1.654.456-.69 0-1.234-.162-1.635-.486-.394-.308-.59-.725-.59-1.249 0-.538.237-.97.712-1.302.448-.3.999-.448 1.65-.448.553 0 1.017.109 1.395.33.314.183.53.392.646.627.123.237.185.494.185.772 0 .248-.061.486-.184.713a1.725 1.725 0 0 1-.525.587Zm-.547-.39c.174-.262.26-.596.26-1.002 0-.22-.045-.437-.134-.645a1.16 1.16 0 0 0-.421-.51c-.191-.131-.428-.197-.713-.197-.262 0-.488.054-.674.164a1.13 1.13 0 0 0-.422.403c-.154.255-.231.602-.231 1.04 0 .224.043.435.13.632.088.197.227.358.416.482.19.124.426.185.709.185.457 0 .817-.183 1.08-.552Zm3.074.749a1.89 1.89 0 0 0-.515.007c.043-.348.072-.71.088-1.085a29.349 29.349 0 0 0 .014-2.01c0-.1-.002-.177-.01-.233.132.02.22.03.27.03.053 0 .145-.01.275-.03.238.213.46.408.667.59l.694.601c.255.222.474.411.654.57.18.159.377.337.591.535v-1.614c0-.08-.006-.183-.017-.305a7.917 7.917 0 0 1-.022-.278l-.008-.099c.13.02.22.03.267.03.04 0 .088-.003.143-.01l.134-.013a2.76 2.76 0 0 0-.02.27c-.021.236-.039.44-.047.613-.003.102-.004.186-.007.248a13.574 13.574 0 0 0-.028.673v1.517a.206.206 0 0 0-.064-.007 1.316 1.316 0 0 0-.166-.008c-.111 0-.196.005-.257.015a49.835 49.835 0 0 0-1.97-1.787l-.647-.553c-.013.3-.019.516-.019.648v.451c0 .553.013.967.038 1.24l-.038-.006Zm8.26-2.587c-.275-.32-.67-.48-1.181-.48-.493 0-.886.173-1.184.516-.22.266-.33.6-.33 1.003 0 .204.046.405.136.604.091.198.224.355.397.473.11.07.202.119.276.145.074.027.186.056.335.086.136.02.24.03.314.03.108 0 .243-.012.407-.038a.731.731 0 0 0 .13-.019.347.347 0 0 0 .11-.032.074.074 0 0 0 .009-.026c.002-.013.006-.021.009-.021v-.372a9.67 9.67 0 0 0-.04-.755 4.531 4.531 0 0 0 .934 0 6.267 6.267 0 0 0-.044.793c0 .123.005.306.017.545-.625.14-1.149.21-1.567.21-.322 0-.628-.035-.918-.1a2.552 2.552 0 0 1-.769-.304 1.56 1.56 0 0 1-.524-.514 1.346 1.346 0 0 1-.19-.72c0-.29.063-.55.188-.776.127-.228.302-.417.53-.57.226-.154.49-.268.79-.343.302-.076.626-.113.973-.113.535 0 1.015.097 1.44.29a3.58 3.58 0 0 0-.165.488h-.083Zm7.158-.023c0 .05 0 .13-.004.239a11.74 11.74 0 0 0-.005.241c0 .06-.002.148-.008.268-.007.12-.01.21-.01.268-.012.375-.052.663-.12.868-.068.204-.24.383-.518.538-.293.17-.671.255-1.136.255-.26 0-.506-.025-.74-.076a1.723 1.723 0 0 1-.615-.257.988.988 0 0 1-.425-.743 2.156 2.156 0 0 1-.019-.336c0-.1 0-.207-.004-.325a7.392 7.392 0 0 1-.006-.274v-.613c0-.06-.002-.153-.005-.277a11.247 11.247 0 0 1-.005-.277c0-.021 0-.056-.004-.102a2.136 2.136 0 0 1-.005-.108c.237.02.401.03.498.03.099 0 .259-.01.48-.03 0 .026-.004.064-.01.118l-.017.122c-.029.424-.044.802-.044 1.137 0 .442.012.749.035.92.037.142.075.252.113.329.04.075.112.15.21.224.181.139.41.21.686.21.277 0 .497-.047.664-.138.165-.091.302-.241.407-.448.068-.144.101-.48.101-1.007 0-.653-.015-1.14-.047-1.466.145.02.244.03.302.03.061 0 .164-.01.308-.03a2.042 2.042 0 0 0-.019.145l-.016.195a6.425 6.425 0 0 0-.009.175l-.013.195Zm2.171 2.61a1.873 1.873 0 0 0-.514.007c.042-.348.07-.71.088-1.085a30.873 30.873 0 0 0 .013-2.01c0-.1-.002-.177-.008-.233.13.02.22.03.267.03.054 0 .146-.01.276-.03.238.213.462.408.668.59l.694.601.654.57c.18.159.376.337.591.535v-1.614c0-.08-.007-.183-.018-.305a6.064 6.064 0 0 1-.02-.278l-.01-.099c.13.02.22.03.267.03.04 0 .088-.003.144-.01l.133-.013a2.96 2.96 0 0 0-.018.27c-.023.236-.04.44-.048.613-.003.102-.004.186-.008.248a12.806 12.806 0 0 0-.022.482c-.003.075-.006.139-.006.191v1.517a.207.207 0 0 0-.064-.007 1.3 1.3 0 0 0-.165-.008c-.112 0-.197.005-.258.015a49.274 49.274 0 0 0-1.97-1.787l-.647-.553c-.013.3-.019.516-.019.648v.451c0 .553.014.967.039 1.24l-.039-.006Zm5.752-2.668-.021.454a8.84 8.84 0 0 0-.018.493c0 .141.006.316.018.526.01.21.017.372.02.484.003.082.01.202.022.361.012.16.02.28.023.357-.051-.003-.13-.006-.237-.013a4.621 4.621 0 0 0-.768.013c.055-.521.083-1.117.083-1.787v-.26c0-.105-.001-.218-.005-.34a10.896 10.896 0 0 0-.05-.94c.235.02.398.03.487.03.091 0 .255-.01.49-.03-.025.289-.039.507-.044.652Zm3.51 2.675c-.028-.003-.071-.006-.131-.013a1.482 1.482 0 0 0-.138-.01c-.094 0-.183.008-.269.023a59.82 59.82 0 0 0-.76-1.63 87.62 87.62 0 0 0-.846-1.698c.25.02.425.03.528.03.103 0 .278-.01.525-.03.092.251.193.5.303.747.11.247.238.53.388.85.15.32.279.595.381.825.466-.911.84-1.718 1.125-2.421.017.004.03.006.04.007l.024.007c.216 0 .376-.006.48-.014-.158.302-.349.672-.574 1.106-.224.434-.426.836-.605 1.203a26.32 26.32 0 0 0-.471 1.018Zm2.819-3.328c.107.003.26.008.456.017.196.009.362.013.491.013.203 0 .445-.003.722-.01.278-.007.49-.01.638-.013-.006.081-.009.2-.009.36a.158.158 0 0 1 .009.06 21.06 21.06 0 0 0-1.37-.06c-.006.115-.01.285-.01.51 0 .06 0 .148-.004.268l-.004.268 1.368-.036a1.07 1.07 0 0 0-.036.223c0 .044.012.107.036.188a17.507 17.507 0 0 0-1.072-.037c-.03 0-.079-.002-.145-.005-.066-.002-.117-.002-.15-.002v1.23c.368 0 .831-.02 1.387-.063a5.05 5.05 0 0 0-.009.357.161.161 0 0 1 .009.06c-.12-.003-.3-.007-.541-.016-.24-.009-.421-.012-.54-.012-.08 0-.2.002-.359.006-.16.004-.277.007-.353.007-.11 0-.29.005-.536.015.004-.03.008-.077.012-.141.002-.063.006-.107.01-.137l.014-.446c.008-.206.011-.36.011-.463 0-.08.002-.203.005-.366.003-.164.005-.287.005-.368v-.569c0-.083-.005-.212-.016-.385-.01-.172-.017-.3-.02-.385v-.067Zm4.8 2.072a6.65 6.65 0 0 0-.175-.247c-.015-.02-.03-.03-.048-.03-.018 0-.027.01-.027.03 0 .095.002.237.009.43.006.192.01.335.01.43v.133c.005.131.02.3.046.51-.055-.003-.136-.006-.245-.013a4.765 4.765 0 0 0-.243-.01c-.053 0-.134.004-.245.01-.11.007-.193.01-.243.013l.009-.09c.002-.037.002-.077.006-.12l.008-.096.011-.105c.02-.208.029-.53.029-.957 0-.097-.002-.244-.005-.44a37.578 37.578 0 0 1-.004-.442c0-.23-.013-.587-.035-1.078l.413.015c.093 0 .237-.003.428-.008.19-.004.335-.007.431-.007.48 0 .803.033.969.1.353.164.528.4.528.71 0 .23-.084.42-.25.571-.167.152-.395.251-.683.302.154.224.506.68 1.061 1.367l.212.278c-.06-.003-.15-.006-.272-.013a6.192 6.192 0 0 0-.273-.01c-.177 0-.358.008-.543.023l-.693-.995-.185-.261Zm-.232-.838c0 .155-.003.272-.01.353.328 0 .566-.057.713-.171.15-.116.223-.29.223-.526a1 1 0 0 0-.027-.245.453.453 0 0 0-.123-.22.468.468 0 0 0-.2-.108 1.35 1.35 0 0 0-.273-.032 28.673 28.673 0 0 1-.303-.007v.956Zm5.285-.575c-.13-.276-.36-.413-.693-.413-.198 0-.358.042-.48.129a.402.402 0 0 0-.175.335c0 .115.061.213.183.295.123.084.315.18.58.29.262.112.472.21.626.297a.78.78 0 0 1 .328.315c.067.115.101.26.101.433a.907.907 0 0 1-.137.456c-.12.2-.333.358-.638.471a2.25 2.25 0 0 1-.811.129c-.374 0-.697-.068-.97-.203.089-.243.145-.447.174-.614h.113a.64.64 0 0 0 .292.38c.15.092.327.137.537.137a.918.918 0 0 0 .499-.127.4.4 0 0 0 .204-.36c0-.136-.073-.26-.223-.372a4.55 4.55 0 0 0-.674-.308 3.368 3.368 0 0 1-.269-.13 7.536 7.536 0 0 0-.21-.109.693.693 0 0 1-.302-.307.922.922 0 0 1-.105-.425c0-.316.152-.57.454-.763.138-.09.277-.154.418-.188.142-.034.313-.051.512-.051.347 0 .647.065.898.193.004.009.018.019.044.031a11.15 11.15 0 0 0-.184.479h-.092ZM101.816 76.733c-.003.104-.011.255-.021.454a9.416 9.416 0 0 0-.018.493c0 .141.007.316.018.526.01.21.018.372.021.484.002.082.01.202.022.361l.023.357c-.052-.003-.13-.006-.237-.013a4.683 4.683 0 0 0-.768.013c.055-.521.082-1.117.082-1.787v-.26c0-.105-.001-.218-.004-.34a11.07 11.07 0 0 0-.051-.94c.236.02.398.03.488.03.091 0 .254-.01.49-.03-.025.289-.039.507-.045.652Zm3.343.065c0 .136-.003.338-.009.608-.007.27-.01.47-.01.603 0 .068.002.17.005.308.003.136.005.24.005.314 0 .082.004.213.013.388.01.176.014.305.014.389l-.236-.013a5.088 5.088 0 0 0-.253-.01c-.053 0-.133.004-.24.01-.109.007-.19.01-.248.013.003-.079.009-.193.02-.347a46 46 0 0 0 .053-1.993c0-.144-.006-.35-.018-.62-.116 0-.292.004-.527.014-.225.016-.419.035-.582.052a.548.548 0 0 0 .027-.201c0-.08-.002-.136-.008-.173-.004-.004-.007-.015-.01-.03a.112.112 0 0 0-.009-.03 41.617 41.617 0 0 0 1.542.03h.62c.102 0 .254-.004.449-.014s.356-.016.481-.016a.752.752 0 0 0-.025.197c0 .075.007.156.025.237a8.475 8.475 0 0 0-1.061-.066l-.018.35Zm2.535-.688c.109 0 .288-.01.533-.03l.127.214a21.489 21.489 0 0 0 .399.67c.058.094.14.236.252.425a.866.866 0 0 0 .12.158l-.004-.003a.59.59 0 0 1 .105-.095c.033-.042.068-.093.1-.15.072-.103.189-.295.352-.574.06-.094.134-.226.22-.397l.077-.14c.028-.051.048-.085.062-.108a.166.166 0 0 0 .031.008.172.172 0 0 1 .034.008 2.011 2.011 0 0 0 .498-.015 41.25 41.25 0 0 1-.595.865c-.29.412-.506.74-.651.982-.013.248-.019.434-.019.56 0 .158.022.464.067.92-.056-.003-.143-.006-.258-.013a5.381 5.381 0 0 0-.261-.01c-.171 0-.341.008-.508.023.045-.354.066-.723.066-1.106.006-.065.01-.157.01-.278a10.617 10.617 0 0 1-.323-.459c-.104-.15-.21-.31-.318-.479l-.34-.53a25.139 25.139 0 0 0-.313-.475c.249.02.428.03.537.03Z"/></g><defs><filter id="a" x="-13" y="0" width="154" height="157" filterUnits="userSpaceOnUse" color-interpolation-filters="sRGB"><feFlood flood-opacity="0" result="BackgroundImageFix"/><feColorMatrix in="SourceAlpha" values="0 0 0 0 0 0 0 0 0 0 0 0 0 0 0 0 0 0 127 0" result="hardAlpha"/><feOffset dy="16"/><feGaussianBlur stdDeviation="6.5"/><feColorMatrix values="0 0 0 0 0 0 0 0 0 0 0 0 0 0 0 0 0 0 0.03 0"/><feBlend in2="BackgroundImageFix" result="effect1_dropShadow_49_4198"/><feBlend in="SourceGraphic" in2="effect1_dropShadow_49_4198" result="shape"/></filter></defs></svg>