<svg width="128" height="128" fill="none" xmlns="http://www.w3.org/2000/svg"><path fill-rule="evenodd" clip-rule="evenodd" d="M97.608 54.342c.384-.39.072-1.047-.059-1.5h-.088l-2.174.764c.07.432.278.891.621 1.07.551.281 1.23.14 1.7-.334Zm.648 14.075.026-.06c-.635-.322-1.272-.646-1.909-.967-.057.487-.116.978-.175 1.467.686-.145 1.372-.293 2.058-.44ZM92.82 55.225l-.442.145c-.295-.862-.588-1.724-.881-2.586l.44-.147c.089.187.177.371.264.558.243.037.85-.176 1.453-.38a61.754 61.754 0 0 0 2.191-.796c.381-.148.997-.183 1.177-.528-.028-.187-.06-.372-.089-.558l.44-.147c.124.434.406 1.167.673 1.938.31.893.589 1.84.385 2.44-.227.675-1.042 1.013-1.755.918a1.395 1.395 0 0 1-1.124-.857c-.02-.012-.039-.02-.058-.03-.024.812-.577 1.265-1.082 1.721-.267.24-.495.5-.683.775.07.266.139.529.207.794.113.074.312.202.571.187 1.406-.075 3.746-.22 4.454-.423.114-.19.11-.36.086-.647.158-.008.315-.019.472-.027l.176 2.084c-1.352.677-2.701 1.354-4.055 2.03 1.46.43 2.92.861 4.378 1.293l.176 2.026-.47.06-.147-.619c-.3-.054-.54-.03-.874 0-.333.032-.756.072-1.035.119-.757.072-1.427.115-2.182.186-.272.028-.631.08-.904.106-.077.144-.076.341-.067.462.033.465.566.71.891.892 1.486.772 2.975 1.546 4.465 2.322v.793c-1.47.34-2.938.684-4.409 1.028-.48.122-1.315.14-1.557.5-.147.219-.145.691-.145 1.028.393.264 1.074.39 1.726.528.678.14 1.33.295 1.858.442.39.108.907.349 1.352.262l.236-.586c.145.03.293.06.44.088-.215.873-.43 1.743-.647 2.615v.06l-.442-.09c.022-.214.041-.43.06-.646-.38-.257-.932-.3-1.44-.44-1.185-.305-2.37-.608-3.555-.91-.056.4-.173.7-.187.998-.042.768.244 1.161 1.274 1.587l-.176.53-1.998-.707.44-1.762c.18-.749.415-1.547.56-2.366.122-.719.213-1.263.264-1.916.028-.349.11-.773.116-1.125l.471.057c-.01.263-.018.428.03.647.437.2 1.01-.095 1.44-.147l.234-1.879c-.09-.09-.289-.185-.437-.26a2.278 2.278 0 0 0-.797-.27c-.049.037-.103.046-.14.088-.12.14-.156.352-.183.617-.157-.008-.314-.02-.47-.029.06-.604.17-1.106.184-1.725.011-.376-.047-.86-.077-1.25-.028-.339-.044-.736-.107-1.11-.005-.121-.057-.28.003-.287.119-.016.246-.057.467-.035l.089.557c.067.037.182.09.336.09.255.006.603-.057.91-.076 1.07-.06 2.404-.245 3.014-.25v-.03c-1.597-.458-3.193-.919-4.79-1.38l-.058-.587 4.319-2.175h.058c-.183-.061-.698.01-1.309.079-.753.082-1.738.132-2.31.248-.283.057-.398.187-.465.232l-.057.616c-.159.011-.314.018-.472.03a17.67 17.67 0 0 0-.212-2.117c-.014-.088-.057-.137-.08-.224-.123-.452-.32-.876-.442-1.36.934-.904 1.855-1.263 2.144-2.116.064-.186-.068-.368-.117-.618-.445.119-1.875.525-2.087.822-.069.188.05.422.09.62ZM96.814 80.554c.148.056.293.115.442.176-.383.793-.766 1.586-1.147 2.38-.152.014-.273-.09-.44-.148a78.6 78.6 0 0 1 .176-.556c-.232-.394-.852-.526-1.264-.736-.331-.168-.95-.505-1.505-.772-.996-.477-2.025-.742-2.52.45-.49 1.175.447 1.753 1.783 2.418.449.224.865.43 1.155.579.38.193.717.359 1.05.34.184-.011.35-.235.478-.488.145.058.293.119.44.177l-.97 1.997c-.146-.058-.293-.116-.44-.178.054-.215.19-.385.116-.645-.166-.367-.612-.492-.969-.678-.312-.156-.701-.362-1.107-.551-1.08-.5-2.84-1.346-2.036-3.297.147-.356.37-.658.587-.939.244-.316.471-.514.773-.649.158-.07.3-.109.55-.173.243.004.486.008.71.064.476.117.898.358 1.35.585.483.243 1.025.492 1.436.7.306.16.596.394.998.442a.957.957 0 0 0 .354-.498Z" fill="#204989"/><path fill-rule="evenodd" clip-rule="evenodd" d="M95.461 49.229c.094-.258.049-.518-.008-.727-.161-.586-.783-1.005-1.458-.918l-.766.146c-1.011.31-2.037.856-2.645 1.586-.448.54-.302 1.476.205 1.853.286.21.646.26 1.059.225.068-.007.264-.052.335-.063 1.41-.229 3.042-1.444 3.278-2.102Zm.298-1.276c.33.644.444 1.211.29 2.156-.047.292-.204.529-.353.761-.37.57-.949.986-1.585 1.268-.566.247-1.402.545-2.233.353-1.53-.355-2.927-2.511-1.853-4.29.454-.753 1.316-1.336 2.235-1.618.284-.047.567-.097.85-.146.517-.006 1.043.08 1.498.326.476.257.902.703 1.151 1.19Z" fill="#204989"/><path fill-rule="evenodd" clip-rule="evenodd" d="m92.23 43.557.325-.324c.527.54 1.054 1.078 1.586 1.617-.11.107-.217.216-.324.323-.136-.098-.276-.196-.412-.293-.517-.196-.968.497-1.204.734-1.01.998-2.018 1.998-3.027 2.998h-.06c-.175-.166-.351-.334-.528-.5l1.03-5.76c-.354.352-.706.706-1.06 1.059-.469.47-.957.883-1.406 1.396-.13.15-.217.312-.326.482.032.34.211.405.321.648v.029l-.321.294c-.53-.54-1.059-1.076-1.587-1.617l.35-.322c.148.107.295.216.443.322.593-.017.89-.48 1.205-.792.472-.473 1.005-.977 1.497-1.465.359-.355.695-.684.97-1.092-.026-.316-.18-.424-.323-.618l.295-.322c.44.422.881.84 1.321 1.264l-.881 5.172c.134-.099.47-.466.857-.836.692-.669 1.53-1.486 1.584-1.721.069-.323-.22-.502-.325-.676ZM90.246 91.44l.278.28c-.267.364-.59.684-.909 1.036-.485.538-.994 1.089-1.529 1.52-.46.432-.92.863-1.381 1.293-.098-.106-.195-.214-.293-.322.083-.136.438-.365.352-.619-.092-.262-.72-.456-.97-.586l-2.703-1.44c.247.529.64 1.534 1.03 2.423.26.59.51 1.168.763 1.368.32-.03.446-.205.646-.354.108.109.216.215.322.325-.242.325-.545.509-.843.801-.953.938-1.956 1.476-2.887 2.136l-1.764 1.235c-.144-.127-.377-.45-.64-.763-.256-.302-.543-.597-.596-.767.15-.096.295-.194.443-.292l.069.095c.5.643 1.013.704 1.446.536.375-.146.712-.456 1.1-.66-.011-.167-.138-.326-.306-.553-.302-.404-.735-.906-.87-1.24-.029-.02-.06-.04-.087-.06-.217.196-.452.31-.642.484-.106.099-.178.156-.269.352.008.132.024.204.053.295.008.022.024.082.03.102.049.144.107.242.151.384-.127.077-.255.157-.382.236-.006-.01-.013-.016-.017-.025-.445-.62-.889-1.24-1.335-1.857.14-.096.275-.195.412-.293.21.163.315.331.44.394.485.237.519-.1 1.264-.454l.03-.057c-.451-.647-.903-1.293-1.353-1.94-.028-.021-.058-.04-.086-.06-.645.432-1.173.734-1.296 1.281-.071.318.013.736.244 1.25.025.057.053.114.081.172-.148.08-.324.187-.47.266-.423-.718-.746-1.343-1.029-1.823.115-.143.832-.617 1.6-1.164.98-.696 2.061-1.478 2.28-1.539.077.118.155.235.235.353v.03c-.168.105-.354.222-.443.411-.06.348.494.855.678 1.116.375.535.754 1.114 1.13 1.675.335.498.661.982 1.072 1.382.485-.082.782-.343.858-.7.062-.29-.039-.641-.18-1.004l-1.97-4.643c.088-.08.177-.159.265-.235.095-.123.217-.244.328-.298.083-.039.306.14.478.228.248.131.547.272.751.362.776.403 1.547.805 2.322 1.206.277.162.593.345.918.514.295.154.594.302.934.338.324-.126.648-.315.703-.705-.171-.264-.398-.464-.66-.691-.31-.273-.664-.572-.955-.809-.435-.348-.804-.746-1.243-1.153-.269-.25-.577-.553-.903-.696-.048.02-.097.038-.146.057-.127.129-.255.256-.382.382-.108-.107-.215-.216-.324-.323l1.823-2.085.382.321a1.666 1.666 0 0 0-.382.56c.197.363.68.72 1.172 1.14a41.476 41.476 0 0 1 1.679 1.505c.249.24.577.623.926.711.059.015.124-.042.19-.065l.322-.325.045.045ZM88.028 87.899c.206.223.738.57 1.222.917.647.462 1.287.92 1.687 1.082.426-.021.414-.287.705-.41l.265.175.058.118c-.409.578-.821 1.154-1.233 1.733l-.089.06c-.108-.069-.217-.138-.322-.207-.051-.168.158-.371.204-.646-.08-.131-.167-.288-.27-.399-.301-.333-.694-.56-1.096-.842-.541-.378-1.11-.79-1.602-1.139l-1.38-.999c-.118-.218.181-.397.294-.646.17-.098.206-.1.513-.09l.214.02c.32.01.71.01.974.01 1.392.019 2.783.038 4.174.06v-.03c-.191-.082-.378-.236-.537-.351-.182-.129-.34-.221-.522-.368a26.02 26.02 0 0 0-.944-.724c-.454-.337-.942-.67-1.345-.79-.238.085-.43.222-.53.438h-.03c-.106-.066-.214-.136-.322-.205-.02-.03-.038-.057-.06-.086l1.294-1.793c.138.078.275.156.41.236-.077.155-.154.313-.234.468.018.59.527.775.882 1.028.447.322.975.714 1.443 1.085.506.399.937.714 1.524 1.002.345-.034.413-.246.62-.413.116.09.233.178.35.266-.332.48-.664.96-.998 1.44-.358.163-1.116.06-1.587.06l-3.732-.06ZM85.912 71.797v.089H70.19l-.058.793H61.52v-.735H45.594c.658-1.92 1.284-3.84 1.94-5.759 1.102.423 2.368.548 3.624.535 2.442-.022 5.015-.65 7.236-1.187.578-.139 1.135-.305 1.639-.489.32-.116.606-.278.9-.33 2.48-.443 3.302-.126 4.614 1.704l.12.09c.714-.74 1.287-1.413 2.17-1.754.945-.362 2.06-.306 3.44.05.688.175 1.736.563 2.53.76 2.84.714 5.996 1.334 8.814.884.605-.097 1.178-.128 1.673-.323l1.618 5.672ZM77.066 37.328h.09c-.024-.262-.08-.864-.132-1.382-.015-.163-.031-.421-.045-.557-.011-.133-.004-.195-.058-.178l-1.205 1.764 1.35.353Zm7.083-1.059-.147.382c-.214.071-.375-.13-.706-.148-.513.695-.842 1.528-1.292 2.294l-1.205 2.175c.343.166.686.33 1.03.5.783.218 1.495-.417 1.702-.883.148.077.295.156.443.236l.028.086-1.146 1.647c-.052.058 0 .021-.09.058-.827-.503-1.572-.9-2.44-1.35-.406-.21-.866-.524-1.324-.702-.337-.129-.796-.246-1.18-.36-.478-.14-.892-.27-1.4-.378.028-.147.058-.295.088-.442.243.019.438.076.675.03.19-.37.04-1.005.03-1.47-.589-.147-1.177-.295-1.764-.44-.14.034-.33.273-.483.53-.11.185-.248.416-.241.593.006.227.205.36.635.435v.028c-.037.128-.077.255-.117.382v.059c-.726-.166-1.48-.35-2.204-.518.01-.136.048-.257.06-.393v-.087c.818.178 1.1-.438 1.44-.912l2.79-3.968.764.118c.139 1.402.276 2.801.412 4.203.1.62-.026 1.47.294 1.88.144.184.523.335.793.382.575-.545.852-1.44 1.264-2.144.284-.487.608-1.027.873-1.552.126-.245.243-.452.331-.711-.134-.184-.293-.336-.527-.411.068-.139.146-.28.215-.417.143.074.28.14.423.216.66.345 1.317.705 1.976 1.052ZM83.508 51.073c.008.957.01 1.958-.035 2.269v4.643c-.126.43-.257.77-.422 1.12-.608 1.276-1.7 2.101-3.28 2.289a5.893 5.893 0 0 1-1.135.026c-1.217-.067-2.238-.548-2.942-1.326-.632-.704-.999-1.66-1.154-2.578v-4.879c0-.304.014-.728.008-1.117 0-.295 0-.571-.096-.733-.188-.32-.45-.451-.86-.52-.258-.045-.605-.011-.934-.011.012-.449.02-.9.031-1.351a133.51 133.51 0 0 1 2.068.002c.429.004.921-.022 1.259.057.388.093.617.261.785.528.095.148.056.358.066.61.022.522-.005 1.183-.005 1.596 0 .87-.003 2.09-.015 3.277-.012.942-.042 1.897.074 2.605.07.42.208.729.38.964.423.574 1.1.918 1.81.987 1.236.12 2.555-.576 2.862-1.75l.03-4.615v-.618l-3.055-2.526v-.06l.676-.94c.05-.03.129-.1.275-.115.315-.031.845.015 1.386.023.92.01 1.865-.03 2.07.181.207.212.14.782.153 1.962ZM77.449 79.408c.03-1.285.06-2.567.088-3.85-.23.19-.557.564-.76.818-.539.688-.977 1.229-1.355 1.795l-.764 1.149c-.011.028-.02.057-.03.088h2.821Zm3.484 2.45c.015.212.012.3-.012.43-1.79.009-3.56.02-5.353.028-.047-.096-.067-.054-.061-.223-.025-.216.022-.204.08-.257.171-.052.275-.004.534-.025.549-.04.71-.056.994-.12.019-.005.086-.056.103-.064.24-.136.167-.435.231-1.279-1.312.009-2.625.02-3.938.028-.167-.409-.041-.68.182-1.028.195-.311.468-.7.715-1.055.696-.996 1.565-1.944 1.983-2.47l1-1.088c.352-.098 2.046-.302 2.138-.222.043.056.033.197.025.399a9.434 9.434 0 0 1-.048.792l-.059 3.704h1.41c.116.124.063.662.06.88-.324.15-1.036.068-1.47.06 0 .496.051.909.118 1.293.327.156.897.179 1.368.218Z" fill="#204989"/><path fill-rule="evenodd" clip-rule="evenodd" d="M78.155 55.341c0 .368-.019.828-.017 1.25 0 .304 0 .588.075.807.145.418.462.827.91.91.449.084.648.027.937-.125.2-.105.388-.327.487-.559.07-.162.125-.17.126-.321.019-1.45.051-3.156.038-4.165l-2.556-2.148v4.351Zm0-4.379c.136-.176.273-.354.41-.529l.06-.029 2.792 2.321c.062.136.056.37.064.716.017.588.008 1.374-.036 1.665l-.028 2.496c-.294 1.123-1.962 1.875-3.174 1.088-.39-.253-.673-.743-.794-1.262l-.029-6.291c-.013-.383.007-.749-.007-1.133a10.319 10.319 0 0 0-.051-.835c-.107-.286-.447-.49-.912-.586-.443-.093-1.001-.085-1.572-.093-.792-.01-1.626 0-2.189.005v-.676c.769-.009 1.694.002 2.53-.027 1.777-.057 2.334.202 2.73.85.305.496.213 1.527.206 2.32Z" fill="#204989"/><path fill-rule="evenodd" clip-rule="evenodd" d="M74.04 52.873v4.877c.34 1.93 1.806 3.867 4.097 4.219a4.581 4.581 0 0 0 1.634-.016c2.096-.4 3.728-1.666 4.203-3.674.008-.67.047-1.335.055-2.003.015-1.027-.01-2.055 0-3.082 0-.824.06-2.968-.037-4.03-.03-.34-.175-.46-.313-.553-.195-.131-.689-.146-1.264-.158-.854-.023-1.886.004-2.38.012.139-.186.275-.374.41-.56.066-.056.118-.068.283-.06.238.011.55.004.746.002.355-.002.762-.048 1.157-.047.46.002 1.042-.005 1.418.136.069.024.326.083.602.558.166.288.112.908.12 1.487.013.891-.004 1.84-.004 2.48-.012 1.567-.02 3.133-.03 4.702-.095.613.035 1.202-.118 1.705-.34 1.112-1.16 2.042-1.998 2.674-2.065 1.553-4.599 1.433-6.455.456-1.468-.774-2.558-2.253-2.86-3.923.01-2.034.052-4.026.06-6.06.001-.14.016-.353-.02-.466-.008-.03-.03-.058-.04-.087h-.705l.03-.707c.534-.003 1.115-.057 1.323.265.081.127.078.347.088.586.02.424-.002.931-.002 1.267ZM77.33 101.565a977.02 977.02 0 0 0-1.058-2.175c-.369.27-.813.365-.998.821-.116.286-.054.635.053.903.172.437.526.742.887.803.447.075.806-.243 1.116-.352Zm-7.425 2.953c-.027-.083-.083-.2-.113-.283-.116-.357-.238-.692-.25-.849l.53-.176c.155.494.549.982 1.059 1.116.61.161 1.394-.337 1.25-.954-.297-1.247-1.606-.755-2.768-1.054-.448-.117-.857-.31-1.069-.636-.386-.599-.441-1.195-.268-1.698.059-.173.144-.336.253-.483.283-.382.7-.646 1.132-.816.451-.11.902-.216 1.352-.325.17-.088.331-.204.5-.293.525-.275 1.06-.52 1.588-.793.713.553 1.378 1.629 2.292 1.856.229.056.383-.083.674-.181l-.91-1.853c-.065-.042-.128-.098-.191-.109-.178-.033-.406.102-.6.19-.082-.14-.102-.298-.18-.431.805-.402 1.608-.805 2.41-1.207l.236.354v.089c-.184.086-.571.198-.5.528l.676 1.35c.246.488.541 1.123.817 1.724.234.507.44.993.74 1.305.186-.06.373-.117.557-.178a.726.726 0 0 1 .209.443c-.27.089-.507.219-.754.339-.94.462-1.793 1.055-2.98 1.247-.767.123-1.412-.499-1.563-1.257-.046-.239-.065-.492.006-.742.115-.402.442-.628.674-.912-1.003-.056-1.449-.592-1.92-1.002-.217-.19-.424-.388-.723-.437l-.351.06c.184.549.371 1.097.557 1.645l-.499.205c-.147-.153-.222-.36-.338-.532-.218-.328-.397-.582-.839-.701-.083-.023-.17-.005-.251-.001-.13.004-.255.013-.37.046-.578.166-.938.726-.702 1.307.098.236.317.419.608.522.56.205 1.372.196 2.027.299.44.069.71.207.952.413.19.161.28.422.382.676.179.446.137.836.06 1.13-.137.541-.634.872-1.151 1.18-.396.237-.892.208-1.277.341-.266.09-.447.267-.63.403-.054-.06-.113-.198-.179-.379-.05-.142-.104-.309-.165-.486ZM71.103 62.188c-.35.121-.938.113-1.571.12-.67.008-1.383.02-1.751-.12-.752-.291-1.093-1.119-1.528-1.735-.68-.96-1.31-1.966-1.969-2.967-.352-.539-.707-1.078-1.058-1.616l-.058-.03c.008.56.02 1.116.029 1.676.044.142.242.294.41.468.453.461 1.134.994 1.411 1.353l-.383.558a.679.679 0 0 1-.057.03c-.318-.376-1.191-1.106-1.697-1.63-.159-.167-.313-.277-.36-.397l-.029-4.057c.057-.008.117-.02.177-.028a5494.78 5494.78 0 0 0 3.584 5.318c.285.422.68 1 1.036 1.498.255.355.44.673.757.852.262.151.76.166 1.21.166.4-.003.84-.01 1.178-.075a1.76 1.76 0 0 0 .697-.294c.587-.443.411-1.841.411-2.851l-.029-6.818c0-.547.07-1.286.048-1.892-.012-.343-.03-.64-.166-.841-.14-.207-.408-.34-.743-.4-.296-.054-.648-.046-1.012-.047-.561-.003-1.16.001-1.625.006v-.03l.471-.675c.826-.008 1.808-.03 2.55.025.426.033.773.2.979.445a.878.878 0 0 1 .226.438c.034.201 0 .454.008.692.016.68-.001 1.528-.001 2.043v7.14c0 1.075.181 2.374-.294 3.029-.2.273-.506.523-.851.646Z" fill="#204989"/><path fill-rule="evenodd" clip-rule="evenodd" d="m69.77 105.079.098.394-2.616.792-.118-.44c.218-.06.464-.131.56-.324.049-.164-.02-.348-.096-.571-.09-.268-.198-.578-.258-.75l-1.087-3.38c-.215-.131-.503-.062-.735.028h-.03l-.117-.469 2.587-.823h.087c.031.156.106.302.125.373.003.015.007.026.007.037 0 .05-.046.055-.1.07-.118.03-.319.052-.502.284-.048.143.145.725.362 1.411.295.929.657 2.032.754 2.322.118.345.148.89.442 1.056.16.064.436-.031.588-.088h.029c.006.026.012.052.02.078ZM71.395 33.036c-.373-.008-.676.012-.908.137-.468.253-.695.831-.855 1.509-.175-.028-.357-.054-.533-.083.137-.745.278-1.495.416-2.24 1.734.197 3.468.395 5.2.59-.028.764-.058 1.528-.087 2.29l-.53-.028c-.097-.583-.067-.972-.208-1.27a1.028 1.028 0 0 0-.365-.455c-.176-.114-.431-.188-.72-.273h-.087c-.186 1.676-.373 3.35-.557 5.025.171.178.41.261.761.266-.018.135-.03.328-.05.467-.087.027-.566-.041-1.099-.112-.723-.092-1.566-.202-1.847-.209l.06-.471h.645c.355-.186.243-.92.323-1.38.15-1.255.295-2.508.442-3.763ZM68.674 56.049c-.319-.375-.949-1.41-1.157-1.707-1.203-1.724-2.345-3.42-3.546-5.143-.084-.119-.222-.266-.304-.382-.529-.4-1.075-.41-2.226-.416-.64 0-1.308.004-1.889.004-.39-.009-.784-.02-1.175-.028-.096-.102-.068-.45-.058-.647.802-.003 2.007-.01 3.108-.002.947.005 1.815.002 2.3.237.682.333 1.014 1.101 1.438 1.704.323.469.65.936.974 1.405l2.084 3.003c0-.395-.011-.766-.068-1.052-.037-.186-.104-.307-.17-.477l-1.644-1.615.324-.47c.048-.04.098-.078.146-.12.675.669 1.352 1.334 2.028 2 .067.133.053.427.061.764.019.552.027 1.222.027 1.528-.01.47.01.882 0 1.353.001.011 0 .035-.005.06-.002.021-.024.034-.024.057-.078-.008-.145.037-.224-.056ZM72.503 75.96c-1.183.015-2.38 0-3.559.009-.414.002-.805.025-1.224.029-.027.597-.055 1.195-.086 1.792.314-.068.57-.159.886-.228.224-.048.506-.074.73-.124.243-.039.563-.007.813-.003 1.393.023 2.722.593 2.897 1.8.026.176.053.358.023.555-.317 1.924-2.754 2.684-4.555 2.71-.685.007-1.34-.129-2-.242l-.527-1.617c.157-.057.313-.118.47-.175.264.186.347.366.568.59.122.124.357.314.52.41 1.234.712 3.293.36 3.555-.972.07-.371-.028-.69-.168-.954-.412-.771-1.537-1.076-2.567-.867-.452.092-.826.277-1.212.421-.115.045-.216-.061-.345-.098.009-.559.054-.968.073-1.576.018-.87.002-1.944-.102-2.715l.09-.087c.94 0 1.92.05 2.888.05.96 0 1.911-.05 2.841-.05.086.193 0 .487-.028.82-.015.16.013.392.019.522Z" fill="#204989"/><path fill-rule="evenodd" clip-rule="evenodd" d="M70.749 60.895c-.183.136-.692.174-1.217.186-.51.014-1.036 0-1.253-.129-.282-.167-.454-.526-.645-.792-1.156-1.674-2.312-3.351-3.467-5.026-.185-.273-.533-.802-.839-1.265-.259-.391-.47-.731-.69-.85-.127-.056-.242-.006-.354.03-.096.137-.192.267-.234.47a90.67 90.67 0 0 0-.028 2.485c0 .666 0 1.356.028 2.04.035.097.35.39.706.752.586.594 1.34 1.34 1.528 1.482-.137.224-.274.45-.413.674-.41.189-1.954-.004-3.407.019-.264.006-.345-.144-.412-.194-.093-.392-.074-1.077-.07-1.757.003-.609-.02-1.214.041-1.592l-.03-3.908c0-1.055.041-2.058-.055-2.621-.036-.212-.166-.337-.282-.465-.23-.26-.659-.26-1.338-.265l.03-1.353c.828-.001 2.023-.023 3.049.01.666.02 1.253.031 1.653.197.516.213.753.829 1.056 1.264.746 1.057 1.49 2.115 2.235 3.172.59.873 1.175 1.745 1.763 2.615.184.277.395.912.939.707.167-.064.323-.14.35-.354.09-.716.063-1.412.063-1.968l-.06-2.175c-.054-.19-.503-.65-.992-1.136-.537-.54-1.126-1.112-1.331-1.25.084-.135.164-.273.25-.405l.347-.545c.02-.017.009-.067.055-.072.166-.023.545-.007.857-.007.503-.002 1.38-.008 1.79.014.15.009.231.077.294.111.079.045.15.129.18.154.133.12.16.357.174.647.022.535-.007 1.248-.007 1.696v6.787c0 .776.2 2.273-.264 2.617ZM67.312 38.62c-.007 0 .005.028 0 .028-.075.006-.17-.027-.246-.027-.008 0 .012.03.003.03-.153 0-.31-.004-.464 0v-.473c.095-.011.205 0 .3-.011.119-.019.241-.03.347-.076.162-.314.088-.982.088-1.44 0-.607-.025-1.37-.043-2.125-.013-.556.003-1.13-.104-1.52-.175-.067-.382-.094-.646-.086v-.47l2.731-.06v.47c-.038.008-.083.01-.123.015-.096.005-.192.007-.283.024-.083.016-.133.021-.24.08-.057.061-.053.201-.06.372-.014.302-.002.698.003.891.007.364.054.965.054 1.596-.005.9-.044 1.854.121 2.223.077.008.15.038.226.044.14.012.282.005.42.016l.03.469c-.159.004-.314-.004-.473 0-.015 0 .014.03 0 .03-.209-.003-.472-.005-.692.003-.23.008-.453-.006-.677-.003-.072 0-.192.004-.272 0ZM62.463 101.653c-.203-.088-.52.013-.705.058a60.75 60.75 0 0 1-.089-.472c.97-.204 1.938-.411 2.91-.615.029.147.057.294.087.44-.264.059-.559.116-.705.294-.066.423.139.936.234 1.322.267 1.226.53 2.45.796 3.674 1.327-.146 1.193-1.346 1.175-2.115.166-.031.332-.059.5-.088.116.744.234 1.489.351 2.23v.031c-1.665.374-3.33.745-4.995 1.118-.032-.007-.108.057-.141-.042-.166-.506-.599-1.855-.625-2.134.159-.049.352-.092.506-.141.147.318.245.503.344.69.239.445.366.747 1.106.798.144.009.255-.017.456-.024.008-.01.02-.019.029-.031-.274-1.232-.551-2.466-.823-3.701-.1-.405-.091-1.105-.411-1.292Z" fill="#204989"/><path fill-rule="evenodd" clip-rule="evenodd" d="M63.49 61.541v.03l-.352.646c-.502.004-1.012-.018-1.688-.022-.538-.004-1.19.05-1.653-.036a1.067 1.067 0 0 1-.685-.414c-.491-.65-.35-2.038-.35-3.171-.012-2.39-.021-4.782-.032-7.172h-.47c.009-.245.02-.488.03-.733.5-.005.698-.072.879.095.015.018.141.115.154.135.144.253.145.51.145.99-.001.453-.005 1.012-.005 1.512.008 2.023.004 3.978.01 6 .002.458.019.98.02 1.434a.944.944 0 0 0 .414.555c.192.132.818.14 1.349.156.8.018 1.617 0 2.234-.005ZM58.386 105.691a5.424 5.424 0 0 1-.362-.572.618.618 0 0 1-.058-.029c-.16.458-.471.88-.717 1.321-.146.257-.288.507-.311.825.189.137.37.189.734.176l.03.47c-.784.038-1.568.079-2.352.118l-.028-.442c.214-.08.429-.156.646-.235.198-.144.773-1.156 1.204-1.921.15-.268.288-.476.379-.636.033-.059.086-.138.09-.176.035-.186.01-.491-.017-.855-.04-.566-.101-1.217-.159-1.436-.187-.11-.44-.129-.764-.117-.008-.158-.02-.314-.028-.471l2.908-.146c.011.155.022.312.03.469-.215.03-.43.059-.646.086-.043.069-.097.134-.11.243-.023.193.015.467.019.718.005.359.004.676.05.928.008.044-.017.15.018.275.01.033.172.219.241.325.172.256.36.518.595.853.517.738 1.044 1.531 1.186 1.627.084.019.133.051.216.071.084.02.2.026.283.046.009.157.02.314.03.469l-2.763.148-.03-.469c.166-.04.332-.08.503-.118l.086-.06c-.038-.295-.189-.474-.365-.717-.179-.247-.357-.509-.538-.768ZM62.67 78.38c.628-.2.776-1.263.527-2.087-.225-.745-.75-1.146-1.763-1.117-.127.056-.248.067-.36.108-.193.075-.33.154-.492.362-.244.314-.286.736-.294 1.088-.008.444.11.931.367 1.26.464.585 1.315.606 2.015.385Zm2.437 1.115c-.285.657-.691 1.142-1.454 1.72-.016.01-.229.166-.245.177-.499.336-.903.569-1.656.794-.562.166-1.572.397-2.145.31-.258-.04-.447-.234-.7-.326l-.029-.06.118-.147c.17-.071.443-.022.714-.01.31.01.622-.016.872-.076 1.222-.3 1.86-.912 2.275-1.844.158-.36.234-.762.37-1.214v-.146h-.03l-1.204.735c-.354.116-.778.147-1.126.152-1.632.033-2.915-1.067-2.46-2.916.24-.968 1.092-1.622 2.028-1.909.343-.06.685-.117 1.029-.178.775-.007 1.342.007 1.892.19.282.092.696.295.883.45.35.286.647.56.857.979.167.337.258.586.304 1.057.079.78-.057 1.721-.293 2.262ZM58 27.51c0 .002-.003.002-.005.003h-.058L58 27.51ZM57.672 49.206c.015.45 0 .969 0 1.402v1.559l-.735.47c-.097-.255-.031-.725-.014-1.175.049-1.103.066-2.448-.25-2.879-.184-.254-.99-.3-1.814-.307a18.596 18.596 0 0 0-1.705.05l-.544.044c-.465.038-.859.068-1.284.213-2.686.906-4.25 2.714-4.762 5.847-.105.642 0 1.387.118 1.91.613 2.691 2.113 4.592 4.701 5.288.675.18 1.596.288 2.455.147.232-.037.506-.074.721-.125 1.177-.272 2.051-.718 2.643-1.255.235.095.342.406.5.587-.184.25-.692.545-1.215.79-1.172.552-2.77.908-4.155.772-.313-.034-.707-.062-.978-.152-1.82-.595-3.342-1.49-4.32-2.997-2.458-3.784-.953-8.504 1.935-10.472.366-.247.745-.483 1.15-.636.328-.123.685-.298 1.027-.39.479-.123.957-.152 1.531-.256.41-.02.821-.039 1.233-.056 1.545-.02 3.3-.116 3.704.998.06.168.05.389.058.623ZM57.555 81.876c.112.075.099.22.087.412h-6.201c-.07-.075-.067-.23-.057-.382.504-.23 1.733.073 1.998-.382.138-.241.13-.552.13-.92 0-.263.017-.516.017-.787-.017-.997 0-1.997-.017-2.995-.003-.355-.037-.707-.042-1.058-.501-.22-1.907.6-2.527.676-.02-.012-.04-.02-.059-.03l-.176-.706v-.088c.482-.053.964-.185 1.437-.298.649-.152 1.283-.3 1.882-.466l1.589-.411c.077.03.156.06.233.088-.12 1.205-.115 2.52-.146 3.88v1.556c.075.517-.14 1.26.088 1.647.214.36 1.339.103 1.764.264ZM59.596 37.545c-.018-.124-.294-.402-.54-.74-.287-.401-.597-.848-.737-.976-.05.715-.097 1.43-.148 2.145.462-.136.964-.291 1.425-.428Zm5.864-2.282c.296-.624.053-1.557-.48-1.954-.189-.141-.437-.16-.725-.155-.196.04-.392.08-.587.117.185.861.37 1.725.558 2.586v.06c.642-.098 1.05-.258 1.234-.654Zm-8.67 3.996c-.002-.071.008-.188 0-.252 0-.012-.003 0-.01-.005-.007-.003-.017.007-.018 0 0-.02-.03-.007-.03-.03.168-.001.369-.03.528-.027.004 0 0 .027.003.027.016.002.016-.004.028.003.004.002-.004.02.002.027.006.005.027-.004.027 0-.004.212.017.616-.012.888-.03.246-.056.364-.105.492.302-.291.352-1.16.393-2.173.058-1.438.211-3.188.254-3.929l.704-.273c.884 1.166 1.763 2.33 2.645 3.497.148.201.347.488.53.745.168.238.318.412.528.548.11.07.296.012.467.001.358-.026.45-.083.59-.118.215-.366-.042-.991-.146-1.413-.265-1.183-.529-2.37-.793-3.554-.048-.03-.069-.087-.123-.09-.149-.012-.368.026-.553.06l-.089-.47 3.086-.645c.596-.015 1.028 0 1.352.155.451.215.727.657.822 1.342.064.446.011.964-.177 1.235-.37.53-.896.709-1.513.914-.256.085-.492.13-.778.203h-.059c.137.597.275 1.193.411 1.791.217.14.457.082.764.03l.089.47c-.754.166-1.509.332-2.264.5-.244.028-.488.06-.734.089l-2.35.733-.118-.412c.185-.098.373-.195.558-.292l.03-.147c-.236-.362-.47-.725-.705-1.087-.174-.06-.438.038-.726.131-.408.13-.86.293-1.157.367-.003.473-.049.972.061 1.353.038.02.08.038.117.057.22.095.488-.02.676-.057.038.156.08.314.118.468-.528.082-1.887.75-2.265.59-.272.387-.65.62-1.114.82-2.035.882-3.365-.38-3.997-1.849-.208-.48-.456-1.196-.324-1.91.347-1.888 1.89-2.255 2.876-2.46a1.72 1.72 0 0 0 .306-.107c.192-.085.255-.253.426-.378.333.664.674 1.338 1.006 2.005-.157.077-.313.157-.472.235-.327-.313-.538-.695-.968-.911-.312-.158-.824-.189-1.175-.06-.395.143-.665.416-.784.74-.295.802.181 1.945.55 2.64.313.594.892 1.247 1.585 1.467 1.108.344 2.017-.68 2.029-1.835.001-.033 0-.103-.001-.139Z" fill="#204989"/><path fill-rule="evenodd" clip-rule="evenodd" d="M55.234 57.574c.138.175.274.353.41.528-.38.482-1.333.793-1.967.354-.414-.286-.624-.793-.912-1.204a68.137 68.137 0 0 1-1.998-3.03c-.237-.377-.785-.93-.734-1.527.083-.978.846-1.249 1.586-1.586.435-.006.773.01 1.03.175.166.11.532.613.89 1.1.512.697 1.037 1.452 1.195 1.751-.177.11-.353.216-.529.324-.02.02-.037.04-.059.058l-1.94-2.673c-.5-.37-1.29.238-1.44.617-.187.48.623 1.398.824 1.705.588.9 1.175 1.802 1.763 2.704.22.33.438.903.824 1.057.456.182.83-.189 1.057-.353ZM53.44 29.628h-.058l.07-.007-.011.007Z" fill="#204989"/><path fill-rule="evenodd" clip-rule="evenodd" d="M56.997 59.954c-.27.288-.763.483-1.24.737-.493.262-.95.46-1.588.56-1.016.162-2.16.098-3.049-.239-.888-.337-1.53-.745-2.084-1.267-.705-.662-1.234-1.507-1.548-2.601-.144-.498-.173-1.048-.275-1.655-.119-.699-.07-1.625.117-2.234.576-1.892 2.046-3.36 3.82-4.056.243-.057.494-.14.738-.193.276-.065.543-.098.816-.159.43-.005.965-.003 1.648-.003.709 0 1.563 0 1.821.179.088.06.18.176.214.398.134.882.09 2.813.081 3.51l-1.293.822c-.46-.575-.824-1.24-1.269-1.89-.26-.386-.553-.823-.907-1.077a1.385 1.385 0 0 0-.88-.287 2.97 2.97 0 0 0-1.606.487 2.513 2.513 0 0 0-.95 1.18c-.238.627-.033 1.112.29 1.651.27.451.626.984.826 1.288.297.452.709 1.208 1.214 1.895.464.628.852 1.324 1.33 1.748.273.244.571.386.865.442.846.166 1.402-.36 1.88-.616.344.46.688.919 1.029 1.38Z" fill="#204989"/><path fill-rule="evenodd" clip-rule="evenodd" d="M32.048 64.568c-.37-1.563-.924-3.012-1.81-4.192-.393-.521-.88-1.078-1.392-1.42.1.775.467 1.652.914 2.516.668 1.29 1.537 2.523 2.288 3.096Zm.234-5.526h.03c-.17-1.826-.603-3.477-1.429-4.782-.276-.435-.616-.96-.98-1.27.132 1.447.676 3.213 1.392 4.547.304.569.665 1.1.987 1.448v.057Zm.589 11.08c-.076-.275-.25-.6-.43-.915a8.676 8.676 0 0 0-.326-.558c-.921-1.419-2.411-2.912-3.533-3.346.351.775.803 1.474 1.333 2.169a10.45 10.45 0 0 0 2.956 2.65Zm-1.545 3.512c1.031.855 2.237 1.607 3.22 1.895-.956-1.527-2.971-3.41-5.111-3.94.344.651 1.066 1.36 1.892 2.045Zm3.694-26.533a12.43 12.43 0 0 0-.032-2.825c-.143-1.085-.47-2.184-.794-2.511-.04.369-.135.737-.154 1.137-.057 1.257.011 2.51.245 3.615.122.577.258 1.191.526 1.623v.06c.125-.262.16-.65.21-1.1Zm1.79 32.893c-.29-.367-.808-.684-1.489-1.13-1.25-.816-3.093-1.482-4.417-1.456.218.287.65.57 1.127.868 1.345.834 3.367 1.59 4.78 1.718Zm.568-14.381c.035-.231.084-.507.02-.663-.229.335-.536.573-.776.976-.835 1.406-1.716 2.788-1.958 4.87.435-.48.59-.633.875-1.028a11.656 11.656 0 0 0 1.564-3.086c.076-.233.21-.644.275-1.07Zm.224-9.697c.102-.223.228-.465.205-.635-.313.227-.625.45-.939.678-.183.142-.35.343-.575.57-.273.276-.619.593-.915.941a11.082 11.082 0 0 0-1.114 1.598c-.236.405-.499.847-.57 1.18 1.39-.866 2.553-2.006 3.409-3.41a9.19 9.19 0 0 0 .5-.922Zm.11-13.519c.305-1.312.546-2.73.184-4.305-.08-.344-.096-.772-.294-1-.263.67-.544 2.057-.584 3.258-.013.357-.04.622-.004 1.033.05.526.123 1.048.226 1.543.044.212.103.424.127.631h.03c.075-.387.223-.76.314-1.16Zm.45 29.018c.038-.226.04-.59.033-1.01-.002-.354-.002-.727-.093-.93l-.617 1.176c-.615 1.446-.946 3.015-.911 5.112.393-.476.847-1.543 1.16-2.544.22-.707.352-1.374.427-1.804Zm1.233-20.777h-.088c-.422.207-.843.413-1.264.617a13.314 13.314 0 0 0-2.528 1.978c-.26.264-.49.544-.717.835-.15.192-.315.392-.429.597.485-.148 1.005-.428 1.497-.7 1.49-.816 2.886-2.053 3.529-3.327Zm.244 28.438c.397-1.271.716-2.716.4-4.282-.059-.308-.038-.678-.203-.882-.114.339-.234.608-.348.99-.28.949-.512 2.113-.498 3.267.003.33 0 .695.052 1.032l.148 1.058v.06h.029c.124-.394.288-.808.42-1.243Zm.432 4.915v-.028l-1.234-.707c-.932-.475-1.854-.8-3.086-1.032-.55-.102-1.148-.094-1.822-.083l-.06.029c.193.225.605.395 1.023.621 1.534.829 3.99 1.226 5.18 1.2Zm1.577-49.102c.01-.23.017-.525.01-.907a20.73 20.73 0 0 0-.028-.846c-.003-.04.006-.089-.01-.118-.004-.008-.008-.012-.017-.012-.008 0-.02 0-.036.003-.215.47-.429.938-.642 1.409-.527 1.324-.836 3.126-.56 4.908.34-.518.53-1.015.78-1.782.283-.868.474-1.903.503-2.655Zm2.508 52.541v-.06c-.51-.148-.943-.352-1.442-.496-.993-.287-2.134-.468-3.562-.443-.432.024-.975.065-1.417.272.601.288 1.273.472 1.954.639.676.088 1.351.175 2.026.264.162.025.374 0 .531.002.694.007 1.3-.141 1.91-.178Zm1.674-56.39c.085-.408.182-1.31.088-1.736-.225.372-.449.746-.675 1.117-.123.21-.205.427-.306.653-.57 1.213-.93 2.652-.9 4.401.378-.43.637-.907.91-1.588.38-.946.716-2.056.883-2.848Zm.617 56.243a11.494 11.494 0 0 0-.6-4.73c-.2-.57-.444-1.224-.722-1.587-.157 1.749.019 3.542.53 4.819.244.488.489.98.735 1.468l.057.03Zm.44-48.458c.011-.019.02-.038.03-.058h-.763l-1.471.235c-1.358.341-2.807.866-3.881 1.637-.02 0-.066.037-.085.037.145.058.431.012.647.005a8.699 8.699 0 0 0 1.293-.152c1.194-.235 2.22-.445 3.115-.968l1.115-.736Zm2.264 51.956v-.032c-.454-.088-.834-.264-1.283-.37a12.485 12.485 0 0 0-3.037-.305c-.323.04-.648.077-.97.118l-1.204.322c.429.273 1.458.459 2.46.56.833.088 1.63.126 2.24.03.599-.109 1.197-.217 1.794-.323Zm1.24-55.296c.044-.02.063-.02.082-.03-.109-.06-.312-.063-.569-.068h-.156c-.352-.01-.636-.006-.892.002l-1.205.146c-1.063.22-2.408.545-3.433 1.154-.02 0-.043.023-.062.023.13.063.517.086.751.09.494.011.883-.01 1.216-.034.507-.034.986-.09 1.41-.17 1.165-.226 1.866-.504 2.858-1.113Zm3.961 57.204c.009-.02.02-.038.03-.058l-1.881-.03c-.349.03-.573.061-.895.092-.453.045-.92.15-1.279.26a8.593 8.593 0 0 0-1.414.562c-.269.139-.493.281-.791.439l-.03.088c.34 0 .656.04.98.016 1.475-.103 2.7-.254 3.81-.692.49-.227.98-.45 1.47-.677Zm.094-2.643c.632.71 1.365 1.353 2.021 1.645-.846-2.08-2.258-3.894-4.054-5.025.314 1.034 1.078 2.3 2.033 3.38Zm.729-64.533c.097-.219.678-1.377.558-1.527-.323.295-.646.587-.97.88-.319.39-.678.753-.994 1.16a8.55 8.55 0 0 0-1.117 1.914c-.177.417-.375.904-.446 1.395.254-.11.483-.35.781-.661.852-.892 1.841-2.378 2.188-3.16Zm5.317 68.322.09-.117h-.118c-.637.097-1.273.195-1.91.294-1.557.396-3.079 1.036-4.027 2.056 1.752-.233 3.242-.558 4.498-1.293l1.467-.94Zm.747-71.27c.062-.148.176-.345.166-.46l-1.03.735c-.094.073-.182.16-.276.239a10.817 10.817 0 0 0-1.65 1.756c-.492.652-.883 1.347-1.13 2.119.776-.31 1.352-.919 1.978-1.584a12.728 12.728 0 0 0 1.448-1.897c.143-.235.337-.545.494-.908Zm.87 70.037v-.03c-.438-.817-1.297-1.735-2.267-2.544-.85-.708-1.781-1.339-2.61-1.6.383.76 1.216 1.731 2.156 2.566.877.78 1.837 1.351 2.721 1.608Zm4.702.822h-.119c-.518.195-1.036.39-1.557.588-1.441.636-2.798 1.72-3.615 2.998.971-.254 2.137-.89 3.093-1.538a9.62 9.62 0 0 0 2.198-2.048Zm.794-1.147c-.365-.515-.913-.94-1.58-1.4-1.193-.813-2.736-1.554-4.033-1.832a9.41 9.41 0 0 0 1.708 1.56c1.146.825 2.539 1.502 3.905 1.672Zm.882-64.971v-.058c-.39-.133-.7-.31-1.099-.432-1.164-.36-2.498-.596-4.133-.567-.37.05-.744.097-1.114.146.302.127.604.256.91.382 1.149.464 2.337.717 3.555.72.616.002 1.156-.075 1.88-.191ZM71.168 93.8c.29-.333 1.054-1.154 1.168-1.58-.442.224-.882.449-1.322.677-1.086.66-2.051 1.46-2.792 2.467-.225.306-.516.602-.647 1l-.058.086c1.29-.464 2.939-1.84 3.651-2.65Zm1.755-3.286v-.03l-.999-.556c-1.424-.627-3.072-1.225-5.083-1.205.381.333 1.036.643 1.676.9 1.264.504 2.235.936 4.406.891Zm.764-66.322v-.032c-.697-.166-1.53-.246-2.409-.233l-1.735.147c-.566.117-1.077.259-1.6.415-.222.068-.466.19-.69.231.283.185.754.136 1.145.207 1.158.209 2.626.14 3.835-.185.505-.137 1.11-.332 1.396-.55h.058Zm-20.188 6.082-1.496.354c.218.126.721.235 1.132.322.474.098.877.17 1.407.214.489.04.979.028 1.394.013.292-.008.527-.004.766-.05.388-.074.83-.166 1.186-.27.23-.066.381-.154.608-.201v-.028c-.323-.07-.548-.174-.886-.237-.85-.16-1.862-.24-2.924-.227-.394.038-.794.071-1.187.11ZM39.894 40.09c-.742-2.155-.054-5.17.987-7.144.32-.606.648-1.23.981-1.554l.03-.06h.03c.122.517.28 1.062.33 1.646.177 1.994-.125 3.193-.566 4.936l1.295-1.41c.138-.132.268-.268.462-.453-.028-.333-.024-.682-.053-1.015 0-.781.044-1.47.207-2.116.372-1.475.993-2.833 1.762-3.939.334-.42.667-.841 1-1.263a.453.453 0 0 0 .059-.03h.03c.056.423.135.849.15 1.293.04 1.194-.116 2.438-.415 3.409-.207.568-.411 1.137-.617 1.705.508-.412 1.018-.823 1.527-1.234a9.177 9.177 0 0 1 .71-3.488 11.186 11.186 0 0 1 1.964-3.103c.465-.518.919-1.037 1.383-1.343-.012 1.003-.004 1.558-.157 2.329l-.112.465a8.339 8.339 0 0 1-.424 1.388c-.268.702-.64 1.292-.983 1.987.656-.4 1.313-.802 1.968-1.204.075-.347.136-.67.204-1.005.06-.293.16-.603.268-.875.952-2.408 2.715-4.17 4.788-5.466-.012.623-.19 1.239-.363 1.806-.3.988-.716 1.857-1.164 2.572l-.94 1.323c-.041.048-.08.099-.118.147l2.439-1.116c.113-.692.484-1.447.847-2.06.738-1.254 1.766-2.241 2.757-3.001.104-.077.232-.156.332-.23.36-.26.89-.607 1.342-.863.256-.144.413-.253.688-.311-.081.454-.216.836-.355 1.23-.437 1.23-1.107 2.219-1.839 3.123-.287.355-.578.62-.891.994l2.173-.676c.38-.788 1.043-1.77 1.92-2.685 1.111-1.16 2.538-2.215 3.884-2.684l.358-.08c.285-.064.406-.022.685-.018v.03c-.157.409-.295.787-.542 1.229-.194.354-.438.74-.69 1.081a8.971 8.971 0 0 1-1.554 1.584c-.352.287-.72.601-1.093.751l-.029.057c.298-.03.71-.144 1.022-.192.325-.048.552-.03.82-.154.791-.36 1.486-.599 2.3-.806.875-.222 1.838-.25 2.807-.276a9.604 9.604 0 0 1 1.583.068c.157.022.293.03.46.068.274.064.523.128.74.237.028.012.143.062.168.076.185.095.26.192.444.276l.058.087c-.328.356-.847.56-1.322.764-1.684.726-3.333.888-5.13.692-.446-.049-.834-.11-1.304-.207-.192-.04-.452-.118-.648-.155-.223-.042-.36.014-.587.045-.6.077-1.284.278-1.823.33.442.04.882.078 1.323.119 1.655.307 3.468.64 4.29 1.792-.418.31-1.239.477-1.924.563-2.007.257-4.575-.31-6.055-1.121-.313-.17-.674-.308-.837-.47-.487.087-1.078.302-1.69.526-.45.165-.948.328-1.243.5-.023 0-.044 0-.064.002h.058l.006-.002c.334-.012.68-.043 1.01-.052.345-.01.67.005 1.013-.006.502.078 1.141.125 1.824.239.699.12 1.372.32 1.903.574.136.064.31.166.416.238.215.151.37.27.44.477-.315.16-.636.283-.992.411-.38.14-.827.235-1.27.325-.623.124-1.31.105-1.928.079-1.873-.071-3.582-.665-4.772-1.285-.73.371-1.46.741-2.192 1.11l-.072.007h.06c.003-.003.008-.005.012-.007.31-.026.619-.054.928-.082.675.011 1.352.02 2.028.03.899.148 1.773.216 2.498.53.012.003.025.012.036.015.302.143.445.29.726.514.047.035.063.02.065.05.002.057-.033.063-.051.075-.121.067-.337.2-.495.28-.387.196-.748.294-1.07.393-.345.105-.737.238-1.146.297-1.32.194-2.938.119-4.149-.184-.596-.176-1.193-.354-1.792-.53-.456.29-.958.621-1.445.95-.312.208-.64.389-.876.637 1.173-.393 3.795-.682 5.523-.312.616.133 1.192.336 1.47.694-.321.341-.832.534-1.293.735a8.886 8.886 0 0 1-3.568.755h-.247c-.178 0-.356-.004-.532-.014-1.05-.056-2.072-.27-3.087-.536-.304.263-.66.535-.964.794-.342.298-.633.586-.974.88.328-.103.874-.307 1.5-.464 1.07-.27 2.415-.454 3.508-.383.477.03.903.11 1.242.25.15.064.215.09.358.192.043.027.07.045.09.06-.68.727-1.916 1.454-3.447 1.85-1.588.411-3.423.502-4.956.17-.355.351-.75.77-1.107 1.183-.342.397-.673.752-.95 1.14.515-.21.987-.474 1.565-.698 1.309-.503 2.956-.908 4.515-.7.31.041.5.114.795.252-.17.315-.558.615-.898.903-1.62 1.386-4.872 2.204-7.3 1.946-.633.963-1.39 1.87-1.94 2.912l1.263-.795c.5-.291 1.031-.533 1.964-.83 1.155-.372 2.723-.784 3.736-.316-.359.57-.951 1.131-1.61 1.627-.7.528-1.44.936-2.409 1.277-.569.199-1.269.408-1.935.515-.643.106-1.288.208-1.948.196-.176.17-.525.893-.848 1.557-.254.529-.506 1.01-.564 1.234.318-.225.658-.545 1.032-.81a12.605 12.605 0 0 1 3.19-1.648c.83-.285 1.873-.5 2.566-.247v.032c-.956 1.794-2.747 2.96-4.731 3.73-.627.178-1.253.353-1.88.529-.305.04-.608.08-.91.117-.037.118-.212.607-.36 1.139a59.226 59.226 0 0 0-.669 2.653c.332-.412.666-.823 1-1.235.356-.443.9-.874 1.424-1.273 1.016-.773 2.187-1.486 3.394-1.782h.705c-.035.272-.153.498-.28.741-.22.428-.524.828-.748 1.168-.806 1.229-2.58 2.563-4.333 3.3-.459.196-.961.397-1.416.507-.128.413-.233 1.211-.318 2.056-.087.86-.196 1.729-.222 2.277h.029c.115-.406.363-.84.617-1.29.81-1.428 2.155-2.725 3.027-3.382.532-.402 1.023-.829 1.91-.882-.017.348-.104.707-.216 1.073-.345 1.123-1.083 2.306-2.002 3.317a12.232 12.232 0 0 1-2.064 1.791c-.478.33-.938.62-1.36.783 0 .624.004 1.588.018 2.521.01.692.038 1.261.117 1.755.011.021.03.026.041.045.053-.442.266-.987.465-1.486.67-1.706 1.995-3.523 3.288-4.552.218-.174.44-.286.641-.363.14-.05.26-.075.396-.122h.03c.006 2.279-1.201 4.356-2.496 5.777-.316.348-.63.73-.94.98-.413.325-.825.646-1.236.971-.056.067-.026.216.003.436.027.227.058.521.085.65.185.912.372 1.822.559 2.733.127-.567.253-1.135.382-1.705a12.42 12.42 0 0 1 .809-1.96c.179-.35.377-.698.59-1.054.067-.114.13-.144.206-.26.518-.79 1.204-1.626 2.008-1.868.076.182.07.56.073.802a6.808 6.808 0 0 1-.22 1.755 10.665 10.665 0 0 1-1.736 3.636c-.282.393-.508.656-.888 1.104a8.39 8.39 0 0 1-.498.521c-.103.1-.231.238-.344.294.073.434.363 1.172.632 1.91.317.866.63 1.728.896 2.086v.058c.011-.446-.006-.884.005-1.33.009-.278.045-.564.053-.844.164-.956.35-2.016.715-2.952.47-1.202.919-2.125 1.782-2.602.226.59.317 1.274.345 1.928.08 2.019-.636 4.132-1.372 5.388l-.97 1.5c.28.558.723 1.285 1.131 1.948.31.506.544.843.896 1.285v.057h.03c-.126-.79-.194-1.41-.184-2.22.003-.223-.028-.496.007-.718.087-.529.17-1.279.295-1.927.146-.755.35-1.407.646-1.971.192-.37.43-.68.705-.833l.06-.059c.685 1.362.828 3.183.623 4.767-.194 1.52-.725 2.908-1.33 4.05.927.983 1.688 2.128 2.674 2.88-.802-1.894-1.152-5.307-.272-7.656.143-.284.246-.503.448-.72.048-.04.098-.077.147-.118.725 1.194 1.587 3.304 1.057 6.436-.09.538-.236 1.172-.397 1.665-.122.378-.225.62-.336.979.29.367.886.803 1.457 1.24.562.428 1.103.859 1.511 1.112-.159-.363-.31-.643-.453-.972a9.798 9.798 0 0 1-.575-1.82c-.243-1.106-.334-2.694-.118-3.907l.235-1.264c.02-.01.04-.022.059-.03l.881 1.293c.874 1.493 1.426 3.713 1.447 5.936a5.641 5.641 0 0 1-.212 1.557l3.496 1.94-1.059-1.353a9.845 9.845 0 0 1-1.153-2.547c-.306-1.064-.574-2.228-.55-3.447h.03c1.379.977 2.39 2.299 3.162 3.865.216.438.383.893.568 1.365.12.306.24.588.362 1.03.159.553.278 1.234.14 1.82l1.44.56c.724.216 1.45.43 2.173.647h.089c-.166-.172-.319-.245-.507-.391a9.297 9.297 0 0 1-1.198-1.108c-.697-.797-1.269-1.737-1.712-2.68-.357-.756-.576-1.356-.872-2.434.49.157 1.025.504 1.476.798 1.481.969 2.66 2.441 3.488 3.787.25.403.51.799.706 1.324.115.314.234.713.234 1.086 1.005.12 1.934.358 2.976.498.302.041.682.106.992.118v-.03c-.657-.201-1.307-.67-1.925-1.17-1.558-1.267-2.713-2.975-3.365-4.412v-.03c.791.201 1.7.56 2.602 1.026 1.08.559 2.053 1.416 2.866 2.247.782.795 1.366 1.564 1.614 2.428a23.965 23.965 0 0 0 2.42-.159c.389-.044.713-.124 1.106-.135v-.03c-1.465-.268-3.707-1.788-4.991-3.169-.406-.437-.78-.844-.944-1.21a.97.97 0 0 1-.059-.058c.191-.074.584-.01.911.04.616.094 1.244.284 1.528.371 1.105.345 2.519.933 4.063 2.154.67.53 1.183.99 1.402 1.52.526-.043 1.527-.329 2.368-.579.706-.211 1.273-.376 1.599-.566h.06l-1.147-.089c-.8-.145-1.572-.29-2.264-.558-.907-.355-1.8-.771-2.585-1.263-.428-.314-.862-.627-1.294-.941-.018-.03-.038-.06-.057-.089.394-.165.985-.146 1.499-.146 2.32-.003 3.962.568 5.555 1.263.388.17.882.394 1.269.695.162.126.35.262.449.424.032.031.068.06.117.045.598-.185 2.12-1.069 2.483-1.223.127.207.257.41.382.618-.321.202-.83.515-1.392.775-.492.227-.992.484-1.34.636-.235.088-.47.174-.707.264l-.205.5c-.294.45-.586.9-.881 1.35-.468.623-.973 1.123-1.583 1.656-.462.403-.946.782-1.467 1.13-.633.42-1.331.79-2.18 1.005h-.589c.15-1.13 1.692-3.055 2.352-3.584l1.146-.882h.057v-.03c-.772.168-1.547.334-2.321.5-.342.432-.684.862-1.029 1.293-.448.507-1.13 1.063-2.081 1.681-1.268.821-2.806 1.66-4.206 1.434.598-1.266 1.472-2.34 2.556-3.115.42-.264.66-.405 1.081-.669.019 0 .288-.162.307-.162-.971.055-1.907.056-2.828.067-.57.423-1.063.968-1.952 1.418-1.528.779-3.441 1.553-5.372 1.456-.343-.02-.557-.084-.874-.201v-.03c.755-1.183 2.582-2.317 4.337-2.817.317-.09.617-.195.923-.237-1.048-.216-2.097-.43-3.144-.647l-.5.352-1.528.764c-.585.245-2.03.763-3.879.858-.645.034-1.49.007-2.035-.13-.264-.117-.434-.199-.698-.317.15-.418.808-.715 1.177-.938 1.266-.774 2.894-1.334 4.906-1.352v-.03a9.505 9.505 0 0 1-1.64-.644c-.225-.113-.516-.272-.747-.326-.47.156-.845.313-1.314.47l-1.648.294c-.697.118-1.387.078-2.05.02-1.469-.13-3.332-.527-3.797-.99l-.323-.353c.528-.211 1.048-.498 1.645-.676 1.368-.404 3.073-.313 4.496-.06.366.063.676.16 1 .238-1.147-.688-2.294-1.373-3.438-2.058-2.062.712-5.248.371-7.023-.324-.434-.168-.944-.342-1.274-.68-.101-.106-.24-.238-.285-.378.134-.03.378-.164.512-.208.442-.144.781-.242 1.28-.349 1.664-.355 3.477.062 4.793.411-.649-.588-1.294-1.175-1.941-1.764-1.087.037-2.066.094-3.012-.038-1.373-.189-2.552-.661-3.659-1.224-.68-.346-1.607-.768-1.821-1.558.528-.083.973-.235 1.563-.235 1.254 0 2.466.164 3.55.586.605.285 1.214.569 1.822.854-.35-.475-.77-.932-1.164-1.424-.19-.24-.424-.48-.541-.752-.047-.133-.445-.075-.856-.114-.586-.06-1.338-.156-1.642-.239-1.287-.345-2.606-.836-3.725-1.565-.806-.528-1.598-1.148-1.916-1.989.195-.082.476-.094.76-.098.518-.005 1.082.069 1.44.114.466.06.782.136 1.284.292.915.287 1.624.65 2.39 1.133.363.254.727.507 1.09.764-.236-.438-.493-.854-.729-1.29-.234-.435-.447-.891-.682-1.326-2.405-.556-6.516-3.224-6.846-5.671a5.353 5.353 0 0 1 1.557.33c.122.045.29.101.42.158a28.066 28.066 0 0 0 .449.204c.93.442 1.578.952 2.275 1.51.383.391.764.785 1.146 1.177-.164-.517-.328-.967-.493-1.484-.149-.472-.298-1.014-.447-1.486-.075-.11-.342-.228-.647-.405a14.533 14.533 0 0 1-1.087-.68c-.628-.45-1.542-1.323-2.349-2.367-.816-1.056-1.58-2.294-1.47-3.422.469.18.903.334 1.303.55 1.196.645 2.115 1.512 2.927 2.623.225.306.54.619.676.998l.058.03c-.116-.93-.235-1.86-.352-2.79-.588-.355-1.032-.885-1.457-1.312-.1-.103-.283-.352-.386-.47-.293-.335-.505-.656-.774-1.069a11.671 11.671 0 0 1-1.132-2.188 7.553 7.553 0 0 1-.363-1.143c-.126-.57-.198-1.197-.08-1.727 1.37.446 3.496 3.084 4.013 5.204.032-.98.062-1.96.092-2.94a12.823 12.823 0 0 1-1.879-2.726c-.399-.771-.633-1.561-.943-2.675-.19-.688-.424-2.132-.029-2.768l.058-.086c.585.4 1.152 1.06 1.59 1.681.425.594.727 1.145.997 1.815l.498 1.617v.058l.442-2.556c-.2-.266-.375-.468-.54-.714-.537-.794-.917-1.58-1.162-2.482-.172-.636-.253-1.31-.355-2.24-.005-.155-.041-.343-.047-.496-.014-.385.002-.736-.014-1.122.07-.567.14-1.134.208-1.705.115.035.206.155.325.303.216.271.443.623.575.813.306.439.587.944.858 1.587.179.416.374.926.496 1.397.135.514.326 1.203.333 1.779h.028c.163-.83.504-1.612.794-2.352-.693-1.278-1.236-3.335-1.23-5.401.003-.769.046-1.59.26-2.297.072-.237.178-.482.294-.667.068-.118.119-.186.204-.304a.503.503 0 0 0 .06-.029c.285.298.462.573.677 1.017.373.767.718 1.81.828 2.853.085.818.04 1.644.023 2.42h.03l.938-1.822c.11-.167.217-.333.325-.5l-.325-1.088c-.086-.578-.175-1.157-.265-1.733-.06-.385-.027-.691-.014-1.144.04-1.29.293-2.839.604-3.618.147-.264.128-.344.43-.774.107-.099.226-.213.334-.311.276.545.548 1.122.694 1.708.345 1.368.372 2.81.013 4.58h.027c.471-.666.94-1.334 1.411-1.998Zm11.903-7.348-1.588.148c-.35.07-.713.15-1.036.248-.205.061-.434.117-.627.182-.19.064-.344.136-.54.187.296.168.725.132 1.114.206 1.412.269 2.871.077 4.015-.208.51-.124.837-.328 1.276-.469.01-.018.02-.037.029-.058-.332-.04-.465-.096-.816-.138a16.177 16.177 0 0 0-1.827-.098Zm-3.382 51.425c.142 1.945 1.707 4.983 2.88 5.761-.017-.656-.285-1.415-.576-2.117-.612-1.484-1.554-2.929-2.304-3.644Zm-5.935-.587c.109-.49.213-.979.323-1.469.266-1.338.133-2.995-.205-4.114-.088-.29-.12-.677-.323-.853-.21.848-.383 1.94-.385 3.042 0 .307-.018.616.032.926.067.412.122.888.207 1.271.096.428.22.76.292 1.168.02.008.038.02.059.029Zm14.428-55.216c.28.2.694.242 1.06.353 1.14.347 2.2.507 3.256.451a9.69 9.69 0 0 0 1.143-.123c.325-.062.589-.149.948-.21l.028-.059c-.284-.09-.491-.181-.793-.26-1-.27-2.194-.466-3.467-.445-.284.017-.568.04-.852.059-.44.079-.881.155-1.323.234Zm-6.494-1.879c-.188.283-.408.472-.606.748-.712.994-1.39 2.023-1.766 3.382-.144.516-.275 1.094-.302 1.717.314-.232.597-.642.863-1.041.624-.932 1.124-2.11 1.459-3.074.082-.234.24-.677.322-1.102.045-.23.09-.482.03-.63Zm-12.46 18.57-.117.147a9.432 9.432 0 0 0 1.62-.26c1.128-.284 1.971-.598 2.79-1.062l1.233-.882c.097-.107.195-.216.294-.322h-.09c-.371.058-.668.088-1.044.146-.37.1-.728.221-1.075.34-.358.117-.755.275-1.112.395l-1.734.941-.765.557Zm.148 2.646a9.209 9.209 0 0 0-1.045.7c-.291.23-.588.456-.865.65-.177.187-.353.374-.53.558.68-.056 1.486-.355 2.193-.646 1.482-.61 2.798-1.521 3.452-2.437h-.178c-.325.086-.647.175-.97.264-.308.136-.585.227-.893.364-.379.166-.786.377-1.164.547Zm28.092-26.27c-.697.438-1.849 1.38-2.723 2.382-.383.442-.675.83-.862 1.232 1.572-.714 2.969-1.649 3.968-2.94.16-.21.408-.485.605-.795.002 0 .062-.091.062-.095.106-.166.18-.287.185-.431l-1.235.646ZM33.87 65.654c.477-.405.812-.734 1.2-1.184.688-.79 1.33-1.725 1.74-2.695.094-.227.596-1.387.44-1.588-.284.276-.57.549-.855.825-.85 1.06-1.698 2.22-2.214 3.65-.114.315-.236.65-.311.992Zm-.647-12.106c.043-.998-.093-2.264-.386-3.413-.315-1.234-.837-2.334-1.23-2.847.003 1.803.149 3.213.644 4.483.032.072.117.302.145.372.287.563.477.899.77 1.375l.057.03Z" fill="#204989"/></svg>