<svg width="50" height="50" viewBox="0 0 50 50" fill="none" xmlns="http://www.w3.org/2000/svg">
<path d="M24.9084 5C24.1473 5 23.3863 5.04386 22.647 5.13158V25.2412H27.2132V23.3114L40.2814 23.2675C40.3684 23.9035 40.4119 24.5614 40.4119 25.2193C40.4119 32.3684 35.6282 38.3991 29.1267 40.2412V45C38.194 43.0702 44.9999 34.9342 44.9999 25.2193C44.9999 14.057 36.0196 5 24.9519 5H24.9084ZM38.9333 18.6403H27.2132V9.7807C32.4318 10.5702 36.7806 13.9693 38.9333 18.6184V18.6403Z" fill="black"/>
<path d="M20.8451 5V9.75877H20.8669C14.3591 11.6009 9.59247 17.6316 9.59247 24.7807C9.59247 32.6096 15.3167 39.1009 22.804 40.2193V31.2061H18.4292V26.557H27.3529V44.8684C26.6129 44.9561 25.8511 45 25.0676 45C13.9891 45 5 35.943 5 24.7807C5 15.0658 11.7908 6.95175 20.8669 5" fill="black"/>
</svg>
