<svg width="312" height="50" viewBox="0 0 312 50" fill="none" xmlns="http://www.w3.org/2000/svg">
<path d="M260.739 31.8582C259.551 32.492 258.996 32.6505 258.046 32.8881V25.2823H260.66V23.9354H258.046V16.8841H260.898V15.5373H252.341V16.8841H255.431V23.9354H252.658V25.2823H255.431V33.2843C254.48 33.4427 253.609 33.6012 252.5 33.6804H252.341V35.5027H252.5C255.51 35.3442 258.917 34.235 260.898 32.6505V31.779L260.66 31.9374L260.739 31.8582Z" fill="#231815"/>
<path d="M269.612 13.5566V13.3189H267.156V13.7943C267.156 14.5865 267.156 15.2996 266.681 16.2503H261.848V36.2157H274.049V16.2503H268.503C268.899 15.775 269.296 15.0619 269.533 13.4773L269.612 13.5566ZM272.069 26.6291V34.8688H264.463V26.6291H272.069ZM272.069 17.9933V25.0446H264.463V17.9933H272.069Z" fill="#231815"/>
<path d="M230.316 22.4301L230.553 22.2716C232.534 21.1625 233.802 19.8156 234.515 17.9141H240.932C240.932 17.9141 240.932 18.6272 240.932 19.3402C240.774 21.0832 240.219 21.7171 240.219 21.7963L240.061 22.034H240.774C240.774 22.034 242.121 21.2417 242.675 19.261C243.071 17.9141 242.992 16.3296 242.992 16.2503V16.0919H234.911C235.069 15.3788 235.149 14.4281 235.228 13.5566V13.3981H232.851V13.5566C232.693 16.8842 232.455 19.4987 230.395 21.3209V22.4301H230.316Z" fill="#231815"/>
<path d="M222.789 16.1711H230.395V14.5073H220.333V35.5027H229.127V33.9181H222.789V16.1711Z" fill="#231815"/>
<path d="M237.683 21.6378V19.8948H235.544V21.6378C235.782 26.7876 233.801 31.2244 229.761 34.6312H229.681V36.5326L230.078 36.2157C233.167 34.1558 235.386 31.4621 236.574 28.2137C237.921 31.3828 240.219 34.0766 243.388 36.2157L243.784 36.5326V34.7104H243.705C239.506 31.1451 237.525 26.7876 237.683 21.6378Z" fill="#231815"/>
<path d="M223.422 30.749V30.9075L223.343 33.3635L224.135 32.5712C225.323 31.3828 226.353 30.1152 227.225 28.9268C228.017 30.1152 228.968 31.3036 230.077 32.4128L230.394 32.7297V31.1452C229.443 29.9567 228.651 28.7683 228.096 27.6591C229.206 25.2823 229.998 22.034 230.315 18.0726V17.5972H228.334V17.9934C228.096 20.7663 227.7 23.1432 226.987 25.1238C226.353 23.3808 225.878 20.9248 225.64 17.9934V17.8349H224.135V17.9934C224.452 21.7171 225.165 24.7277 226.195 27.0253C225.403 28.5306 224.531 29.7983 223.58 30.8282L223.422 30.749Z" fill="#231815"/>
<path d="M301.859 16.0919C302.017 15.2996 302.096 14.5073 302.096 13.5566V13.3981H299.72V13.5566C299.72 14.5866 299.72 15.3788 299.72 16.0919H290.609C290.609 16.0919 290.609 15.775 290.609 15.5373C290.609 14.9827 290.609 14.3489 290.609 13.5566V13.3981H288.232V13.5566C288.232 14.4281 288.232 15.2996 288.469 16.0919H284.27V17.5972H288.945C289.262 18.1518 289.658 18.6272 290.292 19.3402H291.242V19.1025C290.925 18.5479 290.846 18.0726 290.767 17.5972H299.72C299.72 18.0726 299.561 18.5479 299.324 19.1025V19.3402H300.195H300.274C300.75 18.6272 301.146 18.1518 301.463 17.5972H305.82V16.0919H301.938H301.859Z" fill="#231815"/>
<path d="M290.053 23.0639H287.597V23.3016C287.597 23.3016 287.676 23.6185 287.756 23.8562C287.914 24.8861 288.073 25.8369 288.865 26.7876L290.291 26.8668V26.6291C289.895 25.52 289.974 24.49 289.974 23.5393V23.1431L290.053 23.0639Z" fill="#231815"/>
<path d="M299.402 26.8668H300.828V26.7876C301.541 25.8369 301.7 24.8861 301.937 23.8562C301.937 23.6977 301.937 23.5393 302.017 23.3016V23.0639H299.64V23.46C299.64 24.49 299.798 25.52 299.402 26.6291V26.8668Z" fill="#231815"/>
<path d="M296.551 22.0339H304.79V20.6871H296.472V18.3895H293.699V20.6871H285.38V22.0339H293.699V27.3422H284.667V28.7683H289.42C289.024 31.6205 287.598 33.2843 284.825 34.3935H284.587V36.3742L285.142 36.1365C289.103 34.5519 290.926 32.5712 292.193 28.7683H293.857V36.2157H296.63V28.7683H297.977C299.086 32.2543 300.591 34.5519 305.028 36.1365L305.504 36.2949V34.4727H305.266C302.493 33.3635 301.067 31.6205 300.671 28.7683H305.662V27.3422H296.709V22.0339H296.551Z" fill="#231815"/>
<path d="M74.0783 5.7923H70.6715V28.6891C70.6715 31.8582 70.513 33.522 69.9584 35.1858C69.6415 35.9781 69.5623 36.4534 68.9285 37.4041C67.2647 39.9394 64.4125 41.4448 61.2434 41.4448C56.4105 41.4448 54.1921 38.751 53.3206 37.1665C52.2114 35.1858 52.2114 33.4428 52.1322 31.779V31.1452C52.1322 30.1152 52.1322 29.2437 52.1322 28.3722V5.87153H47.2993V28.7683C47.2993 29.8775 47.2993 31.0659 47.4578 32.4128C47.6162 33.9974 47.8539 36.0573 48.7254 37.9587C50.7853 42.3163 55.3805 45.01 60.9265 45.01C64.9671 45.01 68.4531 43.5047 70.9884 40.5733C74.0783 37.0872 74.1575 32.1751 74.2367 27.8176C74.2367 25.5992 74.2367 18.548 74.2367 6.98071V5.95076L74.0783 5.7923Z" fill="#231815"/>
<path d="M101.254 6.58458C99.1943 5.87153 96.4213 5.7923 94.916 5.7923C93.886 5.7923 87.7855 5.7923 86.2802 5.7923H86.0425V44.297H90.6377V44.0593C90.6377 36.2157 90.6377 24.9654 90.6377 24.8069V24.6485H90.7169C90.7169 24.6485 93.4899 26.6292 97.372 26.6292H97.4513C98.7189 26.6292 100.62 26.3123 102.046 25.52C104.265 24.2524 105.057 23.6185 106.483 21.3209C107.276 20.1325 107.751 18.2311 107.83 16.5673C107.83 15.4581 107.83 14.5073 107.513 13.7151C106.325 9.04063 103.076 7.29763 101.254 6.66381V6.58458ZM90.7961 9.04063C90.7961 9.04063 93.0938 8.48604 94.916 8.48604C97.1344 8.48604 99.2735 9.19909 100.7 10.4667C102.284 11.8928 103.156 13.7151 103.235 16.0127C103.235 17.0426 103.076 18.1518 102.68 19.261C101.492 22.3509 98.4812 24.4108 94.9952 24.4108C94.9952 24.4108 94.916 24.4108 94.7575 24.4108C94.1237 24.4108 92.3807 24.3316 90.6377 23.5393C90.5585 23.5393 90.4792 23.3809 90.4792 23.2224V9.43678C90.4792 9.43678 90.4792 9.19909 90.6377 9.19909L90.7961 9.04063Z" fill="#231815"/>
<path d="M157.585 24.3316H171.608V21.3209H157.585V8.80294H171.846V5.7923H152.831V44.297H173.906V43.9008C174.143 43.4255 174.46 42.3955 174.698 41.6032V41.2863H157.585V24.4108V24.3316Z" fill="#231815"/>
<path d="M26.4627 5.7923H22.9767L6.18042 44.297H10.1418L16.4008 29.6398H30.9787L36.8415 44.297H41.9121L26.5419 5.95076V5.7923H26.4627ZM29.7903 26.7084H17.5892L23.9274 11.8928L29.7903 26.7084Z" fill="#231815"/>
<path d="M202.982 27.5799C201.793 26.3915 200.446 25.52 198.862 24.5693L198.624 24.4108C197.04 23.4601 195.138 22.2716 193.157 21.1625C190.543 19.6571 188.8 18.4687 187.849 17.2011C187.374 16.5673 186.819 15.3788 186.819 13.8735C186.819 11.972 187.691 10.3083 189.354 9.2783C190.701 8.4068 192.207 8.01066 194.346 8.01066C197.277 8.01066 200.05 8.72371 201.872 9.2783H202.189V6.1092H202.031C201.476 5.87151 200.446 5.63383 199.496 5.47538C197.832 5.15847 195.693 5 194.267 5C191.811 5 189.592 5.39615 187.849 6.1092C186.265 6.82225 184.918 7.77297 183.967 8.80293C182.779 10.1498 181.986 12.3682 181.986 14.2696C181.986 18.3103 184.046 20.5286 186.027 22.1132C187.215 23.0639 188.325 23.777 189.117 24.2523L189.513 24.49C190.147 24.8862 191.731 25.8369 193.237 26.7084L193.791 27.0253C194.9 27.7384 196.01 28.3722 196.564 28.6891C198.466 29.8775 201.001 31.8582 200.763 35.1858C200.605 37.1665 199.416 41.8409 191.098 41.8409C189.513 41.8409 185.631 41.3655 182.382 40.4148H182.066V43.8216H182.303C183.729 44.1385 187.611 44.8515 191.335 44.8515C193.87 44.8515 198.545 44.4554 201.952 41.9993C203.774 40.6525 206.072 38.1172 206.072 34.1558C206.072 31.779 205.042 29.3229 203.219 27.5799H202.982Z" fill="#231815"/>
<path d="M142.849 40.494C142.056 39.4641 141.106 38.1172 140.234 36.7703C139.283 35.1858 138.254 33.522 137.461 32.0166C136.352 29.9567 135.639 28.9268 135.164 28.2137C133.738 25.9953 132.153 24.1731 131.202 23.6185H131.044L131.44 23.4601C131.44 23.4601 132.153 23.3016 132.866 22.9847C133.738 22.5886 135.164 21.5586 135.956 20.6079C137.065 19.1818 137.778 17.8349 137.937 15.1412C137.937 14.4281 137.937 13.7151 137.778 13.0812C137.303 10.3875 135.718 8.16911 133.658 7.05992C132.866 6.66378 132.074 6.34687 131.361 6.18841C129.301 5.71305 126.766 5.71305 125.894 5.71305H125.339C125.339 5.71305 123.359 5.71305 121.616 5.71305H117.496V44.2177H122.17V9.43676C122.17 9.43676 122.17 9.19907 122.329 9.19907C123.676 8.80294 125.102 8.64448 126.449 8.64448C128.746 8.64448 130.648 9.35753 131.757 10.7044C132.866 12.0513 133.104 13.715 133.183 14.9035C133.183 16.3296 132.708 18.231 131.915 19.1818C131.44 19.8156 130.014 21.7171 126.845 21.9547C125.973 21.9547 125.102 22.034 124.389 21.9547H123.913C126.528 23.2224 128.112 24.9654 129.538 27.1045C130.648 28.7683 132.074 31.2244 132.866 32.8089V32.9674C132.866 32.9674 133.104 33.2843 133.262 33.6012C133.658 34.3935 134.926 36.8495 136.352 39.2264C137.382 40.9694 138.808 43.0293 139.838 44.2177L146.572 44.297L145.859 43.6631C144.75 42.7916 143.72 41.7617 142.769 40.494H142.849Z" fill="#231815"/>
</svg>
