<svg width="50" height="50" viewBox="0 0 50 50" fill="none" xmlns="http://www.w3.org/2000/svg">
<path d="M20.2605 11.0993C16.5994 11.0993 13.41 13.0849 11.7098 16.051L14.3284 17.4658C15.5198 15.4305 17.7164 14.0777 20.2481 14.0777C24.0332 14.0777 27.0985 17.1431 27.0985 20.9282C27.0985 24.7134 24.0332 27.7787 20.2481 27.7787C17.7412 27.7787 15.557 26.4384 14.3656 24.4403L11.6602 25.8055C13.348 28.8088 16.5746 30.844 20.2605 30.844C25.7086 30.844 30.1267 26.426 30.1267 20.9779C30.1267 15.5298 25.7086 11.1117 20.2605 11.1117V11.0993Z" fill="#221E1F"/>
<path d="M29.8413 11C33.5023 11 36.6917 12.9856 38.392 15.9517L35.7734 17.3665C34.582 15.3312 32.3854 13.9785 29.8537 13.9785C26.0685 13.9785 23.0032 17.0438 23.0032 20.8289C23.0032 24.6141 26.0685 27.6794 29.8537 27.6794C32.3606 27.6794 34.5448 26.3391 35.7362 24.3411L38.4416 25.7062C36.7538 28.7095 33.5271 30.7448 29.8413 30.7448C24.3932 30.7448 19.9751 26.3267 19.9751 20.8786C19.9751 15.4305 24.3932 11.0124 29.8413 11.0124V11Z" fill="#221E1F"/>
<path d="M8.99186 36.59C8.66919 37.2105 8.01145 37.6449 7.25442 37.6449C6.17473 37.6449 5.2936 36.7637 5.2936 35.6841C5.2936 34.6044 6.17473 33.7232 7.25442 33.7232C7.9494 33.7232 8.5575 34.0831 8.90499 34.6416L10.1584 34.0087C9.58755 33.0034 8.50786 32.3333 7.26683 32.3333C5.43011 32.3333 3.92847 33.8225 3.92847 35.6716C3.92847 37.5208 5.4177 39.01 7.26683 39.01C8.53268 39.01 9.63719 38.3026 10.1957 37.2602L8.97945 36.59H8.99186Z" fill="#221E1F"/>
<path d="M11.5237 32.4326H12.9012V34.8277H15.8673V32.4822H17.2448V38.9107H15.8673V36.1681H12.926V38.9107H11.5237V32.4326Z" fill="#221E1F"/>
<path d="M22.7795 32.4326H21.1785L18.3862 38.9107H19.7017L20.3346 37.4835H23.611L24.2935 38.9107H25.5842L22.7671 32.4326H22.7795ZM20.8807 36.1805L21.9852 33.6364L23.1145 36.1805H20.8931H20.8807Z" fill="#221E1F"/>
<path d="M26.9497 32.4326V38.9107H28.0542V34.1948L31.405 38.9107H32.5964V32.4822H31.4174V36.4659L28.563 32.4822L26.9497 32.4326Z" fill="black"/>
<path d="M34.7556 32.4822H39.3722V33.6612H36.1083V35.0635H38.9999V36.3046H36.1083V37.6945H39.7197V38.9107H34.7556V32.4822Z" fill="black"/>
<path d="M41.3455 32.4822H42.6982V37.7193H46.0614V38.9107H41.3455V32.4822Z" fill="black"/>
</svg>
