<svg width="242" height="50" viewBox="0 0 242 50" fill="none" xmlns="http://www.w3.org/2000/svg">
<path d="M23.5009 38C12.9455 38 5 32.8677 5 24.9154C5 16.9631 12.5395 12 23.6169 12C28.5466 12 33.1283 12.9588 37.0721 14.82L35.2742 19.3883H34.8102C33.1863 14.9328 29.8225 12.846 24.1968 12.846C15.8453 12.846 10.3357 17.3015 10.3357 25.2538C10.3357 32.4729 16.1353 37.154 24.1388 37.154C30.1125 37.154 34.3462 34.5033 35.5641 29.8221H36.0281L38 34.6161C33.7083 36.9848 29.1265 38 23.5009 38Z" fill="#E10012"/>
<path d="M42.5085 13.2854V13C44.1469 13.0571 45.7853 13.1712 47.3107 13.1712C48.7797 13.1712 50.4746 13.1142 52.339 13V13.2854C50.2486 13.6278 49.5706 14.5982 49.5706 16.3676V29.3813C49.5706 33.0342 49.7966 35.032 49.7966 35.2603C50.1356 37.0297 51.887 37.1438 55.7853 37.1438C63.2994 37.1438 67.8757 36.2306 71.661 32.121H72L69.4576 38H47.5932C47.0283 38 45.1638 38 42 38V37.7146C45.2768 37.258 45.2768 34.9178 45.2768 29.3813V16.3676C45.2768 14.5982 44.4859 13.742 42.452 13.2854H42.5085Z" fill="#E10012"/>
<path d="M70.1136 37.7689C72.2152 36.7289 75.0553 33.7822 78.009 29.1022L88.7444 12H89.0852L100.502 29.2756C103.57 33.9556 105.614 36.9022 108 37.7689V38C106.296 37.9422 104.876 37.8844 103.683 37.8844C102.036 37.8844 99.6502 37.8844 96.583 38V37.7689C98.1734 37.3644 98.7982 36.8444 98.7982 35.8044C98.7982 34.7067 97.719 32.8 95.9013 29.7956L93.8565 26.4444C92.5501 26.3867 91.5277 26.3867 90.846 26.3867H84.0867C83.1211 26.3867 82.0986 26.3867 81.0194 26.4444L79.2586 29.4489C77.725 32.1067 76.9297 33.8978 76.9297 34.9378C76.9297 36.44 77.8954 37.2489 79.9402 37.7689V38C78.4066 37.8844 76.9297 37.8267 75.3393 37.8267C74.0329 37.8267 72.272 37.8267 70 38V37.7689H70.1136ZM85.3931 25.4622H89.6532C90.7892 25.4622 92.0957 25.4622 93.3453 25.4044L87.6084 16.0444L81.8715 25.4044C83.0643 25.4622 84.2571 25.4622 85.3931 25.4622Z" fill="#E10012"/>
<path d="M136.981 34.0616L135.619 31.1507C133.123 25.5571 128.869 25.1005 121.835 25.1005C120.87 25.1005 119.793 25.1575 118.545 25.2146V29.2671C118.545 34.9749 118.771 37.0297 121.891 37.7146V38C119.793 37.9429 117.921 37.8858 116.276 37.8858C114.63 37.8858 112.815 37.8858 111 38V37.7146C114.29 37.0868 114.29 34.8607 114.29 29.2671V17.5091C114.29 14.9406 114.177 13.6279 111.567 13.2854V13C114.517 13 117.07 13 119.112 13H124.331C129.549 13 133.407 13 136.016 13.5708C140.271 14.484 142.426 16.4247 142.426 18.879C142.426 22.4178 138.115 24.758 130.23 24.8721C135.336 25.3288 138.626 26.9269 140.384 29.9521C142.653 33.8333 143.164 36.9155 146 37.4863V37.8858C144.241 37.8858 142.88 37.8288 141.916 37.8288C141.575 37.8288 140.554 37.8288 138.966 37.8288C138.229 36.516 137.605 35.2603 136.981 33.9475V34.0616ZM121.154 24.2443C131.308 24.2443 137.434 23.8448 137.434 19.0502C137.434 15.4543 133.123 13.9703 124.784 13.9703C122.288 13.9703 120.246 13.9703 118.601 14.0274V24.1872C120.019 24.1872 120.927 24.2443 121.154 24.2443Z" fill="#E10012"/>
<path d="M151 37.7159C154.158 37.1477 154.376 34.9886 154.376 29.3068V16.3523C154.376 14.5909 153.559 13.7386 151.545 13.2841V13C153.396 13.0568 155.03 13.1704 156.391 13.1704C159.386 13.1704 161.02 13 161.401 13V13.2841C159.386 13.5682 158.569 14.5341 158.569 16.3523V29.5341C158.569 35.1591 158.896 37.0909 162 37.7159V38C159.604 37.9432 157.698 37.8864 156.282 37.8864C154.54 37.8864 152.797 37.8864 151 38V37.7159Z" fill="#E10012"/>
<path d="M168 36.9445C171.763 36.2222 172.268 32.6111 172.268 26.2222V18C172.268 15.6111 172.268 14.2222 169.011 13.2778V13C170.527 13 171.707 13.0556 172.605 13.0556C173.223 13.0556 174.402 13.0556 176.2 13.0556C183.108 19.2222 190.24 25.3333 198.496 31.2778V23.0556C198.496 17.4445 198.271 14.6667 194.396 13.2778V13C196.137 13.0556 197.654 13.1667 198.833 13.1667C200.518 13.1667 202.203 13.1111 204 13V13.2778C200.012 14.5 199.732 17.6111 199.732 23.8889V38H199.282C191.083 30.1667 182.209 23.0556 173.504 15.8889V25.2222C173.504 32.1111 173.504 36.1111 177.66 37V37.2778H168V37V36.9445Z" fill="#E10012"/>
<path d="M209.963 30.0477H210.3C211.141 34.2213 216.021 37.154 222.191 37.154C228.362 37.154 232.064 34.3905 232.064 31.1193C232.064 29.2581 230.998 27.961 228.642 27.115C226.174 26.269 222.752 26.3254 218.714 25.6486C212.712 24.6898 209.739 22.603 209.739 19.2755C209.739 15.4403 214.956 12 223.65 12C227.801 12 231.447 12.564 235.654 14.0304L233.859 18.5423H233.41C232.625 14.9892 229.035 12.846 223.65 12.846C218.265 12.846 214.451 15.2712 214.451 18.2039C214.451 19.7831 215.516 21.0239 217.536 21.7571C220.34 22.7722 223.93 22.885 228.193 23.449C234.083 24.2386 237 26.1562 237 29.5401C237 34.1085 231.391 38 222.304 38C216.694 38 211.646 37.0976 208 35.5184L210.019 30.0477H209.963Z" fill="#E10012"/>
</svg>
