<svg width="50" height="50" viewBox="0 0 50 50" fill="none" xmlns="http://www.w3.org/2000/svg">
<path d="M32.8669 11C36.4399 11 40.8182 13.1859 42.0763 17.9551C42.3279 18.8494 42.4286 19.9423 42.4286 20.9359C42.4286 27.6923 37.0438 31.7163 33.4708 33.0577C33.3198 33.1074 30.7029 34.1506 28.8912 34.3494C28.6899 34.3494 28.6396 34.101 28.8409 34.0016C30.5016 33.1571 32.1623 32.3125 34.0243 30.8718C35.2825 29.8782 39.2078 26.2516 39.2078 20.2901C39.2078 15.1234 36.289 12.1923 32.6656 12.1923C29.4951 12.1923 27.5828 14.4776 26.9789 15.6699C26.375 16.8622 26.2743 17.9055 26.2743 18.5016C26.2743 18.7003 26.1737 20.4391 26.1737 22.8237C26.1737 27.6923 26.1737 35.0946 26.1737 36.734C26.1737 38.3734 26.5763 39.4167 27.0292 40.1619C27.5828 41.0064 28.0357 41.4038 28.4383 41.7019C28.539 41.7516 28.4886 41.9503 28.2873 41.9503C28.086 41.9503 27.6834 41.9503 27.4821 41.851C26.3247 41.5529 25.5195 41.0561 24.7143 40.0128C24.7143 40.0128 24.7143 40.0128 24.664 40.0128C24.211 40.8077 23.3555 41.5032 22.0471 41.851C22.0471 41.851 21.4432 42 21.1412 42C20.9903 42 20.8896 41.851 20.9903 41.7516C21.3425 41.4535 21.5941 41.2548 21.9464 40.8574C23.3555 39.1186 23.3052 37.2805 23.3052 36.734C23.3052 36.0881 23.3052 28.0401 23.3052 22.8237C23.3052 20.5385 23.2045 19.0481 23.2045 18.5016C23.2045 15.2724 20.4367 12.1923 16.612 12.1923C14.448 12.1923 11.8312 13.5337 10.7743 16.7628C10.4221 17.7564 10.2208 18.7997 10.2208 20.2404C10.2208 24.5128 12.4854 28.5865 15.5049 30.9215C18.2727 33.0577 19.7825 33.5545 20.5373 33.9022C20.7386 34.0016 20.789 34.25 20.3864 34.2003C19.1282 34.0513 17.9204 33.7532 16.5114 33.2564C14.0958 32.4119 11.4789 30.7228 9.61688 28.3878C7.90585 26.2019 7 23.6186 7 20.7372C7 13.7821 12.6867 11 16.461 11C21.7451 11 24.7646 15.024 24.7646 15.024C24.7646 15.024 27.9351 11 32.9675 11" fill="#231815"/>
</svg>
