<svg width="100" height="50" viewBox="0 0 100 50" fill="none" xmlns="http://www.w3.org/2000/svg">
<path d="M69 13.1049C69.2053 13.0787 69.4107 13.0262 69.616 13.0262C72.9273 13.0262 76.2642 13 79.5754 13.0262C81.4749 13.0524 83.3743 13.2884 85.1711 13.9964C87.9947 15.1501 89.2524 17.51 88.7134 20.5778C88.431 22.0987 87.5583 23.1999 86.2749 23.9603C85.0685 24.6945 83.708 25.0354 82.3219 25.2452C81.9112 25.2976 81.5262 25.3501 80.9615 25.4287C81.3465 25.5598 81.6032 25.6385 81.8599 25.7434C84.016 26.5824 85.7358 27.9459 86.8909 30.0174C87.738 31.5382 88.585 33.0852 89.5091 34.5536C90.0738 35.4713 90.8695 36.1531 91.9733 36.3628C92.2813 36.4153 92.615 36.4153 92.923 36.4677C92.923 36.5464 92.9743 36.625 93 36.7037C92.7433 36.8086 92.4866 36.9659 92.2043 36.9659C89.0214 37.2019 86.3262 36.2317 84.5037 33.4523C83.8364 32.4297 83.3487 31.276 82.784 30.1747C82.3219 29.3094 81.8856 28.4179 81.3465 27.6313C80.1144 25.8482 78.369 25.2714 76.3155 25.5336C76.2642 25.6123 76.2385 25.6647 76.2385 25.6909C76.2385 28.8112 76.2385 31.9577 76.2385 35.078C76.2385 35.7073 76.5979 36.022 77.2652 36.0744C77.7529 36.1006 78.215 36.0744 78.7027 36.0744C78.9337 36.0744 79.1647 36.1268 79.3957 36.1268C79.3957 36.2055 79.3957 36.2842 79.4214 36.3366C79.2417 36.3891 79.062 36.4939 78.8824 36.4939C75.8021 36.4939 72.6963 36.4939 69.616 36.4939C69.4364 36.4939 69.2567 36.4153 69.077 36.3628C69.077 36.3104 69.077 36.2317 69.077 36.1793C69.231 36.1268 69.3594 36.0482 69.5134 36.0482C70.0524 36.0482 70.5658 36.0482 71.1048 36.0482C71.8235 36.0482 72.1572 35.7073 72.2342 34.9731C72.2342 34.7896 72.2342 34.606 72.2342 34.4225C72.2342 27.9459 72.2342 21.4956 72.2342 15.019C72.2342 14.783 72.2342 14.547 72.2086 14.311C72.1059 13.6817 71.7979 13.3409 71.1305 13.3671C70.5914 13.3671 70.0781 13.3671 69.539 13.3671C69.3594 13.3671 69.1797 13.2884 69 13.2622C69 13.1835 69 13.0787 69 13V13.1049ZM76.1102 25.0092C78.0866 25.0616 79.9348 25.1403 81.7316 24.3799C83.9647 23.4097 85.0684 21.5742 85.0171 18.8997C84.9658 16.5136 83.6824 14.7568 81.4492 13.944C80.1401 13.472 78.7797 13.4458 77.3936 13.472C76.3925 13.472 76.1358 13.7342 76.1102 14.7568C76.1102 17.5624 76.1102 20.3943 76.1102 23.1999C76.1102 23.7768 76.1102 24.3274 76.1102 25.0092Z" fill="#231815"/>
<path d="M7.02596 13.1505C7.23368 13.0994 7.44139 13.0228 7.6491 13.0228C11.5696 13.0228 15.4902 12.9462 19.4107 13.0739C21.0724 13.125 22.786 13.4315 24.3698 13.9168C29.3809 15.4748 32.2888 19.817 31.9773 24.9765C31.6657 30.1615 28.2644 34.0694 22.7341 35.3721C21.1763 35.7297 19.5406 35.9084 17.9568 35.9595C14.6074 36.0362 11.2321 35.9851 7.88277 35.9595C7.59717 35.9595 7.31157 35.9084 7.02596 35.8574C7.02596 35.8063 7.02596 35.7297 7.02596 35.6786C7.15578 35.6275 7.31157 35.5253 7.44139 35.5253C7.98663 35.5253 8.50591 35.5253 9.05115 35.5253C9.95988 35.5253 10.2455 35.2188 10.2974 34.3504C10.2974 34.2227 10.2974 34.095 10.2974 33.9673C10.2974 27.6584 10.2974 21.3495 10.2974 15.0662C10.2974 13.6869 10.0897 13.4826 8.71362 13.4826C8.16837 13.4826 7.59717 13.4826 7.05193 13.4826C7.05193 13.3804 7.02596 13.2782 7 13.176L7.02596 13.1505ZM14.3478 24.4656C14.3478 27.8372 14.3478 31.2087 14.3478 34.5803C14.3478 35.4487 14.4516 35.5253 15.3084 35.5253C16.321 35.5253 17.3596 35.5509 18.3722 35.5253C21.9292 35.3721 24.8372 33.9928 26.421 30.749C28.55 26.4068 28.4462 21.9625 26.1873 17.6714C24.941 15.3216 22.9159 13.8657 20.1897 13.5847C18.6059 13.4059 16.9701 13.4826 15.3604 13.457C14.3478 13.457 14.3478 13.457 14.3478 14.4787C14.3478 17.7992 14.3478 21.1196 14.3478 24.4656Z" fill="#231815"/>
<path d="M55.5047 37C49.9052 36.9744 45.3636 33.9577 43.6864 29.0491C41.493 22.6578 44.5637 14.7069 52.7953 13.2753C57.5433 12.4572 61.9042 13.3775 65.1297 17.1868C68.2262 20.8682 68.7423 25.1632 67.0392 29.5605C65.3878 33.881 61.9816 36.1819 57.4142 36.821C56.7949 36.8977 56.1498 36.9489 55.5047 37ZM63.6073 25.0609C63.6073 24.4985 63.6589 23.9361 63.6073 23.3992C63.375 20.8171 62.7557 18.3884 61.1043 16.292C58.6529 13.173 54.1887 12.585 51.0922 14.9626C49.802 15.9596 48.9246 17.289 48.3311 18.7974C47.2474 21.4818 47.0667 24.294 47.3506 27.1317C47.5828 29.5093 48.2279 31.7335 49.7246 33.6509C51.4276 35.824 53.6726 36.7443 56.4337 36.412C59.3496 36.0541 61.2075 34.3156 62.3687 31.7846C63.3492 29.6627 63.6589 27.3874 63.6073 25.0865V25.0609Z" fill="#231815"/>
<path d="M43 35.9755C39.7866 35.9755 36.5733 35.9755 33.3342 35.9755C33.2314 35.9755 33.1285 35.853 33.0257 35.7795C33.0257 35.706 33.0257 35.6325 33.0514 35.5835C33.617 35.5835 34.1825 35.5835 34.7224 35.5835C35.6992 35.5835 36.0591 35.265 36.0591 34.3341C36.0591 28.1114 36.0591 21.9131 36.0591 15.6904C36.0591 14.6615 35.7763 14.4165 34.6967 14.4165C34.1311 14.4165 33.5913 14.4165 33.0257 14.4165C33.0257 14.3185 33.0257 14.245 33 14.147C33.1542 14.098 33.3085 14 33.4627 14C36.4704 14 39.5039 14 42.5116 14C42.6658 14 42.8201 14.0735 42.9743 14.1225V14.3185C42.6915 14.343 42.4087 14.4165 42.1003 14.4165C40.6607 14.4165 39.9409 15.0943 39.9409 16.4499C39.9409 22.3296 39.9409 28.1849 39.9409 34.0646C39.9409 35.3875 40.1465 35.5835 41.509 35.5835C41.9974 35.5835 42.4859 35.5835 42.9486 35.5835C42.9486 35.7305 42.9486 35.853 42.9486 36L43 35.9755Z" fill="#231815"/>
</svg>
