<svg width="100" height="50" viewBox="0 0 100 50" fill="none" xmlns="http://www.w3.org/2000/svg">
<path fill-rule="evenodd" clip-rule="evenodd" d="M11.509 36.4626V37.6129H9.66376V36.4626H11.509ZM9.95793 12.3871V20.118H12.6322V12.3871H13.7287C14.2368 12.3871 15.5739 12.0661 16.1623 10.6216L16.3227 10.1935L14.3972 9.84579L14.2635 10.1401C14.1298 10.3273 13.9426 10.4076 13.6484 10.4076H12.6322V8.72227L9.95793 8.214V10.4076H6.24069L6.69531 12.3603H9.98467L9.95793 12.3871ZM13.2206 12.9756H15.3332V16.0252C15.3332 16.5334 15.3867 17.5767 15.8948 18.0582L16.2425 18.2722L15.1193 20.011L14.7716 19.797C13.1136 18.727 13.2206 16.0787 13.2206 16.0519V12.9756ZM7.6848 19.9843L7.39063 20.1715L6.24069 18.406L6.58834 18.192C6.82903 18.0582 7.09646 17.3627 7.17668 16.1054V12.9756H9.31611V16.3194C9.31611 17.657 8.88822 19.2888 7.6848 19.9843ZM20.4144 13.4036C20.7353 13.6979 21.0294 13.9921 21.3236 14.2596L20.4144 15.1157L19.5051 14.2596L20.3876 13.4036H20.4144ZM18.89 11.9591C18.1412 11.2636 17.4192 10.5681 16.8041 9.97954L16.1088 9.31078H19.1307L20.4144 10.5146L21.6713 9.31078H24.72L21.9387 11.9591L24.3723 14.2596L21.9387 16.5602C22.6875 17.2557 23.4096 17.9512 24.0246 18.5397L24.72 19.2085H21.6713L20.4144 18.0047L19.1575 19.2085H16.1088L16.8041 18.5397C17.4459 17.9245 18.168 17.2557 18.89 16.5602L16.4564 14.2596L18.8633 11.9591H18.89ZM24.72 12.3871H28.0093V20.2518H30.6836V12.3871H31.887C32.3951 12.3871 33.652 12.0661 34.2404 10.6216L34.4276 10.247L32.4486 9.9528L32.3149 10.1401C32.1812 10.3273 31.994 10.4076 31.6998 10.4076H30.6836V8.72227L28.0093 8.214V10.4076H24.2653L24.72 12.3603V12.3871ZM31.165 12.9756H33.2776V16.1322C33.2776 16.6404 33.4648 17.9512 33.8392 18.1652L34.1869 18.3792L33.0637 20.118L32.7695 19.9308C31.2184 19.0212 31.165 16.1589 31.165 16.1322V12.9756ZM24.7734 17.8175L24.4258 18.0315L25.549 19.7703L25.8431 19.583C27.3675 18.7002 27.3942 16.1857 27.3942 16.0787V12.9756H25.2548V16.1054C25.2013 17.443 24.8537 17.764 24.7467 17.8175H24.7734ZM32.3684 20.8135L32.5288 20.5995L34.5078 21.1345L34.3474 21.5358C33.7858 22.9268 32.2079 23.2478 31.6998 23.2478H23.5433C25.0944 24.1306 28.1965 25.4949 33.5183 26.4579L33.8927 26.5382L33.4114 28.6515L33.0637 28.598C24.8537 27.1267 20.869 24.3446 19.7993 23.4886C17.7401 25.5216 13.274 27.3407 7.17668 28.598L6.82903 28.6782L6.32091 26.5917L6.69531 26.5114C11.4288 25.5216 14.7449 24.4516 16.5634 23.3013H6.61509L6.10697 21.1613H18.5959C18.7831 20.7065 18.8633 20.3053 18.9168 20.1448L18.9703 19.797H22.0189L21.912 20.332C21.8852 20.439 21.7782 20.7868 21.6445 21.1613H31.78C32.0742 21.1613 32.2614 21.081 32.3951 20.8938L32.3684 20.8135ZM74.9697 12.6011V14.1794H78.0451V12.6011H84.1157V14.1794H87.1911V12.6011H91.5769C92.1118 12.6011 93.7966 12.2533 94.4117 10.6483L94.6523 10.0598L92.3257 9.39103L92.085 9.73879C91.9781 9.8993 91.8711 9.9528 91.6304 9.9528H87.1911V8.72227L84.1157 8.107V9.9528H78.0451V8.72227L74.9697 8.107V9.9528H66.9468L67.5351 12.6279H74.9697V12.6011ZM91.6839 22.9268L91.7374 23.9166C91.7374 23.9166 91.7374 24.1841 91.7374 24.2644C91.47 25.2541 90.8014 25.7089 90.6944 25.7624H84.918C84.4099 25.7624 84.1959 25.6019 84.1692 25.5484V21.6696C88.1271 21.0543 91.149 19.797 92.6199 19.1015C93.3687 18.7537 93.9035 18.406 93.9035 18.406L94.5721 17.9512L92.3792 16.2124L92.0583 16.3729C92.0583 16.3729 88.1271 18.2722 84.1692 18.9677L84.1157 15.7844L81.0403 14.5004L81.1205 25.1471C81.1205 25.1471 81.1205 26.4579 82.0565 27.3942C82.7251 28.0897 83.7145 28.4375 84.9447 28.4375H90.9618C91.6571 28.4107 94.1977 27.7687 94.893 25.0134L95 24.5586L91.7641 22.9001L91.6839 22.9268ZM75.2103 14.8482L75.1301 14.9284C74.9162 15.2494 72.8302 18.1652 67.5351 21.1345L67.1608 21.3485L67.7491 24.0236L68.3909 23.6758C69.7281 22.9803 70.985 22.2046 72.1884 21.3753V28.5445H75.2638V18.941C75.6382 18.62 76.0661 18.2187 76.4673 17.8442C77.0823 17.2825 77.8311 16.6137 77.9648 16.5067L78.8206 15.8914L75.4778 14.5806L75.2103 14.8482ZM53.1743 10.8088C53.6824 10.8088 55.2335 10.4878 55.8218 8.98977L55.9823 8.58852L54.0033 8L53.8428 8.214C53.7091 8.40126 53.5219 8.50826 53.2278 8.50826H46.8897L47.3978 10.7821H53.201L53.1743 10.8088ZM62.3738 11.5846C62.2401 11.7986 62.0529 11.7986 61.732 11.7986H37.9041L38.4123 14.0724H61.7052C62.1064 14.0724 63.9249 14.0724 64.326 12.8686C64.6469 11.9591 64.7539 11.5578 64.7539 11.5578L62.5343 11.0228L62.3738 11.5578V11.5846ZM53.3882 22.8198C56.5706 20.4123 57.8543 18.7805 58.6031 17.6302C59.1647 16.8812 60.2611 15.0622 60.2611 15.0622H56.6241L56.5171 15.3029C56.1962 16.0519 54.9126 18.6735 51.2221 21.4288C48.6013 19.5028 47.8792 18.3525 47.1304 16.9882C46.6223 16.0519 46.2746 15.0889 46.2746 15.0889H42.9853L43.1725 15.5972C43.3062 15.9984 44.5898 19.4225 49.0291 22.8466C46.0874 24.5319 42.5306 25.6821 38.4925 26.2707L38.0913 26.3242L38.5995 28.5712L38.9471 28.5177C43.7341 27.8222 47.8525 26.4312 51.2221 24.3714C54.6184 26.4312 58.7368 27.8222 63.497 28.5177L63.8447 28.5712L64.3528 26.3242L63.9516 26.2707C59.8867 25.6821 56.3567 24.5319 53.415 22.8466L53.3882 22.8198ZM86.3888 33.6806C86.2819 34.5366 85.9342 35.1251 85.3191 35.4996V36.0079C85.9342 35.8474 86.3888 35.5799 86.7097 35.2053H88.5817V34.5901H87.0574C87.1911 34.3493 87.2713 34.0551 87.2981 33.6806H86.3888ZM93.3152 33.9748C93.235 34.5901 93.1013 35.0716 92.9141 35.4996H93.7431C93.957 35.0983 94.0907 34.5901 94.171 33.9748H93.2885H93.3152ZM89.9724 33.9748H89.0898C89.1701 34.5901 89.3038 35.0716 89.5177 35.4996H90.3468C90.1596 34.9646 90.0258 34.4563 89.9456 33.9748H89.9724ZM89.0096 39.967V35.9276H91.1758V33.6806H92.1385V35.9276H94.3047V39.967H93.3954V36.5696H89.9991V39.967H89.0364H89.0096ZM92.1653 38.6562V37.1314H91.1758V38.6562C91.256 39.967 90.3735 40.8765 88.5015 41.4115V42C90.0793 41.6255 91.149 41.0905 91.7106 40.3682C92.2722 41.0905 93.2617 41.6255 94.7058 42V41.3847C92.9675 40.8765 92.1385 39.967 92.192 38.6829L92.1653 38.6562ZM88.555 40.823C88.0201 41.1707 87.3516 41.465 86.5225 41.7325V38.7632H85.4528V38.1747H86.5225V36.8371H85.64V36.2219H88.3945V36.8371H87.512V38.1747H88.5817V38.7632H87.512V40.6357C87.8329 40.5287 88.1806 40.395 88.555 40.1542V40.7962V40.823ZM71.5466 39.86V36.3824H69.5409V36.9976H70.4501V40.1007C70.5036 40.716 70.1827 41.1172 69.4874 41.358V41.893C70.2629 41.7325 70.7978 41.4382 71.1187 41.037C71.4396 41.5185 72.0279 41.7592 72.9105 41.7592H78.7671V41.1172H72.9907C72.0279 41.1172 71.5466 40.6625 71.5198 39.86H71.5466ZM72.1349 38.7097H75.1301V37.5594H72.5628V36.9174C72.9907 36.3021 73.3116 35.7404 73.5523 35.2589H72.2419V34.6436H73.8732C73.8732 34.6436 73.9534 34.4563 74.0337 34.2691C74.1139 34.0283 74.1674 33.8411 74.2209 33.6806H75.344C75.344 33.6806 75.2906 33.7876 75.2638 33.8678C75.1836 34.0818 75.0766 34.3493 74.9162 34.6168H78.5532V35.2321H74.5953C74.1941 35.9009 73.8197 36.4626 73.4721 36.8906H75.1034V35.7939H76.0929V36.8906H78.259V37.5327H76.0929V38.6829H78.6602V39.2982H76.0929V40.7427H75.1034V39.2982H72.1082V38.6829L72.1349 38.7097ZM71.0652 33.8143H70.156C70.4501 34.4296 70.6641 35.0448 70.8245 35.6334H71.7873C71.6803 35.0716 71.4396 34.4831 71.0652 33.8143ZM53.6022 40.502V41.2242C54.9126 41.0905 55.9555 40.8497 56.7311 40.502V39.86C56.3567 39.9937 56.009 40.1007 55.6881 40.181V37.6129H56.5974V36.9976H55.6881V34.8308H56.6776V34.2156H53.6289V34.8308H54.6719V36.9976H53.7091V37.6129H54.6719V40.3682C54.351 40.4485 54.0033 40.502 53.6022 40.502ZM59.2984 35.7671H58.0682V34.6703H59.2984V35.7671ZM59.2984 37.6129H58.0682V36.4091H59.2984V37.6129ZM60.2879 36.4359H61.518V37.0779C61.518 37.4524 61.3576 37.6397 60.9564 37.6129H60.2879V36.4091V36.4359ZM60.2879 34.6971H61.518V35.7939H60.2879V34.6971ZM60.2879 39.8867V41.0905H62.9621V41.679H56.4636V41.0905H59.2716V39.8867H56.9985V39.2447H59.2716V38.2282H57.1055V34.0283H62.4273V37.1314C62.454 37.8804 62.0529 38.2282 61.2239 38.2282H60.2611V39.2447H62.5343V39.8867H60.2611H60.2879ZM45.6596 35.0448V37.0244C45.6596 37.4256 45.4724 37.6397 44.991 37.6129H42.5039V35.0448H45.6596ZM44.6166 33.6806H43.5469V34.4296H41.4609V39.4319C41.5144 40.3147 41.247 40.9567 40.6319 41.358V41.9732C41.969 41.4115 42.5841 40.502 42.5039 39.2179V38.2817H45.3119C46.2479 38.2817 46.7025 37.9072 46.6758 37.0779V34.4296H44.6433V33.6806H44.6166ZM40.9261 37.2919V37.9072C40.5517 38.0409 40.204 38.1747 39.8831 38.2817V40.9567C39.8831 41.572 39.5355 41.893 38.8134 41.893H37.9844V41.251H38.4925C38.7867 41.251 38.9204 41.144 38.9204 40.93V38.5492C38.5727 38.6294 38.1716 38.6829 37.7169 38.7632V37.9607C37.8774 37.9607 38.1181 37.9072 38.439 37.8804C38.6529 37.8269 38.8134 37.8002 38.9204 37.8002V35.6601H37.7972V35.0448H38.9204V33.6806H39.8831V35.0448H40.9261V35.6601H39.8831V37.5862C39.8831 37.5862 40.204 37.5059 40.4715 37.3989C40.6587 37.3454 40.7924 37.3186 40.8993 37.2919H40.9261ZM23.3561 39.0307H25.6292V40.4752C25.6292 40.8497 25.4153 41.0637 24.9874 41.0637H23.3561V39.0307ZM22.3398 41.6255H25.2548C26.1641 41.6255 26.5919 41.251 26.5652 40.4752V38.4154H22.3131V41.6255H22.3398ZM26.378 35.4461H25.4153C25.4153 35.4461 25.3885 35.5799 25.3885 35.5531C25.2815 36.1684 25.1478 36.6231 24.9874 36.8906H23.9177C23.7037 36.4894 23.57 36.0079 23.5165 35.4461H22.5538C22.634 36.0079 22.7677 36.4894 22.9817 36.8906H21.8317V37.5327H27.1268V36.8906H25.9234C26.1106 36.5696 26.271 36.0881 26.4047 35.4461H26.378ZM30.951 34.7506V34.1353H27.5547V41.9732H28.5174V34.7506H29.9883C29.9883 35.8206 29.7743 36.6766 29.3465 37.3186C29.9081 37.8537 30.1755 38.4154 30.1487 39.0574C30.1487 39.9135 29.7476 40.288 28.8383 40.2612V40.9835C30.2825 40.9835 31.0045 40.3682 31.0045 39.1644C31.0045 38.4689 30.7371 37.8269 30.2022 37.2919C30.6569 36.6766 30.8975 35.8474 30.951 34.7506ZM23.9444 33.6806V34.4831H22.0724V35.0983H26.8861V34.4831H25.0409V33.6806H23.9712H23.9444ZM12.4183 36.4626H13.7019V40.4752C13.7019 40.93 13.488 41.144 12.9799 41.1172H12.4183V36.4626ZM11.509 39.3784H9.66376V38.1747H11.509V39.3784ZM11.509 41.1172H9.66376V39.967H11.509V41.1172ZM8.72777 41.1172H7.41737V36.4626H8.72777V41.1172ZM6 34.7506H9.85096C9.79748 35.1251 9.6905 35.4729 9.53005 35.7939H6.45463V41.7325H13.274C14.2635 41.7325 14.7449 41.3312 14.7181 40.5287V35.7939H10.68C10.8672 35.4194 10.9742 35.0716 11.0276 34.7506H15.146V34.0551H6.02674V34.7506H6Z" fill="#005548"/>
</svg>
