<svg width="50" height="50" viewBox="0 0 50 50" fill="none" xmlns="http://www.w3.org/2000/svg">
<path d="M19.5387 5H6.82031V8.49514V8.83495V19.3689V23.2039H10.6795H23.398V19.3689H10.6795V8.83495H19.5387V12.233H15.9222V16.0922H23.398V12.4757V12.233V5H19.6601H19.5387Z" fill="#231815"/>
<path d="M30.4608 5H30.3394H26.6016V12.233V12.4757V16.0922H34.0773V12.233H30.4608V8.83495H39.32V19.3689H26.6016V23.2039H39.32H43.1792V19.3689V8.83495V8.49514V5H30.4608Z" fill="#231815"/>
<path d="M19.5387 45H6.82031V41.5049V41.1651V30.6311V26.7961H10.6795H23.398V30.6311H10.6795V41.1651H19.5387V37.767H15.9222V33.9078H23.398V37.5243V37.767V45H19.6601H19.5387Z" fill="#231815"/>
<path d="M30.4608 45H30.3394H26.6016V37.767V37.5243V33.9078H34.0773V37.767H30.4608V41.1651H39.32V30.6311H26.6016V26.7961H39.32H43.1792V30.6311V41.1651V41.5049V45H30.4608Z" fill="#231815"/>
</svg>
