<svg width="138" height="50" viewBox="0 0 138 50" fill="none" xmlns="http://www.w3.org/2000/svg">
<path d="M116.022 30.267L116.476 30.9457L112.91 32.8122C111.322 33.6267 110.057 34 108.955 34C105.713 34 105 30.8439 105 28.7398C105 24.0226 109.895 19 115.374 19C117.19 19 118 19.8484 118 21.5792C118 24.3959 113.688 27.2466 108.145 26.1267C107.367 29.1131 108.112 32.2014 111.062 32.2014C112.554 32.2014 114.434 31.2851 116.055 30.267M108.372 25.414C114.272 26.3643 115.569 22.733 115.569 21.0023C115.569 20.2217 114.953 19.6787 114.434 19.6787C111.808 19.6787 108.825 23.31 108.372 25.414Z" fill="#225D38"/>
<path d="M131.027 30.267L131.448 30.9457L127.923 32.8122C126.371 33.6267 125.109 34 123.978 34C120.744 34 120 30.8439 120 28.7398C120 24.0226 124.915 19 130.413 19C132.192 19 133 19.8484 133 21.5792C133 24.3959 128.699 27.2466 123.169 26.1267C122.361 29.1131 123.137 32.2014 126.08 32.2014C127.535 32.2014 129.41 31.2851 131.06 30.267M123.396 25.414C129.281 26.3643 130.542 22.733 130.542 21.0023C130.542 20.2217 129.928 19.6787 129.443 19.6787C126.856 19.6787 123.881 23.31 123.396 25.414Z" fill="#225D38"/>
<path d="M6.5067 21.3264L6.267 20.7708L11.4377 19C12.1568 19.0694 12.0541 19.5556 11.8487 20.25L8.25311 34H5L8.18462 22.2292C8.35584 21.7083 8.59554 21.0486 7.7737 21.0486C7.46551 21.0486 7.15733 21.1181 6.84914 21.2222L6.5067 21.3264Z" fill="#225D38"/>
<path d="M10.2104 17C9.29588 17 8.89958 16.4831 9.02152 15.9888C9.11297 15.4944 9.69218 15 10.7591 15C11.7042 15 12.1005 15.4944 11.9785 15.9888C11.8566 16.4831 11.2164 17 10.2104 17Z" fill="#225D38"/>
<path d="M53.5051 21.3264L53.2657 20.7708L58.431 19C59.1494 19.0694 59.0468 19.5556 58.8757 20.25L55.2497 34H52L55.1813 22.2292C55.3523 21.7083 55.5576 21.0486 54.7366 21.0486C54.4287 21.0486 54.1209 21.1181 53.813 21.2222L53.4709 21.3264H53.5051Z" fill="#225D38"/>
<path d="M57.6477 17C56.4248 17 55.8949 16.4831 56.0172 15.9888C56.1395 15.4944 56.914 15 58.3407 15C59.6044 15 60.1343 15.4944 59.9713 15.9888C59.8082 16.4831 58.9522 17 57.6477 17Z" fill="#225D38"/>
<path d="M14 34L17.1062 22.2307C17.2412 21.71 17.4776 20.8767 16.6673 20.9462C16.3972 20.9462 15.4856 21.1892 15.4856 21.1892L15.283 20.6337L20.3137 19.002C20.9889 19.0714 20.8876 19.5575 20.7188 20.2518L19.3008 25.4595L19.3683 25.5289C22.0018 20.6684 26.0534 18.9326 27.9103 19.002C29.6998 19.0714 30.4763 19.7311 29.6998 22.3696L26.2222 34H23.1497L26.2897 23.7236C26.6611 22.439 27.2013 20.4949 25.7833 20.7726C23.1497 21.3628 18.7943 27.0565 17.6802 31.8128L17.1062 34H14Z" fill="#225D38"/>
<path d="M33 34L36.1034 22.2307C36.2383 21.71 36.4744 20.8767 35.6649 20.9462C35.395 20.9462 34.4842 21.1892 34.4842 21.1892L34.2818 20.6337L39.308 19.002C39.9826 19.0714 39.8477 19.5575 39.7127 20.2518L38.296 25.4595L38.3635 25.5289C40.9946 20.6684 45.0762 18.9326 46.8977 19.002C48.6856 19.0714 49.4951 19.7311 48.6856 22.3696L45.2111 34H42.1415L45.2786 23.7236C45.6497 22.439 46.1894 20.4949 44.7726 20.7726C42.1415 21.3628 37.79 27.0565 36.6768 31.8128L36.1371 34H33.0337H33Z" fill="#225D38"/>
<path d="M95.0083 33H92.0331L95.0083 22.0139C95.1736 21.5278 95.3719 20.912 94.5785 20.912C94.281 20.912 94.0165 20.9769 93.686 21.0741L92.1983 21.463L92 20.9444L98.1488 19.0324C98.8099 19.0972 98.7108 19.5509 98.5455 20.1991L97.2893 23.6019H97.3554C99.7355 20.2639 101.686 19 104 19L103.438 21.4306L102.545 21.8194C102.149 21.5602 101.719 21.3333 101.421 21.3333C100.86 21.3333 100.231 21.4954 99.7686 21.8194C98.3802 22.8241 97.0248 25.6759 96.3967 27.9444L95.0083 33Z" fill="#225D38"/>
<path d="M73.9677 19.4751L73.2903 22.2919H72.5161C72.4516 21.0362 71.6452 19.7466 69.9032 19.7466C69.0323 19.7466 67.2903 20.3914 67.2903 21.9864C67.2903 23.2081 68.4839 24.0905 70.1613 25.448C71.4194 26.4661 72.9355 27.7896 72.9355 29.69C72.9355 31.862 69.8387 34 66.4194 34C64.5161 34 63.0968 33.6946 62 33.1855L62.7097 30.0294H63.5161C63.0645 32.0317 64.871 33.2195 66.6774 33.1855C68.7742 33.1516 69.9355 31.5226 69.9355 30.6403C69.9355 29.0792 69.2903 28.3665 67.4194 26.9072C65.6452 25.5498 64.3548 24.2602 64.7419 22.3258C65.0968 20.3235 67.7097 19 69.8065 19C71.0323 19 72.5484 19.0679 74 19.509" fill="#225D38"/>
<path d="M90.6147 10C88.9348 10 87.7692 10.7921 86.055 12.3434C84.4437 13.8287 82.0096 17.4263 80.9811 22.2122C79.5756 28.6814 80.1584 32.147 78.3414 36.3387C77.7928 37.626 77.0729 38.8802 76.353 39.5073C75.5645 40.2004 76.2158 40.1674 77.1415 39.3753C80.7412 36.3718 83.4838 31.5859 84.8894 25.8759C86.1922 20.7599 85.4036 16.7332 86.4321 13.9937C85.6093 15.2809 84.7523 17.9214 84.1695 20.6939C83.0724 25.9419 83.2781 27.3941 81.1526 31.5199C81.1526 31.5199 81.084 31.6189 81.084 31.5859L81.1869 31.3548C82.661 27.9552 82.4896 25.0837 83.6552 19.8358C84.5123 15.9411 85.9179 13.4326 86.6378 12.7065C87.5292 11.8153 87.8035 11.5183 88.6948 11.1222C89.8604 10.5941 90.3747 10.8251 91.0603 11.1222C91.3689 11.2212 91.6431 11.2872 91.8488 10.9902C92.3631 10.2971 91.4717 10.033 90.5804 10.033" fill="#225D38"/>
<path d="M85.155 20H88.9146C88.9146 20 89.0308 20.0833 88.9921 20.1667L88.9146 20.5556C88.8371 20.9722 88.682 21 88.4882 21H85" fill="#225D38"/>
<path d="M81.7907 21H78.1635C77.9891 21 77.9542 20.7222 78.0589 20.3611C78.1286 20.0556 78.2332 20 78.5471 20H82" fill="#225D38"/>
</svg>
