<svg width="50" height="50" viewBox="0 0 50 50" fill="none" xmlns="http://www.w3.org/2000/svg">
<path d="M7 24H5V39H7V24Z" fill="#231815"/>
<path d="M31.6043 25.6546C30.4974 24.5857 29.2781 23.8731 27.754 24.0189C26.0054 24.197 24.1123 25.6546 24.4011 28.1324C24.754 31.2094 29.4064 32.1649 29.9679 34.3998C30.369 36.0355 29.1016 37.3634 27.5134 37.0881C26.7754 36.9586 26.0214 36.3918 25.4759 35.6306L24 36.8452C25.0588 38.157 26.3904 39.0315 28.1391 38.9991C30.9626 38.9344 32.4546 36.1812 31.877 33.9463C31.0589 30.7236 26.3262 29.8976 26.2941 27.6303C26.2781 26.27 27.4332 25.6222 28.4118 25.7841C29.0695 25.8975 29.7594 26.3509 30.2246 26.9502L31.5722 25.6384L31.6043 25.6546Z" fill="#231815"/>
<path d="M12.2128 11L4.57397 22.3936L6.13961 23.4433L13.7785 12.0497L12.2128 11Z" fill="#231815"/>
<path d="M40.0755 25.4182C40.1208 25.802 40.1813 26.2859 40.2417 26.5862C40.6647 29.2558 43.0211 39 43.0211 39H45L41.2538 24H38.8066L35 39H36.9184C36.9184 39 39.2749 29.3393 39.8187 26.5528C39.864 26.2692 39.9698 25.6852 40 25.4182H40.0755Z" fill="#231815"/>
<path d="M16.228 24C16.7497 24 17.3203 24 17.842 24.133C19.1299 24.449 20.695 25.5299 20.9559 27.7417C21.3635 31.0011 18.8691 32.6807 16.6845 33.1297L16.0161 31.4335C16.4073 31.367 17.0921 31.2173 17.679 30.8847C18.5593 30.3692 19.1789 29.3714 18.9832 28.0577C18.8365 27.0266 18.2333 26.378 17.6301 26.0787C17.4507 25.9956 17.1573 25.8958 16.7823 25.8459C15.9835 25.7295 15.2335 25.9124 14.8912 25.8625C14.9238 25.9956 14.9401 26.245 14.9401 26.4446V39H13V24.0998C13.7825 24.0998 15.7389 24 16.2443 24H16.228Z" fill="#231815"/>
</svg>
