<svg width="122" height="50" viewBox="0 0 122 50" fill="none" xmlns="http://www.w3.org/2000/svg">
<path fill-rule="evenodd" clip-rule="evenodd" d="M57 6C54.8065 6 53 7.42003 53 9.14434V32H57V6Z" fill="#303200"/>
<path fill-rule="evenodd" clip-rule="evenodd" d="M19 6C17.246 6 15.8016 7.39804 15.8016 9.09566V25.1399C15.9392 29.2341 12.8783 30.8319 9.88626 30.8985C7.58203 30.965 4.34924 30.266 4.24606 27.5032C4.24606 27.5032 4.17728 27.3701 4.03971 27.4366C3.97093 27.4699 4.00532 27.6696 4.03971 27.7695C4.31484 31.0649 7.68521 32.0635 10.9868 31.9969C12.0873 31.9969 13.1878 31.8971 14.082 31.664C15.3545 31.2979 18.5529 29.9664 18.9656 25.7057V25.1399L19 6Z" fill="#303200"/>
<path fill-rule="evenodd" clip-rule="evenodd" d="M73.7756 14C76.0594 14 78.3433 14.9491 79.754 16.7456C80.8623 18.1693 81.3661 20.1014 81.4333 22.2369V39.1513C81.5005 43.185 81.7692 43.4223 82.4073 45.185C82.9111 46.5069 84.2882 47.7272 85.766 47.7272C85.9675 47.7272 86.1018 47.8967 85.9003 47.9984C84.1202 48.0323 82.7768 47.5238 82.7768 47.5238C77.8395 45.9307 78.3433 39.1513 78.3433 39.1513V30.3382C77.067 31.4568 75.4885 32.1008 73.7756 32.1008V30.9483C76.9663 31.05 78.2426 27.796 78.1418 23.0165C78.041 18.2371 76.6976 15.0508 73.7756 15.0847V14ZM73.742 14H73.7756V15.0847C70.8535 15.1186 69.4093 18.6438 69.4093 23.0165C69.4093 27.3892 70.5848 30.8467 73.7756 30.9483V32.1008H73.742C69.4765 32.1008 65.7148 29.5925 66.0171 23.0504C66.3193 16.5084 69.4429 14.0339 73.742 14Z" fill="#303200"/>
<path fill-rule="evenodd" clip-rule="evenodd" d="M110.6 14C114.867 14.067 117.933 18.4246 118 22.4469V22.581H110.467V21.5084H115.133C115.133 21.3408 115.133 21.1732 115.133 20.9721C115.133 17.9218 113.333 15.4413 110.467 15.3743V14C110.467 14 110.567 14 110.6 14ZM110.467 30.5922C110.967 30.7598 111.5 30.8603 112.067 30.8603C114.5 30.8603 116.533 29.0838 117.6 26.5363C117.733 26.2011 118 26.3687 117.9 26.6704C116.9 29.8883 114.067 31.9665 110.8 31.9665C110.7 31.9665 110.567 31.9665 110.467 31.9665V30.5587V30.5922ZM110.467 22.5475H105.933C105.933 22.7486 105.933 22.9162 105.933 23.1173C105.933 26.7039 107.867 29.7207 110.5 30.5922V32C106.333 31.7989 103 27.8436 103 23.0168C103 18.1899 106.3 14.0335 110.5 14V15.3743H110.433C107.5 15.3743 105.833 18.3911 105.833 21.4749H110.5V22.5475H110.467Z" fill="#303200"/>
<path fill-rule="evenodd" clip-rule="evenodd" d="M37 14C35.2924 14 33.8862 15.4237 33.8862 17.1525V26.339C33.7522 27.1186 33.6853 27.2203 33.3839 27.7966C31.8772 30.8136 28.2612 30.8814 26.3527 28.8814C25.5491 28.0339 25.0804 26.6102 25.1138 25.1186V17.1864C25.1138 15.4576 23.7076 14.0339 22 14.0339V25.6949C22.4687 30.0339 24.846 31.5593 26.1183 31.8644C26.3527 31.9322 26.5871 31.9661 26.8214 32H29.5C31.375 31.6949 32.9821 30.7119 33.8527 28.8814V32H36.9665V14.0678L37 14Z" fill="#303200"/>
<path fill-rule="evenodd" clip-rule="evenodd" d="M41 14C42.7406 14 44.1741 15.4264 44.1741 17.1585V17.8038C44.3447 17.7698 44.5836 17.6 44.7884 17.1245C46.2218 14 49.9761 13.8641 51 14.1019C50.7611 18.9585 46.5973 16.1736 45.0956 18.4491C44.4812 19.4 44.2423 20.4868 44.1741 21.3019V32H41V14.034V14Z" fill="#303200"/>
<path fill-rule="evenodd" clip-rule="evenodd" d="M60 14.4615C60.0317 12.8132 60.3492 11.1978 62.9839 11C63.1109 12.3187 62.5077 14.3626 60.4444 14.4945C61.8411 14.7253 62.9521 15.978 62.9521 17.5275V32H60V14.4615Z" fill="#303200"/>
<path fill-rule="evenodd" clip-rule="evenodd" d="M100 14C98.2924 14 96.8862 15.4237 96.8862 17.1525V26.339C96.7522 27.1186 96.6853 27.2203 96.3839 27.7966C94.8772 30.8136 91.2612 30.8814 89.3527 28.8814C88.5491 28.0339 88.0804 26.6102 88.1138 25.1186V17.1864C88.1138 15.4576 86.7076 14.0339 85 14.0339V25.6949C85.4687 30.0339 87.846 31.5593 89.1183 31.8644C89.3527 31.9322 89.5871 31.9661 89.8214 32H92.5C94.375 31.6949 95.9821 30.7119 96.8527 28.8814V32H99.9665V14.0678L100 14Z" fill="#303200"/>
</svg>
