<svg width="75" height="50" viewBox="0 0 75 50" fill="none" xmlns="http://www.w3.org/2000/svg">
<path d="M66.5246 16.8999C67.0901 16.4519 67.6057 15.7551 67.8718 14.8591C68.1212 14.0627 68.0048 13.2663 67.5391 13.0423C67.1732 12.893 66.6743 13.1419 66.4913 13.7392C66.2751 14.436 66.3583 15.2324 66.7741 15.4564C66.6577 15.6555 66.3749 15.979 66.2252 16.1284C66.0257 16.3275 65.9425 16.6012 66.0423 16.8252C66.1587 17.099 66.3583 16.9994 66.5246 16.875" fill="#231815"/>
<path d="M65 30.8775C65 30.6442 64.7849 30.4343 64.3547 30.411C53.191 29.8979 34.8213 29.0117 17.097 33.9327C16.4517 34.096 16 34.3059 16 34.6324C16 34.9822 16.1936 35.2388 16.7313 35.4021C17.6993 35.6819 18.7103 35.8685 19.2695 35.9385C19.6997 36.0084 20.2375 36.0318 20.7537 35.9385C21.4205 35.8452 22.1519 35.612 22.6251 35.4487C34.7138 31.1807 49.7709 30.9008 64.2687 31.274C64.7634 31.274 65 31.0874 65 30.8541" fill="#231815"/>
<path d="M33.0306 15.8597C32.8978 16.3995 33.2013 16.9793 33.8652 16.9992C34.4912 17.0192 34.8706 16.6394 34.9654 16.1596C35.1172 15.5598 34.7568 15 34.1308 15C33.5997 15 33.1823 15.2799 33.0306 15.8397" fill="#231815"/>
<path d="M71.1472 19.5706C70.9516 19.0858 70.7995 18.5569 70.9081 18.1823C71.0385 17.7856 71.3211 17.7195 71.5166 17.1246C71.6688 16.6397 71.6036 16.0448 71.0385 16.0007C70.3866 15.9787 70.0823 16.4855 69.7998 17.3449C68.7349 19.3062 65.801 21.7742 64.8665 22.5015C63.9972 23.1846 63.8668 23.427 64.1058 23.7796C64.3449 24.1101 64.8013 24.066 65.7358 23.3388C66.9093 22.4353 69.0174 20.408 69.8867 19.1739C69.9519 20.4741 70.4517 21.6641 70.0823 23.5151C69.9302 24.3305 69.5172 25.4103 68.5393 25.851C67.8438 26.1595 66.8441 25.9171 66.5399 25.1899C67.1267 25.0577 67.3874 24.7271 67.4092 24.1322C67.4092 23.5812 67.1267 23.1846 66.6051 23.0964C66.2356 23.0524 65.7358 23.1625 65.4967 23.5812C65.2794 23.9338 65.1707 24.4407 65.3011 25.0136C65.5836 26.3578 66.8007 26.9528 68.0612 26.9969C69.6476 27.063 71.3863 26.0714 71.8426 24.3084C72.299 22.6116 71.6688 20.8928 71.1472 19.5706Z" fill="#231815"/>
<path d="M60.0492 19.6888C62.125 17.5748 64.2445 15.1191 64.8345 12.9197C65.2497 11.4035 64.9219 10.3359 63.4142 10.3786C59.94 10.464 54.8924 16.2295 54.2369 21.8882C54.1714 22.4007 54.1714 22.9132 54.2369 23.4043C53.2536 24.3225 52.4452 24.9418 51.3308 25.497C50.8282 25.7532 50.3475 25.86 50.0416 25.5397C49.8449 25.3261 49.8012 24.8564 50.0416 24.3225C50.4786 23.2975 51.2434 22.4007 51.9426 21.2476C52.4015 20.5002 52.5107 19.6034 52.3141 19.0695C52.1174 18.5143 51.5056 18.1513 50.8064 18.1513C49.6483 18.1513 48.4683 18.7279 47.5506 19.3685C47.5506 19.3685 51.6804 12.6634 52.1393 11.916C52.5326 11.2754 52.2048 11.1046 51.7459 11.1046H50.6534C50.3257 11.1046 50.1509 11.2541 49.8886 11.6811C46.764 16.8701 44.7756 20.1799 43.4864 22.2939C43.2242 22.5715 42.9183 22.8918 42.5468 23.2762C41.1047 24.6855 39.2255 26.1589 37.8489 26.3298C37.1497 26.4152 36.6034 26.1376 36.2538 25.6464C38.1767 24.5788 40.2962 23.3189 41.2576 21.696C41.7602 20.8419 42.0005 20.2867 41.8257 19.4325C41.6728 18.6424 41.0828 18.3008 40.2306 18.2154C38.9633 18.0872 37.4119 18.557 36.2101 19.6674C35.0302 20.7564 34.4184 21.8455 34.0906 22.9345C33.8284 23.8314 33.8502 24.8564 34.1998 25.7319C33.5006 26.0949 32.7358 26.3938 32.1459 26.586C30.5945 27.0558 29.8734 25.8813 30.7693 24.0022C31.1626 23.1481 32.6484 20.3934 33.3914 19.3044C33.6317 18.9414 33.5443 18.6638 33.0855 18.6638C32.714 18.6638 32.0148 18.6851 31.7307 18.7065C31.403 18.7065 31.2063 18.8133 31.0315 19.0695C30.4415 19.9664 29.1523 22.785 28.2783 24.173C27.6883 25.1126 27.0984 25.8813 26.2899 26.5006C25.4377 27.1626 24.52 26.885 24.3889 25.9667C24.2359 24.8564 24.6729 23.3829 24.6948 22.3153C24.7166 20.671 24.367 19.6033 23.6678 18.7706C29.2616 16.806 32.5173 11.2327 35.7731 9.75931C35.9698 9.67389 36.1664 9.58848 36.3849 9.52442C37.3463 9.22546 38.2859 9.22546 38.5044 9.88743C38.7666 10.6562 37.8489 11.5744 36.8219 11.916C35.9479 12.1936 35.5327 12.4712 35.6201 12.7275C35.7075 13.0264 36.1227 13.0051 36.8001 12.941C38.4389 12.7488 40.1214 11.2754 39.7718 9.58848C39.5533 8.49944 38.4826 7.92289 37.0186 8.00831C36.6908 8.00831 36.3849 8.07237 36.079 8.13643C31.8837 9.09734 28.3876 14.7347 24.6292 17.2544C23.9956 17.6815 23.6023 17.8951 23.0341 18.1086C22.4223 17.5961 21.6794 17.2117 20.5213 17.2117C21.5264 15.0977 22.3131 13.2613 23.6897 11.5103C24.2141 11.2114 25.0444 10.9978 25.547 10.6135C26.0932 10.2077 26.3336 9.7166 26.1369 9.39629C25.8966 9.01193 25.1755 8.92652 24.6074 9.09734C24.2141 9.22547 23.9519 9.52441 23.4056 10.0155C22.8593 10.5067 21.592 10.6348 20.281 10.3786C19.691 10.2718 19.1229 10.0583 18.5548 9.84472C17.2 9.31088 15.8016 8.67027 14.0098 8.64892C11.4751 8.62756 9.63967 9.75931 9.59597 11.6384C9.55226 13.4748 11.344 14.4785 13.3106 14.1368C13.7257 14.0727 14.3594 13.7311 14.3594 13.4962C14.3594 13.24 13.6383 13.1759 13.2887 13.1545C11.6718 13.1118 10.8415 12.6421 10.8633 11.7666C10.8852 10.9765 11.7155 10.3999 13.245 10.3999C14.8183 10.3999 16.1512 11.1046 18.1177 11.4676C18.1177 11.4676 18.1396 11.4676 18.1614 11.4676C18.1614 11.4676 18.1614 11.4676 18.1833 11.4676C19.2321 11.6598 20.4558 11.7666 21.9853 11.5957C20.4121 13.24 18.0303 16.5711 16.3478 19.5606C13.6165 24.4079 12.3929 26.3725 10.3826 27.312C8.9623 27.974 7.08314 28.1021 6.0343 27.2693C5.64099 26.949 5.42248 26.5006 5.42248 26.0949C5.42248 25.8813 5.48803 25.8386 5.53174 25.8386C6.42761 25.8173 6.86463 25.4329 6.93018 24.8564C7.03943 24.0663 6.49317 23.5324 5.77209 23.5751C4.57031 23.6605 3.95849 24.536 4.00219 25.86C4.04589 27.4188 5.31323 28.9563 7.86976 28.999C13.7257 29.0844 16.8941 23.8527 19.1229 19.8809C19.2758 19.6247 19.4069 19.3685 19.538 19.1122C20.1061 19.3044 20.9146 19.3685 22.0727 19.1763C22.4442 20.4789 21.8542 22.422 21.8324 24.2157C21.8324 26.7782 22.6627 28.1662 24.3889 28.2302C25.8529 28.2943 27.4043 27.2907 28.3876 25.8173C28.5405 27.312 29.6986 27.9099 30.8567 27.8886C31.8837 27.8886 33.2821 27.2693 34.6806 26.5219C35.1613 27.1626 35.9042 27.5896 36.9093 27.5896C38.5263 27.5896 40.0777 26.6501 41.782 25.1767C41.1702 26.2016 41.1047 26.3511 40.9736 26.586C40.7988 26.9277 40.9299 27.2907 41.2795 27.2693C41.5635 27.2693 42.0442 27.2266 42.3502 27.2053C42.7435 27.1839 42.9183 27.0344 43.0712 26.8209C43.2897 26.5006 44.8411 23.7673 45.6278 22.6356C46.764 20.97 48.2061 20.0304 48.9709 19.7528C50.0853 19.3471 50.5223 20.0731 49.8449 21.0127C48.8835 22.3366 48.1406 23.5324 47.9876 24.5147C47.7691 25.8386 48.4246 26.9063 49.9323 26.9704C50.719 27.0131 51.3963 26.7568 52.183 26.2871C53.3192 25.6037 53.7781 25.2407 54.5865 24.536C55.0454 25.6891 55.9413 26.5646 57.4053 26.6714C59.8526 26.8422 61.2292 25.6678 62.2998 24.6215C62.715 24.2157 62.715 23.8527 62.4746 23.6178C62.2561 23.4043 61.7754 23.5111 61.4695 23.81C60.6173 24.6428 59.5466 25.4756 58.2138 25.4116C57.0775 25.3475 56.4657 24.4293 56.3346 23.1481C57.9953 21.7174 58.8474 20.8846 60.0929 19.6461M20.6743 18.5997C20.1061 18.5997 19.8658 18.4503 19.9313 18.1727C19.975 17.9805 20.2154 17.9378 20.4121 17.9378C21.0894 17.9378 21.439 18.1086 21.7231 18.5143C21.3298 18.5784 21.002 18.5997 20.6961 18.5784M36.1009 22.9772C36.6034 21.4398 37.543 20.3294 38.4607 19.7528C38.9414 19.4539 39.4877 19.4539 39.6844 19.582C40.1651 19.9023 40.2743 20.97 38.9851 22.3153C38.2641 23.0626 37.4556 23.8741 35.9042 24.7709C35.8168 24.2371 35.8823 23.6178 36.1009 22.9559M56.3127 21.6533C56.3127 21.6533 56.3346 21.4611 56.3564 21.3757C56.9901 17.5748 60.1803 13.304 62.2124 12.0228C63.1083 11.4676 63.6983 11.6811 63.4142 12.5566C62.9335 14.0941 61.251 16.3576 59.8963 17.9591C58.76 19.3044 57.5582 20.5429 56.3127 21.6319" fill="#231815"/>
<path d="M21.0678 39.86C21.0678 40.42 21.3559 40.6 21.9322 40.78C22.2881 40.88 22.4068 40.96 22.4068 41.14C22.4068 41.4 22.1525 41.4 22.0169 41.4C21.7797 41.4 21.4746 41.26 21.2881 41.12C21.2712 41.16 21.0339 41.62 21 41.66C21.2881 41.86 21.6441 42 22 42C22.6441 42 23 41.68 23 41.1C23 40.6 22.7797 40.38 22.1186 40.18C21.7966 40.1 21.6441 40.02 21.661 39.86C21.661 39.6 21.8983 39.6 21.9831 39.6C22.2203 39.6 22.4407 39.68 22.678 39.86C22.6949 39.82 22.9492 39.36 22.9661 39.32C22.6949 39.12 22.4068 39 22.0339 39C21.4576 39 21.0847 39.34 21.0847 39.88" fill="#231815"/>
<path d="M26.0274 39C26.0274 39 26 41.9583 26 42C26.0549 42 26.9329 42 26.9878 42C26.9878 41.9583 27.0152 39.0417 26.9878 39C26.9329 39 26.0549 39 26 39" fill="#231815"/>
<path d="M31.4803 40.8414C31.4331 40.7172 31.1181 40.0966 31.0079 39.8897C31.0079 39.8897 30.5354 39.0414 30.5039 39C30.5039 39 30.0315 39 30 39C30 39.0414 30 41.9379 30 41.9793C30.0315 41.9793 30.4882 41.9793 30.5197 41.9793C30.5197 41.9379 30.5197 41.0897 30.5197 41.0897C30.5197 40.6965 30.5197 40.1172 30.5039 40.0138C30.5669 40.1379 30.8661 40.7793 30.9764 40.9862C30.9764 40.9862 31.5118 41.9793 31.5276 42C31.5433 42 31.9528 42 31.9843 42C31.9843 41.9586 32 39.0621 32 39.0207C31.9685 39.0207 31.5118 39.0207 31.4803 39.0207C31.4803 39.0621 31.4803 39.8069 31.4803 39.8069C31.4803 39.8897 31.4803 40.6965 31.4961 40.8621" fill="#231815"/>
<path d="M35 40.4899C35 41.4161 35.4032 42 36.0484 42C36.6129 42 36.8548 41.6174 36.9839 41.3154C36.9516 41.2953 36.5484 41.0134 36.5161 40.9933C36.4032 41.2349 36.3065 41.396 36.0645 41.396C35.7742 41.396 35.5968 41.0537 35.5968 40.4899C35.5968 39.906 35.7742 39.5839 36.0645 39.5839C36.3226 39.5839 36.4194 39.8054 36.4839 40.0268C36.5161 40.0268 36.9677 39.8054 37 39.7852C36.8548 39.302 36.6452 39 36.0806 39C35.4355 39 35.0161 39.5839 35.0161 40.4899" fill="#231815"/>
<path d="M40.018 39C40.018 39 40.018 41.9583 40.018 42C40.0541 42 41.964 42 42 42C42 41.9583 42 41.4583 42 41.4167C41.964 41.4167 40.6306 41.4167 40.6306 41.4167V40.7292C40.6306 40.7292 41.4054 40.7292 41.4414 40.7292C41.4414 40.6875 41.4414 40.1875 41.4414 40.1458C41.4054 40.1458 40.6306 40.1458 40.6306 40.1458V39.5833C40.6306 39.5833 41.9279 39.5833 41.964 39.5833C41.964 39.5417 41.964 39.0417 41.964 39C41.9279 39 40.0541 39 40 39" fill="#231815"/>
<path d="M47.5 39C47.4167 39.2708 47.2667 39.375 47 39.4167C47 39.4583 47 39.7917 47 39.8333C47.0333 39.8333 47.4167 39.8333 47.4167 39.8333C47.4167 39.8333 47.4167 41.9583 47.4167 42C47.45 42 47.95 42 47.9833 42C47.9833 41.9583 48 39.0417 48 39C47.9667 39 47.5333 39 47.5167 39" fill="#231815"/>
<path d="M51.1603 39.86C51.1603 40.14 51.3893 40.3 51.5038 40.36L51.5954 40.4H51.6412L51.5954 40.44L51.5038 40.48C51.3893 40.52 51.0229 40.68 51 41.08C51 41.64 51.5725 42 52.4885 42C53.4046 42 54 41.66 54 41.1C54 40.7 53.6336 40.52 53.5191 40.48L53.3817 40.42L53.5191 40.34C53.771 40.2 53.8855 40.06 53.8855 39.84C53.8855 39.32 53.3817 39 52.5573 39C51.7328 39 51.2061 39.3 51.2061 39.82M51.9389 39.86C51.9389 39.86 51.9847 39.48 52.5343 39.5C52.9695 39.5 53.1298 39.7 53.1298 39.88C53.1298 40 53.0611 40.24 52.5343 40.24C51.9847 40.24 51.9389 39.96 51.9389 39.88M51.7786 41.08C51.7786 40.82 52.0534 40.66 52.5114 40.66C52.9695 40.66 53.2443 40.84 53.2443 41.1C53.2443 41.36 52.9695 41.54 52.5114 41.52C52.0534 41.52 51.7786 41.34 51.7786 41.08Z" fill="#231815"/>
<path d="M56.288 39C56.288 39 56.168 40.449 56.168 40.4694C56.216 40.4694 56.912 40.6939 56.936 40.6939C57.104 40.5918 57.296 40.5306 57.608 40.5306C57.968 40.5306 58.184 40.6939 58.184 40.9592C58.184 41.2653 57.944 41.4286 57.464 41.4286C57.128 41.4286 56.72 41.3265 56.336 41.1429C56.336 41.1429 56.024 41.6122 56 41.6531C56.456 41.8776 56.912 42 57.44 42C58.424 42 59 41.6327 59 40.9592C59 40.3469 58.568 40 57.8 40C57.416 40 57.224 40.0612 57.056 40.1224L56.936 40.1837L56.984 39.5714C56.984 39.5714 58.76 39.5714 58.808 39.5714C58.808 39.5306 58.808 39.0612 58.808 39.0204C58.76 39.0204 56.384 39.0204 56.336 39.0204" fill="#231815"/>
<path d="M61.5 39C61.4167 39.2708 61.2833 39.375 61 39.4167C61 39.4583 61 39.7917 61 39.8333C61.0333 39.8333 61.4167 39.8333 61.4167 39.8333C61.4167 39.8333 61.4167 41.9583 61.4167 42C61.45 42 61.95 42 61.9833 42C61.9833 41.9583 62 39.0417 62 39C61.9667 39 61.5333 39 61.5167 39" fill="#231815"/>
</svg>
