<svg width="160" height="50" viewBox="0 0 160 50" fill="none" xmlns="http://www.w3.org/2000/svg">
<path d="M63.7336 42.9054H64.7486V40.9177H66.6095C67.4976 40.9177 68.8932 40.9177 68.8932 39.3529C68.8932 37.7881 67.4553 37.7881 66.6095 37.7881H63.7336V42.9054ZM64.7486 40.0719V38.6763H66.8209C67.413 38.6763 67.9205 38.7186 67.9205 39.3952C67.9205 40.0719 67.413 40.1142 66.8209 40.1142H64.7486V40.0719Z" fill="#231815"/>
<path d="M70.1196 42.9054H71.1769L71.7267 41.7212H74.6871L75.2369 42.9054H76.2942L73.799 37.7881H72.6571L70.1196 42.9054ZM72.1496 40.9177L73.2069 38.634L74.2642 40.9177H72.1073H72.1496Z" fill="#231815"/>
<path d="M78.7896 42.9054H79.8046V40.8755H81.4116L82.9341 42.9054H84.1606L82.5958 40.8332C83.357 40.8332 84.0337 40.2834 84.0337 39.353C84.0337 38.0842 83.1456 37.8305 81.9191 37.8305H78.8318V42.9477L78.7896 42.9054ZM79.8046 40.0719V38.634H81.75C82.5535 38.634 82.9764 38.7609 82.9764 39.353C82.9764 39.945 82.5535 40.0719 81.75 40.0719H79.8046Z" fill="#231815"/>
<path d="M88.1783 37.8305H87.1633V42.9477H88.1783V37.8305Z" fill="#231815"/>
<path d="M95.2838 39.3529C95.1146 38.8877 94.6917 38.5071 93.4653 38.5071C92.7886 38.5071 92.112 38.6763 92.112 39.1415C92.112 39.3529 92.2388 39.6067 93.2538 39.6912L94.4803 39.8604C95.6221 40.0296 96.2988 40.4948 96.2988 41.3406C96.2988 42.5248 95.1569 42.99 93.7613 42.99C91.5622 42.99 91.0124 41.8904 90.8855 41.5098L91.8582 41.2137C92.0274 41.5944 92.408 42.1441 93.8036 42.1441C94.6494 42.1441 95.3261 41.8904 95.3261 41.4252C95.3261 41.0869 94.9455 40.8754 94.2265 40.7908L93.0001 40.6217C91.8159 40.4525 91.1392 39.945 91.1392 39.1837C91.1392 37.6613 93.1269 37.6613 93.5499 37.6613C95.749 37.6613 96.1296 38.6762 96.2565 39.0146L95.2838 39.3106V39.3529Z" fill="#231815"/>
<path d="M133.896 29.7951C134.319 33.3476 136.18 32.7978 136.264 33.0938H129.075C129.075 33.0938 131.147 33.0515 130.724 29.922L128.863 16.135C128.779 15.7544 128.779 15.3737 128.567 15.4583C128.44 15.5429 122.224 30.3872 122.224 30.3872C122.139 30.6409 121.97 30.7678 121.758 30.4295C121.631 30.1757 115.964 17.8689 115.964 17.8689C115.668 17.2346 115.203 16.2618 115.119 16.0927C114.992 15.7966 114.738 15.7544 114.78 16.7693L113.3 30.7678C112.962 33.2207 115.288 33.0092 115.245 33.1784H110.128C110.128 33.1784 111.82 33.3053 112.243 30.7255L113.934 15.2892C113.808 12.2865 111.693 12.4556 111.693 12.2019H117.022L117.106 12.371L122.773 24.6778C122.773 24.6778 122.9 24.8893 122.942 24.9739C123.112 25.3122 123.069 25.566 123.281 25.1008L128.863 12.2019H134.023C134.023 12.2019 131.951 12.3288 131.951 14.8662L133.854 29.8374L133.896 29.7951Z" fill="#231815"/>
<path d="M16.7056 32.4171H13.7875C12.7725 32.4171 11.5461 32.5863 11.5461 31.3598V15.1199C11.5461 12.6248 14.3373 12.5825 14.5488 12.4133H5.92134C5.92134 12.4133 8.54341 12.667 8.54341 15.2045V30.8946C8.50112 32.9669 5.58301 33.0092 5.58301 33.1361H20.8925L21.7383 28.6532C21.4 28.6532 21.6537 32.3748 16.7056 32.4171Z" fill="#231815"/>
<path d="M49.3124 30.9793C49.6084 33.5591 51.5961 32.9247 51.5961 33.1362H46.0559C46.0559 32.8824 48.2974 33.1362 48.2551 30.8101V15.0777C48.2551 12.3711 45.9291 12.3711 45.8445 12.1596H51.3847L62.8879 26.3272V14.824C62.761 12.0328 60.6465 12.2442 60.6042 12.1173H66.3981C66.3981 12.1173 64.1144 12.2865 63.9875 14.824V32.6287C63.9875 32.6287 64.1567 33.982 63.3531 32.9247C62.9725 32.4595 49.5238 15.5006 49.5238 15.5006C49.397 15.3738 49.3547 15.5007 49.3124 15.9236V30.7678V31.0216V30.9793Z" fill="#231815"/>
<path d="M30.6626 22.9439C30.1128 22.9439 30.1974 22.6056 30.4089 22.0981C30.4089 22.0981 32.312 17.4038 32.5234 16.854C32.8195 16.135 33.1155 16.2619 33.327 16.8963L35.2301 22.1827C35.3992 22.7748 35.653 22.9439 35.0186 22.9439C34.5111 22.9439 30.8741 22.9439 30.6626 22.9439ZM41.8698 30.5141L34.1305 12.2865C33.5807 11.6521 33.3693 12.3711 33.3693 12.3711C32.608 14.1473 25.5453 31.0639 25.5453 31.0639C24.5726 33.3053 23.3462 33.0516 23.3462 33.2207H28.3366C28.3366 32.967 25.6299 33.3899 26.5603 31.0216L29.2247 24.5087C29.5207 24.0858 29.5207 23.9589 30.1974 23.9589C31.297 23.9589 34.6803 23.9589 35.1878 23.9589C35.8222 23.9589 35.8222 23.9589 36.0759 24.551L38.6134 30.7256C39.3323 33.1785 37.0909 33.0516 37.1332 33.2207H44.2381C44.3227 33.0093 43.1386 33.7282 41.8698 30.5564" fill="#231815"/>
<path d="M107.336 11.1446L98.8355 7L90.335 11.1446L98.8355 8.56479L107.336 11.1446Z" fill="#231815"/>
<path d="M98.8354 32.3749H98.7509C94.6909 32.3749 91.9842 28.5686 91.9842 22.6478C91.9842 15.8812 94.7332 12.5825 98.7932 12.5825C102.853 12.5825 105.644 15.8812 105.644 22.6478C105.644 28.5264 102.853 32.3326 98.7932 32.3749M98.8777 11.779C92.238 11.779 87.9666 17.0231 87.9666 22.6056C87.9666 28.188 92.1957 33.1361 98.7932 33.1361C105.391 33.1361 109.747 28.1457 109.747 22.6056C109.747 17.0654 105.475 11.779 98.8354 11.779" fill="#231815"/>
<path d="M78.6634 32.3326C83.4423 32.248 85.5991 28.9493 86.0221 28.8224C86.2335 28.7379 83.696 33.1362 78.6211 33.1362C67.2024 33.1362 67.4138 22.8594 67.4138 22.8594C67.7522 15.6275 73.6307 11.3561 79.2977 11.9482C80.8202 12.1173 81.4546 12.3288 82.5965 12.7094C83.104 12.8786 84.4996 13.6398 85.0917 13.4284C85.4723 13.3015 85.7683 12.4557 85.8529 12.4134V18.0381C85.5146 18.0381 84.2458 12.6248 78.7902 12.6248C74.3496 12.6248 70.9663 17.6998 71.0086 22.6479C71.1355 30.937 76.9294 32.4172 78.7056 32.3749" fill="#231815"/>
<path d="M143.75 22.817V27.9766V30.6832C143.75 32.248 143.623 32.4595 144.638 32.4595H150.305C151.7 32.3749 152.589 32.0365 153.138 31.5713C154.449 30.5563 154.153 28.9916 154.407 28.9493L154.28 33.1361H138.379C138.379 33.1361 140.747 33.3899 140.747 29.922V15.416C140.747 11.9481 138.506 12.4979 138.548 12.2019H154.28L154.407 16.3464C154.111 16.3464 154.915 13.09 150.263 12.794H145.018C144.13 12.794 143.75 12.794 143.75 14.5279V19.0108V19.9835C143.75 20.7447 143.75 20.8293 144.849 20.8293H149.882C152.419 20.8293 152.081 18.5456 152.293 18.5456V23.9589C152.081 23.9589 152.419 21.4637 149.967 21.5483H144.849C143.707 21.5483 143.707 21.9289 143.707 22.6901V22.7747L143.75 22.817Z" fill="#231815"/>
</svg>
