<svg width="112" height="51" viewBox="0 0 112 51" fill="none" xmlns="http://www.w3.org/2000/svg">
<path d="M53.7184 43.2861C52.1293 43.1944 49.6233 43.1333 46.17 43.1333C42.7167 43.1333 40.0274 43.1944 38.041 43.2861V42.0025C39.7218 42.1248 42.35 42.2164 45.895 42.2164C49.44 42.2164 52.0376 42.1553 53.7184 42.0025V43.2861ZM46.6284 32.3761C47.912 30.6036 48.7982 29.0756 49.2566 27.792C49.7456 28.1282 50.1429 28.3115 50.3873 28.4032C50.6318 28.4949 50.7541 28.556 50.7541 28.6172C50.7541 28.6783 50.6929 28.7394 50.5401 28.8005C50.2651 28.8922 49.8984 29.2895 49.44 29.9618C48.9816 30.6647 48.4315 31.4592 47.7592 32.3761C49.8678 32.3761 51.4875 32.3149 52.5571 32.1927V33.4151C51.3958 33.3234 49.0121 33.2623 45.406 33.2623C41.7999 33.2623 39.6607 33.3234 38.9578 33.4151V32.1927C40.0274 32.3149 41.6166 32.3761 43.7252 32.3761H46.659H46.6284ZM50.9069 37.7547C49.9289 37.6935 48.2481 37.663 45.895 37.663C43.5419 37.663 41.7388 37.7241 40.4858 37.8158V36.5628C41.5554 36.685 43.2974 36.7156 45.7422 36.7156C48.187 36.7156 49.8984 36.6545 50.9069 36.5628V37.7241V37.7547ZM44.7948 31.3676L43.7558 32.0399C43.0223 30.8786 42.1055 29.7784 41.0054 28.8005L41.7694 28.0365C42.839 29.0144 43.8475 30.1146 44.7948 31.3676Z" fill="#79A3DC"/>
<path d="M53.8406 43.4389H53.6878C52.0987 43.3472 49.6233 43.2861 46.17 43.2861C42.7167 43.2861 39.9968 43.3472 38.041 43.4389H37.8882V41.8497H38.041C39.7218 42.0025 42.35 42.0637 45.895 42.0637C49.4399 42.0637 52.0681 42.0025 53.7184 41.8497H53.8712V43.4389H53.8406ZM38.1632 42.1553V43.1638C40.1191 43.0721 42.8084 43.011 46.17 43.011C49.5316 43.011 51.9764 43.0416 53.5656 43.1333V42.1248C51.9153 42.247 49.3177 42.3081 45.8644 42.3081C42.4111 42.3081 39.8135 42.247 38.1327 42.1248L38.1632 42.1553ZM40.3636 37.9991V36.4711H40.5164C41.586 36.5934 43.3279 36.6545 45.7422 36.6545C48.1564 36.6545 49.8984 36.5934 50.9068 36.5017H51.0596V37.938H50.9068C49.9289 37.8769 48.2481 37.8463 45.9255 37.8463C43.6029 37.8463 41.7693 37.9075 40.5164 37.9991H40.3636ZM40.6386 36.7462V37.6935C41.8916 37.6019 43.6641 37.5407 45.9255 37.5407C48.187 37.5407 49.7761 37.5407 50.7846 37.6324V36.7462C49.7456 36.8379 48.0647 36.899 45.7422 36.899C43.4196 36.899 41.7082 36.8379 40.6386 36.7462ZM38.805 33.5679V32.0399H38.9578C40.0274 32.1927 41.6165 32.2538 43.7252 32.2538L43.6641 32.1621C42.9306 31.0009 42.0138 29.9313 40.9136 28.9228L40.822 28.8311L41.7693 27.8837L41.861 27.9754C42.9306 28.9228 43.9697 30.0535 44.917 31.3065L45.0087 31.4287L43.7557 32.2538H46.5673C47.8203 30.5424 48.6759 29.0144 49.1343 27.7615L49.1955 27.6087L49.3483 27.7004C49.8372 28.006 50.204 28.2199 50.4484 28.3116C50.6929 28.4032 50.9068 28.4949 50.9068 28.6477C50.9068 28.77 50.8152 28.8922 50.6012 28.9533C50.4484 29.0144 50.1428 29.2284 49.5927 30.084C49.1649 30.7258 48.6454 31.4593 48.0647 32.2844C50.0206 32.2844 51.5486 32.2233 52.5876 32.101H52.7405V33.5985H52.5876C51.4264 33.4762 49.0732 33.4457 45.4366 33.4457C41.7999 33.4457 39.6912 33.5068 38.9884 33.5985H38.8355L38.805 33.5679ZM45.3754 33.1401C48.8899 33.1401 51.1819 33.1706 52.4043 33.2623V32.3455C51.3041 32.4677 49.7456 32.4983 47.7286 32.4983H47.4535L47.6063 32.2844C48.2787 31.3676 48.8287 30.573 49.2871 29.8701C49.7761 29.1367 50.1428 28.7394 50.4484 28.6477C50.479 28.6477 50.5096 28.6477 50.5401 28.6172C50.5096 28.6172 50.4179 28.556 50.2956 28.5255C50.0511 28.4644 49.715 28.281 49.2871 28.006C48.8287 29.2589 47.9425 30.7869 46.7201 32.4677V32.5289H43.6946C41.6776 32.5289 40.1191 32.4677 39.0495 32.3761V33.2929C39.8746 33.2012 41.9527 33.1706 45.3754 33.1706V33.1401ZM41.1887 28.8005C42.2277 29.7479 43.0834 30.7869 43.7863 31.8565L44.5809 31.337C43.6946 30.1757 42.7473 29.1367 41.7388 28.2199L41.1887 28.77V28.8005Z" fill="#79A3DC"/>
<path d="M68.9071 29.9007C70.7102 29.9007 72.2382 29.8396 73.4301 29.7479V30.9398C72.2382 30.8481 70.7102 30.787 68.9071 30.787V32.6511H67.8375V30.787H63.6202V32.8345H62.5812V30.787C60.7781 30.787 59.2807 30.8481 58.1194 30.9398V29.7479C59.3112 29.8396 60.7781 29.9007 62.5812 29.9007C62.5812 28.9228 62.5201 28.2505 62.4589 27.8532C62.9479 27.9143 63.3146 27.9449 63.5591 27.9449C63.8036 27.9449 63.9258 27.9754 63.9258 28.0366C63.9258 28.0977 63.8647 28.1588 63.773 28.2505C63.6508 28.3422 63.5897 28.5255 63.5897 28.8006V29.9007H67.807C67.807 28.8617 67.7764 28.1588 67.6847 27.8226C68.1126 27.8838 68.5404 27.9449 68.9683 27.9449C69.0905 27.9449 69.1516 27.9449 69.1516 28.0366C69.1516 28.1282 69.1211 28.1588 69.0599 28.1894C68.9377 28.281 68.8766 28.4644 68.8766 28.7394V29.9313L68.9071 29.9007ZM74.0107 41.7887C73.7357 42.3082 73.6134 42.7971 73.6134 43.225C72.666 43.225 71.627 43.225 70.4963 43.225C69.3655 43.225 68.3876 43.1944 67.5014 43.1027C66.6457 43.0416 65.9428 42.9194 65.4233 42.7666C64.9038 42.6138 64.3537 42.3387 63.7425 41.972C63.1313 41.6053 62.6423 41.4219 62.3061 41.4219C61.97 41.4219 61.5727 41.5747 61.206 41.8498C60.8392 42.1248 60.3197 42.5832 59.678 43.2555C59.464 42.8277 59.0973 42.461 58.6389 42.2165C60.0447 41.1774 61.2671 40.4134 62.3061 39.9856C63.9258 39.2827 65.2705 38.5493 66.3706 37.8464C67.4402 37.1435 68.3876 36.3489 69.2127 35.4932H63.8341C61.8783 35.4932 60.442 35.5544 59.5557 35.6766V34.4848C59.9224 34.5459 61.8477 34.5764 65.3622 34.5764C68.8766 34.5764 70.9852 34.4848 71.627 34.332V35.371C71.0769 35.371 70.4352 35.7377 69.7017 36.4101C68.9988 37.0824 68.0209 37.8158 66.7679 38.6409C65.5455 39.4661 64.3537 40.1078 63.2229 40.6274C63.9564 41.0552 64.7815 41.3914 65.6983 41.6664C66.6151 41.9415 67.8375 42.0637 69.3655 42.0637C70.8936 42.0637 72.4216 41.9415 73.9801 41.697L74.0107 41.7887ZM66.9513 33.8736L66.065 34.4236C65.6066 33.5985 64.9954 32.8651 64.262 32.2233L65.0566 31.7038C65.6678 32.2844 66.3095 33.0179 66.9207 33.8736H66.9513Z" fill="#79A3DC"/>
<path d="M59.6166 43.5L59.5249 43.3472C59.311 42.9193 58.9748 42.6137 58.547 42.3693L58.3636 42.2776L58.547 42.1553C59.9527 41.1163 61.2057 40.3523 62.2447 39.8939C63.8644 39.191 65.2091 38.4576 66.2787 37.7852C67.2566 37.1435 68.1429 36.4406 68.8763 35.6766H63.8339C61.878 35.6766 60.4417 35.7377 59.5554 35.8599H59.4026V34.3625H59.5554C59.8916 34.4542 61.8475 34.4847 65.3313 34.4847C65.5452 34.4847 65.7286 34.4847 65.9425 34.4847C65.4841 33.6902 64.8729 32.9567 64.17 32.3149L64.0478 32.1927L65.0868 31.5204L65.148 31.5815C65.7592 32.1927 66.4009 32.9261 67.0427 33.7818L67.1344 33.9041L66.187 34.4847C69.1819 34.4847 70.985 34.393 71.5962 34.2708H71.749V35.5543H71.6267C71.1072 35.5543 70.496 35.9211 69.7931 36.5628C69.0902 37.2351 68.0817 37.9991 66.8593 38.7937C65.698 39.5577 64.5979 40.1995 63.5588 40.6884C64.2312 41.0552 64.9646 41.3608 65.7897 41.6053C66.676 41.8803 67.8984 42.0025 69.3958 42.0025C70.8933 42.0025 72.4519 41.8803 73.9799 41.6358H74.2549L74.1327 41.8192C73.8576 42.3081 73.7354 42.7971 73.7354 43.1944V43.3166H73.6131C72.6658 43.3166 71.6573 43.3166 70.496 43.3166C69.3347 43.3166 68.3568 43.2861 67.5011 43.1944C66.6149 43.1333 65.912 43.011 65.3924 42.8277C64.8729 42.6749 64.2923 42.3998 63.6811 42.0331C63.1004 41.6969 62.642 41.5136 62.3059 41.5136C61.9697 41.5136 61.6335 41.6358 61.2974 41.9109C60.9307 42.1859 60.4111 42.6443 59.7999 43.2861L59.6777 43.4083L59.6166 43.5ZM62.2753 41.3302C62.642 41.3302 63.1615 41.5136 63.8033 41.8803C64.4145 42.247 64.9646 42.4915 65.4536 42.6443C65.9425 42.7971 66.6454 42.9193 67.5011 42.9805C68.3568 43.0416 69.3653 43.0721 70.4654 43.0721C71.5656 43.0721 72.5435 43.0721 73.4603 43.0721C73.4603 42.736 73.5826 42.3387 73.7659 41.9414C72.2991 42.1553 70.8322 42.2776 69.3958 42.2776C67.8678 42.2776 66.6149 42.1248 65.698 41.8497C64.7812 41.5747 63.9256 41.208 63.1921 40.8107L62.9782 40.6884L63.2227 40.5662C64.3228 40.0467 65.5147 39.3744 66.7371 38.5798C67.9595 37.7852 68.9374 37.0212 69.6403 36.3795C70.3126 35.7377 70.9544 35.371 71.5045 35.3098V34.5458C70.6794 34.6681 68.6624 34.7598 65.3619 34.7598C62.0614 34.7598 60.2889 34.7598 59.6777 34.6681V35.5543C60.5945 35.4321 62.0003 35.371 63.8339 35.371H69.5181L69.3042 35.5849C68.479 36.4406 67.5317 37.2657 66.4315 37.9686C65.3619 38.6715 63.9867 39.3744 62.367 40.1078C61.3891 40.5356 60.2278 41.2385 58.8831 42.2165C59.2193 42.4304 59.4943 42.7054 59.7082 43.0416C60.2889 42.4609 60.7473 42.0025 61.114 41.7581C61.5113 41.4524 61.9086 41.2996 62.3059 41.2996L62.2753 41.3302ZM64.4756 32.2233C65.1174 32.8345 65.6675 33.5068 66.1259 34.2097L66.7677 33.8124C66.187 33.0484 65.6369 32.3761 65.0563 31.826L64.4756 32.1927V32.2233ZM63.7728 32.9567H62.4587V30.9092C60.7473 30.9092 59.2804 30.9703 58.1191 31.062H57.9663V29.5951H58.1191C59.2498 29.6868 60.7167 29.7479 62.4587 29.7479C62.4587 28.8616 62.3975 28.2199 62.367 27.8532V27.6698H62.5198C63.0087 27.7309 63.3755 27.7615 63.62 27.7615C63.7728 27.7615 64.1395 27.7615 64.1395 28.006C64.1395 28.1282 64.0784 28.2199 63.9561 28.3116C63.8339 28.4032 63.8033 28.5866 63.8033 28.77V29.7173H67.7456C67.7456 28.77 67.715 28.1282 67.6539 27.792V27.6087L67.8067 27.6392C68.204 27.7004 68.6318 27.7309 69.0597 27.7309C69.3347 27.7309 69.3653 27.9143 69.3653 27.9448C69.3653 28.006 69.3653 28.1282 69.2125 28.2199C69.1208 28.281 69.0597 28.4338 69.0597 28.6783V29.7173C70.8016 29.7173 72.2685 29.6562 73.4298 29.5645H73.5826V31.0314H73.4298C72.2685 30.9397 70.771 30.8786 69.0597 30.8786V32.7428H67.7456V30.8786H63.8033V32.9262L63.7728 32.9567ZM62.7337 32.6817H63.4977V30.6341H67.9901V32.4983H68.7846V30.6341H68.9069C70.6182 30.6341 72.1157 30.6647 73.3075 30.7564V29.8701C72.1157 29.9618 70.6488 29.9924 68.9069 29.9924H68.7846V28.6783C68.7846 28.3421 68.8763 28.1282 69.0291 28.006C68.6624 28.006 68.2651 28.006 67.8984 27.9143C67.9595 28.3116 67.9901 28.9533 67.9901 29.8396V29.9618H63.4977V28.7394C63.4977 28.4032 63.5894 28.1893 63.7422 28.0671C63.7422 28.0671 63.7727 28.0365 63.8033 28.006C63.7727 28.006 63.6811 28.006 63.5894 28.006C63.3449 28.006 63.0393 28.006 62.642 27.9143C62.6726 28.3421 62.7031 28.9533 62.7337 29.809V29.9313H62.6115C60.9001 29.9313 59.4332 29.9007 58.2719 29.809V30.6953C59.4332 30.6036 60.9001 30.573 62.6115 30.573H62.7337V32.6205V32.6817Z" fill="#79A3DC"/>
<path d="M71.5651 7.74445H69.7314V22.9634H71.5651V7.74445Z" fill="#79A3DC"/>
<path d="M17.4128 21.3438C17.4128 21.3438 17.1989 21.8327 16.8627 22.2911C16.5571 22.7495 16.3432 22.994 15.6708 22.994H8.18359V8.44735C8.18359 8.08062 8.48919 7.77502 8.85592 7.77502H10.0172V21.3132H17.4128V21.3438Z" fill="#79A3DC"/>
<path d="M38.1938 7.77509V22.9941H40.0275V12.2063C40.0275 12.2063 48.1565 22.6579 48.187 22.6885C48.187 22.6885 48.4315 22.9635 48.8899 22.9635H49.1038V7.77509H47.3314V19.1129L38.5911 7.65284C38.5911 7.65284 38.2244 7.59173 38.2244 7.77509H38.1938Z" fill="#79A3DC"/>
<path d="M27.1922 11.5034C27.1922 11.5034 31.6846 22.3217 31.8068 22.5662C31.8985 22.8107 32.1735 22.994 32.418 22.994H33.7627L27.4062 7.71391C27.345 7.53055 27.07 7.53055 27.0089 7.71391L20.6523 22.994H21.997C22.272 22.994 22.5165 22.8107 22.6082 22.5662C22.6999 22.3217 27.2228 11.5034 27.2228 11.5034H27.1922Z" fill="#79A3DC"/>
<path d="M54.5433 7.77501H64.2003C64.2003 7.77501 63.9864 8.26397 63.6502 8.72237C63.3446 9.18078 63.1307 9.42526 62.4584 9.42526H56.3463V14.4371H63.2529V15.8735H56.3463V21.3132H62.4278C63.0696 21.3132 63.2835 21.5577 63.6196 22.0161C63.9252 22.4745 64.1697 22.9634 64.1697 22.9634H54.5127V7.74445H64.2003" fill="#79A3DC"/>
<path d="M88.9234 11.5951C88.6484 10.556 87.9761 9.51698 87.1204 8.81409C86.0508 7.92784 84.7367 7.5 83.1781 7.5C81.2528 7.5 79.6942 8.23344 78.5329 9.66977C77.3717 11.1061 76.791 13.0314 76.791 15.4151C76.791 17.7988 77.3717 19.7546 78.5329 21.191C79.6942 22.6273 81.2528 23.3607 83.2087 23.3607C85.0117 23.3607 86.4786 22.7801 87.5788 21.6494C88.6789 20.5187 89.229 19.0518 89.229 17.1265V15.1401H85.1951C84.5533 15.1401 84.3394 15.3845 84.0032 15.8429C83.6976 16.2708 83.4531 16.5764 83.4531 16.5764H87.3954V17.1265C87.3954 18.5322 87.0287 19.6018 86.2647 20.3964C85.5007 21.191 84.5228 21.5577 83.2087 21.5577C81.8335 21.5577 80.7639 21.0687 79.9387 20.0602C79.0525 18.9601 78.5941 17.4015 78.5941 15.4151C78.5941 13.4287 79.0525 11.9312 79.9387 10.8005C80.7639 9.79202 81.8029 9.30305 83.1781 9.30305C84.3088 9.30305 85.2256 9.60865 85.9591 10.1893C86.2647 10.4338 86.662 11.0144 86.7231 11.0755C86.9676 11.3811 87.2121 11.5645 87.5788 11.5645H88.9234V11.5951Z" fill="#79A3DC"/>
<path d="M94.1499 7.77501H103.807C103.807 7.77501 103.593 8.26397 103.257 8.72237C102.951 9.18078 102.737 9.42526 102.065 9.42526H95.953V14.4371H102.86V15.8735H95.953V21.3132H102.034C102.676 21.3132 102.89 21.5577 103.226 22.0161C103.532 22.4745 103.776 22.9634 103.776 22.9634H94.1194V7.74445H103.807" fill="#79A3DC"/>
</svg>
