<svg width="86" height="51" viewBox="0 0 86 51" fill="none" xmlns="http://www.w3.org/2000/svg">
<path d="M42.8451 21.5C43.0366 21.5 43.2495 21.5 43.4198 21.5213C43.739 21.5851 44.0157 21.7128 44.3137 21.8406C44.5053 21.9257 44.6756 22.0108 44.8671 22.1173C45.3141 22.3301 45.7824 22.5642 46.2293 22.7771C48.4855 23.8626 50.7417 24.9481 52.9766 26.0549C53.6364 26.3742 54.275 26.6935 54.9348 27.0127C55.2115 27.1404 55.4669 27.2681 55.7436 27.3959C55.5307 27.0766 55.3392 26.7573 55.2115 26.3955C54.8071 25.161 55.2966 23.9477 56.1906 23.1389C56.6163 22.7345 57.1271 22.4578 57.6379 22.2237C57.9785 22.0747 58.3616 21.947 58.7234 21.8618C58.8299 21.8406 58.9576 21.798 59.0853 21.798C59.1066 21.798 59.1704 21.798 59.1917 21.798C59.1917 21.798 59.2343 21.798 59.2556 21.798C59.2768 21.798 59.2981 21.798 59.3194 21.798C59.3407 21.798 59.362 21.798 59.3833 21.798C59.4046 21.798 59.4258 21.798 59.4471 21.798C59.4684 21.798 59.511 21.798 59.5323 21.798C59.5535 21.798 59.5961 21.798 59.6174 21.798C59.6387 21.798 59.6813 21.798 59.7238 21.798C59.7451 21.798 59.7877 21.798 59.8302 21.798C59.8728 21.798 59.9367 21.798 59.9792 21.798C60.0431 21.7767 60.1282 21.798 60.2134 21.798C60.2772 21.7767 60.5114 21.798 60.5965 21.798H77.9861C78.3053 21.798 78.6459 21.798 78.9013 21.9044C79.5611 22.1598 79.6037 22.8835 78.9439 23.2028C78.6885 23.3305 78.3905 23.3092 78.0499 23.3092H61.384C60.937 23.3092 60.4688 23.3092 60.0431 23.3092C59.5961 23.3305 59.1491 23.4156 58.7447 23.5433C58.2978 23.671 57.8933 23.8626 57.5102 24.1393C56.8504 24.6076 56.3183 25.4589 56.7653 26.289C56.893 26.5232 57.042 26.7147 57.2335 26.9063C57.4677 27.1192 57.7231 27.2681 57.9998 27.4171C58.17 27.5236 58.3829 27.5874 58.5745 27.6513C59.0853 27.8215 59.5748 27.9067 60.1495 27.9493H78.0499C78.5395 27.9493 79.029 27.9493 79.2844 28.3749C79.3696 28.5239 79.4121 28.7155 79.3483 28.8858C79.2419 29.2476 78.8375 29.4179 78.4969 29.4605C78.3053 29.4605 78.1138 29.4605 77.9222 29.4605H74.0058C69.3019 29.4605 64.7683 29.4605 60.0644 29.4605C59.4046 29.4605 58.7873 29.3115 58.2126 29.1412C58.0211 29.0773 57.8295 29.0135 57.6379 28.9283C57.5741 28.9071 57.5102 28.8645 57.4464 28.8432C57.6379 29.2689 57.1697 29.4817 56.8291 29.5243C56.6163 29.5243 56.4247 29.5243 56.2544 29.4605C55.2328 28.9709 54.2324 28.4814 53.2107 27.9918C52.9127 27.8428 52.5935 27.6938 52.2955 27.5448C52.2103 27.5023 52.1252 27.4384 52.0401 27.4384C46.2932 27.4384 40.5463 27.4384 34.7995 27.4384C34.8208 27.4384 34.8633 27.3959 34.8846 27.3959C34.9698 27.3533 35.0336 27.3107 35.1188 27.2894C35.3316 27.183 35.5444 27.0766 35.7573 26.9914C36.2256 26.7573 36.6938 26.5232 37.1621 26.3103C37.3111 26.2252 37.4814 26.1613 37.6303 26.0762C37.6729 26.0762 37.7155 26.0336 37.7793 26.0124C37.8432 26.0124 37.9283 26.0124 37.9922 26.0124H48.0598C48.3578 26.0124 48.6558 26.0124 48.9538 26.0124C48.9538 26.0124 48.9538 26.0124 48.9751 26.0124C48.9751 26.0124 48.5707 25.7995 48.5281 25.7782C48.0598 25.5441 47.6129 25.3312 47.1446 25.1184C46.1442 24.6288 45.1438 24.1606 44.1435 23.671C43.8455 23.522 43.5688 23.3943 43.2921 23.2453C43.2069 23.2028 43.0579 23.0963 42.9728 23.0963C42.8877 23.0963 42.7387 23.2028 42.6535 23.2453C42.313 23.4156 41.9724 23.5646 41.6319 23.7349C38.4179 25.2887 35.2039 26.8637 31.9686 28.4175C31.4365 28.6729 30.9257 28.9283 30.3936 29.1625C30.2659 29.2263 30.1169 29.2902 29.9891 29.354C29.8402 29.4392 29.6912 29.503 29.5209 29.5456C29.2016 29.6095 28.7972 29.5669 28.5844 29.354C28.5205 29.3115 28.4779 29.2263 28.4567 29.1625C28.4141 29.0135 28.4354 28.8432 28.4354 28.6729V23.2666C25.3491 24.5863 22.2415 25.9059 19.1553 27.2043C19.0275 27.2469 18.9211 27.3107 18.7934 27.332C18.4316 27.4171 17.9633 27.4384 17.6015 27.332C17.3461 27.2681 17.1332 27.1404 16.8778 27.0553C16.6862 26.9702 16.4734 26.885 16.2818 26.7999C16.2818 26.7999 16.2393 26.7999 16.2393 26.7786C16.2393 26.7786 16.3882 26.7147 16.4521 26.6722C16.6224 26.6083 16.7927 26.5232 16.9417 26.4593C17.6015 26.1826 18.2613 25.9059 18.8998 25.6292C20.9432 24.7566 22.9652 23.9052 24.9873 23.0538C25.7535 22.7345 26.5198 22.4152 27.286 22.0747C27.4563 22.0108 27.6266 21.9257 27.7968 21.8618C27.9671 21.798 28.1161 21.7128 28.3077 21.7128C28.3077 21.7128 28.3502 21.7128 28.3715 21.7128C28.3928 21.7128 28.4354 21.7128 28.4779 21.7128C28.5418 21.6916 28.6269 21.7128 28.7121 21.7128C29.1378 21.7128 29.755 21.8831 29.904 22.3088C29.9466 22.4578 29.9253 22.6707 29.9253 22.8409V27.6726C29.9253 27.6726 30.0956 27.5874 30.1807 27.5448C30.3723 27.4384 30.5851 27.3533 30.7767 27.2469C31.4152 26.9276 32.075 26.6296 32.7136 26.3103C34.8421 25.2674 36.9918 24.2457 39.1203 23.2028C39.8652 22.8409 40.6102 22.4791 41.3552 22.1173C41.6319 21.9895 41.9298 21.8193 42.2278 21.7128C42.3343 21.6916 42.4407 21.649 42.5471 21.649C42.5684 21.649 42.5897 21.649 42.611 21.649C42.6322 21.649 42.6748 21.649 42.6961 21.649" fill="#231815"/>
<path d="M7.61903 21.5851C7.89573 21.5851 8.15114 21.5851 8.38527 21.6489C8.4917 21.6702 8.57684 21.7128 8.66197 21.7554C8.87482 21.8405 9.10895 21.9469 9.3218 22.0321C9.66235 22.1811 10.0242 22.33 10.386 22.479C12.1101 23.2027 13.8341 23.9477 15.5582 24.6714C16.1329 24.9055 16.7076 25.1609 17.3035 25.4163C17.4313 25.4802 17.5802 25.5227 17.708 25.5866C17.7505 25.6079 17.8357 25.6505 17.8995 25.6505C17.3887 25.8846 16.8779 26.0974 16.3883 26.3103C16.2819 26.3528 16.1755 26.3954 16.069 26.438C16.0265 26.438 15.9839 26.4806 15.9626 26.4806C15.92 26.4806 15.8775 26.4593 15.8349 26.438C15.7285 26.3954 15.6433 26.3528 15.5369 26.3103C15.0899 26.1187 14.6217 25.9272 14.1747 25.7356C12.7273 25.1183 11.3013 24.5224 9.85392 23.9051C9.40694 23.7135 8.93868 23.522 8.4917 23.3304C8.38527 23.2879 8.27885 23.2453 8.17243 23.2027C8.12986 23.2027 8.10857 23.1814 8.08729 23.1601V28.5452C8.08729 28.6942 8.10857 28.9283 8.066 29.056C7.9383 29.3753 7.40618 29.4817 7.08691 29.3966C6.91663 29.354 6.72507 29.2688 6.63993 29.0986C6.57608 28.9709 6.59736 28.7793 6.59736 28.6303V22.6706C6.59736 22.5216 6.57608 22.3088 6.61865 22.1811C6.72507 21.8831 7.06562 21.7128 7.34233 21.6489C7.40618 21.6489 7.49132 21.6064 7.57646 21.6064C7.61903 21.6064 7.64031 21.6064 7.68288 21.6064" fill="#231815"/>
<path d="M32.8841 23.671C33.1395 23.671 33.3523 23.671 33.5652 23.7136C33.9696 23.7774 34.6294 24.0967 34.2676 24.6075C34.2037 24.6927 34.076 24.7565 33.9909 24.8204C33.5226 25.0545 32.7989 25.0758 32.2881 24.9055C32.0753 24.8417 31.8624 24.7353 31.756 24.5224C31.7134 24.4586 31.6921 24.3734 31.7134 24.2883C31.7773 24.0116 32.0966 23.8626 32.3307 23.7774C32.4158 23.7562 32.5222 23.7136 32.6074 23.7136C32.6074 23.7136 32.65 23.7136 32.6712 23.7136C32.6925 23.7136 32.7351 23.7136 32.7564 23.7136C32.7989 23.7136 32.8415 23.7136 32.8841 23.7136" fill="#231815"/>
<path d="M52.9129 23.671C53.3599 23.671 53.7856 23.7136 54.1262 23.9264C54.2326 23.9903 54.3177 24.0754 54.3816 24.2031C54.4454 24.3521 54.3816 24.5224 54.2964 24.6288C53.8495 25.1609 52.168 25.1609 51.8061 24.5437C51.5507 24.1393 52.0616 23.8626 52.3595 23.7774C52.4447 23.7349 52.5511 23.7136 52.6575 23.7136C52.6575 23.7136 52.7001 23.7136 52.7214 23.7136C52.7427 23.7136 52.7639 23.7136 52.8065 23.7136C52.8491 23.7136 52.8917 23.7136 52.9342 23.7136" fill="#231815"/>
</svg>
