<svg width="50" height="51" viewBox="0 0 50 51" fill="none" xmlns="http://www.w3.org/2000/svg">
<path d="M12.3601 16.92L9.91009 22.29L7.54009 16.92L6.09009 24.35H7.16009L7.91009 20.18L9.89009 24.67L11.9301 20.18L12.6001 24.35H13.6701L12.3601 16.92Z" fill="#1C1C1B"/>
<path d="M17.38 19.34L18.4 21.69H16.3L17.37 19.34H17.38ZM13.99 24.35H15.11L15.88 22.67H18.84L19.56 24.35H20.7L17.4 17.01L13.98 24.35H13.99Z" fill="#1C1C1B"/>
<path d="M22.04 20.2L24.73 17.44H26.12L23 20.57L26.14 24.35H24.74L22.26 21.28L22.04 21.49V24.35H21V17.44H22.04V20.2Z" fill="#1C1C1B"/>
<path d="M30.4201 18.42H27.6501V20.08H30.3401V21.06H27.6501V23.37H30.4201V24.35H26.6101V17.44H30.4201V18.42Z" fill="#1C1C1B"/>
<path d="M34.74 17.44V21.6C34.74 22.19 34.8399 22.63 35.0299 22.9C35.3199 23.3 35.73 23.5 36.25 23.5C36.77 23.5 37.1899 23.3 37.4799 22.9C37.6699 22.63 37.77 22.2 37.77 21.6V17.44H38.81V21.89C38.81 22.62 38.58 23.22 38.13 23.69C37.62 24.22 36.99 24.48 36.25 24.48C35.51 24.48 34.88 24.22 34.38 23.69C33.93 23.22 33.7 22.62 33.7 21.89V17.44H34.74Z" fill="#1C1C1B"/>
<path d="M41.05 20.58H41.44C42.4 20.58 42.88 20.21 42.88 19.47C42.88 18.73 42.39 18.4 41.4 18.4H41.06V20.57L41.05 20.58ZM41.05 21.55V24.36H40.01V17.45H41.19C41.77 17.45 42.21 17.49 42.5 17.57C42.8 17.65 43.06 17.8 43.29 18.03C43.69 18.42 43.88 18.91 43.88 19.5C43.88 20.13 43.67 20.63 43.25 21C42.83 21.37 42.26 21.55 41.54 21.55H41.06H41.05Z" fill="#1C1C1B"/>
<path d="M6.13989 24.87V31.78H7.18989V28.49H9.50989V27.51H7.18989V25.85H9.58989V24.87H6.13989Z" fill="#1C1C1B"/>
<path d="M10.9001 28.3C10.9001 29.06 11.1601 29.69 11.6701 30.18C12.1801 30.67 12.7701 30.92 13.4401 30.92C14.1601 30.92 14.7801 30.67 15.2701 30.17C15.7701 29.66 16.0201 29.05 16.0201 28.32C16.0201 27.59 15.7701 26.97 15.2801 26.47C14.7901 25.97 14.1901 25.72 13.4601 25.72C12.7301 25.72 12.1301 25.97 11.6401 26.47C11.1501 26.97 10.9001 27.58 10.9001 28.3ZM9.8501 28.29C9.8501 27.32 10.2101 26.48 10.9201 25.78C11.6301 25.08 12.4801 24.73 13.4801 24.73C14.4801 24.73 15.3101 25.08 16.0101 25.79C16.7201 26.49 17.0701 27.34 17.0701 28.33C17.0701 29.32 16.7201 30.17 16.0101 30.86C15.3001 31.56 14.4401 31.9 13.4301 31.9C12.5401 31.9 11.7401 31.59 11.0301 30.97C10.2501 30.29 9.8601 29.39 9.8601 28.28" fill="#1C1C1B"/>
<path d="M18.5901 28.04H18.9201C19.9101 28.04 20.4001 27.66 20.4001 26.91C20.4001 26.2 19.9201 25.85 18.9601 25.85H18.5901V28.04ZM19.8901 28.83L22.0301 31.77H20.7601L18.7901 28.94H18.6001V31.77H17.5601V24.86H18.7801C19.6901 24.86 20.3501 25.03 20.7601 25.37C21.2101 25.75 21.4301 26.26 21.4301 26.88C21.4301 27.37 21.2901 27.79 21.0101 28.14C20.7301 28.49 20.3601 28.72 19.9001 28.82" fill="#1C1C1B"/>
<path d="M28.6201 25.85H25.8501V27.51H28.5401V28.49H25.8501V30.8H28.6201V31.78H24.8101V24.87H28.6201V25.85Z" fill="#1C1C1B"/>
<path d="M29.88 24.87L31.79 29.66L33.73 24.87H34.87L31.77 32.3L28.74 24.87H29.88Z" fill="#1C1C1B"/>
<path d="M38.83 25.85H36.06V27.51H38.75V28.49H36.06V30.8H38.83V31.78H35.02V24.87H38.83V25.85Z" fill="#1C1C1B"/>
<path d="M40.4799 28.04H40.81C41.8 28.04 42.29 27.66 42.29 26.91C42.29 26.2 41.8099 25.85 40.8499 25.85H40.4799V28.04ZM41.7799 28.83L43.9199 31.77H42.65L40.68 28.94H40.49V31.77H39.45V24.86H40.6699C41.5799 24.86 42.24 25.03 42.65 25.37C43.1 25.75 43.32 26.26 43.32 26.88C43.32 27.37 43.18 27.79 42.9 28.14C42.62 28.49 42.25 28.72 41.79 28.82" fill="#1C1C1B"/>
<path d="M6.8499 32.78C6.8499 32.84 6.8399 32.89 6.8199 32.92C6.7999 32.96 6.7699 32.98 6.7299 33C6.6899 33.02 6.6499 33.03 6.5999 33.04C6.5499 33.04 6.4999 33.04 6.4499 33.04H6.4099V32.5H6.4399C6.4399 32.5 6.5399 32.5 6.5899 32.5C6.6399 32.5 6.6899 32.52 6.7299 32.54C6.7699 32.56 6.7999 32.58 6.8299 32.62C6.8499 32.65 6.8699 32.7 6.8699 32.76M6.9399 32.41C6.8899 32.37 6.8199 32.33 6.7299 32.31C6.6399 32.29 6.5399 32.28 6.4099 32.28H6.1499V33.97H6.3999V33.28H6.4899C6.5699 33.28 6.6499 33.28 6.7199 33.25C6.7899 33.23 6.8599 33.2 6.9099 33.16C6.9699 33.12 7.0099 33.07 7.0399 33C7.0699 32.94 7.0899 32.86 7.0899 32.77C7.0899 32.69 7.0799 32.62 7.0599 32.56C7.0399 32.5 6.9999 32.44 6.9399 32.4" fill="#1C1C1B"/>
<path d="M7.88997 32.93C7.88997 32.93 7.83997 32.99 7.79997 33.01C7.75997 33.03 7.71997 33.04 7.66997 33.05C7.61997 33.05 7.56997 33.05 7.51997 33.05H7.47997V32.51H7.50997C7.50997 32.51 7.60997 32.51 7.65997 32.51C7.70997 32.51 7.75997 32.53 7.79997 32.55C7.83997 32.57 7.86997 32.6 7.89997 32.63C7.91997 32.66 7.93997 32.71 7.93997 32.77C7.93997 32.83 7.92997 32.88 7.90997 32.91M7.91997 33.21C7.96997 33.18 8.01997 33.15 8.04997 33.1C8.08997 33.06 8.10997 33.01 8.12997 32.95C8.14997 32.9 8.15997 32.84 8.15997 32.77C8.15997 32.69 8.13997 32.61 8.09997 32.53C8.05997 32.46 7.99997 32.4 7.92997 32.35C7.85997 32.31 7.78997 32.29 7.70997 32.28C7.62997 32.28 7.55997 32.27 7.48997 32.27H7.21997V33.96H7.46997V33.27H7.51997L7.99997 33.96H8.30997L7.78997 33.24C7.78997 33.24 7.87997 33.21 7.91997 33.19" fill="#1C1C1B"/>
<path d="M9.17004 33.76C9.09004 33.76 9.00004 33.74 8.93004 33.71C8.85004 33.68 8.79004 33.63 8.73004 33.58C8.67004 33.52 8.63004 33.46 8.59004 33.38C8.56004 33.3 8.54004 33.22 8.54004 33.13C8.54004 33.04 8.56004 32.96 8.59004 32.88C8.62004 32.8 8.66004 32.73 8.72004 32.68C8.78004 32.62 8.84004 32.58 8.92004 32.54C9.00004 32.51 9.08004 32.49 9.17004 32.49C9.26004 32.49 9.35004 32.51 9.42004 32.54C9.50004 32.57 9.56004 32.62 9.62004 32.68C9.68004 32.74 9.72004 32.81 9.75004 32.88C9.78004 32.96 9.80004 33.04 9.80004 33.13C9.80004 33.22 9.78004 33.3 9.75004 33.38C9.72004 33.46 9.67004 33.52 9.61004 33.58C9.55004 33.64 9.49004 33.68 9.41004 33.71C9.33004 33.74 9.25004 33.76 9.17004 33.76ZM9.79004 32.51C9.71004 32.43 9.62004 32.37 9.51004 32.32C9.40004 32.27 9.29004 32.25 9.17004 32.25C9.05004 32.25 8.93004 32.27 8.83004 32.32C8.72004 32.37 8.63004 32.43 8.55004 32.51C8.47004 32.59 8.41004 32.68 8.36004 32.79C8.31004 32.9 8.29004 33.01 8.29004 33.13C8.29004 33.25 8.31004 33.37 8.36004 33.48C8.41004 33.59 8.47004 33.68 8.55004 33.76C8.63004 33.84 8.72004 33.9 8.83004 33.94C8.94004 33.98 9.05004 34.01 9.17004 34.01C9.29004 34.01 9.41004 33.99 9.51004 33.94C9.62004 33.9 9.71004 33.83 9.79004 33.76C9.87004 33.69 9.93004 33.59 9.98004 33.48C10.03 33.37 10.05 33.26 10.05 33.13C10.05 33 10.03 32.89 9.98004 32.79C9.93004 32.68 9.87004 32.59 9.79004 32.51Z" fill="#1C1C1B"/>
<path d="M10.2 32.28V33.97H10.45V33.17H11.02V32.93H10.45V32.52H11.04V32.28H10.2Z" fill="#1C1C1B"/>
<path d="M11.23 32.28V33.97H12.16V33.73H11.48V33.17H12.14V32.93H11.48V32.52H12.16V32.28H11.23Z" fill="#1C1C1B"/>
<path d="M13.23 33.14C13.23 33.14 13.15 33.06 13.09 33.03C13.04 33 12.98 32.97 12.93 32.95L12.81 32.9C12.81 32.9 12.76 32.88 12.73 32.87C12.71 32.86 12.68 32.84 12.66 32.82C12.64 32.8 12.62 32.78 12.61 32.76C12.6 32.74 12.59 32.72 12.59 32.69C12.59 32.66 12.59 32.63 12.61 32.61C12.62 32.58 12.64 32.56 12.67 32.54C12.69 32.52 12.72 32.51 12.75 32.5C12.78 32.49 12.81 32.49 12.84 32.49C12.9 32.49 12.94 32.5 12.98 32.53C13.02 32.55 13.05 32.59 13.08 32.64V32.66L13.3 32.54V32.52C13.24 32.44 13.18 32.37 13.1 32.33C13.02 32.29 12.94 32.26 12.84 32.26C12.78 32.26 12.71 32.27 12.65 32.29C12.59 32.31 12.54 32.34 12.49 32.38C12.44 32.42 12.4 32.47 12.38 32.52C12.35 32.58 12.34 32.64 12.34 32.71C12.34 32.77 12.35 32.82 12.37 32.87C12.39 32.92 12.42 32.96 12.45 32.99C12.48 33.02 12.52 33.05 12.57 33.08C12.61 33.1 12.66 33.13 12.71 33.15L12.82 33.2C12.82 33.2 12.89 33.23 12.92 33.25C12.95 33.27 12.98 33.29 13.01 33.31C13.03 33.33 13.05 33.36 13.07 33.39C13.08 33.42 13.09 33.45 13.09 33.49C13.09 33.53 13.09 33.57 13.07 33.6C13.06 33.64 13.04 33.67 13.01 33.69C12.99 33.72 12.96 33.74 12.92 33.75C12.89 33.77 12.85 33.77 12.81 33.77C12.77 33.77 12.73 33.77 12.7 33.75C12.66 33.74 12.63 33.72 12.61 33.69C12.58 33.67 12.56 33.63 12.55 33.6C12.54 33.56 12.53 33.53 12.53 33.48V33.45L12.27 33.5V33.52C12.28 33.59 12.3 33.65 12.33 33.71C12.36 33.77 12.4 33.82 12.44 33.86C12.49 33.9 12.54 33.94 12.6 33.96C12.66 33.98 12.73 34 12.8 34C12.88 34 12.95 33.99 13.02 33.96C13.09 33.93 13.14 33.9 13.19 33.85C13.24 33.8 13.28 33.75 13.31 33.68C13.34 33.61 13.35 33.54 13.35 33.46C13.35 33.39 13.34 33.33 13.32 33.27C13.3 33.22 13.27 33.17 13.23 33.13" fill="#1C1C1B"/>
<path d="M14.3899 33.14C14.3899 33.14 14.3099 33.06 14.2499 33.03C14.1999 33 14.1399 32.97 14.0899 32.95L13.9699 32.9C13.9699 32.9 13.9199 32.88 13.8899 32.87C13.8699 32.86 13.8399 32.84 13.8199 32.82C13.7999 32.8 13.7799 32.78 13.7699 32.76C13.7599 32.74 13.7499 32.72 13.7499 32.69C13.7499 32.66 13.7499 32.63 13.7699 32.61C13.7799 32.58 13.7999 32.56 13.8299 32.54C13.8499 32.52 13.8799 32.51 13.9099 32.5C13.9399 32.49 13.9699 32.49 13.9999 32.49C14.0599 32.49 14.0999 32.5 14.1399 32.53C14.1799 32.55 14.2099 32.59 14.2399 32.64V32.66L14.4599 32.54V32.52C14.3999 32.44 14.3399 32.37 14.2599 32.33C14.1799 32.29 14.0999 32.26 13.9999 32.26C13.9399 32.26 13.8699 32.27 13.8099 32.29C13.7499 32.31 13.6999 32.34 13.6499 32.38C13.5999 32.42 13.5599 32.47 13.5399 32.52C13.5099 32.58 13.4999 32.64 13.4999 32.71C13.4999 32.77 13.5099 32.82 13.5299 32.87C13.5499 32.92 13.5799 32.96 13.6099 32.99C13.6399 33.02 13.6799 33.05 13.7299 33.08C13.7699 33.1 13.8199 33.13 13.8699 33.15L13.9799 33.2C13.9799 33.2 14.0499 33.23 14.0799 33.25C14.1099 33.27 14.1399 33.29 14.1699 33.31C14.1899 33.33 14.2099 33.36 14.2299 33.39C14.2399 33.42 14.2499 33.45 14.2499 33.49C14.2499 33.53 14.2499 33.57 14.2299 33.6C14.2199 33.64 14.1999 33.67 14.1699 33.69C14.1499 33.72 14.1199 33.74 14.0799 33.75C14.0499 33.77 14.0099 33.77 13.9699 33.77C13.9299 33.77 13.8899 33.77 13.8599 33.75C13.8199 33.74 13.7899 33.72 13.7699 33.69C13.7399 33.67 13.7199 33.63 13.7099 33.6C13.6999 33.56 13.6899 33.53 13.6899 33.48V33.45L13.4299 33.5V33.52C13.4399 33.59 13.4599 33.65 13.4899 33.71C13.5199 33.77 13.5599 33.82 13.5999 33.86C13.6499 33.9 13.6999 33.94 13.7599 33.96C13.8199 33.98 13.8899 34 13.9599 34C14.0399 34 14.1099 33.99 14.1799 33.96C14.2499 33.93 14.2999 33.9 14.3499 33.85C14.3999 33.8 14.4399 33.75 14.4699 33.68C14.4999 33.61 14.5099 33.54 14.5099 33.46C14.5099 33.39 14.4999 33.33 14.4799 33.27C14.4599 33.22 14.4299 33.17 14.3899 33.13" fill="#1C1C1B"/>
<path d="M14.9299 32.28H14.6799V33.97H14.9299V32.28Z" fill="#1C1C1B"/>
<path d="M15.9601 33.76C15.8801 33.76 15.7901 33.74 15.7201 33.71C15.6401 33.68 15.5801 33.63 15.5201 33.58C15.4601 33.52 15.4201 33.46 15.3801 33.38C15.3501 33.3 15.3301 33.22 15.3301 33.13C15.3301 33.04 15.3501 32.96 15.3801 32.88C15.4101 32.8 15.4501 32.73 15.5101 32.68C15.5701 32.62 15.6301 32.58 15.7101 32.54C15.7901 32.51 15.8701 32.49 15.9601 32.49C16.0501 32.49 16.1401 32.51 16.2101 32.54C16.2901 32.57 16.3501 32.62 16.4101 32.68C16.4701 32.74 16.5101 32.81 16.5401 32.88C16.5701 32.96 16.5901 33.04 16.5901 33.13C16.5901 33.22 16.5701 33.3 16.5401 33.38C16.5101 33.46 16.4601 33.52 16.4001 33.58C16.3401 33.64 16.2801 33.68 16.2001 33.71C16.1201 33.74 16.0401 33.76 15.9601 33.76ZM16.5801 32.51C16.5001 32.43 16.4101 32.37 16.3001 32.32C16.1901 32.27 16.0801 32.25 15.9601 32.25C15.8401 32.25 15.7201 32.27 15.6201 32.32C15.5101 32.37 15.4201 32.43 15.3401 32.51C15.2601 32.59 15.2001 32.68 15.1501 32.79C15.1001 32.9 15.0801 33.01 15.0801 33.13C15.0801 33.25 15.1001 33.37 15.1501 33.48C15.2001 33.59 15.2601 33.68 15.3401 33.76C15.4201 33.84 15.5101 33.9 15.6201 33.94C15.7301 33.98 15.8401 34.01 15.9601 34.01C16.0801 34.01 16.2001 33.99 16.3001 33.94C16.4101 33.9 16.5001 33.83 16.5801 33.76C16.6601 33.69 16.7201 33.59 16.7701 33.48C16.8201 33.37 16.8401 33.26 16.8401 33.13C16.8401 33 16.8201 32.89 16.7701 32.79C16.7201 32.68 16.6601 32.59 16.5801 32.51Z" fill="#1C1C1B"/>
<path d="M16.97 33.97H17.22V32.79L18.45 34.08V32.28H18.2V33.46L16.97 32.17V33.97Z" fill="#1C1C1B"/>
<path d="M19.33 32.75L19.58 33.32H19.08L19.33 32.75ZM18.51 33.97H18.78L18.97 33.56H19.69L19.88 33.97H20.15L19.33 32.18L18.51 33.97Z" fill="#1C1C1B"/>
<path d="M20.22 32.28V33.97H20.97V33.73H20.47V32.28H20.22Z" fill="#1C1C1B"/>
<path d="M22.3899 32.78C22.3899 32.84 22.3799 32.89 22.3599 32.92C22.3399 32.96 22.3099 32.98 22.2699 33C22.2299 33.02 22.1899 33.03 22.1399 33.04C22.0899 33.04 22.0399 33.04 21.9899 33.04H21.9499V32.5H21.9799C21.9799 32.5 22.0799 32.5 22.1299 32.5C22.1799 32.5 22.2299 32.52 22.2699 32.54C22.3099 32.56 22.3399 32.58 22.3699 32.62C22.3899 32.65 22.4099 32.7 22.4099 32.76M22.5799 33.01C22.6099 32.95 22.6299 32.87 22.6299 32.78C22.6299 32.7 22.6199 32.63 22.5999 32.57C22.5799 32.51 22.5399 32.45 22.4799 32.41C22.4299 32.37 22.3599 32.33 22.2699 32.31C22.1799 32.29 22.0799 32.28 21.9499 32.28H21.6899V33.97H21.9399V33.28H22.0299C22.1099 33.28 22.1899 33.28 22.2599 33.25C22.3299 33.23 22.3999 33.2 22.4499 33.16C22.5099 33.12 22.5499 33.07 22.5799 33" fill="#1C1C1B"/>
<path d="M23.2199 32.75L23.4699 33.32H22.9699L23.2199 32.75ZM22.3999 33.97H22.6699L22.8599 33.56H23.5799L23.7699 33.97H24.0399L23.2199 32.18L22.3999 33.97Z" fill="#1C1C1B"/>
<path d="M24.7801 32.93C24.7801 32.93 24.7301 32.99 24.6901 33.01C24.6501 33.03 24.6101 33.04 24.5601 33.05C24.5101 33.05 24.4601 33.05 24.4101 33.05H24.3701V32.51H24.4001C24.4001 32.51 24.5001 32.51 24.5501 32.51C24.6001 32.51 24.6501 32.53 24.6901 32.55C24.7301 32.57 24.7601 32.6 24.7901 32.63C24.8101 32.66 24.8301 32.71 24.8301 32.77C24.8301 32.83 24.8201 32.88 24.8001 32.91M24.8101 33.21C24.8601 33.18 24.9001 33.15 24.9401 33.1C24.9801 33.06 25.0001 33.01 25.0201 32.95C25.0401 32.9 25.0501 32.84 25.0501 32.77C25.0501 32.69 25.0301 32.61 24.9901 32.53C24.9501 32.46 24.8901 32.4 24.8201 32.35C24.7501 32.31 24.6801 32.29 24.6001 32.28C24.5201 32.28 24.4501 32.27 24.3801 32.27H24.1101V33.96H24.3601V33.27H24.4101L24.8901 33.96H25.2001L24.6801 33.24C24.6801 33.24 24.7701 33.21 24.8101 33.19" fill="#1C1C1B"/>
<path d="M25.53 32.28H25.28V33.97H25.53V32.28Z" fill="#1C1C1B"/>
<path d="M26.66 33.14C26.66 33.14 26.58 33.06 26.52 33.03C26.47 33 26.41 32.97 26.36 32.95L26.24 32.9C26.24 32.9 26.19 32.88 26.16 32.87C26.14 32.86 26.11 32.84 26.09 32.82C26.07 32.8 26.05 32.78 26.04 32.76C26.03 32.74 26.02 32.72 26.02 32.69C26.02 32.66 26.02 32.63 26.04 32.61C26.05 32.58 26.07 32.56 26.1 32.54C26.12 32.52 26.15 32.51 26.18 32.5C26.21 32.49 26.24 32.49 26.27 32.49C26.33 32.49 26.37 32.5 26.41 32.53C26.45 32.55 26.48 32.59 26.51 32.64V32.66L26.7299 32.54V32.52C26.6699 32.44 26.61 32.37 26.53 32.33C26.45 32.29 26.37 32.26 26.27 32.26C26.21 32.26 26.14 32.27 26.08 32.29C26.02 32.31 25.97 32.34 25.92 32.38C25.87 32.42 25.8299 32.47 25.8099 32.52C25.7799 32.58 25.77 32.64 25.77 32.71C25.77 32.77 25.7799 32.82 25.7999 32.87C25.8199 32.92 25.8499 32.96 25.8799 32.99C25.9099 33.02 25.95 33.05 26 33.08C26.04 33.1 26.0899 33.13 26.1399 33.15L26.25 33.2C26.25 33.2 26.32 33.23 26.35 33.25C26.38 33.27 26.41 33.29 26.44 33.31C26.46 33.33 26.48 33.36 26.5 33.39C26.51 33.42 26.52 33.45 26.52 33.49C26.52 33.53 26.52 33.57 26.5 33.6C26.49 33.64 26.47 33.67 26.44 33.69C26.42 33.72 26.39 33.74 26.35 33.75C26.32 33.77 26.28 33.77 26.24 33.77C26.2 33.77 26.1599 33.77 26.1299 33.75C26.0899 33.74 26.06 33.72 26.04 33.69C26.01 33.67 25.9899 33.63 25.9799 33.6C25.9699 33.56 25.9599 33.53 25.9599 33.48V33.45L25.7 33.5V33.52C25.71 33.59 25.73 33.65 25.76 33.71C25.79 33.77 25.83 33.82 25.87 33.86C25.92 33.9 25.97 33.94 26.03 33.96C26.09 33.98 26.1599 34 26.2299 34C26.3099 34 26.38 33.99 26.45 33.96C26.52 33.93 26.57 33.9 26.62 33.85C26.67 33.8 26.71 33.75 26.74 33.68C26.77 33.61 26.78 33.54 26.78 33.46C26.78 33.39 26.77 33.33 26.75 33.27C26.73 33.22 26.7 33.17 26.66 33.13" fill="#1C1C1B"/>
</svg>
