<svg width="75" height="51" viewBox="0 0 75 51" fill="none" xmlns="http://www.w3.org/2000/svg">
<path d="M19.3659 22.857H17.7409C16.9091 19.1815 16.0579 15.5059 15.2067 11.7723C14.9939 11.9271 14.9746 12.1012 14.9552 12.2559C14.6457 13.552 14.3362 14.8482 14.046 16.1443C13.6011 18.0208 13.1755 19.8779 12.7305 21.7544C12.6532 22.1219 12.5564 22.4895 12.4597 22.857H10.796C9.9255 19.1815 9.07432 15.5059 8.20379 11.8303C7.93296 11.869 7.97165 12.0818 7.9523 12.1979C7.58475 13.7842 7.21719 15.3705 6.86898 16.9568C6.46273 18.7172 6.07583 20.4582 5.66958 22.2186C5.63089 22.4121 5.57286 22.6249 5.51482 22.8377H3.90918C5.03119 17.8853 6.15321 12.9523 7.27522 8.03869H8.91956C9.26777 9.25743 9.51925 10.4955 9.80943 11.7336C10.0996 12.9523 10.4091 14.1904 10.68 15.4092C10.9701 16.6473 11.241 17.8853 11.5698 19.1041H11.6859C11.7439 18.9687 11.802 18.8526 11.8407 18.6978C12.2469 16.9955 12.6338 15.2931 13.0401 13.5907C13.4657 11.811 13.8719 10.0312 14.2975 8.23214C14.2975 8.17411 14.3362 8.09673 14.3749 8H16.0192C17.1412 12.8943 18.2439 17.8273 19.3852 22.799L19.3659 22.857Z" fill="#C71D1D"/>
<path d="M58.2303 22.8571V8.05807C58.3657 8.05807 58.5011 8.01938 58.6172 8.01938C60.2035 8.01938 61.8091 8.01938 63.3954 8.01938C65.0784 8.01938 66.5874 9.16074 66.9743 10.747C67.3031 12.0238 67.1677 13.2232 66.2972 14.2678C66.1424 14.4419 65.949 14.5967 65.7555 14.8095C65.9103 14.9062 66.0264 15.003 66.1618 15.0803C67.2838 15.7768 67.8254 16.802 67.9028 18.0982C67.9415 18.8333 67.9028 19.549 67.6707 20.2455C67.2064 21.6383 66.2198 22.4508 64.8076 22.7603C64.4981 22.8377 64.1499 22.8764 63.821 22.8764C62.0606 22.8764 60.2809 22.8764 58.5205 22.8764C58.4431 22.8764 58.3464 22.8764 58.2109 22.8571H58.2303ZM59.8166 21.3675C59.9713 21.3675 60.0681 21.3868 60.1648 21.3868C61.2481 21.3868 62.3121 21.3868 63.3954 21.3868C63.7049 21.3868 64.0145 21.3481 64.324 21.2901C65.0204 21.1547 65.5427 20.7484 65.9103 20.1487C66.2778 19.5297 66.2972 18.872 66.2778 18.1949C66.2391 16.7827 65.2332 15.68 63.7243 15.68C63.202 15.68 62.6797 15.68 62.1573 15.68C61.7124 15.2157 61.3062 14.7515 60.8419 14.2678C60.9966 14.2678 61.0934 14.2292 61.2094 14.2292C61.9058 14.2292 62.6023 14.2292 63.2987 14.2292C63.7436 14.2292 64.1499 14.1518 64.5368 13.9003C65.3686 13.3199 65.7168 12.2559 65.4073 11.2307C65.0978 10.2247 64.3046 9.58633 63.26 9.56699C62.2154 9.56699 61.1707 9.56699 60.1454 9.56699C60.0487 9.56699 59.952 9.58633 59.8359 9.60568V21.3675H59.8166Z" fill="#C71D1D"/>
<path d="M47.1067 36.2438V37.9268C47.7257 38.0042 48.3061 37.9462 48.8864 37.9655C49.4861 37.9655 50.1052 37.9655 50.7049 37.9655H52.4846V38.8747C51.5754 38.8747 50.7049 38.8747 49.815 38.8747C48.9445 38.8747 48.0933 38.8747 47.2034 38.8747C47.1841 39.3003 47.3388 39.6099 47.5323 39.9C48.0933 40.7319 48.8864 41.2735 49.815 41.6217C50.6468 41.9313 51.5367 42.028 52.4653 42.0473C52.62 42.3182 52.7941 42.6083 53.0069 42.9372C51.5174 42.9372 50.1245 42.7438 48.8091 42.1247C48.0353 41.7572 47.3582 41.2542 46.8359 40.5384C46.7778 40.461 46.7004 40.3837 46.6231 40.3063C46.565 40.345 46.507 40.345 46.4683 40.3837C45.6365 41.5831 44.4177 42.2214 43.0442 42.589C42.135 42.8211 41.2064 42.9372 40.1812 42.8985C40.3746 42.589 40.51 42.3182 40.6648 42.0667C41.2258 42.0086 41.7868 41.97 42.3285 41.8732C43.6246 41.6411 44.7659 41.0801 45.5784 40.0161C45.8299 39.6872 45.9653 39.339 46.004 38.8747C45.4043 38.8361 44.8433 38.8747 44.263 38.8747C43.6826 38.8747 43.0829 38.8747 42.5026 38.8747H40.7615C40.7615 38.72 40.7228 38.5846 40.7228 38.4685C40.7228 38.3331 40.7228 38.1977 40.7228 38.0429C41.071 37.9075 41.4192 37.9849 41.7675 37.9849C42.135 37.9849 42.5026 37.9849 42.8508 37.9849H46.0621C46.1588 37.4045 46.1201 36.8629 46.1008 36.2825H40.7422V35.3733H46.0814C46.1201 34.7736 46.1394 34.2319 46.0814 33.6516H40.8002C40.6648 33.342 40.7422 33.0519 40.7228 32.723H46.1008C46.1008 32.1427 46.1394 31.6203 46.0621 31.04H40.7228V30.1308H42.0963C42.2124 29.473 42.0963 28.8346 42.1737 28.2156H43.0829V30.0147C43.0829 30.0147 43.141 30.0727 43.1603 30.0727C43.1603 30.0727 43.1796 30.0921 43.199 30.0921C45.2689 30.0921 47.3582 30.0921 49.4281 30.1114C49.5829 30.1114 49.7376 30.1114 49.9504 30.1114C49.9504 29.7632 49.9698 29.473 49.9698 29.1635C49.9698 28.854 49.9698 28.5445 49.9698 28.1963H50.9564V30.0727C51.4593 30.0727 51.9043 30.1114 52.3879 30.1114V31.0013H47.0487C47.0293 31.5816 47.0293 32.104 47.0487 32.665C47.6484 32.7424 48.2481 32.6843 48.8284 32.7037C49.4088 32.7037 50.0085 32.7037 50.5888 32.7037H52.3879V33.5935C52.2331 33.5935 52.0784 33.6129 51.9043 33.6129C50.4727 33.6129 49.0219 33.6129 47.5903 33.6129C47.4162 33.6129 47.2615 33.6129 47.068 33.6322V35.2959C47.5129 35.3926 47.9579 35.3346 48.4028 35.3346C48.8284 35.3346 49.2733 35.3346 49.6989 35.3346H52.3879C52.3879 35.4894 52.4266 35.6248 52.4266 35.7602C52.4266 35.8956 52.4266 36.031 52.4266 36.2245C51.8075 36.2825 51.2272 36.2438 50.6468 36.2438C50.0665 36.2438 49.4668 36.2438 48.8864 36.2438C48.3061 36.2438 47.7064 36.2438 47.0487 36.2438H47.1067Z" fill="#C71D1D"/>
<path d="M36.7961 15.0416C37.4925 15.0416 38.1116 15.0416 38.7306 15.0416C39.0208 15.0416 39.311 15.0223 39.6011 14.9836C40.5297 14.8482 41.1294 14.3065 41.4583 13.436C41.7484 12.6622 41.7291 11.869 41.4002 11.1146C41.0133 10.2053 40.3169 9.68302 39.311 9.64433C38.1309 9.60564 36.9509 9.64433 35.7708 9.64433C35.7128 9.64433 35.6741 9.64433 35.6161 9.66367C35.6161 9.66367 35.5967 9.70236 35.5774 9.70236C35.5774 9.70236 35.558 9.72171 35.558 9.74105C35.558 9.74105 35.558 9.77974 35.558 9.79909C35.558 9.83778 35.558 9.87647 35.558 9.89581C35.558 14.1711 35.558 18.4657 35.558 22.7409C35.558 22.7409 35.558 22.7796 35.5193 22.857C35.0164 22.8957 34.494 22.857 33.9911 22.857C33.9524 22.8183 33.933 22.8183 33.9137 22.799C33.9137 22.799 33.8943 22.7796 33.8943 22.7603C33.8943 22.6249 33.875 22.4895 33.875 22.354C33.875 17.6145 33.875 12.8556 33.875 8.07737C34.0104 8.05803 34.1265 8.01934 34.2426 8.01934C35.8482 8.01934 37.4732 7.99999 39.0788 8.01934C40.3169 8.03869 41.4389 8.40624 42.3095 9.35415C42.9285 10.0312 43.2767 10.8244 43.3734 11.7336C43.4895 12.7782 43.3734 13.7648 42.7931 14.674C42.2321 15.622 41.3809 16.183 40.3556 16.5118C40.2202 16.5505 40.0654 16.5892 39.8526 16.6666C40.5104 17.7693 41.2455 18.7365 41.9226 19.7618C42.5996 20.7871 43.2961 21.793 44.0118 22.857H42.0773C40.3363 20.3035 38.5759 17.7112 36.7768 15.061L36.7961 15.0416Z" fill="#C71D1D"/>
<path d="M53.6458 8.03873H55.2901C55.2901 8.19349 55.3288 8.34825 55.3288 8.48366C55.3288 11.8884 55.3288 15.2738 55.3288 18.6785C55.3288 20.8258 54.0908 22.4508 51.9434 22.9344C50.4732 23.2633 49.0804 23.0892 47.8036 22.2961C46.875 21.7157 46.3334 20.8452 46.1012 19.8005C46.0239 19.3943 45.9852 18.9687 45.9658 18.5625C45.9658 15.1964 45.9658 11.8304 45.9658 8.48366C45.9658 8.34825 45.9658 8.21283 45.9852 8.05807H47.6101C47.7456 8.23218 47.6875 8.46432 47.6875 8.65777C47.6875 11.9464 47.6875 15.2351 47.6875 18.5431C47.6875 18.8526 47.6875 19.1815 47.7649 19.4717C48.0938 20.6517 48.9063 21.3095 50.0863 21.5029C51.4018 21.7157 52.5625 21.2708 53.2589 20.1101C53.5684 19.6071 53.6265 19.0267 53.6265 18.4657C53.6265 15.6413 53.6265 12.817 53.6265 9.99258C53.6265 9.37354 53.6265 8.7545 53.6265 8.05807L53.6458 8.03873Z" fill="#C71D1D"/>
<path d="M25.5178 8.05807C25.6145 8.05807 25.6919 8.01938 25.7499 8.01938C26.1755 8.01938 26.6204 8.01938 27.0267 8.01938C27.2782 8.38694 31.7469 21.5416 32.0758 22.8377H30.3734C29.7157 20.9032 29.0386 18.9494 28.3808 16.9762C27.7231 15.0416 27.046 13.0878 26.369 11.0759C26.2722 11.2113 26.1948 11.2694 26.1755 11.3467C25.5371 13.2039 24.9181 15.0416 24.2797 16.8988C23.6413 18.7946 22.9836 20.6904 22.3258 22.5862C22.3065 22.6636 22.2485 22.741 22.2098 22.8377H20.6235C20.6235 22.8377 20.5654 22.799 20.5654 22.7797C20.5654 22.7797 20.5654 22.741 20.5654 22.7216C20.8363 21.8705 21.1264 21.0193 21.3973 20.1681C22.7514 16.125 24.1249 12.0818 25.4984 8.03872L25.5178 8.05807Z" fill="#C71D1D"/>
<path d="M37.3571 40.0935H38.2469C38.2276 40.7126 38.3243 41.3123 38.1502 41.8926C37.9568 42.5697 37.4925 42.9372 36.7961 42.9566C36.3318 42.9566 35.8675 42.9566 35.3839 42.9566C34.4553 42.9372 33.9523 42.4343 33.8943 41.5057C33.8943 41.3316 33.8943 41.1575 33.8943 40.9834C33.8943 37.8688 33.8943 34.7349 33.8943 31.6204C33.8943 31.4269 33.8943 31.2528 33.8943 31.0787C33.4494 30.982 28.7292 30.9626 28.1682 31.0787C28.1295 33.3421 28.0521 35.6248 27.5878 37.8882C28.0327 38.0623 28.497 37.8882 28.9807 38.0236C29.1354 38.2751 29.2902 38.5459 29.503 38.9135H27.3944C27.0461 39.5712 26.756 40.1709 26.4271 40.7706C26.0595 41.4283 25.5953 42.0474 25.0729 42.6084C24.8021 42.8986 24.5313 43.0727 24.1057 43.0146C23.8349 42.9759 23.5447 43.0146 23.2158 43.0146C23.6608 42.6084 24.1057 42.2795 24.4539 41.8926C24.8215 41.467 25.1503 40.9834 25.4598 40.4998C25.75 40.0355 25.9822 39.5325 26.2337 39.0102C25.7307 38.8554 25.2857 39.0102 24.8021 38.8941C24.6474 38.6426 24.4926 38.3718 24.2991 38.0429C25.0729 37.9656 25.7694 38.0623 26.5045 37.9849C27.0848 35.7215 27.0655 33.4388 27.1429 31.1561C26.8527 30.982 26.5432 31.0787 26.253 31.0594C25.9822 31.0594 25.692 31.0594 25.3825 31.0594C25.2084 30.7692 25.0343 30.479 24.8215 30.1115H27.1235V28.2156H28.1295V30.0534C28.5938 30.1695 29.0193 30.1115 29.4449 30.1115C29.8899 30.1115 30.3542 30.1115 30.7991 30.1115H34.8035C34.8035 30.3243 34.8229 30.4984 34.8229 30.6918C34.8229 34.1159 34.8229 37.5206 34.8229 40.9447C34.8229 41.1382 34.8229 41.3316 34.8616 41.5057C34.9389 41.912 35.1324 42.0861 35.5386 42.1054C35.9255 42.1248 36.2931 42.1248 36.68 42.1054C37.0669 42.0861 37.2797 41.8733 37.299 41.467C37.299 41.1381 37.299 40.8093 37.299 40.4804C37.299 40.3837 37.299 40.287 37.299 40.1516L37.3571 40.0935Z" fill="#C71D1D"/>
<path d="M70.495 8.03872H72.004C72.004 8.03872 72.0427 8.05807 72.062 8.07741C72.062 8.07741 72.062 8.1161 72.0813 8.1161C72.0813 8.21283 72.1007 8.3289 72.1007 8.42563C72.1007 13.2039 72.1007 18.0014 72.1007 22.7797C71.8105 22.9344 71.5397 22.8377 71.2689 22.8571C71.0174 22.8571 70.7465 22.8571 70.5144 22.8571C70.4757 22.8184 70.4564 22.799 70.4564 22.7797C70.4564 22.7797 70.437 22.7603 70.437 22.741C70.437 18.0401 70.437 13.3393 70.437 8.65776C70.437 8.48366 70.437 8.30956 70.437 8.13545C70.437 8.09676 70.4564 8.07741 70.495 8.01938V8.03872Z" fill="#C71D1D"/>
</svg>
