<svg width="105" height="50" viewBox="0 0 105 50" fill="none" xmlns="http://www.w3.org/2000/svg">
<path d="M90.3058 30.1336V36.3779C90.3058 38.3292 88.9548 39.2298 87.0935 39.2298H86.4031V30.1336L75.2654 10.9203H77.0966C79.048 10.9203 80.1888 11.4306 81.2095 13.2019L89.2851 27.3416L97.2406 12.9017C98.1412 11.2805 99.0418 10.9203 100.123 10.9203H100.963L90.3358 30.1035L90.3058 30.1336ZM81.8399 39.2899L68.7208 10.5H68.1805L55.4217 39.2899H56.2923C57.343 39.2899 58.3337 38.9296 59.1442 37.1284C59.1442 37.1284 59.4444 36.4679 61.3357 32.0249H72.1132C71.813 30.824 71.0925 29.7733 68.8109 29.7733H62.2964L67.5801 17.6149L76.136 36.4679C77.0066 38.3592 77.6971 39.2899 80.489 39.2899H81.8399ZM41.8523 36.9483V13.8623C41.8523 11.7008 40.2312 11.0404 38.7301 11.0404H37.8896V39.1998H50.6183C52.7198 39.1998 53.9206 38.6594 54.521 36.9483H41.8523ZM20.0272 12.5114C26.3916 12.5114 30.8647 18.1253 30.8647 25C30.8647 31.8748 26.3916 37.4886 20.0272 37.4886C13.6628 37.4886 9.18974 31.8748 9.18974 25C9.18974 18.1253 13.6628 12.5114 20.0272 12.5114ZM20.0272 39.5C28.8833 39.5 35.0076 32.9555 35.0076 25.03C35.0076 17.1046 28.8833 10.53 20.0272 10.53C11.1711 10.53 5.04688 17.0745 5.04688 25.03C5.04688 32.9855 11.1711 39.5 20.0272 39.5Z" fill="#231815"/>
</svg>
