<svg width="216" height="50" viewBox="0 0 216 50" fill="none" xmlns="http://www.w3.org/2000/svg">
<path d="M22.9657 24.0138C22.9657 21.7245 21.6347 20.1273 19.8777 19.169C18.1208 18.2107 15.8847 17.7847 14.0213 17.7847C11.3593 17.7847 9.06998 18.3171 7.41954 19.2222C5.7691 20.1805 4.81077 21.5115 4.81077 23.2152C4.81077 25.2383 6.14178 26.5693 8.21814 27.4212C10.2945 28.273 13.1695 28.6457 16.2042 28.6457C17.3222 28.6457 18.6 28.8587 19.5583 29.3378C20.5166 29.817 21.2087 30.5624 21.2087 31.5739C21.2087 32.5855 20.6763 33.5438 19.5583 34.1827C18.387 34.8748 16.6301 35.2475 14.1278 35.2475C12.2112 35.2475 10.3477 34.8216 8.9635 34.0762C7.57926 33.3308 6.67418 32.266 6.67418 30.935H4.11865C4.11865 33.0114 5.28993 34.6086 7.1001 35.7266C8.91026 36.8447 11.4125 37.4836 14.0746 37.4836C17.3222 37.4836 19.718 36.8979 21.3685 35.8331C22.9657 34.7683 23.8175 33.1711 23.8175 31.148C23.8175 29.9767 23.2319 28.7522 22.0073 27.8471C20.7296 26.942 18.7597 26.3032 15.9912 26.3032C13.7019 26.3032 11.5723 26.1434 10.0283 25.611C8.48434 25.0786 7.47278 24.28 7.47278 22.949C7.47278 21.5115 8.59082 20.7129 9.92183 20.287C11.2528 19.8611 12.7968 19.8078 13.5954 19.8078C15.3523 19.8078 17.1092 20.1805 18.4402 20.9259C19.718 21.618 20.5699 22.6828 20.5699 23.9606H23.0721L22.9657 24.0138Z" fill="black"/>
<path d="M28.2899 13.6851H25.7344V37.0575H28.2899V25.7706C28.2899 24.1202 29.4079 22.6827 30.8454 21.7244C32.3362 20.7128 34.1463 20.1804 35.637 20.1804C37.2342 20.1804 38.7782 20.6063 39.8962 21.3517C41.0143 22.0971 41.7064 23.2151 41.7064 24.4929V37.0575H44.1555V24.9188C44.1555 22.31 43.1971 20.5531 41.7064 19.4351C40.2157 18.317 38.2458 17.8379 36.2759 17.8379C34.4658 17.8379 32.8686 18.1573 31.5376 18.6897C30.2065 19.2221 29.1417 20.0207 28.2367 20.8725V13.6851H28.2899Z" fill="black"/>
<path d="M49.1598 18.5831H46.6575V31.7334C46.6575 33.4371 47.5626 34.8746 49.0533 35.9394C50.4908 37.0042 52.5139 37.5899 54.6435 37.5899C56.6666 37.5899 58.2638 37.1639 59.5416 36.5783C60.8193 35.9927 61.7777 35.194 62.523 34.3954V37.0042H65.0786V18.5831H62.523V30.1895C62.523 31.3075 61.6179 32.5853 60.2337 33.5968C58.8495 34.6084 57.0393 35.3005 55.2824 35.3005C53.6852 35.3005 52.1412 34.9811 51.0232 34.3954C49.9051 33.8098 49.213 32.9047 49.213 31.6802V18.5831H49.1598Z" fill="black"/>
<path d="M81.8487 18.5831H79.3464V31.7334C79.3464 33.4371 80.2515 34.8746 81.7422 35.9394C83.1797 37.0042 85.2029 37.5899 87.3325 37.5899C89.3556 37.5899 90.9528 37.1639 92.2305 36.5783C93.5083 35.9927 94.4666 35.194 95.212 34.3954V37.0042H97.7675V18.5831H95.212V30.1895C95.212 31.3075 94.3069 32.5853 92.9227 33.5968C91.5384 34.6084 89.7283 35.3005 87.9713 35.3005C86.3741 35.3005 84.8302 34.9811 83.7121 34.3954C82.5941 33.8098 81.902 32.9047 81.902 31.6802V18.5831H81.8487Z" fill="black"/>
<path d="M147.069 17.7847C144.034 17.7847 142.17 18.4236 140.946 19.169C139.775 19.9143 139.242 20.7129 138.923 21.0324C138.39 20.1273 137.539 19.3287 136.58 18.7431C135.569 18.1574 134.397 17.7847 133.066 17.7847C129.978 17.7847 128.168 18.4236 127.05 19.1157C125.932 19.8079 125.506 20.6065 125.187 20.8727V18.5833H122.631V37.0044H125.187V25.3981C125.187 24.28 126.039 22.949 127.316 21.8842C128.594 20.8194 130.351 20.0741 132.108 20.0741C133.599 20.0741 134.877 20.6065 135.782 21.3518C136.687 22.0972 137.166 23.0555 137.166 23.9073V37.0044H139.668V24.7592C139.668 23.6411 140.467 22.4699 141.691 21.5648C142.916 20.6597 144.566 20.0741 146.323 20.0741C147.814 20.0741 149.038 20.6065 149.837 21.3518C150.636 22.0972 151.115 23.0555 151.115 23.9073V37.0044H153.617V23.8541C153.617 22.3101 152.925 20.7662 151.7 19.6481C150.529 18.5301 148.825 17.7847 146.909 17.7847H147.069Z" fill="black"/>
<path d="M158.675 18.5831H156.173V31.7334C156.173 33.4371 157.078 34.8746 158.569 35.9394C160.006 37.0042 162.029 37.5899 164.159 37.5899C166.182 37.5899 167.779 37.1639 169.057 36.5783C170.335 35.9927 171.293 35.194 172.038 34.3954V37.0042H174.594V18.5831H172.038V30.1895C172.038 31.3075 171.133 32.5853 169.749 33.5968C168.365 34.6084 166.555 35.3005 164.798 35.3005C163.201 35.3005 161.657 34.9811 160.539 34.3954C159.42 33.8098 158.728 32.9047 158.728 31.6802V18.5831H158.675Z" fill="black"/>
<path d="M110.386 35.354C107.511 35.354 105.594 34.2892 104.369 32.9049C103.145 31.5207 102.613 29.7638 102.613 28.3263H120.714C120.714 25.7707 120.022 23.162 118.372 21.1389C116.721 19.169 114.166 17.7847 110.439 17.7847C106.978 17.7847 104.263 18.956 102.453 20.7662C100.643 22.5763 99.6843 25.0254 99.6843 27.5277C99.6843 30.03 100.589 32.6387 102.4 34.5021C104.156 36.3655 106.819 37.5901 110.332 37.5901C114.006 37.5901 116.455 36.2591 117.999 34.7683C119.543 33.2776 120.129 31.6272 120.129 30.935H117.36C117.36 31.6804 116.561 32.7452 115.284 33.6503C114.006 34.5554 112.249 35.3007 110.386 35.3007M110.332 19.8611C112.196 19.8611 114.059 20.5532 115.497 21.6713C116.934 22.7893 117.892 24.3865 117.892 26.1434H102.613C102.613 24.5995 103.518 23.0023 104.902 21.831C106.286 20.6597 108.256 19.8611 110.332 19.8611Z" fill="black"/>
<path d="M177.042 18.5834V37.0045H179.598V25.1319C179.598 23.9074 180.29 22.6296 181.408 21.6181C182.526 20.6065 184.017 19.9144 185.667 19.9144C186.998 19.9144 188.223 20.3935 189.128 21.1921C190.033 21.9907 190.565 23.1088 190.565 24.3333H192.802C192.802 22.044 192.056 20.4468 190.778 19.382C189.501 18.3172 187.691 17.838 185.561 17.838C184.549 17.838 183.218 18.2639 182.047 18.7963C180.876 19.3287 179.864 20.0209 179.545 20.5V18.6366H176.989L177.042 18.5834Z" fill="black"/>
<path d="M203.077 17.7847C200.149 17.7847 197.913 18.6366 196.422 19.9143C194.931 21.1921 194.186 22.7893 194.186 24.28H196.688C196.688 23.2685 197.38 22.1504 198.552 21.2986C199.723 20.4467 201.32 19.8078 203.077 19.8078C204.515 19.8078 206.112 20.074 207.39 20.6597C208.667 21.1921 209.572 22.0439 209.572 23.1087C209.572 24.3865 208.721 25.2383 207.443 25.7707C206.165 26.3031 204.408 26.5693 202.598 26.5693C200.522 26.5693 198.232 26.8356 196.422 27.6342C194.612 28.4328 193.334 29.7638 193.334 31.8401C193.334 33.6503 194.133 35.0878 195.624 36.0461C197.114 37.0577 199.35 37.5901 202.225 37.5901C204.035 37.5901 205.579 37.1641 206.857 36.5785C208.082 35.9929 209.04 35.3007 209.519 34.7151V37.0576H211.862V22.4166C211.862 20.8727 210.637 19.7014 208.934 18.956C207.23 18.1574 204.994 17.7847 202.971 17.7847M209.626 30.8286C209.626 31.361 208.88 32.5322 207.603 33.597C206.325 34.6618 204.408 35.5669 202.172 35.5669C200.096 35.5669 198.552 35.0878 197.54 34.4489C196.529 33.7568 196.049 32.9049 196.049 32.0531C196.049 30.935 196.795 30.0832 198.073 29.5508C199.297 29.0184 201.001 28.7522 202.864 28.7522C205.207 28.7522 206.591 28.486 207.549 28.1665C208.508 27.8471 209.04 27.4212 209.679 27.2082V30.8286H209.626Z" fill="black"/>
<path d="M158.195 13.1527L158.355 12.9398C158.621 12.6203 158.781 12.3009 158.887 12.0347C158.994 11.7685 159.047 11.449 159.153 11.0764H158.887C158.887 11.0764 158.568 11.0764 158.302 11.0764C158.302 11.0231 158.302 10.9699 158.302 10.9166V10.8102C158.302 10.8102 158.302 10.6504 158.302 10.4907C158.515 10.4907 158.674 10.4907 158.887 10.4907H159.26V9.95832C159.26 9.95832 159.26 9.69211 159.26 9.58563V9.10647C159.26 9.10647 159.686 9.10647 159.846 9.10647C159.846 9.31943 159.846 9.47916 159.846 9.63888C159.846 9.7986 159.846 9.90508 159.846 9.95832V10.4907H160.058C160.058 10.4907 160.378 10.4907 160.591 10.4907C160.591 10.5972 160.591 10.6504 160.591 10.7037C160.591 10.7037 160.591 10.8102 160.591 10.8634C160.591 10.8634 160.591 10.9699 160.591 11.1296C160.484 11.1296 160.378 11.1296 160.271 11.1296C160.165 11.1296 160.112 11.1296 160.058 11.1296H159.846V12.0879C159.846 12.0879 160.005 11.9282 160.112 11.875L160.804 12.78C160.804 12.78 160.484 12.993 160.325 13.1527V12.993C160.325 12.993 160.112 12.78 160.005 12.5671L159.899 12.4074V14.3773C159.899 14.3773 159.899 14.537 159.899 14.8032V15.3356C159.899 15.3356 159.792 15.3356 159.739 15.3356C159.739 15.3356 159.579 15.3356 159.313 15.3356C159.313 15.1226 159.313 14.9097 159.313 14.7499C159.313 14.5902 159.313 14.4837 159.313 14.3773V12.3541C159.153 12.6736 159.1 12.9398 158.994 13.0995L158.781 13.5254L158.621 13.8449C158.621 13.8449 158.355 13.4722 158.195 13.3124V13.1527ZM160.112 15.0161C160.112 15.0161 160.112 14.8032 160.112 14.6967C160.112 14.6967 160.112 14.537 160.112 14.3773C160.431 14.3773 160.644 14.3773 160.697 14.3773H160.804V11.5023C160.804 11.5023 160.804 11.1828 160.804 11.1296V10.8102C160.804 10.8102 161.177 10.8102 161.496 10.8102H161.869V10.2778H161.23C161.23 10.2778 160.751 10.2778 160.431 10.2778C160.431 10.1713 160.431 10.118 160.431 10.0648V9.95832C160.431 9.95832 160.431 9.85184 160.431 9.69212C160.804 9.69212 161.07 9.69212 161.23 9.69212H161.922V9.53239V9.2662V9C161.922 9 162.348 9.05323 162.561 9.10647V9.31944C162.561 9.31944 162.508 9.53239 162.508 9.58563V9.7986H163.466C163.732 9.7986 163.998 9.7986 164.264 9.7986C164.264 9.90508 164.264 9.95832 164.264 10.0648C164.264 10.118 164.264 10.2778 164.264 10.4375C163.839 10.4375 163.572 10.4375 163.519 10.4375H162.454V10.9699H163.146C163.359 10.9699 163.572 10.9699 163.839 10.9699C163.839 11.1828 163.839 11.2893 163.839 11.449C163.839 11.5555 163.839 11.662 163.839 11.7152V14.5902H163.945C163.945 14.5902 164.158 14.5902 164.477 14.5902C164.477 14.6967 164.477 14.7499 164.477 14.8032V14.9096V15.0161V15.1759C164.477 15.1759 164.105 15.1759 163.945 15.1759H160.857C160.857 15.1759 160.484 15.1759 160.218 15.1759L160.112 15.0161ZM161.336 13.5254H163.253V13.0995H161.336V13.5254ZM161.336 14.4305H163.253V14.0046H161.336V14.4305ZM161.336 11.8217H163.253V11.3426H161.336V11.8217ZM161.336 12.7268H163.253V12.1944H161.336V12.7268Z" fill="black"/>
<path d="M181.833 13.3124L181.94 13.206C181.94 13.206 182.366 12.7268 182.525 12.4074C182.685 12.1412 182.792 11.875 182.845 11.7152C182.898 11.5555 183.005 11.3426 183.111 10.9699H182.685C182.685 10.9699 182.312 10.9699 182.046 10.9699C182.046 10.9166 182.046 10.8634 182.046 10.8102C182.046 10.8102 182.046 10.7569 182.046 10.7037C182.046 10.7037 182.046 10.5972 182.046 10.3842C182.259 10.3842 182.525 10.3842 182.792 10.3842H183.111V10.0116C183.111 10.0116 183.111 9.79859 183.111 9.53239V9C183.111 9 183.377 9 183.43 9C183.43 9 183.59 9 183.75 9C183.75 9.21296 183.75 9.42591 183.75 9.58563C183.75 9.74535 183.75 9.90507 183.75 10.0116V10.3842H184.016C184.016 10.3842 184.389 10.3842 184.602 10.3842C184.602 10.4907 184.602 10.544 184.602 10.5972V10.7037V10.8102V10.9699C184.602 10.9699 184.229 10.9699 184.069 10.9699H183.803V11.7152C183.803 11.7152 184.069 11.6088 184.229 11.5555L184.868 12.5671C184.868 12.5671 184.442 12.7268 184.282 12.8865V12.7268C184.282 12.7268 184.123 12.5138 184.069 12.3541C184.016 12.1944 183.963 12.1412 183.91 12.0879L183.803 11.9282V14.0578C183.803 14.0578 183.803 14.3772 183.803 14.5902V15.1226C183.803 15.1226 183.377 15.1226 183.164 15.1226C183.164 14.9097 183.164 14.6967 183.164 14.4837C183.164 14.324 183.164 14.1643 183.164 14.0578V12.0879C183.164 12.0879 182.951 12.5671 182.845 12.78C182.738 12.993 182.579 13.3124 182.366 13.6319L182.206 13.8981C182.206 13.8981 182.099 13.7384 182.046 13.6319C182.046 13.5254 181.887 13.4189 181.78 13.2592L181.833 13.3124ZM184.761 11.1828V11.0231C184.761 11.0231 184.761 10.9166 184.761 10.8634C184.761 10.8102 184.761 10.7569 184.761 10.7569V10.4907C185.134 10.4907 185.4 10.4907 185.507 10.4907H186.572V10.0648C186.572 10.0648 186.572 9.7986 186.572 9.58563V9.05324C186.572 9.05324 186.838 9.05324 186.891 9.05324C186.891 9.05324 187.051 9.05324 187.264 9.05324C187.264 9.2662 187.264 9.42591 187.264 9.58563C187.264 9.74535 187.264 9.90508 187.264 10.0648V10.4907H188.169V10.6504V10.7569V10.9166V11.1296C187.849 11.1296 187.636 11.1296 187.477 11.1296H187.264V14.2708C187.264 14.537 187.264 14.6967 187.264 14.8032C187.264 14.8564 187.157 14.9629 187.104 15.0161C186.998 15.0694 186.678 15.1759 186.092 15.2291C186.092 15.1226 186.092 15.0694 186.092 14.9629C186.092 14.8564 186.092 14.8032 186.039 14.7499L185.826 14.4305C185.826 14.4305 186.252 14.4305 186.465 14.4305C186.625 14.4305 186.678 14.4305 186.731 14.4305C186.731 14.4305 186.731 14.324 186.731 14.2708V11.1828H185.667C185.667 11.1828 185.347 11.1828 184.868 11.1828H184.761ZM184.974 11.9282C184.974 11.9282 185.4 11.7685 185.56 11.7152L186.199 12.9398C186.199 12.9398 185.773 13.0995 185.56 13.206V13.0463L185.4 12.7268C185.294 12.5138 185.187 12.3009 185.081 12.0879L184.974 11.9282Z" fill="black"/>
<path d="M205.633 12.5139C205.633 12.5139 206.112 12.3541 206.431 12.1944C206.751 12.0347 207.017 11.875 207.177 11.7153C207.336 11.5555 207.549 11.3958 207.762 11.1829H207.123C206.751 11.1829 206.325 11.1829 205.739 11.1829C205.739 11.0764 205.739 11.0231 205.739 10.9699V10.8634C205.739 10.8634 205.739 10.7569 205.739 10.544C206.378 10.544 206.804 10.544 207.123 10.544H208.348V10.0116C207.23 10.0648 206.644 10.1181 206.591 10.1181H206.431C206.431 10.1181 206.431 10.0648 206.431 10.0116C206.431 9.95834 206.325 9.79862 206.165 9.58565H206.325C207.017 9.63889 207.816 9.63889 208.721 9.58565C209.626 9.47917 210.158 9.42594 210.424 9.31946H210.584C210.584 9.31946 210.744 9.6389 210.744 9.69214L210.85 9.95834H210.265C209.945 10.0116 209.679 10.0648 209.466 10.0648C209.2 10.0648 209.04 10.0648 208.987 10.0648V10.6505H210.105C210.424 10.6505 210.903 10.6505 211.489 10.6505C211.489 10.7569 211.489 10.8102 211.489 10.8634V10.9699C211.489 10.9699 211.489 11.1296 211.489 11.2893C210.903 11.2893 210.424 11.2893 210.105 11.2893H209.572C209.572 11.2893 209.945 11.662 210.211 11.8217C210.478 11.9815 210.957 12.1412 211.596 12.2477H211.755C211.755 12.2477 211.489 12.5139 211.383 12.6204L211.276 12.7801L211.17 12.9398H211.01C210.371 12.6203 209.998 12.4074 209.839 12.3009C209.679 12.1944 209.572 12.0879 209.466 11.9815C209.359 11.875 209.253 11.7685 209.2 11.7153C209.147 11.6088 209.04 11.5023 208.88 11.2893V12.5671H209.359C209.359 12.5671 209.732 12.5671 209.998 12.5671C209.892 12.8333 209.785 13.1528 209.679 13.4722H210.158C210.158 13.4722 210.584 13.4722 210.85 13.4722C210.85 13.5787 210.797 13.7916 210.744 14.0046L210.637 14.5902C210.584 14.8564 210.478 15.0694 210.318 15.1759C210.211 15.2824 209.839 15.3356 209.253 15.3888C209.253 15.2291 209.2 15.1226 209.2 15.0162C209.2 14.9097 209.093 14.8032 208.987 14.6435C209.2 14.6967 209.413 14.75 209.572 14.75C209.732 14.75 209.839 14.75 209.892 14.75C209.945 14.75 209.998 14.6435 209.998 14.5902C209.998 14.537 209.998 14.4837 209.998 14.4305V14.1111H209.519C209.306 14.1111 209.147 14.1111 208.934 14.1111V13.8981C208.934 13.8981 209.093 13.6319 209.093 13.4722V13.2592L209.147 13.1527H208.188C208.188 13.1527 208.188 13.4722 208.135 13.6851C208.135 13.8981 208.028 14.1111 207.869 14.324C207.709 14.537 207.549 14.6967 207.283 14.8564C207.07 15.0161 206.697 15.1759 206.218 15.3356H206.059C206.059 15.3356 205.846 15.0694 205.846 15.0162L205.579 14.75H205.686C206.005 14.75 206.325 14.6435 206.591 14.537C206.91 14.3773 207.07 14.2708 207.23 14.1111C207.336 13.9513 207.443 13.7916 207.443 13.6851C207.443 13.5787 207.496 13.3657 207.549 13.0995H207.23C207.23 13.0995 206.964 13.0995 206.644 13.0995C206.644 12.993 206.644 12.9398 206.644 12.8865V12.6736C206.378 12.8333 206.112 12.993 205.952 13.0995H205.846C205.846 13.0995 205.633 12.8865 205.579 12.8333L205.313 12.6204H205.473L205.633 12.5139ZM207.07 12.4074C207.07 12.4074 207.336 12.4074 207.496 12.4074H208.401V11.1829C208.401 11.1829 207.975 11.6088 207.816 11.7685C207.656 11.9282 207.39 12.1412 207.07 12.4074Z" fill="black"/>
</svg>
