<svg width="114" height="50" viewBox="0 0 114 50" fill="none" xmlns="http://www.w3.org/2000/svg">
<path d="M5 24.9919H10.5547C10.4765 27.5737 12.4845 27.1825 14.7794 27.2868C17.0743 27.3911 18.0131 26.7913 18.5347 26.3741C19.0562 25.9568 19.0823 24.3921 17.7523 24.1052C17.4915 24.0531 16.3441 24.0531 13.658 23.9748C11.1284 23.9227 9.58979 23.6358 9.01607 23.5576C7.39921 23.349 6.74725 23.0882 6.17353 22.2797C5.7302 21.6799 5.23471 21.0801 5.23471 20.0631C5.23471 18.1072 5.78235 16.9076 7.32097 16.3078C8.46842 15.8645 10.9198 15.6298 14.6751 15.6298C17.0482 15.6298 18.7694 15.708 19.8386 15.8905C20.9078 16.047 21.7423 16.386 22.3421 16.8554C22.7072 17.1423 22.968 17.5074 23.1245 17.8986C23.2809 18.2898 23.3592 18.9678 23.4374 19.7762H18.4825C18.4825 19.4372 18.4825 19.0721 18.0913 18.4984C17.7262 17.9247 16.5266 18.029 15.0923 18.029C13.5276 18.029 11.6239 18.1333 11.1023 18.5505C10.6068 18.9417 10.659 19.385 10.6329 19.7762C10.6329 20.3499 10.6851 20.7933 11.5196 20.8454C12.1716 20.8976 11.6239 21.0019 15.6921 21.028C17.648 21.028 21.8727 21.4974 22.7333 22.1233C23.62 22.7492 24.298 23.4272 24.1937 24.9397C24.0633 26.8435 23.4374 27.9127 22.0813 28.6168C20.8556 29.2687 18.2217 29.6599 14.2578 29.6078C11.7021 29.5817 9.90273 29.5035 8.78136 29.3209C7.68607 29.1384 6.79941 28.7733 6.17353 28.2256C5.39118 27.5476 5.05216 26.4523 5.02608 25.018L5 24.9919Z" fill="#231815"/>
<path d="M59.6863 10.4402H64.7976V29.4774H59.6863V10.4402Z" fill="#231815"/>
<path d="M36.8677 24.9919H42.4224C42.3441 27.5737 44.3522 27.1825 46.6471 27.2868C48.942 27.3911 49.8808 26.7913 50.4023 26.3741C50.9239 25.9568 50.95 24.3921 49.62 24.1052C49.3592 24.0531 48.2118 24.0531 45.5257 23.9748C42.9961 23.9227 41.4575 23.6358 40.8837 23.5576C39.2669 23.349 38.6149 23.0882 38.0412 22.2797C37.5979 21.6799 37.1024 21.0801 37.1024 20.0631C37.1024 18.1072 37.65 16.9076 39.1886 16.3078C40.3361 15.8645 42.7875 15.6298 46.5427 15.6298C48.9159 15.6298 50.6371 15.708 51.7063 15.8905C52.7755 16.047 53.61 16.386 54.2098 16.8554C54.5749 17.1423 54.8357 17.5074 54.9921 17.8986C55.1486 18.2898 55.2268 18.9678 55.3051 19.7762H50.3502C50.3502 19.4372 50.3502 19.0721 49.959 18.4984C49.5939 17.9247 48.3943 18.029 46.96 18.029C45.3953 18.029 43.4916 18.1333 42.97 18.5505C42.4745 18.9417 42.5267 19.385 42.5006 19.7762C42.5006 20.3499 42.5528 20.7933 43.3873 20.8454C44.0392 20.8976 43.4916 21.0019 47.5598 21.028C49.5157 21.028 53.7404 21.4974 54.601 22.1233C55.4876 22.7492 56.1657 23.4272 56.0614 24.9397C55.931 26.8435 55.3051 27.9127 53.949 28.6168C52.7233 29.2687 50.0894 29.6599 46.1255 29.6078C43.5698 29.5817 41.7704 29.5035 40.649 29.3209C39.5537 29.1384 38.6671 28.7733 38.0412 28.2256C37.2588 27.5476 36.9198 26.4523 36.8938 25.018L36.8677 24.9919Z" fill="#231815"/>
<path d="M28.1833 15.8124H33.2947V29.5035H28.1833V15.8124ZM28.1833 10.3359H33.3208V13.2046H28.1833V10.3359Z" fill="#231815"/>
<path d="M82.7916 24.966H88.0855C88.1376 26.6089 87.4335 27.6259 86.5208 28.2779C85.9992 28.643 84.9822 29.1907 83.6 29.3993C82.3482 29.5818 80.4967 29.7122 77.9932 29.7122C75.933 29.7122 74.3943 29.5818 73.299 29.3471C71.63 29.0081 70.1175 28.3561 69.3873 26.3742C69.1004 25.5658 68.8657 24.4183 68.8657 22.7232C68.8657 21.4454 68.9179 20.5066 69.0222 19.8546C69.3351 17.8466 70.8998 16.5166 72.6732 16.1254C73.9249 15.8385 75.8547 15.6038 78.5408 15.6038C80.8878 15.6038 82.5569 15.6299 83.5218 15.8385C86.9119 16.5426 87.8247 18.6028 88.0072 22.3842C88.0072 22.5928 88.0333 22.6711 88.0072 23.3752H74.0292C74.0292 24.1836 74.0292 25.7744 74.7594 26.2438C76.1416 27.1305 79.7143 27.0522 81.3833 26.7914C82.5569 26.635 82.7655 25.8787 82.7916 24.9399V24.966ZM82.922 21.2889C82.922 20.5587 82.9741 20.0632 82.922 19.8024C82.8698 19.5417 82.7394 19.2809 82.5829 19.0722C82.0875 18.4724 80.7575 18.1595 78.619 18.1595C76.6892 18.1595 75.4114 18.3681 74.7855 18.7593C74.1596 19.1505 74.0292 20.0111 74.0032 21.2889H82.922Z" fill="#231815"/>
<path d="M89.2847 15.7864H94.735L99.7942 27.3391L103.68 15.7864H109L103.106 31.2248C102.48 32.8938 101.698 33.8848 100.185 34.7454C99.2727 35.2669 97.6558 35.606 95.7521 35.5799C94.5003 35.5799 93.9266 35.5016 93.5094 35.4495V32.8156H95.6999C96.6127 32.8156 98.4121 31.0683 98.3599 29.7122H96.2215L89.3107 15.7603L89.2847 15.7864Z" fill="#231815"/>
<path fill-rule="evenodd" clip-rule="evenodd" d="M70.8999 38.0832C70.8999 38.5526 70.6391 38.9177 70.1436 39.2307C69.6481 39.5175 68.9701 39.674 68.1356 39.674C67.2489 39.674 66.5709 39.5175 66.1275 39.2046C65.6581 38.8917 65.4234 38.4483 65.4234 37.8746H66.2579C66.3101 38.2919 66.4926 38.6048 66.8317 38.8134C67.1707 39.022 67.6662 39.1003 68.3703 39.1003C68.8658 39.1003 69.2569 39.022 69.5699 38.8395C69.8828 38.657 70.0132 38.4222 70.0132 38.1354C70.0132 37.7703 69.6742 37.5095 68.9962 37.3791L67.0924 37.014C66.1536 36.8315 65.6842 36.4142 65.6842 35.7623C65.6842 35.2928 65.8928 34.9277 66.3362 34.6409C66.7795 34.354 67.3271 34.2236 68.0313 34.2236C69.8046 34.2236 70.6913 34.7713 70.7434 35.8405L69.8567 35.6058C69.8567 35.6058 69.622 35.1625 69.3613 35.0321C69.0483 34.8756 68.6571 34.7974 68.1356 34.7974C67.6922 34.7974 67.3271 34.8756 67.0142 35.0581C66.7013 35.2407 66.5709 35.4493 66.5709 35.7101C66.5709 36.0491 66.8838 36.2838 67.4836 36.4142L69.6742 36.8315C70.0654 36.9097 70.3522 37.0662 70.613 37.3009C70.8738 37.5617 70.9781 37.8224 70.9781 38.1354L70.8999 38.0832ZM63.7283 39.4915H62.7895V34.2758H63.7283V39.4915ZM61.1726 39.4915H60.0774C59.9991 39.335 59.947 39.1785 59.8948 38.996C59.8427 38.8134 59.8427 38.5266 59.8687 38.1875C59.8427 37.5617 59.4776 37.2487 58.7734 37.2487H56.4003V39.4915H55.4876V34.2758H58.7474C59.5558 34.2758 60.1556 34.4062 60.4946 34.693C60.7815 34.9277 60.9379 35.2928 60.9379 35.7623C60.9379 36.2317 60.625 36.5968 60.0252 36.9358C60.3381 37.0923 60.5728 37.2487 60.6511 37.353C60.7293 37.4313 60.7815 37.5877 60.8075 37.8224C60.8075 38.0311 60.8336 38.3962 60.8858 38.9177C60.9119 39.1003 61.0162 39.2568 61.2248 39.3611V39.5436L61.1726 39.4915ZM59.9991 35.6579C59.9991 35.4232 59.8948 35.2146 59.6601 35.0842C59.4254 34.9538 59.1385 34.8756 58.7734 34.8756H56.4003V36.675H58.7734C59.5819 36.675 59.9991 36.336 59.9991 35.684V35.6579ZM54.1576 39.4915H53.1405L52.4364 37.9268H49.7503L48.9941 39.4915H48.0292L50.5848 34.2758H51.6801L54.1315 39.4915H54.1576ZM52.1756 37.3791L51.1325 35.0842L49.985 37.3791H52.1495H52.1756ZM48.0813 35.7623C48.0813 36.2317 47.8727 36.5968 47.4815 36.8836C47.1164 37.1444 46.6731 37.2748 46.1515 37.2748H43.7523V39.4915H42.8135V34.2758H45.995C46.647 34.2758 47.1686 34.4062 47.5597 34.693C47.9248 34.9538 48.0813 35.3189 48.0813 35.7362V35.7623ZM47.1164 35.7623C47.1164 35.5275 47.0121 35.3189 46.7774 35.1364C46.5427 34.9538 46.2819 34.8756 45.969 34.8756H43.7262V36.7011H46.0733C46.308 36.7011 46.5166 36.6228 46.7252 36.4664C46.9599 36.2838 47.0903 36.0491 47.0903 35.7623H47.1164Z" fill="#231815"/>
</svg>
