<svg width="120" height="50" viewBox="0 0 120 50" fill="none" xmlns="http://www.w3.org/2000/svg">
<path d="M9.37272 16.8107C9.37272 13.313 12.2781 12.0719 15.5219 12.0719C16.0579 12.0719 17.0733 12.1283 17.6093 12.2129C17.6093 12.4668 17.3836 13.0592 16.5938 13.031C14.986 12.9463 11.2626 12.6925 11.2626 15.9927C11.2626 17.5723 12.5601 18.6724 13.5756 19.3212L15.7476 20.6751C17.44 21.7188 19.1325 23.2984 19.1325 25.8653C19.1325 28.8271 16.8759 30.858 13.3782 30.858C11.1216 30.858 9.37272 29.8425 8.78036 28.8271C7.7931 27.2757 8.69574 25.9217 9.40092 25.3294C9.82403 27.5295 11.2626 30.0118 13.7449 30.0118C16.0014 30.0118 17.1297 28.5168 17.1297 26.909C17.1297 25.7243 16.8759 24.3985 14.9014 23.1292L12.3345 21.4649C10.9805 20.5623 9.42913 19.0391 9.42913 16.8107" fill="#312115"/>
<path d="M35.8873 11C34.9282 11.2821 33.7153 12.4386 33.7153 14.4413V30.4913H35.7181V17.0082C35.7181 14.1028 35.7181 12.495 35.8873 11Z" fill="#312115"/>
<path d="M28.7232 26.9091C28.7232 29.0247 27.0025 29.476 25.9588 29.476C24.1254 29.476 23.4766 28.658 23.4766 26.7681V19.2367C22.4893 19.4906 21.4739 20.7599 21.4739 22.0574V27.4168C21.4739 29.2221 22.6868 30.7735 24.8023 30.7735C26.0999 30.7735 27.5949 30.2376 28.6103 29.3913C28.8642 29.1657 30.7259 27.7271 30.7259 24.5679V19.547V19.2649C29.7386 19.5188 28.7232 20.7881 28.7232 22.0856V26.9091Z" fill="#312115"/>
<path d="M58.6512 22.1138C58.6512 21.9445 58.6512 21.8317 58.7358 21.7471C58.7358 21.7471 58.8768 21.5778 59.0743 21.4368C59.6102 21.0983 60.4282 20.647 61.3309 20.647C63.0515 20.647 63.8977 21.8035 63.8977 23.5523V30.5195H65.8722V22.9036C65.8722 21.0137 64.9696 19.4341 62.4027 19.4341C61.0206 19.4341 59.6666 20.2521 58.7076 20.9573C58.6512 20.9573 58.6512 20.8726 58.6512 20.788V15.4004C58.6512 13.4823 58.6794 12.213 58.8204 11.0283C58.3127 11.1693 57.7485 11.5642 57.2972 12.1848C56.9023 12.6925 56.6484 13.3413 56.6484 14.0182V30.5195H58.6512V22.142V22.1138Z" fill="#312115"/>
<path d="M87.4507 25.2448C87.4507 28.6297 89.8765 30.8017 92.9793 30.8017C96.3642 30.8017 98.6772 28.3758 98.6772 24.9909C98.6772 21.6061 96.2232 19.4059 93.205 19.4059C90.0175 19.4059 87.4507 21.8317 87.4507 25.2448ZM89.7637 24.9063C89.7637 21.9445 91.0894 20.0264 92.8665 20.0264C95.4334 20.0264 96.3642 23.1575 96.3642 25.4705C96.3642 27.5578 95.6308 30.2657 93.2614 30.2657C90.892 30.2657 89.7919 27.3886 89.7919 24.9345" fill="#312115"/>
<path d="M100.426 25.2448C100.426 28.6297 102.852 30.8017 105.983 30.8017C109.368 30.8017 111.681 28.3758 111.681 24.9909C111.681 21.6061 109.227 19.4059 106.209 19.4059C103.021 19.4059 100.454 21.8317 100.454 25.2448M102.739 24.9063C102.739 21.9445 104.065 20.0264 105.842 20.0264C108.409 20.0264 109.34 23.1575 109.34 25.4705C109.34 27.5578 108.606 30.2657 106.237 30.2657C103.868 30.2657 102.767 27.3886 102.767 24.9345" fill="#312115"/>
<path d="M79.4113 22.4805C79.4113 19.8572 81.6679 19.3777 83.6706 19.3777C83.9527 19.3777 84.7989 19.4341 85.081 19.4623C85.081 19.7726 84.7707 20.2521 84.2348 20.2521C83.3321 20.2521 81.132 19.8008 81.132 21.8599C81.132 22.96 82.2603 23.5524 83.2193 24.0883C84.6579 24.9063 85.9836 25.809 85.9836 27.7271C85.9836 29.7862 84.0937 30.8017 82.091 30.8017C80.8217 30.8017 79.7498 30.4632 79.2703 29.7298C78.7061 28.8836 79.1575 28.1502 79.5524 27.6989C79.9191 29.1374 80.8499 30.0119 82.3731 30.0119C83.3603 30.0119 84.1784 29.4477 84.1784 28.2912C84.1784 27.0501 83.1065 26.3731 82.091 25.809C80.5114 24.9063 79.4113 23.9755 79.4113 22.4805Z" fill="#312115"/>
<path d="M69.3416 21.8317H71.2315C71.2315 21.8317 71.4289 20.5341 72.4726 20.2521C74.1369 19.8854 74.5882 21.606 74.5882 22.96V24.0883C74.024 24.4832 73.4599 24.6524 71.8521 24.9063C69.4544 25.273 68.439 26.232 68.439 28.1219C68.439 29.8708 69.5673 30.9427 71.4007 30.9427C72.5854 30.9427 73.6573 30.4067 74.5882 29.3913V30.6042H76.5627V22.6779C76.5627 19.9418 74.3907 19.5187 73.347 19.5187C72.1341 19.5187 70.0468 19.9982 69.3416 21.8317ZM70.1878 27.8963C70.1878 26.909 70.5263 26.2884 71.2879 25.8935C71.6264 25.7525 71.9085 25.6397 73.6291 25.2166C74.3907 25.0473 74.5035 25.0191 74.5882 24.9909V26.9654C74.5882 28.4604 73.7137 29.9272 72.1341 29.9272C71.0058 29.9272 70.1878 29.0528 70.1878 27.8681" fill="#312115"/>
<path d="M54.3915 19.7726C53.8838 19.688 52.9247 19.8854 52.276 21.5497L49.9347 27.5296L47.255 19.7444H45.8729L43.3342 27.5296L40.2596 19.7726H38.0876L42.4316 30.6324H42.9957L46.1267 22.0574L49.1731 30.6324H49.8219L52.9247 22.9036C53.4889 21.5215 54.0248 20.2239 54.3915 19.7726Z" fill="#312115"/>
<path d="M29.4281 35.1174V36.3303H30.8103V35.1174H31.2052V38.0228H30.8103V36.6688H29.4281V38.0228H29.0332V35.1174H29.4281Z" fill="#312115"/>
<path d="M33.7438 36.9508C33.7438 37.7124 33.2079 38.0509 32.7001 38.0509C32.136 38.0509 31.7129 37.6278 31.7129 36.979C31.7129 36.2738 32.1642 35.8789 32.7566 35.8789C33.3489 35.8789 33.772 36.302 33.772 36.9508H33.7438ZM32.0796 36.979C32.0796 37.4303 32.3335 37.7688 32.7001 37.7688C33.0668 37.7688 33.3207 37.4303 33.3207 36.9508C33.3207 36.5841 33.1515 36.1328 32.7001 36.1328C32.2488 36.1328 32.0514 36.5559 32.0514 36.9508L32.0796 36.979Z" fill="#312115"/>
<path d="M34.2236 34.9763H34.5903V38.0227H34.2236V34.9763Z" fill="#312115"/>
<path d="M35.6619 35.3431C35.6619 35.3431 35.5773 35.5687 35.408 35.5687C35.267 35.5687 35.1824 35.4559 35.1824 35.3431C35.1824 35.2303 35.2952 35.1174 35.408 35.1174C35.5491 35.1174 35.6337 35.2303 35.6337 35.3431H35.6619ZM35.2388 38.0228V35.9354H35.6055V38.0228H35.2388Z" fill="#312115"/>
<path d="M36.1979 37.6278C36.1979 37.6278 36.5082 37.7688 36.7057 37.7688C36.9877 37.7688 37.1006 37.6278 37.1006 37.4585C37.1006 37.2893 36.9877 37.1765 36.7057 37.0636C36.339 36.9226 36.1415 36.7251 36.1415 36.4713C36.1415 36.1328 36.4236 35.8507 36.8467 35.8507C37.0723 35.8507 37.2416 35.9071 37.3544 35.9917L37.2698 36.2738C37.2698 36.2738 37.0441 36.161 36.8467 36.161C36.621 36.161 36.5082 36.302 36.5082 36.4431C36.5082 36.6123 36.621 36.6969 36.9031 36.8098C37.2698 36.9508 37.439 37.12 37.439 37.4303C37.439 37.797 37.157 38.0509 36.6492 38.0509C36.4236 38.0509 36.1979 37.9945 36.0569 37.9098L36.1415 37.6278H36.1979Z" fill="#312115"/>
<path d="M38.3984 35.343V35.9353H38.9344V36.2174H38.3984V37.3457C38.3984 37.5995 38.483 37.7406 38.6805 37.7406C38.7933 37.7406 38.8497 37.7406 38.9061 37.7406V38.0227C38.9061 38.0227 38.7369 38.0791 38.5959 38.0791C38.4266 38.0791 38.2856 38.0227 38.1728 37.9098C38.0599 37.797 38.0317 37.5995 38.0317 37.3739V36.2456H37.7214V35.9635H38.0317V35.4558L38.3984 35.3712V35.343Z" fill="#312115"/>
<path d="M39.8081 35.3431C39.8081 35.3431 39.7235 35.5687 39.5543 35.5687C39.4132 35.5687 39.3286 35.4559 39.3286 35.3431C39.3286 35.2303 39.4132 35.1174 39.5543 35.1174C39.6953 35.1174 39.7799 35.2303 39.7799 35.3431H39.8081ZM39.385 38.0228V35.9354H39.7517V38.0228H39.385Z" fill="#312115"/>
<path d="M41.8675 37.938C41.8675 37.938 41.5572 38.0509 41.2751 38.0509C40.6546 38.0509 40.2314 37.6278 40.2314 36.979C40.2314 36.3302 40.6828 35.8789 41.3597 35.8789C41.5854 35.8789 41.7829 35.9353 41.8957 35.9917L41.8111 36.2738C41.8111 36.2738 41.5854 36.1892 41.3597 36.1892C40.8802 36.1892 40.6263 36.5559 40.6263 36.979C40.6263 37.4585 40.9366 37.7688 41.3597 37.7688C41.5854 37.7688 41.7264 37.7124 41.8393 37.656L41.8957 37.938H41.8675Z" fill="#312115"/>
<path d="M43.2499 35.1456C43.4191 35.1174 43.673 35.0892 43.9269 35.0892C44.2936 35.0892 44.5474 35.1456 44.7167 35.2866C44.8577 35.3995 44.9705 35.5687 44.9705 35.7944C44.9705 36.0764 44.7731 36.3303 44.491 36.4431C44.7731 36.5277 45.0834 36.7534 45.0834 37.1765C45.0834 37.4304 44.9987 37.6278 44.8295 37.7689C44.632 37.9663 44.2936 38.0509 43.814 38.0509C43.5602 38.0509 43.3627 38.0509 43.2217 38.0227V35.1738L43.2499 35.1456ZM43.6166 36.3585H43.9551C44.35 36.3585 44.5756 36.1611 44.5756 35.879C44.5756 35.5405 44.3218 35.3995 43.9269 35.3995C43.7576 35.3995 43.6448 35.3995 43.5884 35.3995V36.3303L43.6166 36.3585ZM43.6166 37.7407C43.6166 37.7407 43.7858 37.7407 43.9269 37.7407C44.3218 37.7407 44.6603 37.5996 44.6603 37.1765C44.6603 36.7816 44.3218 36.6124 43.8987 36.6124H43.5884V37.7125L43.6166 37.7407Z" fill="#312115"/>
<path d="M45.7885 37.0637C45.7885 37.5714 46.1269 37.7971 46.4936 37.7971C46.7757 37.7971 46.9168 37.7406 47.0578 37.6842L47.1142 37.9663C47.1142 37.9663 46.7475 38.1073 46.409 38.1073C45.7603 38.1073 45.3936 37.6842 45.3936 37.0637C45.3936 36.4431 45.7603 35.9354 46.3808 35.9354C47.0578 35.9354 47.2552 36.5277 47.2552 36.9226C47.2552 37.0072 47.2552 37.0637 47.2552 37.0919H45.7885V37.0637ZM46.9168 36.7816C46.9168 36.5277 46.8039 36.161 46.3808 36.161C45.9859 36.161 45.8167 36.5277 45.7885 36.7816H46.8885H46.9168Z" fill="#312115"/>
<path d="M48.8914 38.0227V37.7688H48.8632C48.7504 37.938 48.5247 38.0791 48.2144 38.0791C47.7913 38.0791 47.5657 37.7688 47.5657 37.4867C47.5657 36.979 48.017 36.6969 48.835 36.6969V36.6405C48.835 36.4713 48.7786 36.161 48.3555 36.161C48.158 36.161 47.9606 36.2174 47.8195 36.3302L47.7349 36.0764C47.9042 35.9635 48.158 35.8789 48.4119 35.8789C49.0607 35.8789 49.2017 36.302 49.2017 36.7251V37.5149C49.2017 37.6842 49.2017 37.8816 49.2299 38.0227H48.8914ZM48.835 36.9508C48.4119 36.9508 47.9606 37.0072 47.9606 37.4303C47.9606 37.6842 48.1298 37.797 48.3273 37.797C48.6093 37.797 48.7786 37.6278 48.835 37.4585C48.835 37.4303 48.835 37.3739 48.835 37.3457V36.979V36.9508Z" fill="#312115"/>
<path d="M51.5705 37.4586C51.5705 37.6843 51.5705 37.8535 51.5705 38.0228H51.232V37.6843H51.2038C51.1192 37.8535 50.8935 38.0792 50.5268 38.0792C50.1884 38.0792 49.7935 37.9099 49.7935 37.1765V35.9636H50.1602V37.1201C50.1602 37.515 50.273 37.7971 50.6115 37.7971C50.8653 37.7971 51.0346 37.6279 51.1192 37.4586C51.1192 37.4022 51.1474 37.3458 51.1474 37.2612V35.9918H51.5423V37.515L51.5705 37.4586Z" fill="#312115"/>
<path d="M52.6708 35.343V35.9353H53.2067V36.2174H52.6708V37.3457C52.6708 37.5995 52.7554 37.7406 52.9528 37.7406C53.0657 37.7406 53.1221 37.7406 53.1785 37.7406V38.0227C53.1785 38.0227 53.0092 38.0791 52.8682 38.0791C52.699 38.0791 52.5579 38.0227 52.4451 37.9098C52.3323 37.797 52.3041 37.5995 52.3041 37.3739V36.2456H51.9656V35.9635H52.3041V35.4558L52.6708 35.3712V35.343Z" fill="#312115"/>
<path d="M53.7991 35.9354L54.2504 37.1765C54.2504 37.1765 54.3632 37.4868 54.3914 37.5996C54.3914 37.5996 54.476 37.3175 54.5325 37.1765L54.9556 35.9636H55.3505L54.7863 37.4586C54.5043 38.1637 54.335 38.5304 54.0811 38.7561C53.8837 38.9253 53.7144 38.9818 53.6016 39.01L53.517 38.6997C53.517 38.6997 53.7427 38.6151 53.8555 38.5022C53.9683 38.4176 54.0811 38.2766 54.1658 38.0791C54.1658 38.0509 54.194 38.0227 54.194 37.9945C54.194 37.9663 54.194 37.9381 54.194 37.9099L53.4324 35.9918H53.8555L53.7991 35.9354Z" fill="#312115"/>
<path d="M56.648 38.0227V36.2175H56.366V35.9354H56.648V35.8226C56.648 35.5405 56.7045 35.2584 56.9019 35.0892C57.0429 34.9481 57.2404 34.8917 57.4096 34.8917C57.5507 34.8917 57.6635 34.9199 57.7199 34.9481L57.6635 35.2302C57.6635 35.2302 57.5225 35.1738 57.4096 35.1738C57.0712 35.1738 57.0147 35.4559 57.0147 35.7662V35.879H57.5225V36.1611H57.0147V37.9663H56.648V38.0227Z" fill="#312115"/>
<path d="M57.8894 36.5841C57.8894 36.3302 57.8894 36.1328 57.8894 35.9353H58.2279V36.3302H58.2561C58.3407 36.0481 58.5664 35.8789 58.8202 35.8789C58.8767 35.8789 58.9049 35.8789 58.9331 35.8789V36.2456C58.9331 36.2456 58.8485 36.2456 58.792 36.2456C58.5382 36.2456 58.3407 36.4431 58.2843 36.7251C58.2843 36.7815 58.2843 36.838 58.2843 36.8944V37.9945H57.9176V36.5559L57.8894 36.5841Z" fill="#312115"/>
<path d="M61.1329 36.9508C61.1329 37.7124 60.5969 38.0509 60.0892 38.0509C59.525 38.0509 59.0737 37.6278 59.0737 36.979C59.0737 36.2738 59.525 35.8789 60.1174 35.8789C60.7098 35.8789 61.1329 36.302 61.1329 36.9508ZM59.4686 36.979C59.4686 37.4303 59.7225 37.7688 60.1174 37.7688C60.5123 37.7688 60.738 37.4303 60.738 36.9508C60.738 36.5841 60.5687 36.1328 60.1174 36.1328C59.6661 36.1328 59.4686 36.5559 59.4686 36.9508V36.979Z" fill="#312115"/>
<path d="M61.6128 36.4995C61.6128 36.2738 61.6128 36.1046 61.6128 35.9353H61.9513V36.2738H61.9795C62.0923 36.0764 62.2898 35.8789 62.6283 35.8789C62.9103 35.8789 63.136 36.0481 63.2206 36.302C63.2206 36.302 63.3616 36.1046 63.4463 36.0199C63.5591 35.9353 63.7001 35.8789 63.8976 35.8789C64.1797 35.8789 64.5746 36.0481 64.5746 36.7815V38.0227H64.2079V36.838C64.2079 36.4431 64.0668 36.1892 63.7566 36.1892C63.5309 36.1892 63.3617 36.3584 63.3052 36.5277C63.3052 36.5841 63.277 36.6405 63.277 36.7251V38.0227H62.9103V36.7815C62.9103 36.4431 62.7693 36.2174 62.4872 36.2174C62.2616 36.2174 62.0641 36.4148 62.0077 36.5841C62.0077 36.6405 61.9795 36.6969 61.9795 36.7815V38.0509H61.6128V36.5277V36.4995Z" fill="#312115"/>
<path d="M66.6056 37.1202L66.2953 38.0228H65.9004L66.8876 35.1174H67.339L68.3262 38.0228H67.9313L67.621 37.1202H66.5774H66.6056ZM67.5646 36.8099L67.2826 35.9637C67.2261 35.7662 67.1697 35.597 67.1415 35.4277C67.0851 35.597 67.0569 35.7662 67.0005 35.9637L66.7184 36.8099H67.5928H67.5646Z" fill="#312115"/>
<path d="M68.6928 37.6278C68.6928 37.6278 69.0031 37.7688 69.2005 37.7688C69.4826 37.7688 69.5954 37.6278 69.5954 37.4585C69.5954 37.2893 69.4826 37.1765 69.2005 37.0636C68.8338 36.9226 68.6364 36.7251 68.6364 36.4713C68.6364 36.1328 68.9185 35.8507 69.3416 35.8507C69.5672 35.8507 69.7365 35.9071 69.8493 35.9917L69.7647 36.2738C69.7647 36.2738 69.539 36.161 69.3416 36.161C69.1159 36.161 69.0031 36.302 69.0031 36.4431C69.0031 36.6123 69.1159 36.6969 69.398 36.8098C69.7647 36.9508 69.9339 37.12 69.9339 37.4303C69.9339 37.797 69.6518 38.0509 69.1441 38.0509C68.9185 38.0509 68.6928 37.9945 68.5518 37.9098L68.6364 37.6278H68.6928Z" fill="#312115"/>
<path d="M70.8645 35.3431C70.8645 35.3431 70.7799 35.5687 70.6107 35.5687C70.4696 35.5687 70.385 35.4559 70.385 35.3431C70.385 35.2303 70.4696 35.1174 70.6107 35.1174C70.7517 35.1174 70.8363 35.2303 70.8363 35.3431H70.8645ZM70.4414 38.0228V35.9354H70.8081V38.0228H70.4414Z" fill="#312115"/>
<path d="M72.6135 38.0227V37.7688H72.5571C72.4442 37.938 72.2186 38.0791 71.9083 38.0791C71.4852 38.0791 71.2595 37.7688 71.2595 37.4867C71.2595 36.979 71.7108 36.6969 72.5289 36.6969V36.6405C72.5289 36.4713 72.4724 36.161 72.0493 36.161C71.8519 36.161 71.6544 36.2174 71.5134 36.3302L71.4288 36.0764C71.598 35.9635 71.8519 35.8789 72.1057 35.8789C72.7545 35.8789 72.8955 36.302 72.8955 36.7251V37.5149C72.8955 37.6842 72.8955 37.8816 72.9238 38.0227H72.5853H72.6135ZM72.5571 36.9508C72.1339 36.9508 71.6826 37.0072 71.6826 37.4303C71.6826 37.6842 71.8519 37.797 72.0493 37.797C72.3314 37.797 72.5006 37.6278 72.5571 37.4585C72.5571 37.4303 72.5571 37.3739 72.5571 37.3457V36.979V36.9508Z" fill="#312115"/>
<path d="M73.5444 36.4995C73.5444 36.2738 73.5444 36.1046 73.5444 35.9353H73.8829V36.2738H73.9111C74.024 36.0764 74.2496 35.8789 74.5881 35.8789C74.8702 35.8789 75.3215 36.0481 75.3215 36.7533V37.9945H74.9548V36.7815C74.9548 36.4431 74.842 36.161 74.4753 36.161C74.2214 36.161 74.024 36.3302 73.9675 36.5559C73.9675 36.6123 73.9675 36.6687 73.9675 36.7251V37.9663H73.6008V36.4431L73.5444 36.4995Z" fill="#312115"/>
<path d="M77.1833 38.0227L76.45 35.1174H76.8449L77.1833 36.5842C77.268 36.9509 77.3526 37.3176 77.409 37.5996C77.4654 37.3176 77.55 36.9509 77.6347 36.5842L78.0296 35.1174H78.4245L78.7912 36.5842C78.8758 36.9227 78.9604 37.2611 78.9886 37.5714C79.045 37.2611 79.1296 36.9227 79.2143 36.556L79.6092 35.0892H80.0041L79.1861 37.9945H78.7912L78.4245 36.4713C78.3398 36.1046 78.2834 35.8226 78.227 35.5123C78.1706 35.7944 78.1142 36.0764 78.0014 36.4713L77.5782 37.9945H77.1833V38.0227Z" fill="#312115"/>
<path d="M80.6807 35.3431C80.6807 35.3431 80.5961 35.5687 80.4268 35.5687C80.2858 35.5687 80.2012 35.4559 80.2012 35.3431C80.2012 35.2303 80.2858 35.1174 80.4268 35.1174C80.5679 35.1174 80.6525 35.2303 80.6525 35.3431H80.6807ZM80.2576 38.0228V35.9354H80.6243V38.0228H80.2576Z" fill="#312115"/>
<path d="M81.2168 37.6278C81.2168 37.6278 81.5271 37.7688 81.7246 37.7688C82.0066 37.7688 82.1195 37.6278 82.1195 37.4585C82.1195 37.2893 82.0066 37.1765 81.7246 37.0636C81.3579 36.9226 81.1604 36.7251 81.1604 36.4713C81.1604 36.1328 81.4425 35.8507 81.8938 35.8507C82.0913 35.8507 82.2887 35.9071 82.4015 35.9917L82.3169 36.2738C82.3169 36.2738 82.0913 36.161 81.8938 36.161C81.6681 36.161 81.5553 36.302 81.5553 36.4431C81.5553 36.6123 81.6681 36.6969 81.9502 36.8098C82.3169 36.9508 82.4862 37.12 82.4862 37.4303C82.4862 37.797 82.2041 38.0509 81.6964 38.0509C81.4707 38.0509 81.245 37.9945 81.104 37.9098L81.1886 37.6278H81.2168Z" fill="#312115"/>
<path d="M84.7993 34.9764V37.4868C84.7993 37.6843 84.7993 37.8817 84.7993 38.0228H84.4608V37.6561C84.348 37.8817 84.0942 38.0792 83.7557 38.0792C83.2479 38.0792 82.853 37.6561 82.853 37.0073C82.853 36.3021 83.2761 35.879 83.7839 35.879C84.0941 35.879 84.3198 36.0201 84.4044 36.1893V34.9482H84.7711L84.7993 34.9764ZM84.4044 36.7817C84.4044 36.7817 84.4044 36.6688 84.4044 36.6124C84.348 36.3585 84.1506 36.1611 83.8685 36.1611C83.4736 36.1611 83.2479 36.4996 83.2479 36.9791C83.2479 37.4022 83.4454 37.7407 83.8685 37.7407C84.1224 37.7407 84.348 37.5715 84.4326 37.2894C84.4326 37.233 84.4326 37.1766 84.4326 37.1201V36.7535L84.4044 36.7817Z" fill="#312115"/>
<path d="M87.3094 36.9508C87.3094 37.7124 86.7734 38.0509 86.2657 38.0509C85.7016 38.0509 85.2502 37.6278 85.2502 36.979C85.2502 36.2738 85.7016 35.8789 86.2939 35.8789C86.8863 35.8789 87.3094 36.302 87.3094 36.9508ZM85.6451 36.979C85.6451 37.4303 85.899 37.7688 86.2939 37.7688C86.6888 37.7688 86.9145 37.4303 86.9145 36.9508C86.9145 36.5841 86.7452 36.1328 86.2939 36.1328C85.8426 36.1328 85.6451 36.5559 85.6451 36.9508V36.979Z" fill="#312115"/>
<path d="M87.7893 36.4995C87.7893 36.2738 87.7893 36.1046 87.7893 35.9353H88.1278V36.2738H88.156C88.2688 36.0764 88.4663 35.8789 88.8048 35.8789C89.0868 35.8789 89.3125 36.0481 89.3971 36.302C89.3971 36.302 89.5382 36.1046 89.6228 36.0199C89.7356 35.9353 89.8766 35.8789 90.0741 35.8789C90.3562 35.8789 90.7511 36.0481 90.7511 36.7815V38.0227H90.3844V36.838C90.3844 36.4431 90.2433 36.1892 89.9331 36.1892C89.7074 36.1892 89.5382 36.3584 89.4817 36.5277C89.4817 36.5841 89.4535 36.6405 89.4535 36.7251V38.0227H89.0868V36.7815C89.0868 36.4431 88.9458 36.2174 88.6637 36.2174C88.4381 36.2174 88.2688 36.4148 88.1842 36.5841C88.1842 36.6405 88.156 36.6969 88.156 36.7815V38.0509H87.7893V36.5277V36.4995Z" fill="#312115"/>
</svg>
