<svg width="167" height="50" viewBox="0 0 167 50" fill="none" xmlns="http://www.w3.org/2000/svg">
<path d="M3.53662 13.421V17.1262H11.4945V36.5789H15.4945V17.1262H23.3261V13.421H3.53662Z" fill="#231815"/>
<path d="M97.306 17.1262H84.085V23.9473H96.3797V27.6526H84.085V36.5789H80.085V13.421H97.306V17.1262Z" fill="#231815"/>
<path d="M132.884 17.1262H127.453V23.9473H132.884C136.084 23.9473 137.81 22.5999 137.81 20.4104C137.81 17.8841 135.916 17.1262 132.884 17.1262ZM138.316 36.5789L132.589 27.6526H127.495V36.5789H123.495V13.421H133.684C139.116 13.421 141.979 15.9473 141.979 20.2841C141.979 24.242 139.747 26.2631 136.884 26.9368L143.116 36.5789H138.316Z" fill="#231815"/>
<path d="M152.168 17.1262H147.537V32.8736H152.168C157.095 32.8736 160.126 29.6736 160.126 25.042C160.126 20.4104 157.095 17.1262 152.168 17.1262ZM152.168 36.5789H143.537V13.421H152.168C159.663 13.421 164.463 18.221 164.463 24.9578C164.463 31.6947 159.832 36.5789 152.168 36.5789Z" fill="#231815"/>
<path d="M58.4002 36.5789L52.1686 19.9894V36.5789H48.2107V13.421H53.937L59.537 28.2841L65.2634 13.421H70.9897V36.5789H67.0318V19.9473L60.6318 36.5789H58.4002Z" fill="#231815"/>
<path d="M34.485 16.7474C29.8534 16.7474 26.6534 20.3684 26.6534 24.9579C26.6534 29.5474 29.8534 33.2106 34.485 33.2106C39.1166 33.2106 42.3166 29.5895 42.3166 25C42.3166 20.4105 39.1166 16.7474 34.485 16.7474ZM34.485 37.0001C27.4534 37.0001 22.3586 31.6948 22.3586 25C22.3586 18.3053 27.4534 13 34.485 13C41.5166 13 46.6113 18.3053 46.6113 25C46.6113 31.6948 41.685 37.0001 34.485 37.0001Z" fill="#231815"/>
<path d="M109.769 16.7474C105.137 16.7474 101.937 20.3684 101.937 24.9579C101.937 29.5474 105.306 33.2106 109.769 33.2106C114.232 33.2106 117.6 29.5895 117.6 25C117.6 20.4105 114.4 16.7474 109.769 16.7474ZM109.769 37.0001C102.737 37.0001 97.6423 31.6948 97.6423 25C97.6423 18.3053 102.737 13 109.769 13C116.8 13 121.895 18.3053 121.895 25C121.895 31.6948 116.969 37.0001 109.769 37.0001Z" fill="#231815"/>
</svg>
