<svg width="129" height="50" viewBox="0 0 129 50" fill="none" xmlns="http://www.w3.org/2000/svg">
<path d="M76.5174 25.232H79.0914L78.1394 21.0713L76.5174 25.232ZM72.533 32.2488C72.533 32.2488 72.9209 31.6141 73.062 31.3673L79.0209 17.7216L81.7359 31.1557C81.7359 31.1557 82.0533 32.143 82.2296 32.2488H80.8192C80.7134 31.8609 79.2677 25.902 79.2677 25.902H76.2354C76.2354 25.902 73.8377 32.0725 73.7671 32.2488H72.533ZM84.3452 28.3702C84.3452 33.1656 89.2111 33.3066 89.2463 28.0881V18.4974H90.6215C90.2689 18.8147 90.1631 20.2604 90.0926 21.4239C90.0926 21.8471 89.8457 27.806 89.8105 28.4054C89.4579 34.8228 83.3579 33.906 83.0758 28.9696C83.0758 28.4407 82.9348 20.1898 82.8995 19.9078C82.8995 19.2378 82.7232 18.6737 82.4764 18.5326H84.3452V28.3702ZM91.785 18.5679C102.046 16.8049 99.507 25.0557 95.9457 25.8315C95.9457 25.8315 100.247 32.002 100.424 32.284C100.424 32.2488 100.318 19.943 100.318 19.943C100.318 18.9557 99.9301 18.5326 99.9301 18.5326H106.065V19.943C106.065 19.943 104.761 19.2026 101.869 19.1673L101.764 25.1615H106.065V26.0078H101.764V31.4731C101.764 31.8962 102.081 31.8609 102.293 31.8609C105.113 31.8609 106.841 31.1205 106.841 31.1205L106.347 32.4251C106.347 32.4251 100.953 32.4251 100.6 32.4251C100.776 32.7777 102.222 34.5407 103.139 35.2459C102.68 35.0343 100.741 34.2234 100.036 33.3066C99.7891 33.0245 94.6411 26.6424 94.2532 26.1135C99.507 24.9852 97.744 17.7569 93.7596 18.991L93.1955 32.284H91.6087C91.7145 32.0725 91.8203 31.6494 91.8908 31.191L92.1729 20.0488C92.1729 19.2731 91.9966 18.85 91.8203 18.5679M50.6718 32.284L50.4955 19.6609C50.4955 19.2026 50.2839 18.7089 50.0371 18.4621H51.9764L51.8706 31.4731C51.8706 31.6494 52.0469 32.2135 52.1527 32.284H50.7071M53.3868 18.4621H55.4319L62.907 30.521V18.4621H72.0041L72.7446 14.4072C72.8151 13.8783 72.8151 13.5257 72.6036 13.2083H74.7192L70.2059 35.3517C70.1001 35.8453 70.1354 36.3037 70.8406 36.3037C73.0972 36.339 77.7163 35.8806 79.5498 35.1401L78.7036 36.9031H68.3371C68.5134 36.6563 68.6544 36.1979 68.7955 35.5632L71.7221 19.6609C70.5937 19.1673 69.2539 19.1673 67.9845 19.1673L67.6319 31.191C67.6319 31.6494 67.7024 31.9667 67.7729 32.2488H66.1862C66.292 31.8962 66.3273 31.6141 66.3625 31.1205L66.292 19.132H64.3174C63.6828 19.132 63.7885 19.8372 63.7885 20.1193L63.2596 33.3771L54.6915 20.5424V32.2488H53.5631C53.6689 32.0725 53.8452 31.4378 53.8452 30.9794L54.1626 19.7315L53.3163 18.4268M125 18.6031V19.5904C123.872 19.2026 123.061 19.2026 121.791 19.2026L121.404 31.5083C121.404 31.9314 121.404 32.1077 121.509 32.4251H119.993C120.064 32.1077 120.134 31.9667 120.169 31.4731L120.099 19.1673H117.948C117.278 19.1673 117.278 19.9783 117.278 20.2604C117.278 20.2604 116.855 33.0245 116.855 33.5182C116.714 33.2713 108.287 20.6835 108.287 20.6835V32.3898C108.287 32.3898 107.511 32.3898 107.264 32.3898C107.405 32.002 107.405 31.6141 107.441 31.1205C107.441 31.1205 107.758 20.2251 107.758 19.8725C107.652 19.7315 107.017 18.7442 106.912 18.5679H108.957L116.432 30.6268V18.5679H124.965M44.2545 25.1615H46.6874L45.8059 21.2124L44.2545 25.1615ZM43.9371 26.0078L40.8695 33.6592C38.7892 38.6309 33.8528 38.3488 30.503 34.7875L31.0319 32.8129C35.4395 41.1696 42.8441 34.6112 38.9302 28.7933L33.1828 20.8245C29.2689 15.5355 26.9065 21.1419 29.0574 23.1869L32.3013 26.043C34.6637 28.0176 33.888 32.2135 30.8204 32.5661C29.41 32.7424 27.788 32.002 26.8007 31.2262L26.5187 32.284H20.2071C20.3129 32.0372 20.4539 31.6141 20.4539 31.2615V19.0615C20.4539 18.85 20.3129 18.8147 20.2424 18.991L14.7065 32.8835L12.2736 20.2956C12.2031 19.9783 12.0268 20.2956 12.0268 20.2956C11.6036 20.9656 9.80538 23.9274 9.48804 24.4563C9.24122 24.8442 9.13544 25.091 8.95914 25.6904C8.85336 26.0078 6.87879 35.3517 6.80827 35.7043C6.73775 36.0216 6.80827 36.7268 6.98458 36.8679H5.01001C5.01001 36.8679 5.39787 36.3742 5.46839 36.0216L7.01984 26.5719C7.37244 24.7031 6.91405 22.8343 6.91405 22.8343C5.96203 16.2407 5.75047 13.3846 5.22157 12.9263H6.84354C6.8788 13.2789 8.78284 23.6806 8.88862 24.1742C8.78284 24.3858 15.1296 13.0321 15.1296 13.0321H16.7869C16.7869 13.0321 15.9759 13.9488 15.7996 14.1604C15.6586 14.3719 13.684 17.5101 13.4372 17.9332L15.3412 29.8511L19.4314 18.3563H26.2718V19.6609C25.5314 19.2378 22.9221 18.7089 21.8996 18.85L21.7938 24.6326C21.7938 24.95 21.7938 24.9852 22.0406 24.9852H26.2718V25.7962H21.7585L21.6175 31.4025C21.6175 31.7904 21.8643 31.8257 22.0759 31.8257C23.8389 31.8962 25.5314 31.6494 26.7302 31.0147L27.0123 29.7453C28.3874 31.6846 29.4805 32.3898 30.9262 31.8962C32.3013 31.4378 33.6412 29.2164 31.1025 27.1713L28.6343 25.1263C25.214 22.0939 28.1054 15.5708 32.936 18.85C32.936 13.1731 39.1065 10.317 43.4787 14.654L43.0556 16.5228C39.177 9.1887 32.125 15.2182 35.4042 20.4367L40.0233 27.5239C41.0458 29.0401 41.2574 30.1684 41.2574 30.1684L46.7227 17.9685L49.4377 31.2262C49.5435 31.6494 49.7198 32.0725 49.8608 32.2488H48.3094L46.8637 25.9725H43.9371" fill="#040000"/>
</svg>
