<svg width="495" height="112" viewBox="0 0 495 112" fill="none" xmlns="http://www.w3.org/2000/svg">
<g clip-path="url(#clip0_257_22)">
<path d="M55.9 0C71.34 0 85.31 6.26 95.42 16.37C105.54 26.49 111.79 40.46 111.79 55.89C111.79 71.32 105.53 85.3 95.42 95.41C85.3 105.53 71.33 111.78 55.9 111.78C40.47 111.78 26.49 105.52 16.38 95.41C6.26 85.31 0 71.33 0 55.9C0 40.47 6.26 26.49 16.37 16.37C26.49 6.26 40.46 0 55.9 0ZM94.18 17.61C84.39 7.81 70.85 1.75 55.9 1.75C40.95 1.75 27.41 7.81 17.61 17.61C7.81 27.41 1.75 40.94 1.75 55.9C1.75 70.86 7.81 84.39 17.61 94.19C27.41 103.99 40.95 110.05 55.9 110.05C70.85 110.05 84.39 103.99 94.19 94.19C103.99 84.39 110.05 70.85 110.05 55.9C110.05 40.95 103.99 27.41 94.19 17.61H94.18Z" fill="#19316C"/>
<path fill-rule="evenodd" clip-rule="evenodd" d="M55.9 15.4199C78.25 15.4199 96.37 33.5399 96.37 55.8899C96.37 78.2399 78.25 96.3599 55.9 96.3599C33.55 96.3599 15.42 78.2499 15.42 55.8999C15.42 33.5499 33.54 15.4199 55.9 15.4199ZM45.16 85.5899V84.8999L47.42 82.6999L47.44 82.6799C47.86 82.2299 48.07 81.8899 48.07 81.6399C48.07 81.4399 48 81.2799 47.85 81.1499C47.7 81.0199 47.51 80.9599 47.27 80.9599C47.06 80.9599 46.87 81.0199 46.72 81.1499C46.56 81.2799 46.46 81.4499 46.41 81.6599L45.16 81.6799C45.26 80.8999 45.67 80.3699 46.04 80.1299C46.41 79.8999 46.85 79.7799 47.35 79.7799C47.95 79.7799 48.45 79.9499 48.86 80.2899C49.27 80.6299 49.47 81.0599 49.47 81.5699C49.47 81.8799 49.38 82.2099 49.19 82.5399C49.01 82.8699 48.72 83.2299 48.34 83.6199L47.52 84.4399H49.76V85.5899H45.15H45.16ZM52.33 82.7799C52.33 83.3399 52.4 83.7699 52.55 84.0899C52.69 84.3999 52.89 84.5599 53.15 84.5599C53.41 84.5599 53.61 84.3999 53.75 84.0899C53.9 83.7799 53.97 83.3399 53.97 82.7799C53.97 82.2199 53.9 81.7799 53.76 81.4699C53.62 81.1599 53.41 80.9999 53.16 80.9999C52.91 80.9999 52.71 81.1599 52.56 81.4699C52.41 81.7899 52.34 82.2199 52.34 82.7799H52.33ZM50.9 82.7799C50.9 81.8399 51.1 81.1099 51.5 80.5799C51.9 80.0499 52.45 79.7899 53.14 79.7899C53.83 79.7899 54.39 80.0499 54.79 80.5799C55.19 81.1099 55.39 81.8399 55.39 82.7799C55.39 83.7199 55.19 84.4499 54.79 84.9799C54.39 85.5099 53.84 85.7699 53.14 85.7699C52.44 85.7699 51.89 85.5099 51.5 84.9799C51.1 84.4499 50.9 83.7199 50.9 82.7799ZM57.95 82.7799C57.95 83.3399 58.02 83.7699 58.17 84.0899C58.31 84.3999 58.51 84.5599 58.77 84.5599C59.03 84.5599 59.23 84.3999 59.37 84.0899C59.52 83.7799 59.59 83.3399 59.59 82.7799C59.59 82.2199 59.52 81.7799 59.38 81.4699C59.24 81.1599 59.03 80.9999 58.78 80.9999C58.53 80.9999 58.33 81.1599 58.18 81.4699C58.03 81.7899 57.96 82.2199 57.96 82.7799H57.95ZM56.52 82.7799C56.52 81.8399 56.72 81.1099 57.12 80.5799C57.52 80.0499 58.07 79.7899 58.76 79.7899C59.45 79.7899 60.01 80.0499 60.41 80.5799C60.81 81.1099 61.01 81.8399 61.01 82.7799C61.01 83.7199 60.81 84.4499 60.41 84.9799C60.01 85.5099 59.46 85.7699 58.76 85.7699C58.06 85.7699 57.51 85.5099 57.12 84.9799C56.72 84.4499 56.52 83.7199 56.52 82.7799ZM63.57 82.7799C63.57 83.3399 63.64 83.7699 63.79 84.0899C63.93 84.3999 64.13 84.5599 64.39 84.5599C64.65 84.5599 64.85 84.3999 64.99 84.0899C65.14 83.7799 65.21 83.3399 65.21 82.7799C65.21 82.2199 65.14 81.7799 65 81.4699C64.86 81.1599 64.65 80.9999 64.4 80.9999C64.15 80.9999 63.95 81.1599 63.8 81.4699C63.65 81.7899 63.58 82.2199 63.58 82.7799H63.57ZM62.14 82.7799C62.14 81.8399 62.34 81.1099 62.74 80.5799C63.14 80.0499 63.69 79.7899 64.38 79.7899C65.07 79.7899 65.63 80.0499 66.03 80.5799C66.43 81.1099 66.63 81.8399 66.63 82.7799C66.63 83.7199 66.43 84.4499 66.03 84.9799C65.63 85.5099 65.08 85.7699 64.38 85.7699C63.68 85.7699 63.13 85.5099 62.74 84.9799C62.34 84.4499 62.14 83.7199 62.14 82.7799ZM43.19 26.1899C43.19 26.1899 51.77 26.7699 45.51 33.9499C41.79 38.2199 33.11 43.6799 32.76 44.2599C32.88 44.4899 50.78 37.0399 53.74 32.4399C58.52 24.9999 43.19 26.1799 43.19 26.1799V26.1899ZM67.53 39.6299C67.53 39.6299 79.45 43.8199 63.19 56.5599C54.08 63.6999 38.62 73.0999 28.88 77.7599C42.73 72.9799 71.12 60.0699 79.18 52.0699C92.01 39.3399 67.52 39.6299 67.52 39.6299H67.53ZM54.9 31.3199C54.9 31.3199 64.4 32.7599 54.87 42.8499C49.1 48.9599 32.74 57.8899 31.64 58.7499C41.78 55.6199 61.3 46.5899 66.4 40.2699C75.58 28.8799 54.91 31.3199 54.91 31.3199H54.9Z" fill="#19316D"/>
<path d="M10.0899 51.6099L10.2599 50.3099L8.52994 50.7699L10.0899 51.6199V51.6099ZM12.4899 47.7699L12.7899 47.8099L12.3999 50.6999L11.9899 50.6499L12.0199 50.4499C12.0399 50.2499 12.0199 50.0999 11.9899 50.0199C11.9699 49.9699 11.9299 49.9399 11.8899 49.9399H11.8799C11.7799 49.9399 11.6299 49.9499 11.4499 49.9899C11.2799 50.0299 11.0699 50.0799 10.8299 50.1499L10.5999 51.8599C10.8499 52.0199 11.0599 52.1399 11.2099 52.2199C11.3599 52.2999 11.4599 52.3399 11.4899 52.3399H11.5099C11.5099 52.3399 11.5999 52.3199 11.6499 52.2499C11.7099 52.1599 11.7799 52.0199 11.8299 51.8299L11.8499 51.6999L12.2599 51.7499L12.0099 53.6399L11.5999 53.5899V53.4799C11.6299 53.3399 11.5799 53.2099 11.4599 53.0699C11.3299 52.9199 11.1099 52.7799 10.8199 52.6499C9.76994 52.2299 7.54994 50.7899 6.43994 50.1599L6.48994 49.7899L11.1699 48.5199L11.3599 48.4699C11.7399 48.3699 12.0199 48.2599 12.1999 48.1499C12.3399 48.0599 12.3999 47.9799 12.3799 47.9099L12.3399 47.7499L12.4999 47.7699H12.4899ZM12.8299 46.7999L12.5399 46.7199L12.5799 46.5199C12.6099 46.3199 12.5999 46.1699 12.5399 46.0599C12.4899 45.9599 12.3799 45.8899 12.2399 45.8499C11.0299 45.5899 9.62994 45.1299 8.40994 44.7899C8.16994 44.8999 7.99994 44.9999 7.86994 45.0799C7.76994 45.1499 7.71994 45.1899 7.70994 45.2099V45.3399L7.27994 45.2199L7.78994 43.3699L11.7599 41.6199L9.61994 41.0299C9.38994 40.9499 9.20994 40.9399 9.06994 41.0199C8.92994 41.0899 8.80994 41.2499 8.73994 41.4899L8.70994 41.5899L8.31994 41.4799L8.85994 39.5399L9.24994 39.6499L9.22994 39.7699C9.19994 39.9699 9.20994 40.1199 9.27994 40.2299C9.33994 40.3299 9.44994 40.3999 9.61994 40.4299C10.8999 40.6399 13.0799 41.3799 14.4299 41.7599L14.3299 42.1299L9.25994 44.4199C10.2599 44.6999 11.3099 44.9499 12.2899 45.2599C12.4799 45.3099 12.6299 45.3099 12.7499 45.2399C12.8699 45.1799 12.9699 45.0499 13.0299 44.8699L13.0899 44.6599L13.4899 44.7699L12.9299 46.7999L12.8299 46.7699V46.7999ZM17.2499 34.3399L17.5299 34.4699C17.0999 35.3899 16.6799 36.3199 16.2599 37.2499L15.8899 37.0799L15.9799 36.8599C16.0399 36.6799 16.0499 36.5399 16.0199 36.4299C15.9899 36.3299 15.9199 36.2599 15.7999 36.2099C15.2699 36.0099 14.6499 35.6899 14.1199 35.4499L13.3799 37.0599C13.9099 37.2999 14.5599 37.5599 15.0599 37.8299C15.1699 37.8899 15.2799 37.8899 15.3699 37.8499C15.4799 37.7999 15.5799 37.6999 15.6699 37.5399L15.7799 37.3299L16.1499 37.4999L14.8799 40.2699L14.5099 40.0999L14.5899 39.8899C14.6499 39.7199 14.6599 39.5799 14.6199 39.4699C14.5899 39.3699 14.5099 39.2999 14.3999 39.2499C13.1799 38.7999 11.9099 38.0299 10.6899 37.5599C10.5399 37.4799 10.4099 37.4699 10.2899 37.5199C10.1699 37.5699 10.0599 37.6999 9.96994 37.9099L9.92994 38.0099L9.55994 37.8399L10.8299 35.0699L11.1999 35.2399L11.1599 35.3399C11.0599 35.5499 11.0299 35.7299 11.0699 35.8599C11.0999 35.9799 11.1999 36.0699 11.3599 36.1399L12.8399 36.8199L13.5799 35.2099L12.0599 34.5099C11.9299 34.4499 11.8099 34.4399 11.7099 34.4899C11.5999 34.5399 11.4999 34.6499 11.4099 34.8199L11.3299 34.9999L10.9499 34.8299L12.2199 32.0599L12.5899 32.2299L12.5399 32.3299C12.4499 32.5299 12.4199 32.6999 12.4599 32.8199C12.4899 32.9399 12.5899 33.0299 12.7499 33.0899C13.8799 33.5899 15.4099 34.2099 16.4599 34.7899C16.5699 34.8499 16.6799 34.8599 16.7699 34.8199C16.8699 34.7799 16.9699 34.6799 17.0699 34.5199L17.1699 34.3199L17.2599 34.3599L17.2499 34.3399ZM16.6899 25.5299L16.9299 25.6999L16.8699 25.7899C16.7599 25.9699 16.7099 26.1199 16.7399 26.2499C16.7699 26.3799 16.8699 26.4899 17.0399 26.5899C17.7199 26.9999 18.5599 27.6699 19.2299 28.1399C19.5399 28.3799 19.7899 28.5999 19.9699 28.8299C20.1499 29.0599 20.2699 29.2799 20.3099 29.5099C20.3499 29.7799 20.3199 30.0599 20.2399 30.3499C20.1599 30.6399 20.0099 30.9299 19.8099 31.2399C19.5899 31.5499 19.3599 31.7999 19.1299 31.9999C18.8899 32.1999 18.6499 32.3299 18.3999 32.4099C18.1399 32.4999 17.8599 32.4999 17.5799 32.4299C17.2999 32.3599 17.0099 32.2099 16.7199 31.9899L14.4499 30.3799C14.4499 30.3799 14.3599 30.3099 14.3199 30.2799C14.1899 30.1899 14.0599 30.1599 13.9599 30.1699C13.8499 30.1799 13.7499 30.2499 13.6599 30.3599L13.5799 30.4599L13.5199 30.5599L13.1799 30.3199C13.7699 29.4899 14.3499 28.6599 14.9399 27.8299L15.2899 28.0699L15.2099 28.1599C15.1399 28.2399 15.0899 28.3099 15.0499 28.3799C14.9899 28.4999 14.9599 28.5999 14.9799 28.6999C14.9999 28.7899 15.0499 28.8799 15.1499 28.9699C15.2099 29.0199 15.2799 29.0699 15.3599 29.1099C16.0399 29.4999 16.9599 30.2399 17.6299 30.7199C18.0499 31.0299 18.4099 31.1799 18.7299 31.1699C19.0299 31.1699 19.2899 31.0099 19.5099 30.6999C19.7899 30.3099 19.8799 29.9499 19.7799 29.6099C19.6899 29.2599 19.3999 28.9299 18.9199 28.6199C18.2399 28.1699 17.4999 27.6299 16.8399 27.1399C16.6499 26.9799 16.4699 26.9099 16.3099 26.9399C16.1499 26.9599 15.9899 27.0799 15.8399 27.2999L15.7799 27.3899L15.4399 27.1499L16.6199 25.4799L16.7099 25.5399L16.6899 25.5299ZM23.8299 25.5799L24.0599 25.7799C23.3699 26.5699 22.6899 27.3699 21.9999 28.1699L21.6899 27.8999L21.8399 27.6999C21.9499 27.5399 22.0099 27.3999 22.0099 27.2799C22.0099 27.1799 21.9599 27.0799 21.8699 27.0099C20.9499 26.3299 19.6399 25.1399 18.7799 24.3499C18.6599 24.2299 18.5299 24.1899 18.4099 24.2099C18.2699 24.2399 18.1199 24.3399 17.9599 24.5299L17.8899 24.6099L17.5799 24.3399L19.6399 21.9499L19.9499 22.2199L19.8399 22.3499C19.6899 22.5299 19.6099 22.6799 19.6099 22.8199C19.6099 22.9499 19.6699 23.0599 19.8099 23.1699C20.7899 23.9799 21.9299 24.9399 22.8499 25.7999C22.9699 25.9199 23.0999 25.9599 23.2299 25.9299C23.3699 25.8999 23.5299 25.7899 23.6999 25.5899L23.7699 25.5099L23.8499 25.5799H23.8299ZM26.7799 15.7699L27.0099 16.0599L26.8399 16.0899C26.6499 16.1299 26.5299 16.3799 26.4599 16.8399C26.3899 17.3299 26.4099 18.0399 26.4999 18.9699L29.0799 19.8999C29.3599 19.9999 29.5799 20.0599 29.7499 20.0699C29.8999 20.0699 29.9899 20.0499 30.0399 19.9999L30.1299 19.8999L30.3999 20.2399L27.9999 22.1199L27.7499 21.7999L27.9799 21.5899C28.0799 21.4899 28.1399 21.4099 28.1599 21.3499C28.1799 21.3099 28.1799 21.2799 28.1599 21.2599C28.1099 21.2099 28.0599 21.1699 27.9999 21.1299C27.9399 21.0999 27.8799 21.0699 27.8099 21.0499L26.4599 20.5699V20.9499C26.4599 21.4199 26.4799 21.7899 26.5099 22.0299C26.5299 22.2299 26.5499 22.3299 26.5499 22.3299H26.5899L26.6199 22.3899C26.6499 22.4299 26.6899 22.4399 26.7499 22.4399C26.8399 22.4399 26.9499 22.3799 27.0899 22.2899L27.2899 22.1499L27.5399 22.4699L25.7299 23.8899L25.4799 23.5699L25.6099 23.4699C25.7099 23.3499 25.7899 23.2199 25.8399 23.0899C25.8899 22.9499 25.9199 22.8099 25.9099 22.6599L25.9399 20.3899L23.1899 19.5099C23.0299 19.4499 22.8799 19.4199 22.7599 19.4199C22.6399 19.4199 22.5399 19.4599 22.4599 19.5299L22.3799 19.5999L22.1299 19.2799L24.5799 17.3599L24.8299 17.6799L24.7499 17.7499C24.5699 17.8899 24.4499 18.0099 24.3999 18.0999C24.3799 18.1499 24.3799 18.1799 24.3999 18.1999L24.4199 18.2199V18.2499C24.4199 18.2499 24.4699 18.2999 24.4999 18.3099C24.5299 18.3299 24.5699 18.3399 24.6299 18.3399H24.6499L25.9199 18.8099C25.9099 18.0599 25.8799 17.5699 25.8399 17.3199V17.2999L25.7499 17.1899C25.7299 17.1599 25.6899 17.1499 25.6299 17.1599C25.5499 17.1699 25.4399 17.2199 25.2999 17.2999L25.1399 17.4199L24.8899 17.0999L26.6999 15.6799L26.7699 15.7599L26.7799 15.7699ZM33.6599 17.7699L33.8199 18.0199L31.1699 19.7299L30.9499 19.3899L31.1499 19.2399C31.2999 19.1199 31.3999 18.9999 31.4299 18.8799C31.4599 18.7799 31.4299 18.6799 31.3699 18.5799C30.5999 17.5799 29.8899 16.2299 29.1499 15.1599C29.0599 15.0099 28.9599 14.9299 28.8299 14.9199C28.6899 14.9099 28.5199 14.9699 28.3099 15.0999L28.2199 15.1599L27.9999 14.8099L30.6499 13.0999L30.8699 13.4499L30.7299 13.5399C30.5299 13.6699 30.4099 13.7999 30.3699 13.9299C30.3299 14.0499 30.3699 14.1799 30.4599 14.3199C31.1599 15.4399 31.9099 16.5999 32.6399 17.6999C32.7199 17.8499 32.8299 17.9199 32.9599 17.9299C33.1099 17.9399 33.2899 17.8799 33.5099 17.7399L33.5999 17.6799L33.6599 17.7699ZM34.4599 17.3899L34.3399 17.1199L34.5199 17.0299C34.6899 16.9299 34.7999 16.8199 34.8499 16.7099C34.8899 16.5999 34.8799 16.4799 34.8199 16.3499C34.2499 15.2899 33.6899 13.8599 33.1799 12.7299C32.9399 12.6199 32.7599 12.5399 32.6199 12.4999C32.4999 12.4699 32.4299 12.4499 32.4199 12.4699L32.3099 12.5499L32.1299 12.1499L33.8799 11.3599L37.7599 13.2899L36.8499 11.2699C36.7699 11.0399 36.6499 10.8999 36.5099 10.8399C36.3599 10.7799 36.1699 10.7899 35.9299 10.8899L35.8299 10.9299L35.6599 10.5599L37.4899 9.72988L37.6599 10.0999L37.5499 10.1599C37.3799 10.2599 37.2699 10.3699 37.2299 10.4899C37.1899 10.5999 37.2099 10.7299 37.2899 10.8699C37.9899 12.0899 38.7399 14.0699 39.3499 15.4199L38.9999 15.5799L33.9999 13.1499C34.4199 14.0899 34.9099 15.0699 35.2899 16.0199C35.3699 16.1999 35.4699 16.3099 35.5999 16.3699C35.7299 16.4199 35.8799 16.4199 36.0599 16.3499L36.2599 16.2599L36.4299 16.6399L34.5099 17.5099L34.4699 17.4099L34.4599 17.3899ZM46.7899 12.6199L46.8699 12.9099L43.9399 13.7499L43.8299 13.3599L44.0499 13.2799C44.2299 13.2099 44.3399 13.1199 44.4099 13.0299C44.4599 12.9399 44.4699 12.8399 44.4299 12.7199C44.2299 12.1899 44.0799 11.4999 43.9199 10.9499L42.2099 11.4399C42.3699 11.9999 42.5999 12.6599 42.7099 13.2199C42.7399 13.3399 42.7999 13.4299 42.8999 13.4699C42.9999 13.5199 43.1499 13.5299 43.3399 13.4999L43.5699 13.4499L43.6799 13.8399L40.7499 14.6799L40.6399 14.2899L40.8499 14.2199C41.0199 14.1499 41.1299 14.0699 41.1899 13.9699C41.2399 13.8799 41.2499 13.7799 41.2099 13.6599C40.7999 12.5499 40.3999 10.9099 40.0899 9.73988C40.0499 9.56988 39.9799 9.45988 39.8699 9.40988C39.7499 9.35988 39.5799 9.35988 39.3699 9.40988L39.2699 9.43988L39.1599 9.03988L42.0899 8.19988L42.1999 8.59988L42.0999 8.62988C41.8699 8.68988 41.7199 8.77988 41.6499 8.88988C41.5799 8.98988 41.5699 9.12988 41.6299 9.28988L42.0799 10.8499L43.7899 10.3599L43.3399 8.79988C43.2999 8.62988 43.2199 8.51988 43.1099 8.46988C42.9899 8.41988 42.8099 8.41988 42.5799 8.48988L42.4799 8.51988L42.3699 8.11988L45.2999 7.27988L45.4099 7.67988L45.3099 7.70988C45.0999 7.76988 44.9499 7.85988 44.8799 7.96988C44.8099 8.06988 44.8099 8.20988 44.8599 8.36988C45.2199 9.43988 45.7499 11.2099 45.9799 12.2899C46.0099 12.4099 46.0699 12.4999 46.1599 12.5399C46.2599 12.5899 46.3999 12.5999 46.5799 12.5699L46.7999 12.5199L46.8299 12.6199H46.7899ZM52.8599 6.31988L52.8999 6.60988L52.7399 6.63988C52.5699 6.67988 52.4499 6.74988 52.3799 6.84988C52.3099 6.94988 52.2999 7.07988 52.3299 7.23988C52.4799 7.97988 52.6399 9.19988 52.6999 9.95988C52.7399 10.3499 52.7399 10.6799 52.6999 10.9699C52.6599 11.2599 52.5699 11.4999 52.4399 11.6799C52.2699 11.8899 52.0499 12.0699 51.7799 12.1999C51.5099 12.3299 51.1999 12.4299 50.8299 12.4899C50.4499 12.5399 50.1199 12.5499 49.8199 12.5099C49.5099 12.4699 49.2499 12.3799 49.0199 12.2499C48.7799 12.1199 48.5899 11.9199 48.4499 11.6599C48.3099 11.4099 48.2199 11.0999 48.1899 10.7299L47.8199 7.96988C47.8199 7.90988 47.8199 7.84988 47.7999 7.79988C47.7699 7.63988 47.7199 7.52988 47.6299 7.45988C47.5499 7.38988 47.4399 7.35988 47.2899 7.36988L47.1599 7.38988L47.0499 7.40988L46.9899 6.99988L50.0099 6.58988L50.0699 7.00988H49.9499C49.8499 7.00988 49.7499 7.02988 49.6699 7.04988C49.5399 7.07988 49.4499 7.13988 49.3899 7.20988C49.3299 7.28988 49.2999 7.38988 49.3099 7.51988C49.3099 7.58988 49.3199 7.67988 49.3499 7.76988C49.5199 8.42988 49.6199 9.77988 49.7199 10.5299C49.7799 11.0499 49.9199 11.4199 50.1299 11.6399C50.3399 11.8599 50.6299 11.9399 51.0099 11.8899C51.4799 11.8299 51.8099 11.6399 51.9999 11.3499C52.1899 11.0499 52.2299 10.6099 52.1399 10.0499C52.0199 9.23988 51.8799 8.32988 51.7999 7.51988C51.7899 7.26988 51.7099 7.08988 51.5899 6.98988C51.4599 6.88988 51.2699 6.84988 51.0099 6.88988H50.8999L50.8499 6.49988L52.8699 6.22988V6.33988H52.8799L52.8599 6.31988ZM56.2599 9.93988L57.5699 9.95988L56.9199 8.28988L56.2599 9.92988V9.93988ZM60.3499 11.8799V12.1799L57.4199 12.1299V11.7199H57.6299C57.8299 11.7199 57.9699 11.6899 58.0499 11.6399C58.0999 11.6099 58.1199 11.5799 58.1099 11.5299C58.1099 11.4199 58.0699 11.2799 58.0099 11.0999C57.9599 10.9299 57.8799 10.7299 57.7799 10.4999L56.0599 10.4699C55.9299 10.7399 55.8299 10.9599 55.7699 11.1199C55.7099 11.2799 55.6799 11.3799 55.6899 11.4099V11.4299C55.6899 11.4299 55.7299 11.5199 55.7999 11.5599C55.8999 11.6099 56.0399 11.6599 56.2399 11.6899H56.3699V12.0999L54.4599 12.0699V11.6599H54.5699C54.7099 11.6599 54.8399 11.5999 54.9599 11.4599C55.0899 11.3099 55.1999 11.0799 55.2999 10.7699C55.8499 9.27988 56.6299 7.61988 57.2699 6.12988H57.6399C58.2599 7.69988 58.9099 9.24988 59.5199 10.8199C59.6699 11.1899 59.7999 11.4599 59.9299 11.6099C60.0299 11.7399 60.1199 11.7899 60.1999 11.7599L60.3499 11.6999V11.8599V11.8799ZM70.0299 8.27988L69.9599 8.56988L69.8599 8.54988C69.6499 8.50988 69.4999 8.52988 69.3899 8.60988C69.2799 8.67988 69.2199 8.81988 69.1899 9.01988C69.1299 9.60988 68.7499 10.9999 68.5899 11.6399C68.4899 12.0199 68.3699 12.3299 68.2399 12.5799C68.0999 12.8399 67.9299 13.0299 67.7499 13.1599C67.5199 13.2999 67.2499 13.3799 66.9499 13.4199C66.6499 13.4499 66.3199 13.4299 65.9599 13.3599C65.5899 13.2699 65.2699 13.1599 65.0099 13.0199C64.7399 12.8799 64.5199 12.6999 64.3499 12.4999C64.1699 12.2899 64.0599 12.0399 64.0199 11.7499C63.9799 11.4699 64.0099 11.1399 64.0999 10.7899L64.7199 8.07988C64.7399 8.01988 64.7499 7.96988 64.7599 7.91988C64.7899 7.75988 64.7799 7.63988 64.7199 7.53988C64.6699 7.44988 64.5699 7.37988 64.4299 7.33988C64.3899 7.32988 64.3499 7.31988 64.2999 7.30988L64.1899 7.28988L64.2799 6.87988L67.2599 7.55988L67.1699 7.96988L67.0599 7.92988C66.9599 7.89988 66.8699 7.86988 66.7899 7.86988C66.6599 7.85988 66.5499 7.86988 66.4699 7.91988C66.3899 7.96988 66.3299 8.05988 66.2899 8.17988C66.2699 8.24988 66.2499 8.32988 66.2399 8.41988C66.1799 9.06988 65.7799 10.4199 65.6199 11.1299C65.4899 11.6399 65.4899 12.0299 65.6199 12.3199C65.7399 12.5999 65.9899 12.7799 66.3499 12.8599C66.8099 12.9699 67.1899 12.9099 67.4599 12.6999C67.7399 12.4799 67.9399 12.0899 68.0499 11.5299C68.2499 10.7199 68.3999 9.83988 68.6199 9.03988C68.6899 8.79988 68.6899 8.60988 68.5999 8.46988C68.5199 8.32988 68.3399 8.22988 68.0899 8.16988L67.9799 8.14988L68.0699 7.74988L70.0599 8.19988L70.0399 8.29988L70.0299 8.27988ZM69.6199 14.1199L69.7299 13.8399L69.9199 13.8999C70.1099 13.9499 70.2599 13.9599 70.3799 13.8999C70.4899 13.8599 70.5699 13.7599 70.6199 13.6199C70.9799 12.4599 71.5999 11.0799 72.0499 9.91988C71.9599 9.66988 71.8799 9.48988 71.8199 9.35988C71.7599 9.24988 71.7199 9.19988 71.6999 9.18988L71.5699 9.16988L71.7299 8.75988L73.5199 9.44988L74.8699 13.5699L75.6699 11.4999C75.7699 11.2799 75.7999 11.0999 75.7399 10.9499C75.6799 10.7999 75.5299 10.6699 75.2999 10.5699L75.1999 10.5299L75.3499 10.1499L77.2199 10.8699L77.0799 11.2399L76.9599 11.2099C76.7699 11.1599 76.6099 11.1599 76.4999 11.2099C76.3899 11.2599 76.3099 11.3699 76.2699 11.5299C75.8699 12.9199 75.0099 14.7799 74.4699 16.1899L74.1099 16.0499L72.3299 10.7799C71.9599 11.7399 71.5999 12.7699 71.1899 13.7099C71.1199 13.8899 71.1099 14.0499 71.1599 14.1699C71.2099 14.2999 71.3199 14.3999 71.4999 14.4899L71.6999 14.5699L71.5499 14.9499L69.5899 14.1899L69.6299 14.0899L69.6199 14.1199ZM78.7599 18.1699L78.6099 18.4299L75.8799 16.8699L76.0799 16.5199L76.2999 16.6299C76.4799 16.7099 76.6299 16.7299 76.7399 16.7099C76.8399 16.6899 76.9199 16.6199 76.9799 16.5199C77.4499 15.5199 78.3999 13.9299 78.9999 12.9799C79.0899 12.8399 79.1099 12.7099 79.0599 12.5899C79.0099 12.4599 78.8699 12.3299 78.6599 12.2099L78.5699 12.1599L78.7699 11.7999L81.4999 13.3599L81.2999 13.7199L81.0699 13.5899C80.8999 13.4999 80.7499 13.4699 80.6299 13.4899C80.5199 13.5099 80.4299 13.5899 80.3599 13.7099C79.7499 14.8399 79.0199 16.1599 78.3399 17.2399C78.2499 17.3799 78.2299 17.5099 78.2799 17.6399C78.3399 17.7699 78.4799 17.9099 78.6999 18.0299L78.7899 18.0799L78.7399 18.1699H78.7599ZM87.4999 17.5299L87.3299 17.7799L87.2399 17.7199C87.1199 17.6399 86.9899 17.5999 86.8499 17.6199C86.6999 17.6399 86.5399 17.7199 86.3599 17.8499C84.9899 18.8599 83.3899 19.8299 81.9599 20.7899L81.6499 20.5799C82.0099 18.8399 82.3399 16.9399 82.7599 15.2299C82.8099 15.0399 82.8099 14.8899 82.7699 14.7599C82.7399 14.6399 82.6599 14.5299 82.5499 14.4599L82.4599 14.3999L82.6999 14.0599L85.1699 15.7899L84.9299 16.1299L84.8399 16.0699C84.6899 15.9599 84.5499 15.8899 84.4499 15.8499C84.3899 15.8299 84.3299 15.8199 84.2899 15.8199C84.2599 15.8199 84.2399 15.8399 84.2299 15.8599C84.2299 15.8799 84.2099 15.9099 84.1999 15.9299C84.1699 15.9699 84.1399 16.0499 84.1099 16.1599C84.0799 16.2799 84.0499 16.4299 84.0199 16.6199L83.4499 19.1499L85.6599 17.6799L85.6999 17.6399L85.7799 17.5799C85.8699 17.5199 85.9499 17.4599 86.0099 17.4199C86.0599 17.3799 86.0999 17.3399 86.1199 17.3099L86.1599 17.2599C86.1599 17.2599 86.1899 17.1799 86.1799 17.1299C86.1599 17.0699 86.1099 16.9999 86.0299 16.9199C85.9699 16.8599 85.8799 16.7899 85.7799 16.7199L85.6899 16.6599L85.9299 16.3199L87.5499 17.4499L87.4899 17.5399L87.4999 17.5299ZM88.6199 18.9099L88.8299 18.6899L92.4899 22.1599L91.1999 23.5199L90.8799 23.2199L90.9399 23.1399C91.2299 22.7899 91.3399 22.4399 91.2799 22.0899C91.2099 21.7299 90.9599 21.3699 90.5199 20.9999H90.5099C90.4399 20.9099 90.3699 20.8399 90.3099 20.7999C90.2499 20.7499 90.1899 20.7299 90.1399 20.7299C90.0999 20.7299 90.0599 20.7399 90.0199 20.7799C89.9999 20.7999 89.9799 20.8199 89.9599 20.8499C89.7899 21.1099 88.9599 21.8999 88.6999 22.1799C88.9399 22.4199 89.1899 22.5499 89.4399 22.5599C89.7199 22.5599 90.0099 22.4299 90.3099 22.1499L90.3899 22.0799L90.6799 22.3599L88.6099 24.5499L88.3199 24.2699L88.3899 24.1799C88.6499 23.8499 88.7799 23.5499 88.7599 23.2699C88.7399 23.0199 88.6099 22.7699 88.3499 22.5399C88.0399 22.8699 87.3199 23.7199 87.0199 23.9399C86.9299 24.0099 86.8899 24.0999 86.9199 24.1899C86.9499 24.2999 87.0499 24.4399 87.2299 24.5999C87.5799 24.9599 87.9699 25.1699 88.3799 25.2399C88.7899 25.3099 89.2299 25.2399 89.7099 25.0299L89.7799 24.9999L90.0899 25.2999L88.4899 26.4599L84.7999 22.9599L85.0799 22.6599L85.2599 22.8099C85.4099 22.9199 85.5399 22.9799 85.6599 22.9899C85.7599 22.9899 85.8599 22.9499 85.9399 22.8499C86.6799 21.9499 87.8999 20.7299 88.7399 19.8899C88.8599 19.7699 88.9199 19.6499 88.8999 19.5299C88.8799 19.3999 88.7899 19.2499 88.6199 19.0799L88.5399 19.0099L88.6099 18.9299L88.6199 18.9099ZM94.9599 26.3699L93.2799 27.5499C93.5399 27.9499 93.8099 28.1799 94.0799 28.2599C94.3599 28.3399 94.6699 28.2399 94.9899 27.9699H94.9999C95.3099 27.7499 95.4899 27.5199 95.5499 27.2999C95.6099 27.0799 95.5499 26.8399 95.3799 26.5999C95.2999 26.4399 95.2199 26.3499 95.1499 26.3199C95.0999 26.2999 95.0399 26.3199 94.9799 26.3799H94.9699L94.9599 26.3699ZM93.1099 32.1299L92.8599 32.2999L91.7899 30.7799L92.9299 27.8699L92.8899 27.8199C92.5999 28.0199 91.8999 28.5699 91.6299 28.6999C91.4299 28.8099 91.3099 28.9299 91.2799 29.0699C91.2499 29.2099 91.2999 29.3799 91.4399 29.5799L91.4999 29.6699L91.1599 29.9099L89.4199 27.4399L89.7599 27.1999L89.8199 27.2899C89.8599 27.3499 89.8999 27.3999 89.9299 27.4399C90.0199 27.5399 90.1199 27.5999 90.2199 27.6199C90.3199 27.6299 90.4299 27.5999 90.5499 27.5199C90.5999 27.4899 90.6499 27.4499 90.6999 27.3999C91.3799 26.8299 92.9599 25.7399 93.7299 25.2699C93.9499 25.1399 94.0699 25.0099 94.0999 24.8599C94.1299 24.7199 94.0699 24.5599 93.9299 24.3899L93.8599 24.2999L94.1999 24.0599L95.7999 26.3299C96.2499 26.9899 96.4799 27.5499 96.5099 28.0299C96.5399 28.5299 96.3399 28.9299 95.9299 29.2399C95.6299 29.4699 95.2999 29.5599 94.9499 29.5099C94.6499 29.4699 94.3299 29.3299 93.9899 29.0799L93.0699 31.6899C93.0699 31.7499 93.0599 31.7999 93.0699 31.8499C93.0699 31.8899 93.0899 31.9299 93.1099 31.9599L93.1699 32.0499L93.0799 32.1099L93.1099 32.1299ZM98.6899 34.4499L98.5399 34.1899L98.5899 34.1299C98.9299 33.7499 99.1399 33.3899 99.2199 33.0499C99.2999 32.7099 99.2499 32.3899 99.0899 32.0799C98.9399 31.8599 98.7799 31.7199 98.6099 31.6599C98.4499 31.5999 98.2799 31.6199 98.0899 31.7199H98.0799C97.9299 31.7799 97.8199 31.8999 97.7599 32.0799C97.6899 32.2799 97.6799 32.5399 97.7199 32.8799C97.7599 33.2399 97.8199 33.8799 97.8199 34.2299C97.8199 34.5999 97.7499 34.9199 97.5899 35.1999C97.4399 35.4799 97.1999 35.6999 96.8899 35.8799C96.3699 36.1299 95.8899 36.1699 95.4399 36.0099C94.9999 35.8499 94.5999 35.4799 94.2499 34.9199C94.1699 34.7699 94.0899 34.6099 94.0199 34.4399C93.9499 34.2699 93.8899 34.0799 93.8399 33.8799L93.7699 33.6699C93.7499 33.6199 93.7399 33.5799 93.7199 33.5599C93.6999 33.5299 93.6799 33.4999 93.6499 33.4999C93.6199 33.4899 93.5699 33.4899 93.5099 33.4999L93.4299 33.5199L93.2199 33.1599L95.1299 32.0599L95.3399 32.4199L95.2799 32.4799C94.8599 32.8799 94.5899 33.2699 94.4899 33.6499C94.3899 34.0199 94.4399 34.3699 94.6399 34.7199C94.7999 34.9699 94.9799 35.1299 95.1699 35.1999C95.3599 35.2599 95.5799 35.2399 95.8099 35.1199C95.9799 35.0299 96.0899 34.8999 96.1499 34.6999C96.2099 34.4999 96.2099 34.2299 96.1499 33.9099C96.1299 33.7399 96.1299 33.4599 96.1199 33.2699C96.0699 32.6999 96.1199 32.2299 96.2599 31.8699C96.3999 31.4899 96.6399 31.2099 96.9799 31.0499C97.4899 30.7899 97.9599 30.7299 98.3799 30.8699C98.7999 31.0099 99.1699 31.3399 99.4899 31.8599C99.5599 31.9799 99.6199 32.1199 99.6699 32.2799C99.7199 32.4399 99.7699 32.6199 99.7999 32.8099C99.8099 32.8999 99.8299 32.9699 99.8399 33.0299C99.8499 33.0799 99.8699 33.1199 99.8799 33.1399C99.8999 33.1799 99.9299 33.1999 99.9599 33.2099C99.9999 33.2099 100.06 33.2099 100.13 33.1799L100.22 33.1399L100.45 33.5399L98.7099 34.5499L98.6599 34.4599L98.6899 34.4499ZM97.2999 40.5799L97.0199 40.6899L95.8699 37.7599L96.2499 37.6099L96.3499 37.8399C96.4399 38.0099 96.5399 38.1299 96.6399 38.1799C96.7299 38.2299 96.8399 38.2299 96.9499 38.1799C97.9299 37.6999 99.6799 37.0699 100.75 36.6899C100.91 36.6399 101.01 36.5499 101.05 36.4199C101.09 36.2899 101.07 36.0999 100.98 35.8699L100.94 35.7699L101.32 35.6199L102.47 38.5499L102.09 38.6999L101.99 38.4499C101.91 38.2799 101.82 38.1599 101.71 38.1099C101.61 38.0599 101.5 38.0599 101.36 38.1099C100.12 38.6299 98.8099 39.0699 97.5699 39.5899C97.4099 39.6399 97.3099 39.7299 97.2799 39.8599C97.2399 39.9999 97.2699 40.1899 97.3599 40.4299L97.3999 40.5299L97.2999 40.5699V40.5799ZM98.8499 45.5799L98.5599 45.6599L97.6799 42.5999L98.0799 42.4799L98.0999 42.5899C98.1199 42.6799 98.1399 42.7599 98.1699 42.8299C98.2299 42.9599 98.2999 43.0599 98.3899 43.1099C98.4799 43.1599 98.5899 43.1699 98.7199 43.1399C98.7799 43.1299 98.8499 43.0999 98.9199 43.0799C100.13 42.6299 101.78 42.2499 103.06 41.8799C102.94 41.4899 102.75 41.2099 102.5 41.0399C102.22 40.8599 101.86 40.8099 101.41 40.8799L101.32 40.8999L101.2 40.4799L103.02 39.9899L104.46 44.9799L102.66 45.5399L102.53 45.0899L102.62 45.0499C103.04 44.8899 103.32 44.6599 103.46 44.3599C103.59 44.0899 103.6 43.7499 103.49 43.3599C102.45 43.6599 100.3 44.4199 99.3499 44.5499C99.2699 44.5599 99.2099 44.5799 99.1499 44.5999C99.0199 44.6499 98.9299 44.7199 98.8799 44.8099C98.8299 44.8999 98.8199 45.0199 98.8399 45.1599C98.8499 45.2299 98.8799 45.3199 98.9099 45.3999L98.9499 45.5099L98.8399 45.5399L98.8499 45.5799ZM105.48 52.7099L105.18 52.7499L105.16 52.6199C105.13 52.5199 105.08 52.4399 105.03 52.3699C104.98 52.2999 104.91 52.2499 104.83 52.2199L102.06 50.9999C101.67 51.0499 100.91 51.1999 100.56 51.1999C100.32 51.1999 100.16 51.2599 100.06 51.3799C99.9699 51.4999 99.9399 51.6799 99.9899 51.9199L100.01 52.0299L99.5999 52.0899L99.1799 48.9999L99.5899 48.9399V49.0499C99.6099 49.1299 99.6199 49.1999 99.6399 49.2599C99.6799 49.4099 99.7399 49.5199 99.8299 49.5799C99.9199 49.6399 100.03 49.6699 100.18 49.6499C100.23 49.6499 100.29 49.6299 100.35 49.6199C100.7 49.5399 101.2 49.5099 101.56 49.4599L104.08 47.5899C104.2 47.4999 104.28 47.4099 104.33 47.3099C104.38 47.2099 104.4 47.0999 104.4 46.9799V46.8799L104.79 46.8299L105.19 49.8199L104.78 49.8699V49.7599C104.75 49.5499 104.72 49.3899 104.67 49.2999C104.65 49.2599 104.63 49.2299 104.61 49.2099C104.6 49.2099 104.59 49.1999 104.57 49.1999C104.55 49.1999 104.52 49.2199 104.5 49.2199C104.48 49.2199 104.45 49.2399 104.4 49.2599C104.35 49.2899 104.29 49.3199 104.22 49.3699L104.17 49.4299C104.17 49.4299 104.13 49.4599 104.11 49.4699L102.48 50.6099L103.98 51.2399C104.13 51.3099 104.26 51.3699 104.39 51.3999C104.51 51.4299 104.62 51.4499 104.72 51.4499C104.79 51.4499 104.85 51.4099 104.88 51.3299C104.92 51.2299 104.93 51.0599 104.91 50.8399V50.7399L105.3 50.6899L105.57 52.7099H105.46H105.48Z" fill="#231815"/>
<path fill-rule="evenodd" clip-rule="evenodd" d="M35.73 95.8502C35.25 95.7902 34.55 95.8502 34.05 95.6002C34.44 95.1802 34.94 95.3702 35.37 95.1702C35.5 94.5502 34.45 94.5102 33.55 95.2602C33.55 95.2602 33.53 95.2802 33.52 95.2902C33.52 95.2902 33.5 95.3102 33.49 95.3102L32.87 94.7602C33.06 94.4502 33.73 94.5502 34.42 94.2702C34.68 94.1602 34.95 94.0802 35.07 93.7102C35.19 93.3602 35.12 93.1002 34.74 92.9702C34.07 93.5302 33.89 93.2402 32.82 93.6402C32.38 93.8002 31.8 94.0502 31.55 94.5902C31.24 95.2202 31.99 95.1602 30.85 96.0402C30.56 96.2602 30.27 96.4902 29.99 96.7202C29.43 97.1802 28.61 97.9202 29.06 98.6302C29.77 99.0402 29.88 97.9802 30.45 97.8902C30.49 98.1202 29.82 98.8002 29.53 99.2402C29.18 99.7602 28.91 100.45 29.44 100.74C29.85 100.55 30.54 99.1602 30.84 98.6902C31.07 98.3302 31.28 98.0102 31.54 97.6702C31.67 97.5002 31.79 97.3602 31.92 97.2202C32.14 96.9702 32.15 96.8902 32.44 97.0602C32.3 97.3402 32.23 97.3602 32.19 97.6702C32.39 97.8602 32.97 97.9302 33.37 98.1902C32.99 98.5802 31.86 97.9902 31.8 99.0202C31.78 99.2902 31.98 99.3302 32.18 99.5302C31.94 99.8002 30.92 100.17 31.45 101.05C32.04 102.04 32.53 100.94 33.01 101.03C32.79 101.52 32.39 101.92 32.25 102.4C32.32 102.54 32.44 102.88 32.57 102.98C32.99 102.78 32.98 101.59 33.72 100.98C34.06 101.26 34.1 102.57 35.18 102.46C35.41 102.1 35.22 102.02 35.4 101.87C35.77 101.92 35.77 102.08 36.23 102.05C37.17 102 36.82 102.79 37.59 103.72C37.93 104.13 38.43 104.56 39.05 104.68C39.51 104.77 40.3 104.78 40.48 104.35C40.59 103.7 38.83 102.95 37.91 102.07C37.24 101.43 37.75 101.08 38.17 100.21C38.31 99.9202 38.27 99.7702 38.41 99.5302C39.04 99.5102 39.61 99.7002 40.18 99.6202C40.84 98.3302 39.14 98.6702 38.22 98.3202C38.49 97.9702 39.38 97.0502 39.69 96.7902C40.11 96.4402 40.14 96.4102 40.03 95.9402C39.97 95.6902 39.86 95.2902 39.56 95.1002C39.2 95.7002 38.99 96.0502 38.56 96.5602C38.36 96.8002 38.2 96.9502 38 97.1502L37.56 97.5202C37.31 97.6502 37.52 97.5702 37.34 97.5902L37.37 97.1602C36.14 96.9302 35.31 96.6602 34.02 96.5302C33.69 96.5002 33.2 96.5002 32.87 96.3802C33.04 96.1302 33.27 95.9502 33.46 95.7802C34.29 96.3702 35.06 96.3202 36.12 96.4102L36.97 96.4402C37.04 96.6702 37.05 97.0402 37.42 97.0002C37.64 96.9102 38.01 95.2602 37.19 95.0302C36.82 94.9302 36.82 95.1802 36.51 95.1602C36.53 94.6802 37.41 93.6502 36.85 93.3502C36.53 93.4902 36.34 94.1802 36.15 94.5602C35.71 95.4302 35.78 95.1102 35.76 95.8302L35.73 95.8502ZM35.66 98.5802C35.73 98.9102 35.95 98.7202 36.17 99.6202C36.23 99.8802 36.37 100.51 36.86 100.58C36.87 100.58 36.9 100.54 36.9 100.55C36.9 100.55 36.93 100.53 36.93 100.52L37.18 100.11C37.29 99.9002 37.35 99.8102 37.39 99.5702C37.04 99.3402 36.73 99.6602 36.35 99.2802C36.12 99.0402 36.05 98.4102 35.66 98.5902V98.5802ZM32.71 99.4402C32.5 99.9002 32.32 100.09 32.12 100.45C32.5 100.51 32.62 100.28 32.97 100.21C33.35 100.14 33.44 100.15 33.66 99.6802C33.37 99.4602 32.99 99.4502 32.7 99.4502L32.71 99.4402ZM34.13 100.21C34.45 100.55 34.73 100.82 35.02 101.15C35.27 101.44 36.06 101.29 36.02 100.94C36 100.73 35.49 100.11 35.22 99.9402C34.78 99.6402 34.26 99.7402 34.13 100.21Z" fill="#231815"/>
<path fill-rule="evenodd" clip-rule="evenodd" d="M48.82 102.79C48.87 102.4 49.14 102.35 49.35 102.15C49.35 101.41 49.03 101.57 48.87 101.47C49.03 101.25 50.29 100.77 50.37 100.34C50.34 100.08 50.19 99.9002 50.08 99.7202C50.09 99.7202 50.11 99.6902 50.12 99.7102C50.12 99.7202 50.15 99.7002 50.16 99.7002L50.41 99.6402L50.35 99.0902C49.66 98.9902 49.16 99.1902 48.55 99.2402C47.94 99.2802 47.34 99.3302 46.73 99.3702C46.38 99.3902 45.71 99.4302 45.35 99.3702C45.12 99.3402 45.09 99.2702 44.92 99.2502C44.57 99.2002 44.43 99.6202 44.68 99.8102C45.08 100.11 46.79 99.9902 47.29 99.9802C47.23 100.26 47.12 100.37 47.06 100.6C46.99 100.86 47.09 101.07 47.11 101.3C46.95 101.41 46.79 101.52 46.53 101.61C46.25 101.71 46.14 101.69 45.94 101.9C45.92 102.15 45.98 102.64 46.12 102.84C46.36 102.79 46.32 102.71 46.58 102.66C47.01 102.58 47.93 102.41 48.29 102.47C48.25 103.01 47.88 102.95 47.44 103.08C46.79 103.27 46.71 103.01 46.15 102.99C46.06 103.1 45.86 103.3 45.76 103.4C45.63 103.53 45.46 103.61 45.26 103.69C44.32 104.07 44.19 103.64 43.96 103.69C43.46 103.9 43.63 104.37 43.89 104.67C44.43 104.77 45.06 104.25 45.64 104.42C45.72 104.72 45.61 105.1 45.7 105.37C45.77 105.59 46.12 105.82 46.39 105.8C46.84 105.78 46.93 104.74 47.42 104.59C47.43 104.93 47.34 105.49 47.46 105.77C47.54 105.96 47.86 106.33 48.17 106.33L48.25 104.32C48.75 104.57 48.47 104.94 49.53 105.32C49.55 104.32 48.81 104.35 48.38 103.87C48.54 103.4 49.31 103.3 49.91 103.32C49.85 103.87 49.83 103.84 50.06 104.23C50.95 105.74 51.04 103.93 51.27 103.32C51.42 102.91 52.2 102.72 52.7 102.72C52.64 103.35 52.35 103.99 52.34 104.71L52.3 106.81C52.27 107.63 52.13 108.39 52.35 109.13C52.6 109.18 52.73 109.13 52.88 109.05C52.91 108.38 52.96 104.19 53.34 103.51C53.62 102.99 53.17 102.91 53.12 102.61C53.63 102.35 54.26 102.63 54.84 102.65C55.13 101.4 53.27 101.34 52.53 101.47C52.16 101.54 51.94 101.72 51.59 101.77C51.68 101.12 52.03 100.91 52.26 100.4C52.77 99.3302 53.98 98.9202 53.01 97.9302C52.86 97.7702 52.59 97.6302 52.29 97.6402C51.8 97.6502 52.29 97.9302 52.25 98.2202C52.24 98.3502 51.62 99.1802 51.47 99.4302C50.99 100.26 50.53 101.34 50.19 102.26C50.03 102.7 49.28 102.82 48.84 102.81L48.82 102.79ZM49.11 98.6702C49.04 98.0902 48.33 97.9802 48.17 97.9002C47.84 97.7302 47.39 97.2302 47.16 97.2002C47.03 97.7902 48.42 98.8502 49.12 98.6702H49.11ZM47.46 100.77C47.67 100.86 47.51 100.73 47.64 100.83C47.7 100.88 47.66 100.89 47.76 100.99C48.42 100.82 49.49 100.18 49.76 99.7402C49.3 99.7002 48.68 99.7502 48.25 99.8302C47.66 99.9302 47.35 100.04 47.45 100.78L47.46 100.77ZM46.38 104.96C46.59 104.91 46.64 104.77 46.79 104.61C46.99 104.4 46.99 104.43 47.28 104.32C47.31 104.12 47.19 103.97 47.11 103.83C46.33 103.73 46.23 104.69 46.38 104.96Z" fill="#231815"/>
<path fill-rule="evenodd" clip-rule="evenodd" d="M27.32 87.9298L27.49 88.2798C27.07 88.6998 25.13 89.7598 24.33 88.9198C24.97 88.4998 25.24 87.8498 24.98 87.3198C24.76 87.6898 24.7 87.6998 23.76 87.6798C23.29 87.6798 22.88 87.6498 22.42 87.6498C22 87.6498 21.32 87.6298 21.06 87.8898C20.81 88.1398 20.86 88.9798 21.18 89.2798C21.61 89.1498 21.99 88.9298 22.61 89.0998C22.98 89.1998 23.72 89.3698 24.06 89.6998C23.63 89.9498 22.79 90.1398 22.32 90.2498C21.51 90.4298 21.44 90.5798 20.68 90.2298C20.14 89.9898 19.64 89.6598 19.1 89.3398C17.57 88.4098 18.47 88.8198 17.98 87.9498C17.59 88.2698 17.27 88.5398 17.22 88.9298C17.04 90.4798 18.78 89.9198 19.7 91.0498C19.55 91.3298 19.39 91.4698 19.73 92.1198C19.86 92.3698 20.17 92.6698 20.26 93.0798C20.29 93.2298 20.28 93.1498 20.27 93.2398C20 93.2998 19.81 93.1798 19.58 93.2398C19.31 93.2998 19.04 93.6198 19.08 93.8298C19.18 94.3698 20.07 94.1398 20.39 94.1198C21.59 94.0598 20.85 95.9098 21.69 96.4998C22.17 96.2898 22.05 95.7698 21.98 95.3498C21.91 94.9798 21.79 94.4398 21.63 94.0898C21.97 93.8498 22.36 93.8198 22.72 93.8198C23.08 93.8198 23.41 94.1098 23.7 94.4898C24.4 95.4298 24.01 96.0298 24.76 96.6098C25.37 96.4398 25.53 96.2398 25.39 95.6898C25.06 94.3498 24.94 94.3498 24.21 93.2698C23.98 92.9298 24.18 92.4398 23.95 92.0798C23.65 92.0398 23.66 92.1998 23.38 92.2798C22.94 92.1298 22.45 91.6698 22.1 91.2498L24.02 90.5598C24.83 90.2998 25.26 90.1698 25.91 90.9598C25.18 91.4098 24.39 90.8198 23.83 91.1698C24.23 91.6498 24.8 91.9998 25.27 92.3298C25.75 92.6598 26.25 93.1398 26.77 92.8298C27.37 92.4798 27.39 91.8198 27.21 91.3598C26.95 90.6998 26.26 90.3998 25.85 89.8698C26.77 89.1198 27.5 89.9398 27.72 88.6098C27.78 88.2298 27.56 87.9798 27.32 87.9298ZM20.76 91.9398C20.63 92.2498 21.05 93.4998 22.2 92.8298C21.95 92.5698 21.04 91.9298 20.76 91.9398Z" fill="#231815"/>
<path fill-rule="evenodd" clip-rule="evenodd" d="M73.41 95.9201C73.36 96.1401 73.36 96.4601 73.32 96.7301C73.28 97.0101 73.32 97.3601 73.05 97.5201C72.53 97.2001 72.87 96.8201 72.83 96.6701C72.6 96.3601 72.25 96.2701 72.15 96.6701C72.1 96.8901 72.18 97.4001 72.32 97.6501C72.68 98.3101 73.56 98.1701 73.68 97.4201C73.73 97.1101 73.7 96.8101 73.84 96.5901C74.03 96.3201 74.47 96.4701 74.3 96.8901C73.67 98.4101 73.74 97.6001 73.38 98.3501L73.64 98.7201C73.4 98.9201 73.26 99.1401 72.98 99.3101C72.81 99.2101 72.57 98.8001 72.4 98.7801C71.89 98.9201 72.07 99.1501 71.94 99.5401C71.86 99.7901 71.63 100.12 71.69 100.38C71.96 101.59 72.02 100.99 71.84 102.33C71.8 102.61 71.77 102.98 71.95 103.3C72.26 103.85 73.44 104.55 73.1 102.17C73 101.46 72.8 101.24 73.31 100.35C74.16 98.8901 77.42 96.5501 78.33 97.3201C78.33 97.7001 77.99 98.1601 78.11 98.6001C78.64 98.2801 78.65 98.2901 79.26 98.1601C79.87 98.0301 81.2 97.7301 80.68 96.8101C80.18 95.9201 78.42 96.3101 77.6 96.5201C76.58 96.7901 76.01 97.2301 75.13 97.5801C75.22 96.9701 76.52 95.2601 76.15 94.6301C76.01 94.3901 75.6 94.4001 75.33 94.5101C74.61 94.8101 74.37 95.6701 74.24 95.8001C73.91 96.1001 73.99 95.6101 73.42 95.9301L73.41 95.9201ZM76.51 98.8801C76.48 99.0501 76.12 99.4001 75.88 99.7801C75.49 100.39 75.82 100.67 75.7 100.89C75.41 101.25 74.73 101.09 74.45 101.49C74.11 101.97 74.42 102.34 74.85 102.58C75.37 102.88 75.41 102.84 76.03 102.39C76.39 102.13 76.82 101.73 77.29 101.58C78.02 103.19 77.43 103.73 76.07 103.93C75.4 104.03 75.58 103.82 75.27 103.3C75.14 103.44 74.95 103.91 75.03 104.22L76.44 104.44C77.23 104.54 78.99 104.29 78.76 103C78.66 102.43 78 101.74 78.11 101.22C78.34 100.97 78.77 100.97 79.06 100.76C79.23 100.06 78.74 99.7201 78.13 99.8301C77.54 99.9401 76.86 100.04 76.56 99.6701C76.77 99.3101 77.1 99.0901 77.34 98.7701C77.76 98.2101 77.05 98.2301 76.6 98.3601C75.3 98.7301 74.57 99.9001 73.97 100.38C73.76 100.54 73.57 100.6 73.64 100.88C73.73 101.25 74.23 101.4 74.53 100.6C74.73 100.07 75.85 99.1601 76.52 98.9001L76.51 98.8801Z" fill="#231815"/>
<path fill-rule="evenodd" clip-rule="evenodd" d="M59.46 106.19C60.23 106.13 61.34 105.28 63.09 105.05C63.14 105.74 63.13 106.49 63.13 107.18C63.13 107.8 63.72 108.35 64.29 108.27C64.46 107.38 64.12 106.15 64.24 105.18C64.31 104.59 64.57 104.6 65.2 104.46C66.86 104.09 67.1301 104.6 68.0101 104.52C68.6301 104.47 68.6 103.75 68.35 103.5C67.86 103 66.1301 102.98 65.2601 103.05L64.57 103.11C63.64 103.18 63.69 102.61 63.19 102.6C62.7 103.14 64.02 103.45 59.72 104.66C59.2 104.81 59.04 104.8 58.55 104.68C57.4 104.41 57.79 105.53 58.34 105.97C58.64 106.21 58.94 106.22 59.46 106.19ZM59.73 102.73C60.58 103.08 60.81 102.16 61.07 101.73C61.28 102.66 60.52 103.96 61.8 103.82C61.76 103.35 61.73 102.89 61.77 102.43C61.82 101.88 62.0201 101.68 62.0801 101.35C61.9701 101.45 61.9601 101.52 61.8101 101.62C61.8101 101.39 61.86 101.15 61.86 100.93C61.86 100.64 61.73 100.57 61.86 100.27C62.04 99.8499 62.84 98.7099 62.07 98.0999C61.94 97.9999 61.73 97.8699 61.53 97.9999C61.32 98.1299 61.49 98.2999 61.47 98.5899C61.4 99.6999 58.96 101.69 59.73 102.71V102.73ZM62.17 101.83C62.75 102.35 63.26 101.13 63.73 100.99C63.79 101.71 63.66 102.5 64.2 102.83C64.86 103.25 67.4201 102.32 66.6501 101.36C66.4301 101.09 65.6201 100.72 65.1201 100.67C65.2101 101.09 65.68 101.16 65.67 101.71C65.67 102.12 65.15 102.37 64.68 102.33C64.44 102.04 64.3301 101.72 64.2601 101.24C64.1101 100.23 64.37 100.41 65.45 99.4099C65.67 99.1999 66.13 98.9199 65.75 98.4699C65.23 98.4199 64.79 99.2699 64.35 99.4199C64.35 99.1099 64.48 99.0399 64.5 98.7599C64.39 98.6399 64.2001 98.5499 63.9901 98.6099C63.5101 98.7299 64.16 98.7599 63.28 100.09C63.09 100.38 62.87 100.7 62.66 100.95C62.48 101.16 61.91 101.45 62.19 101.83H62.17Z" fill="#231815"/>
<path fill-rule="evenodd" clip-rule="evenodd" d="M86.1499 89.2599C86.1499 89.2599 86.1499 89.2799 86.1199 89.3799C86.0999 89.4399 86.0899 89.4699 86.0599 89.5399C86.0099 89.6399 85.96 89.7399 85.91 89.8499L85.2699 91.0099C85.1399 91.2599 84.9499 91.3399 84.9599 91.5899C85.1499 91.9999 85.6399 91.7399 85.9199 91.4399C86.1099 91.2299 86.2599 90.6599 86.3699 90.3799C86.5699 89.8499 87.0299 88.6199 87.5299 88.2299C87.6599 88.4999 86.9499 90.2899 87.1499 90.7599L88.5199 88.0699C88.5599 87.6799 87.8999 87.0899 86.9899 88.0699C86.5699 88.5199 86.6699 88.6199 86.1299 88.5799C85.6299 88.5399 84.8799 88.5799 84.4499 89.2599C84.5399 89.5899 84.9099 89.6199 85.2299 89.6199C85.5199 89.6199 85.8299 89.3699 86.1399 89.2799L86.1499 89.2599ZM87.6899 91.3999C87.7099 91.6499 86.9999 93.5099 86.8899 94.4999C86.8399 94.9699 86.8099 95.0199 87.1199 95.2599C87.7599 95.7499 87.4999 94.7999 88.2399 93.9399C88.3299 94.3499 87.3399 95.5799 88.6799 96.3399C89.3599 95.9399 88.6799 95.2399 88.8099 94.3599L89.2399 92.2299C89.8799 92.8699 90.6399 94.2399 91.7699 93.8699C92.5899 93.5999 93.1499 91.9599 93.2699 91.2999C93.3899 90.6799 93.2899 88.9299 93.0499 88.6699C92.6899 88.2799 92.1899 88.4299 91.6799 88.2899C90.9199 88.0899 91.1499 88.2399 90.6699 88.1699C90.4499 88.1399 90.4899 88.0899 90.3499 88.1999C90.3499 88.5899 90.8599 88.6199 91.1799 88.9799C91.8699 89.7599 92.3099 90.6999 91.9899 91.7199C91.7899 92.3499 91.2899 93.1899 90.4999 92.6299C90.1999 92.4199 89.7499 91.6199 89.5899 91.2899C89.4799 91.0699 89.5899 91.0499 89.6499 90.8099C88.7299 89.8199 88.4399 91.6399 88.1299 92.1699C88.0599 92.0099 88.0999 91.4199 88.1099 91.2499C88.1399 90.7999 88.3099 90.6999 88.4299 90.2999C87.9799 89.7699 87.4499 90.9599 86.9899 91.2099C86.7699 91.3299 86.6999 91.2299 86.5299 91.5099C86.8699 92.0699 87.4999 91.4799 87.6999 91.3999H87.6899ZM84.5799 92.6999C84.3299 92.8099 84.2499 92.6799 84.0099 92.7599C83.7299 93.3999 84.9399 94.7999 85.2899 95.5299C85.9499 96.9199 85.8299 97.5699 87.2899 97.7099C87.8199 96.8199 85.4899 95.3799 85.3199 94.0799C85.4999 93.9599 85.4999 94.0499 85.6799 93.8599C85.5699 93.0499 84.7299 91.8099 84.2499 91.0599C84.0199 90.6899 83.5999 90.6299 83.3199 91.0199C83.6399 91.3899 83.6199 90.7699 84.1399 91.6699C84.3299 91.9999 84.5799 92.3899 84.5799 92.6999Z" fill="#231815"/>
<path fill-rule="evenodd" clip-rule="evenodd" d="M213.9 27.24C211.72 27.97 208.85 29.66 206.18 29.69C206.99 27.08 209.5 26.83 210.92 25.12C210.17 22.21 205.59 24.2 203.34 29.31C203.32 29.36 203.29 29.43 203.27 29.48C203.25 29.53 203.21 29.6 203.19 29.64L199.39 28.58C199.55 26.87 202.63 25.88 205 23.23C205.89 22.24 206.86 21.34 206.61 19.46C206.38 17.73 205.57 16.73 203.66 16.99C201.97 20.76 200.59 19.92 196.83 23.84C195.29 25.45 193.35 27.72 193.35 30.55C193.35 33.88 196.41 32.05 193.36 38.2C192.59 39.75 191.82 41.34 191.11 42.92C189.69 46.04 187.72 50.92 191.12 53.03C195 53.29 193.28 48.53 195.51 47C196.14 47.9 194.71 52.22 194.38 54.7C193.99 57.66 194.26 61.18 197.13 61.31C198.5 59.66 198.55 52.28 198.83 49.65C199.05 47.62 199.3 45.8 199.72 43.81C199.92 42.83 200.14 41.98 200.39 41.1C200.82 39.57 200.68 39.19 202.26 39.34C202.23 40.83 201.97 41.07 202.46 42.46C203.69 42.86 206.35 41.95 208.6 42.22C207.79 44.69 201.73 44.51 203.59 49.04C204.08 50.23 205.03 50 206.3 50.44C205.82 52.1 202.26 55.8 206.33 58.47C210.89 61.46 210.71 55.75 212.95 55.16C213.03 57.73 212.16 60.28 212.57 62.61C213.15 63.07 214.37 64.27 215.14 64.42C216.54 62.69 214.02 57.63 215.91 53.47C217.93 53.95 220.83 59.47 225.25 56.74C225.49 54.73 224.52 54.78 224.95 53.77C226.64 53.23 226.97 53.89 228.88 52.82C232.79 50.64 232.93 54.75 238.16 57.12C240.47 58.16 243.5 58.96 246.4 58.2C248.55 57.64 251.95 56.03 251.82 53.81C250.92 50.81 241.87 51.27 236.08 49.4C231.89 48.05 233.35 45.5 233.3 40.88C233.28 39.38 232.81 38.77 232.9 37.46C235.55 36.05 238.39 35.68 240.68 34.17C240.82 27.27 234.27 32.28 229.58 32.69C229.98 30.62 231.87 24.83 232.69 23.07C233.78 20.71 233.8 20.5 232.38 18.73C231.62 17.78 230.31 16.28 228.63 16.14C228.36 19.46 228.2 21.4 227.4 24.49C227.02 25.93 226.69 26.93 226.21 28.17L225.08 30.66C224.3 31.75 225.01 30.95 224.27 31.44L223.49 29.57C217.75 31.14 213.61 31.73 207.85 33.86C206.35 34.42 204.3 35.44 202.62 35.59C202.81 34.15 203.45 32.92 203.91 31.78C208.71 32.57 211.88 30.75 216.6 28.91L220.3 27.28C221.08 28.09 221.9 29.66 223.4 28.74C224.17 27.89 222.3 20.05 218.29 20.79C216.48 21.12 217.02 22.2 215.65 22.79C214.76 20.71 216.33 14.44 213.36 14.35C212.27 15.64 212.92 18.96 212.89 21C212.83 25.62 212.47 24.11 213.89 27.25L213.9 27.24ZM284.04 18.1C283.49 15.35 280.07 15.1 279.25 14.75C277.61 14.05 275.3 11.81 274.14 11.77C273.72 14.64 280.75 19.24 284.04 18.11V18.1ZM330.91 36.23C334.87 38.24 336.32 33.91 337.78 31.94C338.41 36.52 334.26 42.47 340.51 42.31C340.51 40.04 340.51 37.81 340.89 35.59C341.34 32.97 342.37 32.07 342.8 30.5C342.21 30.94 342.15 31.29 341.41 31.69C341.51 30.57 341.81 29.45 341.9 28.4C342.03 26.99 341.41 26.59 342.11 25.23C343.13 23.26 347.44 18.1 343.95 14.87C343.38 14.35 342.42 13.63 341.4 14.18C340.36 14.74 341.07 15.61 340.87 17.01C340.1 22.35 327.59 30.98 330.9 36.21L330.91 36.23ZM328.3 52.83C332.04 52.83 337.73 49.19 346.25 48.71C346.22 52.04 345.89 55.69 345.61 58.98C345.36 61.98 347.99 64.82 350.77 64.7C351.93 60.48 350.75 54.42 351.7 49.77C352.27 46.95 353.53 47.1 356.62 46.67C364.78 45.53 365.86 48.08 370.15 48.04C373.18 48.02 373.28 44.54 372.19 43.24C370.01 40.63 361.68 39.87 357.49 39.91L354.13 39.95C349.63 39.95 350.1 37.21 347.67 36.96C345.09 39.39 351.32 41.39 330.16 45.55C327.61 46.05 326.83 45.94 324.52 45.2C319.06 43.45 320.53 49.01 323 51.36C324.34 52.64 325.81 52.82 328.3 52.83ZM343.03 32.85C345.65 35.59 348.57 29.88 350.87 29.4C350.87 32.89 349.96 36.64 352.4 38.47C355.44 40.74 368.13 37.27 364.76 32.31C363.82 30.92 360.02 28.81 357.63 28.4C357.89 30.44 360.14 30.97 359.87 33.64C359.67 35.63 357.09 36.61 354.85 36.25C353.8 34.77 353.38 33.18 353.23 30.81C352.91 25.88 354.07 26.86 359.69 22.42C360.85 21.5 363.13 20.34 361.49 18.02C358.98 17.56 356.56 21.51 354.37 22.04C354.49 20.55 355.12 20.26 355.32 18.92C354.82 18.32 353.96 17.8 352.92 17.98C350.57 18.39 353.67 18.79 348.94 24.85C347.92 26.16 346.75 27.65 345.62 28.76C344.68 29.68 341.79 30.87 343.02 32.85H343.03ZM409.7 36.99C409.22 37.66 406.95 38.55 405.16 39.73C402.23 41.66 403.12 43.57 402.16 44.28C400.16 45.32 397.48 43.25 395.42 44.46C392.95 45.92 393.62 48.15 395.06 50.09C396.8 52.43 397.02 52.33 400.67 51.56C402.79 51.12 405.48 50.18 407.86 50.44C407.93 58.99 404.27 60.24 397.81 58.46C394.65 57.59 395.84 57.02 395.52 54.11C394.66 54.46 392.92 56.17 392.64 57.69L398.44 61.43C401.76 63.43 410.02 65.76 411.54 59.64C412.21 56.93 410.65 52.54 412.19 50.46C413.68 49.8 415.58 50.66 417.28 50.3C419.42 47.55 417.91 45.08 414.99 44.36C412.18 43.67 408.96 42.81 408.34 40.54C409.98 39.37 411.85 39.05 413.58 38.07C416.53 36.41 413.36 35.1 411.12 34.78C404.62 33.87 399.1 37.61 395.48 38.56C394.24 38.89 393.28 38.73 393.03 40.13C392.71 41.94 394.6 43.6 397.53 40.63C399.46 38.68 406.19 36.87 409.69 36.99H409.7ZM401.76 17.77C401.1 18.64 400.46 20.08 399.77 21.16C399.04 22.32 398.48 23.95 397.02 24.15C395.36 21.69 397.62 20.68 397.69 19.96C397.26 18.15 395.91 17.06 394.67 18.64C394 19.49 393.37 21.92 393.49 23.29C393.8 26.92 397.96 28.04 399.96 24.96C400.78 23.69 401.23 22.29 402.31 21.62C403.67 20.77 405.34 22.36 403.76 23.85C397.96 29.34 399.86 25.91 396.8 28.5L397.23 30.66C395.78 31.07 394.73 31.78 393.15 31.97C392.58 31.18 392.36 28.9 391.64 28.48C389.08 28.1 389.44 29.45 388.09 30.93C387.24 31.86 385.58 32.9 385.33 34.16C384.16 40.04 385.6 37.52 382.15 43.08C381.42 44.26 380.55 45.82 380.73 47.6C381.03 50.66 384.86 56.06 388.05 44.83C389 41.5 388.53 40.12 392.56 37.2C399.18 32.41 418.26 28.44 420.77 33.65C420 35.32 417.6 36.68 417.29 38.9C420.26 38.54 420.27 38.6 423.24 39.21C426.2 39.82 432.68 41.15 432.19 36C431.72 31.05 423.15 29.31 419.12 28.65C414.08 27.83 410.69 28.65 406.08 28.5C407.68 25.98 416.82 20.97 416.4 17.41C416.24 16.09 414.44 15.31 413.01 15.27C409.24 15.17 406.48 18.54 405.63 18.83C403.55 19.52 404.91 17.5 401.74 17.78L401.76 17.77ZM466.96 37.01C466.1 37.86 456.88 41.25 452.89 44.05C450.97 45.4 450.69 45.41 450.81 47.35C451.04 51.31 453.74 47.26 459.31 47.23C458.09 48.89 450.3 49.2 451.82 56.64C455.51 57.85 455.88 53.09 459.6 50.75L468.91 45.47C468.62 49.9 465.98 57.16 470.99 60.16C474.62 62.34 482.53 59.11 485.41 57.43C488.08 55.88 494.28 49.82 494.48 48.11C494.79 45.52 492.59 44.12 491.44 41.8C489.73 38.36 489.91 39.67 488.63 37.65C488.05 36.74 488.32 36.72 487.46 36.56C486.04 37.82 487.54 39.83 487.23 42.17C486.56 47.29 484.49 51.92 479.65 54.02C476.68 55.31 471.94 56.15 471.45 51.43C471.26 49.66 472.8 45.38 473.5 43.7C473.96 42.59 474.39 42.93 475.47 42.36C476.15 35.74 468.48 40.56 465.51 41.09C465.87 40.31 468.2 38.57 468.88 38.05C470.63 36.71 471.56 37.01 473.42 36.16C473.94 32.76 467.78 34.66 465.39 33.75C464.22 33.3 464.37 32.74 462.79 32.99C461.8 36.06 466.05 36.5 466.98 37L466.96 37.01ZM452.05 29.63C450.84 29.06 451.06 28.34 449.98 27.72C446.7 28.72 445.42 37.75 443.82 41.43C440.8 48.37 437.97 50.04 442.16 55.91C447.19 55 444.99 41.72 449.27 36.85C450.3 37.13 449.97 37.44 451.28 37.48C453.95 34.44 455.81 27.32 457.04 23.12C457.64 21.07 456.56 19.31 454.2 19.52C453.86 21.93 456.08 19.83 454.44 24.67C453.85 26.43 453.19 28.62 452.05 29.63ZM469.93 24.35C469.75 24.48 469.87 24.44 469.4 24.64C469.11 24.76 468.95 24.81 468.61 24.91C468.08 25.07 467.55 25.19 466.97 25.33L460.62 26.69C459.27 27 458.37 26.58 457.44 27.42C456.56 29.45 459.08 30.45 461.09 30.48C462.46 30.5 465.11 29.21 466.49 28.71C469.11 27.76 475.18 25.47 478.24 26.07C477.66 27.46 468.72 30.59 467.61 32.84L482.01 29.25C483.61 28.15 483.65 23.78 477.12 23.56C474.1 23.46 474.04 24.15 472.46 22.02C470.98 20.02 468.4 17.42 464.53 17.99C463.6 19.36 464.66 20.85 465.71 22.06C466.63 23.13 468.6 23.48 469.93 24.35ZM156.96 15.35L158.79 15.83C159 18.67 156.88 29.04 151.28 29.34C151.72 25.68 150.19 22.7 147.46 21.97C148.12 23.95 147.96 24.17 144.98 27.56C143.5 29.24 142.16 30.67 140.72 32.34C139.39 33.88 137.22 36.28 137.38 38.02C137.53 39.7 140.72 42.13 142.81 41.92C143.69 39.95 144.06 37.9 146.59 36.15C148.1 35.1 151.04 32.95 153.29 32.71C152.87 35.05 150.95 38.73 149.89 40.75C148.03 44.28 148.36 44.96 144.73 46.67C142.19 47.87 139.42 48.71 136.58 49.65C128.46 52.35 132.74 50.31 128.04 49.42C127.97 51.84 127.99 53.86 129.25 55.21C134.34 60.68 137.72 52.6 144.69 52.74C145.24 54.16 145.23 55.17 148.68 55.93C150.02 56.23 152.08 56.03 153.82 56.96C154.47 57.3 154.14 57.1 154.46 57.41C153.83 58.56 152.81 58.92 152.3 59.94C151.71 61.11 152 63.09 152.89 63.61C155.18 64.94 157.09 60.95 158.03 59.73C161.55 55.18 165.97 63.61 170.75 62.41C171.47 60 169.22 58.81 167.46 57.81C165.91 56.92 163.57 55.69 161.79 55.19C161.97 53.18 163.07 51.66 164.18 50.39C165.32 49.08 167.4 48.77 169.67 48.92C175.26 49.28 176.25 52.57 180.68 51.64C181.95 48.87 181.71 47.67 179.3 46.48C173.39 43.55 173.02 43.97 166.82 43.25C164.88 43.02 163.71 40.77 161.66 40.48C160.59 41.43 161.2 41.92 160.63 43.2C158.73 44.36 155.51 44.68 152.91 44.7L156.34 35.56C157.89 31.81 158.76 29.84 163.65 29.92C163.01 33.99 158.42 35.05 157.95 38.17C160.92 38.2 164 37.22 166.62 36.52C169.35 35.79 172.62 35.44 173.11 32.6C173.69 29.3 171.34 27.19 169.14 26.43C165.93 25.32 162.69 26.91 159.48 26.77C159.61 21.09 164.87 20.96 160.7 16.01C159.51 14.6 157.91 14.65 156.97 15.34L156.96 15.35ZM151.23 51.73C151.93 53.16 157.83 55.53 158.96 49.23C157.22 49.33 152.05 50.67 151.23 51.73ZM284.16 37.95C284.25 36.05 285.53 35.71 286.46 34.69C286.19 31.15 284.73 32.01 283.91 31.59C284.61 30.45 290.48 27.74 290.68 25.65C290.43 24.44 289.68 23.61 289.09 22.81C289.14 22.77 289.23 22.68 289.26 22.73C289.29 22.78 289.39 22.67 289.43 22.65L290.61 22.29L290.13 19.68C286.8 19.44 284.48 20.61 281.55 21.02C278.62 21.44 275.79 21.88 272.9 22.29C271.21 22.53 268.06 22.92 266.28 22.81C265.17 22.74 264.99 22.42 264.17 22.37C262.5 22.26 261.95 24.32 263.21 25.12C265.25 26.42 273.37 25.23 275.75 25.01C275.54 26.38 275.09 26.92 274.88 28.06C274.64 29.33 275.18 30.28 275.36 31.41C274.65 32 273.9 32.6 272.71 33.11C271.4 33.68 270.88 33.64 270 34.69C270 35.9 270.45 38.23 271.2 39.12C272.32 38.79 272.11 38.43 273.32 38.11C275.35 37.57 279.69 36.43 281.43 36.6C281.43 39.19 279.63 39.04 277.6 39.81C274.57 40.96 274.08 39.74 271.39 39.85C270.99 40.4 270.12 41.42 269.66 41.94C269.08 42.59 268.32 43.05 267.37 43.52C263.02 45.69 262.23 43.67 261.12 43.96C258.78 45.17 259.79 47.31 261.12 48.68C263.76 48.94 266.59 46.27 269.39 46.86C269.87 48.29 269.47 50.11 270.01 51.38C270.45 52.4 272.2 53.36 273.49 53.2C275.61 52.93 275.7 47.95 277.97 47.02C278.15 48.63 277.89 51.35 278.58 52.65C279.04 53.51 280.7 55.19 282.2 55.08L281.86 45.4C284.35 46.43 283.12 48.29 288.34 49.73C288.05 44.91 284.52 45.35 282.3 43.22C282.88 40.9 286.55 40.17 289.41 40.04C289.33 42.71 289.19 42.54 290.46 44.36C295.27 51.25 295.05 42.55 295.93 39.55C296.52 37.54 300.19 36.32 302.58 36.15C302.54 39.21 301.38 42.36 301.58 45.81L302.14 55.88C302.31 59.83 301.91 63.52 303.23 66.98C304.43 67.15 305.06 66.85 305.72 66.42C305.61 63.19 304.36 43.14 305.92 39.73C307.09 37.16 304.87 36.91 304.56 35.48C306.92 34.07 310.03 35.18 312.8 35.04C313.75 28.94 304.79 29.33 301.31 30.23C299.55 30.68 298.56 31.64 296.92 32C297.14 28.85 298.69 27.71 299.65 25.21C301.69 19.89 307.37 17.48 302.36 13.1C301.57 12.41 300.25 11.84 298.83 11.99C296.48 12.24 298.9 13.39 298.86 14.8C298.84 15.41 296.17 19.64 295.57 20.87C293.57 25.01 291.74 30.34 290.44 34.86C289.82 37.02 286.28 37.89 284.16 37.97V37.95ZM273.27 49.21C274.26 48.9 274.43 48.19 275.11 47.36C275.98 46.29 276.02 46.42 277.36 45.79C277.41 44.81 276.83 44.17 276.37 43.52C272.62 43.3 272.45 47.96 273.27 49.21ZM276.89 28.74C277.93 29.1 277.1 28.52 277.78 28.97C278.09 29.17 277.87 29.25 278.43 29.67C281.53 28.6 286.45 25.17 287.56 22.95C285.35 22.91 282.41 23.41 280.37 23.92C277.6 24.61 276.11 25.23 276.89 28.73V28.74ZM208.45 48.91C208.5 51.35 208.15 52.48 208.02 54.45C209.78 53.9 209.78 52.67 211.17 51.64C212.64 50.55 213.04 50.4 213.02 47.92C211.33 47.6 209.67 48.32 208.45 48.92V48.91ZM219.28 39.08C220.27 40.33 220.83 39.07 223.64 42.46C224.46 43.44 226.36 45.85 228.58 45.11C228.62 45.04 228.65 44.87 228.67 44.9C228.68 44.94 228.73 44.75 228.75 44.69L228.97 42.43C229.01 41.32 229.08 40.77 228.75 39.69C226.75 39.44 226.1 41.44 223.71 40.6C222.22 40.07 220.61 37.53 219.29 39.07L219.28 39.08ZM216.15 49.22C218.24 50.03 219.99 50.56 221.92 51.41C223.6 52.15 226.65 49.83 225.75 48.41C225.21 47.55 221.74 45.99 220.25 45.77C217.77 45.41 215.71 46.91 216.15 49.22Z" fill="#040000"/>
<path d="M133.89 92.05H138.63L136.17 87.44L133.89 92.05ZM146.02 95.99V96.43H138.15V95.99H138.43C139.7 95.94 140.26 95.7 140.14 95.26C140.07 94.77 139.7 93.94 139 92.77H133.6C132.78 94.14 132.4 94.94 132.46 95.18C132.46 95.57 133.09 95.83 134.36 95.98H134.46V96.42H129.53V95.98C130.54 95.98 131.33 95.25 131.9 93.79L137.3 83.49H137.96L143.36 93.36C144.37 95.36 145.26 96.23 146.01 95.99H146.02ZM148.37 96.43V95.99C149.95 95.94 150.68 95.43 150.55 94.46V85.61C149.47 84.64 148.78 84.17 148.46 84.22V83.78H153.58L162.02 91.75V86.12C162.15 84.9 161.39 84.27 159.74 84.22V83.78H164.95V84.22C163.56 84.32 162.93 84.83 163.06 85.75V96.64H162.4L151.59 86.63V94.09C151.46 95.36 152.22 95.99 153.86 95.99V96.43H148.36H148.37ZM185.04 95.99V96.43H176.79V95.99C178.37 95.94 179.1 95.48 178.97 94.6V90.36H173.19V94.6C173.07 95.48 173.79 95.94 175.37 95.99V96.43H167.12V95.99C168.64 95.94 169.33 95.48 169.21 94.6V85.61C169.27 84.68 168.58 84.22 167.12 84.22V83.78H175.37V84.22C173.85 84.22 173.13 84.68 173.19 85.61V89.48H178.97V85.61C179.03 84.68 178.31 84.22 176.79 84.22V83.78H185.04V84.22C183.59 84.22 182.89 84.68 182.95 85.61V94.6C182.82 95.48 183.52 95.94 185.04 95.99ZM203.69 83.79V84.23C202.3 84.28 201.67 84.81 201.8 85.84V91.83C201.74 93.54 201.29 94.73 200.47 95.41C199.4 96.19 197.82 96.6 195.73 96.65C193.58 96.65 191.94 96.31 190.8 95.63C189.6 94.95 189.03 93.8 189.09 92.2V85.98C189.22 84.76 188.55 84.18 187.1 84.23V83.79H195.34V84.23C193.57 84.08 192.78 84.67 192.97 85.98V92.2C192.91 94.64 194.07 95.85 196.48 95.85C199.45 95.85 200.87 94.51 200.75 91.83V86.13C200.88 84.86 200.09 84.23 198.38 84.23V83.79H203.69ZM214.38 95.99V96.43H205.85V95.99C207.49 95.94 208.25 95.48 208.13 94.6V85.61C208.19 84.68 207.43 84.22 205.85 84.22V83.78H214.38V84.22H214.19C212.67 84.22 211.95 84.68 212.01 85.61V94.6C211.94 95.53 212.73 95.99 214.38 95.99ZM237.51 83.79V84.23C236.25 83.74 234.1 85.35 231.06 89.05L235.42 94.39C236.37 95.56 237.16 96.1 237.79 96V96.44H229.55V96C230.88 95.95 231.51 95.73 231.45 95.34C231.38 95 231.23 94.68 230.98 94.39L228.51 91.39L227.56 92.34C225.85 94.05 225.1 95 225.29 95.19C225.23 95.68 225.89 95.94 227.28 95.99V96.43H221.21V95.99H221.4C222.41 95.84 223.2 95.48 223.77 94.89L228.03 90.8L223.2 85.32C222.63 84.59 221.97 84.23 221.21 84.23V83.79H229.64V84.23C228.18 84.23 227.55 84.45 227.74 84.89C227.68 85.13 227.8 85.35 228.12 85.55L230.39 88.4C232.79 85.96 233.74 84.79 233.23 84.89C233.23 84.55 232.72 84.33 231.71 84.23H231.43V83.79H237.5H237.51ZM248.48 95.99V96.43H239.95V95.99C241.59 95.94 242.35 95.48 242.23 94.6V85.61C242.29 84.68 241.53 84.22 239.95 84.22V83.78H248.48V84.22H248.29C246.77 84.22 246.05 84.68 246.11 85.61V94.6C246.04 95.53 246.83 95.99 248.48 95.99ZM250.46 96.43V95.99C252.04 95.94 252.76 95.43 252.64 94.46V85.61C251.56 84.64 250.87 84.17 250.55 84.22V83.78H255.67L264.1 91.75V86.12C264.23 84.9 263.47 84.27 261.82 84.22V83.78H267.03V84.22C265.64 84.32 265.01 84.83 265.14 85.75V96.64H264.48L253.67 86.63V94.09C253.54 95.36 254.3 95.99 255.94 95.99V96.43H250.44H250.46ZM287.12 95.99V96.43H278.87V95.99C280.45 95.94 281.18 95.48 281.05 94.6V90.36H275.27V94.6C275.14 95.48 275.87 95.94 277.45 95.99V96.43H269.2V95.99C270.72 95.94 271.41 95.48 271.29 94.6V85.61C271.35 84.68 270.66 84.22 269.2 84.22V83.78H277.45V84.22C275.93 84.22 275.21 84.68 275.27 85.61V89.48H281.05V85.61C281.11 84.68 280.39 84.22 278.87 84.22V83.78H287.12V84.22C285.67 84.22 284.97 84.68 285.03 85.61V94.6C284.9 95.48 285.6 95.94 287.12 95.99ZM305.77 83.79V84.23C304.38 84.28 303.75 84.81 303.88 85.84V91.83C303.82 93.54 303.37 94.73 302.55 95.41C301.48 96.19 299.9 96.6 297.81 96.65C295.66 96.65 294.02 96.31 292.88 95.63C291.68 94.95 291.11 93.8 291.17 92.2V85.98C291.3 84.76 290.63 84.18 289.18 84.23V83.79H297.43V84.23C295.66 84.08 294.87 84.67 295.06 85.98V92.2C295 94.64 296.16 95.85 298.57 95.85C301.54 95.85 302.96 94.51 302.84 91.83V86.13C302.97 84.86 302.18 84.23 300.47 84.23V83.79H305.78H305.77ZM312.01 92.05H316.75L314.29 87.44L312.01 92.05ZM324.14 95.99V96.43H316.27V95.99H316.55C317.82 95.94 318.38 95.7 318.26 95.26C318.19 94.77 317.82 93.94 317.12 92.77H311.72C310.9 94.14 310.52 94.94 310.58 95.18C310.58 95.57 311.21 95.83 312.48 95.98H312.58V96.42H307.65V95.98C308.66 95.98 309.45 95.25 310.02 93.79L315.42 83.49H316.08L321.48 93.36C322.49 95.36 323.38 96.23 324.13 95.99H324.14ZM347.93 83.79V84.23C346.54 84.28 345.91 84.81 346.04 85.84V91.83C345.98 93.54 345.53 94.73 344.71 95.41C343.64 96.19 342.06 96.6 339.97 96.65C337.82 96.65 336.18 96.31 335.04 95.63C333.84 94.95 333.27 93.8 333.33 92.2V85.98C333.46 84.76 332.79 84.18 331.34 84.23V83.79H339.59V84.23C337.82 84.08 337.03 84.67 337.22 85.98V92.2C337.16 94.64 338.32 95.85 340.73 95.85C343.7 95.85 345.12 94.51 345 91.83V86.13C345.13 84.86 344.34 84.23 342.63 84.23V83.79H347.94H347.93ZM350 96.43V95.99C351.58 95.94 352.31 95.43 352.18 94.46V85.61C351.1 84.64 350.41 84.17 350.09 84.22V83.78H355.21L363.65 91.75V86.12C363.78 84.9 363.02 84.27 361.37 84.22V83.78H366.58V84.22C365.19 84.32 364.56 84.83 364.69 85.75V96.64H364.03L353.22 86.63V94.09C353.09 95.36 353.85 95.99 355.49 95.99V96.43H349.99H350ZM377.28 95.99V96.43H368.75V95.99C370.39 95.94 371.15 95.48 371.03 94.6V85.61C371.09 84.68 370.33 84.22 368.75 84.22V83.78H377.28V84.22H377.09C375.57 84.22 374.85 84.68 374.91 85.61V94.6C374.84 95.53 375.63 95.99 377.28 95.99ZM395.83 83.79V84.23C394.82 84.23 394.1 84.74 393.65 85.76L388.15 96.65H387.49L381.33 85.54C380.89 84.66 380.19 84.22 379.25 84.22V83.78H387.4V84.22C385.82 84.22 385.13 84.49 385.32 85.02C385.32 85.31 385.57 85.85 386.08 86.63L389.21 92.55L392.34 86.41C392.34 86.41 392.37 86.26 392.44 86.12C392.69 85.63 392.82 85.29 392.82 85.1C392.95 84.52 392.25 84.22 390.74 84.22V83.78H395.86L395.83 83.79ZM397.9 84.23V83.79H411.93V87.52H411.26C411.07 85.32 409.24 84.3 405.76 84.45C404.43 84.35 403.84 84.65 403.96 85.33V89.64C406.42 89.79 407.75 88.86 407.94 86.86H408.51V93.14H407.94C407.75 91.09 406.42 90.14 403.96 90.29V94.82C403.83 95.55 404.53 95.89 406.04 95.84C409.07 95.89 411.19 94.8 412.39 92.55H413.05L412.1 96.42H397.89V95.98C399.47 95.93 400.19 95.47 400.07 94.59V85.6C400.13 84.67 399.41 84.21 397.89 84.21L397.9 84.23ZM421.58 85.18V90C424.8 90.15 426.29 89.2 426.04 87.15C426.04 85.35 425.06 84.45 423.1 84.45C421.96 84.35 421.46 84.6 421.58 85.18ZM432.19 95.99V96.43H427.26L422.24 90.58H421.58V94.23C421.39 95.4 422.09 95.98 423.67 95.98V96.42H415.52V95.98C417.1 96.03 417.8 95.44 417.61 94.23V85.97C417.74 84.7 417.04 84.12 415.52 84.22V83.78H423.29C427.77 83.83 430.05 84.92 430.11 87.07C430.17 88.63 428.91 89.7 426.32 90.29L431.25 95.63C431.57 95.87 431.88 95.99 432.2 95.99H432.19ZM445.25 87.52H444.59C443.64 85.28 442.06 84.13 439.85 84.08C438.14 84.18 437.26 84.76 437.2 85.84C437.01 86.72 437.86 87.47 439.76 88.1L443.27 89.42C445.04 90.2 445.92 91.34 445.92 92.86C445.67 95.3 443.68 96.56 439.95 96.66C439 96.66 437.96 96.54 436.82 96.3C436.31 96.2 435.97 96.15 435.78 96.15C435.4 96.15 435.14 96.32 435.02 96.66H434.36V92.2H435.02C435.84 94.83 437.52 96.14 440.04 96.14C441.94 96.09 442.95 95.41 443.07 94.09C443.13 93.11 442.22 92.36 440.32 91.82L438.71 91.16C435.8 90.09 434.42 88.77 434.54 87.21C434.73 84.77 436.53 83.53 439.94 83.48C440.7 83.48 441.61 83.62 442.69 83.92C443.2 84.07 443.54 84.14 443.73 84.14C444.17 84.14 444.43 83.92 444.49 83.49H445.25V87.51V87.52ZM457.18 95.99V96.43H448.65V95.99C450.29 95.94 451.05 95.48 450.93 94.6V85.61C450.99 84.68 450.23 84.22 448.65 84.22V83.78H457.18V84.22H456.99C455.47 84.22 454.75 84.68 454.81 85.61V94.6C454.74 95.53 455.53 95.99 457.18 95.99ZM471.18 95.99V96.43H462.56V95.99C464.33 96.09 465.12 95.5 464.92 94.24V84.37C462.08 84.32 460.5 85.37 460.19 87.51H459.53L459.62 83.78H474.12L474.21 87.51H473.45C473.2 85.36 471.65 84.32 468.8 84.37V94.24C468.61 95.51 469.4 96.09 471.17 95.99H471.18ZM493.06 83.79V84.23H492.97C492.27 84.33 491.77 84.57 491.45 84.96L486.8 90.81V94.25C486.61 95.47 487.34 96.05 488.98 96V96.44H480.54V96C482.24 96.05 483 95.46 482.81 94.25V91.47L478.36 85.26C477.91 84.63 477.28 84.29 476.46 84.24V83.8H484.61V84.24C483.09 84.19 482.43 84.41 482.62 84.9C482.62 85.05 482.75 85.32 483 85.7C483.13 85.8 483.19 85.87 483.19 85.92L486.13 90.3L488.79 86.79C489.36 86.16 489.67 85.6 489.74 85.11C489.81 84.57 489.14 84.28 487.75 84.23V83.79H493.06Z" fill="#040000"/>
</g>
<defs>
<clipPath id="clip0_257_22">
<rect width="494.5" height="111.79" fill="white"/>
</clipPath>
</defs>
</svg>
