<svg width="128" height="128" viewBox="0 0 128 128" fill="none" xmlns="http://www.w3.org/2000/svg">
<path d="M63.9 8C79.34 8 93.31 14.26 103.42 24.37C113.54 34.49 119.79 48.46 119.79 63.89C119.79 79.32 113.53 93.3 103.42 103.41C93.3 113.53 79.33 119.78 63.9 119.78C48.47 119.78 34.49 113.52 24.38 103.41C14.26 93.31 8 79.33 8 63.9C8 48.47 14.26 34.49 24.37 24.37C34.49 14.26 48.46 8 63.9 8ZM102.18 25.61C92.39 15.81 78.85 9.75 63.9 9.75C48.95 9.75 35.41 15.81 25.61 25.61C15.81 35.41 9.75 48.94 9.75 63.9C9.75 78.86 15.81 92.39 25.61 102.19C35.41 111.99 48.95 118.05 63.9 118.05C78.85 118.05 92.39 111.99 102.19 102.19C111.99 92.39 118.05 78.85 118.05 63.9C118.05 48.95 111.99 35.41 102.19 25.61H102.18Z" fill="#19316C"/>
<path fill-rule="evenodd" clip-rule="evenodd" d="M63.9 23.4199C86.25 23.4199 104.37 41.5399 104.37 63.8899C104.37 86.2399 86.25 104.36 63.9 104.36C41.55 104.36 23.42 86.2499 23.42 63.8999C23.42 41.5499 41.54 23.4199 63.9 23.4199ZM53.16 93.5899V92.8999L55.42 90.6999L55.44 90.6799C55.86 90.2299 56.07 89.8899 56.07 89.6399C56.07 89.4399 56 89.2799 55.85 89.1499C55.7 89.0199 55.51 88.9599 55.27 88.9599C55.06 88.9599 54.87 89.0199 54.72 89.1499C54.56 89.2799 54.46 89.4499 54.41 89.6599L53.16 89.6799C53.26 88.8999 53.67 88.3699 54.04 88.1299C54.41 87.8999 54.85 87.7799 55.35 87.7799C55.95 87.7799 56.45 87.9499 56.86 88.2899C57.27 88.6299 57.47 89.0599 57.47 89.5699C57.47 89.8799 57.38 90.2099 57.19 90.5399C57.01 90.8699 56.72 91.2299 56.34 91.6199L55.52 92.4399H57.76V93.5899H53.15H53.16ZM60.33 90.7799C60.33 91.3399 60.4 91.7699 60.55 92.0899C60.69 92.3999 60.89 92.5599 61.15 92.5599C61.41 92.5599 61.61 92.3999 61.75 92.0899C61.9 91.7799 61.97 91.3399 61.97 90.7799C61.97 90.2199 61.9 89.7799 61.76 89.4699C61.62 89.1599 61.41 88.9999 61.16 88.9999C60.91 88.9999 60.71 89.1599 60.56 89.4699C60.41 89.7899 60.34 90.2199 60.34 90.7799H60.33ZM58.9 90.7799C58.9 89.8399 59.1 89.1099 59.5 88.5799C59.9 88.0499 60.45 87.7899 61.14 87.7899C61.83 87.7899 62.39 88.0499 62.79 88.5799C63.19 89.1099 63.39 89.8399 63.39 90.7799C63.39 91.7199 63.19 92.4499 62.79 92.9799C62.39 93.5099 61.84 93.7699 61.14 93.7699C60.44 93.7699 59.89 93.5099 59.5 92.9799C59.1 92.4499 58.9 91.7199 58.9 90.7799ZM65.95 90.7799C65.95 91.3399 66.02 91.7699 66.17 92.0899C66.31 92.3999 66.51 92.5599 66.77 92.5599C67.03 92.5599 67.23 92.3999 67.37 92.0899C67.52 91.7799 67.59 91.3399 67.59 90.7799C67.59 90.2199 67.52 89.7799 67.38 89.4699C67.24 89.1599 67.03 88.9999 66.78 88.9999C66.53 88.9999 66.33 89.1599 66.18 89.4699C66.03 89.7899 65.96 90.2199 65.96 90.7799H65.95ZM64.52 90.7799C64.52 89.8399 64.72 89.1099 65.12 88.5799C65.52 88.0499 66.07 87.7899 66.76 87.7899C67.45 87.7899 68.01 88.0499 68.41 88.5799C68.81 89.1099 69.01 89.8399 69.01 90.7799C69.01 91.7199 68.81 92.4499 68.41 92.9799C68.01 93.5099 67.46 93.7699 66.76 93.7699C66.06 93.7699 65.51 93.5099 65.12 92.9799C64.72 92.4499 64.52 91.7199 64.52 90.7799ZM71.57 90.7799C71.57 91.3399 71.64 91.7699 71.79 92.0899C71.93 92.3999 72.13 92.5599 72.39 92.5599C72.65 92.5599 72.85 92.3999 72.99 92.0899C73.14 91.7799 73.21 91.3399 73.21 90.7799C73.21 90.2199 73.14 89.7799 73 89.4699C72.86 89.1599 72.65 88.9999 72.4 88.9999C72.15 88.9999 71.95 89.1599 71.8 89.4699C71.65 89.7899 71.58 90.2199 71.58 90.7799H71.57ZM70.14 90.7799C70.14 89.8399 70.34 89.1099 70.74 88.5799C71.14 88.0499 71.69 87.7899 72.38 87.7899C73.07 87.7899 73.63 88.0499 74.03 88.5799C74.43 89.1099 74.63 89.8399 74.63 90.7799C74.63 91.7199 74.43 92.4499 74.03 92.9799C73.63 93.5099 73.08 93.7699 72.38 93.7699C71.68 93.7699 71.13 93.5099 70.74 92.9799C70.34 92.4499 70.14 91.7199 70.14 90.7799ZM51.19 34.1899C51.19 34.1899 59.77 34.7699 53.51 41.9499C49.79 46.2199 41.11 51.6799 40.76 52.2599C40.88 52.4899 58.78 45.0399 61.74 40.4399C66.52 32.9999 51.19 34.1799 51.19 34.1799V34.1899ZM75.53 47.6299C75.53 47.6299 87.45 51.8199 71.19 64.5599C62.08 71.6999 46.62 81.0999 36.88 85.7599C50.73 80.9799 79.12 68.0699 87.18 60.0699C100.01 47.3399 75.52 47.6299 75.52 47.6299H75.53ZM62.9 39.3199C62.9 39.3199 72.4 40.7599 62.87 50.8499C57.1 56.9599 40.74 65.8899 39.64 66.7499C49.78 63.6199 69.3 54.5899 74.4 48.2699C83.58 36.8799 62.91 39.3199 62.91 39.3199H62.9Z" fill="#19316D"/>
<path d="M18.0899 59.6099L18.2599 58.3099L16.5299 58.7699L18.0899 59.6199V59.6099ZM20.4899 55.7699L20.7899 55.8099L20.3999 58.6999L19.9899 58.6499L20.0199 58.4499C20.0399 58.2499 20.0199 58.0999 19.9899 58.0199C19.9699 57.9699 19.9299 57.9399 19.8899 57.9399H19.8799C19.7799 57.9399 19.6299 57.9499 19.4499 57.9899C19.2799 58.0299 19.0699 58.0799 18.8299 58.1499L18.5999 59.8599C18.8499 60.0199 19.0599 60.1399 19.2099 60.2199C19.3599 60.2999 19.4599 60.3399 19.4899 60.3399H19.5099C19.5099 60.3399 19.5999 60.3199 19.6499 60.2499C19.7099 60.1599 19.7799 60.0199 19.8299 59.8299L19.8499 59.6999L20.2599 59.7499L20.0099 61.6399L19.5999 61.5899V61.4799C19.6299 61.3399 19.5799 61.2099 19.4599 61.0699C19.3299 60.9199 19.1099 60.7799 18.8199 60.6499C17.7699 60.2299 15.5499 58.7899 14.4399 58.1599L14.4899 57.7899L19.1699 56.5199L19.3599 56.4699C19.7399 56.3699 20.0199 56.2599 20.1999 56.1499C20.3399 56.0599 20.3999 55.9799 20.3799 55.9099L20.3399 55.7499L20.4999 55.7699H20.4899ZM20.8299 54.7999L20.5399 54.7199L20.5799 54.5199C20.6099 54.3199 20.5999 54.1699 20.5399 54.0599C20.4899 53.9599 20.3799 53.8899 20.2399 53.8499C19.0299 53.5899 17.6299 53.1299 16.4099 52.7899C16.1699 52.8999 15.9999 52.9999 15.8699 53.0799C15.7699 53.1499 15.7199 53.1899 15.7099 53.2099V53.3399L15.2799 53.2199L15.7899 51.3699L19.7599 49.6199L17.6199 49.0299C17.3899 48.9499 17.2099 48.9399 17.0699 49.0199C16.9299 49.0899 16.8099 49.2499 16.7399 49.4899L16.7099 49.5899L16.3199 49.4799L16.8599 47.5399L17.2499 47.6499L17.2299 47.7699C17.1999 47.9699 17.2099 48.1199 17.2799 48.2299C17.3399 48.3299 17.4499 48.3999 17.6199 48.4299C18.8999 48.6399 21.0799 49.3799 22.4299 49.7599L22.3299 50.1299L17.2599 52.4199C18.2599 52.6999 19.3099 52.9499 20.2899 53.2599C20.4799 53.3099 20.6299 53.3099 20.7499 53.2399C20.8699 53.1799 20.9699 53.0499 21.0299 52.8699L21.0899 52.6599L21.4899 52.7699L20.9299 54.7999L20.8299 54.7699V54.7999ZM25.2499 42.3399L25.5299 42.4699C25.0999 43.3899 24.6799 44.3199 24.2599 45.2499L23.8899 45.0799L23.9799 44.8599C24.0399 44.6799 24.0499 44.5399 24.0199 44.4299C23.9899 44.3299 23.9199 44.2599 23.7999 44.2099C23.2699 44.0099 22.6499 43.6899 22.1199 43.4499L21.3799 45.0599C21.9099 45.2999 22.5599 45.5599 23.0599 45.8299C23.1699 45.8899 23.2799 45.8899 23.3699 45.8499C23.4799 45.7999 23.5799 45.6999 23.6699 45.5399L23.7799 45.3299L24.1499 45.4999L22.8799 48.2699L22.5099 48.0999L22.5899 47.8899C22.6499 47.7199 22.6599 47.5799 22.6199 47.4699C22.5899 47.3699 22.5099 47.2999 22.3999 47.2499C21.1799 46.7999 19.9099 46.0299 18.6899 45.5599C18.5399 45.4799 18.4099 45.4699 18.2899 45.5199C18.1699 45.5699 18.0599 45.6999 17.9699 45.9099L17.9299 46.0099L17.5599 45.8399L18.8299 43.0699L19.1999 43.2399L19.1599 43.3399C19.0599 43.5499 19.0299 43.7299 19.0699 43.8599C19.0999 43.9799 19.1999 44.0699 19.3599 44.1399L20.8399 44.8199L21.5799 43.2099L20.0599 42.5099C19.9299 42.4499 19.8099 42.4399 19.7099 42.4899C19.5999 42.5399 19.4999 42.6499 19.4099 42.8199L19.3299 42.9999L18.9499 42.8299L20.2199 40.0599L20.5899 40.2299L20.5399 40.3299C20.4499 40.5299 20.4199 40.6999 20.4599 40.8199C20.4899 40.9399 20.5899 41.0299 20.7499 41.0899C21.8799 41.5899 23.4099 42.2099 24.4599 42.7899C24.5699 42.8499 24.6799 42.8599 24.7699 42.8199C24.8699 42.7799 24.9699 42.6799 25.0699 42.5199L25.1699 42.3199L25.2599 42.3599L25.2499 42.3399ZM24.6899 33.5299L24.9299 33.6999L24.8699 33.7899C24.7599 33.9699 24.7099 34.1199 24.7399 34.2499C24.7699 34.3799 24.8699 34.4899 25.0399 34.5899C25.7199 34.9999 26.5599 35.6699 27.2299 36.1399C27.5399 36.3799 27.7899 36.5999 27.9699 36.8299C28.1499 37.0599 28.2699 37.2799 28.3099 37.5099C28.3499 37.7799 28.3199 38.0599 28.2399 38.3499C28.1599 38.6399 28.0099 38.9299 27.8099 39.2399C27.5899 39.5499 27.3599 39.7999 27.1299 39.9999C26.8899 40.1999 26.6499 40.3299 26.3999 40.4099C26.1399 40.4999 25.8599 40.4999 25.5799 40.4299C25.2999 40.3599 25.0099 40.2099 24.7199 39.9899L22.4499 38.3799C22.4499 38.3799 22.3599 38.3099 22.3199 38.2799C22.1899 38.1899 22.0599 38.1599 21.9599 38.1699C21.8499 38.1799 21.7499 38.2499 21.6599 38.3599L21.5799 38.4599L21.5199 38.5599L21.1799 38.3199C21.7699 37.4899 22.3499 36.6599 22.9399 35.8299L23.2899 36.0699L23.2099 36.1599C23.1399 36.2399 23.0899 36.3099 23.0499 36.3799C22.9899 36.4999 22.9599 36.5999 22.9799 36.6999C22.9999 36.7899 23.0499 36.8799 23.1499 36.9699C23.2099 37.0199 23.2799 37.0699 23.3599 37.1099C24.0399 37.4999 24.9599 38.2399 25.6299 38.7199C26.0499 39.0299 26.4099 39.1799 26.7299 39.1699C27.0299 39.1699 27.2899 39.0099 27.5099 38.6999C27.7899 38.3099 27.8799 37.9499 27.7799 37.6099C27.6899 37.2599 27.3999 36.9299 26.9199 36.6199C26.2399 36.1699 25.4999 35.6299 24.8399 35.1399C24.6499 34.9799 24.4699 34.9099 24.3099 34.9399C24.1499 34.9599 23.9899 35.0799 23.8399 35.2999L23.7799 35.3899L23.4399 35.1499L24.6199 33.4799L24.7099 33.5399L24.6899 33.5299ZM31.8299 33.5799L32.0599 33.7799C31.3699 34.5699 30.6899 35.3699 29.9999 36.1699L29.6899 35.8999L29.8399 35.6999C29.9499 35.5399 30.0099 35.3999 30.0099 35.2799C30.0099 35.1799 29.9599 35.0799 29.8699 35.0099C28.9499 34.3299 27.6399 33.1399 26.7799 32.3499C26.6599 32.2299 26.5299 32.1899 26.4099 32.2099C26.2699 32.2399 26.1199 32.3399 25.9599 32.5299L25.8899 32.6099L25.5799 32.3399L27.6399 29.9499L27.9499 30.2199L27.8399 30.3499C27.6899 30.5299 27.6099 30.6799 27.6099 30.8199C27.6099 30.9499 27.6699 31.0599 27.8099 31.1699C28.7899 31.9799 29.9299 32.9399 30.8499 33.7999C30.9699 33.9199 31.0999 33.9599 31.2299 33.9299C31.3699 33.8999 31.5299 33.7899 31.6999 33.5899L31.7699 33.5099L31.8499 33.5799H31.8299ZM34.7799 23.7699L35.0099 24.0599L34.8399 24.0899C34.6499 24.1299 34.5299 24.3799 34.4599 24.8399C34.3899 25.3299 34.4099 26.0399 34.4999 26.9699L37.0799 27.8999C37.3599 27.9999 37.5799 28.0599 37.7499 28.0699C37.8999 28.0699 37.9899 28.0499 38.0399 27.9999L38.1299 27.8999L38.3999 28.2399L35.9999 30.1199L35.7499 29.7999L35.9799 29.5899C36.0799 29.4899 36.1399 29.4099 36.1599 29.3499C36.1799 29.3099 36.1799 29.2799 36.1599 29.2599C36.1099 29.2099 36.0599 29.1699 35.9999 29.1299C35.9399 29.0999 35.8799 29.0699 35.8099 29.0499L34.4599 28.5699V28.9499C34.4599 29.4199 34.4799 29.7899 34.5099 30.0299C34.5299 30.2299 34.5499 30.3299 34.5499 30.3299H34.5899L34.6199 30.3899C34.6499 30.4299 34.6899 30.4399 34.7499 30.4399C34.8399 30.4399 34.9499 30.3799 35.0899 30.2899L35.2899 30.1499L35.5399 30.4699L33.7299 31.8899L33.4799 31.5699L33.6099 31.4699C33.7099 31.3499 33.7899 31.2199 33.8399 31.0899C33.8899 30.9499 33.9199 30.8099 33.9099 30.6599L33.9399 28.3899L31.1899 27.5099C31.0299 27.4499 30.8799 27.4199 30.7599 27.4199C30.6399 27.4199 30.5399 27.4599 30.4599 27.5299L30.3799 27.5999L30.1299 27.2799L32.5799 25.3599L32.8299 25.6799L32.7499 25.7499C32.5699 25.8899 32.4499 26.0099 32.3999 26.0999C32.3799 26.1499 32.3799 26.1799 32.3999 26.1999L32.4199 26.2199V26.2499C32.4199 26.2499 32.4699 26.2999 32.4999 26.3099C32.5299 26.3299 32.5699 26.3399 32.6299 26.3399H32.6499L33.9199 26.8099C33.9099 26.0599 33.8799 25.5699 33.8399 25.3199V25.2999L33.7499 25.1899C33.7299 25.1599 33.6899 25.1499 33.6299 25.1599C33.5499 25.1699 33.4399 25.2199 33.2999 25.2999L33.1399 25.4199L32.8899 25.0999L34.6999 23.6799L34.7699 23.7599L34.7799 23.7699ZM41.6599 25.7699L41.8199 26.0199L39.1699 27.7299L38.9499 27.3899L39.1499 27.2399C39.2999 27.1199 39.3999 26.9999 39.4299 26.8799C39.4599 26.7799 39.4299 26.6799 39.3699 26.5799C38.5999 25.5799 37.8899 24.2299 37.1499 23.1599C37.0599 23.0099 36.9599 22.9299 36.8299 22.9199C36.6899 22.9099 36.5199 22.9699 36.3099 23.0999L36.2199 23.1599L35.9999 22.8099L38.6499 21.0999L38.8699 21.4499L38.7299 21.5399C38.5299 21.6699 38.4099 21.7999 38.3699 21.9299C38.3299 22.0499 38.3699 22.1799 38.4599 22.3199C39.1599 23.4399 39.9099 24.5999 40.6399 25.6999C40.7199 25.8499 40.8299 25.9199 40.9599 25.9299C41.1099 25.9399 41.2899 25.8799 41.5099 25.7399L41.5999 25.6799L41.6599 25.7699ZM42.4599 25.3899L42.3399 25.1199L42.5199 25.0299C42.6899 24.9299 42.7999 24.8199 42.8499 24.7099C42.8899 24.5999 42.8799 24.4799 42.8199 24.3499C42.2499 23.2899 41.6899 21.8599 41.1799 20.7299C40.9399 20.6199 40.7599 20.5399 40.6199 20.4999C40.4999 20.4699 40.4299 20.4499 40.4199 20.4699L40.3099 20.5499L40.1299 20.1499L41.8799 19.3599L45.7599 21.2899L44.8499 19.2699C44.7699 19.0399 44.6499 18.8999 44.5099 18.8399C44.3599 18.7799 44.1699 18.7899 43.9299 18.8899L43.8299 18.9299L43.6599 18.5599L45.4899 17.7299L45.6599 18.0999L45.5499 18.1599C45.3799 18.2599 45.2699 18.3699 45.2299 18.4899C45.1899 18.5999 45.2099 18.7299 45.2899 18.8699C45.9899 20.0899 46.7399 22.0699 47.3499 23.4199L46.9999 23.5799L41.9999 21.1499C42.4199 22.0899 42.9099 23.0699 43.2899 24.0199C43.3699 24.1999 43.4699 24.3099 43.5999 24.3699C43.7299 24.4199 43.8799 24.4199 44.0599 24.3499L44.2599 24.2599L44.4299 24.6399L42.5099 25.5099L42.4699 25.4099L42.4599 25.3899ZM54.7899 20.6199L54.8699 20.9099L51.9399 21.7499L51.8299 21.3599L52.0499 21.2799C52.2299 21.2099 52.3399 21.1199 52.4099 21.0299C52.4599 20.9399 52.4699 20.8399 52.4299 20.7199C52.2299 20.1899 52.0799 19.4999 51.9199 18.9499L50.2099 19.4399C50.3699 19.9999 50.5999 20.6599 50.7099 21.2199C50.7399 21.3399 50.7999 21.4299 50.8999 21.4699C50.9999 21.5199 51.1499 21.5299 51.3399 21.4999L51.5699 21.4499L51.6799 21.8399L48.7499 22.6799L48.6399 22.2899L48.8499 22.2199C49.0199 22.1499 49.1299 22.0699 49.1899 21.9699C49.2399 21.8799 49.2499 21.7799 49.2099 21.6599C48.7999 20.5499 48.3999 18.9099 48.0899 17.7399C48.0499 17.5699 47.9799 17.4599 47.8699 17.4099C47.7499 17.3599 47.5799 17.3599 47.3699 17.4099L47.2699 17.4399L47.1599 17.0399L50.0899 16.1999L50.1999 16.5999L50.0999 16.6299C49.8699 16.6899 49.7199 16.7799 49.6499 16.8899C49.5799 16.9899 49.5699 17.1299 49.6299 17.2899L50.0799 18.8499L51.7899 18.3599L51.3399 16.7999C51.2999 16.6299 51.2199 16.5199 51.1099 16.4699C50.9899 16.4199 50.8099 16.4199 50.5799 16.4899L50.4799 16.5199L50.3699 16.1199L53.2999 15.2799L53.4099 15.6799L53.3099 15.7099C53.0999 15.7699 52.9499 15.8599 52.8799 15.9699C52.8099 16.0699 52.8099 16.2099 52.8599 16.3699C53.2199 17.4399 53.7499 19.2099 53.9799 20.2899C54.0099 20.4099 54.0699 20.4999 54.1599 20.5399C54.2599 20.5899 54.3999 20.5999 54.5799 20.5699L54.7999 20.5199L54.8299 20.6199H54.7899ZM60.8599 14.3199L60.8999 14.6099L60.7399 14.6399C60.5699 14.6799 60.4499 14.7499 60.3799 14.8499C60.3099 14.9499 60.2999 15.0799 60.3299 15.2399C60.4799 15.9799 60.6399 17.1999 60.6999 17.9599C60.7399 18.3499 60.7399 18.6799 60.6999 18.9699C60.6599 19.2599 60.5699 19.4999 60.4399 19.6799C60.2699 19.8899 60.0499 20.0699 59.7799 20.1999C59.5099 20.3299 59.1999 20.4299 58.8299 20.4899C58.4499 20.5399 58.1199 20.5499 57.8199 20.5099C57.5099 20.4699 57.2499 20.3799 57.0199 20.2499C56.7799 20.1199 56.5899 19.9199 56.4499 19.6599C56.3099 19.4099 56.2199 19.0999 56.1899 18.7299L55.8199 15.9699C55.8199 15.9099 55.8199 15.8499 55.7999 15.7999C55.7699 15.6399 55.7199 15.5299 55.6299 15.4599C55.5499 15.3899 55.4399 15.3599 55.2899 15.3699L55.1599 15.3899L55.0499 15.4099L54.9899 14.9999L58.0099 14.5899L58.0699 15.0099H57.9499C57.8499 15.0099 57.7499 15.0299 57.6699 15.0499C57.5399 15.0799 57.4499 15.1399 57.3899 15.2099C57.3299 15.2899 57.2999 15.3899 57.3099 15.5199C57.3099 15.5899 57.3199 15.6799 57.3499 15.7699C57.5199 16.4299 57.6199 17.7799 57.7199 18.5299C57.7799 19.0499 57.9199 19.4199 58.1299 19.6399C58.3399 19.8599 58.6299 19.9399 59.0099 19.8899C59.4799 19.8299 59.8099 19.6399 59.9999 19.3499C60.1899 19.0499 60.2299 18.6099 60.1399 18.0499C60.0199 17.2399 59.8799 16.3299 59.7999 15.5199C59.7899 15.2699 59.7099 15.0899 59.5899 14.9899C59.4599 14.8899 59.2699 14.8499 59.0099 14.8899H58.8999L58.8499 14.4999L60.8699 14.2299V14.3399H60.8799L60.8599 14.3199ZM64.2599 17.9399L65.5699 17.9599L64.9199 16.2899L64.2599 17.9299V17.9399ZM68.3499 19.8799V20.1799L65.4199 20.1299V19.7199H65.6299C65.8299 19.7199 65.9699 19.6899 66.0499 19.6399C66.0999 19.6099 66.1199 19.5799 66.1099 19.5299C66.1099 19.4199 66.0699 19.2799 66.0099 19.0999C65.9599 18.9299 65.8799 18.7299 65.7799 18.4999L64.0599 18.4699C63.9299 18.7399 63.8299 18.9599 63.7699 19.1199C63.7099 19.2799 63.6799 19.3799 63.6899 19.4099V19.4299C63.6899 19.4299 63.7299 19.5199 63.7999 19.5599C63.8999 19.6099 64.0399 19.6599 64.2399 19.6899H64.3699V20.0999L62.4599 20.0699V19.6599H62.5699C62.7099 19.6599 62.8399 19.5999 62.9599 19.4599C63.0899 19.3099 63.1999 19.0799 63.2999 18.7699C63.8499 17.2799 64.6299 15.6199 65.2699 14.1299H65.6399C66.2599 15.6999 66.9099 17.2499 67.5199 18.8199C67.6699 19.1899 67.7999 19.4599 67.9299 19.6099C68.0299 19.7399 68.1199 19.7899 68.1999 19.7599L68.3499 19.6999V19.8599V19.8799ZM78.0299 16.2799L77.9599 16.5699L77.8599 16.5499C77.6499 16.5099 77.4999 16.5299 77.3899 16.6099C77.2799 16.6799 77.2199 16.8199 77.1899 17.0199C77.1299 17.6099 76.7499 18.9999 76.5899 19.6399C76.4899 20.0199 76.3699 20.3299 76.2399 20.5799C76.0999 20.8399 75.9299 21.0299 75.7499 21.1599C75.5199 21.2999 75.2499 21.3799 74.9499 21.4199C74.6499 21.4499 74.3199 21.4299 73.9599 21.3599C73.5899 21.2699 73.2699 21.1599 73.0099 21.0199C72.7399 20.8799 72.5199 20.6999 72.3499 20.4999C72.1699 20.2899 72.0599 20.0399 72.0199 19.7499C71.9799 19.4699 72.0099 19.1399 72.0999 18.7899L72.7199 16.0799C72.7399 16.0199 72.7499 15.9699 72.7599 15.9199C72.7899 15.7599 72.7799 15.6399 72.7199 15.5399C72.6699 15.4499 72.5699 15.3799 72.4299 15.3399C72.3899 15.3299 72.3499 15.3199 72.2999 15.3099L72.1899 15.2899L72.2799 14.8799L75.2599 15.5599L75.1699 15.9699L75.0599 15.9299C74.9599 15.8999 74.8699 15.8699 74.7899 15.8699C74.6599 15.8599 74.5499 15.8699 74.4699 15.9199C74.3899 15.9699 74.3299 16.0599 74.2899 16.1799C74.2699 16.2499 74.2499 16.3299 74.2399 16.4199C74.1799 17.0699 73.7799 18.4199 73.6199 19.1299C73.4899 19.6399 73.4899 20.0299 73.6199 20.3199C73.7399 20.5999 73.9899 20.7799 74.3499 20.8599C74.8099 20.9699 75.1899 20.9099 75.4599 20.6999C75.7399 20.4799 75.9399 20.0899 76.0499 19.5299C76.2499 18.7199 76.3999 17.8399 76.6199 17.0399C76.6899 16.7999 76.6899 16.6099 76.5999 16.4699C76.5199 16.3299 76.3399 16.2299 76.0899 16.1699L75.9799 16.1499L76.0699 15.7499L78.0599 16.1999L78.0399 16.2999L78.0299 16.2799ZM77.6199 22.1199L77.7299 21.8399L77.9199 21.8999C78.1099 21.9499 78.2599 21.9599 78.3799 21.8999C78.4899 21.8599 78.5699 21.7599 78.6199 21.6199C78.9799 20.4599 79.5999 19.0799 80.0499 17.9199C79.9599 17.6699 79.8799 17.4899 79.8199 17.3599C79.7599 17.2499 79.7199 17.1999 79.6999 17.1899L79.5699 17.1699L79.7299 16.7599L81.5199 17.4499L82.8699 21.5699L83.6699 19.4999C83.7699 19.2799 83.7999 19.0999 83.7399 18.9499C83.6799 18.7999 83.5299 18.6699 83.2999 18.5699L83.1999 18.5299L83.3499 18.1499L85.2199 18.8699L85.0799 19.2399L84.9599 19.2099C84.7699 19.1599 84.6099 19.1599 84.4999 19.2099C84.3899 19.2599 84.3099 19.3699 84.2699 19.5299C83.8699 20.9199 83.0099 22.7799 82.4699 24.1899L82.1099 24.0499L80.3299 18.7799C79.9599 19.7399 79.5999 20.7699 79.1899 21.7099C79.1199 21.8899 79.1099 22.0499 79.1599 22.1699C79.2099 22.2999 79.3199 22.3999 79.4999 22.4899L79.6999 22.5699L79.5499 22.9499L77.5899 22.1899L77.6299 22.0899L77.6199 22.1199ZM86.7599 26.1699L86.6099 26.4299L83.8799 24.8699L84.0799 24.5199L84.2999 24.6299C84.4799 24.7099 84.6299 24.7299 84.7399 24.7099C84.8399 24.6899 84.9199 24.6199 84.9799 24.5199C85.4499 23.5199 86.3999 21.9299 86.9999 20.9799C87.0899 20.8399 87.1099 20.7099 87.0599 20.5899C87.0099 20.4599 86.8699 20.3299 86.6599 20.2099L86.5699 20.1599L86.7699 19.7999L89.4999 21.3599L89.2999 21.7199L89.0699 21.5899C88.8999 21.4999 88.7499 21.4699 88.6299 21.4899C88.5199 21.5099 88.4299 21.5899 88.3599 21.7099C87.7499 22.8399 87.0199 24.1599 86.3399 25.2399C86.2499 25.3799 86.2299 25.5099 86.2799 25.6399C86.3399 25.7699 86.4799 25.9099 86.6999 26.0299L86.7899 26.0799L86.7399 26.1699H86.7599ZM95.4999 25.5299L95.3299 25.7799L95.2399 25.7199C95.1199 25.6399 94.9899 25.5999 94.8499 25.6199C94.6999 25.6399 94.5399 25.7199 94.3599 25.8499C92.9899 26.8599 91.3899 27.8299 89.9599 28.7899L89.6499 28.5799C90.0099 26.8399 90.3399 24.9399 90.7599 23.2299C90.8099 23.0399 90.8099 22.8899 90.7699 22.7599C90.7399 22.6399 90.6599 22.5299 90.5499 22.4599L90.4599 22.3999L90.6999 22.0599L93.1699 23.7899L92.9299 24.1299L92.8399 24.0699C92.6899 23.9599 92.5499 23.8899 92.4499 23.8499C92.3899 23.8299 92.3299 23.8199 92.2899 23.8199C92.2599 23.8199 92.2399 23.8399 92.2299 23.8599C92.2299 23.8799 92.2099 23.9099 92.1999 23.9299C92.1699 23.9699 92.1399 24.0499 92.1099 24.1599C92.0799 24.2799 92.0499 24.4299 92.0199 24.6199L91.4499 27.1499L93.6599 25.6799L93.6999 25.6399L93.7799 25.5799C93.8699 25.5199 93.9499 25.4599 94.0099 25.4199C94.0599 25.3799 94.0999 25.3399 94.1199 25.3099L94.1599 25.2599C94.1599 25.2599 94.1899 25.1799 94.1799 25.1299C94.1599 25.0699 94.1099 24.9999 94.0299 24.9199C93.9699 24.8599 93.8799 24.7899 93.7799 24.7199L93.6899 24.6599L93.9299 24.3199L95.5499 25.4499L95.4899 25.5399L95.4999 25.5299ZM96.6199 26.9099L96.8299 26.6899L100.49 30.1599L99.1999 31.5199L98.8799 31.2199L98.9399 31.1399C99.2299 30.7899 99.3399 30.4399 99.2799 30.0899C99.2099 29.7299 98.9599 29.3699 98.5199 28.9999H98.5099C98.4399 28.9099 98.3699 28.8399 98.3099 28.7999C98.2499 28.7499 98.1899 28.7299 98.1399 28.7299C98.0999 28.7299 98.0599 28.7399 98.0199 28.7799C97.9999 28.7999 97.9799 28.8199 97.9599 28.8499C97.7899 29.1099 96.9599 29.8999 96.6999 30.1799C96.9399 30.4199 97.1899 30.5499 97.4399 30.5599C97.7199 30.5599 98.0099 30.4299 98.3099 30.1499L98.3899 30.0799L98.6799 30.3599L96.6099 32.5499L96.3199 32.2699L96.3899 32.1799C96.6499 31.8499 96.7799 31.5499 96.7599 31.2699C96.7399 31.0199 96.6099 30.7699 96.3499 30.5399C96.0399 30.8699 95.3199 31.7199 95.0199 31.9399C94.9299 32.0099 94.8899 32.0999 94.9199 32.1899C94.9499 32.2999 95.0499 32.4399 95.2299 32.5999C95.5799 32.9599 95.9699 33.1699 96.3799 33.2399C96.7899 33.3099 97.2299 33.2399 97.7099 33.0299L97.7799 32.9999L98.0899 33.2999L96.4899 34.4599L92.7999 30.9599L93.0799 30.6599L93.2599 30.8099C93.4099 30.9199 93.5399 30.9799 93.6599 30.9899C93.7599 30.9899 93.8599 30.9499 93.9399 30.8499C94.6799 29.9499 95.8999 28.7299 96.7399 27.8899C96.8599 27.7699 96.9199 27.6499 96.8999 27.5299C96.8799 27.3999 96.7899 27.2499 96.6199 27.0799L96.5399 27.0099L96.6099 26.9299L96.6199 26.9099ZM102.96 34.3699L101.28 35.5499C101.54 35.9499 101.81 36.1799 102.08 36.2599C102.36 36.3399 102.67 36.2399 102.99 35.9699H103C103.31 35.7499 103.49 35.5199 103.55 35.2999C103.61 35.0799 103.55 34.8399 103.38 34.5999C103.3 34.4399 103.22 34.3499 103.15 34.3199C103.1 34.2999 103.04 34.3199 102.98 34.3799H102.97L102.96 34.3699ZM101.11 40.1299L100.86 40.2999L99.7899 38.7799L100.93 35.8699L100.89 35.8199C100.6 36.0199 99.8999 36.5699 99.6299 36.6999C99.4299 36.8099 99.3099 36.9299 99.2799 37.0699C99.2499 37.2099 99.2999 37.3799 99.4399 37.5799L99.4999 37.6699L99.1599 37.9099L97.4199 35.4399L97.7599 35.1999L97.8199 35.2899C97.8599 35.3499 97.8999 35.3999 97.9299 35.4399C98.0199 35.5399 98.1199 35.5999 98.2199 35.6199C98.3199 35.6299 98.4299 35.5999 98.5499 35.5199C98.5999 35.4899 98.6499 35.4499 98.6999 35.3999C99.3799 34.8299 100.96 33.7399 101.73 33.2699C101.95 33.1399 102.07 33.0099 102.1 32.8599C102.13 32.7199 102.07 32.5599 101.93 32.3899L101.86 32.2999L102.2 32.0599L103.8 34.3299C104.25 34.9899 104.48 35.5499 104.51 36.0299C104.54 36.5299 104.34 36.9299 103.93 37.2399C103.63 37.4699 103.3 37.5599 102.95 37.5099C102.65 37.4699 102.33 37.3299 101.99 37.0799L101.07 39.6899C101.07 39.7499 101.06 39.7999 101.07 39.8499C101.07 39.8899 101.09 39.9299 101.11 39.9599L101.17 40.0499L101.08 40.1099L101.11 40.1299ZM106.69 42.4499L106.54 42.1899L106.59 42.1299C106.93 41.7499 107.14 41.3899 107.22 41.0499C107.3 40.7099 107.25 40.3899 107.09 40.0799C106.94 39.8599 106.78 39.7199 106.61 39.6599C106.45 39.5999 106.28 39.6199 106.09 39.7199H106.08C105.93 39.7799 105.82 39.8999 105.76 40.0799C105.69 40.2799 105.68 40.5399 105.72 40.8799C105.76 41.2399 105.82 41.8799 105.82 42.2299C105.82 42.5999 105.75 42.9199 105.59 43.1999C105.44 43.4799 105.2 43.6999 104.89 43.8799C104.37 44.1299 103.89 44.1699 103.44 44.0099C103 43.8499 102.6 43.4799 102.25 42.9199C102.17 42.7699 102.09 42.6099 102.02 42.4399C101.95 42.2699 101.89 42.0799 101.84 41.8799L101.77 41.6699C101.75 41.6199 101.74 41.5799 101.72 41.5599C101.7 41.5299 101.68 41.4999 101.65 41.4999C101.62 41.4899 101.57 41.4899 101.51 41.4999L101.43 41.5199L101.22 41.1599L103.13 40.0599L103.34 40.4199L103.28 40.4799C102.86 40.8799 102.59 41.2699 102.49 41.6499C102.39 42.0199 102.44 42.3699 102.64 42.7199C102.8 42.9699 102.98 43.1299 103.17 43.1999C103.36 43.2599 103.58 43.2399 103.81 43.1199C103.98 43.0299 104.09 42.8999 104.15 42.6999C104.21 42.4999 104.21 42.2299 104.15 41.9099C104.13 41.7399 104.13 41.4599 104.12 41.2699C104.07 40.6999 104.12 40.2299 104.26 39.8699C104.4 39.4899 104.64 39.2099 104.98 39.0499C105.49 38.7899 105.96 38.7299 106.38 38.8699C106.8 39.0099 107.17 39.3399 107.49 39.8599C107.56 39.9799 107.62 40.1199 107.67 40.2799C107.72 40.4399 107.77 40.6199 107.8 40.8099C107.81 40.8999 107.83 40.9699 107.84 41.0299C107.85 41.0799 107.87 41.1199 107.88 41.1399C107.9 41.1799 107.93 41.1999 107.96 41.2099C108 41.2099 108.06 41.2099 108.13 41.1799L108.22 41.1399L108.45 41.5399L106.71 42.5499L106.66 42.4599L106.69 42.4499ZM105.3 48.5799L105.02 48.6899L103.87 45.7599L104.25 45.6099L104.35 45.8399C104.44 46.0099 104.54 46.1299 104.64 46.1799C104.73 46.2299 104.84 46.2299 104.95 46.1799C105.93 45.6999 107.68 45.0699 108.75 44.6899C108.91 44.6399 109.01 44.5499 109.05 44.4199C109.09 44.2899 109.07 44.0999 108.98 43.8699L108.94 43.7699L109.32 43.6199L110.47 46.5499L110.09 46.6999L109.99 46.4499C109.91 46.2799 109.82 46.1599 109.71 46.1099C109.61 46.0599 109.5 46.0599 109.36 46.1099C108.12 46.6299 106.81 47.0699 105.57 47.5899C105.41 47.6399 105.31 47.7299 105.28 47.8599C105.24 47.9999 105.27 48.1899 105.36 48.4299L105.4 48.5299L105.3 48.5699V48.5799ZM106.85 53.5799L106.56 53.6599L105.68 50.5999L106.08 50.4799L106.1 50.5899C106.12 50.6799 106.14 50.7599 106.17 50.8299C106.23 50.9599 106.3 51.0599 106.39 51.1099C106.48 51.1599 106.59 51.1699 106.72 51.1399C106.78 51.1299 106.85 51.0999 106.92 51.0799C108.13 50.6299 109.78 50.2499 111.06 49.8799C110.94 49.4899 110.75 49.2099 110.5 49.0399C110.22 48.8599 109.86 48.8099 109.41 48.8799L109.32 48.8999L109.2 48.4799L111.02 47.9899L112.46 52.9799L110.66 53.5399L110.53 53.0899L110.62 53.0499C111.04 52.8899 111.32 52.6599 111.46 52.3599C111.59 52.0899 111.6 51.7499 111.49 51.3599C110.45 51.6599 108.3 52.4199 107.35 52.5499C107.27 52.5599 107.21 52.5799 107.15 52.5999C107.02 52.6499 106.93 52.7199 106.88 52.8099C106.83 52.8999 106.82 53.0199 106.84 53.1599C106.85 53.2299 106.88 53.3199 106.91 53.3999L106.95 53.5099L106.84 53.5399L106.85 53.5799ZM113.48 60.7099L113.18 60.7499L113.16 60.6199C113.13 60.5199 113.08 60.4399 113.03 60.3699C112.98 60.2999 112.91 60.2499 112.83 60.2199L110.06 58.9999C109.67 59.0499 108.91 59.1999 108.56 59.1999C108.32 59.1999 108.16 59.2599 108.06 59.3799C107.97 59.4999 107.94 59.6799 107.99 59.9199L108.01 60.0299L107.6 60.0899L107.18 56.9999L107.59 56.9399V57.0499C107.61 57.1299 107.62 57.1999 107.64 57.2599C107.68 57.4099 107.74 57.5199 107.83 57.5799C107.92 57.6399 108.03 57.6699 108.18 57.6499C108.23 57.6499 108.29 57.6299 108.35 57.6199C108.7 57.5399 109.2 57.5099 109.56 57.4599L112.08 55.5899C112.2 55.4999 112.28 55.4099 112.33 55.3099C112.38 55.2099 112.4 55.0999 112.4 54.9799V54.8799L112.79 54.8299L113.19 57.8199L112.78 57.8699V57.7599C112.75 57.5499 112.72 57.3899 112.67 57.2999C112.65 57.2599 112.63 57.2299 112.61 57.2099C112.6 57.2099 112.59 57.1999 112.57 57.1999C112.55 57.1999 112.52 57.2199 112.5 57.2199C112.48 57.2199 112.45 57.2399 112.4 57.2599C112.35 57.2899 112.29 57.3199 112.22 57.3699L112.17 57.4299C112.17 57.4299 112.13 57.4599 112.11 57.4699L110.48 58.6099L111.98 59.2399C112.13 59.3099 112.26 59.3699 112.39 59.3999C112.51 59.4299 112.62 59.4499 112.72 59.4499C112.79 59.4499 112.85 59.4099 112.88 59.3299C112.92 59.2299 112.93 59.0599 112.91 58.8399V58.7399L113.3 58.6899L113.57 60.7099H113.46H113.48Z" fill="#231815"/>
<path fill-rule="evenodd" clip-rule="evenodd" d="M43.73 103.85C43.25 103.79 42.55 103.85 42.05 103.6C42.44 103.18 42.94 103.37 43.37 103.17C43.5 102.55 42.45 102.51 41.55 103.26C41.55 103.26 41.53 103.28 41.52 103.29C41.52 103.29 41.5 103.31 41.49 103.31L40.87 102.76C41.06 102.45 41.73 102.55 42.42 102.27C42.68 102.16 42.95 102.08 43.07 101.71C43.19 101.36 43.12 101.1 42.74 100.97C42.07 101.53 41.89 101.24 40.82 101.64C40.38 101.8 39.8 102.05 39.55 102.59C39.24 103.22 39.99 103.16 38.85 104.04C38.56 104.26 38.27 104.49 37.99 104.72C37.43 105.18 36.61 105.92 37.06 106.63C37.77 107.04 37.88 105.98 38.45 105.89C38.49 106.12 37.82 106.8 37.53 107.24C37.18 107.76 36.91 108.45 37.44 108.74C37.85 108.55 38.54 107.16 38.84 106.69C39.07 106.33 39.28 106.01 39.54 105.67C39.67 105.5 39.79 105.36 39.92 105.22C40.14 104.97 40.15 104.89 40.44 105.06C40.3 105.34 40.23 105.36 40.19 105.67C40.39 105.86 40.97 105.93 41.37 106.19C40.99 106.58 39.86 105.99 39.8 107.02C39.78 107.29 39.98 107.33 40.18 107.53C39.94 107.8 38.92 108.17 39.45 109.05C40.04 110.04 40.53 108.94 41.01 109.03C40.79 109.52 40.39 109.92 40.25 110.4C40.32 110.54 40.44 110.88 40.57 110.98C40.99 110.78 40.98 109.59 41.72 108.98C42.06 109.26 42.1 110.57 43.18 110.46C43.41 110.1 43.22 110.02 43.4 109.87C43.77 109.92 43.77 110.08 44.23 110.05C45.17 110 44.82 110.79 45.59 111.72C45.93 112.13 46.43 112.56 47.05 112.68C47.51 112.77 48.3 112.78 48.48 112.35C48.59 111.7 46.83 110.95 45.91 110.07C45.24 109.43 45.75 109.08 46.17 108.21C46.31 107.92 46.27 107.77 46.41 107.53C47.04 107.51 47.61 107.7 48.18 107.62C48.84 106.33 47.14 106.67 46.22 106.32C46.49 105.97 47.38 105.05 47.69 104.79C48.11 104.44 48.14 104.41 48.03 103.94C47.97 103.69 47.86 103.29 47.56 103.1C47.2 103.7 46.99 104.05 46.56 104.56C46.36 104.8 46.2 104.95 46 105.15L45.56 105.52C45.31 105.65 45.52 105.57 45.34 105.59L45.37 105.16C44.14 104.93 43.31 104.66 42.02 104.53C41.69 104.5 41.2 104.5 40.87 104.38C41.04 104.13 41.27 103.95 41.46 103.78C42.29 104.37 43.06 104.32 44.12 104.41L44.97 104.44C45.04 104.67 45.05 105.04 45.42 105C45.64 104.91 46.01 103.26 45.19 103.03C44.82 102.93 44.82 103.18 44.51 103.16C44.53 102.68 45.41 101.65 44.85 101.35C44.53 101.49 44.34 102.18 44.15 102.56C43.71 103.43 43.78 103.11 43.76 103.83L43.73 103.85ZM43.66 106.58C43.73 106.91 43.95 106.72 44.17 107.62C44.23 107.88 44.37 108.51 44.86 108.58C44.87 108.58 44.9 108.54 44.9 108.55C44.9 108.55 44.93 108.53 44.93 108.52L45.18 108.11C45.29 107.9 45.35 107.81 45.39 107.57C45.04 107.34 44.73 107.66 44.35 107.28C44.12 107.04 44.05 106.41 43.66 106.59V106.58ZM40.71 107.44C40.5 107.9 40.32 108.09 40.12 108.45C40.5 108.51 40.62 108.28 40.97 108.21C41.35 108.14 41.44 108.15 41.66 107.68C41.37 107.46 40.99 107.45 40.7 107.45L40.71 107.44ZM42.13 108.21C42.45 108.55 42.73 108.82 43.02 109.15C43.27 109.44 44.06 109.29 44.02 108.94C44 108.73 43.49 108.11 43.22 107.94C42.78 107.64 42.26 107.74 42.13 108.21Z" fill="#231815"/>
<path fill-rule="evenodd" clip-rule="evenodd" d="M56.82 110.79C56.87 110.4 57.14 110.35 57.35 110.15C57.35 109.41 57.03 109.57 56.87 109.47C57.03 109.25 58.29 108.77 58.37 108.34C58.34 108.08 58.19 107.9 58.08 107.72C58.09 107.72 58.11 107.69 58.12 107.71C58.12 107.72 58.15 107.7 58.16 107.7L58.41 107.64L58.35 107.09C57.66 106.99 57.16 107.19 56.55 107.24C55.94 107.28 55.34 107.33 54.73 107.37C54.38 107.39 53.71 107.43 53.35 107.37C53.12 107.34 53.09 107.27 52.92 107.25C52.57 107.2 52.43 107.62 52.68 107.81C53.08 108.11 54.79 107.99 55.29 107.98C55.23 108.26 55.12 108.37 55.06 108.6C54.99 108.86 55.09 109.07 55.11 109.3C54.95 109.41 54.79 109.52 54.53 109.61C54.25 109.71 54.14 109.69 53.94 109.9C53.92 110.15 53.98 110.64 54.12 110.84C54.36 110.79 54.32 110.71 54.58 110.66C55.01 110.58 55.93 110.41 56.29 110.47C56.25 111.01 55.88 110.95 55.44 111.08C54.79 111.27 54.71 111.01 54.15 110.99C54.06 111.1 53.86 111.3 53.76 111.4C53.63 111.53 53.46 111.61 53.26 111.69C52.32 112.07 52.19 111.64 51.96 111.69C51.46 111.9 51.63 112.37 51.89 112.67C52.43 112.77 53.06 112.25 53.64 112.42C53.72 112.72 53.61 113.1 53.7 113.37C53.77 113.59 54.12 113.82 54.39 113.8C54.84 113.78 54.93 112.74 55.42 112.59C55.43 112.93 55.34 113.49 55.46 113.77C55.54 113.96 55.86 114.33 56.17 114.33L56.25 112.32C56.75 112.57 56.47 112.94 57.53 113.32C57.55 112.32 56.81 112.35 56.38 111.87C56.54 111.4 57.31 111.3 57.91 111.32C57.85 111.87 57.83 111.84 58.06 112.23C58.95 113.74 59.04 111.93 59.27 111.32C59.42 110.91 60.2 110.72 60.7 110.72C60.64 111.35 60.35 111.99 60.34 112.71L60.3 114.81C60.27 115.63 60.13 116.39 60.35 117.13C60.6 117.18 60.73 117.13 60.88 117.05C60.91 116.38 60.96 112.19 61.34 111.51C61.62 110.99 61.17 110.91 61.12 110.61C61.63 110.35 62.26 110.63 62.84 110.65C63.13 109.4 61.27 109.34 60.53 109.47C60.16 109.54 59.94 109.72 59.59 109.77C59.68 109.12 60.03 108.91 60.26 108.4C60.77 107.33 61.98 106.92 61.01 105.93C60.86 105.77 60.59 105.63 60.29 105.64C59.8 105.65 60.29 105.93 60.25 106.22C60.24 106.35 59.62 107.18 59.47 107.43C58.99 108.26 58.53 109.34 58.19 110.26C58.03 110.7 57.28 110.82 56.84 110.81L56.82 110.79ZM57.11 106.67C57.04 106.09 56.33 105.98 56.17 105.9C55.84 105.73 55.39 105.23 55.16 105.2C55.03 105.79 56.42 106.85 57.12 106.67H57.11ZM55.46 108.77C55.67 108.86 55.51 108.73 55.64 108.83C55.7 108.88 55.66 108.89 55.76 108.99C56.42 108.82 57.49 108.18 57.76 107.74C57.3 107.7 56.68 107.75 56.25 107.83C55.66 107.93 55.35 108.04 55.45 108.78L55.46 108.77ZM54.38 112.96C54.59 112.91 54.64 112.77 54.79 112.61C54.99 112.4 54.99 112.43 55.28 112.32C55.31 112.12 55.19 111.97 55.11 111.83C54.33 111.73 54.23 112.69 54.38 112.96Z" fill="#231815"/>
<path fill-rule="evenodd" clip-rule="evenodd" d="M35.32 95.9298L35.49 96.2798C35.07 96.6998 33.13 97.7598 32.33 96.9198C32.97 96.4998 33.24 95.8498 32.98 95.3198C32.76 95.6898 32.7 95.6998 31.76 95.6798C31.29 95.6798 30.88 95.6498 30.42 95.6498C30 95.6498 29.32 95.6298 29.06 95.8898C28.81 96.1398 28.86 96.9798 29.18 97.2798C29.61 97.1498 29.99 96.9298 30.61 97.0998C30.98 97.1998 31.72 97.3698 32.06 97.6998C31.63 97.9498 30.79 98.1398 30.32 98.2498C29.51 98.4298 29.44 98.5798 28.68 98.2298C28.14 97.9898 27.64 97.6598 27.1 97.3398C25.57 96.4098 26.47 96.8198 25.98 95.9498C25.59 96.2698 25.27 96.5398 25.22 96.9298C25.04 98.4798 26.78 97.9198 27.7 99.0498C27.55 99.3298 27.39 99.4698 27.73 100.12C27.86 100.37 28.17 100.67 28.26 101.08C28.29 101.23 28.28 101.15 28.27 101.24C28 101.3 27.81 101.18 27.58 101.24C27.31 101.3 27.04 101.62 27.08 101.83C27.18 102.37 28.07 102.14 28.39 102.12C29.59 102.06 28.85 103.91 29.69 104.5C30.17 104.29 30.05 103.77 29.98 103.35C29.91 102.98 29.79 102.44 29.63 102.09C29.97 101.85 30.36 101.82 30.72 101.82C31.08 101.82 31.41 102.11 31.7 102.49C32.4 103.43 32.01 104.03 32.76 104.61C33.37 104.44 33.53 104.24 33.39 103.69C33.06 102.35 32.94 102.35 32.21 101.27C31.98 100.93 32.18 100.44 31.95 100.08C31.65 100.04 31.66 100.2 31.38 100.28C30.94 100.13 30.45 99.6698 30.1 99.2498L32.02 98.5598C32.83 98.2998 33.26 98.1698 33.91 98.9598C33.18 99.4098 32.39 98.8198 31.83 99.1698C32.23 99.6498 32.8 99.9998 33.27 100.33C33.75 100.66 34.25 101.14 34.77 100.83C35.37 100.48 35.39 99.8198 35.21 99.3598C34.95 98.6998 34.26 98.3998 33.85 97.8698C34.77 97.1198 35.5 97.9398 35.72 96.6098C35.78 96.2298 35.56 95.9798 35.32 95.9298ZM28.76 99.9398C28.63 100.25 29.05 101.5 30.2 100.83C29.95 100.57 29.04 99.9298 28.76 99.9398Z" fill="#231815"/>
<path fill-rule="evenodd" clip-rule="evenodd" d="M81.41 103.92C81.36 104.14 81.36 104.46 81.32 104.73C81.28 105.01 81.32 105.36 81.05 105.52C80.53 105.2 80.87 104.82 80.83 104.67C80.6 104.36 80.25 104.27 80.15 104.67C80.1 104.89 80.18 105.4 80.32 105.65C80.68 106.31 81.56 106.17 81.68 105.42C81.73 105.11 81.7 104.81 81.84 104.59C82.03 104.32 82.47 104.47 82.3 104.89C81.67 106.41 81.74 105.6 81.38 106.35L81.64 106.72C81.4 106.92 81.26 107.14 80.98 107.31C80.81 107.21 80.57 106.8 80.4 106.78C79.89 106.92 80.07 107.15 79.94 107.54C79.86 107.79 79.63 108.12 79.69 108.38C79.96 109.59 80.02 108.99 79.84 110.33C79.8 110.61 79.77 110.98 79.95 111.3C80.26 111.85 81.44 112.55 81.1 110.17C81 109.46 80.8 109.24 81.31 108.35C82.16 106.89 85.42 104.55 86.33 105.32C86.33 105.7 85.99 106.16 86.11 106.6C86.64 106.28 86.65 106.29 87.26 106.16C87.87 106.03 89.2 105.73 88.68 104.81C88.18 103.92 86.42 104.31 85.6 104.52C84.58 104.79 84.01 105.23 83.13 105.58C83.22 104.97 84.52 103.26 84.15 102.63C84.01 102.39 83.6 102.4 83.33 102.51C82.61 102.81 82.37 103.67 82.24 103.8C81.91 104.1 81.99 103.61 81.42 103.93L81.41 103.92ZM84.51 106.88C84.48 107.05 84.12 107.4 83.88 107.78C83.49 108.39 83.82 108.67 83.7 108.89C83.41 109.25 82.73 109.09 82.45 109.49C82.11 109.97 82.42 110.34 82.85 110.58C83.37 110.88 83.41 110.84 84.03 110.39C84.39 110.13 84.82 109.73 85.29 109.58C86.02 111.19 85.43 111.73 84.07 111.93C83.4 112.03 83.58 111.82 83.27 111.3C83.14 111.44 82.95 111.91 83.03 112.22L84.44 112.44C85.23 112.54 86.99 112.29 86.76 111C86.66 110.43 86 109.74 86.11 109.22C86.34 108.97 86.77 108.97 87.06 108.76C87.23 108.06 86.74 107.72 86.13 107.83C85.54 107.94 84.86 108.04 84.56 107.67C84.77 107.31 85.1 107.09 85.34 106.77C85.76 106.21 85.05 106.23 84.6 106.36C83.3 106.73 82.57 107.9 81.97 108.38C81.76 108.54 81.57 108.6 81.64 108.88C81.73 109.25 82.23 109.4 82.53 108.6C82.73 108.07 83.85 107.16 84.52 106.9L84.51 106.88Z" fill="#231815"/>
<path fill-rule="evenodd" clip-rule="evenodd" d="M67.46 114.19C68.23 114.13 69.34 113.28 71.09 113.05C71.14 113.74 71.13 114.49 71.13 115.18C71.13 115.8 71.72 116.35 72.29 116.27C72.46 115.38 72.12 114.15 72.24 113.18C72.31 112.59 72.57 112.6 73.2 112.46C74.86 112.09 75.1301 112.6 76.0101 112.52C76.6301 112.47 76.6 111.75 76.35 111.5C75.86 111 74.1301 110.98 73.2601 111.05L72.57 111.11C71.64 111.18 71.69 110.61 71.19 110.6C70.7 111.14 72.02 111.45 67.72 112.66C67.2 112.81 67.04 112.8 66.55 112.68C65.4 112.41 65.79 113.53 66.34 113.97C66.64 114.21 66.94 114.22 67.46 114.19ZM67.73 110.73C68.58 111.08 68.81 110.16 69.07 109.73C69.28 110.66 68.52 111.96 69.8 111.82C69.76 111.35 69.73 110.89 69.77 110.43C69.82 109.88 70.0201 109.68 70.0801 109.35C69.9701 109.45 69.9601 109.52 69.8101 109.62C69.8101 109.39 69.86 109.15 69.86 108.93C69.86 108.64 69.73 108.57 69.86 108.27C70.04 107.85 70.84 106.71 70.07 106.1C69.94 106 69.73 105.87 69.53 106C69.32 106.13 69.49 106.3 69.47 106.59C69.4 107.7 66.96 109.69 67.73 110.71V110.73ZM70.17 109.83C70.75 110.35 71.26 109.13 71.73 108.99C71.79 109.71 71.66 110.5 72.2 110.83C72.86 111.25 75.4201 110.32 74.6501 109.36C74.4301 109.09 73.6201 108.72 73.1201 108.67C73.2101 109.09 73.68 109.16 73.67 109.71C73.67 110.12 73.15 110.37 72.68 110.33C72.44 110.04 72.3301 109.72 72.2601 109.24C72.1101 108.23 72.37 108.41 73.45 107.41C73.67 107.2 74.13 106.92 73.75 106.47C73.23 106.42 72.79 107.27 72.35 107.42C72.35 107.11 72.48 107.04 72.5 106.76C72.39 106.64 72.2001 106.55 71.9901 106.61C71.5101 106.73 72.16 106.76 71.28 108.09C71.09 108.38 70.87 108.7 70.66 108.95C70.48 109.16 69.91 109.45 70.19 109.83H70.17Z" fill="#231815"/>
<path fill-rule="evenodd" clip-rule="evenodd" d="M94.1499 97.2599C94.1499 97.2599 94.1499 97.2799 94.1199 97.3799C94.0999 97.4399 94.0899 97.4699 94.0599 97.5399C94.0099 97.6399 93.96 97.7399 93.91 97.8499L93.2699 99.0099C93.1399 99.2599 92.9499 99.3399 92.9599 99.5899C93.1499 99.9999 93.6399 99.7399 93.9199 99.4399C94.1099 99.2299 94.2599 98.6599 94.3699 98.3799C94.5699 97.8499 95.0299 96.6199 95.5299 96.2299C95.6599 96.4999 94.9499 98.2899 95.1499 98.7599L96.5199 96.0699C96.5599 95.6799 95.8999 95.0899 94.9899 96.0699C94.5699 96.5199 94.6699 96.6199 94.1299 96.5799C93.6299 96.5399 92.8799 96.5799 92.4499 97.2599C92.5399 97.5899 92.9099 97.6199 93.2299 97.6199C93.5199 97.6199 93.8299 97.3699 94.1399 97.2799L94.1499 97.2599ZM95.6899 99.3999C95.7099 99.6499 94.9999 101.51 94.8899 102.5C94.8399 102.97 94.8099 103.02 95.1199 103.26C95.7599 103.75 95.4999 102.8 96.2399 101.94C96.3299 102.35 95.3399 103.58 96.6799 104.34C97.3599 103.94 96.6799 103.24 96.8099 102.36L97.2399 100.23C97.8799 100.87 98.6399 102.24 99.7699 101.87C100.59 101.6 101.15 99.9599 101.27 99.2999C101.39 98.6799 101.29 96.9299 101.05 96.6699C100.69 96.2799 100.19 96.4299 99.6799 96.2899C98.9199 96.0899 99.1499 96.2399 98.6699 96.1699C98.4499 96.1399 98.4899 96.0899 98.3499 96.1999C98.3499 96.5899 98.8599 96.6199 99.1799 96.9799C99.8699 97.7599 100.31 98.6999 99.9899 99.7199C99.7899 100.35 99.2899 101.19 98.4999 100.63C98.1999 100.42 97.7499 99.6199 97.5899 99.2899C97.4799 99.0699 97.5899 99.0499 97.6499 98.8099C96.7299 97.8199 96.4399 99.6399 96.1299 100.17C96.0599 100.01 96.0999 99.4199 96.1099 99.2499C96.1399 98.7999 96.3099 98.6999 96.4299 98.2999C95.9799 97.7699 95.4499 98.9599 94.9899 99.2099C94.7699 99.3299 94.6999 99.2299 94.5299 99.5099C94.8699 100.07 95.4999 99.4799 95.6999 99.3999H95.6899ZM92.5799 100.7C92.3299 100.81 92.2499 100.68 92.0099 100.76C91.7299 101.4 92.9399 102.8 93.2899 103.53C93.9499 104.92 93.8299 105.57 95.2899 105.71C95.8199 104.82 93.4899 103.38 93.3199 102.08C93.4999 101.96 93.4999 102.05 93.6799 101.86C93.5699 101.05 92.7299 99.8099 92.2499 99.0599C92.0199 98.6899 91.5999 98.6299 91.3199 99.0199C91.6399 99.3899 91.6199 98.7699 92.1399 99.6699C92.3299 99.9999 92.5799 100.39 92.5799 100.7Z" fill="#231815"/>
</svg>
