<svg width="128" height="128" fill="none" xmlns="http://www.w3.org/2000/svg"><path fill-rule="evenodd" clip-rule="evenodd" d="M36.934 58.011c-.191.205-.357.42-.475.659-.084.157.08.406.198.327a3.84 3.84 0 0 1 1.298-.361 2.67 2.67 0 0 1 .93.045l.14.11c.194-.047.41-.059.644-.037.171.073.33.16.456.28-.194.11-.516.11-1.068-.088l-.522-.077c-.543-.02-.864 0-1.156.15-.08.138-.015.198.24.19.16-.007.444.033.683.097.032.054.037.097-.042.093-.244.018-.465.087-.64.253a.198.198 0 0 0-.025.152l-1.054-.23-.973-.147c-.045.065-.083.157.216.28.038.016.105-.003.155.012.633.091 1.266.175 1.709.432-.124.365-.259.725-.565 1.023a14.542 14.542 0 0 1-1.119-1.338c-.016.01-.025.033-.027.066-.01.15.174.364.251.495.23.39.44.767.617.947.077.08.132.126.238.102.174-.04.343-.173.542-.528.134-.197.21-.431.252-.687.167.022.332.115.497.228.046.046.141.081.182.122.207.218.331.3.373.031 0-.211-.088-.33-.31-.328l-.73-.335c-.07-.076-.059-.15.007-.224.233-.005.443.007.664-.03.82-.392.415-.55-.32-.65.262-.02.538-.033.861.093.348.119.692.183 1.023.093.39-.115.096-.347-.345-.604.264-.116.546-.21.787-.388.11-.08.265-.134.302-.278.048-.186-.286-.294-.708-.342-.21.001-.29-.03-.176-.106l.562-.198c.035-.051.066-.1.068-.144.007-.28-.103-.089-.156-.026-.178.215-.513.24-.798.291l-.292-.153c-.194-.095-.24-.023-.184.16-.128.124-.166.237.046.32.25-.065.479-.12.496-.004a.87.87 0 0 0-.414.207 1.38 1.38 0 0 0-.192-.126c-.14-.07-.117-.005-.075.087.024.05.047.096.03.136-.038.088-.191.1-.377.213-.224.246-.183.037-.145-.05a.78.78 0 0 0 .288-.5c.045-.224.139-.42.264-.595.154-.236.193-.41.12-.517-.042-.305-.083-.44-.188-.477-.044.02-.047.19-.016.486-.075.342-.24.658-.387.978-.19.353-.467.432-.524.294.092-.148.182-.296.241-.464.088-.237-.014-.346-.266-.38a.67.67 0 0 1 .084.274c-.102.35-.38.679-.463 1.008-.418.092-.692.215-.748.192-.057-.022.036-.175.31-.381.238-.145.236-.182.178-.22-.085-.054-.349.056-.472.087Zm1.202.19c-.055-.036-.03-.043-.07-.05-.017-.002-.066-.01-.113.016-.063.036-.121.112-.089.146.058.06.327.09.36.038.034-.053-.034-.115-.088-.15Zm.29-.199c-.024-.028-.16.012-.185.06a.078.078 0 0 0-.004.065.26.26 0 0 0 .077.098c.025.017.047-.048.072-.085.023-.038.065-.11.04-.138Zm.804.27c-.01-.013-.039-.023-.074-.018a.878.878 0 0 0-.242.102c-.075.045-.124.098-.106.128.018.03.061.02.169-.005.107-.024.288-.166.253-.206Zm.46-.208c-.03-.019-.142.025-.193.103-.051.08-.098.126-.068.175.03.048.138.024.187-.094.049-.118.102-.166.074-.184Zm.53-.256c-.051-.005-.17-.083-.226-.066-.047.013-.066.084-.088.157-.006.022-.12.017-.1.066.013.032.085.136.047.168-.039.032-.044.094-.074.133-.091.116-.17.216-.136.235.044.024.31-.165.52-.25.052-.022.185-.073.289-.132.106-.063.178-.187.18-.228 0-.061-.366-.08-.412-.083Zm-5.928-5.334-.684.782c-.067.127-1.036-.151-1.555-.228l-.918-.133c-.088.076-.043.172.136.289.735.289 1.393.252 2.078.397-.269.324-.647.56-1.048.776-.846.465-1.295.418-1.523.085-.102-.113-.164-.22-.283-.341-.06.049.024.221.18.496.346.672 1.236.33 2.433-.48.092.234.122.468.123.704.043.487-.116.744.054.922.099.103.292.133.504.154.136.008.144-.294.02-.408-.46-.409-.5-1.006-.548-1.436.189-.242.388-.444.621-.453.288.026.585.156.803.164.154.006.26-.044.277-.153a.32.32 0 0 0-.205-.283c-.226.302-.587.04-.855.008.103-.286.304-.51.574-.694.342-.255.398-.466.142-.628-.066.188-.189.33-.326.46Zm-11.333 1.07c-.091.347-.072.514.145.36.19-.126.397-.338.608-.565.1-.066.032-.255-.07-.274-.04-.008-.133.083-.16.112a3.146 3.146 0 0 0-.24.288c-.047.07-.085.105-.098.06-.005-.265.03-.534.088-.805-.008-.082-.023-.136-.06-.094-.085.31-.163.617-.213.917Zm.804-1.283-.019.096c-.1.445-.021.47.2.284.128-.327.368-.575.703-.754-.155.443-.392.83-.621 1.221-.284.45-.536.9-.767 1.354-.071.157-.115.288-.081.343.062.1.192-.075.234-.112a.568.568 0 0 1 .22-.134c.104-.03.097.011.08.101-.028.155-.11.309-.185.462-.027.057-.126.18-.007.139.086-.03.172-.129.256-.302a.834.834 0 0 0 .09-.483c-.035-.069-.128-.088-.304-.035-.068.035-.099.035-.079-.019.182-.477.439-.939.732-1.407.235-.335.43-.678.534-1.004.024-.071.077-.182.006-.246-.07-.072-.203-.011-.369.115-.109.084-.205.17-.296.274-.091.105-.128.108-.107.008.032-.369.279-.719.349-1.088.016-.097.014-.162-.009-.198a.072.072 0 0 0-.04-.031c-.102-.034-.094.036-.109.108-.03.147-.068.29-.11.43-.07.23-.154.449-.236.663-.022.06-.04.158-.065.215Zm-.047 3.03c-.079.05.065.13.112.306.014.05.025.105.032.167.032.282-.008.426.172.42.181-.003.218-.217.039-.527l-.069-.117c-.131-.213-.226-.286-.285-.25Zm.194-1.173c-.02.139.068.15.248.087-.02.14-.052.277.007.404a.24.24 0 0 0 .097.06l.084.02a1.4 1.4 0 0 0 .14.29c.053.087.038.077.135.096.084.017.145.034.181.072.195.203-.216.613-.345.2-.09-.176-.13-.217-.176-.096a.361.361 0 0 0-.013.191c.034.165.1.245.267.257.18.013.36-.102.435-.261a.359.359 0 0 0-.03-.381c-.11-.149-.17-.08-.288-.114-.05-.015-.076-.085-.107-.172-.035-.129-.1-.2-.188-.233-.079-.045-.109-.125-.06-.287.02-.067.037-.102.027-.176-.01-.074-.045-.115-.125-.094-.027.003-.042 0-.049-.008-.004-.005.022-.088.024-.103l.043-.212c.02-.125-.076-.155-.121-.05-.088.174-.136.34-.186.51Zm.444-.441c.037.11.085.155.159.051.118-.35.211-.993.4-.493l.065.965c.12.48.31.62.55.53.29-.118.464-.28.575-.237.113.044.18.2.03.465-.067.094-.131.047-.212.054-.191.016-.398.009-.52.072a.37.37 0 0 0-.207.278c-.01.323.274.343.984-.03.029-.016.042-.048.073-.065.264.063.498.13.703.166.15.026.303-.012.113-.158-.107-.082-.317-.157-.558-.236-.027-.008-.046-.029-.073-.038.075-.181.117-.351.06-.503-.097-.218-.331-.244-.643-.162-.171.032-.363.174-.442.161-.093-.014-.095-.207-.108-.286l-.16-.921c-.117-.663-.297-.65-.5-.36a5.703 5.703 0 0 0-.29.747Zm1.137 1.477c-.09.045-.114.165-.092.21.022.042.12.003.243-.048.123-.052.243-.115.116-.139-.128-.025-.18-.067-.267-.023Zm-8.1 3.929c.155.169.238.398.356.597.02.02.032.06.064.073.098.042.253.029.324-.044.095-.093-.064-.302-.134-.372a2.405 2.405 0 0 0-.478-.365c-.197-.06-.288-.065-.133.11Zm.403-1.024c.009.024.01.031-.012.03-.293-.024-.067.195.276.424-.005.176.018.357.063.54.113.216.16.212.166.058-.035-.155-.11-.325-.064-.45.117.156.228.324.335.498.066.09.17.171.175.303.017.375-.215.923-.303 1.387l-.214.845c.228.235.449-.324.666-1.347l.13-.478c.27.288.533.303.787-.08.376.407.517.773.243 1.098-.106.134-.203.195-.317.307-.049.065-.04.093-.021.098.018.005.045-.012.088-.032.19-.09.327-.198.416-.32.142-.196.166-.429.1-.688a2.28 2.28 0 0 0-.288-.713l.608-.888c.084-.152-.061-.275-.293-.123-.027.014-.034.045-.058.056-.23.103-.244.139-.107.193l-.11.15-.236.298c-.067-.185-.16-.31-.448-.371l-.114-.086c.108-.225.17-.502.432-.554.248-.027.385-.184.387-.495-.105-.146-.246-.21-.445-.144-.273.025-.383.515-.667 1.207-.16.087-.141.16-.057.23l-.062.136-.37-.642a.94.94 0 0 0 .393-.627c.03-.33.042-.657-.068-.962-.06-.169-.108-.296-.304-.164-.217.145-.396.587-.505.993-.012.086-.066.07-.161-.046-.163-.236-.345-.448-.577-.593-.2.04-.28.183-.2.22.052.013.119-.006.16.02.255.166.346.497.576.712Zm1.451 1.002c-.064.135-.197.327-.168.48.026.132.14.205.297.255.12 0 .238-.186.261-.327l-.39-.408Zm-1.036-1.417c-.03.201-.04.602.104.614.144.01.353-.273.36-.516.006-.243 0-.754-.118-.773-.116-.017-.314.473-.346.675Zm11.757 9.501c0 .052.015.094.047.127a.146.146 0 0 0 .108.049.14.14 0 0 0 .105-.05.178.178 0 0 0 .046-.127.179.179 0 0 0-.047-.127.141.141 0 0 0-.214-.002.18.18 0 0 0-.045.13Zm.017-.504c0 .04.013.073.038.098a.14.14 0 0 0 .101.037.123.123 0 0 0 .092-.037.13.13 0 0 0 .036-.095.13.13 0 0 0-.133-.136.131.131 0 0 0-.097.037.13.13 0 0 0-.037.096Zm-.146.23a.304.304 0 0 0-.148.11.364.364 0 0 0 .003.366.32.32 0 0 0 .15.13.72.72 0 0 0 .284.043.843.843 0 0 0 .187-.02.327.327 0 0 0 .245-.179.342.342 0 0 0 .04-.163.307.307 0 0 0-.188-.287.373.373 0 0 0 .105-.1.276.276 0 0 0-.067-.373c-.075-.059-.19-.089-.347-.089a.503.503 0 0 0-.285.072c-.092.063-.138.143-.138.24 0 .06.016.113.048.159a.31.31 0 0 0 .111.091Zm-.334.63v-.266h-.509c.03-.03.056-.053.078-.07.022-.019.066-.05.132-.096a.852.852 0 0 0 .228-.214.37.37 0 0 0 .062-.205.32.32 0 0 0-.204-.302.729.729 0 0 0-.267-.039.652.652 0 0 0-.258.041.328.328 0 0 0-.144.119.522.522 0 0 0-.07.214l.325.027c.01-.067.027-.113.053-.139a.14.14 0 0 1 .102-.039c.04 0 .073.013.1.038.026.026.04.056.04.092a.18.18 0 0 1-.04.104.942.942 0 0 1-.184.161 1.383 1.383 0 0 0-.319.301.618.618 0 0 0-.102.272h.977Zm-1.43-.786a.215.215 0 0 0-.049-.149.149.149 0 0 0-.116-.054.138.138 0 0 0-.108.05c-.028.031-.042.08-.042.145 0 .066.015.116.044.15a.14.14 0 0 0 .11.052.147.147 0 0 0 .115-.05c.03-.034.046-.082.046-.144Zm-.6.523c.02.062.047.114.083.155a.34.34 0 0 0 .134.095.611.611 0 0 0 .22.032.473.473 0 0 0 .37-.147c.09-.098.134-.253.134-.464a.805.805 0 0 0-.064-.348.42.42 0 0 0-.17-.191.567.567 0 0 0-.282-.06.535.535 0 0 0-.242.048.36.36 0 0 0-.152.145.417.417 0 0 0-.055.213.39.39 0 0 0 .108.283c.072.074.16.112.266.112.053 0 .1-.01.142-.028a.406.406 0 0 0 .12-.088.741.741 0 0 1-.049.247c-.029.052-.07.079-.122.079a.105.105 0 0 1-.074-.028c-.02-.019-.034-.05-.043-.096l-.324.04Zm-.368-.929h-.27a.526.526 0 0 1-.143.186.8.8 0 0 1-.258.128v.267a1.013 1.013 0 0 0 .342-.17v.78h.329v-1.19Zm3.93-4.316v-1.61h-1.186v3.965h.52V62.67h.2v-.677h.466Zm1.085 2.755v-1.793h-1.424v1.528c.426.07.794.224 1.052.43h.108c.079-.06.167-.115.264-.165Zm1.293-2.451h-2.57v.469h1.41v-.198h.685v.198h.474v-.47Zm-.67 2.234v-1.734h-.374v1.842c.117-.043.242-.08.374-.108Zm2.633-2.573h-1.643v.969h1.169v1.951c.04.028.08.059.116.09h.358v-3.01Zm-.722 1.15h-1.643v1.379c.127-.015.258-.023.393-.023.474 0 .91.1 1.25.268v-1.624ZM28.04 59.77v4.708c.204.075.384.172.53.285h.25c.075-.042.154-.08.239-.115V59.77H28.04Zm1.237 4.605h.261v-4.416h-.26v4.416Zm-3.195-2.485h.466v.677h.2v1.678h.52V60.28h-1.186v1.61Zm1.478-1.93v4.39l.122.025h.14v-4.416h-.262Zm-2.586 4.69.014.01h.613c.245-.15.559-.262.91-.317v-1.64h-1.537v1.948Zm-1.18-2.636v.469h.474v-.197h.686v.197h1.41v-.469h-2.57Zm.59 2.367.004.002h.37v-1.958h-.374v1.956Zm-2.534-2.954v3.009h.475v-2.04h1.168v-.97H21.85Zm.672 1.209V64.3h.463a3.25 3.25 0 0 1 1.045 0h.136v-1.664h-1.644Zm.986 1.787c-.851 0-1.578.325-1.852.777h13.436c-.344-.342-.973-.572-1.688-.572-.66 0-1.245.195-1.603.493-.354-.31-.952-.515-1.628-.515-.598 0-1.135.16-1.497.412-.348-.33-.965-.55-1.665-.55-.747 0-1.399.25-1.732.618-.32-.392-.994-.663-1.77-.663Zm5.009-8.796c-4.346 0-7.89 3.544-7.89 7.89 0 4.345 3.544 7.889 7.89 7.889 4.345 0 7.889-3.544 7.889-7.89 0-4.345-3.544-7.889-7.89-7.889Zm0 .316c-4.172 0-7.574 3.402-7.574 7.573 0 4.172 3.402 7.574 7.573 7.574 4.172 0 7.574-3.402 7.574-7.574 0-4.171-3.402-7.573-7.574-7.573Zm11.324 12.06.117-.24-.766-.373-.69-1.23-.136.279.36.61c.081.134.156.252.224.353-.13.007-.262.018-.395.034l-.72.09-.142.291 1.383-.188.765.374Zm-1.01 1.9.133-.231-1.536-.888.333-.576-.206-.118-.797 1.38.206.12.33-.575 1.537.887Zm-.938 1.329.172-.204-1.542-1.293-.17.204 1.54 1.293Zm-2.118 1.284a.677.677 0 0 0 .333.178c.126.026.25.014.375-.036.124-.05.25-.138.38-.267a.92.92 0 0 0 .218-.33.605.605 0 0 0 .03-.343.545.545 0 0 0-.149-.279.5.5 0 0 0-.261-.143.611.611 0 0 0-.329.038c-.083.031-.218.106-.405.225-.188.118-.316.179-.385.182a.23.23 0 0 1-.182-.07.266.266 0 0 1-.072-.23c.01-.094.072-.198.186-.311.109-.11.214-.17.317-.18a.412.412 0 0 1 .302.106l.167-.194a.57.57 0 0 0-.63-.118 1.005 1.005 0 0 0-.33.228.963.963 0 0 0-.213.31.515.515 0 0 0 .104.583.46.46 0 0 0 .227.126c.086.02.181.013.285-.02.08-.024.201-.086.363-.185.162-.1.27-.16.323-.184a.403.403 0 0 1 .212-.044c.059.007.11.033.156.078.044.044.07.098.081.163a.377.377 0 0 1-.035.21.747.747 0 0 1-.158.222.763.763 0 0 1-.26.176.456.456 0 0 1-.255.033.553.553 0 0 1-.233-.117l-.162.193Zm-1.847.691.474-.32a.848.848 0 0 0 .215-.19.303.303 0 0 0 .062-.188.327.327 0 0 0-.056-.18.299.299 0 0 0-.217-.136c-.092-.013-.2.023-.323.107l-.527.356.372.551Zm.407 1.08.22-.148-.499-.74.256-.173a.838.838 0 0 1 .129-.075.392.392 0 0 1 .13-.023c.047-.002.11.01.187.035.078.025.183.066.315.122l.454.199.278-.188-.596-.258a1.404 1.404 0 0 0-.333-.098.675.675 0 0 0-.19.007c.146-.13.23-.261.251-.395a.503.503 0 0 0-.087-.376.571.571 0 0 0-.239-.205.45.45 0 0 0-.292-.033c-.097.022-.22.083-.37.183l-.739.499 1.125 1.668Zm-2.117.81 1.419-.488-.077-.225-1.168.402-.223-.647 1.052-.362-.077-.223-1.052.362-.2-.582 1.123-.387-.077-.225-1.375.474.655 1.902Zm-1.63.37.27-.042.463-2.11-.268.043-.308 1.528c-.023.115-.042.229-.056.342a4.586 4.586 0 0 0-.155-.309l-.745-1.361-.285.045 1.084 1.865Zm-1.71.125h.265V73.58h-.266v2.012Zm-2.435-.224.253.036.22-1.565.826 1.712.27.038.28-1.992-.252-.035-.22 1.563-.826-1.71-.27-.039-.28 1.992Zm-.508-2.214-.32 1.116c-.07.243-.156.395-.26.458-.105.062-.251.067-.44.012a.579.579 0 0 1-.26-.144.37.37 0 0 1-.108-.23 1.13 1.13 0 0 1 .06-.385l.32-1.116-.256-.073-.32 1.117c-.06.205-.081.373-.066.505a.552.552 0 0 0 .169.342c.097.096.237.17.418.221a.871.871 0 0 0 .482.022.585.585 0 0 0 .318-.21c.077-.102.143-.25.199-.444l.32-1.117-.256-.074Zm-3.493.682.232.13.976-1.76-.233-.13-.975 1.76Zm.258-2.2-.715.916c-.156.198-.293.307-.413.326-.12.019-.258-.032-.412-.153a.581.581 0 0 1-.188-.232.37.37 0 0 1-.014-.254c.026-.084.092-.196.2-.334l.714-.915-.21-.163-.715.916a1.343 1.343 0 0 0-.25.444.555.555 0 0 0 .029.38.962.962 0 0 0 .304.362c.153.119.3.186.44.2.14.016.264-.01.373-.075.11-.066.227-.178.35-.337l.716-.916-.21-.165Zm-3.852-1.01.164.21.747-.583.643.823-.747.584.164.21 1.585-1.238-.163-.21-.651.508-.644-.824.651-.508-.164-.21-1.585 1.238Zm-1.214-2.096.12.226 1.396-.742-.9 1.675.128.24 1.776-.943-.12-.226-1.394.742.899-1.675-.129-.24-1.776.943Zm.355-1.984.118.671.512-.303c.156-.093.284-.164.387-.213a2.565 2.565 0 0 1-.398-.04l-.62-.115Zm-.915-.428.05.278.638.111.146.829-.56.337.053.299 1.838-1.16-.05-.283-2.114-.411ZM28.517 49C20.521 49 14 55.521 14 63.516c0 7.996 6.521 14.517 14.517 14.517 7.995 0 14.516-6.521 14.516-14.517C43.033 55.521 36.512 49 28.516 49Zm0 .631c7.648 0 13.885 6.238 13.885 13.885 0 7.648-6.237 13.885-13.885 13.885-7.647 0-13.885-6.237-13.885-13.885 0-7.647 6.238-13.885 13.886-13.885ZM111.67 51.895c-.144.076-.588.07-.707.21-.099.115-.029.334.035.562.02.07-.286.248-.151.343.09.064.453.213.407.362-.047.153.046.323.031.476-.043.461-.078.856.04.849.158-.01.538-.96.945-1.538.101-.145.365-.505.536-.838.176-.344.155-.793.088-.902-.104-.166-1.096.408-1.224.476Zm-.962 1.573c-.106 0-.333.306-.333.6 0 .295-.043.496.118.572.16.077.403-.17.333-.563-.07-.392-.012-.61-.118-.61Zm-.857 1.328c-.05-.015-.141.004-.224.08-.181.164-.385.504-.467.674-.12.248-.157.471-.061.518.097.047.197-.049.437-.296.24-.248.474-.929.315-.976Zm-2.572.652c-.112-.034-.402.301-.389.47a.25.25 0 0 0 .101.18.831.831 0 0 0 .367.127c.097 0 .045-.208.045-.346 0-.14-.012-.398-.124-.431Zm-.43 1.014c-.204 0-.153-.06-.267-.01a.538.538 0 0 0-.268.23c-.106.201-.131.502.014.536.251.06 1.009-.316 1.009-.51 0-.196-.283-.246-.488-.246ZM103.367 58c.27-.291.776-1.028 1.093-1.027.219 0 .284.092-.097.878-.369 1.006-.357 1.568-.166 1.53.184-.036.696-.825 1.641-1.774-.342-1.007-.166-2.344-.491-3.44-.167-.242-.414-.42-.684-.58.721-.336 1.174-.22 1.343.552.131.543.143 1.086.153 1.63.384.266.977-.411.881-1.66-.157-1.094-.258-2.204-.641-3.234-.581-.725-.862-1.179-.78-1.304.34-.08.674.205 1.306.937.369.156.561.681.558 1.564a4.844 4.844 0 0 0 .313 2.016c.275.579.276 1.182.09 1.802.045.292.294.913.464-.114.299-.612.681-.906.632-1.201-.022-.135-.159-.214-.306-.307-.267-.169-.437-.301.047-.354.181-.02.43-.016.721.003.153-.5.387-.925.738-1.245-.242-.274-.752.258-1.3.85-.699.142-.79-.219-.662-.762-.459-.388-.46-.652.212-.735l1.026-.091c.668-.616 1.505-1.25 1.61-2.12.03-.252-.003-.942.453-.194.072.118.072.298.065.491l-1.144 1.479c-.17.392.091.337.646-.023 1.191-.589 2.252-.869 2.44-.298.145.44-.17.845-.321 1.24-.335.877-.916 1.605-1.416 2.358 1.599-.073 2.761.042 1.936 1.005-.722.796-1.734 1.211-2.852 1.488-1.064.217-1.766.72-2.424 1.218 2.107-.984 3.435-1.255 1.943 1.165-.521.472-1.09.796-1.696 1.207-.048.304.049.519.358.6l2.49-.354c.582-.384 1.015-.218 1.374.337.343.776-.12.77-1.037.55-.172-.04-.486.03-.681-.014-.626-.018-1.22.018-1.696.244.321.745.519 1.49.501 2.236.076 1.268-.141 1.91-.532 2.308-.237.243-.461.215-.798.137-.769-.178-1.965-.812-3.229-1.449-.425-.214-1.271-.468-1.5-.88-.05-.089-.066-.164-.041-.22a45.154 45.154 0 0 0 5.213 1.627c.301-1.302.044-2.48-.247-3.65-1.6.074-3.409.927-5.23 1.763-.157.044-.3.206-.429.23-.996.182-1.052-.125-1.043-.373l2.809-1.26 3.162-1.183a.639.639 0 0 1-.189-.443c.18-.733.645-1.288 1.255-1.752.217-.122.132-.226-.045-.314-.738.236-1.552.613-1.964.9-.657.455-.933.407-.953-.092.513-.891 1.326-1.487 2.785-2.355l1.509-.683c1.788-.411 2.635-.957 2.956-1.578-.536-.101-1.098-.058-1.671.037-.656.34-1.201.737-1.633 1.19l-.554-.05c-.959.329-1.774.848-2.525 1.454-1.095.85-2.024 1.907-2.805 3.15-.175.41-1.032.034-1.078-.525-.091-.825-.021-1.674.137-2.537Zm-9.177-5.788c.177-.634.292-1.277.153-1.961 1.057.024 1.265.757.701 2.136-.478 1.039-.679 2.07-.47 3.11.86-.384 2.41-.252 2.544-1.563.424-.067.844.087 1.124.482.147.356-.085.697-.556.957-.667.367-1.79.51-2.7.952-.68.445-.913 1.408-1.048 2.473.922 1.201 2.115 2.918 4.227 3.316.577.117 1.095 1.035.673 1.258-.674.316-1.305.575-1.787.444-.83-.228-.811-1.282-1.817-2.665-.428-.705-.938-1.35-1.638-1.887-2.124 4.58-4.177 7.202-6.42 5.816-.962-.544-1.524-.911-1.433-1.166.577.148.953.356 1.463.513 1.28.588 2.71-.082 4.41-2.992.809-1.371 1.518-2.756 1.741-4.21-2.313.8-4.218 2.09-6.94 2.547-.74-.027-1.05-.234-.926-.62l2.99-1.25c1.69-.706 5.094-1.616 5.069-2.117l.64-3.573Zm-19.066 12.23c-.326 0-.579.316-.579.476 0 .16.344.188.783.22.44.033.882.026.546-.234-.335-.26-.424-.462-.75-.462Zm-1.142-6.02c.58-.618 1.266-1.211 1.955-1.76 1.024-.548 1.57-.32.93 1.796l-.895 2.939c-.077.253-.36.818-.108 1 .212.153.989.022 1.537.183 1.035.222 1.683.645 1.643 1.426-.06.531-.432.965-.923 1.388.068.066.091.155.158.221.593.586 1.097 1.119 1.29 1.517.34.708-.166.595-.568.296-.546-.407-1.132-.95-1.817-1.53-.112.005-.201.08-.308.082-2.634.043-3.439-.437-2.93-1.373.255-.338.583-.497 1.021-.504.45-.007 1.046.323 1.63.559.248.1.368.332.705.157.829-.555.866-1.112.597-1.41-.259-.287-1.01-.072-2.038-.156-.835-.09-1.185-.787-.826-2.369l1.241-2.925c.186-1.747-1.04 0-1.905.854-.368.192-.445-.01-.39-.39Zm-1.955.636c.395-.423.782-.843 1.298-1.217.29-.242.528-.009.282.325l-.438.56c-.03.038-.227.244-.224.265.006.032.05.064.132.095.264.06.308.229.226.462-.08.229-.18.308-.34.475-.385.404-.415.681-.247.928.205.227.292.536.205.965-.042.3-.068.543.056.66.296.28.572.163.68.765.07.397-.06.83-.483 1.16-.453.353-1.15.426-1.66.12-.471-.282-.548-.617-.402-1.149.054-.195.156-.377.322-.54.312-.29.371-.109.373.542-.236 1.404 1.58.81 1.309-.076-.051-.164-.202-.305-.424-.48-.254-.2-.23-.144-.254-.48a4.619 4.619 0 0 1 .02-1.06l-.216-.181a.8.8 0 0 1-.197-.324c.017-.455.31-.811.579-1.19-.62-.08-.86-.245-.597-.625Zm-2.307 3.155c.227-.021.398.334.466 1.152.01.134.02.283.03.448.065 1.174-.358 1.744-.896 1.49-.537-.253-.206-.617.12-1.49.07-.192.119-.372.153-.537.123-.59-.18-1.034.127-1.063Zm4.626-8.814-.194.25c-.952 1.157-.76 1.345.164 1.13.86-.772 1.93-1.138 3.176-1.169-1.112 1.071-2.378 1.853-3.632 2.662a55.562 55.562 0 0 0-4.251 2.83c-.445.358-.766.676-.748.885.033.389.672.067.854.019.282-.076.563-.117.843-.064.35.066.265.175.084.414-.312.41-.779.74-1.228 1.082-.165.125-.636.339-.228.394.299.04.696-.123 1.2-.504.19-.145.363-.304.515-.484.195-.232.355-.496.468-.802-.004-.252-.249-.446-.844-.555-.25.006-.342-.043-.203-.169 1.242-1.13 2.68-2.103 4.233-3.04 1.186-.636 2.266-1.351 3.055-2.15.175-.177.495-.42.382-.715-.098-.317-.582-.335-1.251-.209a6.454 6.454 0 0 0-1.276.364c-.423.172-.532.128-.324-.135.638-1.035 1.882-1.695 2.635-2.672.188-.26.28-.455.267-.594a.241.241 0 0 0-.071-.153c-.251-.25-.328-.033-.48.158-.306.387-.63.75-.963 1.096a33.623 33.623 0 0 1-1.673 1.596c-.152.138-.354.403-.51.535Zm-4.258 2.566c.592-.807 1.279-1.594 1.988-2.376.169-.066.131.115.035.365-.573.708-1.076 1.445-1.454 2.234-.025.15.135.103.379-.035.363-.183.737-.35 1.127-.488.126-.045.534-.172.64-.09.267.207.187.863-.204.907-.953.354-1.875.668-2.62.756-.864.13-.672-.39.11-1.273Zm-10.016-.425c.681-.308 2.582-.689 2.761-.293.18.396-1.373 1.443-2.13 1.911-.758.469-2.05.398-2.305-.067-.255-.465.992-1.242 1.674-1.55Zm-2.263 6.022-.469 2.015c-.477.21-1.286.22-1.524-.146-.165-.582-.169-1.076.185-1.421.41-.399 1.266-.373 1.808-.448Zm.157-6.465c-.058.08-.075.099-.114.027-.518-.944-.736.187-.748 1.699a7.36 7.36 0 0 0-1.527 1.278c-.439.777-.33.918.156.624.404-.42.773-.989 1.248-1.1a22.73 22.73 0 0 1-.853 2.025c-.145.387-.184.866-.575 1.148-1.117.804-3.261 1.191-4.863 1.854l-3.017 1.04c-.263 1.17 1.892.727 5.467-.662l1.724-.559c-.341 1.403.14 2.24 1.825 2.249-.495 1.968-1.332 3.136-2.879 2.952-.623-.056-1.002-.231-1.579-.358-.291-.019-.359.067-.34.134.02.066.127.114.276.205.661.403 1.265.604 1.82.631.883.044 1.642-.352 2.307-1.074a8.368 8.368 0 0 0 1.607-2.314l3.942.081c.635-.049.716-.74-.213-1.146-.097-.053-.207-.012-.286-.062-.778-.501-.916-.472-.808.055l-.682-.033-1.387-.126c.432-.576.634-1.114.237-2.117l.037-.524c.906-.121 1.876-.486 2.565.213.58.704 1.335.81 2.296.191.235-.615.15-1.177-.454-1.651-.624-.788-2.346-.14-5.037.379-.591-.317-.778-.112-.819.281l-.544.089 1.227-2.428c.844.315 1.733.38 2.712-.05 1.072-.571 2.095-1.193 2.807-2.138.398-.527.694-.924-.106-1.264-.88-.374-2.593-.033-4.053.445-.293.134-.354-.06-.186-.584.396-.975.68-1.957.656-2.96-.518-.532-1.12-.488-1.077-.173.067.192.262.353.263.533.005 1.114-.83 2.06-1.026 3.19Zm-3.95.824c.232-.83.396-.54.605.182a8.603 8.603 0 0 1-.158 2.201c-.074.353-.39 1.26-.87 1.158-.364-.078-.718-.522-.784-.908-.022-.126.071-.238.094-.34.372-.764.91-1.477 1.113-2.293ZM110.136 71.822h.667l1.235 3.121h.026l1.253-3.121h.682l-2.484 5.928h-.645l.849-2.028-1.583-3.9Zm-.722 3.99a1.434 1.434 0 0 1-.254.062 2.96 2.96 0 0 1-.412.033 1.72 1.72 0 0 1-.544-.077 1.032 1.032 0 0 1-.384-.222.904.904 0 0 1-.228-.35 1.327 1.327 0 0 1-.075-.457v-2.423h-.767v-.556h.767v-1.09h.649v1.09h1.19v.556h-1.19V74.7c0 .093.013.178.04.256a.52.52 0 0 0 .126.203.57.57 0 0 0 .22.134.926.926 0 0 0 .322.049c.087 0 .179-.007.275-.022.097-.014.185-.031.265-.054v.545Zm-4.408-4.917h.683v-.726h-.683v.726Zm.017 4.907h.649v-3.98h-.649v3.98Zm-3.438-2.92c0 .108.024.199.072.269a.54.54 0 0 0 .191.168c.079.043.172.079.276.108.105.027.214.052.325.075.153.033.299.07.436.11.136.042.264.102.38.184.115.08.208.19.28.329.071.137.107.317.107.537 0 .202-.04.38-.117.535a1.086 1.086 0 0 1-.332.39 1.531 1.531 0 0 1-.51.238c-.2.055-.417.082-.654.082-.146 0-.278-.007-.396-.023a2.568 2.568 0 0 1-.315-.059 2.17 2.17 0 0 1-.232-.073 1.64 1.64 0 0 1-.16-.071v-.545c.169.067.335.12.499.159.164.04.346.06.545.06.156 0 .298-.015.423-.043.126-.027.234-.069.325-.123a.546.546 0 0 0 .283-.492.528.528 0 0 0-.067-.278.581.581 0 0 0-.18-.18 1.178 1.178 0 0 0-.262-.117c-.1-.03-.204-.059-.313-.083a6.716 6.716 0 0 1-.433-.11 1.507 1.507 0 0 1-.401-.176.836.836 0 0 1-.29-.308.99.99 0 0 1-.112-.5c0-.21.037-.39.113-.545.076-.153.178-.28.306-.382.129-.1.278-.176.448-.226.171-.05.352-.075.54-.075a2.86 2.86 0 0 1 1.129.222v.554a3.946 3.946 0 0 0-.509-.158 2.453 2.453 0 0 0-.531-.066c-.153 0-.284.016-.393.046a.78.78 0 0 0-.269.129.496.496 0 0 0-.153.193.604.604 0 0 0-.049.245Zm-1.453-.532h-.05c-.155 0-.305.014-.454.04a1.953 1.953 0 0 0-.416.13c-.13.057-.248.127-.352.211a1.067 1.067 0 0 0-.262.298v2.773h-.65v-3.98h.503l.126.632h.013a1.55 1.55 0 0 1 .552-.524c.117-.067.246-.12.386-.157.14-.037.286-.056.44-.056.028 0 .056 0 .087.002a.96.96 0 0 1 .077.006v.625Zm-4.882 2.992c.215 0 .412-.017.589-.053.177-.034.355-.084.53-.149v.54a2.13 2.13 0 0 1-.529.167c-.209.04-.433.06-.673.06-.285 0-.553-.036-.803-.109-.25-.073-.47-.19-.656-.352a1.646 1.646 0 0 1-.443-.635 2.485 2.485 0 0 1-.161-.945c0-.362.05-.678.151-.944.1-.268.235-.49.402-.668a1.65 1.65 0 0 1 .578-.404c.22-.088.447-.133.684-.133.223 0 .432.036.627.11.194.075.362.19.505.35.143.16.254.366.337.616.081.252.123.553.123.905v.086l-.004.162h-2.732c0 .254.038.47.115.648.077.177.182.32.314.432.133.11.289.19.468.24.178.05.372.076.578.076Zm-.357-3.068a.97.97 0 0 0-.411.088c-.128.06-.24.138-.334.24-.096.1-.172.218-.23.353-.059.136-.096.28-.109.433h2.011c0-.156-.02-.302-.061-.438-.04-.134-.1-.253-.177-.353a.833.833 0 0 0-.29-.238.884.884 0 0 0-.399-.085Zm-4.507 2.87c.094-.29.223-.66.385-1.11l.788-2.212h.68l-1.518 3.98h-.68l-1.516-3.98h.67l.788 2.212c.157.435.285.806.386 1.11h.017Zm-3.668-4.25h.684v-.725h-.684v.726Zm.017 4.908h.65v-3.98h-.65v3.98Zm-4.283-3.427h.013a2.04 2.04 0 0 1 .24-.258 1.505 1.505 0 0 1 .654-.35c.13-.034.272-.05.426-.05.182 0 .352.024.51.075a1.057 1.057 0 0 1 .695.68c.068.18.103.402.103.666v2.664h-.65v-2.56c0-.343-.067-.59-.2-.742-.132-.15-.326-.226-.58-.226-.224 0-.44.063-.65.187a1.713 1.713 0 0 0-.54.512v2.83h-.65v-3.981h.503l.126.553ZM77.974 75.3c.203 0 .384-.023.541-.07.158-.049.297-.114.414-.202.117-.087.214-.19.293-.311a1.669 1.669 0 0 0 .24-.713c.01-.113.015-.223.015-.329v-3.479h.683v3.462c0 .132-.007.267-.021.41a2.538 2.538 0 0 1-.067.398c-.053.207-.132.4-.239.575a1.594 1.594 0 0 1-.415.456c-.17.13-.375.23-.614.302a2.89 2.89 0 0 1-.84.109 2.92 2.92 0 0 1-.808-.1 1.947 1.947 0 0 1-.597-.28 1.596 1.596 0 0 1-.41-.423 2.115 2.115 0 0 1-.247-.533 2.676 2.676 0 0 1-.09-.45 4.335 4.335 0 0 1-.027-.464v-3.462h.684v3.48c0 .125.008.254.027.387.019.131.047.253.086.362.097.271.26.485.487.64.23.158.53.235.904.235Zm-8.509-4.404h.684v-.726h-.684v.726Zm.017 4.907h.65v-3.98h-.65v3.98Zm-3.247.105a2.09 2.09 0 0 1-.558-.067 1.521 1.521 0 0 1-.433-.188 1.261 1.261 0 0 1-.316-.291 1.431 1.431 0 0 1-.289-.703 2.774 2.774 0 0 1-.026-.393v-2.443h.65v2.439c0 .22.03.404.088.553a.818.818 0 0 0 .325.395c.149.097.34.146.572.146.246 0 .444-.055.592-.16a.869.869 0 0 0 .32-.428c.05-.136.072-.306.072-.506v-2.44h.65v2.448c0 .133-.008.259-.023.375a1.7 1.7 0 0 1-.073.32c-.05.138-.12.263-.208.38a1.295 1.295 0 0 1-.325.3 1.574 1.574 0 0 1-.445.194c-.17.046-.361.069-.573.069Zm-5.799-3.54h.013c.072-.093.153-.18.243-.26a1.45 1.45 0 0 1 .298-.204 1.65 1.65 0 0 1 .352-.136c.126-.034.26-.05.406-.05.15 0 .302.02.452.06.151.04.29.113.419.216.129.104.233.248.315.432.081.185.121.422.121.713v2.664h-.65v-2.56c0-.322-.06-.563-.182-.725-.122-.162-.32-.243-.597-.243-.228 0-.447.063-.654.187a1.718 1.718 0 0 0-.536.512v2.83h-.65v-6.068h.65v2.632Zm-6.004 3.435v-4.45h.678v.632c.328-.488.8-.733 1.416-.733.27 0 .515.049.74.144.226.098.393.224.505.38.113.157.19.343.236.557.027.14.041.385.041.734v2.736h-.755v-2.707c0-.306-.029-.537-.087-.69a.724.724 0 0 0-.312-.363.991.991 0 0 0-.526-.137c-.322 0-.598.103-.833.306-.233.204-.349.59-.349 1.161v2.43h-.754Zm-5.008-2.523h2.084l-.642-1.7c-.195-.517-.34-.941-.435-1.275a7.793 7.793 0 0 1-.332 1.174l-.675 1.801Zm-1.772 2.523 2.36-6.143h.875l2.515 6.143h-.927l-.717-1.86h-2.569l-.673 1.86h-.864Z" fill="#2B5293"/></svg>