<svg width="128" height="128" viewBox="0 0 128 128" fill="none" xmlns="http://www.w3.org/2000/svg">
<path fill-rule="evenodd" clip-rule="evenodd" d="M31.851 56.7746L38.6431 61.0192C39.65 61.6129 45.0741 65.0551 45.6237 65.1995C45.5074 64.2808 42.7031 59.1817 42.1213 57.5288C42.7512 57.7014 47.3608 62.299 48.1873 62.7242C48.071 61.5768 45.4632 54.4517 45.6317 54.2271C45.8042 54.0987 46.073 54.536 46.2977 54.7807C46.5785 55.0856 46.8674 55.3223 47.1362 55.6272C47.8503 56.4537 51.6616 60.5739 52.0146 60.7424L49.5834 51.2984C50.5021 52.6424 54.6263 59.1617 55.1479 59.7073C55.2081 58.1106 54.169 49.7458 54.4097 49.2082C54.7106 49.6415 55.2442 50.9414 55.521 51.5151L57.7757 56.2531C57.9522 56.6543 58.1327 57.0033 58.3092 57.3924C58.8749 58.6321 58.6944 58.3633 59.0755 58.5037C59.2159 56.907 59.24 48.7709 59.585 48.1651L61.8076 55.8358C62.0002 56.4777 62.3291 57.934 62.5618 58.4235C63.0152 57.8137 63.9018 48.1892 64.3953 47.0137C64.7202 47.1622 64.5276 46.7369 64.7323 47.5232C64.7724 47.6717 64.8205 48.117 64.8526 48.2935C65.1495 49.9544 66.7021 58.3192 66.9388 58.5559C67.693 57.2641 69.3981 50.3837 70.3088 49.0036L70.6698 59.1697C71.1673 58.929 74.5172 50.1189 75.135 49.6495C75.1792 51.8159 74.0438 57.6412 74.0759 59.9881C74.8462 59.2981 79.0306 51.9764 79.6003 51.7437L77.2974 61.4645C78.0075 61.0794 83.2109 54.5119 83.8809 54.2953C83.3995 56.1448 80.3264 61.7814 80.2783 63.1134L85.2811 58.7846C85.9591 58.1948 86.5849 57.4968 87.0583 57.3884L82.6693 65.6649C83.1668 65.5566 96.077 57.3523 96.3538 57.0314C95.2506 56.0284 93.6177 54.9211 92.3901 54.0024L68.5074 35.9329C67.8776 35.4395 64.9168 32.9682 64.3391 33.1567C64.2589 33.1848 32.537 56.0164 31.851 56.7746Z" fill="#231F20"/>
<path fill-rule="evenodd" clip-rule="evenodd" d="M4.69057 66.7401C3.146 33.8547 28.5893 6.44562 61.2419 4.68842C93.6257 2.94727 121.994 28.8118 123.249 61.1997C124.529 94.1211 99.7278 121.614 66.7663 123.259C34.1658 124.884 6.21909 99.2884 4.69057 66.7401ZM60.7485 4.08263C27.8832 5.76361 2.02268 34.2198 4.04867 67.2415C6.09473 100.62 33.6884 125.337 67.0872 123.945C99.9244 122.577 125.849 93.6356 123.968 60.8867C122.046 27.4919 94.2075 2.36956 60.7485 4.08263Z" fill="#231F20"/>
<path fill-rule="evenodd" clip-rule="evenodd" d="M23.8512 65.5765C22.8041 43.8201 40.693 24.515 62.4293 23.8891C84.7233 23.2472 103.19 40.1613 104.097 62.5034C104.995 84.6529 87.4755 103.156 65.4703 104.098C43.4171 105.045 24.9023 87.4251 23.8512 65.5765ZM61.6551 23.3716C50.5542 24.0737 41.6799 28.3784 34.0534 36.4182C26.6354 44.2373 22.6877 55.4826 23.3336 66.2104C24.7097 89.066 43.6498 105.619 66.4252 104.644C88.5145 103.701 106.091 83.5858 104.678 61.6609C103.234 39.2265 84.2258 21.9434 61.6551 23.3716Z" fill="#231F20"/>
<path fill-rule="evenodd" clip-rule="evenodd" d="M51.7659 112.239L50.6466 112.427C50.787 111.946 51.4128 111.813 51.9103 111.548L51.7659 112.239ZM53.3706 111.926C53.4268 111.26 53.6314 110.915 54.2733 110.758C54.1168 111.46 54.1008 111.749 53.3706 111.926ZM51.9464 110.369C51.822 110.425 51.4891 110.337 51.8662 110.188C52.2393 110.044 51.9825 110.353 51.9464 110.369ZM51.2965 109.851C51.7057 109.494 52.0226 109.502 52.5602 109.218C52.5602 109.342 52.8772 109.651 51.7217 109.9C51.2965 109.992 52.1149 109.928 51.5452 109.92C51.2564 109.92 51.473 109.964 51.2965 109.851ZM54.4057 108.949C54.6584 108.592 55.2361 108.548 55.6775 108.58C55.3244 108.812 54.843 108.937 54.4057 108.949ZM49.7439 106.485C50.6024 106.485 51.2764 106.55 52.0748 106.357C51.8341 106.935 51.3767 106.666 50.8793 106.662C50.1571 106.654 50.2895 107.312 49.7439 106.485ZM53.3466 106.441C53.0818 106.855 53.1339 106.855 52.6244 106.453C52.8732 106.313 53.154 106.353 53.3466 106.441ZM49.5914 106.702C49.2785 107.043 49.0859 107.673 49.1301 108.138C49.7078 108.592 50.5302 108.427 51.2965 108.427C50.8552 109.045 51.0919 108.323 49.8161 109.017C49.772 109.041 47.8944 109.426 48.2755 110.674L49.4751 110.778C48.8773 111.504 48.8573 111.894 48.4481 112.7C47.4852 112.7 45.9727 112.608 45.0781 112.696C43.9347 112.808 43.9869 113.915 45.732 113.871C46.7069 113.843 46.2134 113.743 47.6377 113.799L51.1681 114.124C50.4299 114.14 49.5513 114.345 48.8573 114.533C48.1271 114.734 47.1683 114.473 47.1883 115.516C48.2796 116.303 49.4952 115.492 50.6947 115.893C50.791 116.804 49.1862 119.673 50.133 120.338C51.4048 119.993 52.0347 116.591 52.3315 115.937C52.9133 115.937 53.2543 115.925 53.8159 116.01C54.0847 116.05 54.9152 116.17 55.1479 116.162C56.2752 114.734 53.0537 114.922 52.6244 114.61C53.2422 113.643 57.4106 114.79 58.2892 114.385C58.2852 112.82 57.2621 113.177 54.7507 113.041C54.3656 113.017 53.7879 112.961 53.2382 112.961C53.5913 112.467 55.6494 112.632 56.2552 112.668C57.7115 112.76 56.9131 111.264 56.4999 110.674L57.2541 110.112C57.2501 109.173 57.0214 108.897 56.3474 108.568L57.4266 108.399C57.9121 107.368 57.4627 107.517 57.2541 106.746C57.6393 106.55 59.2761 106.241 57.8559 104.825C56.9211 105.294 54.0406 105.398 52.9935 105.158C53.3145 104.748 53.5672 104.917 53.7558 104.415C52.3436 104.415 51.5452 104.548 50.2454 104.788C49.5273 104.925 49.2344 104.841 49.0458 105.543C48.8212 106.373 48.9977 106.393 49.5914 106.702ZM95.1984 104.945L95.4752 104.837C95.5795 105.238 95.5835 105.133 95.3147 105.475C94.9778 104.929 95.2345 105.025 95.1984 104.945ZM97.3849 104.179C97.2083 103.862 97.3287 103.553 97.5173 103.228C97.6978 103.549 97.6497 103.91 97.3849 104.179ZM95.078 103.533L95.5876 103.826C95.3829 103.838 95.1182 103.81 95.078 103.533ZM97.3849 101.956C97.9826 101.094 97.413 102.149 97.8904 101.531C98.3437 100.941 97.7459 101.322 98.0348 100.769C98.4761 101.134 98.2514 101.414 98.0869 101.876C97.9586 102.245 97.8904 102.71 97.5494 102.979L97.762 102.076C97.3046 101.832 97.774 102.137 97.3849 101.956ZM95.9526 101.053L96.6106 101.049L96.3097 101.944L95.9526 101.053ZM94.0189 100.793C94.8534 100.809 94.8855 100.973 95.058 101.695C94.3639 101.527 94.392 101.35 94.0189 100.793ZM95.8323 100.014C95.8684 99.5891 95.8684 99.5048 96.2094 99.224C96.6306 99.3965 97.0037 100.223 96.9115 100.576C96.5303 100.612 96.0971 100.247 95.8323 100.014ZM94.7651 98.4377C95.3268 98.225 95.399 98.9793 95.4431 99.4968C94.8333 99.0916 94.9216 98.9713 94.7651 98.4377ZM94.4201 96.6364L95.1984 97.6754L94.1032 97.6514C93.9587 97.0857 94.0069 97.4708 94.1192 97.1378L94.4201 96.6364ZM92.8434 96.9172C92.2015 96.3956 92.6669 96.1309 91.5596 96.1309C91.5596 96.9332 91.7522 97.6273 91.6559 98.4256C91.1304 98.8068 91.3029 98.3534 90.7412 98.8028C90.6249 99.8739 92.7471 101.202 93.2446 101.956C92.1815 101.667 91.3069 100.688 90.2678 100.403C90.3079 102.397 93.1243 103.384 94.5084 104.447C94.6327 105.631 93.9989 105.298 95.0098 107.051C95.3428 107.621 96.2415 108.58 96.9155 108.676C98.3758 108.885 96.751 107.236 96.4982 106.855C96.0329 106.149 96.2054 105.964 96.9516 104.5C96.9596 104.48 96.9797 104.443 96.9997 104.415C97.1081 104.604 97.0519 104.383 97.0439 104.648C97.0439 104.656 97.0037 104.917 96.9997 104.929C96.9396 105.33 96.6226 105.972 98.2916 105.968C98.5804 105.402 98.6205 105.174 98.6847 104.548C98.7409 103.966 98.8933 103.404 98.9415 102.863C99.2664 103.095 99.3507 103.316 99.8482 103.637C99.5954 104.684 98.8251 106.012 98.5523 107.135C101.1 107.135 100.141 105.547 101.272 104.805L102.207 105.679C102.059 106.77 101.132 106.951 100.61 107.641C100.711 107.709 100.502 107.777 101.032 107.833C101.421 107.878 103.407 106.979 104 105.828C102.681 104.09 102.151 104.387 101.658 103.637C101.894 102.662 102.913 101.727 102.793 100.696C101.008 99.2842 101.04 102.442 99.9765 102.734C99.4791 101.651 100.951 100.199 98.4239 100.143C98.444 99.2802 98.3798 99.8178 98.5443 99.7255C98.8211 99.573 98.9535 100.379 99.7439 99.0034C100.43 97.8038 101.3 97.2983 100.454 96.8048C99.9525 96.508 99.2103 96.7928 98.8412 97.194C98.3919 97.6834 98.0669 98.6182 97.5173 98.9793C96.3699 98.221 95.05 94.7668 94.733 94.6264C94.4121 94.486 93.8344 94.5823 93.6057 94.8109C93.1363 95.2803 93.6298 96.0306 92.8434 96.9172ZM28.6294 96.3997C28.2403 96.171 26.8 95.4408 26.475 95.3846C25.3557 96.3595 26.1782 97.1739 26.1501 98.1689C25.2394 99.212 24.5213 98.7426 23.5464 99.0635C22.8202 99.3002 21.9256 100.287 21.9095 101.049C22.3388 101.435 22.6958 101.615 23.3458 101.816C23.9636 102.008 24.5814 102.117 25.2755 102.092C25.9655 102.072 26.5513 101.86 27.2172 101.828C28.83 101.756 28.4168 101.635 29.159 101.567C28.4288 102.67 27.3255 104.038 27.819 105.495C28.2001 106.61 29.4639 108.03 30.5832 108.299C33.2872 106.546 29.9293 104.56 29.9373 103.769C30.0697 103.28 31.2933 101.751 31.8068 101.611C32.5931 101.394 33.8569 102.63 35.1487 102.117C35.7184 101.146 34.9361 100.588 34.4546 99.7656C34.928 99.0595 35.6422 99.0515 36.1196 98.4297C36.605 97.7998 36.4686 96.7728 35.9872 96.1629C35.2169 96.2873 33.8007 97.4307 33.1147 97.884C31.0686 99.236 31.7466 99.3684 29.9373 99.3684C30.2261 98.6062 31.518 98.1488 31.6223 96.7728C31.6865 95.8982 31.2853 93.8 30.2181 93.8321C29.5562 94.8471 30.1539 95.3846 28.6294 96.3997ZM75.3798 110.501C74.2925 111.211 73.8191 111.589 72.6356 112.158C72.0619 112.435 72.0659 112.178 71.5284 112.604C71.5123 113.274 72.423 114.116 73.2214 113.928C73.9475 113.755 74.778 113.33 75.5081 112.961C75.5081 114.381 75.2153 115.95 74.5172 117.149C73.5463 118.818 72.5474 119.107 71.741 119.552C71.6407 120.07 71.5805 119.997 71.8373 120.515C73.1853 120.964 77.1891 117.643 77.1891 114.385C77.6625 114.513 77.8872 114.914 78.2563 115.259C78.5933 115.576 79.0787 115.861 79.4478 116.138C81.2531 117.502 81.0806 117.49 83.2751 117.49C83.9571 117.49 85.3974 116.997 85.9591 116.551C86.1356 114.63 82.8138 114.73 81.5861 114.521C80.4187 114.321 78.1078 112.76 77.9554 111.524C78.7858 110.505 80.3384 110.072 81.0846 109.089C80.5872 107.372 78.2402 108.516 77.6023 108.58C77.6786 109.113 77.3817 109.306 76.8 109.466C76.8 106.746 76.4991 106.827 75.7689 105.836C75.3798 105.302 75.4239 105.322 74.7298 105.322C74.7298 106.522 74.5373 106.566 74.8582 107.914C75.0187 108.596 75.3757 109.835 75.3798 110.501ZM16.2127 79.4294L12.594 80.4805C12.4816 80.0192 10.933 76.9421 13.3402 76.1638C15.2699 75.5379 16.0803 77.9611 16.2127 79.4294ZM20.8745 78.1336L17.003 79.2128C16.7382 78.1135 16.4052 77.7204 16.4654 76.4486C16.6058 73.5039 20.8704 73.7286 20.8745 78.1336ZM15.5668 75.1568C14.6882 74.9241 14.1786 73.7847 12.5338 74.5871C11.5308 75.0765 11.0414 76.1437 11.0454 77.2269C11.0494 78.0253 12.3813 83.1404 12.7464 83.674C13.4044 83.3972 12.8948 83.2808 13.0112 82.31C13.5448 81.7724 16.9107 80.958 17.8495 80.6771C18.692 80.4284 19.5345 80.1917 20.381 79.967C22.399 79.4375 21.5204 80.7373 22.4271 80.982C22.7239 80.3481 20.7702 74.6152 20.4652 74.1418C18.7602 71.4939 15.5627 72.4608 15.5668 75.1568ZM13.625 42.6606C14.7403 42.5643 13.8256 41.1321 15.8075 41.9024C16.6419 42.2233 17.5807 42.7208 18.4152 42.9214C18.2467 43.6275 17.8976 44.2734 17.6168 44.9715L17.2116 45.9905L16.7302 47.0616C16 46.8891 14.965 46.3917 14.2148 46.0828C12.0644 45.2042 13.7253 44.8511 13.1997 44.1169C12.6662 44.2132 12.0363 46.3195 11.6792 47.194C11.4907 47.6554 11.2139 47.9844 11.4546 48.3254C12.2891 48.3254 11.6191 46.7888 13.4966 47.5752C14.6079 48.0446 20.393 50.2391 20.5816 50.5921C20.7019 51.6231 20.1122 51.7355 20.71 52.0805C21.0751 51.7194 21.4682 50.4998 21.6849 49.9462C21.9175 49.3725 22.6517 48.2772 22.2626 47.7437C21.8574 47.856 21.9256 48.2732 21.4883 48.7145C20.1603 48.871 18.7722 47.7597 17.5085 47.4508L18.692 44.3617C18.8645 43.9244 18.9367 43.5954 19.1895 43.3065C20.0159 43.5071 22.4591 44.474 22.9566 45.1079C23.1412 45.7016 22.3107 46.0747 22.9245 46.3074C23.1853 46.4077 23.1893 46.2914 23.4822 45.5291L24.6817 42.5643C24.8101 42.0267 24.8542 42.2915 24.453 42.0348C23.1813 43.0337 25.2835 43.9284 20.2085 41.9024C19.3339 41.5534 15.9479 40.3257 15.4705 39.7801C15.3581 38.8614 15.8035 38.9296 15.5668 38.388C15.0051 38.4722 14.8246 39.403 14.4354 40.3698C14.1907 40.9837 13.6772 42.0629 13.625 42.6606ZM103.599 33.4694C103.896 33.0241 106.123 31.4595 106.696 31.1265C110.094 33.3932 105.549 37.3168 103.599 33.4694ZM97.4691 33.9348C97.3407 34.5246 99.8843 37.5936 100.005 37.6979L100.354 37.4532C100.049 37.0199 99.9003 36.8514 99.8361 36.3058C100.297 35.7 102.211 34.2277 102.909 33.8786C103.523 34.4283 103.519 34.4884 103.27 35.1985L101.649 40.093C102.444 41.084 103.034 42.3999 103.631 42.1832C103.784 41.3768 102.729 41.5413 103.583 39.0178C103.924 38.0149 104.402 36.7993 104.638 35.8003C105.641 36.4703 106.512 36.9638 107.748 36.4543C108.867 35.9929 109.424 34.7091 109.192 33.5858C108.975 32.5627 106.388 28.7194 105.637 28.0815C104.494 28.7234 107.049 28.7434 104.899 30.3642L100.105 33.8586C97.7018 35.676 98.448 33.7543 97.4691 33.9348ZM60.4877 11.0711V18.0638C60.4877 19.5683 59.1557 18.461 59.0635 19.4881H62.8186C62.7343 18.5011 62.4094 19.5402 61.4305 18.5493L61.3944 11.8494C61.7354 12.0701 64.327 15.3037 64.7643 15.8613C65.2899 16.5393 65.8676 17.1933 66.3891 17.8592C66.7943 18.3808 67.6368 19.6886 68.2587 19.7448V14.6979C68.2587 13.6387 67.9819 10.5937 68.5596 9.95183C69.1172 9.48646 69.4622 9.85154 69.7872 9.4343C69.2376 9.02509 66.8706 9.25778 66.0562 9.25778C66.2126 10.6258 67.4844 8.06625 67.4804 12.1062V16.5112C66.7703 16.0378 62.6862 10.5175 61.4947 9.28987L58.5459 9.25778C58.6422 10.1083 58.4256 9.35807 59.6773 9.94381C60.2109 10.1925 60.4877 10.4814 60.4877 11.0711ZM95.8042 19.3436C95.4873 20.1741 97.3929 19.7167 95.5434 21.7869L91.7081 26.24C90.1715 28.1697 90.1234 26.4727 89.309 26.7014C89.1645 27.1708 89.6219 27.4035 90.5446 28.1417L95.1864 32.1736C95.6237 31.9529 97.4049 30.946 97.6336 30.6531C96.8032 29.939 95.9847 31.5237 94.5164 30.5167C93.8825 30.0834 92.6469 29.0243 92.1975 28.4305C92.362 27.8408 94.4041 25.4657 94.9376 25.3013C98.5724 28.0614 96.2495 27.8729 96.739 28.936C97.0639 28.8518 99.134 26.7134 99.1982 25.9592C98.2434 26.0475 98.3517 27.0745 97.0519 26.1678C96.5384 25.8108 95.8925 25.0485 95.3147 24.6674L97.7419 21.7909C98.2394 22.1239 99.447 23.179 99.8843 23.5922C101.409 25.0325 99.9284 25.2692 100.201 26.1237C100.727 26.3283 100.763 25.9432 101.14 25.4417C101.421 25.0646 101.645 24.8238 101.918 24.4066C101.625 23.9854 99.4991 22.2683 98.9094 21.7187L96.5905 19.7609C96.1773 19.4158 96.2014 19.1751 95.8042 19.3436ZM16.7302 60.6579C16.9468 61.4603 18.1424 61.3279 18.5837 62.5555C18.8244 63.2255 18.9728 65.3197 18.704 65.9977C18.1865 66.4911 15.3662 66.5192 14.6159 66.2665C14.4234 65.6968 14.4795 64.5333 14.5277 63.8914C14.5999 62.9767 15.0532 62.7481 15.9519 62.728V62.2105H12.3292V62.728C13.1757 62.728 13.6451 62.8885 13.7414 63.7751C13.8136 64.425 13.8617 65.6848 13.6691 66.2665C13.1275 66.447 10.6241 66.447 10.0825 66.2665C9.906 65.7409 9.93408 63.6267 9.99827 62.9848C10.1547 61.4001 11.587 62.379 11.6833 61.3038C10.7084 61.3038 10.1186 61.3519 9.21997 61.4322V69.3316H9.7375C9.7375 67.9595 9.88594 67.8953 11.2861 67.9033H17.3801C18.6398 67.8913 19.0651 67.9073 19.0611 69.3316H19.5786V61.4322C19.1694 61.2436 17.015 60.3971 16.7302 60.6579ZM22.2826 28.7234C23.2896 29.0082 22.8122 27.1507 24.79 28.9039C27.4539 31.2629 30.9362 32.663 28.83 35.7281C27.1891 38.1071 25.3397 36.4543 23.7189 35.1544C18.2748 30.7855 20.9667 32.2538 20.7862 30.8457C20.2245 30.637 19.9878 31.2468 19.1173 32.3621C18.7963 32.7714 17.677 33.8786 17.7332 34.2798C18.359 34.7893 18.1705 33.7021 19.0491 33.7342C19.6388 33.7543 22.5073 36.2777 23.0609 36.719C25.2273 38.4482 27.2253 39.2626 29.2192 36.6348C32.0676 32.8717 29.1429 31.2509 25.6366 28.4466C23.089 26.4125 25.1872 26.5851 24.6938 25.8068C24.2083 25.7987 22.1944 28.3222 22.2826 28.7234ZM107.354 43.3065C106.684 43.3226 106.143 43.6837 105.541 43.9524C105.088 44.1571 104.193 44.4339 103.844 44.7468C104.506 45.5732 104.398 44.3657 104.743 45.3927C104.915 45.8982 104.851 46.5762 104.967 47.1218C105.697 50.6362 110.231 51.2741 110.909 47.3786C111.105 46.2593 111.13 45.136 111.334 44.0487C112.04 40.2776 116.213 43.7759 113.476 46.4518C112.967 46.9453 112.586 46.9212 112.742 47.503C113.139 47.527 115.779 46.3435 116.12 46.0065C115.767 45.2603 115.523 46.2031 115.282 45.3606C115.153 44.8992 115.438 42.4239 113.42 41.5132C109.015 39.5354 109.441 46.508 108.915 47.7156C108.482 48.7065 107.447 49.0676 106.548 48.3856C105.834 47.844 105.521 46.4318 105.746 45.5853C106.127 44.1611 107.266 44.2052 107.354 43.3065ZM50.779 11.0711C51.3286 11.4202 51.461 10.8425 52.0748 11.1875C52.5562 11.4563 53.3064 14.6217 53.483 15.2315C54.0326 17.109 54.863 18.9665 52.7006 20.2423C50.5262 21.5221 49.3186 20.3265 48.5965 18.3045C48.3076 17.5022 48.0228 16.3106 47.8021 15.4722C47.6096 14.73 46.9877 13.2977 47.2525 12.5916C47.6818 11.8896 48.1231 12.4472 48.3197 11.7211C47.9305 11.5405 43.8946 12.5595 43.8424 13.0811C44.1634 13.3459 44.5204 13.0851 45.1704 13.1854C45.8323 13.7671 46.6949 17.8071 47.072 18.9224C47.8583 21.2453 49.4149 22.2241 51.8622 21.4779C54.2412 20.7518 55.2682 19.5964 54.8711 17.0809C54.6063 15.3959 53.2302 12.3228 53.3987 10.8425C53.9965 10.2407 54.3575 10.5416 54.3776 9.93578C54.0607 9.75525 51.0839 10.7261 51.0839 10.7261C50.783 10.8946 50.8793 10.7502 50.779 11.0711ZM32.7857 21.8189C33.1909 21.9273 35.7866 23.5641 36.0193 23.8891L33.7004 25.5821C33.6844 25.558 33.6563 25.4778 33.6483 25.4978L33.3755 24.7195C33.3032 24.3946 33.2471 24.0616 33.1829 23.7487C33.0946 23.3033 32.9301 22.172 32.7857 21.8189ZM31.4096 19.3557C31.3816 20.4188 33.568 28.6712 33.4276 29.7023C33.3113 30.5608 32.7737 30.1917 33.0023 30.9379C33.4196 31.0061 35.7104 29.3653 35.8909 28.936C35.1848 28.6151 35.4456 29.1446 34.4988 29.0323C34.1337 28.603 33.8328 27.1186 33.8208 26.4767C34.4787 25.891 35.5298 25.1528 36.3803 24.6232C37.0062 24.2341 37.5157 24.6313 38.4505 25.3454C38.8677 25.6623 38.7554 25.5179 39.0081 25.9512C38.7915 26.6733 38.3301 26.3724 38.5748 27.0304C38.9881 27.1547 41.9649 24.9081 42.0571 24.6995C41.2949 23.7767 41.7843 25.6342 39.2288 23.9172L34.1578 20.7036C33.5159 20.2704 32.1438 19.0628 31.4096 19.3557ZM108.04 73.5601C107.415 73.3514 107.515 73.889 107.053 75.5018C106.644 76.918 106.207 77.4636 106.741 77.8648C107.86 76.9702 105.81 76.1076 110.44 77.3794C111.398 77.6441 113.115 80.0111 114.187 81.1425C115.623 82.667 114.6 83.0602 115.242 83.5817C115.747 83.3651 115.819 82.3019 115.956 81.8165C116.096 81.319 116.546 80.3802 116.257 79.9791C115.663 80.0753 116.104 80.3 115.478 80.6892C114.724 80.9419 112.345 77.8608 112.016 77.3593L115.599 76.2721C116.168 76.1076 116.289 76.0755 116.722 76.2761C116.899 76.8057 116.722 77.0143 116.762 77.4034C117.416 77.604 117.34 77.0022 117.741 75.574C117.938 74.8719 118.359 73.7887 118.359 73.0867C117.212 73.199 118.728 73.6002 115.787 74.5269C114.78 74.8398 113.761 75.2009 112.738 75.4898C110.873 76.0193 111.539 75.9672 109.657 75.4456C107.045 74.7195 108.173 74.4226 108.04 73.5601ZM82.4727 23.7848C82.9782 24.0054 83.1507 23.5039 83.6643 23.1108C84.5389 22.4408 89.0963 17.7389 90.0391 17.0569C90.7492 16.5433 91.01 16.7359 91.1986 16.7199L91.5596 16.6396C91.4914 15.9977 91.4553 16.3026 90.1796 15.6888C89.8626 15.5364 89.662 15.4722 89.3611 15.3318C87.6079 14.5133 89.2287 16.2184 89.2408 16.2384C88.9399 17.3497 87.5277 18.1361 86.7374 18.9344C86.2319 19.4479 84.591 21.2814 84.0534 21.4298C84.0534 19.825 83.7084 14.9306 84.4747 13.9517L85.602 14.076C85.5458 13.3419 84.8879 13.3539 84.266 13.057C83.7244 12.7962 83.223 12.5796 82.6653 12.3269C82.212 12.1223 81.0445 11.709 81.8629 12.5876C82.6372 13.4221 82.5129 13.1734 82.5008 14.4371C82.4888 15.5805 82.3404 23.4919 82.4727 23.7848ZM89.8787 78.4265C91.0341 77.6762 90.9619 77.0664 90.9619 75.6743C90.9579 74.4226 90.9619 73.1709 90.9579 71.9192C90.9579 70.6675 90.9659 69.4158 90.9619 68.1641C90.9538 65.8492 91.2427 66.6957 90.0111 65.1552C88.647 65.6807 88.7032 66.3949 88.7112 67.779C88.7192 68.8862 88.5949 76.9742 88.7914 77.4034C88.972 77.8006 89.5497 78.278 89.8787 78.4265ZM116.289 60.3971C118.295 60.4011 117.97 61.9537 117.97 63.3739H110.074C109.015 63.3739 109.039 62.72 109.039 61.9497H108.522V65.8372C108.522 66.3908 108.426 66.2304 108.795 66.4952C109.469 65.9215 108.185 64.9305 110.981 64.9305C112.939 64.9305 116.056 64.8583 117.886 64.9706C118.002 65.8011 118.19 67.2053 117.408 67.7308C116.61 68.2644 116.309 67.6185 116.289 68.5532L118.796 68.3647C119.025 67.0207 118.88 61.7411 118.876 60.008C117.749 60.008 117.898 59.8435 116.289 59.8796V60.3971ZM108.369 54.3352C107.703 53.9821 108.117 53.5408 107.627 53.1356C107.122 53.4967 107.467 53.9179 107.723 55.4986L108.052 57.3722C108.261 57.8496 107.988 57.6209 108.522 57.6771C108.522 55.8436 108.482 56.1566 112.181 55.5147L117.195 54.7003C117.448 55.0814 117.46 54.937 117.645 55.4184C117.797 55.8196 117.709 55.952 118.231 55.9961C118.231 55.3181 117.785 53.3202 117.645 52.3092C117.553 51.6352 117.745 51.5229 117.067 51.4627C117.067 52.8468 117.308 52.927 115.936 53.1838C114.64 53.4285 108.907 54.5879 108.369 54.3352ZM73.6948 10.0361C73.7911 10.8866 74.3006 10.2166 74.8582 11.0711C74.9625 11.4122 73.5864 17.6988 73.3899 18.5332C73.0248 20.0537 72.7841 19.6164 71.6246 19.6164C71.6808 20.2623 72.3628 20.2182 73.7269 20.491C74.3848 20.6194 75.6205 21.0286 76.154 20.7799C75.7047 20.0979 75.472 20.6916 74.8582 19.7448C74.8743 19.0668 75.2072 17.9595 75.3436 17.2534L76.4309 12.1263C76.8561 10.4814 77.5341 11.7933 78.2242 11.0711C77.9514 10.686 73.8031 9.9398 73.6948 10.0361ZM9.60912 56.7744C10.7846 56.6701 9.45667 55.2218 11.6592 55.623C12.5338 55.7794 18.7 56.7543 19.0571 57.0352C19.5425 57.4163 19.2256 57.8937 19.2737 58.3711C19.9959 58.5958 19.7511 58.0462 20.0841 56.3732C20.3569 55.0212 20.6859 54.2509 20.2165 53.9139C20.1363 53.9781 19.6508 54.9169 19.4502 55.2178C18.0421 55.2178 15.8436 54.6802 14.3993 54.4435C10.2911 53.7655 10.7766 53.946 10.7766 52.241C10.1066 52.3132 10.2871 52.4255 10.1949 53.0875C10.1347 53.5208 10.0705 53.8818 9.98624 54.3031C9.85786 54.941 9.60912 56.1245 9.60912 56.7744ZM88.4665 63.8914C88.7112 64.2806 89.4654 64.8663 89.8787 64.9947C90.324 64.742 90.7974 64.1683 91.1544 63.7631C90.8937 63.3659 90.0552 62.6117 89.5938 62.4432C89.2528 62.8323 88.651 63.3739 88.4665 63.8914Z" fill="#231F20"/>
<path fill-rule="evenodd" clip-rule="evenodd" d="M89.8786 78.4264C89.5496 78.278 88.9719 77.8006 88.7914 77.4034C88.5948 76.9742 88.7191 68.8862 88.7111 67.7789C88.7031 66.3948 88.6469 65.6807 90.011 65.1552C91.2426 66.6957 90.9538 65.8492 90.9618 68.1641C90.9658 69.4158 90.9578 70.6675 90.9578 71.9192C90.9618 73.1709 90.9578 74.4226 90.9618 75.6743C90.9618 77.0664 91.034 77.6762 89.8786 78.4264ZM70.4571 75.5459C73.0488 75.5459 74.8822 75.0525 77.9874 76.3002C81.923 77.8848 83.9089 81.9649 87.2348 84.2717C88.687 85.2787 90.4924 86.2737 92.2295 86.7872C92.2616 86.7992 92.6267 86.9035 92.6307 86.9035C92.9878 87.064 92.8393 86.8514 92.9838 87.1964C90.1113 87.1964 88.1775 87.4732 85.1887 86.707C80.547 85.5194 78.6814 81.4273 75.7969 78.8798C73.9996 77.2911 70.6376 75.7987 70.4571 75.5459ZM59.3242 75.5459C60.7363 75.5459 61.9399 75.2771 63.3962 75.4857C64.5757 75.6583 65.7351 75.7987 66.8745 76.2841C71.5724 78.278 73.2935 83.4052 78.7777 85.8685L81.0926 86.7872C81.8588 87.0159 81.7305 86.9116 81.8508 87.1964C80.2661 87.1964 77.4538 87.3609 75.8731 87.0881C67.9216 85.72 68.407 80.8215 62.1806 77.0905C61.5949 76.7375 59.5889 75.915 59.3242 75.5459ZM48.1912 75.5459C49.5552 75.5459 50.8992 75.2691 52.2793 75.4697C61.29 76.7575 60.3432 83.2487 69.1813 86.5304C70.0479 86.8554 70.5614 86.8273 70.7179 87.1964C69.2977 87.1964 68.0099 87.413 66.6699 87.2325C65.2056 87.0359 64.7522 87.2285 62.9348 86.6949C56.921 84.9297 56.8127 80.6771 51.0637 77.0704C50.482 76.7054 48.4319 75.8789 48.1912 75.5459ZM37.0583 75.5459C39.6539 75.5459 41.4713 75.0525 44.5845 76.3002C49.0417 78.0895 51.0035 83.4092 56.5118 85.8685L59.2279 86.9035C59.5849 87.064 59.4405 86.8514 59.5849 87.1964C57.4185 87.1964 56.0505 87.413 53.6193 87.076C47.1722 86.1774 45.9767 82.0452 42.3941 78.8798C40.5967 77.2911 37.2348 75.7987 37.0583 75.5459ZM88.4664 63.8914C88.6509 63.3739 89.2527 62.8323 89.5937 62.4431C90.0551 62.6116 90.8936 63.3659 91.1543 63.7631C90.7973 64.1683 90.3239 64.7419 89.8786 64.9947C89.4654 64.8663 88.7111 64.2806 88.4664 63.8914ZM71.3638 66.7399C72.3627 67.6305 73.45 68.1962 74.4008 69.4037C77.7146 73.6242 70.433 72.4849 68.3509 72.0837C65.8595 71.6023 65.679 71.3254 63.7733 70.828C62.7704 70.5632 59.1516 72.5611 54.0124 72.4447C51.7698 72.3926 51.2563 71.3214 52.5882 69.5883C53.4989 68.4008 54.6985 67.7468 55.6774 66.8923C55.5008 66.4951 54.526 65.9174 54.1248 65.5965C52.4719 64.2645 50.0808 61.6648 53.7477 61.1634C55.8539 60.8785 59.0353 61.4442 61.1536 62.066C64.8846 63.1613 62.4655 63.0128 67.8654 61.6889C69.5905 61.2717 77.855 59.9076 74.493 64.0439C73.5021 65.2635 72.2023 65.8934 71.3638 66.7399ZM31.8509 56.7744C32.5369 56.0161 64.2588 33.1846 64.339 33.1565C64.9167 32.9679 67.8775 35.4392 68.5073 35.9327L92.39 54.0022C93.6176 54.9209 95.2505 56.0282 96.3537 57.0311C96.0769 57.3521 83.1667 65.5564 82.6692 65.6647L87.0582 57.3882C86.5848 57.4965 85.959 58.1946 85.281 58.7843L80.2782 63.1131C80.3263 61.7812 83.3994 56.1445 83.8808 54.295C83.2108 54.5117 78.0074 61.0791 77.2973 61.4643L79.6002 51.7435C79.0305 51.9762 74.8461 59.2978 74.0758 59.9879C74.0437 57.6409 75.1791 51.8157 75.1349 49.6493C74.5171 50.1187 71.1672 58.9288 70.6697 59.1695L70.3087 49.0034C69.398 50.3835 67.6929 57.2638 66.9387 58.5556C66.702 58.3189 65.1494 49.9542 64.8525 48.2933C64.8204 48.1168 64.7723 47.6714 64.7322 47.523C64.5276 46.7367 64.7201 47.1619 64.3952 47.0135C63.9017 48.189 63.0151 57.8135 62.5617 58.4233C62.329 57.9338 62.0001 56.4775 61.8075 55.8356L59.5849 48.1649C59.2399 48.7707 59.2158 56.9068 59.0754 58.5035C58.6943 58.3631 58.8748 58.6319 58.3092 57.3922C58.1326 57.003 57.9521 56.654 57.7756 56.2528L55.5209 51.5148C55.2441 50.9411 54.7105 49.6413 54.4096 49.208C54.1689 49.7456 55.208 58.1103 55.1478 59.7071C54.6263 59.1614 50.502 52.6421 49.5833 51.2982L52.0145 60.7421C51.6615 60.5736 47.8502 56.4534 47.1361 55.627C46.8673 55.3221 46.5784 55.0854 46.2976 54.7805C46.0729 54.5358 45.8041 54.0985 45.6316 54.2268C45.4631 54.4515 48.0709 61.5766 48.1872 62.724C47.3608 62.2987 42.7511 57.7011 42.1212 57.5286C42.703 59.1815 45.5073 64.2806 45.6236 65.1993C45.074 65.0549 39.6499 61.6127 38.643 61.0189L31.8509 56.7744ZM61.2659 26.6091C40.7051 27.937 25.0628 46.0667 26.5672 66.6035C27.2813 76.3002 31.6101 85.363 38.8756 91.8502C46.8713 98.9913 56.1227 101.944 66.7983 101.402C76.3706 100.917 85.4816 96.0747 91.8965 89.086C98.6405 81.7362 102.247 71.2091 101.425 61.2717C99.6956 40.3217 82.268 25.2491 61.2659 26.6091Z" fill="#019BD7"/>
<path fill-rule="evenodd" clip-rule="evenodd" d="M62.5618 66.7397C62.8386 65.7127 64.1705 66.0456 64.1144 66.856C64.0582 67.6544 62.7503 67.9031 62.5618 66.7397ZM57.1498 66.844C58.0645 67.518 62.8025 69.9251 63.5407 69.7927C63.9539 69.7165 66.349 68.6654 66.8344 68.4247L69.9396 66.7397C69.8634 66.6715 69.8353 66.6354 69.6548 66.507C69.4662 66.3746 69.4542 66.3706 69.2536 66.2663C68.9888 66.1259 68.7361 66.0216 68.4753 65.8772C67.5606 65.3636 64.1946 63.6867 63.5006 63.795C62.5658 63.9434 57.916 66.1941 57.1498 66.844ZM64.7603 70.2381C65.1896 70.6112 66.4292 70.88 66.9628 71.0123C68.2105 71.3213 74.1441 72.7695 74.8381 71.3774C74.9625 69.7887 71.8533 67.863 70.6979 67.1208C70.1282 67.6263 68.6037 68.3806 67.8254 68.7697L64.7603 70.2381ZM62.4214 63.3256C61.3422 62.6235 55.0997 61.2434 53.0537 61.765C50.7629 62.3467 54.201 64.9464 54.9994 65.5C56.3273 66.4228 55.9944 66.5993 57.3825 65.837C58.2009 65.3837 58.923 64.9384 59.7976 64.4971C60.4596 64.1641 61.972 63.6546 62.4214 63.3256ZM65.0491 63.3457C65.1133 63.3938 68.6077 65.0347 69.7711 65.7488C71.0268 66.519 70.9065 66.2422 72.1181 65.4238C75.7568 62.9525 76.3626 61.1833 70.738 61.8412C69.6508 61.9696 65.671 62.8081 65.0491 63.3457ZM62.0443 70.2381L59.1477 68.858C58.1768 68.3645 57.2902 67.7708 56.3354 67.2412C55.6774 67.8269 49.6195 71.5058 53.511 71.907C55.196 72.0795 60.9651 70.9682 62.0443 70.2381Z" fill="#019BD7"/>
</svg>
