<?xml version="1.0" encoding="UTF-8"?>
<svg xmlns="http://www.w3.org/2000/svg" version="1.1" viewBox="0 0 128 40.9">
  <defs>
    <style>
      .cls-1 {
        fill: #1a5aa9;
        fill-rule: evenodd;
      }
    </style>
  </defs>
  <!-- Generator: Adobe Illustrator 28.7.1, SVG Export Plug-In . SVG Version: 1.2.0 Build 142)  -->
  <g>
    <g id="_图层_1" data-name="图层_1">
      <path class="cls-1" d="M16.1,13.2c-1.4,2.2-2.1,4.7-2.1,7.2,0,2.7.8,5.1,2.1,7.2v-1.4c-.9-1.8-1.4-3.8-1.4-5.8,0-2.1.5-4.1,1.4-5.8v-1.4ZM16.6,27.2v1.2c-.2-.2-.4-.5-.5-.7v-1.4c.2.3.3.6.5.9ZM16.6,12.5v1.2c-.2.3-.4.6-.5.9v-1.4c.2-.3.3-.5.5-.7ZM16.8,27.5v1.2l-.2-.2v-1.2c0,0,.1.2.2.3h0ZM16.8,12.3v1.2c0,0-.1.2-.2.3v-1.2s.2-.2.2-.2ZM17.4,28.3v1.1c-.2-.2-.4-.5-.6-.7v-1.2c.2.3.4.6.6.8ZM17.4,11.5v1.1c-.2.3-.4.5-.6.8v-1.2c.2-.2.4-.5.6-.7ZM17.7,28.7v1c0-.1-.2-.2-.3-.3v-1.1c0,.1.2.2.3.3ZM17.7,11.2v1c0,.1-.2.2-.3.3v-1.1c0-.1.2-.2.3-.3ZM18.1,29.1v1c-.1-.1-.3-.2-.4-.4v-1c.1.1.2.3.4.4ZM18.1,10.9v1c-.1.1-.3.3-.4.4v-1c.1-.1.2-.3.4-.4ZM18.2,29.2v1s0,0-.1-.1v-1c0,0,0,.1.1.2ZM18.2,10.7v1s0,0-.1.2v-1h.1c0-.1,0-.1,0-.1ZM18.2,29.3v1h0v-1h0ZM18.2,10.7v1s0,0,0,0v-1s0,0,0,0ZM18.3,29.3v1s0,0,0,0v-1s0,0,0,0ZM18.3,10.7v1s0,0,0,0v-1s0,0,0,0ZM18.4,29.4v1h-.1v-1.1h.1c0,.1,0,.1,0,.1ZM18.4,10.6v1s0,0-.1.1v-1s.1-.1.1-.1ZM18.4,29.4v1h0v-1h0ZM18.4,10.5v1h0s0-.9,0-.9h0s0,0,0,0ZM19,30v.9c-.2-.2-.4-.3-.6-.5v-1c.2.2.4.4.6.6ZM19,10v.9c-.2.2-.4.4-.6.6v-1c.2-.2.4-.4.6-.5ZM20.7,31.2v.8c-.6-.3-1.1-.7-1.6-1.1v-.9c.5.4,1,.8,1.6,1.2ZM20.7,8.9v.8c-.6.4-1.1.8-1.6,1.2v-.9c.5-.4,1.1-.8,1.6-1.1ZM20.9,31.4v.8h-.2v-.9h.2ZM20.9,8.8v.8h-.2c0,.1,0-.7,0-.7h.2ZM21.7,31.8v.8c-.3-.1-.5-.3-.8-.4v-.8c.3.2.5.3.8.4ZM21.7,8.4v.8c-.3.1-.5.3-.8.4v-.8c.3-.1.5-.3.8-.4ZM21.8,31.8v.8h0v-.8s0,0,0,0ZM21.8,8.3v.8h0s0-.7,0-.7h0ZM23.2,32.4v.7c-.5-.2-1-.3-1.4-.6v-.8c.5.2.9.4,1.4.6ZM23.2,7.8v.7c-.5.2-1,.4-1.4.6v-.8c.5-.2.9-.4,1.4-.6ZM24.7,32.9v.7c-.5-.1-1-.2-1.5-.4v-.7c.5.2,1,.3,1.5.4h0ZM24.7,7.4v.7c-.5.1-1,.2-1.5.4v-.7c.5-.2,1-.3,1.5-.4h0ZM25.4,33v.7c-.3,0-.5,0-.7-.1v-.7c.2,0,.5,0,.7.1h0ZM25.4,7.2v.7c-.3,0-.5,0-.7.1v-.7c.2,0,.5,0,.7-.1ZM26.2,33.1v.7c-.2,0-.5,0-.7,0v-.7c.2,0,.5,0,.7,0ZM26.2,7.2v.7c-.2,0-.5,0-.7,0v-.7c.2,0,.5,0,.7,0ZM26.9,33.1v.7c-.2,0-.5,0-.7,0v-.7c.2,0,.5,0,.7,0h0ZM26.9,7.1v.7c-.2,0-.5,0-.7,0v-.7c.2,0,.5,0,.7,0ZM27.9,33.1v.7c-.3,0-.6,0-.9,0v-.7c.3,0,.6,0,.9,0h0ZM27.9,7.1v.7c-.3,0-.6,0-.9,0v-.7c.2,0,.3,0,.5,0s.3,0,.5,0h0ZM28.8,33.1v.7c-.3,0-.6,0-.9,0v-.7c.3,0,.6,0,.9,0ZM28.8,7.2v.7c-.3,0-.6,0-.9,0v-.7c.3,0,.6,0,.9,0ZM29.3,33v.7c-.2,0-.4,0-.6,0v-.7c.2,0,.4,0,.6,0h0ZM29.3,7.3v.7c-.2,0-.4,0-.6,0v-.7c.2,0,.4,0,.6,0ZM29.9,32.9v.7c-.2,0-.4,0-.5,0v-.7c.2,0,.4,0,.5,0ZM29.9,7.3v.7c-.2,0-.4,0-.5,0v-.7c.2,0,.4,0,.5,0ZM29.9,32.9v.7h0s0-.7,0-.7c0,0,0,0,0,0ZM29.9,7.4v.7s0,0,0,0v-.7s0,0,0,0ZM30.7,32.7v.7c-.3,0-.5.1-.8.2v-.7c.3,0,.5-.1.8-.2ZM30.7,7.5v.7c-.3,0-.5-.1-.8-.2v-.7c.3,0,.5.1.8.2h0ZM33.3,31.7v.8c-.8.4-1.7.7-2.6,1v-.7c.9-.2,1.8-.6,2.6-1ZM33.3,8.5v.8c-.8-.4-1.7-.8-2.6-1v-.7c.9.2,1.8.6,2.6,1ZM33.8,31.4v.8c-.2,0-.3.2-.5.2v-.8c.2,0,.3-.2.5-.3ZM33.8,8.7v.8c-.2,0-.3-.2-.5-.3v-.8c.2,0,.3.2.5.2h0ZM34.7,30.8v.8c-.3.2-.6.4-.9.5v-.8c.3-.2.6-.4.9-.6h0ZM34.7,9.3v.8c-.3-.2-.6-.4-.9-.6v-.8c.3.2.6.4.9.5h0ZM35.7,30v.9c-.3.3-.7.5-1,.7v-.8c.4-.2.7-.5,1-.8h0ZM35.7,10v.9c-.3-.3-.7-.5-1-.8v-.8c.3.2.7.5,1,.7h0ZM36,29.8v.9c0,0-.2.1-.3.2v-.9c0,0,.2-.2.3-.2ZM36,10.2v.9c0,0-.2-.2-.3-.2v-.9c0,0,.2.1.3.2ZM36.4,29.3v1c-.2.1-.3.3-.5.4v-.9c.2-.2.3-.3.5-.5h0ZM36.4,10.7v1c-.2-.2-.3-.3-.5-.5v-.9c.2.1.3.3.5.4h0ZM36.6,29.2v1h-.1c0,.1,0-.8,0-.8,0,0,0,0,.1-.1ZM36.6,10.8v1c0,0,0,0-.1-.2v-1s.1.1.1.1ZM36.9,28.8v1c-.1.1-.2.2-.3.3v-1c.1-.1.2-.3.3-.4ZM36.9,11.1v1c-.1-.1-.2-.3-.3-.4v-1c.1.1.2.2.3.3h0ZM37.7,27.9v1.1c-.2.3-.5.5-.7.8v-1c.3-.3.5-.6.7-.9h0ZM37.7,11.9v1.1c-.2-.3-.5-.6-.7-.9v-1c.2.3.5.5.7.8ZM37.7,29v-1.1c1.6-2.2,2.4-4.7,2.4-7.4,0-2.7-.8-5.2-2.4-7.4v-1.1c2,2.4,3.1,5.4,3.1,8.5,0,3.2-1.2,6.2-3.1,8.5h0Z"/>
      <path class="cls-1" d="M38.9,22.4h-.6c0,0-.8.2-.8.2v-.2s.6-.2.6-.2l-.5-.3v-.2s.8.5.8.5h.6c0,0,0,.3,0,.3ZM38.6,23.6l-1.1-.3v.3c0,0-.3,0-.3,0l.2-.8h.2c0,0,0,.4,0,.4l1.1.3s0,.2,0,.2ZM38.3,24.5l-1.3-.5v-.2c0,0,1.3.5,1.3.5v.2h0ZM37.4,25.5v-.2c.1,0,.2,0,.3,0,0,0,0,0,.1-.1,0,0,0-.1,0-.2,0,0,0,0,0,0,0,0,0,0,0,0,0,0,0,0,0,0,0,0,0,0-.1.1,0,0-.1.1-.2.2,0,0-.2,0-.3,0,0,0-.1,0-.2-.1,0,0,0-.1,0-.2,0,0,0-.1,0-.2,0-.1.1-.2.2-.2.1,0,.2,0,.3,0v.2c-.1,0-.2,0-.2,0,0,0,0,0,0,.1,0,0,0,0,0,.2,0,0,0,0,0,0,0,0,0,0,0,0,0,0,.1,0,.2-.1,0,0,.1-.1.2-.2,0,0,.1,0,.2,0,0,0,.1,0,.2,0,0,0,.1,0,.2.1,0,0,0,.1,0,.2,0,0,0,.2,0,.2,0,.1-.1.2-.2.2-.1,0-.3,0-.4,0ZM36.6,26.3h0c0-.2,0-.2,0-.3,0,0,0,0,0,0,0,0,0,0,0,0,0,0,0,0-.1,0,0,0,0,0,0,0,0,0,0,0,0,.1h0c0,.1.3.3.3.3h0ZM37.1,26.9l-1.2-.7.2-.4c0,0,0-.1.2-.2,0,0,.1,0,.2,0,0,0,.1,0,.2,0,0,0,.1.1.2.2,0,0,0,.2,0,.2,0,0,.1,0,.2,0,0,0,.1,0,.2,0h.3s-.1.2-.1.2h-.3c0,0-.2,0-.2,0,0,0,0,0,0,0,0,0,0,0,0,0h0s.5.3.5.3v.2q-.1,0-.1,0ZM36.3,28l-1.1-.8.5-.6h.2c0,.1-.3.6-.3.6l.2.2.3-.4h.2c0,.1-.3.6-.3.6l.3.2.4-.5h.2c0,.1-.5.8-.5.8h0ZM35.6,28.8l-1.2-.7.2-.2.9.5-.5-.9.2-.2.7,1.2s-.2.2-.2.2ZM34.8,29.5l-.9-1h.2c0-.1.9.9.9.9h-.2c0,.1,0,.1,0,.1ZM33.8,30.3l-.8-1.1h.2c0-.1.9.4.9.4l-.5-.7h.2c0-.1.8,1,.8,1h-.2c0,.1-.8-.4-.8-.4l.5.7h-.2c0,.1,0,.1,0,.1ZM31.8,29.8h.2c0,0,.3.5.3.5,0,.1,0,.2.1.2,0,0,0,0,.1,0,0,0,.1,0,.1,0,0,0,0,0,0-.1,0,0,0,0,0-.1,0,0,0-.1,0-.2l-.4-.7h.2c0,0,.3.5.3.5,0,.1.1.2.1.3,0,0,0,.1,0,.2,0,0,0,.1,0,.2,0,0,0,.1-.2.1,0,0-.1,0-.2,0,0,0-.1,0-.2,0,0,0,0,0-.1-.1,0,0-.1-.2-.2-.3,0,0-.3-.6-.3-.6ZM29.7,31.4v-.2s.4,0,.4,0v.5c0,0,0,.1,0,.2,0,0-.1,0-.2.1,0,0-.2,0-.3,0,0,0-.2-.1-.2-.2,0-.1-.1-.2-.1-.3,0-.1,0-.3,0-.4,0-.1,0-.2.1-.3,0,0,.1-.1.2-.1.1,0,.2,0,.3,0,0,0,.1.1.2.3h-.2s0,0-.1,0c0,0-.1,0-.2,0,0,0-.2,0-.2.2,0,0,0,.2,0,.3,0,.2,0,.3.2.3,0,0,.1,0,.2,0,0,0,0,0,.1,0,0,0,0,0,0-.1v-.2s-.3,0-.3,0h0ZM27.9,32.2v-1.3c-.1,0,.1,0,.1,0l.5.9v-.9c0,0,.1,0,.1,0v1.3c.1,0-.1,0-.1,0l-.5-.8v.9c0,0-.1,0-.1,0ZM26.5,31.5c0,.2,0,.3,0,.4,0,0,.1.1.2.1,0,0,.2,0,.2-.1,0,0,0-.2,0-.3,0-.2,0-.3,0-.3,0,0-.1-.1-.2-.1,0,0-.2,0-.2.1,0,0,0,.2,0,.3ZM26.3,31.5c0-.1,0-.3,0-.3,0,0,0-.1.1-.2,0,0,0,0,.1-.1,0,0,.1,0,.2,0,.1,0,.3,0,.4.2,0,.1.1.3.1.5,0,.2,0,.4-.2.5,0,.1-.2.2-.4.2-.1,0-.3,0-.4-.2,0-.1-.1-.3-.1-.5ZM25.3,32l.2-1.1h-.3c0,0,0-.3,0-.3h.8c0,.1,0,.4,0,.4h-.3c0,0-.2,1.1-.2,1.1,0,0-.2,0-.2,0ZM23.9,30.9c0,.1,0,.3,0,.4s0,.1.2.2c0,0,.2,0,.2,0,0,0,.1-.2.2-.3,0-.1,0-.3,0-.4,0,0,0-.1-.2-.2,0,0-.2,0-.2,0,0,0-.1.2-.2.3ZM23.7,30.9c0-.1,0-.2.1-.3,0,0,0-.1.1-.2,0,0,.1,0,.2,0,0,0,.2,0,.2,0,.1,0,.3.1.3.3,0,.1,0,.3,0,.5,0,.2-.2.4-.3.4-.1,0-.3.1-.4,0-.1,0-.3-.1-.3-.3,0-.1,0-.3,0-.5h0ZM22.9,30.7v-.5c0,0-.3.4-.3.4h.3c0,.1,0,.1,0,.1ZM23,31.3h-.2c0,0,0-.4,0-.4l-.4-.2-.2.2h-.2c0,0,.9-1.2.9-1.2h.2c0,0-.2,1.5-.2,1.5ZM21.6,30.6l.7-1.2h.2c0,.1-.7,1.3-.7,1.3h-.2c0-.1,0-.1,0-.1ZM21.7,29.1h.2c0,.1-.5.8-.5.8,0,0-.1.2-.2.2,0,0-.1,0-.2,0,0,0-.2,0-.2,0,0,0-.1-.1-.1-.2,0,0,0-.2.1-.3h.2c0,.1,0,.2,0,.2,0,0,0,0,0,.1,0,0,0,0,.1,0,0,0,.1,0,.1-.2,0,0,.5-.7.5-.7ZM19,27.9l.2-.2.3.3-.4.4c0,0-.2,0-.2,0,0,0-.2,0-.2-.1,0,0-.1-.2-.1-.3,0-.1,0-.2,0-.3,0-.1.1-.2.2-.3,0,0,.2-.2.3-.2.1,0,.2,0,.3,0,0,0,.1,0,.2.1,0,0,.1.2.1.3,0,.1,0,.2-.1.3h-.2c0-.2,0-.2,0-.3,0,0,0-.1,0-.2,0,0-.1-.1-.2,0,0,0-.2,0-.3.2-.1.1-.2.2-.2.3,0,0,0,.2,0,.2,0,0,0,0,.1,0,0,0,0,0,.1,0h.1c0-.1-.2-.3-.2-.3h0ZM17.4,26.6l1.1-.8v.2c.1,0-.4.9-.4.9l.7-.5v.2c.1,0-1,.8-1,.8v-.2c-.1,0,.4-.8.4-.8l-.7.5s-.1-.2-.1-.2ZM17.1,26l1.2-.7v.2c.1,0-1.1.7-1.1.7,0,0-.1-.2,0-.2ZM18,24.8v.2c0,0-.7.4-.7.4,0,0-.2,0-.2,0,0,0-.1,0-.2,0,0,0-.1,0-.2-.2,0,0,0-.2,0-.3,0,0,.1-.2.3-.2v.2c0,0,0,0,0,0,0,0,0,0,0,.1,0,0,0,0,0,0,0,0,.1,0,.2,0,0,0,.8-.4.8-.4ZM16.4,24.4l1.3-.5v.2c0,0-1.2.5-1.2.5v-.2ZM16,23.2l1.3-.4.2.7h-.2c0,0-.1-.5-.1-.5h-.3c0,0,.1.6.1.6h-.2c0,0-.1-.4-.1-.4h-.4c0,0,.2.7.2.7h-.2c0,0-.2-.7-.2-.7h0ZM16.9,21.9h-.3s0,.2,0,.2c0,0,0,.1,0,.2,0,0,0,0,0,0,0,0,0,0,.1,0,0,0,0,0,0,0,0,0,0,0,0,0,0,0,0,0,0-.2,0,0,0-.1,0-.1ZM16.4,21.9h-.4c0,0,0,.2,0,.2,0,0,0,0,0,.1,0,0,0,0,0,0,0,0,0,0,.1,0,0,0,0,0,0,0,0,0,0,0,0,0,0,0,0-.1,0-.2,0,0,0-.2,0-.2ZM17.1,21.6v.4c0,0,0,.1,0,.2,0,0,0,0,0,.1,0,0,0,0,0,0,0,0,0,0-.2,0,0,0-.1,0-.2,0,0,0,0,0-.1,0,0,0,0,.1,0,.2,0,0-.1,0-.2,0,0,0-.1,0-.2,0,0,0-.1,0-.1,0,0,0,0,0,0-.1,0,0,0-.2,0-.2v-.3c0,0,1.3-.2,1.3-.2h0ZM35.7,15.6v.4c0,0,0-.3,0-.3,0-.1,0-.2,0-.3h0s0,0,0,0c0,0,0,.2,0,.3,0,0,0,0,0,0ZM36,15.8v.2s0,0,0,0c0,0-.1,0-.2,0,0,0,0,0,0,0v-.4h0s0,.1,0,.1h0c0,0,0,.1,0,.1,0,0,0,0,0,0,0,0,0,0,0,0,0,0,0,0,0,0h0ZM36,15.1h0c0,.1,0,.1,0,.1,0,0,0-.1,0-.2,0,0,0,0,0,0,0,0,0,0,0,0h0ZM36,14.7h0c0,0,0,0,0,0,0,0,0,0,0,0h0ZM36.4,15.6h0s0,0,0,0h0s0,0,0,0ZM36.4,15.4h0c0,0-.2-.1-.3-.2,0,0-.1,0-.1,0,0,0,0,0,0,0h0c0,.2.2.2.3.2,0,0,.1,0,.1,0,0,0,0,0,0,0l-.3.2s0,0,0,0v.2h0s0,0,0,0c0,0,0,0,0,0h0c0,0,.1-.2.1-.2h0s0-.2.1-.2c0,0,0,0,0,0,0,0,0,0,0,0ZM36.4,15.1h0c0,0,0,0,0,0,0,0,0,0,0-.1,0,0,0,0,0,0h0ZM36.4,14.8c-.2,0-.4,0-.4-.1,0,0,0,0,0,0,0,0,.1,0,.2,0,0,0-.2,0-.2,0h0c0,.1,0,.1,0,.1,0,0,.2,0,.2,0,0,0,.2,0,.2,0,0,0,0,0,0,0ZM36.4,14.6h0s0,0-.1,0c0,0,0,0,0,0,0,0,0,0,.1,0ZM36.6,15.5v.2s0,0,0,0c0,0,0,0,0,0h0s0,0,0,0c0,0,0,0,0,0,0,0,0,0,0,0h0s0,0,.1,0ZM36.6,15.3h0s0,0-.1,0c0,0,0,0,0,0,0,0,0,0,.1,0ZM36.6,15.2h0s0,0-.1,0h0s0,0,0,0c0,0,0,0,0,0,0,0,0,0,0,0ZM36.6,14.8h0s0,0-.1,0h0c0,0,.1,0,.1,0ZM36.6,14.6h0s0,0,0,0c0,0,0,0-.1,0h0s0,0,.1,0h0ZM36.6,14.6h0s0,0,0,0ZM36.6,15.4c0,0,.2,0,.2,0,0,0,0,0,0,0,0,0,0,0,0,0,0,0,0,0,0,0,0,0,0,0,0,0,0,0,0,0,0,0,0,0,0,0,0,0h0s0,0,0,0c0,0,0,0,0,0,0,0,0,0,0,0,0,0,0,0,0,0ZM36.6,15.7v-.2s0,0,.1,0c0,0,0,0,0,0,0,0,0,0,0,.1,0,0,0,0,0,0,0,0,0,0,0,0,0,0,0,0-.1,0,0,0,0,0-.1,0,0,0,0,0,0,0h0s0,0,0,0ZM36.9,15.2h0s-.1,0-.1,0h0s0,0,0,0c0,0,0,0,0,0,0,0,0,0,0,0ZM36.9,15h0c0,0-.2,0-.2,0,0,0,0,0-.1,0h0s0,0,0,0c0,0,.1,0,.2,0,0,0,0,0,0,0ZM36.9,14.7h0c0,0-.2,0-.2,0h0s0,0,0,0c0,0,0,0,.2,0h0ZM36.9,14.1h0c0,.2,0,.3,0,.3,0,0,0,0-.1,0,0,0,0,0,0-.1h0c0,0,.1-.2.1-.3h0ZM36.9,14.2h0c0,0,0,0,0,0h0s0,0,0,0ZM37.7,14.6s0,0,0,0c0,0,0,0,0-.1,0,0,0,0,0,0,0,0,0,0,0,0,0,0,0,0,0,0,0,0,0,0,0,.1h0c0,0-.2.2-.2.1,0,0,0,0,0,0,0-.1.3-.5.2-.5,0,0,0,0,0,0,0,0-.1.3-.2.3,0,0,0,0,0,0,0,0,0,0,0,0h0c0,0,0,.1,0,.1,0,0,0,0,0,0,0,0,0,0,0,0,0,0,0,0-.1,0h0c0,0,0,0,.1,0,0,0,0,0,0,0,0,0,0,0,0,0,0,0,0,.1,0,.1,0,0,0,0,0,0h0s0,0,0,0c0,0,0,0,0,0,0,0,0,0,.1,0,0,0,0,0,0,0,0,0,.2.2.2.2,0,0,0,0,0,0,0,0-.3-.2-.3-.2,0,0-.1,0-.2-.1h0s0,0,0,0h0c0,0,0,0,0,.1h0c0,.2.2.3.3.3,0,0,0,0,.1,0,0,0,0,0,0-.1,0,0,0,0,0,0h0c0,0-.1-.2-.1-.2h0c0,0,0,0,0-.1,0,0,0,0,0,0,0,0,.2,0,.4,0h0c-.2,0-.5,0-.6,0,0,0,0-.2,0-.2,0,0,.4.2.4,0,0,0,0,0,0-.1h0c0,0,0,0,0,0,0,0,0,0-.1,0,0,0-.2,0-.3,0,0,0,0,0,0-.1,0,0,.3,0,.4,0,0,0,0,0,0-.1,0,0,0,0,0,0,0,0,0,0,0,0h0s0,0,0,0ZM37.7,14.5h0s0,0,0,0c0,0,0,0,0,0,0,0,0,0,0,0ZM37.7,14.5c0,0,.2,0,.2,0,0,0,0,0,.1,0,0,0,0,0,.1,0,0,0,0-.3,0-.4,0,0,0,0,0,0,0,0,0,0,0,.1,0,0-.3,0-.5,0h0ZM37.7,15.2c0,0,.1,0,.1,0,.2,0,.3,0,.4,0,0,0,0,0,0,0,0,0,0,0,0,0,0,0-.2-.2-.2-.2h0c0,0-.3-.2-.4-.3h0c0,0,0,.1,0,.1h0s0,0,0,0c0,0,.4.2.4.2h0c0,0,0,0,0,.1,0,0,0,0,0,0,0,0-.1,0-.1,0,0,0-.2,0-.4,0h0ZM33.3,12.4h0c-.2.2-.4.2-.6.2h0c.1,0,.3,0,.4-.1,0,0,0,0,.2,0h0ZM33.8,12.1v.2s0,0-.1,0c-.1,0-.2,0-.4.1h0c.1-.2.3-.3.5-.4h0ZM34.7,11.3v.3c0,0-.2.2-.2.2,0,0,0,0,0,0,0,0,.1,0,.2,0h0c0,.1,0,.1,0,.1,0,0,0,0,0,0,0,0,0,0-.1,0,0,0,0,0-.1,0,0,0-.4.3-.4.3,0,0,0,0,0,.1.2.3.2.4.4.5,0,0,0,0,.2,0,0,0,0,0,0,0,0,0,0,0,0,0-.3,0-.3,0-.3,0,0,0-.2-.2-.1-.3,0,0,0-.4-.2-.4,0,0,0,0-.1,0v-.2c.1,0,.2-.1.2-.2,0,0,0,0,0,0,0,0,0,0,0,0,0,0,0,0,0,0,0,0,0-.1,0-.2,0,0,0,0,0,0,0,0,.1.1.3.2h0c0,0,.4-.2.5-.4,0,0,0,0,0,0ZM34.7,11.6v-.3s0,0,0-.1c0,0,0,0,0,0,0,0,0,0,0,0,0,.1,0,.2,0,.3,0,0,0,.1-.2.2ZM34.7,12h0c0-.1,0-.1.1-.1,0,0,.1,0,0,.1,0,0-.1,0-.2,0h0ZM29.3,10.5c-.1,0-.3-.2-.4-.2,0,0,0,0,0,0h0c0,0,.2.2.3.2,0,0,0,0,.1,0h0ZM29.3,10.2v.2s0,0,0,0c0,0,0,0,0-.1,0,0,0,0,0,0,0,0,0,0,0,0,0,0,0,0,0,0,0,0,0,0,0,0ZM29.3,9.8v.2h0s0,0-.1,0c0,0,0-.1,0-.2,0,0,0,0,0,0,0,0,0,0,0,0,0,0,0,0,.1.2h0ZM29.3,10.1v-.2s0,0,0,.1c0,0,0,0,0,0,0,0,0,0,0,0ZM29.3,10.4v-.2c0,0,0,.1,0,.2,0,0,0,0,0,0,0,0,0,0,0,0ZM29.9,10.8v.2c0,0-.2-.2-.3-.2,0,0-.2-.2-.3-.2h0c0,0,.2,0,.2,0,0,0,.2.2.3.2ZM29.9,9.7h0c0,0,0,0,0,0,0,0,0,0,0,0v.2s0,0,0,0c0,0,0,0,0,0h0v.3s0,0,0,0h0s0,0,0,0c0,0,0-.2,0-.2,0,0-.1-.1-.1-.2,0,0,.1,0,.1-.2,0,0,0,0,0,0,0,0,0,0,0,0,0,0,0,0,0,0,0,0,0,.1,0,.2v.2s0,0,0,0c0,0,0-.2,0-.2,0,0,.2-.4.2-.4h0s0,0,0,0c0,0,0,0,0,0,0,0,0,0,0,0,0,0,0,0,0,0,0,0,0,0,0-.1h0ZM29.9,9v.2s0,0,0,0h-.1s0,0,0,0c0,0,.2,0,.3-.1ZM29.9,10.8v.2s0,0,0,0v-.2s0,0,0,0ZM29.9,9.8v.6s0,0,0,0v-.3s0,0,0,0c0,0,0,0,0,0h0v-.2s0,0,0,0c0,0,0,0,0,0ZM29.9,9.6h0c0,0,0,0,0,.1h0c0,0,0-.1,0-.1ZM29.9,9v.2s0,0,0,0v-.2s0,0,0,0ZM29.9,10.4v-.6s0,0,0,0c0,0,0,0,0,0,0,0,0,0,0,0h0c.1-.2.3-.3.4-.3,0,0,0,0,0,0h0s0,0,0,.1c0,0,0,0,0,0h0c0,0-.1.3-.1.3h0c0,0,0,.1,0,.2,0,0,0,.2,0,.2,0,0,0,0,0,.1,0,0,0,0,0,0,0,0,0,0,0,0,0,0,0,0-.1-.1h0s0,0,0,0c0,0,0,0,0,0,0,0,.1-.2.1-.3,0-.1,0-.2,0-.2,0,0,.1-.3.1-.3,0,0,0,0,0,0,0,0-.3,0-.3.1,0,0,0,0,0,.1,0,0,0,0,0,0,0,0,.1,0,.1.2,0,0-.1.1-.2.2v.2s0,0,0,0h0ZM29.9,11v-.2s0,0,0,0h0s.2,0,.2,0c0,0,.2,0,.2,0h0s0,0,0,0c-.2,0-.5.2-.5.2,0,0,0,0-.1,0h0ZM30.7,8.7v.2c-.1,0-.3.2-.3.2,0,0,.1.1,0,.1,0,0-.2,0-.2,0,0,0-.1,0-.2,0h0c0,0,.2,0,.2-.2,0,0,0,0,0,0,0,0,.2-.2.2-.2,0,0,0,0,0,0-.2,0-.3.2-.4.3,0,0-.1,0-.2.1v-.2h0c.2-.1.4-.2.6-.2,0,0,0,0,.1,0,0,0,0,0,0,0ZM30.7,8.9s0,0,0,0c0,0,0,0,0,0v.2ZM25.4,9.7s0,0,0,0c0,0,0,.3,0,.3,0,0-.2-.2-.3-.2,0,0,0,0,0,0,0,0,.3.2.3.3,0,0,0,0,0,.1,0,.1,0,.2-.2.3,0,0-.1.1-.2.2,0,0-.1,0-.2.1,0,0,0,0,0,0,0,0,0,0,0,0,.5-.3.5-.6.6-.6,0,0,0,0,0,0,0,0,0-.5,0-.5ZM25.4,9.3h0c0,0,0,.2-.1.3,0,0-.2,0-.3.1,0,0-.2.1-.2.1,0,0,0,0,0,0,0,0,.1-.2.2-.2,0,0,.1-.2.2-.2,0,0,0,0,0,0,0,0,0,0,0,0,0,0,0,0,0,0,0,0,.2,0,.2-.1ZM25.4,9s0,0,0,0h0s0,0,0,0h0s0,0,0,0ZM25.4,8.8h0c0,.1,0,.1-.1.2,0,0,0,0-.1,0,0,0-.1,0-.2.1h0s0,0,0,0c0,0,.2-.2.2-.3,0-.1-.2-.1-.2-.2,0,0,0,0,0,0,0,0,.3,0,.4,0,.1,0,0,.1.1.2h0ZM25.4,9.1h0s0,0,0-.1c0,0,0,0,0,0h0s0,0,0,0c0,0,0,0,0,0,0,0,0,0,0,0h0s0,0,.1,0c0,0,.2,0,.2,0,0,0-.1,0-.1,0h0s0,0,0,0c0,0-.2,0-.2.1h0ZM25.4,9.3h0s0,0,0,0c0,0,0,0,0,0,0,0,.2,0,.3.1,0,0,0,0,0,0,0,0-.1,0-.1,0,0,0,0,0,0,0h0s0,0,0,0c0,0,0-.1,0-.1,0,0,0,0,0,0,0,0,0,0,0,0ZM26.2,10.6h0c0,.2-.1.2-.1.2-.2,0-.2,0-.4-.2,0,0,0-.3-.2-.3v-.5s.2,0,.2.1h0c0,.2-.1.3-.1.3,0,0,.4.3.5.3,0,0,.1,0,.2,0ZM26.2,10.7h0c0-.1,0-.1.1,0,0,0,.1,0,.2,0,0,0,0,0,0,0h0s-.1,0-.2,0h0s0,0,0,0ZM20.7,11.4h0c0,0,0,0,0,0,0,0,0,0,0,0h0s0,0,0,0c0,0,0,0,0,0h0ZM20.7,10.5c0,0,0,0,0,0,0,0,0,0,0,0,0,0,0,0-.1,0h0s0,0,0,0c0,0,0,0,0,0,0,0,0,0,0,0,0,0,.1,0,.2,0h0s0-.2,0-.2ZM20.9,11.2h0c0,.2,0,.2,0,.2,0,0,0,0-.1,0,0,0,0,0,0,0,0,0,0,0,0,0h0c0,0,0,0,0-.1,0,0,0,0,0,0,0,0,0,0,0,0,0,0,0,0,0,0ZM20.9,10.5v.3s0,0,0,0c0,0,0,.1,0,.1,0,0,0,0,0,0,0,0,0,0,0,0,0,0,0,0,0-.1,0,0,0,0,0,0,0,0,0,0,0,0,0,0,0,0,0,0v-.2h0s0,0,0,0c0,0,0,0,0,0,0,0,0,0,0,0ZM20.9,10.8s0,0,0,0c0,0,0,0,0,0,0,0,0,0,0,0,0,0,0,0,0,0,0,0,0,0,0,0,0,0,0,0-.1,0v.3ZM20.9,11.3h0c0-.1,0-.2,0-.2,0,0,0,0,0,0,0,0,0,0,0,0,0,0,0,0,0,0,0,0,0-.1,0-.1h0c0,0,0-.1,0-.1,0,0,0,0,0,0,0,0,.1,0,.1,0,0,0,0,0,0,0,0,0,0,0,0,0,0,0,0,0,0,0,0,0,0,0,0,0,0,0,0,0,0,0,0,0,0,0,0,.1h0c0,0,0,.1-.1.2,0,0,0,0,0,0h0ZM21.7,11.9s0,0,0,0c0,0,0,0,0,0,0,0,0,0,0,0,0,0,0,0,0,0,0,0,0,0,0,0,0,0,0,0,0,0,0,0,0,0,0,0,0,0,0,0,0,0,0,0,0,0,0,0,0,0,0,0,0,0,0,0,0,0,0,0,0,0,0,0,0,0,0,0,0,0-.1,0,0,0,0,0,0,0,0,0,0,0,0,0,0,0,0,0,0,0h0s0,0,0,0c0,0,0,0,0,0h0c0,0,0-.1,0-.1,0,0,0,0,0-.2,0,0,0,0,0-.1,0,0,0,0,0,0,0,0,0,0,0,0,0,0-.2,0-.2,0h0s0,0,0,0c0,0,0,0,0,.1,0,0,0,0,0,0,0,0,0,0,0,.1,0,0,0,0,0,0,0,0,0,0,0,0,0,0,0,0,0,0h0s0,0,0,0h0s0,0,0,0c0,0,0,0,0,0,0,0,0,0,0,0,0,0,0,0,0,.1,0,0,.1.1.2.1,0,0,0,0,0,0,0,0,0,0,0,0,0,0,0,0,0,0,0,0,0,0,0,0,0,0,0,0,0-.2,0,0,0,0,0,0,0,0,0,0,0,0,0,0,0,0,0,0,0,0,0,.1,0,.1,0,0,0,0,0,0,0,0,0,0,0,0,0,0,0,0,0,0,0,0,0,0,0,0,0,0,0,0,0,0,0,0,0,0,0,0,0,0,0,0,0,.1,0,0,0,0,0,.1,0,0,0,0,0,0h0c0,0,0,0,0,0,0,0,0,0,.1,0,0,0,0,0,0,0,0,0,0,0,0,0,0,0,0,0,0,0,0,0,0,0,0-.1,0,0,0,0,0,0,0,0,0,0,0,0h0c0-.2,0-.2,0-.2,0,0,0,.1,0,.1,0,0,0,0,0,0,0,0,.1,0,.1,0h0s0,0,0,0c0,0,0-.3,0-.3ZM21.7,11.6h0c0,.1,0,0,0,0,0,0,0,0,0,0,0,0,0,0,0,0,0,0,0,0,0,0h0ZM21.7,12.2v-.3h0c0,0,0,.1,0,.2,0,0,0,0,0,0,0,0,0,0,0,0ZM21.8,11.5v.2h0s0,0,0,0c0,0,0,0,0,0h0c0-.1,0-.1,0-.1ZM21.8,11.7v-.2s0,0,0,0c0,0,0,0,0,0,0,0,0,0,.1,0,0,0,0,0,0,0h0c0,0,0,0,0,.1,0,0,0,0,0,0,0,0,0,0,0,0,0,0,0,0,0,0,0,0,0,0,0,0,0,0,0,0,0,0ZM16.6,14.4s0,0,0,0c0,0,0,0,0,0h0s0,0,0,0c0,0,0,0,0,0,0,0,0,0,0,0,0,0,0,0,0,0,0,0,0,0,0,0h0s0,0,0,0h0s0,0,0,0h0ZM16.8,14.3h0c0,.1-.1.2-.2.2,0,0,0,0,0,0h0s0,0,0,0h0c0,0,.1-.1.1-.1,0,0,0,0,0,0ZM17.4,15.8h0c0,0,0,0,0,0,0,0,0,0,0,0,0,0,0,0,0,0ZM17.4,14.4h0s0,0,0,0h0v.4s0,0,0,0l-.2-.2c0,0-.2-.1-.3,0h0c0-.1,0-.2,0-.2.1-.2.4,0,.5,0,0,0,0,0,0,0h0ZM17.7,15.5v.3c0,0-.2,0-.3,0h0c0,0,.1-.1.1-.1,0,0,0,0,.1-.2,0,0,0,0,0,0ZM17.7,14.9v.2h-.1c0-.1,0-.2,0-.2h0c0,0,0,0,0-.1v-.4s0,0,0,0h0c0,0,0,.2.1.3,0,0,0,.1.2.2ZM17.7,13.8v.2c0,0-.1-.2-.1-.2,0,0,0,0,.1,0ZM17.7,15.8v-.3c0,0,.2,0,.3,0,0,0,0,.5,0,.6,0,0,0,0,0,0,0,0,0,0,0-.2,0,0,0,0,0,0,0,0,0,0-.1-.1,0,0,0,0-.1,0,0,0,0,0,0,0ZM18.1,16.5h0s0,0,0,0h0ZM18.1,15.3v.2s0,0-.1-.1l-.3-.2h0c0,0,0,0,.1,0l.3.2ZM18.1,14v.4l-.3-.3s0,0,0-.1v-.2c.1,0,.2,0,.3,0h.1c0,.1,0,.1,0,.1ZM18.2,16.5v.2s0,0,0,0c0,0,0,0,0,0h0c0,0,0,0,.1,0,0,0,0,0,0,0ZM18.2,15.4v.2s0,0,0-.1h0q0,0,0,0v-.2h0s0,0,.1,0ZM18.2,14.8h0s0,0,0,0c0,0,0,0,0,0,0,0,0,0,0,0h0ZM18.2,14.7h0c0,.1,0,.1,0,.1h0s0,0,0,0c0,0,0,0,0,0h0s0,0,0,0c0,0,0,0,0-.1ZM18.2,13.9h0c0,0,0,0,0,0,0,0,0,0,0,0,0,0,0,0,0,0v.4s0,0,0,0c0,0,0,0,0,0h0v-.5s0,0,.1,0ZM18.2,14.8s0,0,0,0c0,0,0,0,0,0,0,0,0,0,0,0,0,0,0,0,0,0ZM18.2,16.5v.3s0,0,0,0v-.2s0,0,0,0ZM18.2,15.4v.3s0,0,0,0v-.2s0,0,0,0ZM18.2,14.6s0,0,0,0h0c0,.1,0,.1,0,0,0,0,0,0,0,0,0,0,0,0,0,0h0s0,0,0,0c0,0,0,0,0,0,0,0,0-.2,0-.2ZM18.2,14.6h0s0,0,0,0c0,0,0,0,0,0ZM18.2,14.1v.4h0s0,0,0,0v-.4s0,0,0,0ZM18.2,13.9h0c0,0,0,0,0,0h0c0,0,0,0,0,0ZM18.2,14.6s0,0,0,0h0ZM18.3,16.4v.3h0v-.3s0,0,0,0h0ZM18.3,15.4v.9s0,0,0-.1c0-.1,0-.3,0-.5v-.3h0s0,0,0,0ZM18.3,14.1v.6s0,0,0,0v-.2s0,0,0,0v-.4h0ZM18.3,13.9h0c0,0,0,0,0,0h0c0,0,0,0,0,0ZM18.4,15.5v.3s0,0,0,0c0,0,0,0,0,.1,0,0,0,.1,0,.2v.7s0,0-.1,0v-.3s0,0,0,0v-.9c0,0,.1,0,.1,0ZM18.4,13.8v.8s0,0,0,0c0,0,0,0,0,0v-.6h0c0,0,0,0,0,0,0,0,0,0,0,0,0,0,0,0,0,0h0c0,0,0-.1.1-.1ZM18.4,16.3v.4s0,0,0,0v-.7c0,0,0,.2,0,.3ZM18.4,15.5v.3h0s0,0,0,0v-.3h0s0,0,0,0ZM18.4,13.8v.9s0,0,0,0v-.8s0,0,0,0h0ZM18.4,14.7v-.9s0,0,0,0c0,0,0,.4,0,.4,0,0,0,.1,0,.2,0,0,0,0,0,0h0c0,.1,0,.6,0,.6,0,0-.2-.4-.3-.4,0,0,0,0,0,0ZM18.4,15.8v-.3s.1,0,.1,0c0,0,0,.1,0,.2,0,0-.1,0-.2,0ZM18.4,16.7v-.4s0,0,0,0c0,0,.1.2,0,.3,0,0,0,0,0,0ZM19,14.7v.3s0,0,0,0c0,0,0,0,0,.1,0,0,0,0-.1,0,0,0,0,0,0,0,0,0,0,0,0,0,0,0,0-.1,0-.2,0,0,0,0,0-.1,0,0,0,0,0,0,0,0,0,0,0,0h0s0,0,0,0ZM19,15.1s0,0,0,0c0,0,.1.3.1.3,0,0,0,0,0,0h0c0-.1,0-.4,0-.4h0c0-.1,0-.2,0-.3,0,0-.2,0-.2,0,0,0,0,0,0,0v.3h0ZM18.1,20.7v.4c0-.1,0-.3,0-.4h0ZM18.1,19.9v.4h0c0-.1,0-.3,0-.4h0s0,0,0,0ZM18.2,21.5v.4h0c0-.1,0-.3,0-.4h.1ZM18.2,20.7v.4h-.1s0,0,0,0v-.4s.1,0,.1,0ZM18.2,19.9v.4h-.1v-.4s.1,0,.1,0ZM18.2,19.1v.4h-.1c0-.1,0-.3,0-.4h0ZM18.2,21.5v.4h0s0-.4,0-.4c0,0,0,0,0,0ZM18.2,20.7v.4h0s0-.4,0-.4h0ZM18.2,19.9v.4h0v-.4h0ZM18.2,19.1v.4h0v-.4h0ZM18.2,18.6h0c0,0,0,0,0,0h0ZM18.3,22.3h0c0,0,0,0,0,0h0ZM18.3,21.5v.4h0s0-.4,0-.4c0,0,0,0,0,0ZM18.3,20.7v.4h0s0-.4,0-.4h0ZM18.3,19.9v.4h0v-.4h0ZM18.3,19.1v.4h0v-.4h0ZM18.3,18.5v.2h0c0-.1,0-.1,0-.2ZM18.4,22.3v.4h0c0-.1,0-.2,0-.3h0c0,0,.1,0,.1,0h0ZM18.4,21.5v.4h-.1s0-.4,0-.4h.1ZM18.4,20.7v.4h-.1s0-.4,0-.4h.1ZM18.4,19.9v.4h-.1v-.4h.1ZM18.4,19.1v.4h-.1v-.4s.1,0,.1,0ZM18.4,18.3v.4h-.1v-.2c0,0,0-.2,0-.2h0ZM18.4,22.3v.4h0s0-.4,0-.4h0ZM18.4,21.5v.4h0s0-.4,0-.4h0ZM18.4,19.6v1.6-.2s0,0,0,0v-.4h0v-.4h0v-.4h0s0-.3,0-.3h0ZM18.4,19.1v.4h0v-.4h0ZM18.4,18.3v.4h0v-.4s0,0,0,0ZM18.4,17.9h0s0,0,0,0h0s0,0,0,0ZM19,24.6h0s0,0,0,0h0ZM19,16.8v1.8c-.3,1.2-.3,2.4,0,3.6v1.9h-.2c0,0-.1-.2-.2-.3h.3c0-.1-.1-.5-.1-.5h-.3s0-.1-.1-.3h.3c0,0-.1-.5-.1-.5h-.2c0,0,0-.3,0-.3h.1s0-.4,0-.4h0s0-.4,0-.4h0s0-.2,0-.2v-1.6h0c0-.1,0-.1,0-.1v-.4h0s0-.4,0-.4h-.1v-.4h.2c0,0,.1-.3.1-.3h-.3c0-.2,0-.4.1-.5h.3c0,.1.1-.3.1-.3h-.3c0-.2.1-.4.2-.5h.2c0,.1,0,.1,0,.1ZM19,16.3h0c0,.1,0,.1,0,.1,0,0,0,0,0-.1h0ZM20.7,25.7v1.2c0,0-.2-.2-.3-.3l.2-.2-.3-.3-.3.2c0-.1-.2-.2-.3-.3l.3-.2-.2-.3-.3.2c0-.1-.2-.2-.2-.3l.3-.2-.2-.3-.3.2c0-.1-.1-.2-.2-.3h0s.3-.2.3-.2l-.2-.4h-.1c0,0,0-1.8,0-1.8.3,1.3.8,2.4,1.6,3.4h0ZM20.7,14.1v1.1c-.8,1-1.4,2.2-1.6,3.4v-1.8h0s.2-.3.2-.3h-.2v-.3c0,0,0-.2.1-.3l.3.2.2-.3-.3-.2c0-.1.1-.2.2-.3l.3.2.2-.3-.3-.2c0-.1.2-.2.3-.3l.2.2.3-.3-.2-.2c0-.1.2-.2.3-.3h0c0,0,0,0,0,0ZM20.9,25.9v.7l-.2.2h0v-1.2c0,0,.1.2.2.3ZM20.9,14.2v.7c0,0-.1.2-.2.3v-1.1l.2.2h0ZM20.9,13.8h0s0,0,0,0c0,0,0,0,0,0ZM21.7,27.6v.2s0,0,0,0h0ZM21.7,26.7v.6l-.2-.2-.2.3c-.1,0-.2-.2-.3-.3l.2-.2-.3-.3h0s0-.7,0-.7c.2.3.5.5.8.8ZM21.7,13.5v.6c-.3.2-.5.5-.8.8v-.7l.2-.2-.2-.2h0c0-.1.2-.2.3-.3l.2.2.3-.2h0ZM21.7,13.1v.3l-.2-.2c0,0,.1,0,.2-.1h0ZM21.8,27.5v.4h0v-.3h0ZM21.8,26.8v.6h0v-.7h0ZM21.8,13v1h0c0,0,0-.5,0-.5h0s0,0,0,0v-.3s0,0,0,0ZM23.2,27.8v.9c0,0-.2,0-.3-.1l.2-.3-.3-.2-.2.3c-.1,0-.2-.1-.3-.2l.2-.3-.3-.2-.2.3s0,0-.1,0v-.4h0s0,0,0,0v-.6c.4.4.9.7,1.4,1h0ZM23.2,12.1v.9c-.5.3-1,.6-1.4,1v-1s0,0,0,0l.2.3.3-.2-.2-.3c.1,0,.2-.2.3-.2l.2.3.3-.2-.2-.3c.1,0,.2-.1.4-.2h0ZM24.7,28.5v.8c0,0-.2,0-.3,0v-.3c.1,0-.3-.1-.3-.1v.3c-.2,0-.4,0-.5-.2v-.3c.1,0-.2-.2-.2-.2v.3c-.1,0-.2,0-.2,0v-.9c.5.3,1,.5,1.5.7ZM24.7,11.5v.8c-.5.2-1,.4-1.5.7v-.9.3c.1,0,.5-.2.5-.2v-.3c0,0,.1-.1.2-.2v.3c.1,0,.5-.1.5-.1v-.3s.1,0,.3-.1ZM25.4,28.7v.8c0,0-.2,0-.3,0v-.3c0,0-.3-.1-.3-.1v.3c-.1,0-.2,0-.2,0v-.8c.2,0,.5.2.7.2ZM25.4,11.4v.8c-.3,0-.5.1-.7.2v-.8s0,0,0,0v.3c0,0,.5-.1.5-.1v-.3s.2,0,.3,0ZM26.2,28.8v.8c0,0-.1,0-.2,0v-.3c0,0-.3,0-.3,0v.3c0,0-.2,0-.2,0v-.8c.2,0,.5,0,.7.1ZM26.2,11.2v.8c-.2,0-.5,0-.7.1v-.8h0s0,.3,0,.3h.4c0,0,0-.4,0-.4.1,0,.2,0,.3,0ZM26.9,28.9v.8s0,0-.1,0v-.3s-.4,0-.4,0v.3c0,0-.2,0-.2,0v-.8c.2,0,.5,0,.7,0ZM26.9,11.2v.8c-.2,0-.5,0-.7,0v-.8h.1s0,.3,0,.3h.4s0-.4,0-.4c0,0,.2,0,.2,0ZM27.9,28.9v.8h-.3s0-.3,0-.3h-.4v.3c0,0-.2,0-.3,0v-.8c.3,0,.6,0,.9,0ZM27.9,11.2v.8c-.3,0-.6,0-.9,0v-.8c0,0,.1,0,.2,0v.3h.4v-.3c.1,0,.3,0,.4,0ZM28.8,28.8v.5h0s0,.2,0,.2h0c-.1.1-.3.2-.4.2v-.3s-.4,0-.4,0v.3s0,0-.1,0v-.8c.3,0,.6,0,.9-.1ZM28.8,11.6v.5c-.3,0-.6,0-.9-.1v-.8h0s0,.3,0,.3h.4s0-.3,0-.3c.1,0,.3,0,.4,0v.3c0,0,0,0,0,0ZM28.8,29.6s0,0,0,0h0c0-.1,0,0,0,0ZM29.3,28.7v.8c0,0-.1,0-.2,0v-.3c0,0-.4,0-.4,0v-.5c.2,0,.4,0,.6-.1h0ZM29.3,11.4v.8c-.2,0-.4,0-.6-.1v-.5h.3s0-.3,0-.3c0,0,.2,0,.3,0h0ZM29.9,28.5v.5h-.4c0,.1,0,.4,0,.4,0,0-.2,0-.2,0v-.8c.2,0,.4,0,.5-.2h0ZM29.9,11.5v.8c-.2,0-.4-.1-.5-.2v-.8s0,0,.1,0v.3c0,0,.3.1.3.1v-.3c0,0,0,0,0,0ZM29.9,28.5v.6h0c0-.1,0-.1,0-.1v-.5s0,0,0,0ZM29.9,11.5v.8s0,0,0,0v-.8s0,0,0,0ZM30.7,28.2v.8-.3c0,0-.5.1-.5.1v.3s-.1,0-.3.1v-.2c0,0,0-.6,0-.6.3,0,.5-.2.8-.3ZM30.7,11.8v.9c-.3-.1-.5-.2-.8-.3v-.8c.1,0,.2,0,.4.1v.3c-.1,0,.3.1.3.1v-.3c.1,0,.2,0,.2,0ZM33.3,26.4v.8h0c0,0-.3.2-.3.2l.2.3c-.1,0-.2.2-.3.3l-.2-.3-.3.2.2.3c-.1,0-.2.2-.3.2l-.2-.3-.3.2.2.3c-.1,0-.2.1-.4.2v-.3c-.1,0-.5.2-.5.2v.3c0,0-.1.1-.2.2h0v-.9c1-.4,1.9-1,2.6-1.8ZM33.3,13.5v.2c-.1,0-.4-.3-.4-.3l.2-.2c-.1,0-.2-.2-.3-.2l-.2.3-.3-.2.2-.3c-.1,0-.2-.1-.3-.2l-.2.3-.3-.2.2-.3c-.1,0-.2-.1-.4-.2v.3c-.1,0-.5-.2-.5-.2v-.3s0,0-.2-.1v.9c1,.4,1.9,1,2.6,1.8,0,0,0-.9,0-.9ZM33.8,25.9v.7l-.2.2.2.2c0,0-.2.2-.3.3l-.2-.2v-.8c.2-.2.3-.3.5-.5ZM33.8,14.2v.7c-.1-.2-.3-.3-.5-.5v-.9h0c.1,0,.2,0,.3.2l-.2.2.3.3h0s0,0,0,0ZM34.7,24.6v1c-.1,0,0,0,0,0v.3h-.1c0,.1-.3,0-.3,0l-.3.3.3.2c0,.1-.2.2-.3.3l-.2-.2h0s0-.6,0-.6c.3-.4.7-.8.9-1.3ZM34.7,14.8v.2h-.2c0,.1.2.4.2.4v.9c-.3-.5-.6-.9-.9-1.3v-.7l.2-.2c0,0,.2.2.3.3l-.2.2.3.3.3-.2c0,0,.1.1.2.2h0ZM34.7,15v-.2h0c0,.1,0,.2,0,.2ZM34.7,26.1v-.3h.1c0,.2,0,.2-.1.3ZM35.7,21.8v1.8h0c0,0,0,0,0,0v.4h-.2c0,0-.2.3-.2.3h.3c0,.3-.1.4-.2.5l-.3-.2-.2.3.3.2c0,.1-.1.2-.2.3l-.3-.2h-.1c0,.1,0-.7,0-.7.5-.9.8-1.8,1-2.9h0ZM35.7,16.7h-.2c0,0-.2-.3-.2-.3h.3c0-.3-.1-.4-.2-.5l-.3.2-.2-.3.3-.2c0-.1-.1-.2-.2-.3l-.3.2h0c0,0,0,.8,0,.8.5.9.8,1.8,1,2.9v-2c0,0,0,0,0,0v-.4h0ZM35.7,17.1v-.4h0c0,0,.1.2.2.3h-.2ZM36,23.7h0c0,.2,0,.3-.1.4h-.1v-.5h.3c0,0,0,0,0,0ZM36,17.4v.4h0s0,.3,0,.3v4.6h0c0,.1,0,.2,0,.2v.4h-.2c0,0-.1.2-.1.2v-1.8c.1-.9.1-1.8,0-2.7v-1.8.2c0,0,.3,0,.3,0h0ZM36,17.9v-.4h.1c0,0,0,.2.1.3h-.3c0,0,0,0,0,0ZM36,23.3v-.4h.3c0,.2,0,.3-.1.5h-.2c0,0,0,0,0,0ZM36,23.8h0c0,0,0,0,0,0h0c0,0,0,0,0,0ZM36.4,19v.4h-.2s0,.4,0,.4h.2s0,.4,0,.4h-.2s0,.4,0,.4h.2v.4h-.2s0,.4,0,.4h.2v.4h-.3s0,.3,0,.3h.3c0,.2,0,.3,0,.5h-.3c0,0,0,.2,0,.2v-4.6h0c0,.1.3,0,.3,0,0,.1,0,.3,0,.4h-.3c0,0,0,.4,0,.4,0,0,.3,0,.3,0ZM36.4,19.4v-.4h0c0,.1,0,.3,0,.4h0s0,0,0,0ZM36.4,21.8v-.4h.1c0,.1,0,.3,0,.4h0ZM36.6,20.6v.3s0,0,0,0h-.1v-.4h.1ZM36.6,20v.2h-.1v-.4h.1s0,.2,0,.2ZM36.6,20.2v-.2c0,0,0,.1,0,.2h0ZM36.6,20.9v-.3h0c0,.1,0,.2,0,.3ZM28.4,27.7c0,0,0,.1,0,.1,0,0,0,0,0,0s0,0,0,0c0,0,0,0,0-.1s0-.1,0-.1c0,0,0,0,0,0,0,0,0,0,0,0,0,0,0,0,0,.1ZM28.8,27.3h-.2s0,0,0,0c0,0,0,0,0,0,0,0,0,0,0,0,0,0,0,.1,0,.2,0,0,.1,0,.2,0,0,0,.1,0,.2,0,0,0,0,.1,0,.2,0,0,0,.2,0,.2,0,0-.1,0-.2,0,0,0-.2,0-.2-.1,0,0,0-.2,0-.4s0-.3,0-.4c0,0,.2-.1.2-.1,0,0,.1,0,.2,0,0,0,0,0,0,.2h0ZM27.6,27.4s0,0,0-.1c0,0,0,0,0,0,0,0,0,0,0,0,0,0,0,0,0,.1s0,.1,0,.1c0,0,0,0,0,0,0,0,0,0,0,0,0,0,0,0,0-.1ZM27.2,27.8h.2s0,0,0,0c0,0,0,0,0,0,0,0,0,0,0,0,0,0,0-.1,0-.2,0,0-.1,0-.2,0,0,0-.1,0-.2,0,0,0,0-.1,0-.2,0,0,0-.2,0-.2,0,0,.1,0,.2,0,0,0,.2,0,.2.1s0,.2,0,.4,0,.3,0,.4c0,0-.2.1-.2.1,0,0-.1,0-.2,0,0,0,0-.1,0-.2h0ZM26.4,27.3s0,0,0,0,0,0,0,0c0,0,0,0,0,0,0,0,0,0,0,0s0,0,0,0c0,0,0,0,0,0,0,0,0,0,0,0,0,0,0,0,0,0h0ZM26.4,27.7c0,0,0,0,0,.1,0,0,0,0,0,0,0,0,0,0,0,0,0,0,0,0,0-.1,0,0,0,0,0-.1,0,0,0,0,0,0,0,0,0,0,0,0,0,0,0,0,0,0ZM26.4,27.5s0,0-.1,0c0,0,0,0,0-.1,0,0,0-.1,0-.2,0,0,.1,0,.2,0s.2,0,.2,0c0,0,0,.1,0,.2,0,0,0,.2-.1.2,0,0,0,0,.1,0,0,0,0,0,0,.1,0,0,0,.2,0,.2,0,0-.1,0-.2,0,0,0-.2,0-.2,0,0,0-.1-.1-.1-.2,0-.1,0-.2.2-.2h0ZM25.7,28h-.2v-.7c0,0-.1.1-.2.1v-.2c0,0,.1,0,.2,0,0,0,0,0,.1-.1h.1v.9ZM33.8,24.5v-1.7h.2v-.8h-.2c0-.1,0-.1,0-.1v-1.2h.2v-.8h-.2c0-.1,0-.1,0-.1v-1.2h.3v.6s0,0-.1,0v.2l.3.2v1.4s-.3.1-.3.1v.4l.3.2v1.4s-.3.1-.3.1v1.4h-.1Z"/>
      <path class="cls-1" d="M33.8,18.5v1.2h-.2v.8h.2v1.3h-.2v.8h.2v1.8h-.2v-1.4h-.3v-1.5l.3-.2v-.5h-.3v-1.5l.3-.2v-.2c-.1,0-.2,0-.3,0v-.7h.5ZM33.3,18.5v.7c-.7.2-1.5.4-2.1.8v-1.5h2.1ZM30.7,20.2v-2h.2v1.8h-.2ZM30.7,18v-1.9l.6,1.4-.5.5h-.1ZM30.7,16.1v1.9h-.8s0-3.6,0-3.6l.8,1.7ZM30.7,18.3v2c0,0-.2,0-.2.2v-2.1h.2ZM29.9,20.8v-2.5h.2v2.4l-.2.2h0ZM29.9,14.4v3.6h0v-3.7h0ZM29.9,18.3v2.5s0,0,0,0v-2.6s0,0,0,0ZM29.9,14.3v3.7h0s-.5-1.1-.5-1.1v-2.8h.3c0-.1.2.3.2.3h0ZM29.9,18.3v2.6c-.2.2-.4.3-.5.4v-3h.5,0ZM29.3,24.4v-.9l.3.4v.5h-.3Z"/>
      <path class="cls-1" d="M29.3,14v2.8l-.5-1.1v-1.5s.5-.2.5-.2ZM29.3,18.3v3c-.1.1-.3.3-.4.4h-.2v-3.4h.6ZM29.3,23.4v.9h-.6v-1.3h.3s.3.4.3.4ZM28.8,22.7h.2v-.6h-.2v.6ZM27.9,21.7h.9v-3.4h-.9v3.4ZM27.9,22.7h.9v-.6h-.9v.6ZM27.9,24.4h.9v-1.3h-.9v1.3ZM27.9,18h.8v-4.6h-.8v4.6ZM27.9,18h0v-4.6h0v4.6ZM26.9,21.7h.9v-3.4h-.9v3.4ZM26.9,22.7h.9v-.6h-.9v.6ZM26.9,24.4h.9v-1.3h-.9v1.3ZM26.9,18h.6v-4.6h-.6v4.6ZM26.3,18h.6v-4.6h-.6v4.6ZM26.2,21.7h.7v-3.4h-.7v3.4ZM26.2,22.7h.7v-.6h-.7v.6ZM26.2,24.4h.7v-1.3h-.7v1.3ZM26.2,18.2h0v-.7h0v.7ZM26.2,17.4h0v-.7h0v.7ZM26.2,16.6h0v-.7h0s0,.7,0,.7ZM26.2,15.7v-1.9h0s0,1.9,0,1.9h0ZM26.2,13.8v1.9h-.7v-1.3c.2-.1.5-.3.7-.5h0ZM25.4,16.6h.7v-.7h-.7s0,.7,0,.7ZM25.4,17.4h.7v-.7h-.7v.7ZM25.4,18.2h.7v-.7h-.7v.7ZM25.4,21.7h.7v-3.4h-.7v3.4ZM25.4,22.7h.7v-.6h-.7v.6ZM25.4,24.4h.7v-1.3h-.7v1.3ZM25.4,14.3v1.3h-.7v-1.1c.2,0,.5,0,.7-.2h0ZM24.7,16.6h.7v-.7h-.7s0,.7,0,.7ZM24.7,17.4h.7v-.7h-.7v.7ZM25.4,17.5v.7h-.1,0s-.6-.3-.6-.3v-.4s.7,0,.7,0ZM25.4,18.3v3.4h-.7v-1.3l.6-2.1h.1ZM25.2,22.7h.2v-.6h-.2v.6ZM25.4,23.1v1.3h-.7v-.8l.4-.5s.4,0,.4,0ZM24.7,19.3l.3-1h-.3c0-.1,0,1,0,1ZM24.7,14.5v1.1h-1.5v-.4c.2-.1.7-.6,1.3-.7,0,0,0,0,.2,0ZM23.7,16.6h1v-.7h-1s0,.7,0,.7ZM23.7,17.4h1v-.7h-1v.7ZM24.7,17.5v.4h-.3c0-.1-.1.3-.1.3h-.6v-.7s1,0,1,0Z"/>
      <path class="cls-1" d="M24.7,18.1h-.1s-1.4,4.3-1.4,4.3v1.5l1.5-4.8v-1.1ZM24.7,20.3v1.2l-.3-.2s.3-1,.3-1ZM24.7,23.5v.8h-.2v-.5l.2-.3ZM24.7,26.3h-.8v-1.6h.8v1.6ZM25.4,26.3h-.7v-1.6h.7v1.6ZM26.2,26.3h-.7v-1.6h.7v1.6ZM26.9,26.3h-.7v-1.6h.7v1.6ZM27.9,26.3h-.9v-1.6h.9v1.6ZM28.8,26.3h-.9v-1.6h.9v1.6ZM29.3,26.3h-.6v-1.6h.6v1.6ZM29.9,26.3h-.5v-1.6h.5v1.6ZM29.9,26.3h0v-1.6h0v1.6ZM29.9,24.7h.4v1.6h-.4v-1.6ZM23.2,25.8v-.4h.2c0,.1-.1.4-.1.4,0,0,0,0-.1,0ZM23.2,20.7v-2.4h1l-.8,2.6s-.2-.1-.2-.1ZM23.2,15.2v.4h0v-.4s0,0,0,0ZM23.2,18.3v2.4l-.5-.3v-2.1s.5,0,.5,0ZM23.2,22.5v1.5l-.4,1.2.4.2v.4c-.2,0-.7,0-1.1-.1l-.4-.2v-.7c.1,0,.6.2.6.2l.8-2.5ZM21.8,19.9v-1.6h.7v2l-.7-.4h0ZM21.8,18.3v1.6h0v-1.6h0Z"/>
      <path class="cls-1" d="M21.8,25.1v.3h0c0-.1,0-.3,0-.3h0ZM21.7,18.3v1.5l-.5-.3v-1.3s.5,0,.5,0Z"/>
      <path class="cls-1" d="M21.7,25.4h0c0,0,0,0,0,0h0ZM48.8,22.6v1.4h0c-.2.4-.3,1-.8,1.2-.9.4-2.4-1.6-1.3-2.1.2.1.3.3.5.4.5.1,1-.4,1.5-.8h0ZM48.8,20.3v.6c-.2.1-.4.3-.6.2h0c.1-.1.4-.5.6-.9ZM48.8,17.6v1.2c-.2,0-.5,0-.7-.2l-1.2-1.1s0,0,0-.1c.4.1.8.2,1.1.3.3,0,.5,0,.7-.1ZM48.8,20.9c.1-.1.3-.2.4-.3.7-.5,2.1-1.4,1.3-2.5-.3-.4-1-.6-1.6-.5,0,0,0,0,0,0v1.2c0,0,.2,0,.2.2.2.3,0,.9-.2,1.3v.6h0ZM48.8,24v-1.4c.3-.3.5-.5.7-.7.7-.5,1.5-1.1,1.9-2,.1-.3,0-.7,0-1.1l.2-1.1c0-.9,0-1.9,0-2.8,0-.3,0-.7,0-1.1.1-.6.3-1.6.2-2.5-.2-.9-.5-1.5-1-2-.2-.1-.8-.3-.8-.5.4,0,.7.1,1,.2.5,0,1,0,1.4.2.6.4,1.3,1.7,1,2.9-.2.6-.5,1.1-.8,1.6-.3.7-.4,1.6-.6,2.4,0,.8,0,1.7,0,2.5.1.5.3.9.4,1.4v.5c.1.6.5,1.3-.3,1.7-.4,0-1-.4-1-.7,0-.1,0-.3,0-.4,0,0,0,0,0,0,0,0,0,0-.1,0-.2.1-.4.6-.5.8-.5.7-1.2,1.3-1.6,2.1ZM58.1,20.4v1.5c0,0-.1,0-.2,0-.3.5-.6,1.2-1.1,1.6-.1.1-.5.3-.7.1h0c.2-.4,1-1.3.8-1.8,0-.1-.1-.2-.2-.2-.6,0-1.1.2-1.5,0,0,0,0,0,0,0,0,0,0,0,0,0,.4.1,1.4-.2,1.5-.4.1-.2.2-.4.3-.6.2,0,.3,0,.5,0,.1,0,.3,0,.4,0ZM58.1,13.5v.3c0,0-.1,0-.2-.1-.3.3-.2,1.1,0,1.3,0,0,0,0,.1,0v1.5c-.2.1-.4.2-.6.4-.2.3-.2,1-.4,1.3-.5.8-1.2,1.6-2,2.1.3-.8.6-1.6.9-2.5.1-.5-.2-1-.6-.9-.2,0-.4.2-.6.2,0,0,0,0,0,0,.3-.4,1.1-.5,1.3-.9.2-.5-.1-1.1,0-1.7.2-1.4,0-2.7.6-3.7.4.1,1.1,1.2,1.3,1.6.1.5-.1.8.2,1.1,0,0,.1,0,.2.1ZM58.1,16.5v-1.5c.1,0,.3,0,.4,0,.1-.4,0-.9-.4-1.1v-.3c.2.1.5.3.7.4.3.1.6.2.9.3,0,.3-1.4,2-1.6,2.2,0,0,0,0,0,0ZM58.1,21.9v-1.5c.4,0,.7-.2.9.2.6.8,0,1.3-.9,1.3h0ZM65.7,17.8c-.2.2-.3.5-.4.7,0,.2.2.4.2.7-.3.3-.7.4-1.1.6-.5.3-1,.7-1.4,1-.2,0-.5.2-.7.3-.1,0-.2.2-.3.3h0c.1.3.3.5.4.8.5.3.9-.1,1.1-.4.2-.2,1.9-1.8,2.1-1.9,0,.3,0,.5,0,.8-.2.1-.5.1-.6.3.2.5.4,1,.8,1.3,0,0,0,0,0,0v-4.5h0ZM65.7,16.3v1.4h0c-.3,0-.5,0-.7,0,0,.9-.1,1.8-.9,1.8-.5-.3-.4-2.3-.3-2.9,0,0,.2-.1.3-.2.2.1.4.2.6.4.4-.2.7-.4,1-.6ZM65.7,14.5v.7c-.3.1-.7.3-1,.3-.4,0-1.7,0-1.6-.4h.9c.7,0,1.2-.4,1.8-.7ZM65.7,13v.4c0,0-.1,0-.2,0-.2,0-.3.3-.7.3.1-.3.6-.4.8-.7ZM65.7,11.2v1.2c-.3-.5-1.4-.9-1.6-1.3h0c.3,0,.6,0,.9,0,.2,0,.5,0,.7,0ZM65.7,13.4v-.4s0,0,0,0c0-.2,0-.4,0-.5v-1.2c0,0,.1,0,.2,0,.6.2,1.3.6,1.4,1.2.1.7-1,.9-1.6,1h0ZM67.6,19.2c-.2,0-.4,0-.5,0,0,0-.1,0-.2,0,0,0,0,0,0,0,0,.3.3.3.4.5.2.3.2.6.3.8,0,0,0-1.4,0-1.4ZM67.6,15.4v1c-.2.2-.4.5-.6.7-.2.2-.7.4-.8.7h0s.5,0,.5,0c0,0,0-.1,0-.2.3,0,.6,0,.8,0,0,.1,0,.2,0,.4-.3.5-1.2.7-1.8.8,0,.7,1,3.2-.1,3.4v-4.5s0,0,0,0c0,0,0,0,0,0v-1.4c.3-.3.7-.5,1.1-.8.3,0,.5,0,.8-.1ZM67.6,13.6v.9c-.3,0-.6.2-.9.3-.3.1-.7.3-1,.5v-.7s0,0,0,0c.3,0,.5-.2.8-.3.2-.1.4-.3.6-.4.2,0,.3-.2.5-.2ZM75.7,16c.5.1,1.1.7.9,1.5-.1.4-.6.6-.9.9,0,.4.5.8.8,1,.9.7,1.6,1.6,2.7,2.2.4.2,1,.3,1.3.7,0,0,0,0,0,0-.5,0-.9-.1-1.3-.2-.4,0-.7.1-1,.2-.9.2-1.8-.8-2.1-1.3-.5-.6,0-2.1-1.1-2.1-.4.2-.6.7-.9,1-.5.6-1.3,1.1-2.1,1.4-.3.1-.9.5-1.3.3h0c.8-.4,2-1.1,2.5-1.8.3-.3.4-.8.7-1.2.2-.3.6-.5.6-.9-.3-.5-1-1.3-1.4-1.7,0,0,0,0,0,0h0c1,0,1,1.2,1.7,1.4.4-.3.6-.9.8-1.4h0ZM76.7,13.4c1,0,2.1.9,1.1,1.4-.2,0-.5-.3-.8-.2-.2,0-.3.2-.6.2h0c0,0,0,0,0,0,0-.3.3-.4.4-.6,0-.4-.5-.4-.8-.2-.4.3-.5.9-1,1.1-.4.2-1,.1-1.4.3l-1.3.6c0,0-.1,0-.1-.1.1-.7.9-.9,1.3-1.2.3-.3.6-.6.8-.9h0c0,.2-.2.4-.1.5q0,0,.1.1c.4.1,1.9-.6,2.2-.8h0ZM74.2,9.3c.4,0,2.1.6,2.2.8.2.2,0,.8.2,1,.2,0,.9.1,1.2,0,.2-.1.4-.2.6-.3.4,0,1.1.2,1.1.5-.2.4-.6.2-1.2.4-.4,0-1.9.9-2.2.8,0,0,0,0,0,0,.3,0,.6-.3.8-.4,0,0,0-.1,0-.2q0,0-.1-.1c-.6-.2-1.2.5-1.7.7-.4.2-.9.3-1.3.3.2-.4,1.7-.8,1.5-1.7-.1-.6-.8-.9-1.1-1.5,0,0,0,0,0,0h0ZM67.6,14.5v-.9c.1,0,.3-.1.4-.2.3,0,.6.2.7.4,0,0,0,0,0,0-.3.2-.5.3-.8.5,0,0-.2,0-.3,0ZM67.6,16.4v-1s0,0,0,0c.3,0,.5,0,.7,0,0,0,0,0,0,0,0,.2,0,.3,0,.4-.3.1-.5.3-.7.5ZM67.6,20.6v-1.4c.9.2,1.5,1,1,1.8-.7.2-.9,0-1-.4ZM84.1,20.9c-.3,0-.5-.2-.8-.2-.4-.1-.8-.3-1.4-.3v.2c.4.2.9.4,1.3.6.3,0,.6.2.9.2,0,0,0-.4,0-.4ZM84.1,19.4v1s0,0,0,0c0,0-.4-1.2-.4-1.2,0,0,0,0,0,0,.1,0,.3.1.4.2ZM84.1,17.9v.6c-1,.3-1-.7-1.2-1.5,0-.3-.2-.4-.3-.7,0,0,0,0,0,0,.3,0,1.1.9,1.4,1.6h0ZM84.1,18.5v-.6c0,.2.1.4,0,.5,0,0,0,0,0,0h0ZM84.1,20.4s0,0,.2,0c0,0,.2,0,.2,0,0,0,0,0,0,0,0-.2-.2-.7-.5-.9v1ZM86.9,22v1c-.2-.1-.3-.3-.4-.3-.6-.5-1.3-.9-2.1-1.2,0,0-.2,0-.3,0v-.4c.6.2,1.1.3,1.7.5.4.2.7.4,1.1.6ZM86.9,19.5c0,.2,0,.5,0,.8,0,0,0,0,0,0v-.9ZM86.9,15.6v.5c-.1.1-.2.2-.3.4,0,.1,0,.1.1.2,0,0,0,0,.1,0v1.2c0,0-.1.1-.1.3,0,0,0,.1.1.2v.5c0-.2-.3-.3-.7-.6h0c.2-.4.6-.8.4-1.4,0,0,0,0-.1,0-.1,0-.1,0-.2,0-.1.4-.4.5-.5.9-.1.7,0,1.5-.3,1.9h0c-1.2-1.2.2-2.5.2-3.8.1,0,0,0,.1,0,0,.3-.1.5,0,.7.1,0,.2,0,.2,0,0-.3.4-.7.7-1ZM86.9,11.8v1.3c-.4.3-.8.5-1.6.4h-.7s0,0,0,0c.3-.2.6-.5,1-.7.4-.3.8-.6,1.2-.9ZM86.9,13v-1.3s0,0,0,0c.8-.4,1.5-.8,2.3-1.2.3-.2.5-.5.9-.8.4,0,.7.2.8.5-.2.7-.8,1.2-1.3,1.6-.2.1-.5.4-.5.6,0,.3.5.5.6.6,0,.2,0,.2-.1.3-.6.2-1.2.5-1.7.7,0,0,0,0,0,0,.2-.3.7-.4.9-.8.1-.3-.2-.6,0-.9.3-.4.9-.7,1-1.3,0,0-.1-.1-.2-.2,0,0,0,0,0,0-.6.2-1.6,1.2-2,1.6-.2.2-.4.5-.6.7h0ZM86.9,20.4v-.9c0-.3.1-.5,0-.7v-.5s0,0,0,0h.1c0-.1,0-.2,0-.3,0,0,0,0,0-.1,0,0,0,0-.1,0,0,0,0,0,0,0v-1.2s0,0,.1,0c.3-.1,0-.5,0-.6,0,0,0,0,0,0v-.5c.7-.8,1.9-1.6,2.8-1.4.1.1.2.3.3.4l-.2.5v.5c-.1.4-.2.8-.4,1.1-.2.7-.1,1.3-.3,2.1,0,.6.2,1.6-.3,1.8-.5.1-.8-.5-1-.7,0,0,0,0,0,0h0c.2,0,.3.2.5.1.3-.2.3-.7.4-1,.1-.5,0-1.3,0-2,.1-.5.2-1,.3-1.5,0-.4.1-.8-.3-.8-.6.2-1.1.5-1.5.9,0,.2,0,1.2.1,1.2.2.3.7.2.7.8-.2.4-.6.6-.8,1,0,.5,0,1,0,1.5l-.2.3c-.1,0-.2,0-.3,0h0ZM91.3,22.3h0c-.7.3-1.3.8-1.9,1.2-.2.1-.4.2-.6.3-.5,0-1.3-.5-1.9-.9v-1c.3.2.6.3,1,.4h.7c.4,0,.9.3,1.4.2.3,0,.9-.3,1.2-.2ZM91.3,21.1h0c0,.1,0,.1,0,.1,0,0,0,0,0,0h0s0,0,0,0ZM91.3,21.2h0c1.8-.8,3.4-2.6,4.5-4,.2-.3,1.3-1.4,1.1-1.8-.1-.2-.4-.2-.5-.4,0,0,0-.2,0-.3-.1-.1-.2,0-.4-.2-.2-.2-.5-.5-.7-.8h0c.4-.1,1.6.7,2.5.4.4-.1.6-.7.8-1,.5-.9,1-1.9,1.2-3,0-.3-.1-.5-.1-.7.2,0,.4.3.5.4.8,1.1.1,1.9-.4,2.9-.1.2-.4.6-.3.9,0,0,0,0,0,0,.7.2,1.9-.9,2.4,0,0,0,0,0,0,.1-.4.2-.9.2-1.4.4-.1,0-.3.2-.5.2-.5.1-.9,0-1.2.3-.4.2-.6.9-.9,1.2-.1.2-.7.8-.6,1.1.1.3.7.5.9.7.7.6,1.3,1.4,2.3,1.7.5.1,1.3-.1,1.7,0,0,.4-1.3.5-1.6.8-.2.1-.2.3-.4.3h-.1c-1.4-.5-1.7-3.2-3-3.2-1,1.2-2.1,2.2-3.6,2.9-.7.3-1.4.6-2.1.9h0ZM91.3,22.4h0c0-.1,0,0,.1,0,0,0,0,0,0,0,0,0,0,0,0,0ZM104.8,24.1v.3c-.1,0-.3-.2-.4-.3,0,0,0,0,0,0h0c.1,0,.2,0,.3,0ZM104.8,21.5v.5c0-.2-.2-.3-.2-.5h0c0,0,.1,0,.2,0h0ZM104.8,18.6v.4c-.2.1-.3.2-.5.4-.3.3-.5.6-.8.8h-.3c0-.2-.1-.4-.2-.5v-.2c0-.5.3-.9.6-1.1-.1.4-.4.7-.3,1.2,0,0,0,0,.1.1.5,0,.9-.7,1.3-.9,0,0,0,0,0,0ZM104.8,17v.3c-.3.4-.8.8-.9.8h0c.3-.2.6-.7.9-1ZM104.8,13.8v1.6c0,0-.1-.1-.2-.2,0-.2,0-.4,0-.6-.2-.5-.3-.9-.5-1.4h0c.2.2.4.4.6.6ZM104.8,15.4v-1.6c.3.3.5.6.6.9.1.3,0,.8-.3.9-.1,0-.2-.1-.3-.2ZM104.8,17.2c.2-.2.3-.4.3-.5h0s0,0-.1,0c0,0-.1.2-.2.3,0,0,0,.3,0,.3ZM107.9,25v1s0,0,0,0l-1.7-1c-.4-.2-.9-.3-1.3-.5v-.3c.3.1.5.3.8.4.2,0,.4.1.6.2,0,0,.2,0,.3,0,.2,0,.4.2.6.3.2,0,.6,0,.8,0ZM107.9,20.6v.4c-.6.2-1.3.8-1.8,1-.2.1-.5.4-.9.3-.2,0-.3-.2-.4-.4v-.5c.2.1.3.3.6.2.8-.3,1.6-.6,2.4-.9,0,0,0,0,.1,0ZM107.9,18.9c-.6.2-1.3.3-1.7.2.5.7,1.2.2,1.7,0v-.2ZM107.9,16.8v.2c-.2,0-.3.2-.5.2-.2,0-.3.1-.5.2-.7.5-1.4,1.1-2.1,1.6v-.4c.8-.6,1.7-1.2,2.6-1.7.2,0,.3-.1.5-.2ZM107.9,12.8c-.2.5-.5,1.1-.6,1.2-.6,0-.5-.7-.7-1.1-.3-.8-.7-2-1.4-2.3-.2.1.2.7.3.9.2.4.5.8.5,1.3,0,.3,0,1,.1,1.4,0,0,.1,0,.2.1l.6-.2c0,0,.1,0,.2,0,0,0,0,.2.1.3-.4.6-.7,1.2-1.1,1.7h0s.1,0,.2,0c.4-.4.8-.9,1.2-1.3.1,0,.3,0,.4.2v-2.4h0ZM107.9,11.5v.5s0,0,0,0c-.1-.2-.4-.3-.4-.5.2,0,.3,0,.4,0ZM108.7,20.3v.3c0,0-.1,0-.2.1,0,.2,0,.5.2.8v4.6c-.2.1-.5,0-.8,0v-1c.1,0,.2,0,.3,0,.3-.4.4-2.9.2-3.9,0,0-.1,0-.2-.1,0,0-.2,0-.3,0v-.4c.1,0,.2-.2.3-.2.2,0,.3,0,.5,0ZM108.7,18.5v1c-.2.1-.4.3-.6.4h0c0-.1,0-.1,0-.2.1-.2.3-.3.3-.6-.1-.2-.3-.2-.6-.1v-.2c.3-.1.6-.2.8-.3h0ZM108.7,17.8v.2s0,0,0,0h0c0-.1,0-.1,0-.1ZM108.7,16.3v.3c-.3.1-.5.2-.8.3v-.2c.3,0,.7-.2.8-.5ZM108.7,11.8v1.6c-.3.3-.7.5-.7,1,.2.3.5.4.7.3v.4c0,0,0,.1,0,.2,0,0,0,0,0,.1v.7c0-.3-.2-.6-.4-.7-.1,0-.3-.1-.4-.2v-2.4c.1-.3.1-.7,0-.9v-.5s0,0,0,0c.2.1.2.4.6.4,0,0,.1,0,.2,0ZM108.7,11.1c-.2,0-.3.1-.4,0h0c.1-.1.2-.3.4-.5v.4h0ZM108.7,13.4c.2-.1.3-.2.4-.4v-.8c0,0-.2-.2-.2-.3,0,0,.1,0,.2,0v-.2l-.4.2v1.6h0ZM108.7,15.1c0-.2.2-.3.4-.4v-.2c-.1,0-.3.1-.4.2v.4ZM108.7,16.7s0,0,0,0c.1,0,.2,0,.3,0v-.6c-.2-.1-.3-.4-.4-.6v.7c0,0,0,.1,0,.2,0,0,0,0,0,0v.3ZM108.7,17.9c.1,0,.3,0,.4-.1v-.3c-.1,0-.3.1-.4.2v.2ZM108.7,26.1v-4.6c0,.1.1.2.1.3v.6c.2.9.6,2.7,0,3.5,0,0-.1.2-.2.2ZM109.1,21.1h0s0,0,0,0c0,0,0,0,0,0ZM109.1,20.2v.3c-.2,0-.3,0-.5,0v-.3c.2,0,.3,0,.5,0ZM109.1,18.6v.6c-.2.1-.3.2-.5.4v-1s0,0,0,0c.1,0,.3,0,.4,0ZM109.1,17.5v.2h0s0-.2,0-.2c0,0,0,0,0,0ZM109.1,16.1v.6s0,0,0,0v-.6s0,0,0,0ZM109.1,14.5v.2h0s0-.1,0-.1c0,0,0,0,0,0ZM109.1,12.3v.5s0,0,0,.1v-.8s0,0,0,.1ZM109.1,11.5v.2s0,0,0,0v-.2s0,0,0,0h0ZM109.1,10.8s0,0,0,0c0,0-.3.2-.5.3v-.4c.2-.2.3-.4.5-.6,0,0,0,.7,0,.7ZM109.1,12.9c0,0,0-.1,0-.2,0-.1,0-.3,0-.4v.5ZM109.1,19.2v-.6h.4c0,0,0,.1,0,.1h0c-.1.2-.3.4-.4.5ZM110,19.9v1c0,0-.1,0-.2,0-.2,0-.4.4-.7.3h0c0,0,0,0,0-.1.2,0,.3-.2.4-.3,0,0,0-.1,0-.2,0,0-.2,0-.3,0v-.3c.1,0,.2,0,.3,0,.2,0,.4-.2.5-.3ZM110,17.2v.3c-.1,0-.3,0-.4,0-.1,0-.3.1-.4.2v-.2c.3-.1.6-.2.9-.3ZM110,15.6v.6c0,.1-.2.3-.4.3-.2,0-.3,0-.5,0v-.6c0,0,.2,0,.2,0,.2-.1.4-.3.6-.5ZM110,13.8v.5c-.3.1-.6.3-.9.4v-.2c0,0,.1,0,.2-.1.3-.2.5-.4.7-.6ZM110,11.2h0c-.1.2-.3.3-.4.4,0,.2.2.4.4.6v.4s0,0,0-.1c-.2-.3-.3-.6-.7-.6,0,0,0,0,0,0v-.2c.3-.1.6-.3.9-.4ZM109.5,7.8c.2,0,.3.2.5.3v2.3c-.3.2-.7.3-.9.4v-.7c.3-.4.6-.9.7-1.5,0-.4-.3-.6-.3-.8ZM110,11.3c.3-.2.6-.3.9-.4h0c-.3,0-.6.1-.9.3h0ZM110,14.2v-.5c.2-.3.3-.7,0-1.3v-.4c.4.5.9,1,.8,1.5,0,.3-.4.5-.8.7ZM110,16.2c0-.1.1-.2.2-.3h.4c0,0,.2,0,.3,0v-.2c0,0-.2,0-.3,0-.2-.1,0-.5.3-.9v-.4c-.3.4-.6.8-.9,1.2v.6ZM110,17.5c.3,0,.6,0,.9,0v-.6c-.3,0-.6.2-.9.3v.3ZM111,19.5v1.2c0,0-.1,0-.2.1-.3,0-.5,0-.8,0v-1c.2-.1.4-.3.6-.4.1,0,.2,0,.4,0ZM111,16.9v.6h0v-.6s0,0,0,0ZM111,15.7v.2s0,0,0,0v-.2s0,0,0,0ZM111,14.4v.4h0c0,0,0-.3,0-.3,0,0,0,0,0,0h0ZM111,10.7h0c0,.2,0,.2,0,.2h0c0-.1,0-.2,0-.2h0ZM110,8.1c.4.3.8.6,1,1v.6c-.2.3-.6.6-1,.8v-2.3h0ZM111,14.8v-.4c.5-.8.9-1.6,1.4-2.4.2-.3.9-1.2.9-1.4v-.2h-.3c-.3.1-.5,0-.9.1-.3,0-.7.2-1.1.3h0c.2-.2.4-.3.7-.4.2,0,.5,0,.7,0,.5-.1.9-.2,1.4-.3,0,0,0,0,.1,0,.3,1.8-.7,1.8-1.4,2.7-.3.4-.7.9-1,1.3,0,0-.2.3-.4.6ZM111,17.5v-.6c.1,0,.3,0,.4-.1.5-.2,1.2-.3,1.5-.8,0-.1,0-.1,0-.2-.6,0-1.2,0-1.8.1v-.2c.1,0,.2,0,.3,0h.4c.5-.1,1.3-.4,2-.2.1.1.2.2.2.5-.5.7-1.4,1.4-2.4,1.6-.2,0-.4,0-.5,0ZM111,20.7v-1.2c.4.1.9.4,1,.6,0,0,0,0,0,.1-.2,0-.5.1-.7.2,0,0-.2.2-.3.2ZM111,9.1c0,0,0,.1,0,.2,0,.2,0,.3,0,.5v-.6ZM112.3,33.1v-1.2l-1.1-1.7h.7l.7,1.2.7-1.2h.7l-1.1,1.7v1.2s-.6,0-.6,0ZM109.6,33.1v-2.4h-.9v-.5h2.3v.5h-.9v2.4s-.6,0-.6,0ZM107.7,30.2h.6v2.9h-.6v-2.9ZM104.7,32.2h.6c0,.1.1.3.2.4.1,0,.2.1.4.1s.3,0,.4-.1c0,0,.1-.2.1-.3,0,0,0-.1,0-.2,0,0-.1-.1-.2-.1-.2,0-.3,0-.5-.1-.3,0-.5-.2-.7-.3-.2-.1-.3-.4-.3-.6,0-.2,0-.3.1-.4,0-.1.2-.2.4-.3.2,0,.4-.1.6-.1.4,0,.6,0,.8.2.2.2.3.4.3.6h-.6c0-.1,0-.2-.2-.3,0,0-.2,0-.4,0s-.3,0-.4.1c0,0,0,.1,0,.2,0,0,0,.1,0,.2,0,0,.3.1.5.2.3,0,.5.1.6.2.1,0,.2.2.3.3,0,.1.1.3.1.5,0,.4-.2.7-.5.8-.2,0-.4.1-.6.1-.4,0-.7,0-.9-.3-.2-.2-.3-.4-.4-.8h0ZM102.4,31.4h.4c.3,0,.5,0,.5,0,0,0,.1,0,.2-.1,0,0,0-.1,0-.2,0,0,0-.2,0-.2,0,0-.1-.1-.2-.1-.1,0-.3,0-.4,0h-.5v.7ZM101.8,33.1v-2.9h1.2c.3,0,.5,0,.7,0,.1,0,.3.2.3.3,0,.1.1.3.1.5,0,.2,0,.4-.2.5-.1.1-.3.2-.6.3.1,0,.2.2.3.2,0,0,.2.2.3.5l.4.6h-.7l-.4-.6c0-.2-.2-.3-.3-.4,0,0-.1,0-.2-.1,0,0-.2,0-.3,0h-.1v1.2h-.6,0ZM99,33.1v-2.9h2.2v.5h-1.6v.7h1.5v.5h-1.5v.8h1.6v.5h-2.2ZM96.9,33.1l-1.1-2.9h.6l.7,2.2.7-2.2h.6l-1.1,2.9h-.6,0ZM94.9,30.2h.6v2.9h-.6v-2.9ZM91.8,33.1v-2.9h.6l1.2,2v-2h.6v2.9h-.6l-1.2-1.9v1.9h-.6ZM88.7,30.2h.6v1.6c0,.3,0,.4,0,.5,0,.1,0,.2.2.3s.2.1.4.1.3,0,.4-.1c0,0,.1-.2.2-.3,0,0,0-.3,0-.5v-1.6h.6v1.5c0,.4,0,.6,0,.7,0,.1,0,.3-.2.4,0,.1-.2.2-.3.2-.1,0-.3,0-.6,0s-.5,0-.6,0c-.1,0-.3-.1-.3-.3,0,0-.1-.2-.2-.3,0-.2,0-.5,0-.7v-1.6ZM85.3,32v-.5h1.3v1.2c-.1.1-.3.2-.5.3-.2,0-.5.1-.7.1-.3,0-.6,0-.8-.2-.2-.1-.4-.3-.5-.6-.1-.2-.2-.5-.2-.8s0-.6.2-.8c.1-.2.3-.4.6-.5.2,0,.4-.1.7-.1s.7,0,.9.2c.2.2.3.4.4.6h-.6s-.1-.1-.2-.2c-.1,0-.3-.1-.4-.1-.3,0-.5,0-.6.2-.2.2-.2.4-.2.7s0,.6.2.8c.2.2.4.3.6.3.1,0,.2,0,.4,0,.1,0,.2-.1.3-.2v-.4s-.7,0-.7,0ZM80.9,33.1v-2.9h.6l1.2,2v-2h.6v2.9h-.6l-1.2-1.9v1.9h-.6ZM78.1,31.7c0,.3,0,.6.2.8.1.2.4.3.6.3.2,0,.4,0,.6-.3s.2-.4.2-.8,0-.6-.2-.8c-.1-.2-.4-.3-.6-.2-.2,0-.4,0-.6.3-.2.2-.2.4-.2.8h0ZM77.5,31.7c0-.3,0-.6.1-.8,0-.2.2-.3.3-.4.1-.1.2-.2.4-.3.2,0,.4-.1.6-.1.4,0,.8.1,1,.4.3.3.4.6.4,1.1s-.1.8-.4,1.1c-.3.3-.6.4-1,.4s-.8-.1-1-.4c-.3-.3-.4-.6-.4-1.1ZM75.7,33.1v-2.4h-.9v-.5h2.3v.5h-.9v2.4h-.6,0ZM72.3,31.7c0,.3,0,.6.2.8.1.2.4.3.6.3.2,0,.4,0,.6-.3s.2-.4.2-.8,0-.6-.2-.8c-.1-.2-.4-.3-.6-.2-.2,0-.4,0-.6.3-.2.2-.2.4-.2.8ZM71.7,31.7c0-.3,0-.6.1-.8,0-.1.2-.3.3-.4.1-.1.2-.2.4-.3.2,0,.4-.1.6-.1.4,0,.8.1,1,.4.3.3.4.6.4,1.1s-.1.8-.4,1.1c-.3.3-.6.4-1,.4s-.8-.1-1-.4c-.3-.3-.4-.6-.4-1.1ZM70.3,32l-.4-1.1-.4,1.1h.8ZM71.4,33.1h-.6l-.3-.7h-1.2l-.2.7h-.6l1.1-2.9h.6s1.2,2.9,1.2,2.9ZM67.5,30.2h.6v2.9h-.6v-2.9ZM66.2,30.2h.6v1.9c0,.2,0,.4,0,.6,0,.2-.2.3-.3.4-.2.1-.3.2-.6.2s-.5,0-.7-.2c-.2-.2-.2-.4-.2-.7h.6c0,.1,0,.2,0,.3,0,.1.2.2.3.2.1,0,.2,0,.3-.1,0,0,0-.2,0-.5v-1.9h0ZM61.7,32v-.5h1.3v1.2c-.1.1-.3.2-.5.3-.2,0-.5.1-.7.1-.3,0-.6,0-.8-.2-.2-.1-.4-.3-.5-.6-.1-.2-.2-.5-.2-.8s0-.6.2-.8c.1-.2.3-.4.6-.5.2,0,.4-.1.7-.1s.7,0,.9.2c.2.2.3.4.4.6h-.6s-.1-.1-.2-.2c-.1,0-.3-.1-.4-.1-.3,0-.5,0-.6.2-.2.2-.2.4-.2.7s0,.6.2.8c.2.2.4.3.6.3.1,0,.2,0,.4,0,.1,0,.2-.1.3-.2v-.4h-.7,0ZM57.2,33.1v-2.9h.6l1.2,2v-2h.5v2.9h-.6l-1.2-1.9v1.9h-.6ZM56,30.2h.6v2.9h-.6v-2.9ZM54.7,30.2h.6v1.9c0,.2,0,.4,0,.6,0,.2-.2.3-.3.4-.2.1-.3.2-.6.2s-.5,0-.7-.2c-.2-.2-.2-.4-.2-.7h.6c0,.1,0,.2,0,.3,0,.1.2.2.3.2.1,0,.2,0,.3-.1,0,0,0-.2,0-.5,0,0,0-1.9,0-1.9ZM52.4,30.2h.6v2.9h-.6v-2.9ZM49.5,33.1v-2.9h2.2v.5h-1.6v.7h1.5v.5h-1.5v.8h1.6v.5h-2.2,0ZM47.1,31.8v.8h.5c.2,0,.3,0,.4,0,0,0,.2,0,.2-.1,0,0,0-.2,0-.2,0,0,0-.2,0-.2,0,0-.1-.1-.2-.1,0,0-.3,0-.5,0h-.5,0ZM47.1,30.7v.7h.4c.2,0,.4,0,.4,0,0,0,.2,0,.2-.1,0,0,0-.1,0-.2,0,0,0-.2,0-.2,0,0-.1,0-.2-.1-.2,0-.3,0-.5,0,0,0-.3,0-.3,0ZM46.5,30.2h1.2c.2,0,.4,0,.5,0,.1,0,.2,0,.3.1,0,0,.2.1.2.2,0,.1,0,.2,0,.3,0,.3-.2.5-.4.6.2,0,.3.1.4.3,0,.1.1.3.1.4,0,.3-.1.5-.3.7-.1,0-.3.1-.4.1,0,0-.3,0-.7,0h-1s0-2.9,0-2.9Z"/>
    </g>
  </g>
</svg>