<?xml version="1.0" encoding="UTF-8"?>
<svg xmlns="http://www.w3.org/2000/svg" version="1.1" viewBox="0 0 128 50.9">
  <defs>
    <style>
      .cls-1 {
        fill: #0094b0;
        fill-rule: evenodd;
      }
    </style>
  </defs>
  <!-- Generator: Adobe Illustrator 28.7.1, SVG Export Plug-In . SVG Version: 1.2.0 Build 142)  -->
  <g>
    <g id="_图层_1" data-name="图层_1">
      <path class="cls-1" d="M29.5,10.5c8.5,0,15.5,6.9,15.5,15.5s-6.9,15.5-15.5,15.5-15.5-6.9-15.5-15.5,6.9-15.5,15.5-15.5ZM36,32.3h0c0,0,.3,0,.3,0,0,0,0-.1,0-.2,0-.1-.3-.4-.4-.4h0c0,.2,0,.4.2.5,0,0,0,0,0,.2h0ZM22.9,33.4h0c0-.2.2-.3.2-.5,0,0,0-.1,0-.2,0-.1.3-.1.4-.3,0,0,0-.2,0-.2,0,0,0,0,0,0,0,0,0-.2,0-.2.1-.2,0-.7-.2-.7,0,0-.2.1-.2.2v.2c0,.2-.1.4-.2.6,0,.1,0,.2-.1.3,0,0-.1.2-.2.2h0s0,0,0,0c0,0,0,0,.1,0,0,0,0,.2,0,.2,0,.2-.3.6,0,.8,0,0,.1,0,.2,0h.3c.2-.1.4-.2.5-.3,0,0,0,0,0-.1-.1-.2-.2,0-.4,0h0ZM24.9,33.2s0,0-.1,0h0c0,0,0,.2-.1.3h0c0,0-.1,0-.2.1-.2,0-.3.2-.5.3h-.2c0,0,0,.2,0,.2,0,0-.1,0-.1,0,0,.2.1.4.4.3,0,0,.3-.3.3-.4,0,0,0,0,.1,0,.1,0,.2,0,.4,0,0,0,.2,0,.3,0,0-.1,0-.3,0-.5s0-.2,0-.3h0ZM24.4,33.8c0,0,.2-.2.2-.2.1,0-.1.3-.2.2ZM25.5,33.2c0-.1-.1-.2-.3-.2h0c0,0,0,.2,0,.2,0,0,0,.1,0,.2h0c0,.2,0,.3.2.3.1,0,.3-.1.2-.3,0,0,0-.1-.1-.2ZM21.8,30.9c-.1,0,0,.2,0,.4v.2c0,.3-.2.7-.1,1.1v.3c0,.1,0,.4,0,.5,0,.1-.1.1-.2.2-.1.2-.3.3-.4.4-.2.1-.3.2-.4.5,0,0,0,0,.1,0,0,0,0,0,.1,0,.2,0,.4-.4.5-.5,0,0,0-.1,0-.2,0,0,.1-.2.2-.2,0,0,.1.2.2.1,0,0,0-.2,0-.3,0-.1,0-.2,0-.4,0,0,0-.1,0-.2v-.2c0-.3,0-.6.1-.8,0-.2.2-.4.2-.6,0,0,0-.1,0-.2,0-.2-.2-.4-.4-.4h0ZM21,33.4c0,.2-.2.4-.1.6h0c0,0,.1-.1.2-.2,0,0,0,0,0,0,.1,0,.3-.2.3-.3,0-.2-.3-.3-.5-.3h-.2c-.1.3.1.2.1.4ZM25.8,31.2c-.2,0-.4.1-.5,0,0,0,0-.1-.1-.1h-.3c0,0-.1,0-.2,0,0,0,0,0,0,0,0,.2.2.2.2.3h0c0,0-.1.1-.2.2,0,0-.2.1-.2.2,0,0-.2,0-.3.2h0c0,0,0,0,.1.1,0,0,.4,0,.4,0,0,0,.1-.1.2-.2.1,0,.2-.1.4-.2.1,0,.2-.2.3-.2h.1s.2-.1.1-.2c0,0,0,0,0,0ZM25.3,32.4c0,0,.2-.3.3-.3,0-.1,0-.2-.2-.2,0,0-.1,0-.2.1l-.5.3c0,0-.2,0-.2.1h0c.2.1.3,0,.4,0,0,0,0,.1,0,.2-.1.1-.3.2-.4.4h0c0-.2,0-.2-.1-.3,0,0-.2,0-.2,0,0,.1,0,.2.1.3h0c0,.1.2.2.2.2.1,0,.1,0,.2-.1,0,0,.1,0,.2,0h.2c0-.1.2-.2.2-.2,0,0,.2-.2.2-.3,0,0,0,0,0-.1ZM28.5,32.4h0c0,.1-.1.1-.2.2l-.5.2h0s0-.2.1-.3v-.3c.2-.1.4-.3.4-.4,0-.2-.2-.3-.4-.3-.1,0-.3,0-.5,0h-.3c0,.2.3.6.5.5.1,0,.2-.1.2-.2h0c0,0,0,.2,0,.2,0,.2,0,.3-.1.6,0,0,0,.2,0,.2,0,0-.3.2-.4.2-.2.1-.4.2-.7.3-.1,0-.4.1-.5.2,0,.2.3.4.5.2.3-.2.7-.4,1-.6,0,0,.3-.2.4-.2h0c0,0,0,0-.1.1t0,0c.1,0,.3-.2.5-.2h.1c.2,0,.4-.2.5-.3,0-.1-.2-.3-.3-.3ZM34.8,33.4c0,0-.3-.2-.4-.2,0,0,0,0-.2,0h0c0,.2,0,.2.1.3,0,0,0,.2,0,.2,0,.1.3.1.5.1,0-.1,0-.1,0-.3,0,0,0-.1,0-.1ZM37.4,33.4s0,0-.1,0c-.1,0-.2.2-.4.2,0-.1.1-.2,0-.3,0-.1-.3-.2-.4-.2h0c0,.3,0,.2.2.3,0,0,0,.1,0,.2,0,0,0,0,0,.1,0,0-.2,0-.3.2h0c0,0-.2,0-.3.1h0c.1.1.3.2.4.1h.2c0-.1,0-.1,0,0,0,0,0,0,0,.1-.1.4-.4,0-.6.1h0c0,.2.5.3.7.2.1,0,.4-.2.3-.4,0,0,0-.2,0-.3,0,0,0,0,0,0h0s0,0,0,.1c0,0,.1,0,.1,0,0,0,.1,0,.2-.1,0,0,.2,0,.2,0,0-.1,0-.2-.2-.2ZM37.6,32c0,0,0,.2-.2.2h0c0-.1.1-.3.2-.3h0c0-.1,0-.2,0-.2h0c0-.2.2-.2.2-.4,0,0,0-.2,0-.2,0,0-.2,0-.3,0,0,0,0,0,0,.1h0c0,.2,0,.2,0,.3,0,.2-.1.3-.2.4h0c0,0,0-.1,0-.2,0,0-.1,0-.1-.1h0c0-.2,0-.3-.1-.3,0,0,0,0,0,0,.1-.1.2-.3,0-.4,0,0,0,0-.2,0,0,0,0,0,0,0,0,0,0,.1,0,.2,0,0,0,.2-.1.3,0,0-.2,0-.3.1h0c0,0,.1,0,.1.1h0c0,0,0,.1-.1.2h0s0,0,0,0h0s.2,0,.2,0h.1c0,0,0,0,0-.1h0c0,0,0,.2,0,.3,0,0-.2,0-.2,0,0,0,0,0,0,.1,0,0,0,0,.1,0,0,.1-.2.3-.2.4h0c0,0,.4-.2.4-.2.2,0,.2,0,.3,0h0s0,0,0,.1c0,0-.2,0-.2.1-.1,0-.6.4-.7.3,0,0,0-.1,0-.2,0-.2-.2-.4-.4-.4,0,0,0,.1,0,.2,0,.3,0,.3.3.4,0,0,0,0,0,0,0,0,0,0,0,0h0c0,0,.3.1.4,0,.2-.1.4-.3.6-.4h.1c0,0,0,0,0,0,0,0,.2-.1.3-.1h0c0,.2-.5.5-.7.7h0s0,0,0,0c.2,0,.3-.1.4-.2h.2c.2-.2.4-.4.5-.6,0,0,0,0,0,0,0-.1-.2-.3-.4-.3ZM36.9,32s0,0,0,0c0,0,0-.2,0-.2h0c0,0,0,.2,0,.2ZM35.4,33.1h0c0,0,0,.2,0,.2,0,0-.2.2-.1.4,0,0,.2.2.3.1.2,0,.3-.7,0-.7h0ZM32.3,31.5c0-.1-.2-.1-.3,0,0,0-.1,0-.2.1-.1,0-.3.2-.4.2,0,0-.2.2-.3.1,0,0,0-.2,0-.2h.2c.2-.1.5-.3.6-.5,0,0-.2-.2-.3-.2-.1,0-.2.1-.3.2-.1,0,0-.3-.2-.3,0,0,0,.2,0,.3h0c0,.2-.1.2-.2.3h0c0-.2,0-.4-.3-.3,0,0,0,.1,0,.2h0c0,.2,0,.3,0,.3,0,.1-.3.1-.5.2,0,.1.2.3.3.3,0,0,0,0,.2,0,0,0,.1.1.2.1,0,0,0,0,.1,0h0s0,0,0,0c0,0-.4.2-.5.2-.2.1-.4.2-.6.3-.1,0-.2.2-.4.3-.1,0-.5.2-.4.4h0c0,0,.1,0,.2,0h.3c.2-.1.3-.3.4-.4,0,0,.1,0,.2-.1,0,0,.1-.2.3-.2h0c0,.1,0,.2,0,.3.2,0,.2-.1.3-.2,0,0,.1,0,.2-.1,0,0,0,0,0,0h0c0,0,0,0,0,0,0,.1,0,.2-.2.3,0,0,0,0-.1,0h0c0,.1.1,0,.2.1,0,0,0,0,0,0h0c0,0-.1,0-.2,0,0,.1.1.1.2.2h0c0,0-.1.1-.1.1,0,0,.2.2,0,.3,0,0-.4.2-.5.2,0,0,0,0-.1,0-.2.1.1.4.2.4,0,0,0-.2.1-.3.1,0,.2,0,.3.1h0c.2.1,0,0,.1-.2,0,0,.4-.2.5-.2,0-.2-.1-.3-.2-.4-.1,0,0,.3-.2.4h0s0,0,0,0c0-.2,0-.4.1-.6,0,0,.1-.2.1-.3h0c0-.2,0-.2,0-.2,0,0,0,0,0-.1h0s0,0,0,0h0c0,0,0-.1,0-.2,0,0,0,0,0,0,.1,0,.3-.2.4-.3,0,0-.2-.2-.3-.2,0,0,0,0-.1,0h0,0c.1,0,.2-.2.4-.2h.1s.2,0,.2,0c.1,0,.2,0,.2,0,0,0,.2-.1.2-.2h0ZM31.4,31.1h0c0,0-.1.2-.2.3h0c0-.2.1-.2.2-.3ZM30.8,34.2s0,0-.2,0h0c0-.1,0-.2.1-.2h0s0,0,0,.2h0ZM30.7,31.6s0,0,.1,0h0c0,0,0,.1,0,.2h0s0,0,0,0h0ZM30.8,31.9s0,0,0,0c0,0,0,0,0,0,0,0,0,0,0,0h0s0,0,0,0c0,0,0,0,0,0h0ZM30.7,32.6s0,0,0,0c0-.2.2-.3.3-.3,0,0,0,0,.1,0,0,0,0,0,0,0,0,0-.4.3-.5.4h0ZM34.5,31.9c0,0-.2-.1-.3,0-.1,0-.2.2-.3.3,0,0,0,0-.1,0,0,0,0-.1,0-.2,0-.2,0-.3,0-.5,0-.1-.4-.4-.5-.4h0c-.1.3,0,.4.1.6,0,.1.1.8,0,.9s-.3.2-.3.2c-.2.1-.4.3-.6.4h-.3c0,.1-.1.1-.2.1,0,.3,0,.4.4.3.2,0,.3-.2.5-.3.1-.1.3-.3.5-.3h0c0,0,0,.2,0,.3-.1.2-.3.4-.6.5-.1,0-.3,0-.4.1h0c.1,0,.3,0,.4,0h.1c.4,0,.5-.2.7-.5,0,0,0-.1.1-.2,0-.2,0-.3.1-.5,0,0,0-.1,0-.2,0,0,.2-.1.2-.2h.1c0-.2.1-.2.2-.3,0,0,.2-.1.1-.3ZM26.4,24h3.3v-.5s-3.3,0-3.3,0c0,0,0,.5,0,.5ZM26.4,27h3.3v-.5s-3.3,0-3.3,0v.5s0,0,0,0ZM23.6,21h10c1.5,0,2.2,1.3,2.1,2.4-.1.8-.8,1.4-1.1,1.5.8.2,1.4.9,1.5,1.6.3,1.8-1.3,2.4-1.9,2.4h-10.6s0-1.1,0-1.1h7.7c1.6-.1,1.3-2,0-2h-7.7s0-1,0-1h7.6c.9,0,1.5-1.2,1.2-1.9h-6s0-.4,0-.4h5.7c-.3-.3-.8-.5-1.3-.5h-7.2s0-1,0-1h0ZM29.5,11.5c4,0,7.6,1.6,10.2,4.2,2.7,2.7,4.2,6.4,4.2,10.2,0,4-1.6,7.6-4.2,10.2-2.7,2.7-6.4,4.2-10.2,4.2-4,0-7.6-1.6-10.2-4.2-2.7-2.7-4.2-6.4-4.2-10.2,0-4,1.6-7.6,4.2-10.2,2.7-2.7,6.4-4.2,10.2-4.2ZM39.3,16.1c-2.6-2.6-6.1-4.1-9.8-4.1-3.7,0-7.2,1.5-9.8,4.1-2.6,2.6-4.1,6.1-4.1,9.8,0,3.8,1.6,7.3,4.1,9.8,2.6,2.6,6.1,4.1,9.8,4.1,3.8,0,7.3-1.6,9.8-4.1,2.6-2.6,4.1-6.1,4.1-9.8,0-3.8-1.6-7.3-4.1-9.8ZM27.7,36.6h-.1v-1.2h-.2c0-.1.4-.1.4-.1v1.3h0ZM28.7,36.1c.2,0,.3-.1.3-.3,0,0,0,0,0,0,0-.2-.1-.3-.3-.3,0,0,0,0,0,0,0,0-.2,0-.2,0,0,0,0,.2,0,.2,0,0,0,.2,0,.2,0,0,.1,0,.2,0ZM28.7,36.6h-.2l.3-.5s0,0-.1,0c-.1,0-.2,0-.3-.1,0,0-.1-.2-.1-.3,0-.2.2-.5.4-.5,0,0,0,0,0,0,.2,0,.5.2.5.4,0,0,0,0,0,0,0,.1,0,.2-.2.4h0s-.3.5-.3.5ZM29.9,35.9c-.2,0-.3.1-.3.3,0,0,0,0,0,0,0,.2.1.3.3.3,0,0,0,0,0,0,0,0,.2,0,.2,0,0,0,0-.2,0-.2,0,0,0-.2,0-.2,0,0-.1,0-.2,0ZM30,35.3h.2l-.3.5s0,0,0,0c0,0,0,0,0,0,.1,0,.2,0,.3.1,0,0,.1.2.1.3,0,.2-.2.5-.4.5,0,0,0,0,0,0-.2,0-.4-.2-.5-.4,0,0,0,0,0,0,0-.1,0-.2.2-.4h0s.3-.5.3-.5ZM30.8,36.2c0,.1,0,.2,0,.3,0,0,.1,0,.2,0,0,0,.2,0,.2,0,0,0,0-.2,0-.3v-.5c0,0,0-.2,0-.3,0,0-.1,0-.2,0,0,0-.2,0-.2,0,0,0,0,.2,0,.3v.5ZM30.7,36.2v-.4c0,0,0-.2,0-.2,0,0,0,0,0-.1,0-.1.2-.2.4-.2.1,0,.3,0,.3.1,0,0,.1.2.1.4v.4c0,0,0,.1,0,.2,0,0,0,0,0,.1,0,0,0,.1-.2.1,0,0-.1,0-.2,0-.1,0-.3,0-.4-.2,0,0,0,0,0-.1,0,0,0-.1,0-.2ZM18.7,31.3s0,0,0,0c0,0,0,0,0,0h0c0-.2-.1-.3-.2-.3,0,0-.2,0-.3,0,0,0-.1.1-.2.2,0,0,0,.2,0,.3,0,0,0,.1,0,.1s0,0,0,0c0,0,.4-.2.4-.2ZM19.3,31s0,0,0,0c0,0,0,0,0-.1h0c0-.1-.1-.2-.2-.3,0,0-.2,0-.3,0-.1,0-.2.1-.2.2,0,0,0,.2,0,.3h0c0,.1,0,.1,0,.1,0,0,0,0,0,0l.4-.2h0ZM19.7,31.3h0c0,0,0-.1-.1-.1,0,0,0,0-.2,0l-.9.4c0,0-.1,0-.1.1,0,0,0,0,0,.2h0s-.3-.6-.3-.6c0-.2,0-.3,0-.4,0-.1,0-.2.2-.2,0,0,.1,0,.2,0,0,0,.2,0,.2.1,0,0,0-.2,0-.3,0,0,0-.1.2-.2.1,0,.3,0,.4,0,.1,0,.2.2.3.4,0,0,.3.6.3.6ZM19,29.9h0c0,0,0-.1,0-.1,0,0,0,0-.2,0l-1,.3c0,0-.1,0-.1,0,0,0,0,0,0,.2h0s-.4-1.2-.4-1.2h.3c0-.1,0,0,0,0,0,0-.1,0-.2.1,0,0,0,.1,0,.2v.4c.1,0,.1,0,.1,0,0,0,0,0,0,0h.4c0-.1,0-.1,0-.1,0,0,0,0,0,0v-.3c-.1-.1-.1-.2-.2-.2,0,0,0,0-.2,0h0s.5-.2.5-.2h0c0,0-.1.1-.1.1,0,0,0,.1,0,.2v.3c0,0,0,0,.1,0,0,0,0,0,0,0h.4c0-.1,0-.2,0-.2,0,0,0,0,0,0v-.3c-.1-.1-.2-.2-.2-.3,0,0-.2,0-.3,0h0s.4,0,.4,0l.4,1.3h0ZM18.6,28.3h0c0,0,0-.1,0-.2,0,0,0,0-.2,0l-1,.2c0,0-.1,0-.1,0,0,0,0,0,0,.2h0s-.1-.7-.1-.7h0c0,0,0,.1,0,.2,0,0,0,0,.2,0l1-.2c0,0,.1,0,.1,0,0,0,0,0,0-.2h0s.1.7.1.7ZM16.9,26.7h0c0,0,0,.1,0,.2,0,0,0,0,.2,0h.8c.1,0,.3,0,.4,0,0,0,.1.2.1.3,0,0,0,.1,0,.2,0,0,0,0-.1,0,0,0,0,0,0,0,0,0,0,0,0,0,0,0,0,0,0,0,0,0,0,0,0,0,0,0,0,0,0,0,0,0,0,0,0,0,0,0,0,0,0,0h-1c0,0-.1,0-.2.1,0,0,0,0,0,.2h0s0-.7,0-.7ZM18.3,26.4h0c0,0,0-.1,0-.2,0,0,0,0-.2,0h-1c0,0-.1,0-.2,0s0,0,0,.2h0v-.7h0c0,0,0,.1,0,.2,0,0,0,0,.2,0h1c0,0,.1,0,.2,0,0,0,0,0,0-.2h0s0,.7,0,.7ZM18.1,25.1c0,0,.1,0,.2,0,0,0,0,0,0-.2h0s0,.5,0,.5h0c0,0,0-.2,0-.2,0,0,0,0-.2,0h-1c0-.1,0-.1-.1,0,0,0,0,0,0,.1h0s0-.4,0-.4l1.2-.7h-.8c0-.1-.1-.1-.2,0,0,0,0,0,0,.2h0s0-.5,0-.5h0c0,0,0,.2,0,.2s0,0,.2,0l1.2.2h0s-1.3.9-1.3.9h.9c0,.1,0,.1,0,.1ZM18.8,22.2c0,.2,0,.4,0,.6,0,.2-.2.4-.4.5-.2.1-.4.1-.6,0-.2,0-.4-.2-.5-.4,0-.2-.1-.4,0-.6,0,0,0-.2.1-.3,0,0,0-.1,0-.1,0,0,0,0,0,0,0,0,0,0,0,0h0s.4,0,.4,0h0c-.1,0-.2,0-.3.1,0,0-.1.2-.2.3,0,.2,0,.3,0,.5,0,.1.2.2.4.3.2,0,.4,0,.5,0,.2,0,.3-.2.3-.4,0,0,0-.1,0-.2,0,0,0-.1,0-.2h-.4c0-.1-.1-.1-.2-.1,0,0,0,0,0,.2h0s.2-.6.2-.6h0c0,0,0,.1,0,.2,0,0,0,0,.1,0h.4c0,.1,0,.1,0,.1ZM17.9,20.9h0s.3-.6.3-.6h0c0,0,0,.2,0,.2,0,0,0,0,.1.1l.6.3c.2,0,.3.1.4,0s.2,0,.3-.2c0-.1,0-.2,0-.4,0-.1-.1-.2-.3-.3l-.6-.3c0,0-.1,0-.2,0,0,0,0,0-.1.1h0s.2-.5.2-.5h0c0,0,0,.1,0,.2s0,0,.1.1l.5.3c.2,0,.3.2.3.4,0,.1,0,.3,0,.5,0,0-.1.2-.2.2,0,0-.1,0-.2.1,0,0-.1,0-.2,0,0,0-.2,0-.3-.1l-.5-.3c-.1,0-.2,0-.2,0,0,0,0,0-.1.1ZM20.1,19.5c0,0,.1,0,.1,0s0,0,.1-.1h0s-.3.4-.3.4h0c0-.1,0-.2,0-.2,0,0,0,0,0-.1l-.8-.7s0,0-.1,0c0,0,0,0-.1,0h0s.2-.3.2-.3h1.4s-.6-.5-.6-.5c0,0-.1,0-.1,0,0,0,0,0-.1.1h0s.3-.4.3-.4h0c0,.1,0,.2,0,.2,0,0,0,0,0,.1l1,.8h0s-1.6,0-1.6,0c0,0,.7.6.7.6ZM21.2,18.5h0c0,0,0-.1,0-.2,0,0,0,0,0-.1l-.7-.7c0,0-.1,0-.1,0,0,0,0,0-.2,0h0s.5-.5.5-.5h0c0,0,0,.2,0,.2,0,0,0,0,0,.1l.7.7c0,0,.1,0,.1,0,0,0,0,0,.2,0h0s-.5.5-.5.5ZM22.4,17.4l-1.2-.6c0,0-.1,0-.2,0,0,0-.1,0-.1,0h0s.5-.4.5-.4h0c0,0,0,.1,0,.1,0,0,0,0,0,0,0,0,0,0,.2.2.1,0,.4.2.7.4l-.2-.9s0,0,0,0c0,0,0,0,0,0,0,0,0,0,0,0,0,0,0,0-.1,0h0s.4-.3.4-.3h0c0,0,0,0,0,.1,0,0,0,.1,0,.2l.3,1.3s0,0,0,0ZM23.2,16.7h0c0,0,.1-.1.1-.2,0,0,0,0,0-.2l-.5-.9c0,0,0-.1-.1-.1,0,0,0,0-.2,0h0s1.1-.7,1.1-.7l.2.3h0c0,0-.1,0-.2-.1,0,0-.1,0-.2,0l-.3.2s0,0,0,0c0,0,0,0,0,0l.2.3s0,0,0,0c0,0,0,0,0,0h.3c.1-.2.2-.2.2-.3,0,0,0,0,0-.2h0s.2.4.2.4h0s0,0-.1-.1c0,0-.1,0-.2,0h-.3c0,.2,0,.2,0,.2,0,0,0,0,0,0l.2.4s0,0,0,0c0,0,0,0,0,0l.3-.2c.1,0,.2-.1.2-.2,0,0,0-.2,0-.3h0s0,.4,0,.4c0,0-1.1.6-1.1.6ZM24.7,15s0,0,0,0c0,0,0,0,0,0,.2,0,.3-.1.3-.2,0,0,0-.2,0-.3,0,0-.1-.2-.2-.2,0,0-.2,0-.3,0,0,0,0,0-.1,0,0,0,0,0,0,0l.2.4h0ZM24.6,15.9h0s0,0,0,0c0,0,.1,0,.1,0,0,0,0,0,0-.2l-.4-.9c0,0,0-.1,0-.1,0,0,0,0-.2,0h0s.7-.3.7-.3c.2,0,.3,0,.4,0,.1,0,.2,0,.2.2,0,0,0,.2,0,.3,0,0-.1.2-.2.2.3.2.5.3.6.3.1,0,.2,0,.2,0h0s-.3.2-.3.2c-.1,0-.3-.1-.4-.2-.1,0-.3-.1-.4-.2h-.1c0,0,0,0,0,0,0,0,0,0,0,0v.3c.2,0,.2.1.2.1,0,0,0,0,.2,0h0s0,0,0,0l-.6.3h0ZM26.3,15.3l-.2-.4h0c0,0,.2.2.3.2,0,0,.2,0,.3,0,0,0,.1,0,.2-.1,0-.1,0-.3,0-.3,0,0-.1,0-.2,0h-.3c0-.1-.2-.2-.2-.2,0,0,0-.1-.1-.2,0-.1,0-.2,0-.3,0,0,.2-.2.3-.2,0,0,.1,0,.2,0,0,0,0,0,.1,0,0,0,0,0,0,0,0,0,0,0,0,0h0s.1.4.1.4h0c0,0-.1-.2-.2-.2,0,0-.2,0-.2,0,0,0-.1,0-.2,0,0,0,0,.1,0,.2,0,0,0,0,0,.1,0,0,.1,0,.2,0h.3c0,.1.2.2.3.2,0,0,0,.1.1.2,0,.1,0,.2,0,.3,0,.1-.2.2-.3.2,0,0-.1,0-.2,0,0,0,0,0-.1,0,0,0,0,0,0,0,0,0,0,0,0,0h0s0,0,0,0ZM27.5,15h0c0,0,.1,0,.2-.1,0,0,0,0,0-.2v-1c-.1,0-.2-.1-.2-.1,0,0,0,0-.2,0h0s.7-.1.7-.1h0c0,0-.1,0-.2.1,0,0,0,0,0,.2v1c.1,0,.2.1.2.1,0,0,0,0,.2,0h0s-.7.1-.7.1ZM28.7,14.8h0c0,0,.2,0,.2,0,0,0,0,0,0-.2v-1.1s0,0,0,0c0,0,0,0,0,0h0c-.1,0-.2,0-.3,0,0,0,0,.1,0,.2h0v-.4h1.4v.4h0c0-.1,0-.2,0-.2,0,0-.2,0-.3,0s0,0,0,0c0,0,0,0,0,0v1.1c0,.1,0,.2,0,.2,0,0,0,0,.2,0h0s-.7,0-.7,0ZM30.4,14.8h0s0,0,0,0c0,0,.1,0,.2,0s0,0,0-.1v-.4s-.4-.7-.4-.7c0,0,0,0,0,0,0,0,0,0-.1,0h0s.7,0,.7,0h0s0,0-.1,0c0,0,0,0,0,0,0,0,0,0,0,0,0,0,0,0,0,0l.3.5.4-.4s0,0,0,0c0,0,0,0,0,0,0,0,0,0,0,0,0,0,0,0-.1,0h0s.5,0,.5,0h0s0,0-.1,0c0,0,0,0-.1.1l-.5.5v.4c0,0,0,.1,0,.1,0,0,0,0,.2,0h0s-.7,0-.7,0ZM32.6,14.5c0,.2,0,.4,0,.5,0,.1.2.3.3.3.1,0,.3,0,.4,0,.1,0,.2-.2.3-.4,0-.2,0-.4,0-.5,0-.1-.2-.3-.3-.3-.1,0-.3,0-.4,0-.1,0-.2.2-.3.4h0ZM32.4,14.4c0-.2.2-.4.4-.5.2,0,.4,0,.6,0,.2,0,.4.2.5.4,0,.2,0,.4,0,.6,0,.2-.2.4-.4.5-.2,0-.4,0-.6,0-.2,0-.4-.2-.5-.4,0-.2,0-.4,0-.6ZM33.8,15.7h0c0,0,.1,0,.2,0,0,0,0,0,.1-.1l.5-.9c0,0,0-.1,0-.2s0,0-.1-.1h0s1.1.5,1.1.5v.3c-.1,0-.2,0-.2,0,0,0,0-.2,0-.2,0,0,0-.1-.2-.2h-.3c0-.2,0-.2,0-.2,0,0,0,0,0,0l-.2.4s0,0,0,0c0,0,0,0,0,0h.2c0,.1.2.2.2.2,0,0,0,0,.1-.1h0s-.2.5-.2.5h0c0-.1,0-.2,0-.2,0,0,0,0-.2-.1h-.2c0-.1,0-.1,0-.1,0,0,0,0,0,0l-.2.4c0,0,0,.1,0,.2,0,0,0,0,.1.1h0s-.6-.3-.6-.3ZM35.7,16.7h0c0,0,.1,0,.2,0,0,0,0,0,.1-.1l.6-.9s0,0,0,0c0,0,0,0,0,0h0c-.1-.1-.2-.1-.3-.1,0,0-.1,0-.2.1h0s.2-.3.2-.3l1.1.8-.2.3h0c0-.1,0-.2,0-.3s0-.1-.2-.2c0,0,0,0,0,0,0,0,0,0,0,0l-.6.9c0,0,0,.2,0,.2,0,0,0,0,.1.1h0s-.6-.4-.6-.4h0ZM36.7,17.5h0c0,0,.1,0,.2,0,0,0,0,0,.1,0l.7-.7c0,0,0-.1,0-.1s0,0,0-.2h0s.9.8.9.8l-.2.3h0c0-.1,0-.2,0-.2s0-.1-.1-.2l-.3-.3s0,0,0,0c0,0,0,0,0,0l-.3.3s0,0,0,0,0,0,0,0l.2.2c0,0,.2.1.2.1,0,0,0,0,.2,0h0s-.3.4-.3.4h0c0,0,0-.2,0-.2,0,0,0-.1-.1-.2l-.2-.2s0,0,0,0,0,0,0,0l-.3.3s0,0,0,0c0,0,0,0,0,0l.3.2c.1,0,.2.2.3.2,0,0,.2,0,.3,0h0s-.3.2-.3.2c0,0-1-.9-1-.9ZM39,19.5h0c-.1,0-.3,0-.4,0-.1,0-.2-.1-.3-.2-.1-.2-.2-.4-.2-.6,0-.2.1-.4.3-.5.2-.1.4-.2.6-.2.2,0,.4.1.5.3,0,0,.1.2.1.2,0,0,0,.1,0,.2,0,0,0,0,0,0,0,0,0,0,0,0h0s-.3.4-.3.4h0c0-.1.1-.3.1-.4,0-.1,0-.2-.1-.3,0-.1-.2-.2-.4-.2-.2,0-.3,0-.5.2-.1.1-.2.3-.3.4,0,.2,0,.3.1.4,0,0,.2.2.2.2,0,0,.2,0,.3,0ZM38.8,19.9h0c0,0,0,0,.1.1,0,0,0,0,.2,0l.9-.5c0,0,.1,0,.1-.1,0,0,0,0,0-.2h0s.3.6.3.6h0c0,0,0,0-.1-.1,0,0,0,0-.2,0l-.3.2s0,0,0,0c0,0,0,0,0,0l.3.5s0,0,0,0c0,0,0,0,0,0l.3-.2c0,0,.1,0,.1-.1,0,0,0,0,0-.2h0s.3.6.3.6h0c0,0,0,0-.1-.1,0,0,0,0-.2,0l-.9.5c0,0-.1,0-.1.1,0,0,0,0,0,.2h0s-.3-.6-.3-.6h0c0,0,0,0,.1.1,0,0,0,0,.2,0l.4-.2s0,0,0,0c0,0,0,0,0,0l-.3-.5s0,0,0,0c0,0,0,0,0,0l-.4.2c0,0-.1,0-.1.1,0,0,0,0,0,.2h0s-.3-.6-.3-.6h0ZM40.1,21.7c0,0-.1,0-.1,0,0,0,0,0,0,.2h0s-.2-.5-.2-.5h0c0,0,0,.1,0,.1,0,0,0,0,.2,0l1-.3s0,0,0-.1c0,0,0,0,0-.1h0s.1.3.1.3l-.7,1.2.8-.2c0,0,.1,0,.1,0s0,0,0-.2h0s.2.5.2.5h0c0,0,0-.1,0-.1,0,0,0,0-.2,0l-1.2.4h0s.8-1.4.8-1.4c0,0-.9.3-.9.3ZM41.1,23.4c-.2,0-.4.1-.5.2-.1.1-.1.3-.1.4,0,.2.1.3.2.3.1,0,.3,0,.5,0,.2,0,.4-.1.5-.2.1-.1.2-.3.1-.4,0-.1-.1-.3-.2-.3-.1,0-.3,0-.5,0h0ZM41,23.1c.2,0,.4,0,.6.1.2.1.3.3.3.5,0,.2,0,.4-.1.6-.1.2-.3.3-.5.3-.2,0-.4,0-.6-.1-.2-.1-.3-.3-.3-.5,0-.2,0-.4.1-.6.1-.2.3-.3.5-.3ZM40.6,25h0s0,0,0,0c0,0,0,.1,0,.2,0,0,0,0,.2,0h1c0,0,.1,0,.2,0,0,0,0,0,0-.2h0s0,.7,0,.7h0c0,0,0-.1,0-.2,0,0,0,0-.2,0h-1c0,0-.1,0-.1,0,0,0,0,0,0,.1v.3c0,.1,0,.2,0,.3,0,0,.1.1.2.2h0s-.4,0-.4,0v-1.2s0,0,0,0ZM41.3,26.9c-.2,0-.4,0-.5,0-.1,0-.2.2-.2.3,0,.1,0,.3.1.4.1.1.3.2.5.2.2,0,.4,0,.5,0,.1,0,.2-.2.2-.3,0-.1,0-.3-.1-.4-.1-.1-.3-.2-.5-.2h0ZM41.3,26.6c.2,0,.4.1.5.3.1.2.2.4.1.6,0,.2-.1.4-.3.5-.2.1-.4.2-.6.1-.2,0-.4-.1-.5-.3-.1-.2-.2-.4-.1-.6,0-.2.1-.4.3-.5.2-.1.4-.2.6-.1ZM40.1,29.8c0-.1,0-.2,0-.3,0-.1,0-.2,0-.3,0-.2.2-.4.4-.5.2-.1.4-.1.6,0,.2,0,.4.2.5.4,0,.2.1.4,0,.6,0,0,0,.2-.1.3,0,0,0,0,0,.1,0,0,0,0,0,0,0,0,0,0,0,0h0s-.4,0-.4,0h0c.1,0,.2,0,.3-.2,0,0,.1-.2.2-.3,0-.2,0-.3,0-.5,0-.1-.2-.2-.4-.3-.2,0-.4,0-.5,0-.2,0-.3.2-.3.4,0,0,0,.1,0,.2,0,0,0,.1,0,.2h.4c0,.1.1.1.2.1,0,0,0,0,0-.2h0s-.2.6-.2.6h0c0,0,0-.1,0-.2,0,0,0,0-.1,0h-.4ZM39.7,30.4h0s0,0,0,0c0,0,0,.1,0,.2,0,0,0,0,.1.1l.4.2.8-.2s0,0,.1,0c0,0,0,0,0-.1h0s-.3.6-.3.6h0c0,0,0-.1,0-.2,0,0,0,0,0,0,0,0,0,0,0,0h0s-.6.1-.6.1l.3.5s0,0,0,0c0,0,0,0,0,0,0,0,0,0,0,0,0,0,0,0,0-.1h0s-.2.4-.2.4h0c0,0,0-.1,0-.1,0,0,0-.1,0-.2l-.4-.6-.4-.2c0,0-.1,0-.1,0,0,0,0,0-.1.1h0s.3-.6.3-.6h0ZM51.8,34s0,0,0,0c0,0,0,0,0,0,0,0,0,0,0,0h0c.1,0,.2,0,.3,0,0,0,.1,0,.2,0,0,0,0,0,0-.1,0,0,0-.1,0-.2,0,0,0-.1,0-.2,0,0,0,0,0-.1,0,0,0,0-.2,0,0,0-.2,0-.2,0,0,0,0,0-.1,0,0,0,0,0,0,0,0,0,0,0,0,0,0,0,0,0,0,0,0,0,0,.5,0,.5ZM51.8,35s0,0,0,0c0,0,0,0,0,0,0,0,0,0,0,0,0,0,0,0,.1,0h0c0,0,.2,0,.2,0,0,0,.1,0,.2,0,0,0,0,0,0-.1,0,0,0-.1,0-.2,0,0,0-.1,0-.2,0,0,0,0-.1-.1,0,0-.1,0-.2,0,0,0-.2,0-.3,0h-.1s0,0,0,0c0,0,0,0,0,0,0,0,0,0,0,0,0,0,0,0,0,0,0,0,0,.6,0,.6ZM51.2,35.2h0c0,0,0,0,0,0,0,0,0,0,.1,0,0,0,0,0,0,0,0,0,0,0,0,0,0,0,0,0,0-.1v-1.3s0,0,0-.1c0,0,0,0,0,0,0,0,0,0,0,0,0,0,0,0-.1,0h0c0-.1,1-.1,1-.1.1,0,.2,0,.3,0,0,0,.2,0,.2,0,0,0,.1,0,.2.2,0,0,0,.1,0,.2,0,.1,0,.2-.1.3,0,0,0,0-.1.1,0,0,0,0,0,0,0,0,0,0,.1,0,0,0,.1,0,.2.1,0,0,0,0,0,.1,0,.1,0,.3,0,.4,0,0,0,.1-.2.2,0,0-.2,0-.3.1-.1,0-.3,0-.4,0h-.9s0,0,0,0ZM53.3,35.2h0c0,0,0,0,0,0h0s0,0,.1,0c0,0,0,0,0,0,0,0,0,0,0,0,0,0,0,0,0-.1v-1.3c0,0,0,0,0-.1,0,0,0,0,0,0,0,0,0,0,0,0,0,0,0,0-.1,0h0c0-.1,1.7-.1,1.7-.1h0s0,.5,0,.5h0s-.1,0-.1,0h0c0,0,0-.1,0-.2,0,0,0,0,0,0,0,0,0,0-.1,0,0,0-.1,0-.2,0h-.5s0,0,0,0c0,0,0,0,0,0h0s0,0,0,0c0,0,0,0,0,0v.5s0,0,0,0c0,0,0,0,0,0,0,0,0,0,0,0,0,0,0,0,0,0h.4c0,0,.1,0,.2,0,0,0,0,0,0,0,0,0,0,0,0,0,0,0,0,0,0-.1h0s.1,0,.1,0v.7h-.1c0,0,0-.1,0-.2,0,0,0,0,0,0,0,0,0,0,0,0,0,0-.1,0-.2,0h-.4s0,0,0,0c0,0,0,0,0,0h0s0,0,0,0c0,0,0,0,0,0v.6s0,0,0,0c0,0,0,0,0,0,0,0,0,0,0,0,0,0,0,0,0,0h.5c0,0,.2,0,.2,0,0,0,.1,0,.2,0,0,0,0,0,.1-.1,0,0,0-.1,0-.2h0s0,0,0,0h0s0,0,0,0h0s-.2.5-.2.5h0s-1.8,0-1.8,0c0,0,0,0,0,0ZM55.4,35.2h0c0-.1,0-.1,0-.1,0,0,0,0,.1,0,0,0,0,0,0,0,0,0,0,0,0,0,0,0,0,0,0-.1v-1.3s0,0,0-.1c0,0,0,0,0,0,0,0,0,0,0,0,0,0,0,0-.1,0h0c0-.1,1-.1,1-.1h0s0,0,0,0h0s0,0,0,0c0,0,0,0-.1,0,0,0,0,0,0,0,0,0,0,0,0,0,0,0,0,0,0,.1v1.3s0,0,0,.1c0,0,0,0,0,0,0,0,0,0,0,0,0,0,0,0,.1,0h0s0,0,0,0h0s-1,0-1,0h0ZM57.8,33.2h0c0,.1,0,.1,0,.1,0,0,0,0-.1,0,0,0,0,0,0,0,0,0,0,0,0,0,0,0,0,0,0,.1v1.1c0,0,0,.2,0,.3,0,0,0,.1-.1.2,0,0-.1,0-.2.1-.1,0-.3,0-.4,0,0,0,0,0-.1,0,0,0,0,0,0,0,0,0,0,0,0-.1,0,0,0,0,0-.1,0,0,0,0,0,0,0,0,0,0,.1,0,0,0,0,0,0,0,0,0,0,0,0,0h0s0,0,0,0c0,0,0,0,0,0,0,0,0,0,0,0,0,0,0,0,0,0,0,0,0,0,0,0,0,0,0,0,0,0,0,0,0,0,0,0v-1.4s0,0,0-.1c0,0,0,0,0,0,0,0,0,0,0,0,0,0,0,0-.1,0h0c0-.1,1-.1,1-.1h0ZM58.1,35.2h0c0-.1,0-.1,0-.1,0,0,0,0,.1,0,0,0,0,0,0,0,0,0,0,0,0,0,0,0,0,0,0-.1v-1.3s0,0,0-.1c0,0,0,0,0,0,0,0,0,0,0,0,0,0,0,0-.1,0h0c0-.1,1-.1,1-.1h0s0,0,0,0h0s0,0,0,0c0,0,0,0-.1,0,0,0,0,0,0,0,0,0,0,0,0,0,0,0,0,0,0,.1v1.3s0,0,0,.1c0,0,0,0,0,0,0,0,0,0,0,0,0,0,0,0,.1,0h0s0,0,0,0h0s-1,0-1,0ZM59.7,34.9s0,0,0,.1c0,0,0,0,0,0,0,0,0,0,0,0,0,0,0,0,.1,0h0c0,.1-.8.1-.8.1h0c0-.1,0-.1,0-.1,0,0,0,0,.1,0,0,0,0,0,0,0,0,0,0,0,0,0,0,0,0,0,0-.1v-1.4s0,0,0,0c0,0,0,0-.1,0,0,0,0,0,0,0h0c0-.1.5-.1.5-.1h0s1.1,1.4,1.1,1.4v-1s0,0,0-.1c0,0,0,0,0,0,0,0,0,0,0,0,0,0,0,0-.1,0h0c0-.1.8-.1.8-.1h0c0,.1,0,.1,0,.1,0,0,0,0-.1,0,0,0,0,0,0,0,0,0,0,0,0,0,0,0,0,0,0,.1v1.7h-.1s-1.3-1.6-1.3-1.6c0,0,0,1.2,0,1.2ZM63.6,35c-.1,0-.3.1-.4.2-.1,0-.3,0-.4,0-.2,0-.3,0-.4,0-.1,0-.3-.1-.4-.2-.1,0-.2-.2-.2-.3,0-.1,0-.3,0-.4,0-.2,0-.3,0-.4.1-.3.3-.5.6-.6.3,0,.6-.1.8,0,0,0,.1,0,.2,0,0,0,0,0,0,0,0,0,0,0,0,0,0,0,0,0,0,0,0,0,0,0,0,0h0s0,0,0,0h0s0,0,0,0h0s0,.6,0,.6h0s-.1,0-.1,0h0c0,0,0-.2-.1-.2,0-.1-.2-.2-.3-.2,0,0-.1,0-.2,0-.1,0-.2,0-.3,0,0,0-.2.1-.2.2,0,0-.1.2-.2.3,0,.1,0,.2,0,.4,0,.1,0,.3,0,.4,0,.1,0,.2.2.3,0,0,.2.1.2.2.1,0,.3,0,.4,0,0,0,.2,0,.2,0,0,0,0,0,0,0v-.5c0,0,0,0,0-.1,0,0,0,0,0,0,0,0,0,0,0,0,0,0-.1,0-.2,0h0c0-.1.9-.1.9-.1h0c0,.1,0,.1,0,.1,0,0,0,0-.1,0,0,0,0,0,0,0,0,0,0,0,0,0,0,0,0,0,0,.1v.6s0,0,0,0ZM64.6,33.3h0c0-.1.9-.1.9-.1h0c0,.1,0,.1,0,.1,0,0,0,0-.1,0,0,0,0,0,0,0,0,0,0,0,0,0,0,0,0,0,0,.1v.8c0,.1,0,.2,0,.3,0,0,0,.2,0,.2,0,0,0,0,.2.1,0,0,.2,0,.2,0,0,0,.2,0,.3,0,0,0,.1,0,.2-.1,0,0,0-.1.1-.2,0,0,0-.2,0-.3v-.8s0,0,0-.1c0,0,0,0,0,0,0,0,0,0,0,0,0,0,0,0-.1,0h0s0,0,0,0h0s.8,0,.8,0h0c0,.1,0,.1,0,.1,0,0,0,0-.1,0,0,0,0,0,0,0,0,0,0,0,0,0,0,0,0,0,0,.1v.8c0,.3,0,.5-.2.7,0,0-.2.1-.3.2-.1,0-.2,0-.4,0,0,0-.1,0-.2,0,0,0-.1,0-.2,0,0,0-.1,0-.2,0-.1,0-.2-.2-.3-.3,0,0,0-.1,0-.2,0,0,0-.1,0-.2v-.7c0,0,0-.1,0-.2,0,0,0,0,0-.1,0,0,0,0,0,0,0,0,0,0-.1,0,0,0,0,0,0,0ZM67.6,34.9s0,0,0,.1c0,0,0,0,0,0,0,0,0,0,0,0,0,0,0,0,.1,0h0c0,.1-.8.1-.8.1h0c0-.1,0-.1,0-.1,0,0,0,0,.1,0,0,0,0,0,0,0,0,0,0,0,0,0,0,0,0,0,0-.1v-1.4c0,0,0,0-.1-.1,0,0,0,0,0,0,0,0,0,0,0,0h0c0-.1.6-.1.6-.1h0s1.1,1.4,1.1,1.4v-1s0,0,0-.1c0,0,0,0,0,0,0,0,0,0,0,0,0,0,0,0-.1,0h0c0-.1.8-.1.8-.1h0c0,.1,0,.1,0,.1,0,0,0,0-.1,0,0,0,0,0,0,0,0,0,0,0,0,0,0,0,0,0,0,.1v1.7h-.1s-1.3-1.6-1.3-1.6c0,0,0,1.2,0,1.2ZM69.5,35.2h0c0-.1,0-.1,0-.1,0,0,0,0,.1,0,0,0,0,0,0,0,0,0,0,0,0,0,0,0,0,0,0-.1v-1.3s0,0,0-.1c0,0,0,0,0,0,0,0,0,0,0,0,0,0,0,0-.1,0h0c0-.1,1-.1,1-.1h0s0,0,0,0h0s0,0,0,0c0,0,0,0-.1,0,0,0,0,0,0,0,0,0,0,0,0,0,0,0,0,0,0,.1v1.3s0,0,0,.1c0,0,0,0,0,0,0,0,0,0,0,0,0,0,0,0,.1,0h0s0,0,0,0h0s-1,0-1,0h0ZM71.7,35.3l-.7-1.6c0,0,0-.1,0-.2,0,0,0,0,0-.1,0,0-.1,0-.2,0h0c0-.1.9-.1.9-.1h0s0,0,0,0h0s0,0,0,0c0,0,0,0-.1,0,0,0,0,0,0,0,0,0,0,0,0,0,0,0,0,0,0,0,0,0,0,0,0,.1,0,0,0,.1,0,.2,0,0,0,.2.2.4,0,.2.2.3.2.5l.5-1.1s0,0,0-.1c0,0,0,0,0,0,0,0,0,0,0,0,0,0,0,0,0,0,0,0,0,0,0,0,0,0,0,0,0,0,0,0,0,0-.1,0h0s0,0,0,0h0s.7,0,.7,0h0c0,.1,0,.1,0,.1,0,0,0,0-.1,0,0,0,0,0,0,0,0,0,0,0,0,.1l-.7,1.7h0s0,0,0,0h0s0,0,0,0ZM73.1,35.2h0c0,0,0,0,0,0h0s0,0,.1,0c0,0,0,0,0,0,0,0,0,0,0,0,0,0,0,0,0-.1v-1.3c0,0,0,0,0-.1,0,0,0,0,0,0,0,0,0,0,0,0,0,0,0,0-.1,0h0c0-.1,1.7-.1,1.7-.1h0s0,.5,0,.5h0s-.1,0-.1,0h0c0,0,0-.1,0-.2,0,0,0,0,0,0,0,0,0,0-.1,0,0,0-.1,0-.2,0h-.5s0,0,0,0c0,0,0,0,0,0,0,0,0,0,0,0,0,0,0,0,0,0v.5s0,0,0,0c0,0,0,0,0,0,0,0,0,0,0,0,0,0,0,0,0,0h.4c0,0,.1,0,.2,0,0,0,0,0,0,0,0,0,0,0,0,0,0,0,0,0,0-.1h0s.1,0,.1,0v.7h-.1c0,0,0-.1,0-.2,0,0,0,0,0,0,0,0,0,0,0,0,0,0-.1,0-.2,0h-.4s0,0,0,0c0,0,0,0,0,0h0s0,0,0,0c0,0,0,0,0,0v.6s0,0,0,0c0,0,0,0,0,0,0,0,0,0,0,0,0,0,0,0,0,0h.5c0,0,.2,0,.2,0,0,0,.1,0,.2,0,0,0,0,0,.1-.1,0,0,0-.1,0-.2h0s0,0,0,0h0s0,0,0,0h0s-.2.5-.2.5h0s-1.8,0-1.8,0h0s0,0,0,0ZM75.9,34.1s0,0,0,0c0,0,0,0,0,0,0,0,0,0,0,0,0,0,0,0,0,0,.1,0,.2,0,.3,0,0,0,.1,0,.2,0,0,0,0,0,.1-.1,0,0,0-.1,0-.2,0,0,0-.1,0-.2,0,0,0,0,0-.1,0,0-.1,0-.2,0-.1,0-.2,0-.3,0,0,0,0,0,0,0,0,0,0,0,0,0,0,0,0,0,0,0v.6h0ZM75.2,35.2h0c0-.1,0-.1,0-.1,0,0,0,0,.1,0,0,0,0,0,0,0,0,0,0,0,0,0,0,0,0,0,0-.1v-1.3c0,0,0-.1,0-.2,0,0,0,0,0,0,0,0,0,0-.1,0h0c0-.1,1-.1,1-.1.1,0,.2,0,.3,0,0,0,.2,0,.2.1,0,0,.1.1.1.2,0,0,0,.1,0,.2s0,.1,0,.2c0,0,0,.1,0,.2,0,0-.1,0-.2.1,0,0-.1,0-.2,0,.1.2.2.3.3.4,0,.1.2.2.2.3,0,0,.1.1.2.1,0,0,0,0,0,0h0c0,.1-.5.1-.5.1h0c-.3-.3-.5-.6-.7-.9h-.2s0,0,0,0c0,0,0,0,0,0h0s0,0,0,0c0,0,0,0,0,0v.5c0,0,0,0,0,.1,0,0,0,0,0,0,0,0,0,0,0,0,0,0,0,0,.1,0h0c0,.1-1,.1-1,.1ZM77.7,35.3v-.6c-.1,0-.1,0-.1,0h.1c0,0,0,.2.1.2,0,0,0,.1.1.2,0,0,.1,0,.2.1,0,0,.2,0,.3,0,0,0,.1,0,.2-.2,0-.1,0-.2,0-.3,0,0,0,0,0,0,0,0,0,0-.1,0l-.3-.2c0,0-.1,0-.2-.1,0,0,0,0-.1-.1,0,0,0-.2,0-.3,0-.1,0-.3.2-.4,0,0,.1,0,.2-.1.1,0,.2,0,.4,0,0,0,0,0,.1,0,0,0,.1,0,.2,0,0,0,0,0,0,0,0,0,0,0,0,0,0,0,0,0,0,0,0,0,0,0,0,0h0s0,0,0,0h0s0,.6,0,.6h0s-.1,0-.1,0h0c0,0,0-.2,0-.2,0,0,0-.1-.1-.2-.1-.1-.3-.2-.4-.1,0,0,0,0,0,0,0,0,0,.1,0,.2,0,0,0,.1,0,.2,0,0,0,0,0,0,0,0,0,0,.1,0l.3.2c0,0,.1,0,.2.1,0,0,0,0,.1.1,0,0,0,0,0,.1,0,0,0,.1,0,.2,0,0,0,.2,0,.2,0,0,0,.1-.1.2,0,0-.1,0-.2.1,0,0-.2,0-.3,0,0,0-.2,0-.3,0,0,0-.1,0-.2,0,0,0,0,0,0,0,0,0,0,0,0,0,0,0,0,0,0,0,0,0,0,0,0,0h0s0,0,0,0c0,0,0,0,0,0ZM79.3,35.2h0c0-.1,0-.1,0-.1,0,0,0,0,.1,0,0,0,0,0,0,0,0,0,0,0,0,0,0,0,0,0,0-.1v-1.3s0,0,0-.1c0,0,0,0,0,0,0,0,0,0,0,0,0,0,0,0-.1,0h0c0-.1,1-.1,1-.1h0s0,0,0,0h0s0,0,0,0c0,0,0,0-.1,0,0,0,0,0,0,0,0,0,0,0,0,0,0,0,0,0,0,.1v1.3s0,0,0,.1c0,0,0,0,0,0,0,0,0,0,0,0,0,0,0,0,.1,0h0s0,0,0,0h0s-1,0-1,0ZM80.9,35.2h0c0-.1,0-.1,0-.1.1,0,.2,0,.2,0,0,0,0,0,0,0,0,0,0-.1,0-.2v-1.4s0,0,0,0c0,0,0,0,0,0,0,0,0,0,0,0h0c0,0-.2,0-.2,0,0,0,0,0-.1,0,0,0,0,0,0,.1,0,0,0,.1,0,.2h0s-.1,0-.1,0h0s0-.5,0-.5h0s1.8,0,1.8,0v.6h-.1c0,0,0-.2,0-.2,0,0,0,0,0-.1,0,0,0,0-.1,0-.1,0-.2,0-.3,0,0,0,0,0,0,0,0,0,0,0,0,0,0,0,0,0,0,0v1.4c0,0,0,.1,0,.2,0,0,0,0,0,0,0,0,0,0,0,0,0,0,0,0,.1,0h0s0,0,0,0h0s-1,0-1,0h0ZM83.2,35.2h0c0-.1,0-.1,0-.1,0,0,.2,0,.2,0,0,0,0,0,0,0,0,0,0,0,0-.1v-.5l-.6-.9s0,0,0,0c0,0,0,0-.1,0,0,0,0,0,0,0h0c0-.1,1-.1,1-.1h0c0,.1,0,.1,0,.1,0,0,0,0-.1,0,0,0,0,0,0,0,0,0,0,0,0,0,0,0,0,0,0,0,0,0,0,0,0,0,0,0,0,0,0,0h0s0,0,0,0l.4.6.4-.6s0,0,0-.1c0,0,0,0,0,0,0,0,0,0,0,0,0,0,0,0,0,0,0,0,0,0,0,0,0,0,0,0,0,0,0,0,0,0,0,0h0c0-.1.7-.1.7-.1h0c0,.1,0,.1,0,.1,0,0,0,0,0,0,0,0,0,0,0,0,0,0,0,0,0,0,0,0,0,0,0,.1l-.5.8v.6s0,0,0,0c0,0,0,0,0,0,0,0,0,0,0,0,0,0,0,0,.1,0h0c0,.1-1,.1-1,.1h0ZM85.9,34.2c0,.1,0,.3,0,.4s0,.2.1.3c0,0,.1.1.2.2,0,0,.2,0,.3,0s.2,0,.3,0c0,0,.1,0,.2-.2,0,0,.1-.2.1-.3,0-.1,0-.2,0-.4s0-.3,0-.4c0-.1,0-.2-.1-.3,0,0-.1-.1-.2-.2,0,0-.2,0-.3,0,0,0-.2,0-.3,0,0,0-.2.1-.2.2,0,0-.1.2-.1.3,0,.1,0,.2,0,.4h0ZM85.5,34.2c0-.2,0-.3,0-.4,0-.3.3-.5.6-.6.1,0,.3,0,.4,0s.3,0,.4,0c.3,0,.5.3.6.6,0,.1,0,.3,0,.4s0,.3,0,.4c0,.3-.3.5-.6.6-.1,0-.3,0-.4,0s-.3,0-.4,0c-.3,0-.5-.3-.6-.6,0-.1,0-.3,0-.4h0ZM87.9,35.2h0c0,0,0,0,0,0,0,0,0,0,.1,0,0,0,0,0,0,0,0,0,0,0,0,0,0,0,0,0,0-.1v-1.3c0,0,0,0,0-.1,0,0,0,0,0,0,0,0,0,0,0,0,0,0,0,0-.1,0h0c0-.1,1.7-.1,1.7-.1h0s0,.5,0,.5h0s-.1,0-.1,0h0c0,0,0-.1,0-.2,0,0,0,0,0,0,0,0,0,0-.1,0,0,0-.1,0-.2,0h-.4s0,0,0,0c0,0,0,0,0,0,0,0,0,0,0,0,0,0,0,0,0,0v.5s0,0,0,0c0,0,0,0,0,0,0,0,0,0,0,0,0,0,0,0,0,0h.3c0,0,.1,0,.2,0,0,0,0,0,0,0,0,0,0,0,0,0,0,0,0,0,0-.1h0s.1,0,.1,0v.8h-.1c0,0,0-.1,0-.2,0,0,0,0,0,0,0,0,0,0,0,0,0,0-.1,0-.2,0h-.3s0,0,0,0c0,0,0,0,0,0,0,0,0,0,0,0,0,0,0,0,0,0v.6c0,0,0,0,0,.1,0,0,0,0,0,0,0,0,0,0,0,0,0,0,0,0,.2,0h0s0,.1,0,.1h-1s0,0,0,0ZM90.8,35.2h0c0-.1,0-.1,0-.1.1,0,.2,0,.2,0,0,0,0,0,0,0,0,0,0-.1,0-.2v-1.4s0,0,0,0c0,0,0,0,0,0,0,0,0,0,0,0h0c0,0-.2,0-.2,0,0,0,0,0-.1,0,0,0,0,0,0,.1,0,0,0,.1,0,.2h0s-.1,0-.1,0h0s0-.5,0-.5h0s1.8,0,1.8,0v.6h-.1c0,0,0-.2,0-.2,0,0,0,0,0-.1,0,0,0,0-.1,0-.1,0-.2,0-.3,0,0,0,0,0,0,0,0,0,0,0,0,0,0,0,0,0,0,0v1.4c0,0,0,.1,0,.2,0,0,0,0,0,0,0,0,0,0,0,0,0,0,0,0,.1,0h0s0,0,0,0h0s-1,0-1,0h0ZM92.4,35.2h0c0,0,0,0,0,0,0,0,0,0,.1,0,0,0,0,0,0,0,0,0,0,0,0,0,0,0,0,0,0-.1v-1.3c0,0,0,0,0-.1,0,0,0,0,0,0,0,0,0,0,0,0,0,0,0,0-.1,0h0c0-.1,1.7-.1,1.7-.1h0s0,.5,0,.5h0s-.1,0-.1,0h0c0,0,0-.1,0-.2,0,0,0,0,0,0,0,0,0,0-.1,0,0,0-.1,0-.2,0h-.5s0,0,0,0c0,0,0,0,0,0,0,0,0,0,0,0,0,0,0,0,0,0v.5s0,0,0,0c0,0,0,0,0,0,0,0,0,0,0,0,0,0,0,0,0,0h.4c0,0,.1,0,.2,0,0,0,0,0,0,0,0,0,0,0,0,0,0,0,0,0,0-.1h0s.1,0,.1,0v.7h-.1c0,0,0-.1,0-.2,0,0,0,0,0,0,0,0,0,0,0,0,0,0-.1,0-.2,0h-.4s0,0,0,0c0,0,0,0,0,0h0s0,0,0,0c0,0,0,0,0,0v.6s0,0,0,0c0,0,0,0,0,0,0,0,0,0,0,0,0,0,0,0,0,0h.5c0,0,.2,0,.2,0,0,0,.1,0,.2,0,0,0,0,0,.1-.1,0,0,0-.1,0-.2h0s0,0,0,0h0s0,0,0,0h0s-.2.5-.2.5h0s-1.8,0-1.8,0h0s0,0,0,0ZM96.5,34.7h0c0,0,0,0,0,0h0c0,0-.1.2-.2.2-.1.1-.3.2-.4.2-.2,0-.5,0-.7,0-.3,0-.5-.3-.6-.6,0-.1,0-.3,0-.4,0-.2,0-.3,0-.4,0-.1.1-.2.2-.3,0,0,.2-.2.3-.2.2,0,.4,0,.6,0,0,0,.1,0,.2,0,0,0,.1,0,.2,0,0,0,0,0,0,0,0,0,0,0,0,0,0,0,0,0,0,0,0,0,0,0,0,0h0s.1,0,.1,0h0s0,.7,0,.7h0s-.1,0-.1,0h0c0,0,0-.2-.1-.2,0,0,0-.1-.1-.2,0,0-.1,0-.2,0,0,0-.1,0-.2,0-.2,0-.4,0-.5.2,0,0-.1.2-.2.3,0,.1,0,.2,0,.4s0,.2,0,.4c0,.1,0,.2.2.3,0,0,.1.1.2.2,0,0,.2,0,.3,0,0,0,.1,0,.2,0,.1,0,.3,0,.3-.2,0,0,.1-.1.2-.2h0s0,0,0,0h0ZM96.7,35.2h0c0,0,0,0,0,0,0,0,0,0,.1,0,0,0,0,0,0,0,0,0,0,0,0,0,0,0,0,0,0-.1v-1.3s0,0,0-.1c0,0,0,0,0,0,0,0,0,0,0,0,0,0,0,0-.1,0h0c0-.1.9-.1.9-.1h0c0,.1,0,.1,0,.1,0,0,0,0-.1,0,0,0,0,0,0,0,0,0,0,0,0,0,0,0,0,0,0,.1v.5s0,0,0,0c0,0,0,0,0,0,0,0,0,0,0,0,0,0,0,0,0,0h.8s0,0,0,0c0,0,0,0,0,0,0,0,0,0,0,0,0,0,0,0,0,0v-.5s0,0,0-.1c0,0,0,0,0,0,0,0,0,0,0,0,0,0,0,0-.1,0h0s0,0,0,0h0s.9,0,.9,0h0c0,.1,0,.1,0,.1,0,0,0,0-.1,0,0,0,0,0,0,0,0,0,0,0,0,0,0,0,0,0,0,.1v1.3s0,0,0,.1c0,0,0,0,0,0,0,0,0,0,0,0,0,0,0,0,.1,0h0c0,.1-1,.1-1,.1h0s0,0,0,0h0s0,0,0,0c0,0,0,0,.1,0,0,0,0,0,0,0,0,0,0,0,0,0,0,0,0,0,0-.1v-.5s0,0,0,0c0,0,0,0,0,0,0,0,0,0,0,0,0,0,0,0,0,0h-.8s0,0,0,0c0,0,0,0,0,0,0,0,0,0,0,0,0,0,0,0,0,0v.5s0,0,0,.1c0,0,0,0,0,0,0,0,0,0,0,0,0,0,0,0,.1,0h0c0,.1-.9.1-.9.1h0ZM99.7,34.9c0,0,0,0,0,.1,0,0,0,0,0,0,0,0,0,0,0,0,0,0,0,0,.1,0h0c0,.1-.8.1-.8.1h0c0-.1,0-.1,0-.1,0,0,0,0,.1,0,0,0,0,0,0,0,0,0,0,0,0,0,0,0,0,0,0-.1v-1.4s0,0,0,0c0,0,0,0-.1,0,0,0,0,0,0,0h0c0-.1.6-.1.6-.1h0s1.1,1.4,1.1,1.4v-1s0,0,0-.1c0,0,0,0,0,0,0,0,0,0,0,0,0,0,0,0-.1,0h0c0-.1.8-.1.8-.1h0c0,.1,0,.1,0,.1,0,0,0,0-.1,0,0,0,0,0,0,0,0,0,0,0,0,0,0,0,0,0,0,.1v1.7h-.1s-1.3-1.6-1.3-1.6c0,0,0,1.2,0,1.2ZM102,34.2c0,.1,0,.3,0,.4,0,.1,0,.2.1.3,0,0,.1.1.2.2s.2,0,.3,0,.2,0,.3,0c0,0,.1,0,.2-.2,0,0,.1-.2.1-.3,0-.1,0-.2,0-.4s0-.3,0-.4c0-.1,0-.2-.1-.3,0,0-.1-.1-.2-.2,0,0-.2,0-.3,0,0,0-.2,0-.3,0,0,0-.2.1-.2.2,0,0-.1.2-.1.3,0,.1,0,.2,0,.4ZM101.6,34.2c0-.2,0-.3,0-.4,0-.3.3-.5.6-.6.1,0,.3,0,.4,0s.3,0,.4,0c.3,0,.5.3.6.6,0,.1,0,.3,0,.4s0,.3,0,.4c0,.3-.3.5-.6.6-.1,0-.3,0-.4,0s-.3,0-.4,0c-.3,0-.5-.3-.6-.6,0-.1,0-.3,0-.4ZM104,35.2h0c0-.1,0-.1,0-.1,0,0,0,0,.1,0,0,0,0,0,0,0,0,0,0,0,0,0,0,0,0,0,0-.1v-1.3s0,0,0-.1c0,0,0,0,0,0,0,0,0,0,0,0,0,0,0,0-.1,0h0s0,0,0,0h0s1,0,1,0h0c0,.1,0,.1,0,.1,0,0,0,0-.1,0,0,0,0,0,0,0,0,0,0,0,0,0,0,0,0,0,0,.1v1.3s0,0,0,.1c0,0,0,0,0,0,0,0,0,0,0,0,0,0,0,0,0,0h.3c0,0,.1,0,.2,0,0,0,.1,0,.2,0,0,0,0,0,.1-.1,0,0,0-.1,0-.2h0s.1,0,.1,0h0s-.2.6-.2.6h0s-1.7,0-1.7,0h0ZM106.5,34.2c0,.1,0,.3,0,.4s0,.2.1.3c0,0,.1.1.2.2s.2,0,.3,0c0,0,.2,0,.3,0,0,0,.1,0,.2-.2,0,0,.1-.2.1-.3h0c0-.1,0-.2,0-.4,0-.1,0-.3,0-.4,0-.1,0-.2-.1-.3,0,0-.1-.1-.2-.2,0,0-.2,0-.3,0,0,0-.2,0-.3,0,0,0-.2.1-.2.2,0,0-.1.2-.1.3,0,.1,0,.2,0,.4h0ZM106.1,34.2c0-.2,0-.3,0-.4,0-.3.3-.5.6-.6.1,0,.3,0,.4,0s.3,0,.4,0c.3,0,.5.3.6.6,0,.1,0,.3,0,.4s0,.3,0,.4c0,.3-.3.5-.6.6-.1,0-.3,0-.4,0s-.3,0-.4,0c-.3,0-.5-.3-.6-.6,0-.1,0-.3,0-.4h0ZM110.5,35c-.1,0-.3.1-.4.2-.1,0-.3,0-.4,0-.2,0-.3,0-.4,0-.1,0-.3-.1-.4-.2,0,0-.2-.2-.2-.3h0c0-.1,0-.3,0-.4,0-.2,0-.3,0-.4.1-.3.3-.5.6-.6.3,0,.6-.1.8,0,0,0,.1,0,.2,0,0,0,0,0,0,0,0,0,0,0,0,0,0,0,0,0,0,0,0,0,0,0,0,0h0s0,0,0,0h0s0,0,0,0h0s0,.6,0,.6h0s-.1,0-.1,0h0c0,0,0-.2-.1-.2,0,0,0-.1-.1-.2h0c0,0-.1,0-.2,0,0,0-.1,0-.2,0-.1,0-.2,0-.3,0,0,0-.2.1-.2.2,0,0-.1.2-.2.3,0,.1,0,.2,0,.4,0,.1,0,.3,0,.4,0,.1,0,.2.2.3,0,0,.2.1.2.2,0,0,.2,0,.3,0,0,0,.2,0,.2,0,0,0,.1,0,.2,0v-.5c0,0,0,0,0-.1,0,0,0,0,0,0,0,0,0,0,0,0,0,0-.1,0-.2,0h0c0-.1.9-.1.9-.1h0c0,.1,0,.1,0,.1,0,0,0,0-.1,0,0,0,0,0,0,0,0,0,0,0,0,0,0,0,0,0,0,.1v.6s0,0,0,0ZM111.3,35.2h0c0-.1,0-.1,0-.1,0,0,.2,0,.2,0,0,0,0,0,0,0,0,0,0,0,0-.1v-.5l-.6-.9s0,0-.1-.1c0,0,0,0,0,0,0,0,0,0,0,0h0c0-.1,1-.1,1-.1h0c0,.1,0,.1,0,.1,0,0,0,0-.1,0,0,0,0,0,0,0,0,0,0,0,0,0,0,0,0,0,0,0,0,0,0,0,0,0,0,0,0,0,0,0h0s0,0,0,0l.5.6.4-.6s0,0,0-.1c0,0,0,0,0,0,0,0,0,0,0,0,0,0,0,0,0,0,0,0,0,0,0,0,0,0,0,0-.1,0h0c0-.1.7-.1.7-.1h0c0,.1,0,.1,0,.1,0,0-.2,0-.2.1,0,0,0,0,0,.1l-.5.8v.6s0,0,0,0c0,0,0,0,0,0,0,0,0,0,0,0,0,0,0,0,.1,0h0c0,.1-1,.1-1,.1h0ZM106.7,21.9h0c.2,0,1.2,0,1.3-.2,0-.2,0-.5,0-.7-.2-.4-1-1.5-1.6-1.5h0c-.2.7.3,1.4.6,1.7,0,.2-.1.4-.1.6ZM58.2,26.1v-.2c.2-.6.6-1.1.8-1.6,0-.2,0-.4.2-.6.3-.4,1.2-.5,1.4-1.1,0-.3,0-.7-.2-.8-.1,0-.3,0-.3-.1-.1-.2.2-.6.3-.8.4-.9,0-2.6-.9-2.6-.2.1-.6.4-.7.7v.6c-.2.7-.5,1.5-.8,2.1-.2.4-.2.8-.4,1.1-.2.3-.5.6-.9.8h-.2c0,.1,0,.3,0,.3.1,0,.3.1.5.1.2.3,0,.6-.2.8-.3.7-1.2,2.2-.4,2.8.2.1.4.2.7,0l.9-.4c.6-.2,1.6-.2,1.8-.8,0-.2,0-.3-.1-.4-.4-.7-.8,0-1.4-.1h0ZM65.7,25.3c0-.2-.2-.2-.4-.2h-.2c-.3.2-.2.8-.5,1h-.3c-.2.2-.5.3-.8.5-.6.4-1.2.8-1.8,1.2l-.6.3-.3.3c-.2.1-.4,0-.5.2,0,.7.5,1.5,1.5,1.1.2,0,1.1-1.3,1.2-1.5.1,0,.3,0,.5,0,.4,0,.9-.2,1.4-.1.4,0,.9.2,1,0,.3-.5,0-1.2,0-1.7,0-.3.2-.7,0-.9ZM63.7,27.4c-.2-.2.6-.7.8-.8.5,0-.4.9-.8.8ZM67.9,25.4c-.3-.4-.4-.9-1.1-.9h-.1c0,.3,0,.6,0,.8,0,.2,0,.4,0,.6l.2.3c.2.4.3.7.8,1,.5,0,1.1-.5.9-1.1-.1-.3-.4-.5-.5-.7h0ZM54.2,16.9c-.5.3-.2.9-.1,1.4v.9c-.3,1.2-.6,2.7-.5,4.1v1.3c0,.4.2,1.5.1,1.9-.1.4-.5.5-.7.8-.4.6-1,1.1-1.6,1.6-.6.4-1.2.8-1.4,1.7.2.2.2.2.5.3.1,0,.3.2.5.2.6-.1,1.5-1.5,1.8-2,.1-.2.2-.5.3-.7.1-.2.4-.8.8-.7.2.1.4.7.8.5.2-.1.3-.8.3-1.1,0-.4-.2-.9-.3-1.4,0-.3,0-.5,0-.8v-.6c.1-1.1.1-2.1.5-3,.2-.7.7-1.3.8-2.1,0-.3,0-.4-.1-.6-.2-.7-.6-1.5-1.5-1.5h0ZM51.4,26c.1.8-.7,1.4-.5,2h.3c.2-.2.5-.4.7-.7,0-.1,0-.3.2-.4.5-.4,1-.6,1.3-1.1,0-.7-1-1.2-1.8-1.2l-.7.2c-.4.7.5.6.5,1.1h0ZM69.1,17.9c-.8-.3-1.3.5-1.7.3-.2-.1-.2-.4-.5-.5h-.9c-.2-.1-.5-.2-.8-.2-.1,0-.2.1-.3.3,0,.8.7.8.9,1.3h0c-.2.3-.5.4-.7.6-.3.2-.6.5-.9.7-.3.2-.8.3-.9.6h0c.1.2.3.3.5.4.2,0,1.4-.3,1.6-.4.3-.1.4-.4.6-.6.4-.3.8-.5,1.3-.8.4-.2.6-.6,1.1-.7h.5c.2,0,.7-.5.5-.8,0-.2-.2-.2-.3-.2h0ZM67.1,22.2c0-.3.7-1.1.9-1.2.2-.4-.2-.9-.6-.9-.3.2-.5.4-.7.5-.6.3-1.1.6-1.7,1-.2.1-.8.3-.9.5h0c.6.5,1-.2,1.7-.2.1.2,0,.5-.2.6-.6.4-1,.8-1.4,1.4h0l-.3-.5c-.1-.2-.3-.3-.4-.5-.4,0-.7,0-.8.2,0,.4.4.8.5,1.2v.5c.1,0,.7.3.7.3.4,0,.4-.3.6-.5.1-.1.4,0,.6-.1l.6-.5.7-.3c.3-.2.6-.7.8-1.1,0-.2,0-.3,0-.5ZM79,22.5l-.3.2c-.3.2-.6.2-.8.4l-1.8.8h0c0-.2.3-.9.4-1.1l.5-1.1c.3-.5.8-1,1-1.6.2-.6-.9-1.2-1.5-1.2-.5.2-1.2.2-1.9.2h-.8l-.5.3c-.3.5,1,1.8,1.7,1.7.4,0,.6-.5.9-.7h.1c.1.3-.2.6-.2.8-.3.7-.4,1.3-.5,2.1,0,.3-.2.6,0,.8,0,.4-1,.6-1.4.7-.8.4-1.6.8-2.5,1.1-.5.2-1.5.4-1.8.8,0,.6,1,1.3,1.7.9,1.2-.7,2.5-1.4,3.7-2.2.3-.2,1.1-.8,1.5-.9h0c-.2.2-.3.3-.4.5,0,0,0,0,.1.1.6-.3,1.2-.6,1.7-.8h.5c.6-.3,1.4-.6,1.7-1.1,0-.4-.7-1.1-1.2-.9ZM102.4,26c-.1-.2-1.1-.6-1.4-.7-.3-.1-.4-.3-.8-.3h-.3c-.3.6.2.9.4,1.2.2.3.2.6.3.9.2.5,1.1.5,1.8.4.3-.4.3-.4.1-.9,0-.2,0-.4-.1-.5h0ZM111.8,26c0,0-.2-.2-.4-.1-.5.1-.8.9-1.4.7-.2-.4.4-.6.3-1.1-.1-.5-1-.6-1.6-.6h0c-.4,1,.3.8.6,1.2,0,.2-.2.4-.2.7,0,.2,0,.3,0,.5-.3.2-.7.4-1.1.6l-.2.2c-.3.2-.8,0-1.1.3h0c.3.3,1,.6,1.7.5l.9-.5c0,0,0,0,0,0,0,.1,0,.3,0,.5-.4,1.3-1.5.2-2.4.5h0c0,.7,1.7,1.2,2.4.9.5-.2,1.3-.8,1.2-1.6,0-.3-.2-.7-.3-1,0-.1.2-.2.3-.3h0c0,.2-.1.2-.1.4.3,0,.4-.2.5-.3.2-.1.4-.3.7-.4.3-.1.7-.2.9-.4.1-.5-.3-.6-.6-.7ZM112.5,20.7c-.3.2-.3.6-.8.7,0,0,0,0,0,0-.1-.5.4-.9.6-1.2l.2-.4.2-.2v-.2c.3-.3.7-.7.8-1.1,0-.3,0-.6-.1-.8-.3-.2-.8-.1-1.2,0l-.2.5.2.4c0,.3-.2.5-.2.6-.3.6-.5,1.1-.8,1.6h0c0-.2,0-.5,0-.8-.1-.2-.5-.3-.5-.4v-.2c.2-.5,0-.7-.4-.8,0,0,0,0,0-.2.5-.5.6-1,0-1.5-.2-.2-.4-.3-.8-.3,0,0-.2,0-.3.2-.1.3.2.4.2.7,0,.1-.4.9-.5,1-.2.3-.8.2-1.1.5h0c.1.3.4.3.5.5h0c0,.3-.4.5-.5.7v.2h0c0,0,.2,0,.2,0l.6-.3h.5c.1-.2,0-.4.3-.4h0c.1.3-.2.8-.4,1-.3,0-.6,0-.8,0,0,.1,0,.3,0,.4.2,0,.3.1.4.3.1.4-.6,1.1-.7,1.5h0c.4.2,1.3-.7,1.5-.9.6,0,.6,0,1-.2h0c.1.1.3.3.2.5-.1.3-.6.4-.9.5-.5.2-2.1,1.3-2.7,1.2,0-.2,0-.4,0-.6-.2-.6-.7-1.6-1.5-1.6-.2.3,0,.5.2.8.3,1.1,0,1.2,1,1.6,0,0,0,.1,0,.2-.1,0-.3.1-.4.2h0c.2.3,1.3.4,1.5.2.7-.5,1.3-1,2.1-1.5l.5-.3h.2c.2-.1.7-.5.9-.5h0c-.1.9-1.9,1.8-2.5,2.4h0c0,0,0,.1,0,.1.6,0,1.1-.5,1.6-.7l.9-.2c.9-.4,1.5-1.1,2-1.9,0-.1.3-.2.4-.3.2-.5-.9-1.2-1.5-.9h0ZM110.2,20.9h-.2c0-.5,0-.7.3-.9h0c.2.3.1.8-.2.9ZM104.5,24.9l-.3.2c0,.2,0,.3,0,.5-.1.3-.6.9-.5,1.3.1.2.6.6,1,.5.6-.3,1-2.6-.1-2.5ZM92.9,18.9c-.2-.4-.7-.4-1.1-.2-.3.1-.5.3-.7.5-.5.3-1,.6-1.5.9-.2.1-.9.6-1,.4,0-.2,0-.8.2-.9l.6-.2c.7-.3,1.9-1.1,2.2-1.8-.1-.3-.8-.8-1.3-.7-.4,0-.8.4-1.1.6-.4,0,0-1-.8-1-.3.3-.3.7-.3,1.2v.3c0,.3-.4.6-.6.8h-.1c-.2-.6-.2-1.4-1.1-1.1-.1.2,0,.4,0,.7l-.2.5c0,.2,0,.4,0,.6-.3.5-1.2.4-1.7.7-.1.5.7,1,1.2.9.3,0,.3-.2.6-.2.2.2.4.5.8.4.2,0,.3-.1.5-.2h0c0,0,0,0,0,.2-.1.2-1.3.7-1.7.9-.7.4-1.5.8-2.2,1.3-.4.3-.8.7-1.3,1-.4.2-1.7.8-1.5,1.4h0c.3.2.5.1.8,0l1-.2c.7-.3,1.1-.9,1.6-1.3.3-.2.5-.4.8-.5.3-.2.5-.6.9-.6h0c-.1.5-.4.8,0,1.2.6.1.7-.5,1-.8.2-.2.4-.3.7-.4.1,0,.2-.1.3,0h0c0,.2-.2.2-.4.3,0,.5-.2.8-.7.9-.2,0-.3,0-.4.3h0c.3.4.4.2.7.4,0,0,0,0,0,.1v.2c-.1.1-.5.1-.6.2-.2.5.4.5.6.8,0,0,0,0,0,.1-.1.1-.5.2-.5.4-.1.4.7.6.3,1.1-.1.1-1.5.6-1.7.6-.2,0-.3,0-.5,0-.7.5.5,1.4.9,1.4.3-.3.2-.8.5-.9.4,0,.9.3,1.1.5l.3.3c.9.2.3-.6.5-1,.1-.2,1.3-.8,1.7-.8.4-.6-.4-1.2-.8-1.3-.4.2-.3,1.1-.7,1.4h-.1s0,0,0,0c-.1-.8.2-1.5.4-2.1.1-.3.5-.7.4-1.2,0-.2,0-.4-.1-.5,0-.1-.3,0-.4-.2l-.3-.5h0c.1,0,.1,0,.2,0h.1c0-.3-.1-.5,0-.7,0,0,.2-.1.3-.2.4-.3,1.2-.7,1.4-1.2,0-.4-.6-.8-1.1-.6-.1,0-.2.2-.4.3h0,0c.4-.4.9-.7,1.4-.9h.4c0,0,.7-.3.7-.3.4-.1.6,0,.9-.2.2-.1.9-.5.6-.9h0ZM89.6,17.7h0c.1.3-.5.8-.7,1h-.1c-.4-.6.5-.8.8-1h0ZM87.4,28.8c-.1.1-.3.2-.6.2v-.2c0-.3.2-.4.4-.6h.2c0,.2,0,.3,0,.6h0ZM87.3,19.5c0-.2.3-.2.4-.3h0c.1.2-.1.5-.3.6h-.2c0,0,0-.2,0-.3ZM87.4,20.5s0,0,0,0c0,0,0,0,0,0v-.2s0,0,0,0h.1c0,.1,0,.2,0,.3ZM87.1,23c0,0,0,0-.1-.1-.2-.6.8-1.1,1.1-1.3.2,0,.3,0,.5,0,.1,0,.1,0,.2.1,0,.3-1.4,1.2-1.7,1.3ZM101.1,20.6c-.1-.3-.6-.4-.9-.2-.5.3-.7.9-1.2,1.2-.1,0-.3.3-.5.2-.2-.1,0-.5,0-.8,0-.6.1-1.2,0-1.8,0-.5-1.5-1.4-2-1.5h-.1c-.5,1,.1,1.4.4,2,.2.4.4,2.8.2,3.2-.1.3-.9.7-1.2.9-.7.5-1.4,1-2.3,1.3l-1,.4c-.2,0-.4,0-.6,0-.2,1.1.3,1.6,1.4,1.2.7-.2,1.2-.8,1.7-1.2.4-.4,1.2-1,1.7-1.2h.1c.2.4,0,.9-.2,1.2-.4.9-1.1,1.6-2.1,2-.5.2-1.2,0-1.4.4h0c.4.2,1.1.2,1.5.1h.4c1.4-.3,2-.7,2.6-1.7.1-.2.4-.5.4-.8.2-.6.2-1.2.4-1.8,0-.2,0-.5,0-.6.2-.3.6-.5.9-.6l.5-.4c.3-.2.5-.3.8-.5.2-.2.7-.5.5-1Z"/>
    </g>
  </g>
</svg>