<?xml version="1.0" encoding="UTF-8"?>
<svg xmlns="http://www.w3.org/2000/svg" version="1.1" viewBox="0 0 128 40.9">
  <defs>
    <style>
      .cls-1, .cls-2 {
        fill-rule: evenodd;
      }

      .cls-2 {
        fill: #e60012;
      }
    </style>
  </defs>
  <!-- Generator: Adobe Illustrator 28.7.1, SVG Export Plug-In . SVG Version: 1.2.0 Build 142)  -->
  <g>
    <g id="_图层_1" data-name="图层_1">
      <path class="cls-2" d="M33.2,24.9c-.8,3.2-7.8,8.1-16.1,4,3.5,2.2,8,2.7,12.8.6,2.1-1,3.7-2.4,4.7-4.3,2.2-5.1-3.4-8.9-8-8.2-1.5.2-3,.8-4.4,2h-.1c3.8-5.3,14.1-3.6,15.1,3.2,0-7.3-9.9-9.3-16.2-4.6,3.3-5.2,14-5.3,16.7.6-2-6.5-12.7-7-18-1.8,2.3-4.8,12.4-6.6,16.5-2.4-2.9-4.7-14-4-17.8,1.4.7-3.2,7.6-8.3,16-4.4-3.5-2.2-8-2.5-12.8-.4-2,1-3.7,2.4-4.6,4.4-2,5.1,3.2,8.9,7.8,8.2,1.1-.1,2.2-.5,3.1-1.1.6-.3,1.1-.8,1.6-1.2,0,0,.1.1,0,.2-3.9,5.3-14.2,3.3-15.1-3.5,0,7.3,9.8,9.6,16.2,4.9-3.4,5.1-14.2,4.9-16.7-.9,1.9,6.6,12.7,7.3,18,2.2-2.4,4.8-12.6,6.3-16.6,2,2.8,4.7,14,4.4,17.8-1Z"/>
      <path class="cls-1" d="M45.9,17.1h0s-.3,0-.3,0v.6c0,0,0,.4,0,.4l-.3.4h-.3c0,.1-.2.1-.2.1l.2-.3.2-.7v-.5s0,0,0,0l-.3.9h0c0,.1-.2.3-.2.3l-.3.2h0s0-.1,0-.1v-.2s0-.3,0-.3v-1.3c0,0,0-.7,0-.7l-.2-.8v-.3s.1-.4.1-.4l.2-.5.2-.5v-.3s0-.4,0-.4v-.2c0,0-.3-.2-.3-.2l-.4-.3-.5-.2h-.4c0,0-.4,0-.4,0h-.5c0,0-.6.2-.6.2l-.4.2-.3.2-.2.3v.3c0,0,.2.2.2.2l.3.2h0c0-.1,0-.3,0-.3v-.2s.3,0,.3,0h.2s.1.2.1.2l.3.3.2.6v.6c.1,0,.1.9.1.9v.8c0,0-.8.8-.8.8l-.6.5h-.1s-.2,0-.2,0h-.3c0-.1-.2,0-.2,0h-.1c0,0,0,1.3,0,1.3v.4c0,0,.2.2.2.2h.5s.5,0,.5,0v-.3c0,0,0-.3,0-.3h.1c0-.1.3-.4.3-.4l.5-.4h0s0,.2,0,.2v.5s-.5,1.7-.5,1.7l-.3,1-.3,1.1v.3s0,.2,0,.2l.2.3h.6c0,.1.4.2.4.2v-.3s0-.2,0-.2h0c0-.1.5-.4.5-.4l.3-.2.2-.2.4-.8.2-.2h.2c0-.1.3-.4.3-.4l.2-.4.4-1.2.5-1.1v-1.1h0ZM45.9,16v.3h-.2c0,0,0-.2,0-.2,0,0,.2,0,.2,0ZM45.9,16.3h0s.1,0,.1,0v-.2c0,0,0,0,0,0h0s0,.3,0,.3ZM45.9,18.2v-1.1h.2s.1,0,.1,0v-.2s0-.1,0-.1h0c0,0,.2-.1.2-.1h0c0-.1,0-.3,0-.3h-.1c0-.1,0-.2,0-.2h0c0-.1.3-.6.3-.6h0c0,.1,0,.2,0,.2h.1s.2-.3.2-.3v-.2c0,0,0-.2,0-.2h0c0-.1,0-.2,0-.2h.3c0,0,.2,0,.2,0v-.5c.1,0,0,0,0,0h0s0,0,0,0l-1.1,1h0c0,0,0-.3,0-.3l.5-.5.4-.4h.2c0-.1.2-.3.2-.3v-.3c0,0,.2-.3.2-.3l.4-.4.3-.3.2-.3.4-.5.2-.2v-.2c0,0,.2-.9.2-.9v-.4s0-.2,0-.2h0c0-.1.4-.2.4-.2h.2s0,.1,0,.1v.5s0,.6,0,.6l-.3.6v.3c0,0,0,.2,0,.2l.2.2.4.2h.2c0,0,.1.2.1.2v.2c0,0,0,1.1,0,1.1l-.5.2-.5.2h-.3c0,.1-.2.3-.2.3l-.2.2-.2.4-.2.5-.2.6v.7c-.1,0-.1.5-.1.5v.8c.1,0,.2.3.2.3h.1c0,.1.2.1.2.1h.4c0,0,.1,0,.1,0h.1c0,0,.2-.3.2-.3l.2-.2h.3c0-.1.4,0,.4,0l.7.2h.2c0,.1.2.3.2.3h0c0,.1,0,.4,0,.4v.2c-.1,0-.4.3-.4.3l-.5.4-.7.4-.8.4-.8.3-.4.2-.2.2h-.1c0,0-.1,0-.1,0l-.2-.2v-.3c-.1,0-.2-.3-.2-.3v-.3c0,0,.2-.2.2-.2h0c0-.1,0-.2,0-.2l-.2-.4v-.5c-.1,0-.1-.8-.1-.8v-.6s0-.6,0-.6l.2-1.1v-.4c.1,0,.2-.3.2-.3l.2-.4h0c0-.1,0-.2,0-.2h-.3c0,.1-.2.3-.2.3l-.6.8-.7,1.1-.5,1.2h0q0,.1,0,.1ZM59.5,20.8h-.3c0,0-.2,0-.2,0l-.3-.2v.3c0,0,.3.5.3.5l.3.4h.2c0,.1,0-1.1,0-1.1h0ZM59.5,13.2v.6h0s-.2-.1-.2-.1h-.3c0,0-.2.3-.2.3l-.6.5h-.1c0,.1,0,.2,0,.2h0s0,0,0,0h0s0,0,0,0h0c0,0-.4.4-.4.4h0c0,.1,0,.3,0,.3v.2c0,0,.3.1.3.1h.2s0-.2,0-.2v-.3h0c0,0,0-.2,0-.2h.2c0-.1.3-.3.3-.3h.4c0-.1,0,.9,0,.9h-.2s-.2.1-.2.1v.2c-.1,0-.2.1-.2.1h0c0,.1,0,.3,0,.3l.2.3h0s.1,0,.1,0h0s0,1.8,0,1.8h-.5c0,0-.2.2-.2.2l-.2.2v.3c-.1,0-.8.8-.8.8v.2s0,.1,0,.1h.2s.1-.1.1-.1v.7c0,0-.2.7-.2.7h0c0,.1-.1.2-.1.2h-.3c0,0-.2,0-.2,0h-.2c0-.1-.2-.4-.2-.4v-.3c-.1,0-.3-.4-.3-.4v-.2s0-.2,0-.2l.2-.2.2-.2.2-.2.8-1.2v-.4c.1,0,0-.5,0-.5l-.3-.5-.4-.5-.2-.3-.2-.3-.2-.5h-.3s-.3.1-.3.1h-.6c0,0-.7.1-.7.1h-.5c0,0-.2.2-.2.2l-.2.2h-.3c0,.1-.2,0-.2,0h-.2c0,0-.1-.4-.1-.4v-.5s.1-.2.1-.2h.1c0-.1.2-.2.2-.2l.7-.3,1.7-1.1,2.7-1.7h.2s0,0,0,0h-.2c0,0-.2.3-.2.3l-1.2.7-2.2,1.4-.2.2-.3.3h0c0,.1,0,.2,0,.2h.4s.3,0,.3,0h.5c0-.1.2-.2.2-.2l.4-.3.2-.2h0c0-.1.2-.2.2-.2l.6-.3h.2s0,.1,0,.1l.2-.2.4-.3h-.1s-.2,0-.2,0h0s0-.1,0-.1l.3-.2h.2s.1,0,.1,0h0c0,0,0,.2,0,.2h.3c0,0,0-.2,0-.2h0s0,0,0,0ZM59.5,11.7h0c0,0-.1,0-.1,0h0c0,0,0,0,0,0h0ZM59.5,11.8h0c0,0,.1-.1.1-.1h0c0,.1,0,.1,0,.1h0ZM60.1,16.4v5.9h-.2c0-.1-.3-.3-.3-.3h0v-1.3h0s.2,0,.2,0h.1c0-.1,0-.3,0-.3v-1.3s0-.3,0-.3v-.2c0,0-.2,0-.2,0h-.2v-1.9h0s.2-.3.2-.3h.3q0-.1,0-.1ZM60.1,14.6v1.1h0s-.3,0-.3,0h-.3s0-1,0-1h0s.5-.2.5-.2ZM60.1,13v.3h-.2c0,.1,0,.2,0,.2h0c0,0,0,.2,0,.2l-.2.3h0v-.7h0s0,0,0,0h0c0,0,0-.1,0-.1v-.2c0,0,0,0,0,0l.2.3h.2s0,0,0,0h0ZM60.1,9.2v.4-.2c0,0-.1-.1-.1-.1h.1ZM63.5,18.8h-.2c0-.1-.4-.2-.4-.2h-.2s-.2.2-.2.2h0c0,.1,0,.3,0,.3v.2c.1,0,.3.2.3.2l.3.5v.3s0,.5,0,.5v.3c0,0,.2.2.2.2v.2c.1,0,.2,0,.2,0v-2.7h0ZM63.5,13.9v.5h0s-.2.2-.2.2l-.3.3-.3.4v.4c0,0-.2.3-.2.3v.2c-.1,0-.4.2-.4.2l-.3.2v.2s0,.3,0,.3h0c0,.1-.2.4-.2.4l-.2.2v.2c0,0-.2.4-.2.4v.5c0,0,0,.7,0,.7v.9c0,0,0,.6,0,.6v.8s0,.9,0,.9h-.3s-.4,0-.4,0h-.3c0,0-.2-.2-.2-.2v-5.9h0s1-1,1-1h0v-.2h0c0,0-.1-.1-.1-.1h0s0,.1,0,.1h-.1c0,.1-.2.2-.2.2l-.3.3h-.1s0-1,0-1h0s.6-.3.6-.3l.6-.3.7-.3h.3s.3,0,.3,0h.4c0,0,.2.1.2.1h0q0,0,0,0ZM63.5,11.3v.4h-.5c0,0-.4.2-.4.2h-.2c0,.1-.2.3-.2.3h0c0,0,0-.2,0-.2h-.1s-.2,0-.2,0h0c0,.1,0,.3,0,.3h0c0,0-.2.2-.2.2l-.9.5-.3.2v-.3l.4-.2v-.2c.1,0,.2,0,.2,0v-.3c0,0,0,0,0,0h0s0,0,0,0l.4.2h.2c0,0,0-.4,0-.4l.2-.2-.3-.3h-.2c0,0-.3,0-.3,0h-.3s.5-.2.5-.2l.2-.2h0c0-.1,0-.3,0-.3h-.1c0-.1-.2-.3-.2-.3h-.2c0,0-.1-.1-.1-.1h0c0,0,0-.2,0-.2v-.3c-.1,0-.1-.4-.1-.4h0s.4-.2.4-.2h.4c0,0,.5.3.5.3l.2.2v.2s0,.3,0,.3l.2.4v.3c.1,0,.2.2.2.2v.6h.6l.2-.2h.4c0-.1.4-.3.4-.3h0s0,0,0,0ZM63.5,11.7v-.4l.7-.2h.6s.2,0,.2,0h.1c0,.1.2.5.2.5h0c0,.1,0,.2,0,.2h-.3c0-.1-1.5,0-1.5,0ZM63.5,14.4v-.5h0s.1.2.1.2v.2s-.1.1-.1.1h0ZM63.5,21.5v-2.7l.5.2.2.2.2.2h.1c0,.1,0,.5,0,.5v.4c0,0-.2.3-.2.3v.3c-.1,0-.2.4-.2.4v.2c0,0-.2,0-.2,0h-.3c0-.1-.1-.2-.1-.2h0s0,0,0,0ZM71.4,17.1l-.2.2v.2s0,.1,0,.1h.2c0,.1,0,.2,0,.2v-.7h0ZM71.4,14.3l-.5.8h0s.1-.2.1-.2l.2-.4h0v-.3ZM71.4,10.6v1.2l-.2.2-.4.4-.5.7h-.1c0,0,0,.2,0,.2h0c0,.1,0,.2,0,.2h0s.2.1.2.1v.5s-.2.7-.2.7l-.2.9v.8c-.1,0-.1,1.3-.1,1.3v.3s0,.2,0,.2h0c0,0,0,0,0,0l.2-.2v-.2s0-.2,0-.2v-.2s.2-.2.2-.2v-.3s0,0,0,0v-.2l.2-.3h0s0,0,0,0h0c0,0,0,.9,0,.9v1.7c0,0-.3,1.3-.3,1.3h0c0,0-.2,0-.2,0l-.3-.3-.2-.2v-.3c0,0,0-1.2,0-1.2v-.9s.1-1.4.1-1.4l.3-1.2.2-.7v-.2s0,0,0,0h0s-.2.4-.2.4v.3c0,0-.5,1.1-.5,1.1v.5c-.1,0-.2.5-.2.5v.5c-.1,0-.2.5-.2.5v.4c-.1,0-.3.5-.3.5l-.3.4h-.1c0,.1,0,.2,0,.2h-.3c0-.1-.2-.2-.2-.2h0c0-.1-.2-.4-.2-.4v-.2c0,0,0-.3,0-.3l.7-1,.4-.6.2-.3v-.4c.1,0,.2-.6.2-.6v-.5c.1,0,.3-1.3.3-1.3l.2-1.1.3-.6.2-.3.2-.3.3-.2h.2c0-.1.6-.3.6-.3h.1c0-.1.1-.2.1-.2,0,0,.1,0,.1,0ZM71.4,11.8l.3-.2v-.2c.1,0,.2-.1.2-.1h0c0-.1-.5-.6-.5-.6,0,0,0,1.2,0,1.2ZM71.4,17.8v-.7h0s.3-.4.3-.4l.3-.4.2-.3.4-.7.4-.7.3-.8v-.2c.1,0,.1-.1.1-.1h-.2c0,0-.3-.2-.3-.2h-.3c0,0-.6.4-.6.4l-.5.4-.3.4v-.2l.3-.5.3-.4.3-.3.2-.3.4-.4.5-.3.4-.2v-.2c.1,0,.3-.3.3-.3l.2-1.1v-.5s0-.4,0-.4v-.2c0,0,.3-.2.3-.2l.3-.2h.8c0-.1.1,0,.1,0h0c0,0,0,.2,0,.2v.2s-.2.2-.2.2l-.3.3-.3.3v.5c-.1,0-.1.3-.1.3l-.2.3h0c0,.1,0,.2,0,.2h.1c0,.1.4.2.4.2h.2s0,0,0,0h.2c0,0,.4.4.4.4h0c0,0,0,.2,0,.2h0c0,0-.7.5-.7.5l-.3.2-.3.2h-.1c0,.1,0,.3,0,.3v.2s.1,0,.1,0h.2s.9-.4.9-.4h.5c0,0,.5,0,.5,0h.4s.2.1.2.1h.1c0,.1,0,.5,0,.5v.2c-.1,0-.6.3-.6.3l-.3.2-.3.2-.5.4-.2.2v.2c0,0-.1.4-.1.4v.2c0,0-.2.2-.2.2h0c0,.1,0,.2,0,.2h1.4s0,0,0,0h0c0,.1,0,.4,0,.4v.4c-.1,0-.4.2-.4.2l-.5.3-.3.2-.3.3-.2.2v.2c0,0-.2.5-.2.5v2.6c-.1,0-.2,2.3-.2,2.3v.4s.2.5.2.5l.2.4v.6c0,0,0,.5,0,.5l-.2.3-.3.2h-.2s-.1,0-.1,0l-.2-.6v-.7c-.1,0,0-4.7,0-4.7v-1.6c0,0,0-.2,0-.2h0c0,0-.2,0-.2,0l-.6.3h-.3c0,.1-.2,0-.2,0l-.4-.3v-.2c-.1,0-.1-.2-.1-.2v-.4c.1,0,.4-.3.4-.3l.5-.6.5-.6.3-.4v-.2c.1,0,.1-.1.1-.1h0s0,0,0,0l-.2.3-.6.8-.6.7-.3.3h-.2c0,.1-.3,0-.3,0h-.3q0,0,0,0ZM85.8,21.8h-.1s.1.2.1.2v-.2ZM85.8,9.8v3.1l-.3.2-.2.3v.2c0,0,0,0,0,0h.4s.1-.1.1-.1v4h0c0,.1,0,.2,0,.2h.1v3.1h0s-.3-.1-.3-.1l-.2-.3v-.3c0,0-.1-.3-.1-.3h0c0-.1,0-.1,0-.1v.2c-.1,0-.2.3-.2.3l.2.8v.5s0,.5,0,.5h-.1c0,0-.1,0-.1,0h-.1s-.3,0-.3,0l-.3-.2v-.2c-.1,0-.2-.3-.2-.3v-.5c0,0,0-.4,0-.4v-.5c0,0,.1-.7.1-.7l.2-1.6v-.9c.1,0,.3-.6.3-.6v-.4c0,0,0-.2,0-.2h-.2c0,0-.2,0-.2,0h-.2c0,.1-.2.3-.2.3l-.4.5-.2.2h-.2s-.4-.1-.4-.1h-.2c0-.1,0-.3,0-.3v-.6c0,0,.3-.2.3-.2l.6-.4.3-.2.2-.2.6-.7.2-.4-.4.3-.5.5-.4.3-.5.2-1.1.3h-.4s-.3,0-.3,0h-.2c0-.1-.1-.3-.1-.3v-.2s0-.2,0-.2h0c0-.1.1-.2.1-.2l.5-.2h.8c0-.1.6-.3.6-.3l1.6-.8.6-.3.3-.2.2-.2v-.3c.1,0,.2-.2.2-.2v-.2c.1,0,.3-.2.3-.2v-.3s0-.2,0-.2h-.2c0-.1-.2-.3-.2-.3h-.1c0-.1,0-.3,0-.3h0c0-.1.1-.4.1-.4h.1c0,0,.1,0,.1,0h.2s.3.1.3.1h.2c0,0,0,0,0,0ZM86.5,21.8v.9l-.3-.2-.4-.5h0v-.3h0s.2,0,.2,0h.2s.2,0,.2,0ZM86.5,17.6v.9h0s0,0,0,0h0c0,0,0,.2,0,.2h0c0,0,0,.2,0,.2v.2s0,.2,0,.2h0c0,0,0,0,0,0h.2v1.3h-.2s-.2.1-.2.1h-.3v-3.1h0s.3,0,.3,0h.3c0,0,0-.1,0-.1h0ZM86.5,9.9v4.7h0s0,0,0,0v2.1h-.2c0,0,0,.2,0,.2h0c0,.1,0,.3,0,.3l-.3.3h0c0,0,0-3.9,0-3.9l.4-.3h.2c0-.1,0-.2,0-.2v-.3c-.1,0-.3,0-.3,0h-.2s-.1.1-.1.1h0s0-3.1,0-3.1h0s.5,0,.5,0h.2ZM86.5,14.6v-4.7h.3s.3.4.3.4l.2.2v.2c0,0,.2.1.2.1h.2s.7,0,.7,0h.3c0,0,.4,0,.4,0l.4.2.3.2v.2c.1,0,.2.1.2.1h0c0,0-.7.2-.7.2h-.8c0,0-.3,0-.3,0h-.3s-.1.2-.1.2h0c0,0,0,.1,0,.1h-.6c0,0-.1.3-.1.3h0c0,0,.1.1.1.1l.9.5.3.2.2.2v.2c.1,0,.2.4.2.4h0c0,.1-.2.2-.2.2h-.7c0,0-.4.1-.4.1h-.3c0,.1-.5.4-.5.4h-.2q0,.1,0,.1ZM86.5,22.7v-.9h0s.2-.2.2-.2v-.3c0,0,0-.4,0-.4h-.1c0-.1-.1-.2-.1-.2h0s0-1.2,0-1.2h0s0,0,0,0h0c0,0,.1-.2.1-.2v-.3s0-.3,0-.3h0c0-.1-.1-.2-.1-.2h-.1s0,0,0,0v-.9h0c0-.1,0-.3,0-.3v-.4h0c0-.1,0-.2,0-.2h0v-2.1l.5.4.2.2.2.3v.3c.1,0,.2.3.2.3v.6c0,0-.2.4-.2.4v2.2c0,0,.2,1.2.2,1.2v1.1c.1,0,.1.6.1.6v.3s0,.2,0,.2v.2c0,0-.2,0-.2,0l-.6-.2h-.4c0-.1,0-.1,0-.1ZM99.2,18.2l-1.4-.3.4.5.4.4.5.7v.2c.1,0,.1-1.5.1-1.5h0ZM99.2,13v1.6l-.4.3-1,.5h-.1c0,.1-.2.5-.2.5l-.7,1.6-.4,1.3-.3,1v.2c0,0-.3.2-.3.2h-.2c0,.1-1.1.4-1.1.4h-.8c0,.1-1,.1-1,.1h-.2c0,0,0-.2,0-.2h0v-.3h-.1c0,0,0-.1,0-.1h0c0,0,.1-.2.1-.2l.2-.2h.2c0,0,.3-.1.3-.1h.1s0,0,0,0h0c0,0,.3,0,.3,0l.8-.3.3-.2.2-.2.2-.2.3-.4v-.2c.1,0,.2-.3.2-.3v-.4c-.1,0-.3-.1-.3-.1h-.1s-.2,0-.2,0h-.8s-.2-.1-.2-.1l-.2-.2v-.2c-.1,0-.3-.3-.3-.3v-.3s0-.2,0-.2h0c0-.1.5-.2.5-.2h.5c0,0,.2.1.2.1h.2s.2-.1.2-.1l.7-.7.2-.2.2-.3v-.5c.1,0,.2-.7.2-.7v-1.1c0,0,0-.5,0-.5l-.2-.8v-.5c-.1,0,0-.4,0-.4h.2c0-.1.1-.2.1-.2h.2c0,0,.3,0,.3,0h.3c0,.1.3.3.3.3l.2.2.2.2v.4c0,0,0,.6,0,.6v.3s0,.2,0,.2v.2c-.1,0-.3.2-.3.2v.4c0,0-.1.4-.1.4v.3c0,0,.1.1.1.1h0s.4,0,.4,0l.5-.2.2-.2h.1c0,0,.2-.1.2-.1h.3s0,0,0,0ZM99.2,14.5v-1.6h0s.4,0,.4,0l.4.2h.2c0,0,.2.2.2.2h0v.7c-.1,0-.2,0-.2,0h0s-.4,0-.4,0h-.2s-.2.1-.2.1c0,0-.3.2-.3.2ZM99.2,19.7v-1.5h.2s.8.3.8.3l.5.2h.2c0,.1,0,.2,0,.2v.3c.1,0,.2.4.2.4v.4s0,.4,0,.4l-.3.6-.2.2h-.2c0,0-.2,0-.2,0h-.2c0-.1-.2-.3-.2-.3v-.2c-.1,0-.4-.7-.4-.7v-.4c-.1,0-.1,0-.1,0h0ZM106.5,21.2v1.3h-.1s-.5-.2-.5-.2l-.4-.2-.4-.3-.2-.3v-.2c0,0,0-.2,0-.2h.2c0,0,.4,0,.4,0h.6c0,.1.4.2.4.2ZM106.5,17.3v1.3h-.3s-.3-.1-.3-.1l-.3-.2-.2-.2-.2-.3v-.3c0,0,0-.2,0-.2l.2-.2.3-.2.3.3h0c0,.1.2.2.2.2,0,0,.3,0,.3,0ZM106.5,13.9v1h0s-.2.3-.2.3v.3s0,.1,0,.1h0c0,0-.4.3-.4.3l-.7.3-.6.3-.3.2h-.3c0,0-.2,0-.2,0h-.1c0,0-.1-.2-.1-.2h0c0-.1,0-.3,0-.3v-.2s.3-.4.3-.4l.3-.3.8-.7.4-.5.3-.4.2-.2h.2c0,0,.1,0,.1,0l.2.2v.2c0,0,.2.1.2.1h0c0,0,0,0,0,0ZM106.5,11.8v1.2h-.2c0,0-.2-.2-.2-.2h-.1c0-.1-.3-.5-.3-.5h-.1c0,0,0-.3,0-.3v-.4c0,0,.2-.1.2-.1h.1s.2,0,.2,0l.3.2h.2c0,.1,0,.1,0,.1ZM107.5,21.1v1.4h-.6s-.4,0-.4,0v-1.3h0s.4,0,.4,0c0,0,.5,0,.5,0ZM107.5,16.9v1.5l-.4.2h-.5s0,0,0,0v-1.3h.3c0,0,.7-.4.7-.4ZM107.5,14.5h0s-.4.3-.4.3l-.2.2h-.1c0,.1,0,.8,0,.8h0c0,.1.1.2.1.2h.4s.1,0,.1,0v-1.4ZM107.5,13.6v.6l-.4.2-.3.2-.2.2h0c0,0,0-.9,0-.9h0l.9-.3s0,0,0,0ZM107.5,12.6v.5h0s-.3,0-.3,0h-.5c0,0-.2-.2-.2-.2v-1.2h.3s.2.1.2.1h.2c0,.1.3.6.3.6ZM107.5,11v.3h0c0-.1,0-.3,0-.3,0,0,0,0,0,0ZM107.5,13.1h0s0-.5,0-.5h0s0,.5,0,.5ZM109.1,14.2h0s-.3.2-.3.2h-.2c0,.1-.4.3-.4.3h-.1s0,0,0,0v-.2c0,0-.4.1-.4.1v1.4h.1s.2,0,.2,0h.1s0,.1,0,.1h0c0,.1,0,.6,0,.6h0c0,0-.1.1-.1.1h-.2c0,0-.2.2-.2.2v1.5h0s.4-.2.4-.2h.3c0,0,.4-.2.4-.2h.1c0,0,0,.2,0,.2v.2s0,1.7,0,1.7v.2c0,0-.2.1-.2.1l-.3.2-.8.4v1.4h1.5c0,.1.1.1.1.1v-7.3l-.3.2h-.1s-.2-.1-.2-.1h0c0,0,0-.2,0-.2h0c0-.1.2-.1.2-.1h.3c0,0,0,0,0,0,0,0,0-.8,0-.8ZM109.1,12.7v.6h-.1s-.4.3-.4.3l-.5.3-.5.3h0s0-.5,0-.5l.9-.5.2-.2.2-.2h.3s0,0,0,0ZM109.1,11.9l-.2.2-.2.2v.2c-.1,0-.1,0-.1,0h0s.2-.1.2-.1h.2c0-.1,0-.4,0-.4ZM109.1,10.2v1.4c-.1,0-.2.1-.2.1v.2c-.1,0-.3,0-.3,0h-.1s0,0,0,0l-.7-.3-.3-.3h0v-.4h0s.3-.2.3-.2h.3c0,0,.3-.2.3-.2h.2c0-.1.2-.2.2-.2h.1c0-.1.1-.3.1-.3ZM109.1,11.2h0c0-.1.1-.7.1-.7v-.6c0,0-.1.2-.1.2h0v1.1ZM110,10.3v1.8h0c0,0,0,.2,0,.2h0v.6l-.9.3v-.6h.2c0-.1.1-.3.1-.3h0v-.3h-.1c0,0-.2,0-.2,0h0c0,0,0-.3,0-.3l.2-.2v-.3c.1,0,.3-.4.3-.4l.2-.4s.2-.3.2-.3ZM110,9.3v.2h0s0,0,0,0c0,0,.2-.2.2-.2ZM109.7,14.1v.2c0,0,0,0,0,0h.2s.1,0,.1,0h0s0,1.2,0,1.2h0s-.3.2-.3.2h-.1c0,.1,0,.3,0,.3v.2s0,0,0,0h.1s.3,0,.3,0v2.6s0,1.3,0,1.3v1.3c-.1,0-.2.4-.2.4v.4c0,0-.2.3-.2.3v.2s-.4,0-.4,0v-7.3h0s.2-.2.2-.2v-.2c.1,0,.2-.2.2-.2h.1c0-.1,0-.2,0-.2h0s0,0,0,0l-.3.2h-.1c0,.1-.1.2-.1.2v-.8h.4s.1-.2.1-.2l.3-.2h0s0,.2,0,.2h-.2c0,.1-.2.2-.2.2h0ZM110,12.1h.1c0-.1.3-.2.3-.2l.2-.2.3-.3.8-1,.9-.6v-.2s0-.2,0-.2v-.4c-.1,0-.4-.3-.4-.3l-.5-.4h-.3c0,0-.3,0-.3,0l-.5.3-.5.6v.2c-.1,0-.1.2-.1.2h.1s.1-.2.1-.2h.2c0-.1,0-.1,0-.1h0c0,0,0,.3,0,.3l-.2.4-.2.4v1.8h0ZM110,18.6v-2.3h.5s1.1,0,1.1,0h.9c0,.1.3.3.3.3l.2.2v.3c.1,0,.1.3.1.3v.2c0,0-.3,0-.3,0h-1c0,0-1.2,0-1.2,0l-.3.2-.2.3v.6ZM110,14.3h0c0,0,.2-.4.2-.4v-.2c0,0,0,0,0,0h-.1s-.2.1-.2.1v-.2l.3-.2h.5c0-.1.6-.3.6-.3l.4-.2h.2c0-.1,0-.2,0-.2h0c0-.1,0-.2,0-.2h-.1s-.6,0-.6,0l-1.2.3h0s0-.5,0-.5h0s.1,0,.1,0h.7c0-.1.6-.2.6-.2h1.2c0,0,.9,0,.9,0h.3c0,.1.1.2.1.2v.2c0,0,0,.4,0,.4v.2c0,0-.3.2-.3.2h-.3c0,.1-.9.1-.9.1h-.7c0,.1-.4.2-.4.2v.2c0,0,0,.3,0,.3v.2c0,0-.4.1-.4.1h-.2c0,0-.1.2-.1.2l-.2.2h-.1c0,.1,0,.2,0,.2h0c0,.1,0,.3,0,.3h0c0,0-.2.2-.2.2v-1.2h0Z"/>
      <path d="M41.1,29.9h.5c.6,0,.9-.2.9-.7s-.3-.7-.8-.7h-.6v-.2h.8c.7,0,1.1.4,1.1.9s-.3.8-1,.9h0c.8,0,1.2.4,1.2.8s-.4,1-1.4,1h-.7v-.2h.6c.7,0,1-.3,1-.7s-.3-.7-1.1-.7h-.5v-.2ZM40.9,29.9c0-.5,0-1.1,0-1.6h.5c0,.5,0,1.1,0,1.6v.2c0,.6,0,1.2,0,1.7h-.5c0-.5,0-1.1,0-1.6v-.3h0ZM41.1,31.5v.3h-.7v-.2h.7c0,0,0,0,0,0h0ZM40.4,28.5v-.2h.7v.3h-.7ZM45.5,30v-.6h.3v1.2h-.2v-.6c0,0,0-.1,0-.1ZM46.5,30.9v.9h-2v-.3h1.8l-.2.3.2-.9s.3,0,.3,0ZM45.7,30.1h-1.2v-.2h1.2v.2ZM46,28.3l.2.3h-1.7v-.3h1.9v.9s-.3,0-.3,0l-.2-.9ZM44.3,29.9c0-.5,0-1.1,0-1.6h.5c0,.5,0,1.1,0,1.6v.2c0,.6,0,1.2,0,1.7h-.5c0-.5,0-1.1,0-1.6v-.3h0ZM44.5,31.5v.3h-.7v-.2h.7c0,0,0,0,0,0ZM43.8,28.5v-.2h.7v.3h-.7ZM47.7,29.9c0-.5,0-1.1,0-1.6h.5c0,.5,0,1.1,0,1.6v.3c0,.5,0,1.1,0,1.6h-.5c0-.5,0-1.1,0-1.6v-.3ZM48,31.5h.7v.3h-1.5v-.2h.7c0,0,.1,0,.1,0h0ZM47.2,28.5v-.2h1.5v.2h-.7c0,0-.1,0-.1,0,0,0-.7,0-.7,0ZM49.4,28.3h1.5v.2h-.7c0,0-.1,0-.1,0h-.7v-.3h0ZM50.4,28.3c0,.5,0,1.1,0,1.6v.8c0,.6,0,.9,0,1.1,0,.5-.5.8-1,.8s-.4,0-.4-.3c0-.2.2-.3.3-.3s.2,0,.4.2h.2c0,.1,0,.2,0,.2h0s0,0,0,0c.2-.2.3-.3.3-.7s0-.9,0-3.5c0,0,.5,0,.5,0ZM52.1,29.9c0-.5,0-1.1,0-1.6h.5c0,.5,0,1.1,0,1.6v.3c0,.5,0,1.1,0,1.6h-.5c0-.5,0-1.1,0-1.6v-.3ZM52.3,31.5h.7v.3h-1.5v-.2h.7c0,0,.1,0,.1,0h0ZM51.6,28.5v-.2h1.5v.2h-.7c0,0-.1,0-.1,0,0,0-.7,0-.7,0ZM56.4,28.3h.3v3.6l-.3-.3v-3.3ZM55.9,28.3h1.3v.2h-.5c0,0-.1,0-.1,0h-.6v-.3h0ZM54.1,28.3l.3.2v3.3h-.3v-3.5h0ZM54,28.5h.3c0,.1-.6,0-.6,0v-.2h.8l2.2,3v.6h-.2l-2.5-3.4h0ZM53.7,31.6h.6c0,0,.1,0,.1,0h.6v.3h-1.3v-.2ZM59.6,30.4v-.2h1.4v.2h-.6c0,0-.1,0-.1,0,0,0-.7,0-.7,0ZM60.7,31.6c-.4.2-.7.3-1.2.3-1,0-1.8-.8-1.8-1.8s.7-1.8,1.8-1.8.8,0,1.1.3v.8s-.3,0-.3,0v-.8c-.1,0,.2.1.2.1v.3c-.3-.3-.6-.4-.9-.4-.7,0-1.3.6-1.3,1.6s.5,1.6,1.3,1.6.5,0,.8-.2l-.2.2v-.3c0-.4,0-.8,0-1.2h.5c0,.4,0,.8,0,1.2v.2h0ZM64.8,31c0-.3-.2-.5-.7-.7h-.2c-.5-.3-.9-.6-.9-1.1s.5-1,1.2-1,.6.1.9.3v.7h-.3v-.8c-.1,0,.2.2.2.2v.3c-.3-.3-.5-.3-.7-.3-.4,0-.7.2-.7.6s.2.5.6.7h.2c.7.3,1,.7,1,1.1s-.5,1-1.2,1-.8-.1-1-.3v-.7h.3v.8c.1,0-.2-.1-.2-.1v-.3c.3.2.5.3.9.3s.8-.2.8-.6h0ZM67.1,30.4h-.5v-.2h.6c.6,0,.9-.3.9-.8s-.3-.8-.9-.8h-.6v-.2h.7c.9,0,1.3.4,1.3,1s-.4,1.1-1.5,1.1ZM66.3,29.9c0-.5,0-1.1,0-1.6h.5c0,.5,0,1.1,0,1.6v.3c0,.5,0,1,0,1.6h-.5c0-.5,0-1.1,0-1.6v-.3ZM66.6,31.5h.7v.3h-1.5v-.2h.7c0,0,.1,0,.1,0h0ZM65.8,28.5v-.2h.7v.3h-.7ZM70.8,31.6c.7,0,1.1-.8,1.1-1.6s-.3-1.6-1.1-1.6-1.1.8-1.1,1.6.3,1.6,1.1,1.6ZM72.4,30.1c0,1.2-.8,1.8-1.6,1.8s-1.6-.6-1.6-1.8.8-1.8,1.6-1.8,1.6.6,1.6,1.8ZM73.7,30h.7c.6,0,.8-.3.8-.7s-.2-.7-.8-.7h-.7v-.2h.7c.8,0,1.3.3,1.3.9s-.4.9-1,.9h0c.4,0,.6.2.8.6l.3.9h-.2c0,0,.5,0,.5,0v.2c-.1,0-.3,0-.4,0-.3,0-.5,0-.5-.3l-.2-.9c-.1-.4-.3-.5-.7-.5h-.5v-.2h0ZM73.5,29.9c0-.5,0-1.1,0-1.6h.5c0,.5,0,1.1,0,1.7v.2c0,.6,0,1.1,0,1.7h-.5c0-.5,0-1.1,0-1.6v-.3ZM73.8,31.5h.7v.3h-1.5v-.2h.7c0,0,.1,0,.1,0ZM73,28.5v-.2h.7v.3h-.7ZM77.6,29.9c0-.5,0-1.1,0-1.6h.5c0,.5,0,1.1,0,1.6v.3c0,.5,0,1.1,0,1.6h-.5c0-.5,0-1.1,0-1.6v-.3h0ZM77.9,31.5h.7v.3h-1.6v-.2h.7c0,0,.1,0,.1,0h0ZM76.6,28.6l.2-.3-.2.9h-.3v-.9h2.9v.9s-.3,0-.3,0l-.2-.9.2.3h-2.5ZM84.9,28.6h-.6v-.3h1.3v.2h-.6c0,0-.1,0-.1,0ZM84,31.5c.6,0,.9-.3.9-1.3v-1.9h.3v2.1c0,1.1-.5,1.5-1.2,1.5s-1.3-.4-1.3-1.4v-.6c0-.5,0-1.1,0-1.6h.5c0,.5,0,1.1,0,1.6v.4c0,.9.3,1.2.9,1.2ZM82.2,28.5v-.2h1.5v.2h-.7c0,0-.1,0-.1,0h-.7ZM88.8,28.3h.3v3.6l-.3-.3v-3.3ZM88.2,28.3h1.3v.2h-.5c0,0-.1,0-.1,0h-.6v-.3ZM86.5,28.3l.3.2v3.3h-.3v-3.5ZM86.4,28.5h.3c0,.1-.6,0-.6,0v-.2h.8l2.2,3v.6h-.2s-2.5-3.4-2.5-3.4ZM86,31.6h.6c0,0,.1,0,.1,0h.6v.3h-1.3v-.2ZM90.5,29.9c0-.5,0-1.1,0-1.6h.5c0,.5,0,1.1,0,1.6v.3c0,.5,0,1.1,0,1.6h-.5c0-.5,0-1.1,0-1.6v-.3ZM90.8,31.5h.7v.3h-1.5v-.2h.7c0,0,.1,0,.1,0ZM90,28.5v-.2h1.5v.2h-.7c0,0-.1,0-.1,0h-.7c0,0,0,0,0,0ZM94.6,28.6h-.5v-.3h1.2v.2h-.6c0,0-.1,0-.1,0ZM92.1,28.3h.5l1.1,3h-.1l1-3h.3l-1.2,3.6h-.2l-1.3-3.6ZM92.5,28.6h-.7v-.3h1.4v.2h-.6c0,0-.1,0-.1,0ZM97.4,30v-.6h.3v1.2h-.2v-.6c0,0,0-.1,0-.1h0ZM98.4,30.9v.9h-2v-.3h1.8l-.2.3.2-.9h.3ZM97.6,30.1h-1.2v-.2h1.2v.2ZM97.8,28.3l.2.3h-1.7v-.3h1.9v.9s-.3,0-.3,0l-.2-.9ZM96.1,29.9c0-.5,0-1.1,0-1.6h.5c0,.5,0,1.1,0,1.6v.2c0,.6,0,1.2,0,1.7h-.5c0-.5,0-1.1,0-1.6v-.3ZM96.4,31.5v.3h-.7v-.2h.7c0,0,0,0,0,0ZM95.6,28.5v-.2h.7v.3h-.7c0,0,0,0,0,0ZM99.6,30h.7c.6,0,.8-.3.8-.7s-.2-.7-.8-.7h-.7v-.2h.7c.8,0,1.3.3,1.3.9s-.4.9-1,.9h0c.4,0,.6.2.8.6l.3.9h-.2c0,0,.5,0,.5,0v.2c-.1,0-.3,0-.4,0-.3,0-.5,0-.5-.3l-.2-.9c-.1-.4-.3-.5-.7-.5h-.5v-.2h0ZM99.4,29.9c0-.5,0-1.1,0-1.6h.5c0,.5,0,1.1,0,1.7v.2c0,.6,0,1.1,0,1.7h-.5c0-.5,0-1.1,0-1.6v-.3ZM99.7,31.5h.7v.3h-1.5v-.2h.7c0,0,.1,0,.1,0h0ZM98.9,28.5v-.2h.7v.3h-.7c0,0,0,0,0,0ZM104.2,31c0-.3-.2-.5-.7-.7h-.2c-.5-.3-.9-.6-.9-1.1s.5-1,1.2-1,.6.1.9.3v.7h-.3v-.8c-.1,0,.2.2.2.2v.3c-.3-.3-.5-.3-.7-.3-.4,0-.7.2-.7.6s.2.5.6.7h.2c.7.3,1,.7,1,1.1s-.5,1-1.2,1c-.4,0-.7,0-1-.3v-.7h.3v.8c.1,0-.2-.1-.2-.1v-.3c.3.2.5.3.9.3s.8-.2.8-.6ZM105.6,29.9c0-.5,0-1.1,0-1.6h.5c0,.5,0,1.1,0,1.6v.3c0,.5,0,1.1,0,1.6h-.5c0-.5,0-1.1,0-1.6v-.3ZM105.9,31.5h.7v.3h-1.5v-.2h.7c0,0,.1,0,.1,0ZM105.1,28.5v-.2h1.5v.2h-.7c0,0-.1,0-.1,0h-.7c0,0,0,0,0,0ZM108.2,29.9c0-.5,0-1.1,0-1.6h.5c0,.5,0,1.1,0,1.6v.3c0,.5,0,1.1,0,1.6h-.5c0-.5,0-1.1,0-1.6v-.3ZM108.5,31.5h.7v.3h-1.6v-.2h.7c0,0,.1,0,.1,0ZM107.2,28.6l.2-.3-.2.9h-.3v-.9h2.9v.9s-.3,0-.3,0l-.2-.9.2.3h-2.5ZM112.8,28.6h-.6v-.3h1.2v.2h-.5c0,0,0,0,0,0ZM111.6,30.2h.5c0,.6,0,1.1,0,1.6h-.5c0-.5,0-1,0-1.6ZM111.9,31.5h.7v.3h-1.6v-.2h.7c0,0,.1,0,.1,0ZM111.7,30.6l-1.2-2.3h.5l1,2.1h-.2l1-2.1h.3l-1.1,2.3h-.3ZM110.2,28.5v-.2h1.5v.2h-.7c0,0-.1,0-.1,0h-.7c0,0,0,0,0,0Z"/>
    </g>
  </g>
</svg>