<svg width="128" height="128" fill="none" xmlns="http://www.w3.org/2000/svg"><path fill-rule="evenodd" clip-rule="evenodd" d="M93.012 93.33c-.923 1.495-1.542 3.108-1.92 4.822a29.57 29.57 0 0 0-.49 3.144c-.05.483-.099.962-.099 1.448 0 .06-.01.123-.017.182-.087.021-.131-.03-.188-.061-1.558-.814-3.186-1.423-4.918-1.736a13.594 13.594 0 0 0-3.418-.172c-.42.029-.84.057-1.247.145-.944.2-1.86.502-2.724.945-.841.431-1.628.95-2.404 1.483-.818.557-1.631 1.126-2.493 1.619-1.435.837-2.984 1.39-4.6 1.764a24.46 24.46 0 0 1-3.505.543c-.53.044-1.06.092-1.59.069a26.461 26.461 0 0 1-2.404-.23 23.517 23.517 0 0 1-3.554-.79c-1.65-.508-3.144-1.311-4.565-2.277-.914-.626-1.818-1.275-2.784-1.832a11.146 11.146 0 0 0-3.056-1.225c-.513-.116-1.032-.166-1.55-.21a13.058 13.058 0 0 0-2.725.062 14.482 14.482 0 0 0-3.23.79c-.83.305-1.644.652-2.422 1.075-.042.025-.075.063-.161.034-.004-.178-.007-.37-.017-.559a26.39 26.39 0 0 0-.335-2.902 18.926 18.926 0 0 0-.78-3.208 14.577 14.577 0 0 0-1.513-3.122c-.175-.272-.397-.504-.6-.753.052-.077.134-.09.205-.122a29.517 29.517 0 0 1 6.198-1.966 19.18 19.18 0 0 1 3.768-.384c2.059.007 4.032.398 5.845 1.427a13.185 13.185 0 0 1 2.385 1.766c.576.53 1.149 1.059 1.707 1.606 1.233 1.2 2.697 1.968 4.35 2.396 1.1.287 2.217.47 3.351.584 1.157.114 2.318.122 3.473.07a20.48 20.48 0 0 0 4.548-.72c1.634-.454 3.044-1.285 4.255-2.472.718-.706 1.444-1.406 2.222-2.045 1.09-.894 2.284-1.593 3.63-2.028.805-.256 1.633-.419 2.474-.505 1.69-.173 3.36-.03 5.025.273 2.21.404 4.333 1.097 6.39 1.994.06.025.119.051.175.08.013.006.023.027.038.046-.26.305-.517.609-.73.953Zm-2.542 10.517a.798.798 0 0 1-.402.458c-.351.198-.736.287-1.13.323-1.165.096-2.313-.006-3.426-.375-.885-.294-1.684-.762-2.448-1.292a15.298 15.298 0 0 1-1.621-1.297c-.034-.03-.078-.055-.103-.144.189-.023.36-.05.534-.068 1.68-.162 3.32.064 4.93.547 1.237.372 2.42.873 3.542 1.508.197.112.197.122.124.34Zm-45.702-1.169c-.776.58-1.596 1.085-2.498 1.449a6.62 6.62 0 0 1-1.988.465c-.284.024-.575.064-.863.071-.633.021-1.256-.022-1.85-.263-.265-.108-.502-.257-.598-.553-.071-.218-.076-.23.123-.34 1.707-.954 3.515-1.632 5.448-1.95a11.43 11.43 0 0 1 3.483-.051c.023.003.044.016.096.039-.441.422-.889.791-1.353 1.133Zm49.474-10.754c-.059-.029-.115-.053-.174-.083a32.151 32.151 0 0 0-3.82-1.424c-1.923-.577-3.876-.952-5.883-1.033-.192-.019-.382-.044-.577-.064-.16.016-.307.08-.473.076-.581-.024-1.157.023-1.734.089-2.383.276-4.446 1.245-6.234 2.832-.827.731-1.603 1.517-2.429 2.246a8.535 8.535 0 0 1-2.95 1.712c-2.232.74-4.525 1.025-6.872.958a21.174 21.174 0 0 1-3.996-.496c-1.178-.261-2.318-.631-3.354-1.265-.836-.513-1.547-1.184-2.25-1.856-.812-.772-1.624-1.54-2.538-2.196-1.412-1.009-2.985-1.597-4.686-1.89-.718-.121-1.46-.02-2.155-.288-.167.165-.387.07-.575.123-.111.032-.224.025-.335.025-.72-.004-1.43.08-2.138.174-1.958.261-3.845.782-5.694 1.464-.733.266-1.444.555-2.145.887-.322.154-.383.433-.136.676.438.43.75.95 1.053 1.47.192.333.376.674.546 1.023.05.105.002.11-.078.107.023.113.124.164.19.239.059.067.128.123.162.21.083.213.17.428.249.644.037.092.064.182.004.276-.042.058-.042.135.023.171.16.09.123.226.1.361.232.162.318.408.377.67.044.203.096.409.144.611.19.816.312 1.643.431 2.469.1.71.146 1.426.19 2.14.007.12 0 .24-.023.36-.117.679.145 1.178.764 1.485.05.025.105.044.157.063.391.155.805.224 1.224.234.59.017 1.175.004 1.763-.042a7.321 7.321 0 0 0 2.923-.841c1.228-.651 2.314-1.485 3.31-2.446.116-.113.225-.171.376-.105.033.015.063.016.094.027 1.216.301 2.324.845 3.374 1.512.75.475 1.477.981 2.205 1.483 1.718 1.189 3.576 2.067 5.61 2.562 1.166.284 2.346.491 3.539.613 1.012.104 2.023.152 3.04.074a26.87 26.87 0 0 0 2.633-.321c1.356-.242 2.687-.581 3.971-1.094 1.192-.477 2.293-1.127 3.356-1.844.837-.561 1.652-1.151 2.512-1.669.998-.605 2.048-1.081 3.186-1.351.14-.037.222-.004.314.091.6.59 1.24 1.123 1.929 1.604.856.598 1.753 1.113 2.757 1.421.55.171 1.115.246 1.684.287.734.062 1.465.082 2.193-.014.314-.041.621-.118.895-.275.475-.273.774-.642.73-1.228-.014-.192-.063-.382-.044-.578.046-.518.061-1.041.124-1.563.13-1.085.288-2.165.537-3.234.036-.159.082-.305.216-.41-.061-.037-.065-.081-.044-.144.132-.417.27-.83.403-1.249.011-.034.015-.067.061-.092a.878.878 0 0 0 .283-.33c-.071-.03-.12.008-.165.048-.015.019-.022.014-.02-.003.005-.014.017-.027.022-.037.123-.312.246-.628.397-.93.452-.873.883-1.756 1.59-2.463.226-.23.17-.498-.12-.66Z" fill="#263E6A"/><path fill-rule="evenodd" clip-rule="evenodd" d="M82.694 83.692c-.973-.08-1.948-.08-2.92-.025-.942.05-1.877.16-2.783.445-1.09.345-2.05.935-2.948 1.626-.768.592-1.464 1.259-2.16 1.933-.51.491-1.022.982-1.536 1.47-.956.912-2.096 1.443-3.377 1.715-1.006.21-2.02.3-3.046.302-1.081.003-2.157-.034-3.22-.252-.864-.18-1.704-.42-2.466-.88-.43-.26-.812-.586-1.18-.918-.703-.631-1.362-1.305-2.046-1.956-.874-.823-1.78-1.609-2.814-2.237a8.317 8.317 0 0 0-3.259-1.125c-1.3-.172-2.6-.178-3.906-.123-.182.006-.366.058-.567.018.04-.357.082-.707.122-1.055.058-.473.104-.948.18-1.414.08-.485.148-.97.196-1.455.01-.094.065-.116.147-.12.351-.03.707-.063 1.058-.094.818-.064 1.636-.132 2.456-.194.812-.058 1.624-.111 2.433-.165a253.98 253.98 0 0 1 8.665-.44c1.582-.05 3.17-.09 4.758-.073 1.207.013 2.418.038 3.625.086.965.035 1.931.065 2.898.11 1.035.049 2.073.112 3.11.174 1.109.064 2.218.134 3.327.214.97.069 1.945.148 2.916.224l1.925.157c.104.005.157.027.167.148.034.32.063.638.13.954.148.776.207 1.56.318 2.34.025.198.046.398.067.592-.094.047-.187.025-.27.018Zm-37.41-6.43c.013-.1.042-.131.142-.138 1.076-.08 2.151-.173 3.228-.254 1.021-.08 2.038-.153 3.061-.222a160.94 160.94 0 0 1 2.87-.165c1.157-.063 2.314-.128 3.473-.173 1.4-.05 2.801-.1 4.203-.115 1.467-.012 2.933-.01 4.4.028 1.261.039 2.529.08 3.79.132 1.103.05 2.201.113 3.306.18 1.106.065 2.217.128 3.326.21 1.188.08 2.379.178 3.565.273.448.031.897.071 1.345.106.069.007.132.003.144.093l.21 1.736c-.298.01-.574-.04-.854-.058-.558-.037-1.121-.091-1.684-.134a837.374 837.374 0 0 0-3.682-.275c-.676-.045-1.35-.079-2.025-.116-.981-.06-1.96-.119-2.942-.174-.53-.026-1.062-.038-1.591-.065a154.76 154.76 0 0 0-4.302-.128 91.215 91.215 0 0 0-3.454.007c-.655.012-1.305.02-1.956.042-1.023.036-2.046.079-3.067.127-1.037.05-2.077.1-3.115.161-1.223.076-2.456.153-3.683.243-1.227.088-2.455.193-3.68.29-.308.024-.611.056-.919.081-.098.01-.205.003-.324.003.073-.569.148-1.131.215-1.694Zm.218-1.855c.025-.198.052-.398.081-.597.034-.24-.03-.195.237-.232.217-.03.435-.045.65-.062 1.055-.082 2.107-.163 3.155-.236.843-.062 1.688-.118 2.534-.17 1.236-.073 2.475-.154 3.713-.215 1.303-.063 2.609-.105 3.912-.154.507-.02 1.017-.037 1.521-.047.117 0 .161-.038.155-.153-.007-.065-.002-.13-.002-.195V55.868c0-.358.046-.32-.329-.315-1.04.016-2.08.035-3.117.062-.975.023-1.948.058-2.922.094-1.086.042-2.172.09-3.26.143-1.18.06-2.362.13-3.544.192-.123.006-.278.1-.364-.012-.064-.087.01-.231.026-.351.052-.439.11-.878.154-1.316.013-.125.057-.158.176-.165 1.535-.074 3.073-.16 4.61-.232 1.105-.051 2.208-.076 3.306-.123 1.387-.057 2.774-.085 4.157-.12.952-.02 1.901-.016 2.854-.023.184 0 .184.005.186.185v21.302c0 .375.044.323-.316.323a123.59 123.59 0 0 0-3.938.075c-1.11.036-2.221.087-3.332.141-1.1.059-2.203.126-3.303.193-.94.061-1.883.121-2.82.197-1.088.08-2.18.176-3.274.264-.287.023-.575.046-.864.067-.044.002-.099.017-.155-.032.035-.329.073-.669.113-1.01Zm.724-5.849c.127-1.038.253-2.073.385-3.108.17-1.363.345-2.725.516-4.085.12-.983.234-1.962.354-2.943.096-.805.192-1.61.293-2.416.031-.247.033-.257.284-.274.49-.03.98-.055 1.473-.08 1.109-.059 2.22-.119 3.329-.167 1.112-.05 2.223-.075 3.332-.127 1.383-.057 2.772-.076 4.157-.117.142-.005.32-.061.423.02.104.086.037.272.037.414.004 2.653.002 5.302.002 7.954v8.1c0 .283 0 .287-.272.302-.226.01-.452.016-.675.02-1.015.04-2.027.068-3.044.116-1.07.05-2.139.114-3.207.18-1.093.064-2.187.13-3.28.205-1.247.092-2.503.194-3.752.29-.253.024-.498.053-.748.075-.09.006-.143.003-.126-.127.176-1.412.345-2.822.519-4.232Zm2.138-17.303c.018-.128.027-.254.05-.38.03-.175.031-.176.218-.185l1.376-.067c1.132-.056 2.266-.12 3.4-.169 1.136-.048 2.27-.077 3.403-.12 1.779-.073 3.56-.1 5.339-.123 1.33-.018 2.66-.02 3.99.019.732.019 1.464.016 2.198.033 1.013.023 2.028.053 3.042.09a813.002 813.002 0 0 1 6.492.289c.316.014.627.035.941.054.084.004.176-.002.186.13.067.559.136 1.115.21 1.697-.39.01-.741-.037-1.093-.053-1.06-.046-2.123-.1-3.184-.157-1.198-.06-2.393-.104-3.596-.145-1.192-.04-2.383-.063-3.573-.1-1.912-.053-3.818-.047-5.73-.039-1.36.008-2.722.04-4.082.073-.932.02-1.866.054-2.799.09a296.818 296.818 0 0 0-6.01.29c-.301.018-.605.049-.927.047.048-.438.1-.854.149-1.274Zm.178-1.42c.031-.273.069-.543.1-.813.02-.005.042-.016.046-.01.377.373.784.197 1.157.028.203-.094.337-.128.538-.007.209.126.468.121.707.097.406-.046.799-.154 1.133-.413.097-.075.157-.177.245-.264.199-.202.416-.375.701-.446.201-.05.379-.016.534.129.102.093.202.188.3.28.128.12.281.195.45.22.118.014.248.03.32-.104.061-.106.12-.061.197-.012.166.113.346.224.559.185.28-.053.56-.12.778-.332.155-.151.157-.15.287.018.43.578.473.567 1.171.54.262-.011.486-.092.699-.239.251-.172.494-.36.803-.425.07-.013.103-.074.157-.108.14-.093.22-.096.343.017a.557.557 0 0 0 .471.135c.678-.085 1.238-.38 1.62-.967.087-.13.154-.267.349-.19a.077.077 0 0 0 .048-.001c.263-.14.433.048.581.198.465.486 1.666.497 2.13 0 .044-.048.109-.07.153-.117.096-.104.192-.172.332-.086.017.01.05.01.074.005.205-.07.288.06.385.208.376.574.932.865 1.604.948.176.023.356 0 .49-.148.094-.106.21-.095.301-.015.117.098.253.13.387.184.197.076.377.187.538.32.324.266.703.279 1.09.298.324.016.53-.143.709-.377.029-.036.058-.076.088-.115.163-.222.15-.2.382-.042.383.262.858.456 1.306.096.07-.059.127-.068.176.017.073.134.2.123.318.108.171-.021.32-.1.447-.215.099-.088.19-.173.285-.265.171-.166.366-.203.598-.134.308.092.533.288.736.52.18.2.373.348.647.425.28.08.546.183.843.164.242-.015.481-.029.688-.18.076-.057.14-.049.218.008.276.2.602.245.933.269.08.003.11.025.121.103.023.214.055.43.082.67-.232.031-.45.002-.663-.009-.919-.044-1.835-.094-2.75-.14-1.169-.062-2.334-.109-3.5-.15-1.068-.04-2.141-.066-3.21-.098-2.233-.069-4.463-.09-6.693-.069-1.45.014-2.9.052-4.347.089-1.082.027-2.157.06-3.236.104-1.239.053-2.475.12-3.714.182-.694.034-1.385.072-2.075.105-.182.01-.186.005-.168-.18Zm9.709-1.495c-.414.29-.977.283-1.32-.114.169-.065.32-.15.425-.295l.338-.465c.124.329.337.523.559.705.08.063.08.113-.002.17Zm-9.51-.189c.03-.125.041-.25.058-.376a.67.67 0 0 1 .623.183c.145.142.316.166.486.073.204-.109.418-.213.517-.447.037-.097.108-.134.21-.105.03.01.063.014.095.02.316.049.548-.066.694-.35.088-.17.14-.346.164-.53a.814.814 0 0 1 .378-.587c.082-.053.157-.11.23-.177a.552.552 0 0 1 .34-.167c.223-.007.449-.06.67-.007.216.05.411.076.555-.149.044-.07.12-.07.193-.028.07.04.142.077.217.103.203.077.4.07.565-.077.197-.176.387-.351.502-.604.186-.411.517-.688.933-.866.094-.04.188-.032.282-.035.12-.005.193-.054.24-.166.15-.39.443-.681.75-.928.29-.232.644-.403 1.052-.28.1.029.17.01.235-.069.217-.262.51-.355.839-.348.136.001.263-.058.403-.035.28.041.517.172.724.356.153.133.295.277.406.45.065.1.14.13.262.097a.873.873 0 0 1 .5-.01c.15.042.292.102.385.23.07.096.146.162.273.17.13.006.201.087.241.204.073.215.15.418.004.645a.597.597 0 0 0-.092.46c.038.169.155.217.301.127.178-.114.218-.104.323.066a.628.628 0 0 1 .054.58c-.117.318-.27.618-.523.855-.222.211-.485.33-.786.301-.185-.02-.272.031-.358.188-.256.478-.653.783-1.184.927-.143.035-.283.025-.43.033-.068.005-.12-.037-.165-.087-.029-.037-.058-.076-.092-.11-.13-.123-.184-.131-.334-.022-.138.1-.287.18-.452.221-.308.082-.57.015-.783-.23a1.251 1.251 0 0 1-.257-.433c-.052-.15-.082-.295.004-.457a.642.642 0 0 0 .044-.472c-.06-.224 0-.428.107-.625.182-.334.418-.603.768-.774.075-.038.115-.047.188-.008.211.117.218.111.358-.067.224-.268.834-.343 1.113-.139.073.055.069.124.058.194-.03.18.042.284.21.353.16.068.228.368.146.581-.109.27-.295.473-.527.646-.218.164-.448.168-.684.077a.397.397 0 0 1-.27-.413c.012-.132.054-.155.167-.076.086.057.172.156.276.056.088-.09.05-.213.002-.317-.075-.163-.188-.223-.372-.199-.266.03-.423.218-.444.483-.027.342.245.822.64.88.189.028.371.088.57.03a.742.742 0 0 0 .33-.185c.176-.178.337-.366.485-.567.235-.31.258-.806.047-1.134-.1-.156-.19-.306-.258-.486-.106-.282-.368-.385-.65-.438-.25-.046-.494.018-.74.051-.083.015-.133.09-.196.14-.075.059-.144.122-.248.132-.465.053-.8.312-1.067.678-.095.129-.176.268-.26.403a.714.714 0 0 0-.104.37c.006.084 0 .17 0 .284-.187-.155-.327-.31-.5-.425-.316-.206-.848-.134-1.067.177-.096.138-.122.299-.163.45-.023.091.07.201.159.212.098.012.173-.029.205-.13.02-.068.035-.138.06-.205.06-.16.186-.23.356-.231.491-.008.906.515.684 1.057-.065.16-.146.307-.245.445-.15.205-.351.313-.605.262-.19-.042-.311-.01-.443.163-.17.236-.454.288-.736.277-.105-.004-.168-.092-.235-.155-.173-.149-.27-.157-.447-.032-.272.187-.322.188-.553-.075-.178-.199-.385-.351-.644-.391-.35-.054-.695-.047-.958.253-.105.119-.23.224-.341.34-.23.254-.515.401-.858.446-.152.02-.303.041-.456.049a.732.732 0 0 1-.54-.165c-.171-.15-.326-.116-.476.003a1.288 1.288 0 0 1-.375.214c-.232.08-.402-.005-.582-.13-.171-.12-.232-.27-.182-.476Zm.388-1.61c.348-.32.55-.723.528-1.221a2.77 2.77 0 0 1 .031-.647.825.825 0 0 1 .134-.307c.123-.178.289-.257.5-.199.23.067.456.1.675-.017.072-.037.13-.004.178.04.348.316.726.287 1.122.117.058-.028.104-.069.18-.04.454.186.811-.006 1.14-.299.284-.249.429-.575.475-.947.006-.073.012-.146.033-.216.142-.513.536-.67.992-.39.108.07.215.142.339.188a.41.41 0 0 0 .387-.029c.278-.162.493-.386.673-.643.136-.187.132-.187.354-.128.025.005.046.019.073.023.383.102.481.069.711-.25.067-.09.138-.174.23-.241.153-.11.298-.18.482-.04.119.09.253.044.31-.065.07-.128.014-.306-.122-.361a1.76 1.76 0 0 0-.251-.087.733.733 0 0 1-.353-.189.609.609 0 0 0-.417-.166 1.753 1.753 0 0 0-.975.215c-.092.052-.192.09-.276.144-.22.143-.414.074-.613-.046a1.27 1.27 0 0 1-.303-.268c-.182-.227-.402-.202-.632-.138a1.151 1.151 0 0 0-.364.195c-.08.06-.147.06-.243.019-.487-.207-.778-.134-1.142.251-.14.147-.249.316-.401.45-.323.284-.683.2-.931-.087-.053-.06-.1-.126-.139-.195-.234-.402-.592-.572-1.048-.547-.08.007-.157.01-.238.01.004.003 0 .004 0 .006v-.005c-.01-.073.046-.113.083-.162.408-.534.967-.792 1.624-.9 1.6-.264 3.2-.54 4.801-.817.284-.05.56-.133.837-.222.85-.271 1.366-.875 1.686-1.675.157-.385.31-.777.494-1.15.311-.629.805-1.01 1.523-1.08.305-.029.608-.047.914-.047 1.015-.005 2.031-.008 3.046 0 .307 0 .609.02.916.049.739.073 1.23.478 1.534 1.127.188.392.343.8.512 1.197.289.682.737 1.227 1.448 1.508.498.197 1.019.298 1.544.387 1.504.255 3.01.504 4.519.768.554.1 1.018.379 1.376.822.034.044.082.08.071.144-.04.058-.1.04-.155.053-.334.06-.594.229-.759.534a.897.897 0 0 1-.318.357c-.257.153-.467.134-.713-.048-.186-.136-.297-.337-.459-.496-.094-.09-.183-.182-.299-.237-.25-.127-.504-.17-.761-.022-.136.081-.247.067-.368-.032a.896.896 0 0 0-.28-.146c-.24-.078-.463-.096-.656.13-.13.15-.282.288-.477.355a.493.493 0 0 1-.397-.018c-.251-.12-.483-.288-.766-.346a2.045 2.045 0 0 0-.648-.023.362.362 0 0 0-.218.096c-.163.174-.374.241-.596.296-.11.027-.211.08-.232.213-.015.094.002.18.073.242.078.064.163.062.251.022.084-.042.155-.131.261-.097a.91.91 0 0 1 .38.252c.058.065.108.14.152.214.107.18.272.216.458.188.096-.014.188-.045.28-.07.197-.05.197-.05.318.116.182.257.394.482.666.65.15.092.284.092.435.03.138-.052.25-.141.379-.217a.619.619 0 0 1 .412-.09c.23.034.406.142.472.385.044.155.078.309.097.471.075.594.676 1.17 1.196 1.193.117.006.228.014.333-.04.098-.053.171-.021.266.02.376.156.749.19 1.081-.11.071-.068.145-.09.24-.042.174.095.352.076.536.03.377-.095.6.038.707.41.04.134.042.269.047.407.004.21-.015.415.027.625.031.168.069.333.17.471.129.176.185.364.196.581.008.173.048.35.069.523.008.057.038.141-.055.164-.108.027-.173.113-.26.173-.191.135-.319.124-.49-.045-.097-.1-.187-.202-.277-.304a.37.37 0 0 0-.433-.114c-.186.062-.324 0-.416-.175a.882.882 0 0 1-.105-.32c-.06-.464-.355-.75-.709-1.012-.368-.271-.782-.332-1.211-.282a.745.745 0 0 1-.544-.128c-.134-.098-.253-.112-.4-.04-.351.172-.37.163-.63-.121a.636.636 0 0 1-.098-.138c-.307-.601-.774-1.016-1.42-1.223-.071-.022-.132-.043-.176-.114-.178-.286-.408-.535-.63-.79-.322-.37-.742-.53-1.223-.503-.151.008-.268-.019-.375-.11a3.008 3.008 0 0 0-.255-.184.592.592 0 0 0-.316-.107c-.274-.003-.548-.011-.822-.008-.203.004-.4.034-.565.154-.044-.022-.052-.054-.058-.083-.139-.468-.47-.714-.927-.817-.18-.041-.388-.025-.534-.11-.142-.082-.213-.276-.333-.405-.372-.395-.797-.688-1.355-.688-.396 0-.779.076-1.1.351-.247.212-.488.424-.655.7-.052.083-.13.082-.21.092-.295.035-.59.079-.847.249-.26.17-.402.407-.479.722-.29-.186-.602-.172-.918-.157-.096.003-.197.022-.289.005-.29-.047-.523.061-.732.241-.138.123-.287.157-.48.155-.487-.011-.91.16-1.223.559-.2.251-.427.483-.596.757-.044.074-.117.079-.184.098-.515.162-.904.48-1.218.908a.91.91 0 0 0-.149.248c-.069.181-.225.286-.364.406-.045.043-.098.054-.154.024-.055-.024-.111-.035-.16-.066-.18-.122-.342-.123-.524.022-.13.103-.293.13-.48.103-.596-.094-1.1.115-1.537.52-.19.18-.31.383-.366.637a2.298 2.298 0 0 1-.115.39c-.096.241-.216.296-.467.228-.155-.04-.289-.01-.395.11-.098.107-.193.217-.293.32-.17.17-.312.194-.49.038-.184-.166-.387-.212-.652-.187.027-.3.006-.576.267-.811Zm-.114-.55c.127-1.026.244-2.054.393-3.08.085-.596.267-1.173.466-1.742a.33.33 0 0 1 .147-.184c.28-.175.57-.188.874-.066a.495.495 0 0 1 .222.183c.09.132.186.26.276.398a.725.725 0 0 0 .586.328c.299.015.592-.031.805-.288.134-.162.287-.304.435-.452.053-.05.111-.094.17-.138.184-.132.364-.137.556-.008.272.183.341.171.588-.047.306-.268.398-.268.692.013.072.065.14.13.214.196.084.082.186.13.3.136.418.019.809-.03 1.135-.345.207-.196.45-.202.678-.073.136.08.144.12.06.242-.037.053-.081.1-.117.154-.123.189-.263.25-.506.189-.542-.137-.441-.139-.747.272-.108.15-.205.31-.353.423-.184.144-.264.147-.434-.006-.405-.362-1.28-.315-1.543.35-.067.165-.111.333-.157.506-.05.203-.103.406-.203.59a.704.704 0 0 1-.6.387c-.13.008-.25-.01-.343-.13-.09-.121-.14-.12-.26-.028-.109.083-.211.17-.343.215-.249.087-.44.037-.61-.158a1.081 1.081 0 0 1-.237-.546.45.45 0 0 1 .08-.343c.106-.15.156-.167.313-.075.088.05.167.123.264.046.083-.07.069-.177.06-.27-.006-.109-.063-.188-.167-.212-.197-.043-.39.009-.57.068-.12.035-.181.175-.23.295a1.177 1.177 0 0 0-.085.707c.01.056.027.11.033.165.017.133-.022.174-.159.174a.622.622 0 0 1-.144-.019c-.51-.166-.732.031-1.033.433-.161.22-.23.473-.22.749.012.257.002.513-.071.764-.04.131-.086.259-.161.373-.124-.012-.059-.088-.055-.146Zm28.461-5.008c.16.414.283.839.394 1.266.148.558.226 1.134.274 1.709.006.048.035.11-.057.1-.24-.279-.533-.37-.887-.24a.46.46 0 0 1-.14.02c-.148-.003-.186-.047-.157-.193.04-.204.084-.41.02-.618-.014-.045-.022-.093-.039-.138-.125-.375-.418-.544-.803-.473-.107.02-.17.088-.201.187a.335.335 0 0 0 .053.3c.03.04.083.049.131.034.036-.01.072-.033.109-.051.203-.116.356-.045.414.193.065.284-.127.745-.383.885a.504.504 0 0 1-.395.04 1.007 1.007 0 0 1-.393-.227c-.082-.074-.174-.112-.25-.006a.345.345 0 0 1-.307.16c-.15 0-.3-.036-.429-.13-.167-.117-.257-.287-.318-.47-.067-.208-.119-.42-.18-.626-.023-.079-.044-.153-.073-.23-.265-.71-1.167-.741-1.569-.369-.146.14-.205.14-.372.034a1.181 1.181 0 0 1-.312-.332c-.082-.113-.159-.22-.238-.333-.082-.116-.18-.174-.329-.128-.121.038-.255.042-.376.085-.11.033-.189.007-.266-.062-.115-.102-.197-.232-.289-.353-.056-.068-.008-.12.042-.164a.586.586 0 0 1 .667-.012c.065.05.128.098.19.148.229.186.486.278.781.239.042-.007.08 0 .121.006a.498.498 0 0 0 .435-.154c.097-.089.187-.179.283-.263.195-.16.305-.16.494-.007.063.052.117.111.18.158.167.128.282.131.458.013.297-.195.441-.19.71.054.185.165.367.338.524.531.26.316 1.067.402 1.366-.056.084-.129.174-.251.258-.377.169-.254.432-.282.7-.3.103-.01.128.073.16.15Zm-14.633 2.013c-.02.015-.032.035-.053.05-.115.105-.171.113-.284-.004-.283-.299-.63-.39-1.025-.373-.324.015-.534-.298-.442-.603.168-.543.647-.69 1.055-.648.234.025.249.023.349-.19a.68.68 0 0 1 .145-.192 2.38 2.38 0 0 0 .305-.37.71.71 0 0 1 .339-.258c.437-.19.878-.188 1.307.006a.752.752 0 0 1 .364.308c.06.1.15.186.23.276.08.082.151.159.195.27.063.156.136.186.307.16.256-.039.494.004.718.137.234.14.333.369.402.608.054.185-.199.486-.396.5h-.167a1.17 1.17 0 0 0-.902.327c-.186.17-.196.168-.37.004a2.103 2.103 0 0 0-.377-.298.792.792 0 0 0-.552-.12.303.303 0 0 1-.119.003c-.429-.085-.739.135-1.03.407Zm.575 1.596a.69.69 0 0 1-.186-.425 2.232 2.232 0 0 0-.155-.655c-.058-.159-.05-.195.086-.305.054-.047.11-.094.163-.142a.39.39 0 0 1 .356-.099c.13.034.25.04.38.005.142-.04.26.016.379.096.245.167.33.344.182.636-.086.167-.094.374-.115.564a.392.392 0 0 1-.126.272c-.156.155-.267.34-.335.553a.915.915 0 0 0-.004.569c.14.398.333.763.628 1.074a.787.787 0 0 0 .073.062c.19.137.189.135.013.275-.25.204-.553.248-.837.275-.354-.023-.674-.087-.929-.319-.125-.112-.125-.148.019-.224a.543.543 0 0 0 .178-.156c.226-.268.368-.585.496-.906.173-.438.025-.82-.266-1.15Zm7.435 3.619c-.278.29-.58.378-.937.31a1.073 1.073 0 0 1-.394-.17c-.117-.075-.113-.09-.006-.19.044-.038.084-.078.128-.11.188-.145.31-.34.424-.578.126.17.222.311.329.449a.69.69 0 0 0 .456.289Zm7.866.376c.015.099-.034.145-.123.177-.214.077-.392-.02-.572-.109-.045-.024-.085-.069-.131-.101-.17-.129-.31-.17-.498-.01a.738.738 0 0 1-.52.163 3.584 3.584 0 0 1-.74-.11c-.27-.065-.454-.261-.65-.442-.059-.053-.111-.117-.163-.176-.515-.536-1.2-.525-1.704.022a1.236 1.236 0 0 1-.142.132c-.148.123-.205.125-.355 0-.057-.044-.111-.089-.18-.116-.109-.037-.203-.038-.29.056-.12.135-.258.236-.463.197-.239-.048-.477-.111-.613-.338-.072-.114-.142-.148-.272-.114-.379.094-.634-.078-.814-.4-.117-.205-.21-.413-.199-.658.013-.4.431-.76.82-.691.124.02.228.085.266.217l.065.207c.033.11.11.161.22.136.093-.026.158-.106.137-.203-.047-.265-.117-.546-.43-.673-.364-.148-.69-.065-.984.18-.096.081-.186.175-.293.28-.044-.092-.029-.179-.025-.262a.604.604 0 0 0-.073-.349c-.16-.248-.301-.515-.52-.72-.248-.225-.526-.374-.863-.399-.096-.004-.159-.05-.23-.109-.364-.301-1.023-.305-1.393-.014a.524.524 0 0 0-.203.29.758.758 0 0 1-.157.32c-.301.415-.284.91.023 1.315.113.146.238.282.358.422.224.261.498.33.824.268.25-.05.473-.128.632-.357a.95.95 0 0 0 .14-.692c-.035-.21-.205-.3-.393-.346-.172-.045-.285.009-.377.146-.01.02-.027.038-.035.062-.042.104-.032.285.029.32.104.064.176-.014.253-.068.12-.082.176-.054.18.087a.379.379 0 0 1-.146.318c-.174.147-.51.195-.708.075a1.482 1.482 0 0 1-.598-.64.602.602 0 0 1-.038-.466c.028-.09.067-.166.178-.207.155-.051.203-.152.174-.318-.021-.126.02-.197.132-.249a.902.902 0 0 1 1.069.221c.102.116.146.134.29.042.107-.066.174-.04.274.015.423.213.668.569.829.994.025.058.033.117.025.186-.037.264-.06.521.063.78.073.153-.015.316-.086.46-.148.3-.353.547-.713.574-.27.02-.502-.094-.72-.245-.163-.117-.234-.13-.345.027-.178.252-.416.206-.649.154a1.771 1.771 0 0 1-1.213-.916c-.088-.169-.18-.223-.379-.202-.29.03-.552-.086-.763-.29-.285-.268-.46-.601-.56-.968-.066-.234.016-.426.179-.593.06-.063.121-.08.178.001.03.042.071.064.117.078.128.042.199-.005.224-.138.031-.193-.021-.367-.107-.535-.096-.187-.042-.576.096-.718a.2.2 0 0 1 .128-.065c.144-.01.245-.091.339-.2.18-.21.433-.256.7-.231.032.003.066.01.095.02.176.07.28-.004.38-.148.18-.263.406-.477.695-.622.197-.097.402-.162.626-.105.083.022.175.012.265.02.274.017.523.097.705.316.092.109.184.132.316.084.16-.054.308-.017.469.031.625.182.975.652 1.276 1.176.054.1.102.177.226.18.481.008.797.297 1.082.64.058.074.119.157.148.247.084.25.276.408.452.58.199.187.427.213.672.097.048-.027.1-.05.15-.078.092-.049.172-.043.23.045.111.182.276.197.448.142.232-.073.46-.01.694-.019a.502.502 0 0 1 .369.155c.017.015.033.032.054.046.383.218.605.538.642.982.009.102.067.2.113.293.145.285.38.4.697.347.22-.042.207-.027.335.153.15.209.353.368.619.425a.362.362 0 0 0 .295-.077c.094-.07.182-.156.326-.219.059.28.084.542.109.805Zm.594 4.787c.063.559.138 1.113.21 1.685-.304-.013-.593-.022-.88-.037-.556-.03-1.11-.064-1.665-.093-1.127-.058-2.25-.118-3.376-.17-.701-.03-1.404-.046-2.103-.072-1.261-.05-2.529-.076-3.792-.104-.515-.012-1.03-.018-1.549-.032-.2-.003-.2.005-.204.2v17.625c0 .307 0 .307.305.318 1.397.048 2.801.085 4.203.149 1.092.044 2.186.11 3.28.176 1.115.064 2.234.133 3.35.208.987.07 1.976.149 2.964.226.529.044 1.059.092 1.592.128.13.01.17.063.184.184.05.456.109.91.163 1.362.015.096.025.192.042.32-.293-.025-.565-.043-.837-.065-.56-.046-1.123-.092-1.682-.136-1.264-.093-2.52-.188-3.784-.274-.971-.065-1.944-.115-2.915-.17-1.088-.057-2.173-.118-3.259-.163-.797-.036-1.596-.05-2.389-.081a81.72 81.72 0 0 0-2.95-.045c-.119 0-.184-.025-.171-.16.006-.044.002-.096.002-.141 0-7.07-.002-14.137 0-21.208 0-.35-.048-.302.311-.302 1.942.005 3.881.041 5.823.11 1.056.035 2.108.06 3.165.103.916.036 1.835.087 2.749.133 1.008.051 2.012.106 3.018.152.13.007.18.04.195.174Zm.268 2.406c.113.07.058.253.075.385.082.58.145 1.162.22 1.744.105.86.213 1.72.322 2.58.086.7.165 1.401.253 2.104.109.869.218 1.737.33 2.606l.247 2.056c.11.883.222 1.768.329 2.65.09.717.174 1.435.264 2.151.029.27.065.54.102.845-.406-.03-.772-.055-1.142-.081-.577-.045-1.155-.095-1.73-.139a453.498 453.498 0 0 0-3.109-.223c-.674-.047-1.35-.082-2.023-.118-1.03-.059-2.056-.12-3.086-.171-.644-.032-1.288-.05-1.93-.073-.637-.023-1.275-.044-1.909-.07-.173-.003-.175-.01-.18-.193-.004-.368 0-.741 0-1.113 0-5.06 0-10.12.005-15.177 0-.36-.055-.312.303-.304 1.054.022 2.107.052 3.163.085 1.07.031 2.14.062 3.211.106.934.038 1.866.088 2.797.132 1.021.053 2.044.105 3.065.16.144.005.314-.011.423.058Zm6.387 29.355c-.09-.678-.172-1.356-.264-2.033-.12-.942-.242-1.882-.364-2.824-.096-.684-.192-1.369-.272-2.055-.09-.724-.203-1.446-.301-2.167-.113-.806-.207-1.612-.312-2.415-.121-.93-.25-1.862-.37-2.792l-.305-2.414c-.14-1.05-.283-2.1-.419-3.15-.102-.804-.203-1.612-.307-2.414-.122-.924-.25-1.846-.373-2.77-.1-.81-.198-1.623-.305-2.436-.138-1.05-.28-2.1-.416-3.15-.105-.805-.203-1.61-.31-2.413-.12-.924-.247-1.847-.366-2.769-.107-.813-.205-1.626-.312-2.438-.123-.955-.25-1.91-.379-2.864-.094-.691-.16-1.387-.29-2.075-.155-.839-.39-1.659-.772-2.429-.542-1.102-1.454-1.75-2.624-2.019-1.01-.234-2.037-.394-3.05-.607-.707-.146-1.429-.228-2.136-.383a4.12 4.12 0 0 1-.895-.285c-.53-.249-.85-.647-.877-1.254a.88.88 0 0 0-.033-.188 5.651 5.651 0 0 0-.504-1.223 2.45 2.45 0 0 0-1.318-1.114 4.425 4.425 0 0 0-1.582-.28 812.562 812.562 0 0 0-5.586 0c-.393 0-.786.041-1.17.143-.524.139-1.02.352-1.392.767a3.255 3.255 0 0 0-.597.964c-.138.333-.272.666-.305 1.032-.056.558-.379.925-.875 1.156a3.98 3.98 0 0 1-.707.236c-.47.124-.947.17-1.422.258-1.218.228-2.429.479-3.642.71-1.526.286-2.59 1.115-3.153 2.577a11.555 11.555 0 0 0-.672 2.73c-.085.678-.171 1.355-.261 2.031-.121.938-.247 1.876-.37 2.82-.086.665-.168 1.332-.258 2.002-.119.923-.242 1.846-.364 2.77-.104.802-.205 1.609-.31 2.412-.15 1.17-.311 2.341-.464 3.51-.119.931-.234 1.864-.358 2.797-.134 1.048-.276 2.099-.414 3.149-.12.932-.234 1.864-.357 2.795-.136 1.05-.28 2.1-.419 3.15-.12.931-.234 1.864-.355 2.795-.12.923-.247 1.846-.37 2.77-.103.803-.204 1.609-.309 2.415-.125.947-.253 1.892-.376 2.84-.107.79-.215 1.578-.314 2.37-.058.493-.15.985-.175 1.484.058.234.067.466.048.709-.021.211.12.337.293.267.19-.083.384-.097.581-.11a.376.376 0 0 0 .266-.109c.123-.138.272-.15.44-.107.091.028.213.066.275-.012.157-.188.356-.148.555-.17.136-.016.271.046.401-.01.475-.051.94-.145 1.41-.18.509-.035 1.02-.057 1.523-.005 1 .107 1.948.407 2.854.844 1.268.611 2.374 1.45 3.416 2.38.795.717 1.582 1.448 2.37 2.174a7.522 7.522 0 0 0 2.408 1.49c1.021.391 2.076.63 3.155.787.7.103 1.406.156 2.115.167.431.006.868-.027 1.302-.06a15.473 15.473 0 0 0 3.27-.595c1.062-.32 2.074-.749 2.928-1.483.222-.197.452-.39.671-.588.78-.71 1.536-1.45 2.335-2.138.95-.818 1.95-1.559 3.082-2.109.929-.453 1.893-.772 2.922-.87.894-.082 1.785.004 2.668.159 1.065.177 2.102.464 3.125.808.052.013.098.062.165.01a48.812 48.812 0 0 1-.127-.97Z" fill="#263E6A"/><path fill-rule="evenodd" clip-rule="evenodd" d="M50.228 41.43c.004.003 0 .004 0 .006v-.005Z" fill="#263E6A"/><path fill-rule="evenodd" clip-rule="evenodd" d="M35.343 97.092c-.477-.37-.912-.788-1.351-1.2a43.83 43.83 0 0 1-8.387-10.757 42.91 42.91 0 0 1-2.37-4.988 43.016 43.016 0 0 1-1.774-5.457 43.637 43.637 0 0 1-1.233-7.718 45.113 45.113 0 0 1-.058-5.212c.058-1.24.165-2.474.332-3.704a43.567 43.567 0 0 1 4.546-14.407 43.412 43.412 0 0 1 5.598-8.286 44.047 44.047 0 0 1 7.99-7.296 43.551 43.551 0 0 1 8.425-4.679 43.402 43.402 0 0 1 9.102-2.692c1.638-.295 3.29-.5 4.96-.602a46.88 46.88 0 0 1 2.458-.092 43.64 43.64 0 0 1 7.147.51c2.182.336 4.33.833 6.437 1.496a43.773 43.773 0 0 1 17.33 10.32 43.8 43.8 0 0 1 6.276 7.602 43.46 43.46 0 0 1 6.337 15.729c.284 1.487.494 2.984.615 4.493.186 2.244.207 4.49.056 6.734a44.386 44.386 0 0 1-.891 6.308 43.458 43.458 0 0 1-4.544 12.035 43.633 43.633 0 0 1-3.885 5.818 43.819 43.819 0 0 1-4.882 5.247c-.517.472-1.049.927-1.584 1.382-.05.038-.094.086-.16.106-.144-.007-.108-.114-.089-.187.105-.412.237-.816.391-1.211.07-.179.264-.278.362-.442.448-.487.95-.916 1.425-1.374a43.548 43.548 0 0 0 2.406-2.546 41.673 41.673 0 0 0 2.642-3.362 42.104 42.104 0 0 0 2.529-4.002 41.929 41.929 0 0 0 2.349-4.956 42.967 42.967 0 0 0 2.576-9.671c.119-.812.198-1.63.278-2.448.174-1.749.163-3.506.132-5.259a32.757 32.757 0 0 0-.22-3.032 44.598 44.598 0 0 0-.632-4.084 42.404 42.404 0 0 0-2.039-6.897 43.623 43.623 0 0 0-3.182-6.479 43.734 43.734 0 0 0-3.674-5.21 42.954 42.954 0 0 0-3.788-4.03 42.105 42.105 0 0 0-4.923-3.97 42.537 42.537 0 0 0-5.475-3.227 43.09 43.09 0 0 0-7.866-2.941 43.1 43.1 0 0 0-5.28-1.052c-.902-.126-1.808-.201-2.716-.274a29.387 29.387 0 0 0-2.675-.095c-.868.012-1.739 0-2.611.045a44.2 44.2 0 0 0-4.655.493 42.142 42.142 0 0 0-10.378 3.072 42.302 42.302 0 0 0-8.565 5.039 46.335 46.335 0 0 0-3.488 2.946c-.79.738-1.548 1.501-2.276 2.299a43.685 43.685 0 0 0-5.401 7.318 42.267 42.267 0 0 0-2.337 4.612 41.364 41.364 0 0 0-1.835 5.09 42.67 42.67 0 0 0-1.261 5.929c-.136.974-.224 1.95-.318 2.925-.03.298-.036.596-.049.893-.037 1.021-.094 2.046-.056 3.067.07 1.69.182 3.374.412 5.053a42.245 42.245 0 0 0 2.019 8.323 41.897 41.897 0 0 0 2.51 5.73 45.02 45.02 0 0 0 2.383 3.98A42.86 42.86 0 0 0 31.655 92a48.03 48.03 0 0 0 2.696 2.838c.103.1.21.2.296.318.282.274.462.606.581.978.042.138.104.27.06.42-.026.087.028.148.076.215.077.108.107.224-.02.323Z" fill="#263E6A"/><path fill-rule="evenodd" clip-rule="evenodd" d="M83.782 89.342c.06-.054.119-.109.18-.157 4.152-3.304 7.324-7.366 9.493-12.21a31.481 31.481 0 0 0 2.34-7.798c.382-2.316.508-4.642.388-6.985a31.77 31.77 0 0 0-2.393-10.626 31.93 31.93 0 0 0-6.481-9.943 32.124 32.124 0 0 0-10.138-7.167 31.868 31.868 0 0 0-7.529-2.314 32.371 32.371 0 0 0-6.958-.465 31.844 31.844 0 0 0-11.274 2.526 31.857 31.857 0 0 0-9.412 6.125c-4.038 3.793-6.935 8.322-8.657 13.592a31.453 31.453 0 0 0-1.377 6.412 31.83 31.83 0 0 0-.1 6.038c.245 3.16.931 6.22 2.082 9.177a32.084 32.084 0 0 0 5.738 9.481c.26.3.519.597.778.892.21.285.484.51.73.757.138.137.205.249.015.383.07.053.136.038.197.037a.32.32 0 0 1 .067-.01c.132-.021.198.075.278.15.084.08.152.18.265.229h-.004c.013.022.028.042.055.049l-.005-.001a.068.068 0 0 0 .055.048l-.002-.005c.004.032.023.048.052.05l-.004-.005c.146.132.257.297.437.395l-.004-.002c.008.027.023.046.054.05l-.004-.004c.092.087.172.188.29.249.01.023.022.04.053.046l-.004-.004c.009.027.023.05.055.05l-.005-.005c.048.069.115.111.186.156.013.022.03.04.053.047l-.002-.004c.01.027.027.046.054.048l-.002-.005c.073.073.142.157.24.202l-.001-.003c.01.027.025.047.052.047.073.07.136.157.245.193l-.003-.004c.05.069.116.118.189.156l-.002-.004c.014.023.025.046.058.046.025.099-.012.154-.113.154l-.401.001a32.804 32.804 0 0 1-8.22-9.753 32.226 32.226 0 0 1-3.347-8.999 32.697 32.697 0 0 1-.68-8.097c.19-4.611 1.295-8.992 3.337-13.133a32.495 32.495 0 0 1 6.18-8.626 32.654 32.654 0 0 1 7.855-5.818 32.189 32.189 0 0 1 8.23-3.021 32.89 32.89 0 0 1 4.923-.697 31.943 31.943 0 0 1 4.659.028c3.138.24 6.184.9 9.117 2.042 7.056 2.74 12.546 7.366 16.458 13.848 1.906 3.155 3.2 6.562 3.935 10.176.473 2.341.694 4.705.648 7.088-.092 4.91-1.211 9.57-3.4 13.966-2.117 4.255-5.033 7.877-8.717 10.873-.062.054-.14.09-.175.167-.203-.031-.417.001-.607-.109ZM92.294 96.022c.023.023.046.046.067.07-.019.042-.063.093-.096.068-.048-.04-.015-.096.03-.138ZM95.489 79.447c-.076-.061-.16-.129-.237-.195.044-.01.086-.012.105-.06.08.05.147.12.199.194a.41.41 0 0 1-.067.06ZM97.246 76.6c-.017.04-.048.058-.086.029-.031-.034-.002-.065.019-.094.02.023.044.041.067.065ZM29.251 47.383c.027.009.036.03.004.041-.03.015-.058 0-.07-.035l.066-.006Z" fill="#263E6A"/><path fill-rule="evenodd" clip-rule="evenodd" d="M41.517 85.857c.136.176.2.36.11.58-.019.049-.008.113-.004.167.009.184.149.263.293.148.122-.094.232-.104.379-.088.144.019.299.019.397-.139.088-.137.23-.13.37-.108.061.007.126.03.183.06.09.04.159.022.19-.074.05-.131.155-.143.274-.143.228-.005.448.015.667.054-.366.084-.732.168-1.098.256-.554.132-1.096.313-1.644.47-.044.086-.145.05-.205.094-.14-.04-.113-.141-.076-.229.038-.09.047-.184.07-.28 0-.26.037-.515.094-.768Z" fill="#263E6A"/><path fill-rule="evenodd" clip-rule="evenodd" d="M41.422 86.626c.002.095.013.189-.025.287-.027.07-.044.154.032.221a.227.227 0 0 1-.036.03c-.084-.068-.228.08-.278-.051-.046-.126.127-.116.167-.2l.025-.046c-.253-.258-.5-.518-.755-.768-.059-.057-.1-.099-.09-.18.258.216.464.478.705.711.057.051.096.124.142.184.099-.065.061-.15.113-.188ZM41.429 87.134c.054-.063.136-.06.205-.093.081.182.28.262.38.425-.15.003-.209-.13-.297-.216-.081-.082-.171-.132-.288-.116ZM42.598 87.997c-.213-.055-.328-.224-.437-.395.163.112.307.245.437.395ZM42.933 88.29c-.15-.022-.228-.125-.289-.25.115.064.21.147.29.25ZM43.858 89.058c-.14.006-.195-.09-.245-.193a.627.627 0 0 1 .245.193ZM43.563 88.821c-.132-.008-.2-.09-.241-.202a.72.72 0 0 1 .24.202Z" fill="#263E6A"/><path fill-rule="evenodd" clip-rule="evenodd" d="M44.044 89.21c-.103 0-.161-.06-.189-.155.076.035.14.081.189.155ZM43.22 88.533c-.103-.005-.161-.06-.187-.156a.436.436 0 0 1 .186.156ZM43.56 88.818c.011.027.026.047.053.047-.005-.027-.023-.044-.052-.047Z" fill="#263E6A"/><path fill-rule="evenodd" clip-rule="evenodd" d="M44.1 89.252a.066.066 0 0 1-.058-.046c.029.004.052.017.058.046ZM43.324 88.624a.062.062 0 0 1-.054-.047c.027.004.048.018.054.047Z" fill="#263E6A"/><path fill-rule="evenodd" clip-rule="evenodd" d="M43.272 88.58a.073.073 0 0 1-.053-.047c.03.003.049.018.053.047ZM43.038 88.382c-.032-.005-.05-.019-.055-.05.027.004.046.02.055.05Z" fill="#263E6A"/><path fill-rule="evenodd" clip-rule="evenodd" d="M42.987 88.336c-.03-.006-.047-.019-.054-.046.03 0 .044.016.054.046ZM42.594 87.995c.008.027.023.046.054.05-.006-.031-.025-.047-.054-.05ZM42.113 87.557c.004.032.023.048.052.05-.004-.029-.023-.045-.052-.05Z" fill="#263E6A"/><path fill-rule="evenodd" clip-rule="evenodd" d="M42.06 87.514a.068.068 0 0 0 .055.048c-.004-.03-.023-.046-.055-.048Z" fill="#263E6A"/><path fill-rule="evenodd" clip-rule="evenodd" d="M42.065 87.515a.068.068 0 0 1-.055-.05c.032.004.05.022.055.05ZM83.07 93.616c-.008.015-.014.031-.029.038-.042.014-.102.037-.12-.017-.018-.06.043-.07.089-.08.023.02.042.042.06.06ZM29.046 68.813c.006.084.015.132.017.181.002.05.002.1-.063.106-.056.004-.121.017-.144-.056-.094-.315-.327-.323-.599-.293-.805.09-1.615.162-2.422.248-.214.025-.404.084-.42.375-.007.075-.047.11-.124.114-.1.003-.099-.067-.105-.128a267.48 267.48 0 0 0-.146-1.344c-.013-.108.038-.136.134-.148.385-.038.77-.08 1.152-.119.647-.07 1.297-.139 1.942-.205.207-.019.364-.097.385-.325.006-.095.054-.12.138-.117.098.004.083.078.092.138.04.352.073.705.109 1.059.02.182.037.366.054.514ZM81.411 29.38c.21-.052.379-.128.561-.152.517-.064.929.123 1.27.5a.82.82 0 0 1 .195.533c0 .084-.011.176.025.268.203-.044.39-.12.59-.152.516-.081 1.062.175 1.305.631.127.23.159.469.09.726a2.122 2.122 0 0 1-.178.419l-.952 1.71c-.035.072-.077.141-.113.214-.098.22-.088.27.086.448a.079.079 0 0 0 .015.017c.063.041.077.09.035.161-.05.087-.102.05-.159.016-.464-.258-.93-.514-1.393-.773-.059-.03-.113-.063-.171-.097-.038-.018-.061-.046-.043-.093.015-.047.038-.092.093-.106a.081.081 0 0 1 .043.009c.285.122.417-.056.534-.266.333-.598.663-1.197.996-1.797.06-.114.115-.229.136-.358.04-.225-.021-.352-.222-.455-.272-.139-.533-.06-.79.04-.053.022-.074.083-.101.133-.354.632-.705 1.266-1.056 1.897-.107.19-.164.375.04.539.064.051.056.106.014.167-.053.088-.105.037-.16.008-.493-.275-.984-.547-1.478-.82-.05-.028-.13-.04-.099-.132.028-.08.078-.113.166-.084.226.077.368-.03.475-.218.347-.635.698-1.266 1.05-1.904.04-.07.067-.145.094-.22.098-.313-.044-.546-.364-.606-.214-.04-.414.011-.611.095-.069.027-.098.082-.128.138-.357.64-.71 1.28-1.067 1.92-.104.186-.142.364.055.516.084.066.038.124.002.183-.048.071-.1.019-.144-.004-.507-.28-1.013-.564-1.52-.845-.054-.03-.131-.046-.098-.138.036-.084.093-.09.176-.072.278.057.37.013.525-.257.237-.412.463-.83.693-1.243.175-.318.355-.632.527-.952.121-.234.171-.363-.076-.573-.054-.048-.08-.088-.035-.16.052-.082.099-.06.161-.025l1.182.654c.09.047.08.098.034.171-.067.116-.128.237-.21.39ZM72.824 26.305c.15-.083.272-.157.404-.218.378-.186.761-.18 1.144-.016.437.188.657.582.6 1.052-.052.385-.165.755-.25 1.132-.09.384-.18.767-.279 1.147-.062.248-.073.466.197.597.077.038.077.096.056.163-.025.078-.087.06-.14.047-.563-.136-1.127-.273-1.688-.412-.056-.01-.115-.017-.102-.103.008-.075.041-.116.12-.113.243.008.342-.14.394-.349.174-.728.347-1.454.519-2.184.048-.204.052-.408-.132-.55-.182-.14-.38-.112-.573-.03-.232.102-.387.23-.446.513-.13.672-.307 1.335-.475 1.998-.048.206-.025.367.182.464.086.04.095.105.063.18-.03.077-.088.046-.14.034-.575-.14-1.144-.276-1.715-.412-.05-.017-.12-.018-.12-.094 0-.077.023-.127.124-.136.32-.03.38-.083.456-.392.343-1.39.68-2.782 1.016-4.176.01-.045.017-.092.026-.142.03-.16-.02-.284-.157-.37-.044-.025-.088-.042-.13-.07-.046-.032-.04-.083-.03-.13.015-.062.057-.071.112-.057l.397.094c.322.078.642.159.965.228.114.026.136.075.106.184l-.49 2.019c-.006.02-.008.044-.014.102ZM99.23 58.53c-.07-.426-.137-.855-.206-1.282-.03-.19-.063-.382-.09-.57-.006-.06-.044-.135.06-.153.068-.01.124-.006.147.073.088.277.304.31.544.274.582-.092 1.163-.182 1.741-.272.789-.121 1.577-.247 2.364-.37.077-.013.157-.028.234-.044.197-.036.325-.136.333-.351 0-.016.006-.031.006-.046.002-.074.032-.122.113-.128.098-.007.096.064.109.128.046.307.096.617.144.927.021.137.034.27.063.407.023.113-.009.155-.126.172-.644.095-1.288.196-1.931.297-.064.01-.129.017-.204.055.05.078.131.108.196.157.383.29.601.662.596 1.153-.008.468-.236.795-.675.954-.304.113-.628.134-.944.189-.5.082-1.002.161-1.502.236-.226.034-.376.129-.4.373-.006.09-.046.133-.136.13-.092 0-.092-.076-.102-.137-.086-.548-.171-1.095-.25-1.643-.007-.056-.076-.144.051-.175.094-.024.134.008.166.088.077.226.257.241.451.21l1.362-.211.762-.124c.096-.017.188-.039.28-.076.28-.113.366-.357.22-.628-.098-.187-.262-.304-.433-.411-.051-.032-.103-.03-.161-.02a319.3 319.3 0 0 1-2.193.348c-.217.032-.366.107-.38.352-.009.121-.101.127-.21.118ZM28.805 54.977c-.305 0-.592-.076-.874-.168-.858-.277-1.716-.556-2.573-.832a2.634 2.634 0 0 0-.348-.093c-.244-.052-.345-.006-.487.208-.04.06-.08.12-.104.19-.036.094-.095.088-.172.062-.103-.029-.063-.09-.042-.151.153-.48.31-.964.465-1.448.104-.328.209-.659.322-.986.023-.06.004-.176.144-.136.138.04.092.128.071.21-.03.1-.03.204-.037.309-.017.184.075.305.225.393.118.07.247.12.38.16.878.287 1.757.572 2.64.857.296.094.598.178.92.167.445-.01.768-.215.958-.617.117-.252.175-.52.174-.795 0-.388-.157-.7-.457-.945a2.416 2.416 0 0 0-.767-.399c-.887-.292-1.777-.58-2.664-.867-.029-.013-.062-.02-.091-.025-.404-.104-.6-.02-.802.343-.02.04-.048.083-.065.127-.029.082-.075.086-.15.06-.086-.03-.08-.076-.057-.15.138-.428.278-.858.414-1.286.028-.083.055-.167.082-.253.019-.059.046-.1.122-.08.07.016.12.044.113.128-.007.097-.007.191-.01.29-.001.172.08.291.233.362.103.047.207.092.314.129.81.265 1.623.524 2.435.785.316.101.622.225.898.409.705.47.937 1.134.77 1.952-.09.437-.239.852-.482 1.232-.35.544-.834.86-1.498.858ZM100.713 45.736l-1.4.736-2.479 1.305c-.13.066-.251.14-.366.231a.446.446 0 0 0-.155.498c.025.085.06.165.092.248.027.076.109.157-.027.217-.142.062-.144-.066-.18-.13-.161-.299-.314-.599-.473-.897l-.755-1.432c-.025-.048-.057-.1-.06-.155 0-.051.06-.066.104-.082.044-.018.075.005.096.043.054.081.107.165.163.239.17.212.32.26.578.181.098-.032.194-.077.286-.123 1.283-.675 2.563-1.352 3.843-2.027.025-.012.053-.033.099-.063-.17-.3-.348-.578-.64-.764-.325-.203-.672-.203-1.03-.128-.06.015-.121.038-.184.057-.199.068-.192.066-.263-.161.487-.254.979-.511 1.495-.778l2.358 4.479c-.027.077-.096.093-.151.12-.401.219-.807.434-1.211.648-.065.035-.125.074-.178-.025-.046-.086-.05-.142.036-.202.159-.112.297-.247.414-.404.255-.338.335-.706.205-1.114a2.912 2.912 0 0 0-.217-.517ZM70.15 25.245c-.161.033-.234-.03-.282-.168-.155-.416-.356-.814-.663-1.14-.317-.337-.693-.536-1.168-.557-.55-.022-.943.214-1.21.685-.2.361-.321.753-.392 1.16a6.493 6.493 0 0 0-.107 1.706c.025.316.096.619.232.908.239.514.65.782 1.212.83a2.203 2.203 0 0 0 1.439-.382c.182-.121.351-.261.52-.4.099-.08.12-.065.25.067.081.084.029.122-.028.174-.46.423-.956.796-1.596.9-1.54.254-3.086-.585-3.43-2.053-.285-1.205-.07-2.326.899-3.178.929-.82 2.004-.91 3.138-.473.188.073.368.169.55.246.251.103.354.07.51-.16a.863.863 0 0 0 .034-.063c.042-.09.121-.06.188-.054.09.01.059.078.057.132-.048.61-.103 1.216-.153 1.82ZM25.4 65.294c-.107-.13-.195-.236-.285-.339-.334-.374-.408-.814-.297-1.286.1-.426.379-.65.841-.71.197-.027.398-.047.6-.047.549 0 1.097-.005 1.647-.009.08-.002.159-.002.24-.008.197-.018.341-.096.367-.313.014-.091.054-.127.146-.12.096.01.08.081.082.143l.023 1.714c0 .055.018.123-.067.126-.063.008-.13.015-.149-.075-.06-.276-.26-.313-.493-.308-.722.021-1.438.033-2.153.047-.034.001-.065.001-.096.005-.421.045-.59.396-.364.751.081.13.196.23.32.325.046.035.096.05.157.048.748-.018 1.5-.01 2.247-.042.204-.01.34-.076.382-.287.019-.089.065-.117.15-.109.1.009.084.082.084.143.011.588.015 1.175.023 1.762.003.053.015.12-.069.13-.073.005-.135-.004-.148-.083-.059-.311-.274-.356-.542-.352-.8.018-1.594.025-2.393.038-.063 0-.126.005-.188.012a.343.343 0 0 0-.323.284c-.004.023-.01.048-.012.07-.006.095-.067.097-.138.096-.076-.001-.086-.056-.086-.116 0-.113-.004-.226-.004-.34-.005-.314-.006-.627-.01-.939-.005-.207-.005-.209.21-.21h.298ZM103.008 62.619c.05.108.127.137.186.19.416.37.562.835.462 1.376-.071.402-.312.655-.72.751a2.711 2.711 0 0 1-.575.06c-.631.014-1.272.032-1.906.046-.062.001-.127.012-.192.017-.165.017-.264.108-.301.269a.194.194 0 0 0-.015.069c-.008.077-.059.085-.121.086-.08 0-.088-.052-.088-.113-.013-.377-.028-.756-.036-1.133-.008-.203-.01-.404-.01-.605 0-.053-.015-.12.069-.13.069-.007.123 0 .142.087.054.246.234.297.46.289.722-.025 1.448-.042 2.172-.063.071-.002.146-.016.215-.033.316-.08.44-.326.312-.632-.082-.197-.249-.33-.418-.45-.055-.034-.113-.025-.168-.025-.707.021-1.416.042-2.121.065-.052.002-.101.012-.149.012-.159.004-.253.088-.299.235-.006.031-.014.062-.023.094-.019.075-.081.064-.138.064-.065 0-.073-.045-.077-.098-.002-.097-.01-.192-.013-.291-.008-.466-.004-.933-.035-1.4-.007-.075-.082-.205.069-.242.146-.035.142.086.173.176.063.19.211.253.394.251.282-.002.564-.01.847-.019.579-.013 1.159-.036 1.738-.048.247-.006.427-.08.459-.355.012-.093.071-.117.154-.106.084.013.061.082.063.135.015.433.027.866.038 1.303.002.16 0 .162-.157.165-.124.007-.243.003-.391.003ZM29.251 47.383c-.042-.122-.09-.242-.121-.364-.138-.49-.015-.923.307-1.307.251-.294.572-.376.94-.29.171.04.339.111.494.189.583.293 1.167.583 1.748.874.053.024.103.05.151.072.218.087.289.079.45-.097.063-.067.113-.107.2-.044.09.071.011.132-.018.189-.19.386-.385.778-.58 1.166l-.17.344c-.026.052-.047.11-.127.078-.058-.026-.113-.063-.092-.143.073-.276-.094-.393-.303-.496-.605-.3-1.211-.603-1.814-.906a1.721 1.721 0 0 0-.247-.098c-.37-.12-.673.125-.628.513.022.144.074.279.134.41.036.081.097.123.172.159.644.32 1.285.636 1.92.965.203.1.383.124.534-.083.052-.073.107-.041.167-.012.071.039.044.09.015.141l-.808 1.62c-.02.046-.05.087-.108.067-.05-.02-.11-.042-.1-.114.001-.017.005-.03.005-.05.032-.314 0-.38-.29-.525-.475-.241-.95-.478-1.423-.714-.274-.138-.548-.273-.822-.41-.261-.13-.41-.1-.55.101-.054.076-.103.078-.18.032-.075-.046-.038-.098-.013-.142.212-.425.425-.85.642-1.272.005-.015.021-.02.04-.037.136.062.272.127.408.19.025.008.048.028.067-.006ZM61.209 23.012c.307-.002.563.056.795.203.238.149.347.37.324.656a.45.45 0 0 1-.322.41c-.207.074-.402.05-.563-.105-.14-.136-.163-.305-.094-.488.027-.076.069-.146.09-.223.027-.093-.004-.155-.105-.18a.4.4 0 0 0-.493.278 1.04 1.04 0 0 0-.01.36c.024.318.056.64.087.96.015.145.034.157.188.14.142-.01.291-.022.431-.04.134-.022.149.063.149.157.004.092.044.201-.115.205-.155.004-.306.032-.458.038-.097.006-.149.03-.136.144.083.849.159 1.701.238 2.55.004.023.01.046.017.072.071.37.127.418.504.447.031.002.065.002.098.002.07 0 .132.009.136.096.006.093-.054.11-.121.116l-.385.037-1.66.15-.072.007c-.054.006-.096-.013-.107-.07-.014-.059-.014-.12.063-.13.372-.068.387-.331.36-.625-.06-.626-.117-1.251-.176-1.875-.021-.227-.05-.45-.065-.674-.004-.083-.033-.115-.117-.107-.082.01-.16.014-.239.024-.06.005-.123.018-.14-.058-.014-.091-.048-.186-.006-.28.017-.04.075-.016.113-.03.111-.034.27.039.329-.086.04-.093-.009-.22-.022-.333a2.242 2.242 0 0 1 .067-.79c.122-.436.402-.725.835-.863.203-.065.408-.099.582-.095ZM95.489 79.447a.66.66 0 0 1-.093.726c-.156.195-.36.227-.573.096-.083-.049-.163-.13-.261-.042-.086.073-.092.179-.06.288.033.135.1.254.181.365.132.172.276.339.406.51.063.085.144.115.245.128 1.031.123 2.06.255 3.092.376.192.023.385.02.58.025.123.003.242-.01.322-.123.054-.072.11-.042.169-.008.075.041.033.096.008.142-.303.54-.604 1.082-.91 1.624-.027.052-.046.12-.138.08-.098-.041-.086-.1-.048-.173.008-.014.012-.026.019-.045.09-.26.04-.353-.232-.39-.615-.081-1.233-.155-1.84-.233-.043.052-.008.08.015.108.333.393.67.784 1.003 1.177.041.045.087.097.136.139.207.19.322.181.495-.042.015-.021.028-.036.042-.058.034-.062.075-.068.138-.032.057.033.078.069.04.136-.178.315-.354.632-.53.947-.026.042-.05.085-.11.049-.048-.027-.12-.044-.092-.12.106-.268-.065-.443-.216-.623-.749-.885-1.5-1.769-2.249-2.655a9.433 9.433 0 0 1-.715-.97c-.282-.436-.23-.853.046-1.263.224-.336.502-.436.893-.334.111.03.208.076.237.195ZM51.458 29.427V27.7a.665.665 0 0 0-.017-.143c-.044-.222-.13-.282-.356-.242-.05.007-.092.027-.14.038-.063.01-.08-.034-.098-.082-.023-.056-.015-.09.044-.113l1.035-.397c.042-.015.08-.026.099.025.023.048.075.105.008.147-.274.164-.249.432-.247.69.008 1.102.017 2.207.03 3.309.006.453-.013.902-.084 1.347-.088.557-.513.93-1.078.952-.349.015-.638-.211-.692-.542-.038-.227.067-.391.25-.508.191-.123.396-.178.612-.05a.39.39 0 0 1 .167.256c.017.091.046.179.157.184.094.005.163-.06.211-.14a.882.882 0 0 0 .122-.435c.01-.226.004-.453.01-.677a.284.284 0 0 0-.083-.215c-.808-.846-1.57-1.73-2.413-2.542-.146-.144-.284-.314-.535-.264-.06.01-.071-.054-.088-.098-.03-.082.036-.092.086-.113.32-.124.644-.25.968-.373l.72-.271a3.47 3.47 0 0 1 .092-.036c.054-.019.09.004.113.054.021.048.032.091-.023.127-.013.008-.027.014-.042.02-.366.171-.276.32-.086.525.38.397.75.801 1.124 1.2.035.04.056.101.134.093ZM29.757 69.7c.51-.01.904.195 1.157.644.237.417.327.854.205 1.325-.1.374-.376.596-.723.593a.461.461 0 0 1-.45-.31c-.08-.207-.036-.456.1-.585.109-.104.24-.126.385-.104.06.013.121.031.182.051.245.08.31.03.285-.226-.025-.21-.128-.313-.341-.34a1.003 1.003 0 0 0-.335.02c-1.322.231-2.645.464-3.97.698-.277.05-.47.127-.436.512.009.08-.015.12-.098.128-.097.009-.097-.056-.107-.125-.08-.457-.161-.919-.247-1.377-.025-.124.01-.167.132-.19.372-.059.743-.131 1.115-.2.898-.151 1.793-.31 2.688-.462.15-.024.301-.033.458-.052ZM104.873 71.016l-.249 1.368c-.021.102-.083.097-.163.08-.521-.099-1.046-.197-1.565-.291-1.058-.199-2.115-.4-3.175-.596-.063-.013-.128-.013-.19-.02-.156-.022-.266.04-.344.17a2.29 2.29 0 0 1-.048.086c-.037.075-.092.067-.165.046-.08-.022-.052-.087-.044-.137l.211-1.16c.04-.199.08-.395.115-.594.01-.047.017-.1.086-.09.046.006.097.01.125.061.005.012.009.03.01.048.02.313.242.376.495.426 1.345.245 2.686.498 4.027.75.059.008.113.012.169.029.214.052.381 0 .477-.211.004-.009.011-.015.015-.023.027-.08.09-.073.155-.061.086.019.06.08.058.119ZM97.28 39.67c-.047.083-.122.118-.187.166l-3.686 2.814a3.9 3.9 0 0 0-.184.153c-.128.11-.186.24-.117.408.014.03.017.062.029.09.038.086-.033.115-.084.15-.056.04-.088-.011-.112-.05-.369-.479-.737-.958-1.099-1.437-.021-.032-.065-.06-.021-.1.034-.043.071-.088.136-.082.015 0 .031.01.042.024.239.204.441.088.644-.07 1.113-.851 2.226-1.7 3.341-2.55.044-.031.088-.07.13-.107.12-.102.17-.23.109-.387-.01-.03-.023-.06-.034-.09-.03-.086.038-.115.09-.147.059-.039.084.008.115.048.295.388.592.78.887 1.166ZM39.012 34.824c.017-.236.026-.433.046-.63a.955.955 0 0 1 .41-.706c.319-.22.693-.155.915.154.132.184.173.383.052.588-.113.2-.301.283-.527.268-.105-.009-.207-.034-.31-.043-.15-.016-.203.018-.26.154a.633.633 0 0 0-.01.404c.048.166.147.305.258.432l1.02 1.193c.03.034.066.07.099.102.25.254.34.265.653.088.031-.014.056-.033.085-.05.072-.042.099.02.134.06.046.049.021.087-.02.121-.174.145-.344.292-.518.438-.334.291-.669.578-1.008.862-.042.037-.077.117-.157.045-.077-.066-.067-.12-.01-.202.15-.222.153-.292-.034-.515-.422-.513-.857-1.02-1.288-1.53-.132-.153-.26-.308-.398-.456-.19-.206-.265-.219-.527-.103-.054.025-.096.055-.15-.004-.047-.05-.082-.096-.011-.16.379-.32.76-.644 1.142-.972.138.152.264.297.414.462ZM49.272 31.366c-.015.642-.398 1.121-1.015 1.245-.337.07-.609-.036-.805-.308a2.387 2.387 0 0 1-.214-.378c-.35-.69-.69-1.383-1.037-2.074-.09-.178-.09-.177-.262-.094-.019.01-.038.023-.063.03-.056.022-.113.09-.171.024-.054-.059-.099-.133-.063-.221.019-.059.048-.118.07-.178.2-.5.34-1.023.413-1.56a.979.979 0 0 1 .025-.168c.021-.08.097-.107.166-.117.058-.01.07.054.092.094.173.343.35.688.516 1.037.049.096.09.113.185.063.146-.081.297-.152.45-.23.15-.07.152-.069.227.084.015.03.023.06.044.088.042.063.02.101-.046.13-.165.081-.328.168-.495.246-.095.046-.134.086-.076.203.367.715.722 1.437 1.086 2.155.032.07.084.14.138.197.178.18.416.138.534-.092.048-.094.052-.2.064-.304.015-.085.03-.157.147-.146.119.01.081.096.09.16.002.032 0 .067 0 .114ZM100.16 52.447c1.513-.014 2.264.992 2.218 2.046a1.367 1.367 0 0 1-.115.492.74.74 0 0 1-.45.414.54.54 0 0 1-.724-.401c-.057-.247.035-.447.268-.555.119-.056.247-.07.372-.107.329-.092.414-.385.195-.65a.544.544 0 0 0-.398-.207c-.828-.065-1.586.142-2.207.711-.582.538-.483 1.265.194 1.676a.48.48 0 0 0 .067.034c.07.034.089.08.046.154-.037.07-.077.075-.15.046-.74-.266-1.268-.98-1.261-1.754.004-.551.242-1.01.658-1.37.43-.366.938-.52 1.287-.529ZM86.976 36.37c-.054-.943.81-1.969 1.818-2.142.756-.134 1.354.142 1.85.696.18.201.286.446.332.712a.731.731 0 0 1-.184.648.541.541 0 0 1-.76.046c-.208-.18-.242-.414-.1-.647.078-.127.197-.215.285-.329.155-.204.125-.388-.086-.539a.512.512 0 0 0-.479-.07c-.195.062-.366.169-.519.295-.51.418-.91.916-1.063 1.572-.14.613.187 1.134.78 1.264.126.027.256.015.381.009.08-.002.12.022.124.106.002.07-.023.092-.092.113-1.121.32-2.285-.562-2.287-1.733ZM42.289 34.146c-.74.013-1.2-.336-1.323-.975a1.11 1.11 0 0 1 .252-.947c.194-.236.443-.397.723-.508.128-.049.26-.093.383-.144.111-.04.207-.106.197-.243-.01-.084.052-.116.11-.135.057-.023.078.042.103.078.186.263.373.526.557.79.027.04.088.086.012.143-.056.046-.11.093-.188.03a1.415 1.415 0 0 0-.379-.21c-.326-.12-.648-.128-.945.081-.226.157-.308.358-.239.579.063.215.23.327.498.344.247.013.483-.046.722-.082.228-.036.458-.067.692-.079.657-.03 1.153.5 1.203 1.14.036.469-.146.826-.508 1.113-.264.21-.575.314-.893.409-.25.071-.25.071-.274.338-.009.077-.046.12-.107.144-.073.034-.1-.031-.13-.072-.215-.313-.435-.622-.65-.932-.032-.045-.082-.092-.013-.143.06-.045.117-.118.205-.03.105.101.226.182.354.25.426.222.968.137 1.296-.194.157-.157.22-.34.13-.548a.532.532 0 0 0-.477-.354c-.2-.014-.401.044-.598.07-.255.034-.506.091-.713.087ZM31.739 41.942l1.19-1.564c.04-.046.069-.119.15-.061.084.053.08.11.026.179-.013.018-.028.04-.036.06-.117.224-.081.32.163.39.419.123.84.232 1.258.347.171.044.336.088.506.138.017-.065-.01-.097-.032-.128-.242-.418-.49-.834-.732-1.251a1.122 1.122 0 0 0-.211-.264c-.138-.121-.22-.121-.358 0-.042.04-.08.08-.117.12-.054.058-.1.028-.146-.009-.05-.04-.046-.077-.009-.124l.67-.884c.027-.032.056-.063.098-.032.044.032.12.05.086.124-.13.27.015.485.14.7.552.934 1.104 1.871 1.657 2.81.027.048.054.099.084.145.041.06.041.113 0 .175-.055.072-.111.084-.19.06-.365-.1-.729-.198-1.095-.296-.738-.199-1.47-.42-2.215-.584-.11-.025-.222-.04-.335-.062-.115-.021-.226-.021-.314.067-.115.114-.163.012-.238-.056ZM86.803 32.404a.386.386 0 0 0-.126-.258c-.067-.073-.031-.127.019-.186.058-.063.1-.01.144.02.358.264.714.526 1.065.79.134.098.132.103.027.244-.41.559-.822 1.114-1.234 1.672-.197.266-.391.531-.59.796-.125.17-.188.342-.012.518.069.069.033.127-.02.183-.054.063-.098.011-.142-.021-.472-.346-.947-.696-1.418-1.045-.04-.033-.107-.057-.054-.132.04-.054.08-.107.157-.071.274.13.435-.019.585-.224.475-.647.959-1.294 1.436-1.942.075-.102.156-.209.163-.344ZM43.74 30.927c-.065.01-.131.015-.188.036-.094.03-.11-.037-.144-.089-.038-.065.008-.09.05-.113.4-.238.805-.476 1.205-.713.096-.056.13-.002.165.065.243.409.488.818.728 1.226.264.45.53.902.8 1.352.037.064.077.122.117.183.081.13.2.182.349.15.025-.01.05-.01.073-.018.082-.038.11.021.146.078.047.075-.008.1-.056.127l-1.517.897c-.05.028-.1.072-.148.003-.036-.056-.073-.107-.002-.17.22-.188.157-.392.031-.602-.422-.714-.843-1.43-1.266-2.143-.04-.062-.085-.117-.13-.172a.27.27 0 0 0-.213-.098ZM30.364 44.159c.257-.41.506-.811.762-1.212.087-.139.09-.139.24-.046.697.435 1.391.873 2.086 1.31.182.117.368.23.554.345.16.1.314.117.456-.03.046-.044.099-.087.17-.039.05.033.094.065.05.135-.044.064-.086.135-.128.201l-.811 1.29c-.036.054-.053.148-.157.093-.08-.039-.09-.094-.059-.178.08-.195-.006-.342-.165-.458-.098-.067-.203-.131-.303-.197l-1.78-1.118c-.068-.041-.139-.08-.208-.122-.159-.091-.31-.09-.435.049-.096.1-.171.095-.272-.023Z" fill="#263E6A"/><path fill-rule="evenodd" clip-rule="evenodd" d="M25.919 73.36c.537-.133 1.05-.264 1.566-.394.513-.13 1.028-.26 1.544-.385.21-.053.385-.13.373-.394-.007-.09.054-.129.134-.138.081-.001.081.062.096.113.138.563.28 1.126.422 1.687.015.061.043.125-.052.159-.069.025-.119.02-.155-.055-.117-.272-.345-.259-.573-.205-.261.059-.517.126-.776.19-.513.131-1.027.258-1.544.386-.052.016-.106.033-.16.047-.172.05-.281.157-.292.342-.002.033-.008.065-.008.097.002.076-.05.087-.107.097-.084.017-.094-.04-.106-.094l-.277-1.1c-.029-.109-.054-.221-.085-.354ZM29.795 43.275a.646.646 0 0 1-.647-.669c.005-.35.3-.638.653-.64a.666.666 0 0 1 .657.69c-.008.354-.295.622-.663.619ZM43.598 29.835a.653.653 0 0 1-.665-.65c0-.353.29-.654.636-.662a.657.657 0 0 1 .673.646.638.638 0 0 1-.644.666ZM23.153 68.6a.65.65 0 0 1 .678-.638.65.65 0 0 1 .63.659.652.652 0 0 1-.664.65.652.652 0 0 1-.644-.67ZM24.814 73.596c.364.001.65.301.638.673a.647.647 0 0 1-.653.635.655.655 0 1 1 .015-1.309ZM24.837 71.303a.647.647 0 0 1-.674.636.647.647 0 0 1-.632-.66.642.642 0 0 1 .664-.648c.37.004.646.297.642.672ZM88.313 32.116a.638.638 0 0 1-.644-.661.668.668 0 0 1 .65-.643.66.66 0 0 1 .657.662c.002.369-.28.644-.663.642ZM32.182 80.862a.835.835 0 0 1-.184.114l-1.747.866c-.096.052-.148.052-.2-.06-.116-.264-.23-.528-.237-.826a.89.89 0 0 1 .293-.667 2.11 2.11 0 0 1 1.215-.589.747.747 0 0 1 .643.211c.152.146.265.323.334.521.063.183.03.31-.117.43Zm-2.395 1.21c-.554.271-1.105.55-1.665.819-.197.09-.31.047-.438-.128a1.033 1.033 0 0 1-.17-.37c-.039-.178-.04-.353.072-.509.339-.453.814-.661 1.351-.747.212 0 .379.089.52.234.158.16.273.354.38.55.044.078.023.116-.05.151Zm3.786.288c-.41-.823-.818-1.646-1.228-2.466a3.006 3.006 0 0 0-.393-.605 2.368 2.368 0 0 0-.778-.643c-.368-.187-.75-.222-1.138-.053-.63.27-.883.848-.82 1.542.012.165.048.326.073.491-.107.009-.128-.067-.167-.112a1.89 1.89 0 0 0-.586-.419.975.975 0 0 0-.657-.086c-.636.145-1.007.668-.946 1.346.04.424.17.82.354 1.199.376.774.76 1.543 1.14 2.317.01.024.023.042.034.064.027.064.069.085.134.05.052-.03.098-.057.068-.13-.02-.059-.04-.12-.056-.182-.094-.31-.019-.481.26-.644a1.26 1.26 0 0 1 .125-.066c1.171-.577 2.339-1.157 3.51-1.735.07-.034.145-.068.22-.095.205-.071.38-.015.52.147.057.068.107.14.15.22.041.077.093.065.16.035.105-.05.05-.114.021-.175ZM100.472 79.25c-.092.197-.253.28-.496.28-.492-.086-.981-.258-1.393-.604-.161-.136-.193-.31-.126-.502.071-.201.214-.316.433-.328.053-.004.111-.01.165.004.465.095.896.263 1.272.551.218.164.258.36.145.6Zm-3.607-2.179c-.171.409-.337.82-.508 1.228a1.485 1.485 0 0 1-.18.313c-.103.134-.237.192-.402.155a.403.403 0 0 1-.322-.293c-.025-.086-.03-.172-.042-.261.073-.552.245-1.066.586-1.513a.772.772 0 0 1 .122-.117c.376-.308.696-.017.778.282.023.074-.007.138-.032.206Zm4.042 1.14a1.232 1.232 0 0 0-1.722-.97c-.18.078-.339.187-.485.317-.034.029-.063.083-.134.029-.014-.01.004-.036.002-.056-.013-.268-.04-.533-.16-.774-.216-.433-.696-.54-1.07-.231-.031.022-.06.05-.092.074-.059.015-.086 0-.067-.065 0-.056.01-.114.01-.17-.001-.25-.106-.456-.332-.575-.228-.12-.437-.048-.63.098a1.378 1.378 0 0 0-.297.314 4.572 4.572 0 0 0-.766 1.804c-.08.416-.046.82.193 1.186.023.109.086.177.199.194a.97.97 0 0 1 .069.03c.579.334 1.05.229 1.439-.322.13-.184.222-.39.307-.599.126-.287.243-.575.39-.856.062-.125.154-.204.307-.183.14.024.228.118.266.248a.56.56 0 0 1-.027.423 2.787 2.787 0 0 0-.28.918c-.055.46.033.873.437 1.153.297.203.623.289.99.216.045-.014.095-.074.154 0l-.088.217c-.148.364-.148.364.226.498.015.003.033-.007.056-.013l.055-.125c.188-.434.362-.868.657-1.252.328-.44.475-.963.393-1.529ZM30.358 61.006c-.055.145-.115.282-.232.39a.417.417 0 0 1-.51.066c-.197-.106-.285-.268-.262-.465.044-.376.083-.753.13-1.127.016-.153.041-.303.085-.45.057-.184.165-.314.37-.331.182-.015.346.089.438.28.104.224.125.467.119.762-.021.26-.036.574-.138.875Zm-3.25-.399c-.12.039-.25.043-.37.056-.384-.025-.76-.045-1.117-.187-.205-.073-.343-.209-.345-.441-.006-.276.153-.46.442-.517.294-.054.59-.013.885.027.196.026.393.072.573.161.217.114.299.252.278.484-.019.22-.142.35-.345.417Zm3.626-.98a1.666 1.666 0 0 0-.272-.791c-.244-.353-.598-.48-1.006-.46-.397.021-.642.268-.795.616a2.368 2.368 0 0 0-.102.297c-.082.294-.095.604-.14.905-.026.182-.05.366-.084.55-.019.114-.071.214-.2.24a.32.32 0 0 1-.344-.129.507.507 0 0 1-.111-.404c.05-.334.069-.67.019-1.008-.113-.711-.576-1.089-1.293-1.046-.218.01-.4.109-.596.205-.013-.127.006-.237.023-.35.042-.305.02-.324-.285-.332-.09 0-.14.021-.146.114-.007.09-.019.177-.03.266-.041.358-.062.716-.225 1.05-.124.256-.147.545-.155.827-.009.312.035.611.173.891.277.56.82.823 1.427.683.347-.082.594-.304.801-.584.05-.065.072-.16.174-.193.019.06.035.104.048.149.073.215.174.414.312.596.26.345.876.425 1.138-.056.025-.05.04-.12.123-.129.02.095.034.18.057.267a.6.6 0 0 0 .483.454c.226.05.406-.057.546-.232.13-.16.211-.342.272-.536a4.704 4.704 0 0 0 .188-1.86ZM91.259 39.885c-.161.128-.368.071-.548-.015-.285-.138-.354-.43-.16-.684.243-.321.574-.423.963-.343.205.045.4.124.605.266-.297.272-.563.54-.86.776Zm2.468-1.603a2.686 2.686 0 0 0-1.098-1.307 1.522 1.522 0 0 0-.558-.214.819.819 0 0 0-.701.184c-.285.24-.302.578-.044.847a.501.501 0 0 0 .525.156c.199-.055.301-.206.345-.4.006-.03.006-.064.015-.094.04-.194.146-.255.332-.194.186.062.308.201.419.352.203.28.2.502-.027.762-.128.145-.276.27-.415.402-.163.15-.163.15-.36.033-.418-.245-.843-.478-1.295-.644a1.56 1.56 0 0 0-.612-.113c-.75.042-1.147.814-.74 1.444.12.185.29.32.48.435.274.162.571.247.892.269.022.075-.011.104-.03.135-.157.266-.105.51.086.735.234.284.546.411.908.421.088.002.136-.018.155-.108.02-.1-.059-.095-.111-.12-.147-.07-.168-.159-.07-.283a.956.956 0 0 1 .137-.137c.272-.25.546-.498.82-.75.247-.231.502-.45.736-.697.306-.32.383-.696.211-1.114ZM103.233 68.085c-.038.248-.199.373-.429.434-.236.059-.479.053-.751.053a8.942 8.942 0 0 1-1.688-.198 1.768 1.768 0 0 1-.389-.132.502.502 0 0 1-.303-.481c0-.226.113-.4.326-.493.123-.057.255-.093.395-.1a9.103 9.103 0 0 1 2.18.201c.134.028.262.078.379.15.213.13.32.313.28.566Zm-.508-1.72c-.759-.518-1.579-.564-2.398-.127-1.125.604-1.276 2.282-.224 3.076.415.315.877.463 1.475.463.105.01.289-.005.467-.058.734-.203 1.263-.634 1.425-1.411.173-.803-.069-1.48-.745-1.943ZM57.916 28.76c-.027.234-.153.401-.39.467a.525.525 0 0 1-.58-.187.933.933 0 0 1-.179-.31 8.304 8.304 0 0 1-.437-2.289.945.945 0 0 1 .084-.422.525.525 0 0 1 .908-.105c.102.126.159.278.213.43.193.545.377 1.524.383 2.1 0 .106.013.21-.002.315Zm.605-2.683c-.459-.55-1.061-.767-1.772-.633-.73.14-1.218.579-1.44 1.28-.232.764-.09 1.485.404 2.114.358.46.845.708 1.441.706.858-.009 1.521-.472 1.785-1.29.25-.792.11-1.535-.419-2.177ZM101.453 75.395c-.065.004-.128 0-.19 0a7.735 7.735 0 0 1-2.34-.647 1.107 1.107 0 0 1-.26-.167.534.534 0 0 1 .167-.904.88.88 0 0 1 .456-.048c.751.102 1.475.31 2.169.609a.945.945 0 0 1 .305.19c.176.157.264.343.193.58-.073.238-.232.36-.5.387Zm.345-2.091c-.462-.495-1.048-.694-1.705-.723a1.75 1.75 0 0 0-.435.046c-1.424.303-1.935 2.012-1.063 3.008.6.684 1.36.938 2.239.747 1.437-.31 1.916-2.053.964-3.078ZM28.483 77.118c-.299.081-.602.17-.922.153-.233-.013-.385-.135-.442-.343-.058-.2-.002-.368.189-.502.271-.192.583-.3.912-.418.115.337.228.66.339.987.027.07-.01.107-.076.123Zm2.278-1.407c-.257-.706-.807-1.027-1.493-1.186-.086.204-.086.204.088.288.13.065.255.136.37.226.372.298.523.906.088 1.342-.216.21-.469.369-.737.497-.194.093-.198.09-.268-.11-.18-.532-.36-1.065-.543-1.6-.03-.077-.032-.175-.122-.236-.28.111-.554.251-.792.444a1.358 1.358 0 0 0-.325.358c-.625.99.04 2.325 1.272 2.459.711.076 1.356-.148 1.925-.57.57-.43.784-1.242.537-1.912ZM100.507 50.466c-.223.167-.485.272-.742.391-.071.03-.121.019-.15-.06-.112-.285-.227-.567-.335-.849-.026-.063-.023-.11.048-.135.288-.096.579-.19.849-.202.284-.005.452.102.525.312.077.211.019.386-.195.543Zm-1.24-1.75c-.57.018-1.081.234-1.546.554-.36.25-.586.591-.678 1.022a1.76 1.76 0 0 0 1.534 2.121c.117.013.188-.067.148-.17-.017-.055-.065-.063-.109-.08-.148-.065-.295-.128-.424-.227-.44-.328-.517-.882-.172-1.294.245-.295.567-.493.93-.655.267.665.528 1.322.796 1.998.278-.128.517-.262.73-.432.268-.212.444-.482.531-.816.251-.967-.518-2.062-1.74-2.02ZM35.845 37.691c-.088-.172-.094-.336.023-.5.149-.197.35-.26.578-.151.284.136.514.352.747.56.058.053.035.093-.007.141-.234.246-.464.491-.71.746-.252-.258-.478-.498-.63-.796Zm3.245.303c-.013-.055-.038-.106-.115-.09-.071.015-.128.035-.124.121.004.047 0 .096.004.144.01.148-.012.29-.046.431-.106.462-.543.772-.987.688-.422-.082-.766-.313-1.098-.596.502-.532.991-1.046 1.485-1.567-.257-.215-.496-.389-.77-.514a1.529 1.529 0 0 0-1.677.302 1.708 1.708 0 0 0-.3 2.068c.295.537.728.943 1.283 1.206.912.43 2.05-.08 2.34-1.045.116-.383.086-.766.005-1.148ZM77.983 28.832c-.019.055-.046.081-.105.058-.303-.113-.604-.225-.904-.34-.056-.019-.07-.06-.046-.113.13-.296.254-.595.475-.833.168-.182.385-.207.592-.083.145.084.216.217.216.41-.025.307-.126.603-.228.901Zm.023-1.608c-.745-.276-1.557-.02-2.03.644-.292.408-.443.868-.522 1.36-.138.844.456 1.627 1.12 1.852.668.224 1.25.043 1.794-.354.044-.034.098-.067.046-.136-.042-.057-.076-.124-.172-.078-.132.059-.263.126-.401.165-.544.156-1.053-.127-1.162-.642-.081-.406-.006-.797.12-1.188.2.033.364.117.537.18.448.161.89.33 1.333.495.15.056.153.05.199-.102.052-.185.081-.372.11-.567a1.522 1.522 0 0 0-.972-1.63ZM49.014 46.991c.028.048-.014.117.055.146-.007.035-.023.062-.054.063-.044.01-.044-.028-.04-.058.006-.05-.002-.105.04-.15ZM78.087 45.059c.05-.013.038-.065.057-.101.012.028.033.053.035.077.007.028-.002.078-.014.08-.042.016-.07-.017-.078-.056ZM50.228 41.43c-.005.033.023.003-.006.02-.007.004-.011-.009.006-.014v-.005ZM53.52 96.911a3.177 3.177 0 0 0 1.19-.276c.214-.096.262-.274.193-.494-.058-.178-.202-.278-.311-.412-.163-.199-.354-.285-.605-.249-.071.011-.148.007-.211.033-.115.047-.147.178-.086.352.04.128.084.269.092.39.009.156-.228.144-.305.265-.006.01-.028.015-.042.024-.092.074-.149.212-.105.293.052.102.147.08.19.074ZM85.83 93.734a.83.83 0 0 0-.364-.514c-.134-.085-.261-.05-.393-.072-.201-.04-.417-.043-.615.006-.475.115-.952.231-1.388.462-.06.02-.087.008-.06-.06.138-.21.339-.36.546-.483.303-.18.602-.365.922-.512a.528.528 0 0 0 .243-.219c.172-.28.199-.588.16-.898-.02-.145-.2-.297-.323-.283-.117.012-.276.018-.34.093-.101.117-.252.218-.273.38-.03.219-.14.388-.247.566-.069.113-.146.185-.29.176a.858.858 0 0 1 .035-.332 2.93 2.93 0 0 0 .109-.469c.035-.278-.14-.444-.415-.407-.083.01-.175.021-.261.034-.262.04-.358.127-.393.39-.034.206-.042.415-.285.508-.031.01-.04.067-.065.096-.027.032-.056.062-.1.03-.092-.068-.226-.059-.301-.143-.07-.078-.145-.061-.222-.044-.188.04-.297.17-.375.337-.125.267-.113.548-.081.828.015.143.077.28.211.356.13.07.274.106.412.135.18.037.33-.087.325-.255-.011-.259.056-.504.144-.744.033-.085.08-.192.165-.168.103.022.067.138.048.226-.052.23.002.32.224.375.15.04.178.058.132.213-.046.16-.034.297.073.431-.192.123-.354.26-.563.34-.2.074-.38.205-.548.34-.127.102-.148.296-.03.34.196.074.392.18.618.07.146-.07.27-.168.395-.261a5.61 5.61 0 0 1 1.005-.589c.205-.087.424-.14.64-.19.09-.02.196-.009.282.047.05.033.086.08.042.141-.222.294-.452.58-.883.555-.255-.016-.492.075-.709.197-.203.115-.397.227-.63.272-.167.033-.238.158-.198.322.05.238.184.338.43.318.061-.008.126-.03.189-.042.121-.017.23.037.245.132.025.106-.065.138-.13.172-.1.054-.213.083-.303.146-.176.118-.268.223-.061.412.03.027.06.052.088.083.163.17.15.266-.071.353-.335.13-.674.244-1.01.356-.302.101-.626.14-.947.144-.069.003-.131.016-.16.082-.032.076-.007.146.047.2.082.075.15.164.227.247.23.25.48.317.757.204a10.31 10.31 0 0 1 1.278-.445c.103-.028.155-.005.176.088.08.302.04.587-.134.849-.025.031-.059.058-.1.058-.176 0-.352.044-.523 0-.17-.042-.34-.03-.503-.02-.077.004-.173-.01-.186.106-.012.1.023.176.126.208.265.085.468.27.677.445.122.1.262.15.39.23.065.036.13.021.186-.011.087-.055.197-.104.247-.185.182-.295.418-.563.496-.906.073-.313.225-.596.299-.908.029-.135.144-.176.295-.185.29-.013.585.05.874-.081.14-.067.266-.155.27-.301.006-.182-.017-.383-.23-.471-.176-.074-.34-.163-.53-.215a.587.587 0 0 0-.35-.02c-.124.037-.256.013-.384.052-.056.015-.117 0-.15-.051-.07-.088-.021-.203-.07-.3-.029-.07.038-.098.074-.142.127-.16.267-.31.416-.456.147-.144.278-.301.161-.54-.048-.092.021-.207.149-.232.25-.05.47-.18.718-.247a.933.933 0 0 0 .485-.294c.106-.132.211-.287.163-.456ZM47.238 96.802c-.125-.052-.26-.084-.397-.027-.228.092-.477.086-.72.131-.182.032-.278-.112-.209-.288.07-.171.149-.337.22-.507a.37.37 0 0 1 .236-.216c.063-.015.121-.042.18-.07.38-.16.464-.324.358-.732-.005-.031-.005-.065-.015-.094-.019-.04-.03-.07-.023-.113.025-.148-.073-.255-.14-.37-.052-.082-.14-.097-.239-.048-.1.052-.177.127-.274.188-.09.063-.171.02-.159-.084.027-.175.005-.356.07-.52.07-.183.093-.369.11-.561.007-.1.002-.208-.06-.294-.122-.156-.203-.338-.308-.506-.086-.135-.184-.248-.356-.286-.234-.057-.447.015-.625.14-.099.073-.195.157-.306.222-.081.048-.125.115-.102.22.02.092.075.125.167.14.146.021.27.093.387.184.182.14.184.157.088.372-.094.203-.182.41-.274.617-.023.057-.033.095.004.155.09.147.161.305.205.473.04.15.082.29-.075.41a.33.33 0 0 0-.115.146c-.092.284-.32.408-.565.515-.199.086-.272.036-.26-.176.013-.19.06-.384.036-.57-.019-.206.13-.38.06-.582.1-.277.101-.578.222-.852.034-.081.055-.165.084-.25.007-.03.032-.062.013-.092-.115-.177-.19-.394-.435-.44-.032-.007-.063-.004-.09-.027-.132-.134-.312-.098-.467-.128a.225.225 0 0 0-.24.132c-.086.183-.216.328-.34.479a.653.653 0 0 0-.079.121c-.041.076-.035.141.059.165.109.024.182.093.205.183.04.153.123.293.121.455 0 .074-.002.146-.017.216-.01.066-.046.123-.115.14-.28.06-.556.136-.836.174-.23.033-.335.117-.29.334.028.13.066.259.105.386.105.313.227.315.484.28.194-.029.385-.07.57-.105.127.251-.001.475-.033.698-.025.178-.041.383-.2.502-.256.187-.486.412-.78.547-.28.13-.53.299-.465.679.014.089.044.15.1.224.105.14.268.187.391.295.147.131.21.123.318-.034.021-.032.023-.084.053-.106.337-.281.583-.646.9-.946.09-.085.192-.192.33-.172.188.026.272-.07.368-.203.17-.237.347-.473.594-.64.172-.112.186-.114.255.083.084.236.161.471.237.709.08.243.333.403.59.395.182-.007.36-.038.608-.055-.142.164-.248.295-.364.41-.2.206-.416.4-.617.606-.05.052-.12.117-.08.208.05.112.16.087.25.082.04-.002.07-.037.108-.05.35-.132.632-.398.98-.528.267-.098.456-.302.67-.46.133-.1.242-.25.21-.472-.029-.207-.087-.412-.1-.624-.004-.092-.09-.153-.176-.188ZM52.255 99.39c-.13.076-.247.17-.404.195-.26.042-.278.035-.272-.245.004-.222.046-.266.249-.228.14.025.276.074.41.126.094.04.102.101.017.151Zm-.948 2.075c-.092.006-.188.013-.299-.017.002-.152.134-.221.19-.329.007-.011.028-.024.04-.021.142.017.111.156.157.238.04.077-.015.123-.088.129Zm-.901-.551c-.078-.008-.111-.059-.117-.125-.007-.07.056-.118.148-.117.067-.001.121.029.127.107.007.076-.075.144-.158.135Zm4.583-2.99c-.188-.036-.345-.136-.5-.22-.188-.104-.38-.216-.575-.282-.308-.109-.603-.245-.91-.357-.414-.15-.84-.26-1.262-.388a5.038 5.038 0 0 1-.715-.264 9.932 9.932 0 0 0-.544-.235c-.15-.066-.19-.038-.303.092-.101.114-.101.254-.111.385-.034.403.175.694.544.747.443.073.89.095 1.34.157.254.038.48.155.737.162 0 .019-.006.038-.006.058-.134.036-.268.092-.4.098-.243.017-.468.089-.711.1a.775.775 0 0 0-.414.165c-.293.217-.528.494-.624.863-.054.214-.006.318.15.469.114.115.233.066.352.062.023.158.025.291-.088.398-.037.039-.043.082-.05.13-.008.106-.069.151-.173.161-.17.012-.343.027-.509.057-.121.021-.213 0-.268-.102-.104-.197-.313-.256-.477-.382-.027-.023-.073-.023-.11-.037-.18-.074-.624.16-.712.352-.067.135-.077.306.002.403.113.149.22.316.4.401.178.088.34.118.513-.018.085-.065.188-.132.324-.087-.05.145-.017.294-.004.442.029.416.3.586.68.424.033-.016.06-.018.085-.004.243.151.549.178.743.429.058.078.1.16.159.237.15.199.341.197.487 0 .153-.206.28-.421.258-.687-.02-.213.006-.445-.212-.602-.15-.104-.265-.249-.4-.379-.029-.022-.045-.05-.03-.079.054-.094.068-.226.19-.26.24-.071.492-.135.73-.081.238.047.404-.031.577-.154.13-.095.212-.241.318-.352.113-.12.187-.262.184-.4a.64.64 0 0 0-.16-.404c-.237-.248-.492-.48-.867-.504-.056-.002-.107-.016-.113-.097a.959.959 0 0 1 .358-.02c.52.052.996.251 1.477.438.113.045.236.106.33.183.16.132.346.168.54.18.038.002.088-.006.113-.029.163-.167.272-.362.245-.605-.031-.298-.224-.496-.588-.564ZM79.652 99.63c-.044-.014-.094-.033-.14-.022-.284.058-.573.041-.862.048-.335.006-.671.04-1.004-.044a9.678 9.678 0 0 1-.912-.282c-.452-.16-.864-.41-1.32-.564-.253-.087-.272-.338-.072-.523a3.27 3.27 0 0 1 .51-.396c.19-.117.33-.277.373-.503.057-.277-.064-.477-.284-.644a.43.43 0 0 0-.383-.089.72.72 0 0 0-.337.164c-.144.127-.293.244-.458.383-.11-.308-.199-.597-.226-.9-.025-.236-.128-.405-.33-.488-.21-.089-.44-.137-.665-.188-.155-.029-.314.078-.39.22-.058.107-.069.227-.115.338-.05.133-.008.248.076.357.091.116.196.094.305.052.08-.029.123-.006.16.057.03.054.066.108.089.17.06.177.123.357.211.527.161.325.233.648.004.988-.104.147-.152.338-.295.458-.132.109-.23.244-.34.367-.113.132-.258.213-.404.296-.05.026-.107.043-.151.075-.12.088-.109.226.002.324.239.205.53.126.795.162.123-.106.29-.131.427-.22.178-.118.318-.281.47-.418.07.035.072.087.089.134.01.044.029.09.033.139.075.587 0 1.163-.13 1.734-.086.372-.134.753-.245 1.123-.054.184-.175.339-.202.534-.009.063-.08.134.01.198.084.053.148 0 .218-.04a.269.269 0 0 0 .085-.081c.21-.291.496-.512.755-.755a.743.743 0 0 0 .227-.393c.06-.243.006-.486.027-.727.031-.43.008-.865-.017-1.292-.004-.109.056-.177.138-.141.128.055.266.058.393.089.377.09.737.224 1.076.404.33.178.677.324.956.585.1.095.22.124.353.071.09-.034.18-.066.264-.115.364-.22.68-.503 1.035-.734.093-.065.201-.128.262-.235.06-.096.042-.165-.06-.202ZM63.11 102.863c-.014-.278-.073-.547-.102-.818-.013-.132-.084-.162-.168-.185-.075-.026-.175.084-.184.18-.035.36-.037.726-.083 1.088a.98.98 0 0 1-.09.32c-.12.24-.34.357-.559.465a.33.33 0 0 1-.322-.031.574.574 0 0 0-.165-.08c-.17-.049-.228-.205-.333-.311-.075-.079.032-.127.021-.195a.246.246 0 0 0-.013-.046c-.083-.206-.046-.416-.025-.63.023-.207.107-.41.105-.604 0-.241.12-.402.245-.533.205-.217.445-.407.753-.482.146-.034.266-.184.226-.295-.053-.153-.063-.312-.105-.469-.052-.225-.307-.296-.481-.136a.531.531 0 0 0-.121.179c-.03.07-.088.098-.136.131-.063.04-.115.027-.136-.065-.032-.145-.027-.291.056-.412.161-.237.092-.46-.044-.67-.052-.08-.159-.158-.28-.146-.182.024-.412.267-.408.45.002.373-.065.736-.188 1.084-.065.175-.057.376-.197.533a1.01 1.01 0 0 1-.301.255c-.234.119-.414.319-.611.493-.1.087-.11.243-.059.325.16.242.35.286.599.138.025-.017.056-.027.083-.046.053-.025.046-.138.136-.092.09.042.002.115.021.172v.06c-.044.425-.11.881-.063 1.346.036.299.26.623.547.712.349.108.704.181 1.07.191.291.01.576-.008.835-.161.034-.02.078-.017.113-.032.25-.116.51-.236.513-.561.006-.138.01-.281-.023-.423-.054-.23-.117-.463-.126-.699ZM69.933 102.09c-.3-.146-.593-.21-.913-.102-.03.009-.06.019-.094.02-.094.004-.14-.055-.094-.139.103-.175.178-.374.327-.522.102-.098.154-.221.217-.337.098-.187.002-.358-.109-.471a2.05 2.05 0 0 0-.548-.424.509.509 0 0 0-.368-.047c-.23.059-.45.138-.655.261a1.09 1.09 0 0 1-.35.143c-.173.027-.338.085-.512.106-.067.009-.148.03-.146.094.004.092-.02.19.033.279.084.136.165.273.25.408.104.161.248.203.434.166.245-.047.469-.154.697-.246.12-.044.14.007.176.086.027.063.006.13-.017.184a1.439 1.439 0 0 0-.088.322.75.75 0 0 1-.322.519c-.45.321-.96.414-1.485.487-.017.004-.03.007-.046.007-.34-.003-.417.097-.28.398.156.357.384.562.82.502.188-.025.349-.105.51-.196.487-.279.983-.524 1.556-.604.329-.041.653-.052.958.063.168.063.295.017.433-.05.042-.021.078-.054.082-.109.008-.187.038-.372-.113-.538a1.089 1.089 0 0 0-.353-.26Z" fill="#263E6A"/><path fill-rule="evenodd" clip-rule="evenodd" d="M80.811 96.507c.084-.117.161-.232.201-.377.048-.215.13-.419.193-.63.092-.313.205-.626.236-.95.023-.232.008-.239-.207-.267-.203-.023-.381.036-.565.097a.49.49 0 0 0-.351.41.95.95 0 0 1-.12.31c-.125.204-.245.407-.282.652a.786.786 0 0 0 .602.861c.118.025.224-.005.293-.106ZM58.558 101.604c-.004.006-.008.016-.014.02-.046.016-.096.093-.138.033-.034-.054.041-.087.088-.119.035-.065.092-.167.159-.106.062.063-.032.13-.095.172Zm1.39-2.204c-.243-.139-.503-.184-.762-.094-.218.074-.433.168-.492.434-.002.014-.019.027-.029.04-.117.112-.163.271-.23.416a1.09 1.09 0 0 1-.211.338c-.122.126-.23.268-.28.44-.061.209-.177.391-.302.562-.033.044-.077.08-.086.139-.029.248-.132.466-.286.66-.107.131-.149.296-.18.453-.013.056.002.118.07.141.064.018.097-.003.137-.06.184-.23.366-.46.565-.674.081-.087.13-.233.313-.243-.1.151-.043.296-.035.443.01.228.008.462-.017.689-.023.177.036.351.002.523-.054.25-.098.497-.123.756-.034.386.245.672.575.571a1.87 1.87 0 0 0 .429-.211c.11-.076.174-.233.136-.308-.071-.159-.02-.29-.02-.435-.007-.301.087-.573.196-.847.025-.063.109-.132.058-.195-.081-.101-.004-.142.044-.199a.492.492 0 0 0 .09-.169c.028-.086-.052-.157-.138-.132a.312.312 0 0 0-.155.111.58.58 0 0 1-.207.18c-.123-.203.065-.408-.01-.609.106-.1-.036-.212.012-.316.044-.09.067-.174-.006-.266a.161.161 0 0 1 .01-.207c.11-.117.155-.269.264-.393.157-.188.32-.364.506-.518.201-.168.266-.396.348-.618.044-.135-.055-.328-.186-.402ZM64.077 83.267c.295.05.567.04.835.09.28.054.552.123.799.256.71.382.785 1.235.15 1.736-.267.213-.58.34-.918.4-.393.068-.784.087-1.173-.019a.768.768 0 0 1-.323-.16c-.18-.165-.148-.408.074-.514a.584.584 0 0 1 .401-.03c.19.05.364.136.534.227.155.085.314.157.49.198a.71.71 0 0 0 .468-.058c.366-.17.433-.575.14-.852a1.42 1.42 0 0 0-.54-.31 3.49 3.49 0 0 0-.99-.19c-.152-.01-.303-.019-.438-.03-.053-.054-.021-.091-.011-.125.186-.514.377-1.029.563-1.543.031-.086.054-.158.173-.158.63.002 1.258.002 1.89.002.05 0 .106.005.188.01-.057.22-.16.409-.245.604-.04.086-.121.06-.19.06-.477.002-.952.002-1.425.002-.324 0-.324 0-.427.316-.008.02-.012.044-.025.088ZM58.263 83.725c0 .435 0 .87.004 1.303 0 .082 0 .163.01.242.038.222.101.287.325.325.109.02.222.028.337.04.033.002.06.016.06.054 0 .039-.02.065-.052.07-.048.009-.098.006-.146.006-.716 0-1.435.003-2.149-.004-.075 0-.215.056-.209-.078.004-.098.132-.049.203-.054.51-.047.598-.137.598-.64v-1.931c-.008-.31-.102-.392-.404-.335-.108.021-.22.05-.326.077-.042.013-.081.029-.096-.033-.006-.046.019-.073.06-.089.034-.01.06-.022.093-.035.487-.16.975-.323 1.464-.483l.092-.027c.088-.032.14-.006.136.094-.002.107 0 .21 0 .318v1.18ZM68.692 85.614c-.262.091-.577.02-.732-.172-.28-.326-.203-.991.134-1.25.05-.04.092-.023.136 0 .182.096.372.188.533.322.18.144.287.324.282.577 0 .263-.114.44-.353.523Zm-.74-3.037c.066-.182.22-.264.41-.293.45-.061.723.178.721.645a.73.73 0 0 1-.064.305c-.124.273-.212.305-.476.168a1.573 1.573 0 0 1-.48-.359c-.112-.136-.18-.289-.112-.466Zm1.638 1.412c-.176-.126-.362-.239-.542-.358.056-.08.144-.073.213-.1.153-.058.301-.12.427-.224.286-.239.299-.58.033-.837a1.006 1.006 0 0 0-.481-.266 2.655 2.655 0 0 0-1.452.034c-.21.065-.397.169-.554.328a.683.683 0 0 0-.059.922c.09.118.2.211.323.291.131.084.27.168.44.272-.231.073-.426.128-.595.233-.216.138-.362.317-.383.582-.027.325.12.56.395.714.45.246.93.294 1.43.227.298-.04.578-.127.828-.305a.87.87 0 0 0 .384-.854.913.913 0 0 0-.407-.66ZM61.709 84.003c-.021.093-.069.132-.155.157-.284.08-.54-.027-.65-.305a2.127 2.127 0 0 1-.088-1.23c.052-.24.188-.344.4-.35.202-.005.347.1.426.32.094.268.098.55.096.892-.004.133.007.326-.03.516Zm1.105-.605c-.055-.466-.291-.809-.687-1.05a1.615 1.615 0 0 0-.807-.221c-.44-.021-.841.093-1.19.372-.524.408-.612 1.494.3 1.828.294.11.599.124.904.073.078-.014.155-.044.26-.018a1.703 1.703 0 0 1-.676.908c-.253.178-.542.28-.839.347-.081.017-.161.03-.238.05-.044.013-.059.05-.05.097.008.042.041.043.075.042.142-.015.288-.026.431-.044.707-.105 1.358-.344 1.908-.813.479-.413.68-.94.609-1.571ZM54.42 59.942c-.085.01-.173 0-.263 0-.082 0-.155.007-.24 0-.055-.002-.116-.013-.122-.086-.004-.064.02-.114.077-.14a.298.298 0 0 1 .113-.036c.143-.003.291-.004.434 0 .077.004.15.037.146.125 0 .087-.065.132-.145.137Zm-.01.684a7.852 7.852 0 0 1-.525 0c-.094-.003-.113-.076-.113-.154 0-.074.056-.09.113-.092.088-.004.176-.002.266-.002.085 0 .173-.003.261 0 .07.004.127.033.134.112.004.091-.057.133-.136.136Zm1.297-.93c.236-.034.477-.03.718-.002.065.011.125.045.133.12.009.066-.037.106-.081.139-.105.07-.211.139-.33.214.058.115.152.125.23.165.056.031.114.059.154.11.065.09.034.18-.08.186-.23.007-.462 0-.696-.003-.052-.002-.117-.023-.136-.08-.02-.07.05-.096.09-.125.073-.05.153-.09.224-.139.126-.087.126-.114 0-.21-.09-.064-.19-.121-.274-.193-.096-.08-.073-.166.048-.182Zm-2.912-.846c.464-.002.93-.007 1.402-.01h.213c.071.003.144.015.146.095.004.096-.075.108-.152.114-.136.006-.274.003-.408.011-.329.017-.661.006-.984.099-.225.062-.255.114-.2.326.083.341.096.682.052 1.032-.034.271-.05.545-.069.817-.01.184.052.27.23.305.128.025.257.02.387.005.224-.024.322-.107.379-.333.017-.075.046-.11.125-.106.122.002.24 0 .362 0 .239.002.239.002.322.236.032.088.055.188.166.217.203.047.403.065.596-.006.146-.054.27-.153.284-.326.009-.096.05-.121.136-.121.22.002.435 0 .655 0 .059 0 .103.018.136.076.178.297.467.278.747.246.176-.022.255-.145.255-.327-.002-.102-.017-.207-.017-.314-.006-.504-.136-1.006.013-1.51.033-.1-.019-.17-.123-.198a2.383 2.383 0 0 0-.52-.093 16.194 16.194 0 0 0-1.085-.036c-.08 0-.184.006-.188-.102-.007-.117.1-.097.178-.107.04-.004.08-.002.119-.002h.868v.009h.726c.105 0 .211.008.314 0 .22-.017.343-.153.347-.359.006-.19-.09-.288-.314-.318a2.38 2.38 0 0 0-.366-.02c-.18.002-.303-.04-.34-.247-.039-.178-.166-.29-.359-.307-.24-.023-.391.056-.458.29-.058.194-.18.27-.368.268-.05-.002-.098.009-.146.008-.166-.01-.22-.047-.23-.217-.013-.226-.164-.333-.34-.393a.634.634 0 0 0-.58.081c-.104.07-.175.149-.137.3.031.135-.017.188-.16.215-.076.014-.158.014-.24.014h-1.257c-.063 0-.127-.003-.19.005-.228.037-.362.226-.316.433.035.163.165.253.389.25ZM53.797 69.256c.289-.045.542-.02.797-.012-.163.372-.475.385-.797.012Zm1.807.344c.174-.133.348-.261.52-.391.091-.069.175-.142.242-.238.127-.183.081-.339-.123-.423-.053-.021-.107-.029-.166-.038-.247-.038-.496-.038-.747-.038-1.03.002-2.06.002-3.092 0-.152 0-.303.012-.441.099-.234.153-.228.42.017.565a.643.643 0 0 0 .347.077c.224.002.45 0 .674.002.08 0 .163-.017.25.058-.075.115-.236.174-.188.33.042.127-.025.155-.125.162-.07.007-.145.009-.218.009h-2.03c-.102 0-.208-.002-.306.044-.162.07-.24.183-.24.353.005.172.078.274.25.343.104.043.21.034.312.034.964.003 1.935 0 2.9.003.102 0 .21-.006.311.017.107.023.174.084.196.187.015.07.038.142.046.213.02.226-.102.372-.324.399a1.21 1.21 0 0 1-.477-.062c-.353-.103-.443-.046-.506.314-.006.05-.013.096-.013.146.007.23.072.31.287.388.13.047.272.053.404.064.418.038.822-.02 1.205-.19.45-.201.62-.535.53-1.016-.011-.039-.02-.08-.03-.12-.042-.27-.036-.28.224-.394a4.11 4.11 0 0 0 .575-.305c.086-.06.086-.106-.006-.16-.072-.047-.157-.08-.235-.125-.194-.11-.198-.175-.023-.307Z" fill="#263E6A"/><path fill-rule="evenodd" clip-rule="evenodd" d="M58.167 61.89a.696.696 0 0 0-.35-.085c-.169.004-.338.002-.506 0-.165-.001-.343.042-.441-.155-.008-.019-.036-.03-.06-.039-.233-.095-.471-.093-.714-.043-.059.013-.123.047-.146.114-.047.127-.145.127-.256.125-.52-.002-1.046-.002-1.569-.002-.523 0-1.048.004-1.57 0a.803.803 0 0 0-.438.104c-.153.091-.197.235-.123.394a.37.37 0 0 0 .246.211c.12.036.241.038.36.038.973-.002 1.948-.002 2.923 0 .065 0 .13-.003.192.002.142.014.199.073.214.213.004.063-.003.128-.007.192-.037.404-.087.438-.48.333-.074-.02-.143-.044-.206.009a.537.537 0 0 0-.211.512c.025.186.163.27.333.305.368.079.734.066 1.096-.033a.556.556 0 0 0 .39-.362c.072-.182.127-.364.11-.562-.01-.13-.009-.258-.009-.388 0-.176.028-.21.207-.216.212-.01.417-.007.63-.005.103.002.21-.007.31-.034.15-.037.228-.14.253-.289.02-.137-.046-.264-.178-.338ZM52.362 67.634c.046.075.1.095.146.122.333.189.699.241 1.07.272 1.016.089 2.037.143 3.06.124a.682.682 0 0 1 .167.013c.165.031.207.08.218.238.004.048 0 .097.002.147.004.297.123.424.418.444.08.006.161.006.239-.003.345-.046.474-.228.408-.565-.042-.216-.053-.427.023-.642.077-.215.056-.256-.166-.29a7.498 7.498 0 0 0-1.104-.102c-.107 0-.258.053-.306-.066-.04-.094.082-.178.149-.255.23-.273.406-.58.588-.882.155-.267.07-.461-.224-.563-.015-.007-.031-.01-.046-.012-.504-.158-.728-.069-.956.401-.109.23-.239.435-.4.627-.05.054-.096.11-.136.173-.087.15-.08.23.027.374.036.047.118.072.086.157-.075.029-.159.029-.236.029-.377.011-.758.017-1.132.034-.466.021-.937.03-1.397.091-.166.025-.335.037-.498.134ZM50.412 59.897c.26-.048.389.075.456.307.017.062.05.12.075.178.055.123.103.253.174.37.088.16.21.166.318.021a.914.914 0 0 0 .109-.189c.065-.147.13-.295.18-.447.052-.17.14-.26.328-.24a.5.5 0 0 0 .339-.1.387.387 0 0 0 .178-.373c-.02-.153-.124-.237-.255-.293-.099-.042-.206-.035-.308-.04-.15-.008-.186-.047-.19-.192-.01-.167-.002-.338-.002-.506v-.387c-.002-.38-.151-.523-.532-.517-.056.002-.113.004-.165.015-.289.052-.4.184-.402.477v.822c0 .282 0 .286-.272.288a.875.875 0 0 0-.307.054c-.19.074-.27.211-.251.417.019.18.108.27.313.312.07.016.145.033.214.023ZM50.964 64.034c.143.038.287.034.431.031.258-.01.379-.128.39-.389.01-.168.004-.34.004-.507-.015-.419-.032-.835-.11-1.25-.047-.258-.127-.517-.284-.733-.09-.126-.157-.122-.232.009-.102.175-.155.372-.205.565-.155.572-.171 1.16-.243 1.741-.008.079-.002.16.005.243.012.15.09.245.244.29ZM50.228 68.665c.006.192.083.272.276.29.104.013.21.013.312 0 .372-.036.472-.146.479-.514v-.023c-.015-.24.096-.4.313-.491.072-.03.147-.064.218-.097.046-.021.09-.038.13-.063.119-.083.115-.148-.013-.203a.954.954 0 0 0-.182-.06 3.19 3.19 0 0 0-.763-.095c-.226 0-.452.01-.67.078-.188.055-.217.115-.148.299.077.2.109.402.065.615a1.092 1.092 0 0 0-.017.264Z" fill="#263E6A"/><path fill-rule="evenodd" clip-rule="evenodd" d="M53.255 66.015c.163.267.316.54.441.826.095.215.25.305.459.278a.744.744 0 0 0 .493-.144c.109-.078.184-.19.136-.328-.113-.363-.257-.713-.514-.999a.722.722 0 0 0-.84-.167c-.223.103-.303.322-.175.534ZM52.033 65.888c-.215-.219-.462-.239-.732-.142-.312.104-.401.367-.194.622.196.244.41.472.614.71.114.135.264.183.44.18.228.026.358-.125.475-.3.105-.16.019-.295-.06-.425-.15-.24-.344-.441-.543-.645ZM58.062 69.817a.798.798 0 0 0-.445-.073 4.448 4.448 0 0 0-.64.115c-.247.063-.505.103-.741.234.019.08.063.105.109.128.27.136.554.252.853.318.279.06.561.052.833-.038.157-.05.268-.15.272-.328.008-.173-.092-.289-.24-.356ZM54.096 63.77c.268.045.577-.177.584-.436-.007-.017-.009-.06-.026-.095-.144-.305-.37-.525-.7-.612a.555.555 0 0 0-.375.042c-.194.087-.261.27-.157.456.105.19.235.362.4.508a.525.525 0 0 0 .274.136ZM74.351 68.062c.046-.088.128-.09.207-.085.155.008.201.072.199.294.002.088 0 .196-.15.224-.093.019-.178.036-.252-.037-.052-.06-.052-.302-.004-.396Zm-1.184.455c-.192-.006-.245-.06-.239-.246.011-.229.082-.299.312-.295.18.001.212.04.207.264-.004.236-.05.28-.28.277Zm2.695-.537c.196 0 .28.08.28.277 0 .192-.075.274-.253.274-.184 0-.237-.062-.237-.277 0-.223.038-.272.21-.274Zm.464 1.201c.22 0 .437-.01.649-.077.184-.06.196-.094.142-.28a2.32 2.32 0 0 1-.019-1.073c.056-.298.054-.323-.243-.383-.04-.007-.08-.009-.119-.017-.37-.072-.736-.037-1.11-.046-.135 0-.273.005-.404-.037-.061-.02-.139-.03-.132-.116.01-.064.073-.078.132-.09.156-.034.315-.038.479-.038.46-.002.916.002 1.378-.006.186-.002.29-.087.32-.232.034-.174-.067-.377-.222-.44a.774.774 0 0 0-.284-.044c-.498-.001-1-.006-1.498-.008-.23-.001-.23-.001-.21-.225.02-.23-.08-.384-.305-.448a.962.962 0 0 0-.405-.034c-.302.042-.381.118-.41.431-.025.257-.036.268-.29.272-.479.005-.968.01-1.449.012a.827.827 0 0 0-.351.079c-.115.047-.172.133-.178.258-.017.228.096.362.337.377.209.014.416.004.63.008.265.002.532-.004.796.006.11.003.222.025.333.044.048.011.092.044.096.099 0 .057-.048.073-.094.09a.923.923 0 0 1-.308.042c-.278.002-.55 0-.822 0a2.473 2.473 0 0 0-.715.108c-.172.05-.201.103-.144.264.133.39.096.776-.013 1.163-.054.197-.038.241.163.286.212.049.431.055.65.055h1.762c.622 0 1.24.003 1.858 0ZM69.596 61.022a1.7 1.7 0 0 0 .24.012H71.746c.274.011.343.072.381.336.01.065.01.127.027.19.032.13.113.174.234.124a.926.926 0 0 0 .183-.117c.157-.116.31-.229.46-.356a.755.755 0 0 1 .535-.178c.563.004 1.128 0 1.69 0h1.693c.12 0 .243.002.352-.057.131-.069.253-.15.261-.319.002-.179-.107-.279-.247-.36-.123-.072-.263-.067-.4-.067h-3.309c-.109.003-.146-.047-.117-.151a.979.979 0 0 0 .046-.402c-.025-.192-.115-.308-.293-.34a1.517 1.517 0 0 0-.552-.007c-.13.021-.21.1-.26.225-.052.13-.056.266-.084.4-.045.275-.045.275-.32.275-.723.002-1.449 0-2.173.002-.088 0-.18-.002-.266.014-.205.035-.322.186-.318.392.007.21.124.35.327.384ZM69.612 59.25c-.008.09-.016.178-.018.267-.01.258.092.373.353.373.113.002.228-.01.337-.031.303-.073.422-.21.402-.48-.02-.246.023-.268.272-.29.037-.003.077-.003.117-.003.724-.038 1.45-.067 2.173-.105.379-.021.753-.057 1.132-.095a1.66 1.66 0 0 0 .534-.144c.035-.017.073-.037.081-.081.006-.059-.04-.085-.086-.104-.108-.047-.215-.102-.33-.139-.32-.105-.55-.294-.644-.629-.055-.21-.224-.28-.423-.294a.43.43 0 0 0-.448.264c-.04.08-.07.16-.106.243a.486.486 0 0 1-.431.303c-.07.004-.145.002-.218.002-.613.002-1.224.002-1.837.008a2.94 2.94 0 0 0-.74.093c-.193.054-.222.106-.165.292.048.182.05.366.045.55ZM75.606 71.008c-.161-.009-.27.08-.343.224-.065.125-.163.214-.32.221a5.41 5.41 0 0 1-.793 0c-.249-.024-.314-.098-.324-.355-.01-.137 0-.274-.009-.41-.006-.243-.18-.397-.466-.42-.27-.026-.531.129-.58.33v.026c0 .362-.014.725.011 1.085.023.318.165.435.49.493.357.063.721.036 1.035.044.41-.011.77-.009 1.13-.04.395-.037.604-.272.744-.6.057-.136.061-.29-.048-.414-.133-.16-.334-.176-.527-.184Z" fill="#263E6A"/><path fill-rule="evenodd" clip-rule="evenodd" d="M74.686 61.5c-.327-.18-.597-.21-.896.099-.048.055-.1.108-.14.165a6.603 6.603 0 0 1-1.303 1.386c-.073.063-.15.124-.197.211-.163.325-.19.588.295.644a4.575 4.575 0 0 0 .985-.056c.266-.04.51-.136.741-.34-.055-.031-.086-.055-.123-.072-.099-.05-.21-.086-.304-.148-.125-.083-.132-.168-.031-.282.025-.03.058-.057.088-.083.332-.248.596-.56.87-.867a.9.9 0 0 0 .15-.219c.076-.176.032-.344-.135-.438ZM71.696 68.127c.078-.124.103-.26.019-.387-.17-.269-.588-.33-.824-.12-.105.09-.197.19-.283.294-.2.244-.43.458-.675.657-.216.173-.446.311-.722.37-.19.038-.22.087-.218.28-.012.498.525.706.829.53.083-.05.171-.088.255-.138.096-.058.184-.034.268.026.042.032.077.08.115.122.19.215.274.204.372-.074.076-.21.145-.428.195-.646.048-.222.15-.4.328-.543.134-.104.255-.224.341-.37ZM75.317 63.18l-.09.03c-.202.08-.412.139-.6.255-.058.038-.15.07-.142.145.01.092.115.096.192.113.03.01.063.008.094.01.38.044.756.06 1.134.01.19-.026.348.013.469.173.1.131.24.178.46.167 0 0 .055-.004.11-.013.388-.073.51-.373.284-.692a1.03 1.03 0 0 0-.088-.11c-.245-.26-.486-.52-.73-.775a1.498 1.498 0 0 0-.406-.303.63.63 0 0 0-.559-.017c-.31.134-.354.318-.134.58l.084.087c.192.205.186.232-.078.34ZM71.93 62.738c.122-.161.214-.342.254-.541.017-.1.084-.22-.017-.294-.1-.082-.192.02-.274.07-.167.101-.32.217-.477.33-.35.244-.7.483-1.084.67-.148.072-.295.119-.46.134-.36.03-.406.1-.335.457.005.032.02.06.025.09.034.187.16.272.331.305.063.013.128.011.192.015.224.009.43-.058.622-.167a3.953 3.953 0 0 0 1.224-1.069ZM70.826 65.832a1.194 1.194 0 0 0-.263.247c-.264.324-.59.568-.988.703-.055.02-.107.04-.157.063a.205.205 0 0 0-.115.198c.004.242.329.558.575.56.22.003.402-.103.572-.228.334-.254.65-.53.953-.817.057-.056.111-.118.155-.186.165-.257.052-.538-.245-.616a.601.601 0 0 0-.487.076ZM77.288 70.064c.195-.029.284-.104.303-.25a.36.36 0 0 0-.236-.402.846.846 0 0 0-.333-.06c-.83.013-1.66.022-2.483.137-.203.029-.42.019-.607.17.082.11.182.137.278.17.195.066.396.101.593.136.79.135 1.59.09 2.387.107.031.002.062 0 .098-.008ZM75.393 58.759c.155.056.316.11.477.17.311.12.38.221.382.553.005.298.107.404.4.434.055.004.113.004.17.008v-.006c.056 0 .113.002.17-.002.304-.026.403-.147.371-.457-.004-.033-.004-.065-.012-.096-.048-.231-.07-.454.042-.684.07-.155.016-.227-.161-.273-.639-.166-1.245-.077-1.837.184-.042.018-.094.037-.09.092.004.041.048.064.088.077ZM70.767 70.177c-.09-.15-.165-.146-.255.008-.088.149-.125.314-.165.48a13.32 13.32 0 0 0-.216 1.255c-.027.203.02.301.206.38.175.08.357.088.537.017a.42.42 0 0 0 .29-.397c-.037-.359-.066-.718-.13-1.078a1.804 1.804 0 0 0-.267-.665ZM76.937 70.51c-.12-.124-.264-.183-.469-.183-.031.007-.094.013-.155.03-.272.075-.379.348-.186.559.197.212.337.466.484.72.133.225.33.313.59.271.328-.052.47-.307.313-.598a3.837 3.837 0 0 0-.577-.8ZM73.338 69.484c-.374-.058-.748-.12-1.123-.143-.113 0-.226.003-.339 0a.527.527 0 0 0-.234.044.39.39 0 0 0-.243.38c.006.156.092.253.278.319a.788.788 0 0 0 .26.035 4.783 4.783 0 0 0 1.58-.292.793.793 0 0 0 .152-.07c.073-.045.08-.099 0-.148a.839.839 0 0 0-.33-.125ZM72.04 70.457c-.168-.01-.285.04-.358.174-.13.243-.25.487-.341.743-.078.22.006.368.22.46.259.107.52.036.713-.192.106-.13.167-.287.232-.444.243-.574-.073-.699-.467-.74ZM74.504 70.146c-.03.006-.095.008-.153.03-.27.103-.341.366-.117.54.092.07.163.172.25.258.174.18.478.201.68.055a.3.3 0 0 0 .118-.377c-.09-.222-.504-.503-.778-.506Z" fill="#263E6A"/></svg>