<?xml version="1.0" encoding="UTF-8"?>
<svg xmlns="http://www.w3.org/2000/svg" version="1.1" viewBox="0 0 128 44.9">
  <defs>
    <style>
      .cls-1 {
        fill: #263e6a;
        fill-rule: evenodd;
      }
    </style>
  </defs>
  <!-- Generator: Adobe Illustrator 28.7.1, SVG Export Plug-In . SVG Version: 1.2.0 Build 142)  -->
  <g>
    <g id="_图层_1" data-name="图层_1">
      <path class="cls-1" d="M36.1,31.4c-.3.5-.5.9-.6,1.5,0,.3-.1.6-.1,1,0,.1,0,.3,0,.4s0,0,0,0c0,0,0,0,0,0-.5-.3-1-.4-1.5-.5-.3,0-.7,0-1,0-.1,0-.3,0-.4,0-.3,0-.6.2-.8.3-.3.1-.5.3-.7.4-.2.2-.5.3-.8.5-.4.2-.9.4-1.4.5-.4,0-.7.1-1.1.2-.2,0-.3,0-.5,0-.2,0-.5,0-.7,0-.4,0-.7-.1-1.1-.2-.5-.2-1-.4-1.4-.7-.3-.2-.6-.4-.8-.6-.3-.2-.6-.3-.9-.4-.2,0-.3,0-.5,0-.3,0-.6,0-.8,0-.3,0-.7.1-1,.2-.3,0-.5.2-.7.3,0,0,0,0,0,0,0,0,0-.1,0-.2,0-.3,0-.6-.1-.9,0-.3-.1-.7-.2-1-.1-.3-.3-.7-.5-.9,0,0-.1-.2-.2-.2,0,0,0,0,0,0,.6-.3,1.2-.5,1.9-.6.4,0,.8-.1,1.1-.1.6,0,1.2.1,1.8.4.3.2.5.3.7.5.2.2.3.3.5.5.4.4.8.6,1.3.7.3,0,.7.1,1,.2.4,0,.7,0,1.1,0,.5,0,.9,0,1.4-.2.5-.1.9-.4,1.3-.8.2-.2.4-.4.7-.6.3-.3.7-.5,1.1-.6.2,0,.5-.1.8-.2.5,0,1,0,1.5,0,.7.1,1.4.3,2,.6,0,0,0,0,0,0,0,0-.2.2-.2.3h0ZM35.3,34.6c0,0,0,.1-.1.1-.1,0-.2,0-.3,0-.4,0-.7,0-1-.1-.3,0-.5-.2-.7-.4-.2-.1-.3-.3-.5-.4,0,0,0,0,0,0,0,0,.1,0,.2,0,.5,0,1,0,1.5.2.4.1.7.3,1.1.5,0,0,0,0,0,.1h0ZM21.5,34.2c-.2.2-.5.3-.8.4-.2,0-.4.1-.6.1,0,0-.2,0-.3,0-.2,0-.4,0-.6,0,0,0-.2,0-.2-.2,0,0,0,0,0-.1.5-.3,1.1-.5,1.7-.6.3,0,.7,0,1.1,0,0,0,0,0,0,0-.1.1-.3.2-.4.3ZM36.5,30.9h0c-.4-.2-.8-.3-1.2-.5-.6-.2-1.2-.3-1.8-.3h-.2s0,0-.1,0c-.2,0-.4,0-.5,0-.7,0-1.4.4-1.9.9-.3.2-.5.5-.7.7-.3.2-.6.4-.9.5-.7.2-1.4.3-2.1.3-.4,0-.8,0-1.2-.2-.4,0-.7-.2-1-.4-.3-.2-.5-.4-.7-.6-.2-.2-.5-.5-.8-.7-.4-.3-.9-.5-1.4-.6-.2,0-.4,0-.7,0,0,0-.1,0-.2,0,0,0,0,0-.1,0-.2,0-.4,0-.6,0-.6,0-1.2.2-1.7.4-.2,0-.4.2-.6.3,0,0-.1.1,0,.2.1.1.2.3.3.4,0,0,.1.2.2.3,0,0,0,0,0,0,0,0,0,0,0,0,0,0,0,0,0,0v.2c0,0,0,0,0,0,0,0,0,0,0,0,0,0,0,0,0,.1,0,0,0,.1.1.2,0,0,0,.1,0,.2,0,.2,0,.5.1.7,0,.2,0,.4,0,.7,0,0,0,0,0,.1,0,.2,0,.4.2.5,0,0,0,0,0,0,.1,0,.2,0,.4,0,.2,0,.4,0,.5,0,.3,0,.6-.1.9-.3.4-.2.7-.4,1-.7,0,0,0,0,.1,0,0,0,0,0,0,0,.4,0,.7.3,1,.5.2.1.4.3.7.4.5.4,1.1.6,1.7.8.4,0,.7.1,1.1.2.3,0,.6,0,.9,0,.3,0,.5,0,.8,0,.4,0,.8-.2,1.2-.3.4-.1.7-.3,1-.6.3-.2.5-.3.8-.5.3-.2.6-.3,1-.4,0,0,0,0,0,0,.2.2.4.3.6.5.3.2.5.3.8.4.2,0,.3,0,.5,0,.2,0,.4,0,.7,0,0,0,.2,0,.3,0,.1,0,.2-.2.2-.4,0,0,0-.1,0-.2,0-.2,0-.3,0-.5,0-.3,0-.7.2-1,0,0,0,0,0-.1,0,0,0,0,0,0,0-.1,0-.3.1-.4,0,0,0,0,0,0,0,0,0,0,0,0,0,0,0,0,0,0,0,0,0,0,0,0s0,0,0,0c0,0,0-.2.1-.3.1-.3.3-.5.5-.7,0,0,0-.2,0-.2Z"/>
      <path class="cls-1" d="M33,28.4c-.3,0-.6,0-.9,0-.3,0-.6,0-.8.1-.3.1-.6.3-.9.5-.2.2-.4.4-.7.6-.2.1-.3.3-.5.4-.3.3-.6.4-1,.5-.3,0-.6,0-.9,0-.3,0-.7,0-1,0-.3,0-.5-.1-.7-.3-.1,0-.2-.2-.4-.3-.2-.2-.4-.4-.6-.6-.3-.3-.5-.5-.9-.7-.3-.2-.6-.3-1-.3-.4,0-.8,0-1.2,0,0,0-.1,0-.2,0v-.3c0-.1,0-.3,0-.4,0-.1,0-.3,0-.4,0,0,0,0,0,0h.3s.7,0,.7,0h.7c.9-.1,1.8-.2,2.6-.2.8,0,1.7,0,2.5,0,.3,0,.6,0,.9,0,.3,0,.6,0,.9,0,.3,0,.7,0,1,0,.3,0,.6,0,.9,0h.6s0,0,0,0c0,0,0,.2,0,.3,0,.2,0,.5,0,.7,0,0,0,.1,0,.2,0,0,0,0,0,0h0ZM21.6,26.5s0,0,0,0c.3,0,.7,0,1,0,.3,0,.6,0,.9,0,.3,0,.6,0,.9,0,.4,0,.7,0,1.1,0,.9,0,1.7,0,2.6,0,.4,0,.8,0,1.2,0,.3,0,.7,0,1,0,.3,0,.7,0,1,0,.4,0,.7,0,1.1,0h.4s0,0,0,0v.5s-.1,0-.2,0c-.2,0-.3,0-.5,0-.4,0-.7,0-1.1,0-.2,0-.4,0-.6,0h-.9c-.2,0-.3,0-.5,0-.4,0-.9,0-1.3,0-.4,0-.7,0-1,0-.2,0-.4,0-.6,0-.3,0-.6,0-.9,0-.3,0-.6,0-.9,0-.4,0-.7,0-1.1,0-.4,0-.7,0-1.1,0,0,0-.2,0-.3,0,0,0,0,0,0,0v-.5c0,0,0,0,0,0ZM21.7,25.9c0,0,0-.1,0-.2,0,0,0,0,0,0,0,0,.1,0,.2,0,.3,0,.6,0,1,0,.3,0,.5,0,.8,0,.4,0,.8,0,1.1,0,.4,0,.8,0,1.2,0,.2,0,.3,0,.5,0,0,0,0,0,0,0,0,0,0,0,0,0v-5.3c0-.1,0,0-.1,0-.6,0-1.2,0-1.8,0-.3,0-.7,0-1,0-.4,0-.7,0-1.1,0,0,0,0,0-.1,0,0,0,0,0,0-.1,0-.1,0-.3,0-.4,0,0,0,0,0,0,.5,0,.9,0,1.4,0,.3,0,.7,0,1,0,.4,0,.8,0,1.3,0,.3,0,.6,0,.9,0,0,0,0,0,0,0v6.5c0,.1,0,0,0,0-.4,0-.8,0-1.2,0-.7,0-1.3,0-2,.1-.3,0-.6,0-.9,0-.3,0-.7,0-1,0,0,0-.2,0-.3,0,0,0,0,0,0,0,0,0,0-.3,0-.3ZM21.9,24.2c0-.3,0-.6.1-.9,0-.4.1-.8.2-1.2,0-.3,0-.6.1-.9v-.7c0,0,0,0,.2,0h.4c.3,0,.7,0,1,0,.3,0,.7,0,1,0,.4,0,.8,0,1.3,0,0,0,0,0,.1,0,0,0,0,0,0,.1v4.9c0,0,0,0,0,0,0,0-.1,0-.2,0-.3,0-.6,0-.9,0-.3,0-.6,0-1,0-.3,0-.7,0-1,0-.4,0-.8,0-1.1,0,0,0-.1,0-.2,0,0,0,0,0,0,0l.2-1.3h0ZM22.6,18.9s0,0,0-.1q0,0,0,0h.4c.3,0,.7,0,1,0,.3,0,.7,0,1,0,.5,0,1.1,0,1.6,0,.4,0,.8,0,1.2,0,.2,0,.4,0,.7,0,.6,0,1.3,0,1.9,0,.3,0,.7,0,1,0,0,0,.2,0,.3,0,0,0,0,0,0,0,0,.2,0,.3,0,.5-.1,0-.2,0-.3,0-.3,0-.6,0-1,0-.4,0-.7,0-1.1,0-.4,0-.7,0-1.1,0-.6,0-1.2,0-1.7,0-.7,0-1.4,0-2.1,0-.6,0-1.2,0-1.8,0,0,0-.2,0-.3,0,0,0,0-.4,0-.4ZM22.6,18.5v-.2s0,0,0,0c.1.1.2,0,.4,0,0,0,.1,0,.2,0,0,0,.1,0,.2,0,.1,0,.2,0,.3-.1,0,0,0,0,0,0,0,0,.1-.1.2-.1,0,0,.1,0,.2,0h0c0,.1,0,.1.1.2,0,0,0,0,0,0,0,0,0,0,0,0,0,0,.1,0,.2,0,0,0,.2,0,.2-.1t0,0c.1.2.1.2.4.2,0,0,.1,0,.2,0,0,0,.1-.1.2-.1,0,0,0,0,0,0,0,0,0,0,.1,0,0,0,0,0,.1,0,.2,0,.4-.1.5-.3,0,0,0,0,.1,0,0,0,0,0,0,0,0,0,.1,0,.2,0,.1.1.5.2.6,0,0,0,0,0,0,0,0,0,0,0,.1,0,0,0,0,0,0,0,0,0,0,0,.1,0,.1.2.3.3.5.3,0,0,.1,0,.1,0,0,0,0,0,0,0,0,0,0,0,.1,0,0,0,.1,0,.2,0,0,0,.2,0,.3,0,0,0,.2,0,.2-.1,0,0,0,0,0,0,0,0,0,0,.1,0,.1,0,.3.1.4,0,0,0,0,0,0,0,0,0,0,0,0,0,0,0,0,0,.1,0,0,0,0,0,0,0,0,0,.1,0,.2,0,0,0,.2,0,.2.2,0,0,.1.1.2.1,0,0,.2,0,.3,0,0,0,.1,0,.2,0,0,0,0,0,0,0,0,0,.2,0,.3,0,0,0,0,0,0,0v.2s-.1,0-.2,0c-.3,0-.6,0-.8,0-.4,0-.7,0-1.1,0-.3,0-.6,0-1,0-.7,0-1.4,0-2,0-.4,0-.9,0-1.3,0-.3,0-.7,0-1,0-.4,0-.8,0-1.1,0h-.6c0,0,0,0,0,0ZM25.6,18c-.1,0-.3,0-.4,0,0,0,0,0,.1,0h.1s.1,0,.2,0c0,0,0,0,0,0h0ZM22.7,18s0,0,0-.1c0,0,.1,0,.2,0,0,0,0,0,.1,0,0,0,.1,0,.2-.1,0,0,0,0,0,0,0,0,0,0,0,0,0,0,.2,0,.2-.1,0,0,0-.1,0-.2,0,0,0-.1.1-.2,0,0,0,0,0,0,0,0,0,0,.1,0,0,0,.1,0,.2,0,0,0,.1,0,.2,0,0,0,0,0,0,0,0,0,0,0,0,0,0,0,.1,0,.2,0,0,0,.1-.1.2-.2,0-.1.2-.2.3-.3,0,0,0,0,0,0,0,0,0,0,0,0,0-.1.1-.2.2-.3,0,0,.2-.1.3,0,0,0,0,0,0,0,0,0,.2-.1.3-.1,0,0,0,0,.1,0,0,0,.2,0,.2.1,0,0,0,0,.1.1,0,0,0,0,0,0,0,0,.1,0,.2,0,0,0,0,0,.1,0,0,0,0,0,0,0,0,0,0,0,0,0,0,0,0,.1,0,.2,0,0,0,0,0,.1,0,0,0,0,0,0,0,0,0,0,0,0,0,0,0,.1,0,.2,0,0,0,.2-.2.3,0,0-.1,0-.2,0,0,0,0,0-.1,0,0,.1-.2.2-.4.3,0,0,0,0-.1,0,0,0,0,0,0,0,0,0,0,0,0,0,0,0,0,0-.1,0,0,0,0,0-.1,0,0,0-.2,0-.2,0,0,0,0,0,0-.1,0,0,0,0,0-.1,0,0,0,0,0-.1,0,0,0-.1,0-.2,0-.1.1-.2.2-.2,0,0,0,0,0,0,0,0,0,0,.1,0,0,0,.3-.1.3,0,0,0,0,0,0,0,0,0,0,0,0,.1,0,0,0,.1,0,.2,0,0,0,.1-.2.2,0,0-.1,0-.2,0,0,0,0,0,0-.1,0,0,0,0,0,0,0,0,0,0,0,0,0,0,0,0,0,0,0,0,0,0-.1,0,0,0-.1,0-.1.1,0,.1,0,.2.2.3,0,0,.1,0,.2,0,0,0,0,0,.1,0,0,0,.1-.1.1-.2,0-.1,0-.2,0-.3,0,0,0,0,0-.1,0,0-.1-.1-.2-.1,0,0-.1,0-.2,0,0,0,0,0,0,0,0,0,0,0,0,0-.1,0-.3,0-.3.2,0,0,0,0,0,.1,0,0,0,0,0,.1,0,0,0,0,0,0,0,0-.1,0-.2-.1,0,0-.3,0-.3,0,0,0,0,0,0,.1,0,0,0,0,0,0,0,0,0,0,0,0,0,0,0,0,0,0,0,0,0,0,.1,0,.1,0,.2.1.2.2,0,0,0,0,0,0,0,0,0,0,0,.1,0,0-.1,0-.2,0,0,0,0,0-.1,0,0,0-.1,0-.2,0,0,0,0,0,0,0,0,0,0,0-.1,0,0,0,0,0-.2,0,0,0-.1-.1-.2-.1-.1,0-.2,0-.3,0,0,0,0,0-.1.1,0,0-.2.1-.3.1,0,0,0,0-.1,0,0,0-.1,0-.2,0,0,0,0,0-.1,0,0,0,0,0-.1,0,0,0-.1,0-.2,0,0,0,0,0,0-.1ZM22.8,17.5c.1,0,.2-.2.2-.4,0,0,0-.1,0-.2,0,0,0,0,0,0,0,0,0,0,.2,0,0,0,.1,0,.2,0,0,0,0,0,0,0,.1,0,.2,0,.3,0,0,0,0,0,0,0,.1,0,.2,0,.3,0,0,0,.1-.2.1-.3,0,0,0,0,0,0,0-.2.2-.2.3-.1,0,0,0,0,.1,0,0,0,0,0,.1,0,0,0,.2-.1.2-.2,0,0,0,0,.1,0,0,0,0,0,0,0,.1,0,.1,0,.2,0,0,0,0,0,0,0,0,0,0,0,.1,0,0,0,0,0,0,0,0,0,0,0,0,0,0,0,0,0,0-.1,0,0,0,0,0,0,0,0,0,0-.1,0,0,0,0,0-.1,0-.1,0-.2,0-.3,0,0,0,0,0,0,0,0,0-.1,0-.2,0,0,0,0,0,0,0,0,0-.1,0-.2,0,0,0,0,0-.1,0,0,0,0,0,0,0-.1,0-.2,0-.3,0,0,0,0,0-.1.1,0,0-.2,0-.3,0,0,0,0,0,0,0,0-.1-.2-.2-.3-.2,0,0,0,0,0,0h0s0,0,0,0c0,0,0,0,0,0,.1-.2.3-.3.5-.3.5,0,1-.2,1.5-.2,0,0,.2,0,.3,0,.3,0,.4-.3.5-.5,0-.1,0-.2.1-.3,0-.2.3-.3.5-.3,0,0,.2,0,.3,0,.3,0,.6,0,.9,0,0,0,.2,0,.3,0,.2,0,.4.1.5.3,0,.1.1.2.2.4,0,.2.2.4.4.5.1,0,.3,0,.5.1.5,0,.9.2,1.4.2.2,0,.3.1.4.2,0,0,0,0,0,0,0,0,0,0,0,0,0,0-.2,0-.2.2,0,0,0,0,0,.1,0,0-.1,0-.2,0,0,0,0-.1-.1-.2,0,0,0,0,0,0,0,0-.2,0-.2,0,0,0,0,0-.1,0,0,0,0,0,0,0,0,0-.1,0-.2,0,0,0,0,0-.1.1,0,0,0,0-.1,0,0,0-.1,0-.2-.1,0,0-.1,0-.2,0,0,0,0,0,0,0,0,0-.1,0-.2,0,0,0,0,0,0,0,0,0,0,0,0,0,0,0,0,0,0,0,0,0,0,0,0,0,0,0,0,0,.1,0,0,0,0,0,0,0,0,0,0,0,.1,0,0,0,0,0,0,0q0,0,0,0c0,0,.1.1.2.2,0,0,0,0,.1,0,0,0,0,0,.1,0,0,0,0,0,.1,0,0,0,.1,0,.1.1,0,0,0,0,0,.1,0,.2.2.4.4.4,0,0,0,0,.1,0,0,0,0,0,0,0,.1,0,.2,0,.3,0,0,0,0,0,0,0,0,0,.1,0,.2,0,.1,0,.2,0,.2.1,0,0,0,0,0,.1,0,0,0,.1,0,.2,0,0,0,.1,0,.1,0,0,0,.1,0,.2,0,0,0,.1,0,.2,0,0,0,0,0,0,0,0,0,0,0,0,0,0,0,0-.1,0,0,0,0,0,0,0,0,0,0,0-.1,0,0,0,0,0-.1,0,0,0,0,0,0,0,0-.1-.1-.2-.2-.3-.1,0-.2-.1-.4,0,0,0-.1,0-.2,0,0,0,0,0-.1,0-.1,0-.1,0-.2,0,0,0,0,0,0,0,0-.2-.2-.3-.4-.4,0,0,0,0,0,0,0,0-.1-.2-.2-.2,0-.1-.2-.2-.4-.2,0,0,0,0-.1,0,0,0,0,0,0,0,0,0,0,0,0,0,0,0-.2,0-.2,0,0,0-.1,0-.2,0,0,0,0,0,0,0,0-.1-.1-.2-.3-.2,0,0-.1,0-.2,0,0,0,0,0-.1-.1-.1-.1-.2-.2-.4-.2-.1,0-.2,0-.3.1,0,0-.1.1-.2.2,0,0,0,0,0,0,0,0-.2,0-.3,0,0,0-.1.1-.1.2,0,0-.2,0-.3,0,0,0,0,0,0,0,0,0-.2,0-.2,0,0,0,0,0-.1,0-.1,0-.3,0-.4.2,0,0-.1.1-.2.2,0,0,0,0,0,0-.2,0-.3.2-.4.3,0,0,0,0-.1.1,0,0,0,0,0,0,0,0,0,0,0,0,0,0-.1,0-.2,0,0,0,0,0-.1,0-.2,0-.3,0-.5.2,0,0,0,.1-.1.2,0,0,0,0,0,.1,0,0,0,0-.1,0,0,0,0,0-.1,0,0,0,0,0,0,0,0,0,0,0-.1,0,0,0-.1,0-.2,0,0,0,0-.2,0-.2h0ZM22.8,17.3c0-.3,0-.6.1-.9,0-.2,0-.4.1-.5,0,0,0,0,0,0,0,0,.2,0,.3,0,0,0,0,0,0,0h0c0,.2.1.2.2.2,0,0,.2,0,.2,0,0,0,0,0,.1-.1,0,0,0,0,0,0,0,0,.1,0,.2,0,0,0,.1,0,.2,0,0,0,.1,0,.2,0h0c0,0,0,0,0,.1.1,0,.2,0,.3-.1,0,0,.1,0,.2,0,0,0,0,0,0,0,0,0,0,0,0,0,0,0,0,0-.2,0-.2,0-.1,0-.2,0,0,0,0,0-.1.1,0,0,0,0-.1,0-.1-.1-.4,0-.5.1,0,0,0,.1,0,.2,0,0,0,.1,0,.2,0,0-.1.1-.2.1,0,0,0,0-.1,0,0,0,0,0,0,0,0,0,0,0-.1,0,0,0-.1,0-.2,0,0,0,0-.1,0-.2,0,0,0,0,0-.1,0,0,0,0,0,0,0,0,0,0,0,0,0,0,0,0,0,0,0,0,0,0,0,0,0,0-.1,0-.2,0,0,0,0,0,0,0,0,0,0,.1,0,.2,0,0,0,0,0,0,0,0,0,0,0,0,0,0,0,0,0,0-.2,0-.2,0-.3.1,0,0,0,.1,0,.2,0,0,0,.2,0,.2,0,0,0,0,0,.1,0,0,0,0,0,0ZM31.4,15.8c0,.1,0,.3.1.4,0,.2,0,.3,0,.5,0,0,0,0,0,0,0,0-.2-.1-.3,0,0,0,0,0,0,0,0,0,0,0,0,0,0,0,0-.1,0-.2,0,0,0,0,0,0,0-.1-.1-.2-.2-.1,0,0,0,0,0,0,0,0,0,0,0,0,0,0,0,0,0,0,0,0,0,0,0,0,0,0,.1,0,.1,0,0,0,0,.2-.1.3,0,0,0,0-.1,0,0,0,0,0-.1,0,0,0,0,0,0,0,0,0,0,0,0,0,0,0,0,0-.1,0,0,0,0,0,0-.1,0,0,0-.1,0-.2,0,0,0,0,0,0,0-.2-.4-.2-.5-.1,0,0,0,0-.1,0,0,0,0,0,0,0h0c0-.1,0-.2-.1-.1,0,0,0,0-.1,0,0,0,0,0,0,0,0,0,0,0,0-.1,0,0,0,0,0,0,0,0,.1,0,.2,0h0c0,.1.2.1.2.1,0,0,0,0,0,0,0,0,0,0,.1,0h0c0-.1,0-.1.1,0,0,0,0,0,0,0,0,0,0,0,.1,0,0,0,.1,0,.2,0,0,0,.1.1.2.2,0,0,.3.1.4,0h0c0-.2.1-.2.2-.2,0,0,0,0,0,0ZM27,16.4h0s0,0,0,0c0,0-.2-.1-.3-.1,0,0-.2,0-.1-.2,0-.2.2-.2.3-.2,0,0,0,0,.1,0,0,0,0,0,0,0,0,0,0,0,0-.1,0,0,0,0,.1,0,.1,0,.3,0,.4,0,0,0,0,0,.1,0,0,0,0,0,0,0,0,0,0,0,0,0,0,0,0,0,0,0,0,0,.2,0,.2,0,0,0,.1.1.1.2,0,0,0,.1-.1.2h0c-.1,0-.2,0-.3,0,0,0,0,0-.1,0,0,0,0,0-.1,0,0,0-.1,0-.2,0,0,0,0,0,0,0-.1,0-.2,0-.3.1ZM27.1,16.9s0,0,0-.1c0,0,0-.1,0-.2,0,0,0,0,0,0h0c0,0,0,0,.1,0,0,0,0,0,.1,0,0,0,0,0,.1,0,0,0,.1.1,0,.2,0,0,0,.1,0,.2,0,0,0,0,0,0,0,0,0,.1-.1.2,0,0,0,.1,0,.2,0,.1.1.2.2.3h0c0,0,0,0,0,.1,0,0-.2,0-.3,0-.1,0-.2,0-.3,0,0,0,0,0,0,0,0,0,0,0,0,0,0,0,.1-.2.1-.3,0-.1,0-.2,0-.3h0ZM29.4,18c0,0-.2.1-.3,0,0,0,0,0-.1,0,0,0,0,0,0,0,0,0,0,0,0,0,0,0,0-.1.1-.2,0,0,0,0,.1.1,0,0,0,0,.1,0ZM31.8,18.1s0,0,0,0c0,0-.1,0-.2,0,0,0,0,0,0,0,0,0,0,0-.1,0,0,0-.1,0-.2,0,0,0-.2,0-.2,0,0,0-.1,0-.2-.1,0,0,0,0,0,0-.2-.2-.4-.2-.5,0,0,0,0,0,0,0,0,0,0,0-.1,0,0,0,0,0,0,0,0,0,0,0,0,0,0,0,0,0-.1,0,0,0-.1,0-.2-.1,0,0,0,0,0,0-.1,0-.2,0-.2-.1,0,0,0-.1,0-.2,0-.1.1-.2.2-.2,0,0,0,0,0,0,0,0,0,0,0,0,0,0,0,0,0,0,0,0,0,0,0,0,0,0,0-.2-.1-.2-.1,0-.2,0-.3,0,0,0,0,0,0,0,0,0,0,0,0,0,0,0,0,0,0-.1,0,0,0-.2-.2-.2,0,0-.2-.1-.3-.1,0,0,0,0,0,0-.1,0-.3,0-.4,0,0,0,0,0,0,0,0,0,0,0,0,0,0,.1,0,.3,0,.4,0,0,0,0,.1.1,0,0,.2,0,.2,0,0,0,.1,0,.2-.1,0,0,0-.1,0-.2,0,0,0,0-.1-.1,0,0,0,0-.1,0,0,0,0,0,0,0,0,0,0,0,0,0,0,0,0,0,0,0,0,0,0,0,0,0,0,0,0,0,0,0,0,0-.2,0-.2,0,0,0-.1-.1-.2-.2,0,0,0,0,0-.1,0,0,0,0,0,0,0,0,0,0,0,0,0,0,0,0,0,0,.1,0,.2,0,.3,0,0,0,0,0,0,0,0,0,0,0,0,0,.1,0,.2.2.3.3,0,0,0,0,0,0,0,0,0,.2,0,.2,0,0,0,0,0,.1,0,0-.1.2-.2.2,0,0-.2,0-.2,0,0,0,0,0-.1,0,0,0-.1,0-.2,0-.2,0-.3-.1-.4-.3,0,0,0,0-.1,0,0,0-.2,0-.2,0,0,0-.1-.2-.2-.3,0,0,0-.1,0-.2,0,0,0,0,0,0,0,0,0,0,0,0,0,0,0,0,0,0,0,0,0-.1,0-.2,0,0,0-.2,0-.2,0,0,0,0,0,0,0,0,0,0,.1,0,0,0,.1,0,.2,0,0,0,0,0,0,0,0,0,0,0,.1,0,0,0,.1-.1.2-.2,0,0,.1,0,.2,0,0,0,0,0,0,0,0,0,.2,0,.2,0,0,0,0,0,0,0,0,0,0,0,.1,0,.2,0,.3.2.4.4,0,0,0,0,0,0,.1,0,.2,0,.3.2,0,0,0,0,0,0,0,0,0,.1.1.2,0,0,.1,0,.2,0h0s0,0,0,0c0,0,0,0,.1,0,0,0,.1,0,.2,0,0,0,0,0,.1,0h0c.1,0,.2.2.2.3,0,0,0,0,0,0,0,0,.1.1.2.1,0,0,0,0,.1,0,0,0,.1.1.2.1,0,0,0,0,0,0,0,0,0,0,0,0,0,0,0,.2,0,.2ZM32,19.6c0,.2,0,.3,0,.5h-.3c-.2,0-.3,0-.5,0-.3,0-.7,0-1,0-.2,0-.4,0-.6,0-.4,0-.8,0-1.1,0h-.5c0,0,0,0,0,0v5.4q0,0,0,0c.4,0,.9,0,1.3,0,.3,0,.7,0,1,0,.3,0,.7,0,1,0,.3,0,.6,0,.9,0,.2,0,.3,0,.5,0,0,0,0,0,0,0,0,.1,0,.3,0,.4h0c0,0-.3,0-.3,0h-.5c-.4,0-.8,0-1.1-.1-.3,0-.6,0-.9,0-.3,0-.7,0-1,0-.2,0-.5,0-.7,0-.3,0-.6,0-.9,0s0,0,0,0c0,0,0,0,0,0v-6.4c0-.1,0,0,0,0,.6,0,1.2,0,1.8,0,.3,0,.6,0,1,0,.3,0,.6,0,.8,0,.3,0,.6,0,.9,0,0,0,0,0,0,0h0ZM32,20.3s0,0,0,.1c0,.2,0,.4,0,.5v.8c.1.2.1.4.2.6v.8c0,0,.2.6.2.6v.8c.1.2.2.4.2.7v.3c0,0-.2,0-.3,0h-.5s-.9-.1-.9-.1c-.2,0-.4,0-.6,0-.3,0-.6,0-.9,0-.2,0-.4,0-.6,0h-.6c0,0,0,0,0,0,0-.1,0-.2,0-.3v-4.6c0-.1,0,0,0,0,.3,0,.6,0,1,0,.3,0,.6,0,1,0,.3,0,.6,0,.9,0h.9s0,0,.1,0h0ZM34,29.2c0-.2,0-.4,0-.6v-.9c-.1-.2-.2-.4-.2-.6,0-.2,0-.4,0-.7,0-.2,0-.5,0-.7,0-.3,0-.6-.1-.8v-.7c-.1-.3-.2-.6-.2-1v-.7c0,0-.2-.8-.2-.8,0-.2,0-.5,0-.7,0-.3,0-.6-.1-1v-.7c0,0-.2-.8-.2-.8,0-.2,0-.5,0-.7v-.9c-.1-.2-.2-.4-.2-.6,0-.3-.1-.5-.2-.7-.2-.3-.4-.5-.8-.6-.3,0-.6-.1-.9-.2-.2,0-.4,0-.6-.1,0,0-.2,0-.3,0-.2,0-.3-.2-.3-.4,0,0,0,0,0,0,0-.1,0-.3-.2-.4,0-.2-.2-.3-.4-.3-.2,0-.3,0-.5,0-.6,0-1.1,0-1.7,0-.1,0-.2,0-.4,0-.2,0-.3.1-.4.2,0,0-.1.2-.2.3,0,0,0,.2,0,.3,0,.2-.1.3-.3.3,0,0-.1,0-.2,0-.1,0-.3,0-.4,0-.4,0-.7.1-1.1.2-.5,0-.8.3-1,.8-.1.3-.2.5-.2.8,0,.2,0,.4,0,.6v.9c-.1,0-.2.6-.2.6v.8c-.1,0-.2.7-.2.7,0,.4,0,.7-.1,1.1,0,.3,0,.6-.1.8,0,.3,0,.6-.1,1v.8c-.1,0-.2,1-.2,1,0,.3,0,.6-.1.8v.8c-.1.2-.2.5-.2.7,0,.3,0,.6-.1.9,0,.2,0,.5,0,.7,0,.2,0,.3,0,.4,0,0,0,.1,0,.2,0,0,0,.1,0,0,0,0,.1,0,.2,0,0,0,0,0,0,0,0,0,0,0,.1,0,0,0,0,0,0,0,0,0,.1,0,.2,0,0,0,0,0,.1,0,.1,0,.3,0,.4,0,.2,0,.3,0,.5,0,.3,0,.6.1.9.3.4.2.7.4,1,.7.2.2.5.4.7.7.2.2.5.3.7.5.5.2,1.1.3,1.6.3.1,0,.3,0,.4,0,.3,0,.7,0,1-.2s.6-.2.9-.4c0,0,.1-.1.2-.2.2-.2.5-.4.7-.6.3-.2.6-.5.9-.6.3-.1.6-.2.9-.3.3,0,.5,0,.8,0,.3,0,.6.1.9.2,0,0,0,0,0,0,0,0,0-.2,0-.3ZM23.1,15.6h0s0,0,0,0h0Z"/>
      <path class="cls-1" d="M18.6,32.5c-.1-.1-.3-.2-.4-.4-1.4-1.3-2.5-3-3.3-4.8-.4-1-.7-2-.8-3.1-.1-.8-.2-1.7-.1-2.5,0-.9.2-1.9.4-2.8.5-1.9,1.5-3.7,2.8-5.2,1.4-1.6,3.1-2.8,5-3.6,1.6-.7,3.3-1,5-1,1.4,0,2.8.2,4.1.6,2,.6,3.8,1.7,5.3,3.1.7.7,1.4,1.5,1.9,2.3,1.2,1.8,1.9,3.9,2.1,6.1,0,.7,0,1.4,0,2,0,.6-.1,1.3-.3,1.9-.3,1.3-.7,2.5-1.4,3.7-.8,1.4-1.9,2.7-3.1,3.8,0,0,0,0,0,0,0,0,0,0,0,0,0-.1,0-.2.1-.4,0,0,0,0,.1-.1.1-.1.3-.3.4-.4.6-.6,1.1-1.2,1.5-1.8.6-.8,1.1-1.8,1.5-2.7.7-1.7,1-3.5.9-5.3,0-.7-.1-1.4-.3-2.2-.1-.7-.4-1.4-.6-2.1-.3-.7-.6-1.3-1-2-.3-.6-.7-1.1-1.1-1.6-.8-.9-1.7-1.7-2.6-2.4-1.7-1.2-3.6-1.9-5.7-2.2-.3,0-.5,0-.8,0-.3,0-.5,0-.8,0-.3,0-.5,0-.8,0-.5,0-.9,0-1.4.2-1.1.2-2.1.5-3.1.9-.9.4-1.8.9-2.6,1.5-.4.3-.7.6-1.1.9-.9.9-1.7,1.8-2.3,2.9-.3.5-.5.9-.7,1.4-.2.5-.4,1-.6,1.5-.2.6-.3,1.2-.4,1.8,0,.3,0,.6,0,.9,0,0,0,.2,0,.3,0,.3,0,.6,0,.9,0,.5,0,1,.1,1.5.2,1.5.7,2.9,1.4,4.3.2.4.5.8.7,1.2.3.4.6.9,1,1.3.3.3.5.6.8.9,0,0,0,0,0,0,0,0,.1.2.2.3,0,0,0,0,0,.1,0,0,0,0,0,0,0,0,0,0,0,0Z"/>
      <path class="cls-1" d="M33.3,30.2h0c1.9-1.6,3.2-3.7,3.6-6.1.1-.7.2-1.4.1-2.1,0-1.1-.3-2.2-.7-3.2-.5-1.1-1.1-2.1-2-3-1.9-2-4.7-3.1-7.5-3-1.2,0-2.3.3-3.4.8-1.1.4-2,1.1-2.9,1.9-1.7,1.6-2.8,3.7-3,6.1,0,.6,0,1.2,0,1.8.2,2.1,1,4.1,2.4,5.7l.2.3c0,0,.1.2.2.2,0,0,0,0,0,.1,0,0,0,0,0,0,0,0,0,0,0,0,0,0,0,0,0,0,0,0,0,0,0,0h0s0,0,0,0h0s0,0,0,0c0,0,0,0,0,0h0s0,0,.1.1h0s0,0,0,0h0s0,0,0,0c0,0,0,0,0,0h0s0,0,0,0h0s0,0,0,0c0,0,0,0,0,0h0s0,0,0,0h0s0,0,0,0h0s0,0,0,0c0,0,0,0,0,0,0,0,0,0,0,0h0s0,0,0,0c0,0,0,0,0,0h-.1c-1-.8-1.9-1.8-2.5-3-.9-1.6-1.3-3.4-1.2-5.2,0-1.4.4-2.7,1-4,.5-1,1.1-1.9,1.9-2.6,1.3-1.3,3-2.3,4.9-2.7,1-.2,1.9-.3,2.9-.2.9,0,1.9.3,2.8.6,2.1.8,3.8,2.2,5,4.2.6,1,1,2,1.2,3.1.1.7.2,1.4.2,2.2,0,1.5-.4,2.9-1,4.2-.6,1.3-1.5,2.4-2.6,3.3,0,0,0,0,0,0,0,0-.1,0-.2,0h0ZM35.9,32.2h0s0,0,0,0c0,0,0,0,0,0ZM36.9,27.2h0c0,0,0,0,0,0,0,0,0,0,0,0,0,0,0,0,0,0ZM37.4,26.3s0,0,0,0c0,0,0,0,0,0h0s0,0,0,0ZM16.8,17.4s0,0,0,0c0,0,0,0,0,0h0s0,0,0,0Z"/>
      <path class="cls-1" d="M20.5,29.1c0,0,0,.1,0,.2,0,0,0,0,0,0,0,0,0,0,0,0,0,0,0,0,.1,0,0,0,0,0,.1,0,0,0,0,0,.1,0,0,0,0,0,0,0,0,0,0,0,0,0,0,0,0,0,0,0,0,0,.1,0,.2,0-.1,0-.2,0-.3,0-.2,0-.3,0-.5.1,0,0,0,0,0,0,0,0,0,0,0,0,0,0,0,0,0,0,0,0,0-.2,0-.2h0Z"/>
      <path class="cls-1" d="M20.5,29.3s0,0,0,0c0,0,0,0,0,0,0,0,0,0,0,0,0,0,0,0,0,0,0,0,0,0,0,0h0c0,0-.2-.2-.2-.2,0,0,0,0,0,0,0,0,.1.1.2.2,0,0,0,0,0,0,0,0,0,0,0,0Z"/>
      <path class="cls-1" d="M20.5,29.5s0,0,0,0c0,0,0,0,.1.1,0,0,0,0,0,0,0,0,0,0,0,0h0ZM20.8,29.8c0,0-.1,0-.1-.1,0,0,0,0,.1.1ZM20.9,29.8s0,0,0,0c0,0,0,0,0,0ZM21.2,30.1s0,0,0,0c0,0,0,0,0,0ZM21.1,30s0,0,0,0c0,0,0,0,0,0ZM21.3,30.1s0,0,0,0c0,0,0,0,0,0h0ZM21,29.9s0,0,0,0c0,0,0,0,0,0Z"/>
      <path class="cls-1" d="M21.1,30s0,0,0,0c0,0,0,0,0,0ZM21.3,30.1s0,0,0,0c0,0,0,0,0,0ZM21,29.9s0,0,0,0c0,0,0,0,0,0Z"/>
      <path class="cls-1" d="M21,29.9s0,0,0,0c0,0,0,0,0,0ZM21,29.9s0,0,0,0c0,0,0,0,0,0h0Z"/>
      <path class="cls-1" d="M20.9,29.9s0,0,0,0c0,0,0,0,0,0ZM20.8,29.8s0,0,0,0c0,0,0,0,0,0ZM20.7,29.6s0,0,0,0c0,0,0,0,0,0h0Z"/>
      <path class="cls-1" d="M20.7,29.6s0,0,0,0c0,0,0,0,0,0ZM20.7,29.6s0,0,0,0c0,0,0,0,0,0ZM33.1,31.5s0,0,0,0c0,0,0,0,0,0,0,0,0,0,0,0,0,0,0,0,0,0ZM16.7,23.9s0,0,0,0c0,0,0,0,0,0,0,0,0,0,0,0,0,0-.1,0-.2,0-.2,0-.5,0-.7,0,0,0-.1,0-.1.1,0,0,0,0,0,0,0,0,0,0,0,0,0-.1,0-.3,0-.4,0,0,0,0,0,0h.4s.6,0,.6,0c0,0,.1,0,.1,0,0,0,0,0,0,0,0,0,0,0,0,0,0,.1,0,.2,0,.3v.2s0,0,0,0ZM32.6,12c0,0,.1,0,.2,0,.1,0,.3,0,.4.2,0,0,0,.1,0,.2,0,0,0,0,0,0,0,0,.1,0,.2,0,.2,0,.3,0,.4.2,0,0,0,.1,0,.2,0,0,0,0,0,.1l-.3.5h0c0,.1,0,.1,0,.2,0,0,0,0,0,0,0,0,0,0,0,0,0,0,0,0,0,0-.1,0-.3-.2-.4-.2,0,0,0,0,0,0,0,0,0,0,0,0,0,0,0,0,0,0,0,0,0,0,0,0,0,0,.1,0,.2,0l.3-.5s0,0,0-.1c0,0,0-.1,0-.1,0,0-.2,0-.2,0,0,0,0,0,0,0l-.3.6c0,0,0,.1,0,.2,0,0,0,0,0,0,0,0,0,0,0,0l-.5-.2s0,0,0,0c0,0,0,0,0,0,0,0,.1,0,.1,0,.1-.2.2-.4.3-.6,0,0,0,0,0,0,0,0,0-.2-.1-.2,0,0-.1,0-.2,0,0,0,0,0,0,0l-.3.6c0,0,0,.1,0,.2,0,0,0,0,0,0,0,0,0,0,0,0l-.5-.3s0,0,0,0c0,0,0,0,0,0,0,0,.1,0,.2,0,0-.1.1-.3.2-.4,0,0,.1-.2.2-.3,0,0,0-.1,0-.2,0,0,0,0,0,0,0,0,0,0,0,0l.4.2s0,0,0,0h0q0,.1,0,.1ZM30,11s0,0,.1,0c.1,0,.2,0,.3,0,.1,0,.2.2.2.3,0,.1,0,.2,0,.3,0,.1,0,.2,0,.3,0,0,0,.1,0,.2,0,0,0,0,0,0,0,0,0,0,0,0h-.5c0-.1,0-.1,0-.2,0,0,0,0,0,0,0,0,.1,0,.1-.1l.2-.7c0,0,0-.1,0-.2,0,0-.1,0-.2,0,0,0-.1,0-.1.2,0,.2,0,.4-.1.6,0,0,0,.1,0,.1,0,0,0,0,0,0,0,0,0,0,0,0-.2,0-.3,0-.5-.1,0,0,0,0,0,0s0,0,0,0c0,0,.1,0,.1-.1.1-.4.2-.8.3-1.3h0c0,0,0-.1,0-.2,0,0,0,0,0,0,0,0,0,0,0,0,0,0,0,0,0,0h.1c0,0,.2,0,.3,0,0,0,0,0,0,0v.6c-.1,0-.2,0-.2,0ZM38,20.8v-.4c0,0,0-.2,0-.2,0,0,0,0,0,0,0,0,0,0,0,0,0,0,0,0,.2,0h.5c0,0,.7-.2.7-.2h0c0,0,0,0,.1-.1h0s0,0,0,0c0,0,0,0,0,0v.3s0,0,0,.1c0,0,0,0,0,0-.2,0-.4,0-.6,0,0,0,0,0,0,0,0,0,0,0,0,0,.1,0,.2.2.2.3,0,.1,0,.3-.2.3,0,0-.2,0-.3,0-.2,0-.3,0-.5,0,0,0-.1,0-.1.1,0,0,0,0,0,0s0,0,0,0c0-.2,0-.3,0-.5,0,0,0,0,0,0,0,0,0,0,0,0,0,0,0,0,.1,0h.4c0,0,.2-.1.2-.1,0,0,0,0,0,0,0,0,.1-.1,0-.2,0,0,0,0-.1-.1,0,0,0,0,0,0-.2,0-.4,0-.7.1,0,0-.1,0-.1.1,0,0,0,0,0,0ZM16.6,19.7c0,0-.2,0-.3,0-.3,0-.5-.2-.8-.3,0,0,0,0-.1,0,0,0-.1,0-.1,0,0,0,0,0,0,0,0,0,0,0,0,0,0,0,0,0,0,0v-.4c.2,0,.2-.2.2-.3,0,0,0,0,0,0,0,0,0,0,0,0,0,0,0,0,0,0,0,0,0,0,0,.1,0,0,0,0,.1,0l.8.3c0,0,.2,0,.3,0,.1,0,.2,0,.3-.2,0,0,0-.2,0-.2,0-.1,0-.2-.1-.3,0,0-.1,0-.2-.1-.3,0-.5-.2-.8-.3h0c-.1,0-.2,0-.2,0,0,0,0,0,0,0,0,0,0,0,0,0,0,0,0,0,0,0v-.4c.1,0,.2,0,.2,0,0,0,0,0,0,0,0,0,0,0,0,0,0,0,0,0,0,0,0,0,0,0,0,.1,0,0,0,0,0,0l.7.2c0,0,.2,0,.3.1.2.1.3.3.2.6,0,.1,0,.3-.1.4,0,.2-.3.3-.5.3h0ZM38.5,16.9l-.4.2-.8.4s0,0-.1,0c0,0,0,0,0,.2,0,0,0,0,0,0,0,0,0,0,0,0,0,0,0,0,0,0,0,0,0-.2-.1-.3l-.2-.4s0,0,0,0c0,0,0,0,0,0,0,0,0,0,0,0,0,0,0,0,0,0,0,0,0,0,.2,0,0,0,0,0,0,0l1.2-.6s0,0,0,0c0,0-.1-.2-.2-.2,0,0-.2,0-.3,0h0c0,0,0,0,0,0l.5-.2.7,1.4s0,0,0,0c-.1,0-.2.1-.4.2,0,0,0,0,0,0,0,0,0,0,0,0,0,0,0,0,.1-.1,0,0,.1-.2,0-.3,0,0,0-.1,0-.2h0ZM29.2,10.7s0,0,0,0c0-.1-.1-.2-.2-.3,0-.1-.2-.2-.4-.2-.2,0-.3,0-.4.2,0,.1,0,.2-.1.4,0,.2,0,.3,0,.5,0,0,0,.2,0,.3,0,.1.2.2.4.3.2,0,.3,0,.4-.1,0,0,.1,0,.2-.1,0,0,0,0,0,0,0,0,0,0,0,0-.1.1-.3.2-.5.3-.5,0-.9-.2-1-.6,0-.4,0-.7.3-1,.3-.2.6-.3,1-.1,0,0,.1,0,.2,0,0,0,.1,0,.2,0,0,0,0,0,0,0,0,0,0,0,0,0,0,0,0,0,0,0,0,.2,0,.4,0,.6ZM15.6,22.9s0,0,0-.1c0-.1-.1-.3,0-.4,0-.1.1-.2.3-.2,0,0,.1,0,.2,0h.5s0,0,0,0c0,0,.1,0,.1,0,0,0,0,0,0,0,0,0,0,0,0,0v.5s0,0,0,0c0,0,0,0,0,0,0,0,0,0-.1,0-.2,0-.4,0-.7,0,0,0,0,0,0,0-.1,0-.2.1-.1.2,0,0,0,0,0,0,0,0,0,0,0,0,.2,0,.5,0,.7,0,0,0,.1,0,.1,0,0,0,0,0,0,0,0,0,0,0,0,0v.5s0,0,0,0c0,0,0,0,0,0,0,0,0-.1-.2-.1-.2,0-.5,0-.7,0,0,0,0,0,0,0,0,0,0,0,0,0h0c0,0,0,0,0,0,0,0,0,0,0,0h0c0-.1,0-.4,0-.4,0,0,0,0,0,0,0,0,0,0,0,0ZM39.2,22.1s0,0,0,0c.1.1.2.3.1.4,0,.1-.1.2-.2.2,0,0-.1,0-.2,0h-.6s0,0,0,0c0,0,0,0,0,0,0,0,0,0,0,0,0,0,0,0,0,0s0,0,0,0c0-.1,0-.2,0-.3,0,0,0-.1,0-.2,0,0,0,0,0,0,0,0,0,0,0,0,0,0,0,0,.1,0,.2,0,.4,0,.7,0,0,0,0,0,0,0,0,0,.1,0,0-.2,0,0,0-.1-.1-.1,0,0,0,0,0,0h-.6s0,0,0,0c0,0,0,0,0,0h0c0,0,0,0,0,0s0,0,0,0c0,0,0,0,0,0,0-.1,0-.3,0-.4,0,0,0,0,0,0,0,0,0,0,0,0,0,0,0,0,.1,0,0,0,.2,0,.3,0,.2,0,.4,0,.5,0,0,0,.1,0,.1-.1,0,0,0,0,0,0,0,0,0,0,0,0v.4s0,0,0,0c0,0,0,0-.1,0h0ZM16.8,17.4s0,0,0-.1c0-.1,0-.3,0-.4,0,0,.2-.1.3,0,0,0,.1,0,.1,0,.2,0,.4.2.5.3h0c0,0,0,0,.1,0,0,0,0,0,0,0,0,0,0,0,0,0,0,.1-.1.2-.2.4h0c0,.1,0,.1,0,.1,0,0,0,0,0,0,0,0,0-.1,0-.2l-.5-.3s0,0,0,0c-.1,0-.2,0-.2.2,0,0,0,0,0,.1,0,0,0,0,0,0,.2,0,.4.2.6.3,0,0,.1,0,.2,0,0,0,0,0,0,0,0,0,0,0,0,0l-.2.5s0,0,0,0c0,0,0,0,0,0h0c0-.1,0-.1,0-.2l-.4-.2h-.2c0-.2-.1-.2-.2,0,0,0,0,0,0,0,0,0,0,0,0,0,0-.1.1-.3.2-.4,0,0,0,0,0,0h.1c0,0,0,0,0,0h0ZM26.5,10c0,0,.2,0,.2,0,0,0,.1.1,0,.2,0,0,0,.1,0,.1,0,0-.1,0-.2,0,0,0,0,0,0-.1,0,0,0,0,0,0,0,0,0,0,0,0,0,0-.1,0-.1,0,0,0,0,0,0,0,0,0,0,0,0,.1v.3s0,0,0,0c0,0,0,0,.1,0,0,0,0,0,0,0,0,0,0,0,0,0,0,0,0,0-.1,0,0,0,0,0,0,0v.8c0,0,0,0,0,0,0,.1,0,.1.2.1h0s0,0,0,0c0,0,0,0,0,0h-.1s-.5,0-.5,0c0,0,0,0,0,0,0,0,0,0,0,0,0,0,0,0,0,0,.1,0,.1,0,.1-.2v-.6c0,0,0-.1,0-.2,0,0,0,0,0,0h0s0,0,0,0c0,0,0,0,0,0,0,0,0,0,0,0,0,0,0,0,.1,0,0,0,0,0,0-.1,0,0,0-.2,0-.2,0-.1.1-.2.3-.3,0,0,.1,0,.2,0h0ZM36.9,27.2c0,0,0,.2,0,.2,0,0-.1,0-.2,0,0,0,0,0,0,0,0,0,0,0,0,0,0,0,0,0,0,.1,0,0,0,.1.1.2,0,0,0,0,0,0,.3,0,.6,0,.9.1,0,0,.1,0,.2,0,0,0,0,0,0,0,0,0,0,0,0,0,0,0,0,0,0,0,0,.2-.2.3-.3.5,0,0,0,0,0,0,0,0,0,0,0,0h0c0,0,0-.1,0-.1-.2,0-.4,0-.6,0,0,0,0,0,0,0l.3.4s0,0,0,0c0,0,0,0,.2,0h0s0,0,0,0c0,0,0,0,0,0,0,0-.1.2-.2.3,0,0,0,0,0,0,0,0,0,0,0,0,0,0,0-.1,0-.2l-.7-.8c0,0-.2-.2-.2-.3,0-.1,0-.3,0-.4,0-.1.2-.1.3-.1,0,0,0,0,0,0ZM23.5,12v-.5s0,0,0,0c0,0,0,0-.1,0,0,0,0,0,0,0,0,0,0,0,0,0,0,0,0,0,0,0h.3c0-.1,0-.1,0-.1,0,0,0,0,0,0,0,0,0,.1,0,.2,0,.3,0,.7,0,1,0,.1,0,.3,0,.4,0,.2-.2.3-.3.3-.1,0-.2,0-.2-.2,0,0,0-.1,0-.2,0,0,.1,0,.2,0,0,0,0,0,0,0,0,0,0,0,0,0,0,0,0,0,0,0,0,0,0,0,0-.1,0,0,0-.1,0-.2,0,0,0,0,0,0-.2-.3-.5-.5-.7-.8,0,0,0,0-.2,0,0,0,0,0,0,0,0,0,0,0,0,0h.3c0-.1.2-.2.2-.2h0s0,0,0,0c0,0,0,0,0,0h0c-.1,0,0,.1,0,.2.1.1.2.2.3.4,0,0,0,0,0,0ZM16.9,24.2c.1,0,.3,0,.4.2,0,.1,0,.3,0,.4,0,.1-.1.2-.2.2,0,0-.1,0-.1,0,0,0,0-.1,0-.2,0,0,0,0,.1,0,0,0,0,0,0,0,0,0,0,0,0,0,0,0,0,0-.1-.1,0,0,0,0-.1,0-.4,0-.8.1-1.2.2,0,0-.1,0-.1.2,0,0,0,0,0,0,0,0,0,0,0,0,0-.1,0-.3,0-.4,0,0,0,0,0,0,.1,0,.2,0,.3,0h.8c0-.1,0-.2.1-.2h0ZM39.7,24.6v.4c0,0-.1,0-.1,0h-.5c-.3-.1-.6-.2-1-.3,0,0,0,0,0,0,0,0,0,0-.1,0,0,0,0,0,0,0,0,0,0,0,0,0,0,0,0,0,0,0v-.4c0,0,0-.2,0-.2,0,0,0,0,0,0s0,0,0,0h0c0,.1,0,.1.2.1.4,0,.8.2,1.2.2,0,0,0,0,0,0,0,0,.1,0,.1,0h0s0,0,0,0c0,0,0,0,0,0h0ZM37.4,15.1s0,0,0,0l-1.1.9s0,0,0,0c0,0,0,0,0,.1,0,0,0,0,0,0,0,0,0,0,0,0,0,0,0,0,0,0-.1-.1-.2-.3-.3-.4,0,0,0,0,0,0,0,0,0,0,0,0,0,0,0,0,0,0,0,0,.1,0,.2,0,.4-.3.7-.5,1.1-.8,0,0,0,0,0-.1h0c0,0,0,0,0,0,0,0,0,0,0,0,0,0,.3.4.3.4ZM19.7,13.6c0,0,0-.1,0-.2,0,0,0-.2.1-.2,0,0,.2,0,.3,0,0,0,0,0,0,0,0,0,0,.1,0,.2,0,0,0,0-.2,0,0,0,0,0,0,0,0,0,0,0,0,0,0,0,0,0,0,.1,0,0,0,0,0,.1l.3.4s0,0,0,0c0,0,.1,0,.2,0h0s0,0,0,0c0,0,0,0,0,0h-.2c-.1.2-.2.3-.3.4,0,0,0,0,0,0,0,0,0,0,0,0,0,0,0,0,0-.2-.1-.2-.3-.3-.4-.5,0,0,0,0-.1-.1,0,0,0,0-.2,0,0,0,0,0,0,0,0,0,0,0,0,0,.1,0,.2-.2.3-.3h.1c0,.1,0,.1,0,.1ZM22.8,12.6c0,.2-.1.3-.3.4,0,0-.2,0-.2,0,0,0,0,0,0-.1-.1-.2-.2-.4-.3-.6,0,0,0,0,0,0,0,0,0,0,0,0,0,0,0,0,0,0,0,0,0,0,0,0h0c0-.2.1-.4.1-.6,0,0,0,0,0,0,0,0,0,0,0,0,0,.1.1.2.2.3,0,0,0,0,0,0,0,0,0,0,.1,0,0,0,0,0,0,0,0,0,0,0,0,0,0,0,0,0,0,0h-.1c0,0,0,.1,0,.1.1.2.2.4.3.7,0,0,0,0,0,0,0,0,.1,0,.2,0,0,0,0,0,0,0,0,0,0,0,0,0,0,0,0,0,0,0,0,0,0,0,0,0ZM38.3,19c.5,0,.7.3.7.6,0,0,0,.1,0,.2,0,0,0,.1-.1.1,0,0-.2,0-.2,0,0,0,0,0,0,0,0,0,0-.1,0-.2,0,0,0,0,.1,0,0,0,.1-.1,0-.2,0,0,0,0-.1,0-.2,0-.5,0-.7.2-.2.2-.1.4,0,.5,0,0,0,0,0,0,0,0,0,0,0,0,0,0,0,0,0,0-.2,0-.4-.3-.4-.5,0-.2,0-.3.2-.4.1,0,.2-.2.4-.2ZM34.3,14.1c0-.3.2-.6.5-.7.2,0,.4,0,.6.2,0,0,0,.1.1.2,0,0,0,.1,0,.2,0,0-.2,0-.2,0,0,0,0-.1,0-.2,0,0,0,0,0,0,0,0,0-.1,0-.2,0,0,0,0-.1,0,0,0-.1,0-.2,0-.2.1-.3.3-.3.5,0,.2,0,.3.2.4,0,0,0,0,.1,0,0,0,0,0,0,0,0,0,0,0,0,0-.3,0-.6,0-.7-.4,0,0,0,0,0-.1h0ZM20.7,13.4c-.2,0-.4-.1-.4-.3,0-.1,0-.2,0-.3,0,0,.1-.1.2-.2h.1c0,0,0,0,0-.1,0,0,0,0,0,0,0,0,0,0,0,0l.2.2s0,0,0,0c0,0,0,0,0,0,0,0,0,0-.1,0,0,0-.2,0-.3,0,0,0,0,.1,0,.2,0,0,0,0,.2.1,0,0,.1,0,.2,0,0,0,.1,0,.2,0,.2,0,.3.2.4.3,0,.1,0,.3-.2.3,0,0-.2.1-.3.1q0,0,0,.1s0,0,0,0c0,0,0,0,0,0,0,0-.1-.2-.2-.3,0,0,0,0,0,0,0,0,0,0,0,0,0,0,0,0,.1,0,.1,0,.3,0,.4,0,0,0,0-.1,0-.2,0,0,0-.1-.1-.1,0,0-.1,0-.2,0,0,0-.2,0-.2,0ZM17.5,15.8l.4-.5s0,0,0,0c0,0,0,0,0,0,0,0,0,0,0,0,0,0,0,0,0,.1.1,0,.3,0,.4.1,0,0,.1,0,.2,0,0,0,0,0,0,0l-.2-.4s0,0,0,0c0,0,0,0-.1,0,0,0,0,0,0,0,0,0,0,0,0,0,0,0,0,0,0,0l.2-.3s0,0,0,0c0,0,0,0,0,0,0,0,0,.1,0,.2l.5.9h0c0,0,0,0,0,0,0,0,0,0,0,0h-.3c-.2-.2-.4-.2-.7-.3h-.1s0,0,0,0c0,0,0,0,0,0ZM34.2,12.9s0,0,0,0c0,0,0,0,0,0,0,0,0,0,0,0l.3.2s0,0,0,0l-.4.5-.2.2c0,0,0,.1,0,.2,0,0,0,0,0,0,0,0,0,0,0,0-.1-.1-.3-.2-.4-.3,0,0,0,0,0,0,0,0,0,0,0,0,0,0,.1,0,.2,0l.4-.6s0,0,0-.1h0ZM21.2,12.4s0,0,0,0c0,0,0,0,0,0,0,0,0,0,0,0,.1,0,.2-.1.4-.2,0,0,0,0,0,0l.2.4c0,.1.2.3.2.4,0,0,0,0,0,0,0,0,0,0,.1,0,0,0,0,0,0,0,0,0,0,0,0,0,0,0,0,0,0,0l-.5.3s0,0,0,0c0,0,0,0,0,0,0,0,0-.1,0-.2-.1-.2-.3-.4-.4-.7,0,0,0,0,0,0,0,0,0,0,0,0h0ZM17.1,16.5l.2-.4s0,0,0,0l.6.4c0,0,.1,0,.2.1,0,0,0,0,.1,0,0,0,0,0,0,0,0,0,0,0,0,0h0c0,0-.2.5-.2.5,0,0,0,0,0,0,0,0,0,0,0,0,0,0,0-.1,0-.1h0c0,0-.5-.4-.5-.4h0c0,0,0,0-.1,0,0,0,0,0,0,0Z"/>
      <path class="cls-1" d="M15.8,25.3c.2,0,.3,0,.5-.1h.5c0-.1.1-.2.1-.2,0,0,0,0,0,0,0,0,0,0,0,0,0,.2,0,.3.1.5,0,0,0,0,0,0,0,0,0,0,0,0,0,0-.1,0-.2,0,0,0-.2,0-.2,0-.2,0-.3,0-.5.1h0c0,0,0,0,0,.1h0c0,0,0,0,0,0,0,0,0,0,0,0,0-.1,0-.2,0-.3h0c0-.1,0-.1,0-.1ZM16.9,16.2c-.1,0-.2,0-.2-.2,0,0,0,0,0,0,0-.1,0-.2.2-.2.1,0,.2,0,.2.2,0,.1,0,.2-.2.2,0,0,0,0,0,0ZM21.1,12.1c-.1,0-.2,0-.2-.2,0,0,0,0,0,0,0-.1,0-.2.2-.2.1,0,.2,0,.2.2,0,0,0,0,0,0,0,.1,0,.2-.2.2,0,0,0,0,0,0ZM14.9,23.9c0-.1,0-.2.2-.2,0,0,0,0,0,0,.1,0,.2,0,.2.2,0,.1,0,.2-.2.2s-.2,0-.2-.2h0ZM15.4,25.4c.1,0,.2,0,.2.2,0,.1,0,.2-.2.2-.1,0-.2,0-.2-.2s0-.2.2-.2c0,0,0,0,0,0ZM15.4,24.7c0,.1,0,.2-.2.2,0,0,0,0,0,0-.1,0-.2,0-.2-.2,0,0,0,0,0,0,0-.1,0-.2.2-.2.1,0,.2,0,.2.2ZM34.7,12.8c-.1,0-.2,0-.2-.2,0,0,0,0,0,0,0-.1,0-.2.2-.2.1,0,.2,0,.2.2h0c0,.1,0,.2-.2.2ZM17.7,27.6s0,0,0,0l-.5.3s0,0,0,0c0,0,0-.2,0-.3,0,0,0-.2,0-.2.1,0,.2-.2.4-.2,0,0,.1,0,.2,0,0,0,0,0,.1.2,0,0,0,0,0,.1ZM16.9,28c-.2,0-.3.2-.5.2,0,0,0,0-.1,0,0,0,0,0,0-.1,0,0,0-.1,0-.2.1-.1.2-.2.4-.2,0,0,.1,0,.2,0,0,0,0,.1.1.2,0,0,0,0,0,0ZM18.1,28l-.4-.7c0,0,0-.1-.1-.2,0,0-.1-.1-.2-.2-.1,0-.2,0-.3,0-.2,0-.3.3-.2.5,0,0,0,0,0,.1,0,0,0,0,0,0,0,0-.1,0-.2-.1,0,0-.1,0-.2,0-.2,0-.3.2-.3.4,0,.1,0,.2.1.4.1.2.2.5.3.7h0s0,0,0,0c0,0,0,0,0,0,0,0,0,0,0,0,0,0,0-.1,0-.2,0,0,0,0,0,0l1.1-.5s0,0,0,0c0,0,.1,0,.2,0,0,0,0,0,0,0,0,0,0,0,0,0,0,0,0,0,0,0h0ZM38.4,27.1c0,0,0,0-.2,0-.2,0-.3,0-.4-.2,0,0,0,0,0-.2,0,0,0,0,.1,0,0,0,0,0,0,0,.1,0,.3,0,.4.2,0,0,0,.1,0,.2ZM37.3,26.4l-.2.4s0,0,0,0c0,0,0,0-.1,0,0,0,0,0,0,0,0,0,0,0,0,0,0-.2,0-.3.2-.5,0,0,0,0,0,0,.1,0,.2,0,.2,0,0,0,0,0,0,0ZM38.5,26.8c0-.2-.2-.3-.4-.3,0,0,0,0-.1,0,0,0-.1,0-.1,0,0,0,0,0,0,0,0,0,0,0,0,0,0,0,0-.2,0-.2,0-.1-.2-.2-.3,0h0s0,0,0,0h0c0-.1,0-.2-.1-.2,0,0-.1,0-.2,0,0,0,0,0,0,0-.1.2-.2.3-.2.5,0,.1,0,.3,0,.4,0,0,0,0,0,0,0,0,0,0,0,0,.2,0,.3,0,.4,0,0,0,0-.1,0-.2,0,0,0-.2.1-.3,0,0,0,0,0,0,0,0,0,0,0,0,0,0,0,0,0,.1,0,0,0,.2,0,.3,0,.1,0,.3.1.3,0,0,.2,0,.3,0,0,0,0,0,0,0h0q0,.2,0,.2s0,0,0,0h0c0-.2.1-.3.2-.4.1-.1.1-.3.1-.5ZM17.1,21.6s0,0,0,.1c0,0-.1,0-.2,0,0,0,0,0,0-.1v-.3s0,0,0-.1c0,0,0,0,.1,0,0,0,.1,0,.1,0,0,0,0,.2,0,.2,0,0,0,.2,0,.3ZM16.1,21.4s0,0-.1,0c-.1,0-.2,0-.3,0,0,0-.1,0-.1-.1,0,0,0-.1.1-.2,0,0,.2,0,.3,0,0,0,.1,0,.2,0,0,0,0,0,0,.1,0,0,0,.1-.1.1h0ZM17.2,21.1c0,0,0-.2,0-.2,0-.1-.2-.1-.3-.1-.1,0-.2,0-.2.2,0,0,0,0,0,0,0,0,0,.2,0,.3,0,0,0,.1,0,.2,0,0,0,0,0,0,0,0,0,0-.1,0,0,0,0,0,0-.1,0-.1,0-.2,0-.3,0-.2-.2-.3-.4-.3,0,0-.1,0-.2,0,0,0,0,0,0-.1,0,0,0,0,0-.1,0,0,0,0,0,0s0,0,0,0c0,.1,0,.2,0,.3,0,0,0,.2,0,.2,0,0,0,.2,0,.3,0,.2.2.2.4.2,0,0,.2,0,.2-.2,0,0,0,0,0,0h0c0,.1,0,.2,0,.2,0,.1.3.1.3,0,0,0,0,0,0,0,0,0,0,0,0,0,0,0,0,.1.1.1,0,0,.1,0,.2,0,0,0,0-.1,0-.2,0-.2,0-.4,0-.6ZM35.6,15.2s-.1,0-.2,0c0,0-.1-.1,0-.2,0,0,.2-.1.3-.1,0,0,.1,0,.2,0,0,0-.2.2-.3.2h0ZM36.3,14.7c0-.2-.2-.3-.3-.4,0,0-.1,0-.2,0,0,0-.2,0-.2,0,0,0,0,.2,0,.3,0,0,.1,0,.2,0,0,0,0,0,.1-.1,0,0,0,0,0,0,0,0,0,0,0,0,0,0,0,0,.1.1,0,0,0,.2,0,.2,0,0,0,0-.1.1t-.1,0c-.1,0-.3-.1-.4-.2,0,0-.1,0-.2,0-.2,0-.3.1-.3.3,0,0,0,.1,0,.2,0,0,0,.1.1.1,0,0,.2,0,.3,0,0,0,0,0,0,0,0,0,0,.2,0,.2,0,0,.2.1.3.1,0,0,0,0,0,0,0,0,0,0,0,0,0,0,0,0,0,0,0,0,0,0,0,0l.2-.2c0,0,.2-.1.2-.2,0,0,.1-.2,0-.3ZM39.2,23.7c0,0,0,.1-.1.1,0,0-.1,0-.2,0-.2,0-.3,0-.5,0,0,0,0,0-.1,0,0,0,0,0,0-.1,0,0,0-.1,0-.2,0,0,0,0,.1,0,.2,0,.4,0,.7,0,0,0,0,0,.1,0,0,0,0,0,0,.2h0ZM39.1,23.2c-.2-.2-.5-.2-.7,0-.3.2-.4.5-.2.8,0,0,0,.1.1.2.1,0,.3.1.4.1,0,0,0,0,.1,0,.2,0,.4-.2.4-.4,0-.2,0-.4-.2-.6h0ZM25.5,11.8c0,0,0,.1-.1.1,0,0-.1,0-.2,0,0,0,0,0,0,0,0-.2-.1-.5-.1-.7,0,0,0,0,0-.1,0,0,.1-.1.2,0,0,0,0,0,0,0,0,0,0,0,0,.1,0,.2.1.5.1.6,0,0,0,0,0,0ZM25.7,11c-.1-.2-.3-.2-.5-.2-.2,0-.4.2-.4.4,0,.2,0,.5.1.6.1.1.3.2.4.2.2,0,.5-.2.5-.4,0-.2,0-.5-.1-.7h0ZM38.7,25.9h0c-.2,0-.5,0-.7-.2,0,0,0,0,0,0,0,0,0-.2,0-.2,0,0,0,0,0,0,0,0,0,0,.1,0,.2,0,.4,0,.7.2,0,0,0,0,0,0,0,0,0,.1,0,.2s0,.1-.2.1ZM38.8,25.3c-.1-.1-.3-.2-.5-.2,0,0,0,0-.1,0-.4,0-.6.6-.3.9.2.2.4.3.7.2.3,0,.5-.4.4-.7,0,0,0-.2-.1-.3h0ZM16.5,26.5c0,0-.2,0-.3,0,0,0-.1,0-.1-.1,0,0,0-.1,0-.2,0,0,.2,0,.3-.1v.3c.1,0,.1,0,0,0ZM17.2,26c0-.2-.2-.3-.5-.4q0,0,0,0s0,0,.1,0c.1,0,.2.3,0,.4,0,0-.1.1-.2.2,0,0,0,0,0,0l-.2-.5s0,0,0,0c0,0-.2,0-.2.1,0,0,0,0-.1.1-.2.3,0,.7.4.7.2,0,.4,0,.6-.2.2-.1.2-.4.2-.6ZM38.4,18.4c0,0-.1,0-.2.1,0,0,0,0,0,0v-.3c-.1,0-.1,0,0,0,0,0,.2,0,.3,0,0,0,.1,0,.2,0,0,0,0,.1,0,.2ZM38,17.8c-.2,0-.3,0-.5.2-.1,0-.2.2-.2.3,0,.3.1.6.4.6,0,0,0,0,0,0,0,0,0,0,0,0,0,0,0,0,0,0,0,0,0,0-.1,0-.1,0-.2-.3,0-.4,0,0,.2-.2.3-.2l.2.6c0,0,.2,0,.2-.1,0,0,.1-.1.2-.2,0-.3-.2-.6-.5-.6ZM18.8,14.5c0,0,0-.1,0-.2,0,0,.1,0,.2,0,0,0,.2.1.2.2,0,0,0,0,0,0l-.2.2c0,0-.1-.2-.2-.2ZM19.8,14.6s0,0,0,0c0,0,0,0,0,0,0,0,0,0,0,0,0,0,0,0,0,.1,0,.1-.2.2-.3.2-.1,0-.2,0-.3-.2l.5-.5c0,0-.1-.1-.2-.2-.2,0-.4,0-.5,0-.2.2-.2.4,0,.6,0,.2.2.3.4.4.3.1.6,0,.7-.3,0,0,0,0,0,0,0-.1,0-.2,0-.3ZM31.6,11.8s0,0,0,0h-.3c0-.1,0-.1,0-.1,0,0,0-.2.1-.3,0,0,.1,0,.2,0,0,0,0,0,0,.1,0,0,0,.2,0,.3h0ZM31.6,11.3c-.2,0-.5,0-.6.2,0,.1-.1.3-.2.4,0,.2.1.5.3.6.2,0,.4,0,.5-.1,0,0,0,0,0,0,0,0,0,0,0,0,0,0,0,0-.1,0-.2,0-.3,0-.4-.2,0-.1,0-.2,0-.4,0,0,.1,0,.2,0l.4.2s0,0,0,0c0,0,0-.1,0-.2,0-.2,0-.4-.3-.5ZM22.8,17.3s0,0,0,0c0,0,0,0,0,0,0,0,0,0,0,0,0,0,0,0,0,0ZM31.6,16.7s0,0,0,0c0,0,0,0,0,0,0,0,0,0,0,0,0,0,0,0,0,0h0ZM23.1,15.6s0,0,0,0c0,0,0,0,0,0h0ZM24.1,32.5c.1,0,.2,0,.4,0,0,0,0,0,0-.2,0,0,0,0,0-.1,0,0-.1,0-.2,0,0,0,0,0,0,0,0,0,0,0,0,.1,0,0,0,0,0,.1,0,0,0,0,0,0,0,0,0,0,0,0,0,0,0,0,0,0,0,0,0,0,0,0h0ZM33.9,31.5c0,0,0-.1-.1-.2,0,0,0,0-.1,0,0,0-.1,0-.2,0-.1,0-.3,0-.4.1,0,0,0,0,0,0,0,0,.1-.1.2-.1,0,0,.2-.1.3-.2,0,0,0,0,0,0,0,0,0-.2,0-.3,0,0,0,0,0,0,0,0,0,0-.1,0,0,0,0,0,0,.1,0,0,0,.1,0,.2,0,0,0,0,0,0,0,0,0,0,0,0,0,0,0,0,0-.1,0,0,0-.1-.1-.1h0c0,0-.1,0-.1.1,0,0,0,.1,0,.2,0,0,0,0,0,0,0,0,0,0,0,0,0,0,0,0,0,0,0,0,0,0,0,0,0,0,0,0-.1.1,0,0,0,.2,0,.3,0,0,0,0,0,.1,0,0,0,0,.1,0,0,0,0,0,0,0,0,0,0-.2,0-.2,0,0,0,0,0,0,0,0,0,0,0,0,0,0,0,0,0,.1,0,0,0,0,0,0,0,0,0,0,0,.1,0,0-.1,0-.2.1,0,0-.1,0-.2.1,0,0,0,0,0,.1,0,0,.1,0,.2,0,0,0,0,0,.1,0,0,0,.2-.1.3-.2,0,0,.1,0,.2,0,0,0,0,0,0,0,0,0,0,0,0,0,0,0-.1.2-.3.2,0,0-.2,0-.2,0,0,0-.1,0-.2,0,0,0,0,0,0,0,0,0,0,.1.1,0,0,0,0,0,0,0,0,0,0,0,0,0,0,0,0,0,0,0,0,0,0,0,0,0,0,0,0,0,0,.1,0,0,0,0,0,0,0,0,0,0,0,.1-.1,0-.2,0-.3.1,0,0-.2,0-.3,0,0,0,0,0,0,0,0,0,0,0,0,0,0,0,0,0,0,0,0,0,.1,0,.2,0,.1,0,.3,0,.4-.1,0,0,0,0,0,0,0,0,0,.2,0,.3,0,0,0,0,0,0,0,0-.1,0-.2,0,0,0-.1,0-.2,0,0,0,0,0,0,0,0,0,0,0,0,0,0,0,.1,0,.2.1,0,0,0,0,.1,0,0,0,0,0,0,0,0,0,0,0,0,0,0,0,.1-.2.2-.3,0,0,0-.2,0-.3,0,0,0,0,0,0,0,0,.2,0,.3,0,0,0,0,0,0,0,0,0,0-.1,0-.1,0,0-.1,0-.2,0,0,0,0,0-.1,0,0,0,0,0-.1,0,0,0,0,0,0,0,0,0,0,0,0,0,0,0,0,0,0,0,0,0,0,0,.1-.1,0,0,0,0,0-.2,0,0,0,0,0,0,0,0,.1,0,.2,0,0,0,.1,0,.1,0,0,0,0,0,0-.1h0ZM22.2,32.4s0,0-.1,0c0,0-.1,0-.2,0,0,0,0,0,0,0,0,0,0-.1,0-.2,0,0,0,0,0,0,0,0,0,0,0,0,.1,0,.1,0,.1-.2,0,0,0,0,0,0,0,0,0,0,0,0,0,0,0,0,0-.1,0,0,0,0,0,0,0,0,0,0,0,0,0,0,0,0,0,0,0,0,0-.1,0-.2,0,0,0-.1,0-.2,0,0,0,0,0,0,0,0,0-.1,0-.2,0,0,0,0-.1,0,0,0-.1,0-.2,0,0,0,0,0,0,0,0,0,0,0,0,0,0,0,0,0,0,0,0,0,0,0,.1,0,0,0,0,0,0,.1,0,0,0,.1,0,.2,0,0,0,0,0,0,0,0,0,0,0,.1,0,0,0,0,0,.1,0,0,0,0,0,0,0,0,0,.1-.2.2,0,0,0,0,0,0,0,0,0-.1,0-.2,0,0,0-.1,0-.2,0,0,0-.2,0-.3,0,0,0,0,0,0,0,0,0,0,0,0,0,0,0-.1-.1-.1,0,0,0,0,0,0,0,0,0,0-.1,0,0,0,0,0,0,0,0,0,0,0-.1.1,0,0,0,0,0,0,0,0,0,0,0,0,0,0,0,0,0,0,0,0,0,0,0,.1,0,0,0,0,0,0,0,0,0,0,0,0,0,0-.2,0-.3,0,0,0-.1,0,0,.1,0,0,0,0,0,.1,0,0,0,0,.1,0,0,0,.1,0,.2,0,0,0,0,.1,0,.2,0,0,0,.1,0,.2,0,0-.1.1-.2.2,0,0-.2,0-.1.2,0,0,0,0,0,0,0,0,0,0,.1,0,0,0,0,0,0,0,0,0,0,0,0,0,.1,0,.2-.2.3-.3,0,0,0,0,.1,0,0,0,0,0,.1,0,0,0,.1-.1.2-.2,0,0,0,0,0,0,0,0,0,.1,0,.2,0,0,.1.1.2.1,0,0,.1,0,.2,0,0,0,0,0-.1.1,0,0-.1.1-.2.2,0,0,0,0,0,0,0,0,0,0,0,0,0,0,0,0,0,0,.1,0,.2-.1.3-.2,0,0,.1,0,.2-.1,0,0,0,0,0-.1,0,0,0-.1,0-.2,0,0,0,0,0,0ZM23.8,33.2s0,0-.1,0c0,0,0,0,0,0,0,0,0,0,0,0,0,0,0,0,.1,0,0,0,0,0,0,0ZM23.5,33.8s0,0,0,0c0,0,0,0,0,0,0,0,0,0,0,0,0,0,0,0,0,0,0,0,0,0,0,0ZM23.2,33.7s0,0,0,0c0,0,0,0,0,0s0,0,0,0c0,0,0,0,0,0h0ZM24.6,32.8c0,0-.1,0-.2,0,0,0-.1,0-.2,0,0,0-.2,0-.3-.1-.1,0-.3,0-.4-.1,0,0-.1,0-.2,0,0,0-.1,0-.2,0,0,0,0,0,0,0,0,0,0,0,0,.1,0,.1,0,.2.2.2.1,0,.3,0,.4,0,0,0,.1,0,.2,0h0s0,0-.1,0c0,0-.1,0-.2,0,0,0,0,0-.1,0,0,0-.2.2-.2.3,0,0,0,0,0,.1,0,0,0,0,.1,0,0,0,0,0,0,.1,0,0,0,0,0,0,0,0,0,0,0,0,0,0-.1,0-.2,0,0,0,0,0,0,0,0,0,0,0-.1-.1,0,0,0,0,0,0,0,0-.2,0-.2.1,0,0,0,0,0,.1,0,0,0,0,.1.1,0,0,.1,0,.2,0,0,0,0,0,0,0,0,0,0,0,0,.1,0,.1,0,.2.2.1,0,0,0,0,0,0,0,0,.2,0,.2.1,0,0,0,0,0,0,0,0,.1,0,.1,0,0,0,0-.1,0-.2,0,0,0-.1,0-.2,0,0,0,0-.1-.1,0,0,0,0,0,0,0,0,0,0,0,0,0,0,.1,0,.2,0,0,0,.1,0,.2,0,0,0,0,0,0-.1,0,0,0,0,0-.1,0,0,0,0,0-.1,0,0-.1-.1-.3-.2,0,0,0,0,0,0,0,0,0,0,.1,0,.2,0,.3,0,.4.1,0,0,0,0,.1,0,0,0,.1,0,.2,0,0,0,0,0,0,0,0,0,0-.1,0-.2,0,0,0-.2-.2-.2h0ZM32.1,33.3s0,0,0,0c0,0-.2,0-.3,0-.1,0-.2,0-.3,0,0,0-.2,0-.3,0-.1,0-.3-.1-.4-.2,0,0,0-.1,0-.2,0,0,0,0,.2-.1,0,0,0,0,.1-.2,0,0,0-.1,0-.2,0,0,0,0-.1,0,0,0,0,0-.1,0,0,0,0,0-.1.1,0,0,0-.2,0-.3,0,0,0-.1-.1-.1,0,0-.1,0-.2,0,0,0,0,0-.1,0,0,0,0,0,0,.1,0,0,0,0,0,.1,0,0,0,0,0,0,0,0,0,0,0,0,0,0,0,0,0,0,0,0,0,.1,0,.2,0,0,0,.2,0,.3,0,0,0,.1,0,.1,0,0,0,0-.1.1,0,0,0,0-.1,0,0,0,0,0,0,0,0,0,0,0,0,0,0,0,.2,0,.2,0,0,0,0,0,.1,0,0,0,0,0,.1-.1,0,0,0,0,0,0,0,0,0,0,0,0,0,.2,0,.4,0,.5,0,.1,0,.2,0,.3,0,0,0,.1,0,.2,0,0,0,0,0,0,0,0,0,0,0,0,0,0,0,0,0,0,0,0,.1-.2.2-.2,0,0,0,0,0-.1,0,0,0-.1,0-.2,0-.1,0-.3,0-.4,0,0,0,0,0,0,0,0,0,0,.1,0,.1,0,.2,0,.3.1.1,0,.2,0,.3.2,0,0,0,0,.1,0,0,0,0,0,0,0,.1,0,.2-.2.3-.2,0,0,0,0,0,0,0,0,0,0,0,0h0ZM27,34.3c0,0,0-.2,0-.2,0,0,0,0,0,0,0,0,0,0,0,0,0,.1,0,.2,0,.3,0,0,0,0,0,0,0,0-.1.1-.2.1,0,0,0,0,0,0,0,0,0,0,0,0,0,0,0,0-.1,0,0,0,0,0,0,0,0,0,0,0,0,0,0,0,0-.1,0-.2,0,0,0-.1,0-.2,0,0,0-.1,0-.2,0,0,.1-.1.2-.1,0,0,0,0,0,0,0,0,0,0,0-.1,0,0,0,0-.1,0,0,0,0,0,0,0,0,0,0,0,0,0,0,0,0,0,0,0,0,0,0,0,0-.1,0,0,0-.1,0-.2,0,0,0,0,0,0,0,0-.1,0-.1.1,0,.1,0,.2,0,.3,0,0,0,.1,0,.2,0,0,0,0,0,0,0,0-.1,0-.2.2,0,0,0,0,0,0,0,0,.1,0,.2,0,0,0,0,0,0,0,0,0,0,0,0,0s0,0,0,0h0c0,.1,0,.3,0,.4,0,0,0,.2.2.2.1,0,.2,0,.3,0,0,0,.2,0,.3,0,0,0,0,0,0,0,0,0,.2,0,.2-.2,0,0,0,0,0-.1,0,0,0-.1,0-.2h0ZM29.1,34c0,0-.2,0-.3,0,0,0,0,0,0,0,0,0,0,0,0,0,0,0,0-.1,0-.2,0,0,0,0,0-.1,0,0,0-.1,0-.1,0,0-.1,0-.2-.1,0,0,0,0-.1,0,0,0-.1,0-.2,0,0,0,0,0-.1,0,0,0-.1,0-.2,0,0,0,0,0,0,0,0,0,0,0,0,0h0c0,.2,0,.2.1.2,0,0,.1,0,.2,0,0,0,0,0,0,0,0,0,0,0,0,0,0,0,0,0,0,0,0,0,0,.1,0,.2-.1,0-.3.1-.5.1h0c-.1,0-.1,0,0,.1,0,.1.1.2.2.2,0,0,.1,0,.2,0,.1,0,.3-.2.5-.2,0,0,.2,0,.3,0,0,0,0,0,.1,0,0,0,0,0,0,0,0,0,0-.1,0-.2,0,0,0,0-.1,0h0Z"/>
      <path class="cls-1" d="M32.4,32.3s0,0,0-.1c0,0,0-.1,0-.2,0,0,0-.2,0-.3,0,0,0,0,0,0,0,0-.1,0-.2,0,0,0,0,0-.1.1,0,0,0,0,0,0,0,0,0,.1,0,.2,0,.1,0,.2.2.3,0,0,0,0,0,0h0ZM25.7,33.9h0s0,0,0,0c0,0,0,0,0,0,0,0,0,0,0,0,0,0,0,0,0,0h0ZM26.1,33.2c0,0-.2,0-.2,0,0,0-.1,0-.1.1,0,0,0,0,0,0,0,0,0,0,0,.1,0,0,0,0,0,.1,0,0,0,0,0,.1,0,0,0,.1,0,.2,0,0,0,0,0,0,0,0,0,.1,0,.2,0,0,0,0,0,.1,0,0,0,0,0,0,0,0,0,0,0,0,0,0,.1-.1.2-.2,0,0,0,0,0,0,0,0,0,0,0,.1,0,0,0,.1,0,.2,0,0,0,.1,0,.2,0,0,0,.2,0,.2,0,.1,0,.2.2.2,0,0,0,0,.1,0,0,0,0,0,0,0,0,0,0,0,0-.1,0,0,0-.2,0-.3,0,0,0,0,0,0,0,0,0,0,0,0,0,0,0,0,0,0,0,0,0,0,0,0,0,0,0,0,0,0,0,0,0,0,0,0,0,0,0-.1,0-.2,0,0,0,0,0,0,0,0,0,0,0,0,0,0,0,0,0,0,0,0,0,0,0-.1,0,0,0-.1.2-.2,0,0,0-.1.1-.2,0,0,0,0,0-.1h0ZM27.3,28.3c0,0,.2,0,.3,0,0,0,.2,0,.2,0,.2.1.2.4,0,.5,0,0-.2.1-.3.1-.1,0-.2,0-.4,0,0,0,0,0,0,0,0,0,0-.1,0-.2,0,0,0,0,.1,0,0,0,.1,0,.2,0,0,0,0,0,.1,0,0,0,0,0,.1,0,.1,0,.1-.2,0-.3,0,0-.1,0-.2,0,0,0-.2,0-.3,0h-.1s0,0,0,0l.2-.5s0,0,0,0h.6c0,0,0,.1,0,.2,0,0,0,0,0,0h-.4q0,0-.1,0s0,0,0,0ZM25.6,28.5c0,.1,0,.3,0,.4,0,0,0,0,0,0,0,0,0,0,0,0,0,0,0,0,.1,0,0,0,0,0,0,0s0,0,0,0c0,0,0,0,0,0-.2,0-.4,0-.7,0,0,0,0,0,0,0,0,0,0,0,0,0,.2,0,.2,0,.2-.2v-.6c0,0,0-.1-.1-.1,0,0,0,0-.1,0,0,0,0,0,0,0,0,0,0,0,0,0h0s.4-.2.4-.2h0s0,0,0,0c0,0,0,.5,0,.5ZM28.7,29c0,0-.2,0-.2,0,0,0,0-.3,0-.4,0,0,0,0,0,0,0,0,.1,0,.2,0,0,0,0,.1,0,.2,0,0,0,.1-.1.2h0ZM28.5,28.1c0,0,0,0,.1,0,.1,0,.2,0,.2.2,0,0,0,0,0,0,0,0,0,0-.1,0,0,0-.1,0-.1-.1,0,0,0,0,0-.1h0ZM29,28.5c0,0-.1,0-.2-.1,0,0,0,0,0,0,0,0,0,0,.1,0,0,0,0-.2,0-.3,0,0,0,0-.1,0-.1,0-.3,0-.4,0,0,0-.1,0-.2,0,0,0,0,.2,0,.3,0,0,0,0,0,0,0,0,0,0,.1,0,0,0-.1,0-.2,0,0,0-.1,0-.1.2,0,0,0,.2.1.2.1,0,.3,0,.4,0,0,0,.2,0,.3,0,0,0,.1-.2.1-.3,0,0,0-.2-.1-.2ZM26.6,28.5s0,0,0,0c0,0-.2,0-.2,0,0-.1,0-.2,0-.4,0,0,0-.1.1-.1,0,0,.1,0,.1,0,0,0,0,.2,0,.3,0,0,0,0,0,.2h0ZM27,28.4c0-.1,0-.3-.2-.3,0,0-.2,0-.2,0-.1,0-.3,0-.4.1-.2.1-.2.5,0,.6,0,0,.2,0,.3,0,0,0,0,0,0,0,0,.1-.1.2-.2.3,0,0-.2,0-.3.1h0s0,0,0,0c0,0,0,0,0,0,0,0,0,0,.1,0,.2,0,.4-.1.6-.2.1-.1.2-.3.2-.5ZM24.4,21.2s0,0,0,0,0,0,0,0c0,0,0,0,0,0,0,0,0,0,0,0,0,0,0,0,0,0h.1s0,0,0,0c0,0,0,0,0,0h0ZM24.4,21.4c0,0-.1,0-.2,0,0,0,0,0,0,0s0,0,0,0h.2s0,0,0,0c0,0,0,0,0,0ZM24.8,21.2c0,0,.1,0,.2,0,0,0,0,0,0,0,0,0,0,0,0,0,0,0,0,0-.1,0,0,0,0,0,0,0,0,0,0,0,0,0,0,0,0,0,0,0,0,0-.1,0-.2,0,0,0,0,0,0,0,0,0,0,0,0,0,0,0,0,0,0,0,0,0,0,0,0,0,0,0,0,0,0,0,0,0,0,0,0,0ZM23.9,20.9h.4s0,0,0,0c0,0,0,0,0,0,0,0,0,0,0,0,0,0,0,0-.1,0-.1,0-.2,0-.3,0,0,0,0,0,0,0,0,.1,0,.2,0,.3,0,0,0,.2,0,.2,0,0,0,0,0,0,0,0,0,0,.1,0,0,0,0,0,.1-.1,0,0,0,0,0,0h.1q0,0,0,0s0,0,0,0c0,0,.1,0,.2,0,0,0,0,0,0,0,0,0,0,0,0,0h.2s0,0,0,0c0,0,.1,0,.2,0,0,0,0,0,0,0s0,0,0,0c0-.2,0-.3,0-.5,0,0,0,0,0,0,0,0-.1,0-.2,0-.1,0-.2,0-.3,0,0,0,0,0,0,0,0,0,0,0,0,0h.3s.2,0,.2,0c0,0,0,0,0,0,0,0,.1,0,.1-.1,0,0,0,0,0,0,0,0,0,0-.1,0,0,0,0,0-.1,0,0,0,0,0-.1,0,0,0-.1,0-.1,0,0,0,0,0-.1,0h0s0,0,0,0c0,0,0,0-.1-.1,0,0-.1,0-.2,0,0,0,0,0,0,0,0,0,0,0,0,0,0,0,0,0,0,0h-.4s0,0,0,0c0,0-.1,0,0,.1,0,0,0,0,.1,0ZM24.2,24.1c0,0,.2,0,.2,0,0,.1-.1.1-.2,0ZM24.8,24.2h.2c0-.1,0-.2,0-.2,0,0,0-.1,0-.1,0,0,0,0,0,0,0,0-.1,0-.2,0h-.9s0,0-.1,0c0,0,0,.1,0,.2,0,0,0,0,.1,0h.2s0,0,0,0c0,0,0,0,0,0,0,0,0,0,0,0,0,0,0,0,0,0h-.6s0,0,0,0c0,0,0,0,0,.1,0,0,0,0,0,.1,0,0,0,0,0,0h.9s0,0,0,0c0,0,0,0,0,0,0,0,0,0,0,0,0,0,0,.1,0,.1,0,0,0,0-.1,0-.1,0-.1,0-.2,0,0,0,0,0,0,0,0,0,0,0,0,.1,0,0,0,0,.1,0,.1,0,.3,0,.4,0,.1,0,.2-.2.2-.3h0c0-.1,0-.1,0-.2,0,0,.1,0,.2,0,0,0,0,0,0,0,0,0,0,0,0,0,0,0,0,0,0,0h0Z"/>
      <path class="cls-1" d="M25.5,21.8s0,0-.1,0h-.2s-.1,0-.1,0c0,0,0,0,0,0,0,0-.1,0-.2,0,0,0,0,0,0,0,0,0,0,0,0,0h-1s0,0-.1,0c0,0,0,0,0,.1,0,0,0,0,0,0,0,0,0,0,.1,0h.9s0,0,0,0c0,0,0,0,0,0,0,.1,0,.1-.1.1,0,0,0,0,0,0,0,0,0,0,0,.2,0,0,0,0,.1,0,.1,0,.2,0,.3,0,0,0,.1,0,.1-.1,0,0,0-.1,0-.2,0,0,0,0,0-.1s0,0,0,0c0,0,.1,0,.2,0,0,0,0,0,0,0,0,0,0,0,0,0,0,0,0,0,0-.1h0ZM23.8,23.6s0,0,0,0c.1,0,.2,0,.3,0,.3,0,.6,0,.9,0,0,0,0,0,0,0,0,0,0,0,0,0h0c0,.1,0,.2.1.2,0,0,0,0,0,0,.1,0,.1,0,.1-.2,0,0,0-.1,0-.2,0,0,0,0,0,0-.1,0-.2,0-.3,0,0,0,0,0,0,0,0,0,0,0,0,0,0,0,.1-.2.2-.3,0,0,0-.1,0-.2,0,0,0,0,0,0-.2,0-.2,0-.3.1,0,0,0,.1-.1.2,0,0,0,0,0,0,0,0,0,0,0,.1,0,0,0,0,0,0,0,0,0,0,0,0-.1,0-.2,0-.3,0-.1,0-.3,0-.4,0,0,0-.1,0-.2,0h0ZM23.2,21.2c0,0,.1,0,.1,0,0,0,0,0,0,0,0,0,0,0,0,.1,0,0,0,0,0,0,0,0,0,0,0,0,0,0,0,0,0-.1,0,0,0,0,.1,0,0,0,0,0,.1,0,0,0,0,0,0-.1,0,0,0,0,0,0,0,0,0,0,0,0,0,0,0,0,0,0,0,0,0-.1,0-.2h0c0-.2,0-.3-.2-.3,0,0,0,0,0,0,0,0-.1,0-.1.1v.2c0,0,0,0,0,0,0,0,0,0,0,0,0,0,0,0,0,.1,0,0,0,0,0,0,0,0,0,0,0,0ZM23.4,22.5s0,0,.1,0c0,0,.1,0,.1-.1,0,0,0-.1,0-.2,0-.1,0-.3,0-.4,0,0,0-.2,0-.2,0,0,0,0,0,0,0,0,0,.1,0,.2,0,.2,0,.4,0,.5,0,0,0,0,0,0,0,0,0,0,0,0ZM23.1,23.9c0,0,0,0,0,0,0,0,0,0,0,0,.1,0,.1,0,.1-.2h0c0,0,0-.1,0-.2,0,0,0,0,0,0,0,0,0,0,0,0,0,0,0,0,0,0,0,0,0,0,0,0-.1,0-.3,0-.4,0,0,0,0,0,0,0,0,0,0,.1,0,.2,0,0,0,0,0,0Z"/>
      <path class="cls-1" d="M24.1,23.1c0,0,0,.2.1.2,0,0,0,0,.1,0,0,0,.1,0,.1,0,0,0,0,0,0,0,0-.1,0-.2-.2-.3,0,0-.2,0-.3,0,0,0,0,0,0,.2ZM23.7,23c0,0-.1,0-.2,0,0,0-.1.1,0,.2,0,0,.1.1.2.2,0,0,0,0,.1,0,0,0,.1,0,.1,0,0,0,0,0,0-.1,0,0-.1-.1-.2-.2ZM25.5,24.2s0,0-.1,0c0,0-.1,0-.2,0,0,0-.2,0-.2,0,0,0,0,0,0,0,0,0,.2,0,.3,0,0,0,.2,0,.3,0,0,0,0,0,0,0,0,0,0,0,0-.1ZM24.3,22.4c0,0,.2,0,.2-.1,0,0,0,0,0,0,0,0-.1-.2-.2-.2,0,0,0,0-.1,0,0,0,0,0,0,.1,0,0,0,.1.1.2,0,0,0,0,0,0h0ZM30.5,23.7s0,0,0,0c0,0,0,0,0,0s0,0,0,0c0,0,0,0,0,0,0,0,0,0,0-.1ZM30.1,23.8c0,0,0,0,0,0,0,0,0,0,0,0,0,0,0,0,0,0,0,0,0,0,0,0ZM30.9,23.7c0,0,0,0,0,0s0,0,0,0,0,0,0,0,0,0,0,0ZM31.1,24c0,0,.1,0,.2,0,0,0,0,0,0,0,0-.1,0-.2,0-.3,0,0,0,0,0-.1h0c-.1,0-.2,0-.3,0,0,0,0,0-.1,0,0,0,0,0,0,0,0,0,0,0,0,0,0,0,0,0,.1,0,.1,0,.3,0,.4,0,0,0,0,0,0,0,0,0,0-.1,0-.1,0,0,0,0,0,0h-.5q0,0,0,0c0,0,0-.1,0-.1,0,0,0,0-.1,0,0,0-.1,0-.1.1,0,0,0,0,0,0h-.4s0,0-.1,0c0,0,0,0,0,0,0,0,0,.1.1.1,0,0,.1,0,.2,0,0,0,.2,0,.2,0,0,0,0,0,.1,0,0,0,0,0,0,0,0,0,0,0,0,0,0,0,0,0,0,0h-.2c0,0-.1,0-.2,0,0,0,0,0,0,0,0,.1,0,.2,0,.4,0,0,0,0,0,0,0,0,.1,0,.2,0h1.1ZM29,21.6s0,0,0,0h.6c0,0,.1,0,.1.1,0,0,0,0,0,0,0,0,0,0,0,0,0,0,0,0,0,0,0,0,0,0,.1-.1,0,0,.1,0,.2,0,.2,0,.3,0,.5,0h.5s0,0,.1,0c0,0,0,0,0,0,0,0,0,0,0-.1,0,0,0,0-.1,0h-1s0,0,0,0c0,0,0,0,0-.1,0,0,0,0,0-.1,0,0-.1,0-.2,0,0,0,0,0,0,0,0,0,0,0,0,.1q0,0,0,0h-.7s0,0,0,0c0,0,0,0,0,.1,0,0,0,.1,0,.1ZM29,21s0,0,0,0c0,0,0,.1.1.1,0,0,0,0,.1,0,0,0,.1,0,.1-.1,0,0,0,0,0,0,0,0,0,0,0,0h.7c.1,0,.2,0,.3,0,0,0,.1,0,.2,0,0,0,0,0,0,0,0,0,0,0,0,0,0,0,0,0-.1,0,0,0-.2,0-.2-.2,0,0,0,0-.1,0,0,0-.1,0-.1,0,0,0,0,0,0,0,0,0,0,0-.1,0h0c-.2,0-.4,0-.6,0,0,0-.2,0-.2,0,0,0,0,0,0,0,0,0,0,.1,0,.2ZM30.8,24.6s0,0-.1,0c0,0,0,0,0,0,0,0-.2,0-.2,0,0,0,0,0,0-.1,0,0,0,0,0-.1,0,0,0-.1-.1-.1,0,0-.2,0-.2,0h0c0,.1,0,.2,0,.3,0,0,0,.1.1.2.1,0,.2,0,.3,0,.1,0,.2,0,.3,0,.1,0,.2,0,.2-.2,0,0,0,0,0-.1,0,0-.1,0-.2,0Z"/>
      <path class="cls-1" d="M30.6,21.7c-.1,0-.2,0-.3,0,0,0,0,0,0,0-.1.2-.2.3-.4.4,0,0,0,0,0,0,0,0,0,.2,0,.2,0,0,0,0,0,0,0,0,.2,0,.3,0,0,0,.2,0,.2-.1h0s0,0,0,0c0,0,0,0,0,0,0,0,0,0,0,0,.1,0,.2-.2.3-.3,0,0,0,0,0,0,0,0,0-.1,0-.1ZM29.7,23.7s0,0,0-.1c0,0-.2,0-.2,0,0,0,0,0,0,0,0,0-.1.1-.2.2,0,0-.1,0-.2.1,0,0,0,0,0,0,0,.2.2.2.3.2,0,0,0,0,0,0,0,0,0,0,0,0,0,0,0,0,0,0,0,0,0,0,.1,0,0,0,0-.1,0-.2,0,0,0-.1.1-.2,0,0,0,0,.1-.1ZM30.8,22.2h0c0,0-.1,0-.2,0,0,0,0,0,0,0,0,0,0,0,0,0,0,0,0,0,0,0,.1,0,.2,0,.3,0,0,0,.1,0,.1,0,0,0,0,0,.1,0h0c.1,0,.2-.1,0-.2,0,0,0,0,0,0,0,0-.1-.2-.2-.2,0,0,0,0-.1,0,0,0-.1,0-.2,0,0,0-.1,0,0,.2h0c0,0,0,0,0,.1h0ZM29.7,22.1s0-.1,0-.2c0,0,0,0,0,0,0,0,0,0,0,0,0,0,0,0-.1,0-.1,0-.2.1-.3.2,0,0,0,0-.1,0-.1,0-.1,0-.1.1,0,0,0,0,0,0,0,0,0,0,.1,0,0,0,0,0,0,0,0,0,.1,0,.2,0,.1,0,.3-.2.4-.3ZM29.4,23s0,0,0,0c0,0-.2.2-.3.2,0,0,0,0,0,0,0,0,0,0,0,0,0,0,.1.2.2.2,0,0,.1,0,.2,0,.1,0,.2-.2.3-.2,0,0,0,0,0,0,0,0,0-.2,0-.2,0,0-.1,0-.1,0ZM31.3,24.3c0,0,0,0,0,0,0,0,0-.1,0-.1,0,0,0,0-.1,0-.3,0-.5,0-.8,0,0,0-.1,0-.2,0,0,0,0,0,0,0,0,0,.1,0,.2,0,.2,0,.5,0,.7,0,0,0,0,0,0,0ZM30.8,20.9h.1c0,0,.1.1.1.2,0,0,0,.1.1.1,0,0,0,0,0,0h0s0,0,0,0c0,0,.1,0,.1-.1h0c0,0,0-.2,0-.2,0,0,0,0,0,0-.2,0-.4,0-.6,0,0,0,0,0,0,0,0,0,0,0,0,0h0ZM29.4,24.3s0,0,0,0c0,0,0,0,0,.1,0,.1,0,.3,0,.4,0,0,0,0,0,.1,0,0,.1,0,.2,0,0,0,0,0,0-.1,0-.1,0-.2,0-.3,0,0,0-.1,0-.2h0ZM31.2,24.4s0,0-.1,0c0,0,0,0,0,0,0,0-.1.1,0,.2,0,0,.1.1.1.2,0,0,.1,0,.2,0,0,0,.1,0,0-.2,0,0-.1-.2-.2-.2ZM30.1,24.1c-.1,0-.2,0-.3,0h-.1s0,0,0,0c0,0,0,0,0,.1,0,0,0,0,0,0,0,0,0,0,0,0,.2,0,.3,0,.5,0,0,0,0,0,0,0,0,0,0,0,0,0,0,0,0,0-.1,0h0ZM29.8,24.4s0,0-.1,0c0,0,0,.1-.1.2,0,0,0,.1,0,.1,0,0,.2,0,.2,0,0,0,0,0,0-.1,0-.2,0-.2-.1-.2h0ZM30.5,24.3s0,0,0,0c0,0-.1.1,0,.2,0,0,0,0,0,0,0,0,.1,0,.2,0,0,0,0,0,0-.1,0,0-.2-.2-.2-.2ZM98.6,12.9c-.2,1.1-.8,1.9-1,2.9.2,0,.3-.2.6-.3.1,0,.3,0,.5,0,.2,0,.7-.3.9,0,.3.2.2.6.4,1,0,.3-.2.5-.2.8-.3.6-1.2.6-1.9.8-.2.2-.4.3-.6.4-.2.7.1,1,.4,1.5.2.4.7.8,1,1.2.2.3.4.6.6.8,0,.1.2.2.3.4.1.2.1.4.2.5.3.4.8.6,1,1,.4,0,.7.5,1,.7.5.4,1.3.5,1.6,1.2-.4.3-1.1.2-1.7.2-.3,0-.7,0-.9,0-.5,0-.8.1-1.2-.2-.4-.4-.8-1.2-1.1-1.8-.6-1-1.4-2.3-2.1-3.1-.5.8-.8,1.8-1.3,2.6,0,.6-.4,1-.7,1.3-.2.2-1.1.5-1.5.7-.3.1-.5.1-.9.3-.4.1-.7.5-1.1.4,0-.3.3-.5.4-.6.2-.2.4-.3.5-.6.6-.5,1-1.1,1.4-1.8.2,0,.2-.2.4-.2.6-1.2,1.5-2.2,1.9-3.7-.6-.2-.9.4-1.5.5-.8,0-1.1-1-1.5-1.7.6-.4,1.4-.4,2.1-.7.7-.3,1.4-.7,1.8-1.3,0-.5,0-1,0-1.5,0-.1,0-.3,0-.4,0-.2,0-.8,0-1,0-.3-.3-.5-.3-.8,0-.4.6-1,1.2-.9.5.1,1,1.1,1.3,1.5h0ZM52.9,12.8c.2.2.3.4.6.6,0,.5.4.8.5,1.2,0,.4,0,1-.1,1.5,0,.6-.2,1.2-.2,1.8.4.2.9-.7,1.3-.6.5.1.5,1.5.6,2.2-.3.4-.9.6-1.4.8-.2.6-.4,1.3-.4,2.2.8-.1,1.5-.4,2.3-.4.7.4.6,1.4,1,2-.3.7-1,.9-1.6,1.3-.3.2-.6.5-.9.7-.5.4-.9,1.1-1.6.7,0-.3.3-.5.5-.6.2-.2.4-.4.6-.6.4-.4.9-.7,1.1-1.3-.6-.4-1.2.4-1.9.3-.8-.2-.8-1.6-1.2-2.4-.6.4-1.3.7-1.5,1.6-.8.2-1.4.9-2,1.5-.4.5-1.1,1.4-1.6,1.2-.5-.2-.7-1.2-.9-1.9.2-.2.6-.4.9-.5.6-.3,1.8-1.1,1.9-2,.1-.6-.1-1.1,0-1.8-.3,0-.6.5-1,.5-.7,0-1.2-1.2-1-2.1.5-.3,1.2-.3,1.6-.6.3-.5.4-1.2.3-2.1,0-.2-.4-.1-.5-.3,0-.1,0-.3,0-.4,0-.2.7-.8,1-.8,1-.2,1.4.7,1.7,1.3-.1.8-.4,1.6-.4,2.6,0,.2,0,.4,0,.6,0,.4-.2,1.2,0,1.8.4-.3.8-.5,1.1-.9.4-.5.4-1.2.4-2.3,0-.7.1-1.4,0-1.9,0-.3-.4-.8-.6-1-.3-.3-.6-.3-.6-.6,0-.3.4-.6.7-.7.5-.3.7-.5,1.3-.5h0ZM63.1,24.8c.1,0,.3-.2.5-.2,0,.1,0,.4,0,.6-.2.2-.6.2-.9.3-.1,0,.2-.7.4-.8ZM63.1,20.3c.7,0,1-.3,1.5-.4-.4.7-.9,1.2-1.5,1.6,0-.5,0-.8,0-1.2ZM63.4,18.9c.6-1.3,2.1-1.9,3.6-2.2.5,0,1,0,1.3-.3.6-.4.5-1.7,0-2.1-.6-.5-1-.1-1.5.1-.4.2-.9.3-1.3.5-.5.2-.9.4-1.3.6-.4.2-.9.2-1.4.3-.3,0-.5.3-.8.4-.8.4-1.7.6-2.5.8-.2,0-.4.2-.6.3-.4.1-.6.1-.7.5.2.8.5,1.8,1.3,1.8.2,0,.6-.3,1-.5.5-.3.9-.6,1.3-1,.6-.5,1.4-.9,2.1-1-.8.3-1.3.8-1.8,1.4,0,.4-.5,1-.6,1.8,0,.4-.1,1.5,0,1.8,0,.1.6.5.9.5.2,0,.3-.1.5-.2.2,0,.4.2.6.4,0,.5.2.8,0,1.2,0,.2-.3.2-.4.3-.3.2-.5.6-.7.6-.4-.4-1-.5-1.5-.2-.8.7-.5,2.7.7,2.7.4-.5.6-1.2,1.1-1.7.4.3.6,1,.6,1.6.5.1.8-.3,1.1-.5.6-.5.7-1.4.6-2.4.3.1.8.1,1,.4,0,.6-.7.6-.8,1.1.3.3.6,0,.9-.1.3.2.4.5.7.6.8,0,.9-1.2.7-1.9-.1-.4-.5-.6-.8-.7-.6-.3-.8-.3-1.6-.4,0-.4-.1-.8,0-1.1.1-.4.8-.6,1.2-1,.2-.2.6-.8.7-1,.2-.6,0-1.4-.2-1.6-.2-.3-.6-.6-1.1-.5-.6.1-1.1.8-1.8.8h0ZM64.7,11.5c.9,1.2-.2,2.7-1,3.5-.2.2-.3.5-.6.4-.2-.6.2-1.4-.1-2.1-.2-.3-.5-.4-.6-.6,0-.2,0-.3.3-.6.2-.3.5-.9,1-1,.3,0,.6.4,1,.3h0ZM87.9,20.8c.7.1,1.6-.3,2.2,0,.3.4.8.9.6,1.8-.4.5-.7.6-1.5.3-.4-.1-.8-.4-1.4-.4-.6,0-1.2.4-1.6.6-.2.1-.4.2-.6.3-.5.4-1.2.9-1.9.6-.4-.2-.6-.7-.8-1,0-.4-.1-.9,0-1.1.4,0,.9-.2,1.4-.3.6,0,1.2,0,1.7-.2.7-.3,1.2-1.2,1.3-2.2-.7-.2-1.3.4-2,.3-.4-.4-.9-1.3-.5-2.1,1-.2,2.1-.6,3-.8,0,0,.4,0,.6.2.5.3,1,1.6.7,2.2-.3.7-.9,1.3-1.4,1.7ZM106.1,17.8c-.2-.2-.7-.3-1-.2-.5.1-.7.7-.9,1.2-.3.5-.8,1.4-.7,2,0,.6.8,1.6,1.6,1.3.2-.3.3-.8.5-1.2.3-.9.6-1.8.6-3.1ZM111.3,18.4c1-.2,1.9-.4,2.4-1.1.7-1.2-.2-2.2-1-2.6-.7-.1-1.1.2-1.5.5-.7.4-1.5.7-2.2,1.1-.6.3-1,.6-1.4.8-.5.3-1.4.8-.7,1.5h.7c1.4-.9,2.6-2.2,4.7-2.1,0,.2.2.2.2.5-.5.4-1,.8-1.5,1.2-1.1-.4-1.9.2-2.5.7-.2.2-.4.3-.4.5,0,.3.3.7.7.8.2,0,.3-.1.6-.1,0,.7-.6,1-.8,1.6.1.3.2.6.4.9-1.3.5-2.3,1.3-3.9,1.5.3.7.8,1.2,1.3,1.7.4-.1.5-.5.7-.7.2-.2.4-.2.6-.4.4-.1,1.3-.5,1.6,0-.1.9,0,1.8-.6,2.2-.2.1-.5.2-.8.2-.2,0-.6-.1-.8.2.2.2.4.4.7.6.4.3.7.8,1.3.6.5-.1,1-1.2,1.2-2,0-.1.2-.3.2-.4,0-.2,0-.5,0-.6,0-.2.2-.5.1-.7.3-.1.2-.6.4-.7.7,0,1.8.5,2.2-.3,0-.4,0-.8-.2-1.1-.3-.1-.7-.3-1.2-.4-.4,0-.8,0-1.2-.1-.3,0-.5-.4-.7-.6.2-.8,1.5-1.4,1.6-2.2,0-.3-.2-.6-.1-1h0ZM108.7,15.8c0-.4.3-.5.3-.7-.2,0-.4,0-.7,0-.4-.5,0-1.1,0-1.7-.3.1-.6.7-.7,1.2-.1.4-.1.8-.2,1.2-.2.2-.4.3-.7.3-.6,0-.9-1.2-.8-2.2,0-.8.3-1.6,1.1-1.4.3.2.3.5.3,1,.4-.2.6-.5,1-.7,0-.6.1-.9.3-1.3.4-.2.7-.1,1.2-.1.2.2.3.4.5.6-.1.5-.1,1.2-.4,1.5,1-.2.8-1.7,1.5-2.4.5-.1.9-.3,1.3,0,.5.4.5,1.5.2,2-.3.5-.9.7-1.4,1.1-.5.3-1.4.9-1.8,1.1-.3.2-.5.7-.9.5ZM73.3,18.6c-.5.2-.7.7-1,1-.1,1.4-.1,3-.1,4.4,0,.8,0,1.3.3,1.8.6.2,1.1.1,1.4-.4,0-.6,0-1.2-.1-1.8.1-.4.2-.9.1-1.3-.1-.1-.3.3-.5.1-.1-1.2,0-2.4,0-3.8h0ZM73.2,18.4c.2-.3.4-.6.6-1,.3,0,.4-.4.7-.6.5-.5,1.1-.8,1-1.8,0-.8-1.3-1.6-1.9-1-.2.3-.4.5-.6.9-.2.4-.4.9-.6,1.4-.2.4-.8,1.1-.8,1.5,0,.2,0,.4,0,.6,0,.3-.2.6-.3.8,0,.3-.2.6-.3.8-.3.6-.6,1-.7,1.6.4,0,.5-.7.8-.9.2-.4.6-.7.8-1.1.1-.2.2-.4.3-.6.2-.4.5-.7.7-.9,0,0,.2.1.3.1h0ZM77.6,16c.3,0,.4-.5.8-.5.3,0,.6.3.7.5.2.2.4.8.2,1.1-.3.7-1.6,1.2-1.9,1.9,0,1.6-.6,4,.4,4.7,1,.1,1.9.1,2.3-.6,0-.2.1-.5.1-.7.1-.8,0-1.7.2-2.4.4.3.3,1,.4,1.5,0,.3.2.5.2.7,0,.2,0,.5,0,.7,0,.5.2.8,0,1.1-.2.5-1.1.7-1.7.9-.7.3-1.2.5-2.1.4-.5-.4-.8-.9-1.1-1.7,0-.2-.2-.5-.2-.6-.2-1.1.3-2.1.2-3.2-.6.1-.8,1.3-1.6.7-.5-.3-.3-.6.1-1.1.5-.6,1.1-1.2,1.5-1.9.3-1.5-.2-3.2.4-4.3.8,0,1.4.5,1.4,1.3,0,.5-.6.7-.4,1.3h0ZM46.3,31.7v.6h.4c.1,0,.2,0,.3,0,0,0,.1,0,.1,0,0,0,0-.1,0-.2,0,0,0-.1,0-.2,0,0,0,0-.1-.1,0,0-.2,0-.4,0h-.3ZM46.3,30.8v.5h.3c.2,0,.3,0,.3,0,0,0,.1,0,.2,0,0,0,0-.1,0-.2,0,0,0-.1,0-.2,0,0,0,0-.2,0-.1,0-.2,0-.3,0,0,0-.2,0-.2,0ZM45.9,30.4h.8c.2,0,.3,0,.3,0,0,0,.1,0,.2,0,.1.1.2.3.2.5,0,.1,0,.2,0,.3,0,0-.1.2-.2.2.1,0,.2.1.3.2,0,.1,0,.2,0,.4,0,.1,0,.2,0,.3,0,0,0,.2-.2.2,0,0-.2.1-.3.1-.2,0-.3,0-.5,0h-.7v-2.3h0ZM47.9,32.7v-2.3h1.5v.4h-1.1v.5h1v.4h-1v.6h1.1v.4h-1.5,0ZM49.7,32.7h.4v-2.3h-.4v2.3h0ZM51.2,30.4h.4v1.5c0,.2,0,.3,0,.4,0,.1-.1.2-.2.3-.1,0-.3.1-.4.1-.2,0-.3,0-.4-.2-.1-.1-.2-.3-.2-.6h.4c0,0,0,.2,0,.2,0,0,.1.1.2.1s.2,0,.2,0c0,0,0-.2,0-.4v-1.5h0ZM52,32.7h.4v-2.3h-.4v2.3h0ZM52.8,32.7v-2.3h.4l.8,1.6v-1.6h.4v2.3h-.4l-.8-1.5v1.5h-.4ZM55.7,31.8v-.4h.9v.9c-.1.1-.2.2-.4.3-.1,0-.3.1-.5.1-.2,0-.4,0-.5-.2-.2-.1-.3-.3-.3-.4,0-.2-.1-.4-.1-.6,0-.2,0-.5.1-.7,0-.2.2-.3.4-.4.1,0,.3-.1.5-.1.2,0,.4,0,.6.2.1.1.2.3.3.5h-.4s0-.1-.2-.2c0,0-.2-.1-.3,0-.2,0-.3,0-.4.2-.1.1-.2.3-.2.6s0,.5.2.6c.1.1.2.2.4.2s.2,0,.2,0c0,0,.2,0,.2-.1v-.3h-.5,0ZM57.7,30.4h.4v1.3c0,.2,0,.3,0,.4,0,0,0,.2.1.2,0,0,.2,0,.3,0,.1,0,.2,0,.3,0,0,0,0-.1.1-.2,0,0,0-.2,0-.4v-1.3h.4v1.2c0,.3,0,.5,0,.6,0,.1,0,.2-.1.3,0,0-.1.1-.2.2-.1,0-.2,0-.4,0-.2,0-.3,0-.4,0,0,0-.2-.1-.2-.2,0,0,0-.2-.1-.3,0-.2,0-.4,0-.6v-1.3h0ZM59.6,32.7v-2.3h.4l.8,1.6v-1.6h.4v2.3h-.4l-.8-1.5v1.5h-.4ZM61.6,32.7h.4v-2.3h-.4v2.3h0ZM62.9,32.7l-.7-2.3h.4l.5,1.7.5-1.7h.4l-.7,2.3h-.4ZM64.2,32.7v-2.3h1.5v.4h-1.1v.5h1v.4h-1v.6h1.1v.4h-1.5ZM66.5,31.4h.3c.2,0,.3,0,.4,0,0,0,0,0,.1,0,0,0,0-.1,0-.2,0,0,0-.1,0-.2,0,0,0,0-.2,0,0,0-.2,0-.3,0h-.3v.6ZM66.1,32.7v-2.3h.8c.2,0,.4,0,.5,0,0,0,.2.1.2.2,0,.1,0,.2,0,.4,0,.2,0,.3-.1.4,0,.1-.2.2-.4.2,0,0,.2.1.2.2,0,0,.1.2.2.4l.2.5h-.5l-.3-.5c0-.1-.1-.2-.2-.3,0,0,0,0-.1,0,0,0-.1,0-.2,0h0v1h-.4,0ZM68,31.9h.4c0,.1,0,.2.1.3,0,0,.2.1.3.1.1,0,.2,0,.3,0,0,0,0-.1,0-.2,0,0,0-.1,0-.1,0,0,0,0-.1-.1-.1,0-.2,0-.3-.1-.2,0-.4-.1-.4-.2-.1-.1-.2-.3-.2-.5,0-.1,0-.2,0-.3,0-.1.1-.2.2-.2.1,0,.3,0,.4,0,.2,0,.4,0,.6.2.1.1.2.3.2.5h-.4c0,0,0-.2-.1-.2,0,0-.1,0-.3,0,0,0-.2,0-.3,0,0,0,0,0,0,.1,0,0,0,.1,0,.1s.2.1.4.2c.2,0,.3.1.4.2,0,0,.2.1.2.2,0,0,0,.2,0,.4s0,.3,0,.4c0,.1-.2.2-.3.3-.1,0-.3,0-.4,0-.2,0-.4,0-.6-.2-.1-.1-.2-.3-.2-.6h0ZM69.9,32.7h.4v-2.3h-.4v2.3h0ZM71.1,32.7v-1.9h-.6v-.4h1.6v.4h-.6v1.9h-.4ZM72.8,32.7v-1l-.7-1.4h.5l.5.9.5-.9h.5l-.7,1.4v1h-.4ZM75.2,31.5c0,.3,0,.5.2.6,0,.1.2.2.4.2.2,0,.3,0,.4-.2.1-.1.2-.3.2-.6s0-.5-.1-.6c0-.1-.2-.2-.4-.2-.2,0-.3,0-.4.2,0,.1-.2.3-.2.6h0ZM74.8,31.6c0-.2,0-.4,0-.6,0-.1.1-.2.2-.3,0,0,.2-.2.3-.2.1,0,.3,0,.4,0,.3,0,.5.1.7.3.2.2.3.5.3.9s0,.7-.3.9c-.2.2-.4.3-.7.3-.3,0-.5-.1-.7-.3-.2-.2-.3-.5-.3-.9ZM77,32.7v-2.3h1.3v.4h-1v.6h.8v.4h-.8v1h-.4,0ZM80.7,31.8h.4c0,.4-.2.6-.3.7-.1.1-.3.2-.5.2-.3,0-.5-.1-.6-.3-.2-.2-.3-.5-.3-.9s0-.7.3-.9c.2-.2.4-.3.7-.3.2,0,.4,0,.6.3,0,0,.2.2.2.4h-.4s0,0-.1-.2c0,0-.2-.1-.3-.1-.1,0-.3,0-.4.2,0,.1-.1.3-.1.6s0,.5.1.6c0,.1.2.2.3.2.1,0,.2,0,.3-.1,0,0,.1-.2.2-.4ZM81.5,32.7v-2.3h.4v.9h.8v-.9h.4v2.3h-.4v-1h-.8v1h-.4ZM83.4,32.7v-2.3h1.5v.4h-1.1v.5h1v.4h-1v.6h1.1v.4h-1.5ZM85.3,32.7v-2.3h.6l.4,1.6.4-1.6h.6v2.3h-.4v-1.8l-.4,1.8h-.4l-.4-1.8v1.8h-.4,0ZM87.6,32.7h.4v-2.3h-.4v2.3h0ZM89.6,31.8h.4c0,.4-.2.6-.3.7-.1.1-.3.2-.5.2-.3,0-.5-.1-.6-.3-.2-.2-.3-.5-.3-.9s0-.7.3-.9c.2-.2.4-.3.7-.3.2,0,.4,0,.6.3,0,0,.2.2.2.4h-.4s0,0-.1-.2c0,0-.2-.1-.3-.1-.1,0-.3,0-.4.2,0,.1-.1.3-.1.6s0,.5.1.6c0,.1.2.2.3.2.1,0,.2,0,.3-.1,0,0,.1-.2.2-.4h0ZM91.4,31.8l-.3-.9-.3.9h.5ZM92.1,32.7h-.4l-.2-.5h-.8l-.2.5h-.4l.8-2.3h.4l.8,2.3ZM92.3,32.7v-2.3h.4v1.9h1v.4s-1.4,0-1.4,0ZM95.1,32.7v-1.9h-.6v-.4h1.6v.4h-.6v1.9h-.4ZM96.4,32.7v-2.3h1.5v.4h-1.1v.5h1v.4h-1v.6h1.1v.4h-1.5,0ZM99.5,31.8h.4c0,.4-.2.6-.3.7-.1.1-.3.2-.5.2-.3,0-.5-.1-.6-.3-.2-.2-.3-.5-.3-.9s0-.7.3-.9c.2-.2.4-.3.7-.3.2,0,.4,0,.6.3,0,0,.2.2.2.4h-.4s0,0-.1-.2c0,0-.2-.1-.3-.1-.1,0-.3,0-.4.2,0,.1-.1.3-.1.6s0,.5.1.6c0,.1.2.2.3.2.1,0,.2,0,.3-.1,0,0,.1-.2.2-.4ZM100.2,32.7v-2.3h.4v.9h.8v-.9h.4v2.3h-.4v-1h-.8v1h-.4ZM102.2,32.7v-2.3h.4l.8,1.6v-1.6h.4v2.3h-.4l-.8-1.5v1.5h-.4ZM104.5,31.5c0,.3,0,.5.2.6,0,.1.2.2.4.2.2,0,.3,0,.4-.2.1-.1.2-.3.2-.6s0-.5-.1-.6c0-.1-.2-.2-.4-.2-.2,0-.3,0-.4.2,0,.1-.2.3-.1.6ZM104.1,31.6c0-.2,0-.4,0-.6,0-.1.1-.2.2-.3,0,0,.2-.2.3-.2.1,0,.3,0,.4,0,.3,0,.5.1.7.3.2.2.3.5.3.9s0,.7-.3.9c-.2.2-.4.3-.7.3-.3,0-.5-.1-.7-.3-.2-.2-.3-.5-.3-.9ZM106.3,32.7v-2.3h.4v1.9h1v.4s-1.4,0-1.4,0ZM108.3,31.5c0,.3,0,.5.2.6.1.2.4.3.7.1,0,0,0,0,.1-.1.1-.1.2-.3.2-.6s0-.5-.1-.6c0-.1-.2-.2-.4-.2-.2,0-.3,0-.4.2-.1.1-.2.3-.1.6ZM107.9,31.6c0-.2,0-.4,0-.6,0-.1.1-.2.2-.3,0,0,.2-.2.3-.2.1,0,.3,0,.4,0,.3,0,.5.1.7.3.2.2.3.5.3.9s0,.7-.3.9c-.2.2-.4.3-.7.3-.3,0-.5-.1-.7-.3-.2-.2-.3-.5-.3-.9ZM111.1,31.8v-.4h.9v.9c0,0-.2.2-.4.3-.2,0-.3.1-.5.1-.2,0-.4,0-.5-.2-.2-.1-.3-.3-.3-.4,0-.2-.1-.4-.1-.6,0-.2,0-.5.1-.7,0-.2.2-.3.4-.4.1,0,.3-.1.5-.1.2,0,.4,0,.6.2.1.1.2.3.3.5h-.4s0-.1-.2-.2c0,0-.2-.1-.3,0-.2,0-.3,0-.4.2-.1.1-.2.3-.2.6s0,.5.2.6c.1.1.2.2.4.2s.2,0,.3,0c0,0,.2,0,.2-.1v-.3s-.5,0-.5,0ZM112.8,32.7v-1l-.7-1.4h.5l.5.9.5-.9h.5l-.7,1.4v1h-.4Z"/>
    </g>
  </g>
</svg>