<?xml version="1.0" encoding="UTF-8"?>
<svg xmlns="http://www.w3.org/2000/svg" version="1.1" viewBox="0 0 128 34.9">
  <defs>
    <style>
      .cls-1 {
        fill: #d7000f;
      }

      .cls-1, .cls-2 {
        fill-rule: evenodd;
      }

      .cls-2 {
        fill: #3e3a39;
      }
    </style>
  </defs>
  <!-- Generator: Adobe Illustrator 28.7.1, SVG Export Plug-In . SVG Version: 1.2.0 Build 142)  -->
  <g>
    <g id="_图层_1" data-name="图层_1">
      <path class="cls-1" d="M14,9.5h16.4v1.8H14v-1.8ZM30.4,19.6v-.8h-2v.8h-5.2v-1.6h7.2v-1.8h-7.2v-1.5h7.2v-1.9H14v1.9h7.2v1.5h-7.2v1.8h7.2v1.6h-7.2v1.8h16.4v-1.8h0ZM30.4,23v1.8H14v-1.8h16.4Z"/>
      <path class="cls-2" d="M105,23.9v-.7h.6l-.6-1.6v-1h.6l1.7,4.2h-1.1l-.3-.8h-.9ZM112,22.6h-.4v-.2l1.2-1.3h.1v.8h1v.7h-1v1c0,.2,0,.4,0,.5,0,0,.2.1.3,0,0,0,.2,0,.2,0,.1,0,.2,0,.3,0v.7c-.1,0-.3,0-.5,0-.1,0-.3,0-.4,0-.3,0-.6,0-.8-.3-.2-.3-.3-.6-.2-1v-1ZM108.4,24.8v-2.9h.9v.8c.1-.2.3-.5.5-.6.1-.1.3-.2.5-.2,0,0,.2,0,.2,0,.1,0,.2.1.3.2l-.2.8h-.3c0-.2-.1-.2-.2-.2-.2,0-.4,0-.5.2-.1.2-.3.4-.3.6v1.3h-.9ZM105,20.6v1.1l-.6,1.5h.6v.7h-.9l-.4.8h-1.1l1.9-4.2h.6ZM94.9,24.8v-.7c.2,0,.3,0,.5-.2.1-.2.2-.4.2-.6,0-.2,0-.4-.2-.6-.1-.1-.3-.2-.5-.2v-.7c.4,0,.8.1,1.1.4.3.3.5.6.5,1,0,.4-.2.8-.5,1-.3.3-.7.4-1.1.4h0ZM97.9,24.8v-2.3h-.4v-.6h.4v-.3c0-.3.1-.6.3-.8.3-.2.6-.3.9-.2h.2c0,0,.2,0,.2,0v.7h-.3c-.1,0-.3,0-.3,0,0,.1-.1.3,0,.5h0c0,.1.4.1.4.1v.6h-.4v2.3h-.9ZM94.9,21.9v.7c-.2,0-.4,0-.5.2-.1.2-.2.4-.2.6,0,.2,0,.4.2.6.1.1.3.2.5.2v.7c-.4,0-.8-.1-1.2-.4-.3-.3-.4-.7-.4-1,0-.4.1-.8.4-1,.3-.3.7-.4,1.2-.4h0ZM78,24.8v-.6h.3c.2,0,.4,0,.5,0,.2,0,.4-.2.6-.3v.6c-.2.1-.4.2-.6.3-.2,0-.5,0-.7,0h-.1ZM78,23.5v-.4h.6c0-.2,0-.3-.2-.5-.1,0-.2-.1-.4-.1v-.6c.4,0,.8.1,1,.4.3.3.4.8.4,1.2,0,0-1.4,0-1.4,0ZM87.9,26.2h-1l.8-1.9-1-2.4h1l.6,1.4.7-1.4h.9l-1.9,4.3h0ZM80.8,24.8v-2.9h.9v.4c.1-.1.3-.3.5-.3.2,0,.3-.1.5,0,.2,0,.4,0,.5,0,.2,0,.3.2.3.4.2-.2.3-.3.6-.4.2,0,.4,0,.6,0,.3,0,.5,0,.7.3.2.2.3.5.3.8v1.8h-.9v-1.7c0-.2,0-.3,0-.5,0,0-.2-.2-.3-.1-.1,0-.3,0-.4.1-.1,0-.2.2-.3.3v1.9h-.9v-1.7c0-.2,0-.3,0-.5-.2-.2-.5-.2-.6,0,0,0,0,0,0,0-.1,0-.2.2-.3.3v1.9h-.9,0ZM78,21.9v.6c-.1,0-.3,0-.4.1-.1.1-.2.3-.2.5h.6v.4h-.5c0,.2,0,.4.2.6,0,0,.2.2.3.2v.6c-.4,0-.8-.1-1-.4-.3-.3-.4-.7-.4-1.1,0-.4.1-.8.4-1,.3-.3.7-.4,1.1-.4h0ZM73.7,24.8v-.7h0c0,0,.2,0,.2,0h.3v-1.3c0,0-.1-.1-.2-.1,0,0-.2,0-.3,0h0v-.7c0,0,.2,0,.2,0,.1,0,.3.1.4.2v-1.6h.9v4.2h-.8v-.2c-.1,0-.2.1-.4.2,0,0-.2,0-.3,0h0ZM73.7,21.9v.7c-.2,0-.3,0-.4.2-.1.2-.2.4-.2.6,0,.2,0,.4.2.6.1.1.3.2.4.2v.7h-.2c-.4,0-.7-.1-1-.4-.3-.3-.4-.7-.4-1,0-.4.1-.8.4-1,.2-.3.6-.4,1-.4,0,0,.2,0,.2,0ZM69.3,24.7v-.5s0,0,.1,0c0,0,.2,0,.2-.1v-.7c-.1,0-.2,0-.4.1v-.5c.1,0,.2-.1.4-.1h0c0-.2,0-.3-.1-.4,0,0-.1,0-.2,0v-.6h0c.3,0,.7,0,.9.2.2.2.3.5.3.7v1.3s0,0,0,0h.1s0,0,.1,0v.5c-.1,0-.3.1-.4.2-.1,0-.2,0-.4,0-.1,0-.2,0-.3,0,0,0-.1-.1-.1-.2-.1,0-.3.2-.4.2h0ZM69.3,21.9v.6h-.2c-.2,0-.4,0-.5,0-.2,0-.3.2-.5.4v-.7c.2,0,.4-.2.6-.2.2,0,.4,0,.6,0h0ZM69.3,23.1v.5c0,0-.2,0-.2.1-.1,0-.2.2-.2.3,0,0,0,.2,0,.2,0,0,.1,0,.2,0h0v.5c-.2,0-.3,0-.5,0-.2,0-.5,0-.6-.2-.1-.2-.2-.4-.2-.6,0-.2,0-.4.3-.6.3-.2.7-.3,1-.4h0,0ZM61.1,23.9v-.7h.6l-.6-1.6v-1h.6l1.7,4.2h-1.1l-.3-.8h-.9,0ZM66.9,24.7h-.4c-.2.2-.3.2-.5.2-.4,0-.9-.1-1.2-.4-.3-.3-.5-.6-.5-1,0-.4.1-.8.5-1,.3-.3.7-.4,1.2-.4.2,0,.3,0,.5,0,.2,0,.3,0,.5.1v.7c-.1,0-.3,0-.4-.1-.1,0-.2,0-.4,0-.2,0-.4,0-.6.2-.3.3-.3.9,0,1.2.2.1.4.2.6.2.1,0,.2,0,.4,0h.4c0-.1,0,.5,0,.5h0ZM61.1,20.6v1.1l-.7,1.5h.7v.7h-.9l-.4.8h-1.1l1.9-4.2h.6ZM53.6,24.7v-.5s0,0,.1,0h.3v-.8c-.2,0-.3,0-.4.1v-.5h.4v-.2c0-.1,0-.2-.1-.3,0,0-.2,0-.3,0v-.6h.1c.3,0,.6,0,.9.2.2.2.3.5.3.7v1.2s0,0,0,.1,0,0,0,0h.1s0,0,.1,0v.5c-.1,0-.3.1-.4.2-.1,0-.2,0-.4,0-.1,0-.2,0-.3,0,0,0-.1-.1-.1-.2-.1,0-.3.2-.4.2h0s0,0,0,0ZM39.9,24.4c-.2.1-.5.2-.8.3-.3,0-.6.1-.8,0-.3,0-.6,0-.9-.2-.3,0-.5-.2-.7-.4-.2-.2-.4-.4-.5-.7-.1-.3-.2-.6-.2-.9,0-.6.2-1.2.7-1.6.5-.4,1.1-.6,1.8-.6.2,0,.5,0,.7,0,.3,0,.5.1.7.2v1c-.2-.1-.5-.3-.7-.4-.2,0-.5,0-.7,0-.4,0-.7.1-1,.4-.3.2-.4.6-.4.9,0,.4,0,.7.3,1,.3.2.6.4,1,.3.3,0,.5,0,.7-.1.3,0,.5-.2.8-.4v1h0ZM53.6,21.9v.6h-.1c-.2,0-.4,0-.5,0-.2,0-.4.2-.5.4v-.7c.2-.1.4-.2.6-.2.2,0,.4,0,.6,0h0,0ZM53.6,23.1v.5c0,0-.2,0-.2.1,0,0-.1.2-.1.3,0,0,0,.2,0,.2,0,0,.1,0,.2,0h0v.5c-.1,0-.3,0-.5,0-.2,0-.4,0-.6-.2-.2-.2-.2-.4-.2-.6,0-.2.1-.4.3-.6.3-.2.6-.3,1-.4h0s0,0,0,0ZM48.1,24.8v-2.9h.9v.4c.1-.1.3-.2.4-.3.2,0,.4-.1.6,0,.3,0,.5,0,.7.3.2.2.3.5.3.8v1.8h-.9v-1.7c0-.2,0-.3,0-.4,0-.1-.2-.2-.3-.2-.1,0-.3,0-.4.1-.1,0-.2.2-.3.3v1.9s-.9,0-.9,0ZM45.7,21c0-.1,0-.2.1-.3.2-.2.4-.2.6,0,.2.1.3.4.1.6,0,0,0,0,0,0,0,0-.2.1-.3.1-.1,0-.3,0-.4-.1,0,0-.1-.2-.1-.3ZM45.7,24.8v-2.9h.9v2.9h-.9ZM41.3,24.8v-4.2h.9v1.7c.1-.1.3-.3.5-.3.2,0,.3-.1.5,0,.3,0,.5,0,.7.3.2.2.3.5.2.8v1.8h-.9v-1.7c0-.1,0-.3,0-.4,0-.1-.2-.2-.3-.2-.1,0-.2,0-.3.1-.1,0-.2.2-.3.3v1.9s-.9,0-.9,0ZM65.2,10.2c0,0,.4,0,.4,0,.2,0,.3.2.4.3.2,0,.2.3.2.5,0,0,0,.2,0,.3-.3.2-.6.2-.9,0-.2-.2-.3-.4-.4-.7h0c0-.2-.3-.3-.1-.6.2,0,.4,0,.6,0ZM79,10.9c.1.4,0,.9-.5,1-.2.4.2.4.2.8.2,0,.3-.2.5-.3.1-.1.5,0,.6,0,0,0,0-.2,0-.2,0,0,0,0,0,0,0-.4.3-.6.7-.9.2,0,.3.4.5.5,0,0,0,0,.1,0,.2,0,.2-.6.5-.6.5,0,.3.5.7.5.4-.1.4.2.3.4-.3.3-.7.5-1.1.6-.1,0-.4,0-.5.3,0,.2,0,.4,0,.6,0,.1.3,0,.3.2.4.2.5.7.4,1.1,0,.2,0,.6-.4.6-.6,0-.3-.6-.5-.5,0,.4-.1.8,0,1.2h0c-.1.3-.2.7-.2,1-.2.1-.1.6-.4.6-.3,0-.5-.3-.5-.6,0,0-.2-.4-.2-.5.1-.2.2-.5.2-.8,0-.2,0-.4,0-.6-.2,0-.2.3-.3.4,0,.3-.3.4-.5.7,0,0-.2,0-.3,0-.2,0,0-.2,0-.4.2-.7.7-1,.9-1.7,0-.1.2-.2.2-.4s.2-.6,0-.6-.5.3-.8,0c-.3,0-.1.6-.4.7-.2.3-.6.5-.4.9,0,.8,0,1.4-.1,2.3-.1.1-.2.6-.4.6-.4,0-.7-.7-.7-1,.2-.3,0-.6.2-.9,0-.2,0-.4,0-.6,0,0,0-.2,0-.2-.3.1-.6.7-1,.6,0,0-.2-.3,0-.4.2,0,.3-.4.5-.5.1-.1.3-.2.4-.2,0-.1.1-.2.2-.3,0,0,0-.2.2-.2.2-.2.3-.4.4-.6,0-.2,0-.5,0-.7,0-.2-.4-.2-.4-.4,0-.3.2-.3.2-.5.1,0,.3,0,.4-.1.1-.3,0-.5,0-.7,0-.1,0-.2.1-.3.3,0,.5,0,.7.2,0,0,.4.3.4.3ZM83.6,10.6c0,0,.2.2.3,0,.1.1.4.1.5.3,0,.3,0,.8-.4.8-.1,0-.3,0-.5,0-.1,0-.2.2-.3.3-.2,0-.3.3-.5,0,0,0,0-.1,0-.3,0,0,.1-.2.1-.3s0-.1,0-.2c0-.3-.3-.3-.2-.6,0-.2.2-.3.4-.4.2,0,.3,0,.4.2ZM68.5,11.2c0,.2-.1.4-.1.6-.2.2-.5.2-.7.4-.1,0-.2,0-.3.1,0,0,0,.3,0,.3.4,0,.5-.2.7-.3,0,0,0,.4,0,.5,0,.2-.3.3-.5.4,0,0-.3,0-.3.2-.1.1-.2,0-.2.3s-.2.2,0,.2l.5-.2c.2,0,.2-.2.5-.1,0,0,.3-.2.3,0s0,.4,0,.5c0,.2-.2,0-.3.1h-.1c-.2,0-.4.2-.6.4,0,0-.2.1-.3.2-.2.1-.4,0-.4.2,0,0,0,.3.2.3.2,0,.4,0,.6,0,.4,0,.9-.2,1.2,0,.1.2-.3.6-.6.6-.3.1-.6.3-.8.5h0c0,0-.2,0,0,.1.5.2,1.1.4,1.6.7.3.2.6.3.9.4.3.1.6.2,1,.2.7,0,1.4,0,2.1,0,.1,0,0,.4-.4.5-.1.2-.3.4-.5.6-.2.3-.6.1-1,.1-.5,0-1,0-1.5-.3-.3,0-.6,0-.7-.3-.1,0-.3-.2-.3-.3-.2-.3-.5-.5-.8-.7-.1,0,0-.2-.2-.2-.7-.3-.7-.7-.8-.5-.1.3-.3.6-.6.8,0,.1-.3.2-.3.4,0,0-.3.1-.4.2-.1.2-.3.4-.5.6-.3,0-.5,0-.8,0-.2,0-.6,0-.7,0,0,0,.4-.3.5-.3.2,0,.3-.2.5-.3.1-.1.3-.3.4-.5,0,0,.2,0,.2-.2.2-.1.3-.4.4-.5,0,0,0-.2,0-.2,0,0,0,0-.1,0-.1,0-.3.2-.4.2-.2,0-.4,0-.6-.2,0,0,0-.3.1-.4.1,0,.2-.2.4-.2.2-.1.5,0,.7,0,.2,0,.4,0,.4-.2,0-.2.1-.4,0-.6-.4,0-.6.2-.9,0,0,0-.3-.3-.2-.4.4-.3.6-.2,1-.3,0,0,.7,0,.9-.2,0-.1,0-.2,0-.3,0,0-.2-.1-.3,0-.3,0-.6.3-.8.2,0,0-.3-.2-.3-.4.1-.2.4-.2.6-.3.2,0,.8-.3,1-.5,0-.1,0-.3,0-.4-.3.2-.8,0-1.2.3-.2-.2-.7.2-.8-.2.2-.2.5-.4.8-.5.3-.1.7-.2,1-.2,0,0,.2,0,.3,0,.4-.1.4-.4,1.2-.5.3,0,.6-.2.7,0h0Z"/>
      <path class="cls-2" d="M85.2,12c.1.3.4.7.2,1-.2.2-.7.2-1,.1-.2,0-.3,0-.5.1-.1,0-.3,0-.4,0,0,.2.2,0,.2.2.2,0,0,.4.1.6,0,.9,0,1,0,1.9.2.3,0,1.1,0,1.3,0,.4-.2.7-.4,1-.3,0-.5.5-.8.3-.2,0,0-.3-.2-.5-.2-.1-.4-.3-.6-.3-.3-.2-1.2.3-1.3-.2,0,0,.1-.3.2-.3.2-.1.5-.1.7,0h.6c.4,0,.5-.6.6-1,0,0,0-.2,0-.3,0-.5.1-.9.1-1.4,0-.2,0-.5,0-.7h0c0-.3,0-.4,0-.6-.1,0-.5,0-.7.2-.2,0-.3,0-.5,0s-.4-.4-.3-.7c.3-.2.9,0,1.2-.3.3,0,.5-.3.7-.3.3,0,.5-.2.8-.3.2,0,.4-.4.7-.2,0,0,.2.2.2.2ZM113.2,12.5c0,0,0-.2-.3-.3-.1-.3-.5-.4-.8-.5-.2,0-.5,0-.7.1-.2,0-.4.2-.6.1,0-.2.3-.3.2-.6h0c0-.3,0-.4-.3-.5h-.2s-.5-.4-.5-.4h0v1.5s0,0,0,0c0,0,0,0,0,0,0,0,0,0,0,0h.6c-.2.2-.4.3-.7.4v.7c.4-.1.7-.3.9-.4.2,0,.6-.1.6,0,0,0,0,.2,0,.3-.1.1-.9.3-.9.7-.1,0-.4-.3-.6-.2t0,0v1h.2c.3,0,.4-.4.7-.5.1-.1-.2-.2,0-.4.2.2.4,0,.7,0,.3,0,.5-.4.8-.2.3,0,.5-.2.7-.3,0-.3.3-.2.1-.5h0ZM110.1,10.5c-.4,0-1,0-1.1.1,0,.3.2.6.2.7.3.3,0,.6,0,1,0,0,.3,0,.4,0,0,0,.4-.2.6-.3v-1.5h0ZM110.1,12.4v.7c-.2,0-.4.1-.6.1-.4,0-.6,0-.9,0-.1.2,0,.7-.1,1,0,0,.1,0,.2,0,.1-.2.6-.2.8-.3h0c0,0,.2-.1.3-.1,0-.1.2-.2.4-.2v1h0c-.3,0-.8.2-1,.1,0,0-.2,0-.3,0-.2,0-.5-.2-.6,0-.1.3-.3.4-.7.4-.4,0-.2-.5-.6-.7,0,0,0,0,0-.1,0-.6.8-.7.6-1.4,0-.2,0-.4.2-.5.2,0,.4.2.6.3,0,0,.1.2.2.3.6,0,1.1-.2,1.6-.5,0,0,0,0,0,0ZM99,13.3c-.4-.4-.4-.6-.6-.6,0,0-.5,0-.6,0,0,0-.2,0-.2.1-.1,0-.7.1-.7,0h0c0-.1.1-.6.1-.6,0-.3.3-.4.4-.5.2-1,.6-.8.8-1.2,0-.4-.3-1-.7-1.2-.2,0-.4.1-.6.3-.3.2-.4,0-.7.3-.2,0-.3,0-.4,0s.2.7.3.7c.1,0,.3,0,.5,0,.1.2-.6.1-.8.4h0v.4s0,0,.3,0c0,0,.3,0,.3,0,0,.2-.3.2-.6.3v.7s.2,0,.2.1.1.3,0,.3c0,0-.2.1-.3.1v.7h.2c.2,0,.4-.2.6,0,.3,0,.6-.1.9-.1,0,.1,0,.2,0,.4,0,.2,0,.3-.1.6.2.2.4.3.6.3.2,0,.4-.4.7-.5.2-.4.5-.2.5-.6,0,0,0-.6,0-.7,0,0,0,0,0,0ZM95.7,10v-.6c0,.2,0,.4,0,.6ZM95.7,11.2c-.2,0-.1-.1-.3-.2-.3,0-.4,0-.5-.1h0c.3-.3.5-.6.8-.9v-.6c0-.1-.3-.4-.4-.4s-.3.2-.4.3c0,.1-.3.5-.4.7-.2.3-.5-.3-.9.2-.1,0,.1.5.2.6,0,0,0,.2,0,.3s0,0-.3.3c0,.1,0,.3.1.4.4,0,.6-.7.7-.7.2,0,.3.2.3.4,0,.1-.2.2-.2.3-.2,0-.5.1-.7,0-.1,0-.2.1-.3.2,0,.3.2.3.4.5,0,0-.3.4,0,.4.2,0,.3,0,.5,0,.2.2.4.4.7.5,0,0-1,.1-1.7.3-.2,0-.3,0-.3,0-.1,0,0-.3,0-.3,0,0-.2-.1-.2-.2,0,0,0-.4,0-.3.6.5.6-.3.5-.4s-.2.1-.3,0c0-.2-.1,0-.1-.2.2,0,.4-.1.4-.3,0,0,0-.2,0-.3-.3-.3-.6,0-.6,0s-.4-.1,0-.2c.4-.1.9-.5.7-.9,0-.1,0-.5-.2-.5-.2.1-.4.3-.5.6,0,0-.2.2-.3.1-.2.4-.7,0-.8.5,0,.3-.2.4.3.5.2,0,0,.8,0,.9,0,.2,0,.4,0,.6,0,.2.6.3.6.5-.3.1-.6.2-1,.2-.1-.2-.3-.6-.6-.6l-.3.3c0,.3,0,.6,0,.9,0,.1-.1.2-.2.3,0,.3-.3.6-.4.9,0,.2,0,.5.3.6.3,0,.6-.3.7-.4,0-.3.4-.3.4-.6,0-.2,0-.7,0-.9h.2c.2,0,.4.1.6,0,0,0,.2,0,.3,0,.4,0,.7-.1.9-.1.4-.1,1-.1,1.4-.2.2,0,.4-.1.6,0v-.8h0s-.2.1-.2-.2c0-.2-.6-.3-.3-1,0-.1.3-.2.3-.2.1,0,.2-.1.3-.2v-.4h0s0,0,0,0ZM95.7,11.9v.7s0,0-.1,0c0,0-.2-.3-.1-.4,0,0,0-.3.3-.3h0Z"/>
      <path class="cls-2" d="M106.1,13.2c0-.2.1-.3.2-.5.3-.4.8-.5.9-.9h0c0-.2,0-.3,0-.4-.2-.2-.5-.3-.8-.3-.3,0-.5.1-.8.3v.8c0,0,.2,0,.3,0v.2c0,0,0,.4-.3.5v.6c.2.1.3.3.3.6,0,.1-.2,0-.3,0v1.9c.1,0,.4,0,.5-.1.2-.2.4-.4.6-.6.1-.4.2-.7,0-1.1,0-.4-.4-.5-.5-.9ZM105.6,11.4c-.3.1-.5.3-.7.5-.5.2-.9.4-1.4.6,0,.1.2.4.4.5,0,0,.2,0,.3,0,.2,0,.3-.2.4-.2,0,.7,0,1.5-.3,2.2,0,.4,0,.9-.2,1.3,0,0,0,.2,0,.3h0c0,.5-.1.9-.2,1.3h0c0,.4,0,.7,0,1,0,.2,0,.6.4.7.6,0,.7-.5,1-.9,0-.3,0-.7,0-1v-1.3c0,0,0-1.2.2-1.1,0,0,.2,0,.2.2s-.1.7.2.7v-1.9h0s-.2,0-.2,0c-.1-.1,0-.3.2-.5h0v-.5c-.1.2-.3-.1-.3-.2,0,0,0-.3-.1-.4.1,0,0,0,.2,0,0,0,.2,0,.3,0v-.7h0ZM43.2,10.4c-.1,0-.1,0-.4,0h0c0,0-.4-.2-.5-.2-.2-.1-.7,0-.8,0,0,0-.2,0-.3,0v1.6c0,0,.2,0,.2,0,0,0,0,.1,0,.2,0,0,0,0-.1,0v.7c.3,0,.6,0,.9,0,.2,0,.3-.2.4-.3,0,0,.2-.3.1-.3,0-.1-.2-.2-.4-.2h-.4c0,0-.2,0-.2,0,0-.6.5-.3.7-.5.4-.2.4-.2.6-.6,0-.2.4-.3.3-.5ZM41.1,10.4c-.1,0-.3,0-.4,0-.3,0-.1-.3-.3-.5,0-.2-.1-.4,0-.7,0,0-.2-.3-.3-.3h0s-.1-.1-.1-.1l-.3.2c-.1.2-.2.4-.2.6,0,.4,0,.9,0,1.3,0,0-.2.2-.3.1,0,0-.2,0-.3,0v.7s0,0,0,0c0,0,0,0,0,0,0,0,.1-.2.3-.1h.1c0,.2,0,.4-.1.6,0,.1-.2.2-.4.2,0,0,0,0,0,0,0,0,0,0,0,0v.4h.1s0,0-.1.1v.9c.1,0,.4-.3.5,0,0,.5,0,.8,0,1.3v1.9c0,.6,0,1.3-.2,1.9,0,.1,0,.9.1,1,.3,0,.6-.3.9-.4,0-.3.4-.4.4-.7,0-.1,0-.3,0-.4.2-.5,0-.9.1-1.4,0-.2,0-.4,0-.6,0-.4,0-.8,0-1.3,0-.5,0-1,0-1.5,0-.2.2-.3.4-.4h.1v-.7c0,0-.1,0-.2,0s0,0,0-.2h0c0-.1,0,0,.2-.1,0,0,0,0,0,0,0,0,0,0,0,0,0,0,0-1.6,0-1.6ZM38.9,11.1c0,0-.1,0-.2,0-.1,0-.3.3-.4.4s-.2.5-.3.6c0,0-.3,0-.3,0,0-.2,0-.1,0-.2,0-.4.1-.8,0-1.1,0,0-.2-.3-.2-.2-.1,0-.3-.2-.4-.2,0,0-.1,0,0,.2v.5s0,0,0,.1c0,.1,0,.3,0,.4s-.2,0-.3.3c-.2.1-.2.6-.2.8,0,0,0,.3-.1.3h0c0,.2,0,.3,0,.3s0,.1-.1.2c0,.2,0,.4,0,.6l.3.2c.2,0,.3,0,.5,0,.2-.2.4-.3.6-.6l.3.3c.5.2.7-.2,1.2-.2h0v-1c-.1,0-.3,0-.3.1-.2,0-.4.1-.6.1,0-.4.6-.4.9-.4v-.4c-.2,0-.6,0-.5,0,.2-.3.3-.5.5-.5,0,0,0-.7,0-.7ZM57.2,14.2v-.2c0,0,0-.1,0-.2,0-.2,0-.4,0-.6-.2-.2,0-.5-.1-.8,0-.1-.3-1-.2-1,0-.4,0-.9-.1-1.3-.2-.1-.4-.3-.6-.4-.1,0,0,0-.3,0s-.4,0-.6-.1c0-.1-.5-.2-.6-.2,0,0-.3,0-.4.1v.7h.9c.9,0,1,.3.9.8,0,.2,0,.5,0,.6,0,0,0,.2,0,.3.2.4.2.8.1,1.3-.2-.2-.2-.6-.4-.8-.2,0-.4,0-.5-.1-.3,0-.6.1-.9.2,0,0,0,.2,0,.2.3,0,.6.3.6.6,0,0,0,.3-.1.3s0,.1,0,.2q0,.2-.2.3c0,0-.2,0-.3,0,0,0,0,0,0,0-.1-.1-.2-.3-.3-.4v2.6c.1-.1.2-.5.3-.7.3,0,.1.2.3.4,0,.2.6.2.7.4,0,0,.1.6.4.2.2-.2-.2-.7-.1-1.1,0-.3-.2,0-.3,0-.2,0-.4-.2-.5-.5.2-.4.5-.7,0-1.2.4-.3.7,0,.9,0s.2-.3.4-.2c.2,1,.2,2,0,3.1.1.1,0,.2,0,.4,0,.2,0,.4-.1.6,0,.4-.3.5-.6.7,0,.1-.2.2-.3.2-.1.2-.6-.2-.8,0-.2.2.3.4.5.4.2.2.4.2.7.1.2,0,.4,0,.6,0s.6,0,.7-.3c.2,0,.2-.6.3-.8.3-.8,0-1.3.2-2.1,0-.1,0-.2,0-.3,0-.2,0-.5,0-.7,0-.2,0-.4,0-.6h0s0,0,0,0ZM53.9,17.9v-.9s0,0,.1,0c.1,0,.3,0,.3,0,.1.2.2.3.4.4,0,.1,0,.3,0,.4,0,.2-.5,0-.8,0,0,0,0,0,0,0ZM53.9,9.3s0,0-.1,0c-.2,0-.3,0-.5,0,0,0-.2,0-.2,0h0v.7c0,0,.1,0,.2,0,.2,0,.4,0,.7,0h0v-.7h0ZM53,18.2h0c.2,0,.3-.3.5-.3.1,0,.2,0,.4,0v-.9c-.2,0-.4.1-.5,0,0,0-.3,0-.5,0v1h0ZM53,16.8c.2,0,.4-.1.4-.3.2-.1.3-.3.5-.5v-2.7c-.2-.1-.2-.5-.4-.7,0-.1.3-.2.4-.3,0,0,0,0,0,0h0v-.2s0,0,0-.1c-.1-.1-.3-.2-.4-.3,0,0-.3,0-.4,0,0,0,0,0,0,0,0,0,0,0,0,0v1.7s0,.1,0,.2c.1,0,0,.1.1.2,0,0,.1.1.2.2,0,.1.2,0,.3.5,0,.2-.2.2-.3.4-.1,0-.3.1-.4.1v1.9h0s0,0,0,0ZM53,14.4v-.2c0,0,0,.1,0,.2ZM53,14.1v-.3s0,0,0,0c-.1,0,0,.2,0,.2h0ZM53,9.6c-.2.2-.5.3-.8.4h-.3c-.2,0-.4.2-.6.3-.3.2-.7.4-1,.5,0,0-.1.2,0,.2.2.1.5.1.8,0,.1,0,.3,0,.5,0,0,.3,0,.5.3.6.3.2.3.1.4.4h0c0,.2-.6.5-.6.7,0,0-.4.3-.4.2-.3,0-.6,0-.9,0-.1-.2,0-.4,0-.6s.2-.7,0-.9c-.2,0-.4.3-.5.4,0,.1-.1.2,0,.4,0,0,0,.2,0,.4,0,0,0,.6-.1.7-.1.3-.2.6-.4.8-.1.4-.2.9-.2,1.3,0,.2,0,.4-.2.6,0,.3-.1.8,0,1,0,.2.3.3.3.5.2,0,.2.4.5.3.2-.2.4-.4.4-.7.1-.4-.2-.8,0-1.2,0-.8.1-1.6.3-2.4,0,0,.2-.1.3,0h.6c.2.2,0,.3,0,.4,0,.3-.3.2-.4.5.1.2.3.4.5.5.4,0,.3-.2.7-.3,0,.2-.1.4-.2.6,0,0,0,0,0,.1-.2.1-.3.2-.5.3-.2,0-.3,0-.4-.2,0,0-.2,0-.3,0-.1.2,0,.3,0,.5.2.1.3.4.5.5s.4,0,.6.1c.2,0,.6-.4.9-.5.1.2-.3.4-.3.5-.1,0-.2.3-.3.3-.1.3-.6,0-.8.3s-.4.5-.3.8c.3.4.5.5,1.3.4.3-.2.6-.3.9-.3v-1.1c-.2,0-.5.1-.5,0,0-.1.3-.2.5-.3v-1.9c-.1,0-.3.1-.4.2,0-.2.3-.4.4-.6,0,0,0-.1,0-.1v-.5c0-.1-.1-.2-.2-.3-.3,0-.5,0-.5,0,0-.1,0-.2,0-.3.1-.1.4-.1.5,0,0,0,0,0,0,0t0,0v-1.7c-.2-.1-.4-.3-.4-.5-.2-.1-.6,0-.7-.2.1-.4.5-.3.7-.5.2,0,.2-.1.4,0,0,0,0,0,0,0v-.5q0,0,0,0ZM96.8,14.5c0,.2.1.4,0,.6-.2,0-.3.1-.5.2-.1,0-.6.3-.9.5-.3.1-.3.2.1.3.4,0,.8-.1,1.2-.2.3,0,.6-.1.8,0,.1,0,.3.5.2.6,0,.2-.4.1-.6.2-.4,0-.7,0-1-.1-.2,0-.4,0-.7,0-.3.2,0,.6,0,1,0,0,0,.2,0,.4,0,.4-.2.8-.5,1,0,0-.2.2-.3.2-.3,0-.6,0-.8,0-.2,0-.4-.1-.6-.2-.2-.1-.7,0-.8-.1,0,0,0-.2,0-.2.2,0,.8,0,1-.1.1,0,.6-.1.7,0,.1-.2,0-.4,0-.7.1-.2.2-.5,0-.7-.2,0-1,.3-1.3.2-.4,0-.7,0-1,0,0-.2-.5-.2-.3-.6,0,0,0,0,0,0,.5,0,1.1-.1,1.6,0h.7c.1-.2,0-.3,0-.5h0c.1-.2.4-.2.6-.2.1,0,.3,0,.4-.2,0-.1.3-.4,0-.4-.4,0-.8.1-1.2.3-.2.2,0,0-.4.2-.3,0-.5-.2-.7-.3,0,0-.2-.2-.2-.3,0-.2.5-.1.6-.2h0c.7,0,1.4-.2,2.1-.6.2,0,.4,0,.6,0,.4,0,.8,0,1,.3h0ZM111.7,15c0,0-.1.4-.3.5-.2.1-.4.2-.6.2,0,0-.6,0-.6,0,0,0,0,0,0,.1,0,0,.2,0,.3,0,0,0,.2.4.2.5-.1.1,0,.3-.1.4,0,.2-.3.9-.1,1,.4.1.8,0,1.1-.1.2,0,.8.1,1,0,.3-.3.1-.9.8-1.2.2,0,.1,0,.2.1-.2.5.1.6,0,.9,0,.1.2.2.3.3,0,.2.1.4,0,.6h-.4c0,0-.4.2-.4.2-.3,0-.6,0-.9,0-.4,0-.8,0-1.1.1-.3,0-.6,0-.9,0-.2,0-.4-.2-.6-.3-.2-.3,0-1,0-1.4v-.3c-.2,0-.5.4-.6.5,0,.1-.2.1-.2.3-.3.2-.1.7-.6.8-.2,0-.6,0-.7,0-.1,0-.8.3-.8.1,0-.1,0-.2.1-.3l.2-.4c0,0,.1-.1.2-.2.2-.2.4-.2.5-.5,0,0,.3-.4.4-.5.2-.2.5-.3.4-.6,0-.1-.3,0-.4,0,0,0-.2,0-.2,0-.1,0-.7.2-.7,0-.1-.3.6-.8.7-1,.1,0,.2-.1.4-.2.2,0,.5,0,.7,0,.3-.2,1.2-.1,1.4-.3.3,0,1.1,0,1.3.3ZM68.9,9.3c0,0,0,.2,0,.3,0,.1,0,.3,0,.5,0,.1-.4.2-.4.3-.1.1,0,.2-.3.3-.3,0-.5,0-.7.1h-.1c-.2.2-.6.3-.9.3-.1,0-.1,0-.2-.1.2-.2.4-.4.7-.6,0-.2.1-.2.2-.4,0-.2.4-.4.4-.6q.2,0,.2-.2c0-.1,0-.4.2-.4,0,0,0,0,.1-.1.3,0,.5.2.7.5h0Z"/>
    </g>
  </g>
</svg>