<?xml version="1.0" encoding="UTF-8"?>
<svg xmlns="http://www.w3.org/2000/svg" version="1.1" viewBox="0 0 128 46.9">
  <defs>
    <style>
      .cls-1 {
        fill-rule: evenodd;
      }

      .cls-1, .cls-2 {
        fill: #363c44;
      }
    </style>
  </defs>
  <!-- Generator: Adobe Illustrator 28.7.1, SVG Export Plug-In . SVG Version: 1.2.0 Build 142)  -->
  <g>
    <g id="_图层_1" data-name="图层_1">
      <path class="cls-1" d="M103.7,10h-.2c0-.1-1.8,2.4-1.8,2.4.8-.7,1.8-1.2,2-2.4ZM83.4,17c.5-.6.3-1.4-.6-2.2,0,.8.2,1.6.3,2.3h.3s0,0,0,0ZM102.2,17.2c0-.3.3-.7.2-1-.2-.7-.6-1.4-.9-2-.5.8,1.2,1.9-.4,2.5l1.2.5h0ZM105.1,18.1l-2.3,1.6c.8.9,1.5.4,2.1.2l.2-.2c.4-.5.6-1,0-1.6ZM53.8,24.8c.3.9.5,1.8.9,2.7,0,.2.6.2.9.4,0-.4.4-.8.2-1-.6-.8-1.2-1.4-1.9-2.1,0,0-.2.1-.2.1ZM101.6,17.6c-.4.5-.8,1-1.2,1.5-.5.5-.5,1-.2,1.5.1.2.5.5.6.5.2,0,.5-.4.6-.6.2-.5.2-.9.3-1.4,0-.5,0-.9.1-1.4h-.2ZM106.6,13.5c.6-.2,1-.7.7-1.3-.2-.6-.9-.8-1.7-.5.7,1.2-.6,1.6-1,2.6.7-.3,1.3-.5,1.9-.8ZM65.2,15.9c-.4-.6-.8-.5-1.2,0-.5.6-1.1,1.2-1.7,1.7-.3.3-.5.5-1,.9,2-.3,3.1-1.2,3.9-2.6h0ZM48,11.2c-.1.5.1,1.2.4,1.6.4.5.8,0,1.2-.3.9-.9,1.7-1.8,2.7-2.9l-1.5.6c-.4.2-.9.4-1.4.6l-.3-1.1c-.5.6-1,1-1.2,1.5h0ZM36.3,22c.7,2,.7,4.2,2.9,5.4.3-1.9-1.2-4.6-2.9-5.4h0ZM100.3,11.8c-.9.7-1.7,1.3-2.6,2-.2.2-.4.4-.6.6.3.2.5.5.9.6.9.2,2.1-.5,2.6-1.5.4-.8.8-1.6,1.2-2.6-.5.3-1,.6-1.4.9ZM63,15.1c.3,0,.6-.1.8-.3.7-.7,1.2-1.5,1.9-2.3.3-.4.7-.7.9-1.1.4-.7-.1-1.1-.6-1.4-.2-.1-.7,0-.8.2-.6.8-1.1,1.6-1.6,2.5-.3.6-.6,1.3-.9,1.9.1.2.2.5.3.5ZM107.2,15l-2.6,2.2c.1-1.1,1.3-2.1,2.6-2.2ZM102.2,17.2c-.3.6.1.9.5,1.1.3.1.7.2,1,0,.8-.4,1.6-.9,2.4-1.4.7-.5,1.2-1,1.8-1.6.2-.2,0-.6.1-.9-.3,0-.6-.1-.8,0-.6.2-1.3.5-1.9.9-1.1.6-2.1,1.3-3.1,2h0ZM99.1,15.6c-.5,2.3-1,4.6-1.4,6.9-.2,1.1-.2,2.3-.1,3.4,0,.4.5.7.7,1.1.2-.2.7-.5.7-.7.2-.9.4-1.9.3-2.8-.2-1.3-.4-2.7.2-3.9.5-.9.5-1.9.8-2.8.3-.9,0-1.3-.9-1.5,0,.1-.1.2-.2.4ZM72.1,26c-.7-.3-1.3-.6-2-.8.5.7,1.1,1.2,1.7,1.7.6.5,1.3.4,1.5-.4,0-.3,0-.6,0-1,0-1.5,0-2.9,0-4.4,0-.9.2-1.8-.8-2.3,1.1-1,2.8-.9,3.8-2.4-.5,0-.8-.1-1,0-1.3.6-2.6,1.2-3.9,1.9-.5.3-1,.6-1.6.9v-.9c-.4.7-.6,1.2,0,1.7.6.5,1,0,1.4-.3.3-.2.6-.4.8-.6v6.9h0ZM70.5,15.4l-1.9,3.7c0-2.5.2-3,1.9-3.7ZM70.4,14.4c-.6-.1-.6-.5-.4-.9.2-.6.4-1.3.4-2,0-.3-.4-.6-.6-.8-.2.2-.5.3-.6.5-.2.6-.4,1.1-.5,1.7-.4,2.2-1.3,4-3.6,4.8-.4.1-.6.8-.8,1.2-.2.5-.2,1-.4,1.7-.4-.6-.7-1-1.1-1.7-.5,1.6-.6,3-.4,4.4,0,.5.6.7,1.1.3.2-.2.4-.6.5-.9.3-1.1.6-2.3.9-3.5,0-.2.2-.5.4-.5.8-.4,1.6-.7,2.5-1-.2.8.2,1.8-.7,2.5-.4.3-.7.9-.9,1.4-.3.6,0,1.1.7.9.4,0,.7-.3,1-.5l.5,1.3c.1,0,.2,0,.3,0,0-.4,0-.7,0-1.1-.4-1-.3-1.9.2-2.8.4-.8.8-1.5,1.3-2.2.3-.4.8-.7,1.2-1,0,0,.1.1.2.2l-.7,1,4.8-3.5c0-.1-.1-.2-.2-.3-1.7-.4-2.8,1.2-4.3,1.6-.2-.2-.4-.5-.7-.6ZM53.5,14.9c-.4.1-.8.3-1.3.4.2-1.5,1.9-1.6,2.5-2.7-.7-.9-1.9.6-2.5-.6,1-.6,2-1.1,3-1.8.5-.3,1.1-1.2.9-1.4-.4-.7-1.1-.3-1.7,0l.6.2c-.9.8-1.7,1.5-2.5,2.2-.4.4-.9.8-1,1.3-.1.8-.5,1.1-1.1,1.4-.2,0-.4.3-.6.4.4.5,1.1,1,1.1,1.5,0,.5-.6,1-.9,1.6.6.4,1.2.9.7,1.6-.4.5-1.2.7-1.9,1.1.3.2.7.7.8.7.8-.4,1.3.3,2.3.1-.3.7-.4,1.5-.8,1.7-1.9.9-3.9,1.7-5.9,2.5-.3.1-.7.4-.6.6,0,.3.2.8.4,1,.2.1.7,0,.9-.2.4-.3.8-.7,1.2-.9,1.2-.6,2.4-1.2,3.6-1.8-.4,1.8-1.4,3-2.7,4.1.7-.2,1.3-.4,1.8-.7,1.2-.8,2-2,2.4-3.4.2-.6.5-.8,1-.9,1.2-.3,2.3-.6,3.5-.9.6-.1.9-.5.7-1,0-.1-.8-.1-1.1,0-1.2.3-2.3.8-3.1,1.1-.5-.6-.9-1-1.2-1.4-.1-.2-.2-.5-.1-.6.2-.3.5-.5.8-.7.5-.3.6-.8,0-1.2-.5-.4-.4-.6,0-1,.4-.5.7-1.1,1.1-1.6,0,0-.2-.2-.2-.2ZM37.5,15.4c-.1.1-.6-.1-.9-.2.1-.2.2-.6.4-.7.5-.3,1-.5,1.5-.7l.3.3c-.4.5-.8,1-1.3,1.3h0ZM38.4,18.1c-.6.2-1.2.4-1.8.6-.2,0-.4,0-.6,0,0,0-.1-.4,0-.4.6-.5,1.2-1.2,1.9-1.5.3-.1.9.3,1.3.5,0,.1,0,.2,0,.3-.3.2-.5.3-.8.5h0ZM39.2,16.4c-.2-.1-.4-.3-.6-.4.2-.2.3-.4.5-.6.5-.5,1.1-1,1.5-1.6.2-.3.2-.9,0-1.3,0-.2-.7-.2-1.1-.2-.8.2-1.7.5-2.6.7,0-1,.3-1.9.2-2.7-.2-.8-.8-1.5-1.3-2.4-.2.3-.2.4-.2.5,0,1.2-.1,2.4-.2,3.6,0,2.4,0,2.2-2.2,2.4-.5,1.6,1,1.1,1.7,1.4-.2,1.1-.3,2.1-.6,3.1,0,.2-.3.3-.5.5-.2-.2-.4-.4-.4-.6-.2-.8-.4-1.6-.7-2.4,0,0-.2,0-.2,0-.2.7-.3,1.4-.6,2-.3.6-.6,1.2.2,1.7-1.7,1.2-3.7,1.8-5,3.5,2.1-.5,4.1-1.5,6.3-2.5-.8,2.8-2.2,5-3.9,7.1.7-.4,1.5-.8,2-1.4,1.5-1.9,2.8-3.9,3.5-6.3,0-.2.3-.3.5-.4,1-.4,2-.9,3.1-1.3.6-.2,1.3-.3,1.9-.6.4-.1.7-.5,1.2-.8-1.1-.5-1.9-.9-2.7-1.3h0ZM111.9,24.6c-1-1.3-2.3-2.2-3.4-2.5l1.6,2.3c-1.4,0-2.6.2-3.9.2-.6,0-.9-.2-1-.9,0-.6-.3-1.3-.4-1.9.5-.5,1-1.1,1.5-1.8.1-.1,0-.5,0-.7-.2,0-.4.2-.6.3-.6.5-1.1,1.1-1.7,1.6,0,0,0,0,0,0l1-1.5-.2.2c-1,.7-2,1.4-2.9,2.2-.8.7-.8.7,0,1.4-.3.5-.7,1-1,1.5-.2.4-.2.9-.3,1.3.8.2.8-.6,1-1,.6-1.3,1.7-2.1,2.8-3.1,0,.7-.1,1.3-.1,1.8,0,1.2.5,1.9,1.8,1.9,1.3,0,2.5-.2,3.8-.4.7-.1,1.4-.4,2.2-.7,0,0,0-.3,0-.3ZM23.5,15.8l.2.3-1.5,1.3-.3-.4,1.5-1.2h0ZM23,15.1c-.2.2-.6,0-.9,0,.1-.4.2-.9.4-1.1.6-.4,1.3-.6,1.9-.9,0,0,.2.2.2.3-.6.6-1.1,1.2-1.7,1.7ZM15.9,15.7c.2.3.4.6.5.9,0,1,.2,2,0,3-.1,1,.4,1.5,1.1,2,.4.3.7.2.9-.3.2-.7.3-1.4.5-2.1.3,0,.7-.1,1.1-.2,0,.2.1.4,0,.5-.2,3.2-.5,6.3-.7,9.5,0,.4,0,.7.1,1.1h.2c0-.2.2-.3.3-.5.6-3.4,1.1-6.8,1.6-10.2,0-.6.3-1,.9-1.2.6-.2,1.1-.6,1.7-.9.6-.4.8-.9.3-1.5-.4-.5-.2-.7.2-1.1.7-.6,1.3-1.3,1.8-2.1.2-.2.2-.8.1-.9-.3-.2-.7-.4-1.1-.3-.5,0-.9.4-1.3.6-.6.3-1.3.5-2.2.9.2-1.9.5-3.7-1.5-4.7,0,.4-.2.7-.2,1.1,0,1.3,0,2.7,0,4,0,.4-.4.8-.7,1.2-.2.3-.5.6-.7.9.4.1.7.2,1.1.3,0,0,0,0,.2.2l-.2,1.8-1.5.8c-.6-1-1.2-2-1.8-3.1-.2-.3-.2-.9-.8-.6,0,0,0,.7,0,.7ZM88.4,12.7c1-.4,1.9-.8,2.9-1.1.3-.1.7,0,1.2-.2l-2.8,4.3c1,0,2-.2,2.9-.2,0,.2.1.3.2.4-.5.5-1,1.1-1.6,1.4-1.2.6-2.4,1-3.6,1.5-.4.2-.8.3-1.1.6-.5.4-.8.9-.3,1.5.2.3.3.8.5,1.3.5-.2.9-.3,1.4-.4,1.4-.3,1.7.2,1.2,1.2-.5.1-1.1.2-1.6.3-.7.2-.9.7-.6,1.4.5,1.1.6,2.3,0,3.4,0,.2-.2.3-.3.5l-2.9-2.2h0c0-.1,2.7,1.1,2.7,1.1l.3-.2-1-3.1c-.5.2-1,.4-1.5.6-.8.3-1.3,0-1.6-.7-.1-.4,0-.6.4-.7.8-.2,1.6-.5,2.4-.8-.2-.6-.3-1-.4-1.5-.3-.8-.1-1.5.6-1.9,1.4-.8,2.8-1.5,4.2-2.3.5-.2,1-.5,1.4-.7v-.3c-.7.2-1.3.3-1.8.6-2.6,1.5-5.2,3-7.9,4.5-.5.3-1,.5-1.6.8-.6.3-.9,0-1.2-.5-.3-.6,0-.8.5-1,.7-.3,1.3-.7,1.9-1,1.8-.8,3.5-1.6,5.3-2.5.4-.2.8-.4,1.4-.6-.7-.5-1.2-1-1.7-1.4-.6-.4-.8-.9-1-1.5l1,.7,1.3-1.8c0,0,0-.1-.1-.2-.4.2-.8.5-1.2.7-.4.2-.7.4-1.1.6h-.7c.2.7.3,1.5-.5,2.2.3-1.7-.8-2.8-1.4-4.1.2.2.5.4.7.6.2.2.5.4.7.7.3-.1.5-.4.8-.4,1.2-.2,1.8-1,2.5-1.8.7-.8,1.5-1.6,2.2-2.4.3-.3.5-.7.7-1h.3c-.6.9-1.1,1.8-1.8,2.6-.5.7-1.2,1.3-1.9,2.1.4.1.7.2,1,.3l-.2.6c-.5.5-.9,1-1.4,1.5l.8.7.2-1.4c.5,0,1,.3.9.8,0,.4-.5.7-.9,1.1.2.2.5.9,1.1.2,1-1.2,1.8-2.5,2.7-3.7-.6,0-1,.3-1.4.5-.6.2-1.2.2-1.9.3h0Z"/>
      <path class="cls-2" d="M112,36.4c0,0-.2-.2-.3-.2,0,0-.2,0-.3,0-.1,0-.2,0-.3,0,0,0-.1.1-.1.2,0,0,0,.2,0,.3s.2.2.3.3c.3.2.5.4.6.5.1.1.2.3.2.5,0,.3-.1.5-.3.7-.2.2-.5.3-.7.3-.2,0-.3,0-.4,0-.1,0-.3,0-.4-.1v-.7c.1.1.3.3.4.3.1,0,.3.1.4.1.1,0,.2,0,.3-.1,0,0,.1-.2.1-.3,0,0,0-.2-.1-.3-.1-.1-.2-.2-.4-.3-.2-.2-.4-.3-.5-.5,0-.1-.1-.3-.1-.5,0-.3.1-.5.3-.6.2-.2.5-.3.8-.3s.2,0,.3,0c0,0,.2,0,.3.1v.6h0ZM109.2,38.9c-.3,0-.4,0-.6-.2-.1-.1-.2-.4-.2-.7v-1.8h-.5s1.1-1.1,1.1-1.1h0v.7h.8v.4h-.8v1.6c0,.2,0,.4.1.5,0,.1.2.2.3.2,0,0,.2,0,.3,0,0,0,.2,0,.3-.1l-.3.6c0,0-.2,0-.3,0-.1,0-.2,0-.3,0h0ZM106.2,37.9v-1.3c0-.2,0-.3,0-.5,0-.2,0-.3-.1-.5h.8v.6l.5-.5c.2,0,.3,0,.4,0s.2,0,.3,0v.7c-.1,0-.2,0-.2,0-.1,0-.3-.1-.4-.1-.1,0-.3,0-.5.1h-.1v1.6c0,.2,0,.4,0,.6,0,.1,0,.2.1.3h-.9c0,0,0-.2.1-.3,0-.2,0-.4,0-.6h0ZM102.6,36.9h1.2l-.6-1.4h0s-.6,1.4-.6,1.4ZM101.7,37.6l1.6-3.3h0l1.6,3.3c.2.4.3.7.5.9.1.2.2.3.3.5h-1.2c0,0,0-.2,0-.4,0-.2-.1-.4-.2-.6l-.2-.3h-1.8c-.1.3-.2.6-.3.8,0,.3,0,.4,0,.5h-1.2c.1-.1.3-.3.4-.5.1-.2.3-.5.5-.8ZM98.2,36.9c0-.3,0-.5-.2-.6-.1-.1-.3-.2-.5-.2h0c-.2,0-.4,0-.5.3,0,.1-.2.3-.2.6,0,0,1.3,0,1.3,0ZM97.7,38.9c-.5,0-.8-.1-1.1-.4s-.4-.7-.4-1.1.1-.9.4-1.2c.3-.3.6-.5,1-.5h0c.4,0,.7.1.9.4.2.2.3.6.3,1.1v.3h-1.8c0,.3.1.5.3.7.2.2.4.4.7.4.1,0,.3,0,.4,0,.1,0,.3,0,.4-.1l-.3.6c-.1,0-.3,0-.3,0-.1,0-.2,0-.3,0ZM93.1,37.9v-1.3c0-.2,0-.3,0-.5,0-.2,0-.3-.1-.5h.8v.5l.5-.5c.2,0,.3,0,.4,0,.3,0,.5,0,.7.3.2.2.2.4.2.8v1.2c0,.3,0,.5,0,.6,0,.1,0,.2,0,.3h-.9c0,0,0-.2.1-.3,0-.1,0-.3,0-.6v-1.2c0-.2,0-.3-.1-.4,0,0-.2-.1-.4-.1s-.3,0-.5.1h-.1v1.6c0,.2,0,.4,0,.6,0,.1,0,.2.1.3h-.9c0,0,0-.2.1-.3,0-.1,0-.3,0-.6ZM91.9,34.4c.1,0,.2,0,.3.1,0,0,.1.2.1.3s0,.2-.1.3c0,0-.2.1-.3.1-.1,0-.2,0-.3-.1,0,0-.1-.2-.1-.3,0-.1,0-.2.1-.3,0,0,.2-.1.3-.1h0ZM91.6,37.9v-1.3c0-.2,0-.3,0-.5,0-.2,0-.3-.1-.5h.9c0,0,0,.2-.1.4,0,.1,0,.3,0,.6v1.3c0,.2,0,.4,0,.6,0,.1,0,.2.1.3h-.9c0,0,0-.2.1-.3,0-.1,0-.3,0-.6ZM88.6,37.6v-1.9c0-.3,0-.5,0-.7,0-.2,0-.4-.1-.6h2.6l-.2.4-.2.4c-.2,0-.3-.2-.5-.2-.2,0-.4,0-.6,0h-.2v1.5h1.5l-.2.4-.2.4c-.1,0-.3-.1-.5-.2-.2,0-.4,0-.6,0v.7c0,.3,0,.5,0,.7,0,.2,0,.4.1.6h-1c0-.2.1-.4.1-.6,0-.2,0-.4,0-.7h0ZM85.4,36.2v1.8c0,.2,0,.4,0,.6,0,.1,0,.2.1.3h-.9c0,0,0-.2.1-.3,0-.1,0-.3,0-.6v-1.8h-.4s.2-.4.2-.4h.1v-.2c0-.4,0-.6.3-.8.2-.2.5-.3.8-.3s.2,0,.3,0c0,0,.2,0,.3,0l-.2.6c0,0-.2-.1-.2-.2,0,0-.2,0-.2,0-.1,0-.3,0-.3.1,0,0-.1.2-.1.4v.4h.7v.4h-.7,0ZM83.1,38.1c.1-.2.2-.4.2-.7,0-.4,0-.7-.3-1-.2-.2-.5-.4-.8-.4-.2,0-.3.2-.4.4-.1.2-.2.4-.2.7,0,.4,0,.7.3,1,.2.2.5.4.8.4.2,0,.3-.2.4-.4h0ZM81.3,38.5c-.3-.3-.4-.7-.4-1.1s.2-.9.5-1.2c.3-.3.7-.5,1.1-.5.4,0,.8.1,1,.4.3.3.4.7.4,1.1s-.2.9-.5,1.2c-.3.3-.7.5-1.1.5-.4,0-.8-.2-1-.4h0ZM78.4,36.6l-.5,1.4c-.2.5-.4.9-.6,1.2-.1.2-.3.5-.5.6h-.9c.2-.2.4-.4.6-.6.2-.2.3-.5.5-.8v-.2c0,0,0,0,0,0l-.8-1.7c0-.2-.2-.4-.3-.5,0-.1-.2-.3-.3-.4h.9c0,0,0,.1,0,.2,0,0,0,.2.2.4l.6,1.3.5-1.3c0-.1,0-.3,0-.3,0,0,0-.2,0-.3h.9c0,.1-.2.2-.2.4,0,.1-.1.3-.2.5ZM71,37.9v-1.3c0-.2,0-.3,0-.5,0-.2,0-.3-.1-.5h.8v.6l.4-.5h.1c.1-.2.3-.2.5-.2.3,0,.5,0,.6.2.1.1.2.3.2.5l.5-.5h.1c.1-.1.3-.2.4-.2.3,0,.4,0,.6.2.1.2.2.4.2.7v1.4c0,.3,0,.5,0,.6,0,.1,0,.2,0,.3h-.9c0,0,0-.2.1-.3,0-.1,0-.3,0-.6v-1.2c0-.2,0-.3-.1-.4s-.2-.1-.4-.1-.3,0-.5.2h-.2v1.5c0,.2,0,.4,0,.6,0,.1,0,.2.1.3h-.9c0,0,0-.2.1-.3,0-.1,0-.3,0-.6v-1.2c0-.2,0-.3-.1-.4,0,0-.2-.1-.4-.1s-.3,0-.5.2h-.1v1.5c0,.2,0,.4,0,.6,0,.1,0,.2.1.3h-.9c0,0,0-.2.1-.3,0-.1,0-.3,0-.6h0ZM69.9,36.9c0-.3,0-.5-.2-.6-.1-.1-.3-.2-.5-.2h0c-.2,0-.4,0-.5.3,0,.1-.2.3-.2.6,0,0,1.3,0,1.3,0ZM69.5,38.9c-.4,0-.8-.1-1.1-.4-.3-.3-.4-.7-.4-1.1s.1-.9.4-1.2c.3-.3.6-.5.9-.5h0c.4,0,.7.1.9.4.2.2.3.6.3,1.1v.3h-1.8c0,.3.1.5.3.7.2.2.4.4.7.4s.3,0,.4,0c.1,0,.3,0,.4-.1l-.3.6c-.1,0-.3,0-.3,0-.1,0-.2,0-.3,0ZM66.1,36.1c-.3,0-.5,0-.6.3-.1.2-.2.5-.2.9s0,.6.2.8c.2.2.4.3.6.3.1,0,.2,0,.4,0h.2v-2.1c-.2-.1-.3-.2-.6-.2ZM65.9,38.9c-.4,0-.7-.1-1-.4-.2-.2-.4-.6-.4-1s.2-1,.5-1.4c.3-.4.8-.6,1.2-.5.1,0,.3,0,.4,0v-.2c0-.2,0-.4,0-.5,0-.1,0-.3-.1-.4h.5c0,0,.5-.2.5-.2,0,.1,0,.3,0,.4,0,.2,0,.4,0,.7v2.4c0,.2,0,.4,0,.6,0,.1,0,.2.1.3h-.8v-.4l-.4.4c-.2,0-.3,0-.4,0ZM63.3,38.4v-.9h-.8s0,0,0,.2c0,.1,0,.2,0,.3,0,.1,0,.3.2.3,0,0,.2.1.5.1s.2,0,.4,0h0,0ZM62.6,38.9c-.3,0-.6,0-.7-.2-.2-.1-.3-.3-.3-.6s0-.3.2-.5c.1-.1.3-.3.5-.3l1-.4v-.3c0-.2,0-.3-.2-.4-.1-.1-.3-.2-.4-.2-.1,0-.2,0-.3,0-.1,0-.3.1-.4.2l.2-.6c.1,0,.3,0,.4-.1.1,0,.2,0,.4,0,.4,0,.6,0,.8.3.2.2.3.4.3.8v1.2c0,.3,0,.5,0,.6,0,.1,0,.2,0,.3h-.8v-.3l-.5.4h-.1s0,0,0,0ZM61,38.8c-.1,0-.3,0-.4,0,0,0-.2,0-.3,0-.4,0-.8-.1-1.1-.4-.3-.3-.4-.7-.4-1.1s.2-.9.5-1.2c.3-.3.7-.5,1.2-.5s.2,0,.3,0c0,0,.2,0,.4,0v.7c-.1-.1-.3-.2-.4-.3-.1,0-.3,0-.4,0-.3,0-.5.1-.7.3-.2.2-.3.5-.3.8s0,.7.3.9c.2.2.4.3.7.3s.2,0,.3,0c.1,0,.3,0,.5-.2l-.3.6h0ZM55.5,36.9h1.2l-.6-1.4h0l-.6,1.4h0ZM54.5,37.6l1.6-3.3h0l1.6,3.3c.2.4.3.7.5.9.1.2.2.3.3.5h-1.2c0,0,0-.2,0-.4,0-.2-.1-.4-.2-.6l-.2-.3h-1.8c-.1.3-.2.6-.3.8,0,.3,0,.4,0,.5h-1.2c.1-.1.3-.3.4-.5.1-.2.3-.5.5-.8h0ZM50.7,37.9v-2.5c0-.2,0-.4,0-.5,0-.1,0-.3-.1-.4h.5c0,0,.5-.2.5-.2,0,.2,0,.3-.1.5,0,.2,0,.4,0,.7v2.4c0,.2,0,.4,0,.6,0,.1,0,.2.1.3h-.9c0,0,0-.2.1-.3,0-.1,0-.3,0-.6ZM49.3,38.4v-.9h-.8s0,0,0,.2c0,0,0,.2,0,.3,0,.1,0,.3.2.3,0,0,.2.1.5.1s.2,0,.4,0c0,0,0,0,0,0ZM48.7,38.9c-.3,0-.6,0-.7-.2-.2-.1-.3-.3-.3-.6s0-.3.2-.5c.1-.1.3-.3.5-.3l1-.4v-.3c0-.2,0-.3-.2-.4-.1-.1-.3-.2-.4-.2-.1,0-.2,0-.3,0-.1,0-.3.1-.4.2l.2-.6c.1,0,.3,0,.4-.1.1,0,.2,0,.4,0,.4,0,.6,0,.8.3.2.2.3.4.3.8v1.2c0,.3,0,.5,0,.6,0,.1,0,.2,0,.3h-.8v-.3l-.5.4s-.1,0-.1,0ZM45.7,37.9v-1.3c0-.2,0-.3,0-.5,0-.2,0-.3-.1-.5h.8v.6l.5-.5c.1,0,.3,0,.4,0,.1,0,.2,0,.3,0v.7c-.1,0-.2,0-.2,0-.1,0-.3-.1-.4-.1-.1,0-.3,0-.5.1h-.1v1.6c0,.2,0,.4,0,.6,0,.1,0,.2.1.3h-.9c0,0,0-.2.1-.3,0-.1,0-.3,0-.6h0ZM44.4,38.9c-.3,0-.4,0-.6-.2-.1-.1-.2-.4-.2-.7v-1.8h-.5s1.1-1.1,1.1-1.1h0v.7h.8v.4h-.8v1.6c0,.2,0,.4.1.5,0,.1.2.2.3.2,0,0,.2,0,.3,0,0,0,.2,0,.3-.1l-.3.6c0,0-.2,0-.3,0-.1,0-.2,0-.3,0ZM40.3,37.9v-1.3c0-.2,0-.3,0-.5,0-.2,0-.3-.1-.5h.8v.5l.5-.5c.2,0,.3,0,.4,0,.3,0,.5,0,.7.3.2.2.2.4.2.8v1.2c0,.3,0,.5,0,.6,0,.1,0,.2,0,.3h-.9c0,0,0-.2.1-.3,0-.1,0-.3,0-.6v-1.2c0-.2,0-.3-.1-.4,0,0-.2-.1-.4-.1s-.3,0-.5.1h-.1v1.6c0,.2,0,.4,0,.6,0,.1,0,.2.1.3h-.9c0-.1,0-.2.1-.3,0-.1,0-.3,0-.6h0ZM39.1,36.9c0-.3,0-.5-.2-.6-.1-.1-.3-.2-.5-.2h0c-.2,0-.4,0-.5.3,0,.1-.2.3-.2.6,0,0,1.3,0,1.3,0ZM38.7,38.9c-.5,0-.8-.1-1.1-.4-.3-.3-.4-.7-.4-1.1s.1-.9.4-1.2c.3-.3.6-.5,1-.5h0c.4,0,.7.1.9.4.2.2.3.6.3,1.1v.3h-1.8c0,.3.1.5.3.7.2.2.4.4.7.4s.3,0,.4,0c.1,0,.3,0,.4-.1l-.3.6c-.1,0-.3,0-.3,0-.1,0-.2,0-.3,0ZM36.8,38.6c-.3.1-.5.2-.7.3-.2,0-.4,0-.7,0-.7,0-1.2-.2-1.7-.6-.4-.4-.7-.9-.7-1.6s.2-1.3.7-1.7c.5-.5,1.1-.7,1.8-.7s.4,0,.6,0c.2,0,.4,0,.6.2v.7c-.2-.1-.4-.2-.6-.3-.2,0-.5-.1-.7-.1-.5,0-.9.2-1.2.5-.3.3-.5.8-.5,1.3s.1.9.4,1.3c.3.3.7.5,1.1.5s.6,0,.8-.1.5-.2.7-.4v.7s0,0,0,0ZM29.8,38.4v-.9h-.8s0,0,0,.2c0,0,0,.2,0,.3,0,.1,0,.3.1.3.1,0,.2.1.5.1s.2,0,.4,0h0ZM29.1,38.9c-.3,0-.6,0-.7-.2-.2-.1-.3-.3-.3-.6s0-.3.2-.5c.1-.1.3-.3.5-.3l1-.4v-.3c0-.2,0-.3-.2-.4-.1-.1-.3-.2-.4-.2-.1,0-.2,0-.4,0-.1,0-.3.1-.4.2l.2-.6c.1,0,.3,0,.4-.1.1,0,.2,0,.4,0,.4,0,.6,0,.8.3.2.2.3.4.3.8v1.2c0,.3,0,.5,0,.6,0,.1,0,.2,0,.3h-.8v-.3l-.5.4s-.1,0-.1,0ZM25.1,37.9v-1.3c0-.2,0-.3,0-.5,0-.2,0-.3-.1-.5h.8v.5l.5-.5c.2,0,.3,0,.4,0,.3,0,.5,0,.7.3.2.2.2.4.2.8v1.2c0,.3,0,.5,0,.6,0,.1,0,.2,0,.3h-.9c0-.1,0-.2.1-.3,0-.1,0-.3,0-.6v-1.2c0-.2,0-.3-.1-.4,0,0-.2-.1-.4-.1s-.3,0-.5.1h-.1v1.6c0,.2,0,.4,0,.6,0,.1,0,.2.1.3h-.9c0,0,0-.2.1-.3,0-.1,0-.3,0-.6h0ZM23.9,34.4c.1,0,.2,0,.3.1,0,0,.1.2.1.3s0,.2-.1.3c0,0-.2.1-.3.1-.1,0-.2,0-.3-.1,0,0-.1-.2-.1-.3,0-.1,0-.2.1-.3,0,0,.2-.1.3-.1ZM23.6,37.9v-1.3c0-.2,0-.3,0-.5,0-.2,0-.3-.1-.5h.9c0,0,0,.2-.1.4,0,.1,0,.3,0,.6v1.3c0,.2,0,.4,0,.6,0,.1,0,.2.1.3h-.9c0-.1,0-.2.1-.3,0-.1,0-.3,0-.6ZM20.3,37.9v-2.5c0-.2,0-.4,0-.5,0-.1,0-.3-.1-.4h.5c0,0,.5-.2.5-.2,0,.2,0,.3-.1.5,0,.2,0,.5,0,.7v.7l.5-.5c.2,0,.3,0,.4,0,.3,0,.5,0,.7.3.2.2.2.4.2.8v1.2c0,.3,0,.5,0,.6,0,.1,0,.2,0,.3h-.9c0-.1,0-.2.1-.3,0-.1,0-.3,0-.6v-1.2c0-.2,0-.3-.1-.4,0,0-.2-.1-.4-.1s-.3,0-.5.1h-.1v1.6c0,.2,0,.4,0,.6,0,.1,0,.2.1.3h-.9c0-.1,0-.2.1-.3,0-.1,0-.3,0-.6ZM19.7,38.6c-.2.1-.5.2-.7.3-.2,0-.4,0-.7,0-.7,0-1.2-.2-1.7-.6-.4-.4-.7-.9-.7-1.6s.2-1.3.7-1.7c.5-.5,1.1-.7,1.8-.7s.4,0,.6,0c.2,0,.4,0,.6.2v.7c-.2-.1-.4-.2-.6-.3-.2,0-.5-.1-.7-.1-.5,0-.9.2-1.2.5-.3.3-.5.8-.5,1.3s.1.9.4,1.3c.3.3.7.5,1.1.5s.6,0,.8-.1c.3,0,.5-.2.7-.4v.7s0,0,0,0Z"/>
    </g>
  </g>
</svg>