<?xml version="1.0" encoding="UTF-8"?>
<svg xmlns="http://www.w3.org/2000/svg" version="1.1" viewBox="0 0 128 48.9">
  <defs>
    <style>
      .cls-1 {
        fill: #811f45;
        fill-rule: evenodd;
      }

      .cls-2 {
        fill: #231f20;
      }
    </style>
  </defs>
  <!-- Generator: Adobe Illustrator 28.7.1, SVG Export Plug-In . SVG Version: 1.2.0 Build 142)  -->
  <g>
    <g id="_图层_1" data-name="图层_1">
      <path class="cls-1" d="M27.1,20.4c-.6,0-1.2-.4-1.2-1s.5-1,1.2-1,1.2.4,1.2,1-.5,1-1.2,1h0ZM27.8,15.9c-1.1-.5-2.2.2-2.5,1.3-.1.6-.2,1.3-.3,1.9,0,.8.1,1.4.2,2,0,.5.3,1,.6,1.4.4.5,1,.7,1.7.5.6-.2,1.1-.6,1.2-1.3.4-1.6.4-3.1,0-4.7-.1-.5-.4-1-1-1.2Z"/>
      <path class="cls-1" d="M35.8,25.3c-.4.4-1,.5-1.5.6-.2,0-.4,0-.6,0-.3,0-.3.1-.3.4,0,.4,0,.9-.1,1.3-.2.7-.7,1.1-1.4,1.4-.3.1-.7.3-1,.4-.5.3-.6.6-.4,1.1.2.7.6,1.3,1,1.8.5.5,1,1.1,1.5,1.5.7.6,1.6,1.1,2.3,1.7.1,0,.2.2.3.4-.1.1-.2.2-.4.3-.2.1-.4.2-.5.3-.5.3-1.1.2-1.5-.1-.9-.7-1.7-1.4-2.4-2.2-.8-1-1.5-2.1-1.9-3.4-.1-.4-.2-.8-.1-1.2.1-.9.7-1.3,1.5-1.6.4-.1.7-.3,1-.5.4-.3.5-.8.4-1.3,0,0-.2-.2-.3-.2-.7,0-1.4,0-2.1.3,0,0-.2.1-.2.2-.2.2-.4,0-.5-.2-.1-.5.2-1.3.6-1.5.4-.3.8-.3,1.2-.3.3,0,.6,0,.9,0,.2,0,.4,0,.4-.3,0-.6,0-1.2,0-1.8,0-.3,0-.5-.3-.7-.6-.5-.5-1.7.2-2.2.6-.4,1.3-.5,1.8,0,.6.5.7,1.4.2,2-.4.4-.5.8-.4,1.4,0,.4,0,.8,0,1.2,0,.4,0,.4.4.4,1,0,1.6-.6,1.6-1.6,0-.8,0-1.6,0-2.3,0-1-.4-1.7-1-2.4-.4-.5-1-.9-1.4-1.4-.7-.9-.8-1.9.2-2.8,0,0,.2-.1.3-.1,0,0,.2.2.2.3,0,.4.2.8.4,1.2.4.6.9,1.1,1.3,1.6.8.9,1.3,1.9,1.3,3.2v3.3c0,.7-.2,1.4-.8,1.8ZM27.8,25c0,2,0,4.1,0,6.1s0,3.1,0,4.7c0,.4-.2.6-.5.6-.2,0-.5,0-.7,0-.1,0-.2-.2-.3-.3,0-.1,0-.3,0-.5,0-1.8,0-3.5,0-5.3h0c0-1.8,0-3.6,0-5.4,0-.3-.1-.4-.4-.5-1-.4-1.5-1.1-1.8-2.1-.3-1.2-.4-2.4-.4-3.6,0-.9.1-1.8.6-2.7.3-.5.7-.8,1.1-1,.2-.2.5-.4.7-.6.1-.1.2-.4.2-.5,0-.3,0-.6,0-.9,0-.5.3-.8.8-.8.5,0,.8.3.8.8,0,.2,0,.3,0,.5,0,.7.2,1.2.8,1.6.9.5,1.4,1.3,1.6,2.3.4,1.7.3,3.5-.2,5.2-.3.9-.9,1.6-1.8,2-.3.1-.4.3-.4.6ZM25.3,26.4c0,.2-.2.3-.3.1-.5-.5-1.2-.5-1.9-.6-.8,0-.8,0-.7.8,0,.5.3.7.7.9.4.2.8.3,1.2.5,1.1.6,1.2,1.3,1,2.3-.2.8-.6,1.6-1,2.3-.9,1.4-2,2.5-3.3,3.5-.6.5-1.2.3-1.8,0-.2-.1-.3-.2-.5-.4-.2-.1-.1-.2,0-.3.9-.6,1.8-1.2,2.6-1.9,1-.8,1.8-1.7,2.3-2.9,0-.2.1-.3.2-.5,0-.3,0-.7-.4-.9-.4-.2-.8-.4-1.3-.6-.8-.4-1.3-1-1.2-1.9,0-.2,0-.5,0-.7,0-.3-.1-.4-.4-.4-.6,0-1.1,0-1.6-.3-.6-.3-1-.8-1.1-1.4,0-.5-.1-1-.2-1.6,0-.9,0-1.8,0-2.7,0-.9.4-1.7.9-2.4.5-.6,1.1-1.3,1.5-1.9.3-.4.6-.9.6-1.5,0-.3.2-.4.5-.2.9.7.9,1.8.2,2.7-.3.4-.7.8-1.1,1.1-.9.8-1.4,1.8-1.4,3.1,0,.7,0,1.5,0,2.2.1,1.1.7,1.5,1.7,1.5.2,0,.3-.2.3-.4v-1.4c0-.5,0-.8-.5-1.2-.4-.4-.4-1.2-.2-1.7.3-.5.9-.7,1.4-.7,1.1,0,1.5,1.2,1.3,2,0,.2-.2.3-.3.5-.1.2-.2.4-.3.7,0,.6,0,1.1,0,1.7,0,.4,0,.4.4.4.4,0,.8,0,1.2,0,1.1.1,1.4,1,1.3,1.9h0ZM40,24.8h0c0-3.3,0-6.6,0-9.9,0-.9-.1-1.8-.5-2.6-.2-.5-.5-1-.8-1.4-.5-.7-1.2-1.3-2-1.6-.6-.3-1.2-.5-1.8-.6-.6-.1-1.3-.1-2-.1-3.9,0-7.8,0-11.7,0-1.2,0-2.4,0-3.5.6-.5.2-1,.6-1.4.9-.5.4-.9.8-1.2,1.4-.3.6-.6,1.1-.8,1.7-.2.8-.3,1.6-.3,2.5,0,5.5,0,11.1,0,16.6,0,.7,0,1.3,0,2,0,1.2.2,2.3.7,3.4.3.5.5,1,.9,1.3.6.6,1.4,1.2,2.2,1.6.6.3,1.3.5,2,.5,4.7,0,9.5,0,14.2,0,1.3,0,2.4-.5,3.4-1.2.7-.5,1.2-1.1,1.6-1.8.6-1,.9-2.1.9-3.2,0-3.3,0-6.6,0-9.9h0Z"/>
      <path class="cls-2" d="M66.1,13.1c0,0-.1,0-.2,0,0,0-.1,0-.2-.1,0,0-.1-.2,0-.2,0,0,0-.1,0-.2,0,0,0,0,0,0,.3,0,.5,0,.7.3.1.1.2.3.2.5,0,0,0,0,0,.1,0,.2,0,.4-.1.5,0,.1-.2.2-.3.3,0,0,0,0-.1,0-.1,0-.2,0-.4,0,0,0,0,0-.1,0,0,0,0,0,0-.2,0,0,0,0,0,0l.3-.4s0,0,0,0v-.4c.1,0,.2,0,.2,0h0ZM72.4,14.6c0,0,0-.2,0-.3,0,0,0-.1,0-.2,0,0,.2-.2.2-.3,0,0,0,0,0-.1,0-.2,0-.4,0-.6,0,0,0,0,0,0,0,0,.1,0,.2,0,0,0,.2,0,.3,0,.2,0,.3.2.4.3,0,.2,0,.4,0,.6,0,.2,0,.3-.1.5,0,0,0,0,0,.1,0,0,0,0-.1,0,0,0,0,0,0,0,0,0-.1,0-.2.1,0,0-.1,0-.2,0-.2,0-.3,0-.5-.1h0s0,0,0,0ZM75.6,21.4c0,0-.2,0-.2,0,0,0-.1-.2-.2-.2,0,0,0,0,0,0,0-.1-.2-.3-.3-.4-.1-.1-.3-.2-.4-.4,0,0,0-.2-.1-.3,0,0,0-.2,0-.2,0,0,0,0,0,0,0,0,0-.1.1-.1.1,0,.2,0,.3,0,0,0,0,0,0,0,.2.1.3.2.5.4,0,0,.2.1.2.2,0,0,.1.1.2.2,0,0,0,0,.1,0,0,0,0,0,0,0,0,.1.1.2,0,.4,0,.1-.1.3-.2.4,0,0,0,0,0,0-.1,0-.2,0-.4,0,0,0,0,0,0,0h0ZM73.1,20.1s0,0,.1,0c0,0,0,0,0-.1,0,0,0,0,0-.1,0,0,0-.1-.1-.1,0,0-.2,0-.3,0v.3s.2.1.2.1ZM73.1,16.6h.3c0,0,.2,0,.2-.2,0,0,0,0,0,0,0,0,0,0,0-.1,0,0,0-.2,0-.2h0c0,0,0,0,0,0,0,.1-.2.2-.2.3,0,0,0,.2-.1.3h0ZM72.7,18h.5c0,0,0,0,.1,0,0,0,0-.2,0-.3-.3,0-.6,0-.7.4ZM73.5,18.4l-1,.6v.2c.1,0,.2,0,.3,0,.1,0,.2,0,.3-.1,0,0,.1,0,.2-.1,0,0,.2,0,.2,0v-.5c0,0,0,0,0,0ZM71.9,17.2v-.4c0-.2,0-.4,0-.6,0-.1,0-.3,0-.4,0,0,0-.1,0-.2,0,0,0,0,0,0,.1.1.3.2.5.2,0,0,.2,0,.2,0,.2-.1.4-.3.5-.4,0,0,0,0,0,0,0,0,.1,0,.2-.1.2,0,.3-.1.5-.1.2,0,.3,0,.4.2,0,.1.1.2.2.4,0,0,0,0,0,0v.4c0,0,0,.2,0,.3,0,0,0,0,0,0,0,0,0,0,0,0,0,0,.1,0,.2,0,.2-.1.4-.3.6-.4.2-.1.4-.2.7-.2,0,0,.2,0,.3,0,.1,0,.2.1.3.2,0,.1,0,.2,0,.3,0,0,0,0,0,0,0,0-.2.1-.3.1,0,0-.1,0-.2,0,0,0-.1,0-.2,0,0,0-.1,0-.2.1-.4.3-.8.6-1.2.8-.1,0-.2.1-.3.2,0,0,0,0,0,0v.6c-.1,0-.1,0-.1,0h0c.3-.1.5-.2.8-.3.3-.1.5-.1.8-.1.2,0,.4,0,.5,0,0,0,.2,0,.2,0,.1,0,.2.2.1.3,0,.1-.1.2-.2.3,0,0,0,0-.1,0-.1,0-.3,0-.4,0-.2,0-.4,0-.7,0-.2,0-.5,0-.7,0-.3.1-.5.2-.7.4,0,0,0,0,0,0,0,0-.1.2-.1.3,0,.3,0,.6,0,.9,0,.2,0,.4,0,.7,0,.2,0,.5,0,.7,0,0,0,0,0,0,0,0-.2,0-.3,0,0,0-.2,0-.3,0,0,0,0,0,0,0,0,0-.1-.2-.2-.3,0,0-.1-.2-.2-.3,0,0-.1,0-.1-.2,0,0,0-.1,0-.2,0,0,0-.2,0-.3,0-.2-.1-.2-.3-.2,0,0-.1,0-.2,0,0,0,0,0,0,0,0,0,0,.1,0,.2,0,0,0,.2,0,.2,0,0,0,0,0,0,0,0,0,0,.1,0,0,0,0,0,0,0h0c0,0,0,0,.1.2,0,0,0,.2,0,.2,0,0,0,0,0,0-.3.2-.5.3-.8.5,0,0-.1,0-.2.1,0,0,0,0-.1,0,0,0,0,0,0-.1,0,0,0-.2-.1-.3,0,0,0,0,0,0,0-.1,0-.2,0-.3,0,0,0-.1,0-.2,0,0,0-.2.1-.2,0,0,0,0,0,0v-.3c-.1,0-.2,0-.3,0,0,0,0,0,0,0,0,0,0,.1-.1.2,0,0,0,0,0,0-.1,0-.2,0-.3,0,0,0,0,0,0,0,0,0,0,0,0-.1,0-.2,0-.3,0-.5,0,0,0,0,0,0,0,0,.2-.2.2-.2,0,0,0,0,0,0,.3-.2.6-.4.9-.6,0,0,.1,0,.2-.1,0,0,0-.1,0-.2,0,0,0-.1,0-.2,0,0,0-.1,0-.2,0,0,0,0-.1,0,0,0-.1,0-.2,0-.2,0-.3,0-.5,0-.1,0-.2,0-.3-.1,0,0-.1-.1-.2-.2-.1-.1-.2-.3-.1-.4v-1c.1,0,.1,0,.2,0h.1c0,0,.2,0,.2,0,0,0,0,.1,0,.2,0,0,0,.2,0,.3,0,.2.1.3.3.3.1,0,.4,0,.5,0h0ZM93.6,13.6c0,0,.2,0,.3,0,.2,0,.4,0,.6.1.2,0,.4.2.6.3.2.2.3.5.3.8,0,0,0,0,0,.1,0,0,0,0-.1,0,0,0-.1,0-.2,0,0,0,0,0-.1,0-.2,0-.3,0-.5,0-.1,0-.3,0-.4,0,0,0,0,0,0,0,0,0,0,0,0,0,0-.1,0-.2,0-.3,0-.1,0-.2-.1-.3,0,0,0-.1-.1-.2,0,0,0,0,0-.1v-.4ZM94.9,16.8c0,0-.1-.1-.2-.2,0,0-.2,0-.2.2,0,0-.1.2-.2.2l-.3.4c0,0,0,0,0,.1,0,0,0,0,0,0,0,0,.1,0,.2,0,0-.2.1-.3.2-.4,0,0,0,0,0,0,.1-.1.2-.2.3-.4ZM93.9,20.1h0c0,0,.2,0,.3,0,.1,0,.2,0,.3.1,0,0,0,0,0,0,0,.1,0,.2-.1.3,0,.2,0,.4,0,.7,0,0,0,0,0,0,.1,0,.3,0,.4,0,0,0,.1,0,.2,0,.1,0,.2,0,.3-.1,0,0,0,0,0,0,0,0,.1,0,.1-.1,0,0,0-.2,0-.3,0-.2,0-.3,0-.5,0,0,0-.2,0-.3,0,0,0-.1,0-.2,0-.2-.2-.4-.2-.6,0-.1,0-.3.1-.4h.3c0,0,.3.1.3.1,0,0,0,.1,0,.2,0,.1,0,.3.1.4,0,0,0,.2.1.2.2.2.4.4.6.6.1.1.2.2.4.4,0,0,0,0,0,0,0,.2.2.3.1.5,0,0,0,.2-.2.2,0,0,0,0-.2,0-.1,0-.2,0-.4,0,0,0,0,0,0,0-.2,0-.3,0-.4,0,0,0-.2,0-.2,0-.2,0-.5.1-.7.2,0,0-.1,0-.2,0-.2,0-.4.2-.5.2-.1,0-.3,0-.4,0-.1,0-.2,0-.3,0,0,0,0,0,0-.1,0-.1,0-.3,0-.4,0-.3.1-.5.2-.8h0c-.1,0-.2,0-.3,0,0,0,0,0,0,0-.2.2-.3.3-.5.5-.2.3-.5.5-.8.8,0,0-.2.1-.2.2,0,0,0,0,0,0-.1,0-.2,0-.2-.1,0-.1,0-.3,0-.4,0,0,0-.2.1-.2.2-.3.5-.7.7-1,0,0,0,0,0-.2,0-.1,0-.2,0-.3,0,0,0-.2,0-.3,0,0,0-.1-.1-.2,0,0,0-.1,0-.2,0,0,0-.2,0-.3,0,0,0,0,.1-.1,0,0,0,0,.1,0,0,0,.1,0,.2,0l.3-.3s0,0,0,0c0,0,0,0,0-.1,0,0,0-.1-.1-.2,0,0-.2-.1-.3,0,0,0,0,0-.1,0,0,0,0,0,0,0l-.6.8s0,0,0,0c0,0-.2-.1-.3-.2,0,0,0,0,0,0-.1-.2-.3-.4-.4-.6,0,0,0,0,0,0h-.3s0,0,0,0c0,0-.1,0-.2,0-.1.2-.2.3-.3.5-.2.4-.3.7-.4,1.1,0,.3-.1.6-.2.9,0,.1,0,.2,0,.3,0,0,0,.2,0,.3,0,.1,0,.2-.2.3-.1,0-.2.1-.4.1-.1,0-.3,0-.4,0,0,0,0,0,0,0,0,0,0,0,0,0,0,0,0-.1,0-.2,0,0,0,0,0,0,0,0,0,0,0,0,0,0-.1-.2-.2-.3,0-.2,0-.3-.1-.5,0,0,0-.1,0-.2,0-.1,0-.2.1-.1,0,0,0,0,.1,0,0,0,0-.1,0-.2,0-.1,0-.3.1-.5,0-.4,0-.9,0-1.3,0-.1,0-.3,0-.4,0,0,0-.2,0-.2,0,0,0-.1.2-.2,0,0,.1,0,.2,0,0,0,0,0,.1,0,0,0,.1,0,.2,0,0,0,0,0,.1,0,.1,0,.2,0,.3,0,0,0,.2,0,.3,0,0,0,0,0,0,0,0-.1,0-.2-.1-.3,0,0,0,0,0-.2v-.2c0-.1,0-.3,0-.4,0-.2,0-.3,0-.5,0,0,0-.2,0-.3,0,0,0-.2,0-.2,0,0,0,0,0-.1,0,0,0,0,0,0,0,.1-.2.3-.3.4,0,0,0,.1,0,.2,0,0,0,0,0,.1,0,0-.2.2-.3.2,0,0-.2.1-.3.2,0,0-.2,0-.2,0-.2,0-.3,0-.5,0,0,0-.1,0-.2,0,0-.1,0-.3,0-.4,0,0,0,0,.1,0,0-.2.2-.4.3-.6.3-.4.7-.7,1.1-1,0,0,0,0,.1,0,.1,0,.2,0,.3,0,0,0,0,0,.1,0,0,0,.2.1.2.2.1,0,.2.2.3.3,0,0,0,0,0,0,0,.3,0,.5,0,.8,0,0,0,0,0,0,0,0,0,0-.1.1,0,0,0,0,0,.1v.4c0,0,0,.2,0,.3.2.3.3.5.4.8,0,0,0,0,0,0,0,0,.1,0,.2,0,0,0,.1,0,.2,0,0,0,0,0,0-.1,0-.1,0-.3.1-.4,0-.1.2-.3.3-.4,0,0,.1-.2.2-.2,0-.1.2-.3.2-.4,0,0,.1-.2.2-.2,0,0,0,0,0,0,.1,0,.2,0,.4,0,0,0,0,0,0,0,0,0,0,0,0,0,0,0,.1.1,0,.2,0,.1,0,.2,0,.4,0,0,0,0,0,0,0,0,0,0,0,0,0,0,.1,0,.2,0,.2-.1.4-.2.6-.3,0,0,0,0,0,0,0,0,0-.2.2-.2.2-.1.3-.2.5-.2,0,0,0,0,0,0,.3,0,.6,0,.8,0,0,0,.1,0,.2,0,.2,0,.2.2.2.4,0,0,0,0,0,0,0,0,0,0,0,.1-.3.2-.6.4-1,.6-.2.1-.4.3-.7.4l-.3.2s0,0,.1.1c0,0,0,0,0,0,0,0,0,.1,0,.2,0,0,0,0,0,.1,0,.1-.1.3-.2.4,0,0,0,0,0,0,0,0,0,0,0,0,0,0,.1,0,.2.2,0,0,.1.2.2.3,0,0,0,.1,0,.2,0,0,0,0-.1,0-.2,0-.3.2-.4.4,0,.1-.2.2-.2.4,0,0,0,.1,0,.2h0ZM58.8,20.7c0,.1,0,.3,0,.4,0,.2,0,.3,0,.4,0,.2-.3.4-.5.4,0,0,0,0,0,0-.2,0-.2,0-.3-.1-.2-.3-.5-.6-.7-1-.1-.2-.2-.5-.3-.7,0-.2,0-.3,0-.5,0,0,0,0,0,0,0-.1,0-.2.2-.2,0,0,.2,0,.3,0,.1,0,.2,0,.3,0,0,0,0,0,0,0,.3.3.6.7.9,1.1,0,0,0,0,0,.1h0ZM56.9,17.5c0,0-.2,0-.2,0,0,0,0-.1,0-.2,0,0,0-.1,0-.2,0,0,.2-.2.3-.2.1,0,.2-.1.4-.2,0,0,0,0,.1,0,0,0,.2,0,.3,0,0,0,0,0,0,0-.3.2-.5.5-.8.8,0,0,0,0-.1,0ZM55.6,17.6c0,.2,0,.5-.1.7,0,0,0,0,0,0l-.6.2s0,0,0,0h-.4c0,0,0-.2,0-.3,0,0,0,0,0,0,0,0,.1-.1.2-.2,0,0,0-.1.1-.2,0,0,0-.1.1-.1,0,0,.2-.1.3-.2,0,0,0,0,.1,0,.1,0,.3,0,.4,0,0,0,0,0,0,.1ZM60.4,17.2s0,0-.1,0c0,0-.1,0-.2,0-.2,0-.4,0-.6,0-.3,0-.5,0-.8,0,0,0,0,0-.1,0,0,0,0,0-.1,0,0,.1-.1.2-.2.3,0,0,0,0-.1.2,0,.1-.2.3-.3.3,0,0-.2,0-.3,0,0,0-.1,0-.2,0,0,0,0,0,0,0,0,0,0,0,0,0,0,0,0,0,0-.2,0,0,0,0,0,0,0,0,0,0,.1,0,.1,0,.2-.1.3-.2,0,0,0-.1.2-.2,0,0,0,0,.1,0l.6-.7s0,0,0,0c0,0,0-.1,0-.2,0,0,0,0,0,0-.1,0-.3,0-.4,0-.1,0-.2,0-.3,0,0,0,0,0-.1,0-.2,0-.4,0-.6,0-.1,0-.3,0-.4.1,0,0,0,0,0,0,0,0,0,0,0,0v-1.3s0,0,0-.1c0-.2-.2-.5-.3-.7,0-.1,0-.3,0-.5,0-.2,0-.2-.1-.4h0s0,0,0,0c0,0-.1,0-.2,0,0,0,0,0,0,0,0,0,0,0-.1,0,0,0,0,.1,0,.2,0,.2,0,.4,0,.6,0,0,0,.2,0,.3,0,.1,0,.2,0,.3,0,.5,0,.9,0,1.4,0,.1,0,.2,0,.3,0,.1,0,.3,0,.4h0c-.3.1-.5.2-.8.3-.2,0-.3.1-.5.2-.1,0-.2.1-.3.2,0,0,0,0,0,0,0,0-.2,0-.2,0,0,0,0,0,0,0,0-.1,0-.2,0-.3,0,0,0,0,0-.1,0-.1-.1-.2-.2-.3,0-.1-.2-.2-.4-.3,0,0,0,0,0,0,0,0,0,0,0,.1,0,0,0,.2,0,.3.2.6.3,1.2.5,1.8,0,0,0,0,0,0,0,0,.1.1.2.2,0,0,0,0,0,0-.9.3-1.7.7-2.6,1-.1,0-.2,0-.3,0,0,0,0,0-.1,0,0,0,0,0,0,0,0,.1,0,.2,0,.3,0,0,0,0,0,.1,0,0,0,0,0,0,0,0,.2.2.3.2,0,0,0,0,.1,0,0,0,.2,0,.3,0,0,0,.2,0,.3,0,.1,0,.2,0,.3-.1.5-.2,1-.4,1.6-.5.1,0,.2,0,.4,0,0,0,0,0,.1,0,0,0,.2,0,.3,0h0c0,.2.1.3.2.4,0,0,0,0,.1,0,0,0,0-.1,0-.2,0-.2,0-.3,0-.5s0,0,0,0c.1,0,.3-.1.4-.2,0,0,0,0,0,0h0c0,.5-.2.9-.3,1.3,0,.1-.1.3-.2.4,0,0,0,.1-.2.1,0,0-.1,0-.2,0,0,0,0,0-.1,0,0,0-.1,0-.2,0,0,0,0,0-.1,0-.1,0-.3,0-.4.1,0,0-.2.1-.2.2,0,0,0,0,0,.1,0,0,0,.1,0,.2,0,0,0,.1,0,.2,0,0,0,.1,0,.2,0,0,0,.1.1.2,0,.1.2.2.4.3.2,0,.3,0,.5,0,.3,0,.5-.2.7-.4.2-.2.4-.5.5-.8.2-.5.4-1,.5-1.5,0-.3.1-.5.1-.8,0,0,0,0,0,0,0,0,0-.1.1-.2,0,0,0,0,.1,0,.8-.2,1.6-.4,2.4-.6.3,0,.6-.1.9-.1.1,0,.2,0,.3-.2,0-.1.2-.2.2-.4,0,0,0-.1,0-.2h0ZM80.5,13.9c0,0,0,.1,0,.2,0,0,0,.2,0,.2,0,.2.2.2.4.2.1,0,.3,0,.4,0,0,0,.1,0,.2,0,0,0,0,0,0-.1,0-.2,0-.3,0-.5,0,0,0-.1.1-.2,0,0,.1,0,.2,0,.1,0,.3,0,.4,0,0,0,0,0,0,0,0,0,0,.1,0,.2,0,0,0,0,0,0,.1.1.2.2.4.4,0,0,0,0,0,0,.2,0,.4,0,.6,0,.1,0,.3,0,.4,0,0,0,0,0,.1,0,0,0,.2-.2.3-.3,0,0,.2,0,.2,0,0,0,.2,0,.2,0,0,0,0,0,0,0,0,0,0,0,0,0,.2.2.4.3.7.4,0,0,0,0,.1,0,.2,0,.2.2.2.4,0,0,0,.2-.1.3,0,0,0,0,0,0-.2,0-.4,0-.6,0,0,0-.2,0-.3,0,0,0-.2,0-.3,0-.2.1-.4.2-.6.3-.2,0-.3.1-.5.2-.1-.1,0-.3,0-.5h0c.2,0,.4-.2.6-.4,0,0,0,0,0-.1,0,0,0,0,0,0,0,0-.1,0-.2,0-.1,0-.3,0-.4,0,0,0-.1,0-.2,0,0,.1-.1.2-.2.3,0,0,0,.1-.1.2,0,0,0,0,0,0v.2s0,0-.1,0c0,0,0,0,0,0,0,0-.1,0-.2,0,0,0-.1,0-.2,0,0,0,0,0,0,0,0,0,0-.1-.2-.2-.1-.1-.2-.2-.4-.3-.2.1-.3.3-.5.4-.2.1-.4.3-.6.3-.2,0-.3,0-.5,0-.2,0-.3-.1-.3-.3,0,0,0,0,0-.1,0,0,0-.1,0-.2,0-.2,0-.4,0-.6,0,0,0,0,0-.1,0,0,.1-.1.2-.2,0,0,0,0,0,0,.1,0,.2,0,.3,0h0ZM82.6,22.1h0s0,0,.1,0c.3,0,.5-.2.5-.4,0,0,0-.2,0-.3,0-.1,0-.2,0-.3,0-.1-.1-.2-.2-.1,0,0-.1,0-.2,0-.2,0-.5.2-.7.3-.2,0-.4.2-.6.2,0,0,0,0,0,0,0,0,0,0,0,0,0,0,0,.2,0,.2,0,0,.2.1.3.2.1,0,.2,0,.3,0,.2,0,.3,0,.5,0h0ZM84.7,16.6c-.1,0-.3,0-.4,0,0,0,0,0,0,0-.1,0-.3,0-.4.2-.2,0-.4.1-.6.1-.1,0-.2,0-.3,0-.2,0-.3.1-.5.2,0,0-.1,0-.2.1,0,0-.1,0-.2.1,0,0-.1,0-.2,0,0,0-.1,0-.1.1,0,.1-.1.2-.2.3,0,0-.1.2-.2.3,0,.2-.3.3-.4.3,0,0,0,0-.1,0,0,0-.2.1-.2.2,0,0,0,0,0,0,0,.1,0,.3,0,.4,0,.1-.1.2-.2.3,0,0-.1,0-.2.1,0,0,0,0-.1,0,0,0-.1-.1-.2-.1-.2,0-.3-.2-.2-.4,0-.3,0-.5,0-.8,0,0,0-.2,0-.2,0-.1,0-.3,0-.4h0c0,0,.3-.1.3-.1h.2s0,0,0,0h0c.4-.3.9-.5,1.4-.8,0,0,.2-.1.3-.2,0,0,.1,0,.2-.1.2-.1.3-.1.5-.2.2,0,.5,0,.7,0,.2,0,.5,0,.7,0,.1,0,.2,0,.3,0,.2,0,.4,0,.6,0,.3,0,.6,0,.9.2.1,0,.3.1.4.2.2.1.2.4.2.6,0,0,0,0,0,0,0,0-.1.2-.2.2,0,0,0,0,0,0-.2,0-.4,0-.6.1-.2,0-.3.1-.5.2,0,0-.1,0-.2.1,0,0-.2.2-.3.2-.2,0-.4.2-.5.4,0,0,0,.2-.1.3,0,.2,0,.3,0,.5,0,.2.2.4.3.5,0,0,0,0,0,0,.3,0,.6,0,.9,0h.4c0,0,.1,0,.2.1,0,0,0,0,0,.2,0,.2,0,.3,0,.5,0,0,0,0,0,0,0,0,0,0,0,0,0,0,0,0,0,0,0,0-.2,0-.3,0,0,0-.2,0-.2,0-.1,0-.2,0-.3,0-.1,0-.2,0-.3,0s0,0,0,0c0,0-.1,0,0,.1,0,.2,0,.3,0,.5,0,.2,0,.4,0,.6,0,.1,0,.3,0,.4,0,.4-.2.7-.7.9-.3,0-.5,0-.8,0-.3,0-.5-.2-.7-.4,0,0-.1-.1-.2-.2,0,0-.1-.2-.2-.3,0,0,0,0-.1-.1,0,0-.2,0-.3-.1-.2,0-.3-.2-.4-.3-.1-.2-.3-.4-.4-.6,0,0,0-.2-.1-.2,0,0,0-.1,0-.2h0c.3,0,.6,0,.9,0,.2,0,.4,0,.6,0l1.1-.3h0v-.3s0,0,0,0c-.1-.2-.2-.4-.3-.6,0,0,0,0,0,0,0,0-.1,0-.2-.2,0,0,0-.2-.1-.2,0,0,0-.2,0-.3,0,0,.1-.2.1-.3,0,0,0-.2,0-.3,0,0,0,0,0,0,0,0,0,0,.2,0,0,0,.1,0,.2,0,0,0,.2,0,.3,0,0,0,0,0,0,0,0,0,0,0,0,0,.1,0,.2,0,.4,0,.1,0,.3,0,.4-.1,0,0,0,0,0,0,.2-.2.3-.4.5-.6,0,0,.1-.1.2-.2,0,0,0,0,0-.1,0,0,0-.1,0-.2h0ZM66,20.4c0-.1.2-.3.3-.4,0,0,0,0,.1,0,0,0,0,0,0,.1,0,0,0,0,0,.1,0,0,0,.2,0,.2,0,.1,0,0,0,.2,0,0,0,0,0,0,.1,0,.2.2.3.3,0,0-.2,0-.3.1,0,0,0,0,0,0-.1,0-.3-.1-.4-.2-.2-.1-.2-.3-.1-.5ZM68.5,18s0,0,0,0c-.1-.1-.3-.2-.4-.1-.2,0-.4.1-.5.2,0,0-.2,0-.2.1-.1,0-.3.2-.4.3,0,0,0,0-.1,0-.2,0-.4,0-.6,0,0,0,0,0-.1,0-.1,0-.3-.1-.4-.2h0c0-.1,0-.2.1-.4,0,0,0,0,0,0,.1,0,.3-.2.4-.2.3,0,.6-.2.9-.4,0,0,0,0,0,0,0,0,0-.1.1-.2-.1-.1-.3-.2-.5-.3-.1,0-.3,0-.4,0-.1,0-.2,0-.3.1,0,0-.1.1-.2.2h-.2c0-.1,0-.2,0-.2.1-.1.2-.2.4-.3,0,0,.1-.1.2-.2,0,0,.2-.1.2-.2,0,0,0,0,0,0,0,0,0-.1.2-.1.2,0,.4-.1.6-.3,0,0,0,0,0,0,0-.2,0-.3-.2-.4,0,0-.2,0-.3,0-.1,0-.2,0-.3,0-.2,0-.3,0-.5.1,0,0,0,0-.1,0,0,0-.2.2-.2.2,0,0,0,0-.1,0-.1,0-.3,0-.4,0-.2,0-.5,0-.7,0-.3,0-.7,0-1,0,0,0,0,0,0,0,0,0,0,0,0,0,0,.2,0,.4,0,.7,0,0,0,.1,0,.2,0,0,0,.2,0,.3,0,0,.1.1.2,0,.4-.2.8-.4,1.2-.6.2,0,.3-.1.5-.2,0,0,0,0,0,0,0,0,0,0,0,0-.2.2-.4.3-.6.5-.1.1-.2.2-.3.3,0,0,0,.2,0,.3,0,.2,0,.4,0,.6,0,0,0,0,0,.1-.3.1-.6.3-.8.4-.3.1-.5.2-.8.4-.1,0-.3.1-.4.1-.1,0-.3,0-.4,0,0,0,0,0,0,0,0,0,0,0,0,.1,0,0,0,.1,0,.2,0,0,0,.2,0,.3,0,.1,0,.3-.1.4,0,0,0,.1,0,.2,0,0,0,.1,0,.2,0,0,0,0,0,0,0,0,0,0,0,0,.1,0,.2,0,.3,0,0,0,.1,0,.2-.1.2-.1.3-.2.5-.3.3-.2.7-.3,1-.4.3,0,.5-.1.8-.2,0,0,0,0,0,0,0,0,.2.1.3.2,0,0,0,0,0,0,0,.2-.2.4-.3.6,0,0,0,.1,0,.2,0,0,0,.1,0,.2,0,0,.1,0,.2.1,0,0,0,0,0,.1,0,.1,0,.3.1.4,0,0,0,.1.2.2.3,0,.6,0,.7-.4h0c0,0,0,0,0,0h0c.4.2.7.4,1,.7,0,0,.2.2.3.2,0,0,0,0,0,0,.1,0,.2,0,.3-.2,0,0,0,0,0,0,0,0,0-.2,0-.2,0-.2,0-.4,0-.6,0-.2,0-.4,0-.6,0-.1,0-.2,0-.3,0,0,0,0,0-.1,0-.1,0-.2,0-.4,0-.2-.1-.3-.3-.4-.1,0-.3,0-.4,0,0,0-.1,0-.2,0-.3.2-.6.4-.9.6-.1,0-.1,0-.3,0,0,0-.2-.1-.2-.2,0,0,0-.1,0-.2,0,0,.1,0,.2-.1.4-.2.7-.3,1.1-.3.2,0,.3,0,.4-.1.1,0,.3-.1.4-.2,0,0,0,0,.1,0h.8c0-.1.2-.2.3-.2v-.4q-.1,0-.1,0ZM49.5,16.6c0,0,0,.2-.1.3,0,0-.1.1-.2.1l-.5.2s0,0,0,0c0-.1,0-.2-.1-.3,0,0,0,0,0,0l.2-.6s0,0,0,0c0,0,0,0,0,0,0,0,.1,0,.2,0h.4c0,0,0,0,.1.2,0,0,0,.2,0,.2ZM47,18.3s0,0,0,0c0,0-.2.2-.3.3,0,0-.1,0-.2-.1,0,0,0,0,0-.1,0,0,0-.1,0-.1,0-.1.1-.2.2-.3,0,0,0,0,0,0,0,0,.1,0,.2.1,0,.1,0,.2,0,.3ZM51.3,15.5c-.3-.2-.5-.3-.8-.5h0s0,0,0,0c-.3.2-.7.4-1,.6-.2.1-.4.2-.7.2,0,0,0,0,0,0,0,0,0,0,0,0,0,0,0-.1,0-.2,0-.3,0-.5-.1-.8,0,0,0,0,0,0l-.8-1.1s0,0,0,0v.2c-.3.2-.4.5-.5.8,0,.1,0,.2,0,.4v1.5s0,.6,0,.6h0c-.3.2-.7.3-1,.6-.1,0-.3,0-.4,0,0,0,0,0,0-.1,0-.1-.1-.2-.3-.3-.1,0-.3,0-.5,0,0,0,0,0,0,0,0,0,0,.1,0,.2,0,.3.2.6.3.9.3.5.6.9,1,1.3,0,0,0,0,.2,0,.2,0,.4,0,.6,0,0,0,.1,0,.2,0,0,0,0,0,0,.1,0,0,0,.1,0,.2,0,.3,0,.6,0,1,0,.2,0,.4,0,.6,0,0,0,.2,0,.2,0,.2.2.4.2.6,0,0,0,.1.1.2,0,0,0,0,.1,0,0,0,0-.1.1-.2,0-.1.1-.3.1-.4,0-.3.2-.6.3-.8,0-.2.1-.3.2-.5.1-.4.2-.8.3-1.2,0,0,0,0,0,0,.4-.2.9-.5,1.3-.7,0,0,.1,0,.2,0,.1,0,.2-.1.3-.2.1-.2.1-.4.1-.6h0c0,0-.2,0-.3,0,0,0-.2,0-.3,0,0,0-.1,0,0-.2,0,0,0-.2.2-.2.3-.2.6-.4.8-.7.2-.3.3-.6.3-.9,0,0,0,0,0-.1h0ZM47.5,25.6c0,0,.2,0,.3,0,.2,0,.4,0,.6,0,.1,0,.2,0,.3,0,0,0,0,0,0,0v1s0,0,0,0h-.3s0,0,0,0c0,0,0,0,0,0v-.7c-.1,0-.1,0-.2,0,0,0-.1,0-.2,0,0,0-.1,0-.2,0,0,0-.1,0-.2,0-.3,0-.7,0-1,.1-.2,0-.4.2-.6.4-.2.2-.3.4-.4.6,0,.2-.1.5-.1.7,0,.3,0,.6.1.8,0,.3.2.5.4.7.2.2.4.3.6.5.2.1.5.2.8.2.2,0,.4,0,.6,0,0,0,.1,0,.2,0,0,0,0,0,0,0v-.7c.1,0,.1,0,.1,0,0,0,0,0,0,0h.3s0,0,0,0v1s0,0,0,0c-.2,0-.4,0-.6.1-.3,0-.5,0-.8,0-.3,0-.5,0-.7,0-.2,0-.4-.1-.6-.2-.2,0-.3-.2-.5-.3-.1-.1-.3-.3-.4-.4-.2-.3-.3-.7-.3-1.2,0-.2,0-.5,0-.7s.2-.4.3-.6c.1-.2.3-.3.4-.4.2-.1.3-.2.5-.3.2,0,.4-.2.6-.2.2,0,.5,0,.7,0h0ZM51.8,26.7s0,0,0,0v.8s0,0,0,0h-.2s0,0,0,0v-.6c-.1,0-.1,0-.1,0h-1.2s0,0,0,0v1.2s0,0,0,0h.7s0,0,0,0v-.4s0,0,0,0h.1s0,0,0,0v1.1s0,0,0,0h-.1s0,0,0,0v-.4c0,0,0,0,0,0h-.7s0,0,0,0v1.3s0,0,0,0h1.3s0,0,0,0v-.6c.1,0,.1,0,.1,0h.2s0,0,0,0v.8s0,0,0,0h-2.6s0,0,0,0h0c0-.1,0-.2,0-.2h.4s0,0,0,0v-2.9s0,0,0,0h-.5s0,0,0,0h0c0-.1,0-.2,0-.2h2.5,0ZM52.3,26.7s0,0,0,0h.9s0,0,0,0l2,2.4v-2.2s0,0,0,0h-.4s0,0,0,0h0c0-.2,0-.2,0-.2h1.1s0,0,0,0h0c0,.2,0,.2,0,.2h-.4s0,0,0,0v3.1s0,0,0,0h0s0,0,0,0l-2.3-2.8v2.5s0,0,0,0h.4s0,0,0,0v.2s0,0,0,0h-1.1s0,0,0,0v-.2s0,0,0,0h.4s0,0,0,0v-2.8s0,0,0,0h-.4s0,0,0,0h0ZM59.1,26.7s0,0,0,0v.8s0,0,0,0h-.2s0,0,0,0v-.6c-.1,0-.1,0-.1,0h-.9s0,0,0,0v2.8s0,0,0,0h.5s0,0,0,0h0c0,.1,0,.2,0,.2h-1.5s0,0,0,0h0c0-.1,0-.2,0-.2h.5s0,0,0,0v-2.8s0,0,0,0h-.9s0,0,0,0v.6c-.1,0-.1,0-.1,0h-.2s0,0,0,0v-.8s0,0,0,0h2.9ZM60.4,28.3s0,0,0,0c.2,0,.4,0,.5,0,.3,0,.4-.1.5-.3,0-.1.1-.2,0-.3,0-.5-.3-.7-1-.7h-.2s0,0,0,0c0,0,0,1.3,0,1.3ZM60.7,26.7c.5,0,.8,0,1,.2.2.2.4.4.4.7s-.2.6-.5.7c-.1,0-.2,0-.3.1.2,0,.4.3.5.6l.5.8s0,0,0,0h.4s0,0,0,0h0c0,.1,0,.2,0,.2h-.8s0,0,0,0l-.5-.9c-.2-.4-.5-.6-.8-.6h0s0,0,0,0v1.3s0,0,0,0h.5s0,0,0,0h0c0,.1,0,.2,0,.2h-1.5s0,0,0,0h0c0-.1,0-.2,0-.2h.5s0,0,0,0v-2.8s0,0,0,0h-.5s0,0,0,0h0c0-.1,0-.2,0-.2,0,0,1.2,0,1.2,0ZM64.4,27.4s0,0,0,0c0,0,0,0,0,0l-.5,1.2s0,0,0,0h1s0,0,0,0l-.5-1.2h0ZM65,30s0,0,0,0h0c0-.1,0-.2,0-.2h.4s0,0,0,0c0,0,0,0,0,0l-.4-1s0,0,0,0h-1.2s0,0,0,0l-.4,1s0,0,0,0h.4s0,0,0,0h0c0,.1,0,.2,0,.2h-1.1s0,0,0,0h0c0-.1,0-.2,0-.2h.4s0,0,0,0l1.3-3.2s0,0,0,0h.1s0,0,0,0l1.2,3.2s0,0,0,0h.4s0,0,0,0h0c0,.1,0,.2,0,.2h-1.4ZM66.6,26.7s0,0,0,0h1.4s0,0,0,0h0c0,.1,0,.2,0,.2h-.5s0,0,0,0v2.8s0,0,0,0h1.2s0,0,0,0v-.6c.1,0,.1,0,.1,0h.2s0,0,0,0v.8s0,0,0,0h-2.5s0,0,0,0h0c0-.1,0-.2,0-.2h.4s0,0,0,0v-2.8s0,0,0,0h-.4s0,0,0,0h0ZM74,25.6c0,0,.2,0,.3,0,.2,0,.4,0,.6,0,.1,0,.2,0,.3,0,0,0,0,0,0,0v1s0,0,0,0h-.3s0,0,0,0c0,0,0,0,0,0v-.7c-.1,0-.1,0-.2,0,0,0-.1,0-.2,0,0,0-.1,0-.2,0,0,0-.1,0-.2,0-.3,0-.7,0-1,.1-.2,0-.4.2-.6.4-.2.2-.3.4-.4.6,0,.2-.1.5-.1.7,0,.3,0,.6.1.8,0,.3.2.5.4.7.3.4.8.6,1.3.6.2,0,.4,0,.6,0,0,0,.1,0,.2,0,0,0,0,0,0,0v-.7c.1,0,.1,0,.1,0,0,0,0,0,0,0h.3s0,0,0,0v1s0,0,0,0c-.2,0-.4,0-.5.1-.1,0-.2,0-.3,0s-.3,0-.4,0c-.2,0-.5,0-.7,0-.2,0-.4-.1-.6-.2-.2,0-.3-.2-.5-.3-.1-.1-.3-.3-.4-.4-.2-.3-.3-.7-.3-1.2,0-.2,0-.5,0-.7.1-.4.4-.7.7-1,.2-.1.3-.2.5-.3.2,0,.4-.2.6-.2.2,0,.4,0,.7,0h0ZM77.5,26.8c-.4,0-.7.1-.9.4-.2.3-.3.6-.3,1s0,.5.2.8c.1.3.3.5.5.6.2.2.5.2.7.2.4,0,.7-.2.9-.5.2-.3.3-.6.3-1s-.1-.8-.3-1.1c-.2-.3-.6-.5-1-.5ZM77.6,26.6c.5,0,1,.2,1.3.5.3.3.5.7.5,1.3s-.2.9-.5,1.3c-.3.3-.8.5-1.3.5s-1-.2-1.3-.5c-.3-.3-.5-.8-.5-1.3s.2-.9.5-1.3c.3-.3.8-.5,1.3-.5ZM79.7,26.7s0,0,0,0h.9s0,0,0,0l2,2.5v-2.2s0,0,0,0h-.4s0,0,0,0v-.2s0,0,0,0h1.1s0,0,0,0v.2s0,0,0,0h-.4s0,0,0,0v3.1s0,0,0,0h0s0,0,0,0l-2.3-2.9v2.6s0,0,0,0h.4s0,0,0,0v.2s0,0,0,0h-1.1s0,0,0,0v-.2s0,0,0,0h.4s0,0,0,0v-2.8s0,0,0,0h-.4s0,0,0,0c0,0,0-.2,0-.2ZM85.3,27.5s0,0,0,0v-.6c-.1,0-.1,0-.1,0-.2,0-.3,0-.5,0-.2,0-.3,0-.5.1-.1,0-.2.2-.2.4,0,.2,0,.3.2.4,0,0,.2.2.4.2l.3.2c.3.1.5.2.6.4.2.1.2.4.2.6,0,.3-.1.6-.4.8-.2.2-.5.2-.9.2s-.4,0-.6,0c0,0-.1,0-.2,0,0,0,0,0,0,0v-.8s0,0,0,0h.2s0,0,0,0v.6c.1,0,.1,0,.1,0h0c.1,0,.3.1.5.1.2,0,.4,0,.5-.1.2,0,.3-.3.2-.5,0-.3-.2-.5-.6-.7l-.3-.2c-.3-.1-.4-.2-.6-.3-.2-.1-.2-.3-.2-.6,0-.2,0-.4.2-.6.1-.2.3-.3.5-.3.1,0,.3,0,.4,0,.3,0,.6,0,.8.1,0,0,0,0,0,0v.8s0,0,0,0h-.2ZM88.6,26.6s0,0,0,0v.8s0,0,0,0h-.2s0,0,0,0v-.6c-.1,0-.1,0-.1,0h-1.2s0,0,0,0v1.2s0,0,0,0h.7s0,0,0,0v-.4c0,0,0,0,0,0h.1s0,0,0,0v1.1s0,0,0,0h-.1s0,0,0,0v-.4c0,0,0,0,0,0h-.7s0,0,0,0v1.4s0,0,0,0h1.3s0,0,0,0v-.6c.1,0,.1,0,.1,0h.2s0,0,0,0v.8s0,0,0,0h-2.6s0,0,0,0h0c0-.1,0-.2,0-.2h.4s0,0,0,0v-2.9s0,0,0,0h-.4s0,0,0,0h0c0-.1,0-.2,0-.2h2.5ZM90.1,28.2s0,0,0,0c.2,0,.4,0,.5,0,.2,0,.4-.1.5-.3,0-.1.1-.2,0-.3,0-.5-.3-.7-1-.7h-.2s0,0,0,0c0,0,0,1.3,0,1.3ZM90.4,26.6c.5,0,.8,0,1,.2.2.2.4.4.4.7s-.2.6-.5.7c-.1,0-.2,0-.3.1.2,0,.4.3.5.6l.5.8s0,0,0,0h.4s0,0,0,0h0c0,.1,0,.2,0,.2h-.8s0,0,0,0l-.5-.9c-.2-.4-.5-.7-.8-.7h0s0,0,0,0v1.3s0,0,0,0h.5s0,0,0,0h0c0,.1,0,.2,0,.2h-1.5s0,0,0,0h0c0-.1,0-.2,0-.2h.4s0,0,0,0v-2.9s0,0,0,0h-.4s0,0,0,0h0c0-.1,0-.2,0-.2,0,0,1.2,0,1.2,0ZM93.8,26.6s0,0,0,0h0c0,.1,0,.2,0,.2h-.4s0,0,0,0,0,0,0,0l1,2.5,1-2.5s0,0,0,0h-.4s0,0,0,0h0c0-.1,0-.2,0-.2h1.1s0,0,0,0h0c0,.1,0,.2,0,.2h-.4s0,0,0,0l-1.3,3.2s0,0,0,0h-.1s0,0,0,0l-1.2-3.2s0,0,0,0h-.4s0,0,0,0h0c0-.1,0-.2,0-.2h1.4ZM97.9,27.3s0,0,0,0c0,0,0,0,0,0l-.5,1.2s0,0,0,0h.9s0,0,0,0c0,0-.5-1.2-.5-1.2ZM98.5,30s0,0,0,0h0c0-.1,0-.2,0-.2h.4s0,0,0,0c0,0,0,0,0,0l-.4-1s0,0,0,0h-1.1s0,0,0,0l-.4,1s0,0,0,0h.4s0,0,0,0h0c0,.1,0,.2,0,.2h-1.1s0,0,0,0h0c0-.1,0-.2,0-.2h.4s0,0,0,0l1.3-3.2s0,0,0,0h.1s0,0,0,0l1.2,3.2s0,0,0,0h.4s0,0,0,0h0c0,.1,0,.2,0,.2h-1.4ZM102.9,26.6s0,0,0,0v.8s0,0,0,0h-.2s0,0,0,0v-.6c-.1,0-.1,0-.1,0h-.9s0,0,0,0v2.9s0,0,0,0h.5s0,0,0,0h0c0,.1,0,.2,0,.2h-1.5s0,0,0,0h0c0-.1,0-.2,0-.2h.5s0,0,0,0v-2.9s0,0,0,0h-.9s0,0,0,0v.6c-.1,0-.1,0-.1,0h-.2s0,0,0,0v-.8s0,0,0,0c0,0,2.9,0,2.9,0ZM105,26.8c-.4,0-.7.1-.9.4-.2.3-.3.6-.3,1s0,.5.1.8c.1.3.3.5.5.6.2.2.5.2.7.2.4,0,.7-.2.9-.5.2-.3.3-.6.3-1s-.1-.8-.3-1.1c-.2-.3-.6-.5-1-.5ZM105.1,26.6c.5,0,1,.2,1.3.5.3.3.5.7.5,1.3s-.2.9-.5,1.3c-.3.3-.8.5-1.3.5s-1-.2-1.3-.5c-.3-.3-.5-.8-.5-1.3s.2-.9.5-1.3c.3-.3.8-.5,1.3-.5ZM108.2,28.2s0,0,0,0c.2,0,.4,0,.5,0,.2,0,.4-.1.5-.3,0-.1.1-.2,0-.3,0-.5-.3-.7-1-.7h-.2s0,0,0,0c0,0,0,1.3,0,1.3ZM108.5,26.6c.5,0,.8,0,1,.2.2.2.4.4.4.7s-.2.6-.5.7c-.1,0-.2,0-.3.1.2,0,.4.3.5.6l.5.8s0,0,0,0h.4s0,0,0,0h0c0,.1,0,.2,0,.2h-.8s0,0,0,0l-.5-.9c-.2-.4-.5-.7-.8-.7h0s0,0,0,0v1.3s0,0,0,0h.5s0,0,0,0h0c0,.1,0,.2,0,.2h-1.5s0,0,0,0h0c0-.1,0-.2,0-.2h.4s0,0,0,0v-2.9s0,0,0,0h-.4s0,0,0,0h0c0-.1,0-.2,0-.2,0,0,1.2,0,1.2,0ZM113.3,26.9s0,0,0,0c0,0,0,0,0,0h-.4s0,0,0,0h0c0-.1,0-.2,0-.2h1.1s0,0,0,0h0c0,.1,0,.2,0,.2h-.4s0,0,0,0l-1,1.7s0,0,0,0v1.2s0,0,0,0h.4s0,0,0,0h0c0,.1,0,.2,0,.2h-1.4s0,0,0,0h0c0-.1,0-.2,0-.2h.4s0,0,0,0v-1.1s0,0,0,0l-1-1.7s0,0,0,0h-.4s0,0,0,0h0c0-.1,0-.2,0-.2h1.4s0,0,0,0h0c0,.1,0,.2,0,.2h-.4s0,0,0,0,0,0,0,0l.8,1.5s.9-1.5.9-1.5ZM47.1,32.6c-.4,0-.8.2-1,.5-.2.3-.3.7-.3,1.1s0,.6.2.9c.1.3.3.5.5.7.2.2.5.3.8.3.4,0,.8-.2,1-.5.2-.3.3-.7.3-1.1s-.1-1-.4-1.3c-.3-.4-.6-.6-1.1-.6ZM47.1,32.3c.6,0,1.1.2,1.4.6.4.4.5.9.5,1.5s-.2,1.1-.5,1.5c-.4.4-.8.6-1.4.6s-1.1-.2-1.4-.6c-.4-.4-.6-.9-.6-1.5s.2-1.1.6-1.5c.4-.4.9-.6,1.4-.6ZM52.3,33s0,0,0,0v.8s0,0,0,0h-.2s0,0,0,0v-.6c0,0-.1,0-.1,0h-1.1s0,0,0,0v1.3s0,0,0,0h.7s0,0,0,0v-.4s0,0,0,0h.1s0,0,0,0v1.1s0,0,0,0h-.1s0,0,0,0v-.4s0,0,0,0h-.7s0,0,0,0v1.3s0,0,0,0h.4s0,0,0,0h0c0,.1,0,.2,0,.2h-1.3s0,0,0,0h0c0-.1,0-.2,0-.2h.4s0,0,0,0v-2.8s0,0,0,0h-.4s0,0,0,0h0c0-.1,0-.2,0-.2h2.3ZM56.9,35.5l1.2-3.1s0,0,0,0h.6v3.6s0,0,0,0h.5s0,0,0,0v.2s0,0,0,0h-1.6s0,0,0,0v-.2s0,0,0,0h.5s0,0,0,0v-3.2h0l-1.4,3.6s0,0,0,0h0s0,0,0,0l-1.5-3.5-.3,3.2s0,0,0,0h.5s0,0,0,0v.2s0,0,0,0h-1.3s0,0,0,0v-.2s0,0,0,0h.5s0,0,0,0l.3-3.3v-.3h.7l1.3,3.1h0ZM60.1,33s0,0,0,0h-.5s0,0,0,0h0c0-.2,0-.2,0-.2h1.5s0,0,0,0h0c0,.2,0,.2,0,.2h-.5s0,0,0,0v2c0,.3,0,.5,0,.6,0,.1,0,.2.1.3.2.2.5.3.8.3s.7-.2.9-.5c0,0,0-.2.1-.4,0-.1,0-.2,0-.4v-1.9s0,0,0,0h-.5s0,0,0,0h0c0-.2,0-.2,0-.2h1.3s0,0,0,0h0c0,.2,0,.2,0,.2h-.4s0,0,0,0v1.9c0,.6-.1,1-.4,1.2-.2.2-.6.3-1,.3s-.9-.1-1.1-.4c0,0-.2-.2-.2-.3,0-.2,0-.4,0-.6,0,0,0-2.2,0-2.2ZM65.4,33.6s0,0,0,0v-.6c-.1,0-.1,0-.1,0-.2,0-.3-.1-.5-.1-.2,0-.3,0-.5.2-.1.1-.2.3-.2.4,0,.2,0,.3.2.4,0,0,.2.2.4.3l.4.2c.3.1.5.3.6.4.2.2.2.4.2.6,0,.4-.1.7-.4.9-.2.2-.6.3-.9.3-.2,0-.4,0-.7,0,0,0-.1,0-.2,0,0,0,0,0,0,0v-.8s0,0,0,0h.2s0,0,0,0v.6c.1,0,.1,0,.1,0h0c.1,0,.3.1.5.1.2,0,.4,0,.6-.2.2-.1.3-.3.3-.5,0-.3-.2-.5-.6-.7l-.4-.2c-.3-.1-.5-.2-.6-.4-.2-.2-.3-.4-.3-.6,0-.2,0-.4.2-.6.1-.2.3-.3.5-.4.1,0,.3,0,.4,0,.3,0,.6,0,.8.1,0,0,0,0,0,0v.8s0,0,0,0h-.2,0ZM67.7,32.7s0,0,0,0h0c0,.2,0,.2,0,.2h-.5s0,0,0,0v3.1s0,0,0,0h.5s0,0,0,0h0c0,.2,0,.2,0,.2h-1.5s0,0,0,0h0c0-.2,0-.2,0-.2h.5s0,0,0,0v-3.1s0,0,0,0h-.5s0,0,0,0h0c0-.2,0-.2,0-.2,0,0,1.5,0,1.5,0ZM70.2,32.6c0,0,.1,0,.2,0,.2,0,.3,0,.5,0,0,0,.2,0,.2,0,0,0,0,0,0,0v.8s0,0,0,0h-.2s0,0,0,0c0,0,0,0,0,0v-.6c-.1,0-.1,0-.1,0,0,0,0,0-.1,0,0,0-.1,0-.2,0-.1,0-.2,0-.3,0-.2,0-.5,0-.6.1-.4.1-.7.4-.8.8,0,.2-.1.4-.1.6,0,.2,0,.5.1.7,0,.2.2.4.3.6.1.2.3.3.5.4.2,0,.4.1.6.1.2,0,.3,0,.5,0,0,0,0,0,.1,0,0,0,0,0,0,0v-.6c.1,0,.1,0,.1,0,0,0,0,0,0,0h.2s0,0,0,0v.8s0,0,0,0c-.1,0-.3,0-.4,0-.2,0-.4,0-.6,0-.2,0-.4,0-.6,0-.2,0-.3-.1-.5-.2-.3-.2-.5-.4-.7-.7-.2-.3-.2-.6-.2-1,0-.2,0-.4,0-.6,0-.3.3-.6.5-.9.1-.1.3-.2.4-.3s.3-.1.5-.2c.2,0,.4,0,.5,0h0Z"/>
    </g>
  </g>
</svg>