<?xml version="1.0" encoding="UTF-8"?>
<svg xmlns="http://www.w3.org/2000/svg" version="1.1" viewBox="0 0 128 40.9">
  <defs>
    <style>
      .cls-1 {
        fill: #344875;
      }
    </style>
  </defs>
  <!-- Generator: Adobe Illustrator 28.7.1, SVG Export Plug-In . SVG Version: 1.2.0 Build 142)  -->
  <g>
    <g id="_图层_1" data-name="图层_1">
      <path class="cls-1" d="M23.1,15.4c-.4-.1-.8-.3-1.2-.5-.8.5-1.4,1.2-1.8,2,.6.3,1.2.6,1.8.8.2-.9.6-1.7,1.2-2.4ZM28.2,15.3c.4-.1.8-.3,1.1-.4-.8-.5-1.7-.9-2.6-1.1.5.4,1,.9,1.4,1.5ZM23.2,15.4c.8.2,1.6.3,2.4.4v-2c-.3,0-.6,0-.9,0-.6.4-1.1,1-1.5,1.6h0ZM28.1,15.4c-.4-.6-1-1.1-1.5-1.6-.3,0-.6,0-.9,0v2c.8,0,1.6-.1,2.4-.4h0ZM23,23.4h0c0-.1,0-.1,0-.1v-.2c-.1,0-.1,0-.1,0h0c0-.2-.1-.3-.2-.4v-.2c0,0-.1,0-.1,0h0c0-.2,0-.2,0-.2h0c0-.3-.1-.5-.2-.7h0c-.1,0-.2,0-.3-.1.2,1.1.6,2.1,1.3,3,0-.2,0-.4,0-.6,0-.1,0-.3,0-.4Z"/>
      <path class="cls-1" d="M24.6,13.8c-.9.2-1.8.5-2.6,1.1.4.2.7.3,1.1.4.4-.6.9-1.1,1.4-1.5ZM28.2,15.4c-.8.2-1.6.4-2.5.4v2.7c1.2,0,2.5-.2,3.6-.6-.2-.9-.6-1.7-1.2-2.4ZM22,17.8c.3,0,.5.2.8.2.4-.7,1-1.4,1.7-1.8,0,0,.2-.1.3,0,.2,0,.4,0,.5,0h0s0,0,0,0h0c0,0,0,.1,0,.2,0,0,0,0,0,0h0s0,0,0,0h0s0,0,0,0h0s0,0,0,0c-.2,0-.3,0-.5.1h-.1c0,0-.2.1-.2.1-.4.3-.9.9-1.1,1.3h0c.8.2,1.6.3,2.4.3v-2.7c-.8,0-1.7-.1-2.5-.4-.5.7-.9,1.5-1.2,2.4h0ZM29.7,19.9c0,.5,0,.9-.1,1.4.9-.2,1.7-.5,2.5-.9,0-1.1-.2-2.3-.8-3.3-.6.3-1.2.6-1.9.8.2.6.3,1.3.3,2h0ZM26.5,21.9c.4.4.7.9,1,1.4v.2c.2,0,.3.2.3.2h0s0,0,.1,0h0s0,0,0,0c.1,0,.3,0,.4,0,.5-.8.8-1.6,1-2.5-1,.3-1.9.4-3,.5h0s0,0,0,0Z"/>
      <path class="cls-1" d="M29.4,17.9c-1.1.4-2.4.6-3.7.6v2.8c.1,0,.2,0,.3.1.2,0,.3.2.4.3,1,0,2.1-.2,3.1-.5.2-1.1.2-2.3-.1-3.4ZM21.6,19.9c0-.7,0-1.4.3-2-.6-.2-1.3-.5-1.9-.8-.5,1-.8,2.1-.8,3.3.8.4,1.6.7,2.5.9,0-.5-.1-.9-.1-1.4ZM29.4,17.8c.6-.2,1.2-.5,1.8-.8-.5-.8-1.1-1.5-1.8-2-.4.2-.8.3-1.2.5.5.7.9,1.5,1.2,2.4h0Z"/>
      <path class="cls-1" d="M22.4,19c0-.1,0-.3.1-.4l.2-.5c-.3,0-.5-.1-.8-.2-.3,1.1-.3,2.3-.1,3.4.1,0,.2,0,.3,0-.1-.8,0-1.6.2-2.4ZM23.2,18.3c0,0,0,.2-.1.3,0,0,0,.2,0,.3h0c-.2.7-.2,1.1,0,1.7.2.6.3.8,1,.7.3,0,.6,0,.9,0h.1c.2,0,.3,0,.5,0,0,0,.2,0,.3,0v-2.8c-.8,0-1.6,0-2.4-.3,0,0,0,0,0,0ZM24.7,25.7v-.3c-.3,0-.6-.1-.9-.2v.3c.3,0,.6.1.9.2h0ZM28.7,25.5v-.3c-.4,0-.7,0-1.1,0v.3c.3,0,.7,0,1.1,0h0ZM27.6,25.6v-.3c-.3,0-.6.1-.9.2v.3c.3,0,.6-.1.9-.2ZM30.5,25.6h.1c-.1-.2-.5-.3-.7-.4-.3,0-.6,0-1,0v.3c.5,0,1,0,1.4.3,0,0,.2-.1.2-.1ZM25.7,25.8v.2s0,0,0,0c.2,0,.5-.2.7-.2v-.3c-.2,0-.5.1-.7.2,0,0,0,0,0,0ZM25.7,25.7c-.2,0-.5-.2-.7-.2v.3c.2,0,.4.1.5.2,0,0,.1,0,.2,0,0,0,0,0,0,0v-.2s0,0,0,0h0Z"/>
      <path class="cls-1" d="M25.7,26.7h0s0,0,0,0c.3,0,.5-.2.7-.2,1.4-.3,1.9-.4,3.2-.2.2-.1.3-.2.5-.3-.1,0-.4-.1-.5-.2-.2,0-.3,0-.5,0-.7,0-1.4,0-2.1.1-.3,0-.7.2-1,.3,0,0-.2,0-.3.1h0c0,0-.3,0-.3-.1-.3-.1-.6-.2-1-.3-.7-.1-1.4-.2-2.1-.1-.2,0-.3,0-.5,0-.1,0-.4,0-.5.2.2.1.3.2.5.3,1.3-.2,1.8-.1,3.2.2.2,0,.4.1.7.2,0,0,0,0,0,0h0,0ZM20.9,25.6h.2c.5,0,.9-.1,1.4-.1v-.3c-.3,0-.6,0-1,0-.2,0-.6.1-.7.2,0,0,.1.1.1.1ZM23.7,25.5v-.3c-.4,0-.7,0-1.1,0v.3c.4,0,.8,0,1.1,0Z"/>
      <path class="cls-1" d="M19.1,20.2c0-3.6,2.9-6.5,6.5-6.5,3.6,0,6.5,2.9,6.5,6.5,0,1.7-.6,3.2-1.8,4.4h-.1c1.1-1.1,1.7-2.6,1.8-4.1-.8.4-1.6.7-2.5.9-.2.9-.5,1.7-1,2.5.2,0,.5,0,.7-.2.4-.2.4-.7.2-1,0-.1-.2-.3-.2-.3,1,.8.4,1.8-.7,2,0,0-.1,0-.2,0-.2,0-.3,0-.5,0-.3,0-.6-.1-.9-.3h0c0,0,0,0,0,0h0s0,0,0,0c-.2-.1-.3-.3-.3,0,0,0,0,.1,0,.2h0c0,.2,0,.3.1.4,0,0,0,0,0,0,0,0,0,0,0,0-.2,0-.4,0-.6.2,0,0-.1,0-.2,0,0,0,0-.2,0-.2,0,0,0-.1,0-.2h0s0,0,0,0h0s0,0,0,0h0c0,0,0-.1,0-.1,0,0,0-.1-.1-.2h0s-.1-.2-.1-.2c0,0,0,0,0,0-.1-.1-.2-.2-.3-.3,0,0,0,0,0,0,0,0,0,0,0,0h0c0,0,.1.2.2.2,0,0,0,0,0,0h0c.1.1.3.5.3.6h0c0,.1,0,.2,0,.2,0,0-.2,0-.3,0s-.2,0-.3,0c0,0-.1,0-.1-.2,0,0,0,0,0,0,0,0,0,0,0,0,0-.3,0-.8-.2-.9-.1,0-.2,0-.3.1h0c0,.1,0,.2,0,.3,0,.2,0,.6,0,.8-.2,0-.5-.1-.7-.1,0-.3,0-.4,0-.7,0,0-.1-.2-.2-.3h-.1c0-.1,0-.1,0-.1l-.2-.2s0,0-.1,0l.2.2h0s0,0,0,0h0s0,0,0,0h0c0,0,0,0,.1.2,0,0,0,0,.1.2,0,0,0,.1,0,.2,0,.1,0,.4,0,.5-.2,0-.4,0-.6,0h-.1c-.7-.9-1.1-2-1.3-3.1-.9-.2-1.7-.6-2.5-.9,0,1.5.7,3,1.8,4.1h-.1c-1.1-1.2-1.8-2.8-1.8-4.4ZM20.2,24.8s0,0-.1,0c0,0,0,0,0,0,.1.1.2.3.4.4,1.4-.6,3.5-.4,4.9.2.1,0,.2,0,.2,0h0s0,0,0,0c0,0,.1,0,.2,0,1.4-.5,3.5-.8,4.9-.2.1-.1.2-.3.4-.4,0,0,0,0,0,0,0,0,0,0-.1,0-.2,0-.3,0-.5-.1,2.5-2.7,2.3-6.9-.5-9.4-1-.9-2.3-1.5-3.6-1.7h0c0,0-.2,0-.3,0h-.1c-.1,0-.2,0-.4,0h0s0,0,0,0c-.1,0-.2,0-.3,0-.1,0-.2,0-.3,0h-.1c0,0-.2,0-.2,0h0c0,0-.2,0-.3,0h0c-.7.2-1.4.4-2.1.8h0c0,0-.1.1-.2.2,0,0-.1,0-.2.1h0c-2.9,2.2-3.6,6.4-1.4,9.4.1.2.3.3.4.5-.2,0-.3,0-.5.1ZM24.4,29.9c0,0-.2.1-.3.2h0s0,.2,0,.2h0c0,0,.1,0,.1-.1v.8c-.1,0,0,0,0,0v-1.1c.1,0,0,0,0,0,0,0,0,0,0,0ZM25.3,30.4s0,0,0,0c0,0,0,0,0,0,0,0,0,0,0,0,0,0,0,0,0-.1,0,0,0,0,0-.1,0,0,0,0,0,0,0,0,0,0,0,0h0s0,0,0,0c0,0,0,0,0,0,0,0,0,0,0,.1ZM25.5,30c0,0-.1-.1-.2-.1,0,0,0,0-.1,0,0,0,0,0-.1,0,0,0,0,0,0,.1,0,0,0,.1,0,.2,0,0,0,.1.1.2,0,0,.1,0,.2,0,0,0-.1.2-.2.3h0c0,0,.2,0,.2,0h0c.2-.3.3-.4.3-.5,0,0,0-.1,0-.2,0,0,0,0,0-.1,0,0,0,0,0-.1h0ZM26.4,30.4s0,0-.1,0c0,0-.2,0-.3,0,0,0,0,0,0-.2h.4s0-.2,0-.2h-.5s0,0,0,0c0,.4,0,.5,0,.5h0s.2,0,.2,0h0c0,0,0,0,0,0,0,0,0,0,.1,0,0,0,0,0,0,0,0,0,0,0,0,.1,0,0,0,0,0,.1,0,0,0,0,0,0,0,0,0,0-.1,0,0,0,0,0-.1-.1h0s-.2,0-.2,0h0c0,.1,0,.2.1.2,0,0,.1,0,.2,0h0c.1,0,.2,0,.3-.1,0,0,0,0,0-.1,0,0,0,0,0-.1,0,0,0-.2,0-.2h0ZM27.2,30.7s0,0-.1,0c0,0,0,0-.1,0,0,0,0,0,0-.1,0,0,0,0,0-.1,0,0,0,0,0,0,0,0,0,0,.1,0,0,0,0,0,0,.1,0,0,0,.1,0,.2ZM27.3,30.3c0-.1-.2-.2-.4-.1l.2-.4h-.2s-.2.4-.2.4c0,0,0,.1,0,.2,0,.1,0,.2,0,.3,0,0,0,.1.1.1,0,0,0,0,.1,0,0,0,0,0,0,0,0,0,.1,0,.2-.1,0,0,0-.1,0-.2,0-.1,0-.2,0-.3ZM16.7,20.8c0,0,0,.2,0,.2,0,0,.1,0,.2,0,0,0,0,0,0,0h0c0-.1,0,0,0,0,0,0-.1,0-.2,0,0,0,0,0,0-.1,0-.1.1-.2.3-.2.3,0,.4,0,.4.1,0,.1,0,.2-.2.2,0,0,0,0,0,0h0c.2,0,.3,0,.3-.2,0-.1,0-.2-.1-.3,0,0-.2-.1-.3,0-.3,0-.4.2-.4.4ZM16.9,22.1l.9-.2v-.2s-.4,0-.4,0v-.2s.3,0,.3,0v-.2s-.9.2-.9.2v.2s.5,0,.5,0v.2s-.4,0-.4,0c0,0,0,.3,0,.3ZM17.3,23v-.4c-.1,0,.2,0,.2,0v.3c0,0,.2,0,.2,0v-.3c0,0,.2,0,.2,0v.3c0,0,.2,0,.2,0l-.2-.5-.8.2.2.6s0,0,0,0ZM17.5,23.9l.8-.3h0c0,0-.6.1-.6.1l.4-.6v-.2c0,0-.9.3-.9.3h0c0,0,.5-.1.5-.1l-.4.6v.2ZM17.9,24.8l.4-.2-.2-.3h0s0,.2,0,.2h-.2c0,.1-.1.1-.1,0,0,0,0,0,0-.1,0,0,.2-.1.2-.2,0,0,.2,0,.3-.1,0,0,.1,0,.1,0,0,0,0,.1,0,.2h0s0,0,0,0h.1c.1,0,.2-.2,0-.3,0-.1-.1-.2-.3-.2-.1,0-.2,0-.4,0-.1,0-.2.1-.2.3,0,0,0,.2,0,.3,0,0,0,.1.2.2h0c0,0,0,.1,0,.1h0ZM18.9,24.7h0c0,.1,0,.2,0,.2,0,0-.1.1-.2.2,0,0-.2.1-.3.1,0,0-.1,0-.1,0h0c0,0,.6-.5.6-.5h0ZM18.9,25.4c.2-.2.3-.4.1-.6l-.2-.3-.7.5.2.3c.2.2.4.2.6,0h0ZM19.3,26.1l.4-.4h0c0,0-.4.3-.4.3-.1,0-.2,0-.3,0,0,0,0,0,0-.1,0,0,0,0,0-.1l.5-.4-.2-.2-.4.4c-.2.1-.2.3,0,.5.1.2.3.2.4,0ZM20,27.1c.2.1.3.1.5,0l.4-.5h0c0,0-.4.4-.4.4,0,.1-.2.1-.3,0,0,0,0,0,0-.1,0,0,0,0,0-.1l.4-.5-.2-.2-.4.5c-.1.2-.1.3,0,.4ZM20.8,27.1v.7s.2.1.2.1l.5-.7h0s-.3.5-.3.5v-.7s-.1,0-.1,0l-.5.7h0s.3-.4.3-.4ZM21.7,27.2h.2c0,.1-.4.9-.4.9h-.2c0-.1.4-.9.4-.9h0ZM22.7,27.7h0s-.4.5-.4.5v-.7c.1,0-.1-.1-.1-.1v.9c-.1,0,0,0,0,0l.6-.7ZM23.4,28h0c0,0-.5-.3-.5-.3l-.3.8.6.2h0c0,0-.4-.2-.4-.2v-.3c.1,0,.4,0,.4,0h0c0,0-.3-.2-.3-.2v-.3c0,0,.4,0,.4,0h0ZM24,28.3c0,0,0,.1-.2.1h0s0-.3,0-.3h0c0,0,.1,0,.1.2ZM24.1,28.8c0,0,0-.1,0-.2,0,0,0,0-.1-.1.1,0,.2,0,.2-.2,0,0,0-.1,0-.2,0,0-.1,0-.2-.1h-.4c0,0-.2.8-.2.8h.2c0,0,0-.4,0-.4h0c0,0,.1,0,0,.2h0c0,0,0,.1,0,.1,0,0,0,.1,0,.2h.3s0,0,0-.1ZM25,28.9c0-.1,0-.3-.3-.4-.1,0-.2-.1-.1-.2,0,0,0,0,.2,0,.1,0,.2,0,.2.2,0,0,0,0,0,0h.1c0-.2,0-.3-.3-.3,0,0-.2,0-.2,0,0,0-.1.1-.1.2,0,.1,0,.2.2.3.1,0,.2.1.2.2,0,0,0,.1-.2,0-.1,0-.2,0-.2-.2,0,0,0,0,0,0h-.1s0,0,0,0c0,.2,0,.3.3.3,0,0,.2,0,.2,0,0,0,.1-.1.1-.2h0ZM25.5,29.1h-.3s0-.9,0-.9h.3s0,.9,0,.9h0ZM26,29.1h.3s0-.8,0-.8h.2s0,0,0,0h-.7s0,.1,0,.1h.2s0,.8,0,.8h0Z"/>
      <path class="cls-1" d="M26.8,29.1h.3s0-.4,0-.4v-.6c.1,0,0,0,0,0v.4c-.1,0-.3-.4-.3-.4h-.3s.3.6.3.6v.3ZM28.3,28.7s0,0-.1,0c0,0,0-.2-.1-.3,0,0,0-.2,0-.3,0,0,0,0,0-.1,0,0,0,0,.1,0s0,.1.1.3c0,.1,0,.2,0,.3,0,0,0,0,0,.1ZM28,27.9c-.3,0-.3.3-.2.5,0,.3.3.4.5.3.2,0,.3-.3.2-.5,0-.3-.3-.4-.5-.3ZM29.3,27.9h-.2c0,.1-.1-.2-.1-.2h.3c0-.1,0-.2,0-.2l-.5.2.3.8h.2c0,0-.2-.5-.2-.5h.2c0-.1,0-.2,0-.2ZM29.7,27.3h.2c0-.1.4.6.4.6h.2c0-.1-.4-.8-.4-.8h.2c0-.1,0-.2,0-.2l-.6.4s0,0,0,0ZM31.3,27.1h0c0,0-.3.2-.3.2l-.2-.3.2-.2h0c0,0-.2,0-.2,0l-.2-.2.3-.2h0c0,0-.5.3-.5.3l.5.7s.5-.4.5-.4ZM31.8,26.7c0,0,.1-.1.1-.2,0,0,0-.2,0-.2,0,0,0,0,0,0h0c0,0,0,0,0,.1,0,0,0,0,0,.1,0,0,0,0,0,.1,0,0-.2,0-.4-.1-.2-.2-.2-.3-.2-.4,0,0,.2,0,.2,0h0s0,0,0,0c-.1-.1-.3-.1-.4,0,0,0-.1.2-.1.3,0,.1,0,.2.1.3.2.2.4.2.6,0h0ZM32.5,26l.2-.2-.7-.6-.2.2.3.2v.2c-.1,0-.4-.2-.4-.2l-.2.2.7.6.2-.2-.3-.3v-.2c.1,0,.5.3.5.3ZM33.2,25l-.7-.5h0c0,0,.5.4.5.4h-.7s0,.1,0,.1l.7.5h0c0,0-.5-.4-.5-.4h.7s.1-.1.1-.1h0ZM32.9,24.1s0,0,0-.1c0,0,0,0,.1,0,0,0,.1,0,.3.1s.2.1.3.2c0,0,0,0,0,.1s0,0-.1,0c0,0-.2,0-.3-.1,0,0-.2-.1-.3-.2ZM33.6,24.4c.1-.2,0-.4-.2-.6-.3-.1-.5-.1-.6.1-.1.2,0,.4.2.6.3.1.5.1.6-.1ZM34.1,23.2h0s-.1.3-.1.3l-.7-.3v.2c0,0,.7.3.7.3l.2-.6ZM33.9,22.7c0,0-.2,0-.3-.1,0,0,0,0,0-.1s0,0,.1,0,.2,0,.3,0c.1,0,.2,0,.3.1,0,0,0,0,0,.1s0,0-.1,0c-.1,0-.2,0-.3,0h0ZM34.3,22.7c0-.2,0-.4-.3-.5-.3,0-.5,0-.5.2,0,.3,0,.4.3.5.3,0,.5,0,.6-.2ZM34.6,21.4h-.5c0,0,0,.3,0,.3h0s0-.1,0-.1h.2c0,0,0,0,0,.1,0,0,0,0,0,0,0,0-.2,0-.3,0-.1,0-.2,0-.3,0,0,0,0,0,0-.1,0,0,0-.1.2-.1h0s0,0,0,0h0c-.2-.1-.3,0-.3.1,0,.1,0,.2,0,.3,0,0,.2.1.3.2.1,0,.3,0,.3,0,0,0,.2-.2.2-.3,0,0,0-.2,0-.2h0s0,0,0,0h0ZM34.6,20.7h-.3s-.5-.3-.5-.3h0c0,.1.4.3.4.3h-.4c0,.1,0,.4,0,.4l.6-.2h.3s0-.2,0-.2Z"/>
      <path class="cls-1" d="M33.6,28.1c-2.1,2.1-5,3.3-7.9,3.3-3,0-5.8-1.2-7.9-3.3-2.1-2.1-3.3-5-3.3-7.9,0-3,1.2-5.8,3.3-7.9,2.1-2.1,5-3.3,7.9-3.3,3,0,5.8,1.2,7.9,3.3,2.1,2.1,3.3,5,3.3,7.9,0,3-1.2,5.8-3.3,7.9ZM25.7,8.5c-6.5,0-11.7,5.2-11.7,11.7s5.2,11.7,11.7,11.7,11.7-5.2,11.7-11.7-5.2-11.7-11.7-11.7Z"/>
      <path class="cls-1" d="M25.6,9.3c-6,0-10.9,4.9-10.9,10.9s3.8,9.7,8.8,10.7h0c-2.1-.5-4-1.6-5.6-3.1-2-2-3.1-4.7-3.1-7.6,0-2.9,1.1-5.6,3.1-7.6,2-2,4.7-3.1,7.6-3.1,2.9,0,5.6,1.1,7.6,3.1,2,2,3.1,4.7,3.1,7.6,0,2.9-1.1,5.6-3.1,7.6-1.5,1.5-3.4,2.5-5.5,2.9h0c5-.8,8.8-5.2,8.8-10.5s-4.9-10.9-10.9-10.9Z"/>
      <path class="cls-1" d="M33.9,17.1s0,0,.1,0h0s0,0,0,0h0c0,0,0,0,0,0h0c0,0-.2,0-.2-.1,0,0,0,0-.1,0h0s0,0,0,0c0,0,0,0,.1,0ZM34.1,17s0,0,0,0c0,0,0,0,0,0,0,0,0,0,0,0,0,0,0,0,0,0,0,0,0,0,0,0ZM34.3,17c0,0,.1,0,.2,0,0,0,0,0,.1,0,0,0,0,0,0,0,0,0,0,0,0,0,0,0,0,0,0,0,0,0-.2,0-.2-.1,0,0,0,0,0,0h0ZM34.4,16.8s0,0,.1.1c0,0,0,0-.1,0,0,0,0,0,0-.1h0ZM34.7,17.2c0,0,.1.1.2.2h0s0,0,0,0c0,0-.2,0-.3,0,0,0,0,0-.1,0,0,0,0,0,0,0,0,0,0,0,.1-.1h0c0,0,0,0,0,0,0,0,0,0,0,0ZM34.4,17.3s0,0,0,0c0,0,0,0,0,0,0,0,0,0,0,0,0,0,0,0,0,0ZM33.9,16.9s0,0,0-.1c0,0,0,0,0,0h0c0,0-.1,0-.2.1,0,0-.1.1-.1.2h0c0,0,0,0,0,0,0,0-.1,0-.2,0,0,0-.2,0-.2,0,0,0-.1,0-.2,0,0,0,0,0,0,0,0,0,0,0,0,.1,0,0,0,0,0,0h0s0,0,0,0c0,0,.2,0,.2,0,.1,0,.2,0,.4.1,0,0,.2,0,.2.1,0,0,.2.1.3.2,0,0,.1,0,.1.1,0,0,0,0,0,0h0s-.1,0-.1,0c0,0-.2,0-.3-.1,0,0-.2,0-.2,0,0,0,0,0,0,0,0,0,0,0,0,0,0,0,0,0,0,0h-.1c0,0,0,0-.1-.1,0,0,0,0,0,0h0c0,.1,0,.2,0,.2h.1c0,0,0,.1,0,.1h0c0,0,0,.1-.1.1,0,0,0,0-.1,0s0,0,0,0c0,0,0,0,0,0,0,0,0,0,0-.1,0,0,0,0,0-.1,0,0,0,0,0,0,0,0,0,0,0,0,0,0,0,0,0,.1,0,.1,0,.2,0,.3,0,0,0,0,0,0,0,0,.1,0,.2,0,0,0,.2-.1.2-.2,0,0,0,0,.1-.1,0,0,0,0,0,0,0,0,0,0,.1.1,0,0,0,.1.1.2,0,0,0,0,0,.1,0,0,0,0,0,0,0,0,0,0,0,0,0,0,0,0,0-.1,0,0,0-.1,0-.1,0,0,0,0-.1-.1,0,0,0,0,0,0,0,0,0,0,0,0h0c0,0,.1,0,.2,0,0,0,.1,0,.2.1,0,0,0,0,.1,0,0,0,0,0,.2,0,0,0,0,0,0,0h0c0,0,0-.1,0-.2h-.1c0-.2-.2-.3-.3-.3,0,0-.1,0-.2-.1,0,0-.2,0-.3-.1,0,0,0,0,0,0,0,0,0,0,0,0,0,0,0,0,0,0,0,0,0,0,0,0,0,0,0,0,.1,0,0,0,.2,0,.2.1.1,0,.2.1.3.2,0,0,0,0,0,0,.1,0,.2,0,.4.1.1,0,.3,0,.4,0,0,0,.1,0,.2,0h0s0-.1,0-.1c0,0,0-.1-.1-.2,0,0,0,0-.1,0,0,0,0,0-.1,0,0,0,0,0,0,0,0,0,0,0,0-.1h.2c0,0,.1,0,.2,0,0,0,0,0,0,0,0,0,.1-.2.2-.3,0,0,0,0,0,0,0,0,0,0,0,0h0c-.1.1-.3.2-.5.2,0,0-.2,0-.2,0,0,0,0,0-.1-.1,0,0,0,0,0,0,0,0,0,0,0-.1,0,0,0,0,0,0,0,0-.1,0-.2.1,0,0-.1.1-.2.2,0,0-.1.1-.2.1,0,0,0,0,0,0,0,0,0,0,0,0,0,0,0,0,0,0h0ZM27.9,11.8l-.2.2s-.1,0-.2,0c0,0,0,0-.1,0,0,0,0,0,0,0,0,0,0,.2,0,.3,0,0,0,0,0,0,.1,0,.2,0,.3,0h.3c0,0,.2,0,.2,0,0,0,.1,0,.2,0,0,0,0,0,0,0,0,0,0,0,0-.2,0,0,0,0,0,0,0,0-.1,0-.2,0,0,0-.2,0-.2,0,0,0-.1,0-.2,0,0,0,0,0,0,0,0,0,0,0,0,0,0,0,.1,0,.2-.1,0,0,.1,0,.2-.1.1-.1.3-.2.5-.3,0,0,.1,0,.2,0h.1c0,0,0,0,0-.1,0,0,0,0,0-.1,0,0-.1,0-.2,0,0,0-.1,0-.2,0,0,0,0,0,0,0,0,0-.2,0-.2,0h-.3s0,0-.1,0c0,0,0,0-.1.1,0,0,0,0,0,0,0,0,0,0,0,0,0,0,.1,0,.2,0,0,0,.1,0,.2,0,0,0,0,0,0,0h0s-.3.2-.3.2ZM31,13.7c-.1,0-.3,0-.4,0,0,0-.1,0-.2,0,0,0,0,0,0,0,0,0,0,0,0,0h0s0,0,0,0c0,0,.1,0,.2.1,0,0,0,0,.1,0,0,0,0,0,0,0h.4c.1,0,.2,0,.3,0,0,0,.1,0,.2,0,.1,0,.2,0,.3,0,0,0,.2,0,.2,0,0,0,.1,0,.2,0,0,0,.1,0,.2,0,0,0,0,0,0-.1,0,0,0,0,0,0,0,0,0,0,0,0,0,0,0,0-.1,0,0,0,0,0-.1,0,0,0,0,0,0,0h0c0-.1.2-.1.3-.2,0,0,.2-.1.2-.2,0,0,0,0,0-.1,0,0,0,0,0-.1,0,0,0,0,0,0,0,0,0,0,0,0h0c0,.2,0,.2,0,.2,0,0-.2.1-.3.2,0,0-.2,0-.2.1,0,0-.1,0-.2,0,0,0-.2,0-.2,0,0,0,0,0,0,0h-.1c0-.1,0-.1,0-.1,0,0-.1,0-.1.2h0c0,.1,0,.2,0,.2,0,0,0,0,0,0h-.4s0,0,0,0ZM31.6,14.9s0,0,0,0c0,0,0,0,0,0,0,0,.2,0,.2,0,0,0,0,0,0-.1,0,0,0,0,0-.1,0-.1,0-.2-.1-.3,0,0-.1-.1-.2-.2,0,0,0,0-.1,0,0,0,0,0,0,0,0,0,0,.1,0,.2,0,0,0,0,.1.1,0,0,0,.1,0,.2,0,0,0,0,0,.1,0,0,0,.1,0,.1ZM19.6,14.2s0,0,0,0c0,0,0,0,0,0,0,0,0,0,0,0h0s0,0,0,0ZM19.7,13s0,0,0,0c0,0,0,0,0,0,0,0,0,0,0,0,0,0,0,0,.1,0h0c0,0,.1.2.1.2,0,0,0,0,0,0,0,0,0,0,0,0,0,0,0,0,0,0,0,0,0,0,0-.1,0,0,0,0,0,0,0,0,0,0,0,0h0c0,0,0-.1,0-.2ZM19.2,13.6c0,0,0,.2,0,.2,0,0,0,.2,0,.3,0,0,0,0,0,.1,0,0,0,0,0,.1,0,0,0,0,0,0,0,0,0,0,.1-.1,0,0,0,0,0-.2,0,0,0-.1,0-.2,0,0,0-.2,0-.3,0,0,0-.1,0-.2h0s0,0,0,0c0,0,0,0,0,0,0,.2,0,.4,0,.6,0,.2,0,.5,0,.7h0c0,0,0,0,0,0,0,0,0,0,0,0,0,0,0-.1,0-.2,0,0,0,0,0,0h0c0,0,0,.1,0,.2,0,0,0,0,0,.1,0,0,0,0,0,0,0,0,0,0,0,0,0,0,0,0,0,0h0s0,0,0-.1c0,0,0,0,0,0h0c0,0,0,0,0-.1,0,0,0-.1,0-.2,0,0-.1-.2-.2-.2,0,0,0,0-.1-.2,0,0,0-.1,0-.2,0,0,0-.1,0-.2,0,0,0,0,0,0,0,0,0,0,0,0,0,0,0,.1.1.2,0,0,0,0,0,.1,0,0,.1.2.2.3,0,0,.1.2.2.3,0,.1.2.2.3.4,0,0,0,0,0,0,0,0,0,0,0,0,0,0,0,0,0,0,0,0,0,0,0,0,0,0,0,0,0,0,0-.1-.1-.2-.2-.3,0-.1-.2-.2-.3-.4,0,0,0-.1-.1-.2,0,0,0-.2,0-.3,0,0,0-.1,0-.2,0,0,0-.1,0-.2,0,0,0,0,0,0,0,0,0,0-.1-.1,0,0,0,0-.1,0,0,0,0,0,0,0,0,0,0,0,0,0h0c0-.1,0-.1,0-.1,0,0,0,0-.1,0,0,0-.1.2-.1.3,0,0,0,.1,0,.2,0,0,0,.1,0,.2,0,0,0,.2,0,.3,0,0,0,.1,0,.2h0s0,0,0,0c0,0,0-.1,0-.2,0-.1,0-.2,0-.4,0-.1,0-.2,0-.3,0,0,0,0,0-.1,0,0,0-.1-.1-.2,0,0,0,0,0,0h0c0,0,0,.3,0,.3,0,0,0,.2,0,.3,0,0,0,.1,0,.2h0ZM19.1,12.9s0,0,0-.1c0,0,0,0-.1,0h0c0,0,0,0,0,.1,0,0,0,0,0,0,0,0,0,0,0,0h0s0,0,0,0h0c0,0,0,.2,0,.2,0,0,0,0,0,0,0,0,0,0,0,0v.2s0,0,0,0c0,0,0,0,0,0h.1c0,0,0,0,0,0,0,.1,0,.2,0,.3,0,0,0,0,0,0,0,0,0,0,0,0,0,0,0-.1,0-.2,0,0,0,0,0,0,0,0,0-.1,0-.2h0q0-.1,0-.1ZM24.2,11.4s0,0,0,0c0,0,0,0,0,0h0c0-.1,0-.1,0-.1,0,0,.1,0,.2,0,0,0,0,0,0,0h0c0,.1,0,.2-.2.3,0,0-.1.1-.2.1h0s0,0,0,0h0ZM24.2,11.7s0,0,.1,0c0,0,.2-.2.2-.3l.2-.3s0,0,0-.1c0,0,0,0,0,0,0,0,0,0,0,0,0,0,0,0-.1,0h-.2c0,0-.2.1-.3.1,0,0-.2,0-.3,0,0,0-.1.1-.2.2h.2s.1,0,.1,0c0,0,0,0,0,0,0,0,0,0,0,0,0,0,0,0-.1,0,0,0,0,0,0,0,0,0,0,0,.1,0h0s0,.1,0,.1c0,0,0,0,0,.1h0c0,0,0,.1,0,.2,0,0,0,.2-.1.2,0,0,0,0,0,.1,0,0,0,.1,0,.2,0,0,0,0,0,0h0s0,0,0,0h0c0,0,0,.1,0,.2,0,0,0,0,0,0,0,0,0,0,.1,0,0,0,0,0,.1,0,0,0,.1,0,.2,0,0,0,0,0,.1,0,0,0,0,0,0-.1,0,0,0,0,0,0,0,0-.2,0-.2,0,0,0-.1,0-.2,0,0,0,0,0,0,0h0c0,0,0-.1,0-.2,0,0,0-.1.1-.2,0,0,0,0,0,0,0,0,0,0,0,0,0,0,0,0,0,0,0,0,0,0,0,0,0,0,0,0,0-.1,0,0,0-.1,0-.2ZM23,12.8c0,0,0,.2,0,.2h0c0,.1,0,.1.1.1,0,0,0,0,.1,0,0,0,0,0,0,0,0,0,0,0,0-.1,0,0,0-.1,0-.2v-.3c.1,0,.2-.1.2-.2,0,0,0,0,0-.2,0,0,0,0,0-.1,0,0,0,0,0,0,0,0,0,0,0,0,0,0,0,0,0,0,0,0,0,0,0,.1,0,0,0,0,0,.1,0,0,0,0,0,0,0,0,0,0,0,0,0,0,0,0,0-.1h0c0-.2,0-.2,0-.3,0,0,0,0,0-.1h0s0,0,0,0c0,0,0-.1,0-.2,0,0,0,0,.1-.1,0,0,0,0,0,0,0,0,0,0,0,0,0,0,0,0-.1,0-.2,0-.3,0-.4.2,0,0,0,0,0,0,0,0,0,0,0,0,0,0,0,0,0,0,0,0,0,0,0,0,0,0,0,.1,0,.2,0,0,0,0,0,0,0,0,0,0-.1,0,0,0,0,0-.1.1,0,0,0,0,0,0,0,0,0,0,0,.1,0,0,0,0,0,0,0,0,0,0,0,0,0,0,0,0,0,0,0,0,0,0,0,.1,0,0,0,.1,0,.2,0,0,0,.2-.1.2h0Z"/>
      <path class="cls-1" d="M23.7,11.2h0c0,0,0,.1,0,.2,0,.1,0,.3.2.3,0,0,0,0,0,0,0-.2,0-.5-.2-.6ZM17.3,16h0s-.1,0-.1,0h-.1c0,0,0,0,0,0h0c.2.2.3.2.5.3,0,0,0,0,0,.1,0,0,0,.1,0,.2,0,0,0,.1,0,.2,0,0,0,0,0,.1,0,0,0,0,0,0,0,0,0,0,0,0,0,0,.1,0,.2-.1,0,0,0,0,0-.1h0c0-.2,0-.3,0-.4,0,0,0,0,0,0h0c0,0,.1,0,.2,0,0,0,.2.1.3.2,0,0,0,0,0,0h0c0,.1,0,.1,0,.2,0,0,0,0,0,0,0,0,0,0,0,0,0,0,0,0,0,0t0,0c0,0,.1,0,.2.1,0,0,.1,0,.2,0,0,0,0,0,0,0,0,0,0,0,0,0,0,0,0,0,0-.1,0,0-.1-.1-.2-.2h0c0-.1,0-.2,0-.2,0,0,0-.1.1-.2,0,0,0,0,0,0,0,0,0,0,0,0,0,0,0,0,0,0,0,0,0,0-.1,0v.2c0,0-.2.2-.2.2,0,0,0,0,0,0h0s-.1,0-.1,0c0,0-.2,0-.2-.1,0,0,0,0,0,0,0,0,0,0,0,0,0,0,0,0,0,0,0,0,0,0,0,0h-.1s0,0,0,0c0,0,0,0,0,0,0,0-.1-.1-.1-.1Z"/>
      <path class="cls-1" d="M17.9,17.2v.2s0,0,0,0c0,0,0-.1,0-.2h0ZM17.9,17.5h0c0,0,.1,0,.2.1,0,0,0,0,.1,0,0,0,0-.1,0-.2,0,0,0-.2,0-.2,0,0,0-.2,0-.2h0c0,0-.2,0-.2,0,0,0,0,0,0,0v.2c0,0-.1.1-.1.1,0,0,0,0,0,0,0,0,0,0-.1,0h0c0,0,0,.1,0,.2,0,0,0,0,0,0,0,0,0,0,0,0,0,0,0,0,0,0,0,0,0,0,0,0h0c0,0,0,0,0,0ZM17.5,17.7s0,0-.1,0h0c0,.1,0,.2,0,.2,0,0,0,.2,0,.2,0,0,0,.1,0,.2,0,0,0,0,0,0,0,0,0,0,0,0h0c0,0,0-.2,0-.3,0,0,0-.2-.1-.3,0,0,0-.1-.1-.1h0ZM17.8,15.5s0,0,0,0c0,0,0,0,0,0,0,0-.1,0-.2,0,0,0-.1,0-.2.1,0,0,0,0,0,0,.1,0,.2,0,.3.1,0,0,0-.1,0-.2ZM109.9,15.2c0,0-.2.1-.2.2,0,0,.1.2.2.2,0,0,.2-.1.2-.2,0,0-.1-.2-.2-.2ZM108.4,14.4c.1-.1.3-.3.4-.4-.3,0-.6,0-.8,0,0,0,0,0,0,0,0,0,.5.3.5.3ZM108.4,15.5c0-.1,0-.2-.2-.3,0,0-.2,0-.2,0,0,.1,0,.3,0,.4,0,0,.2.1.2.1.1,0,.2-.1.2-.3ZM109.9,13.8c0,0-.1,0-.2,0-.2.1-.3.2-.5.3-.2.2-.4.4-.6.6,0,0,0,0,0,0,.4,0,.9-.1,1.2-.4,0-.1.2-.2.2-.4,0-.1,0-.2,0-.3ZM109.5,16.4s0,0,0,0c-.1,0-.2,0-.4-.1,0,0-.1,0-.2,0-.1.1-.2.2-.3.3-.2.2-.4.3-.6.3-.2,0-.4.1-.6.2,0,0-.2.1-.2.2,0,0,0,0,.1,0,.3,0,.5,0,.7-.2.4-.2.8-.4,1.2-.6,0,0,.3-.2.3-.2ZM110.4,14.3h.5c0,.4,0,.7,0,1,0,0,0,0,.1,0,.2,0,.5-.2.6-.4.4-.3.6-.7.8-1.1,0,0,0,0,0,0-.1,0-.2,0-.3,0-.5.1-1,.3-1.5.2,0,0,0,0,0,0,0,0-.1.2-.2.3ZM105.5,18.9c.1,0,.3,0,.4,0,.2,0,.4-.1.6-.2.4-.3.9-.4,1.4-.6.4-.1.8-.3,1.2-.4.6-.2,1.2-.4,1.8-.4.3,0,.6,0,.9,0,.3,0,.5,0,.7.2,0,0,0,0,.1.1,0,.2-.2.3-.3.4-.2.2-.5.3-.7.4-.3,0-.5.2-.8.2-.4.1-.8.2-1.1.4-.3.2-.6.4-.8.7,0,0,0,0,0,.1,0,0,0,0,.1,0,.2,0,.5,0,.7,0,.3,0,.6-.1.8-.1.3,0,.6,0,.9,0,.2.1.4.3.5.6,0,0,0,.1,0,.2,0,.2-.1.4-.3.4-.2,0-.5,0-.8,0-.4,0-.7,0-1.1-.1-.3,0-.5,0-.8,0-.1,0-.1,0-.1.2,0,.3,0,.5,0,.8,0,.5,0,1,0,1.6,0,.3-.2.6-.4.7-.2.2-.5.2-.7,0-.5-.2-.9-.6-1.3-1-.1-.2-.2-.3-.3-.5-.1-.2,0-.4,0-.7,0,0,.1,0,.2.1.2.2.3.3.5.5.1.1.3.2.4.3.1,0,.3.1.4.1.2,0,.2,0,.2-.2,0-.2,0-.5,0-.7,0-.3,0-.7,0-1,0,0,0,0,0-.1-.1,0-.3,0-.4.1-.3,0-.5.2-.8.2-.2,0-.4,0-.5-.1,0,0-.2-.2-.3-.3,0-.1.2-.2.4-.3.2-.1.4-.2.7-.3.2,0,.4-.2.6-.2.2,0,.2-.2.3-.3,0-.1.1-.3.2-.4,0,0,.1-.2.2-.2.3-.3.7-.5,1.1-.7.5-.2.9-.3,1.4-.5.2,0,.4-.2.6-.2,0,0,0,0,0,0,0,0,0,0-.1,0-.3,0-.7,0-1,.1-.5.2-1,.3-1.6.4-.5.1-.9.3-1.3.5-.6.3-1.2.7-1.8,1-.4.2-.7.4-.9.7-.1.1-.2.2-.3.3,0,0,0,0,0,.1-.1,0-.3-.2-.4-.3-.2-.2-.3-.4-.3-.7,0-.2,0-.3.2-.4.2-.3.5-.5.8-.7.4-.2.7-.4,1.1-.6.3-.1.6-.3.8-.4,0,0,0,0,0,0v-.3c-.3-.4-.4-.8-.5-1.2,0-.4,0-.8,0-1.1,0,0,0,0,0,0,0,0,0,0,0,0,.2,0,.3.2.3.4.1.2.2.5.3.7,0,0,0,.2.1.3,0,0,0,0,0,0,0,0,0-.2,0-.2,0-.4,0-.8,0-1.2,0-.4-.1-.9-.2-1.3,0-.3,0-.7,0-1,0,0,0,0,0-.1.1,0,.2,0,.3.1.1.1.3.3.4.4,0,.1.2.2.4.1.3,0,.6,0,.8-.1.4-.1.7-.3,1-.7.2-.3.5-.7.6-1.1.2-.5.3-.9.4-1.4,0,0,0-.1,0-.2,0-.1.1-.2.3-.2.1,0,.2,0,.3.2.2.5.3,1.1.5,1.6,0,.2,0,.3,0,.5-.2.3-.4.5-.7.7-.2.2-.4.4-.6.5,0,0,0,.1-.2.2.2.1.3.2.5.3,0,0,.1,0,.2,0,.2,0,.4-.1.6-.2.3,0,.5-.2.8-.3.3,0,.6,0,.9.1.2,0,.3.1.5.2,0,0,0,.1,0,.2-.1.4-.3.7-.6,1-.5.5-1,1-1.5,1.5-.5.4-1.1.7-1.7,1-.1,0-.3,0-.4.1-.7.2-1.3.4-1.9.7-.4.2-.8.4-1.2.5-.2,0-.4.2-.7.3-.1,0-.3.2-.4.2,0,0,0,0-.1.1h0ZM89.3,14.5c-.2.1-.4.2-.7.3-.3.2-.7.3-1,.5-.5.3-.9.7-1.4,1.1-.3.3-.5.7-.8,1-.2.3-.4.6-.6.8-.3.3-.5.6-.8.9,0,.1-.2.2-.2.4,0,0,.1,0,.2,0,.3,0,.7,0,1-.1.4,0,.8-.2,1.2-.3.4,0,.7-.1,1.1,0,.2,0,.4.1.5.3.2.3.2.6,0,.9,0,.1-.2.2-.4.3-.4,0-.8.1-1.1.2-.4,0-.9.2-1.3.3-.6.2-1.2.3-1.8.5-.6.2-1.1.3-1.7.4-.1,0-.1,0-.2,0-.2-.5-.3-1-.2-1.6,0-.2.1-.4.3-.5.2-.2.4-.3.6-.5.3-.2.5-.4.8-.6.3-.4.7-.8,1-1.2.4-.5.7-.9,1.1-1.4,0,0,0-.1.1-.2-.2,0-.3,0-.5.1-.3.1-.7.2-1,.3-.3,0-.6.1-.9.1-.2,0-.3,0-.3-.3,0,0,0-.2,0-.3.1-.3.3-.5.5-.7.2-.2.4-.3.6-.4.4-.1.9-.3,1.3-.4.4-.1.9-.2,1.3-.4.2,0,.3-.2.5-.3.3-.2.5-.3.8-.4.4-.2.8-.1,1.2,0,.2.1.4.3.5.6,0,.2.2.3.2.5h0ZM96.9,9.5c.2-.2.5-.1.7,0,.2.2.4.4.5.7.1.2.1.5.2.8,0,.6,0,1.1-.2,1.6-.2.6-.4,1.2-.6,1.8,0,.2-.1.4-.2.5,0,0,0,0,.1,0,.2,0,.4-.1.6-.3.2-.2.4-.3.6-.5.2-.1.4-.2.6-.2,0,0,0,0,.1,0,.3,0,.5,0,.5.4,0,.4,0,.8-.4,1-.3.2-.6.3-.9.5-.4.2-.8.4-1.2.6-.5.3-1,.7-1.4,1.2-.2.3-.4.6-.6.9-.4.5-.8,1-1.2,1.4-.6.6-1.2,1.2-1.8,1.8,0,0-.1.1-.2.2-.2.2-.4.4-.7.5-.4.2-.9.3-1.3.2,0,0,0,0-.1,0,0,0,0,0,0,0,0-.2,0-.4,0-.5,0,0,0-.2.2-.2.3-.2.5-.4.8-.6.6-.4,1.1-.9,1.6-1.4.6-.6,1.2-1.2,1.8-1.8l.2-.2-.4-.2c-.2,0-.4-.2-.7-.2-.4-.1-.5-.8-.2-1.1.1,0,.3-.2.4-.2.3,0,.6,0,.8,0,.2,0,.4,0,.5,0,.4-.1.8-.5,1-.8.2-.3.3-.6.4-.9.2-.5.3-1,.5-1.5.2-.6.3-1.2.3-1.8,0-.3,0-.5-.1-.8l-.2-.7s0,0,0-.1h0ZM99.6,23.2c-.1-.1-.2-.3-.2-.4,0-.3,0-.5-.1-.8,0-.2-.1-.4-.3-.6-.3-.4-.7-.6-1.1-.6-.3,0-.6-.1-.9-.1-.3,0-.6-.3-.7-.6,0,0,0,0,0-.1.2-.2.4-.3.7-.3.5,0,1,0,1.5,0,.6.1,1.2.3,1.7.7.2.2.4.4.5.6.1.3.1.6,0,.8-.1.4-.4.8-.7,1-.1.1-.3.2-.4.3h0ZM59.4,19.2c0-.1-.1-.3-.2-.2-.1,0-.2.1-.2.3h0c0,.1.1.2.2.2,0,0,.2-.1.2-.2ZM63.2,15c0,.1.2.3.2.4,0,.2.2.3.1.5,0,.2,0,.4-.1.5,0,.2-.1.5-.2.7,0,.2,0,.4,0,.5,0,0,0,0,.2,0,.1,0,.3-.1.4-.2.3-.4.4-.7.3-1.2,0,0,0-.2,0-.2,0-.2,0-.5,0-.7,0-.1,0-.3,0-.4,0,0,0-.2,0-.2,0,0,0-.1-.2,0-.2,0-.4.2-.6.4ZM60.7,15.1c-.3,0-.5.2-.7.4-.4.3-.6.7-.9,1.1-.2.3-.4.7-.5,1-.1.3-.4.4-.7.4-.3,0-.6,0-.8,0,0,0-.2,0-.3,0,0-.3,0-.5.2-.7.1-.2.3-.3.5-.4.4-.3.8-.5,1.2-.8.3-.2.6-.5.9-.8.3-.2.6-.4.9-.6.4-.2.7-.6,1-1,.3-.4.6-.8.8-1.1,0,0,0-.1.1-.2.1,0,.3.2.4.3,0,0,0,0,0,.1,0,.3,0,.7,0,1,0,.2-.2.4-.3.5-.4.3-.8.7-1.1,1.2-.4.5-.7.9-1.1,1.4-.2.2-.3.5-.4.8,0,0,0,0,0,.1,0,0,.1,0,.2-.1.3-.2.5-.5.7-.8.3-.3.6-.7.9-.9.3-.3.5-.6.7-.9.2-.3.4-.6.6-.9.4-.4.8-.6,1.3-.5.2,0,.4.1.5.2,0,0,0,.1,0,.2,0,.2-.1.4-.2.6,0,.2,0,.3-.1.5,0,.1,0,.2,0,.3,0,.2.2.5.3.7.1.3.1.6,0,.8,0,.2,0,.3-.1.5-.1.3-.3.5-.5.7-.3.2-.6.5-.9.7-.4.3-.7.6-.8,1.1,0,.3-.1.6-.1,1,0,.7-.1,1.5-.2,2.2,0,.6,0,1.2-.2,1.8,0,.2-.1.3-.2.5,0,0,0,0-.1,0,0,0-.2,0-.3,0,0,0,0,0,0,0,0-.1,0-.3,0-.4,0-.8,0-1.6,0-2.5,0-.6.1-1.2.2-1.7,0-.6.2-1.2.3-1.8,0-.3,0-.5,0-.8,0-.4,0-.8.2-1.2,0,0,0-.2,0-.3,0-.2-.2-.3-.3-.2-.3.2-.6.4-.8.7-.2.2-.4.4-.5.7-.2.3-.2.6-.2,1,0,.5,0,1,0,1.4,0,.3-.2.6-.4.8,0,0-.1.1-.2.1-.1,0-.3,0-.4,0-.1,0-.2,0-.3.1-.1.2-.2.3-.3.4,0,0,0,0,0,0,0,0-.2.2-.3.2-.2,0-.3,0-.5-.2-.1-.1-.2-.3-.2-.5,0-.2.1-.4.2-.6,0-.3.2-.5.2-.8,0,0,0,0,0-.1,0,0-.2.1-.2.2-.2.2-.4.4-.6.6-.1.1-.3.2-.5.1h-.3c0-.2.1-.3.2-.3.8-.8,1.6-1.6,2.4-2.5.6-.7,1.2-1.5,1.7-2.4,0,0,0-.1,0-.2,0,0,0-.2,0-.2,0,0,0,0,0,0h0ZM59.1,14.5c.2-.5.6-.9.9-1.4,0,0,0,0-.1,0-.3,0-.6,0-.8-.1,0,0-.1,0-.2,0,0,0,0,0,.1,0,.2-.2.5-.4.7-.5.1,0,.2-.2.3-.2.1,0,.2-.2.2-.4,0-.2,0-.3.1-.5,0-.2,0-.3.1-.5,0,0,0-.1,0-.2,0,.1.2.2.2.3,0,.1.2.3.3.4,0,0,0,0,.2,0,.2,0,.4-.1.6-.2h.2c.1.2.2.4.2.6,0,.3-.1.4-.3.6-.2.1-.3.2-.5.4-.3.2-.5.5-.7.8,0,.1-.1.2-.2.3-.2.3-.5.5-.8.7-.2,0-.3,0-.5.1h0s0,0,0,0ZM76.2,15.3c0,0,0,0,0,0,0,0,.1,0,.2,0,.4,0,.8-.3,1.1-.6.4-.4.7-.8,1-1.3,0,0,0-.1,0-.2-.1,0-.3,0-.4,0-.4,0-.8.2-1.1.4,0,0,0,0,0,.1,0,.2,0,.3,0,.5,0,.1,0,.3-.2.4-.2.1-.3.3-.5.5,0,0-.2.2-.3.3h0ZM74.9,21c.2,0,.4,0,.5-.1.3,0,.7-.2,1-.3.4-.1.8-.2,1.2,0,.1,0,.2,0,.3.2,0,.3-.3.5-.6.6-.2,0-.4,0-.6,0-.4,0-.8.2-1.1.4-.2,0-.4.2-.7.2-.2,0-.4,0-.6-.1-.2,0-.3-.2-.3-.4,0-.2,0-.4,0-.6,0,0,0-.2,0-.2,0,0-.1,0-.2,0-.1,0-.2,0-.3,0-.1,0-.1,0-.2,0-.2-.3-.2-.7,0-1.1,0-.3.3-.5.5-.7.4-.3.6-.7.8-1.1.1-.3,0-.6,0-.9,0,0,0,0,0,0,0-.3,0-.5.2-.8,0-.1.2-.2.3-.4,0,0,0,0,0-.1-.2-.2-.4-.3-.6-.5.1,0,.3-.1.4-.2.2-.1.5-.2.7-.4.1-.1.2-.3.2-.5,0,0-.1,0-.2,0-.2,0-.5,0-.7,0h-.9c0,.1,0,.1,0,.1,0-.2.1-.4.2-.5.2-.3.4-.4.7-.5.5-.2,1-.3,1.5-.3.5,0,1,0,1.4-.2l1-.3c.2,0,.4,0,.7,0,0,0,.2,0,.2.1,0,.2,0,.3,0,.5,0,.3-.2.5-.4.7-.5.5-1,1-1.4,1.5-.4.5-.9.9-1.4,1.3-.2.2-.4.3-.7.4-.3.2-.5.4-.5.8,0,.3,0,.4.2.6.1.1.3.3.4.4,0,.1.2.2.2.4,0,0,0,.1,0,.2-.2.2-.3.3-.4.5-.2.2-.5.4-.7.7-.2.2-.2.4-.3.7,0,0,0,0,0,.1h0ZM71.6,16.1l.2.2.2.2c.2.2.3.4.2.7,0,.2-.2.5-.3.6-.2.2-.4.4-.5.6-.2.2-.3.4-.3.7,0,0,0,.2,0,.3,0,0,.1,0,.1,0,.2-.2.3-.4.5-.6.2-.2.3-.4.5-.6,0-.1.2-.2.3-.3,0,0,0,0,.2,0,0,0,0,.2,0,.2,0,.3-.2.5-.4.7-.2.3-.3.5-.5.8-.2.3-.3.6-.5.9-.3.5-.5,1.1-.8,1.6-.2.3-.3.7-.5,1-.1.2-.2.5-.4.7,0,0-.2.2-.3.3-.2.1-.4.1-.6,0-.2,0-.4-.2-.6-.3,0-.1,0-.3.2-.4.2-.4.4-.8.6-1.2.3-.4.5-.8.7-1.3.2-.3.2-.7.1-1,0-.3-.1-.5-.2-.8,0-.2-.2-.3-.3-.4-.1,0-.2-.2-.4-.2,0,0-.1,0-.1-.2,0-.3,0-.5,0-.8,0,0,0-.2.1-.2.2-.2.5-.3.7-.5.3-.2.5-.3.8-.5.1,0,.2-.2.3-.3,0-.3.2-.6.3-.8,0,0,0-.1,0-.1-.1,0-.3-.2-.4-.3-.2-.1-.2-.3-.2-.5,0,0,0-.1,0-.2.3-.2.5-.3.8-.4.5-.2,1-.3,1.4-.2.3,0,.5.2.6.5,0,.2,0,.3-.1.4-.1,0-.2.2-.4.2-.3.2-.5.4-.7.6-.2.3-.4.6-.6,1h0Z"/>
      <path class="cls-1" d="M73.8,13.9c.9.6,1.2,2.2.6,3.1,0,0-.2-.2-.3-.3-.5-.6-.7-1.2-.7-1.9,0-.3.1-.6.3-.9,0,0,0,0,0,0ZM50.8,18c0,0,.1,0,.2,0,.4-.1.9-.3,1.3-.4.3,0,.6-.2.9-.3.2.2.3.5.3.8,0,.2,0,.4,0,.6,0,.1,0,.2-.2.2-.2,0-.4,0-.6.1-.4,0-.7.1-1.1.2-.3,0-.5.1-.8.3v.6c.1.5.1,1,0,1.6,0,.3-.1.5-.3.8-.1,0-.3-.1-.4-.2,0,0,0,0,0-.2,0-.3-.1-.7-.2-1,0-.4,0-.8-.1-1.2,0-.2,0-.2-.2-.2-.2,0-.4,0-.5,0-.1,0-.2,0-.3-.1-.1,0-.1,0,0-.2,0-.1.2-.2.4-.3.1,0,.3-.1.4-.2.1,0,.1,0,0-.2-.1-.6-.2-1.2-.3-1.7,0-.3-.2-.6-.3-.9,0,0,0,0,0,0,0,0-.1,0-.2,0-.5.1-.9.3-1.3.5-.2.1-.4.2-.6.3-.2.1-.4.1-.7.1-.4,0-.7-.2-1-.4,0,0,0-.1,0-.2,0,0,0-.2.2-.2.2-.1.4-.2.6-.3.4-.1.7-.2,1.1-.3.4,0,.8-.2,1.1-.3.2,0,.4-.2.6-.4-.3-.9-.7-1.8-.9-2.8.2,0,.3-.1.5-.2,0,0,0,0,.1,0,.2,0,.4.2.7.3l.7.3c0,0,0,.2,0,.3,0,.3,0,.6,0,.9,0,.1,0,.2,0,.3,0,0,0,.2.1.2.1.1.3.3.4.4.1.1.2.3.1.4,0,.1,0,.2-.1.3,0,0,0,.2-.1.3,0,.1,0,.3,0,.5,0,.5.1.9.3,1.4,0,.2.1.4.2.6,0,0,0,0,0,.1Z"/>
      <path class="cls-1" d="M47,19.1c-.3-.1-.7,0-.9.2,0,.1.1.3.2.4l.7-.6h0ZM45.3,17.8c.1,0,.2.2.3.2,0,0,.2.1.2.2,0,0,.1,0,.2,0,.2,0,.5-.2.8-.3.3-.1.6-.2.8-.3,0,0,.1,0,.2,0,.3.3.6.7.8,1.1h-.1c-.3.5-.5.8-.7,1.2-.2.4-.5.8-.7,1.2-.2.3-.5.6-.8.8-.2-.1-.4-.3-.5-.6-.1-.3-.2-.7-.2-1,0,0,0-.1,0-.2,0,0,0-.1-.1-.1-.1,0-.2,0-.4,0-.1,0-.3,0-.4,0-.2,0-.3-.2-.3-.3,0-.2,0-.3,0-.4,0,0,.2-.2.3-.3.2-.2.3-.4.4-.6,0,0,0-.2,0-.3ZM43.3,19c.1.2.2.4.2.6,0,.3,0,.7-.1,1-.2.5-.4,1-.7,1.5-.3.4-.7.7-1.1.9,0,0,0,0,0,0,0-.2-.2-.3-.2-.5,0-.2,0-.4,0-.5.2-.3.3-.5.5-.8.3-.3.6-.7.8-1,.2-.3.4-.6.6-.9,0,0,0-.1.1-.2ZM52.5,13.4c0-.6-.3-1.1-.6-1.7.1-.1.3-.2.5-.2.4,0,.8.1,1.1.4.3.2.5.5.6.9,0,.1,0,.1,0,.2-.1,0-.2.1-.4.2-.3.1-.7.2-1.1.3ZM43,28.2h.3c0,.1,0,.2,0,.3,0,.2,0,.4-.3.6-.2.2-.4.2-.7.2-.8,0-1.1-.4-1.1-1.3s.1-.7.3-1c.2-.3.5-.4.9-.4.6,0,.8.3.8.8h-.3c0,0,0,0,0,0,0-.4-.2-.6-.5-.6s-.5.4-.5,1.2.2,1,.5,1,.3,0,.4-.2c.1-.1.2-.3.1-.4,0,0,0-.1,0-.2ZM44.4,27.9v1.3h-.7v-2.6h.7v1h.6v-1h.7v2.6h-.7v-1.3s-.6,0-.6,0ZM48.1,26.6v.3h-.9v.8h.8v.3h-.8v1h1.1v.3h-1.8v-2.6s1.7,0,1.7,0ZM50.6,26.6v2.6h-.6l-1.1-1.6v1.6h-.2v-2.6h.5l1.2,1.8v-1.8h.3ZM52.2,27.8h1.1v1.4h-.2v-.2c-.3.1-.5.2-.7.2-.4,0-.7-.1-.9-.3-.2-.2-.3-.6-.3-1s.1-.7.3-1,.5-.4.9-.4.8.2.9.7l-.3.2h0c0,0,0-.2,0-.2,0-.3-.2-.5-.4-.5s-.3,0-.4.2c0,.2-.1.5-.1.9s0,.7,0,.8c0,.1.2.2.3.2.2,0,.3-.1.3-.3v-.6h-.4v-.3h0ZM54.6,29h.2c.2,0,.3,0,.4-.2,0-.2.1-.4.1-.8s0-.7-.1-.8c0-.2-.2-.2-.4-.2h-.2v2.1ZM53.8,29.2v-2.6h1.1c.8,0,1.1.4,1.1,1.3s-.4,1.3-1.2,1.3h-1,0ZM58.5,26.6v1.7c0,.6-.3.9-1,.9s-1-.3-1-.9v-1.7h.7v1.8c0,.2,0,.4,0,.5,0,0,.2.1.4.1.3,0,.5-.2.5-.6v-1.7s.2,0,.2,0ZM62.4,26.6v1.7c0,.6-.3.9-1,.9s-1-.3-1-.9v-1.7h.7v1.8c0,.2,0,.4,0,.5s.2.1.4.1c.3,0,.5-.2.5-.6v-1.7h.3ZM64.9,26.6v2.6h-.6l-1.1-1.6v1.6h-.2v-2.6h.5l1.2,1.8v-1.8h.3ZM65.5,26.6h.7v2.6h-.7v-2.6ZM68.7,26.6l-.7,2.6h-.7l-.7-2.6h.8l.5,1.9.6-1.9h.3ZM70.8,26.6v.3h-.9v.8h.8v.3h-.8v1h1.1v.3h-1.8v-2.6h1.7,0ZM72.2,27.7h.2c.3,0,.4-.1.4-.4s-.1-.4-.4-.4h-.2v.9ZM71.4,29.2v-2.6h1.1c.3,0,.5,0,.7.2.2.1.3.3.3.5,0,.3-.2.5-.6.6.2,0,.3.1.4.2,0,0,0,.2.1.5,0,.3,0,.5.1.6h-.8c0-.1,0-.3,0-.4v-.2s0-.2,0-.2c0-.3-.1-.4-.4-.4h-.1v1.2h-.7ZM75.6,27.3h-.3s0,0,0-.1c0-.3-.2-.4-.5-.4s-.4.1-.4.3.2.3.5.4c.6.2.9.5.9.9s0,.4-.3.6c-.2.1-.4.2-.7.2-.6,0-1-.2-1-.7s0,0,0-.1h.4s0,.1,0,.2c0,.3.2.5.5.5s.4-.1.4-.3-.2-.3-.5-.4c-.5-.2-.8-.5-.8-.9s0-.4.3-.6c.2-.1.4-.2.7-.2.6,0,.8.3.8.8h0ZM76.3,26.6h.7v2.6h-.7v-2.6h0ZM79.5,26.6v.3h-.6v2.3h-.8v-2.3h-.6v-.3h2.1,0ZM81.9,26.6l-.6,1.6v.9h-.7v-.9l-.7-1.6h.8l.5,1.2.5-1.2h.3ZM84.7,26.8c-.1,0-.2,0-.3.2,0,.2,0,.5,0,.9s0,.7,0,.9c0,.2.1.2.3.2s.2,0,.3-.2c0-.2,0-.5,0-.9s0-.7,0-.9c0-.2-.1-.2-.3-.2ZM84.7,26.6c.8,0,1.1.4,1.1,1.3s-.4,1.3-1.1,1.3-1.1-.5-1.1-1.4.4-1.3,1.2-1.3ZM88,26.6v.3h-.9v.9h.8v.3h-.8v1.2h-.7v-2.6h1.7ZM91.6,26.6v.3h-.6v2.3h-.8v-2.3h-.6v-.3h2.1,0ZM93.7,26.6v.3h-.9v.8h.8v.3h-.8v1h1.1v.3h-1.8v-2.6s1.7,0,1.7,0ZM96,28.2h.3c0,.1,0,.2,0,.3,0,.2,0,.4-.3.6-.2.2-.4.2-.7.2-.8,0-1.1-.4-1.1-1.3s.1-.7.3-1c.2-.3.5-.4.9-.4.6,0,.8.3.8.8h-.3c0,0,0,0,0,0,0-.4-.2-.6-.5-.6s-.5.4-.5,1.2.2,1,.5,1,.3,0,.4-.2c.1-.1.2-.3.1-.4,0,0,0-.1,0-.2ZM97.4,27.9v1.3h-.7v-2.6h.7v1h.6v-1h.7v2.6h-.7v-1.3h-.6ZM101.3,26.6v2.6h-.6l-1.1-1.6v1.6h-.2v-2.6h.5l1.2,1.8v-1.8h.3ZM103,26.8c-.1,0-.2,0-.3.2,0,.2,0,.5,0,.9s0,.7,0,.9c0,.2.1.2.3.2s.2,0,.3-.2c0-.2,0-.5,0-.9s0-.7,0-.9c0-.2-.1-.2-.3-.2ZM103,26.6c.7,0,1.1.4,1.1,1.3s-.4,1.3-1.1,1.3-1.1-.5-1.1-1.4.4-1.3,1.2-1.3ZM105.4,26.6v2.3h1.1v.3h-1.8v-2.6s.7,0,.7,0ZM107.9,26.8c-.1,0-.2,0-.3.2,0,.2,0,.5,0,.9s0,.7,0,.9c0,.2.1.2.3.2s.2,0,.3-.2c0-.2,0-.5,0-.9s0-.7,0-.9c0-.2-.1-.2-.3-.2ZM107.9,26.6c.8,0,1.1.4,1.1,1.3s-.4,1.3-1.1,1.3-1.1-.5-1.1-1.4.4-1.3,1.2-1.3ZM110.5,27.8h1.1v1.4h-.2v-.2c-.3.1-.5.2-.7.2-.4,0-.7-.1-.9-.3-.2-.2-.3-.6-.3-1s.1-.7.3-1c.2-.2.5-.4.9-.4s.8.2.9.7l-.3.2h0c0,0,0-.2,0-.2,0-.3-.2-.5-.4-.5s-.3,0-.4.2c0,.2-.1.5-.1.9s0,.7,0,.8c0,.1.2.2.3.2.2,0,.3-.1.3-.3v-.6h-.4s0-.3,0-.3ZM114,26.6l-.6,1.6v.9h-.7v-.9l-.7-1.6h.8l.5,1.2.5-1.2h.3Z"/>
    </g>
  </g>
</svg>