<?xml version="1.0" encoding="UTF-8"?>
<svg xmlns="http://www.w3.org/2000/svg" xmlns:xlink="http://www.w3.org/1999/xlink" version="1.1" viewBox="0 0 128 42.9">
  <defs>
    <style>
      .cls-1 {
        mask: url(#mask);
      }

      .cls-2 {
        fill: #6eb92c;
      }

      .cls-2, .cls-3, .cls-4, .cls-5 {
        fill-rule: evenodd;
      }

      .cls-3 {
        fill: #231916;
      }

      .cls-4 {
        fill: #fefefe;
      }

      .cls-6 {
        fill: #fff;
      }

      .cls-5 {
        fill: #007147;
      }
    </style>
    <mask id="mask" x="14" y="5.8" width="31.4" height="31.4" maskUnits="userSpaceOnUse">
      <g id="a">
        <path class="cls-6" d="M14,5.8h31.4v31.4H14V5.8h0Z"/>
      </g>
    </mask>
  </defs>
  <!-- Generator: Adobe Illustrator 28.7.1, SVG Export Plug-In . SVG Version: 1.2.0 Build 142)  -->
  <g>
    <g id="_图层_1" data-name="图层_1">
      <path class="cls-3" d="M105.6,17.8c0,0-.2.1-.3.2-.2,0-.4,0-.6,0-.2-.6,0-1.1-.1-1.7,0-.1,0-.3,0-.4,0-.1,0-.3-.1-.4,0-.1,0-.3,0-.4,0,0,0-.2,0-.2,0,0,0-.2,0-.2,0,0,.2,0,.3,0,.1,0,.2.2.2.2.1.2.2.4.3.7,0,.1,0,.3.2.4.2.3.5.4.6.7,0,.2,0,.4,0,.7,0,.1,0,.2-.1.4,0,0,0,.1,0,.2,0,0,0,0,0,0h0Z"/>
      <path class="cls-3" d="M109,13.6c0,.5,0,.6-.1.8-.2.3-.6.5-.7,1,.3.2.3-.2.5-.2,0,.2,0,.4.1.6.3,0,.4-.4.6-.5.1,0,.1-.1.2-.2.1-.2.3-.3.3-.5,0-.5-.2-1-.3-1.4-.3,0-.5,0-.7,0,0,.2,0,.3,0,.5ZM111.9,11.9c-.2,0-.7.3-1,.4,0,0-.2,0-.2,0-.2,0-.6.3-.6.5.1.2.3.4.5.7.2.2.5.6.5.8,0,0-.1.3-.2.4-.1.3-.3.5-.5.5-.2.6-1,.6-1.1,1.3.2.2.2.4.2.8,0,0,.1,0,.2,0,.3-.5.8-1,1-1.4.3-.3.4-.7.7-1,0-.3.3-.6.4-.9,0-.1.1-.2.1-.3,0,0,0-.2,0-.3,0,0,0,0,0-.1,0-.1,0-.2,0-.3,0-.1,0-.2,0-.3,0-.1,0-.2,0-.3,0,0,0-.4,0-.4-.1,0-.2,0-.2,0ZM108.9,10.3c.1,0,0-.1,0-.2,0,0,0,0,0,0,0-.2,0-.4,0-.7,0,0,0,0,0,0-.1-.2,0-.4,0-.6.3,0,.5,0,.7.1.2.2.4.4.7.6.1.1.2.2.3.3,0,0,.1,0,.2.1,0,0,0,.2,0,.2,0,.1,0,.2,0,.3-.2.3-.5.5-.7.8,0,0,0,.1,0,.2,0,.1-.2.2-.3.3-.3.3-.5.7-.6,1,0,0,0,0,.2,0,.9-.6,1.9-1.4,3.1-1.6.3,0,.6,0,.8,0,.1,0,.3,0,.4.1.3.1.1.5,0,.7,0,.3-.2.6-.3.9-.3.5-.6,1-.9,1.5-.2.2-.3.5-.5.7-.3.5-.8,1.4-.8,2.1.7-.3,1.7-.8,2.6-.8.1,0,.3,0,.4,0,.1,0,.1.2.2.3,0,.1,0,.3,0,.4,0,.2-.2.5-.4.7-.3.4-.8.7-1.2.9-.2,0-.3.2-.5.2,0,0-.2,0-.2.1,0,0-.1,0-.2,0-.1,0-.2,0-.3.1,0,0-.1,0-.2,0,0,0,0,0-.1,0-.1,0-.2,0-.4.1,0,0-.4,0-.4,0-.3,1.1-1.3,1.7-2.1,2.6,0-.2.1-.5.2-.7,0,0,0-.2,0-.2,0-.1-.9.1-1.2.1-.1,0-.3-.1-.4-.1,0,0,0-.3,0-.3,0-.2.3-.2.4-.2.2,0,.4-.1.6-.2.4-.1.8-.3,1.1-.6.2-.2.3-.3.5-.6,0,0,.3,0,.3,0,.3,0,.6-.2.9-.3.5-.2.9-.5,1.3-.8,0,0,.2-.1.3-.2.2-.2-.3-.2-.4-.2-.2,0-.5.2-.7.2-.2,0-.3,0-.5.2,0,0-.2,0-.3.1-.2.1-.5.2-.9.4,0,0-.2,0-.2.1,0,0,0,0-.1,0,0,0,0,0-.1,0,0,0-.2,0-.3,0,0,0-.2.1-.2.2-.2,0-.4,0-.5.2,0,0-.1,0-.2.1,0,0-.1,0-.2,0-.1,0-.2,0-.3,0-.2,0-.5.1-.7.2-.1,0-.2,0-.3,0-.2,0,0-.3.1-.3,0-.1.2-.2.3-.3,0,0,.2,0,.3-.1.1,0,.2-.1.3-.2.1,0,.3,0,.4,0,.3,0,.5-.1.8-.3.5-.3.6-.9.5-1.3,0,0,0-.2-.2-.2,0,0,0,0,0,.2-.1.1-.6.2-.7,0,0,0-.3-.4-.3-.5-.4-.2-.8.9-1,1.3-.2.3-.4.8-.8,1,0,0-.2,0-.2,0-.2,0,0-.3,0-.4,0,0,0-.2.2-.3,0-.1.2-.2.3-.3,0,0,.1-.2.1-.3,0,0,0-.2.1-.3.2-.3.4-.6.5-1,.1-.3.6-1.1-.1-1.1,0,0,0,.4-.4.3-.5-.6-.6-1.8-.7-2.7,0,0,0-.1,0-.1,0-.1,0,0,0-.2,0-.1,0-.2-.1-.3,0,0-.1-.1-.1-.2,0,0,0-.1,0-.2,0,0-.2-.3-.1-.4,0,0,.2,0,.3,0,0,0,.2,0,.2,0,0,0,.2.1.2.2.2.2.3.5.4.8.3.5.5,1.1.6,1.6,0,.3.1.7.2,1,0,0,.1,0,.1.1.2-.2.6-.5.7-.8,0-.4-.5-.9-.3-1.4.8-.6,1.3-1.6,1.4-2.6h0ZM62.4,23.9c-.3.6-.2.9-.5,1.6.5.3.8-.6,1.1-.7,0,0,0,0,0-.1-.2-.2-.3-.5-.7-.7h0ZM63.7,23.1c0,.2,0,.4,0,.6.3,0,.5-.3.5-.5-.1-.2-.3,0-.6,0h0ZM61.5,13.9c0,.2,0,.4,0,.6,0,.4,0,.7,0,1.1,0,.2,0,.4,0,.5,0,.4,0,.8-.1,1.2,0,.3,0,.7,0,1v.6c0,.5-.1.9,0,1.4,0,.1,0,.3.2.4.2,0,.4,0,.6-.2.2-.1.3-.3.4-.5.2-.3.5-.8.8-1,.1,0,.7-.3.8-.2.2.1.2.3.2.5,0,.2-.2.2-.3.4,0,.1-.1.2-.2.3-.3.4-.5.9-.7,1.3,0,.3-.2.5-.3.8,0,.2,0,.5-.2.7.4,0,.9-.4,1.3-.6.2-.1.4-.2.7-.3.4-.1.8-.4,1,.2,0,.1,0,.3.1.4,0,0-.3.4-.4.5-.1.2-.3.3-.4.5-.1.2-.4.3-.5.6,0,.3.3.4.5.5.4.3.9.4,1.2.9.2.3.3.7,0,1,0,0-.6.4-.7.2,0-.2-.1-.3-.2-.5-.1-.2-.4-.4-.6-.6-.2-.2-.9-.5-1.1-.2,0,0,0,0,0,0-.2.2-.8.8-1,1.1-.1,0-.4.4-.5.5-.3.3-.6.6-.7,1-.2.2-.2.5-.5.7-.4,0-.5-.5-.7-.8,0-.4,0-.7,0-1.1.1-1.1.8-2.3,1.2-3.3,0-.1,0-.3-.1-.4-.2,0-.2.1-.3.2,0,0,0,0,0,0-.5.6-.9,1.2-1.4,1.7,0,0,0,0,0,0-.1.2-.4.5-.6.7,0,0,0,0,0,0-.5.8-1.3,1.4-2.1,2.1-.5.4-1,.7-1.8.7,0,0,0-.2-.1-.2,0,0,0-.3,0-.3,0-.3,0-.7.1-1.1.3-.7,1.2-1.1,1.7-1.5.7-.6,1.4-1.1,2-1.7.3-.3.6-.6.8-1,.1-.2.2-.4.3-.6.2-.4.3-1.1.3-1.5,0-.3,0-.5,0-.8,0-.2,0-.6,0-.8,0-.2,0-1,.1-1.3,0-.2,0-.4,0-.6,0-.2,0-.4,0-.6,0-.1,0-.3,0-.4,0-.2,0-.7,0-.8,0-.3,0-.6,0-.8,0-.3-.2-.5-.2-.9,0-.3,0-.6,0-.9,0-.1-.2-.5-.3-.6,0-.2-.2-.5-.3-.7,0-.3-.2-.6-.4-.9-.1-.2-.2-.3-.2-.6,0-.2,0-.5.3-.5.5,0,1,.5,1.2,1,0,.2.2.4.3.5,0,0,0,0,0,0,0,0,0,0,.1.1,0,.2,0,.6.1.8.2.5.2,1,.2,1.5,0,.3,0,.7,0,1h0ZM63.2,11.6c-.1,0-.2-.2-.3-.3,0,0-.2-.2-.3-.3,0,0-.2-.2-.2-.3,0,0-.1-.5,0-.5,1,0,1.9.5,2.5,1.3,0,.1.3.4.2.6-.1.3-.8.4-1.1.4,0,0,0-.5,0-.5,0-.1-.2-.3-.4-.3,0,0-.2,0-.3,0h0ZM80.1,13.7c.6-.2.9-.5,1.6-.6,0,.3.3.4.4.6,0,.2.1.4.1.6,0,.2-.2.3-.3.5-.1.2-.3.3-.4.5-.3.3-.6.7-1,1,0,0-.2.2-.3.2-.2.1-.3.3-.5,0-.1-.1-.2-.3-.2-.5.1-.2.3,0,.5-.2.1,0,.2-.4.3-.6.1-.2.3-.6.4-.8,0-.2,0-.3,0-.5-.5,0-.8.4-1,.5-.2,1-.8,2-1,2.8,0,.1-.2.7-.2,1,0,0,.5-.1.5-.2.3,0,.6-.3.9-.4.5-.2,1-.4,1.5-.5.3-.1.7-.2,1-.3.3,0,.6-.1.8-.2.3,0,.5.2.4.6,0,.1-.1.1-.2.2,0,.1,0,.2-.1.3-.5.2-1.2.3-1.6.4-.3,0-.7.1-1,.2-.4,0-.8.2-1.2.3-.3,0-.5.1-.8.3-.2.1-.4.3-.7.4-.2.9-.6,1.4-.5,2.5,0,.1.2.1.4,0,.2,0,.2,0,.2-.2,0-.2.2-.3.2-.5,0-.2,0-.4.1-.6.1-.3.2-.8.3-1.1.6-.1,1.1.3,1.2.7,0,0-.3.3-.3.4,0,.1-.1.3-.2.4,0,0-.3,1-.3,1.1.3.1.5.2.8.3.2,0,.5.1.6.3,0,.2,0,.6-.2.8-.8,0-1.1-.2-1.8-.1-.3.8-1.1,1.6-1.7,2.3-.2.2-.4.3-.6.5-.5.7-1.4,1.3-2.2,1.5-.4.1-.9.2-1.3.2-.1,0-.5,0-.5,0-.4-.3-.7-.9-.3-1.3.8,0,1.6.1,2.2-.1.2,0,.4-.3.6-.5,1.1-.8,2.2-1.9,2.7-3.1-.2,0-.3-.2-.5-.2-.2,0-.3-.3-.4-.5-.1-.2-.2-.5-.2-.7,0-.5.6-1.1.5-1.7,0,0,0,0,0,0-.4,0-.7.3-1,.5-.7.3-1.3.7-1.9,1.1-.2.1-.5.2-.7.3,0,0,0,0,0,0,0,0-.4.2-.5.2-.2.1-.2.4-.5.4-.7.1-1.1-.7-1.1-1.2,2.3-.6,4.2-1.6,6.3-2.4.2-.6.3-1.1.4-1.7,0-.2.2-.6.2-.8,0-.2.2-.5,0-.7,0,0-.2,0-.3,0,0,0-.2.2-.2.3,0,0-.2.2-.2.3-.1.2-.3.4-.4.6-.1.2-.3.4-.4.6,0,.1-.1.3-.2.4,0,0-.1,0-.2,0,0,0-.3,0-.3,0-.1-.2-.2-.6-.2-1,0,0,0-.2,0-.3,0-.6.2-1.4.2-2.1-.1,0,0-.3,0-.5,0-.1.3,0,.3,0,.1.1.2.3.3.5,0,.2.1.4.2.5,0,0,0,.6,0,.6,1-.1,1.3-.9,1.9-1.4,0-.7.4-1.9.3-2.7-.2-.2-.3-.2-.3-.4.3-.1.7,0,1.1,0,.2,0,.3,0,.5.1,0,0,.2,0,.2.1,0,0,0,.3,0,.3,0,0,0,0,0,0,.2.5-.3,1.2-.3,1.9h0ZM93.7,18.6c-.4.7-.5,1.5-.7,2.1,0,.1,0,.3,0,.5,1.3,1,2.9,2,4.8,1.5,0,0,0,.2,0,.3,0,.1-.1.2-.2.3,0,.1-.1.2-.2.3-.2.3-.6.4-.8.7-.2.2-.6.2-.8.2-.6-.2-1-.6-1.5-1.1-.1-.1-1.4-1.8-1.6-1.7-.1,0,0,0-.1.2,0,.2-.2.4-.3.6-.1.3-.2.6-.4.9-.1.2-.3.5-.5.7-.1.2-.2.5-.4.7-.4.5-.7,1.1-1.1,1.6-.2.2-.4.4-.6.6,0,0-.1,0-.1.1,0,0-.3.2-.3.2-.1,0-.2.2-.3.2-.3.2-.6.3-1,.4,0,0,0-.2-.1-.2.5-.7,1.3-1.4,1.7-2.2.7-.8,1.3-1.8,1.8-2.8.3-.6.5-1.3.7-1.9,0-.2.1-.4.2-.6,0,0,0-.2,0-.3,0,0,0-.1-.1-.1,0,0-.2,0-.2,0,0,0-.2,0-.3,0-.1,0-.3,0-.4,0-.2,0-.5-.2-.7-.3,0,0-.2,0-.3-.2,0,0,0-.2,0-.3,0-.1.3,0,.3-.1.2,0,.4,0,.5-.1.4,0,.7-.2,1.1-.4.2,0,.3-.2.5-.4.4-.3.6-.8.7-1.2.1-.5,0-.9,0-1.4,0-.7.2-1.4.2-2.1.4-.4.8-.3,1.1.1.3.5,0,.9,0,1.5,0,.3-.1.6-.2.9,0,0,0,.2,0,.3,0,.1,0,.2-.1.3,0,.2,0,.4,0,.7.4-.2.8-.5,1.3-.5.2.1.5.3.4.5,0,.2-.2.5-.3.7-.3.3-1,.6-1.5.7Z"/>
      <path class="cls-3" d="M63.7,14.9s0,0,0,0c0,0,0,.2,0,.3,0,.2.2.4.2.5,0,.1.5.8.3.9,0,0-.2.2-.3.2-.1,0-.2.1-.4.2,0,0-.1,0-.2,0,0,0-.2-.2-.3-.3,0,0,0-.1-.1-.2,0,0,0,0-.1,0,0,0,0,0-.1-.1,0,0,0-.1,0-.2,0,0,0,0-.1-.1,0,0,0-.2,0-.3,0,0,0-.2.1-.3.1-.2.3-.4.4-.6,0,0,0-.1.1-.2,0,0,0-.1,0-.2,0,0,0-.1,0-.2,0-.2-.1-.4,0-.6,0,0,0,0,0-.1,0,0,0-.3,0-.4.9,0,2.3.5,1.5,1.3,0,0,0,.1-.1.2,0,0-.2,0-.3,0-.1,0-.2,0-.4,0,0,0-.1,0-.2.1ZM105.3,26c.8.1,1.7.6,2.6.4,0,0,0-.5,0-.6,0-.2,0-.4,0-.5,0-.3,0-.7,0-1,0-.4,0-.7,0-1,0-.1,0-.2,0-.3,0,0-.5.2-.6.2-.2,0-.4.2-.6.3-.4.2-.8.3-1.3.3-.1,0-.3,0-.4,0,0,0-.2,0-.2-.1,0,0,0-.2,0-.3,0-.1,0-.2,0-.2.2,0,.3,0,.5-.1,0,0,.2,0,.2,0,0,0,.1,0,.2,0,.1,0,.2,0,.4,0,.1,0,.3,0,.4-.1.2,0,.5,0,.7-.1.1,0,.3-.2.4-.3.4-.2.8-.4,1.3-.6.6-.3,1.4-.5,2-.6.2.1.5,0,.6.3,0,.2-.1.4-.1.5-.9.7-1.9.6-2.9.9.1.7.3,1.3.4,1.9,0,.5.2.9.1,1.3,0,.2,0,.4-.1.6,0,.1,0,.3-.1.4,0,.1-.1.2-.2.3,0,.1,0,.2,0,.3,0,0,0,0,0,0,0,0,0,0,0,0,0,.1-.2.3-.2.4,0,0,0,.1,0,.2,0,0-.2.1-.3,0-.2,0-.4-.2-.6-.3-.2-.1-.4-.3-.6-.4-.4-.3-.8-.6-1.2-.9-.1-.1-.3-.3-.4-.4,0,0,0-.1-.1-.1ZM104.6,18.8c0,0,0,.2,0,.2v.2c0,0,0,.2,0,.2,0,.1,0,.2,0,.3,0,0,0,.1,0,.2,0,0,0,.1,0,.2,0,0-.1.1-.2.2,0,.1-.1.3-.2.4,0,.2-.1.4-.2.7,0,0,0,.2,0,.2,0,0,.1,0,.2,0,0,0,.2-.3.2-.3,0-.1.1-.2.2-.3,0-.1.1-.2.2-.3,0,0,0-.2.1-.2,0,0,.2,0,.2,0,0,.3,0,.6,0,.7-.1.4-.4,1-.7,1.4-.2.2-.6.7-1,.8-.2,0-.4-.2-.6-.5-.2-.4-.1-1,0-1.4.2-.4.4-.6.5-1,0,0,0-.1.1-.1,0-.3.5-.8.6-1.2,0,0,0,0,.1-.1,0,0,0-.1,0-.2,0,0,0-.1.1-.2,0,0,.1,0,.2,0,0,0,0,0,0,0ZM57.9,30.9v1.1c0,0,0,0,0,0,0-.3-.2-.6-.4-.7-.2-.1-.4-.2-.7-.2-.2,0-.4,0-.6.2-.2.1-.3.3-.4.5,0,.2-.1.5-.1.9s0,.5.1.8c0,.2.2.4.4.5.2.1.4.2.6.2s.4,0,.6-.1c.2,0,.3-.3.5-.5h0c-.2.3-.3.5-.6.7-.2.1-.5.2-.8.2-.5,0-.9-.2-1.2-.6-.2-.3-.3-.7-.3-1,0-.3,0-.6.2-.9.1-.3.3-.5.6-.6.3-.1.5-.2.8-.2s.5,0,.7.2c0,0,0,0,.1,0,0,0,0,0,.1,0,0,0,0-.1,0-.2h0,0ZM59.3,32.5h1.5v-.9c0-.2,0-.3,0-.3,0,0,0,0,0-.1,0,0-.1,0-.2,0h-.1c0,0,1.4,0,1.4,0h0c0,0-.1,0-.1,0,0,0-.2,0-.2,0,0,0,0,0-.1.1,0,.1,0,.2,0,.3v2.1c0,.2,0,.3,0,.3,0,0,0,0,0,.1,0,0,.1,0,.2,0h.1c0,0-1.4,0-1.4,0h0c0,0,.1,0,.1,0,.1,0,.2,0,.3-.1,0,0,0-.2,0-.4v-1h-1.5v1c0,.2,0,.3,0,.3,0,0,0,0,0,.1,0,0,.1,0,.2,0h.1c0,0-1.4,0-1.4,0h0c0,0,.1,0,.1,0,.1,0,.2,0,.3-.1,0,0,0-.2,0-.4v-2.1c0-.2,0-.3,0-.3,0,0,0,0,0-.1,0,0-.1,0-.2,0h-.1c0,0,1.4,0,1.4,0h0c0,0-.1,0-.1,0,0,0-.1,0-.2,0,0,0,0,0-.1.1,0,.1,0,.2,0,.3v.9h0ZM63.9,33l-.5-1.3-.6,1.3h1.1ZM64,33.1h-1.3l-.2.5c0,0,0,.2,0,.3,0,0,0,0,0,.1,0,0,.1,0,.3,0h0c0,0-1,0-1,0h0c.1-.1.2-.1.3-.2,0,0,.2-.2.3-.5l1.1-2.7h0l1.1,2.7c0,.2.2.4.2.4,0,0,.2.1.3.1h0c0,0-1.3,0-1.3,0h0c.1,0,.2-.1.3-.2,0,0,0,0,0-.1,0,0,0-.2,0-.3l-.2-.5h0ZM65.2,31h.9l2,2.4v-1.9c0-.2,0-.3,0-.4,0,0-.2,0-.3,0h-.1c0,0,1.1,0,1.1,0h0c0,0-.1,0-.1,0-.1,0-.2,0-.3.1,0,0,0,.2,0,.3v2.7h0l-2.1-2.6v2c0,.2,0,.3,0,.4,0,0,.2,0,.3,0h.1c0,0-1.1,0-1.1,0h0c0,0,.1,0,.1,0,.1,0,.2,0,.3-.1,0,0,0-.2,0-.3v-2.2c0,0-.1-.2-.2-.2,0,0-.1,0-.2,0,0,0-.1,0-.2,0,0,0,0,0,0,0ZM71.8,30.9v1c0,0,0,0,0,0,0-.3-.2-.4-.3-.6-.2-.2-.4-.3-.7-.3s-.7.2-.9.5c-.2.3-.3.6-.3,1s0,.6.2.8c.1.3.3.4.5.6.2.1.4.2.6.2.2,0,.5,0,.7-.2v-.9c0-.2,0-.3,0-.3,0,0,0,0-.1-.1,0,0-.2,0-.3,0h0c0,0,1.2,0,1.2,0h0c0,0,0,0,0,0-.1,0-.2,0-.3.1,0,0,0,.2,0,.3v1c-.2,0-.4.2-.5.2-.2,0-.4,0-.6,0-.6,0-1.1-.2-1.4-.6-.2-.3-.4-.7-.4-1,0-.3,0-.6.2-.8.1-.3.4-.5.7-.7.2-.1.5-.2.8-.2s.2,0,.3,0c0,0,.2,0,.4.1,0,0,.1,0,.2,0s0,0,0,0c0,0,0,0,0-.2h0,0ZM73.4,31.4c0-.2,0-.4.1-.6,0-.2,0-.3.1-.3,0,0,.1,0,.2,0,0,0,0,.2,0,.3,0,.2-.1.4-.2.6,0,.2-.2.4-.4.8h0c0-.3.2-.6.2-.8h0ZM77.6,33l-.5-1.3-.6,1.3s1.1,0,1.1,0ZM77.6,33.1h-1.3l-.2.5c0,0,0,.2,0,.3,0,0,0,0,0,.1,0,0,.1,0,.3,0h0c0,0-1,0-1,0h0c.1-.1.2-.1.3-.2,0,0,.2-.2.3-.5l1.1-2.7h0l1.1,2.7c0,.2.2.4.2.4,0,0,.2.1.3.1h0c0,0-1.3,0-1.3,0h0c.1,0,.2-.1.3-.2,0,0,0,0,0-.1,0,0,0-.2,0-.3l-.2-.5h0ZM78.8,31h.9l2,2.4v-1.9c0-.2,0-.3,0-.4,0,0-.2,0-.3,0h-.1c0,0,1.1,0,1.1,0h0c0,0-.1,0-.1,0-.1,0-.2,0-.3.1,0,0,0,.2,0,.3v2.7h0l-2.1-2.6v2c0,.2,0,.3,0,.4,0,0,.2,0,.3,0h.1c0,0-1.1,0-1.1,0h0c0,0,.1,0,.1,0,.1,0,.2,0,.3-.1,0,0,0-.2,0-.3v-2.2c0,0-.1-.2-.2-.2,0,0-.1,0-.2,0,0,0-.1,0-.2,0h0c0,0,0,0,0,0ZM87.2,31.1h0c0,0,1.1,0,1.1,0h0c0,0-.1,0-.1,0-.1,0-.2,0-.3.2,0,0,0,.2,0,.3v1.3c0,.3,0,.6,0,.8,0,.2-.2.4-.4.5-.2.1-.4.2-.8.2s-.6,0-.8-.2c-.2-.1-.3-.3-.4-.5,0-.1,0-.4,0-.8v-1.3c0-.2,0-.3,0-.4s-.1,0-.3,0h-.1c0,0,1.4,0,1.4,0h0c0,0-.1,0-.1,0-.1,0-.2,0-.3.1,0,0,0,.2,0,.4v1.4c0,.1,0,.3,0,.4,0,.1,0,.3.1.4,0,0,.2.2.3.2.1,0,.3,0,.4,0,.2,0,.4,0,.6-.1.2,0,.3-.2.3-.4,0-.1,0-.4,0-.7v-1.3c0-.2,0-.3,0-.4,0,0-.2-.1-.3-.1h-.1,0Z"/>
      <path class="cls-3" d="M88.3,31h.9l2,2.4v-1.9c0-.2,0-.3,0-.4,0,0-.2,0-.3,0h-.1c0,0,1.1,0,1.1,0h0c0,0-.1,0-.1,0-.1,0-.2,0-.3.1,0,0,0,.2,0,.3v2.7h0l-2.1-2.6v2c0,.2,0,.3,0,.4,0,0,.2,0,.3,0h.1c0,0-1.1,0-1.1,0h0c0,0,.1,0,.1,0,.1,0,.2,0,.3-.1,0,0,0-.2,0-.3v-2.2c0,0-.1-.2-.2-.2,0,0-.1,0-.2,0,0,0-.1,0-.2,0h0c0,0,0,0,0,0ZM93.4,34.1h0c0,0-1.4,0-1.4,0h0c0,0,.1,0,.1,0,.1,0,.2,0,.3-.1,0,0,0-.2,0-.4v-2.1c0-.2,0-.3,0-.3,0,0,0,0,0-.1,0,0-.1,0-.2,0h-.1c0,0,1.4,0,1.4,0h0c0,0-.1,0-.1,0-.1,0-.2,0-.3.1,0,0,0,.2,0,.4v2.1c0,.2,0,.3,0,.3,0,0,0,0,.1.1,0,0,.1,0,.2,0h.1ZM97,31h0c0,0-.2.1-.3.2,0,.1-.2.2-.2.4l-1.1,2.7h0l-1.2-2.8c0,0,0-.2-.1-.3,0,0,0,0-.1-.1,0,0-.2,0-.2,0h0c0,0,1.3,0,1.3,0h0c-.1.1-.2.1-.3.2,0,0,0,0,0,.1,0,0,0,.2.1.4l.8,1.9.8-1.9c0-.2.1-.3.1-.4s0,0,0-.1c0,0-.1,0-.2,0h0c0,0,1,0,1,0ZM98,31.2v1.3h.7c.2,0,.3,0,.4,0,0,0,.1-.2.1-.4h0v1.1h0c0-.1,0-.2,0-.3,0,0,0-.1-.1-.1,0,0-.2,0-.3,0h-.7v1.1c0,.1,0,.2,0,.3,0,0,0,0,0,0,0,0,0,0,.2,0h.5c.2,0,.3,0,.4,0,0,0,.2,0,.2-.2,0,0,.2-.2.3-.4h0l-.3.8h-2.5c0,0,.1,0,.1,0,0,0,.2,0,.2,0,0,0,0,0,.1-.1,0,0,0-.2,0-.3v-2.1c0-.2,0-.3,0-.4,0,0-.2,0-.3,0h-.1c0,0,2.5,0,2.5,0v.7s0,0,0,0c0-.2,0-.3-.1-.4,0,0-.1-.1-.2-.1-.1,0-.2,0-.3,0,0,0-.9,0-.9,0ZM101,32.5h.1c.3,0,.5,0,.7-.2.2-.1.2-.3.2-.5,0-.2,0-.4-.2-.5-.1-.1-.3-.2-.5-.2,0,0-.2,0-.4,0v1.3h0ZM103.3,34.2h-.9l-1.1-1.5c0,0-.1,0-.2,0h-.1s0,.9,0,.9c0,.2,0,.3,0,.4,0,0,.1.1.3.1h.1c0,0-1.4,0-1.4,0h0c0,0,.1,0,.1,0,.1,0,.2,0,.3-.1,0,0,0-.2,0-.3v-2.1c0-.2,0-.3,0-.4,0,0-.2-.1-.3-.1h-.1c0,0,1.2,0,1.2,0,.3,0,.6,0,.8,0,.2,0,.3.1.4.3.1.1.2.3.2.5,0,.2,0,.4-.2.5s-.3.2-.6.3l.7.9c.2.2.3.4.4.4.1,0,.3.1.4.1,0,0,0,0,0,0ZM105.5,30.9v1.1h0c0-.2,0-.4-.2-.5,0-.1-.2-.2-.3-.3-.1,0-.3-.1-.4-.1-.2,0-.3,0-.4.2-.1,0-.2.2-.2.3,0,0,0,.2.1.3,0,.1.3.3.7.5.3.2.5.3.6.4.1,0,.2.2.3.3.2.3,0,.7-.2,1-.2.2-.4.3-.7.3s-.2,0-.3,0c-.1,0-.2,0-.3,0,0,0-.2,0-.3,0,0,0,0,0,0,0,0,0,0,0,0,.2h0v-1.1h0c0,.2,0,.4.2.5,0,.1.2.2.3.3.1,0,.3.1.5.1.2,0,.4,0,.5-.2.2-.2.2-.4.1-.6,0,0-.1-.2-.2-.2-.2-.1-.3-.2-.5-.3-.2-.1-.4-.2-.6-.4-.1,0-.2-.2-.3-.3-.2-.3,0-.7.2-1,.2-.2.4-.3.7-.2.2,0,.4,0,.5.1,0,0,.2,0,.2,0,0,0,0,0,0,0,0,0,0,0,0-.1,0,0,0,0,0,0ZM107.5,34.1h0c0,0-1.4,0-1.4,0h0c0,0,.1,0,.1,0,.1,0,.2,0,.3-.1,0,0,0-.2,0-.4v-2.1c0-.2,0-.3,0-.3,0,0,0,0,0-.1,0,0-.1,0-.2,0h-.1c0,0,1.4,0,1.4,0h0c0,0-.1,0-.1,0-.1,0-.2,0-.3.1,0,0,0,.2,0,.4v2.1c0,.2,0,.3,0,.3,0,0,0,0,0,.1,0,0,.1,0,.2,0h.1ZM110.4,31v.8s0,0,0,0c0,0,0-.2,0-.3,0,0-.1-.2-.2-.2-.1,0-.2,0-.3,0h-.5v2.5c0,.2,0,.3,0,.4,0,0,.2,0,.3,0h.1c0,0-1.4,0-1.4,0h0c0,0,.1,0,.1,0,.1,0,.2,0,.3-.1,0,0,0-.2,0-.3v-2.5h-.4c-.2,0-.3,0-.3,0,0,0-.2,0-.2.2,0,.1-.1.2-.1.3h0v-.8h2.7,0ZM112.9,31h1.1c0,0,0,0,0,0,0,0-.1,0-.2,0,0,0-.2,0-.2.2,0,0-.1.2-.2.3l-.8,1.2v.8c0,.2,0,.3,0,.4,0,0,.2,0,.3,0h.1c0,0-1.4,0-1.4,0h0c0,0,.1,0,.1,0,.1,0,.2,0,.3-.1,0,0,0-.2,0-.3v-.8l-.9-1.3c0-.1-.1-.2-.2-.3,0,0-.1-.1-.2-.1,0,0,0,0-.1,0h0c0,0,1.4,0,1.4,0h0c0,0,0,0,0,0,0,0-.1,0-.2,0,0,0,0,0,0,.2,0,0,0,.2.1.3l.7,1,.6-1c0-.2.1-.3.1-.3,0,0,0-.2-.1-.2,0,0-.1,0-.2,0h0q0,0,0,0Z"/>
      <g class="cls-1">
        <path class="cls-5" d="M14,21.5c0,8.7,7,15.7,15.7,15.7s15.7-7,15.7-15.7-7-15.7-15.7-15.7-15.7,7-15.7,15.7h0Z"/>
      </g>
      <path class="cls-2" d="M44.9,21.5c0,8.4-6.8,15.2-15.2,15.2s-15.2-6.8-15.2-15.2,6.8-15.2,15.2-15.2,15.2,6.8,15.2,15.2Z"/>
      <path class="cls-4" d="M15.7,20.3h.7s0,0,0,0c-.2,0-.4.1-.5.3,0,.1-.2.3-.1.4,0,.1,0,.3.1.4,0,.1.2.2.3.3.2,0,.3.1.6.1.2,0,.4,0,.5,0,.1,0,.2-.1.3-.3,0-.1.1-.3.1-.4,0-.1,0-.3,0-.4,0-.1-.2-.2-.3-.4h0c.2,0,.3.2.4.3,0,.2.1.3.1.5,0,.3-.1.6-.4.8-.2.1-.4.2-.7.2-.2,0-.4,0-.6-.2-.2,0-.3-.2-.4-.4,0-.2-.1-.4-.1-.5,0-.2,0-.3.1-.4,0,0,0,0,0,0,0,0,0,0,0,0,0,0,0,0-.1,0h0q0,0,0,0ZM16.8,19.3l.2-1h-.6c0-.1-.1-.1-.2-.1,0,0,0,0,0,0,0,0,0,0,0,.1h0c0,0,0,0,0,0l.2-.9h0s0,0,0,0c0,0,0,0,0,.1,0,0,0,0,0,0,0,0,.1,0,.2,0l1.3.3c.1,0,.2,0,.2,0,0,0,0,0,0,0,0,0,0,0,0-.1h0c0,0,0,0,0,0l-.2.9h0s0,0,0,0c0,0,0-.2,0-.2,0,0-.1,0-.2,0h-.6c0-.1-.2.8-.2.8h.6c0,.2.1.2.2.2,0,0,0,0,0,0,0,0,0,0,0-.1h0c0,0,0,0,0,0l-.2.9h0s0,0,0,0c0,0,0-.2,0-.2,0,0-.1,0-.2,0l-1.3-.3c0,0-.1,0-.2,0,0,0,0,0,0,0,0,0,0,0,0,.1h0c0,0,0,0,0,0l.2-.9h0s0,0,0,0c0,0,0,0,0,.1,0,0,0,0,0,0,0,0,0,0,.2,0,0,0,.6.1.6.1ZM18.1,16.3h-.9s.6.7.6.7l.3-.7h0ZM18.2,16.3l-.3.8.3.3c0,0,.1.1.1.1,0,0,0,0,0,0,0,0,0,0,.1-.2h0s-.3.6-.3.6h0c0-.1,0-.2,0-.2,0,0,0-.2-.2-.3l-1.3-1.4h0s1.9,0,1.9,0c.2,0,.3,0,.3,0,0,0,.1,0,.1-.2h0s-.3.8-.3.8h0c0-.1,0-.2,0-.2,0,0,0,0,0,0,0,0-.1,0-.2,0,0,0-.3,0-.3,0ZM17.4,14.6l.3-.5,2-.2-1-.7c-.1,0-.2-.1-.2-.1,0,0-.1,0-.2.1h0c0,0,0,0,0,0l.4-.6h0s0,0,0,0c0,0,0,.1,0,.2,0,0,0,0,.2.2l1.5,1h0s-2.2.2-2.2.2l1.1.7c.1,0,.2.1.2.1,0,0,.1,0,.2-.1h0c0,0,0,0,0,0l-.4.6h0s0,0,0,0c0,0,0-.1,0-.2,0,0,0,0-.2-.2l-1.2-.8c0,0-.1,0-.2,0,0,0,0,0-.1,0,0,0,0,0,0,.1,0,0,0,0,0,0ZM20.4,10.9l.5.4h0c-.1,0-.3,0-.4,0-.2,0-.3,0-.5.2-.2.2-.3.4-.2.7,0,.2.2.4.3.6.1.1.3.2.5.3.2,0,.3,0,.5,0,.2,0,.4-.2.5-.4,0,0,0-.1,0-.2l-.4-.4c0,0-.1,0-.2-.1,0,0,0,0-.1,0,0,0-.1,0-.1.1h0s.6-.6.6-.6h0s0,0,0,0c0,0,0,.1,0,.2,0,0,0,.1.1.2l.5.5c0,.1,0,.2-.1.3,0,.1-.1.2-.2.3-.3.3-.6.4-.9.4-.2,0-.5-.1-.6-.3-.1-.1-.2-.3-.3-.5,0-.2,0-.4,0-.6,0-.2.1-.3.3-.5,0,0,.1,0,.2-.1,0,0,.1,0,.2-.1,0,0,0,0,.1,0,0,0,0,0,0,0,0,0,0,0,0,0h0s0,0,0,0ZM21.7,10.2c0-.1,0-.3-.1-.4,0-.1,0-.2,0-.2,0,0,0,0,.1,0,0,0,0,0,.1.2,0,.1,0,.2,0,.4,0,.1,0,.3,0,.5h0c0-.1,0-.3-.1-.5ZM25.1,9.7l-.7-.6v.9s.7-.3.7-.3ZM25.2,9.7l-.8.3v.4c0,0,0,.1,0,.2,0,0,0,0,0,0,0,0,.1,0,.2,0h0c0,0-.6.3-.6.3h0c0-.1.1-.1.1-.2,0,0,0-.2,0-.3v-1.9s0,0,0,0l1.4,1.3c.1.1.2.2.3.2,0,0,.1,0,.2,0h0c0,0-.8.4-.8.4h0c0,0,.1-.1.1-.2,0,0,0,0,0,0,0,0,0-.1-.1-.2,0,0-.2-.2-.2-.2ZM25.8,8h.6c0-.1,1.6,1.2,1.6,1.2l-.2-1.2c0-.1,0-.2,0-.2,0,0-.1,0-.2,0h0s0,0,0,0l.7-.2h0c0,0,0,0,0,0,0,0-.1,0-.2.1,0,0,0,.1,0,.2l.4,1.7h0s-1.7-1.4-1.7-1.4l.3,1.3c0,.1,0,.2,0,.2,0,0,.1,0,.2,0h0s0,0,0,0l-.7.2h0c0,0,0,0,0,0,0,0,.1,0,.2-.1,0,0,0-.1,0-.2l-.3-1.4c0,0-.1,0-.2-.1,0,0,0,0-.1,0,0,0,0,0-.1,0,0,0,0,0,0,0ZM31.9,7.7h0c0,0,.7,0,.7,0h0c0,0,0,0,0,0,0,0-.2,0-.2,0,0,0,0,.1,0,.2v.8c-.1.2-.2.4-.2.5,0,.1-.2.2-.3.3-.1,0-.3,0-.5,0-.2,0-.4,0-.5-.2-.1,0-.2-.2-.2-.4,0,0,0-.3,0-.5v-.8c.1-.1.1-.2,0-.3,0,0,0,0-.2,0h0s0,0,0,0h.9c0,.1,0,.2,0,.2h0c0,0-.2,0-.2,0,0,0,0,.1,0,.2v.9c-.1,0-.1.2-.1.3,0,0,0,.2,0,.3,0,0,0,.1.1.2,0,0,.2,0,.3,0,.1,0,.3,0,.4,0,.1,0,.2-.1.3-.2,0,0,0-.2.1-.5v-.8c.1-.1.1-.2.1-.3,0,0,0,0-.2,0h0s0,0,0,0ZM33.1,7.8l.5.2.7,1.9.4-1.2c0-.1,0-.2,0-.2,0,0,0,0-.2-.1h0s0,0,0,0l.7.2h0c0,0,0,0,0,0,0,0-.2,0-.2,0,0,0,0,0-.1.2l-.6,1.7h0s-.8-2.1-.8-2.1l-.4,1.2c0,.1,0,.2,0,.2,0,0,0,0,.2.1h0s0,0,0,0l-.7-.2h0c0,0,0,0,0,0,0,0,.2,0,.2,0,0,0,0,0,.1-.2l.5-1.4c0,0,0-.1,0-.2,0,0,0,0-.1-.1,0,0,0,0-.1,0h0q0,0,0,0ZM35.5,11h0c0,0-.8-.4-.8-.4h0s0,0,0,0c0,0,.1,0,.2,0,0,0,0,0,.1-.2l.6-1.2c0,0,0-.1,0-.2,0,0,0,0,0,0,0,0,0,0-.1,0h0s0,0,0,0l.8.4h0s0,0,0,0c0,0-.1,0-.2,0,0,0,0,0-.1.2l-.6,1.2c0,0,0,.1,0,.2,0,0,0,0,0,0,0,0,0,0,.1,0,0,0,0,0,0,0ZM38.6,10.6h0c0,0-.1,0-.2,0,0,0-.2,0-.3.1l-1.6,1h0s.4-2,.4-2c0,0,0-.1,0-.2,0,0,0,0,0-.1,0,0,0,0-.1-.1h0s.7.4.7.4h0c0,0-.1,0-.2,0,0,0,0,0,0,0,0,0,0,.2,0,.2l-.3,1.3,1.1-.7c0,0,.1,0,.2-.2,0,0,0,0,0,0,0,0,0,0,0-.1h0s0,0,0,0c0,0,.5.4.5.4ZM39.3,11.5l-.6.6.3.3c0,0,.2.1.2.1,0,0,.2,0,.2-.1h0s-.5.6-.5.6h0c0,0,0-.2.1-.2,0,0,0,0,0-.1,0,0,0-.1-.1-.2l-.3-.3-.5.5s0,0-.1.1c0,0,0,0,0,0,0,0,0,0,0,0l.3.3c0,0,.2.1.2.2,0,0,.1,0,.2,0s.2,0,.3,0h0s-.5.3-.5.3l-1.1-1.2h0s0,0,0,0c0,0,0,0,.1,0,0,0,0,0,.1,0,0,0,.1,0,.2-.1l1-1c0,0,.1-.2.1-.2,0,0,0-.1,0-.2h0c0,0,0,0,0,0l1.1,1.2-.3.3h0c0-.1,0-.2.1-.3,0,0,0-.1,0-.2,0,0,0-.1-.1-.2l-.4-.4h0ZM40.1,13.7h0c0,0,0,0,0,0,.1.2.2.3.4.3.1,0,.3,0,.4,0,.1,0,.2-.2.2-.3,0-.1,0-.2,0-.3,0,0-.1-.1-.2-.2,0,0-.7.5-.7.5ZM40.1,15.5l-.3-.5.4-1.2s0,0,0-.1h0s0,0,0,0l-.5.3c-.1,0-.2.1-.2.2,0,0,0,.1,0,.2h0c0,0,0,.1,0,.1l-.5-.7h0s0,0,0,0c0,0,.1.1.2.1,0,0,.1,0,.2-.1l1.1-.8c.1,0,.2-.1.2-.2,0,0,0-.1,0-.2h0c0,0,0,0,0,0l.4.6c.1.2.2.3.2.4,0,.1,0,.2,0,.3,0,.1,0,.2-.2.3-.1,0-.2.1-.3,0-.1,0-.3,0-.4-.2l-.2.7c0,.1,0,.2,0,.4,0,0,0,.2,0,.3,0,0,0,0,0,0ZM42.6,15.9l-.7.3h0c.1-.1.2-.2.3-.3,0,0,0-.2,0-.3,0,0,0-.2,0-.3,0,0-.1-.2-.2-.2,0,0-.2,0-.2,0,0,0-.1,0-.1.1,0,0,0,.3,0,.5,0,.2,0,.4,0,.5,0,0,0,.2-.1.2-.2.2-.4.3-.6.2-.2,0-.3-.2-.4-.4,0,0,0-.1,0-.2,0,0,0,0,0-.2,0,0,0-.1,0-.2,0,0,0,0,0,0,0,0,0,0,0,0h0c0,0,.7-.4.7-.4h0c-.1.1-.2.2-.3.3,0,0,0,.2,0,.3,0,.1,0,.2,0,.3,0,.1.1.2.2.2,0,0,.2,0,.3,0,0,0,0,0,.1-.1,0,0,0-.1,0-.2,0,0,0-.2,0-.4,0-.2,0-.4,0-.5,0,0,0-.2.1-.2.1-.2.4-.3.6-.2.2,0,.3.2.3.3,0,0,0,.2,0,.4,0,0,0,0,0,.1,0,0,0,0,0,0,0,0,0,0,.1,0h0c0,0,0,0,0,0ZM41.1,18.1h0s-.3-.8-.3-.8h0s0,0,0,0c0,0,0,.1.1.2,0,0,.1,0,.2,0l1.3-.4c0,0,.1,0,.2,0,0,0,0,0,0,0,0,0,0-.1,0-.2h0c0,0,0,0,0,0l.3.9h0s0,0,0,0c0,0,0-.1-.1-.2,0,0-.1,0-.2,0l-1.3.4c0,0-.1,0-.2,0,0,0,0,0,0,0,0,0,0,0,0,.1h0ZM43.6,19.5h-.5c0,.1,0,0,0,0,0,0,.1,0,.2,0,0,0,0,0,.1-.2,0,0,0-.1,0-.2v-.3c0,0-1.6.3-1.6.3-.1,0-.2,0-.2,0,0,0,0,.1,0,.2h0c0,0,0,0,0,0l-.2-.9h0s0,0,0,0c0,0,0,.1.1.2,0,0,.1,0,.2,0l1.6-.3v-.2c0,0,0-.1-.1-.2,0,0,0,0-.1-.1,0,0-.2,0-.2,0h0c0,0,.5-.1.5-.1,0,0,.3,1.7.3,1.7ZM43.7,21.5v.7s0,0,0,0h0c0,0,0-.1,0-.2,0,0,0-.1-.1-.1,0,0-.1-.1-.2-.2l-.8-.5h-.5c-.1,0-.2,0-.2,0,0,0,0,.1,0,.2h0c0,0,0,0,0,0v-.9s0,0,0,0h0c0,.2,0,.2,0,.3,0,0,.1,0,.2,0h.5s.9-.6.9-.6c.1,0,.2-.1.2-.1,0,0,0,0,0-.2,0,0,0,0,0,0h0v.9s0,0,0,0h0c0,0,0-.1,0-.2,0,0,0,0-.1,0,0,0-.1,0-.2,0l-.7.5.7.4c0,0,.2,0,.2,0,0,0,.1,0,.1,0,0,0,0,0,0-.1,0,0,0,0,0,0Z"/>
      <path class="cls-5" d="M31.2,29.9v.5h1v-.5c0-.3-.2-.5-.5-.5h0c-.3,0-.5.2-.5.5,0,0,0,0,0,0h0ZM28.2,29.9c0-.3-.2-.5-.5-.5h0c-.3,0-.5.2-.5.5h0v.5h1v-.5ZM30.4,29.7c0-.4-.3-.7-.7-.7h0c-.4,0-.7.3-.7.7,0,0,0,0,0,0h0v.7h1.5v-.7h0s0,0,0,0ZM36.7,14s0,0,0,0h0c0,0,0,0,0,0h0ZM37.1,26.3l.3-.4-.4-.3-.3.4.4.3ZM38.8,23.6l.2-.4-.5-.2-.2.4.5.2ZM39.3,20.8v-.4s-.3,0-.3,0v.4s.3,0,.3,0ZM39.1,17.6h-.3s0,.3,0,.3h.3s0-.3,0-.3h0ZM37.9,15h-.2c0,0,.1.3.1.3h.2c0,0-.1-.3-.1-.3ZM22.7,26l-.3-.4-.4.3.3.4.4-.3ZM21,23.4v-.4c-.1,0-.6.2-.6.2l.2.4.5-.2h0ZM20.4,20.8v-.4s-.3,0-.3,0v.4s.3,0,.3,0ZM20.2,17.9h.3s0-.2,0-.2h-.3s0,.2,0,.2ZM21.3,15.2h.2c0,0,.1-.1.1-.1h-.2c0,0-.1.1-.1.1h0ZM22.7,14h0c0,0,0,0,0,0h0ZM40.2,21c0,5.9-4.7,10.6-10.5,10.6s-10.5-4.8-10.5-10.6,4-10,9.6-10.3c0,0,0,0-.1,0-.7.1-1.4.3-2,.6-.4.1-.7.3-1,.5-.3.2-.6.4-1,.6-.7.4-1.3,1-1.8,1.6h0c0,0-.2,0-.2,0l-.3.4h.2c-.4.7-.8,1.3-1,1.9h-.2c0-.1-.2.3-.2.3,0,.2-.2.5-.2.5h.2c-.2.6-.3,1.2-.3,1.8h-.3s0,.4,0,.5c0,.2,0,.6,0,.6h.3s0,0,0,0c0,.5,0,1,.1,1.5h-.3c0,0,0,.5.1.6,0,.1,0,0,0,.3h.3c.2.6.4,1.2.7,1.7l-.3.2c.1.3.3.5.5.8l.3-.2c.4.5.8,1,1.2,1.4l-.2.2.8.7.2-.3s1.3.7,2.1.7l.2-.3h.8v-.4c0,0-1,0-.9,0,.5-.2.7-1.1.7-1.1l.2.2h4.7l.2-.2s.2.9.7,1.1c0,0-.8,0-.9,0v.3h.8s.2.4.2.4c.9,0,2.1-.7,2.1-.7l.2.3.8-.7-.2-.2c.5-.4.9-.9,1.2-1.4l.3.2s.2-.3.2-.4c.1-.2.2-.4.2-.4l-.3-.2c.3-.6.6-1.2.7-1.8h.3c0-.2,0-.1,0-.3,0-.1.1-.5.1-.5h-.3c0-.6.1-1.1.1-1.6h0s.3,0,.3,0c0,0,0-.3,0-.5,0,0,0-.5,0-.5h-.3c0-.6-.2-1.1-.3-1.7h.2c0,0-.1-.4-.2-.6l-.2-.5h-.2c-.3-.5-.6-1.1-1-1.7h.2c0-.1-.3-.5-.3-.5h-.2c0,.1,0,0,0,0-.5-.7-1.1-1.2-1.8-1.6-.3-.2-.6-.4-1-.6-.3-.2-.7-.3-1-.5-.4-.1-.8-.3-1.2-.4-.3,0-.5-.1-.8-.2,0,0,0,0-.1,0,5.5.3,9.6,4.6,9.6,10.3h0Z"/>
      <path class="cls-4" d="M29.2,16.5h1v-5.1h-1s0,5.1,0,5.1Z"/>
      <path class="cls-4" d="M29.9,12.9h1.6v-.8h-1.6v.8h0ZM29.9,14.4h1.8v-.8h-1.8v.8ZM29.9,15.8h2.1v-.8h-2.1v.8ZM26.1,18.6c-.9,1.3-1.4,3.1-1.4,5,0,.2.2.4.4.4s.4-.2.4-.4c0,0,0,0,0,0,0-3.5,1.9-6.4,4.2-6.4s4.2,2.9,4.2,6.4c0,.2.2.4.4.5.2,0,.4-.2.5-.4,0,0,0,0,0,0,0-1.9-.5-3.7-1.4-5-1-1.4-2.2-2.2-3.6-2.2s-2.7.8-3.6,2.2Z"/>
      <path class="cls-4" d="M28.4,17.1v1h0c0,.2,0,.5.2.6.1.1.4.3.7.3h1.5c.2,0,.4-.2.4-.5,0-.2-.2-.4-.4-.4h-1.5c-.2,0-.2-.1-.2-.2v-.9c0-.2-.2-.4-.4-.4-.2,0-.4.2-.4.4Z"/>
      <path class="cls-4" d="M30.1,17.1v1.4c0,.2.2.4.4.4s.4-.2.4-.4v-1.4c0-.2-.2-.4-.4-.4s-.4.2-.4.4ZM29.3,18.8v2.5c0,.2.2.4.4.4.2,0,.4-.2.4-.4h0v-2.5c0-.2-.2-.4-.5-.4-.2,0-.4.2-.4.4Z"/>
      <path class="cls-4" d="M26.5,21.4c0,.2,0,.5.3.5.2,0,.4,0,.5-.2.3-.7,1.3-1.2,2.4-1.2s2.1.5,2.4,1.2c0,.2.3.3.5.2.2,0,.3-.3.2-.5,0,0,0,0,0,0-.5-1-1.8-1.7-3.2-1.7s-2.7.7-3.2,1.7h0Z"/>
      <path class="cls-4" d="M27.3,23.4c0,.2.2.4.4.4s.4-.2.4-.4c0-.8.7-1.5,1.5-1.5s1.5.7,1.5,1.5c0,.2.2.4.4.4.2,0,.4-.2.4-.4,0-1.3-1.1-2.4-2.4-2.4-1.3,0-2.4,1.1-2.4,2.4ZM30.4,11.2c0,.2-.3.4-.7.4s-.7-.2-.7-.4.3-.4.7-.4.7.2.7.4ZM31.6,13.1c-.2,0-.4-.3-.4-.6s.2-.6.4-.6.4.3.4.6-.2.6-.4.6ZM31.9,14.5c-.2,0-.4-.3-.4-.6s.2-.6.4-.6.4.3.4.6-.2.6-.4.6h0ZM32.2,16c-.2,0-.4-.3-.4-.6s.2-.6.4-.6.4.3.4.6-.2.6-.4.6ZM27.6,32.7c.1,0,.2,0,.4,0,0,0,0,0,0,.2,0,0,0,0,0,.1,0,0,0,0-.1,0,0,0,0,0-.1,0-.1,0-.2.1-.4.2,0,0,0,0-.1,0,0,0,0,0,0-.1,0,0,0,0,.1,0,0,0,0,0,.1-.1,0,0,.1-.1.1-.2,0,0,0,0,0,0-.1,0-.2,0-.3,0-.1.2-.3.4-.4.6,0,0,0,.2-.1.2,0,0,.1,0,.1,0,0,0,.1,0,.2,0,.2,0,.4,0,.6,0,0,0,.1,0,.2,0,0,0,.1,0,0,.2,0,0,0,0,0,0,0,0,0,0,0,0-.1,0-.3,0-.4,0,0,0-.2,0-.2,0,0,0-.2,0-.3,0,0,0-.1,0-.2,0,0,0-.1,0-.2,0,0,.2-.2.3-.3.5,0,0,0,0,0,0,0,0,0,0,0,0,0,0,0,0,0,0,0,0,0,0,0-.1,0,0,0-.2.1-.2.1,0,.2.1.2.2,0,0,0,0,0,0,0,0,0,0,0,0,0,0-.1.2-.1.2,0,0,.1,0,.2.1,0,0,.1,0,.1.1,0,0,0,.1,0,.2-.2,0-.2-.1-.4-.1-.1.2-.4.3-.5.4,0,0-.1,0-.2,0-.2.1-.4.2-.6.2-.1,0-.2,0-.3,0,0,0-.1,0-.1,0,0,0-.1-.2,0-.3.2,0,.4.1.5.1,0,0,.1,0,.2,0,.3-.1.6-.3.8-.5,0,0,0,0,0,0,0,0,0,0,0-.1,0,0,0-.1,0-.2,0-.1.2-.2.2-.3,0,0,0,0,0,0,0,0-.2,0-.3,0-.2,0-.3,0-.5.1,0,0-.1,0-.2,0,0,0,0,0,0,0,0,0-.1,0-.1,0,0,0,0,0-.1,0-.2,0-.2-.2-.2-.3.6,0,1,0,1.6-.2,0-.1.1-.2.2-.3,0,0,0-.1.1-.2,0,0,0,0,0-.1,0,0,0,0,0,0,0,0,0,0,0,0,0,0-.1.1-.2.2h-.1c0,.1,0,.2,0,.2,0,0,0,0,0,0,0,0,0,0,0,0,0,0,0-.2,0-.2,0,0,0,0,0,0,0-.1.1-.3.2-.5,0,0,0,0,0-.1,0,0,0,0,0,0,0,.1,0,.3,0,.4.2,0,.4-.1.5-.2,0-.2.2-.4.2-.6,0,0,0,0,0-.1,0,0,.2,0,.2,0,0,0,0,0,.1,0,0,0,0,0,0,0,0,0,0,0,0,0,0,0,0,0,0,0,0,.1-.1.2-.2.4h0ZM32.6,33.5c0,.2-.1.4-.1.5,0,0,0,0,0,.1.3.2.7.4,1.2.3,0,0,0,0,0,0,0,0,0,0,0,0,0,0,0,0,0,0,0,0-.1.1-.2.2,0,0-.1,0-.2,0-.2,0-.3-.1-.4-.2,0,0-.4-.4-.4-.4,0,0,0,0,0,0,0,0,0,0,0,.1,0,0,0,.2,0,.2,0,0,0,.1,0,.2,0,0,0,.1,0,.2,0,.1-.1.3-.2.4,0,0,0,0-.1.1,0,0,0,0,0,0,0,0,0,0,0,0,0,0,0,0,0,0,0,0-.1,0-.2.1,0,0,0,0,0,0,.1-.2.3-.4.4-.6.2-.2.3-.5.4-.7,0-.2.1-.3.1-.5,0,0,0-.1,0-.2,0,0,0,0,0,0,0,0,0,0,0,0,0,0,0,0,0,0,0,0,0,0,0,0,0,0,0,0-.1,0,0,0-.1,0-.2,0,0,0,0,0,0,0,0,0,0,0,0,0,0,0,0,0,0,0,0,0,0,0,.1,0,0,0,.2,0,.2-.1.1,0,.2-.2.3-.4,0-.1,0-.2,0-.3,0-.2,0-.3,0-.5,0-.1.2,0,.3,0,0,.1,0,.2,0,.3,0,0,0,.2,0,.2,0,0,0,0,0,0,0,0,0,0,0,0,0,0,0,.1,0,.2,0,0,.2-.1.3-.1,0,0,.1,0,0,.1,0,0,0,.1,0,.2,0,0-.2.2-.3.2h0ZM21.2,32.5c-.1,0-.1.1-.3.2,0,.1.2,0,.3,0,0,0,0,0,0,0,0,0,0-.1,0-.2h0ZM21.5,32.5s0,0,0,.1c0,0,.1,0,.2,0,0,0,0,0,0,0ZM22.3,30.7s0,0,0,.1c0,0,0,.1-.1.2,0,0,0,0,0,.1,0,0-.1.1-.2.2,0,0,0,.1-.1.2h0c0,.2-.1.3-.2.3,0,0,0,0,0,0,0,0,0,0,.1,0,0,0,0,0,.1,0,0,0,.2,0,.3,0,0,0,.2,0,.2,0,0,0,0,0,0,.1,0,0,0,0,0,0,0,0,0,0,0,0-.1,0-.2,0-.3.1,0,0,0,0-.1,0,0,0,0,0-.1.1,0,0,.2,0,.3,0,0,0,.1,0,.2,0,0,0,.2,0,.1.2,0,0,0,0,0,0,0,0-.1,0-.1,0,0,0,0,0-.1,0,0,0-.1,0-.2,0,0,0,0,.1,0,.1,0,0,.1.2,0,.3,0,0,0,.2-.1.2,0,0-.2,0-.1,0,0,0,0,0,0-.1,0,0,0-.1,0-.2,0,0,0-.2-.2-.2-.1,0-.2,0-.3,0,0,0-.1,0-.2,0,0,0-.2,0-.3,0,0,0-.1,0-.2,0,0,0,0-.1,0-.2,0,0,0-.1.1-.2.2-.2.4-.3.6-.4,0,0,0,0,0,0,0,0,0,0,0,0,0,0,0,0,0,0-.2,0-.3,0-.5.1,0,0,0,0,0,0,0,0-.1,0-.2,0,0,0,0,0,0,0-.2,0-.4,0-.6,0-.1,0-.3,0-.4-.1,0,0,0,0,0,0,0,0,0,0,0,0,0,0,0-.1.2-.2.1,0,.3,0,.5,0,.2,0,.4,0,.6,0,0,0,.2,0,.3,0,0,0,0,0,.1,0,0,0,.2-.2.2-.2,0,0,0,0,.1-.1,0,0,0-.1,0-.1,0,0,.1-.2.2-.2,0,0,0,0,0,0,0,0,0,0,0-.1h0c0-.1,0-.2.1-.2,0,0,0,0,0-.1,0,0,0-.1,0-.2,0,0,0-.1.1-.2,0,0,0-.1,0-.1,0,0,0-.1,0-.2,0,0,0-.1,0-.2,0,0,0,0,0-.1,0,0,0,0,.1,0,0,0,.1.2,0,.3,0,0,0,0,0,.1,0,0,0,0,0,0,0,0,0,0,0,0,0,0,0,.1,0,.2,0,.1,0,.2-.2.3,0,0,0,.1-.1.2h0ZM22.9,30.5s0,0,0,0c0,0,0,0,0,0,0,0,0,0,0,0,0,0,0,0,0,0,.2.1.3.3.3.5,0,0,0,.1,0,.1,0,0-.2,0-.2,0,0,0,0,0,0,0,0,0,0,0,0-.1,0,0,0,0,0,0Z"/>
      <path class="cls-4" d="M22.6,31.1s0,0,0,0c0,0,0,0,0,0,0,0,0,0,0,.1,0,0,0,.2,0,.2,0,0,0,0,0,0,0,0,0,0,0,0,0,0,0,0,0,0,0,0,0,0,0,0,0,0,0,0,0,0,0,0,0,0,0,0,0,0,0,0,0,0,0,0,0,0,0,0,0,0,0,0,0,0,0,0,0,0,0,0,0,0,0,0,0,0,0,0,0,0,.1,0,0,0,0,0,0,0,0,0,0,0,0,0,0,0,0,0,0,0,0,0,0,0,0-.1,0,0,0,0,0,0,0,0,0,0,0,0,.2.1.3.4,0,.4,0,0,0,0,0,0,0,0,0,0,0,0,0,0,0,0,0,0,0,0,0,0,0,0h0ZM37,31.7s0,0,0,0c0,0,0,0,0,0-.1,0-.2-.2-.2-.3,0,0,0,0,0,0,0,0,0,0,0,0,0,0,0,0,0,0,0,0,0,0,0,0,0,0,0,0,0,0,0,0,0,0,0,0,0,0,0,0,0,0,0,0,0,0,.1,0,0,0,0,0,0,0,0,0,.1,0,.2,0,0,0,0,0,0,.1,0,0,0,0,0,.1,0,0,0,0,0,0h0Z"/>
      <path class="cls-4" d="M37,30.5c0,0,0,0,0,.2s0,.2,0,.3c0,0,0,0,0-.1,0,0,0,0,.1,0,0,0,0-.1,0-.2,0,0,0,0,0,0s0,0,0-.1c0,0-.2-.1-.3-.2,0,0,0,0-.1,0,0,0,0,0,0,0ZM37.3,29.8s0,.2-.1.2c0,0,0,0,0,0,0,0,0,.1,0,.2,0,0,.1,0,.2,0,0,0,.2,0,.2,0,0,0,0,0,0,0,0,0,0,.1,0,.2,0,.1,0,.2,0,.4,0,0,0,0,.1.1,0,0,0,0,0,0,0-.1,0-.3,0-.4,0-.1,0-.2,0-.3,0,0,0-.1,0-.2,0,0,0,0,0,0,0,0,0,0,0,0,0,0,0,0,0,0,0,0,0,0,0,0h0c0,0,0-.1,0-.1,0,0,0,0,0,0,0,0,0,0,0,0h0ZM36.6,30s0,0,0,0c0,0,0,0,0,0,0,0,0,0-.1-.1,0,0,0,0,0,0,0,0,0,0,0,0,0,0,0,0,.1,0,0,0,.1,0,.2,0,0,0,0,0,0,0,0,0,0,0,0,0,0,0,0,0,0,0,0,0,0,0,0,0,0,0,0,.2,0,.2,0,0,0,0,0,0,0,0,0,0,0,0,0,0,0,.2,0,.2,0,0,0,0,0,0,0-.2.1-.5.3-.7,0,0,0,0,.1-.1,0,0,0,0,0,0,0,0,0,0,.1.1,0,0,0,.1,0,.2,0,.1,0,.3,0,.4,0,0,0,.1,0,.2,0,.1,0,.3.1.5,0-.2.2-.4.3-.5,0,0,0,0,0,0,0,0,0,0,0,0,0,0,0,0,0,0,0,0,0,.1,0,.2,0,.1,0,.2,0,.3h0c0,.1,0,.2,0,.2,0,0,0,0,0,0,0,0,0,0,0,0,0,0,0,0,0,0,0,0,0,0,0,0,0,0,0,0,0,0,0,0,0,0,0,0,.1.2,0,.5,0,.7,0,0,0-.1,0-.1,0,0,0,0,0,0,0,0-.1.1-.2.2,0,0,0,0,0,0,0,0,0,0,0,0,0,0,0,0,0,0,0,0,0,0,0-.1,0,0,0-.2,0-.3,0,0,0-.1,0-.2,0,0,0,0,0,0h0c0-.2.1-.3.2-.4,0,0,0,0,0,0,0,0,0,0,0,0,0,0,0,0,0,0,0,0,0,0,0,.1,0,0,0,0,0,0,0,0,0,0,0,0,0,0,0,.1,0,.2,0,0,0,0,0,0,0,0,0,0,0,0,0,0,0,0,0,0,0,0,0,0,0,0,0,0,0,0,0,0,0,0,0,0,0,.1,0,0,0,0,0,0,0,0,0,0,0,0,0,0,0,0,0,0,0,0,0,0,0,.1,0,0,0,0,0,0,0,0,0,0,0,0,0,0,0,0,0,0,0,0,0,0,0,0,0,0,0,0,0,0,0,0,0,0,0,0,0,0,0,0,0-.1,0-.1,0-.2,0-.3,0,0,0,0,0,0,0,0,0,0,0,0,0,0,0,.1-.1.1,0,0,0,0-.1,0,0,0,0,.3,0,.3,0,0,0,.2,0,.3,0,0,0,0,0,0,0,0,0,0,0,0,0,0,0,0,0,0,0,0,0,0,0,0,0,0,0,0,0,0,0,0,0,0,0,0,0,0,0-.2,0-.2,0,0,0-.3-.2-.2,0,0,0,0,0,.1-.2,0-.3-.2-.5-.4,0,0,0,0,0,0,0,0,0,0,0,0,0,0,0,0,0,0,0,0,0,0,0,0,0,0,0,0,0,0,0,0,0,0,0,0,0,0,0,0,0,0,0,0,0,0,0,0,0,0,0,0,0,0,0,0,.1,0,.2,0,.1,0,.2.1.3.2,0,0,.1,0,.2.1,0,0,0,0,0,0,0,0,0-.2,0-.2,0,0-.2,0-.3-.2,0-.2,0-.4-.1-.6h0Z"/>
      <path class="cls-4" d="M38.1,33.1c.1,0,.4-.1.5-.3,0,0,0,0,0-.1,0,0,0,0,0-.1,0,0,0-.1-.1-.2,0,0,0-.1-.2-.2,0,0,0,0,0,0,0,0,0,.1,0,.1,0,0,0,0,0,.1,0,0,0,.2-.2.2,0,0,0,0,0,0,0,0,0,0,0,0,0,0,0,0,0,0,0,0,0,0,0,0,0,0,0,0,0,0,0,0,0,0,0,0,0,0,0,0,0,0,0,0,0,0,0,0,0,0,0,0,0,0,0,0,0,0,.1-.1,0,0,0,0,0-.1,0,0,0-.2.1-.3,0-.1.2-.3.3-.4,0,0,0,0,.1,0,0,0,0,0,0,.1,0,.2-.2.4-.4.5.1,0,.2.2.3.3,0,0,.1.1.2.2,0,0,0,0,0,.1,0,0,0,0,0,0,0,0,0,0,0,0,0,0,0,0,0,0,0,0,0,0,0,0,0,0,0,0,0,0,0,0,0,0,0,0,0,0,0,0,0,0,0,0,0,0,0,0,0,0,0,0-.1,0,0,0-.1,0-.2,0-.1,0-.2,0-.3,0,0,0,0,0-.1,0,0,0,0,0,0,0ZM37,32s0,0,0,0c0,0,0,0,0,0,0,0,0,0,0,0,0,0,0,0,0,0,0,0,0,0,0,0,0,0,0,0,0,0,0,0,0,.1,0,.2,0,0,0,0,0,0,0,0,0,0,0,0,0,0,0,0,0,0,0,0,0,0,0,0h0c0,0,0-.2,0-.2,0,0,0,0,0,0,0,0,0,0,0,0,0,0,0,.1,0,.1,0,0,0,.2,0,.3,0,0,0,.2,0,.3,0,0,0,0-.2,0,0,0-.2-.2-.2-.2,0,0,0-.2,0-.2,0,0,0,0,0,0,0,0,0-.2,0-.3,0,0,0,0,0,0,0,0,0,0,0,0,0,0,0,0,0,0,0,0,0,0,0,0,0,0,0,0,0,0Z"/>
    </g>
  </g>
</svg>