<?xml version="1.0" encoding="UTF-8"?>
<svg xmlns="http://www.w3.org/2000/svg" version="1.1" viewBox="0 0 128 38.9">
  <defs>
    <style>
      .cls-1 {
        fill: #fff;
      }

      .cls-1, .cls-2, .cls-3, .cls-4, .cls-5, .cls-6 {
        fill-rule: evenodd;
      }

      .cls-2 {
        fill: #1a923e;
      }

      .cls-3 {
        fill: #cb3531;
      }

      .cls-7 {
        fill: #231916;
      }

      .cls-4 {
        fill: #c6ad23;
      }

      .cls-5 {
        fill: #241916;
      }

      .cls-8 {
        fill: #040303;
      }

      .cls-6 {
        fill: #033d82;
      }
    </style>
  </defs>
  <!-- Generator: Adobe Illustrator 28.7.1, SVG Export Plug-In . SVG Version: 1.2.0 Build 142)  -->
  <g>
    <g id="_图层_1" data-name="图层_1">
      <path class="cls-7" d="M112,15.5c0,0,0,0-.1.1,0,0-.1-.1-.1-.2,0-.3.1-.7.2-1.1,0-.2,0-.5-.2-.6-.1,0-.3,0-.4,0,0,0,0-.2,0-.3.5-.4.8-.7,1.4-1.1,0,0,.3-.2.4-.1.1,0,.1.2.1.3-.2,1-.5,2.2-1.1,3ZM110.6,16.9s0,0-.1,0c-.2,0-.4.2-.5.4-.3.2-.5.3-.8.5-.7.3-1.2.9-2,1.1,0,0,0,0-.1,0,0,0,0,0,0,0,.1-.2.3-.3.4-.4l.4-.3c.4-.3.8-.6,1.2-.9.1,0,.2-.1.3-.2.1,0,.3-.2.4-.2.1,0,.2-.1.3-.2.1,0,.3,0,.4,0,0,0,.1.3,0,.3h0ZM109.5,15.1s0,0,0,0c0,0,0,0,0,0h0c0-.1,0-.2,0-.2,0,0,0,0,0,0,0,0,0,0,.1-.1h0s0,0,0,0c0,.1,0,.3-.2.4ZM109.2,14.5c0,0-.1,0-.2,0,0,0,0,.1,0,.2,0,.1-.3,0-.4,0-.1,0-.1-.2-.1-.4,0,0,0,0,0,0,0,0,0,0,0,0,0,0,0-.2,0-.3,0,0,0,0,.1-.1,0,0,.1,0,.2,0,0,0,0,0,0,0,0,0,0,0,0,.1,0,0,0,0,0,.1.1,0,.2,0,.3,0,0,0,.1,0,.2,0,0,0,0,.2,0,.3ZM112.2,17.9c.6-.3,1.1-.7,1.5-1.2.2-.2.3-.4.2-.6,0-.1-.1-.2-.2-.3-.2-.2-.5-.2-.8-.2s-.4,0-.4,0c0,0,0-.3.1-.3.2-.8.6-1.5.9-2.7,0-.2.4-.4.4-.7,0-.1,0-.2-.2-.3-.2-.1-.5-.1-.6,0-1,.5-1.5.8-2.2,1.5-.2.2-.7.5-.7.1.2-.2.4-.4.6-.6.2-.1.3-.2.3-.5,0-.2,0-.4-.2-.5-.2-.2-.6-.5-1-.5,0,0-.1,0-.1,0,0,0,.1.3.2.4.1.2,0,.4,0,.6-.2.5-.4.9-.8,1.2-.5-.7-1.2-1.3-2-1.6,0,0-.2,0-.3,0,0,0,0,0,0,0,0,0,0,0,0,0,0,.1.1.2.2.3,0,.1.2.2.3.3.5.7.7,1.7.6,2.5-.2,0-.3.4,0,.5.1,0,.1.2,0,.3,0,0-.1,0-.2,0-.4-.6-.5-.7-1-.7,0,0-.1,0-.2,0-.2.1,0,.4,0,.6.1.2,0,.5,0,.7,0,.4.2,1,.8.8,0,0,.1,0,.2,0,.1,0,.3-.2.4-.3,0,0,0-.3,0-.4,0-.1.2-.2.3-.3.1-.1.2-.3.3-.4,0,0,.2-.2.2-.2,0,0,0,0,0,.1-.1.2-.3.3-.4.7,0,0,0,.1,0,.1.3,0,.4-.2.8-.5,0,0,.1-.2.2-.2.1,0,.3,0,.4,0,.2,0,.5-.5.2-.6,0-.1.2-.3.3-.2,0,.3,0,.6,0,.9,0,0-.1.2-.2.2-.4.3-.8.5-1.2.8-.3.2-.7.3-1,.5-.2.1-.4.3-.6.5l-1.5,1.2c-.2.1-.4.3-.5.5-.1.2-.2.4,0,.6,0,.2.3.3.5.3.4,0,.7,0,1.1-.3.3-.2.5-.5.8-.8.4-.4.9-.7,1.4-.9.8-.5,1.6-.9,2.4-1.3.1,0,.2,0,.3-.2.1,0,.2-.2.3-.3.3-.3.7-.5,1.1-.6,0,0,.1,0,.2,0,0,0,0,.1,0,.2,0,.3-.3.5-.6.7-.7.5-1.3,1.1-2.1,1.2-.2,0-.5,0-.7.1-.2,0-.5.2-.5.5,0,.2.2.6.3.4,0,0,.3-.1.3,0,0,0,0,.1,0,.2,0,.2-.1.6-.2.7,0,0-.3,0-.3,0-1.7.5-2.3.8-3.7,1.8,0,0-.4.3,0,.7.2.2.4.3.7.4,0,0,0,0,.1,0,0,0,.1-.1.1-.2,0-.4.4-.7.7-.8.6-.3,1.4-.4,2.2-.8,0,0,.2,0,.2.2,0,.5,0,1.1,0,1.6,0,0,0,0,0,.1,0,0-.2.1-.3.1-.9,0-1.7-.1-2.5-.3,0,.2.2.3.4.4l2.3.8c.2,0,.5.2.7.1,0,0,.1,0,.2,0,.3-.2.2-.9.2-1.2v-1.6c0-.2,0-.4.2-.5.3-.3.8-.2,1.1-.1.3,0,.4,0,.8,0,0,0,0,0,.1,0,.1,0,0-.2,0-.4-.2-.4-.4-.8-.8-.8-.1,0-.3.2-.4.2-.3,0-.5.1-.8,0,0-.5.2-1,.4-1.3.2-.3.5-.5.9-.7h0ZM47.4,29.2v.4c-.2,0-.4.1-.6.1-.6,0-1-.4-1-1s.4-1,1-1,.4,0,.5.1v.4h-.1v-.4c-.2,0-.3,0-.4,0-.4,0-.7.3-.7.9s.3.9.7.9c.1,0,.2,0,.3,0v-.4h.2,0ZM48.8,29.6c.4,0,.5-.4.5-.9s-.2-.9-.5-.9-.5.4-.5.9.2.9.5.9ZM49.7,28.8c0,.6-.4,1-.9,1s-.9-.3-.9-1,.4-1,.9-1,.9.3.9,1ZM52.3,27.9c0,.2,0,.5,0,.8h0c0,.4,0,.6,0,.9h.3c0,.1-.8.1-.8.1h0c0,0,.2-.1.2-.1,0-.2,0-.5,0-.7v-.8s-.6,1.6-.6,1.6h-.1l-.7-1.6c0,.2,0,.6,0,.6v.9h.3c0,.1-.6.1-.6.1h0c0,0,.3-.1.3-.1v-1.6s-.3,0-.3,0h0c0,0,.6,0,.6,0l.6,1.5.6-1.5h.6c0,0-.3.1-.3.1h0ZM55.1,27.9c0,.2,0,.5,0,.8h0c0,.4,0,.6,0,.9h.3c0,.1-.8.1-.8.1h0c0,0,.2-.1.2-.1,0-.2,0-.5,0-.7v-.8s-.6,1.6-.6,1.6h-.1l-.7-1.6c0,.2,0,.6,0,.6v.9h.3c0,.1-.6.1-.6.1h0c0,0,.3-.1.3-.1v-1.6s-.3,0-.3,0h0c0,0,.6,0,.6,0l.6,1.5.6-1.5h.6c0,0-.3.1-.3.1h0ZM57.8,27.9h-.3s0,1,0,1c0,.6-.3.8-.7.8s-.7-.2-.7-.8v-.3c0-.2,0-.5,0-.8h-.2c0-.1.8-.1.8-.1h0c0,0-.3.1-.3.1,0,.2,0,.5,0,.7v.2c0,.5.2.6.5.6s.5-.2.5-.7v-.9s-.3,0-.3,0h0c0,0,.7,0,.7,0,0,0,0,0,0,0ZM60.1,27.9h-.2s0,1.8,0,1.8h-.1l-1.1-1.6v1.4s.3,0,.3,0h0c0,0-.7,0-.7,0h0c0,0,.2-.1.2-.1v-1.6s0,0,0,0h-.2c0-.1.5-.1.5-.1l1,1.4v-1.3s-.3,0-.3,0h0c0,0,.7,0,.7,0h0c0,0,0,0,0,0ZM61.2,27.9c0,.2,0,.5,0,.8h0c0,.4,0,.6,0,.9h.3c0,.1-.8.1-.8.1h0c0,0,.3-.1.3-.1,0-.2,0-.5,0-.8h0c0-.4,0-.6,0-.9h-.3c0-.1.8-.1.8-.1h0c0,0-.3.1-.3.1ZM63.4,29.2v.4c-.2,0-.4.1-.6.1-.6,0-1-.4-1-1s.4-1,1-1,.4,0,.5.1v.4h-.1v-.4c-.2,0-.3,0-.4,0-.4,0-.7.3-.7.9s.3.9.7.9.2,0,.3,0v-.4h.2,0ZM65,29l-.3-.9-.3.9h.6ZM65.7,29.6h0c0,0-.8,0-.8,0h0c0,0,.3-.1.3-.1l-.2-.5h-.6l-.2.5h.3c0,.1-.6.1-.6.1h0c0,0,.2-.1.2-.1l.6-1.8h.2l.6,1.8s.2,0,.2,0ZM66.9,27.9c0,.3,0,.5,0,.8h0c0,.4,0,.6,0,.9h.3c0,.1-.9.1-.9.1h0c0,0,.3-.1.3-.1,0-.2,0-.5,0-.8h0c0-.4,0-.6,0-.9h-.4v.4h-.2v-.5h1.6v.5s-.1,0-.1,0v-.4h-.5,0ZM68.6,27.9c0,.2,0,.5,0,.8h0c0,.4,0,.6,0,.9h.3c0,.1-.8.1-.8.1h0c0,0,.3-.1.3-.1,0-.2,0-.5,0-.8h0c0-.4,0-.6,0-.9h-.3c0-.1.8-.1.8-.1h0c0,0-.3.1-.3.1ZM70.2,29.6c.4,0,.5-.4.5-.9s-.2-.9-.5-.9-.5.4-.5.9.2.9.5.9ZM71.1,28.8c0,.6-.4,1-.9,1s-.9-.3-.9-1,.4-1,.9-1,.9.3.9,1ZM73.4,27.9h-.2s0,1.8,0,1.8h-.1l-1.1-1.6v1.4s.3,0,.3,0h0c0,0-.7,0-.7,0h0c0,0,.2-.1.2-.1v-1.6s0,0,0,0h-.2c0-.1.5-.1.5-.1l1,1.4v-1.3s-.3,0-.3,0h0c0,0,.7,0,.7,0h0c0,0,0,0,0,0ZM77.7,27.9h-.3s0,1,0,1c0,.6-.3.8-.7.8s-.7-.2-.7-.8v-.3c0-.2,0-.5,0-.8h-.2c0-.1.8-.1.8-.1h0c0,0-.3.1-.3.1,0,.2,0,.5,0,.7v.2c0,.5.2.6.5.6s.5-.2.5-.7v-.9s-.3,0-.3,0h0c0,0,.7,0,.7,0h0q0,0,0,0ZM80.1,27.9h-.2s0,1.8,0,1.8h-.1l-1.1-1.6v1.4s.3,0,.3,0h0c0,0-.7,0-.7,0h0c0,0,.2-.1.2-.1v-1.6s0,0,0,0h-.2c0-.1.5-.1.5-.1l1,1.4v-1.3s-.3,0-.3,0h0c0,0,.7,0,.7,0h0c0,0,0,0,0,0ZM81.1,27.9c0,.2,0,.5,0,.8h0c0,.4,0,.6,0,.9h.3c0,.1-.8.1-.8.1h0c0,0,.3-.1.3-.1,0-.2,0-.5,0-.8h0c0-.4,0-.6,0-.9h-.3c0-.1.8-.1.8-.1h0c0,0-.3.1-.3.1ZM83.7,27.9h-.2s-.6,1.8-.6,1.8h-.1l-.7-1.8h-.2c0-.1.8-.1.8-.1h0c0,0-.3.1-.3.1l.5,1.4.4-1.4h-.3c0-.1.6-.1.6-.1,0,0,0,0,0,0ZM85.6,29.2v.5h-1.5c0,0,.3-.1.3-.1,0-.2,0-.5,0-.8h0c0-.4,0-.6,0-.9h-.3c0-.1,1.4-.1,1.4-.1v.5s-.1,0-.1,0v-.4h-.7c0,.2,0,.5,0,.8h.4v-.3h.2v.7h-.1v-.3h-.4c0,.3,0,.5,0,.8h.7v-.4c0,0,.2,0,.2,0ZM86.9,28.7c.3,0,.4-.2.4-.4s-.1-.4-.4-.4h-.2c0,.2,0,.5,0,.8,0,0,.2,0,.2,0ZM87.8,29.6h0c0,.1-.2.1-.2.1-.2,0-.3,0-.3-.2v-.4c-.2-.2-.2-.3-.5-.3h-.1c0,.3,0,.5,0,.8h.3c0,.1-.8.1-.8.1h0c0,0,.3-.1.3-.1,0-.2,0-.5,0-.8h0c0-.4,0-.6,0-.9h-.3c0-.1.8-.1.8-.1.4,0,.7.2.7.5s-.2.4-.5.5c.2,0,.3.1.4.4v.4c.1,0,.3,0,.3,0ZM89,28.6c.4.2.5.3.5.6s-.3.5-.7.5-.4,0-.6-.2v-.4h.2v.4c.2,0,.3,0,.4,0,.3,0,.4-.1.4-.3s0-.3-.3-.4h-.1c-.3-.2-.5-.3-.5-.6s.3-.5.6-.5.3,0,.5.1v.4h-.2v-.4c-.2,0-.2,0-.3,0-.2,0-.4.1-.4.3s.1.3.3.4c0,0,.1,0,.1,0ZM90.6,27.9c0,.2,0,.5,0,.8h0c0,.4,0,.6,0,.9h.3c0,.1-.8.1-.8.1h0c0,0,.3-.1.3-.1,0-.2,0-.5,0-.8h0c0-.4,0-.6,0-.9h-.3c0-.1.8-.1.8-.1h0c0,0-.3.1-.3.1ZM92.3,27.9c0,.3,0,.5,0,.8h0c0,.4,0,.6,0,.9h.3c0,.1-.9.1-.9.1h0c0,0,.3-.1.3-.1,0-.2,0-.5,0-.8h0c0-.4,0-.6,0-.9h-.4v.4h-.2v-.5h1.6v.5s-.1,0-.1,0v-.4h-.5,0ZM94.4,28.9c0,.3,0,.5,0,.7h.3c0,.1-.9.1-.9.1h0c0,0,.3-.1.3-.1,0-.2,0-.4,0-.6l-.5-1h-.2c0-.1.8-.1.8-.1h0c0,0-.3.1-.3.1l.4.9.4-.9h-.3c0-.1.6-.1.6-.1h0c0,0-.2.1-.2.1l-.5,1h0ZM98.3,29.6c.4,0,.5-.4.5-.9s-.2-.9-.5-.9-.5.4-.5.9.2.9.5.9ZM99.2,28.8c0,.6-.4,1-.9,1s-.9-.3-.9-1,.4-1,.9-1,.9.3.9,1ZM100.2,27.9c0,.2,0,.5,0,.8h.4v-.3h.2v.7h-.1v-.3h-.5c0,.3,0,.5,0,.8h.3c0,.1-.8.1-.8.1h0c0,0,.3-.1.3-.1,0-.2,0-.5,0-.8h0c0-.4,0-.6,0-.9h-.3c0-.1,1.4-.1,1.4-.1v.5s-.1,0-.1,0v-.4h-.7s0,0,0,0ZM105.1,29.2v.4c-.2,0-.4.1-.6.1-.6,0-1-.4-1-1s.4-1,1-1,.4,0,.5.1v.4h-.1v-.4c-.2,0-.3,0-.4,0-.4,0-.7.3-.7.9s.3.9.7.9.2,0,.3,0v-.4h.2ZM107.3,27.9c0,.2,0,.5,0,.8h0c0,.4,0,.6,0,.9h.3c0,.1-.8.1-.8.1h0c0,0,.2-.1.2-.1,0-.2,0-.5,0-.8h-.9c0,.3,0,.5,0,.8h.3c0,.1-.8.1-.8.1h0c0,0,.3-.1.3-.1,0-.2,0-.5,0-.8h0c0-.4,0-.6,0-.9h-.3c0-.1.8-.1.8-.1h0c0,0-.3.1-.3.1,0,.2,0,.5,0,.7h.9c0-.2,0-.5,0-.7h-.2c0-.1.8-.1.8-.1h0c0,0-.3.1-.3.1ZM108.7,27.9c0,.2,0,.5,0,.8h0c0,.4,0,.6,0,.9h.3c0,.1-.8.1-.8.1h0c0,0,.3-.1.3-.1,0-.2,0-.5,0-.8h0c0-.4,0-.6,0-.9h-.3c0-.1.8-.1.8-.1h0c0,0-.3.1-.3.1ZM111.4,27.9h-.2s0,1.8,0,1.8h-.1l-1.1-1.6v1.4s.3,0,.3,0h0c0,0-.7,0-.7,0h0c0,0,.2-.1.2-.1v-1.6s0,0,0,0h-.2c0-.1.5-.1.5-.1l1,1.4v-1.3s-.3,0-.3,0h0c0,0,.7,0,.7,0,0,0,0,0,0,0ZM112.8,29l-.3-.9-.3.9h.6ZM113.5,29.6h0c0,0-.8,0-.8,0h0c0,0,.3-.1.3-.1l-.2-.5h-.6l-.2.5h.3c0,.1-.6.1-.6.1h0c0,0,.2-.1.2-.1l.6-1.8h.2l.6,1.8s.2,0,.2,0ZM51.5,14.2c0,0,0,.1,0,.1,0,.1,0,.3.2.3.1,0,.3,0,.4,0,.5-.3.8-.7,1.2-1.1.2-.2.2-.3-.1-.4,0,0-.2,0-.3,0,0,0-.2,0-.3.1-.4.1-.7.3-1,.6,0,.1-.2.2-.2.4ZM47.5,16.1c-.3-.3-.2-.6,0-.9.3-.4.7-.6,1.2-.7.3,0,.5-.2.8-.3.2-.1.3-.3.4-.5,0-.3,0-.7,0-1,0-.4,0-.9,0-1.3,0-.2,0-.4,0-.6,0-.2.2-.3.4-.2.3,0,.6.3.7.5.3.4.3.9.4,1.3,0,.3.1.4.4.4.2,0,.3,0,.5,0,.6-.2,1.3-.5,1.9-.7.1,0,.3-.1.4-.2.4-.1.6.1.7.4,0,.2,0,.4-.2.6-.1.1-.3.2-.4.4,0,0-.2.2-.2.3,0,.3-.3.5-.5.7-.2.2-.5.4-.7.8,0,0-.1.1-.2.2,0,0-.2,0-.3.1-.3,0-.5.3-.6.6,0,0,0,.1,0,.2.1.4.2.7.3,1.1.1.3,0,.6-.2.8-.6.5-.5.4-.5,1.1,0,.3,0,.5-.1.8,0,.5-.1.9-.1,1.4,0,.5,0,1.1-.1,1.6,0,0,0,.1,0,.2,0,.6,0,1.1-.2,1.6,0,0,0,.1,0,.2,0,.4,0,.9,0,1.3,0,0,0,.2,0,.3,0,0,0,.2-.2.1,0,0-.1,0-.2-.1,0,0,0,0,0,0,0-.5-.2-.9-.2-1.4,0-.4,0-.8-.1-1.3,0-.3-.1-.5-.2-.8-.1-.7-.2-1.4-.2-2.1,0-.4,0-.7,0-1.1,0-.2,0-.3,0-.5,0-.2-.2-.3-.5-.3-.1,0-.2,0-.3,0-.3.1-.6,0-.8-.2,0,0,0,0,0,0-.2-.3-.5-.4-.9-.3-.7.1-1.2-.2-1.7-.5-.2-.1-.3-.2-.5-.4-.2-.2-.3-.4-.3-.7,0,0,0-.2,0-.2,0-.4.3-.6.7-.4.2,0,.4.2.6.3.2.1.3.2.5.4.1.1.2.2.4.2.3,0,.5.2.6.5,0,.1.1.2.2.3.2.2.3.1.4,0,.2-.4.6-.6.9-.9.3-.2.5-.5.8-.8.2-.3.2-.6,0-.9-.1-.2-.5-.2-.7,0,0,.1-.2.3-.3.4-.1.2-.3.4-.6.3-.3,0-.5,0-.7.1,0,0-.1,0-.2,0h0ZM63,20.8c-.3,0-.4.3-.3.5.4,0,.4-.2.3-.5ZM60.7,18.9h0c0,0-.2,0-.2,0-.2,0-.3-.2-.2-.4,0-.1.2-.2.3-.3.2-.2.4-.3.5-.5.1-.2.3-.3.3-.6,0-.3,0-.4-.3-.5-.3,0-.6,0-1,0-.3,0-.5.1-.5.4,0,0,0,.1,0,.2,0,.2-.1.4-.2.6,0,.1,0,.2-.1.3-.1.4-.3.9-.4,1.3-.3.8-.5,1.6-.9,2.3,0,.2-.1.4-.2.6,0,0,0,.2,0,.3.1.3.3.6.6.7.1,0,.3,0,.4,0,.2-.1.4-.2.6-.3.4-.1.8-.2,1.1-.5.1-.1.3-.2.5-.2.2,0,.5-.1.7-.2.4-.1.4-.3.4-.6,0-.2,0-.5.3-.6.2,0,.2-.2.3-.4,0,0,0-.1,0-.2,0,0-.2,0-.2,0-.2.2-.4.3-.7.4-.2.1-.4.2-.7.4-.2,0-.3.2-.5.3-.2.1-.5.1-.7,0-.2,0-.2-.3,0-.4.1-.1.2-.2.3-.3.4-.5.9-.9,1.3-1.4,0,0,.1-.1.1-.2,0,0,0-.2,0-.3-.1,0-.2,0-.3,0-.2,0-.4.1-.5.2ZM59.7,14.1c0,.2.1.3.1.4,0,.3,0,.5,0,.8,0,0,0,.2,0,.3,0,.2.2.3.4.3,0,0,0,0,0,0,.2,0,.4-.2.5-.3,0-.1.1-.3,0-.4,0-.1,0-.2-.1-.3.2-.2.4-.2.6-.1,0,0,.2,0,.2,0,.2,0,.4,0,.6,0,.3-.2.7,0,.7.4,0,.2,0,.4-.1.6-.1.3-.3.6-.3,1,0,.3,0,.3.3.4.3,0,.5.3.5.5,0,.2,0,.3-.1.4,0,0-.1.1-.2.2,0,0,0,.2,0,.3,0,.1.2.1.3,0,.2,0,.3-.2.5-.3.1,0,.2-.2.1-.4,0,0,0-.2,0-.3,0-.1,0-.2.2-.1.1,0,.2.2.2.3,0,.4,0,.8-.1,1.3,0,.1,0,.2-.2.3-.3.3-.3.7-.1,1,0,.2.2.5.2.8.1.5,0,.9-.3,1.3-.4.4-.9.6-1.4.7-.2,0-.4,0-.5.2,0,0-.2.1-.3,0-.5,0-.9.1-1.4.3-.5.2-1,.3-1.5.3-.3,0-.6-.2-.8-.5-.3-.4-.4-.9-.5-1.4,0-.5,0-.9.1-1.3.2-.7.3-1.3.5-2,.2-.8.5-1.7.9-2.4.2-.5.4-1,.7-1.5,0,0,.1-.1.2-.3h0ZM88.8,16.6c0-.2,0-.4-.2-.5,0,.2,0,.4.2.5ZM89.7,14.8c0,0-.1,0-.1,0-.2,0-.5.1-.7.2-.1,0-.2.1-.3.2,0,0,0,.2,0,.2.2,0,.5,0,.7,0,0,0,0,0,.1,0,.1-.2.2-.4.2-.6ZM90.8,18.5c-.2,0-.4.2-.6.2-.4.2-.6.5-.6.9,0,.5,0,1.1,0,1.6,0,.5,0,1,0,1.5,0,.3-.2.3-.4.2,0,0-.2-.1-.3-.2-.2-.1-.2-.3-.2-.4,0-.3,0-.5-.3-.6-.1-.1-.2-.2-.3-.4h0c0,0,.7.2.7.2,0-.1.1-.2.1-.3,0-.4,0-.8,0-1.2,0,0,0,0,0-.1,0-.2-.2-.3-.3-.1-.3.2-.6.3-.9.5-.2,0-.3,0-.4,0-.2-.2-.3-.4-.3-.7,0-.1,0-.2.2-.3.3-.3.7-.7,1-1,0,0,.1-.1.2-.2.1-.2,0-.3-.2-.4-.3-.1-.4-.3-.4-.5.2,0,.5,0,.7-.1,0,0-.1-.1-.2-.1-.2,0-.3-.2-.5-.3-.2-.1-.3-.4-.2-.6,0-.3,0-.4-.3-.5-.2,0-.4-.2-.4-.5.1,0,.2,0,.3,0,.4,0,.5-.1.6-.5.1-.5.1-.7,0-1.1.1,0,.2,0,.2.1l.2.7c0,.1,0,.3.2.4.2,0,.3,0,.5-.1,0,0,.2-.1.3-.2.3,0,.7-.4.7-.8,0,0,0-.2,0-.2,0-.2-.2-.3-.2-.5.2-.2.3-.2.5-.2.2,0,.4.2.4.5,0,.4.2.6.4.9.1.1.2.3.2.5,0,0-.2,0-.3.1-.2,0-.4.3-.4.5,0,.3-.1.7-.3.9,0,0,0,.1,0,.2,0,.4-.2.6-.4.9,0,.1,0,.3,0,.4,0,.1,0,.3,0,.4.1,0,.2,0,.3,0,.2,0,.4,0,.5.3,0,.2.1.3.1.5h0ZM74.8,14.6c0-.2.2-.3.4-.4.3-.1.5-.4.4-.8,0-.1,0-.2,0-.3,0-.2.2-.3.4-.2.2.1.4.3.5.5,0,.3.2.3.5.3.3,0,.4.1.6.3,0,0,0,.2,0,.3,0,0-.2.1-.3.2-.2,0-.4.2-.6.5,0,.1,0,.2,0,.3.2.3.4.5.7.5.2,0,.3,0,.4.2.1.2.1.3,0,.5-.2.2-.3.3-.6.2-.2,0-.4,0-.6,0-.1,0-.2,0-.3.2-.1.3-.2.6-.3.9,0,0,0,0,0,.2.2,0,.4,0,.7,0,.2,0,.4,0,.6,0,.4,0,.8,0,1.1.4,0,0,.1.1.2.2.3.2.3.5.2.8,0,.4-.3.7-.5,1,0,.1-.1.2-.2.3-.1.2-.2.4-.5.5,0,0-.2.1-.2.2-.2.2-.2.2,0,.4,0,0,0,0,0,0,.2.3.2.4,0,.6-.3.3-.6.4-1,.2-.1,0-.3,0-.4-.1-.2,0-.4,0-.5,0-.1,0-.3.1-.5.2,0-.2,0-.3,0-.4.1-.4.1-.7-.2-1-.3-.3-.4-.7-.6-1,0-.1,0-.2-.1-.4,0-.3,0-.5.4-.5.4,0,.7.1,1,.4.3.3.6.6.9.9,0,0,.1.1.2.2.3.3.4.3.7,0,.4-.3.6-.6.8-1,.1-.3.2-.6.2-.9,0-.1,0-.2-.1-.3-.2-.2-.5-.5-.8-.6-.4-.2-.8-.1-1.2.2,0,0-.2.2-.3.2-.2.1-.3,0-.3-.2,0-.2,0-.4,0-.6,0-.4,0-.7,0-1.1,0-.2,0-.2-.2-.3-.1,0-.3,0-.4-.1,0,0-.1,0-.2-.1,0-.1,0-.1.2-.2.2,0,.4-.2.6-.3,0,0,.2-.1.2-.2,0,0,0-.7,0-.8,0,0-.2,0-.3,0-.2,0-.3-.1-.4-.3h0ZM72,24.4c-.2-.4-.3-.8-.3-1.2,0-.7.1-1.4.2-2.1,0-.4,0-.7,0-1.1,0-.4,0-.8-.3-1.1-.2-.3-.4-.4-.7-.5-.4-.2-.9-.3-1.4,0,0,0,0,0-.1,0,0,0-.1,0-.2,0,0,0,0-.1,0-.2.3-.4.4-.9.7-1.3.2-.4.5-.8.7-1.2.2-.3.3-.6.4-.9,0-.3.2-.5.4-.8.3-.5.5-1,.8-1.5.2-.3.3-.3.5,0,.2.2.3.4.4.7,0,0,0,.2,0,.3,0,.2-.1.3-.2.5,0,.2-.2.3-.3.4-.2.1-.3.3-.4.4-.2.3-.4.5-.6.7-.4.3-.7.7-1,1.1-.2.3-.4.6-.6.8,0,0,0,0,0,0,0,0-.2.2,0,.3,0,.1.2.1.3.1.5,0,.9.1,1.3.3.2,0,.4.2.5.5.2.4.4.7.5,1.2,0,.4,0,.9,0,1.3,0,.5-.2.9-.2,1.4,0,.2,0,.5,0,.7,0,.4,0,.7-.2,1,0,.2-.2.3-.4.2ZM85,18.3h0c0,0-.1,0-.2,0-.1.2-.3.3-.4.5-.1.2-.3.4-.4.6-.2.4-.1.5.2.7.2.1.3.1.4-.1.1-.3.2-.7.3-1,0-.2,0-.5.1-.7ZM84.4,14.2c.2.7.3,1.5.9,2,.2,0,.2-.2.2-.4.1-.8.4-1.5.5-2.3,0,0,0,0,0,0,.2,0,.3,0,.3.2.1.3.2.7,0,1.1,0,.1,0,.2,0,.3,0,.3-.1.5-.2.8,0,.2-.1.5-.1.7,0,.4-.2.8-.2,1.2-.1.7-.3,1.3-.4,2,0,.3,0,.7-.1,1,0,.2-.1.3-.2.4-.1.2-.3.2-.4,0-.2,0-.3-.2-.4-.3-.2-.2-.3-.4-.5-.5-.1-.1-.2-.3-.4-.3,0,0-.2-.1-.2-.2,0-.2-.2-.4-.2-.6,0-.1,0-.3,0-.4.5-.4.7-.9,1.1-1.4.2-.2.3-.4.5-.5.2-.1.3-.3.3-.5,0,0,0-.2,0-.2-.4-.3-.5-.7-.6-1.2,0-.3,0-.7,0-1,0,0,0,0,0-.1h0s0,0,0,0Z"/>
      <path class="cls-7" d="M65.3,18.6c0,0,0,.2,0,.2,0,.4,0,.8,0,1.1,0,.1,0,.3,0,.4,0,.4,0,.9,0,1.3,0,.7,0,1.4-.1,2.1,0,.3-.3.6-.5.6-.6,0-1.3,0-1.9,0-.2,0-.5-.2-.7-.4,0,0,0,0,0-.1.1-.2.2,0,.4,0,.7.2,1.3.2,2,0,.2,0,.4-.3.5-.5.1-.4.1-.7.1-1.1,0-.3,0-.7,0-1.1,0-.1,0-.3,0-.4,0-.5.1-1,.2-1.5,0-.2,0-.3,0-.5,0,0,0,0,0,0ZM63.1,11.8c.2,0,.4,0,.5,0,.2,0,.2.1,0,.2-.3.3-.6.6-.9.9-.1.2-.4.3-.6.3-.3,0-.6,0-.8.2,0,0-.1,0-.2,0-.2,0-.3,0-.5,0-.2-.2-.2-.3,0-.5,0-.1.2-.3.3-.4.3-.3.7-.5,1-.6.4-.1.8-.2,1.1-.2ZM87.1,20.6c.2.2.3.4.4.6,0,.1.1.2.1.4,0,.2,0,.5,0,.7,0,.3,0,.6,0,.9,0,0,0,0,0,.1,0,.3-.3.4-.6.3-.2-.1-.4-.3-.6-.5,0-.1,0-.2,0-.4,0-.2,0-.3,0-.5,0,0,0-.1,0-.2.2-.2.2-.5.2-.8,0-.2,0-.3.2-.4,0,0,.1,0,.2-.2h0ZM91,19.6c.1,0,.2-.2.2-.2.3,0,.7,0,1,.2.3.2.6.5.8.9,0,0,0,.2,0,.3,0,.2,0,.3-.3.3-.4,0-.9-.2-1.1-.7,0-.2-.3-.4-.4-.6,0,0-.2-.2-.3-.3h0ZM63.5,14.5c.4.1.5.5.6.8,0,.2,0,.5,0,.7,0,.3-.3.5-.6.5-.2,0-.4-.3-.3-.6,0-.1,0-.3,0-.4,0-.2,0-.5.2-.7,0,0,0-.2.1-.3ZM64.1,12c.6.4.8,1,.8,1.6,0,.2,0,.4,0,.7,0,.3,0,.7,0,1,0,.2,0,.3,0,.5,0,.4,0,.7.1,1.1,0,.3,0,.7,0,1,0,0,0,.1,0,.3,0,0-.2-.1-.2-.2,0-.2,0-.3,0-.5,0-.5-.2-.9-.2-1.4,0-.4,0-.8,0-1.3,0-.8-.1-1.6-.5-2.4,0-.1-.2-.3-.3-.4,0,0,0,0,0,0ZM99.7,19.7c.2.3.4.6.6.9,0,.1.2.2.2.3,0,0,0,.2.2.3.1.1.2.3.3.4.1.1.2.2.4.1.1,0,.3,0,.4,0,.2-.1.3-.3.5-.4.2-.2.3-.4.5-.6,0,0,.3-.2.2-.3,0,0-.1,0-.2,0-.1,0-.2,0-.3,0-.3.1-.6.1-.9,0-.5,0-.8-.4-1.3-.6,0,0-.2-.1-.2-.2,0,0,0,0-.2-.1,0,0-.2-.2-.3-.2,0,0-.1,0-.2,0,0,0,0,0,0,.1,0,0,0,.3.2.5h0Z"/>
      <path class="cls-7" d="M98,14.2c.5.6.6,1.4.6,2.2,0,.3,0,.5-.2.7-.2.3-.5.4-.8.4-.8.2-1.5.3-2.4.4h0c0,0,0,.2,0,.2,0,0,0,0,0,0,0,0,.2.1.2.2,0,.1.1.3.2.4.3.3.8.3,1.2,0,.4-.2.8-.5,1.2-.4,0,.7-.1,1.5-.5,2.1-.4.6-1,1.1-1.8,1.2.4.2.9.3,1.4.1.5-.1.9-.5,1.1-.9.2-.4.3-.8.5-1.2l.3-1.1.2-.7c0,0,0-.2.1-.2,0,0,.2-.1.3-.2.7-.2,1.5-.4,2.2-.6.2,0,.4,0,.6-.2,0,0,.1-.2.1-.3,0-.3-.2-.4-.5-.5-.5-.2-1.1-.3-1.6,0-.2.1-.3.4-.5.5-.2.1-.5.2-.7.3,0-1.1,0-2.3-.3-3.3,0-.1-.2-.3-.3-.3,0,0-.3,0-.3.1-.2.2-.3.5-.4.7h0Z"/>
      <path class="cls-1" d="M27.5,5.5c-7.5,0-13.5,6-13.5,13.5s6.1,13.5,13.5,13.5,13.5-6.1,13.5-13.5-6-13.5-13.5-13.5Z"/>
      <path class="cls-4" d="M38.3,24.8c-.1,0-.2,0-.3.1-.5-.6-1-1.2-1.5-1.8.6-1.3.9-2.7.9-4.1,0-5.4-4.4-9.8-9.8-9.8h0c0-.7-.1-1.4,0-2.1h0c.3,0,.6-.3.6-.7,0-.3-.2-.5-.5-.6,7.2,0,13.1,5.9,13.1,13.2,0,2.3-.6,4.6-1.8,6.7,0,0,0-.1,0-.2,0-.3-.3-.6-.7-.6h0ZM27.5,32.2c-4.8,0-9-2.6-11.3-6.4.1.1.3.2.4.1.3,0,.5-.2.6-.5.8,0,1.7,0,2.7-.1,1.9,2.3,4.7,3.6,7.6,3.6,3.5,0,6.7-1.9,8.4-4.7.7.3,1.3.6,1.9,1,0,.1,0,.2,0,.4,0,.3.3.6.7.6.1,0,.3,0,.4-.2-2.3,3.8-6.5,6.3-11.2,6.3ZM33.1,23.4c-1.4,1.7-3.4,2.7-5.6,2.7-1.1,0-2.1-.2-3.1-.7-.5-.2-.9-.5-1.3-.8,3.2-.7,6.8-1.5,10-1.2ZM34.7,21.1c1.1-3.5-.5-7.4-4-9-.8-.4-1.8-.6-2.7-.7-.2-.7-.4-1.4-.5-2.1,5.3,0,9.6,4.3,9.6,9.6,0,1.4-.3,2.7-.8,4-.5-.6-1.1-1.2-1.6-1.8ZM28.1,11.6c.9,0,1.7.3,2.5.6,3.3,1.6,4.9,5.3,3.9,8.6-2.6-2.9-5.2-5.8-6.4-9.3ZM22.8,24.7c.5.4,1,.7,1.5.9,1,.5,2.1.7,3.2.7,2.3,0,4.5-1.1,5.9-2.9.8,0,1.6.3,2.3.5-1.7,2.8-4.7,4.6-8.2,4.6-2.8,0-5.5-1.2-7.4-3.4.9-.1,1.8-.3,2.7-.5ZM25.3,12c-1.1,3.7-2.1,7.4-4.3,10.1-.1-.2-.2-.4-.3-.7-.7-1.8-.6-3.8.3-5.6.8-1.8,2.4-3.2,4.3-3.8h0ZM20.8,15.7c-1,2.1-1,4.5,0,6.5-.5.6-1.1,1.1-1.7,1.6-.9-1.5-1.3-3.1-1.3-4.8,0-4.8,3.6-8.8,8.3-9.5-.3.8-.5,1.5-.8,2.3-2,.6-3.7,2.1-4.6,4h0ZM27.3,5.8c-.3,0-.5.4-.4.6,0,.2.1.4.3.5-.3.7-.7,1.5-.9,2.3-4.8.6-8.6,4.8-8.6,9.7,0,1.7.5,3.5,1.3,5-.6.4-1.2.7-1.9,1-.1-.2-.3-.3-.5-.3-.3,0-.6.3-.6.7,0,0,0,0,0,0-1.1-2-1.7-4.2-1.7-6.5,0-7.2,5.8-13,13-13.2h0ZM27.5,5.5c-7.5,0-13.5,6-13.5,13.5s6.1,13.5,13.5,13.5,13.5-6.1,13.5-13.5-6-13.5-13.5-13.5h0Z"/>
      <path class="cls-3" d="M27.1,7.8c0,2.8,1,5.8,2.2,7.2-2.6.6-1.3,4.4-6.1,4.2,1.5-3.8,2.6-7.8,3.9-11.4Z"/>
      <path class="cls-6" d="M37,24.1c-2.4-1.3-5-1.6-6.7-1.3.9-3.4-3-2.9-.7-7.4,2.5,3.2,4.7,5.8,7.4,8.7h0Z"/>
      <path class="cls-2" d="M18.1,24.8c2.3-1.3,4.4-3.5,4.9-5.3,1.8,2.1,4.6-1.1,6.8,3.3-3.9.5-8,1.4-11.7,2Z"/>
      <path class="cls-1" d="M23.6,19.6c4.4,0,3.9-3.9,5.4-4.1-2,4.1,1.1,4.7,1,6.8-2.4-4-5.5-1.5-6.4-2.7h0Z"/>
      <path class="cls-8" d="M16.9,21.7c-.1,0-.2,0-.3,0h0c.1,0,.2,0,.3.1,0,0,.1.1.2.2,0,.1,0,.2-.1.3-.1,0-.3.2-.5.2-.2,0-.3,0-.5,0-.1,0-.2,0-.3-.2,0,0,0-.2,0-.2,0,0,.1-.2.2-.2h0s-.4.1-.4.1c0,0,0,0,0,0,0,0,0,0,0,0,0,0,0,0,0,.1,0,0,0,0,0,.1,0,.2.1.3.3.3.2,0,.4,0,.6,0,.3,0,.4-.2.5-.3.1-.2.1-.4,0-.5,0,0,0,0-.1,0ZM15.6,20.9c-.1,0-.2-.1-.2-.2,0-.1,0-.2.2-.3.1,0,.3-.1.5-.1.3,0,.5,0,.6,0,.1,0,.2.1.2.2,0,0,0,.2-.1.2-.1,0-.3.1-.5.2-.2,0-.4,0-.5,0ZM15.5,20.4c-.1.1-.2.2-.2.4,0,.1.1.2.3.3.2,0,.3,0,.6,0,.2,0,.4-.1.5-.2.1-.1.2-.2.2-.4,0-.1-.1-.2-.3-.3-.1,0-.3,0-.6,0-.2,0-.4,0-.5.2ZM15.5,17s0,0,0,0c0,0,0,0,0,0h0s0,0,0,0v.3s1.1.4,1.1.4h0s-1.2.1-1.2.1v.2s0,0,0,0h0c0,0,0,0,0,0s0,0,0,0l1.2.2s0,0,0,0c0,0,0,0,0,0h0s0,0,0,0v-.2s0,0,0,0h0s0,0,0,0c0,0,0,0,0,0h-1.1c0-.1,0-.2,0-.2h1.3c0,0,0-.1,0-.1l-1.2-.4h0s1.1.1,1.1.1c0,0,0,0,0,0,0,0,0,0,0,0h0s0,0,0,0v-.4s0,0,0,0h0c0,0,0,0,0,0,0,0,0,0,0,0l-1.2-.2ZM16.9,16.3c0,0-.1,0-.2,0l-1-.3s0,0,0,0c0,0,0,0,0,0h0s0,0,0,0v.4c0,0,0,0,0,0h0c0,0,0,0,0,0,0,0,0,0,0,0l1,.3c.1,0,.2,0,.3,0,0,0,.1-.1.2-.2,0,0,0-.2,0-.3,0,0-.1-.2-.2-.2l-1-.3s0,0,0,0c0,0,0,0,0,0h0s0,0,0,0v.3c0,0,0,0,0,0h0c0,0,0,0,0,0,0,0,0,0,0,0l1,.3c.2,0,.3.2.2.4,0,0,0,0,0,0,0,0,0,.1-.1.2ZM16.1,14.5v.2c-.1,0,0,0,0,0h0c0,0,0-.1,0-.1,0,0,0,0,0,0l1.2.5s0,0,0,0c0,0,0,0,0,0h0c0,0,0,0,0,0v-.3c.1,0,0,0,0,0h0c0,0,0,0,0,.1,0,0,0,0,0,0l-1.1-.5h0s1.5-.1,1.5-.1h0s0,0,0,0l-1.3-.5s0,0,0,0c0,0,0,0,0,0h0c0,0,0,0,0,0v.3c-.1,0,0,0,0,0h0c0,0,0-.1,0-.1,0,0,0,0,0,0l.9.4h0s-1.3,0-1.3,0ZM16.8,13s0,0,0,0c0,0,0,0,0,0l1.1.6s0,0,0,0c0,0,0,0,0,0v.2c0,0,0,0,0,0l.3-.6h0s0,.1,0,.1c0,0,0,0,0,0,0,0,0,0,0,0l-1.1-.6s0,0,0,0c0,0,0,0,0,0v-.2c0,0,0,0,0,0l-.3.6h0s0-.1,0-.1h0ZM19.1,12.1c0-.1,0-.2-.1-.3h0c0,0,.1.2.1.3,0,0,0,.2,0,.2,0,.1-.2.1-.3.1s-.3-.1-.5-.2c-.1-.1-.3-.2-.3-.4,0-.1,0-.2,0-.3,0,0,.1-.1.2-.1,0,0,.2,0,.3,0h0s-.4-.2-.4-.2c0,0,0,0,0,0,0,0,0,0,0,0,0,0,0,0,0,0,0,0,0,0,0,0-.1.1-.1.3,0,.4,0,.2.2.3.4.5.2.2.4.2.5.2.1,0,.3,0,.4-.2,0,0,0-.2,0-.3h0ZM19.9,11.1s0,0,0,0c0,0,0,0,0,0h0s0,0,0,0l.3-.3h0s0,0,0,0c0,0,0,0,0,0,0,0,0,0,0,0l-1.2-.8h0c0,.1.7,1.3.7,1.3,0,0,0,0,0,0,0,0,0,0,0,0h0s0,0,0,0l.2-.2h0s0,0,0,0c0,0,0,0,0,0,0,0,0,0,0,0l-.2-.3.3-.3s.3.2.3.2ZM19.5,10.8l-.2.2-.4-.6h0s.6.4.6.4ZM21.1,10.3h0c0,0,0,0,0,0,0,0,0,0,0,0l-.7-1s0,0,0,0c0,0,0,0,0,0,0,0,.1,0,.2,0,0,0,.1,0,.2.1h0s-.3-.3-.3-.3l-.6.5v.3c.1,0,.2,0,.2,0,0-.1,0-.2,0-.3,0,0,0,0,.1-.1,0,0,0,0,0,0,0,0,0,0,0,0l.8,1s0,0,0,0c0,0,0,0,0,0h0s0,0,0,0l.3-.3h0s0,0,0,0ZM21.3,8.5s0,0,0,0c0,0,0,0,0,0l.6,1.1s0,0,0,0c0,0,0,0,0,0h-.2c0,0,0,.1,0,.1l.6-.3h0s-.2,0-.2,0c0,0,0,0,0,0,0,0,0,0,0,0l-.6-1.1s0,0,0,0c0,0,0,0,0,0h.2c0,0,0-.1,0-.1l-.6.3h0s.2,0,.2,0ZM22.7,7.9c0-.1,0-.2.1-.3.1,0,.2,0,.3,0,0,0,.2.2.3.4.1.2.1.4.1.5,0,.1,0,.2-.2.2,0,0-.2,0-.3,0-.1,0-.2-.2-.3-.5,0-.2-.1-.4-.1-.5h0ZM23.2,7.7c-.1-.1-.3-.1-.4,0-.1,0-.2.2-.2.3,0,.2,0,.3,0,.6,0,.2.2.4.3.5s.3.1.4,0c.1,0,.2-.2.2-.3,0-.2,0-.3,0-.6,0-.2-.2-.3-.3-.4ZM24.1,7.2h-.3c0,0,0,.1,0,.1h0s0,0,0,0c0,0,0,0,0,0l.3,1.2s0,0,0,0c0,0,0,0,0,0h0s0,0,0,0h.3c0,0,0-.1,0-.1h0s0,0,0,0c0,0,0,0,0,0l-.3-1.1h0s1,1.1,1,1.1h0s0,0,0,0l-.4-1.3s0,0,0,0c0,0,0,0,0,0h0s0,0,0,0h-.3c0,0,0,.1,0,.1h0s0,0,0,0c0,0,0,0,0,0l.3,1h0s-.8-1-.8-1ZM29.6,8.3s0-.1,0-.2l.2-1s0,0,0,0c0,0,0,0,0,0h0s0,0,0,0h-.3c0,0,0,0,0,0h0s0,0,0,0c0,0,0,0,0,0l-.2,1c0,.1,0,.2,0,.3,0,0,.1.1.2.1,0,0,.2,0,.3,0,0,0,.1-.1.2-.2l.2-1s0,0,0,0c0,0,0,0,0,0h0s0,0,0,0h-.3c0,0,0,0,0,0h0s0,0,0,0c0,0,0,0,0,0l-.2,1c0,.1-.1.2-.2.2,0,0,0,0-.1,0,0,0-.1,0-.2,0ZM31,7.2h-.2c0,0,0,0,0,0h0s0,0,0,0,0,0,0,0l-.4,1.2s0,0,0,0c0,0,0,0,0,0h0s0,0,0,0h.3c0,0,0,0,0,0h0s0,0,0,0c0,0,0,0,0,0l.4-1.1h0s.2,1.4.2,1.4h0,0s.4-1.3.4-1.3c0,0,0,0,0,0,0,0,0,0,0,0h0s0,0,0,0h-.3c0,0,0,0,0,0h0s0,0,0,0c0,0,0,0,0,0l-.3,1h0s-.2-1.3-.2-1.3h0ZM32.2,7.7s0,0,0,0c0,0,0,0,0,0l-.5,1.2s0,0,0,0c0,0,0,0,0,0h-.2c0,0,0,0,0,0l.6.2h0s-.2-.1-.2-.1c0,0,0,0,0,0,0,0,0,0,0,0l.5-1.2s0,0,0,0c0,0,0,0,0,0h.2c0,0,0,0,0,0l-.6-.2h0s.2.1.2.1h0ZM33.6,8.3s0,0,0,0c0,0,0,0,0,0l-.7.7h0s.3-1,.3-1c0,0,0,0,0,0,0,0,0,0,0,0h0s0,0,0,0l-.3-.2h0s0,0,0,0c0,0,0,0,0,0,0,0,0,0,0,0l-.4,1.3h0s.9-1,.9-1c0,0,0,0,0,0,0,0,0,0,0,0h0s0,0,0,0h-.3c0-.1,0,0,0,0,0,0,0,0,0,0ZM34.2,8.6s0,0,0,0c0,0,0,0,0,0l-.7,1s0,0,0,0c0,0,0,0,0,0h0s0,0,0,0l.7.5.3-.2h0c0,0-.2,0-.2,0,0,0-.1,0-.2,0h-.2c0-.1,0-.1,0-.2,0,0,0,0,0,0l.4-.5h.2c0,.2,0,.2,0,.2,0,0,0,0,0,.1h0s0,0,0,0l.3-.4h0s0,0,0,0c0,0,0,0-.1,0,0,0,0,0-.1,0h-.2c0-.1.3-.6.3-.6,0,0,0,0,0,0,0,0,0,0,0,0h.2c0,.2,0,.2,0,.3,0,0,0,.2,0,.2h0s0-.3,0-.3l-.6-.4h0s0,0,0,0ZM35.7,9.8c0,0,0-.2-.2-.2l-.3-.3h0s0,0,0,0c0,0,0,0,0,0,0,0,0,0,0,0l-.8,1s0,0,0,0c0,0,0,0,0,0h0s0,0,0,0l.3.2h0s0,0,0,0c0,0,0,0,0,0,0,0,0,0,0,0l.4-.5h.1c0,.1-.3.9-.3.9h.2c0,.1,0,.1,0,.1h0s0,0,0,0c0,0,0,0,0,0l.2-.7c0,0,.1,0,.2,0,0,0,.2,0,.2-.2,0,0,.1-.2,0-.3ZM35.3,9.5s0,0,0,0c0,0,0,0,0,0h0c0,.1.1.2.1.3,0,0,0,.2,0,.2,0,0-.1.1-.2.1,0,0-.1,0-.2,0h-.1c0-.1.4-.5.4-.5h0ZM35.8,11.2c0,0,0,.1,0,.2,0,0-.1.1-.2.1,0,0-.1,0-.2,0,0,0,0-.1,0-.2,0,0,0-.2.1-.3h0s-.3.3-.3.3c0,0,0,0,0,0,0,0,0,0,0,0,0,0,0,0,0,0,0,0,0,0,0,.1,0,0,.2.1.3.1.1,0,.2,0,.3-.1,0,0,.1-.1.1-.2,0-.1,0-.2,0-.3,0-.2,0-.3,0-.3,0,0,0-.1,0-.1,0,0,.1,0,.2-.1,0,0,.1,0,.2,0,0,0,0,.1,0,.2,0,0,0,.2,0,.3h0s.2-.3.2-.3c0,0,0,0,0,0,0,0,0,0,0,0,0,0,0,0,0,0,0,0,0,0,0-.1,0,0-.2-.1-.3-.1,0,0-.2,0-.2.1,0,0-.1.2-.1.2s0,.2,0,.3c0,0,0,.2,0,.3h0ZM37.1,11.2s0,0,0,0c0,0,0,0,0,0l-1,.8s0,0,0,0c0,0,0,0,0,0h-.1c0-.1,0-.1,0-.1l.4.5h0s-.1-.2-.1-.2c0,0,0,0,0,0,0,0,0,0,0,0l1-.8s0,0,0,0c0,0,0,0,0,0h.1c0,.1,0,.1,0,.1l-.4-.5h0s.1.2.1.2ZM36.8,13.2h0c0,0,0,0,0-.1,0,0,0,0,0,0l1-.7s0,0,0,0c0,0,0,0,0,0,0,0,0,.1,0,.2,0,0,0,.1-.1.2h0s.2-.2.2-.2l-.4-.6h-.3c0,.1,0,.2,0,.2.1,0,.2,0,.3,0,0,0,0,0,.1.1,0,0,0,0,0,0,0,0,0,0,0,0l-1,.7s0,0,0,0c0,0,0,0,0,0h0c0,0,0,0,0,0l.2.3s0,0,0,0ZM37.8,13.7h0s.5-.5.5-.5c0,0,0,0,0,0,0,0,0,0,0,0h0s0,0,0,0l-.2-.3h0s0,0,0,0c0,0,0,0,0,0,0,0,0,0,0,0l-.6.6-.4.2s0,0,0,0c0,0,0,0,0,0h0c0,0,0,0,0,0l.2.4h0s0,0,0,0c0,0,0,0,0,0,0,0,0,0,0,0l.5-.2h.7c0-.1,0-.1.1,0,0,0,0,0,0,0h0s0,0,0,0v-.3c-.1,0-.2,0-.2,0h0s0,0,0,0c0,0,0,0,0,0,0,0-.7.1-.7.1ZM39,14.9c.1,0,.2,0,.2.2,0,.1,0,.2-.1.3-.1.1-.3.2-.5.2-.2,0-.4.1-.6.1s-.2,0-.2-.2c0,0,0-.2,0-.3,0,0,.3-.2.5-.3.2,0,.4-.1.5,0ZM39.2,15.4c.1-.1.2-.3.1-.4,0-.1-.1-.2-.3-.2s-.3,0-.6,0c-.2,0-.4.2-.5.3-.1.1-.1.2,0,.4,0,.1.1.2.3.2.2,0,.3,0,.6,0,.2,0,.4-.2.5-.3h0ZM38.1,16.4s0,0,0,0c0,0,0,0,0,0h.6c0-.1,0,.1,0,.1,0,0,0,0,0,.1,0,0,0,0-.1,0h0s0,0,0,0h.5c0-.1,0-.2,0-.2h0c0,0-.1,0-.1,0s0,0,0-.1v-.3c0,0,.5-.1.5-.1,0,0,0,0,0,0,0,0,0,0,0,0v.2c0,0,0,.1,0,.2,0,0,0,.1-.2.2h0s.3-.1.3-.1l-.2-.8h0s0,0,0,0c0,0,0,0,0,0,0,0,0,0,0,0l-1.2.3s0,0,0,0c0,0,0,0,0,0h0c0,0,0,0,0,0v.4c0,0,.1,0,.1,0h0q0,0,0,0ZM38.5,18.3c0,0,.2.1.3.1h0c-.1,0-.2,0-.3-.1,0,0-.1-.1-.1-.2,0-.1,0-.2.2-.3.2,0,.3-.1.5-.1.2,0,.4,0,.5,0,.1,0,.2.1.2.2,0,0,0,.2,0,.2,0,0-.2.1-.2.2h0s.4,0,.4,0c0,0,0,0,0,0,0,0,0,0,0,0,0,0,0,0,0,0,0,0,0,0,0-.1,0-.2-.1-.3-.3-.4-.2,0-.4-.1-.6,0-.3,0-.5,0-.6.2-.1,0-.2.2-.2.4,0,0,0,.2.1.2ZM39.8,19.5s0,0,0,0c0,0,0,0,0,0h0s0,0,0,0v-.3s0,0,0,0h0c0,0,0,0,0,0,0,0,0,0,0,0h-.6s0-.5,0-.5h.6s0,0,0,0c0,0,0,0,0,0h0s0,0,0,0v-.3s0,0,0,0h0c0,0,0,0,0,0,0,0,0,0,0,0h-1.3s0,0,0,0c0,0,0,0,0,0h0s0,0,0,0v.3s0,0,0,0h0c0,0,0,0,0,0,0,0,0,0,0,0h.6s0,.5,0,.5h-.6s0,0,0,0c0,0,0,0,0,0h0s0,0,0,0v.3s0,0,0,0h0c0,0,0,0,0,0,0,0,0,0,0,0,0,0,1.3,0,1.3,0ZM39.8,20.2s0,0,0,0c0,0,0,0,0,0h-1.2c0-.1,0-.1,0-.2s0,0,0,0v-.2s0,0,0,0v.6c0,0,0,0,0,0v-.2s0,0,0,0c0,0,0,0,0,0h1.2c0,.1,0,.1,0,.2,0,0,0,0,0,0v.2s0,0,0,0v-.6c0,0,0,0,0,0v.2s0,0,0,0ZM39.7,21.3v-.2c0,0,0,0,0,0h0c0,0,0,.1,0,.1,0,0,0,0,0,0l-1.2-.3s0,0,0,0c0,0,0,0,0,0h0c0,0,0,0,0,0v.3c0,0,0,0,0,0h0c0,0,0,0,0-.1,0,0,0,0,0,0l1.2.2h0s-1.4.3-1.4.3h0s0,0,0,0l1.3.3s0,0,0,0c0,0,0,0,0,0h0c0,0,0,0,0,0v-.3c0,0,0,0,0,0h0c0,0,0,.1,0,.1,0,0,0,0,0,0l-1-.2h0s1.2-.3,1.2-.3ZM38,22.5s0,0,0,0c0,0,0,0,0,0h0s0,0,0,0v.3c-.1,0,0,0,0,0h0s0,0,0,0c0,0,0,0,0,0h1.4c0,.1,0,0,0,0l-1.2-.7s0,0,0,0c0,0,0,0,0,0h0s0,0,0,0v.3c0,0,0,0,0,0h0c0,0,0,0,0,0,0,0,0,0,.1,0l.3.2v.3c-.1,0-.5,0-.5,0h0ZM38.5,22.6v-.3c0,0,.8.4.8.4h0s-.7,0-.7,0h0ZM15.3,18.8s0,0,0,0c0,0,0,0,0,0h0s0,0,0,0v.3l1.1.2h0s-1.1.2-1.1.2v.2s0,0,0,0h0c0,0,0,0,0,0,0,0,0,0,0,0h1.3s0,0,0,0c0,0,0,0,0,0h0s0,0,0,0v-.2s0,0,0,0h0s0,0,0,0c0,0,0,0,0,0h-1.1s1.2-.3,1.2-.3h0s-1.3-.3-1.3-.3h0s1.1,0,1.1,0c0,0,0,0,0,0,0,0,0,0,0,0h0s0,0,0,0v-.3s0,0,0,0h0c0,0,0,0,0,0,0,0,0,0,0,0,0,0-1.3,0-1.3,0Z"/>
      <path class="cls-5" d="M30,29.5s0,0,0,0h0s0,0,0,0c0,0,0,0,0,0h0s0,0,0,0h0s0,0,0,0c0,0,0,0,0,0h0s0,0,0,0c0,0,0,0,0,0,0,0,0,0,0,0h0s0,0,0,0c0,0,0,0,0,0h0s0,0,0,0c0,0,0,0,0,0,0,0,0,0,0,0h0s0,0,0,0h0s0,0,0,0h0s0,0,0,0h0s0,0,0,0h0s0,0,0,0h0s0,0,0,0c0,0,0,0,0,0,0,0,0,0,0,0h0s0,0,0,0h0s0,0,0,0h0s0,0,0,0c0,0,0,0,0,0h0s0,0,0,0h0s0,0,0,0h0s0,0,0,0h0s0,0,0,0h0s0,0,0,0c0,0,0,0,0,0h0s0,0,0,0c0,0,0,0,0,0h0s0,0,0,0t0,0h0s0,0,0,0h0s0,0,0,0h0s0,0,0,0c0,0,0,0,0,0h0s0,0,0,0h0s0,0,0,0h0,0s0,0,0,0h0s0,0,0,0h0s0,0,0,0h0s0,0,0,0c0,0,0,0,0,0,0,0,0,0,0,0h0s0,0,0,0h0s0,0,0,0h0s0,0,0,0h0s0,0,0,0h0s0,0,0,0h0s0,0,0,0h0s0,0,0,0h0s0,0,0,0h0s0,0,0,0h0s0,0,0,0h0s0,0,0,0h0s0,0,0,0c0,0,0,0,0,0h0s0,0,0,0h0s0,0,0,0h0s0,0,0,0h0s0,0,0,0h0s0,0,0,0c0,0,0,0,0,0,0,0,0,0,0,0h0s0,0,0,0h0s0,0,0,0h0s0,0,0,0h0s0,0,0,0c0,0,0,0,0,0h0s0,0,0,0h0s0,0,0,0h0s0,0,0,0h0s0,0,0,0c0,0,0,0,0,0h0s0,0,0,0h0s0,0,0,0c0,0,0,0,0,0,0,0,0,0,0,0h0s0,0,0,0h0s0,0,0,0c0,0,0,0,0,0h0s0,0,0,0h0s0,0,0,0h0s0,0,0,0h0s0,0,0,0h0s0,0,0,0c0,0,0,0,0,0h0,0s0,0,0,0c0,0,0,0,0,0h0s0,0,0,0h0,0s0,0,0,0c0,0,0,0,0,0h0,0s0,0,0,0c0,0,0,0,0,0h0s0,0,0,0h0s0,0,0,0c0,0,0,0,0,0h0,0s0,0,0,0h0s0,0,0,0h0s0,0,0,0h0s0,0,0,0h0s0,0,0,0h0s0,0,0,0h0s0,0,0,0h0,0s0,0,0,0h0s0,0,0,0h0s0,0,0,0c0,0,0,0,0,0,0,0,0,0,0,0h0s0,0,0,0c0,0,0,0,0,0h0s0,0,0,0h0s0,0,0,0c0,0,0,0,0,0h0s0,0,0,0h0s0,0,0,0h0s0,0,0,0c0,0,0,0,0,0,0,0,0,0,0,0h0s0,0,0,0h0s0,0,0,0h0s0,0,0,0h0s0,0,0,0h0s0,0,0,0h0s0,0,0,0h0s0,0,0,0h0s0,0,0,0h0s0,0,0,0h0s0,0,0,0h0s0,0,0,0h0s0,0,0,0h0s0,0,0,0h0s0,0,0,0h0s0,0,0,0h0s0,0,0,0h0s0,0,0,0h0s0,0,0,0c0,0,0,0,0,0h0s0,0,0,0c0,0,0,0,0,0,0,0,0,0,0,0h0s0,0,0,0c0,0,0,0,0,0,0,0,0,0,0,0,0,0,0,0,0,0h0s0,0,0,0h0s0,0,0,0h0s0,0,0,0h0s0,0,0,0h0s0,0,0,0h0s0,0,0,0h0s0,0,0,0c0,0,0,0,0,0h0s0,0,0,0c0,0,0,0,0,0h0c0,0,0,0,0,0h0s0,0,0,0h0s0,0,0,0c0,0,0,0,0,0h0s0,0,0,0h0s0,0,0,0h0s0,0,0,0c0,0,0,0,0,0h0s0,0,0,0h0s0,0,0,0h0s0,0,0,0h0s0,0,0,0h0s0,0,0,0h0s0,0,0,0h0s0,0,0,0c0,0,0,0,0,0h0s0,0,0,0c0,0,0,0,0,0h0s0,0,0,0c0,0,0,0,0,0h0,0s0,0,0,0c0,0,0,0,0,0,0,0,0,0,0,0,0,0,0,0,0,0h0s0,0,0,0c0,0,0,0,0,0h0s0,0,0,0c0,0,0,0,0,0,0,0,0,0,0,0h0s0,0,0,0h0s0,0,0,0h0s0,0,0,0h0s0,0,0,0h0s0,0,0,0h0s0,0,0,0h0s0,0,0,0h0s0,0,0,0c0,0,0,0,0,0,0,0,0,0,0,0h0s0,0,0,0h0s0,0,0,0h0s0,0,0,0c0,0,0,0,0,0h0s0,0,0,0h0s0,0,0,0h0s0,0,0,0h0s0,0,0,0h0s0,0,0,0h0s0,0,0,0h0s0,0,0,0h0s0,0,0,0h0s0,0,0,0h0s0,0,0,0h0s0,0,0,0h0s0,0,0,0h0s0,0,0,0h0s0,0,0,0h0s0,0,0,0h0s0,0,0,0h0s0,0,0,0h0s0,0,0,0h0s0,0,0,0c0,0,0,0,0,0h0s0,0,0,0c0,0,0,0,0,0h0s0,0,0,0h0s0,0,0,0c0,0,0,0,0,0h0s0,0,0,0h0s0,0,0,0h0s0,0,0,0h0,0c0,0,0,0,0,0,0,0,0,0,0,0h0,0c0,0,0,0,0,0h0s0,0,0,0h0s0,0,0,0h0s0,0,0,0c0,0,0,0,0,0h0,0s0,0,0,0h0s0,0,0,0h0s0,0,0,0h0s0,0,0,0h0s0,0,0,0h0s0,0,0,0h0s0,0,0,0h0s0,0,0,0h0s0,0,0,0h0s0,0,0,0h0s0,0,0,0h0s0,0,0,0h0s0,0,0,0c0,0,0,0,0,0h0s0,0,0,0h0s0,0,0,0h0s0,0,0,0c0,0,0,0,0,0h0s0,0,0,0c0,0,0,0,0,0,0,0,0,0,0,0h0s0,0,0,0h0s0,0,0,0h0s0,0,0,0h0s0,0,0,0c0,0,0,0,0,0h0s0,0,0,0h0s0,0,0,0h0s0,0,0,0h0s0,0,0,0c0,0,0,0,0,0h0s0,0,0,0h0s0,0,0,0h0s0,0,0,0h0s0,0,0,0h0s0,0,0,0h0s0,0,0,0c0,0,0,0,0,0,0,0,0,0,0,0,0,0,0,0,0,0h0s0,0,0,0h0s0,0,0,0h0s0,0,0,0h0s0,0,0,0h0s0,0,0,0c0,0,0,0,0,0h0s0,0,0,0h0s0,0,0,0h0s0,0,0,0h0s0,0,0,0c0,0,0,0,0,0h0,0s0,0,0,0h0s0,0,0,0c0,0,0,0,0,0h0s0,0,0,0h0c0,0,0,0,0,0h0s0,0,0,0c0,0,0,0,0,0h0,0s0,0,0,0h0s0,0,0,0h0s0,0,0,0h0s0,0,0,0h0s0,0,0,0c0,0,0,0,0,0h0s0,0,0,0h0c0,0,0,0,0,0h0s0,0,0,0h0s0,0,0,0h0s0,0,0,0c0,0,0,0,0,0h0s0,0,0,0h0,0s0,0,0,0c0,0,0,0,0,0,0,0,0,0,0,0,0,0,0,0,0,0,0,0,0,0,0,0,0,0,0,0,0,0h0s0,0,0,0h0,0s0,0,0,0h0s0,0,0,0h0s0,0,0,0h0s0,0,0,0h0s0,0,0,0h0s0,0,0,0h0s0,0,0,0h0s0,0,0,0h0s0,0,0,0h0s0,0,0,0h0s0,0,0,0h0s0,0,0,0h0s0,0,0,0h0s0,0,0,0h0s0,0,0,0h0s0,0,0,0h0s0,0,0,0h0s0,0,0,0h0s0,0,0,0h0s0,0,0,0c0,0,0,0,0,0h0s0,0,0,0h0s0,0,0,0c0,0,0,0,0,0h0s0,0,0,0h0s0,0,0,0c0,0,0,0,0,0h0s0,0,0,0h0s0,0,0,0h0s0,0,0,0c0,0,0,0,0,0h0s0,0,0,0c0,0,0,0,0,0h0s0,0,0,0c0,0,0,0,0,0h0s0,0,0,0h0s0,0,0,0h0s0,0,0,0h0s0,0,0,0c0,0,0,0,0,0h0s0,0,0,0h0s0,0,0,0h0s0,0,0,0c0,0,0,0,0,0h0s0,0,0,0h0s0,0,0,0c0,0,0,0,0,0,0,0,0,0,0,0h0s0,0,0,0h0s0,0,0,0c0,0,0,0,0,0,0,0,0,0,0,0,0,0,0,0,0,0h0,0s0,0,0,0h0s0,0,0,0h0s0,0,0,0h0s0,0,0,0h0s0,0,0,0h0s0,0,0,0h0s0,0,0,0h0s0,0,0,0h0s0,0,0,0h0s0,0,0,0h0s0,0,0,0h0s0,0,0,0c0,0,0,0,0,0h0,0c0,0,0,0,0,0h0s0,0,0,0h0s0,0,0,0h0s0,0,0,0c0,0,0,0,0,0h0s0,0,0,0h0s0,0,0,0h0s0,0,0,0h0s0,0,0,0h0s0,0,0,0ZM29.7,30.1s0,0,0,0c0,0,0,0,0,0,0,0,0,0,0,0,0,0,0,0,0,0,0,0,0,0,0,0h0s0,0,0,0h0s0,0,0,0h0s0,0,0,0c0,0,0,0,0,0ZM29.8,29.7h0s0,0,0,0c0,0,0,0,0,0h0,0s0,0,0,0h0s0,0,0,0h0s0,0,0,0h0s0,0,0,0h0s0,0,0,0c0,0,0,0,0,0,0,0,0,0,0,0h0s0,0,0,0h0s0,0,0,0h0s0,0,0,0c0,0,0,0,0,0h0s0,0,0,0h0s0,0,0,0c0,0,0,0,0,0,0,0,0,0,0,0,0,0,0,0,0,0,0,0,0,0,0,0h0s0,0,0,0h0s0,0,0,0c0,0,0,0,0,0,0,0,0,0,0,0h0s0,0,0,0h0s0,0,0,0h0s0,0,0,0h0s0,0,0,0h0s0,0,0,0h0s0,0,0,0h0s0,0,0,0h0s0,0,0,0c0,0,0,0,0,0h0s0,0,0,0h0ZM29.2,30h0,0s0,0,0,0c0,0,0,0,0,0h0s0,0,0,0h0s0,0,0,0h0s0,0,0,0h0,0s0,0,0,0h0s0,0,0,0h0s0,0,0,0h0s0,0,0,0h0s0,0,0,0c0,0,0,0,0,0h0s0,0,0,0h0s0,0,0,0h0s0,0,0,0c0,0,0,0,0,0h0s0,0,0,0c0,0,0,0,0,0,0,0,0,0,0,0,0,0,0,0,0,0h0s0,0,0,0h0s0,0,0,0h0s0,0,0,0h0s0,0,0,0h0s0,0,0,0c0,0,0,0,0,0,0,0,0,0,0,0h0s0,0,0,0h0s0,0,0,0h0s0,0,0,0h0s0,0,0,0h0s0,0,0,0h0s0,0,0,0h0c0,0,0,0,0,0,0,0,0,0,0,0h0,0s0,0,0,0c0,0,0,0,0,0h0,0s0,0,0,0c0,0,0,0,0,0h0s0,0,0,0h0s0,0,0,0h0s0,0,0,0h0s0,0,0,0h0s0,0,0,0h0s0,0,0,0h0s0,0,0,0h0s0,0,0,0c0,0,0,0,0,0,0,0,0,0,0,0,0,0,0,0,0,0h0s0,0,0,0h0,0s0,0,0,0c0,0,0,0,0,0h0s0,0,0,0h0s0,0,0,0h0,0s0,0,0,0h0s0,0,0,0c0,0,0,0,0,0h0,0s0,0,0,0h0s0,0,0,0h0s0,0,0,0h0s0,0,0,0h0s0,0,0,0h0s0,0,0,0c0,0,0,0,0,0h0s0,0,0,0h0s0,0,0,0h0s0,0,0,0c0,0,0,0,0,0h0s0,0,0,0h0s0,0,0,0h0s0,0,0,0h0s0,0,0,0c0,0,0,0,0,0h0s0,0,0,0c0,0,0,0,0,0h0s0,0,0,0h0s0,0,0,0h0s0,0,0,0h0s0,0,0,0c0,0,0,0,0,0h0s0,0,0,0h0s0,0,0,0h0s0,0,0,0h0s0,0,0,0h0s0,0,0,0h0s0,0,0,0h0s0,0,0,0h0s0,0,0,0h0s0,0,0,0h0s0,0,0,0h0s0,0,0,0c0,0,0,0,0,0h0s0,0,0,0h0s0,0,0,0h0,0s0,0,0,0h0s0,0,0,0h0s0,0,0,0h0s0,0,0,0h0s0,0,0,0c0,0,0,0,0,0h0s0,0,0,0h0c0,0,0,0,0,0h0s0,0,0,0h0s0,0,0,0h0s0,0,0,0h0s0,0,0,0h0s0,0,0,0c0,0,0,0,0,0h0s0,0,0,0h0s0,0,0,0h0s0,0,0,0h0s0,0,0,0h0s0,0,0,0h0s0,0,0,0h0s0,0,0,0c0,0,0,0,0,0h0s0,0,0,0h0s0,0,0,0c0,0,0,0,0,0,0,0,0,0,0,0,0,0,0,0,0,0,0,0,0,0,0,0h0s0,0,0,0h0s0,0,0,0h0s0,0,0,0h0s0,0,0,0c0,0,0,0,0,0h0s0,0,0,0h0s0,0,0,0h0s0,0,0,0h0s0,0,0,0c0,0,0,0,0,0h0s0,0,0,0h0s0,0,0,0c0,0,0,0,0,0h0s0,0,0,0c0,0,0,0,0,0h0s0,0,0,0h0s0,0,0,0h0s0,0,0,0h0s0,0,0,0c0,0,0,0,0,0,0,0,0,0,0,0,0,0,0,0,0,0h0s0,0,0,0c0,0,0,0,0,0h0s0,0,0,0c0,0,0,0,0,0h0s0,0,0,0h0s0,0,0,0h0s0,0,0,0h0s0,0,0,0h0s0,0,0,0h0s0,0,0,0h0s0,0,0,0h0s0,0,0,0h0s0,0,0,0h0s0,0,0,0h0s0,0,0,0h0s0,0,0,0h0s0,0,0,0h0s0,0,0,0c0,0,0,0,0,0h0s0,0,0,0c0,0,0,0,0,0,0,0,0,0,0,0h0s0,0,0,0h0s0,0,0,0h0s0,0,0,0c0,0,0,0,0,0h0s0,0,0,0h0s0,0,0,0h0s0,0,0,0h0s0,0,0,0c0,0,0,0,0,0,0,0,0,0,0,0,0,0,0,0,0,0h0s0,0,0,0c0,0,0,0,0,0h0s0,0,0,0h0s0,0,0,0h0s0,0,0,0h0s0,0,0,0h0s0,0,0,0c0,0,0,0,0,0h0s0,0,0,0h0s0,0,0,0c0,0,0,0,0,0h0s0,0,0,0h0s0,0,0,0h0s0,0,0,0h0s0,0,0,0h0s0,0,0,0h0s0,0,0,0c0,0,0,0,0,0h0s0,0,0,0h0s0,0,0,0h0s0,0,0,0h0s0,0,0,0c0,0,0,0,0,0h0,0s0,0,0,0h0s0,0,0,0h0s0,0,0,0h0s0,0,0,0h0s0,0,0,0h0s0,0,0,0c0,0,0,0,0,0h0,0s0,0,0,0h0s0,0,0,0c0,0,0,0,0,0h0,0s0,0,0,0h0s0,0,0,0c0,0,0,0,0,0h0s0,0,0,0h0s0,0,0,0h0,0s0,0,0,0h0s0,0,0,0h0s0,0,0,0c0,0,0,0,0,0h0,0s0,0,0,0h0s0,0,0,0c0,0,0,0,0,0h0,0s0,0,0,0h0s0,0,0,0h0s0,0,0,0h0s0,0,0,0c0,0,0,0,0,0h0,0s0,0,0,0c0,0,0,0,0,0h0,0s0,0,0,0h0s0,0,0,0h0s0,0,0,0c0,0,0,0,0,0h0,0s0,0,0,0h0s0,0,0,0c0,0,0,0,0,0h0,0s0,0,0,0c0,0,0,0,0,0h0,0s0,0,0,0h0s0,0,0,0h0s0,0,0,0h0s0,0,0,0h0s0,0,0,0h0s0,0,0,0h0s0,0,0,0c0,0,0,0,0,0h0s0,0,0,0c0,0,0,0,0,0h0s0,0,0,0h0s0,0,0,0h0s0,0,0,0h0s0,0,0,0h0s0,0,0,0h0s0,0,0,0h0s0,0,0,0c0,0,0,0,0,0h0,0s0,0,0,0h0s0,0,0,0h0s0,0,0,0h0s0,0,0,0ZM29.1,30.6h0,0s0,0,0,0h0s0,0,0,0h0,0s0,0,0,0h0s0,0,0,0h0s0,0,0,0h0s0,0,0,0h0s0,0,0,0h0s0,0,0,0h0s0,0,0,0h0s0,0,0,0h0s0,0,0,0h0s0,0,0,0c0,0,0,0,0,0h0s0,0,0,0h0,0s0,0,0,0h0s0,0,0,0h0s0,0,0,0h0s0,0,0,0h0s0,0,0,0h0s0,0,0,0h0s0,0,0,0h0s0,0,0,0h0s0,0,0,0h0s0,0,0,0h0s0,0,0,0c0,0,0,0,0,0h0s0,0,0,0h0s0,0,0,0h0s0,0,0,0h0s0,0,0,0h0s0,0,0,0c0,0,0,0,0,0,0,0,0,0,0,0,0,0,0,0,0-.1h0s0,0,0,0h0s0,0,0,0c0,0,0,0,0,0h0s0,0,0,0c0,0,0,0,0,0h0s0,0,0,0h0s0,0,0,0c0,0,0,0,0,0,0,0,0,0,0,0,0,0,0,0,0,0h0s0,0,0,0h0s0,0,0,0h0s0,0,0,0c0,0,0,0,0,0h0s0,0,0,0c0,0,0,0,0,0ZM30.7,30.6h0s0,0,0,0c0,0,0,0,0,0h0s0,0,0,0c0,0,0,0,0,0,0,0,0,0,0,0,0,0,0,0,0,0,0,0,0,0,0,0h0s0,0,0,0c0,0,0,0,0,0h0s0,0,0,0h0s0,0,0,0h0s0,0,0,0h0s0,0,0,0h0s0,0,0,0h0s0,0,0,0h0s0,0,0,0h0s0,0,0,0h0s0,0,0,0c0,0,0,0,0,0h0s0,0,0,0h0s0,0,0,0h0s0,0,0,0h0s0,0,0,0h0s0,0,0,0h0s0,0,0,0h0s0,0,0,0c0,0,0,0,0,0h0s0,0,0,0h0s0,0,0,0h0s0,0,0,0h0s0,0,0,0h0s0,0,0,0c0,0,0,0,0,0h0s0,0,0,0c0,0,0,0,0,0,0,0,0,0,0,0,0,0,0,0,0,0h0s0,0,0,0c0,0,0,0,0,0h0s0,0,0,0h0s0,0,0,0h0s0,0,0,0h0s0,0,0,0c0,0,0,0,0,0h0s0,0,0,0c0,0,0,0,0,0h0s0,0,0,0h0s0,0,0,0c0,0,0,0,0,0,0,0,0,0,0,0h0s0,0,0,0h0s0,0,0,0h0s0,0,0,0c0,0,0,0,0,0h0s0,0,0,0h0s0,0,0,0h0s0,0,0,0h0s0,0,0,0ZM29.7,31h0s0,0,0,0h0s0,0,0,0h0s0,0,0,0h0s0,0,0,0h0s0,0,0,0h0s0,0,0,0c0,0,0,0,0,0h0s0,0,0,0h0s0,0,0,0c0,0,0,0,0,0h0s0,0,0,0h0s0,0,0,0h0s0,0,0,0h0s0,0,0,0h0s0,0,0,0h0s0,0,0,0h0s0,0,0,0h0s0,0,0,0h0c0,0,0,0,0,0h0s0,0,0,0c0,0,0,0,0,0h0,0s0,0,0,0h0s0,0,0,0h0s0,0,0,0h0s0,0,0,0c0,0,0,0,0,0h0s0,0,0,0c0,0,0,0,0,0h0s0,0,0,0h0c0,0,0,0,0,0h0s0,0,0,0h0s0,0,0,0h0s0,0,0,0c0,0,0,0,0,0h0s0,0,0,0h0s0,0,0,0h0s0,0,0,0h0s0,0,0,0h0s0,0,0,0c0,0,0,0,0,0,0,0,0,0,0,0h0s0,0,0,0h0s0,0,0,0h0s0,0,0,0h0s0,0,0,0h0s0,0,0,0h0s0,0,0,0c0,0,0,0,0,0h0s0,0,0,0c0,0,0,0,0,0,0,0,0,0,0,0h0s0,0,0,0h0s0,0,0,0h0s0,0,0,0h0s0,0,0,0h0s0,0,0,0c0,0,0,0,0,0h0,0s0,0,0,0c0,0,0,0,0,0h0s0,0,0,0h0s0,0,0,0h0s0,0,0,0h0s0,0,0,0h0s0,0,0,0h0s0,0,0,0h0,0c0,0,0-.1,0-.1h0s0,0,0,0h0ZM23.9,28.9s0,0,0,0h0s0,0,0,0c0,0,0,0,0,0h0s0,0,0,0c0,0,0,0,0,0h0s0,0,0,0h0s0,0,0,0h0s0,0,0,0h0s0,0,0,0h0s0,0,0,0h0s0,0,0,0h0s0,0,0,0h0s0,0,0,0h0s0,0,0,0c0,0,0,0,0,0h0s0,0,0,0h0s0,0,0,0h0s0,0,0,0h0s0,0,0,0h0s0,0,0,0c0,0,0,0,0,0,0,0,0,0,0,0h0s0,0,0,0h0s0,0,0,0h0s0,0,0,0c0,0,0,0,0,0,0,0,0,0,0,0h0s0,0,0,0h0s0,0,0,0c0,0,0,0,0,0h0s0,0,0,0h0s0,0,0,0c0,0,0,0,0,0h0s0,0,0,0h0s0,0,0,0c0,0,0,0,0,0,0,0,0,0,0,0h0s0,0,0,0h0s0,0,0,0c0,0,0,0,0,0h0s0,0,0,0h0s0,0,0,0h0s0,0,0,0h0s0,0,0,0c0,0,0,0,0,0h0s0,0,0,0c0,0,0,0,0,0h0s0,0,0,0h0s0,0,0,0h0s0,0,0,0h0s0,0,0,0h0s0,0,0,0h0s0,0,0,0h0s0,0,0,0h0s0,0,0,0h0s0,0,0,0h0s0,0,0,0h0s0,0,0,0h0s0,0,0,0h0s0,0,0,0c0,0,0,0,0,0h0s0,0,0,0c0,0,0,0,0,0h0s0,0,0,0h0s0,0,0,0c0,0,0,0,0,0,0,0,0,0,0,0h0s0,0,0,0c0,0,0,0,0,0h0s0,0,0,0c0,0,0,0,0,0h0s0,0,0,0h0s0,0,0,0c0,0,0,0,0,0,0,0,0,0,0,0,0,0,0,0,0,0,0,0,0,0,0,0h0s0,0,0,0h0s0,0,0,0h0s0,0,0,0h0s0,0,0,0h0ZM24.6,28.9h0s0,0,0,0h0s0,0,0,0h0s0,0,0,0ZM24.6,28.9h0s0,0,0,0h0s0,0,0,0h0s0,0,0,0h0s0,0,0,0ZM24.6,29s0,0,0,0h0s0,0,0,0h0s0,0,0,0ZM24.6,29h0s0,0,0,0h0s0,0,0,0c0,0,0,0,0,0h0s0,0,0,0c0,0,0,0,0,0h0s0,0,0,0c0,0,0,0,0,0,0,0,0,0,0,0h0s0,0,0,0c0,0,0,0,0,0h0s0,0,0,0h0,0s0,0,0,0h0s0,0,0,0c0,0,0,0,0,0h0s0,0,0,0c0,0,0,0,0,0h0s0,0,0,0h0s0,0,0,0c0,0,0,0,0,0h0,0s0,0,0,0c0,0,0,0,0,0h0s0,0,0,0h0s0,0,0,0c0,0,0,0,0,0,0,0,0,0,0,0h0s0,0,0,0h0s0,0,0,0h0s0,0,0,0c0,0,0,0,0,0h0,0s0,0,0,0h0s0,0,0,0h0s0,0,0,0h0,0s0,0,0,0h0s0,0,0,0h0s0,0,0,0h0s0,0,0,0h0c0,0,0,0,0,0,0,0,0,0,0,0h0s0,0,0,0h0,0s0,0,0,0c0,0,0,0,0,0h0s0,0,0,0h0,0s0,0,0,0h0s0,0,0,0h0s0,0,0,0h0s0,0,0,0h0c0,0,0,0,0,0h0s0,0,0,0c0,0,0,0,0,0h0s0,0,0,0h0s0,0,0,0h0s0,0,0,0c0,0,0,0,0,0h0s0,0,0,0h0,0s0,0,0,0h0s0,0,0,0c0,0,0,0,0,0h0,0s0,0,0,0h0s0,0,0,0h0s0,0,0,0h0c0,0,0,0,0,0,0,0,0,0,0,0h0c0,0,0,0,0,0,0,0,0,0,0,0h0s0,0,0,0h0s0,0,0,0h0s0,0,0,0h0s0,0,0,0h0s0,0,0,0h0s0,0,0,0h0s0,0,0,0h0s0,0,0,0h0s0,0,0,0h0s0,0,0,0c0,0,0,0,0,0,0,0,0,0,0,0h0s0,0,0,0h0s0,0,0,0h0s0,0,0,0h0s0,0,0,0h0s0,0,0,0h0s0,0,0,0h0s0,0,0,0h0s0,0,0,0h0s0,0,0,0h0s0,0,0,0c0,0,0,0,0,0h0,0s0,0,0,0h0s0,0,0,0c0,0,0,0,0,0h0s0,0,0,0c0,0,0,0,0,0h0,0s0,0,0,0h0s0,0,0,0h0s0,0,0,0h0s0,0,0,0h0s0,0,0,0c0,0,0,0,0,0h0s0,0,0,0h0s0,0,0,0h0s0,0,0,0h0s0,0,0,0h0s0,0,0,0h0s0,0,0,0h0s0,0,0,0h0s0,0,0,0h0s0,0,0,0h0s0,0,0,0c0,0,0,0,0,0h0s0,0,0,0h0s0,0,0,0h0s0,0,0,0ZM23.7,30.6h0s0,0,0,0h0s0,0,0,0h0s0,0,0,0h0s0,0,0,0h0s0,0,0,0h0s0,0,0,0c0,0,0,0,0,0h0s0,0,0,0h0s0,0,0,0h0s0,0,0,0h0s0,0,0,0c0,0,0,0,0,0,0,0,0,0,0,0h0s0,0,0,0c0,0,0,0,0,0,0,0,0,0,0,0h0s0,0,0,0h0s0,0,0,0h0s0,0,0,0h0s0,0,0,0h0s0,0,0,0c0,0,0,0,0,0h0s0,0,0,0c0,0,0,0,0,0h0s0,0,0,0c0,0,0,0,0,0h0s0,0,0,0h0s0,0,0,0h0s0,0,0,0c0,0,0,0,0,0,0,0,0,0,0,0h0s0,0,0,0h0s0,0,0,0h0,0s0,0,0,0h0s0,0,0,0c0,0,0,0,0,0h0s0,0,0,0h0s0,0,0,0h0s0,0,0,0c0,0,0,0,0,0h0s0,0,0,0h0s0,0,0,0h0,0s0,0,0,0h0s0,0,0,0c0,0,0,0,0,0h0s0,0,0,0h0s0,0,0,0h0s0,0,0,0h0s0,0,0,0h0s0,0,0,0c0,0,0,0,0,0,0,0,0,0,0,0h0s0,0,0,0c0,0,0,0,0,0h0s0,0,0,0h0s0,0,0,0h0s0,0,0,0h0s0,0,0,0h0s0,0,0,0h0s0,0,0,0h0s0,0,0,0h0s0,0,0,0h0s0,0,0,0h0s0,0,0,0c0,0,0,0,0,0,0,0,0,0,0,0h0s0,0,0,0h0s0,0,0,0c0,0,0,0,0,0h0,0s0,0,0,0c0,0,0,0,0,0,0,0,0,0,0,0,0,0,0,0,0,0,0,0,0,0,0,0h0s0,0,0,0h0s0,0,0,0c0,0,0,0,0,0h0s0,0,0,0h0s0,0,0,0c0,0,0,0,0,0h0s0,0,0,0h0,0s0,0,0,0c0,0,0,0,0,0h0s0,0,0,0h0s0,0,0,0c0,0,0,0,0,0h0s0,0,0,0h0s0,0,0,0h0s0,0,0,0h0s0,0,0,0h0s0,0,0,0c0,0,0,0,0,0h0s0,0,0,0h0s0,0,0,0h0s0,0,0,0h0s0,0,0,0c0,0,0,0,0,0,0,0,0,0,0,0,0,0,0,0,0,0h0s0,0,0,0c0,0,0,0,0,0h0s0,0,0,0h0s0,0,0,0c0,0,0,0,0,0h0s0,0,0,0h0s0,0,0,0h0s0,0,0,0h0s0,0,0,0h0s0,0,0,0h0s0,0,0,0h0s0,0,0,0c0,0,0,0,0,0h0s0,0,0,0h0s0,0,0,0h0s0,0,0,0h0s0,0,0,0h0c0,0,0,0,0,0h0s0,0,0,0h0s0,0,0,0c0,0,0,0,0,0h0s0,0,0,0c0,0,0,0,0,0h0s0,0,0,0h0s0,0,0,0c0,0,0,0,0,0h0s0,0,0,0h0s0,0,0,0c0,0,0,0,0,0h0s0,0,0,0h0s0,0,0,0h0s0,0,0,0h0s0,0,0,0c0,0,0,0,0,0,0,0,0,0,0,0,0,0,0,0,0,0h0s0,0,0,0h0s0,0,0,0h0s0,0,0,0h0s0,0,0,0c0,0,0,0,0,0h0s0,0,0,0h0s0,0,0,0h0s0,0,0,0h0s0,0,0,0c0,0,0,0,0,0,0,0,0,0,0,0h0s0,0,0,0h0s0,0,0,0h0s0,0,0,0h0s0,0,0,0c0,0,0,0,0,0,0,0,0,0,0,0h0s0,0,0,0h0s0,0,0,0h0s0,0,0,0h0s0,0,0,0c0,0,0,0,0,0h0s0,0,0,0h0s0,0,0,0c0,0,0,0,0,0h0s0,0,0,0c0,0,0,0,0,0h0s0,0,0,0h0s0,0,0,0c0,0,0,0,0,0,0,0,0,0,0,0h0s0,0,0,0h0s0,0,0,0h0s0,0,0,0h0s0,0,0,0h0s0,0,0,0h0s0,0,0,0h0s0,0,0,0h0s0,0,0,0h0s0,0,0,0h0s0,0,0,0c0,0,0,0,0,0,0,0,0,0,0,0h0s0,0,0,0c0,0,0,0,0,0h0s0,0,0,0h0,0s0,0,0,0h0,0s0,0,0,0h0s0,0,0,0h0s0,0,0,0h0s0,0,0,0h0s0,0,0,0h0s0,0,0,0c0,0,0,0,0,0,0,0,0,0,0,0h0s0,0,0,0c0,0,0,0,0,0,0,0,0,0,0,0h0s0,0,0,0c0,0,0,0,0,0,0,0,0,0,0,0,0,0,0,0,0,0h0s0,0,0,0h0s0,0,0,0h0s0,0,0,0h0s0,0,0,0h0s0,0,0,0c0,0,0,0,0,0h0s0,0,0,0h0s0,0,0,0h0s0,0,0,0h0s0,0,0,0h0s0,0,0,0h0s0,0,0,0c0,0,0,0,0,0h0s0,0,0,0c0,0,0,0,0,0h0s0,0,0,0h0s0,0,0,0h0s0,0,0,0h0s0,0,0,0c0,0,0,0,0,0,0,0,0,0,0,0h0s0,0,0,0h0s0,0,0,0c0,0,0,0,0,0h0s0,0,0,0h0s0,0,0,0h0s0,0,0,0h0s0,0,0,0c0,0,0,0,0,0h0s0,0,0,0h0s0,0,0,0h0s0,0,0,0h0s0,0,0,0c0,0,0,0,0,0,0,0,0,0,0,0,0,0,0,0,0,0h0s0,0,0,0c0,0,0,0,0,0h0s0,0,0,0h0s0,0,0,0h0s0,0,0,0c0,0,0,0,0,0h0s0,0,0,0h0s0,0,0,0h0s0,0,0,0h0s0,0,0,0h0s0,0,0,0h0s0,0,0,0c0,0,0,0,0,0h0s0,0,0,0h0s0,0,0,0h0s0,0,0,0h0s0,0,0,0h0s0,0,0,0c0,0,0,0,0,0h0s0,0,0,0h0s0,0,0,0c0,0,0,0,0,0h0s0,0,0,0h0s0,0,0,0c0,0,0,0,0,0h0s0,0,0,0h0s0,0,0,0h0s0,0,0,0c0,0,0,0,0,0h0s0,0,0,0h0s0,0,0,0h0s0,0,0,0h0s0,0,0,0h0s0,0,0,0c0,0,0,0,0,0h0s0,0,0,0h0s0,0,0,0h0s0,0,0,0c0,0,0,0,0,0h0s0,0,0,0h0s0,0,0,0c0,0,0,0,0,0h0,0s0,0,0,0h0s0,0,0,0c0,0,0,0,0,0h0s0,0,0,0c0,0,0,0,0,0h0s0,0,0,0h0s0,0,0,0h0s0,0,0,0h0s0,0,0,0h0s0,0,0,0h0s0,0,0,0h0s0,0,0,0c0,0,0,0,0,0h0s0,0,0,0h0s0,0,0,0c0,0,0,0,0,0h0s0,0,0,0c0,0,0,0,0,0,0,0,0,0,0,0h0s0,0,0,0c0,0,0,0,0,0h0s0,0,0,0h0s0,0,0,0h0s0,0,0,0h0s0,0,0,0h0s0,0,0,0h0s0,0,0,0h0s0,0,0,0c0,0,0,0,0,0,0,0,0,0,0,0h0s0,0,0,0h0s0,0,0,0h0s0,0,0,0h0s0,0,0,0c0,0,0,0,0,0h0s0,0,0,0h0s0,0,0,0t0,0h0s0,0,0,0h0s0,0,0,0h0s0,0,0,0h0s0,0,0,0h0s0,0,0,0h0s0,0,0,0c0,0,0,0,0,0h0s0,0,0,0h0s0,0,0,0c0,0,0,0,0,0,0,0,0,0,0,0h0s0,0,0,0h0s0,0,0,0c0,0,0,0,0,0h0s0,0,0,0h0s0,0,0,0h0s0,0,0,0c0,0,0,0,0,0h0s0,0,0,0h0s0,0,0,0h0s0,0,0,0c0,0,0,0,0,0h0s0,0,0,0h0s0,0,0,0c0,0,0,0,0,0h0s0,0,0,0h0s0,0,0,0ZM23.9,30.3h0s0,0,0,0h0s0,0,0,0h0s0,0,0,0h0s0,0,0,0c0,0,0,0,0,0,0,0,0,0,0,0h0s0,0,0,0c0,0,0,0,0,0h0s0,0,0,0h0s0,0,0,0h0s0,0,0,0h0s0,0,0,0h0s0,0,0,0c0,0,0,0,0,0ZM23.7,30.4h0s0,0,0,0c0,0,0,0,0,0h0s0,0,0,0h0s0,0,0,0h0s0,0,0,0h0s0,0,0,0h0s0,0,0,0c0,0,0,0,0,0h0s0,0,0,0h0s0,0,0,0h0s0,0,0,0h0s0,0,0,0c0,0,0,0,0,0h0s0,0,0,0h0s0,0,0,0h0s0,0,0,0h0s0,0,0,0h0s0,0,0,0h0s0,0,0,0h0s0,0,0,0c0,0,0,0,0,0,0,0,0,0,0,0h0s0,0,0,0h0s0,0,0,0c0,0,0,0,0,0h0s0,0,0,0h0s0,0,0,0c0,0,0,0,0,0,0,0,0,0,0,0,0,0,0,0,0,0h0s0,0,0,0h0s0,0,0,0c0,0,0,0,0,0h0s0,0,0,0h0s0,0,0,0h0s0,0,0,0h0s0,0,0,0h0s0,0,0,0h0s0,0,0,0h0s0,0,0,0h0s0,0,0,0h0s0,0,0,0c0,0,0,0,0,0h0s0,0,0,0h0s0,0,0,0h0s0,0,0,0c0,0,0,0,0,0,0,0,0,0,0,0,0,0,0,0,0,0,0,0,0,0,0,0,0,0,0,0,0,0h0s0,0,0,0h0s0,0,0,0h0s0,0,0,0h0s0,0,0,0h0s0,0,0,0h0s0,0,0,0c0,0,0,0,0,0h0s0,0,0,0c0,0,0,0,0,0h0s0,0,0,0h0s0,0,0,0c0,0,0,0,0,0h0s0,0,0,0h0s0,0,0,0h0s0,0,0,0h0s0,0,0,0h0s0,0,0,0h0s0,0,0,0c0,0,0,0,0,0,0,0,0,0,0,0,0,0,0,0,0,0h0s0,0,0,0c0,0,0,0,0,0h0s0,0,0,0h0s0,0,0,0h0s0,0,0,0h0s0,0,0,0h0s0,0,0,0h0s0,0,0,0h0s0,0,0,0h0s0,0,0,0h0s0,0,0,0h0s0,0,0,0h0s0,0,0,0h0s0,0,0,0c0,0,0,0,0,0h0s0,0,0,0c0,0,0,0,0,0h0s0,0,0,0h0s0,0,0,0h0s0,0,0,0h0s0,0,0,0c0,0,0,0,0,0,0,0,0,0,0,0,0,0,0,0,0,0h0s0,0,0,0h0s0,0,0,0h0s0,0,0,0h0s0,0,0,0c0,0,0,0,0,0h0s0,0,0,0h0s0,0,0,0h0s0,0,0,0h0s0,0,0,0h0s0,0,0,0h0s0,0,0,0h0s0,0,0,0h0s0,0,0,0h0s0,0,0,0h0c0,0,0,0,0,0h0s0,0,0,0h0s0,0,0,0h0s0,0,0,0h0s0,0,0,0c0,0,0,0,0,0h0s0,0,0,0c0,0,0,0,0,0h0s0,0,0,0h0s0,0,0,0h0s0,0,0,0h0s0,0,0,0h0s0,0,0,0h0s0,0,0,0h0s0,0,0,0h0s0,0,0,0h0s0,0,0,0c0,0,0,0,0,0h0s0,0,0,0c0,0,0,0,0,0h0s0,0,0,0h0s0,0,0,0c0,0,0,0,0,0,0,0,0,0,0,0h0s0,0,0,0c0,0,0,0,0,0h0s0,0,0,0h0s0,0,0,0h0s0,0,0,0c0,0,0,0,0,0h0s0,0,0,0h0s0,0,0,0h0s0,0,0,0h0s0,0,0,0h0s0,0,0,0c0,0,0,0,0,0h0s0,0,0,0c0,0,0,0,0,0h0s0,0,0,0h0s0,0,0,0h0s0,0,0,0h0s0,0,0,0h0s0,0,0,0h0s0,0,0,0h0s0,0,0,0h0s0,0,0,0h0s0,0,0,0h0s0,0,0,0c0,0,0,0,0,0,0,0,0,0,0,0h0s0,0,0,0h0s0,0,0,0h0s0,0,0,0h0s0,0,0,0h0s0,0,0,0c0,0,0,0,0,0,0,0,0,0,0,0h0s0,0,0,0h0s0,0,0,0h0s0,0,0,0c0,0,0,0,0,0h0s0,0,0,0h0s0,0,0,0c0,0,0,0,0,0h0s0,0,0,0h0s0,0,0,0h0s0,0,0,0c0,0,0,0,0,0h0s0,0,0,0h0s0,0,0,0c0,0,0,0,0,0h0s0,0,0,0h0s0,0,0,0c0,0,0,0,0,0,0,0,0,0,0,0h0s0,0,0,0c0,0,0,0,0,0h0s0,0,0,0h0s0,0,0,0h0s0,0,0,0c0,0,0,0,0,0,0,0,0,0,0,0,0,0,0,0,0,0,0,0,0,0,0,0h0s0,0,0,0h0s0,0,0,0h0s0,0,0,0h0s0,0,0,0c0,0,0,0,0,0h0s0,0,0,0h0s0,0,0,0c0,0,0,0,0,0h0s0,0,0,0c0,0,0,0,0,0h0s0,0,0,0h0s0,0,0,0h0s0,0,0,0h0s0,0,0,0h0s0,0,0,0h0s0,0,0,0h0s0,0,0,0h0s0,0,0,0h0s0,0,0,0h0s0,0,0,0c0,0,0,0,0,0h0s0,0,0,0h0s0,0,0,0h0s0,0,0,0h0s0,0,0,0h0s0,0,0,0h0s0,0,0,0c0,0,0,0,0,0h0s0,0,0,0h0s0,0,0,0h0s0,0,0,0h0s0,0,0,0h0s0,0,0,0c0,0,0,0,0,0h0s0,0,0,0h0s0,0,0,0c0,0,0,0,0,0h0s0,0,0,0h0s0,0,0,0h0s0,0,0,0h0s0,0,0,0h0s0,0,0,0h0s0,0,0,0h0,0s0,0,0,0h0s0,0,0,0h0s0,0,0,0c0,0,0,0,0,0h0s0,0,0,0h0s0,0,0,0h0ZM24.4,29.3h0s0,0,0,0c0,0,0,0,0,0h0s0,0,0,0h0s0,0,0,0c0,0,0,0,0,0h0s0,0,0,0h0s0,0,0,0h0s0,0,0,0c0,0,0,0,0,0h0s0,0,0,0h0s0,0,0,0c0,0,0,0,0,0h0s0,0,0,0c0,0,0,0,0,0h0s0,0,0,0h0s0,0,0,0h0s0,0,0,0h0s0,0,0,0h0s0,0,0,0c0,0,0,0,0,0h0s0,0,0,0h0s0,0,0,0h0s0,0,0,0h0s0,0,0,0h0s0,0,0,0c0,0,0,0,0,0h0s0,0,0,0h0s0,0,0,0c0,0,0,0,0,0h0s0,0,0,0c0,0,0,0,0,0h0s0,0,0,0h0s0,0,0,0h0s0,0,0,0,0,0,0,0c0,0,0,0,0,0,0,0,0,0,0,0h0s0,0,0,0h0s0,0,0,0h0s0,0,0,0h0s0,0,0,0h0s0,0,0,0h0s0,0,0,0h0s0,0,0,0h0s0,0,0,0c0,0,0,0,0,0h0s0,0,0,0h0,0s0,0,0,0h0s0,0,0,0h0s0,0,0,0h0s0,0,0,0h0s0,0,0,0h0s0,0,0,0h0s0,0,0,0h0s0,0,0,0h0s0,0,0,0h0s0,0,0,0h0ZM24.4,30.1h0,0s0,0,0,0h0s0,0,0,0c0,0,0,0,0,0h0,0s0,0,0,0c0,0,0,0,0,0h0s0,0,0,0c0,0,0,0,0,0h0s0,0,0,0c0,0,0,0,0,0,0,0,0,0,0,0h0s0,0,0,0h0s0,0,0,0h0s0,0,0,0h0s0,0,0,0h0s0,0,0,0h0s0,0,0,0h0s0,0,0,0h0s0,0,0,0c0,0,0,0,0,0h0,0s0,0,0,0c0,0,0,0,0,0h0s0,0,0,0h0s0,0,0,0h0s0,0,0,0c0,0,0,0,0,0h0s0,0,0,0h0s0,0,0,0h0s0,0,0,0h0s0,0,0,0h0s0,0,0,0c0,0,0,0,0,0h0s0,0,0,0h0s0,0,0,0h0s0,0,0,0h0s0,0,0,0h0s0,0,0,0c0,0,0,0,0,0h0s0,0,0,0c0,0,0,0,0,0,0,0,0,0,0,0,0,0,0,0,0,0,0,0,0,0,0,0,0,0,0,0,0,0h0,0s0,0,0,0h0s0,0,0,0h0s0,0,0,0c0,0,0,0,0,0h0s0,0,0,0c0,0,0,0,0,0h0s0,0,0,0c0,0,0,0,0,0,0,0,0,0,0,0h0s0,0,0,0c0,0,0,0,0,0h0s0,0,0,0h0s0,0,0,0c0,0,0,0,0,0h0s0,0,0,0h0s0,0,0,0h0s0,0,0,0c0,0,0,0,0,0h0s0,0,0,0h0s0,0,0,0h0s0,0,0,0c0,0,0,0,0,0h0s0,0,0,0h0s0,0,0,0h0s0,0,0,0h0s0,0,0,0h0s0,0,0,0h0s0,0,0,0h0s0,0,0,0h0s0,0,0,0h0s0,0,0,0h0s0,0,0,0h0s0,0,0,0h0s0,0,0,0h0s0,0,0,0h0s0,0,0,0h0s0,0,0,0c0,0,0,0,0,0h0s0,0,0,0h0s0,0,0,0h0s0,0,0,0h0s0,0,0,0h0s0,0,0,0c0,0,0,0,0,0,0,0,0,0,0,0,0,0,0,0,0,0,0,0,0,0,0,0h0s0,0,0,0h0s0,0,0,0h0s0,0,0,0h0s0,0,0,0h0s0,0,0,0h0s0,0,0,0h0s0,0,0,0c0,0,0,0,0,0h0s0,0,0,0h0s0,0,0,0c0,0,0,0,0,0,0,0,0,0,0,0,0,0,0,0,0,0h0s0,0,0,0h0s0,0,0,0h0s0,0,0,0h0s0,0,0,0h0s0,0,0,0h0s0,0,0,0h0s0,0,0,0h0s0,0,0,0h0s0,0,0,0h0s0,0,0,0h0s0,0,0,0h0s0,0,0,0h0s0,0,0,0c0,0,0,0,0,0h0s0,0,0,0h0s0,0,0,0h0s0,0,0,0h0s0,0,0,0h0s0,0,0,0h0c0,0,0-.1,0-.2h0s0,0,0,0h0s0,0,0,0h0s0,0,0,0h0s0,0,0,0h0s0,0,0,0h0s0,0,0,0h0s0,0,0,0h0s0,0,0,0c0,0,0,0,0,0,0,0,0,0,0,0h0s0,0,0,0h0s0,0,0,0h0s0,0,0,0h0,0s0,0,0,0h0s0,0,0,0h0s0,0,0,0c0,0,0,0,0,0h0s0,0,0,0c0,0,0,0,0,0h0c0-.1,0-.1,0-.1,0,0,0,0,0,0h0s0,0,0,0h0s0,0,0,0h0s0,0,0,0h0s0,0,0,0h0s0,0,0,0c0,0,0,0,0,0,0,0,0,0,0,0h0ZM26.4,29.7h0s0,0,0,0h0s0,0,0,0c0,0,0,0,0,0h0s0,0,0,0h0s0,0,0,0c0,0,0,0,0,0,0,0,0,0,0,0h0s0,0,0,0c0,0,0,0,0,0h0s0,0,0,0h0s0,0,0,0h0s0,0,0,0h0s0,0,0,0h0s0,0,0,0h0s0,0,0,0h0s0,0,0,0h0s0,0,0,0c0,0,0,0,0,0h0s0,0,0,0c0,0,0,0,0,0h0s0,0,0,0h0s0,0,0,0h0s0,0,0,0h0s0,0,0,0h0s0,0,0,0h0s0,0,0,0h0s0,0,0,0c0,0,0,0,0,0h0s0,0,0,0h0s0,0,0,0h0s0,0,0,0h0s0,0,0,0c0,0,0,0,0,0h0s0,0,0,0h0s0,0,0,0h0s0,0,0,0h0s0,0,0,0c0,0,0,0,0,0h0s0,0,0,0h0s0,0,0,0h0s0,0,0,0h0s0,0,0,0h0s0,0,0,0h0s0,0,0,0h0s0,0,0,0c0,0,0,0,0,0,0,0,0,0,0,0h0s0,0,0,0h0s0,0,0,0h0s0,0,0,0h0s0,0,0,0h0s0,0,0,0h0s0,0,0,0h0s0,0,0,0h0s0,0,0,0h0s0,0,0,0h0s0,0,0,0c0,0,0,0,0,0h0s0,0,0,0h0s0,0,0,0h0s0,0,0,0h0s0,0,0,0c0,0,0,0,0,0h0s0,0,0,0h0s0,0,0,0h0s0,0,0,0h0s0,0,0,0h0s0,0,0,0h0s0,0,0,0h0s0,0,0,0h0s0,0,0,0h0s0,0,0,0h0s0,0,0,0h0s0,0,0,0h0s0,0,0,0c0,0,0,0,0,0h0s0,0,0,0h0s0,0,0,0h0s0,0,0,0h0s0,0,0,0h0s0,0,0,0h0s0,0,0,0h0s0,0,0,0h0s0,0,0,0h0s0,0,0,0h0s0,0,0,0h0s0,0,0,0h0s0,0,0,0h0s0,0,0,0h0s0,0,0,0h0s0,0,0,0h0s0,0,0,0h0s0,0,0,0h0s0,0,0,0h0s0,0,0,0h0s0,0,0,0h0s0,0,0,0h0s0,0,0,0h0s0,0,0,0h0s0,0,0,0h0s0,0,0,0c0,0,0,0,0,0h0s0,0,0,0h0s0,0,0,0h0s0,0,0,0c0,0,0,0,0,0h0s0,0,0,0h0s0,0,0,0h0s0,0,0,0h0s0,0,0,0h0s0,0,0,0h0s0,0,0,0h0s0,0,0,0c0,0,0,0,0,0h0s0,0,0,0h0s0,0,0,0c0,0,0,0,0,0h0s0,0,0,0h0c0,0,0,0,0,0h0s0,0,0,0c0,0,0,0,0,0h0s0,0,0,0c0,0,0,0,0,0h0s0,0,0,0h0s0,0,0,0h0s0,0,0,0h0s0,0,0,0h0s0,0,0,0h0s0,0,0,0h0s0,0,0,0h0s0,0,0,0h0s0,0,0,0h0s0,0,0,0c0,0,0,0,0,0h0,0s0,0,0,0c0,0,0,0,0,0h0s0,0,0,0h0s0,0,0,0h0s0,0,0,0h0s0,0,0,0h0s0,0,0,0c0,0,0,0,0,0h0s0,0,0,0h0s0,0,0,0h0s0,0,0,0h0s0,0,0,0c0,0,0,0,0,0,0,0,0,0,0,0,0,0,0,0,0,0h0s0,0,0,0h0s0,0,0,0h0s0,0,0,0h0s0,0,0,0h0s0,0,0,0c0,0,0,0,0,0,0,0,0,0,0,0h0s0,0,0,0c0,0,0,0,0,0,0,0,0,0,0,0h0s0,0,0,0h0s0,0,0,0c0,0,0,0,0,0,0,0,0,0,0,0h0s0,0,0,0c0,0,0,0,0,0h0s0,0,0,0h0s0,0,0,0h0s0,0,0,0h0s0,0,0,0h0s0,0,0,0c0,0,0,0,0,0h0s0,0,0,0h0s0,0,0,0h0c0,0,0,0,0,0h0s0,0,0,0h0s0,0,0,0h0s0,0,0,0c0,0,0,0,0,0h0s0,0,0,0h0s0,0,0,0h0s0,0,0,0h0s0,0,0,0h0s0,0,0,0h0s0,0,0,0h0s0,0,0,0h0s0,0,0,0h0s0,0,0,0h0s0,0,0,0h0s0,0,0,0h0s0,0,0,0c0,0,0,0,0,0h0s0,0,0,0h0c0,0,0-.2,0-.2h0,0s0,0,0,0h0s0,0,0,0h0s0,0,0,0h0s0,0,0,0h0s0,0,0,0h0s0,0,0,0h0s0,0,0,0h0s0,0,0,0h0s0,0,0,0h0s0,0,0,0h0s0,0,0,0c0,0,0,0,0,0h0s0,0,0,0h0s0,0,0,0h0s0,0,0,0c0,0,0,0,0,0,0,0,0,0,0,0h0,0s0,0,0,0h0s0,0,0,0h0s0,0,0,0h0s0,0,0,0h0s0,0,0,0h0s0,0,0,0h0s0,0,0,0c0,0,0,0,0,0,0,0,0,0,0,0h0s0,0,0,0h0s0,0,0,0h0s0,0,0,0h0s0,0,0,0h0s0,0,0,0c0,0,0,0,0,0h0s0,0,0,0h0s0,0,0,0h0s0,0,0,0h0s0,0,0,0h0s0,0,0,0h0s0,0,0,0h0s0,0,0,0h0s0,0,0,0h0s0,0,0,0h0s0,0,0,0h0s0,0,0,0h0s0,0,0,0h0s0,0,0,0h0s0,0,0,0h0s0,0,0,0h0s0,0,0,0h0s0,0,0,0h0s0,0,0,0h0,0s0,0,0,0c0,0,0,0,0,0,0,0,0,0,0,0,0,0,0,0,0,0,0,0,0,0,0,0h0s0,0,0,0h0s0,0,0,0h0s0,0,0,0h0s0,0,0,0h0s0,0,0,0h0s0,0,0,0c0,0,0,0,0,0h0s0,0,0,0h0s0,0,0,0c0,0,0,0,0,0,0,0,0,0,0,0h0s0,0,0,0h0s0,0,0,0h0s0,0,0,0c0,0,0,0,0,0h0s0,0,0,0c0,0,0,0,0,0h0s0,0,0,0h0s0,0,0,0h0s0,0,0,0c0,0,0,0,0,0h0s0,0,0,0h0s0,0,0,0h0s0,0,0,0h0s0,0,0,0h0s0,0,0,0h0s0,0,0,0h0s0,0,0,0c0,0,0,0,0,0h0s0,0,0,0h0s0,0,0,0c0,0,0,0,0,0h0s0,0,0,0h0s0,0,0,0c0,0,0,0,0,0h0s0,0,0,0h0s0,0,0,0h0s0,0,0,0h0s0,0,0,0h0s0,0,0,0c0,0,0,0,0,0h0s0,0,0,0h0s0,0,0,0c0,0,0,0,0,0h0ZM27.2,30.8s0,0,0,0c0,0,0,0,0,0h0s0,0,0,0h0s0,0,0,0c0,0,0,0,0,0h0s0,0,0,0c0,0,0,0,0,0h0s0,0,0,0c0,0,0,0,0,0h0s0,0,0,0h0s0,0,0,0c0,0,0,0,0,0h0s0,0,0,0c0,0,0,0,0,0h0,0s0,0,0,0h0s0,0,0,0h0s0,0,0,0h0s0,0,0,0h0s0,0,0,0h0s0,0,0,0h0s0,0,0,0h0s0,0,0,0h0s0,0,0,0h0s0,0,0,0h0s0,0,0,0h0s0,0,0,0h0s0,0,0,0c0,0,0,0,0,0,0,0,0,0,0,0h0s0,0,0,0c0,0,0,0,0,0h0s0,0,0,0c0,0,0,0,0,0h0s0,0,0,0h0s0,0,0,0h0s0,0,0,0h0s0,0,0,0h0s0,0,0,0h0s0,0,0,0h0s0,0,0,0h0s0,0,0,0h0s0,0,0,0h0s0,0,0,0h0s0,0,0,0c0,0,0,0,0,0h0s0,0,0,0h0s0,0,0,0h0s0,0,0,0c0,0,0,0,0,0,0,0,0,0,0,0h0s0,0,0,0h0s0,0,0,0h0s0,0,0,0h0s0,0,0,0h0s0,0,0,0h0s0,0,0,0h0s0,0,0,0c0,0,0,0,0,0h0s0,0,0,0h0s0,0,0,0h0s0,0,0,0h0s0,0,0,0c0,0,0,0,0,0h0s0,0,0,0c0,0,0,0,0,0h0s0,0,0,0h0s0,0,0,0h0s0,0,0,0h0s0,0,0,0h0s0,0,0,0h0s0,0,0,0h0s0,0,0,0h0s0,0,0,0h0s0,0,0,0h0s0,0,0,0h0s0,0,0,0h0s0,0,0,0c0,0,0,0,0,0h0s0,0,0,0h0,0s0,0,0,0c0,0,0,0,0,0h0s0,0,0,0c0,0,0,0,0,0h0s0,0,0,0h0s0,0,0,0h0s0,0,0,0h0s0,0,0,0h0s0,0,0,0h0s0,0,0,0h0s0,0,0,0c0,0,0,0,0,0h0s0,0,0,0c0,0,0,0,0,0h0s0,0,0,0h0s0,0,0,0h0,0s0,0,0,0h0s0,0,0,0h0s0,0,0,0h0s0,0,0,0h0s0,0,0,0h0s0,0,0,0h0s0,0,0,0c0,0,0,0,0,0h0s0,0,0,0h0s0,0,0,0h0s0,0,0,0h0s0,0,0,0c0,0,0,0,0,0,0,0,0,0,0,0h0s0,0,0,0h0s0,0,0,0c0,0,0,0,0,0h0s0,0,0,0h0s0,0,0,0c0,0,0,0,0,0h0s0,0,0,0h0s0,0,0,0h0s0,0,0,0h0s0,0,0,0h0s0,0,0,0h0s0,0,0,0h0s0,0,0,0c0,0,0,0,0,0,0,0,0,0,0,0h0s0,0,0,0h0s0,0,0,0c0,0,0,0,0,0h0s0,0,0,0h0s0,0,0,0c0,0,0,0,0,0,0,0,0,0,0,0h0s0,0,0,0h0s0,0,0,0h0s0,0,0,0h0c0,0,0,0,0,0h0s0,0,0,0h0s0,0,0,0h0s0,0,0,0h0s0,0,0,0c0,0,0,0,0,0,0,0,0,0,0,0h0s0,0,0,0h0s0,0,0,0h0s0,0,0,0h0s0,0,0,0c0,0,0,0,0,0h0s0,0,0,0h0s0,0,0,0h0s0,0,0,0h0s0,0,0,0c0,0,0,0,0,0h0s0,0,0,0h0s0,0,0,0h0s0,0,0,0h0s0,0,0,0h0s0,0,0,0h0s0,0,0,0h0s0,0,0,0c0,0,0,0,0,0,0,0,0,0,0,0h0s0,0,0,0h0s0,0,0,0h0s0,0,0,0h0s0,0,0,0h0s0,0,0,0h0s0,0,0,0h0s0,0,0,0h0s0,0,0,0c0,0,0,0,0,0,0,0,0,0,0,0h0s0,0,0,0c0,0,0,0,0,0h0,0s0,0,0,0h0c0,0,0,0,0,0h0s0,0,0,0h0s0,0,0,0c0,0,0,0,0,0h0s0,0,0,0h0s0,0,0,0c0,0,0,0,0,0h0s0,0,0,0h0s0,0,0,0h0s0,0,0,0h0s0,0,0,0h0s0,0,0,0h0s0,0,0,0h0s0,0,0,0h0s0,0,0,0h0s0,0,0,0h0s0,0,0,0c0,0,0,0,0,0h0s0,0,0,0h0s0,0,0,0h0s0,0,0,0h0s0,0,0,0c0,0,0,0,0,0h0s0,0,0,0h0s0,0,0,0h0s0,0,0,0h0s0,0,0,0h0s0,0,0,0h0s0,0,0,0h0s0,0,0,0h0s0,0,0,0h0s0,0,0,0h0s0,0,0,0h0s0,0,0,0h0s0,0,0,0h0s0,0,0,0h0s0,0,0,0h0s0,0,0,0c0,0,0,0,0,0h0s0,0,0,0h0s0,0,0,0c0,0,0,0,0,0h0s0,0,0,0c0,0,0,0,0,0h0s0,0,0,0c0,0,0,0,0,0h0s0,0,0,0h0s0,0,0,0c0,0,0,0,0,0,0,0,0,0,0,0h0s0,0,0,0h0s0,0,0,0h0s0,0,0,0h0s0,0,0,0h0s0,0,0,0h0s0,0,0,0h0s0,0,0,0h0s0,0,0,0h0s0,0,0,0h0s0,0,0,0h0s0,0,0,0h0s0,0,0,0h0s0,0,0,0h0s0,0,0,0h0s0,0,0,0h0s0,0,0,0c0,0,0,0,0,0h0s0,0,0,0c0,0,0,0,0,0,0,0,0,0,0,0h0s0,0,0,0h0s0,0,0,0h0s0,0,0,0c0,0,0,0,0,0h0s0,0,0,0c0,0,0,0,0,0h0s0,0,0,0h0s0,0,0,0h0s0,0,0,0h0s0,0,0,0h0s0,0,0,0h0s0,0,0,0h0s0,0,0,0h0s0,0,0,0h0s0,0,0,0c0,0,0,0,0,0,0,0,0,0,0,0h0s0,0,0,0h0s0,0,0,0h0s0,0,0,0h0s0,0,0,0c0,0,0,0,0,0,0,0,0,0,0,0h0s0,0,0,0h0s0,0,0,0h0s0,0,0,0h0s0,0,0,0h0s0,0,0,0h0s0,0,0,0h0s0,0,0,0c0,0,0,0,0,0h0s0,0,0,0h0s0,0,0,0h0s0,0,0,0h0s0,0,0,0h0s0,0,0,0h0s0,0,0,0h0s0,0,0,0h0s0,0,0,0h0s0,0,0,0c0,0,0,0,0,0h0s0,0,0,0h0s0,0,0,0h0s0,0,0,0h0s0,0,0,0h0s0,0,0,0h0,0s0,0,0,0h0s0,0,0,0h0s0,0,0,0h0s0,0,0,0h0s0,0,0,0h0s0,0,0,0h0s0,0,0,0h0s0,0,0,0h0s0,0,0,0h0s0,0,0,0h0s0,0,0,0h0s0,0,0,0h0s0,0,0,0h0s0,0,0,0c0,0,0,0,0,0,0,0,0,0,0,0h0s0,0,0,0h0s0,0,0,0h0s0,0,0,0h0s0,0,0,0h0s0,0,0,0h0s0,0,0,0h0s0,0,0,0h0s0,0,0,0c0,0,0,0,0,0h0s0,0,0,0c0,0,0,0,0,0h0s0,0,0,0h0s0,0,0,0h0s0,0,0,0h0s0,0,0,0h0s0,0,0,0h0s0,0,0,0c0,0,0,0,0,0h0s0,0,0,0h0s0,0,0,0h0s0,0,0,0h0s0,0,0,0h0s0,0,0,0h0s0,0,0,0h0s0,0,0,0h0s0,0,0,0h0s0,0,0,0h0s0,0,0,0h0s0,0,0,0h0s0,0,0,0h0s0,0,0,0h0s0,0,0,0h0s0,0,0,0h0s0,0,0,0c0,0,0,0,0,0h0s0,0,0,0h0s0,0,0,0h0s0,0,0,0h0s0,0,0,0h0s0,0,0,0h0s0,0,0,0h0s0,0,0,0c0,0,0,0,0,0,0,0,0,0,0,0h0s0,0,0,0c0,0,0,0,0,0h0s0,0,0,0h0s0,0,0,0h0s0,0,0,0h0s0,0,0,0h0s0,0,0,0h0s0,0,0,0h0s0,0,0,0h0s0,0,0,0c0,0,0,0,0,0,0,0,0,0,0,0h0s0,0,0,0h0s0,0,0,0h0s0,0,0,0h0s0,0,0,0h0s0,0,0,0h0s0,0,0,0h0s0,0,0,0h0s0,0,0,0h0s0,0,0,0h0s0,0,0,0c0,0,0,0,0,0,0,0,0,0,0,0h0s0,0,0,0h0s0,0,0,0h0s0,0,0,0h0s0,0,0,0h0s0,0,0,0h0s0,0,0,0h0s0,0,0,0h0s0,0,0,0h0s0,0,0,0h0s0,0,0,0h0s0,0,0,0c0,0,0,0,0,0h0s0,0,0,0h0ZM22.5,28.3h0s0,0,0,0c0,0,0,0,0,0,0,0,0,0,0,0h0s0,0,0,0h0s0,0,0,0c0,0,0,0,0,0,0,0,0,0,0,0,0,0,0,0,0,0h0s0,0,0,0c0,0,0,0,0,0,0,0,0,0,0,0h0s0,0,0,0h0s0,0,0,0h0s0,0,0,0c0,0,0,0,0,0h0s0,0,0,0h0s0,0,0,0h0s0,0,0,0h0s0,0,0,0h0s0,0,0,0c0,0,0,0,0,0h0s0,0,0,0h0s0,0,0,0c0,0,0,0,0,0,0,0,0,0,0,0,0,0,0,0,0,0h0s0,0,0,0h0s0,0,0,0c0,0,0,0,0,0h0s0,0,0,0h0s0,0,0,0h0s0,0,0,0h0s0,0,0,0h0s0,0,0,0c0,0,0,0,0,0h0s0,0,0,0h0s0,0,0,0h0s0,0,0,0h0s0,0,0,0h0s0,0,0,0h0s0,0,0,0h0s0,0,0,0h0s0,0,0,0c0,0,0,0,0,0h0s0,0,0,0h0s0,0,0,0h0s0,0,0,0h0s0,0,0,0h0s0,0,0,0c0,0,0,0,0,0,0,0,0,0,0,0,0,0,0,0,0,0h0s0,0,0,0h0s0,0,0,0h0s0,0,0,0h0s0,0,0,0h0s0,0,0,0c0,0,0,0,0,0h0s0,0,0,0c0,0,0,0,0,0h0s0,0,0,0h0s0,0,0,0h0,0s0,0,0,0h0s0,0,0,0c0,0,0,0,0,0h0s0,0,0,0h0s0,0,0,0h0s0,0,0,0h0s0,0,0,0c0,0,0,0,0,0h0s0,0,0,0h0s0,0,0,0h0s0,0,0,0h0s0,0,0,0c0,0,0,0,0,0h0s0,0,0,0c0,0,0,0,0,0h0s0,0,0,0c0,0,0,0,0,0h0s0,0,0,0c0,0,0,0,0,0h0s0,0,0,0c0,0,0,0,0,0h0s0,0,0,0h0s0,0,0,0c0,0,0,0,0,0h0s0,0,0,0h0s0,0,0,0h0s0,0,0,0h0s0,0,0,0c0,0,0,0,0,0h0s0,0,0,0h0s0,0,0,0c0,0,0,0,0,0h0s0,0,0,0h0s0,0,0,0h0s0,0,0,0h0s0,0,0,0h0s0,0,0,0h0s0,0,0,0h0s0,0,0,0h0s0,0,0,0c0,0,0,0,0,0h0s0,0,0,0h0s0,0,0,0h0s0,0,0,0h0s0,0,0,0h0s0,0,0,0h0s0,0,0,0h0s0,0,0,0h0s0,0,0,0h0s0,0,0,0c0,0,0,0,0,0h0s0,0,0,0c0,0,0,0,0,0h0s0,0,0,0h0s0,0,0,0h0s0,0,0,0h0s0,0,0,0h0s0,0,0,0h0s0,0,0,0h0s0,0,0,0h0s0,0,0,0h0s0,0,0,0h0s0,0,0,0h0s0,0,0,0h0s0,0,0,0h0s0,0,0,0h0s0,0,0,0h0s0,0,0,0h0s0,0,0,0h0s0,0,0,0c0,0,0,0,0,0,0,0,0,0,0,0,0,0,0,0,0,0h0s0,0,0,0h0s0,0,0,0h0s0,0,0,0h0s0,0,0,0c0,0,0,0,0,0,0,0,0,0,0,0h0s0,0,0,0h0s0,0,0,0c0,0,0,0,0,0h0s0,0,0,0h0s0,0,0,0h0s0,0,0,0h0s0,0,0,0h0s0,0,0,0h0s0,0,0,0h0s0,0,0,0h0s0,0,0,0h0s0,0,0,0h0s0,0,0,0c0,0,0,0,0,0,0,0,0,0,0,0h0s0,0,0,0h0s0,0,0,0h0s0,0,0,0h0s0,0,0,0c0,0,0,0,0,0,0,0,0,0,0,0h0s0,0,0,0h0s0,0,0,0c0,0,0,0,0,0h0s0,0,0,0h0s0,0,0,0h0s0,0,0,0c0,0,0,0,0,0,0,0,0,0,0,0h0s0,0,0,0h0s0,0,0,0h0s0,0,0,0h0s0,0,0,0h0s0,0,0,0h0s0,0,0,0c0,0,0,0,0,0,0,0,0,0,0,0h0s0,0,0,0c0,0,0,0,0,0,0,0,0,0,0,0,0,0,0,0,0,0,0,0,0,0,0,0h0s0,0,0,0h0s0,0,0,0h0s0,0,0,0h0s0,0,0,0h0s0,0,0,0h0s0,0,0,0h0s0,0,0,0h0s0,0,0,0h0s0,0,0,0h0s0,0,0,0h0s0,0,0,0c0,0,0,0,0,0h0s0,0,0,0h0s0,0,0,0h0s0,0,0,0h0s0,0,0,0h0s0,0,0,0c0,0,0,0,0,0h0s0,0,0,0h0s0,0,0,0h0s0,0,0,0c0,0,0,0,0,0h0s0,0,0,0c0,0,0,0,0,0h0s0,0,0,0c0,0,0,0,0,0h0s0,0,0,0c0,0,0,0,0,0,0,0,0,0,0,0h0s0,0,0,0h0s0,0,0,0h0s0,0,0,0h0s0,0,0,0c0,0,0,0,0,0h0s0,0,0,0c0,0,0,0,0,0,0,0,0,0,0,0,0,0,0,0,0,0h0s0,0,0,0c0,0,0,0,0,0h0s0,0,0,0h0s0,0,0,0c0,0,0,0,0,0h0s0,0,0,0h0s0,0,0,0c0,0,0,0,0,0h0s0,0,0,0h0s0,0,0,0h0s0,0,0,0c0,0,0,0,0,0h0s0,0,0,0c0,0,0,0,0,0h0s0,0,0,0h0s0,0,0,0h0s0,0,0,0h0s0,0,0,0h0s0,0,0,0h0s0,0,0,0h0s0,0,0,0h0s0,0,0,0h0s0,0,0,0h0s0,0,0,0h0s0,0,0,0h0s0,0,0,0h0s0,0,0,0h0s0,0,0,0h0s0,0,0,0h0s0,0,0,0h0s0,0,0,0c0,0,0,0,0,0,0,0,0,0,0,0h0s0,0,0,0h0s0,0,0,0h0s0,0,0,0h0s0,0,0,0h0s0,0,0,0h0s0,0,0,0h0s0,0,0,0h0s0,0,0,0h0s0,0,0,0c0,0,0,0,0,0,0,0,0,0,0,0h0s0,0,0,0h0s0,0,0,0h0s0,0,0,0h0s0,0,0,0c0,0,0,0,0,0h0s0,0,0,0h0s0,0,0,0h0s0,0,0,0h0s0,0,0,0h0s0,0,0,0h0s0,0,0,0h0s0,0,0,0h0s0,0,0,0h0s0,0,0,0h0s0,0,0,0h0s0,0,0,0c0,0,0,0,0,0h0s0,0,0,0h0s0,0,0,0c0,0,0,0,0,0,0,0,0,0,0,0h0s0,0,0,0h0s0,0,0,0c0,0,0,0,0,0h0s0,0,0,0h0s0,0,0,0h0s0,0,0,0h0s0,0,0,0h0s0,0,0,0h0s0,0,0,0h0s0,0,0,0h0s0,0,0,0h0s0,0,0,0h0s0,0,0,0h0s0,0,0,0h0s0,0,0,0h0s0,0,0,0h0s0,0,0,0c0,0,0,0,0,0h0s0,0,0,0h0s0,0,0,0h0s0,0,0,0h0s0,0,0,0h0s0,0,0,0h0s0,0,0,0c0,0,0,0,0,0h0s0,0,0,0h0s0,0,0,0c0,0,0,0,0,0,0,0,0,0,0,0h0s0,0,0,0h0s0,0,0,0h0s0,0,0,0h0s0,0,0,0c0,0,0,0,0,0h0s0,0,0,0h0s0,0,0,0h0s0,0,0,0h0s0,0,0,0h0s0,0,0,0h0s0,0,0,0h0s0,0,0,0c0,0,0,0,0,0h0s0,0,0,0c0,0,0,0,0,0h0s0,0,0,0h0s0,0,0,0h0c0,0,0,0,0,0h0s0,0,0,0h0s0,0,0,0h0s0,0,0,0c0,0,0,0,0,0h0s0,0,0,0h0,0s0,0,0,0h0s0,0,0,0h0s0,0,0,0h0s0,0,0,0c0,0,0,0,0,0h0s0,0,0,0h0s0,0,0,0h0s0,0,0,0h0s0,0,0,0h0s0,0,0,0h0s0,0,0,0h0s0,0,0,0h0s0,0,0,0h0,0s0,0,0,0h0s0,0,0,0h0s0,0,0,0c0,0,0,0,0,0h0s0,0,0,0h0s0,0,0,0h0s0,0,0,0h0s0,0,0,0h0,0s0,0,0,0c0,0,0,0,0,0h0s0,0,0,0h0,0s0,0,0,0h0s0,0,0,0c0,0,0,0,0,0h0s0,0,0,0h0s0,0,0,0h0s0,0,0,0h0s0,0,0,0h0s0,0,0,0h0s0,0,0,0h0s0,0,0,0c0,0,0,0,0,0h0s0,0,0,0h0s0,0,0,0h0,0s0,0,0,0c0,0,0,0,0,0h0s0,0,0,0h0s0,0,0,0h0s0,0,0,0h0s0,0,0,0h0s0,0,0,0h0s0,0,0,0h0s0,0,0,0h0s0,0,0,0c0,0,0,0,0,0,0,0,0,0,0,0h0s0,0,0,0h0s0,0,0,0h0s0,0,0,0h0s0,0,0,0c0,0,0,0,0,0,0,0,0,0,0,0h0s0,0,0,0h0s0,0,0,0c0,0,0,0,0,0h0s0,0,0,0c0,0,0,0,0,0,0,0,0,0,0,0,0,0,0,0,0,0h0s0,0,0,0h0s0,0,0,0h0s0,0,0,0c0,0,0,0,0,0h0s0,0,0,0h0s0,0,0,0c0,0,0,0,0,0,0,0,0,0,0,0,0,0,0,0,0,0h0s0,0,0,0h0s0,0,0,0h0s0,0,0,0h0s0,0,0,0h0s0,0,0,0h0s0,0,0,0h0s0,0,0,0h0s0,0,0,0c0,0,0,0,0,0h0s0,0,0,0h0s0,0,0,0h0s0,0,0,0h0s0,0,0,0h0s0,0,0,0c0,0,0,0,0,0h0s0,0,0,0c0,0,0,0,0,0h0s0,0,0,0h0s0,0,0,0h0s0,0,0,0c0,0,0,0,0,0h0s0,0,0,0h0s0,0,0,0h0s0,0,0,0h0s0,0,0,0h0s0,0,0,0h0s0,0,0,0h0,0s0,0,0,0h0s0,0,0,0c0,0,0,0,0,0h0,0s0,0,0,0h0s0,0,0,0c0,0,0,0,0,0,0,0,0,0,0,0h0s0,0,0,0h0s0,0,0,0h0s0,0,0,0h0s0,0,0,0h0s0,0,0,0c0,0,0,0,0,0,0,0,0,0,0,0h0s0,0,0,0h0s0,0,0,0c0,0,0,0,0,0,0,0,0,0,0,0,0,0,0,0,0,0h0s0,0,0,0h0s0,0,0,0h0s0,0,0,0h0s0,0,0,0h0s0,0,0,0h0s0,0,0,0c0,0,0,0,0,0,0,0,0,0,0,0,0,0,0,0,0,0h0s0,0,0,0h0s0,0,0,0c0,0,0,0,0,0h0s0,0,0,0h0s0,0,0,0h0s0,0,0,0h0s0,0,0,0h0s0,0,0,0h0s0,0,0,0c0,0,0,0,0,0h0s0,0,0,0h0s0,0,0,0h0s0,0,0,0h0s0,0,0,0h0s0,0,0,0h0s0,0,0,0h0s0,0,0,0h0s0,0,0,0h0s0,0,0,0h0c0-.1,0-.1,0-.1h0s0,0,0,0h0s0,0,0,0h0s0,0,0,0c0,0,0,0,0,0,0,0,0,0,0,0h0s0,0,0,0c0,0,0,0,0,0h0s0,0,0,0h0s0,0,0,0h0s0,0,0,0h0s0,0,0,0h0s0,0,0,0h0,0s0,0,0,0h0s0,0,0,0h0s0,0,0,0h0s0,0,0,0h0s0,0,0,0h0s0,0,0,0h0s0,0,0,0h0s0,0,0,0h0s0,0,0,0h0s0,0,0,0h0s0,0,0,0h0s0,0,0,0c0,0,0,0,0,0h0s0,0,0,0h0s0,0,0,0c0,0,0,0,0,0h0s0,0,0,0h0s0,0,0,0h0s0,0,0,0c0,0,0,0,0,0h0s0,0,0,0h0s0,0,0,0h0s0,0,0,0h0s0,0,0,0h0s0,0,0,0h0s0,0,0,0h0s0,0,0,0h0s0,0,0,0c0,0,0,0,0,0h0s0,0,0,0h0s0,0,0,0h0s0,0,0,0h0s0,0,0,0c0,0,0,0,0,0,0,0,0,0,0,0h0s0,0,0,0c0,0,0,0,0,0h0s0,0,0,0c0,0,0,0,0,0h0s0,0,0,0h0s0,0,0,0h0s0,0,0,0h0s0,0,0,0h0s0,0,0,0h0s0,0,0,0c0,0,0,0,0,0h0s0,0,0,0h0s0,0,0,0c0,0,0,0,0,0,0,0,0,0,0,0h0s0,0,0,0h0s0,0,0,0h0s0,0,0,0c0,0,0,0,0,0,0,0,0,0,0,0h0s0,0,0,0h0s0,0,0,0h0s0,0,0,0h0s0,0,0,0c0,0,0,0,0,0,0,0,0,0,0,0h0s0,0,0,0c0,0,0,0,0,0h0s0,0,0,0ZM22.2,28.3s0,0,0,0h0s0,0,0,0h0s0,0,0,0h0s0,0,0,0h0s0,0,0,0h0s0,0,0,0c0,0,0,0,0,0h0s0,0,0,0c0,0,0,0,0,0h0s0,0,0,0c0,0,0,0,0,0,0,0,0,0,0,0,0,0,0,0,0,0h0s0,0,0,0c0,0,0,0,0,0h0s0,0,0,0h0s0,0,0,0h0s0,0,0,0h0s0,0,0,0h0s0,0,0,0c0,0,0,0,0,0h0s0,0,0,0c0,0,0,0,0,0h0s0,0,0,0h0s0,0,0,0h0s0,0,0,0c0,0,0,0,0,0h0s0,0,0,0c0,0,0,0,0,0h0s0,0,0,0h0s0,0,0,0c0,0,0,0,0,0h0,0s0,0,0,0h0s0,0,0,0h0s0,0,0,0h0s0,0,0,0h0s0,0,0,0c0,0,0,0,0,0,0,0,0,0,0,0h0s0,0,0,0h0s0,0,0,0h0s0,0,0,0h0s0,0,0,0h0s0,0,0,0h0s0,0,0,0h0s0,0,0,0h0s0,0,0,0h0s0,0,0,0c0,0,0,0,0,0h0s0,0,0,0h0s0,0,0,0h0s0,0,0,0h0s0,0,0,0c0,0,0,0,0,0h0s0,0,0,0c0,0,0,0,0,0,0,0,0,0,0,0h0s0,0,0,0h0s0,0,0,0Z"/>
      <path class="cls-7" d="M34.2,27.9s0,0,0,0c0,0,0,0,0,0,0,0,0-.1,0-.2,0,0,0,0,0,0,0,0,0,0,0,0,0,0,0,0,0,0,0,0,0-.2,0-.3,0,0,0,0,0,0,0,0,0,0,0,0,0,.2.1.3.1.5ZM34.1,28.2s0,0,0,0c0,0,0,0,0,0,0,0,0,0,0,.1,0,.1,0,.2-.2.3,0,0,0,0,0,0s0,0,0,0c0,0,0,0,0,0h0c0-.2,0-.2,0-.3,0,0,0,0,0,0,0,0,0,0,0,0,0,0,0,0,0,0,0,0,0,0,0,0,0,0,0,0,0,0ZM33.8,28.1s0,0,0,0c0,0,0,0,0,0h0s0,0,0,0c0,0,0,0,0,0,0,0,0,0,0,0h0s0,0,0,0c0,0,0,0,0,0h0ZM33.7,28s0,0,0,0c0,0,0,0,0,0,0,0,0,0,0,0,0,0,0,0,0,0h0s0,0,0,0c0,0,0,0,0,0,0,0,0,0,0,0,0,0,0,0,0,0,0,0,0,0,0,0,0,0,0,0,0,0h0s0,0,0,0c0,0,0,0,0,0,0,0,0,0,0,0h0ZM34.4,28.2c0,0,0-.2,0-.3,0,0,0,0,0-.1,0,0,0,0,0,0,0,0,0,0-.1,0,0,0,0,0,0,0,0,0,0,0,0,0,0-.1,0-.3-.1-.4,0,0,0,0,0-.1,0,0,0,0,0,0,0,0,0,0,0,0,0,.1-.1.3-.2.4,0,0,0,.1,0,0,0,0,0,0,0-.1,0,0,0,0,0,0,0,0,0,0,0,0,0,0-.1,0-.2,0,0,0,0,0,0,0,0,0,0,0,0,0,0,0,0,0,0,0,0,0,0,.2,0,.2-.1,0-.3,0-.4,0,0,0,0,0,0,0h0s0,0,0,0c0,0,0,0,0,0,0,0,0,0,0,0,.1,0,.2.1.3.3,0,0,0,0,0,0,0,0,0,0,0,0,0,0,0,0,0,0-.1,0-.1,0-.2,0,0,0,0,0,0,0,0,0,0,0,0,0,0,0,0,0,0,0,0,0,.1.1.2,0,0,0,0,0,0,0,0,0,0,0,0,0,0,0,0,0,0,0,0,0,0,0,0,0,0,0,0,0,0,0,0,0,0,0,0,0,0,0,0,0,0,0,0,0,0,0,0,.1,0,0,0,0,0,0,0,0,0,0,0-.1,0,0,0,0,0,0,0,0,0,0,0,0,0,0,0-.1,0,0,0,0,0,0,0,0,0,0,0,0,0,.1,0,0,0,0,0,0,0,0,0,.1,0,.2,0,0,0,0,0,.2,0,0,0,0,0,.1v.3c0,0,0,0,0,.1,0,0,0,0,0,0,0,0,0,0,0,0,0,0,0,0,.1-.1,0,0,0-.1,0-.2,0,0,0-.2,0-.2,0-.1.1-.3.2-.4,0,0,0,0,0,0,0,0,0,0,0,0,0,0,0-.1,0-.2,0,0,0,0,0,0,0,0,0,0,0,0,0,0,0,0,0,.1,0,.1,0,.3-.2.4,0,0,0,0,0,0,0,0,0,0,0,.1,0,0,0,0,0,0,0,0,0,0,0,0,0,0,0,0,0,0,0,0,0,0,0,.1,0,0,0,0,0,0-.2.2-.2.3-.3.6,0,0,0,0,0,0,0,0,0,0,.1,0,0,0,0,0,0,0,0,0,0,0,0,0,0,0,0-.1,0-.2,0,0,.1-.2.2-.3,0,0,0,0,0,0,0,0,0,.1.1.2,0,0,0,0,0,0,0,0,0,0,0,0-.1,0-.2.1-.4.2,0,0,0,0,0,0h.4c0-.1,0-.1.1-.1,0,0,0,0,0,0,0,0,0-.1,0-.2v-.2c-.2,0-.2,0-.2,0,0,0,0,0,.1-.1,0,0,0,0,0,0,0,0,0,0,0,0,0,0,0,0,0,0,0,0-.1,0-.2,0,0,0,0,0,0,0,0,0,0,0,0,0,0,0,0-.1,0-.2,0,0,0-.1,0-.2h0ZM32.4,29.9s.1,0,.2.1c0,0,0,0,0,0,0,0,0,0,0,0,0,0,0,0,0,0s0,0,0,0c0,0,0,0,0,0,0,0,0,0,0,0,0,0,0,0,0-.1,0,0,0,0,0,0,0,0,0,0,0,0,0,0,0,0,0,0,0,0,0,0-.1,0,0,0-.2,0-.3,0h0s0,0,0,0c0,0,0,0,0,0,0,0,0,0,0,0,0,0,0,0,0,0,0,0,0,0,0,0Z"/>
      <path class="cls-7" d="M31.8,29.1c.1,0,.2.2.2.3,0,0,0,0,0,.1,0,0,0,0-.1.1-.1,0-.2.1-.4.2,0,0,0,0,0,0,0,0,0,0,0,0,0,0,0,0,0,0,0,0,0,0,0,0,0,0,.2,0,.2,0,0,0,.1-.1.2-.1,0,.1,0,.3,0,.4,0,.1-.1.2-.2.3,0,0,.2,0,.3,0,0,0,.1-.1.1-.2,0,0,0-.2,0-.2v-.2s0-.1,0-.1c0,0,0,0,0,0,0,0,0,0,0,0,.1,0,.2-.2.3-.2,0,0,0,0,0,0,0,0,0,0,0,0,0,0,0,0-.1,0,0,0-.2,0-.3,0,0,0,0,0,0,.1,0,0,0,0-.1,0,0-.2-.1-.4-.2-.6,0,0,0,0,0,0,0,0,0,0,0,0,0,0,0,0,0,.1Z"/>
    </g>
  </g>
</svg>