<?xml version="1.0" encoding="UTF-8"?>
<svg xmlns="http://www.w3.org/2000/svg" version="1.1" viewBox="0 0 128 40.9">
  <defs>
    <style>
      .cls-1 {
        fill: #173f69;
        fill-rule: evenodd;
      }
    </style>
  </defs>
  <!-- Generator: Adobe Illustrator 28.7.1, SVG Export Plug-In . SVG Version: 1.2.0 Build 142)  -->
  <g>
    <g id="_图层_1" data-name="图层_1">
      <path class="cls-1" d="M16.1,25.5h0s0,0,0,0l.3-.2h0c0,0-.1.2-.1.2,0,0,0,.1,0,.2,0,0,.1.1.2.1,0,0,.2,0,.3-.1,0,0,.2-.1.2-.2,0,0,0-.1,0-.2,0,0,0,0-.1-.1,0,0-.2,0-.2,0h0c0,0,.2,0,.3,0,0,0,.1,0,.2.1,0,0,0,.1,0,.2,0,0,0,.1,0,.2,0,0,0,.1-.2.2,0,0-.2,0-.2,0,0,0-.2,0-.2,0,0,0-.2-.1-.2-.2,0,0,0,0,0-.1ZM15.8,25.1l-.3-.6h.3c0-.1,0-.1,0-.1,0,0-.1,0-.1.1,0,0,0,0,0,.1v.2c0,0,0,0,0,0,0,0,0,0,0,0h.3c0-.1,0-.2,0-.2,0,0,0,0,0,0,0,0,0,0-.1,0h0s.4-.2.4-.2h0c0,0,0,0-.1.1,0,0,0,0,0,.1h0c0,0,.3,0,.3,0,0,0,0,0,0,0,0,0,0,0,0,0h0c0-.3-.2-.3-.4-.2h0s.3-.2.3-.2l.3.6h0s0,0,0,0c0,0,0,0,0,0,0,0,0,0,0,0l-.6.3s0,0,0,0c0,0,0,0,0,0h0c0,0,0,0,0,0h0ZM15.4,24.2v-.2c0,0,.4-.7.4-.7l-.5.2s0,0,0,0c0,0,0,0,0,0h0s0-.3,0-.3h0s0,0,0,0c0,0,0,0,0,0,0,0,0,0,0,0l.7-.2h0c0,0-.5.8-.5.8l.5-.2s0,0,0,0c0,0,0,0,0-.1h0s.1.3.1.3h0c0,0,0,0-.2,0,0,0,0,0,0,0l-.6.2h0s0,0,0,0c0,0,0,0,0,0h0s0,0,0,0ZM15.1,23.1v-.7c-.1,0,.2,0,.2,0h0c-.2.1-.3.2-.2.3,0,0,0,0,0,0,0,0,0,0,0,0h.7c0-.1,0-.1,0-.2,0,0,0,0,0,0h0c0,0,0,0,0,0v.4c0,0,0,0,0,0h0c0-.1,0-.1,0-.1,0,0,0,0,0,0h-.7c0,.1,0,.2,0,.2,0,0,0,0,0,0,0,0,0,0,.1.1,0,0,.1,0,.2,0h0s-.3,0-.3,0ZM15.3,21.8h0c0-.2,0-.2,0-.3,0,0,0,0-.1,0,0,0,0,0-.1,0,0,0,0,0,0,0,0,0,0,0,0,.1,0,0,0,0,0,0,0,0,0,0,0,0h.3s0,0,0,0ZM14.9,22.1v-.4c0,0,0-.1,0-.2,0,0,0,0,.1,0,0,0,0,0,.1,0,0,0,0,0,0,0,0,0,0,0,0,.2,0,0,0,0,0-.1,0,0,0,0,0,0,0,0,0,0,.1,0,0,0,0,0,.1,0,0,0,0,0,0,0s0,0,0,0c0,0,0,0,0,0h0c.1,0,.2,0,.2,0,0,0,0,0,0,0,0,0,0,0,0,0,0,0-.1,0-.2,0,0,0,0,0-.1,0,0,0,0,0,0,0,0,0,0,0,0,0h0c0,0,.3,0,.3,0,0,0,0,0,0,0,0,0,0,0,0,0h0c0,0,0,0,0,0v.4s0,0,0,0h0c0-.1,0-.1,0-.1,0,0,0,0,0,0h-.7c0,0,0,0,0,0,0,0,0,0,0,0h0c0,0,0,0,0,0ZM14.9,20.7l.4.2v-.3s-.4.1-.4.1h0ZM14.8,20.7h0s.8-.3.8-.3c0,0,0,0,0,0h0s0,0,0,0v.3h0c0,0,0,0,0-.1,0,0,0,0,0,0,0,0,0,0,0,0h-.2c0,0,0,.4,0,.4h.1c0,0,0,0,0,0s0,0,0,0c0,0,0,0,0,0h0s0,0,0,0v.3s0,0,0,0c0,0,0,0,0,0,0,0,0,0,0,0l-.7-.3h0ZM14.8,20.1v-.4s0,0,0,0h0c0,.1,0,.1,0,.1,0,0,0,0,0,0h.7c0,0,0,0,0,0,0,0,0,0,0,0h0c0-.2,0-.2,0-.3,0,0-.1,0-.2-.1h0s.3,0,.3,0v.7c0,0-.1,0-.1,0h0c0,0,0-.1,0-.1,0,0,0,0,0,0h-.7c0,0,0,0,0,0,0,0,0,0,0,0h0c0,0,0,0,0,0ZM15,18.7v-.4c.1,0,.2,0,.2,0h0c0,0,0,.1,0,.1,0,0,0,0,0,0h.5c0,.1,0,.2.1.2,0,0,0,0,.1,0,0,0,0,0,0-.1,0,0,0-.1,0-.2,0,0,0,0-.1-.1h-.4c0-.1,0-.1,0-.1,0,0,0,0,0,0,0,0,0,0,0,0,0,0,0,0,0,0h0s0-.3,0-.3h0s0,0,0,0c0,0,0,0,0,0,0,0,0,0,0,0h.4c0,.1.1.2.2.3,0,0,0,.2,0,.2,0,0,0,.1,0,.2,0,0,0,0-.1,0,0,0,0,0-.1,0h-.5c0-.1,0-.1,0-.1,0,0,0,0,0,0h0c0,0,0,0,0,0ZM15.4,17.5v-.2c0,0,.9-.2.9-.2l-.5-.2s0,0-.1,0c0,0,0,0,0,0h0s.1-.3.1-.3h0s0,0,0,0c0,0,0,0,0,0,0,0,0,0,0,0l.6.3h0s-.9.3-.9.3l.5.2s0,0,.1,0c0,0,0,0,0,0h0s-.1.3-.1.3h0c0,0,0,0,0-.1,0,0,0,0,0,0l-.5-.2h0s0,0,0,0c0,0,0,0,0,0h0s0,0,0,0h0ZM15.9,16.5l.2-.3h0s0,0,0,0c0,0,0,0,0,0,0,0,0,0,0,0l.6.3s0,0,0,0c0,0,0,0,0,0h0c0,0,0,0,0,0l-.2.3h0s0,0,0,0c0,0,0,0,0,0,0,0,0,0,0,0l-.6-.3s0,0,0,0c0,0,0,0,0,0h0c0,0,0,0,0,0ZM16.1,16l.2-.3h0s0,0,0,0c0,0,0,0,0,0s0,0,0,0c0,0,0,0,0,0h0s.6.1.6.1l-.4-.5s0,0,0,0c0,0,0,0,0,0,0,0,0,0,0,0h0s0,0,0,0l.2-.3h0s0,0,0,0c0,0,0,0,0,0,0,0,0,0,0,0l.5.6h0s-.8-.1-.8-.1c0,0,0,0,0,0,0,0,0,0,0,0h0s0,0,0,0ZM16.8,15l.4-.5.2.2h0c0,0-.1,0-.2,0,0,0,0,0-.1,0h-.1c0,.1,0,.1,0,.2,0,0,0,0,0,0l.2.2h0c0,0,0-.1,0-.2,0,0,0,0,0-.1h0s.3.2.3.2h0c0,0,0,0-.1,0,0,0,0,0,0,0h0c0,0,.3.3.3.3,0,0,0,0,0,0s0,0,0,0h0c0-.2,0-.3,0-.5h0s.2.2.2.2l-.5.5h0s0,0,0,0c0,0,0,0,0,0s0,0,0,0l-.5-.4s0,0,0,0c0,0,0,0,0,0h0c0,0,0,0,0,0ZM17.9,14.4h0c0-.1,0-.2,0-.2,0,0,0,0,0-.1,0,0,0,0,0,0,0,0,0,0,0,0,0,0,0,0-.1,0,0,0,0,0,0,0,0,0,0,0,0,0,0,0,.2.2.2.2ZM17.4,14.3l.3-.3c0,0,.1,0,.2,0,0,0,.1,0,.2,0,0,0,0,0,0,0,0,0,0,0,0,.1,0,0,0,.1,0,.1,0,0,0,0,.1,0,0,0,0,0,0,0,0,0,0,0,.1,0,0,0,0,0,.1,0,0,0,0,0,0,0,0,0,0,0,0,0,0,0,0,0,0,0h0c0,0,0,.2,0,.2,0,0,0,0,0,0,0,0,0,0,0,0,0,0,0,0-.1,0,0,0,0,0,0,0,0,0,0,0,0,0,0,0,0,0,0,0h0s.2.3.2.3c0,0,0,0,0,0,0,0,0,0,0,0h0c0,0,0,0,0,0l-.3.3h0s0,0,0,0c0,0,0,0,0,0,0,0,0,0,0,0l-.5-.5s0,0,0,0c0,0,0,0,0,0h0c0,0,0,0,0,0ZM18.6,13.3h0c0,0,0-.1,0-.1l.2.2h0c0,0-.1,0-.2,0,0,0-.1,0-.2,0,0,0,0,0,0,.1,0,0,0,0,0,.1,0,0,0,0,0,0,0,0,0,0,0,0,0,0,0,0,.1,0,0,0,.1,0,.2,0,0,0,0,0,.1,0,0,0,0,0,0,0,0,0,0,.1,0,.2,0,0,0,.1-.1.2,0,0-.2,0-.2,0h0c0,.1,0,.1,0,.1l-.2-.3h0c0,0,.1,0,.2,0,0,0,.1,0,.2,0,0,0,0,0,0-.1,0,0,0,0,0-.1,0,0,0,0,0,0,0,0,0,0,0,0,0,0,0,0-.2,0,0,0-.1,0-.2,0,0,0-.1,0-.2,0,0,0,0-.1,0-.2,0,0,0-.1.1-.2,0,0,0,0,0,0,0,0,0,0,.1,0ZM18.9,13l.3-.2h0s0,0,0,0c0,0,0,0,0,0,0,0,0,0,0,0l.4.5s0,0,0,0c0,0,0,0,0,0h0s0,0,0,0l-.3.2h0s0,0,0,0c0,0,0,0,0,0,0,0,0,0,0,0l-.4-.5s0,0,0,0c0,0,0,0,0,0h0s0,0,0,0ZM19.5,12.6l.6-.3.2.3h0c-.1-.1-.2-.2-.3-.1,0,0,0,0,0,0,0,0,0,0,0,0l.3.6s0,0,0,0c0,0,0,0,0,0h0s0,0,0,0l-.4.2h0s0,0,0,0c0,0,0,0,0,0,0,0,0,0,0,0l-.3-.6s0,0,0,0c0,0,0,0,0,0,0,0,0,0,0,.1,0,0,0,.1,0,.2h0s-.1-.3-.1-.3ZM20.3,12.2h.3c0-.1,0-.1,0-.1h0s0,0,0,0c0,0,0,0,0,0,0,0,0,0,0,0l.3.2v-.3s0,0,0,0c0,0,0,0,0,0,0,0,0,0,0,0h0s0,0,0,0h.3c0-.1,0,0,0,0,0,0,0,0,0,0,0,0,0,0,0,0v.4s0,.3,0,.3c0,0,0,0,0,0,0,0,0,0,0,0h0s0,0,0,0l-.4.2h0s0,0,0,0c0,0,0,0,0,0,0,0,0,0,0,0v-.2c-.1,0-.5-.3-.5-.3,0,0,0,0,0,0,0,0,0,0,0,0h0s0,0,0,0ZM22.1,11.6c0,0-.1,0-.2.1,0,0,0,.2,0,.3,0,.2,0,.2.1.3,0,0,.1,0,.2,0,0,0,0,0,.1,0,0,0,0,0,0-.1,0,0,0-.2,0-.2,0,0,0-.2,0-.2,0,0,0,0-.1-.1,0,0,0,0-.1,0ZM22.1,11.6c.1,0,.3,0,.4.1,0,0,0,.1.1.2,0,0,0,.2,0,.2,0,.1-.1.3-.3.3,0,0-.1,0-.2,0,0,0-.1,0-.2-.1,0,0,0-.1-.1-.2,0,0,0-.2,0-.2,0-.1.1-.3.3-.3h0ZM22.8,11.4h.7c0,0,0,.2,0,.2h0c0,0,0-.2,0-.2,0,0,0,0-.2,0h-.1s0,0,0,0c0,0,0,0,0,0v.3s.1,0,.1,0c0,0,0,0,0,0,0,0,0,0,0-.1h0s0,.4,0,.4h0c0,0,0-.1,0-.1,0,0,0,0-.1,0h0s0,.3,0,.3c0,0,0,0,0,0,0,0,0,0,0,0h0s0,0,0,0h-.4s0,0,0,0h0s0,0,0,0c0,0,0,0,0,0v-.7c0,0,0,0-.1,0,0,0,0,0,0,0h0s0,0,0,0h0ZM24.3,11.3h.7s0,.3,0,.3h0c0-.1,0-.2,0-.2,0,0,0,0-.2,0h-.1s0,0,0,0c0,0,0,0,0,0v.3s0,0,0,0c0,0,0,0,.1,0,0,0,0,0,0-.1h0v.4s0,0,0,0c0,0,0-.1,0-.1,0,0,0,0,0,0h0s0,.3,0,.3c0,0,0,0,0,0s0,0,0,0h0,0s-.4,0-.4,0h0s0,0,0,0c0,0,0,0,0,0,0,0,0,0,0,0v-.7s0,0,0,0,0,0,0,0h0s0,0,0,0ZM25.2,11.4h.4s0,0,0,0h0s0,0,0,0c0,0,0,0,0,0v.7c0,0,0,0,0,0,0,0,0,0,0,0h0s0,0,0,0h-.4s0,0,0,0h0s0,0,0,0c0,0,0,0,0,0v-.7c0,0,0,0,0,0,0,0,0,0,0,0h0s0,0,0,0ZM25.9,11.4h.2s.4.8.4.8v-.5c.1,0,.1,0,0-.1,0,0,0,0,0,0h0s.3,0,.3,0h0s0,0,0,0c0,0,0,0,0,0,0,0,0,0,0,0v.7c-.1,0-.2,0-.2,0l-.4-.8v.5c-.1,0-.1,0,0,.1,0,0,0,0,.1,0h0s-.3,0-.3,0h0s0,0,.1,0c0,0,0,0,0,0v-.6c.1,0,.1,0,.1,0,0,0,0,0,0,0,0,0,0,0,0,0h0s0,0,0,0ZM27.3,11.9l-.3.3h.3c0,0,0-.3,0-.3ZM27.3,11.8h0s0,.9,0,.9c0,0,0,0,0,0h0s0,0,0,0h-.3c0-.1,0-.1,0-.1h0s0,0,0,0c0,0,0,0,0,0,0,0,0,0,0,0v-.2s-.3-.1-.3-.1h0c0,.1,0,.1,0,.1,0,0,0,0,0,0,0,0,0,0,0,0h0s0,0,0,0h-.3c0,0,0-.1,0-.1,0,0,0,0,0,0,0,0,0,0,0,0l.5-.6ZM28,12h.2c0,0,.2.9.2.9l.2-.4s0,0,0-.1c0,0,0,0,0,0h0s.3,0,.3,0h0s0,0,0,0c0,0,0,0,0,0,0,0,0,0,0,0l-.3.6h0s-.2-.9-.2-.9l-.2.5s0,0,0,.1c0,0,0,0,0,0h0s-.3,0-.3,0h0s0,0,.1,0c0,0,0,0,0,0l.2-.5h0s0,0,0,0c0,0,0,0,0,0h0s0,0,0,0h0ZM29.5,12.9h0s0,0,0,0l-.2.3h0c0,0,0-.2,0-.3,0-.1-.1-.2-.2-.2,0,0,0,0,0,0,0,0-.1.1-.2.2,0,0,0,.2,0,.3,0,0,0,.1.1.2,0,0,.1,0,.2,0,0,0,.1,0,.2-.1h0c0,0-.1.1-.2.2,0,0-.2,0-.2,0-.1,0-.2-.2-.2-.4,0-.2.1-.3.2-.4,0,0,.1,0,.2,0,.1,0,.2,0,.3.1,0,0,0,0,0,.1ZM29.9,13.1l.5.4-.2.2h0c0,0,0-.2,0-.2,0,0,0,0,0-.1h-.1c0-.1,0-.1,0-.1,0,0,0,0,0,0l-.2.2h0c0,0,0,0,.1,0,0,0,0,0,.1,0h0s-.2.3-.2.3h0c0,0,0-.1,0-.2,0,0,0,0,0,0h0s-.2.2-.2.2c0,0,0,0,0,0,0,0,0,0,0,0h.1c.1.2.2.1.4,0h0s-.2.3-.2.3l-.6-.4h0s0,0,0,0c0,0,0,0,0,0,0,0,0,0,0,0l.4-.5s0,0,0,0c0,0,0,0,0,0h0s0,0,0,0ZM31.1,14.4l-.4.2.2.2.2-.4ZM31.3,14.2h0s-.4.8-.4.8c0,0,0,0,0,0h0s0,0,0,0l-.2-.2h0s0,0,0,0c0,0,0,0,0,0,0,0,0,0,0,0,0,0,0,0,0,0v-.2c0,0-.2-.2-.2-.2h-.1c0,0,0,0,0,0,0,0,0,0,0,0,0,0,0,0,0,0h0s0,0,0,0l-.2-.2h0s0,0,0,0c0,0,0,0,0,0l.7-.3ZM31.7,14.8v.2c.1,0-.1.8-.1.8l.4-.3s0,0,0,0c0,0,0,0,0,0h0s.2.2.2.2h0s0,0,0,0c0,0,0,0,0,0,0,0,0,0,0,0l-.5.4h0s.2-.9.2-.9l-.4.3s0,0,0,0c0,0,0,0,0,.1h0s-.2-.2-.2-.2h0s0,0,0,0c0,0,0,0,0,0l.5-.4h0s0,0,0,0c0,0,0,0,0,0h0s0,0,0,0h0ZM32.5,16s0,0,0,0c0,0,0,0,0,0l-.6.3s0,0,0,0c0,0,0,0,0,0h0c0,.1,0,.2.1.2,0,0,0,0,.1,0,0,0,.1,0,.2,0,.1,0,.2-.1.2-.2,0,0,0-.1,0-.2h0c0,0,0,0,0,0ZM32.4,15.7l.2.4s0,.1,0,.2c0,0,0,.1,0,.2,0,.1-.2.2-.4.3-.1,0-.2,0-.3,0,0,0,0,0-.1-.1l-.2-.3h0s0,0,0,0c0,0,0,0,0,0,0,0,0,0,0,0l.6-.4s0,0,0,0c0,0,0,0,0,0h0c0,0,0,0,0,0ZM33.2,17.1l.2.6h-.3c0,.1,0,0,0,0,0,0,.1,0,.2-.1,0,0,0,0,0-.1v-.2c0,0,0,0,0,0,0,0,0,0,0,0h-.3c0,.1,0,.2,0,.2,0,0,0,0,0,0,0,0,0,0,.1,0h0s-.4.2-.4.2h0c0,0,0,0,.1-.1,0,0,0,0,0-.1h0c0,0-.3,0-.3,0,0,0,0,0,0,0,0,0,0,0,0,0h0c0,.3.2.3.3.3h0s-.3.1-.3.1l-.3-.7h0s0,0,0,0c0,0,0,0,0,0,0,0,0,0,0,0l.6-.2s0,0,0,0c0,0,0,0,0,0h0c0,0,0,0,0,0h0ZM33.6,18.7h0s0,0,0,0h-.3c0,.1,0,0,0,0,0,0,.2,0,.2-.1,0,0,0-.1,0-.2,0,0,0-.1-.1-.1,0,0-.2,0-.3,0-.1,0-.2,0-.3.2,0,0,0,.1,0,.2,0,0,0,.1.1.2,0,0,.1,0,.2,0h0c0,0-.2,0-.3,0,0,0-.1-.1-.1-.2,0,0,0-.1,0-.2,0,0,0-.1.1-.2,0,0,.1,0,.2-.1,0,0,.2,0,.2,0,0,0,.1,0,.2,0,0,0,0,.1.1.2,0,0,0,0,0,.1,0,0,0,0,0,.1ZM33.8,19.5c0,0,0-.1-.1-.2,0,0-.2,0-.3,0-.2,0-.3,0-.3.1,0,0,0,.1,0,.2,0,0,0,0,0,.1,0,0,0,0,.1,0,0,0,.1,0,.2,0,0,0,.2,0,.2,0,0,0,0,0,.1-.1,0,0,0,0,0-.1ZM33.8,19.5c0,.1,0,.3-.2.4,0,0-.1,0-.2,0,0,0-.2,0-.2,0-.1,0-.2-.2-.3-.3,0,0,0-.1,0-.2,0,0,0-.1.1-.2,0,0,.1,0,.2,0,0,0,.2,0,.2,0,0,0,.1,0,.2.1,0,0,0,.1,0,.2ZM33.9,20.2v.2s-.7.5-.7.5h.5s0,0,.1,0c0,0,0,0,0,0h0s0,.3,0,.3h0s0,0,0,0c0,0,0,0,0,0,0,0,0,0,0,0h-.7s0,0,0,0l.7-.5h-.5s0,0-.1,0c0,0,0,0,0,.1h0s0-.3,0-.3h0s0,0,0,0c0,0,0,0,0,0h.6s0,0,0,0c0,0,0,0,0,0,0,0,0,0,0,0h0s0,0,0,0h0ZM33.8,21.8c0,0,0-.1,0-.2,0,0-.2,0-.3,0-.2,0-.3,0-.3,0,0,0,0,0-.1.2,0,0,0,0,0,.1,0,0,0,0,.1.1,0,0,.1,0,.2,0,.1,0,.2,0,.2,0,0,0,.1,0,.1,0,0,0,0,0,0-.1h0ZM33.9,21.8c0,.1-.1.3-.3.3,0,0-.2,0-.2,0,0,0-.2,0-.2,0,0,0-.1,0-.1-.2,0,0,0-.1,0-.2,0,0,0-.1,0-.2,0,0,.1-.1.2-.1,0,0,.2,0,.2,0,0,0,.2,0,.2,0,0,0,.1,0,.1.2,0,0,0,.1,0,.2ZM33.8,22.5v.3c0,0-.8,0-.8,0l.6.4v.3c0,0-.1,0-.1,0h0c0,0,0-.1,0-.1s0,0,0,0l-.7-.2s0,0,0,0c0,0,0,0,0,0h0c0,0,0,0,0,0v-.4c0,0,.1,0,.1,0h0c0,0,0,.1,0,.1,0,0,0,0,0,0l.7.2-.7-.5h0s.9-.2.9-.2h-.6c0-.2,0-.2,0-.1,0,0,0,0,0,0,0,0,0,0,0,0h0s0-.3,0-.3h0c0,0,0,.1,0,.1,0,0,0,0,0,0h.6c0,.1,0,.1,0,.1,0,0,0,0,0,0h0c0,0,0,0,0,0h0ZM33.5,23.8v.4c-.1,0-.2,0-.2,0h0c0,0,0-.1,0-.1,0,0,0,0,0,0l-.6-.2s0,0,0,0c0,0,0,0,0,0h0c0,0,0,0,0,0v-.4c.1,0,.2,0,.2,0h0c0,0,0,.1,0,.1,0,0,0,0,0,0l.6.2s0,0,0,0c0,0,0,0,0,0h0c0,0,0,0,0,0h0ZM32.9,24.9h0c0,0,0,.1,0,.1h-.3c0-.1,0-.2,0-.2,0,0,.2,0,.2,0,0,0,.1,0,.2-.1,0,0,0-.1,0-.2,0,0-.1-.1-.3-.2,0,0-.2,0-.3,0,0,0-.1,0-.2.1,0,0,0,.1,0,.2,0,0,0,.1.1.2h0c0,0-.1,0-.2-.2,0,0,0-.2,0-.2,0-.1.2-.2.3-.2,0,0,.2,0,.2,0,0,0,.1,0,.2.2,0,0,0,.1,0,.2,0,0,0,.1,0,.2,0,0,0,0,0,0,0,0,0,0-.1,0ZM32.5,25.7h0c0,0,0,.1,0,.1l-.3-.2h0c0,0,.2,0,.2,0,0,0,.1,0,.1-.1,0,0,0,0,0-.1,0,0,0,0,0,0,0,0,0,0,0,0,0,0,0,0,0,0,0,0,0,0-.1,0,0,0,0,.1-.2.1,0,0,0,0-.1,0,0,0,0,0-.1,0,0,0-.1,0-.1-.2,0,0,0-.2,0-.2,0,0,.1-.1.2-.2h0c0,0,0-.1,0-.1l.3.2h0c0,0-.2,0-.2,0,0,0-.1,0-.2.1,0,0,0,0,0,.1,0,0,0,0,0,.1,0,0,0,0,0,0,0,0,0,0,0,0,0,0,0,0,.1-.1,0,0,.1,0,.2-.1,0,0,.1,0,.2,0,0,0,.1,0,.1.2,0,0,0,.1,0,.2,0,0,0,0,0,0,0,0,0,0-.1,0h0Z"/>
      <path class="cls-1" d="M17.1,13.6c-1.9,1.9-3,4.5-3,7.3,0,2.8,1.1,5.4,3,7.3,1.9,1.9,4.5,3,7.2,3,2.8,0,5.4-1.1,7.2-3,1.9-1.9,3-4.5,3-7.3,0-2.8-1.1-5.4-3-7.3-1.9-1.9-4.5-3-7.2-3-2.7,0-5.3,1.1-7.2,3ZM17,28.2c-1.9-2-3-4.6-3-7.4,0-2.9,1.2-5.5,3-7.4,1.9-2,4.6-3,7.3-3,2.9,0,5.4,1.2,7.3,3,1.9,2,3,4.6,3,7.4,0,2.9-1.2,5.5-3,7.4-1.9,2-4.6,3-7.3,3-2.9,0-5.4-1.2-7.3-3Z"/>
      <path class="cls-1" d="M26.9,20s0,0,0,0c0,0,.1,0,.1,0,0,0,0,0-.1,0ZM26,19.4s0,0,0,0c0,0,0,0,0,0,0,0,0,0,0,0s0,0,0,0c0,0,0,0,0,0h0ZM23.1,20.7s0,0,0,0c0,0,0,0,0,0,0,0,0,0,0,0,0,0,0,0,0,0,0,0,0,0,0,0h0s0,0,0,0ZM26.6,19.6s0,0,0,0c0,0,0,0,0,0,0,0,0,0,0,0,0,0,0,0,0,0,0,0,0,0,0,0h0ZM25.9,19.7h0s0,0-.1,0c0,0-.1,0-.1,0,0,0,.1,0,.1,0,0,0,.1-.1.1-.1ZM25.9,20h0s0,0,0-.1c0,0,0,0,0,.1ZM26.9,19.8s0,0,0,0,0,0,0,0c0,0,0,0,0,0,0,0,0,0,0,0,0,0,0,0,0,0,0,0,0,0,0,0ZM25.9,20s0,0,0,0c0,0-.1,0-.1,0,0,0,.1,0,.1,0,0,0,0,0,0,0,0,0,0,0,0,0ZM25.8,19.9h0c0,.1,0,.1,0,.1,0,0,0,0,0,0,0,0,.1-.2.1-.2,0,0,0,0,0,0h0ZM26.4,20.1s0,0,.1,0c0,0,0-.1,0-.1,0,0-.1.1-.2.2h0ZM25.5,18.9s.1-.1.2,0c0,0,0,.2,0,.2,0,0,0,0,0,0,0,0,0,0-.1,0,0,0,0,0,0,0ZM31.5,19.2h0s0,0,0,0c0,0,0,0,0,0,0,0-.2,0-.3,0,0,0-.1,0-.1,0,0,0-.5-.3-.6-.3,0,0-.1,0-.1,0,0,0,0,0,0,0,0,0,0,0-.1,0,0,0,0,0-.1,0,0,0,0,0-.1,0,0,0,0,0-.1-.1s0,0-.1,0c0,0-.4.1-.5.1-.1,0-.8.2-.9.2,0,0-.2,0-.2,0,0,0-.5.5-.6.5,0,0,0,0,0,0,0,0,0,0,0,0,0,0,0,0,0,0,0,0,0,0,0,0,0,0-.1,0-.2,0,0,0,0,0-.1,0h-.1c0,.1,0,.2,0,.2,0,0,0,0,0,0,0,0,0,.1-.1.2,0,0,0,0,0,0,0,0,0-.1-.1-.2,0,0,0,0,0,0h0s0,.1,0,.1c0,0,0,.1,0,.1,0,0,0,0,0,0,0,0,0,0,0,0,0,0-.1-.1-.2-.2,0,0,0-.1-.1-.2h0c0,0,0,0,0,.1,0,0,0,0,0,0s0,0,0,0c0,0-.1.1-.2.2,0,0,0,0,0,0,0,0-.1,0-.1-.2,0,0-.1-.2-.1-.2h0s0,0,0,0c0,0,0,0,0,0,0,0,0,0,0,0,0,0,0,0,0,0,0,0,0,0,0,0,0,0-.2.2-.3.2h0c0,0,0,0,0,0,0,0,0,0,0,0,0,0,.2,0,.2-.2,0,0,.2-.2.2-.2,0,0,.1,0,.1,0,0,0,0,0,0,0,0,0,0,0,0,0,0,0,0,0,.1,0,0,0,0,0,0,0s0,0,0,0c0,0,0,0,0,0,0,0,0,0,0,0,0,0,0,0,0,0,0,0,0,0,0,0s0,0,.1,0c0,0,0,0,0,0h0s0-.1,0-.1c0,0,0,0-.1,0s0,0,0,0c0,0,0,0,0,0,0,0,0,0-.1,0,0,0,0,0-.1,0,0,0,0,0,0,0,0,0,0,0,.1,0,0,0,0,0,0,0,0,0,0,0,0,0,0,0,0,0,0,0,0,0,0,0,0,0h-.1s-.1,0-.1,0c0,0,0,0,0,0h0s0,0,0,0,0,0,0,0c0,0,0,0,0,0,0,0,0,0,0,0s0,0,0,0,0,0,0,0,0,0,0,0c0,0,0,0,0,0,0,0,0,0,0,0,0,0,0,0,0,0,0,0,.1,0,.1,0,0,0,.1,0,.1,0h0s0,0,.1,0c0,0,.1,0,.1,0,0,0,0,0,.1,0h.1s0-.5-.3-.7c-.3-.2-.6-.3-.9-.3-.3,0-.3-.4-.3-.4,0,0,0,0,0,0,0,0,0,.3.3.4.2,0,.6,0,.8.2.2.1.4.4.5.6,0,.2,0,.3,0,.3,0,0,.1,0,.1.1,0,0,.2,0,.3,0,0,0,.3,0,.3,0,0,0,.2-.1.2-.1,0,0,.2-.1.2-.2,0,0,.2-.2.2-.2,0,0,.1,0,.1-.1,0,0,.1,0,.2,0,0,0,.3,0,.3,0,0,0,0,0,.2,0,0,0,.3,0,.3,0,0,0,.4-.1.4-.1,0,0,.3,0,.3,0s.1,0,.2,0c0,0,.1,0,.2.1s.1,0,.1,0,0,0,.2,0c0,0,.2,0,.5.2.3.1.6.2.5.3ZM27,20.3c0,.2,0,.4,0,.4,0-.3-.1-.5-.1-.5,0,0,.1-.2.1-.2v.2s0,0,0,0ZM26.7,21.1s0,0,0,0c0,0,0,0,0,0s0,0,0,0c0,0,0,0,0,0ZM26.8,22.6s0,0-.1,0c0,0,0,0-.1,0,0,0-.2,0-.2,0,0,0,0-.2.2-.2.2,0,.2.2.2.2ZM26.7,22.8s0,0,0,0c0,0-.1-.1-.1-.1,0,0,0,0,.1,0,0,0,0,0,0,0,0,0,0,0,0,0ZM26.5,20.2c.1.2.1.4.1.4,0-.2-.2-.4-.2-.4,0,0,0-.2,0,0h0ZM26,21.1c-.3,0-.3-.4-.3-.4,0,0,.1,0,.2,0,0,0,.1,0,.2,0,0,0,0,0,.1.1,0,0,.3,0,.3,0,0,.1-.2.3-.5.2h0ZM26.2,21.2s0,0,0,0,0,0,0,0h0s0,0,0,0h0ZM25.7,21.2s0,0,0,0,0,0,0,0c0,0,0,0,0,0,0,0,0,0,0,0h0ZM26.3,22.5s0-.3-.3-.5c-.2-.1-.4,0-.4,0,0,0,0,0,0-.1,0,0,.9-.1.8.7ZM25.8,23.1c-.2,0-.3-.3-.3-.3,0,0,.2.2.3.2,0,0,.2,0,.2,0,0,0,.2,0,.2,0,0,0,0,.1-.3,0h0ZM26.2,25c.2.4.4.6.8.9,0,0-.7-.3-1.1-.9-.4-.6-.5-1.1-.5-1.2v-.3c0,0,.2.6.3.7,0,0-.1-.5-.1-.8,0,0,.1.8.3,1,0,0-.2-.6-.1-1.1,0,0,0,1,.5,1.6ZM26.2,27.5c-.9.3-1.9.3-2.9.2.6.1,1.2.2,1.8.2-.7,0-1.3,0-2,0,.9.2,1.8.2,2.8.2-3.9.5-6.9-.8-8.8-4.6.8,1.7,2,2.8,3.5,3.6-.6-.3-1.1-.7-1.6-1.2-.3-.3-.6-.6-.9-.9,1,1.1,2.3,2,3.8,2.5,1.3.3,2.8.3,4.3-.3.2,0,.4-.2.6-.2-.3.2-.6.3-.9.4-1,.4-2,.5-2.9.4,1,.2,2.1.2,3.2,0h0ZM22.1,24.9s.1-.1.2-.1c.1,0,.2.2.2.2,0,0-.1,0-.2,0,0,0-.2-.1-.2,0ZM22.1,23.7h0s0,0,0,0c0,0,0,0,0,0,0,0,0,0,0,0h0c0,.2.3.5.3.5,0,0,0,0,0,0-.3-.2-.4-.6-.4-.6ZM22.1,23s0,0,0,0c0,0,0,0,0,0,0,0,0,0,0,0,0,0,0,0,0,0s0,0,0,0,0,0,0,0c0,0,0,0,0,0,0,0,0,0,0,0,0,0,0,0,0,0s0,0,0,0c0,0,0,0,0,0s0,0,0,0c0,0,0,0,0,0,0,0,0,0,.1,0,0,0,0,0,0,0,0,0,0,0,0,0,0,0,0,0,0,0,0,0,0,0,0,0,0,0,0,0,0,0,0,0,0,0,0,0h0s0,0,0,0c0,0,0,0,0,0,0,0,0,0,0,0,0,0,0,0,0,0,0,0,0,0,0,0,0,0,0,0,0,0,0,0,0,0,0,0,0,0,0,0,0,0h0c0,0,0,0,0,0s0,0,0,0,0,0,0,0c0,0,0,0,0,0,0,0,0,0,0,0s0,0,0,0c0,0,0,0,0,0,0,0,0,0,0,0,0,0,0,0,0,0,0,0,0,0,0,0h0ZM21.7,22.4c.3-.2.3-.3.3-.3-.1.2-.3.3-.3.3,0,0,0,0,0,0,0,0,.1,0,.3-.1.1,0,.1-.2.1-.2,0,0,0,0,0,0,0,0,0,0,0,0h0s0,0,0,0,0,0,0,0c0,0,0,0,0,0,0,0,0,0,0,.2,0,.2-.2.3-.2.3h-.1c.2-.3.3-.5.3-.5,0,.2-.3.4-.3.4,0,0,0,0,0,0h0ZM21.4,22.5h0c.2-.2.3-.6.3-.6,0,.2-.2.4-.3.5h0c.2-.1.3-.4.3-.4-.2.3-.3.3-.3.3,0,0,0,0,0,0,.3-.2.4-.4.4-.4-.2.3-.4.3-.4.3,0,0,0,0,0-.1,0,0,.1,0,.3,0s.2-.2.2-.2c0,0,0,0,0,0,0,0,0,0,0,0s0,0,0,0h0s.1,0,.2,0c0,0,.1,0,.1,0,0,0,0,.1-.2,0,0,0-.1,0-.2-.1,0,.5-.3.6-.3.6ZM21.1,22.6s0,0,0,0c0,0-.1,0-.1,0,0,0,0,0,0-.1h0s0,0,0,0h0s0,0,0,0c0,0,0,0,0,.1,0,0,0,0,0,0ZM20.9,23c-.2,0-.5.2-.5.3,0,0-.3.2-.3.2,0-.1.1-.2.2-.3,0,0,.2-.2.3-.2,0,0,.1,0,.2-.1,0,0,.2,0,.2,0,0,0,0,0,0,0ZM19.7,22.9s0,0,0,0,.1,0,.2,0c0,0,.2,0,.2-.1,0,0,0,0,0,0,0,0,0,0,.1,0,0,0,0,0,.1,0,0,0-.1.2-.3.2-.1,0-.3,0-.4-.1ZM20.1,21.6c.1.1.2.1.3.2,0,0,.2,0,.2,0,.3,0,.4-.1.4-.1,0,0,0,0,0,0,0,0,.1,0,.1,0,0,0,0,.2-.5.2-.5,0-.5-.4-.5-.4ZM20.6,21.6s0,.1-.1.1c-.1,0-.3,0-.3,0,0,0,.2,0,.2,0,0,0,0,0,.1,0,0,0,0,0,0,0h0ZM19.8,20.6c-.1-.2,0-.5-.2-.8-.2-.3-.5-.4-.9-.9-.4-.5,0-1,0-1h0c0,.2,0,.5,0,.8.1.3.4.4.6.6.3.2.5.5.6.8,0,.3,0,.4.2.5,0,0,.2,0,.3,0,0,0,.2,0,.3.1,0,0-.2.2-.3.3-.2,0-.4-.2-.6-.4ZM19.5,21c-.2-.1,0-.5,0-.5,0,.1,0,.2,0,.4,0,0,.2.1.3.1,0,0,.2.1.2.1-.2,0-.4,0-.6-.1ZM19.5,21.8c-.2-.1-.2-.4-.3-.7-.1-.3-.4-.4-.6-.7-.2-.3,0-.5,0-.5,0,0,0,0,0,.2s.1.3.3.4c.2.1.4.4.5.6.1.2.1.4.1.4,0,0,0,.1,0,.2,0,0,.1,0,.1,0,0,0,0,0,0,.1,0,0,0,0,.1,0-.1,0-.2,0-.4,0h0ZM20.2,19.2c-.3-.4,0-.8,0-.8h0c0,.4,0,.5.3.8.3.3.4.4.4.5,0,0,.2.2.2.3,0,0,0,.2-.1.2,0,0,0,0,0,0,0,0-.1,0-.2,0,0-.4-.3-.6-.6-.9ZM21.3,19.7s0,0,0,0c0,0,0,0,0,0,0,0,0,0,0,0s0,0,0,0c0,0,0,0,0,0ZM21.3,19.1c0,0,.1,0,.1,0,0,0,0,0,0,0,0,0,0,0,0,0,0,0,0,0,0,0ZM21.3,17.6s-.1,0-.2,0c0,0,0-.3,0-.4s0-.3,0-.5c0-.2,0-.4,0-.4,0,0,0,.2,0,.3,0,.1.1.2.2.3,0,.2,0,.3,0,.4,0,0,0,.2.1.2,0,0,.1,0,.1,0h0s.8-.7,1.7-.3c.3.1.5.3.6.6.2.3,0,.5,0,.5,0,0-.1.3,0,.2,0,0,0-.1,0-.1,0,0,0,.1,0,0,0,0,0-.3,0-.2,0,0,0,.1,0,.1,0,0,0,0,0-.1,0,0,0-.1,0-.2,0-.1,0-.6-.5-.6-.4,0-.4.5-.4.5,0,0,0,0,0,0,0,0,0,0,0,0,0,0,0,0,0,0,0,0,0,0-.1,0,0,0,0,0,0,0,0,0,0-.1,0-.1,0,.1,0,.2,0,.2,0,0-.1,0-.1,0s0,0,0,0c0,0,0,0,0,0,0,0,.1-.2.3-.3.2,0,.3-.1.4-.1,0,0,.1,0,0,0s-.3,0-.6.1c-.2.1-.3.2-.4.3,0,.1-.1.2-.1.2,0,0,0,0,0,0,0,0,0,0,0,0s0-.1,0-.1c0,0,0,0,0,0,0,0,0,0-.1,0ZM21.3,16.4s0,0,0,0c0,0,0,0,0,0,0,0,0,0,0,0,0,0,0,0,0,0,0-.1-.1-.2-.1-.2h0ZM21.5,16.8s0,0,0,0,0,0,0,0c0,0,0,.2.2.2,0,0,0,0,0,0h0s0,0,0,0c0,0,0,0-.1,0,0,0-.2-.1-.2-.3,0,0,0,0,0,0ZM21.5,15s.1.1.2.4c0,0-.1-.2-.1-.2,0,0,0-.1,0-.2ZM22,16.9s0,0,0,0c0,0,0,0,0,0,0,0,0,0-.1,0,0,0,0,0-.1,0,0,0,0-.1,0-.2,0,0,0-.1,0-.2,0,0,.1.2.3.2,0,0,.1,0,.2.1ZM21.9,16.3c.1,0,.1-.1.1-.1,0,0,0,0,0,0,0,0,.2.2,0,.4-.1.2-.3,0-.4,0,0,0-.2-.3-.2-.7,0,0,0,.1,0,.2,0,0,0,.3.3.3ZM22.1,14.5c0-.2,0-.3,0-.3,0,0,0,0,0,0,0,0,0,.2,0,.4,0,.1.1.4.2.5s.1.3.1.3c0,0-.1,0-.1,0,0,0,0,0,0,0,0-.1,0-.3-.1-.4,0-.1-.1-.4,0-.6ZM22.6,16.4s0,0,0,0c0,0,0,0,.1,0,0,0,.1,0,.1,0,0,.2-.3.2-.3.2-.2,0-.3-.2-.3-.2,0-.2.1-.3.1-.3,0,.3.2.3.2.3ZM22.9,15.5h0c0,.2,0,.4.1.5,0,.1,0,.2,0,.2,0,0,0,0,0,0s0,0,0,0c0,0,0-.2,0-.4s0-.4,0-.4ZM23.2,17s0,0,0,0c0,0,0,.1,0,.1,0,0-.1,0-.1,0,0,0,0,0,0,0ZM23.2,16.2s0,0,0,0c0,0,0,0,0,0,0,0,0,.2.1.3,0,.2.1.3.1.3h0s0,0,0,0c0,0,0,0,0,0,0,0,0-.2-.1-.3,0-.1,0-.2,0-.2h0ZM23.3,15.6c0,0,0,.1,0,.1,0,0,0,0,0,0s0-.2,0-.2c0,0,0,0,.1.1h0ZM23.6,16.9s0,0,0-.1c0,0,0,.1.1.2,0,0,0,0,0,.1,0,.1,0,.2,0,.3,0,0,0,.1,0,.2,0,0,0,0,0,0,0-.1-.1-.3-.2-.4,0-.1,0-.2,0-.3ZM23.7,16.4c.2.2.3.2.3.2,0,0,0,0,0,0h0c0,.1,0,.1-.1.1-.1,0-.2-.2-.3-.3,0,0-.1-.2-.2-.2,0,0,0,0,.2.2h0ZM24.3,17.2s0,.1,0,.2c0,0,0,0,0,0,0,0,0,0,0,0,0,0,0,0-.1,0,0,0,0,0,0,0,0,0,.1,0,.2,0,0,0,0,0,.2,0h0ZM24.2,16.4h0s0,0,0,0h0s0,0,0,0ZM24.4,16.9s0,0,0,0c0,0,0,0,0,0,0,0-.2.1-.3-.5,0,0,0,.2.2.4ZM24.4,16.5c0,0,.2.1.2.1h0c0,.1-.1.1-.1.1,0,0,0-.2,0-.2,0,0,0,0,0,0ZM24,19.2c.2,0,.2,0,.3,0,0,0,0,0,0,0,0,0,0,0-.1,0,0,0-.1,0-.2,0,0,0-.2,0-.3-.2,0,0,0,.1.3.1h0ZM24.1,19.1s0,0,.1,0h0s0,0,0,0c0,0,0,0,0,0-.2,0-.4,0-.5-.1h0c.1,0,.2,0,.4,0ZM24,18.6s.2,0,.2,0c0,0,0,0,0,.1,0,0,0,0,0,0,0,0,0,0,0,0h0s-.1,0-.1,0c0,0,0,0,0,0,0,0,.1,0,.2,0ZM24,17.9c0,0,0-.1,0-.2h0s0,0,0,0c0,0,0,0,0,.2,0,0,0,0,0,0,0,0,0,0-.1,0ZM24,18.4h0s0,0,0,0c0,0,0,.1,0,.2h0s-.2,0-.2,0c0,0,0,0,0-.2h0s0,0,0,0ZM24.6,19.8c0,0,0,0,0,.1,0,0,0,0,0,0,0,0,0,0,0-.1,0,0,0,0-.1,0h0s0,0,0,.1c0,0,0,0,0,0,0,0,0,0,0,0h0s0,0,0,0c0,0,0,0-.1,0,0,0-.1,0-.2,0,0,0-.1,0-.2,0,0,0-.1,0-.2,0,0,0,0,0,0,0,0,0,0,0,0,0,0,0,0,0-.1,0,0,0,0,0,0-.1,0,0,0-.1,0-.2,0,0,0-.1,0-.2,0,0,0,0,0-.1,0,0,0,0,0,0h0s0,0,.1,0c0,0,.1,0,.2-.1,0,0,0,0,0,0,0,0,0,0,.1,0,0,0,.1,0,.2,0h0s.1,0,.1,0c0,0,0,0,0,0,0,0,0,0,0,0,0,0,0,0,.1,0ZM24.8,16.8s0,0,0,0,0,0,0,0c0,0,0,0,0,0,0,0,0,0,0,0,0,0,0,0,0,0,0,0,0,0,0,0ZM24.8,17s0,0,0,0c0,0,0,0,0,0,0,0,0,0,0,0,0,0,0,0,0,0,0,0,0,0,0,0,0,0,0,0,0,0s0,0,0,0c0,0,0,0,0,0,0,0,0,0,0,0,0,0,0,0,0,0h0s0,0,0,0ZM24.8,20.3s0,0,0,0c0,0,0,0,0,.1,0,0,0,0,0,0,0,0,0,0,0,0,0,0,0,0,0,0,0,0,0,0,0,0,0,0,0,0,0,0,0,0-.1-.2-.2-.2,0,0,0-.1,0-.1,0,0,.1,0,.2,0,0,0,0,0,0,0,0,0,0,0,0,0,0,0,0,0,.1,0,0,0,0,0,0,0,0,0,0,0,0,0,0,0,0,0,0,0,0,0,0,0,0,0s0,0,0,0c0,0,0,0,0,0h0ZM24.9,21.6c0,0-.2.4-.7.4s-.7,0-.9-.3c-.1-.2,0-.9,0-.9v-.3c0,0-.1-.3-.1-.4h0c0,0,.2.1.2.2,0,0,0-.2,0-.2,0,0,0,0,0,0,0,0,0,.1,0,.2,0,0,0,0,0,.1,0,0,0,0,.1,0,0,0,0,0,0,0,0,0,0,0,0,0,0,0,0,0,.1,0,0,0,.2,0,.2,0,0,0,.2,0,.2,0h0s0,0,.1,0c0,0,0,.1,0,.1,0,0,0,0,0,0,0,0,0,0,0,.1,0,0,0,.2,0,.2,0,0,0,.1,0,.2,0,0-.1.2-.4.2s-.4,0-.5-.1c0,0,0-.2,0-.2,0,0,0,0,0,0,0,0,0,.1,0,.2,0,0,0,.3.2.3s.2,0,.2,0c0,0,0,.2,0,.2,0,0,0,0,.1,0,0,0,.1,0,.1,0s0,0,0,0c0,0,0,0,0,0,0,0,0,0,0,0,0,0,0,0-.1,0,0,0,0-.1,0-.2,0,0,0,0,0,0,0,0,0,0,0,.2,0,0,0,0,0-.1,0,0,0,0,0,0s0,0,0,0c0,0,0,0,0,0,0,0,0,0,0,0,0,0,.2,0,.3-.4,0,0,0,.1,0,.4,0,0,0-.1,0-.3,0-.2,0-.3,0-.4s0-.1,0-.1c0,0,.2.1.3.2,0,.1,0,.6,0,.7h0ZM23.6,25.1c0,0,0-.2-.1-.3,0,0,0,.1.2.2.1,0,.3,0,.3,0,0,.2.2.4.7.7.5.4,1.2.6,1.2.6,0,0-.4,0-1.3-.5-.9-.5-1-.7-1-.7h0ZM23,25.7s-.2-.1-.2-.2.1,0,.2,0c0,0,.3.3.6.4.6.2,1,.3,1,.3,0,0-.3,0-1.3-.3-.4-.1-.6-.3-.8-.4,0,0,0,0,.1,0h.1s.2.2.3.2ZM22.5,22.8s-.1,0-.1,0c0,0,0,0,0,0,0,0,0,0,0,0,0,0,.1,0,.1,0,0,0,0,0,0,0,0,0,0,0,0,0,0,0,0,0,0,0,0,0,0,0,0,0,0,0,0,0,0,0,0,0,0,0,0,0,0,0,.1,0,.1,0,0,0,0,0,0,.1,0,0,0,0,.1,0,0,0,.2-.2.2-.2,0,0,0,0,0,0,0,0,0,0,0,0h0s-.1.3-.2.3c0,0-.1,0-.2,0,0,0-.1,0-.2-.1ZM22.3,23.2c.1,0,.2.1.2.2,0,0,0,0,0,0,0,0,0,0,0,0,0,0,0,0-.1,0,0,0,0,0,0,0,0,0,0,0,0,0,0,0,0,0,0,0,0,0,0,0,0,0,0,0,0,0,0,0,0,0,0-.1.2-.1ZM23.1,22.4c0,0,0,0,0,.1,0,0,0,0-.1,0,0,0,0,0,0,0,0,0,0,0,.1,0,0,0,.1-.1.1-.1ZM22.3,22c0,0,.1,0,.1,0,0,0,0,0-.2,0s-.1-.1-.1-.1c0,0,0,0,.2,0h0ZM22.2,21.9s0,0,0,0c0,0,0,0,0,0,0,0,0,0,0,0,0,0,0,0,0,0,0,0,0,0,0,0h0s-.2,0-.2,0c0,0,0,0,0,0,0,0,0,0,0,0ZM21.3,21.6s.1,0,.2,0c0,0,0,0,0,0,0,0-.2,0-.2,0,0,0,0,0,0,0ZM21.3,21.4s0,0,0-.1h0s0,0,0,0c0,0,0,0,0,0,0,0,0,0,0,0,0,0,0,.1-.2.1,0,0-.1,0,0,0ZM21.6,19.3s.1,0,.2,0c0,0,.2.1.2.1,0,0,0,0,0,0,0,0,0,.1,0,.1,0,0,0-.2-.2-.2,0,0-.2,0-.2.1,0,0,0-.2,0-.2.2,0,.3-.2.3-.2ZM21.4,19.3s0,0,0,0c0,0-.1,0,0,0,0,0,0,0,0,0h0ZM22.7,19.1s-.5.5-1.2-.3c0,0,.1.1.3.2,0,0-.4-.3-.4-1,0,0,.1.6.5.9.4.3.7.2.8.2ZM22.9,18.1c-.4,0-.4-.4-.4-.4,0,0,.1.1.2.1,0,0,.2,0,.3,0,0,0,.2,0,.2,0,0,0,.2,0,.2,0,0,0,0,.2-.5.2h0ZM23.2,19c0,0-.1,0-.1,0,0,0,0,0,.2,0s.3,0,.3.2c0,0-.1,0-.1,0,0,0,0-.2-.2-.2ZM23.2,19.3s0,0,0,0c0,0,0,0,0,0,0,0,0,0,0,0,0,0,0,0,0,.1,0,0,0,0,0,0s0,0,0,0ZM22.4,20.5s0,0,0,0c0,0,0,0,0,0,0,0,.1,0,.1,0,0,0-.1,0-.1,0-.2,0-.2-.1-.2-.1,0,0,0,0,0,0ZM22.8,19.8s0-.2-.1-.3c-.1,0-.2,0-.3,0,0,0,0,0,.2,0s.2.3.2.3c0,0,0,0,0,0h0ZM22.5,19.6s0,0,0,0,0,0,0,0c0,0,0,0,.1,0,.1,0,.1.2.1.2,0,0,0,0,0,0,0,0,0,0,0,0h0ZM22.8,20.2c0,0,0-.2-.1-.2s-.1,0-.1,0c0,0,.1-.1.2,0,0,0,0,.2,0,.2ZM22.9,19.7c-.1,0-.1,0-.1,0,0,0,0,0,.1,0s.2,0,.2.2c0,0,0,0,0,0,0,0,0-.1-.2-.1h0ZM23,19.8s0,0,0,0c0,0,0,0,0,0,0,0,0,0,.1,0s.1,0,.1.1,0,.1,0,.1,0,0-.1,0c0,0,0,0,0,0,0,0,0,0,0,0,0,0,0,0,0,0h0ZM23.1,20.9c-.2,0-.2-.2-.2-.2,0,0-.1.1-.3.1-.1,0-.2-.1-.2-.1,0,0,0,0,0,0,0,0-.2,0-.2,0,0,0-.1,0-.1,0s0,0,0,0c0,0,0,0,0,0,0,0,0,0,0,0,0,0,0,0,0,0,0,0,0,0,.1,0,0,0,.2,0,.2,0,0,0,0,0,0,0,0,0,0,0,0,0,0,0,0,0,.1,0s.2,0,.2,0c-.1,0-.2-.1-.3-.2,0,0,0-.1,0-.1,0,0,.1,0,.1,0,0,0,0,0,0,0s0,0,0,0c0,0,0,.1.1.2,0,0,.2,0,.2,0,0,0,.2,0,.2,0,0,0-.2-.3-.2-.3,0,0,0-.1,0-.1,0,0,0,0,0,0,0,0,.1.2.2.3,0,0,0,0,.1,0,0,0,0,.1,0,.2,0,.1-.1.2-.3.2h0ZM22.6,21.4s0,0,.2,0c0,0,.1,0,.2,0,0,0,0,0,0,0,0,0,0,0,0,0,0,0,0,0,0,0,0,0,0,0,0,0,0,0,0,0,0,0,0,0,0,0-.1,0s-.2,0-.2-.1c0,0,0,.1-.2.1-.1,0-.2,0-.3-.2,0,0,0,0,.2,0h0ZM22.8,20.9s0,0,0,0c0,0,.1,0,.1,0,0,0,.2,0,.2,0,0,0,0,.1,0,.2,0,0,0,.1,0,.1,0,0,0,0-.1,0,0,0-.1-.1-.1-.1-.2,0-.2,0-.3,0-.1,0-.1-.2-.1-.2h0s.1,0,.1,0c0,0,0,0,0,0,0,0,0,0,0,0,0,0,0,0,0,0ZM22.2,21.2s0,0,.1,0c0,0,0,0,.1,0,0,0,0,0,0,0,0,0,0,0,0,0,0,0,0,0,0,0,0,0,0,0,0,0,0,0,.2,0,.2,0,0,0,0,0,0,0,0,0,0,0,0,0,0,0,0,0,0,0,0,0,0,0,0,0,0,0,.1,0,.1,0,0,0,0,0,0,0h0s0,.1,0,.2c0,0,0,0-.1-.1,0,0,0,.1-.2.1s-.2,0-.3-.2c0,0,0,0,0,0,0,0-.1.1-.2.1s-.2,0-.2-.2h0ZM21.8,21.4s0,0,.1,0c0,0,.2,0,.2,0,0,0,0,0,0,0h0,0s0,0,0,0c0,0,0,0,0,0,0,0,0,0,0,0,0,0,0,0,0,0,0,0-.2.1-.3.1-.1,0-.1-.2-.1-.2,0,0-.1.1-.3.1s0-.2,0-.2c0,0,.2,0,.2,0,0,0,0,0,0,0,0,0,0,0,0,0h0ZM22,21s0,0,0,0c0,0,0,0,0,0h0s0,0,0,0c0,0-.2.1-.3.1s-.1-.2,0-.2c0,0,0,0,.1,0ZM21.7,19.8s0,0,0,0,0,0,0,0c0,0,0,0,0,0s0,0,0,0c0,0,0,0,.1,0s.1.1.1.1c0,0,0,0,0,0ZM21.6,19.9c0,0,.1,0,.1,0,0,0,0,0,0,0,0,0,0,0,0,0ZM22,20.6c0,0-.2,0-.3,0,0,0,0,0,0,0-.1,0-.1-.3-.1-.3,0,0,0,0,0,0,0,0,0,0,0,0,0,.2.3.4.3.4h0ZM22.2,20.4s0,0,0,0c0,0-.3,0-.3-.4,0,0,0,.3.4.4ZM22.1,19.7s0,0,0,0c0,0,0,0,0,0s0,0,0,0,0,0,0,0c0,0,0,0,0,0,0,0,0,.1,0,.1ZM22.3,20.5s-.1,0-.2,0c0,0-.1,0-.1,0s0,0,0,0h0s0,0,0,0c0,0,0,0,0,0h.1s0,0,0,0ZM22.2,19.7s0,0,0,0c0,0,0,0-.1,0s0,0-.1,0c0,0,0,0,.1,0,0,0,.1,0,.2,0,0,0,0,0,0,0h0ZM21.4,21c0,0,0-.1,0-.1h0s.1,0,.1,0c0,0,0,0,0,0,0,0,0,0,0,0,0,0,0,0,0,0,0,0,.1,0,.1,0s0,0,0,0c0,0,0,0,0,0,0,0,0,0,0,0,0,0,0,0,0,0,0,0,0,0,0,0,0,0,.1,0,.1,0,0,0,0,0,0,0,0,0,0,0,0,0,0,0,0,0,0,0,0,0,0,0,0,0-.1.1-.2.2-.3.1-.1,0,0-.2,0-.2-.1,0-.3.1-.3,0s0-.1,0-.1c-.1.1-.2.2-.3.2h0ZM23.1,21.9c-.1,0-.2,0-.4,0,0,0,0,0,0,0,0,0,0,0,0,0,.1,0,.3,0,.3,0,0,0,0,0,0,0ZM23.4,22s0,0,0,0c0,0,0,0,0,0,0,0,.1,0,.1,0,0,0,0,0,0,0,0,0,0,0,0,0,0,0,0,0,0,0,0,0,0,0-.1,0ZM23.4,24.1s0,0,0,0c0,0,0-.1,0-.2,0,0-.2-.1-.2-.1,0,0-.1,0-.2,0,0,0,.2-.1.3,0,.2,0,.3.2.2.4,0,0,0,0,0,0ZM22.7,23.4c0-.1,0,0,0,0,0,0,0,0,.1,0,0,0,0,0,0,0,0,0,0,0,0,0,0,0,0,0,0,0,0,0,0,0,0,0,0,0,0,0,0,0,0,0,0,0,0,0s0,0,0,0ZM23.2,24.1s0,0,0,0c0,0,0,0,0,0,0,0,0,0,0,0,0,0,0,0,0,0,0,0,0,0,0,0s0,0,0,0,0,0,0,0c0,0,0,0,0,0,0,0,0,0,0,0,0,0,0-.1.2-.1s.2.1.2.2c0,0,0,0,0,0,0,0,0,.1,0,.1,0,0,0,0,0,0ZM23.3,24.8c0,.1,0,.2.1.3,0,0-.6-.4-.7-.9,0,0,.1.2.3.2.2,0,.3,0,.4,0,0,0-.2,0-.1.3ZM23.7,22.3c-.1,0-.2.1-.2.1s0,0,0,0c0,0-.1-.1-.2-.2,0,0,.2,0,.3,0,.1,0,.2-.1.2-.1,0,0,.1,0,.2,0,0,0,0,.2-.2.3ZM24,23.5h0s0,0,0,.1c0,0,0,0,0,0-.2,0-.2-.2-.2-.2h0ZM24,24.7s0,0,0,0c0,0,0,0-.1,0,0,0,0,0-.1,0,0,0,0,0,0,0,0,0,0,0,0,0,0,0,0,0,0,.1,0,0,0-.3.3-.3.2,0,.2.2.2.2h0ZM23.8,24.3c-.2,0-.3.2-.3.2,0,0,0-.2.3-.2s.4.2.4.4c0,.1,0,.2,0,.2,0,0,0-.1,0-.2,0-.1-.2-.3-.4-.3ZM24.7,22.2s-.1.1-.1.1c0,0,0,0-.1,0,0,0,0,0,0,0,0,0,.2-.2.2-.2,0,0,0,0,0,0,0,0,0,0,0,0,0,0,0,0,0,0ZM24.5,22.9h0c.4,0,.4.4.4.4,0,0,0,0,0,0,0-.3-.3-.4-.3-.4ZM24.3,23.2c0,0,.1-.2.1-.2.3,0,.2.3.2.3,0,0,0,0-.1,0s-.2-.1-.2-.1ZM24.7,23.4s.1,0,0,.1c-.1.2-.3.1-.3.1.2,0,.2-.3.2-.3h0ZM23.8,22.7s0,0,0,0c0,0,.1,0,.2,0,0,0,.1,0,.2,0,0,0,.1,0,.1,0,0,0,0-.1,0-.2,0,0-.1,0-.1,0,0,0,0,0,0,0,0,0,0,0,0,0s0,0,0,0c0,0,0,0-.1,0s0-.1,0-.1c0,0,0,0,0,.2,0,0,0,0,0-.1,0,0,0-.2,0-.2h.3s0,0,0,0c0,0,0,.1,0,.2,0,0,0,0,.1.1,0,0,.1.1.1.2,0,0,0,.3,0,.4,0,0,0,0-.1,0,0,0-.2,0-.3-.1,0,0-.2,0-.3,0,0,0-.2,0-.2,0,0-.1,0-.2,0-.3,0,0,.3-.2.3-.2v.2s0,0,0,0c0,0,0,0,0,.1,0,0,0,.1,0,.2h0ZM23.3,21.8h0c0,0-.1.1-.2,0,0,0,0,0,0,0,0,0,0,0-.1,0s-.1,0-.1-.1,0,0,.1,0c0,0,0,0,.1,0h0s0,0,0,0h0c0,0,0,0,0,0,0,0,0,0,0,0ZM20.9,21.7c0,0-.2,0-.2,0h0c0,0,0-.1,0-.2,0,0,0-.1,0-.2,0,0,.1,0,.2,0,0,0,0,0,0,.1,0,0,0,.1,0,.2h0s0,0,0,0c0,0,0,0,0,0ZM21.3,21.2s0-.2-.2-.2c0,0-.2-.1-.3-.1,0,0,.2,0,.4-.2,0,0,.2.1.2.3,0,0,0,0,0,0h0s0,0,0,0c0,0,0,0,.2,0h0s0,0,0,0,0,0,0,0c0,0,.1,0,.1,0,0,0-.2.2-.3.2,0,0,0,0,0-.1h-.2c0,.1,0,0,0,0,0,0,0,0,0,0h0ZM21.5,21.8c0,0-.2,0-.2,0,0,0,.1,0,.1,0s0,0,0,0h0ZM21.3,21.7h.2s0,0,0,0c0,0-.2,0-.2,0ZM22,21.9s0,0-.1,0c0,0,0,0-.1,0,0,0,0,0,0,0,0,0,0,0,0,0,0,0,0,0,0,0,0,0,0,0,0,0,0,0,0,0,0,0s0,0,0,0,0,0,0,0c0,0,0,0,0,0ZM22,21.8s0,0-.1,0c0,0,0,0,0,0,0,0,0,.1-.2.1s0,0,0,0c0,0,0,0,0,0,0,0,0,0,0,0,0,0,0,0,0,0,0,0,0,0,.1,0,0,0,0,0,0,0s0,0,0,0,0,0,.1,0,0,0,0,0c0,0,0,0,.1,0h0s0,0,0,0c0,0,0,0,0,0,0,0,0,0,0,0s0,0,.1,0c0,0,0,0,0,0s0,0,0,0c0,0,0,0,0,0h0s0,0,0,0,0,0,.1,0c0,0,.3,0,.3,0,0,0,0,0,0,0,0,0,0,0,0,0h0s0,0,0,.1c0,0-.1,0-.3,0,0,0,0,0-.1,0s-.1,0-.1,0h0s0,0,0,0c0,0,0,0-.1,0s0,0,0,0c0,0,0,0,0,0,0,0,0,.1-.1.1s0,0,0-.1h0s0,0,0,0ZM22.4,22.4c0,0-.2,0-.2.1h0s.1,0,.3-.1c.1,0,.2-.3.2-.3-.2.2-.4.3-.4.3h0c.5-.1.5-.4.5-.4,0,0,0,0,0,0,0,0,0,0,0,0,0,0,0,0,.1,0,0,0,0,0,.1,0,0,0,0,0,0,0,0,0-.2,0-.2,0,0,0,0,.2,0,.3h0c.1,0,.1,0,.3-.1.2,0,.2-.3.2-.3,0,0,.1,0,.1,0,0,0,0,0,0,0,0,0,0,.1,0,.2,0,0,0-.1,0-.1,0,.3-.3.4-.3.5,0,0,0,0,0,0,.2,0,.3-.3.3-.5-.1.3-.4.4-.4.4,0,0,0,0,0,0,0,0,.2-.1.3-.2,0,0,0-.2,0-.2,0,.1-.1.2-.3.2,0,0-.3,0-.3,0,0,0,0,0,0,0,0,0-.1.2-.2.2h0s.1,0,.2-.2c0,0,0-.1,0-.2,0,0,0,0-.1.1-.1.1-.2.2-.2.2h0s.1,0,.2-.2c.1-.1.1-.2.1-.2,0,.1,0,.2-.2.3h0ZM25.9,25.9c-1.2-.7-1.6-2-1.6-2h.1c0,0,0,0,0,0,0,0,.2.2.2.2,0,0,0-.2,0-.2v.2c.3,1.2,1.3,1.9,1.3,1.9h0ZM25.7,22.2c.3,0,.3.3.3.3,0,0,0,0-.1,0,0,0,0,0,0,0,0,0,0,0,0,0,0,0,0,0-.1,0,0,0-.1,0-.2,0,0,0-.1.1-.1.1,0,0,0-.3.3-.3h0ZM25.4,20.8c0,0,0,0,0,0,0,0,0,0,0,0,0,0,0,0,0,0,0,0,0,0,0,0ZM25.2,21.5h0c0,.2,0,.3.2.4,0,0,0,0,0,0,0,0,0,0-.1-.1s0-.2,0-.2c0,0,0,0,.1.2,0,0,.1.1.1.1s0,0,0,0c0,0-.1,0-.1,0-.1-.2-.1-.5-.1-.5,0,.2.2.4.2.4,0,0,0,0,0,0-.2-.2-.2-.4-.2-.4ZM25.2,21.7c0,.2,0,.2,0,.2h0c-.1,0-.1-.5-.1-.5h0s0,0,0,.2h0ZM25,21.6s0,0,0,0c0,0,0,.2,0,.3,0,.1-.1.3-.1.3,0,0,0,0,0,0,0,0-.2-.1-.2-.1,0,0,0,0,0,0,0,0,.1-.1.2-.2,0-.1,0-.3,0-.3h0ZM25.4,18.1s0,0,0,0c0,0,0,0,0,0s0,0,0,0c0,0,0,0,0,0,0,0,0,0,0,0,0,0,0,0,.1,0,0,0,.1,0,.1,0ZM24.7,16.6s0,0,0,0c0,0,.1,0,.2,0,0,0,0,0,0,0,0,0,0-.2.1-.2,0,0,0,.1,0,.2,0,0,0,0,0,.1s0,0,0,0c0,0,0,0,0,0,0,0,0,0,0,0s0,0,0,0c0,0,0,0,0,0,0,0,0,0,0,0,0,0,0,0,0,0,0,0,0,0,0,0h0s0,0,0,0c0,0,0,0-.1,0h-.2s0,0,0,0c0,0,0,0,0,0,0,0,0,0-.1,0,0,0,0,0,0,0,0,0,0,0,.1,0,0,0,0,0,0,0,0,0,0,0,0,0,0,0,0,0,0,0,0,0,0,0,0,0,0,0,0,0,0,0s0,0,0,0c0,0,0,0,0,0ZM25.5,16.2s0,0,.1,0c0,0,0,0,0,0,0,0,0,0,0,0,0,0,0,0,0,0,0,0,0,0,0,0s0,0,0,0c0,0,0,0,0,0,0,0,0,0,0,0,0,0,0,0,0,0,0,0,0,0,0,0,0,0,0,0,0,0,0,0,0,0,0,0h0s0,0,0,0c0,0,0,0,0,0,0,0,0,0,0,0h0ZM25.7,16.5s0,0,0,0c0,0,0,0,0,0,0,0,0,0,0,0,0,0,0,0,0,0h0s0,0,0,0c0,0,0,0,0,0,0,0,0,0,0,0,0,0,0,0,0,0,0,0,0,0,0,0,0,0,0,0,0,0h0s0,0,0,0c0,0,0,0,0,0,0,0,0,0,0,0,0,0,0,0,0,0,0,0,0,0,0,0,0,0,0,0,0,0,0,0,0,0,0,0,0,0,0,0,0,0,0,0,0,0,0,0s0,0,0,0c0,0,0,0,0,0,0,0,0,0,0,0,0,0,0,0,0,0,0,0,0,0,0,0,0,0,0,0,0,0h0s0,0,0,0c0,0,0,0,0,0,0,0,0,0,0,0s0,0,0,0ZM25.5,17s0,0,0,0c0,0,0,.1,0,.1,0,0,0,0,0,0,0,0,0,0,0,0h0ZM26,18.2s0,0,0,0c0,0,0,0,0,0,0,0,0,0,0,0,0,0,.1,0,.2,0,0,0,0,.1,0,.1ZM26,17.9h.1s-.3,0-.4,0c0,0-.2,0-.2,0,0,0,0,0,0,0,0,0,0,0,0-.1,0,0,.1.1.1.2,0,0,.3,0,.4,0h0ZM26.5,18.4c0,0,.1,0,0,.2,0,0,0,0,0,0,0,0,0,0,0,0,0,0,0,0,0,0,0,0,0,0,0,0,0,0,.1,0,.2,0h0ZM26.9,19c0,0,0,.2,0,.2,0,0,0,0,0,0,0,0,0,0,0,0s0,0,0,0c0,0,0,0,0,0,0,0,.1,0,.2,0ZM29.1,18.7h0c0,0,.1-.1.1-.1,0,0,.1,0,.2,0,0,0,0,0,.1,0,0,0,0,0,0,0,0,0,0,0,0,0,0,0,0,0,0,0,0,0,0,0,0,0,0,0-.1,0-.2,0,0,0,0,0,0,0s0,0,0,0c0,0,0,0-.1,0,0,0,0,0,0,0ZM29.8,18.1h0s.1,0,.2-.2c0,0,.2-.1.2-.1,0,0,.2,0,.3-.1,0,0,0,0,.1,0,0,0,0,0,0,0,0,0,0,0,0,0,0,0,0,0,0,0,0,.1,0,.2-.2.3,0,0-.1,0-.2,0,0,0-.4.2-.4.2,0,0,0,0,0,0,0,0,0,0,0,0,0,0,0,0,0,0,0,0,0,0,0,0,0,0,0,0,0,0h0ZM28.4,26.3c.4,0,.4.3.4.3,0,0,0,0-.2,0,0,0-.1,0-.2,0-.1,0-.2,0-.2,0,0,0-.1,0-.2,0,0,0,0,0,0,0,0,0-.1.1-.1.2,0,0,0-.4.6-.4ZM20.9,18.2c0,0,0-.3,0-.3,0,.1,0,.1,0,.1,0,0,0,0,0,0,0,0,0,0,0,0,0,.1.1.1.1.1,0,0,0,0,0,0,0,0-.1,0-.2,0ZM20.9,17.7c0,0,0,.1,0,.1,0,0,0-.1,0-.1,0,0,0-.1,0-.1,0,0,0,0,0,.1ZM25.2,16s0,0,0,0c0,.1,0,.1,0,.1,0,0,0-.1,0-.1,0,0,0,0,0,0s0,0,0,0h0c0,0,0,0,0,0,0,0,0,0,0,0,0,0,0,0,0,0,0,0,.1,0,.2,0ZM25.8,16.6s0,0,0,0h0s0,0,0,0c0,0,0,0,.1,0,0,0,0,0,0,0,0,0,0,0,0,0,0,0,0,0,0,0,0,0,0,0,0,0s0,0,0,0c0,0,0,0,0,0,0,0,0,0,0,0,0,0,0,0,0,0ZM26,16.4s-.1,0-.1,0h0s0,0,0,0h0s0,0,.1,0h0s0,0,0,0c0,0,0,0,0,0,0,0,0,0,0,.1,0,0,0,0,0,0,0,0,0,0,0,0,0,0,0,0,0,0,0,0,0,0,0,0,0,0,.1,0,.1,0,0,0,0,0,0,0h0ZM26.3,16.6s0,0,0,0c0,0,0,0,0,0h0s0,0,0,0h0s0,0-.1,0c0,0,0,0,0,0,0,0,0,0,0,0,0,0,0,0,0,0,0,0,0,0,0,0,0,0,0,0,0,0ZM26.3,16.4s0,0,0,0c0,0,0,0,0,0,0,0,0,0,0,0,0,0,0,0,0,0s0,0,0,0c0,0,0,0,0,0,0,0,0,0,0,0,0,0,0,0,0,0,0,0,0,0,0,0,0,0,0,0,0,0ZM26.2,17.1s0,0,.1,0c0,0,0,0,0,0h0s0,0,0,0c0,0-.1,0-.2,0,0,0-.2,0-.2,0,0,0,0,0,0,0,0,0,0,0,.1,0s0,0,0,0c0,0,0,0,0,0,0,0,0,0,0,0,0,0,0,0,0,0ZM26.4,17.4s0,0,0,0c0,0,0,0,0,0,0,0,0,0,0,0,0,0,0,0,0,0,0,0,0,0,0,0,0,0,0,0-.1,0,0,0,0,0-.1,0,0,0,0,0,0,0,0,0,0,0,0,0,0,0,0,0,0,0,0,0,.1,0,.1,0,0,0,.1,0,.1,0,0,0,0,0,0,0,0,0,0,0,0,0,0,0,0,0,0,0,0,0,0,0,0,0,0,0,0,0,0,0,0,0,0,0,0,0,0,0,0,0,0,0ZM31.6,19.1h0s0,0,0,0c0,0-.2-.1-.3-.2-.1,0-.3-.1-.4-.2,0,0-.2,0-.3-.1,0,0-.2.1-.2.1-.3,0,0,0,0,0,0-.1.1-.3.2-.5v-.2c.1,0,.1,0,.1-.1,0,0,0-.1,0-.2,0,0,0,0,0,0,0,0-.1,0-.2,0-.1,0-.2.1-.3.2-.1,0-.2.1-.3.2-.1,0-.1.3-.2.4,0,0,0,0-.1,0,0,0,0,0-.1,0,0,0-.1,0-.1,0,0,0,0,0,0,0,0,0,0,0-.1,0,0,0-.1.1-.2.2,0,0-.1.1-.2.1,0,0-.2,0-.3,0,0,0-.2,0-.2,0,0,0-.1.1-.2.2,0,0-.1.1-.2.2,0,0-.1,0-.2.1,0-.2,0-.4-.2-.5-.1-.3-.3-.5-.5-.7-.2-.2-.5-.2-.8-.3h-.3s0,0,0,0c0,0,0,0,0,0,0,0,0,0,0,0,0,0,0,0,0,0,0,0,0-.2,0-.2,0,0,0,0,.1,0,0,0,0,0,0,0h0s0,0,0,.1c0,0,0,0,.1.1,0,0,.1,0,.2,0,0,0,0,0,0,0,0,0,.2-.2,0-.2h0s0,0,0,0c0,0-.2,0-.3-.1,0,0,0,0,0,0,0,0,0,0,0,0,0,0,0,0,0,0,0,0,0,0,0,0,0,0,.2,0,.3-.2,0,0,0,0,0,0h0c0,0,0-.2,0-.3,0,0-.2,0-.3,0,0,0,0,0,0,0,0,0,0,0-.1,0h0s0,0,0,0c0,0,0,0,0,0,0,0-.1,0-.2,0,0,0,0,0,0-.1,0-.1-.1-.2-.2-.2,0,0,0,0,0,0-.2,0-.2.3-.1.4,0,0-.2,0-.2,0,0,0-.2,0-.2,0,0,0,0,0,0,0,0,0,0-.1,0-.1,0,0,0,0,.1,0,0,0,.1,0,.1-.2,0,0,0-.2,0-.2,0,0-.1,0-.1,0,0,0,0,0-.1,0h0s0,0,0,0c0,0-.1,0-.1.1,0,0-.1.2-.2.2,0,0,0,0,0,.2,0,0,0,0,0,0,0,0,0,0,0,0,0,0,0,0,0,0,0,0,0,0-.1,0,0,0-.1-.2-.1-.2,0,0,0,.1,0,.2-.1,0-.3-.1-.4-.2,0,0-.1-.2-.3-.2,0,0,0,.2,0,.3h0s0-.1,0-.1c0-.1,0-.2,0-.3,0,0,0-.2,0-.3,0,0-.1-.2-.2-.2,0,0,0,0,0,.1,0,0,0,.1,0,.2,0,0,0,.2,0,.2,0,.2,0,.3,0,.5,0,.1.1.3,0,.4,0,0-.1,0-.2,0h-.1s0,0,0,0c0,0,0,0,0,0,0,0,0-.1.1-.2,0-.2,0-.4,0-.6,0-.2-.1-.3-.1-.5,0-.2,0-.3,0-.5,0,0,0,0,0,0,0,0-.1,0-.1.1,0,0,0,.2,0,.2,0,.2,0,.4,0,.6,0,0,0,.2,0,.3,0,0,0,.2,0,.3,0,0-.1,0-.2-.1,0,0,0-.2,0-.2,0-.2,0-.4,0-.5,0-.2,0-.3-.2-.4,0-.2-.1-.3-.1-.5,0,0,0-.2,0-.2,0,0,0-.1,0-.2,0,0,0,0,0,0,0,0-.1.2-.2.2,0,.2,0,.4,0,.6,0,.2,0,.3.1.5,0,.2,0,.4,0,.6,0,0,0,.3,0,.3-.2,0-.2-.2-.2-.4,0-.2,0-.3,0-.5,0-.3-.2-.5-.2-.5,0,0,0,.2,0,.3,0,0,0,.2,0,.3,0,.2,0,.3,0,.5,0,.1,0,.3,0,.4,0,0,0,0-.1,0,0,0,0,0,0,0,0,0,0,.1,0,.2,0,0,0,.1,0,.2,0,0,0,.2,0,.3,0,0,0,.2,0,.2,0,0,0,.1,0,.2,0,0,0,0,0,0,0,0-.1,0-.1-.1,0-.1,0-.2,0-.3,0,0,0-.1,0-.2,0,0-.1-.2-.1-.2,0,0,0-.2,0-.3,0,0,0,0,0,0,0,0,0,0,0,0,0,.1,0,.3,0,.4,0,0,0,.1,0,.2,0,0,0,.2,0,.3,0,.2,0,.3,0,.5,0,0,0,.1.1.2,0,0,0,0,0,0h0s0,0,0,0c0,0,0,.1,0,.2,0,0,0,0,0,.1,0,0,0,0,0,0,0,0,0,0,0,0,0,0,0-.3,0-.4,0,0,0-.1-.1-.2,0,0,0,0,0,.1,0,0,0,.1,0,.2,0,0,0,.1,0,.2,0,.1,0,.3,0,.4,0,0,.1.1.2.2,0,0,0,0,.1,0,0,0,0,0,0,.1,0,0,0,.1,0,.2-.1,0-.2.1-.3.2,0,0,0,.2,0,.2,0,0-.1-.1-.2-.2-.1-.1-.3-.2-.4-.4,0-.1-.1-.3-.1-.4,0,0,0-.2,0-.3,0,0-.1.1-.2.2,0,.1-.2.3-.2.4,0,.1,0,.3,0,.4,0,.2.1.3.2.4,0,.1.2.2.2.4,0,0,0,.1,0,.2,0,0,0,.2,0,.2,0,0-.2,0-.3-.1,0,0,0-.1,0-.2,0,0,0-.2,0-.3,0-.3-.2-.5-.4-.6-.1-.1-.3-.2-.4-.3s-.3-.2-.4-.4c0-.1,0-.3,0-.4,0-.1,0-.2,0-.3,0,0,0-.1,0-.1-.3.1-.5.4-.5.6,0,.3,0,.7.2.9.2.2.4.4.6.6,0,0,.1.1.2.2,0,0,.1.2.2.3,0,0,0,.1,0,.2,0,0,0,.1-.1.2h0s0,0,0,0h0c0-.1-.1-.2-.2-.3,0,0-.1-.1-.2-.2,0,0,0-.1-.1-.2,0,0,0-.3-.1-.3,0,0-.2.3-.3.4,0,.2,0,.3,0,.5,0,.2.2.3.3.4.1.1.2.2.3.4,0,.2,0,.4,0,.5,0,.2,0,.4.2.5.2.1.4.2.6.2,0,0,.1,0,.2,0h0s0,0,0,0c0,0,0,0,0,0,0,0,0,0-.1,0,0,0-.1,0-.2,0,0,0,0,0,0,0,0,0,0,0,0,.1,0,0,0,.1.1.1,0,0,.1,0,.2,0,0,0,0,0,0,0,0,0,0,0,0,0-.1.2-.2.4-.1.7,0,.1,0,.2.2.3.1,0,.3,0,.4,0-.1-.1-.1-.3-.1-.4,0,0,0-.2,0-.2,0,0,.1.1.2.2.2,0,.3.2.5.2.1,0,.2.1.3,0,0,0,0,0,0,0,.1,0,.3,0,.4,0h0c0,.1.1.2.2.3,0,0-.1,0-.2,0,0,0-.1.1-.1.2-.3,0-.7,0-.9.4,0,.1,0,.3,0,.4,0,0,0,.2,0,.2.2.2.3.4.5.5.1.1.4.3.6.5,0,0,0,0,0,0-3.3-.3-5.6-4.5-5-7.9.9-4.4,5.1-6.7,9-6,1,.2,1.7.5,2.5,1.1-.6-.6-1.6-1.1-2.6-1.3-4.3-.9-8.6,1.8-9.6,6.1-1.1,4.5,1.7,8.6,6.1,9.6,1.9.4,4,.1,5.7-.8,0,0,.5-.3.7-.6,0,0,0,0,0-.1,0-.2,0-.4,0-.5,0,0,0-.1-.2-.2-.3-.3-.8-.1-.9,0-.2-.1-.5-.3-.7-.3-.2,0-.3-.2-.5-.3-.1-.1-.2-.3-.3-.4-.2-.3-.3-.7-.4-1,0-.3-.1-.6-.1-.9,0,0,0,0,0,0,0,0,0,0,0,0,0,0,0,0,.1,0,0,0,.1-.2.2-.1.2,0,.4,0,.5,0,.2-.2.2-.4.1-.7,0,0-.1-.2-.2-.2.2,0,.3-.2.4-.3,0,0,0,0,0,0,0,0,0,0,0,0,.1,0,.2-.1.2-.2,0,0,0,0,0,0,0,0,.1-.2.2-.2,0,0,.1-.2.2-.2,0,0,.1-.2.2-.3,0,0,.1-.1.2-.2,0,0,.1-.2.1-.3,0,0,0-.2,0-.3,0,0,0-.1,0-.2h0s.4-.2.4-.2h0s0,0,0,0c0,0,0,0,0,.1s0,0,0,0c.1,0,.2-.1.3-.2,0,0,.1,0,.2-.1,0,0,0,0,0,0,0,0,.1,0,.1,0,.1,0,.3,0,.4-.2,0,0,0,0,0,0,0,0,0,0,0,0,0,0,0,0,0,0,0,0,0,0,0,0,0,0,0,0,0,0,0,0,0,0,0,0,0,0,0,0,0,0,0,0,0,0,0,0,0,0,0,0,0,.1,0,0,0,.1.1.2,0,0,.2,0,.2,0,.1,0,.3,0,.4,0,.1,0,.2,0,.3-.1,0,0,.2,0,.3-.2,0,0,0-.1,0-.2h0ZM23.6,20.6s0,.1,0,.2c0,0,0,.2,0,.3,0,0,0,.2,0,.3,0,0,0-.2,0-.2,0,0,0-.1,0-.2,0-.3.1-.4,0-.3ZM26.2,19.5s0,0,0,0c0,0,0,0,0,0,0,0,0,0,0,0,0,0,0,0,0,0,0,0,0,0,0,0,0,0,0,0-.1,0,0,0,0,0,0,0,0,0,0,0,0,0,0,0,0,0,0,0ZM26.4,19.8c0,0,.1,0,.1,0,0,0,0,0-.1,0,0,0,0,0,0,0,0,0,0,0,0,0,0,0,0,0,0,0,0,0,0,0,0,0s0,0,0,0h0ZM26.9,20.1s0,0,0,0c0,0,0,0,0,0,0,0,.1-.1.1-.1,0,0,0,0,0,0h0ZM26.5,19.8c0,0,0,0,0,0,0,0,0,0,0,0,0,0,0,0,0,0,0,0,0,0,0,0s0,0,.1,0c0,0,0-.1,0-.1h0ZM26.8,19.9s0,0,0,0c0,0,0,0,0,0,0,0,0,0,0,0,0,0,0,0,0,0,0,0,0,0,0,0,0,0,0,0,0,0,0,0,0,0,0,0,0,0-.1,0-.1,0,0,0,0,0,0,0,0,0,0,0,0,0,0,0,0,0,.1,0ZM26.6,19.7h0s0,0,0,0c0,0,0,0,0,0,0,0,0,0,0,0h0c0,0,0,0,0,0h0s0,0,0,0c0,0,0,0,0,0,0,0,0,0,0,0,0,0,0,0,0,0,0,0,0,0,0,0,0,0,0,0,0,0s0,0,0,0c0,0,0,0,0,0,0,0,0,0-.1,0,0,0-.2,0-.2,0,0,0,0,0,0,0s0,0,0,0c0,0,.1,0,.1,0h.1s0,0,0,0c0,0,0,0,0,0,0,0,0,0,0,0,0,0,0,0,0,0,0,0,0,0,0,0ZM26.9,19.9s-.2,0-.2,0c0,0,0,0,0,0,0,0,0,0,0,0h0ZM20,28.5c0-.1-.3-.2-.3-.2,0,0,0-.2.1-.3,0-.1,0-.3,0-.3l-.3.5c-.2,0-.4,0-.6,0h0c0,0,0,0,0,0,0,0,0,.3,0,.3,0,0-.2,0-.2,0,0,.1,0,.2.1.2s.4,0,.4,0c0,0-.2.3-.3.5,0,.1,0,.2,0,.2,0,0,.3-.5.4-.6,0,0,.1,0,.2,0,0,0,.2,0,.2,0,0,0,0-.2,0-.2,0,0,.2,0,.3,0,0,0,.1,0,.1-.2ZM19.3,28.5h-.4s0-.2,0-.2c0,0,.1,0,.3,0,.1,0,.2,0,.2,0,0,0,0,.1,0,.1h0ZM19.6,28.5h0c0-.1,0,0,0,0s-.2,0-.2,0ZM21.7,29.6c0,0-.4,0-.4,0,0,0,0,0,.1,0,0,0,.3,0,.3-.2s-.4-.2-.4-.2c0,0,.1-.2.1-.3,0,0,0-.2-.2-.2,0,0,0,0,0,0,0,0,0,.1,0,.2,0,.1-.1.2-.1.2,0,0-.4,0-.4,0,0,0,0-.1,0,0,0,0,0,0,0,.2,0,.1,0,.3,0,.3,0,0,0,0-.2,0-.1,0-.2,0-.3.2,0,.1,0,.2.1.1,0,0,.4-.1.4-.1,0,0,0,0-.1.2,0,.1,0,.2,0,.2,0,0,.2-.4.4-.5.2,0,.4,0,.6,0,.1,0,.2,0,.2,0,.1,0,0-.2-.1-.2ZM20.9,29.5s0-.2,0-.2c0,0,.2,0,.2,0,0,.1-.2.2-.2.2h0ZM21.2,29.4s0-.1.1-.1c0,0,.2,0,.2,0,0,0-.1.1-.3.1h0Z"/>
      <path class="cls-1" d="M21.2,29.8s0,.2,0,.3c0,.2,0,.3,0,.3,0,0,.1-.1.1-.3,0-.1,0-.2-.2-.3h0ZM23.8,29.7c0,0,0-.1,0-.2,0-.1,0-.2,0-.3,0,0-.2,0-.2,0,0,0,0,0,0,.2s0,.3,0,.3l-.4.2s0,0,0-.2c0-.2,0-.3-.1-.3-.1,0-.4,0-.4.1,0,0-.2,0-.2,0,0,0,0,0,0,.2,0,0-.1.3-.1.4,0,.1.2.1.2.1,0,0,0-.2,0-.2,0,0,0-.3,0-.3,0,0,0,0,0,0,0,0,.1,0,.2,0,0,0,0,.6,0,.6,0,0-.1-.1-.1-.1,0,0,0-.2.1-.3s-.2,0-.2,0c.1,0,.1,0,0,.1,0,0-.3.5-.4.6,0,0,0,.2,0,.2,0,0,0,0,.2-.2,0-.1.1-.3.1-.3,0,0,.1.2.2.4,0,.1.1,0,.1,0h0c0-.1,0-.1,0-.1s0-.1,0-.1c0,0,0,0,.1,0,0,0,.3-.1.3-.1,0,.2,0,.2,0,.4s.2.2.2.2v-.8c.1-.2.1-.3,0-.3,0,0,0,0,0,0,0,0,.2,0,.2,0,0-.1-.1-.1-.2-.1ZM23.2,30.2h0c0-.1.3-.3.3-.3,0,.2-.3.3-.3.3h0ZM25.2,29.3s0,0,0,0c0,0-.4.4-.4.5,0,0,.1,0,.1,0,0,0,0-.1,0-.1,0,0,0,.1,0,.2,0,0,0,.2.1,0,0,0,0,0,0,.2,0,.1-.1.3-.1.3,0,0,0,.2.1.1,0,0,0,0,0-.2,0-.1,0-.2,0-.2h0c0,0,.3-.2.4-.4,0,0,.2,0,.3,0,.1,0,.2.2.3,0,0-.1-.2-.2-.6-.2,0,0,.3-.4.3-.4s0-.1-.2-.1c-.1,0-.2.3-.5.2,0,0,0,.1.2.1,0,0,0,.1-.2.3-.1.2-.2.3-.2.3,0,0,0-.2,0-.2,0,0,0,0,0,0,0,0,.1-.3.1-.3,0,0-.1,0,0,0,0,0,.3-.3.3-.3s0,0-.1,0Z"/>
      <path class="cls-1" d="M25.5,30.2s.5,0,.4,0c0,0-.2.2-.2.2,0,0,.3,0,.2.1,0,.1-.2,0-.3.1-.1,0-.3,0-.3,0,0-.1,0-.1.1-.2s.2-.2.2-.2c0,0-.2,0-.2-.1h0ZM27.1,28.8s0,0,0,.1,0,.4,0,.4c0,0-.1,0-.2.1,0,0,0,.3.2.2,0,0,0,.2,0,.3,0,.1-.2,0-.2,0,0,0,0,.3.2.3.2,0,.4-.2.4-.5,0,0,0,0,.2,0,.2,0,.3.1.5,0,.2,0,.2-.2.3-.2,0,0,0,0-.2,0-.1,0-.4,0-.5,0-.1,0-.3,0-.3-.2,0,0,.4-.3.4-.3s-.1-.2-.2-.1c0,0-.2,0-.2,0,0,0,0-.2,0-.3,0,0-.3-.2-.3,0ZM28.6,28s0,.3,0,.3c0,0,.1,0,.2-.1,0-.1,0-.2,0-.2,0,0,.1,0,.1,0s-.2.6-.2.5c0,0-.2-.1-.1,0,0,0,.1.6.2.6,0,0,.2,0,.2,0,0,0-.2-.4-.2-.5,0,0,.5-.7.6-.7,0,0,0,.1,0,.1.1,0,.2-.1.2-.2,0,0-.1-.1-.2-.1-.1,0-.3.1-.3.1,0,0,0-.1,0-.2,0,0,0,0-.1,0s0,0-.1.1h0c0,0,0,0-.1.1,0,0,0,.4-.1.3,0,0,0-.2,0-.2,0,0,0,0,0,0h0Z"/>
      <path class="cls-1" d="M28.9,28.5s0,0,.1-.2c0-.2.2-.3.3-.2.1,0,0,.2,0,.3s0,0,0,0c0,0,.3-.2.4-.1,0,.1,0,.1-.1.2,0,0,0,0,0,.1,0,0,.3.4.2.5,0,0-.3.2-.4.1-.1,0-.2,0-.2-.2,0,0,.2,0,.3,0,0,0,0-.1,0-.2,0-.1,0-.1,0-.1,0,0-.2.3-.3.2-.1-.2,0-.2,0-.2,0,0,.2-.1.2-.2,0,0,0,0,0,0s0,0,0,0c0,0,0,0-.1,0s-.2,0-.1,0ZM41.7,28v-.2h.2v.9s0,0,0,0c0-.2-.1-.4-.2-.5-.1-.1-.3-.2-.4-.2-.2,0-.3,0-.4.2-.1.2-.2.4-.2.8s0,.6.2.7c.1.1.3.2.5.2.2,0,.3,0,.4-.2.1-.1.2-.3.2-.5h.1c0,.3-.1.5-.3.6-.1.1-.3.2-.5.2-.4,0-.7-.2-.9-.5,0-.2-.1-.4-.1-.6,0-.2,0-.4.1-.6,0-.2.2-.3.4-.4.2-.1.5-.2.7,0,0,0,.2,0,.3.2h0ZM42.7,29.2h.6s0,0,0,0c0,0,0,0,0-.1,0,0,0-.2,0-.3,0,0-.1-.1-.2-.1-.1,0-.2,0-.3.1,0,0-.1.2-.1.4ZM43.6,29.3h-1c0,.2,0,.4.1.4,0,0,.2.1.3.1.2,0,.3-.1.5-.3h0c-.1.3-.3.5-.6.5-.2,0-.3,0-.5-.2-.1-.1-.2-.3-.2-.5,0-.2,0-.4.2-.5.1-.1.3-.2.5-.2.1,0,.2,0,.3,0,0,0,.2.2.2.3,0,.1,0,.2,0,.3ZM44,28.6h.5c0,0,0,.2,0,.3,0,0,.1-.2.2-.2,0,0,.2,0,.3,0,0,0,.2,0,.2,0,0,0,.1,0,.1.2,0,0,0,.2,0,.3v.7c0,0,0,0,0,.1,0,0,0,0,.1,0h0c0,.1-.7.1-.7.1h0c0-.1,0-.1,0-.1,0,0,.1,0,.1,0,0,0,0,0,0,0v-.6c0,0,0-.2,0-.3,0,0-.1-.1-.2-.1-.1,0-.2,0-.3.1,0,0-.1.2-.1.3v.5c0,0,0,0,0,.1,0,0,0,0,.1,0h0c0,.1-.7.1-.7.1h0c0-.1,0-.1,0-.1,0,0,0,0,.1,0,0,0,0,0,0,0v-.9c0,0,0-.1,0-.1,0,0,0,0-.1,0h0c0,0,0,0,0,0ZM46.3,28.1h0v.6h.4c0,.1-.4.1-.4.1v.9c0,0,0,.1,0,.2,0,0,0,0,.1,0s.1,0,.2,0c0,0,0-.2,0-.3h0c0,.2,0,.3-.1.4,0,0-.2.1-.3.1,0,0-.2,0-.3,0,0,0,0-.2,0-.2v-.9h-.2c0-.1.2-.2.2-.2,0-.1.1-.3.1-.5ZM47.2,28.6h.5s0,.5,0,.5c0-.2.1-.3.2-.4,0,0,.2-.1.3-.1,0,0,.1,0,.2,0,0,0,0,.1,0,.2,0,0,0,.1,0,.1,0,0,0,0-.1,0,0,0,0,0-.1,0,0,0,0,0,0-.1,0,0,0,0,0,0,0,0,0,0,0,0,0,0,0,0,0,0,0,0,0,0-.1,0,0,0-.1.2-.2.3,0,.1,0,.3,0,.4v.3s0,0,0,0c0,0,0,0,.1,0h.2c0,.1-.8.1-.8.1h0c0-.1.1-.1.1-.1,0,0,0,0,.1,0,0,0,0,0,0,0v-.9c0,0,0-.1,0-.1,0,0,0,0-.1,0h-.1c0-.1,0-.1,0-.1ZM49.7,29.2c-.2,0-.4,0-.5.2,0,0-.1.2-.1.2,0,0,0,.1,0,.2s0,0,.2,0c.1,0,.2,0,.3-.1,0,0,.1-.2.1-.3,0,0,0-.2,0-.2ZM50.2,29.8h0c0,.2-.1.2-.2.2,0,0-.1,0-.2,0,0,0,0-.1-.1-.2,0,0-.2.1-.2.2,0,0-.2,0-.3,0-.1,0-.2,0-.3,0,0,0-.1-.1-.1-.2,0-.1,0-.3.2-.4.2,0,.4-.2.7-.2v-.2c0,0,0-.1,0-.2,0,0-.1,0-.2,0,0,0-.2,0-.2,0,0,0,0,0,0,0s0,0,0,0c0,0,0,0,0,.1,0,0,0,0,0,.1,0,0,0,0-.1,0,0,0,0,0-.1,0,0,0,0,0,0-.1,0,0,0-.2.2-.3.1,0,.3-.1.4-.1.2,0,.3,0,.4.1,0,0,.1.2.1.3v.7c0,0,0,.1,0,.1,0,0,0,0,0,0s0,0,.1,0ZM51.1,27.8v2s0,0,0,0c0,0,0,0,0,0h.1c0,.1-.8.1-.8.1h0c0-.1.1-.1.1-.1,0,0,0,0,0,0,0,0,0,0,0,0v-1.7c0,0,0,0,0-.1,0,0,0,0-.1,0h-.1c0-.1.5-.1.5-.1ZM52.6,27.8h1c0,.1-.2.1-.2.1,0,0,0,0-.1,0,0,0,0,0,0,0v1.2c0,0,0,.2,0,.3,0,0,0,.2.2.2.1,0,.2,0,.3,0,.2,0,.3,0,.4-.2.1-.1.2-.3.2-.4v-1c0,0,0-.1,0-.2,0,0,0,0,0-.1,0,0,0,0,0,0,0,0-.1,0-.2,0h0c0-.1.8-.1.8-.1h0c0,.1,0,.1,0,.1,0,0-.2,0-.2,0,0,0,0,.1,0,.2v1.1c0,.2,0,.4-.2.5-.1.1-.3.2-.6.2s-.4,0-.5,0c-.1,0-.2-.1-.3-.3,0-.1,0-.2,0-.3v-1.3s0,0,0,0c0,0,0,0-.1,0h-.2s0-.1,0-.1ZM55.2,28.6h.5c0,0,0,.2,0,.3,0,0,.1-.2.2-.2,0,0,.2,0,.3,0,0,0,.2,0,.2,0,0,0,.1,0,.1.2,0,0,0,.2,0,.3v.7c0,0,0,0,0,.1,0,0,0,0,.1,0h0c0,.1-.7.1-.7.1h0c0-.1,0-.1,0-.1,0,0,.1,0,.1,0,0,0,0,0,0,0v-.6c0,0,0-.2,0-.3,0,0-.1-.1-.2-.1-.1,0-.2,0-.3.1,0,0-.1.2-.1.3v.5c0,0,0,0,0,.1,0,0,0,0,.1,0h0c0,.1-.7.1-.7.1h0c0-.1,0-.1,0-.1,0,0,0,0,.1,0,0,0,0,0,0,0v-.9s0,0,0-.1c0,0,0,0-.1,0h0c0,0,0,0,0,0ZM57.5,27.8s0,0,.1,0c0,0,0,0,0,.1,0,0,0,0,0,.1,0,0-.2,0-.2,0,0,0,0-.2,0-.2,0,0,0,0,0,0,0,0,0,0,.1,0ZM57.1,28.6h.5s0,1.2,0,1.2c0,0,0,0,0,0,0,0,0,0,0,0h.2c0,.1-.8.1-.8.1h0c0-.1.1-.1.1-.1,0,0,0,0,0,0,0,0,0,0,0,0v-.9c0,0,0,0,0-.1,0,0,0,0-.1,0h-.1s0-.1,0-.1ZM58.2,28.6h.7c0,0-.1.1-.2.1,0,0,0,0,0,0,0,0,0,0,0,0l.4.8.3-.8s0,0,0,0c0,0,0-.1-.2-.1h0c0,0,.6,0,.6,0h0c0,.1,0,.1-.1.1,0,0,0,0,0,.1l-.5,1.2h0l-.5-1.2s0,0,0,0c0,0,0,0-.1,0h0ZM60.3,29.2h.6s0,0,0,0c0,0,0,0,0-.1,0,0,0-.2,0-.3,0,0-.1-.1-.2-.1-.1,0-.2,0-.3.1,0,0-.1.2-.1.4ZM61.3,29.3h-1c0,.2,0,.4.1.4,0,0,.2.1.3.1.2,0,.3-.1.5-.3h0c-.1.3-.3.5-.6.5-.2,0-.3,0-.5-.2-.1-.1-.2-.3-.2-.5,0-.2,0-.4.2-.5.1-.1.3-.2.5-.2.1,0,.2,0,.3,0,0,0,.2.2.2.3,0,0,0,.2,0,.3ZM61.6,28.6h.5s0,.5,0,.5c0-.2.1-.3.2-.4,0,0,.2-.1.3-.1,0,0,.1,0,.2,0,0,0,0,.1,0,.2,0,0,0,.1,0,.1,0,0,0,0-.1,0,0,0,0,0-.1,0,0,0,0,0,0-.1,0,0,0,0,0,0,0,0,0,0,0,0,0,0,0,0,0,0,0,0,0,0-.1,0,0,0-.1.2-.2.3,0,.2,0,.3,0,.4v.3s0,0,0,0c0,0,0,0,.1,0h.2c0,.1-.8.1-.8.1h0c0-.1.1-.1.1-.1,0,0,0,0,.1,0,0,0,0,0,0,0v-.9c0,0,0-.1,0-.1,0,0,0,0-.1,0h-.1ZM63.3,29.5c0,.2.1.3.2.3,0,0,.2,0,.3,0,0,0,.2,0,.2,0,0,0,0-.1,0-.2,0,0,0-.1-.1-.2,0,0-.2,0-.3,0-.1,0-.2,0-.3,0-.1,0-.2-.2-.2-.3,0,0,0-.2.1-.3,0-.1.2-.2.4-.2.1,0,.2,0,.3.1h0c0-.1,0-.1,0-.1v.5s0,0,0,0c0-.1,0-.2-.2-.3,0,0-.2,0-.3,0,0,0-.2,0-.2,0,0,0,0,.1,0,.2,0,0,0,.1,0,.1,0,0,.1,0,.3,0,.2,0,.3,0,.3,0,0,0,.1,0,.2.1,0,0,0,.1,0,.2,0,.1,0,.2-.1.3,0,0-.2.1-.4.1-.1,0-.3,0-.4-.1h-.1c0,.1,0,.1,0,.1v-.5s0,0,0,0ZM65,27.8s0,0,.1,0c0,0,0,.2,0,.2,0,0,0,0,0,0,0,0,0,0-.1,0,0,0,0,0-.1,0,0,0,0-.2,0-.2,0,0,0,0,0,0,0,0,0,0,.1,0ZM64.6,28.6h.5s0,1.2,0,1.2c0,0,0,0,0,0,0,0,0,0,0,0h.2c0,.1-.8.1-.8.1h0c0-.1.1-.1.1-.1,0,0,0,0,0,0,0,0,0,0,0,0v-.9s0,0,0-.1c0,0,0,0-.1,0h-.1c0-.1,0-.1,0-.1ZM66.1,28.1h0v.6h.4c0,.1-.4.1-.4.1v.9c0,0,0,.1,0,.2,0,0,0,0,.1,0s.1,0,.2,0c0,0,0-.2,0-.3h0c0,.2,0,.3-.1.4,0,0-.2.1-.3.1,0,0-.2,0-.3,0,0,0,0-.2,0-.2v-.9h-.2c0-.1.2-.2.2-.2,0-.1.1-.3.1-.5ZM67,28.6h.7c0,0,0,0,0,0,0,0,0,0-.1,0,0,0,0,0,0,0,0,0,0,0,0,0l.4.8.3-.7s0,0,0-.1c0,0,0,0,0,0,0,0-.1,0-.2,0h0c0,0,.6,0,.6,0h0c-.1.1-.2.2-.2.2l-.5,1.2c0,.2-.2.3-.3.4,0,0-.2.1-.3.1,0,0-.1,0-.2,0,0,0,0,0,0-.1,0,0,0,0,0-.1,0,0,0,0,.1,0,0,0,0,0,0,0,0,0,0,0,0,0,0,0,0,0,0,0,0,0,0,0,0,0,0,0,0,0,0,0,0,0,0,0,.1,0,0,0,0,0,.1-.1,0,0,0-.2.2-.3l-.5-1.1s0,0,0,0c0,0,0,0-.1,0h0ZM72.7,28.6h.3c0,.1-.3.1-.3.1v1s0,0,0,0c0,0,0,0,.1,0h.2c0,.1-.8.1-.8.1h0c0-.1.1-.1.1-.1,0,0,0,0,.1,0,0,0,0,0,0,0v-1h-.2c0-.1.2-.1.2-.1h0c0-.3,0-.5.2-.7,0-.1.2-.2.4-.2.1,0,.2,0,.3,0,0,0,0,.1,0,.2,0,0,0,0,0,.1,0,0,0,0-.1,0,0,0,0,0-.1,0,0,0,0,0,0,0,0,0,0,0,0-.1,0,0,0,0,0,0,0,0,0,0,0,0,0,0,0,0,0,0,0,0-.2,0-.2.1,0,0,0,.2,0,.3v.3h0ZM74.4,27.8h1.8v.7s0,0,0,0c0-.3-.1-.4-.2-.5,0,0-.2-.1-.4-.1h-.3s0,0,0,0c0,0,0,0,0,0v.8h.2c0,0,.2,0,.2-.1,0,0,0-.2,0-.3h.1v1h-.1c0-.2,0-.3,0-.3,0,0-.2-.1-.2-.1h-.2v.8s0,0,0,.1c0,0,0,0,.1,0h.2c0,.1-1,.1-1,.1h0c0-.1.2-.1.2-.1,0,0,0,0,0,0,0,0,0,0,0,0v-1.7s0,0,0,0c0,0,0,0-.1,0h-.2s0-.1,0-.1ZM76.9,27.8c0,0,.2,0,.2.2,0,0,0,0,0,.1,0,0,0,0-.1,0,0,0,0,0-.1,0,0,0,0,0,0-.1,0,0,0,0,0-.1,0,0,0,0,.1,0ZM76.5,28.6h.5s0,1.2,0,1.2c0,0,0,0,0,0,0,0,0,0,0,0h.2c0,.1-.8.1-.8.1h0c0-.1.1-.1.1-.1,0,0,0,0,0,0,0,0,0,0,0,0v-.9s0,0,0-.1c0,0,0,0-.1,0h-.1s0-.1,0-.1ZM77.6,28.6h.5c0,0,0,.2,0,.3,0,0,.1-.2.2-.2,0,0,.2,0,.3,0,0,0,.2,0,.2,0,0,0,.1,0,.1.2,0,0,0,.2,0,.3v.7c0,0,0,0,0,.1,0,0,0,0,.1,0h0c0,.1-.7.1-.7.1h0c0-.1,0-.1,0-.1,0,0,.1,0,.1,0,0,0,0,0,0,0v-.6c0,0,0-.2,0-.3,0,0-.1-.1-.2-.1-.1,0-.2,0-.3.1,0,0-.1.2-.1.3v.5c0,0,0,0,0,.1,0,0,0,0,.1,0h0c0,.1-.7.1-.7.1h0c0-.1,0-.1,0-.1,0,0,0,0,.1,0,0,0,0,0,0,0v-.9s0,0,0-.1c0,0,0,0-.1,0h0c0,0,0,0,0,0ZM80.5,29.2c-.2,0-.4,0-.5.2,0,0-.1.2-.1.2,0,0,0,.1,0,.2,0,0,0,0,.2,0,.1,0,.2,0,.3-.1,0,0,.1-.2.1-.3,0,0,0-.2,0-.2ZM81,29.8h0c0,.2-.1.2-.2.2,0,0-.1,0-.2,0,0,0,0-.1-.1-.2,0,0-.2.1-.2.2,0,0-.2,0-.3,0-.1,0-.2,0-.3,0,0,0-.1-.1-.1-.2,0-.1,0-.3.2-.4.2,0,.4-.2.7-.2v-.2c0,0,0-.1,0-.2,0,0-.1,0-.2,0,0,0-.1,0-.2,0,0,0,0,0,0,0s0,0,0,0c0,0,0,0,0,.1,0,0,0,0,0,.1,0,0,0,0-.1,0,0,0,0,0-.1,0,0,0,0,0,0-.1,0,0,0-.2.2-.3.1,0,.2-.1.4-.1s.3,0,.4.1c0,0,.1.2.1.3v.7c0,0,0,.1,0,.1,0,0,0,0,0,0,0,0,0,0,.1,0ZM81.4,28.6h.5c0,0,0,.2,0,.3,0,0,.1-.2.2-.2,0,0,.2,0,.3,0,0,0,.2,0,.2,0,0,0,.1,0,.1.2,0,0,0,.2,0,.3v.7c0,0,0,0,0,.1,0,0,0,0,.1,0h0c0,.1-.7.1-.7.1h0c0-.1,0-.1,0-.1,0,0,.1,0,.1,0s0,0,0,0v-.6c0,0,0-.2,0-.3,0,0-.1-.1-.2-.1-.1,0-.2,0-.3.1,0,0-.1.2-.1.3v.5c0,0,0,0,0,.1,0,0,0,0,.1,0h0c0,.1-.7.1-.7.1h0c0-.1,0-.1,0-.1,0,0,0,0,.1,0,0,0,0,0,0,0v-.9c0,0,0-.1,0-.1,0,0,0,0-.1,0h0ZM84.4,29.6h0c0,.3-.2.4-.5.4-.2,0-.3,0-.5-.2-.1-.1-.2-.3-.2-.5,0-.2,0-.4.2-.6.1-.1.3-.2.5-.2.1,0,.2,0,.3.1,0,0,.1.2.1.2,0,0,0,0,0,.1,0,0-.2,0-.2,0,0,0,0,0,0,0,0,0,0,0,0-.1,0,0,0,0,0-.1,0,0,0,0,0,0,0,0,0,0,0,0,0,0-.1,0-.2,0-.1,0-.2,0-.3.1,0,.1-.1.3-.1.5,0,.2,0,.3.1.4,0,0,.2.2.3.2s.3-.1.4-.3h0ZM85.1,29.2h.6s0,0,0,0c0,0,0,0,0-.1,0,0,0-.2,0-.3,0,0-.1-.1-.2-.1-.1,0-.2,0-.3.1,0,0-.1.2-.1.4ZM86.1,29.3h-1c0,.2,0,.4.1.4,0,0,.2.1.3.1.2,0,.3-.1.5-.3h0c-.1.3-.3.5-.6.5-.2,0-.3,0-.5-.2-.1-.1-.2-.3-.2-.5,0-.2,0-.4.2-.5.1-.1.3-.2.5-.2.1,0,.2,0,.3,0,0,0,.2.2.2.3,0,0,0,.2,0,.3ZM89.6,28.6h.5c0,0,0,.2,0,.3,0,0,.1-.2.2-.2,0,0,.2,0,.3,0,0,0,.2,0,.2,0,0,0,.1,0,.1.2,0,0,0,.2,0,.3v.7c0,0,0,0,0,.1,0,0,0,0,.1,0h0c0,.1-.7.1-.7.1h0c0-.1,0-.1,0-.1,0,0,.1,0,.1,0,0,0,0,0,0,0v-.6c0,0,0-.2,0-.3,0,0-.1-.1-.2-.1-.1,0-.2,0-.3.1,0,0-.1.2-.1.3v.5c0,0,0,0,0,.1,0,0,0,0,.1,0h0c0,.1-.7.1-.7.1h0c0-.1,0-.1,0-.1,0,0,0,0,.1,0,0,0,0,0,0,0v-.9s0,0,0-.1c0,0,0,0-.1,0h0q0,0,0,0ZM92.2,28.7c0,0-.2,0-.2.1,0,0,0,.2,0,.4s0,.4,0,.5c0,0,.1.1.2.1s.2,0,.3-.2c0-.1.1-.3.1-.4s0-.3-.1-.4c0,0-.2-.1-.3-.1ZM92.3,27.8h.5s0,1.8,0,1.8c0,0,0,.1,0,.2,0,0,0,0,.1,0h0c0,.1-.5.1-.5.1v-.3c0,0-.1.2-.2.2,0,0-.2,0-.2,0-.2,0-.3,0-.4-.2-.1-.1-.2-.3-.2-.5s0-.4.2-.6c0-.1.2-.2.4-.2,0,0,.2,0,.2,0,0,0,.1.1.2.2v-.8s0,0,0,0c0,0,0,0-.2,0h0q0-.1,0-.1ZM94.5,27.8h1.7v.7s0,0,0,0c0-.2,0-.4-.2-.5,0,0-.2-.1-.3-.1h-.4s0,0,0,0c0,0,0,0,0,0v.8h.2c0,0,.2,0,.2-.1,0,0,0-.2,0-.3h0v1h0c0-.2,0-.3,0-.4,0,0-.2-.1-.3-.1h-.2v.9s0,0,0,0c0,0,0,0,.1,0h.3c.4,0,.6-.2.6-.7h.1v.8h-1.8c0-.1.1-.1.1-.1,0,0,0,0,.1,0,0,0,0,0,0,0v-1.7s0,0,0,0c0,0,0,0,0,0h-.2q0-.1,0-.1ZM97.7,29.6h0c0,.3-.2.4-.5.4-.2,0-.3,0-.5-.2-.1-.1-.2-.3-.2-.5,0-.2,0-.4.2-.6.1-.1.3-.2.5-.2.1,0,.2,0,.3.1,0,0,.1.2.1.2,0,0,0,0,0,.1,0,0-.2,0-.2,0,0,0,0,0,0,0,0,0,0,0,0-.1,0,0,0,0,0-.1,0,0,0,0,0,0,0,0,0,0,0,0,0,0-.1,0-.2,0-.1,0-.2,0-.3.1,0,.1-.1.3-.1.5,0,.2,0,.3.1.4,0,0,.2.2.3.2s.3-.1.4-.3h0ZM98.8,28.7c-.1,0-.2,0-.3.1,0,0-.1.3-.1.5s0,.4.1.5c0,0,.2.2.3.2s.2,0,.3-.2c0-.1.1-.3.1-.5s0-.4-.1-.5c0,0-.2-.1-.3-.1h0ZM98.8,28.6c.2,0,.3,0,.5.2.1.1.2.3.2.5s0,.3,0,.4c-.1.2-.3.3-.6.3-.2,0-.3,0-.4-.2-.1-.1-.2-.3-.2-.5,0-.2,0-.4.2-.5.1-.1.3-.2.5-.2h0ZM99.8,28.6h.5c0,0,0,.2,0,.3,0,0,.1-.2.2-.2,0,0,.2,0,.3,0,0,0,.2,0,.2,0,0,0,.1,0,.1.2,0,0,0,.2,0,.3v.7c0,0,0,0,0,.1,0,0,0,0,.1,0h0c0,.1-.7.1-.7.1h0c0-.1,0-.1,0-.1,0,0,.1,0,.1,0,0,0,0,0,0,0v-.6c0,0,0-.2,0-.3,0,0-.1-.1-.2-.1-.1,0-.2,0-.3.1,0,0-.1.2-.1.3v.5c0,0,0,0,0,.1,0,0,0,0,.1,0h0c0,.1-.7.1-.7.1h0c0-.1,0-.1,0-.1,0,0,0,0,.1,0,0,0,0,0,0,0v-.9s0,0,0-.1c0,0,0,0-.1,0h0q0,0,0,0ZM102.4,28.7c-.1,0-.2,0-.3.1,0,0-.1.3-.1.5s0,.4.1.5c0,0,.2.2.3.2.1,0,.2,0,.3-.2,0-.1.1-.3.1-.5s0-.4-.1-.5c0,0-.2-.1-.3-.1ZM102.4,28.6c.2,0,.3,0,.5.2.1.1.2.3.2.5,0,.2,0,.3,0,.4-.1.2-.3.3-.6.3-.2,0-.3,0-.5-.2-.1-.1-.2-.3-.2-.5,0-.2,0-.4.2-.5.1-.1.3-.2.5-.2ZM103.5,28.6h.4c0,0,0,.2,0,.3,0,0,.1-.2.2-.2,0,0,.2,0,.2,0,0,0,.2,0,.2,0,0,0,.1.1.1.2,0,0,.1-.2.2-.2,0,0,.2,0,.3,0,.1,0,.2,0,.3.1,0,0,.1.2.1.4v.7s0,0,0,0c0,0,0,0,.1,0h0c0,.1-.7.1-.7.1h0c0-.1,0-.1,0-.1,0,0,0,0,.1,0,0,0,0,0,0,0v-.7c0,0,0-.2,0-.2,0,0-.1,0-.2,0,0,0-.1,0-.2,0,0,0,0,0-.1.1,0,0,0,.1,0,.2v.6s0,0,0,0c0,0,0,0,0,0h0c0,.1-.7.1-.7.1h0c0-.1,0-.1,0-.1,0,0,0,0,.1,0,0,0,0,0,0,0v-.6c0-.1,0-.2,0-.3,0,0-.1,0-.2,0-.1,0-.2,0-.2.1,0,0-.1.2-.1.3v.5s0,0,0,0c0,0,0,0,.1,0h0c0,.1-.7.1-.7.1h0c0-.1.1-.1.1-.1,0,0,0,0,0,0,0,0,0,0,0,0v-.9c0,0,0,0,0-.1,0,0,0,0-.2,0h0c0,0,0-.1,0-.1ZM106.6,27.8s0,0,.1,0c0,0,0,0,0,.1,0,0,0,0,0,.1,0,0-.2,0-.2,0,0,0,0,0,0-.1,0,0,0,0,0-.1,0,0,0,0,.1,0ZM106.2,28.6h.5s0,1.2,0,1.2c0,0,0,0,0,0,0,0,0,0,0,0h.2c0,.1-.8.1-.8.1h0c0-.1.1-.1.1-.1,0,0,0,0,0,0,0,0,0,0,0,0v-.9c0,0,0,0,0-.1,0,0,0,0-.1,0h-.1s0-.1,0-.1ZM108.3,29.6h0c0,.3-.2.4-.5.4-.2,0-.3,0-.5-.2-.1-.1-.2-.3-.2-.5,0-.2,0-.4.2-.6.1-.1.3-.2.5-.2.1,0,.2,0,.3.1,0,0,.1.2.1.2,0,0,0,0,0,.1,0,0,0,0-.1,0,0,0,0,0-.1,0,0,0,0,0,0-.1,0,0,0,0,0-.1,0,0,0,0,0,0,0,0,0,0,0,0,0,0,0,0-.2,0-.1,0-.2,0-.3.1,0,.1-.1.3-.1.5,0,.2,0,.3.1.4,0,0,.2.2.3.2s.3-.1.4-.3h0ZM108.9,29.5c0,.2.1.3.2.3,0,0,.2,0,.3,0,0,0,.2,0,.2,0,0,0,.1-.2,0-.3,0,0,0,0,0,0,0,0-.2,0-.3,0-.1,0-.2,0-.3,0,0,0-.1,0-.1-.1,0,0,0-.1,0-.2,0,0,0-.2.1-.3,0-.1.2-.2.4-.2.1,0,.2,0,.3.1h0c0-.1,0-.1,0-.1v.5s0,0,0,0c0-.1,0-.2-.2-.3,0,0-.2,0-.3,0,0,0-.2,0-.2,0,0,0,0,.1,0,.2,0,0,0,.1,0,.1,0,0,.1,0,.3,0,.2,0,.3,0,.3,0,0,0,.1,0,.2.1,0,0,0,.1,0,.2,0,.1,0,.2-.1.3-.1,0-.2.1-.4.1-.1,0-.3,0-.4-.1h-.1c0,.1,0,.1,0,.1v-.5s0,0,0,0ZM42.5,16.8v-.9c0,0,.7-.2.8,0,0,.1-.8,1-.8.9ZM40.6,17.7l-2.3,1.4-.8-1.3s.9-.5,1.6-.9c.8-.3,1.1-.4,1.4-.2.3.2,0,1,0,1h0ZM45.3,15.1c-.5-.9-2.6-.3-2.6-.3,0,0,0-1.3-.2-2.2-.2-.9-1.7-1.6-1.7-1.6v4.3c-.5.1-4.2,1.6-4.2,1.6l-.4-.3s-.1.6,0,1.3c.1.7,1,1.8,1,1.8,0,0-1,.5-.7,1.2.3.7.7,1,1.4.6.7-.4,2.8-.9,2.8-.9,0,0-.2,3.1,0,3.9.3.8.8,1,1,.8.3-.2,0-4.2.2-4.9,0-.7.6-.5,1.3-.7.6-.2,1.3,0,1.4-.8,0-.8-1.2-.7-1.2-.7-.2-.4,1.3-1,1.8-1.4.5-.4.5-.8,0-1.7ZM54.4,17s.1-1,.5-1.2c.4-.2,1.4-.4,1.4-.4,0,0-.8,1.2-1.8,1.5ZM52,18.6c-.2,0-.5-1.4-.5-1.4-.2,0,1.6-1,1.7-.7.3,1-1.1,2-1.2,2ZM58.2,17.6c-.5,0-2.5.5-2.6.5,0,0,.3-.5.8-.8.6-.3,1.7-.9,1.4-2-.3-1.1-3.1-.4-3.1-.4,0,0,.6-1.5.3-2.2-.3-.7-1.1-1.1-1.6-1.1-.5,0,0,.4,0,.4.4.2.7.7.7,1.6,0,.9-.7,1.6-.7,1.6-.7.2-2.7,1.2-2.7,1.2,0,0-.6-.6-.9-.5-.3,0-.2.5.1,1.5.3,1,.9,1.9.9,1.9,0,0-.3.4-1.1.9-.8.5-1.6.9-1.5,1.8.2.8.8,1,1.3.5.5-.5,2.3-1.4,2.3-1.4,0,0-.2.6-.3,1.7-.1,1.1.9,1.4.9,1.4,0-.8.8-3,1.8-3.9,1-.9,3.1-1.1,4.1-1,1,.1,1.1-.1,1.1-.1.6-.8-.8-1.3-1.3-1.4Z"/>
      <path class="cls-1" d="M55,20.3s.8,1.1.9,2.3c.1,1.3,0,2.3.6,2.2.7,0,.7-1.3.2-2.7-.5-1.4-1.7-1.9-1.7-1.9h0ZM67.5,19.1v-1l2.3-1.1c-.4,1.2-2.3,2.1-2.3,2.1h0ZM71.8,15.2c0-.3,0-.6.2-1.4.2-.8.3-1.4-.2-1.9-.5-.5-1.5-.3-1.5-.3.4.3.5.6.5,1.4s-.1,2.6-.1,2.6l-2.8,1.3c-.1-.3,0-.2.2-1.5.2-1.2,0-2-1-2.2-.8-.2-2.6.6-3.1.9-.5.3-1.4,0-1.4,0-.2.6.5.6.6,1.1.1.4-.8,2.2-.8,3.2,0,1,1.1,1,1.1,1,0,0,.5-1.4.5-1.4.3-.5.2-2.5.2-2.5,0,0,.2,0,.6,0,.4,0,1-.7,1.3-.4.3.3,0,4.4,0,4.4-.3-.4-1-1-1-1,0,0,.7-1.1.8-1.9.1-.8-1.3-.3-1.3-.3.7.1.8.3.5.8-.2.5-2.4,3.6-2.8,4.4-.5.7-.1,1.1.2,1.4.3.3.7-.7,1.2-1.7.6-1.1,1-2.2,1-2.2.5.2.8,1.8,1.3,2.6.4.9.9.5.9.5l-.2-.9s0,0,.3,0,.3-1,.3-1c0,0,.3.5.9.5.6,0,2.1-.8,2.1-.8,0,1.2-.2,1.3-.2,3.2s1.2,1.5,1.2,1.5v-5.5c1.1-1.1.8-2.3.7-2.5-.2-.2-.4-.4-.3-.7.1-.2,1.2-.2,1.2-.2.3-.8-1.1-.8-1.1-.8h0ZM79.4,12.8s0,.4,0,.5c-.1.1-3.2,3.2-3.2,3.7,0,.5.8.6.8.6,0,0,.5-.8.7-.7.1,0-.2,1-.5,1.6-.3.5,0,1.2.8.7,0,0,.1.4,0,1.4-.2,1-.8,2.4-.8,2.4,0,0,.7,1.4.9.8.2-.6,0-.5.5-1.6.5-1.1.7-1.2.7-1.2l.5.6s2-2.4,2.7-3.5c0,0,1.6-.2,2.5,0,.9.2,1.5,1.3,1.9.4.4-.8-1.2-1.4-4.1-1.1,0,0,2.3-2.7,2.4-3.3.1-.6-.2-1.1-1.3-.9-1.1.2-1.7,1.9-3.8,1.5,0,0,.2.8,1.7.9,0,0-.4,1.1-1.5,2.4-1.1,1.3-1.3,2.2-1.6,2.5,0,0,0-1.1-.1-1.5-.2-.3-.5-.6-.5-.6,0,0,1.1-1.8.8-2-.3-.2-.9,0-.5-.4.4-.5,2-2.1,1.9-2.5-.1-.4-.5-.7-.7-.6Z"/>
      <path class="cls-1" d="M82.1,19.2s3.3-.2,3.2.4c-.1.6-1.4,1.6-1.4,1.6,0,0,1.9,0,1.8,1-.1.9-1.6.6-2.4.8-.8.2-1.8.5-2.1-.5-.3-1,0-.8.9-1.4.5-.3,1-.7,1.4-1.1,0,0-1.3-.3-1.3-.8h0ZM93.8,12.9s.3.4.2.8c-.1.4-.6,2.9-.9,3-.4,0-1.6.4-1.6.4,0,0-.4,1.8.8,1.7,0,0,0,1.7-.9,2.3-.9.7-1.4.3-1.6,0,0,0-.6,2.3.7,2.6,1.3.3,2.9-.7,3.5-3.3,0,0,.6.1,1.7.8,1.1.7,2,1.6,3.3,1.3,1.3-.3,1.9-1.1,2.5-.9,0,0-.3-.6-1.3-.9-1-.3-2.7,0-3.5-.2-.9-.3-2-.8-1.8-1.6,0,0,3-1.2,3.1-1.6.1-.5-.6-1.3-1.1-1.4-.6,0-1.8.2-1.8.2,0,0,.8-1.6.6-2-.1-.4-1.6-1.6-1.8-1ZM107,12.4s-1.6,1.6-1.1,2c.5.4.8.6,1.5,0,.7-.6,1.1-1.3,1.1-1.3,0,0,.9.1.7.5s-3.4,3-3.7,2.4c-.2-.7-.4-1.4-.7-.8-.3.6-1.6,4.2-1.2,4.8.5.6,1.2,1.1,1.3.9.1-.2.3-3.1.8-3.5.6-.4,5.9-2.4,6.1-1.8.2.6-.5.7,0,1.2.5.5,1.9.2,2-.4.1-.6,0-1.3-1-1.6-.9-.3-2.5-.4-2.5-.4,0,0,.6-.7.9-1.4.3-.7-.1-.9-.4-1.1-.3-.2-.8,0-1.2.4l-.3.4s-.5-.4-.9-.2c-.4.1-2,2-1.9,1.5.1-.5.9-1.1.7-1.4-.3-.3-.5-.2-.5-.2Z"/>
      <path class="cls-1" d="M106.7,17.4c.1,0,.5.4,1.5-.3,1-.7,2.1-1,2.7-.3.6.7-.7,1.3-1,1.9-.3.5-.2.4,0,.4.2,0,2.7-.3,2.8.7.1,1-.9.6-1.4.7-.4.1-.9,0-.9.3,0,.2,0,3.5-.6,3.9-.6.4-2.2-.1-2.7-.7-.5-.6-.7-1-.6-2.1,0,0,.9,1.4,1.6,1.3.7,0,1-.3,1.1-1.1.2-.8-.1-1.1-.1-1.1,0,0-2.7,1.3-2.8,0-.2-1.4.1-1.3.4-1.1.3.2,1.9,0,1.7-.3-.3-.4-.4-.5-.3-.7.1-.2.1-.4.1-.4,0,0-.7.3-1.1,0-.4-.3-.9-.6-.4-.9ZM71.2,28.6c-.1,0-.2,0-.3.1,0,0-.1.3-.1.5s0,.4.1.5c0,0,.2.1.3.1s.2,0,.3-.1c0-.1.1-.3.1-.5s0-.4-.1-.5c0,0-.2-.1-.3-.1ZM71.2,28.5c.2,0,.3,0,.5.2.1.1.2.3.2.5s0,.3,0,.4c-.1.2-.3.3-.6.3-.2,0-.3,0-.5-.2-.1-.1-.2-.3-.2-.5,0-.2,0-.4.2-.5.1-.1.3-.2.5-.2ZM88.6,29.2c-.2,0-.4,0-.5.2,0,0-.1.2-.1.2,0,0,0,.1,0,.2,0,0,0,0,.2,0,.1,0,.2,0,.3-.1,0,0,.1-.2.1-.3,0,0,0-.2,0-.2ZM89.1,29.8h0c0,.2-.1.2-.2.2,0,0-.1,0-.2,0,0,0,0-.1-.1-.2,0,0-.1.1-.2.2,0,0-.2,0-.3,0-.1,0-.2,0-.3,0,0,0-.1-.1-.1-.2,0-.1,0-.3.2-.4.2,0,.4-.2.7-.2v-.2c0,0,0-.1,0-.2,0,0-.1,0-.2,0,0,0-.2,0-.2,0,0,0,0,0,0,0s0,0,0,0c0,0,0,0,0,.1,0,0,0,0,0,.1,0,0,0,0-.1,0,0,0,0,0-.1,0,0,0,0,0,0-.1,0,0,0-.2.2-.3.1,0,.2-.1.4-.1s.3,0,.4.1c0,0,.1.2.1.3v.7c0,0,0,.1,0,.1,0,0,0,0,0,0,0,0,0,0,.1,0Z"/>
    </g>
  </g>
</svg>