<?xml version="1.0" encoding="UTF-8"?>
<svg xmlns="http://www.w3.org/2000/svg" version="1.1" viewBox="0 0 128 38.9">
  <defs>
    <style>
      .cls-1, .cls-2 {
        fill: #ad1d32;
      }

      .cls-3 {
        fill: #ac1e32;
      }

      .cls-3, .cls-2 {
        fill-rule: evenodd;
      }
    </style>
  </defs>
  <!-- Generator: Adobe Illustrator 28.7.1, SVG Export Plug-In . SVG Version: 1.2.0 Build 142)  -->
  <g>
    <g id="_图层_1" data-name="图层_1">
      <g>
        <path class="cls-1" d="M40.7,27.1v-.6h-1.4v-.5h1.3v-.5h-1.3v-.4h1.4v-.6h-2.2v2.6h2.2ZM42,27.1v-.4h1v.4h1l-1-2.6h-.9l-1,2.6h.8,0ZM42.9,26.1h-.6l.3-.9s.3.9.3.9ZM45.7,27.1c.3,0,.5,0,.6-.1.2,0,.3-.2.4-.3,0-.1.1-.3.1-.5,0-.1,0-.3-.1-.4,0-.1-.2-.2-.3-.3-.2,0-.4-.2-.8-.2-.1,0-.2,0-.3,0,0,0,0,0,0-.1s0-.1,0-.1c0,0,.1,0,.2,0s.2,0,.3,0c0,0,.1.1.1.3h.8c0-.3-.1-.5-.3-.6-.2-.1-.4-.2-.8-.2s-.5,0-.6.1c-.1,0-.3.2-.4.3,0,.1-.1.2-.1.4,0,.2,0,.4.2.5.2.1.4.2.8.3.2,0,.4,0,.4.2,0,0,0,.1,0,.2,0,0,0,.1,0,.2,0,0-.2,0-.3,0-.1,0-.3,0-.4-.2,0,0,0-.2-.1-.3h-.8c0,.3.1.5.3.7.2.2.5.3.9.3ZM49,27.1v-2h.8v-.6h-2.5v.6h.8v2h.8,0ZM52.5,27.1c.2,0,.4,0,.6,0,.2,0,.3-.2.4-.3.1-.1.2-.3.2-.5l-.7-.2c0,.1,0,.3-.2.4,0,0-.2.1-.3.1-.1,0-.3,0-.4-.2,0-.1-.1-.3-.1-.6s0-.4.1-.5c0-.1.3-.2.4-.2.2,0,.4.1.5.4l.7-.2c0-.3-.2-.5-.4-.6-.2-.1-.4-.2-.8-.2s-.7.1-1,.3-.3.6-.3,1,0,.6.2.8c.1.2.3.4.5.4.2,0,.4.1.7.1h0ZM55.2,27.1v-1.1h.9v1.1h.8v-2.6h-.8v.9h-.9v-.9h-.8v2.6h.8ZM58.6,27.1v-2.6h-.8v2.6h.8ZM60.2,27.1v-1.4l1,1.4h.8v-2.6h-.8v1.4l-1-1.4h-.8v2.6h.8ZM63.3,27.1v-.4h1v.4h1l-1-2.6h-.9l-1,2.6h.8ZM64.2,26.1h-.6l.3-.9.3.9ZM67.2,27.1v-1.4l1,1.4h.8v-2.6h-.8v1.4l-1-1.4h-.8v2.6h.8ZM71.1,27.1c.3,0,.5,0,.7-.2s.3-.3.4-.5c.1-.2.2-.4.2-.8s-.1-.7-.4-1c-.2-.2-.6-.3-1-.3s-.8.1-1,.4c-.2.2-.4.6-.4,1s0,.6.2.8c.1.2.3.3.5.4.2,0,.4.1.7.1h0ZM71,26.5c-.2,0-.3,0-.4-.2,0-.1-.1-.3-.1-.6s0-.5.1-.6c0-.1.2-.2.4-.2.2,0,.3,0,.4.2,0,.1.1.3.1.5s0,.5-.1.6c-.1.1-.2.2-.4.2h0ZM74,27.1v-1.1h0c0,0,.1,0,.2,0,0,0,.1.1.1.2l.4.8h.9l-.4-.8c0,0,0-.1-.1-.2,0,0,0,0-.1-.1,0,0-.1,0-.2,0,0,0,.2,0,.3-.1.1,0,.2-.1.3-.3,0-.1,0-.2,0-.4,0-.2,0-.3-.1-.4,0-.1-.2-.2-.3-.2-.2,0-.4,0-.6,0h-1.3v2.6h.8ZM74.3,25.5h-.3v-.5h.4c.1,0,.2,0,.3,0,0,0,0,.1,0,.2,0,0,0,.1,0,.2,0,0,0,0-.1,0,0,0-.1,0-.2,0h0ZM77,27.1v-2l.5,2h.6l.5-2v2h.7v-2.6h-1.1l-.4,1.6-.4-1.6h-1.1v2.6h.7ZM80.6,27.1v-.4h1v.4h1l-1-2.6h-.9l-1,2.6h.8ZM81.5,26.1h-.6l.3-.9s.3.9.3.9ZM85.3,27.1v-.6h-1.3v-2h-.8v2.6h2.1ZM87.3,27.1c.2,0,.4,0,.6,0,.1,0,.2-.1.3-.2.1-.1.2-.2.2-.4,0-.1,0-.3,0-.4v-1.6h-.8v1.6c0,.1,0,.3-.1.3,0,0-.2.1-.3.1-.1,0-.2,0-.3-.1,0,0-.1-.2-.1-.3v-1.6h-.8v1.6c0,.1,0,.3,0,.4,0,.1,0,.2.2.3,0,0,.2.2.3.2.1,0,.2,0,.4.1.2,0,.3,0,.4,0h0ZM90.1,27.1v-1.4l1,1.4h.8v-2.6h-.8v1.4l-1-1.4h-.8v2.6h.8ZM93.6,27.1v-2.6h-.8v2.6h.8ZM96.1,27.1l1-2.6h-.8l-.6,1.9-.6-1.9h-.8l1,2.6h.9ZM99.8,27.1v-.6h-1.4v-.5h1.3v-.5h-1.3v-.4h1.4v-.6h-2.2v2.6h2.2ZM101.4,27.1v-1.1h0c0,0,.1,0,.2,0,0,0,0,0,.1.2l.4.8h.9l-.4-.8c0,0,0-.1-.1-.2,0,0,0,0-.1-.1,0,0-.1,0-.2,0,0,0,.2,0,.3-.1.1,0,.2-.2.3-.3,0-.1,0-.2,0-.4,0-.2,0-.3-.1-.4,0-.1-.2-.2-.3-.2-.2,0-.4,0-.6,0h-1.3v2.6s.8,0,.8,0ZM101.8,25.5h-.3v-.5h.4c.1,0,.2,0,.3,0,0,0,0,.1,0,.2,0,0,0,.1,0,.2,0,0,0,0-.1,0,0,0-.1,0-.2,0h0ZM104.8,27.1c.3,0,.5,0,.6-.1.2,0,.3-.2.4-.3,0-.1.1-.3.1-.5,0-.1,0-.3-.1-.4,0-.1-.2-.2-.3-.3-.2,0-.4-.2-.8-.2-.1,0-.2,0-.3,0,0,0,0,0,0-.1s0-.1,0-.1c0,0,.1,0,.2,0,0,0,.2,0,.3,0,0,0,.1.1.1.3h.8c0-.3-.1-.5-.3-.6-.2-.1-.4-.2-.8-.2s-.5,0-.6.1c-.1,0-.3.2-.4.3,0,.1-.1.2-.1.4,0,.2,0,.4.2.5.2.1.4.2.8.3.2,0,.4,0,.4.2,0,0,0,.1,0,.2,0,0,0,.1,0,.2,0,0-.2,0-.3,0-.1,0-.3,0-.4-.2,0,0,0-.2-.1-.3h-.8c0,.3.1.5.3.7s.5.3.9.3ZM107.6,27.1v-2.6h-.8v2.6h.8ZM109.9,27.1v-2h.8v-.6h-2.5v.6h.8v2h.8ZM113,27.1v-1.1l1-1.5h-.9l-.5.9-.5-.9h-.9l1,1.5v1.1s.8,0,.8,0Z"/>
        <path class="cls-2" d="M99.8,20.4c0,.3-.1.3-.2.5-.1.3-.5.1-1,.2-.5,0-1.1.2-1.6.1-1.2-.3-3.2-.9-3.3-2.1,0-.4.2-1.1.5-1.1.3,0,.9.9,2.1,1.2.4.1,1,.3,1.6.3,1,0,1.8.2,1.9.8h0ZM96.7,16.5c.5-.3.8-.8.4-1.2-.2-.1-.2-.2-.6-.2-.7,0-.6.4-1.1.4-.2,0,0-.7.4-.8.8-.2,1.7-.6,1.9-1.3.1-.6,0-1.2-.9-.9-.5.1-1.2.4-1.9,1-.8.8-1.6,1.7-2.4,2.1-.5.3-.4,0-.9.1-1.4.3-2.4.8-2.2,1.6.1.5.7.7,1,.7.4,0,.7,0,.6.1,0,.2-.7.8-1.1,1.3-.2.2-.7.6-1.3.9-.9.4-1.2.6-1.2.9,0,.4.4.5.9.5.5,0,2.6-1.2,4-3,.2-.3.7-.6,1-.8.3-.3.4-.6.7-.8,1.1-.5,2.1-.2,2.8-.6ZM109.3,18.9c-.2,0-1.4.3-2,.4-.2,0-.3-.1-.3-.2,0-.5,1.5-.4,1.4-.9,0-.7-.6-1-1.3-.9,0,0-.9.2-1.8.3-.7,0-1.6.6-1.4,1.1.2.5.8.5,1.3.2.2-.1.1-.2.2-.3.1-.2.3-.1.4-.2.2-.2.4-.4.5-.2,0,0,0,.5-.1.6,0,.2-.3.5-.5.6-.8.4-1.8.6-1.9,1.2,0,.1.3.5.5.6.2,0,.3-.1.8-.3.2,0,.6,0,.7,0,.3-.1.6-.4.7-.3.2.3,0,1-.4,1.5-.2.3-.6.6-.8.5,0,0-.7,0-.7.5,0,.5.2.7.4.8.9.3,1.4-.5,2-1.2.3-.4.6-.8.6-1.1,0-.4.2-.4.2-.5,0-.3-.2-.5,0-.6.3-.3.8-.1,1-.1.2,0,.7,0,.9-.2.5-.3,0-1-.3-1.1ZM85.6,19c-.4,0-.6.4-.7.9v.3c-.3.6-1.5,1.1-2.5,1.2h-.3c-.5.1-.9.2-1.3-.2-.2-.2-.3-.6-.2-1.1,0-.4.2-.6.4-.7,0,0,.1,0,.1,0,0,.1.2.2.7,0,0,0,0-.1.2-.3,0-.2.1-.4.2-.5l.2-.3.2-.2c.2-.4.1-.8-.1-1.1-.3-.3-.7-.5-1.2-.5-.7,0-1.5.5-2.1.8-.7.3-1.2.6-1.7.6-.2,0-.3-.1-.3-.2,0,0-.2-.2-.3-.1-.1,0-.3.2-.6.7,0,0-.1.3-.2.5,0,.3-.2.7-.4.8,0,0-.1,0-.2,0,0,0,0,0-.1-.1,0-.3.3-.8.3-.8,0,0,.2-.5.2-.5,0-.1,0-.3.1-.4.4-.6,1-.7,1.7-.7.3,0,.9-.3,1-.4.2-.2,0-.5-.2-.7h0c-.3-.4-.6-.5-.9-.4-.3,0-.7.4-1.1.7-.3.3-.7.5-1,.7h-.1c-.7.5-1.6,1-1.6,1.3,0,0,0,.1,0,.2.2.2.5,0,.8-.3.2-.2.4-.3.5-.2,0,0,0,0,0,.1,0,0,0,.2-.2.3h0c-.1.2-.3.3-.4.8-.2.6,0,.8,0,1l.2.3c0,.1,0,.4,0,.5v.2c.1.2.2.2.3.2,0,0,.1,0,.1,0,0,.2,0,.6-.1.6,0,0,0,0,0,0,0-.1-.3-.1-.4-.1-.2,0-.3.2-.4.3h0c-.4.7-.1,1,.2,1.3.2.2.3.3.8.2.3-.1.5-.6.6-1.2v-.2c.2-.5.4-1,.5-1.2.2-.3.2-.5.2-.7v-.3c.2-.3.4-.4.7-.6.1,0,.3-.1.5-.3l.4-.3c.5-.4.9-.6,1.5-.8.2,0,.4-.2.6-.3.3-.2.6-.3.9-.4h0c.2,0,.7-.1.8,0,0,0,.1.5,0,.6,0,0,0,0-.2,0-.1,0-.1-.1-.1-.2,0,0,0-.2,0-.2-.1,0-.5,0-.5,0-.2,0-.3.2-.5.3-.1.1-.3.3-.4.4-.6.4-.9,1.3-.8,1.9,0,.7.4,1.1.6,1.3h.1c.4.8,1.1,1.3,3,1,1.2-.2,2.3-.7,2.8-1.4.2-.3.4-1.3.2-1.8,0-.2-.2-.3-.4-.3h0ZM70.8,16.5c0-.3-.3,0-.6,0-.3,0-.7,0-.8.3,0,.2,0,.3,0,.7,0,.1.2.4.4.4.2,0,.4-.1.7-.4.4-.4.4-.9.4-.9h0ZM68.4,14.5c-.1,0-.2-.1-.5.4-.2.4-.7,1-.5,1.2.2.1.5,0,.6-.5.2-.6.5-1,.4-1h0ZM64.4,13.8c-.1,0-.5.2-.7.6-.2.4-.2.8-.4,1.3-.2.4,0,.9,0,1.1,0,.1.2.1.2,0,0-.3.1-.7.7-1,.3-.1-.1-.3,0-.5.1-.3.2-.3.1-.9,0-.2.3-.5.1-.7h0ZM72,15.7c0,.4-.1,1.4-.4,1.7-.2.3-.5.9-.9,1-.4.2-1.1.5-1.3,1-.2.4-.2,1.4-.2,2,0,.8,0,2.1-.6,2.1-.4,0-.5-.3-.5-.5,0-.7-.2-1.4-.1-2.3,0-1.3,0-3.5,0-3.5-.2,0-.2.1-.3.2-.2.5.2,1.5-.4,1.7-.2,0-.4,0-.6,0-.3-.2-.3-1.2-.3-1.6,0-.9.2-1.7.6-2.3.3-.5,1-1,.8-1.1-.3-.1-.6,0-.9.3-.2.2-.4.5-.6.9-.2.3-.4.7-.6,1-.1.3-.2.6-.3.9,0,.3-.3.3-.3.6,0,.3,0,.5,0,.8,0,.4-.4.9-.7.9-.7,0-.7-.9-.2-1.5.2-.3.5-.7.2-.8-.3-.1-.4.3-.7.4-.2,0,0-.4-.2-.4-.1,0-.2,0-.2.1-.2.2-.2.4-.2.7,0,.7.5,2,0,2.1-.5,0-.4-.4-.6-.7-.3-.6-.4-1.2-.4-2.1,0-.4,0-1.2.1-1.8,0-.4.2-.8.3-1.1.1-.7.2-1.3.6-1.6.2-.2.6-.3.9-.3.5,0,1,0,1.3.3.4.3.2.9.2,1.6,0,.3-.4.8-.7,1-.1,0-.2,0-.2.1,0,0,0,.3,0,.3.2,0,.5,0,.6.1.2.3.2-.6.7-1.1.2-.2.2-.5.3-.8,0-.2.2-.5.3-.7.1-.4,1.2-.6,2.2-.8.9-.2,1.8-.3,2.1-.2.2.1.4.4.3.6-.2.5-.5.6-1.1.7-.3,0-.4,0-.7,0-.2,0-.2.3,0,.3.3,0,.5.3.5.6,0,.2-.2.5,0,.6.3.3,1.2-.5,1.8-.3.4,0,.6.3.6.8h0ZM109.2,14c.3,0,.4-.4.4-.7,0-.3-.2-.6-.5-.6-.2,0-.2.2-.6.4-.2,0-.6.4-.6,1.5,0,.2-.6.7-.3.9.1.2.6,0,.6,0,0-.1-.1-.4,0-.5,0,0,.3-.2.3-.3.1-.2.2-.5,0-.6-.2-.2,0-.5.3-.5.2,0,.2.4.5.4h0ZM106.8,14.6s-.6.5-.5.7c0,0,0,.2,0,.2.4.5,1-.8.5-.9ZM106,14.3c0-.1.7-.7,0-.6-.3,0-.7.5-.8,1.1,0,.3,0,.2.2.3.2,0,.4-.7.5-.9ZM104.7,13.7c0-.1-.5.3-.6.4,0,0,0,.7,0,1.3,0,.4-.1.8,0,.8.2,0,.1-.2.3-.5.3-.5,0-.4.1-.9,0-.3.4-.9.2-1.2ZM111.3,16.9c-.3.3-.8.2-1.2,0-.2-.1,0-.5-.4-.5-.3,0-.6,0-1,0-.6,0-1.4.3-2.3.4-.6,0-1.1.3-1.4.4-.8.2-2,.4-2.2.7-.2.5.3,1.4-.3,1.6-.3,0-.6-.3-.6-.5-.3-1,.4-2.7.8-2.7.3,0,.2.2.4,0,.2-.1,0-.7.2-1.2.1-.5.2-1.1.4-1.5.2-.5.4-.8,1.1-.9.4,0,.8-1.1,1.2-.9.1,0,0,.5.2.5.3.2.6-.5.9-.6.3,0,.6,0,.7,0,0,.2-.4.7-.5,1,0,.2.1.5.5.4.4,0,.7-.9,1-1.2.3-.3.9-.5,1.3,0,.2.2.1.4.2.6,0,.3.2.4.1.8-.1.5-.5,1-.8,1.4.1-.1-.5.5-.4.6.2.5,2.1-.4,2.4.5.2.5,0,.9-.2,1h0ZM55.4,17.4c0,0,.2-.3.3-.5.4-.3.8-1,.7-1.4,0-.1-.8,0-1.3,0-.3,0-.3.7,0,.8.3.1.2.6.1.8-.1.4,0,.5.2.3h0ZM59.7,20.6c.7.6.3,1.1-.4,1.1-1.2,0-3-.5-3.9-1.3-.4-.3-.6-.7-.8-.7,0,0-.1.4-.1.8,0,.3,0,.6,0,1,0,.4,0,.7,0,1,0,.6-.7.5-1,.1-.1-.2.3-2.2,0-2.1-.3,0-.8.6-1,.9-.3.4-.9,1.2-1.3,1.2-.8,0-1.1-.3-.7-.9.4-.5,1.1-1.3,1.7-1.8.3-.3.7-.6.8-.9,0,0,0-.6.3-.6,0,0,0,.1.2.1.1,0,.4-.3.3-.3-.6-.3,0-.5-.2-.7,0-.2-.3-.4-.3-.6,0-.2.2-.5.5-.6.2,0,.1-.3.1-.3-.8,0-.9.6-1,.7-.2.3-.4.7-.4,1.3.1,1,.1,1.6-.5,1.5-.5-.1-.5-.8-.7-1.7-.2-1,0-2.2.5-2.6.1-.1.3-.2.5-.3.5-.2,1.2-.4,1.2-.3,0,0-.3.3-.4.5,0,.1,0,.3,0,.3.4-.2.9-.2,1.3-1,.1-.2.1-.5,0-.6-.2-.2-.7,0-1.2.1-.5.1-1.4.9-1.6.9-.5,0-.8-.5-.6-.8.1-.2.3-.3.4-.5.4-.4,1-.2,1.7-.3.7-.2,1.3-.2,1.6-.3,0,0,0-.5,0-.6,0-.1.4-.2.5-.3.6-.3.5.4.7.5.5.3,1.4-.4,1.6.2.2.8-1.4.8-1.8,1-.3.2-.2.3-.3.6,0,.5.3,0,.6,0,.6,0,1,0,1.4.1.5.2.3,1.5,0,2-.4.5-.7.9-1,1.2-.2.2-.6.4-.8.6-.2.2.2.4,0,.7-.4.5,0,.5.2.6.4.3.8.5,1,.6.5.1,1.5.4,1.7.5.8.1.6-.2.9,0,0,0,.2.2.3.3h0ZM43.6,17.3c.3.2,1.1-.7,1.2-.9.1-.2.2-.4,0-.4-.3,0-.4-.2-.5-.4-.1-.3.1-.6,0-.7,0,0-.6,0-.7.2,0,.2,0,.5,0,.7-.3.6-.2,1.4,0,1.6h0ZM42.3,14.5c-.3,0-1.9.9-1.7,1.2.2.3,1-.2,1.5-.6.4-.3.4-.5.2-.6ZM42.3,16c0,0-.2.2-.5.4-.2.1-.4.1-.7.3-.3.2-.3.7-.5,1.6,0,.3-.4.3-.2.4.1,0,.5-.2.9-.3.3,0,.6,0,.8-.2.1-.1,0-.6,0-1.2,0-.5,0-.9,0-1h0ZM40.2,17.3c-.2,0-1,.6-.6.9.4.3,1-.9.6-.9h0ZM47.7,18.2c.4.8,0,1.4-.7,1.3-.5,0-.4-.1-1.1,0-1,0-2.3-.3-2.5.3,0,.2-.1.5,0,.5.5,0,1.3-.2,1.8-.3.3,0,.7.3.5,1.1-.2.7-1.9.3-2.4.7-.2.1,0,1.3-.2,1.7,0,.3-.5.2-.8,0-.5-.3,0-1.2-.3-1.4-.2-.2-.8.2-1,.2-.2,0-.9,0-1.2-.1-1.2-.8,1.5-1.6,2.1-1.8.3,0,.4-.4.1-.5-.2,0-.7,0-.9,0-1,.3-1.3.4-2.2.4-.5,0-.7,0-.7-.2,0-.2,0-.6.2-.7.3-.2.8-.3.8-.4,0-.2-.7,0-.7-.6,0-.2,0-.5,0-.7,0-.3.6-.7,1-.9.4-.2,0-.5-.1-.6-.3-.7.3-1,.9-1.4.9-.6,2.2-1,2.2-1,0,0,.1-.1,0-.2-.4-.3-.5,0-.9.1-.8,0-1.4.7-1.7.6-.7-.3-.3-1.1,0-1.2.3-.2.9,0,1.1-.1.6-.3,1.7-.2,2-.2.3,0,.2-.2.3-.3.1,0,.5.1.5.2.3.2.8,0,1.4-.1,1.1-.3,1.3.8.3,1,0,0-1,0-1.5.1-.4,0-.4.5-.2.6.2.1.9,0,1,0,.8,0,.4.3.9.8,1.4,1.3-1,3-1.8,3.1,0,0-.6.1-.3.4.3.3.6,0,1.5,0,.7-.1,2.5-.3,2.7,0h0ZM41.9,12.2c.9-.3.2-1.3-.6-1.2,0,0-.4,0-.6.1-.2,0-.1.2-.2.3-.2.1-.1.3,0,.5.1.4.8.5,1.5.2h0ZM43.8,12.2c.1,0,.2,0,.3,0,.4,0,.8,0,1,0,.7-.5.4-1-.3-1.1-.4,0-1,.2-1.4.8-.2.3.3.4.5.4ZM76,14.8c-.2-.3-.2-.7,0-.9.2-.2.4-.5.5-.7.1-.2.3-.5.5-.7.3-.4,1-1,1.4-1,.2,0,.4,0,.5.3,0,.2,0,.4,0,.5,0,0-.2.2-.3.3-.2.1-.5.3-.7.6h0c-.1.3-.3.5-.2.6h0c0,0,.2-.1.3-.3l.3-.3c.2-.1.5,0,.9,0,.2,0,.4,0,.5,0,.1,0,.3-.1.5-.3.3-.2.6-.4,1.1-.5.2,0,.3-.2.5-.3.2-.1.3-.2.5-.3.4,0,.6,0,.7,0,0,0,0,.2,0,.4,0,.1-.1.2-.2.3-.2.2-.3.4-.1.7h0s0,0,.1,0c.1-.1.3-.3.7,0,.2.2.4.4.4.6,0,.2,0,.4-.2.5-.2.1-.3.2-.5.2-.2,0-.4,0-.6.2-.1.1-.2.3-.3.5-.2.3-.3.5-.6.5-.2,0-.3,0-.4-.1-.1-.1-.2-.4,0-.7,0-.2.3-.3.4-.4.2,0,.4-.2.4-.4,0,0,0-.1-.1-.2,0,0-.2-.2-.2-.3h0c0-.3,0-.4,0-.5,0,0-.2,0-.4,0-.4,0-1.7,1.2-2,1.5l-.2.2c-.2.3-.5.6-.8.6-.3,0-.4-.2-.5-.3,0-.1-.2-.2-.3-.2-.3,0-.4.2-.5.3,0,0,0,.2-.2.2-.3,0-.6-.2-.8-.5h0Z"/>
        <path class="cls-3" d="M24.4,26.3c-3.8,0-6.8-3-6.8-6.8,0-3.8,3-6.8,6.8-6.8,3.8,0,6.8,3,6.8,6.8,0,3.8-3,6.8-6.8,6.8ZM31.5,19.5c0-3.9-3.2-7-7-7-3.9,0-7,3.2-7,7,0,3.9,3.2,7,7,7,3.9,0,7-3.2,7-7ZM24.4,29.5c-5.5,0-10-4.5-10-10,0-5.5,4.5-10,10-10,5.5,0,10,4.5,10,10,0,5.5-4.5,10-10,10h0ZM24.4,9.1c-5.7,0-10.4,4.7-10.4,10.4,0,5.7,4.7,10.4,10.4,10.4,5.7,0,10.4-4.7,10.4-10.4,0-5.7-4.7-10.4-10.4-10.4h0ZM24.8,19.6l2.1,1.4v-.6l-2.1-1.4v.6ZM21.9,19.5l2.1-1.4v-.6l-2.1,1.4v.6ZM21.9,21.1l2.1-1.4v-.6l-2.1,1.4v.6h0ZM28.5,19h0c.2.1.2.4.1.6-.1.2-.4.2-.6.1,0,0,0,0,0,0l-.3-.2v.6l.7.5h0c.2.1.2.4,0,.6s-.4.2-.6,0h0s-.3-.2-.3-.2v.6l.7.5h0c.2.1.2.4.1.6s-.4.2-.6.1c0,0,0,0,0,0l-3.2-2.2v.6l3.2,2.3h0c.2.1.2.4,0,.6-.1.2-.4.2-.6,0h0s-2.8-1.9-2.8-1.9v2.2c0,.2-.2.4-.4.4s-.4-.2-.4-.4v-2.2l-2.8,1.9h0c-.2.1-.4,0-.6,0s0-.4,0-.6h0s3.2-2.3,3.2-2.3v-.6l-3.2,2.2h0c-.2.1-.4,0-.6-.1-.1-.2,0-.4,0-.5h0s.7-.5.7-.5v-.6l-.3.2c-.2.1-.4,0-.6,0s0-.4,0-.6c0,0,0,0,0,0l.7-.5v-.6l-.3.2h0c-.2.1-.4,0-.6-.1-.1-.2,0-.4,0-.5h0s3.6-2.5,3.6-2.5v-.6l-3.2,2.2c-.2.1-.4,0-.6,0-.1-.2,0-.4,0-.6h0l.7-.5v-1c0-.2.2-.4.4-.4s.4.2.4.4c0,0,0,0,0,0v.4l2.1-1.4v-.9c0-.2.2-.4.4-.4s.4.2.4.4v.9l2.1,1.4v-.4c0-.2.2-.4.4-.5.2,0,.4.2.5.4,0,0,0,0,0,0v1l.7.5h0c.2.1.2.4,0,.6-.1.2-.4.2-.6,0h0l-3.2-2.2v.6l3.6,2.5h0ZM24.4,13.1c-3.5,0-6.4,2.9-6.4,6.4,0,3.5,2.9,6.4,6.4,6.4,3.5,0,6.4-2.9,6.4-6.4,0-3.5-2.9-6.4-6.4-6.4ZM24.8,18l2.1,1.4v-.6l-2.1-1.4v.6h0ZM18.4,25.1s0,0,0,0c0,0,0,0,0,.1,0,0,0,0,0,0,0,0-.2,0-.2,0,0,0,0-.1.2-.2,0,0,0,0,0,0,0,0,.1,0,.1,0ZM17.9,25.1c0,0-.1.1-.1.1,0,0,0,0-.1,0,0,0-.1,0-.1,0,0,0,0,0,0,0,.1,0,.2-.1.2-.1,0,0,0,0,.1,0,0,0,.1,0,.1,0,0,0,0,0-.1.1h0ZM17.4,24.9c0,0,.2,0,.2,0,0,0-.2.1-.2,0ZM17.8,24.7c0,0,.3,0,.3,0,0,0,0,0,0,0-.1,0-.3,0-.2,0ZM18.8,24.9c0,0-.2,0-.2-.2,0,0,0,0,0,0,0,0,0,0,0,0,0,0-.2-.2-.3-.2,0,0,0-.1-.1-.1,0,0-.2,0-.1.1,0,0,.2,0,.3.1,0,0,.1,0,.1,0,0,0,0,0,0,0s-.2,0-.4-.1c-.1,0-.2,0-.3,0,0,0,0,.1,0,0,0,0-.2,0-.2,0,0,0,0,0,0,0,0,0,0,.1,0,.2,0,0,0,0-.1,0,0,0,0,0-.1,0,0,0,0,0,0,.1.1,0,.1.1.3.2,0,0,0,0,.1,0,0,0,0,0,0,0,0,0-.5-.3-.5,0,0,0,0,.1.1.2,0,0,.1,0,.1,0,0,0-.2.1-.1.2,0,0,0,.1,0,0,0,0,.2-.2.2-.2.1,0,.3.3.4.2.1,0,.1-.2,0-.2,0,0-.2-.1-.2-.2,0,0,0,0,0,0,0,0,.2.2.3.3,0,0,0,0,.1.1,0,0,.2,0,.2,0,0,0-.2-.2-.3-.3-.1,0-.2-.1-.2-.2s0,0,0,0c.1,0,.6.2.6-.1,0-.1,0-.1,0-.2,0,0-.1,0-.1-.1,0,0,0,0,0,0,0,0,.2.2.2.2.1,0,.3,0,0-.2h0ZM18.5,24.3s0,0,0,0c0,0,0,0,0,0,0,0,0,0,0,0,0,0,0,.1.1.2.1,0,.2-.1,0-.2ZM17.1,22.2h-.2c0,0,.2.6.2.6l-.4.2-.2-.5h-.2c0,0,.2.5.2.5l-.4.2-.2-.5h-.2c0,0,.3.8.3.8l1.4-.6s-.3-.8-.3-.8ZM20.4,26.8c0,0-.1.1-.2.2,0,0,0,0,0,0,0,0,0,0,0,0,0,0,0,0,0-.1,0,0,0-.2,0-.1,0,0,.2.1.2.1ZM20.6,26.2s0-.1,0-.1c0,0,0,0-.1,0,0,0,0,0,0,0,0,0-.1,0-.3-.1-.1,0-.2-.1-.3,0,0,0,0,0-.1,0,0,0,0,.1,0,.2,0,0,.2,0,.3,0,0,0,.2,0,.2,0,0,0,0,0,0,0-.1,0-.2,0-.3,0s0,0,0,0c0,0,.1,0,.1,0,0,0-.1,0-.2,0,0,0,0,0-.1,0-.1,0-.2.2-.3.3,0,.1-.1.2,0,.3,0,0,.1,0,.2-.2,0,0,.1-.1.2-.2,0,0,0-.1.2,0,0,0,0,0,0,0,0,0-.1,0-.1,0,0,0,0,0,0,.1,0,0,0,0,0,.1,0,0,0,0,0,0,0,0,0,0,0,0,0,0,0,0,0,0,0,0-.1,0-.2,0-.1,0-.3,0-.4.1-.1,0-.1.1,0,.2,0,0,.2,0,.3,0,0,0,.2,0,.2,0,0,0-.2.3-.2.3,0,0,.1.2.2,0,0,0,0,0,0-.2,0,0,0,0,0-.1,0,0,0-.1,0-.1,0,0,0,0,0,.2,0,.2.3.4.5.5.1,0,.2,0,.2-.1,0,0,0,0,0,0,0,0,0,0-.1,0,0,0-.2-.2-.2-.2,0,0,0-.1-.1-.2,0,0,0,0,0-.1,0,0,0,0,0-.1,0,0,.1,0,.2,0,0,0,.1,0,.3,0,0,0,.2-.2.2-.3,0,0-.1,0-.2-.1,0,0-.1,0,0,0,0,0,0,0,0,0,0,0,.3.1.4,0,0-.1-.2,0-.2-.2ZM15.7,21.7h0s.7-.4.7-.4v.4c.1,0-.7,0-.7,0ZM17,21.8h-.4s-.1-.5-.1-.5l.3-.2v-.3c0,0-1.4.9-1.4.9v.3c0,0,1.7.1,1.7.1,0,0,0-.3,0-.3ZM18.8,24.7c0,0-.2,0-.3,0,0,0,0,0,0,0s0,0,0,0c0,0,0,.1.1.1.1,0,.2,0,0-.2ZM23.3,28c0,0,0,0-.1,0,0,0,0,0,0,0,0,0,0,0,0-.1,0,0,0,0,.1,0,0,0,.1,0,.1,0,0,0,0,0-.1.1ZM23,27.6c0,0,0,0-.1,0,0,0,0-.1.1-.2,0,0,0,0,0,0,0,0,0,0-.1.2ZM22.4,27.5c-.1,0-.1,0-.2.1,0,0,0,0,0,0,0,0,0-.1,0-.2,0,0,0-.1.1-.2,0,0,.1,0,.1,0,0,0,0,0,0,.1,0,0,0,0,0,.1,0,0,0,0,0,0h0ZM23.6,27.7c0,0-.3,0-.3,0,0,0,0,0,0-.1,0,0,0-.1,0-.1,0,0,0,0,0,0,0,0,0,0,.1,0,0,0,.1,0,.2,0,0,0,0,0,0-.1,0,0-.2,0-.4,0-.2,0-.4,0-.4,0,0,0,0,0,0,0,0,0,0,.1,0,.1-.1,0-.1.2-.2.2,0,0,0,0,0,0,0,0,0,0,0,0s0,0,0,0c0,0,.1,0,.2-.1,0-.1,0-.2,0-.3,0,0-.1,0-.2-.1,0,0-.1,0-.2,0,0,0-.1.1-.2.2,0,0,0,.1,0,.2,0,0,0,.2,0,.3,0,.1,0,.3,0,.4,0,0,0,.1,0,.1,0,0,0-.2,0-.3,0,0,0,0,0-.1,0,0,0,0,0,0,0,0,0,0,0,0,0,0,0,0,.1,0,0,0,0,0,0,.1,0,0-.1.2,0,.2,0,0,.1,0,.1-.1,0,0,0,0,0-.1,0,0,0,0,0,0,0,0,0,0,0-.1,0,0,.1-.1.1-.1,0,0,0,0,.1-.1,0,0,.1,0,.2,0,0,0,0,0-.2.1-.1,0-.2.2-.2.4,0,0,0,.2,0,.3,0,0,0,0,0,0,0,0,0-.2.1-.3,0,0,0,0,0,0,0,0,0,.4-.1.6,0,.1,0,.3,0,.4,0,0,0,0,0,.1,0,0,.2-.2.2-.3,0-.1,0-.3.1-.3,0,0,.2,0,.3,0,0,0,.2,0,.2-.1,0,0,.1-.2.1-.3,0,0,0-.1,0-.2ZM26.1,27.4s0,0,0,0c0,0,0,0,0,0,0,0,0,0,0,0,0,0,0,0,0-.1,0,0,0,0,0,0,0,0,0,0,0,0,0,0,0,0,0,0,0,0,0,0,0,0,0,0,0,0,0,0,0,0,0,0-.1,0,0,0,0,0,0,0h0s0,0,0-.1c0,0,0,0,0,0,0,0,0,0,0,0,0,0,0,0-.1,0,0,0,0,0,0,0,0,0,0,0,0,0,0,0-.1,0-.1.1,0,0,0,0,0,0,0,0,0,0,0,0,0,0-.1,0-.1,0h0c0,0,0,.1,0,.1h0s0,0,0,0h0c0,0,0-.1,0-.1,0,0,0,0,0,0,0,0,0,0,0,0,0,0,0,0,0,0,0,0-.1.1-.2.2,0,0,0,0,0,.1,0,0,0,0,0,.1,0,0,0,0,0,.1,0,0,0,0,.1,0,0,0,0,0,0,0,0,0,0,0,0,0,0,0,0,0,0,0,0,0,0,0,0,0,0,0,0,0,0-.1h0c0,0,.2-.3.2-.4,0,0,0,0,0,0,0,0,0,0,0,0h0s0,0,0,0c0,0,0,0,0,0,0,0,0,0,0,0ZM33.2,21.7l-1.3-.3v.3c0,0,1.2.3,1.2.3v.3c0,0,.1,0,.1,0l.2-.9h-.2c0,0,0,.3,0,.3ZM33.6,19.7c0-.1,0-.2-.2-.3,0,0-.1,0-.2,0,0,0-.2,0-.2,0,0,0-.1.1-.2.2h0c0,.2,0,.2,0,.2,0,0,0,0,0,0,0,0,0,0,0,0,0,0,0,0,0,0,0,0,0,0,0,0,0,0,0,0-.1-.1,0,0,0,0,0,0,0,0,0-.1,0-.2,0,0,0,0,0-.1h-.3s0,.2,0,.3c0,0,0,.1,0,.2,0,0,0,.1,0,.2,0,0,0,0,.1.1,0,0,.1,0,.2,0,0,0,0,0,.1,0,0,0,.1,0,.2-.1,0,0,0,0,0-.1v-.2c.1,0,.1,0,.1,0,0,0,0,0,0,0,0,0,0,0,.1,0,0,0,0,0,.1,0,0,0,0,0,0,.2,0,0,0,.1,0,.2,0,0,0,0,0,.1h.2s0,0,0,0c0-.1,0-.3,0-.4ZM32,20.8l1.5.2v-.3s-1.5-.2-1.5-.2c0,0,0,.3,0,.3ZM31.5,22.4v.3c-.1,0,.5.2.5.2l.7.8v-.3c.1,0-.3-.5-.3-.5h.7s.1-.3.1-.3h-1c0,0-.6-.2-.6-.2ZM28.9,26.6c0,0,0-.2,0-.2,0,0,0,0-.1,0,0,0,0,.1-.1.1,0,0,0-.1,0-.2.1,0,.2-.2.2-.3,0,0,0-.2-.2,0,0,0-.2.2-.2.3,0,.2,0,.4-.2.5,0,0,0,0-.1,0-.2.2-.3.3-.2.4,0,0,.2,0,.2,0,0,0,0,0,.1,0,0,0,0,.2,0,.3,0,0,0,.2-.1.2-.1.1-.1.2,0,.2,0,0,.1,0,.2,0,0,0,.3-.4.3-.8,0,0,0-.1,0-.2,0,0,0-.1,0-.2.1-.2.3-.2.3-.3h0ZM29.7,26.9c0,0-.2,0-.4,0,0,0-.2,0-.3,0-.2,0-.4,0-.4,0,0,0,0,.1,0,.2.1.2.5,0,.6,0,0,0,.2-.1.2-.1,0,0,.1,0,.1-.1,0,0,0,0,0,0ZM30.5,25.1s0,0,0,0c0,0,0-.1,0-.1,0,0,.2.2,0,.2h0ZM30.4,24.6c0,0,0,0,0-.1,0,0,0,0,.1,0,0,0,0,0,0,.1,0,0,0,0-.1,0,0,0,0,0,0,0,0,0,0,0,0,0,0,0,0,0,0,0,0,0,0,0,0,0,0,0,0,0,0,0,0,0,0-.1,0-.2-.1-.1-.1-.2-.1-.3ZM30.3,25.1s0,0,0,0c0,0,0-.2,0-.2,0,0,0,0,0,0,0,0,0,.2,0,.2ZM30.3,25.5s0,0-.1,0c0,0-.2-.1-.1-.2,0,0,0-.1,0-.1,0,0,0,.1.1.2,0,0,0,0,0,.1,0,0,0,0,0,0ZM30.6,25.2c.1-.1.2-.3.2-.3,0,0,0,0,.1-.1,0,0,0,0,.1,0,0,0,.2,0,.2-.1,0,0,0-.1-.1-.1-.1,0-.3.3-.3.2,0,0,0-.1,0-.1,0,0,0-.2,0-.3,0,0,0,0-.1,0,0,0,0,0-.1,0-.1,0-.2,0-.2.1,0,0,0,.2,0,.3,0,0,0,0-.1,0,0,0,0-.2,0-.2,0,0,0,0,0,0,0,0,0,.2,0,.2,0,0,0,0,0,0,0,0,0,.2,0,.2,0,0,0,.1,0,.2,0,0,.1.2.1.2,0,0,.1.1.1.2,0,0,0,0,0,0,0,0,0,.3.2.4,0,0,.1,0,.1,0,0,0-.1-.1-.2-.2,0,0,.1-.2.2-.3,0,0,0-.1.1-.2ZM31.2,25.1s-.1.2-.2.3c0,0,0,0,0,0,0,0,.1-.2,0-.3,0,0-.2,0-.3,0,0,0,0,.1-.2.2,0,0-.1.3,0,.3,0,0,.2,0,.2-.1,0,0,0,0,0,0,0,0,0,0,0,0,0,0,0,0,0,0,0,0,0,0,0,0,0,0,0,0,0,.1,0,.1-.1.3,0,.4,0,0,.1,0,.1,0,0,0,0,0,0-.1,0,0,0,0,0,0,0,0,0-.1,0-.1,0,0,.1.1.1.2,0,0,0,.1,0,.2,0,0,0,0,0,.1,0,0,.1,0,.1,0,.1,0,.1-.2,0-.4,0,0,0-.1,0-.2,0,0,0,0,0,0,0,0,0,0,0,0,0,0,0-.1.1-.1,0,0,0,0,0-.1,0-.1-.1-.1-.2,0h0ZM26.9,28c0,0,0,0,0,.2h0c0,.2-.2.3-.3.3h0c0,0-.1,0-.2,0,0,0,0,0,0-.2,0,0,0-.1,0-.1,0,0,0,0,0,0,0,0,0,0,.1,0,0,0,0,0,0,0,0,0,0,0,0,0h0c0,0,0,0,0,0,0,0,0-.1,0-.2,0,0-.1,0-.2,0-.1,0-.2.1-.3.2,0,0-.2.2-.2.2,0,0,0,0,0,0,0,0,0,0,0,0,0,0,0,0,0,.1,0,0,0,0,0,0,0,0,0,.1,0,.1,0,0,0,0,0,0,0,0,0,0,0,0,0,0,0-.1,0-.1h0c0-.1,0-.1,0-.1,0-.1.1-.1.2-.2,0,0,.1,0,.1-.1,0,0,0,0,0-.1h0c0,0-.1,0-.2,0,0,0,0,0-.1.2,0,0,0,.1-.1.2h0c0,.1-.2.2-.2.3,0,0,0,0,0,0,0,0,0,0,.1,0,0,0,0,0,0,0,0,0,0,0,0,0,0,0,0,0,0,0h0s0,0,0,.1c0,.1,0,.1,0,.2h0c0,0,0,0,0,.1h0s0,0,0,0c0,0,0,0,0,0,0,0,0,0,0,.1,0,0,0,0,0,0,0,0,0,0,0,0,0,0,0,0,0,0h0c0,.1,0,.2,0,.2,0,0,0,0,.1,0,0,0,0-.1,0-.2h0c0-.1,0-.2,0-.2,0,0,0,0,0-.1h0c0-.1,0-.1,0-.2,0,0,0,0,0,0h0c0-.1.1-.2.2-.3,0,0,0,0,0,0,0,0,0,0,.1,0h0s.1,0,.1,0c0,0,0,0,0,0,0,0,0,0,0,0,0,0,0,0,0,0,0,0,0,0,0,0,0,0,0,0,0,0,0,0,0,0,0,0,0,0,0,0,0,0,0,0,0,.2,0,.3,0,.1.1.2.1.2h0c0,0,.2.2.5,0,.2,0,.3-.2.4-.3,0,0,0-.2,0-.3,0,0,0,0,0,0ZM27.3,11h0s0,.7,0,.7h-.4c0-.1.4-.7.4-.7h0ZM26.6,12.1l.2-.3.5.2v.4s.3,0,.3,0v-1.6s-.3,0-.3,0l-1,1.3s.3,0,.3,0ZM20.9,12.6l-.5-1.1h0s1,.9,1,.9h.3c0-.1-.6-1.5-.6-1.5h-.2c0,.1.5,1.2.5,1.2h0s-1-.9-1-.9h-.3c0,.1.6,1.5.6,1.5h.2ZM28.5,12.7l-.5-.2.6-1.2h-.3c0-.1-.7,1.2-.7,1.2l.7.4v-.2c.1,0,.1,0,.1,0ZM23.7,10.5c0,0,.1,0,.2,0,0,0,0,0,0,.2,0,0,0,.1,0,.2,0,0-.1,0-.2,0h-.1s0-.4,0-.4h.1ZM23.7,11.8v-.7s0,0,0,0c0,0,0,0,.1,0,0,0,0,0,0,.1l.2.5h.3s-.2-.6-.2-.6c0,0,0,0,0,0,0,0,0,0,0,0,0,0,0,0,0,0,0,0,0,0,0,0h0c.2,0,.3-.2.3-.4,0,0,0-.1,0-.2,0,0,0,0-.1-.1,0,0,0,0-.2,0,0,0-.1,0-.2,0h-.5s.1,1.6.1,1.6c0,0,.3,0,.3,0ZM22,10.9s0,0,0-.1c0,0,.2,0,.2,0,0,0,0,0,.1,0,0,0,0,0,.1.2,0,0,0,.2,0,.3,0,.1,0,.2,0,.3,0,0,0,.1,0,.2,0,0,0,0,0,.1,0,0-.2,0-.2,0,0,0,0,0-.1,0,0,0,0,0-.1-.2,0,0,0-.2,0-.3,0,0,0-.2,0-.3,0,0,0-.1,0-.2ZM21.9,11.8c0,0,.1.2.2.2,0,0,.1,0,.2,0,.2,0,.3,0,.5-.1,0,0,.1-.1.2-.2,0,0,0-.2,0-.3,0-.1,0-.2,0-.4,0-.1,0-.2-.1-.3,0,0-.1-.2-.2-.2-.1,0-.3-.1-.5,0,0,0-.1,0-.2,0,0,0-.1.1-.2.2,0,0,0,.2,0,.3,0,.1,0,.2,0,.4,0,.1,0,.2.1.3ZM25.1,10.5h0l.2,1.3h.2s.5-1.2.5-1.2h0l-.2,1.3h.3s.2-1.5.2-1.5h-.4c0,0-.5,1.1-.5,1.1h0l-.2-1.2h-.4c0,0-.2,1.5-.2,1.5h.3s.2-1.2.2-1.2ZM31.9,17.9h.2c0,0-.1-.6-.1-.6h.4c0-.1.1.4.1.4h.2c0,0-.1-.5-.1-.5h.4c0-.1.1.4.1.4h.2c0,0-.2-.8-.2-.8l-1.5.4s.2.8.2.8ZM29.3,13.5c0,0,0,.1.1.2,0,0,.1,0,.2.1,0,0,.1,0,.2,0,0,0,.1,0,.2,0,0,0,.1-.1.2-.2l.7-.8-.2-.2-.7.8c0,0-.2.2-.2.2,0,0-.1,0-.2,0,0,0,0-.1,0-.2,0,0,0-.1.1-.2l.7-.8-.2-.2-.7.8c0,0-.1.1-.1.2,0,0,0,.1,0,.2,0,0,0,.1,0,.2ZM33.3,18.3h0c0,.2,0,.2,0,.3,0,0,0,0-.2,0,0,0-.1,0-.2,0,0,0,0-.1,0-.2h0c0-.1.5-.2.5-.2ZM32,18.4h.7c0,0,0,0,0,0,0,0,0,0,0,.1,0,0,0,0-.1,0l-.5.2v.3s.6-.3.6-.3c0,0,0,0,0,0,0,0,0,0,0,0,0,0,0,0,0,0,0,0,0,0,0,0h0c0,.2.2.3.4.3,0,0,.1,0,.2,0,0,0,0,0,.1-.1,0,0,0,0,0-.2,0,0,0-.1,0-.2v-.5c0,0-1.6.2-1.6.2,0,0,0,.3,0,.3ZM30.2,14.4l.9-.8h0s-.6,1.2-.6,1.2l.2.3,1.2-1-.2-.2-.9.8h0s.6-1.2.6-1.2l-.2-.3-1.2,1,.2.2h0ZM31.5,16.5l1.6-.2v-.3c-.1,0-1.3.2-1.3.2h0s1-.8,1-.8v-.3c-.1,0-1.3,1.1-1.3,1.1,0,0,.1.3.1.3ZM31.1,15.6l1.3-.8v-.2c-.1,0-1.5.8-1.5.8,0,0,.1.2.1.2ZM18,15.2l-1.3-.8-.2.2,1.3.8.2-.2h0ZM17.3,16.4l-.6-.3.2-.4.6.3v-.3c.1,0-1.3-.7-1.3-.7v.3c-.1,0,.4.3.4.3l-.2.4-.6-.3v.3c-.1,0,1.3.7,1.3.7,0,0,.1-.3.1-.3ZM15.4,19.2h1.3c0,0,0-.2,0-.2h-1.3c0,0,0-.4,0-.4h-.2s0,1,0,1h.2s0-.3,0-.3ZM15.6,17.4c0,0,.1.1.2.2,0,0,.2,0,.3.1.1,0,.2,0,.3,0,0,0,.2,0,.3,0,0,0,.2,0,.2-.2,0,0,.1-.2.1-.3,0,0,0-.1,0-.2,0,0,0,0,0-.1h-.3s0,0,0,0c0,0,0,.1,0,.2,0,0,0,.1,0,.2,0,0,0,0-.1.1,0,0-.1,0-.2,0,0,0-.2,0-.3,0,0,0-.2,0-.2-.1,0,0-.1,0-.1-.1,0,0,0-.1,0-.2,0,0,0-.1,0-.2,0,0,0-.1,0-.2,0,0,0,0,0,0h-.2s0,0,0,0c0,0,0,.1,0,.2,0,.1,0,.2,0,.3,0,0,0,.2.1.3h0ZM15.6,20.7c.1,0,.2,0,.2,0,0,0,.1-.1.1-.2v-.2c0,0,0,0,.1,0,0,0,0,0,0,0,0,0,0,0,0,0,0,0,0,0,0,0,0,0,0,0,.1,0,0,0,0,0,.1.1,0,0,0,0,0,0,0,0,0,.1,0,.2,0,0,0,0,0,.1h.3c0,0,0-.2,0-.4,0,0,0-.1,0-.2,0,0,0-.1-.1-.2,0,0,0,0-.2,0,0,0-.1,0-.2,0,0,0,0,0-.1,0,0,0,0,0-.1,0,0,0,0,0,0,0,0,0,0,0,0,.1v.2c0,0,0,0-.1,0,0,0,0,0,0,0,0,0,0,0-.1,0,0,0,0,0-.1,0,0,0,0,0,0-.2,0,0,0-.1,0-.2,0,0,0,0,0-.1h-.2s0,0,0,.1c0,0,0,.1,0,.2,0,0,0,.1,0,.2,0,0,0,.1,0,.1,0,0,.2.1.3.1h0ZM18.3,14.8l-.9-.8h0s1.2.4,1.2.4l.2-.3-1.2-1-.2.2.9.8h0s-1.3-.4-1.3-.4l-.2.3,1.2,1s.2-.2.2-.2ZM18.7,12.5h0s.6.4.6.4l-.3.3-.3-.7ZM19.2,13.8v-.4c-.1,0,.3-.3.3-.3l.3.2.2-.2-1.4-.9-.2.2.6,1.5.2-.2h0Z"/>
      </g>
    </g>
  </g>
</svg>