<svg width="128" height="137" fill="none" xmlns="http://www.w3.org/2000/svg"><g filter="url(#a)"><g clip-path="url(#b)"><path d="M108 64c0 24.3-19.7 44-44 44S20 88.3 20 64s19.7-44 44-44 44 19.7 44 44Z" fill="#791B1D"/><path d="M64 22.196c-23.087 0-41.804 18.717-41.804 41.804 0 23.087 18.717 41.804 41.804 41.804 23.087 0 41.804-18.717 41.804-41.804 0-23.087-18.717-41.804-41.804-41.804Zm0 71.709c-16.52 0-29.905-13.384-29.905-29.905 0-16.52 13.385-29.905 29.905-29.905 16.52 0 29.905 13.385 29.905 29.905 0 16.5-13.385 29.905-29.905 29.905Z" fill="#fff"/><path d="M58.668 82.403v-.565a5.92 5.92 0 0 0 .961-.417h.774v2.864h-.816v-2.259a6.104 6.104 0 0 1-.92.377ZM61.324 83.575h.836c.063.229.188.354.419.354.437 0 .626-.292.585-.899-.189.126-.44.189-.753.189-.69-.063-1.067-.356-1.15-.879.063-.606.522-.92 1.358-.962.942-.02 1.401.42 1.381 1.276.063 1.15-.419 1.714-1.401 1.694-.836-.02-1.255-.272-1.275-.773Zm.794-1.277c0 .314.188.481.544.481.313-.02.48-.167.502-.481-.022-.334-.189-.5-.502-.523-.356 0-.544.168-.544.523ZM67.095 82.862c-.02.964-.46 1.444-1.36 1.466-.856-.022-1.296-.502-1.316-1.466.02-1.002.46-1.504 1.316-1.504.879 0 1.34.502 1.36 1.504Zm-.836 0c0-.71-.168-1.065-.502-1.087-.336.022-.502.377-.502 1.087 0 .713.166 1.067.502 1.067.334-.02.502-.376.502-1.067ZM67.618 81.42h2.467v.544l-1.17 2.342h-.816l1.213-2.405h-1.694v-.48Z" fill="#fff"/><path d="m29.85 72.888-1.192.46.271.731c.105.356.294.461.565.336l.085.209-1.067.418-.085-.21c.273-.083.356-.271.23-.522l-.313-.836-.858.334c-.355.105-.46.271-.314.522l.043.105-.21.084-.606-1.61.21-.083.04.083c.064.209.211.271.44.188l2.154-.836c.314-.126.44-.293.336-.481l-.022-.084.188-.063 1.046 2.72-.753.291-.084-.209c.335-.125.439-.293.335-.502l-.439-1.045ZM31.878 77.28l.21-.106.647 1.34-.209.104-.02-.041c-.168-.336-.377-.42-.648-.273l-1.297.627c-.858.397-1.547.126-2.029-.815-.46-1.004-.313-1.695.44-2.07l1.526-.732c.251-.105.314-.293.188-.523l-.042-.105.21-.105.794 1.632-.209.105-.042-.105c-.125-.23-.292-.292-.522-.188l-1.527.732c-.544.271-.69.71-.397 1.338.334.648.814.836 1.442.565l1.255-.607c.356-.166.461-.397.314-.668l-.084-.106ZM33.196 79.747l.188-.105.92 1.569-.188.105-.063-.083c-.146-.251-.334-.294-.565-.126l-2.154 1.254c-.48.25-.941.335-1.38.21-.334-.085-.585-.293-.774-.607-.208-.355-.229-.606-.02-.71.188-.084.356-.021.522.167.063.083.063.229.02.397-.04.125-.062.229-.02.271.084.146.294.146.628-.042l2.802-1.63c.25-.126.293-.314.147-.587l-.063-.083ZM35.057 82.759l.188-.126 1.046 1.507-.188.125-.063-.085c-.167-.25-.376-.271-.586-.103l-1.84 1.296c-.272.146-.292.356-.084.607l.063.083-.188.125-1.045-1.506.187-.125.042.063c.168.23.356.271.565.125l1.862-1.318c.229-.166.271-.354.104-.585l-.063-.083ZM36.73 88.28l-.815-.962-.67.25c-.188.063-.271.126-.271.21-.02.083.062.23.229.418l.042.041-.146.147-.961-1.15.166-.147.042.042c.146.21.397.251.794.105l2.698-1.025.083-.146.524.627-1.463 2.782c-.21.293-.231.544-.022.753l-.167.146-1.192-1.422.166-.147.126.147c.188.251.356.23.524-.063l.314-.607Zm.167-.314.67-1.276-1.338.502.668.774Z" fill="#791B1D"/><path d="m39.302 88.865-1.484 1.548c-.272.209-.251.46.083.73l-.146.169-1.004-.962.146-.168.042.02c.209.21.397.231.544.043l1.84-1.903a1.237 1.237 0 0 0-.25-.397l.146-.168.858.816-.022 3.367 1.192-1.233c.293-.231.272-.482-.042-.733l-.041-.04.146-.169 1.066 1.025-.145.168-.043-.022c-.25-.23-.439-.272-.544-.126l-2.112 2.196-.23-.208v-3.953ZM45.326 93.905l-1.11 1.84c-.208.271-.145.502.231.69l-.105.188-1.192-.71.125-.188.043.02c.25.168.439.146.543-.083l1.36-2.26a1.249 1.249 0 0 0-.335-.333l.126-.189 1.024.606.731 3.283.9-1.484c.23-.293.167-.522-.21-.69l-.062-.042.125-.188 1.255.774-.103.189-.043-.022c-.293-.167-.481-.167-.564 0l-1.569 2.615-.271-.168-.9-3.848ZM48.336 96.98c.544-1.089 1.486-1.401 2.782-.942 1.15.565 1.548 1.38 1.192 2.468-.565 1.087-1.484 1.401-2.74.92-1.171-.544-1.589-1.36-1.234-2.446Zm.879.083c-.418 1.087-.23 1.84.544 2.216.69.272 1.255-.042 1.672-.898.377-1.067.189-1.8-.543-2.176-.732-.251-1.297.042-1.673.858ZM54.067 99.342l-.209.836c-.084.294.02.461.355.524l.147.041-.063.21-1.924-.502.062-.21.084.022c.335.104.523.02.586-.293l.565-2.197c.083-.271-.022-.439-.336-.522l-.125-.042.063-.209c.021 0 .084.02.147.042.25.041.439.063.565.104.417.085.73.147.919.188.773.21 1.255.461 1.443.795a.88.88 0 0 1 .105.69c-.147.44-.481.67-1.026.69.126.21.21.418.294.649.083.23.208.481.376.711.105.251.314.439.628.522l-.043.168c-.083-.021-.208-.063-.354-.083-.607-.148-.984-.356-1.13-.648-.105-.168-.188-.356-.293-.587a6.337 6.337 0 0 0-.356-.836l-.48-.063Zm.46-1.82-.418 1.611.209.063c.71.188 1.13.02 1.275-.524.126-.522-.146-.877-.773-1.044l-.294-.106ZM59.273 101.935l-.982-2.949-.356 2.008c-.146.397 0 .607.397.607l-.02.229-1.276-.146.02-.23c.357.105.545-.083.566-.543l.376-2.05c.083-.272-.042-.44-.334-.46l.02-.23 1.193.147.836 2.51 1.317-2.26 1.235.147-.022.23c-.355-.084-.502.041-.46.377l-.105 2.132c-.103.398.043.607.44.607l-.02.23-1.8-.21.022-.229h.083c.314.083.482-.022.482-.335 0-.084.02-.189.04-.272l.105-2.028h-.02l-1.611 2.739-.126-.021ZM65.13 100.89l-1.255.041-.231.67c-.063.188-.083.292-.02.334.062.083.208.105.481.083h.063v.231l-1.506.042v-.23h.063c.25.02.439-.168.564-.545l.9-2.76-.063-.146.858-.02 1.233 2.886c.105.354.293.522.564.502v.229l-1.86.042v-.231h.208c.314 0 .397-.146.272-.439l-.272-.689Zm-.146-.293-.565-1.318-.44 1.36 1.005-.042ZM71.423 100.555l-.271 1.066-3.032.46-.041-.229.083-.022c.334-.041.46-.188.417-.48l-.354-2.28c-.043-.272-.21-.376-.523-.335l-.105.022-.042-.23 1.924-.293.041.23-.145.02c-.294.042-.42.21-.356.461l.355 2.32c0 .21.106.294.335.231l.712-.105c.229-.041.439-.251.668-.626.042-.085.063-.148.105-.188l.23-.022ZM78.075 95.787l-.085-.208 1.338-.628.105.209-.042.02c-.334.168-.438.377-.271.648l.607 1.297c.397.879.103 1.547-.837 2.008-1.004.46-1.694.292-2.07-.481l-.733-1.526c-.103-.252-.271-.314-.522-.168L75.46 97l-.104-.209 1.652-.753.083.21-.105.041c-.229.126-.314.292-.209.523l.711 1.548c.251.563.69.689 1.34.417.648-.313.856-.793.585-1.443l-.585-1.255c-.168-.354-.399-.46-.67-.334l-.083.042Z" fill="#791B1D"/><path d="m79.516 95.62 1.11 1.84c.145.313.376.356.71.105l.126.188-1.193.731-.125-.187.042-.022c.272-.146.334-.313.188-.522l-1.358-2.26c-.126 0-.273.064-.44.126l-.125-.188 1.025-.605 3.261.899-.899-1.486c-.146-.334-.397-.397-.71-.146l-.063.042-.105-.188 1.255-.753.125.188-.042.02c-.292.169-.377.335-.251.482l1.569 2.614-.272.168-3.828-1.047ZM82.549 93.132l-.126-.189 1.465-1.109.126.188-.085.063c-.229.189-.271.377-.083.587l1.359 1.798c.168.25.356.271.607.062l.063-.062.125.188-1.464 1.108-.125-.187.063-.063c.229-.168.25-.356.105-.587l-1.38-1.82c-.169-.228-.377-.249-.608-.083l-.042.106ZM88.133 92.943l-2.949-1.234c-.356-.167-.605-.146-.753.063l-.04.021-.148-.167 1.464-1.339.147.167-.063.063c-.167.167-.25.293-.23.398 0 .083.083.166.271.229l1.966.816-.774-2.132c-.083-.189-.229-.189-.48 0l-.105.083-.146-.168 1.067-.982.146.166-.022.022c-.23.167-.25.46-.083.9l1.004 2.843-.272.251Z" fill="#791B1D"/><path d="m89.137 87.234-.858.92.942.858.627-.69c.23-.21.23-.399 0-.587l.146-.166.836.773-.146.168c-.188-.21-.397-.188-.648.104l-.564.627.753.69c.146.168.271.189.354.043l.628-.69c.273-.231.293-.523.022-.9l.145-.167.608.648-2.343 2.552-.167-.148.167-.188c.21-.209.21-.417 0-.606l-1.694-1.568c-.188-.209-.419-.168-.627.083l-.043.042-.166-.146 2.132-2.321.65.502-.148.168c-.25-.168-.48-.189-.606 0Z" fill="#791B1D"/><path d="m91.605 86.984.69.542c.23.189.44.168.626-.105l.105-.124.168.146-1.234 1.569-.167-.147.063-.063c.23-.251.23-.46-.042-.648l-1.778-1.401c-.208-.188-.418-.146-.607.083l-.083.105-.168-.125c.022-.02.043-.063.105-.126.126-.209.251-.376.314-.481.251-.355.44-.606.543-.774.502-.627.92-.961 1.297-1.004.23-.04.46.022.67.189.355.313.418.71.209 1.212.23-.02.46-.02.71 0 .251.022.523 0 .816-.04a.92.92 0 0 0 .733-.357l.146.105c-.063.063-.126.167-.23.292-.377.502-.732.775-1.046.775-.188.02-.398.04-.648.02a3.2 3.2 0 0 0-.9 0l-.292.357Zm-1.485-1.152 1.297 1.026.146-.168c.46-.564.46-1.024.02-1.38-.439-.314-.856-.23-1.275.293l-.188.23ZM94.888 85.121l-.92-.46.125-.188c.565.167.984.063 1.235-.334.229-.356.188-.649-.085-.858-.209-.146-.585-.063-1.13.23-.668.356-1.17.418-1.504.21-.461-.356-.502-.837-.125-1.486.103-.166.271-.334.5-.522.063-.063.085-.084.105-.126.02-.02.02-.063 0-.125l.083-.104.816.417-.146.209c-.46-.124-.858-.02-1.15.336-.167.313-.167.543.02.69.168.125.482.04.942-.21.419-.209.733-.355.984-.418.334-.022.605.02.815.167.5.418.563.963.187 1.569-.209.25-.375.46-.522.627-.084.063-.146.105-.146.105-.02.063-.02.104.02.146l-.104.125ZM94.198 80.123l-.188-.105.92-1.589.188.105-.063.105c-.146.251-.104.46.147.586l1.966 1.129c.25.166.439.125.585-.168l.042-.083.189.104-.921 1.59-.189-.105.043-.083c.146-.251.103-.44-.148-.565l-1.965-1.151c-.251-.146-.44-.083-.585.147l-.02.083ZM96.581 75.816l2.342 1.17c.273.168.462.085.607-.25l.063-.126.209.105-.92 1.84-.21-.104.085-.188c.146-.251.083-.44-.188-.565l-2.342-1.172-.294.607c-.23.314-.125.606.314.857l-.105.21-.92-.586.084-.167c.042 0 .105-.022.125-.063.043 0 .063-.042.085-.125l1.213-2.447c.062-.084.062-.188.02-.293l.083-.167 1.004.376-.103.21c-.482-.189-.775-.106-.879.27l-.273.608Z" fill="#791B1D"/><path d="m99.76 73.223.732.293c.273.146.461.04.587-.293l.041-.084.208.084-.751 1.82-.21-.085.062-.146c.126-.251.063-.44-.208-.545l-.753-.313-1.987.502c-.23.042-.376.168-.439.376l-.042.063-.209-.083.731-1.735.21.083-.042.083c-.042.147-.063.251-.02.314.04.063.103.083.208.042l1.464-.376-.71-1.025c-.106-.147-.189-.21-.294-.188-.063 0-.146.083-.209.229l-.02.063-.21-.083.522-1.255.21.083a.711.711 0 0 0 .126.753l1.004 1.423Z" fill="#791B1D"/><path d="M48.462 61.427h3.095v12.276h-3.095V61.427ZM48.462 58.458h.439c.105-.418.419-.731.836-.836v-.565h-1.275v1.4Zm1.799-1.401v.565c.417.105.731.418.836.836h.46v.524h-.46a1.138 1.138 0 0 1-.836.836v.565h1.296v-3.304H50.26v-.022ZM48.9 58.96h-.44v1.4h1.276v-.563a1.137 1.137 0 0 1-.836-.837ZM40.808 61.427h3.095v12.276h-3.095V61.427ZM44.886 61.427h.523v9.976h-.523v-9.976ZM46.601 61.427h.523v9.976H46.6v-9.976ZM41.247 58.96h-.44v1.4h1.276v-.563a1.137 1.137 0 0 1-.836-.837Zm-.44-.502h.44c.105-.418.419-.731.836-.836v-.565h-1.275v1.4Zm1.778-1.401v.565c.419.105.733.418.836.836h.461v.524h-.46a1.134 1.134 0 0 1-.837.836v.565h1.297v-3.304h-1.297v-.022Z" fill="#fff"/><path d="M43.86 71.277h4.602v.168H43.86v-.168ZM43.86 63.227h4.602v.73H43.86v-.73ZM84.6 61.427h3.094v12.276H84.6V61.427ZM84.6 58.458h.438c.104-.418.418-.731.837-.836v-.565h-1.276v1.4Zm.438.502H84.6v1.4h1.275v-.563a1.133 1.133 0 0 1-.836-.837Zm1.359.837v.564h1.297V58.96h-.46a1.17 1.17 0 0 1-.837.837Zm0-2.74v.565c.419.105.732.418.837.836h.46v-1.401h-1.297ZM76.945 61.427h3.095v12.276h-3.095V61.427ZM81.022 61.427h.524v9.976h-.524v-9.976ZM82.737 61.427h.524v9.976h-.524v-9.976ZM76.945 58.458h.44c.103-.418.417-.731.836-.836v-.565h-1.276v1.4Zm.44.502h-.44v1.4h1.276v-.563a1.133 1.133 0 0 1-.837-.837Zm1.358-1.903v.565c.419.105.733.418.836.836h.461v.524h-.46a1.134 1.134 0 0 1-.837.836v.565h1.297v-3.304h-1.297v-.022Z" fill="#fff"/><path d="M80.018 71.277h4.602v.168h-4.602v-.168ZM80.018 63.227h4.602v.73h-4.602v-.73ZM51.536 73.265h25.41v.438h-25.41v-.438ZM51.536 74.644h25.41v.44h-25.41v-.44ZM52.205 47.103s-.669 3.241-4.245 2.195c0 0 .67 2.593 4.099 2.593h24.573s4.244-.334 3.575-2.656c0 0-3.241 1.067-3.723-2.111l-24.28-.021ZM52.017 53.063v3.514h2.112v-3.514h-2.112Zm0 7.486h2.112v-3.116h-2.112v3.116Zm0 3.91h2.112v-3.052h-2.112v3.053Zm0 4.853h2.112v-3.974h-2.112v3.974ZM74.016 53.063v3.514h2.113v-3.514h-2.113Zm0 7.486h2.113v-3.116h-2.113v3.116Zm0 3.91h2.113v-3.052h-2.113v3.053Zm0 4.853h2.113v-3.974h-2.113v3.974ZM52.017 52.164h24.112v.48H52.016v-.48ZM54.569 53.063V69.29h4.704v-5.48h-.146v-2.09h.733c.334-1.423 1.442-3.43 3.994-3.597h.48c2.53.188 3.702 2.196 4.1 3.597h.752v2.09h-.146v5.48h4.476V53.063H54.569Zm14.743 4.39h-10.54v-2.927h10.54v2.928Z" fill="#fff"/><path d="M59.943 63.603h1.359v5.688h-1.359v-5.688ZM63.937 69.312h-2.196v-4.308h.336v1.087s.563.188 1.128-.168c.398-.25.565-.899.565-.899h.167v4.288ZM64.356 69.312h2.195v-4.308h-.334v1.087s-.565.188-1.13-.168c-.397-.25-.585-.899-.585-.899h-.168v4.288h.022ZM67.032 63.603h1.359v5.688h-1.359v-5.688ZM64.314 58.793c3.115.23 3.597 3.597 3.597 3.597h.627v.774h-1.443s-.293-3.472-2.927-3.472c-2.656 0-2.95 3.472-2.95 3.472h-1.443v-.774h.628s.314-3.388 3.451-3.597h.46ZM59.17 54.84h9.745v2.217H59.17V54.84Z" fill="#fff"/><path d="M26.336 56.012s.419-.377.69-.65c.272-.271.796-1.107.146-1.379-.668-.272-1.107.104-1.379 1.108-.293 1.004.335 1.15.543.92ZM28.45 58.103s.27-.042.48-.377c.21-.335.188-.71.439-.105.23.607 1.234 1.549 1.463 1.067.23-.481-.103-.565-.25-1.024-.167-.482.962.313 1.61.627.648.292 1.193-.419.314-.837-.878-.418-2.259-.983-2.05-1.108.21-.146.46-1.15-.02-1.13-.482.021-1.297.859-1.276.231.02-.627-.46-1.026-.836-.627-.377.397-.356.815-.314 1.506 0 .627.166 1.902.44 1.777ZM27.09 53s.459.209.669-.314c.209-.522.397-2.237-.21-3.032-.606-.794-1.025.23-.794 1.172.209.961-.105 1.986.334 2.174ZM30.791 50.741c-.335 1.15-.105 1.694-.398 1.632-.292-.063-.669-1.004-.962-1.57-.292-.564-.899-.459-.878.357.022.816.125 1.108 0 1.443-.126.334-.209.44-.23.669 0 0 .293.627.754.67.46.02.814-.272 1.19 0 .377.27.273.981 1.004 1.275.712.293 1.84.753 2.029-.23.168-.983.125-1.505.544-2.05.419-.544-.334-1.066-.92-1.945-.606-.92-1.799-1.4-2.133-.25Zm1.673 3.953c-.167.251-.397-.125-.397-.125-.105-.168.083-.69.313-.565.23.126.251.44.084.69Zm-2.99-2.447c.166.23.502.356.376.607-.126.23-.522-.21-.522-.21-.168-.104-.022-.606.146-.397Zm3.178.083c.063.775.02 1.047-.168.963-.187-.084-.25-.23-.124-.544.124-.314-.251-.732-.293-.607-.063.147-.377.524-.377.524-.314.063-.105-.524.063-.941.146-.397.816-.168.899.605ZM42.941 38.633c-.585.104-.92.669-1.631 1.193-.69.522-1.464.814-1.695.585-.229-.209-.376-.523.21-1.172.586-.627.355-.982.021-1.024-.314-.043-.419-.063-.607.293-.166.355-.648.836-.543.48.126-.376.167-.92 0-.92-.168 0-.376.315-.502.398-.125.083-.168-.168.083-.606.23-.461-.042-.816-.313-.419-.251.397-.565.606-.711.523-.146-.104.44-.982.982-1.527.544-.564.251-.878-.146-.836-.397.041-1.004.502-.962.167.043-.335-.188-.815-.544-.523-.355.293-.271.69-.543.92-.25.23-.502.272-.712.064-.209-.21-.814.103-.689.417.126.314.397.336.543.377.168.042.648.23.502.439-.167.21-.502.607-.313.816.188.23.606.042.795-.146.188-.189.48.188.334.354-.168.168-.44.502-.502.879-.063.398-.271.46-.481.46-.21 0-1.296.711-1.003 1.025 0 0 .125.397.522.272.397-.126.69-.084.753.25.063.357.628.69 1.108.711.481.043.816.356.65.461-.189.104-.754.44-.754.774s.44.46.606.271c.168-.188.314-.334.544.02.23.336.083.65.251 1.13.167.482.879-.314.48-1.107-.397-.796-.334-.942.273-1.025.606-.084 2.342-.607 3.472-1.716 1.15-1.087 1.107-2.362.522-2.258Zm-5.709.628c-.188.188-.439.46-.25.627.188.189.334.084.502-.105.188-.188.437.063.313.251-.125.21-.23.545-.084.669.147.147.147.21.356 0 .229-.23.439 0 .354.147-.103.146-.229.377-.125.46.125.083.941-.209.878.083-.062.314-.836.753-1.192.482-.355-.251-.794-.69-1.024-.482-.251.21-.92-.502-.774-.899.146-.417.565-.982.44-1.13-.106-.145.25-.878.501-.647.02.02.272.356.105.544ZM51.682 29.39c-.25.041-.836.126-.69-.042.147-.168.314-.397.251-.732-.063-.335 0-.774.23-1.296.252-.523-.25-.753-.25-.753-.126-.209-.502.042-.648.293-.148.25-.399.48-.942.668-.544.189-.649.607-.607.879.063.271.314.732.545 1.004.229.271.083.836.125 1.275.063.44-.335.628-.376.984-.043.354.48.313.585.836.105.522.627.585.92.083.293-.522.628-.543.837-.648.209-.105.229-.836.166-1.172-.063-.334-.02-.417.23-.898.294-.48-.125-.543-.376-.48Zm-1.652-1.192c.189-.042.46-.125.482-.042 0 0 .25.607.04.648-.228.042-.48.147-.564-.146-.103-.294-.146-.44.042-.46Zm.984 3.304c-.314.083-.65.02-.69-.126-.022-.146.208-.271.292-.293.084-.02-.02-.229.439-.271 0 0 .273.607-.041.69ZM54.903 26.399c.627-.126 1.024-.606.983-.941-.042-.334-.125-.523-.69-.188s-1.36.627-1.8 1.066c-.438.419-1.546.565-1.337 1.046 0 0 0 .314.314.292.313-.04.627-.292.795-.125.166.168.397.46.313.69-.105.23-1.234.23-1.171 1.026.063.794.167 2.111.502 2.132.314.022.627-.355.522-.836-.104-.502-.104-1.233.022-1.255.104-.02.188-.69.355.188.167.878.21.983.273 1.694.04.71.291 1.484.437 2.134.148.648.963.878.879-.085-.126-.962-.314-2.154-.377-2.446-.062-.314.148-.564.251-.356.105.209.148.648.628.628.481-.043.816-1.15.712-1.798-.085-.65-.377-.816-.293-1.192.105-.377.062-.963-.21-.9-.272.042-.438.021-1.003.313-.544.273-.753-.063-.795-.25-.02-.21.062-.712.69-.837Zm.271 1.862c.356.083.23.69.314 1.17.085.46-.627.46-.668.272a50.552 50.552 0 0 0-.336-1.191c-.166-.44.336-.336.69-.251ZM76.046 25.332s-.23.879-.46.941c-.21.043-.44.42-.418.607.02.21-.44.794-.043 1.045.42.251.608-.502 1.444-.753.815-.25.878-.794.71-.982-.167-.188-.356-.565-.502-.795-.167-.188-.605-.418-.73-.063Z" fill="#791B1D"/><path d="M77.99 32.024c-.836 0-1.045.273-2.216.21-1.15-.062-1.966-.502-1.84-.92.104-.42.439-.272.92-.335.502-.062.816-.439 1.087-.795.272-.356.69-1.547.146-1.463-.543.062-.962.145-1.421.396-.461.231-1.235.648-1.443.399-.21-.251-.168-.838-.02-1.13.145-.293.02-.837.333-1.004.292-.168.837.126.983-.21a.769.769 0 0 0-.292-.982c-.377-.25-.879-.983-1.172-.607 0 0-.272.21-.397.565-.126.356-.607.524-.858.795-.23.271-.166.731.168.816.334.104.648-.314.67-.043.04.294.208.586.04.711-.166.126-.73.23-.982.544-.25.314-.398.711-.564.711-.168 0-.294.126-.44.69-.146.565.272.962.48.942.21-.02.085.293-.145.334-.23.022-1.507.293-1.84.69-.335.419.25.899.835.585.587-.314 1.004-.71.879-.354-.126.354-.417.836-.166 1.15.25.313.814.105.898-.21l.377-1.38c.04-.188.271-.397.585-.271.293.125.753.125.67.626-.085.502.063.67 1.421 1.151 1.36.48 2.51.355 2.844-.063.294-.355 1.298-1.526.46-1.548Zm-3.387-2.111c.126-.022.272-.273.46-.21.188.042.063.25-.294.481-.376.23-.334.188-.376-.02-.063-.21.21-.251.21-.251Zm-2.552-.022c-.251.022.084-.46.084-.46.146-.04.104-.02.189.105.103.146-.022.334-.273.355Zm1.026 1.423c-.21.167-.69-.168-.628-.335.041-.188.314-.356.502-.313.188.04.23-.294.23-.294.147-.334.272.043.25.294a.97.97 0 0 1-.354.648ZM92.838 36.897s-.355.147-.314.44c.043.292-1.443 1.296-1.694 1.442-.25.146-.44.084-.794-.23-.334-.314-1.004-1.359-1.297-1.15-.271.21-.543.67-.314 1.13.23.46.65 1.024.356 1.108-.293.084-2.07-.418-2.635-.335-.543.084-.377.963.878 1.151 1.255.187 1.883.355 2.302.187.417-.166.773.022.73.314-.04.293-1.17 2.593-.313 3.973.836 1.38 2.468 1.652 1.882.314-.585-1.318-.69-2.97-.564-3.575.125-.607.02-1.026.627-.65.607.377 1.735 1.403 2.091 1.13.377-.271.377-1.275-.397-1.547-.773-.25-1.338-.544-1.275-.816.063-.25.753-.836 1.108-.69.376.168.858-.356.732-.836-.063-.481-.816-1.548-1.109-1.36ZM102.395 59.085c-.229-.605-.376-1.024-.271-1.045.105-.042.313-.272.522-.021.21.25.816-.104 1.36 0 .543.105.919.23 1.464-.063.564-.292 0-1.128-.314-1.045-.314.083-.334.063-.482-.334-.146-.399-.188-.544 0-.587.189-.063.294-.44.043-.836-.251-.377-.836-.23-1.13-.377-.292-.145-.502.42-.773.545-.272.103-.209-.336.105-.775.334-.438-.085-.857-.336-.543-.251.293-.919.899-1.212.774-.292-.105-.189-.335.271-.586.461-.25.21-.627.21-.627-.105-.188-.188-.083-.502 0s-.439.544-.836.899c-.398.334-1.026.25-1.026-.02 0-.252.188-.628-.334-.922-.502-.313-2.237.565-1.17 1.088 1.044.544 2.425 2.321 2.781 2.718.375.399.292 1.067.104 1.13-.189.063-.586.524-.335.712.251.188.272.543.774.814.565.294 1.318-.292 1.087-.899Zm-.982-1.652c-.147-.293.209-.564.209-.564.293.105.397.418.208.732-.208.314-.292.126-.417-.168Zm1.882-.961c-.105-.334.565-.272.565-.272.104 0 .146.314.229.606.083.293 0 .397-.251.46-.271.062-.439-.46-.543-.794Z" fill="#791B1D"/><path d="M98.526 55.739s-.439.105-.46.524c-.02.417-.333.585-.459.334-.125-.251-.376-1.213-.712-1.297-.334-.063-1.316.502-.71.858.606.356.752.648.732.795-.022.146-.838.543-1.214.48-.375-.063-.585-.648-1.087-.565-.502.085-.816.545-.314 1.13.502.585 1.464.69 2.447.376.984-.313 1.15-.502 1.297.02.146.525.251 1.424.564 1.34.313-.084.795-.795.586-1.171-.188-.397-.65-.482-.46-.69.187-.189.438-.043.69.27.272.315.501.085.606-.145.105-.23.146-.46-.125-.836-.272-.334-.879-1.694-1.38-1.423Z" fill="#791B1D"/></g></g><defs><clipPath id="b"><path fill="#fff" transform="translate(20 20)" d="M0 0h88v88H0z"/></clipPath><filter id="a" x="-13" y="0" width="154" height="157" filterUnits="userSpaceOnUse" color-interpolation-filters="sRGB"><feFlood flood-opacity="0" result="BackgroundImageFix"/><feColorMatrix in="SourceAlpha" values="0 0 0 0 0 0 0 0 0 0 0 0 0 0 0 0 0 0 127 0" result="hardAlpha"/><feOffset dy="16"/><feGaussianBlur stdDeviation="6.5"/><feColorMatrix values="0 0 0 0 0 0 0 0 0 0 0 0 0 0 0 0 0 0 0.03 0"/><feBlend in2="BackgroundImageFix" result="effect1_dropShadow_49_8479"/><feBlend in="SourceGraphic" in2="effect1_dropShadow_49_8479" result="shape"/></filter></defs></svg>