<?xml version="1.0" encoding="UTF-8"?>
<svg xmlns="http://www.w3.org/2000/svg" version="1.1" viewBox="0 0 128 36.9">
  <defs>
    <style>
      .cls-1 {
        fill: #a4130e;
        fill-rule: evenodd;
      }
    </style>
  </defs>
  <!-- Generator: Adobe Illustrator 28.7.1, SVG Export Plug-In . SVG Version: 1.2.0 Build 142)  -->
  <g>
    <g id="_图层_1" data-name="图层_1">
      <path class="cls-1" d="M26.8,5.5c7.1,0,12.8,5.8,12.8,12.8s-5.8,12.8-12.8,12.8-12.8-5.8-12.8-12.8,5.8-12.8,12.8-12.8ZM26.8,5.8c-6.8,0-12.4,5.6-12.4,12.4s5.6,12.4,12.4,12.4,12.4-5.6,12.4-12.4-5.6-12.4-12.4-12.4Z"/>
      <path class="cls-1" d="M26.8,6.3c6.6,0,12,5.4,12,12s-5.4,12-12,12-12-5.4-12-12c0-6.6,5.4-12,12-12ZM20.5,9.9s0,0,0,0c0,0,0,0,0,0h0c0,0,0,0,.1-.1h0s0,0,0,0h0s0,0,0,0c0,0,0,.1,0,.2,0,0,0,0,0,0h0s0,0,0,0h0s0,0,0,0c0,0,0,0,0,0h0s0,0,0,0c0,0,0,0-.1,0,0,0,0,0-.1,0l.5.5h0s0,0,0,0c0,0,0,0,0,0h0s0,0,0,0c0,0,0,0,0,0h0s0,0,0,0c0,0,0,0,0,0h0v-.2c.1,0,.1,0,.1,0,0,0,0,0,0,.2,0,0,0,0,0,0-.1.3-.3.5-.4.8,0,.1-.1.3-.2.4,0,0,0,0,0,0,0,0,0,0,0,0,0,0,0,0,0,0,0,0,0,0,0,0h0s0,0,0,0h0s0,0,0,0h0s0,0,0,0h0s0,0,0,0h0s0,0,0,0h0s0,0,0,0h0s0,0,0,0h0s0,0,0,0h0c0,0,0-.1,0-.1h0c0-.1,0-.2,0-.2,0-.1,0-.2.1-.3,0-.1,0-.2.2-.4,0,0,0,0,0,0,0,0,0-.1.1-.2,0,0,0,0,0,0,0,0,0,0,0,0,0,0,0,0,0,0,0,0,0,0,0,0h0s0,0,0,0h0s0,0,0,0h0c0,.1,0,0,0,0h0s0,0,0,0h0s0,0,0,0c0,0,0,0,0,0,0,0,0,0,0,0,0,0,0,0,0,0,0,0,0,0,0-.1h0c0,.1,0,.2,0,.3,0,0,0,0,0,0h0s0,0,0,0c0,.1.1.2.2.3,0,0,.1.2.2.3,0,0-.1,0-.1,0,0,0,0-.1,0-.2h0s0,0,0,0h0s0,0,0,0c0,0,0,0,0,0,0,0,0,0,0,0,0,0,0,0,0,0,0,0,0,0,0,0,0,0,0,0,0,0,0,0,0,0,.1,0h0c0-.1,0-.1,0-.1,0,0,0,0-.1,0,0,0,0,0-.1,0h0s0,0,0,0c0,0,0,0,0,0h0s0,0,0,0c0,0,0,0,0,0,0,0,0,0,0,0,0,0,0,0,0,0,0,0-.1-.1-.2-.2,0,0,0,0-.1-.1h0s0,0,0,0h0c0,.2.1.4.2.5,0,0,0,0,0,0h0s0,0,0,0h0s0,0,0,0h0s0,0,0,0h0s0,0,0,0h0s0,0,0,0h0s0,0,0,0c0,0,0,.1,0,.2,0,0,0,.1,0,.2,0,0,0,.1,0,.2h0c0,0,0,.1,0,.1,0,0,0,0,0,0,0,0,0,0,0,0h0c0,0,0,0,0,0h0s0,0,0,0h0s0,0,0,0h0s0,0,0,0h0s0,0,0,0h0c0,0,0-.1,0-.1h0c0,0,0-.2,0-.2,0,0,0-.2,0-.3,0,0,0,0,0,0,0,0,0,0,.1,0h0s.1,0,.1,0c0,0,.1,0,.2,0,0,0,.1,0,.2,0,0,0,0,0,0,0,0,0,0,0,0,0h0c0,0,0-.2,0-.2h0s0,0,0,0c0,0,0,0,0,0,0,0,0,0-.1,0h0c0,0-.1,0-.2,0,0,0,0,0,0,0h0s0,0,0,0h0s0,0,0,0h0s0,0,0,0h0s0,0,0,0c0,0,0,0,0,0h0s0,0,0,0h0s0,0,0,0h0c0,0,0-.2-.1-.2,0,0,0,0,0,0h0s0,0,0,0c0,0,0,0,0-.1,0,0,0,0,0,0h0c0,0,0,0,0,0,0,0,0,0,0,0h0c0,0,0,0,0,0h0s0,0,0,0c0,0,0,0,0,0h0s0,0,0,0h0s0,0,0,0h0s0,0,0,0h0s0,0,0,0h0s0,0,0,0h0s0,0,0,0h0c0,.1,0,.2,0,.2,0,0,0,0,0,.1,0,0,0,.1,0,.2h0s0,0,0,0h0s0,0,0,0c0,0,0-.1,0-.2h0s0-.1,0-.1c0,0,0,0,0-.1,0,0,0,0,0,0,0,0,0,0,0,0,0,0,0,0,0,0h0s0,0,0,0c0,0,0,0,0,0,0,0,0,0,0,0,0,0,0,0,0,0,0,0,0,0,0,0,0,0,0,0,0-.1h0c0,0,0-.1,0-.1h0s0,0,0-.1c0,0,0,0,0,0,0,0,0,0,0,0h0s0,0,0,0h0s0,0,0,0h0s0,0,0,0c0,0,0,0,0,0,0,0,0,0,0,0,0,0,0,.2-.1.3,0,0,0,.1-.1.2,0,0,0,.1-.1.2,0,0,0-.1,0-.2,0,0,0,0,0-.1h0s0,0,0,0h0s0,0,0,0h0s0,0,0,0h0c0,0,0,0,0-.1h0c0,0,0-.3,0-.3,0,0,0,0,0-.1h0c0,0,0,0,0,0h0s0,0,0,0h0s0,0,0,0h0s0,0,0,0c0,0,0,0,0,0,0,0,0,0-.1,0h0s0,0,0,0h0s0,0,0,0h0s0,0,0,0c0,0,0,0,0,0,0,0,0,.1-.1.2h0s-.2-.3-.2-.3h0s0,0,0,0h0s0,0,0,0h0s0,0,0,0h0s0,0,0,0h0s0,0,0,0h0s0,0,0,0h0s0,0,0,0h0s0,0,0,0h0s0,0,0,0h0s0,0,0,0h0s0,0,0,0h0s0,0,0,0h0c.1.2.3.5.4.7,0,0,0,.2.1.3,0,0,0,0,0,.1,0,0,0,0,0,0h0ZM21.5,11.5s0,0,0,0h0s0,0,0,0h0s0,0,0,0h0ZM21.3,10.9h0s0,0,0,0c0,0,0,0,0,0,0,0,0,0,0,0h0s0,0,0,0h0s0,0,0,0h0s0,0,0,0h0s0,0,0,0h0s0,0,0,0c0,0,0,0,0,0,0,0,0,0,0,0,0,0,0,0,0,0h.1s0,0,0,0ZM27.9,8.8h0s0,0,0,0h0c0,0,0,.1,0,.1h0s0,0,0,0h0s0,0,0,0h0s0,0,0,0h0s0,0,0,0h0s0,0,0,0h0s0,0,0,0h0s0,0,0,0h0s0,0,0,0h0s0,0,0,0h0s0,0,0,0c0,0,0,0,0,0h0s.2,0,.2,0h0c0,0,.1,0,.2,0h0s0,0,0,0h0s0,0,0,0h0s0,0,0,0h0s0,0,0,0h0s0,0,0,0h0s0,0,0,0h0s0,0,0,0h0s0,0,0,0h0s0,0,0,0h0s0,0,0,0h0s0,0,0,0h0c0,.2,0,.3.2.5v.2c.1,0,.1,0,.1,0h0s0,0,0,0c0,0,.1,0,.2,0,0,0,.1,0,.2,0h0s0,0,0,0h0s0,0,0,0h0s0,0,0,0h0s0,0,0,0h0s0,0,0,0c0,0,0,0,0,0h0c0,0,0-.1,0-.1l-.2-.3h0c0,0,0,0,0-.1,0,0,0,0,0,0,0,0,.2,0,.2,0,.1,0,.2,0,.4-.1h.1s0,0,0,0h0s0,0,0,0h0s0,0,0,0h0s0,0,0,0h0s0,0,0,0h0s0,0,0,0h0s-.2.1-.2.1h0s0,0,0,0h0s0,0,0,0h0s0,0,0,0h0s0,0,0,0c0,0,0-.1,0-.2,0,0,0,0,0-.1,0,0,0-.1,0-.2h0c0-.1,0-.1,0-.2,0,0,0,0,0,0,0,0,0,0,0,0,0,0,0,0,0,0,0,0,0,0,0,0h0s0,0,0,0c0,0,0,0,0,0h0c0,0,0,0,0,0h0s0,0,0,0h0s0,0,0,0h0s0,.1,0,.1h0c0,.1,0,.2,0,.2v.2c0,0,0,0,0,0,0,0,0,.1,0,.2,0,0,0,0,0,0,0,0,0,0,0,0,0,0,0,0-.1,0-.2,0-.4,0-.6.1,0,0-.1,0-.2,0h0s0,0,0,0h0s0,0,0,0c0,0,0,0,0,0h0s0,0,0,0h0s0,0,0,0h0s0,0,0,0l.7-.3h0s0,0,0,0c0,0,0,0,0,0ZM24.2,8.6h0s0,0,0,0h0s0,0,0,0h0c0,0,0,.1,0,.2h0c0,0,0,.1,0,.1,0,0,0,0,0,0,0,0,0,0,0,0,0,0,0-.2,0-.3,0,0,0-.1,0-.2h0c0,0,0,0,0,0,0,0-.1,0-.2,0h0s0,0,0,0c0,0,0,0,0,0h0s0,0,0,0v.2c0,.2,0,.4,0,.6h0s0,0-.1,0h0s0,0,0,0c0,0-.1,0-.2,0h0c0,.1,0,.2,0,.2h0c0,0,0,.1,0,.1h0s0,0,0,0h0s0,0,0,0h0s0,0,0,0h0s0,0,0,0h0s0,0,0,0h0s0,0,0,0h0s0,0,0,0h0s0,0,0,0h0s0,0,0,0c0,0,0,0,0,0h0c0,0,0-.1,0-.1h0c0-.1,0-.2,0-.2h0s0,0,0,0c0,0,0,0,0,0v-.2s0-.2,0-.2c0,0,0,.1,0,.2h0s0,0,0,0h0s0,0,0,0c0,0,0,0,0,0h0c0,.1,0,.2,0,.3h0s0,0,0,0h0s0,0,0,0h0s0,0,0,0h0s0,0,0,0h0c0,0,0,.1,0,.1,0,0,0,0,0,0,0,0,0,0,0,0h0c0,.1,0,.2,0,.2h0c0,.1,0,.2,0,.2,0,0,0,0,0,.1,0,0,0,0,0,0,0,0,0,0,0,0h0s0,0,0,.1h0s0,0,0,0h0s0,0,0,0h0s0,0,0,0h0s0,0,0,0h0s0,0,0,0h0s0,0,0,0h0s0,0,0,0h0s0,0,0,0h0c0,0,0-.1,0-.1,0,0,0,0,0-.1,0,0,0-.1,0-.2h0s0-.1,0-.1c0,0,0,0,0,0,0-.1,0-.2,0-.3h0c0,0,0,0,0-.1,0,0,0,0,0,0,0,0,0,0,0,0,0,0,0,0,.1,0h0s0,0,0,0c0,0,0-.1,0-.2,0,0,0,0,0-.1,0,0,0,0,0,0h0s0,0,0,0h0s0,0,0,0h0s0,0,0,0ZM25.4,9.8s0,0,0,0h0s0,0,0,0c0,0,0,0,0,0-.2-.6-.4-1.2-.6-1.8h0s0,0,0,0c0,0,0-.1,0-.2h0c0,0,0-.1,0-.1h0s0,0,0,0h0s0,0,0,0h0s0,0,0,0h0s0,0,0,0h0s0,0,0,0h0s0,0,0,0h0s0,0,0,0h0s0,0,0,0h0c0,0,0,.1,0,.2,0,0,0,.1.1.2,0,0,0,0,0,0h0s0,0,0,0h0s.1.4.1.4c0,0,0,0-.1,0,0,0,0,0,0,0h0c0,0,0,0,0,0,0,0,0,0,0,0h0s0,0,0,0h0c0,0,0,.2,0,.2h0s0,0,0,0h0s0,0,0,0h0s0,0,0,0c0,0,0,0,0,0,0,0,0,0-.1,0h0c0,0,0,.1,0,.1h0c0,0,0,.1,0,.2,0,0,0,0,0,0h0c0,0,0,.2,0,.2h0c0,.1,0,.2,0,.2,0,0,0,0,0,.1h0c0,0,0,.1,0,.1h0c0,0,0,0,0,0,0,0,0,0,.1,0,0,0,0,0,0,0h0s0,0,0,0h0s0,0,0,0h0s0,0,0,0h0s0,0,0,0c0,0,0,0,0,0,0,0,0,0,0-.1,0,0,0,0,0,0h0s0,0,0,0c0,0,0,0,0,0h0c0-.1,0-.2-.1-.3h0s0,0,.1,0h0s0,0,0,0h0s0,0,0,0h0s0,0,0,0h0s0,0,0,0h0c.1.3.3.6.4.9h0s0,0,0,0c0,0,0,0,0,0,0,0,0,.1.1.2h0ZM31.5,9.5s0,0,0,0h0s0,0,0,0h0s0,0,0,0h0s0,0,0,0h0s0,0,0,0c0,0,0,0,0,0h0s0,0,0,0c0,0,0,0,0,0,0,0,0,0,0,.1,0,0-.2,0-.3,0,0,0-.1,0-.2,0,0,0-.1,0-.2,0,0,0,0,0,0,0h0s0,0,0,0h0s0,0,0,0h0s0,0,0,0h0c0,0,0,0,0,0h0s0,0,0,0h0s0,0,0,0h0s0,0,0,0h0s0,0,0,0h0c0,0,0,.1,0,.1h0s0,0,0,0h0c0,0,0,0,0,.1,0,0-.1.2,0,.3h0s0,0,0,0c0,0,0,0,0,0h0s0,0,0,0h0s0,0,0,0h0s0,0,0,0h0s0,0,0,0h0s0,0,0,0h0s0,0,0,0h0s.1,0,.1,0c0,0,.1,0,.2,0,0,0,0,0,0,0h0c0,0,0,0,0,0,0,0-.1,0-.2,0h0s0,0,0,0h0s0,0,0,0h0s0,0,0,0h0s0,0,0,0h0s0,0,0,0h0s0,0,0,0h0s0,0,0,0h0s0,0,0,0c0,0,0,0,0,0h0c0,0,.1,0,.2,0h0c0,0-.1,0-.2,0,0,0-.1,0-.2,0,0,0,0,0,0,0h0s0,0,0,0c0,0,0,0,0,0h0s0,0,0,.1h0c-.2,0-.4,0-.7-.1-.2,0-.4,0-.6,0,0,0,0,0,0,0,0,0,0,0,0,0h0s0,0,0,0h0s0,0,0,0h0s0,0,0,0h0s0,0,0,0h0s0,0,0,0h0s0,0,0,0c0,0,0,0,0,0h0s0,0,0,0h0c.2,0,.3,0,.5,0,0,0,0,0,.1,0h.1s.1,0,.1,0c0,0,0,0,.1,0,0,0,.1,0,.2,0,0,0,0,.1,0,.2,0,0,0,0,0,.1,0,0,0,.1-.1.2,0,0,0,0,0,0h0s0,0,0,0h0c0,0-.1-.2-.2-.2h0s0,0,0,0h0s0,0,0,0h0s0,0,0,0h0s0,0,0,0h0s0,0,0,0c0,0,0,.1.1.2,0,0,0,0,0,.1,0,0,.1.2.2.3,0,0,0,0,0,0h.2c0,0,0,0,0,0h0s0,0,0,0h0s0,0,0,0c0,0,0,0,0,0h0s0,0,0,0c0,0,0-.1.1-.2h0c0,0,0-.1,0-.1,0,0,0-.1,0-.2h0c0,0,.2,0,.2,0,0,0,0,0,0,0,0,0,0,0,0,0,0,0,0,0,0,0h0s0,0,0,0h0s0,0,0,0h0s0,0,0,0h0s0,0,0,0h0s0,0,0,0h0s0,0,0,0h0s0,0,0,0c0,0,0,0,0,0h0s0,0,0,0c0,0-.1,0-.2,0h0s0,0-.1,0h0c0-.1,0-.1,0-.1,0,0,.1,0,.2,0h0s0,0,0,0h0s0,0,0,0h0s0,0,0,0h0s0,0,0,0h0s0,0,0,0h0s0,0,0,0h0s0,0,0,0h0s0,0,0,0h0s0,0,0,0h0s0,0,0,0c0,0,0,0,0,0,0,0,.2,0,.2,0h0s0,0,0,0h.2s.1,0,.1,0c.1,0,.3,0,.4,0h0s0,0,0,0h0s0,0,0,0h0s0,0,0,0h0s0,0,0,0h0s0,0,0,0h0s0,0,0,0h0s0,0,0,0h0c0,0-.1,0-.2,0,0,0,0,0,0,0,0,0,0,0,0,0,.1,0,.3-.2.4-.3,0,0,0,0,0,0,0,0,0,0,0,0h0s0,0,0,0c0,0,0,0,0,0,0,0,0,0,0,0,0,0,0,0,0,0h0c0,0,0,0,0,0,0,0,0,0-.1,0,0,0,0,0,0,0,0,0,0,0-.1,0h0s0,0,0,0h0s0,0,0,0h0s0,0,0,0h0s0,0,0,0h0s0,0,0,0h0c0,.2-.2.2-.3.3,0,0,0,0,0,0h0s0,0,0,0c0,0,0,0,0,0,0,0,0,0,0,0,0,0,0,0,0,0,0,0,0,0,0-.1,0,0,0,0,0,0,0,0,0,0,0,0,0,0,0,0,0,0,0,0,0,0,0,0h0s0,0,0,0c0,0,0,0,0,0h0s0,0,0,0h0c0,0,0-.1,0-.2,0,0,0,0,0,0h0s0,0,0,0h0s0,0,0,0c0,0,0,0,0,0,0,0,0,0,0,0,0,0,0,0,0,0,0,0,0,0,0,0h0c0,0,0,0-.1.1h0s0,0,0,0h0c0,0,0,0,0,0,0,0,0,0,0,0,0,0,0,0,0,0h0s0,0,0,0c0,0,0,0,0,0h0s0,0,0,0c0,0,0,0,0,0,0,0,0,0,0,0h0s0,0,0,0h0s0,0,0,0h0s0,0,0,0h0s0,0,0,0c0,0,0,0,0,.1h0c0,0,0,0,0,0h0s0,0,0,0c0,0,0,.1-.1.2,0,0,0,0,0,0h0s0,0,.1,0c0,0,0,0,0,0,0,0,0,0,0,0h0s0,0,0,0h0s0,0,0,0h0s-.1,0-.1,0h0s0,0,0,0h0ZM30.5,10h0s0,0,0,0c0,0,0,0,0,0h0s0,0,0,0h0s0,0,0,0h0s0,0,0,0h0s0,0,0,0h0s0,0,0,0h0s0,0,0,0c0,0,0,0,0,0h0c0,0,0,0,0-.1,0,0,0-.1,0-.1h0s0,0,0,0h0s0,0,0,0h0s0,0,0,0h0s0,0,0,0h0c0,0,0,0,0,0,0,0,0,0,0,0,0,0,0,0,0,0,0,0,0,0,0,0,0,0,0,0,0,0h0ZM32.2,9.9h0c0,0,.1,0,.2,0h.1s0,0,0,0h0s0,0,0,0h0s0,0,0,0h0s0,0,0,0ZM32.3,9.5s0,0,0,0h0s-.1,0-.1,0c0,0,0,0,0,0,0,0,0,0,0,0,0,0,0,0,0,0,0,0,0,0,0,.1h0c0,0,0,0,0,0,0,0,0,0,0,0,0,0,0,0,0,0,0,0,0,0,0,0,0,0,0,0,0,0h0ZM32.2,9.2s0,0,0,0c0,0,0,0,0,0h-.2s0,0,0,0h0s0,0,0,0c0,0,0,0,0,0h0s0,0,0-.1h0s0,0,0,0ZM19.7,24.5h0c0,0,0,0,0,0,0,0,0,0,0,0,0,0,0,0,0,0l-.7.6s0,0,0,0c0,0,0,0,0,0h0s0,0,0,0l.4.4h0c0,0,0-.1,0-.2,0,0,0,0,0-.1l.3-.3.5.5-.3.3s0,0,0,0c0,0,0,0,0,0,0,0,0,0,0,0h0s0,0,0,0l.4.4h0c0,0,0-.1,0-.1,0,0,0,0,0,0,0,0,0,0,0,0l.7-.6s0,0,.1,0c0,0,0,0,0,0h0s0,0,0,0l-.3-.4h0c0,0,0,0,0,0,0,0,0,0,0,0,0,0,0,0,0,0l-.3.3-.5-.5.3-.3s0,0,.1,0,0,0,0,0h0s0,0,0,0c0,0-.4-.4-.4-.4ZM18.8,23.2h-.4s0,.1,0,.1c0,0,.2,0,.3,0,0,0,.1.1.2.2v.2c.1,0-1.3-.2-1.3-.2h0s.5.9.5.9h.4c0,0,0-.2,0-.2-.1,0-.2,0-.3,0,0,0-.2-.1-.2-.3l-.2-.3,1.5.2h0s-.5-.8-.5-.8ZM18.2,22h0s0,0,0,0c0,0,0,0,0,.1,0,0,0,0,0,0l-.8.4c0,0,0,0-.1,0,0,0,0,0,0,0h0s0,0,0,0l.2.4h0s0,0,0,0c0,0,0,0,0-.1,0,0,0,0,0,0l.8-.4c0,0,.1,0,.1,0,0,0,0,0,0,0h0s0,0,0,0c0,0-.2-.4-.2-.4ZM17.5,20h0s0,0,0,0c0,0,0,0,0,.1,0,0,0,0-.1,0l-.6.2c-.2,0-.3.1-.3.3,0,.1,0,.3,0,.4,0,.1.1.2.2.3.1,0,.3,0,.4,0l.6-.2c0,0,0,0,.1,0,0,0,0,0,0,0h0s0,0,0,0v-.4c-.1,0-.2,0-.2,0h0c0,0,0,.1,0,.1,0,0,0,0-.1,0l-.6.2c0,0-.2,0-.3,0-.1,0-.2-.1-.3-.3,0-.1,0-.3,0-.4,0,0,.1,0,.2-.1l.6-.2c0,0,0,0,.1,0,0,0,0,0,0,0h0s0,0,0,0v-.5q-.1,0-.1,0ZM17.4,19.1h0c0-.1.1-.3.1-.4,0-.2,0-.3-.2-.5-.1-.1-.3-.2-.5-.2-.2,0-.4,0-.5.2-.1.1-.2.3-.2.5,0,.1,0,.3.1.4h-.1c0,.1.5.1.5.1,0,0,0,0,.1,0,0,0,0,0,0,0h0s0,0,0,0v-.5s0,0,0,0c0,0,0,.1,0,.2,0,0,0,0-.1,0h0s0,0-.1,0c0,0,0,0,0,0,0,0,0-.2,0-.3,0,0,0-.2,0-.3,0,0,.1-.1.2-.2,0,0,.2,0,.3,0,.2,0,.3,0,.4.1.1,0,.2.2.2.3,0,0,0,.2,0,.3,0,0-.2.1-.3.2h0c0,0,.4,0,.4,0h0c0,0,0,0,0,0ZM22.8,26.9h0c0,0,0,0,0,0,0,0,0,0,0,0,0,0,0,0,0,.1l-.2.6c0,.2,0,.3,0,.4,0,.1.2.2.3.2.1,0,.3,0,.4,0,.1,0,.2-.2.3-.3l.2-.6c0,0,0,0,0,0,0,0,0,0,.1,0h0s0,0,0,0h-.4c0-.1,0,0,0,0h0s0,0,0,0c0,0,0,0,0,.1l-.2.6c0,0,0,.2-.1.2,0,0-.1,0-.2,0,0,0-.1,0-.2,0,0,0-.1,0-.2-.1,0,0,0-.1,0-.2,0,0,0-.2,0-.3l.2-.6c0,0,0,0,0,0,0,0,0,0,.1,0h0s0,0,0,0c0,0-.5-.2-.5-.2ZM20.8,26.5c0,.2-.1.3,0,.5,0,.2.1.3.3.4.2.1.3.1.5,0,.2,0,.3-.2.4-.3,0-.2.1-.3,0-.5,0-.2-.1-.3-.3-.4-.3-.2-.7-.1-.9.2,0,0,0,0,0,0h0ZM21.8,27.1c0-.2.1-.3.1-.4,0-.1,0-.2-.2-.3-.1,0-.3,0-.4,0-.1,0-.2.2-.3.3,0,.2-.1.3-.1.4,0,.1,0,.2.2.3.1,0,.3,0,.4,0,.1,0,.2-.2.3-.3h0ZM32.5,25.8h0s0,0,0,0c0,0,0,0,0,0,0,0,0,0,0,0l.6.7s0,0,0,0,0,0,0,0h0s0,0,0,0l.9-.7-.2-.4h0c0,.1,0,.3,0,.4,0,.1-.1.2-.2.3h-.2c0,.2,0,.2,0,.2,0,0,0,0,0,0l-.3-.3h.1c0-.2.1-.2.2-.2,0,0,0,0,.1,0h0s0,0,0,0l-.4-.5h0c0,0,0,0,0,0,0,0,0,.1,0,.2,0,0,0,0,0,.1h-.1c0,.1-.3-.3-.3-.3l.2-.2c.1,0,.2-.1.3-.1,0,0,.2,0,.2,0h0c0,0-.3-.3-.3-.3l-.8.7h0ZM36.2,18.6h0s0,0,0,0c0,0,0,0,0,0l.6-.4h.3c0,0,0,0,.1,0,0,0,0,0,0,.1h0s0,0,0,0v-.5s0,0,0,0c0,0,0,0,0,.1,0,0,0,0-.1,0h-.3s-.6-.4-.6-.4c0,0,0,0,0,0,0,0,0,0,0,0h0v.4h0c0,0,0-.1,0-.1,0,0,0,0,0,0s0,0,0,0l.5.3-.5.3s0,0,0,0c0,0,0,0,0,0h0c0,0,0,0,0,0v.5h0ZM36,20.2l.4.2h0c0-.1-.1-.2-.2-.2,0,0,0-.1,0-.2,0,0,0,0,0,0,0,0,0,0,0,0h1c0,0,0,0,0,0,0,0,0,0,0,0,0,0,0,0,0,.1h0s0-.5,0-.5h0c0,0,0,0,0,.1,0,0,0,0-.1,0h-.9c0,0,0,0,0,0,0,0,0,0,0,0,0,0,0-.1,0-.2,0,0,.1,0,.2-.1h0c0,0-.4,0-.4,0h0c0,0,0,0,0,0v.8c0,0-.1,0-.1,0,0,0,0,0,0,0ZM35.7,21.5h0s0,0,0,0c0,0,0,0,0,0,0,0,0,0,.1,0l.9.2c0,0,.1,0,.1,0,0,0,0,0,0,0h0s0,0,0,0v-.5c0,0,0,0,0,0h0c0,0,0,.1,0,.1,0,0,0,0-.1,0l-.9-.2c0,0-.1,0-.1,0,0,0,0,0,0-.1h0s0,0,0,0c0,0,0,.5,0,.5ZM35.5,22.1h0c-.1.1-.2.2-.3.3,0,0,0,.2,0,.3,0,.1,0,.2.1.2,0,0,.2,0,.2,0,.1,0,.2,0,.3-.2l.2-.2c0,0,.1,0,.2-.1,0,0,.1,0,.2,0,0,0,0,0,0,.2,0,0,0,.2,0,.2,0,0-.1.2-.3.2-.1,0-.3,0-.4,0h0c0,0,.5.3.5.3h0c0,0,0-.2,0-.2,0,0,.1,0,.2,0,0,0,.1,0,.1-.2,0-.1.1-.2,0-.4,0-.1,0-.2-.2-.3,0,0-.2,0-.2,0-.1,0-.2,0-.3.2l-.2.2c0,0-.1,0-.2.1,0,0-.1,0-.1,0,0,0,0,0,0-.1,0,0,0-.1,0-.2,0,0,.1-.1.2-.2.1,0,.2,0,.3,0h0c0,0-.4-.2-.4-.2h0c0,0,0,0,0,0ZM33.9,24.6h0s0,0,0,0c0,0,0,0,0,0s0,0,0,0l.7.5c0,0,0,0,.1.1,0,0,0,0,0,0h0s0,0,0,0l.3-.4h0s0,0,0,0c0,0,0,0,0,0s0,0-.1,0l-.3-.2h0c0-.1.8-.2.8-.2l.2-.2h0s0,0,0,0c0,0,0,0,0,0,0,0,0,0-.1,0h-.6c0-.1.1-.2.1-.3,0-.1,0-.2-.1-.3-.2-.1-.4,0-.6.2,0,0-.4.6-.4.6ZM34.2,24.3l.4.3.2-.2c0,0,.1-.2.1-.3,0,0,0-.1-.1-.2,0,0-.1,0-.2,0,0,0-.1,0-.2.1,0,0-.2.3-.2.3ZM30.8,26.8h0c0,0,0,0,.1,0,0,0,0,0,.1,0l.9.8h.1c0,0-.1-1.3-.1-1.3,0,0,0,0,0-.1,0,0,0,0,0,0h0c0,0-.4.1-.4.1h0c0,0,0,0,0,0,0,0,0,0,0,0,0,0,0,0,0,0,0,0,0,0,0,0v1c.1,0-.6-.7-.6-.7,0,0,0,0,0,0,0,0,0,0,0,0,0,0,0,0,0,0h0s0,0,0,0l-.4.2h0ZM29.9,27.3h0c0,0,0,0,0,0,0,0,0,0,.1,0,0,0,0,0,0,.1l.3.8c0,0,0,0,0,.1,0,0,0,0,0,0h0s0,0,0,0l.5-.2h0c0,0,0,0,0,0,0,0,0,0-.1,0,0,0,0,0,0-.1l-.3-.8c0,0,0-.1,0-.1,0,0,0,0,0,0h0s0,0,0,0l-.5.2h0ZM28,27.6h0c0,0,0,0,0,0,0,0,0,0,0,0,0,0,0,0,0,0,0,0,0,0,0,.1v.9c0,0,0,.1,0,.1,0,0,0,0-.1,0h0s0,0,0,0h.5s0-.1,0-.1c0,0-.1,0-.1,0,0,0,0,0,0-.1v-1c0,0,.8,1.2.8,1.2h.1s0-1.1,0-1.1c0,0,0-.1,0-.1,0,0,0,0,.1,0h0s0,0,0,0h-.4s0,.1,0,.1h0s0,0,.1,0c0,0,0,0,0,.1v.8c0,0-.6-1-.6-1,0,0-.4,0-.4,0ZM25.9,27.8h0c0,0,0,0,0,0,0,0,0,0,0,0,0,0,0,0,0,.1v.7c0,.2,0,.3.2.4.1,0,.2.1.4.1.2,0,.3,0,.4-.1,0,0,.1-.2.1-.4v-.6c0,0,0,0,0-.1,0,0,0,0,.1,0h0c0,0-.4,0-.4,0h0c0,0,0,0,0,0,0,0,0,0,.1,0,0,0,0,0,0,.1v.6c0,0,0,.2,0,.3,0,0,0,.1-.1.1-.1,0-.3,0-.4,0,0,0-.1,0-.1-.1,0,0,0-.2,0-.3v-.6c0,0,0,0,0-.1,0,0,0,0,.1,0h0c0,0-.5,0-.5,0,0,0,0,0,0,0ZM26.8,10.8c-4.1,0-7.5,3.4-7.5,7.5s3.4,7.5,7.5,7.5,7.5-3.4,7.5-7.5-3.4-7.5-7.5-7.5Z"/>
      <path class="cls-1" d="M25.4,23.8v1.3c0,0,0,.1,0,0h.2c0,0-.7,0-.7,0h0c0,0,.1,0,.1,0,0,0,0,0,0,0v-1c0,0-.2,0-.3.1h0c.2-.1.3-.3.5-.4,0,0,.1,0,.1,0ZM26.1,25.3h0c.3-.1.4-.3.5-.6,0,0-.1,0-.2,0-.3,0-.4-.2-.4-.4,0-.3.2-.5.5-.5.3,0,.5.2.5.6,0,.5-.3.8-.8.9ZM26.2,24.2c0,.3,0,.4.2.4,0,0,.1,0,.2,0,0,0,0-.2,0-.2,0-.3,0-.4-.2-.4-.1,0-.2.1-.2.4ZM27.2,24.5c0-.5.2-.7.5-.7.3,0,.5.3.5.7,0,.5-.2.7-.5.7-.3,0-.5-.3-.5-.7h0ZM27.5,24.2v.6c0,.3,0,.4.2.4.1,0,.2-.1.2-.4v-.5c0-.3,0-.4-.2-.4-.1,0-.2.1-.2.4ZM28.4,25.3h0c0-.1,0-.2,0-.2.4-.4.6-.6.5-.8,0-.2,0-.3-.2-.3-.1,0-.2,0-.3.3h0c0-.3.2-.4.5-.5.2,0,.4.2.4.4,0,.2-.1.3-.3.5-.1.1-.2.2-.3.3h.4c.1,0,.2,0,.2-.2h0v.4h-.9s0,0,0,0ZM22.9,12.6c.1,0,.3.1.4.5,0,0,0,0,.3,0h1.7s.8,0,.4.6h-.3s-1.6.1-1.6.1c-.6,0-.7.4-.3.4h2c.5,0,.5.7-.2.7h-1.2s.2.2.3.3c.2.2.2.2,0,.4-.1,0-.3.2-.6,0,0,0-1.1-.2-1.3-1.2,0,0,0-.4-.1-.9,0-.4,0-1.3.5-1.2ZM30.4,12.2c-.1,0-.3.2-.4.5,0,0,0,0-.3.1h-1.7c0,.1-.8.3-.3.8h.3s1.6,0,1.6,0c.6,0,.7.4.4.4h-2c-.5.2-.4.9.3.9h1.2c0,0-.1,0-.3.2-.2.2-.2.3.1.5.1,0,.3,0,.5,0,0,0,1.1-.3,1.2-1.3,0,0,0-.4,0-.9,0-.4,0-1.3-.6-1.1h0Z"/>
      <path class="cls-1" d="M27,11.5c.2.2.2.4.2.9v3.4c.1,0,4.8-.1,4.8-.1.8,0,.7.9,0,.9h-1.1s.3.2.3.4c0,0,0,1.8,0,3,0,.9,0,1.4-1.1,1.8-.4.1-.7.3-.9-.2,0-.2,0-.3,0-.3,0,0,1.1-.1.7-.8h-1.5c-.6.1-.8-.5-.4-.7h2c.2-.1.2-.4,0-.5h-2c-.5,0-.6-.6,0-.7.1,0,.4,0,.8,0h1.4c.2,0,.1-.5,0-.5h-2.2c-.1,0-.2,0-.3,0-.1,0-.1-.4,0-.5,0,0,.1,0,.2-.1,0,0,1-.2,2-.2,0,0,.8,0,.4-.4l-2.8.2v3.1s.7,1.5,1.6,2.2c0,0,.6.5,1,.7.2.1.5.4,0,.6-.2,0-.4,0-.8-.1,0,0-1.4-.6-2.2-2.1,0,0-1.1,2.2-2.6,2.7-.3,0-.6.2-.6-.3,0-.2.3-.4.5-.5.6-.5,1.8-1.6,2-3.3v-2.7s0-.2-.5-.2h-2.6c0,.1-.2.4.4.4h2.2c0,0,.9.3,0,.8h-2.3v.5h2.3s.8.3,0,.8h-2.2c0,.1-.2.4,0,.4h2.2s.5.6-.3.9h-1.6c0,.1-.3.1-.2.4.1.2.4.3.6.3.2,0,.2,0,.3.2,0,.2.2.6-.2.6,0,0-1.8.2-1.8-1.7l-.2-2.7s0-.4.2-.5c0,0,0,0-.2,0s-.5,0-.9,0c-.9,0-.7-1,0-1l4.7-.2h.2c0-1.2-.1-2.4-.1-3.5,0-.4,0-.5,0-.7.2-.4.3-.6.7-.2ZM109.2,11.3c-.2,0-.4,0-.6,0,0,.4,0,.7-.3,1.2-.4,0-.7-.1-.9-.2v-.4c.3-.3.6-.6.9-.9.3,0,.6,0,.9.3ZM109.5,12c-.5.3-.6.3-.9.8.6.3.8.6,1.1.7.5-.3.6-.4.6-.9-.3,0-.4,0-.5-.2-.1,0-.3,0-.4.2,0-.3.1-.4.1-.5h0ZM110.2,14.7c.4-.9,1-1.6,2.1-1.7-.4.3-1.6,1.5-2.1,1.7ZM105.2,15.7c-.8-.7,0-2.2-.6-3,.7-.1,1.5,2.2,1.1,2.9-.1,0-.3,0-.4,0ZM108.5,17.9h0c.7-.4,1.9-.9,2.4-1.6,0-1.4-1.6-.3-2.4-.2.7-.4,1.3-.8,2-1.3,1.3-.6,2.3-1.7,3.4-2.6-.3-1.2-2.3.3-3,.6,0-.2,1.3-2.9,1.5-3.5.4-.6.4-1.1,0-1.6-.7,0-1.7.4-2.1.8,0,0,0,0,0,.1.5,0,.6-.1.9-.2,0,1-.4,2.1-.9,3.1-.3.1-.5-.2-.7-.3v-.2c0,0,.2,0,.3,0,.2-.3.3-.4.3-.7-.7-.4-.7-.4-1.4-.3,0,0,0-.1,0-.2.5-.4,1-.6.9-1.3-.6-.3-1.1-.7-1.8-.6,0,.1.3.3.5.5,0,.6-.2.9-.4,1.5-.2,0-.4.1-.5.2v.2c0,0,.1,0,.2,0,0,.3-.3.7-.6,1,0-.6-1.1-1.6-1.7-1.7,0,.4.6.8.7,1.4.3.2.1,1.2.1,1.6.6,0,.9-.2,1.5,0,0,.6-.7,1.1-1.3,1.4,0,.1,0,.3,0,.4.8.2,1.2-.7,1.7-1.3.2,0,.6.3.8.6-.9.5-2.2,1.4-3.2,1.6-.1,0-.3,0-.4,0,0,0-.1,0-.2,0,0,0,0,.1,0,.2,1.3.4,2.9-.6,4.1-1.4,0,0,.2,0,.3,0,0,.2,0,.4,0,.5-.5.3-1.8,1-1.7,1.6.9.4,1.6-.6,2.5-.7-.4.7-1.7,1.4-1.8,1.9ZM103.5,19.5c-.6-.7-.9-1.9-.4-2.8.4.2,1.8,2,.9,2.6-.2,0-.3,0-.5.1ZM108.5,17.9h0c.1.2.3.5.5.8.8,0,1.1-.4,1.8-.8.5,0,1.7,0,1.1,1-.7.5-1.6.5-2.4.8,0,0,.3,1.2.4,1.2,0,1.4.4,2.1-.4,3.4-.3,0-.5,0-.8.2-.8-.5-3.6-1.4-3.7-1.8,1.1-.3,2.6.8,4,.4.1-1.3-.3-2.3-.3-3.4-2.3.5-3.7,1.6-5.7,2.8-.7,0-1.7-.4-1.4-1.1q.2,0,.5,0c2.3-1.1,4.2-1.8,6.5-2.5,0-.4-.4-.7-.1-1.1h0ZM53.9,13.2h0c-.4.7-.6.9-1.4.6l-.7-3c.9.5,1.8,1.3,2.1,2.4ZM55.6,17.7c0-.1,0-.2-.1-.3-.2,0-.4-.1-.5-.2,0,0,0-.1,0-.2.4,0,1.1-.3,1.4.3-.2.3-.4.3-.7.5ZM55.4,19.3c0,0,0-.2,0-.3.4-.6-.1-.6-.2-1.1.4,0,.8.1,1.3.3v.6c-.2,0-.4,0-.6,0-.1.2-.2.4-.5.4ZM53.9,13.3c0,0,.2,0,.3.2.3-.2.6-.3.9-.4.2.3,0,1.3-.1,1.7-2,1.2-4.1,2.5-6,3.8-.5.2-.9.2-1.3.3,0,1.9,2.7-.5,2.9-.7,1.3-.9,3-2.5,4.5-2.9,0,.1,0,.3-.1.4,0,0-.1,0-.2,0q0,.1,0,.4c.6.2,1-1.3,1.1-1.6.5-.3,1.4-.9,1.9-.9-.3.2-.8.4-1,.8.5.1.9-.2,1.2-.5.5-.1.9-.2,1.2-.6.7-.2,1-.2,1-.9-.6-.2-.7-.3-1-.4-.8.5-2.4,1.8-3.3,2,0-.4.2-.7.2-1.1.9-.4,1.5-.2,1.6-1.5.7-.4,1.3-.9,2-1.3,0-.6-.7-.7-1.1-.7-.3.6-1.3.8-2,.9,0-.7.1-1.5.2-2.2.4-1,0-2.4-1.4-2.6,0,1.8,0,3.6-.2,5.4q-.6.3-1.2.6v.2c.6,0,1-.2,1.2-.2.4.6-1.1,1.5-1.5,1.8,0,0,0,0,0,0h0ZM54.3,21.3c1.3-.3.2-3,0-3.9,0,0,0,0-.1,0,0,.9-.1,1.7-.1,2.7-.3.3-.1,1,.2,1.3ZM57.1,21.9c.9,0,1.2-.2,1.2-1-.4-.4,0-2.1,0-2.1,0-1.3-.1-1.7.5-2.6,0-1-.4-1.5-1.4-1.6-.8.8-1.6,1.3-2.7,1.8.9.3,1.8-.3,2.5-.7,0,.3,0,2-.2,2.1,0,1.4,0,2.8,0,4ZM56.2,21.7c.8.2,2.7,1,3.3,1.6v.5c-.3.2-.4.3-.8.2-.7-.5-2.5-1.6-2.5-2.3ZM56.1,21.6c-.8.8-2.4,2.8-3.8,2.9.1-.5.4-.5.7-.8q.9-1,1.4-1.7c.7-1.1.7-1.4.8-1.5-.1-.7-.3-.6.1-1,.7,0,1,.4,1.3,1.1-.2.3-.4.6-.6,1ZM72,15.6v-.2c.7-.3.9-1.1.9-1.8.7.4.2,1.7.2,2.5-.6,0-.7-.2-1.1-.5ZM71.3,12.8c0,.8-.6,1.7-.8,2.6-.4.3,0,1.4-.4,2-1.3,0-1.7-1.6-1.8-2.6.5.1.7.4,1,.9h.3c.6-1,1.1-2,1.5-3,0,0,0,0,.1,0ZM74,18.4c.9-.3.7-.7.6-1.6-.4-.3-.2-2.1-.2-2.5.2.1,1,.6,1.3.2-.4-.5-.5-.9-.3-1.4,0,0-.2,0-.2,0,0,.2-.1.6-.2.9h-.4c0-.7-.3-.9-.9-1.1.2.4.3,1.5,0,1.8,0,1,.2,2-.3,3q.2.3.7.7ZM71.4,12.7c.2.2.2.9.2,1.3-.5.4,0,2.2-.5,2.6,0,1-1.2,3-1.9,3.5-.5,0-.6,0-.8,0v.2c1.2,1,2.1-.8,2.8-1.7.5-1,.4-2.1.9-3v-.2c0-.9.5-1.9.3-2.6-.2-.1-.4-.2-.6-.3-.1,0-.2,0-.3,0,0,0,0,.1,0,.2h0ZM76.6,20.9c-.2-.5-.4-1.8-.5-1.9,0-2-.1-4-.2-6,.4-.4-.1-1.8-.1-2.3,1.2-.8,1.2,1.4,1.2,2,0,0,0,0,0,0,0,2.7-.1,5.4-.2,8.1,0,0-.1,0-.2,0ZM84.1,21.8q0-.3,0-.4c2.7-.5,5.5-2.8,5.8-5.4-1.2.7-2.5,1.5-3.7,2.2-.7,0-1.2-.3-1.1-.9.3,0,.6,0,.9,0q4.1-1.7,4.2-1.8c0-.2.3-1.2.4-1.3,0-1.2.4-3-.2-4,0,0,0-.2,0-.2,1,0,1.2.2,1.9.9-.2,1.4-.8,2.7-.9,4.1,1.5-.2,2.3-2,4-2,0,0,0,.1,0,.2-.3.2-2,1-4.1,2.2,0,.3-.3.6-.2.9,1.6,1.5,2.6,2.9,5,3.5,0,.1,0,.2,0,.4-.7,0-2.4.4-2.9.2q-1-1.3-2.3-3.6c0,0-.1,0-.2,0,0,1.6-3,3.9-4.5,4.5q-.9.2-2.4.4ZM54.4,29.8c-.2,0-.3.1-.3.3v.7c-.4.2-.8.3-1.2.3-1.1,0-1.7-.6-1.7-1.6,0-.9.6-1.5,1.7-1.5.3,0,.5,0,.7.1.1,0,.2,0,.3,0s0,0,.1,0h.1v.9h-.2c-.1-.5-.5-.8-1-.8-.7,0-1.1.5-1.1,1.3,0,.9.4,1.3,1.1,1.4.2,0,.4,0,.5-.1v-.7c0-.2-.2-.3-.6-.3v-.2h1.5v.2h0ZM57.2,28.2c.3,0,.4.2.4.5v1.2c0,.6-.3.9-.9.9-.6,0-.8-.3-.8-.8v-1.4c0-.2.1-.3.3-.3h0v-.2h-1.4v.2h0c.2,0,.3,0,.3.3v1.4c0,.7.5,1.1,1.3,1.1.9,0,1.3-.4,1.3-1.3v-1.2c0-.3.1-.4.4-.4h0v-.2h-1.2v.2s0,0,0,0ZM58.8,28.2c.2,0,.4.1.3.4v1.9c0,.2-.1.4-.3.3h0v.2h1.5v-.2h0c-.3,0-.4-.1-.4-.4v-1.9c0-.2.1-.4.4-.4h0v-.2h-1.5v.2h0ZM63.7,30.1c0,.5-.3.8-.5.7h-1.4l2.1-2.5v-.3h-2.7v.8s.1,0,.1,0c0-.4.2-.6.4-.5h1.2l-2.1,2.5v.3h2.9v-1c0,0-.1,0-.1,0ZM68.2,31v-.2h0c-.3,0-.4-.1-.4-.4v-1.9c0-.2.1-.3.3-.3h0v-.2h-1.5v.2h0c.3,0,.4.1.4.4v.8h-1.5v-.8c0-.2.1-.3.4-.3h0v-.2h-1.5v.2h0c.2,0,.3.1.3.3v1.9c0,.3-.1.4-.3.4h0v.2h1.5v-.2h0c-.3,0-.4-.1-.4-.4v-.9h1.5v.9c0,.3-.1.4-.3.4h0v.2s1.5,0,1.5,0ZM68.8,29.6c0,1,.6,1.5,1.7,1.5,1.1,0,1.7-.6,1.7-1.6,0-1-.6-1.5-1.7-1.5-1.1,0-1.7.6-1.8,1.7ZM70.5,28.1c.7,0,1,.6,1.1,1.5,0,.8-.4,1.2-1,1.3-.7,0-1.1-.6-1.1-1.6,0-.8.3-1.2,1-1.2ZM75.2,28.2c.3,0,.4.2.4.5v1.2c0,.6-.3.9-.9.9-.6,0-.8-.3-.8-.8v-1.4c0-.2.1-.3.3-.3h0v-.2h-1.4v.2h0c.2,0,.3,0,.3.3v1.4c0,.7.5,1.1,1.4,1.1.9,0,1.3-.4,1.3-1.3v-1.2c0-.3.1-.4.4-.4h0v-.2h-1.2v.2h0ZM80.3,28.2c.3,0,.4.2.4.5v1.2c0,.6-.3.9-.9.9-.6,0-.8-.3-.8-.8v-1.4c0-.2.1-.3.3-.3h0v-.2h-1.4v.2h0c.2,0,.3,0,.3.3v1.4c0,.7.5,1.1,1.4,1.1.9,0,1.3-.4,1.3-1.3v-1.2c0-.3.1-.4.4-.4h0v-.2h-1.2v.2h0ZM84.7,31h.2v-2.6c0-.2.1-.2.4-.2h0v-.2h-1.2v.2h0c.3,0,.5.1.4.4v1.5l-1.9-2.1h-.9v.2c.1,0,.3,0,.4,0v2.2c0,.2-.1.3-.3.3h0v.2h1.1v-.2c-.3,0-.5-.1-.5-.4v-1.8l2.2,2.4h0ZM85.9,28.2c.2,0,.4.1.3.4v1.9c0,.2-.1.4-.3.3h0v.2h1.5v-.2h0c-.3,0-.4-.1-.4-.4v-1.9c0-.2.1-.4.4-.4h0v-.2h-1.5v.2h0ZM89.7,31.1l1-2.4c.1-.4.3-.5.5-.5h0v-.2h-1.2v.2h.1c.3,0,.3,0,.3.3l-.7,1.8-.7-1.6c0-.2,0-.3,0-.3,0,0,.2-.1.4-.1h0v-.2h-1.6v.2h0c.2,0,.4,0,.5.4l1.1,2.5h.3,0ZM94,28.7h.2v-.7h-2.6v.2h0c.3,0,.4,0,.4.3v2c0,.2-.1.4-.4.3h-.2v.2h2.8v-.8c0,0-.1,0-.1,0,0,.4-.2.5-.5.5h-.8c-.1,0-.2,0-.2-.2v-.9h.7c.3,0,.4.1.4.3h.2v-1h-.2c0,.3-.1.4-.3.3h-.8v-1.1h1c.2,0,.3.1.3.4h0ZM96.3,29.7c.2.2.3.4.5.6.1.2.2.3.3.4.2.2.5.3,1,.3h.3v-.2c-.2,0-.5-.1-.6-.3-.1-.1-.3-.3-.4-.5-.1-.2-.3-.4-.4-.5.4-.1.7-.4.7-.8,0-.2,0-.4-.2-.5-.2-.2-.6-.3-1.3-.3-.2,0-.4,0-.8,0-.1,0-.3,0-.5,0h-.1v.2h0c.3,0,.4.1.4.4v1.9c0,.3-.1.4-.4.4h0v.2h1.6v-.2h-.1c-.3,0-.4-.1-.4-.4v-.7h.4ZM96.2,28.2c.5,0,.8.3.8.7,0,.5-.3.7-.9.7h-.2v-1.4h.3ZM99.2,31s0,0,0,0c0,0,0,0,.2,0,.2,0,.4,0,.6,0,.6,0,.9-.3,1-.9,0-.2,0-.4-.3-.6-.2-.1-.4-.3-.7-.5-.4-.2-.6-.4-.6-.6,0-.2.2-.3.4-.3.4,0,.6.2.8.6h.2v-.8h-.2s0,0,0,0c0,0,0,0,0,0,0,0,0,0-.1,0-.2,0-.4-.1-.6-.1-.6,0-.9.3-.9.8,0,.3.3.7.8,1,.4.2.7.5.7.7,0,.3-.2.5-.5.5-.4,0-.7-.2-.8-.7h-.2v.9h.2s0,0,0,0ZM101.7,28.2c.2,0,.4.1.3.4v1.9c0,.2-.1.4-.3.3h0v.2h1.5v-.2h0c-.3,0-.4-.1-.4-.4v-1.9c0-.2.1-.4.4-.4h0v-.2h-1.5v.2h0ZM106.1,28.3c.3,0,.5.1.5.6h.2v-.9h-.2c0,0-.1.1-.2,0h-2.2c0,0-.1,0-.1,0,0,0,0,0,0,0h-.1v.9c0,0,.1,0,.1,0,0-.4.2-.6.5-.6h.6v2.2c0,.3-.1.4-.4.4h-.2v.2h1.7v-.2h-.1c-.3,0-.4,0-.4-.4v-2.2h.5ZM110.1,28.6c0-.2.3-.3.5-.3v-.2h-1.1v.2h0c.1,0,.2,0,.2,0,0,0,0,.2,0,.3l-.5.9-.7-1c0,0,0-.1,0-.2,0,0,.1,0,.2,0h0v-.2h-1.5v.2h0c.2,0,.3,0,.4.2l1,1.4v.7c0,.2-.1.4-.3.3h-.1v.2h1.6v-.2h0c-.3,0-.4-.1-.4-.4v-.7s.8-1.3.8-1.3Z"/>
    </g>
  </g>
</svg>