<?xml version="1.0" encoding="UTF-8"?>
<svg xmlns="http://www.w3.org/2000/svg" version="1.1" viewBox="0 0 128 38.9">
  <defs>
    <style>
      .cls-1 {
        fill: #231916;
      }

      .cls-1, .cls-2, .cls-3 {
        fill-rule: evenodd;
      }

      .cls-2 {
        fill: #365f8f;
      }

      .cls-3 {
        fill: #e8380e;
      }
    </style>
  </defs>
  <!-- Generator: Adobe Illustrator 28.7.1, SVG Export Plug-In . SVG Version: 1.2.0 Build 142)  -->
  <g>
    <g id="_图层_1" data-name="图层_1">
      <path class="cls-1" d="M45.1,26.7h-.2v-.2c0,0-.1.1-.2.1,0,0-.2,0-.3,0-.2,0-.4,0-.5-.3-.2-.2-.2-.5-.2-.9s0-.8.2-1c.1-.2.3-.3.6-.3.2,0,.4,0,.5.2.1.2.2.4.2.6h-.3c0-.2,0-.3,0-.4,0,0-.2-.1-.3-.1-.1,0-.3,0-.3.2,0,.2-.1.4-.1.8s0,.6.1.7c0,.1.2.2.3.2.1,0,.2,0,.3-.1,0,0,.1-.2.1-.4v-.2h-.4v-.3h.7s0,1.2,0,1.2ZM46.8,26c0,.2,0,.4-.2.5s-.3.2-.5.2-.4,0-.5-.2c-.1-.1-.2-.3-.2-.5v-1.7h.3v1.7c0,.2,0,.3.1.3,0,0,.2.1.3.1.1,0,.2,0,.3-.1,0,0,.1-.2.1-.3v-1.7h.3s0,1.7,0,1.7ZM48.1,25.6l-.2-.8h0l-.2.8h.5ZM48.7,26.6h-.3l-.2-.7h-.6l-.2.7h-.3l.7-2.4h.3l.7,2.4h0ZM50.4,26.6h-.3l-.8-1.7h0v1.7h-.3v-2.4h.3l.8,1.7h0v-1.7h.3v2.4ZM52.1,26.7h-.2v-.2c0,0-.1.1-.2.1,0,0-.2,0-.3,0-.2,0-.4,0-.5-.3-.2-.2-.2-.5-.2-.9s0-.8.2-1c.1-.2.3-.3.6-.3.2,0,.4,0,.5.2.1.2.2.4.2.6h-.3c0-.2,0-.3,0-.4,0,0-.2-.1-.3-.1-.1,0-.3,0-.3.2,0,.2-.1.4-.1.8s0,.6.1.7c0,.1.2.2.3.2.1,0,.2,0,.3-.1,0,0,.1-.2.1-.4v-.2h-.4v-.3h.7s0,1.2,0,1.2ZM53.9,26.6h-1.5v-.3l1.1-1.8h-1v-.3h1.4v.3l-1.1,1.8h1.2v.3ZM55.7,26.6h-.3v-1.1h-.8v1.1h-.3v-2.4h.3v1h.8v-1h.3v2.4ZM57.2,25.5c0-.4,0-.6-.1-.8s-.2-.2-.3-.2-.2,0-.3.2c0,.1-.1.4-.1.8s0,.6.1.8c0,.1.2.2.3.2s.2,0,.3-.2.1-.4.1-.8h0ZM57.5,25.5c0,.4,0,.7-.2.9-.1.2-.3.3-.6.3-.2,0-.4,0-.6-.3-.1-.2-.2-.5-.2-.9s0-.7.2-.9c.1-.2.3-.3.6-.3.2,0,.4,0,.6.3.1.2.2.5.2.9h0ZM59.2,26c0,.2,0,.4-.2.5s-.3.2-.5.2-.4,0-.5-.2c-.1-.1-.2-.3-.2-.5v-1.7h.3v1.7c0,.2,0,.3.1.3,0,0,.2.1.3.1.1,0,.2,0,.3-.1,0,0,.1-.2.1-.3v-1.7h.3s0,1.7,0,1.7ZM62.7,26c0,.2,0,.4-.2.5s-.3.2-.5.2-.4,0-.5-.2c-.1-.1-.2-.3-.2-.5v-1.7h.3v1.7c0,.2,0,.3.1.3,0,0,.2.1.3.1.1,0,.2,0,.3-.1,0,0,.1-.2.1-.3v-1.7h.3s0,1.7,0,1.7ZM64.5,26.6h-.3l-.8-1.7h0v1.7h-.3v-2.4h.3l.8,1.7h0v-1.7h.3v2.4ZM65.4,26.6h.3v-2.4h-.3v2.4ZM68.1,24.3l-.7,2.4h-.3l-.7-2.4h.3l.5,1.8h0l.5-1.8h.3ZM69.8,26.6h-1.4v-2.4h1.3v.3h-1v.7h.9v.3h-.9v.8h1.1s0,.3,0,.3ZM71.3,25c0-.1,0-.2-.1-.3,0,0-.2-.1-.4-.1h-.3v.8h.4c.1,0,.2,0,.3,0,0,0,.1-.2.1-.3h0ZM71.6,26.6h-.3l-.5-1h-.4v1h-.3v-2.4h.7c.2,0,.4,0,.5.2.1.1.2.3.2.5s0,.3-.1.4c0,0-.2.2-.3.2l.5,1.1h0ZM73.4,26c0,.2,0,.4-.2.5-.1.1-.3.2-.5.2s-.4,0-.5-.2c-.1-.1-.2-.3-.2-.5h0c0,0,.3,0,.3,0h0c0,.2,0,.3.1.4,0,0,.2.1.3.1s.3,0,.3-.1c0,0,.1-.2.1-.3,0,0,0-.2-.1-.3-.1,0-.2-.2-.4-.2-.2,0-.4-.2-.5-.3,0,0-.1-.2-.1-.4,0-.2,0-.4.2-.5.1-.1.3-.2.5-.2.2,0,.4,0,.5.2.1.1.2.3.2.5h-.3c0,0,0-.2,0-.3,0,0-.2-.1-.3-.1,0,0-.2,0-.3,0,0,0-.1.1,0,.2,0,0,0,.2,0,.2,0,0,.2.1.4.2.2,0,.4.2.5.3s.2.2.2.4h0ZM74.2,26.6h.3v-2.4h-.3v2.4ZM76.9,24.5h-.6v2.1h-.3v-2.1h-.6v-.3h1.4s0,.3,0,.3ZM78.7,24.3l-.6,1.3v1.1h-.3v-1.1l-.6-1.3h.3l.5,1h0l.5-1h.3ZM81.9,25.5c0-.4,0-.6-.1-.8s-.2-.2-.3-.2-.2,0-.3.2-.1.4-.1.8,0,.6.1.8.2.2.3.2.2,0,.3-.2.1-.4.1-.8h0ZM82.2,25.5c0,.4,0,.7-.2.9-.1.2-.3.3-.6.3-.2,0-.4,0-.6-.3-.1-.2-.2-.5-.2-.9s0-.7.2-.9c.1-.2.3-.3.6-.3.2,0,.4,0,.6.3.1.2.2.5.2.9h0ZM84,24.5h-1.1v.8h.9v.3h-.9v1.1h-.3v-2.4h1.4s0,.3,0,.3ZM87.5,25.7c0,.3,0,.6-.2.7-.1.1-.3.2-.5.2-.2,0-.4,0-.6-.3-.2-.2-.2-.5-.2-.9s0-.8.2-1c.2-.2.3-.3.6-.3s.4,0,.5.2c.1.2.2.4.2.6h-.3c0-.2,0-.4,0-.5,0-.1-.2-.2-.3-.2-.1,0-.3,0-.4.2,0,.2-.1.4-.1.8s0,.6.1.7c0,.1.2.2.3.2s.2,0,.3-.1c0,0,.1-.3.1-.6h.3ZM89.2,26.6h-.3v-1.1h-.8v1.1h-.3v-2.4h.3v1h.8v-1h.3v2.4ZM90.1,26.6h.3v-2.4h-.3v2.4ZM92.8,26.6h-.3l-.8-1.7h0v1.7h-.3v-2.4h.3l.8,1.7h0v-1.7h.3v2.4ZM94.6,26.6h-1.4v-2.4h1.3v.3h-1v.7h.9v.3h-.9v.8h1.1s0,.3,0,.3ZM96.3,26c0,.2,0,.4-.2.5-.1.1-.3.2-.5.2s-.4,0-.5-.2c-.1-.1-.2-.3-.2-.5h0c0,0,.3,0,.3,0h0c0,.2,0,.3.1.4,0,0,.2.1.3.1s.3,0,.3-.1c0,0,.1-.2.1-.3,0,0,0-.2-.1-.3-.1,0-.2-.2-.4-.2-.2,0-.4-.2-.5-.3,0,0-.1-.2-.1-.4,0-.2,0-.4.2-.5.1-.1.3-.2.5-.2.2,0,.4,0,.5.2.1.1.2.3.2.5h-.3c0,0,0-.2,0-.3,0,0-.2-.1-.3-.1,0,0-.2,0-.3,0,0,0-.1.1,0,.2,0,0,0,.2,0,.2,0,0,.2.1.4.2.2,0,.4.2.5.3s.2.2.2.4h0ZM98.1,26.6h-1.4v-2.4h1.3v.3h-1v.7h.9v.3h-.9v.8h1.1s0,.3,0,.3ZM101.6,26.6h-.3v-1.7h0l-.3,1.7h-.2l-.3-1.7h0v1.7h-.3v-2.4h.4l.3,1.6h0l.3-1.6h.4v2.4ZM103.4,26.6h-1.4v-2.4h1.3v.3h-1v.7h.9v.3h-.9v.8h1.1s0,.3,0,.3ZM104.8,25.5c0-.3,0-.6-.2-.7-.1-.1-.3-.2-.5-.2h-.2v1.8h.2c.2,0,.4,0,.5-.2.1-.1.2-.4.2-.7ZM105.2,25.5c0,.4,0,.7-.3.9-.2.2-.4.3-.7.3h-.5v-2.4h.5c.3,0,.6,0,.8.3.2.2.2.5.2.9h0ZM106,26.6h.3v-2.4h-.3v2.4ZM108.7,25.7c0,.3,0,.6-.2.7-.1.1-.3.2-.5.2-.2,0-.4,0-.6-.3-.2-.2-.2-.5-.2-.9s0-.8.2-1c.2-.2.3-.3.6-.3s.4,0,.5.2c.1.2.2.4.2.6h-.3c0-.2,0-.4,0-.5,0-.1-.2-.2-.3-.2-.1,0-.3,0-.4.2,0,.2-.1.4-.1.8s0,.6.1.7c0,.1.2.2.3.2s.2,0,.3-.1c0,0,.1-.3.1-.6h.3ZM109.6,26.6h.3v-2.4h-.3v2.4ZM112.2,26.6h-.3l-.8-1.7h0v1.7h-.3v-2.4h.3l.8,1.7h0v-1.7h.3v2.4ZM114,26.6h-1.4v-2.4h1.3v.3h-1v.7h.9v.3h-.9v.8h1.1s0,.3,0,.3ZM46,19.6c0,0-.1.1-.2.2,0,.3.2.9.5.9.4,0,.4,0,.5-.4,0-.1,0-.4.2-.4q0-.1,0-.3c-.1-.2-.8,0-1,0Z"/>
      <path class="cls-1" d="M48.3,14.4c-.1.1-.4,0-.6.2h-.2c0,0-.1-.2-.2-.2-.4-.2-.6,0-.6.4,0,.1-.2.1-.3.2q0,.2-.1.3c-.1,0-.2-.4-.2-.5,0,0,0,0-.1-.1h0c0-.1,0-.1,0-.1.1-.1.3-.1.4-.3q.2-.1.3-.1c0-.1.3-.2.4-.3,0,0,0,0,0,0,0,0,.2,0,.2-.1.5,0,.5,0,.7,0,.1,0,.3-.1.4-.2h0c0,0,0,0,0,0,0,.3,0,.8-.4.9h0ZM48.6,18.2s0,0,0,0c.2,0,.2-.4.1-.6-.1,0-.2,0-.2-.2.1,0,.2,0,.4-.1,0,0,0,0,0,0,0,0,.1,0,.2,0,0,.3.2.9-.2,1.1,0,0,0,0,0,.1,0,0-.1,0-.2,0,0,0-.2,0-.3,0,0-.1,0-.3.1-.3ZM48.2,15.4q-.1.2-.1.2c-.2,0-.2,0-.3,0,0-.1,0-.3,0-.4.1-.2.4-.3.7-.3,0,.1,0,.3-.1.4h0ZM47.1,16c-.4,0-.6.2-1,.2,0-.2,0-.4.2-.5h0c.1-.1.3,0,.4,0,.2,0,.2,0,.4,0,0,.1,0,.1,0,.2ZM48.6,16.1l.7-.2s0,0,0,0c.2,0,1.1-.3,1.2,0,.3,0,.8,0,.9-.3,0-.2,0-.2,0-.2h-.1s0,0,0,0c-.1,0-.3,0-.3-.2-.2,0-.4-.2-.6-.2-.5.1-1,.4-1.5.5,0-.3.2-.5.5-.6,0,0,0,0,0,0h0c.2-.1.4-.1.6-.1,0,0,0,0,.1-.2,0,0,0-.1,0-.2-.1-.4-.2-.3-.5-.3h0s0,0,0,0c-.1-.3-.5-.5-.8-.4t0,0c.3,0,.6,0,1,0,.1-.1.3-.2.4-.2.4,0,.4-.4.2-.8,0,0-.2,0-.3,0h0c-.3-.2-.7,0-1.1,0-.2,0-.3,0-.5,0,0,0-.1-.1-.2-.2h0s0,0,0,0h0c-.1-.1-.2-.1-.4-.2h0q-.3,0-.4,0c-.4.1-.4.4-.3.7h0s0,0,0,0c.1,0,.2.1.2.3-.2.1-.4,0-.7.3,0,0-.4,0-.4.1-.4,0-.4,0-.7,0,0,0,0,0,0,0-.1,0-.2,0-.3,0,0,0,0,0,0,0-.3.4,0,.9.3,1.2,0,.2,0,.3-.2.4,0,.3,0,.6-.2.9,0,.3-.3.6-.3.9-.2.3-.3.6-.3.9-.2.2-.3.9-.3,1.1,0,.2-.1.3-.2.5,0,.2-.2.3-.2.5-.2.2-.2.6-.2.9.4.3.6-.3.7-.6.2-.2.2-.6.4-.7,0-.1.1-.3.2-.4,0,0,.2-.4.3-.6.3-.2.4-.8.6-1.2,0,0,0-.3.1-.3,0-.1.3,0,.4,0h.4c.2,0,.6-.2.7-.3q.1,0,.3,0h0c.2,0,.3-.1.4-.1.1.5-.5.3-.7.5,0,0,0,0,0,0,0,.1,0,.3,0,.4,0,0,0,.1.1.2.2,0,.4.1.5.2,0,0-.1,0-.2,0,0,.3,0,.4.4.4,0,.1,0,.3,0,.4-.1,0-.2,0-.3.1h0c0,0,0,0,0,.1,0,0-.2,0-.3,0,0-.1.1-.7,0-.8h0c0-.2-.3-.4-.3-.4-.3-.2-.6-.7-.8-.1,0,.3,0,.5-.1.7,0,0,0,.2,0,.3h0q0,.1.2.4c0,0,.1.1.2.2h0c0,.1.2.2.3.2.2,0,.3,0,.5,0h.3c.2,0,.5-.2.8-.2.1,0,.3.2.4.3.2,0,.4,0,.6,0,.4.2.2.5.3.8.1,0,.2.2.2.3.2.2.7.1.7-.2,0-.1.2-.7,0-.7,0,0-.1,0-.2,0q0,0,0-.2s0,0,0,0c0-.2-.3-.3-.5-.3,0,0-.2-.1-.2-.1,0,0,0-.1,0-.2h0c0,0,0-.1.1-.2.3-.5.4-1.3.4-2-.1,0-.2-.2-.3-.3q-.6-.2-.6-.2c-.3,0-.4,0-.7.1,0,0-.2,0-.3,0,0,0,0,0,0-.2t0-.1ZM112.2,17.6c-.3-.2-.6,0-.9,0-.1,0-.6.2-.6,0q0,0,.1,0h0c0,0,0-.2.2-.2.1-.2.2-.4.4-.5,0,0,0,0,0-.1h0c.1-.2,0-.5,0-.7q0,0,0,0c-.2,0-.6,0-.7.2,0,0,0,0,0,0h-.6c-.3,0-.2,0-.4.2h0c-.1.3-.4.5-.4.8,0,0,0,0,0,0,0,.2.4,0,.6,0h0c0,0,.3-.2.3-.3q0,0,.3,0c.1.1-.2.3-.3.4,0,0-.1,0-.1,0,0,0,0,0,0,0,0,0,0,.1,0,.2,0,0,.2,0,.2.2l-.5.2h0q0,0-.3,0c-.2,0-.3.1-.5.1-.3.2-1,0-1.2,0,0,.1,0,.3,0,.4,0,0,.1.3.2.3,0,0,.1.1.2.2.2,0,.7,0,.7-.2.2,0,.2-.1.4-.1h0c.2,0,.3-.2.5-.2.2-.1.9-.3.7.1,0,.1-.3,1-.5,1,0,0-.2,0-.3,0h0q-.1,0-.3.2c-.2,0-.7,0-.7.3,0,.6.7.1.8.4,0,0,0,0,0,0,0,0,0,0,0,0,0,0,0,0,0,0,0,.1.2.2.3.2,0,0,0,0,0,0,.1,0,.4-.2.4-.3,0,0,0,0,0,0,0-.2.1-.2.2-.3.1-.2.3-.5.4-.8h0c0-.1,0-.2,0-.3,0,0-.1-.8,0-.9.2,0,.3,0,.4,0,.3,0,.8.2,1,0,0-.1,0-.2,0-.3-.1,0-.2-.3-.2-.4Z"/>
      <path class="cls-1" d="M111.8,14.1c-.1-.1,0-.3.2-.4,0,.1,0,.3-.2.4h0ZM111.6,14.9c-.2,0-.4.2-.6.2h0q0,0,.2-.2c0-.1,0-.2,0-.3.1,0,.3,0,.4.1,0,0,0,.1,0,.2ZM110.4,15.3s0,0,0,0c0,0,0,0,0,0,0-.1,0-.3.2-.3,0,0,.3.1.4.1-.1.1-.4.2-.6.2ZM109.9,13.8s0,0,0-.1c0,0,.2,0,.2,0,.2-.1,0-.3.4-.3,0,.2,0,.3-.2.4-.2,0-.3,0-.5.1ZM109.8,15.4h0c0,0,0-.4,0-.4.2-.3.3-.7.2-1h0q0,0,0,0c0,.2.1.4.3.5,0,.2-.2.4-.3.6,0,.4.2,0,.3.3-.1,0-.4.2-.6.1ZM110.4,12.1q0,0,0-.1s0,0,0,0c0,.2,0,.6-.1.8q0,0-.1,0c0-.2,0-.5.1-.7ZM113.8,15.3s-.1-.1-.1-.2h0c0-.1-.2-.2-.3-.3h0s0,0,0,0c0-.1-.2-.2-.3-.2-.2.1-.4.2-.7.2,0-.5.2-.9.3-1.4,0,0,0-.2,0-.2.1-.3.3-.7.3-1,0,0,0,0,0,0,0-.2-.2-.2-.4-.3-.4,0-.7.3-.6.7h0q0,0,0,.2c0,.1,0,.3,0,.4,0,0,0,0-.1,0,0,0,0,0,0,0-.3-.1-.9-.2-.7.3h.2c0,.1,0,.1,0,.2-.2.2-.2.5-.4.7h0s0,0,0,0c.1-.1.2-.3.2-.5q0,0,0-.2c0,0-.1,0-.2-.2,0-.1,0-.2,0-.3.1,0,.4-.1.5-.2,0,0,0,0,0,0,0-.1.1-.3,0-.4,0,0-.1,0-.2,0,0,0,0,0,0,0,0-.1.2-.2.2-.3-.1-.2-.1-.2,0-.4,0,0,0,0,0,0,0-.1-.2-.3-.3-.3h0c-.2,0-.4.4-.5.5-.1,0-.2-.1-.2-.2,0,0-.2,0-.2-.1-.2,0-.5,0-.6,0,0,.5,0,1,0,1.5,0,0,0,.2-.1.2-.3,0-.4-.2-.5-.4,0,0,0,0-.1,0,0,0,0,0,0,0-.4,0-.3.5-.3.8-.2.5,0,1.1.2,1.5.2,0,.3-.1.4,0,0,.2.2.3,0,.6-.3.2-.5.3-.9.2,0-.1,0-.2,0-.3,0,0-.1,0-.1-.1,0,0-.1,0-.2,0-.2,0-.3.2-.5.3h0c-.1,0-.3.2-.3.4-.2,0-.3.4-.4.6,0,.1,0,.6.2.6h0s0,0,0,0c0,.1,0,.1,0,.2,0,0,.2,0,.2.1,0,0,0,0,.2,0,.3,0,.4,0,.4-.4,0,0,.1-.3.2-.3,0,0,0,0,0-.1.1,0,.2-.1.3-.2,0,0,.5-.2.5-.2h0c.1-.1.3-.2.4-.2,0,0,.1,0,.2,0,0,0,0,0,0,0h0s0,0,0,0c0,0,0,0,0,0,0,0,.2,0,.2,0,.1,0,.2,0,.3,0,0,0,0,0,0,0q0,0,.6-.2c.2,0,.4,0,.6,0,0,0,0,0,0,0,.1,0,.2,0,.4,0,0,0,0,0,0,0,0,0,.1,0,.2,0,0,.1,0,.2-.1.3h0s0,0,0,0c0,0,0,.1,0,.2h0s0,0,0,0c.2,0,.6,0,.7.2,0,0,.2,0,.2.2.1,0,.5,0,.6,0h0c.2-.3.4-.8.3-1.2h0ZM69.2,14.6c0,.2,0,.5-.2.7-.1.1-.3.3-.5.3,0-.1,0-.3,0-.4,0,0,0-.5,0-.6,0,0,.2-.2.3-.2h0s0,0,0,0c0-.1.2-.1.4-.2,0,0,0,.3,0,.4ZM70.6,13.3c0-.2-.4-.2-.6-.2,0,0,0,0,0,0q-.2,0-.3,0h0s-.5,0-.5,0h0c-.3.2-.3.4-.6.4v-.4s0,0,0,0c0-.2.2-.3.3-.5,0-.2-.1-.2-.2-.4h0c-.1-.4-.8-.4-1.1-.3,0,0-.4.2-.4.3h0c0,.1,0,.3,0,.4.1,0,.1.2.1.4,0,0,0,0,0,0,0,0,0,.1,0,.2,0,.3,0,.5,0,.8t-.4,0c-.1,0-.2,0-.3.3,0,.2,0,.4.3.4,0,0,0,0,0,0,0,0,.3,0,.3.2,0,0,0,0,0,0,0,0,0,0,0,0,0,0,0,0,0,0,0,0,0,0,0,0,0,0,0,0,0,0,0,0,0,.2,0,.3q0,.4,0,.7c0,.1,0,.2,0,.3,0,.1-.3.2-.5.2,0-.1,0-.4,0-.5,0-.5,0-.5-.1-.7,0-.1-.1-.2-.1-.3,0,0,0-.4-.2-.4,0,0,0,0,0,0,0,0-.2,0-.2,0h0q0,0-.1-.1c-.1-.5-.3-.3-.7-.2h0c0,0,0,0,0,.1h0c0,.3,0,.6-.2.8h0v.6s0,0,0,0c0,0,0,.2.1.3h0c0,.1.2.1.3.2q0,0,.2.3h0c0,0,.1,0,.1.1.2,0,.3.2.4.3,0,0,.1,0,.2,0,.1.2,0,.4.2.6.2,0,.4,0,.6,0q0,.4,0,.5h0v.5h0c0,.9,0,1.7.1,2.6.1.2.2.1.4.1,0-.1.1-.2.1-.3,0,0,0,0,0,0,0,0,0,0,0,0,.2-.4.2-.8.2-1.2,0-.8,0-1.6,0-2.5.2-.2.6,0,.9-.3q.2,0,.3,0s0,0,0,0c0-.1-.1-.3-.1-.5q0,0,0-.1h0s0,0,0,0h0c0,0,0-.1,0-.1,0-.2.2-.4.4-.5,0,0,.2-.3.3-.3h0s0,0,0,0c0,0,0,0,0,0,0,0,0,0,.2-.1,0-.3,0-.7,0-1,0,0-.2-.5-.2-.5h0ZM78.8,15.9s0,0,0,0c0,0,.3-.2.3-.3h.4c0,.2-.5.3-.7.3ZM79.2,13.3c-.1,0-.3,0-.4,0,0-.3.2-.6.6-.3,0,.1,0,.2-.2.3ZM79.1,17.5h0v.5h0c0,0,0,.1,0,.2,0,.2,0,.4,0,.6,0,.4,0,.8-.1,1.1,0,0,0,0,0,0,0,0,0,.2,0,.3-.3.1-.4,0-.5-.2,0,0,0,0,0,0h0s0,0,0,0h0c-.1,0-.4,0-.5,0,0-.2.3-.3.5-.4.3-.2.3-.5,0-.8-.2,0-.2,0-.4,0,0-.1,0-.3.2-.4.3,0,.7-.3.5-.6h0c0-.1,0-.3.1-.3.1-.4.4-.2.5.1h0ZM77.5,16.7s0,0,0,0c.3-.1.5-.1.6-.2,0,0,0,0,0,0h.2c.1.3,0,.3-.3.4-.1,0-.2.1-.4.1,0,0,0-.1-.1-.2ZM77,16.3c0-.1.3-.2.4-.3,0-.2,0-.3,0-.4.2,0,.3,0,.5-.1.1,0,.4,0,.5,0,0,.1-.3.2-.3.4,0,0,0,.1,0,.2q-.2,0-.4.2c-.2,0-.5.1-.7.1h0ZM76.8,15.9c0,0-.1,0-.2,0,.1-.2.3-.4.5-.5.1,0,.2,0,.3.1-.2,0-.4.3-.5.4h0ZM76.4,16c0,0-.1,0-.2,0q0,0,0-.1h.3c0,.1,0,.1,0,.1ZM81.1,16h0s0,0,0,0h0s0,0,0,0c0-.2-.4-.2-.5-.2-.1-.2-.4,0-.4-.3-.1-.2-.2-.2-.4-.3,0,0,0,0,0-.1h0c0,0,.2-.2.2-.3.2,0,.3-.5.2-.7h0c0-.2-.2-.1-.4-.1,0-.1,0-.2,0-.4,0,0,.2-.2.3-.3.5-.3.6-.6.5-1.1t0,0h0s0,0,0,0h-.1c0,0,0,0,0,0-.3,0-.3,0-.5.2-.1,0-.4,0-.5,0,0,0,0-.1,0-.2,0,0-.1,0-.2-.2-.2,0-.3,0-.4,0,0,.2,0,.5-.1.7,0,.1-.2.2-.2.3,0,0-.1,0-.1.2h0s0,0,0,0c0,.2,0,.3,0,.5,0,0,0,.2,0,.2t.1,0c.1,0,.2,0,.2-.1,0,0,.1-.2.3-.2q0,.1,0,.3c0,.2.2.4-.1.4-.3.1-.4.4-.3.7.1,0,.3,0,.4,0,0,0,0,0,0,0,0,0,0,0,0,0,0,0,0,0,0,0,0,0,0,0,0,0q0,0,.3,0c0,.1,0,.3-.1.4-.4,0-.7,0-1,.2,0,0-.5,0-.5-.1,0,0,0,0-.1,0,0,0,0,0,0,0,.2-.2.4-.3.4-.5-.1-.3-.1-.3-.5-.3,0,0-.2.1-.3.1q0-.1,0-.2c.1,0,.3-.3.4-.3,0,0,0,0,0,0,0,0,0,0,0,0,0-.2.1-.2,0-.4,0,0,0,0,0,0-.2,0-.4,0-.6,0,0,0,0,0,0-.1.1,0,.2-.2.4-.2,0,0,0,0,0,0,0,0,0,0,0,0h0c.2,0,.3-.2.4-.3,0-.3,0-.4-.4-.5,0,0,0,0,0,0q0,0-.2,0c-.2-.1-.3.1-.4.3-.2,0-.4.2-.6.2,0,0,0,0,0,.1,0,0,0,0,0,0,0,0,0,.2.1.3h0s0,0,0,0c.1,0,.2,0,.3,0,0,.2-.3.3-.4.5,0,.2,0,.4.2.5.3.1-.2.4-.3.5,0,0,0,0,0,0h0c0,.3,0,.4.3.5,0,.1-.2.3-.3.4,0,0,0,.2-.2.2,0,0,0,0,0-.1,0-.5,0-1,.1-1.5,0-.2.1-.5,0-.7h0c0-.2-.2-.4-.3-.6,0,0-.1,0-.1-.1,0,0-.1,0-.2,0-.1.2-.1.5-.1.7h0c0,.2,0,1.2,0,1.3,0,0,0,.1,0,.2,0,.2,0,.4,0,.6,0,.2.1.3.1.5.1.1.1.2.2.4,0,.1.2.2.3.3,0,0,.1,0,.2,0,0,0-.3.1-.4.1-.4,0-.8.1-.8.1-.2,0-.4,0-.6,0h-.4c0,0-.1.1-.2.2,0,.1.2.3.3.3,0,0,0,0,0,0,0,0,.2,0,.2.1.1,0,.2.1.3.2,0,.2.7,0,.8-.1.1,0,.6-.2.6-.3,0,0,.2,0,.2-.1.2-.1.4-.2.7-.2,0,0,0,0,0,0,0,0,.1,0,.2.2,0,0-.1,0-.2,0,0,0,0,0,0,0h0c0,0,0,.1,0,.2h0c0,.2.3.4.5.3,0,0,0,0,0,0,0,0-.2.1-.3.2q0,.1-.1.3h0c0-.1,0-.2,0-.3,0,0,0-.2-.1-.3,0,0,0,0,0,0,0-.2-.3-.2-.5-.2h0c-.3.1-.2,1-.3,1.2h0c0,0,0,.4,0,.4,0,0,0,.2,0,.3,0,.3,0,.6,0,.9.2.2.3.5.6.6.2,0,.2-.3.4-.3,0,0,0,0,0,0,0,.2.2.2.3.3.4,0,.7-.2,1.1-.3.3.2.4.2.4.6,0,0,0,0,0,0,.3,0,.3-.2.5-.3,0,0,0,0,0,0,.2,0,.2-.3.3-.3,0,0,0,0,0-.1.2-.2.2-.5.3-.8v-.9c0-.5,0-1,0-1.5,0-.1-.1-.4-.3-.4-.3-.2-.7-.3-1-.2-.2-.3.2-.3.3-.3.2,0,.4,0,.7,0,.1,0,.3,0,.4,0,0,0,.7.3.8.3q.1,0,.2,0c.1-.2,0-.3,0-.6h0ZM92.4,17.6c-.2-.2-.2-.2-.2-.3-.4-.2-.4-.3-.9-.1-.4,0-.8,0-1.2,0-.1.1-.6,0-.8.2-.2,0-.2-.1-.4-.2-.3,0-.3,0-.6,0q0,.2,0,.3c-.3.2-.8.1-1.1.3-.2,0-.3,0-.5.1-.1,0-.8,0-.9,0,0,0-1.1,0-1.1.2,0,0,0,0,0,0,0,.2.1.2.2.4h0q0,0,.2.2h0c.1,0,.2.2.3.3.3,0,.6,0,.7-.3.2-.1.3-.1.3-.2.6-.1,1-.4,1.6-.4h0s0,0,.1,0t0,.5c.1.4,0,.9,0,1.3,0,.2-.5.2-.6.2-.2.1-.3.2-.2.4,0,0,0,0,0,0t.6,0s.1,0,.1,0h0s0,0,0,.1c0,0,.2,0,.2.1.4,0,.6-.1.7-.5.2-.4.2-.6,0-1,0,0,0,0,0,0,0-.1,0-.8,0-.9,0-.1,0-.3,0-.4.2-.2.7-.2,1-.2h.4c.3,0,.5,0,.8,0,0,0,.4.1.4.2,0,0,0,0,0,0,.2,0,.4,0,.6,0,0-.1.1-.1.1-.3,0,0,0-.2-.1-.3h0Z"/>
      <path class="cls-1" d="M86.8,15.5c0,0,0,0,0-.1,0,.2,0,.4-.3.4,0-.1,0-.2.2-.3h0ZM87.1,16.7s0,0,0,0q0,0,0,.1h-.2s0-.1,0-.2c0,0,.1,0,.2,0ZM88,14.4c0,0,.1,0,.2,0,0,.3-.2.3-.4.4q-.2-.3-.2-.3c.2,0,.3,0,.5,0h0ZM88.1,14h0q0-.1.1-.1s0,0,0,0c0,0,0,0,.1,0,.2-.1.4-.2.6-.2,0,.1-.2.4-.3.5-.2,0-.4,0-.6,0t0-.1s0,0,0,0ZM89,15.7h0c0,.1,0,.5-.1.6-.1,0-.2,0-.3,0,0-.3.2-.4.2-.6,0-.1,0-.3,0-.4-.2,0-.2,0-.3-.1,0-.1.3-.2.5-.1,0,0,0,.1,0,.2h0v.5s0,0,0,0ZM89.8,15.2s0,0,0,0c0,0,0,0,0,.1,0,0,0,0,0,0q0,0,0-.2ZM90,16h0q0,0,.1,0c0,.1-.2.4-.3.5,0-.2,0-.3.2-.4h0ZM90.5,16.2q0,0,.2,0c0,0,0,.1,0,.2,0,0-.1,0-.2,0,0,0,0,0,0,0,0,0,0,0,0-.1ZM86.3,16.5h0s0,0,0,0c0,0,0,0,.1,0,0,.3-.3.4-.3.7.1,0,0,.3.2.4,0,0,0,.1,0,.2.2,0,.4,0,.4-.2h0c0-.1.2-.2.3-.2,0,0,0,0,0,0,.1,0,.2,0,.4,0,0,0,0,0,0,0h0c0,0,0-.1.2-.1,0,0,0,0,0-.1t0,0s0,0,0,.1c0,0,.1,0,.2,0t0-.1c.2-.1.2-.1.5,0,0,0,0,0,0,0,0,0,.1,0,.3.1.2,0,.4,0,.4-.3,0,0,0,0,0,0,.2.4.3.1.7,0h0c0,0,0,0,.1,0,.1,0,.2,0,.4,0,0,0,0,.2.1.2,0,0,0,0,0,0,0,0,0,0,0,0,0,0,.1,0,.2,0,0-.1.2-.3.3-.4v-.3q0,0,0-.2h0c0-.2-.3-.4-.4-.4,0-.2.2-.3.3-.5h0c.1-.3.3-.5.3-.8-.1-.2-.5-.5-.7-.4q0,0,0,.2c0,.3.2.5,0,.7,0,.2,0,.2-.2.3h-.1c0-.3,0-.6,0-.9,0,0-.2-.1-.2-.1-.2,0-.3-.1-.5,0,0,.1,0,.2.1.3q0,.4,0,.5c-.2,0-.3-.5-.5-.6q-.3,0-.4,0c0,0,0,0,.1-.1h0c0,0,.1-.1.2-.2,0,0,0,0,.1-.1.2,0,.3-.3.5-.4.2,0,.2,0,.4,0,.4.2.5,0,.9,0,0-.2,0-.4,0-.5h0s0,0,0,0c0,0,0,0,0,0,0,0,0,0,0,0,0,0,0,0,0,0-.1-.1-.4,0-.5,0,0,0,0,0,0,0h0s0,0,.1-.2t0-.2c0-.1-.1-.3-.2-.4h0s0,0,0,0c0,0,0,0,0,0h0c0,0,0,0-.1,0,0,0,0,0,0,0q0,0-.2,0s0,0,0,0c-.2,0-.4.2-.4.4,0,.1.1.3.2.3,0,0,0,0,0,0,0,.2,0,.3,0,.5q-.2,0-.3,0c0,0-.2,0-.2.1q-.1,0-.2,0c-.2,0-.6,0-.7.2,0,0,0,0,0,0,0-.2,0-.4,0-.6,0,0-.2,0-.2,0,0,0,0,0,0,0q-.1,0-.1,0t-.5,0c0,0-.2.3-.3.4,0,.2.2.3.2.5h0c0,.1-.3.2-.4.2-.1.3,0,.6.2.8,0,0,.2,0,.3,0,0,0,0,0,0,0,.1,0,.4-.2.5,0-.1,0-.2,0-.3.1,0,0,0,0,0,0,0,0,0,0,0,.1,0,0,0,.2,0,.2-.2,0-.3-.1-.5-.2q-.1,0-.2.1c0,.2,0,.3,0,.5,0,.1,0,.2-.1.4-.3,0-.2.7-.2.9.2,0,.2,0,.3,0h0ZM90.9,18.8c-.1,0-.3,0-.4,0-.2-.1-.5-.2-.6,0,0,.1,0,.4.2.4,0,.2,0,.5,0,.6,0,.3.2.3.4.5,0,.2.2.3.4.4,0,0,.1,0,.2,0,.2-.2.4-.5.5-.8,0-.4-.2-.8-.5-1ZM87.4,18.8c0,0-.2,0-.3.1h0c-.1,0-.2.1-.3.2-.1,0-.2,0-.4,0,0,0-.1,0-.2.1,0,.3-.2.7,0,1,.1.3.2.3.5.4q.2,0,.3,0h0c.2,0,.2-.5.2-.7,0-.3.5-.9.2-1h0ZM61.9,12.3c0-.2-.2-.4-.2-.5-.2-.1-.6,0-.8-.1-.2,0-.3,0-.4.2,0,.3,0,.7-.1.9,0,.4,0,.6-.2,1,0,.2,0,.5-.2.7,0,0-.2,0-.2,0-.2.1-.3.7-.5.7,0-.1,0-.2,0-.3,0-.1,0-.3,0-.4.1-.2.2-.5.2-.7.2-.3-.1-.5-.4-.6-.5,0-.5,0-.7.4-.1.2-.2.2-.2.5.1,0,.3.1.4.2,0,0,0,.2,0,.3h0v-.2c-.2,0-.2,0-.3,0,0,.1-.2.9-.5.7v-.3s0,0,0,0c0-.4.3-.6,0-.9,0,0-.6-.3-.6-.4,0,0-.2,0-.3,0,0,0,0,0,0,0-.2,0-.2.2-.3.3h0v.5c0,.3.1.6,0,.9-.3.1-.3,0-.6-.2,0,0,0,0,0,0,0,0-.1,0-.2,0-.1,0-.2,0-.3.1,0,.2-.1.2-.1.3-.2.2-.3.4-.2.7,0,.2,0,.8.2.9,0,0,0,0,0,0,0,0,.2,0,.2.1.2,0,.3,0,.5,0,0,0,0,0,0,0,.3,0,.3-.4.4-.6h0c0,0,0,0,0,0,0,0,.1-.1.1-.2t0,0c0,.5-.2.9-.2,1.4,0,.1,0,.3,0,.4,0,.1-.2.3-.2.5,0,0,0,0,0,0,0,.4-.6.3-.6.8.2,0,.7,0,.7-.1h0s0,0,0-.1h0,0s0,0,0,0h0c0,0,.1-.1.2-.2h0s0,0,0,0c0,0,0,0,0,0,0-.1,0-.3.2-.4,0-.1,0-.3.2-.4,0-.1.1-.3.2-.4,0-.2,0-.3,0-.5,0-.1.1-.3.1-.4,0,0,0,0,0,0,0,0,0-.1,0-.2,0-.2,0-.4.1-.6t.2,0c0,.2,0,.4,0,.7,0,0,0,0,.1.1.1,0,.2,0,.4,0,.2.2,0,.6,0,.8,0,.2,0,.4,0,.5,0,.3.1.6.3.9.3.1.5,0,.7-.3q0-.5,0-.8c0-.3.1-.5,0-.8v-1.1q.2,0,.3,0c0,0,.1.2.2.2,0,.1.3.1.5,0,0,0,0,0,0,0,0,0,0,0,.1,0,0,0,0,0,0,0,.2,0,.3-.5.3-.7q0-.1,0-.2s0,0,0,0c0,0,0-.2,0-.2,0-.2,0-.5.2-.7v-.5c0,0,0,0,0,0,.1.2,0,.6,0,.9,0,.8,0,1.5,0,2.3,0,.2,0,.4,0,.6h0v.6c0,.1,0,.2,0,.3v.6c0,.4-.1.7-.3,1.1,0,.4,0,1.4.7,1.4t.2,0c0,0,.1-.4.3-.4,0-.3,0-.5,0-.8q0-.5,0-.5s0,0,0-.4c0-.1-.1-.2-.2-.4v-.3s0,0,0,0c0-.2,0-.4,0-.6,0-.1,0-.3,0-.4,0-.7,0-1.4,0-2.1,0,0,0,0,0,0,0-.2,0-.5.1-.7,0,0,0-.4,0-.5,0-.2,0-.5.1-.7.2-.2.2-.6.3-.8h0ZM102.9,19.1c-.1,0-.2-.1-.3-.2,0,0-.6-.4-.6-.5,0,0-.2,0-.2-.1-.1,0-.2-.2-.3-.3-.2,0-.8-.5-.9-.7q0,0-.2-.1c0-.2-.4-.3-.4-.6,0,0-.2,0-.2-.2,0,0,0,0,0,0,0-.1-.6-.7-.2-.7,0,0,0,0,0,0,0,0,.1,0,.2,0,0,0,0,0,0,0,0,0,.1,0,.2,0,0,0,.2,0,.3,0h0s.7,0,.7,0h0c0,0,.3-.2.4-.2,0-.1.1-.2.1-.4-.2-.3-.8-.4-1.1-.6-.2,0-.5.2-.7.2,0,0-.1.1-.2.1,0,0,0-.2,0-.2h0s0,0,0,0c0,0,0,0,0,0,0-.4.1-.8.3-1.1v-.4c0-.1-.2-.2-.1-.3h0c0,0,0-.2,0-.2-.2-.1-.5-.2-.7,0-.1.2-.3.4-.4.6-.1,0-.3.2-.3.3.2,0,.3.2.5.3q0,0,0,.4c-.2.3,0,.8-.2,1.1,0,0-.1.1-.3.1-.2.1-.4,0-.6.2-.3,0-.5,0-.7.1-.2,0-.4,0-.6,0-.2.1,0,.5.1.5.2.3.2.4.3.5,0,0,.1,0,.1.1,0,0,.1,0,.2,0,0,0,0,0,0-.2.2-.2.6-.3.8-.3,0,.4-.2.7-.3,1.1-.2.2-.3.5-.5.6-.1.2-.2.3-.2.3h0c0,.2-.3.2-.3.3,0,0-.2.1-.2.2,0,.2-.6.5-.8.4,0,0,0,0,0,0h0c-.3.4.4.4.6.3.1,0,.3-.1.4-.2.2-.2.5-.3.8-.5,0,0,.3-.2.4-.2.1-.1.4-.6.5-.6.2-.4.3-.5.4-.7.1-.4.2-.7.5-.3,0,.2.3.3.4.5.1,0,.4.4.4.5.1,0,.1.3.3.3,0,.1.3.4.4.6.1,0,.2.2.3.2,0,.1.3.3.3.4h0s0,0,0,.1c0,0,.2,0,.2.2.1,0,.3,0,.4,0,0,0,0,0,0,0,0,0,.2,0,.3,0,.3-.2.8.2,1,0,0-.3-.4-.5-.6-.7h0Z"/>
      <path class="cls-3" d="M27.7,16.3c-.2.5-.5,1.1-.7,1.6-.1.3-.2.7-.4,1,.2-.2.5-.4.7-.6.2-.2.3-.3.5-.5.2-.4.4-.9.3-1.2,0-.1-.2-.2-.4-.3ZM24,19.9c-.2,0-.5.2-.7,0,0-.8.6-1.7.9-2.1,0,0,0,0,0-.1.2-.2.5-.5.8-.7.3-.2.6-.4.8-.6.2-.1.4-.2.7-.3,0-.1,0-.2.2-.3,0,0,.1-.2.2-.2l.8-1.1c0-.1.1-.2.2-.3,0,0,.2-.1.2-.2,0,0,.1,0,.2,0,0,0,.2,0,.3.1,0,.1,0,.3,0,.4,0,0,0,0,0,0,0,0,0,.2-.1.2,0,0,0,0,0,0-.1.2-.3.4-.4.6-.1.5.6.4.5.9.2,1-1,2.4-1.9,2.9-.1,0-.1,0-.2.2,0,0,0,.2,0,.3,0,0,0,0,0,.1,0,.2-.1.3-.2.5v.4c0,.1-.1.3-.1.4,0,0,0,0,0,0,0,0,0,0,0,0,0,0,0,0,0,0,0,0,0,0,0,0,0,0-.1.1-.2.2,0,0,0,.2,0,.3,0,0,0,0,0,0,0,0,0,0,0,0,0,0,0,0-.1,0h0c0,.1,0,.1-.1.2,0,0-.1,0-.1,0,0,0,0,0,0,.1,0,0,0,0-.1,0,0,0,0-.5.2-.3,0,0,0,0,0-.1,0,0,0-.1,0-.2h-.1c-.2.1-.1,0,0,0,0,0,0-.1,0-.2,0-.2.1-.4.2-.7,0,0,0,0,0-.1,0,0,0-.1,0-.2,0,0,0-.2,0-.2-.3.1-.5.3-.8.1-.3-.3-.5-.4-.3-.6l.3-.5c0-.1.1-.3.2-.4,0-.2.2-.4.3-.5,0,0,0,0,0,0,.1-.1.2-.3.3-.4l.2-.2s.5-.7.3-.3v.2c-.2.1-.3.3-.4.4,0,.1-.2.2-.2.3l-.2.4-.2.4c0,.2-.2.4-.3.5-.1.6.3.5.9.4,0,0,0-.1,0-.2h0c0,0,.4-1.3.4-1.3l.3-.9.2-.6h0c0-.2,0-.2-.2-.1-1.2.7-2.4,1.6-2.9,2.9,0,.1,0,.3,0,.3.1,0,.2,0,.3,0,0,0,0,.1,0,.1Z"/>
      <path class="cls-3" d="M25.4,21.8s0,0,.1,0c0,0,0,0,0,0,0,0,0,0,0,0,0,0,0,0,0,0-.2,0,0,.1-.1.2,0,0,0,0,0-.1h0c0,0,0,0,0-.1,0,0,0,0,0,0,0-.2,0,0,.1-.1h0ZM25,22.1c0,0,0,.1,0,.2h0s0,0,0-.1c0,0,0-.2,0-.1h0ZM25.6,21.8s0,0,0,0c0,0,0,0,0,0ZM25.9,21.3c0,0,0,0,0-.1-.1.2,0,.2,0,.1Z"/>
      <path class="cls-2" d="M26,31c-6.3,0-11.5-5.1-11.5-11.5s5.1-11.5,11.5-11.5,11.5,5.1,11.5,11.5-5.1,11.5-11.5,11.5ZM26,31.5c6.6,0,12-5.4,12-12s-5.4-12-12-12c-6.6,0-12,5.4-12,12s5.4,12,12,12Z"/>
      <path class="cls-2" d="M26,27.7c-4.6,0-8.2-3.8-8.1-8.4,0-4.5,3.7-8.1,8.1-8.1,4.6,0,8.2,3.8,8.1,8.4,0,4.5-3.7,8.1-8.1,8.1ZM26,27.9c4.7,0,8.4-3.9,8.4-8.6,0-4.6-3.8-8.3-8.4-8.4-4.7,0-8.5,3.8-8.5,8.5,0,4.7,3.8,8.5,8.5,8.5h0Z"/>
      <path class="cls-2" d="M17.6,16.8c0,0-.2,0-.3,0,0,0,0,0,0,0,0,0,0-.2.1-.2t0,0s0,0,0,0c0,0,0,0,0,.2ZM15.7,15.6c0,0,0,.1.1.2,0,0,0,0,0,0,0,0,0,0,0,0,0,0,0,0,0,0,0,0,0,.1,0,.2,0,0,0,0,0,.1,0,0,0,0,0,.2,0,0,0,0,0,0,0,0,0,0,0,0,0,0,0,0,0,0,0,.1.2.1.3,0,0,0,0,0,0,0,0,0,.1,0,.2.1,0,0,.1.1.2.2,0,0,.1.1.2.2,0,0,.2.2.2.2,0,0,0,0,0,0,0,0,0,0,0,0,0,0,.1.1.2.1.1,0,0-.2,0-.2,0,0-.1-.1-.1-.2,0,0,0,0,0,0,0,0,0,0-.1-.1,0,0-.1-.2-.2-.2,0,0,0,0,0,0,0,0,0,0,0,0h0c0-.1,0-.3,0-.3t0,0s0,0,0,0c0,0,0,0,0-.1.1,0,0,.1,0,.2,0,0,0,0,0,0,0,0,0,0,0,0h0s0,0,.1,0c0,0,0,0,0,0,0,0,0,0,.1,0,0,0,0,0,0,0,0,0,0,0,0,0,0,0,0,0,0,0,0,0,0,0,0,0h0s-.1,0-.2,0h0s0,0,0,0c0,0-.2,0-.1.2,0,0,.1,0,.2.1,0,0,0,0,0,0h0s0,0,.1,0c0,0,0,0,0,0h0s0,0,0,0c0,0,0,0,0,0h0c0-.1,0,0,0,0,0,0,0,0,0,0,0,0,0-.1,0-.2h.1c0-.1,0-.2,0-.2,0,0,.1,0,.2,0,0,0,0,0,0,0,0,0,.1-.1,0-.2,0,0-.1-.1-.2,0,0,0,0,0,0,0t0,0h0c0,0,0,0-.1,0,0,0,0,0,0,0,0,0,0,0,0,0h0s0,0,0,0c0-.1-.3-.2-.4-.3,0,0,0,0,0,0q-.1.1-.1.1c0,0,0,.1,0,.2h0c0,0,0,0,0,0t0,0v-.2s0,0,0,0c0,0,0-.3.1-.3,0,0,.1-.2,0-.2,0,0,0,0,0,0h0s0,0,0,0c0,0,0,0,0,0,0,0,0,0-.1.1,0,.1,0,.3,0,.4,0,0,0-.1,0-.2,0,0,0,0,0,0h0c0,0,0-.1,0-.2,0,0,0,0,0,0,0,0,0,0,0,0,0,0,0,0-.1,0h0s0,0,0,0c0,0-.2,0-.2.1t0,0c0,0,0-.2,0-.2,0,0,0,0,0-.1,0-.1,0-.1-.1-.1,0,0,0,0,0,0h0c0,0,0,.2,0,.3,0,0,0,0,0,.1,0,0,0,0,0,0,0,0,0,0,0,0h0s0,0,0,0c0,0,0,0,0,0,0,0,0,0,0,0h0ZM17.4,16.5s0,0,0,0h0c0-.1,0,0,0,0,0,0,0,0,0,.1ZM17.4,16s0,0,0,0c0,0,0,0,0,0,0,0,0,0,0,0,0,0,0,0-.1,0,0,0,0,0,0,0,0,0,0,0,0,0h0s0,0,0,0c0,0,.2,0,.2.2,0,0,0,0,0,0,0,0,0,0,0,0ZM16.6,16.4s0,0,0,0h0s0,0,0,0c0,0,0,0,0,0,0,0,0,0,0,0,0,0,0,.2,0,.2h0ZM16.6,16s0,0-.1,0c0,0,0-.1,0-.2h0q0,.1,0,.1s0,0,0,0ZM16.4,16.3s0,0-.1,0h0s0,0,0,0c0,0,0,0,0,0,0,0,0,0,0-.1q0,0,0,0s0-.1,0-.1c0,0,0,0,0,0,0,0,0,0,0,0,0-.1,0-.1,0-.2,0,0,0,0,0-.1,0,0,0,0,0,0,0,0,0,0,0,0,0,0,.2,0,.2.2,0,0,0,.1,0,.2h0s0,0,0,0c0,0,0,.1,0,.2,0,0,0,0,0,0t0,0h0ZM15.7,15.6s0,0,0,0h0s0,0,0,0ZM35.5,16.3h0s0,.1,0,.1c0,0,0,0,0,0,0,0,0,0,0,0,0,0,0,0,.1.1t0,0c0,0,0,0-.2,0h0s0,0,0,0c0,0-.1,0-.2,0,0,0,0,0,0,0,0,0,0,0,0,0t0,0s0,.1,0,.1c0,0,0,.1,0,.2,0,0,0,0,0,0h0c0,0,0,0-.1-.2,0,0,0,0,0,0,0,0-.1,0-.2.1,0,0,0,0,0,0h0c0,0-.2,0-.2,0,0,0,0,0,0,0,0,0,0,0,0,0,0,0-.1,0-.1,0,0,0,0,0,0,0,0,0,0,0,0,0,0,0,0,0,0,0h0s0,0,0,0c0,0-.1-.2,0-.2,0,0,.1,0,.2.1,0,0,0,0,0,0h0s0,0,0,0c0,0,.3,0,.3,0,.1,0,0-.2,0-.2,0,0,0,0,0,0,0,0,0,0,0,0,0,0,0,0,0,0,0,0-.1,0-.1-.1,0,0,0,0,0,0,0,0,0,0,0,0,0,0,0,0,0,0,0,0,0,.2.2.3,0,0,0,0,0,0t0,0h0s0,0,0,0c0,0,0,0,0,0,0,0,0,0,0,0,0,0,0,0,0,0,0,0,0,0,0,0,0,0,.1,0,.1,0t0,0s0,0,0,0c0,0,0,0,0,0,0,0,0-.1,0-.1h0c0,0,.2,0,.2,0h0c0,0,0,0,0,0h0ZM34.8,15.9c0,0,0,0,.1,0,0,0,0,0,0,0,0,0,0,0,0,0,0,0,0,0,0,0,0,0,0,0,.1,0h0s0,0,0,0c0,0,0,0,0,0,0,0,0,0,0,0h0s0,0,0,0c0,0,0,0,0,0,0,0,0,0,0,0h0c0,0,0,0,0,0t.1,0s0,0,0,.1c0,0,0,0,0,0,0,0,0,0,0,0,0,0,0,0,0,0,0,0,0,0,0,0,0,0,0,0,0,0h0s0,0,0,0h0s0,0,0,0h0c0,0,0,.1,0,.2,0,0,0,0,0,0,0,0,0,.1,0,.1h0c0,0,.2,0,.3,0,0,0,0,0,0,0,0,0,0,0,0,0,0,0,0,0,0-.1h0s0,0,0,0c0,0,0,0,0,0,0,0,0,0-.1-.1.1,0,.2,0,.4,0,0,0,0,0,0,0,0,0,.2,0,.3,0,0,0,0,0,0,0,0,0,0,0,0-.1,0,0-.1-.1-.2,0,0,0,0,0,0,0t0,0s0,0,0,0c0,0,0,0,0,0,0,0,0,0,0,0,0,0,0-.2-.2-.1h0c0,0,0,0,0,0,0,0-.1,0-.2,0,0,0,0,0,0,0h0s0,0,.1,0t0,0s0,0,0,0c0,0,0,0,0,0,0,0,0,0,.1,0,0,0,0,0,0,0,0,0,0,0,0,0,0,0,0,0,0,0,0,0,0,0,0,0,0,0,0,0,0,0,0,0,0,0,0,0h0s0,0,0-.1h0s-.1,0-.2,0c0,0,0,0,0,0,0,0,0,0,0,0,0,0,0-.1,0-.1-.1,0-.2.1-.3.2,0,0,0,0,0,0,0,0,0,0,0-.2h0s0,0,0,0c0,0-.1,0-.2,0-.1,0-.2.1-.3.2,0,0,0,0,0,0,0,0,0,0-.1,0,0,0-.1,0-.1-.2h0c0,0,0,0,0,0,0,0,0,0,0,0,0,0,0,0-.1,0,0,0,0,0,0,0,0,0,0,0-.1,0,0,0-.1,0-.2,0,0,0-.1,0-.1.1,0,0,0,0,0,0h0s0,0,0,0c0,0,0,0,0,0h0s0,0,0,0ZM35.5,16.3h0c0,.1,0,.1,0,.1h0c0-.1,0-.1,0-.1ZM35.9,16s0,0,0,0c0,0-.2,0-.2,0h0s0,0,0,0c0,0,0,0,0,.1,0,0,0,0,0-.1,0,0,.1,0,.2,0,0,0,0,0,0-.1t0,0ZM35.7,16.3s0,0,0,0h0s0,0,0,0c0,0,0,0,0,0,0,0-.1,0-.1-.1ZM35.8,16.4s0,0,0,0h0s0,0,0,0c0,0,0,0,0,0,0,0,0,0-.1-.1h0s0,0,0,0ZM36.1,16.5s0,0,.1,0c0,0,0,0,0,0h0ZM36,16s0,0,0,0h0c0,0,0,0,.1,0,0,0,0,0-.1,0,0,0,0,0,0,0ZM36.2,16c0,0,.1,0,.2,0t0,0h0c0,0-.1,0-.2,0t0,0ZM22.1,10.9c.1.2.2.4.3.5,0,0,0,0,.1,0,0,0,0,0,0,0,0,0,0,0,0,0,0,0,0,0,0,0,0-.1,0-.2-.1-.3,0-.2-.2-.4-.3-.5,0,0,.1,0,.2-.2t0,0s0,0,0,0c0,0,0,0,0,0t0,0s0,0,0,0h0s0,0,0,0h0s0,0,0,0c0,0,0-.1,0-.2,0,0,0,0,0,0,0,0,0,0,0,0,0,0,0,0,0,0,0,0,0,0,0,0,0,0,0,0,0,0,0,0,0-.2-.1-.2,0,0-.1,0-.1,0,0,0-.1,0-.2,0,0,0,0,0,0,0t0,0h-.1c0,.1,0,.2,0,.2h0c0,0,0,0,0,0,0,0,0-.1,0-.2,0,0,0,0,0,0h0c0,0-.2,0-.3,0,0,0,0,0,0,.1,0,0,0,0,0,0,0,0,0,0,0,0,0,0,0,0,0,0h0s0,0,0,0t0,0h0s0,.1,0,.1h0s0,0,0,0t0,0s0,0,0,0c0,0,0,0,.1,0h0s0,0,0,0c0,0,0,0,0,0h0s0,0,0,0h0s0,0,0,0c0,0,0,0,0,0h0s0,.2,0,.2h0s0,0,0,0c0,0,0,0,0,.1,0,0,0,0,0-.1,0,0,0-.1-.1-.1,0,0,0,0,0,0,0,0,0,0,0,0h0s0,0,0,0h0s0,0,0,0t0,0c0,0-.1,0-.2,0,0,0,0,0,0,0,0,0,0,0,0,0h0c0,0,0,.1,0,.2h0s0,.1,0,.1h0s0,0,0,0c0,0,0,0,0,0,0,0,0,0,0,0t0,0h0s0,0,0,0c0,0,0,0,0,0,0,0,0,0,.1,0,0,0,0,0,0,0,0,0,0,0,.1.1,0,0,0,0,.1,0q0,0,0,.1s0,.1,0,.1ZM22.1,10.8h0c0,.1,0,.1,0,.1h0c0-.1,0-.1,0-.1h0ZM21.8,10.4q0,0,0-.2h0s0,.2,0,.2h0ZM22,10.2s0,0,0,0c0,0,0-.1,0-.1,0,0,0,0,0,0,0,0,0,0,0,0,0,0,0,0,0,0,0,0,0,0,0,0,0,0,0,0,0,0,0,0,0,.1,0,.2,0,0,0,.1,0,.1ZM21.5,9.9h0c0,0,0,0,0-.1t0,0c0,0,0,.1.1.2ZM21.5,9.9s0,0,0-.1h0s0,.1,0,.1h0s0,0,0,0ZM21.8,9.5h0s.1,0,.1,0c0,0,0,0,0,0h-.1ZM25.5,10.2s0,0,0,0c0,0,0,.1,0,.2,0,0,0,.1.1.2,0,0,0,0,0,0,0,0,0,0,0,0,0,0,0,0,0,0,0,0,.2,0,.3,0,0,0,0,0,0,.2,0,0,0,0,0,0,0,0,0,0,.1,0,0,0,0,0,0,0,0,0,0,0,0,0h0c0,0,0-.2,0-.2h0s0-.2,0-.2c0-.1,0-.3,0-.4,0,0,0,0,0,0,0,0-.2,0-.3,0,0,0,0,0,0,0t0,0c0,0,.1,0,.2,0h0s.2,0,.2,0t0,0c0,0,0,0,0-.1h0s0,0,0,0h0s0,0,0,0c0,0,0,0-.1,0,0,0,0,0-.1,0,0,0,0,0-.1,0,0,0,0,0,0,0h0s0,0,0,0c0,0,0-.1,0-.2h0s0,0,0,0c0,0,0,0,0,0,0,0,0,0,0,0,.1,0,.2-.1.1-.3t0,0h0s0,0,0,0h0c0,0,0,0-.1,0,0,0,0,0-.1,0,0,0,0,0,0,0,0,0,0,0,0,0,0,0,0,0-.1,0,0,0,0,.1,0,.2,0,0,0,0,0,0,0,0,0,0,0,0h0s0,0,0,0c0,0,0,.1,0,.1,0,0,0,0,0,0t0,0s0,0,0,0c0,0,0,0,0,0t0,0c0,0,0,0,0,.1,0,0-.1.1,0,.2,0,0,0,0,.1,0,0,0,0,0,0,0h0s0,0,0,0c0,0,0,0,0,0t0,0s0,0,0,0c0,0-.2,0-.3,0,0,0-.1,0-.1,0,0,0,0,0,0,0,0,0,0,0,0,0,0,0,.1,0,.1-.1,0,0,0,0-.1,0,0,0,0,0,0,0t0,0s0,0,.1,0c0,0,0,0,0,0h0s0,0,0,0c0,0,0,0,0,0,0,0-.1,0-.1,0,0,0,0,0,0,0,0,0,0,0,0,0,0,0,0,0,0,0,0,0,0,0,0,0h0s0,0,.1,0c0,0,0,0,0-.1h0s0,0,0,0c0,0,0,0-.1,0,0,0-.1,0-.1,0,0,0,0,0,0,0,0,0,0,0,0,0,0,0,0,0,0,0h0s0,0,0,0c0,0,0,0,0,.1,0,0,0,0,0,.1,0,0,0,.1,0,.1,0,0,0,0,0,0h0c0,0,0,0,0,.1,0,0,0,0,0,0,0,0,0,0,0,0,0,0,0,0,0,0,0-.1,0-.3,0-.4,0,0,0-.1,0-.2h0c0,0,0-.1,0-.2,0,0,0,0,0,0h0c0,0,0,.1,0,.2,0,0,0,0,0,0h0q0,.2,0,.3s0,0,0,0c0,0,0,0,0,.1,0,0,0,0,0,.1,0,0,0,0,0,0,0,0,0,0,0,0,0,0,0,0,0,0,0,0,0,0-.1,0-.1,0-.2,0-.2,0,0,0-.1,0-.2,0h-.1s0,0,0,0c0,0,0,0,0,0h0s0,0,0,0c0,0,0,0,0,0,0,0,.2,0,.2,0,0,0,.2,0,.2,0,0,0,0,0,0,0,0,0,.1,0,.2,0h0s0,0,0,0c0,0,0,0,0,0,0,0,0,0,0,0h0s0,0,0,0h0c0,0,0,.1.1,0,0,0,0,0,0,0,0,0,0,0,0,0,0,0,0,0,0,0t0,0s0,0,.1,0c0,0,0,0,0,.1h0s0,0,0,0c0,0,0,0,0,0h0s0,0,0,0c0,0,0,.1-.1.1t0-.2h0c0-.1,0-.1,0-.1,0,0,0,0,0-.1,0,0,0,0,0,0,0,0,0,0,0,0h0c0,0,0,0-.1,0h0c0,0,0,.3,0,.3q0,0,0,.1h0ZM26.3,9.9c0,0,0-.1-.1,0,0,0,0,0,0,0h0c0,0,0,.1-.1.2,0,0,0,0,0,.1,0,0,0,0,0,0,0,0,0,.1,0,.2,0,0-.1,0-.1,0,0,0,0,0,.1,0h0s0,0,0,0h0s0,0,0,0c0,0,0,0,.1,0,0,0,0,0,0,0,0,0,0,0,0,0,0,0,0-.2,0-.3,0,0,0,0,0-.1,0,0,0,0,0,0,0,0,0-.1,0-.1ZM25.8,10.3q0,.2,0,.2s.1-.1.1-.1c0,0,0,0,0,0h0s0,0,0,0h0s0,0,0,0ZM26.5,10.2v.2h0s0-.2,0-.2h0ZM25.8,10.3s0,0,0,0c0,0,0,0,0,0h0s0,.1,0,.1ZM25.8,10.3s0,0,0,0c0,0,0,0,0-.1h0s0,0,.1,0c0,0,0,0,0,.1h0s0,0,0,0h0,0ZM25.5,10.2s0,0,0-.1h0q0,0,0,.1ZM26.3,10.2s0,0,0-.1h0ZM26.3,10h0c0-.1,0-.1,0-.1h0ZM25.9,9.9h0s0,0,0,0c0,0,0,0,0,0h0ZM25.9,9.7s0,0,0,0c0,0,0,0,0,0,0,0,.1,0,.1,0,0,0,0,0,0,0h0c0,0,0,0,0,0,0,0,0,0,0,0ZM25.1,9.7h.2c0,0-.1,0-.2,0ZM25.9,9.4s0,0,0,.1c0,0,0,0-.1,0,0,0,.1,0,.2,0q0,0,0,0h0c0,0,0-.1,0-.1,0,0,0,0-.1,0,0,0,0,0-.1,0ZM26.3,9.5h.2s-.1,0-.1,0t0,0ZM26.4,9.6h-.1c0,0,.1,0,.2,0h0s-.1,0-.1,0ZM25.5,9.4h0s0,0,0,0c0,0,0,0,0,0t0,0ZM25.6,9.5s0,0,.1-.1c0,0,0,0,0,0,0,0,0,0-.1,0,0,0,0,0,0,0ZM26.2,9.4s0,0,0,0c0,0,0,0,0,0h0c0,0-.1,0-.2,0ZM25.4,9.1q0-.1,0-.2s0,0,0-.1h0s0,0,0,0c0,0,0,.3,0,.3ZM25.4,8.9s0,0,0-.1h0,0ZM26,8.8s0,0,0-.1c0,0,0,0,0,0,0,0,0,.1,0,.1ZM26.2,8.8c0,0,0-.1.1,0,0,0,0,0,0,0,0,0,0,0,0,0ZM29.6,11.4s0,0,0,0c0,0,0,0,0,0,0,0,0,0,0,0,0,0,0,0,0,0,0,0,.2,0,.2,0,0,0,.1-.1.1-.2q0-.2,0-.2h0c0-.1.2,0,.2,0h0c0,0,.1,0,.2.1,0,0,0,0,0,0h0s.1,0,.1,0c0,0,0,0,0,0h0c0-.1,0-.1,0-.2,0,0,0-.1-.2-.1,0,0-.2,0-.3-.1,0,0-.1,0-.2,0,0,0,0,0,0,0,0,0,0,0-.1,0t0,0c0,0-.2,0-.3,0,0,0,0,0-.1,0,0,0-.2,0-.2,0,0,0-.3-.1-.3,0,0,0,0,0,0,0,0,0,0,0,0,.1h0s0,0,0,0t0,0h0s0,0,0,0c0,0,.1,0,.2,0,0,0,0,0,0,0,.1,0,.3,0,.4,0h0s0,0,0,0t0,.1c0,.1,0,.2-.1.3,0,0-.1,0-.2,0,0,0,0,0,0,0h0s0,0,0,0h.1c0,0,0,0,0,0ZM29.4,11.3s0,0,0,0h.1c0,0,0,0,0,0q-.1,0-.1,0ZM29.3,11.2c0,0,0,0,0-.1,0,0,0-.2,0-.2,0,0,0,0,0,0,0,0,0,0,0,0,0,0,0,0,0,0h0s0,0,0,0c0,0-.1.2-.2.2,0,0,0,.1-.1.1h0s0,0,0,0ZM30.2,11.6s0,0,0-.1c0,0,0,0,0-.2,0,0,0,0,0-.1,0,0,0,0,0-.1,0,0,.1,0,.1,0,0,0,0,0,0,0,0,0,0,.2,0,.3,0,0-.1,0-.2.1,0,0,0,0,0,0ZM30,11.2q0-.2,0-.2s0,.2,0,.2c0,0,0,0,0,0ZM30.7,11.2h.1s0,0-.1,0ZM30.1,9.9s0,0,0,0c0,0,0,0,0,0,0,0,0,0,0,0h0s0,0-.1,0t0,0c0,0,0,0,0,.1h0c0,0-.1.2-.1.3,0,0,0,0,0,0,0,0,0,0,0,0h0s0,0,0,0c0,0-.1,0-.1.1,0,0,0,0,0,.1,0,0,0,0,0,0,0,0,0,0,.1,0h0s0,0,0,0c0,0,0,0,0,0,0,0,0,0,0,0,0,0,0,0,0,0h0s0,0,0,0c0,0,0,0,0,0t0,0s0-.1,0-.1h0s0,0,0,0c0,0,0,0,0,0,0,0,0,0,0,0,0,0,0,0,0,0,0,0,0,0,0,0,0,0,0,0,0,0h0c0,0,0,.2,0,.2,0,0,0,0,0,0,0,0,0,0,0,.1h0s0,0,0,0t0,0c0,0,0,0,.1,0h0s0,0,0,0c0,0,.1,0,.1,0,0,0,0,0,0,0,0,.1,0,0,.2,0,0,0,0,0,0,0,0,0,0,0,0,0,0,0,0,0,0,0,0,0,0,0,0,0h0s0,0,0,0c0,0,0,0,0,0,0,0,0,0,.1,0h0q0,0,0-.1s0,0,0,0c0,0,0-.1,0-.1,0,0,0,0,.1,0h0c0,0,.1,0,.1-.2,0,0,0-.2-.1-.2t0,0c0,0,0,.1,0,.2,0,0,0,0,0,0,0,0,0,0,0,0,0,0,0-.1.1-.2,0,0,0,0,0,0,0,0,0,0-.1,0,0,0,0,0,0,0q0,0,0,.1s0-.1,0-.2q0,0,0,0s0,0,0,0h0s0,0,0,0c0,0,0,0,0,0,0,0,.1,0,.1,0,0,0,0,0,0,0,0,0,.1,0,.2,0,0,0,0,0,0-.1,0,0,0,0,0,0h0s0,0,0,0h0s0,0,0,0c0,0,0,0-.1,0,0,0,0,0,0,0h0s0,0,0,0t0,0h0c0-.1,0-.1,0-.1,0,0,0,0,0,0h0s0,0,0,0h0s0,0,0,0c0,0,0,0,0,0t0,0s0,0,0,0c0,0-.1,0-.1,0,0,0,0,0,0,0,0,0,0,0,0,0,0,0,0,0,0,.1t0,0s0,0,0,0t0,0s-.1,0-.2,0h0c0,0,0-.1,0-.2,0,0,0,0,0,0,0,0,0,0,0,0t0,0s0,0-.1,0c0,0,0,0-.1,0,0,0,0,0,0,.1,0,0,0,0,0,0,0,0,0,0-.1,0,0,0,0,.1,0,.2,0,0,0,0,0,0,0,0,0,0,0,0,0,0,.1,0,.1,0h0ZM29.9,10.5s0,0,0,0c0,0,0,0,0,0,0,0,0,0,0,.1t0,0h0ZM29.7,10.4h0s0,0,0,0h0s0,0,0,0h0s0,0,0,0ZM29.9,10.4s0,0,0,0c0,0,0-.2,0-.2h0s0,0,0,0c0,0,0,0,0,0,0,0,0,0,0,0,0,0,0,0,0,0,0,0,0,0,0,0,0,0,0,0,0,0h0s0,.1,0,.1c0,0,0,0,0,0ZM30.4,10.6s0,0,0,0h0s0,0,0,0c0,0,0,0-.1,0ZM30.3,10.2s0,0,0,0c0,0,0,0-.1,0,0,0,0,0,0,0,0,0,0,0,0,0,0,0-.1,0-.1.1,0,0,0,0,0,0,0,0,0,0,0-.1,0,0,0-.1,0-.1ZM30.6,10.6h0s0,0,0,0t0,0s0,0,0,0c0,0,0,0,0,0ZM29.8,10.1s0,0,0,0c0,0,0,0,0,0,0,0,0,0-.1,0ZM30.3,10.3h0c0-.1,0-.1,0-.1h0c0,.1,0,.1,0,.1h0ZM30.5,10.3s0,0,0,0c0,0,0,0,0,0h0s0,0,0,0ZM30.1,9.9s0,0,.1,0c0,0,0,0,0,0,0,0,0,0-.1,0q0,0,0-.1ZM30.3,9.9s0,0,0,0c0,0,0,0,0,0h0s0,0,0,0c0,0,0,0,0,0h0c0,0,.1,0,.2,0,0,0,0,0-.1,0,0,0-.1,0-.2,0ZM19.5,12.6s0,0,0,0h.1c0,.2.1.2.2.3,0,0,.3.2.4,0t0,0s0,0,0-.1c0,0,0,0-.1-.1q0,0,0,0s0,0,0,0h0s0,0,0,0c0,0,0,0-.1,0,0,0,0,0,0,0-.1-.1-.3-.2-.4-.3,0,0,0,0,0,0,0,0,0,0-.1-.1,0,0,0,0,0,0,0,0,0,0-.1-.1,0,0,0-.1-.1-.2h-.1c0,0-.1,0-.2,0,0,0,0,0,0,.1,0,0,.1.1.1.2,0,0,.1,0,.2.2,0,0,0,0,.1.1,0,0,0,0,0,0,0,0,0,.2,0,.2,0,0,0,0,0,0,0,0,0,0,0,0,0,0,0-.1,0-.2,0,0-.1,0-.2,0,0,0,0,0,0,.2,0,0,0,0,0,.1,0,0,0,0,0,0,0,0,0,0,0,0h.1c0,.1,0,.1,0,.1h0s0,0,0,0t0,0h0s0,0,0,0c0,0,.1.2,0,.2h0c0,0,0,0,0,0,0,0,0-.2-.2-.1,0,0-.2,0-.2,0,0,0,0,0,0,0,0,0,0,0,0,0,0,0,0,0,0,.1,0,0,0,0,0,0,0,0,.1,0,.2.1,0,0,0,0-.1,0h0s0,0,0,0c0,0,0,0,0,0,0,0,0,0,0,0,0,0,0,.1.1.2,0,0,.1.1.2.1,0,0,0,0,0,0,0,0,0,0,0,0,0,0,0,0,0,0h0c0,0,0-.1,0-.2,0,0,0,0,0,0,0,0,0,0,0,0,0,0,0,0,0,0t0,0c0,0,.1.2.2.3,0,0,0,0,0,0,0,0,0,0,0,.1,0,0,0,0,0,0,0,0,0,.2,0,.2,0,0,.1-.1,0-.2h0s0,0,0,0c0,0,0,0,0,0,0,0,0,0,0,0h0s0,0,0,0c0,0,0,0,0,0h0s0,0,0,0c0,0,0,0,0,0,0,0,0,0,0-.1,0,0,0,0,0,0,0,0,0,0,0-.1,0,0,0,0,0,0,0,0,0,0,0,0,0,0,0,0,0,0,0,0,0,0,0,0,0,0,0,0-.1-.1t0,0s0,0,.1.1h0s0,0,0,0c0,0,.1,0,.2.1h0c0,.1.1.2.2.2,0,0,0-.1,0-.2q0,0-.2-.1c0,0,0-.1-.1-.1l-.2-.2s0,0,0,0c0,0,0,0,0,0,0,0,0,0,0,0,0,0,0,0,0,0,0,0,0,0,0,0h0c0,0,0-.2,0-.2t0,0s0,0,0,0c0,0,0,0,0,0,0,0,0,0,0-.1h0c0,0,0,0,0,0,0,0,.1,0,.2.1.1.1.3.3.4.4h.1c0,.1.1.2.1.2h0ZM19.7,12.5s0,0-.1,0h.1c0,0,0,0,0,0ZM19.5,12.6h-.1c0,0,0,0,0,0,0,0,.1,0,.1,0ZM18.6,12.5h0c0,0,0,0,0,0h0ZM18.6,12.6h0q0-.1,0-.1h0s.1.1.1.1c0,0,0,0,0,0h0ZM18,12.7s0,0,0,0h0c0,0,0,0,0,0ZM33.8,13s0,0,.1,0c0,0,0,0,0,0,0,0,0-.2-.1-.3,0,0-.1,0-.2,0,0,0,0,0,0,0,0,0,0,0,0,0,0,0,0,0,0,0,0,0,0,0,0,0,0,0,0,0,0,0,0,0,.1-.1.2-.2h0c0,0,0-.1,0-.2h0s0,0,0,0c0,0,0-.1-.1-.1,0,0-.1,0-.2,0,0,0,0,0-.1,0,0,0,0,0,0,.1t0,0c0,0-.1.1-.2.2,0,0,0,0,0,0,0,0,0,0-.1,0,0,0,0,0-.2,0h-.1c0-.1,0,0,0,0,0,0,0,.1,0,.2,0,0,0,0,0,0,0,0,0,0,0,0,0,0,0,0,0,0,0,0,.2,0,.2,0,0,0-.2,0-.2.1,0,0-.1,0-.2,0,0,0,0,0,0,0,0,0,0,0,0,0,0,0,0,0-.1,0,0,0,0,0,0,0,0,0-.2,0-.2,0h0s0,0,0,0c-.1,0,0,.1,0,.1,0,0,0,0,.1,0,0,0,.1,0,.2,0,0,0,0,0,.1,0,0,0,.2,0,.2,0,0,0,.1,0,.2,0,0,0,.1,0,.2,0,0,0,0,.1,0,.2,0,0,0,.1,0,.2,0,0,0,0,0,.1,0,0,0,.1,0,.2,0,0,0,0,0,0,0,0,0,.1,0,.1,0,0,0,0,0,0h0s0,0,0,0c0,0,0,0,0,0,0,0,0,0,0,0,0,0,0,0,0,0,0,0,0,.2.2.2,0,0,0-.2,0-.2,0,0,0,0,0,0,0,0,0-.2,0-.2,0,0,0,0,0,0,0,0,0,0,0,0,0,0,0-.2,0-.3t0,0c0,0,0-.1,0-.2,0,0,0,0,0,0,0,0,0,0,0,0,0,0,0-.2,0-.2,0,0,0,0,0,0,0,0,0,0,0,0,0,0,0,0,0,0h0s0,0,0,0t0,0h0c0,0,0,0,0,0h0ZM33.7,12.9s0,0,0,0h0c0,0,0,0,0,0h0s-.1-.1-.1-.1c0,0,0,0,0,0ZM16.1,18.9c.1,0,.2-.1.2-.2,0-.1-.1-.2-.2-.2-.1,0-.2.1-.2.2,0,.1.1.2.2.2ZM36.2,18.9c.1,0,.2-.1.2-.2s-.1-.2-.2-.2-.2.1-.2.2.1.2.2.2ZM36.8,19.7v.7s-1.1,0-1.1,0v-.6s.2,0,.2,0v.5s.3,0,.3,0v-.4s.1,0,.1,0v.4s.4,0,.4,0v-.5s.1,0,.1,0ZM36.7,20.6v.2s-.9.2-.9.2h0s.8.1.8.1h0c0,.1-1.1,0-1.1,0v-.2s.9-.2.9-.2h0s-.8-.1-.8-.1h0c0-.1,1.1,0,1.1,0ZM36.5,21.7h0c0,.1-1.1-.1-1.1-.1h0c0-.1,1.1.1,1.1.1ZM35.9,22.2c.2,0,.3.1.3.2,0,0,0,.2,0,.2,0,0-.1.2-.2.2-.1,0-.2,0-.4,0-.2,0-.3-.1-.4-.2,0,0,0-.2,0-.3,0,0,0-.2.2-.2,0,0,.2,0,.3,0h0c0,.1-.1,0-.2.1,0,0,0,0-.1.1,0,0,0,.1,0,.2,0,0,.2.1.3.2.1,0,.3,0,.3,0,0,0,.1,0,.1-.1,0,0,0,0,0-.1,0,0-.1,0-.2-.1h0c0-.1,0-.1,0-.1ZM36,23.4h0c0,.1-1-.3-1-.3h0c0-.1,1,.3,1,.3h0ZM35.2,23.9c-.1,0-.3,0-.3,0,0,0-.1,0-.2.2h0c0,0,.8.4.8.4h0c0-.2,0-.2,0-.3,0,0-.1-.1-.3-.2h0ZM35.3,23.7c-.2,0-.3-.1-.4,0-.1,0-.2.1-.3.3v.2c0,0,.9.5.9.5v-.2c.2-.1.2-.2.1-.4,0-.1-.1-.2-.3-.3h0ZM35.4,24.7l-.3.6-.9-.5.3-.5h.1c0,0-.2.5-.2.5l.3.2.2-.4h.1c0,0-.2.4-.2.4l.3.2.3-.4h.1ZM34.9,25.5l-.9-.6v.2c-.1,0,.4.5.4.5h0s-.7-.3-.7-.3v.2c-.1,0,.8.6.8.6h0c0-.1-.6-.6-.6-.6h0s.7.3.7.3h0c0,0-.5-.7-.5-.7h0s.6.4.6.4h0ZM34.1,26.6l-.5.5-.8-.8.4-.4h0c0,0-.3.4-.3.4l.2.2.3-.3h0c0,0-.3.4-.3.4l.3.3.4-.4h0c0,0,0,0,0,0ZM33.3,27c0,0-.1,0-.2,0,0,0-.2,0-.3,0,0,0-.1,0-.2,0,0,0,0,0,0,0,0,0,0,0,0-.1,0,0,0,0,0-.1,0,0,0,0,.1,0,0,0,0,0,.1,0h.1c0-.2-.1-.2-.2-.2,0,0-.2,0-.2,0,0,0,0,.1-.1.2,0,0,0,.2,0,.2,0,0,.1,0,.2,0,0,0,.2,0,.2,0,0,0,.1,0,.2,0,0,0,0,0,.1,0,0,0,0,0,0,.1,0,0,0,0,0,.1,0,0,0,0-.1,0,0,0,0,0-.1,0h0s-.1,0-.1,0h0c0,0,.1.1.2.1,0,0,.2,0,.2-.1,0,0,.1-.1.1-.2,0,0,0-.2,0-.2h0ZM32.9,27.8l-.5.4-.7-.9.5-.4h0c0,0-.4.4-.4.4l.2.3.3-.3h0c0,0-.3.4-.3.4l.2.3.4-.3s0,0,0,0ZM32.1,28.3l-.6-.9h-.1c0,0,.4.7.4.7h0s-.7-.5-.7-.5h-.1c0,0,.6,1,.6,1h.1c0,0-.4-.8-.4-.8h0s.7.5.7.5h.1ZM31.2,28.9h-.1c0,0-.5-.9-.5-.9h.1c0,0,.5.9.5.9h0ZM30.6,29.2l-.4-1h-.1c0,0,.2.5.2.5h-.3c0,.1-.2-.3-.2-.3h-.1c0,0,.4,1.1.4,1.1h.1c0,0-.2-.5-.2-.5h.3c0-.1.2.3.2.3h.1ZM29.7,29.1c0,.2,0,.3,0,.4,0,0-.1.1-.2.2,0,0-.2,0-.3,0,0,0-.2-.2-.2-.3,0-.2,0-.3,0-.5,0-.1.1-.2.2-.2,0,0,.2,0,.3,0,0,0,.1.1.2.3h-.1s0,0-.1-.1c0,0,0,0-.1,0,0,0-.1,0-.1.1,0,0,0,.2,0,.4,0,.1,0,.2.2.3,0,0,.1,0,.2,0,0,0,0,0,.1-.1,0,0,0-.1,0-.3h.1s0,0,0,0ZM28.4,29h-.5c0,.1,0,.5,0,.5h.4c0,0,0,0,0,0h-.4c0,0,.1.6.1.6h-.1s-.2-1-.2-1h.7c0-.1,0,0,0,0h0ZM27.5,29.5c0-.2,0-.3-.1-.3,0,0,0,0-.1,0,0,0,0,0-.1,0,0,0,0,.2,0,.4,0,.2,0,.3.1.3,0,0,0,0,.2,0,0,0,0,0,.1-.1,0,0,0-.2,0-.4h0ZM27.7,29.5c0,.2,0,.3,0,.4,0,0-.1.2-.2.2-.1,0-.2,0-.3,0,0,0-.1-.2-.1-.4,0-.2,0-.3,0-.4,0,0,.1-.1.2-.2.1,0,.2,0,.3,0,0,0,.1.2.1.4h0ZM26.5,29.1l-.3.6v.5h-.1v-.5l-.3-.6h.1l.2.5h0l.2-.5h.1,0ZM25.6,29.2h-.3s0,.9,0,.9h-.1s0-1,0-1h-.3s0-.1,0-.1h.7c0,0,0,.2,0,.2h0ZM24.4,30.1h-.1s.2-1.1.2-1.1h.1s-.2,1.1-.2,1.1ZM23.9,29.7c0,0,0-.1,0-.2,0,0-.1-.1-.2-.2,0,0-.1,0-.2-.1,0,0,0,0,0-.1,0,0,0,0,0,0,0,0,0,0,.1,0,0,0,0,0,.1,0,0,0,0,0,0,.1h.1s0-.1,0-.2c0,0-.1-.1-.2-.2,0,0-.2,0-.2,0,0,0-.1.1-.1.2,0,0,0,.1,0,.2,0,0,.1.1.2.2,0,0,.1,0,.1.1,0,0,0,0,0,.1,0,0,0,0,0,.1,0,0,0,0-.2,0,0,0,0,0-.1,0,0,0,0,0,0-.2h0s-.1,0-.1,0h0c0,.1,0,.2,0,.3,0,0,.1.1.2.1,0,0,.2,0,.3,0,0,0,.1-.1.1-.2ZM23.1,28.9s0-.1,0-.2c0,0,0,0-.2-.1h-.1s-.1.3-.1.3h.2c0,0,0,0,.1,0,0,0,0,0,.1-.1ZM23,29.7h-.1s0-.6,0-.6h-.2c0,0-.1.4-.1.4h-.1s.3-1.1.3-1.1h.3c0,.1.2.2.2.2,0,0,0,.2,0,.3,0,0,0,.1-.1.2,0,0-.1,0-.2,0,0,0,0,.5,0,.5ZM22.1,29.4h0c0-.1-.5-.3-.5-.3v-.4c.1,0,.5.2.5.2h0c0-.1-.4-.3-.4-.3v-.3c.1,0,.6.2.6.2h0c0-.1-.6-.3-.6-.3l-.4,1s.6.2.6.2ZM21.9,28.2l-.8.8h-.1c0,0,.2-1.2.2-1.2h.1c0,0-.2.9-.2.9h0s.6-.6.6-.6h.1c0,0,0,0,0,0ZM20.3,28.6l.6-.9h-.1c0,0-.6.8-.6.8h.1ZM19.8,28.2h-.1c0,0,.2-.9.2-.9h0s-.5.6-.5.6h-.1c0,0,.7-1,.7-1h.1c0,0-.2.9-.2.9h0s.5-.6.5-.6h.1c0,0-.7,1-.7,1ZM19.3,27.4l.5-.6h-.1c0,0-.5.5-.5.5,0,0,0,0-.1,0,0,0,0,0-.1,0,0,0,0,0,0-.1,0,0,0,0,0-.2l.5-.6h-.1c0,0-.5.5-.5.5,0,0,0,.1-.1.2,0,0,0,.2.1.2,0,0,.2.1.2.1,0,0,.2,0,.2-.1ZM18.4,26.6c0,0-.1.1-.2.1,0,0-.2,0-.2-.1,0,0-.1-.2-.1-.2,0,0,0-.2.1-.2l.6-.5h.1c0,.1-.6.6-.6.6,0,0,0,0,0,.1,0,0,0,0,0,.1,0,0,0,0,.1,0,0,0,.1,0,.2,0l.6-.5h.1c0,.1-.6.6-.6.6h0ZM18,25.7c.1-.1.2-.2.2-.3,0,0,0-.1,0-.2,0,0,0,0-.2,0,0,0-.2,0-.3.2-.1.1-.2.2-.2.3,0,0,0,.1,0,.2,0,0,0,0,.2,0,0,0,.2,0,.3-.2ZM18.1,25.8c.2-.1.3-.2.3-.3,0,0,0-.2,0-.3,0,0-.2-.1-.3-.1-.1,0-.2,0-.4.2-.2.1-.3.2-.3.3,0,.1,0,.2,0,.3,0,0,.2.1.3.1.1,0,.2,0,.4-.2h0ZM17.1,25.4h0c0-.1.4-.4.4-.4l-.2-.3-.4.3h0c0-.1.9-.7.9-.7h0c0,.1-.4.4-.4.4l.2.3.4-.2h0c0,.1-.9.7-.9.7h0ZM16.6,24.7h.1c0,0-.3-.5-.3-.5h1c0,0,.1,0,.1,0l-.3-.6h-.1c0,0,.2.5.2.5h-1c0,0-.1,0-.1,0l.3.6h0ZM16.2,23.9h0c0,0,0-.2,0-.2,0,0,0,0,0,0,0,0,0,0,0,0,0,0,0-.2,0-.3s.2-.2.3-.3c.2,0,.3-.1.4,0,.1,0,.2,0,.2.2,0,0,0,.2,0,.3,0,0-.1.2-.2.2h0c0-.2.1-.2.2-.3,0,0,0,0,0-.1,0,0,0,0-.2,0,0,0-.2,0-.3,0-.1,0-.2.1-.3.2,0,0,0,.1,0,.2,0,0,0,0,.1,0,0,0,.1,0,.2,0h0s0-.2,0-.2h.1c0,0,.1.2.1.2,0,0-.5.2-.5.2ZM15.9,23.1l1-.3h0c0-.1-.8,0-.8,0h0s.7-.6.7-.6v-.2s-1.1.3-1.1.3h0c0,.1.8,0,.8,0h0s-.7.6-.7.6v.2h0ZM16.1,21.9l.4-.2h0s-.4,0-.4,0v.2ZM15.7,22.3v-.2s.3-.2.3-.2v-.3c0,0-.4,0-.4,0v-.2s1.1,0,1.1,0h0c0,.1-1,.7-1,.7ZM15.8,21.3c0,0-.2,0-.2,0,0,0-.1-.1-.1-.2,0-.1,0-.2,0-.3,0,0,.1-.1.2-.1h.8c0,0,0,0,0,0h-.8c0,.1-.1.1-.2.2,0,0,0,0,0,.1,0,0,0,0,0,.1s0,0,.2,0h.8c0,0,0,0,0,0,0,0-.8,0-.8,0ZM15.4,20.5h0c0-.1,0-.1,0-.1,0,0,0,0,0,0,0,0,0,0,0-.1,0,0,0-.2.1-.2,0,0,.2-.1.4-.1.2,0,.4,0,.5,0,.1,0,.2.1.2.2,0,0,0,.2,0,.2,0,0-.2.1-.3.1h0c0-.1.1-.2.2-.2,0,0,0,0,0-.1,0,0,0-.1-.1-.1,0,0-.2,0-.4,0-.2,0-.3,0-.3,0,0,0,0,0,0,.2,0,0,0,0,0,.1,0,0,.1,0,.2,0h0s0-.2,0-.2h.1s0,.3,0,.3h-.6s0,0,0,0ZM28.4,18.3s0,0,0,0c0,0,0,0,0,0,0,0,.1,0,.2,0,0-.1.3-.1.2-.2,0-.1-.1,0-.3.1h0ZM27.7,19.8h3.3c-.5,2.4-2.5,4-4.1,4.5-7.9,2.2-8.2-6.6-3.3-10,.8-.5,1.8-1,2.8-1.2.2,0,.5,0,.7,0,.3,0,1.1,0,1.4,0,.6.1,1.3.4,1.7.7.7.6.8,1.6.4,2.4-.1.3-.4.8-.7.9,0,0,0,0-.1.1-.3.3-.7.5-1,.7,0,0-.2,0,0,0,0,0,.3-.2.3-.3,0,0,.2-.1.2-.2,0,0,0,0,.1,0,0,0,.1,0,0-.1,0,0,.2-.3.2-.1,0,0,0,0,0,0h0c0,0,0,0,0,0,0,0-.2,0-.1,0,0,0,.3-.3.3-.3,0,0,0,0,0,0,0,0,.2-.1.1-.1,0,0-.1,0,0,0,.1-.2.2-.4.3-.6.1-.6,0-1.2-.3-1.7-.4-.4-1.1-.7-1.6-.7-1.1-.1-2.2,0-3.1.6-2.1,1.3-4.2,4.1-3.1,6.7.8,2,3.5,2,5.2.7,1.1-.8,1-1.3,0-1.7,0,0,.2-.2.2-.2ZM27,25.6v-.2s-.6,0-.6,0v.5c-.1,0,0,0,0,0,0,0,.2,0,.3,0,0,0,.2,0,.2,0,0,0,0,.1,0,.2,0,0,0,.1,0,.2,0,0-.1,0-.2,0,0,0-.1,0-.2,0,0,0,0,0-.1-.1h0s0,0,0,0h0c0,.2.2.2.4.2.1,0,.2,0,.3-.1,0,0,.1-.2.1-.3,0-.1,0-.2-.1-.3,0,0-.2-.1-.3,0,0,0-.1,0-.2,0v-.2h.6ZM25.2,26.1c0,.1-.1.2-.2.3,0,0-.1,0-.2,0,0,0-.2,0-.2,0,0,0,0-.2,0-.3,0,0,0-.2,0-.2,0,0,0-.1.1-.2,0,0,0,0,.1,0,0,0,0,0,.1,0,0,0,.2,0,.2,0,0,0,0,.2,0,.2,0,0,0,.1,0,.2ZM25,25.5c0,0-.2,0-.2,0-.1,0-.3.2-.3.4,0,0,0,.2,0,.2,0,.1,0,.2.1.3,0,0,.2.1.3.1.1,0,.2,0,.3-.1,0,0,0,.1-.1.2-.1.1-.3.2-.4.2h0s0,.1,0,.1h0c.1,0,.2,0,.3-.1s.2-.1.2-.2c0,0,.1-.2.2-.3,0,0,0-.2,0-.3,0-.1,0-.2-.1-.3,0,0-.2-.1-.3-.1h0ZM28.5,26.3c0,0-.2.1-.3.1,0,0-.2,0-.2,0,0,0,0-.2,0-.3,0,0,0-.1,0-.2,0,0,0-.1.1-.2,0,0,.1,0,.2,0,0,0,.2,0,.2,0,0,0,0,.2,0,.3,0,.1,0,.2-.1.3h0ZM28.7,25.6c0,0-.2-.1-.3-.1-.1,0-.2,0-.3.1,0,0,0-.1.1-.2.1-.1.2-.2.4-.2h0s0-.1,0-.1h0c-.2,0-.4.2-.6.4-.1.2-.2.4-.2.6,0,.1,0,.3.1.4,0,0,.2.1.3.1s.2,0,.2,0c0,0,.1,0,.2-.2,0,0,0-.1.1-.2,0,0,0-.1,0-.2,0-.1,0-.2-.1-.3h0ZM23.3,26.5h.2l.2-1.1h-.2c0,.1-.2,1.1-.2,1.1h0Z"/>
    </g>
  </g>
</svg>