<?xml version="1.0" encoding="UTF-8"?>
<svg xmlns="http://www.w3.org/2000/svg" version="1.1" viewBox="0 0 128 36.9">
  <defs>
    <style>
      .cls-1 {
        fill-rule: evenodd;
      }

      .cls-1, .cls-2 {
        fill: #b00002;
      }
    </style>
  </defs>
  <!-- Generator: Adobe Illustrator 28.7.1, SVG Export Plug-In . SVG Version: 1.2.0 Build 142)  -->
  <g>
    <g id="_图层_1" data-name="图层_1">
      <g>
        <path class="cls-2" d="M20.5,13.6v8h10.2v-8h-10.2ZM30.6,21.6h-10v-7.8h10v7.8Z"/>
        <path class="cls-2" d="M20.6,14h10c0,0-10,0-10,0h0c0,0,0,0,0,0ZM20.6,13.9h10c0,0-10,0-10,0h0ZM20.6,14.9h10c0,0-10,0-10,0h0ZM20.6,14.8h10c0,0-10,0-10,0h0ZM20.6,15.9h1.7c0,0-1.7,0-1.7,0h0ZM20.6,15.7h1.7c0,0-1.7,0-1.7,0h0ZM20.6,16.6h1.7c0,0-1.7,0-1.7,0h0ZM20.6,16.5h1.7c0,0-1.7,0-1.7,0h0ZM20.6,17.5h1.7c0,0-1.7,0-1.7,0h0ZM20.6,17.3h1.7c0,0-1.7,0-1.7,0h0ZM20.6,18.3h1.7c0,0-1.7,0-1.7,0h0ZM20.6,18.2h1.7c0,0-1.7,0-1.7,0h0ZM20.6,19.1h1.7c0,0-1.7,0-1.7,0h0ZM20.6,19h1.7c0,0-1.7,0-1.7,0h0ZM20.6,19.9h1.7c0,0-1.7,0-1.7,0h0ZM20.6,19.8h1.7c0,0-1.7,0-1.7,0h0ZM20.6,20.8h1.7c0,0-1.7,0-1.7,0h0ZM20.6,20.6h1.7c0,0-1.7,0-1.7,0h0ZM28.9,15.9h1.7c0,0-1.7,0-1.7,0h0ZM28.9,15.7h1.7c0,0-1.7,0-1.7,0h0ZM28.9,16.6h1.7c0,0-1.7,0-1.7,0h0ZM28.9,16.5h1.7c0,0-1.7,0-1.7,0h0ZM28.9,17.5h1.7c0,0-1.7,0-1.7,0h0ZM28.9,17.3h1.7c0,0-1.7,0-1.7,0h0ZM28.9,18.3h1.7c0,0-1.7,0-1.7,0h0ZM28.9,18.2h1.7c0,0-1.7,0-1.7,0h0ZM28.9,19.1h1.7c0,0-1.7,0-1.7,0h0ZM28.9,19h1.7c0,0-1.7,0-1.7,0h0ZM28.9,19.9h1.7c0,0-1.7,0-1.7,0h0ZM28.9,19.8h1.7c0,0-1.7,0-1.7,0h0ZM28.9,20.8h1.7c0,0-1.7,0-1.7,0h0ZM28.9,20.6h1.7c0,0-1.7,0-1.7,0h0ZM22.3,15.2l1.4.4v.2h3.8v-.2l1.4-.4h-6.6,0ZM26.7,15.7h-2.1c0-.1,2.1-.1,2.1-.1h0ZM22.3,16l1.4.2h0c0,0-1.4,0-1.4,0,0,0,0,0,0,0Z"/>
        <path class="cls-2" d="M22.3,15.8l1.4.2h0c0,0-1.4,0-1.4,0h0c0,0,0,0,0,0ZM22.3,16.8h1.4c0,0,0,.2,0,.2h-1.4c0,0,0-.2,0-.2h0ZM22.3,16.5h1.4c0,0,0,.2,0,.2h-1.4c0,0,0-.2,0-.2h0ZM22.3,18.4h1.4c0,0,0,.1,0,.1h-1.4c0,0,0-.1,0-.1ZM22.3,18.2h1.4c0,0,0,.1,0,.1h-1.4c0,0,0-.1,0-.1ZM22.3,19.2h1.4c0,0,0,.1,0,.1h-1.4c0,0,0-.1,0-.1ZM22.3,19h1.4c0,0,0,.1,0,.1h-1.4c0,0,0-.1,0-.1h0ZM22.3,20h1.4c0,0,0,.1,0,.1h-1.4c0,0,0-.1,0-.1h0ZM22.3,19.8h1.4c0,0,0,.1,0,.1h-1.4c0,0,0-.1,0-.1h0ZM22.3,20.8h1.4s0,.1,0,.1h-1.4s0-.1,0-.1ZM22.3,20.6h1.4c0,0,0,.1,0,.1h-1.4c0,0,0-.1,0-.1Z"/>
        <path class="cls-2" d="M22.3,15.2h0s0,6.4,0,6.4h0s0-6.4,0-6.4h0ZM28.9,15.2h0s0,6.4,0,6.4h0s0-6.4,0-6.4ZM23.7,15.6h0s0,5.5,0,5.5h0s0-5.5,0-5.5ZM27.5,15.6h0s0,5.4,0,5.4h0s0-5.4,0-5.4ZM22.6,15.3h0v6.1h0v-6.1ZM22.9,15.3h0v6h0v-6ZM23.2,15.4h0v5.8h0v-5.8ZM23.5,21.1h0s0-5.7,0-5.7h0v5.7Z"/>
        <path class="cls-2" d="M28.9,16.1l-1.4.2h0c0,0,1.4-.2,1.4-.2,0,0,0,0,0,0ZM28.9,15.8l-1.4.2h0c0,0,1.4-.2,1.4-.2h0c0,0,0,0,0,0ZM28.9,16.8h-1.4c0,0,0,0,0,0h1.4c0,0,0,0,0,0ZM28.9,16.6h-1.4c0,0,0,0,0,0h1.4c0,0,0,0,0,0ZM28.9,17.6h-1.4c0,0,0,0,0,0h1.4c0,0,0,0,0,0h0ZM28.9,17.4h-1.4c0,0,0,0,0,0h1.4c0,0,0,0,0,0h0ZM28.9,18.5h-1.4c0,0,0,0,0,0h1.4c0,0,0,0,0,0ZM28.9,18.2h-1.4c0,0,0,0,0,0h1.4c0,0,0,0,0,0ZM28.9,19.3h-1.4c0,0,0,0,0,0h1.4c0,0,0,0,0,0ZM28.9,19.1h-1.4c0,0,0,0,0,0h1.4c0,0,0,0,0,0ZM28.9,20.1h-1.4c0,0,0,0,0,0h1.4c0,0,0,0,0,0ZM28.9,19.9h-1.4c0,0,0,0,0,0h1.4c0,0,0,0,0,0ZM28.9,20.9h-1.4s0,0,0,0h1.4s0,0,0,0ZM28.9,20.6h-1.4c0,0,0,0,0,0h1.4c0,0,0,0,0,0Z"/>
        <path class="cls-2" d="M28.5,15.3h0v6.1h0v-6.1ZM28.2,15.3h0v6h0v-6ZM27.9,15.4h0v5.8h0v-5.8ZM27.7,15.4h0v5.7h0v-5.7ZM23.8,18.9h3.7c0,0-3.7,0-3.7,0h0ZM23.8,19.1h3.7c0,0-3.7,0-3.7,0h0ZM23.8,19.3h3.7c0,0-3.7,0-3.7,0h0ZM23.8,19.5h3.7c0,0-3.7,0-3.7,0h0ZM23.8,19.8h3.7c0,0-3.7,0-3.7,0h0ZM23.8,20.1h3.7c0,0-3.7,0-3.7,0h0ZM23.8,20.3h3.7c0,0-3.7,0-3.7,0h0ZM23.8,20.5h3.7c0,0-3.7,0-3.7,0h0ZM23.7,21h3.7c0,0-3.7,0-3.7,0h0Z"/>
        <path class="cls-2" d="M23.5,21.1h4.3c0,0-4.3,0-4.3,0h0ZM23.1,21.3h4.9c0,0-4.9,0-4.9,0h0ZM23.1,21.4h4.9c0,0-4.9,0-4.9,0h0c0,0,0,0,0,0ZM24.3,19.1h.1v1.9h-.1v-1.9ZM24.9,19.1h.1v1.9h-.1v-1.9ZM26.2,19.1h.1v1.9h-.1v-1.9ZM26.8,19.1h.1v1.9h-.1v-1.9ZM21.1,16.9h-1.6c0,.1.3.7.3.7h.2c0,0-.1,3.5-.1,3.5h0s0,.4,0,.4h0s0,.1,0,.1h.9c0,0,0-.1,0-.1v-.4h0s0-3.6,0-3.6h.2s.3-.7.3-.7ZM21,17.2h-.1c0,0,.1,0,.1,0h0c0,0,0,0,0,0h0ZM20.7,17h.1c0,0-.1,0-.1,0h0ZM20.6,17.2h.1c0,0-.1,0-.1,0h0ZM20.6,17.4h-.1c0,0,.1,0,.1,0h0c0,0,0,0,0,0ZM20.4,17h.1c0,0-.1,0-.1,0h0ZM20.3,17.2h.1c0,0-.1,0-.1,0h0c0,0,0,0,0,0ZM20.3,17.4h.1c0,0-.1,0-.1,0h0c0,0,0,0,0,0ZM20.3,17.4h-.1c0,0,.1,0,.1,0h0c0,0,0,0,0,0ZM20.2,17h.1c0,0-.1,0-.1,0h0ZM20.1,17.2h.1c0,0-.1,0-.1,0h0ZM20.7,17.5h-.1c0,0,.1,0,.1,0h0c0,0,0,0,0,0ZM20.9,17.4h-.1c0,0,.1,0,.1,0h0c0,0,0,0,0,0ZM30.4,17.6h.2s0,3.5,0,3.5h0v.4h0s0,.1,0,.1h.9c0,0,0-.1,0-.1v-.4s0,0,0,0v-3.5c-.1,0,.1,0,.1,0l.3-.6h-.4c0-.1-1.2-.1-1.2-.1l.3.7h0ZM30.3,17.2h.1c0,0-.1,0-.1,0h0c0,0,0,0,0,0ZM30.6,17.1h-.1c0,0,.1,0,.1,0h0c0,0,0,0,0,0ZM30.7,17.2h-.1c0,0,.1,0,.1,0h0c0,0,0,0,0,0ZM30.7,17.3h.1c0,0-.1,0-.1,0h0c0,0,0,0,0,0ZM30.8,17.1h-.1c0,0,.1,0,.1,0h0c0,0,0,0,0,0ZM30.9,17.2h-.1c0,0,.1,0,.1,0h0c0,0,0,0,0,0ZM30.9,17.5h-.1c0,0,.1,0,.1,0h0c0,0,0,0,0,0ZM31,17.3h.1c0,0-.1,0-.1,0h0ZM31.1,17.1h-.1c0,0,.1,0,.1,0h0c0,0,0,0,0,0ZM31.2,17.2h-.1c0,0,.1,0,.1,0h0ZM30.5,17.4h.1c0,0-.1,0-.1,0h0c0,0,0,0,0,0ZM30.4,17.3h.1c0,0-.1,0-.1,0h0c0,0,0,0,0,0Z"/>
        <path class="cls-2" d="M23.4,17.9l.4-.6h-1.5s.4.6.4.6h.1s0,3.3,0,3.3h-.1s0,.5,0,.5h.8v-.4s-.1,0-.1,0v-3.3h.1s0,0,0,0ZM23.2,17.4h.2c0,0-.2,0-.2,0h0c0,0,0,0,0,0ZM22.7,17.8h-.2c0,0,.2,0,.2,0h0ZM22.7,17.4h-.2c0,0,.2,0,.2,0h0ZM22.9,17.6h-.2c0,0,.2,0,.2,0h0ZM23,17.8h-.2c0,0,.2,0,.2,0h0ZM23,17.4h-.2c0,0,.2,0,.2,0h0ZM23.2,17.6h-.2c0,0,.2,0,.2,0h0ZM23.2,17.8h0c0,0,.2,0,.2,0h0c0,0-.2,0-.2,0ZM28.7,17.9l.4-.6h-1.5s.4.6.4.6h.1s0,3.3,0,3.3h-.1s0,.5,0,.5h.8v-.4s-.1,0-.1,0v-3.3h.1s0,0,0,0ZM28.6,17.4h.2c0,0-.2,0-.2,0h0ZM28,17.8h-.2c0,0,.2,0,.2,0h0ZM28,17.4h-.2c0,0,.2,0,.2,0h0ZM28.2,17.6h-.2c0,0,.2,0,.2,0h0ZM28.4,17.8h-.2c0,0,.2,0,.2,0h0ZM28.4,17.4h-.2c0,0,.2,0,.2,0h0ZM28.6,17.6h-.2c0,0,.2,0,.2,0h0c0,0,0,0,0,0ZM28.6,17.8h0c0,0,.2,0,.2,0h0c0,0-.2,0-.2,0ZM26,18.1l.5-.6h-1.8l.5.6h.2s0,3.1,0,3.1h-.1s0,.4,0,.4h.8v-.4s-.1,0-.1,0v-3.1h.1,0ZM26.1,18h-.1c0,0,.2,0,.2,0,0,0,0,0,0,0ZM26.2,17.6h.2,0c0,0-.1,0-.1,0h0ZM26.3,17.7h0c0,0-.1,0-.1,0h0c0,0,.2,0,.2,0ZM24.8,17.6h.2c0,0-.1,0-.1,0h0ZM24.9,17.7h.2c0,0-.1,0-.1,0h0ZM25.2,18h-.2c0,0,.2,0,.2,0h0ZM25.3,17.7h-.2c0-.1.2-.1.2-.1h0ZM25.3,17.8h0c0-.1.2-.1.2-.1h0c0,0-.2,0-.2,0h0ZM25.7,18h-.2c0,0,.2,0,.2,0h0ZM25.7,17.7h-.2c0-.1.2-.1.2-.1h0ZM25.9,17.8h-.2c0-.1.2-.1.2-.1h0ZM25.8,17.7h0c0-.1.2-.1.2-.1h0c0,0-.2,0-.2,0h0Z"/>
        <path class="cls-2" d="M22.4,21.6l1.4-.5h0c0,0-1.4.5-1.4.5,0,0,0,0,0,0ZM28.9,21.6l-1.5-.6h.1s1.4.5,1.4.5h0ZM17.1,21.5s0,0,0-.1h-.2c0,0,0,.1,0,.1,0,0,0,0,0,0,0,0,0,0,0,0,0,0,0,0,0,0,0,0,0,0,0,0,0,0,0,0,0,0,0,0,0,0,0,0,0,0,0,0,0,0h0Z"/>
        <path class="cls-2" d="M18.4,18.1c0,4,3.2,7.2,7.2,7.2,4.1,0,7.3-3.2,7.3-7.3,0-4-3.2-7.1-6.9-7.2-4.4-.2-7.7,3.3-7.7,7.3h0ZM32.6,18.4c-.1,3.5-3.1,6.6-7,6.6-3.7,0-7.2-3.1-7-7.4.2-3.6,3-6.6,7-6.6,3.8,0,7.1,3,6.9,7.3ZM21.5,26s0,0-.1-.1h0s-.2.3-.2.3h0s0,0,.1,0c0,0,0,0,0,0,0,0,0,0,0,0,0,0,0-.1,0-.1ZM25.4,26.9s0,0-.1,0c0,0-.1,0-.2.1,0,0,0,.2,0,.3,0,.1,0,.2,0,.3,0,0,0,0,.1,0,0,0,0,0,.1,0,0,0,0,0,0-.1,0,0,0-.1,0-.2,0,0,0-.2,0-.2,0,0,0,0,0-.1h0ZM25.6,9.7c.1,0,.3,0,.5,0,.1,0,.1-.1,0-.2,0-.2-.3-.2-.4,0,0,0-.1.1-.2.1-.1,0,0-.1,0-.2,0,0,0-.1,0-.1-.1,0-.3,0-.3.1-.1.3,0,.4.3.4h0ZM17.3,15.2c0,0,.1,0,0,0,0,0,0-.2-.1-.2,0,0,0,0,0,0,0,0,0,.2.1.2h0ZM33.5,22.6c0,0-.2,0-.2,0,0,0,0,0-.1,0,0,0,0,0,0,.1l.6.3s0,0,0,0c0,0,0,0,0,0,0,0,0-.1,0-.2,0,0-.1-.1-.2-.2ZM22.5,9.1c.1,0,.1,0,.2-.2,0,0,0-.1-.1-.1,0,0-.2,0-.2.2,0,0,0,.1.1.1ZM22,9.6c.1,0,.2-.1.2-.3,0,0,0-.2-.2-.2-.1,0-.2.1-.2.3,0,.1,0,.3.2.3ZM17.2,14.4s0,0,.1,0c0,0,0-.1,0-.2-.1-.2-.3-.2-.5-.3-.1,0-.2,0-.2,0,0,.1,0,.2,0,.3,0,0,0,0,.1,0,0,0,.2-.1.2,0,0,0,0,.1,0,.1ZM17.3,21.5s0,0,0,0c0,0,0,0,0,0,0,0,0,0,0,0,0,0,0,0,0-.1h-.3c0,.2,0,.2,0,.2,0,0,0,0,0,0Z"/>
        <path class="cls-2" d="M26.3,7.1c-6.7-.3-11.6,5-11.6,11,0,3,1.1,5.5,3.1,7.6,2.1,2.2,4.7,3.3,7.7,3.3,6.2,0,11.1-4.9,11.1-11,0-6.1-4.9-10.7-10.3-10.9ZM34.8,14.4c0,0,.1,0,.1,0,0,.2-.1.3-.3.3,0,0-.1,0-.1-.1,0,0,0-.3.3-.3ZM33.9,14.5c0,0,.2-.1.4-.1,0,0,.1,0,0,0-.2.3.2.4.3.5h0c-.2,0-.4-.2-.7-.2-.1,0-.2-.1,0-.2ZM33.2,15.5c0,0,0,0,.1,0,0,0,.1.2.2.1.2,0,.3-.1.2-.3,0,0-.2-.1,0-.2,0,0,.2,0,.2,0,0,0,.1,0,.2.1,0,0,.2,0,.2,0,0,0,0-.1-.1-.2,0,0,0,0,0,0,.2,0,.5.3.5.4,0,.1,0,.2-.2.2,0,0-.1,0-.2,0,0,0,0,0,0,.1,0,0,.1.2,0,.2,0,0-.1,0-.2-.1-.1-.1-.3,0-.4,0-.3.2-.6,0-.6-.3,0,0,0-.1,0-.1ZM31.2,12c0,0,.1,0,.2,0,.1,0,.3,0,.4,0,.1,0,.3,0,.1-.3,0,0-.2-.2,0-.3.1-.1.2,0,.3,0,.1.1.2.1.3,0,0,0,.1-.1.2-.2,0,0,.2-.2.2,0,0,0,0,.2,0,.3-.2.2-.2.2,0,.3,0,0,.2,0,.2.2,0,0,0,.1,0,.2,0,0,0,0-.1,0-.6-.2-.6-.2-.6.4,0,.2,0,.4.1.5,0,0,0,.2,0,.3-.3,0-.5-.4-.4-.7,0,0,0-.2,0-.3,0-.3,0-.3-.4-.3-.1,0-.3,0-.4,0,0,0-.2,0-.1-.1ZM33.1,18.5c-.2,3.7-3.4,7.2-7.8,7-4.1-.2-7.2-3.7-7-7.8,0,0,0,0,0,0,.2-3.7,3.4-7,7.4-7,4,0,7.6,3.5,7.4,7.8h0ZM29.7,10c0,0-.1,0-.2,0,0,0,0,.1,0,.1,0,.1,0,.2,0,.2,0,0-.1,0-.1,0,0-.1.2-.5.4-.6,0,0,0,0,0,0,0,0,0,.1,0,.1-.1.1,0,.2,0,.2.2,0,.3.2.2.3-.1.2-.3.4-.5.6,0,0-.2.1-.3,0-.1,0-.1-.2-.2-.3,0,0,0,0,.1,0,.3,0,.6-.1.6-.4,0,0,0-.1,0-.2h0ZM28.5,10.1c.3,0,.2-.3.2-.5,0-.2,0-.2.2-.3,0,0,0,0,.1,0,.2,0,.3,0,.1-.2,0,0,0,0,0-.1.2,0,.3,0,.3-.3,0,0,0-.1.1-.1.1,0,0,.1,0,.2,0,0-.2.2,0,.3.2.1.3,0,.5,0,0,0,.1-.1.2-.2,0,0,0-.1.2,0,0,0,0,.1,0,.2,0,.1-.1.2,0,.3,0,0,0,0,0,0-.2,0-.4,0-.6,0-.3-.1-.5-.1-.6.2,0,.1-.2.2,0,.4,0,0,0,0,0,.1-.1,0-.3.2-.4.3,0,0-.2,0-.2,0,0,0,0-.1.1-.2h0ZM25.4,8c0-.1.1,0,.2,0,.2,0,.4,0,.7,0,0,0,.1,0,.2,0,0,0,.2,0,.2.1,0,0-.1.1-.2.1-.2,0-.5,0-.7,0h-.2c-.1,0-.2,0-.2-.2ZM25.1,8.2c0,0,.1,0,.2,0,0,.1,0,.3,0,.4,0,0,0,.2,0,.3.1,0,.3,0,.5,0,0,0,0-.2,0-.2,0,0-.2,0-.2-.1,0-.2,0-.2.2-.3,0,0,0,0,.1,0,0,.2,0,.3.2.2,0,0,0,0,0,0,0,0,.2-.1.3,0,0,.1,0,.2-.1.2,0,0,0,0-.1,0,.1.1.2,0,.3,0,0,0,0,0,.1,0,0,0,0,0,0,0,0,0,0,0,0,0,0,0-.3,0-.3.1,0,.2.2,0,.2.1.1.2.2.4.3.6,0,0-.1,0-.2,0-.4,0-.8,0-1.3,0-.1,0-.2,0-.2-.2,0-.3,0-.7,0-1,0-.1,0-.2,0-.4,0,0,0-.1,0-.1h0ZM21.7,9.1c.3-.2.4-.2.2-.6,0-.1,0-.2,0-.3.1,0,.2,0,.2.1,0,0,0,.1,0,.2,0,0,.2.2.3,0,0,0,.1-.1.2-.1,0,0,.1,0,.2,0,0,0,.1.1,0,.2-.1.2-.1.5-.3.8,0,.1,0,.2,0,.3.1.2.1.5.2.7,0,0,0,.1,0,.2-.2-.2-.2-.5-.4-.7,0,0,0-.2-.1-.2-.1,0-.1,0-.1.2,0,.2-.2.1-.2,0-.2-.1-.3-.3-.4-.5,0-.1,0-.2.1-.3ZM19.3,10.5c.1,0,.2.3.4.1,0,0,0,.1,0,.2-.1.2,0,.3.2.4.1.1.2,0,.3,0,0,0,.1,0,.2,0,0,0,0,.1,0,.2,0,.2-.3.4-.5.2-.3-.2-.4-.5-.7-.8,0,0,0,0,0-.1,0,0,0-.2.1-.2ZM18.7,11.3c0,0,0-.1.2-.2,0,0,.1,0,.2,0,0,.2.2.4.4.5.1,0,0,.2,0,.3v.2c0,.1,0,.2-.2.2-.2,0-.1-.2-.1-.2,0,0,0,0,0-.1,0,0,0-.2,0-.2,0,0,0,0-.1.1,0,0-.1.1-.2,0,0,0-.1-.1,0-.2.1-.2.2-.3,0-.4,0,0,0-.1,0-.2h0ZM16.2,14.6c0-.3.3,0,.4-.1,0,0,.1,0,.1.2,0,.1,0,.2.2.2.2,0,.2-.2.2-.3,0-.1,0-.1-.1-.1-.1,0-.2,0-.3-.2-.3-.2-.3-.5-.1-.7,0,0,.2-.2.3,0,.4.4.9.5,1.3.7,0,0,.1,0,.2.1,0,0,0,.1-.1.1-.1,0-.4.2-.4-.2,0,0,0-.1-.2-.1-.1,0-.1.1-.2.2,0,0,0,.2,0,.2.1.1.3.2.4.4-.2,0-.3-.2-.4-.2-.1,0,.1.2.1.4,0,.3-.1.4-.4.3-.1,0-.2,0-.3,0,0,0,0-.1,0-.2,0,0,0-.2-.1-.2,0,0,0,0,0,.1,0,0,0,.1-.1.1,0,0,0-.1,0-.2,0-.2,0-.3-.3-.4-.1,0-.1,0,0-.2ZM17.4,16.1c0,0,0,.1-.1.1,0,0-.2,0-.2,0,0-.2,0-.3-.1-.5,0,0,0,0,0,0,.1,0,.4.4.4.5ZM16.5,15.8c0,0-.2,0-.2-.1,0-.1.1-.2.2-.2.1,0,.1,0,.1.2,0,.2-.1.1-.2.2h0ZM15.8,15.3c0-.1,0-.3.2-.3.1,0,.3,0,.3.2,0,.2-.2.2-.3.2-.1,0-.2,0-.2-.2ZM16.3,20.2s0,0,0,0c0,0,0,0,0,0h0s0,0,0,0v-.4c-.1,0,0,0,0,0h0s0,0,0,0c0,0,0,0,0,0,0,0,0,0,0,0h.2c0,0,0-.3,0-.3h-.2c0,0,0,0,0,0,0,0,0,0,0,0,0,0,0,0,0,0h0s0,0,0,0v-.4c-.1,0,0,0,0,0h0s0,0,0,0c0,0,0,0,0,0,0,0,0,0,0,0h.5c0-.1,0-.1,0-.2,0,0,0,0,0,0,0,0,0,0,0,0h0s0,0,0,0v.4c.1,0,0,0,0,0h0s0,0,0,0c0,0,0,0,0,0,0,0,0,0,0,0h-.2c0,0,0,.3,0,.3h.2c0,0,0,0,0,0,0,0,0,0,0,0,0,0,0,0,0,0h0s0,0,0,0v.4c.1,0,0,0,0,0h0s0,0,0,0c0,0,0,0,0,0,0,0,0,0,0,0h-.5c0,.1,0,.1,0,.2h0ZM16.4,20.8c0,0,0-.1,0-.2,0,0,0,0,0-.1,0,0,0,0,.1,0h.4c0-.1,0-.1,0-.2,0,0,0,0,0,0,0,0,0,0,0,0h0s.1.4.1.4h0s0,0,0,0c0,0,0,0,0,0,0,0,0,0,0,0,0,0,0,0,0,0h-.4c0,.1,0,.2-.1.2,0,0,0,0,0,0,0,0,0,0,0,0,0,0,0,0,0,0,0,0,0,0,0,0,0,0,.1,0,.2,0h.3c0-.1,0-.1,0-.1,0,0,0,0,0,0,0,0,0,0,0,0h0s0,.3,0,.3h0s0,0,0,0c0,0,0,0,0,0,0,0,0,0,0,0,0,0,0,0,0,0h-.3c0,.1-.1.1-.2.1,0,0,0,0-.1,0,0,0,0-.1-.1-.2ZM16.8,21.6l-.2-.4h0s0,0,0,0c0,0,0,0,0,0,0,0,0,0,0,0l.5-.2s0,0,0,0c0,0,0,0,0,0,0,0,0,0,0,0h0s.1.3.1.3c0,0,0,.2,0,.2,0,0,0,0,0,.1,0,0,0,0,0,0,0,0,0,0-.1,0,0,0,0,0-.1-.1,0,0,0,.1,0,.2,0,0,0,0-.1.1,0,0-.1,0-.2,0,0,0-.1-.1-.2-.2h0ZM16.9,22h0s0,0,0,0c0,0,0,0,0,0,0,0,0,0,0,0,0,0,0,0,0,0l.5-.2s0,0,0,0c0,0,0,0,0,0,0,0,0,0,0,0h0s0,0,0,0l.3.6h-.2c0,.1,0,0,0,0,0,0,0,0,0,0,0,0,0,0,0-.1,0,0,0,0,0-.1h0c0,0-.3,0-.3,0h0c0,0,0,0,0,0,0,0,0,0,.1,0h0s-.4.2-.4.2h0s0,0,0,0c0,0,0,0,0,0,0,0,0,0,0,0h-.2c0,.1,0,.1,0,.1,0,0,0,0,0,0,0,0,0,0,0,0h0c0,.1,0,.2.1.2,0,0,.1,0,.2,0h0s-.2,0-.2,0c0,0-.3-.6-.3-.6ZM17.6,23s0,0,0,0c0,0,0,0,0,0,0,0,0,0,0,0h0s0,0,0,0l-.2-.4h0s0,0,0,0c0,0,0,0,0,0,0,0,0,0,0,0,0,0,0,0,0,0l.5-.3s0,0,0,0c0,0,0,0,0,0,0,0,0,0,0,0h0s0,0,0,0l.2.4h0s0,0,0,0c0,0,0,0,0,0,0,0,0,0,0,0,0,0,0,0,0,0,0,0-.5.3-.5.3ZM18.1,24c0,0-.1,0-.2-.1,0,0,0,0,0-.1,0,0,0-.1,0-.1,0,0,0,0,.1-.1l.3-.2s0,0,0,0c0,0,0,0,0,0,0,0,0,0,0,0h0s.2.3.2.3h0s0,0,0,0c0,0,0,0,0,0,0,0,0,0,0,0,0,0,0,0,0,0l-.3.2s0,0-.1,0c0,0,0,0,0,0,0,0,0,0,0,0,0,0,.1,0,.2,0,0,0,.1,0,.2,0l.3-.2s0,0,0,0c0,0,0,0,0,0,0,0,0,0,0,0h0s.2.2.2.2h0s0,0,0,0c0,0,0,0,0,0,0,0,0,0,0,0,0,0,0,0,0,0l-.2.2c0,0-.1,0-.2.1,0,0-.1,0-.1,0h0ZM18.7,24.8l.2-.8-.4.3s0,0,0,0c0,0,0,0,0,0h0s0,0,0,0l-.2-.2h0s0,0,0,0c0,0,0,0,0,0l.4-.4h0s0,0,0,0c0,0,0,0,0,0h0s.2.2.2.2v.6c-.1,0,.1-.2.1-.2,0,0,0,0,0,0,0,0,0,0,0,0h0s.2.2.2.2h0s0,0,0,0c0,0,0,0,0,0,0,0,0,0,0,0l-.5.4h0s0,0,0,0ZM19.2,25.3l-.3-.3h0s0,0,0,0c0,0,0,0,0,0,0,0,0,0,0,0,0,0,0,0,0,0l.4-.4s0,0,0,0c0,0,0,0,0,0,0,0,0,0,0,0h0s0,0,0,0l.3.3h0s0,0,0,0c0,0,0,0,0,0,0,0,0,0,0,0,0,0,0,0,0,0l-.4.4s0,0,0,0c0,0,0,0,0,0,0,0,0,0,0,0h0s0,0,0,0h0ZM19.6,25.6l.2-.7s0,0,0-.1c0,0,0,0,0,0h0s.3.2.3.2h0s0,0,0,0c0,0,0,0,0,0,0,0,0,0,0,0,0,0,0,0,0,0h0c0,0-.1.5-.1.5l.4-.2s0,0,.1,0c0,0,0,0,0,0,0,0,0,0,0,0h0s.2.2.2.2h0s0,0,0,0c0,0-.1,0-.1,0l-.6.3h0s0,0,0,0ZM20,25.9h0s0,0,0,0c0,0,0,0,0,0,0,0,0,0,0,0,0,0,0,0,0,0l.3-.4s0,0,0,0c0,0,0,0,0,0,0,0,0,0,0,0h0s0,0,0,0l.6.4v.2c-.1,0-.2,0-.2,0,0,0,0,0,0-.1,0,0,0,0,0,0,0,0,0,0,0,0h0s-.2.2-.2.2h0s0,0,.1,0c0,0,0,0,.1,0h0s-.2.4-.2.4h0s0,0,0-.1c0,0,0,0,0,0,0,0,0,0,0,0v.2c-.1,0-.2,0-.2,0,0,0,0,0,0,0,0,0,0,0,0,0h0c0,0,.1,0,.2,0,0,0,.1,0,.2,0h0s-.2.2-.2.2l-.6-.4ZM21.4,26.7s0,0,0,0c0,0,0,0,0,0h0s-.2,0-.2,0v-.4c0,0-.1,0-.1,0v.2c-.1,0-.1,0-.1,0,0,0,0,0,0,0,0,0,0,0,0,0h0s-.4-.2-.4-.2h0s0,0,0,0c0,0,0,0,0,0,0,0,0,0,0,0l.2-.5s0,0,0,0c0,0,0,0,0,0,0,0,0,0,0,0h0s.3.2.3.2c0,0,.1,0,.2.1,0,0,0,0,0,.1,0,0,0,0,0,.1,0,0,0,0-.1,0,0,0,0,0-.1,0v.3s0,0,0,0ZM22.2,26.8c0,0,0,.1-.1.1,0,0-.1,0-.2,0,0,0,0,0,0,0,0,0,0,0,0,0,0,0,0,0,0,0,0,0,0,0,0,0,0,0,0,0,0,0h0s.1-.3.1-.3h0c0,0,0,.2,0,.2,0,0,0,0,.1.1,0,0,0,0,.1,0,0,0,0,0,0,0,0,0,0,0,0,0,0,0,0,0,0,0,0,0,0,0,0,0,0,0,0,0-.1-.1,0,0,0,0,0-.1,0,0,0,0,0-.1,0,0,0-.1.1-.1,0,0,.1,0,.2,0,0,0,0,0,0,0,0,0,0,0,0,0,0,0,0,0,0,0,0,0,0,0,0,0,0,0,0,0,0,0h0s0,.3,0,.3h0c0,0,0-.1,0-.2,0,0,0,0-.1-.1,0,0,0,0-.1,0,0,0,0,0,0,.1,0,0,0,0,0,0,0,0,0,0,0,.1,0,0,.1.1.1.2,0,0,0,.1,0,.2h0ZM22.9,26.5h0s0,0,0,0c0,0,0,0,0,0,0,0,0,0,0,0l-.2.5s0,0,0,0c0,0,0,0,0,0,0,0,0,0,0,0h0s0,0,0,0h-.4c0-.1,0-.2,0-.2h0s0,0,0,0c0,0,0,0,0,0,0,0,0,0,0,0l.2-.5s0,0,0,0c0,0,0,0,0,0,0,0,0,0,0,0h0s0,0,0,0h.4c0,.1,0,.1,0,.2ZM23.6,26.9h0s0,0,0-.1c0,0,0,0,0,0,0,0,0,0,0,0h0s-.1.6-.1.6c0,0,0,0,0,0,0,0,0,0,0,0,0,0,0,0,0,0h0s0,0,0,0h-.4c0,0,0-.1,0-.1h0s0,0,0,0c0,0,0,0,0,0,0,0,0,0,0,0v-.6c.1,0,0,0,0,0,0,0,0,0-.1,0,0,0,0,0,0,.1h0s0-.2,0-.2l.7.2v.2c0,0,0,0,0,0ZM24.5,26.8s0,0,0,0c0,0,0,0-.1.1l-.2.3v.2s0,0,0,0c0,0,0,0,0,0,0,0,0,0,0,0h0s0,0,0,0h-.4c0,0,0,0,0,0h0s0,0,0,0c0,0,0,0,0,0,0,0,0,0,0,0v-.2s-.1-.4-.1-.4c0,0,0,0,0-.1,0,0,0,0,0,0h0s.4,0,.4,0h0s0,0,0,0c0,0,0,0,0,0,0,0,0,0,0,0,0,0,0,0,0,.1v.3c.1,0,.3-.2.3-.2,0,0,0,0,0-.1,0,0,0,0,0,0,0,0,0,0,0,0h0s.2,0,.2,0h0s0,0,0,0ZM25.7,27.3c0,0,0,.2-.1.3,0,0-.2.2-.3.1-.2,0-.4-.2-.4-.4,0,0,0,0,0,0,0-.1,0-.2.1-.3,0,0,.2-.1.3-.1.1,0,.2,0,.3.1,0,0,.1.2.1.3h0ZM26.4,27.1s0,0,0-.1c0,0,0,0,0,0,0,0,0,0-.1,0h0v.3h0s0,0,0,0c0,0,0,0,0,0,0,0,0,0,0-.1h0v.4h0c0,0,0-.1,0-.2,0,0,0,0-.1,0h0v.2s0,0,0,0c0,0,0,0,0,0,0,0,0,0,0,0h0s-.4,0-.4,0h0s0,0,0,0c0,0,0,0,0,0,0,0,0,0,0,0,0,0,0,0,0,0v-.5s0,0,0,0c0,0,0,0,0,0,0,0,0,0,0,0h0s.7,0,.7,0v.2h0,0ZM27.5,27.5c0,0-.1,0-.2,0,0,0-.2,0-.2,0,0,0-.1,0-.2-.1,0,0,0-.1,0-.2,0,0,0-.2,0-.2,0-.1.2-.2.3-.3,0,0,.1,0,.2,0,0,0,0,0,0,0,0,0,0,0,0,0,0,0,0,0,0,0h0s0,.3,0,.3h0c0,0,0-.1-.1-.1,0,0-.2,0-.3,0,0,0,0,0,0,.1,0,0,0,.1,0,.2,0,0,0,.1,0,.2,0,0,0,0,.1.1,0,0,0,0,.2,0,0,0,0,0,.1,0,0,0,0,0,.1-.1h0c0,.1,0,.2-.1.2h0ZM28.3,27.4h0s0,0,0,0c0,0,0,0,0,0,0,0,0,0,0,0,0,0,0,0,0,0v-.2c0,0-.3,0-.3,0v.2c0,0,0,0,0,0,0,0,0,0,0,0,0,0,0,0,0,0h0s0,0,0,0h-.4c0,0,0,0,0,0h0s0,0,0,0c0,0,0,0,0,0,0,0,0,0,0,0v-.5c-.1,0-.1,0-.1,0,0,0,0,0,0,0,0,0,0,0,0,0h0s0,0,0,0h.4c0,0,0,0,0,0h0s0,0,0,0c0,0,0,0,0,0,0,0,0,0,0,0v.2c0,0,.3,0,.3,0v-.2c0,0,0,0,0,0,0,0,0,0,0,0,0,0,0,0,0,0h0s0,0,0,0h.4c0,0,0,0,0,0h0s0,0,0,0c0,0,0,0,0,0,0,0,0,0,0,0v.5c.1,0,.1,0,.1,0,0,0,0,0,0,0,0,0,0,0,0,0h0s0,0,0,0c0,0-.4,0-.4,0ZM28.8,27.3h0s0,0,0,0c0,0,0,0,0,0,0,0,0,0,0,0,0,0,0,0,0,0l-.2-.5s0,0,0,0c0,0,0,0,0,0,0,0,0,0,0,0h0s0,0,0,0h.4c0-.1,0-.1,0-.1h0s0,0,0,0c0,0,0,0,0,0,0,0,0,0,0,0l.2.5s0,0,0,0c0,0,0,0,0,0,0,0,0,0,0,0h0s0,0,0,0h-.4c0,.1,0,.1,0,.1ZM29.9,26.8l-.8-.4.2.5s0,0,0,0c0,0,0,0,0,0h0s0,0,0,0h-.3c0,.1,0,0,0,0,0,0,0,0,0,0,0,0,0,0,0,0l-.2-.5h0s0,0,0,0c0,0,0,0,0,0h0s.3-.1.3-.1l.6.3v-.3c-.2,0-.2,0-.2,0,0,0,0,0-.1,0h0s.2-.1.2-.1h0s0,0,0,0c0,0,0,0,0,0,0,0,0,0,0,0l.3.6h0s0,0,0,0ZM30.1,26.7h0s0,0,0,0c0,0,0,0,0,0,0,0,0,0,0,0,0,0,0,0,0,0l-.3-.5s0,0,0,0c0,0,0,0,0,0,0,0,0,0,0,0h0s0,0,0,0l.6-.3v.2c.1,0,.1,0,.1,0,0,0,0,0-.1,0,0,0,0,0-.1,0,0,0,0,0-.1,0h0s.2.3.2.3h0s0,0,0-.1c0,0,0,0,0-.1h0s.2.3.2.3h0s0,0,0,0c0,0,0,0,0,0,0,0,0,0,0,0v.2c.1,0,.1,0,.2,0,0,0,0,0,0,0,0,0,0,0,0,0h0c0,0,.1-.1.1-.2,0,0,0-.1,0-.2h0s.1.2.1.2l-.6.4h0ZM31.3,25.9c0,0,0,.1-.1.2,0,0,0,0-.1,0,0,0,0,0,0,0,0,0,0,0,0,0,0,0,0,0,0,0h0s-.2-.2-.2-.2h0c0,0,.1,0,.2,0,0,0,.1,0,.2,0,0,0,0,0,0,0,0,0,0,0,0,0,0,0,0,0,0,0,0,0,0,0,0,0,0,0,0,0-.1,0,0,0-.1,0-.2,0,0,0,0,0-.1,0,0,0,0,0,0,0,0,0,0-.1,0-.2,0,0,0-.1.1-.2,0,0,0,0,0,0,0,0,0,0,0,0,0,0,0,0,0,0,0,0,0,0,0,0,0,0,0,0,0,0h0s.2.2.2.2h0s-.1,0-.2,0c0,0-.1,0-.2,0,0,0,0,0,0,0,0,0,0,0,0,0,0,0,0,0,0,0,0,0,0,0,0,0,0,0,0,0,.1,0,0,0,.2,0,.2,0,.1,0,.2.1.2.3,0,0,0,0,0,0h0ZM31.5,25.8h0s0,0,0,0c0,0,0,0,0,0,0,0,0,0,0,0,0,0,0,0,0,0l-.4-.4s0,0,0,0c0,0,0,0,0,0,0,0,0,0,0,0h0s0,0,0,0l.5-.5.2.2h0s0,0-.1,0c0,0,0,0-.1,0,0,0,0,0-.1,0h0c0,0,.2.3.2.3h0s0,0,0-.1c0,0,0,0,0-.1h0s.3.3.3.3h0s0,0,0,0c0,0,0,0,0,0,0,0,0,0,0,0l.2.2s0,0,0,0c0,0,0,0,0,0,0,0,0,0,0,0h0c0,0,0-.1,0-.2,0,0,0-.1,0-.2h0s.1.2.1.2l-.5.5h0ZM32.8,24.4h0s0,0,0,0c0,0,0,0,0,0,0,0,0,0,0,0,0,0,0,0,0,0l-.5-.4.4.7h0s-.8-.2-.8-.2l.4.4s0,0,0,0c0,0,0,0,0,0,0,0,0,0,0,0h0s-.2.2-.2.2h0s0,0,0,0c0,0,0,0,0,0,0,0,0,0,0,0,0,0,0,0,0,0,0,0,0,0,0,0l-.4-.3s0,0,0,0c0,0,0,0,0,0,0,0,0,0,0,0h0s0,0,0,0l.2-.3.6.2-.3-.5.2-.3h0s0,0,0,0c0,0,0,0,0,0,0,0,0,0,0,0,0,0,0,0,0,0l.4.3s0,0,0,0c0,0,0,0,0,0,0,0,0,0,0,0h0s0,0,0,0l-.3.3h0ZM33.1,24h0s0,0,0,0c0,0,0,0,0,0,0,0,0,0,0,0,0,0,0,0,0,0l-.4-.3s0,0,0,0c0,0,0,0,0,0,0,0,0,0,0,0h0s0,0,0,0l.4-.6h.2c0,.1,0,.1,0,.1,0,0,0,0-.1,0,0,0,0,0,0,0,0,0,0,0,0,0h0c0,0,.3.2.3.2h0c0,0,0,0,0-.1,0,0,0,0,0-.1h0s.4.2.4.2h0s0,0-.1,0c0,0,0,0,0,0,0,0,0,0,0,0h.2c0,.1,0,.2,0,.2,0,0,0,0,0,0,0,0,0,0,0,0h0c0,0,0-.2,0-.2,0,0,0-.1,0-.2h0s.2.1.2.1l-.4.6h0ZM33.8,22.9s0,0,0,.1l-.2.3h0s0,0,0,0c0,0,0,0,0,0,0,0,0,0,0,0,0,0,0,0,0,0l-.5-.2s0,0,0,0c0,0,0,0,0,0,0,0,0,0,0,0h0s0,0,0,0l.2-.3c0,0,0-.1.1-.2,0,0,.1,0,.2,0,0,0,.2,0,.2,0,0,0,0,0,.1,0,0,0,0,0,0,.1,0,0,0,0,0,.1,0,0,0,0,0,.1ZM34,22.5h0s0,0,0,0c0,0,0,0,0,0,0,0,0,0,0,0,0,0,0,0,0,0l-.5-.2s0,0,0,0c0,0,0,0,0,0,0,0,0,0,0,0h0s0,0,0,0l.2-.4h0s0,0,0,0c0,0,0,0,0,0,0,0,0,0,0,0,0,0,0,0,0,0l.5.2s0,0,0,0c0,0,0,0,0,0,0,0,0,0,0,0h0s0,0,0,0c0,0-.2.4-.2.4ZM34.4,21.6c0,0,0,.1-.1.2,0,0-.1,0-.2,0,0,0-.1,0-.2,0,0,0-.1,0-.2-.1,0-.1-.1-.3,0-.4,0,0,0-.1,0-.2,0,0,0,0,0,0,0,0,0,0,0,0,0,0,0,0,0,0h0s.3,0,.3,0h0c0,0-.1,0-.2,0,0,0,0,0-.1.1,0,0,0,0,0,.1,0,0,0,0,0,.1,0,0,.1,0,.2.1,0,0,.1,0,.2,0,0,0,.1,0,.2,0,0,0,0,0,0-.1,0,0,0,0,0-.1,0,0,0-.1,0-.2h0c0,0,0,.1,0,.2,0,0,0,.1,0,.2h0ZM34.7,20.5l-.8.3.5.2s0,0,0,0c0,0,0,0,0,0h0s0,0,0,0v.3c0,0-.1,0-.1,0,0,0,0,0,0,0,0,0,0,0,0,0l-.5-.2h0s0,0,0,0c0,0,0,0,0,0h0s0-.3,0-.3l.6-.2h-.3c0-.1,0-.1,0-.1,0,0,0,0,0,0h0s0-.3,0-.3h0s0,0,0,0c0,0,0,0,0,0,0,0,0,0,0,0l.6.2h0ZM34.8,20.3h0s0,0,0,0c0,0,0,0,0,0,0,0,0,0,0,0,0,0,0,0,0,0h-.5c0-.1,0-.2,0-.2,0,0,0,0,0,0,0,0,0,0,0,0h0s0,0,0,0l.2-.6h.2c0,0,0,0,0,0,0,0,0,0-.1,0,0,0,0,0,0,0,0,0,0,0,0,.1h0c0,0,.3.2.3.2h0c0,0,0-.1,0-.1,0,0,0,0-.1,0h0s.4,0,.4,0h0s0,0-.1,0c0,0,0,0,0,0,0,0,0,0,0,0h.2c0,0,0,0,0,0,0,0,0,0,0,0,0,0,0,0,0,0h0c0-.1,0-.2,0-.2,0,0,0-.1-.1-.1h0s.2,0,.2,0l-.2.7h0ZM35.2,16.1c-.1,0-.3-.2-.3-.3,0-.1.1-.2.2-.2.1,0,.2.2.2.3,0,0,0,.2-.1.2h0ZM35.4,15.5c-.1,0-.2,0-.4,0-.1,0-.2-.1-.2-.2,0,0,0,0,0-.2,0-.1,0-.2.2-.3,0,0,.2-.1.2,0,0,0,0,.2,0,.3,0,0-.2,0-.1.1s.2,0,.3,0c0,0,.1,0,.2,0,.1,0,.2,0,.2.1,0,.2-.2.3-.3.2Z"/>
        <path class="cls-2" d="M26.2,6.5c-6.6-.3-12.2,5-12.2,11.5,0,3.2,1.2,6,3.5,8.2,2.3,2.2,5.1,3.3,8.3,3.3,6,0,11.5-4.9,11.5-11.5,0-6.2-4.9-11.3-11.1-11.6ZM25.5,29.1c-3,0-5.7-1.2-7.8-3.4-2.1-2.1-3.1-4.7-3.2-7.7,0-6,5-11.5,11.7-11.1,5.5.3,10.5,4.9,10.5,11.1,0,6.1-5,11.2-11.2,11.1Z"/>
        <path class="cls-1" d="M77.9,23.1c.3,0,.5.1.7.3.2.2.3.5.3.8s0,.6-.3.9c-.2.2-.4.3-.6.3h0c-.3,0-.5-.1-.7-.3-.2-.2-.3-.5-.3-.8s0-.6.3-.8h0s0,0,0,0h0c0,0,0,0,0,0h0s0,0,0,0h0s0,0,0,0h0s0,0,0,0h0s0,0,0,0h0s0,0,0,0h0s0,0,0,0h0s0,0,0,0h0s0,0,0,0h0ZM49.1,23.1h0c0,.1,0,.1,0,.1,0,0-.1,0-.2,0,0,0,0,0,0,.2v1c0,.2,0,.3,0,.4,0,0,.1.2.2.2,0,0,.2,0,.2,0h0c0,0,.2,0,.3,0,0,0,.2-.1.2-.2,0,0,0-.2,0-.4v-1c0,0,0-.1,0-.2,0,0,0,0-.1,0h0c0-.1.6-.1.6-.1h0c0,.1,0,.1,0,.1,0,0-.1,0-.1,0,0,0,0,0,0,.2v1.1c0,.3,0,.5-.2.7-.1.1-.3.2-.5.2h0c-.2,0-.4,0-.5-.2-.2-.1-.2-.3-.2-.6v-1.1c0,0,0-.2,0-.2,0,0,0,0-.1,0h0c0-.1.7-.1.7-.1h0ZM57.7,23.1h0c0,.1,0,.1,0,.1,0,0-.1,0-.2,0,0,0,0,0,0,.2v1c0,.2,0,.3,0,.4,0,0,.1.2.2.2,0,0,.2,0,.2,0h0c0,0,.2,0,.3,0,0,0,.2-.1.2-.2,0,0,0-.2,0-.4v-1c0,0,0-.1,0-.2,0,0,0,0-.1,0h0c0-.1.6-.1.6-.1h0c0,.1,0,.1,0,.1,0,0-.1,0-.1,0,0,0,0,0,0,.2v1.1c0,.3,0,.5-.2.7-.1.1-.3.2-.5.2h0c-.2,0-.4,0-.5-.2-.2-.1-.2-.3-.2-.6v-1.1c0,0,0-.2,0-.2,0,0,0,0-.1,0h0c0-.1.7-.1.7-.1h0ZM69.9,23.1c.2,0,.4,0,.5.2v-.2h.2v.7c.1,0,0,0,0,0,0,0,0-.2-.1-.2,0,0-.1-.1-.2-.2-.1,0-.2-.2-.4-.2-.1,0-.2,0-.3.1,0,0-.1.2-.1.2,0,0,0,.2,0,.2,0,0,.2.1.3.2h.4c.2.2.3.3.4.4,0,.1.1.2.1.4,0,.2,0,.4-.2.5-.1.1-.3.2-.5.2h0c-.1,0-.2,0-.3,0,0,0-.2,0-.2-.2h0s0,.2,0,.2h0v-.8c-.1,0,0,0,0,0,0,.2.2.4.3.5.1.1.3.2.4.2.1,0,.2,0,.3-.1,0,0,.1-.2.1-.3,0,0,0-.2,0-.3,0,0-.2-.1-.3-.2h-.3c-.1-.2-.3-.2-.4-.4,0-.1-.1-.2-.1-.4,0-.2,0-.3.2-.4.1-.1.3-.2.5-.2h0ZM106.5,23.1c.2,0,.3,0,.5.2v-.2h.1l.2.8h-.1c0-.2-.2-.4-.3-.5-.1-.1-.2-.2-.4-.2-.2,0-.4,0-.5.3,0,0,0,0,0,0h0c0,.2-.1.4-.1.6s0,.5.2.7c.1.2.3.3.5.3.1,0,.3,0,.4-.1.1,0,.2-.2.3-.3h.1c0,.3-.2.4-.4.5-.1,0-.3.1-.4.1h0c-.3,0-.5-.1-.7-.3-.2-.2-.3-.5-.3-.8s0-.4.1-.6c0-.2.2-.3.3-.4.1-.1.3-.2.5-.2h0ZM92.9,23.1c.2,0,.4,0,.5.2v-.2h.2v.7c.1,0,0,0,0,0,0-.2-.2-.3-.3-.4-.1,0-.2-.2-.4-.2-.1,0-.2,0-.3.1,0,0-.1.2-.1.2,0,0,0,.2,0,.2,0,0,.2.1.3.2h.4c.2.2.3.3.4.4,0,.1.1.2.1.4,0,.2,0,.4-.2.5-.1.1-.3.2-.5.2h0c-.1,0-.2,0-.3,0,0,0-.2-.1-.3-.2v.2h-.2v-.8c-.1,0,0,0,0,0,0,.2.2.4.3.5.1.1.3.2.4.2.1,0,.2,0,.3-.1,0,0,.1-.2.1-.3,0,0,0-.2,0-.3,0,0-.2-.1-.3-.2h-.3c-.1-.2-.3-.2-.4-.4,0-.1-.1-.2-.1-.4,0-.2,0-.3.2-.4.1-.1.3-.2.5-.2h0ZM83,23.1c.2,0,.3,0,.5.2v-.2h.1l.2.8h-.1c0-.2-.2-.4-.3-.5-.1-.1-.2-.2-.4-.2-.2,0-.4,0-.5.3-.1.2-.2.4-.2.7s0,.5.2.7c.1.2.3.3.5.3h0c.1,0,.2,0,.4-.1.1,0,.2-.2.3-.3h0c0,0,.1,0,.1,0,0,.2-.2.3-.4.4-.1,0-.3.1-.4.1h0c-.3,0-.5-.1-.7-.3-.2-.2-.3-.5-.3-.8s0-.4.1-.6.2-.3.3-.4c.1,0,.3-.1.4-.2,0,0,0,0,0,0ZM63.3,23.1h0c0,.1,0,.1,0,.1,0,0,0,0-.1,0,0,0,0,0,0,0s0,0,0,.1l.5,1.6.5-1.6s0,0,0-.1c0,0,0,0,0,0,0,0,0,0-.1,0h0c0-.1.6-.1.6-.1h0c0,.1-.1.2-.1.2,0,0,0,0,0,.1l-.7,2h-.2l-.6-2c0,0,0-.1,0-.2,0,0,0,0-.1,0h0c0-.1.7-.1.7-.1h0ZM97.7,23.1l.6,1.8.5-1.8h.6c0,.1,0,.1,0,.1,0,0-.1,0-.1,0s0,0,0,.2v1.5h0c0,.1,0,.1,0,.2,0,0,0,0,0,0,0,0,0,0,.2,0h0c0,.1-.7.1-.7.1h0c0-.1,0-.1,0-.1,0,0,0,0,.1,0,0,0,0,0,0,0,0,0,0,0,0-.2v-1.7l-.6,2h-.1l-.6-2v1.6c0,.1,0,.2,0,.2,0,0,0,0,.2,0h0c0,.1-.7.1-.7.1h0c0-.1,0-.1,0-.1,0,0,.1,0,.2,0,0,0,0-.1,0-.2v-1.5c0-.1,0-.2,0-.2,0,0,0,0-.2,0h0c0-.1.6-.1.6-.1ZM88.3,23.1l.9,1.7v-1.3c0-.1,0-.2,0-.2,0,0,0,0-.1,0h0c0-.1.6-.1.6-.1h0c0,.1,0,.1,0,.1,0,0-.1,0-.2,0,0,0,0,.1,0,.2v1.9h-.2l-1-2.1v1.6c0,0,0,.2,0,.2,0,0,0,0,.2,0h0c0,.1-.6.1-.6.1h0c0-.1,0-.1,0-.1,0,0,.1,0,.2,0,0,0,0-.1,0-.2v-1.5h0c0,0,0,0,0,0h0c0,0,0,0,0,0,0,0,0,0,0,0,0,0,0,0-.1,0h0c0-.1.6-.1.6-.1h0ZM80.8,23.1l.2.6h-.1c0-.1-.2-.3-.2-.3,0,0-.2,0-.4,0h-.4v.9h.2c.1,0,.2,0,.3,0,0,0,0-.1,0-.3h0c0,0,.1,0,.1,0v1h-.1c0-.2,0-.3,0-.4,0,0-.1,0-.2,0h-.2v.7c0,0,0,.1,0,.2,0,0,0,0,.2,0h0c0,.1-.7.1-.7.1h0c0-.1,0-.1,0-.1,0,0,.1,0,.1,0s0,0,0-.2v-1.6c0,0,0-.2,0-.2,0,0,0,0-.1,0h0c0-.1,1.4-.1,1.4-.1ZM55.8,23.1h0c0,.1,0,.1,0,.1,0,0,0,0-.1,0,0,0,0,0,0,0,0,0,0,.1,0,.2v1.5c0,0,0,.2,0,.2,0,0,0,0,.2,0h0c0,.1-.7.1-.7.1h0c0-.1,0-.1,0-.1,0,0,0,0,.1,0,0,0,0,0,0,0,0,0,0,0,0-.2v-1.5c0,0,0-.1,0-.2,0,0,0,0-.1,0h0c0-.1.7-.1.7-.1ZM87.3,23.1h0c0,.1,0,.1,0,.1,0,0-.1,0-.1,0,0,0,0,.1,0,.2v1.5c0,0,0,.2,0,.2,0,0,0,0,.2,0h0c0,.1-.7.1-.7.1h0c0-.1,0-.1,0-.1,0,0,.1,0,.1,0,0,0,0,0,0-.2v-1.5c0,0,0-.2,0-.2,0,0,0,0-.1,0h0c0-.1.7-.1.7-.1h0ZM74.8,23.1h0c0,.1,0,.1,0,.1,0,0-.1,0-.1,0s0,0,0,.1l.4.9.4-.9s0,0,0-.1h0s0,0,0,0c0,0,0,0,0,0h0c0-.1.6-.1.6-.1h0c0,.1,0,.1-.1.2,0,0,0,0-.1.1l-.5,1v.6c0,0,0,.2,0,.2,0,0,0,0,0,0,0,0,0,0,.2,0h0c0,.1-.7.1-.7.1h0c0-.1,0-.1,0-.1,0,0,.1,0,.1,0,0,0,0,0,0,0,0,0,0,0,0-.2v-.5l-.5-1.1c0,0,0-.2-.1-.2,0,0,0,0-.1,0h0c0-.1.7-.1.7-.1ZM50.7,23.2h0c0-.1,1-.1,1-.1h0s0,0,0,0h0s0,0,0,0h0s0,0,0,0h0s0,0,0,0h0s0,0,0,0h0s0,0,0,0c.1,0,.2.2.2.4,0,.1,0,.2-.1.3,0,0-.2.2-.3.2.3,0,.5.3.5.6h0c0,0,0,0,0,0h0s0,0,0,0h0s0,0,0,0c0,0,0,0,0,0h0s0,0,0,0h0s0,0,0,0h0s0,0,0,0h0s0,0,0,0h0s0,0,0,0h0s0,0,0,0h0s0,0,0,0h0s0,0,0,0h0s0,0,0,0h0s0,0,0,0h0s0,0,0,0h0s-1,0-1,0h0c0-.1,0-.1,0-.1,0,0,.1,0,.1,0,0,0,0,0,0-.1v-1.6c0-.1,0-.2,0-.2,0,0,0,0-.1,0,0,0,0,0,0,0ZM95.7,23.1l.2.6h-.1c0-.1-.1-.2-.2-.3,0,0-.2-.1-.4-.1h-.5v.8h.2s0,0,0,0c0,0,.1,0,.2,0,0,0,0-.2,0-.3h0s.1,0,.1,0v1h-.1c0-.2,0-.3,0-.3,0,0-.1,0-.2,0h-.2v.7c0,0,0,.1,0,.2,0,0,0,0,.1,0h.3c.1,0,.3,0,.4,0,0,0,0,0,0,0,.1,0,.2-.2.3-.5h.1c0,0-.2.8-.2.8h-1.6c0-.1,0-.1,0-.1,0,0,.1,0,.2,0,0,0,0,0,0-.2v-1.6s0,0,0-.1c0,0,0,0,0,0,0,0-.1,0-.2,0h0c0-.1,1.5-.1,1.5-.1ZM59.9,23.1l.9,1.7v-1.3c0-.1,0-.2,0-.2,0,0,0,0-.1,0h0c0-.1.6-.1.6-.1h0c0,.1,0,.1,0,.1,0,0-.1,0-.2,0,0,0,0,.1,0,.2v1.9h-.2l-1-2.1v1.6c0,.1,0,.2,0,.2,0,0,0,0,.2,0h0c0,.1-.6.1-.6.1h0c0-.1,0-.1,0-.1,0,0,.1,0,.2,0s0-.1,0-.2v-1.5h0c0,0,0,0,0,0h0c0,0,0,0,0,0,0,0,0,0,0,0,0,0,0,0-.1,0h0c0-.1.6-.1.6-.1ZM108.5,23.1h0c0,.1,0,.1,0,.1,0,0-.1,0-.1,0,0,0,0,0,0,.1,0,0,0,0,0,.1v1.5c0,0,0,.2,0,.2,0,0,0,0,.2,0h0c0,.1-.7.1-.7.1h0c0-.1,0-.1,0-.1,0,0,.1,0,.1,0,0,0,0,0,0-.2v-1.5c0,0,0-.2,0-.2,0,0,0,0-.1,0h0c0-.1.7-.1.7-.1ZM71.9,23.1h0c0,.1,0,.1,0,.1,0,0-.1,0-.1,0,0,0,0,.1,0,.2v1.5c0,0,0,.2,0,.2,0,0,0,0,.2,0h0c0,.1-.7.1-.7.1h0c0-.1,0-.1,0-.1,0,0,.1,0,.1,0,0,0,0,0,0-.2v-1.5c0,0,0-.1,0-.2,0,0,0,0-.1,0h0c0-.1.7-.1.7-.1ZM62.3,23.1h0c0,.1,0,.1,0,.1,0,0-.1,0-.1,0,0,0,0,.1,0,.2v1.5c0,0,0,.2,0,.2,0,0,0,0,.2,0h0c0,.1-.7.1-.7.1h0c0-.1,0-.1,0-.1,0,0,.1,0,.1,0,0,0,0,0,0-.2v-1.5c0,0,0-.2,0-.2,0,0,0,0-.1,0h0c0-.1.7-.1.7-.1ZM66.4,23.1l.2.6h-.1c0,0,0-.2-.2-.3h0c0,0-.2-.1-.4-.1h-.5v.8h.2c.1,0,.2,0,.2,0,0,0,0-.2,0-.3h0s.1,0,.1,0v1h-.1c0-.2,0-.3,0-.3,0,0-.1,0-.2,0h-.2v.7c0,0,0,.1,0,.2,0,0,0,0,.1,0h.3c.2,0,.4,0,.5-.1.1,0,.2-.2.3-.4h0s.1,0,.1,0l-.2.7h-1.6c0-.1,0-.1,0-.1,0,0,.1,0,.2,0,0,0,0,0,0-.2v-1.6s0,0,0-.1c0,0,0,0,0,0,0,0-.1,0-.2,0h0c0-.1,1.5-.1,1.5-.1h0ZM105.1,23.1h0c0,.1,0,.1,0,.1,0,0-.1,0-.1,0,0,0,0,.1,0,.2v1.5c0,0,0,.2,0,.2,0,0,0,0,0,0,0,0,0,0,.1,0h0c0,.1-.7.1-.7.1h0c0-.1,0-.1,0-.1,0,0,.1,0,.1,0h0s0-.1,0-.2v-1.5c0,0,0-.2,0-.2,0,0,0,0-.1,0h0c0-.1.7-.1.7-.1h0ZM112.7,23.1l.2.6h-.1c0-.1-.1-.2-.2-.3,0,0-.2-.1-.4-.1h-.5v.8h.2c.1,0,.2,0,.2,0,0,0,0-.2,0-.3h0s.1,0,.1,0v1h-.1c0-.2,0-.3,0-.3,0,0-.1,0-.2,0h-.2v.8h0c0,0,0,.1,0,.1,0,0,0,0,.1,0h.3c.2,0,.4,0,.5-.1.1,0,.2-.2.3-.5h.1c0,0-.2.8-.2.8h-1.6c0-.1,0-.1,0-.1,0,0,.1,0,.2,0,0,0,0,0,0-.2v-1.6s0,0,0-.1c0,0,0,0,0,0,0,0-.1,0-.2,0h0c0-.1,1.5-.1,1.5-.1h0ZM109.5,23.1l.9,1.7v-1.3c0-.1,0-.2,0-.2,0,0,0,0-.1,0h0c0-.1.6-.1.6-.1h0c0,.1,0,.1,0,.1,0,0-.1,0-.2,0,0,0,0,.1,0,.2v1.9h-.2l-1-2.1v1.6c0,.1,0,.2,0,.2,0,0,0,0,.2,0h0c0,.1-.6.1-.6.1h0c0-.1,0-.1,0-.1,0,0,.1,0,.2,0,0,0,0-.1,0-.2v-1.5h0c0,0,0,0,0,0h0c0,0,0,0,0,0,0,0,0,0,0,0,0,0,0,0-.1,0h0c0-.1.6-.1.6-.1h0ZM91.5,23.1l.2.6h-.1c0-.1-.1-.2-.2-.3,0,0-.2-.1-.4-.1h-.5v.8h.2c.1,0,.2,0,.2,0,0,0,0-.2,0-.3h0s.1,0,.1,0v1h-.1c0-.2,0-.3,0-.3,0,0-.1,0-.2,0h-.2v.8h0c0,0,0,.1,0,.1,0,0,0,0,.1,0h.3c.2,0,.4,0,.5-.1.1,0,.2-.2.3-.5h.1c0,0-.2.8-.2.8h-1.6c0-.1,0-.1,0-.1,0,0,.1,0,.2,0,0,0,0,0,0-.2v-1.6s0,0,0-.1c0,0,0,0,0,0,0,0,0,0,0,0,0,0-.1,0-.2,0h0c0-.1,1.5-.1,1.5-.1h0ZM101.4,23.1l.2.6h-.1c0-.1-.1-.2-.2-.3,0,0-.2-.1-.4-.1h-.5v.8h.2c.1,0,.2,0,.2,0,0,0,0-.2,0-.3h0s.1,0,.1,0v1h-.1c0-.2,0-.3,0-.3,0,0-.1,0-.2,0h-.2v.8h0c0,0,0,.1,0,.1,0,0,0,0,.1,0h.3c.2,0,.4,0,.5-.1.1,0,.2-.2.3-.5h.1c0,0-.2.8-.2.8h-1.6c0-.1,0-.1,0-.1,0,0,.1,0,.2,0,0,0,0,0,0-.2v-1.6s0,0,0-.1c0,0,0,0,0,0,0,0-.1,0-.2,0h0c0-.1,1.5-.1,1.5-.1ZM103.6,25.1h0s0,0,0,0h0s0,0,0,0h0s0,0,0,0h0s0,0,0,0h0s0,0,0,0h0s0,0,0,0h0s0,0,0,0h0s0,0,0,0h0s0,0,0,0h-1c0-.1.1-.1.1-.1h0s0,0,0,0c0,0,0,0,0,0,0,0,0-.1,0-.2v-1.5c0-.1,0-.2,0-.2,0,0,0,0-.2,0h0c0-.1.7-.1.7-.1h.1s0,0,0,0h0s0,0,0,0h0c0,0,.2,0,.2,0,.1,0,.2.1.3.2,0,.1.2.2.2.4,0,.2,0,.3,0,.5,0,.3,0,.6-.2.8h0s0,0,0,0h0ZM68,23.1c.5,0,.7.2.7.6s0,.3-.2.4c-.1.1-.3.2-.5.2l.5.7c0,0,0,.1.1.2,0,0,0,0,.2,0h0c0,.1-.4.1-.4.1l-.7-1.1h-.2v.7c0,.1,0,.2,0,.2,0,0,0,0,.2,0h0c0,.1-.7.1-.7.1h0c0-.1,0-.1,0-.1,0,0,.1,0,.1,0,0,0,0,0,0-.1h0v-1.6c0,0,0-.1,0-.2,0,0,0,0-.1,0h0c0-.1,1-.1,1-.1h0ZM46.7,23.1h0c0,.1,0,.1,0,.1,0,0-.1,0-.2,0,0,0,0,0,0,.2v.6h1v-.6c0,0,0-.1,0-.2,0,0,0,0-.1,0h0c0-.1.7-.1.7-.1h0c0,.1,0,.1,0,.1,0,0-.1,0-.1,0,0,0,0,0,0,.2v1.6h0c0,0,0,.1,0,.1,0,0,0,0,0,0,0,0,0,0,0,0h0s0,0,0,0h0c0,.1-.7.1-.7.1h0c0-.1,0-.1,0-.1,0,0,0,0,.1,0,0,0,0,0,0,0,0,0,0,0,0,0,0,0,0,0,0,0h0s0,0,0,0v-.7h-1v.7c0,.1,0,.2,0,.2,0,0,0,0,.1,0h0s0,0,0,0h0c0,.1-.7.1-.7.1h0c0-.1,0-.1,0-.1,0,0,.1,0,.2,0,0,0,0,0,0-.2v-1.6c0,0,0-.2,0-.2,0,0,0,0-.1,0h0c0-.1.7-.1.7-.1h0ZM54.5,23.1l.2.6h-.1c0-.1-.1-.2-.2-.3,0,0-.2-.1-.4-.1h-.5v.8h.2c.1,0,.2,0,.2,0,0,0,0-.2,0-.3h0s.1,0,.1,0v1h-.1c0-.2,0-.3,0-.3,0,0-.1,0-.2,0h-.2v.7c0,0,0,.1,0,.2,0,0,0,0,.1,0h.3c.2,0,.4,0,.5-.1.1,0,.2-.2.3-.5h.1c0,0-.2.8-.2.8h-1.6c0-.1,0-.1,0-.1,0,0,.1,0,.2,0,0,0,0,0,0-.2v-1.6s0,0,0-.1c0,0,0,0,0,0,0,0-.1,0-.2,0h0c0-.1,1.5-.1,1.5-.1ZM84.9,23.1h0c0,.1,0,.1,0,.1,0,0-.1,0-.2,0,0,0,0,0,0,.2v.6h1v-.6c0,0,0-.1,0-.2,0,0,0,0-.1,0h0c0-.1.7-.1.7-.1h0c0,.1,0,.1,0,.1,0,0-.1,0-.1,0,0,0,0,0,0,.2v1.6h0c0,0,0,.1,0,.1,0,0,0,0,0,0,0,0,0,0,0,0h0s0,0,0,0h0c0,.1-.7.1-.7.1h0c0-.1,0-.1,0-.1,0,0,0,0,.1,0,0,0,0,0,0,0,0,0,0,0,0,0,0,0,0,0,0,0h0s0,0,0,0v-.7h-1v.7c0,.1,0,.2,0,.2,0,0,.1,0,.2,0h0c0,.1-.7.1-.7.1h0c0-.1,0-.1,0-.1,0,0,.1,0,.2,0,0,0,0,0,0-.2v-1.6c0,0,0-.2,0-.2,0,0,0,0-.1,0h0c0-.1.7-.1.7-.1h0ZM72.5,23h0c0,0,1.1,0,1.1,0h0c0,0,0,0,0,0l.2.7h-.1c0,0,0-.2-.2-.3,0,0-.2-.1-.3-.1s0,0-.1,0c0,0,0,0,0,.1v1.6c0,0,0,.2,0,.2,0,0,0,0,.2,0h0c0,.1-.7.1-.7.1h0c0-.1.1-.1.2-.2,0,0,0,0,0,0,0,0,0-.1,0-.2v-1.6c0,0,0,0,0-.1,0,0,0,0,0,0-.2,0-.3,0-.3.1,0,0-.1.2-.2.3h0c0,0-.1,0-.1,0l.2-.7h0ZM77.9,23.2h0s0,0,0,0h0s0,0,0,0h0s0,0,0,0h0s0,0,0,0h0s0,0,0,0h0s0,0,0,0h0s0,0,0,0h0s0,0,0,0h0c-.1.2-.2.5-.2.8s0,.6.2.7c0,0,0,0,.1.1h0c0,0,.1,0,.2.1h0s0,0,0,0h0s0,0,0,0h0s0,0,0,0h0c.2,0,.4,0,.5-.3.1-.2.2-.4.2-.7s0-.6-.2-.7c0-.2-.3-.3-.5-.3ZM51.6,24.3h-.4v.8c0,0,0,.1,0,.2,0,0,0,0,.2,0h.3s0,0,0,0h0s0,0,0,0h0s0,0,0,0h0s0,0,0,0h0s0,0,0,0h0s0,0,0,0h0c.1,0,.2-.2.2-.4s0-.3-.2-.4c0,0,0,0,0,0h0s0,0,0,0h0s0,0,0,0h0s0,0,0,0h0s0,0,0,0h0c0,0-.1,0-.2,0h0ZM102.8,23.3h-.3v1.9h.5s0,0,0,0h0s0,0,0,0h0s0,0,0,0h0s0,0,0,0c.1,0,.2-.1.3-.3,0-.2.1-.4.1-.6,0-.1,0-.3,0-.4,0-.1,0-.2-.2-.3,0,0-.1-.1-.2-.2h0s0,0,0,0h0s0,0,0,0h0s0,0,0,0h0s0,0,0,0h-.1ZM68,23.3h-.5v.9h.5s0,0,0,0h0s0,0,0,0h0s0,0,0,0c0,0,0,0,0,0h0s0,0,0,0c0,0,.1-.2.1-.3s0-.2,0-.3h0c0,0-.2-.1-.3-.1h0ZM51.6,23.3h-.4v.8h.5s0,0,0,0h0s0,0,0,0h0s0,0,0,0h0s0,0,0,0h0s0,0,0,0c0,0,0,0,0,0,0,0,.2-.2.2-.3s0-.2-.1-.3h0s0,0,0,0h0s0,0,0,0h0s0,0,0,0h0s0,0,0,0h0s0,0,0,0h0s0,0,0,0h0ZM110.5,14.3h0s.2,0,.2,0h0s.2,0,.2,0h0s.1,0,.1,0h0s0,0,0,0h0s0,0,0,0h0s0,0,0,0h0s0,.2,0,.2h0c0,0,0,.2,0,.2h0s0,0,0,0h0s0,0,0,0h0s0,0,0,0h0s0,0,0,0h0s0,0,0,0h0s0,0,0,0h0s0,0,0,0h0s0,0,0,0h0s0,0,0,0h0s0,0,0,0h0s0,0,0,0h0s0,0,0,0h0s0,0,0,0h0s0,0,0,0h0s0,0,0,0h0s0,0,0,0h0s0,0,0,0h0c0,0,0,.1,0,.1h0s.3,0,.3,0h0s.1,0,.1,0h0s.1,0,.1,0h0s.1,0,.1,0h0s.6,0,.6,0h0s0,0,0,0h0s0,0,0,0h0s0,0,0,0h0s0,0,0,0h0s0,0,0,0h0s0,0,0,0h0s0,0,0,0h0c0,0,0,0,0,0v.2h0s0,.1,0,.1h0s0,0,0,0h0s0,0,0,0h0s0,0,0,0h0s0,0,0,0h0s0,0,0,0h0s0,0,0,0h0s0,0,0,0h0s0,0,0,0h0s-.6,0-.6,0h0s0,0,0,0h0s0,0,0,0h0s-.3,0-.3,0h0c0,0,0,.1,0,.1v1s0,0,0,0v.3s0,0,0,0v.3s0,0,0,0v.3s0,0,0,0v.2h0v.2h0c0,.1,0,.1,0,.1h0c0,0,0,.1,0,.1h0c0,0,0,0,0,0h0c0,0,0,.2,0,.2h0c0,0,0,0,0,0h0s0,0,0,0h0s0,0,0,0h0c0,0,0,.1,0,.1h0s0,0,0,0h0s0,0,0,0h0s-.1,0-.1,0h0s-.1,0-.1,0h0s0,0,0,0h0s0,0,0,0h0s0,0,0,0h0s0,0,0,0h0s0,0,0,0h0s0,0,0,0h0s0,0,0,0h0s0,0,0,0h-.1c0,0,0,0,0,0h0s0,0,0,0h0s0,0,0,0h0s-.2-.1-.2-.1h0s0,0,0,0h0c0,0,0,0,0,0h0s0,0,0,0h0c0,0,0,0,0,0h0s0,0,0,0h0s0,0,0,0h0c0,0,0,0,0,0h0s0,0,0,0h0c0,0,0,0,0,0h0c0,0,0,0,0,0h0c0,0,0,0,0,0h0s0,0,0,0h0s.3,0,.3,0h0s.2,0,.2,0h0s.2,0,.2,0h0s.2,0,.2,0c0,0,.3,0,.4,0h0s.1,0,.1,0h0s0,0,0,0h0s0,0,0,0h0s0,0,0,0h0c0,0,0,0,0,0h0s0,0,0,0h0s0,0,0,0h0c0,0,0,0,0,0h0c0,0,0,0,0,0h0c0,0,0,0,0,0h0c0,0,0,0,0,0h0c0,0,0,0,0,0h0c0,0,0-.1,0-.1h0c0-.1,0-.1,0-.1v-.2h0s0-.4,0-.4h0c0,0,0,0,0,0h0s-.2,0-.2,0h0s-.1,0-.1,0h0s0,0,0,0h0s0,0,0,0h0s0,0,0,0h0s-.4,0-.4,0h0s0,0,0,0h-.1v-.2h0s0,0,0,0h0s0,0,0,0h0s0,0,0,0h0s0,0,0,0h0s0,0,0,0h0s0,0,0,0h0c0,0,0,0,0,0h0s0,0,0,0v-.3h0c0,0,0,0,0,0h0c0,0,0,0,0,0h0s0,0,0,0h0s0,0,0,0h0s.8,0,.8,0h0s0,0,0,0h0s0,0,0,0h0s0,0,0,0h0s0,0,0,0h0s0,0,0,0h0c0,0,0,0,0,0h0c0,0,0,0,0,0h0s0,0,0,0h0c0,0,0,0,0,0h0s0,0,0,0h0s0-.1,0-.1h0s0,0,0,0h0s0,0,0,0h0s0,0,0,0h0s0,0,0,0h0s0,0,0,0h0s0,0,0,0h0s0,0,0,0h0c0,0,0,0,0,0v-.2s0,0,0,0h0s-.1,0-.1,0h0c0,0,0,0,0,0h0s0,0,0,0h0s0,0,0,0h0s0,.1,0,.1h0s0,0,0,0h0s0,0,0,0h0s0,0,0,0h0s0,0,0,0h0s-.1,0-.1,0h0s-.3,0-.3,0h0s-.1,0-.1,0h0s0,0,0,0h0s0,0,0,0h0s0,0,0,0h0s0,0,0,0h0s0,0,0,0h0s0,0,0,0h0s0,0,0,0v-.2h0s0,0,0,0h0s0,0,0,0h0s0,0,0,0h0s0,0,0,0h0s0,0,0,0h0s0,0,0,0h0s0,0,0,0h0s0,0,0,0h0s.4,0,.4,0h0s.1,0,.1,0h0s0,0,0,0h0s0,0,0,0h0s0,0,0,0h0s.1,0,.1,0h0s0,0,0,0h0s0,0,0,0h0s.1,0,.1,0h0s.8,0,.8,0h0ZM72.3,10.3h.1s.3,0,.3,0h0s0,0,0,0h0c0,0,0,0,0,0h0s0,0,0,0h0c0,0,0,0,0,0h0c0,0,0,0,0,0v.2h0v.3s0,0,0,0h0c0,.1,0,.2,0,.2v.2h0v.2h0s0,.2,0,.2c0,0,0,.3,0,.4h0s0,0,0,0h.1s0,0,0,0h.7s0,0,0,0h.2s0,0,0,0h.2s0,0,0,0h0s.1,0,.1,0h0s.3,0,.3,0h0s0,0,0,0h0s0,0,0,0h0s0,0,0,0h0s0,0,0,0h0s0,0,0,0h0s0,0,0,0h0s0,0,0,0h0s0,0,0,0h0s0,0,0,0h0c0,0,0,0,0,0v.2h0s0,.2,0,.2h0v.3h0c0,0,0,0,0,0h0s0,0,0,0h0s0,0,0,0h0s0,0,0,0h0s0,0,0,0h0s0,0,0,0h0s0,0,0,0h0s0,0,0,0h0s0,0,0,0h0s0,0,0,0h0s0,0,0,0h0s0,0,0,0h0s0,0,0,0h0s0,0,0,0h0s0,0,0,0h0s0,0,0,0h0s0,0,0,0h0s0,0,0,0h0c0,0,0,0,0,0v.2s0,0,0,0v.4h0c0,0,0,0,0,0h0s0,0,0,0h0c0,0,0,0,0,0h0s0,0,0,0h0c0,0,0,0,0,0h0s0,0,0,0h0s0,0,0,0h0s0,0,0,0h0s0,0,0,0h0s-.7,0-.7,0h0s0,0,0,0h0s0,0,0,0h0c0,0,0,.1,0,.1h0c0,0,0,.1,0,.1v.2s0,0,0,0v.2s0,0,0,0v.2h0s0,.4,0,.4h0s0,.4,0,.4h0v.6h0c0,0,0,0,0,0h0c0,0,0,0,0,0h0c0,.1,0,.1,0,.1v.3h0s0,.4,0,.4h0s0,.3,0,.3h0c0,0,0,0,0,0h0c0,.1,0,.1,0,.1v.7s0,0,0,0v.2s0,0,0,0h0c0,0,0,0,0,0h0s-.2,0-.2,0h0c0,0,0,0,0,0h0c0,0,0,0,0,0v-.7h0v-.8s0,0,0,0v-.3h0v-.3s0,0,0,0v-.3s0,0,0,0v-.4s0,0,0,0v-.3s0,0,0,0v-.4h0s0-.2,0-.2v-.2h0c0,0-.3,0-.3,0h0s0,0,0,0h0s0,0,0,0h0s0,0,0,0h0c0,0,0,0,0,0v.3s0,0,0,0h0c0,.1,0,.1,0,.1h0s0,0,0,0h0s-.3,0-.3,0h0s-.1,0-.1,0h0s0,0,0,0h0s0,0,0,0h0s0,0,0,0h0c0,0,0,0,0,0h0c0,0,0,0,0,0h0c0,0,0,0,0,0h0s0,0,0,0h0s0,0,0,0h0s0,0,0,0h0s0,0,0,0h0c0,0,0,0,0,0h0c0-.1,0-.1,0-.1h0c0-.1,0-.1,0-.1h0c0-.1,0-.1,0-.1v-.2s0,0,0,0v-.4h0c0,0,0-.1,0-.1h0c0,0,0,0,0,0h0c0,0,0-.1,0-.1h0c0-.1,0-.2,0-.2h0c0-.1,0-.2,0-.2v-.2s0,0,0,0v-.5h0v-.2h0s0-.1,0-.1h0s0-.1,0-.1h0s0,0,0,0h0s0,0,0,0h0s0,0,0,0h0s0,0,0,0h0s.1,0,.1,0h.2c0,0,0,0,0,0h0s.3,0,.3,0h0s.1,0,.1,0h0s0,0,0,0h0s0,0,0,0h0s.1,0,.1,0h0s.2,0,.2,0h0s.3,0,.3,0h0s.1,0,.1,0h0s0,0,0,0h0s0,0,0,0h0s0,0,0,0h0c0,0,0,0,0,0h0c0-.1,0-.2,0-.2v-.2s0,0,0,0v-.5s0,0,0,0h0c0-.1,0-.1,0-.1h0v-.4h0c0-.1,0-.1,0-.1h0c0-.1,0-.1,0-.1h0c0,0,0,0,0,0h0s0,0,0,0h0s0,0,0,0h0s.1,0,.1,0h0s0,0,0,0h0ZM54.1,11.2h.1s.3,0,.3,0h0s.2,0,.2,0h0s0,0,0,0h0s0,0,0,0h0s0,0,0,0h0s0,0,0,0h0c0,0,0,0,0,0h0c0,0,0,0,0,0h0c0,0,0,.1,0,.1h0c0,0,0,0,0,0h0c0,0,0,0,0,0h0c0,.1,0,.1,0,.1v.3h0s0,.1,0,.1h0s0,0,0,0h0c0,0,0,0,0,0h0c0,0,0,0,0,0h0c0,0,0,.1,0,.1v.2h0v.3h0c0,.2,0,.3,0,.5v.4c0,.3,0,.7,0,1h0c0,.6,0,1.1.1,1.6v.4c.1.5.2.9.2,1.4h0c0,.1,0,.6,0,.6,0,.1-.2.3-.3.4h0s-.4,0-.4,0c-.7-.4-1.2-1.1-1.4-1.8h0s0-.1,0-.1h0s0-.2,0-.2h0c0,0,0-.1,0-.1h0c0,0,0,0,0,0h.3s.1,0,.1,0h.3s0-.2,0-.3h0c0,0,0-.1,0-.1v-.2s0,0,0,0v-.2s0,0,0,0h0c0-.2,0-.3,0-.3h0s0,0,0,0h0s-.8,0-.8,0h0s-.2,0-.2,0h0s-.1,0-.1,0h0s0,0,0,0h0c0,0,0,0,0,0v.3h0s0,.8,0,.8h0s0,.1,0,.1h0s0,.1,0,.1c0,0,0,0,0,0h0c0,0,0,.1,0,.1h0c0,.1-.2.5-.2.5h0c0,.1,0,.2,0,.2h0c0,0,0,.1,0,.1h0s0,0,0,0c0,0-.1.2-.2.2h0s-.3,0-.3,0h0s0,0,0,0h0c0,0,0,0,0,0h0c0-.1,0-.1,0-.1h0c0-.1,0-.1,0-.1h0c0-.1,0-.1,0-.1h0c0,0,0-.1,0-.1h0c0-.1,0-.1,0-.1v-.2h0s0-.7,0-.7h0v-.2h0c0-.1,0-.2,0-.2h0c0-.1,0-.1,0-.1v-.2h0s0-.3,0-.3c0,0,0,0,0-.1,0,0,0,0,0,0h0c0-.1,0,0,0,0h0s0,0,0,0h0s0,0,0,0h0c0,0,0,0,0,0v.6h0c0,.1,0,.1,0,.1h0c0,0,0,0,0,0h0c0,0,0,0,0,0h0c0,0,0,0,0,0h0c0,0,0,0,0,0h0s-.1,0-.1,0h0s-.1,0-.1,0h0s-.2,0-.2,0h0s-.2,0-.2,0h0s-.2,0-.2,0h0s-.1,0-.1,0h0s-.2,0-.2,0h0s0,0,0,0h0s-.3,0-.3,0h0s0,0,0,0h0s0,0,0,0h0s0,0,0,0h0s-.1,0-.1,0h0c-.2,0-.3-.2-.3-.4v-.2s0,0,0,0c0-.1-.1-.3-.2-.4h0c0,0,0-.1,0-.1h0c0,0,0-.3,0-.3h0v-.6h0s0,0,0,0h0s0,0,0,0h0s0,0,0,0c0,.2-.1.5-.3.8v.2c-.1,0-.2.1-.2.1,0,.1-.1.2-.2.4h0c0,0,0,0,0,0,0,.1,0,.3-.1.4h0c0,.2-.1.4-.1.5h0c0,0,0,0,0,0,0,0,0,0,0,0h0s0,0,0,0h0c0,0-.1.2-.1.2h0c0,0,0,.1,0,.1-.4.4-.8.3-1,0h0c0,0,0,0,0,0h0c0,0,0,0,0,0h0c0,0,0-.1,0-.1h0c0,0,0-.1,0-.1h0c0,0,0,0,0,0h0c0,0,0,0,0,0h0c0,0,0-.1,0-.1h0c0,0,0,0,0,0h0c0,0,0,0,0-.1h0s0-.3,0-.3v-.3h0c0-.1,0-.1,0-.1h0s0,0,0,0h0c0,0,0,0,0,0h0s0,0,0,0h0s0,0,0,0h0s0,0,0,0h0s0,0,0,0h0c0,0,0,0,0-.1h0c0,0,0-.1,0-.1h0c0,0,0,0,0,0h0c0,0,0-.1,0-.1h0c.1-.2.2-.2.3-.3h0c.3-.3.4-.5.4-.7,0,0,0,0,0,0h0c0-.2.1-.2.2-.3h0s.8,0,.8,0h0c.2,0,.3-.1.3-.3h0c0-.1,0-.2,0-.2h0c0,0,0,0,0,0h-.1s0,0,0,0h0c0,0-.1,0-.2,0h0c-.1.1-.3.2-.4.1,0,0-.1,0-.2-.2h0c0,0,0-.1,0-.1h0c0,0,0-.1,0-.1h0c0,0,0,0,0-.1,0-.2,0-.3.3-.4h0s.2,0,.2,0h.1s0,0,0,0h0s0,0,0,0h0s0,0,0,0h0s0,0,0,0c.3,0,.5-.2.5-.3,0,0,0-.3,0-.4h0c0-.1,0-.1,0-.1h0c0,0,0,0,0,0h0c0,0,0,0,0,0h0c0,0,0,0,0,0h0s0,0,0,0h0c0,0,0-.1,0-.1h0c0-.1,0-.2,0-.2h0c0-.1,0-.2,0-.2h0c0,0,0-.1,0-.1h0s0,0,0,0h0s0,0,0,0h0s0,0,0,0h0s0,0,0,0h0s0,0,0,0h0s0,0,0,0h0s0,0,0,0h0s0,0,0,0h0s0,0,0,0h0s0,0,0,0h0s0,0,0,0h0s.4,0,.4,0h0s0,0,0,0h0s0,0,0,0h0s0,0,0,0h0s.2,0,.2,0h0s.1,0,.1,0h0s0,0,0,0h0s0,0,0,0h0c0,0,0,.1,0,.1v.3s0,0,0,0v.4s0,0,0,0h0c0,.1,0,.1,0,.1h0s.3,0,.3,0h0s0,0,0,0h0s0,0,0,0h0s0,0,0,0c0,.5-.2,1-.7,1.2h0s0,0,0,0h-.2c0,0,0,.1,0,.2h0c0,.2,0,.3-.1.4,0,0,0,.2,0,.3h0c0,0,0,0,0,0h0s.1,0,.1,0h0s0,0,0,0h0s0,0,0,0h0s0,0,0,0h0s.4,0,.4,0h0c0,0,.1,0,.2.2h0c0,0,0,.1.1.1h0s0,0,0,0h0s0,0,0,0h0v-.4h0c0,0,0,0,0,0h0c0,0,0,0,0,0h0s0,0,0,0h0c0-.1,0-.1,0-.1h0c0-.1,0-.2,0-.2h0c0,0,0,0,0,0h0s0,0,0,0h0c0,0,0,0,0,0v-.5s0-.1,0-.1v-.4s0,0,0,0h0c0-.1,0-.1,0-.1h0c0-.1,0-.1,0-.1h0c0,0,0,0,0,0h0c0,0,0,0,0,0h0s0,0,0,0h0c0,0,0,0,0,0h0s0,0,0,0h0s0,0,0,0h0s0,0,0,0h0s0,0,0,0h0s0,0,0,0h0s0,0,0,0h0s0,0,0,0h0s0,0,0,0h0s0,0,0,0h0s0,0,0,0h0s0,0,0,0h0s0,0,0,0h0s0,0,0,0h0s0,0,0,0h0s0,0,0,0h0s.9,0,.9,0h0s.1,0,.1,0h0s0,0,0,0ZM92.7,14.6h0s.1,0,.1,0h0s.1,0,.1,0h0s0,0,0,0h0s0,0,0,0h0s0,0,0,0h0s0,0,0,0h0s0,0,0,0h0c0,0,0,0,0,0h0c0,0,0,0,0,0h0c0,.1,0,.1,0,.1h0c0,.1,0,.1,0,.1v.2h0v.2h0v.2h0s0,.1,0,.1h0s0,.1,0,.1h0c0,.1,0,.1,0,.1h0c0,0,0,.1,0,.1v.7h0v.2h0s0,.3,0,.3h0s0,.2,0,.2h0s0,.2,0,.2h0s0,.2,0,.2h0s0,.2,0,.2h0s0,.1,0,.1h0s0,.1,0,.1h0c0,0,0,.1,0,.1h0c0,.1,0,.1,0,.1h0c0,0,0,0,0,0h0s0,0,0,0h0c0,0,0,0,0,0h0s0,0,0,0h0s0,0,0,0h0s0,0,0,0h0s0,.1,0,.1h0s0,0,0,0h0s0,0,0,0h-.1s-.3,0-.3,0h0s-.1,0-.1,0h0s0,0,0,0h0s0,0,0,0h0s0,0,0,0h0s0,0,0,0h0s0,0,0,0h0s-.2-.2-.2-.2h0c0,0,0,0,0,0h0s0,0,0,0h0s0,0,0,0h0s0,0,0,0h0s0,0,0,0h0s0,0,0,0h0s0,0,0,0h0s0,0,0,0h0s0,0,0,0h0s0,0,0,0h0s0,0,0,0h0s0,0,0,0h0s0,0,0,0h0s0,0,0,0h0s0,0,0,0h0s0,0,0,0h0c0-.1,0-.2,0-.2h0s0,0,0,0h0s.3,0,.3,0h0s.1,0,.1,0h0s0,0,0,0h0s.4,0,.4,0h.2s.1,0,.1,0h0s0,0,0,0h0s0,0,0,0h0s0,0,0,0h0s0-.1,0-.1h0c0,0,0-.1,0-.1h0c0,0,0,0,0,0h0c0,0,0,0,0,0v-.3s0-.1,0-.1h0c0,0,0-.1,0-.1h0s0,0,0,0v-.2s0-.8,0-.8h0c0,0,0-.2,0-.2h0c0,0,0-.1,0-.1h0c0,0,0,0,0,0h0s0,0,0,0h0s-.1,0-.1,0h0s-.1,0-.1,0h0s0,0,0,0h0s0,0,0,0v-.6h0s.1,0,.1,0h0s0,0,0,0h0s0,0,0,0h0s0,0,0,0h0s0,0,0,0h0s0,0,0,0h0s0,0,0,0h0s.1,0,.1,0h0s.4,0,.4,0h0ZM78.8,12.4h0s0,0,0,0h0s0,0,0,0h0c0,0,0,0,0,0h0s0,0,0,0h0c0,0,0,0,0,0h0c0,0,0,0,0,0h0c0,0,0,0,0,0h0c0,.1,0,.1,0,.1v.3h0v.4h0s0,1.6,0,1.6h0c0,0,0,.1,0,.1h0s.2,0,.2,0h0s.2,0,.2,0h0s.1,0,.1,0h0s0,0,0,0h0s0,0,0,0h0s.1,0,.1,0h0s.3,0,.3,0h0s.2,0,.2,0h0s0,0,0,0h0s0,0,0,0v2.1h0s0,0,0,0h0s0,0,0,0h0s0,0,0,0h0s0,0,0,0h0s-.1,0-.1,0h0s-.3,0-.3,0h0s-.1,0-.1,0h0s0,0,0,0h0s0,0,0,0h0s0,0,0,0h0c0,0,0,0,0,0v-.2h0c0,0,0,0,0,0h0c0,0,0,0,0,0h0s.1-.2.1-.2h0s0,0,0,0h0s0,0,0,0h0s0,0,0,0h0s0,0,0,0h0s0,0,0,0h0s0,0,0,0h0c0,0,0,0,0,0h0c0,0,0,0,0,0h0s0,0,0,0h0s0,0,0,0h0s0,0,0,0h0s0,0,0,0h0s0,0,0,0h0s0,0,0,0h0s0,0,0,0h0s0,0,0,0h0s0,0,0,0h0s0,0,0,0h0s-.3,0-.3,0h0s-.1,0-.1,0h0s-.1,0-.1,0h0s-.1,0-.1,0c0,0,0,.1,0,.3h0c0,0,0,.3,0,.3h0c0,0,0,.2,0,.2,0,.1,0,.3,0,.3h0v.3h0c0,0,0,0,0,0h.1s0,0,0,0h.4s.2,0,.2,0h.1s.4,0,.4,0h0s.1,0,.1,0h0s0,0,0,0v1h-.1s-.6,0-.6,0h0s-.2,0-.2,0h0s-.1,0-.1,0h0s-.1,0-.1,0h0s-.2,0-.2,0h0s-.2,0-.2,0h0s-.1,0-.1,0h0s-.2,0-.2,0h0s-.3,0-.3,0h-.2c0,0,0,0,0,0h0s0,0,0,0h0s0,0,0,0v-.2c0,0,0-.6,0-.6h0v-.3h0v-.3h0s0-.2,0-.2h0s0-.3,0-.3h0s0-.3,0-.3h0c0-.1,0-.2,0-.2v-.4h0v-1h0s0-.4,0-.4h0s0-1.2,0-1.2h0v-.3h0c0,0,0,0,0,0h0s0,0,0,0h0c0,0,0-.2,0-.2h0v-.2h0s0,0,0,0h0s0,0,0,0h0s.1,0,.1,0h0s.3,0,.3,0h0ZM91.8,9.9h0s0,0,0,0h0s0,0,0,0h0s0,0,0,0h0s0,0,0,0h0s0,0,0,0h0s0,0,0,0h0s0,0,0,0h0s0,0,0,0h0s0,0,0,0h0s0,0,0,0h0c0,0,0,.1,0,.1h0c0,0,0,.1,0,.1v.2h0c0,0,0,0,0,0h0s0,0,0,0h0c0,0,0,0,0,0h0s0,0,0,0h0c0,0,0,0,0,0h0s0,0,0,0v.2h.1s0,0,0,0h0s0,0,0,0h.2s0,0,0,0h0c0,0,0,0,0,0h0s0,0,0,0h0s0,0,0,0h0s0,0,0,0h0s0,0,0,0h0s0,0,0,0h0c0,0,0,0,0,0v.2h0c0,0,0,0,0,0h0s0,0,0,0h0s0,0,0,0h0s0,0,0,0h0s-.1,0-.1,0h0s-.2,0-.2,0h0s-.2,0-.2,0h0s-.2,0-.2,0h0s-.1,0-.1,0h0s0,0,0,0h0s0,0,0,0h0s0,0,0,0h0s0,0,0,0h0s0,0,0,0h0s0,0,0,0h0s0,0,0,0h0s0,0,0,0h0s0,0,0,0h0s0,0,0,0h0s0,0,0,0h0s0,0,0,0h0s0,0,0,0h0s0,0,0,0h0s0,0,0,0h0s0,0,0,0h0s0,0,0,0h0s0,0,0,0h0s0,0,0,0h0s0,0,0,0h0s-.2,0-.2,0h0s0,0,0,0v-.2s0,0,0,0h-.2s-.1,0-.1,0h0s0,0,0,0h0s0,0,0,0h0s0,0,0,0h0s0,0,0,0h0c0,0,0,0,0,0h0c0,.1,0,.1,0,.1h0s0,0,0,0h0s0,0,0,0h0s0,0,0,0h0c0,0,0,.2,0,.2h0s0,0,0,0v.5h0s0,.1,0,.1h0s0,0,0,0h0s0,0,0,0h0s0,0,0,0h0s0,0,0,0h0s0,0,0,0h0s0,0,0,0h0s0,0,0,0h0s0,0,0,0h0s0,0,0,0h0s0,0,0,0h0s0,0,0,0h0s0,0,0,0h0s0,0,0,0h.1s0,0,0,0h.4s0,0,0,0h0s0,0,0,0h0s0,0,0,0v.4h0c0,0,0,0,0,0h0c0,0,0,0,0,0h0s0,0,0,0h0c0,0,0,0,0,0h0s0,0,0,0h0s0,0,0,0h0c0,0,0,0,0,0h.1s0,0,0,0h0s0,0,0,0h0s0,0,0,0h0s0,0,0,0h0c0,0,0,0,0,0h0s0,0,0,0h.1s0,0,0,0v.4h0s0,.1,0,.1h0s0,0,0,0h0c0,0,0,0,0,0h0s0,0,0,0h0s0,0,0,0h0c0,0,0,0,0,0h0s0,0,0,0h0s0,0,0,0h0c0,0,0,0,0,0h0c0,.1,0,.1,0,.1h0c0,.1,0,.1,0,.1h0c0,0,0,.1,0,.1h0c0,0,0,0,0,0h0c0,0,0,0,0,0h0c0,0,0,0,0,0h0s0,0,0,0h0c0,.1,0,.1,0,.1v.2h0c0,.1,0,.2,0,.2h0c0,0,0,0,0,0h0c0,0,0,0,0,0h0s0,0,0,0h0s0,0,0,0h0s0,0,0,0h0s0,0,0,0h0s0,0,0,0h0s0,0,0,0h0s0,0,0,0h0s0,0,0,0h0s0,0,0,0h0s0,0,0,0h0s0,0,0,0h0s-.1,0-.1,0h0s-.2,0-.2,0h0s-.1,0-.1,0h0s-.2,0-.2,0h0s0,0,0,0h0s0,0,0,0h0c0,0,0,0,0,0v-.3h0s0-.2,0-.2h0c0-.1,0-.1,0-.1h0c0-.1,0-.1,0-.1h0c0,0,0-.3,0-.3h0s0,0,0,0h0c0,0,0,0,0,0h0s.2,0,.2,0h0s0,0,0,0h0s0,0,0,0h0s0,0,0,0h0s0,0,0,0h0s0,0,0,0h0s0,0,0,0h0s0,0,0,0h0s0,0,0,0h0s0,0,0,0h0s0,0,0,0h0s0,0,0,0h0s0,0,0,0h0s0,0,0,0h0s0,0,0,0h0s-.1,0-.1,0h0s-.1,0-.1,0h0s0,0,0,0h0s0,0,0,0h0s0,0,0,0h0c0-.1,0-.1,0-.1h0c0,0,0-.1,0-.1h0v-.2h0c0,0,0-.1,0-.1h0s0,0,0,0h0s0-.1,0-.1h0s0,0,0,0h0c0,0,0,0,0,0h0c0-.1-.6-.1-.6-.1h0s0,0,0,0h0s0,0,0,0h0c0-.1,0-.2,0-.2v-.5h0s0,0,0,0h0s0,0,0,0h0c0,0,0,0,0,0h0s0,0,0,0h0s0,0,0,0h0s0-.1,0-.1h0s0,0,0,0h0s0,0,0,0h0s0,0,0,0h0s0,0,0,0h0s0,0,0,0h0s0,0,0,0h0s0,0,0,0h0s0,0,0,0h0s0,0,0,0h0s0,0,0,0h0s0,0,0,0h0c0,0,0,0,0,0h.1c0-.1,0-.1,0-.1h0s0,0,0,0h0s0,0,0,0h0s0,0,0,0h0s0,0,0,0h0s0,0,0,0h0c0,0,0,0,0,0h0c0,0,0,0,0,0,0,0-.1,0-.1,0h0s0,0,0,0h0s0,0,0,0h0s-.1,0-.1,0h0s-.1,0-.1,0h0s-.1,0-.1,0h0s0,0,0,0h0s0,0,0,0h0s0,0,0,0h0s0,0,0,0h0s0,0,0,0h0s0,0,0,0h0s0,0,0,0h0s0,0,0,0h0s0,0,0,0v-.4h0s0-.1,0-.1h0s0,0,0,0h0s0,0,0,0h0s.5,0,.5,0h0s0,0,0,0h0s0,0,0,0h0c0,0,0-.2,0-.2v-.3s0,0,0,0h0c0,0,0-.1,0-.1h0s0,0,0,0h0s0,0,0,0h0v-1.2h0s0,0,0,0h0s0,0,0,0h0s.2,0,.2,0h0s0,0,0,0h0s0,0,0,0h0s0,0,0,0h0s0,0,0,0h0s0,0,0,0h0s0,0,0,0h0s0,0,0,0h0s0,0,0,0h0c0,0,0,0,0,0h0s0,0,0,0h0c0,0,0,0,0,0h0c0,0,0,0,0,0h0c0,0,0,0,0,0v.6h0v.4h0s0,0,0,0h0s.3,0,.3,0h0s.1,0,.1,0h0s0,0,0,0h0s0,0,0,0h0s0,0,0,0h0s0,0,0,0h0s0,0,0,0h0s0,0,0,0h0s0,0,0,0h0s0,0,0,0h0s0-.1,0-.1h0s0,0,0,0h0s0,0,0,0h0c0-.1,0-.2,0-.2h0c0,0,0,0,0,0h0c0,0,0-.1,0-.1h0c0,0,0,0,0,0h0c0,0,0-.1,0-.1h0c0-.1,0-.2,0-.2h0c0-.1,0-.2,0-.2v-.3h0v-.3h0c0,0,0,0,0,0h0s0,0,0,0h0s0,0,0,0h0s0,0,0,0h0s0,0,0,0h0s0,0,0,0h0s0,0,0,0h0ZM99.3,11.5h0s.1,0,.1,0h0s0,0,0,0h0s0,0,0,0h0s0,0,0,0h0s0,0,0,0h0s0,0,0,0h0s0,0,0,0h0s0,0,0,0h0c0,0,0,0,0,0v.2h0s0,0,0,0v.2s0,0,0,0v.2h0c0,.1,0,.1,0,.1v.4s0,0,0,0v.3h0c0,0,.2,0,.3,0h0s0,0,0,0h0s0,0,0,0h0s0,0,0,0h0s0,0,0,0h0s0,0,0,0h0s0,0,0,0h0s0,0,0,0h0s0,0,0,0h0s.3,0,.3,0h0s0,0,0,0h0s0,0,0,0h0s0,0,0,0h0s0,0,0,0l.2.2h0s0,0,0,0h0s0,0,0,0h0s0,0,0,0h0c0,0,0,.1,0,.1v.2h0c0,0,0,.1,0,.1h0s0,0,0,0h0c0,0,0,0,0,0h0s0,0,0,0h0s0,0,0,0h0s0,0,0,0h0s0,0,0,0h0s0,0,0,0h0s0,0,0,0h0s0,0,0,0h0s0,0,0,0h0s0,0,0,0h0s0,0,0,0h0s0,0,0,0h0s0,0,0,0h0s0,0,0,0h0s0,0,0,0h0s0,0,0,0h0s-.1,0-.1,0h0s0,0,0,0h0s0,0,0,0h0s0,0,0,0h0s0,0,0,0h0c0,.1,0,.1,0,.1h0s0,0,0,0h0s0,0,0,0h0s0,0,0,0h0s0,0,0,0h0s0,0,0,0h0s0,0,0,0h0s0,0,0,0h0s0,0,0,0h0c0,0,0,0,0,0h0c0,0,0,0,0,0h0c0,0,0,0,0,0h0c0,0,0,0,0,0h0s0,0,0,0h0s0,0,0,0h0s0,0,0,0h0s0,0,0,0h0s0,0,0,0h0s0,0,0,0h0s0,0,0,0h0s0,0,0,0h0s0,.1,0,.1h0c0,0,0,0,0,0h0s0,0,0,0h0s0,0,0,0h0c0,0,0,0,0,0h0s.2.1.2.1h0s0,0,0,0h0s0,0,0,0h0s0,0,0,0h0s0,0,0,0h0s0,0,0,0h0s0,0,0,0h0s0,0,0,0h0s0,0,0,0h0s0,0,0,0h0s0,0,0,0h0s0,0,0,0h0s0,0,0,0h0s0,.1,0,.1h0c0,0,0,0,0,0h.1c0,.1,0,.1,0,.1h0s0,0,0,0h0s0,0,0,0h0s0,0,0,0h0s0,0,0,0h0v.3h0s0,.1,0,.1h0s0,0,0,0h0s0,0,0,0h0s-.3,0-.3,0h0s-.7,0-.7,0h0s-.4,0-.4,0h0s-.1,0-.1,0h0s-.4,0-.4,0h0s0,0,0,0h0s0,0,0,0h0s0,0,0,0h0s0,0,0,0h0s0,0,0,0h0s0,0,0,0h0s0,0,0,0h0s0,0,0,0h0s0,0,0,0h0s0,0,0,0h0c0,0,0,0,0,0h0c0,0,0,0,0,0h0c0,0,0,0,0,0h0c0,0,0,0,0,0h0c0,0,0,0,0,0h0s0,0,0,0h0s0,0,0,0h0s0,0,0,0h0s0,0,0,0h0s0,0,0,0h0s0,0,0,0h0s0,0,0,0h0c0-.1,0-.1,0-.1h0c0,0,0,0,0,0h0s0,0,0,0h0s0,0,0,0h0s0,0,0,0h0c0,0,0,0,0,0h0s0,0,0,0h0s0,0,0,0h0c0,0,0,0,0,0h0s0,0,0,0h0c0,0,0,0,0,0h0c0,0,0,0,0,0h0c0,0,0-.1,0-.1h0s0,0,0,0h0s0,0,0,0h0s0,0,0,0c0,0,0,0-.1,0h0s0,0,0,0h0c0,0,0,0,0,0h0c0,0,0,0,0,0h0s0,0,0,0h0s0,0,0,0h0s0,0,0,0h0c0,0,0,0,0,0h0s0,0,0,0h0s0,0,0,0h0s0,0,0,0h0s0,0,0,0h0s0,0,0,0h0s0,0,0,0h0s0,0,0,0h0s0,0,0,0h0c0,0,0,0,0,0h0s0,0,0,0h0s0,0,0,0h0s0,0,0,0h0s0,0,0,0h0s0,0,0,0h0s0,0,0,0h0s0,0,0,0h0s0,0,0,0h0s0,0,0,0h0s0,0,0,0h0s-.1,0-.1,0h0s0,0,0,0h0s0,0,0,0h0s-.1,0-.1,0h0s0,0,0,0h0s0,0,0,0h0s0,0,0,0h0s0,0,0,0h0s0,0,0,0h0s0,0,0,0h0s-.1,0-.1,0h0s-.2,0-.2,0h0s-.6,0-.6,0h0s0,0,0,0h0v-.2h0s0,0,0,0h0s0-.1,0-.1h0s0,0,0,0h0c0,0,0-.1,0-.1h0s0,0,0,0h0s0,0,0,0h0s0,0,0,0h0s0,0,0,0h0s0,0,0,0h0s0,0,0,0h0s0,0,0,0h0s0,0,0,0h0c0,0,0-.1,0-.1h0s0,0,0,0h0s0,0,0,0h0s.2-.3.2-.3h0s0,0,0,0h0s0,0,0,0h0s0,0,0,0h0s0,0,0,0h0c0,0,0-.1,0-.1h0c0,0,0-.1,0-.1h0c0,0,0-.1,0-.1h0c0,0,0,0,0,0h0c0,0,0,0,0,0h0c0,0,0-.2,0-.2h0c0,0,0-.1,0-.1h0s0,0,0,0h0c0,0-.1,0-.1,0h0s-.1,0-.1,0h0s-.2,0-.2,0h0s-.2,0-.2,0h0s-.2,0-.2,0h0s0,0,0,0h0s0,0,0,0h0s0,0,0,0h0s0,0,0,0h0s0,0,0,0h0s0,0,0,0h0s0,0,0,0h0c0,0,0-.1,0-.1h0s0-.1,0-.1h0c0-.1,0-.2,0-.2h0s0,0,0,0h0c0,0,.8,0,.8,0h0s.1,0,.1,0h0s.2,0,.2,0h0s.1,0,.1,0h0s.1,0,.1,0h0s0,0,0,0h0s0,0,0,0h0c0,0,0-.2,0-.2v-1.1h0v-.2h0c0,0,0-.2,0-.2h0s0-.1,0-.1v-.2h0s0-.1,0-.1h0s0,0,0,0h0s0,0,0,0h0s0,0,0,0h.1s.4,0,.4,0h0ZM81.4,12.8h0s0,0,0,0h0c0,0,0,0,0,0v.2h0c0,0,0,0,0,0h0s0,0,0,0h0s0,0,0,0h0s0,0,0,0h0s0,0,0,0h0s0,0,0,0h0s0,0,0,0h0c0,0,0,0,0,0h0s0,0,0,0h0s0,0,0,0h0s0,0,0,0h.3s0,0,0,0h0s0,0,0,0h0s0,0,0,0h0s0,0,0,0h0s0,0,0,0h0s0,0,0,0h0s0,0,0,0h0s0,0,0,0h0s0,0,0,0h0s0,0,0,0h0s0,0,0,0h0s0,0,0,0h0s.1,0,.1,0h0s.2,0,.2,0h0s0,0,0,0h0s0,0,0,0h0s0,0,0,0h0s0,0,0,0h0s0,0,0,0h0s0,0,0,0h0s0,0,0,0h0c0,0,0,0,0,0h0c0,0,0,0,0,0v.2h0c0,0,0,0,0,0h0s0,0,0,0h0s0,0,0,0h0s0,0,0,0h0s-.1,0-.1,0h0s-.1,0-.1,0h0s0,0,0,0h0s0,0,0,0h0s0,0,0,0h0s0,0,0,0h0s0,0,0,0h0c0,0,0,.2,0,.2h0s0,0,0,0h0s0,0,0,0h0s0,0,0,0h0s.1,0,.1,0h0s.1,0,.1,0h0s.2,0,.2,0h0s.2,0,.2,0h0s.1,0,.1,0h0c0,0,0,0,0,0h0s0,0,0,0h0s0,0,0,0h0s0,0,0,0h0s0,0,0,0h0c0,0,0,0,0,0v.3h0c0,0,0,.1,0,.1h0s0,0,0,0h0s0,0,0,0h0s0,0,0,0h0s-.1,0-.1,0h0s-.1,0-.1,0h0s-.2,0-.2,0h0s-.5,0-.5,0h0s0,0,0,0h0s-.1,0-.1,0h0s0,0,0,0h0s0,0,0,0h0s0,0,0,0h0s0,0,0,0h0s.5,0,.5,0h.1s.2,0,.2,0h0c0,0,0,0,0,0h0s0,0,0,0h0c0,0,0,0,0,0h0s0,0,0,0h0c0,0,0,0,0,0h0s0,0,0,0h0c0,0,0,0,0,0v.2s0,0,0,0v.5h0s0,0,0,0h0c0,0,0,0,0,0h0s0,0,0,0h0c0,.1,0,.1,0,.1h.3s0,0,0,0h0s0,0,0,0h0c0,0,0,0,0,0h0s0,0,0,0h0s0,0,0,0h0s0,0,0,0h0s0,0,0,0h0s0,.1,0,.1h0s0,.2,0,.2h0s0,.2,0,.2h0v.3h0c0,0,0,0,0,0h0s-.1,0-.1,0h0s-.3,0-.3,0h0s-.2,0-.2,0h0s-1,0-1,0h0s0,0,0,0h0s-.4,0-.4,0h0s0,0,0,0h0s-.4,0-.4,0h0c0,0-.8,0-.8,0v-1h0s.2,0,.2,0h.5s0,0,0,0h.1s0,0,0,0h0s0,0,0,0h0s0,0,0,0h.2s0,0,0,0h.1s0,0,0,0h0c0,0,0,0,0,0h0s0,0,0,0h0s0,0,0,0h0s0,0,0,0h0s0,0,0,0h0s0,0,0,0h0s0,0,0,0h0s0,0,0,0h0s0,0,0,0h0s0,0,0,0h0s0,0,0,0h0s0,0,0,0h0s0,0,0,0h0s0,0,0,0h0s-.1,0-.1,0h0s0,0,0,0h0s0,0,0,0h0s0,0,0,0h0s0,0,0,0h0s0,0,0,0h0s0,0,0,0h0c0,0,0,0,0,0h0s0,0,0,0h0s0,0,0,0h0s0,0,0,0h0s0,0,0,0v-2.1h0c0,0,0,0,0,0v-.2s0,0,0,0h0s0,0,0,0h-.2s0,0,0,0h0s0,0,0,0h0s0,0,0,0h0s-.1,0-.1,0h0s0,0,0,0h0s-.2,0-.2,0h0s0,0,0,0h0s0,0,0,0h-.1c0-.1,0-.2,0-.2h0c0,0,0,0,0,0h0c0,0,0,0,0,0v-.4h0s0-.1,0-.1h0c0,0,0,0,0,0h0s0,0,0,0h0c0,0,0,0,0,0h0s0,0,0,0h0s0,0,0,0h0c0,0,0,0,0,0h0s0,0,0,0h0s0,0,0,0h0s0,0,0,0h0s0,0,0,0h0s0,0,0,0h0s.1-.2.1-.2h0c0,0,0,0,0,0h0c0,0,0,0,0,0h0s0,0,0,0h0s0,0,0,0h0s.1,0,.1,0h0s.5,0,.5,0h0ZM61.4,12.2h0s.1,0,.1,0h0s0,0,0,0h0s0,0,0,0h0s0,0,0,0h0s0,0,0,0h0s0,0,0,0h0c0,0,0,0,0,0v.5h0c0,0,0,0,0,0h0c0,0,0,0,0,0h0s0,0,0,0h0c0,0,0,0,0,0h0c0,0,0,0,0,0v.2h0v.4h0s0,.4,0,.4c0,0,0,.2,0,.3h0c0,0,0,.3,0,.3h0c0,0,0,.2,0,.2h0c0,.2,0,.3,0,.4h0s0,0,0,0c0,0,.2.4,0,.5,0,.1-.2.4-.2.5,0,.2-.2.3-.3.5h0c-.5.7-1.2,1.3-1.7,1.3h0s0,0,0,0c0,0,0-.1-.2-.2h0c0,0-.1-.1-.1-.1h0c-.1-.2-.2-.3-.3-.4h0v-.3s0,0,0,0h0c.1-.2.3-.3.5-.4l.3-.2c.2-.1.4-.3.6-.5h0c0,0,0-.1,0-.1h0s0-.1,0-.1c0,0,.2-.2.2-.2h0s0,0,0,0v-.2s0-.2,0-.2c0,0,0,0,0,0h0s-.2.2-.2.2h0c0,.1-.1.2-.2.2-.3,0-.7-.2-.9-.4h0c0,0,0,0,0-.1h0c0,0,0,0,0,0h0s0-.1,0-.1h0c0,0,0,0,0,0,0,0,0,0,0,0,0-.5.2-.6.5-.7h0s0,0,0,0h0s.2,0,.2,0h0s0,0,0,0h0c0,0,.1,0,.2,0h0s.1,0,.1,0h0s.1,0,.1,0h0s0,0,0,0h0c0,0,0-.3,0-.4h0c0-.1,0-.1,0-.1h0c0,0,0,0,0,0h0c0,0,0,0,0,0h0s0,0,0,0h0c0,0,0,0,0,0h0s0,0,0,0h0s0,0,0,0h0c0,0,0,0,0,0h0s0,0,0,0h0s0,0,0,0h0s0,0,0,0v-.2h0s0-.1,0-.1h0s0,0,0,0h0s0,0,0,0h0s0,0,0,0h0s0,0,0,0h0s0,0,0,0h0s0,0,0,0h0s.1,0,.1,0h0s.3,0,.3,0h.2s.3,0,.3,0h0s.1,0,.1,0h0ZM64.7,11.2h0s.1,0,.1,0h0s0,0,0,0h0s0,0,0,0h0s0,0,0,0h0s0,0,0,0h0c0,0,0,0,0,0v.2s0,0,0,0v.3h0s0,.3,0,.3h0s0,.2,0,.2h0v.2h0c0,.1,0,.2,0,.2,0,0,.1,0,.1,0h0s0,0,0,0h0s0,0,0,0h0s.2,0,.2,0h.2c0,0,0,0,0,0h0s0,0,0,0h0s0,0,0,0h0c0,0,0,.1,0,.1v.4h0c0,0,0,0,0,0h0s0,0,0,0h0s0,0,0,0h0s0,0,0,0h0s0,0,0,0h0s0,0,0,0h0s0,0,0,0h0s0,0,0,0h0s0,0,0,0h0s0,0,0,0h0s0,0,0,0h0s0,0,0,0h0s0,0,0,0h0s0,0,0,0h0s-.1,0-.1,0h0s0,0,0,0h0s0,0,0,0h0s0,0,0,0h0c0,0,0,.1,0,.1h0c0,0,0,0,0,0h0c0,0,0,.1,0,.1v.2s0,0,0,0v.5h0v.6h0c0,.1,0,.1,0,.1h0s.8,0,.8,0h0s.2,0,.2,0h0s0,0,0,0h.2c0,.1,0,.1,0,.1h0s0,0,0,0h0s0,0,0,0h0c0,0,0,0,0,0h0s0,0,0,0h0c0,0,0,.1,0,.1v.5h0c0,0,0,0,0,0h0s0,0,0,0h0s0,.1,0,.1h0s0,0,0,0h0s0,0,0,0h0s0,0,0,0h0s0,0,0,0h0s0,0,0,0h0s-.1,0-.1,0h0s-.1,0-.1,0h0s-.1,0-.1,0h0s-.3,0-.3,0h0s-.7,0-.7,0h0s0,0,0,0h0c0-.1,0-.1,0-.1h0c0,0,0,0,0,0h0c0,0,0,0,0,0h0s0,0,0,0h0s0,0,0,0h0c0,0,0,0,0,0h0s-.1,0-.1,0h0s0,0,0,0h0s0,0,0,0h0s0,0,0,0h0c0,0,0,0,0,0v-.5s0,0,0,0v-.2s0,0,0,0v-.8h0v-.7s0-.2,0-.2h0s0,0,0,0h0c0,0,0,0,0,0h0s0,0,0,0h0s0,0,0,0h0c0,0,0,0,0,0h0s0,0,0,0h0s0,0,0,0h0s0,0,0,0h0s0,0,0,0h0s0,0,0,0h0s0,0,0,0h0s0,0,0,0h0c0,0,0,0,0,0v-1.1s0,0,0,0v-.3h0c0,0,0,0,0,0h0s0,0,0,0v-.3h0c0,0,0,0,0,0h0s0,0,0,0h0s0,0,0,0h0s0,0,0,0h0s0,0,0,0h0s0,0,0,0h0s0,0,0,0h0s0,0,0,0h0s0,0,0,0h0s0,0,0,0h0s0,0,0,0h0s0,0,0,0h0s0,0,0,0h0s0,0,0,0h0s.5,0,.5,0h0ZM91.1,13.7h.4s0,0,0,0h0v.7h0c0,0,0,0,0,0h0c0,0,0,0,0,0v.2s0,0,0,0h0s0,0,0,0v.6h0s0,0,0,0h0s0,0,0,0h-.1s0,0,0,0h-.2s0,0,0,0h0s0,0,0,0h0c0,0,0,0,0,0h0s0,0,0,0h0s.1,0,.1,0h0s0,0,0,0h0s0,0,0,0h0s0,0,0,0h0s0,0,0,0v.9h0s0,0,0,0h0s0,0,0,0h0s0,0,0,0h0s-.4,0-.4,0h0s0,0,0,0h0c0,0,0-.2,0-.2h0v-.2h0c0,0,0-.1,0-.1h0s0,0,0,0h0s0,0,0,0h0c0,0,0-.2,0-.2h0v-.2h0s0-.1,0-.1h0s0-.1,0-.1h0s0,0,0,0h0s0,0,0,0h0s0,0,0,0h0s0,0,0,0h0s0,0,0,0h0s0,0,0,0h0c0,0,0,0,0,0h0v-.2h0c0,0,0-.1,0-.1h0s0,0,0,0h0s0,0,0,0h0c0,0,0-.1,0-.1h0c0,0,0,0,0,0h0c0,0,0-.1,0-.1h0c0-.1,0-.2,0-.2v-.2s0,0,0,0v-.2s0,0,0,0h0c0,0,0-.1,0-.1h0c0,0,0,0,0,0h0s0,0,0,0h0s0,0,0,0h0s0,0,0,0h0s0,0,0,0h0,0ZM91.6,16.2h0s0,0,0,0h0c0,0,0,0,0,0v.2s0,0,0,0v.3h0c0,0,0,0,0,0h0s0,0,0,0h0s0,0,0,0v-.9h0,0ZM50.2,16.1c0-.2,0-.2-.2-.1,0,0,0,0-.1,0h0c-.1,0-.2.2-.2.3h0s0,0,0,0c0,0,0,0,0,0h0s0,0,0,0c0,0,0,.1,0,.3h0c0,0,0,0,0,0,0,0,0,0,0,0h0c0,0,0,0,.1,0h0s0,0,0,0h0c0,0,.2-.2.2-.3h0c0,0,0-.2,0-.2,0,0,0,0,0,0h0s0,0,0,0ZM111.4,9.7h.3s0,0,0,0h.1s0,0,0,0h0c0,0,0,0,0,0h0s0,0,0,0h0s0,0,0,0h0s0,0,0,0h0c0,.1,0,.1,0,.1h0s0,0,0,0h0c0,0,0,.1,0,.1v.5h0c0,0,0,0,0,0h0s0,0,0,0h0s0,0,0,0h0s0,0,0,0h0s0,0,0,0h0s0,0,0,0h0s0,0,0,0h0s0,0,0,0h0s0,0,0,0h0s0,0,0,0h0c0,0,0,0,0,0h0s0,0,0,0h0s0,0,0,0h0s0,0,0,0h0s0,0,0,0h0s0,0,0,0h0s0,0,0,0h0s0,0,0,0h0s0,0,0,0h0s0,0,0,0h0s0,0,0,0h0s0,0,0,0h0c0,0,0,0,0,0h0s0,0,0,0h0s0,0,0,0h0s0,0,0,0h0s0,0,0,0h0s0,0,0,0h0s0,0,0,0h0s0,0,0,0h0s0,0,0,0h0s0,0,0,0h0s0,0,0,0c0,0,.2,0,.2,0h0s0,0,0,0h.1s0,0,0,0h0s.4,0,.4,0h0s.1,0,.1,0h0s.2,0,.2,0h0s.3,0,.3,0h0s.2,0,.2,0h0s.2,0,.2,0h0s0,0,0,0h0s0,0,0,0h0s0,0,0,0h0s0,0,0,0h0s0,0,0,0h0s0,0,0,0h0s0,0,0,0h0s0,0,0,0h0s0,0,0,0h0s0,0,0,0h0s0,0,0,0h0s0,0,0,0h0s0,0,0,0h0s0,0,0,0h0s0,0,0,0h0s0,0,0,0h0v.3h0c0,0,0,.1,0,.1h0c0,0,0,0,0,0h0s0,0,0,0h0s0,0,0,0h0s0,0,0,0h0s0,0,0,0h0s0,0,0,0h0s0,0,0,0h0s-.1,0-.1,0h0s-.1,0-.1,0h0s-.1,0-.1,0h0s-.2,0-.2,0h0s-.2,0-.2,0h0s-.2,0-.2,0h0s-.2,0-.2,0h0s-.2,0-.2,0h0s-.2,0-.2,0h0s-.8,0-.8,0v-.2h0c0,0,0,0,0,0h0s0,0,0,0h0s0,0,0,0h0s0,0,0,0h0s0,0,0,0h0s0,0,0,0h0s0,0,0,0h0s0,0,0,0h0s0,0,0,0h0s0,0,0,0h0s0,0,0,0h0c0-.1,0-.2,0-.2h0s-.5,0-.5,0h0s-.2,0-.2,0h0s-.2,0-.2,0h0s-.1,0-.1,0h0s-.1,0-.1,0h0s0,0,0,0h0s0,0,0,0h0s0,0,0,0h0s-.2,0-.2,0h0s-.1,0-.1,0h0s-.2,0-.2,0h0s-.2,0-.2,0h0s-.1,0-.1,0h0s-.2,0-.2,0h0s-.1,0-.1,0h0s-.1,0-.1,0h0s-.1,0-.1,0h0s0,0,0,0h0s0,0,0,0h0s0,0,0,0h0s0,0,0,0h0s0,0,0,0h0s0,0,0,0h0s0,0,0,0h0s-.1,0-.1,0h0s-.1,0-.1,0h0s0,0,0,0h0s-.1,0-.1,0h0s-.1,0-.1,0h0s-.2,0-.2,0h0s-.1,0-.1,0h0s0,0,0,0h0s0,0,0,0h0s0,0,0,0h0s0,.1,0,.1h0s0,.1,0,.1h0c0,0,0,0,0,0h0v.2h0v.2h0c0,0,0,.1,0,.1h0s0,0,0,0h0s0,0,0,0h0s0,0,0,0h0s0,0,0,0h0s-.2,0-.2,0h0s-.3,0-.3,0h0s-.1,0-.1,0h0s0,0,0,0h0s0,0,0,0h0s0,0,0,0h0s0,0,0,0h0s0,0,0,0h0s0,0,0,0h0c0,0,0,0,0,0h0c0-.1,0-.1,0-.1h0c0,0,0,0,0,0h0c0,0,0-.1,0-.1h0c0-.1,0-.1,0-.1h0c0,0,0-.1,0-.1v-.4h0c0-.1,0-.1,0-.1h0c0-.1,0-.1,0-.1h0c0,0,0,0,0,0h0c0,0,0,0,0,0h0c0,0,0-.1,0-.1h0c0,0,0-.1,0-.1h0c0,0,0,0,0,0h0s0,0,0,0h0c0,0,0,0,0,0h0c0,0,0,0,0,0h0c0,0,0,0,0,0h0s0,0,0,0h0c0,0,0,0,0,0h0s0,0,0,0h0c0,0,0,0,0,0h0s0,0,0,0h0s0,0,0,0h0s.4.5.4.5h0c0,0,0,.2,0,.2h0s0,0,0,0h0s.2,0,.2,0h0s.1,0,.1,0h0s.1,0,.1,0h0s.1,0,.1,0h0s0,0,0,0h0s.1,0,.1,0h0s.1,0,.1,0h0s.1,0,.1,0h0s.2,0,.2,0h0s.2,0,.2,0h0s.2,0,.2,0h0s.2,0,.2,0h0s.1,0,.1,0h0s.1,0,.1,0h0s.1,0,.1,0h0s0,0,0,0h0s0,0,0,0h0s0,0,0,0h0c0-.1,0-.3,0-.3h0s0,0,0,0h0s-.2,0-.2,0h0s-.2,0-.2,0h0s0,0,0,0h0c0,0,0,0,0,0h0c0,0,0,0,0,0h0c0-.1,0-.1,0-.1h0c0-.1,0-.1,0-.1h0s0,0,0,0h0c0,0,0,0,0,0h0s0,0,0,0h0s0,0,0,0h0s0,0,0,0h0c0,0,0,0,0,0h0c0,0,0,0,0,0v-.5h0v-.3h0c0-.1,0-.1,0-.1h0s0,0,0,0h0s0,0,0,0h0s.2,0,.2,0h0s.2,0,.2,0h0s.1,0,.1,0h0s.1,0,.1,0h0s.1,0,.1,0h0s0,0,0,0h0s.1,0,.1,0h0s0,0,0,0h0s0,0,0,0h0s0,0,0,0h0s0,0,0,0h0v.2h0c0,0,0,.2,0,.2h0s0,.1,0,.1h0s0,.1,0,.1h0s0,.1,0,.1h0s0,.1,0,.1h0s0,.1,0,.1h0v.2h0s0,0,0,0h0s0,0,0,0h0s0,0,0,0h0s0,0,0,0h0s0,0,0,0h0s0,0,0,0h0s0,0,0,0h0s0,0,0,0h0c0,0,0,0,0,0h0s0,0,0,0h0s0,0,0,0h0c0,0,0,0,0,0h0c0,0,0-.1,0-.1h0c0-.1,0-.1,0-.1h0c0-.1,0-.1,0-.1h0c0,0,0,0,0,0h0c0,0,0,0,0,0h0c0,0,0,0,0,0h0c0-.1,0-.3,0-.3h0c0-.1,0-.1,0-.1h0s0,0,0,0h0c0,0,0,0,0,0v-.2h0s0,0,0,0h0s0,0,0,0h0s0,0,0,0h0s0,0,0,0h0s0,0,0,0h0s.3,0,.3,0h.2ZM46.5,13.7h.3s0,0,0,0c.2,0,.3.2.3.4h0s0,0,0,0c0,.2,0,.4,0,.6h0c0,.1,0,.3,0,.3h0c0,.1,0,.2,0,.2,0,0,0,.1,0,.2h0c0,.1-.2.1-.3.2h0s0,0,0,0h0s0,0,0,0h0c-.3,0-.5,0-.6-.4h0s0,0,0,0h0s0,0,0,0h0c0-.1,0-.2,0-.2h0c0,0,0-.1,0-.1h0s0,0,0,0h0c0,0,0-.2,0-.2,0-.1,0-.2,0-.3h0c0-.1,0-.2,0-.2,0-.2.2-.3.4-.3h0s0,0,0,0h0c.1,0,.2,0,.3,0h0s0,0,0,0ZM53.5,12.6h0s-.4,0-.4,0h0s0,0,0,0h0s0,0,0,0h0c-.2,0-.5.4-.5.5h0s0,0,0,0h0c0,0,0,0,0,0h0s0,0,0,0h0c0,0,.4,0,.4,0h.3c0,0,0,0,0,0h0c0,.1,0,.1,0,.1h0c0,0,0,0,0,0h0c0,.1,0,.2,0,.2v.4h0c0,.1,0,.1,0,.1h0c0,0,0,0,0,0h0s0,0,0,0h0s0,0,0,0h0s-.1,0-.1,0h0s-.1,0-.1,0h0s-.1,0-.1,0h0s0,0,0,0h0s0,0,0,0v.2h0s.8,0,.8,0h0s0,0,0,0h0s0,0,0,0h0c0,0,0-.1,0-.1v-.2s0,0,0,0v-1h0s0-.4,0-.4h0c0-.1,0-.2,0-.2v-.4s0,0,0,0h0s0,0,0,0h0ZM71.7,13.5h0s0,0,0,0h0s-.1,0-.1,0h0s-.1,0-.1,0h0s-.1,0-.1,0h0s-.1,0-.1,0h0s0,0,0,0h0s0,0,0,0h0s0,0,0,0h0s0,0,0,0h0s0,0,0,0h0s0,0,0,0v.2h0v.3h0v.3h0c0,0,0,0,0,0h0s0,0,0,0h0s.2,0,.2,0h0s0,0,0,0h0s0,0,0,0h0s0,0,0,0h0s0,0,0,0h0s0,0,0,0h0s0,0,0,0h0s0,0,0,0h0s0,0,0,0h0c0,0,0,0,0,0h0c0-.1,0-.2,0-.2h0c0-.1,0-.2,0-.2v-.3s0,0,0,0v-.3s0,0,0,0h0s0,0,0,0ZM91.5,13.7h0c0,0,0,0,0,0h0c0,0,0,0,0,0v.2h0s0,.1,0,.1h0c0,0,0,0,0,0h0c0,.1,0,.1,0,.1v-.7h0ZM73.9,13.1h0s-.3,0-.3,0h0s-.2,0-.2,0h0s0,0,0,0h0s0,0,0,0h0s0,0,0,0h0s0,0,0,0h0s0,0,0,0h0c0,0,0,0,0,0h0c0,.1,0,.1,0,.1v.2s0,0,0,0h0s0,0,0,0h0s0,0,0,0c0,0,.2,0,.2,0h0s0,0,0,0h0s0,0,0,0h0s0,0,0,0h0s0,0,0,0h0s0,0,0,0h0s0,0,0,0h0s0,0,0,0h0s0,0,0,0h0s0,0,0,0h0s0,0,0,0h0s0,0,0,0h0s0,0,0,0h0s0,0,0,0h0c0,0,0,0,0,0h0s0,0,0,0ZM47.1,11s0,0,.1,0h0c.5,0,.9.8.9,1.3h0c0,.1,0,.2,0,.2,0,.4-.2.7-.5.8h0c-.2,0-.4,0-.6-.1-.6-.3-1.2-1-1.2-1.7.1-.1.6-.5,1.1-.5h0,0ZM107.2,10.8h0s0,0,0,0h0s0,0,0,0h0s0,0,0,0h0s0,0,0,0h0c0,0,0,.1,0,.1h0c0,0,0,0,0,0h0c0,0,0,.1,0,.1h0c0,0,0,0,0,0h0s0,0,0,0h0c0,0,0,0,0,0h0s0,0,0,0h0s0,0,0,0h0s0,0,0,0h0s0,0,0,0h0s0,0,0,0h0s0,0,0,0h0c0,0,0,.2,0,.2h0v.4h0c0,0,0,.2,0,.2h0s0,.1,0,.1h0c0,0,0,0,0,0h0s0,.1,0,.1h0s0,0,0,0h0s0,0,0,0h0s0,0,0,0h0s-.2,0-.2,0h0s0,0,0,0h0s-.1,0-.1,0h0s0,0,0,0h0s0,0,0,0h0c0,0,0,0,0,0h0s0,0,0,0h0s0,0,0,0h0s0,0,0,0h0s0,0,0,0h0s0,0,0,0h0s0,0,0,0h0s0,0,0,0h0s0,0,0,0h0s0,0,0,0h0s0,0,0,0h0s0,0,0,0v-.7s0,0,0,0v-.4h0s0-.2,0-.2h0c0,0,0,0,0,0h0c0,0,0,0,0,0h0s0,0,0,0h0s0,0,0,0h0s0,0,0,0h0s0,0,0,0h0s0,0,0,0h0s.3,0,.3,0h0ZM83.2,11.1h.3c0,0,0,0,0,0h0s0,0,0,0h0s0,0,0,0h0s0,0,0,0h0s0,0,0,0h0s0,0,0,0h0s0,0,0,0h0c0,0,0,0,0,0h0c0,.1,0,.1,0,.1h0c0,0,0,0,0,0h0s0,0,0,0h0s0,0,0,0h0s0,0,0,0h0s-.1,0-.1,0h0s-.1,0-.1,0h0s-.2,0-.2,0h0s-.1,0-.1,0h0s-.2,0-.2,0h0s-.2,0-.2,0h0s-.2,0-.2,0h0s-.2,0-.2,0h0s-.3,0-.3,0h0s-.2,0-.2,0h0s-.2,0-.2,0h0s-.4,0-.4,0h0s-.4,0-.4,0h0s0,0,0,0h0s-.1,0-.1,0h0s-.4,0-.4,0h0s0,0,0,0h0s0,0,0,0h0s0,0,0,0h0s0,0,0,0h0s0,0,0,0h0s0,0,0,0h0s0,0,0,0h0s0,0,0,0h0s0,0,0,0h0s0,0,0,0h0s0,0,0,0h0s0,0,0,0v-.2h0s0,0,0,0h0s0,0,0,0h0s0,0,0,0h0s0,0,0,0h0s0,0,0,0h0s.1,0,.1,0h0s.7,0,.7,0h0s.2,0,.2,0h0s.3,0,.3,0h.5s0,0,0,0h.4s0,0,0,0h.2s0,0,0,0h.1s.1,0,.1,0h0s0,0,0,0h0s.1,0,.1,0h0s.1,0,.1,0h0s.1,0,.1,0h0s0,0,0,0h0s.1,0,.1,0h0,0Z"/>
      </g>
    </g>
  </g>
</svg>