<svg width="128" height="137" fill="none" xmlns="http://www.w3.org/2000/svg"><g filter="url(#a)" fill="#B00002"><path d="M44.65 47.107V77.31h38.508V47.107H44.65ZM82.819 77.11H45.06V47.583h37.758V77.11Z"/><path d="M44.994 48.586H82.8v.308H44.994v-.308ZM44.944 48.074h37.809v.309H44.944v-.309ZM44.889 52.054h37.809v.304h-37.81v-.304ZM44.889 51.542h37.809v.309h-37.81v-.309ZM44.944 55.574h6.529v.304h-6.529v-.304ZM44.944 55.066h6.529v.304h-6.529v-.304ZM44.944 58.486h6.529v.308h-6.529v-.308ZM44.944 57.974h6.529v.308h-6.529v-.308ZM44.944 61.544h6.529v.304h-6.529v-.304ZM44.944 61.034h6.529v.308h-6.529v-.308ZM44.944 64.76h6.529v.305h-6.529v-.305ZM44.944 64.249h6.529v.308h-6.529v-.308ZM44.944 67.719h6.529v.308h-6.529v-.308ZM44.944 67.211h6.529v.304h-6.529v-.304ZM44.944 70.882h6.529v.308h-6.529v-.308ZM44.944 70.37h6.529v.309h-6.529v-.308ZM44.944 74.043h6.529v.305h-6.529v-.305ZM44.944 73.532h6.529v.304h-6.529v-.304ZM76.219 55.574h6.528v.304H76.22v-.304ZM76.219 55.066h6.528v.304H76.22v-.304ZM76.219 58.486h6.528v.308H76.22v-.308ZM76.219 57.974h6.528v.308H76.22v-.308ZM76.219 61.544h6.528v.304H76.22v-.304ZM76.219 61.034h6.528v.308H76.22v-.308ZM76.219 64.76h6.528v.305H76.22v-.305ZM76.219 64.249h6.528v.308H76.22v-.308ZM76.219 67.719h6.528v.308H76.22v-.308ZM76.219 67.211h6.528v.304H76.22v-.304ZM76.219 70.882h6.528v.308H76.22v-.308ZM76.219 70.37h6.528v.309H76.22v-.308ZM76.219 74.043h6.528v.305H76.22v-.305ZM76.219 73.532h6.528v.304H76.22v-.304ZM51.431 52.975l5.393 1.627v.843h14.24v-.839l5.225-1.63H51.43Zm16.628 1.858h-8v-.449h8v.449ZM51.47 55.947l5.395.567-.032.303-5.394-.568.032-.303Z"/><path d="m51.473 55.136 5.432.618-.034.302-5.432-.618.034-.302ZM51.501 58.875l5.42.318-.019.308-5.419-.318.018-.308ZM51.469 58.066l5.424.364-.021.308-5.424-.364.02-.308ZM51.428 65.006l5.424.202-.011.308-5.424-.202.011-.308ZM51.375 64.2l5.43.247-.013.308-5.43-.248.013-.308ZM51.48 68.097l5.424.202-.011.304-5.425-.201.012-.305ZM51.425 67.28l5.43.249-.014.304-5.43-.25.014-.304ZM51.48 71.133l5.424.206-.011.304-5.425-.206.012-.304ZM51.423 70.315l5.43.252-.014.304-5.43-.252.014-.304ZM51.508 74.093l5.347.168-.01.308-5.347-.168.01-.308ZM51.45 73.272l5.356.22-.012.305-5.357-.221.013-.304Z"/><path d="m51.412 52.975.25.074-.02 24.179-.242.023.012-24.276ZM76.297 52.96l-.25.11.02 24.002.242.024-.012-24.136ZM56.684 54.388l.25.098-.02 20.662-.242.015.012-20.775ZM71.069 54.641l-.25.094.02 20.416.242.012-.012-20.522ZM52.697 53.33h.28v23.242h-.28V53.33ZM53.72 53.533H54v22.606h-.28V53.533ZM54.737 53.677h.285v21.938h-.285V53.677ZM55.99 75.296l-.282.09V53.84h.281v21.455Z"/><path d="m76.3 56.255-5.399.567-.032-.302 5.398-.568.032.303ZM76.295 55.44l-5.428.617-.035-.302 5.428-.617.035.302ZM76.258 59.185l-5.422.318-.019-.308 5.423-.318.018.308ZM76.286 58.368l-5.424.365-.02-.308 5.423-.364.021.307ZM76.276 62.186l-5.422.25-.014-.305 5.422-.25.014.305ZM76.324 61.373l-5.427.294-.017-.304 5.428-.294.016.304ZM76.32 65.316l-5.425.202-.011-.308 5.424-.202.012.308ZM76.367 64.498l-5.43.248-.014-.308 5.43-.248.014.308ZM76.27 68.401l-5.425.202-.01-.304 5.423-.202.012.305ZM76.324 67.589l-5.43.25-.014-.305 5.43-.25.014.305ZM76.268 71.43l-5.424.206-.012-.304 5.424-.206.012.304ZM76.319 70.628l-5.43.252-.014-.304 5.43-.252.014.304ZM76.241 74.403l-5.351.168-.01-.308 5.351-.168.01.308ZM76.296 73.58l-5.357.22-.013-.304 5.358-.22.012.303Z"/><path d="M74.756 53.33h.277v23.242h-.277V53.33ZM73.733 53.533h.281v22.606h-.28V53.533ZM72.716 53.677h.28v21.938h-.28V53.677ZM71.746 53.841h.277v21.732h-.277V53.84ZM56.9 67.04H70.88v.307H56.9v-.308ZM56.9 67.682H70.88v.308H56.9v-.308ZM56.9 68.574H70.88v.308H56.9v-.308ZM56.9 69.318H70.88v.304H56.9v-.304ZM56.9 70.44H70.88v.309H56.9v-.308ZM56.9 71.46H70.88v.304H56.9v-.304ZM56.9 72.413H70.88v.304H56.9v-.304ZM56.9 73.23H70.88v.303H56.9v-.304ZM56.868 74.84H70.85v.308H56.868v-.309Z"/><path d="M55.74 75.379h16.178v.19H55.74v-.19ZM54.508 75.997h18.434v.188H54.508v-.188ZM54.449 76.603h18.434v.187H54.45v-.187ZM58.905 67.824h.511v7.211h-.511v-7.21ZM61.387 67.824h.51v7.211h-.51v-7.21ZM66.05 67.824h.507v7.211h-.508v-7.21ZM68.223 67.824h.511v7.211h-.511v-7.21ZM46.934 59.457h-4.42l-1.534.44 1.26 2.315.948-.238-.472 13.295-.308.105.07 1.49-.304.137.101.309h3.333l.136-.297-.273-.082V75.48l-.27-.145-.105-13.318.816.023 1.022-2.583Zm-.643 1.245h-.5v-.281h.496v.28h.004Zm-.917-.855h.499v.281h-.5v-.28Zm-.387.562h.5v.281h-.5v-.28Zm-.152.866h-.5v-.28h.496v.28h.004Zm-.53-1.428h.495v.281h-.496v-.28Zm-.39.562h.495v.281h-.496v-.28Zm-.013.995h.496v.281h-.496v-.28Zm-.03-.129h-.496v-.28h.495v.28Zm-.532-1.428h.496v.281h-.496v-.28Zm-.386.562h.496v.281h-.496v-.28Zm2.533 1.315h-.5v-.28h.5v.28Zm.421-.449h-.5v-.28h.5v.28ZM82.085 62.04l.816-.023-.098 13.318-.273.145v1.451l-.273.082.136.297h3.333L85.83 77l-.308-.136.066-1.49-.308-.106-.468-13.295.944.238 1.26-2.314-1.533-.441h-4.421l1.022 2.583Zm-.379-1.615h.496v.28h-.496v-.28Zm.913-.3h-.499v-.282h.5v.281Zm.39.565h-.495v-.28h.496v.28Zm.157.308h.495v.281h-.495V61Zm.527-.874h-.496v-.28h.496v.28Zm.386.566h-.496v-.28h.496v.28Zm.016.995h-.496v-.28h.496v.28Zm.03-.687h.496v.281h-.495V61Zm.528-.874h-.496v-.28h.496v.28Zm.39.566h-.496v-.28h.496v.28Zm-2.529.753h.496v.281h-.496v-.28Zm-.425-.445h.495v.281h-.495V61Z"/><path d="m55.503 63.093 1.362-2.38-5.8.066 1.328 2.35.405-.052V75.44l-.561.074-.004 1.705h3.203l.02-1.639-.465-.097V63.1h.512v-.008Zm-.535-1.932h.593v.324h-.593v-.324Zm-2.119 1.51h-.593v-.323h.593v.324Zm0-1.186h-.593v-.324h.593v.324Zm.664.625h-.594v-.32h.594v.32Zm.647.562h-.593v-.324h.593v.324Zm0-1.187h-.593v-.324h.593v.324Zm.742.625h-.593v-.32h.593v.32Zm.066.562v-.324h.593v.324h-.593ZM75.709 63.093l1.361-2.38-5.798.066 1.323 2.35.405-.052V75.44l-.561.074-.004 1.705h3.203l.02-1.639-.46-.097V63.1h.51v-.008Zm-.535-1.932h.593v.324h-.593v-.324Zm-2.119 1.51h-.593v-.323h.593v.324Zm0-1.186h-.593v-.324h.593v.324Zm.663.625h-.593v-.32h.593v.32Zm.648.562h-.593v-.324h.593v.324Zm0-1.187h-.593v-.324h.593v.324Zm.746.625h-.597v-.32h.593v.32h.004Zm.062.562v-.324h.593v.324h-.593ZM65.558 63.87l1.71-2.361h-6.884l1.857 2.349.594-.008v11.629l-.562.062-.004 1.6h3.203l.02-1.538-.46-.09V63.87h.526Zm.13-.344h-.489v-.379h.754l-.266.379Zm.471-1.62h.691l-.285.383h-.406v-.382Zm.246.605-.285.383h-.472v-.383h.757Zm-5.557-.604h.695v.382h-.406l-.289-.382Zm.473.604h.694v.383h-.406l-.288-.383Zm1.194 1.015h-.406l-.285-.379h.69v.379Zm.222-1.237h-.69v-.382h.69v.382Zm.023.605v-.383h.691v.383h-.69Zm1.355.632h-.691v-.379h.69v.379Zm.058-1.237h-.69v-.382h.69v.382Zm.734.605h-.695v-.383h.695v.383Zm-.11-.605v-.382h.695v.382h-.695Z"/><path d="m51.614 77.096 5.3-1.948-.157-.187-5.213 1.905.07.23ZM76.297 77.204l-5.81-2.084.511.023 5.307 1.823-.008.238ZM31.871 76.822c0-.125-.043-.293-.133-.507l-.905.363-.101.043c-.078.03-.125.074-.149.129-.023.05-.02.113.012.187.043.109.11.203.199.277a.524.524 0 0 0 .3.129.776.776 0 0 0 .663-.285.536.536 0 0 0 .114-.336Z"/><path d="M36.478 64.019c.199 14.984 12.155 27.144 27.265 27.249 15.402.105 27.632-12.163 27.776-27.655-.254-15.14-12.167-26.684-26.09-27.355-16.534-.796-29.15 12.604-28.951 27.76Zm53.859.971c-.496 13.338-11.621 25.12-26.368 25.12-14.134.081-27.144-11.704-26.297-27.804.714-13.537 11.457-24.877 26.426-24.924 14.208-.039 26.84 11.516 26.239 27.608ZM48.353 93.855c-.046-.145-.175-.27-.386-.387l-.214-.105-.613 1.178.113.059c.184.098.332.148.441.168.11.008.21-.008.312-.074a.846.846 0 0 0 .258-.305c.105-.207.133-.382.09-.534ZM63.022 97.305a.663.663 0 0 0-.395-.14c-.277-.016-.495.113-.655.398-.129.226-.203.561-.226.99-.024.524.046.906.218 1.164.117.18.293.273.52.285a.632.632 0 0 0 .39-.094c.136-.082.245-.234.327-.441.082-.203.133-.476.152-.816.02-.402 0-.702-.07-.905-.058-.207-.148-.351-.261-.44ZM63.83 32.232c.551-.055 1.28-.152 2.01-.195.527-.032.418-.387.32-.636-.245-.617-1.05-.75-1.564-.29-.242.215-.539.551-.812.403-.496-.27-.016-.527.129-.792.093-.172.093-.543-.09-.476-.425.148-1.015-.094-1.28.503-.437.991-.078 1.483 1.288 1.483ZM32.374 53.132c.261.012.413-.136.328-.359-.09-.25-.082-.612-.477-.655-.316-.04-.316.167-.32.382-.004.336.051.613.469.632ZM93.624 80.946c-.344-.18-.648-.273-.913-.273a.813.813 0 0 0-.504.152c-.09.082-.195.222-.312.441l2.095 1.116c.11.059.18.082.211.086a.116.116 0 0 0 .086-.023.375.375 0 0 0 .113-.137c.117-.223.129-.43.04-.624-.118-.27-.391-.512-.816-.738ZM51.98 29.8c.44 0 .467-.379.635-.62-.082-.223-.093-.504-.413-.45-.348.059-.625.203-.613.633.008.273.074.437.39.437ZM50.231 31.965c.488-.02.788-.53.785-1.252.011-.3-.121-.843-.582-.828-.476.016-.91.422-.862 1.038.035.469.14 1.066.66 1.042ZM32.235 49.862c.175.081.304-.075.382-.23.129-.258.164-.531-.027-.754-.492-.57-1.21-.741-1.71-.99-.413-.071-.636.019-.737.257-.172.398.129.686.312.975.172.285.367.11.57-.047.367-.277.784-.53.882.227.027.257.113.464.328.562ZM32.42 76.802a.56.56 0 0 0 .336-.05.64.64 0 0 0 .277-.195.495.495 0 0 0 .098-.29c.004-.104-.035-.26-.117-.467l-1.113.456c.079.195.16.332.243.406a.538.538 0 0 0 .276.14Z"/><path d="M66.378 22.378C41.126 21.102 22.32 41.444 22.57 63.858c.129 11.193 4.02 20.827 11.789 28.792 7.976 8.167 17.81 12.405 29.107 12.522 23.327.242 42.116-18.532 41.949-41.438.101-23.199-18.493-40.322-39.038-41.356Zm32.24 27.51c.222-.003.53-.065.472.313-.094.585-.402 1.077-.956 1.288-.27.101-.453-.191-.48-.562.258-.367.25-1.022.964-1.038Zm-3.465.598c.343-.37.85-.46 1.342-.492.152-.008.425.114.343.273-.604 1.187.683 1.327 1.058 1.963.047.078.094.149.14.223-.882-.46-1.603-1.062-2.618-1.151-.48-.043-.597-.46-.265-.816Zm-2.361 3.672c.214-.039.355.02.468.254.16.343.414.605.866.546.777-.098.98-.523.57-1.175-.14-.222-.593-.429-.277-.718.359-.327.648.004.843.324.156.258.43.266.644.39.378.219.714.164.874-.124.207-.375-.215-.45-.468-.582-.067-.035-.078-.175-.117-.273.589.043 1.83 1.077 1.873 1.58.03.434-.227.578-.633.582-.253 0-.448-.332-.698-.172-.137.191-.012.281.031.402.106.293.511.636.215.886-.37.308-.535-.215-.742-.422-.515-.507-1.014-.296-1.557-.046-1.229.57-2.142.14-2.087-.968.008-.172-.106-.43.195-.484ZM85.12 40.922c.086-.367.48-.203.675-.133.53.199 1.073.207 1.588.101.476-.097.992-.3.515-1.018-.18-.27-.593-.675-.183-1.042.445-.398.714.078.987.336.418.39.788.402 1.167-.059.191-.234.421-.433.632-.652.27-.285.593-.581.921-.183.281.347.312.773-.09 1.151-.823.78-.815.804.2 1.311.312.156.6.309.651.683.027.23.043.465-.18.648-.214.18-.347.012-.534-.059-2.135-.823-2.123-.819-2.13 1.452 0 .714.167 1.385.44 2.021.164.387.246.73.176 1.136-1.206-.367-1.889-1.463-1.573-2.591.106-.367.148-.714.152-1.081.008-1.292.008-1.245-1.338-1.21-.511.016-1.03-.226-1.545-.343-.273-.055-.605-.148-.531-.468Zm6.934 24.38c-.76 13.99-12.67 27.285-29.598 26.512-13.9-.635-27.413-12.533-26.516-29.871.722-13.915 12.702-26.52 28.135-26.293 15.215-.29 28.88 13.072 27.98 29.653ZM79.35 33.255c-.23-.148-.43-.289-.726-.09-.297.203-.289.41-.242.496.296.487.168.604-.152.608-.246.004-.453.004-.476-.347-.04-.562.936-2.068 1.51-2.255.082-.028.23-.024.265.023.125.183.113.394-.043.55-.554.554-.222.722.336.804.83.125 1.034.792.71 1.327-.5.831-1.097 1.635-1.912 2.236-.36.265-.671.448-1.077.16-.425-.308-.55-.824-.73-1.268-.082-.203.191-.18.418-.098.995.37 2.204-.414 2.403-1.498.063-.309-.039-.492-.284-.648Zm-4.566.468c1.019-.238.839-1.221.765-1.71-.129-.823.238-.893.784-.99.164-.032.336.004.504-.008.667-.055 1.03-.238.386-.878-.11-.11-.148-.293-.25-.503.738.023 1.112-.36 1.206-1.038.047-.336.265-.473.57-.414.429.082.195.402.19.64-.003.378-.682.73-.097 1.12.59.398 1.218.355 1.776-.086.23-.18.433-.414.597-.66.148-.23.246-.51.577-.327.281.152.36.515.227.706-.289.406-.39.773-.195 1.23.02.05-.086.226-.137.226-.722.019-1.553.253-2.135-.028-1.162-.562-1.958-.48-2.349.757-.128.414-.803.824-.265 1.409.121.129-.062.316-.199.406-.496.34-1.003.66-1.506.99-.371.247-.691.052-.863-.225-.23-.379.156-.562.414-.617Zm-11.765-8.078c.07-.39.464-.21.815-.171.816.093 1.667.199 2.494-.082.215-.074.464-.055.698-.067.34-.011.77-.027.765.414 0 .324-.43.414-.71.39-.917-.093-1.787.293-2.638.223h-.663c-.469-.008-.835-.293-.761-.707Zm-1.007.894c.273-.031.464-.043.574.347.152.539.105 1.019 0 1.546-.07.359-.215.928.261 1.073.55.164 1.19.265 1.725-.164.332-.266.296-.585-.094-.656-.363-.066-.843.246-.909-.402-.059-.566.27-.924.734-1.182.113-.063.222-.129.456-.27-.113.785-.004 1.14.699.73.082-.05.199-.05.277-.109.35-.25.749-.468 1.034-.004.335.554-.266.625-.562.828-.11.074-.246.109-.472.21.526.394.901.242 1.237.285.167.02.359.02.405.223.043.195-.128.288-.265.382-.05.035-.14.02-.187.062-.324.273-1.038-.047-1.077.527-.04.585.757.262.901.5.433.737.804 1.533 1.046 2.353.105.359-.425.245-.624.206-1.596-.296-3.188-.097-4.784.032-.566.047-.652-.184-.66-.683-.035-1.315.363-2.603.226-3.918-.05-.46.075-.937-.167-1.385-.102-.184-.145-.488.226-.531Zm-13.034 3.457c1.316-.667 1.394-.85.781-2.197-.195-.429-.148-.839.195-1.01.398-.203.769.031.901.51.063.223.098.477.235.645.273.335.577.76.98.082.147-.254.42-.402.694-.543.238-.12.448-.19.651-.023.23.187.476.507.324.753-.558.901-.468 2.045-1.124 2.888-.296.382-.296.76-.081 1.116.503.843.41 1.861.846 2.724.102.206.156.51-.144.788-.792-.78-.882-1.893-1.39-2.782-.144-.246-.085-.629-.46-.695-.425-.074-.484.336-.57.574-.23.624-.62.41-.932.183-.656-.484-1.073-1.206-1.467-1.889-.27-.468.082-.878.562-1.124Zm-9.096 5.05c.558.082.894.952 1.667.48.054-.035.148.523.011.792-.382.741.266 1.019.633 1.405.386.406.667.156.998-.16.122-.113.418-.367.71-.16.274.195.211.492.18.745-.109.878-1.233 1.382-1.978.925-1.151-.71-1.65-2.01-2.634-2.872-.094-.082-.043-.324-.059-.488-.015-.351-.043-.741.472-.667Zm-2.27 3.282a.806.806 0 0 1 .596-.605c.316-.082.527.133.644.374.363.754.882 1.358 1.514 1.909.406.35.285.932.273 1.256v.68c.004.49-.003.928-.706.904-.76-.023-.468-.57-.503-.94-.016-.156.047-.328.105-.48.098-.265.184-.59-.074-.734-.343-.195-.355.195-.484.395-.16.242-.386.405-.675.19-.261-.194-.44-.483-.222-.78.433-.6.714-1.112-.27-1.455-.308-.113-.265-.465-.199-.714Zm-9.257 12.432c.324-.975 1.081-.222 1.608-.433.37-.152.542.226.507.636-.035.41.121.777.574.8.652.035.624-.632.82-.991.276-.507-.285-.425-.547-.543-.386-.18-.773-.359-1.136-.577-1.057-.636-1.256-1.947-.382-2.798.293-.285.706-.699 1.202-.199 1.381 1.397 3.305 1.764 4.98 2.603.237.12.561.125.577.433.011.32-.324.449-.562.468-.57.05-1.417.734-1.495-.589-.015-.281-.37-.484-.69-.476-.434.012-.527.413-.738.71-.27.379-.004.57.183.761.418.425 1.124.57 1.327 1.362-.671-.047-1.217-.89-1.51-.652-.449.367.414.808.39 1.362-.043 1.03-.546 1.55-1.518 1.237-.48-.152-.679.074-.987.262-.125-.348-.008-.547.086-.765.16-.375-.125-.605-.394-.703-.289-.105-.352.168-.367.414-.016.265-.172.484-.433.425-.32-.066-.21-.39-.18-.589.133-.796-.12-1.276-.964-1.413-.398-.074-.495-.308-.35-.745Zm4.57 5.799c-.04.277-.219.394-.48.421-.351.04-.808-.035-.87-.32-.14-.597-.055-1.245-.39-1.814-.02-.035.132-.176.183-.246.382.047 1.6 1.631 1.557 1.959Zm-3.356-1.105c-.242-.113-.75.09-.683-.448.062-.488.507-.703.917-.773.449-.078.468.297.5.652.058.605-.387.492-.734.57Zm-2.689-1.92c.059-.471.258-1.045.898-.987.448.04 1.073.192 1.053.734-.027.683-.702.773-1.256.882-.523.101-.734-.32-.695-.628Zm1.998 18.224a.233.233 0 0 0-.074.125.466.466 0 0 0 .004.207l.023.09-.082.027-.382-1.546.082-.019.023.094a.43.43 0 0 0 .094.199.223.223 0 0 0 .129.062c.039.012.132-.008.28-.043l.914-.23-.262-1.042-.913.226c-.152.04-.246.07-.277.094-.031.023-.055.074-.07.133a.422.422 0 0 0 .008.207l.023.097-.082.02-.382-1.546.082-.02.023.095c.024.09.055.152.098.199a.192.192 0 0 0 .125.062c.039.008.132-.008.28-.047l1.94-.48c.152-.039.242-.07.277-.09a.286.286 0 0 0 .078-.124.419.419 0 0 0-.008-.207l-.023-.098.082-.02.382 1.542-.082.023-.027-.101a.483.483 0 0 0-.098-.195.24.24 0 0 0-.125-.066c-.042-.008-.136.007-.284.046l-.835.207.257 1.046.835-.21a1.22 1.22 0 0 0 .277-.09.265.265 0 0 0 .078-.125.422.422 0 0 0-.008-.207l-.019-.098.082-.023.382 1.541-.082.024-.023-.098a.438.438 0 0 0-.094-.191.231.231 0 0 0-.128-.07.862.862 0 0 0-.281.054l-1.94.472c-.152.047-.242.075-.277.094Zm.379 2.267c-.082-.246-.11-.452-.082-.609.027-.218.101-.39.218-.51.117-.122.297-.223.539-.297l1.412-.457a1.48 1.48 0 0 0 .3-.129.26.26 0 0 0 .067-.125.602.602 0 0 0-.047-.265l.082-.023.484 1.49-.078.028-.023-.074c-.04-.114-.075-.188-.114-.223a.212.212 0 0 0-.124-.062c-.047-.004-.156.023-.316.078l-1.417.456c-.258.082-.421.156-.495.227a.581.581 0 0 0-.149.257.673.673 0 0 0 .027.367c.051.156.13.273.235.367.105.086.23.136.374.156.14.012.363-.031.671-.129L32 74.165c.129-.043.215-.082.261-.133.043-.047.075-.086.082-.136a.652.652 0 0 0-.035-.285l.082-.028.324 1-.082.027-.023-.067a.464.464 0 0 0-.113-.187.279.279 0 0 0-.184-.066c-.05-.012-.136.011-.254.05l-1.1.36c-.34.109-.593.16-.757.167-.164 0-.336-.058-.519-.195-.187-.133-.328-.347-.425-.648Zm1.248 3.24-.573-1.437.078-.031c.054.129.101.214.144.25.043.039.09.058.133.066a.979.979 0 0 0 .296-.09l1.83-.733c.157-.059.246-.11.278-.14a.227.227 0 0 0 .054-.138c.004-.062-.02-.148-.074-.28l.082-.032.542 1.354c.13.328.192.566.188.726a.756.756 0 0 1-.129.418.633.633 0 0 1-.32.261.528.528 0 0 1-.421 0c-.145-.058-.3-.195-.46-.417.042.292.042.51-.005.651a.62.62 0 0 1-.398.43.694.694 0 0 1-.624-.043c-.25-.152-.46-.422-.62-.816Zm.633 1.544.074-.039.047.09a.444.444 0 0 0 .132.172c.035.027.082.035.137.035.043 0 .128-.035.265-.102l1.795-.874c.125-.062.2-.093.223-.12a.2.2 0 0 0 .074-.126.415.415 0 0 0-.043-.241l-.047-.086.074-.04 1.112 2.287-.807.395-.036-.075c.176-.132.293-.261.344-.374a.67.67 0 0 0 .047-.39c-.012-.086-.07-.242-.168-.441l-.137-.281-1.112.542.024.055c.085.171.199.273.347.296.144.028.328-.004.554-.082l.035.078-1.428.691-.04-.074a1.13 1.13 0 0 0 .332-.289.522.522 0 0 0 .114-.28.835.835 0 0 0-.09-.32l-.773.374a1.543 1.543 0 0 0-.265.152.235.235 0 0 0-.05.11.374.374 0 0 0 .05.187l.078.16c.125.253.28.433.476.53.191.098.425.117.702.07l.035.079-.928.3-1.147-2.369Zm2.446 3.622c-.136.078-.218.128-.242.164a.237.237 0 0 0-.043.136c0 .063.024.125.063.2l.05.089-.074.043-.78-1.385.074-.043.05.085a.39.39 0 0 0 .145.16.179.179 0 0 0 .137.028c.039 0 .129-.043.257-.113l1.74-.984c.137-.074.215-.125.243-.16a.21.21 0 0 0 .039-.136.402.402 0 0 0-.063-.2l-.05-.09.074-.042.78 1.381-.074.047-.05-.086a.404.404 0 0 0-.145-.164.258.258 0 0 0-.14-.03c-.04.007-.125.046-.258.116l-1.733.984Zm1.986 3.785c-.214-.074-.41-.238-.593-.492-.152-.218-.238-.402-.265-.562a.914.914 0 0 1 .062-.554c.078-.152.219-.296.426-.44l1.217-.86c.145-.1.227-.171.25-.214.023-.039.031-.082.023-.136a.601.601 0 0 0-.124-.239l.07-.054.901 1.284-.07.054-.043-.07a.602.602 0 0 0-.172-.176c-.043-.023-.09-.03-.136-.023-.047.016-.14.07-.281.168l-1.218.854c-.222.16-.359.281-.405.363a.516.516 0 0 0-.067.293.64.64 0 0 0 .137.34c.093.136.206.23.331.28.13.051.262.067.402.04.14-.032.34-.133.605-.32l1.015-.715a.725.725 0 0 0 .214-.207.261.261 0 0 0 .035-.152.596.596 0 0 0-.12-.261l.07-.047.605.862-.07.051-.036-.05a.398.398 0 0 0-.164-.145.277.277 0 0 0-.195-.016.991.991 0 0 0-.226.125l-.944.664c-.293.203-.515.335-.672.39-.156.055-.347.039-.562-.035Zm2.299 3.126.573-3.208-1.463 1.26c-.136.11-.199.223-.191.324a.436.436 0 0 0 .11.262l.046.058-.066.055-.707-.816.067-.054c.109.12.21.19.304.199.094.003.203-.047.324-.153l1.623-1.397.02-.101a.538.538 0 0 0 .008-.234.49.49 0 0 0-.106-.188l.067-.062.702.82-.449 2.368.988-.858c.136-.113.214-.215.23-.3.015-.11-.032-.231-.14-.356l.062-.054.655.76-.062.055a.927.927 0 0 0-.223-.152.291.291 0 0 0-.163 0 1.14 1.14 0 0 0-.254.172l-1.916 1.654-.04-.054Zm1.775 1.693-1.131-1.116.058-.062.074.074a.393.393 0 0 0 .184.113.224.224 0 0 0 .14-.012c.04-.02.11-.078.219-.183l1.405-1.424c.105-.11.167-.188.183-.223a.227.227 0 0 0 0-.144.397.397 0 0 0-.113-.172l-.074-.074.058-.063 1.136 1.116-.063.063-.074-.07a.425.425 0 0 0-.183-.117.2.2 0 0 0-.14.011c-.036.012-.11.078-.215.184l-1.401 1.424c-.11.113-.172.187-.188.226a.227.227 0 0 0 0 .145.397.397 0 0 0 .114.171l.074.075-.063.058Zm1.362 1.284.742-2.52c.09-.305.136-.493.136-.563 0-.07-.043-.144-.125-.23l.055-.066 1.12.932-.055.067-.039-.036c-.101-.082-.18-.124-.238-.128-.043-.004-.078.007-.101.043a.327.327 0 0 0-.05.082c-.017.039-.048.14-.095.308l-.472 1.572 1.327-.647c.16-.078.261-.137.308-.172a.764.764 0 0 0 .11-.086.22.22 0 0 0 .046-.117.21.21 0 0 0-.027-.125.683.683 0 0 0-.172-.195l.055-.062.765.636-.055.062a.47.47 0 0 0-.34-.05c-.097.015-.28.09-.55.23l-2.286 1.112-.059-.047Zm1.663 1.256.043-.074.085.055c.07.055.14.078.2.082a.205.205 0 0 0 .136-.04.863.863 0 0 0 .176-.222l1.108-1.666c.074-.113.12-.187.129-.218a.215.215 0 0 0-.004-.149c-.02-.07-.074-.124-.156-.175l-.086-.063.047-.07 2.115 1.405-.5.753-.07-.055c.086-.203.12-.37.11-.491a.608.608 0 0 0-.16-.36c-.056-.07-.18-.167-.372-.296l-.257-.16-.683 1.03.05.035c.165.106.313.133.45.079.14-.051.284-.168.436-.352l.07.047-.881 1.327-.07-.047c.082-.156.128-.293.144-.418a.495.495 0 0 0-.043-.296.894.894 0 0 0-.246-.234l-.476.714c-.09.14-.144.234-.152.27a.215.215 0 0 0 .012.12c.02.043.066.082.14.129l.148.098c.239.16.46.23.68.218.214-.012.429-.113.64-.297l.07.047-.652.734-2.181-1.46Zm5.474 2.76c.02.163.047.272.067.315a.367.367 0 0 0 .156.172l-.04.07-.85-.437-.23-1.682-.18-.093-.39.753c-.078.144-.117.246-.117.289 0 .05.016.09.05.14.036.047.114.094.239.164l-.04.074-1.38-.718.038-.074c.125.063.215.094.27.094a.232.232 0 0 0 .14-.043c.035-.028.094-.113.168-.258l.91-1.744c.073-.148.112-.246.116-.293a.202.202 0 0 0-.05-.14.705.705 0 0 0-.238-.164l.039-.074 1.256.647c.324.168.55.317.68.438a.821.821 0 0 1 .237.44.739.739 0 0 1-.078.504.707.707 0 0 1-.468.382 1.009 1.009 0 0 1-.48-.011l.175 1.248Zm2.872.71a.87.87 0 0 1-.522.491c-.25.098-.52.086-.804-.027a1.57 1.57 0 0 1-.242-.125 1.948 1.948 0 0 1-.254-.222.341.341 0 0 0-.148-.11.19.19 0 0 0-.133-.004.325.325 0 0 0-.148.086l-.078-.035.43-1.061.077.035c-.058.324-.035.593.078.827.11.23.265.382.468.46a.535.535 0 0 0 .422.024.421.421 0 0 0 .254-.242.385.385 0 0 0 .023-.21.63.63 0 0 0-.09-.246 3.111 3.111 0 0 0-.293-.375c-.202-.23-.347-.406-.42-.546a1.043 1.043 0 0 1-.134-.398.8.8 0 0 1 .055-.402.814.814 0 0 1 .48-.476.955.955 0 0 1 .718.02c.09.034.176.081.254.14.058.043.125.105.203.187a.678.678 0 0 0 .167.148.14.14 0 0 0 .098 0 .489.489 0 0 0 .125-.136l.066.027-.359.944-.082-.039a1.005 1.005 0 0 0-.07-.679.78.78 0 0 0-.422-.421.508.508 0 0 0-.382-.024.369.369 0 0 0-.226.211c-.024.063-.035.125-.024.187a.887.887 0 0 0 .114.27c.05.07.163.214.35.425.266.289.426.535.485.722a.905.905 0 0 1-.035.573Zm2.514-1.39-.094-.035a.402.402 0 0 0-.219-.02.259.259 0 0 0-.12.07 1.265 1.265 0 0 0-.11.266l-.616 1.897c-.051.148-.075.246-.07.285.003.042.027.082.066.124a.421.421 0 0 0 .175.106l.098.031-.027.082-1.51-.488.027-.082.093.031a.428.428 0 0 0 .215.024.202.202 0 0 0 .117-.078.878.878 0 0 0 .113-.258l.62-1.9c.047-.148.07-.242.067-.281 0-.043-.023-.086-.063-.129a.343.343 0 0 0-.179-.097l-.094-.035.024-.082 1.51.495-.023.074Zm2.68 1.464-.078-.024c0-.199-.02-.343-.054-.437a.583.583 0 0 0-.184-.246.67.67 0 0 0-.28-.113l-.22-.055-.565 2.272c-.04.148-.055.245-.043.288.004.043.031.082.07.125a.35.35 0 0 0 .191.09l.098.027-.02.078-1.545-.382.02-.082.101.023a.34.34 0 0 0 .215.008c.047-.008.082-.039.117-.082a.914.914 0 0 0 .094-.265l.565-2.275-.214-.055c-.2-.05-.351-.043-.465.02-.16.082-.277.238-.366.445l-.082-.024.195-.8 2.65.66-.2.804Zm3.505-.176a.501.501 0 0 0-.246.05c-.082.055-.227.208-.43.45l-.819.987-.117.726c-.023.156-.031.25-.02.292.012.04.04.082.082.114a.437.437 0 0 0 .188.074l.164.027-.012.082-1.682-.27.012-.081.156.027c.09.016.164.008.218-.012a.265.265 0 0 0 .11-.09c.02-.035.042-.128.066-.276l.094-.598-.5-1.4c-.097-.27-.172-.438-.226-.492a.426.426 0 0 0-.219-.106l.012-.081 1.436.23-.012.082-.062-.012a.447.447 0 0 0-.188.008c-.039.023-.062.043-.066.078-.008.054.031.199.11.425l.386 1.077.683-.815c.167-.207.257-.34.269-.406a.12.12 0 0 0-.043-.11c-.043-.046-.133-.081-.262-.109l.016-.082.913.14-.011.071Zm4.452 1.705c-.02.383-.148.718-.386 1.003-.316.371-.75.547-1.296.519-.546-.027-.96-.234-1.237-.612a1.617 1.617 0 0 1-.304-1.058c.02-.449.195-.82.515-1.104.324-.29.706-.414 1.151-.402.484.027.87.195 1.155.511.293.308.422.695.402 1.143Zm2.767-.663c-.024-.203-.078-.36-.164-.457a.706.706 0 0 0-.37-.21c-.09-.024-.255-.032-.5-.032h-.281l.004 1.245h.085a.764.764 0 0 0 .328-.062.473.473 0 0 0 .215-.207.889.889 0 0 0 .113-.386h.078v1.53h-.078c-.027-.293-.105-.48-.23-.574a.749.749 0 0 0-.43-.137h-.085v.933c0 .156.007.246.027.293a.25.25 0 0 0 .097.093c.051.031.118.047.203.047h.098v.086h-1.584v-.082h.097a.43.43 0 0 0 .215-.047.188.188 0 0 0 .09-.105.975.975 0 0 0 .023-.281v-1.998c0-.16-.008-.25-.027-.293a.219.219 0 0 0-.098-.101.424.424 0 0 0-.203-.043h-.097v-.086h2.56v.878h-.086v-.004Zm4.117 1.694a1.7 1.7 0 0 1-.629.202 1.778 1.778 0 0 1-.882-.081 1.322 1.322 0 0 1-.647-.477 1.638 1.638 0 0 1-.305-.745 1.63 1.63 0 0 1 .121-.847 1.645 1.645 0 0 1 1.315-.999 1.93 1.93 0 0 1 .691.051c.144.035.234.055.27.05a.183.183 0 0 0 .112-.07c.032-.038.047-.097.051-.175l.086-.012.136 1.046-.085.012c-.098-.262-.246-.457-.445-.574a.925.925 0 0 0-1.132.086.94.94 0 0 0-.289.468 1.86 1.86 0 0 0-.043.769c.036.265.102.507.2.722.097.215.226.37.382.464.16.09.355.121.585.09.188-.027.36-.082.504-.191.148-.102.296-.266.445-.492l.03.258a1.8 1.8 0 0 1-.471.444Zm2.926-.539-.02-.082.094-.02a.558.558 0 0 0 .2-.097.226.226 0 0 0 .062-.121c.008-.047-.004-.137-.043-.28l-.222-.918-1.046.25.222.913c.035.152.066.246.094.277a.252.252 0 0 0 .12.078c.055.02.126.016.207-.008l.102-.02.02.083-1.546.374-.02-.082.098-.027a.45.45 0 0 0 .2-.094.201.201 0 0 0 .062-.124c.008-.036-.008-.13-.043-.281l-.469-1.936a1.09 1.09 0 0 0-.09-.281.251.251 0 0 0-.12-.078.421.421 0 0 0-.207.008l-.098.023-.02-.082 1.546-.374.02.082-.098.027a.395.395 0 0 0-.195.09c-.031.027-.05.07-.062.128-.008.036.004.125.039.278l.199.835 1.045-.246-.203-.843a.947.947 0 0 0-.09-.27.19.19 0 0 0-.12-.078.382.382 0 0 0-.21 0l-.095.028-.02-.082 1.542-.37.02.081-.094.02a.48.48 0 0 0-.195.093.238.238 0 0 0-.062.125.921.921 0 0 0 .043.281l.468 1.94c.035.152.07.245.09.277.027.039.066.058.12.078a.415.415 0 0 0 .207-.004l.094-.024.02.082-1.546.371Zm1.9-.519-.027-.078.094-.035a.367.367 0 0 0 .183-.11.237.237 0 0 0 .051-.124c.008-.043-.016-.137-.066-.281l-.644-1.889a.878.878 0 0 0-.117-.265c-.028-.035-.07-.055-.129-.07a.459.459 0 0 0-.207.027l-.093.035-.028-.078 1.507-.515.027.082-.094.035a.363.363 0 0 0-.187.11.214.214 0 0 0-.055.128c-.004.039.02.133.07.277l.64 1.889c.051.148.09.238.121.265.028.035.075.055.13.066a.399.399 0 0 0 .206-.023l.094-.035.027.082-1.502.507Zm4.34-1.631-2.907-1.475.788 1.764c.07.16.156.25.254.269a.4.4 0 0 0 .285-.023l.066-.032.035.078-.987.437-.035-.078c.156-.07.245-.144.28-.238.032-.086.016-.207-.05-.35l-.87-1.96-.09-.05a.49.49 0 0 0-.223-.079.579.579 0 0 0-.214.051l-.035-.078.987-.437 2.135 1.112-.531-1.202c-.074-.16-.148-.261-.227-.304-.097-.047-.226-.035-.378.035l-.035-.078.917-.406.035.078a.878.878 0 0 0-.215.168.282.282 0 0 0-.043.156c.004.066.035.16.09.293l1.03 2.306-.062.043Zm.823-.48-.043-.074.086-.051a.39.39 0 0 0 .156-.152.193.193 0 0 0 .024-.137c-.004-.043-.047-.125-.125-.253l-1.023-1.713a1.65 1.65 0 0 0-.14-.215c-.04-.035-.086-.063-.133-.063a.415.415 0 0 0-.234.067l-.086.054-.043-.078 2.182-1.299.46.773-.074.043c-.152-.164-.285-.27-.398-.309a.638.638 0 0 0-.394-.011c-.086.02-.23.085-.43.203l-.265.16.632 1.06.055-.03c.164-.094.254-.227.265-.371.012-.144-.03-.332-.132-.543l.074-.046.816 1.365-.07.051a1.14 1.14 0 0 0-.32-.312.478.478 0 0 0-.286-.086.835.835 0 0 0-.316.117l.437.738c.082.14.14.222.172.246.031.023.07.043.117.043a.408.408 0 0 0 .18-.07l.152-.09c.246-.145.406-.316.488-.52.081-.202.081-.433.007-.71l.07-.043.38.902-2.24 1.354Zm4.273-3.063c-.05.261-.195.487-.44.67a1.104 1.104 0 0 1-.235.137 1.659 1.659 0 0 1-.324.106.375.375 0 0 0-.168.07c-.03.02-.054.058-.074.105a.297.297 0 0 0 0 .176l-.07.055-.687-.917.07-.051c.246.21.492.34.746.359a.886.886 0 0 0 .64-.156.588.588 0 0 0 .238-.347.437.437 0 0 0-.074-.352.4.4 0 0 0-.172-.125.561.561 0 0 0-.25-.054 2.623 2.623 0 0 0-.472.058c-.3.055-.53.082-.687.082a1.15 1.15 0 0 1-.413-.09.752.752 0 0 1-.313-.253.825.825 0 0 1-.156-.656.916.916 0 0 1 .387-.6c.078-.063.164-.11.25-.145.066-.027.156-.055.265-.078.11-.02.18-.047.214-.07a.127.127 0 0 0 .051-.082c.004-.031-.012-.09-.055-.176l.055-.043.628.796-.074.055a1.05 1.05 0 0 0-.62-.297.78.78 0 0 0-.578.145.515.515 0 0 0-.214.312.356.356 0 0 0 .062.304c.04.055.09.094.145.117a.875.875 0 0 0 .292.043c.082-.004.265-.031.546-.082.39-.078.68-.082.875-.03.19.05.347.151.468.311.144.203.195.441.144.703Zm.765-.332-.058-.059.074-.07a.418.418 0 0 0 .124-.18.218.218 0 0 0-.003-.14c-.012-.039-.07-.113-.172-.226l-1.35-1.471a1.764 1.764 0 0 0-.18-.18c-.047-.035-.093-.043-.14-.035a.434.434 0 0 0-.215.11l-.074.07-.058-.063 1.873-1.717.608.664-.062.058c-.18-.129-.332-.207-.457-.222a.668.668 0 0 0-.386.066c-.082.039-.207.137-.378.289l-.23.214.834.91.043-.047c.145-.125.203-.265.188-.414-.02-.144-.098-.312-.242-.507l.062-.055 1.073 1.175-.062.054a1.228 1.228 0 0 0-.371-.238c-.121-.039-.218-.054-.3-.03a.797.797 0 0 0-.285.183l.577.632c.113.117.188.191.227.214a.21.21 0 0 0 .12.008c.043-.004.098-.039.164-.097l.133-.121c.207-.188.332-.394.37-.601.04-.215-.003-.441-.136-.699l.063-.054.554.8-1.928 1.779Zm4.901-5.167-.066-.05.062-.078a.48.48 0 0 0 .098-.203.22.22 0 0 0-.031-.133c-.02-.039-.086-.098-.207-.199l-1.764-1.393 1.448 2.634-.035.043-2.888-.78 1.674 1.326c.117.09.191.148.222.164.07.031.145.035.223.016.078-.024.16-.086.246-.2l.066.055-.648.816-.066-.055.02-.023a.52.52 0 0 0 .09-.172.253.253 0 0 0 .007-.16.368.368 0 0 0-.082-.152 1.05 1.05 0 0 0-.175-.144l-1.51-1.202a1.245 1.245 0 0 0-.243-.16.265.265 0 0 0-.14.015.461.461 0 0 0-.16.137l-.059.078-.066-.055.773-.975 2.1.577-1.058-1.888.768-.968.07.05-.066.083a.48.48 0 0 0-.097.195.226.226 0 0 0 .03.136c.016.035.083.098.204.191l1.569 1.245c.12.098.202.152.245.16.04.016.086.012.14-.011a.446.446 0 0 0 .165-.133l.062-.082.067.058-.988 1.237Zm1.194-1.603-.07-.043.055-.086a.535.535 0 0 0 .078-.203.243.243 0 0 0-.043-.137c-.024-.035-.098-.09-.227-.168l-1.685-1.069a.87.87 0 0 0-.219-.129.214.214 0 0 0-.148.004.415.415 0 0 0-.18.164l-.054.086-.07-.05 1.361-2.143.761.484-.047.07c-.21-.078-.374-.109-.495-.097a.7.7 0 0 0-.355.164c-.07.062-.164.19-.289.382l-.168.262 1.046.663.031-.055c.102-.164.125-.308.07-.449-.054-.132-.175-.277-.362-.425l.046-.07 1.343.85-.043.075a1.082 1.082 0 0 0-.422-.133.489.489 0 0 0-.296.055.745.745 0 0 0-.23.245l.725.461c.141.09.23.133.27.144.039.008.082.004.12-.02.04-.015.083-.066.133-.136l.094-.152c.152-.238.219-.464.203-.679-.02-.218-.125-.43-.312-.636l.047-.07.741.632-1.409 2.209Zm2.529-4.305a2.724 2.724 0 0 1-.176.395l-.636 1.198-.078-.036.051-.09a.45.45 0 0 0 .058-.194.218.218 0 0 0-.05-.145c-.02-.027-.102-.078-.242-.152l-1.764-.936c-.136-.075-.23-.11-.27-.11-.042-.008-.085.012-.136.04a.41.41 0 0 0-.136.16l-.047.085-.074-.039.636-1.206c.171-.316.35-.558.546-.702a1.24 1.24 0 0 1 .769-.285c.28-.012.562.058.831.203.191.101.347.222.476.367.129.148.219.296.27.445.05.148.073.312.073.468a2.192 2.192 0 0 1-.101.534Zm.784-1.494-.078-.035.043-.094a.4.4 0 0 0 .043-.21.193.193 0 0 0-.058-.13 1.093 1.093 0 0 0-.246-.14l-1.815-.831c-.14-.066-.234-.098-.273-.098a.24.24 0 0 0-.136.047.414.414 0 0 0-.121.168l-.043.094-.078-.035.663-1.448.078.035-.043.094a.421.421 0 0 0-.047.214.228.228 0 0 0 .059.125c.027.031.109.078.246.14l1.814.84c.14.058.234.09.277.09a.238.238 0 0 0 .137-.051.399.399 0 0 0 .12-.164l.044-.09.078.035-.664 1.444Zm1.51-3.313a1.864 1.864 0 0 1-.503.734 1.345 1.345 0 0 1-.734.331 1.493 1.493 0 0 1-.796-.093 1.608 1.608 0 0 1-.683-.52 1.629 1.629 0 0 1-.335-.792 1.631 1.631 0 0 1 .105-.843 1.75 1.75 0 0 1 .383-.577.92.92 0 0 0 .171-.21.194.194 0 0 0 0-.133c-.02-.051-.066-.09-.132-.125l.035-.086.975.394-.03.082c-.278-.043-.52-.008-.723.105a.952.952 0 0 0-.433.484.901.901 0 0 0-.039.546.936.936 0 0 0 .27.48c.171.176.39.309.651.41.25.098.492.156.726.18.234.015.43-.024.59-.114.16-.093.28-.245.366-.464.074-.171.097-.351.082-.53-.02-.18-.09-.395-.215-.629l.242.098c.102.226.156.433.164.632 0 .195-.043.41-.136.64Zm1.456-4.097-3.048 1.15 1.834.61c.168.054.29.054.375 0a.467.467 0 0 0 .172-.235l.023-.07.082.023-.34 1.027-.081-.028c.054-.16.058-.277.015-.362-.047-.086-.144-.153-.296-.203l-2.033-.675-.098.035a.665.665 0 0 0-.203.113.473.473 0 0 0-.11.191l-.077-.027.34-1.03 2.259-.832-1.237-.406c-.172-.062-.3-.07-.379-.038-.101.038-.18.14-.23.3l-.078-.027.316-.956.078.027c-.023.133-.031.219-.02.265a.235.235 0 0 0 .086.137c.047.043.14.082.278.133l2.4.792-.028.085Zm.172-.78-.082-.017.027-.101a.411.411 0 0 0 .012-.215c-.008-.043-.04-.082-.082-.117-.031-.027-.117-.062-.266-.101l-1.927-.527a2.145 2.145 0 0 0-.246-.062.224.224 0 0 0-.14.054.385.385 0 0 0-.125.203l-.028.102-.082-.028.675-2.446.867.238-.02.082c-.226-.016-.394 0-.507.05a.674.674 0 0 0-.293.266c-.047.074-.101.222-.164.44l-.082.301 1.19.328.016-.059c.05-.19.031-.34-.062-.452-.094-.114-.25-.211-.472-.3l.023-.083 1.534.43-.024.078a1.28 1.28 0 0 0-.437-.008.529.529 0 0 0-.27.136.826.826 0 0 0-.144.3l.824.235c.164.043.261.062.3.059a.144.144 0 0 0 .11-.051.35.35 0 0 0 .082-.172l.046-.175c.075-.274.075-.508-.007-.71-.082-.204-.242-.375-.484-.516l.023-.082.894.39-.68 2.53Zm1.553-15.91c-.511-.211-1.16-.57-1.241-1.183-.063-.433.515-.706.894-.679.558.043.725.593.909 1.077-.152.313-.223.921-.562.785Zm.769-2.392c-.469-.246-.859-.375-1.41-.203-.428.132-.608-.418-.893-.664-.355-.304.067-.37.152-.57.195-.456.355-.909.738-1.26.28-.261.577-.425.851-.078.242.316.245.714-.133.968-.23.156-.73.156-.503.542.152.258.612.36.987.234.253-.081.492-.238.749-.284.406-.075.636.128.648.46-.024.753-.601 1.163-1.186.855Z"/><path d="M66.094 20.052C41.119 18.842 19.903 38.872 20 63.726c.168 12.16 4.453 22.57 13.163 31.105 8.686 8.514 19.124 12.635 31.237 12.654 22.695.051 43.486-18.617 43.6-43.505.105-23.636-18.567-42.796-41.906-43.928Zm-2.627 85.697c-11.457-.121-21.43-4.417-29.516-12.706-7.879-8.066-11.824-17.837-11.953-29.188-.261-22.723 18.809-43.346 44.415-42.059 20.835 1.05 39.69 18.415 39.593 41.938.167 23.23-18.887 42.265-42.539 42.015Z"/></g><defs><filter id="a" x="-13" y="0" width="154" height="157" filterUnits="userSpaceOnUse" color-interpolation-filters="sRGB"><feFlood flood-opacity="0" result="BackgroundImageFix"/><feColorMatrix in="SourceAlpha" values="0 0 0 0 0 0 0 0 0 0 0 0 0 0 0 0 0 0 127 0" result="hardAlpha"/><feOffset dy="16"/><feGaussianBlur stdDeviation="6.5"/><feColorMatrix values="0 0 0 0 0 0 0 0 0 0 0 0 0 0 0 0 0 0 0.03 0"/><feBlend in2="BackgroundImageFix" result="effect1_dropShadow_49_8325"/><feBlend in="SourceGraphic" in2="effect1_dropShadow_49_8325" result="shape"/></filter></defs></svg>