<?xml version="1.0" encoding="UTF-8"?>
<svg xmlns="http://www.w3.org/2000/svg" version="1.1" viewBox="0 0 128 38.9">
  <defs>
    <style>
      .cls-1 {
        fill: #1b1918;
      }

      .cls-1, .cls-2 {
        fill-rule: evenodd;
      }

      .cls-2 {
        fill: #ae1623;
      }
    </style>
  </defs>
  <!-- Generator: Adobe Illustrator 28.7.1, SVG Export Plug-In . SVG Version: 1.2.0 Build 142)  -->
  <g>
    <g id="_图层_1" data-name="图层_1">
      <path class="cls-1" d="M27.5,29.2s0,0,.1.1c0,0,0,.1,0,.2,0,0,0,.1,0,.2,0,.1-.1.2-.2.3-.2,0-.3,0-.5,0,0,0,0,0-.1-.1,0,0,0-.1,0-.2,0,0,0-.1,0-.2,0,0,0-.1,0-.2,0,0,.2-.1.3-.2.1,0,.2,0,.3,0h0ZM35,23.1s0,0,0,0c0,0,0,0,0,0h0c0,0,0,.1,0,.2v.2c.1,0,.1,0,.2,0,0,0,0,0,0,0h.2c0,0,0,0,0,0,0,0,0,0,0,0,0,0,0,0,0,0,0,0,0,0,0,0h0s-.2.4-.2.4h0s0,0,0,0c0,0,0,0,0,0,0,0,0,0,0,0,0,0,0,0,0,0h-.2c0,0,0,0,0,0,0,0,0,0,0,0-.1,0-.2,0-.3,0,0,0,0,0,0,0,0,0,0,0,0,0,0,0,0,0,0,0,0,0,0,0,0,0h0s.2-.4.2-.4h0s0,0,0,.1c0,0,0,0,0,0,0,0,0,0,0,0,0,0,0,0,0,0h0c0,0,.2,0,.3,0,0-.1-.1-.2-.2-.2,0,0,0,0,0,0,0,0,0,0,0,0,0,0,0,0,0,0,0,0,0,0,0,0,0,0,0,0,0,0h0s.1-.3.1-.3c0,0,0,0,0,0ZM35.1,24.1h0c0,0,0,0,0,0,0,0,0,0,0,0,0,0,0,0,0,0h0s0,0,0,0h0c0,0,0,.1,0,.2,0,0,0,.1,0,.2,0,0-.1.2-.2.2,0,0-.1,0-.2,0,0,0-.1,0-.2,0,0,0-.1,0-.2-.1,0,0,0,0,0-.2,0-.1,0-.2,0-.3,0,0,0-.1.2-.2h0s0,0,0,0h.3c0,.1,0,.2,0,.2,0,0,0,0-.1,0,0,0,0,0-.1,0,0,0-.1,0-.2.1,0,0,0,0,0,.1,0,0,0,0,0,.1,0,0,0,0,0,.1,0,0,.2.1.3.2,0,0,0,0,.1,0,0,0,.2,0,.2-.1,0,0,0,0,0,0,0,0,0,0,0,0,0,0,0,0,0,0h0s0,0,0,0c0,0,0,0,0,0,0,0,0,0,0,0,0,0,0,0,0,0,0,0,0,0,0,0h0s.2-.4.2-.4c0,0,0,0,0,0ZM34.2,24.8c0,0,.1,0,.2,0,0,0,.1,0,.2,0,0,0,.1,0,.1.1,0,0,0,.2,0,.3,0,.1,0,.2-.2.3,0,0-.1,0-.2,0,0,0-.1,0-.2,0,0,0-.1,0-.2,0,0,0-.1,0-.1-.1,0,0,0-.1,0-.2,0-.1,0-.2,0-.3,0,0,.2-.2.3-.2ZM34.7,25.3s0,0,0-.1c0,0,0,0-.1-.1,0,0,0,0-.1,0,0,0,0,0-.1,0,0,0-.2,0-.2.1,0,0,0,0,0,.1,0,0,0,0,0,.1,0,0,0,0,0,.1,0,0,.2.1.3.2,0,0,0,0,.1,0,0,0,.2,0,.2-.1,0,0,0-.2,0-.2ZM34.2,25.8l.2.2-.4.5h0s0,0,0,0c0,0,0,0,0,0,0,0,0,0,0,0,0,0,0,0,0,0l-.5-.4s0,0,0,0c0,0,0,0,0,0,0,0,0,0,0,0h0s.2-.3.2-.3h0c0,0,0,0,0,.1,0,0,0,0,0,0,0,0,0,0,0,0l.5.4s0,0,0,0c0,0,0,0,0,0,0,0,0,0,0,0,0,0,0-.1.1-.2,0,0,0,0,0,0,0,0,0,0,0-.1,0,0,0,0,0,0,0,0,0,0,0,0ZM33.2,26.2c0,0,.1,0,.2,0,0,0,.1,0,.2.1,0,0,0,.1.1.2,0,.1,0,.2,0,.3,0,0,0,0,0,.1,0,0-.2.1-.3.1,0,0-.1,0-.2,0,0,0-.1,0-.2-.1,0,0,0-.1-.1-.2,0,0,0-.1,0-.2,0-.1,0-.2.1-.3,0,0,.2-.1.3-.1ZM33.6,26.7s0,0,0-.1c0,0,0,0-.1-.1,0,0,0,0-.1-.1,0,0,0,0-.1,0,0,0-.2,0-.2,0,0,0,0,0,0,.1,0,0,0,0,0,.1,0,0,0,0,0,.1,0,0,.1.2.2.2,0,0,0,0,.1,0,0,0,0,0,.1,0,0,0,0,0,.1,0,0,0,0-.1,0-.2ZM32.6,26.7s0,0,0,0c0,0,0,0,0,0,0,0,0,0,0,0,0,0,0,0,0,0l.4.5h0s-.9-.2-.9-.2l.3.3s0,0,0,0c0,0,0,0,0,0,0,0,0,0,.1,0h0s-.3.3-.3.3h0c0,0,0,0,0-.1,0,0,0,0,0,0,0,0,0,0,0,0l-.3-.3s0,0,0,0c0,0,0,0,0,0,0,0,0,0,0,0,0,0,0,0,0,0h0s.2-.2.2-.2l.8.2-.3-.3s0,0,0,0c0,0,0,0,0,0,0,0,0,0-.1,0h0s.3-.3.3-.3h0s0,0,0,0ZM32.3,28l-.3.2h0s0,0,0,0c0,0,0,0,0,0,0,0,0,0,0,0,0,0,0,0,0,0l-.2-.3-.3.2.2.3s0,0,0,0c0,0,0,0,0,0,0,0,0,0,0,0,0,0,0,0,0,0h0s-.3.2-.3.2h0s0,0,0,0c0,0,0,0,0,0,0,0,0,0,0,0,0,0,0,0,0,0l-.4-.5s0,0,0,0c0,0,0,0,0,0,0,0,0,0,0,0h0s.3-.2.3-.2h0c0,0,0,0,0,0,0,0,0,0,0,0,0,0,0,0,0,0l.2.2.3-.2-.2-.2s0,0,0,0c0,0,0,0,0,0,0,0,0,0,0,0,0,0,0,0,0,0h0s.3-.2.3-.2h0c0,0,0,0,0,0,0,0,0,0,0,0,0,0,0,0,0,0l.4.5s0,0,0,0c0,0,0,0,0,0,0,0,0,0,0,0,0,0,0,0,0,0ZM30.6,28.8v.2c0,0-.6.3-.6.3h0c0,0,0,0,0,0,0,0,0,0,0,0,0,0,0,0,0,0l-.3-.6s0,0,0,0c0,0,0,0,0,0,0,0,0,0,0,0h0s.6-.3.6-.3v.2c0,0,0,0,0,0,0,0,0,0,0,0,0,0,0,0,0,0,0,0,0,0-.1,0h-.1c0,0,.1.4.1.4h0c0,0,0,0,0,0,0,0,0,0,0,0,0,0,0,0,0,0,0,0,0,0,0,0h0s.1.3.1.3h0s0,0,0,0c0,0,0,0,0,0,0,0,0,0,0,0h0s.1.3.1.3c0,0,0,0,0,0,0,0,0,0,0,0,0,0,0,0,0,0,0,0,0,0,0,0h0s0,0,0,0c0,0,0,0,0,0,0,0,0-.1,0-.2,0,0,0,0,0,0ZM29.7,28.7h0s0,0-.1-.1c0,0,0,0,0,0,0,0,0,0,0,0h0s.2.7.2.7c0,0,0,0,0,0,0,0,0,0,0,0,0,0,0,0,0,0,0,0,0,0,0,0h0s-.4.2-.4.2h0s0,0,0,0c0,0,0,0,0,0,0,0,0,0,0,0,0,0,0,0,0,0l-.2-.7h0s0,0,0,0c0,0,0,0,0,0,0,0,0,0,0,.1,0,0,0,0,0,0h0s0-.2,0-.2l.7-.3v.2q0,0,0,0ZM28.4,29.2h0s0,0,0,0c0,0,0,0,0,0,0,0,0,0-.1,0h-.1s0,.4,0,.4h.1s0,0,0,0c0,0,0,0,0,0,0,0,0,0,0,0,0,0,0,0,0,0h0s0,.3,0,.3h0s0,0,0,0c0,0,0,0,0,0,0,0,0,0,0,0h-.1s0,.3,0,.3c0,0,0,0,0,0,0,0,0,0,0,0,0,0,0,0,0,0h0s-.4.1-.4.1h0s0,0,0,0c0,0,0,0,0,0,0,0,0,0,0,0,0,0,0,0,0,0v-.6c-.1,0-.1,0-.1,0,0,0,0,0,0,0,0,0,0,0,0,0h0s.7-.2.7-.2v.2s0,0,0,0ZM24.6,30h-.4c0,0,0,0,0,0h0s0,0,0,0c0,0,0,0,0,0,0,0,0,0,0,0v-.6c0,0,0,0,0,0,0,0,0,0,0,0,0,0,0,0,0,0h0s.4,0,.4,0h0s0,0,0,0c0,0,0,0,0,0,0,0,0,0,0,0v.6c0,0,0,0,0,0,0,0,0,0,0,0,0,0,0,0,0,0,0,0,0,0,0,0h0s0,0,0,0ZM22.6,29.2v.2c-.1,0-.8-.3-.8-.3h0s0,0,0,0c0,0,0,0,0,0,0,0,0,0,0,0l.2-.6s0,0,0,0c0,0,0,0,0,0,0,0,0,0,0,0h0s.6.2.6.2v.2c0,0-.1,0-.1,0,0,0,0,0,0-.1,0,0,0,0,0,0,0,0,0,0,0,0h-.1c0,0-.1.3-.1.3h0s0,0,0,0c0,0,0,0,0,0,0,0,0,0,0,0,0,0,0,0,0,0h0s-.1.3-.1.3h0c0,0,0,0,0-.1,0,0,0,0,0,0,0,0,0,0,0,0h0s0,.2,0,.2c0,0,0,0,0,0,0,0,0,0,0,0,0,0,0,0,0,0,0,0,0,0,0,0h0s0,0,.1,0c0,0,0,0,0,0,0,0,.1,0,.2-.1,0,0,0,0,0,0ZM20.8,28.7l-.3-.2h0s0,0,0,0c0,0,0,0,0,0,0,0,0,0,0,0,0,0,0,0,0,0l.3-.6s0,0,0,0c0,0,0,0,0,0,0,0,0,0,0,0h0s.3.2.3.2h0s0,0,0,0c0,0,0,0,0,0,0,0,0,0,0,0l-.3.6s0,0,0,0c0,0,0,0,0,0,0,0,0,0,0,0,0,0,0,0,0,0,0,0,0,0,0,0ZM18.3,26.3l-.2.2-.5-.6h0s0,0,0,0c0,0,0,0,0,0,0,0,0,0,0,0l.5-.4s0,0,0,0c0,0,0,0,0,0,0,0,0,0,0,0h0s.4.5.4.5h-.2c0,.1,0,0,0,0,0,0,0,0,0-.1,0,0,0,0,0,0,0,0,0,0,0,0h0c0-.1-.3.1-.3.1h0c0,0,0,.1,0,.1,0,0,0,0,0,0,0,0,0,0,0,0,0,0,0,0,0,0h0s-.3.3-.3.3h0c0,0,0,0,0-.1,0,0,0,0,0,0,0,0,0,0,0,0h0c0,0-.2,0-.2,0,0,0,0,0,0,0,0,0,0,0,0,0,0,0,0,0,0,0s0,0,0,0h0c0,0,0,0,0,.1,0,0,0,0,0,0,0,0,.1,0,.2,0h0s0,0,0,0ZM31.2,28.8c0,0-.2,0-.3,0,0,0-.1,0-.1,0,0,0,0,0-.1-.2,0,0,0-.1,0-.2,0,0,0-.1,0-.2,0-.1.1-.2.2-.3,0,0,.1,0,.2,0h0s0,0,0,0v.3c.1,0,.1,0,.1,0,0,0,0,0,0,0,0,0,0,0,0,0,0,0,0,0,0,0,0,0,0,0,0,0,0,0-.1.1-.1.2,0,0,0,0,0,.1,0,.1,0,.2.2.3,0,0,0,0,.1,0,0,0,0,0,.1,0,.1,0,.2,0,.2-.2,0,0,0-.1,0-.2h0c0,0,0,.2,0,.2,0,0,0,.1-.2.1h0ZM16.6,24.4l-.2-.3h0s0,0,0,0c0,0,0,0,0,0,0,0,0,0,0,0,0,0,0,0,0,0h.3c0-.1-.2-.5-.2-.5h-.3c0,.1,0,.1,0,.2,0,0,0,0,0,0,0,0,0,0,0,0h0s-.2-.3-.2-.3h0s0,0,0,0c0,0,0,0,0,0,0,0,0,0,0,0,0,0,0,0,0,0l.6-.3s0,0,0,0c0,0,0,0,0,0,0,0,0,0,0,0h0s.2.3.2.3h0s0,0,0,0c0,0,0,0,0,0,0,0,0,0,0,0h-.3c0,.1.2.5.2.5h.2c0-.1,0-.1,0-.1,0,0,0,0,0,0,0,0,0,0,0,0h0s.2.3.2.3h0s0,0,0,0c0,0,0,0,0,0,0,0,0,0,0,0l-.6.3s0,0,0,0c0,0,0,0,0,0,0,0,0,0,0,0h0s0,0,0,0ZM17.3,25h-.2c0,.1-.4-.5-.4-.5h0s0,0,0,0c0,0,0,0,0,0,0,0,0,0,0,0l.5-.3s0,0,0,0c0,0,0,0,0,0,0,0,0,0,0,0h0s.3.6.3.6h-.2c0,.1,0,0,0,0,0,0,0,0,0,0,0,0,0,0,0,0,0,0,0,0,0,0h0c0-.1-.3,0-.3,0h0c0,.1,0,.1,0,.1,0,0,0,0,0,0,0,0,0,0,0,0,0,0,0,0,0,0h0s-.3.2-.3.2h0c0,0,0,0,0-.1,0,0,0,0,0,0,0,0,0,0,0,0h0c0,0-.2,0-.2,0,0,0,0,0,0,0,0,0,0,0,0,0,0,0,0,0,0,0,0,0,0,0,0,0h0c0,0,0,.1,0,.1,0,0,0,0,0,0,0,0,.1,0,.2,0,0,0,0,0,0,0ZM18.1,25.4h0c0,0,0-.1,0-.1,0,0,0,0,0,0,0,0,0,0,0,0h0c0-.1-.3,0-.3,0h0c0,.1,0,.1,0,.1,0,0,0,0,0,0,0,0,0,0,0,0,0,0,0,0,0,0h0s-.3.2-.3.2h0c0,0,0,0,0-.1,0,0,0,0,0,0,0,0,0,0,0,0h0c0,0-.2,0-.2,0,0,0,0,0,0,0,0,0,0,0,0,0,0,0,0,0,0,0h0s-.2-.3-.2-.3h0s0,0,0,0c0,0,0,0,0,0,0,0,0,0,0,0,0,0,0,0,0,0l.5-.4s0,0,0,0c0,0,0,0,0,0,0,0,0,0,0,0h0s.4.5.4.5c0,0-.2.1-.2.1ZM18.5,26.9l-.3-.3h0s0,0,0,0c0,0,0,0,0,0,0,0,0,0,0,0,0,0,0,0,0,0l.5-.4s0,0,0,0,0,0,0,0c0,0,0,0,0,0h0s.3.3.3.3h0s0,0,0,0c0,0,0,0,0,0,0,0,0,0,0,0l-.5.4s0,0,0,0c0,0,0,0,0,0,0,0,0,0,0,0,0,0,0,0,0,0h0s0,0,0,0ZM20.1,27.2s0,0,0,0c0,0,0,0,0,0,0,0,0,0,0,0,0,0,0,0,0,0l-.2.3c0,0-.1.1-.2,0,0,0,0,0-.1,0,0,0-.1,0-.2-.2,0,0,0,0,0-.1,0,0,0-.1,0-.2l.3-.4s0,0,0,0c0,0,0,0,0,0,0,0,0,0,0,0h0s.3.2.3.2h0s0,0,0,0c0,0,0,0,0,0,0,0,0,0,0,0l-.3.4s0,0,0,0c0,0,0,.1,0,.2,0,0,0,0,0,0,0,0,0,0,.1,0,0,0,0,0,0,0,0,0,0,0,0,0,0,0,0,0,0,0l.2-.3s0,0,0,0c0,0,0,0,0,0,0,0,0,0,0,0,0,0,0,0,0,0h0s.3.2.3.2h.2c0,.1,0,1,0,1l.2-.3s0,0,0-.1c0,0,0,0,0,0,0,0,0,0,0,0h0s.3.2.3.2h0s0,0,0,0c0,0,0,0,0,0,0,0,0,0,0,0,0,0,0,0,0,0l-.4.5h0s0-.9,0-.9l-.3.4s0,0,0,0c0,0,0,0,0,0,0,0,0,0,0,0h0s-.3-.2-.3-.2h0s0,0,.1,0c0,0,0,0,0,0,0,0,0,0,0,0l.2-.3s0,0,0,0c0,0,0,0,0,0,0,0,0,0,0,0,0,0,0,0,0,0h0ZM22.1,28.4s0,0,0,0c0,0,0,0,0,0,0,0,0,0,0,0,0,0-.1.1-.2.2l-.3.3h0s0-.5,0-.5v-.3s0,0,0,0c0,0,0,0,0,0,0,0,0,0,0,0h0s.3.1.3.1h0s0,0,0,0c0,0,0,0,0,0,0,0,0,0,0,0,0,.2,0,.4,0,.6.1-.1.3-.2.4-.3,0,0,0,0,0,0,0,0,0,0,0,0,0,0,0,0,0,0,0,0,0,0,0,0,0,0,0,0,0,0h0s.3.1.3.1h0s0,0,0,0ZM23.4,29.8h-.2c0-.2-.1-.4-.2-.5h0s0,.2,0,.2c0,0,0,0,0,0,0,0,0,0,0,0,0,0,0,0,0,0h0s-.4,0-.4,0h0s0,0,0,0c0,0,0,0,0,0,0,0,0,0,0,0,0,0,0,0,0,0l.2-.6s0,0,0,0c0,0,0,0,0,0,0,0,0,0,0,0h0s.4,0,.4,0c0,0,0,0,.1,0,0,0,0,0,0,0,0,0,0,0,0,0,0,0,0,.1,0,.2,0,0,0,0,0,0,0,0,0,0,0,0,0,0,0,0,0,0v.2c0,0,.1.2.1.2,0,0,0,0,0,.1,0,0,0,0,0,0,0,0,0,0,0,0h0s0,0,0,0ZM23.3,29s0,0,0-.1c0,0,0,0-.1,0h-.1s-.1.3-.1.3h0c0,0,.1,0,.2,0,0,0,0,0,0-.1ZM24.1,29.5s0,0,0,0c0,0,0,0,0,0,0,0,0,.1-.1.2,0,0-.1,0-.2,0,0,0-.1,0-.2-.1h0s0,0,0,0v-.3s0,0,0,0c0,0,0,0,0,.1,0,0,0,0,0,0,0,0,0,0,.2.1,0,0,0,0,0,0,0,0,0,0,0,0,0,0,0,0,0,0,0,0,0-.1,0-.2,0,0,0,0,0,0,0,0,0,0,0,0,0,0,0,0,0,0,0,0,0,0,0-.1,0,0,0,0,0-.1,0,0,0-.1.1-.2,0,0,.1,0,.2,0,0,0,0,0,.1,0,0,0,0,0,0,0h0s0,0,0,0v.3s0,0,0,0c0,0,0,0,0,0,0,0,0,0,0,0,0,0,0,0,0,0,0,0,0,0,0,0,0,0,0,0-.1,0,0,0,0,0,0,0,0,0,0,0,0,0,0,0,0,0,0,0,0,0,0,0,0,0,0,0,0,0,.1,0,0,0,0,0,0,0ZM25.5,29.4h0c0,0,0-.1,0-.2,0,0,0,0,0,0,0,0,0,0-.1,0h0s0,.7,0,.7c0,0,0,0,0,0,0,0,0,0,0,0,0,0,0,0,.1,0h0s-.4,0-.4,0h0s0,0,0,0c0,0,0,0,0,0,0,0,0,0,0,0,0,0,0,0,0,0v-.7s0,0,0,0c0,0,0,0-.1,0,0,0,0,0,0,0,0,0,0,0,0,.1,0,0,0,0,0,0h0s0-.2,0-.2h.7c0,0,.4,0,.4,0h0s0,0,0,0c0,0,0,0,0,0,0,0,0,0,0,0h0c0,0,0,0,0,0,0,0,0,.2.1.3,0-.1.1-.2.2-.2,0,0,0,0,0-.1,0,0,0,0,0,0,0,0,0,0,0,0,0,0,0,0,0,0,0,0,0,0,0,0h0s.3,0,.3,0h0s0,0,0,0c0,0,0,0,0,0,0,0,0,.1-.1.2v.2c-.1,0-.1,0-.1,0,0,0,0,0,0,0v.2s0,0,0,0c0,0,0,0,0,0,0,0,0,0,0,0,0,0,0,0,0,0h0s-.4,0-.4,0h0s0,0,0,0c0,0,0,0,0,0,0,0,0,0,0,0,0,0,0,0,0,0v-.2s0,0,0,0c0-.1-.1-.2-.2-.4,0,0,0,0,0,0,0,0,0,0,0,0,0,0,0,0,0,0v.2s0,0,0,0ZM27.4,29.8s0,0,0-.1c0,0,0-.1,0-.2,0,0,0-.1,0-.2,0,0,0,0,0-.1,0,0-.1-.1-.2,0,0,0,0,0-.1,0,0,0,0,0,0,0,0,0,0,0,0,.1,0,.1,0,.2,0,.3,0,0,0,0,0,.1,0,0,0,0,0,0,0,0,0,0,.1,0,0,0,.2,0,.2-.1ZM17,16.1c0-.2,0-.3-.1-.4,0,0,0,0,0,0v-.2c0-.2-.1-.4-.2-.5,0-.2-.2-.2-.2-.3,0-.2-.2-.3-.2-.6,0,0,0-.1.1-.2.2,0,.3.1.4.3,0,0,.1,0,.2,0,.1,0,.3-.1.5-.2,0,0,.1,0,.2,0,.2-.2.5-.5.6-.5,0,0,.1,0,.1.2,0,.2-.1.3-.3.5,0,0,0,0-.1,0-.2,0-.3,0-.5.2h0s0,0,0,0h0s0,0,0,0h0c-.2,0-.3,0-.3.3h0c0,.2,0,.2,0,.2h0c0,0,0,.1,0,.1h0c0,0,0,.2,0,.2h0c0,0,0,.1,0,.2v.2c0,0,0,.1,0,.2h0s0,0,0,0h0c0,0,0,0,0,0,0,0,0,0,0,0h0c0,0,0,.1,0,.1h0c0,0,0,.1,0,.1h0s0,0,0,0h0s0,0,0,0ZM17.5,14.9h0s0,0,0,0h0c0,0,0-.1,0-.1h0s0,0,0,0h0s0,0,0,0c0,0,0-.1.1-.2h0s0,0,0,0h0s0,0,0,0h0s0,0,0,0h0s0,0,0,0h0s0,0,0,0h0s0,0,0,0h0s0,0,0,0h0s0,0,0,0h0s0,0,0,0ZM17.5,15.1h0s.1-.2.1-.2h0s0-.1,0-.1h0s0,0,0,0h0c0,0,0,0,0,0h0s0,0,0,0h0s0,.1,0,.1h0s0,0,0,0h0s0,0,0,0h0c0,.1,0,.2-.1.2h0s0,0,0,0h0s0,0,0,0h0s0,0,0,0c-.1,0-.2,0-.4,0h0s0,0,0,0h0s0,0,0,0c0,0,0,0,0,0ZM17.8,15.1h0s0,0,0,0h0s0,0,0,0h0s0,0,0,0h0s0,0,0,0h0s0,0,0,0h0s0,0,0,0h0s0,0,0,0h0s0,0,0,0c0,0,0,0,0,0ZM20.2,12.6h0s0-.1,0-.1h0c0,0,0-.1,0-.1h0c0,0,0-.2,0-.2h0c0,0,0-.2,0-.2h0s0,0,0,0h0s0,0,0,0h0s0,0,0,0h0c0,0,0-.1,0-.1h0c0,0,0,0,0,0h0c0,0,0-.1,0-.1h0c0,0,0,0,0,0h0s0,0,0,0h0c0,0,0-.1,0-.1h0c0,0,0-.3,0-.4,0,0,.1-.1.1-.1h0c0-.1.1-.2.2-.2h0s0,0,0,0h0c0,0,0,.1,0,.1h0s0,0,0,0h0c0,0,0,.1,0,.1h0c0,0,0,.2,0,.2h0c0,0,0,.1,0,.1l.2.2h0c0,0,0,.1,0,.1h0c0,0,0,0,0,0,0,0,0,0,.1,0,0,0,0,.2,0,.2h0s0,0,0,0h0s0,0,0,0h0c0,0,0-.1,0-.1h0s0,0,0,0h0s0,0,0,0h0s0,0,0,0h0c0,0,0,.2,0,.2h0c0,0,0,.1,0,.1h0c0,0,0,.1,0,.1h0c0,0,0,.1,0,.1h0s0,.1,0,.1h0s0,0,0,0h0c0,0,0,0,0,0h0s0,0,0,0h0c0,0,0,.1,0,.1h0s0,0,0,0ZM20.4,11.1h0s0,0,0,0h0s0-.1,0-.1c0,0,0-.2,0-.3h0c0-.1,0-.2,0-.2,0,0,0,0,.1-.1h0s0,0,0,0c.1,0,.1,0,.1.2h0c0,.1,0,.2,0,.2h0c0,0,0,.2,0,.2h0v.2h0c0,0,0,.2,0,.2h0c0,.2.1.2.2.2h.1c0,0,.1-.2.1-.2,0,0,.1,0,.2-.1h0c0,0,0-.1,0-.1,0,0,0,0,0,0h0c0,0,0-.2,0-.2h0s0,0,0,0h0s0,0,0,0h0s0,0,0,0h0s0,0,0,0h0s0,0,0,0h0s0,0,0,0h0c0,0,.1,0,.1.2h0s0,.1,0,.1h0c0,0,0,.1,0,.1h0s0,.1,0,.1h0s0,0,0,0h0s0,0,0,0h0s0,0,0,0h0s0,0,0,0h0s0,0,0,0h0s0,0,0,0h0s0,0,0,0h0s0,0,0,0h0s0-.1,0-.1h0c0,0,0,0,0,0h0s0,0,0,0h0c0,0,0-.1,0-.1h0s0,0,0,0c0,0,0,0,0,0ZM20.4,10.6h0c0,0,0,0,0,0h0s0,0,0,0h0s0,0,0,0h0s0,0,0,0h0s0,0,0,0h0s0,0,0,0h0s0,0,0,0h0s0,0,0,0h0s0,0,0,0h0ZM20.5,10.9h0s0,0,0,0h0s0,0,0,0h0s0,0,0,0h0s0,0,0,0h0s0,0,0,0h0s0,0,0,0h0s0,0,0,0h0s0,0,0,0h0ZM20,11.3h0s0,0,0,0h0s0,0,0,0h0s0,0,0,0h0s0,0,0,0h0s0,0,0,0h0s0,0,0,0h0s0,0,0,0h0s0,0,0,0h0s0,0,0,0ZM19.8,10.9h0s0,0,0,0h0s0,0,0,0h0s0,0,0,0h0s0,0,0,0h0s0,0,0,0h0s0,0,0,0h0s0,0,0,0h0s0,0,0,0h0s0,0,0,0h0s0,0,0,0c0,0,0,0,0,0ZM24,9.3h0c0,0,0,0,0,0h0s0,0,0,0h0s0,0,0,0h0s0,0,0,0h0c.2,0,.3-.1.4-.1,0,0,.1,0,0,.2h0c0,0,0,.2,0,.2h0s0,0,0,0h0s0,0,0,0h0s0,.1,0,.1h0c0,0,0,.1,0,.1h0c0,0,0,0,0,0h0s0,0,0,0h0s0,0,0,0h0s0,0,0,0h0c0,0,0,.1,0,.1h0s0,0,0,0h0s0,0,0,0h0s0,0,0,0h0s0,0,0,0h0s0,0,0,0h0s0,0,0,0c.1,0,.3,0,.3.2h0s0,0,0,0h0s0,0,0,0h0s0,0,0,0h-.1s0,0,0,0h0s0,0,0,0h0s0,0,0,0h0s0,0,0,0h0s0,0,0,0h0s0,0,0,0h-.1s0,0,0,0h0s0,0,0,0h0s0,0,0,0h0s0,0,0,0h0c0,0,0,.1-.1.2h0s0,0,0,0h0s0,0,0,0h0s0,0,0,0h0s0,0,0,0h0s0,0,0,0h0c0,0,0-.1,0-.1h0s0,0,0,0h0s0,0,0,0h0s0,0,0,0h0s0,0,0,0h0s0,0,0,0h0s0,0,0,0h0c0,0,0,0,0,0h0s0,0,0,0h0s0,0,0,0h0s0,0,0,0h0s0,0,0,0h0s0,0,0,0h0s0,0,0,0h0s0,0,0,0h0s0,0,0,0h0s0,0,0,0h0s0,0,0,0h0s0,0,0,0h0s0,0,0,0ZM27.9,9.4h0s0,0,0,0h0s0,0,0,0h0s0,0,0,0h0s0,0,0,0h0s0,0,0,0c0,0,0,0,.1,0h0s0-.2,0-.2h0c0-.2.2-.3.2-.3,0,0,.2,0,.2,0h0c0,0,0,.2,0,.2h0s0,0,0,0h0s0,0,0,0h0c0,0,0-.1,0-.1,0,0,.2,0,.2,0,0,0,0,.1,0,.3h0s0,0,0,0h0c0,0,0,0,0,.1,0,0,0,.1-.1,0h-.2c0,0,0,0,0,.1h0s0,0,0,0h0s0,0,0,0h0c0,0,0,.2,0,.2h0s0,0,0,0h-.2c0,0,0,.2,0,.2-.2,0-.3.1-.2.3,0,.1,0,.2-.2.2,0,0,0,0,0,0,0,0,0,0,0,0,0,.3,0,.5-.2.5,0,0,0,0,0,0h-.1c0-.1,0-.2,0-.2h0s0,0,0,0c0,0,0,0,0-.1h0c0,0,0-.1,0-.1,0,0,.2,0,.2,0h0s0,0,0,0h0c0,0,0,.1,0,.1h0s0,0,0,0h0s0,0,0,0c0,0,0,0,0-.1h0s0,0,0,0c0,0,0,0,0,0h0c0-.1,0-.2,0-.3h0c0,0,0-.1,0-.1h0s0,0,0,0h0c0,0,0-.1,0-.1h0s0,0,0,0h0s0,0,0,0c0,0,0,0,0,0,0,.1,0,.2.2,0h0s.1,0,.1,0h0s0,0,0,0h0s0,0,0,0h0s0,0,0,0h0s0,0,0,0h0s0,0,0,0h0s0,0,0,0h0s-.2,0-.2,0h-.2s0,0,0,0h0s0,0,0,0c0,0,0,0,0,0h0s0,0,0,0h0s0,0,0,0h0s0,0,0,0c-.3,0-.4,0-.4,0,0,0,.1,0,.2,0,0,0,.1,0,.2,0h0s0,0,0,0h.1s0,0,0,0h0s0,0,0,0ZM28.7,10.5h0s0,0,0,0h0s0,0,0,0h0s0,0,0,0h0s0,0,0,0h0s0,0,0,0h0s0,0,0,0h0s0,0,0,0h0s0,0,0,0h0s0,0,0,0h0s0,0,0,0h0s0,0,0,0h0s0,0,0,0h0s0,0,0,0h0c0,0,0,0,0,0h0s0,0,0,0h0s0,0,0,0ZM28.1,9.4h0s0,0,0,0h0s0,0,0,0h0c0,0,0,0,0,0h0s0,0,0,0h0s0,0,0,0ZM28.6,9.3h0s0,0,0,0h0c0,0,0,0,0,0h0s0,0,0,0h0s0,0,0,0h0s0,0,0,0h0s0,0,0,0h0s0,0,0,0h0s0,0,0,0ZM31.5,10.7h.2c0,0,0,0,0,0h0s0,0,0,0h0s0,0,0,0c0,0,.2-.1.3-.2,0,0,.1,0,.2,0,0,0,0,.2-.1.3,0,0,0,0,0,0,0,0,0,0,0,.1,0,0,0,.2-.3.1h-.1s0,0-.1,0c0,0,0,0,0,.1,0,.3.1.5.2.7,0,0,0,.1,0,.1,0,0,0,0,0,0,0,0,0,0,0,0,0,0,0,0,0,0,0,0,0,0,0,0,0,0-.2,0-.2-.1h0c0,0,0-.2,0-.2h0c0,0,0-.2,0-.2h0c0-.1,0-.2,0-.2h0c0,0,0-.1,0-.1h0c0-.1,0-.2,0-.2h0c0,0,0,0,0,0h0s0,0,0,0h-.3c0,.1-.1.2-.1.2h0s-.1,0-.1,0h0s0,0,0,0h0c0-.2,0-.2.1-.1h0s0,0,0,0h0s0,0,0,0h0s0,0,0,0h0s0,0,0,0h0s0,0,0,0h0s0,0,0,0c0,0,0,0,0-.2h-.1c0,0,0-.1,0-.1h0s0-.1,0-.1h0c0,0,0-.1,0-.1h0s0,0,0,0ZM34.9,14s0,0,0,0h.1c0-.1,0-.1,0-.1h0s0,0,0,0h0s0,0,0,0h0s0,0,0,0h0s0,0,0,0h0s0,0,0,0h0s0,.1,0,.1h0s0,0,0,0h0s0,0,0,0c0,0,0,0,.1,0h0s0,0,0,0h0s0,0,0,0h0s0,0,0,0h0c0,0,0,.1,0,.1h0s0,0,0,0h0s0,0,0,0c0,0,.2,0,.3,0,.1,0,.1.1,0,.2h0s0,0,0,0h0s0,.1,0,.1h-.1c-.1,0-.1,0-.3,0h0s0,0,0,0h0s0,0,0,0h0c0,.1,0,.2,0,.2h0c0,0,0,.1,0,.1-.1.2-.2.2-.4,0h0s0-.1,0-.1h0s0,0,0,0h0c0-.2.1,0,.2,0h0s0,0,0,0h0c0-.2-.1-.4-.3-.4h0c0,0,0,.1,0,.1h-.1c0,0,0,.1,0,.1h0c0,0,0,.1,0,.1h0s0,0,0,0h0c0,0,0,.1,0,.1h0c0,.1,0,.2-.1.2-.1,0-.1,0-.2,0,0,0-.2,0-.3,0,0,0-.1,0-.2-.1h0c0-.1,0-.2,0-.3,0,0,0,0,0-.1,0,0,.1-.1.2,0,0,0,0,0,0,.1h0c0,.1.1.1.2,0,0-.1,0-.2-.1-.3,0,0,0,0,0,0,0,0,0,0,.1,0h0c0,.1,0,.1.1,0h.1c0,0,0,0,0,0h0s0,0,0,0h0c0,0,0,0,0,0h0s0,0,0,0c0,0,0,0,0,0h0c0,0,0,0,0,0h0s0,0,0,0h0s0,0,0,0h0s0,0,0,0h0s0,0,0,0h0s0,0,0,0c0,0,0,0,0,0,0,0-.1-.2-.1-.2,0,0,0,0,.2,0,0,0,.1,0,.1.1h0s0,0,0,0h0s0,0,0,0h0s0,0,0,0h0s0,0,0,0h0s0,0,0,0h0s0,0,0,0h0s0-.1,0-.1h0ZM35.2,14.4h0c0,0,0,0,0,0h0s0,0,0,0h0s0,0,0,0h0s0,0,0,0h0s0,0,0,0h0s0,0,0,0h0s0,0,0,0h0s0,0,0,0h0s0,0,0,0h0s0,0,0,0h0s0,0,0,0c0,0,0,0,0,0ZM35.4,14.5h0s0,0,0,0h0s0,0,0,0h0s0,0,0,0h0c0,0,0,0,0,0h0s0,0,0,0h0s0,0,0,0h0s0,0,0,0h0s0,0,0,0h0s0,0,0,0h0s0,0,0,0h0s0,0,0,0h0s0,0,0,0Z"/>
      <path class="cls-2" d="M26.1,10.9c4.2,0,7.7,3,8.5,7h0c-.8-4-4.2-7-8.4-7s-7.7,3-8.4,7h0c.8-4,4.3-7,8.5-7ZM34.1,22.7c-1.3,3.3-4.5,5.5-8.1,5.5-3.6,0-6.8-2.2-8.1-5.5h0c1.7,4.4,6.7,6.6,11.1,4.8,2.2-.9,3.9-2.6,4.8-4.8,0,0,0,0,0,0Z"/>
      <path class="cls-2" d="M33.9,18.3h-.4v.3h.4v-.3h0ZM33.4,18.7h4.4v2.9h-4.4v.6h4c0,0-22.7,0-22.7,0h0c0,0,3.9,0,3.9,0v-.6h-4.4v-2.9h4.4v-.7h-4.2v-.2h4.2v-1.1h-.1v-.3h4.4v-.3h1.4v.3h3.3v-.3h1.4v.3h4.4v.3h-.1v1.1h4.2v.2h-4.2s0,.7,0,.7ZM18.2,21.1h.4v.3h-.4v-.3ZM17.4,21.1h.4v.3h-.4v-.3ZM16.7,21.1h.4v.3h-.4v-.3h0ZM16,21.1h.4v.3h-.4v-.3h0ZM15.2,21.1h.4v.3h-.4v-.3h0ZM14.5,21.1h.4v.3h-.4v-.3ZM18.2,20.4h.4v.3h-.4v-.3ZM17.4,20.4h.4v.3h-.4v-.3ZM16.7,20.4h.4v.3h-.4v-.3h0ZM16,20.4h.4v.3h-.4v-.3h0ZM15.2,20.4h.4v.3h-.4v-.3h0ZM14.5,20.4h.4v.3h-.4v-.3ZM18.2,19.7h.4v.3h-.4v-.3ZM17.4,19.7h.4v.3h-.4v-.3ZM16.7,19.7h.4v.3h-.4v-.3h0ZM16,19.7h.4v.3h-.4v-.3h0ZM15.2,19.7h.4v.3h-.4v-.3h0ZM14.5,19.7h.4v.3h-.4v-.3ZM18.2,19h.4v.3h-.4v-.3ZM17.4,19h.4v.3h-.4v-.3ZM16.7,19h.4v.3h-.4v-.3h0ZM16,19h.4v.3h-.4v-.3h0ZM15.2,19h.4v.3h-.4v-.3h0ZM14.5,19h.4v.3h-.4v-.3ZM18.8,17.5h4.3v-.7h-4.3v.7s0,0,0,0ZM23.2,17.5h1v-.7h-1v.7ZM24.3,17.5h3.5v-.7h-3.5v.7ZM27.9,17.5h1v-.7h-1s0,.7,0,.7ZM29,17.5h4.3v-.7h-4.3v.7ZM33.3,20.9h-4.3v1.4h4.3s0-1.4,0-1.4ZM29,20.9h-1v1.4h1v-1.4h0ZM27.8,20.9h-1v1.4h.1v-.5h.7v.5h.2s0-1.4,0-1.4ZM26.6,20.9h-1v1.4h.2v-.5h.7v.5h.1s0-1.4,0-1.4ZM25.4,20.9h-1v1.4h.2v-.5h.7v.5h.1v-1.4h0ZM24.2,20.9h-1v1.4h1s0-1.4,0-1.4ZM23.1,20.9h-4.3v1.4h4.3v-1.4h0ZM29.5,21.1h-.4v.4h.4v-.4h0ZM14.8,22.8v-.2h22.7v.2H14.8h0ZM18.2,21.9h.4v.3h-.4v-.3ZM17.4,21.9h.4v.3h-.4v-.3ZM16.7,21.9h.4v.3h-.4v-.3h0ZM16,21.9h.4v.3h-.4v-.3h0ZM15.2,21.9h.4v.3h-.4v-.3h0ZM14.5,21.9h.4v.3h-.4v-.3ZM28.6,21.8h-.4v.4h.4v-.4ZM23.9,21.8h-.4v.4h.4v-.4h0ZM23,21.8h-.4v.4h.4v-.4ZM22.3,21.8h-.4v.4h.4v-.4h0ZM21.5,21.8h-.4v.4h.4v-.4h0ZM20.8,21.8h-.4v.4h.4v-.4h0ZM20.1,21.8h-.4v.4h.4v-.4ZM19.3,21.8h-.4v.4h.4v-.4ZM29.5,21.8h-.4v.4h.4v-.4h0ZM30.3,21.8h-.4v.4h.4v-.4h0ZM31,21.8h-.4v.4h.4v-.4ZM31.8,21.8h-.4v.4h.4v-.4ZM32.5,21.8h-.4v.4h.4v-.4ZM33.2,21.8h-.4v.4h.4v-.4ZM33.9,21.9h-.4v.3h.4v-.3ZM34.7,21.9h-.4v.3h.4v-.3ZM35.4,21.9h-.4v.3h.4v-.3h0ZM36.1,21.9h-.4v.3h.4v-.3h0ZM36.9,21.9h-.4v.3h.4v-.3h0ZM37.6,21.9h-.4v.3h.4v-.3ZM19.3,21.1h-.4v.4h.4v-.4ZM20.1,21.1h-.4v.4h.4v-.4ZM20.8,21.1h-.4v.4h.4v-.4h0ZM21.5,21.1h-.4v.4h.4v-.4h0ZM22.3,21.1h-.4v.4h.4v-.4ZM23,21.1h-.4v.4h.4v-.4ZM23.9,21.1h-.4v.4h.4v-.4ZM24.5,21.1h.7v.3h-.7v-.3h0ZM25.7,21.1h.7v.3h-.7v-.3h0ZM26.9,21.1h.7v.3h-.7v-.3h0ZM30.3,21.1h-.4v.4h.4v-.4h0ZM31,21.1h-.4v.4h.4v-.4ZM31.8,21.1h-.4v.4h.4v-.4ZM32.5,21.1h-.4v.4h.4v-.4ZM33.2,21.1h-.4v.4h.4v-.4ZM28.6,21.1h-.4v.4h.4v-.4ZM18.2,18.3h.4v.3h-.4v-.3h0ZM17.4,18.3h.4v.3h-.4v-.3h0ZM16.7,18.3h.4v.3h-.4v-.3h0ZM16,18.3h.4v.3h-.4v-.3h0ZM15.2,18.3h.4v.3h-.4v-.3h0ZM14.5,18.3h.4v.3h-.4v-.3h0ZM29.1,16.5v-.2h-1.2v.2h1.2ZM24.3,16.5v-.2h-1.2v.2h1.2ZM28.6,17h-.4v.3h.4v-.3ZM29.6,17h-.4v.3h.4v-.3ZM30.3,17h-.4v.3h.4v-.3ZM31,17h-.4v.3h.4v-.3ZM31.7,17h-.4v.3h.4v-.3h0ZM32.5,17h-.4v.3h.4v-.3h0ZM33.2,17h-.4v.3h.4v-.3h0ZM26.9,17h.7v.3h-.7v-.3ZM25.7,17h.7v.3h-.7v-.3ZM24.5,17h.7v.3h-.7v-.3ZM23.5,17h.4v.3h-.4v-.3h0ZM22.6,17h.4v.3h-.4v-.3h0ZM21.8,17h.4v.3h-.4v-.3h0ZM21.1,17h.4v.3h-.4v-.3h0ZM20.4,17h.4v.3h-.4v-.3h0ZM19.6,17h.4v.3h-.4v-.3ZM18.9,17h.4v.3h-.4v-.3h0ZM34.7,18.3h-.4v.3h.4v-.3h0ZM35.4,18.3h-.4v.3h.4v-.3h0ZM36.1,18.3h-.4v.3h.4v-.3h0ZM36.9,18.3h-.4v.3h.4v-.3h0ZM37.6,18.3h-.4v.3h.4v-.3h0ZM18.9,20.2h.4v.3h-.4v-.3h0ZM19.6,20.2h.4v.3h-.4v-.3ZM20.4,20.2h.4v.3h-.4v-.3ZM21.1,20.2h.4v.3h-.4v-.3ZM21.8,20.2h.4v.3h-.4v-.3ZM22.6,20.2h.4v.3h-.4v-.3ZM23.5,20.2h.4v.3h-.4v-.3h0ZM24.5,20.2h.7v.3h-.7v-.3ZM25.7,20.2h.7v.3h-.7v-.3ZM26.9,20.2h.7v.3h-.7v-.3ZM33.2,20.2h-.4v.3h.4v-.3h0ZM32.5,20.2h-.4v.3h.4v-.3h0ZM31.7,20.2h-.4v.3h.4v-.3h0ZM31,20.2h-.4v.3h.4v-.3ZM30.3,20.2h-.4v.3h.4v-.3ZM29.6,20.2h-.4v.3h.4v-.3ZM28.6,20.2h-.4v.3h.4v-.3ZM28.6,19.4h-.4v.3h.4s0-.3,0-.3ZM29.6,19.4h-.4v.3h.4s0-.3,0-.3ZM30.3,19.4h-.4v.3h.4s0-.3,0-.3ZM31,19.4h-.4v.3h.4s0-.3,0-.3ZM31.7,19.4h-.4v.3h.4v-.3h0ZM32.5,19.4h-.4v.3h.4v-.3h0ZM33.2,19.4h-.4v.3h.4v-.3h0ZM26.9,19.4h.7v.3h-.7s0-.3,0-.3ZM25.7,19.4h.7v.3h-.7s0-.3,0-.3ZM24.5,19.4h.7v.3h-.7s0-.3,0-.3ZM23.5,19.4h.4v.3h-.4v-.3h0ZM22.6,19.4h.4v.3h-.4v-.3h0ZM21.8,19.4h.4v.3h-.4v-.3h0ZM21.1,19.4h.4v.3h-.4v-.3h0ZM20.4,19.4h.4v.3h-.4v-.3h0ZM19.6,19.4h.4v.3h-.4s0-.3,0-.3ZM18.9,19.4h.4v.3h-.4v-.3h0ZM18.9,18.6h.4v.3h-.4v-.3h0ZM19.6,18.6h.4v.3h-.4v-.3h0ZM20.4,18.6h.4v.3h-.4v-.3h0ZM21.1,18.6h.4v.3h-.4v-.3h0ZM21.8,18.6h.4v.3h-.4v-.3h0ZM22.6,18.6h.4v.3h-.4v-.3h0ZM23.5,18.6h.4v.3h-.4v-.3h0ZM24.5,18.6h.7v.3h-.7v-.3h0ZM25.7,18.6h.7v.3h-.7v-.3h0ZM26.9,18.6h.7v.3h-.7v-.3h0ZM33.2,18.6h-.4v.3h.4v-.3h0ZM32.5,18.6h-.4v.3h.4v-.3h0ZM31.7,18.6h-.4v.3h.4v-.3h0ZM31,18.6h-.4v.3h.4v-.3h0ZM30.3,18.6h-.4v.3h.4v-.3h0ZM29.6,18.6h-.4v.3h.4v-.3h0ZM28.6,18.6h-.4v.3h.4v-.3h0ZM18.9,17.9h.4v.3h-.4v-.3h0ZM19.6,17.9h.4v.3h-.4v-.3ZM20.4,17.9h.4v.3h-.4v-.3ZM21.1,17.9h.4v.3h-.4v-.3ZM21.8,17.9h.4v.3h-.4v-.3ZM22.6,17.9h.4v.3h-.4v-.3ZM23.5,17.9h.4v.3h-.4v-.3h0ZM24.5,17.9h.7v.3h-.7v-.3ZM25.7,17.9h.7v.3h-.7v-.3ZM26.9,17.9h.7v.3h-.7v-.3ZM33.2,17.9h-.4v.3h.4v-.3h0ZM32.5,17.9h-.4v.3h.4v-.3h0ZM31.7,17.9h-.4v.3h.4v-.3h0ZM31,17.9h-.4v.3h.4v-.3ZM30.3,17.9h-.4v.3h.4v-.3ZM29.6,17.9h-.4v.3h.4v-.3ZM28.6,17.9h-.4v.3h.4v-.3ZM33.9,21.1h-.4v.3h.4v-.3ZM34.7,21.1h-.4v.3h.4v-.3ZM35.4,21.1h-.4v.3h.4v-.3h0ZM36.1,21.1h-.4v.3h.4v-.3h0ZM36.9,21.1h-.4v.3h.4v-.3h0ZM37.6,21.1h-.4v.3h.4v-.3ZM33.9,20.4h-.4v.3h.4v-.3ZM34.7,20.4h-.4v.3h.4v-.3ZM35.4,20.4h-.4v.3h.4v-.3h0ZM36.1,20.4h-.4v.3h.4v-.3h0ZM36.9,20.4h-.4v.3h.4v-.3h0ZM37.6,20.4h-.4v.3h.4v-.3ZM33.9,19.7h-.4v.3h.4v-.3ZM34.7,19.7h-.4v.3h.4v-.3ZM35.4,19.7h-.4v.3h.4v-.3h0ZM36.1,19.7h-.4v.3h.4v-.3h0ZM36.9,19.7h-.4v.3h.4v-.3h0ZM37.6,19.7h-.4v.3h.4v-.3ZM33.9,19h-.4v.3h.4v-.3ZM34.7,19h-.4v.3h.4v-.3ZM35.4,19h-.4v.3h.4v-.3h0ZM36.1,19h-.4v.3h.4v-.3h0ZM36.9,19h-.4v.3h.4v-.3h0ZM37.6,19h-.4v.3h.4v-.3Z"/>
      <path class="cls-2" d="M26.1,7.5c6.7,0,12.1,5.4,12.1,12.1s-5.4,12.1-12.1,12.1-12.1-5.4-12.1-12.1,5.4-12.1,12.1-12.1ZM26.1,8c6.4,0,11.5,5.2,11.5,11.5s-5.2,11.5-11.5,11.5-11.5-5.2-11.5-11.5,5.2-11.5,11.5-11.5Z"/>
      <path class="cls-2" d="M24.4,24.2h-.9c0,0,.9,0,.9,0h0c0,0,0,0,0,0ZM24.8,24.6h-.2v-.8h-.2c0,0,.1,0,.2-.1,0,0,0,0,.1-.1h0s0,1,0,1ZM25.7,24.1c0,.2,0,.3-.1.4,0,0-.2.1-.3.1,0,0-.2,0-.2,0,0,0,0-.1,0-.2h.2s0,0,0,.1,0,0,.1,0c0,0,.1,0,.2,0,0,0,0-.2,0-.3,0,0,0,0-.1,0,0,0,0,0-.2,0,0,0-.2,0-.2,0,0,0,0-.1,0-.2s0-.2,0-.2c0,0,.2,0,.3,0,.1,0,.2,0,.3.1,0,0,.1.2.1.4h0ZM25.6,24c0,0,0-.1,0-.2,0,0,0,0-.2,0,0,0,0,0-.1,0,0,0,0,0,0,.2,0,0,0,.1,0,.2,0,0,0,0,.1,0,0,0,.1,0,.2,0,0,0,0,0,0-.1h0ZM26.7,24.4h-.2v.2h-.2v-.2h-.5c0-.1.5-.7.5-.7h.2v.6h.2c0,.1,0,.1,0,.1ZM26.4,24.3v-.4l-.3.4h.3ZM27.5,24.3c0,.1,0,.2-.1.3,0,0-.2.1-.3,0,0,0-.2,0-.3,0,0,0-.1-.1-.1-.2h.2c0,0,0,.1,0,.1,0,0,0,0,.2,0s.1,0,.2,0,0-.1,0-.2,0-.1,0-.2c0,0,0,0-.1,0,0,0,0,0-.1,0,0,0,0,0,0,0h-.2v-.5h.7c0,.1-.5.1-.5.1v.3s0,0,0,0c0,0,0,0,.1,0,0,0,.2,0,.2,0,0,0,0,.1,0,.2h0ZM28.6,24.2h-.9c0,0,.9,0,.9,0h0c0,0,0,0,0,0Z"/>
      <path class="cls-1" d="M44.3,27.8h-1.1c0-.1.1-.1.1-.1,0,0,0,0,.1,0,0,0,0,0,0,0,0,0,0,0,0-.1v-.9h-1.2v.9s0,0,0,.1c0,0,0,0,0,0,0,0,.2,0,.2,0h0c0,.1-1.1.1-1.1.1h0c0-.1.1-.1.1-.1,0,0,0,0,.1,0,0,0,0,0,0,0,0,0,0,0,0-.1v-1.9s0,0,0-.1c0,0,0,0,0,0,0,0,0,0-.1,0,0,0,0,0-.1,0h0c0-.1,1.1-.1,1.1-.1h0c0,.1,0,.1-.1.1,0,0,0,0-.1,0,0,0,0,0,0,0,0,0,0,0,0,.1v.8h1.2v-.8s0,0,0-.1c0,0,0,0,0,0,0,0,0,0-.1,0,0,0,0,0-.1,0h0c0-.1,1.1-.1,1.1-.1h0c0,.1,0,.1-.1.1,0,0,0,0-.1,0,0,0,0,0,0,0,0,0,0,0,0,.1v1.9s0,0,0,.1c0,0,0,0,0,0,0,0,.2,0,.2,0h0c0,.1,0,.1,0,.1ZM46.9,27v.8h-2.2c0-.1,0-.1.1-.1,0,0,0,0,.1,0,0,0,0,0,0,0,0,0,0,0,0-.1v-1.9s0,0,0-.1c0,0,0,0,0,0,0,0-.2,0-.3,0h0c0-.1,2-.1,2-.1v.6h-.1c0-.1,0-.2-.2-.3,0-.1-.2-.2-.2-.2,0,0,0,0-.1,0,0,0-.1,0-.2,0h-.4v1.1h.3c0,0,.2,0,.2,0,0,0,0,0,.1,0,0,0,0,0,0-.1,0,0,0-.1,0-.2h.1v1h-.1c0,0,0-.1,0-.2,0,0,0-.1,0-.1,0,0,0,0-.1,0,0,0-.1,0-.2,0h-.3v.8c0,0,0,.1,0,.2,0,0,0,0,0,.1,0,0,0,0,.1,0,0,0,.1,0,.2,0h.2c.1,0,.2,0,.3,0,0,0,0,0,.1,0,0,0,.1-.2.2-.3,0-.1.1-.2.1-.3h.1,0ZM49.2,25.8h-.1c0-.1,0-.2-.2-.3,0-.1-.2-.2-.2-.2,0,0,0,0-.1,0,0,0-.1,0-.2,0h-.4v1.1h.3c0,0,.2,0,.2,0,0,0,0,0,.1,0,0,0,0,0,0-.1,0,0,0-.1,0-.2h.1v1h-.1c0,0,0-.1,0-.2,0,0,0-.1,0-.2,0,0,0,0-.1,0,0,0-.1,0-.2,0h-.3v.9s0,0,0,.1c0,0,0,0,0,0,0,0,0,0,.1,0,0,0,.1,0,.1,0h0c0,.1-1.1.1-1.1.1h0c0-.1.2-.1.2-.1,0,0,0,0,.1,0,0,0,0,0,0,0,0,0,0,0,0-.1v-1.9s0,0,0-.1c0,0,0,0,0,0,0,0-.2,0-.3,0h0c0-.1,2.1-.1,2.1-.1,0,0,0,.7,0,.7ZM51.7,27v.8h-2.2c0-.1,0-.1.1-.1,0,0,0,0,.1,0,0,0,0,0,0,0,0,0,0,0,0-.1v-1.9s0,0,0-.1c0,0,0,0,0,0,0,0-.2,0-.3,0h0c0-.1,2-.1,2-.1v.6h-.1c0-.1,0-.2-.2-.3,0-.1-.2-.2-.2-.2,0,0,0,0-.1,0,0,0-.1,0-.2,0h-.4v1.1h.3c0,0,.2,0,.2,0,0,0,0,0,.1,0,0,0,0,0,0-.1,0,0,0-.1,0-.2h.1v1h-.1c0,0,0-.1,0-.2,0,0,0-.1,0-.1,0,0,0,0-.1,0,0,0-.1,0-.2,0h-.3v.8c0,0,0,.1,0,.2,0,0,0,0,0,.1,0,0,0,0,.1,0,0,0,.1,0,.2,0h.2c.1,0,.2,0,.3,0,0,0,0,0,.1,0,0,0,.1-.2.2-.3,0-.1.1-.2.1-.3h.1ZM53.1,27.8h-1.2c0-.1.1-.1.1-.1,0,0,0,0,.1,0,0,0,0,0,0,0,0,0,0,0,0-.1v-1.9s0,0,0-.1c0,0,0,0,0,0,0,0-.2,0-.3,0h0c0-.1,1.2-.1,1.2-.1h0c0,.1-.2.2-.3.2,0,0,0,0,0,0,0,0,0,0,0,.1v1.9s0,0,0,.1c0,0,0,0,0,0,0,0,0,0,.1,0,0,0,0,0,.2,0h0ZM58,25.3c0,0-.1,0-.2,0,0,0-.1,0-.2,0,0,0,0,0,0,.2,0,0,0,.2,0,.3v1.1c0,.3-.1.5-.3.6,0,0-.2.1-.3.1-.2,0-.5,0-.7,0-.1,0-.2,0-.3-.2-.2-.1-.3-.3-.3-.5v-1.6s0,0,0-.1c0,0,0,0,0,0,0,0,0,0-.1,0,0,0,0,0-.1,0h0c0-.1,1.1-.1,1.1-.1h0c0,.1-.2.2-.2.2,0,0,0,0,0,0,0,0,0,0,0,.1v1.5c0,0,0,.1,0,.2,0,.2.1.3.3.4.1,0,.2,0,.3,0,.1,0,.2,0,.3,0,0,0,.2,0,.2-.2,0,0,0-.1.1-.2,0,0,0-.1,0-.2v-1.1c0-.1,0-.2,0-.3,0,0,0-.1,0-.2,0,0-.1,0-.2,0,0,0-.1,0-.2,0h0c0-.1,1.1-.1,1.1-.1h0c0,.1,0,.1,0,.1ZM61,25.3c0,0-.1,0-.2,0,0,0-.1,0-.2,0,0,0,0,0,0,.2,0,0,0,.2,0,.3v1.9h-.2l-1.6-2.2v1.4c0,.2,0,.3,0,.4s0,.1,0,.2c0,0,.1,0,.2,0,0,0,.1,0,.2,0h0c0,.1-1.1.1-1.1.1h0c0-.1,0-.1.2-.2,0,0,.1,0,.1,0,0,0,0,0,0-.2,0,0,0-.2,0-.4v-1.3c0,0,0-.1,0-.2,0,0,0,0,0-.1,0,0-.1,0-.2-.1,0,0-.1,0-.2,0h0c0-.1.8-.1.8-.1l1.5,2v-1.3c0-.2,0-.3,0-.4s0-.1,0-.2c0,0-.1,0-.2,0,0,0-.1,0-.2,0h0c0-.1,1.1-.1,1.1-.1h0ZM62.3,27.8h-1.2c0-.1.1-.1.1-.1,0,0,0,0,.1,0,0,0,0,0,0,0,0,0,0,0,0-.1v-1.9s0,0,0-.1c0,0,0,0,0,0,0,0-.2,0-.3,0h0c0-.1,1.2-.1,1.2-.1h0c0,.1-.2.2-.3.2,0,0,0,0,0,0,0,0,0,0,0,.1v1.9s0,0,0,.1c0,0,0,0,0,0,0,0,0,0,.1,0,0,0,0,0,.2,0,0,0,0,.1,0,.1ZM65.1,25.3c0,0-.2,0-.2,0,0,0,0,0-.1,0,0,0,0,0,0,.1-.3.7-.6,1.5-.9,2.2h-.2c-.3-.8-.6-1.5-.9-2.3,0,0,0,0,0,0,0,0-.1-.1-.2-.1,0,0,0,0-.1,0h0c0-.1,1.1-.1,1.1-.1h0c0,.1-.2.1-.2.2,0,0,0,0,0,0,0,0,0,0,0,0l.2.6.4,1.2c.2-.5.4-1,.6-1.5,0-.1,0-.2,0-.2,0,0,0,0,0-.1,0,0,0,0,0,0,0,0,0,0-.1,0,0,0,0,0-.1,0,0,0,0,0-.1,0h0c0-.1,1-.1,1-.1h0c0,.1,0,.1,0,.1ZM67.4,27v.8h-2.2c0-.1,0-.1.1-.1,0,0,0,0,.1,0,0,0,0,0,0,0,0,0,0,0,0-.1v-1.9s0,0,0-.1c0,0,0,0,0,0,0,0-.2,0-.3,0h0c0-.1,2-.1,2-.1v.6h-.1c0-.1,0-.2-.2-.3,0-.1-.2-.2-.2-.2,0,0,0,0-.1,0,0,0-.1,0-.2,0h-.4v1.1h.3c0,0,.2,0,.2,0,0,0,0,0,.1,0,0,0,0,0,0-.1,0,0,0-.1,0-.2h.1v1h-.1c0,0,0-.1,0-.2,0,0,0-.1,0-.1,0,0,0,0-.1,0,0,0-.1,0-.2,0h-.3v.8c0,0,0,.1,0,.2,0,0,0,0,0,.1,0,0,0,0,.1,0,0,0,.1,0,.2,0h.2c.1,0,.2,0,.3,0,0,0,0,0,.1,0,0,0,.1-.2.2-.3,0-.1.1-.2.1-.3h.1,0ZM70.3,27.8h-.7c-.3-.4-.5-.8-.8-1.2h-.3v.8s0,0,0,.1c0,0,0,0,0,0,0,0,.2,0,.3,0h0c0,.1-1.1.1-1.1.1h0c0-.1,0-.1.1-.1,0,0,0,0,.1,0,0,0,0,0,0,0,0,0,0,0,0-.1v-1.9s0,0,0-.1c0,0,0,0,0,0,0,0-.2,0-.2,0h0c0-.1,1.2-.1,1.2-.1.1,0,.2,0,.3,0,0,0,.2,0,.3.1,0,0,.1.1.2.2s0,.2,0,.3c0,0,0,.2,0,.3,0,0,0,.1-.1.2,0,0-.1.1-.2.1,0,0-.2,0-.3,0l.3.4c0,.1.2.3.3.4,0,0,.1.1.1.2,0,0,0,0,.1,0,0,0,0,0,.1,0,0,0,0,0,.1,0h0ZM69.3,25.8c0-.1,0-.3-.1-.4,0,0-.2-.1-.4-.1h-.3v1.1h.2c.2,0,.3,0,.4-.2.1-.1.2-.3.2-.4ZM72,26.6c0,0,0,.1.1.2,0,0,0,.2,0,.3,0,.2,0,.4-.3.6-.2.2-.4.2-.6.2-.1,0-.2,0-.4,0-.1,0-.2,0-.3-.1h0c0,.1-.2.1-.2.1v-.9s.1,0,.1,0c0,.1,0,.2.1.3,0,0,0,.2.2.3.1.2.3.2.5.2,0,0,.2,0,.2,0,0,0,.1,0,.2,0,0,0,0,0,0-.1,0-.2,0-.3,0-.5,0,0-.2-.2-.3-.2,0,0-.2,0-.3-.1,0,0-.2,0-.3-.1-.1,0-.3-.1-.3-.3,0-.1-.1-.3-.1-.4,0,0,0-.2,0-.3,0-.2.2-.3.4-.4,0,0,.2,0,.3,0,.1,0,.2,0,.3,0,0,0,.2,0,.3.1h0c0-.1.2-.1.2-.1v.9s-.1,0-.1,0c0,0,0-.2,0-.3,0,0,0-.2-.1-.2,0,0-.1-.1-.2-.2,0,0-.2,0-.3,0-.1,0-.2,0-.3.1,0,0-.1.2-.1.3,0,.1,0,.2,0,.3,0,0,.1.1.2.2,0,0,.2,0,.3.1,0,0,.2,0,.3,0,0,0,.1,0,.2.1,0,0,.1,0,.2.1h0ZM73.7,27.8h-1.2c0-.1.1-.1.1-.1,0,0,0,0,.1,0,0,0,0,0,0,0,0,0,0,0,0-.1v-1.9s0,0,0-.1c0,0,0,0,0,0,0,0-.2,0-.3,0h0c0-.1,1.2-.1,1.2-.1h0c0,.1-.2.2-.3.2,0,0,0,0,0,0,0,0,0,0,0,.1v1.9s0,0,0,.1c0,0,0,0,0,0,0,0,0,0,.1,0,0,0,0,0,.2,0h0ZM76.2,25.9h-.1c0,0,0-.1,0-.2,0,0,0-.1,0-.2,0,0,0-.1-.1-.2,0,0,0,0-.1,0-.1,0-.2,0-.3,0h-.1v2.1s0,0,0,.1c0,0,0,0,0,0,0,0,0,0,.1,0,0,0,.1,0,.2,0h0c0,.1-1.2.1-1.2.1h0c0-.1.2-.1.2-.1,0,0,0,0,.1,0,0,0,0,0,0,0,0,0,0,0,0-.1v-2.1h-.1s0,0-.1,0c0,0-.1,0-.2,0,0,0,0,0-.1,0,0,0,0,0-.1.2,0,.1-.1.2-.2.3h-.1v-.7h2.3v.7h0ZM78.6,25.3s0,0,0,0c0,0-.1,0-.2.1,0,0,0,0-.1.1,0,.1-.2.3-.3.4,0,.1-.2.3-.3.5,0,0,0,.1,0,.2,0,0,0,.1,0,.2v.5s0,0,0,.1c0,0,0,0,0,0,0,0,0,0,.1,0,0,0,.1,0,.2,0h0c0,.1-1.2.1-1.2.1h0c0-.1.2-.1.2-.1,0,0,0,0,.1,0,0,0,0,0,0,0,0,0,0,0,0-.1v-.6s0,0,0-.1c0,0,0-.1,0-.2-.2-.3-.3-.6-.5-.9,0,0,0-.1-.1-.2,0,0-.1-.1-.2-.1,0,0,0,0-.1,0h0c0-.1,1.1-.1,1.1-.1h0c-.1.1-.2.1-.3.2,0,0,0,0,0,0s0,0,0,0h0c0,.1,0,.1,0,.2h0c0,.2.1.3.2.5l.2.4c.2-.3.3-.6.4-.7.1-.2.2-.3.2-.3,0,0,0,0,0,0,0,0,0,0,0,0,0,0,0,0-.1,0,0,0,0,0-.1,0h0c0-.1.9-.1.9-.1,0,0,0,.1,0,.1ZM82.8,25.5c.1.1.2.3.3.4,0,.2,0,.4,0,.6s0,.4,0,.6-.2.3-.3.4c-.2.2-.6.4-.9.4-.2,0-.3,0-.5-.1-.2,0-.3-.2-.4-.3-.1-.1-.2-.3-.3-.4,0-.2,0-.4,0-.6,0-.2,0-.4.1-.6,0-.2.2-.3.3-.4.1-.1.3-.2.4-.3.2,0,.3,0,.5,0s.3,0,.5,0c.2,0,.3.2.4.3h0ZM82.5,27.3c0-.1.1-.2.2-.4,0-.1,0-.3,0-.5s0-.3,0-.5c0-.1,0-.3-.2-.4-.1-.2-.4-.3-.6-.3-.1,0-.3,0-.4.1-.1,0-.2.2-.3.3,0,.1-.1.2-.1.4,0,.1,0,.3,0,.5s0,.3,0,.5c0,.1,0,.3.2.4,0,.1.2.2.3.3.1,0,.2,0,.4,0,.3,0,.5-.1.6-.4ZM85.5,25.8h-.1c0-.1,0-.2-.2-.3,0-.1-.2-.2-.2-.2,0,0,0,0-.1,0,0,0-.1,0-.2,0h-.4v1.1h.3c0,0,.2,0,.2,0,0,0,0,0,.1,0,0,0,0,0,0-.1,0,0,0-.1,0-.2h.1v1h-.1c0,0,0-.1,0-.2,0,0,0-.1,0-.2,0,0,0,0-.1,0,0,0-.1,0-.2,0h-.3v.9s0,0,0,.1c0,0,0,0,0,0,0,0,0,0,.1,0,0,0,.1,0,.1,0h0c0,.1-1.1.1-1.1.1h0c0-.1.1-.1.1-.1,0,0,0,0,.1,0,0,0,0,0,0,0,0,0,0,0,0-.1v-1.9s0,0,0-.1c0,0,0,0,0,0,0,0-.2,0-.3,0h0c0-.1,2.1-.1,2.1-.1v.7ZM89.8,25.9h-.1c0,0,0-.1,0-.2,0,0,0-.1,0-.2,0,0,0-.1-.1-.2,0,0,0,0-.1,0-.1,0-.2,0-.3,0h-.1v2.1s0,0,0,.1c0,0,0,0,0,0,0,0,0,0,.1,0,0,0,.1,0,.2,0h0c0,.1-1.2.1-1.2.1h0c0-.1.2-.1.2-.1,0,0,0,0,.1,0,0,0,0,0,0,0,0,0,0,0,0-.1v-2.1h-.1s0,0-.1,0c0,0-.1,0-.2,0,0,0,0,0-.1,0,0,0,0,0-.1.2,0,.1-.1.2-.2.3h-.1v-.7h2.3v.7h0ZM92.2,27v.8h-2.2c0-.1,0-.1.1-.1,0,0,0,0,.1,0,0,0,0,0,0,0,0,0,0,0,0-.1v-1.9s0,0,0-.1c0,0,0,0,0,0,0,0-.2,0-.3,0h0c0-.1,2-.1,2-.1v.6h-.1c0-.1,0-.2-.2-.3,0-.1-.2-.2-.2-.2,0,0,0,0-.1,0,0,0-.1,0-.2,0h-.4v1.1h.3c0,0,.2,0,.2,0,0,0,0,0,.1,0,0,0,0,0,0-.1,0,0,0-.1,0-.2h.1v1h-.1c0,0,0-.1,0-.2,0,0,0-.1,0-.1,0,0,0,0-.1,0,0,0-.1,0-.2,0h-.3v.8c0,0,0,.1,0,.2,0,0,0,0,0,.1,0,0,0,0,.1,0,0,0,.1,0,.2,0h.2c.1,0,.2,0,.3,0,0,0,0,0,.1,0,0,0,.1-.2.2-.3,0-.1.1-.2.1-.3h.1,0ZM93.7,27.8c-.3,0-.6-.1-.8-.4-.1-.1-.2-.3-.3-.4,0-.2-.1-.4,0-.6,0-.2,0-.4,0-.6,0-.2.2-.3.3-.4.1-.1.2-.2.4-.3.2,0,.3,0,.5,0,.2,0,.5,0,.7.2h0c0-.1.2-.1.2-.1v.9s-.1,0-.1,0c0-.1,0-.2,0-.3,0,0,0-.2-.1-.3,0,0-.1-.1-.2-.2,0,0-.2,0-.3,0-.2,0-.5.1-.6.3,0,0-.1.2-.2.4,0,.2,0,.3,0,.5,0,.2,0,.3,0,.5s.1.3.2.4c0,.1.2.2.3.2.1,0,.2,0,.4,0,.2,0,.4,0,.5-.2.1-.1.2-.3.3-.4h.1c-.1.3-.2.5-.4.6-.2.1-.4.2-.6.2h0ZM97.7,27.8h-1.1c0-.1.1-.1.1-.1,0,0,0,0,.1,0,0,0,0,0,0,0,0,0,0,0,0-.1v-.9h-1.2v.9s0,0,0,.1c0,0,0,0,0,0,0,0,.2,0,.2,0h0c0,.1-1.1.1-1.1.1h0c0-.1.1-.1.1-.1,0,0,0,0,.1,0,0,0,0,0,0,0,0,0,0,0,0-.1v-1.9s0,0,0-.1c0,0,0,0,0,0,0,0,0,0-.1,0,0,0,0,0-.1,0h0c0-.1,1.1-.1,1.1-.1h0c0,.1,0,.1-.1.1,0,0,0,0-.1,0,0,0,0,0,0,0,0,0,0,0,0,.1v.8h1.2v-.8s0,0,0-.1c0,0,0,0,0,0,0,0,0,0-.1,0,0,0,0,0-.1,0h0c0-.1,1.1-.1,1.1-.1h0c0,.1,0,.1-.1.1,0,0,0,0-.1,0,0,0,0,0,0,0,0,0,0,0,0,.1v1.9s0,0,0,.1c0,0,0,0,0,0,0,0,.2,0,.2,0h0q0,.1,0,.1ZM100.8,25.3c0,0-.1,0-.2,0,0,0-.1,0-.2,0,0,0,0,0,0,.2,0,0,0,.2,0,.3v1.9h-.2l-1.6-2.2v1.4c0,.2,0,.3,0,.4,0,0,0,.1,0,.2,0,0,.1,0,.2,0,0,0,.1,0,.2,0h0c0,.1-1.1.1-1.1.1h0c0-.1,0-.1.2-.2,0,0,.1,0,.2,0,0,0,0,0,0-.2,0,0,0-.2,0-.4v-1.3c0,0,0-.1,0-.2,0,0,0,0,0-.1,0,0-.1,0-.2-.1,0,0-.1,0-.2,0h0c0-.1.8-.1.8-.1l1.5,2v-1.3c0-.1,0-.2,0-.4,0,0,0-.1,0-.2,0,0-.1,0-.2,0,0,0-.1,0-.2,0h0c0-.1,1.1-.1,1.1-.1h0ZM103.1,25.5c.1.1.2.3.3.4,0,.2,0,.4,0,.6s0,.4,0,.6-.2.3-.3.4c-.2.2-.6.4-.9.4-.2,0-.4,0-.5-.1-.2,0-.3-.2-.4-.3-.1-.1-.2-.3-.3-.4,0-.2,0-.4,0-.6,0-.2,0-.4.1-.6,0-.2.2-.3.3-.4.1-.1.3-.2.4-.3.2,0,.3,0,.5,0s.3,0,.5,0,.3.2.4.3ZM102.8,27.3c0-.1.1-.2.2-.4,0-.1,0-.3,0-.5s0-.3,0-.5c0-.1,0-.3-.2-.4-.1-.2-.4-.3-.6-.3-.1,0-.3,0-.4.1-.1,0-.2.2-.3.3,0,.1-.1.2-.1.4,0,.1,0,.3,0,.5s0,.3,0,.5c0,.1,0,.3.2.4,0,.1.2.2.3.3.1,0,.2,0,.4,0,.3,0,.5-.1.6-.4ZM105.9,27v.8h-2.1c0-.1,0-.1.1-.1,0,0,0,0,.1,0,0,0,0,0,0,0,0,0,0,0,0-.1v-1.9s0,0,0-.1c0,0,0,0,0,0,0,0,0,0-.1,0,0,0,0,0-.1,0h0c0-.1,1.1-.1,1.1-.1h0c0,.1-.2.2-.3.2,0,0,0,0,0,0,0,0,0,0,0,.1v1.8c0,0,0,.1,0,.2,0,0,0,0,0,.1,0,0,0,0,.1,0,.1,0,.3,0,.4,0,0,0,0,0,.1,0,0,0,0,0,.1,0,0,0,0,0,0,0,0,0,.1-.2.2-.3,0-.1.1-.2.1-.3h.1ZM108.3,25.5c.1.1.2.3.3.4,0,.2,0,.4,0,.6s0,.4-.1.6c0,.2-.2.3-.3.4-.2.2-.6.4-.9.4-.2,0-.4,0-.5-.1-.2,0-.3-.2-.4-.3-.1-.1-.2-.3-.3-.4,0-.2,0-.4,0-.6,0-.2,0-.4.1-.6,0-.2.2-.3.3-.4.2-.2.6-.4.9-.4.2,0,.3,0,.5,0s.3.2.4.3ZM108,27.3c0-.1.1-.2.2-.4,0-.1,0-.3,0-.5,0-.2,0-.3,0-.5,0-.1,0-.3-.2-.4-.1-.2-.4-.3-.6-.3-.1,0-.3,0-.4.1-.1,0-.2.2-.3.3,0,.1-.1.2-.1.4,0,.1,0,.3,0,.5s0,.3,0,.5c0,.1,0,.3.2.4,0,.1.1.2.3.3.1,0,.2,0,.4,0,.3,0,.5-.1.6-.4ZM111.5,26.7s0,0-.1,0c0,0,0,0-.1,0,0,0,0,0,0,0,0,0,0,0,0,.1v.2c0,.2,0,.2,0,.3s0,0,0,.1c-.2,0-.3.1-.5.2-.2,0-.3,0-.5,0-.3,0-.7-.1-.9-.4-.1-.1-.2-.3-.3-.4,0-.2-.1-.4-.1-.6,0-.2,0-.4,0-.6,0-.2.2-.3.3-.4.1-.1.3-.2.4-.3.2,0,.3-.1.5-.1.2,0,.5,0,.7.2h0c0-.1.1-.1.1-.1v.9s-.1,0-.1,0c0-.1,0-.2,0-.3,0,0,0-.2-.1-.3,0,0-.1-.1-.2-.2,0,0-.2,0-.3,0-.1,0-.2,0-.4,0-.1,0-.2.1-.3.2,0,.1-.1.2-.2.4,0,.3,0,.7,0,1,0,.1,0,.3.2.4.2.2.4.4.7.4.1,0,.2,0,.3,0,0,0,.1,0,.2-.1,0,0,0-.1,0-.2v-.2s0-.1,0-.1c0,0,0,0,0-.1,0,0,0,0,0,0,0,0-.1,0-.2,0,0,0-.1,0-.2,0h0c0-.1,1.2-.1,1.2-.1h0c0,.1,0,.1,0,.1ZM114,25.3s0,0-.1,0c0,0-.1,0-.2.1,0,0,0,0,0,.1,0,.1-.2.3-.3.4,0,.1-.2.3-.3.5,0,0,0,.1,0,.2,0,0,0,.1,0,.2v.5s0,0,0,.1c0,0,0,0,0,0,0,0,0,0,.1,0,0,0,.1,0,.2,0h0c0,.1-1.2.1-1.2.1h0c0-.1.2-.1.2-.1,0,0,0,0,.1,0,0,0,0,0,0,0,0,0,0,0,0-.1v-.6s0,0,0-.1c0,0,0-.1,0-.2-.2-.3-.3-.6-.5-.9,0,0,0-.1-.1-.2,0,0,0,0-.1,0,0,0,0,0-.1,0,0,0,0,0-.1,0h0c0-.1,1.1-.1,1.1-.1h0c-.1.1-.2.1-.3.2,0,0,0,0,0,0s0,0,0,0h0c0,.1,0,.1,0,.2h0c0,.2.1.3.2.5l.2.4c.2-.3.3-.6.4-.7.1-.2.2-.3.2-.3,0,0,0,0,0,0,0,0,0,0,0,0,0,0,0,0-.1,0,0,0,0,0-.1,0h0c0-.1.9-.1.9-.1,0,0,0,.1,0,.1ZM41.3,20.3c.6-.4,1.2-.8,1.5-1.5,0,0,0-.1.1-.2l.5-.5c.7-.6,1.2-1.3,1.8-1.9.6-.7.6-1.2.7-1.8.5-.8.8-1.6,1.6-2.4.2-.1.8,0,.9,0,.3.9.3,1.6.1,2.3,0,.2.2.6.2.7.6.3,1.3.8,2,1.5.2.2.5.4.8.6,1.3.2,3.4.4,3.6.9.2.4,0,.7-.6,1-.8.2-1.7.3-2.6.2-.3,0-.3,0-.6-.2-.6-.5-1.2-.9-1.9-1.3h-.2c0-.1,0-.3,0-.3l-.2-.2h-.2c0,0-.3-.4-.3-.4-.6-.9-1.2-1.1-1.9-.5l-.5.3c-.1,0-.2.3-.2.5l-.2.3h-.2c0,.1-.2.5-.2.5l-.4.4h-.3c-.1.3-.3.5-.4.6l-.7.5c-.2.2-.4.4-.5.6h0c0,.2,0,.2-.1.2h-.1c0,.1,0,.2,0,.3s0,0,0,.1l-.2.2-.2.2h-.4s-.3,0-.3,0h-.2c0,0-.1-.2-.1-.2h0c0-.3-.2-.4,0-.5h0ZM47.1,18.9h-.3c0-.1-.1-.5-.1-.5l.2-.3.2-.2h.1c0-.1.1-.2.1-.2h.2c0-.1.1-.1.1-.1.4,0,.7,0,1.1,0v.3c.1,0,.1.3.1.3v.2s-.2.1-.2.1v.2c0,0-.3.1-.3.1h-.1c0,.1-.1.2-.1.2h-.1s-.2,0-.2,0h-.2s-.4.5-.4.5h-.1c0,0,0-.3,0-.3,0,0,0-.3,0-.3ZM46.4,19.8h.2c0,.1,1.1.2,1.1.2h.3s.3-.2.3-.2h.1s.2,0,.2,0h.4c0,0,.2.3.2.3v.3c0,0,.2.3.2.3v.3s0,.5,0,.5v.2c-.1,0-.2.3-.2.3v.2c0,0-.2.2-.2.2h-.2c-.3.2-.6.2-.9.1h0c0-.1-.3,0-.3,0v.2c0,0-.2,0-.2,0h-.2s-.2,0-.2,0c-.4-.3-.7-.8-1-1.4v-.3c0,0,0-.4,0-.4h0c0-.1.2-.4.2-.4l.2-.3h0ZM47.4,20.7h.1c0,0,.1,0,.1,0h.2s.1,0,.1,0h.1c0,0,0,.3,0,.3v.2s-.2,0-.2,0h-.1c0,.1,0,.2,0,.2h-.2s0,0,0,0h-.1s0,0,0,0v-.2s0-.2,0-.2c0,0,.1-.2.1-.2ZM56.9,22.5v-.3s0-.3,0-.3v-.4s0-.3,0-.3v-.5s0-.4,0-.4v-.4c.1,0,.4-.3.4-.3h0c0,0,0-.3,0-.3h.2c0-.1,0-.3,0-.3h.1s0-.3,0-.3v-.2c.1,0,.2-.3.2-.3v-.3s0-.2,0-.2v-.3s0-.7,0-.7v-.2s0,0,0,0v-.4s0-.4,0-.4v-.3c0,0,.1-.3.1-.3,0,0,.6-1,.8-1.1.2,0,.9,0,.9,0l.2-.2c.4-.1.8-.2,1,0h.2c0,0,.1.3.1.3v.4s0,.3,0,.3h-.1c0,.1-.2.3-.2.3v.4s0,.4,0,.4v.2c0,0-.1.1-.1.1v1c0,0,0,1.2,0,1.2v.2c-.1,0-.2.4-.2.4v.3c0,0,.3.3.3.3.2.2.2.4.2.6,0,.5-.4,1.1-.6.8l-.4-.6-.3-.3v-.2c0,0,.1-.3.1-.3v-.3s0-.3,0-.3v-.3c-.1,0-.4-.1-.4-.1h-.2c0-.1-.2-.1-.2-.1h-.2c0,.1-.2.4-.2.4l-.2.3-.2.2v.3c0,0,0,.5,0,.5v.2c0,0-.2.3-.2.3v.2c0,0-.1.1-.1.1v.4s0,.1,0,.1h0c0,.1-.3.3-.3.3l-.3.2v.2c-.1,0-.3.3-.3.3h-.2c0,.1-.2,0-.2,0h0ZM61.9,17.5l-.3-.2h0c0-.1,0-.4,0-.4v-.3c.3-.4.7-.7,1-.9l.5-.3.5-.2c.3,0,.6,0,.9,0h.5c0,.1.5.2.5.2.5.2.3.5,0,.9l-.2.4-.3.5-.2.3-.2.3-.4.3-.2.3-.3.3-.3.2-.2.3c0,.6.1,1,.6,1.2h.6s.8,0,.8,0c.3,0,.7,0,1,0h.6c0,0,.3,0,.3,0,.1,0,.2-.2.2-.3v-.3c.1,0,0-.6,0-.6v-.2s-.2-.1-.2-.1h0v-.4l.2-.2h.2c0,0,.2.4.2.4h0c0,.1,0,.4,0,.4v.2c.1,0,.2.2.2.2v.2c.1,0,.3.2.3.2.4.2.4.6,0,.9v.2c-.1,0-.6.2-.6.2h-.3c0,.1-.4.3-.4.3h-.3c0,0-.6.1-.6.1h-.2c0,0-.2-.1-.2-.1h-.4c0,0-.3,0-.3,0h-.2c0,0-.2-.2-.2-.2h-.6s-.4,0-.4,0h-.3s-.3,0-.3,0h-.3s-.3-.2-.3-.2l-.2-.2v-.2c-.1,0-.2-.2-.2-.2v-.3c0,0-.1-.4-.1-.4v-.3s0-.2,0-.2v-.3c0,0,0-.2,0-.2v-.3c.1,0,.2-.2.2-.2v-.2c0,0-.1-.2-.1-.2h-.1c0-.1,0-.1,0-.1ZM63.1,15.9v.3s0,.2,0,.2h.1c0,.1.1.3.1.3h.1s.1.2.1.2h.3s.2,0,.2,0h.1c0,0,0-.3,0-.3v-.2s0-.2,0-.2v-.2c-.1,0-.3,0-.3,0h-.2s-.2,0-.2,0h-.2s-.1,0-.1,0ZM62.5,17.1h.4s0,.1,0,.1l.2.2h0c0,.1.2.3.2.3v.2s0,.1,0,.1h-.1c0,0-.1.1-.1.1h-.1c0-.1,0-.3,0-.3h-.1s0-.2,0-.2h0c0,0,0-.2,0-.2v-.2s0-.3,0-.3h0ZM59.7,17.2h-.1c0,0-.1,0-.1,0v.2s0,.1,0,.1h.2s0,.1,0,.1h0c0,.1.1.1.1.1h.2s.2,0,.2,0h.1c0,0,0-.2,0-.2v-.2s-.2,0-.2,0h0c0-.1-.2-.1-.2-.1h-.2s0,0,0,0ZM60.1,15h-.3s-.2,0-.2,0h-.2c0,.1-.1.3-.1.3v.2s0,.1,0,.1l.2.5.2.2h.2c0,0,.1.2.1.2h.2c0,0,.1-.2.1-.2v-.2c0,0,.1-.2.1-.2v-.3s0-.1,0-.1v-.2s0-.2,0-.2h-.1c0-.1-.1-.2-.1-.2h0ZM72.2,15.6l.4-.2h.2c0,0,.3-.2.3-.2h.2c0,0,.3-.1.3-.1h.3c0-.1.2-.2.2-.2h.4c0,0,.1-.2.1-.2.8-.1,1.5-.2,2.2-.2.3,0,.5.3.3.7v.3c0,0-.2.4-.2.4h-.2c0,.1-.3.2-.3.2v.2c-.1,0-.4.2-.4.2v.2c-.1,0-.2.2-.2.2v.2c0,0-.2.3-.2.3l-.3.3h-.2s-.2.2-.2.2h-.3c0,0-.2.2-.2.2l-.2.2h0c0,.1-.2.3-.2.3v.2s0,.2,0,.2h.2s.4,0,.4,0h.4s.3-.1.3-.1h.3c0,0,.3-.2.3-.2h.2c0,0,1.1-.3,1.1-.3h.2c.7,0,1.6.2,1.5,1.1l-.2.2h-.2c0,0-.3.1-.3.1h-.5s-.2,0-.2,0h-.3s-.2,0-.2,0h-.3c0-.1-.2-.2-.2-.2h-.2s-.3,0-.3,0h0s-.2,0-.2,0h-.4s-.2,0-.2,0h-.2c0,0,0,0,0,0h-.3s-.1,0-.1,0h-.4s-.3,0-.3,0h-.4c0,0,0,.2,0,.2h-.3s-.2,0-.2,0l-.2.2h-.3c0,.3-.2.5-.6.6h-.2c0,0-.2.1-.2.1h-.2s-.3,0-.3,0h-.3c0,0-.2-.1-.2-.1h-.4c0-.1-.1-.3-.1-.3v-.2s0-.3,0-.3l.2-.2h.2c0-.1.4-.2.4-.2h.7c0-.1.3-.2.3-.2h.4c0,0,.4-.1.4-.1h.3s.2-.2.2-.2h.2c0-.1.2-.3.2-.3v-.2s.1-.2.1-.2h.1c0-.1.1-.3.1-.3v-.2c.1,0,.2-.2.2-.2h.1c0-.1,0-.2,0-.2h-.2c0,0-.1-.1-.1-.1h-.1c0,0-.1,0-.1,0h-.1s-.5-.1-.5-.1h-.2c0-.1-.1-.2-.1-.2v-.2c-.1,0-.1-.1-.1-.1v-.3s0-.1,0-.1v-.2s0-.1,0-.1h0q0-.1,0-.1ZM84.3,16.4v-.2s0-.2,0-.2h.1c0-.1,0-.4,0-.4h-.2c0,0,0-.2,0-.2v-.2s0-.2,0-.2v-.2s.3-.3.3-.3c.2-.1.5-.2.7,0l.2-.2v-.5s-.1-.4-.1-.4c.3-.6.5-1,.8-1,.3-.1.7-.2,1.1,0l.2.2v.4c0,0,.2.1.2.1v.3c0,0,.3,0,.3,0h.1c0-.1.3-.5.3-.5l.3-.4c.3-.5.8-.6,1-.6.2,0,.4.5.4,1.1h.2c0,0,.3.1.3.1h.4c.1.2.2.3.2.4,0,.2-.2.5-.6.5h-.8c-.3.4-.3.6,0,.8h.4s.3,0,.3,0h.3s.3,0,.3,0h.3c.2.2,0,.9-.2,1h-.3s-.2,0-.2,0h-1.2c0,.5.2.9-.2,1-.8.1-1.3.8-.8,1.4,0,.6-.1.8-.5,1.2,0,0-.1.2-.2.3,0,0-.2.4-.2.5,0,1.4.8,2.3-.4,2.3-.2,0-.2,0-.4-.1l-.6-.4-.3-.3h-.7c-.1-.1-.3-.3-.4-.6v-.4c0,0,.3-.3.3-.3.4,0,.7,0,.8.1h-.1c0,0,0,.3,0,.3v.3s.3.1.3.1h.4c0,.1.3,0,.3,0v-.2c.1,0,.2-.2.2-.2,0-.3,0-.4-.1-.6h-.3s-.2,0-.2,0c-.2-.1-.2-.3,0-.4l.4-.4c0-.2.1-.5,0-.9l-.2-.2v-.2c-.1,0-.3-.1-.3-.1l-.2-.2v-.3s0-.2,0-.2l.2-.2v-.2c.1,0,.4-.1.4-.1h.3c0,0,.2,0,.2,0,.3.5.3.7.9.2h.2c0,0,.4-.3.4-.3l.3-.2h.3c0-.1.2-.2.2-.2v-.2s-.3,0-.3,0h-.2s-.1,0-.1,0h-.5c0,0-.3,0-.3,0h-.2s-.2,0-.2,0h-.2c0,0-1.1.2-1.1.2h-1.2c0,0-.3.3-.3.3h-.4c0,.1-.1.2-.1.2,0,0-.1,0-.2,0h-.2s-.3,0-.3,0l-.3.2c0,0-.1.1-.2.1h-.3s-.1,0-.1,0c-1.5.6-1.9.7-1.8.2,0-.2.5-.5,1-.6.3,0,.5-.2.8-.1h.3c0,0,.3-.2.3-.2h.3c0,0,.3-.1.3-.1h.2c0,0,.1-.2.1-.2h0ZM89.1,20.5h-.2s0,0,0,0h0c0,.1-.1.1-.1.1h-.2s-.1,0-.1,0h-.1c0,0,0,.2,0,.2h0c0,.1,0,.3,0,.3v.2s0,.1,0,.1h0c0,0,0,.1,0,.1v.2c.1,0,.4.2.4.2h.2c0,0,.2,0,.2,0h0c0,0,.1-.1.1-.1h0c0,0,0-.2,0-.2h.1s0-.2,0-.2v-.2c.1,0,.1,0,.1,0v-.2s0-.1,0-.1h0c0-.1-.1-.3-.1-.3h-.1c0-.1,0-.2,0-.2h0c0,0,0,0,0,0ZM84.8,16.2h.2c0-.1.2-.2.2-.2h.1c0,0,.4-.1.4-.1v.3s-.2,0-.2,0h-.3c0,0-.2.1-.2.1h-.2s0-.1,0-.1ZM87.3,15.1h0c0-.1,0-.3,0-.3v-.2c0,0,.2-.1.2-.1h.2c0-.1.2-.1.2-.1h.2s.1.1.1.1v.3s-.2,0-.2,0h0c0,.1,0,.3,0,.3v.2c-.1,0-.3,0-.3,0h-.2c0-.1,0-.1,0-.1ZM94.6,16.4l.9-.2.3-.2h.3s.3-.3.3-.3l.3-.3v-.4c.3-.5.5-1,.8-1.5.2-.3.5-.5.9-.1.3.3.4.7.5,1.5,0,.2.2.2.4.2.3,0,.5,0,.6.3,0,.3,0,.8-.8,1.2l-.5.2c-.2,0-.3,0-.4.2-.1.2,0,.4,0,.6.9.9,1.8,1.6,2.7,2.4.2.2.5.3.7.3.1,0,.2,0,.3,0,.3,0,.4,0,.6.1.2.2,0,.3,0,.4-.1,0-.2.1-.4.2-.4,0-.8,0-1.3.1h-.3c0,0-.5-.3-.5-.3l-.2-.2-.6-.5-.3-.4-.3-.2-.4-.4-.3-.4-.3-.2h-.3c0-.1-.5,0-.5,0v.2s-.1.2-.1.2l-1,1.3-.4.5-.3.3-.5.3h-.3c0,0-.5,0-.5,0l-.4-.4c0-.4,0-.4.4-.4h.1c0-.1.3-.2.3-.2v-.2c.1,0,.4,0,.4,0l.2-.2h0c0-.1.2-.2.2-.2h.2c0-.1.1-.3.1-.3v-.2c.1,0,.3-.2.3-.2v-.2c.3-.3.3-.6-.1-.7h-.7s-.4-.1-.4-.1v-.2c0,0-.2-.3-.2-.3v-.2c0,0,0-.3,0-.3v-.2c0,0,.3-.3.3-.3h0ZM107,15.3c0-.2-.2-.2-.1-.5v-.8c-.1,0,0-.2,0-.2h0c0-.1,0-.4,0-.4l.3-.4h.2s0-.3,0-.3h.3s.2,0,.2,0h.2c0,0,.2.2.2.2l.2.2v.2s0,.2,0,.2v.2c0,0,.2.2.2.2.4,0,.5-.2.3-.5v-.2c0,0,.2-.1.2-.1v-.2s.2-.2.2-.2h.2s.4-.2.4-.2h.3c0,0,.2.2.2.2l.3.2h.2s.1-.2.1-.2c.4-.1.6-.9.8-1.2.4-.5.9-.2,1.1.3v.2c0,0,0,.1,0,.1v.2c0,0,.3.2.3.2v.6c-.3.6-.5.4-1,1v.4s.1.1.1.1v.2s.1.2.1.2v.2c.1,0,.4.1.4.1h.4s.3.2.3.2h.3c.4.9.3,1.5-.7,1.7h-.2c0,0-.3,0-.3,0h-.3s-.2,0-.2,0h-.3c-.6-.4.3-.6.4-.6h.2c0-.1,0-.4,0-.4h-.3c-.8-.4-1.5-.3-2,.3v.4s.2.4.2.4v.6s.1.3.1.3l.3.2.4.3h.2s.3.3.3.3h.3c0,0,.3.2.3.2.3.3.4.6.4.8,0,.6-.3.5-.7.6-.4.2-.8.4-1,.8-.2.2-.6.4-.9.6h-.5c-.3,0-.6.2-.9,0-.2,0-.3-.3-.4-.5-.3-.5-.2-.8.6-.5.2.1.4.2.7.1h.3c.4-.1.7-.4.4-.6-.5-.4-1.1-.4-1.7-.3-.2,0-.4.1-.4,0,0-.2.1-.4.5-.5h.5c.2-.2.3-.4.3-.7v-.7s0-.2,0-.2v-.2s-.1,0-.1,0h-.2c0,0-.2-.2-.2-.2v-.2c-.1,0,0-.2,0-.2.1-.2,0-.3-.2-.3l-.4.2v.2c-.1,0-.3.1-.3.1h-.3s-.2.1-.2.1l-.3.2h-.2c0,.1-.3.2-.3.2l-.2.2h-.2s-.2.2-.2.2h-.2c-.1.3-.2.3-.4.3-.5.1-1,.2-1.1,0-.3,0-.2-.3.1-.8.2-.3.6-.2.9-.3h.3c0-.1.3-.1.3-.1l.2-.2h.3c0,0,.3-.2.3-.2l.2-.2h.3c0,0,.2-.2.2-.2v-.4s0-.3,0-.3v-.2c0,0-.2-.3-.2-.3v-.2c0,0-.3-.3-.3-.3h0ZM109.1,15.1h-.5s0,.2,0,.2h0c0,0-.1.3-.1.3v.2c.1,0,.2,0,.2,0h0c0,.1.1.2.1.2h0c0,0,.1.1.1.1h0c0,0,.3,0,.3,0h.1s0-.2,0-.2v-.2s0-.1,0-.1h.1s0-.1,0-.1v-.2s-.1,0-.1,0h0c0-.1-.1-.2-.1-.2,0,0-.1,0-.1,0ZM109.9,14.5h0c0,0,0-.2,0-.2v-.2c.1,0,.2,0,.2,0h.2s.2,0,.2,0h.1c0,0,.1.2.1.2v.2c0,0,.1,0,.1,0v.2s0,0,0,0h0c0,0,0,.2,0,.2h0s-.2,0-.2,0h-.2s0,0,0,0h0c0,0-.2-.2-.2-.2h0c0,0,0-.2,0-.2h0Z"/>
    </g>
  </g>
</svg>