<?xml version="1.0" encoding="UTF-8"?>
<svg xmlns="http://www.w3.org/2000/svg" version="1.1" viewBox="0 0 128 38.9">
  <defs>
    <style>
      .cls-1 {
        fill: #a82126;
      }

      .cls-1, .cls-2 {
        fill-rule: evenodd;
      }

      .cls-2 {
        fill: #ed6d00;
      }
    </style>
  </defs>
  <!-- Generator: Adobe Illustrator 28.7.1, SVG Export Plug-In . SVG Version: 1.2.0 Build 142)  -->
  <g>
    <g id="_图层_1" data-name="图层_1">
      <g>
        <path class="cls-1" d="M105.4,16.1c.3-.4.6-.9,1-1.2.8-.6,1.4-1.4,2.2-1.8.3-.2,1-.6,1.5-.5.3,0,.2.2,0,.4-.4.6-.9,1-1.3,1.5-.3.3,0,.1.2,0,.8-.4,1.6-.9,2.5-1.2.2-.2.4-.4.5-.7,0-.5-.2-1-.4-1-.7,0-1.2.2-1.7.4-1.1.4-2.3.9-3.1,1.5-.2.1-.3.4-.6.4-.2-.5,0-.8.2-1.1,0-.2.1-.4.2-.5.5-.7,1.3-1.3,2.2-1.5.2,0,.3-.2.2-.3-.2-.6-1.2-1-1.9-.7-.2,0-.4.2-.3.5.2.3.6.2.8.4-.1.5-.5.7-.8,1.1-.3.3-.6.7-.8,1.1-.2.3-.5.7-.7,1-.4.6-.7,1.2-.7,2,.2.4.5.5.8.2ZM53.5,17.9c-.3.3-.5.7-.8,1,0,.3-.2.4-.2.7.5-.4.8-.9,1.2-1.4.1-.2.2-.3.4-.4.2-.2.4-.4.6-.5.4-.4,1-.8,1.5-1,.2-.1.9-.3,1-.5-.8-.6-2.2-.1-3.1.2-.1,0-.2.1-.4.2-.4,0-.6.2-.9.3-.5.1-1,.2-1.4.4.2.1.7.3.9.4.6,0,1.4-.2,2-.1-.2.4-.5.7-.8.9ZM72.4,17.3c-.2,0-.5-.3-.7-.5-.2-.2-.4-.3-.6-.6.4-.6,1.2-1.2,2.2-1,0,.3-.1.6-.2.9-.1.3-.4,1.1-.7,1.2ZM68.7,17.3c-.4.1-1,.3-1.4.1-.1-.7-.3-1.6-.3-2.5,0-.1,0-.3,0-.4,0-.7.8-.2.8.3,0,.3-.1.3-.2.6.5-.3.8-1,1.3-.9-.2.9-.2,2-.2,2.7ZM79,19.9c-.3,0-.5,0-.7,0-.6,0-.9,0-1.6-.1-.4,0-.9-.1-1.3-.2-.3,0-.9-.3-1.4-.5-.2,0-.4-.3-.7-.5-.3-.2-.5-.3-.5-.6,0-.2.7-.4,1-.5.7-.3,1.3-.5,1.9-.8.3-.1.5-.2.7-.3.1,0,.4-.1.4-.3-.2-.8-1.2-.3-2-.5-.8-.1-1.1-1-1.1-1.7.4-.4.9-.9,1.6-1,.3,0,.3,0,.3.3,0,.7-.5,1.4-.7,2,.2,0,.4,0,.6,0,.3,0,.5-.3.8-.4,0,0,.2,0,.4-.1.2-.1.4-.3.6-.5.2-.2.2-.2.4-.4.2-.3.3-.8.2-1.1-.2-.5-.8-.7-1.4-.7-1.4,0-2.2.6-3,1.3-.6.4-1,1-1.6,1.4-.3.3-.4.4-.7.6-.2.2-.4.4-.6.6-.3.3-.5.7-.9.8,0,0,0,0,0,0,0-.4,0-.8,0-1.1,0-.2,0-.2,0-.4.1-.4.2-.8.2-1.2,0-.2,0-.3.1-.5.2-1,.3-1.9,1.1-2.5,0,0,.2,0,.2-.1,0,0,.1-.1.2-.2,0-.1-.2-.2-.2-.3-.5-.1-.9-.2-1.3,0-.2.1-.3.4-.5.5-.6.4-1.3.7-2.1.9,0,.1,0,.2,0,.2.6.1,1.5-.3,2-.1-.2.8-.3,1.3-.4,2.2-.2.3-.5,0-.8,0-.5,0-.9.3-1.2.2-.2-.3-.2-.5-.2-1-.2-.4-.2-1.1-.7-1.3,0,.6.4,1.2.3,1.9.2.1.1.3.1.5,0,.2.1.4.2.7.1.9,0,1.8,0,2.5,0,.4,0,1,0,1.3,0,.4-.2.6-.4.9-.2.3-.2.6-.5.8-.3.2-.8.2-1.2.3-.2.3.3,1.1.6,1.2.4.1.6-.2.8-.4.4-.4.5-.6.7-1,0,0,.2-.2.2-.2.2-.5.2-1,.4-1.4.5-.1,1.1.2,1.8.3,0,.6.2.7,0,1.3-.3.2-.5.2-1,.2,0,.2,0,.3.2.4.1.1.4.6.5.7.3.4.6.5.8,1.2,0,.2,0,.3,0,.3.2,0,.5-.2.7-.3.2-.2.2-.3.1-.6,0-.5-.2-1-.3-1.4,0-.4-.2-.8-.2-1.1,0-.5,0-1-.1-1.5,0-.2-.1-.3,0-.5,0-.2.4-.6.7-.6.4,0,.4.2.6.4.2.2.4.4.5.6.2.2.3.4.6.7.3.3.6.7,1,1,.6.4,1.4.6,2.2.8.2,0,1.6.2,1.9.1.5,0,1.7-.5,1.9-1h0ZM85.7,15c0-.1,0,0,.1-.2.2-.2.5-.6.8-.7,0,0,0,0,0,0,0,0,0,0,0,0,0,0,0,0,.1,0,.2,0,.4-.2.6-.2,0,0,.1,0,.1,0,0,.2.1.4,0,.5,0,0,0,0-.1,0-.3,0-.6.3-.9.4-.2,0,0,0-.2.1-.1.1-.3.2-.4.3,0,0,0,0-.1,0-.1,0-.1-.2,0-.3ZM87.3,10.8c.2-.2.4-.2.7-.2.1,0,.1,0,.2,0,.4-.2.9,0,1.3.2,0,0,0,0,0,.1-.1.5-.9.3-1.2.4,0,0-.1.2-.2.3-.5.2-.7-.3-.9-.6,0,0,0-.1,0-.2ZM89.9,11.6c0,.3-.2.4-.3.6-.2.2,0,.2-.3.3-.2,0-.3.2-.3.5,0,.1,0,.1,0,.2-.4.2-.8.2-1.1-.1,0-.2,0-.2,0-.3.1-.2.3-.4.4-.7,0-.2,0-.2.3-.2.4-.2,1-.4,1.4-.1ZM85.4,16.1c.2-.1.2-.2.3-.3.2-.1.4-.1.6-.2.2-.1.3-.1.5-.2.5-.2,1-.5,1.6-.5.6,0,.3,0,.8-.2.3,0,.6-.1.9-.1.7-.3,1.6-.2,2.5-.3.2,0,.2.1.2.3-.3.5-1,.9-1.5,1.1,0,0-.1,0-.2,0-.2,0-.4.3-.6.4,0,0-.2,0,0,0,.4.3,1.4,0,1.8,0,.9-.3,2-.7,2.5-1.3.2-.3.2-.5.3-.8,0,0,0-.2-.2-.2,0,0-.1,0-.2,0-.7-.1-1.3,0-2.1-.1-.1,0-.2,0-.2,0,0-.3,0-.5.2-.7.4-.4,1-.8,1.2-1.5,0-.2,0-.1.2-.3.3-.3.2-.8.1-1.2,0,0-.2-.3-.2-.3-.8-.3-1.3,0-2.1.1,0,0,0,.2,0,.1,0-.1-.4,0-.4,0,0,0,0,0,0,0,.4,0,1,0,1.4,0,.1,0,.2,0,.2.2.1.2.2.4.2.7,0,.1,0,.1,0,.2,0,.1-.1.2-.2.4,0,.1,0,0-.1.2-.1,0-.3.1-.4.3-.2.2-.3.7-.6.7-.3,0-.4-.2-.5-.3-.2-.1-.5-.1-.6-.2-.4-.5,0-1.2,0-1.8,0,0,0-.1,0-.2,0,0,.2,0,.2,0,0,0,0,0,0,0-.2,0-.5.2-.8.1-.4,0-.6-.4-.6-.8,0,0,0,0,0,0,.2-.7,1.2-.5,1.3-1.4-.2-.2-.4,0-.6.2-.3.2-.6.3-.8.6-.3-.2,0-.6-.1-1,0-.2-.2-.3-.2-.5-.2,0-.2,0-.3,0-.2.2-.3.6-.4,1,0,.2-.2.3-.2.5,0,.3,0,.7-.1,1,0,.1-.3.4-.4.5-.4.3-.7,0-.8-.4,0-.2,0-.4,0-.7s0-.1,0-.2c-.1-.1-.2-.3-.4-.4,0,0,0,0-.2,0-.2.1,0,.3,0,.5,0,.2,0,.3,0,.6,0,.6.2,1.8-.3,1.9-.2-.4-.1-.8-.3-1.2,0,0-.1,0-.2-.1-.1-.1,0-.2-.2-.2-.3,0-.5.7-.5.9,0,0,.1.3.1.5,0,.3,0,.7,0,1,0,0,.1.2.1.3,0,0,0,.1,0,.1,0,.2.2.4.2.6,0,.2,0,.5.2.6,0,0,0,0,.1,0,.2-.1.3-.2.4-.5,0,0,0,0,0-.1.2-.1.4-.3.6-.4.1,0,.1,0,.2,0,.2,0,.4,0,.4.3,0,.4-.5.8-.9.9-.2,0-.1,0-.3.1-.9.7-2.4,1.1-3,2.2-.1.2-.2.8-.2,1.1,0,.7.9,1,1.4.6.5-.4.9-1.7,1.5-2.1Z"/>
        <path class="cls-1" d="M60,15.3c-.7-.3-1.4-.6-2.1-1.4-.5-.5-1.1-1-1.7-1.5-.4-.3-.9-.4-.9-.4,0,0,0-.1,0-.1-.2-.1-.4-.2-.6-.3,0-.1.2-.3.3-.5,0-.1.2-.4.2-.5.3-.7.5-1.3.3-2,0-.3-.9-.8-1.3-.7,0,0,0,0-.1,0,0,0-.2,0-.3,0-.1,0-.1,0-.2.1.2.2.5.3.6.7.2.9,0,1.4-.4,2-.7,1.4-1.9,3-2.7,4.3-.3.6-1.9,2.5-2,2.6-.3.4-1.3,1.1-1.5,1.1-.1,0-.3,0-.3.2.7,0,1.9-.4,2.5-.9.5-.4,1.2-1.2,1.3-1.3.8-.8,2.7-3.7,3.5-5,0,0,0-.1.2,0,.5.4,1.4,1.3,1.8,1.6.3.3.2.6.7,1,.1.2.9,1,1.1,1.2.4.3.7.5,1,.8.5.4,1,.5,1.6.5.3,0,1.3-.5,1.4-.7-.2,0-.4,0-.6-.1-.5-.2-1.3-.6-1.8-.8h0ZM57.5,22.3c-.2-.1-.4-.3-.7-.3-.2,0-.9.2-1,0,0-.1.1-.3.2-.4.3-.4.5-.8.7-1.2.4-.5.9-1,.7-1.9,0-.2-.2-.2-.3-.3-.2,0-.4,0-.5,0-.4,0-.6.2-.8.4-.4.3-.9.5-1.4.8-.6.3-1.3.6-2,.7-.1,0-.3-.3-.3-.1-.1.4-.2,1.2-.2,1.6,0,0,0,.1,0,.2,0,.4,0,1,.2,1.3.2.6,1.1,1.1,1.6.6.2-.5-.3-1.4-.6-1.8-.2-.3-.3-.6-.4-.8-.1-.3-.4-.5-.3-.8.3-.2.7.1,1,.1.6,0,1.5-.3,2.2-.2-.2.5-.4,1.1-.7,1.5-.3.4-.8.7-.7,1.3,0,.2.2.3.3.4,0,0,.1,0,.3,0,.8.2,2.3,0,3.2-.1.5-.1-.5-.7-.6-.8ZM103.1,12.2c0-.3.2-.4.2-.6,0-.3,0-.2.2-.5.1-.2.2-.3.4-.4.2,0,.2,0,0-.2-.2-.3-.7-.7-.9-.6-.9.4-2.2,1.8-3.4,1.6-.2,0-.1,0,0,.2.1.5.5.6.9.7.2,0,.1,0,.3,0,.4-.2.7-.5,1-.6.2,0,.2,0,.2.2,0,.2,0,.3,0,.4,0,.4-.2.8-.2,1.1,0,.5.6.9.7,1.2,0,.3-.3.6-.4.8-.2.2-.3.4-.4.6,0,.1,0,.1,0,.2.3.1.6.6.9.6.3,0,.6-.4.8-.7.3-.4.6-.8.7-1.4-.4-.8-1.3-1.1-1.1-2.5h0ZM90.1,21.9c-.3.4-.3.6-1,.6-.1,0-.3,0-.4,0-.5,0-1-.3-1-.3-.1,0-.1-.2-.3-.2-.3-.8.7-1.1,1.5-1.1.4,0,.2,0,.5,0,.5-.2,1.1-.1,1.2.5,0,.3-.3.4-.5.7ZM94.5,20.2c0,0-.3-.2-.3-.2-.4-.2-.4,0-.7,0-.8-.4-1.2-.6-2.2-.4-.2,0-1.2,0-1.5-1.1,0-.7,1.2-.9.6-1.7-.5-.2-.8-.1-1.3,0,0,0-.5-.1-.8-.2-.5-.1-1.2.2-1.1.8,0,.2.2.3.3.4.2,0,.6-.2.9,0,.2,0,.2.2.4.4,0,.7-.9.9-.6,1.3.2.3,1.1,0,1,.7,0,0-.2.2-.3.3-.1,0-.3,0-.4,0,0,0-.3,0-.3.1-.1,0-.3.1-.4.2-.3.2-1.5.6-1.8.8-.7.6.2.7.6,1,.2.1.2.3.5.3.5.2.9.6,1.5.7.3.3.8.6,1.2.5,0,0,.1,0,.2-.1.3-.1.5-.3.6-.5,0-.2.1-.2.2-.3.2-.3.4-.6.6-.9.2-.3.2-.1.3-.5,0-.6.5-.9.8-1.3.1-.3,1.3.3,1.7,0,.1,0,.4,0,.4,0h0Z"/>
        <path class="cls-1" d="M102.8,18.3c-.2.3-.5.6-.6.9-.2.3-.3.7-.6,1-.2-.9,0-1.8,0-2.8,0-1.3.5-3-.7-3.2-.3.3-.2.8-.2,1.5,0,.6,0,1.2-.2,1.9,0,.2,0,.5,0,.8,0,1.3-.1,2.4,0,3.5,0,.8.3,1.8.9,1.8.4,0,.6-.5.7-1,0-.2,0-.4,0-.6,0-.2.2-.3.2-.5.2-.6.4-1.2.6-1.7.2-.6.8-1.1.6-2-.3,0-.5.4-.7.7ZM108.2,21.3c.9.5,1.9,1.6,2.9,2,.3.1.8.3,1.1.2.5-.1.9-1.1,1-1.6,0-.2,0-.3,0-.5,0-.3.2-.5.2-.7,0-.4,0-.6,0-.9-.4.2-.5.5-.8.8-.1.2-.3.4-.4.5-.2.2-.2.5-.4.6-.3.3-.6.1-.9,0-.5-.2-.6-.2-1.1-.4-.6-.3-1.3-.5-1.8-.9.2-1.5,1.8-1.6,1.6-3.4-.2,0-.3,0-.5,0-.4,0-.9.2-1.1,0,0-.7.7-.8.9-1.5,0-.2-.2-.3-.3-.4-.2-.1-.4,0-.5,0-.1,0-.4,0-.5,0-.1,0-.2.2-.4.2-.4.2-.8.3-1.2.3.2.5.8.2,1.1.4,0,.2-.2.3-.3.5-.1.3-.3,1-.5,1.3-.2.3-.7.4-.8.7,0,.3.3.7.5.7.4,0,.8-.3,1.2-.3.2.2-.1.8-.4,1.1-.2.2-.3.3-.5.6-.4.5-1.2,1.5-1.5,1.5.2.2.8.3,1.1.3.3,0,.6-.3.8-.5.4-.3.7-.6,1.3-.5h0ZM62.9,31.8h3.3v-.7h-2.5v-1.5h2.2v-.7h-2.2v-1.5h2.5v-.7h-3.3v5.2h0ZM75,30c0,.7-.5,1.1-1.1,1.1s-1.1-.4-1.1-1.1v-3.3h-.8v3.4c0,1.1.8,1.8,1.8,1.8s1.8-.7,1.8-1.8v-3.4h-.8v3.3h0ZM67.5,31.8h.8v-5.2h-.8v5.2ZM80.5,30.3h0l-2.3-3.7h-.7v5.2h.8v-3.7h0l2.3,3.7h.7v-5.2h-.8v3.7h0ZM51.5,28.8h-2.1v-2.2h-.8v5.2h.8v-2.3h2.1v2.3h.8v-5.2h-.8v2.2ZM58.5,31.8h.8v-2.2h2.2v-.7h-2.2v-1.5h2.5v-.7h-3.3v5.2h0ZM53.9,31.8h3.3v-.7h-2.5v-1.5h2.2v-.7h-2.2v-1.5h2.5v-.7h-3.3v5.2h0ZM104.2,31.8h.8v-5.2h-.8v5.2ZM101.4,28.8c-.2,0-.4,0-.6,0-.5,0-.7-.4-.7-.7,0-.5.4-.7.9-.7s.9.2,1.3.4l.4-.6c-.5-.3-1-.5-1.7-.5-1.1,0-1.7.6-1.7,1.5s.5,1.3,1.4,1.5c.3,0,.5,0,.7,0,.5,0,.7.3.7.7s-.4.7-1,.7c-.5,0-1.1-.2-1.5-.5l-.5.6c.5.5,1.2.7,2,.7,1.1,0,1.8-.6,1.8-1.5s-.5-1.4-1.4-1.5h0ZM106.1,27.3h1.4v4.5h.8v-4.5h1.4v-.7h-3.6v.7ZM82.9,31.8h.8v-5.2h-.8v5.2ZM113.2,26.6l-1.1,2.3-1.1-2.3h-.8l1.6,3v2.1h.7v-2.1l1.6-3h-.8ZM86.8,30.6h0l-1.2-3.9h-.8l1.7,5.2h.6l1.7-5.2h-.8s-1.2,3.9-1.2,3.9ZM95.3,28.9v-1.6h1.2c.3,0,.4,0,.6.2.2.1.3.3.3.6,0,.4-.3.8-.9.8h-1.2ZM98.1,28.1c0-.5-.2-.9-.5-1.1-.3-.2-.6-.3-1.1-.3h-2v5.2h.8v-2.2h1l1.1,2.2h.9l-1.2-2.3c.6-.2,1-.8,1-1.4ZM89.9,31.8h3.3v-.7h-2.5v-1.5h2.2v-.7h-2.2v-1.5h2.5v-.7h-3.3v5.2h0Z"/>
        <path class="cls-2" d="M30.1,20.5v3c0,.9-.9,1.6-1.7,1.7-.5,0-1,0-1.4-.2-.4-.2-.8-.7-1-1.1,0-.2,0-.4,0-.6v-3.2c-.5-1.5-3-2-4.4-2.1v5.2c0,.4.4,1.1.9,1.5,1.2,1.1,4.1,1.5,5.7,1.5s4.5-.4,5.7-1.5c.4-.4.7-1,.7-1.6v-5.2c-.7,0-1.9.4-2.8.8-.7.3-1.6.9-1.6,1.7Z"/>
        <path class="cls-2" d="M21.5,16.3v1.1c.9,0,1.7.3,2.5.6.8.3,1.5.9,1.9,1.6,0,0,0-.2,0-.3-.9-1.7-3.1-2.8-4.4-2.9h0Z"/>
        <path class="cls-2" d="M25.9,18.8v-.3c-.2-.6-.9-1.5-1.8-2.2-.8-.6-1.7-1-2.6-1.2v.8c.7,0,1.6.4,2.4.9.9.6,1.6,1.4,2,2.1h0ZM28,17.8c1.4,0,2.5-1.1,2.5-2.5,0-1.4-1.1-2.5-2.5-2.5-1.4,0-2.5,1.1-2.5,2.5,0,1.4,1.1,2.5,2.5,2.5ZM32.1,18c.8-.3,1.6-.5,2.5-.6v-1.1c-1.3.2-3.5,1.2-4.4,2.9,0,0,0,.2,0,.3.5-.7,1.1-1.2,1.9-1.6h0Z"/>
        <path class="cls-2" d="M31.9,16.3c-.9.7-1.5,1.7-1.8,2.2v.3c.4-.7,1.1-1.5,2-2.1.8-.5,1.7-.8,2.4-.9v-.8c-1,.2-1.9.6-2.6,1.2Z"/>
        <path class="cls-1" d="M23.4,8.6c0,0,0,0,0,.1,0,0,.1-.3.2-.3,0,.2,0,.5.1.6,0,0-.2.1-.3.1,0-.2-.2-.3-.2-.5,0,0,0,0,0,0,0-.2.2,0,.2,0ZM24.6,8.3c0,0,0,.1,0,.2,0,0,0,.3,0,.3,0,0-.1,0-.2,0,0,0-.1,0-.2,0,0-.2.2-.4.4-.4ZM23,8.6s0,0,0,.1c0,.2.1.4.2.6,0,0,0,.2,0,.3,0,0,0,.1,0,.2,0,0,0,.2,0,.2,0,0-.2,0-.2.2,0,0,.1.2.2.2.1,0,.1,0,.1-.1,0,0,0-.2,0-.3,0,0,0,0,0,0,0-.1,0-.2,0-.3.1,0,.3,0,.4,0,0,.1,0,.2.1.3,0,0-.1,0-.2.1,0,0,0,0,0,0,0,0,.1.1.2.1,0,0,.2,0,.3.2,0,0,0,0,0,0,0,0,0,0,.1-.1,0,0,0,0,0-.1,0-.1-.1-.2-.2-.3,0,0,0-.2-.1-.2,0-.1,0-.2-.1-.3,0,0,0,0,0-.1,0,0,0-.2.1-.2,0,0,.1,0,.2,0,0,0,.1,0,.2,0,0,0,0,0,.2.1,0,0,.2.1.3.2.2,0,.4,0,.6,0,.1,0,.3,0,.4,0,.1,0,.4-.2.4-.3,0,0,0,0-.1,0-.1,0-.2,0-.4,0h-.3c0,0-.2,0-.4,0,0,0-.1,0-.2,0,0,0-.1,0-.1-.1,0,0,.1-.1.2-.2.1-.1.3-.2.4-.3,0,0,.1,0,.1-.1,0,0,0,0,0,0-.1-.2-.3,0-.5,0-.2,0-.3-.1-.4-.3,0-.1.2-.3.3-.3,0,0,0,0,0,0,0,.2,0,.3,0,.5,0,0,0,0,.1,0,0,0,.1,0,.2-.2,0,0,0,0,0,0,0,0,0,0,0-.2,0,0,0,0,0-.1,0,0,0-.2,0-.3,0,0-.2-.1-.4,0-.3.1-.5.3-.6.5,0,.1-.2.3-.2.4,0,0,0,.1-.1.2,0,0,0,.1,0,.2,0,0,0,.2-.2.2,0,0,0,0,0,0,0,0,0-.2,0-.2,0,0,0,0,0,0,0,0,0-.2,0-.3,0,0,0,0,0-.1,0-.2,0-.5,0-.6,0,0,0,0,0,0,0,0,0,0,0,0,0,0,0,0,0,0-.1,0-.2,0-.3,0,0,0,0,.1,0,.1-.1.1-.2.2-.4.4,0,0,0,0,0,0,.1,0,.3-.2.4-.2,0,.2,0,.3,0,.5,0,0-.1,0-.2,0-.1,0-.2.1-.3.1,0,0,0-.1-.1-.2,0,0-.1-.2-.2-.2,0,.1.2.2.2.4,0,0,0,0,0,.1ZM18.9,13.4s0,.1,0,.1c0-.1,0-.3,0-.4,0,0,0,0,0-.1,0,0,0-.1,0-.2,0-.1,0-.3,0-.4,0,0,0-.2,0-.3-.2,0-.4.4-.5.6,0,0,0,0,0,0,0,0,0,.1,0,.2,0,.1-.1.2-.1.3,0,0,.2,0,.2-.1.1,0,.2-.3.3-.4,0,0,0,.2,0,.3,0,0,0,.2,0,.3Z"/>
        <path class="cls-1" d="M17.4,11.6c.2.1.2.2.3.4.1.3.2.8.3,1.2,0,.1.1.7.1.8,0,.1,0,.3,0,.4,0,0,0,0,0,0,.1-.1.2-.4.2-.6,0-.1,0-.3,0-.4,0-.3-.2-1.1-.3-1.4,0,0,0,0,0,0,.1,0,.5,0,.6,0,0,0,.1,0,.3,0,0,0,.3,0,.4,0,.1,0,.2,0,.3,0,.1,0,.2,0,.3-.2,0,0,.1-.3,0-.3,0,0,0,0-.1,0-.1,0-.3.1-.4.2-.2,0-.3.1-.6.2-.2,0-.3,0-.5,0-.1,0-.2,0-.2,0,0,0,0,0,0,0,0,0,0,0-.1,0,0,0,0,0,0-.1,0,0,0,0,0-.1,0-.2-.1-.3-.3-.4,0,0-.3,0-.3.1,0,0,0,0,0,0,0,0,0,0,0,0,0,0,0,0,0,0,0,0,.1,0,.2,0h0ZM20,13.4s0,0,0-.1c0-.1,0-.2,0-.3,0-.1,0-.3-.2-.4,0,0,0,0,0,0,0,0,0,0,0,0,0,0,0,.1,0,.2,0,.1,0,.2,0,.4,0,.2-.1.3-.2.5,0,0,0,0,0,0,0,0,.2.2.3.3,0,0,0,0,0,0,0,0,.2.2.3.2.1,0,.4,0,.4-.2,0-.1-.3-.2-.4-.2,0,0-.1,0-.2,0,0,0-.1,0-.2,0,0,0,.1,0,.2-.2,0-.1.2-.3.3-.4,0,.1.1.2.1.4,0,.1,0,.2.1.3,0,0,0,0,.1,0,0,0,0,0,0,0,.2-.1.4-.4.5-.6,0-.1-.2,0-.2,0,0,0-.1,0-.2,0,0,0-.1.2-.2.2ZM31.4,8.3s0,0,0,0c0,0,.1,0,.2,0,0,0,0,0,0,0,0,0,0,0,0,0,0,0,0,0,0,0,0,0,0,0,.1,0,0,0,0,0,0,0,0,0,0,0,0,.1,0,0,0,0,0,0,0,0-.2,0-.2,0,0,0,0,0,0,0,0,0,0,0-.1,0,0,0,0,0,0,0,0,0,0,0,0,0h0ZM32.1,8s0,0,.1-.1c0,0,0,0,0,0,.1,0,.3,0,.3,0,0,0,0,0-.1.1,0,0,0,0,0,0,0,0,0,0-.1,0,0,0,0,0,0,0,0,0-.2,0-.2-.1,0,0,0,0,0,0ZM32.1,7.5c0,0,.1,0,.2,0,0,0,0,0,0,0,.1,0,.2,0,.3.1,0,0,0,0,0,0,0,.1-.2,0-.3,0,0,0,0,0,0,0-.1,0-.1-.1-.2-.2,0,0,0,0,0,0ZM30.8,8.9c.1,0,.3-.3.5-.3,0,0,0,0,0,0,0,0,0,0,.1,0,0,0,0,0,.1,0,.1,0,.3,0,.4,0,.1,0,0,0,.2,0,0,0,.1,0,.2,0,.2,0,.4,0,.6.1,0,0,0,0,0,0-.1,0-.3.1-.4.1,0,0,0,0,0,0,0,0-.1,0-.2,0,0,0,0,0,0,0,0,.1.3.1.4.1.2,0,.5,0,.7-.1,0,0,0,0,.1-.1,0,0,0,0,0,0,0,0,0,0,0,0-.1,0-.3-.1-.5-.2,0,0,0,0,0,0,0,0,0-.1.1-.1.1,0,.3-.1.4-.2,0,0,0,0,0,0,0,0,.1-.2.1-.3,0,0,0,0,0,0-.2-.1-.3-.1-.5-.1,0,0,0,0,0,0,0,0,0,0,0,0,0,0,0,0,0,0,0,0,.2,0,.3.1,0,0,0,0,0,0,0,0,0,.1,0,.2,0,0,0,0,0,0,0,0,0,0,0,0,0,0,0,0,0,0,0,0,0,0-.1,0,0,0-.1.1-.2.1,0,0,0,0,0-.1,0,0-.1,0-.1,0,0-.1,0-.3.2-.4,0,0,0,0,0,0,0,0,0,0,0,0,0,0,0,0,0,0,0,0-.1,0-.2,0,0,0-.1-.1,0-.2,0,0,0,0,0,0,0-.1.3,0,.4-.2,0,0,0,0-.2,0,0,0-.2,0-.2,0,0,0,0-.1,0-.2,0,0,0,0,0-.1,0,0,0,0,0,0,0,0-.1.1-.2.2,0,0,0,0,0,0,0,0,0,.2-.1.2,0,0,0,0-.1,0,0,0-.2,0-.2-.2,0,0,0,0,0-.2,0,0,0,0,0,0,0,0,0,0,0-.1,0,0,0,0,0,0,0,0,0,0,0,.1,0,0,0,0,0,.1,0,.1,0,.4-.2.4,0,0,0-.2,0-.3,0,0,0,0,0,0,0,0,0,0,0,0,0,0-.2.1-.2.2,0,0,0,0,0,.1,0,0,0,.2,0,.2,0,0,0,0,0,0,0,0,0,0,0,0,0,0,0,.1,0,.1,0,0,0,.1,0,.1,0,0,0,0,0,0,0,0,0,0,.1,0,0,0,0,0,0,0,0,0,.1,0,.2,0,0,0,0,0,0,0,0,0,0,0,0,.1,0,0-.2.1-.3.1,0,0,0,0,0,0-.3,0-.6,0-.8.2,0,0-.1.1-.1.2,0,.2.1.3.3.2h0Z"/>
        <path class="cls-1" d="M32,10.1c0,0,0,0-.2.1-.1,0-.1.1-.3,0,0,0,0,0,0,0-.1,0-.2-.1-.2-.2,0,0,0,0,0,0,0-.2.2-.2.4-.1,0,0,0,0,.1,0,.1,0,.2,0,.2.2ZM31.7,9.7s0,0,0,0c0,0,0,0,0,0,0,0,0,0-.1,0,0,0-.4,0-.5,0-.2,0,0,.2,0,.3,0,0,0,0,0,0,0,0,.2.2.3.3,0,0,.1.2.2.2,0,0,0,0,0,0,0,0,.1,0,.2,0,0,0,0,0,0,0,0,0,.1-.1.2-.2,0,0,0,0,0,0,0-.1.2-.2.3-.2,0,0,.3.2.4.1,0,0,0,0,0,0,0,0,0,0,0,0,0,0-.1,0-.2,0-.1-.1-.2-.2-.5-.2,0,0-.3-.1-.3-.4,0-.2.3-.1.3-.3-.1,0-.2,0-.3-.1,0,0-.1,0-.2,0-.1,0-.3,0-.3.1,0,0,0,0,0,.1,0,0,.1,0,.2,0,0,0,0,0,0,.1,0,.2-.3.1-.2.2,0,0,.2,0,.2.2,0,0,0,0,0,0h0ZM37.6,11.9c-.2,0-.3,0-.5.1,0,0,0,.2,0,.2.1,0,.3,0,.4,0,.2,0,.5,0,.6.2,0,0,.3.1.3.2,0,0,0,0,0,0-.2,0-.3,0-.5,0,0,0,0,0,0,0,.2,0,.4.2.6.3,0,0,.1,0,.2,0,0,0,.2-.2.1-.2,0-.1-.2-.2-.3-.3-.2-.2-.5-.3-.7-.4,0,0-.1,0-.1,0,0-.1.2,0,.2,0,0,0,0,0,.1,0,.2,0,.4,0,.6.2,0,0,0,0,0,0,0-.1,0-.4-.1-.5,0,0,0,0-.1,0,0,0,0,.1,0,.2-.1,0-.2,0-.3,0-.1,0-.2,0-.3,0,0,0-.2,0-.3,0ZM36.7,11.5s0,0,0,0c0,0,0,.2,0,.3,0,0,.2,0,.3,0,.1,0,.2,0,.4,0,.1-.2,0-.4.3-.5,0,0,0,0,.2,0,0,0,0,0,.1,0,0,0,0,0,.1,0,0,0,0,0,0,0,0,0,0-.2,0-.3-.2-.1-.6-.2-.8-.4,0,0,0,0,0,0,0,0,0,.2,0,.3,0,0,0,0,0,0,0,0,.2,0,.3.1,0,0,0,0,0,0,0,0,0,0,0,0,0,0-.2,0-.2.1-.1,0,0,.2-.1.3,0,0-.2,0-.2,0,0,0-.1,0-.2,0Z"/>
        <path class="cls-1" d="M35.5,12.4s0,0,.1,0c0,0,0,0,.1,0,.1,0,.3,0,.4-.1.2,0,.3,0,.5-.2,0,0-.2,0-.2,0s-.2,0-.3,0c0,0-.2,0-.3,0,.1-.2.4-.2.5-.4.2-.2.6-.3.5-.6,0,0-.2,0-.3.2-.1,0-.3.1-.4.2,0,0-.1,0-.2,0-.3.2-.5.3-.7.4-.2.1-.3.3-.2.4,0,0,.2,0,.3,0h0ZM37.8,12.8s0,0,0-.1c0,0,0,0,0,0,0,0,0,0,0,0,0,0,0,0,0,0,0,0-.2-.1-.2-.2,0,.1,0,.2,0,.3,0,0,0,0-.1,0,0,0-.2,0-.3,0,0,0-.2,0-.2,0,0,0,0,.1,0,.2,0,0,.2.1.2.2,0,0-.2,0-.3,0,0,0-.1,0-.2,0-.2,0-.5,0-.5,0,0,0,0,.2,0,.2,0,0,.1,0,.2,0,.1,0,.2,0,.3.2,0,.2,0,.6,0,.8,0,0,0,.2.1.2,0,0,.3,0,.4,0,0,0,0,0,0,0,0,0,.1,0,.2,0,0,0,.1,0,.2-.1,0,0-.2,0-.3,0,0,0-.1,0-.2,0,0,0-.1,0-.2,0,0,0-.1,0-.1-.2,0-.1,0-.1,0-.3,0-.2,0-.3,0-.5.3-.2.6.1.9-.1,0,0,0,0,0-.1,0,0-.2-.1-.1-.2.1,0,.3,0,.4,0Z"/>
        <path class="cls-1" d="M28,28.6c-5.2,0-9.4-4.1-9.4-9.1s4.2-9.1,9.4-9.1,9.4,4.1,9.4,9.1-4.2,9.1-9.4,9.1h0ZM37.7,19.5c0-5.2-4.3-9.4-9.7-9.4s-9.7,4.2-9.7,9.4,4.3,9.4,9.7,9.4,9.7-4.2,9.7-9.4h0ZM17.7,22.1l-.9.2-.2-.8.9-.2v-.3c0,0-2.1.4-2.1.4v.3c0,0,.9-.2.9-.2l.2.8-.9.2v.3c0,0,2.1-.4,2.1-.4,0,0,0-.3,0-.3ZM17.5,24.8h.3c0-.1-.4-.9-.4-.9l.5-.2.4.9h.3c0-.1-.5-1.3-.5-1.3l-1.9.8.5,1.2h.3c0-.1-.4-1-.4-1l.6-.2.4.8ZM18.5,25.9l.5-.4.6.8.2-.2-.8-1.1-1.7,1.2.2.3.7-.5.5.7.2-.2-.5-.7h0ZM20.3,27.2l.7.7.2-.2-1-.9-1.4,1.5,1,.9.2-.2-.7-.7.4-.4.6.6.2-.2-.6-.6.4-.4ZM21,30l-.3-.2,1.2-1.7.3.2-1.2,1.7ZM24.8,31c0,.2-.3.4-.5.3-.3,0-.3-.3-.3-.5l.4-1.3h-.3c0,0-.4,1.2-.4,1.2-.1.4,0,.8.5.9.4.1.8,0,.9-.5l.4-1.3h-.3c0,0-.4,1.2-.4,1.2ZM27.4,31.5l-.8-1.5h-.3s-.2,2-.2,2h.3s.1-1.4.1-1.4l.8,1.5h.3s.2-2,.2-2h-.3s-.1,1.4-.1,1.4ZM29,32.1l-.2-2.1h.3s.2,2,.2,2h-.3ZM31,31.3l-.9-1.4h-.3c0,0,1.1,1.9,1.1,1.9h.3c0,0,.1-2.2.1-2.2h-.3c0,0,0,1.7,0,1.7h0ZM33.1,30.7l-.3-.5.8-.4v-.3c-.1,0-.9.4-.9.4l-.3-.5.9-.4v-.3c-.1,0-1.3.6-1.3.6l.9,1.9,1.2-.6v-.3c-.1,0-1,.4-1,.4ZM35.1,28.5l-.4.3-.4-.5.4-.3c.2-.1.3-.1.4,0,.1.2,0,.4,0,.5ZM35.4,27.9c-.2-.3-.6-.3-.9,0l-.6.5,1.3,1.6.2-.2-.5-.7.3-.2.9.4.3-.2-.9-.4c.1-.2.1-.5,0-.7h0ZM37.7,26.8c-.3-.2-.6-.2-.8,0-.1.1-.4.4-.6.2-.2-.1-.1-.3,0-.5.1-.1.3-.2.5-.3v-.3c-.3,0-.5.2-.7.4-.2.3-.3.6,0,.9.3.2.5.2.8,0,.2-.1.4-.4.6-.2.2.1,0,.4,0,.5-.1.2-.3.3-.5.3v.3c.3,0,.6-.2.8-.4.2-.3.3-.7,0-.9h0ZM38.8,26.2l-1.8-1.1.2-.3,1.8,1.1s-.2.3-.2.3ZM38.4,23h-.3c0-.1-.6,1.2-.6,1.2h.3c0,.1.2-.4.2-.4l1.7.7v-.3c.1,0-1.5-.7-1.5-.7,0,0,.2-.5.2-.5ZM39.6,21.8l-1.1-.9v.3c0,0,.7.6.7.6l-1,.2v.3c0,0,1.3-.4,1.3-.4l.8.2v-.3c0,0-.8-.2-.8-.2ZM16.3,20.3c.3,0,.5-.2.5-.5,0-.3-.2-.5-.5-.5-.3,0-.5.2-.5.5,0,.3.2.5.5.5h0ZM39.7,20.3c.3,0,.5-.2.5-.5s-.2-.5-.5-.5-.5.2-.5.5.2.5.5.5Z"/>
        <path class="cls-1" d="M28,33.1c-7.5,0-13.6-6.1-13.6-13.6s6.1-13.6,13.6-13.6,13.6,6.1,13.6,13.6-6.1,13.6-13.6,13.6h0ZM28,5.4c-7.7,0-14,6.3-14,14s6.3,14,14,14,14-6.3,14-14-6.3-14-14-14h0Z"/>
      </g>
    </g>
  </g>
</svg>