<svg width="128" height="132" fill="none" xmlns="http://www.w3.org/2000/svg"><g filter="url(#a)"><path fill-rule="evenodd" clip-rule="evenodd" d="M91.54 65.188c.138-1.052.21-2.113.21-3.171 0-7.44-2.869-14.39-8.074-19.563-5.183-5.151-12.116-7.987-19.525-7.987-15.271 0-27.697 12.514-27.697 27.897 0 .951.046 1.895.139 2.824h1.794c-.1-.924-.15-1.865-.15-2.824 0-14.313 11.602-25.915 25.914-25.915 14.313 0 25.816 11.256 25.816 25.568 0 1.066-.077 2.127-.226 3.171h1.798ZM71.648 92.171h2.022v-3.64h2.9v-.742h-7.82v.742h2.898v3.64Zm-8.663 0h2.023v-4.416h-2.023v4.416ZM52.64 90.249h3.708v1.922h2.022v-4.416h-2.022v1.753h-3.708v-1.753h-2.022v4.416h2.022v-1.922ZM35.528 72.357h.82v-1.22h-.82v1.22Zm0-1.756h.82v-1.22h-.82v1.22Zm0-1.756h.82v-1.22h-.82v1.22Zm1.21 5.268h.82v-1.22h-.82v1.22Zm-2.42-1.756h.82v-1.22h-.82v1.22Zm1.21 1.756h.82v-1.22h-.82v1.22Zm-1.21-5.268h.82v-1.22h-.82v1.22Zm0 1.756h.82v-1.22h-.82v1.22Zm3.63 1.756h.82v-1.22h-.82v1.22Zm0 1.756h.82v-1.22h-.82v1.22Zm0-3.512h.82v-1.22h-.82v1.22Zm0-1.756h.82v-1.22h-.82v1.22Zm1.21 5.268h.82v-1.22h-.82v1.22Zm-2.42-1.756h.82v-1.22h-.82v1.22Zm0-1.756h.82v-1.22h-.82v1.22Zm-2.42 3.512h.82v-1.22h-.82v1.22Zm4.84-1.756h.82v-1.22h-.82v1.22Zm-2.42-3.512h.82v-1.22h-.82v1.22ZM26.69 74.113h.82v-1.22h-.82v1.22Zm1.595-1.756h.82v-1.22h-.82v1.22Zm0-1.756h.82v-1.22h-.82v1.22ZM30 74.113h.82v-1.22H30v1.22Zm-1.714-5.268h.82v-1.22h-.82v1.22Zm0 5.268h.82v-1.22h-.82v1.22ZM30 72.357h.82v-1.22H30v1.22Zm-3.309 0h.82v-1.22h-.82v1.22Zm0-1.756h.82v-1.22h-.82v1.22Zm0-1.756h.82v-1.22h-.82v1.22Zm4.56 1.756h.82v-1.22h-.82v1.22Zm1.577 3.512h.82v-1.22h-.82v1.22ZM30 70.6h.82v-1.22H30v1.22Zm1.251-1.756h.82v-1.22h-.82v1.22Zm1.577 1.756h.82v-1.22h-.82v1.22Zm0 1.756h.82v-1.22h-.82v1.22ZM30 68.845h.82v-1.22H30v1.22Zm1.251 5.268h.82v-1.22h-.82v1.22Zm0-1.756h.82v-1.22h-.82v1.22Zm7.907-1.756h.82v-1.22h-.82v1.22Zm-6.33-1.756h.82v-1.22h-.82v1.22Zm46.17-5.186a.427.427 0 0 0-.427.427v1.118h.855v-1.118a.427.427 0 0 0-.427-.427Zm-.427 3.377h.855v-1.175h-.855v1.175Zm0 1.832h.855v-1.174h-.855v1.174Zm0 1.804h.855v-1.244h-.855v1.244Zm1.363 3.501h.855v-1.191h-.855v1.191Zm0-5.305h.855v-1.174h-.855v1.174Zm0 3.555h.855V71.23h-.855v1.192Zm0-5.387h.855v-1.175h-.855v1.175Zm0 3.636h.855v-1.244h-.855v1.244Zm-1.363 1.75h.855v-1.19h-.855v1.19Zm-1.362 0h.855v-1.19h-.855v1.19Zm0 1.751h.855v-1.191h-.855v1.191Zm-1.363-7.137h.855v-1.175h-.855v1.175Zm.427-3.377a.427.427 0 0 0-.427.427v1.118h.855v-1.118a.427.427 0 0 0-.428-.427Zm1.363 0a.427.427 0 0 0-.427.427v1.118h.855v-1.118a.427.427 0 0 0-.428-.427Zm.935 10.514h.855v-1.191h-.855v1.191Zm-1.362-5.305h.855v-1.174h-.855v1.174Zm0-1.832h.855v-1.175h-.855v1.175Zm0 3.636h.855v-1.244h-.855v1.244ZM64.752 54.31h.805v-1.13h-.805v1.13Zm-2.442 2.966h.805v-.988h-.805v.988Zm0 1.43h.805v-.987h-.805v.988Zm2.442-6.033h.805v-1.13h-.805v1.13Zm-1.221 0h.805v-1.13h-.805v1.13ZM80.36 63.66a.427.427 0 0 0-.428.427v1.118h.855v-1.118a.427.427 0 0 0-.428-.427Zm-15.61-6.382h.806v-.988h-.805v.988Zm0 1.43h.806v-.987h-.805v.988Zm-1.22-1.43h.805v-.988h-.805v.988Zm0 1.43h.805v-.987h-.805v.988ZM39.157 68.846h.82v-1.22h-.82v1.22ZM63.531 54.31h.805v-1.13h-.805v1.13Zm17.765 18.113h.854V71.23h-.854v1.192Zm0 1.75h.854v-1.191h-.854v1.191Zm0-5.305h.854v-1.174h-.854v1.174Zm0 1.804h.854v-1.244h-.854v1.244ZM62.31 52.674h.805v-1.13h-.805v1.13Zm18.986 14.362h.854v-1.175h-.854v1.175Zm.427-3.377a.427.427 0 0 0-.427.427v1.118h.854v-1.118a.427.427 0 0 0-.427-.427ZM62.31 54.31h.805v-1.13h-.805v1.13Zm29.342 19.803h.82v-1.22h-.82v1.22Zm7.242 0h.82v-1.22h-.82v1.22Zm-1.714-5.268H98v-1.22h-.82v1.22Zm0 5.268H98v-1.22h-.82v1.22Zm0-1.756H98v-1.22h-.82v1.22Zm0-1.756H98v-1.22h-.82v1.22Zm3.31 1.756h.82v-1.22h-.82v1.22Zm-1.596 0h.82v-1.22h-.82v1.22Zm0-1.756h.82v-1.22h-.82v1.22Zm0-1.756h.82v-1.22h-.82v1.22Zm1.596 5.268h.82v-1.22h-.82v1.22Zm-6.137-1.756h.82v-1.22h-.82v1.22Zm1.577-3.512h.82v-1.22h-.82v1.22Zm-1.578 5.268h.82v-1.22h-.82v1.22Zm-1.49-5.268h.82v-1.22h-.82v1.22Zm1.49 1.756h.82v-1.22h-.82v1.22Zm1.578 0h.82v-1.22h-.82v1.22Zm0 1.756h.82v-1.22h-.82v1.22Zm-70.45-3.512h.82v-1.22h-.82v1.22Zm68.873 0h.82v-1.22h-.82v1.22Zm8.556 0h.82v-1.22h-.82v1.22Zm1.21 0h.82v-1.22h-.82v1.22Zm0 3.512h.82v-1.22h-.82v1.22Zm1.21 1.756h.82v-1.22h-.82v1.22Zm-1.21 0h.82v-1.22h-.82v1.22Zm0-3.512h.82v-1.22h-.82v1.22Zm3.519-3.343h-7.513v-.26a.07.07 0 0 0-.07-.07h-6.116a.07.07 0 0 0-.07.07v.35h-7.576v-.35h7.068v-.422h7.286v.422h6.991v.26Zm-7.513 7.202V67.4h7.185c-.001.005-.004.012-.004.019v7.041h-7.181Zm-1.624-7.392h1.483v7.392h-1.483v-7.392Zm-2.873 0h2.733v7.392h-2.733v-7.392Zm-1.618 0h1.478v7.392H94.01v-7.392Zm-6.348.42h6.207v6.972h-6.207V67.49Zm-1.098 0h.958v6.972h-.958V67.49Zm21.074 7.113v.54H85.604l.352-.54h21.682Zm0 1.22H85.956l-.352-.54h22.034v.54Zm-21.962-2.086a.87.87 0 0 0-.954.027c-.136.1-.342.332-.284.768h-.246V67.71h2.232v6.751h-.416c.022-.312-.096-.574-.332-.725Zm-1.029 1.335H71.476a.236.236 0 0 0-.227-.174h-.063v-.225H84.49l.157.4Zm-.232.68H77.04a.833.833 0 0 0-.629-.053 14.78 14.78 0 0 0-2.287-.486h10.519l-.23.54Zm-7.757.702c-.28 0-.505-.139-.505-.311 0-.17.225-.31.505-.31s.507.14.507.31c0 .172-.228.311-.507.311Zm-4.48-.618c.252.079.431.197.503.372h-2.378v-.372h1.875Zm.73.537a.309.309 0 0 0-.077.2c0 .09.044.171.116.238h-1.832v-.463h1.757l.036.025Zm.501-.139c.216 0 .393.113.393.252s-.177.25-.393.25c-.216 0-.392-.111-.392-.25s.176-.252.392-.252Zm-2.435.577h-.34v-.463h.34v.463Zm-.481 0h-13.35v-.463h13.35v.463Zm-13.49 0h-2.014a.327.327 0 0 0 .116-.238.309.309 0 0 0-.077-.2l.036-.025h1.939v.463Zm-2.477-.075c-.216 0-.392-.111-.392-.25s.176-.252.392-.252c.217 0 .393.113.393.252s-.176.25-.392.25Zm1.232-.9h2.068v.372h-2.571c.072-.175.25-.293.503-.372Zm-12.405-.764.157-.399h13.316v.225h-.066a.238.238 0 0 0-.226.174H43.353Zm8.17.627a.833.833 0 0 0-.629.054h-7.309l-.229-.54H53.81c-.775.108-1.54.258-2.286.486Zm-.245.755c-.28 0-.507-.139-.507-.311 0-.103.083-.194.21-.25h.043a.07.07 0 0 0 .06-.036.798.798 0 0 1 .194-.023c.28 0 .505.138.505.309 0 .172-.226.311-.505.311Zm-8-2.69a.87.87 0 0 0-.954-.027c-.236.151-.354.413-.333.725h-.415V67.71h2.231v6.821h-.245c.058-.436-.148-.668-.284-.768Zm-.883 1.379H20.362v-.54h21.682l.352.54Zm-.351.68H20.362v-.54h22.034l-.352.54Zm-21.355-8.422h7.186v7.061h-7.182V67.42c0-.007-.002-.014-.004-.02Zm8.81 7.061h-1.483v-7.392h1.482v7.392Zm2.872 0H29.64v-7.392h2.732v7.392Zm1.62 0h-1.48v-7.392h1.48v7.392Zm6.346 0h-6.206V67.49h6.206v6.971Zm1.099 0h-.958V67.49h.958v6.971ZM20.362 67.26v-.261h6.991v-.422h7.286v.422h7.067v.35h-7.575v-.35a.07.07 0 0 0-.07-.07h-6.116a.07.07 0 0 0-.07.07v.26h-7.513Zm23.586-3.818h1.266v.03h-1.266v-.03Zm1.266 11.09h-1.266V64.136h1.266V74.53Zm-1.266-10.92h1.266v.386h-1.266v-.385Zm-.658-.746h16.12v.436H43.9l-.61-.436Zm16.605 6.838v.209l-2.834.002-.213-.053v-.158h3.047Zm-.68-10.692h9.663l-.388.26h-8.982l-.292-.26Zm-.2-.152v-.01h2.992a.07.07 0 0 0 .07-.071v-2.803h3.812v2.803c0 .039.032.07.07.07h3.11v.023H59.05a.071.071 0 0 0-.033-.012Zm2.2-.151h-1.527v-.27h1.526v.27Zm.135-.521-.097.11H59.65l-.09-.11h1.79Zm.22-.1a.07.07 0 0 0-.064-.041h-.815v-2.071h1.246v2.733h-.582v-.314l.203-.231a.07.07 0 0 0 .012-.076Zm-1.078-2.253v-.228h7.025v.228h-1.555s-.001 0 0 0H62.01s-.001 0 0 0H60.492Zm-.273-.553h7.625l-.232.185h-7.166l-.227-.185Zm-.198-.191h7.954v.05h-7.96l.006-.05Zm.405-.515a.09.09 0 0 1 0-.179h1.45a.09.09 0 0 1 0 .18h-1.45Zm1.147-3.863v-.009h4.706v.009a.284.284 0 0 1-.283.283h-4.14a.284.284 0 0 1-.283-.283Zm-.039-.15-.088-.098h5.01l-.089.099h-4.833Zm1.268-.238h-.855v-.248h.855v.248Zm-1.087-.389a.058.058 0 1 1 0-.117h1.25a.058.058 0 1 1 0 .117h-1.25Zm3.37.389h-2.143v-.188h2.143v.188Zm-2.01-1.098h.216l.257.77h-.038l-.435-.77Zm.339-.49-.123.378h-.192l.315-.379Zm-.052-.423-.148-.153h1.522l-.098.153h-1.276Zm.042-.472h1.194l.136.207H63.21l.194-.207Zm1.253-.203-.07.09h-1.182l-.079-.09h1.331Zm-1.453-.113a.114.114 0 0 1 0-.228h1.567a.114.114 0 0 1 0 .228h-1.567Zm1.632 1.589h-.155l-.203-.458h.02l.338.458Zm-.461.112h.166l-.329.77h-.058l.22-.77Zm-.41 0h.293l-.22.77h-.073v-.77Zm.3-.112h-.3v-.458h.156l.143.458Zm-.026-.458h.116l.203.458h-.176l-.143-.458Zm-.75-.112-.06-.119h1.14l-.074.119H63.49Zm.15.57.13-.458h.084v.458h-.214Zm-.007.112h.22v.77h-.042l-.178-.77Zm-.223-.112.15-.458h.093l-.13.458h-.113Zm.107.112.179.77h-.029l-.256-.77h.106Zm.986.77h-.167l.329-.77h.195l-.357.77Zm1.469.328h-.745v-.248h.745v.248Zm-.908-.506h1.14a.058.058 0 1 1 0 .117h-1.14a.058.058 0 1 1 0-.117Zm.988 5.131h-4.178v-.084h4.178v.084Zm-4.178-.225v-.008a.233.233 0 0 0 .233-.23.23.23 0 0 0-.23-.23l-.003-3.12h4.123c.019 0 .037-.003.055-.006v3.126a.232.232 0 0 0-.232.23c0 .127.103.23.23.23l.002.008h-4.178Zm5.625-.328a.09.09 0 1 1 0 .18h-1.449a.09.09 0 0 1 0-.18h1.449Zm-1.124 3.765.19.231v.316h-.534v-2.733h1.23v2.071h-.832a.07.07 0 0 0-.063.04.07.07 0 0 0 .009.075Zm1.857.547h-1.526v-.27h1.526v.27Zm.136-.521-.098.11h-1.601l-.091-.11h1.79Zm2.819 13.548a.234.234 0 0 0 .168-.224c0-.02-.007-.036-.01-.054v-.487a.07.07 0 0 0-.019-.047l-.077-.086a.07.07 0 0 0-.053-.024h-.146v-.737h.18a.07.07 0 0 0 .07-.07v-.338a.07.07 0 0 0-.07-.07h-2.647v-6.157h14.063v11.09h-11.46v-2.796Zm-.072-.125h-.713l-.006-.002c-.054-.002-.1-.044-.1-.097 0-.056.046-.101.1-.101h.72c.039 0 .072.023.088.057v.044c0 .01.002.018.005.026a.098.098 0 0 1-.094.073Zm.135 3.625h-.989a.1.1 0 0 1-.1-.099c0-.055.047-.101.1-.101h.206V71.75h.579v3.284h.204a.1.1 0 0 1 .1.101.1.1 0 0 1-.1.1Zm-3.343-4.242h-7.87v-1.56h7.87v1.56Zm.535-1.82v.425h-.395v-.235a.07.07 0 0 0-.07-.07h-8.01a.07.07 0 0 0-.071.07v.2h-.344v-.39h8.89Zm-6.953-.14H59.55v-9.374h1.937v9.373Zm4.74 0h-4.6v-9.374h4.6v9.373Zm2.213-9.514h-8.89v-.108h8.89v.108Zm0 9.514H66.37v-9.374h2.072v9.373Zm-.395.706h3.113v.196h-3.113v-.196Zm3.118 1.215.028.031h-3.146v-.031h3.118Zm-.255-.14h-2.863v-.738h2.863v.737Zm-14.014.455a.228.228 0 0 0-.075.015v-.14h3.145a.069.069 0 0 0 .034-.01h7.977a.07.07 0 0 0 .031-.008h3.196v.161a.235.235 0 0 0-.089-.018H56.895Zm12.32 4.107h.51v.318h-.51v-.318Zm-1.627-3.865c0-.056.046-.101.1-.101h.719a.1.1 0 0 1 .099.1.1.1 0 0 1-.1.1h-.713l-.006-.002c-.053-.002-.099-.044-.099-.097Zm.17 3.524V71.75h.58v3.284h.204a.1.1 0 0 1 .099.101.1.1 0 0 1-.1.1h-.989a.1.1 0 0 1-.099-.1c0-.055.046-.101.1-.101h.206Zm-2.88-3.524c0-.056.046-.101.1-.101h.72a.1.1 0 0 1 .098.1.1.1 0 0 1-.099.1h-.713l-.006-.002c-.054-.002-.1-.044-.1-.097Zm.171 3.524V71.75h.579v3.284h.204a.1.1 0 0 1 .1.101.1.1 0 0 1-.1.1h-.989a.1.1 0 0 1-.099-.1c0-.055.046-.101.1-.101h.205Zm-2.878-3.524c0-.056.046-.101.1-.101h.719a.1.1 0 0 1 .099.1.1.1 0 0 1-.1.1h-.713l-.006-.002c-.053-.002-.099-.044-.099-.097Zm.17 3.524V71.75h.58v3.284h.204a.1.1 0 0 1 .099.101.1.1 0 0 1-.1.1h-.988a.1.1 0 0 1-.1-.1c0-.055.046-.101.1-.101h.206Zm6.733.659H58.421v-.318h10.653v.318Zm-9.61-4.183c0-.056.045-.101.099-.101h.72a.1.1 0 0 1 .099.1.1.1 0 0 1-.1.1h-.713l-.006-.002c-.054-.002-.1-.044-.1-.097Zm.17 3.524V71.75h.579v3.284h.204a.1.1 0 0 1 .1.101.1.1 0 0 1-.1.1h-.989a.1.1 0 0 1-.099-.1c0-.055.046-.101.1-.101h.205Zm-1.668.8h11.875v.371H57.966v-.372Zm-1.265-.471c.02.005.038.012.06.012h1.52v.318h-2.173c.158-.15.36-.255.593-.33Zm.265-.33v-3.283h.58v3.284h.203a.1.1 0 0 1 .1.101.1.1 0 0 1-.1.1h-.989a.1.1 0 0 1-.099-.1c0-.055.046-.101.1-.101h.205Zm-.17-3.523c0-.056.046-.101.1-.101h.719a.1.1 0 0 1 .099.1.1.1 0 0 1-.1.1h-.713l-.006-.002c-.053-.002-.099-.044-.099-.097Zm.318-1.459h2.78v.75h-2.78v-.75Zm2.78.891v.06h-3.048l.083-.06h2.966Zm-3.133-.96.215.053-.002.012v.755h-.068a.07.07 0 0 0-.04.013l-.158.113a.07.07 0 0 0-.029.057v.028a.07.07 0 0 0-.035.06.07.07 0 0 0 .035.059v.272l.001.004a.235.235 0 0 0-.025.102c0 .107.074.194.17.224v2.795h-11.47V63.441H59.41v6.122h-2.633a.07.07 0 0 0-.07.07v.283c0 .032.022.06.053.068Zm13.401 6.223h-.18v-.372h.18v.372Zm-.296-.512v-.318h1.383c.005 0 .009-.003.014-.003.221.075.414.178.565.32h-1.962Zm12.92-12.253h1.266v.03h-1.266v-.03Zm1.266 11.09h-1.266V64.136h1.266V74.53Zm-1.266-10.92h1.266v.386h-1.266v-.385Zm1.924-.746-.61.436H68.582v-.436H84.71Zm20.307 3.096h-4.168l-3.746-1.373-3.516 1.355h-4.31l-3.359.668v.387h.235v.42h-1.96v-3.977a.07.07 0 0 0-.007-.029l.685-.49c.02-.014.026-.035.026-.057h.067v-.3l-5.706-.839H68.582v-2.348l.55-.367h.008a.07.07 0 0 0 .07-.07v-.163a.07.07 0 0 0-.07-.07h-.769v-.314l.204-.231a.07.07 0 0 0 .011-.076.07.07 0 0 0-.064-.041h-1.12v-2.071h.186a.07.07 0 0 0 .07-.07v-.306c.008-.003.016-.003.023-.008l.408-.325a.078.078 0 0 0 .024-.044l.001-.005.002-.006v-.192a.07.07 0 0 0-.07-.07h-1.854v-.233h1.306a.23.23 0 0 0 0-.46h-1.306v-3.17a.423.423 0 0 0 .228-.374v-.013a.068.068 0 0 0 .031-.019l.214-.24a.07.07 0 0 0-.052-.116h-.517v-.248h.107a.2.2 0 0 0 0-.398h-.159l-.013-.05a.352.352 0 0 0 .14-.083v-.672a.62.62 0 0 1-.303.185l-.024-.082h-.07v.702h-.177v-.702h-.07l-.023.082a.62.62 0 0 1-.305-.185v.672a.35.35 0 0 0 .142.084l-.014.049h-.264a.2.2 0 0 0-.199.199c0 .045.018.085.044.119h-.282l.373-.802s0-.001 0 0a.064.064 0 0 0-.002-.047c-.002-.004-.002-.008-.004-.01l-.399-.54.123-.198.17-.265c-.001.001 0 0 0 0l.001-.003a.055.055 0 0 0 .005-.035l-.003-.009c-.001-.005-.001-.01-.004-.014l-.195-.295.113-.147a.224.224 0 0 0-.033-.446h-.505l-.096-5.892a1.025 1.025 0 0 0 .792-1.364c.002.034.004.065.004.1a.966.966 0 0 1-1.93 0c0-.035.001-.066.003-.1a.964.964 0 0 0-.065.355c0 .516.382.938.877 1.011l-.144 5.89h-.503a.227.227 0 0 0-.227.226c0 .114.086.204.196.22l.13.153-.264.282a.056.056 0 0 0-.013.034v.01c.002.006 0 .011.003.017.002.004.006.006.009.01.001.002 0 .005.002.006l.252.259.095.19-.452.542a.054.054 0 0 0-.012.034c0-.001 0 0 0 0l.002.009c.001.007.001.014.005.02l.45.799h-.26a.195.195 0 0 0 .044-.12.2.2 0 0 0-.2-.198h-.345l-.014-.05a.35.35 0 0 0 .142-.083v-.672a.62.62 0 0 1-.305.185l-.023-.082h-.07v.702h-.177v-.702h-.07l-.024.082a.619.619 0 0 1-.304-.185v.672a.35.35 0 0 0 .141.084l-.013.049h-.187a.2.2 0 0 0 0 .398h.107v.248h-.533a.07.07 0 0 0-.052.117l.196.219v.052c0 .19.127.35.3.403v3.14h-1.307a.23.23 0 0 0 0 .461h1.306v.233H59.96a.07.07 0 0 0-.07.061l-.024.192a.07.07 0 0 0 .07.08h.06l.356.288v.334c0 .04.032.07.07.07h.13v2.072h-1.14a.07.07 0 0 0-.054.115l.19.231v.316h-.601a.07.07 0 0 0-.07.07v.163c0 .04.03.07.07.07h.058l.407.361v2.354H48.742l-5.706.838v.3h.067c0 .023.006.044.025.058l.686.49a.068.068 0 0 0-.007.03v3.977h-1.96v-.421h.235v-.387l-3.36-.668h-4.309l-3.516-1.355-3.746 1.373h-4.168l-2.983.65v.387h.222v.33c0 .04.031.071.07.071h.265c-.002.006-.004.013-.004.02v7.041h-.261a.07.07 0 0 0-.07.07v1.361c0 .039.031.07.07.07h21.79a.07.07 0 0 0 .059-.032l.443-.68.001-.004a.068.068 0 0 0 .01-.034.068.068 0 0 0-.01-.035l-.001-.004-.443-.68c-.004-.005-.009-.008-.014-.012-.027-.275.066-.496.267-.626a.734.734 0 0 1 .807.023c.193.142.271.378.225.664a.068.068 0 0 0-.03.034l-.212.54a.072.072 0 0 0 0 .053l.29.68a.07.07 0 0 0 .065.043h7.171a.496.496 0 0 0-.14.337c0 .315.318.57.708.57.389 0 .706-.255.706-.57v-.01c1.296-.674 2.652-.84 4.023-.89v.167c-.68.142-1.457.402-1.827.755-.141.073-.232.19-.232.321 0 .22.26.4.578.4a.797.797 0 0 0 .179-.021h18.514l.006-.002a.8.8 0 0 0 .184.023c.32 0 .58-.18.58-.4 0-.13-.092-.248-.233-.321-.37-.353-1.147-.613-1.827-.755v-.167c1.371.05 2.727.216 4.023.89v.01c0 .315.317.57.706.57.39 0 .708-.255.708-.57a.496.496 0 0 0-.14-.337h7.235a.07.07 0 0 0 .065-.043l.288-.68a.068.068 0 0 0 .002-.052l-.212-.541a.068.068 0 0 0-.03-.034c-.046-.286.032-.522.225-.664a.733.733 0 0 1 .807-.023c.202.13.294.351.266.626-.004.004-.01.007-.013.012l-.443.68-.001.004a.067.067 0 0 0-.01.035c0 .013.004.024.01.034v.004l.444.68a.07.07 0 0 0 .06.032h21.789a.07.07 0 0 0 .07-.07v-1.36a.07.07 0 0 0-.07-.07h-.261v-7.042a.065.065 0 0 0-.004-.02h.265a.07.07 0 0 0 .07-.07v-.331H108v-.387l-2.983-.65Zm.312 6.396h.82v-1.22h-.82v1.22Zm0-1.756h.82v-1.22h-.82v1.22Zm0-1.756h.82v-1.22h-.82v1.22Zm-3.63 1.756h.821v-1.22h-.821v1.22Zm-8.837 0h.82v-1.22h-.82v1.22Zm7.628 0h.82v-1.22h-.82v1.22Zm0-1.756h.82v-1.22h-.82v1.22Zm1.209 5.268h.821v-1.22h-.821v1.22Zm0-1.756h.821v-1.22h-.821v1.22Zm1.21-1.756h.82v-1.22h-.82v1.22Zm-1.21-1.756h.821v-1.22h-.821v1.22Zm1.21 5.268h.82v-1.22h-.82v1.22Zm0-1.756h.82v-1.22h-.82v1.22Zm-6.98 1.756h.82v-1.22h-.82v1.22ZM21.852 70.6h.82v-1.22h-.82v1.22Zm1.21 3.512h.82v-1.22h-.82v1.22Zm0-1.756h.82v-1.22h-.82v1.22Zm-1.21-3.512h.82v-1.22h-.82v1.22Zm0 3.512h.82v-1.22h-.82v1.22Zm20.5-3.063h.819v-1.22h-.82v1.22Zm-20.5 4.819h.82v-1.22h-.82v1.22Zm20.5-1.458h.819v-1.22h-.82v1.22Zm0-1.68h.819v-1.22h-.82v1.22ZM23.06 70.6h.82v-1.22h-.82v1.22Zm2.42 3.512h.82v-1.22h-.82v1.22Zm0-1.756h.82v-1.22h-.82v1.22Zm0-1.756h.82v-1.22h-.82v1.22Zm59.349 2.054h.82v-1.22h-.82v1.22Zm-60.56-3.81h.82v-1.22h-.82v1.22Zm0 1.756h.82v-1.22h-.82v1.22Zm-1.21-1.756h.82v-1.22h-.82v1.22Zm1.21 5.268h.82v-1.22h-.82v1.22Zm0-1.756h.82v-1.22h-.82v1.22Zm68.592 1.756h.82v-1.22h-.82v1.22Zm-2.42-5.268h.82v-1.22h-.82v1.22Zm0 3.512h.82v-1.22h-.82v1.22Zm0-1.756h.82v-1.22h-.82v1.22Zm-14.597-1.733h.855v-1.174h-.855v1.174Zm17.017 3.489h.82v-1.22h-.82v1.22Zm-1.21 0h.82v-1.22h-.82v1.22Zm-1.21 1.756h.82v-1.22h-.82v1.22Zm-5.612-3.138h.82v-1.22h-.82v1.22Zm6.822-.374h.82v-1.22h-.82v1.22Zm0-1.756h.82v-1.22h-.82v1.22Zm-3.63 3.512h.82v-1.22h-.82v1.22Zm0-1.756h.82v-1.22h-.82v1.22Zm0 3.512h.82v-1.22h-.82v1.22Zm-3.192-4.82h.82v-1.219h-.82v1.22Zm4.402 4.82h.82v-1.22h-.82v1.22Zm0-3.512h.82v-1.22h-.82v1.22Zm-1.21-1.756h.82v-1.22h-.82v1.22Zm1.21 0h.82v-1.22h-.82v1.22Zm0 3.512h.82v-1.22h-.82v1.22Zm-31.119-3.489h.855v-1.174h-.855v1.174Zm3.894-4.006h.957v-1.203h-.957v1.203Zm0-1.933h.957v-1.203h-.957v1.203Zm0-1.742h.957v-1.203h-.957v1.203Zm1.45 7.35h.957v-1.203h-.957v1.203Zm-13.52 5.636h.855v-1.191h-.855v1.191Zm12.07-5.636h.957v-1.203h-.957v1.203Zm0-1.934h.957v-1.202h-.957v1.203Zm-12.07 5.82h.855V71.23h-.855v1.192Zm14.97-5.82h.957v-1.202h-.957v1.203Zm-1.45 0h.957v-1.202h-.957v1.203Zm1.45-1.741h.957v-1.203h-.957v1.203Zm0 3.675h.957v-1.203h-.957v1.203Zm-1.45-3.675h.957v-1.203h-.957v1.203Zm0-3.675h.957v-1.203h-.957v1.203Zm0 1.742h.957v-1.203h-.957v1.203Zm-3.402-1.742h.956v-1.203h-.956v1.203Zm-11.053 2.472a.427.427 0 0 0-.427.427v1.118h.854v-1.118a.427.427 0 0 0-.427-.427Zm11.053 4.878h.956v-1.203h-.956v1.203Zm0-3.675h.956v-1.203h-.956v1.203Zm-12.843 7.56h.855v-1.19h-.855v1.19Zm0-3.554h.855v-1.174h-.855v1.174Zm12.843-5.94h.956v-1.202h-.956v1.203Zm-12.843 7.744h.855v-1.244h-.855v1.244Zm12.843-4.069h.956v-1.202h-.956v1.203Zm-7.392 4.069h.855v-1.244h-.855v1.244Zm-4.088 0h.854v-1.244h-.854v1.244Zm0-3.636h.854v-1.175h-.854v1.175Zm16.332-4.107h.957v-1.203h-.957v1.203Zm-16.332 9.494h.854V71.23h-.854v1.192Zm-1.363-5.387h.855v-1.175h-.855v1.175Zm1.363 7.137h.854v-1.191h-.854v1.191Zm-.936-10.514a.427.427 0 0 0-.427.427v1.118h.855v-1.118a.427.427 0 0 0-.428-.427Zm6.386 8.764h.855V71.23h-.855v1.192Zm.428-8.764a.427.427 0 0 0-.428.427v1.118h.855v-1.118a.427.427 0 0 0-.427-.427Zm.935 7.013h.855v-1.244h-.855v1.244Zm0 3.501h.855v-1.191h-.855v1.191Zm0-1.75h.855V71.23h-.855v1.192Zm.428-8.764a.427.427 0 0 0-.428.427v1.118h.855v-1.118a.427.427 0 0 0-.428-.427Zm-.428 5.21h.855v-1.175h-.855v1.174Zm0-1.833h.855v-1.175h-.855v1.175Zm-2.725 1.832h.855v-1.174h-.855v1.174Zm0-1.832h.855v-1.175h-.855v1.175Zm0 5.387h.855V71.23h-.855v1.192Zm.427-8.764a.427.427 0 0 0-.427.427v1.118h.855v-1.118a.427.427 0 0 0-.428-.427Zm.935 7.013h.855v-1.244h-.855v1.244Zm0-1.804h.855v-1.174h-.855v1.174Zm-6.813 5.305h.855v-1.191h-.855v1.191Zm6.813-7.137h.855v-1.175h-.855v1.175Zm0 7.137h.855v-1.191h-.855v1.191Zm-3.66-10.514a.427.427 0 0 0-.428.427v1.118h.855v-1.118a.427.427 0 0 0-.427-.427Zm16.563-.73h.956v-1.203h-.956v1.203Zm-16.99 4.107h.854v-1.175h-.855v1.175Zm16.99-.433h.956v-1.202h-.956v1.203Zm0-1.741h.956v-1.203h-.956v1.203Zm-16.99 5.81h.854v-1.244h-.855v1.244Zm16.99-2.135h.956v-1.203h-.956v1.203Zm-16.99.331h.854v-1.174h-.855v1.174Zm1.362 0h.855v-1.174H51.3v1.174Zm0-1.832h.855v-1.175H51.3v1.175Zm1.363 7.137h.855v-1.191h-.855v1.191Zm-.935-10.514a.427.427 0 0 0-.428.427v1.118h.855v-1.118a.427.427 0 0 0-.428-.427Zm-.428 8.764h.855V71.23H51.3v1.192Zm13.607-11.236h.957v-1.203h-.957v1.203Zm2.02 0h.957v-1.203h-.956v1.203ZM51.3 70.672h.855v-1.244H51.3v1.244Zm0 3.501h.855v-1.191H51.3v1.191Zm-2.725-5.305h.854v-1.174h-.854v1.174Zm13.003-15.574a.722.722 0 0 1-.354.216l-.028-.095h-.081v.84h.32l-.021-.08a.408.408 0 0 0 .164-.096v-.785Zm-.98 16.5h6.746v.896h-6.747v-.896Zm-.07 1.037h6.886a.07.07 0 0 0 .07-.07v-1.038a.07.07 0 0 0-.07-.07h-6.887a.07.07 0 0 0-.07.07v1.038c0 .039.031.07.07.07Zm.38-16.576v-.84h-.081l-.028.095a.724.724 0 0 1-.355-.216v.785a.41.41 0 0 0 .165.097l-.022.08h.32Zm12.64 9.404a.427.427 0 0 0-.428.427v1.118h.855v-1.118a.427.427 0 0 0-.428-.427Zm-.428 3.377h.855v-1.175h-.855v1.175Zm1.362 5.387h.855V71.23h-.855v1.192Zm-2.725 0h.855V71.23h-.855v1.192Zm-.935-8.764a.427.427 0 0 0-.428.427v1.118h.855v-1.118a.427.427 0 0 0-.427-.427Zm3.66 10.514h.855v-1.191h-.855v1.191Zm-2.725 0h.855v-1.191h-.855v1.191Zm-2.725-5.305h.855v-1.174h-.855v1.174Zm4.088 3.555h.855V71.23h-.855v1.192Zm0 1.75h.855v-1.191h-.855v1.191Zm-4.088-7.137h.855v-1.175h-.855v1.175Zm.427-3.377a.427.427 0 0 0-.427.427v1.118h.855v-1.118a.427.427 0 0 0-.428-.427Zm3.66 5.21h.856v-1.175h-.855v1.174Zm-5.644-15.575a.723.723 0 0 1-.355.216l-.027-.095h-.082v.84h.322l-.022-.08a.41.41 0 0 0 .164-.096v-.785Zm-.67.961v-.84h-.082l-.027.095a.722.722 0 0 1-.355-.216v.785a.41.41 0 0 0 .164.097l-.022.08h.322Zm-2.59-14.428-.173-.53-.172.53h-.558l.451.327-.172.53.45-.327.452.327-.172-.53.45-.328h-.557Zm8.905 30.845h.855v-1.244h-.855v1.244Zm-2.726-3.636h.855v-1.175h-.855v1.175Zm1.363 0h.855v-1.175h-.855v1.175Zm-25.908 7.137h.855v-1.191h-.855v1.191Zm11.756-10.087a.427.427 0 1 0-.854 0v1.118h.854v-1.118Zm-.854 4.782h.854v-1.174h-.854v1.174Zm-10.902 3.555h.855V71.23h-.855v1.192Zm10.902-5.387h.854v-1.175h-.854v1.175Zm-10.902 3.636h.855v-1.244h-.855v1.244Zm29.996 1.75h.855v-1.19h-.855v1.19Zm-1.363-1.75h.855v-1.244h-.855v1.244Zm1.363 3.501h.855v-1.191h-.855v1.191Zm-29.996-5.305h.855v-1.174h-.855v1.174Zm0-1.832h.855v-1.175h-.855v1.175Zm28.633 0h.855v-1.175h-.855v1.175Zm.428-3.377a.427.427 0 0 0-.428.427v1.118h.855v-1.118a.427.427 0 0 0-.427-.427Zm-2.725 0a.427.427 0 0 0-.428.427v1.118h.855v-1.118a.427.427 0 0 0-.427-.427Zm-.428 7.013h.855v-1.244h-.855v1.244Zm2.725-1.804h.855v-1.174h-.855v1.174Zm-16.369-1.832h.855v-1.175h-.855v1.175Zm12.281 1.832h.855v-1.174h-.855v1.174Zm-11.426-4.782a.427.427 0 1 0-.855 0v1.118h.855v-1.118Zm12.789 4.782h.855v-1.174h-.855v1.174Zm-25.48-5.209a.427.427 0 0 0-.428.427v1.118h.855v-1.118a.427.427 0 0 0-.427-.427Zm29.568 7.013h.855v-1.244h-.855v1.244ZM57.665 82.11v-3.224c-.19.09-.387.12-.455.23-.194.315-.465.418-.81.415-.102 0-.205.019-.33.03l.037.347 1.014-.045v2.247h.544Zm8.841-1.705c-.332.214-.724.333-1.087.5-.512.234-.883.579-.929 1.2h3.002l-.038-.352h-2.303a11.79 11.79 0 0 1-.064-.076c.187-.143.359-.32.567-.423.43-.213.89-.366 1.317-.585.353-.181.597-.47.497-.913-.089-.391-.35-.64-.737-.705-.353-.06-.72-.105-1.074-.073-.657.06-.993.433-1.067 1.091h.578c.116-.627.405-.793 1.13-.708.303.035.566.183.57.46.003.198-.182.468-.362.584Zm3.217.94a1.945 1.945 0 0 1 .004-1.52c.154-.376.45-.534.867-.483.428.053.687.302.757.752.027.172.022.349.03.498-.003.752-.173 1.062-.651 1.216-.447.143-.829-.026-1.007-.462Zm2.275-.804c-.009-.849-.523-1.661-1.64-1.588-.858.057-1.38.628-1.373 1.63.008 1.059.539 1.624 1.517 1.613.943-.011 1.506-.633 1.496-1.655Zm-10.45.173c-.545-.01-.802-.232-.794-.686.007-.443.328-.708.849-.701.503.006.847.28.847.674 0 .423-.38.723-.903.713Zm-.699.854c-.183-.294-.388-.236-.658-.188.02.075.028.125.046.171.303.796 1.764.807 2.328.297.59-.533.73-1.743.27-2.378-.398-.548-1.49-.702-2.178-.305-.367.212-.492.55-.478.951.014.39.216.659.574.797.605.235 1.199.267 1.746-.174l.085.082c-.146.262-.256.553-.444.78-.341.406-1.026.392-1.291-.033ZM28.014 64.16c.15.139.53.009.804.04.69.08 1.3-.055 1.786-.586.036-.04.09-.064.12-.107.143-.2.302-.162.49-.062.435.234.875.456 1.317.677.105.053.222.083.378.14-.23-.78-.266-1.477.042-2.225h-2.99c-.138-3.909.445-7.683 1.648-11.454l2.974 1.088c.044-.096.099-.194.134-.3.275-.805.476-1.644.834-2.41.57-1.217 1.249-2.384 1.873-3.576.71-1.357 1.563-2.605 2.682-3.663-.399-.324-.825-.666-1.245-1.014-.428-.355-.85-.716-1.273-1.072 2.525-3.042 5.391-5.55 8.74-7.593.156.317.3.623.456.922.285.545.569 1.09.87 1.624.123.22.285.281.52.084.202-.17.448-.295.69-.404.643-.287 1.296-.55 1.942-.83 1.036-.447 2.06-.92 3.107-1.342a23.173 23.173 0 0 1 2.302-.796c.551-.158 1.135-.203 1.7-.317.16-.032.398-.009.358-.31a91 91 0 0 1-.329-2.705c-.01-.11.121-.33.208-.34 1.183-.158 2.368-.353 3.557-.408a49.87 49.87 0 0 1 4.44-.001c1.188.05 2.37.236 3.661.372l-.777 3.234c3.728.44 7.087 1.9 10.403 3.651.217-.536.388-1.024.61-1.489.227-.475.504-.926.76-1.388 3.346 1.95 6.264 4.313 8.794 7.217-.492.46-.963.914-1.448 1.351-.327.294-.652.602-1.022.834-.293.183-.215.308-.044.487.081.085.17.164.242.257.486.636.992 1.26 1.448 1.917.847 1.22 1.662 2.452 2.264 3.828.473 1.079 1.187 2.05 1.389 3.253.024.143.356.374.481.338.817-.234 1.613-.537 2.422-.8.248-.08.515-.106.763-.156 1.175 3.04 2.21 9.683 1.804 11.676-.914.06-1.849.123-2.783.182-.194.012-.36.004-.384.288-.047.585-.141 1.167-.208 1.75-.01.08.013.175.055.242.014.022.138-.006.201-.034.545-.249 1.099-.482 1.627-.763.296-.157.53-.116.785.053.527.35 1.093.556 1.742.48.155-.02.325.066.475.038.12-.023.294-.13.316-.23.065-.286.083-.586.087-.881.026-2.073.04-4.143-.217-6.21a37.156 37.156 0 0 0-1.722-7.496c-.244-.713-.526-1.413-.811-2.171-1.011.455-1.971.869-2.91 1.323-.283.136-.422.08-.538-.167-.333-.709-.63-1.436-.999-2.125a46.357 46.357 0 0 0-1.466-2.51c-.417-.672-.875-1.32-1.285-1.934l2.963-2.142c-1.055-1.194-2.003-2.33-3.017-3.405-2.745-2.91-5.928-5.245-9.477-7.086-.224-.116-.358-.12-.485.11-.362.655-.771 1.288-1.082 1.967-.17.37-.39.422-.69.31-.474-.175-.93-.397-1.396-.593-.699-.292-1.388-.618-2.105-.858-.897-.3-1.82-.521-2.726-.799-.1-.03-.237-.223-.219-.314.08-.417.2-.826.326-1.233.158-.512.335-1.019.507-1.537-5.897-1.43-11.703-1.41-17.53.079.202.815.399 1.599.59 2.385.162.66.095.75-.547.93-.897.252-1.806.476-2.676.804-.99.374-1.954.828-2.91 1.288-.694.334-.743.343-1.08-.355-.04-.083-.054-.177-.086-.263-.247-.655-.496-1.31-.754-1.989-5.37 2.758-9.712 6.587-13.204 11.448l2.425 1.294c.184.098.39.175.215.446-.3.46-.613.911-.89 1.384-.587 1.004-1.176 2.008-1.723 3.033-.358.67-.637 1.38-.97 2.063-.04.082-.22.18-.287.152-.714-.3-1.42-.613-2.121-.942-.43-.202-.55-.18-.718.27-.723 1.929-1.346 3.891-1.691 5.923-.257 1.506-.49 3.025-.584 4.548-.1 1.595-.025 3.202-.016 4.803.001.277-.045.66.108.801ZM87.5 87.04c1.111 3.05 2.296 6.073 3.453 9.106.009.023-.002.051-.006.11H69.646l.91 2.568H57.645l1.411-2.594h-21.85c.49-1.393.94-2.672 1.394-3.95.673-1.899 1.353-3.795 2.019-5.696.109-.312.274-.538.584-.665.134-.055.269-.133.375-.23.508-.465 1.105-.6 1.8-.498l-3.422 9.218h21.642l-1.38 2.644h8.045l-1.36-2.688h21.253l-3.37-9.162c.5-.097.919.068 1.356.257.724.312 1.088.839 1.358 1.58Zm1.695 1.017c1.238 3.217 2.578 6.395 3.879 9.588.013.034.006.075.006.08H71.527l1.467 3.027H54.738l1.615-3.068H34.769c.2-.524.381-1 .565-1.475 1.135-2.944 2.268-5.888 3.416-8.826a1.09 1.09 0 0 1 .421-.486c.395-.247.82-.444 1.27-.68l-3.61 10.24h21.785l-1.456 2.685h13.802l-.921-2.617h21.343L87.447 86.17c.763.516 1.402.99 1.748 1.89ZM44.306 85.1c5.889.012 11.777.01 17.666.003.262 0 .45.065.63.262.325.359.687.684 1.018 1.038.2.214.363.225.574.015.38-.381.767-.757 1.174-1.11a.819.819 0 0 1 .49-.192c6.063-.01 12.127-.006 18.19-.013.305 0 .46.106.561.387 1.035 2.846 2.08 5.688 3.155 8.625H66.476l1.344 2.694h-7.16l1.388-2.677H40.362c.093-.268.183-.551.287-.829.954-2.551 1.934-5.093 2.846-7.66.17-.478.38-.544.811-.543Zm44.62.554c.333.317.67.63 1.006.947 2.726-3.072 5.21-6.239 6.962-9.978-.718 0-1.412-.008-2.106.01-.082.002-.187.13-.236.224-.923 1.748-1.964 3.42-3.177 4.98-.465.599-.975 1.16-1.474 1.75l-1.915-1.62c-.799.698-1.626 1.347-2.363 2.085-.609.61-1.274.844-2.12.819-1.414-.042-2.83-.006-4.245-.004-.1 0-.2-.013-.401-.027a27.205 27.205 0 0 0 4.423-3.674c1.328-1.353 2.475-2.844 3.54-4.466-.672 0-1.289-.01-1.904.008-.106.004-.238.1-.306.192-1.07 1.439-2.234 2.79-3.568 3.997a25.486 25.486 0 0 1-5.504 3.828 1.22 1.22 0 0 1-.534.128c-3.1.007-6.2.002-9.299.014a.807.807 0 0 0-.483.201c-.441.391-.859.81-1.29 1.221-.423-.414-.824-.83-1.254-1.212a.857.857 0 0 0-.518-.21c-3.288-.012-6.576-.006-9.865-.014a1.3 1.3 0 0 1-.568-.142c-3.629-1.862-6.614-4.475-9.016-7.764-.068-.093-.162-.234-.246-.236-.742-.019-1.486-.011-2.274-.011 2.113 3.264 4.706 5.956 7.958 8.144-.215.011-.329.021-.442.021-1.348 0-2.696-.018-4.043.003a1.756 1.756 0 0 1-1.276-.486c-.893-.812-1.794-1.615-2.7-2.429l-1.86 1.58c-.129-.088-.254-.163-.367-.255-.082-.068-.15-.154-.218-.237a35.021 35.021 0 0 1-4.128-6.179c-.05-.095-.154-.226-.236-.228-.694-.019-1.39-.01-2.102-.01 1.06 2.523 5.46 8.795 6.977 9.95.114-.102.231-.21.35-.316.396-.358.783-.726 1.196-1.064.094-.076.323-.115.406-.055.292.209.548.469.838.728-.572.293-1.104.594-1.66.843-.396.177-.83.267-1.234.43-.16.065-.355.194-.412.341-1.097 2.827-2.176 5.661-3.26 8.493-.386 1.008-.777 2.013-1.181 3.06h21.288c-.061.122-.099.204-.141.283l-1.513 2.776H75.4l-1.694-3h21.338c-.012-.04-.026-.115-.054-.185-.627-1.578-1.251-3.157-1.884-4.733-.891-2.22-1.786-4.438-2.691-6.653-.051-.124-.203-.294-.308-.295-1.217-.008-1.87-.97-2.774-1.538.82-.777.82-.776 1.594-.035Z" fill="#2B5F76"/></g><defs><filter id="a" x="-13" y="0" width="154" height="157" filterUnits="userSpaceOnUse" color-interpolation-filters="sRGB"><feFlood flood-opacity="0" result="BackgroundImageFix"/><feColorMatrix in="SourceAlpha" values="0 0 0 0 0 0 0 0 0 0 0 0 0 0 0 0 0 0 127 0" result="hardAlpha"/><feOffset dy="16"/><feGaussianBlur stdDeviation="6.5"/><feColorMatrix values="0 0 0 0 0 0 0 0 0 0 0 0 0 0 0 0 0 0 0.03 0"/><feBlend in2="BackgroundImageFix" result="effect1_dropShadow_49_5360"/><feBlend in="SourceGraphic" in2="effect1_dropShadow_49_5360" result="shape"/></filter></defs></svg>