<?xml version="1.0" encoding="UTF-8"?>
<svg xmlns="http://www.w3.org/2000/svg" version="1.1" viewBox="0 0 128 42.9">
  <defs>
    <style>
      .cls-1 {
        fill: #2b5f76;
        fill-rule: evenodd;
      }
    </style>
  </defs>
  <!-- Generator: Adobe Illustrator 28.7.1, SVG Export Plug-In . SVG Version: 1.2.0 Build 142)  -->
  <g>
    <g id="_图层_1" data-name="图层_1">
      <path class="cls-1" d="M41.2,29.2v-2.7h.4v1.2h1.1v-1.2h.4v2.7h-.4v-1.2h-1.1v1.2h-.4ZM44.2,28.3h1l-.5-1.3s-.5,1.3-.5,1.3ZM43.4,29.2l1.1-2.7h.4l1.1,2.7h-.4l-.3-.7h-1.2l-.3.7h-.4ZM46.7,27.8h.2c.2,0,.4,0,.5-.1.1,0,.2-.2.2-.4,0-.2,0-.3-.1-.3,0,0-.3,0-.5,0h-.3s0,.9,0,.9ZM46.3,29.2v-2.7h.7c.3,0,.5,0,.6,0,.3.1.4.3.4.6s0,.3-.1.5c0,.1-.2.2-.5.3l.9,1.2h-.5l-.8-1.1h-.4v1.1s-.4,0-.4,0ZM49.2,28.9h.4c.3,0,.5,0,.6,0,.1,0,.2-.2.2-.3s0-.3-.2-.4c-.2,0-.4-.2-.7-.2h-.2v.9h0ZM49.2,27.7h.1c.6,0,.8-.2.8-.5s0-.3-.2-.3c-.1,0-.3,0-.6,0h-.2v.8ZM48.7,29.2v-2.7h.9c.6,0,.9.2.9.6,0,.2,0,.3-.2.4-.1.1-.3.2-.5.2.5.1.7.3.7.7s0,.4-.2.5c0,0-.2.1-.3.2-.1,0-.3,0-.6,0,0,0-.8,0-.8,0ZM51.2,29.2v-.3h.7v-2.1h-.7v-.3h1.8v.3h-.7v2.1h.7v.3h-1.8ZM53.6,29.2v-2.7h.4l1.2,1.9h0v-1.9h.3v2.7h-.4l-1.2-2h0v2h-.3ZM58.2,29.2v-.3h.7v-2.1h-.7v-.3h1.8v.3h-.7v2.1h.7v.3h-1.8ZM60.6,29.2v-2.7h.4l1.2,1.9h0v-1.9h.3v2.7h-.4l-1.2-2h0v2h-.3ZM64.9,26.6v.4c-.3-.1-.5-.2-.8-.2-.4,0-.6.1-.6.4s0,.2.1.2c0,0,.2.1.4.2h.3c0,0,.2.2.2.2.4.1.6.4.6.7,0,.2-.1.5-.3.6-.2.1-.5.2-.8.2s-.5,0-.9-.1v-.4c.4.2.7.2.9.2s.4,0,.5-.1c.1,0,.2-.2.2-.3,0,0,0-.2-.1-.2,0,0-.2-.1-.4-.2h-.3c-.3-.2-.5-.3-.6-.4-.1-.1-.2-.3-.2-.4,0-.2,0-.4.2-.6.2-.1.4-.2.7-.2s.5,0,.8.1h0ZM66.3,29.2v-2.4h-1v-.3h2.5v.3h-1v2.4s-.4,0-.4,0ZM68.1,29.2v-.3h.7v-2.1h-.7v-.3h1.8v.3h-.7v2.1h.7v.3h-1.8ZM71.3,29.2v-2.4h-1v-.3h2.5v.3h-1v2.4s-.4,0-.4,0ZM73,26.6h.4v1.6c0,.3,0,.5.1.6,0,.1.2.2.4.2s.4,0,.5-.2c0-.1.1-.3.1-.6v-1.6h.4v1.6c0,.3,0,.6-.1.7-.2.3-.4.5-.8.5s-.6,0-.7-.3c-.2-.2-.2-.5-.2-.8v-1.6h0ZM76.3,29.2v-2.4h-1v-.3h2.5v.3h-1v2.4h-.4,0ZM78.1,29.2v-2.7h1.8v.3h-1.4v.8h1.2v.3h-1.2v.9h1.5v.3s-1.9,0-1.9,0ZM82.7,27.9c0,.3,0,.6.2.8.1.2.3.3.5.3.2,0,.4,0,.5-.3.1-.2.2-.5.2-.8s0-.6-.2-.8c-.1-.2-.3-.3-.5-.3-.2,0-.4.1-.5.3-.1.2-.2.5-.2.8ZM82.3,27.9c0-.4.1-.8.3-1,.2-.3.5-.4.8-.4s.6.1.8.4c.2.3.3.6.3,1s-.1.8-.3,1c-.2.3-.5.4-.8.4s-.6-.1-.8-.4c-.2-.3-.3-.6-.3-1ZM85.1,29.2v-2.7h1.9v.3h-1.5v.9h1.3v.3h-1.3v1.1h-.4ZM90.2,29.2v-2.4h-1v-.3h2.5v.3h-1v2.4h-.4ZM92.1,29.2v-2.7h1.8v.3h-1.4v.8h1.2v.3h-1.2v.9h1.5v.3s-1.9,0-1.9,0ZM96.5,29.2c-.2,0-.5.1-.8.1-.4,0-.8-.1-1-.4-.3-.3-.4-.6-.4-1s.1-.8.4-1c.3-.3.6-.4,1-.4s.5,0,.8.1v.4c-.2-.1-.5-.2-.8-.2-.3,0-.5.1-.7.3-.2.2-.3.5-.3.8s.1.6.3.8c.2.2.5.3.8.3s.4,0,.7-.2v.3h0ZM96.9,29.2v-2.7h.4v1.2h1.1v-1.2h.4v2.7h-.4v-1.2h-1.1v1.2h-.4ZM99.4,29.2v-2.7h.4l1.2,1.9h0v-1.9h.3v2.7h-.4l-1.2-2h0v2s-.3,0-.3,0ZM102.1,27.9c0,.3,0,.6.2.8.1.2.3.3.5.3.2,0,.4-.1.5-.3.1-.2.2-.5.2-.8s0-.6-.2-.8c-.1-.2-.3-.3-.5-.3-.2,0-.4.1-.5.3-.1.2-.2.5-.2.8ZM101.7,27.9c0-.4.1-.8.3-1,.2-.3.5-.4.8-.4s.6.1.8.4.3.6.3,1-.1.8-.3,1c-.2.3-.5.4-.8.4s-.6-.1-.8-.4c-.2-.3-.3-.6-.3-1ZM104.5,29.2v-2.7h.4v2.4h1.4v.3h-1.8ZM107.1,27.9c0,.3,0,.6.2.8.1.2.3.3.5.3.2,0,.4-.1.5-.3.1-.2.2-.5.2-.8s0-.6-.2-.8c-.1-.2-.3-.3-.5-.3-.2,0-.4.1-.5.3-.1.2-.2.5-.2.8ZM106.6,27.9c0-.4.1-.8.3-1,.2-.3.5-.4.8-.4s.6.1.8.4.3.6.3,1-.1.8-.3,1c-.2.3-.5.4-.8.4s-.6-.1-.8-.4c-.2-.3-.3-.6-.3-1ZM111.3,26.6v.4c-.2-.1-.5-.2-.8-.2-.3,0-.5.1-.7.3-.2.2-.3.5-.3.8s.1.6.3.8c.2.2.5.3.8.3s.2,0,.3,0v-.7h-.5v-.3h.9v1.2c-.3,0-.5.1-.8.1-.4,0-.8-.1-1-.4-.3-.3-.4-.6-.4-1s.1-.8.4-1c.3-.3.6-.4,1-.4s.5,0,.8.1h0ZM112.5,29.2v-1.1l-1-1.6h.5l.8,1.2.8-1.2h.4l-1.1,1.6v1.1s-.4,0-.4,0ZM58.1,21c0,0,.2.1.2.2,0,0-.1.2-.2.2,0,0-.2-.1-.2-.2,0-.1,0-.2.2-.2h0ZM58.2,19.4s0,0,.2.1c0,0-.1.1-.2.1,0,0,0,0,0,0,0,0,0-.1.1-.2ZM58.5,17.2c0,0,.1-.2.1-.3,0,0,0-.2.1-.3,0,0,.1,0,.2,0,.2,0,.4,0,.5,0,0,0,.1,0,.2,0,.1,0,.2.2.1.3-.1.2-.3.4-.5.5-.2.1-.3.2-.5.3,0,0-.1,0-.2,0,0,0,0-.1-.2-.2,0-.1.1-.2.2-.4ZM59.8,18.1c0,.1,0,.2,0,.3,0,0,0,.1,0,.2,0,0-.1,0-.2,0,0-.1-.2-.2-.3-.3,0,0,0-.1,0-.2.1,0,.2-.2.3-.3.1,0,.3,0,.3.3ZM59.6,19.6s0,0-.1,0c0,0-.2-.2-.2-.3,0,0,.1-.3.2-.3,0,0,.2,0,.2.1,0,0,0,.1,0,.2h0c0,.1,0,.2-.1.3ZM59.6,21.2s0,0-.1,0c0,0,0-.1,0-.2,0-.2,0-.4,0-.5,0,0,0,0,0,0,0,0,0,0,0-.1,0,0,0,0,.1,0,0,0,0,.2.1.2h0c0,.2,0,.3,0,.5,0,0,0,.1,0,.2ZM58.4,18.7c.1-.1.3-.2.4,0,0,0,0,0,0,.1,0,.1-.2.2-.3.2-.1,0-.2,0-.2-.1,0,0,0-.1,0-.2ZM58.9,20.4c0,.1-.2.2-.2.2-.2,0-.4,0-.6-.1,0,0,0,0,0,0,0,0,0,0,0-.1,0,0,0,0,.1,0,.2,0,.3,0,.4-.1,0,0,.1,0,.2,0,0,0,.1.2,0,.3ZM57.3,19.9s-.1,0-.1,0c0,0,0-.1,0-.2,0,0,0-.1.1-.1,0,0,.1,0,.2,0,0,0,0,0,0,.2,0,0,0,.1,0,.1ZM57.1,20.6c0,0-.2-.2-.2-.2,0,0,.1-.2.2-.2,0,0,.2,0,.2.2s-.1.2-.2.2h0ZM56.7,21.2c0,0-.1.2-.3.2,0,0-.2,0-.3,0,0,0,0,0,0,0,0,0,0,0,0-.1.1,0,.2-.1.4-.2,0,0,.1,0,.2,0,0,0,0,.1,0,.2h0ZM56,22.2c0,0-.1,0-.2-.2,0,0,.1-.2.2-.2,0,0,.1.1.1.2,0,0-.1.2-.2.2ZM54.1,17.2c0,0,.2.1.3.2,0,0,.1,0,.2,0,.3.1.5,0,.7,0,0,0,.2-.2.3-.2,0,0,.1,0,.1,0,0,0,0,0,0,.1,0,0,0,0,0,.1-.2.3-.5.5-.7.7-.1.1-.3.2-.4.3-.1.1-.1.2,0,.3.2.2.6.2.8,0,.2-.1.4-.3.7-.4.2-.1.5-.3.7-.4.3-.2.4-.8,0-1.1-.2-.2-.2-.3,0-.5h0c0-.1.2-.1.3,0,.2.2.3.4.2.6,0,.3,0,.7,0,1,0,0,0,.1,0,.2-.2.2-.3.4-.6.5,0,0-.1,0-.2,0-.2,0-.4.2-.6.2,0,0-.1,0-.2,0-.1,0-.2.2,0,.3.2.3.4.5.8.5,0,0,.1,0,.1,0,0,0,0,0,0,.1-.1.1-.2.2-.4.1,0,0-.2,0-.2,0-.1,0-.1.1,0,.2,0,0,0,0,.1.1,0,0,0,.2,0,.2,0,0-.1,0-.2,0,0-.1-.2-.2-.3-.3,0,0-.2-.1-.2,0,0,0-.1.1-.1.2,0,.2,0,.5-.2.7,0,0,0,.2,0,.3,0,.1,0,.3-.1.4,0,.1-.1.3,0,.4,0,0,0,0,0,.1,0,.4.2.8.7.9,0,0,.1,0,.2,0,.2,0,.2-.3.3-.5,0-.2.2-.3.4-.4.1,0,.2,0,.3-.1,0,0,.1,0,.2,0,.2.1.4.3.4.6,0,0,0,.1,0,.2,0,.2.3.4.4.3.2,0,.3-.2.4-.4.2-.2.2-.3,0-.6,0,0,0-.2-.1-.3,0,0,0-.2,0-.2,0,0,.1-.1.3-.1,0,0,.2,0,.3,0,.2-.1.2-.1.4,0,.2.2.3.2.6.1,0,0,.1,0,.2,0,0,0,0,.1,0,.2,0,.2-.2.3-.4.2,0,0-.1,0-.2,0-.1,0-.2-.1-.4-.2,0,0-.2,0-.2,0s0,.1,0,.2c0,0,0,0,0,.1.1.2.3.4.4.6.2.4.4.7.6,1.1.2.2.4.3.6.2.4,0,.7-.5.5-.8,0,0,0-.1,0-.2,0-.6,0-1.3-.1-1.9,0,0,0,0,0,0,0-.2,0-.5,0-.7,0-.2,0-.4,0-.6,0-.2,0-.4,0-.6,0,0,0,0,0-.1,0-.2,0-.4.1-.5,0-.3.1-.6.3-.9.2-.2.1-.6,0-.9-.1-.1-.3-.3-.4-.4-.2-.2-.2-.2,0-.5,0,0,0-.2,0-.3,0-.3-.4-.6-.7-.6-.4,0-.8,0-1.1,0-.2,0-.3.2-.2.4,0,0,0,0,0,.1,0,0,0,.2,0,.2,0,0-.1,0-.2,0,0,0-.2,0-.2-.2-.2-.2-.2-.4,0-.5.2-.1.4-.3.5-.4.3-.2.7-.4,1-.6.1,0,.2,0,.3,0,.1.2.2.2.4,0,.4-.2.7-.4,1.1-.6.3,0,.4-.3.4-.6,0-.1,0-.2-.1-.3,0-.1-.2-.2-.3-.2-.4,0-.8,0-1.2.2,0,0-.2.1-.3.2-.2,0-.3.2-.5.3-.2.1-.4.3-.6.4-.3.2-.6.4-.9.5,0,0-.1,0-.2,0-.2.1-.5.3-.7.4,0,0,0,0-.1,0-.1,0-.3.1-.4.2,0,0-.2.1-.3.2-.2,0-.4.1-.6.3-.3.2-.7.2-1,.3-.2,0-.4,0-.6,0-.2,0-.3,0-.4.2,0,.1,0,.2,0,.3.1.2.2.4.3.5h0ZM68.1,20.1c0,0,0-.2.1-.2.1-.2.3-.2.5-.1.2,0,.3,0,.4,0,0,0,.1,0,.2-.1.2,0,.3,0,.3.2,0,.3,0,.5,0,.8,0,.1,0,.3,0,.5,0,.1,0,.2,0,.3,0,0,0,.2,0,.2,0,0,0,0,0,.1,0,.2,0,.3.2.5,0,0,.1.1.2.2.1.2,0,.3-.2.3,0,0-.2,0-.2,0-.1,0-.2-.2-.2-.3,0,0,0-.2,0-.2,0,0,0,0,0-.1-.1-.1-.1-.3,0-.4,0-.1,0-.2,0-.3-.2-.1-.2-.3,0-.5,0,0,0-.2.1-.3,0,0,0-.2,0-.3-.1-.2-.2-.2-.4,0-.1,0-.2.2-.4.2,0,0-.2,0-.3,0,0,0-.1-.2,0-.3h0ZM68.5,21.8c0,0-.1,0-.2,0,0,0-.1-.1,0-.3,0-.1,0-.3,0-.4,0,0,0-.1,0-.1,0,0,.1-.1.2-.1,0,0,.1.1.2.2h0s0,0,0,0c-.1.2,0,.3,0,.5,0,0,0,.2,0,.3h0ZM68.4,22.7c0,0-.2,0-.1-.2,0,0,0-.2,0-.3,0,0,0-.1.1-.2,0,0,.1,0,.2,0,.2.2,0,.5-.1.5ZM64.9,24c.1.3.3.3.5,0,.1-.2.3-.3.3-.6v-.5h0c0-.1,0-.3,0-.4,0-.3,0-.6.1-1,0,0,0-.1,0-.2,0-.1.1-.1.3,0,.3.2.5.1.7,0,.3-.3.5-.5.8-.8,0,0,.1,0,.2,0,0,0,.1.1.1.2,0,.3-.1.6-.2.8-.2.3-.2.5-.2.8,0,.3.1.4.4.5,0,0,.1,0,.2.1,0,0,0,.1,0,.2,0,0-.2.1-.3.2-.2,0-.2.2-.2.3,0,.1.2.3.3.4,0,0,.2.1.2,0,.2,0,.4-.2.6-.4.1-.2.2-.3.3-.5.2-.3.3-.3.6,0,.3.3.5.6.8.9.2.2.3.4.6.5.1,0,.2,0,.3,0,.1-.1.3-.3.4-.4,0-.1.1-.3,0-.4,0-.2-.2-.3-.2-.5-.1-.3-.3-.4-.6-.5-.2,0-.3-.2-.3-.4s0-.3,0-.5c0-.2,0-.3,0-.5,0-.2,0-.5,0-.7,0-.2,0-.4,0-.6,0-.2,0-.4.2-.7,0-.2,0-.5,0-.7-.1-.2-.4-.2-.5,0-.2.2-.4.4-.7.5,0,0,0,0-.1,0,0,0-.1,0-.2,0,0,0,0-.1,0-.2,0,0,.1-.2.2-.2.2-.2.4-.3.6-.5,0,0,.1-.1.2-.2.2-.2.5-.3.7-.5.2-.1.3-.4.2-.7,0,0,0-.1,0-.2,0-.1-.1-.3-.2-.4,0,0-.1,0-.2,0,0,0,0,0,0,0-.1.2-.2.4-.3.6-.1.3-.4.5-.6.7,0,0-.1.1-.2,0,0,0-.1-.2,0-.3,0-.1.1-.2.2-.3.2-.2.4-.4.5-.7,0-.1,0-.2-.1-.3,0,0-.1,0-.2,0,0,0-.2.2-.2.2-.1,0-.2.2-.3.2-.1,0-.3,0-.4.1,0,0-.2,0-.3,0,0,0-.2,0-.3,0-.2,0-.4,0-.4-.3,0-.1,0-.2-.2-.3-.1,0-.2-.2-.3-.3,0,0,0-.1-.2,0,0,0-.1.1,0,.2,0,.3,0,.5-.2.8,0,.1-.1.3-.2.5,0,.1,0,.2,0,.3,0,.1.2.2.3.3.1.1.1.2,0,.3,0,0,0,.1,0,.2,0,.1,0,.2.2.3.2.2.5.3.7,0,.2-.2.4-.3.4-.6,0-.1,0-.2,0-.3,0,0-.2,0-.3,0-.1,0-.2.1-.3.2-.1,0-.3,0-.3,0,0-.1,0-.2,0-.2.2-.1.3-.2.4-.4,0,0,.1,0,.2,0,.1,0,.3.1.4.2.2,0,.3.2.2.3,0,0,0,0,0,.1,0,.3-.2.6-.4.8-.1.1-.2.2-.4.4,0,0,0,.1-.2.2-.3.3-.6.6-.9.8-.1,0-.2.2-.3.3,0,0-.2,0-.2,0,0,0,0-.1,0-.2,0-.2.2-.4.2-.6,0,0,0,0,0-.1,0-.2.2-.4.3-.6,0,0,0,0,0-.1,0,0,0-.1-.1-.1,0,0,0,0-.1,0,0,0,0,.1-.1.2-.1.3-.2.5-.3.8-.1.4-.2.8-.4,1.1,0,.2-.1.4-.2.6,0,0-.1,0-.2,0,0,0-.1-.1,0-.2,0-.3.2-.6.3-.9,0,0,0-.2,0-.3,0-.1.1-.3.2-.4.1-.2,0-.5,0-.7,0-.2-.2-.3-.3-.5-.1-.2-.1-.3,0-.5.2-.4.4-.7.7-1,0,0,.1-.1.2-.2.2-.2.2-.3.1-.5,0,0,0,0,0-.1,0-.2-.2-.4-.4-.5-.2-.2-.4-.3-.6-.5-.2-.1-.3-.1-.4,0-.1.3,0,.6,0,1,0,.2.1.4.2.5,0,.2,0,.4,0,.6,0,.2-.1.4-.2.6,0,.2,0,.5-.2.7,0,0,0,.1,0,.2,0,.2,0,.4,0,.6,0,0,0,.1,0,.2.1.2.1.5,0,.7,0,.3-.1.5-.2.8,0,.3-.2.6-.3.9-.2.3-.2.6,0,.9.2.3.4.7.6,1ZM67.7,16.1c.1.1.3.2.4.3.2,0,.3,0,.5,0,.2,0,.3-.2.5-.3.3-.2.6-.4.9-.8.1-.1.3-.2.4-.3.1,0,.2,0,.3,0,0,.1,0,.2,0,.2-.1.1-.3.3-.4.4,0,0,0,.1,0,.2,0,0,.1,0,.2,0,0,0,.1,0,.2,0,.3,0,.5-.2.8-.3.2,0,.4-.2.6-.3.2-.2.2-.3.2-.5,0,0,0,0,0,0,0-.3-.2-.5-.5-.6-.1,0-.2,0-.3,0-.2,0-.3,0-.5,0-.2.2-.4.4-.7.5-.2.1-.3.2-.5.3-.1,0-.2.2-.3.2-.1,0-.3.2-.4.2-.3.2-.5.3-.9.3,0,0-.1,0-.2,0-.2,0-.3.2,0,.4ZM111.7,16.2c0,0-.1.1-.2.2,0,0-.1,0-.2,0,0,0-.1-.1,0-.2,0-.2,0-.3.2-.5,0-.2,0-.4,0-.6,0-.3,0-.3.2-.4.1,0,.2,0,.3-.1h.1c.2,0,.3.1.2.2-.1.3-.2.6-.3.8-.1.1-.2.3-.3.5ZM111.2,17c-.2.1-.3.3-.5.4,0,0-.1,0-.2,0,0,0-.1-.1,0-.2,0-.1.4-.4.6-.4,0,0,.1,0,.2.1,0,0,0,0,0,.1ZM110.2,16.5c0,0,0-.2,0-.3,0-.1,0-.2.2-.3.3-.1.3-.2.4-.5,0,0,0-.2,0-.2,0,0,.1-.1.2,0,0,0,0,.2.1.3,0,.2,0,.5-.2.7,0,.2-.2.3-.3.4-.1.1-.3,0-.4-.1ZM109.8,15.8c0,.3-.2.4-.4.4-.1,0-.3,0-.4,0-.2,0-.2-.2,0-.4.1-.1.3-.2.5-.3.2,0,.4,0,.4.3,0,0,0,0,0,.1ZM112.1,16.4c.1-.2.3-.3.4-.5.2-.4.4-.7.7-.9.4-.3.6-.8.8-1.2,0-.2-.1-.4-.3-.4-.2,0-.5,0-.7.1-.2,0-.3.1-.5.3-.2.2-.5.4-.8.5,0,0-.1,0-.2,0,0,.1-.2.2-.3.4,0,.1-.2.2-.3.2-.2-.1-.4-.4-.1-.6.1,0,.2-.2.3-.2.3-.2.5-.4.8-.6.1,0,.3-.2.3-.4,0-.2,0-.3,0-.5,0-.2-.2-.3-.2-.5,0-.2-.2-.3-.3-.4,0,0-.1,0-.2,0,0,0-.1.1-.2.2,0,.2-.1.4-.2.6,0,.3-.2.5-.3.7-.2.2-.3.4-.4.7,0,.1,0,.2-.2.3,0,0-.2.2-.3.2-.2,0-.3,0-.5,0-.2,0-.3,0-.4,0,0,0,0,.1,0,.2,0,0,0,.1.1.2.1.1.1.2,0,.4-.2.2-.3.3-.5.5,0,0-.1,0-.1,0,0,0,0,0-.1-.2,0,0,0-.2,0-.2,0-.2,0-.3.1-.5,0-.1,0-.3,0-.4,0-.1.1-.3.1-.4,0,0,0-.1,0-.2,0-.2-.2-.4-.5-.5-.3-.1-.5-.2-.8-.3-.1,0-.3,0-.3.1,0,0,0,.1,0,.2,0,0,0,.1,0,.2.2.4.3.8.3,1.2,0,0,0,.2,0,.3,0,.3,0,.6,0,.9,0,.1,0,.2,0,.4,0,0,0,.2,0,.2,0,.1,0,.2,0,.3,0,0-.1,0-.2,0,0,0,0-.1,0-.2,0-.2,0-.4,0-.6,0-.1,0-.2,0-.4,0-.2,0-.3-.1-.5-.1-.1-.2-.2-.4-.3,0,0,0,0-.1,0-.2,0-.3.2-.2.4,0,.2.1.4.2.6,0,.2.1.4,0,.6,0,.3-.2.5-.4.8,0,0-.1.2-.1.3,0,.2.2.4.4.5.2,0,.3,0,.4,0,.2-.1.3-.4.5-.6,0-.1.1-.3.2-.4,0,0,0-.2,0-.2.2-.2.3-.3.5-.5,0,0,.1,0,.2,0,.1,0,.2.1.3.2,0,0,0,.2,0,.3,0,0-.1.1-.2.2,0,0-.2.2-.2.3,0,.1,0,.2,0,.3.1.1.2.1.3,0,.1,0,.2-.2.3-.2.1,0,.2-.2.4-.1.1,0,.2.1.3.2.1.1.1.2,0,.4-.2.2-.4.3-.6.3-.4,0-.9,0-1.3.2-.4.1-.4.4-.2.6,0,0,.2.2.3.2.2.1.5.1.7,0,.2-.1.4-.3.7-.4.2,0,.4-.2.5-.3.2-.2.5-.2.7,0,0,0,.2,0,.2,0,.2-.1.4-.3.5-.5.2-.2.4-.3.7-.1.1,0,.1.2,0,.3-.1.1-.2.2-.4.3-.3.2-.5.4-.8.6-.3.1-.5.3-.8.4-.2.1-.4.2-.6.1-.2,0-.4,0-.6.2,0,0,0,.1,0,.2,0,0,.2.2.3.2.1,0,.3,0,.4,0,.1,0,.2,0,.3.2,0,0,0,.2,0,.2,0,0,0,0,0,0,0,0-.2.1-.2.2,0,0-.1.2,0,.3,0,0,0,.2,0,.2-.1.1-.3,0-.4.1-.4,0-.8.1-1.1.2,0,0,0,0,0,0-.2,0-.4,0-.6,0-.2,0-.3,0-.4.2,0,.1,0,.3,0,.4.2.2.4.4.7.5.2,0,.4,0,.5,0,.3-.2.7-.4,1-.6,0,0,.2,0,.3,0,.1,0,.2.2.2.4,0,0,0,.2,0,.3,0,.2,0,.3,0,.5,0,.2-.2.4-.4.4,0,0-.2,0-.3,0-.2,0-.3,0-.5,0,0,0-.1,0-.2,0,0,0-.2,0-.2.1,0,0,0,.1,0,.2,0,0,0,0,0,0,.4.3.8.6,1.1,1,.2.3.5.3.7,0,.2-.2.4-.5.6-.7.1-.2.2-.4.2-.6,0-.2,0-.5,0-.7,0-.3,0-.6-.1-.9,0-.1,0-.2,0-.2.2-.1.4-.2.6-.1.2,0,.4,0,.5,0,0,0,.2,0,.2,0,.1,0,.3,0,.3-.2,0,0,0-.2.1-.3,0-.2,0-.4-.2-.5-.2-.1-.4,0-.6,0-.3.2-.6.2-1,.3-.1,0-.2,0-.3,0,0,0,0-.2,0-.3.1-.2.3-.4.5-.6.2-.2.3-.5.2-.8,0-.2,0-.4.3-.4.1,0,.3,0,.4-.1,0,0,.1,0,.2,0,.3-.1.5-.2.7-.5.1-.2.3-.3.4-.5,0,0,.2-.2.3-.3.1-.1.2-.4.1-.5-.2-.4-.5-.5-.9-.3-.2.1-.5.3-.7.4,0,0-.2,0-.3,0,0,0,0-.2,0-.3,0-.1.2-.2.3-.4ZM68.8,13.9c.2,0,.3.2.2.5h0c0,.2,0,.2,0,.3,0,0,.1,0,.2,0,.3-.2.7-.4,1-.6,0,0,.2-.1.2-.2.1-.1.2-.3,0-.4-.1-.3-.4-.5-.6-.6,0,0,0,0-.1,0-.1,0-.2,0-.3,0-.2,0-.4.1-.5.2-.3,0-.4,0-.4.3,0,0,0,0,0,0,0,.2,0,.3.2.4ZM46.8,21.9s0,0,.1-.1c0,0,0,0,.1,0,0,0,.2,0,.3,0,0,0,.1,0,.2,0,0,0,0,.1,0,.2-.1.2-.3.4-.5.6-.1.1-.3,0-.3-.1,0,0,0-.2,0-.3,0-.1,0-.3,0-.4ZM41.6,23.3c.1,0,.2,0,.3,0,.2,0,.5,0,.7,0,.3,0,.6-.2.9-.3,0,0,0,0,.1,0,.2-.1.4-.2.5-.3.2-.1.4-.3.6-.4.2-.1.4-.3.5-.4,0,0,0,0,0,0,0,0,.1,0,.2,0,.1.1.1.2,0,.4,0,.1,0,.3,0,.4,0,0,0,0,0,.1,0,.3,0,.6.2.8,0,0,.2.2.2.2.2.1.4.1.5,0,0,0,.1-.2.2-.3,0-.2.2-.2.3,0,0,0,0,0,.1.1,0,0,.2.1.3.1.2,0,.4,0,.6,0,0,0,0,0,.1,0,.5.1.8-.2,1-.5,0-.3,0-.5-.3-.5,0,0-.1,0-.2-.1,0,0,0-.1,0-.2.2-.2.3-.3.5-.5.1-.1.2-.3.2-.5,0-.3-.2-.5-.5-.7-.2-.1-.3-.1-.5,0-.1,0-.2.2-.3.2-.3.1-.5.2-.8.3,0,0-.1,0-.2,0-.2,0-.3,0-.4.3,0,.1-.2.3-.3.2-.1,0-.3-.2-.4-.3-.1,0,0-.2,0-.3,0,0,.1-.2.2-.2.2-.2.3-.4.4-.6,0,0,.1-.1.2,0,0,0,0,.1.1.2,0,0,0,0,0,0,0,.1.1.2.2.1.1,0,.2-.1.4-.2.1,0,.2-.1.3-.1.3,0,.6-.2.8-.4,0,0,0-.2,0-.3,0-.2-.2-.3-.4-.4,0,0-.2,0-.2,0-.1.1-.3.2-.5.2-.1,0-.2,0-.3,0,0,0,0-.2,0-.3.2-.2.3-.5.5-.7,0-.1.1-.2.2-.3,0,0,.1,0,.2,0,0,0,.2.2.2.3.2.4.4.8.5,1.3,0,.2,0,.3.2.5.1.2.3.4.6.4.2,0,.5-.1.7-.2.2,0,.4-.2.5-.2.2,0,.4-.3.6-.5.2-.2,0-.4-.2-.4-.2,0-.5,0-.7-.1h0s0,0-.1,0c-.3,0-.5-.2-.7-.4-.2-.2-.5-.5-.7-.8-.2-.2-.4-.5-.6-.8,0,0,0-.2,0-.3,0-.1.1-.2.2-.4,0-.3.3-.5.5-.7.2-.1.3-.3.2-.6,0-.2-.1-.3-.2-.5,0,0,0-.2-.1-.3,0,0-.1-.2-.1-.3,0-.1-.1-.2-.3-.3,0,0-.2-.1-.2-.2,0,0-.1,0-.2,0-.1.1-.2.3-.2.5,0,.1,0,.3,0,.4,0,.3-.2.5-.3.8-.2.4-.3.8-.5,1.2-.2.4-.3.7-.5,1.1-.2.3-.3.6-.5.9,0,0,0,0,0,.1,0,.1-.1.3-.2.4-.2.2-.4.4-.5.6-.2.4-.5.7-.8,1-.2.2-.4.4-.6.5-.3.2-.7.5-1,.7-.2.2-.5.3-.8.4-.2,0-.5.1-.7.2-.1,0-.3,0-.4,0-.2,0-.3.2-.1.4,0,0,0,.2.2.3,0,.1.2.2.3.1h0ZM41.9,17.6c0,.4,0,.8,0,1.1,0,.3,0,.5,0,.7,0,0,0,.1,0,.2,0,.2.1.3.2.5,0,.2.2.3.4.3.3,0,.4-.2.6-.3.2-.1.3-.3.3-.5,0-.2.2-.3.4-.2.2.2.5.1.7,0,.2,0,.5-.2.7-.3.2,0,.4-.2.4-.5,0-.2,0-.3-.2-.4h0c-.1-.2-.1-.3,0-.4.2-.2.4-.4.7-.6.1,0,.2-.2.3-.3,0,0,0-.2,0-.3,0-.1-.1-.2-.2-.3,0,0-.1-.2-.2-.3-.1-.1-.3-.3-.4-.4-.1-.1-.2-.2-.4-.1-.2,0-.4.2-.6.3-.2.1-.5.3-.7.4-.1,0-.3,0-.4.2,0,0-.1.1-.1.2,0,.2.4.6.6.5h0c.2,0,.3.1.2.3-.1.3-.3.5-.4.8,0,0,0,0,0,.1,0,0-.1,0-.2,0,0,0,0-.2,0-.3,0-.3,0-.6-.2-.7-.1-.1-.3-.2-.4-.4-.1-.2-.3-.3-.5-.4-.1,0-.2,0-.3,0,0,0,0,.2-.1.2-.1.1,0,.3,0,.4,0,0,0,.2,0,.3ZM74.4,21.9c0,.3.3.6.6.6.2,0,.3,0,.5,0,.2,0,.4,0,.6,0,.4,0,.4,0,.7-.4.3-.5.8-.9,1.3-1.3.2,0,.3-.1.5-.2.5-.3,1.1-.5,1.7-.5.2,0,.4-.1.5-.3.2-.2,0-.6-.2-.7,0,0-.2,0-.3,0,0,0-.1,0-.2,0-.2,0-.2,0-.3,0,0,0-.1.2-.2.2-.2,0-.5.2-.7.2,0,0-.1,0-.2,0,0,0,0-.1,0-.2,0,0,0,0,0-.1.2-.2.4-.5.6-.7.4-.4.8-.8,1.2-1.1.2-.2.3-.5.2-.8,0-.2-.2-.4-.3-.5-.1-.2-.6-.3-.8-.2-.2,0-.3.2-.5.3-.3.2-.6.4-1,.6,0,0-.2,0-.3.1-.1,0-.2,0-.3.1,0,0-.1,0-.2,0,0,0-.2,0-.3,0-.1,0-.3,0-.4,0-.2,0-.3-.2-.5,0,0,0-.2.2-.2.2-.2.2-.2.5,0,.7.1.1.2.2.3.3.1.1.3.3.4.3.2,0,.4,0,.6,0,0,0,0,0,0,0,.2-.2.4-.3.6-.5.2-.1.3-.3.5-.4,0,0,.1,0,.1,0,0,0,0,.1,0,.2,0,.1,0,.2-.2.3-.3.3-.5.6-.8.9-.1.2-.2.3-.3.5,0,.1-.2.2-.3.3-.2.2-.4.5-.7.7-.1.1-.3.2-.5.2,0,0-.2,0-.3,0-.2,0-.5.2-.7.2,0,0,0,0-.1,0,0,0-.2,0-.3,0-.2,0-.3,0-.4.2,0,.1,0,.2,0,.4,0,.1.1.2.1.4h0ZM94.4,21.3c.2.4.7.5,1,.2.2-.1.3-.3.5-.4.3-.2.6-.4.9-.6.2-.1.3-.2.5-.3.1,0,.2,0,.3,0,0,0,0,.2,0,.2,0,0,0,0,0,.1-.1.5-.4,1-.8,1.4-.3.3-.7.6-1.2.7-.3,0-.5.1-.8,0,0,0-.1,0-.2,0-.2,0-.3.2-.2.4.2.3.6.5,1,.5.2,0,.4,0,.6,0,.3,0,.5-.2.8-.3,0,0,0,0,0,0,.2-.1.3-.3.4-.4.4-.3.7-.6.9-1.1.2-.4.4-.7.5-1.1,0,0,0-.1.1-.2,0,0,.1,0,.2.1.1.3.3.5.4.8.1.4.3.7.5,1,0,.2.2.3.3.5,0,.1.2.2.2.3.1.2.3.3.5.4.2,0,.4.1.6,0,0,0,0,0,0,0,.3,0,.5-.2.7-.4.1-.1.2-.3.4-.4.1-.1.2-.2.3-.4,0,0,0-.1,0-.2,0-.1-.2-.2-.3-.1-.1,0-.2,0-.3,0-.3,0-.6,0-.8,0-.2,0-.5-.2-.7-.3,0,0-.2-.1-.2-.2,0,0-.2-.2-.2-.3,0,0-.1-.2-.2-.3-.3-.3-.5-.7-1-.8,0,0-.2,0-.2-.2,0-.3.1-.5.4-.5.1,0,.3,0,.4-.1.1,0,.2,0,.3-.1.5-.2,1-.3,1.5-.5,0,0,0,0,0,0,0,0,.1,0,.2,0,.4-.2.5-.3.5-.7,0-.2,0-.4-.3-.6-.2-.1-.4-.3-.7-.4-.1,0-.2,0-.2,0,0,0,0,.1,0,.2,0,0,0,.2,0,.3,0,.3-.3.4-.6.5,0,0-.2,0-.3.1-.2.2-.5.3-.8.3-.2,0-.3,0-.3-.2,0,0,0-.1,0-.2,0-.2.2-.5.1-.7,0-.2,0-.5.1-.7,0-.2.2-.4.2-.6,0,0,0-.1,0-.2,0-.3,0-.6,0-1h0c0-.1,0-.2,0-.3-.1-.4-.3-.7-.7-.9-.2-.1-.3,0-.5,0-.2.2-.3.3-.2.6,0,.1,0,.2,0,.3,0,.1,0,.3,0,.4s0,.3,0,.4c0,.1,0,.2,0,.3,0,.3,0,.5,0,.8,0,.3,0,.6,0,.9,0,.1,0,.3,0,.4,0,.3,0,.6-.1.9,0,.2-.1.3-.3.3-.3.1-.5.2-.8.4,0,0,0,0-.1,0-.3.1-.7.3-1,.4-.1,0-.3,0-.4,0-.3,0-.4,0-.5.2,0,.1-.1.2-.2.3-.2.2-.2.5,0,.7,0,0,0,0,0,0h0ZM104.9,21.3c0,0,.2.2.4.1.3-.2.5-.4.7-.8,0-.1,0-.3.1-.4.1-.2.3-.5.4-.7,0,0,0-.2,0-.2s-.1,0-.2,0c0,0-.2.1-.3.2,0,0-.1,0-.2,0,0,0,0-.1,0-.2,0-.2.2-.3.3-.5.2-.2.2-.3,0-.6,0,0,0-.1-.1-.2,0,0-.1,0-.2,0,0,0-.1.2-.2.3-.3.4-.7.7-1,1.1-.1.2-.3.3-.2.5,0,.5.2.9.5,1.3h0ZM88,16.1c0-.1,0-.2,0-.4,0,0,0-.1,0-.2,0,0,.1,0,.1,0,0,.1.2.2.3.3,0,0,0,0,.1,0,0,0,.1.2,0,.2,0,0-.1.2-.2.2-.1,0-.2.2-.3.2-.2,0-.3,0-.3-.1,0,0,0,0,0-.1h0c0-.1,0-.3,0-.4ZM89.2,15.4c.2-.2.3-.4.5-.6,0,0,.1-.1.2,0,0,0,.1.1,0,.2-.1.2-.2.4-.4.6,0,0,0,0-.1.1,0,0-.1,0-.2,0,0,0-.1-.1-.2-.2,0,0,0-.1,0-.2h0ZM87.8,22.8s0,0,0,0c0,.2,0,.4-.3.4-.1,0-.3,0-.4-.2,0,0,0-.1,0-.2,0-.2.2-.4.2-.5,0,0,0-.1.1-.2,0,0,.1-.1.2,0,0,0,.2.1.1.2v.4s0,0,0,0ZM84.3,20.2c0,0,.2,0,.3,0,.2,0,.4-.2.6-.3.3-.2.5-.5.8-.7.2-.2.4-.4.6-.5,0,0,.1,0,.2,0,0,0,0,0,0,.2,0,0,0,.2,0,.2,0,0,.1.1.2.2,0,0,.2,0,.2,0,0,0,.2-.1.2-.2,0,0,.1,0,.2,0,0,0,0,.1,0,.2,0,0-.1.1-.2.2,0,0-.2,0-.2.1-.2,0-.3.2-.5.3-.3.3-.2.5.1.6,0,0,.2,0,.3,0,0,0,.1,0,.2,0,0,0,.2,0,.2,0,0,0,0,.1,0,.2,0,0-.2,0-.2.1,0,0-.1,0-.1.1,0,0,0,.1.1.1,0,0,.1,0,.2,0,.2,0,.2.2.1.3-.2.2-.4.3-.7.2-.1,0-.3,0-.3.1,0,0,0,.2-.1.3,0,0,0,.2,0,.2,0,0,.2.1.3.2.2.1.2.2,0,.3-.2.2-.5.3-.7.5-.2,0-.4.1-.5,0,0,0-.2,0-.2-.1,0,0-.1,0-.2,0-.2.1-.3.5-.2.7.1.2.2.3.4.5.2.2.5.2.7,0,.2-.1.3-.2.5-.4.2-.2.3-.3.4-.5.1-.1.2-.2.3,0,0,0,.1.1.2.2,0,.2.2.4.3.6s.2.3.4.2c.3,0,.5-.3.7-.5.1-.1.2-.3.1-.4,0-.2,0-.3,0-.5,0,0,0-.1,0-.1,0-.1,0-.3,0-.4,0-.2,0-.4,0-.7,0-.1.1-.2.2-.1.2.2.4.3.5.6.1.3.2.6.2.9,0,0,0,0,0,0,0,.2.2.4.4.3.2,0,.4,0,.6-.1.1,0,.3-.1.3-.3,0,0,0-.2,0-.2,0-.2,0-.4,0-.7,0,0,0-.2-.1-.3-.2-.2-.4-.4-.7-.5-.3-.1-.6,0-.9,0-.1,0-.2,0-.3,0,0,0,0-.2,0-.2,0,0,0,0,0,0,0-.1.1-.2.2-.3,0-.1,0-.2,0-.3,0,0-.1,0-.2,0,0,0-.2.1-.3.2,0,0-.1,0-.2,0-.1-.1-.1-.3,0-.4.1,0,.3-.1.4-.2.2-.2.3-.3,0-.5,0-.1,0-.2,0-.3,0,0,.1-.2.2-.2.1-.1.1-.3,0-.4,0,0,0-.1-.1-.2,0,0-.1,0-.2,0,0,0-.1.2-.2.3,0,0-.1.2-.2.2,0,0-.2,0-.2,0,0,0,0-.2,0-.2.1-.1.2-.2.4-.3.2-.2.5-.3.7-.4.3,0,.5-.3.7-.5.1-.2.1-.3,0-.5-.1-.2-.3-.2-.5-.2-.1,0-.2,0-.3,0-.2,0-.3.1-.3.3,0,.1,0,.2-.2.3,0,0-.1.1-.1.2,0,0,0,.1,0,.2-.1.3-.3.5-.5.7,0,0-.1.1-.2,0,0,0,0-.2,0-.2l.3-.4c0-.1.2-.2.2-.3,0,0,0-.1,0-.2,0,0-.1,0-.2,0,0,0,0,0-.1.1-.2.1-.3.3-.5.4-.1,0-.2,0-.3,0,0-.1,0-.2,0-.2.2-.2.4-.3.7-.4.2-.1.4-.3.6-.3,0,0,.1,0,.2,0,.3-.1.6-.2.9-.2.2,0,.5-.1.7,0,0,0,0,0,0,0h.8c0,0,.1,0,.2,0,0,0,.2,0,.2,0,.3,0,.5,0,.7-.3.2-.2.2-.4,0-.7-.2-.3-.4-.3-.6-.2-.3.1-.6.3-.9.4-.2,0-.5.2-.7.3-.1,0-.2,0-.2,0,0,0,0-.2,0-.2,0,0,0,0,.1-.1.2-.1.5-.3.7-.4.4-.2.5-.6.2-.9,0,0,0,0-.1-.1-.2-.3-.8-.3-1-.1,0,0,0,0,0,0-.2.2-.4.4-.5.6-.2.2-.4.5-.8.6-.2,0-.3,0-.4-.2,0,0,0,0,0,0,0-.2,0-.3.2-.4,0,0,0-.1,0-.2,0-.3,0-.6-.3-.8-.2-.2-.4-.4-.7-.2,0,0,0,0,0,0-.2,0-.3.1-.3.3v1.2h0c0,.3,0,.6-.1.8,0,0,0,.1-.1.2-.1,0-.2.1-.3.2-.2.2-.4.1-.6,0h0c-.1-.1-.2-.1-.3,0,0,.2-.1.3-.2.5,0,.2,0,.5,0,.7,0,.2.2.3.4.3.2,0,.3-.1.4-.3.1-.3.3-.5.5-.8,0,0,.1,0,.2,0,0,0,0,.1.1.2,0,0,0,.2,0,.3,0,0,0,.2,0,.3,0,.1,0,.2-.1.3,0,0-.2,0-.3.1-.2.1-.5.3-.7.4,0,0,0,0,0,0-.4.2-.8.4-1.1.6-.3.2-.7.3-1.1.2-.2,0-.4,0-.5.1-.1.2-.3.5,0,.8.3.3.6.5.9.6h0ZM33.3,22.3c.3-2.3-.5-4.5-2.1-6.1-1.4-1.4-3.3-2.2-5.3-2.2-4.1,0-7.5,3.4-7.5,7.5s0,.5,0,.8h.5c-.4-3.8,2.3-7.3,6.2-7.7.3,0,.5,0,.8,0,3.9,0,6.9,3,6.9,6.9s0,.6,0,.9h.5ZM27.9,29.6h.5v-1h.8v-.2h-2.1v.2h.8v1h0ZM25.6,29.6h.5v-1.2h-.5v1.2ZM22.8,29h1v.5h.5v-1.2h-.5v.5h-1v-.5h-.5v1.2h.5v-.5ZM18.2,24.2h.2v-.3h-.2v.3ZM18.2,23.7h.2v-.3h-.2v.3ZM18.2,23.3h.2v-.3h-.2v.3ZM18.5,24.7h.2v-.3h-.2v.3h0ZM17.9,24.2h.2v-.3h-.2v.3ZM18.2,24.7h.2v-.3h-.2v.3ZM17.9,23.3h.2v-.3h-.2v.3ZM17.9,23.7h.2v-.3h-.2v.3ZM18.8,24.2h.2v-.3h-.2v.3ZM18.8,24.7h.2v-.3h-.2v.3ZM18.8,23.7h.2v-.3h-.2v.3ZM18.8,23.3h.2v-.3h-.2v.3ZM19.2,24.7h.2v-.3h-.2v.3ZM18.5,24.2h.2v-.3h-.2v.3h0ZM18.5,23.7h.2v-.3h-.2v.3h0ZM17.9,24.7h.2v-.3h-.2v.3ZM19.2,24.2h.2v-.3h-.2v.3ZM18.5,23.3h.2v-.3h-.2v.3h0ZM15.8,24.7h.2v-.3h-.2s0,.3,0,.3ZM16.2,24.2h.2v-.3h-.2v.3ZM16.2,23.7h.2v-.3h-.2v.3ZM16.7,24.7h.2v-.3h-.2v.3h0ZM16.2,23.3h.2v-.3h-.2v.3ZM16.2,24.7h.2v-.3h-.2v.3ZM16.7,24.2h.2v-.3h-.2v.3h0ZM15.8,24.2h.2v-.3h-.2v.3ZM15.8,23.7h.2v-.3h-.2v.3ZM15.8,23.3h.2v-.3h-.2v.3ZM17,23.7h.2v-.3h-.2v.3h0ZM17.5,24.7h.2v-.3h-.2v.3ZM16.7,23.7h.2v-.3h-.2v.3ZM17,23.3h.2v-.3h-.2v.3h0ZM17.5,23.7h.2v-.3h-.2v.3ZM17.5,24.2h.2v-.3h-.2v.3ZM16.7,23.3h.2v-.3h-.2v.3ZM17,24.7h.2v-.3h-.2v.3h0ZM17,24.2h.2v-.3h-.2v.3h0ZM19.2,23.7h.2v-.3h-.2v.3ZM17.5,23.3h.2v-.3h-.2v.3ZM29.9,21.9c0,0-.1,0-.1.1v.3h.2v-.3c0,0,0-.1-.1-.1ZM29.8,22.8h.2v-.3h-.2v.3h0ZM29.8,23.3h.2v-.3h-.2v.3ZM29.8,23.8h.2v-.3h-.2v.3ZM30.1,24.7h.2v-.3h-.2v.3ZM30.1,23.3h.2v-.3h-.2v.3ZM30.1,24.2h.2v-.3h-.2v.3ZM30.1,22.8h.2v-.3h-.2v.3h0ZM30.1,23.8h.2v-.3h-.2v.3ZM29.8,24.2h.2v-.3h-.2v.3ZM29.4,24.2h.2v-.3h-.2v.3ZM29.4,24.7h.2v-.3h-.2v.3ZM29,22.8h.2v-.3h-.2v.3h0ZM29.1,21.9c0,0-.1,0-.1.1v.3h.2v-.3c0,0,0-.1-.1-.1ZM29.5,21.9c0,0-.1,0-.1.1v.3h.2v-.3c0,0,0-.1-.1-.1ZM29.8,24.7h.2v-.3h-.2v.3ZM29.4,23.3h.2v-.3h-.2v.3ZM29.4,22.8h.2v-.3h-.2v.3h0ZM29.4,23.8h.2v-.3h-.2v.3ZM26,19.4h.2v-.3h-.2v.3ZM25.4,20.2h.2v-.3h-.2v.3ZM25.4,20.5h.2v-.3h-.2v.3ZM26,18.9h.2v-.3h-.2v.3ZM25.7,18.9h.2v-.3h-.2v.3ZM30.2,21.9c0,0-.1,0-.1.1,0,0,0,0,0,0v.3h.2v-.3c0,0,0-.1-.1-.1ZM26,20.2h.2v-.3h-.2v.3ZM26,20.5h.2v-.3h-.2v.3ZM25.7,20.2h.2v-.3h-.2v.3ZM25.7,20.5h.2v-.3h-.2v.3ZM19.2,23.3h.2v-.3h-.2v.3ZM25.7,19.4h.2v-.3h-.2v.3h0ZM30.5,24.2h.2v-.3h-.2v.3ZM30.5,24.7h.2v-.3h-.2v.3ZM30.5,23.3h.2v-.3h-.2v.3ZM30.5,23.8h.2v-.3h-.2v.3ZM25.4,18.9h.2v-.3h-.2v.3ZM30.5,22.8h.2v-.3h-.2v.3h0ZM30.6,21.9c0,0-.1,0-.1.1v.3h.2v-.3c0,0,0-.1-.1-.1ZM25.4,19.4h.2v-.3h-.2v.3ZM33.3,24.7h.2v-.3h-.2v.3ZM35.2,24.7h.2v-.3h-.2v.3ZM34.8,23.3h.2v-.3h-.2v.3ZM34.8,24.7h.2v-.3h-.2v.3ZM34.8,24.2h.2v-.3h-.2v.3ZM34.8,23.7h.2v-.3h-.2v.3ZM35.7,24.2h.2v-.3h-.2v.3h0ZM35.2,24.2h.2v-.3h-.2v.3h0ZM35.2,23.7h.2v-.3h-.2v.3h0ZM35.2,23.3h.2v-.3h-.2v.3h0ZM35.7,24.7h.2v-.3h-.2v.3ZM34,24.2h.2v-.3h-.2v.3ZM34.4,23.3h.2v-.3h-.2v.3h0ZM34,24.7h.2v-.3h-.2v.3ZM33.6,23.3h.2v-.3h-.2v.3ZM34,23.7h.2v-.3h-.2v.3h0ZM34.4,23.7h.2v-.3h-.2v.3h0ZM34.4,24.2h.2v-.3h-.2v.3h0ZM15.5,23.3h.2v-.3h-.2v.3ZM34,23.3h.2v-.3h-.2v.3ZM36.3,23.3h.2v-.3h-.2v.3ZM36.6,23.3h.2v-.3h-.2v.3ZM36.6,24.2h.2v-.3h-.2v.3ZM37,24.7h.2v-.3h-.2v.3h0ZM36.6,24.7h.2v-.3h-.2v.3ZM36.6,23.7h.2v-.3h-.2v.3ZM37.6,22.8h-2c0,0,0,0,0,0,0,0,0,0,0,0h-1.6s0,0,0,0c0,0,0,0,0,0h0c0,0-2,0-2,0h0c0,0,1.9,0,1.9,0h0c0-.1,2-.1,2-.1h0c0,.1,1.9.1,1.9.1,0,0,0,0,0,0ZM35.6,24.8v-1.9h1.9,0v1.9s-1.9,0-1.9,0ZM35.1,22.8h.4v2h-.4v-2h0ZM34.4,22.8h.7v2h-.7v-2ZM33.9,22.8h.4v2h-.4v-2ZM32.2,22.9h1.7v1.9h-1.7v-1.9ZM31.9,22.9h.3v1.9h-.3v-1.9h0ZM37.6,24.8h0c0,.1-5.9.1-5.9.1h0c0-.1,5.8-.1,5.8-.1ZM37.6,25.2h-5.9c0-.1,5.9-.1,5.9-.1h0c0,.1,0,.1,0,.1ZM31.7,24.6c0,0-.2,0-.3,0,0,0,0,0,0,.2h0v-1.8h.6v1.8h-.1c0,0,0-.2,0-.2ZM31.4,25h-3.5s0,0,0,0h0c0,0,3.6,0,3.6,0,0,0,0,.1,0,.1ZM31.3,25.1h-2c0,0-.1,0-.2,0-.2,0-.4-.1-.6-.1h2.8,0ZM29.3,25.3c0,0-.1,0-.1,0s0,0,.1,0,.1,0,.1,0,0,0-.1,0ZM28,25.2c0,0,.1,0,.1,0h-.6c0,0,.5,0,.5,0ZM28.2,25.3s0,0,0,0c0,0,0,0,0,0h-.5c0-.1.5-.1.5-.1h0s0,0,0,0ZM28.4,25.3c0,0,.1,0,.1,0s0,0-.1,0-.1,0-.1,0,0,0,.1,0h0ZM27.7,25.4h0c0-.1,0-.1,0-.1h0ZM27.6,25.4h-3.6c0-.1,3.6-.1,3.6-.1h0ZM24,25.4h-.5s0,0,0,0c0,0,0,0,0,0h0s.5,0,.5,0h0c0,.1,0,.1,0,.1ZM23.3,25.4c0,0-.1,0-.1,0s0,0,.1,0,.1,0,.1,0,0,0-.1,0h0ZM23.6,25.2h.6c0,0-.7,0-.7,0,0,0,0,0,.1,0ZM20.3,25h0c0-.1,3.6-.1,3.6-.1h0c0,0,0,0,0,0,0,0,0,0,0,0,0,0-3.5,0-3.5,0ZM22.5,25.1c0,0-.1,0-.2,0h-2c0-.1,2.8-.1,2.8-.1-.2,0-.4,0-.6.1h0ZM22.4,25.3c0,0-.1,0-.1,0s0,0,0,0h0s0,0,0,0c0,0,0,0,0,0,0,0,.1,0,.1,0s0,0-.1,0ZM20.3,24.6c0,0-.2,0-.3,0,0,0,0,.1,0,.2h-.1v-1.8h.6v1.8h0c0-.1,0-.2,0-.2ZM20,25h-5.9c0-.1,5.8-.1,5.8-.1h0c0,.1,0,.1,0,.1ZM19.9,25.2h-5.8c0-.1,5.9-.1,5.9-.1h0ZM14.2,22.9h1.9v1.9h-1.9v-1.9s0,0,0,0ZM16.6,24.8h-.4v-2h.4v2h0ZM17.3,24.8h-.7v-2h.7v2ZM17.8,24.8h-.4v-2h.4v2ZM19.5,24.8h-1.7v-1.9h1.7v1.9ZM19.8,24.8h-.3v-1.9h.3v1.9ZM14.1,22.8h0c0,0,1.9,0,1.9,0h0c0-.1,2-.1,2-.1h0c0,.1,1.9.1,1.9.1h0c0,0-2,0-2,0h0c0-.1,0-.1,0-.1h-1.6s0,0,0,0c0,0,0,0,0,0h0c0,0-2,0-2,0ZM20.4,21.8h.3s-.3,0-.3,0h0s0,0,0,0ZM20.8,24.8h-.3v-2.8h.3v2.8ZM20.4,21.9h.3c0,.1-.3.1-.3.1h0ZM20.3,21.7h4.3c0,.1-4.2.1-4.2.1h-.2c0-.1,0-.1,0-.1ZM24.7,23.5h0c0,0-.8,0-.8,0h0c0,0,.8,0,.8,0ZM24.6,20.6h2.6-.1c0,0-2.4,0-2.4,0,0,0,0,0,0,0ZM24.5,20.6h0s.8,0,.8,0c0,0,0,0,0,0v-.8h1v.8s0,0,0,0h.8s-2.7,0-2.7,0c0,0,0,0,0,0h0ZM25.1,20.5h-.4c0,0,.4,0,.4,0h0ZM25.1,20.4h0s-.4,0-.4,0h0s.5,0,.5,0ZM25.2,20.4s0,0,0,0h-.2v-.6h.3v.7h-.2c0,0,0-.1,0-.1,0,0,0,0,0,0h0ZM24.9,19.8h0c0,0,1.9,0,1.9,0h0c0,0-1.9,0-1.9,0h0ZM24.8,19.6h2.1,0s-1.9,0-1.9,0c0,0,0,0,0,0ZM24.8,19.6h2.1s-2.1,0-2.1,0h0ZM24.9,19.4s0,0,0,0,0,0,0,0h.4s0,0,0,0,0,0,0,0h-.4ZM25.2,18.4h0s1.3,0,1.3,0h0s0,0,0,0h-1.1s0,0,0,0h0ZM25.2,18.4h0s1.3,0,1.3,0h0s-1.3,0-1.3,0h0ZM25.5,18.3h-.2c0,0,.2,0,.2,0h0ZM25.2,18.2s0,0,0,0,0,0,0,0h.3s0,0,0,0,0,0,0,0c0,0-.3,0-.3,0ZM26.1,18.3h-.6s.6,0,.6,0h0ZM25.6,18h0v.2c0,0,0,0,0,0v-.2ZM25.7,17.9h0c0,.1,0,.1,0,.1h0c0-.1,0-.1,0-.1ZM25.7,17.7h0s.4,0,.4,0h0s-.3,0-.3,0ZM25.7,17.6h.4c0,0-.4,0-.4,0h0ZM26,17.6h0s-.3,0-.3,0h0s.4,0,.4,0ZM25.6,17.5s0,0,0,0,0,0,0,0h.4s0,0,0,0,0,0,0,0h-.4ZM26.1,18h0c0-.1,0-.1,0-.1h0c0,.1,0,.1,0,.1ZM25.9,18h0v.2h-.1v-.2ZM25.8,18h0v.2h0v-.2h0ZM25.9,18h0c0-.1,0-.1,0-.1h0ZM25.9,17.8h0c0,.1,0,.1,0,.1h0ZM25.7,17.8h0s.3,0,.3,0h0s-.3,0-.3,0h0ZM25.7,18h0c0-.1,0-.1,0-.1h0c0,.1,0,.1,0,.1h0ZM25.7,18h0v.2h0v-.2ZM25.7,18h0c0-.1,0-.1,0-.1h0c0,.1,0,.1,0,.1ZM25.7,18v.2s0,0,0,0v-.2c0,0,0,0,0,0ZM26,18.2h0v-.2h.1s0,.2,0,.2ZM26.4,18.3h-.2c0,0,.2,0,.2,0h0ZM26.1,18.2h.3s0,0,0,0,0,0,0,0h-.3s0,0,0,0,0,0,0,0h0ZM26.4,19.5h-1.1s1.1,0,1.1,0h0s0,0,0,0ZM25.3,19.5h0s0,0,0,0c0,0,0,0,0,0h0v-.8h1.1s0,.8,0,.8c0,0,0,0,0,0s0,0,0,0h0s-1.1,0-1.1,0h0ZM26.8,19.4s0,0,0,0,0,0,0,0h-.4s0,0,0,0,0,0,0,0h.4ZM26.5,20.4h0c0,.1-.1.1-.1.1v-.7h.3v.6h-.2s0,0,0,0c0,0,0,0,0,0ZM27,20.5h-.4c0,0,.4,0,.4,0h0c0,0,0,0,0,0ZM27,20.4h0s-.4,0-.4,0h0s.5,0,.5,0ZM27.8,24.1s0,0,0,0c0,0,0,0,0,0h0c0-.1,0-.1,0-.1h0s0,0,0,0h0v-.2h0s0,0,0,0h0c0-.1,0-.1,0-.1,0,0,0,0,0,0h-.7v-1.7h3.8v3h-3.1v-.8h0ZM27.8,24h-.2s0,0,0,0,0,0,0,0h.2s0,0,0,0h0s0,0,0,0c0,0,0,0,0,0h0ZM27.8,25h-.3s0,0,0,0h0s0,0,0,0h0v-.9h.2v.9h0s0,0,0,0,0,0,0,0ZM26.9,23.9h-2.1v-.4h2.1v.4ZM27,23.4h0c0,.1-.1.1-.1.1h0c0,0,0,0,0,0,0,0,0,0,0,0h-2.2s0,0,0,0c0,0,0,0,0,0h0c0,0,0,0,0,0h0c0-.1,2.4-.1,2.4-.1ZM25.2,23.3h-.5v-2.5h.5v2.5ZM26.4,23.3h-1.2v-2.5h1.2v2.5h0ZM27,20.8h-2.4s2.4,0,2.4,0h0ZM27,23.3h-.6v-2.5h.6v2.5h0ZM26.9,23.5h.8c0,0-.8,0-.8,0h0ZM27.8,23.8h0s-.8,0-.8,0h0s.8,0,.8,0ZM27.7,23.8h-.8v-.2h.8v.2ZM23.9,23.9s0,0,0,0h0s.8,0,.8,0c0,0,0,0,0,0h2.1s0,0,0,0h.9s0,0,0,0h-3.8,0ZM27.2,25h.1c0,0-.1,0-.1,0h0ZM26.8,24s0,0,0,0h.2s0,0,0,0c0,0,0,0,0,0h-.2s0,0,0,0ZM26.9,24.9v-.9h.2v.9h0s0,0,0,0,0,0,0,0h-.3s0,0,0,0h0s0,0,0,0h0ZM26.1,24s0,0,0,0h.2s0,0,0,0,0,0,0,0h-.2s0,0,0,0ZM26.1,24.9v-.9h.2v.9h0s0,0,0,0,0,0,0,0h-.3s0,0,0,0h0s0,0,0,0h0ZM25.4,24s0,0,0,0h.2s0,0,0,0c0,0,0,0,0,0h-.2s0,0,0,0ZM25.4,24.9v-.9h.2v.9h0s0,0,0,0,0,0,0,0h-.3s0,0,0,0h0s0,0,0,0h0ZM27.2,25.1h-2.9c0,0,2.9,0,2.9,0h0ZM24.6,24s0,0,0,0h.2s0,0,0,0c0,0,0,0,0,0h-.2s0,0,0,0ZM24.7,24.9v-.9h.2v.9h0s0,0,0,0,0,0,0,0h-.3s0,0,0,0h0s0,0,0,0h0ZM24.2,25.2h3.2c0,0-3.2,0-3.2,0,0,0,0,0,0,0ZM23.9,25s0,0,0,0h.4c0,0-.6,0-.6,0,0,0,0,0,.2,0h0ZM24,24.9v-.9h.2v.9h0s0,0,0,0,0,0,0,0h-.3s0,0,0,0h0s0,0,0,0h0ZM23.9,24s0,0,0,0h.2s0,0,0,0c0,0,0,0,0,0h-.2s0,0,0,0ZM24,23.6h.7v.2h-.7v-.2ZM24.7,23.8h0s-.8,0-.8,0h0s.8,0,.8,0ZM23.9,23.6h0v.2h0s0,0,0,0h0s0,0,0,0h0s0,0,0,0c0,0,0,0,0,0h0c0,0,0,0,0,.1,0,0,0,0,0,0v.8h-3.1v-3h3.8v1.6h-.7s0,0,0,0c0,0,0,0,0,0h0c0,0,0,0,0,0h0ZM27.5,25.3h0c0,0,0,0,0,0h0ZM27.4,25.1h0c0,0,.4,0,.4,0,0,0,.1,0,.2,0h-.5ZM30.9,21.8h.3s-.3,0-.3,0h0s0,0,0,0ZM31.2,24.8h-.3v-2.8h.3v2.8ZM30.9,21.9h.3c0,.1-.3.1-.3.1h0ZM31.4,21.7h-.2c0,.1-4.2.1-4.2.1h0c0-.1,4.3-.1,4.3-.1h0ZM36.9,22.5h-1.1l-1-.4-.9.4h-1.2l-.9.2h0c0,.1,0,.1,0,.1h0c0,.1-.5.1-.5.1v-1.1s0,0,0,0h.2c0-.1,0-.1,0-.1h0c0,0-1.5-.3-1.5-.3h-2.9v-.6h.1c0,0,0,0,0,0,0,0,0,0,0,0h0c0,0,0,0,0,0,0,0,0,0,0,0h-.2c0,0,0-.1,0-.1,0,0,0,0,0,0,0,0,0,0,0,0h-.3v-.6h0s0,0,0,0h0c0,0,0,0,0,0h.1c0,0,0,0,0,0h0c0,0,0,0,0,0,0,0,0,0,0,0h-.5c0,0,.4,0,.4,0,0,0,0,0,0,0s0,0,0,0h-.4v-.9s0,0,0-.1h0s0,0,0,0h0c0,0,0,0,0,0,0,0,0,0,0,0h-.1c0,0,0,0,0,0,0,0,0,0,0,0,0,0,0,0,0,0h0s0,0,0,0v-.2s0,0,0,0h0s0,0,0,0v.2h0v-.2h0s0,0,0,0v.2s0,0,0,0h0s0,0,0,0c0,0,0,0,0,0,0,0,0,0,0,0h0v-.2c.1,0,.1,0,.1,0h0s0,0,0,0h-.1c0-.1,0-.2,0-.2h0c0,0,0,0,0,0h0s0,0,0,0h0c0,0,0-.1,0-.1,0,0,0,0,0,0,0,0,0,0,0,0h-.1v-1.6c.1,0,.2-.2.2-.3,0,0,0,0,0,0h0c0,.2-.1.3-.3.3s-.3-.1-.3-.3c0,0,0,0,0,0,0,.1,0,.3.2.4,0,0,0,0,0,0v1.6h-.2s0,0,0,0,0,0,0,0h0s0,.1,0,.1c0,0,0,0,0,0h0s0,0,0,0h0s0,0,0,0h0s-.1.2-.1.2c0,0,0,0,0,0h0s0,0,0,0v.2c.1,0,0,0,0,0,0,0,0,0,0,0,0,0,0,0,0,0h0s0,0,0,0v-.2s0,0,0,0h0s0,0,0,0v.2h0v-.2h0s0,0,0,0v.2s0,0,0,0h0s0,0,0,0c0,0,0,0,0,0,0,0,0,0,0,0h0c0,0-.1,0-.1,0,0,0,0,0,0,0,0,0,0,0,0,0h0c0,.1,0,.2,0,.2v.8h-.4s0,0,0,0,0,0,0,0h.4c0,0-.5,0-.5,0,0,0,0,0,0,0h0c0,0,0,0,0,0h.1v.2s0,0,0,0h0v.6h-.3s0,0,0,0c0,0,0,0,0,0h0c0,.1-.2.1-.2.1,0,0,0,0,0,0,0,0,0,0,0,0h0c0,0,0,0,0,0h.1v.7h-2.9l-1.5.2h0c0,0,0,0,0,0,0,0,0,0,0,0h.2c0,.1,0,.1,0,.1v1.1h-.5c0-.1,0-.1,0-.1h0c0-.1-.9-.3-.9-.3h-1.2l-.9-.4-1,.4h-1.1l-.8.2h0c0,.1,0,.1,0,.1h0c0,0,0,.1,0,.1h0v1.9h0s0,0,0,0c0,0,0,0,0,0v.4s0,0,0,0h5.9s0,0,0,0v-.2c.1,0,.1,0,.1,0,0,0,0,0,0,0,0,0,0,0,0,0v-.2c-.1,0-.1,0-.1,0,0,0,0-.1,0-.2,0,0,.2,0,.2,0,0,0,0,.1,0,.2,0,0,0,0,0,0h0c0,.1,0,.2,0,.2h0s0,.2,0,.2c0,0,0,0,0,0h1.9s0,0,0,0c0,0,0,.2.2.2s.2,0,.2-.2h0c.4-.2.7-.2,1.1-.2h0c-.2,0-.4.2-.5.2,0,0,0,0,0,0,0,0,0,.1.2.1,0,0,0,0,0,0h5s0,0,0,0c0,0,.2,0,.2-.1s0,0,0,0c-.1,0-.3-.2-.5-.2h0c.4,0,.7,0,1.1.2h0c0,0,0,.2.2.2s.2,0,.2-.2c0,0,0,0,0,0h1.9s0,0,0,0v-.2c0,0,0,0,0,0h0c0-.1,0-.2,0-.2,0,0,0-.1,0-.2,0,0,.2,0,.2,0,0,0,0,0,0,.2h0s-.1.2-.1.2h0s0,0,0,0h0s.1.2.1.2c0,0,0,0,0,0h5.9s0,0,0,0v-.4s0,0,0,0c0,0,0,0,0,0h0v-1.9h0s0,0,0,0h0c0,0,0,0,0,0h0c0-.1-.8-.3-.8-.3h0ZM37,24.2h.2v-.3h-.2v.3h0ZM37,23.7h.2v-.3h-.2v.3h0ZM37,23.3h.2v-.3h-.2v.3h0ZM36,23.7h.2v-.3h-.2v.3h0ZM33.6,23.7h.2v-.3h-.2v.3ZM35.7,23.7h.2v-.3h-.2v.3ZM35.7,23.3h.2v-.3h-.2v.3ZM36,24.7h.2v-.3h-.2v.3ZM36,24.2h.2v-.3h-.2v.3ZM36.3,23.7h.2v-.3h-.2v.3ZM36,23.3h.2v-.3h-.2v.3ZM36.3,24.7h.2v-.3h-.2v.3ZM36.3,24.2h.2v-.3h-.2v.3ZM34.4,24.7h.2v-.3h-.2v.3h0ZM14.5,23.7h.2v-.3h-.2v.3h0ZM14.8,24.7h.2v-.3h-.2v.3ZM14.8,24.2h.2v-.3h-.2v.3ZM14.5,23.3h.2v-.3h-.2v.3h0ZM14.5,24.2h.2v-.3h-.2v.3h0ZM20,23.4h.2v-.3h-.2v.3ZM14.5,24.7h.2v-.3h-.2v.3h0ZM20,24.3h.2v-.3h-.2v.3ZM20,23.8h.2v-.3h-.2v.3ZM14.8,23.7h.2v-.3h-.2v.3ZM15.5,24.7h.2v-.3h-.2v.3ZM15.5,24.2h.2v-.3h-.2v.3ZM15.5,23.7h.2v-.3h-.2v.3ZM31.5,24.3h.2v-.3h-.2v.3ZM15.1,23.3h.2v-.3h-.2v.3h0ZM15.1,23.7h.2v-.3h-.2v.3h0ZM14.8,23.3h.2v-.3h-.2v.3ZM15.1,24.7h.2v-.3h-.2v.3h0ZM15.1,24.2h.2v-.3h-.2v.3h0ZM33.6,24.7h.2v-.3h-.2v.3ZM33,23.3h.2v-.3h-.2v.3h0ZM33,24.2h.2v-.3h-.2v.3h0ZM33,23.7h.2v-.3h-.2v.3h0ZM29,23.3h.2v-.3h-.2v.3ZM33.6,24.2h.2v-.3h-.2v.3h0ZM33.3,24.2h.2v-.3h-.2v.3h0ZM33,24.7h.2v-.3h-.2v.3h0ZM31.5,23.8h.2v-.3h-.2v.3ZM33.3,23.7h.2v-.3h-.2v.3ZM33.3,23.3h.2v-.3h-.2v.3ZM32.3,24.2h.2v-.3h-.2v.3ZM32.3,23.7h.2v-.3h-.2v.3ZM32.3,24.7h.2v-.3h-.2v.3ZM31.5,23.4h.2v-.3h-.2v.3h0ZM32.6,24.7h.2v-.3h-.2v.3ZM32.6,23.7h.2v-.3h-.2v.3ZM32.3,23.3h.2v-.3h-.2v.3ZM32.6,23.3h.2v-.3h-.2v.3ZM32.6,24.2h.2v-.3h-.2v.3ZM24.3,23.3h.2v-.3h-.2v.3ZM25.3,22.2h.3v-.3h-.3v.3ZM25.3,21.7h.3v-.3h-.3v.3ZM25.3,21.2h.3v-.3h-.3v.3h0ZM25.7,23.2h.3v-.3h-.3v.3h0ZM22.1,24.7h.2v-.3h-.2v.3ZM25.3,23.2h.3v-.3h-.3v.3h0ZM25.3,22.7h.3v-.3h-.3v.3h0ZM22.1,24.2h.2v-.3h-.2v.3ZM26.1,22.7h.3v-.3h-.3v.3ZM25.7,22.7h.3v-.3h-.3v.3ZM26.1,22.2h.3v-.3h-.3v.3h0ZM26.1,23.2h.3v-.3h-.3v.3ZM25.7,22.2h.3v-.3h-.3v.3h0ZM25.7,21.2h.3v-.3h-.3v.3ZM25.7,21.7h.3v-.3h-.3v.3ZM24.8,21.2h.3v-.3h-.3v.3h0ZM21.8,21.9c0,0-.1,0-.1.1v.3h.2v-.3c0,0,0-.1-.1-.1ZM24.8,23.2h.3v-.3h-.3v.3ZM24.8,22.2h.3v-.3h-.3v.3h0ZM21.3,24.2h.2v-.3h-.2v.3ZM21.3,23.3h.2v-.3h-.2v.3ZM24.8,21.7h.3v-.3h-.3v.3h0ZM21.3,23.8h.2v-.3h-.2v.3ZM24.8,22.7h.3v-.3h-.3v.3ZM22.8,23.8h.2v-.3h-.2v.3ZM21.7,23.8h.2v-.3h-.2v.3ZM21.7,22.8h.2v-.3h-.2v.3h0ZM26.1,21.7h.3v-.3h-.3v.3ZM21.7,24.2h.2v-.3h-.2v.3ZM21.3,22.8h.2v-.3h-.2v.3h0ZM21.7,24.7h.2v-.3h-.2v.3ZM21.4,21.9c0,0-.1,0-.1.1v.3h.2v-.3c0,0,0-.1-.1-.1ZM23.2,24.2h.2v-.3h-.2v.3ZM23.3,21.9c0,0-.1,0-.1.1v.3h.2v-.3c0,0,0-.1-.1-.1ZM23.5,23.8h.2v-.3h-.2v.3ZM23.5,24.7h.2v-.3h-.2v.3ZM23.5,24.2h.2v-.3h-.2v.3ZM23.6,21.9c0,0-.1,0-.1.1v.3h.2v-.3c0,0,0-.1-.1-.1ZM23.5,23.3h.2v-.3h-.2v.3ZM23.5,22.8h.2v-.3h-.2v.3h0ZM22.8,23.3h.2v-.3h-.2v.3ZM22.8,22.8h.2v-.3h-.2v.3h0ZM22.8,24.2h.2v-.3h-.2v.3ZM22.9,21.9c0,0-.1,0-.1.1v.3h.2v-.3c0,0,0-.1-.1-.1ZM23.2,23.8h.2v-.3h-.2v.3ZM23.2,23.3h.2v-.3h-.2v.3ZM21.3,24.7h.2v-.3h-.2v.3ZM23.2,22.8h.2v-.3h-.2v.3h0ZM23.2,24.7h.2v-.3h-.2v.3ZM22.2,21.9c0,0-.1,0-.1.1,0,0,0,0,0,0v.3h.2v-.3c0,0,0-.1-.1-.1ZM26.6,21.7h.3v-.3h-.3v.3h0ZM22.1,22.8h.2v-.3h-.2v.3h0ZM26.6,22.7h.3v-.3h-.3v.3ZM26.6,22.2h.3v-.3h-.3v.3h0ZM22.1,23.8h.2v-.3h-.2v.3ZM26.6,23.2h.3v-.3h-.3v.3ZM22.1,23.3h.2v-.3h-.2v.3h0ZM22.4,23.3h.2v-.3h-.2v.3h0ZM22.4,22.8h.2v-.3h-.2v.3h0ZM22.8,24.7h.2v-.3h-.2v.3ZM22.5,21.9c0,0-.1,0-.1.1v.3h.2v-.3c0,0,0-.1-.1-.1ZM22.4,24.2h.2v-.3h-.2v.3ZM26.1,21.2h.3v-.3h-.3v.3ZM26.6,21.2h.3v-.3h-.3v.3ZM22.4,23.8h.2v-.3h-.2v.3ZM22.4,24.7h.2v-.3h-.2v.3ZM21.7,23.3h.2v-.3h-.2v.3ZM25.2,19.1s0,0,0,0h0s0,0,0,0v.2h0,0s0,0,0,0v-.2ZM24.9,23.5h1.8v.2h-1.8v-.2ZM24.9,23.8h1.9s0,0,0,0v-.3s0,0,0,0c0,0,0,0,0,0h-1.9s0,0,0,0c0,0,0,0,0,0v.3s0,0,0,0h0ZM25,19.3v-.2h0s0,0,0,0v.2s0,0,0,0h0s0,0,0,0ZM28.4,21.9c0,0-.1,0-.1.1,0,0,0,0,0,0v.3h.2v-.3c0,0,0-.1-.1-.1ZM28.3,22.8h.2v-.3h-.2v.3h0ZM28.7,24.2h.2v-.3h-.2v.3ZM27.9,24.2h.2v-.3h-.2v.3ZM27.7,21.9c0,0-.1,0-.1.1v.3h.2v-.3c0,0,0-.1-.1-.1ZM28.7,24.7h.2v-.3h-.2v.3ZM27.9,24.7h.2v-.3h-.2v.3ZM27.2,23.3h.2v-.3h-.2v.3ZM28.3,24.2h.2v-.3h-.2v.3ZM28.3,24.7h.2v-.3h-.2v.3ZM27.2,22.8h.2v-.3h-.2v.3h0ZM27.3,21.9c0,0-.1,0-.1.1v.3h.2v-.3c0,0,0-.1-.1-.1ZM28.3,23.3h.2v-.3h-.2v.3ZM26.8,19.1s0,0,0,0h0s0,0,0,0v.2h0,0s0,0,0,0c0,0,0-.2,0-.2ZM26.6,19.3v-.2h0s0,0,0,0v.2s0,0,0,0h0s0,0,0,0ZM25.9,15.5h0c0-.1,0,0,0,0h-.1.1c0,0,0,.2,0,.2h.1c0,0,.1,0,.1,0h0c0-.1.1-.2.1-.2h-.2ZM28.3,23.8h.2v-.3h-.2v.3ZM27.6,22.8h.2v-.3h-.2v.3h0ZM27.9,22.8h.2v-.3h-.2v.3h0ZM21,24.7h.2v-.3h-.2v.3ZM24.1,22c0,0,0-.1-.1-.1,0,0-.1,0-.1.1h0v.3h.2v-.3ZM23.9,23.3h.2v-.3h-.2v.3ZM21,24.2h.2v-.3h-.2v.3ZM23.9,22.8h.2v-.3h-.2v.3h0ZM21,23.8h.2v-.3h-.2v.3ZM29,24.2h.2v-.3h-.2v.3ZM28.7,23.8h.2v-.3h-.2v.3ZM29,24.7h.2v-.3h-.2v.3ZM21,23.3h.2v-.3h-.2v.3ZM21,22.8h.2v-.3h-.2v.3h0ZM28.7,22.8h.2v-.3h-.2v.3h0ZM28.8,21.9c0,0-.1,0-.1.1v.3h.2v-.3c0,0,0-.1-.1-.1ZM28,21.9c0,0-.1,0-.1.1v.3h.2v-.3c0,0,0-.1-.1-.1ZM27.9,23.8h.2v-.3h-.2v.3ZM28.7,23.3h.2v-.3h-.2v.3ZM24.3,22.8h.2v-.3h-.2v.3h0ZM27.6,23.3h.2v-.3h-.2v.3ZM24.5,22c0,0,0-.1-.1-.1,0,0-.1,0-.1.1h0v.3h.2v-.3ZM27.9,23.3h.2v-.3h-.2v.3ZM21.1,21.9c0,0-.1,0-.1.1v.3h.2v-.3c0,0,0-.1-.1-.1ZM29,23.8h.2v-.3h-.2v.3ZM24.1,26.8v-.9s-.1,0-.1,0c0,0-.1.1-.2.1,0,0,0,0,0,0h0c0,0,.3,0,.3,0v.6s.1,0,.1,0ZM26.5,26.4c0,0-.2,0-.3.1-.1,0-.2.2-.2.3h.8,0c0,0-.6,0-.6,0h0c0,0,0-.1.2-.1.1,0,.2,0,.4-.2,0,0,.2-.1.1-.2,0,0,0-.2-.2-.2,0,0-.2,0-.3,0-.2,0-.3.1-.3.3h.2c0-.2.1-.2.3-.2,0,0,.2,0,.2.1,0,0,0,.1,0,.2ZM27.4,26.6c0-.1,0-.3,0-.4,0-.1.1-.1.2-.1.1,0,.2,0,.2.2,0,0,0,0,0,.1,0,.2,0,.3-.2.3-.1,0-.2,0-.3-.1h0ZM28,26.4c0-.2-.1-.4-.4-.4-.2,0-.4.2-.4.4,0,.3.1.4.4.4.3,0,.4-.2.4-.4h0ZM25.2,26.5c-.1,0-.2,0-.2-.2,0-.1,0-.2.2-.2.1,0,.2,0,.2.2s-.1.2-.2.2h0ZM25,26.7c0,0-.1,0-.2,0,0,0,0,0,0,0,0,.2.5.2.6,0,.2-.1.2-.5,0-.6-.1-.1-.4-.2-.6,0,0,0-.1.1-.1.3,0,0,0,.2.2.2.2,0,.3,0,.5,0h0c0,0,0,.2-.1.2,0,.1-.3.1-.3,0ZM16.2,22s.1,0,.2,0c.2,0,.4,0,.5-.2,0,0,0,0,0,0,0,0,0,0,.1,0,.1,0,.2.1.4.2,0,0,0,0,.1,0,0-.2,0-.4,0-.6h-.8c0-1,.1-2.1.4-3.1l.8.3s0,0,0,0c0-.2.1-.4.2-.7.2-.3.3-.6.5-1,.2-.4.4-.7.7-1l-.3-.3-.3-.3c.7-.8,1.5-1.5,2.4-2,0,0,0,.2.1.2,0,.1.2.3.2.4,0,0,0,0,.1,0,0,0,.1,0,.2-.1.2,0,.3-.1.5-.2.3-.1.6-.2.8-.4.2,0,.4-.2.6-.2.1,0,.3,0,.5,0,0,0,.1,0,0,0,0-.2,0-.5,0-.7,0,0,0,0,0,0,.3,0,.6,0,1-.1.4,0,.8,0,1.2,0,.3,0,.6,0,1,0l-.2.9c1,.1,1.9.5,2.8,1,0-.1.1-.3.2-.4,0-.1.1-.2.2-.4.9.5,1.7,1.2,2.4,1.9-.1.1-.3.2-.4.4,0,0-.2.2-.3.2,0,0,0,0,0,.1,0,0,0,0,0,0,.1.2.3.3.4.5.2.3.4.7.6,1,.1.3.3.6.4.9,0,0,0,.1.1,0,.2,0,.4-.1.7-.2,0,0,.1,0,.2,0,.3.8.6,2.6.5,3.1h-.8c0,0,0,0-.1.1,0,.2,0,.3,0,.5,0,0,0,0,0,0,0,0,0,0,0,0,.1,0,.3-.1.4-.2,0,0,.1,0,.2,0,.1,0,.3.2.5.1,0,0,0,0,.1,0,0,0,0,0,0,0,0,0,0-.2,0-.2,0-.6,0-1.1,0-1.7,0-.7-.2-1.4-.5-2,0-.2-.1-.4-.2-.6-.3.1-.5.2-.8.4,0,0-.1,0-.1,0,0-.2-.2-.4-.3-.6-.1-.2-.3-.5-.4-.7-.1-.2-.2-.4-.3-.5l.8-.6c-.3-.3-.5-.6-.8-.9-.7-.8-1.6-1.4-2.5-1.9,0,0,0,0-.1,0,0,.2-.2.3-.3.5,0,0-.1.1-.2,0-.1,0-.2-.1-.4-.2-.2,0-.4-.2-.6-.2-.2,0-.5-.1-.7-.2,0,0,0,0,0,0,0-.1,0-.2,0-.3,0-.1,0-.3.1-.4-1.6-.4-3.2-.4-4.7,0l.2.6c0,.2,0,.2-.1.2-.2,0-.5.1-.7.2-.3,0-.5.2-.8.3-.2,0-.2,0-.3,0,0,0,0,0,0,0l-.2-.5c-1.4.7-2.6,1.8-3.6,3.1l.7.3s.1,0,0,.1c0,.1-.2.2-.2.4-.2.3-.3.5-.5.8,0,.2-.2.4-.3.6,0,0,0,0,0,0-.2,0-.4-.2-.6-.3-.1,0-.1,0-.2,0-.2.5-.4,1-.5,1.6,0,.4-.1.8-.2,1.2,0,.4,0,.9,0,1.3,0,0,0,.2,0,.2h0ZM32.2,28.2c.3.8.6,1.6.9,2.5,0,0,0,0,0,0h-5.7l.2.7h-3.5l.4-.7h-5.9l.4-1.1c.2-.5.4-1,.5-1.5,0,0,0-.1.2-.2,0,0,0,0,.1,0,.1-.1.3-.2.5-.1l-.9,2.5h5.8l-.4.7h2.2l-.4-.7h5.7l-.9-2.5c.1,0,.2,0,.4,0,.2,0,.3.2.4.4h0ZM32.6,28.4c.3.9.7,1.7,1,2.6,0,0,0,0,0,0h-5.8l.4.8h-4.9l.4-.8h-5.8l.2-.4c.3-.8.6-1.6.9-2.4,0,0,0,0,.1-.1.1,0,.2-.1.3-.2l-1,2.8h5.9l-.4.7h3.7l-.2-.7h5.7l-1.1-2.8c.2.1.4.3.5.5h0ZM20.5,27.6c1.6,0,3.2,0,4.8,0,0,0,.1,0,.2,0,0,0,.2.2.3.3,0,0,0,0,.2,0,.1-.1.2-.2.3-.3,0,0,0,0,.1,0,1.6,0,3.3,0,4.9,0,0,0,.1,0,.2.1.3.8.6,1.5.9,2.3h-5.7l.4.7h-1.9l.4-.7h-5.8c0,0,0-.1,0-.2.3-.7.5-1.4.8-2.1,0-.1.1-.1.2-.1ZM32.6,27.8l.3.3c.7-.8,1.4-1.7,1.9-2.7-.2,0-.4,0-.6,0,0,0,0,0,0,0-.2.5-.5.9-.9,1.3-.1.2-.3.3-.4.5l-.5-.4c-.2.2-.4.4-.6.6-.1.2-.4.2-.6.2-.4,0-.8,0-1.1,0s0,0-.1,0c.4-.3.8-.6,1.2-1,.4-.4.7-.8,1-1.2-.2,0-.3,0-.5,0,0,0,0,0,0,0-.3.4-.6.7-1,1.1-.5.4-.9.8-1.5,1,0,0,0,0-.1,0-.8,0-1.7,0-2.5,0,0,0,0,0-.1,0-.1.1-.2.2-.3.3-.1-.1-.2-.2-.3-.3,0,0,0,0-.1,0-.9,0-1.8,0-2.7,0,0,0-.1,0-.2,0-1-.5-1.8-1.2-2.4-2.1,0,0,0,0,0,0-.2,0-.4,0-.6,0,.6.9,1.3,1.6,2.1,2.2,0,0,0,0-.1,0-.4,0-.7,0-1.1,0-.1,0-.3,0-.3-.1-.2-.2-.5-.4-.7-.7l-.5.4s0,0,0,0c0,0,0,0,0,0-.4-.5-.8-1.1-1.1-1.7,0,0,0,0,0,0-.2,0-.4,0-.6,0,.3.7,1.5,2.4,1.9,2.7h0c.1-.2.2-.3.3-.4,0,0,0,0,.1,0,0,0,.1.1.2.2-.2,0-.3.2-.4.2-.1,0-.2,0-.3.1,0,0,0,0-.1,0-.3.8-.6,1.5-.9,2.3l-.3.8h5.7,0c0,0-.4.8-.4.8h6.2l-.5-.8h5.7s0,0,0,0c-.2-.4-.3-.8-.5-1.3-.2-.6-.5-1.2-.7-1.8,0,0,0,0,0,0-.3,0-.5-.3-.7-.4q.2-.2.4,0h0Z"/>
    </g>
  </g>
</svg>