<svg width="128" height="128" fill="none" xmlns="http://www.w3.org/2000/svg"><g filter="url(#a)" fill-rule="evenodd" clip-rule="evenodd" fill="#2B5F76"><path d="M41.23 71.765v-2.67h.41v1.167h1.13v-1.167h.41v2.67h-.41V70.57h-1.13v1.195h-.41ZM44.16 70.789h.975l-.49-1.276-.485 1.276Zm-.733.976 1.053-2.67h.41l1.053 2.67h-.434l-.252-.668h-1.22l-.256.668h-.354ZM46.676 70.345h.216c.22 0 .396-.048.525-.146a.468.468 0 0 0 .193-.394c0-.154-.048-.26-.146-.317-.097-.057-.276-.085-.536-.085h-.252v.942Zm-.41 1.42v-2.67h.747c.31 0 .526.025.647.077.258.107.387.295.387.566 0 .186-.045.34-.134.465-.09.124-.24.24-.45.346l.922 1.216h-.496l-.843-1.112h-.37v1.112h-.41ZM49.158 71.457h.37c.271 0 .458-.028.56-.084.102-.055.152-.157.152-.306 0-.171-.083-.308-.25-.41-.168-.1-.395-.151-.682-.151h-.15v.95Zm0-1.207h.144c.552 0 .828-.154.828-.462 0-.151-.053-.254-.16-.306-.107-.053-.314-.08-.62-.08h-.192v.848Zm-.41 1.515v-2.67h.862c.624 0 .936.207.936.62a.576.576 0 0 1-.16.409.903.903 0 0 1-.452.244c.496.102.743.337.743.706 0 .21-.072.376-.218.495a.73.73 0 0 1-.323.157c-.12.026-.315.039-.582.039h-.806ZM51.204 71.765v-.308h.718v-2.054h-.718v-.308h1.846v.308h-.718v2.054h.718v.308h-1.846ZM53.632 71.765v-2.679h.39l1.223 1.94h.004v-1.94h.335v2.679h-.378l-1.232-1.958h-.006v1.958h-.336ZM58.175 71.765v-.308h.718v-2.054h-.718v-.308h1.846v.308h-.718v2.054h.718v.308h-1.846ZM60.604 71.765v-2.679h.389l1.224 1.94h.004v-1.94h.335v2.679h-.379l-1.232-1.958h-.006v1.958h-.335ZM64.878 69.157v.356a2.262 2.262 0 0 0-.803-.175c-.37 0-.556.125-.556.375 0 .101.035.183.104.244.07.062.198.126.385.19l.263.092.25.086c.386.135.58.366.58.69a.702.702 0 0 1-.297.592c-.197.148-.462.222-.794.222-.23 0-.527-.05-.892-.148v-.405c.363.163.665.245.905.245.203 0 .364-.04.485-.12a.368.368 0 0 0 .18-.321.3.3 0 0 0-.106-.243c-.072-.06-.22-.13-.442-.213l-.275-.1c-.273-.1-.463-.205-.57-.312a.579.579 0 0 1-.159-.426c0-.24.082-.426.245-.558.163-.132.392-.198.688-.198.24 0 .51.043.81.127ZM66.335 71.765v-2.362h-1.026v-.308h2.464v.308h-1.028v2.362h-.41ZM68.098 71.765v-.308h.717v-2.054h-.717v-.308h1.845v.308h-.718v2.054h.718v.308h-1.845ZM71.296 71.765v-2.362H70.27v-.308h2.464v.308h-1.028v2.362h-.41ZM73.017 69.095h.41v1.62c0 .284.044.489.134.616.09.127.234.19.434.19.21 0 .362-.063.456-.19.093-.127.139-.336.139-.626v-1.61h.358v1.55c0 .334-.04.574-.118.72-.168.31-.445.464-.831.464-.334 0-.582-.091-.742-.275-.16-.183-.24-.464-.24-.844v-1.615ZM76.257 71.765v-2.362H75.23v-.308h2.464v.308h-1.028v2.362h-.41ZM78.11 71.765v-2.67h1.803v.308h-1.394v.81H79.7v.307H78.52v.937h1.49v.308h-1.9ZM82.716 70.429c0 .35.062.619.187.808a.6.6 0 0 0 .532.284c.23 0 .407-.095.532-.284.125-.19.187-.459.187-.808 0-.349-.062-.617-.187-.807a.601.601 0 0 0-.532-.284.6.6 0 0 0-.532.284c-.125.19-.187.458-.187.807Zm-.436 0c0-.426.104-.766.313-1.019.209-.253.49-.38.843-.38.352 0 .633.127.842.38.21.253.313.593.313 1.019 0 .427-.104.767-.313 1.02-.209.254-.49.38-.842.38-.353 0-.634-.126-.843-.38-.209-.253-.313-.593-.313-1.02ZM85.145 71.765v-2.67h1.9v.308h-1.49v.92h1.271v.307h-1.271v1.135h-.41ZM90.2 71.765v-2.362h-1.026v-.308h2.464v.308H90.61v2.362h-.41ZM92.052 71.765v-2.67h1.804v.308h-1.394v.81h1.182v.307h-1.182v.937h1.49v.308h-1.9ZM96.487 71.681a2.302 2.302 0 0 1-.777.148c-.424 0-.766-.127-1.026-.382-.259-.254-.388-.589-.388-1.004 0-.42.129-.76.386-1.022.258-.26.596-.39 1.012-.39.236 0 .488.04.757.12v.377a1.853 1.853 0 0 0-.77-.19.868.868 0 0 0-.681.304c-.178.203-.268.46-.268.774 0 .316.101.575.302.776.201.202.46.302.776.302.192 0 .417-.05.677-.15v.337ZM96.872 71.765v-2.67h.41v1.167h1.13v-1.167h.41v2.67h-.41V70.57h-1.13v1.195h-.41ZM99.352 71.765v-2.679h.39l1.223 1.94h.004v-1.94h.335v2.679h-.379l-1.231-1.958h-.007v1.958h-.335ZM102.091 70.429c0 .35.062.619.186.808.124.19.301.284.532.284a.6.6 0 0 0 .532-.284c.125-.19.188-.459.188-.808 0-.349-.063-.617-.188-.807a.6.6 0 0 0-.532-.284.598.598 0 0 0-.532.284c-.124.19-.186.458-.186.807Zm-.437 0c0-.426.104-.766.313-1.019.209-.253.49-.38.843-.38s.633.127.842.38c.209.253.313.593.313 1.019 0 .427-.104.767-.313 1.02-.209.254-.489.38-.842.38s-.634-.126-.843-.38c-.209-.253-.313-.593-.313-1.02ZM104.467 71.765v-2.67h.41v2.362h1.438v.308h-1.848ZM107.052 70.429c0 .35.062.619.186.808.124.19.301.284.531.284a.6.6 0 0 0 .533-.284c.125-.19.188-.459.188-.808 0-.349-.063-.617-.188-.807a.6.6 0 0 0-.533-.284.598.598 0 0 0-.531.284c-.124.19-.186.458-.186.807Zm-.437 0c0-.426.104-.766.313-1.019.209-.253.49-.38.842-.38.353 0 .634.127.843.38.209.253.314.593.314 1.019 0 .427-.105.767-.314 1.02-.209.254-.49.38-.843.38-.352 0-.633-.126-.842-.38-.209-.253-.313-.593-.313-1.02ZM111.282 69.15v.378a1.852 1.852 0 0 0-.77-.19.866.866 0 0 0-.681.304c-.178.203-.268.46-.268.774 0 .315.101.573.302.775.201.202.458.303.77.303.071 0 .161-.008.27-.025v-.705h-.501v-.308h.912v1.24a2.615 2.615 0 0 1-.793.133c-.414 0-.75-.128-1.008-.385-.259-.257-.389-.59-.389-1 0-.421.129-.762.387-1.023.259-.26.595-.39 1.012-.39.236 0 .488.04.757.12ZM112.527 71.765v-1.093l-1.014-1.577h.473l.776 1.232.849-1.232H114l-1.063 1.577v1.093h-.41ZM58.093 63.537c.087 0 .22.144.216.235-.002.093-.14.236-.222.232-.084-.003-.174-.127-.173-.237.002-.117.09-.23.18-.23Zm.087-1.624c.013-.01.08.052.153.103-.074.063-.118.113-.174.14-.014.007-.097-.072-.09-.09a.35.35 0 0 1 .111-.153Zm.295-2.172a.471.471 0 0 0 .104-.3c0-.1.05-.204.102-.293.023-.041.102-.07.156-.07.179-.001.358.012.536.022.053.003.107.006.157.02.148.046.195.164.113.293-.137.214-.334.366-.543.503-.17.112-.339.226-.513.33-.046.029-.126.056-.161.035-.06-.035-.097-.11-.158-.185.073-.128.13-.25.207-.355Zm1.308.856c0 .11.01.22-.003.33a.42.42 0 0 1-.076.186c-.05.07-.126.071-.175 0a.966.966 0 0 0-.342-.324c-.07-.038-.075-.11-.016-.164.108-.099.215-.201.336-.282.112-.076.285.085.276.254Zm-.159 1.49c-.014.025-.08.041-.116.033-.086-.02-.222-.214-.225-.303-.002-.09.142-.3.227-.331.079-.029.167.025.187.127.012.062.002.129.002.194l.037.013c-.036.09-.065.183-.112.267Zm-.012 1.643c-.006.01-.092-.008-.123-.034-.07-.06-.083-.14-.037-.222a.48.48 0 0 0-.012-.511c-.016-.028-.034-.062-.031-.091.003-.036.018-.087.045-.102.024-.014.09-.002.104.02.047.075.08.158.119.238l-.03.015c.016.161.042.322.044.484 0 .068-.042.14-.079.203Zm-1.175-2.532c.138-.137.328-.154.423-.045a.158.158 0 0 1 .036.119c-.024.115-.21.248-.323.25-.114.006-.21-.037-.23-.134-.011-.056.045-.141.094-.19Zm.501 1.72c-.07.144-.156.22-.225.216-.213-.041-.385-.07-.554-.112-.037-.009-.085-.061-.088-.098-.003-.035.037-.084.07-.11a.155.155 0 0 1 .115-.03c.155.035.28-.025.4-.11.071-.05.144-.091.22-.018.073.07.117.15.062.262Zm-1.676-.527c-.039.01-.108-.037-.142-.077a.355.355 0 0 1-.091-.19c-.002-.04.069-.115.113-.119.049-.005.116.042.153.085.031.035.03.098.049.174-.022.038-.043.116-.082.127Zm-.123.784c-.075.003-.244-.15-.21-.204a.598.598 0 0 1 .219-.205c.065-.034.17.093.17.185s-.102.22-.18.224Zm-.467.6c-.05.1-.133.167-.262.164-.083-.002-.166.027-.285.049-.023-.022-.081-.053-.099-.1-.01-.024.043-.09.082-.112.122-.07.248-.137.379-.188.044-.017.124-.002.156.03.032.033.05.117.03.157Zm-.646.912a.33.33 0 0 1-.15-.164c-.027-.063.104-.19.201-.21.046.059.107.113.133.18.024.06-.127.22-.184.194Zm-1.95-4.926c.073.089.194.141.3.199.056.03.13.028.187.057.263.131.498.073.718-.098.097-.075.19-.157.292-.222.035-.022.112-.023.14.001.037.03.057.096.06.147.001.04-.034.082-.054.122-.151.317-.45.489-.702.706-.129.112-.28.198-.409.31-.12.103-.113.177-.005.29.18.19.599.233.818.086.224-.149.443-.31.68-.437.236-.128.468-.253.676-.431.253-.217.36-.783.032-1.06-.23-.194-.207-.33.044-.502l.072-.047c.096-.06.192-.057.267.029.161.184.251.41.244.648-.01.35-.057.699-.094 1.048a.355.355 0 0 1-.054.16c-.16.23-.337.442-.616.538-.066.023-.124.063-.19.086-.197.07-.36.224-.59.22-.071-.002-.147.044-.215.08-.13.069-.164.173-.087.298.174.282.382.514.765.455.04-.007.107.029.13.065.017.027-.002.098-.028.129-.126.149-.197.174-.36.115a.44.44 0 0 0-.249-.002c-.112.03-.126.119-.047.206.045.048.099.087.138.138.064.083.04.181-.05.245-.088.063-.132-.003-.18-.062-.09-.115-.175-.237-.277-.343-.047-.05-.153-.114-.186-.095-.067.04-.147.135-.144.203.011.245-.092.453-.165.672-.03.089-.055.179-.081.268-.043.143-.082.286-.127.428-.044.137-.136.265-.051.42.016.03.01.071.016.108.069.438.22.817.705.94.06.014.138.006.193-.022.184-.091.226-.286.279-.457.063-.203.196-.31.382-.379.115-.042.223-.1.34-.135a.337.337 0 0 1 .208 0c.244.102.406.265.351.559 0 .065-.004.131 0 .196.017.215.263.39.426.287.157-.1.306-.218.436-.351.154-.157.205-.348.096-.56-.047-.092-.08-.19-.122-.282-.036-.078-.06-.151 0-.23.065-.085.141-.118.253-.112a.479.479 0 0 0 .262-.065c.203-.126.207-.142.37.022.17.17.347.206.566.105.045-.02.14-.003.172.033.04.047.071.138.054.195-.045.15-.189.296-.4.212-.064-.026-.13-.048-.19-.08-.123-.066-.239-.143-.362-.207-.08-.042-.167-.047-.233.034s-.01.145.035.209c.03.043.066.083.096.126.138.198.294.386.408.596.199.365.374.742.639 1.068.153.189.356.291.58.248.382-.073.664-.493.497-.843-.023-.05-.025-.111-.028-.168a84.908 84.908 0 0 1-.101-1.893c-.002-.033.008-.065.009-.098.004-.232.013-.464.007-.696-.006-.199-.037-.397-.045-.596-.008-.198-.003-.396-.002-.594 0-.037.004-.074.01-.11.036-.183.085-.365.108-.55a1.83 1.83 0 0 1 .31-.852c.16-.23.141-.648-.033-.867-.117-.146-.252-.278-.379-.416-.174-.19-.171-.245-.03-.456a.442.442 0 0 0 .085-.268c-.03-.257-.423-.572-.684-.592-.383-.028-.759.022-1.134.08-.21.032-.297.216-.198.404a.531.531 0 0 1 .042.114.2.2 0 0 1-.073.219c-.07.057-.14.059-.215.012-.08-.05-.166-.091-.238-.15-.213-.178-.205-.353.04-.478.201-.102.357-.256.535-.382.321-.228.665-.424 1.007-.621.13-.075.2-.034.282.095.126.196.208.213.377.1a4.46 4.46 0 0 1 1.146-.572c.292-.092.419-.32.354-.56a1.993 1.993 0 0 0-.124-.319.39.39 0 0 0-.293-.221c-.437-.076-.836.054-1.22.248-.098.05-.185.12-.282.171-.168.09-.347.164-.509.265-.192.121-.37.266-.557.396-.29.203-.578.413-.914.541-.056.022-.108.056-.16.088-.235.146-.469.295-.705.44-.04.024-.093.03-.138.048-.142.058-.286.112-.423.178-.099.048-.185.122-.284.17-.183.088-.383.148-.555.253-.306.189-.655.219-.99.292-.203.045-.415.07-.63.012-.168-.045-.275.08-.367.197-.084.104-.077.22-.004.331.113.175.213.36.344.52Zm14.042 2.819c.036-.073.066-.151.113-.217.13-.18.258-.222.463-.142.165.064.31.04.45-.06.06-.042.12-.083.182-.123.155-.098.342-.012.31.164-.047.27.045.542-.055.814-.048.133.013.304.017.458.003.103-.01.206-.012.31-.001.078-.001.157.004.235.004.044.028.088.027.131-.005.2.096.349.226.486.064.068.129.139.175.219.106.186.005.343-.212.347-.08-.017-.162-.027-.239-.052-.135-.045-.194-.184-.17-.321a.598.598 0 0 0-.024-.244.358.358 0 0 0-.086-.133c-.112-.132-.137-.266-.017-.406.094-.11.068-.21-.025-.302-.15-.145-.154-.302-.06-.478.044-.082.072-.173.112-.258a.25.25 0 0 0-.025-.266c-.13-.196-.228-.238-.415-.088-.114.091-.24.17-.365.244-.098.059-.204.096-.305.002-.097-.09-.131-.196-.07-.32Zm.42 1.73c-.081.06-.148.043-.214-.028-.07-.075-.106-.143-.077-.26.03-.121.002-.256 0-.385 0-.043-.014-.101.007-.129.042-.052.122-.131.156-.119.068.025.115.105.172.162l-.026.025c0 .008.002.018-.002.024-.105.173-.037.313.072.456.068.088.03.168-.087.254Zm-.187.886c-.082.027-.159-.047-.14-.152 0-.097-.015-.198.005-.291a.268.268 0 0 1 .118-.166c.035-.019.122.024.162.063.156.155.067.475-.145.546Zm-3.405 1.322c.144.256.28.28.467.06.137-.164.279-.335.28-.57v-.527h-.008c0-.143-.015-.288.003-.429.04-.32.094-.638.148-.955a.423.423 0 0 1 .07-.155c.075-.114.135-.126.256-.062.291.153.488.13.688-.073.26-.264.52-.53.786-.79.04-.038.142-.082.16-.065.056.054.13.146.118.205-.06.267-.104.553-.236.786-.15.267-.182.533-.191.82-.008.269.133.425.355.535.065.032.131.066.19.108.074.053.09.126.01.182a1.716 1.716 0 0 1-.284.162c-.152.068-.215.154-.154.266.076.139.161.276.264.395.048.056.158.11.222.094a.9.9 0 0 0 .557-.393c.103-.161.193-.332.307-.485.201-.27.348-.278.571-.03.264.294.53.589.772.9.16.207.347.375.56.522.125.085.25.098.349.006.14-.131.262-.286.374-.443a.49.49 0 0 0 .069-.43c-.046-.178-.161-.31-.233-.467-.129-.281-.348-.432-.627-.526-.203-.067-.282-.194-.282-.407 0-.171-.001-.344-.01-.515-.01-.166-.042-.331-.043-.497-.001-.243.042-.49.018-.729-.02-.194 0-.377.015-.568.017-.234.096-.444.162-.662a.877.877 0 0 0-.07-.701c-.116-.21-.37-.232-.537-.047-.198.22-.44.374-.699.508-.047.024-.097.065-.144.062-.066-.005-.147-.027-.189-.073-.024-.026.002-.123.033-.17.054-.08.123-.152.196-.217.196-.173.396-.34.596-.51.075-.063.148-.128.229-.184.23-.16.47-.31.698-.475.185-.134.349-.408.168-.714-.031-.052-.047-.114-.077-.167-.073-.13-.145-.262-.229-.386-.056-.082-.132-.068-.197.002a.475.475 0 0 0-.068.1c-.106.207-.23.407-.311.623-.116.306-.358.5-.573.72-.055.056-.122.108-.206.05-.089-.062-.144-.151-.094-.253.055-.11.118-.235.212-.304.233-.17.374-.394.481-.65.059-.137-.055-.202-.125-.278-.061-.067-.144-.055-.21.003-.083.073-.156.157-.242.225a1.819 1.819 0 0 1-.33.222c-.123.058-.26.09-.393.125a2.29 2.29 0 0 1-.273.052c-.098.014-.198.01-.292.034-.245.063-.387-.029-.41-.284-.011-.133-.079-.223-.178-.306-.112-.092-.213-.199-.316-.302-.054-.054-.095-.141-.189-.098-.088.04-.105.12-.098.217.018.272-.01.532-.165.774-.088.138-.141.3-.204.455a.298.298 0 0 0 .053.312c.091.11.19.213.29.315.13.13.135.179.061.347a.304.304 0 0 0-.02.198c.035.108.088.212.151.306.168.248.452.294.675.092.179-.163.352-.337.45-.573.049-.117.043-.2-.052-.282-.098-.085-.186-.05-.28.006a5.145 5.145 0 0 1-.33.185c-.104.052-.255.008-.31-.088-.061-.108.006-.178.082-.24.153-.128.318-.241.419-.424.044-.08.125-.083.215-.043.14.062.283.12.431.157.165.041.259.157.233.325-.006.04-.004.081-.008.122a1.343 1.343 0 0 1-.394.848c-.12.12-.24.244-.355.37-.058.063-.098.143-.159.202-.288.281-.578.56-.873.835-.104.096-.226.174-.336.265-.091.075-.164.041-.237-.028-.075-.071-.085-.142-.04-.24.086-.19.154-.386.229-.58.016-.04.03-.084.046-.125.088-.215.178-.428.264-.644.014-.036.026-.087.011-.119-.023-.052-.06-.111-.107-.135-.027-.014-.099.026-.129.061-.053.06-.1.13-.131.204-.11.253-.225.505-.317.765-.133.373-.244.753-.37 1.129a5.904 5.904 0 0 1-.212.556c-.018.04-.113.084-.153.07-.082-.029-.106-.11-.093-.203.042-.323.17-.62.282-.92.036-.095.047-.199.086-.292.056-.135.124-.266.193-.396.12-.229.093-.454-.025-.67a5.15 5.15 0 0 0-.32-.506c-.114-.16-.109-.32-.035-.486.166-.372.354-.728.699-.972.07-.05.13-.112.192-.171.172-.164.2-.317.103-.529-.017-.037-.038-.073-.047-.113-.052-.217-.187-.378-.353-.516-.2-.167-.404-.328-.607-.49-.176-.141-.282-.112-.366.098-.126.319-.1.639.002.954.058.182.146.354.219.532.078.19.061.383.013.576-.052.21-.127.416-.15.63a2.037 2.037 0 0 1-.187.704c-.024.048-.022.11-.027.166-.016.19-.034.38-.042.57a.452.452 0 0 0 .029.213c.118.24.118.494.084.745-.035.265-.105.526-.154.79-.062.329-.189.631-.35.923-.161.29-.212.583-.02.89.205.33.389.671.58 1.008Zm2.794-7.907c.13.103.28.182.422.27a.455.455 0 0 0 .498 0c.159-.092.31-.198.472-.283a2.95 2.95 0 0 0 .894-.75c.112-.135.267-.238.414-.338.11-.076.207-.05.28.045.077.101-.009.162-.066.217-.145.138-.3.264-.443.404-.035.035-.066.124-.046.153.03.044.105.076.162.08.061.003.126-.03.187-.053.273-.096.54-.208.818-.288.229-.066.432-.17.62-.31.205-.152.244-.282.175-.535-.006-.02-.008-.04-.012-.06-.07-.29-.234-.49-.53-.566-.114-.03-.234-.045-.343-.09-.188-.08-.336-.03-.482.096-.213.184-.429.366-.654.535-.164.125-.346.228-.519.342-.112.074-.219.155-.333.226-.136.083-.276.158-.414.236-.266.15-.544.26-.855.262-.06.01-.124.01-.18.033-.225.089-.253.227-.065.374Zm43.982.079a.682.682 0 0 1-.175.185c-.04.03-.117.05-.156.032-.07-.035-.113-.105-.078-.196.057-.152.1-.312.171-.458.096-.199.021-.376-.046-.554-.095-.256-.068-.311.202-.388.114-.032.223-.08.335-.12l.122-.04c.174 0 .285.143.231.28-.104.268-.15.557-.343.792-.111.136-.169.314-.263.467Zm-.54.857c-.159.147-.322.288-.489.425-.061.05-.134.078-.211.012-.078-.068-.119-.147-.09-.25.041-.148.419-.442.615-.445.045.031.125.078.19.14.018.016.008.096-.015.118Zm-.961-.541a4.656 4.656 0 0 0-.069-.259c-.03-.103.048-.237.163-.279.297-.106.338-.167.354-.488a.544.544 0 0 1 .055-.22c.049-.1.141-.108.201-.018.053.078.084.171.126.26-.052.247-.076.491-.158.713-.057.154-.183.289-.3.412-.14.146-.326.078-.372-.121Zm-.397-.697c.009.291-.159.433-.449.379-.126-.024-.261-.022-.378-.068-.211-.081-.233-.25-.055-.392.143-.113.296-.216.451-.31.152-.092.418.08.431.269.003.04 0 .081 0 .122Zm2.29.577c.13-.173.292-.329.388-.518.182-.357.422-.662.712-.93.365-.335.569-.77.763-1.212.099-.226-.138-.444-.314-.4-.224.055-.457.008-.683.106-.17.074-.337.132-.469.268a1.834 1.834 0 0 1-.814.504.347.347 0 0 0-.161.083 2.737 2.737 0 0 0-.267.358c-.072.116-.191.218-.262.182-.214-.11-.355-.37-.121-.577.101-.089.21-.168.319-.247.264-.191.533-.375.795-.57.128-.095.266-.202.256-.381a1.951 1.951 0 0 0-.089-.478c-.049-.159-.156-.301-.193-.46-.045-.194-.163-.318-.307-.426-.034-.026-.122-.027-.151-.001a.55.55 0 0 0-.168.218 4.247 4.247 0 0 0-.164.626c-.046.259-.173.473-.316.682-.155.224-.339.429-.429.695a.696.696 0 0 1-.165.27c-.077.077-.182.16-.282.17-.157.014-.322-.02-.48-.053-.159-.032-.307-.057-.435.073-.07.07-.079.138-.006.212.051.053.1.109.145.166.118.148.129.232.008.372-.154.178-.326.342-.497.506-.035.033-.115.064-.146.046a.223.223 0 0 1-.105-.15c-.01-.077.015-.16.034-.239.04-.162.09-.322.13-.484.031-.129.045-.262.081-.39.042-.149.103-.292.146-.44a.249.249 0 0 0-.004-.156c-.096-.226-.238-.429-.458-.541a7.036 7.036 0 0 0-.777-.322.25.25 0 0 0-.332.3c.017.07.053.137.083.203.173.376.316.76.317 1.183 0 .094.011.188.026.28.051.317.094.63-.028.944a1.472 1.472 0 0 0-.081.367c-.01.082-.016.183.021.25.08.141.029.237-.073.32-.048.038-.138.081-.176.06a.221.221 0 0 1-.093-.175c.02-.202.061-.402.095-.603.022-.123.047-.246.071-.37-.019-.172-.015-.348-.143-.477-.115-.114-.248-.212-.379-.309-.03-.023-.087-.027-.127-.018-.15.032-.279.25-.228.395.069.196.146.389.231.578a.78.78 0 0 1 .058.556c-.08.291-.214.543-.4.776-.065.083-.139.195-.135.29.012.226.169.367.36.475.159.089.272-.01.394-.08.227-.13.336-.365.489-.558.088-.111.133-.258.195-.39.034-.074.046-.166.099-.22.155-.162.323-.312.493-.458.037-.032.117-.057.155-.038.101.049.198.114.281.19.088.079.088.184.01.274-.054.061-.123.107-.178.167-.08.086-.167.17-.224.27-.069.12-.026.233.095.334.142.119.209.13.339.045.116-.076.224-.165.341-.24.12-.077.239-.2.399-.122.115.056.227.131.318.22.128.126.127.24-.009.361a1.14 1.14 0 0 1-.649.283c-.425.04-.853.046-1.266.185-.36.12-.435.38-.165.638.09.086.202.15.306.221.212.147.5.132.722-.006.217-.136.44-.272.679-.361.191-.073.366-.157.519-.288.227-.193.467-.24.73-.08.085.051.16.035.241-.012.211-.119.381-.279.517-.478.167-.246.408-.295.658-.136.121.078.134.186.024.28a4.21 4.21 0 0 1-.366.285c-.279.19-.534.414-.85.553-.275.122-.532.282-.798.423a1.072 1.072 0 0 1-.584.143c-.214-.014-.428-.025-.584.173-.055.072-.07.142 0 .193.099.073.206.15.322.182.118.033.251.015.378.016.125 0 .208.071.265.17.055.096-.027.16-.074.229a.485.485 0 0 1-.095.095c-.075.063-.153.122-.228.185-.09.076-.114.174-.058.275.054.099.014.163-.052.226-.11.105-.252.1-.389.123-.38.065-.757.142-1.136.215-.016.003-.03.013-.046.016-.192.036-.379.098-.579.047-.171-.043-.35.043-.449.205-.083.137-.069.287.053.43.184.217.429.353.684.464.171.074.353.092.532-.008.343-.195.69-.383 1.037-.573.088-.048.183-.086.273-.006.109.097.237.178.204.362-.017.097-.004.201.006.3.014.171.049.34.052.511.004.218-.162.362-.383.356-.094-.002-.189-.013-.282-.002a.85.85 0 0 1-.461-.096.856.856 0 0 0-.197-.065c-.098-.017-.183.021-.225.112-.039.085.011.148.08.197.033.024.063.052.098.074.425.27.773.624 1.082 1.018.204.26.481.292.716.055.221-.222.424-.462.629-.7a.834.834 0 0 0 .191-.605c-.011-.226-.022-.452-.047-.677a15.803 15.803 0 0 0-.126-.894c-.018-.103.003-.184.077-.241.179-.14.388-.195.606-.125.19.062.36.081.536-.04a.554.554 0 0 1 .231-.067.435.435 0 0 0 .336-.222c.055-.099.098-.206.131-.314.06-.193-.051-.38-.23-.474-.216-.111-.408-.028-.583.066-.303.16-.627.25-.951.344-.106.031-.194.023-.265-.066-.073-.091-.04-.185.017-.261.147-.196.295-.391.457-.573.204-.23.342-.46.201-.782-.081-.187.058-.359.264-.395.129-.022.253-.078.377-.123.053-.02.102-.051.154-.075.262-.123.522-.245.719-.472.139-.16.295-.304.446-.452.093-.092.195-.174.285-.268.139-.145.198-.383.12-.507-.231-.367-.543-.472-.93-.275-.231.118-.454.253-.679.381-.099.057-.181.046-.265-.036-.088-.087-.066-.17-.008-.253.086-.124.176-.245.267-.365Zm-43.3-2.498c.234.088.29.247.165.463l-.053.083c-.044.067-.063.134.004.199.064.063.127.045.2.006.346-.19.697-.372 1.043-.563.091-.051.18-.116.25-.193.11-.119.169-.26.096-.426-.127-.29-.361-.466-.634-.6-.04-.02-.098-.015-.144-.004a4.39 4.39 0 0 0-.328.099c-.176.058-.351.119-.453.154-.29-.01-.39.092-.38.302a.541.541 0 0 1-.002.098c-.026.194.046.31.236.382Zm-22 8.004c.014-.049.092-.079.137-.114.055.02.09.033.123.047.098.042.19.079.306.042.046-.014.129.025.166.066.028.03.035.12.01.154-.144.205-.288.414-.458.598-.116.127-.28.05-.306-.126-.014-.093-.048-.186-.044-.277.006-.131.027-.265.066-.39Zm-5.202 1.398a.94.94 0 0 1 .317.004c.239.06.462.006.687-.06.289-.086.577-.175.865-.264.035-.01.072-.019.103-.038.178-.114.359-.225.532-.347.188-.13.358-.29.556-.402.2-.113.368-.254.52-.42a.636.636 0 0 1 .093-.08c.07-.051.133-.045.197.016.112.107.107.236.095.375-.012.146-.004.293-.006.44 0 .044.003.09-.006.133-.065.308.03.572.232.8.072.083.16.153.248.22.183.142.374.12.515-.062.066-.086.114-.187.168-.282.09-.157.173-.167.292-.035.036.04.07.082.109.116.092.08.19.139.322.12.206-.028.413-.052.62-.075a.308.308 0 0 1 .121.01c.48.149.827-.173.956-.54.099-.28-.02-.461-.307-.52a.253.253 0 0 1-.163-.125c-.02-.046.011-.139.05-.181.151-.16.316-.307.472-.462.125-.126.21-.293.155-.455-.09-.265-.209-.521-.463-.688-.157-.103-.298-.115-.454-.016-.11.07-.217.152-.336.202-.267.111-.54.21-.813.307a.443.443 0 0 1-.191.021c-.246-.027-.345.044-.383.288-.022.148-.167.271-.267.214a2.4 2.4 0 0 1-.399-.28c-.106-.094-.097-.192-.005-.303.065-.08.14-.15.2-.232.15-.203.29-.414.445-.614.038-.049.14-.104.176-.085.061.032.096.119.137.185.01.015-.002.04 0 .06.012.137.121.204.243.146.125-.06.245-.13.371-.188.107-.05.217-.118.328-.124.327-.017.558-.187.764-.416.081-.09.083-.182.025-.28a1.04 1.04 0 0 0-.408-.38c-.083-.045-.155-.047-.229.007-.149.11-.302.198-.495.22-.105.014-.197.028-.266-.062-.073-.095-.011-.175.042-.255.161-.24.322-.481.48-.724.072-.112.133-.233.207-.345.047-.07.124-.1.19-.038.09.086.192.177.243.287.192.42.369.849.545 1.277.066.161.095.34.175.493.127.24.31.445.614.403.24-.033.478-.104.71-.182.184-.062.352-.173.536-.238.25-.089.413-.264.556-.475.15-.223.01-.384-.169-.44-.227-.072-.47-.095-.707-.138l-.002.017c-.045-.005-.09-.009-.134-.017-.278-.049-.477-.227-.661-.419a16.458 16.458 0 0 1-.683-.753c-.211-.25-.407-.51-.607-.769a.23.23 0 0 1-.022-.255c.058-.12.133-.237.176-.363.098-.29.27-.517.516-.696.191-.14.285-.328.214-.567a5.848 5.848 0 0 0-.168-.47c-.034-.087-.08-.168-.123-.252-.047-.09-.105-.175-.14-.27a.505.505 0 0 0-.252-.27 1.597 1.597 0 0 1-.25-.162c-.094-.078-.149-.085-.229.008a1.022 1.022 0 0 0-.244.513 3.164 3.164 0 0 1-.1.427c-.078.26-.156.52-.252.773-.15.395-.304.789-.476 1.175-.164.368-.348.727-.532 1.086-.163.32-.34.632-.508.949-.021.039-.029.085-.049.125-.066.13-.118.27-.208.382-.164.203-.38.353-.5.607-.182.384-.526.65-.806.961-.182.202-.4.375-.616.541-.323.248-.65.493-.993.712-.235.15-.493.27-.752.375-.217.089-.451.138-.679.201-.12.034-.254.037-.362.092-.19.097-.264.226-.143.4.06.087.1.188.154.279.063.108.153.161.286.147Zm.312-5.647c.002.379-.002.758-.022 1.136-.013.251-.056.5-.086.747.008.07.004.14.026.198.064.172.124.349.213.507.095.167.214.31.449.304.253-.006.422-.163.605-.292a.874.874 0 0 0 .342-.537c.053-.23.164-.29.353-.162.241.166.477.145.73.034.225-.098.455-.182.688-.258a.633.633 0 0 0 .433-.462c.044-.165-.08-.288-.183-.405l-.049-.055c-.139-.155-.146-.217.008-.36.21-.197.438-.377.654-.57.102-.092.198-.192.288-.296.073-.084.063-.178.008-.274-.06-.106-.106-.221-.17-.324a1.623 1.623 0 0 0-.206-.268c-.13-.134-.272-.258-.406-.388-.11-.106-.236-.183-.386-.126a5.37 5.37 0 0 0-.577.264c-.25.129-.489.277-.74.403-.136.069-.294.094-.43.164a.278.278 0 0 0-.122.194c-.015.173.43.555.605.537l.012-.002c.231-.03.347.116.248.327-.12.254-.252.502-.382.75a.426.426 0 0 1-.092.114c-.077.07-.145.06-.208-.023a.381.381 0 0 1-.063-.338.689.689 0 0 0-.218-.731 2.427 2.427 0 0 1-.367-.392c-.142-.206-.342-.325-.55-.437-.148-.08-.237-.05-.327.097-.047.076-.087.158-.14.23-.108.144-.08.29-.02.44.034.083.081.17.082.254Zm32.478 4.31a.665.665 0 0 0 .633.572c.161.009.322.025.481.046.201.026.402.061.602.093.358-.019.44.019.72-.398a4.16 4.16 0 0 1 1.312-1.267c.156-.095.338-.148.49-.249a3.164 3.164 0 0 1 1.653-.545c.224-.008.365-.12.467-.304a.525.525 0 0 0-.46-.799.643.643 0 0 1-.168-.029c-.151-.046-.214-.024-.316.098-.07.083-.14.185-.232.228-.221.1-.454.176-.686.248-.043.013-.126-.026-.153-.066-.028-.04-.02-.114-.008-.168.009-.04.044-.077.074-.11.208-.224.41-.455.629-.669.397-.388.805-.764 1.207-1.146.228-.217.29-.478.166-.772a4.341 4.341 0 0 0-.28-.543c-.116-.192-.557-.308-.757-.207-.156.08-.31.163-.46.253-.323.193-.64.394-.964.583-.096.056-.21.084-.315.123-.107.04-.213.08-.322.113a.808.808 0 0 1-.189.03c-.092.004-.188-.012-.278.004a.567.567 0 0 1-.424-.067c-.156-.098-.327-.169-.494-.015-.08.075-.161.152-.23.238-.192.238-.168.461.063.683.106.102.21.206.31.314.125.133.259.276.442.289.212.014.427-.026.641-.045a.155.155 0 0 0 .077-.035c.195-.155.391-.307.58-.468.166-.14.32-.293.486-.432.034-.029.124-.044.148-.021.045.04.094.124.079.17a.839.839 0 0 1-.16.285c-.26.308-.534.605-.791.916-.124.15-.212.33-.334.481-.1.126-.234.225-.343.345-.224.247-.428.514-.667.745-.143.139-.323.25-.548.242-.086-.004-.174.031-.259.057-.244.073-.475.196-.74.186-.036-.001-.071.02-.108.024-.095.013-.19.03-.287.032-.18.003-.31.094-.411.23-.09.12-.06.244-.005.371.05.116.108.233.129.355Zm19.97-.633c.164.352.7.482 1 .238.16-.128.302-.277.466-.398.306-.224.62-.435.933-.649.151-.104.307-.202.46-.304.108-.071.2-.037.291.034.093.072.055.15.018.23a.959.959 0 0 0-.053.137c-.144.519-.368.987-.757 1.378-.348.349-.743.586-1.225.686-.268.056-.53.137-.807.044a.376.376 0 0 0-.159-.004c-.238.028-.35.232-.222.42a1.182 1.182 0 0 0 .995.533c.187 0 .374-.033.562-.046.28-.02.518-.162.769-.266.025-.01.044-.036.065-.055.15-.133.29-.277.45-.397.387-.292.705-.64.903-1.087.163-.367.382-.712.46-1.116.012-.06.084-.147.132-.15.052-.003.134.066.16.124.114.255.277.482.371.754.126.358.334.688.512 1.028.086.165.177.328.278.484.066.102.153.19.229.287.133.172.292.296.505.368.211.072.407.123.607-.013.01-.006.024-.004.036-.008.259-.09.486-.225.659-.446.113-.143.245-.272.362-.411.105-.125.213-.25.299-.387a.218.218 0 0 0-.005-.199.343.343 0 0 0-.32-.147 2.982 2.982 0 0 0-.349.06 1.524 1.524 0 0 1-.833-.046c-.241-.081-.469-.2-.697-.314a.855.855 0 0 1-.213-.175c-.082-.084-.155-.177-.232-.267-.07-.084-.145-.165-.211-.253-.258-.342-.525-.67-.97-.783-.094-.025-.18-.084-.195-.198a.496.496 0 0 1 .395-.54c.133-.03.263-.082.392-.13.103-.04.2-.098.303-.135.489-.175.979-.347 1.47-.52.026-.009.055-.013.083-.02.071-.017.146-.026.214-.05.425-.16.488-.29.462-.668-.015-.225-.027-.446-.273-.574-.23-.12-.446-.268-.665-.41-.12-.077-.184-.072-.238.058-.026.063-.015.14-.018.211-.003.088.014.18-.008.262-.077.283-.301.4-.56.473-.09.026-.195.044-.26.103-.227.209-.5.3-.795.347-.153.025-.284-.08-.27-.233.007-.073.032-.143.049-.215.06-.247.173-.48.145-.748-.025-.235.054-.459.142-.677.082-.204.157-.41.23-.617a.529.529 0 0 0 .028-.169c.002-.319.001-.637.001-.956h.008c-.008-.11.008-.23-.03-.328-.138-.365-.342-.678-.703-.877-.19-.103-.338-.093-.493.036-.196.16-.313.35-.242.618.029.108.038.223.043.336.006.148 0 .297 0 .446 0 .13.007.26.002.39-.003.109-.028.217-.03.326-.006.26.003.522-.007.782-.01.301-.03.603-.054.903-.011.133-.046.264-.067.396-.048.31-.093.621-.142.931-.026.172-.143.267-.29.337-.254.122-.505.247-.757.37-.037.018-.072.04-.11.056-.345.136-.687.28-1.037.403-.135.047-.294.087-.428.06-.286-.055-.382-.037-.534.217-.067.112-.11.239-.187.343-.172.235-.24.471-.064.733.01.013.013.03.02.044Zm10.57.03c.092.1.223.184.374.115.339-.153.538-.441.698-.759.057-.114.066-.255.127-.367.123-.23.262-.452.401-.673.063-.1.009-.16-.052-.223s-.122-.05-.186-.003c-.081.061-.161.129-.251.173-.049.023-.139.025-.174-.005-.047-.04-.099-.138-.08-.18.077-.168.159-.343.28-.48.221-.248.248-.336.085-.627a.87.87 0 0 0-.106-.15c-.077-.09-.133-.093-.211-.002-.078.093-.139.202-.22.293-.329.367-.665.728-.995 1.096-.139.155-.288.311-.239.511-.009.539.23.93.549 1.28Zm-16.894-5.212c.028-.118.046-.238.078-.355.016-.057.055-.108.083-.161.05.03.118.049.149.093.088.129.19.232.336.292.049.02.092.053.133.087.085.071.106.158.03.246a1.677 1.677 0 0 1-.233.232 3.184 3.184 0 0 1-.338.22c-.15.087-.267.033-.304-.139-.01-.043-.012-.089-.017-.133l-.017-.005c.034-.125.07-.25.1-.377Zm1.17-.74c.156-.198.316-.393.478-.587.049-.058.11-.105.191-.052.088.057.143.146.092.24a8.07 8.07 0 0 1-.364.586.46.46 0 0 1-.144.131c-.054.033-.14.08-.177.059-.07-.04-.113-.124-.167-.188.039-.081.055-.143.092-.189Zm-1.449 7.433c.001.027.01.056.02.082.08.214-.049.412-.286.403-.146-.005-.297-.038-.412-.154-.059-.06-.061-.117-.03-.188.08-.178.154-.358.236-.534a.92.92 0 0 1 .117-.184c.053-.068.127-.112.214-.067.09.046.16.115.14.23l.001.412Zm-3.426-2.626c.086.032.207.052.284.016.194-.09.39-.193.553-.33.268-.224.523-.468.758-.726.192-.212.415-.38.645-.542.044-.03.123-.055.163-.035.04.018.05.097.071.15.027.07.038.151.08.208.051.066.135.106.195.165.083.08.16.063.242.003.079-.057.155-.122.242-.164.041-.02.126-.013.152.016.031.036.049.126.026.161a.862.862 0 0 1-.199.193c-.072.054-.153.094-.23.14-.164.097-.341.177-.49.295-.318.253-.16.483.115.6.074.031.176.014.261-.002.075-.014.142-.061.215-.087.092-.033.178-.01.227.072.053.091-.03.133-.092.169-.08.046-.172.075-.25.126-.05.033-.119.097-.113.139.007.053.073.113.129.139.063.03.144.02.215.038.158.038.221.19.111.291-.183.17-.405.261-.66.224-.142-.02-.256.014-.327.135-.056.097-.087.21-.133.314-.04.095-.025.18.049.246.08.07.17.125.253.19.154.123.162.234.004.347a7.78 7.78 0 0 1-.718.464c-.168.094-.357.14-.547.022a.866.866 0 0 0-.246-.108.307.307 0 0 0-.196.013c-.222.111-.338.52-.2.729.118.175.25.343.394.497.161.172.46.206.655.075.162-.108.319-.231.455-.37.15-.152.278-.329.412-.498.111-.14.183-.153.313-.033a.697.697 0 0 1 .157.2c.096.199.185.4.266.606.081.206.213.266.42.213.317-.082.531-.292.734-.527a.515.515 0 0 0 .143-.424c-.02-.16-.015-.323-.019-.484 0-.049-.006-.102.01-.146a.667.667 0 0 0 .001-.41 1.162 1.162 0 0 1 0-.651c.039-.122.135-.18.19-.103.153.217.397.349.497.626.106.292.222.57.182.887a.386.386 0 0 0 0 .086c.014.182.223.379.392.35.217-.036.435-.078.644-.144.132-.041.27-.107.305-.273.018-.08.034-.16.058-.237.066-.22.082-.44-.003-.658-.038-.098-.066-.206-.129-.286-.183-.236-.446-.364-.72-.465-.297-.11-.588 0-.876.052-.12.022-.203-.007-.272-.086-.067-.075-.027-.153.024-.223.021-.03.047-.057.066-.088.064-.104.133-.207.186-.316.056-.116-.02-.193-.1-.262-.076-.064-.136-.018-.198.027-.082.06-.17.113-.253.173-.063.045-.119.04-.177-.01-.14-.116-.12-.271.054-.378.13-.078.266-.145.391-.229.242-.161.254-.255.074-.48-.086-.109-.085-.188.006-.295.063-.075.125-.152.192-.223.12-.125.121-.276.084-.425-.015-.062-.079-.137-.137-.155-.043-.014-.129.04-.166.087-.07.088-.112.2-.182.29a.863.863 0 0 1-.228.208c-.095.056-.184 0-.246-.08-.063-.082-.029-.156.035-.218.116-.116.24-.223.352-.343.202-.218.451-.35.738-.409.304-.063.505-.252.653-.51.12-.209.114-.32-.019-.484a.498.498 0 0 0-.524-.18c-.109.03-.22.06-.33.087-.151.037-.263.144-.256.272.007.138-.06.216-.165.29-.06.043-.102.118-.142.185-.04.066-.065.14-.099.21-.125.258-.322.46-.53.65-.063.058-.13.114-.216.047-.085-.067-.067-.151-.014-.23l.296-.436c.078-.115.165-.225.231-.346.023-.042-.001-.11-.004-.165-.05.014-.105.02-.15.046-.04.024-.064.075-.103.104-.174.127-.345.258-.527.373-.102.064-.238.017-.3-.086-.069-.112.025-.173.092-.221.218-.156.442-.306.67-.447.208-.128.4-.288.645-.345.058-.013.113-.044.168-.07.274-.134.558-.245.866-.244.238 0 .468-.135.71-.039.007.003.016-.003.024-.003l.803-.053c.06-.004.121-.01.182-.018.08-.012.158-.035.239-.04.268-.014.514-.081.714-.273.185-.176.204-.418.074-.652-.152-.271-.367-.35-.627-.247-.303.12-.602.254-.906.373-.239.094-.482.176-.725.261-.103.037-.188 0-.247-.085-.063-.088-.015-.162.052-.227.04-.04.078-.086.126-.115.243-.148.484-.304.737-.435.378-.195.474-.622.196-.942-.04-.047-.087-.088-.121-.139-.229-.34-.753-.254-1.008-.124a.306.306 0 0 0-.082.072c-.18.201-.359.401-.533.606-.214.25-.431.49-.773.569a.29.29 0 0 1-.363-.296c.01-.168.097-.3.181-.436.036-.058.079-.12.088-.185.042-.304-.015-.581-.268-.784-.208-.166-.405-.377-.716-.235-.017.008-.04.005-.06.007-.217.018-.305.117-.303.332v1.164l.041.004c-.041.281-.077.564-.13.844-.012.063-.072.132-.129.17-.105.069-.234.103-.334.177-.217.161-.411.106-.608-.029l-.093-.061c-.132-.085-.206-.068-.269.077-.064.15-.12.304-.176.457a.86.86 0 0 0 .027.691c.083.177.212.3.41.303.2.002.328-.117.425-.297.141-.261.307-.51.472-.756.03-.045.126-.096.154-.08.054.033.094.106.117.17.037.1.053.21.083.313.026.09.06.179.084.27.031.119-.001.224-.11.286-.093.055-.203.083-.297.137-.235.137-.466.283-.699.425-.02.012-.043.022-.066.033-.38.185-.758.38-1.145.551-.344.152-.697.271-1.088.165-.184-.05-.38-.029-.505.137-.149.195-.252.518-.03.762.259.282.559.502.917.636ZM33.257 64.818a7.366 7.366 0 0 0-2.116-6.12 7.4 7.4 0 0 0-5.257-2.15c-4.11 0-7.455 3.369-7.455 7.51 0 .255.012.51.037.76h.483a6.976 6.976 0 0 1 6.935-7.736c3.853 0 6.95 3.03 6.95 6.882 0 .287-.021.573-.061.854h.484Zm-5.354 7.263h.544v-.98h.78v-.2h-2.105v.2h.78v.98Zm-2.332 0h.544v-1.189h-.544v1.189Zm-2.785-.517h.998v.517h.544v-1.189h-.544v.472h-.998v-.472h-.545v1.189h.545v-.517Zm-4.606-4.817h.22v-.328h-.22v.328Zm0-.472h.22v-.329h-.22v.329Zm0-.473h.22v-.328h-.22v.328Zm.325 1.418h.221v-.328h-.22v.328Zm-.65-.473h.22v-.328h-.22v.328Zm.325.473h.22v-.328h-.22v.328Zm-.326-1.418h.22v-.328h-.22v.328Zm0 .473h.22v-.329h-.22v.329Zm.977.472h.22v-.328h-.22v.328Zm0 .473h.22v-.328h-.22v.328Zm0-.945h.22v-.329h-.22v.329Zm0-.473h.22v-.328h-.22v.328Zm.326 1.418h.22v-.328h-.22v.328Zm-.652-.473h.221v-.328h-.22v.328Zm0-.472h.221v-.329h-.22v.329Zm-.65.945h.22v-.328h-.22v.328Zm1.302-.473h.22v-.328h-.22v.328Zm-.652-.945h.221v-.328h-.22v.328Zm-2.704 1.418h.22v-.328h-.22v.328Zm.43-.473h.22v-.328h-.22v.328Zm0-.472h.22v-.329h-.22v.329Zm.46.945h.221v-.328h-.22v.328Zm-.46-1.418h.22v-.328h-.22v.328Zm0 1.418h.22v-.328h-.22v.328Zm.46-.473h.221v-.328h-.22v.328Zm-.89 0h.22v-.328h-.22v.328Zm0-.472h.22v-.329h-.22v.329Zm0-.473h.22v-.328h-.22v.328Zm1.227.473h.221v-.329h-.22v.329Zm.425.945h.22v-.328h-.22v.328Zm-.761-.945h.22v-.329h-.22v.329Zm.336-.473h.221v-.328h-.22v.328Zm.425.473h.22v-.329h-.22v.329Zm0 .472h.22v-.328h-.22v.328Zm-.761-.945h.22v-.328h-.22v.328Zm.336 1.418h.221v-.328h-.22v.328Zm0-.473h.221v-.328h-.22v.328Zm2.129-.472h.22v-.329h-.22v.329Zm-1.704-.473h.22v-.328h-.22v.328Zm12.428-1.396a.115.115 0 0 0-.115.115v.3h.23v-.3a.115.115 0 0 0-.115-.115Zm-.115.91h.23v-.317h-.23v.316Zm0 .492h.23v-.316h-.23v.316Zm0 .486h.23v-.335h-.23v.335Zm.367.942h.23v-.32h-.23v.32Zm0-1.428h.23v-.316h-.23v.316Zm0 .957h.23v-.32h-.23v.32Zm0-1.45h.23V65h-.23v.316Zm0 .979h.23v-.335h-.23v.335Zm-.367.471h.23v-.32h-.23v.32Zm-.367 0h.23v-.32h-.23v.32Zm0 .471h.23v-.32h-.23v.32Zm-.367-1.92h.23v-.317h-.23v.316Zm.115-.91a.115.115 0 0 0-.115.115v.3h.23v-.3a.115.115 0 0 0-.115-.115Zm.367 0a.115.115 0 0 0-.115.115v.3h.23v-.3a.115.115 0 0 0-.115-.115Zm.252 2.83h.23v-.32h-.23v.32Zm-.367-1.428h.23v-.316h-.23v.316Zm0-.493h.23V65h-.23v.316Zm0 .979h.23v-.335h-.23v.335Zm-3.353-4.404h.217v-.304h-.217v.304Zm-.657.798h.217v-.266h-.217v.266Zm0 .385h.217v-.266h-.217v.266Zm.657-1.624h.217v-.304h-.217v.304Zm-.328 0h.216v-.304h-.216v.304Zm4.53 2.957a.115.115 0 0 0-.116.115v.3h.23v-.3a.115.115 0 0 0-.114-.115Zm-4.202-1.718h.217v-.266h-.217v.266Zm0 .385h.217v-.266h-.217v.266Zm-.328-.385h.216v-.266h-.216v.266Zm0 .385h.216v-.266h-.216v.266Zm-6.561 2.729h.22v-.328h-.22v.328Zm6.56-3.912h.217v-.304h-.216v.304Zm4.782 4.875h.23v-.32h-.23v.32Zm0 .471h.23v-.32h-.23v.32Zm0-1.428h.23v-.316h-.23v.316Zm0 .486h.23v-.335h-.23v.335Zm-5.11-4.845h.217v-.304h-.217v.304Zm5.11 3.866h.23V65h-.23v.316Zm.115-.909a.115.115 0 0 0-.115.115v.3h.23v-.3a.115.115 0 0 0-.115-.115ZM25.39 61.89h.217v-.304h-.217v.304Zm7.898 5.33h.22v-.328h-.22v.328Zm1.95 0h.22v-.328h-.22v.328Zm-.462-1.418h.22v-.328h-.22v.328Zm0 1.418h.22v-.328h-.22v.328Zm0-.473h.22v-.328h-.22v.328Zm0-.472h.22v-.329h-.22v.329Zm.89.472h.222v-.328h-.221v.328Zm-.429 0h.221v-.328h-.22v.328Zm0-.472h.221v-.329h-.22v.329Zm0-.473h.221v-.328h-.22v.328Zm.43 1.418h.22v-.328h-.22v.328Zm-1.652-.473h.22v-.328h-.22v.328Zm.424-.945h.221v-.328h-.22v.328Zm-.424 1.418h.22v-.328h-.22v.328Zm-.401-1.418h.22v-.328h-.22v.328Zm.4.473h.222v-.329h-.221v.329Zm.425 0h.221v-.329h-.22v.329Zm0 .472h.221v-.328h-.22v.328Zm-18.963-.945h.22v-.328h-.22v.328Zm18.539 0h.22v-.328h-.22v.328Zm2.303 0h.22v-.328h-.22v.328Zm.326 0h.22v-.328h-.22v.328Zm0 .945h.22v-.328h-.22v.328Zm.325.473h.221v-.328h-.22v.328Zm-.325 0h.22v-.328h-.22v.328Zm0-.945h.22v-.329h-.22v.329Zm.947-.9h-2.022v-.07a.019.019 0 0 0-.02-.02h-1.645a.019.019 0 0 0-.02.02v.094h-2.038v-.094h1.902v-.114h1.961v.114h1.882v.07Zm-2.022 1.938v-1.9h1.934l-.001.005v1.895h-1.933Zm-.437-1.99h.399v1.99h-.4v-1.99Zm-.774 0h.736v1.99h-.736v-1.99Zm-.435 0h.398v1.99h-.398v-1.99Zm-1.709.114h1.67v1.876h-1.67v-1.876Zm-.296 0h.258v1.876h-.257v-1.876Zm5.673 1.914v.146h-5.93l.094-.146h5.836Zm0 .329h-5.836l-.095-.146h5.93v.146Zm-5.912-.562a.234.234 0 0 0-.256.008c-.037.026-.093.089-.077.206h-.066v-1.836h.6v1.817h-.111c.006-.084-.026-.154-.09-.195Zm-.277.36h-3.545a.064.064 0 0 0-.061-.047h-.017v-.06h3.581l.042.107Zm-.062.183h-1.985a.224.224 0 0 0-.17-.015 3.98 3.98 0 0 0-.615-.13h2.832l-.062.145Zm-2.088.189c-.075 0-.136-.038-.136-.084 0-.046.06-.083.136-.083.075 0 .136.037.136.083 0 .046-.06.084-.136.084Zm-1.206-.167c.068.021.116.053.135.1h-.64v-.1h.505Zm.196.145a.083.083 0 0 0-.02.054c0 .024.012.046.031.064h-.493v-.125h.473l.01.007Zm.136-.038c.058 0 .105.03.105.068 0 .037-.047.067-.105.067-.059 0-.106-.03-.106-.067 0-.037.047-.068.105-.068Zm-.656.156h-.092v-.125h.092v.125Zm-.13 0h-3.593v-.125h3.593v.125Zm-3.63 0h-.543a.088.088 0 0 0 .032-.064.083.083 0 0 0-.021-.054l.01-.007h.521v.125Zm-.667-.02c-.059 0-.106-.03-.106-.068 0-.037.047-.068.106-.068.058 0 .105.03.105.068 0 .037-.047.067-.105.067Zm.331-.243h.557v.1h-.692c.019-.047.067-.079.135-.1Zm-3.339-.205.042-.108h3.585v.06h-.018a.064.064 0 0 0-.061.048h-3.548Zm2.2.168a.225.225 0 0 0-.17.014H20.35l-.062-.144H23.1a3.98 3.98 0 0 0-.616.13Zm-.067.204c-.075 0-.136-.038-.136-.084 0-.028.022-.052.056-.067h.012a.019.019 0 0 0 .016-.01.212.212 0 0 1 .052-.006c.075 0 .136.037.136.083 0 .046-.06.084-.136.084Zm-2.153-.724a.234.234 0 0 0-.257-.008c-.064.041-.095.112-.09.195h-.111v-1.817h.6v1.836h-.066c.016-.117-.04-.18-.076-.206Zm-.238.37h-5.93v-.145h5.836l.094.146Zm-.094.184h-5.837v-.146h5.931l-.094.146Zm-5.748-2.267h1.934v1.9h-1.933v-1.895l-.001-.005Zm2.37 1.9h-.398v-1.99h.399v1.99Zm.774 0h-.735v-1.99h.735v1.99Zm.436 0h-.398v-1.99h.398v1.99Zm1.708 0h-1.67v-1.876h1.67v1.876Zm.296 0h-.258v-1.876h.258v1.876Zm-5.672-1.938v-.07h1.881v-.114h1.962v.114h1.902v.094h-2.04v-.094a.019.019 0 0 0-.018-.02h-1.646a.019.019 0 0 0-.02.02v.07h-2.021Zm6.348-1.028h.341v.009h-.34v-.008Zm.341 2.985h-.34v-2.797h.34v2.797Zm-.34-2.939h.34v.104h-.34v-.104Zm-.178-.2h4.34v.117h-4.176l-.164-.118Zm4.47 1.84v.056h-.763l-.057-.014v-.042h.82Zm-.183-2.878h2.6l-.104.07h-2.418l-.078-.07Zm-.054-.04v-.004h.805c.01 0 .02-.008.02-.019v-.754h1.025v.754c0 .01.009.02.02.02h.836v.005h-2.697a.019.019 0 0 0-.009-.003Zm.592-.042h-.41v-.072h.41v.072Zm.036-.14-.026.03h-.43l-.025-.03h.481Zm.06-.027a.02.02 0 0 0-.018-.01h-.219v-.558h.335v.735h-.156v-.084l.054-.062a.02.02 0 0 0 .004-.02Zm-.29-.606v-.061h1.89v.06H24.9Zm-.074-.149h2.052l-.062.05h-1.929l-.061-.05Zm-.053-.052h2.14v.014h-2.142l.002-.014Zm.109-.138a.024.024 0 0 1 0-.048h.39a.024.024 0 1 1 0 .048h-.39Zm.308-1.04v-.002h1.267v.002a.077.077 0 0 1-.076.076h-1.114a.077.077 0 0 1-.076-.076Zm-.01-.04-.024-.027h1.349l-.024.027h-1.3Zm.341-.065h-.23v-.066h.23v.066Zm-.292-.104a.016.016 0 1 1 0-.032h.336c.009 0 .016.008.016.016a.016.016 0 0 1-.016.016h-.336Zm.907.104h-.577v-.05h.577v.05Zm-.541-.295h.058l.069.207h-.01l-.117-.207Zm.091-.132-.033.102H25.6l.085-.102Zm-.014-.114-.04-.04h.41l-.027.04h-.343Zm.011-.127h.322l.036.056h-.41l.052-.056Zm.338-.055-.02.025h-.317l-.022-.025h.359Zm-.392-.03a.03.03 0 1 1 0-.061h.422a.03.03 0 1 1 0 .061h-.422Zm.44.428h-.042l-.055-.123h.006l.09.123Zm-.124.03h.044l-.088.207h-.016l.06-.207Zm-.11 0h.078l-.06.207h-.019v-.207Zm.08-.03h-.08v-.123h.041l.039.123Zm-.007-.123h.031l.055.123h-.047l-.039-.123Zm-.202-.03-.016-.032h.307l-.02.031h-.27Zm.04.153.036-.123h.022v.123h-.057Zm-.001.03h.06v.207h-.012l-.048-.207Zm-.06-.03.04-.123h.025l-.035.123h-.03Zm.029.03.048.207h-.008l-.07-.207h.03Zm.265.207h-.045l.088-.207h.053l-.096.207Zm.395.088h-.2v-.066h.2v.066Zm-.244-.136h.307a.016.016 0 1 1 0 .032h-.307a.016.016 0 1 1 0-.032Zm.266 1.382H25.27v-.023h1.125v.023Zm-1.125-.06v-.003a.063.063 0 0 0 .063-.062.062.062 0 0 0-.062-.062v-.84h1.109l.015-.001v.84a.063.063 0 0 0-.063.063c0 .034.028.062.062.062V62h-1.124Zm1.514-.09a.024.024 0 1 1 0 .049h-.39a.024.024 0 1 1 0-.048h.39Zm-.302 1.014.051.062v.085h-.144v-.735h.331v.557h-.224a.019.019 0 0 0-.014.031Zm.5.147h-.411v-.072h.41v.072Zm.036-.14-.026.03h-.431l-.025-.03h.482Zm.759 3.647a.063.063 0 0 0 .045-.06c0-.006-.002-.01-.003-.015v-.131a.019.019 0 0 0-.005-.013l-.02-.023a.019.019 0 0 0-.014-.006h-.04v-.199h.049c.01 0 .019-.008.019-.019v-.09a.019.019 0 0 0-.02-.02h-.712v-1.657h3.786v2.985h-3.085v-.752Zm-.02-.034h-.193c-.014 0-.027-.012-.027-.026 0-.015.013-.028.027-.028h.194c.01 0 .02.007.023.016v.012l.002.007a.026.026 0 0 1-.025.02Zm.037.976h-.266a.027.027 0 0 1-.027-.027c0-.015.012-.027.027-.027h.055v-.884h.156v.884h.055a.027.027 0 1 1 0 .054Zm-.9-1.142h-2.118v-.42h2.118v.42Zm.144-.49v.115h-.106v-.063a.019.019 0 0 0-.019-.02h-2.156a.019.019 0 0 0-.02.02v.053h-.092v-.105h2.393Zm-1.872-.037h-.52v-2.524h.52v2.524Zm1.276 0h-1.238v-2.524h1.239v2.524Zm.596-2.561h-2.393v-.03h2.393v.03Zm0 2.56h-.558V63.33h.558v2.524Zm-.106.19h.838v.053h-.838v-.052Zm.84.328.007.008h-.847v-.008h.84Zm-.07-.038h-.77v-.199h.77v.199Zm-3.772.123a.063.063 0 0 0-.02.004v-.038h.847a.018.018 0 0 0 .009-.003h2.147a.02.02 0 0 0 .008-.002h.86v.043a.065.065 0 0 0-.023-.005H23.93Zm3.316 1.105h.138v.086h-.138v-.086Zm-.437-1.04c0-.015.012-.028.026-.028h.194c.015 0 .027.013.027.028a.027.027 0 0 1-.027.026h-.194c-.014 0-.026-.012-.026-.026Zm.046.948v-.884h.155v.884h.055a.027.027 0 1 1 0 .054H26.8a.027.027 0 0 1-.027-.027c0-.015.013-.027.027-.027h.055Zm-.776-.948c0-.015.013-.028.027-.028h.194a.027.027 0 0 1 0 .054h-.194c-.014 0-.027-.012-.027-.026Zm.046.948v-.884h.156v.884h.055a.027.027 0 1 1 0 .054h-.266a.027.027 0 0 1-.027-.027c0-.015.012-.027.027-.027h.055Zm-.774-.948c0-.015.012-.028.026-.028h.194c.015 0 .027.013.027.028a.027.027 0 0 1-.027.026h-.194c-.014 0-.026-.012-.026-.026Zm.045.948v-.884h.156v.884h.055a.027.027 0 1 1 0 .054h-.266a.027.027 0 0 1-.027-.027c0-.015.012-.027.027-.027h.055Zm1.813.178h-2.868v-.086h2.868v.086Zm-2.587-1.126c0-.015.012-.028.026-.028h.194c.015 0 .027.013.027.028a.027.027 0 0 1-.027.026h-.194c-.014 0-.026-.012-.026-.026Zm.046.948v-.884h.155v.884h.055c.015 0 .027.012.027.027a.027.027 0 0 1-.027.027h-.266a.027.027 0 0 1-.027-.027c0-.015.013-.027.027-.027h.056Zm-.45.215h3.197v.1H24.22v-.1Zm-.34-.126c.005.001.01.003.016.003h.41v.086h-.585a.414.414 0 0 1 .159-.09Zm.072-.089v-.884h.155v.884h.055a.027.027 0 1 1 0 .054h-.266a.027.027 0 0 1-.027-.027c0-.015.013-.027.027-.027h.056Zm-.046-.948c0-.015.012-.028.026-.028h.194c.015 0 .027.013.027.028a.027.027 0 0 1-.027.026h-.194c-.014 0-.026-.012-.026-.026Zm.085-.393h.749v.202h-.749v-.202Zm.749.24v.016h-.821l.022-.016h.799Zm-.844-.258.058.014V66.329h-.019a.02.02 0 0 0-.01.004l-.043.03a.02.02 0 0 0-.008.015v.008a.019.019 0 0 0-.01.016c0 .007.005.013.01.016v.074a.062.062 0 0 0-.006.028c0 .028.02.052.046.06v.752h-3.088v-2.984h3.783v1.647H23.9a.019.019 0 0 0-.02.02v.075c0 .009.007.016.015.019Zm3.608 1.674h-.05v-.1h.05v.1Zm-.08-.137v-.086h.376c.06.02.111.047.152.086h-.528Zm3.477-3.299h.341v.009h-.34v-.008Zm.341 2.985h-.34v-2.797h.34v2.797Zm-.34-2.939h.34v.104h-.34v-.104Zm.517-.2-.164.117h-4.177v-.118h4.341Zm5.467.833h-1.122l-1.009-.37-.946.365h-1.16l-.905.18v.104h.064v.113h-.528v-1.07a.02.02 0 0 0-.002-.008l.185-.132c.005-.004.007-.01.007-.016h.018v-.08l-1.536-.226h-2.874v-.632l.148-.099h.002c.01 0 .02-.008.02-.019v-.044a.019.019 0 0 0-.02-.019h-.207v-.084l.055-.062a.019.019 0 0 0-.014-.031h-.302v-.558h.05c.01 0 .02-.009.02-.02v-.081c.001-.001.004-.001.005-.003l.11-.087a.021.021 0 0 0 .007-.012v-.054a.019.019 0 0 0-.018-.02h-.5V62h.352a.062.062 0 0 0 0-.124h-.351v-.853a.114.114 0 0 0 .061-.101v-.004a.018.018 0 0 0 .008-.005l.058-.064a.019.019 0 0 0-.014-.032h-.14v-.066h.03a.054.054 0 0 0 0-.107h-.043l-.004-.014a.095.095 0 0 0 .038-.022v-.181a.167.167 0 0 1-.082.05l-.006-.022h-.019v.189h-.047v-.19h-.02l-.006.023a.167.167 0 0 1-.081-.05v.181a.094.094 0 0 0 .038.022l-.004.014h-.071a.054.054 0 0 0-.054.053c0 .013.005.023.012.032h-.076l.1-.216a.017.017 0 0 0 0-.01V60.5l-.001-.003-.107-.145.033-.054.045-.07v-.002a.015.015 0 0 0 .002-.01v-.002l-.002-.003-.052-.08.03-.04a.06.06 0 0 0 .052-.058.061.061 0 0 0-.06-.061h-.137l-.026-1.586a.276.276 0 0 0 .214-.367v.026a.26.26 0 1 1-.518-.026.276.276 0 0 0 .218.368l-.038 1.585h-.136a.06.06 0 0 0-.008.12l.035.04-.07.077a.015.015 0 0 0-.005.009v.003l.001.004.003.003v.002l.068.07.026.05-.122.146a.015.015 0 0 0-.003.01v.002c0 .002 0 .004.002.005l.121.215h-.07a.052.052 0 0 0 .012-.032.054.054 0 0 0-.054-.053h-.093l-.004-.014a.094.094 0 0 0 .038-.022v-.181a.166.166 0 0 1-.082.05l-.006-.022H25.4v.189h-.047v-.19h-.02l-.006.023a.167.167 0 0 1-.081-.05v.181a.093.093 0 0 0 .038.022l-.004.014h-.05a.054.054 0 0 0 0 .107h.029v.066h-.144a.019.019 0 0 0-.017.012.019.019 0 0 0 .003.02l.053.059v.014c0 .051.034.094.08.109v.845h-.351a.062.062 0 0 0 0 .124h.351v.063h-.477a.019.019 0 0 0-.019.016l-.006.052a.02.02 0 0 0 .018.021h.017l.096.078v.09c0 .01.008.019.018.019h.035v.557h-.306a.019.019 0 0 0-.018.011.02.02 0 0 0 .003.02l.051.062v.085h-.162a.019.019 0 0 0-.019.02v.043c0 .01.009.02.02.02h.015l.11.096v.634h-2.872l-1.536.225v.081h.018c0 .006.001.012.007.016l.184.132a.02.02 0 0 0-.002.007v1.071h-.527v-.113h.063V65.2l-.904-.18h-1.16l-.947-.365-1.008.37h-1.122L14 65.2v.104h.06v.089c0 .01.008.019.019.019h.07v1.9h-.07a.019.019 0 0 0-.02.02v.366c0 .01.01.019.02.019h5.865a.019.019 0 0 0 .016-.01l.119-.182v-.001a.018.018 0 0 0 .003-.01.018.018 0 0 0-.003-.009l-.12-.184-.003-.003c-.007-.074.018-.134.072-.169a.197.197 0 0 1 .217.006c.052.039.073.102.06.18a.018.018 0 0 0-.007.008l-.057.146a.022.022 0 0 0-.002.007l.002.007.078.183c.003.007.01.012.017.012h1.93a.134.134 0 0 0-.037.09c0 .085.085.154.19.154s.19-.069.19-.154v-.002c.35-.182.714-.227 1.083-.24v.045c-.183.038-.392.108-.492.203-.037.02-.062.051-.062.087 0 .059.07.107.156.107a.212.212 0 0 0 .048-.005H28.327a.214.214 0 0 0 .05.005c.085 0 .155-.048.155-.107 0-.036-.024-.067-.062-.087-.1-.095-.309-.165-.492-.203v-.045c.37.014.734.058 1.083.24v.002c0 .085.085.154.19.154s.19-.069.19-.154a.134.134 0 0 0-.037-.09h1.947a.019.019 0 0 0 .018-.012l.078-.183a.019.019 0 0 0 0-.014l-.057-.146a.018.018 0 0 0-.008-.009c-.013-.077.008-.14.06-.179a.197.197 0 0 1 .218-.006c.054.035.079.095.071.169l-.003.003-.12.183v.001a.017.017 0 0 0-.003.01l.003.009.12.184c.003.005.01.008.015.008h5.866c.01 0 .019-.008.019-.018v-.367a.019.019 0 0 0-.02-.019h-.07v-1.9h.07c.011 0 .02-.009.02-.02v-.088h.06V65.2l-.803-.175Zm.083 1.721h.221v-.328h-.22v.328Zm0-.472h.221v-.329h-.22v.329Zm0-.473h.221v-.328h-.22v.328Zm-.977.473h.221v-.329h-.22v.329Zm-2.378 0h.22v-.329h-.22v.329Zm2.053 0h.22v-.329h-.22v.329Zm0-.473h.22v-.328h-.22v.328Zm.326 1.418h.22v-.328h-.22v.328Zm0-.473h.22v-.328h-.22v.328Zm.325-.472h.22v-.329h-.22v.329Zm-.325-.473h.22v-.328h-.22v.328Zm.325 1.418h.22v-.328h-.22v.328Zm0-.473h.22v-.328h-.22v.328Zm-1.879.473h.221v-.328h-.22v.328Zm-19.94-.945h.221v-.329h-.22v.329Zm.326.945h.22v-.328h-.22v.328Zm0-.473h.22v-.328h-.22v.328Zm-.326-.945h.221v-.328h-.22v.328Zm0 .945h.221v-.328h-.22v.328Zm5.518-.824h.22v-.329h-.22v.329Zm-5.518 1.297h.221v-.328h-.22v.328Zm5.518-.392h.22v-.329h-.22v.329Zm0-.453h.22v-.328h-.22v.328Zm-5.192-.1h.22v-.329h-.22v.329Zm.651.945h.22v-.328h-.22v.328Zm0-.473h.22v-.328h-.22v.328Zm0-.472h.22v-.329h-.22v.329Zm15.976.553h.22v-.329h-.22v.329Zm-16.302-1.026h.221v-.328h-.22v.328Zm0 .473h.221v-.329h-.22v.329Zm-.325-.473h.22v-.328h-.22v.328Zm.325 1.418h.221v-.328h-.22v.328Zm0-.473h.221v-.328h-.22v.328Zm18.464.473h.22v-.328h-.22v.328Zm-.652-1.418h.221v-.328h-.22v.328Zm0 .945h.221v-.328h-.22v.328Zm0-.472h.221v-.329h-.22v.329Zm-3.929-.467h.23v-.316h-.23v.316Zm4.58.94h.221v-.329h-.22v.328Zm-.325 0h.22v-.329h-.22v.328Zm-.326.472h.221v-.328h-.22v.328Zm-1.51-.845h.22v-.328h-.22v.328Zm1.836-.1h.22v-.329h-.22v.329Zm0-.473h.22v-.328h-.22v.328Zm-.977.945h.22v-.328h-.22v.328Zm0-.472h.22v-.329h-.22v.329Zm0 .945h.22v-.328h-.22v.328Zm-.86-1.297h.221v-.329h-.22v.329Zm1.186 1.297h.22v-.328h-.22v.328Zm0-.945h.22v-.329h-.22v.329Zm-.326-.473h.22v-.328h-.22v.328Zm.326 0h.22v-.328h-.22v.328Zm0 .945h.22v-.328h-.22v.328Zm-8.377-.939h.23v-.316h-.23v.316Zm1.048-1.078h.258v-.324h-.258v.324Zm0-.52h.258v-.324h-.258v.324Zm0-.47h.258v-.323h-.258v.324Zm.39 1.979h.258v-.324h-.257v.324Zm-3.639 1.517h.23v-.32h-.23v.32Zm3.25-1.517h.257v-.324h-.258v.324Zm0-.52h.257v-.324h-.258v.324Zm-3.25 1.566h.23v-.32h-.23v.32Zm4.03-1.566h.258v-.324h-.258v.324Zm-.39 0h.257v-.324h-.257v.324Zm.39-.47h.258v-.323h-.258v.324Zm0 .99h.258v-.324h-.258v.324Zm-.39-.99h.257v-.323h-.257v.324Zm0-.988h.257v-.324h-.257v.324Zm0 .469h.257v-.324h-.257v.324Zm-.916-.47h.257v-.323h-.257v.324Zm-2.975.666a.115.115 0 0 0-.115.115v.3h.23v-.3a.115.115 0 0 0-.115-.115Zm2.975 1.313h.257v-.324h-.257v.324Zm0-.99h.257v-.323h-.257v.324Zm-3.457 2.036h.23v-.32h-.23v.32Zm0-.957h.23v-.316h-.23v.316Zm3.457-1.599h.257v-.323h-.257v.324Zm-3.457 2.085h.23v-.335h-.23v.335Zm3.457-1.095h.257v-.324h-.257v.324Zm-1.99 1.095h.23v-.335h-.23v.335Zm-1.1 0h.23v-.335h-.23v.335Zm0-.979h.23V65h-.23v.316Zm4.396-1.105h.258v-.324h-.258v.324Zm-4.396 2.555h.23v-.32h-.23v.32Zm-.367-1.45h.23V65h-.23v.316Zm.367 1.921h.23v-.32h-.23v.32Zm-.252-2.83a.115.115 0 0 0-.115.115v.3h.23v-.3a.115.115 0 0 0-.115-.115Zm1.719 2.359h.23v-.32h-.23v.32Zm.115-2.359a.115.115 0 0 0-.115.115v.3h.23v-.3a.115.115 0 0 0-.115-.115Zm.252 1.888h.23v-.335h-.23v.335Zm0 .942h.23v-.32h-.23v.32Zm0-.471h.23v-.32h-.23v.32Zm.115-2.359a.115.115 0 0 0-.115.115v.3h.23v-.3a.115.115 0 0 0-.115-.115Zm-.115 1.402h.23v-.316h-.23v.316Zm0-.493h.23V65h-.23v.316Zm-.734.493h.23v-.316h-.23v.316Zm0-.493h.23V65h-.23v.316Zm0 1.45h.23v-.32h-.23v.32Zm.115-2.359a.115.115 0 0 0-.115.115v.3h.23v-.3a.115.115 0 0 0-.115-.115Zm.252 1.888h.23v-.335h-.23v.335Zm0-.486h.23v-.316h-.23v.316Zm-1.834 1.428h.23v-.32h-.23v.32Zm1.834-1.92h.23v-.317h-.23v.316Zm0 1.92h.23v-.32h-.23v.32Zm-.985-2.83a.115.115 0 0 0-.116.115v.3h.23v-.3a.115.115 0 0 0-.114-.115Zm4.458-.197h.257v-.323h-.257v.324Zm-4.574 1.106h.23V65h-.23v.316Zm4.574-.116h.257v-.324h-.257v.324Zm0-.47h.257v-.323h-.257v.324Zm-4.574 1.565h.23v-.335h-.23v.335Zm4.574-.575h.257v-.324h-.257v.324Zm-4.574.09h.23v-.317h-.23v.316Zm.367 0h.23v-.317h-.23v.316Zm0-.494h.23V65h-.23v.316Zm.367 1.921h.23v-.32h-.23v.32Zm-.252-2.83a.115.115 0 0 0-.115.115v.3h.23v-.3a.115.115 0 0 0-.115-.115Zm-.115 2.359h.23v-.32h-.23v.32Zm3.663-3.024h.258v-.324h-.258v.324Zm.544 0h.257v-.324h-.257v.324Zm-4.207 2.553h.23v-.335h-.23v.335Zm0 .942h.23v-.32h-.23v.32Zm-.733-1.428h.23v-.316h-.23v.316Zm3.5-4.192a.195.195 0 0 1-.096.058l-.007-.025h-.022v.226h.087l-.006-.022a.11.11 0 0 0 .044-.026v-.211Zm-.264 4.441h1.816v.242h-1.816v-.242Zm-.02.28h1.855c.01 0 .019-.009.019-.02v-.279a.019.019 0 0 0-.02-.019H24.91a.019.019 0 0 0-.019.02v.279c0 .01.008.019.019.019Zm.103-4.462v-.226h-.021l-.008.025a.195.195 0 0 1-.095-.058v.211a.11.11 0 0 0 .044.026l-.006.022h.086Zm3.403 2.531a.115.115 0 0 0-.116.115v.3h.23v-.3a.115.115 0 0 0-.114-.115Zm-.116.91h.23v-.317h-.23v.316Zm.367 1.449h.23v-.32h-.23v.32Zm-.733 0h.23v-.32h-.23v.32Zm-.252-2.359a.115.115 0 0 0-.115.115v.3h.23v-.3a.115.115 0 0 0-.115-.115Zm.985 2.83h.23v-.32h-.23v.32Zm-.733 0h.23v-.32h-.23v.32Zm-.734-1.428h.23v-.316h-.23v.316Zm1.1.957h.23v-.32h-.23v.32Zm0 .471h.23v-.32h-.23v.32Zm-1.1-1.92h.23v-.317h-.23v.316Zm.115-.91a.115.115 0 0 0-.115.115v.3h.23v-.3a.115.115 0 0 0-.115-.115Zm.986 1.402h.23v-.316h-.23v.316Zm-1.52-4.192a.195.195 0 0 1-.095.058l-.008-.025h-.022v.226h.087l-.006-.022a.11.11 0 0 0 .044-.026v-.211Zm-.18.259v-.226h-.022l-.008.025a.195.195 0 0 1-.095-.058v.211a.11.11 0 0 0 .044.026l-.006.022h.087ZM25.9 57.99l-.046-.143-.046.143h-.15l.121.088-.046.143.121-.088.121.088-.046-.143.121-.088h-.15Zm2.398 8.303h.23v-.335h-.23v.335Zm-.734-.979h.23V65h-.23v.316Zm.367 0h.23V65h-.23v.316Zm-6.974 1.921h.23v-.32h-.23v.32Zm3.165-2.715a.115.115 0 1 0-.23 0v.3h.23v-.3Zm-.23 1.287h.23v-.316h-.23v.316Zm-2.935.957h.23v-.32h-.23v.32Zm2.934-1.45h.23V65h-.23v.316Zm-2.934.979h.23v-.335h-.23v.335Zm8.074.471h.23v-.32h-.23v.32Zm-.367-.471h.23v-.335h-.23v.335Zm.367.942h.23v-.32h-.23v.32Zm-8.074-1.428h.23v-.316h-.23v.316Zm0-.493h.23V65h-.23v.316Zm7.707 0h.23V65h-.23v.316Zm.115-.909a.115.115 0 0 0-.115.115v.3h.23v-.3a.115.115 0 0 0-.115-.115Zm-.733 0a.115.115 0 0 0-.115.115v.3h.23v-.3a.115.115 0 0 0-.115-.115Zm-.115 1.888h.23v-.335h-.23v.335Zm.733-.486h.23v-.316h-.23v.316Zm-4.406-.493h.23V65h-.23v.316Zm3.306.493h.23v-.316h-.23v.316Zm-3.076-1.287a.115.115 0 1 0-.23 0v.3h.23v-.3Zm3.443 1.287h.23v-.316h-.23v.316Zm-6.859-1.402a.115.115 0 0 0-.115.115v.3h.23v-.3a.115.115 0 0 0-.115-.115Zm7.96 1.888h.23v-.335h-.23v.335Zm-4.895 3.079v-.868c-.05.025-.104.032-.122.062-.052.085-.125.113-.218.112-.027 0-.055.005-.089.008l.01.093.273-.012v.605h.146Zm2.38-.459c-.09.058-.195.09-.292.134-.138.064-.238.156-.25.324h.808l-.01-.095h-.62l-.018-.02c.05-.04.097-.087.153-.115.116-.057.24-.098.354-.157.095-.049.161-.127.134-.246a.234.234 0 0 0-.198-.19 1.139 1.139 0 0 0-.29-.02c-.176.017-.267.117-.287.295h.156c.031-.17.11-.214.304-.191.082.01.152.05.154.124 0 .053-.05.126-.098.157Zm.866.253a.524.524 0 0 1 .001-.409c.042-.101.121-.144.234-.13.115.014.184.081.203.202.008.046.006.094.009.134-.001.203-.047.286-.176.328-.12.038-.223-.008-.27-.125Zm.613-.216c-.003-.229-.141-.448-.442-.428-.23.015-.372.17-.37.439.003.285.146.437.409.434.254-.003.405-.17.402-.445Zm-2.814.046c-.146-.003-.215-.062-.213-.184.002-.12.088-.191.229-.19.135.002.227.076.227.182 0 .114-.102.195-.242.192Zm-.187.23c-.05-.08-.105-.064-.177-.05.005.02.007.033.012.045.081.215.475.218.627.08.158-.143.196-.469.072-.64-.107-.147-.401-.189-.586-.082-.099.057-.133.148-.129.256a.225.225 0 0 0 .155.215c.163.063.322.072.47-.047l.022.022c-.039.07-.068.149-.12.21-.09.11-.275.105-.346-.009Zm-8.839-4.687c.04.038.143.003.216.011.186.022.35-.014.481-.157.01-.01.024-.018.033-.03.038-.053.081-.043.131-.016.117.063.236.123.355.183.028.014.06.022.102.037-.062-.21-.072-.397.011-.599h-.805a8.992 8.992 0 0 1 .444-3.083l.8.293c.012-.026.027-.052.037-.08.074-.217.128-.443.224-.65.154-.327.336-.641.504-.962a3.67 3.67 0 0 1 .722-.986l-.335-.273-.343-.288a9.36 9.36 0 0 1 2.353-2.044c.042.085.08.167.123.248.076.146.153.293.234.437.033.059.076.076.14.022a.785.785 0 0 1 .186-.108c.173-.077.348-.148.522-.223.279-.121.555-.248.836-.362.203-.082.41-.154.62-.214.149-.043.306-.055.458-.085.043-.009.107-.003.096-.084a24.735 24.735 0 0 1-.088-.728c-.003-.03.032-.089.056-.092.318-.042.637-.095.957-.11.398-.018.797-.017 1.195 0 .32.014.638.064.986.1l-.21.871c1.004.118 1.908.512 2.8.983.059-.145.105-.276.165-.401.061-.128.136-.25.204-.374.901.525 1.687 1.161 2.368 1.943-.133.124-.26.246-.39.364-.088.079-.176.162-.275.224-.079.05-.058.083-.012.131.022.023.046.044.065.07.131.17.267.338.39.515.228.329.447.66.61 1.03.127.291.319.553.373.876.006.039.096.101.13.091.22-.063.434-.144.651-.215.067-.022.139-.029.206-.042.316.818.595 2.606.486 3.143l-.75.049c-.052.003-.097 0-.103.077-.013.158-.038.315-.056.472a.108.108 0 0 0 .015.065c.003.006.037-.002.054-.01.147-.066.296-.13.438-.205.08-.042.143-.031.211.014.142.095.294.15.47.13.04-.006.087.017.127.01.032-.007.08-.035.085-.062.017-.077.022-.158.023-.237.008-.558.011-1.115-.058-1.672a9.998 9.998 0 0 0-.463-2.018c-.066-.192-.142-.38-.219-.584-.272.123-.53.234-.783.356-.076.037-.114.022-.145-.045-.09-.19-.17-.386-.269-.572-.123-.23-.257-.453-.395-.675-.112-.181-.235-.356-.345-.521l.797-.577c-.284-.321-.539-.627-.812-.916a9.454 9.454 0 0 0-2.55-1.907c-.061-.032-.097-.033-.131.03-.098.176-.208.346-.292.529-.045.1-.105.113-.185.083-.128-.047-.25-.107-.376-.16-.188-.078-.374-.166-.567-.23-.241-.081-.49-.14-.734-.216-.027-.008-.063-.06-.058-.084.021-.112.053-.223.087-.332.043-.138.09-.274.137-.414a9.59 9.59 0 0 0-4.719.021l.16.642c.043.178.025.202-.148.25-.242.069-.486.129-.72.217-.267.1-.526.223-.784.347-.187.09-.2.092-.29-.096-.011-.022-.015-.047-.024-.07l-.203-.536a9.86 9.86 0 0 0-3.554 3.082l.653.348c.05.026.105.047.058.12-.08.124-.165.245-.24.373-.158.27-.316.54-.464.816-.096.18-.171.371-.26.555-.011.023-.06.049-.078.041-.192-.08-.383-.165-.571-.253-.116-.055-.148-.049-.193.073a8.719 8.719 0 0 0-.456 1.594 11.6 11.6 0 0 0-.157 1.224c-.026.43-.006.862-.004 1.293 0 .074-.012.177.03.215ZM32.17 70.7c.3.821.619 1.635.93 2.451.002.006 0 .014-.002.03h-5.734l.246.69h-3.476l.38-.697H18.63l.376-1.064c.18-.51.364-1.021.543-1.533.03-.084.074-.145.157-.179a.34.34 0 0 0 .101-.062.555.555 0 0 1 .485-.134l-.921 2.481h5.825l-.371.712h2.165l-.366-.723h5.72l-.906-2.466c.134-.027.247.018.365.069.195.084.293.225.365.425Zm.457.274c.333.866.694 1.721 1.044 2.58.003.01.001.02.002.022H27.87l.395.815H23.35l.434-.826h-5.81l.152-.397c.306-.792.611-1.585.92-2.376a.294.294 0 0 1 .113-.13c.107-.067.221-.12.342-.184l-.971 2.757h5.864l-.392.722h3.715l-.248-.704h5.745l-1.06-2.788c.205.14.377.267.47.509Zm-12.083-.797c1.585.004 3.17.003 4.755.001.07 0 .121.018.17.07.087.097.184.185.273.28.054.058.098.06.155.004.102-.102.206-.204.316-.298a.22.22 0 0 1 .132-.052c1.632-.003 3.264-.002 4.896-.004.082 0 .124.029.151.104.279.766.56 1.532.85 2.322h-5.73l.36.725h-1.926l.373-.72h-5.837c.025-.072.05-.149.077-.224.257-.686.52-1.37.766-2.061.046-.129.103-.147.219-.147Zm12.01.15.271.255c.734-.827 1.402-1.68 1.874-2.686-.193 0-.38-.002-.567.002-.022 0-.05.035-.063.06-.249.471-.53.921-.856 1.341-.125.161-.262.313-.396.471l-.516-.436c-.215.188-.437.363-.636.561a.719.719 0 0 1-.57.22c-.381-.01-.762 0-1.143 0-.027 0-.054-.004-.108-.007a7.323 7.323 0 0 0 1.19-.99 7.84 7.84 0 0 0 .953-1.202c-.18 0-.347-.002-.512.003-.029 0-.064.026-.083.051a7.348 7.348 0 0 1-.96 1.076c-.45.408-.941.754-1.482 1.03a.33.33 0 0 1-.143.035c-.835.002-1.669 0-2.503.004a.218.218 0 0 0-.13.054c-.12.105-.231.218-.347.329-.115-.112-.222-.224-.338-.327a.23.23 0 0 0-.14-.056c-.885-.003-1.77-.002-2.655-.004a.348.348 0 0 1-.153-.038 6.845 6.845 0 0 1-2.427-2.09c-.018-.025-.043-.063-.066-.064-.2-.005-.4-.003-.612-.003a7.506 7.506 0 0 0 2.142 2.193c-.058.003-.089.005-.119.005-.363 0-.726-.005-1.088.001a.472.472 0 0 1-.344-.13c-.24-.22-.483-.436-.726-.654l-.501.425c-.035-.024-.069-.044-.099-.069-.022-.018-.04-.041-.059-.064a9.432 9.432 0 0 1-1.11-1.663c-.014-.025-.042-.06-.064-.061-.187-.005-.374-.003-.566-.003.285.679 1.47 2.367 1.878 2.678l.094-.085c.107-.096.211-.195.322-.286.025-.02.087-.031.11-.015.078.056.147.126.225.196-.154.079-.297.16-.447.227-.106.047-.223.072-.332.116-.043.017-.096.052-.11.091-.296.761-.587 1.524-.878 2.286l-.319.824h5.73l-.037.076-.407.747h6.182l-.456-.807H34.2c-.003-.01-.007-.03-.015-.05-.169-.425-.337-.85-.507-1.274-.24-.597-.48-1.195-.724-1.79-.014-.034-.055-.08-.083-.08-.328-.002-.504-.261-.747-.414.22-.21.22-.209.43-.01Z"/></g><defs><filter id="a" x="-13" y="0" width="154" height="157" filterUnits="userSpaceOnUse" color-interpolation-filters="sRGB"><feFlood flood-opacity="0" result="BackgroundImageFix"/><feColorMatrix in="SourceAlpha" values="0 0 0 0 0 0 0 0 0 0 0 0 0 0 0 0 0 0 127 0" result="hardAlpha"/><feOffset dy="16"/><feGaussianBlur stdDeviation="6.5"/><feColorMatrix values="0 0 0 0 0 0 0 0 0 0 0 0 0 0 0 0 0 0 0.03 0"/><feBlend in2="BackgroundImageFix" result="effect1_dropShadow_49_740"/><feBlend in="SourceGraphic" in2="effect1_dropShadow_49_740" result="shape"/></filter></defs></svg>