<svg width="128" height="128" fill="none" xmlns="http://www.w3.org/2000/svg"><path d="M113.458 60.05c-.249-.037-.308-.096-1.019.29-.712.384-.48 0-.423-.155.058-.154 1.462-3.654 1.462-4.058 0-.404.403-.923.403-.923.058-1.02-.749-.904-.954-.904-.204 0-.296.23-.104.52.192.288.058.577.058.577s-.821 1.33-1.558 3.48c-.501 2.27-.904 1.77-.943 1.328-.038-.443.154-.346.654-1.481.5-1.135-.461-1.347-.538-1.347-.077 0-.673.02-.52-.115.154-.135 1.865-1.5 2.462-2.077.597-.577-.134-.654-.134-.654s-2.289 1.519-2.905 2.116c-.615.595-.578.308-.52.23.057-.076.789-.71 1.347-1.192.557-.48.308-.634.308-.788 0-.154-1.096-.79-1.442-.885-.346-.096-.807.404-.558.52.25.116.308.346.174.596-.135.25-.77 1.404-.827 1.558-.058.154-.289.712-.481.192s-.866-.884-1.077-.981c-.212-.097-1.116-.884-1.539-.866-.423.018-.462.288-.462.288s-.058.23.308.365c.981.732.731.5.769 1.481.038.981.404.5.404.943 0 .443.019 1.327.019 1.327s-.442.635-.442.962c0 .326-.461.5-.423-.097.037-.595-.155-.615-.27-.77-.115-.153-1.077-.788-1.289-.326-.019.673.404.827.52 1.23.115.404-.115.616-.115 1.424.924.75.943.77 1.424.154.2-.354.134-.865.403-.884.462-.057.539-.326.539-.326s.308-.635.519-1c.212-.367.501-.482.443-.328-.057.155.192.27.135.5-.058.232-.924 1.482-.924 1.482s-3.289 2.866-4.732 4.578c.577 1.615.981 2 2.405.269 1.423-1.73 3.712-3.27 4.227-3.558.515-.289 1.87-1.018 1.87-1.018s.615.249 1.23-.309.121-.234.538-.385c1.982-.732.962.211.962.211s-.212-.02-1.155.79c-.943.808-2.107 1.134-2.674 1.557-.134.424-.346.424-.346.424s-.326-.038-.943.057c-.269.924-.134.904.515.866.65-.038.504-.058.601.611.096.67-.058.62-.601.928-2.342.326-4.881 2.193-4.881 2.193-.846.903-1.654.48.5 1.788 2.154 1.692 2.5 1.212 4.058 1.962 1.559.75 1.596.23 1.654-.616.057-.846-.404-.807-.25-2.634.155-1.828-.161-1.616.097-1.693.555-.166.731-.038 2.039 0 1.25-.212.923-.961.789-1.038-.135-.077-.5-.461-.712-.79-.212-.326-.692-.134-.923.058-.232.192-.558.827-1.058.461-.386-.5.326-1.135.442-1.307.115-.174.02-.538-.249-.52-.269.019-.327-.326-.038-.326 1.289-.404 3.116-1.866 3.924-2.56.807-.693.078-1.366-.173-1.404Zm-4.267-.369c-.304-.35-.387-.162-.469-.305-.082-.142.469-.712.469-.712s.203.02.224.346c.02.325.223.895-.102 1.282-.325.386-.997.549-1.507.711-.51.163-.467 0-.467 0s.335-.627.712-.65c.977-.062 1.302-.306 1.14-.672Zm-1.099-.941c-.325.432-.549.534-.65.29l.529-.58c-.001 0 .447-.142.121.29Zm-1.709.1c-.041-.74.365-.78.365-.78h.224c.224 0 .285.259.469.075.183-.183-.062-.224.264-.325.325-.102.12.25.12.25s-.528.441-.548.502c-.021.061-.854 1.018-.894.278Zm3.215 2.651c-.061.04-.203.123-.753.234-.549.111-3.602 2.412-4.884 3.449-1.282 1.037-.855.372-.855.372s1.974-2.224 2.646-2.549c.671-.325.65-.936 1.057-.936.408 0 .917-.264 1.401-.336.484-.072 1.285-.65 1.285-.65.49-.07.164.376.103.416Zm.448-2.685c-.203.141-.245-.203-.245-.448 0-.124.21-.393.297-.264.085.124.048.642-.052.712Zm-4.599 12.066c-.773-.671-2.211-.8-.671-1.26 1.624-1.233 3.682-1.75 3.682-1.75l-.005 1.444c-.002.879-.003 1.581.005 1.729.021.346-2.573-.025-3.011-.163ZM91.911 54.958s1.527.92 1.71 1.5c.184.578.21 1.551-.132 2.525-.343.973-.603 1.947-.657 2.63-.054.684-.317 1.474-.37 1.737 0 0-.262.579.659 0 .92-.578 1.131-.526 1.394-.658.263-.132 1.052-.21 0-1.262-.151-.756.553-.868.763-.342.21.526.711.638.711.638s1.815-.19.316 1.151c-1.5 1.342-2 .735-2.737 1.235-.736.5-1.104.474-1.341.658-.237.185-.894 3.71-2.21 5-1.316 1.288-4.263 1.709-4.42.184.63-.79.71.027 1.157.027.446 0 1.947-.08 3.524-2.736 1.578-2.657.764-2.289.5-2.026-.262.263-3.393 1.657-3.393 1.657s-.526.759-1.157-.238-.08-.971.5-.919c.578.053.185.264 1.447-.315.946-.448 3.183-1.394 3.183-1.394s.464-1.69.464-2.283c0-1.722 0-4.284-.017-5.768-.185-1.107.106-1.001.106-1.001Z" fill="#C8161E"/><path d="M92.593 65.717s3.17 3.355 3.538 3.392c.367.036.994.02 1.782-.092.437.092-.037.954-1.174 1.578-1.138.624-1.955 1.207-2.873-.6-.919-1.805-1.714-4.28-1.714-4.28s.075-.38.44.002ZM69.831 56.341s-1.094 2.326-1.071 2.508c.023.183-.228 1.277.73 1.665.958.388 1.05-.501 1.05-.501l-.024-.752s.867-.785-.068-.785c-.32-.379.068-.447.068-.447l-.068-1.483s-.114-.501-.617-.205Zm2.418.593s1.483.799 2.485 0c1.003-.798 2.008-.912 2.121-.934.114-.023.593-.776.913-.844.319-.069 1.574.775 1.596.844.022.068.73.57-.89 1.003-1.619.433-2.553 1.596-2.737 1.733-.182.137-.844.319-.683-.548.615-.662 2.144-1.85.683-1.187 0 0-.091.343-.548.411 0 0-.706.046-.752.274-.045.228.296.707.296.844s.274.343-.844.958c0 0-.548.662-.683-.206-.137-.867-1.232-1.026-1.369-1.07-.137-.046-.388-.206-.092-.663.296-.456.504-.615.504-.615Zm.752 7.322c.469-.183 1.14-1.506 1.187-1.688.045-.183-.296-.662-1.095-.411-.799.25-.662-.045-.32-.274.343-.228.046-.752-.113-.844-.159-.092-.045-.228-.114-.752-.068-.525-.937-.16-.937-.16.09 1.231-.249 1.254-.249 1.254-.364.023-.775.958-.478 1.095.775.028.25.593.25.593s-1.528 1.3-1.597 1.14c-.068-.16-.182-.364-.41-.32-.228.046-.343-.205-.379.89-.036 1.095.447.707.744.615.296-.092.638-.592 1.163-1.071.525-.48.229.296.229.296l-.366.205s-.501.388-.137.615c.364.228.092.57.092.57s-1.255 1.14-1.779 1.665c-.524.525.114.48.114.48s1.026-.753 1.322-1.004c.296-.25.32-.547.388-.113.069.433-.114.501-.114.501s-.957.593-1.437.913c-.48.319-.433.045-.433-.137 0-.183-.433-.73-1.208.957.137 1.779 1.437.615 2.334-.137s.584.48.584.48-.045.48-.41.73c-.367.25-.106 1.442.295 1.984.593.319.456.205.867-.114.411-.32.639-1.62.614-2.19-.024-.57.185-.888.253-1.413.069-.525 0-.433.73-.82 1.575-.684 1.095-1.119.958-1.415-.137-.296-.319-.364-.319-.661 0-.296.296-.981-.137-.981-.274.046-.56-.296-.092-.478Zm-.795 2.377c-.285.415-.363-.26-.363-.544 0-.285.363-.908.363-.908l.156.338c.155.335.13.698-.156 1.114Zm.285-3.088.104-.617s.468-.473.544-.188c.079.285 0 .544-.272.805-.272.26-.376 0-.376 0Zm4.03-1.82s-.369-.27.657-.822c.736-.526 1.105-.473 1.394-.448.29.027 1.29.316.684 1.027-.605.71-1.973 2.262-2.288 2.473-.316.21.263.578.263.578s.5.027.605.263c.105.236.29.473-.658.921 0 0-.92-.263-1.104-1.079-.184-.816.946-2.498 1.184-2.71.237-.21.736-.684-.106-.316-.842.37-.632.113-.632.113Z" fill="#C8161E"/><path d="m75.836 63.079.106 2.638s.395.473 0 1.526c-.395 1.052-.036 1.263.035 1.422.07.157-.14.342.597.263.737-.08 3.447-.395 3.762-.579.316-.183.29-2.549 0-3.169-.29-.62 0-1.519.606-.225.127.272.578 1 .578 1.474 0 .473-.027 1.157.42 2 .19.946.344 1.552-3.09 1.579-3.276.316-3.75.342-4.486-.816 0 0-.316-2.207.395-4.01.71-1.806 1.077-2.103 1.077-2.103ZM53.837 54.188s.323-.269.807 0c.485.27 1.4.216 1.695 1.157.296.942-.672 1.184-.968 1.427-.296.242-4.44 6.486-4.87 6.54-.431.053-.727.457-.512-.835.942-.987 4.01-5.543 4.36-6.297.35-.755.268-.754-.054-1.05-.323-.296-.593-.43-.458-.942Zm-1.991 8.315s3.04-2.53 3.579-2.556c.538-.027 1.291.645.645 1.278-.645.632-1.749 1.332-1.076 1.628.673.296 1.184.914-.161 1.049-1.346.135-1.265-.147-1.507-.49-.044-.234.403-.667.457-.775.054-.107.162-.565-.888.081-1.05.646-1.05-.215-1.05-.215Zm-.404 1.641s.565-.015.62 1.257c.295 1.3.645.788.51 2.457-.046.573-.053.941-.968 1.318-.913.034-1.023-2.516-.834-2.718.188-.201.484-.31.51-1.056.028-.747-.16-1.043.162-1.258Zm1.534.969s1.749-.807 2.314-.754c.565.054 1.157-.35.565 1.696-.592 2.045-.938 2.045-1.317 2.098-.38.054-1.563-.269-1.213-1.493.757-.578 1.213-.74.107-.794-1.075-.376-.456-.753-.456-.753Zm9.015-4.01-2.045.838s-.027-.38-.34-.676c-.313-.296 0-.592 0-.592s1.766-1.13 2.681-1.803c.915-.672.377-1.372-.269-1.318-.646.054-4.601 1.952-4.601 1.952s-.565.792.619.766c1.575-.036.672.376.43 1.076-.242.7.565.188.189.942-.377.753.134.188-.35 1.124-.484.935-1.292.945-1.91 1.7-.402.916.78.674 1.022.458.242-.215.915-1.506.942-1.213.027.294.107 1.32-.27 1.9l-.134 2.65s-.35 2.314-.134 3.148c.215.834.645 1.184.834 1.184.188 0 .619-1.076.807-1.857.188-.78-.054-4.251.027-5.124.08-.874.215-.338.753-.445.538-.108 1.373-1.158 2.691-3.095 1.318-1.937-.942-1.614-.942-1.614Zm-.288 1.52c-.996.994-1.638 2.003-1.638 2.003s-.67.197-.236-1.087c.433-1.284 1.152-1.467 1.65-1.637.498-.17 1.218-.275.224.72ZM44.164 59.786c-.21-.052-1.414.236-1.938.76-.826.619-3.006 1.979-3.006 1.979s-1.813 1.294-1.524.822c.288-.471 1.021-1.545 1.205-1.86.183-.314 2.095-1.466 2.095-1.466s.236-.287 1.021-.55c.393-.131.916 0 .471-.916-.29-.6-1.205-.38-1.309-.34-.209.078-.785.392-.812.183-.027-.209.079-.863.184-1.675.105-.813-1.205-2.016-2.095-2.174-.113-.02-.638-.091-.655.445.724.34.5 3.246.262 4.373.157.602-2.279 1.283-2.513 1.361-.235.078-1.65.026-1.728.105-.079.08-.367 1.127.235 1.1.603-.027.944.053 1.047.156.104.104 0 .393 1.31.157 1.308-.236.654.42.654.42l-.34.445c-1.467 1.833-1.127 1.492-2.148 1.911-.864.864-1.834.55-2.383 1.178.367.654-.026.498.053 1.754.078 1.256-.184.838-.184 1.964.864 1.834 1.572.471 1.572.471.576-1.257-.367-2.724-.629-2.906-.192-.285-.08-.681 0-.995.367-.157 2.566-.813 2.566-.813.733.42 1.283.838 1.965.498.68-.34 1.177-1.623 1.675-1.833.498-.21.314.262.314.262s-1.675 2.251-1.78 2.46c-.105.21-.315.079-.446.157-.13.078-.47.681.106.707.576.026.445.287.367.392-.079.106-.42.106-.42.106-.262.261-.681.628-.392 1.308.288.68.261.21.702-.052.44-.262.292.287.24.367-.05.08-.24.498-.24.498.047.837.371.68 1.235.392.863-.288.628-1.466.602-1.78-.027-.315-.026-.838.392-.682.418.157 2.043 1.834 2.644 2.33.602.497 1.472.174 1.545-.287.21-2.488.078-7.998.812-9.14.367-1.488-.523-1.539-.732-1.592Zm-.838 2.278c-.157.863-.184 6.153-.262 6.676-.078.524-.392.786-1.074.367a22.261 22.261 0 0 1-1.388-.943s.445-.76-.707-.628c-.236.025-.184-.367.182-.367.367 0 .367-.916.106-.89-.262.025-.838.261-.288-.577.55-.837.76-.601.996-.89.236-.289 1.309-.969 0-1.572-1.152-.156-1.594.685-2.068 1.047-.55.236-1.23 1.073-1.44 1.113-.21.04-.785.014-.576-.379l6.048-3.456c-.001.001.628-.365.471.499ZM27.64 56.878c-.182-.045-.527-.35-1.201.048-.956.565-1.473.585-2.137 1.2-.386.682-.545.364-.84.704-.295.34-.434 1.09-.34 1.408.25.227.204.545.204.545-.045 1.18-.567 1.952-.976 2.316-.408.363-.772 1.884-1.113 1.702-.34-.182-.023-.295-.272-.454-.25-.159-.682-.159-1.113.046-.432.204-.704.567-.613.068.09-.499.363-1.362.477-2.111.703-.295 2.678-1.998 3.035-2.566.358-.567 0-.817 0-.817s-.538-.069-.924.545c-.386.613-1.589 1.77-1.566 1.294 0-1.407 1.976-3.405 2.362-3.882.386-.477-.186-.865-.546-.795-2.315 2.111-3.155 4.836-3.746 6.425-1.931.576-2.27 1.363-2.656 2.52-.387 1.158 0 4.223-.09 4.654-.091.431-.274.386-.364 0-.09-.387-.09-3.951.023-4.723.114-.771.636-1.498.886-1.861s-.003-.372-.003-.372c-1.155-1.9-1.11-2.285-.817-2.697.196-.275.556-1.194.556-1.194.277-.457.228-.965.384-1.438.155-.475.22-.506.417-.588.195-.082.523 0 .523 0s.606-.245.588-.785c-.015-.54-.244-.802-.425-1.08-.18-.277-.704-.882-1.472-.947-.768-.065-1.16.13-1.16.13.09.885.068 1.32.091 2.046.523.636.523 1.066.387 1.476-.136.408-1.201 3.258-1.199 4.03.069.273.245 1.192.29 1.76.046.567-.204 1.498-.204 1.498s.114 4.927.635 5.698c.52.772.885.704 1.022.591.136-.114 1.09-1.43.636-1.748-.454-.317-.408-.499-.408-.499s.09-.726.113-1.044c.024-.318-.023-1.044.069-1.793.092-.749.273-.862.34-1.18.069-.318.045-.432.93-.909.886-.477 1-.409 1-.273 0 .136-.204.613-.318 1.408-.114.795-.227.658-.477.817-.25.159-.75.114-.976.522-.228.409-.09 1.408-.09 1.408s.545 1.272 1.158.909c.613-.364.431-.772.431-1.09 0-.318-.34-.34-.272-.613.068-.272.325-.572.771-.976 1-.741.727.069.613.318-.114.25-.59.522-.885 1.272-.295.75 1.044.909 1.362.817.318-.09.5-.159.5-.75 0-.59.158-.477.453-.68.295-.205 1.272-1.204 1.272-1.273 0-.068-.023.023.045-.499.069-.522.39-.719.409-.386-.09.75-.658 1.543-.795 1.861-.136.318.363 2.248.023 2.725-.34.477-.227 1.477-.181 1.612.045.136.159 1.113.658.7.499-.412.363-.587.658-.95.295-.364 0-1.726.227-1.703.228.023.863 1.09 1.363 1.84.499.75 1.885 1.453 2.293-.183-.318-2.52-.318-7.673 0-9.444.318-1.771.568-2.453 1.159-2.43.883-1.317-.003-2.135-.184-2.18Zm-4.08 5.386c.07-.161.263.05.263.05s.138.091.049.304c0 0 .012.222-.08.252-.091.03-.252-.09-.232-.252 0-.001-.071-.192 0-.354Zm-.427 6.58c-.152-1.363.08-3.18.08-3.18.294-.045.908.364 1.317-.227.408-.59.532-.035.47.323-.062.358.037 3.855.211 4.15-.211.41-.863-.191-2.078-1.067Zm2.76-9.06s-.591 1.793-.591 2.407c0 .613-.15 1.408-.302 1.635-.152.228-.515.454-.358-.159.16-.613.432-1.18.454-1.567.023-.386-.817-.612-.954-.658-.136-.045-.273-.25-.273-.25s.682-1.566 1.703-1.86c1.024-.297.32.452.32.452Z" fill="#C8161E"/></svg>