<?xml version="1.0" encoding="UTF-8"?>
<svg xmlns="http://www.w3.org/2000/svg" version="1.1" viewBox="0 0 128 38.9">
  <defs>
    <style>
      .cls-1 {
        fill: #c8161e;
      }
    </style>
  </defs>
  <!-- Generator: Adobe Illustrator 28.7.1, SVG Export Plug-In . SVG Version: 1.2.0 Build 142)  -->
  <g>
    <g id="_图层_1" data-name="图层_1">
      <path class="cls-1" d="M113.5,15.5c-.2,0-.3,0-1,.3-.7.4-.5,0-.4-.2,0-.2,1.5-3.7,1.5-4.1s.4-.9.4-.9c0-1-.7-.9-1-.9s-.3.2-.1.5c.2.3,0,.6,0,.6,0,0-.8,1.3-1.6,3.5-.5,2.3-.9,1.8-.9,1.3,0-.4.2-.3.7-1.5s-.5-1.3-.5-1.3-.7,0-.5-.1c.2-.1,1.9-1.5,2.5-2.1s-.1-.7-.1-.7c0,0-2.3,1.5-2.9,2.1-.6.6-.6.3-.5.2,0,0,.8-.7,1.3-1.2.6-.5.3-.6.3-.8s-1.1-.8-1.4-.9c-.3,0-.8.4-.6.5.2.1.3.3.2.6-.1.2-.8,1.4-.8,1.6,0,.2-.3.7-.5.2s-.9-.9-1.1-1c-.2,0-1.1-.9-1.5-.9-.4,0-.5.3-.5.3,0,0,0,.2.3.4,1,.7.7.5.8,1.5,0,1,.4.5.4.9s0,1.3,0,1.3c0,0-.4.6-.4,1s-.5.5-.4,0c0-.6-.2-.6-.3-.8-.1-.2-1.1-.8-1.3-.3,0,.7.4.8.5,1.2.1.4-.1.6-.1,1.4.9.8.9.8,1.4.2.2-.4.1-.9.4-.9.5,0,.5-.3.5-.3,0,0,.3-.6.5-1,.2-.4.5-.5.4-.3,0,.2.2.3.1.5,0,.2-.9,1.5-.9,1.5,0,0-3.3,2.9-4.7,4.6.6,1.6,1,2,2.4.3,1.4-1.7,3.7-3.3,4.2-3.6.5-.3,1.9-1,1.9-1,0,0,.6.2,1.2-.3s.1-.2.5-.4c2-.7,1,.2,1,.2,0,0-.2,0-1.2.8-.9.8-2.1,1.1-2.7,1.6-.1.4-.3.4-.3.4,0,0-.3,0-.9,0-.3.9-.1.9.5.9.7,0,.5,0,.6.6,0,.7,0,.6-.6.9-2.3.3-4.9,2.2-4.9,2.2-.8.9-1.7.5.5,1.8,2.2,1.7,2.5,1.2,4.1,2,1.6.8,1.6.2,1.7-.6,0-.8-.4-.8-.2-2.6.2-1.8-.2-1.6,0-1.7.6-.2.7,0,2,0,1.2-.2.9-1,.8-1-.1,0-.5-.5-.7-.8-.2-.3-.7-.1-.9,0-.2.2-.6.8-1.1.5-.4-.5.3-1.1.4-1.3.1-.2,0-.5-.2-.5-.3,0-.3-.3,0-.3,1.3-.4,3.1-1.9,3.9-2.6.8-.7,0-1.4-.2-1.4h0ZM109.2,15.2c-.3-.3-.4-.2-.5-.3,0-.1.5-.7.5-.7,0,0,.2,0,.2.3,0,.3.2.9-.1,1.3-.3.4-1,.5-1.5.7-.5.2-.5,0-.5,0,0,0,.3-.6.7-.7,1,0,1.3-.3,1.1-.7ZM108.1,14.2c-.3.4-.5.5-.7.3l.5-.6s.4-.1.1.3ZM106.4,14.3c0-.7.4-.8.4-.8h.2c.2,0,.3.3.5,0s0-.2.3-.3c.3-.1.1.2.1.2,0,0-.5.4-.5.5,0,0-.9,1-.9.3ZM109.6,17c0,0-.2.1-.8.2-.5.1-3.6,2.4-4.9,3.4-1.3,1-.9.4-.9.4,0,0,2-2.2,2.6-2.5.7-.3.7-.9,1.1-.9s.9-.3,1.4-.3,1.3-.7,1.3-.7c.5,0,.2.4.1.4ZM110,14.3c-.2.1-.2-.2-.2-.4s.2-.4.3-.3c0,.1,0,.6,0,.7ZM105.4,26.3c-.8-.7-2.2-.8-.7-1.3,1.6-1.2,3.7-1.8,3.7-1.8v1.4c0,.9,0,1.6,0,1.7,0,.3-2.6,0-3-.2ZM91.9,10.4s1.5.9,1.7,1.5c.2.6.2,1.6-.1,2.5-.3,1-.6,1.9-.7,2.6,0,.7-.3,1.5-.4,1.7,0,0-.3.6.7,0,.9-.6,1.1-.5,1.4-.7s1.1-.2,0-1.3c-.2-.8.6-.9.8-.3s.7.6.7.6c0,0,1.8-.2.3,1.2-1.5,1.3-2,.7-2.7,1.2-.7.5-1.1.5-1.3.7-.2.2-.9,3.7-2.2,5-1.3,1.3-4.3,1.7-4.4.2.6-.8.7,0,1.2,0s1.9,0,3.5-2.7c1.6-2.7.8-2.3.5-2-.3.3-3.4,1.7-3.4,1.7,0,0-.5.8-1.2-.2s0-1,.5-.9c.6,0,.2.3,1.4-.3.9-.4,3.2-1.4,3.2-1.4,0,0,.5-1.7.5-2.3,0-1.7,0-4.3,0-5.8-.2-1.1.1-1,.1-1Z"/>
      <path class="cls-1" d="M92.6,21.2s3.2,3.4,3.5,3.4c.4,0,1,0,1.8,0,.4,0,0,1-1.2,1.6-1.1.6-2,1.2-2.9-.6-.9-1.8-1.7-4.3-1.7-4.3,0,0,0-.4.4,0h0ZM69.8,11.8s-1.1,2.3-1.1,2.5c0,.2-.2,1.3.7,1.7s1.1-.5,1.1-.5v-.8s.8-.8,0-.8c-.3-.4,0-.4,0-.4v-1.5c0,0-.2-.5-.7-.2ZM72.2,12.4s1.5.8,2.5,0c1-.8,2-.9,2.1-.9.1,0,.6-.8.9-.8.3,0,1.6.8,1.6.8,0,0,.7.6-.9,1-1.6.4-2.6,1.6-2.7,1.7-.2.1-.8.3-.7-.5.6-.7,2.1-1.8.7-1.2,0,0,0,.3-.5.4,0,0-.7,0-.8.3,0,.2.3.7.3.8s.3.3-.8,1c0,0-.5.7-.7-.2-.1-.9-1.2-1-1.4-1.1-.1,0-.4-.2,0-.7.3-.5.5-.6.5-.6ZM73,19.7c.5-.2,1.1-1.5,1.2-1.7,0-.2-.3-.7-1.1-.4-.8.2-.7,0-.3-.3.3-.2,0-.8-.1-.8-.2,0,0-.2-.1-.8,0-.5-.9-.2-.9-.2,0,1.2-.2,1.3-.2,1.3-.4,0-.8,1-.5,1.1.8,0,.2.6.2.6,0,0-1.5,1.3-1.6,1.1,0-.2-.2-.4-.4-.3-.2,0-.3-.2-.4.9,0,1.1.4.7.7.6.3,0,.6-.6,1.2-1.1.5-.5.2.3.2.3l-.4.2s-.5.4-.1.6c.4.2,0,.6,0,.6,0,0-1.3,1.1-1.8,1.7s.1.5.1.5c0,0,1-.8,1.3-1,.3-.2.3-.5.4-.1,0,.4-.1.5-.1.5,0,0-1,.6-1.4.9-.5.3-.4,0-.4-.1s-.4-.7-1.2,1c.1,1.8,1.4.6,2.3-.1s.6.5.6.5c0,0,0,.5-.4.7-.4.2-.1,1.4.3,2,.6.3.5.2.9-.1.4-.3.6-1.6.6-2.2,0-.6.2-.9.3-1.4,0-.5,0-.4.7-.8,1.6-.7,1.1-1.1,1-1.4s-.3-.4-.3-.7.3-1-.1-1c-.3,0-.6-.3,0-.5ZM72.2,22.1c-.3.4-.4-.3-.4-.5s.4-.9.4-.9l.2.3c.2.3.1.7-.2,1.1ZM72.5,19v-.6c.1,0,.6-.5.6-.2,0,.3,0,.5-.3.8-.3.3-.4,0-.4,0ZM76.5,17.2s-.4-.3.7-.8c.7-.5,1.1-.5,1.4-.4.3,0,1.3.3.7,1-.6.7-2,2.3-2.3,2.5-.3.2.3.6.3.6,0,0,.5,0,.6.3s.3.5-.7.9c0,0-.9-.3-1.1-1.1s.9-2.5,1.2-2.7c.2-.2.7-.7-.1-.3-.8.4-.6.1-.6.1h0Z"/>
      <path class="cls-1" d="M75.8,18.6v2.6c.1,0,.5.5.1,1.5-.4,1.1,0,1.3,0,1.4,0,.2-.1.3.6.3.7,0,3.4-.4,3.8-.6.3-.2.3-2.5,0-3.2-.3-.6,0-1.5.6-.2.1.3.6,1,.6,1.5s0,1.2.4,2c.2.9.3,1.6-3.1,1.6-3.3.3-3.8.3-4.5-.8,0,0-.3-2.2.4-4,.7-1.8,1.1-2.1,1.1-2.1h0ZM53.8,9.7s.3-.3.8,0c.5.3,1.4.2,1.7,1.2.3.9-.7,1.2-1,1.4-.3.2-4.4,6.5-4.9,6.5-.4,0-.7.5-.5-.8.9-1,4-5.5,4.4-6.3.3-.8.3-.8,0-1-.3-.3-.6-.4-.5-.9ZM51.8,18s3-2.5,3.6-2.6c.5,0,1.3.6.6,1.3-.6.6-1.7,1.3-1.1,1.6.7.3,1.2.9-.2,1-1.3.1-1.3-.1-1.5-.5,0-.2.4-.7.5-.8,0-.1.2-.6-.9,0s-1-.2-1-.2h0ZM51.4,19.6s.6,0,.6,1.3c.3,1.3.6.8.5,2.5,0,.6,0,.9-1,1.3-.9,0-1-2.5-.8-2.7.2-.2.5-.3.5-1.1,0-.7-.2-1,.2-1.3ZM53,20.6s1.7-.8,2.3-.8c.6,0,1.2-.3.6,1.7-.6,2-.9,2-1.3,2.1-.4,0-1.6-.3-1.2-1.5.8-.6,1.2-.7.1-.8-1.1-.4-.5-.8-.5-.8ZM62,16.6l-2,.8s0-.4-.3-.7c-.3-.3,0-.6,0-.6,0,0,1.8-1.1,2.7-1.8.9-.7.4-1.4-.3-1.3s-4.6,2-4.6,2c0,0-.6.8.6.8,1.6,0,.7.4.4,1.1s.6.2.2.9c-.4.8.1.2-.3,1.1-.5.9-1.3.9-1.9,1.7-.4.9.8.7,1,.5.2-.2.9-1.5.9-1.2,0,.3.1,1.3-.3,1.9v2.7c-.1,0-.5,2.3-.3,3.1.2.8.6,1.2.8,1.2s.6-1.1.8-1.9c.2-.8,0-4.3,0-5.1,0-.9.2-.3.8-.4.5-.1,1.4-1.2,2.7-3.1,1.3-1.9-.9-1.6-.9-1.6h0ZM61.7,18.1c-1,1-1.6,2-1.6,2,0,0-.7.2-.2-1.1.4-1.3,1.2-1.5,1.7-1.6.5-.2,1.2-.3.2.7h0ZM44.2,15.3c-.2,0-1.4.2-1.9.8-.8.6-3,2-3,2,0,0-1.8,1.3-1.5.8.3-.5,1-1.5,1.2-1.9.2-.3,2.1-1.5,2.1-1.5,0,0,.2-.3,1-.5.4-.1.9,0,.5-.9-.3-.6-1.2-.4-1.3-.3-.2,0-.8.4-.8.2s0-.9.2-1.7c.1-.8-1.2-2-2.1-2.2-.1,0-.6,0-.7.4.7.3.5,3.2.3,4.4.2.6-2.3,1.3-2.5,1.4-.2,0-1.7,0-1.7.1,0,0-.4,1.1.2,1.1.6,0,.9,0,1,.2.1.1,0,.4,1.3.2,1.3-.2.7.4.7.4l-.3.4c-1.5,1.8-1.1,1.5-2.1,1.9-.9.9-1.8.6-2.4,1.2.4.7,0,.5,0,1.8,0,1.3-.2.8-.2,2,.9,1.8,1.6.5,1.6.5.6-1.3-.4-2.7-.6-2.9-.2-.3,0-.7,0-1,.4-.2,2.6-.8,2.6-.8.7.4,1.3.8,2,.5.7-.3,1.2-1.6,1.7-1.8s.3.3.3.3c0,0-1.7,2.3-1.8,2.5-.1.2-.3,0-.4.2-.1,0-.5.7.1.7s.4.3.4.4c0,.1-.4.1-.4.1-.3.3-.7.6-.4,1.3.3.7.3.2.7,0,.4-.3.3.3.2.4,0,0-.2.5-.2.5,0,.8.4.7,1.2.4.9-.3.6-1.5.6-1.8,0-.3,0-.8.4-.7.4.2,2,1.8,2.6,2.3.6.5,1.5.2,1.5-.3.2-2.5,0-8,.8-9.1.4-1.5-.5-1.5-.7-1.6h0ZM43.3,17.5c-.2.9-.2,6.2-.3,6.7,0,.5-.4.8-1.1.4-.5-.3-.9-.6-1.4-.9,0,0,.4-.8-.7-.6-.2,0-.2-.4.2-.4s.4-.9.1-.9c-.3,0-.8.3-.3-.6.5-.8.8-.6,1-.9s1.3-1,0-1.6c-1.2-.2-1.6.7-2.1,1-.5.2-1.2,1.1-1.4,1.1s-.8,0-.6-.4l6-3.5s.6-.4.5.5ZM27.6,12.4c-.2,0-.5-.3-1.2,0-1,.6-1.5.6-2.1,1.2-.4.7-.5.4-.8.7s-.4,1.1-.3,1.4c.2.2.2.5.2.5,0,1.2-.6,2-1,2.3-.4.4-.8,1.9-1.1,1.7-.3-.2,0-.3-.3-.5-.2-.2-.7-.2-1.1,0-.4.2-.7.6-.6,0,0-.5.4-1.4.5-2.1.7-.3,2.7-2,3-2.6.4-.6,0-.8,0-.8,0,0-.5,0-.9.5-.4.6-1.6,1.8-1.6,1.3,0-1.4,2-3.4,2.4-3.9s-.2-.9-.5-.8c-2.3,2.1-3.2,4.8-3.7,6.4-1.9.6-2.3,1.4-2.7,2.5-.4,1.2,0,4.2,0,4.7,0,.4-.3.4-.4,0,0-.4,0-4,0-4.7.1-.8.6-1.5.9-1.9.3-.4,0-.4,0-.4-1.2-1.9-1.1-2.3-.8-2.7.2-.3.6-1.2.6-1.2.3-.5.2-1,.4-1.4.2-.5.2-.5.4-.6.2,0,.5,0,.5,0,0,0,.6-.2.6-.8,0-.5-.2-.8-.4-1.1-.2-.3-.7-.9-1.5-.9s-1.2.1-1.2.1c0,.9,0,1.3,0,2,.5.6.5,1.1.4,1.5-.1.4-1.2,3.3-1.2,4,0,.3.2,1.2.3,1.8,0,.6-.2,1.5-.2,1.5,0,0,.1,4.9.6,5.7.5.8.9.7,1,.6.1-.1,1.1-1.4.6-1.7-.5-.3-.4-.5-.4-.5,0,0,0-.7.1-1,0-.3,0-1,0-1.8,0-.7.3-.9.3-1.2,0-.3,0-.4.9-.9.9-.5,1-.4,1-.3s-.2.6-.3,1.4-.2.7-.5.8c-.2.2-.8.1-1,.5-.2.4,0,1.4,0,1.4,0,0,.5,1.3,1.2.9.6-.4.4-.8.4-1.1s-.3-.3-.3-.6c0-.3.3-.6.8-1,1-.7.7,0,.6.3-.1.2-.6.5-.9,1.3s1,.9,1.4.8c.3,0,.5-.2.5-.8s.2-.5.5-.7c.3-.2,1.3-1.2,1.3-1.3s0,0,0-.5c0-.5.4-.7.4-.4,0,.8-.7,1.5-.8,1.9-.1.3.4,2.2,0,2.7s-.2,1.5-.2,1.6c0,.1.2,1.1.7.7.5-.4.4-.6.7-.9.3-.4,0-1.7.2-1.7.2,0,.9,1.1,1.4,1.8.5.8,1.9,1.5,2.3-.2-.3-2.5-.3-7.7,0-9.4s.6-2.5,1.2-2.4c.9-1.3,0-2.1-.2-2.2ZM23.6,17.7c0-.2.3,0,.3,0,0,0,.1,0,0,.3,0,0,0,.2,0,.3,0,0-.3,0-.2-.3,0,0,0-.2,0-.4ZM23.1,24.3c-.2-1.4,0-3.2,0-3.2.3,0,.9.4,1.3-.2.4-.6.5,0,.5.3s0,3.9.2,4.2c-.2.4-.9-.2-2.1-1.1h0ZM25.9,15.3s-.6,1.8-.6,2.4-.1,1.4-.3,1.6c-.2.2-.5.5-.4-.2.2-.6.4-1.2.5-1.6,0-.4-.8-.6-1-.7-.1,0-.3-.2-.3-.2,0,0,.7-1.6,1.7-1.9,1-.3.3.5.3.5h0Z"/>
    </g>
  </g>
</svg>