<svg width="128" height="136" fill="none" xmlns="http://www.w3.org/2000/svg"><g filter="url(#a)" fill-rule="evenodd" clip-rule="evenodd" fill="#E60013"><path d="M102.104 54.04s-1.37-4.758-1.55-5.047l1.622-.649.538 1.623-.54.18-.322-.974-.574.289.466 1.514 1.802-.613s-.433-1.838-1.045-2.92l-2.884 1.154s1.982 5.983 1.946 6.272l2.962-.765s-.511-2.535-.727-2.787l-1.694.488.446 1.55.599-.155-.252-1.035.549-.166s.352 1.536.352 1.716l-1.261.325h-.433ZM99.6 46.936s-2.362-4.352-2.6-4.595l1.445-.983.874 1.469-.49.292-.523-.881-.498.405.78 1.378 1.629-.986s-.819-1.702-1.65-2.627L96 42.156s3.223 5.417 3.25 5.706l2.728-1.385s-1.044-2.365-1.309-2.565l-1.55.842.77 1.417.551-.28-.469-.956.5-.28s.675 1.424.713 1.6l-1.162.588-.422.093ZM95.808 40.327s-3.192-3.785-3.474-3.974l1.216-1.255 1.153 1.262-.42.385-.691-.757-.407.497 1.044 1.192 1.395-1.295s-1.145-1.502-2.146-2.239l-2.162 2.23s4.252 4.654 4.337 4.932l2.391-1.907s-1.5-2.106-1.8-2.248l-1.348 1.137 1.04 1.233.483-.386-.652-.842.433-.376s.949 1.26 1.022 1.424l-1.02.811-.394.176ZM90.625 34.721S86.85 31.52 86.54 31.38l.99-1.44 1.348 1.053-.351.45-.807-.632-.318.558 1.227 1.002 1.16-1.508s-1.378-1.291-2.487-1.852l-1.762 2.558s4.966 3.883 5.095 4.143l2.042-2.278s-1.83-1.827-2.149-1.917l-1.14 1.345 1.23 1.043.413-.461-.783-.721.365-.443s1.144 1.083 1.244 1.234l-.87.969-.36.24ZM84.657 30.108s-4.329-2.405-4.66-2.482l.691-1.604 1.526.77-.256.509-.915-.463-.202.61 1.398.743.844-1.706s-1.603-.997-2.8-1.33l-1.23 2.852s5.628 2.84 5.806 3.07l1.558-2.633s-2.15-1.435-2.481-1.461l-.857 1.541 1.41.784.315-.533-.908-.555.272-.505s1.333.84 1.46.967l-.665 1.12-.306.306ZM77.707 26.75s-4.75-1.396-5.091-1.398l.322-1.718 1.658.416-.138.553-.994-.25-.064.639 1.527.419.45-1.85s-1.784-.621-3.025-.684l-.573 3.053s6.114 1.536 6.338 1.72l.942-2.91s-2.413-.928-2.742-.88l-.496 1.691 1.547.455.19-.59-1.008-.341.154-.552s1.486.526 1.638.623l-.403 1.238-.232.366ZM70.377 24.793s-4.934-.418-5.268-.353l-.027-1.746 1.707.076-.024.57-1.024-.047.064.639 1.58.105.072-1.903s-1.872-.252-3.1-.065l.048 3.105s6.297.284 6.553.42l.342-3.04s-2.55-.427-2.862-.315l-.149 1.757 1.607.136.069-.615-1.056-.133.04-.573s1.56.22 1.73.284l-.148 1.294-.154.404ZM62.726 24.361s-4.941.317-5.261.43l-.286-1.722 1.7-.178.06.567-1.02.105.159.623 1.578-.13-.212-1.893s-1.888.029-3.076.395l.508 3.064s6.27-.652 6.544-.555l-.112-3.057s-2.585-.045-2.878.112l.114 1.76 1.61-.104-.024-.618-1.064.024-.045-.572s1.576-.014 1.752.024l.046 1.302-.093.423ZM55.162 25.3s-4.778 1.3-5.069 1.476l-.625-1.63 1.63-.515.172.543-.978.308.28.578 1.521-.444-.586-1.811s-1.845.405-2.935 1.003l1.111 2.9s6.012-1.895 6.3-1.855l-.722-2.972s-2.541.473-2.797.686l.463 1.701 1.557-.424-.147-.6-1.038.236-.158-.551s1.541-.33 1.722-.327l.306 1.266-.007.432ZM48.036 27.7s-4.39 2.29-4.637 2.523l-.959-1.46 1.483-.85.284.493-.89.51.397.505 1.392-.758-.96-1.645s-1.715.79-2.653 1.606l1.704 2.597s5.47-3.134 5.76-3.156l-1.34-2.75s-2.382 1.004-2.586 1.266l.815 1.564 1.43-.746-.271-.556-.963.453-.273-.505s1.436-.651 1.612-.687l.57 1.172.085.424ZM41.297 31.49s-3.837 3.13-4.032 3.41l-1.234-1.237 1.28-1.132.379.426-.769.678.49.415 1.21-1.024-1.272-1.416s-1.52 1.12-2.274 2.109l2.194 2.198s4.723-4.175 5.003-4.255l-1.868-2.422s-2.13 1.465-2.277 1.763l1.114 1.366 1.25-1.02-.378-.49-.852.64-.368-.44s1.274-.928 1.44-.999l.794 1.033.17.398ZM35.568 36.508s-3.29 3.7-3.437 4.007l-1.415-1.025 1.083-1.32.442.36-.651.792.55.331 1.031-1.203-1.481-1.196s-1.323 1.348-1.91 2.444l2.517 1.821s3.998-4.874 4.26-4.997l-2.229-2.094s-1.87 1.785-1.967 2.103l1.318 1.171 1.072-1.205-.452-.424-.739.766-.434-.375s1.11-1.119 1.262-1.215l.949.893.231.366ZM30.846 42.39s-2.474 4.289-2.556 4.62l-1.593-.718.794-1.514.505.264-.477.908.606.213.766-1.386-1.692-.873s-1.023 1.588-1.376 2.78l2.832 1.275s2.93-5.58 3.163-5.756l-2.606-1.6s-1.47 2.127-1.502 2.458l1.528.88.805-1.397-.527-.323-.57.9-.5-.28s.86-1.32.99-1.445l1.11.683.3.311ZM27.45 49.298s-1.601 4.685-1.619 5.025l-1.701-.397.488-1.638.546.162-.293.982.635.092.485-1.508-1.828-.53s-.698 1.756-.815 2.993l3.025.706s1.8-6.042 1.995-6.257l-2.866-1.069s-1.033 2.37-1 2.7l1.668.571.522-1.526-.58-.216-.385.992-.546-.178s.591-1.46.694-1.608l1.22.456.355.248ZM20.697 54.664s1.97.53 2.74 1.707c0 0 1.105-1.707 1.754-.529l.432.913s2.14-1.08 3.124-.36c0 0-1.562.12-1.994 1.754 0 0-.553 2.548-2.403 3.485l-.048.841s.576.577.673 1.01c0 0 1.321-1.106 3.027-.962 0 0-1.85.937-1.874 3.437 0 0-.216 2.187-1.682 2.619v.985s.769.169.961.721c0 0 1.034-1.322 2.908-1.442 0 0-1.538.962-1.298 4.038 0 0-.288 1.682-1.057 2.45l.12.77s.865.312 1.057.745c0 0 1.562-1.995 2.644-1.85 0 0-1.442 1.345-.577 3.292 0 0 .505 1.922-.553 3.605l.36.576s.842.145 1.13.841c0 0 .12-1.898 2.163-2.499 0 0-1.298 1.802.337 4.061 0 0 .384 1.25-.265 2.764l.505.721s.89.048 1.081.409c0 0 .385-2.524 1.85-2.788 0 0-1.008 2.163.313 3.004 0 0 1.634 1.802.962 3.941l.552.553s.865-.24 1.202.144c0 0-.144-1.995 1.25-3.148 0 0-.601 2.307 1.345 3.46 0 0 1.346 1.442 1.082 3.197l.576.504s.169.313-.384.24l-.625-.288s-1.97.793-3.22.048c0 0-1.658-1.322-4.11-1.105 0 0 .601-1.058 2.596-1.37 0 0-.192-.673-.072-1.274l-.529-.576s-2.836.24-3.87-.77c0 0-.96-1.658-3.34-1.49 0 0 .289-.84 2.932-1.033 0 0-.264-.673-.144-1.297l-.577-.794s-1.874.481-3.268-1.225c0 0-1.25-1.85-3.244-2.235 0 0 1.49-.6 3.124-.337 0 0-.144-.865 0-1.321l-.336-.625s-2.043.072-3.22-2.163c0 0-1.034-2.139-2.788-2.571 0 0 1.682-.505 3.316.192 0 0-.048-.721.216-1.322l-.144-.817s-2.331-.649-2.836-2.692c0 0-.697-1.922-2.235-2.86 0 0 1.539-.095 3.22.602 0 0 .025-.625.385-.89l-.048-1.057s-1.802-.336-2.259-2.643c0 0-.096-2.091-1.634-3.677 0 0 1.658.072 2.836 1.225 0 0 .408-.865.649-.961l.024-1.033s-1.418-.601-1.61-2.596c0 0 .24-3.124-1.13-4.037l-.157-.235.085.018ZM107.303 54.664s-1.971.53-2.74 1.707c0 0-1.105-1.707-1.754-.529l-.432.913s-2.139-1.08-3.125-.36c0 0 1.562.12 1.995 1.754 0 0 .553 2.548 2.403 3.485l.048.841s-.576.577-.672 1.01c0 0-1.322-1.106-3.029-.962 0 0 1.851.937 1.875 3.437 0 0 .216 2.187 1.682 2.619v.985s-.769.169-.961.721c0 0-1.033-1.322-2.908-1.442 0 0 1.538.962 1.298 4.038 0 0 .288 1.682 1.057 2.45l-.12.77s-.865.312-1.057.745c0 0-1.563-1.995-2.644-1.85 0 0 1.442 1.345.577 3.292 0 0-.505 1.922.552 3.605l-.36.576s-.84.145-1.13.841c0 0-.12-1.898-2.162-2.499 0 0 1.297 1.802-.337 4.061 0 0-.384 1.25.265 2.764l-.505.721s-.889.048-1.082.409c0 0-.384-2.524-1.85-2.788 0 0 1.01 2.163-.312 3.004 0 0-1.634 1.802-.962 3.941l-.552.553s-.865-.24-1.202.144c0 0 .144-1.995-1.25-3.148 0 0 .601 2.307-1.345 3.46 0 0-1.346 1.442-1.081 3.197l-.577.504s-.169.313.384.24l.625-.288s1.97.793 3.22.048c0 0 1.658-1.322 4.11-1.105 0 0-.6-1.058-2.596-1.37 0 0 .192-.673.072-1.274l.53-.576s2.835.24 3.868-.77c0 0 .961-1.658 3.34-1.49 0 0-.288-.84-2.931-1.033 0 0 .264-.673.144-1.297l.576-.794s1.875.481 3.269-1.225c0 0 1.249-1.85 3.244-2.235 0 0-1.49-.6-3.124-.337 0 0 .144-.865 0-1.321l.336-.625s2.043.072 3.221-2.163c0 0 1.033-2.139 2.787-2.571 0 0-1.682-.505-3.316.192 0 0 .048-.721-.216-1.322l.144-.817s2.331-.649 2.836-2.692c0 0 .697-1.922 2.235-2.86 0 0-1.538-.095-3.221.602 0 0-.024-.625-.384-.89l.048-1.057s1.802-.336 2.259-2.643c0 0 .096-2.091 1.634-3.677 0 0-1.658.072-2.836 1.225 0 0-.408-.865-.649-.961l-.024-1.033s1.418-.601 1.611-2.596c0 0-.241-3.124 1.129-4.037l.157-.235-.085.018Z"/><path d="m33.806 78.362-.666-1.4.218-.103.097.156a.421.421 0 0 0 .108.131.244.244 0 0 0 .162.052.548.548 0 0 0 .21-.06l1.551-.738-.754-1.585-1.517.722a.595.595 0 0 0-.169.113.302.302 0 0 0-.077.17.982.982 0 0 0 .06.347l-.218.105-.666-1.4.218-.104.097.157a.418.418 0 0 0 .108.13.25.25 0 0 0 .162.052.542.542 0 0 0 .21-.06l3.146-1.497c.065-.03.12-.07.165-.116a.285.285 0 0 0 .077-.168.813.813 0 0 0-.004-.19.769.769 0 0 0-.039-.175l.218-.103.666 1.4-.217.103a.978.978 0 0 0-.106-.15 1.037 1.037 0 0 0-.114-.122.219.219 0 0 0-.174-.05.705.705 0 0 0-.2.063l-1.352.643.754 1.584 1.321-.628c.065-.031.12-.07.165-.117a.282.282 0 0 0 .077-.168.832.832 0 0 0-.004-.189.775.775 0 0 0-.039-.175l.218-.104.667 1.4-.219.103a.983.983 0 0 0-.104-.15 1.06 1.06 0 0 0-.115-.121.215.215 0 0 0-.174-.05.675.675 0 0 0-.2.062l-3.143 1.496a.573.573 0 0 0-.168.114.295.295 0 0 0-.078.169.553.553 0 0 0 .013.17.97.97 0 0 0 .047.177l-.218.104ZM40.652 80.736a1.113 1.113 0 0 0-.154-.157.594.594 0 0 0-.222-.13c-.076-.02-.188.004-.337.076-.149.072-.32.172-.518.304l-1.746 1.164c-.223.148-.44.242-.652.28a1.319 1.319 0 0 1-1.367-.553 1.49 1.49 0 0 1-.237-.564 1.275 1.275 0 0 1 .011-.538c.042-.17.116-.324.222-.467.106-.142.234-.263.385-.364l2.375-1.584a.573.573 0 0 0 .149-.135.345.345 0 0 0 .056-.184.536.536 0 0 0-.031-.183.985.985 0 0 0-.063-.159l.2-.134.863 1.293-.201.134a1.09 1.09 0 0 0-.128-.137 1.013 1.013 0 0 0-.133-.108.22.22 0 0 0-.18-.025.7.7 0 0 0-.19.09l-2.22 1.48a2.678 2.678 0 0 0-.32.253 1.252 1.252 0 0 0-.257.328.858.858 0 0 0-.1.402c0 .142.056.297.17.469.107.16.23.273.368.337a.874.874 0 0 0 .432.084c.142-.008.276-.037.405-.086.128-.05.248-.112.36-.188l1.648-1.098c.21-.14.373-.265.49-.378.119-.112.183-.204.194-.276a.626.626 0 0 0-.03-.283 1.232 1.232 0 0 0-.089-.233l.201-.134.847 1.27-.201.134ZM43.838 84.497a.899.899 0 0 0-.193-.132.705.705 0 0 0-.223-.092c-.085-.01-.194.032-.329.124-.134.091-.293.22-.477.385l-2.626 2.366-.154-.17 1.421-4.324-1.85 1.666c-.207.186-.358.34-.451.46-.093.12-.144.224-.154.307-.01.063.012.156.064.279.052.123.091.2.117.232l-.18.161-1.025-1.138.18-.161c.035.032.104.076.209.133a.586.586 0 0 0 .22.086.551.551 0 0 0 .301-.102c.113-.07.285-.211.52-.422l1.767-1.591c.077-.07.146-.15.204-.241a.621.621 0 0 0 .104-.246.79.79 0 0 0-.028-.32.769.769 0 0 0-.112-.252l.18-.161.713.792-1.33 4.024 1.707-1.537c.209-.189.36-.344.453-.466.094-.121.14-.218.142-.291a.817.817 0 0 0-.067-.264 1.055 1.055 0 0 0-.12-.234l.18-.161 1.016 1.128-.18.162ZM44.52 90.982l-1.239-.94.146-.193c.116.074.22.125.313.152.093.028.154.022.184-.018a.652.652 0 0 0 .075-.135l.407-1.049-1.041-.79a10.337 10.337 0 0 0-.61.467 3.216 3.216 0 0 0-.182.16 1.256 1.256 0 0 0-.1.113c-.055.072-.054.161.003.268.058.107.14.205.245.296l-.146.192-1.12-.849.147-.192a.84.84 0 0 0 .16.072.49.49 0 0 0 .186.033.764.764 0 0 0 .246-.055c.072-.03.157-.08.258-.153.515-.368 1.092-.785 1.73-1.25l1.7-1.24.168.126-1.526 4.07a.928.928 0 0 0-.06.225.718.718 0 0 0 .017.211c.012.05.037.103.076.16a.635.635 0 0 0 .109.127l-.146.192Zm-.007-2.482.682-1.833-1.574 1.156.892.677ZM51.79 89.936a.892.892 0 0 0-.224-.063.703.703 0 0 0-.24-.017c-.084.019-.175.093-.273.223a4.603 4.603 0 0 0-.33.516l-1.737 3.079-.2-.113-.028-4.551-1.224 2.168c-.137.243-.23.437-.281.58-.05.144-.066.258-.048.34.01.063.06.145.148.244.09.1.15.16.185.183l-.119.21-1.333-.753.119-.21c.042.019.123.039.24.06.117.02.196.024.236.01a.55.55 0 0 0 .253-.192c.084-.101.203-.29.359-.565l1.168-2.07c.051-.092.091-.19.117-.294a.623.623 0 0 0 .02-.266.789.789 0 0 0-.128-.294.763.763 0 0 0-.186-.204l.119-.21.928.524.02 4.238 1.129-2c.138-.245.231-.44.281-.585.05-.146.064-.253.042-.322a.81.81 0 0 0-.147-.228 1.05 1.05 0 0 0-.188-.184l.119-.21 1.322.746-.119.21ZM60.864 92.328a1.1 1.1 0 0 0-.218.02.593.593 0 0 0-.242.09c-.063.046-.115.148-.154.31-.038.16-.068.356-.09.592l-.202 2.09c-.026.266-.09.493-.195.681a1.408 1.408 0 0 1-.384.452 1.324 1.324 0 0 1-.908.258 1.485 1.485 0 0 1-.586-.172 1.274 1.274 0 0 1-.41-.348 1.306 1.306 0 0 1-.223-.467 1.552 1.552 0 0 1-.038-.529l.273-2.841a.573.573 0 0 0-.012-.2.342.342 0 0 0-.107-.16.53.53 0 0 0-.16-.091.997.997 0 0 0-.164-.053l.023-.24 1.547.149-.023.24a1.1 1.1 0 0 0-.187.013 1 1 0 0 0-.168.035.218.218 0 0 0-.133.123.704.704 0 0 0-.05.204l-.255 2.656a2.7 2.7 0 0 0-.007.407c.01.144.04.28.092.407.056.131.14.242.249.332.11.09.266.144.47.164a.922.922 0 0 0 .494-.071.87.87 0 0 0 .339-.283c.083-.114.145-.237.188-.368.043-.13.07-.262.083-.398l.19-1.97c.023-.252.03-.457.017-.62-.013-.162-.044-.27-.093-.325a.63.63 0 0 0-.237-.156 1.246 1.246 0 0 0-.237-.077l.023-.24 1.519.146-.024.24ZM65.903 92.48a.898.898 0 0 0-.227.052.701.701 0 0 0-.22.102c-.064.057-.106.165-.13.326-.024.16-.036.365-.038.612l-.031 3.535-.23-.002-2.227-3.97-.022 2.49c-.002.279.01.494.035.644.026.15.067.257.122.32.04.05.123.098.248.142.127.045.21.068.25.07l-.002.242-1.531-.013.002-.242a1.19 1.19 0 0 0 .24-.064.572.572 0 0 0 .211-.105.547.547 0 0 0 .129-.29c.024-.13.037-.353.04-.669l.021-2.377a1.16 1.16 0 0 0-.04-.314.623.623 0 0 0-.11-.242.789.789 0 0 0-.255-.195.772.772 0 0 0-.261-.089l.002-.241 1.066.01 2.067 3.699.02-2.297c.003-.28-.01-.497-.036-.648-.027-.151-.066-.252-.119-.302a.816.816 0 0 0-.24-.129 1.055 1.055 0 0 0-.253-.07l.002-.24 1.52.013-.003.241ZM69.2 96.776l-1.676.134-.02-.24c.048-.01.115-.022.204-.038a.567.567 0 0 0 .186-.056.28.28 0 0 0 .116-.13.477.477 0 0 0 .022-.215l-.278-3.486a.58.58 0 0 0-.044-.196c-.023-.052-.072-.092-.147-.124a1.26 1.26 0 0 0-.403-.086l-.02-.241 1.678-.134.019.241c-.055.007-.119.02-.193.041-.074.02-.137.045-.192.071a.228.228 0 0 0-.123.143.581.581 0 0 0-.018.206l.277 3.483c.007.075.024.14.054.195.03.056.077.099.14.128.039.015.1.03.185.045a.992.992 0 0 0 .215.019l.019.24ZM73.467 90.887a.581.581 0 0 0-.145.087.515.515 0 0 0-.206.351 2.604 2.604 0 0 0-.02.287c0 .378.006.967.019 1.767.012.798.027 1.63.046 2.494l-.207.067a1279.52 1279.52 0 0 0-2.446-3.61.661.661 0 0 0-.317-.25.483.483 0 0 0-.177-.034.7.7 0 0 0-.163.016l-.075-.23 1.469-.477.075.23c-.122.049-.223.099-.3.15-.08.052-.109.108-.089.169a.856.856 0 0 0 .08.152l.636.936 1.254 1.85a131.613 131.613 0 0 0-.053-2.785 3.318 3.318 0 0 0-.036-.438 1.61 1.61 0 0 0-.046-.19.178.178 0 0 0-.092-.108.47.47 0 0 0-.164-.041 1.05 1.05 0 0 0-.184.006c-.06.007-.12.018-.18.03l-.076-.23 1.322-.429.075.23ZM78.786 91.957l.578 1.302-2.767 1.396-.11-.216c.046-.028.104-.068.175-.12a.657.657 0 0 0 .133-.118.282.282 0 0 0 .044-.172.552.552 0 0 0-.063-.2l-1.564-3.098a.642.642 0 0 0-.115-.165.266.266 0 0 0-.172-.072.768.768 0 0 0-.206.017 1.116 1.116 0 0 0-.188.05l-.109-.216 2.58-1.301.524 1.038-.177.09a1.765 1.765 0 0 0-.45-.388c-.191-.121-.339-.166-.44-.135-.054.017-.114.04-.184.07-.07.03-.147.066-.233.11l-.524.264.864 1.713.377-.19c.12-.06.2-.12.241-.177a.442.442 0 0 0 .073-.221 1.005 1.005 0 0 0-.031-.28 2.103 2.103 0 0 0-.092-.302l.176-.09.85 1.687-.176.088a1.955 1.955 0 0 0-.206-.283 1.008 1.008 0 0 0-.205-.192.391.391 0 0 0-.243-.071.782.782 0 0 0-.263.087l-.376.19.652 1.294c.066.13.125.229.176.296.053.068.108.11.168.129.06.018.129.014.205-.01.076-.025.18-.07.309-.135l.204-.103a1.73 1.73 0 0 0 .207-.12c.056-.038.11-.084.163-.137a.31.31 0 0 0 .092-.155c.022-.134.023-.32.003-.556a3.694 3.694 0 0 0-.07-.513l.17-.085ZM84.425 90.044l-.807.599c-.449-.23-.843-.424-1.183-.58-.34-.157-.699-.314-1.076-.47l-.306.228.912 1.23a.682.682 0 0 0 .148.15c.05.037.111.05.181.037a.61.61 0 0 0 .16-.063 1.55 1.55 0 0 0 .174-.1l.144.194-1.268.941-.144-.194c.031-.029.076-.072.133-.129a.478.478 0 0 0 .108-.135.254.254 0 0 0 .015-.171.562.562 0 0 0-.1-.196l-2.08-2.804a.739.739 0 0 0-.148-.153.216.216 0 0 0-.182-.039.882.882 0 0 0-.17.058c-.067.027-.121.054-.164.08l-.144-.194 1.385-1.027c.127-.094.258-.165.394-.214.136-.05.277-.07.423-.062a.953.953 0 0 1 .42.13c.14.08.272.201.395.367.11.15.19.295.24.436.05.141.072.278.065.413a1.19 1.19 0 0 1-.078.373 1.88 1.88 0 0 1-.185.364c.336.144.617.266.844.367.225.1.502.221.828.363.143.064.258.103.348.118.087.014.17.02.243.016a.551.551 0 0 0 .178-.047c.064-.029.115-.055.153-.08l.144.194Zm-3.256-2.067c-.174-.235-.364-.382-.571-.443a.651.651 0 0 0-.595.122l-.359.266 1.235 1.664.276-.205a.744.744 0 0 0 .306-.602c.01-.258-.087-.525-.292-.802ZM85.998 85.923c.135.03.261.083.38.158.12.074.239.177.36.31.287.316.433.657.439 1.026.006.37-.126.675-.393.918-.123.112-.269.2-.437.263a1.768 1.768 0 0 1-.483.11l.084.26-.157.142-1.14-1.199.159-.144a4.5 4.5 0 0 0 .485.306c.155.082.315.143.483.184.157.037.308.044.452.022a.766.766 0 0 0 .394-.198.761.761 0 0 0 .193-.259.552.552 0 0 0 .046-.276.772.772 0 0 0-.085-.279 1.328 1.328 0 0 0-.204-.285 1.181 1.181 0 0 0-.457-.315.847.847 0 0 0-.533-.026c-.124.033-.264.072-.422.118a5.247 5.247 0 0 1-.418.107c-.239.051-.468.043-.688-.026-.219-.068-.437-.22-.651-.457a1.505 1.505 0 0 1-.283-.438 1.386 1.386 0 0 1-.102-.482 1.127 1.127 0 0 1 .08-.447.99.99 0 0 1 .253-.366c.128-.116.264-.195.41-.236.146-.041.292-.065.436-.074l-.076-.243.156-.142 1.094 1.171-.157.143a7.598 7.598 0 0 0-.451-.302 2.097 2.097 0 0 0-.447-.21.98.98 0 0 0-.416-.048.67.67 0 0 0-.375.183.539.539 0 0 0-.175.44.754.754 0 0 0 .21.494c.14.154.285.257.433.307.148.05.305.06.47.029.15-.027.289-.06.42-.101.13-.042.26-.076.39-.106.117-.026.237-.045.359-.055.123-.01.244-.003.364.023ZM90.193 84.465l-1.06 1.306-.188-.152.114-.173a.57.57 0 0 0 .088-.173.282.282 0 0 0-.014-.174.475.475 0 0 0-.14-.164l-2.716-2.204a.585.585 0 0 0-.173-.103c-.053-.02-.116-.011-.19.021a1.262 1.262 0 0 0-.341.232l-.188-.152 1.06-1.306.187.152a1.3 1.3 0 0 0-.102.168 1.06 1.06 0 0 0-.081.188.23.23 0 0 0 .018.187c.033.057.08.109.137.156l2.713 2.202a.496.496 0 0 0 .178.096.289.289 0 0 0 .19-.014.933.933 0 0 0 .16-.103 1 1 0 0 0 .16-.142l.188.152ZM90.305 78.352l-.1.151a1.941 1.941 0 0 0-.29-.09 2.965 2.965 0 0 0-.342-.06 1.643 1.643 0 0 0-.324-.009c-.099.009-.17.034-.21.077-.038.04-.082.092-.131.159-.05.066-.094.128-.133.187l-.085.127 3.217 2.136c.063.042.127.07.193.084.064.014.129.005.19-.028.032-.017.086-.06.165-.13.078-.068.134-.125.167-.171l.201.134-.975 1.468-.202-.134c.024-.043.057-.11.103-.202a.716.716 0 0 0 .072-.202.282.282 0 0 0-.035-.178.514.514 0 0 0-.163-.157l-3.242-2.153-.085.127c-.03.046-.066.103-.108.172a2.055 2.055 0 0 0-.109.205c-.024.053-.02.128.012.224.033.097.077.194.133.295.055.1.12.199.194.296.073.097.136.173.19.228l-.102.153-1.092-.725 1.8-2.708 1.091.724ZM91.267 73.421a.539.539 0 0 0-.011.15c.002.07.01.124.025.16.025.084.047.143.065.177.018.033.071.106.161.218.18.22.367.431.561.635.195.204.442.46.743.769.11.114.202.198.277.25.074.053.189.11.345.173l.855.346c.076.03.146.045.211.044a.305.305 0 0 0 .182-.067c.032-.027.076-.08.136-.158a1.01 1.01 0 0 0 .125-.196l.224.09-.654 1.62-.224-.09.06-.215a.693.693 0 0 0 .03-.208.279.279 0 0 0-.08-.174.591.591 0 0 0-.189-.114l-1.089-.44a.732.732 0 0 0-.202-.027 9.288 9.288 0 0 0-.345-.006 59.252 59.252 0 0 0-1.776.02 2.01 2.01 0 0 0-.329.033.902.902 0 0 0-.22.077.46.46 0 0 0-.128.112.765.765 0 0 0-.091.135l-.224-.09.596-1.477.224.09c-.063.169-.096.29-.098.37-.002.078.02.126.066.145.013.005.037.01.072.013l.136.007H91.157c.217-.002.436-.004.655-.01l.853-.018c-.429-.47-.766-.832-1.009-1.086-.243-.254-.394-.394-.454-.418a.177.177 0 0 0-.133-.005.295.295 0 0 0-.113.082.656.656 0 0 0-.095.14 5.407 5.407 0 0 1-.08.147l-.224-.09.486-1.204.224.09ZM53.369 102.747c.96-.033 1.555-.524 1.784-1.473.123-.805-.11-1.291-.696-1.458-.547-.069-.898.201-1.054.806-.066.562.127.912.58 1.049.145.032.3.008.466-.071-.237.601-.622.934-1.157.996l.077.151Zm.605-2.096c.08-.507.231-.73.453-.669.246.054.318.364.216.931-.025.136-.066.3-.124.492-.152.069-.279.092-.38.07-.226-.036-.28-.311-.165-.824ZM56.56 103.48l.444.056 1.236-2.702.017-.187-1.757-.219-.14.815.153.019c.035-.134.076-.211.124-.23.037-.034.124-.041.26-.024l.87.108-1.207 2.364ZM60.995 101.209c-.971.031-1.57.54-1.794 1.528-.107.784.129 1.252.706 1.403.542.094.885-.165 1.03-.773.083-.584-.104-.938-.558-1.063a.73.73 0 0 0-.484.067c.208-.569.593-.901 1.157-.996l-.057-.166Zm-.622 2.092c-.07.523-.222.752-.456.688-.235-.052-.299-.373-.193-.965a4.6 4.6 0 0 1 .085-.365l.013-.074a.49.49 0 0 1 .382-.089c.226.036.282.305.17.805ZM61.827 103.651l-.004-.384.78-.007.003.384-.779.007ZM64.572 101.329l-.24-.014a2.83 2.83 0 0 1-.889.663l.066.136a2.28 2.28 0 0 0 .52-.214l-.042 2.102c-.003.112-.056.172-.159.179l-.274-.016-.003.169 1.406.08.004-.169-.292-.016c-.103-.006-.153-.078-.15-.216l.053-2.684ZM66.368 104.399c.951-.133 1.492-.683 1.622-1.651.038-.813-.243-1.272-.844-1.377-.55-.012-.871.292-.964.911-.008.566.22.893.685.983.148.017.3-.023.456-.119-.173.623-.521.993-1.047 1.11l.093.143Zm.385-2.147c.027-.514.154-.751.38-.713.251.028.355.329.312.904-.01.137-.035.304-.072.502-.145.084-.268.12-.37.109-.229-.013-.312-.281-.25-.802ZM69.326 103.901l1.7-.25-.072-.861-.136.02c.023.249-.064.382-.258.398l-.816.12c.104-.193.258-.43.462-.713.349-.443.482-.823.4-1.14-.13-.512-.436-.751-.919-.718-.482.096-.715.447-.696 1.051l.17-.025c.007-.343.138-.546.394-.609.286-.029.47.152.554.544.133.272-.086.854-.655 1.747a3.026 3.026 0 0 0-.16.27l.032.166ZM73.435 99.956c-.925.298-1.359.953-1.301 1.964.114.783.47 1.168 1.067 1.153.547-.06.805-.403.775-1.028-.082-.584-.36-.873-.83-.867a.73.73 0 0 0-.446.198c.041-.604.32-1.03.836-1.277l-.101-.143Zm-.019 2.181c.077.523-.005.785-.248.788-.24.016-.39-.276-.451-.873a4.266 4.266 0 0 1-.02-.374c-.005-.038-.008-.063-.008-.075a.49.49 0 0 1 .342-.192c.227-.028.356.215.385.726ZM91.368 39.934c-.004.004 0 1.306-.996 1.854 0 0 1.425.39 1.835.536 0 0 .48-.055-.294-.772 0 0-.339-.045-.448-.228 0 0 .21.026.322-.032 0 0-.235-.443.136-.16l.371.39s.329-.078 1.677-.07c0 0 .774.173 1.048-.499 0 0 .225.973-1.223.796 0 0-.715-.171-1.235-.066 0 0 .394.614.17.815 0 0 2.289.935 1.963 1.535 0 0-1.256.23-3.214.173 0 0 .455.81-.467.807 0 0-2.038-.741-2.183-.704 0 0-.157.023-.387.186 0 0 1.556 1.123 1.005 1.62 0 0-.979-.247-1.445-.745 0 0 1.615.713 1.018-.108 0 0-.702-.615-.856-.507 0 0-1.906 2.168-2.403 1.844 0 0-.74-1.133-.618-1.805 0 0 .267 1.334 1.044 1.375 0 0 1.346-.948 1.798-1.505 0 0-2.078-1.127-2.247-1.095 0 0-.696-.88-.396-.809 0 0 2.538 1.237 2.987 1.575 0 0 .123-.26 1.402-.052 0 0 1.94.223 1.007-.121 0 0-1.97-1.028-2.433-1.66 0 0 2.312 1.166 2.506 1.523 0 0 .37-.133.275-.289 0 0 .138-.001.215.167 0 0 3.383.12 2.819-.343 0 0-1.564-.986-1.9-.924l-.852.026-.149.407-.118-.427s-.947-.05-1.093-.217c0 0 2.1.13 1.203-.226 0 0-1.612-.474-2.09-.137 0 0 .038-.505.468-.95 0 0 .266-.22.47-.508 0 0-.056.757-.445 1.062l.46.075s.856-.618 1.257-1.904l.028.059.008.038Z"/><path d="M92.395 43.005s-.127.618-1.127.509l-.532-.203s.982.131 1.647-.347l.006.022.006.019ZM74.118 29.519s.882-1.31.606.231c0 0-1.177 2.373-1.63 2.797 0 0 1.093-.106 1.652-.454l.044-.76s.3.856.101 1.142c0 0-1.216.602-2.156.659 0 0-1.602 2.138-3.143 2.127 0 0 1.968-.694 2.319-2.08l-.922.009s-.417-.141-.046-.29l1.554-.256 1.55-2.881.071-.244Z"/><path d="M72.727 33.634c.004-.008 1.315 2.496 2.53 2.85 0 0 .22.353-.642.202 0 0-.733-.073-.934-.734 0 0-.645-1.714-.978-2.158l-.049-.098s.07-.053.073-.062ZM31.27 43.708c-.013-.007 2.03.817 2.15 1.511 0 0-.024-.682-.689-1.388 0 0-.511-.321-1.377-.164l-.047.013s-.023.035-.036.028ZM38.236 46.777s.082.52-.504.216c0 0-.183-.092.001-.328 0 0-.81-1.945-.17-1.954 0 0 .43.207.698.541 0 0 .2-.122.028-.307 0 0-.41-1.128-.806-1.46 0 0 .03-.61.385-.334 0 0 .575.7.838.904 0 0 2.663 2.246 3.017 3.23 0 0 .224.553-1.081.197 0 0 .892-.117.324-.634 0 0-2.462-2.723-2.85-2.821 0 0 .832 1.86 1.118 2.361 0 0-.268.374-.624.072 0 0-1.147-2.08-1.127-1.103 0 0 .442.925.647 1.286l.056.082.05.052Z"/><path d="M36.511 42.647s.576-1.128.354-1.976c0 0-.006-.5.323-.199 0 0 1.403 1.881 4.62 3.946 0 0-1.088.717-1.294.672 0 0 1.804-.304 2.222-.471 0 0 .126-.162-.44-.457 0 0-4.168-2.92-4.63-4.002 0 0-.58-1.145-1.088-.18 0 0-.007 2.35-.067 2.507l-.053.16h.053Z"/><path d="M36.957 42.836s.903-.686 1.576-.044l.314.732s.444.285.936.227c0 0-.203.402-.728.22 0 0-.498-.279-.602-.682 0 0-.322-.798-1.55-.406l.037-.033.017-.014ZM35.407 47.786s2.648 1.525 1.686.344c0 0-.942-1.426-1.327-1.551 0 0-.246.069-.355-.537l.019-2.01s-2.396-2.439-1.523-2.166l.265.062 1.372-.12s.269-.254.68.21c0 0-.306 2.477-.023 3.28 0 0 .019.165-.324.607 0 0-.086.11.308.417 0 0 1.033 1.36 1.423 1.915 0 0 1.417 1.734 1.364 2.046 0 0-.407.443-.807.007 0 0-1.267-1.111-1.555-1.31l-1.033-1.005-.17-.189Zm-1.022-5.734s.736-.102.876-.017c0 0 .395.24.423.397 0 0-.016.842-.237.692l-.999-.888-.063-.184ZM49.42 33.497c.01.033.176.216 2.13-1.698 0 0-.205-2.148.234-2.373 0 0 .502 1.117.37 1.82 0 0 .42-.008.79-.72 0 0-.272-.46-.024-.257 0 0 .468.185.341.352 0 0-1.725 2.334-3.04 2.832l-.907.135s.095-.125.106-.091ZM50.686 37.067s.004.414-.343-.143c0 0-.248-.757.284-2.4 0 0 1.21-1.887 2.873-2.943 0 0 .334-.477.715-.306 0 0 .055-.053.321.98 0 0 .677 2.895 1.289 3.935 0 0 .217 1.328-1.161.547 0 0 1.035.175.793-.563 0 0-1.247-3.201-1.264-4.14 0 0-.086-.482-.762-.112 0 0-2.175 1.708-2.05 2.312 0 0 .531.57.99-.629 0 0 .504-.452.517.031 0 0-.607.913-.195 1.063 0 0 .91.07.624.967l.233 1.21s-.1.19-.465-.867c0 0-.56.719-.71.262l.189-1.19s-.471-.168-.253-.552c0 0-.135-.302-.012-.368 0 0-.394.345-.315.587 0 0-.195.179-.393-.04 0 0-.562-.279-.856.318 0 0-.486.947-.17 1.858l.052.11.069.073Zm2.121-2.018s.331.237.258.621c0 0-.368.426-.451.171l.083-.686.11-.106Z"/><path d="M64.026 36.112c15.023 0 27.276 12.253 27.276 27.277 0 15.022-12.253 27.275-27.276 27.275S36.75 78.41 36.75 63.389c0-15.024 12.253-27.277 27.276-27.277Zm-23.6 15.658s.54-1.06 1.124-2.056c0 0 6.675-.853 14.822-5.287 0 0 .432-.396.937 0l2.38 2.019 4.289-4.542 4.181 4.542 2.776-2.127s.397-.108.649.108c0 0 10.85 5.948 14.707 4.939 0 0 1.348 2.285 1.334 2.415l-6.056.014-3.353-1.492 2.307 4.65-2.122-.004-.016 2.972-2.223.02v1.181l-1.863-.88 1.843-2.885-3.805-.08 1.822-4.445-4.325 2.082-11.796-.02-4.32-2.086 1.67 4.423h-3.603l1.704 2.981-1.639.82v-1.147l-2.228.032v-2.981H47.33l2.457-4.653-3.44 1.475-5.92.012Zm17.071 24.195 13.057.04.16 1.482-13.497.08s.28-1.723.28-1.602Zm-.6 2.683-.16.882h14.419l-.321-.882H56.896Zm-.521 2.203v.962h15.14l-.08-.962s-15.06.08-15.06 0Zm-.32 2.123-.04 1.081h15.82v-1.161l-15.78.08Zm.28-7.05-15.5-.08s3.283 6.282 9.242 9.857c0 0 5.35 3.714 12.805 3.991 0 0 7.539.582 14.496-3.63 0 0 5.812-2.92 9.777-10.201l-15.536.072 1.694 9.192-18.853-.072s1.91-9.209 1.875-9.129Zm16.638-13.377-1.392.842-.008 11.324 1.57-.111s-.089-12.104-.17-12.055Zm3.653 7.599h2.568v-4.19h-2.568v4.19Zm-6.194-5.893-3.498.036-.035 8.147 3.533 1.838v-10.02Zm-8.113-.937 3.352.036.072 9.841 3.28 1.73h-10.02l3.316-1.766v-9.84Zm-4.83.937 3.496.036.036 8.147-3.533 1.838v-10.02ZM54.68 62.27l1.659 1.119.008 11.324-1.658-.023s-.087-12.473-.009-12.42Zm-13.656-9.385h6.198l-1.663 3.16 2.994.027v3.16h2.05l-.027 1.857h-.749l-.013-1.094.018-.01-3.36.015-.014-.404h.432l.017-1.512-4.815-.013v1.523h.459l-.005.39-2.769.016-.06 13.434S36.7 66.497 38.05 59.29l2.928-2.207s-.06-4.198.046-4.198Zm-1.09-.013.022 3.56-1.617 1.276s.821-3.547 1.595-4.836Zm11.93 7.376 1.031.884-.998-.016-.033-.868Zm-3.138 9.898h2.568v-4.19h-2.568v4.19Zm7.128-17.072 1.843.782-1.17 8.33-3.46-2.427 1.946-1.057-1.37-2.451 3.293-.024s-1.13-3.204-1.082-3.153Zm2.956 1.158-1.178 8.002h1.226l.913-8.002h-.961Zm1.995 0-.842 7.979h1.202l.265-8.003-.625.024Zm1.922 0-.432 8.027 1.177-.025v-8.026s-.744 0-.745.024Zm1.827 0h.745l.432 8.002-1.153-.023-.024-7.979Zm2.62 0 .84 7.979h-1.202l-.264-8.003.625.024Zm1.994 0 1.177 8.002h-1.225l-.913-8.002h.96Zm6.888 6.016-1.032.884.999-.016.033-.868Zm10.985-7.187h-6.198l1.663 3.16-2.994.027v3.16h-2.05l.027 1.857h.748l.013-1.094-.017-.01 3.36.014.014-.403h-.432l-.017-1.513 4.815-.011v1.522h-.458l.004.39 2.77.015.06 13.435s3.017-6.937 1.666-14.145l-2.928-2.206s.06-4.198-.046-4.198Zm1.139-.016-.022 3.56 1.603 1.276s-.873-3.546-1.581-4.836Zm-16.088.09-1.843.78 1.17 8.332 3.46-2.428-1.947-1.057 1.37-2.451-3.292-.024s1.13-3.204 1.082-3.152Zm-29.736-4.606s5.688-.681 14.38-5.608c0 0 .52 0 .76.2l2.043 1.763 4.446-4.566 4.286 4.686 2.443-1.963s.24-.16.64 0c0 0 9.343 5.207 14.18 5.267 0 0-4.006-6.788-13.098-9.833 0 0-12.033-4.854-23.929 3.677-.024-.017-3.855 2.833-6.038 6.168l-.13.199.017.01ZM43.54 93.956l-.037 4.254-7.137.108s8.399 6.669 15.86 8.003l.361-1.226s12.436 2.74 22.566-.144l.504 1.442s9.409-2.415 15.825-8.111l-7.138-.036-.107-4.145s-4.723 3.1-7.606 3.749l-.505-1.118s-11.24 4.547-24.316.017l-.618 1.39s-7.172-3.423-7.653-4.183Zm33.373 5.15c-.03 0 5.047-1.983 6.278-3.065v3.304l5.047-.03s-5.708 4.056-11.716 5.768l-.09-.3s1.923-.721 2.163-.932l-1.532-4.295s-.12-.45-.15-.45Zm-24.582-1.112-1.603 5.246s11.952 4.847 26.227.017l.198-.109-1.622-4.956s-12.827 4.167-22.92-.198l-.214-.101s-.052.094-.066.1Zm-7.832-1.915.052 3.295h-4.788s3.964 3.45 11.635 5.612l.051-.258s-1.908-.727-2.072-.891c0 0 1.648-4.594 1.552-4.762 0 0-3.557-1.322-6.273-2.98l-.144-.108s-.014.077-.013.092Z"/></g><defs><filter id="a" x="-13" y="0" width="154" height="157" filterUnits="userSpaceOnUse" color-interpolation-filters="sRGB"><feFlood flood-opacity="0" result="BackgroundImageFix"/><feColorMatrix in="SourceAlpha" values="0 0 0 0 0 0 0 0 0 0 0 0 0 0 0 0 0 0 127 0" result="hardAlpha"/><feOffset dy="16"/><feGaussianBlur stdDeviation="6.5"/><feColorMatrix values="0 0 0 0 0 0 0 0 0 0 0 0 0 0 0 0 0 0 0.03 0"/><feBlend in2="BackgroundImageFix" result="effect1_dropShadow_49_9903"/><feBlend in="SourceGraphic" in2="effect1_dropShadow_49_9903" result="shape"/></filter></defs></svg>