<svg width="128" height="128" fill="none" xmlns="http://www.w3.org/2000/svg"><g filter="url(#a)" fill-rule="evenodd" clip-rule="evenodd"><path d="M47.568 81.499c-8.746-3.678-14.561-10.148-14.561-17.5 0-7.254 5.663-13.65 14.217-17.352v-.001h.003c4.914-2.126 10.781-3.363 17.077-3.363C81.56 43.283 95.6 52.577 95.6 64c0 7.33-5.782 13.784-14.486 17.467v.035h-.082c-4.842 2.035-10.582 3.214-16.73 3.214-6.147 0-11.886-1.18-16.728-3.214h-.007v-.003Zm33.353-.701C89.328 77.227 94.9 71.031 94.9 64c0-6.936-5.421-13.06-13.637-16.652H79.06c6.587 3.703 10.898 9.813 10.898 16.711 0 6.916-4.333 13.04-10.948 16.739h1.912Zm-3.416 0c2.339-1.158 4.418-2.614 6.154-4.3H44.967c1.735 1.686 3.815 3.142 6.154 4.3h26.384Zm-27.888 0c-6.616-3.7-10.948-9.823-10.948-16.739 0-6.898 4.31-13.008 10.897-16.71h-2.22c-8.216 3.592-13.637 9.715-13.637 16.65 0 7.032 5.57 13.228 13.977 16.799h1.93Zm-.144.704a40.17 40.17 0 0 0 5.22 1.5c-1.3-.42-2.546-.923-3.73-1.5h-1.49Zm3.188 0c3.48 1.46 7.446 2.288 11.652 2.288 4.206 0 8.172-.828 11.651-2.288H52.661Zm25.002 0a28.58 28.58 0 0 1-3.694 1.489 40.15 40.15 0 0 0 5.166-1.49h-1.472Zm-26.6-34.154c-7.017 3.496-11.69 9.68-11.69 16.711 0 2.599.639 5.082 1.798 7.356h46.284c1.159-2.274 1.797-4.757 1.797-7.356 0-7.031-4.672-13.215-11.69-16.71H51.064Zm-2.468 19.058 1.97-6.695h2.658l-1.15 4.12h.889l1.225-4.12h2.673l-1.898 6.695h-2.717l.469-1.78h-.898l-.479 1.78h-2.742Zm-3.214 2.126c.712-.51 1.791-.955 3-1.403 3.433.373 6.866.412 10.299.176 3.198-.264 5.417-1.182 6.558-2.817 1.65-2.211.913-4.472-2.007-5.45-3.796-1.532-6.937-2.67-7.705-3.691-1.186-1.487.256-2.653 3.13-2.642l.916-.774c1.733-1.004 5.23-1.356 9.848-1.484 2.81.112 6.59.441 9.986 2.034 1.525.824 1.582 2.425.762 3.823-1.018 1.31-2.07 2.52-3.187 3.532h-1.89l-2.548 8.745H69.3l2.575-8.8H69c.782-1.293 1.563-1.939 2.744-2.02l5.032.044c.805-.095 1.113-.348.127-.887-4.678-2.123-10.092-3.43-16.241-3.918-2.232-.28-2.673.86-1.595 1.687 1.84 1.338 3.71 2.602 5.6 3.815a33.536 33.536 0 0 1 1.978 2.017c1.809 1.45 2.81 2.089 3.34 3.122.402 1.603-1.134 3.882-2.633 4.94l-21.97-.049Zm12.427-8.793h2.59l-1.684 5.89h.918l1.755-5.89h2.606l-1.855 6.726h-6.343l2.013-6.726Zm21.726-13.093a40.455 40.455 0 0 0-6.768-1.882 28.844 28.844 0 0 1 4.957 1.882h1.811Zm-3.5 0c-3.496-1.48-7.487-2.319-11.721-2.319-4.235 0-8.226.84-11.722 2.319h23.444Zm-25.132 0a28.844 28.844 0 0 1 4.995-1.893 40.467 40.467 0 0 0-6.824 1.893h1.83Zm9.242 31.025v1.286a2.4 2.4 0 0 1-.013.308.432.432 0 0 1-.079.181.413.413 0 0 1-.173.142.614.614 0 0 1-.253.049.67.67 0 0 1-.285-.058.436.436 0 0 1-.185-.148.425.425 0 0 1-.072-.194 4.956 4.956 0 0 1-.011-.427v-1.14h.468v1.444c0 .084.005.138.013.161.009.024.026.036.052.036.03 0 .048-.013.057-.039a.784.784 0 0 0 .013-.183v-1.418h.468Zm1.339 0v1.925h-.468v-.809h-.14v.809h-.47V77.67h.47v.688h.14v-.688h.468Zm2.552 0v1.925h-.41l-.245-.875v.875h-.391V77.67h.391l.263.867v-.867h.392Zm4.144 1.925h.477V77.67h-.477v1.925Zm1.814-1.925v1.925h-.418l-.248-.875v.875h-.398V77.67h.398l.267.867v-.867h.399Zm1.095 0 .273 1.925h-.488l-.023-.346h-.172l-.028.346h-.493l.242-1.925h.69Zm-.252 1.238a24.01 24.01 0 0 1-.073-.808c-.048.368-.078.637-.09.808h.163Zm-11.93-1.238-.209 1.925h-.585c-.053-.296-.1-.632-.141-1.008-.019.16-.062.497-.13 1.008h-.582l-.21-1.925h.456l.047.671.05.649c.017-.335.06-.775.129-1.32h.487c.007.056.024.268.051.635l.051.73c.026-.464.07-.92.13-1.365h.456Zm9 0v1.925h-.476v-.809h-.143v.809h-.477V77.67h.477v.688h.143v-.688h.476Zm-1.348.84h-.476v-.336a.638.638 0 0 0-.016-.183c-.01-.024-.032-.036-.067-.036-.04 0-.064.015-.075.044a.706.706 0 0 0-.016.19v.895c0 .093.006.154.016.183.01.028.034.043.072.043.035 0 .058-.015.07-.044a.732.732 0 0 0 .016-.2v-.241h.476v.074c0 .2-.014.34-.04.424a.427.427 0 0 1-.178.218.588.588 0 0 1-.339.094.674.674 0 0 1-.345-.08.383.383 0 0 1-.18-.22 1.522 1.522 0 0 1-.044-.424v-.562c0-.139.005-.243.013-.312a.457.457 0 0 1 .268-.352.652.652 0 0 1 .274-.056c.141 0 .257.029.348.086a.407.407 0 0 1 .18.213c.029.085.043.218.043.398v.183Zm-3.998-.84.268 1.925h-.48l-.022-.346h-.169l-.027.346h-.485l.238-1.925h.677Zm-.248 1.238a24.409 24.409 0 0 1-.071-.808c-.048.368-.077.637-.089.808h.16Z" fill="#00659F"/><path d="M92.829 42.471c.135.334.093.813-.192 1.056-.297.345-.745.078-1.092-.032-.434-.134-.977-.214-1.426-.146-.022.044.026.184.04.227.004.177.091.494-.04.638-.051.068-.186.074-.261.066-.367-.035-.87-.166-1.236-.111-.06.112.114.178.183.226.312.225.41.7.437 1.065-.031.254-.383.157-.557.139a2.151 2.151 0 0 0-.84-.277c-.232-.118.218-.357.291-.458.062-.133.026-.226-.093-.307a.91.91 0 0 0-.275-.062c-.228.166-.797.756-1.001.965 0 0-1.013 1.188-1.102 1.311-.207.225-.501.529-.832.49l-.149-.05a.263.263 0 0 1-.135-.104l-.092-.138a4.94 4.94 0 0 1-.368-.837c-.072-.214-.325-.534-.325-.762.041-.016.097-.05.133-.011.296.262.697.84 1.15.741.552-.422 1.177-1.065 1.654-1.565.057-.086.218-.186.201-.302-.156-.17-.784-.154-.994-.193-.617-.05-1.356.05-1.968-.028-.225-.139-.282-.57-.365-.798-.006-.162-.182-.597-.05-.733.221.033.478.192.677.291.14.049.52.175.665.228.88.248 1.861.563 2.741.782.4-.007.856-.161 1.198-.369.072-.231-.305-.233-.447-.293a3.832 3.832 0 0 1-.485-.14c-.23-.032-.594-.08-.8-.19-.243-.028-.352-.394-.44-.586.02-.186.21-.08.31-.039l.402.15c.388.134.91.342 1.3.477.182.053.56.178.735.253.505.078 1.106-.175 1.598-.277.918-.17.864-.532.013-.791-.14-.07-.364-.2-.52-.157-.078.505-.4.995-.961.97-.482.003-.647-.18-.864-.583l-.054-.189a.21.21 0 0 1 .024-.168c.096-.156.229-.332.37-.428l.346-.131c.07-.01.29-.021.32-.104-.033-.198-.49-.208-.635-.267-.202.004-.33-.086-.371.184-.074.17-.209.44-.23.624-.08.16-.282.301-.464.297-.227-.025-.234-.334-.241-.509 0-.123.047-.388-.166-.31-.218.446-.786.685-.533-.062.076-.195.422-1.078.494-1.252.039-.153.006-.617.212-.67.36.161.283.84.251 1.167l.059.043c.206-.17.297-.68.392-.935.016-.211.031-.648.03-.858.027-.215.208-.186.318-.043.253.5.205 1.115.081 1.645-.069.246-.12.28.149.382.29-.014.712.198.605-.3-.006-.147-.142-.407-.007-.521.146-.086.237-.027.321.104.07.104.24.358.304.46.04.066.165.076.232.075.127-.036.473-.113.543-.245.278-.212.44.072.462.333.127.969-.146.72-.893.775-.06.231.312.19.445.192.46.143 1.007.346 1.476.458.198.066.287.338.342.517Zm-2.996-.682c-.05-.074-.257-.022-.326-.017-.131.039-.182.16-.193.286.03.076.118.21.17.273.18.048.283-.136.377-.256.025-.085.094-.246-.028-.286Zm-8.745-2.759c.276.085.56.47.401.737l-.169.084c-.152-.033-.49-.09-.645-.114l-.997-.012c-.176.032-.45-.02-.614.053-.895.791-2.124 1.782-3.404 1.487-.207-.037-.589-.214-.769-.323-.024-.038-.553-.319-.499-.406.072-.117.342-.002.448 0 .339.032.863.112 1.203.077.232-.06 1.07-.227 1.245-.394.115-.074.425-.192.395-.377-.413-.054-.974.12-1.389.164-.224-.028-.353-.314-.44-.492l-.137-.357c-.049-.107-.207-.38-.13-.503.237-.121.637.151.868.219.61.131 1.505.098 2.127.122.583-.621 1.156-1.51 1.56-2.258.029-.145.13-.343.19-.474l.11-.156.202-.05c.108.037.21.426.248.517.08.268.339.732.22 1.014a.53.53 0 0 1-.242.248c-.126.148-.476.509-.615.652-.032.067-.454.536-.369.625.07.029.637-.007.721-.012.124-.068.34-.111.481-.07Zm-.912 3.821c.148.15.588.29.5.553-.382.058-.788-.153-1.18-.156-.494-.179-.713.1-.895-.544.068-.581.145-1.23.218-1.814.019-.127.067-.38.096-.506 0-.16.046-.237.21-.255.237.055.184.384.199.567-.01.259.087.777.158 1.026.11.413.392.832.694 1.129Zm-8.216-2.758c.097-.004.184-.02.235.085-.122.216-.67.277-.885.378-.389.116-.896.29-1.304.212-.163-.013-.252-.246-.316-.368-.136-.205-.333-.59-.524-.747-.384.396-1.018.844-1.504 1.114-.409.169-.473.228-.721-.19l-.051.01c-.035.25-.27.488-.513.548-.089-.012-.121-.048-.144-.132l-.123-.12c-.293-.273-.677-.473-1.002-.7l.002-.081c.19-.142.345-.049.534.022.092.013.28.034.373.04.265-.051.294-1.337.362-1.521.034-.135.162-.639.197-.761l-.055-.024c-.165.158-.377.49-.523.666a2.05 2.05 0 0 0-.29.41.483.483 0 0 1-.106.136c-.194.175-.487.4-.707.498a.088.088 0 0 1-.063.004 1.537 1.537 0 0 1-.31-.134c-.312-.397-.39-.406.105-.654.101.002.257-.093.327-.16.237-.207.71-.633.939-.848.248-.242.728-.503.847-.845a3.55 3.55 0 0 1 .18-.636c-.082-.04-.153.057-.2.107l-.105.013c-.127.002-.285-.242-.351-.327-.021-.05-.17-.298-.145-.354a.56.56 0 0 1 .358-.077l.737-.373c.08-.194.193-.618.236-.826l.057-.26c.059-.04.204-.145.281-.13.159.111.819.681.598.879l.05.04c.16-.199.245.163.318.238l-.026.143-.216.138c-.157.095-.466.3-.61.413-.54 1.27-.778 2.84-.954 4.21.127.323.59.056.796-.042.22-.094.679-.58.85-.747.037-.09.234-.271.15-.373a6.418 6.418 0 0 1-.19-.4c-.07-.153-.278-.424-.212-.601.164-.091.364.105.498.18.124.036.25.264.358.313.09-.152.433-.504.391-.697l-.085-.044c-.106.042-.25.157-.362.18-.08-.01-.152-.113-.182-.18a.437.437 0 0 1-.071-.227c-.02-.085.124-.277.165-.343.084-.25.346-.657.361-.908-.245.09-.596.431-.867.468-.182-.037-.678-.154-.636-.391.578-.195 1.17-.596 1.73-.823l.225-.169.145-.362.125-.331c.004-.114.026-.374.07-.48l.142-.056.14.048c.234.169.62.398.628.723a.625.625 0 0 0 .16.081l.166.275a.192.192 0 0 1-.079.197c-.152.078-.386.223-.55.269-.277.114-.455.538-.623.768-.148.204-.372.58-.369.841.078.015.187-.028.268-.004.206.097.482.258.531.5-.042.017-.09.2-.107.233l-.166.136c-.138.204-.51.582-.567.816.654.724 1.138 1.168 2.18 1.114Zm-21.803 2.442c.217.335.496.947.453 1.355-.073.126-.167.263-.334.223-.218-.094-.553-.267-.668-.482-.367-.423-.456-1.086-.597-1.61-.095-.086-.95-2.951-1.097-2.26-.21.478-.355 1.092-.471 1.597-.27.286-.834.036-1.146-.08-.266-.26-.228-.733-.273-1.074a3.958 3.958 0 0 1-.066-.66c.005-.201-.042-.46.247-.439.03.056.104.123.175.177.084.063.16.134.227.215.166.205.37.434.578.553.066.071.558-1.16.58-1.177-.138-.368-.45-.843-.621-1.2-.179-.221-.488-.416-.645-.655-.038-.181.173-.553.243-.72.063-.088.247-.047.329-.04.138-.003.42.045.556.074.36.057.274.51.35.78.063.227.142.482.244.69.124.125.188-.108.246-.183.105-.176.328-.522.446-.689.094-.144.322-.457.459-.56.103-.044.404-.2.507-.232.56-.09.71.378.405.784a2.574 2.574 0 0 0-.643 1.122c-.058.447.081.428.46.51l.125.058c.024.027.036.117.036.117-.034.09-.113.397-.207.445-.198.17-.45.464-.626.654-.05.023-.178.092-.231.101-.071-.005-.104.035-.128.097-.042.137.914 2.128 1.087 2.509Zm-.974-4.138c-.04-.185-.02-.547-.154-.691-.073.008-.16.16-.196.214-.12.198-.37.523-.34.767.075.171.204.4.24.587.147.296.313-.074.422-.2.136-.186.072-.47.028-.677Zm-6.56 8.055c.054.12.26.467.276.892.002.055-.053.434-.132.448-.084.01-.28-.033-.362-.05a1.246 1.246 0 0 0-.227-.215c-.08-.118-.514-.793-.61-.937-.079-.091-.177-.278-.26-.367a22.84 22.84 0 0 1-.308-.51c-.292.213-.636.854-.857 1.143-.16.174-.414.595-.663.65-.36.048-.463.034-.347-.35a7.815 7.815 0 0 1 .742-1.986c.11-.223.34-.491.264-.757-.18-.29-.263-.196-.386.068-.163.213-.476.732-.612.969-.309.378-.437.993-.793 1.317-.245.19-.792.211-1.086.231-.151.009-.192-.13-.233-.25.75-.725 1.525-1.492 2.173-2.312.128-.18.384-.41.46-.614-.093-.126-.206-.48-.4-.472-.291.324-.117 1.08-.487 1.312-.28-.06-.73-.141-1.015-.149l-.039-.08c.064-.095.217-.274.168-.397-.197-.211-.578-.38-.717-.638-.027-.222.205-.17.348-.154.302-.01.67.088.966.096.072-.092-.017-.267.046-.36.147-.03.327.02.474.011l.031-.063c-.08-.21-.327-.37-.486-.514-.07-.084-.033-.215-.002-.305.007-.084.115-.09.178-.11.074-.011.207 0 .244-.082-.004-.044-.002-.446-.027-.476-.25-.1-.744.646-.93.802l-.331.437c-.072.158-.207.317-.4.277-.256-.062-1.01-.065-.772-.494.181-.097.434-.33.62-.403.233-.172.518-.352.754-.521.075-.058.429-.259.434-.372l-.036-.057c-.147.029-.521-.178-.657-.29-.204-.103-.858-.284-.95-.37-.162-.257-.05-.318.18-.415.075-.056.973-.052 1.036-.02.072.027.222.311.254.354.002.056.155.312.184.363.014.076.06.278.108.34.441-.176.372-.541.274-.917-.1-.357-.149-.856.024-1.196.282-.142.906.119 1.192.173.212.163.23.391.195.636-.082.21-.285.653-.43.824-.371.346-.39.349-.435.861l-.074.416c.003.058.165.049.199.059.112.02.342.155.439.05.117-.15.26-.368.26-.567-.014-.108-.056-.334-.115-.427l-.124-.205c-.005-.131.022-.237.156-.283.171.005.44.047.609.07a.567.567 0 0 1 .423-.021c.12.128.01.381-.048.515-.043.145-.19.292-.223.439.022.086-.135.773.04.767.218-.27.4-.729.579-1.023a.546.546 0 0 1 .49-.2c.172.026.424.096.518.259-.067.367-.476.814-.642 1.157-.133.208-.3.461-.446.705-.085.174-.142.19-.084.285.148.028.526-.001.683 0 .29-.014.65-.1.487.348-.197.363-.618.723-.768 1.107.055.099.346.559.413.664.126.226.484.641.593.884Zm-1.653-2.608c-.054.112.19.439.275.478l.014.017s.085-.032.126-.086c.042-.054.055-.187.055-.187-.077-.125-.335-.175-.47-.223Zm-1.725-4.255c-.034.044-.044.137-.035.19.006.058.002.349.045.392.063.062.162-.01.196-.071a.59.59 0 0 0 .106-.337c-.035-.128-.184-.217-.312-.174Zm1.334 5.469c-.04-.068-.11-.222-.215-.174-.184.474-.515.96-.672 1.444l.02.03c.09-.018.26-.275.313-.341.138-.17.404-.527.522-.71.038-.068.08-.175.032-.249Zm.784-2.753c-.164.008-.277.266-.345.39-.126.23-.423.463-.459.733.3.124.38-.096.456-.332.066-.096.166-.3.195-.413.075-.088.196-.256.153-.378Zm-1.05-.315c-.113-.083-.252.048-.355.09-.148-.008-.182.13-.129.245.157.182.25.51.44.66.056.026.109-.032.14-.07a.465.465 0 0 0 .12-.31c0-.213-.134-.428-.217-.615Zm16.782-7.844c.027-.071.061-.13.135-.117.42.112.67.714.417 1.083-.134.216-.487.23-.706.32-.446.161-.951.567-1.344.827l-.207.048c-.061.028-.165.101-.234.07-.045-.046.147-.19.163-.215.297-.404.724-.937 1.111-1.259.077-.103.78-.579.665-.757Zm-.242 1.928c.187.008.463.13.558.297.108.088.274.234.273.386-.116.247-.291.61-.328.885l-.048.421c-.004.083-.085.305.075.29.038-.072.288-.347.345-.412.112-.134.249-.468.404-.542.044.062.076.183.047.256a8.044 8.044 0 0 1-.378.787c-.139.275-.484.642-.437.97.028.203.09.446.077.65.014.099.12.224.048.316-.076.107-.228.165-.356.168-.09-.056-.27-.083-.33-.177-.029-.118-.012-.354-.097-.445-.068-.01-.28.291-.319.334-.1.096-.27.394-.428.394-.192-.11-.175-.401-.278-.577-.059-.432.374-.78.529-1.154.186-.143.283.256.282.315 0 .06-.053.085-.048.124 0 0 .064.027.104.005a.578.578 0 0 0 .138-.21c.003-.033-.051-.583-.056-.647-.006-.063-.003-.385-.003-.385s0-.537-.076-.539c-.386.2-.84 1.245-1.424 1.295-.052.005-.131.015-.183.009-.185-.022-.406-.12-.525-.27.676-.647 1.695-1.138 2.172-1.975.038-.193.056-.478.262-.569Zm.847-.5c-.052-.686.974.113 1.098.375.117.325-.018.723-.11 1.039-.021.338.422.537.452.867l.014.238c-.023.095-.137.235-.112.333l.04.017c.076-.033.398-.332.471-.387.06-.04.046-.22.047-.28-.099-.589-.106-1.389-.214-1.974-.017-.174-.075-.554-.141-.715-.1-.292-.283-.72 0-.963 1.1.088 1.187.716 1.029 1.64a.534.534 0 0 0-.008.1c.005.34-.032.795.002 1.122.006.036.02.135.07.145.213-.168.293-.505.352-.755.005-.058-.05-.34.037-.365.077.007.104.106.117.203a.57.57 0 0 0 .135.293c.106.124.219.273.277.396.055.209-.507.703-.608.854-.217.186-.28.283-.254.575.05.363.073.91.12 1.27.006.237.199 1.463.08 2.224-.022.135-.164.374-.304.426-.317.036-.261-.19-.297-.411-.103-.915-.216-2.172-.325-3.08-.057-.018-.218.221-.25.254l-.321.309c-.19.107-.49.19-.631-.034-.035-.184.149-.487.205-.659.044-.192.035-.453-.063-.628-.077-.2-.156-.483-.243-.678-.002-.228.154-.527.047-.75-.258-.274-.618-.624-.712-1.002Z" fill="#D9282F"/><path d="M64 97.433c-24.262 0-44-14.998-44-33.433 0-18.435 19.738-33.433 44-33.433S108 45.565 108 64c0 18.435-19.738 33.433-44 33.433Zm0-65.57c-23.547 0-42.704 14.416-42.704 32.137 0 17.72 19.157 32.137 42.704 32.137S106.705 81.72 106.705 64c0-17.721-19.157-32.138-42.705-32.138Z" fill="#00659F"/><path d="m35.26 85.152-.119.151-1.149-.875.119-.152.073.056a.227.227 0 0 0 .222.03.61.61 0 0 0 .22-.15c.062-.055.204-.223.423-.504l2.872-3.67c.224-.286.357-.47.4-.55a.572.572 0 0 0 .075-.242.208.208 0 0 0-.084-.191l-.073-.056.12-.153 1.149.876-.12.153-.073-.056a.225.225 0 0 0-.22-.031.638.638 0 0 0-.222.147 5.502 5.502 0 0 0-.423.505l-2.872 3.671a5.74 5.74 0 0 0-.4.55.604.604 0 0 0-.074.242.207.207 0 0 0 .083.193l.073.056Zm7.1-3.541-.118.178c-.112-.02-.274.054-.484.224-.157.127-.47.463-.972.982l-3.579 3.71-.057-.038 2.072-5c.29-.7.495-1.098.534-1.228.04-.132.022-.243-.052-.332l.119-.178 1.144.758-.12.178-.038-.025c-.103-.069-.196-.08-.28-.035a.524.524 0 0 0-.182.184c-.038.057-.079.129-.122.213-.042.084-.15.316-.325.694l-1.648 3.572 2.392-2.568c.288-.31.48-.522.57-.631.092-.11.166-.207.221-.29.063-.095.111-.186.14-.272a.44.44 0 0 0 .03-.222.308.308 0 0 0-.146-.215l.119-.178.782.519Zm1.287.992-1.434 2.327.048.028c.138.08.51.477.853.165.215-.195.123-.157.41-.545l.18.052-1.289 2.148-.192-.076c.208-.309.186-.215.271-.461.085-.246.102-.305.085-.416-.016-.11-.48-.383-.595-.451l-1.014 1.688c-.198.33-.313.534-.346.615a.508.508 0 0 0-.044.218c.001.066.038.118.108.16l.146.084c.227.133.487.11.78-.069.293-.177.373-.186.752-.682l.176.185-1.107 1.366-2.108-1.232.097-.163.081.047c.071.041.147.043.227.006a.587.587 0 0 0 .2-.17c.055-.062.173-.243.354-.545l2.367-3.942c.163-.271.26-.439.29-.504a.734.734 0 0 0 .077-.277c.004-.11-.034-.187-.113-.234l-.081-.047.099-.164 2.041 1.193-.735 1.462-.196-.094c.225-.454.162-.428.212-.653.05-.225.045-.416-.018-.571-.035-.094-.145-.193-.33-.3l-.252-.148Zm.741 4.267-.914 1.736c-.176.336-.279.55-.308.642a.512.512 0 0 0-.024.246c.014.07.077.13.189.178l-.089.169-1.253-.546.088-.168c.114.049.204.056.273.019a.613.613 0 0 0 .194-.17c.062-.08.18-.284.356-.62l2.114-4.017c.177-.335.28-.55.31-.644a.495.495 0 0 0 .022-.244c-.013-.071-.076-.13-.188-.178l.09-.17 1.137.495c.297.13.485.276.568.439.083.162.094.403.034.72-.06.315-.188.661-.385 1.035-.24.457-.504.805-.791 1.048a1.144 1.144 0 0 1-.572.272l-.514 2.353c-.066.304-.1.497-.103.578 0 .116.03.192.09.23l-.088.169-.772-.336.697-3.166-.161-.07Zm1.598-3.036-1.427 2.712.103.045c.167.073.312.09.436.048.124-.042.263-.154.417-.336.154-.181.317-.434.488-.76.249-.472.388-.839.42-1.103.032-.264-.05-.437-.244-.522l-.193-.084Zm3.433.86-.766 2.192-.084-.026c.16-.56.222-1.03.189-1.413-.034-.381-.14-.6-.318-.655-.138-.042-.28.011-.423.163-.145.15-.258.34-.341.57a1.69 1.69 0 0 0-.097.4c-.016.164-.007.334.027.507.025.127.104.361.237.703.186.478.274.901.265 1.271-.009.37-.092.77-.248 1.203-.198.548-.458.993-.78 1.332-.322.339-.621.467-.897.381a.518.518 0 0 1-.224-.139 1.446 1.446 0 0 1-.205-.327c-.042-.085-.084-.133-.125-.145-.036-.011-.084.008-.147.06a1.01 1.01 0 0 0-.202.267l-.075-.023.894-2.477.075.023c-.192.715-.269 1.28-.23 1.7.037.42.154.659.35.72.152.047.309-.015.47-.184a1.81 1.81 0 0 0 .383-.645c.056-.155.093-.31.11-.467.018-.154.016-.309-.008-.461a3.212 3.212 0 0 0-.19-.626c-.144-.371-.234-.676-.27-.917a2.885 2.885 0 0 1-.003-.77c.033-.272.105-.562.215-.87.189-.521.43-.942.724-1.26.294-.317.564-.437.809-.362a.49.49 0 0 1 .232.157c.05.06.102.154.155.288.053.132.1.205.135.216.036.011.073-.007.111-.052.04-.044.103-.163.191-.354l.061.02Zm4.495 1.366-.544 1.79-.074-.018c.082-.426.123-.735.124-.928a1.125 1.125 0 0 0-.089-.488c-.034-.074-.116-.125-.246-.159l-.208-.053-1.55 5.1c-.103.337-.16.55-.17.64a.55.55 0 0 0 .025.245c.027.076.08.124.16.145l.092.023-.055.18-1.46-.377.054-.18.093.024c.08.021.157.003.227-.052a.602.602 0 0 0 .155-.213c.039-.073.109-.276.21-.608l1.55-5.1-.202-.052c-.187-.049-.352.01-.495.177-.2.232-.389.589-.569 1.069l-.078-.02.545-1.792 2.505.647Zm3.308.618-.033.189a.387.387 0 0 0-.259.165c-.097.13-.28.502-.547 1.11l-1.074 2.396-.291 1.662c-.062.355-.094.577-.092.666 0 .087.019.168.054.24a.213.213 0 0 0 .17.128l.165.023-.033.187-1.652-.238.033-.187.154.022a.251.251 0 0 0 .225-.077.596.596 0 0 0 .132-.231c.03-.078.075-.29.136-.635l.242-1.379-.177-3.043c-.036-.602-.073-.956-.112-1.068-.038-.112-.104-.175-.197-.192l.033-.188 1.411.203-.033.189-.063-.01c-.085-.011-.15.007-.194.061a.361.361 0 0 0-.083.175c-.02.12-.017.435.013.941l.133 2.353.894-1.997c.22-.488.345-.814.374-.98a.419.419 0 0 0-.017-.235c-.034-.091-.116-.155-.245-.191l.033-.189.9.13Zm3.128.472c.467.007.803.362 1.01 1.063.207.702.25 1.557.127 2.566-.104.862-.303 1.61-.597 2.242-.39.84-.846 1.232-1.366 1.178-.52-.054-.873-.51-1.058-1.37-.145-.678-.164-1.466-.055-2.364.122-1.01.37-1.836.745-2.478.374-.643.772-.922 1.194-.837Zm-.012.323c-.266-.028-.505.27-.72.89-.176.508-.323 1.251-.441 2.226-.14 1.16-.158 2.026-.051 2.599.074.4.22.611.438.634.147.015.28-.056.398-.212.15-.2.29-.532.416-.995.127-.462.236-1.07.328-1.825.109-.9.154-1.576.137-2.028-.017-.454-.07-.778-.158-.974-.088-.195-.204-.3-.347-.315Zm2.286.327-.046 2.82.083.001a.396.396 0 0 0 .31-.132c.082-.09.152-.243.21-.458.06-.215.1-.507.123-.874h.073l-.056 3.448-.073-.002c-.016-.651-.082-1.081-.196-1.29-.115-.21-.248-.316-.398-.319h-.082l-.035 2.1c-.005.35 0 .57.014.659a.57.57 0 0 0 .09.23.219.219 0 0 0 .19.104l.094.001-.003.187-1.49-.022.004-.187.094.001a.234.234 0 0 0 .201-.104.562.562 0 0 0 .088-.242c.017-.08.028-.292.034-.637l.074-4.515c.006-.35.002-.57-.012-.658a.549.549 0 0 0-.09-.231.222.222 0 0 0-.188-.102l-.095-.001.004-.189 2.402.036-.032 1.97-.086-.002c-.012-.463-.057-.806-.133-1.03-.078-.224-.191-.381-.343-.475-.082-.051-.238-.08-.464-.083l-.266-.004Zm7.604-.864.457 2.382-.083.015c-.181-.61-.39-1.064-.624-1.365-.234-.299-.46-.43-.676-.39-.18.034-.322.187-.425.462-.103.276-.152.618-.144 1.03.008.528.072 1.104.191 1.728.118.615.258 1.17.421 1.663.162.493.338.857.527 1.089.189.234.394.329.616.288.182-.034.33-.158.446-.376.115-.217.212-.572.291-1.067l.114.594c-.085.431-.198.755-.34.967a.837.837 0 0 1-.563.386c-.308.056-.61-.04-.906-.29-.296-.25-.562-.638-.798-1.165a7.866 7.866 0 0 1-.533-1.724 7.917 7.917 0 0 1-.14-1.905c.03-.615.137-1.108.32-1.477.183-.37.413-.58.69-.63.202-.038.437.026.703.194.155.097.25.144.285.137.046-.008.077-.055.095-.141a1.255 1.255 0 0 0-.007-.39l.084-.015Zm3.063 6.32.036.183-1.42.29-.035-.184.09-.018a.229.229 0 0 0 .17-.144.575.575 0 0 0 .033-.255c0-.081-.033-.292-.1-.63l-.86-4.432a5.356 5.356 0 0 0-.149-.641.545.545 0 0 0-.133-.208.212.212 0 0 0-.2-.06l-.09.019-.036-.185 1.42-.29.036.186-.09.018a.227.227 0 0 0-.17.142.6.6 0 0 0-.036.256c.001.083.035.293.1.63l.862 4.431c.067.345.116.558.148.642a.575.575 0 0 0 .134.207.21.21 0 0 0 .2.062l.09-.019Zm20.51-8.587-.107-.155.086-.06a.25.25 0 0 0 .12-.2.622.622 0 0 0-.06-.276c-.028-.067-.145-.248-.35-.542l-2.614-3.755c-.203-.291-.337-.469-.402-.532a.524.524 0 0 0-.22-.132.257.257 0 0 0-.23.04l-.087.06-.11-.156 1.17-.815c.313-.217.63-.299.95-.246.389.066.805.285 1.245.662.442.377.864.856 1.268 1.436.28.402.507.792.683 1.171.177.38.294.712.354.997.06.287.075.539.045.758-.03.218-.109.426-.235.622-.055.088-.168.191-.336.309l-1.17.814Zm-2.75-6.077 3.1 4.453c.164.236.27.376.316.422a.32.32 0 0 0 .137.086c.065.02.13.005.195-.041.214-.15.267-.423.158-.822-.147-.54-.536-1.263-1.17-2.173-.51-.732-.969-1.28-1.38-1.645-.322-.284-.59-.442-.808-.475-.153-.023-.336.042-.548.195Zm10.144-21.957 2.334-.607.567 2.423-.179.054-.021-.09a.214.214 0 0 0-.147-.16.546.546 0 0 0-.253-.009c-.079.009-.285.064-.616.166l-4.327 1.328a5.63 5.63 0 0 0-.626.215.599.599 0 0 0-.199.158.234.234 0 0 0-.052.211l.021.09-.18.056-.34-1.455.18-.055.028.118c.019.08.066.133.146.161a.58.58 0 0 0 .252.01c.081-.009.287-.064.617-.165l4.19-1.287c.336-.103.55-.177.638-.22a.408.408 0 0 0 .184-.159c.022-.043.016-.128-.013-.256l-.054-.227a.42.42 0 0 0-.268-.307c-.145-.058-.359-.083-.641-.07-.282.01-.689.063-1.222.16l-.019-.083Zm-69.097-6.38-1.766-1.205c-.291-.199-.479-.316-.562-.351a.543.543 0 0 0-.252-.041.261.261 0 0 0-.205.121l-.06.09-.156-.106.957-1.401.155.105-.061.09a.277.277 0 0 0-.039.248.524.524 0 0 0 .149.217c.055.06.227.188.514.384l3.751 2.561c.291.2.479.316.562.351.083.036.166.05.25.043a.264.264 0 0 0 .205-.123l.06-.089.157.107-.956 1.4-.157-.106.06-.09a.276.276 0 0 0 .041-.246.55.55 0 0 0-.147-.22c-.057-.06-.23-.188-.515-.383l-1.615-1.102-.646.946 1.615 1.102c.291.2.479.316.562.352a.523.523 0 0 0 .252.042.268.268 0 0 0 .204-.124l.06-.087.156.106-.956 1.4-.156-.107.06-.087a.274.274 0 0 0 .04-.248.57.57 0 0 0-.147-.22c-.058-.06-.229-.187-.515-.382l-3.75-2.561c-.292-.2-.48-.316-.563-.352a.522.522 0 0 0-.251-.042.265.265 0 0 0-.206.123l-.06.088-.155-.106.956-1.4.155.106-.06.087a.276.276 0 0 0-.039.249c.016.06.065.133.147.22.056.058.228.186.515.382l1.766 1.206.646-.946Zm1.505 4.055-.937 1.407-.16-.107.047-.07c.07-.106.095-.194.075-.265a.519.519 0 0 0-.14-.215c-.073-.072-.276-.22-.608-.442l-2.86-1.905c-.525-.35-.883-.56-1.078-.638a1.3 1.3 0 0 0-.543-.099.463.463 0 0 0-.38.208c-.099.147-.112.32-.038.519.073.199.217.407.433.625.215.218.633.534 1.254.947l2.383 1.588c.262.174.457.285.586.334.129.05.228.07.296.06.107-.017.196-.08.27-.191l.16.107-.628.942-.16-.107.037-.056a.278.278 0 0 0 .028-.256.813.813 0 0 0-.223-.308 3.794 3.794 0 0 0-.479-.357l-2.219-1.478c-.687-.458-1.168-.81-1.445-1.054a2.494 2.494 0 0 1-.634-.868c-.147-.334-.126-.643.062-.925.157-.235.346-.373.567-.412.3-.052.619-.02.954.099.336.12.746.34 1.233.664l2.86 1.906c.336.224.55.355.644.392.094.037.179.05.256.04.078-.01.153-.074.227-.191l.16.106Zm-6.335 1.88.473-1.005-.833-.614c-.19-.14-.233-.238-.368-.303-.18-.086-.325-.115-.435-.092-.067.015-.142.089-.229.225l-.174-.083.388-.947.174.083c-.007.119.054.248.183.388.128.139.294.375.743.703l4.627 3.37-.078.146-5.543-1.498c-.536-.145-.883-.207-1.038-.205-.117.001-.308.042-.36.12l-.173-.082.67-1.378.173.083-.023.056c-.045.11-.041.206.01.283a.487.487 0 0 0 .198.15c.056.027.117.05.18.07.03.01.164.019.38.105l1.055.426Zm.44.095 2.117.427-1.72-1.167-.397.74Zm3.216 4.512-6.156-2.842-.098.545c-.047.258-.042.445.017.562.09.189.289.374.59.553.304.18.723.341 1.261.485l-.015.083-2.453-.56.474-2.625 6.166 2.846.077-.425c.03-.165.038-.276.023-.332a.683.683 0 0 0-.21-.325 1.769 1.769 0 0 0-.478-.308 5.375 5.375 0 0 0-.792-.28l.014-.079 1.99.437-.41 2.265Zm-3.913.994-2.141-.257c-.353-.042-.575-.06-.666-.054a.557.557 0 0 0-.242.074.238.238 0 0 0-.123.19l-.011.102-.188-.023.172-1.592.188.023-.011.1a.26.26 0 0 0 .085.227.555.555 0 0 0 .235.119c.079.026.292.06.64.102l4.547.545c.354.042.576.06.666.054.09-.005.171-.03.243-.072a.24.24 0 0 0 .12-.191l.012-.101.19.022-.173 1.592-.19-.022.012-.101a.258.258 0 0 0-.084-.226.58.58 0 0 0-.235-.122c-.08-.026-.293-.06-.64-.101l-1.957-.235-.117 1.076 1.958.234c.354.042.576.06.666.055.09-.006.17-.03.242-.073a.244.244 0 0 0 .122-.193l.01-.099.19.023-.172 1.59-.19-.022.011-.1a.257.257 0 0 0-.083-.226.601.601 0 0 0-.235-.121c-.08-.026-.293-.06-.64-.102l-4.547-.544c-.354-.043-.576-.06-.666-.055a.538.538 0 0 0-.242.073.24.24 0 0 0-.123.193l-.011.099-.188-.023.172-1.59.188.022-.011.099c-.01.09.02.165.085.227a.592.592 0 0 0 .235.121c.078.026.292.06.64.102l2.14.256.117-1.075Zm3.568 3.902c.084.456-.209.846-.874 1.17-.667.325-1.52.516-2.562.573-.889.049-1.68-.015-2.375-.19-.922-.234-1.407-.61-1.454-1.126-.047-.517.343-.94 1.173-1.27.656-.26 1.447-.417 2.373-.468 1.04-.057 1.922.04 2.642.293.722.252 1.08.591 1.077 1.018Zm-.328.044c-.024-.263-.37-.445-1.037-.547-.547-.082-1.325-.095-2.33-.04-1.196.066-2.073.201-2.628.405-.39.142-.574.322-.554.538.013.146.11.263.29.35.232.112.594.19 1.085.233.49.043 1.125.043 1.903 0 .928-.051 1.618-.125 2.07-.221.454-.096.771-.204.952-.325.178-.12.262-.25.25-.393Zm.568 2.088L26.985 70.3l2.895-.646c.403-.09.67-.178.8-.263.175-.117.241-.26.196-.433l.185-.041.229 1.032-.185.04c-.065-.123-.132-.2-.2-.234a.688.688 0 0 0-.306-.043 4.193 4.193 0 0 0-.681.113l-5.606 1.252-.018-.08 5.137-3.364-4.28.956c-.386.087-.638.186-.756.299-.119.112-.165.222-.142.327l.016.074-.183.04-.246-1.108.183-.04c.042.171.145.274.309.308.164.034.424.012.782-.068l4.751-1.061.165-.107c.163-.106.267-.19.313-.254a.318.318 0 0 0 .045-.24l.185-.04.246 1.107Zm1.436 4.066-2.234 1.004-.028-.073c.577-.362.991-.701 1.24-1.019.251-.316.337-.578.257-.786-.077-.198-.274-.302-.592-.313-.317-.012-.723.061-1.221.22-.498.16-.999.353-1.5.579-.608.273-1.129.543-1.564.808-.434.265-.734.513-.897.744-.164.23-.21.437-.139.62a.441.441 0 0 0 .126.174c.058.053.132.1.221.142l2.198-.847c.255-.099.409-.193.475-.24a.568.568 0 0 0 .165-.178c.042-.07.05-.14.026-.203l-.026-.068.172-.078.44 1.173-.171.077c-.054-.09-.112-.144-.175-.16a.61.61 0 0 0-.275.02 3.558 3.558 0 0 0-.442.178l-2.141.96a1.873 1.873 0 0 1-.613-.344 1.263 1.263 0 0 1-.359-.507.96.96 0 0 1 .004-.736c.1-.24.257-.482.474-.729.218-.246.48-.48.785-.702a8.02 8.02 0 0 1 1.392-.786c.953-.429 1.813-.65 2.578-.666.766-.016 1.23.188 1.395.613.05.13.072.26.064.388-.004.069-.04.194-.106.374-.067.18-.097.283-.088.307.014.036.06.055.135.058.076.002.208-.023.396-.077l.028.073Zm1.156 1.584 1.01 1.355-.154.115-.05-.067c-.076-.102-.151-.155-.225-.16a.516.516 0 0 0-.25.06c-.092.044-.3.185-.62.424l-2.756 2.054c-.504.376-.824.642-.962.8a1.3 1.3 0 0 0-.276.478.463.463 0 0 0 .068.429c.106.142.264.212.476.21.212-.003.456-.069.734-.198.278-.13.716-.418 1.314-.864l2.296-1.71c.252-.188.423-.335.512-.44a.648.648 0 0 0 .155-.26c.02-.105-.01-.21-.089-.317l.155-.115.676.908-.154.115-.04-.054a.278.278 0 0 0-.232-.113.815.815 0 0 0-.366.107c-.102.05-.267.16-.496.331l-2.138 1.594c-.662.493-1.155.828-1.478 1.007-.324.177-.667.279-1.031.305-.364.027-.648-.097-.85-.369-.17-.227-.235-.451-.198-.672.052-.301.19-.59.414-.866.225-.276.57-.588 1.04-.937l2.756-2.054c.323-.241.518-.4.585-.475a.499.499 0 0 0 .123-.228c.018-.077-.017-.169-.103-.278l.154-.115ZM36.6 77.1l-2.083 4.06L36.7 79.15c.304-.28.491-.489.561-.628.094-.188.079-.346-.047-.473l.14-.128.714.78-.14.127c-.118-.075-.215-.108-.29-.103a.688.688 0 0 0-.287.116 4.214 4.214 0 0 0-.533.438l-4.23 3.887-.053-.06 2.766-5.481-3.23 2.968c-.29.268-.46.48-.504.636-.047.157-.033.275.04.355l.051.055-.138.127-.767-.837.138-.127c.122.128.262.166.421.113.16-.052.374-.202.643-.45l3.585-3.294.089-.175c.089-.174.136-.299.144-.377a.318.318 0 0 0-.08-.23l.139-.128.767.837Zm12.347 14.584-.06.178-1.38-.416.06-.178.088.026c.076.023.15.007.218-.046a.595.595 0 0 0 .156-.21c.04-.071.114-.272.224-.602l1.437-4.311a5.42 5.42 0 0 0 .187-.635.539.539 0 0 0-.013-.246.205.205 0 0 0-.145-.147l-.087-.026.06-.18 1.38.416-.06.18-.088-.027a.23.23 0 0 0-.218.045.621.621 0 0 0-.158.209c-.04.073-.114.274-.224.602l-1.436 4.311a5.48 5.48 0 0 0-.188.636.57.57 0 0 0 .015.246c.023.077.07.126.144.148l.088.027Zm18.162-4.544.44 2.291-.091.019c-.147-.567-.337-1.009-.57-1.327-.233-.316-.447-.454-.643-.414-.152.03-.256.147-.31.35a1.485 1.485 0 0 0-.019.665c.028.151.069.285.121.397.072.15.17.294.293.43.09.098.288.263.593.496.426.325.732.651.92.978.186.328.32.718.402 1.172.104.576.095 1.092-.027 1.546-.122.454-.335.713-.638.775a.591.591 0 0 1-.283-.011 1.594 1.594 0 0 1-.365-.186c-.084-.053-.148-.074-.194-.064-.039.007-.074.049-.105.125a.946.946 0 0 0-.048.332l-.083.016-.47-2.6.081-.017c.199.718.425 1.25.683 1.596.256.347.492.5.708.455.167-.033.28-.164.342-.39.062-.227.068-.478.018-.752a1.951 1.951 0 0 0-.143-.462 1.718 1.718 0 0 0-.251-.398 3.36 3.36 0 0 0-.508-.453c-.331-.253-.577-.475-.736-.667a2.853 2.853 0 0 1-.41-.67 3.777 3.777 0 0 1-.258-.865c-.1-.548-.095-1.034.012-1.457.108-.42.296-.658.566-.713a.564.564 0 0 1 .3.022c.077.027.176.085.296.176.12.088.202.13.241.121.04-.007.065-.041.077-.1.013-.058.01-.192-.008-.402l.067-.014Zm6.446-.42.539 2.68.054-.012c.157-.036.699 0 .737-.462.023-.289-.018-.198-.073-.677l.167-.086.524 2.45-.192.076c-.059-.369-.011-.285-.117-.523-.105-.237-.134-.292-.221-.362s-.612.047-.743.077l.41 1.925c.081.377.136.605.168.686.03.081.069.145.116.19.046.047.109.06.188.042l.164-.037c.257-.058.432-.253.524-.583.092-.33.145-.39.084-1.012l.254.015.124 1.755-2.383.537-.04-.185.092-.021a.234.234 0 0 0 .17-.15.583.583 0 0 0 .03-.261c-.002-.083-.04-.296-.113-.64l-.96-4.496a8.705 8.705 0 0 0-.132-.567.734.734 0 0 0-.133-.255c-.073-.083-.153-.114-.242-.094l-.092.021-.04-.187 2.307-.521.46 1.57-.207.065c-.146-.485-.174-.423-.291-.622-.117-.199-.251-.335-.403-.405-.089-.045-.237-.042-.446.005l-.284.064Zm2.548-.93 2.816 3.662-.866-2.845c-.12-.397-.23-.657-.326-.782-.133-.167-.286-.223-.46-.166l-.056-.182 1.049-.297.055.182c-.123.073-.199.145-.228.215a.668.668 0 0 0-.023.308c.013.136.068.36.163.672l1.676 5.51-.08.023-3.824-4.902 1.28 4.207c.116.38.235.625.36.735.124.11.24.15.347.12l.076-.021.054.18-1.126.319-.055-.18c.174-.053.273-.162.297-.328.024-.167-.017-.424-.124-.776l-1.42-4.67-.122-.158c-.12-.156-.215-.254-.284-.296a.34.34 0 0 0-.25-.029l-.055-.181 1.126-.32Zm4.603-1.512.747 2.307-.08.025c-.256-.582-.518-1.008-.788-1.277-.269-.268-.509-.37-.719-.304-.174.056-.296.225-.365.511-.068.286-.075.632-.016 1.04.073.522.208 1.086.403 1.691.193.596.4 1.129.623 1.598.222.47.44.809.657 1.016.216.209.432.277.647.21.176-.056.309-.198.396-.429.088-.229.14-.593.158-1.094l.186.575c-.032.439-.104.774-.217 1.002a.837.837 0 0 1-.512.452c-.299.095-.611.036-.936-.176-.324-.211-.636-.564-.935-1.057a7.853 7.853 0 0 1-.741-1.645 7.906 7.906 0 0 1-.375-1.874c-.045-.614 0-1.116.137-1.505.135-.39.338-.626.605-.71.197-.063.438-.028.723.106.165.077.265.112.3.1.044-.013.07-.064.077-.151a1.258 1.258 0 0 0-.055-.386l.08-.025Zm1.384-.055.997 2.545.052-.021c.147-.063.688-.122.645-.583-.028-.29-.052-.193-.19-.655l.15-.113.943 2.32-.176.11c-.123-.353-.061-.28-.206-.495-.146-.215-.183-.264-.282-.318-.097-.053-.594.153-.718.205l.74 1.824c.145.357.239.572.284.647a.51.51 0 0 0 .147.166c.055.039.118.04.193.01l.155-.066c.244-.102.381-.324.415-.666.033-.34.074-.41-.094-1.01l.253-.03.427 1.706-2.252.945-.072-.176.087-.037a.234.234 0 0 0 .141-.177.589.589 0 0 0-.016-.262c-.016-.081-.09-.285-.223-.61l-1.728-4.26a8.827 8.827 0 0 0-.23-.536.735.735 0 0 0-.175-.228c-.085-.069-.17-.085-.254-.05l-.087.037-.072-.178 2.181-.915.727 1.467-.194.1c-.227-.453-.244-.387-.394-.563-.15-.175-.305-.285-.467-.328-.095-.029-.241 0-.439.083l-.268.112Zm6.412 1.494-.963.554.33.98c.076.223.055.329.129.459.098.173.2.28.304.325.063.026.167.009.316-.053l.095.167-.86.554-.095-.167c.073-.094.097-.235.072-.423-.026-.188-.026-.477-.207-1.002l-1.86-5.413.147-.076 3.685 4.405c.356.426.605.675.733.763.097.066.276.142.364.106l.095.168-1.34.745-.094-.167.052-.033c.1-.065.152-.145.154-.237a.487.487 0 0 0-.077-.237 1.487 1.487 0 0 0-.107-.16c-.019-.026-.124-.11-.25-.304l-.623-.954Zm-.305-.329-1.491-1.563.74 1.941.75-.378Zm-.3-4.88 3.825 2.587-1.718-2.427c-.24-.339-.425-.552-.556-.64-.178-.116-.341-.12-.489-.012l-.11-.155.902-.612.11.155c-.095.108-.143.2-.15.275a.67.67 0 0 0 .076.3c.055.125.178.321.366.587l3.328 4.701-.07.047-5.173-3.447 2.54 3.59c.23.323.421.518.574.583.153.066.276.067.368.004l.064-.043.109.153-.97.658-.107-.154c.148-.105.207-.24.178-.405-.03-.165-.15-.397-.362-.697l-2.82-3.985-.166-.11c-.163-.11-.283-.174-.362-.192a.339.339 0 0 0-.246.052l-.11-.155.968-.658Zm6.624-6.437 1.486 1.139-.044.062c-.37-.226-.645-.374-.825-.443a1.125 1.125 0 0 0-.488-.087c-.081.006-.159.065-.235.175l-.123.176 4.23 3.242c.28.214.46.342.54.383.08.04.159.06.239.062.08.002.144-.03.192-.098l.054-.078.149.114-.865 1.236-.15-.115.056-.078a.253.253 0 0 0 .03-.23.608.608 0 0 0-.145-.221c-.054-.062-.22-.198-.496-.41l-4.23-3.242-.12.171c-.112.159-.116.334-.009.526.148.268.415.571.801.908l-.046.066-1.486-1.139 1.485-2.119Zm1.033-.875 2.308 1.465.029-.048c.082-.137.484-.504.176-.85-.193-.218-.155-.126-.54-.417l.054-.18 2.131 1.316-.077.192c-.307-.213-.213-.19-.458-.278-.245-.087-.304-.105-.416-.09-.11.014-.388.475-.458.59l1.675 1.035c.328.202.53.32.61.354a.51.51 0 0 0 .218.047c.066 0 .119-.037.161-.106l.087-.145c.136-.226.115-.486-.059-.782-.174-.294-.182-.374-.673-.76l.187-.173 1.352 1.124-1.26 2.093-.162-.1.049-.08a.234.234 0 0 0 .01-.227.59.59 0 0 0-.169-.202c-.061-.056-.241-.177-.54-.361l-3.91-2.417a8.75 8.75 0 0 0-.502-.298.735.735 0 0 0-.276-.08c-.11-.005-.186.032-.234.11l-.048.08-.163-.1 1.22-2.026 1.452.754-.097.195c-.45-.23-.425-.168-.65-.22-.225-.054-.416-.05-.572.01-.093.033-.194.142-.304.326l-.151.25Zm1.295-3.44 2.314.723-.026.08c-.623-.128-1.121-.16-1.497-.095-.374.065-.596.202-.663.41-.056.176.012.373.206.594.194.221.472.426.84.615.467.242 1.005.458 1.613.648.597.186 1.151.325 1.663.415.512.09.915.108 1.209.05.295-.055.476-.19.545-.406.056-.176.017-.366-.121-.57-.136-.204-.403-.457-.801-.761l.577.18c.339.28.571.532.692.756a.833.833 0 0 1 .072.68c-.095.297-.323.518-.684.66-.36.144-.827.194-1.403.153a7.867 7.867 0 0 1-1.771-.346 7.914 7.914 0 0 1-1.746-.777c-.527-.318-.91-.645-1.149-.981-.24-.337-.315-.638-.23-.905.063-.197.23-.373.504-.528.159-.09.245-.152.256-.187.014-.043-.012-.094-.08-.15a1.254 1.254 0 0 0-.346-.178l.026-.08Zm3.893-.525 2.101.484c.347.08.566.122.656.125a.558.558 0 0 0 .249-.047.237.237 0 0 0 .143-.177l.022-.1.184.043-.341 1.565-.185-.043.022-.099a.26.26 0 0 0-.06-.234.56.56 0 0 0-.222-.144c-.075-.034-.283-.09-.625-.17l-4.463-1.028c-.347-.08-.565-.122-.656-.125a.537.537 0 0 0-.249.045.241.241 0 0 0-.14.178l-.023.1-.185-.044.34-1.564.187.043-.021.099c-.02.087 0 .165.058.233a.58.58 0 0 0 .221.146c.077.035.285.091.625.17l1.922.442.23-1.056-1.921-.443c-.347-.08-.566-.122-.657-.126a.534.534 0 0 0-.248.047.244.244 0 0 0-.142.179l-.02.097-.187-.043.341-1.563.186.043-.02.097c-.02.088-.001.166.058.234.04.049.111.097.22.146.077.034.285.091.626.17l4.463 1.028c.347.08.565.122.656.126a.537.537 0 0 0 .249-.047.243.243 0 0 0 .143-.179l.021-.097.184.043-.341 1.563-.185-.043.022-.097a.258.258 0 0 0-.06-.234.59.59 0 0 0-.221-.146c-.075-.034-.283-.091-.625-.17l-2.101-.484-.231 1.057Zm-2.923-4.245 4.383-1.456-2.972-.118c-.414-.016-.696.001-.846.052-.2.07-.304.196-.308.38l-.19-.008.065-1.088.19.008c.028.14.071.235.128.286.056.05.15.091.283.123.133.032.364.054.689.067l5.755.229-.005.083-5.887 2 4.394.174c.397.015.667-.017.812-.099.145-.08.221-.177.228-.288l.004-.078.188.007-.069 1.169-.188-.007c.008-.182-.063-.311-.212-.389-.149-.077-.406-.123-.774-.138l-4.877-.194-.189.064c-.187.062-.31.119-.373.17a.337.337 0 0 0-.109.227l-.19-.008.07-1.168Zm-.132-3.344c-.111-.454.155-.867.796-1.242.642-.374 1.477-.626 2.506-.758.879-.111 1.667-.103 2.368.025.928.17 1.431.515 1.509 1.032.078.517-.284.972-1.087 1.364-.635.308-1.409.521-2.325.638-1.029.131-1.909.095-2.638-.108-.73-.204-1.108-.52-1.13-.95Zm.321-.068c.04.264.395.423 1.063.478.547.044 1.319.003 2.313-.124 1.183-.15 2.043-.348 2.583-.593.377-.17.549-.365.517-.582-.022-.146-.126-.256-.311-.333-.236-.096-.599-.149-1.089-.157-.489-.009-1.118.036-1.887.134-.918.117-1.598.24-2.041.369-.445.13-.752.26-.924.394-.17.133-.245.272-.224.414Zm-3.8-7.957 2.083-1.387.042.066c-.52.46-.877.868-1.073 1.224-.195.357-.234.63-.115.82.115.18.335.248.659.203.324-.046.724-.19 1.2-.437.477-.246.95-.525 1.416-.836a14.504 14.504 0 0 0 1.44-1.075c.393-.338.651-.636.775-.892.124-.255.132-.467.026-.635a.445.445 0 0 0-.159-.148.97.97 0 0 0-.252-.1l-2.076 1.226c-.24.142-.38.262-.438.32a.565.565 0 0 0-.135.205c-.03.077-.026.146.011.205l.039.062-.16.107-.664-1.075.16-.107c.071.08.14.122.207.127a.646.646 0 0 0 .276-.068c.062-.027.2-.111.416-.255l1.998-1.328c.266.043.495.118.686.23.191.11.345.254.458.434.145.23.188.472.132.725-.058.254-.172.52-.348.802a4.827 4.827 0 0 1-.667.831c-.35.35-.773.692-1.27 1.023-.888.59-1.72.963-2.495 1.115-.775.152-1.285.035-1.53-.354a.872.872 0 0 1-.136-.37c-.01-.069.004-.198.038-.388.035-.19.046-.295.032-.317-.02-.033-.07-.044-.147-.033-.078.011-.207.06-.387.146l-.043-.066Zm-2.014-2.759.153-.114a.387.387 0 0 0 .301.057c.161-.029.548-.174 1.16-.433l2.425-1.007 1.352-1.01c.288-.215.464-.355.524-.42a.548.548 0 0 0 .125-.213.213.213 0 0 0-.037-.21l-.103-.13.152-.113 1.04 1.306-.153.114-.097-.122a.252.252 0 0 0-.217-.098.591.591 0 0 0-.254.078c-.075.035-.253.158-.535.368l-1.121.838-1.959 2.336c-.386.462-.603.745-.652.854-.048.107-.043.198.013.274l-.154.115-.887-1.116.153-.115.04.05c.054.068.114.098.183.09a.36.36 0 0 0 .18-.071c.098-.073.31-.305.636-.694l1.517-1.804-2.02.841c-.494.204-.81.356-.944.457a.419.419 0 0 0-.149.182c-.038.09-.022.193.047.307l-.154.114-.565-.71Zm4.119 6.16c-.237-.401-.105-.876.395-1.424.501-.548 1.22-1.037 2.16-1.468.801-.368 1.553-.594 2.255-.679.932-.112 1.509.067 1.734.538.224.471.013 1.013-.636 1.626-.514.483-1.187.917-2.022 1.3-.94.43-1.786.657-2.538.68-.754.021-1.203-.169-1.348-.574Zm.286-.161c.114.24.497.287 1.147.142.533-.12 1.254-.39 2.16-.806 1.081-.495 1.84-.94 2.281-1.333.309-.276.416-.512.322-.71-.064-.132-.194-.208-.391-.226-.252-.022-.613.036-1.081.173-.466.137-1.05.367-1.753.689-.837.384-1.447.703-1.83.958-.385.255-.639.471-.763.65-.123.178-.154.333-.092.463Z" fill="#5E5D5B"/><path d="m53.281 75.722.028.002a1.023 1.023 0 0 0-.07-.003h.042Zm0 0a12.591 12.591 0 0 0-.539-.037c-.124 0-.261-.012-.412-.036a.258.258 0 0 1-.07-.017c-.097-.064-.178-.203-.241-.416a3.13 3.13 0 0 0-.02-.162c-.02-.094-.045-.142-.075-.142-.017.003-.05.05-.101.138 0 .01-.004.02-.015.029a.717.717 0 0 0-.095.194.256.256 0 0 0-.04.133c0 .035-.026.052-.075.052-.014 0-.096-.024-.246-.072-.091-.035-.136-.065-.136-.09 0-.013.005-.023.015-.032a.714.714 0 0 1 .095-.113c.054-.062.133-.129.236-.202a.341.341 0 0 1 .116-.07c.08-.045.12-.077.12-.096-.01-.024-.05-.09-.12-.198.006-.024.035-.036.085-.036a.807.807 0 0 0 .205-.025 1.612 1.612 0 0 1 .392-.073c.18-.048.361-.072.542-.072.151.021.251.089.302.202 0 .024-.02.04-.061.048a.238.238 0 0 1-.08.013c-.024.002-.035.011-.035.028.004.013.02.028.05.044a2.1 2.1 0 0 1 .13.097c.168.16.252.251.252.275.04.02.09.067.15.142.01.022.035.053.075.093a.628.628 0 0 1 .156.344c0 .016-.01.028-.03.036a.421.421 0 0 1-.166.025 1.673 1.673 0 0 0-.125.008 3.308 3.308 0 0 0-.239-.012Zm-.504-.58a.32.32 0 0 0-.126.037h-.02c-.036-.002-.077-.036-.12-.1a.586.586 0 0 1-.136-.26c-.02-.061-.05-.092-.09-.092-.034 0-.055.008-.066.024-.012.016-.02.045-.02.089 0 .218.027.36.081.424.074.1.301.15.683.15.134-.003.22-.02.26-.052.03-.038.046-.066.046-.085a.52.52 0 0 0-.105-.276c-.027-.037-.048-.056-.06-.056-.021.003-.066.036-.137.101a.636.636 0 0 1-.19.097Zm-.236-.326c.003.005.01.011.02.02a4.4 4.4 0 0 0 .422-.004.024.024 0 0 0 .01-.02.182.182 0 0 0-.026-.037 3.425 3.425 0 0 0-.155-.133l-.326.068c-.014.003-.02.008-.02.017 0 .008.025.037.075.089Zm-1.224-1.6c-.1.06-.183.12-.252.18-.167.13-.287.194-.36.194-.03-.003-.046-.018-.046-.045a.124.124 0 0 0 .01-.032 1.24 1.24 0 0 0 .085-.166.665.665 0 0 1 .13-.198.732.732 0 0 1 .166-.219l.076-.1c.043-.054.087-.081.13-.081.043 0 .105.037.186.113.07.056.105.097.105.12-.006.031-.083.11-.23.234Zm-1.998.232a10.81 10.81 0 0 0-.005.337c.017.117.025.214.025.29 0 .596.025 1.053.074 1.373a.658.658 0 0 0 .025.164c.013.013.02.026.02.037 0 .04-.026.061-.074.061a.674.674 0 0 1-.174-.041 2.791 2.791 0 0 0-.456-.135c-.336-.123-.53-.213-.583-.27a.252.252 0 0 1-.035-.07c0-.025.089-.028.267-.008.275.021.43.019.47-.009.02-.024.03-.063.03-.114 0-.14-.005-.308-.014-.504-.02-.164-.032-.615-.035-1.352v-.017c-.02-.204-.05-.32-.09-.344a.17.17 0 0 0-.103-.032.697.697 0 0 0-.213.04c-.092.039-.139.099-.139.18l-.005.12c.004.032.015.049.035.049.073-.014.144-.025.213-.033.09.003.133.042.133.119a.187.187 0 0 0-.005.045c-.016.063-.113.139-.291.229a.238.238 0 0 0-.134.222c.003.027.02.04.05.04.029-.008.143-.02.34-.037.027 0 .045.008.055.025.01.008.02.04.03.098.007.099-.002.16-.025.185a.597.597 0 0 1-.183.057 9.901 9.901 0 0 1-.054.029c-.195.12-.317.2-.366.242-.007.007-.01.013-.01.016a.471.471 0 0 0-.07.11c-.221.37-.33.578-.33.627-.004.04-.031.075-.08.102-.29.14-.487.21-.589.21-.043-.003-.065-.014-.065-.033a.857.857 0 0 1 .12-.123.269.269 0 0 1 .079-.065c.174-.148.261-.234.261-.258-.003-.017-.031-.033-.083-.05-.11-.03-.294-.13-.555-.303a.403.403 0 0 0-.104-.098.891.891 0 0 0-.158.082 1.612 1.612 0 0 1-.163.127l-.252.216c-.047-.002-.121-.041-.223-.118-.073-.052-.11-.09-.11-.115.004-.027.061-.059.174-.094.027-.01.076-.037.148-.078.146-.104.218-.172.218-.205-.056-.235-.084-.669-.084-1.303.003-.043.07-.083.203-.118.168-.055.45-.12.846-.193.235 0 .383.029.446.086.016.016-.01.082-.08.197a.447.447 0 0 0-.08.225c-.008.03-.019.217-.029.561a7.515 7.515 0 0 1-.024.5c-.043.055-.04.202.01.443a.074.074 0 0 1 .004.016l.005.008v.012h.026l.004-.008c.03-.106.065-.171.104-.197.109-.193.164-.36.164-.499a.307.307 0 0 0 .014-.09c.003-.104.022-.246.055-.426a3.41 3.41 0 0 0 .005-.799c0-.036.024-.063.074-.082a.186.186 0 0 1 .074-.012 3.07 3.07 0 0 0 .425-.058c.142-.044.27-.07.382-.077.079-.014.282.012.608.077.02.014.03.03.03.05-.003.002-.004.008-.004.016-.113.153-.17.401-.17.745Zm-2.257.844h-.004c0 .011-.005.017-.016.017-.069.035-.143.086-.223.151a.256.256 0 0 0-.049.041c.01.009.015.014.015.016a.8.8 0 0 0 .297.066c.036-.003.054-.026.054-.07 0-.13-.014-.208-.044-.233a.902.902 0 0 0-.03.012Zm.074-.5c-.006-.27-.004-.418.005-.446a.214.214 0 0 1-.014-.082c0-.085-.02-.143-.06-.176a.141.141 0 0 0-.104-.045.2.2 0 0 0-.153.078c-.02.016-.034.05-.044.102-.027.1-.005.168.064.2a.496.496 0 0 1 .183.153c.023.057.035.11.035.16-.004.032-.022.052-.055.06a.632.632 0 0 1-.198.062c-.08.024-.12.062-.123.11a1.54 1.54 0 0 0-.026.169c0 .01.002.025.005.04a.461.461 0 0 1 .129-.065l.148-.09a.086.086 0 0 1 .04-.025c.11-.046.165-.115.168-.205Zm6.68.85c.06 0 .167.016.322.048.056.014.11.024.16.032.036.006.06.02.07.045.054.118.07.228.05.328-.017.05-.04.076-.07.076a6.313 6.313 0 0 1-.246-.076 4.015 4.015 0 0 0-.206-.11c-.285-.172-.427-.27-.427-.295-.003-.04.046-.06.146-.06l.201.012Zm-.291-1.408h-.477a.92.92 0 0 0-.195.036.437.437 0 0 1-.096.02c-.053.008-.08.033-.08.073.002.035.021.052.055.052l.095-.015c.395-.019.703.02.923.117.074.038.11.068.11.093a.258.258 0 0 1-.039.069c-.104.107-.162.194-.176.258a1.66 1.66 0 0 0-.115.154 5.202 5.202 0 0 1-.166.219.066.066 0 0 0-.025.024c-.1.065-.2.056-.301-.024-.104-.12-.333-.116-.688.008-.097.035-.182.06-.256.076a.48.48 0 0 1-.145-.08 3.392 3.392 0 0 1-.13-.11c-.178-.217-.267-.369-.267-.452.004-.035.056-.065.156-.09.281-.056.473-.108.577-.158a.118.118 0 0 0 .045-.089c-.003-.024-.02-.035-.05-.035-.097 0-.266.024-.507.072-.026 0-.05-.016-.07-.048a.187.187 0 0 1-.025-.053c-.017-.026-.035-.058-.056-.093a.062.062 0 0 1-.014-.036c0-.016.025-.045.074-.085l.066.064c0-.002.005-.004.015-.004.207-.078.337-.117.386-.117.128-.019.211-.044.251-.076l.056-.191a.304.304 0 0 0 .014-.101c.01-.035.021-.085.03-.15a.401.401 0 0 1 .04-.133.234.234 0 0 1 .102-.037c.05.003.105.018.165.045.023.013.035.024.035.032a1.43 1.43 0 0 0-.04.138l-.06.311c.003.033.02.049.05.049a2.033 2.033 0 0 1 .382-.048l.06-.013a.04.04 0 0 1 .024-.008.468.468 0 0 1 .127-.036c.026.003.07.032.13.089a.391.391 0 0 1 .07.105l.005.157c-.014.014-.035.021-.065.021Zm-1.451.603a.219.219 0 0 0-.08.028c-.014.013-.02.032-.02.057 0 .042.015.085.045.125.03.035.065.053.105.053l.07-.009c.03-.013.046-.025.046-.036l-.05-.13c-.027-.059-.066-.088-.116-.088Zm.382-.07v.159c0 .07.03.105.09.105.024-.003.056-.025.096-.065.037-.04.055-.125.055-.255-.018-.011-.053-.016-.106-.016-.05 0-.095.024-.135.073Zm.502.077a.438.438 0 0 0-.005.07.252.252 0 0 0-.035.093c0 .05.024.076.075.076a.737.737 0 0 1 .055-.011.472.472 0 0 1 .065-.013c.084-.046.136-.154.156-.324 0-.06-.025-.097-.076-.113a.52.52 0 0 0-.065-.008c-.07.002-.112.03-.126.081a1.95 1.95 0 0 1-.039.118.131.131 0 0 0-.005.031Zm-1.857 1.19c-.024.083-.029.247-.016.493-.003.078-.042.118-.115.118-.083-.003-.14-.017-.17-.04-.014-.017-.02-.05-.02-.098 0-.386.014-.602.044-.651.017-.019.01-.09-.02-.214-.013-.022-.03-.033-.05-.033a.13.13 0 0 1-.04.009l-.066.044c-.09.062-.26.134-.511.218a.228.228 0 0 1-.06.012c-.057 0-.086-.012-.086-.036.004-.1.166-.288.487-.562.033-.033.056-.054.065-.065.047-.049.096-.098.146-.146a.56.56 0 0 1 .1-.117c.01-.01.085-.118.226-.32.158-.159.24-.238.251-.238.027.003.065.02.116.052.086.067.13.114.13.138-.007.078-.08.16-.221.243l-.08.072c-.014.017-.02.023-.02.02-.148.133-.221.203-.221.21-.004.004-.005.01-.005.017-.034.089.03.154.19.195.06.02.096.04.106.056 0 .03-.025.117-.076.263-.046.051-.075.171-.084.36Zm6.533-.554-.016-.025c-.088-.076-.133-.123-.133-.14.017-.032.097-.05.241-.052.097-.009.165-.03.206-.066.051-.057.077-.106.077-.147a.108.108 0 0 1-.02-.012c-.02 0-.073.008-.155.024a1.25 1.25 0 0 1-.175.066 2.974 2.974 0 0 0-.735.278.316.316 0 0 1-.122.05.134.134 0 0 1-.083-.034 1.993 1.993 0 0 1-.21-.204c.003-.02.01-.03.02-.033a.109.109 0 0 1 .057-.013c.061-.002.186-.02.374-.052 0-.003.002-.005.006-.005.102-.027.206-.05.308-.069l.267-.057c.223-.057.345-.086.365-.086.24-.003.408.02.504.07.02.01.051.024.092.04.056.028.083.053.083.078 0 .024-.021.049-.062.074l-.37.163c-.034.013-.051.034-.051.062.007.018.01.037.01.053.007.002.011.008.015.016l.077-.004c.117-.014.437-.012.962.004.013.008.03.018.051.028.078.093.148.169.21.226.01.054 0 .095-.03.122-.034.011-.124-.004-.267-.045a4.37 4.37 0 0 0-.401-.073c-.347.002-.535.017-.566.045-.013.024-.015.168-.005.433-.003.003-.005.006-.005.008a2.998 2.998 0 0 0-.031.192c-.058.21-.087.32-.087.328-.021.027-.052.04-.093.04l-.03-.008-.247-.024a.15.15 0 0 0-.041-.008c-.49-.134-.772-.238-.843-.311-.055-.047-.083-.08-.083-.098.08 0 .19.012.334.037l.33.053c.078.002.13.005.154.008a.516.516 0 0 1 .093-.013c.078-.013.124-.034.138-.06.034-.069.051-.193.051-.373-.004-.106-.02-.167-.05-.184-.008 0-.013.001-.017.004-.61.071-1.079.156-1.407.253a.118.118 0 0 1-.078-.024.214.214 0 0 1-.082-.172c.003-.027.043-.04.118-.04l.139-.017c.106-.033.262-.07.468-.11.202-.044.447-.106.734-.189.004-.004.008-.007.011-.007Zm-2.667.818c.003-.05.145-.182.426-.398a.145.145 0 0 1 .052-.044c.003-.003.005-.009.005-.017.1-.082.243-.246.431-.495.045-.087.108-.192.19-.315a2.09 2.09 0 0 0 .097-.196c.008-.005.014-.008.017-.008l.164-.356a.288.288 0 0 1 .041-.106l.031-.123a1.254 1.254 0 0 0 .046-.192c.004-.174.031-.327.083-.458.01-.022.04-.032.092-.032l.072.008a.99.99 0 0 0 .124.04c.023.003.194-.016.514-.057.181-.046.369-.082.564-.106.169-.041.268-.061.299-.061.03 0 .061.011.092.037a.2.2 0 0 1 .067.073.2.2 0 0 0 .031.045c.054.065.082.11.082.135-.003.03-.017.045-.04.045-.245 0-.515.042-.813.127-.264.002-.431.02-.504.053a6.171 6.171 0 0 1-.206.053.614.614 0 0 0-.035.024.585.585 0 0 0-.026.152c.01 0 .022.001.036.004.514-.126.848-.188 1.002-.188.33-.055.601-.033.817.065.1.05.151.087.154.114-.123.118-.236.317-.339.598-.007.003-.01.006-.01.008a.507.507 0 0 0-.067.115.205.205 0 0 1-.113.024.817.817 0 0 0-.159-.045c-.127-.035-.325-.029-.596.02a7.83 7.83 0 0 1-.504.12c-.086-.036-.21-.185-.375-.447a.05.05 0 0 0-.015-.004c-.007 0-.01.001-.01.004a.313.313 0 0 0-.067.127.202.202 0 0 0-.031.04.63.63 0 0 0-.036.038c-.018.04-.062.127-.134.257l-.092.127a2.136 2.136 0 0 0-.176.225c-.146.188-.22.315-.22.38-.003.077-.017.127-.041.152a.84.84 0 0 1-.14.11c-.023.01-.037.02-.04.029l-.411.237c-.11.043-.175.066-.196.07-.058.01-.103.008-.133-.008Zm2.672-2.14-.17.062c-.12.049-.185.073-.195.073-.055.017-.084.03-.087.037-.017.014-.014.11.01.29.007.012.01.018.01.021l.026.02c.038 0 .293-.032.766-.098.03.02.063.046.097.078h.03c.07-.055.105-.168.105-.34-.004-.084-.023-.136-.058-.154a.29.29 0 0 0-.154-.037c-.188 0-.315.016-.38.048Zm-.154.39c-.09-.004-.14-.01-.154-.022l-.015-.024a.84.84 0 0 1-.057-.086c.003-.022.012-.036.025-.045a.345.345 0 0 1 .093-.024c-.01 0 .01-.004.061-.013.206-.065.345-.098.417-.098.065 0 .097.033.097.098-.003.05-.016.086-.04.11a.795.795 0 0 1-.427.103Zm4.004-1.06a2.847 2.847 0 0 1 .37-.087c.022.004.032.013.032.029a2.62 2.62 0 0 0-.033.106 1.46 1.46 0 0 0-.199.348c-.021.02-.043.031-.066.031a.41.41 0 0 1-.24-.095c-.108-.063-.162-.13-.162-.201 0-.024.02-.04.057-.051.082-.03.163-.056.24-.08Zm-.54.328c.18.135.27.226.27.273 0 .069-.061.103-.184.103a1.33 1.33 0 0 0-.265-.016c-.126-.01-.19-.035-.19-.075-.043-.184-.036-.304.02-.36a.232.232 0 0 1 .147-.047c.028 0 .096.04.203.122Zm-.013 1.719c.255-.082.473-.134.652-.158.054-.016.081-.036.081-.06l-.094-.181c.003-.027.025-.048.066-.064a.406.406 0 0 0 .27-.094c.069-.074.104-.123.104-.146 0-.04-.02-.06-.057-.06a.289.289 0 0 0-.218.11.766.766 0 0 1-.123.1 3.66 3.66 0 0 0-.335.094c-.142.096-.228.143-.256.143a.208.208 0 0 1-.085-.028c-.11-.076-.166-.155-.166-.237 0-.026.014-.043.042-.05a.068.068 0 0 1 .033-.009c.64-.2 1.023-.3 1.145-.3.048-.005.233.047.559.158a.835.835 0 0 0 .194-.091c.07-.058.104-.12.104-.186 0-.05-.033-.09-.1-.122a.554.554 0 0 0-.193-.055c-.01 0-.016 0-.02.003-.397.058-.666.115-.809.17a7.766 7.766 0 0 0-.7.17c-.142 0-.3.032-.473.095a.124.124 0 0 1-.066-.031.126.126 0 0 1-.038-.087v-.017c.003-.036.057-.059.16-.066.313-.124.547-.211.702-.261.217-.072.36-.128.43-.17.104-.087.28-.305.525-.656.072-.092.127-.138.165-.138h.005c.11.013.232.099.364.257 0 .015-.056.052-.17.11a1.399 1.399 0 0 0-.184.162c-.16.153-.242.23-.242.233.004.016.015.025.034.028.296.034.465.056.506.067.003 0 .01.004.018.012.496.258.743.446.743.565-.003.037-.023.056-.061.06l-.095.011a6.048 6.048 0 0 1-.756.047 2.312 2.312 0 0 0-.223.135.45.45 0 0 1-.151.059 1.774 1.774 0 0 0-.17.055c0 .035.001.069.005.103.012.04.034.059.066.059.44-.055.758-.067.95-.035.06.023.096.07.109.141.006.038.014.073.023.108.02.058.03.094.03.11-.004.058-.031.087-.081.087-.01 0-.104-.023-.285-.071-.27-.03-.415-.036-.435-.02-.167.003-.26.012-.278.028-.026.008-.053.175-.081.501-.044.326-.104.538-.18.633a.1.1 0 0 1-.075.035h-.005a3.296 3.296 0 0 1-.804-.253c-.145-.063-.218-.123-.218-.181a.057.057 0 0 1 .02-.032 3.591 3.591 0 0 0 .443.087c.09-.014.18-.024.275-.032a.503.503 0 0 1 .08-.055c.022-.072.047-.142.076-.214v-.355c0-.042-.014-.063-.042-.063h-.01c-.669.094-1.092.181-1.272.26-.092-.12-.128-.197-.11-.229.01-.013.237-.076.682-.19Zm-1.16-.474v-.008a.484.484 0 0 1 .171-.225c.136-.093.248-.139.336-.139.05.003.074.017.07.04a.76.76 0 0 0 .01.423c-.003.052-.044.079-.122.079-.035 0-.101-.012-.2-.036-.176-.042-.264-.087-.264-.134Zm8.682-.838a1.9 1.9 0 0 0-.162-.014.051.051 0 0 1-.033-.01.055.055 0 0 0-.018-.008.103.103 0 0 1-.037.007c-.08 0-.13-.02-.148-.063.003-.186.006-.287.009-.301.006-.016.03-.032.07-.046.009.007.014.011.018.011.05.021.092.046.13.074.194.078.307.138.338.18.043.033.064.085.064.156-.012.002-.02.007-.022.014a1.01 1.01 0 0 1-.21 0Zm-1.774 1.061.01.007c-.004.033-.012.054-.025.064a.14.14 0 0 1-.064.017c-.257.036-.426.032-.51-.01a.17.17 0 0 1-.069-.142c.003-.096.02-.166.05-.208.017-.021.033-.032.052-.032l.042.011c.009.007.013.011.013.014a.304.304 0 0 0 .052.05c.213.082.333.134.361.155.012.012.041.035.088.07v.004Zm-.788-.654v-.018a.138.138 0 0 1 .028-.028l.297-.036c.231-.028.356-.042.375-.042a.971.971 0 0 1 .213-.05.61.61 0 0 0 .186-.063c.042-.295.066-.45.068-.463.007-.07.011-.142.015-.213.012-.167.032-.258.06-.272.034.003.07.008.106.014a.053.053 0 0 1 .01-.01h.018l.028.021c.114.026.19.053.227.081v.022l-.07.056-.009.018c-.037.028-.056.233-.056.615.003.03.02.046.052.046l.388-.074a.07.07 0 0 1 .047.025c.127.146.19.23.19.254 0 .024-.014.04-.042.046a.643.643 0 0 1-.13.01 9.246 9.246 0 0 1-.459.117c-.036.015-.054.05-.054.106 0 .135.008.213.027.234.018.04.05.06.097.06a.944.944 0 0 0 .214-.102 5.4 5.4 0 0 1 .435-.272c.003-.008.01-.013.019-.015.046-.033.078-.05.097-.05.046.003.094.03.143.082a.177.177 0 0 1 .051.12c-.102.03-.166.053-.194.067a.396.396 0 0 0-.135.068c-.29.146-.435.23-.435.25.266.22.542.393.83.52a.247.247 0 0 1 .045-.003l.496.106a.243.243 0 0 0 .023.007h.01c.24.047.384.1.43.159a.09.09 0 0 0-.009.04.741.741 0 0 1-.301.066c-.37.01-.602.01-.695 0-.173-.002-.26-.035-.26-.099-.055-.118-.107-.188-.156-.212l-.163-.11a.252.252 0 0 1-.046-.024c-.238-.125-.38-.188-.426-.188-.022 0-.037.007-.047.022l.005.502c.003.123.016.24.037.354l.037.176c-.003.048-.01.075-.019.081a.128.128 0 0 1-.041.011.826.826 0 0 1-.236-.064 2.382 2.382 0 0 0-.125-.05c-.337-.103-.538-.179-.603-.23a.407.407 0 0 0-.055-.038.582.582 0 0 1-.149-.102v-.025c.04.002.072.005.093.007.152.04.266.061.343.064h.01c.12.014.207.006.264-.025a.256.256 0 0 1 .027-.025c.022-.033.023-.255.005-.665a2.217 2.217 0 0 1-.032-.297c-.02-.033-.029-.164-.029-.392l-.023-.018a1.054 1.054 0 0 0-.19.004c-.302.03-.479.06-.528.091a.53.53 0 0 1-.134.043c-.01 0-.023-.007-.042-.021-.009-.008-.014-.012-.014-.014-.092-.086-.139-.17-.139-.255Zm.649.89c.163-.1.273-.151.329-.151.024 0 .037.01.037.032-.003.02-.023.043-.06.067-.019.024-.192.17-.519.438l-.37.266c-.075.08-.126.121-.153.124a.236.236 0 0 1-.107-.057c-.136-.118-.204-.185-.204-.202 0-.03.071-.071.213-.123.117-.057.264-.121.44-.195 0-.007.005-.01.014-.01a4.45 4.45 0 0 1 .38-.188Zm3.68.451a.964.964 0 0 1 .114-.064c.133-.127.218-.206.255-.237.126-.15.19-.259.19-.326 0-.043-.02-.063-.057-.06-.016 0-.025 0-.028.003-.41.053-.672.116-.786.192-.034-.002-.077-.028-.128-.076l-.018-.022c-.045-.098-.048-.146-.01-.146.757-.204 1.349-.329 1.774-.376.186-.036.284-.057.294-.064a1.01 1.01 0 0 0-.11-.076.681.681 0 0 0-.17-.07c-.018-.008-.176.044-.473.157-.076 0-.122-.034-.142-.102-.003-.01-.009-.045-.018-.105-.111-.449-.147-.726-.11-.831.017-.043.045-.065.086-.067a.469.469 0 0 1 .1-.02c.504-.105.888-.154 1.153-.146.184.01.29.04.318.087-.032.07-.057.139-.076.206-.07.511-.104.797-.104.857.003.05.025.075.066.075l.388-.052c.05 0 .095.024.132.072.057.09.085.165.085.225.004.01.005.02.005.03-.003.038-.028.057-.076.057-.116-.028-.402-.027-.856.003a.405.405 0 0 1-.057.008c-.047.005-.076.023-.09.053a.11.11 0 0 0-.013.045c0 .035.018.05.056.048l.1-.007c.22 0 .336.007.345.022.01.018.014.04.014.064.003.025.005.034.005.027.016.04.023.064.023.07-.003.029-.014.047-.033.054a1.06 1.06 0 0 0-.468.098c-.041.017-.075.063-.104.139a.31.31 0 0 0-.01.049c.004.04.026.067.067.082l.662.241c.672.136 1.121.237 1.348.304.076.025.114.05.114.072 0 .025-.02.043-.057.053l-.275.075c-.018-.008-.146-.004-.382.01a7.14 7.14 0 0 0-.389-.022 1.401 1.401 0 0 0-.303-.018c-.1-.008-.155-.027-.165-.057-.025-.063-.03-.132-.066-.184a.913.913 0 0 0-.066-.075c-.085-.085-.218-.14-.398-.166a1.678 1.678 0 0 1-.487-.157c-.41-.103-.636-.13-.676-.083-.076.063-.114.129-.114.199a.188.188 0 0 1-.114.102.53.53 0 0 0-.07.026c-.186.073-.376.11-.568.11-.13 0-.194-.02-.194-.057 0-.03.056-.065.17-.102l.397-.147Zm1.207-.387-.014-.233c-.007-.103-.048-.154-.124-.154-.053 0-.09.015-.108.045a.172.172 0 0 0-.066.143c.003.055.019.094.047.117.1.08.18.12.236.12.02-.003.029-.015.029-.038Zm-.095-1.166c.212-.027.322-.026.331.004.02.09.038.14.058.147.018.01.034.015.046.015.035-.002.053-.023.053-.06-.003-.441-.016-.677-.038-.707-.041-.045-.086-.068-.133-.068a.373.373 0 0 0-.24.095c-.055.05-.08.082-.077.097.004.012.01.024.02.034l.198-.038a.706.706 0 0 1 .038-.004c.028 0 .047.008.057.023.015.093.01.162-.02.207-.025.02-.124.065-.298.136-.056.024-.084.053-.084.085.003.021.023.032.061.034h.028Zm5.54.642-.024-.403a.094.094 0 0 1-.014-.047c.003-.056.035-.083.097-.083l.015.004c.211.029.336.06.375.09.012.008.019.018.019.028-.062.2-.092.337-.092.411-.004.137-.034.225-.093.264a.219.219 0 0 1-.117.036.113.113 0 0 1-.088-.055.455.455 0 0 1-.078-.245Zm-.112 1.058c.036 0 .088.02.156.06.062.052.253.096.575.13.136-.002.216-.016.239-.04.007-.01-.005-.328-.034-.955-.004-.23-.007-.384-.01-.467a.37.37 0 0 1-.01-.083l-.004-1.204c0-.05.014-.083.043-.099a.134.134 0 0 1 .068-.023c.013.002.1.029.259.079.114.039.17.078.17.118a.06.06 0 0 0-.005.024c-.006.002-.01.005-.01.008-.094.097-.114.564-.063 1.402-.045.219-.01.738.107 1.56-.003.074-.044.11-.121.11-.108-.002-.312-.059-.615-.17l-.072-.027a1.266 1.266 0 0 1-.278-.106c-.263-.137-.395-.242-.395-.317Zm-1.423-1.587.488-.561a.285.285 0 0 0 .039-.048c.179-.19.288-.284.33-.284.03 0 .066.028.108.083a.403.403 0 0 1 .097.13c-.003.016-.073.096-.21.241.004.037.037.06.099.072.01.01.082.02.219.031.165.024.248.067.248.13-.003.04-.058.087-.165.142a.658.658 0 0 1-.16.048c-.072.01-.149-.017-.23-.083a.41.41 0 0 0-.234-.099.243.243 0 0 0-.122.047 1.69 1.69 0 0 0-.142.127.552.552 0 0 0-.14.146c-.14.168-.21.273-.21.312.003.026.016.04.039.04.023-.006.098-.037.224-.095.01-.01.08-.037.21-.08.25-.086.463-.086.638 0 .049.027.073.048.073.064 0 .058-.02.103-.058.134a.163.163 0 0 0-.01.056l-.02.083a1.168 1.168 0 0 1-.054.146l-.077.15c-.01.005-.017.016-.02.031-.084.132-.175.198-.273.198-.198-.018-.303-.02-.316-.004-.036.024-.065.095-.088.213-.039.137-.029.23.03.277a.25.25 0 0 0 .146.047c.055 0 .133-.011.233-.035a.164.164 0 0 0 .113-.091.475.475 0 0 0 .053-.194c.01-.095.044-.142.102-.142.017.003.03.01.04.02l.101.248c.03.075.051.163.064.265-.004.048-.015.08-.034.095a.325.325 0 0 1-.137.044.165.165 0 0 1-.034.004c-.4.068-.63.077-.692.027-.169-.081-.263-.194-.282-.34 0-.018.031-.284.093-.798-.004-.041-.012-.064-.025-.066l-.137-.028a.036.036 0 0 1-.014.004l-.088.059a.767.767 0 0 0-.175.118.29.29 0 0 1-.083.052.404.404 0 0 0-.068.027c-.146.06-.23.093-.249.095a3.967 3.967 0 0 0-.272.064.148.148 0 0 1-.05.011c-.019-.003-.029-.011-.029-.028a.058.058 0 0 1 .02-.031.383.383 0 0 0 .088-.095.34.34 0 0 1 .068-.083c.013-.005.02-.012.024-.02.322-.26.626-.552.911-.876Zm.687.557c-.003-.03-.01-.047-.019-.056a.285.285 0 0 0-.19.012c-.247.127-.37.199-.37.218.006.01.014.015.024.015a.502.502 0 0 1 .049-.004c.09-.003.156.016.195.055.006.011.011.037.014.08.004.028.034.043.093.043.058 0 .099-.012.122-.036a.334.334 0 0 0 .077-.213c0-.042.002-.08.005-.114Zm4.168.833c.03.2.028.338-.003.416-.023.035-.06.052-.113.052-.055-.003-.191-.048-.41-.136a.087.087 0 0 0-.029-.016l-.024-.02c-.147-.119-.246-.109-.299.027a.13.13 0 0 1-.111.053 1.29 1.29 0 0 1-.235-.08c-.045-.03-.069-.057-.069-.08 0-.039.094-.153.279-.346a.66.66 0 0 0 .059-.064c.02-.024.03-.035.03-.032.018-.022.04-.04.063-.056.003-.01.006-.018.01-.02 0-.006.001-.008.004-.008l-.014-.012c-.258.056-.407.097-.45.124l-.044.012c-.062-.03-.103-.062-.122-.096-.026-.035-.032-.068-.02-.1.01-.02.046-.034.108-.044.322-.086.498-.13.528-.13.11-.041.221-.08.331-.115l.191-.048c.014-.017.02-.028.02-.037a.09.09 0 0 0-.02-.048c-.01-.013-.024-.02-.044-.02-.183 0-.338.032-.469.096a.37.37 0 0 1-.078-.02c-.046-.029-.083-.092-.113-.188.026-.035.051-.052.074-.052a.162.162 0 0 1 .044-.008.465.465 0 0 1 .093-.032c.394-.123.61-.202.649-.237.114-.104.172-.188.172-.253 0-.037-.015-.056-.044-.056-.082.003-.159.052-.23.149-.108.147-.196.23-.264.248a.268.268 0 0 1-.073.02c-.049-.003-.074-.032-.074-.088a.132.132 0 0 1 .025-.072c.045-.097.093-.19.141-.277a.249.249 0 0 0-.146.004c-.071.022-.138.04-.2.056-.062-.088-.093-.156-.093-.204.032-.03.322-.098.87-.205.329-.09.558-.108.688-.052v.008l.01.008c-.003.097-.065.161-.186.196a.308.308 0 0 0-.102.04c.003.017.006.026.01.029a.124.124 0 0 0 .034.016c.036.019.073.036.112.052.124.064.113.134-.034.209-.085.037-.127.073-.127.108a.067.067 0 0 1 .005.024.29.29 0 0 0 .054.012c.065.003.107.012.126.028a.106.106 0 0 1 .035.08c-.004.062-.064.117-.181.164-.134.046-.21.077-.23.093a.113.113 0 0 0-.015.052c0 .024.015.044.045.06.143-.04.234-.06.273-.06.03 0 .065.016.108.048.052.048.078.096.078.145-.003.037-.063.068-.18.092a.126.126 0 0 0-.054.016 2.75 2.75 0 0 0-.255.036c-.049.013-.073.032-.073.056v.025a.781.781 0 0 0 .156.067c.124.049.186.1.186.157 0 .027-.02.056-.058.088-.004 0-.006.002-.006.004-.029.01-.136.016-.322.016-.007.008-.005.052.005.132a.044.044 0 0 1-.002-.006Zm-.677.014v.017c.02.026.04.044.064.052.039.018.092.028.16.028.076 0 .125-.012.147-.036.023-.013.034-.037.034-.069.014-.224 0-.365-.039-.42a.608.608 0 0 0-.126.016.54.54 0 0 1-.098.011c-.046.006-.073.017-.083.032-.017.017-.024.069-.024.157a.757.757 0 0 0-.01.048.896.896 0 0 0-.025.165Zm.879.165v-.028c.023-.04.088-.12.196-.24l.15-.221a.272.272 0 0 1 .026-.053c.012-.024.053-.132.121-.324l.045-.2c.01-.078.02-.154.034-.225.003-.372.01-.563.019-.57.017-.027.138-.06.367-.1a.016.016 0 0 1 .009-.005c.365-.12.601-.18.709-.18.052 0 .094.016.126.048.043.048.065.093.065.132l-.01.073c-.017.027-.103.064-.26.112a.746.746 0 0 1-.185.068c-.237.02-.38.066-.43.14-.108.113-.147.205-.118.278h.05c.57-.145.915-.222 1.035-.233.085-.008.148-.013.19-.013.03.003.07.029.118.077.023.019.065.08.127.184a.327.327 0 0 1 .054.129c-.004.048-.036.072-.098.072a.56.56 0 0 0-.118-.012c-.295-.019-.454-.016-.473.008a.15.15 0 0 0-.068.105c-.043.17-.059.284-.05.34-.016.075-.017.29-.004.642 0 .302.005.534.014.694-.003.067-.07.1-.2.1a.348.348 0 0 1-.097-.016c-.056-.035-.084-.21-.084-.526a8.589 8.589 0 0 0-.01-.38c-.032-.567-.065-.863-.097-.887-.01-.01-.024-.016-.044-.016a.396.396 0 0 0-.137.032c-.212.086-.318.229-.318.43.03.082-.005.196-.106.34a.715.715 0 0 1-.548.225Zm-.146-2.92.014.012.059.072c.153.193.208.365.166.518a.519.519 0 0 1-.146.035.44.44 0 0 1-.308-.12c-.05-.048-.073-.09-.073-.124 0-.142.048-.253.146-.333a.21.21 0 0 1 .142-.06Z" fill="#FFFFFE"/></g><defs><filter id="a" x="-13" y="0" width="154" height="157" filterUnits="userSpaceOnUse" color-interpolation-filters="sRGB"><feFlood flood-opacity="0" result="BackgroundImageFix"/><feColorMatrix in="SourceAlpha" values="0 0 0 0 0 0 0 0 0 0 0 0 0 0 0 0 0 0 127 0" result="hardAlpha"/><feOffset dy="16"/><feGaussianBlur stdDeviation="6.5"/><feColorMatrix values="0 0 0 0 0 0 0 0 0 0 0 0 0 0 0 0 0 0 0.03 0"/><feBlend in2="BackgroundImageFix" result="effect1_dropShadow_49_8910"/><feBlend in="SourceGraphic" in2="effect1_dropShadow_49_8910" result="shape"/></filter></defs></svg>