<svg width="128" height="128" fill="none" xmlns="http://www.w3.org/2000/svg"><path fill-rule="evenodd" clip-rule="evenodd" d="M40.742 71.534h.664v1.177h.706v-1.177h.663v3.381h-.663v-1.37h-.706v1.37h-.664v-3.381ZM44.595 71.534h.642v2.011c0 .193-.022.386-.043.557a1.356 1.356 0 0 1-.193.47c-.085.13-.17.236-.256.279a.812.812 0 0 1-.471.128c-.107 0-.214-.02-.321-.042a.73.73 0 0 1-.321-.129 1.078 1.078 0 0 1-.214-.3 1.434 1.434 0 0 1-.15-.385 2.975 2.975 0 0 1-.064-.578v-2.011h.663v2.054c0 .193.022.343.086.428a.333.333 0 0 0 .278.171c.107 0 .193-.064.257-.15a.869.869 0 0 0 .107-.449v-2.054ZM46.5 74.359h-.364l-.107.556h-.663l.791-3.381h.343v.877l-.236 1.22h.236v.728Zm.385 0H46.5v-.728h.235l-.235-1.22v-.877h.364l.792 3.381h-.685l-.086-.556ZM47.827 71.534h1.84v.684l-1.177 1.97h1.22v.727h-2.012v-.706l1.178-1.948h-1.05v-.727ZM50.01 71.534h.663v1.177h.706v-1.177h.664v3.381h-.664v-1.37h-.706v1.37h-.663v-3.381ZM52.386 73.225c0-.557.107-.985.3-1.285.192-.3.449-.47.791-.47h.022v.791h-.022c-.128 0-.235.086-.3.236-.085.15-.128.385-.128.728 0 .342.043.599.128.749.065.128.172.213.322.213v.771a.975.975 0 0 1-.578-.171c-.15-.129-.279-.321-.386-.578a3.166 3.166 0 0 1-.15-.984Zm1.113-1.755a.99.99 0 0 1 .813.47c.171.3.278.707.278 1.263 0 .385-.043.706-.128.963-.086.257-.193.45-.364.6a.857.857 0 0 1-.578.192h-.021v-.77c.128 0 .235-.065.32-.214.086-.15.107-.407.107-.792 0-.322-.042-.557-.107-.686-.085-.15-.192-.235-.32-.235v-.791ZM54.954 71.534h.599l.792 1.861v-1.861h.62v3.381h-.62l-.792-1.862v1.862h-.6v-3.381ZM58.463 73.695v-.706h1.005v1.434c-.192.214-.363.364-.492.428-.15.086-.342.107-.535.107-.256 0-.47-.064-.62-.193a1.446 1.446 0 0 1-.364-.62 2.989 2.989 0 0 1-.129-.92c0-.364.043-.685.129-.964.107-.278.235-.47.428-.62a.972.972 0 0 1 .578-.171c.235 0 .407.042.535.107.107.064.192.17.278.32.085.129.128.322.171.536l-.62.17c-.043-.106-.086-.213-.15-.277-.043-.065-.129-.107-.236-.107-.128 0-.256.085-.342.235-.086.171-.129.407-.129.75 0 .363.043.641.129.79.086.15.214.236.364.236.085 0 .15-.021.214-.043.064-.042.15-.107.235-.192v-.3h-.45ZM64.756 74.359h-.385l-.108.556H63.6l.792-3.381h.364v.877h-.022l-.214 1.22h.236v.728Zm.364 0h-.364v-.728h.214l-.214-1.22v-.877h.342l.814 3.381h-.685l-.107-.556ZM67.13 73.695v-.706h1.007v1.434c-.193.214-.365.364-.514.428-.15.086-.321.107-.535.107-.257 0-.45-.064-.6-.193a1.29 1.29 0 0 1-.385-.62 2.989 2.989 0 0 1-.128-.92c0-.364.043-.685.15-.964.085-.278.235-.47.406-.62.15-.108.342-.171.6-.171.213 0 .406.042.513.107a.878.878 0 0 1 .3.32c.064.129.128.322.171.536l-.642.17a.558.558 0 0 0-.129-.277.341.341 0 0 0-.235-.107c-.15 0-.257.085-.342.235-.086.171-.129.407-.129.75 0 .363.043.641.129.79.085.15.213.236.364.236.064 0 .128-.021.213-.043.065-.042.129-.107.214-.192v-.3h-.427ZM68.544 74.915v-3.381h.942v.684h-.3v.685h.3v.878a.323.323 0 0 0-.086-.172.194.194 0 0 0-.15-.064h-.064v1.37h-.642Zm.942-3.381h.128c.214 0 .364.021.47.085.108.064.193.15.258.3.064.15.106.342.106.556 0 .193-.02.343-.085.493a.803.803 0 0 1-.193.32c-.064.043-.15.108-.235.129a.595.595 0 0 1 .171.128.804.804 0 0 1 .107.171c.043.108.064.172.086.215l.32.984h-.748l-.343-1.028c-.021-.042-.021-.085-.042-.106v-.878c.042 0 .085-.021.15-.042.042-.022.085-.044.106-.108.022-.064.043-.128.043-.192a.455.455 0 0 0-.064-.257c-.043-.064-.129-.085-.235-.085v-.685ZM70.854 74.915h.642v-3.381h-.642v3.381ZM73.38 73.524l.578.278c-.043.257-.107.471-.171.642a.972.972 0 0 1-.321.386.82.82 0 0 1-.47.15.953.953 0 0 1-.557-.172c-.15-.107-.279-.3-.386-.556-.107-.278-.15-.621-.15-1.027 0-.557.086-1.007.279-1.306.192-.3.45-.45.791-.45.257 0 .472.086.621.278.15.172.278.429.343.771l-.578.214c-.021-.107-.043-.171-.064-.236-.043-.063-.086-.128-.129-.17-.064-.043-.107-.065-.17-.065-.15 0-.279.086-.344.279-.064.15-.107.363-.107.663 0 .385.043.642.107.77.086.15.193.214.322.214a.335.335 0 0 0 .278-.17c.064-.108.107-.279.128-.493ZM75.649 71.534h.663v2.011c0 .193-.021.386-.064.557a1.985 1.985 0 0 1-.171.47c-.086.13-.171.236-.278.279a.789.789 0 0 1-.45.128c-.107 0-.214-.02-.343-.042a.644.644 0 0 1-.299-.129 1.829 1.829 0 0 1-.235-.3 1.358 1.358 0 0 1-.129-.385 2.973 2.973 0 0 1-.064-.578v-2.011h.664v2.054c0 .193.02.343.085.428.064.107.15.171.257.171a.334.334 0 0 0 .278-.15c.064-.106.086-.256.086-.449v-2.054ZM76.741 71.534h.663v2.546h1.006v.835h-1.669v-3.381ZM78.41 71.534h1.99v.834h-.663v2.547h-.664v-2.547h-.663v-.834ZM82.07 71.534h.663v2.011c0 .193-.021.386-.064.557-.043.193-.086.342-.171.47-.086.13-.172.236-.278.279a.791.791 0 0 1-.45.128c-.107 0-.214-.02-.343-.042a.759.759 0 0 1-.3-.129 1.84 1.84 0 0 1-.234-.3 1.358 1.358 0 0 1-.129-.385 2.973 2.973 0 0 1-.064-.578v-2.011h.663v2.054c0 .193.022.343.086.428.064.107.15.171.278.171.107 0 .193-.064.257-.15.064-.106.086-.256.086-.449v-2.054ZM83.183 74.915v-3.381h.941v.684h-.3v.685h.3v.878a.326.326 0 0 0-.085-.172.195.195 0 0 0-.15-.064h-.065v1.37h-.641Zm.941-3.381h.15c.192 0 .342.021.45.085a.6.6 0 0 1 .256.3c.064.15.107.342.107.556 0 .193-.021.343-.085.493a.804.804 0 0 1-.193.32c-.064.043-.128.108-.235.129a.589.589 0 0 1 .17.128.804.804 0 0 1 .108.171c.043.108.064.172.085.215l.321.984h-.749l-.342-1.028c-.022-.042-.022-.085-.043-.106v-.878c.043 0 .086-.021.15-.042.043-.022.085-.044.107-.108.043-.064.043-.128.043-.192a.455.455 0 0 0-.065-.257c-.042-.064-.107-.085-.235-.085v-.685Z" fill="#007F3D"/><path fill-rule="evenodd" clip-rule="evenodd" d="M86.393 74.359h-.364l-.107.556h-.664l.793-3.381h.342v.877l-.236 1.22h.236v.728Zm.385 0h-.385v-.728h.235l-.235-1.22v-.877h.364l.791 3.381h-.684l-.086-.556ZM87.762 71.534h.664v2.546h1.027v.835h-1.69v-3.381ZM95.06 71.534h.664v2.011c0 .193-.022.386-.065.557a1.347 1.347 0 0 1-.192.47c-.086.13-.171.236-.257.279a.79.79 0 0 1-.45.128c-.106 0-.213-.02-.342-.042a.558.558 0 0 1-.3-.129c-.085-.086-.17-.171-.235-.3a1.358 1.358 0 0 1-.128-.385 2.973 2.973 0 0 1-.064-.578v-2.011h.641v2.054c0 .193.043.343.108.428.064.107.15.171.257.171a.334.334 0 0 0 .278-.15c.064-.106.085-.256.085-.449v-2.054ZM96.151 71.534h.62l.793 1.861v-1.861h.62v3.381h-.62l-.792-1.862v1.862h-.62v-3.381ZM98.634 74.915h.663v-3.381h-.663v3.381ZM99.555 71.534h.685l.471 2.44.47-2.44h.664l-.77 3.381h-.728l-.792-3.381ZM102.059 71.534h1.754v.727h-1.091v.535h1.006v.685h-1.006v.664h1.134v.77h-1.797v-3.381ZM104.221 74.915v-3.381h.941v.684h-.299v.685h.299v.878a.326.326 0 0 0-.085-.172.195.195 0 0 0-.15-.064h-.064v1.37h-.642Zm.941-3.381h.129c.192 0 .342.021.449.085a.6.6 0 0 1 .257.3c.064.15.107.342.107.556 0 .193-.022.343-.086.493a.814.814 0 0 1-.192.32c-.065.043-.15.108-.236.129a.573.573 0 0 1 .171.128.76.76 0 0 1 .107.171c.043.108.065.172.086.215l.321.984h-.749l-.321-1.028c-.021-.042-.021-.085-.043-.106v-.878c.043 0 .086-.021.129-.042.043-.022.085-.044.106-.108a.608.608 0 0 0 .043-.192.453.453 0 0 0-.064-.257c-.042-.064-.107-.085-.214-.085v-.685ZM106.361 73.802l.62-.064c.022.15.043.278.086.364a.323.323 0 0 0 .3.192.276.276 0 0 0 .214-.085.515.515 0 0 0 .064-.257.438.438 0 0 0-.064-.235c-.043-.065-.15-.129-.343-.193-.278-.107-.492-.235-.599-.407a1.043 1.043 0 0 1-.193-.642c0-.192.043-.342.086-.492a.726.726 0 0 1 .3-.364.908.908 0 0 1 .513-.15c.278 0 .471.086.621.257.15.15.235.407.257.75l-.621.064c-.021-.15-.042-.257-.107-.322-.043-.085-.128-.107-.214-.107-.085 0-.128.022-.171.065a.346.346 0 0 0-.065.192c0 .065.022.107.065.15.021.043.086.085.214.129.278.085.492.192.621.3a.748.748 0 0 1 .256.363c.065.15.086.321.086.492 0 .235-.043.428-.107.6a1.136 1.136 0 0 1-.321.428c-.128.085-.299.128-.514.128-.364 0-.599-.107-.749-.321a1.833 1.833 0 0 1-.235-.835ZM108.651 74.915h.642v-3.381h-.642v3.381ZM109.614 71.534h1.99v.834h-.663v2.547h-.664v-2.547h-.663v-.834ZM111.689 71.534h.727l.429 1.134.427-1.134H114l-.835 1.969v1.412h-.642v-1.412l-.834-1.97ZM44.166 63.144v.45a8.697 8.697 0 0 0-.92.749s.043.042.364 0c.15-.022.32-.065.556-.129v.663c-.085.044-.171.086-.257.129-.428.214-.064.493-.877.428-.813-.064-1.177-1.091-.578-1.284.3-.086 1.092-.578 1.712-1.006Zm0-1.798c-.792.279-1.969.621-2.867.514-.771-.214-.493.15-.6.235.214.257.985 1.07.985 1.07s.32.236.749-.256c0-.172.963-.707 1.733-1.006v-.557Zm0-2.696c-.128-.107-.364-.257-.578-.107 0 .406-.042 1.113-.042 1.113l-.386.385s.257.128.386.3c.042.3.021.47.021.47l.6.064V58.65Zm0-2.59c-.47-.086-.749-.342-.599.171.128.407.407.642.6.77v-.94Zm.578-3.04c.021.172-.3-.042-.193.857.279.6.214 1.798.129 2.183a1.384 1.384 0 0 1-.514 0v.942c.129.085.214.128.214.128l.92-.45 1.092-.063-.492.749s-.6-.257-.92-.065c-.172.086.15.878 0 1.306 0-.064-.535.064-.728.128 0 0-.021-.042-.086-.085v2.225l.514.065s-.022-.172.043-.428c.042-.257.342-.321.342-.321v.791s-.364.172-.899.364v.557c.386-.15.728-.236.878-.214.107.214 0 .749.064.749.043 0-.407.32-.942.706v.45c.129-.086.279-.172.45-.257l.385-.214c.128-.15.086.535.086.791-.386.129-.686.236-.92.3v.663c.32-.128.598-.235.94-.192.086 0 .13 3.339.429 4.452.342.085.47.235.728-.964.15-.684.107-3.66.107-3.895 0 0 .021-.043.128-.085v-.856c-.043.042-.107.064-.15.085.022-.128-.021-.492.022-.578.021.043.085.086.128.108v-1.2l-.107.044c-.021-.193-.021-.407.043-.557h.064v-.642h-.021l.02-1.99v-.6l-.32-.32.171-.236.15-.085v-1.499l-.728.022c0-.278.257-.343.364-.557-.064-.813.257-1.37-1.391-2.311Zm2.162 6.528c-.15.193-.257.364-.129.493l.129-.064v-.429Zm0-1.37c-.086.172-.086.279 0 .386v-.385Zm-.407-.812.129-.086s.128.086.278.214v-1.84l-.171.213h-.236v1.499Zm0 1.241c.214-.171.064-.107.085-.514l-.085-.085v.599Zm.407 1.883-.407.107v.642c.129-.021.257-.042.407-.085v-.664Zm-.407 3.703c.085-.043.192-.065.407-.086v-2.632l-.407.278v1.199c.085.064.15.106.15.17a.39.39 0 0 1-.15.215v.856Zm.407-6.7v-1.84l.877-1.112s.47-.493.813-.493c.364 0 .343 1.134.343 1.134s.3.429-.428.728c-1.199.129-1.37.642-1.413.92.6-.064.92.493 1.07.707l.364-.236c.193-.32.428.043.578.043.107.642-.086.706-.257.813l-.428.236-.514.706c-.577.578-.235.428-1.005.878v-.429c.17-.235.406-.492.32-.727a2.692 2.692 0 0 1-.32-.257v-.385c.043-.086.214.043.235-.043.022-.278-.107-.492-.235-.642Zm0 6.614a4.03 4.03 0 0 1 .963.043c.6-.086.257-.856.257-.856l-1.07-1.006c-.386-.086.963-1.263 3.188-1.905.086-.043.129-.107.129-.17v-.065c-.064-.428-1.113-.9-1.327-.707-.236.407-1.241.814-1.241.814l-.9.235v.664c.322-.043.6-.086.493 0l-.492.321v2.632ZM107.174 66.761v.535c-.193-.171-.407-.364-.621-.535l-.043-.45c0-.085.278.15.664.45Zm0-2.162v1.092c-.343-.236-.707-.685-.685-.792l.149-.407s.086.086.536.107Zm0-5.072v.342c-.065-.106-.043-.32-.022-.363l.022.021Zm0-.92c-.214-.064-.557 0-.771-.086-.193-.45-.193-.984-1.07-1.263.278.685.407 1.263.321 1.67.278.3.877.6.92 1.092.022.17.257.17.364.256.043-.235-.064-.663.022-.92.064-.171.171-.343.214-.514v-.235Zm0-2.097v1.498h-.193s0-.386-.107-.642c0-.172-.407-.45-.642-.814-.15-.214-.064-.492-.064-.492.128 0 .642.043.685.214a.827.827 0 0 1 .321.236Zm-1.798 3.937c-.086.086-1.156 1.178-1.22 2.226v.193c0 .17.043.342.128.514.193.492.578.47.856.513.129.021.214.129.257.193 0 0 .107-.364 0-.6-.107-.256-.085-.45-.064-.706.214-.47.471-.834.557-1.027.085-.15.042-.257.042-.257l-.492.45v-.578l.257-.514.15-.407h-.471Zm1.798-2.44c.235.043.449.086.663.086.15-.085-.192-1.091-.663-1.583v1.498Zm0 .835a.77.77 0 0 0 .042-.214c-.021 0-.021-.021-.042-.021v.235Zm0 8.454v-.535c.599.45 1.476 1.049 2.054.856.964 0 .899-.257.856-1.07.043-1.177-.3-2.097-.3-2.097-.063-.043-1.348.364-1.797 1.005-.15.236-.385.385-.535.343-.086 0-.172-.064-.278-.107v-1.092h.085c.792-.043 2.504-.984 2.525-.984.172-1.177.471-1.413.257-1.712-.535.3-.663.684-1.177.985-.727-.065-1.048-.407-1.241-.728.043-.9 1.156-1.499 1.969-1.627 1.155-.578 1.819-.877 2.975-1.455 0 0 .749-.535.364-.6-1.413-.32-4.794 1.948-4.794 1.82-.236-.214-.343-.193-.771-.386-.086.022-.15 0-.192-.043v-.342c.406.021.791.064 1.22.086.641-.321 1.262-.514 1.926-.835-.236-.192-.386-.578-.621-.77 0 .32-.086.791-.556.706-.108-.021-.215-.064-.322-.086-.385.193-.791.364-1.198.557.321-.364.728-.728 1.049-1.092 0-.214-.428-.492-.428-.727-.064-.215.577-.022.899.128.107-.107.235-.236.363-.321l-.171-.47-.449.363c-.535-.043-1.284-.021-1.006-.193l.878-.749-.878-.064-.086-.47c.257-.15.728-.172 1.391-.065.214-.257.407-.6.514-1.113-.171-.3-.107-.663-.043-.963.385.321.749.6 1.391 1.263-.363.385-.706.856-1.07 1.262.193.215.407.536.514.792.492.236.62.62.471.942-.171.128-.535.086-.685.214.107.193.321.385.449.578.599-1.37 1.52-2.012 1.798-2.996-.45.128-.77.535-1.22.663-.342-.064.343-.813 1.477-1.391.727.492.941.984.363 1.67-.427.149-.984 1.026-1.562 1.797.407-.214.899-.257 1.306-.235-.129-.236.428-.257 1.091-.214 0 .32-.064.77-.064 1.113-.235.128-.514.192-.771.32-1.348.686-2.653 1.349-4.001 2.055-.043.128 0 .193-.043.343.278-.3.406-.514 1.605-.878.193.321.342.321.513.942-.278.578-.406 1.134-.706 1.712.471-.171 1.07-.214 1.755-.214.257.021.492.235.642.3.043.406-.043.492-.128.749-.107.064-.064.363-.642.042-.193-.107-.471.065-.535.065-.279.085-.364.15-.642.235.107-.321.235-.492.406-.492-.299.043-.577.106-.877.15.128.963.407 1.904.3 2.868.021.449-.086.834-.386 1.284-.278.17-.321.17-.642.085-.171-.043-.257-.235-.942-.192-.513-.107-1.07-.493-1.647-.985ZM95.894 58.457c-.02.578-.427 2.055-.534 3.04.214-.13.47-.236.706-.364v.941c-.342.214-.621.428-.749.62-.043.022-.086.15-.129.15-.128.022-.15.793-.15.793 0 .15-.32.749.172.856.235 0 .535.192.856.45v1.262a5.45 5.45 0 0 0-.342-.6c-.343-.534-.771-1.626-1.007-.727-.278 1.22-.428 1.947-.62 2.397-.514 1.241-1.327 1.177-1.52 1.284-.77.214-2.16.3-2.075.107.021-.043-.086-.128-.043-.171.45-.021 1.091-.172 1.883-.664 1.54-1.241 1.69-4.687 1.798-4.687-.278.043-.663.236-.899.321-.064.043-.043.15-.107.214-.535-.15-1.242-.47-1.734-1.027-.021-.257-.064-.342.086-.406.235.107.599.17.834.277.236 0 1.306-.299 1.905-.62.257-1.113.514-2.61.557-3.103.214-2.183.17-4.11.086-4.195.15.064.32 0 .47.064.236.086.493.214.728.343v2.76a2.274 2.274 0 0 1-.086.493c.043 0 .065.021.086.042v.257c-.064-.042-.107-.064-.172-.107Zm.172-.684V55.01c.235.15.47.279.706.386.064.835-.364.984-.428 1.198-.064.215-.128.343-.171.556-.064.236-.086.45-.107.622Zm0 8.432v-1.263c.856.642 1.926 1.798 2.654 1.82 1.07-.022 1.583-.664 2.033-.45-.064.62-.535 1.39-1.82 2.461-1.026-.214-1.54-.47-1.99-.856-.32-.535-.577-1.134-.877-1.712Zm0-5.072c.278-.129.535-.3.706-.536 0-.214.043-.727-.043-.963-.15-.385-.385-.856-.663-1.07v-.257c.407.322.899 1.028 1.327 1.092.32.514.514 1.37.3 1.84 0 .043-.92.407-1.627.835v-.941ZM82.882 55.91v.386l-.128-.386h.128Zm0-1.605a1.233 1.233 0 0 0-.492-.32c.086-.365-.47.77-.428 2.91.064.428-.941.214-.813.321l-.278-.257c-.279-.064-.557 0-.386.407l.193.492c.343.813.728.663 1.049.385.085-.086-.043-.428.043-.514a.732.732 0 0 1 .214-.085c.042.278-.086.813-.022 1.091-.064.086-.107.15-.171.236.086.15.171.278.257.428-.942.385-1.199.749-3.253 1.22-.3 0-.77-.043-1.092-.043-.15.043.15.492 1.177.706.129 0 .236-.15.492-.257.493-.235 1.37-.556 2.312-.877.385-.171.792-.364 1.198-.514v-1.113c-.064.065-.15.129-.214.172-.085-.214-.02-.9-.107-1.114.065.022-.107-1.669.321-2.354v-.92Zm-1.54 6.506c.577.386.941.514 1.24.685.108.214.15.407-.127.663-.043.044-.343.236-.257.3.278-.064.32-.107.535-.021.021.171.085.599-.15.77-.75.45-.9.878-.856.92.428-.32.92-.727 1.155-.898v5.521c-.128-.107-.192-.192-.342-.385-.043-.192-.128-.278.021-.513.043-.386.043-.92.022-1.391-.728.535-1.242 1.027-1.284 1.326-.172.386-.621.6-.578.62-.214.13-1.049-.662-1.241-.705-.214-.214-.172-.492-.257-.77.856.192 1.37.32 1.626.17.62-.556 1.199-.941 1.798-1.326 0-.536.043-1.007.043-1.541-.364.235-.45.599-.792.835-.107.085-.642.085-.77.02-.279-.427-.407-.427-.514-.962.171-.15.535-.065.706-.107.214-.215.428-.514.535-.728-.193-.214-.578.47-.556-.706.3-.172.428-.278.47-.535-.235-.086-.556-.364-.642-.685-.085-.236.065-.514.215-.557Zm1.54-5.586v-.92a.7.7 0 0 1 .193.706.467.467 0 0 0-.193.214Zm1.028 2.162v.706c-.3.279-.578.578-.792.814a8.55 8.55 0 0 0 .792-.236v.578a9.999 9.999 0 0 0-1.028.385v-1.113c.279-.235.536-.513.707-.877l.32-.257Zm0-1.434v.92c-.107.086-.278.129-.578.129-.214-.15-.343-.407-.45-.707v-.385c.343 0 .685.043 1.028.043Zm-1.028 7.277c.107-.086.15-.107.107-.064.022-1.028.043-1.52.065-2.547.214-.386.535-.899.791-.728l.065.064v.6c-.022-.043-.043-.065-.064-.086-.043.021-.108 0-.15 0-.064.064-.086.15-.15.193-.021.684-.021 1.348.021 2.011.086.022.107.022.193.043.043-.021.107-.043.15-.086v.664c-.086.086-.193.171-.278.257a8.29 8.29 0 0 0 .042 1.626s.086-.043.236-.106v.513c-.086.064-.15.128-.236.193 0 .642.129 1.434.193 2.097.021.086.021.171.043.235v.9c-.257 0-.707-.022-.728-.065-.15-.085-.235-.15-.3-.193V63.23Zm1.028-5.136c.128-.13.278-.258.45-.364.727-.493 1.412-.964 2.16-1.477.022-.471.022-.856-.064-1.327a16.453 16.453 0 0 0-1.027-.107c-.556.514-.984.727-1.52 1.134v.92c.108-.107.172-.278.322-.513.236-.407.706-.77.984-1.156.428-.086.322.321.278.45-.256.577-.898 1.155-1.583 1.733v.706Zm0 1.155v-.578c.535-.214 1.049-.45 1.627-.749.149-.086.02-.171.192-.3.278-.043.342-.064.62-.106.557.342.578.47.6.834-.129.3-.236.578-.407.578-.877.064-1.54.236-1.82.514-.192-.172.13-.3 0-.386a5.62 5.62 0 0 0-.812.193Zm0 8.86c.064.6.15.386.193.471.042.15.128.364-.022.407-.022.021-.085.021-.171.021v-.899Zm0-3.038c.47-.215 1.583-.621 2.161 0 .835.834.322 1.455.322 1.455-.386.214-.921.278-1.349.256.086-.427.278-.663.107-1.433.086-.15-.62-.215-1.241.235v-.513Zm0-5.116c.107.086.256.193.342.364.107.364.15.813.343 1.477.171.107.128.45.192.685-.3.3-.599.535-.877.813v-.663c.128-.108.256-.258.364-.364 0-.321-.086-.621-.086-.942-.064-.3-.129-.578-.278-.77v-.6ZM67.345 59.613v.171l-.021-.021c0-.065.021-.107.021-.15Zm0-1.734v1.327c-.064-.385-.385-.535-.492-1.327h.492Zm0 8.625c-.342.557-.706 1.156-.706 1.477.128.492.428.043.706-.578v.685c-.171.321-.32.578-.47.749 0 0-.365.428-.686.214-.02-.085-.042-.193-.064-.278v-.343c.086-.792.642-1.862 1.22-2.76v.834Zm0-6.72c.32.32.77.813.792.92.043.108 1.027-.128.535-1.327-.492-1.198-1.006-1.498-1.006-1.498h-.321v1.327c.021.107.021.235 0 .407v.171Zm4.388 2.525c-.193.385-.493.685-.75.963-.342-.15-.77-.15-1.134-.063-.193.877-.385 1.819-.428 2.889-.022.342-.107.877-.214.941-.15.086 0 .492-.021.792a.92.92 0 0 0 .62.856c.343-.129.62-.214.707-1.113.235-.62.513-1.091.813-1.37.15.15.3.3.407.428V64.9c-.3.15-.685.214-1.306.214.021.214.085.535.043.749.128.086.3.15.428.236-.129.32-.45.513-.62.834-.215-1.027-.044-1.755.042-3.103.3-.086.45.064.578.342.278-.235.62-.428.835-.556v-1.306Zm-3.66 3.19s-.364.47-.728 1.005v-.835c.685-1.048 1.37-1.904 1.37-1.904l1.027-2.718c-.492.128-.685-.129-.535-.62.171-.493 1.092-3.169.942-3.061-.214.042-.364.256-.578.3-.043.77-.107.855-.75.92-.042-.172.023-.193 0-.364-.234-.107-.341-.193-.663-.172-.064-.256-.085-.47.215-.535.063-.406-.215-.984.128-1.326.535.192.47.77.941.813.321-.193.728-.364.857-.514-.044-.45.171-.792-.15-1.477.192-.642.492-1.24 1.006-1.712.171.107.364.257.578.535v2.911c-.172.085-.343.15-.429.236-.064.491-.256 1.134-.214 1.134.279-.193.492-.386.643-.578v1.455c-.044.064-.086.15-.15.214-.321.086-.62-.064-.899-.257-.214.236-.257.492-.107.77.128-.106.171-.256.3-.363.15-.086.406.15.577.278a11.55 11.55 0 0 0-1.22 2.633l.942-.857c.214-.17.385-.213.557-.32v.663c-.685.3-1.52 1.006-2.226 1.648-.428 1.177-.92 1.947-1.52 3.36-.192.492-.428.941-.642 1.327v-.685c.364-.792.728-1.905.728-1.905Zm3.66-6.507v-1.455c.3-.343.449-.664.663-1.006 0 0-.343.107-.663.214v-2.91c.15.213.32.47.47.834-.021.492-.235.642-.32.899-.043.128-.022.235-.022.385.45-.364.813-.514 1.263-.6.62.065.792.28 1.006.664-.835 1.049-1.67 2.012-2.397 2.975Zm0 4.623v-1.306c.106-.192.17-.385.192-.62l-.192.064v-.664c.085-.042.15-.107.235-.15.492.215.728.578.941.985-.106.47-.77 1.156-1.027 1.605-.043.022-.086.043-.15.086Zm0 3.017V64.9c.235-.107.406-.278.599-.514.235.086.706.514.813.792-.342.321-.835.6-1.349.642.215.364 1.113.514 1.713.685.043.835-1.263 1.113-1.305.984a1.814 1.814 0 0 0-.471-.856ZM58.271 60.404c-.021.429-.021.857-.021 1.285.32-.279.62-.685.749-1.092l.492.043a.841.841 0 0 1 .171-.214v1.348c-.535.278-1.348.728-1.39.985.042 1.455.106 2.74.063 3.488.257.343-.128 2.162-.62 2.44-.214.343-.493-.663-.792-2.012l.192-.342c0-1.648-.256-3.06-.214-4.773-.3-.021-.727.514-.834.77-.086.215-.278.343-.578.386-.428-.064-.813-.578-1.006-.813-.364-.364-.514-.792-.47-1.07.042-.278.684.535 1.219.47.021-.042.407-.085 1.627-1.112.042-4.174.171-6.207.47-6.592.257-.278 1.734 1.134 1.67 1.712-.343.984-.62.92-.642 3.98.3-.17.77-.363 1.305-.555v.791a7.95 7.95 0 0 0-1.39.877Zm1.391.022c.792-.942 1.584-1.37 1.349-1.477-.471.15-.92.343-1.349.578v-.791a15.61 15.61 0 0 1 1.84-.578l.515-.108c.192.108.342.343.513.578l-.043.385c-.792.535-1.262.878-2.333 1.948l-.064.6c-.085.042-.235.106-.428.213v-1.348ZM33.857 62.103v.084c-.085-.084-.15-.169-.236-.275-.02 0-.02.022-.042.022.042.02.085.02.17.169-.042.042-.042.063-.106.106-.086-.022-.172-.022-.257-.043a.622.622 0 0 1 .085.212c0 .042-.02.084-.02.105-.044.022-.065 0-.108 0 0 0-.043 0-.022-.084 0-.021-.02-.063-.02-.063-.022-.043-.044-.043-.065-.085.064.021.086.021.086.042-.022-.042-.022-.063-.043-.106-.129.043-.236.106-.364.128a.302.302 0 0 1-.193 0c-.021-.043-.021-.043-.021-.085 0-.021.021-.043 0-.127-.022-.106.042-.212.128-.339l.043-.02c.022-.022-.15.274-.086.38.043.127.065.106.172.085a1.18 1.18 0 0 0 .257-.106c.021 0-.086-.17-.172-.212-.043 0-.064-.021-.064-.042 0-.064.064-.17.086-.17l.064.022s-.021 0 0 .084c.021.085.214.297.214.297.15-.021.193 0 .214-.021-.043-.064-.107-.064-.15-.127-.021-.106.022-.149.043-.19.129-.022.236.105.278.21a.93.93 0 0 0 .13.149Zm0-.296c-.021 0-.021-.022-.043-.043 0-.042-.021-.105-.021-.17 0 0-.065.022-.043.044-.022.063 0 .084-.022.126-.02 0 .044.064.13.148v-.105Zm0-.424v.212c-.021-.021-.043-.021-.043-.021-.042 0-.107.02-.128.02 0-.02 0-.041.021-.041.065-.021.086-.106.107-.17h.043Zm-.236.022c-.02-.022-.278-.17-.428-.064-.064.042-.043.106-.043.148 0 0 0 .021-.021.021 0 0 .065.022.086 0 .021-.042.064-.042.085-.042.065.021.129.042.15.042h.043l-.086-.063h.086l.086.021h.042v-.063Zm.386.867v.085l-.15-.17v-.084c.043.063.086.106.15.169Zm0-.296s-.022 0-.022.021l-.128-.19v.105a.751.751 0 0 1 .15.19v-.126Zm0-.233v.148c-.022 0-.043-.021-.043-.063v-.043l-.107-.126c.043.02.107.063.15.084Zm0-.212h-.022c0 .043 0 .085.022.128v-.127Zm0-.211v.063c-.022.043-.064.064-.107.085 0 .042.021.085 0 .106 0 .02-.022.02-.043.02v-.21c.043 0 .086-.043.15-.064Zm0 .063v-.063l.021-.021c0 .042 0 .063-.02.084Zm.086.953v.126c-.022-.02-.043-.063-.065-.084l-.02-.021v-.085l.02.021s.043.043.065.043Zm0-.656v.275c-.022.021-.022.063-.043.084.021 0 .043 0 .043.022v.211c0-.063-.043-.127-.086-.17v-.126a.288.288 0 0 1 .064-.085h-.064v-.148l.021.021c.022-.02.043-.063.065-.084Zm0-.233v.148c-.022.043-.065.064-.086.064v-.127c.021 0 .043-.022.064-.043 0 0 .022 0 .022-.042Zm0 .148c.064-.042.106-.085.106-.127.022-.021.022-.085.022-.106 0 0-.043 0-.064.021-.022.022-.043.064-.064.064v.148Zm0 .36v-.275h.021c.021-.021.021.063 0 .127.021 0 .043.02.064.02l.064-.02-.064-.064c-.021-.063-.043-.169-.021-.127l.128.085c0-.042 0-.063-.021-.106l.064-.042a.418.418 0 0 1 .043.19.23.23 0 0 0 .171.021c.043-.02.086-.02.129-.02-.043.063-.065.105-.129.21-.064-.02-.128-.063-.193-.084l-.085.085c-.022.063-.065.106-.107.084-.022-.02-.043-.063-.064-.084Zm0 .19c.128.042.256.085.3.148.106.043.17 0 .192-.106-.107-.126-.214-.19-.214-.148.022.043.086.085.128.127-.128 0-.235-.063-.406-.105v.084Zm0 .317v-.126c.021 0 .021 0 .021-.021 0 0 0-.022-.021-.043v-.127c.042.042.064.106.085.148.022-.021.043.064.064.148-.042 0-.107.021-.15.021Z" fill="#007F3D"/><path fill-rule="evenodd" clip-rule="evenodd" d="M24.839 71.924c-4.263 0-7.733-3.43-7.733-7.641 0-4.233 3.47-7.662 7.733-7.662v-.296c-4.434 0-8.033 3.556-8.033 7.958 0 4.381 3.599 7.936 8.033 7.936v-.295Zm7.733-7.641c0 4.212-3.45 7.64-7.733 7.64v.296c4.455 0 8.054-3.555 8.054-7.936 0-4.402-3.599-7.958-8.054-7.958v.296c4.284 0 7.733 3.429 7.733 7.662Z" fill="#007F3D"/><path fill-rule="evenodd" clip-rule="evenodd" d="M24.24 69.785v.191a.165.165 0 0 0-.107.043.161.161 0 0 0-.043.084c0 .042.021.085.043.106.021.02.064.042.107.042v.19c-.043 0-.086 0-.128.043-.022.021-.044.064-.044.127 0 .042.022.085.065.127a.166.166 0 0 0 .107.042v.191a1.31 1.31 0 0 1-.321-.043c-.064-.02-.129-.063-.15-.126-.043-.043-.065-.106-.065-.191 0-.063.022-.127.043-.17a.47.47 0 0 1 .172-.105c-.043-.021-.086-.064-.129-.085a.388.388 0 0 1-.043-.148c0-.106.043-.19.15-.254a.721.721 0 0 1 .322-.064h.02Zm-.943 0v1.164h-.364v-.761c-.064.042-.128.084-.193.106-.042.02-.128.042-.214.063v-.254c.129-.042.236-.084.3-.127.065-.064.129-.105.171-.19h.3Zm.943 1.186v-.19c.043 0 .085-.022.129-.043.042-.042.042-.085.042-.127 0-.063-.021-.106-.043-.127-.043-.042-.085-.042-.128-.042v-.19a.168.168 0 0 0 .107-.043c.043-.021.043-.064.043-.085 0-.042 0-.084-.043-.105a.165.165 0 0 0-.107-.043v-.19c.171 0 .3.042.385.085.086.063.129.126.129.232 0 .042-.021.085-.064.148-.022.021-.065.064-.107.085.064.042.128.063.15.127a.227.227 0 0 1 .064.148.395.395 0 0 1-.043.17.562.562 0 0 1-.129.105.195.195 0 0 1-.15.063c-.085.022-.15.022-.214.022h-.021Zm1.22-.19v.19c-.106 0-.192 0-.256-.022-.064-.02-.107-.063-.15-.105a.34.34 0 0 1-.086-.148l.364-.043a.16.16 0 0 0 .043.106c.022.021.043.021.086.021Zm0-.996v.212c-.063 0-.106 0-.128.043-.043.02-.043.084-.043.148 0 .063 0 .106.043.127.043.042.086.063.129.063v.19h-.107a.516.516 0 0 1-.3-.105.34.34 0 0 1-.129-.275c0-.085.022-.148.064-.212.044-.064.108-.105.172-.148a1.1 1.1 0 0 1 .278-.043h.022Zm0 1.186v-.19c.065 0 .108-.022.13-.085.042-.043.042-.106.064-.233a.448.448 0 0 1-.129.085c-.021 0-.043.02-.064.02v-.19a.303.303 0 0 0 .128-.042c.043-.042.043-.085.043-.148 0-.064 0-.106-.043-.148-.042-.043-.085-.043-.128-.043v-.212a.57.57 0 0 1 .3.064c.085.042.15.106.192.19a.71.71 0 0 1 .086.34c0 .21-.064.36-.171.444-.086.105-.236.148-.407.148Zm1.265-1.186v.191a.162.162 0 0 0-.107.043.157.157 0 0 0-.043.084.16.16 0 0 0 .043.106c.02.02.064.042.107.042v.19c-.043 0-.086 0-.129.043-.021.021-.043.064-.043.127 0 .042.022.085.043.127a.307.307 0 0 0 .129.042v.191c-.129 0-.236-.022-.322-.043a.332.332 0 0 1-.17-.126.391.391 0 0 1 0-.36.469.469 0 0 1 .17-.106c-.064-.021-.107-.064-.128-.085a.388.388 0 0 1-.043-.148c0-.106.043-.19.15-.254a.721.721 0 0 1 .321-.064h.022Zm0 1.186v-.19c.042 0 .085-.022.128-.043.022-.042.043-.085.043-.127 0-.063-.021-.106-.043-.127-.043-.042-.086-.042-.128-.042v-.19a.166.166 0 0 0 .107-.043.158.158 0 0 0 .043-.085.159.159 0 0 0-.043-.105.163.163 0 0 0-.107-.043v-.19c.171 0 .3.042.385.085.086.063.129.126.129.232 0 .042-.022.085-.065.148-.021.021-.064.064-.107.085.065.042.107.063.15.127a.227.227 0 0 1 .065.148.239.239 0 0 1-.065.17.259.259 0 0 1-.107.105c-.043.042-.085.063-.171.063-.064.022-.129.022-.193.022h-.021ZM31.586 57.828c-.064.042-.129.105-.193.126.064.022.129.064.193.064v.127c-.086-.021-.257-.085-.321-.064 0 0-.022.022-.022 0-.021 0-.107.064-.107.064-.021.02-.107.042-.064.106.085.105.021.507.129.613.106.106.235.085.256.149-.064.063-.192.105-.45.084a1 1 0 0 1-.128-.296c.043-.127.107-.254.129-.381.021-.085.085-.233-.043-.17-.15.085-.236.149-.3.191-.193.064-.278-.021-.3-.021-.107-.064-.257-.212-.236-.212.022 0 .022-.021.022-.021a.695.695 0 0 0 .257.127c.3.021.685-.317.685-.296-.043-.042-.085-.042-.128-.064h-.022a.524.524 0 0 1-.085-.275c.021-.042.021-.042.064-.042 0 .042.043.085.043.127a.85.85 0 0 0 .278.127c.107-.085.257-.17.343-.233v.17Zm.193-.127a.741.741 0 0 1-.193.127v-.17l.021-.02c.257-.212.45-.424.45-.445.021.042.043.042.043.063.043.064.043.148.085.233-.085.085-.15.064-.17.064-.044.02-.044.041-.087.041a.818.818 0 0 0-.128.107c.021.063-.021.211.021.253a.443.443 0 0 1-.15.233l-.085-.042v-.127h.043c.021-.021.085-.064.107-.106a.747.747 0 0 0 .043-.211ZM14.986 61.785c.021 0-.022.021.085.042a.394.394 0 0 1 .279.064c0 .106-.107.127 0 .127a.16.16 0 0 0 .128-.063l-.021-.128.021-.147.086.084s-.043.085-.043.127c0 .021.129 0 .171.042-.02 0-.02.064-.02.085 0 0-.044.042-.044.085.064 0 .15.042.15.042l.043.063s.021-.042.043-.042h.064l.043-.127s-.022 0-.043-.02c-.043-.022-.043-.043-.043-.043l.107.02s.065.318 0 .487c-.064.106 0 .064 0 .085.021 0 .065-.042.107-.063v-.233c-.021-.106-.042-.212-.021-.254h.021v-.17l-.021-.02V61.7l.021.042v-.233c0-.042-.021-.105-.021-.19-.021-.085-.171.084-.15.127.043.042.064.19.064.19v.17l-.257-.064c-.021-.042 0-.022-.064-.042l-.064.042-.021-.022v-.041s.042-.064.106-.043c.022 0 0 .021 0 .043.043.02.043 0 .107-.022.043-.02.086.106.129.085-.043-.127-.021-.063-.086-.17l-.064-.084-.021-.063c0-.022 0-.043-.086-.064-.021.021-.064.042-.021.085v.042c-.022.021-.108.042-.108.106-.042 0-.107-.042-.085-.19 0-.107-.064-.085-.064-.085s-.15-.042-.172 0c0 .063.043.127.043.127l.129.169-.022.127c-.042 0-.042-.042-.064-.063-.107-.022-.15-.085-.321.105Zm1.113.233v-.17h.043l-.043-.105v-.233c.043.19.107.317.129.275l.085-.063v.148c-.02 0-.02.02-.043.02h.044v.17h-.044v.064c.022.042.022.063.044.084v.19a2.022 2.022 0 0 0-.13-.359s-.042-.02-.085-.02Zm0 .486c.043 0 .064-.02.064-.02s.043-.043-.02-.106c0 0-.022-.043-.044-.106v.233Zm.215-.295v.21c0 .086.15.064.17-.041.043-.085 0-.064-.02-.106a.232.232 0 0 1 0-.17s.428.085.578.085c.021-.042.042-.042-.108-.106a3.123 3.123 0 0 0-.492-.148s-.021-.042.043-.19c0-.085-.107-.063-.107-.063l-.064.041v.149c.02 0 .02.02.02.042 0 0-.02 0-.02-.021v.17a.066.066 0 0 0 .042.02c.022.106.022.17.022.19-.022.043-.022.064-.022.064a.293.293 0 0 1-.043-.127ZM26.98 55.288v.063h-.235c-.043 0-.064.021-.085 0-.108-.063-.129-.127-.108-.127.044 0 .086.043.129.043.15.02.236.02.3.02Zm0 .296a.16.16 0 0 1-.042-.106c.021-.042.021-.064.043-.064v.17Zm0 .402v.592c-.02 0-.106-.042-.106-.063-.043-.043-.043-.043-.065-.085 0-.042 0-.042.022-.063l.064-.19c-.107.042-.192.084-.214.126-.043.022-.107.043-.107.043-.043 0-.107-.127-.129-.149-.021-.042 0-.063 0-.105.107.063.172.105.193.084.107-.042.214-.063.3-.084.021-.043.043-.064.043-.106Zm0-.19c-.063.02-.085.042-.085.063.043-.021.064-.021.086-.042v.105c-.043.022-.064.043-.107.064-.021 0-.086-.021-.086-.042-.021-.064-.043-.064-.043-.148.043 0 .086.02.107.02a.457.457 0 0 0 .107-.063c-.021-.042-.107.022-.042-.127.042 0 .064 0 .064-.02v.19Zm.3-.89v.255c0 .021-.02.042-.02.042h.02v.127c-.064 0-.128 0-.214.021h-.085v-.063c.064 0 .107-.021.17-.021v-.064l.023-.021c0-.043.042-.106.064-.148h-.043c-.021.02 0 .063-.021.063-.065.021-.108.021-.129-.084v-.085c0-.042.043-.042.064-.021l.043.042c-.021-.021.107.064.107 0 0-.021.022-.021.022-.042Zm-.3 1.609h.022c0 .02 0 .042-.021.042v-.042Zm.3-.148c-.02-.021-.064-.021-.085-.042.043-.043.064-.064.086-.128v.17Zm-.3-.55v.105c.022 0 .022-.02.044-.02-.022.02-.022.063-.043.084v.508c0-.022.021-.043.021-.064.022-.105.043-.211.064-.275.086-.042.193-.021.215 0v-.085c-.086-.02-.193 0-.193 0 .021-.042.064-.169.086-.21.021-.022.064-.022.107-.043v-.064h-.086a.626.626 0 0 1 .086-.212v-.105c-.022 0-.043.02-.043.02-.064.128-.086.191-.129.319-.043.02-.085.042-.128.042Zm.022-.403c.064.064.107.106.129.149 0 .02 0 .042-.043.063-.022.021-.064.021-.043.042.021 0 .043 0 .064.022 0 .02-.021.063-.064.085-.021 0-.043 0-.064.02v-.19c.021 0 .021 0 .021-.021h-.021v-.17h.021Zm.279-.253v-.254c.085-.254.192-.36.17-.317 0 0 .087.084.044.169-.107.02-.171.317-.193.296 0 .021-.021.084-.021.106Zm0 .169c.085 0 .15 0 .235.021.022.021-.043.021-.021.042.043-.02.15-.02.257.021.021 0 .042-.02.085-.063 0-.042.022-.063-.043-.127-.042 0-.042 0-.085-.02l-.043.041c-.128 0-.236.022-.342 0 .042-.02.128-.063.213-.084.108-.022.215-.064.343-.085.022-.063.043-.106.043-.17a21.966 21.966 0 0 0-.129-.063c-.085.042-.15.042-.235.064-.064 0-.107-.043-.15-.043 0 .043 0 .128.021.149.086.042.086.02.15-.043l.172-.084c.064 0 .021.042.021.063-.064.064-.214.127-.343.17-.042.042-.106.063-.15.084v.127Zm0 .74c.043.022.107.043.128.106.064.127-.021.19-.021.19h-.107v-.296Zm0-.634c.02-.043.064-.043.085-.022 0 .022.022.043.022.064 0 .063 0 .106-.022.212.022.02 0 .063 0 .085a.164.164 0 0 1-.085.042v-.064c0-.021.02-.021.02-.021.023-.042.023-.085.044-.127v-.127h-.021c-.022 0-.022.021-.043.021v.042-.105ZM22.183 55.287c-.086-.105-.13-.126-.13-.126l-.106.02c.043.128.107.106.107.233l.107.106h.022v-.233Zm0-.36v.234c-.022 0-.043 0-.065.02 0-.041-.021-.063.022-.084 0-.063-.043-.127 0-.17h.043Zm0 1.376c-.043.085-.086.17-.086.212.021.063.064.02.086-.043v.106c-.022.021-.022.042-.022.042s-.043.064-.086.043c-.064-.106.022-.339.108-.508v.148Zm0-.783c.02 0 .107-.042.042-.19l-.042-.043v.233Zm.407.55h-.022c0 .022.021.064.021.085v.021-.106Zm0-.253c-.044-.022-.107 0-.15 0 0 .127-.022.253 0 .402v.127c-.022.02 0 .063 0 .105.02.064.043.085.106.106l.044-.042v-.233l-.022.021c-.043-.127-.022-.233-.043-.402.021-.02.043 0 .065.021v-.105Zm-.343.338s-.043.064-.064.148v-.148c.064-.127.128-.233.128-.233l.086-.38c-.064.02-.107 0-.086-.064.022-.085.086-.444.064-.423-.021 0-.042.042-.064.042 0 .106 0 .106-.086.127-.021-.021 0-.021 0-.042-.021 0-.042 0-.042-.021v-.233c.042.042.042.085.085.085.043-.043.107-.064.107-.085 0-.064.022-.106-.042-.19a.646.646 0 0 1 .107-.254c.043.02.085.042.15.148v.148c-.022.02 0 .02 0 .042v.106c-.022.021-.044.021-.065.042 0 .064-.021.148 0 .148l.065-.063v.212c-.044 0-.065 0-.107-.022-.022.042-.022.064 0 .106.02-.021.02-.042.02-.064.022 0 .065.022.087.043-.065.127-.086.254-.107.36l.107-.127v.105c-.065.043-.13.127-.193.191-.022.17-.086.275-.129.465-.021.106-.064.19-.085.254v-.106c.042-.127.064-.317.064-.317Zm.343-1.417c0-.022.02-.043.02-.085l-.02-.021v.106Zm0 .529v-.212c.042-.063.042-.106.085-.17l-.085.043v-.106c.042-.064.106-.084.15-.106.085 0 .106.022.15.085-.108.17-.194.317-.28.466h-.02Zm0 .655v-.105h.02c.022-.064.086-.127.086-.233a.383.383 0 0 0-.107.084v-.105c.043-.043.065-.043.107-.085a.193.193 0 0 1 .129.127c0 .063-.064.17-.107.233-.022.021-.064.042-.107.105 0-.02-.021-.02-.021-.02Zm0 .593v-.233c.02-.042.042-.063.042-.085 0-.02-.021-.02-.043-.02v-.107c.13-.02.172-.063.214-.127.022 0 .108.043.129.085a.47.47 0 0 1-.171.106c.042.042.15.042.235.063.022.106-.15.17-.15.148a.478.478 0 0 0-.15-.148c-.021.043-.064.106-.085.191 0 .084 0 .105-.021.127ZM18.477 57.722c.042.042.064.084.085.105v.297a.92.92 0 0 0-.128-.148c-.021.02-.021.105-.021.148.02.02 0 .063-.022.085-.043.041-.128.02-.171 0-.086 0-.129-.043-.15-.064-.021-.043.128 0 .171-.064 0 0 .043-.042.064-.254-.364-.444-.514-.655-.514-.74 0-.043.279-.021.322.042.043.127.021.148.278.466.022-.064.107-.212.171-.318v.19c-.02.086-.064.17-.085.255Zm.085.105.022.043a.29.29 0 0 0 0-.19l.043-.043c0-.17.064-.317.021-.296-.043.042-.064.085-.086.127v-.19l.065-.064.042-.064c.022 0 .065 0 .108.022l.021.042c-.021.127-.043.19-.064.402l.043.063c-.022.043-.108.254-.086.297.128.148.257.275.321.36.043 0 .171.232.15.295 0 .064-.107-.02-.278-.127v-.063c-.107-.127-.215-.211-.322-.317v-.297Z" fill="#007F3D"/><path fill-rule="evenodd" clip-rule="evenodd" d="M24.84 74.357c-5.634 0-10.219-4.508-10.219-10.075 0-5.587 4.585-10.095 10.218-10.095v-.148c-5.72 0-10.368 4.593-10.368 10.243 0 5.651 4.649 10.244 10.368 10.244v-.17Zm10.217-10.075c0 5.567-4.584 10.075-10.218 10.075v.17c5.74 0 10.368-4.594 10.368-10.245 0-5.65-4.627-10.243-10.368-10.243v.148c5.634 0 10.218 4.508 10.218 10.096Z" fill="#007F3D"/><path fill-rule="evenodd" clip-rule="evenodd" d="M24.84 74.675c-5.806 0-10.518-4.656-10.518-10.392S19.034 53.89 24.839 53.89v-.318C18.863 53.573 14 58.357 14 64.283c0 5.905 4.863 10.688 10.84 10.688v-.296Zm10.517-10.392c0 5.736-4.691 10.392-10.518 10.392v.296c5.976 0 10.84-4.783 10.84-10.688 0-5.926-4.864-10.71-10.84-10.71v.318c5.827 0 10.518 4.656 10.518 10.392Z" fill="#007F3D"/><path fill-rule="evenodd" clip-rule="evenodd" d="M22.076 59.605c-.3-.21-.686-.042-.707 0 0-.02-.193.127-.129.424.086.846-.15 3.153-.278 4.042-.022.212-.064.424-.107.656a35.033 35.033 0 0 1-.557 2.37c-.407 1.313-.814 2.054-.986 2.18.707.085 1.5-1.502 1.757-2.01.043-.084.086-.148.128-.233 0-.02 0-.02.022-.042.257-.593.664-1.863.857-2.37v-5.017Zm0-2.18v.17c-.129-.064-.236-.064-.236-.064s.086-.063.236-.105Zm0 12.107a1.55 1.55 0 0 1-.428.19c-.044 0-.472.19-1.114.17-.729-.064-1.115-.508-1.157-.53 1.37.149 2.12-.762 2.378-1.142a.29.29 0 0 0 .064-.085c.064-.106.15-.212.193-.318.02-.042.042-.084.064-.105v1.82Zm2.056-6.92c-.814-.107-1.607-.34-1.692-1.377-.021-.19 0-.38-.021-.571 0-.275-.022-.572-.043-.614-.065-.233-.172-.38-.3-.444v5.016-.022c.343-.825.814-1.122.985-1.227.021-.021.064-.042.086-.064.321-.211.685-.317.985-.38v-.318Zm0-2.393v2.096a1.656 1.656 0 0 1-1.007-.91c-.02-.064-.171-.297-.128-.741.021-.17.064-.318.085-.487.172-1.842-.6-2.413-1.006-2.582v-.17c.235-.063.664-.063 1.264.36.578.424.642 1.207.663 1.46v.15c0 .147-.02.528.13.824Zm0 8.022h-.043c-.021 0-.492.148-.664.275-.021.021-.364.169-.771.571-.021 0-.257.254-.578.445v-1.82c.107-.212.214-.466.3-.763a7.36 7.36 0 0 0 .278-.973l.064-.254a8.99 8.99 0 0 1 .322-1.143c.021-.021.15-.338.3-.55.043-.063.085-.127.15-.19.128-.128.342-.339.642-.466v1.905c-.129.148-.193.275-.193.275s-.32.466-.45 1.587c0 .021.215-.233.643-.402v1.503Zm0-5.313v-.317c.128.021.257.042.386.042.107.021.407.085.171.19-.021.022-.043.022-.064.022h-.022c-.085 0-.257.021-.47.063Zm.707-2.264v1.756c-.086 0-.364 0-.707-.105v-2.096a.789.789 0 0 0 .707.445Zm-.707 2.709c.193-.085.429-.148.686-.148h.021v1.672a1.142 1.142 0 0 0-.707.38v-1.904Zm.707 4.783h-.021c-.108 0-.364 0-.686.085v-1.503c.193-.085.429-.148.686-.17h.021v1.588Zm.707-5.545v.317a2.932 2.932 0 0 0-.471-.063h-.022c-.021 0-.043 0-.086-.022-.214-.105.086-.169.193-.19.129 0 .258-.02.386-.042Zm0-2.392v2.096c-.343.105-.621.105-.707.105v-1.756a.788.788 0 0 0 .707-.445Zm-.707 3.006h.021c.257 0 .493.063.686.148v1.905a1.142 1.142 0 0 0-.707-.381v-1.672Zm.707 5.016c-.321-.085-.579-.085-.686-.085h-.021V66.57h.021c.257.02.493.084.686.17v1.502Zm2.056-8.636c-.128.085-.235.212-.3.445-.02.042-.043.339-.043.614-.021.19 0 .381-.021.571-.107 1.037-.878 1.27-1.692 1.376v.317c.3.064.664.17.986.381.02.022.064.043.085.064.15.105.621.402.985 1.227v.022-5.017Zm0-2.18v.17c-.407.17-1.2.74-1.006 2.582.021.17.064.318.064.487.064.444-.086.677-.107.74-.236.53-.665.783-1.007.91V60.22c.15-.296.128-.677.128-.825v-.148c.022-.254.065-1.037.665-1.46.6-.424 1.028-.424 1.263-.36Zm0 12.107c-.32-.19-.556-.445-.578-.445-.407-.402-.75-.55-.771-.571-.172-.127-.643-.275-.664-.275h-.043v-1.503c.428.17.643.423.643.402-.13-1.121-.45-1.587-.45-1.587s-.065-.127-.193-.275v-1.905c.3.127.514.338.643.466.042.063.107.127.15.19.15.212.278.529.278.55.171.424.278.91.343 1.143l.064.254c.086.423.257.931.257.974.107.296.214.55.321.762v1.82Zm0-11.937v-.17c.15.043.215.106.215.106s-.086 0-.215.064Zm0 7.027c.193.507.6 1.777.857 2.37 0 .021.022.021.022.042.042.085.085.148.128.233.257.508 1.05 2.095 1.757 2.01-.172-.126-.579-.867-.986-2.18-.043-.147-.385-1.354-.557-2.37-.043-.232-.085-.444-.107-.656-.128-.889-.364-3.195-.278-4.042.064-.297-.129-.445-.129-.424-.021-.042-.407-.21-.707 0v5.017Zm2.7 4.74c-.043.022-.429.466-1.157.53-.643.02-1.071-.17-1.114-.17-.15-.042-.3-.105-.429-.19v-1.82a.16.16 0 0 1 .043.105c.064.107.15.212.214.318a.285.285 0 0 0 .065.084c.256.381 1.006 1.292 2.378 1.143ZM16.335 65.764l.043.254-.279.042.043.276.279-.043.021.254-.793.127-.042-.275.32-.042-.02-.275-.343.042-.021-.254.792-.106ZM16.592 67.14l.065.254-.472.126c-.043 0-.085.022-.128 0-.043 0-.086 0-.129-.041a.168.168 0 0 1-.085-.085.192.192 0 0 1-.064-.148c-.022-.042-.022-.085-.022-.148a.132.132 0 0 1 0-.127c0-.022.022-.064.043-.085a.167.167 0 0 1 .085-.084l.13-.064.449-.106.064.233-.471.127c-.043.021-.086.042-.086.063-.021.043-.043.064-.021.106 0 .043.021.085.064.106.021.021.064.021.107 0l.471-.127ZM16.228 68.156l-.107-.275h-.128l-.086-.233h.557v.212h-.15l.064.169.086-.063v.296l-.257.233-.086-.254.107-.085Zm.236-.508h.3l.107.254-.407.36v-.296l.15-.106h-.15v-.212ZM16.978 68.156l.32.635-.127.084-.643-.19.214.423-.15.085-.364-.698.15-.085.643.19-.193-.36.15-.084ZM17.342 68.876l.15.211-.236.17.15.232.235-.169.15.212-.663.486-.15-.211.278-.212-.172-.211-.256.19-.15-.212.664-.486ZM17.514 69.85a.378.378 0 0 1 .278-.127v.253c-.043 0-.086.022-.128.064-.065.063-.086.105-.086.148-.021.042 0 .106.021.127.043.042.086.064.129.064h.064v.232c-.043 0-.086 0-.128-.021a.506.506 0 0 1-.193-.127c-.064-.084-.107-.148-.107-.211a.36.36 0 0 1 0-.212.395.395 0 0 1 .15-.19Zm.278-.127h.022c.107 0 .192.063.278.168a.41.41 0 0 1 .128.318c0 .106-.064.19-.15.275a.804.804 0 0 1-.213.127h-.065v-.233c.022-.02.064-.042.107-.084.064-.042.086-.106.107-.148a.298.298 0 0 0-.043-.127c-.042-.043-.085-.064-.128-.064-.021 0-.043 0-.043.021v-.253ZM18.412 70.272l.172.17-.107.55.32-.339.172.17-.557.592-.171-.17.086-.528-.322.318-.17-.17.577-.593ZM19.055 71.542l.107-.126.3.232-.214.275a.543.543 0 0 1-.214-.042.438.438 0 0 1-.193-.106.38.38 0 0 1-.15-.17c-.021-.084-.021-.147-.021-.21a.4.4 0 0 1 .107-.212.284.284 0 0 1 .17-.148.306.306 0 0 1 .236-.022c.043 0 .13.042.193.106a.492.492 0 0 1 .15.148c.022.043.022.085.043.127 0 .043-.021.085-.043.148l-.214-.126c.021-.022.021-.064 0-.085a.159.159 0 0 0-.043-.085c-.043-.021-.107-.042-.15-.021-.043 0-.107.042-.15.106-.043.063-.085.127-.064.19 0 .042.021.085.064.127.022.021.043.021.065.043.021 0 .064.02.107.02l.043-.063-.129-.106ZM20.448 72.77l-.021-.021.021-.064v.085Zm0-.17-.235-.126-.108.105-.235-.127.578-.507v.296l-.107.105.107.064v.19Zm0 .17v-.36l.043.021.064-.296-.107.106v-.296l.086-.064.235.127-.107.867-.214-.105ZM21.198 72.79l.064-.168.363.148-.128.339c-.085.02-.15.02-.214.02a.482.482 0 0 1-.214-.063c-.086-.021-.15-.085-.193-.127a.338.338 0 0 1-.064-.19c-.021-.085 0-.148.021-.233a.771.771 0 0 1 .15-.212c.043-.042.129-.063.193-.063.064-.021.15 0 .236.042.085.021.128.064.17.106a.117.117 0 0 1 .065.106c.022.042.022.084.022.148l-.236-.042c0-.043 0-.064-.021-.106-.022-.021-.043-.043-.086-.043a.138.138 0 0 0-.128 0c-.065.022-.086.064-.13.149-.02.084-.042.148-.02.211.02.043.064.064.107.106h.085c.022.021.065 0 .086 0l.043-.064-.171-.063ZM21.605 73.257l.236-.804.278.084v.17l-.086-.022-.043.17.086.02c.022.022.022.022.043.022v.508h-.021l-.065-.275c0-.043 0-.064-.021-.085l-.043-.042h-.021l-.107.317-.236-.063Zm.514-.72.129.042c.064.022.128.043.15.064a.375.375 0 0 1 .085.106v.148c-.021.042-.043.084-.064.106-.043.02-.064.042-.107.042-.022.021-.043.021-.086.021.022.021.043.021.043.042.021 0 .021.022.021.064.022.02.022.042.022.042l.064.275-.257-.084v-.508h.043s.021 0 .043-.021c0 0 .02-.022.02-.043v-.063c-.02-.021-.042-.043-.085-.043l-.021-.02v-.17ZM22.632 72.707l.236.042-.171.825-.236-.064.171-.803ZM23.468 73.362l.214.106a.378.378 0 0 1-.107.148c-.021.022-.085.064-.128.064a.238.238 0 0 1-.172 0c-.085 0-.171-.021-.214-.064-.043-.042-.086-.084-.128-.169-.022-.064-.043-.148-.022-.254a.56.56 0 0 1 .15-.296.407.407 0 0 1 .321-.064c.107.022.193.043.236.106a.497.497 0 0 1 .107.212l-.236.021c0-.042 0-.063-.02-.063 0-.021-.022-.043-.044-.064-.021 0-.043-.021-.064-.021-.043 0-.107 0-.128.042-.043.043-.065.085-.065.17-.021.084-.021.147 0 .19a.118.118 0 0 0 .107.063c.065.022.086 0 .129-.02.021-.022.043-.064.064-.107ZM24.346 72.96h.235l-.02.508a.298.298 0 0 1-.044.127.477.477 0 0 1-.064.106c-.043.042-.086.064-.107.064-.064.02-.107.02-.193.02-.021 0-.064 0-.128-.02a.166.166 0 0 1-.107-.043c-.022-.02-.064-.042-.086-.063a.349.349 0 0 1-.043-.106c0-.064-.021-.106-.021-.148l.042-.487.258.021-.043.508c0 .042 0 .063.02.106.044.021.065.042.108.042a.165.165 0 0 0 .107-.042c.022-.021.043-.043.043-.106l.043-.487ZM24.668 72.982h.257l.02.613h.386l.022.19-.643.021-.042-.824ZM25.289 72.96l.77-.042v.19l-.256.022.043.635h-.236l-.043-.614-.257.021-.021-.212ZM26.616 72.812l.258-.042.064.487v.148a.298.298 0 0 1-.043.127.367.367 0 0 1-.107.084c-.043.021-.086.043-.15.064h-.129c-.064 0-.107 0-.128-.021-.043 0-.064-.022-.107-.043-.022-.02-.043-.063-.064-.084-.022-.064-.043-.106-.043-.148l-.064-.487.235-.043.086.508c0 .043.021.085.043.106a.196.196 0 0 0 .107.021c.042-.02.085-.02.107-.063.021-.021.021-.064.021-.106l-.086-.508ZM27.152 73.553l-.214-.804.407-.106h.021v.169l-.021.021-.107.022.043.169.085-.021v.148c-.021 0-.021.021-.021.021h-.022l.043.148v.19l-.214.043Zm.214-.233v.19l.043-.02-.043-.17Zm0-.677c.065-.021.129-.021.172-.021.042 0 .064.021.107.042.043.043.064.064.064.127a.134.134 0 0 1 0 .127.16.16 0 0 1-.043.085c-.021.02-.043.042-.086.063.043 0 .065 0 .065.022.021 0 .043 0 .064.02.021.022.043.022.043.043l.171.19-.257.085-.214-.212-.043-.042c-.021-.021-.043-.021-.043-.021v-.148l.022-.022s.021 0 .043-.02c.021 0 .042-.022.042-.043v-.042c0-.022-.021-.043-.042-.064h-.065v-.169ZM28.224 73.087l-.064.042v.128l-.236.105.022-.888.257-.106.021.042v.339l-.086-.127.022.317.064-.042v.19Zm.214-.063-.214.063v-.19l.086-.021-.086-.127v-.339l.536.635-.257.084-.065-.105ZM28.502 72.262l.214-.106.257.571.364-.169.086.17-.579.296-.342-.762ZM30.151 71.33l.193-.147.3.402c.02.042.043.084.064.127v.127c0 .063-.021.084-.043.127a.359.359 0 0 1-.128.127.472.472 0 0 1-.108.063.359.359 0 0 1-.107.042.139.139 0 0 1-.128 0 .163.163 0 0 1-.086-.042c-.043-.042-.085-.063-.107-.106l-.278-.402.193-.148.3.423c.02.022.064.043.085.064a.165.165 0 0 0 .107-.042c.043-.022.064-.064.064-.085 0-.042 0-.085-.021-.106l-.3-.423ZM30.43 71.14l.193-.148.514.148-.3-.36.193-.148.535.614-.193.17-.514-.15.3.34-.192.169-.536-.635ZM31.137 70.526l.17-.169.579.593-.193.169-.556-.593ZM31.351 70.336l.172-.19.557.253-.322-.55.171-.19.407.782-.17.212-.815-.317Z" fill="#007F3D"/><path fill-rule="evenodd" clip-rule="evenodd" d="m31.908 69.68.386-.572.15.107-.236.338.107.085.214-.318.129.085-.214.338.128.085.257-.36.15.106-.407.571-.664-.465ZM32.722 69.257l-.364-.212.192-.36c.043-.085.086-.127.107-.148.022-.021.043-.042.065-.042v.232c0 .021-.022.042-.043.085l-.065.085.108.063v.297Zm.342.19-.342-.19v-.297l.042.021.043-.084c.022-.022.022-.043.022-.064.021-.021.021-.042 0-.064 0 0 0-.02-.022-.02-.021-.022-.043-.022-.064-.022h-.021v-.232c.021-.022.042-.022.042-.022.065 0 .108 0 .15.043A.168.168 0 0 1 33 68.6c.022.022.022.064.022.106v.085c.02-.022.042-.043.042-.043.022 0 .043 0 .065-.02h.064l.257.02-.129.254-.278-.02c-.043 0-.064 0-.086.02-.021 0-.043.022-.043.043l-.02.02.299.17-.129.212ZM33.236 68.6l.086-.232h.086c.042 0 .064-.043.085-.085.022-.021.022-.063.022-.085-.022-.02-.022-.042-.043-.042-.022-.021-.043-.021-.064 0-.022 0-.065.042-.108.106a.625.625 0 0 1-.17.17c-.065.042-.13.042-.172 0-.043 0-.086-.043-.107-.064-.021-.043-.043-.085-.043-.148a.34.34 0 0 1 .064-.191c.043-.106.086-.17.15-.211.043-.043.107-.043.193-.022l-.064.233h-.108c-.02.021-.042.043-.042.085-.022.02-.022.042-.022.063l.043.043s.022 0 .043-.022l.064-.063c.065-.085.107-.148.15-.19l.129-.064c.042 0 .085 0 .128.021a.256.256 0 0 1 .107.106c.022.042.043.084.043.148 0 .064-.021.127-.043.19-.064.149-.107.212-.193.254a.363.363 0 0 1-.214 0ZM33.043 67.606l.108-.254.749.296-.085.233-.772-.275ZM33.172 67.33l.171-.761.193.042-.064.254.6.17-.065.232-.578-.148-.064.254-.193-.043Z" fill="#007F3D"/><path fill-rule="evenodd" clip-rule="evenodd" d="m33.365 66.59.021-.297.3-.127-.257-.19.043-.296.428.38.343.043-.043.254-.343-.043-.492.275Z" fill="#007F3D"/></svg>