<?xml version="1.0" encoding="UTF-8"?>
<svg xmlns="http://www.w3.org/2000/svg" version="1.1" viewBox="0 0 128 44.9">
  <defs>
    <style>
      .cls-1 {
        fill: #231916;
      }

      .cls-1, .cls-2, .cls-3 {
        fill-rule: evenodd;
      }

      .cls-2 {
        fill: #898989;
      }

      .cls-3 {
        fill: #005d7f;
      }
    </style>
  </defs>
  <!-- Generator: Adobe Illustrator 28.7.1, SVG Export Plug-In . SVG Version: 1.2.0 Build 142)  -->
  <g>
    <g id="_图层_1" data-name="图层_1">
      <path class="cls-1" d="M114,29.9c-.4,0-.5.2-.7.6-.2.5-.4.9-.7,1.6,0,.2-.1.3-.1.5v1c0,.7,0,.7.6.8v.2h-1.9v-.2c.5,0,.6,0,.6-.8v-.9c0-.2,0-.3,0-.4-.2-.6-.5-1.1-.8-1.7-.2-.5-.3-.6-.7-.7v-.2h1.6v.2c-.4,0-.4.2-.3.4.2.6.5,1.1.7,1.7.2-.5.5-1.2.7-1.7.1-.3,0-.4-.4-.5v-.2h1.4v.2h0ZM49.6,30c-.4,0-.5,0-.5.7v2.6c0,.9,0,1.6-.6,2.1-.2.2-.5.4-.7.5v-.3c.2-.2.4-.5.5-.9,0-.4,0-.9,0-1.5v-2.5c0-.6,0-.7-.5-.7v-.2s1.7,0,1.7,0c0,0,0,.2,0,.2ZM49.8,34.7v-.2c.5,0,.5,0,.5-.7v-3c0-.6,0-.7-.5-.7v-.2h1.7v.2c-.5,0-.5,0-.5.7v3c0,.6,0,.7.5.7v.2h-1.7s0,0,0,0ZM87.9,34.6v-.2c.5,0,.5,0,.5-.7v-3c0-.7,0-.7-.5-.7v-.2h1.7v.2c-.5,0-.5,0-.5.7v3c0,.6,0,.7.5.7v.2s-1.7,0-1.7,0ZM104.3,34.6v-.2c.5,0,.5,0,.5-.7v-3c0-.6,0-.7-.5-.7v-.2s1.7,0,1.7,0v.2c-.5,0-.5,0-.5.7v3c0,.6,0,.7.5.7v.2s-1.7,0-1.7,0ZM53.7,30.8h0c-.2.6-.3,1.2-.5,1.8h1s-.5-1.8-.5-1.8ZM54.2,34.7v-.2c.4,0,.4-.1.3-.5,0-.2-.2-.6-.3-1h-1.2c0,.3-.2.6-.2.9-.1.4,0,.5.4.6v.2h-1.3v-.2c.4,0,.5-.1.7-.8l1.3-3.9h.3c.4,1.2.8,2.6,1.2,3.9.2.7.3.8.7.8v.2h-1.6ZM70.2,30.8h0c-.2.6-.3,1.2-.5,1.8h1s-.5-1.8-.5-1.8ZM70.7,34.7v-.2c.4,0,.4-.1.3-.5,0-.2-.2-.6-.3-1h-1.2c0,.3-.2.6-.2.9-.1.4,0,.5.4.6v.2s-1.3,0-1.3,0v-.2c.4,0,.5-.1.7-.8l1.3-3.9h.3c.4,1.2.8,2.6,1.2,3.9.2.7.3.8.7.8v.2h-1.6ZM60.2,30c-.3,0-.5.1-.5.5,0,.2,0,.6,0,1.3v3h-.3l-2.5-3.9h0v1.8c0,.7,0,1,0,1.2,0,.4.2.5.6.5v.2s-1.5,0-1.5,0v-.2c.3,0,.5-.1.5-.5,0-.3,0-.6,0-1.3v-1.6c0-.5,0-.6-.1-.8-.1-.2-.3-.3-.5-.3v-.2h1s2.4,3.5,2.4,3.5h0v-1.5c0-.7,0-1,0-1.3,0-.3-.2-.4-.6-.5v-.2s1.5,0,1.5,0v.2h0ZM87.6,29.9c-.3,0-.5.1-.5.5,0,.4,0,.8,0,1.3v3h-.3l-2.5-3.9h0v1.8c0,.7,0,1,0,1.2,0,.4.2.5.6.5v.2h-1.5v-.2c.3,0,.5-.1.5-.5,0-.3,0-.6,0-1.3v-1.6c0-.5,0-.6-.1-.8-.1-.2-.3-.3-.5-.3v-.2h1s2.4,3.5,2.4,3.5h0v-1.5c0-.7,0-1,0-1.3,0-.3-.2-.4-.6-.5v-.2h1.5s0,.2,0,.2ZM64.4,32.6c-.3,0-.4.1-.4.6v.6c0,.3,0,.5,0,.7-.4.1-.9.3-1.4.3-1.4,0-2.3-1-2.3-2.5,0-1.8,1.1-2.7,2.3-2.7.5,0,1,.1,1.2.2,0,.3,0,.7.1,1.2h-.2c-.2-.8-.6-1.1-1.2-1.1-.8,0-1.4.9-1.4,2.2,0,1.1.5,2.4,1.6,2.3.2,0,.3,0,.4-.1.1,0,.2-.2.2-.4v-.7c0-.5,0-.6-.7-.7v-.2s1.7,0,1.7,0v.2s0,0,0,0ZM68.6,30c-.3,0-.5.1-.5.5,0,.2,0,.6,0,1.3v3s-.2,0-.2,0l-2.6-3.8h0s0,1.8,0,1.8c0,.7,0,1,0,1.2,0,.4.2.5.6.5v.2s-1.5,0-1.5,0v-.2c.3,0,.5-.2.5-.5,0-.3,0-.6,0-1.3v-1.6c0-.5,0-.6-.1-.8-.1-.2-.3-.2-.5-.3v-.2s1,0,1,0l2.4,3.5h0s0-1.5,0-1.5c0-.7,0-1,0-1.3,0-.3-.2-.4-.6-.5v-.2s1.5,0,1.5,0c0,0,0,.2,0,.2ZM76.7,29.9c-.3,0-.5.1-.5.5,0,.2,0,.6,0,1.3v3s-.2,0-.2,0l-2.6-3.8h0s0,1.8,0,1.8c0,.7,0,1,0,1.2,0,.4.2.5.6.5v.2h-1.5s0-.2,0-.2c.3,0,.5-.2.5-.5,0-.3,0-.6,0-1.3v-1.6c0-.5,0-.6-.1-.8-.1-.2-.3-.2-.5-.3v-.2s1,0,1,0l2.4,3.5h0v-1.5c0-.7,0-1,0-1.3,0-.3-.2-.4-.6-.5v-.2s1.5,0,1.5,0v.2h0ZM83.1,29.9c-.3,0-.5.2-.5.4,0,.2,0,.5,0,1.1v.8c0,.8-.1,1.5-.5,1.9-.3.3-.7.5-1.1.5-.4,0-.8-.1-1-.4-.3-.3-.5-.9-.5-1.8v-1.8c0-.7,0-.7-.5-.8v-.2s1.7,0,1.7,0v.2c-.5,0-.5,0-.5.8v1.7c0,1.2.3,1.9,1,1.9.8,0,1.1-.8,1.1-2v-.7c0-.4,0-.8,0-1.1,0-.3-.2-.4-.6-.4v-.2h1.5s0,.2,0,.2ZM94.2,29.9c-.4,0-.5.1-.7.9-.2.6-.8,2.4-1.2,3.9h-.3c-.4-1.4-.9-3.2-1.2-4.1-.2-.6-.3-.7-.6-.7v-.2s1.7,0,1.7,0v.3c-.4,0-.4.1-.4.5.2.6.6,2.1.9,3h0c.3-1.1.7-2.1.8-2.8.1-.5.1-.6-.4-.7v-.2s1.4,0,1.4,0v.2h0ZM97.7,33.4c0,.4-.1.8-.2,1.2h-3s0-.2,0-.2c.5,0,.6-.1.6-.7v-3c0-.7,0-.7-.5-.8v-.2s2.8,0,2.8,0c0,.2,0,.7,0,1.1h-.2c0-.2-.1-.5-.2-.6,0-.2-.3-.2-.6-.2h-.4c-.2,0-.2,0-.2.3v1.7s.5,0,.5,0c.5,0,.6,0,.7-.6h.2v1.5s-.2,0-.2,0c0-.5-.1-.6-.7-.6h-.5s0,1.4,0,1.4c0,.4,0,.5.1.6.1,0,.3,0,.6,0,.4,0,.6,0,.7-.3.1-.2.2-.4.3-.7h.2s0,0,0,0ZM99.2,32.2c.3,0,.5,0,.6-.2.2-.2.3-.5.3-.9,0-.8-.4-1.1-.8-1.1s-.3,0-.3,0c0,0,0,.1,0,.3v1.9h.2ZM101.4,34.7s-.1,0-.2,0c-.7,0-.9-.2-1.2-.7-.2-.3-.4-.8-.5-1.2-.1-.2-.2-.3-.4-.3h-.1v1.2c0,.6,0,.7.5.7v.2h-1.7v-.2c.5,0,.5-.1.5-.7v-3c0-.6,0-.7-.5-.7v-.2h1.6c.5,0,.8,0,1,.3.2.2.4.5.4,1s-.3,1-.8,1.3c0,.2.3.7.5,1.1.2.4.3.6.5.8.1.2.3.3.4.3,0,0,0,.2,0,.2ZM103.8,31c-.1-.5-.3-1-.8-1-.4,0-.6.3-.6.8,0,.5.2.7.8,1.1.6.4,1.1.8,1,1.6,0,.8-.6,1.5-1.4,1.5-.2,0-.4,0-.6-.1-.1,0-.2-.1-.3-.2,0-.2-.1-.8-.2-1.3h.2c.1.4.4,1.2,1,1.3.4,0,.7-.3.7-.8,0-.5-.3-.8-.7-1.1-.5-.4-1-.8-1-1.5,0-.8.5-1.4,1.4-1.4.3,0,.7.1.8.2,0,.3,0,.6.1,1.1h-.2q0,0,0,0ZM109.8,30.9c0-.4-.1-.6-.2-.8-.1-.2-.2-.2-.6-.2h-.3s0,3.7,0,3.7c0,.6,0,.7.6.7v.2h-1.9v-.3c.5,0,.6-.1.6-.7v-3.7s-.3,0-.3,0c-.5,0-.6,0-.7.2,0,.1-.2.4-.2.7h-.2c0-.5,0-1.1,0-1.4h.1c0,.2.2.2.3.2h2.4c.2,0,.2,0,.3-.2h.1c0,.3,0,1,0,1.4h-.2s0,0,0,0Z"/>
      <path class="cls-2" d="M61,12.2s0,0,0,0c0,0-.2-.1-.3-.1,0,0,0,0-.1,0-.2,0-.3,0-.5,0,0,0,0,0,0,0,0,0,0,0-.1,0h0s0,0,0,0c0,0,0,0-.1,0h0c0,0,0,0-.1,0,0,0-.2,0-.2,0-.1,0-.4.2-.5.2,0,0,0,0-.1,0h0s0,0,0,0h0s0,0,0,0c0,0,0,0,0,0h0c-.1,0-.2,0-.4.1h0c0,0-.2,0-.3.1,0,0-.1,0-.2,0h0c-.2,0-.4.2-.5.2h0s0,0,0,0c0,0-.1,0-.2,0,0,0,0,0-.1,0,0,0-.5.3-.6.3,0,0,0,0-.2,0,0,0-.2,0-.2.1h0s0,0,0,0c0,0-.2,0-.3.1,0,0,0,0-.1,0h0c0,0,0,0-.1.1h0s0,0,0,0h0s0,0,0,0h0s0,0,0,0c0,0-.2.1-.3.2h0c-.2.1-.3.2-.5.3h0c-.2.1-.3.2-.5.3h0c-.1.1-.2.2-.3.2h0s0,0,0,0c0,0-.2.1-.2.2h0c0,0-.4.4-.4.4-.1.2-.2.3-.4.4,0,0,0,0,0,0,0,.1-.2.2-.3.4t0,0s0,0,0,0h0s0,0,0,0h0s0,0,0,0c0,.2-.1.3-.2.4,0,0,0,0,0,0,0,0,0,0,0,0,0,0,0,.2,0,.3h0c0,0,0,0,0,.1,0,.2-.2.4-.1.6,0,0,0,.4,0,.3h0s0,0,.1-.1c.1-.1.2-.3.2-.3t0,0h0s0,0,0,0c0,0,0-.2.1-.2,0-.1.2-.2.3-.2,0,0,.1-.1.2-.2,0,0,.1,0,.2-.1.2,0,.4-.2.5-.2h0c0,0,.1,0,.2-.1.4-.2.8-.4,1.2-.6,0,0,0,0,0,0,.2-.1.4-.3.6-.4t0,0c.1,0,.3-.2.4-.3,0,0,.1,0,.2,0t0,0h0c.2,0,.2-.2.3-.3.1-.1.5-.5.7-.6,0,0,.2-.2.2-.2,0,0,0,0,0,0,0,0,0,0,0,0,.1,0,.2-.2.3-.3,0,0,.1,0,.2-.1,0,0,.4-.4.5-.3,0,0,0,0,0,0h0c0,0,0,.1-.1.2h0c-.1.2-.3.4-.4.6,0,0-.2.2-.2.3h0s0,0,0,0h-.1c0,0-.2.3-.2.3,0,0,0,0,0,0,0,.1-.2.2-.2.4,0,0,0,0,0,0,0,0-.1.2-.2.3,0,0-.1.2-.2.3t0,0c0,0-.2.1-.2.2,0,0-.1.2-.2.3h0s0,0,0,.1h0c0,.1-.1.2-.2.3,0,0,0,0-.1.1,0,0,0,.1,0,.2,0,0,0,0,0,0,0,0,0,0,0,0,0,0,0,0,0,0v.2c-.1,0,0,0,0,0,0,0,0,0,0,0,0,0,0,0,0,0,0,0-.1.1-.2.2h0s0,0,0,.1c0,0,0,0,0,0,0,0-.4.5-.4.6,0,0,0,0,0,0,0,.1-.2.3-.2.4h0c0,0,0,.2-.1.3,0,0,0,0,0,.1,0,0,0,.1-.1.1,0,0-.1.1-.2.2,0,0,0,0,0,.1,0,0,0,0-.1.1,0,0,0,0,0,0h0c0,0,0,.1-.1.1h0s0,0,0,0h0s0,0,0,0c0,0,0,0,0,0,0,0-.2.4-.3.5,0,0,0,0,0,.1t0,0s0,0,0,0h-.1c0,.2-.1.3-.2.4,0,.2.1.6.3.6,0,0,.2.2.3.2,0,0,0,0,0,0,0,0,.2,0,.2.1,0,0,.3,0,.3.1.2,0,.4,0,.6,0,0,0,.2,0,.2-.1h0c0,0,.4-.3.4-.4h0s0,0,.1,0h0c0,0,.1-.1.2-.2h0c0,0,.1,0,.1,0h0s.4-.2.4-.3c0,0,.1,0,.2,0,0,0,0,0,0,0,.1-.1.4-.2.5-.3,0,0,.4-.4.6-.4h0s0,0,.1,0c.4-.1.7-.3,1.1-.5,0,0,.2,0,.2,0,0,0,0,0,0,0,0,0,0,0,0,0,0,0-.1.3,0,.4.1,0,.3,0,.3-.1,0,0,.1,0,.2-.1,0,0,0,0,0,0,.2,0,.4,0,.6-.1,0,0,.1,0,.2,0,0,0,0,0,0,0h0s0,0,.1-.1c.3-.3.4-.6,0-.9,0,0-.1,0-.2-.1,0,0-.1,0-.2-.1,0,0-.3-.2-.4-.2,0,0,0,0,0,0,0,0-.2,0-.3,0h0c0,0-.1,0-.2,0,0,0,0,0,0,0h0c0,0-.1,0-.2,0h0s0,0-.1,0h0c0,0-.2,0-.2,0h0s0,0,0,0h0c0,0-.2,0-.2.1t0,0c0,0-.1,0-.2,0h0s0,0,0,0h0s0,0,0,0h0s0,0,0,0c0,0,0,0,0,0,0,0-.2.1-.3.2,0,0,0,0,0,0,0,0-.1,0-.2.1h0s0,0,0,0c0,0,0,0,0,0h0s-.3.2-.4.2c0,0,0,0,0,0,0,0,0,0,0,0s0-.2,0-.2c0-.1.1-.2.2-.3,0,0,0-.2.1-.3,0-.2.2-.3.3-.5,0-.1.1-.2.3-.3,0,0,.3-.4.3-.5,0,0,.6-.9.7-1h0s.3-.4.3-.5c0,0,.2-.2.2-.2,0,0,.1-.2.1-.2,0,0,.1-.1.1-.2h0s0,0,0,0h0s.3-.5.3-.5c0,0,0-.2.1-.2,0,0,.1-.2.1-.2.1-.2.2-.3.3-.5l.3-.4c0-.4.7-1.3,0-1.5h0ZM49.4,17.3s0,0,0-.1c0-.2,0-.2-.2-.2,0,0-.1.1-.1.2h0c0,0,0,.2,0,.2,0,0,0,0,0,0,0,0,0,.2,0,.3h0c0,0,0,.2,0,.2,0,.1,0,.2,0,.3,0,0,0,0,0,0,0,.2,0,.3,0,.5,0,0,0,.1,0,.2,0,0,0,0,0,.2,0,0,0,.2,0,.2t0,0s0,0,0,0h0s0,0,0,0c0,.2,0,.3,0,.5h0c0,0,0,.2,0,.3,0,0,0,.2,0,.3s0,0,0,0c0,0,0,0,0,0,0,0,0,0,0,0h0s0,.3,0,.3t0,0c0,.2,0,.4,0,.6,0,.7,0,1.4,0,2.1,0,.4,0,.8,0,1.2,0,0,0,0,0,0,0,.1,0,.3,0,.4t0,0s0,0,0,0c0,0,0,0,0,0,0,0,0,.1,0,.2,0,0,0,.2,0,.2,0,.3,0,.5,0,.7,0,.1,0,.2,0,.3,0,0,0,0,0,0,0,0,0,.2,0,.2,0,0,.1,0,.2,0,.1,0,.2,0,.3.1,0,0,0,0,0,0,0,0,0,0,0,0,.2,0,.5,0,.7-.1h.1c.1-.1.3-.3.3-.4,0,0,0,0,0,0,0-.1.1-.2.2-.3,0,0,0-.1,0-.2,0,0,0-.2.1-.3,0,0,0,0,0,0h0s0,0,0,0c0,0,0,0,0,0h0s0,0,0,0h0c0,0,0,0,0-.1,0-.2,0-.4.1-.5,0,0,0-.1,0-.2,0-.2,0-.4,0-.5,0,0,0-.2,0-.3,0-.2,0-.4,0-.5,0,0,0-.2,0-.2,0,0,0,0,0,0,0,0,0,0,0,0,0-.1,0-.2,0-.3,0-.2.1-.4.2-.6,0-.1,0-.2,0-.4,0,0,0-.2,0-.2,0,0,0,0,0-.1,0,0,0,0,0,0h0s0,0,0,0t0,0c0,0,0,.1,0,.2t0,0c0,0,0,.1-.1.2,0,0,0,0,0,0,0,0,0,0,0,.1h0c0,0,0,.2,0,.2,0,.1,0,.2-.1.4,0,0,0,.1,0,.2,0,0,0,.1,0,.2,0,0,0,0,0,0,0,.1,0,.2-.1.3,0,.1,0,.2,0,.3,0,0,0,0,0,0,0,0,0,.1,0,.2,0,0,0,.1-.1.2,0,.2-.1.3-.2.4,0,.1,0,.2-.1.4,0,0,0,.2-.1.3-.1,0-.2-.6-.2-.8,0,0,0-.3,0-.3,0-.3,0-.6,0-.8v-.3c0,0,0-.1,0-.2,0-.2,0-.5,0-.7,0,0,0-.1,0-.2,0,0,0,0,0-.1,0-.4,0-.8,0-1.2,0,0,0,0,0,0,0-.2,0-.5,0-.7h0c0-.2,0-.4,0-.6,0-.3,0-.7,0-1,0,0,0,0,0,0,0-.2,0-.4,0-.6,0,0,0-.2,0-.3h0ZM49.8,16s.3-.4.4-.4c0,0,.2,0,.3-.2,0,0,0,0,0,0,0,0,0,0,0,0,0,0,.1-.2.2-.2,0,0,.1-.1.1-.2h0s.2-.4.3-.4c0,0,.1-.2.2-.3h0s0,0,0,0c0-.1.2-.2.2-.3,0,0,0,0,0,0,.2-.2.5-.7.6-1.1,0-.1,0-.3,0-.4,0,0,0-.2.1-.2,0,0,0-.1,0-.2,0-.1,0-.2,0-.3,0-.2,0-.4,0-.5t0,0c0,0,0-.1,0-.2,0,0,0-.1,0-.2,0,0,0,0,0,0h0c0-.1,0-.2,0-.3,0,0,0,0,0,0,0-.1,0-.3-.1-.4,0,0,0-.3-.1-.4,0,0,0,0,0,0,0,0-.3-.2-.3-.2,0,0,0,0-.1,0,0,0-.1,0-.2,0,0,0,0,0,0,0,0,0-.1,0-.2,0h0s0,0,0,0c0,0,0,0,0,0,0,0,0,0,0,0,0,0-.1,0-.2.2h0c0,.2-.1.3-.1.5h0c0,0,0,.2,0,.3,0,0,0,0,0,0h0c0,0,0,.2,0,.2,0,.2-.1.3,0,.5,0,0,0,.3,0,.4,0,0,0,0,0,0,0,0,0,.1,0,.2,0,.2,0,.5-.1.7,0,.2-.1.4-.1.6,0,0,0,.1,0,.2,0,0,0,.2,0,.3,0,.2-.2.5-.2.8,0,0,0,0,0,.1h0s0,0,0,0c0,0,0,0,0,0,0,0,0,0,0,.2,0,0,0,0,0,0,0,0,0,.1,0,.2h0s0,0,0,0c0,0,0,.1,0,.2,0,0,0,0,0,0,0,0,0,.1,0,.2,0,0,0,0,0,0,0,0,0,0,0,0,0,.2-.1.3-.2.4,0,0,0,.2,0,.2,0,0,0,0,0,0,0,0,0,.2,0,.3,0,0,0,0,0,0,0,0,0,0,0,0h0c0,0,0,.2,0,.2.1,0,.4-.6.6-.7ZM68.2,21.1h0s0,0,0,0c0,0,0,0,0,0-.1,0-.2,0-.3,0,0,0-.1,0-.2,0h0s0,0,0,.1h0s0,0,0,0h0s0,0,0,0c0,0-.2.3-.2.3,0,0,0,0,0,0t0,0c0,.1,0,.2,0,.4t0,0c0,0,0,.2,0,.2,0,0,0,0,0,0,0,.2,0,.4-.1.5h0c0,.1,0,.1,0,.1,0,0-.1.3,0,.4t0,0s0,0,0,0c0,0,0,0,0,0,0,0,0,0,0,0,0,0,0,0,0,0h0c0,0,0,.4,0,.4,0,0,0,0,0,0h0c0,0,0,.2,0,.3,0,0,0,0,0,.1h0c0,0,.1.1.2.2,0,0,0,0,0,0h0s0,0,0,0c.1,0,.2.2.3.2,0,0,.1,0,.1.1,0,0,0,0,.1,0,0,0,.1,0,.2,0,0,0,0,0,0,0,0,0,0,0,0,0,0,0,0,0,0,0,0,0,0,0,0,0,.4-.2.3-.8.3-1.3h0s0,0,0,0h0c0-.2,0-.2,0-.2,0,0,0,0,0,0h0s0,0,0,0c0-.2,0-.3,0-.5h0c0-.1,0-.3,0-.3,0-.1,0-.2,0-.3v-.2c0-.2-.1-.4-.2-.5,0,0,0-.2,0-.2,0,0,0-.1-.1-.2,0,0,0,0,0,0h0ZM77.1,13.2c-.2-.1,0-.2-.4-.2h0s0,0,0,0h0s0,0,0,0c0,0,0,0-.1,0,0,0,0,0,0,0h0s0,0,0,0c0,0,0,0,0,0,0,0,0,0,0,0h0s0,0,0,0c0,0-.3,0-.4,0h0s0,0-.1,0c0,0,0,0,0,0,0,0-.5.3-.6.4t0,0s0,0-.1,0h0,0s-.1,0-.1,0c-.2.1-.3.2-.5.3,0,0,0,0,0,0,0,0,0,0,0,0,0,0,0,0,0,0h0s0,0,0,0c0,0,0,0,0,0,0,0-.1,0-.2.1,0,0,0,0-.1,0h0c-.1,0-.2.2-.3.2h0c0,0-.1.1-.2.2h0s0,0,0,0c0,0,0,.1-.1.2h0s0,0,0,0h0s0,0,0,0h0c0,0-.4.3-.4.4h0c0,0,0,0-.1.1h0s0,0,0,0c-.2.2-.3.3-.5.5-.1,0,0-.2,0-.3,0-.2.2-.5.3-.6,0-.1.1-.2.2-.4,0,0,.1,0,.2-.2h0s0,0,0,0c.1,0,.4-.3.5-.3.1,0,.3-.2.4-.3,0,0,.2-.2.3-.2,0,0,.4-.4.5-.5h0s0,0,0,0h0c0,0,.1-.2.2-.2,0,0,.2-.2.2-.3h0c0,0,0-.2,0-.2,0-.1,0-.3,0-.4,0-.2-.1-.2-.2-.4,0-.4,0-.7-.3-1,0,0,0,0,0-.1,0,0-.1-.2-.2-.3,0,0,0,0,0,0,0,0-.3-.2-.3-.3,0,0,0,0,0,0,0,0,0-.3,0-.4,0,0,0,0,0-.1,0,0,0-.1-.1-.2,0,0,0,0,0,0,0-.1-.2-.2-.3-.3,0,0,0-.2-.1-.2,0,0,0,0,0,0,0,0-.2-.2-.2-.2,0,0,0,0-.1,0h0c-.2,0-.3,0-.5,0,0,0,0,0-.1,0,0,0,0,0,0,0,0,0,0,0,0,0h0s0,0,0,0h0s0,0,0,0c-.1.2-.3.5-.2.7,0,0,0,.1,0,.2h0s0,0,0,0c.2.5.2,1,.1,1.6,0,0,0,0,0,.2,0,.3,0,.6-.1,1,0,.1,0,.2,0,.3,0,0,0,0,0,0,0,0,0,.2,0,.3h0c0,.1,0,.2,0,.3h0s0,0,0,0h0s0,0,0,0c0,0,0,0,0,.1,0,.1,0,.2-.1.3,0,0,0,0,0,0,0,0,0,0,0,0,0,0,0,0,0,0h0s0,0,0,0h0s0,0,0,.1c0,0-.4.4-.5.4h0s0,0,0,0c0,0,0,0,0,0,0,0,0,.1-.1.2h0s0,0,0,0h0c0,0-.1,0-.2,0,0,0,0,0,0,0,0,0-.1,0-.2.2h0s0,0,0,0c0,0,0,0,0,0h0s0,0,0,0c0,0,0,0,0,0,0,.2.1.3.3.4h0c.1.2.4.2.6.3,0,0,0,0,0,0,.1,0,.3.2.2.3,0,.2,0,.4,0,.6h0c0,.2,0,.3,0,.4,0,0,0,0,0,0t0,0c0,.1-.1.3-.3.4,0,0,0,0,0,0,0,0-.1.1-.2.2h0s0,0,0,0c0,0,0,0,0,0,0,0-.2.1-.2.2t0,0h0s0,0,0,0h0c0,0,0,.1-.2.2h0c0,0,0,.1-.1.2h0c0,.1-.2.2-.3.3h0c0,.1-.2.2-.2.3,0,0-.1.1-.2.2h0s-.3.4-.5.6c0,0,0,.1-.1.2,0,0-.2.2-.2.3,0,0,0,0,0,0,0,0,0,0,0,0,0,0,0,.3,0,.3,0,0,0,0,0,0,0,0,.1,0,.1.1h0c0,0,.1,0,.2,0t0,0h0c.2,0,.3,0,.5,0,0,0,.1,0,.2,0,.1,0,.2,0,.3-.2h0c.2-.2.5-.4.7-.6t0,0h0c0,0,.2-.1.3-.2,0,0,0,0,0,0h0c0,0,0,0,0,0,0,0,.2,0,.3,0,0,0,0,0,.1,0h0c0,0,.2,0,.2,0,.1,0,.2-.1.3-.2,0,0,.1-.2.1-.2,0,0,0,0,0-.1h0s0,0,0,0c0-.1.4-.5.5-.7t0,0c.1-.2.3-.3.4-.5h0s0,0,0,0c0,0,.7-1,.8-1,0,.1-.2.4-.3.5h0c0,0,0,.1,0,.2,0,0,0,.1-.1.2,0,0,0,.1,0,.2,0,0,0,.1-.1.2t0,0s0,.1,0,.1c0,0,0,.1-.1.2,0,0,0,0,0,0h0s0,0,0,0c0,0-.1.2-.2.3,0,0,0,0,0,0h0s0,0,0,0h0s0,0,0,.1c0,0,0,0,0,0,0,0,0,0,0,0h0c0,0,0,.2-.1.2h0s0,0,0,0h0c0,0,0,.1-.1.2h0s0,0,0,0c0,.1-.2.2-.3.4v.4s0,0,0,0c0,0,0,0,0,0,0,.2,0,.3.1.5,0,0,0,0,.2,0,0,0,.2,0,.2,0,0,0,.2,0,.2,0,0,0,0,.1,0,.2,0,.1-.2.3-.2.4,0,0,0,.1-.1.2h0c0,.1-.1.2,0,.2h0c0,0,0,0,0,0h0s0,0,0,0c0,0,0,0,0,0,0,0,0,.2-.1.2,0,.1,0,.2-.1.3,0,0,0,.1,0,.2,0,0,0,0,0,.1,0,0,0,0,0,0,0,.2,0,.4,0,.6,0,0,0,0,0,.1.1.2.1.2.4.2,0,0,0,0,0,0,0,0,0,0,0,0,.1,0,.1-.2.2-.2,0,0,.1,0,.1,0,0,0,0,.1,0,.1h0s0,0,0,0c0,.1,0,.3,0,.4h0s0,0,0,0c0,.2,0,.5,0,.7,0,0,0,0,0,0t0,0c0,0,0,.2,0,.3,0,.2-.1.5.1.6,0,0,.2,0,.2.1h0c0,0,.2,0,.2-.1,0,0,0,0,0,0,0,0,0,0,0,0h.1c0-.1,0-.1,0-.1h0s0,0,0,0c0,0,0,0,0,0,0,0,0-.2,0-.2,0,0,0-.1,0-.2,0-.2,0-.3,0-.5,0-.1,0-.2,0-.3,0-.2,0-.3,0-.5,0-.2,0-.4,0-.6h0c0-.4,0-.7.2-.9t0,0h0s0,0,0,0c0,0,0,0,0,0,0-.2.2-.3.3-.4,0,0,0,0,0,0,0,0,.2-.3.2-.3,0-.2.2-.3.2-.5,0,0,0-.3,0-.4,0,0-.3-.3-.3-.3,0,0,0,0,0,0,0,0,0,0,0,0,0,0,0-.2-.2-.2h0c0-.2.2-.3.1-.4,0,0,0,0,0,0h0s0,0,0,0c0,0,0,0-.1,0h0s0,0,0,0h0s0,0,0,0c0,0,0,0,0,0,0,0,0,0,0,0,0,0,0,0,0,0,0,0,0,0,0,0h0s-.2,0-.3,0c0,0,0-.2.1-.2,0,0,0,0,0,0,0,0,0,0,0,0,0-.1.1-.2.2-.3h0s0,0,0,0c0,0,0,0,0,0t0,0s0,0,0,0t0,0h0s0,0,0,0c0,0,0,0,0,0,0,0,0,0,0,0h0s0,0,0,0c0,0,0,0,0,0,0,0,0,0,0,0,0,0,0,0,0,0,0,0,.7-.7.8-.8,0,0,0-.2.1-.2h0s0,0,0,0h0s0,0,0,0h0s0,0,0,0c.1,0,.7-.7.7-.8,0,0,0,0,0,0,0-.1,0-.3-.1-.3,0,0-.2-.3-.3-.3,0,0,0,0,0,0,0,0-.5,0-.4-.2,0,0,0,0,0,0h0c0,0,0-.1,0-.2,0,0,0,0,0-.1t0,0h0c0,0,0,0,.1-.1.2-.1.3-.2.4-.3.2-.1.3-.2.5-.3,0,0,0,0,.2,0h0s0,0,0,0c0,0,.3-.2.3-.2,0,0,.1,0,.2,0,.3,0,.2.5.2.7,0,0,0,.2,0,.3,0,0,0,0,0,0,0,.2,0,.4,0,.6,0,0,0,0,0,0,0,.4-.1.7-.2,1.1,0,0,0,.2,0,.3h0c0,.1,0,.3,0,.4,0,.5,0,1.1-.1,1.6,0,.4,0,.8-.2,1.2,0,0,0,0,0,.1,0,.1,0,.3,0,.4h0c0,.1,0,.2,0,.3,0,0,0,0,0,0,0,0,0,0,0,0,0,0,0,0,0,0,0,0,0,0,0,0,0,0,0,0,0,0,0,.1-.2.2-.2.4,0,0,0,0,0,0,0,0,0,0-.1,0,0,0,0,0-.1,0-.2,0-.4.2-.5.3h0s0,0,0,0c0,0,0,.2,0,.3,0,0,.1.1.2.1.5.3.8,0,1.1-.3,0,0,.3-.2.3-.3,0,0,0-.1,0-.1.1-.3.2-.6.3-1,0-.2,0-.3,0-.5,0-.1,0-.2,0-.4,0-.2,0-.5,0-.7,0,0,0-.2,0-.3,0-.4,0-.7,0-1.1h0c0-.2,0-.4,0-.6h0s0,0,0,0c0,0,0-.2,0-.3,0,0,0-.1,0-.2,0-.1,0-.3,0-.4.1-.5.2-1.1.3-1.6,0-.2,0-.5,0-.6,0-.1,0-.3,0-.4,0-.4-.2-.1-.4-.3h0ZM91.1,16.5s0,0,0,0h0s0,0,0,0c.2,0,.3-.2.5-.3h0s0,0,0,0c.2,0,.4-.3.6-.4.1,0,.4-.3.5-.4,0,0,.2-.2.2-.3h0c0-.1,0-.2.1-.3h0c0,0,0-.1,0-.2,0,0,0,0,0,0,0,0,0,0,0,0,0,0,0,0-.1,0,0,0,0,0,0,0-.2,0-.3,0-.5,0h0s0,0,0,0c0,0,0,0,0,0h0c0,0,0,.2-.1.2,0,0,0,.2-.1.3h0s0,0,0,0t0,0h-.2c0,.1-.2.2-.3.2-.1,0-.2.1-.3.2,0,0-.2,0-.3.1,0,0,0,0,0,0,0,0,0,0,0,0,0,0-.2,0-.2,0,0,0-.1,0-.2,0,0,0,0,0,0,0-.2,0-.3.1-.5.2h0s0,0,0,0t0,0h-.1s0,0,0,0c0,0,0,0-.1,0h0s0-.1,0-.1c0,0,0-.2.1-.2,0-.2.1-.4.2-.5,0-.2.1-.4.2-.6.1-.4.3-.8.2-1.2h0s0,0,0,0v-.2s0,0,0-.1c0-.3-.2-.5-.2-.7,0-.2-.3-.6-.4-.7,0,0,0,0,0,0,0,0-.2-.4-.3-.4,0-.1-.4-.4-.5-.5t0,0s0,0-.2,0c0,0,0,0,0,0h-.2s0,0-.1,0h0s0,0,0,0h0c-.2,0-.3,0-.3.3,0,0,0,0,0,.1,0,.2,0,.3,0,.5,0,0,0,.2.1.3,0,0,0,.2,0,.3,0,0,0,0,0,0,0,.2,0,.3.1.4,0,.3.1.7.2,1,0,.2,0,.4,0,.6,0,0,0,0,0,0,0,0,0,.1,0,.2,0,.1,0,.2,0,.3,0,0,0,0,0,0,0,.1,0,.3-.1.4,0,.1,0,.2,0,.3,0,0,0,.2,0,.2,0,0,0,0,0,0,0,0,0,.2-.1.3,0,0,0,.2-.2.3h0c0,0,0,0,0,.1,0,0-.1.2-.1.2h0s-.1,0-.2,0h0s0,0,0,0c0,0,0,0,0,0-.1,0-.2,0-.3.1,0,0,0,0,0,0h0s0,0,0,0c0,0,0,0,0,0h0s0,0,0,0h0s0,0,0,0t0,0s0,0-.1,0c0,0,0,0,0,0h0s0,0,0,0c0,0,0,0,0,0h0s-.1,0-.1,0h0s0,0,0,0c-.1,0-.2,0-.3,0h0s0,0,0,0c0,0,0,0-.1,0,0,0-.1,0-.2,0h0s0,0-.1.1c0,0,0,0,0,0,0,.1.3.3.4.4.1,0,.6.2.7.2h0s0,0,0,0c0,0,.2,0,.3,0,0,0,0,0,.1,0h0s0,0,0,0h0c0,.1-.1.2-.2.3,0,0,0,0,0,0h0c0,0,0,.1-.1.2t0,0s0,0,0,.1c0,0,0,0,0,0,0,0,0,0,0,0h0c0,.1-.1.2-.2.3,0,.1-.1.2-.2.4,0,0,0,0,0,0,0,0,0,.1,0,.2t0,0c0,0,0,.1-.1.2,0,0,0,0,0,0h0s0,0,0,0t0,0s0,0,0,0c0,0,0,0,0,0,0,0,0,.1-.1.2h0c0,.1-.1.3-.2.4h0c0,0,0,0,0,.1,0,.2-.2.3-.3.4,0,0,0,.1-.1.2-.1.1-.2.3-.3.4t0,0c0,0-.1.2-.2.2,0,0,0,0,0,0h0c0,0-.1.1-.1.2h0s0,0,0,0h0c0,.1-.2.2-.3.3,0,0,0,0,0,0-.1.1-.3.3-.4.4-.1.1-.2.2-.3.3,0,0-.2.1-.3.2h0c0,.1.2.5.3.4.4,0,.7-.2,1-.4,0,0,.2,0,.3-.2h0c0,0,.2-.1.2-.2,0,0,.3-.2.3-.2,0,0,0,0,0,0,0,0,0,0,0,0h0s0,0,0,0h0s0,0,0,0h0c0-.1.2-.2.3-.3,0,0,0,0,0,0h0s0,0,0,0t0,0c.2-.2.3-.3.5-.5,0-.1.2-.2.3-.3t0,0s.2-.2.2-.2c0,0,0,0,.1-.1h0c0,0,.1-.1.2-.2,0,0,0,0,0,0,.2-.2.3-.4.4-.6,0,0,0-.2.2-.2.1,0,.5-.5.5-.6.2-.2.3-.5.4-.7,0,0,0,0,0,0,.1-.2.2-.4.3-.5,0,0,.1-.2.1-.3,0,0,.4-.7.5-.8.2-.2.6-.2.9-.4.4-.2.9-.4,1.3-.6t0,0h0ZM92.5,22.2c0-.2-.1-.3-.2-.5,0,0,0,0,0,0,0,0-.3-.2-.3-.2,0,0,0,0,0,0,0,0,0,0,0,0-.1,0-.2,0-.4-.1-.2,0-.3-.1-.5-.2,0,0-.1,0-.2,0,0,0,0,0,0,0,0,0-.1,0-.2,0-.2,0-.4,0-.6,0,0,0,0,0,0,0,0,0,0,0-.1,0h0s0,0,0,0c0,0-.1,0-.1.1,0,0-.1,0,0,.1,0,.2.5.6.7.6h0c0,0,.1,0,.2.1,0,0,0,0,0,0,.2,0,.3.3.3.4,0,0,0,0,0,.1,0,0-.1,0-.2.1h0s0,0,0,0c0,0,0,0,0,0,0,.1,0,.3.1.4,0,0,0,0,0,0,0,0,0,0,0,0,0,0,.2,0,.3,0,0,0,.2,0,.2,0,.2,0,.3-.1.4-.2,0,0,.2,0,.3,0,0,0,0,0,.1,0,.2-.1.6-.4.5-.7ZM105.9,23.9s0,0,0,0h0c-.1,0-.4,0-.7-.2-.4-.2-.8-.4-.8-.6h0c0,0,0-.2,0-.3,0-.2.4-.4.6-.4,0,0,.1,0,.2,0,.1.1.3.3.3.4h0s0,0,0,0c0,.1.4.5.4.6h0s0,0,0,0c0,0,.1.2,0,.2ZM107.3,23.4s0,0,0,0c0-.1,0-.3,0-.4,0,0,0,0,0,0h0s0,0,0,0,0,0,0,0c0-.1-.1-.3-.2-.4,0,0-.3-.5-.5-.5h0c0,0-.3-.2-.2-.3,0,0,.2-.2.3-.2,0,0,.1,0,.2,0,.2,0,.4-.1.6-.1h0c0,0,0,0,0,.1,0,0-.1.1,0,.2,0,0,0,0,0,0,0,0,.1,0,.2,0,.2,0,.4-.1.6-.2.2,0,.4,0,.6,0,0,0,.2,0,.2-.2,0,0,0,0,0,0h0s0,0,0,0c0,0,0,0,.1,0h0s0,0,0,0c0,0,0,0,0-.2h0c0,0,.1-.1.1-.2,0-.2-.4-.5-.5-.5,0,0,0,0-.1,0,0,0-.2,0-.3,0-.2,0-.4,0-.6,0,0,0,0,0,0,0,0,0-.1,0-.2,0,0,0-.1,0-.2,0h0s0,0,0,0h0s0,0,0,0h0s0,0,0,0h0c0,0,0,0-.1,0,0,0-.1,0-.2,0,0,0,0,0-.1,0,0,0,0,0,0,0,0,0,0,0,0,0h0s0,0,0,0c0,0,0,0,0,0,0,0,0,0-.1,0,0,0,0,0-.1,0h0,0s-.1,0-.1,0h0s0,0-.1,0c0,0-.1,0-.2,0,0,0,0,0,0,0,0,0,0,0,0,0h0c0-.3.1-.5.2-.7,0,0,0,0,0,0,0,0,0-.2,0-.3,0-.2.1-.5,0-.8,0,0,0,0,0,0,0,0,0,0,0-.1,0,0,0,0,0,0,0-.1,0-.3-.2-.4,0-.1,0-.2-.2-.3,0,0,0,0,0,0,0,0,0,0,0,0,0,0-.1,0-.2,0,0,0,0,0,0,0,0,0,0,0,0,0h0c-.2,0-.5,0-.7,0h0s0,0,0,0h0s0-.2.2-.2h0c0,0,.1-.1.2-.2h0s0,0,0,0h0s0,0,0,0c0,0,.1,0,.2,0h0s0,0,0,0c0,0,.2,0,.2-.1t0,0c0,0,0,0,.1,0,0,0,0,0,0,0,0,0,.7-.5.8-.6h0s0,0,.1-.1h0s0,0,0,0h0s.4-.3.4-.3h0s0,0,0,0c0,0,.2-.1.3-.2t0,0h0s0,0,0,0h0s0,0,0,0c0,0,0,0,0,0,0,0,0,0,0,0,0,0,0,0,0,0h0s0,0,0,0h0s0,0,.2,0h0s0,0,0,0c0,0,.4-.3.5-.3h0s0,0,0,0h0s0,0,0,0h0s0,0,0,0h0s0,0,0,0c0,0,.1-.2.2-.2,0,0,.2,0,.3-.1h0c.2-.1.3-.2.5-.3.1,0,.2,0,.4-.1.1,0,.3-.2.4-.3,0,0,.2-.1.3-.2.1,0,.2-.1.3-.2.2,0,.4-.1.5-.3h0s0,0,0,0c0,0,0,0,.1,0h0s.2-.2.2-.2c0,0,0,0,.1,0,0,0,0,0,.1-.1,0,0,0,0,0,0,0,0,.3-.4.4-.4.1-.1.2-.3.2-.4,0,0,0,0,0,0,0,0,0,0,0,0,.2,0,.2-.7.2-.7h0c0-.2-.1-.4-.3-.6h0s-.3-.2-.3-.2c0,0,0,0-.1,0,0,0,0,0,0,0,0,0,0,0-.1,0,0,0-.2,0-.3,0,0,0-.1,0-.2,0h0s0,0,0,0h-.2s0,0,0,0h0s0,0,0,0c0,0,0,0,0,0,0,0,0,0,0,0h0s0,0,0,0c-.1,0-.2,0-.3,0,0,0-.2,0-.2,0h0s0,0,0,0h0s0,0-.1,0c0,0,0,0,0,0h0s0,0,0,0h0s0,0,0,0c0,0,0,0-.1,0,0,0,0,0,0,0h0s0,0,0,0c0,0-.1,0-.2,0h0s0,0,0,0c0,0-.1,0-.2,0,0,0,0,0,0,0,0,0,0,0,0,0h0s0,0,0,0c0,0,0,0,0,0h0s0,0,0,0c0,0,0,0,0,0,0,0-.2,0-.3.1,0,0,0,0-.1,0,0,0,0,0,0,0h0c0,0-.2,0-.2.1h0s0,0,0,0h0s0,0,0,0h0c0,0-.1,0-.2,0-.2,0-.3.1-.5.2,0,0,0,0,0,0,0,0,0,0,0,0-.1,0-.4.2-.5.3,0,0,0,0-.1,0h0,0s0,0,0,0c0,0,0,0,0,0,0,0,0,0,0,0h0s0,0,0,0c0,0,0,0,0,0,0,0,0,0,0,0,0,0,0,0,0,0h0s0,0,0,0c0,0,0,0,0,0,0,0-.2.1-.2.2,0,0,0,0,0,0,0,0,0,0,0,0h0s0,0,0,0c0,0,0,0-.1,0h0s0,0,0,0c0,0-.2,0-.3.1,0,0,0,0,0,0,0,0-.1,0-.2,0,0,0,0,0,0,0h0s0,0,0,0t0,0h0s0,0,0,0c0,0,0,0,0,0-.1,0-.3,0-.4,0,0,0,0,0,0,0h0s0,0,0,0t0,0h-.2s0,0,0,0c0,0,0,0-.1,0,0,0,0,0,0,.1h0c0,0,0,.1-.1.2,0,0,0,0,0,0,0,0,0,0-.1,0h0c0,.1,0,.2,0,.3,0,.1,0,.3,0,.4,0,0,0,0,0,.1h0c0,0,.3.3.4.4h0s0,0,0,0c0,0,0,0,0,0,0,0,0,0,0,0,0,0,.2.3.3.3,0,0,0,0,0,0,0,0,.2.2.2.3t0,0s0,0,.1,0c0,0,.1.1.1.1t0,0s0,0,0,0c0,0,.3.2.3.2,0,0,0,0,0,0,0,0,0,0,.1,0s.1,0,.2,0c.1,0,.5-.2.6-.3,0,0,0,0,0,0,0-.1.3-.3.3-.5,0,0,0,0,0,0t0,0h0s0,0,0,0c0,0,0-.1-.1-.1,0,0,0,0,0-.1,0,0,0,0,0,0,0,0,0-.2,0-.3h0s0,0,0,0c0,0,.1-.2.2-.2,0,0,0,0,.1,0,0,0,0,0,0,0h0s0,0,0,0c0,0,.1,0,.2-.1,0,0,0,0,.1,0,0,0,0,0,0,0h0s.3-.2.4-.2h0c0,0,.1,0,.2-.1,0,0,.2,0,.2-.1,0,0,.1,0,.2-.1.1,0,.3-.1.4-.1,0,0,0,0,.1,0,0,0,0,0,0,0h0s.1,0,.2,0c.2,0,.4-.1.6-.2,0,0,0,0,.1,0,0,0,0,0,.1,0h0s0,0,0,0c0,0,0,.1,0,.1-.2.3-.5.5-.8.8,0,0-.1.1-.2.2h0c-.3.3-.6.6-.9.9h0s0,0,0,0c0,0,0,0,0,0,0,0,0,0,0,0h0s0,0,0,0h0c0,0-.1.1-.2.2-.1.1-.3.2-.4.4h0s0,0,0,0h0s0,0,0,0c0,0,0,0,0,0h0s0,0,0,0h0s0,0,0,0c0,0-.1,0-.2.1,0,0,0,0,0,0h0s0,0,0,0c0,0,0,0,0,0h0s0,0,0,0c0,0-.2.1-.2.2h0c-.2.1-.3.3-.5.4t0,0h0s0,0-.1.1c0,0,0,0-.1,0,0,0,0,0-.1,0l-.2.2h0s0,0,0,0c0,0,0,0,0,0,0,0,0,0,0,0h0c-.1,0-.2.2-.4.3,0,0-.1.1-.2.2,0,0,0,0,0,0h0s0,0,0,0c0,0,0,0-.2.1,0,0-.1.1-.2.2t0,0h0s0,0,0,0h0c-.1.1-.3.3-.4.4,0,0-.3.3-.3.3,0,0-.2.1-.3.2,0,0,0,0-.1,0h0s0,0,0,0c0,0-.1.2,0,.3,0,0,0,0,0,0,0,0,0,0,0,0,0,0,0,.2,0,.3,0,.3,0,.5,0,.8,0,0,0,0,0,0,0,0,0,0,0,0,0,0,0,0,0,0,0,0,0,0,.1,0,0,0,0,0,.1,0,0,0,.1,0,.2-.1,0,0,0,0,0,0,0,0,0,0,0,0,.1,0,.2,0,.3,0,.1,0,.3-.1.4-.2,0,0,0,0,0,0,.2,0,0,1,0,1.2,0,.3,0,.6,0,.8,0,.3,0,.4-.2.6h0s0,0,0,0h0c-.3.3-.7.6-.9.9,0,0,0,0,0,0,0,.1,0,.2-.1.3,0,0,0,0,0,0h0c0,.1,0,.3,0,.3,0,.2,0,.3.2.4,0,0,0,0,0,.1,0,0,0,.1,0,.1,0,0,0,.1.1.2,0,0,0,0,0,0,0,0,0,0,0,0,0,0,0,0,0,0,0,.1.5.4.7.4,0,0,0,0,0,0,.3.1.5.4.7.5h0c.1,0,.3.1.4.1,0,0,0,0,0,0h0c.6,0,1.3-.2,1.7-.6,0,0,0,0,.1-.1,0-.2.2-.5.3-.7,0-.2,0-.3,0-.4h0ZM103.2,13.6h0s0,0,0,0c0,0-.2.1-.2.2,0,0,0,0,0,0,0,0,0,0-.1,0,0,0-.2.1-.3.2h0c0,0,0,0-.1.1h0s0,0,0,0h0c0,0,0,0-.1,0h0s0,0,0,0c0,0-.2,0-.2,0,0,0,0,0-.1,0h0s0,0,0,0h0s-.3,0-.3,0h0s0,0-.1,0h0s0,0,0,0c0,0,0,0-.1,0,0,0,0,0-.1,0h0s0,0,0,0h0s0,0,0,0h0s0,0,0,0c0,0,0,0,0,0h0s0,0,0,0c0,0,0,0-.1,0,0,0,0,0,0,0h0c0,0-.1,0-.1,0,0,0-.1,0-.2,0,0,0,0,0-.1,0h0s0,0,0,0c0,0,0,0,0,0,0,0,0,0,0,0,0,0,0,0,0,0h0s0,0,0,0c0,0,0,0,0,0,0,0-.2,0-.3.1,0,0,0,0-.1,0,0,0,0,0,0,0,0,0,0,.1-.1.2,0,0,0,0,0,.1,0,.3.1.5.3.7,0,0,.1.1.2.2,0,0,0,0,0,0,.2.2.4.4.7.4h.3s0,0,0,0c0,0,0,0,0,0,0,0,0,0,.1,0,0,0,0,0,.1,0,0,0,.1,0,.2,0,0,0,.5-.4.5-.4,0,0,.2-.2.2-.2h0s0,0,0,0h0s0,0,0,0h0c.1,0,.1-.2.2-.4,0,0,.1-.1.1-.2,0,0,0,0,0-.2t0,0s.4-.5.4-.6c0,0,0,0,0,0,0,0,0-.1.1-.2,0,0,0,0,0-.1,0,0,0,0,0,0,0,0,0-.1.2-.3,0-.1.2-.3.2-.3h0s0,0,0,0c0,0,0-.1,0-.1h0Z"/>
      <path class="cls-3" d="M17.4,25.1c0-.2,0-.2-.3-.2l-.8.2c-.3,0-.5,0-.7-.1,0,0-.2-.1-.2-.2h0c0,0,.2.1.3.1.1,0,.3,0,.5,0h.8c.2-.2.2-.2.2-.4h0s.1.7.1.7h0s0,0,0,0ZM16.1,26.1h0c0,.2,0,.2.3.1l.9-.3c.2,0,.2,0,.2-.3h0s.2.7.2.7h0c0-.2,0-.2-.3-.1l-.9.3c-.2,0-.2,0-.2.3h0s-.2-.7-.2-.7h0ZM17.9,27.4h0c-.2,0-.4,0-.6,0l.2.4.4-.4h0ZM16.8,28.1h0c0,0,.1,0,.2,0,0,0,.2-.1.2-.2l-.2-.4c0,0-.2,0-.3,0-.1,0-.2,0-.1.2h0s-.2-.5-.2-.5h0c0,.1.1.1.3.1h1.4c0,0,0,0,0,0-.3.3-.7.6-1,1-.2.2-.2.2-.1.4h0s-.3-.6-.3-.6h0ZM19.6,29.8c0-.1-.1-.1-.2,0-.1,0-.2.1-.4.2l-.8.6h0c0,0,.4-1.7.4-1.7h0s-.5.3-.5.3c-.2.1-.3.2-.3.2,0,0,0,.1,0,.3h0s-.3-.4-.3-.4h0c0,0,.2,0,.2,0,0,0,.2,0,.4-.2l.4-.3c.1,0,.2-.1.2-.2,0,0,0-.1,0-.2h0s.2.3.2.3l-.4,1.5h0s.4-.3.4-.3c.2-.1.3-.2.3-.2,0,0,0-.1,0-.3h0s.3.4.3.4h0s0,0,0,0ZM20.4,31.8c-.1,0-.1,0-.2,0h-.1c0,.2-.1.3-.2.3-.1,0-.3-.2-.5-.3-.4-.4-.4-.9,0-1.2.4-.4.9-.3,1.3,0,.1.1.2.3.3.4,0,0-.1.2-.3.3h0c.2-.3.1-.5,0-.7-.2-.2-.6-.2-.9,0-.3.3-.4.7,0,1,0,0,0,0,.1,0,0,0,0,0,.1,0l.2-.2c.1-.1.1-.1,0-.3h0c0,0,.5.4.5.4,0,0,0,0,0,0ZM22.7,32.4c-.1,0-.2,0-.2,0,0,.1-.2.2-.2.3l-.6.8h0c0,0-.2-1.7-.2-1.7h0s-.3.5-.3.5c-.1.2-.2.3-.2.3,0,.1,0,.2.1.3h0c0,0-.5-.3-.5-.3h0c.1,0,.2,0,.3,0,0,0,.1-.1.2-.3l.3-.4c0-.1.1-.2.1-.2,0,0,0-.1-.1-.2h0c0,0,.3.2.3.2l.2,1.5h0s.3-.4.3-.4c.1-.2.2-.3.2-.3,0,0,0-.2-.1-.3h0c0,0,.5.3.5.3,0,0,0,0,0,0ZM23.5,33.1h0c-.1.1-.3.3-.4.4l.4.2v-.6c0,0,0,0,0,0ZM23.2,34.3h0c.1,0,.2,0,.2-.2,0,0,0-.2,0-.3l-.4-.2c0,0-.1.1-.2.2,0,.1,0,.1,0,.2h0c0,0-.5-.2-.5-.2h0c.2,0,.2,0,.4-.2l1-1h.1c0,.5,0,.9-.1,1.4,0,.2,0,.3.1.4h0c0,0-.6-.2-.6-.2h0ZM26.4,33.7c-.1,0-.2,0-.2,0,0,0,0,.2-.1.4l-.2,1h-.1s-.7-1.5-.7-1.5h0s-.1.6-.1.6c0,.2,0,.3,0,.4,0,.1,0,.2.2.2h0c0,0-.6,0-.6,0h0c.1,0,.2,0,.2-.2,0,0,0-.2.1-.4v-.5c.2-.2.2-.2.1-.3,0,0,0-.1-.2-.1h0c0,0,.4,0,.4,0l.7,1.3h0v-.5c.2-.2.2-.3.2-.4,0-.1,0-.2-.2-.2h0c0,0,.6,0,.6,0,0,0,0,0,0,0ZM30.8,33.6c-.1,0-.2,0-.2.2,0,0,0,.2,0,.4v.2c0,.3,0,.5,0,.7-.1.1-.3.2-.4.2-.1,0-.3,0-.4,0-.2,0-.3-.3-.3-.5v-.6c-.1-.2-.2-.2-.3-.2h0c0,0,.7-.2.7-.2h0c-.2.1-.2.1-.2.4v.5c.1.4.3.6.6.5.3,0,.4-.3.3-.7v-.2c0-.1,0-.2-.1-.4,0,0,0-.1-.3-.1h0c0,0,.6-.2.6-.2,0,0,0,0,0,0ZM32.5,33c-.1,0-.2,0-.1.2,0,0,0,.2.1.4l.3.9h0s-1.4-.8-1.4-.8h0s.2.6.2.6c0,.2.1.3.1.4,0,.1.1.1.3,0h0c0,0-.6.3-.6.3h0c.1-.1.2-.2.1-.3,0-.1,0-.3-.1-.4l-.2-.5c0-.2,0-.2-.1-.2,0,0-.1,0-.2,0h0c0,0,.4-.2.4-.2l1.3.8h0s-.2-.5-.2-.5c0-.2-.1-.3-.1-.4,0,0-.1-.1-.3,0h0c0,0,.6-.3.6-.3h0ZM33.3,34.3h0c.2-.2.2-.2,0-.4l-.4-.9c0-.2-.1-.2-.3-.1h0c0,0,.6-.4.6-.4h0c-.2.2-.2.2,0,.4l.4.9c0,.2.1.2.3.1h0c0,0-.6.4-.6.4ZM34.9,31.6c-.1.1-.1.1-.1.4,0,.2.2.8.3,1.3h0c-.4-.2-.8-.5-1.1-.8-.2-.1-.2-.1-.3,0h0c0,0,.6-.4.6-.4h0c-.1.2-.1.2,0,.3.2.1.6.4.8.6h0c0-.4-.2-.7-.2-1,0-.2,0-.2-.2,0h0c0,0,.5-.4.5-.4,0,0,0,0,0,0ZM36.7,31.5c0,0,.2.3.2.4l-.9.8h0c.1-.2.2-.2,0-.4l-.6-.7c-.1-.2-.2-.2-.3,0h0c0,0,.9-.8.9-.8l.3.3h0c0,0-.1,0-.2,0,0,0-.1,0-.2.1h-.1c0,.2,0,.2,0,.2l.4.4h.1c.2-.3.2-.3,0-.4h0c0,0,.3.3.3.3h0c-.1,0-.2,0-.3,0h-.1c0,.1.3.5.3.5,0,0,.1.1.2.1,0,0,.1,0,.2-.1.1,0,.2-.2.2-.2s0-.2,0-.3h0s0,0,0,0ZM37,30.6c0,0,.1-.2.1-.2,0-.1,0-.2-.1-.3-.2-.2-.4-.1-.5,0,0,0,0,0,0,.1s0,0,0,0l.5.4s0,0,0,0ZM38.2,30.4s0,0,0,0c-.2.2-.3.2-.5.2-.1,0-.3,0-.4,0,0,0-.1,0-.2,0h0s.3.3.3.3c.2.1.2.1.3,0h0c0,0-.5.6-.5.6h0c.1-.2.1-.2,0-.4l-.7-.6c-.2-.1-.2-.1-.3,0h0c0,0,.4-.6.4-.6.1-.2.2-.2.3-.3.1,0,.3,0,.4,0,.2.1.2.3.1.5,0,0,.3,0,.4,0,.2,0,.2,0,.3,0,0,0,.1,0,.2,0,0,0,0,0,0,0ZM37.9,28.7c-.2,0-.4,0-.5,0,0,.1,0,.3,0,.3,0,0,0,0,0,0,.1,0,.2,0,.5,0,.2-.1.4-.2.7,0,.2.2.3.5,0,.8,0,0,0,.1-.2.2,0,0,0,0-.1,0-.1,0-.3,0-.4-.2h0c.2,0,.5,0,.6-.2,0-.1,0-.3,0-.4-.1,0-.3,0-.5,0-.2.1-.4.2-.6,0-.2-.1-.3-.4,0-.7,0,0,.1-.2.2-.2,0,0,.2,0,.3.1h0c0,0,0,0,0,0ZM39.2,28.9h0c0-.2,0-.2-.1-.3l-.9-.4c-.2,0-.2,0-.3,0h0s.3-.7.3-.7h0c0,.2,0,.2.1.3l.9.4c.2,0,.2,0,.3,0h0s-.3.7-.3.7h0ZM39,26.2c-.1,0-.2,0-.3,0,0,0,0,0-.2.2h0c0,.1,1.1.5,1.1.5.2,0,.2,0,.3-.1h0s-.3.8-.3.8h0c0-.2,0-.3-.1-.3l-1.1-.4h0c0,.3,0,.3,0,.4,0,0,0,.1.2.2h0c-.2,0-.3,0-.4-.1h0c0,0,0,0,.1-.2l.3-.9c0,0,0,0,0-.2h0c0,0,.3,0,.4,0,0,0,0,0,0,0ZM39.1,24.3c0,.2,0,.2.1.3.1.1.2.2.4.4,0,0,0,0,.2,0h.3c.2.1.2,0,.3-.1h0s-.2.8-.2.8h0c0-.2,0-.3-.2-.3h-.3c0,0,0,0-.1,0-.2,0-.3,0-.6.2-.2,0-.2,0-.3.2h0s.1-.7.1-.7h0c0,.2,0,.2.1.2.2,0,.4-.1.6-.2-.1-.1-.3-.3-.5-.4,0,0-.1,0-.2.1h0s.1-.6.1-.6h0s0,0,0,0Z"/>
      <path class="cls-3" d="M27.9,13h0s7.2,9.4,7.2,9.4l-.4.4c-.1.1-3,2.8-7.8,1.3h0s0,0,0,0c0,0-2.8-.9-4.8-.6l-.5.7c1.3,0,3.3,0,5.4.6,3.1,1,6.7,0,7.9-1.2l.5-.6.4.6,1.3,1.8.3.5-.4.4c-.2.2-4.2,3.9-10.7,1.9,0,0-3.5-1.1-6.9,0,1.8,3,5,4.8,8.5,4.8,5.5,0,10-4.5,10-10s-4.5-10-10-10ZM37.9,32.7c-2.6,2.6-6.1,4.1-9.8,4.1-3.7,0-7.2-1.5-9.8-4.1-2.6-2.6-4.1-6.1-4.1-9.8,0-3.7,1.4-7.2,4.1-9.8,2.6-2.6,6.1-4.1,9.8-4.1,3.7,0,7.2,1.4,9.8,4.1,2.6,2.6,4.1,6.1,4.1,9.8,0,3.7-1.4,7.2-4.1,9.8h0ZM38,12.9c-2.6-2.6-6.2-4.1-9.9-4.1-3.7,0-7.3,1.5-9.9,4.1-2.6,2.6-4.1,6.2-4.1,9.9,0,3.7,1.5,7.3,4.1,9.9,2.6,2.6,6.2,4.1,9.9,4.1,3.7,0,7.3-1.5,9.9-4.1,2.6-2.6,4.1-6.2,4.1-9.9,0-3.7-1.5-7.3-4.1-9.9h0ZM28,36.1c-7.3,0-13.2-5.9-13.2-13.2s5.9-13.2,13.2-13.2,13.2,5.9,13.2,13.2-5.9,13.2-13.2,13.2ZM28,9.3c-7.5,0-13.6,6.1-13.6,13.6s6.1,13.6,13.6,13.6,13.6-6.1,13.6-13.6-6.1-13.6-13.6-13.6ZM26.7,27c4.7,1.4,7.9-.4,9.1-1.3l-.5-.7c-1.9,1.5-5.6,2.1-8.7,1-3.1-1-6.2-.4-6.2-.3l-1.5.4,2.2-3.4v-.2c.1,0,.4,0,.4,0,2.3-.6,5.6.5,5.7.6,3.1,1,5.2,0,6.1-.7l-5.5-7.2-4.4,6.4s-.1,0-.8,0c-.6,0-.8.1-.8.1l5.5-8,.4-.6c-5.4.1-9.8,4.5-9.8,10s.3,2.8.8,4c3.7-1.2,7.7,0,7.9,0Z"/>
      <path class="cls-3" d="M19.5,14.3s0,0,0,0c0,0,0,0,0,0,0,0,0,0,0,0,0,0,0,0,0,0,0,0,0,0,0,0,0,0,0,0,0,0h0s0,0,0,0c0,0,0,0,0,0h0s0,0,0,0c0,0,0,0,0,0,0,0,0,0,0,0h0s0,0,0,0h0s0,0,0,0c0,0,0,0,0,0h0s0,0,0,0h0s0,0,0,0h0s0,0,0,0c0,0,0,0,0,0h0s0,0,0,0c0,0,0,0,0,0h0s0,0,0,.1c0,0,0,0,0,0,0,0,0,0,0,0h0s0,0,0,0c0,0,0,0,0,0h0s0,0,0,0c0,0,0,0,0,0h0s0,0,0,0h0s0,0,0,0h0s0,0,0,0h0s0,0,0,0h0s0,0,0,0t0,0h0c0,0,0,0,0,0,0,0,0,0,0,0h0s0,0,0,0c0,0,0,0,0,0,0,0,0,0,0,0,0,0,0,0,0,0t0,0s0,0,0,0h0s0,0,0,0h0s0,0,0,0c0,0,0,0,0,0h0s0,0,0,0c0,0,0,0,0,0h0s0,0,0,0c0,0,0,0,0,0,0,0,0,0,0,0h0s0,0,0,0c0,0,0,0,0,0t0,0h0s0,0,0,0c0,0,0,0,0,0,0,0,0,0,0,0,0,0,0,0,0,0h0s0-.1,0-.1c0,0,0,0,0,0,0,0,0-.1.1-.2,0,0,0,0,0,0,0,0,0,0,0-.1h0s0,0,0,0h0s0,0,0,0h0s0,0,0,0c0,0,0,0,0,0,0,0,0,0,0-.1,0,0,0,0,0,0,0,0,0,0,0,0,0,0,0,0,0,0h0c0,0,0-.1,0-.1,0,0,0,0,0,0,0,0,0,0,0,0h0s0,0,0,0c0,0,0,0,0,.1,0,0,0,0,0,0h0s0,0,0,0h0s0,0,0,0h0s0,0,0,0h0s0,0,0,0h0q0,0,0,0s0,0,0,0c0,0,0,0,0,0h0s0,0,0,0h0s0,0,0,0c0,0,0,0,0,0,0,0,0,0,0,0h0s0,0,0,0c0,0,0,0,0,0h0s0,0,0,0c0,0,0,0,0,0,0,0,0,0,0,0,0,0,0,0,0,0h0s0,0,0,0h0s0,0,0,.1h0s0,0,0,0h0s0,0,0,0c0,0,0,0,0,0,0,0,0,0,0,0,0,0,0,0,0,0,0,0,0,0,0,0h0s0,0,0,0h0s0,0,0,0h0s0,0,0,0c0,0,0,0,0,0,0,0,0,0,0,0,0,0,0,0,0,0h0s0,0,0,0h0s0,0,0,0c0,0,0,0,0,0,0,0,0,0,0,0,0,0,0,0,0,0,0,0,0,0,0,0,0,0,0,0,0,0,0,0,0,0,0,0,0,0,0,0,0,0h0s0,0,0,0c0,0,0,0,0,0h0s0,0,0,0h0s0,0,0,0h0s0,0,0,0h0s0,0,0,0h0s0,0,0,0c0,0,0,0,0,0,0,0,0,0,0,0h0s0,0,0,0c0,0,0,0,.1-.1,0,0,0,0,0,0,0,0,0,0,0,0h0s0,0,0,0c0,0,0,0,0,0,0,0,0,0,0,0,0,0,0,0,0,0,0,0,0,0,0,0,0,0,0,0,0,0h0s0,0,0,0c0,0,0,0,0,0,0,0,0-.1,0-.1,0,0,0,0,0,0,0,0,0,0,0,0,0,0,0,0,0,0,0,0,0,0,0,0,0,0,0,0,0,0h0s0,0,0,0h0s0,0,0,0c0,0,0,0,0,0h0s0,0,0,0c0,0,0,0,0,0,0,0,0,0,0,0h0s0,0,0,0h0s0,0,0,0h0s0,0,0,0h0s0,0,0,0h0s0,0,0,0c0,0,0,0,0,0,0,0,0,0,0,0,0,0,0,0,0,0,0,0,0,0,0,0h0s0,0,0,0c0,0,0,0,0,0h0s0,0,0,0h0s0,0,0,0c0,0,0,0,0,0,0,0,0,0,0,0,0,0,0,0,0,0,0,0,0,0,0,0,0,0,0,0,0,0,0,0,0,0,0,0,0,0,0-.1,0-.2h0s0,0,0,0h0s0,0,0,0c0,0,0,0,0,0h0s0,0,0,0h0s0-.1,0-.1c0,0,0,0,0,0,0,0,0,0,0,0,0,0,0,0,0,0h0c0-.1,0-.3-.1-.3h0ZM18.3,15.9s0,0,0,0c0,0,0,0,0,0,0,0,0,0,0,0h0s0,0,0,0c0,0,0,0,0,0,0,0,0,0,0,0h0s0,0,0,0c0,0,0,0,0,0h0s0,0,0,0c0,0,0,0,0,0h0s0,0,0,0t0,0h0s0,0,0,0c0,0,0,0,0,0,0,0,0,0,0,0h0s0,0,0,0c0,0,0,0,0,0,0,0,0,0,0,0,0,0,0,0,0,0,0,0,0,0,0,0h0s0,0,0,0h0s0,0,0,0c0,0,0,.2.1.3,0,0,0,0,0,.2,0,0,0,0,0,0t0,0s0,0,0,0c0,0,0,0,0,0,0,0,0,0,0,0h0c0,0,0,0,0,.1h0s0,0,0,0c0,0,0,0,0,0,0,0,0,0,0,0,0,0,0,0,0,0h0s0,0,0,0c0,0,0,0,0,0h0s0,0,0,0c0,0,0,0,0,0h0s0,0,0,0h0s0,0,0,0c0,0,0,0,0,0h0s0,0,0,0c0,0,0,0,0,0h0s0,0,0,0c0,0,0,0,0,0,0,0,0,0,0,0h0c0,0,0,0,0,0h0c0,0,0,0,0-.1,0,0,0,0,0,0,0,0,0,0,0,0,0,0,0,0,0,0,0,0,0,0,0,0,0,0,0,0,0,0,0,0,0,0,0,0h0s0,0,0,0h0s0,0,0,0h0s0,0,0,0c0,0,0,0,0,0t0,0h0s0,0,0,0c0,0,0,0,0,0h0s0,0,0,0h0c0,0,0,0,0,0h0s0,0,0,0h0s0,0,0,0h0s0,0,0,0c0,0,0,0,0,0,0,0,0,0,0,0h0c0,0,0,0,0,.1,0,0,0,0,0,0,0,0,0,0,0,0,0,0,0,0,0-.1,0,0,0,0,0,0,0,0,0,0,0,0,0,0,0,0,0,0,0,0,0,0,0,0,0,0,0-.1,0-.2,0,0,0,0,0,0,0,0,0,0,0-.1h0s0,0,0,0c0,0,0-.1,0-.1,0,0,0,0,0,0,0,0,0,0,0,0,0,0,0,0,0,0h0ZM18.3,15.6s0,0,0,0c0,0,0,0,0,0h0s0,0,0,0c0,0,0,0,0,0,0,0,0,0,0,0h0s0,0,0,0h0s0,0,0,0c0,0,0,0,0,0h0c0-.1,0-.2,0-.3,0,0,0,0,0,0,0,0,0,0,0,0,0,0,0,0,0,0,0,0,0,0,0,0,0,0,0,0,0,0t0,0s0,0,0,0c0,0,0,0,0,0h0s0,0,0,0h0s0,0,0,0c0,0,0,0,0,0,0,0,0,0,0,0h0s0,0,0,0c0,0,0,0,0,0,0,0,0,0,0,0h0s0,0,0,0h0s0,0,0,0c0,0,0,0,0,0,0,0,0,0,0,0,0,0,0,0,0,0h0s0,0,0,0h0s0,0,0,0c0,0,0,0,0,0h0s0,0,0,0c0,0,0,0,0,0,0,0,0,0,0,0,0,0,0,0,0,0,0,0,0,0,0,0,0,0,0,0,0,.1,0,0,0,0,0,0h0s0,0,0,0c0,0,0,0,0,.1,0,0,0,0,0,0h0s0,0,0,0h0s0,0,0,0c0,0,0,0,0,0h0s0,0,0,0h0s0,0,0,0h0s0,0,0,0h0s0,0,0,0c0,0,0,0,0,0h0s0,0,0,0c0,0,0,0,0,0,0,0,0,0,0,0,0,0,0,0,0,0h0s0,0,0,0c0,0,0-.1,0-.1ZM23.6,12.7h0s0,0,0,0h0s0,0,0,0c0,0,0,0,0,0h0s0,0,0,0h0s0,0,0,0h0s0,0,0,0h0s0,0,0,0c0,0,0,0,0,0t0,0h0s0,0,0,0c0,0,0,0,0,0h0s0,0,0,0c0,0,0,0,0,0t0,0h0s0,0,0,0h0s0,0,0,0h0s0,0,0,0h0s0,0,0,0c0,0,0,0,0,0h0s0,0,0,0c0,0,0,0,0,0h0s0,0,0,0h0s0,0,0,0c0,0,0,0,0,0,0,0,0,0,0,0,0,0,0,0,0,0,0,0,0,0,0,0,0,0,0,0,0,0,0,0,0,0,0,0,0,0,0-.1,0-.2h0s0,0,0,0h0s0,0,0,0h0s0,0,0,0c0,0,0,0,0,0h0s0,0,0,0c0,0,0,0,0,0h0c0,0,0,0,0-.1,0,0,0,0,0,0,0,0,0,0,0,0,0,0,0,0,0,0ZM24.9,11.5s0,0,0,0h0s0,0,0,0h0s0,0,0,0c0,0,0,0,0,0h0s0,0,0,0c0,0,0,0,0,0,0,0,0,0,0,0h0s0,0,0,0h0s0,0,0,0c0,0,0,0,0,0,0,0,0,0,0,0t0,0h0s0,0,0,0h0s0,0,0,0c0,0,0,0,0,0,0,0,0,0,0,0h0s0,0,0,0h0s0,0,0,0h0s0,0,0,0h0s0,0,0,0h0s0,0,0,0h0s0,0,0,0h0s0,0,0,0h0s0,0,0,0h0s0,0,0,0h0s0,0,0,0h0s0,0,0,0h0s0,0,0,0c0,0,0,0,0,0,0,0,0,0,0,0,0,0,0,0,0,0,0,0,0,0,0,0,0,0,0,0,0,0h0s0,0,0,0c0,0,0,0,0,0h0c0,0,0,0,0,0,0,0,0,0,0,0h0s0,0,0,0h0s0,0,0,0c0,0,0,0,0,0h0s0,0,0,0c0,0,0,0,0,0,0,0,0,0,0,0,0,0,0-.1,0-.2,0,0,0,0,0,0,0,0,0,0,0,0h0s0,0,0,0c0,0,0,0,0,0,0,0,0,0,0,0h0s0,0,0,0c0,0,0,0,0,0,0,0,0,0,0,0,0,0,0,0,0,0h0s0,0,0,0c0,0,0,0,0,0h0s0,0,0,0c0,0,0,0,0,0,0,0,0,0,0,0,0,0,0,0,0,0h0s0,0,0,0h0s0,0,0,0c0,0,0,0,0,.1,0,0,0,0,0,0h0s0,0,0,0c0,0,0,.2,0,.2h0c0,0,0,.1,0,.2,0,0,0,0,0,0,0,0,0,0,0,0,0,0,0,0,0,0h0s0,0,0,0h0s0,0,0,0h0s0,0,0,0c0,0,0,0,0,0h0s0,0,0,0c0,0,0,0,0,0h0s0,0,0,0h0s0,0,0,0c0,0,0,0,0,0h0s0,0,0,0c0,0,0,0,0,0h0s0,0,0,0h0s0,0,0,0c0,0,0,0,0,0,0,0,0,0,0,0h0s0,0,0,0c0,0,0,0,0,0h0s0,0,0,0c0,0,0,0,0,0h0s0,0,0,0h0s0,0,0,0c0,0,0,0,0,0h0s0,0,0,0c0,0,0,0,0,0h0s0,0,0,0c0,0,0,0,0,0,0,0,0,0,0,0h0s0,0,0,0c0,0,0,0,0,0t0,0h0s0,0,0,0h0s0,0,0,0h0s0,0,0,0h0s0,0,0,0h0s0,0,0,0c0,0,0,0,0,0h0s0,0,0,0c0,0,0,0,0,0,0,0,0,0,0,0,0,0,0,0,0,0h0s0,0,0,0c0,0,0,0,0,0,0,0,0,0,0,0h0s0,0,0,0h0s0,0,0,0c0,0,0,0,0,0,0,0,0,0,0,0h0s0,0,.1,0t0,0h0s0,0,0,0h0s0,0,0,0c0,0,0,0,0,0,0,0,0,0,0,0h0s0,0,0,0c0,0,0,0,0,0,0,0,0,0,0,0,0,0,0,0,0,0h0s0,0,0,0c0,0,0,0,0,0h0s0,0,0,0h0s0,0,0,0c0,0,.1-.1.1-.2,0,0,0,0,0,0h0s0,0,0,0c0,0,0,0,0,0h0s0,0,0,0t0,0s0,0,0,0c0,0,0,0,0,0,0,0,0,0,0,0h0s0,0,0,0c0,0,0,0,0,0h0s0,0,0,0c0,0,0,0,0,0h0s0,0,0,0c0,0,0,0,0,0,0,0,0,0,0,0h0s0,0,0,0h0s0,0,0,0h0s0,0,0,0h0s0,0,0,0c0,0,0,0,0,0h0c0,0,0,0,0,0,0,0,0,0,0,0,0,0,0,0,0,0,0,0,0,0,0,0,0,0,0,0,0,0,0,0,0,0,0,0,0,0,0,0,0,0h0c0,0,0,.1,0,.1h0s0,0,0,0h0s0,0,0,0h0s0,0,0,0c0,0,0,0,0,0,0,0,0,0,0,0,0,0,0,0,0,0,0,0,0,0,0,0h0s0,0,0,0c0,0,0,0,0,0,0,0,0,0,0,0,0,0,0,0,0,0,0,0,0,0,0,0,0,0,0,0,0,0,0,0,0,0,0,0,0,0,0,0,0,0h0s0,0,0,0h0s0,0,0,0h0s0,0,0,0c0,0,0,0,0,0,0,0,0,0,0,.1,0,0,0,0,0,0h0s0,0,0,0c0,0,0,0,0,0,0,0,0,0,0,0h0s0,0,0,0c0,0,0,0,0,0,0,0,0,0,0,0h0s0,0,0,0h0s0,0,0,0c0,0,0,0,0,0,0,0,0,0,0,0h0c0,0,0,0,0-.1h0c0,0,0,0,0-.1,0,0,0,0,0,0h0c0,0,0-.1,0-.1h0s0,0,0,0h0s0,0,0,0c0,0,0,0,0,0,0,0,0,0,0,0,0,0,0,0,0,0,0,0,0,0,0,0,0,0,0,0,0,0,0,0,0,0,0,0h0s0,0,0,0c0,0,0,0,0,0h0s0,0,0,0c0,0,0,0,0,0h0s0,0,0,0h0s0,0,0,0h0s0,0,0,0c0,0,0,0,0,0,0,0,0,0,0,0,0,0,0,0,0,0h0s0,0,0,0c0,0,0,0,0,0,0,0,0,0,0,0,0,0,0,0,0,0h0s0,0,0,0c0,0,0,0,0,0t0,0s0,0,0,0h0s0,0,0,0c0,0,0,0,0,0h0s0,0,0,0c0,0,0,0,0,0,0,0,0,0,0,0,0,0,0,0,.1-.1,0,0,0,0,0,0h0s0,0,0,0h0s0,0,0,0h0s0,0,.1-.1c0,0,0,0,0,0,0,0,0,0,0,0s0,0,0,0c0,0,0,0,0,0,0,0,0,0,0,0h0s0,0,0,0c0,0,0,0,0,0h0s0,0,0,0c0,0,0,0,0,0,0,0,0,0,0,0,0,0,0,0,0,0h0s0,0,0,0c0,0,0,0,0,0h0s0,0,0,.1c0,0,0,0,0,0h0s0,0,0,0h0s0,.2,0,.2h0s0,0,0,0h0c0,.1,0,.2,0,.3,0,0,0,.1,0,.2,0,0,0,0,0,0,0,0,0,0,0,0h0s0,0,0,0c0,0,0,0,0,0,0,0,0,0,0,0,0,0,0,0,0,0,0,0,0,0,0,0h0s0,0,0,0c0,0,0,0,0,0,0,0,0,0,0,0,0,0,0,0,0,0,0,0,0,0,0,0h0s0,0,0,0c0,0,0,0,0,0,0,0,.1,0,.2,0,0,0,0,0,0,0,0,0,0,0,0,0,0,0,0,0,0-.1,0,0,0,0,0,0h0c0,0,0-.1,0-.2s0,0,0,0c0,0,0-.1,0-.2h0s0,0,0,0h0,0s0,0,0,0c0,0,0,0,0,0,0,0,0,0,0,0,0,0,0-.2,0-.2,0,0,0,0,0,0h0c0-.1,0,0,0-.1h0ZM31.5,11.5s0,0,0,0h0s0,0,0,0c0,0,0,0,0,0h0s0,0,0,0c0,0,0,0,0,0,0,0,0,0,0,0,0,0,0,0,0,0h0s0,0,0,0h0s0,0,0,0h0s0,0,0,0c0,0,0,0,0,0,0,0,0,0,0,0,0,0,0,0,0,0h0s0,0,0,0c0,0,0,0,0,0h0s0,0,0,0c0,0,0,0,0,0h0s0,0,0,0t0,0h0s0,0,0,0c0,0,0,0,0,0,0,0,0,0,0,0,0,0,0,0,0,0h0s0,0,0,0c0,0,0,0,0,0h0s0,0,0,0h0s0,0,0,0h0s0,0,0,0h0s0,0,0,0c0,0,0,0,0,0,0,0,0,0,0,0,0,0,0,0,0,0,0,0,0,0,0,0,0,0,0-.1,0-.2h0s0,0,0,0h0s0,0,0,0c0,0,0,0,0-.1,0,0,0,0,0-.1h0s0,0,0,0c0,0,0,0,0,0h0s0,0,0,0h0s0,0,0,0h0s0,0,0,0h0s0,0,0,0c0,0,0,0,0,0,0,0,0,0,0,0,0,0,0,0,0,0,0,0,0,0,0,0,0,0,0,.1,0,.2,0,0,0,0,0,0,0,0,0,0,0,0,0,0,0,0,0,0,0,0,0,0,0,0,0,0,0,0,0,0,0,0,0,0,0,0h0c0,0,0,0,0,0,0,0,0,0,0,0h0s0,0,0,0c0,0,0,0,0,0h0s0,0,0,0c0,0,0,0,0,0,0,0,0,0,0,0h0s0,0,0,0h0s0,0,0,0h0s0,0,0,0c0,0,0,0,0,0h0s0,0,0,0h0s0,0,0,0h0s0,0,0,0c0,0,0,0,0,0h0s0,0,0,0c0,0,0,0,0,0h0s0,0,0,0h0s0,0,0,0c0,0,0,0,0,0h0s0,0,0,0c0,0,0,0,0,0,0,0,0,0,0,0h0s0,0,0,0c0,0,0,0,0,0,0,0,0,0,0,0,0,0,0,0,.1,0h0s0,0,0,0c0,0,0,0,0,0,0,0,0,0,0,0h0s0,0,0,0h0s0,0,0,0h0s0,0,0,0c0,0,0,0,0,0h0s0,0,0,0h0s0,0,0,0h0s0,0,0,0c0,0,0,0,0,0,0,0,0,0,0,0,0,0,0,0,0,0h0s0,0,0,0c0,0,0,0,0,0h0s0,0,0,0t0,0s0,0,0,0c0,0,0,0,0,0,0,0,0,0,0,0h0s0,0,0,0h0s0,0,0,0h0c0,0,0,0,0,0h0q0,0,0,0s0,0,0,0h0s0,0,0,0h0s0,0,0,0h0s0,0,0,0c0,0,0,0,0,0,0,0,0,0,0,0,0,0,0,0,0,0h0s0,0,0,0c0,0,.1,0,.2,0,0,0,0,0,0,0h0s0,0,0,0c0,0,0,0,0,0,0,0,0,0,0,0,0,0,0,0,0,0h0s0,0,0,0h0s0,0,0,0h0s0,0,0,0h0s0,0,0,0c0,0,0,0,0,0s0,0,0,0c0,0,0,0,0,0,0,0,0,0,0,0h0s0,0,0,0c0,0,0,0,0,0h0s0,0,0,0c0,0,0,0,0,0,0,0,0,0,0,0,0,0,0,0,0,0,0,0,0,0,0,0,0,0,0,0,0,0,0,0,0,0,0,0,0,0,0,0,0,0,0,0,0,0,0,0,0,0,0-.1,0-.1,0,0,.1,0,.1,0,0,0,.1,0,.2,0h0ZM31.7,12.4s0,0,0,0c0,0,0,0,0,0,0,0,0,0,0,0,0,0,0,0,0,0h0s0,0,0,0c0,0,0,0,0,0,0,0,0,0,0,0,0,0,0,0,0,0,0,0,0,0,0,0,0,0,0,0,0,0,0,0,0,0,0,0,0,0,0,0,0,0h0s0,0,0,0c0,0,0,0,0,0,0,0,0,0,0,0,0,0,0,0,.1.1h0s0,0,0,0c0,0,0,0,0,0h0s0,0,0,0h0s0,0,0,0c0,0,0,0,0,0,0,0,0,0,0,0h0s0,0,0,0c0,0,0,0,0,0,0,0,0,0,0,0h0s0,0,0,0c0,0,0,0,0-.1ZM35.6,15.5s0,0,0,0h0s0,0,0-.1c0,0,0-.1,0-.1h0s0,0,0,0c0,0,0,0,.1,0,0,0,0,0,0,0,0,0,0,0,0,0h0s0,0,0,0c0,0,0,0,0,0h0s0,0,0,0c0,0,0,0,0,0ZM35.8,15.6h0s0,0,0,0h0s0,0,0,0c0,0,0,0,0,0,0,0,0,0,0,0,0,0,0,0,0,0,0,0,0,0,0-.1h0s0,0,0,0c0,0,0,0,0,0,0,0,0,0,0,0,0,0,0,0,0,0h0s0,0,0,0c0,0,0,0,0,0,0,0,0,0,0,0,0,0,0,0,0,0,0,0,0,0,0,0,0,0,0,0,0,0,0,0,0,0,0,0,0,0,0,0,0,0h0s0,0,0,0h0s0,0,0,0h0s0,0,0,0h0s0,0,0,0c0,0,0,0,0-.1h0s0,0,0,0c0,0,0,0,0,0,0,0,0,0,0,0,0,0,0,0,0,0h0s0,0,0,0h0s0,0,0,0h0s0,0,0,0h0s0,0,0,0c0,0,0,0,0,0,0,0,0,0,0,0,0,0,0,0,0,0,0,0,0,0,0,0h0s0,0,0,0h0s0,0,0,0c0,0,0,0,0,0h0s0,0,0,0c0,0,0,0,0,0h0s0,0,0,0c0,0,0,0,0,0,0,0,0,0,0,0,0,0,0,0,0,0h0s0,0,0,0c0,0,0,0,0,0,0,0,0,0,0,0h0s0,0,.1,0c0,0,0,0,0,0,0,0,0,0,0,0s0,0,0,0c0,0,0,0,0,0,0,0,0,0,0,0,0,0,0,0,0,0h0s0,0,0,0h0s0,0,0,0h0s0,0,0,0h0s0,0,0,0h0s0,0,0,0h0s0,0,0,0h0s0,0,0,0h0s0,0,0,0c0,0,0,0,0,0h0s0,0,0,0h0s0,0,0,0c0,0,0,0,0,0,0,0,.1,0,.1,0h0s0,0,0,0h0s0,0,0,0h0s0,0,0,0h0s0,0,0,0h0s0,0,0,0h0s0,0,0,0c0,0,0,0,0,0,0,0,0,0,0,0,0,0,0,0,0,0h0s0,0,0,0h0s0,0,0,0h0s0,0,0,0c0,0,0,0,0,0h0s0,0,0,0h0s0,0,0,0h0s0,0,0,0h0s0,0,0,0c0,0,0,0,0,0,0,0,0,0,0,0h0s0,0,0,0c0,0,0,0,0,0h0s0,0,0,0c0,0,0,0,0,0,0,0,0,0,0,0h0s0,0,0,0c0,0,0,0,0,0h0s0,0,0,0h0s0,0,0,0c0,0,0,0,0,0,0,0,0,0,0,0,0,0,0,0,0,0,0,0,0,0,0,0,0,0,.1,0,.1,0h0s0,0,0,0h0s0,0,0,0c0,0,0,0,0,0,0,0,0,0,0,0h0s0,0,0,0c0,0,0,0,0,0h0s0,0,0,0h0s0,0,0,0h0s0,0,0,0c0,0,0,0,0,0h0s0,0,0,0h0s0,0,0,0c0,0,0,0,0,0h0s0,0,0,0h0s0,0,0,0h0s0,0,0,0c0,0,0,0,0,0h0s0,0,0,0c0,0,0,0,0,0,0,0,0,0,0,0h0s0,0,0,0c0,0,0,0,0,0h0s0,0,0,0h0s0,0,0,0c0,0,0,0,0,0h0s0,0,0,0h0s0,0,0,0h0s0,0,0,0c0,0,0,0,0,0,0,0,0,0,0,0h0s0,0,0,0h0s0,0,0,0h0s0,0,0,0h0s0,0,0,0c0,0,0,0,0,0,0,0,0,0,0,0,0,0,0,0,0,0,0,0,0,0,0,0,0,0,0,0,0,0h0s0,0,0,0h0s0,0,0,0h0s0,0,0,0h0s0,0,0,0c0,0,0,0,0,0,0,0,0,0,0,0,0,0,0,0,0,0h0s0,0,0,0c0,0,0,0,0,0h0s0,0,0,0c0,0,0,0,0,0h0s0,0,0,0c0,0,0,0,0,0h0s0,0,0,0c0,0,0,0,0,0,0,0,0,0,0,0h0s0,0,0,0h0s0,0,0,0c0,0,0,0,0,0t0,0h0s0,0,0,0c0,0,0,0,0,0,0,0,0,0,0,0,0,0,0,0,0,0h0s0,0,0,0h0s0,0,0,0c0,0,0,0,0,0,0,0,0,0,0,0,0,0,0,0,0,0h0s0,0,0,0h0s0,0,0,0h0s0,0,0,0h0s0,0,0,0c0,0,0,0,0,0h0s0,0,0,0h0s0,0,0,0c0,0,0,0,0,0,0,0,0,0,0,0h0c0,0,0,0,0,0h0s0,0,0,0h0s0,0,0,0c0,0,0,0,0,0,0,0,0,0,0,0,0,0,0,0,0,0,0,0,0,0,0,0,0,0,0,0,0,0,0,0,0,0,0,0,0,0,0,0,0,0,0,0,0,0,0,0h0s0,0,0,0c0,0,0,0,0,0,0,0,0,0,0,0,0,0,0,0,0,0,0,0,0,0,0,0h0s0,0,0,0c0,0,0,0,0,0h0s0,0,0,0h0s0,0,0,0c0,0,0,0,0,0,0,0,0,0,0,0h0s0,0,0,0c0,0,0,0,0,0h0s0,0,0,0c0,0,0,0,0,0,0,0,0,0,0,0,0,0,0,0,0,0,0,0,0,0,0,0,0,0,0,0,0,0h0s0,0,0,0c0,0,0,0,0,0,0,0,0,0,0,0h0s0,0,0,0h0s0,0,0,0c0,0-.1,0-.2,0,0,0,0,0,0,0h0c0,0-.1,0-.2,0h0s0,0,0,0c0,0,0,0,0,0,0,0,0,0,0,0h0s0,0,0,0h0s0,0,0,0c0,0,0,0,0,0h0s0,0,0,0h0s0,0,0,0c0,0,0,0,0,0h0s0,0,0,0c0,0,0,0,0,0h0s0,0,0,0h0s0,0,0,0h0s0,0,0,0h0s0,0,0,0h0s0,0,0,0t0,0h0s0,0,0,0c0,0,0,0,0,0,0,0,0,0,0,0h0s0,0,0,0h0s0,0,0,0c0,0,0,0,0,0h0s0,0,0,0c0,0,0,0,0,0h0s0,0,0,0h0s0,0,0,0c0,0,0,0,0,0t0,0h0s0,0,0,0h0s0,0,0,0h0s0,0,0,0c0,0,0,0,0,0h0s0,0,0,0c0,0,0,0,0,0,0,0,0,0,0,0,0,0,0,0,0,0,0,0,0,0,0,0,0,0,0,0,0,0,0,0,0,0,0,0,0,0,0,0,0,0,0,0,0,0,0,0h0s0,0,0,0c0,0,0,0,0,0h0s0,0,0,0c0,0,0,0,0,0h0s0,0,0,0c0,0-.1.1-.1.1,0,0,0,0-.1,0,0,0,0,0,0,0h0s0,0,0,0h0c0,0-.1,0-.2,0,0,0,0,0,0,0h0s0,0,0,0h0s0,0,0,0c0,0,0,0,0,0,0,0,0,0,0,0,0,0,0,0,0,0,0,0,0,0,0,0h0c0,0,0,.1,0,.1,0,0,0,0,0,0,0,0,0,0,0,.1h0s0,0,0,0c0,0,0,0,0,0h0c0,0,.1.1.2.1,0,0,0,0,0,0,0,0,0,0,.1,0,0,0,0,0,0,0h0ZM36.5,14.1h0s0,0,0,0c0,0,0,0,0,0,0,0,0,0,0,0h0s0,0,0,0h0s0,0,0,0h0s0,0,0,0c0,0,0,0,0,0h0s0,0,0,0h0s0,0,0,0h0s0,0,0,0h0s0,0,0,0h0s0,0,0,0h0s0,0,0,0h0s0,0,0,0c0,0,0,0,0,0h0s0,0,0,0h0s0,0,0,0h0s0,0,0,0c0,0,0,0,0,0h0,0s0,0,0,0h0s0,0,0,0c0,0,0,0,0,0,0,0,0,0,0,0,0,0,0,0,0,0h0s0,0,0,0c0,0,0,0,0,0s0,0,0,0c0,0,0,0,0,0h0s0,0,0,0h0s0,0,0,0h0s0,0,0,0c0,0,0,0,0,0h0s0,0,0,.1c0,0,0,0,0,0,0,0,0,0,0,0,0,0,0,0,0,.1h0s0,0,0,0h0s0,0,0,0c0,0,0,0,0,0h0s0,0,.1,0h0s0,0,0,0h0s0,0,0,0h0s0,0,0,0c0,0,0,0,0,0h0s0,0,0,0h.1s0,0,0,0c0,0,0,0,0,0,0,0,0,0,0,0,0,0,0,0,0,0,0,0,0,0,0,0,0,0,0,0,0,0h0s0,0,0,0c0,0,0,0,0,0h0Z"/>
    </g>
  </g>
</svg>