<?xml version="1.0" encoding="UTF-8"?>
<svg xmlns="http://www.w3.org/2000/svg" version="1.1" viewBox="0 0 128 36.9">
  <defs>
    <style>
      .cls-1 {
        fill: #fff;
      }

      .cls-1, .cls-2, .cls-3 {
        fill-rule: evenodd;
      }

      .cls-2 {
        fill: #231916;
      }

      .cls-3 {
        fill: #0073bd;
      }
    </style>
  </defs>
  <!-- Generator: Adobe Illustrator 28.7.1, SVG Export Plug-In . SVG Version: 1.2.0 Build 142)  -->
  <g>
    <g id="_图层_1" data-name="图层_1">
      <g>
        <path class="cls-1" d="M24.9,29.3c5.9,0,10.8-4.8,10.8-10.8s-4.8-10.8-10.8-10.8-10.8,4.8-10.8,10.8,4.8,10.8,10.8,10.8Z"/>
        <path class="cls-3" d="M14,18.5c0-6,4.9-10.9,10.9-10.9s10.9,4.9,10.9,10.9-4.9,10.9-10.9,10.9-10.9-4.9-10.9-10.9ZM24.9,7.8c-5.9,0-10.7,4.8-10.7,10.7s4.8,10.7,10.7,10.7,10.7-4.8,10.7-10.7-4.8-10.7-10.7-10.7Z"/>
        <path class="cls-3" d="M15.5,18.9c.1,0,.2,0,.2-.2,0,0,0,0,0,0-.2,0-.6,0-.9,0,0,0,0-.1,0-.2.2,0,.5,0,.7,0,0,0,.1,0,.2,0,0,0,0,0,0,0,0,0,.1,0,.1,0,0,0,.1.3,0,.4,0,0,0,.1-.2.2,0,0,0,0,0,0,0,0,0,0,0,0,0,0,0-.1,0-.2h0ZM16.3,18.5c0-4.7,3.8-8.5,8.5-8.5s8.5,3.8,8.5,8.5-3.8,8.5-8.5,8.5-8.5-3.8-8.5-8.5ZM24.9,10.1c-4.6,0-8.4,3.8-8.4,8.4s3.8,8.4,8.4,8.4,8.4-3.8,8.4-8.4-3.8-8.4-8.4-8.4Z"/>
        <path class="cls-3" d="M27.4,12.3s0,.1,0,.2c0,.8,0,1.7,0,2.6v5.5c0,.9,0,1.8,0,2.7-.5,0-1.1,0-1.6,0,0,0,0,0,0,0,0,0,0-.2-.1-.3-.1-.3-.3-.7-.4-1,0-.1-.1-.2-.1-.3,0,0,0-.1,0-.2,0-.2-.1-.3-.2-.5,0,0,0-.1,0-.2,0,0,0-.1,0-.2,0,0,0,.2,0,.3,0,.8,0,1.7,0,2.5-.5,0-1.2,0-1.7,0s-.2,0-.2,0c0-3.4,0-6.9,0-10.3,0-.2,0-.4,0-.7,0,0,.1,0,.2,0,.5,0,1.1,0,1.4,0,0,0,0,.1,0,.2,0,.2.1.3.2.5,0,0,0,.2.1.3,0,0,0,0,0,.1,0,0,0,.2.1.3,0,.1,0,.2.2.3,0,.1,0,.2.1.4,0,.2.1.3.2.5,0,0,0,.2,0,.1,0,0,0-.2,0-.3,0-.8,0-1.5,0-2.3,0,0,0-.1,0-.1,0,0,.1,0,.2,0,.5,0,1.1,0,1.7,0ZM21.9,13.8c0,.8,0,1.7,0,2.4-.2,0-.4,0-.5,0,0,0,0,0-.1.1,0,0,0,.2,0,.3v2.1c0,.2,0,.3,0,.4.1.1.6,0,.8,0,0,0,0,.2,0,.3,0,.7,0,1.4,0,2.1-.7,0-1.4,0-2.1,0s-.3,0-.4,0c-.2,0-.4-.2-.5-.4,0-.1,0-.3,0-.5v-6.1c0-.2,0-.3,0-.5,0-.1,0-.2.2-.3,0,0,.2-.1.3-.1,0,0,0,0,.1,0,.4,0,.7,0,1.1,0s.7,0,1.1,0ZM26,25.5s0,0-.1,0c0,0,0,0,0,.1,0,0,0,.1,0,.1,0,0-.2,0-.2,0,0,0,0,0,0-.1,0,0,0,0,0-.1-.1,0-.3,0-.5,0,0,0,0,0-.1,0,0,0,0-.1,0-.2,0,0,0,0,0,0,0,0,0,0,0,0,0,0,0,0,0,0,0,0,0,0,0-.1,0,0,.2-.2.3-.3,0,0,0,0,.1-.1,0,0,0,0,.1,0,.2,0,.2,0,.3.2,0,.1,0,.3,0,.4,0,0,0,.1,0,.1,0,0,0,0,0,0,0,0,0,0,0,.1,0,0,0,0,0,0ZM25.5,24.8s0,0,0,0c0,0,0,0,0,0,0,0-.1.1-.2.2.1,0,.2,0,.3,0,0,0,0,0,0-.1,0,0,0,0,0,0,0,0,0-.1,0-.2h0ZM27.2,24.8c0,.1,0,.4,0,.6,0,0,0,0,0,0,0,0,0,.1,0,.2,0,0-.1.1-.2.2-.2,0-.3,0-.5,0,0,0,0,0-.1,0,0,0,0,0,0,0,0,0,0,0,0-.1,0,0,0,0,0,0,0,0,0,0,0,0,0,0,0-.1,0-.2,0,0,0-.2,0-.2,0,0,0,0,0,0,0,0,0,0,0,0,0,0,0,0,0-.1,0,0,0,0,0,0,0,0,.1-.1.2-.1,0,0,0,0,.1,0,0,0,.2,0,.2,0,0,0,0,0,0,0,0,0,0,0,.1,0,0,0,0,.1.1.1h0ZM26.7,24.8c0,0-.1.4,0,.5,0,0,0,.2.1.2,0,0,0,0,.1,0,0,0,0,0,0,0,0-.1,0-.3,0-.4,0,0,0,0,0,0,0,0,0,0,0-.1,0,0,0,0-.1,0,0,0,0,0,0,0,0,0,0,0,0,0h0ZM23.6,25.1c0,0,0-.2,0-.3,0,0,.1-.2.2-.2,0,0,.2,0,.3,0,.1,0,.2,0,.3.1,0,0,0,0,0,0,0,.1.1.3.1.5,0,.1,0,.2,0,.3,0,0,0,.2-.2.2,0,0,0,0,0,0-.1,0-.3,0-.5,0,0,0,0,0,0,0,0,0,0,0,0,0,0,0,0,0,0,0,0-.1,0-.2.2-.2,0,0,0,0,.1,0,0,0,0,0,.1,0,.1,0,.1,0,.2-.2,0,0,0-.1,0-.1,0,0,0,0-.1,0,0,0-.1,0-.2,0,0,0-.1,0-.2,0,0,0-.1,0-.2-.2ZM24,24.8c0,0,0,.1,0,.2,0,.2.4.1.3,0,0,0,0,0,0,0,0,0-.2,0-.3,0ZM23.2,24.5c0,0,0,.2,0,.3,0,.1,0,.3,0,.5s0,.3,0,.4c0,0-.2,0-.2,0,0,0,0,0,0-.1,0-.2,0-.4,0-.6,0,0-.2,0-.3,0,0,0,0-.2,0-.2,0,0,0,0,0,0,0,0,0,0,.1,0,0,0,.1-.3.3-.2h0ZM16.4,13.4c0,0,0,.1-.1.2-.1,0-.2,0-.2,0,0,0,0,0,0,.1,0,.2,0,.3.2.4.1,0,.3.2.5,0,0,0,.1-.1.2-.2,0,0,0,0,0,0,0,0,0,0,0,0,0,0,0,0-.1,0,0,0,0,.1-.1.2,0,0-.1,0-.1,0,0,0,0,0,0-.1,0,0,0-.1,0-.1,0,0,0,0,0,0,0,0,0,0,0,0,0,0,0,0,0,0,.1,0,.3.1.4.2,0,.2-.2.4-.2.5,0,0,0,0,0,0,0,0,0,0,0,0,0,0-.2,0-.3,0,0,0,0,0,0,0,0,0,0,0-.1,0,0,0,0,0,0,0,0,0,0,0,0,0,0,0,0,0,0,0,0,0,0,0,0,0,0,0,0,0,0,0,0,0,0,0,0,0,0,0-.1-.2,0-.3,0,0,0-.1,0-.2,0,0,0,0,0,0,0,0,.2-.2.3-.2,0,0,.1,0,.2,0ZM16.5,15c0,.1,0,.2-.1.3-.1,0-.3,0-.5,0,0,0,0,0-.2,0,0,0-.1,0-.2,0,0,0-.2,0-.2,0,0,0,0,0,0,0,0,0,0,0,0,0,0,0,0,0,0,0,0,0,0,0,.1,0,0,0,.2,0,.3.1,0,0,.1,0,.2,0,0,0,0,.1,0,.2,0,0-.2,0-.2,0,0,0-.1,0-.2,0-.2,0-.4-.1-.6-.2,0-.1,0-.2,0-.3.1,0,.3,0,.5,0,0,0,.1,0,.2,0,0,0,.1,0,.2,0,0,0,.1,0,.1,0,0,0-.2,0-.2,0,0,0-.2,0-.2,0,0,0-.1,0-.2,0,0,0,0,0,0,0,0,0,0,0,0,0,0,0,0,0,0,0,0,0,0,0,0,0,0,0,0,0,0,0,0,0,0,0,0,0,0,0,0,0,0,0,0,0,0,0,0,0,0,0,0,0,0,0,0,0,0,0,0,0,0,0,.1,0,.2,0,0,0,0,0,0,0,0,0,0,0,0,0,0,0,0,0,0,0,0,0,0,0,.1,0,0,0,0,0,0,0,0,0,0,0,0,0,0,0,0,0,.1,0,0,0,0,0,0,0ZM16,16.3s0,0,0,0c0,0,0,0,0,.1,0,0-.1,0-.2,0,0,0,0,.2,0,.3,0,0,0,0,0,.2,0,0,.2,0,.2.1,0,0,0,0,0,0,0,0,0,0,0,0-.3-.2-.6-.3-.9-.5,0,0,0,0-.1,0,0,0,0-.2,0-.2,0,0,.2,0,.3,0,0,0,0,0,0,0,.1,0,.3,0,.4,0,.1,0,.2,0,.3,0ZM15.4,16.6s0,0-.1,0c0,0,0,0,0,0,0,0,0,0,0,0,0,0,0,0,0,0,0,0,.1,0,.2.1,0,0,0,0,.1,0,0,0,0,0,0-.1,0,0,0-.1,0-.2,0,0-.1,0-.2,0ZM15.8,17.7c0,0,0,.1,0,.2-.2,0-.4,0-.6,0-.2,0-.4,0-.5,0,0,0,0-.2,0-.2,0,0,0,0,0,0,.2,0,.3,0,.5,0,0,0,.2,0,.3,0,0,0,.2,0,.2,0ZM26.7,8.4s0,0,0,.1c0,0,0,0,0,.1,0,0,0,0,0,0,0,0,0,0,0,.1,0,0,0,.2,0,.2,0,0,0,.1,0,.2,0,0,0,0,0,0,0,0,.1,0,.2,0,0,0,0,0,0,0,0,0,.2,0,.2,0,0,0,0,0,0,.2,0,0-.1,0-.1,0,0,0,0,0-.1,0,0,0,0,0,0,0,0,0-.1,0-.2,0,0,0-.2,0-.2,0,0,0,0-.2,0-.3,0-.2,0-.4.1-.6,0,0,0-.2,0-.2,0,0,.1,0,.2,0ZM29,9.5s0,0,0,0c0,0,0,0,0,0,0,0,0,0,0,.1,0,0-.1.2,0,.3,0,0,.2.1.3.1.2,0,.2-.1.3-.2,0,0,0-.2.1-.2,0,0,0-.1.1-.2,0,0,0,0,0-.1,0,0,0,0,0,0,0,0,0,0,0,0,0,.1,0,.2-.1.3,0,0,0,0,0,0,0,0,0,.2-.1.2,0,0,0,0,0,0,0,0,0,.1-.1.2-.1.1-.4,0-.6,0,0,0-.1-.1-.2-.2,0,0,0-.2,0-.2,0,0,0,0,0,0s0,0,0,0c0,0,0,0,0,0,0,0,0,0,0,0,0,0,0-.1,0-.2,0,0,0,0,0,0,0,0,0,0,0-.1,0,0,0-.1,0-.2,0,0,0,0,0,0,0,0,.2,0,.2,0,0,0,0,0,0,.1,0,0,0,0,0,0,0,0,0,0,0,.1ZM30.5,11s0,0,0,0c.1-.2.3-.3.4-.5,0,0,0,0,0,0,0,0,0,0,0,0,0,0,0,0,0,0,0,0,0,0,0,0,0,0,0,0,0,0,0,0,0,0,0,0-.1.1-.2.3-.4.5,0,0,0,0,0,0,0,0,0,0,0,0,0,0,0,0,0,0,0,0,0,0,0,0,0,0,0,0,0,0,0,0,0,0,0,0,0,0,0-.2,0-.3,0,0,0,0,0,0,0,0,0,0,0-.1,0,0,0,0,0,0,0,0,0,0,0,0,0,0,0,0,0,0,0,0,0,0,0,0,0,0,0-.2,0-.2,0,0,0,0,0,0,0,0,0,0-.1.1,0,.1-.2.2-.3.4,0,0,0,0,0,.1,0,0,0,0,0,0s0,0,0,0c0,0,0,0,0,0,0-.1.1-.2.2-.2,0,0,0,0,.1-.1.1-.1.3-.4.4-.5,0,0,.1,0,.2,0,0,0,0,0,0,0,0,0,0,0,0,0,0,0,0,0,0,.1,0,0,0,0,0,.1,0,0,0,.2,0,.3,0,0,0,0,0,0,0,0,0,0,0,.1,0,0,0,0,0,0,0,0,0,.1,0,.2ZM30.9,11.6c0,0,.1-.1.2-.2l.6-.6s.2.1.2.1c0,0,0,0,0,.1-.2.2-.4.4-.6.6,0,0,0,0-.1,0,0,0,0,0,0,0,0,0,0,0,0,0ZM24.4,8.2c0,.1,0,.3,0,.4,0,.1,0,.2,0,.3,0,0,0,0,0,0,0,.1,0,.2,0,.3,0,0-.2,0-.2,0,0-.1,0-.2,0-.3,0,0,0,0,0,0,0,0,0-.2,0-.3,0,0,0,0,0-.1,0,0,0,0,0-.1,0,0,0,0,0,.1,0,0,0,0,0,0,0,0,0,0,0,0,0,0,0,0,0,0,0,0,0,0,0,.1,0,0,0,0,0,0,0,0,0,0,0,.1,0,0,0,0,0,0,0,0,0,0,0,0,0,0,0,0,0,.1,0,0-.1,0-.2,0,0,0,0-.1,0-.2,0-.2-.2-.4-.2-.6,0,0,0,0,0,0,0,0,0-.1,0-.1,0,0,0,.1,0,.2,0,0,0,0,0,0,0,.1,0,.3,0,.4,0,0,0,0,0,.1,0,0,0,.1,0,.2,0,0-.1,0-.2,0,0,0,0-.1,0-.2,0,0,0-.1,0-.2,0,0,0,0,0-.2,0,0,0-.2,0-.3,0,0,0,0,0,0,0,0,0-.2,0-.3,0,0,0,0,0,0,0,0,.2,0,.3,0,0,.1,0,.2.1.3,0,0,0,0,0,0,0,0,0,0,0,0,0,0,0,0,0,0,0,0,0,.1,0,.2,0,0,0,0,0,0,0,0,0,0,0,.1,0,0,0,0,0-.1,0,0,0,0,0,0,0,0,0,0,0,0,0,0,0,0,0-.1,0-.1,0-.3,0-.4.1,0,.2,0,.4,0ZM25.9,9.4s-.1,0-.2,0c0,0,0,0,0-.1,0,0,0-.1-.1-.1,0,0,0,0,0,0,0,0-.2,0-.2,0,0,0,0,0,0,0,0,0,0,.1,0,.2,0,0-.1,0-.2,0,0,0,0-.2.1-.3,0-.1.1-.3.2-.4,0,0,0-.2.1-.3,0,0,0-.1,0-.1,0,0,.2,0,.2,0,0,0,0,.2,0,.2,0,0,0,.1,0,.2,0,0,0,.1,0,.2,0,0,0,0,0,0,0,0,0,0,0,0,0,0,0,0,0,0,0,0,0,0,0,0,0,0,0,.2,0,.3h0ZM25.6,8.8c0,0,0-.2,0-.2,0,0,0-.1,0,0,0,0,0,0,0,0,0,0,0,.2,0,.2,0,0,0,0,0,0,0,0,0,0,0,0,0,0,0,0,0,.1,0,0,.2,0,.3,0,0,0,0-.1,0-.2h0ZM22.5,9.1s0,0,.1,0c0,0,0,0,0,0,0,0,0,0,0,0,0,0,0,.1,0,.2,0,0,0,0,0,0,0,0,0,0-.1,0,0,0,0,0-.1,0,0,0,0-.2-.1-.3,0-.1-.2,0-.3,0,0,0,0,0,0,.2,0,0,0,0,0,0,0,0,0,0,0,0,0,0,0,.1,0,.2,0,0-.1,0-.2,0,0-.2,0-.4-.1-.5,0-.2-.1-.4-.1-.5,0,0,.1,0,.2,0,0,0,0,0,0,0,0,0,0,0,0,0,0,0,0,0,0,0,0,0,0,0,.1,0,0,0,0,0,0,0,.1,0,.1,0,.2,0,0,0,0,.2,0,.3,0,0,0,0-.1.1ZM22.4,9.1s0,0,0-.1c0,0,0-.2,0-.2-.1,0-.2,0-.3,0,0,0,0,0,0,0,0,0,0,.1,0,.2,0,0,0,0,0,0,.1,0,.2,0,.3,0ZM20.5,9.3s0,0,0,0c0,0,0,0,0,0,0,0,0,0,0,0,0,0,0,0,0,0,0,0,0,0,0,0,0,0,.2,0,.2,0,0,0,0,0,0,0,0,0,0,0,.1,0,0,0,.1.1.2.2,0,0,0,0,0,0,0,0,0,0,0,0,0,0,0,0,0,0,0,0,0,0,0,0,0,0,0,0,0,0,0,.1,0,.4,0,.5,0,0,0,0,0,0,0,0-.1,0-.2.1-.1,0-.3,0-.4,0,0,0-.1,0-.2-.1,0,0-.1-.1-.1-.2,0,0,0,0,0,0,0,0,0,0,0,0,0,0,0-.1,0-.2,0,0,0,0,0,0,0,0,0,0,0,0,0,0,0,0,0,0ZM21.1,9.3c0,0-.2,0-.3,0-.1,0-.2.2-.2.4,0,0,0,0,0,0,0,0,0,.1,0,.2,0,0,.2.2.3.2,0,0,.2,0,.2-.1,0-.2,0-.5-.2-.6ZM20.2,10.7s0,0-.1,0c0,0-.1,0-.2-.1,0,0-.1,0-.2,0,0,0,0,0,0,0,0,0,0,0-.1,0,0,0,0,0-.1,0,0,0,0,0,0,0,0,0-.1,0-.2-.1,0,0,0,0,0,.1,0,0,0,0,0,0,0,0,0,0,0,0,0,0,0,0,0,0,0,0,0,0,0,0,0,0,0,0,0,0,0,0,0,0,0,0s0,0,0,0c0,.1.1.2.2.3,0,0-.1,0-.2.1-.1-.1-.2-.3-.3-.4,0,0-.1-.2-.2-.2,0,0-.1-.2-.1-.3,0,0,0,0,0,0,0,0,.2-.1.2-.2.1,0,.3.2.4.2,0,0,0,0,0,0,0,0,.2.1.3.2,0,0,0,0,.1,0,0,0,0,0,0,0,0,0,0,0,0,0,0,0,0,0,0-.1,0,0-.1-.2-.2-.3,0,0-.1-.1-.1-.2,0,0,0,0,.1,0,0,0,0,0,0,0,0,0,0,0,0,0,0,0,0,0,0,0,0,0,0,0,0,0,0,0,0,0,0,.1,0,0,0,0,0,0,0,0,0,0,0,0,0,.2.2.3.3.5.1,0,0,.1-.1.1ZM18.3,12.2s0,0,0,0c0,0,0,0,0,0,0,0,0,0,0,0,0,0,0,0,0,0,0,0-.2-.2-.3-.3-.1,0-.2-.2-.3-.2,0,0-.1,0-.1-.1,0,0,0,0,0,0,0,0,0,0,0,0,0,0,0,0,.1,0s0,0,0,0c.2.2.4.4.6.5,0,0,0,0,0,0,0,0,0,0,0,0,0,0,0,0,0,0h0ZM17.9,12.6c0,0,0,.1-.1.2-.1,0-.2,0-.3,0,0,0-.1,0-.2,0,0,0,0,.2,0,.2,0,0,0,0,0,0,0,0,0,0,0,.1,0,0,0,0,0,.1,0,0,0,0,0,0,0,0,0-.1,0-.2,0,0,0,0,0,0,0,0,0,0,0-.1,0,0,0-.1,0-.2,0,0,0-.1,0-.1-.2,0-.4,0-.6,0,0,0,0-.1.1-.2.1,0,.2,0,.3,0,0,0,.1,0,.2,0,0,0,0-.1,0-.2,0,0,0,0,0,0,0,0,0,0,0,0,0,0,0-.1.1-.2,0,0,0,0,0,0,0,0,0,0,0,.1,0,0,0,0,0,0,0,0,0,0,0,0,0,0,0,0,0,0,0,0,0,0,0,0,0,0,0,.1,0,.2,0,0,0,.1,0,.1.2,0,.5,0,.7,0ZM27.7,19.3c0,0,.1,0,.2,0,0,0,.1,0,.2,0,.1,0,.3,0,.4,0,0,0,0,0,0,0,0,0,0,0,0,0,0,0,0-.3,0-.4,0-.7,0-1.4,0-2.1s0-.4,0-.4c-.1,0-.3,0-.5,0,0-.2,0-.4,0-.5,0-.6,0-1.2,0-1.8,0,0,0,0,0-.1.5,0,1.1,0,1.7,0s.5,0,.7,0c0,0,.2,0,.2.2,0,0,0,0,0,0,0,0,0,0,0,0,0,0,0,0,0,.1,0,0,0,.1,0,.2,0,.2,0,.4,0,.7,0,.5,0,.9,0,1.3,0,1.5,0,2.9,0,4.4s0,.3,0,.4c0,0,0,0,0,0,0,0,0,0,0,0,0,0,0,0,0,0,0,0,0,0,0,0,0,0,0,0-.1,0,0,0-.2,0-.3,0-.3,0-.5,0-.8,0-.6,0-1.1,0-1.6,0,0,0,0,0,0-.1,0-.5,0-1.1,0-1.7s0-.4,0-.6h0ZM31.8,12.2s.1,0,.2,0c0,0,0,0,.1,0,0,0,0,0,0,0,0,0,0,0,.1,0,0,0,0,0,0,0,0,0,0,0,.1,0,0,0,0,0,.1,0,0,0,0,0,0,0,0,0,0,0,0,0,0,0,0,0,0,0,0,0,0,0-.2,0,0,0,0,0-.1,0,0,0-.2,0-.3.1,0,0,0,0,0,0,0,0-.1,0-.2,0,0,0,0,0,0,0,0,0,0,0,0,0,0,0-.1,0-.2,0,0,0,0,0-.1-.1,0,0,0,0,0,0,0,0,0,0,0,0,0,0,0,0,0-.1,0,0,0-.1,0-.2,0,0,0,0,0,0,0,0,0,0,0,0,0,0,0,0,0-.1,0-.1.1-.3.2-.4,0,0,0,0,0,0,0,0,0,0,0,0,0,0,.2.2.1.2,0,0,0,0,0,0,0,0,0,.1,0,.2,0,0,0,.2-.1.2,0,0,0,0,0,0,0,0,0,0,0,.2ZM33.6,13.1s0,0-.1,0c0,0,0,0,0-.1,0,0,0-.1-.1-.2,0,0,0-.1-.1-.1,0,0,0,0,0,0,0,0-.1,0-.1,0,0,0,0,.1,0,.2,0,0,0,.1.1.2,0,0,0,0,0,0,0,0,0,0,0,0,0,0,0,0-.1,0,0,0-.1-.1-.1-.2,0,0,0,0,0,0,0,0,0,0,0,0,0,0,0,0-.1,0,0,0,0,.1,0,.2,0,0,0,0,0,0,0,0,0,0,0,0,0,0,0,0,0,0,0,0,0,0,0,0,0,0,0,0,0,0,0,0,0,0,0,0,0,0,0,0,0,0,0,0,0,0-.1,0,0,0,0,0,0-.1,0,0,0,0,0-.1,0,0,0,0,0,0,0,0,0,0,0,0,0,0,0,0,0,0,0,0,0,0,.1,0,0,0,.2-.1.3-.2,0,0,0,0,0,0,.1,0,.3-.2.4-.3,0,0,0,0,.1,0,0,0,0,0,0,0,0,.1.1.2.2.3,0,0,.1.2.2.3ZM33.9,13.6c0,0,0,0,0,.1,0,0,0,0,0,0,0,0,0,0,0,0,0,0,0,0,0,0,0,0,0,0,0,0,0,0,0,0,0,0s0,0,0,0h0c0,.2,0,.2,0,.2s0,0,0,0c0,0,0,.1,0,.1,0,0,0,0,0,0,0,0-.1,0-.2,0,0,0,0-.1-.2,0,0,0,0,0,0,0,0,0,0,.1-.2.2,0,0,0,0,0,0,0,0,0,0,0,0,0,0,0,0,0,0,0,0,0,0-.1,0,0,0,0,0,0-.1,0,0,0,0,0,0,0,0,0,0,.1-.1,0,0,.2,0,.2-.1,0,0,0,0,0-.1,0,0,0-.1-.1-.2,0,0-.1,0-.2,0,0,0-.1,0-.2,0,0,0,0,0,0-.1,0,0,0,0,0,0,.2,0,.4-.2.5-.3,0,0,0,0,0,0,0,0,0,0,0,0,.1,0,.3-.1.4-.2,0,0,0,0,0,0ZM33.7,14.3c0,0,.2,0,.2,0,0,0,0-.1,0-.2,0,0,0-.1,0-.2,0,0,0,0,0,0,0,0-.2,0-.2.1,0,.1,0,.2.1.3ZM34.4,15.7s0,0,0,0c0,0,0-.1,0-.1,0,0,0-.1,0-.2,0-.1-.1-.2-.3-.1,0,0,0,.1,0,.3,0,.2,0,.4-.1.5,0,0-.2,0-.3,0,0,0-.2-.1-.2-.2,0,0,0-.1,0-.2,0,0,0,0,0-.1,0,0,0,0,0,0,0,0,0,0,0,0,0,0,0,0,0-.1,0,0,0,0,.1,0,0,0,0,0,0,0,0,0,0,0,0,0,0,0,0,0,0,0,0,0,0,.1,0,.2,0,0,0,0,0,0,0,0,0,0,0,0,0,0,.1.1.2,0,.1,0,0-.4,0-.6,0,0,0-.1.1-.1,0,0,.2,0,.3,0,.1,0,.3.4.2.6,0,0,0,0,0,0,0,0,0,0-.1,0h0ZM34.8,16.2s0,0,0,0c0,0,0,0,0,.1-.1,0-.3,0-.4,0,0,0,0,0,0,0,0,0,0,0-.1,0,0,0,0,0,0,0,0,0,0,0-.1,0,0,0,0,0,0,0,0,0,0,0-.1,0,0,0,0,0-.1,0,0,0,0-.2,0-.2,0,0,0,0,0,0,0,0,.1,0,.2,0,0,0,.2,0,.3,0,0,0,0,0,.1,0,0,0,0,0,0,0,0,0,0,0,.1,0,0,0,0,0,0,0,0,0,.1,0,.2,0ZM35,16.9c0,.2,0,.3,0,.4,0,0,0,.2,0,.2,0,0,0,.1,0,.2,0,0,0,0-.2,0,0-.1,0-.2,0-.3-.2,0-.4,0-.7,0,0,0-.2,0-.3,0,0,0,0-.1,0-.2,0,0,.2,0,.2,0,0,0,0,0,.1,0,0,0,.1,0,.2,0,0,0,.1,0,.2,0,0,0,.1,0,.2,0s0-.1,0-.2c0,0,0-.1,0-.2,0,0,.1,0,.2,0h0ZM35.1,18.2s0,.1,0,.2c0,0,0,0,0,0,0,0,0,0,0,0,0,0,0,0-.1,0,0,0-.1,0-.2,0,0,0,0,0-.1,0,0,0,0,0,0,0,.1,0,.3.2.4.2,0,0,0,.2,0,.2-.2,0-.3-.2-.5-.3,0,0,0,0,0,0,0,0,0,0,0,0,0,0,0,0,0,0,0,0-.2,0-.3,0,0,0,0,0-.1,0,0,0,0-.1,0-.2.1,0,.3,0,.4,0,0,0,.1,0,.2,0,0,0,0,0,0,0,0,0,0,0,0,0,0,0,0,0,0,0,0,0,0,0,0,0,0,0,.1,0,.2,0,0,0,0,0,.1,0h0ZM17.5,23.6c0,0,0,.1-.1.1-.1,0-.2-.1-.2-.2,0,0,0,0,0,0,0,0,0,0,.1,0,0,0,0,0,.1,0,0,0,0,.1,0,.2ZM16.9,23.8s0,0-.1,0c0,0-.1,0-.2-.1,0,0,0-.2,0-.2,0,0,0,0,.1,0,0,0,0,0,0,.2h0ZM16.4,23.9c0,0,.1,0,.2,0,0,0,.1,0,.2,0,0,0,0,0,0,0,0,0,0,0,0,0,0,0-.2,0-.2,0,0,0,0,0,0,0,0,0-.1,0-.2.1-.1,0-.2,0-.2-.1,0,0,0-.1.1-.2,0,0,0,0,.2,0ZM17.3,25.1c0,0,0,.1,0,.2,0,0-.1,0-.2,0,0,0-.1-.1-.2-.2,0-.2-.2-.2-.4-.3,0,0-.1-.2,0-.3,0,0,.2,0,.3,0,0,0,0,0,0,0,0,0,0,0,0,.1,0,0,0,.1.2.2,0,0,0,0,.1,0,0,0,.2,0,.2-.2,0,0,0,0-.1-.1,0,0,0-.1,0-.2,0,0,.2,0,.2,0,0,0,.1,0,.2,0,0,0,0,0,0,0,0,0-.1,0-.1-.1,0,0,0-.1,0-.2,0,0,0,0,.2,0,0,0,0,0,.1,0,0,0,0,0,.1.1,0,0,0,0,0,0,0,0,.3.4.2.5,0,0-.2,0-.2,0,0,0,0,0-.1,0,0,0,0,0-.1,0,0,0,0,0,0,0,0,0,0,0,0,.1,0,.1,0,.2,0,.2,0,0,0,0-.1,0,0,0,0,0-.1,0h0ZM19.1,26.5c0,0,.2,0,.3,0,0,0,0,0,.1,0,0,0,0,0,.1,0,0,0,.1,0,.2,0,0,0,0,0,0,0,0,0,0,0,.1,0,0,0,0,0,0,0,0,0,.1,0,.2,0,0,0,.1,0,.1.1,0,0,0,.1.1.2,0,0,.1.2,0,.3,0,0-.2.1-.3.2,0,0,0,0-.1,0,0,0,0,0-.1,0,0,0-.1,0-.2,0-.1,0-.5-.3-.6-.4,0,0,0,0,0-.1,0,0,0,0,0,0,0,0,0,0,0,0,0,0,.1,0,.2,0,0,0,0,0,0,0,0,0,0,0,0,0,0,0-.1,0-.2,0,0,0,0,0,0-.1,0,0,0,0,0,0,0,0-.1,0-.2,0,0,0-.2,0-.2.1,0,0,0,.2,0,.2,0,0-.1,0-.2,0,0-.2,0-.5.1-.6,0,0,.1,0,.2,0,.2,0,.5,0,.7,0,0,0-.6-.3-.8-.3,0,0,0-.2,0-.2.7.1,1.3.4,1.8.9,0,0,0,0,0,.1,0,0,0,0,0,.1,0,0-.1,0-.2,0,0,0-.1-.2-.2-.2-.1,0-.3-.2-.4-.2-.2,0-.3-.1-.5-.1-.2,0-.3,0-.5,0,0,0-.1,0-.1,0h0ZM19.6,27c0,0,0,0,.2,0,0,0,.2,0,.2,0,0,0,0,0-.2-.1,0,0-.1,0-.2,0,0,0,0,0,0,.1h0ZM20,27.1c0,0-.1,0-.2,0,0,0-.2,0-.3,0,0,.1,0,.1.2.2,0,0,0,0,0,0,0,0,.1.1.3,0,0,0,0,0,.1,0,0,0,.1,0,.1-.1,0,0,0,0,0,0,0,0,0,0,0,0,0,0,0,0-.1,0,0,0,0,0,0,0ZM23.1,27.3c0,0,.3,0,.3,0,0,0,0,.1,0,.2,0,0,0,0,0,.1,0,0,0,.1,0,.2,0,0,0,0,.1-.1,0,0,0-.1,0-.2,0,0,0-.1.1-.1,0,0,0,0,.1,0,.2,0,.4,0,.7.1,0,0,0,0,0,.1,0,0-.2,0-.2,0,0,0-.2,0-.2,0,0,0,0,.1,0,.2,0,0,.1,0,.2,0,0,0,0,0,.1,0,0,0,0,0,0,0,0,0,0,.2,0,.2,0,0,0,0-.1.1,0,0,0,0,0,0,0,0-.1,0-.2,0,0,0,0,0,0,0,0,0,0,0,0,.2,0,.1,0,.4-.2.4,0,0,0-.5.1-.6,0,0,0-.1,0-.2,0,0,0,0,0-.1,0,0-.1,0-.2,0,0,0,0,0,0,.1,0,0,0,0,0,0,0,0,0,0,0,0,0,0,0,0,0-.1,0,0,0-.2,0-.2,0,0,0,0,0,0,0,0,0,.1-.1.2,0,0,0,0,0,0,0,0,0,0-.1,0-.1,0,0-.1,0-.2,0,0,0,0,.1,0,0,0,0,0,0-.1,0,0-.1,0-.1,0,0,0,0-.1,0-.2,0,0,.1,0,.1,0,0,0,0-.1,0-.2,0,0,0,0-.1,0,0,0,0,0-.1,0-.1.2,0,.3-.1.5,0,0,0,.2,0,.3,0,0,0,0,0,0-.1,0-.1-.4,0-.5,0-.3.1-.6.3-.9,0,0,.2,0,.2.2h0ZM23.4,27.7c0,0,.1-.2.2-.1,0,0,0,0,0,.1,0,0,0,0,0,0,0,0,0,0-.1,0,0,0,0,0,0-.1ZM23.6,27.7s-.1,0-.1,0c0,0,.1,0,.2,0,0,0,0,0,0-.1,0,0,0,0,0,0ZM23.8,28.3s0,0,.1,0c0,0,.1,0,.1-.1,0,0-.1,0-.2,0,0,0,0,.1,0,.2ZM26.9,27.8c-.2,0,.2-.3.1-.4-.1,0-.2,0-.3.1,0,0,0,.2,0,.2,0,0,0,0,0,0,0,0,0,0,0,0,0,0,0,0-.1,0,0,0,0,0,0-.1,0,0,0-.1.2-.2,0,0,0-.1,0-.2,0,0,0-.2,0-.3,0,0,0,0,.1,0,0,0,0,0,0,0,0,0,0,.3,0,.3,0,0,.3-.1.4-.2.1,0,.2-.3.3-.4,0,0,0,0,0,.1,0,.1,0,.2-.2.3-.2,0-.4.4-.5.5Z"/>
        <path class="cls-3" d="M27.7,28.5c0,0,.3-.1.4-.2,0,0,0-.2,0-.2,0,0,0,0,.1,0,0,0,0,0,0,.2-.1.2-.4.5-.8.5,0,0-.2,0-.3-.1,0,0,0-.2,0-.3,0,0,0-.3.1-.3,0,0,.2,0,.2-.1,0,0,0,0,0,0,0,0,0,0,0,0,0,0-.1,0-.2,0,0,0-.1,0-.2.1,0,0,0,0,0,0-.1.2-.2.5-.2.7,0,0,0,.1,0,.2,0,0,0,0-.1,0,0,0,0,0,0-.1,0,0,0,0,0-.1,0,0,0,0-.1-.1,0,0,0-.1,0-.2,0,0,0-.1,0-.2,0,0,0-.1,0-.2,0,0,0-.1.2-.1,0,0,0,.1,0,.1,0,0,0,0-.1.1,0,0,0,0,0,.1,0,0,0,0,0,.1,0,0,0,.3,0,.3,0,0,0,0,0-.1,0-.2.1-.4.2-.5,0-.1.1-.3.2-.4.1,0,.4-.2.5,0,0,0,0,0,0,.1,0,0,0,.1,0,.2,0,0,0,0,0,0,0,0,0,.1-.1.1-.1,0-.3,0-.4.3,0,0,0,0,0,.1,0,0,0,0,0,0,.1,0,.2,0,.3,0h0ZM30.2,25.7s0,.2,0,.2c0,0,0,0,0,0,0,0,0,0,0,0,0,0,0,0,.1-.1,0,0,0,0,.1,0,0,0,0,.1,0,.2,0,0,0,0,0,0,0,.1-.3.2-.3.4,0,0,0,0,0,0,0,.2-.1.7-.2,1,0,0,0,.2-.1.2,0,0-.1,0-.1-.1,0,0,0-.1.1-.2,0,0,0,0,0,0,0-.2,0-.4,0-.5,0,0,0,0,0,0,0,0,0,0-.1.1,0,0,0,0-.1,0-.2,0-.1-.2,0-.3,0,0,0,0,.1,0,0,0,0,0,.1-.1,0,0,0,0,0,0,0,0,0-.2,0-.3,0-.1,0-.3,0-.4,0,0,.2-.1.3,0h0Z"/>
        <path class="cls-3" d="M31.5,26.6s0,0,0,0c0,0,0,.1-.2.1-.1,0-.2,0-.3,0-.2,0-.3,0-.5,0,0,0,0,0-.1,0,0,0,0,0,0,0,0,0,0,0,.1-.1,0,0,.1,0,.2,0,.1,0,.1,0,.2,0,.2,0,.4,0,.5,0,0,0,0,0,0,0,0,0,.1,0,.1,0h0ZM32.4,23.6s0,0,0-.1c0,0,0,0,0,0,0,0,0,0,.1,0,0,0,0,0,.1,0,0,0,0,.1,0,.2,0,0,0,.1-.2.1-.3,0-.7.6-.8.8,0,0,0,0,0,.1,0,0,0,0,0,.1,0,0,0,0,0,.1,0,0,0,0-.1,0,0,0-.1-.1-.1-.2,0,0,0-.1,0-.1,0-.2,0-.3.2-.4.1-.1.4-.4.4-.6,0,0,0-.2,0-.2,0,0,0,0,0,.1,0,0,0,0,0,.1,0,0,0,0,0,0,0,0,0,0,0,0,0,0-.1,0-.2,0,0,0,0,.3-.1.3,0,0,0,0-.1,0,0,0,0,0,0-.2,0,0,0-.1.2-.1,0,0,0,0,0-.1,0,0,0,0,0,0,0,0,0,0,.1-.1,0,0,0,0,0,0,0,0,.1-.1.1-.2,0-.1.2-.2.3-.2,0,0,0,0,0,0,0,0,0,.2,0,.2h0Z"/>
        <path class="cls-3" d="M33.1,24.1c0,0,0,.2,0,.2,0,0-.1.1-.2.2,0,0,0,0,0,0,0,0,0,0,0,0,0,0,0,.1,0,.2,0,0,0,0,0,0,0,.1,0,.3,0,.4,0,0-.2,0-.2,0,0,0,0,0,0,0,0,0,0,0,0-.2,0,0,0,0,0,0,0,0,0-.1-.1,0,0,0,0,0,0,0,0,0-.1.2-.2.3,0,0,0,0,0,0,0,0,0,0,0,0,0,0,.2-.4.2-.4,0,0,0,0,0,0,0,0,0,0-.1-.1-.1,0-.2.3-.3.2,0,0,0-.2,0-.2,0-.1.1-.2.2-.3,0,0,.2-.2.2-.1,0,0,0,0,0,0,0,0,0,0,0,.1,0,0,0,0,0,0,0,0,.1,0,.2,0,0,0,.1-.2.3-.2Z"/>
        <path class="cls-2" d="M43,11.4c.3.3.4.8.1,1.1-.3.6-1.3.5-1.8.3,0,0-.2-.1-.2-.2-.1-.2,0-.7.1-.9,0-.2.6-.4.7-.4.2,0,.8,0,1,.1ZM41.7,14.9c0,.2,0,.6,0,.8-.1.6-.7.4-1.1.3-.3,0-.7-.6-.6-1,0-.2.3-.3.5-.4.4-.1.7,0,1.1.3ZM40.5,17.9c.2-.4.5-.4.9-.7.3-.2.7-.4,1-.7.2-.1.3-.3.4-.2.1.1,0,.3-.2.5,0,0-.5.8-.6,1,0,.1,0,.3,0,.5,0,.4,0,.8,0,1.1-.2.6-.8.9-1.2.6-.3-.3-.3-.7-.3-1.1,0-.4-.1-.6.1-1h0ZM49,17.9c0,.5.6.5.7.9,0,.3,0,.8-.3.9-.4.2-1,0-1.4,0-1-.2-1.8.2-2.7.5-.5.1-1.3,0-1.5-.6.3-.3.8-.8,1.2-.9.2,0,.3,0,.6-.1.3,0,.6,0,.9,0,.4,0,.9,0,1.2-.2.1,0,.5-.3.6-.4.3-.3.2-.9-.2-1.2-.2-.2-.6,0-.9,0-.4,0-.8-.2-.9-.6,0-.4.3-.8.5-1.3,0-.2.4-.7.4-.8-.2-.3-.5,0-.7,0-.3.2-.7.4-1,.1-.4-.2-.5-.6-.6-1,0-.4.2-.5.5-.7.3-.1.4-.2.7-.2.3,0,.7,0,1-.1.2,0,.4,0,.6,0,.5,0,2.6,0,2.6.7,0,.3-.3,1-.7,1.2-.2,0-.5.2-.7.2-.2,0-.6,0-.7.3-.1.2-.1.4,0,.5.1.1.5,0,.7.2.6.2.8.7.7,1.2,0,.3,0,.5-.1.7,0,.2-.2.4-.2.6ZM54.8,16.1c.5,0,1-.3,1.6-.5.2,0,.5,0,.7-.2.2-.1.4-.3.5-.4.2-.2.5-.6.8-.3,0,.1,0,.3,0,.4.1.2.4.1.7,0,.1,0,.2,0,.3,0,.3-.1.6-.4.9-.5.3,0,.7,0,.9.2.3.4.7.4,1.1.4.4,0,1.1.6,1,1.1,0,.6-.6,1.1-1,1.6-.1.2-.3.4-.4.4-.2.2-.4.2-.6.4-.2.2-.3.8-.5.9-.6.4-3.1.2-3.7-.2-.2,0-.3-.3-.4-.4,0-.2,0-.3,0-.4,0-.1.1-.2.2-.3.2-.2.6-.4.8-.6,0,0,.3-.3.4-.4,0,0,0-.1,0-.2-.2-.3-.7.4-1,.3-.2-.1-.4-.3-.5-.6,0-.1,0-.3-.1-.4-.2-.2-.8.1-.9.3-.3.2-.6.7-.5,1,.1.3.5.7.5,1,0,.4-.3.7-.7.5-.9-.4-1.4-2.2-1.1-3,0-.3.2-.6.5-.8.7-.6,2.7-1.1,3.1-1.8-.3-.3-3.4.5-4.2.7-.5.1-1-.6-.6-1,4.4-1.7,8-1.3,10.5-.7.3,0,.5,0,.7.2.1,0,.4.2.5.4.2.4-.4.7-.7.7-.5,0-1-.3-1.6-.4-.8,0-1.7,0-2.5.1-.9.1-1.6.3-2.5.8-.7.4-1.5.6-2.1,1.1-.3.2-.4.4-.3.7h0ZM58.5,17c-.2-.3-.3-.5-.2-.8.2-.1.5-.2.8-.3.4-.2.9-.5,1.1,0,.2.4-.3.6-.8.9-.4.2-.6.4-.9.2ZM60.7,16.6c-.2.2-.5.4-.8.6-.5.2-1.3.3-1.1.9.2.6.8.4,1.3.2,0,0,.1,0,.2,0,.4.1.8.1,1.4-.3.2-.1.3-.3.5-.5.3-.4.5-.6.2-1-.1-.1-.3-.3-.5-.3,0,0-.2,0-.3,0-.3,0-.4,0-.6.1-.2.1-.2.2-.3.4h0ZM69.1,12.7c.5.2,1.5-.6,1.6,0,0,.2,0,.8-.1,1,0,.2-.2.5-.3.7,0,.3,0,.6.3.8.2-.2.3-.6.5-.9.1-.4.3-.7.2-1.2,0-.3.1-.7.4-.8.2-.1.4,0,.6,0,1.2,0,2.3-.4,3.6-.1.2,0,.3.3.2.5-.2.3-.7.6-1.2.7-.2,0-1.1-.3-1.1.2,0,0,.4.8.5.9.2.1.7,0,1.1,0,.3,0,.5.1.8.2.2,0,.4.1.5.4.1.4,0,1.1-.2,1.4,0,.2-.4.5-.6.7-.2.2-.2.2-.4.4-.3.2-.5.6-.9.6-.2,0-.2,0-.3-.1-.2.3-.3.6-.3.9,0,.6,0,1.9-.6,2.2-.4,0-.1-2.9-.1-3.1,0-.3,0-.6,0-.9,0-.2,0-.5,0-.8-.2-.2-.8-.1-1,0-.2.2,0,.5,0,.8,0,.2-.1.3-.2.4,0,.1-.3.2-.5.1-.2-.1-.2-.5-.3-.8,0-.2-.2-.9-.4-.8,0,0-.1.2-.2.4,0,.2-.3.8-.4,1-.1.2-.2.4-.4.6,0,0-.4.4-.5.4-.6.2-.5-.7-.3-1,.1-.2.4-.2.5-.3.2-.2.4-.5,0-.7-.3,0-.6.2-.8,0-.3-.2,0-.7.2-.9.3-.2.5-.3.5-.7,0-.3-.4-.5-.4-.9-.2-.1-.5,0-.7.2-.2.2-.4.3-.5.6-.3,1-.1,1.9,0,2.8,0,.4.2,1,.2,1.4,0,.1-.1.2-.1.3-.8-.2-.9-1.7-.9-2.6,0-1.8-.2-3.5.8-5,.4-.3,1.3-.2,1.3.7h0ZM71.3,14.5c.2-.4.4-1.2.9-.8,0,.3-.1.4-.2.7,0,.1-.1.2-.2.2-.2.2-.3.6-.5.6-.3,0-.1-.5,0-.6ZM72.7,14.3c-.2.2-.5.4-.6.6.1.4.7.2,1,0,0-.2.1-.4,0-.6-.1,0-.4,0-.4,0h0ZM74.1,17c0,.2.5.3.8.2.2-.3.6-.5.5-.9-.1-.4-.7-.3-1.1-.3-.2.2-.3.7-.3,1ZM82.4,15c-.7-.5,1.5-1.3,1.3-1.9-.5,0-1.1.1-1.6.3-.1.4-.2.7-.5.9-.2.2-.3.2-.5,0,0,0,0-.2-.1-.2-.3-.1-.5.3-.7.3-.2,0-.2-.4-.1-.7.1-.3.6-.6,1-.6.3-.2.1-.7.2-1.3,0-.4.3-1,.5-1.2.3-.2.5-.2.6.2,0,.1,0,.3,0,.4,0,.5-.6,1.5-.2,1.7.3.1,1.7-.2,1.9-.4.7-.2,1.6-1.3,2.2-1.3.3,0,.3.5.2.8-.1.6-.6,1.1-1.2,1.2-1.3.2-2.4,1.6-3,1.8Z"/>
        <path class="cls-2" d="M85.4,19.3c.5,0,1.8-.2,2.1-.8.2-.3.3-.7.5-1.1.3,0,.3.3.4.5,0,.3.1.5,0,.9-1,1-2.7,1.8-4.5,1.3-.5-.1-.9-.2-1.2-.9,0-.4,0-.9.1-1.4.2-.4.7-1.2,1.1-1.3.4-.1,1,0,1.3-.4,0,0,0-.2,0-.2,0-.1.1-.2.1-.3-.3-.3-.7-.2-1.1-.1-.3,0-.7.1-1,.3-.1,0-.3.1-.3.2-.7.6-1.7,2.4-2,3.3-.1.3-.1.7-.3.9-.2.1-.4.2-.7,0,0,0-.2-.5-.3-.7,0-.2,0-.3,0-.6,0-.4-.2-.6-.4-.8,0-.4,0-.7.1-1.1.1-.4.2-.6.3-.9.2-.4.3-.5.5-.9.2-.3.6-.4.9-.4.1.2,0,.6-.2.7,0,0-.6.5-.7.5-.1.1-.3.3-.4.6,0,.2.3.4.3.7,0,.3-.3,1.4,0,1.5.3,0,.4-.2.5-.5.5-.9,1.1-1.6,1.6-2.4.3-.5,1-1.3,1.5-1.5.7-.2,2.2-.5,2.5.2,0,.2,0,.4,0,.7-.1.2-.4.4-.4.7,0,.2.2.2.2.4,0,.2-.5.4-.7.5-.7,0-1.8,0-2.1.9,0,.2,0,.4,0,.6,0,.2.2.4.4.5.4.3,1.1.3,1.6.3h0ZM98.8,11.9c0,.2-.5.7-.8.9-.2.1-.2,0-.3.3,0,0,0,.2,0,.2.1.1.7,0,.9,0,.3,0,.4.2.6.4.2.3,0,.7-.3.9-.1.1-.3.3-.4.4-.7.4-2,0-2.4.6-.1.1-.1.3-.2.5-.5.8-2.7,2.6-3.9,3.4-.3.2-.7.5-1.1.2-.2-.2-.3-.7-.2-.9.2-.2.8-.2,1.2-.5.1,0,.3-.2.4-.3.7-.6,1.6-1.5,1.7-2.1,0-.1,0-.1-.2-.1-.3,0-.6,0-.9,0-.2,0-.5,0-.7,0-1-.3,0-1.4.7-1.6.1,0,.6,0,.8,0,.3,0,.6,0,1-.2.1,0,.4-.1.5-.2.3-.2.4-.8.7-1.2.4-.6.9-1.3,1.6-1.5.4-.1,1.4,0,1.3.6Z"/>
        <path class="cls-2" d="M101.7,19.9c0,.1-.2.2-.3.2-.3.1-.7.2-1.2,0-.5-.3-1-.7-1.4-1-.7-.5-1.5-1-2-1.7-.1-.2-.2-.4-.3-.6-.1-.2-.2-.5,0-.6.2-.2.6-.2.8,0,.2.1.6.4.8.6.3.5.5.6,1,.9.8.5,1.7.9,2.4,1.2.1,0,.2.2.3.3.2.3.4.4.2.7ZM111.9,12.9c.1,0,.6,0,.8-.2.1,0,.2,0,.4,0,.2,0,.4,0,.6.2.3.2.4.3.3.7,0,.4-.3.8-.7,1.1-.4.3-.8.1-1.1-.2-1.2-1.1-4.7-.4-6-.2-.2,0-.5,0-.7.3-.2.2-.2.5-.2.8,0,.2-.2.5-.3.6-.2.1-.6.2-.7-.1-.2-.3,0-.8,0-1.1,0-.2.1-.7.2-.9.5-.8,1.4-.6,1.9-.7.9-.1,3.1,0,3.7-.5.3-.2.6-.8.4-1-.2-.2-.6,0-.8,0-.2.2-.2.4-.5.5-.1,0-.3,0-.5,0-.2,0-.3-.2-.4-.3-.2-.3-.5-.2-.7-.4-.7,0-1,1.2-1.7.9-.3-.1-.3-.4-.3-.6,0-.3,0-.6.3-.8.3-.2.8-.2,1.1.2.2,0,.4-.2.6-.3.1,0,.4,0,.5-.1.3,0,.6,0,.8,0,.1,0,.2.2.4.3.3.1.9,0,1.3-.3.5-.3,1.4-.2,1.7.4,0,.1.1.4,0,.5-.1.4-.7.6-.6,1h0Z"/>
        <path class="cls-2" d="M112.7,17.2c.1.4-.5.8-.9.9-.4.1-.8,0-1.2.1-.2,0-.3,0-.4.2,0,0,0,.1,0,.2,0,.3-.1.8-.3,1,0,0-.1.2-.3.4-.4.5-1,1.3-1.7,1.3-.3-.2-.6-.9-.4-1.1.1,0,.3,0,.4,0,.4,0,.6,0,.8-.5,0-.1.2-.3.2-.5,0-.2.1-.6,0-.8,0,0-.2,0-.4,0-.7,0-1.3.3-2,.4-.2,0-.4,0-.6-.2,0-.1,0-.5,0-.6.3-.3,2-.8,2.3-.8.2,0,.3,0,.4,0,.2-.2.1-.6.2-.9-.7-.1-1.6.4-2.1-.3-.3-.4.4-.9.7-.9.8-.2,1.1-.2,1.9-.3.4,0,1.3-.1,1.4.4,0,.2,0,.4,0,.5,0,.2-.2.4-.4.5-.1.1-.3.2-.3.3-.2.5.5.5.8.4.6,0,1.4-.4,1.7.3h0ZM52,25h.3c0,.2,0,.3.1.4,0,0,.2.1.3.1s.2,0,.2,0c0,0,.1,0,.1-.2,0-.1,0-.2,0-.3v-1.9h.4v1.9c0,.2,0,.4,0,.5,0,.1-.1.2-.3.3-.1,0-.3.1-.4,0-.2,0-.4,0-.6-.2-.1-.1-.2-.3-.2-.6h0ZM54.1,23.8h.3v2h-.3v-2h0ZM54.1,23h.3v.4h-.3v-.4h0ZM56.2,24.7c-.1,0-.3,0-.6.1-.1,0-.2,0-.3,0-.1,0-.2.2-.2.4,0,0,0,0,0,.1,0,0,.2,0,.3,0s.2,0,.3,0c0,0,.2-.1.2-.2,0-.1,0-.2,0-.3,0,0,0-.1,0-.1ZM56.2,25.5c-.1,0-.2.2-.4.2-.1,0-.2,0-.4,0-.2,0-.4,0-.5-.2-.1-.1-.2-.3-.2-.4,0-.2,0-.4.2-.5,0,0,.2,0,.2-.1,0,0,.2,0,.3,0,.3,0,.5,0,.6-.1,0,0,0,0,0,0,0-.1,0-.2,0-.3,0,0-.2-.1-.4-.1s-.3,0-.4,0c0,0-.1.2-.2.3h-.3c0-.2,0-.3.1-.4,0,0,.2-.2.3-.2.1,0,.3,0,.5,0s.3,0,.4,0c.1,0,.2,0,.2.2,0,0,0,.1.1.2,0,0,0,.2,0,.3v.4c0,.3,0,.5,0,.6,0,0,0,.2,0,.2h-.4c0,0,0-.2,0-.2ZM57.1,25.7v-2h.3v.3c.1-.2.4-.3.6-.3.1,0,.2,0,.3,0,0,0,.2,0,.2.2,0,0,0,.2.1.2,0,0,0,.2,0,.3v1.2h-.3v-1.2c0-.1,0-.2,0-.3,0,0,0-.1-.1-.2,0,0-.2,0-.2,0-.1,0-.3,0-.4.1-.1,0-.2.3-.2.5v1.1h-.3ZM59.4,24.7c0,.3,0,.5.2.6.1.1.2.2.4.2.2,0,.3,0,.4-.2.1-.1.2-.3.2-.6s0-.4-.2-.6c0-.1-.2-.2-.4-.2-.2,0-.3,0-.4.2-.1.1-.2.3-.2.5ZM59.2,25.9h.3c0,.2,0,.2.1.3.1,0,.2.1.3,0,.2,0,.3,0,.4,0,0,0,.1-.2.2-.3,0,0,0-.2,0-.4-.1.2-.3.3-.6.3-.3,0-.5,0-.6-.3-.2-.2-.2-.5-.2-.7,0-.2,0-.4.1-.5,0-.2.2-.3.3-.4.1,0,.3-.1.5-.1.2,0,.4,0,.6.3v-.2h.3v1.7c0,.3,0,.5,0,.7,0,.1-.2.2-.3.3-.2,0-.3.1-.5.1-.2,0-.4,0-.6-.2s-.2-.3-.2-.5h0ZM61.1,25.7l.7-1-.7-1h.4l.3.5c0,0,.1.2.1.2,0,0,.1-.2.2-.2l.3-.5h.4l-.7.9.7,1.1h-.4l-.4-.6v-.2c-.1,0-.6.8-.6.8h-.4ZM63.3,23.8h.3v2h-.3v-2ZM63.3,23h.3v.4h-.3v-.4h0ZM65.2,25.7v-2.7h.4l1.4,2.2v-2.2h.3v2.7h-.4l-1.4-2.2v2.2h-.3,0ZM68.2,24.8c0,.3,0,.4.2.6s.3.2.4.2c.2,0,.3,0,.4-.2.1-.1.2-.3.2-.6s0-.4-.2-.6c-.1-.1-.3-.2-.4-.2-.2,0-.3,0-.4.2-.1.1-.2.3-.2.6ZM67.8,24.8c0-.4.1-.6.3-.8.2-.1.4-.2.6-.2.3,0,.5,0,.7.3.2.2.3.4.3.7s0,.5-.1.6c0,.1-.2.3-.3.3-.1,0-.3.1-.5.1-.3,0-.5,0-.7-.3-.2-.2-.3-.4-.3-.8ZM70.1,25.7v-2h.3v.3c0-.1.2-.2.2-.3,0,0,.1,0,.2,0,.1,0,.2,0,.3.1v.3c-.2,0-.3,0-.4,0,0,0-.1,0-.2,0,0,0-.1.1-.1.2,0,.1,0,.3,0,.4v1s-.3,0-.3,0ZM71.4,25.7v-2h.3v.3c.1-.2.4-.3.6-.3.1,0,.3,0,.4,0,0,0,.2.2.2.3.2-.2.4-.3.6-.3s.3,0,.5.2c.1.1.2.3.2.5v1.4h-.3v-1.3c0,0,0-.2,0-.3,0,0,0-.1-.1-.1-.2,0-.4,0-.6,0,0,0-.1.2-.1.4v1.2h-.3v-1.3c0-.2,0-.3,0-.3,0,0-.1-.1-.3-.1,0,0-.2,0-.3,0,0,0-.1.1-.2.2,0,.1,0,.3,0,.4v1h-.3ZM75.8,24.7c-.1,0-.3,0-.6.1-.1,0-.2,0-.3,0-.1,0-.2.2-.2.3,0,0,0,.2.1.2s.2,0,.3,0,.2,0,.3,0c0,0,.2-.1.2-.2,0-.1,0-.2,0-.3,0,0,0-.1,0-.1ZM75.9,25.5c-.1,0-.2.2-.4.2-.1,0-.2,0-.4,0-.2,0-.4,0-.5-.2-.1-.1-.2-.3-.2-.4,0-.2,0-.4.2-.5,0,0,.2,0,.2-.1,0,0,.2,0,.3,0,.3,0,.5,0,.6-.1h0c0-.2,0-.3,0-.4,0,0-.2-.1-.4-.1s-.3,0-.4,0c0,0-.1.2-.2.3h-.3c0-.2,0-.3.1-.4,0,0,.2-.2.3-.2.1,0,.3,0,.5,0s.3,0,.4,0,.2,0,.2.2c0,0,0,.1.1.2,0,0,0,.2,0,.3v.4c0,.3,0,.5,0,.6,0,0,0,.2,0,.2h-.4c0,0,0-.2,0-.2h0ZM76.7,25.7h.3v-2.7h-.3v2.7ZM80.5,23h.4v1.6c0,.3,0,.5,0,.7,0,.2-.2.3-.3.4-.2.1-.4.2-.6.2s-.5,0-.6-.1c-.2,0-.3-.2-.4-.4,0-.2-.1-.4-.1-.7v-1.6h.4v1.6c0,.2,0,.4,0,.5,0,.1.1.2.2.3.1,0,.3,0,.4,0,.3,0,.5,0,.6-.2.1-.1.2-.4.2-.7,0,0,0-1.6,0-1.6ZM81.4,25.7v-2h.3v.3c.1-.2.4-.3.6-.3.1,0,.2,0,.3,0,.2,0,.3.2.3.4,0,0,0,.2,0,.3v1.2h-.3v-1.2c0-.1,0-.2,0-.3,0,0,0-.1-.1-.2,0,0-.2,0-.2,0-.1,0-.3,0-.4.1-.1,0-.2.3-.2.5v1.1h-.3ZM83.5,23.8h.3v2h-.3v-2ZM83.5,23h.3v.4h-.3v-.4h0ZM84.9,25.7l-.8-2h.4l.4,1.2c0,.1,0,.3.1.4,0-.1,0-.2.1-.4l.4-1.2h.3l-.8,2s-.3,0-.3,0ZM86.6,24.6h1.1c0-.2,0-.3-.1-.4-.1-.1-.3-.2-.4-.2-.1,0-.3,0-.4.2-.1.1-.2.3-.2.4ZM87.7,25.1h.3c0,.2-.2.4-.3.5-.2.1-.4.2-.6.2-.3,0-.5,0-.7-.3-.2-.2-.3-.4-.3-.8s0-.6.3-.8c.2-.2.4-.3.7-.3.3,0,.5,0,.7.3.2.2.3.4.3.8s0,0,0,0h-1.5c0,.2,0,.4.2.5.1.1.2.2.4.2s.2,0,.3,0c0,0,.2-.2.2-.3ZM88.4,25.7v-2h.3v.3c0-.1.1-.2.2-.3,0,0,.1,0,.2,0,.1,0,.2,0,.3.1v.3c-.2,0-.3,0-.4,0,0,0-.1,0-.2,0,0,0-.1.1-.1.2,0,.1,0,.3,0,.4v1s-.3,0-.3,0ZM89.6,25.2h.3c0,0,0,.2.2.3.1,0,.2.1.4.1.2,0,.3,0,.3,0,0,0,.1-.1.1-.2,0,0,0-.1,0-.2,0,0-.2,0-.3-.1-.2,0-.3,0-.5-.2,0,0-.2-.1-.2-.2,0,0,0-.2,0-.3,0,0,0-.2,0-.2,0,0,0-.1.2-.2,0,0,.1,0,.2,0,0,0,.2,0,.3,0,.2,0,.3,0,.4,0,.1,0,.2,0,.3.2,0,0,0,.2.1.3h-.3s0-.1-.1-.2c0,0-.2,0-.3,0-.2,0-.3,0-.3,0,0,0,0,.1,0,.2s0,0,0,.1c0,0,0,0,.1,0,0,0,.1,0,.3,0,.2,0,.4.1.5.2,0,0,.2,0,.2.2,0,0,0,.2,0,.3,0,.1,0,.2,0,.3,0,.1-.2.2-.3.2-.1,0-.3,0-.4,0-.3,0-.5,0-.6-.2-.1-.1-.2-.3-.3-.5h0ZM91.6,23.8h.3v2h-.3v-2ZM91.6,23h.3v.4h-.3v-.4h0ZM93.2,25.4v.3s-.1,0-.2,0c0,0-.2,0-.3,0,0,0-.1,0-.1-.2,0,0,0-.2,0-.4v-1.1h-.2v-.3h.2v-.5l.3-.2v.7h.3v.3h-.3v1.2c0,0,0,.2,0,.2,0,0,0,0,0,0,0,0,0,0,.1,0,0,0,0,0,.1,0ZM93.6,26.5v-.3s0,0,.2,0c0,0,.1,0,.2,0,0,0,0,0,.1-.1,0,0,0-.1.1-.3h0c0,0-.8-2.1-.8-2.1h.4l.4,1.2c0,.1.1.3.1.5,0-.2,0-.3.1-.5l.4-1.2h.3l-.8,2c0,.2-.1.4-.2.5,0,0-.1.2-.2.2,0,0-.2,0-.3,0,0,0-.1,0-.2,0h0Z"/>
      </g>
    </g>
  </g>
</svg>