<?xml version="1.0" encoding="UTF-8"?>
<svg xmlns="http://www.w3.org/2000/svg" version="1.1" viewBox="0 0 128 38.9">
  <defs>
    <style>
      .cls-1 {
        fill: #004097;
        fill-rule: evenodd;
      }
    </style>
  </defs>
  <!-- Generator: Adobe Illustrator 28.7.1, SVG Export Plug-In . SVG Version: 1.2.0 Build 142)  -->
  <g>
    <g id="_图层_1" data-name="图层_1">
      <path class="cls-1" d="M25.5,26.4c0,0,0-.2,0-.3,0,0-.2,0-.2,0,0,.4.2.4.3.2ZM27.1,26.4c-.2,0-.1.5,0,.4,0,0,.1-.1.1-.3,0-.1,0-.2-.2-.2ZM27.2,29.7h-.2s-.1-1-.1-1h.2s0,0,0,0c0,0,0,0,0,0v.4c0,0,0,.4,0,.5ZM17.1,24.6c0,0,0-.1,0-.2,0,0,.8-.5.8-.5,0,0,0,.1,0,.2,0,0-.8.4-.8.5ZM19.5,26.5l-.5.5c0,0,0,0-.1-.1,0,0,.3-.3.3-.4l.2-.3s0,0,0,0h.1c0,.2,0,.2-.2.3ZM35.6,17.5c.1,0,.1,0,.2,0,0,0,.2,0,.3,0v.2c-.4,0-.3,0-.7.3,0,0-.2.1-.2.1v-.2s.3-.2.3-.3h-.4c0-.1,0-.3,0-.3,0,0,.2,0,.2,0,0,0,.2,0,.2,0ZM16,17.7v.5c0,0-.3,0-.3,0,0,0,0,0,0,0,0,0,0,0,0,0h0c0-.2,0-.2,0-.3,0-.1,0-.3,0-.4l1,.2v.2s-.8-.1-.8-.1c0,0,0,0,0,0h0ZM36.3,20.2v.8c0,0-1.1-.1-1.1-.1v-.2c0,0,.3,0,.4,0,.1,0,.3,0,.4,0v-.6c0,0,.3,0,.3,0h0ZM16.7,20.4l-.4.3s0,0,0,0h.1c.2.1.2,0,.2.3,0,0-.2,0-.2,0-.1,0-.3-.2-.5-.1,0,0-.2,0-.3,0,0,0,0-.1,0-.2.5-.1.2,0,.7-.3,0,0,0,0,.1,0,0,0,0,0,.1,0v.2s0,0,0,0ZM18.5,26.6h-.1c0-.1.6-.7.6-.7,0,0-.1-.1-.2-.2,0,0,0,0,.1-.1,0,.1.4.4.5.6,0,0,0,0-.1.1h-.1c0-.1,0-.2-.1-.2,0,0,0,0-.1.1,0,0-.4.4-.4.4ZM19.7,26.5s0,0,0,0c0,0,.2.2.3.3l.3.3h-.1c0,0-.2,0-.3,0l-.5.6c0,0-.1,0-.1-.1,0,0,.2-.3.2-.3l.2-.3c0,0-.1-.1-.2-.2,0,0,0,0,0,0h0ZM33.6,25.3c0,0,.5.4.6.5,0,0,0,.1-.1.1l-.3-.2s0,0-.2-.1c0,0,0,0,0,0,0,0,0,0,0,0,0,0-.2.2-.2.2,0,0,0,0-.1-.1,0,0,.3-.4.4-.5,0,0,.1-.1.1-.2,0,0,0,0,.1.1,0,0-.2.2-.2.2h0ZM21.1,28.1l.2-.3c0,0-.2-.1-.3-.1v-.2c.1,0,.2,0,.3,0,.1,0,.4.3.5.3,0,0,0,.1,0,.2h-.3c0,0,0,0,0,0,0,0-.3.5-.3.5,0,0-.1,0-.2,0,0,0,.2-.3.2-.3ZM23.2,9.7c0,0,.1,0,.1,0,.1-.1.2-.2.2-.2.1,0,.1,0,.1.1,0,0,0,0,0,.2,0,.2,0,.3,0,.5,0,0,0,0,0,0,0,0,0,0,0,0h0s0,0,0,0h0c0-.1,0-.1,0-.2,0,0,0,0,0,0,0,.2,0,.2,0,.3,0,0,0,.4,0,.4,0,0-.1,0-.2,0,0-.1,0-.4,0-.5,0,0-.1,0-.1-.2h.1c0-.1,0-.2,0-.3,0,0-.1,0-.2,0,0,0-.1,0-.1-.1ZM33.4,13.4h0c-.1.1-.3.2-.4.4,0,0-.2.2-.2,0,0,0,0-.2.1-.2.1-.1.6-.5.8-.4,0,0,0,0,.2,0,0,0,0,0,.1,0h0s0,0,0,0c0,0-.2-.2-.2-.2,0,0,.4.1.4.3,0,0,0,.1,0,.2,0,0-.1,0-.2,0,0,0-.3.2-.3.2,0,0,0,.1-.2.1,0,0,0-.1,0-.2h0ZM24.7,28.7v.2s-.7-.1-.7-.1v.2s0,0,0,0c0,0,.5,0,.5,0,0,0,0,0,0,.2,0,0-.3,0-.4,0,0,0-.1,0-.1,0v.4c0,0-.2,0-.2,0,0,0,.1-.8.2-1,0,0,.8.1.8.1ZM20.9,27.3s.1,0,.2.1l-.3.5c-.2.2-.3.3-.5,0-.4-.3-.2-.5,0-.8,0,0,.1-.2.2-.2,0,0,0,0,0,0,0,0,0,0,0,0,0,.1-.4.5-.4.6,0,.1,0,.2.1.2.2.1.3,0,.4-.2,0-.1.2-.3.3-.4ZM29.7,28.7h.2c0,.3,0,.4-.3.5-.3.1-.5,0-.6-.3-.1-.2,0-.5.2-.7,0,0,.2,0,.3,0,.1,0,.2.1.3.2h-.2c0,0-.2-.1-.4,0-.2.2,0,.6.3.6.2,0,.2-.2.2-.3ZM26.7,29.4s.1,0,.2,0c0,.3-.2.4-.5.4-.6,0-.6-.9,0-1,.1,0,.3,0,.4,0,0,0,.2.1.2.3h-.2c0,0,0,0-.1-.1-.2,0-.4,0-.4.3,0,.3.3.3.4.2,0,0,0,0,0-.2h0ZM34.8,23.6v.2c-.4,0-.5.4-.2.5.3.1.5-.1.4-.3,0,0,0-.1-.1-.2,0,0,0-.1,0-.2.2.2.3.3.1.6-.3.5-1.1.1-.9-.4,0-.2.2-.4.5-.3h0ZM31.3,28.3l-.2-1s.2-.1.2-.1c0,0,0,0,0,0,0,0,0,0,0,0,.1.1.3.2.4.3,0,0,.2.1.2.2,0,0,0,0,0,0h-.1c0,0-.1,0-.2,0l-.3.2v.2s0,0-.1,0h0ZM31.5,27.6c0,0,.1,0,.1.1,0,0-.2.1-.2.1v-.4c0,0,0,0,0,0h.1c0,0,0,0,0,0ZM16.7,18.4v.2c-.5,0-.8-.2-.8.2,0,.3.3.2.8.3v.2c-.1,0-.5,0-.7,0-.2,0-.3-.2-.3-.4,0-.2.1-.4.3-.4.2,0,.5,0,.7,0ZM16.8,21.4s0,0,0,.1c0,0,0,0,0,.1l-.6.4c0,0-.2.1-.2.1v-.2s.1,0,.1-.1v-.4c0,0-.3,0-.3,0v-.2c0,0,.9,0,1,0h0ZM16.3,21.7c0,0,0-.2,0-.3h.4s-.3.3-.3.3ZM34.9,22.6l.9.4c0,0,0,.1,0,.2l-.4-.2-.2.4.4.2v.2c-.1,0-.9-.4-1-.4v-.2c0,0,.4.1.4.1l.2-.4c-.1,0-.2,0-.3-.1,0,0,0-.1,0-.2ZM35.4,19.7c0-.3.2-.5.4-.5.3,0,.5.1.6.4,0,.7-.9.7-1,.1ZM35.8,19.3c.2,0,.4,0,.4.2,0,.1,0,.3-.1.3,0,0,0,0,0,0-.5,0-.6-.4-.2-.5ZM15.7,19.8c0-.6.9-.7,1-.2.1.6-.9.7-1,.2ZM16.5,19.8c-.1.3-.7.2-.6-.1,0-.1.2-.2.4-.2.1,0,.3.2.2.3h0ZM35.2,21.5c0-.3.2-.5.4-.5.3,0,.5.2.5.4,0,.7-.9.6-1,0ZM35.6,21.2c.2,0,.4,0,.4.2,0,.2-.1.5-.4.3-.2,0-.3-.4,0-.5ZM23.7,29c-.1.6-.7.5-.8.3,0-.1-.1-.2,0-.4.1-.7,1-.5.9,0ZM23.5,29c0,.4-.4.3-.5.1,0-.2,0-.6.3-.5.2,0,.2.2.2.4ZM25.1,29.4h.2c0,.1,0,.2.2.2,0,0,.1,0,.2,0,0,0,0,0,0-.1,0,0-.4,0-.5-.2,0-.1,0-.4.3-.4.2,0,.5,0,.5.3h-.2c0-.1-.1-.1-.2-.1-.2,0-.2.1,0,.2.2,0,.4,0,.5.2,0,.1,0,.2,0,.3,0,0-.2,0-.3,0-.2,0-.4,0-.4-.4ZM17.9,25.3h.1c-.2.3.2.7.2.5,0-.1-.2-.4-.2-.6,0-.1.3-.3.5,0,.2.2.2.5,0,.5,0,0,0,0-.1-.1,0,0,0,0,0-.2-.1-.3-.3-.2-.3,0,0,.2.3.4.1.6,0,0-.2.1-.3.1-.1,0-.4-.3-.4-.4,0-.1,0-.2.1-.3ZM32.2,26.5c.2-.1.5-.7.9-.2.1.1.2.3.1.5,0,0-.1.1-.2.2,0,0-.1.1-.2.2,0,0-.4-.4-.5-.5,0,0-.1-.1-.2-.2h0ZM32.5,26.5c0,0,.2-.2.3-.2.2,0,.5.2.4.4,0,0-.1.2-.2.2,0,0-.1-.2-.2-.2,0,0-.2-.2-.2-.2ZM36.3,18.3h0c.1.1.1.4,0,.6-.1.1-.4.2-.6.1-.5-.2-.4-.8,0-.8v.2c-.2,0-.2.5.2.5.4,0,.4-.5.1-.5,0,0,0,.1,0,.2h-.2s0-.4,0-.4c.6,0,.5-.1.5.1,0,0,0,0,0,0h0ZM16.9,23.6c0,0,0-.1,0-.2h.1c0,0,.1.3.1.3l-.4.2s0-.1,0-.2c0,0,0,0,0,0h0c-.2-.1-.3-.5,0-.7.2-.2.6-.2.7.1,0,0,0,.2,0,.3,0,0,0,.2-.2.2v-.2s0,0,0-.2c0,0,0-.1,0-.2,0,0-.2-.1-.4,0-.3.1-.2.5,0,.5ZM21.8,28.3l.5.2v.2c-.2,0-.5-.2-.6-.2v.2c0,0,.5.3.5.3,0,0,0,.1,0,.2l-.7-.3c0,0,.3-.7.4-.9,0,0,.6.3.7.3v.2c-.2,0-.5-.2-.7-.2,0,0,0,.1,0,.2h0ZM27.4,29.7l-.2-1h.8c0-.1,0,0,0,0-.1,0-.2,0-.3,0h-.3c0,0,0,0,0,0v.2c.1,0,.2,0,.3,0h.3s0,0,0,.1h-.5c0,0,0,.3,0,.3h.6c0-.1,0,0,0,0,0,0,0,0,0,0,0,0,0,0,0,0,0,0-.8.1-.8.1ZM33.9,24.8c0,0,.1,0,.2.1,0,0,0,0,0-.1,0,0,.2-.3.2-.3,0,0,.1,0,.1,0l-.3.5s.1.1.2.1c0,0,.3-.5.4-.5,0,0,0,0,.1,0l-.3.5c0,0,0,.1-.1.2,0,0-.5-.3-.6-.4,0,0-.1-.1-.2-.1,0,0,0-.1.1-.2l.2-.3c0,0,0-.1.1-.2,0,0,.1,0,.1,0,0,0-.3.4-.3.5ZM30.5,27.9l-.6.3v.2c.1,0,.3,0,.3-.1,0,0,.2,0,.3-.1,0,0,0,0,0,.2l-.5.2v.2c.2,0,.5-.2.7-.3v.2c-.1,0-.6.3-.7.3l-.4-.9.7-.3s0,.2,0,.2ZM31.6,27s.1-.1.2,0c.2,0,.5.2.6.2,0,0-.3-.4-.4-.5,0,0,0,0,.2,0v.2c.2,0,.5.5.6.6,0,0-.1.1-.2.1-.1,0-.5-.2-.7-.2,0,.1.4.5.4.5h-.1c0,0-.5-.6-.5-.6,0,0,0,0,0-.1h0ZM35.5,22.2s0,0,0,0h0s0,0,0,0c0,0,0,0,0,0h0s0,0,0,0h-.4c0-.2,0-.3,0-.3l.9.3v.2c0,0-.3.1-.4.1,0,0-.3,0-.3.1l.6.2v.2s-1-.3-1-.3c0-.2,0-.2.4-.3h.2c0,0,0,0,0,0h0ZM17.7,25s.4-.3.5-.3c0,0,0,0,0,.1,0,0-.5.4-.6.4,0,0-.2.1-.2.1,0,0-.1-.1,0-.2,0-.1.2-.6.3-.6,0,0-.4.3-.5.3,0,0,0,0,0-.1l.8-.5s0,0,0,0c0,0,0,0,0,.3,0,0-.2.4-.2.4h0ZM28.2,28.6c0,0,.1,0,.3.2l.3.3v-.6c-.1,0,0,0,0,0,0,.1,0,.3.1.5,0,.1.1.4.1.5-.2,0-.1,0-.2,0l-.2-.2-.3-.3v.6c.1,0,0,0,0,0,0-.2-.2-.9-.2-.9,0,0,0,0,.1,0ZM16.6,22.7l.6-.2v.2c0,0-.8.3-.9.3,0-.1,0-.1,0-.2l.4-.5-.6.2v-.2c0,0,.9-.3.9-.3,0,.2.1,0-.1.4,0,0,0,.1-.1.2,0,0,0,.1-.1.2ZM23.8,9.5c0,0,0,0,0,0,0,0,0,0,0,0,0,0,0,0,.2-.1.2-.1.6,0,.5.2l-.2.4c0,.1,0,0-.1.1h0c.1,0,.4,0,.4.1,0,0-.2.2-.2.3.1,0,.3,0,.3.2-.2,0-.2.1-.4.2-.1,0-.2-.2-.1-.3,0,0,.2,0,0-.2,0,0,0,0,0,0,0,0,0,0,0,0,0,0-.2,0-.2,0,0,0,.1,0,.2-.1,0,0,.1,0,.2-.1h0c-.2,0-.4-.3-.4-.5,0,0,.2,0,.2.1,0,0,0,0,0,0,0,0,0,0,.1,0,0-.2-.1,0-.2-.2h.1c0,0,0-.2,0-.2,0,0,0,0,0,0,0,0,0,0,.1.1,0,0,0-.2,0-.2-.1,0-.2,0-.3,0,0,0,0,.2-.3.1ZM24.2,9.8c0,0,0-.1,0-.1,0,0,0,0,0,.1ZM24.4,10.2c0,0,0,0,0,0,0,0,0,0,0,0h0ZM27.6,9.5c.1,0,0,0,.2,0,0,0,.1,0,.2,0,.2,0,.4.2.1.4,0,0-.4.2-.4.3,0,0,.2,0,.2,0,.2,0,.2,0,.2,0,.1.4-.2.3-.4.3h-.2c-.2,0-.2-.3-.2-.5,0,0,.1,0,.2,0,.2-.2.1-.2,0-.3,0,0,0-.1,0-.2ZM34.3,13.5c0,0,0-.2,0-.3,0,0,0,0,0,0,0,0,0,.1,0,.2,0,0,0,0-.1,0,0,0,.2.2.1.3,0,0-.1,0-.2,0h-.2c0,0,0,0,0,0h0c0,.1.1,0,0,.2,0,0,0,0-.1,0,0,0-.2.1-.2.2-.1,0-.2.2,0,.3.1,0,.2.1.4,0,0,0,.3-.1.3-.1,0,0,0,0,0,0,0,0,0,.1-.1.2-.1.3-.4.2-.6,0,0,0-.1,0-.2-.1-.1-.1-.1-.3,0-.4,0,0,.1,0,.2-.2-.3,0-.4,0-.6,0,0,0,0-.1,0-.2.1,0,.1,0,.2,0,0,0,0,0,0,0,0,0,0,0-.1,0,0,0,0,0,0-.1,0,0,.3,0,.5,0,0,0,0,0,0,0,0,0,0,0,0,0-.2,0-.2-.2,0-.2,0,0,0,0,0,0,0,0,.2,0,.2,0,0,0,.1,0,.2,0ZM34.2,13.6s0,0,0,0c.1.1,0,0-.1,0,0,0,0,0,0,0,0,0,0,0,0,0,0,0-.2,0-.1-.2,0,0,.2,0,.2,0h0ZM30.9,10.7c-.2-.1,0-.4,0-.4,0,0,0,.1,0,.2,0,0,.1,0,.2,0,0,0,0,0,0,0,.1,0,.4-.2.4,0,0,.2-.3.2-.4.2,0,0,0,0,.1,0,.1,0,.3.3.2.4,0,.1-.2,0-.3,0-.1,0-.2,0-.3,0,0,0,.2,0,.2.2,0,.2-.3,0-.3,0,0,0,0,0-.1.1,0,0-.2.4-.4.2,0,0-.1-.2-.2-.3,0-.2,0-.2,0-.3,0,.2,0,.3.2.3,0,0,.1-.1.2-.2,0,0-.2,0-.2-.1,0,0,0-.2,0-.2,0,0,.1,0,.3,0,0,0,0,0,0,0,0,0,0,0,0,0,0,0-.2,0-.3,0,0,0,0,0,0-.1,0,0,0,0,0-.1,0,0-.1,0-.2,0,0,0-.3.3-.3.3,0,0,0-.2,0-.2h.1c0-.2.2-.2.2-.3,0,0,0,0,.1,0,0,0,.1,0,.1,0h0c.3.2.3.1.5,0,.2,0,.4,0,.4-.2,0,0-.2,0-.2.1-.1,0-.1,0-.2,0,0,0-.1.1-.2.2ZM31.2,11.1c0,0,0,0,0,0-.2,0-.3,0-.5,0h0c.2,0,.2,0,.4,0,.1,0,.3,0,.3.1,0,0-.1,0-.1,0ZM20.5,10.6s-.2,0-.1,0c0,0,0-.1.2,0,0,0,.2.2.3.3,0,0,.1-.2.2-.2h0s0,0,0,.1c-.2.2-.2.2,0,.3,0,0,0,0,0,0h0c0,0,.2-.1.3-.2,0,0,.1,0,.2,0v.3c.2,0,.2,0,.2.2,0,.2-.3,0-.3.1,0,0,0,.2,0,.2,0,0,0,.2,0,.2-.2,0-.3-.6-.4-.7,0,0,0,.3,0,.4,0,0,0,0,0-.1,0,0,0-.1,0-.2,0,0,0,.2-.1.2,0,0-.1,0,0-.2,0,0,0-.2,0-.2,0,0,0,.3-.1.3,0,0,0,0,0,0,0,0,0,.1.1.2,0,0,.3.3.2.3-.2,0-.2-.2-.3-.3-.1-.2-.2-.3-.3-.5,0,0,0,0,0-.1,0,0,0,0,0,0h0c0-.3-.2,0-.3,0,0,0-.1.1-.2.1,0,0,0,0,0,0,0,0,0,0,0,0h0c0-.2.2-.2.2-.2.1,0,.2,0,.3.1,0,0,0,.3,0,.4,0,0,.1-.2.1-.3,0,0,0,0,0,0,0,0,0,0,0-.1,0,0,0,0,0,0-.1-.2,0,0,.2,0,0,0-.1-.1-.1-.2ZM20.7,11h0s0,0,0,0c0,0,0,0,0,0h0s0,0,0,0c0,0,0,0,0,0,0,0,0,0,0,0ZM21.1,11.2c.1-.3.5.3.2.3,0,0,0,0,0,0,0,0,0-.1-.2-.2h0ZM18.9,13.4s0,.1-.1.2c.1.2,0,.2,0,.4.3.1,0,.3,0,.3,0,0-.2-.1-.2-.2,0,0,0-.2,0-.3,0,0,0,0-.1.2,0,0,0,.1,0,.2l.2.2c-.1,0-.3,0-.3,0,0,0,0,0,0,0,0,0,0,.2,0,.2,0,0,0,0-.1,0,0,0,0,.1.1.2,0,0,.1.1.1.2,0,0-.1.1-.2,0,0,0-.1,0-.2-.1,0,0-.3-.3-.4-.4l-.2-.2c0,0,0-.1,0-.2,0-.1,0-.2,0-.2.2-.2.4,0,.4,0,0,0-.1,0-.2.1h0c0,.1.2.2.3.2,0,0,0,0,0,.1,0,0,0,0,0,.1,0,0,0,0,.1,0,0,0,0,0,0,0,0-.2,0-.3,0-.4,0,0-.2,0-.2,0h0s0,0,0,0c-.2,0-.1-.2-.2-.3v-.3s0,0,0,0c0,0,.2-.1.3,0,0,0,0,.2,0,.3,0,0,.2-.2.3,0,.1.1,0,.3,0,.3.2.1.5-.4.7-.4,0,0,0,.1,0,.2ZM17.9,13.7c0,0,0-.2,0-.2v.2s0,0,0,0ZM18.3,14c0,0,0-.2,0-.2,0,0,.1,0,.2,0l-.2.3h0ZM26,12.5c.4,0,.7,0,1.1.2,0,0,.1,0,.2,0,0,0,.1,0,.1,0-.2,0-.5.3-.7.5-.7.5-.8.5-1.5,0-.2-.2-.4-.3-.7-.5h0c0,0,.5-.2.6-.2.2,0,.5,0,.8,0ZM14.8,19.8c0,1.7.4,3.1,1.1,4.5.2.4.3.6.5.9.1.2.4.6.6.8.2.3.4.5.6.8.1.1.2.2.3.4.5.5.9.9,1.5,1.3,0,0,.1,0,.2.1.6.4,1.3.8,2,1.1,3,1.3,6.3,1.2,9.2-.2.1,0,.6-.3.7-.4,0,0,.1,0,.2-.1.6-.4,1-.7,1.6-1.2.3-.2.5-.5.8-.8,0,0,0,0,0,0,.3-.3.6-.7.8-1,.2-.3.5-.7.7-1.1,0,0,0-.1.1-.2.2-.3.3-.6.5-.9.1-.3.3-.7.4-1,.9-2.7.6-5.8-.6-8.2-.3-.6-.4-.8-.8-1.3-.1-.2-.2-.3-.4-.5-.1-.2-.3-.3-.4-.5-.4-.5-1.1-1.2-1.6-1.6-.6-.5-1-.8-1.7-1.1-.6-.3-1.3-.6-2-.8-1.2-.4-2.3-.6-3.7-.5-1.7,0-3.2.4-4.5,1.1-.4.2-.6.3-.9.5-.3.2-.6.4-.8.6,0,0-.6.5-.7.5,0,0,0,0,0,0-.3.2-.5.4-.7.7-.2.2-.5.5-.7.8,0,0-.1.1-.2.2l-.3.4c0,0,0,.1-.1.2l-.3.4c-.4.8-.8,1.6-1.1,2.4-.4,1.1-.6,2.5-.5,3.7ZM25.7,8.4c-.9,0-1.6.1-2.4.3-1.2.3-2.3.8-3.3,1.5-.1.1-.5.3-.6.4,0,0-.1.1-.2.2-.1,0-.4.4-.6.5-.1.1-.4.4-.5.5-.1.1-.2.2-.3.4-.1.2-.3.4-.5.6,0,0,0,.1-.1.2-.4.5-.7,1.1-1,1.7,0,.2-.1.3-.2.5-.3.6-.5,1.4-.7,2.1-.3,1.6-.3,3.3.1,5,.3,1,.7,2,1.2,2.9,0,0,0,.1.1.2,0,0,0,.1.1.2.1.2.4.6.6.8,0,.1.5.6.6.7l.4.3c0,0,.1.1.2.2.1.1.4.4.6.5.3.2.4.4.8.6.6.4,1.2.7,1.8,1,1.4.6,3,.9,4.7.9,1.2,0,2.3-.3,3.5-.7.6-.2,1.3-.5,1.9-.9.3-.2.6-.4.8-.6,0,0,.1,0,.2-.1.1-.1.3-.2.4-.3,0,0,.1-.1.2-.2.1-.1.2-.2.4-.3.1-.1.2-.2.4-.3,0,0,.1-.1.2-.2,0,0,.1-.1.2-.2.3-.3.5-.6.8-1,.5-.6.8-1.3,1.1-2,.3-.6.5-1.4.7-2.1.6-3.1-.1-6.3-1.9-8.7-.2-.3-.4-.5-.6-.8-.3-.3-.6-.6-.9-.9l-.4-.3c-.8-.7-1.8-1.3-2.8-1.7-1.3-.5-3.1-.9-4.7-.9h0ZM14,19.1v.8s0,.6,0,.7c0,.6.2,1.2.3,1.9.2.8.5,1.5.8,2.1.7,1.5,1.7,2.8,2.8,3.8,1.9,1.8,4.4,2.9,7,3.1.1,0,.6,0,.7,0h1.4c1-.1,2.1-.3,3-.7.4-.1.7-.3,1-.4.2,0,.3-.2.5-.2.4-.2.8-.4,1.2-.7l.2-.2c.3-.2.6-.4.8-.6.3-.2.9-.8,1.1-1.1.2-.2.4-.4.6-.7,0,0,0,0,0-.1,0-.1.4-.5.5-.6.4-.5.7-1.1.9-1.6.6-1.3,1-2.6,1.1-4.1,0-.1,0-.6,0-.7v-1.3c0-.6-.2-1.3-.3-1.9-.3-1.1-.5-1.7-1-2.7-.2-.3-.7-1.2-.9-1.5,0,0,0,0,0-.1-.3-.3-.5-.7-.8-1l-.3-.4c-.4-.4-.7-.7-1.2-1-1.8-1.4-4-2.3-6.3-2.5-.1,0-.6,0-.7,0h-.8c-.2,0-2.2,0-4.7,1.1-.9.4-1.7.9-2.5,1.5,0,0,0,0-.1,0,0,0,0,0-.1,0l-.4.3c-.4.3-.8.7-1.1,1.1-1.2,1.4-2,3-2.5,4.8-.2.6-.3,1.2-.3,1.9,0,.1,0,.6,0,.7h0ZM25.7,8c-2.1,0-3.9.6-5.5,1.6-.2.1-.5.3-.7.4,0,0-.1,0-.2.2-.2.2-.5.4-.7.6-1.2,1-1.9,1.9-2.6,3.3-.5.9-.9,2.1-1.1,3.2-.5,2.3-.2,4.6.7,6.8,0,.2.1.3.2.5.3.7.8,1.4,1.2,2,.1.2.3.4.5.6l.2.2c.1.1.4.4.5.6.1.1.2.2.4.3l.3.2h.1c.1.2.5.5.6.5l.4.3s0,0,.1,0c0,0,0,0,.1,0,.5.3.9.5,1.4.7.6.3,1.4.5,2.2.7,2.5.5,5.1.2,7.3-.9.8-.4,1.2-.7,1.9-1.1.3-.2.8-.6,1.1-.9.5-.5.9-1,1.3-1.5.3-.4.6-.8.8-1.3.2-.3.3-.6.5-1,.6-1.5,1-3.2.9-4.8,0-2-.7-4-1.6-5.5-.1-.2-.3-.4-.4-.7l-.3-.4c-.3-.4-.5-.6-.8-1-.3-.3-.8-.8-1.1-1-.3-.2-.5-.4-.8-.6,0,0-.1,0-.2-.1,0,0-.1,0-.2-.1-1.1-.7-2.3-1.1-3.6-1.4-.9-.2-1.8-.3-2.6-.2ZM17.8,19.8c0,1.6.5,2.8,1.2,4,0,.1.3.5.4.6.2.2.3.4.5.6.5.6,1.1,1,1.7,1.4,1.4.9,3.1,1.4,4.8,1.4,4.6-.2,8.1-4,8-8.6h0c0-1.4-.5-2.8-1.2-4-.3-.5-.9-1.3-1.4-1.7-.2-.2-.5-.5-.7-.6l-.5-.3c-2.4-1.6-5.5-1.8-8.2-.5-.2.1-.5.2-.7.4,0,0-.1,0-.2,0,0,0-.1,0-.2.1-.3.2-.6.4-.9.7-.1,0-.4.4-.5.5l-.2.3c-.4.5-.8,1-1.1,1.5-.1.2-.2.4-.3.7-.4,1-.7,2.3-.6,3.5h0ZM21.5,25.3c0-.1,0-.4.1-.9.1-.5.3-1,.6-1.5.2-.3.5-.9.7-1.1.1-.1.4-.7.5-.8.2-.3.4-.7.4-1.1,0-.1,0-.4,0-.5l-.5.3c-.6.3-.9.5-1.6.8-.9.3-1.8.5-2.7.4,0-.2.2-.4.3-.6.4-.6.8-.8,1.5-1,.4-.1.9-.3,1.3-.4.3-.1.6-.2.9-.4,0,0,.2,0,.3-.1,0-.2-.2-.2-.3-.6-.5-1.5,1.1-3,.4-4.2,0,0-.1-.2-.2-.3,0-.1,0-.2,0-.3.3-.1,1,.2,1.1.6.2.4,0,1.1-.1,1.5-.2.6-.5,1.4-.5,2.1,0,.2,0,.5.2.6,0,0,0,0,.1-.1.2-.1.3-.3.5-.4.5-.4,1.2-1.2,1.4-1.8,0,0,0,0,0,0h0s0,0,0,0c0,0,0,0,0,0,0,0,0,.2.2.4.3.5.7,1,1.1,1.4.1.1.6.6.8.6.1-.2.2-.3.2-.7,0-1.1-1-2.7-.6-3.6,0-.2.2-.3.4-.4.4-.2,1.1-.2.7.3,0,0,0,0,0,.1-.7,1.2.9,2.7.4,4.2,0,.3-.2.4-.3.6.3.2.8.4,1.2.5.4.1.9.3,1.3.4.2,0,.4.1.6.2.4.2.6.4.9.8,0,0,.3.5.3.6-.9,0-1.8-.1-2.7-.4-.6-.2-1.1-.5-1.6-.8l-.5-.3c-.1.2,0,.7,0,.9.1.4.4.8.6,1.2.2.3.3.5.5.8.1.2.3.4.4.6.1.2.2.4.3.7.1.2.2.5.3.8,0,.1,0,.3,0,.4,0,.2,0,.3,0,.5.2,0,.5,0,.8,0s.2,0,.5-.3c.2-.2.6-.7.7-.9l.2-.3c.3-.5.6-1.1.8-1.7.6-1.7.5-3.7-.1-5.3-.3-.7-.7-1.4-1.1-2-.3-.4-.7-.8-1.1-1.2l-.3-.3c-.3-.3-.7-.5-1.1-.7-1.2-.6-2.4-.9-3.8-.9-1.3,0-2.6.3-3.7,1-.5.3-1,.6-1.4,1l-.4.4c-.8.8-1.4,1.8-1.8,2.9-.6,1.7-.7,3.6,0,5.3.4,1.2,1,2.1,1.8,2.9,0,0,.1.1.2.2,0,0,.2.2.2.2.2,0,.5,0,.8,0ZM24.6,18.7s.3-.3.4-.3c0,0,.1-.1.2-.2,0,0,.1-.1.2-.2.2-.2.5-.7.7-.7.1,0,.3.2.4.3.1.1.2.2.3.4.1.1.2.2.3.4l.4.3c0,.1-.1.2-.2.4-.4.9,0,1.7.5,2.5l.3.5c0,0,0,.1.1.2,0,.1.1.2.2.3.1.2.2.5.3.7.2.5.3,1.3.2,1.9h-2.9c0,0,.3,0,.4,0,.2,0,.3,0,.5,0,.3,0,.6,0,.9,0,0,0,0,0-.1,0-.4-.2-.7-.2-.9-.3.4,0,1,0,1.5,0h.4c0,0,0,0,.1,0,0,0,0,0,0,0h-2.9c-.3,0-.7,0-1,0l1,.2c.1,0,.3,0,.3.1-.1.2-.7.2-.9.2-.3,0-.6,0-.8,0h-.1c-.1,0-.1,0-.1,0,0,0,0,0,0,0h.9c0,.1-1.9.1-1.9.1-.1-1.1,0-1.8.5-2.7.2-.4.6-.9.8-1.4.5-.8.7-1.5.2-2.3,0,0,0-.1,0-.2ZM27.4,25.9c0,0,.3,0,.3,0,.7,0,1.5,0,2.2-.2,0,0,0,0,0,0-.5,0-1.2,0-1.8,0h-.4s0,0,0,0c0,0,0,0,0,0h0c.4,0,.7,0,1.2,0s.8,0,1.2,0c.4,0,.8,0,1.2,0,0,0-.6.5-.7.6l-.3.2s0,0-.1,0h-1.7c-.4-.1-.7-.2-1-.2,0,0,0,0,0,0h0ZM20.8,25.4c0,0,.7.6.8.6l2.7-.2c.4,0,.9,0,1.3-.1-.1,0-.4,0-.6-.1-1,0-2.1-.1-3.1-.2-.3,0-1,0-1.2,0h0ZM26.9,26.4s0,0,0,0c.2-.2.4,0,.4.3,0,.4-.4.4-.5.2-.1-.2-.1-.5,0-.7,0,0,.1-.2.3-.2.1,0,.2.1.2.2h-.1c0,0,0-.1,0-.1-.1,0-.2,0-.2.3ZM26.1,26.3c0,0,.3,0,.4,0,0,.1,0,.3,0,.4-.1.3-.6.2-.5-.1h.1c0,.1,0,.2.2.2.2,0,.2-.4,0-.5-.1,0-.2,0-.2,0h-.1v-.5s.5,0,.5,0h0c0,.1-.4.1-.4.1,0,0,0,.3,0,.3ZM24.3,26.1c0,0,.1,0,.2,0,0,0,0,0,0-.1h0v1s-.1,0-.1,0v-.8s-.2,0-.2,0c0,0,0,0,0,0ZM21.9,26.2c.2,0,2.1.3,2.1.3-.4,0-.8,0-1.2,0-.3,0-.2,0-.5-.1l-.4-.2s0,0,0,0ZM25.1,26.7h.1c0,.3.3.2.3-.2,0,0,0,0-.1,0,0,0-.1,0-.2,0-.2,0-.2-.5,0-.6.1,0,.2,0,.3,0,.1.2.1.9-.3.9-.1,0-.2-.1-.2-.2ZM113.1,26.8v-.7l-.6-1h.4l.4.7.4-.7h.4l-.6,1v.7h-.3ZM111.4,26.2v-.3h.7v.7c0,0-.2.1-.3.2-.1,0-.3,0-.4,0-.2,0-.3,0-.4-.1-.1,0-.2-.2-.3-.3,0-.1,0-.3,0-.4,0-.2,0-.3.1-.5,0-.1.2-.2.3-.3.1,0,.3,0,.4,0,.2,0,.4,0,.5.1.1,0,.2.2.2.4h-.3s0,0-.1-.1c0,0-.2,0-.2,0-.1,0-.3,0-.3.1,0,0-.1.2-.1.4s0,.3.1.4c0,0,.2.2.3.1.1,0,.3,0,.4-.1v-.2h-.4,0ZM108.9,25.9c0,.2,0,.3.1.4,0,0,.2.1.3.1.1,0,.2,0,.3-.1,0,0,.1-.2.1-.4s0-.3-.1-.4c0,0-.2-.1-.3-.1-.1,0-.2,0-.3.1,0,0-.1.2-.1.4h0ZM108.5,26c0-.2,0-.3,0-.4,0,0,0-.2.2-.2,0,0,.1-.1.2-.2.1,0,.2,0,.4,0,.2,0,.4,0,.6.2.1.2.2.4.2.6s0,.5-.2.6c-.1.2-.3.2-.6.2s-.4,0-.6-.2c-.1-.2-.2-.4-.2-.6ZM107,26.8v-1.6h.3v1.4h.8v.3s-1.1,0-1.1,0ZM105.2,25.9c0,.2,0,.3.1.4,0,0,.2.1.3.1.1,0,.2,0,.3-.1,0,0,.1-.2.1-.4s0-.3-.1-.4c0,0-.2-.1-.3-.1-.1,0-.2,0-.3.1,0,0-.1.2-.1.4h0ZM104.9,26c0-.2,0-.3,0-.4,0,0,0-.2.2-.2,0,0,.1-.1.2-.2.1,0,.2,0,.4,0,.2,0,.4,0,.6.2.1.2.2.4.2.6s0,.5-.2.6c-.1.2-.3.2-.6.2s-.4,0-.6-.2c-.1-.2-.2-.4-.2-.6ZM103.1,26.8v-1.7h.3l.7,1.1v-1.1h.3v1.7h-.3l-.7-1.1v1.1s-.3,0-.3,0ZM101.2,26.8v-1.7h.3v.7h.6v-.7h.3v1.7h-.3v-.7h-.6v.7h-.3ZM100.3,26.2h.3c0,.3-.1.4-.2.5-.1,0-.3.1-.4.1-.2,0-.4,0-.5-.2-.1-.2-.2-.4-.2-.6s0-.5.2-.6c.1-.2.3-.2.6-.2.2,0,.4,0,.5.2,0,0,.1.2.2.3h-.3s0,0-.1-.1c0,0-.1,0-.2,0-.1,0-.2,0-.3.1,0,0-.1.2-.1.4s0,.4.1.4c0,0,.2.1.3.1,0,0,.2,0,.2,0,0,0,.1-.2.1-.3h0ZM96.2,26.8v-1.4h-.5v-.3h1.3v.3h-.5v1.4h-.3ZM97.5,26.8v-1.7h1.2v.3h-.9v.4h.8v.3h-.8v.4h.9v.3h-1.2ZM93.2,25.4v1.1h.2c0,0,.1,0,.2,0,0,0,0,0,.1,0,0,0,0,0,0-.2,0,0,0-.2,0-.3s0-.2,0-.3c0,0,0-.1,0-.2,0,0,0,0-.2,0,0,0-.2,0-.3,0h-.1ZM92.9,25.1h.6c.1,0,.2,0,.3,0,0,0,.2,0,.2.2s.1.2.2.3c0,.1,0,.2,0,.4s0,.3,0,.4c0,.1,0,.2-.2.3,0,0-.1.1-.2.1,0,0-.2,0-.3,0h-.6v-1.7h0ZM91,26.8v-1.7h.3l.7,1.1v-1.1h.3v1.7h-.3l-.7-1.1v1.1s-.3,0-.3,0ZM90,26.1l-.2-.6-.2.6h.4ZM90.6,26.8h-.4v-.4h-.8v.4h-.5l.6-1.7h.3l.7,1.7ZM86.4,26.8v-1.7h1.2v.3h-.9v.4h.8v.3h-.8v.4h.9v.3h-1.2ZM85.5,26.2h.3c0,.3-.1.4-.2.5-.1,0-.3.1-.4.1-.2,0-.4,0-.5-.2-.1-.2-.2-.4-.2-.6s0-.5.2-.6c.1-.2.3-.2.6-.2.2,0,.4,0,.5.2,0,0,.1.2.2.3h-.3s0,0-.1-.1c0,0-.1,0-.2,0-.1,0-.2,0-.3.1,0,0-.1.2-.1.4s0,.4.1.4c0,0,.2.1.3.1,0,0,.2,0,.2,0,0,0,.1-.2.1-.3h0ZM82.6,26.8v-1.7h.3l.7,1.1v-1.1h.3v1.7h-.3l-.7-1.1v1.1s-.3,0-.3,0ZM80.8,26.8v-1.7h1.2v.3h-.9v.4h.8v.3h-.8v.4h.9v.3s-1.2,0-1.2,0ZM79.9,25.1h.3v1.7h-.3v-1.7h0ZM79.1,26.2h.3c0,.3-.1.4-.2.5-.1,0-.3.1-.4.1-.2,0-.4,0-.5-.2-.1-.2-.2-.4-.2-.6s0-.5.2-.6c.1-.2.3-.2.6-.2.2,0,.4,0,.5.2,0,0,.1.2.2.3h-.3s0,0-.1-.1c0,0-.1,0-.2,0-.1,0-.2,0-.3.1,0,0-.1.2-.1.4s0,.4.1.4c0,0,.2.1.3.1,0,0,.2,0,.2,0,0,0,.1-.2.1-.3h0ZM76.2,26.2h.3c0,0,0,.2.1.2,0,0,.2,0,.2,0,.1,0,.2,0,.2,0,0,0,0,0,0-.2,0,0,0,0,0,0,0,0,0,0-.1,0,0,0-.2,0-.3,0-.2,0-.3,0-.4-.2,0,0-.2-.2-.2-.3,0-.2.1-.3.3-.4.1,0,.2,0,.3,0,.2,0,.4,0,.5.1.1,0,.2.2.2.4h-.3c0,0,0-.1,0-.2,0,0-.1,0-.2,0s-.2,0-.2,0c0,0,0,0,0,.1,0,0,0,0,0,0,0,0,.1,0,.3.1.2,0,.3,0,.4.1,0,0,.1,0,.2.2,0,0,0,.2,0,.3,0,.2-.1.4-.3.5-.1,0-.2,0-.4,0-.2,0-.4,0-.5-.1-.1,0-.2-.2-.2-.4h0ZM73.6,26.8v-1.7h1.1v.3h-.8v.4h.7v.3h-.7v.7h-.3ZM71.8,25.9c0,.2,0,.3.1.4,0,0,.2.1.3.1.1,0,.2,0,.3-.1,0,0,.1-.2.1-.4s0-.3-.1-.4c0,0-.2-.1-.3-.1-.1,0-.2,0-.3.1,0,0-.1.2-.1.4h0ZM71.5,26c0-.2,0-.3,0-.4,0,0,0-.2.2-.2,0,0,.1-.1.2-.2.1,0,.2,0,.4,0,.2,0,.4,0,.6.2.1.2.2.4.2.6s0,.5-.2.6c-.1.2-.3.2-.6.2s-.4,0-.6-.2c-.1-.2-.2-.4-.2-.6ZM68.7,26.8v-1.7h1.2v.3h-.9v.4h.8v.3h-.8v.4h.9v.3s-1.2,0-1.2,0ZM67.4,26.8v-1.4h-.5v-.3h1.3v.3h-.5v1.4s-.3,0-.3,0ZM65.2,25.1h.3v.9c0,.1,0,.2,0,.3,0,0,0,.1,0,.2,0,0,.1,0,.2,0,0,0,.2,0,.2,0,0,0,0,0,0-.1,0,0,0-.2,0-.3v-.9h.3v.9c0,.2,0,.3,0,.4,0,0,0,.1,0,.2,0,0-.1.1-.2.1-.1,0-.2,0-.3,0-.1,0-.2,0-.4,0,0,0-.1,0-.2-.1,0,0,0-.1,0-.2,0-.1,0-.3,0-.4v-.9h0ZM63.9,26.8v-1.4h-.5v-.3h1.3v.3h-.5v1.4h-.3ZM62.6,25.1h.3v1.7h-.3v-1.7ZM61.4,26.8v-1.4h-.5v-.3h1.3v.3h-.5v1.4h-.3ZM59.2,26.2h.3c0,0,0,.2.1.2,0,0,.2,0,.2,0,.1,0,.2,0,.2,0,0,0,0,0,0-.2,0,0,0,0,0,0,0,0,0,0-.1,0,0,0-.2,0-.3,0-.2,0-.3,0-.4-.2,0,0-.2-.2-.2-.3,0-.2.1-.3.3-.4.1,0,.2,0,.3,0,.2,0,.4,0,.5.1.1,0,.2.2.2.4h-.3c0,0,0-.1,0-.2,0,0-.1,0-.2,0s-.2,0-.2,0c0,0,0,0,0,.1,0,0,0,0,0,0,0,0,.1,0,.3.1.2,0,.3,0,.4.1,0,0,.1,0,.2.2,0,0,0,.2,0,.3,0,.2-.1.4-.3.5-.1,0-.2,0-.4,0-.2,0-.4,0-.5-.1-.1,0-.2-.2-.2-.4h0ZM57.4,26.8v-1.7h.3l.7,1.1v-1.1h.3v1.7h-.3l-.7-1.1v1.1h-.3ZM56.5,25.1h.3v1.7h-.3v-1.7ZM53.9,26.2v-.3h.7v.7c0,0-.2.1-.3.2-.1,0-.3,0-.4,0-.2,0-.3,0-.4-.1-.1,0-.2-.2-.3-.3,0-.1,0-.3,0-.4,0-.2,0-.3.1-.5,0-.1.2-.2.3-.3.1,0,.3,0,.4,0,.2,0,.4,0,.5.1.1,0,.2.2.2.4h-.3s0,0-.1-.1c0,0-.2,0-.2,0-.1,0-.3,0-.3.1,0,0-.1.2-.1.4s0,.3.1.4c0,0,.2.2.3.1,0,0,.1,0,.2,0,0,0,.1,0,.2,0v-.2h-.4ZM51.3,26.8v-1.7h.3l.7,1.1v-1.1h.3v1.7h-.3l-.7-1.1v1.1h-.3,0ZM50.2,26.1l-.2-.6-.2.6h.4ZM50.8,26.8h-.4v-.4h-.8v.4h-.5l.6-1.7h.3l.7,1.7ZM48.2,26.8v-.7l-.6-1h.4l.4.7.4-.7h.4l-.6,1v.7h-.3ZM46.1,25.9c0,.2,0,.3.1.4,0,0,.2.1.3.1.1,0,.2,0,.3-.1,0,0,.1-.2.1-.4s0-.3-.1-.4c0,0-.2-.1-.3-.1-.1,0-.2,0-.3.1,0,0-.1.2-.1.4h0ZM45.7,26c0-.2,0-.3,0-.4,0,0,0-.2.2-.2,0,0,.1-.1.2-.2.1,0,.2,0,.4,0,.2,0,.4,0,.6.2.1.2.2.4.2.6s0,.5-.2.6c-.1.2-.3.2-.6.2s-.4,0-.6-.2-.2-.4-.2-.6ZM43.9,25.1h.3v.9c0,.1,0,.2,0,.3,0,0,0,.1,0,.2,0,0,.1,0,.2,0,0,0,.2,0,.2,0,0,0,0,0,0-.1,0,0,0-.2,0-.3v-.9h.3v.9c0,.2,0,.3,0,.4,0,0,0,.1,0,.2,0,0-.1.1-.2.1-.1,0-.2,0-.3,0-.1,0-.2,0-.4,0-.1,0-.2-.2-.3-.3,0-.1,0-.3,0-.4v-.9ZM42.3,26.8v-1.6h.3v1.4h.8v.3s-1.2,0-1.2,0ZM45.5,16.1c.3.7.6.6,1.2.9-.3.7-1.8,2-1.9,2.1,0,0,0-.4-.2-.7l-.5-.5c0-.6.3-1.3.1-1.9-.2-.7-.6-.7-.4-1.6.5-.1.5-.2.8.1,1.3,1,1.2-.6.9-1.2-.3-.5-.7-.7-1.3-.7.3,1.1-.6,1.3-1.4,1.9-.8.7-.6,5-.6,6.5,0,1.2.5,2.2,1.7,1.7.3-.9,0-1.6.5-2.8,0,.6,0,.5.2.8.9-.1.5-.8,1.4-1,.2.6,0,1.8,1.1,2.1,0-.6-.2-1.3-.1-1.7.4-.6,1.4-1,2.4-.9-.2.7-2.4,1.1-1.8,2.6.3.6.8.6,1.8.6.7-1,.1-.5,0-1.5,2.5-1.1,1.2-1.6,1.8-1.8,1,0,1.7.2,2.2-.5-.4-1.5-3.1-1-4-1.4-.4-.2-.9-.4-1.1-.8,0,0,0,0,0,0,0,0,1.2-.7,1.3-1.2.2-1.1-.9-1.1-1.2-1.2h-.2c.4-.9,1.9-.4,1.4-1.9-.1-.3-.5-.7-.9-.8-1-.1-.3.3-.8.9-.3.3-.4.1-1.2,1.1-.4.5-1.1,1.1-1.2,1.6-.1.7.3.5-.2,1-.5.6.2-.5-.1.2h0ZM46.6,16.1c.4-.3.8-.5,1.5-.6-.1.2,0,0-.2.2,0,0-.2.1-.2.2-.1.1-.2.2-.3.4,0,0-.8-.2-.8-.2ZM46.9,18.8c.2-1.6,2.2-1.2,2.3-.3-1.8,0-1.7.3-2.3.3h0ZM60.2,12.4c.1.3.1.2.7.6v1.5c-.6-.1-.3-.8-1-1-.3.3-.7,1.6-.8,2.2-.1.4,0,.2,0,.7-.6.2-.7.4-1.3.6.4-.9,2-1.7.8-3.1-.4-.5-.9-.6-1.7-.6-.7,0-1.7-.1-2.3,0,.9,1.8,4.2-.8,2.9,2.2-.4-.1-.3-.3-.6-.4-1,.9-1.1,2.5-1.2,3.4-.1,1.1-.9,2.6.3,3.4.9-.4.3-3.1.8-3.6h.3c.1,0,0,.2.5-.1l1.7-.8c-1,.9-2.4.9-1.5,2.2.6-.2.8-.6,1.6-.7-.6.9-1.1.8-1.2,2.2,1-.2,1.5-1.1,2-1.7,0,.2-.8,1.9-1,2.3-.3.8-1,1.6-.5,2.6.9.1.5-1,1.4-2.6.2,0,1.4,1.6,2.4.4.4-.6.5-1.6.7-2,.2-.6,0,0,.4-.6,0-.8-.5-1.2-1-1.5-.5-.2-1.6-.2-2.2-.2.3-.4.3-.2.8-.2.2-1.5.5-1.1,2-1.2.8,0,.6-.2.7-.3-.5-.6-1.2-.4-2.1-.3,0-.8.3-1.8.3-2.5,0-1.3-1.5-.7-1.6-.6ZM60,16c0-.3.2-.7.4-.9l.4.2c-.2.3-.4.5-.8.7ZM57.4,16.9s.5-.2.2,0c0,0-.3.3-.2,0h0ZM60.7,20.1c.1-.4.3-.2.4-.6.2-.5-.2-.9,0-1.3.7-.2,1,.5.7,1.3-.5,1.5-1.3,1.1-1.2.6,0,0,0,0,0,0h0ZM67.2,13.8c-.1.8,1,1,1.7.7l-.6,1.9h-.8c0,1.2,1,.4.2,2.7-.4,1-1,2.1,0,2.7.6-.3.7-.5,1.2-1.6.2-.5.2-.4.5-.9l.6-.9c.7,1.6.6,1,2,.6.5-.2.5-.3.7.3-.6.5-1.5.3-1.4,1.9.2,1.8,3.5.6,3.5.6,0-.6,0-.7-.3-1-.2-.1-.2-.2-.5-.2l-.5-.2s0,0,0,0c.5-.2.6-.5,1.2-.7.8-.3.8-.2,1.1-1-1.1-1.4-1.6-.6-2.4-1.1.1-.8.3-.1.8-.8.3-.4.2-.5.7-.9.1-.1.3-.2.4-.4.2-.3.1-.3.3-.5.4-.5.6,0,.8-.9-.2-1-1.4-1.5-2.6-1.4-1,0-2.5.5-2.8,1.2,1.3.4.9.3,1.8-.2.5-.3,2.1-.4,2,.1l-.3.6c-.3.4-.3.5-.7.6-.4-.8,0-1.2-.8-1.3,0,.4-.1.6-.3.9h-1c0,1,1.2.5.6,1.4-.3,0-.5,0-.9-1-.2-.6-.4-1-.9-1.1-.5.7.5,2.2,1,2.8.4.4.4.3.8.6,0,.7-.2.6-.8.8-.6.2-.5.3-1.5.3.1-.5.5-1.1.1-1.6-.4.2-.5.8-.7,1.2-.1-.2,0,0-.1-.3,0,0,0-.2,0-.3-.3-1.4.3-3.2,1.5-3.9,0-.5,0-.8-.5-.9-.7-.1-.4.2-2,.9-.5.2-.9.1-1.2.3h0ZM73.5,15.4h.4c-.2.4-.2.2-.5.6v-.6c0,0,.1,0,.1,0ZM93.8,12.3c-.6-.2-.8-.6-1.2,0,0,0,0,0,0,0l-.2.3c-.1-.5-.2-.6-.7-.8-.1.6,0,.8.1,1.5.2.7.2.9,1,1l.4-1.4c.4,0,.8,0,1.1.2-.5.9-1.4,1.7-2.5,2l-.3-.8c-.5.1-.3.1-.6.6-.3.6,0,.3-.6.6,0,2.5-1.7,3.2-.1,4.2.6-.9.2-2.9,1.4-3.3.4.4.2,1.3,1.2,1.2.8,0,1.1-.6,1.7-.8l-.3,1.2c-.7.4-1.1.2-1.6.4-.2.6,0,1.2.4,1.5.5.3,1.2,0,1.8,0,0,.4,0,1.3-.3,1.6,0,0,0,.2-.6.1-.4,0-1.2-.4-1.4-.7,0,0,0,0,0,0v-.5c0,0-.6.8-.6.8.4,1.5,3.1,2.3,3.3,2.2.4-.4.4-.9.5-1.6,0-.9.1-1.2.3-2,.8-.2,1.6-.3,1.5-1.3,0-1.1-1.1-.6-1.9-.7.1-.4.2-.5.4-.7.3-.4.2-.4.7-.6,0,0,2.9-.4,1.5-1.7-.2-.2-.1-.1-.4-.2-1.2-.5-1.5-.3-2.6-.4.4-.6,1.3-1.3,1.3-2.4l-1-.7c-.8.5-.9.8-1.5,1.5ZM94.5,12.9c.7-1.3.2-1.4.9-1.8.3.8-.6,1.4-.9,1.8ZM92.4,16.5c0-.6-.1-.4.3-.6.4-.2.9-.2,1.1-.3l.5-.3c.5-.4,1.4-.7,2.1-.3-.1.4-.2.3-.3.6-1.2,0-1-.2-1.9.3-.5.2-1.1.4-1.7.5ZM108.3,13l-2.9,1.4c.1.5.7.9,1.1.4l.7,1s0,0,0,.1c-.7.3-.5.5-1.5,1.3-.9.8-.9.3-.8,1.8l.9-.3c-.2.4-1.6,1.6-.5,2.4.3,0,.3-.1.8-.6.3-.3,1-1.7,2.1-2.3,0,1.6-.5,2.3.6,3.1.7.5,2.2.3,3.1,0,.9-.3,1.7-.8,1.9-1.8.2-.9,0-.8-.2-1.4-.4-.9.2-.9-.7-1.3-.4.7-.4,3.5-2.8,3.7-1.2,0-1.3-1-1-2l.3-1.1s0,0,0,0c.2-.4.7,0,.2-1.1h-.9c.6-.6,0-.7.9-1,.7-.2.9-.2,1.2-.8.5-1.2-1.1-1.3-2.1-1.4.9-.8-.3-1.4-1.3-1.4,0,.7.1.8.5,1.2,0,0,.3.3.3.3ZM107.1,14.4c.6-.5,1.5-.7,2.4-.6-.1.4-.4.5-.7.7-.7.4-1.1.9-1.7,0ZM81.3,15.7c0,.7-.3.9-.6,1.4l-1.1,1.1c0,1.1.3,2.3,1.3,2.5,0,0,4.2,0,4.7-1,.1-.3-.1-1.2-.2-1.5-.5-1-2.1-.2-3.1-.2.2-.8,1.2-1.9,1.8-2.3.3-.2.7-.4.8-1.4,0-.7-.4-1.1-.8-1.4-1.2-.6-1.9.8-3.1.8-1.9,0-.5,1.4.3,2h0ZM101.1,13c.4,0,1.1,0,1.6,0,.8,0,.7-.2,1.3-.4,0,.4-.2.8-.4,1.2-.4.8-.4.1-.9.8-.9,1.1-.8,3.2-1,3.8-.1.7-.5,2.2-.2,2.8.2.4.6.6.9.5.9-.4.2-2.3.8-4.8.2.2.3.5.7.6.2-.5.2-2,.2-2.7,0-1.6.9-1.3,1.2-2,.4-.8-1.1-1.1-1.9-.9l-1.8.5c-.7.2-.4,0-.6.4Z"/>
    </g>
  </g>
</svg>