<svg width="128" height="128" fill="none" xmlns="http://www.w3.org/2000/svg"><g filter="url(#a)" fill-rule="evenodd" clip-rule="evenodd" fill="#D7000F"><path d="M29.053 48.947a15.01 15.01 0 0 1 10.644 4.41A15.006 15.006 0 0 1 44.108 64c0 4.156-1.686 7.92-4.41 10.644a15.006 15.006 0 0 1-10.643 4.409c-4.157 0-7.92-1.685-10.644-4.41A15.006 15.006 0 0 1 14 64.002c0-4.157 1.686-7.921 4.41-10.645a15.008 15.008 0 0 1 10.643-4.41Zm0 .334a14.674 14.674 0 0 0-10.407 4.312A14.673 14.673 0 0 0 14.334 64c0 4.063 1.648 7.743 4.312 10.407a14.673 14.673 0 0 0 10.407 4.312c4.063 0 7.744-1.648 10.407-4.312A14.673 14.673 0 0 0 43.773 64c0-4.063-1.648-7.743-4.312-10.407a14.673 14.673 0 0 0-10.407-4.312Z"/><path d="M29.053 52.762c3.103 0 5.913 1.259 7.946 3.292A11.202 11.202 0 0 1 40.291 64c0 3.103-1.258 5.913-3.292 7.946a11.202 11.202 0 0 1-7.945 3.291 11.204 11.204 0 0 1-7.947-3.291A11.202 11.202 0 0 1 17.817 64c0-3.103 1.257-5.913 3.29-7.946a11.202 11.202 0 0 1 7.946-3.292Zm0 .334a10.87 10.87 0 0 0-7.709 3.195A10.87 10.87 0 0 0 18.15 64c0 3.01 1.22 5.736 3.194 7.71a10.869 10.869 0 0 0 7.71 3.194c3.009 0 5.735-1.221 7.708-3.195A10.87 10.87 0 0 0 39.957 64c0-3.01-1.221-5.736-3.194-7.709a10.87 10.87 0 0 0-7.71-3.194Z"/><path d="M32.034 66.124h3.123v2.058h-2.193a.93.93 0 0 1-.93-.926v-1.132Zm3.275-8.308H25.15s-.625.031-.662.81c-.037.78 0 9.795 0 9.795s-.135 1.665 1.799 1.906h3.292s.372.014.681-.268c.31-.283.64-.877.64-.877s.142 1.011.786 1.118c.644.108 3.789 0 3.789 0l-2.154 2.126h-2.44s-.66-.055-.836-.929c0 0-.242.776-.746.87-.503.096-4.73 0-4.73 0s-2.095-.107-2.095-2.604V57.682s0-1.987 1.933-1.987h8.887l2.014 2.121Zm-3.275 6.273h3.123v-2.177h-3.123v2.177Zm-5.347 0h3.288v-2.177h-3.288v2.177Zm0 2.035h3.288v1.132c0 .51-.44.926-.979.926h-1.82c-.269 0-.49-.304-.49-.559v-1.5ZM23.104 75.032l-.553-.295-.222.42.553.295.055-.097.167-.323Zm.838.204a6.463 6.463 0 0 1 .206.091c.013.007.017.017.01.03a39.37 39.37 0 0 0-.455.878c-.01.018-.024.022-.043.011l-.176-.093c-.016-.009-.02-.022-.01-.04l.041-.079-.528-.282c-.077.145-.156.297-.238.457-.082.16-.123.244-.125.254-.008.02-.018.027-.032.02l-.208-.112c-.013-.006-.012-.018 0-.036l.393-.695-.55-.293-.047.09a.192.192 0 0 1-.021.035c-.01.009-.022.01-.036.002a2.838 2.838 0 0 0-.141-.073.251.251 0 0 1-.047-.03c-.01-.009-.005-.027.014-.053.017-.022.042-.062.076-.123.034-.06.09-.163.167-.307l.232-.436c.014-.026.03-.034.046-.026l.182.121.549.293.164-.331a.498.498 0 0 1 .018-.049c.009-.016.02-.021.034-.014.05.029.1.058.148.09.05.03.076.053.08.07.002.009-.006.02-.024.034a2.233 2.233 0 0 1-.057.042l-.148.273.526.28Zm-.325.608.223-.418-.528-.282-.175.322-.05.096.53.282ZM25.43 75.837l-.39-.09-.119.518.348.087a3.488 3.488 0 0 0 .16-.515Zm.75-.05.105.014.06.009c.013.003.018.013.014.03a58.2 58.2 0 0 0-.157.712l.23.045.038.01c.015.003.021.01.017.02l-.045.196c0 .01-.002.015-.006.015-.003.001-.012 0-.025-.003l-.032-.007-.765-.194c.03.106.057.192.083.258a.884.884 0 0 0 .078.156c.053.08.13.16.229.236a1.71 1.71 0 0 0 .336.197l-.024.045a5.533 5.533 0 0 1-.197.118c-.024.014-.11-.035-.258-.145-.16-.121-.267-.236-.32-.344a2.021 2.021 0 0 1-.105-.259 1.214 1.214 0 0 1-.053-.247 1.36 1.36 0 0 1-.47.44c-.139.077-.282.125-.43.144-.124.016-.19.015-.196-.004a.85.85 0 0 0-.076-.132c-.032-.05-.046-.08-.044-.092.001-.004.007-.007.017-.008a.721.721 0 0 0 .182-.011 1.32 1.32 0 0 0 .403-.115.975.975 0 0 0 .403-.337c-.097-.023-.21-.046-.338-.072l-.421-.082-.037-.009c-.008-.003-.011-.01-.009-.02l.044-.195c.003-.012.013-.016.03-.012l.024.005.236.061.16-.702c.006-.027.018-.04.035-.035.054.012.1.025.136.038.036.013.055.022.055.027l.392.09.046-.245a2.952 2.952 0 0 1-.005-.06c.003-.016.019-.026.045-.031l.04.009a1.063 1.063 0 0 1 .173.043c.03.01.044.021.042.032a.094.094 0 0 1-.02.035.753.753 0 0 1-.03.038l-.053.232.462.106Zm-.203.721.118-.52-.429-.097a3.403 3.403 0 0 1-.16.517l.47.1ZM27.968 76.497l-.552-.02-.01.252.58.04a10.727 10.727 0 0 1-.014-.145 1.127 1.127 0 0 1-.004-.127Zm.74-.66.155-.004c.014 0 .02.008.02.022-.014.392-.018.61-.012.65.002.022-.008.032-.032.032l-.18-.007-.018-.008-.437-.016a2.346 2.346 0 0 0 .006.274c.089.003.174.005.255.005a56.912 56.912 0 0 1 .492 0c.012 0 .017.005.015.016l-.007.204c.003.01-.004.016-.02.015l-.044-.001-.663-.041.022.086c.007.024.017.054.03.089a.727.727 0 0 0 .207.298c.14.122.234.172.282.15.02-.011.037-.063.048-.154 0-.016.002-.034.005-.055.003-.021.01-.031.021-.031.037.022.072.04.107.058a.254.254 0 0 0 .103.027c.005 0 .007.007.006.021a.693.693 0 0 1-.072.236c-.052.115-.1.174-.144.177a.483.483 0 0 1-.214-.054 1.032 1.032 0 0 1-.324-.216.968.968 0 0 1-.253-.426c-.02-.07-.036-.14-.049-.215l-.617-.006-.022.587c.12-.016.234-.035.34-.058l.354-.085c.004-.002.011 0 .02.003l.005.002-.008.208c0 .013-.006.02-.017.02-.132.029-.263.056-.391.082-.13.027-.266.05-.41.072a.234.234 0 0 1-.081.032c-.022.004-.048-.032-.078-.106-.03-.075-.04-.115-.028-.12.014-.01.027-.05.04-.12l.01-.307.02-.546.031-.756c0-.023 0-.044-.003-.062a.236.236 0 0 1-.005-.034c0-.005.01-.007.03-.006a.708.708 0 0 1 .112.016l1.393.052Zm-.066.47.01-.257-1.216-.045-.012.257 1.218.045ZM29.756 76.286l-.153.018-.033.003c-.014 0-.021-.004-.022-.015l-.019-.21c0-.01.005-.016.018-.017l.035-.004c.03-.002.1-.006.21-.01l.222-.013c.045-.004.116-.013.211-.026a4.978 4.978 0 0 1 .235-.03c.012 0 .018.004.018.015l.018.215c.003.01-.002.016-.014.017-.018 0-.034 0-.05.002a6.569 6.569 0 0 1-.218.013 8.863 8.863 0 0 0-.181.01l-.035.003v.103c0 .038.003.089.008.153l.247-.022.169-.036c.006 0 .012.04.02.123.012.147.021.34.026.58.004.239 0 .39-.011.452a.26.26 0 0 1-.13.175.434.434 0 0 1-.188.06c-.051.004-.079 0-.083-.013a8.427 8.427 0 0 1-.04-.103.789.789 0 0 0-.035-.078c-.002-.004-.001-.007.002-.01a.705.705 0 0 1 .105-.007.25.25 0 0 0 .085-.018.146.146 0 0 0 .067-.067c.027-.056.034-.216.021-.481a9.37 9.37 0 0 0-.024-.36l-.212.019.002.021c.007.08.008.2.005.362a2.813 2.813 0 0 1-.031.39 2.012 2.012 0 0 1-.068.294 1.36 1.36 0 0 0-.047.082.446.446 0 0 0-.121-.072.753.753 0 0 1-.083-.035.636.636 0 0 0 .047-.11c.02-.064.038-.139.053-.224.014-.085.023-.184.027-.296a3.533 3.533 0 0 0-.016-.408l-.037-.445Zm.388-.316a.506.506 0 0 1-.112.036.762.762 0 0 0-.094.024c-.01.004-.02-.007-.03-.032a1.656 1.656 0 0 0-.139-.289l.001-.011a.426.426 0 0 1 .094-.027c.05-.011.084-.021.103-.03l.017.002c.047.076.089.148.125.216.035.068.047.105.035.111Zm.923.457.173-.013c.043-.004.101-.01.174-.02a4.083 4.083 0 0 1 .181-.023c.01 0 .014.005.013.016l.018.198c.002.01-.003.016-.015.017h-.024c-.03.003-.075.005-.137.006a2.548 2.548 0 0 0-.123.005l-.022.044a4.423 4.423 0 0 0 .015.24c.08-.006.153-.015.218-.024a42.772 42.772 0 0 0 .255-.038c.008 0 .011.005.01.016l.019.207c.002.01-.003.017-.015.018l-.042.001-.186.005a3.14 3.14 0 0 0-.181.011.894.894 0 0 0 .063.133.533.533 0 0 0 .135.153 1.07 1.07 0 0 0 .27.147c.01.012.015.022.016.03.001.013-.007.03-.024.05a.675.675 0 0 0-.088.117 3.522 3.522 0 0 0-.116-.04 1.23 1.23 0 0 1-.19-.129.694.694 0 0 1-.098-.103.947.947 0 0 1-.087-.132.703.703 0 0 1-.188.299.82.82 0 0 1-.228.156c-.072.033-.113.043-.124.032a2.529 2.529 0 0 0-.109-.115c-.027-.028-.041-.046-.042-.055 0-.01.014-.019.045-.028a1.12 1.12 0 0 0 .178-.076.553.553 0 0 0 .273-.334.478.478 0 0 0 .015-.079 4.086 4.086 0 0 0-.229.026l-.177.026-.03.003c-.013 0-.02-.004-.02-.015l-.018-.203c-.001-.012.003-.019.012-.02h.035a16.332 16.332 0 0 0 .44-.02l-.01-.122a2.4 2.4 0 0 1-.008-.109.288.288 0 0 0-.006-.046L31 76.65c-.058.145-.107.219-.148.222-.003 0-.009 0-.019-.003a1.92 1.92 0 0 0-.103-.047.626.626 0 0 0-.07-.025 6.94 6.94 0 0 1 .067-.111 1.157 1.157 0 0 0 .133-.4.235.235 0 0 1-.008-.038c-.002-.02.01-.03.035-.032a.532.532 0 0 1 .16.043c.05.017.076.032.077.044.001.011-.008.026-.026.045a.09.09 0 0 1-.016.013l-.015.065Zm-.216-.538.357-.02c.064-.005.125-.011.184-.019a11.25 11.25 0 0 0 .25-.035c.01 0 .014.005.014.016l.019.216c.002.011-.002.017-.013.018l-.04.001a6.153 6.153 0 0 1-.187.01c-.1.003-.169.007-.208.01-.06.006-.123.013-.188.022l-.23.03-.01.026a1.217 1.217 0 0 1-.088.238c-.04.083-.068.124-.084.122a.573.573 0 0 1-.12-.048.222.222 0 0 0-.081-.023l.074-.148c.037-.072.065-.142.084-.21.018-.068.034-.136.046-.203a.585.585 0 0 0 .016-.144.425.425 0 0 1-.012-.058c-.001-.01.002-.017.01-.017.03-.003.08-.001.15.004.072.006.108.017.11.034a.095.095 0 0 1-.013.047 1.72 1.72 0 0 1-.03.058l-.01.073ZM33.21 75.713c.084-.026.192-.062.322-.106a38.612 38.612 0 0 1 .534-.18c.009-.003.014-.004.016-.003.004 0 .006.005.007.015l.063.203c.005.012.001.02-.01.023l-.041.012c-.067.02-.195.057-.385.108-.19.052-.327.09-.412.117a1.33 1.33 0 0 0 .394.457c.095.07.21.128.344.173a1.9 1.9 0 0 0 .47.096 2.437 2.437 0 0 0-.007.1 1.058 1.058 0 0 1-.09.179c-.006.01-.061.002-.165-.023-.12-.028-.24-.07-.361-.124a1.36 1.36 0 0 1-.505-.376 1.917 1.917 0 0 1-.112-.14l-.002.069a1.524 1.524 0 0 1-.165.627 1.411 1.411 0 0 1-.278.377c-.092.088-.146.127-.16.115a1.945 1.945 0 0 0-.134-.084c-.054-.032-.083-.055-.087-.069-.002-.006.001-.012.01-.017a1.377 1.377 0 0 0 .41-.448c.099-.178.151-.368.156-.57.003-.082 0-.167-.01-.256l-.754.253-.03.009c-.011.003-.019 0-.023-.013l-.061-.201c-.004-.013.002-.023.018-.028l.023-.007.798-.22a4.785 4.785 0 0 0-.098-.402 2.157 2.157 0 0 0-.053-.15.241.241 0 0 1-.023-.032c-.004-.015.003-.03.023-.047l.016-.004a1.315 1.315 0 0 1 .185-.052c.038-.007.06-.004.063.008.004.011.005.03.004.052a.403.403 0 0 0-.001.037l.037.16c.026.118.05.238.073.362ZM34.983 74.772a.629.629 0 0 1-.058.072c-.056.06-.086.094-.092.104l-.13-.102a2.214 2.214 0 0 0-.188-.146l-.005-.016a.346.346 0 0 1 .043-.055c.048-.056.076-.092.085-.107a.108.108 0 0 1 .02-.005c.076.042.151.092.226.149.075.057.107.093.099.106Zm.453-.305a.45.45 0 0 1-.068.061l-.11.083c-.008.007-.042-.022-.103-.087a1.616 1.616 0 0 0-.199-.18l-.004-.013a.439.439 0 0 1 .078-.061.471.471 0 0 0 .091-.075l.018-.002c.08.06.15.118.215.174.064.057.091.09.082.1Zm.725-.128.133-.078c.013-.007.022-.003.029.01l.115.224c.04.078.073.136.101.174.012.017.008.03-.013.041l-.16.082c-.016.007-.028.002-.037-.016l-.114-.223-1.407.717.106.207.014.029c.002.01-.005.018-.02.026a3.028 3.028 0 0 0-.139.073.169.169 0 0 1-.037.014c-.013.003-.023-.008-.03-.032a3.762 3.762 0 0 0-.182-.383c-.01-.02-.008-.035.007-.043l.115-.047 1.52-.775Zm-.224-.394c.001.01-.003.021-.013.035-.01.013-.014.022-.014.025l-.024.262a.682.682 0 0 1-.033.16c-.016.046-.032.068-.048.068l-.218-.015.016-.072a.782.782 0 0 0 .052-.17c.005-.036.008-.077.01-.123a.565.565 0 0 0-.003-.112.285.285 0 0 1-.013-.035c-.003-.013.002-.024.016-.035a.505.505 0 0 1 .14-.013c.083-.002.127.006.132.025Zm.007 1.195-.324.163-.292.15a1.419 1.419 0 0 0-.224.134c-.013.006-.023.003-.03-.011l-.08-.159c-.011-.02-.002-.035.026-.042.026-.006.101-.038.226-.097a9.995 9.995 0 0 0 .524-.262c.06-.032.121-.068.184-.11l.065-.043.024-.014.06-.038c.01-.006.035.01.074.048.038.038.057.062.055.072-.033.111-.072.22-.118.325-.034.08-.07.151-.107.212.076-.039.195-.102.355-.19.161-.088.273-.148.335-.18l.038-.02c.014-.006.022-.005.025.004l.085.166c.005.007.006.011.004.014a4.673 4.673 0 0 1-.053.03l-.738.355.121.242c.01.02.016.046.017.079a.187.187 0 0 1-.032.113.321.321 0 0 1-.067.067.557.557 0 0 1-.088.057c-.043.022-.066.03-.069.024a.71.71 0 0 0-.122-.095 1.162 1.162 0 0 1-.035-.032l.037-.019.04-.02.046-.024a.208.208 0 0 0 .053-.034c.009-.01.005-.032-.012-.066a.881.881 0 0 1-.027-.049l-.035-.067a1.291 1.291 0 0 1-.033-.071c-.107.054-.226.117-.356.188a522.089 522.089 0 0 1-.457.247c-.012.006-.021.005-.026-.005l-.084-.165c-.005-.01 0-.018.016-.026l.023-.012.362-.174c.188-.089.33-.157.425-.206a.077.077 0 0 0-.014-.014.071.071 0 0 1-.014-.016.022.022 0 0 1 .001-.024 2.236 2.236 0 0 0 .216-.405ZM15.532 66.832l.012-.003 1.786-.47-.11-.419-2.092.55.185.702 1.65.072.004.012-1.41.843.193.734 2.091-.55-.11-.419-1.786.47-.014-.008 1.652-1.027-.099-.373-1.952-.114Zm-.552-1.696.046.465 2.152-.216-.047-.466-2.151.217Zm2.168-2.706-2.16-.085-.018.432 1.694.067.011.012-1.737.75-.027.69 2.16.084.017-.432-1.787-.07-.01-.012 1.83-.77.027-.666Zm.077-.424.409-1.608-.352-.09-.267 1.054-1.131-1.385-.352-.089-.385 1.518.351.09.248-.975 1.128 1.396.351.09Zm-.823-4.28 1.067.504c.237.102.382.205.437.308.068.11.064.246-.012.408-.077.163-.18.256-.313.28-.114.023-.286-.023-.515-.14l-1.068-.504-.2.423 1.227.579c.493.214.878.047 1.155-.503.241-.55.124-.949-.352-1.2l-1.227-.578-.2.423Zm2.033-3.064.915.746c.204.157.32.292.348.405.04.124.003.255-.11.394-.114.139-.237.203-.37.195-.118-.005-.273-.092-.467-.26l-.915-.747-.295.362 1.05.858c.426.328.84.258 1.241-.209.368-.474.35-.89-.05-1.249l-1.05-.858-.297.363Zm3.913-.63-1.383-1.662-.332.277 1.083 1.303-.001.016-1.72-.788-.53.44 1.382 1.663.333-.277-1.144-1.375.002-.016 1.798.846.512-.426Zm-.164-2.366-.41.225 1.04 1.896.41-.225-1.04-1.896Zm2.084 1.362.463-.194-.103-2.302-.42.176.142 1.791-.01.005-1.178-1.357-.464.194 1.57 1.687Zm1.556-.547 1.453-.303-.074-.354-.996.207-.116-.56.892-.187-.074-.355-.892.186-.102-.492.96-.2-.073-.355-1.419.296.44 2.117Zm2.412-2.21.386-.006c.218-.01.329.078.331.265.003.202-.105.305-.323.308l-.386.005-.008-.573Zm.013.934.49-.006c.118-.002.185.091.203.278.01.202.04.397.09.583l.502-.007c-.056-.085-.097-.256-.124-.512a.3.3 0 0 0-.012-.07c-.02-.312-.15-.47-.392-.475v-.01c.287-.075.433-.252.437-.533-.012-.366-.264-.55-.756-.551l-.922.012.028 2.162.467-.006-.011-.865Zm3.524-.408c.038-.42-.174-.675-.633-.766-.575-.051-.906.14-.993.577-.041.285.165.516.62.692a.33.33 0 0 0 .078.035c.262.094.382.213.36.36-.032.176-.188.248-.467.215-.237-.05-.338-.198-.302-.445l-.463-.067c-.076.47.164.744.72.825.603.072.941-.116 1.014-.562.05-.292-.168-.525-.655-.697a.38.38 0 0 0-.056-.02c-.272-.079-.389-.198-.35-.358.032-.169.162-.244.388-.227.223.032.323.157.3.374l.439.064Zm1.356-.278-.45-.131-.604 2.076.449.13.605-2.075Zm.444.518.595.243-.682 1.666.433.177.681-1.666.596.244.137-.336-1.623-.664-.137.336Zm1.759 2.858.38.25.385-.587 1.407-.824-.39-.257-.926.582.173-1.075-.46-.301-.185 1.626-.384.586Zm2.428 2.083c.47.467.971.461 1.505-.017.519-.53.555-1.038.108-1.527-.475-.474-.987-.463-1.538.032-.507.507-.532 1.01-.075 1.512Zm1.368-1.31c.248.26.181.572-.202.938-.377.361-.69.412-.937.153-.254-.264-.192-.577.185-.938.383-.367.701-.418.954-.153Zm-.13 2.865.785-.486.462.746.307-.19-.461-.746.437-.27.492.794.308-.19-.731-1.183-1.84 1.138.24.387Zm2.918 2.965c.458-.18.603-.545.435-1.096-.198-.543-.65-.713-1.355-.512-.678.233-.935.63-.772 1.192.186.554.508.77.968.648l-.15-.468c-.254.073-.426-.019-.517-.276-.064-.25.144-.46.62-.629.496-.142.79-.093.883.148.073.255-.014.43-.262.525l.15.468ZM40.7 61.816l.93-.177.155.816-.93.176.085.448 2.124-.403-.087-.46-.838.16-.153-.804.838-.16-.084-.447-2.125.403.085.448Zm2.364 2.227-.014-.468-2.162.067.014.467 2.162-.066Zm-2.426 2.55 2.145.273.055-.43-1.682-.213-.01-.013 1.796-.597.087-.684-2.145-.273-.054.43 1.774.225.01.013-1.892.608-.084.661Zm-.248.776.376.305-.281.806-.484.004-.154.442 2.292-.005.18-.519-1.783-1.452-.146.42Zm.68.535.768.602-.004.011-.968-.028.204-.585ZM109.452 59.272c0-.624.408-.38.873-.38l.069.083.032.223c-.095.202-.418.53-.708.53-.107 0-.266-.187-.266-.342v-.114Zm-1.059-.594.034.021.15.08c.001.174.057.607-.189.607-.058 0-.043-.075-.19-.114l-.053-.239.248-.355Zm1.742-1.954v.152c0 .33.266.528.266.76v.229c0 .237-.182.38-.418.38-.626 0-.152-1.06-.152-1.407v-.076c0-.183-.247-.38-.379-.38a.383.383 0 0 0-.314.143c-.042.058-.045.106-.074.153-.059.094-.032.004-.107.122-.025.041-.189.635-.189.723-.031.021-.094.076-.114.076-.115 0-.223-.234-.277-.331-.04-.07-.317-.24-.369-.24h-.114c-.235 0-.588.13-.668.282-.104.198-.244.48-.244.745-.172.116-.186.255-.189.534-.002.236-.115.528-.115.645v.152c0 .013.137.48.164.52.048.072.327.24.444.24h.19c.415 0 .573-.38.836-.38h.076c.26 0 .276.171.405.264l-.025.23c-.45.302-.393.317-.984.536-.548.203-.612.244-.612.833.753.4 2.019-.714 2.525-.97.309-.157 2.984-.763 2.984-.094v.076c0 .245-.836.624-.836 1.026v.076c0 .086.03.084.077.144l.265.047c.711-.377 1.188-.418 1.414-1.36.11-.462.099-.74-.338-.897-.242-.088-.109-.177-.506-.177-.209 0-.462-.076-.686-.048l-.568.086c-.068.012-.184-.085-.228-.114 0-.288-.084-.817.121-1.02.107-.104.753-.411.753-.463 0-.738-1.102.032-1.102-.684 0-.232.312-.52.447-.656.32-.322.331-.124.551-.589l-.515-.162.011-.419v-.038c0-.175-.084-.304-.266-.304h-.152c-.278 0-.309.637-.44.852-.179.295-.548.369-.548.783ZM52.736 60.717l-.114.152c0 .263-.076.322-.076.532 0 .806.31 1.369 1.101 1.369.427 0 .798-.381.798-.76 0-.375-.102-1.163-.252-1.421-.07-.121-.046-.196-.103-.316-.043-.091-.107-.116-.184-.234-.084-.128-.371-.31-.563-.31-.48 0-.608.487-.608.988ZM105.501 62.2c-.257.136-.117.196-.213.432-.074.181-.167.114-.167.48v.304c0 .17.17.096.193.336l.111.045c.694-.058.752-.268.988-.76-.6-1.135.076-1.122.076-1.484 0-.183-.072-.203-.19-.266-.252.12-.379.003-.532.305-.137.27-.266.253-.266.608ZM98.74 62.162c.226-.472-.002-.267.462-.602a2.98 2.98 0 0 1 .692-.372c.124-.044.622-.273.723-.341.139-.094.401-.467.401-.663v-.076c0-.4-.714-.456-1.14-.456-.103-.156-.153-.138-.253-.354-.102-.218-.041-.189-.212-.359-.122-.121-.135-.22-.32-.288-.092-.034-.383-.178-.392-.178h-.114c-.118 0-.09.084-.242.138-.116.041-.2.024-.281.099-.012.01-.253.472-.26.5-.05.184-.053.486-.052.708.002.61-.114.283-.19.57-.484.011-.64.167-.973.244-.33.076-.151.079-.39.218-.165.096-.138.21-.162.45-.095.99 1.372.497 1.372.99v.038c0 .41-.713 1.021-.721 1.407-.301.16-.567.893-.798.912l-.107.572c.052.067.039.113.145.113.04 0 .77-.31.83-.35.18-.118.466-.4.598-.578.148-.198.86-1.316 1.003-1.316h.19c.306 0 .648.507.809.712.14.18.426.8.577.905.248.173.519.544.85.67.425.163.598.261 1.221.261.459 0 1.28-.232 1.557-.418l.024-.037-.644-.42-.025.038c-.046-.171-.164-.19-.38-.19-.252-.376-.448-.093-.66-.328-.071-.078-.475-.315-.632-.318l-.993-.875-.227-.19-.033.038c-.055-.234-.36-.386-.582-.482-.456-.196-.337-.168-.672-.392ZM87.76 65.736h.076v-.076h-.076v.076Zm.913-.72.044.109-.159.003.003-.07.112-.042Zm.797-2.664c.133-.031.304-.154.304.038v.114c0 .152-.103.092-.228.152l-.122-.106.046-.198Zm-1.71 3.308h-.151c-.02.036-.152.317-.152.342v.228c0 .088.026.114.113.114h.152c.252 0 1.345-.591 1.558-.722.498-.306.78-.97 1.102-1.14.452.105 1.119 1.558 1.937 1.558h.114c.288 0 .326-.573.608-.722l-.167-.178c-.042-.202-.62-.653-.897-.659-.055-.238-.198-.157-.418-.304-.36 0-.631-.099-.76-.342.15-.314.105-.324.312-.64.22-.334.263-.212.57-.38.232-.127.41-.157.645-.303.196-.122.375-.29.6-.35-.098-.147-.085-.323-.24-.368-.16-.048-.41-.008-.58-.028-.367-.043-.508.344-.699.472l-.15-.078-.002-.188-.444-.431c.196-.38.283-.377.549-.643.167-.168.465-.374.465-.676 0-.032-.126-.266-.19-.266-.032 0-1.14.442-1.14.114 0-.195.317-.589.425-.754.139-.214.427-.358.63-.51.18-.136 1.263-.907 1.263-1.055 0-.303-.412-.21-.645-.19-.419.038-.387.153-.647.228-.252.072-.817.6-.95.798l-.23-.186c.144-.271.724-.68.724-1.106 0-.188-.517-.532-.797-.532h-.152c-.382 0-.788.591-.798 1.026-.224.119-.418.756-.418 1.14v.153c0 .167.033.456.19.456h.152c.004 0 .607-.322.646-.38.159 0 .417-.093.417.114v.19c-.238.064-.847.62-.938.847-.419 1.042.047.64.179 1.206-.068.128-.228.24-.228.343v.114c-.182.004-.214.016-.228.19l-.189-.047-.001-.22h-.038c0 .658-.57 1-.57 1.56a.44.44 0 0 0 .152.342c.3-.07.984-.266 1.254-.266.049 0 .193.059.266.076l-.048.264-.599.724c-.157.004-.24.08-.364-.014-.08-.06-.147-.237-.205-.062h-.114l-.188-.33-.023.035-.263.496.055.18a.921.921 0 0 0-.455.76ZM68.5 63.036c-.438 0-.597.152-.675.502-.145.65.174.354.477.61.216.183.403.377.472.706.037.177.144.128.179.43.028.25.02.26.194.376v.19l.255.196.465.079.077-.009c.77 0 .802-1.65.458-1.98-.098-.093-.16-.228-.334-.387a19.304 19.304 0 0 0-.43-.293c-.31-.203.004-.098-.477-.244-.16-.048-.291-.176-.546-.176H68.5ZM76.858 59.462c.208-.11.635-.216.897-.319.333-.131.413-.312.65-.528.352-.32 1.188-.561 1.188-1.206v-.19c0-.381-.47-.685-.798-.685h-.19c-.398 0-.35.167-.76.227-.245.036-.191.099-.34.154-.116.044-.272.041-.405.09-.231.085-.44.255-.623.365-.173.104-.379.299-.379.571 0 .292.43.465.662.436.147-.019.33-.085.412-.16.203-.18.144-.091.37-.2l.162.139c-.251.469-.966.614-.998 1.002-.17-.114-.32-.543-.65-.562-.278-.016-.61.255-.747.419-.296.355-.502 1.222-.502 1.892-.316.471-.402 2.818-.38 3.574l.043.608.282.541c.446-.008.527.182.814.182h.076c.585 0 1.191-.89 1.431-1.305.432-.748.622-.914.849-1.89l.27.105c-.005.433.103.816.207 1.167.145.489 1.103 1.385 1.527 1.741.17.143.715.486.996.486h.153c.143 0 .253-.093.341-.152 0-.376-.018-.61.102-.887.062-.142.087-.189.14-.354.066-.207.176-.23.176-.318 0-.065-.206-.29-.304-.342-.192.102-.418.418-.418.722h-.152c-.255 0-.75-.665-.922-.863-.138-.16-.26-.391-.397-.553-.147-.175-.618-1.018-.618-1.283 0-.516.798-1.08.798-1.407 0-.154-.272-.343-.418-.343-.062 0-.563.26-.646.305-.23-.345.008-.875-.608-.875h-.152c-.261 0-.607.2-.607.456v.267c0 .169.152.058.152.228v.38c-.183.015-.213.045-.228.228-.21.05-.418.342-.418.608v.038c0 .136.108.134.19.19.106-.07.16-.114.342-.114h.038c.116 0 .152.112.152.229v.038c0 .275-.102.346-.266.456 0 .22-.758 1.15-.9 1.419-.074.14-.118.406-.278.406h-.076c-.253 0-.345-.965-.343-1.293a6.61 6.61 0 0 1 .183-1.453c.105-.429.186-.93.35-1.284.158-.342.286-.85.38-1.255l.19.152Z"/><path d="M68.12 59.538c0-.203.18-.418.38-.418.165 0 .267.092.267.266 0 .265-.254.532-.494.532-.076 0-.152-.158-.152-.266v-.114Zm1.976-.913c0-.414-.397-.559-.532-.76-.245 0-.768-.019-1.064-.037-.426-.027-.303-.377-.303-.686 0-.225.033-1.092-.013-1.203-.081-.194-.222-.21-.443-.242-.217-.032-.439-.152-.532-.152-.055 0-.27.253-.314.306l.178 1.366-.016.838c0 .134-.386.207-.554.32-.111.074-.434.312-.434.44v.153c0 .102.263.532.494.532.116 0 .154-.037.228-.076.129.03.304.075.304.228 0 .185-.05.824-.09.974-.084.305-.176.477-.176.89-.18.095-.26.265-.456.265h-.152c-.084 0-.225-.204-.266-.266l-.047-.531.01-.8c0-.367.097-.812-.037-1.066-.06-.113-.517-.493-.685-.493h-.228c-.176 0-.418.217-.418.38 0 .642.034 1.053.15 1.561.052.227.078 1.311.078 1.596l-.722.08-.143.156c-.383-.008-.759.175-.882.41-.279 0-.322.045-.418.228-.286.006-.418.209-.418.495v.038c0 .285.168.163.227.418.235 0 .255.076.418.076 1.015 0 2.047-1.217 3.078-1.217h.075c.155 0 .205.06.267.152-.064.27-.378.587-.561.77-.153.153-.204.184-.363.322-.367.318-2.013 1.206-2.116 1.646-.173.014-.186.046-.19.228l-.205.175.102.2.18.005c.234 0 .377-.117.536-.185.134-.058.43-.074.574-.11.259-.063.742-.33.93-.476.554-.428.982-.812 1.37-1.403 1.438-2.185.254-1.894 3.617-1.894.39 0 .75-.204.815-.517.04-.19-.066-.33-.212-.391-.147-.061-.343-.195-.45-.195h-.19c-.397 0-.863.266-1.444.266h-.38c-.224 0-.262-.123-.304-.304.147-.22.43-.351.668-.51.29-.192.395-.308.646-.494.305-.225.813-.977.813-1.506ZM85.254 60.489c0-.055 1.085-1.077 1.266-1.166.568-.28 1.62-.136 1.62-.812v-.57c0-.35-.774-.57-1.215-.57h-.076c-1.143 0-.329 1.238-.806 1.626-.201.163-.204.003-.28.329a.51.51 0 0 1-.256.352c-.14.09-.581.448-.595.62-.233.02-.13.07-.208.173-.09.121-.061-.015-.196.146a2.89 2.89 0 0 1-.36.361c-.05.043-.275.333-.337.386-.102.087-.229.278-.229.456 0 .118.101.304.228.304.086 0 .371-.162.463-.183.181-.04.342-.06.52-.088.531-.082.59-.452.764-.452h.114c.102 0 .113.055.152.114-.065.792-.926 1.43-.95 1.711l-.15.043c-.009.344-.448.433-.457.832-.32.026-.19.61-.19.874.286.192.991.127 1.107-.222.1-.298.338-.785.503-1.055.178-.29 1.054-1.803 1.315-1.803.054 0 .19.2.19.267v.038c0 1.057-.403 1.558-.798 2.205-.147.24-.49.596-.782.7-.473.169-.51.334-.51.973v.152c0 .088.027.114.115.114h.038c.026 0 .794-.187.849-.214.175-.085.373-.38.487-.539.188-.262.633-.997.738-1.314.18-.54.382-.897.547-1.544.066-.255.078-.632.112-.917.055-.464-.302-.396-.302-.719 0-.155 1.177-1.056 1.177-1.293 0-.227-.57-.38-.864-.334-.21.033-.78.212-.96.295-.201.094-.672.327-.842.45-.113.083-.64.54-.715.54-.098 0-.038-.026-.19-.038-.013-.157-.037-.085-.037-.228ZM57.408 59.728c0-.586.47-.68.988-.722.083.055.228.11.228.228v.152c0 .195-.744.76-.95.76h-.076c-.167 0-.19-.244-.19-.418Zm-1.33 8.1c.393-.209.72-.37.724-.988.004-.525.12-.99.204-1.469.157-.898-.006-2.356.176-3.17.119-.534.594-.471 1.024-.686.368-.183.593-.513.883-.79.127-.122.341-.25.454-.381.13-.15.263-.291.402-.434.456-.47.207-.906.389-1.284-.198-.374-.29-.653-.874-.647-.16.001-.553-.02-.714-.046-.338-.055-.302.046-.616.046h-.342c-.085 0-.303-.157-.303-.266v-.419c0-.187.074-.44.113-.608-.271-.406-.375-.608-1.063-.608-.388 0-.53.464-.567.802-.057.515.04.765-.2 1.13-.274.417-.285.394-.7.668-.198.13-.433.568-.433.898 0 .625.194.502.663.592.315.06.59.294.59.625v.038c0 .511-.949.518-.949 1.255v.038c0 .455.167.38.494.38.47 0 .266 1.123.266 1.597v1.825c0 .288-.114.476-.114.646 0 .029.076.1.076.305-.157.122.038.788.418.95Zm53.45-.76c.271-.155.432-.35.615-.602.135-.187.299-.596.297-.92-.003-.629-.093-.647.303-.913.805 0 1.254-.131 1.254-.95 0-.116-.036-.154-.076-.228l-.764-.083c-.064.014-.062.044-.148.044h-.418c-.203 0-.531-.181-.531-.418 0-.14.418-.521.418-1.293v-.19c0-.156-.297-.228-.456-.228h-.114c-.001 0-.515.116-.555.13-.175.059-.285.146-.317.329-.118.66.454.387.454.796v.532c0 .036-.107.19-.158.299-.059.128-.177.083-.374.082-.465-.004-.407.004-.684.19h-.38l.136-.256-.174-.01c-.584 0-.204.107-.721.228.202.276.332-.188.531.228-.62.014-1.072.422-1.291.836l.244.755c.069.025.071.044.174.044h.038c.058 0 .561-.06.72-.078.103-.012.491-.145.615-.183.235-.073.972-.348 1.21-.348h.076c.162 0 .304.117.304.266 0 .112-.232.524-.302.573-.165.112-.519.074-.8.074-.104.07-.418.492-.418.646v.457c.111.656.86.437 1.292.19ZM54.854 70.431v2.449h.57v-2.85h-.955l-.647 2.08h-.016l-.6-2.08h-1v2.85h.569v-2.433l.015-.016.755 2.449h.508l.801-2.449Zm1.296 2.449h.617v-2.85h-.617v2.85Zm3.9 0v-2.85h-.57v2.234l-.015.015-1.079-2.248h-.909v2.849h.57v-2.356l.016-.015 1.11 2.371h.877Zm.557 0h2.187v-.478h-1.432l1.4-1.893v-.478H60.7v.478h1.324l-1.417 1.893v.478Zm4.67-2.85v1.556c.01.34-.032.57-.124.693-.092.144-.257.216-.493.216s-.405-.072-.508-.216c-.092-.123-.133-.354-.123-.693v-1.555h-.616v1.786c.02.709.436 1.074 1.248 1.094.79-.02 1.2-.385 1.231-1.094v-1.786h-.616Zm4.157 0v1.556c.01.34-.03.57-.123.693-.092.144-.256.216-.492.216-.237 0-.406-.072-.509-.216-.092-.123-.133-.354-.123-.693v-1.555h-.616v1.786c.02.709.436 1.074 1.248 1.094.79-.02 1.2-.385 1.232-1.094v-1.786h-.617Zm3.962 2.85v-2.85h-.57v2.234l-.016.015-1.078-2.248h-.909v2.849h.57v-2.356l.016-.015 1.109 2.371h.878Zm.695 0h.617v-2.85h-.617v2.85Zm2.16 0h.662l1.047-2.85h-.6l-.74 2.25h-.015l-.74-2.25h-.662l1.048 2.85Zm2.19 0h1.956v-.478h-1.34v-.754h1.201v-.478h-1.201v-.661h1.294v-.478h-1.91v2.849Zm3.237-2.371h.508c.288-.01.432.107.432.354 0 .267-.144.4-.432.4h-.508v-.754Zm0 1.232h.647c.154 0 .241.123.262.369.01.267.046.524.108.77h.662c-.072-.113-.124-.339-.154-.677a.411.411 0 0 0-.016-.093c-.02-.41-.19-.621-.508-.632v-.015c.38-.092.575-.323.585-.693-.01-.482-.338-.729-.986-.74h-1.216v2.85h.616v-1.14Zm4.361-.894c-.03-.554-.354-.847-.97-.878-.76.042-1.155.354-1.186.94 0 .38.314.642.94.785a.44.44 0 0 0 .107.03c.36.073.54.206.54.402-.01.236-.2.358-.57.369-.319-.02-.478-.195-.478-.524h-.616c-.01.626.354.94 1.094.94.8-.02 1.206-.329 1.216-.924.01-.39-.318-.652-.985-.786a.498.498 0 0 0-.078-.015c-.369-.051-.544-.185-.523-.4.01-.226.164-.35.462-.37.298 0 .452.144.462.431h.585Zm.711 2.033h.617v-2.85h-.617v2.85Zm1.112-2.371h.847v2.371h.617v-2.371h.847v-.478h-2.31v.478Zm3.592 2.371h.6v-.924l.955-1.925h-.616l-.6 1.309-.586-1.31h-.724l.97 1.926v.924Zm4.235.03c.872-.02 1.324-.502 1.355-1.447-.031-.975-.483-1.473-1.355-1.494-.883.021-1.34.519-1.37 1.494.02.945.476 1.428 1.37 1.448Zm0-2.494c.472 0 .708.349.708 1.047 0 .688-.236 1.032-.708 1.032-.483 0-.724-.344-.724-1.032 0-.698.24-1.047.724-1.047Zm2.62 2.464v-1.217h1.156v-.477H98.31v-.677h1.232v-.478h-1.833v2.849h.6Zm4.929-1.925c-.042-.647-.442-.975-1.201-.986-.761.031-1.155.53-1.186 1.494.02.945.416 1.428 1.186 1.448.77-.01 1.17-.329 1.201-.955h-.647c-.01.35-.195.528-.554.539-.339-.02-.519-.365-.54-1.032.021-.678.201-1.027.54-1.047.349.01.533.19.554.539h.647Zm1.188 1.925v-1.247h1.094v1.247h.6v-2.85h-.615v1.125h-1.079v-1.124h-.6v2.849h.6Zm2.422 0h.616v-2.85h-.616v2.85Zm3.899 0v-2.85h-.57v2.234l-.015.015-1.078-2.248h-.909v2.849h.57v-2.356l.015-.015 1.109 2.371h.878Zm1.081 0 .216-.6h1.124l.216.6H114l-1.002-2.85h-.723l-1.032 2.85h.585Zm.369-1.078.416-1.217h.016l.385 1.217h-.817Z"/></g><defs><filter id="a" x="-13" y="0" width="154" height="157" filterUnits="userSpaceOnUse" color-interpolation-filters="sRGB"><feFlood flood-opacity="0" result="BackgroundImageFix"/><feColorMatrix in="SourceAlpha" values="0 0 0 0 0 0 0 0 0 0 0 0 0 0 0 0 0 0 127 0" result="hardAlpha"/><feOffset dy="16"/><feGaussianBlur stdDeviation="6.5"/><feColorMatrix values="0 0 0 0 0 0 0 0 0 0 0 0 0 0 0 0 0 0 0.03 0"/><feBlend in2="BackgroundImageFix" result="effect1_dropShadow_49_346"/><feBlend in="SourceGraphic" in2="effect1_dropShadow_49_346" result="shape"/></filter></defs></svg>