<?xml version="1.0" encoding="UTF-8"?>
<svg xmlns="http://www.w3.org/2000/svg" version="1.1" viewBox="0 0 128 38.9">
  <defs>
    <style>
      .cls-1 {
        fill: #a7202c;
        fill-rule: evenodd;
      }
    </style>
  </defs>
  <!-- Generator: Adobe Illustrator 28.7.1, SVG Export Plug-In . SVG Version: 1.2.0 Build 142)  -->
  <g>
    <g id="_图层_1" data-name="图层_1">
      <path class="cls-1" d="M26.8,18.6h1.7v-5l-3.9,2v8.4h2.3v-5.4h0ZM31.5,24.1h2.3v-8.5l-3.9-2v5h1.7s0,5.4,0,5.4ZM27.2,23.5h3.9v-.4h-3.9v.4ZM27.2,24.1h3.9v-.4h-3.9v.4ZM26,24.8h6.4v-.4h-6.4v.4h0ZM24.1,25.7h10.2v-.5h-10.2v.5Z"/>
      <path class="cls-1" d="M29.2,34.2c-8,0-14.5-6.5-14.5-14.5s6.5-14.5,14.5-14.5,14.5,6.5,14.5,14.5-6.5,14.5-14.5,14.5h0ZM29.2,4.5c-8.4,0-15.2,6.8-15.2,15.2s6.8,15.2,15.2,15.2,15.2-6.8,15.2-15.2-6.8-15.2-15.2-15.2h0Z"/>
      <path class="cls-1" d="M29.2,11.1c4.7,0,8.5,3.8,8.5,8.5s-3.8,8.5-8.5,8.5-8.5-3.8-8.5-8.5,3.8-8.5,8.5-8.5ZM29.2,29c5.1,0,9.3-4.2,9.3-9.3s-4.2-9.3-9.3-9.3-9.3,4.2-9.3,9.3,4.2,9.3,9.3,9.3ZM34.5,10.2h0c0,0,0-.2,0-.2,0,0,0,0,0,0,0,0,0,0,0,0h0c0,0,0-.2,0-.2h0c0-.2,0-.2,0-.2h0c0-.1,0-.2,0-.2h0s0,0,0,0h0c0,0,0,.2,0,.2h0c0,0,0,.2,0,.2h0c0,0,0,.2,0,.2h0c0,.1,0,.2,0,.2h0c0,.1,0,.2,0,.2h0c0,0,0,.1.1.1s.1,0,.1,0c0,0,.1,0,.1,0,0,0,0,0,0,0h0s0,0,0,0h0c0,0,0-.1,0-.1h0s-.2-.2-.2-.2Z"/>
      <path class="cls-1" d="M32.5,9.8h0s0,0,0,0h0s0,0,0,0h0s0,0,0,0h.1c0,0,0-.1,0-.1h0s0,0,0,0h0s.1,0,.1,0h.1c0,0,0-.2,0-.2h0c0,0,0-.2,0-.2h0c0,0,.1-.2.1-.2h.1c0,0,.2,0,.2,0h.2s.1,0,.1,0h0c0,0,0-.1,0-.1h0c0,0,0-.2,0-.2h-.1c0,0,0-.1,0-.1h-.1s0,0,0,0h0c0,0,0-.1,0-.1h0s0,0,0,0h0c0,0,0-.1,0-.1h0c0,0,0-.2,0-.2h0c0,0,0-.1,0-.1h0c0,0,0,0,0,0h0s0,0,0,0h0s0,.1,0,.1h0c0,0,0,.2,0,.2,0,0,0,0,0,0h0c0,0,0,.2,0,.2h0c0,0,0,.1,0,.1h0s0,0,0,0h-.1s-.1,0-.1,0h0s-.1,0-.1,0h0s-.1,0-.1,0h-.1s0,.1,0,.1h0c0,0,0,.2,0,.2h0c0,0,0,.2,0,.2h0s0,.1,0,.1h0c0,0,0,.1,0,.1h0c0,.1,0,.2,0,.2h-.1c0,.1,0,.2,0,.2h-.2c0,0-.1,0-.1,0,0,0-.1,0-.1,0h0s0,0,0,0h0s0,.1,0,.1h0c0,0,0,.1,0,.1,0,0,0,0,0,0ZM39.1,13h.1s0-.1,0-.1h0c0,0,0-.2,0-.2h0c0-.1,0-.2,0-.2h0c0-.1,0-.2,0-.2h0c0-.1,0-.2,0-.2h0c0-.1,0-.2,0-.2h0c0-.1,0-.2,0-.2h0s0,0,0,0h0c0,0,0,.2,0,.2v.2s0,.2,0,.2h0c0,.1-.1.2-.1.2v.2c-.1,0-.1.1-.1.1h0c0,0,0,.2,0,.2,0,0,.1,0,.1,0ZM39.3,14.3h.1s.1,0,.1,0h0s0-.1,0-.1h0c0,0-.1-.2-.1-.2h-.2c0,0-.3-.1-.3-.1h-.2s0,0,0,0h0c0,.1,0,.2,0,.2h0c0,0,.1.1.1.1h.1s.1,0,.1,0h0c0,0,0,.2,0,.2,0,0,0,0,0,0,0,0,0,0,0,0h0c0,0,0,.1,0,.1h0s-.1,0-.1,0h-.1s0,0-.1,0c0,0-.1,0-.1,0h0c0,0,0,0,0,0h0c0,0,0,.1,0,.1h0c0,0,.1.1.1.1h.1s.2,0,.2,0h0s0,0,0,0h0c0,0,0,.2,0,.2h0c0,.1,0,.2,0,.2h0s-.1,0-.1,0h-.1s-.1,0-.1,0h0s0,0,0,.1,0,0,0,0h0s.1.1.1.1h.2s.1,0,.1,0h0c0,0,.1-.2.1-.2h0c0,0,0-.2,0-.2h0c0,0,.1,0,.1,0h0s0,0,0,0h0s0,0,0,0h0c0-.1,0-.2,0-.2h0c0,0-.1-.2-.1-.2h0s0,0,0,0h0c0,0,0-.1,0-.1h0c0-.1,0-.2,0-.2Z"/>
      <path class="cls-1" d="M37.9,13.4h.1s.1,0,.1,0h.1c0,0,.2,0,.2,0h.2s.3,0,.3,0h.2s.2,0,.2,0c.1,0,.3,0,.4,0h.2s.1,0,.1,0h.1c0,0,.1.2.1.2v.2s0,0,0,0h0c0,0,0,.2,0,.2h0s0,0,0,0h0s0,0,0,0h0s.1,0,.1,0h0c0,0,0,0,0,0,0,0,0,0,0-.1,0,0,0,0,0-.1,0,0,0,0,0-.1,0,0,0,0,0,0h0c0-.1,0-.3,0-.3h0c0,0,0-.1,0-.1h0c0,0,0-.1,0-.1h-.1c0,0-.1-.1-.1-.1h0s0,0,0,0h0s.1,0,.1,0h0s.1,0,.1,0h0c0,0,0-.1,0-.1h0c0,0,0-.2,0-.2h0c0,0,0-.2,0-.2h0c0,0,0-.2,0-.2h0c0,0,0,0,0,0h.1s.1,0,.1,0h0c0,0,.1,0,.1,0h0s0-.1,0-.1h0c0-.1,0-.2,0-.2h0c0,0,0-.2,0-.2h0c0-.1,0-.2,0-.2h-.1c0,0,0-.1,0-.1h0c0,0,0,.1,0,.1h0c0,0,0,.1,0,.1h0c0,.1-.1.1-.1.1h-.1c0,0-.1,0-.1,0h-.2s-.1,0-.1,0h0c0,0,0,.1,0,.1h0c0,0,0,.1,0,.1h0s0,0,0,0h0c0,.1,0,.2,0,.2h0s0,.1,0,.1h0c0,0,0,.1,0,.1h0s-.1,0-.1,0h-.1s0-.1,0-.1h0c0,0,0-.2,0-.2h0s0-.1,0-.1h0c0,0,0-.1,0-.1h0c0-.1,0-.2,0-.2h0c0,0,0-.2,0-.2h0c0,0,.1-.2.1-.2,0,0,0,0,0-.1s0-.2,0-.2h0s0,0,0,0h0s0,.1,0,.1h0c0,.1,0,.2,0,.2h0c0,.1,0,.2,0,.2h0c0,0,0,.2,0,.2v.2c0,0-.1.2-.1.2h0c0,.1,0,.3,0,.3h0c0,0,0,.1,0,.1h-.1c0,0-.1-.2-.1-.2h0s0,0,0,0h0s-.1,0-.1,0h-.2s-.1,0-.1,0h-.2s-.1,0-.1,0c0,0-.1,0-.1,0h0s0,0,0,0h0s0,0,0,0h-.1s-.1,0-.1,0h-.1c0,0,0,.2,0,.2h0c0,0,.1.2.1.2h0ZM19.7,13h0c0,0,0,.1,0,.1h0c0,0,0,.2,0,.2h0s0,0,0,0h0v-.2h0c0-.1,0-.2,0-.2h0c0-.1.1-.2.1-.2h0s0,.1,0,.1c0,0,0,0,0,0ZM20,13.1s.1-.4,0-.6c-.2-.1-.5.2-.5.3,0,0-.2.4-.2.4h0c0,0,0-.3,0-.3v-.2s0-.2,0-.2h0c0-.1,0-.2,0-.2h0s-.1,0-.1,0h0c0,0,0,.4,0,.4v.2c0,0-.2.2-.2.2h0c0,0,.1,0,.1,0h0s0,0,0,0h0c0,.1,0,.4,0,.8,0,.3.2.2.2,0,0-.1,0-.2,0-.2h0s.1,0,.1,0l.2.2v.3s-.1.3-.1.3v.3c0,0,0,.1,0,.1h.1c0,0,.1-.2.1-.2v-.2s0-.2,0-.2v-.2c.1,0,.6.7.6.7l-.2.2h.4c0,0,.3,0,.3-.2s-.1-.3-.1-.3l-.6-.8s.2-.3.2-.3c0,0,0-.2,0-.2,0,0-.2,0-.2,0,0,0-.1.2-.2.3h0c0,0,0-.4,0-.4l.2-.2h0Z"/>
      <path class="cls-1" d="M17.9,13.3c0-.1,0-.8-.2-.6-.1.3-.1.9,0,1.2.1.3.3.3.4,0,.1-.3,0-.6,0-1,0-.4.4-1,.7-1.4.3-.4.6-.3.6-.2,0,0,0,.1,0,.3,0,0,0,0,0,0,.2-.1.4-.4.4-.5,0,0-.1,0-.3,0,0,0-.2,0-.3,0,0,0-.1,0-.2,0-.5.3-.7.7-.8,1-.2.3-.3.8-.3,1.1,0,.2,0,.2-.1,0ZM17.9,11.7c0,0,0,.2,0,.2,0,0,0,0,0,0,0,0,.2-.1.2-.3,0-.1,0-.2-.2-.2,0,0,0,0,0,0,0,0-.2,0-.4,0-.1.2,0,.3,0,.3,0,0,0,0,.1,0ZM24.4,8.1h0c0,0,.1,0,.1,0h0s.1,0,.1,0h0c0,0,0-.1,0-.1h0c0-.1,0-.2,0-.2h0c0,0-.1,0-.1,0h-.1s-.1.1-.1.1h0s0,.2,0,.2h0c0,.1,0,.1,0,.1ZM24.7,10h0c0,0,0,.2,0,.2h0c0,.1,0,.2,0,.2h0c0,.1,0,.2,0,.2h.1c0,0,0,0,0,0h0c0,0,0-.2,0-.2h0s0-.2,0-.2h0c0-.1,0-.3,0-.3h0c0-.1,0,0,0,0h0c0,0,0,0,0,0,0,0-.1,0-.1,0ZM24.7,8.7h-.1c0,0,0,0,0,0h0c0,0,0,.2,0,.2h0c0,.1,0,.2,0,.2h0c0,0,0,.2,0,.2h0s0,0,0,0h0c0-.1,0-.3,0-.3h0c0,0,0-.2,0-.2ZM26.1,9.5h0s0,0,0,0h0c0,0,0-.1,0-.1h0s0,0,0,0h0c0,0,0,.2,0,.2,0,0,0,0,0,0ZM25.5,10.1h0s0-.1,0-.1h0c0-.1,0-.2,0-.2v-.2s0-.1,0-.1v-.2s.1-.3.1-.3v-.2s0-.2,0-.2h0c0,0,0-.2,0-.2h0s0,0,0,0h0s0,0,0,0h0c0,0,0,0,0,0h.1s.1,0,.1,0h0s0,.1,0,.1h0c0,0,0,.1,0,.1h0c0,0,0,.2,0,.2h0c0,0-.1,0-.1,0h-.1s0,0,0,0h0c0,0,0,.2,0,.2v.3s0,.2,0,.2h0c0,.1.1.2.1.2h0s0,0,0,0h0c0,0,0-.2,0-.2h0c0,0,0-.1,0-.1h0c0,0,.2.2.2.2h.1c0,0,0,.1,0,.1h0s0,0,0,0c0,0,.1,0,.1,0h0s0,0,0,0h0c0,0,0-.2,0-.2h0c0,0,0,0,0,0h-.1s0,0,0,0h-.1s-.1,0-.1,0h-.1s0-.1,0-.1h0c0,0,0-.1,0-.1h0c0,0,0-.1,0-.1v-.2c.1,0,.1,0,.1,0h0c0,0,0-.2,0-.2h0c0-.1,0-.2,0-.2h0s0,0-.1,0c0,0,0,0-.1,0h0c0,0,0-.1,0-.1h0c0,0,0-.2,0-.2h0c0,0,0-.1,0-.1h0s0,0,0,0h0c0,0,0,.2,0,.2h0c0,0,0,0,0,0h0s.1,0,.1,0h0s0,0,0,0h0c0,0,0-.2,0-.2h0c0,0-.1-.2-.1-.2h0c0,0,0,0,0,0h0s-.2,0-.2,0h-.1s0,0,0,0v-.2s0-.1,0-.1h0c0-.1,0-.2,0-.2h0c0,0,0-.2,0-.2h0c0,0,0-.1,0-.1h0s-.1,0-.1,0h-.1s0,0,0,0v.2s0,.3,0,.3v.3s0,.3,0,.3v.2s0,0,0,0h0c0,0-.1.2-.1.2h-.1c0,0,0,0,0,0h0c0-.1,0-.3,0-.3v-.3s0-.2,0-.2h0c0-.1,0-.2,0-.2h0c0,0,0,.2,0,.2h0c0,.1,0,.3,0,.3v.6s0,.2,0,.3c0,0,0,.3,0,.3h0c0,.1,0,.3,0,.3h0c0,.1,0,.3,0,.3h0v.3h0c0,.1,0,.2,0,.2h0c0,0,0,0,0,0ZM18.8,22.1l-1.9.3,1.8-1.5v-.4c0,0-2.4.3-2.4.3v.3s2-.3,2-.3h0s-1.7,1.5-1.7,1.5v.4c0,0,2.4-.3,2.4-.3,0,0,0-.3,0-.3ZM16.7,23.6l2.3-.8v.3c.1,0-2.2.8-2.2.8v-.3ZM20,25.2l-1.7.9,1.1-2-.2-.3-2.1,1.1v.3c.1,0,1.9-.9,1.9-.9h0s-1.1,2-1.1,2l.2.3,2.1-1.1s-.1-.3-.1-.3ZM20.2,27.3l-.2.2.5.5c-.2.2-.4.3-.6.2-.2,0-.3-.1-.5-.3-.4-.4-.3-.8.2-1.3.5-.4.9-.4,1.3,0,.3.3.3.6.1.9l.2.2c.3-.4.3-.8-.1-1.3-.5-.5-1.1-.5-1.7,0-.3.3-.5.6-.5,1,0,.2.1.5.3.7.2.2.5.4.8.4l-.2.3v.2c.1,0,1.1-.9,1.1-.9,0,0-.7-.8-.7-.8ZM22.1,29l-.5-.3.4-.6.5.3c.3.2.3.4.2.6-.2.2-.4.2-.6,0ZM22.2,29.9c-.2.2-.4.2-.7,0l-.6-.4.5-.7.5.4c.3.2.4.5.2.7h0ZM23,29.2c.2-.3.2-.6-.2-.9l-.8-.6-1.4,1.9.8.6c.2.2.5.2.7.2.2,0,.3-.1.4-.3.2-.2.2-.5,0-.7.2,0,.4,0,.5-.2h0ZM24.9,30.8c-.3.6-.7.7-1.1.6-.5-.2-.6-.6-.4-1.2.3-.6.7-.8,1.2-.6.5.2.6.7.4,1.2ZM24.6,29.3c-.3-.1-.6-.1-.8,0-.3.1-.6.4-.8.8-.1.3-.1.6,0,.9,0,.3.3.5.7.7.3.1.6.2.9,0,.3-.1.5-.4.6-.7.1-.3.2-.7,0-1-.1-.3-.3-.5-.7-.6ZM27.9,31.9c0,.4-.3.6-.7.5-.4,0-.5-.3-.5-.8l.3-1.5h-.3c0,0-.3,1.5-.3,1.5,0,.3,0,.5.2.7.1.2.3.2.6.3.3,0,.6,0,.7,0,.2-.1.3-.4.4-.6l.3-1.5h-.3c0,0-.3,1.4-.3,1.4ZM30.4,30.3v1.9c.1,0-1.2-1.8-1.2-1.8h-.4s.2,2.4.2,2.4h.3s-.1-2-.1-2h0s1.4,1.8,1.4,1.8h.4s-.2-2.4-.2-2.4h-.3ZM31.9,32.5l-.5-2.3h.3c0,0,.5,2.3.5,2.3h-.3c0,0,0,0,0,0ZM33.7,29.4v2.2c0,0-1.3-1.7-1.3-1.7h-.3c0,.1,1.7,2.1,1.7,2.1h.3c0-.1,0-2.7,0-2.7,0,0-.3.1-.3.1ZM35.7,30.7l-.4-.7,1.1-.7-.2-.2-1.1.7-.4-.6,1.2-.8v-.2c-.1,0-1.6.9-1.6.9l1.3,2,1.5-.9-.2-.2-1.2.8h0ZM37.6,27.9l-.5.5-.6-.6.6-.6c.2-.2.4-.2.6,0,.2.2.2.4,0,.6ZM38.8,28l-.3-.3c-.2-.2-.4-.2-.5-.1,0-.2,0-.5-.2-.6-.2-.2-.4-.2-.5-.2-.1,0-.3.1-.5.3l-.8.8,1.7,1.7.2-.2-.7-.7.5-.6c.2-.2.4-.2.6,0,.2.2.4.3.5.4l.3-.3h0c0,0-.2,0-.3-.1h0ZM40.1,25.6c-.3-.2-.6-.2-.8,0l-.5.5c-.1.1-.3.2-.4,0-.2-.1-.2-.4,0-.7.2-.3.5-.4.7-.2l.2-.3c-.4-.3-.8-.1-1.1.4-.1.2-.2.4-.2.5,0,.2.1.4.3.6.2.2.5.1.8-.1l.4-.4c.2-.2.3-.2.4-.3,0,0,.2,0,.3,0,.2.2.2.4,0,.8-.2.4-.5.4-.8.2l-.2.3c.2.2.4.2.6.1.2,0,.4-.2.6-.5.1-.2.2-.4.2-.7,0-.2-.1-.4-.3-.5ZM41,25.2l-2.2-1v-.3c.1,0,2.3,1,2.3,1v.3c-.1,0-.1,0-.1,0ZM39.9,21.7h-.3c0,0-.6,1.8-.6,1.8h.3c0,0,.2-.7.2-.7l2,.6v-.3c0,0-1.9-.6-1.9-.6l.2-.8h0ZM41.1,20.5l-1.3-1v.4s1.1.8,1.1.8l-1.2.6v.4s1.5-.8,1.5-.8h1c0,0,0-.2,0-.2,0,0-1,0-1,0ZM72.1,31.6c-.7,0-1-.6-1-1.8,0-1.2.4-1.7,1-1.8.6,0,.9.6,1,1.8,0,1.2-.3,1.8-1,1.8ZM72.1,27.9c-1.2,0-1.9.7-2,2,0,1.2.7,1.9,2,1.9,1.2,0,1.9-.7,1.9-1.9,0-1.2-.7-1.9-1.9-2h0ZM63.7,30.3c.2,0,.4,0,.5,0,0,0,.1.1.1.3v.6c0,.3-.2.4-.6.4-.7,0-1.1-.6-1.1-1.8s.3-1.8,1-1.8c.5,0,1,.4,1.3,1.1h.1v-1.3h-.2c0,.2-.1.3-.2.3s-.1,0-.3,0c-.3-.1-.6-.2-.8-.2-1.2,0-1.9.7-2,2,0,1.2.8,1.9,2,1.9.7,0,1.2-.1,1.5-.3v-.7c0-.2,0-.3,0-.4,0,0,.2,0,.4-.1h0c0-.1-1.9-.1-1.9-.1h0q0,.1,0,.1ZM54.9,28.1c.4,0,.5.1.5.4v2.7c0,.1,0,.2-.1.3,0,0-.2,0-.4.1h0c0,.1,1.9.1,1.9.1h0c-.4-.1-.6-.3-.5-.5v-2.7c0-.3.2-.4.5-.4h0c0-.1-1.9-.1-1.9-.1,0,0,0,.1,0,.1ZM79.7,28.1c.4,0,.6.2.5.6v1.7c0,.8-.3,1.2-1,1.2s-.8-.4-.8-1.1v-1.8c0-.2,0-.4.1-.4,0,0,.2-.1.4-.1h0c0-.1-1.9-.1-1.9-.1h0c.2.1.3.2.4.3,0,0,0,.2,0,.4v1.8c0,.5.1.8.4,1,.3.2.6.3,1.1.3.5,0,.8-.1,1.1-.4.2-.2.3-.6.3-1.1v-1.8c0-.3.1-.5.4-.5h0c0-.1-1.2-.1-1.2-.1h0c0,.1,0,.1,0,.1ZM53.2,28.1c.4,0,.5.2.5.6v1.7l-1.9-2.4h-1.2c0,.1.2.3.5.5v2.6c0,.2,0,.3-.1.3,0,0-.2,0-.4.1h0c0,.1,1.3.1,1.3.1h0c-.4-.1-.5-.3-.5-.7v-2.2l2.5,3h.2v-3.2c0-.3.1-.4.4-.5h0c0-.1-1.2-.1-1.2-.1h0c0,.1,0,.1,0,.1ZM59.9,28.1c.4,0,.5.2.5.6v1.7l-1.9-2.4h-1.2c0,.1.2.3.5.5v2.6c0,.2,0,.3-.1.3,0,0-.2,0-.4.1h0c0,.1,1.3.1,1.3.1h0c-.4-.1-.5-.3-.5-.7v-2.2l2.5,3h.2v-3.2c0-.3.1-.4.4-.5h0c0-.1-1.2-.1-1.2-.1h0c0,.1,0,.1,0,.1ZM67.8,31.5c-.2,0-.3,0-.3-.3v-1.4h.2c.6,0,.8.3.8.9s-.2.8-.7.8h0ZM67.5,28.4c0-.2,0-.3.3-.3.4,0,.6.2.6.7s0,.5-.2.6c-.1.1-.3.2-.7.2,0,0,0-1.3,0-1.3ZM68.4,29.7h0c.6-.1.9-.4.9-.8,0-.6-.5-.9-1.4-.9h-1.7c.3.1.5.3.5.5v2.7c0,.1,0,.2-.1.3,0,0-.2,0-.4.1h0c0,.1,1.8.1,1.8.1,1,0,1.5-.4,1.5-1,0-.5-.4-.9-1-1h0ZM102.6,29.6l-.8-.4c-.2-.1-.4-.2-.5-.3,0,0-.1-.2-.1-.4,0-.3.2-.5.6-.5.5,0,.9.4,1.1,1h.2v-1.2h-.2c0,.1,0,.2-.2.2,0,0-.2,0-.2,0-.2,0-.4-.1-.6-.1-.8,0-1.2.4-1.2,1.1,0,.5.3.8.9,1.2l.4.2c.4.2.6.4.6.7,0,.4-.3.6-.7.6-.6,0-1-.4-1.1-1.2h-.2v1.3h.2c0,0,0-.2.2-.2s.1,0,.2,0c.3,0,.5.1.7.1.8,0,1.3-.4,1.4-1.1,0-.4-.2-.8-.6-1h0ZM103.9,28.1c.4,0,.5.1.5.4v2.7c0,.1,0,.2-.1.3,0,0-.2,0-.4.1h0c0,.1,1.9.1,1.9.1h0c-.4-.1-.6-.3-.5-.5v-2.7c0-.3.2-.4.5-.4h0c0-.1-1.9-.1-1.9-.1,0,0,0,.1,0,.1ZM106.4,28v1.1s.1,0,.1,0c0-.6.4-.9,1.1-.9v2.9c0,.2,0,.4-.1.4,0,0-.2,0-.4.1h0c0,.1,2,.1,2,.1h0c-.3-.1-.4-.2-.4-.2,0,0-.1-.2-.1-.4v-2.9c.6,0,1,.3,1.1.9h.2v-1.1s-3.3,0-3.3,0ZM84,28.1c.4,0,.5.2.5.6v1.7l-1.9-2.4h-1.2c0,.1.2.3.5.5v2.6c0,.2,0,.3-.1.3,0,0-.2,0-.4.1h0c0,.1,1.3.1,1.3.1h0c-.4-.1-.5-.3-.5-.7v-2.2l2.5,3h.2v-3.2c0-.3.1-.4.4-.5h0c0-.1-1.2-.1-1.2-.1h0c0,.1,0,.1,0,.1ZM112.8,28h0c.3.1.5.2.5.4,0,.1,0,.3-.2.5l-.6,1-.7-1.3s0,0,0,0c0,0,0-.2,0-.2,0-.1.1-.2.5-.2h0c0-.1-1.9-.1-1.9-.1h0c.2.1.3.2.4.4l1,1.8v.8c0,.2,0,.3-.1.4,0,0-.2.1-.4.1h0c0,.1,1.9.1,1.9.1h0c-.2-.1-.4-.2-.4-.2,0,0,0-.2,0-.4v-1l1.1-1.7c0-.1.2-.2.3-.2h0c0-.1-1.2-.1-1.2-.1ZM90.7,28.1c.2,0,.3,0,.4,0,0,0,.1,0,.1.2,0,.1,0,.2,0,.3,0,0,0,0,0,0l-.7,1.8-.7-1.8c-.1-.2-.2-.4-.2-.5s0-.2,0-.2c0,0,.2,0,.4,0h0c0-.1-1.9-.1-1.9-.1h0c.2.1.4.3.5.5l1.4,3.3h.2l1.3-3.2c.1-.3.3-.5.5-.5h0c0-.1-1.2-.1-1.2-.1,0,0,0,.1,0,.1ZM85.6,28.1c.4,0,.5.1.5.4v2.7c0,.1,0,.2-.1.3,0,0-.2,0-.4.1h0c0,.1,1.9.1,1.9.1h0c-.4-.1-.6-.3-.5-.5v-2.7c0-.3.2-.4.5-.4h0c0-.1-1.9-.1-1.9-.1h0c0,.1,0,.1,0,.1ZM94.2,31.5c-.3,0-.5,0-.5-.3v-1.3c.3,0,.5,0,.6.2.1.1.2.4.3.7h.1v-1.9h-.1c0,.3-.1.5-.3.7-.1.1-.3.2-.6.2v-1.3c0-.2.1-.3.4-.3.4,0,.7,0,.9.2.2.1.3.4.3.7h.2v-1.1h-3.2c.3.1.5.3.5.5v2.7c0,.1,0,.2-.1.3,0,0-.2,0-.4.1h0c0,.1,3.2.1,3.2.1l.2-1.1h-.2c-.3.7-.8,1-1.4,1h0ZM98.5,29.6c-.1.1-.4.2-.8.2v-1.4c0-.2,0-.2.3-.2.4,0,.7.3.7.8s0,.6-.2.7ZM98.8,29.9c.6-.2.9-.5.9-1,0-.6-.5-1-1.6-1h-1.8c.2.1.3.2.4.2,0,0,.1.2.1.4v2.4c0,.2,0,.3,0,.4,0,0-.2,0-.4.1h0c0,.1,1.9.1,1.9.1h0c-.2-.2-.4-.2-.4-.3,0,0,0-.2,0-.4v-1.1h.2l1.1,1.7h1.1c0-.1-.1-.2-.2-.2,0,0-1.1-1.6-1.1-1.6ZM93.4,15.4l.7-.2.4-.2.3-.3v-.3c0,0,0-.3,0-.3l-.3-.3-.5-.2h-.4s-.2.1-.2.1h-.3s-.3,0-.3,0v-.2s0-.3,0-.3l.2-.3h.2c0-.1,0-.4,0-.4v-.2c-.1,0-.2-.3-.2-.3v-.4c0,0-.2-.3-.2-.3l-.2-.2-.2-.2h-.3s-.3,0-.3,0h-.3c0,0-.1.2-.1.2v.3s0,.4,0,.4c0,0,.2.3.3.3,0,0,.2.2.2.2v.3s0,.3,0,.3v.4c0,0-.1.2-.1.2h0c0,.1-.2.2-.2.2h-.4c0,0-.4.2-.4.2h-.4s-.5.1-.5.1h-.3c0,.1-.4.3-.4.3l-.5.2v.4c0,0,.2.3.2.3l.2.2.2.3.3.2h.3c0,0,.4.2.4.2h.3c0,.1.1.3.1.3l-.2.5v.6c-.1,0-.4.5-.4.5l-.2.4-.6.5s-.4.2-.5.3c-.1,0-.4.2-.4.2h-.3s-.4,0-.4,0l-.2.3v.3c0,0,0,.2,0,.2h.2c0,.1.2.3.2.3h.2c0,0,.3,0,.3,0l.3-.2.2-.2.3-.2.3-.2.3-.4.2-.3.2-.2h.1c0,0,.3-.2.3-.2l.3-.3.4-.4v-.4c.1,0,.3-.4.3-.4v-.3s.2-.4.2-.4l.3-.5.4-.4.7-.3h0Z"/>
      <path class="cls-1" d="M96.9,20l-.9-.3-.4-.2-.4-.2s-.3-.1-.4-.2c-.1,0-.2-.2-.3-.3l-.2-.3-.2-.3s-.2-.3-.2-.4c0-.1-.2-.2-.3-.3l-.3-.4-.4-.2h-.3c0,.1,0,.4,0,.4v.2s.3.4.3.4l.2.2.2.3.2.3.2.3.2.3.4.5.3.4.2.2h.3c0,.1.4.3.5.3.1,0,.5,0,.5,0,0,0,.5,0,.6,0,0,0,.4,0,.4,0v-.2c.1,0,.3-.2.3-.2v-.3s-.1-.2-.1-.2h-.2s0,0,0,0ZM113.9,16.9c0-.1-.2-.3-.3-.4,0-.1-.2-.2-.4-.4-.2-.2-.2-.2-.2-.2l-.3-.3-.4-.4h-.3c0-.1-.3-.3-.3-.3h-.4c0-.1-.3-.1-.3-.1,0,0-.4,0-.5,0-.1,0-.5,0-.5,0h-.4c0,0,0-.1,0-.1l.2-.3.3-.2.3-.2.5-.2.2-.4v-.4s-.2-.3-.2-.3l-.3-.2v-.3c-.1,0-.2-.3-.2-.3v-.4s0-.5,0-.5l.2-.4.3-.2.4-.2h.5c0-.1.4,0,.4,0h.4c0-.1.1-.4.1-.4v-.3c0,0-.3-.3-.3-.3l-.2-.2h-.4c0-.1-.2-.5-.2-.5l-.2-.5-.2-.2h-.5c0,0-.3,0-.3,0v.3c-.1,0,0,.4,0,.4v.3c.1,0,.2.3.2.3v.5s-.3.3-.3.3l-.3.4-.4.4-.6.4-.4.3v.3s.2.2.2.2h.3c0,0,.4.2.4.2v.2s-.1.2-.1.2v.5s.2.2.2.2h.3s0,.3,0,.3v.4c-.1,0-.3.3-.3.3l-.2.3-.5.2h-.4c0,.1-.4,0-.4,0v-.3c-.1,0-.1-.4-.1-.4l.2-.2v-.4c0,0,0-.3,0-.3l-.2-.2-.4-.3h-.2c0,0,0-.4,0-.4v-.5c.1,0,.3-.4.3-.4l.2-.6c0-.1,0-.3,0-.5,0-.1-.2-.7-.3-.8l-.3.2-.3.2-.2.3-.2.4v.5c.1,0,.4.3.4.3v.5s0,.5,0,.5v.5c0,0-.1.4-.1.4v.8c0,0,.3.6.3.6l.4.4.5.5.3.3v.3c0,0-1.1-.2-1.1-.2h-.4c0,0-.3.2-.3.2l-.3.2-.4.3-.5.3-.3.3-.7.2s-.4.2-.6.2c-.2,0-.4.1-.4.1h-.3c0,.1-.2,0-.2,0l.2-.3h-.2c0,.1-.4.5-.4.5l-.3.2-.3.4.2.5h.4c0,.1.5.2.5.2l.5-.2.4-.3.3-.5s.5-.3.6-.4c.1,0,.7-.4.7-.4l1-.3.7-.3.7-.2s.8-.3.9-.4c.1,0,.5-.2.5-.2l.8-.2h.5c0,0,.6,0,.6,0l.6.2.5.6.2.2v.3c0,0-.1.5-.1.5l-.2.3v.3c-.1,0,.2,0,.2,0l.3-.2h.4s.4,0,.4,0h.4s.3-.2.3-.2c0,0,0-.4,0-.5h0Z"/>
      <path class="cls-1" d="M111.2,20.2l-.2-.2h-.5c0-.1-.3,0-.3,0h-.4s-.3,0-.3,0l-.2-.3-.2-.5v-.3c0,0,.3-.4.3-.4l.3-.3.2-.3.2-.4v-.3c-.1,0-.7,0-.7,0l-.8.2-1.1.3-.7.2-.2.2v.4c0,0,.3.3.3.3l.3.2h.4c0-.1.8-.5.8-.5v.4c-.1,0-.2.6-.2.6,0,0,0,.1,0,.3,0,.1.3.2.3.2v.2c0,0,0,.3,0,.3l-.3.2-.4.2-.5.2s-.4,0-.6,0c-.2,0-.5.2-.5.2h-.4s0,.3,0,.3l.3.3h.3c0,0,.3.2.3.2h.6c0,0,.4-.3.4-.3l.6-.2h.4c0,0,.3,0,.3,0v.4s-.1.5-.1.5v.5s0,.3,0,.3v.3c-.1,0-.5.2-.5.2h-.5c0,.1-.4.3-.4.3l-.2.3s.2,0,.4.1c.1,0,.5.1.5.1h.3s.5,0,.5,0l.5-.3.4-.3.2-.4.2-.5v-.5c0,0,.1-.5.1-.5v-.4s.5-.1.5-.1h.2c0,0,.3,0,.3,0h.4c0,0,.2-.3.2-.3v-.5c-.1,0-.3-.3-.3-.3h0ZM105,11.5l.2.6v.5s-.1.7-.1.7v.8s0,.4,0,.4l.2.3.3.3h.4c0-.1.3-.4.3-.4v-.4c0,0,0-.4,0-.4l-.3-.4-.3-.5v-.3c-.1,0,0-.5,0-.5v-.3c0,0,.1-.5.1-.5,0-.1.1-.5.1-.5v-.5s-.2-.4-.2-.4l-.3-.4-.3-.2h0c0,.1-.3.3-.3.3l-.2.4v.7c0,0,.3.5.3.5h0ZM59,16.5h-.2s-.3,0-.3,0h-.3c0,.1-.3.2-.3.2l-.6.2h-.2s0-.2,0-.2v-.3c.1,0,.4-.3.4-.3l.4-.3h.1s.5-.1.5-.1h.5c0,.1.1.3.1.3v.4c-.1,0-.1,0-.1,0ZM58.5,15.1s-1.7.7-1.7.7v-.4c-.1,0,.6-.8.6-.8l.5-.4.7-.6.3-.4v-.5c0,0-.1-.3-.1-.3h-.4c0-.1-.3,0-.3,0l-.8.7-.7.5-.7.2h-.3c0,.1.5.4.5.4h.3c0,.1.1.4.1.4v.5c-.1,0-.6,1.2-1.6,2.1-1,.9,0,1.2.5.8.4-.3.5-.4.5-.4h.3s.2.3.2.3v1.1s-.8.8-.8.8l-.9.6-.9.6-.2.4h.5c0,.1.6.2.6.2l.6-.4.6-.5.8-.3-.2,3.4h-1.2s.9,1.1.9,1.1c0,0,.9.9,1.5,0,.5-1,.3-1.1.3-1.1l.2-4s1.3-.4,1.5-.5c.2,0,.4-.5.4-.6,0-.1-.6-.4-.8-.3-.2.1-1.2.4-1.2.4v-.4s.8-.9.8-.9h.9c0-.1,1.5-1.1,1.1-2-.4-.9-2-.4-2.1-.4ZM56.5,7.9c.1.2-.2.8-.2.8,0,0,0,0,.4,0,.4,0,.8,0,1.3-.3.4-.4.2-.9,0-1.1-.2-.2-.6-.8-1.3-.6-.7.2-.7,1-.7,1,0,0,.4,0,.5.2Z"/>
      <path class="cls-1" d="M63.6,10.4c-.2-.2-.4-.4-.9-.6-.2-.1-.4-.4-.8-.4-2.3-.2-3.8.6-4.9,1-1.2.4-2.8,1.9-3.6,2.5-.7.6-.7.4-.6,0,0-.5,2-2.6.9-2.1-1.1.4-2.5,2.3-3,3.7-.4,1.4,0,1.6,1.2,1,1.1-.6,1.5-1.7,2.7-2.8,1.2-1.1,3.5-2,5.5-2.4,2-.4,2.4.5,2.3.7,0,.2-.3.3-.9,1-.2.2,0,0,.4,0,.7,0,2.2,0,2.3-.5.1-.4-.2-.6-.6-1ZM76,19.6h-.4s-.2-.3-.2-.3v-.3s.1-.2.1-.2h.2c0-.1.1-.1.1-.1l.2.3v.4s-.2.3-.2.3ZM80,20.4h-.4c0-.1-.4-.3-.4-.3l-.8-.5-.3-.3-.3-.3-.2-.3v-.3c0,0,.2-.2.2-.2l.2-.3.2-.3.2-.3v-.3c0,0,.1-.5.1-.5l-.3-.6-.2-.4-.3-.2s-.3-.1-.4-.2c-.1,0-.4-.2-.4-.2v-.2c0,0,.3-.3.3-.3l.3-.3.4-.3.3-.3h.2c0,0,.3,0,.3,0v.2c0,0-.1.3-.1.3l-.2.4v.2c-.1,0,.2,0,.2,0h.4c0,0,.5,0,.5,0h.3c0,0,.3-.2.3-.2l.3-.2v-.5l-.2-.4-.4-.4-.2-.3h-.2c0-.1-.3-.3-.3-.3h-.6c0,0-.4,0-.4,0h-.2s.1-.6.1-.6v-.4c.1,0,.2-.4.2-.4l.2-.5v-.4c.1,0,.3-.3.3-.3v-.2s-.5-.4-.5-.4h-.5s-.5,0-.5,0v.2c-.1,0-.2.6-.2.6v1c-.1,0-.3,1-.3,1,0,0,0,1.1,0,1.2v1c0,0-.4.3-.4.3l-.2.2-.5.3-.5.2v-.2s.1-.5.1-.5v-.5c.1,0,.2-1.3.2-1.3v-.7s0-.5,0-.5l-.2-.2-.3.2-.3.5-.2.4v.5c0,0-.3,2.5-.3,2.5,0,0,0,.9,0,1,0,.4-.2.8-.3,1.3v.5c-.1,0-.2.5-.2.5l-.2.5-.2.6-.2.5v.5c0,0-.2.5-.2.5v.3c0,0,0,.2,0,.2h.3c0,.1.4,0,.4,0l.3-.3.2-.4v-.5s0-.8,0-.8l.2-.5.3-.8.4-1,.3-.7.3-.5v-.4c0,0,.3-.3.3-.3h.3c0-.1.2-.2.2-.2h0c0,.1,0,.3,0,.3v.3s.2,0,.2,0h.5c0,0,.4.1.4.1v.2c0,0,.1.3.1.3v.3s-.2.2-.2.2l-.2.3-.3.3-.3.2-.5-.2-.4-.2h-.4c0,0-.2.1-.2.1v.4c0,0-.3,1.1-.3,1.1v.9c0,0,0,.5,0,.5l.4.2h.2c0,0,.3,0,.3,0l.3-.3.3-.3.3-.2.3-.2.3.3.6.5.4.3v.3c.1,0,.4.2.4.2,0,0,.2,0,.3,0,.1,0,.4,0,.4,0h.4s.3-.2.3-.2l.3-.2.3-.3v-.2c0,0-.2,0-.2,0l-.5-.2h0ZM69.9,16.9l.2.3h.3c0,.1.4-.2.4-.2l.3-.4.2-.5v-.3s-.3-.3-.3-.3l-.5-.3h-.3c0,0-.3.2-.3.2l-.2.3v.5c-.1,0,0,.4,0,.4,0,0,.1.4.1.4ZM71.7,11.8h-.4c0,0-.5,0-.5,0l-.4.2-.2.2v.5s0,.6,0,.6l.2.3h.4c0,0,.4.1.4.1l.5-.2v-.2c.1,0,.3-.3.3-.3v-.4s0-.4,0-.4c0,0-.2-.2-.2-.2ZM71.1,20.5l-.4.2-.2.3h-.2s-.4-.3-.4-.3l-.2.3v.5c0,0-.2.4-.2.4l-.2.3v.4s.2.3.2.3l.3.3h.4c0,0,.1-.4.1-.4l.2-.3h.4c0-.1.3-.5.3-.5v-.5c.1,0,0-.6,0-.6l-.3-.5h0Z"/>
    </g>
  </g>
</svg>