<?xml version="1.0" encoding="UTF-8"?>
<svg xmlns="http://www.w3.org/2000/svg" version="1.1" viewBox="0 0 128 44.9">
  <defs>
    <style>
      .cls-1 {
        fill: #29448a;
      }

      .cls-2 {
        fill: #fefefe;
      }

      .cls-3 {
        fill: #090e44;
        fill-rule: evenodd;
      }
    </style>
  </defs>
  <!-- Generator: Adobe Illustrator 28.7.1, SVG Export Plug-In . SVG Version: 1.2.0 Build 142)  -->
  <g>
    <g id="_图层_1" data-name="图层_1">
      <g>
        <path class="cls-1" d="M26.4,36.3c-5.4-.4-10.1-4.1-11.8-9.3-.3-.9-.5-1.8-.6-2.9,0-.5,0-2,0-2.4,0-.2,0-.4,0-.5,0-.1,0-.3,0-.3,0,0,0-.1,0-.2,0,0,0-.4.1-.6.5-2.1,1.3-3.9,2.7-5.6.4-.5,1.5-1.6,1.9-2,1-.8,2.1-1.5,3.3-2,.9-.4,2.4-.8,3.3-.9.2,0,.5,0,.6,0,.4,0,2.3,0,2.6,0,.1,0,.4,0,.6,0,.2,0,.5,0,.7.1.2,0,.4,0,.5,0,.1,0,.9.2,1.3.4,1,.3,2.4,1,3.2,1.6.7.5.9.7,1.5,1.2,2,1.8,3.4,4.2,4,6.9,0,.2.1.5.1.6,0,.1,0,.2,0,.2,0,.3.2,1.6.2,2.1,0,.6-.1,1.7-.2,2.5-.5,2.7-1.8,5.2-3.8,7.2-1.5,1.4-3.2,2.5-5.1,3.1-1,.3-1.8.5-3,.7-.3,0-1.9,0-2.4,0h0ZM28.7,36c2.8-.3,5.5-1.5,7.6-3.4,2.8-2.5,4.4-6.3,4.3-10.1,0-2.9-1.1-5.5-2.9-7.8-.5-.6-1.6-1.7-2.3-2.2-3.1-2.3-6.8-3.2-10.6-2.4-3.5.7-6.6,2.9-8.6,5.9-1,1.6-1.7,3.4-1.9,5.3,0,.8-.1,2.3,0,3,.5,4.6,3.2,8.4,7.2,10.4,1.5.8,3,1.2,4.7,1.4.3,0,2,0,2.4,0Z"/>
        <path class="cls-1" d="M26.5,35c0,0-.1,0-.2,0,0,0-.1-.3-.1-.3,0,0,.2,0,.2.1,0,.2.3.1.4,0,0-.2,0-.2,0-.2-.2,0-.4,0-.5,0,0,0-.1-.2-.1-.3s0-.2.1-.3c.1-.1.1-.1.3-.1s.2,0,.3.1c.1.1.1.2.1.4,0,.6-.2.9-.6.8h0ZM26.9,34.3s0-.1,0-.2c0-.4-.4-.4-.5,0,0,.2.3.4.4.2ZM27.7,34.9c0-.2.1-.4.3-.5.3-.2.4-.3.4-.4s-.1-.2-.3-.2c0,0-.1,0-.2,0,0,0,0,.1,0,.2,0,0,0,.1-.1.1-.1,0-.1,0,0-.3,0-.2.2-.2.4-.2s.3,0,.4.2c.1.2,0,.4-.3.7-.2.1-.3.2-.3.3s.2,0,.4,0c.3,0,.4,0,.4,0s0,0-.2.1c-.2,0-.3,0-.5,0-.2,0-.2,0-.2,0ZM29.3,34.7c-.1-.1-.1-.3,0-.3,0,0,0,0,0,0,0,0,.1.2.3.2s.3-.2.3-.3-.1-.2-.3-.2-.2,0,0-.2c.2,0,.2-.1.1-.3,0,0,0-.1-.2-.1s-.3,0-.3.2c0,0,0,.1-.1.1,0,0,0,0,0-.2,0,0,0-.2,0-.2,0,0,.4-.2.5-.1.2,0,.3.3.2.5,0,0,0,0,0,.1.2.2.2.5,0,.7-.2.1-.5.1-.6,0ZM25.1,34.7s0-.3,0-.5c0-.2,0-.4,0-.4,0,0,0,0-.1,0-.2,0-.2,0-.2-.1,0,0,0,0,.2,0,0,0,.2,0,.2,0,0,0,.2-.1.2,0,0,0,0,.3-.1.7-.1.6-.1.6-.2.6s0,0,0,0ZM22.2,33.8c0,0,0-.1-.1-.5,0-.2,0-.4,0-.6,0-.1,0-.1-.3.3-.1.2-.3.5-.3.5-.2,0-.1,0,.2-.7.2-.3.3-.6.3-.6s0,0,.1,0c0,0,.1,0,.1.6,0,.3,0,.6,0,.6,0,0,.1-.2.3-.4.2-.4.3-.5.4-.4,0,0-.6,1.2-.6,1.2,0,0,0,0-.1,0h0ZM32.7,33.6c-.1,0-.3-.2-.5-.7-.1-.2-.1-.3,0-.3,0,0,0,0,0,0s.1.2.3.4c.2.5.3.6.5.6s.4-.2.4-.3-.1-.3-.2-.6c-.2-.4-.2-.5-.2-.5,0,0,0,0,.1,0,.1.1.5.9.5,1,0,.2-.1.4-.3.5-.2.1-.3.1-.5,0h0ZM20.8,33h0c0,0,.1-.3.1-.3,0-.1.1-.2.1-.3,0,0,0-.2-.3-.3h-.1c0-.1-.2.1-.2.1-.1.2-.2.2-.2.2,0,0,0,0,0,0,0,0,.4-.7.8-1.1,0,0,.6.4.7.5.1.1.1.4,0,.5,0,0-.2.1-.2.1s0,0,0,0c0,0,0,.1,0,.2,0,0-.1.2-.1.2,0,.1,0,.1-.1,0ZM21.3,32.2c.1-.1,0-.3-.1-.5,0,0-.2-.1-.2-.2,0,0-.3.3-.2.4,0,0,.4.3.5.3,0,0,0,0,.1,0ZM34.2,32.1c-.4-.5-.4-.5-.3-.6,0,0,0,0,.7.1.3.1.6.2.6.2s-.1-.2-.3-.4c-.3-.4-.3-.4-.3-.5,0,0,0-.1.5.5.4.5.4.5.3.6,0,0,0,0-.7-.1l-.6-.2v.2c.2,0,.3.2.4.3.3.3.3.3.2.4,0,0,0,0,0,0s-.2-.2-.5-.5h0ZM27,32.3c-2-.1-4-.8-5.5-2.1-.4-.4-1.2-1.1-1.6-1.6-2.4-3.1-2.6-7.4-.5-10.7,1.1-1.7,2.6-3,4.4-3.8,3.2-1.3,6.9-.8,9.5,1.4.8.6,1.6,1.6,2.2,2.5,2,3.4,1.7,7.7-.7,10.7-1.9,2.4-4.8,3.7-7.8,3.5ZM28.8,32c1.1-.2,2-.5,3-1,2.6-1.4,4.4-3.9,4.8-6.9,0-.6,0-1.8,0-2.4-.4-3.1-2.3-5.7-5.1-7.1-1.5-.7-2.9-1-4.7-.9-2.8.1-5.5,1.7-7.1,4.1-.2.2-.4.7-.6,1-.5.9-.8,1.9-.9,3,0,.7,0,2,0,2.7.6,3.3,2.9,6.1,6.2,7.2.6.2,1.3.3,2.1.4.3,0,1.8,0,2.2,0Z"/>
        <path class="cls-1" d="M26.5,31.6c-1.6-.2-3.1-.8-4.4-1.8q-.3-.2.3-.4c.8-.3,1.5-.4,2.5-.4.6,0,.7,0,1.1.1.6.2.9.3,1.6.6.3.1.6.3.6.3,0,0,0-.2,0-.4v-.4c-.1,0-.4-.1-.4-.1-.4-.2-.8-.4-1.3-.5-.8-.2-1.1-.2-1.9-.2s-.8,0-1.2.1c-.5.1-1.1.3-1.6.5-.4.2-.4.2-.8-.3l-.3-.3h.2c.5-.5,1.4-.8,2.2-1,.5-.1,1.6-.1,2.1,0,.6,0,1.3.3,2.1.7.3.1.5.2.5.2,0,0-.2-.7-.2-.8,0,0-.4-.2-.9-.3-.7-.2-1.5-.4-2.3-.4-1.3,0-2.3.3-3.5.9-.3.1-.5.2-.5.2,0,0-.5-.8-.5-.8,0,0,.2-.1.3-.2.8-.5,1.7-.8,2.6-1,.5,0,.7-.1,1.4-.1.5,0,1,0,1.1,0,.4,0,1.4.4,2.1.7,1.7.7,2.4.9,3.8,1,1.1,0,2.6-.1,3.7-.5.1,0,.2,0,.2,0,0,0-.3.5-.5.8-.2.3-.2.3-1,.5-1.3.3-2.7.2-3.9,0-.4,0-1.1-.3-1.3-.5,0,0-.1,0-.1,0,0,0,0,.2.1.4v.4c.1,0,.4.1.4.1.4.2,1,.3,1.5.4.7,0,2.1,0,2.8,0,.2,0,.5,0,.5,0,0,0-.6.6-.9.8l-.2.2h-1c-1,0-1.8-.1-2.4-.3-.2,0-.3,0-.3,0,0,0,.1.6.2.7,0,0,1.3.3,2,.3.3,0,.5,0,.5,0,0,0-.8.4-1.2.5-.5.2-1,.3-1.5.4-.5,0-1.8.1-2.2,0h0Z"/>
        <path class="cls-1" d="M30.9,27.1c0,0-.3,0-.5,0-.8-.1-1.4-.3-2.4-.8-1.3-.6-1.9-.8-2.8-.9-.6,0-1.8,0-2.4,0-1.1.2-2.2.6-3.1,1.2l-.3.2h0c0-.2-.1-.3-.2-.5v-.3c-.1,0,0,0,0,0,.2-.2.9-.6,1.2-.7.7-.3,1.3-.5,2.1-.6.5,0,2.1,0,2.6,0,1,.2,1.6.4,2.6.9,1.5.7,2.3.9,3.8.9s2.5-.2,3.8-.8c.2,0,.4-.2.4-.1,0,0-.3,1-.4,1,0,0-.2.1-.6.3-1.2.4-1.7.5-2.9.5-.5,0-.9,0-1,0h0Z"/>
        <path class="cls-1" d="M18.8,24.5c-.1-.6-.2-1.8,0-2.5.2-2.1,1.2-4,2.7-5.4,1.3-1.2,2.8-2,4.7-2.3.6-.1,1.9-.1,2.5,0,2,.3,3.6,1.2,5,2.5,1.4,1.4,2.2,3,2.5,4.9.1.7,0,2.4,0,2.7,0,0-.6-.8-2.4-3.5l-2.4-3.5-.9.9c-.6.6-.9.9-1,.9,0,0-.3-.4-1.4-2.4-.2-.3-.4-.6-.4-.6,0,0-.2.3-1.4,2.3-.2.4-.4.7-.5.7,0,0-.4-.4-.9-.9-.7-.7-.9-.9-.9-.9,0,0-.5.7-1.1,1.5-.6.8-1.4,2-1.8,2.6-.4.6-1.1,1.5-1.4,2-.4.5-.7.9-.7,1,0,0,0,0,0-.2h0ZM19.2,31.7l-.4-.4.5-.5c.2-.3.5-.5.5-.5,0,0,.2.2.4.3.3.3.3.3.3.4,0,0,0,0-.4-.2l-.3-.3v.2c-.1,0-.3.1-.3.1l.3.3c.3.2.3.3.2.3,0,0-.1,0-.3-.2,0,0-.2-.2-.3-.2,0,0-.1.1-.2.2v.2c-.1,0,.2.3.2.3.3.3.3.3.2.3,0,0,0,0-.4-.3ZM35.8,30.8c-.5-.5-.5-.5-.4-.5,0,0,0-.1.8.6.3.3.3.3.2.4,0,0,0,0-.6-.4ZM18.2,30.6c0,0,0,0,.4-.5l.5-.4v-.2c-.3-.2-.3-.2-.2-.3,0,0,.1,0,.4.4.3.4.4.4.3.5,0,0,0,0-.2-.1l-.2-.2-.4.3c-.2.2-.4.4-.5.4,0,0,0,0-.2,0ZM36.6,29.8c-.4-.1-.7-.2-.7-.2s0,0,0,0c0,0,0,0,.6,0,.3,0,.6.2.6.1,0,0-.1-.2-.3-.5-.3-.4-.3-.5-.3-.5,0,0,0,0,0,0,0,0,.8,1.2.8,1.2,0,0-.1.2-.1.2,0,0-.3,0-.7-.2h0ZM17.5,29.7c-.2-.1-.3-.4-.3-.6,0-.1,0-.2.1-.3h.1c0-.1,0,0,0,0,0,0,0,.1,0,.1,0,0,0,0,0,.1,0,.2.2.6.4.5.1,0,.1-.2,0-.5-.1-.3-.1-.5,0-.6.2-.1.4,0,.6.2.2.2.2.5,0,.6,0,0-.1,0-.1,0,0,0,0-.2,0-.2,0,0,0-.3,0-.4,0-.1-.2-.2-.3-.1-.1,0-.1.1,0,.5.1.4.1.5-.1.6-.2,0-.3,0-.4,0ZM16.7,28.6c0,0,0-.1.1-.3l.2-.2v-.2c-.1,0-.2-.2-.2-.2h-.2c-.2,0-.2,0-.3,0,0,0,0,0,0,0s.3,0,.7,0c.7,0,.7,0,.8,0,0,0,0,0,0,.1,0,0-.2.3-.5.6-.5.5-.5.5-.6.4h0ZM17.4,27.8l.2-.2h-.3c0,0-.2,0-.3,0,0,0,.1.3.1.3s.1,0,.2-.2ZM37.6,28.2c-.3-.2-.6-.3-.6-.3,0,0,.4-.9.4-.9s0,0,0,0c0,0,0,0-.1.4,0,.1-.1.3-.2.4,0,0,.3.1.3.1s0-.1.2-.3c0-.2.2-.3.2-.3,0,0,0,0,0,0,0,0,0,0,0,.4,0,.2-.2.3-.2.4,0,0,0,0,.2,0h.2c0,0,.2-.3.2-.3.2-.3.2-.4.3-.3,0,0,0,0,0,.3-.2.4-.3.7-.4.7,0,0-.3-.1-.6-.3ZM16.1,27.2c0,0-.3-.9-.3-1,0,0,1.2-.4,1.3-.4s.1.2.2.5c.1.4.1.5,0,.5,0,0,0,0,0,0,0,0,0-.2-.2-.4,0-.2-.1-.4-.1-.4,0,0-.3,0-.3.1s0,.2.1.4c0,.2,0,.3,0,.3,0,0-.1,0-.2-.3,0-.2-.1-.3-.1-.3,0,0-.4,0-.4.1s0,.2.1.4c.1.3.1.4,0,.4,0,0,0,0,0,0ZM38.4,26.3c-.2,0-.4-.1-.7-.2,0,0,.2-.7.2-.8.1-.2.4-.2.6,0,0,0,.1,0,.2,0,0,0,.2,0,.3,0,.3,0,.3,0,.3.1,0,0,0,.1-.2,0-.4,0-.4,0-.5.2,0,.1,0,.3,0,.3,0,0,.1,0,.3.1.2,0,.3.2.2.2,0,0-.3,0-.7-.1ZM38.5,25.9c0-.4,0-.5-.1-.5-.1,0-.2,0-.3.3v.3c0,0,.1,0,.1,0,.1,0,.2,0,.2,0,0,0,0-.1,0-.2ZM15.7,25.6s0,0,0,0c0,0,0,0,.3-.1.2,0,.3,0,.3,0,0,0,0-.6,0-.7-.1,0-.2,0-.3,0-.3,0-.4,0-.4,0s0,0,.9-.2c.4,0,.5,0,.5,0,0,.1,0,.1-.2.2,0,0-.2,0-.3,0,0,0,0,.2,0,.3v.3c0,0,.2,0,.2,0,.5,0,.5,0,.5,0s0,0-.7.2c-.7.1-.7.1-.7,0h0ZM39.1,24.3c0,0,0,0,.2-.1.1,0,.2,0,.2-.2,0-.2,0-.4,0-.5-.1,0-.2,0-.3.2-.1.4-.2.5-.3.5-.1,0-.1,0-.3,0-.3-.1-.4-.6-.1-.9.2-.2.3-.2.3,0s0,0,0,0c-.2,0-.3.5-.1.6.2.1.2,0,.3-.3.1-.4.3-.5.5-.5.2,0,.2,0,.3.2.2.4,0,.9-.4.9s-.1,0-.1,0h0ZM16.6,24c0,0,0-.2,0-.2h0c0,0-.5,0-.5,0-.2,0-.4,0-.6,0,0,0,0,0,0-.1h0c0-.1.5-.1.5-.1.7,0,.7,0,.7-.3,0-.2,0-.2,0-.2h.1v.5c0,.3,0,.5,0,.6,0,0,0,0,0,0,0,0,0,0,0-.1h0ZM15.3,22.6h0c0-.1.3-.1.3-.1.2,0,.3,0,.3,0,0,0,0-.2,0-.3v-.3s-.2,0-.2,0c-.1,0-.2,0-.3,0-.1,0-.1,0,0,0,0,0,0,0,0-.1,0,0,.3,0,.6,0,.3,0,.6,0,.7,0,0,0,0,0,0,.2,0,.6-.1.9-.4.9,0,0-.2,0-.3,0,0,0-.1,0-.2,0,0,0-.2,0-.3,0s-.3,0-.3,0c0,0,0,0,0,0h0ZM16.5,22.4c0-.1,0-.2,0-.3v-.2s-.2,0-.2,0c-.3,0-.3,0-.3.3s0,.3,0,.3c.1,0,.2,0,.3,0ZM38.2,22.2c0-.1,0-.1.9-.2h.5s0,0,0,0c0,.1,0,.1-1,.2h-.4s0,0,0,0ZM38.1,21.3c-.1-.5-.2-1-.2-1,0,0,.2,0,.2.2,0,.1,0,.2,0,.2s.3,0,.6-.1c.5,0,.5,0,.6,0,0,.1,0,.2-.6.3h-.6c0,.1,0,.3,0,.3,0,.2,0,.2,0,.2s0,0-.1,0h0ZM16.1,21.2c-.2,0-.4-.2-.5-.4-.2-.3,0-.7.2-.9.2-.1.5-.1.8,0,.4.2.5.5.3.9-.1.3-.5.4-.8.3ZM16.6,21c.1,0,.2-.2.2-.4s-.1-.3-.3-.4c-.1,0-.5,0-.6,0-.1,0-.2.3-.2.4s0,.2.1.3c0,0,.2.1.2.1,0,0,.1,0,.2,0,0,0,.2,0,.3,0h0ZM16.6,19.5l-.6-.2s0,0,0-.1c0,0,0-.1.6-.2.3,0,.6-.1.6-.2,0,0-.2,0-.4-.2-.3,0-.5-.2-.5-.2,0,0,0,0,0,0,0,0,.1,0,.7.2.6.2.6.2.6.3,0,0,0,0,0,.1-.2,0-.4.1-.6.2-.3,0-.6.1-.6.2,0,0,.2,0,.5.2.3,0,.5.2.5.2,0,0,0,0,0,0,0,0-.1,0-.7-.2h0ZM37.7,19.5c0,0,0-.2.1-.3.3-.4.3-.4,0-.4-.5,0-.5,0-.5-.2,0,0,0,0,0-.1,0,0,.2,0,.5,0h.4c0,0,.3,0,.3,0,.2,0,.3,0,.3,0,0,0,0,.1-.2.2-.2,0-.3.1-.5.5-.1.2-.3.4-.3.4s0,0,0-.1ZM20.6,15.3s0-.1,0-.2h0c0-.1-.4-.4-.4-.4-.2-.2-.5-.3-.5-.3,0,0,0-.1,0-.2,0,0,.1,0,.2,0,0,0,.4.3.5.3s.2-.6.2-.6c0,0,0,0-.1,0,0,0-.1,0-.1,0,0,0,0,0,0-.2,0-.2,0-.3,0-.2,0,0,0,.1,0,.3s0,.3-.1.3,0-.4.1-.6c0,0,0-.1,0-.2,0-.2-.1-.1-.2,0,0,.1,0,.1-.2.1,0,0-.2,0-.2,0,0,0,0-.1.1-.2v-.2c.1,0,0-.2,0-.2,0-.1-.1-.2-.2-.3h-.1c0-.1,0-.1,0-.1.1,0,.2,0,.3.2,0,.2.1.2.2.2.2,0,.2,0,.1.1h0c0,0,0,.2,0,.2,0,.2,0,.2.2,0,0,0,0,0,0,0,0,.1,0,.2.1.3.1.2.3.2.3,0s-.1-.6-.2-.6c-.1,0,0-.2.1,0,0,0,.1,0,.1.3,0,.1,0,.3,0,.4h0c0,.1.2.1.2.1.3,0,.4,0,.5-.1.1,0,.3,0,.3,0s0,0-.1.1c0,0-.1.1-.2,0,0,0,0,0-.1,0-.5,0-.6,0-.6,0,0,0,0,.1,0,.2.5.6.5.7.5.7,0,0,0,0-.1,0,0,0-.1,0-.2,0-.1,0-.2,0,0,0,.2,0,.2,0,0-.3-.2-.2-.2-.2-.3.1,0,.2-.1.5-.2.5s0,0,0,0ZM20.7,14.6c0-.3,0-.2,0-.3,0,0,0,0,0,.1,0,0,0,.2,0,.2,0,0,0,.1,0,.1.1,0,.1,0,.1-.2ZM33.7,15.3s0,0,0-.1c0,0,0,0,0-.1,0-.1,0-.1,0,0,0,0,0,0,0,0,0,0,.4-.3.4-.3s0,0-.1,0c0,0-.2,0-.2-.1,0-.1,0-.2,0-.1,0,0,.1,0,.2,0,.2,0,.2,0,.2,0,0-.1,0-.1,0-.1s-.2,0,0-.1c0,0,0,0,0,0,0,0,0-.2,0-.2,0,0,.5.2.5.3,0,0,0,.2-.1.1,0,0,0,0,0,0,0,0,0,.1,0,.2,0,0,0,0,0,.1.2,0,.3.3.3.4,0,.2-.1,0-.2-.1,0-.2,0-.2-.2-.2-.1,0-.1,0-.3.1-.1.2-.4.3-.4.3s0,0,0,0h0Z"/>
        <path class="cls-1" d="M35.4,14.6c0,0-.1,0-.1-.1s0,0-.1,0h-.2c0,0,.1,0,.1,0,0,0,.2,0,.3,0,.1,0,.2,0,.2,0,0,0,0,0-.3,0-.2,0-.3,0-.3-.1,0,0,0,0-.2,0,0,0-.2,0-.2,0,0,0,0,0-.1,0,0,0,0,0,0,0s0-.1,0-.1c0,0,0,0,0,0,0,0,0,0,0,0,0,0,0,0,.2-.2,0-.1,0-.2.1-.2,0,0,.1.1,0,.2,0,.1,0,.3,0,.3s.3-.4.3-.5,0-.1.1,0c0,0,0,0,0,.2,0,.1,0,.1,0,0,0,0,0,0,0,0,0,0,0-.2.1,0,0,0,0,0,0,0,0,0,0,0,0,0,0,0,0,.2,0,.3,0,0,0,0,0,0,0,0,0,.2-.1.3-.1.1,0,.1.1.1.1,0,.1,0,.1-.1,0,0,0,0,.1,0,.1,0,.2,0,.2,0,0,0,0,0,0-.2,0,0,0-.1,0-.1,0,0,0,0,.2,0,0,0,.2.1.2.2s-.2.1-.3.2c-.2.1-.3.2-.3.2,0,0,.3.2.3.3s-.2.3-.2.3c0,0,0,0-.1,0ZM34.9,13.7c0-.1,0-.2.2,0h0c0,0,0,0,0,0,.1-.1,0-.2-.1-.2,0,0-.1,0-.2,0,0,0-.1.2,0,.2,0,0,.1,0,.1,0h0ZM33.7,13.8s0-.1.3-.3q0,0,0,0c0,.2-.3.4-.4.3h0Z"/>
        <path class="cls-1" d="M35.6,13.7s0,0,0,0,0,0,0,0c0,0,0,0,0,0,0,0,0,0-.1,0h0ZM30.9,13s0,0,0-.2c0-.1-.2-.5-.3-.5s0,0,0,0c0,0,0,0,0,0,.1,0,.4.3.4.5,0,.2,0,.4-.1.3ZM24.4,12.7s0,0,.1-.2c.2-.2.2-.2,0-.2s-.1,0,0-.2c.1,0,.1-.2,0-.4,0,0,0-.1,0-.1,0,0,.2,0,.3,0,0,0,.1.1.1.4,0,0,0,.1,0,.1s0,0,0,0c0,0,0,.1-.1.3-.1.2-.2.2-.3.2s-.2,0-.2,0h0ZM26.4,12.4c-.2-.2-.3-.2-.4-.1-.1,0-.2,0-.3,0s0-.2.2-.2.5,0,.6.2c.1.2,0,.3-.2,0h0ZM25.5,12.4c0-.2,0-.4,0-.6,0-.2,0-.4,0-.6,0-.1,0-.2.2,0,0,0,0,.1,0,.6,0,.3,0,.5,0,.6,0,.1,0,.2-.1,0ZM29.6,12.4s0,0,.2-.1c.1,0,.2-.1.3-.1h0c0,0-.1-.2-.1-.2,0,0-.1-.1,0-.2,0,0,0,0,.1,0,0,0,.2,0,.2,0,.1,0,.1,0,.1-.1s0-.2.2-.1c0,0,0,.5,0,.5,0,0-.2.1-.2.2,0,0-.2.2-.3.2-.1,0-.5.1-.5,0ZM25.7,11.6s0,0,0-.1c0,0,.1,0,.3,0,.2,0,.3,0,.1.2-.1,0-.3,0-.4,0Z"/>
        <path class="cls-2" d="M26.4,36.4s.3,0,.7,0c.4,0,.9,0,1.1,0,.4,0,.4,0,.4,0,0,0-2.3,0-2.3,0h0ZM25.4,36.3s-.1,0-.2,0-.2,0-.2,0,0,0-.2,0-.2,0-.2,0,0,0-.1,0-.1,0-.1,0c0,0,0,0,.5,0,.3,0,.7.1.9.1.2,0,.4,0,.4,0-.1,0-.2,0-.3,0-.2,0-.3,0-.3,0ZM29.2,36.2c1-.2,1.7-.3,2.5-.6,2.5-.8,4.8-2.5,6.5-4.7,1.2-1.5,1.9-3.3,2.4-5.4,0-.5.1-.5.1-.3,0,.1,0,.2,0,.2s0,0,0,.2,0,.2,0,.2,0,0,0,.2,0,.2,0,.2,0,0,0,.1,0,.1,0,.1,0,0,0,.2,0,.2,0,.2,0,0,0,.1,0,.1,0,.1,0,0,0,.1,0,.1,0,.1,0,0,0,.1,0,.1,0,.1,0,0,0,.1,0,.1,0,.1,0,0,0,0,0,0,0,0,0,0,0,.1,0,.1,0,.1,0,0,0,0,0,0,0,0,0,0,0,.1,0,.1,0,.1,0,0,0,0,0,0,0,0,0,0,0,0,0,0,0,0,0,0,0,0,0,0,0,0,0,0,0,0,0,0,0,0,0,0,0,0,0,0,0,0,0,0,0,0,0,0,0,.1c0,0,0,0,0,.1s0,0,0,0,0,0,0,0,0,0,0,0,0,0,0,0,0,0,0,.1c0,0,0,0,0,.1s0,0,0,.1c0,0,0,0,0,.1s0,0,0,.1c0,0,0,0,0,.1s0,.1-.2.2c0,0-.2.2-.2.2s0,0,0,.1c0,0,0,0,0,.1s0,.1-.2.2c-.1.1-.2.2-.2.2,0,0-1,1.1-1.1,1.1s-.1,0-.2.2c-.1.1-.2.2-.2.2s-.1,0-.2.2c-.1.1-.2.2-.2.2s0,0-.1,0c0,0,0,0-.1,0s-.1,0-.2.1c0,0-.1.1-.2.1s0,0,0,0,0,0,0,0,0,0-.1,0c0,0,0,0-.1,0s0,0-.1,0c0,0,0,0-.1,0s0,0,0,0,0,0,0,0,0,0,0,0,0,0,0,0,0,0,0,0,0,0,0,0,0,0-.1,0c0,0,0,0-.1,0s0,0,0,0,0,0,0,0,0,0,0,0,0,0,0,0,0,0,0,0,0,0-.1,0-.1,0-.1,0,0,0,0,0,0,0,0,0,0,0,0,0,0,0,0,0,0,0-.1,0-.1,0-.1,0,0,0-.1,0-.1,0-.1,0,0,0,0,0,0,0,0,0,0,0-.1,0-.1,0-.1,0,0,0-.1,0-.1,0-.1,0,0,0-.1,0-.1,0-.1,0,0,0-.2,0-.2,0-.2,0,0,0-.2,0-.2,0-.2,0,0,0-.1,0-.1,0-.1,0-.1,0-.2,0-.2,0-.2,0,0,0-.2,0-.2,0-.2,0-.1,0-.4,0h-.4s.5,0,.5,0h0Z"/>
        <path class="cls-2" d="M26.3,36c-2.1-.2-3.9-.8-5.6-1.8-3.3-2-5.5-5.3-6.2-9.1-.1-.8-.2-1.3-.2-2.3,0-1.1,0-1.8.3-2.8.1-.7.5-1.8.8-2.4,2.4-5.5,8.1-8.6,14-7.8,2.2.3,4.2,1.2,6.1,2.6.6.5,1.8,1.6,2.3,2.2,2.7,3.4,3.6,7.8,2.3,12-.6,2.2-2,4.4-3.7,6-2.1,1.9-4.8,3.1-7.6,3.4-.4,0-2.1,0-2.4,0h0ZM27,34.8c.1-.1.2-.4.2-.7s0-.3-.1-.4c-.1-.1-.2-.1-.3-.1s-.2,0-.3.1c0,.1-.1.2-.1.3s0,.2.1.3c.1.1.3.2.5,0,0,0,.1,0,0,.2-.1.2-.4.2-.4,0,0,0-.2-.2-.2-.1,0,0,0,0,0,.1,0,.3.5.4.7.1ZM28.4,35c.2,0,.2,0,.2-.1s0,0-.4,0c-.1,0-.2,0-.4,0,0,0,.1-.2.3-.3.4-.2.5-.4.3-.7,0-.2-.2-.2-.4-.2s-.4,0-.4.2c0,.2,0,.3,0,.3s.1,0,.1,0c0-.1.1-.3.3-.3s.3.1.3.2-.1.2-.4.4c-.2.1-.3.3-.3.5s0,0,.2,0,.3,0,.5,0h0ZM29.9,34.7c.2-.2.3-.5,0-.7,0,0,0,0,0-.2.1-.1,0-.4-.2-.5-.1,0-.4,0-.5.1,0,0,0,.2,0,.2,0,.2,0,.2,0,.2,0,0,.1,0,.1-.1,0-.2.1-.2.3-.2s.1,0,.2.1c0,.1,0,.2-.1.3-.2,0-.2.2,0,.2s.3.1.3.2-.2.2-.3.2-.3,0-.3-.2,0,0,0,0c-.1,0-.1.2,0,.3.1.1.4.1.6,0h0ZM25.4,34.2c0-.3.1-.6.1-.7,0,0-.1,0-.2,0,0,0-.1,0-.2,0,0,0-.1,0-.2,0,0,0,0,0,.2.1,0,0,.1,0,.1,0v.4c-.2.5-.2.5,0,.5s0,0,.2-.6ZM22.6,33.3c.2-.3.3-.6.3-.6,0-.1-.2,0-.4.4-.1.2-.2.4-.3.4,0,0,0-.3,0-.6,0-.6,0-.6-.1-.6,0,0-.1,0-.1,0,0,0-.2.3-.3.6-.3.6-.3.6-.2.6,0,0,.1-.2.3-.5.2-.4.2-.4.3-.3,0,0,0,.3,0,.6,0,.4,0,.5.1.5,0,0,0,0,.1,0s.2-.3.3-.6h0ZM33.2,33.6c.2,0,.3-.3.3-.5s-.4-.9-.5-1c0,0,0,0-.1,0,0,0,0,0,.2.5.1.2.2.5.2.6,0,.1-.2.3-.4.3s-.2-.1-.5-.6c-.1-.2-.2-.4-.3-.4s0,0,0,0c0,0,0,0,0,.3.3.5.4.7.5.7.2,0,.2,0,.5,0h0ZM21.1,32.7c0,0,0-.2,0-.2,0,0,0,0,0,0s.1,0,.2-.1c.2-.1.2-.3,0-.5,0,0-.7-.5-.7-.5-.3.4-.8,1.1-.8,1.1,0,0,0,0,0,0,0,0,.1,0,.2-.2l.2-.2h.1c.2.3.3.4.3.4s0,.2-.1.3v.2c-.1,0,0,0,0,0,0,0,.1,0,.1,0,0,0,0-.2.1-.2h0ZM34.7,32.6c0,0,0,0-.2-.4,0-.1-.2-.2-.3-.3v-.2c-.1,0,.5.2.5.2.6.2.6.2.7.1,0,0,0,0-.3-.6-.5-.6-.5-.6-.5-.5,0,0,0,0,.3.5.2.2.3.4.3.4s-.3,0-.6-.2c-.6-.2-.6-.2-.7-.1,0,0,0,0,.3.6.2.3.4.5.5.5s0,0,0,0h0ZM28.6,32.3c2.4-.3,4.6-1.5,6.2-3.5,1.3-1.6,2-3.5,2.1-5.5.1-3.7-1.9-7.2-5.3-8.8-4.7-2.3-10.3-.4-12.6,4.3-.9,1.8-1.2,3.9-.8,5.9.3,1.9,1.2,3.5,2.5,4.8.5.5.9.9,1.6,1.3,1.9,1.2,4.1,1.8,6.4,1.5h0ZM19.4,31.7l-.3-.3v-.2c.2,0,.2-.1.3-.2,0,0,.1.1.3.2.2.2.3.2.3.2,0,0,0,0-.2-.3l-.3-.3h.1c0-.1.1-.3.1-.3l.3.3c.3.3.3.3.4.2,0,0,0-.1-.3-.4-.2-.2-.4-.3-.4-.3,0,0-.3.2-.5.5l-.5.5.4.4c.3.3.4.4.4.3,0,0,0,0-.2-.3ZM36.1,30.8c-.8-.7-.7-.7-.8-.6,0,0,0,0,.4.5.5.5.5.5.6.4,0,0,0,0-.2-.3h0ZM18.8,30.2l.4-.3.2.2c.1.2.2.2.2.1,0,0,0-.1-.3-.5-.3-.4-.4-.4-.4-.4,0,0,0,0,0,.3v.2c.1,0-.3.4-.3.4-.4.4-.5.4-.4.5,0,0,0,0,.2,0,0,0,.3-.2.5-.4h0ZM37.4,29.9s0,0,0,0c0,0-.8-1.2-.8-1.2,0,0,0,0,0,0,0,0,0,.1.3.5.2.3.3.5.3.5,0,0-.3,0-.6-.2-.5-.2-.6-.2-.6,0,0,0,0,0,0,0,0,0,1.2.4,1.4.4,0,0,0,0,0,0ZM17.9,29.7c.2-.1.2-.2.1-.6-.1-.4-.1-.4,0-.5.1,0,.2,0,.3.1,0,0,0,.3,0,.4,0,0,0,0,0,.2,0,0,0,0,.1,0,.1-.1.1-.4,0-.6-.2-.3-.4-.3-.6-.2-.2,0-.2.3,0,.6,0,.2,0,.4,0,.5-.2.1-.5-.3-.4-.5,0,0,0,0,0-.1,0,0,0,0,0-.1h0c0,0-.1,0-.1,0-.1.2-.2.4,0,.6.2.3.4.4.7.3ZM17.8,27.6s0,0,0-.1c0,0-.1,0-.8,0-.4,0-.7,0-.7,0s0,0,0,0c0,0,0,0,.3,0h.2s.1.2.1.2v.2c.1,0,0,.2,0,.2-.1.1-.2.2-.1.3,0,0,0,0,.6-.4.3-.3.5-.5.5-.6h0ZM38.4,28.2c0-.1.2-.3.2-.5,0-.2,0-.2,0-.3,0,0,0,0-.3.3l-.2.4h-.2c-.1-.1-.2-.2-.2-.2,0-.1,0-.2.2-.4.2-.3.2-.3,0-.4,0,0,0,0,0,0,0,0,0,.2-.2.3,0,.2-.1.3-.2.3s-.3-.1-.3-.1c0-.1,0-.3.2-.4.1-.3.2-.4.1-.4,0,0,0,0,0,0,0,0-.4.9-.4.9,0,0,1.1.6,1.2.6,0,0,0-.1.2-.2ZM16.2,26.8c0-.1,0-.3-.1-.4,0,0,.3-.1.4-.1,0,0,0,.2.1.3.1.3.1.4.2.3,0,0,0-.1,0-.3,0-.1,0-.2-.1-.4,0,0,.2-.1.3-.1s0,.2.1.4c0,.2.1.4.2.4,0,0,0,0,0,0,0,0,0-.1,0-.5,0-.3-.2-.5-.2-.5,0,0-1.2.4-1.3.4,0,0,.2.9.3,1,0,0,0,0,0,0,0,0,0,0,0-.4h0ZM39.1,26.4s0,0-.3-.1c-.1,0-.2,0-.3-.1,0-.1,0-.2,0-.3,0-.3,0-.3.5-.2.1,0,.2,0,.2,0,0-.1,0-.1-.3-.1-.1,0-.2,0-.3,0,0,0-.1,0-.2,0-.2-.2-.5-.2-.6,0,0,.1-.2.8-.2.8,0,0,1.3.4,1.3.3,0,0,0,0,0-.1h0ZM16.4,25.5c.6-.1.7-.1.7-.2s0-.1-.5,0h-.1s0-.3,0-.3c0-.1,0-.2,0-.3,0,0,.1,0,.3,0,.3,0,.3,0,.2-.2,0,0-.1,0-.5,0-.8.2-.9.2-.9.2,0,.1,0,.1.4,0,.2,0,.3,0,.3,0,0,0,.1.7,0,.7,0,0-.2,0-.3,0-.2,0-.3,0-.3.1,0,0,0,0,0,0,0,0,0,0,.7,0ZM39.4,24.3c.2-.2.3-.5.2-.8,0-.2-.1-.2-.3-.2-.2,0-.4.1-.5.5,0,.3-.2.4-.3.3-.2-.1,0-.6.1-.6s0,0,0,0c0-.2-.2-.1-.3,0-.3.3-.2.8.1.9.2,0,.2,0,.3,0,.1,0,.1-.1.3-.5,0-.2.2-.3.3-.2.1,0,.2.2,0,.5,0,.1,0,.2-.2.2-.2,0-.2.2,0,.2,0,0,.2,0,.2,0h0ZM16.8,24.1s0-.3,0-.6v-.5h-.1c-.1,0-.1,0,0,.2,0,.3,0,.2-.6.3h-.5c0,.2,0,.3,0,.2,0,0,.3,0,.6,0h.5s0,0,0,0c0,0,0,.2,0,.2,0,.1,0,.1,0,.1,0,0,0,0,0,0h0ZM15.7,22.7c.1,0,.3,0,.3,0,0,0,0,0,.2,0,0,0,.2,0,.3,0,.3,0,.4-.2.4-.9,0-.2,0-.2,0-.2s-.3,0-.7,0c-.2,0-.4,0-.6,0,0,0,0,0,0,.1,0,0,0,0,0,0s.2,0,.3,0h.2s0,.3,0,.3c0,.1,0,.3,0,.3,0,0-.1,0-.3,0h-.3c0,.3,0,.3,0,.2,0,0,.2,0,.3,0ZM39.3,22.3c.3,0,.3,0,.3-.1h0c0,0-.5,0-.5,0-.9,0-.9,0-.9.2h0c0,0,.4,0,.4,0,.2,0,.5,0,.7,0h0ZM38.3,21.1v-.2s.6-.1.6-.1c.6-.1.6-.1.6-.3,0,0-.1,0-.6,0-.3,0-.6.1-.6.1s0,0,0-.2c0-.2,0-.3-.2-.2,0,0,0,.2,0,.5.1.6.1.6.2.6s0,0,0-.2ZM16.7,21.1c.2,0,.3-.3.3-.6,0-.2-.1-.5-.4-.6-.2-.1-.6-.1-.8,0-.2,0-.3.4-.3.6,0,.5.7.9,1.2.6ZM17.3,19.6s-.2-.1-.5-.2c-.3,0-.5-.2-.5-.2s.3,0,.6-.1c.3,0,.6-.1.6-.2,0,0,0,0,0-.1,0,0,0-.1-.6-.3-.6-.2-.7-.2-.7-.2,0,0,0,0,0,0,0,0,.2.1.5.2.3,0,.5.2.4.2,0,0-.3,0-.6.2-.5.1-.6.1-.6.2,0,0,0,.1,0,.1l.6.2c.5.2.6.2.7.2,0,0,0,0,0,0ZM38.1,19.3c.2-.3.3-.4.5-.5.3-.1.3-.1.2-.2,0,0,0,0-.3,0h-.3c0,0-.4,0-.4,0-.2,0-.5,0-.5,0,0,0,0,0,0,.1,0,0,0,0,.5.2.3,0,.3,0,0,.4-.1.2-.2.2-.1.3,0,0,0,0,0,0s.2-.2.3-.4ZM20.7,15.2c0,0,0-.3,0-.4,0-.3,0-.3.3-.1.2.2.2.3,0,.3-.1,0,0,0,0,0,0,0,.2,0,.2,0,0,0,0,0,.1,0,0,0,0,0-.5-.7-.1-.1-.1-.2,0-.2,0,0,.2,0,.6,0,0,0,0,0,.1,0,0,0,.1,0,.2,0,0,0,.1-.1.1-.1,0,0-.1,0-.3,0-.1,0-.2,0-.5.1h-.2s0-.1,0-.1c0,0,0-.3,0-.4,0-.2,0-.3-.1-.3-.1,0-.2,0-.1,0,0,0,.2.5.2.7s-.1,0-.3,0c-.1-.1-.1-.2-.1-.3,0-.1,0-.1,0,0,0,0,0,0-.2,0v-.2c0,0,0,0,0,0,.1,0,0-.1-.1-.1,0,0-.1,0-.2-.2-.1-.3-.2-.3-.3-.2h0s.1.1.1.1c0,0,.2.2.2.3v.2c.1,0,0,.2,0,.2,0,.1-.1.2-.1.2,0,0,0,0,.2,0,.1,0,.1,0,.2-.1,0-.2,0-.2.2,0,0,.1,0,.1,0,.2-.2.2-.3.6-.1.6s.1,0,.1-.3,0-.2,0-.3c.1-.1.1,0,0,.2,0,.1,0,.1,0,.2,0,0,.1,0,.1,0,0,0,0,0,.1,0,0,0-.1.6-.2.6s-.4-.2-.5-.3c0,0-.1,0-.2,0-.1,0-.1.2,0,.2s.3.1.5.3l.4.3h0c0,.4,0,.5,0,.2h0ZM34,15.3c0,0,.2-.2.3-.3.2-.2.2-.2.3-.1,0,0,.1,0,.2.2,0,.2.2.3.2.1,0-.2,0-.4-.3-.4-.1,0-.1,0,0-.1,0,0,0,0,0-.2,0,0,0-.1,0,0,0,0,.1,0,.1-.1,0,0-.4-.3-.5-.3s0,.1,0,.2c0,0,0,0,0,0,0,0,0,.1,0,.1s.1,0,0,.1c0,0,0,0-.2,0,0,0-.2,0-.2,0,0,0-.1,0,0,.1,0,0,.1.1.2.1,0,0,.1,0,.1,0,0,0-.3.3-.4.3s0,0,0,0c0-.1-.2-.1-.1,0,0,0,0,0,0,.1,0,0,0,.2.1.2s0,0,.1,0h0ZM35.7,14.6c0,0,.1-.1.1-.2,0-.1-.2-.3-.3-.3,0,0,0,0,.3-.2.2,0,.3-.2.3-.2s0-.1-.2-.2c-.1,0-.2-.1-.2,0,0,0,0,0,0,.1.1,0,.1,0,0,.2,0,0-.1,0-.2,0-.1,0-.2,0-.1,0,0,0,0,0-.1.1-.2,0-.2,0-.1-.1,0,0,.2-.3.1-.3,0,0,0,0,0,0,0,0,0-.3,0-.3,0,0,0,0,0,0,0,0,0,0,0,0,0,0-.2,0-.1,0,0,0,0,0,0,0-.1,0-.2,0,0,0,0,0,0-.1,0-.2,0,0-.1,0-.1,0s-.2.5-.3.5,0-.1,0-.3c0-.1,0-.3,0-.2,0,0,0,.1-.1.2,0,.2,0,.2-.2.2,0,0,0,0,0,0s0,0,0,0c0,0,0,0,0,.1,0,.1,0,.1.1,0,0,0,0,0,.1,0,0,0,.2,0,.2,0,0,0,.2,0,.2,0,0,0,.1,0,.3.1.2,0,.3,0,.3,0,0,0,0,0-.2,0-.1,0-.2,0-.3,0h-.1s.2,0,.2,0c0,0,.2,0,.2,0s.2.2.3.2c0,0,0,0,.1-.1ZM33.9,13.7c0,0,.1-.2.1-.2q0,0,0,0c-.2.2-.3.3-.3.3,0,0,.2,0,.3,0ZM35.8,13.7s0,0,0,0c0,0,0,0,0,0s0,0,0,0c0,0,.1,0,.1,0ZM31,12.9c0-.2-.2-.7-.5-.7s-.1,0,0,0c0,0,0,0,0,0,0,0,.3.4.3.5,0,.2,0,.3.2,0h0ZM24.9,12.6c.1-.2.1-.2.1-.3,0,0,0,0,0,0s0,0,0-.2c0-.3,0-.3-.1-.4-.1,0-.3,0-.3,0,0,0,0,0,0,.1.2.2.2.3,0,.4-.1,0-.1.2,0,.2s.1,0,0,.2c0,0-.2.2-.1.2,0,0,0,0,.2,0,.1,0,.2,0,.3-.2h0ZM26.6,12.5s0,0,0-.2c0-.1-.3-.2-.6-.2s-.3,0-.2.2c0,0,.1,0,.3,0,.1,0,.2,0,.4.1.1.1.2.1.2,0ZM25.6,12.3c0,0,0-.3,0-.6,0-.4,0-.5,0-.6-.1-.1-.2,0-.2,0,0,0,0,.3,0,.6s0,.5,0,.6c0,.1.1,0,.1,0ZM30.2,12.3c0,0,.2-.1.3-.2,0,0,.1-.1.2-.2,0,0,.1-.5,0-.5,0,0-.2,0-.2.1s0,.1-.1.1c0,0-.2,0-.2,0-.1,0-.1,0-.1,0,0,0,0,.1,0,.2h.1c0,0,0,.2,0,.2,0,0-.2.1-.3.1-.1,0-.2,0-.2.1,0,0,.4,0,.5,0ZM26.1,11.6c.2,0,.1-.1-.1-.2-.1,0-.2,0-.3,0,0,0,0,0,0,.1,0,0,.2,0,.4,0Z"/>
        <path class="cls-2" d="M26.5,34.3c-.2-.2,0-.5.2-.5s.2.1.2.3c0,.3-.3.4-.4.2h0ZM20.9,32.1c0,0-.2-.1-.2-.2,0,0,.2-.4.2-.4s.1,0,.2.2c.2.2.3.3.1.5-.1,0-.2,0-.4,0h0ZM26.7,32.1c-.8,0-1.5-.2-2.1-.4-3.2-1.1-5.6-3.8-6.2-7.2-.1-.7-.2-2,0-2.7.1-1.1.4-2,.9-3,.9-1.8,2.3-3.3,4.1-4.2,1.5-.8,3-1.1,4.7-1,2.4.1,4.8,1.3,6.4,3.1,1.2,1.4,2,3.1,2.2,4.9,0,.7,0,1.8,0,2.4-.5,3.7-3.1,6.7-6.7,7.7-.8.2-1.3.3-2.3.3-.5,0-.9,0-1,0ZM28.8,31.6c.5,0,1.1-.2,1.5-.4.4-.1,1.2-.5,1.2-.5s-.2,0-.5,0c-.7,0-1.9-.2-2-.3,0,0-.2-.6-.2-.7,0,0,.1,0,.3,0,.7.2,1.4.3,2.4.3h1s.2-.1.2-.1c.3-.2.9-.8.9-.8,0,0-.2,0-.5,0-.6.1-2.1.1-2.8,0-.5,0-1-.2-1.5-.4h-.3c0-.1-.1-.5-.1-.5,0-.1,0-.3-.1-.4,0,0,0,0,.1,0,.2.1.9.4,1.3.5,1.2.3,2.6.3,3.9,0,.8-.2.7-.1,1-.5.2-.3.5-.8.5-.8s0,0-.2,0c-1.1.4-2.6.6-3.7.5-1.4-.1-2.1-.3-3.8-1-.7-.3-1.7-.6-2.1-.7-.2,0-.6,0-1.1,0-.7,0-.9,0-1.4.1-.9.2-1.8.5-2.6,1-.2,0-.3.2-.3.2,0,0,.4.7.5.8,0,0,.2,0,.5-.2,1.2-.6,2.2-.9,3.5-.9.8,0,1.7.1,2.3.4.5.2.8.3.9.3,0,0,.3.8.2.8-.2,0-.3-.1-.5-.2-.9-.4-1.6-.6-2.1-.7-.5,0-1.6,0-2.1,0-.7.2-1.6.5-2.2.8h-.2c0,.1.3.4.3.4.4.5.4.4.8.3.5-.2,1-.4,1.6-.5.4,0,.6-.1,1.2-.1,1.2,0,2,.2,3.1.7h.3c0,.1.1.5.1.5,0,.2,0,.4,0,.4,0,0-.3-.1-.6-.3-.7-.3-1-.4-1.6-.6-.3,0-.5-.1-1.1-.1-1,0-1.7,0-2.5.4q-.5.2-.3.4c1.3,1,2.8,1.6,4.4,1.8.5,0,1.8,0,2.2,0h0ZM33.3,27c.6-.1.8-.2,1.5-.4.4-.1.6-.2.6-.3,0,0,.4-1,.4-1s-.2,0-.4.1c-1.3.5-2.5.8-3.8.8s-2.3-.2-3.9-.9c-1-.5-1.7-.7-2.6-.9-.5,0-2.1-.1-2.6,0-.7.1-1.4.3-2.1.6-.3.2-1,.5-1.2.7h-.1c0,0,.1.4.1.4,0,.1.1.3.2.4h0c0,.1.3,0,.3,0,1-.6,2-1,3.1-1.2.6,0,1.8,0,2.4,0,.9.2,1.5.3,2.8.9,1,.5,1.6.6,2.4.8.2,0,.4,0,.5,0,0,0,.5,0,1,0,.7,0,1,0,1.4,0h0ZM19.6,23.7c.4-.5,1-1.4,1.4-2,.4-.6,1.2-1.8,1.8-2.6.6-.8,1.1-1.5,1.1-1.5,0,0,.2.1.9.9.5.5.9.9.9.9,0,0,.2-.3.5-.7,1.2-2,1.4-2.3,1.4-2.3,0,0,.2.3.4.6,1.2,1.9,1.4,2.3,1.4,2.4,0,0,.4-.3,1-.9l.9-.9,2.4,3.5c1.8,2.6,2.4,3.5,2.4,3.5,0-.2.1-.9.1-1.6,0-1.3-.3-2.6-.9-3.8-1.2-2.4-3.3-4.1-5.9-4.7-.7-.2-1.2-.2-2-.2-.9,0-1.4,0-2.2.3-3.2.8-5.7,3.5-6.3,6.7-.1.6-.2,1.2-.2,1.8,0,.8.1,1.8.2,1.7,0,0,.3-.5.7-1ZM17.1,27.8c0,0,0-.2,0-.2,0,0,.1,0,.3,0h.3s-.2.2-.2.2c-.1.1-.2.2-.2.2s0,0,0-.2h0ZM38.1,26.1h-.2c0,0,0-.3,0-.3,0-.3.2-.4.3-.3.1,0,.2.1.2.2s0,.5-.1.5c0,0-.2,0-.2,0ZM16.2,22.5c0,0,0,0,0-.3s0-.4.3-.3h.2s0,.3,0,.3c0,.4-.2.5-.4.4ZM16.3,21c0,0-.1,0-.2,0,0,0-.2,0-.2-.1-.1-.1-.1-.2-.1-.3s0-.4.2-.4c.1,0,.5,0,.6,0,.3.1.4.4.2.7,0,.1-.3.2-.5.2ZM20.6,14.8c0,0,0,0,0-.1,0,0,0-.2,0-.2,0,0,0-.1,0-.1,0,0,0,0,0,.3,0,.2,0,.2-.1.2h0ZM34.8,13.8s0-.2,0-.2c0,0,.1,0,.2,0,.2,0,.2,0,.1.2h0c0,0,0,0,0,0,0-.1-.2-.1-.2,0s0,.2-.1,0ZM23.9,35.9s0,0-.2,0-.2,0-.2,0,0,0-.1,0-.1,0-.1,0,0,0-.1,0-.1,0-.1,0,0,0-.1,0-.1,0-.1,0,0,0-.1,0-.1,0-.1,0,0,0,0,0,0,0,0,0,0,0-.1,0-.1,0-.1,0,0,0,0,0,0,0,0,0,0,0-.1,0-.1,0-.1,0,0,0,0,0,0,0,0,0,0,0,0,0,0,0,0,0,0,0,0,0,0,0,0,0,0,0,0,0,0,0,0,0,0,0,0,0,0,0,0,0,0,0,0,0,0,0,0,0,0,0,0,0,0,0-.1,0,0,0-.1,0,0,0,0,0,0,0,0,0,0,0-.1,0,0,0-.1,0,0,0-.1,0c0,0,0,0-.1,0s0,0-.1,0c0,0,0,0-.1,0s-.1,0-.2-.1c0,0-.1-.1-.2-.1s0,0-.1,0c0,0,0,0-.1,0s-.1,0-.2-.2c-.1-.1-.2-.2-.2-.2,0,0-1.5-1.4-1.5-1.5s0-.1-.2-.2c-.1-.1-.2-.2-.2-.2s0,0,0-.1c0,0,0,0,0-.1s0-.1-.1-.2c0,0-.1-.1-.1-.2s0,0,0-.1c0,0,0,0,0-.1s0,0,0-.1c0,0,0,0,0-.1s0,0,0,0,0,0,0,0,0,0,0-.1c0,0,0,0,0-.1s0,0,0,0,0,0,0,0,0,0,0,0,0,0,0,0,0,0,0-.1c0,0,0,0,0-.1s0,0,0,0,0,0,0,0,0,0,0,0,0,0,0,0,0,0,0,0,0,0,0-.1,0-.1,0-.1,0,0,0,0,0,0,0,0,0,0,0,0,0,0,0,0,0,0,0-.1,0-.1,0-.1,0,0,0,0,0,0,0,0,0,0,0-.1,0-.1,0-.1,0,0,0-.1,0-.1,0-.1,0,0,0-.1,0-.1,0-.1,0,0,0-.1,0-.1,0-.1,0,0,0-.1,0-.1,0-.1,0,0,0-.2,0-.2,0-.2,0,0,0-.2v-.2s0,.2,0,.2c.5,1.7,1,2.9,1.8,4.1,1.7,2.6,4.4,4.6,7.3,5.5.8.2.7.2.5.2,0,0-.2,0-.2,0h0ZM14.2,25.8c0,0,0-.2,0-.2s0,0,0-.2,0-.2,0-.2c0,0,0-.1,0-.3v-.3s.1.5.1.5c0,.3.1.6.1.6,0,0,0,.1,0,.1s0,0,0-.2h0ZM40.8,24.8c0,0,0-.1,0-.2,0-.1,0,0,0,0,0,.1,0,.2,0,.2s0,0,0,0h0ZM14,24.1c0-.3,0-.3,0,0,0,.1,0,.2,0,.2s0-.1,0-.2ZM40.9,23.8c0-.2,0-.3,0-.3,0,0,0,.1,0,.3s0,.3,0,.3,0-.1,0-.3ZM40.9,22c0-.4,0-.5,0-.4,0,0,0,.2,0,.4v.4s0-.4,0-.4h0ZM14,21.6c0-.3,0-.4,0-.4,0,0,0,0,0,.3,0,.5,0,.5,0,0ZM40.8,21.1c0-.2,0-.3,0-.3,0,0,0,.1,0,.3s0,.3,0,.3,0-.1,0-.3ZM14.1,20.9c0-.2,0-.2,0-.2,0,0,0,0,0,.2,0,.3,0,.3,0,0ZM40.7,20.6c0,0,0-.2,0-.2,0,0,0,0,0,.2v.2s0-.2,0-.2ZM14.2,20.4c0-.1,0-.2,0-.2s0,0,0-.2,0-.2,0-.2,0,0,0-.2,0-.2,0-.2,0,0,0-.2,0-.2,0-.2,0,0,0-.2,0-.2,0-.2,0,0,0-.1,0-.1,0-.1,0,0,0-.1,0-.1,0-.1,0,0,0-.1,0-.1,0-.1,0,0,0-.1,0-.1,0-.1,0,0,0,0,0,0,0,0,0,0,0-.1,0-.1,0-.1,0,0,0,0,0,0,0,0,0,0,0,0,0,0,0,0,0,0,0,0,0,0,0,0,0,0,0,0,0,0,0,0,0,0,0,0,0,0,0,0,0,0,0,0,0,0,0,0,0,0,0,0,0,0,0,0,0,0,0,0,0,0,0,0,0,0,0,0,0,0,0,0,0,0,0,0,0,0,0-.1c0,0,0,0,0-.1s0,0,0-.1c0,0,0,0,0-.1s0,0,0-.1c0,0,0,0,0-.1s0,0,0-.1c0,0,0,0,0-.1s0-.1.1-.2c0,0,.1-.1.1-.2s0-.1.1-.2c0,0,.1-.1.1-.2s0,0,.1-.2c0,0,.1-.1.1-.2,0,0,1.3-1.4,1.4-1.4s0,0,.2-.1c0,0,.1-.1.2-.1s.1,0,.2-.2c0,0,.2-.2.2-.2s.1,0,.2-.1c0,0,.1-.1.2-.1s0,0,.1,0c0,0,0,0,.1,0s0,0,.1,0c0,0,0,0,.1,0s0,0,.1,0c0,0,0,0,.1,0s0,0,.1,0c0,0,0,0,.1,0s0,0,0,0,0,0,0,0,0,0,0,0,0,0,0,0,0,0,0,0,0,0,0,0,0,0,0,0,0,0,0,0,0,0,0,0,0,0,0,0,0,0,0,0,0,0,0,0,0,0,0,0,0,0,0,0,0,0,0,0,0,0,0,0,0,0,0,0,0,0,0,0,0,0,0,0,0,0,.1,0,.1,0,.1,0,0,0,0,0,0,0,0,0,0,0,.1,0,.1,0,.1,0,0,0,.1,0,.1,0,.1,0,0,0,.1,0,.1,0,.1,0,0,0,.1,0,.1,0,.1,0,0,0,.1,0,.1,0,.1,0,0,0,.2,0,.2,0,.2,0,0,0,.2,0,.2,0,.2,0,0,0,.2,0,.2,0,.2,0,0,0,.2,0c.2,0,.1,0-.4.1-1.1.3-2.3.7-3.2,1.2-1.4.7-2.3,1.4-3.4,2.5-1.1,1.1-1.9,2.2-2.6,3.5-.5,1-.8,2-1.1,3.1-.1.6-.1.6-.1.4h0Z"/>
        <path class="cls-2" d="M40.6,20c-.6-2.7-2-5.1-4-7-.5-.5-.6-.5-.9-.8-.7-.5-1.4-1-2.2-1.3-.8-.4-1.3-.6-2.6-1-.3,0-.3,0-.1-.1,0,0,.2,0,.2,0s0,0,.1,0,.1,0,.1,0,0,0,.2,0,.2,0,.2,0,0,0,.1,0,.1,0,.1,0,0,0,.1,0,.1,0,.1,0,0,0,.1,0,.1,0,.1,0,0,0,0,0,0,0,0,0,0,0,.1,0,.1,0,.1,0,0,0,.1,0,.1,0,.1,0,0,0,0,0,0,0,0,0,0,0,0,0,0,0,0,0,0,0,0,0,0,0,0,0,0,0,0,0,0,0,0,0,0,0,0,0,0,0,0,0,0,0,0,0,0,0,0,0,0,0,0,0,0,0,0,0,0,0,0,0,0,0,.1,0c0,0,0,0,.1,0s0,0,0,0,0,0,0,0,0,0,.1,0c0,0,0,0,.1,0s0,0,0,0,0,0,0,0,0,0,.1,0c0,0,0,0,.1,0s.1,0,.2.1c0,0,.1.1.2.1s0,0,.1,0c0,0,0,0,.1,0s.1,0,.2.1c0,0,.1.1.2.1,0,0,1.8,1.7,1.8,1.8s0,.1.2.2c0,0,.2.2.2.2s0,.1.2.2c0,0,.2.2.2.2s0,0,0,.1c0,0,0,0,0,.1s0,.1.1.2c0,0,.1.1.1.2s0,0,0,0,0,0,0,0,0,0,0,0,0,0,0,0,0,0,0,.1c0,0,0,0,0,.1s0,0,0,0,0,0,0,0,0,0,0,.1c0,0,0,0,0,.1s0,0,0,0,0,0,0,0,0,0,0,0,0,0,0,0,0,0,0,0,0,0,0,0,0,0,0,0,0,0,0,.1,0,.1,0,.1,0,0,0,0,0,0,0,0,0,0,0,0,0,0,0,0,0,0,0,.1,0,.1,0,.1,0,0,0,0,0,0,0,0,0,0,0,.1,0,.1,0,.1,0,0,0,.1,0,.1,0,.1,0,0,0,.1,0,.1,0,.1,0,0,0,.1,0,.1,0,.1,0,0,0,.2,0,.2,0,.2,0,0,0,.2,0,.2,0,.2,0,0,0,.2,0,.2,0,.2c0,0,0,0,0,.2,0,.2,0,.2,0-.2h0ZM30.2,9.7c-.4,0-.4,0-.2,0,.1,0,.2,0,.2,0s0,0,.2,0,.2,0,.2,0c0,0,0,0,0,0,0,0-.2,0-.4,0h0ZM25.3,9.6s0,0,.2,0c.2,0,.2,0,0,0,0,0-.2,0-.2,0h0ZM29.4,9.6c-.1,0-.1,0,0,0,.1,0,.2,0,.2,0,0,0,0,0-.3,0h0ZM25.8,9.5s.1,0,.3,0c.2,0,.3,0,.1,0-.2,0-.4,0-.4,0ZM28.7,9.5c-.1,0,0,0,.2,0,.2,0,.3,0,.3,0,0,0-.2,0-.4,0h0Z"/>
        <path class="cls-3" d="M77.5,19.6c.8.3,1.7,1.5,1.3,2.4l-.4.8-.4,4c-.1.7.4,2-.4,2.3-.3,0-.4-.2-.5-.4l-.4-1.1.2-1.1.2-4.5c0-.9-.4-1.9.2-2.5,0,0,.2,0,.2,0ZM79.6,22.2c1.3.2,2.4.4,3.1,1,0,.3-.1.3-.3.5-1.8-.3-1.8,1.1-3.6-.8.1-.5.4-.5.8-.7ZM70.7,22c1,.1,1.8.8,1.9,1.5l-.2,3.5c.5.2.7.2,1,.6v.3c-.9.9-1.9,1.9-3,2.5l-1.8-.5c0-.1-.1-.2-.2-.3v-.2c.8-.7,2.1-.6,2.4-1.8l-.2-.3c-.6,0-.9-.3-1.1-.8v-.3c.3-.4,1-.5,1.4-.7.3-2.2-1.2-2.1-1.2-3.4h.2c0,0,.6-.2.6-.2ZM80.3,27c1,.2,3.5,1,3.9,1.5l.6,1.6c-.1.3-.4.7-.9.4-1-.5-1.2-1.8-2.4-2.3-1-.5-1.4.6-2.4.1-.5-.2-.8-.7-.7-1.3l.2-.2,1.7.2h0ZM91,21.6c.6-.2,1,0,1.3.4.4.7,0,1.1,0,1.5,0,.5.5.4.5.9v.3c-1.1.3-1.1,1.4-1.6,2.1-.7,1.1-2.1,2.3-3.9,2.7v-.2c.8-1,2.5-1.8,2.8-3.1,0,0,0,0-.1-.1-.7.1-1.5-.4-1.8-1.1l.2-.5c.3-.2.5,0,.8,0,.7,0,1.7-.8,2.1-1.1,0-.7-.5-1.1-.3-1.7h0ZM92.1,26c1.7-.4,4.7,1.9,4.2,4h-.3c-.7-.2-.5-1-1.1-1.7-.6-.8-2.6-1.2-3-1.9,0,0,.3-.3.3-.3ZM58.2,9.5c1.9,1.5,0,3.5.4,5.2.5.1,1.2-.2,1.6.5.1.3,0,.4,0,.6h0c-.4.1-1.1-.2-1.4,0-.4.2-.8,2.6-.9,3.1h.4c.3-.2.7-.4,1-.3h.2c0,0,0,.4,0,.4-.4.2-1.3.5-1.5.9v3.6c.4.2.6.3.9.7,1.1-1.3,2.7-4.1,2.7-5.3,0-.3-.3-.6-.3-.8v-.2c.3,0,.5,0,.7,0,.8.2,1,1.2.9,1.7l-.9,1.3-.7,1.8c-.4.9-1.5,1.5-1.6,2.3.9.7,1.8,1,2.6,1.4l1.4,1.1c1.1.5,2,0,3,1.3h0c0,.1-.2.4-.2.4l-2,.4c-.8-.2-.8-1-1.2-1.4l-4-2.7c-.4,0-.8.3-1.2.4-.5.9,0,1.7,0,2.6,0,1.9,0,3.7.1,5.6l-.3.2c-1.6-.6-1.6-1.6-3-2.8l.2-.2h.2s1.6.8,1.6.8h.1c0,0,0-4.5,0-4.5-.9-.2-4.5,3.7-6.1,3.9l-.2-.2h0c.4-1,2-1.4,2.3-2.4-.3-.4-.2-.7-.3-1.1l-1.1-2.2-1.1-3.4c-.2-.6-.9-.8-1.1-1.4.3-.6,1.3-.9,1.8,0,.2.5,0,1,.2,1.5l.9,2.3c.1.6,0,1.1.3,1.7.8-.2,3.9-2.3,4.3-3.2l-.3-.2c-.5.2-2.1.3-2-.8v-.2c.9-.5,1.4-.5,2.2-.5v-.2c.1,0,0-1.1,0-1.1h-.1c-.6.1-1.4.2-2,.6-1.1,1-1.3,2.8-2.9,1.8v-.5c1.4-1.9,3.3-2,4.9-2.7.4-.6.4-1.7.4-2.4h-.2c-.6.3-1.9,1.7-2.6.9l-.3-.7c-.4-.5-.6-.3-.7-.9l.2-.3c1.1-.2,2.9-.4,3.8-1.4l.2-3.5c0-.5-.5-1.1-.4-1.6l.2-.2c.3-.1.4,0,.6,0h0ZM58.6,24.3l-.7.2c-.2.3-.2.4-.1.7,0,0,.2,0,.3,0l.6-.9h0ZM56.7,25.2l-2.3,2.1c-.4.2-.8,0-1.2.2l.6,1.1c.4-.2,3.1-2.3,3.2-2.6v-.7s-.2-.2-.2-.2ZM103.2,16h.3c0-.1,1,.3,1,.3.4.8.1,1.2.2,1.8h.1c0,0,1.2-1.7,1.2-1.7v-.3c-.4,0-.5,0-.7-.4v-.6c.6-.2.7,0,1.2-.1v-.2c-.2-.4-.3-.5-.2-.8v-.2c1.7.5,1.5,1.3,1.4,2.5,1,1,1,2.6.4,3.6l.2.2h0c.8-.1,2-1.5,2-2.2h-.8c0-.3,0-.2,0-.4.4-.5,1.2-.6,1.7-.9l.4-1.4-.2-.2c-.6.3-1.4.3-1.9-.2v-.6s.3-.2.3-.2c.9.3,2.1-.5,3,0,.9.6-2.2,4.4-2.3,5.3.6.1,1.2-.5,1.9-.4,1.9.3,1.4,2.5,1.2,3.5l-.4.2c-.8-.4-.9,0-1.7,0-1.2,0-1.2-.4-2.7.2h-.1c0,0,0-.3,0-.3,1.2-1.1,2.5-1.6,3.6-2.2v-.3c0,0-.2-.7-.2-.7h-.2c-1.1,1-1,.6-2.1,1.1l-1.4.9c-1.7-.7-1.6.2-3.5.7h-1c-.5.5-.2.8-.3,1.3h-.2c0,.1-.4,0-.4,0-.8-1.3-.8-.7-2-1.2v-.2c0-.2,0-.3,0-.5l1.1-.2c0-1.1-.9-2.3-1-3.4.3-.2.3-.2.6-.2l.7.4c.2,1.1,0,1.7.7,2.9.3,0,.5.1.9-.1.2-1.6-1.1-3.7-1-5.2h0ZM99.1,22l.3-.2h0c1,.8.5,3.1-.5,3.9h-.5c-.4-1.2.5-2.6.6-3.7ZM106.5,17.1c-.4.7-1.5,1.3-1.8,2l.4,1.8c.5,0,1.3-.2,1.3-.9-.4-.2-1.1-.6-.8-1.2.1,0,.3-.2.4-.3.5,0,.7.1,1.1.5l.3-.2c.3-.5.2-2.4-1-1.7ZM103.4,24.3c.7-.5.9-.1,1.5-.1,1.2,0,2.3-1.1,3.3,0,0,1.1-.5.6-1.3,1v.2c.5.2.7,0,1.1.6,0,.6-.4,1-.4,1.6.1,0,.1,0,.3,0,2-.5,3-.8,4.6,1.1,0,.3,0,.5,0,.8-.4.3-.5.2-.8.2-.7-.5-1.3-1.3-2.1-1.6-.6.2-1.5,0-1.9.6-.6,1.2-.2,3.7-1,5.3-.5.8-1.6.4-2-.4-.3-.5-.6-.3-1-.8h0c0-.1.2-.3.2-.3.5.2,1.4.4,1.9.2,0-.6,1.3-3.7.4-3.7-.4,0-.7.4-1,.7-.7.7-1.6,0-2.2,0-.3-.3-.3-.5-.2-.7.5-.2.9,0,1.4-.1l2.4-.9c-.2-.7,0-1.1-.2-1.8h-.3s-1.5.8-1.5.8l-.2-.2c.1-.4.5-.8.5-1.1-.5-.1-.9-.2-1.4-.5-.2-.4-.2-.5-.1-.8h0Z"/>
      </g>
    </g>
  </g>
</svg>