<svg width="128" height="128" fill="none" xmlns="http://www.w3.org/2000/svg"><g filter="url(#a)" fill="#6A005F"><path fill-rule="evenodd" clip-rule="evenodd" d="M46.646 60.874c-.004.327-.248.477-.265.71-.138.07-.312.12-.394.24-.04.054-.011.171-.054.263-.04.08-.11.083-.13.156-.073.223-.045.511-.078.79.355.412-.041.995.077 1.612.126.115.318.375.556.344.428-.062.18-1.033.368-1.346.1-.173.238-.3.29-.556.04-.2-.015-.473.052-.683.035-.11.13-.204.159-.317.096-.372.075-.783.185-1.133-.13-.232-.586-.334-.766-.08Zm3.167 6.277c.07-.057.114-.145.18-.21 0-.607-.022-1.4 0-1.926.01-.168-.025-.355-.023-.526.01-.56.146-1.119.13-1.665-.008-.36-.076-.708 0-1.054.075-.323.198-.588.186-.924-.007-.203-.085-.392-.077-.578.01-.467.178-.88.236-1.372.008-.068-.052-.122-.053-.186-.005-.375.157-.797.053-1.186-.036-.029-.24-.34-.37-.215-.333.324-.836.871-1.188 1.294-.18.22-.41.49-.472.765-.108.472.42.472.606.74.18.26.115.398.13.766-.168.057-.218.286-.37.448-.063.067-.171.108-.235.185-.265.312-.282.758-.476 1.16-.178.365-.525.765-.553 1.106-.04.443.357.73.368 1.164-.062.18-.285.316-.21.554.136.115.354.154.58.183.462.314 0 1.065.078 1.447.49.087 1.014.077 1.48.03Zm-1.77-17.54c.053.013.065-.049.027-.054.59.11.778.86 1.45.973.64.682-.215 1.508-.21 2.19.325.437.899-.02 1.212.054.115.04.216.114.29.21.355.556.039 1.4-.603 1.505-.133.112-.241.251-.451.292-.684.898-1.67 1.49-2.428 2.32-.293.541-.783.888-1.133 1.374-.518.207-.52 1.07-.606 1.686-.046.317-.2.574.079.685.494-.21.784-.624 1.08-1.026.432-.265.699-.694 1.083-1.005.317-.485.708-.893 1.03-1.372.452-.248.739-.668 1.053-1.055.437-.198.552-.718.95-.948.449.08.753-.243 1.135-.136.164.052.344.36.476.477.205.183.55.398.764.58.1.118.167.293.263.447.11.175.362.36.345.582-.016.154-.146.516-.215.685-.055.15-.074.503-.13.66-.065.191-.21.294-.263.584-.032.185-.023.383-.081.578-.1.348-.122.764-.155 1.293-.024.325-.09.603-.16.923-.084.382 0 .675-.025 1.108-.007.096-.066.106-.08.187-.02.107.043.258.027.365-.013.084-.068.156-.08.24-.054.374.034.884.025 1.292 0 .13-.013.326 0 .422.034.217.154.457.186.843.025.298.067.746.025.898-.044.166-.455.434-.606.608-.225.264-.38.49-.5.71-.618 0-.618.617-1.16.686-.303-.404-.395-1.152-1.057-1.108-.355-.32-.631-.722-1.185-.84-.422.47.026 1.24-.134 1.843-.157.59-.947.753-.895 1.422-.166.167-.374.294-.66.21-.026-.526-.554-.875-.578-1.395-.092-.174-.275-.258-.423-.368-.165.018-.337.173-.53.157-.228-.019-.58-.344-.58-.473 0-.31.93-.593 1.16-.976.29-.496.137-1.085-.184-1.427-.361-.172-.585.351-.95.157-.074-.372.378-.453.37-.788-.007-.322-.403-.56-.555-.847-.106-.057-.264.01-.344-.024-.26.285-.477.61-.737.897-.354.114-.73.004-1.002.262-.23.217-.4.626-.555 1.003-.114.28-.25.564-.236.848-.02.094-.107.12-.107.235.012.193.322.332.238.447.387.115.684.322.923.58-.037.25.177.47.237.686.159.558-.13 1.042-.316 1.423-.443.22-.831.15-1.294 0-.466-.444-1.06-1.095-1.37-1.739-.11-.227-.015-.57-.054-.894-.014-.135-.085-.235-.05-.37-.275-.67-.3-1.663-.16-2.455.028-.162.085-.36.237-.447.099.023.096.148.185.183-.03.184.092.336.158.5.01.254.107.507.265.687.69-.377.97-1.106 1.317-1.766.537-.36.727-1.034 1.24-1.428.137-.103.194-.132.344-.21a.59.59 0 0 0 .264-.236c.032-.385-.175-.552-.027-.898.32-.306.939-.172 1.133-.685-.121-.448.033-1.062-.448-1.16-.133-.029-.227.072-.34.078-.356.02-.54-.23-.794-.343-.373-.163-.716-.018-1.134-.052-.115-.148-.19-.338-.261-.529.11-.238.23-.466.446-.606.08-.013.105.038.16.053.23-.12.293-.406.606-.447.218-.397.608-.625.816-1.032.532-.302.96-.795 1.503-1.078.19-.1.426-.11.503-.344-.027-.254.054-.41.054-.66 0-.158.084-.29.104-.45.044-.36-.035-.827-.054-1.184-.03-.635.137-1.304.135-1.955.076-.07.11-.187.184-.263.055-.66.175-1.352.05-2.056-.057-.348-.26-.637-.184-.977.056-.242.24-.396.396-.583.672-.078 1.205.023 1.424.503-.138.358.02.823.133 1.057Zm58.485 5.194c-.336.276-.484.694-.712 1.08-.108.183-.289.43-.263.555.059.326.421.115.71.081.319-.04.555-.025.661-.238-.101-.477.172-.959-.08-1.398-.104-.028-.204-.062-.316-.08Zm-1.294 1.347c.201-.346.626-.583.556-1.107-.172-.17-.385-.137-.529-.32-.373-.055-.836-.09-.871.237-.005.065.195.568.238.636.053.072.167.116.212.184.085.133.041.308.158.37.11-.004.147.046.236 0Zm5.065-6.282c-.146.48.052 1.038-.29 1.32-.076.064-.164.062-.236.108-.136.087-.196.237-.343.316-.27.084-.551-.024-.766.052-.211.075-.277.338-.343.58-.349.404-.545.797-.684 1.4.318.44 1.132.594.974 1.344-.656.274-.906 1.01-.684 1.792.061.222.321.613.552.661.076.014.212-.033.319-.027.158.014.528.203.709.184.179-.017.273-.166.397-.26 0-.664.846-1.629-.29-1.61-.269-.219-.217-.81-.235-1.136-.127-.1-.128-.254-.213-.368-.154-.209-.434-.254-.661-.397.173-.61.84-.373 1.426-.446.379.328.442.902.449 1.422.027.07.123.072.155.133.544-.415.665-1.254.977-1.899.006-.376.201-.652.291-1.007.026-.103-.002-.214.026-.312.069-.237.245-.468.238-.688-.007-.225-.191-.404-.292-.607.103-.607.875-.547 1.243-.895.188.094.42.138.525.316-.011.122-.084.182-.105.29.05.388.502.432.476.791-.011.158-.231.265-.344.425-.239.333-.186.83-.5 1.026-.159.535-.576.984-.843 1.532-.067.133-.071.277-.134.423-.109.245-.37.397-.526.63-.365.547-.498 1.207-.793 1.795-.029.351-.213.6-.104.922.185.192.417-.06.685-.026.366-.304.407-1.046.975-1.133.082-.013.185.008.291 0 .12-.01.227-.083.29-.08.107.007.185.092.291.133.216.082.497.116.608.315.066.243-.136.323-.24.476-.078.11-.088.254-.156.37-.112.178-.296.33-.423.525-.27.407-.525.79-.739 1.24-.456.363-.787.987-1.45 1.056-.58.403-1.225.746-1.479 1.478.118.317.395.343.739.45.39.115.711.324.633.842.384.063.596-.08.951-.025.766.114.543 1.16.105 1.5-.041.034-.054.157-.08.188-.136.155-.34.314-.421.316-.093.002-.174-.113-.264-.134-.059-.012-.076.051-.158.053-.062.002-.147-.055-.186-.053-.406.02-.775.312-1.135.184-.158.22-.358.574-.396.873-.051.43.212.425.371.684.037.06.018.147.053.21.181.368.626.627.713.926v.265c.311.203.287.63.476 1.002.177.358.651.635.552 1.238-.103.617-.814.73-1.214 1.11-.3.017-.604.023-.844-.08-.22-.358-.562-.675-1.001-.686-.24-.005-.486.22-.793.185-.047-.006-.08-.077-.132-.084-.065 0-.133.061-.183.056-.513-.037-.924-.094-1.345-.368.026-.159-.062-.203-.081-.316.517-.418 1.424-.149 2.031-.237.329-.265.841-.21 1.212-.396.127-.523-.255-.764-.393-1.11.002-.114.035-.107 0-.18-.34-.848.393-1.948-.344-2.509-.716.49-1.422 1.215-1.792 2.138a5.637 5.637 0 0 0-1.691 1.558c-.121.168-.247.554-.422.707-.181.168-.676.383-.895.424-.214.04-.432-.097-.66.025a12.635 12.635 0 0 0-1.031-.21c-.347-.057-.851-.267-.816-.632.01-.113.273-.55.395-.633.248-.162.678-.136.977-.238.126-.04.192-.146.317-.13.404-.355.81-.703 1.266-1.002.061-.118.167-.188.21-.316.207-.198.476-.339.606-.61.199-.158.39-.29.608-.39.608-.295 1.102-.837 1.715-1.194.065.051.161-.033.238-.05.374-.35.666-.779.763-1.4.602-.39.036-.9-.314-1.212.137-.2.535-.292.765-.476.327-.26.551-.678.817-1.055.188-.268.843-1.16.713-1.635-.151-.538-1.109-.089-1.16.316-.555.193-.826.674-1.296.95-.684.6-1.314 1.253-2.056 1.795-.061.052-.075.153-.132.21-.46.302-1-.004-1.585.156-.19-.14-.444-.22-.525-.47.414-.338.773-.743 1.346-.793.245-.078.4-.31.606-.45.06-.038.158-.038.238-.08.118-.056.159-.097.314-.156.274-.106.465-.333.74-.5.3-.185.672-.294.952-.477.144-.1.279-.334.447-.447.144-.098.341-.11.526-.185.368-.15.912-.467.976-.74.113-.468-.32-.716-.58-.95-.316.02-.534.367-.842.37-.156 0-.184-.1-.318-.16-.156-.067-.383-.032-.447-.21-.129.1-.206-.002-.318-.052-.326.312-.333.791-.581 1.162-.289.153-.634.73-.949.315.315-.459.596-.955.898-1.424-.144-.339-.285-1.213-.74-.822.164.61-.145 1.048-.528 1.321-.116-.01-.193-.12-.316-.104-.439.058-.201.725-.238 1.03-.021.175-.401.844-.605.922-.096.04-.267-.002-.396.027-.181-.103-.411-.257-.66-.21-.128-.236-.292-.38-.239-.633.041-.17.274-.27.292-.422.012-.122-.078-.26-.186-.4-.187-.24-.28-.434-.42-.709.136-.26.437-.353.448-.74.629.02.95.668 1.423 1.002.234-.039.207-.316.263-.5.067-.208.196-.299.08-.555-.035-.08-.136-.13-.185-.212-.046-.076-.05-.197-.106-.289-.07-.125-.185-.153-.183-.34-.255-.096-.468-.54-.738-.636-.171-.054-.295.06-.476-.028.162-.266.326-.533.476-.816.479-.235.639.233.977.29.119-.13.085-.26.104-.503.085-.05.104-.17.185-.234.285-.235.683-.09 1.055-.16.506-.094.856-.33 1.239-.553.098-.15.143-.347.238-.5.028-.823.49-1.487.475-2.324-.007-.41-.237-.974 0-1.344.007-.09-.02-.215.026-.263.254-.258.473-.546.844-.688.243.19.562.302.739.555.121.03.163.137.319.133.058.152.332.351.552.34.089.188.254.293.368.448Zm-20.68 5.99c.187-.033.38.126.553.16.23.045.37.004.607.105.393.166.629.422.292.84-.148.187-.428.246-.555.4-.443.073-1.002.264-1.32.555-.673.226-1.303.594-1.898.815-.065-.016-.122-.038-.212-.025-.121.036-.173.145-.318.16-.37.52-.288 1.343-.526 1.952.05.16.04.45-.055.55-.092 1.653-.82 3.022-1.845 3.906-.03.024-.07.033-.13.027-.87.876-1.787 1.678-3.063 2.083-.052.02-.06.08-.105.105-.417.065-.838.385-1.237.396-.17.006-.367-.026-.558-.026-.164 0-.37.097-.473-.05-.005-.125.14-.114.21-.16.065-.044.12-.119.185-.16.432-.262.924-.462 1.345-.737.55-.36 1.02-.817 1.585-1.136 1.183-1.116 2.27-2.47 2.82-4.062.019-.462.382-1.256-.08-1.556-.507.132-.684.598-1.183.738-.058.146-.185.223-.237.37-.692.39-1.17.995-1.717 1.53-.337-.035-.454-.284-.632-.473-.642-.293-1.04-.826-1.505-1.293.106-.307.495-.335.66-.583.253.056.539.086.765 0 .124-.047.202-.174.317-.235.132-.072.302-.08.446-.133.1-.037.168-.12.264-.157.167-.06.377-.082.582-.16.37-.142.676-.398 1.057-.45.51-.065.813-.443 1.397-.474.51-.35.068-1.204.289-1.874-.103-1.61.337-3.043-.052-4.43-.137-.09-.184-.27-.237-.45.253-.49.58-.97 1.24-.974.378.285.859.683 1.37.924.108.332.538.493.342.922-.094.214-.37.352-.525.582-.258.378-.184.801-.318 1.264-.148.157-.095.483-.16.766-.011.065-.083.13-.103.213-.09.408-.067.996-.106 1.368-.023.214-.12.47-.078.636.093.372.606.267.923.106.208-.319.689-.55 1.185-.77.518-.218 1.24-.69.794-1.106v.001Zm-23.477-4.616c.266.082.65-.079.843-.238.085.05.176-.024.262.053.344-.155 1.105.063 1.454.293.108.07.295.292.314.367.048.173-.062.313-.051.422.026.285.174.46.078.74a.574.574 0 0 1-.29.287c-.494.16-1.057-.474-1.608-.13-.3-.059-.523-.316-.476-.632-.092-.328-.863-.363-.897-.687-.024-.23.235-.315.37-.475Zm-4.355 6.648c.074-.335.736-.664 1.136-.845.136-.052.277-.086.422-.102.113-.08.236-.142.367-.187.974-.843 2.146-1.493 3.405-1.953.108-.038.24-.102.342-.16.07-.036.092-.105.158-.156.27-.193.655-.274.948-.424.143-.072.284-.134.425-.21.116-.064.2-.188.314-.263.118-.078.267-.108.372-.184.21-.156.36-.41.579-.553.145-.1.34-.159.502-.239.14-.072.296-.122.422-.185.31.155.665.265.87.526.024.398-.337.66-.606.897-.1.092-.161.242-.264.32-.243.185-.554.29-.9.343-.283.045-.557.235-.92.155-.212.202-.513.216-.74.373-.16.108-.327.303-.474.444-.457.444-.987.84-1.452 1.293-.3.066-.504.398-.79.687-.32.327-.693.53-.872.978-.208.156-.292.158-.632.156-.663-.003-1.313.187-1.872-.183-.08-.052-.088-.153-.16-.212-.173-.146-.45-.107-.58-.316Zm9.579-.238c.006.627-.634.962-.978 1.4-.444.126-.713.43-.818.897.233.298.549-.197.818 0 .125.351.022.82-.16 1.028-.184-.02-.198.132-.287.211-.064.007-.103-.005-.134-.028-.223.324-.713.378-.95.686-.474.041-1.103.23-1.344-.157-.146-.849.477-1.06.685-1.635a.96.96 0 0 0 .503-.662c.132-.189.514-.455.499-.792-.01-.266-.263-.403-.554-.316-.216.07-.527.463-.71.66-.24.261-.448.52-.607.74-.118.068-.306.065-.344.211-.226-.065-.6.017-.792-.078-.264-.318.185-.51.447-.715.104-.077.193-.14.29-.208.237-.172.437-.357.714-.528.157-.1.332-.175.475-.267.144-.088.24-.22.342-.286.323-.215.778-.25.899-.635.358-.147.725-.31 1.055-.106.208.13.313.367.5.45.154.067.354-.002.45.13Zm-7.39 2.583c.26-.283.63-.64 1.215-.47.639.181 1.176 1.283 1.214 1.924.013.224-.072.64-.16.765-.065.092-.24.17-.37.262-.167.123-.284.303-.604.24-.252-.052-1.01-.717-1.083-1.005-.04-.148.038-.284.026-.422-.035-.445-.408-.81-.237-1.294Z"/><path fill-rule="evenodd" clip-rule="evenodd" d="M94.974 65.145c-.128.553-.815.488-1.265.741-.212.12-.423.355-.688.501-.345.183-.755.121-1.08.315-.578.068-.82-.143-1.214-.473-.448-.376-.721-.734-1.054-1.214-.242-.348-.531-.526-.607-.924-.647-.92-1.31-1.978-1.532-3.167-.214-.308-.155-.726-.319-1.08.6-.11.56.612.98.767.116.243.318.4.502.58v.103c.45.421.74 1 1.212 1.402-.022.072.037.064.026.128.567.5 1.25.88 1.848 1.346.452.004.645.32 1 .45.662-.123 1.096.203 1.741.236.124.124.321.176.45.29Zm4.722 2.058c-.004-.135.117-.147.158-.239.067-.342-.026-.758.263-.92.057-.428.417-.685.398-1.134-.022-.487-.311-.968-.369-1.426.207-.288.566-.652.975-.42.05.024.157.122.237.18.337.264.758.81 1.004 1.057.192.68.155 1.221.183 1.874-.209.795-.779 1.313-1.634 1.24-.443.315-.839-.09-1.215-.212Zm-30.126.37c-.11-.696-.062-1.46-.025-2.138.007-.166.022-.372.05-.526.025-.13.112-.21.108-.343-.018-.393-.363-.779-.056-1.158.023-.007.029-.03.056-.03.843.12 1.296.682 1.608 1.611.151.457.403.901.45 1.316.048.476-.219.816-.344 1.162-.215.095-.374.32-.554.448-.094.065-.263.172-.423.161-.325-.033-.52-.47-.87-.503Zm-3.428-2.188c-.097.028-.16.331-.239.472-.09.164-.217.264-.237.372-.102.5.409.487.686.66.111.068.173.214.264.233.147.034.217-.04.343-.076.366-.72.236-1.457-.028-2.19-.452-.08-.656.486-.789.53Zm-5.172 2.003a1.119 1.119 0 0 1 .95-.658c.243-.026.509.018.792-.133.194-.217.4-.204.659-.29.381-.123.625-.323.868-.529.075-.06.153-.03.24-.077.156-.082.278-.248.474-.265.06-.028.097-.08.106-.158.357-.077.794-.435 1.24-.422.043-.037.121-.036.156-.08.581.217.8-.685.555-1.16.041-.118.07-.253 0-.344.144-.31.275-.64.659-.71.068.047.119.112.213.134.614.664.486 1.737.475 2.847-.01.904.19 1.794.185 2.637-.298.228-.566 1.126-.977 1.162-.173.014-.237-.16-.37-.16-.188-.34-.325-.732-.475-1.106-.525-.467-.732-1.253-1.344-1.636-.271.276-.56.532-.66.974-.155.083-.227.252-.368.343-.311.763-1.01 1.28-1.373 1.9-.17.008-.342.213-.581.185-.117-.015-.144-.113-.237-.158-.207-.102-.477-.078-.633-.187-.19-.126-.236-.578-.262-.79-.063-.49-.03-.99-.292-1.319ZM14.008 49.956c1.183.69 2.74 1.175 4.604 1.192 1.911.022 3.532-.35 4.703-1.093 1.178.738 2.818 1.123 4.71 1.093 1.83-.024 3.442-.503 4.607-1.183.022 2.748-.043 5.368-.043 8.103 0 2.717.146 5.537-.549 7.613-.338 1.02-.848 1.874-1.423 2.674a9.688 9.688 0 0 1-2.022 2.062c-.784.597-1.69 1.02-2.61 1.485-.789.397-1.582.808-2.35 1.226-.108.06-.234.098-.311.201-.415-.279-.865-.503-1.313-.737-.45-.23-.905-.468-1.356-.7-.466-.238-.932-.44-1.374-.676a8.41 8.41 0 0 1-1.236-.81c-1.547-1.182-2.741-2.713-3.45-4.75-.361-1.053-.465-2.257-.528-3.56-.059-1.286-.027-2.654-.027-3.987 0-2.717-.039-5.387-.039-8.124-.002-.015-.002-.029.007-.029Zm8.839.976c-1.627.717-4.189.927-6.266.507-.65-.132-1.242-.307-1.756-.546-.068-.033-.144-.089-.23-.08-.023 2.527.042 5.15.042 7.584 0 1.267-.061 2.561-.011 3.767.055 1.2.19 2.34.519 3.32a9.494 9.494 0 0 0 1.296 2.54c.806 1.128 1.782 2.064 3.016 2.733.416.222.854.42 1.297.625.866.405 1.73.828 2.59 1.248.857-.427 1.728-.832 2.582-1.248.44-.213.882-.394 1.294-.618.82-.436 1.52-1.022 2.14-1.68a9.496 9.496 0 0 0 2.145-3.61c.643-1.988.51-4.505.51-7.05 0-2.562.007-5.086.025-7.612-.077 0-.153.048-.227.081-.534.235-1.11.43-1.752.557-1.51.293-3.362.25-4.784-.06a8.062 8.062 0 0 1-1.953-.698c-.119.094-.294.16-.477.24Z"/><path fill-rule="evenodd" clip-rule="evenodd" d="M23.525 51.73c.8.086 1.4.504 1.763 1.098.049.077.128.203.12.264-.01.065-.06.116-.12.113-.08-.004-.101-.113-.16-.211-.305-.535-.8-.902-1.505-1.027.033.163.107.32.17.489l.18.5c.027.03-.004.07 0 .11.127-.01.27-.004.249.139-.028.183-.575.044-.778.09-.022.14-.004.328-.01.485.112.066.64-.056.747.022.032.02.045.085.04.118-.03.2-.565.037-.777.089-.031.166.046.4-.12.41-.16.01-.115-.21-.118-.4-.2-.073-.747.105-.788-.088-.055-.273.586-.076.776-.151.02-.135.02-.34 0-.477-.177-.067-.74.092-.776-.09-.03-.14.11-.162.24-.147.028-.026-.014-.06 0-.1.13-.322.235-.668.37-.987-.854.116-1.393.634-1.663 1.362.092-.003.233-.057.417-.088.196-.034.594-.124.477.15-.16.051-.343.046-.51.08-.163.032-.31.09-.447.14a.556.556 0 0 0-.041.19c.144-.022.296-.085.488-.12.138-.024.55-.124.51.1-.018.098-.137.085-.23.09-.265.017-.6.104-.768.198a.484.484 0 0 0 .01.16c.164-.044.282-.079.49-.112.128-.017.439-.103.469.04.042.208-.322.149-.497.18-.191.036-.306.089-.42.128.042.098.044.224-.052.24-.2.044-.222-.425-.23-.615a2.437 2.437 0 0 1 .093-.75c.263-.902.965-1.479 1.993-1.632.074-.11.074-.328.218-.313.127.013.114.227.19.323Zm-.068.467c-.034-.085-.067-.274-.163-.257-.168.348-.28.75-.43 1.126.086.004.247-.004.33 0-.063-.335.318-.355.24 0h.34a56.095 56.095 0 0 1-.317-.869Zm-4.834.397c.05.04-.016.1.01.139.144-.028.323.083.338.161.02.1-.09.207-.061.338.244.156.303.496.58.621.12.228.2.572.148.886-.04.239-.277.265-.23.578.023.134.104.406.2.449.063.028.149-.006.21.039.05.06.027.194-.01.251-.192.035-.262.239-.5.159-.088-.033-.243-.135-.287-.21-.03-.049-.026-.117-.05-.169-.05-.113-.14-.181-.19-.26-.145.044-.588-.032-.518.2.033.104.384.052.27.319-.04.092-.344.222-.46.248a.67.67 0 0 1-.14.009c-.036-.004-.07-.039-.117-.05-.097-.019-.226.024-.33 0-.062-.011-.236-.135-.3-.189a.712.712 0 0 1-.136-.18c-.046-.108-.016-.199-.133-.249-.051-.022-.118-.013-.177-.03-.107-.025-.222-.112-.308-.047-.11.12.062.172.118.277.053.1.02.174.03.318-.034.048-.11.135-.2.15-.12.022-.281-.069-.45-.11-.11-.027-.273-.027-.295-.138-.015-.07.055-.111.068-.17.02-.08-.024-.142.03-.207-.076-.117-.043-.298-.05-.509-.007-.229-.004-.384.05-.549.02-.06.024-.128.042-.16.03-.071.235-.236.318-.278.189-.106.503-.189.836-.14.07.007.133.066.2.079.125.022.295-.013.428 0a.289.289 0 0 0 .1-.089c.01-.216-.111-.301-.17-.45.028-.218-.037-.465.04-.674.044-.101.101-.196.17-.283a.517.517 0 0 1 .219-.15c.114-.02.306.044.418.081.062-.044.203-.044.29-.01l-.001-.001Zm-.59.452c.1.024.138-.097.182-.161-.026-.048-.011-.139-.082-.14.01.142-.058.206-.1.3v.001Zm-.365-.043c.01.015.04.013.07.013.026-.06.035-.138.067-.188-.087-.028-.145.105-.137.175Zm.626.033c-.09.07-.264.14-.21.289.009.002.02 0 .02.007.114-.033.146-.155.23-.227.07-.06.199-.098.188-.233-.115-.043-.155.103-.228.164Zm0 .466c.002.004.02.02.02.026.038.024.064-.022.108-.026.08-.007.14.04.19.04.048-.047.006-.132-.05-.14-.066.108-.3-.087-.268.1Zm.636-.1c-.051-.005-.072.052-.068.09.007.068.13.144.2.14-.023-.043-.082-.222-.132-.23Zm-.866.15c-.082.032-.128.106-.148.196.066.028.079-.066.136-.075.069.036.067.142.14.168.02.03.108-.011.112.03 0 .053-.085.053-.14.08-.06.03-.17.117-.26.173-.158.09-.366.209-.13.314.027-.02-.001-.07.012-.094.019-.048.214-.187.237-.19.04-.008.086.021.122.016.103-.013.127-.113.218-.152a.731.731 0 0 0 .192.023c.09.03.043.203.148.221.048-.066.01-.159.07-.221-.01-.065-.068-.082-.061-.158.017-.039.06-.048.1-.063.094.069.076.25.168.318.08-.05.102-.23.052-.318-.045-.072-.181-.1-.211-.155-.233.002-.41.06-.588.115-.07-.06-.1-.163-.17-.228Zm1.145.64c.074-.042.034-.198-.047-.201-.036.057-.036.2.047.201Zm-.937.087c.022.054.106.042.12.1-.03.11.063.166.082.26-.06.086-.152.008-.18-.05-.044.008-.072.03-.072.08.23.015.104.281-.038.328-.043.018-.102 0-.15.01-.055.016-.108.078-.168.1-.095.034-.182.006-.24.052-.03.117-.014.261.07.26.086-.005.083-.173.17-.2.123.02.11-.078.179-.1.037-.015.08.01.128 0 .138-.04.175-.218.26-.322.225.028.28-.168.288-.328-.125.025-.277.041-.3-.068-.01-.08.062-.114.082-.19-.06-.102-.216-.023-.23.068h-.001Zm-1.85.031c-.044 0-.035-.053-.088-.04.007.075-.063.075-.082.118.01.054.082.054.1.102.157-.004.2-.119.336-.14-.026-.186-.166-.1-.266-.04Zm.488-.07c-.037.057.004.154.06.18.092-.041.062-.197-.06-.18Zm.518.407c.042-.05.022-.178-.052-.178-.03.041-.044.2.052.178Zm-1.605.104c.063.035.21.046.26-.012a.318.318 0 0 1-.03-.188c-.1.039-.197.09-.23.2Zm1.653.046c.08.015.243.035.262-.046-.04-.104-.277-.098-.262.046Zm-1.124.19c-.044.004-.026-.053-.07-.05-.06.002-.06.063-.111.07-.02-.007-.034-.021-.07-.02-.023.02-.056.032-.05.078.053-.022.068-.013.11.011.017-.019.01-.057.05-.057-.007.148-.098.301-.268.316-.016.08-.068.118-.12.16-.04.184.01.352.19.352.012-.033.008-.085.01-.133-.052-.048-.1-.098-.08-.218a.16.16 0 0 1 .119-.04.832.832 0 0 0 .19-.26c-.033-.111.082-.188.13-.098 0 .03-.032.082.018.08.04-.011 0-.04 0-.07.05-.065.159-.069.19-.15-.075-.119-.157-.005-.238.029Zm-.48.183c.055-.046.073-.155.04-.233-.1 0-.118.193-.04.233Zm1.277.026c.007.037.083.019.109.011 0-.013.003-.022.01-.03-.014-.023-.044-.038-.071-.05.01.05-.052.026-.048.069Zm.846.12c-.04.019-.08.032-.098.07-.015.067.026.188-.031.21-.096-.069-.168-.017-.231.052-.05-.01-.063-.056-.137-.041-.008.033-.037.155.018.159.056-.011-.03-.104.04-.104.02.048.053.078.079.115-.004.074-.03.224.01.28.12-.036.006-.302.152-.313.048.028.035.118.04.19.042.019.093.083.168.09.08.01.227-.018.258-.079-.052-.04-.137-.042-.177-.09-.017-.011-.011-.052-.011-.078-.098-.067-.145-.233-.1-.381.015-.048.114-.117.03-.17-.015.017-.008.059-.01.09Zm-1.854.579v.028c.089-.01.11.098.182.072a.16.16 0 0 0-.182-.1Zm14.259-.288c-.097-.063-.223.026-.323.048-.12.03-.227.027-.277.131-.022.048-.011.102-.03.148-.08.194-.27.244-.417.368-.1.019-.218-.02-.338 0-.082.015-.12.067-.25.04-.185-.033-.438-.155-.48-.258-.08-.2.14-.233.27-.289.036-.2-.11-.168-.28-.188-.081-.011-.175-.043-.22-.032-.044.013-.166.167-.207.261-.022.048-.018.114-.04.16-.06.117-.29.245-.418.236-.165-.006-.192-.152-.38-.176-.042-.083-.056-.201 0-.251.047-.04.173-.019.23-.061.069-.048.224-.446.17-.636-.035-.122-.194-.23-.22-.328a1.206 1.206 0 0 1-.01-.172c0-.24.006-.567.15-.745.06-.076.167-.114.24-.19.134-.145.152-.378.349-.428-.006-.138-.045-.236-.07-.351.073-.09.15-.181.337-.161.032-.044-.038-.096.01-.139.08-.029.225-.037.277.012.105-.045.225-.064.342-.082.205-.031.32.176.397.313.056.096.104.153.12.307.008.07.002.16 0 .251 0 .08.01.174 0 .227-.035.198-.32.419-.068.548.13-.017.285.026.425 0 .074-.013.144-.072.19-.08.15-.02.3-.02.45 0 .292.04.52.23.706.4.003.116.09.216.11.346.03.207.023.534-.01.74-.015.103-.052.2-.02.347.016.066.075.105.07.16-.01.132-.176.132-.317.171-.251.069-.517.192-.628-.06.005-.147-.017-.221.04-.32.052-.097.204-.13.12-.267Zm-1.605-2.561c.003-.065-.07-.078-.09-.141-.018-.053.025-.126-.032-.172-.122.096-.017.337.122.313Zm.288-.03c.037.004.063-.005.078-.022-.013-.087-.05-.155-.128-.178-.017.056.046.126.05.2Zm-.787-.144c.007.168.15.177.24.272.07.075.089.175.177.188.102-.122-.092-.262-.198-.307-.046-.068-.1-.185-.22-.153Zm-.33.6c0-.023-.037-.075-.077-.07-.044.008-.122.206-.122.23.074.005.202-.094.199-.16Zm.418-.029c-.046.006-.1-.048-.137-.04-.044.01-.096.124-.022.138.045-.027.207-.064.27 0 .06-.039.032-.107-.022-.138-.044-.002-.04.033-.09.04Zm.392.11c-.1.044-.103.18-.2.227a1.584 1.584 0 0 0-.58-.115c-.03.066-.192.096-.218.189-.03.094 0 .221.048.284.119-.051.13-.47.292-.238-.015.059-.06.09-.072.151.067.045.03.141.06.211.123 0 .069-.172.15-.21.065-.015.147-.015.209-.034.096.069.17.196.337.135.089.091.255.126.242.285.076 0 .124-.081.116-.128-.007-.094-.208-.172-.307-.229-.057-.035-.103-.083-.158-.11-.067-.032-.16-.028-.17-.1.007-.034.066-.016.1-.017.073-.035.073-.148.15-.181.053.009.077.097.129.075.002-.068-.061-.159-.128-.196v.001Zm-1.205.585c.07.124.148-.055.098-.147-.08.004-.087.08-.098.147Zm.747.073c.027.068.08.11.087.197-.043.111-.206.065-.31.069.025.14.053.357.289.312.078.12.137.254.263.33.173-.067.159.107.307.1.088.025.084.194.168.2.098.007.103-.173.072-.27-.085-.036-.161-.006-.252-.041-.042-.017-.073-.075-.118-.09-.067-.022-.138.004-.2-.022-.084-.033-.151-.162-.151-.268.02-.048.11-.022.122-.08-.004-.038-.03-.05-.06-.058-.036.057-.134.138-.19.038.04-.083.106-.133.09-.271.027-.035.1-.024.11-.078-.005-.1-.172-.163-.227-.068Zm1.81.133c.13.027.186.138.34.146.016-.052.097-.047.108-.102-.03-.039-.094-.043-.088-.118-.06-.013-.045.048-.1.04-.096-.074-.218-.129-.26.034Zm-.27.076c.045-.034.09-.106.06-.18-.127-.019-.166.148-.06.18Zm-.435.05c-.044.026-.076.13-.03.177.099.024.108-.164.03-.177Zm1.312.28c.065.043.182.026.26.01-.025-.12-.127-.168-.23-.21a.363.363 0 0 1-.03.2Zm-1.641.017c.033.054.178.048.248.03.026-.15-.24-.156-.248-.03Zm1.135.2c.048.06.138.083.189.14-.004.023-.02.052 0 .07.062-.005.025-.047.02-.09.15-.109.13.152.198.248.044.065.1.072.122.12.036.008.077.011.11.02.086.152-.14.22-.051.372.222.03.255-.368.092-.429 0-.033-.015-.048-.022-.07-.166-.023-.285-.194-.27-.33.037.075.094.017.159.047-.004-.043-.033-.061-.068-.078-.028.002-.043.02-.072.02-.026-.021-.045-.057-.09-.07-.043 0-.032.06-.086.05-.065-.054-.172-.14-.231-.02Zm.736.192c.057-.055.036-.218-.048-.222-.045.067-.031.2.048.222Zm-1.404.037c.025.023.065.023.11.023 0-.017.003-.023.01-.034-.036-.024-.118-.087-.12.011Zm-.707.211c-.02.098 0 .174-.011.278-.052.048-.108.084-.096.17-.052.05-.16.042-.19.11.127.07.345.076.428-.031.013-.068-.016-.181.06-.19.125.025.016.282.14.312.035-.061.024-.22 0-.28.046-.029.046-.099.109-.114.007.034-.022.104.018.104.04-.024.035-.126.01-.16-.082-.018-.082.041-.15.041-.035-.098-.14-.103-.23-.051-.033-.061-.01-.124-.018-.217-.074-.027-.096-.102-.122-.153-.037.083.026.137.052.181Zm1.652.597a.474.474 0 0 0 .172-.1c-.057-.038-.172.017-.172.1Z"/><path fill-rule="evenodd" clip-rule="evenodd" d="M25.277 53.364c.061-.01.08-.08.161-.069.126.01.155.35.17.518.023.296-.003 1.091-.3.827a.306.306 0 0 1 .02-.15c-.141-.083-.422-.146-.668-.17-.124-.01-.298.007-.25-.16.04-.132.352-.047.479-.03.198.033.313.066.468.11.033-.026.015-.102.031-.15-.116-.086-.51-.19-.767-.207-.126-.009-.251.006-.251-.12 0-.057.044-.074.081-.11.358.005.649.075.917.168.074-.252-.255-.283-.44-.33-.185-.042-.373-.05-.518-.068-.08-.04-.073-.205.05-.209.23-.006.667.081.817.15Zm-1.513 2.831c-.222-.289.488-.26.576-.409a1.176 1.176 0 0 0-.368-.09 3.03 3.03 0 0 0-.399-.034c.01.2.098.54-.116.601-.152.04-.617-.003-.64-.11-.046-.247.355-.086.536-.11.048-.107.006-.286-.03-.38-.356-.03-.698.038-.994.103.089.14.348.104.368.24.05.296-.464-.005-.538-.053a2.148 2.148 0 0 1-.688-.618c-.079-.105-.24-.309-.229-.416.012-.107.246-.168.4-.21.896-.24 1.93-.334 2.928-.13.134.027.29.08.447.13.131.042.375.095.392.19.02.123-.21.416-.26.488-.207.29-.49.516-.816.656-.166.074-.354.157-.569.152Zm-2.244-1.208c.135.257.325.453.54.63.152-.056.31-.096.469-.12-.067-.064-.15-.1-.24-.17-.067-.05-.196-.125-.19-.229.008-.109.242-.164.399-.2a3.997 3.997 0 0 1 1.635.008c.156.037.418.078.418.202 0 .07-.118.172-.18.218-.086.07-.182.077-.238.17.185.013.326.072.477.12.226-.157.396-.37.518-.629-.95-.397-2.645-.37-3.608 0Zm.939.172c.388.34 1.334.34 1.722 0-.462-.15-1.262-.15-1.722 0Z"/><path d="M16.7 62.051c0-.022-.01-.05-.02-.092a.225.225 0 0 0-.03-.08c-.017-.026-.05-.044-.098-.05-.06-.01-.12-.015-.181-.015h-1.06v-.09l1.18-.873h-.743a.841.841 0 0 0-.19.015c-.047.01-.078.024-.097.05a.218.218 0 0 0-.04.096.426.426 0 0 0-.023.094h-.07v-.59h.07c.004.02.008.05.022.09a.297.297 0 0 0 .03.082.13.13 0 0 0 .085.048.916.916 0 0 0 .203.017h.71a.282.282 0 0 0 .093-.019.176.176 0 0 0 .073-.042.423.423 0 0 0 .085-.203h.07v.414l-1.101.81h.688c.083 0 .15-.002.194-.015.046-.008.076-.026.09-.048a.272.272 0 0 0 .037-.09l.023-.099h.07v.59h-.07ZM15.446 63.7l-.063-.596.072-.007c.01.052.02.097.036.13.01.033.025.047.044.047a.049.049 0 0 0 .018-.005c.008-.002.017-.004.023-.01l.31-.149-.05-.505c-.05-.015-.092-.028-.127-.033-.037-.01-.07-.019-.1-.022-.033-.008-.056-.008-.074-.01h-.044c-.028.003-.045.023-.058.07a.594.594 0 0 0-.01.143l-.073.008-.055-.544.072-.004.018.067c.01.024.02.044.035.06.019.027.04.043.06.06.02.011.05.022.088.033.189.054.4.11.632.178.233.063.44.12.625.172l.008.08-1.193.606a.184.184 0 0 0-.101.1.186.186 0 0 0-.017.061c-.006.026-.006.046-.006.065l-.07.005Zm.525-.636.538-.274-.578-.159.04.433Zm1.19 2.147a.424.424 0 0 0-.083-.157c-.02-.019-.057-.028-.107-.028a1.017 1.017 0 0 0-.181.028l-1.033.227-.02-.085.968-1.11-.728.16a.772.772 0 0 0-.183.056.214.214 0 0 0-.085.07.212.212 0 0 0-.02.1.4.4 0 0 0 0 .1l-.07.017-.13-.579.07-.016.044.087c.02.04.036.062.048.072.024.022.054.03.095.03.04 0 .107-.008.2-.03l.692-.154a.344.344 0 0 0 .09-.035.22.22 0 0 0 .06-.059.303.303 0 0 0 .037-.11.51.51 0 0 0 .002-.104l.07-.015.09.401-.901 1.034.669-.152a.819.819 0 0 0 .188-.058c.043-.018.067-.038.078-.064a.5.5 0 0 0 .015-.196l.07-.019.127.576-.072.013Zm.452.848a.825.825 0 0 0-.093-.109c-.02-.016-.04-.025-.06-.02a.129.129 0 0 0-.06.02l-.741.426a.374.374 0 0 1-.137.046.432.432 0 0 1-.322-.07.514.514 0 0 1-.127-.148.383.383 0 0 1-.054-.28.32.32 0 0 1 .168-.213.243.243 0 0 1 .124-.033.128.128 0 0 1 .1.067c.017.037.024.066.015.1-.004.033-.026.06-.057.08a.214.214 0 0 1-.065.022c-.022.003-.043.003-.063.003-.02-.002-.04-.002-.067-.002a.35.35 0 0 0-.063.002.202.202 0 0 0-.018.09.25.25 0 0 0 .037.115c.026.045.06.073.093.088a.21.21 0 0 0 .114.016.47.47 0 0 0 .13-.037c.048-.022.1-.044.153-.076l.663-.383a.254.254 0 0 0 .045-.037c.01-.016.015-.036.015-.064a.454.454 0 0 0-.02-.083c-.01-.03-.021-.052-.03-.073l.065-.035.316.551-.061.037Zm-.51 1.654-.393-.516.056-.045a.788.788 0 0 0 .107.113c.022.011.04.015.06.015a.154.154 0 0 0 .058-.026l.832-.636a.133.133 0 0 0 .043-.044c.007-.015.007-.037 0-.067a.725.725 0 0 0-.065-.142l.057-.045.394.516-.06.044c-.01-.016-.03-.033-.05-.053a.292.292 0 0 0-.089-.067.075.075 0 0 0-.032-.002.143.143 0 0 0-.057.026l-.83.636a.12.12 0 0 0-.04.047.116.116 0 0 0-.003.066l.03.063c.01.025.024.05.04.072l-.057.045Zm2.484.512a.615.615 0 0 0-.075-.05.322.322 0 0 0-.084-.033c-.03-.004-.064.007-.104.035-.048.039-.092.08-.133.126l-.732.765-.063-.06.18-1.46-.513.538a.92.92 0 0 0-.122.152.192.192 0 0 0-.03.101c0 .025.015.056.042.1.025.041.044.07.055.08l-.048.052-.43-.41.05-.05c.025.02.052.035.08.047.04.023.067.035.08.035.036.002.071-.01.098-.033a.97.97 0 0 0 .144-.133l.496-.516c.018-.024.036-.046.05-.078a.175.175 0 0 0 .018-.08.29.29 0 0 0-.032-.112.406.406 0 0 0-.055-.092l.048-.052.3.287-.17 1.357.473-.496c.057-.063.1-.114.122-.152a.212.212 0 0 0 .03-.1.791.791 0 0 0-.1-.174l.047-.05.425.404-.047.052Zm.817 1.486c-.015-.007-.038-.016-.06-.029a.32.32 0 0 0-.064-.022.122.122 0 0 0-.063.013.173.173 0 0 0-.046.048l-.063.092c-.045.07-.078.113-.09.137a.41.41 0 0 0-.036.06 1.368 1.368 0 0 1-.514-.19.763.763 0 0 1-.19-.195.642.642 0 0 1-.104-.246.687.687 0 0 1 .006-.283.726.726 0 0 1 .126-.288.78.78 0 0 1 .48-.34.68.68 0 0 1 .28-.003c.096.02.186.058.267.113.11.073.198.174.255.293l.07-.036.069.048-.276.424-.066-.048c.019-.056.033-.106.044-.165.015-.057.019-.11.015-.168a.36.36 0 0 0-.162-.28.453.453 0 0 0-.187-.072.516.516 0 0 0-.394.15c-.14.119-.245.272-.305.445a.698.698 0 0 0-.04.23c.002.072.02.143.053.207.036.065.087.12.148.163.052.033.1.06.152.067a.29.29 0 0 0 .118.01.556.556 0 0 0 .068-.082l.052-.074.043-.067a.159.159 0 0 0 .033-.069.072.072 0 0 0-.011-.068c-.015-.02-.033-.046-.061-.07-.032-.026-.054-.046-.072-.056l.04-.066.527.357-.042.06Zm3.622.236a.353.353 0 0 0-.081.012.278.278 0 0 0-.09.032c-.025.017-.04.05-.047.098a.972.972 0 0 0-.015.177v.63a.42.42 0 0 1-.181.354.492.492 0 0 1-.17.078.694.694 0 0 1-.401-.009.528.528 0 0 1-.172-.093.347.347 0 0 1-.1-.133.332.332 0 0 1-.037-.156v-.85a.147.147 0 0 0-.01-.063.098.098 0 0 0-.05-.042.163.163 0 0 0-.064-.026.395.395 0 0 0-.064-.01v-.073h.598v.074a.337.337 0 0 0-.07.007c-.03.005-.05.013-.063.016a.06.06 0 0 0-.046.04.17.17 0 0 0-.013.066v.795c0 .037.004.08.013.12.01.043.026.082.05.12.028.039.066.07.11.09.058.028.122.04.186.038a.444.444 0 0 0 .188-.039.293.293 0 0 0 .118-.09.433.433 0 0 0 .06-.117c.011-.04.017-.08.018-.12v-.59a.985.985 0 0 0-.017-.187c-.012-.046-.027-.08-.046-.094a.358.358 0 0 0-.098-.04c-.043-.008-.073-.015-.096-.015v-.074h.59v.074Zm1.677-.733c-.017.011-.043.026-.072.052a.353.353 0 0 0-.067.065c-.015.024-.017.06-.004.105.01.05.03.107.06.174l.422.97-.083.038-1.271-.735.297.683c.022.06.053.117.09.168.029.04.056.061.082.07.035.008.071.008.106 0a.479.479 0 0 0 .097-.02l.03.067-.545.238-.03-.068c.019-.008.043-.028.08-.058a.313.313 0 0 0 .06-.059c.016-.026.018-.06.01-.1a1.18 1.18 0 0 0-.067-.19l-.284-.65c-.015-.029-.03-.058-.052-.08a.187.187 0 0 0-.07-.048.328.328 0 0 0-.111-.014.323.323 0 0 0-.105.02l-.028-.067.377-.165 1.183.684-.274-.63a.984.984 0 0 0-.092-.172c-.028-.04-.054-.06-.08-.063a.222.222 0 0 0-.1 0 .677.677 0 0 0-.097.024l-.028-.069.538-.23.028.06Zm1.445.836-.584.285-.032-.065c.017-.007.04-.024.07-.039a.346.346 0 0 0 .06-.044.12.12 0 0 0 .027-.058.108.108 0 0 0-.012-.06l-.463-.94a.116.116 0 0 0-.033-.052.114.114 0 0 0-.066-.01c-.022.001-.048.006-.078.01a.666.666 0 0 0-.074.024l-.033-.064.586-.285.03.065-.064.04a.244.244 0 0 0-.06.05.087.087 0 0 0-.03.06c.002.02.007.039.015.057l.458.94a.09.09 0 0 0 .04.045c.015.013.038.017.064.015a.738.738 0 0 0 .147-.039l.032.065Zm.708-2.269c-.013.015-.03.032-.045.052a.226.226 0 0 0-.03.06.145.145 0 0 0-.008.077c.004.029.01.058.016.086.033.115.085.29.155.522.074.235.148.48.226.734l-.065.052a47.559 47.559 0 0 1-.693-.416l-.455-.27a.288.288 0 0 0-.06-.024.454.454 0 0 0-.07 0 .26.26 0 0 0-.064.018l-.055.028-.047-.055.466-.372.048.055a.888.888 0 0 0-.092.093c-.022.027-.026.048-.015.063.004.008.01.014.018.018l.023.017c.059.037.159.092.297.175.14.087.335.202.59.352l-.14-.459a14.5 14.5 0 0 0-.115-.358.638.638 0 0 0-.048-.123l-.032-.052c-.01-.012-.024-.018-.042-.016a.146.146 0 0 0-.06.013.562.562 0 0 0-.121.068l-.048-.057.42-.335.046.054Zm1.613-.47.309.292-.77.921-.054-.044c.013-.017.027-.04.048-.068.016-.03.027-.048.03-.063a.084.084 0 0 0 0-.056.127.127 0 0 0-.041-.05l-.797-.667a.115.115 0 0 0-.054-.028.085.085 0 0 0-.062.008c-.02.007-.038.023-.063.04-.026.02-.045.037-.06.05l-.053-.042.715-.862.266.224-.048.06a.412.412 0 0 0-.18-.038c-.077-.002-.128.01-.158.037-.017.014-.032.033-.053.052-.02.02-.041.048-.067.075l-.14.176.436.366.107-.124a.404.404 0 0 0 .063-.096.147.147 0 0 0 0-.08.215.215 0 0 0-.037-.083.817.817 0 0 0-.056-.076l.048-.057.433.363-.047.055c-.027-.015-.06-.033-.094-.046a.276.276 0 0 0-.085-.024.138.138 0 0 0-.085.024.248.248 0 0 0-.078.076l-.107.122.337.277a.374.374 0 0 0 .083.06c.021.01.045.014.068.01a.208.208 0 0 0 .067-.04l.086-.1c.012-.017.032-.035.054-.067a.315.315 0 0 0 .057-.072c.017-.02.028-.048.04-.074a.085.085 0 0 0 .014-.059.469.469 0 0 0-.05-.174 1.413 1.413 0 0 0-.068-.142l.046-.056Zm1.198-1.346-.185.337c-.16.014-.301.027-.42.044-.118.011-.243.03-.373.052l-.072.13.4.218c.02.01.04.017.06.02a.09.09 0 0 0 .06-.022c.012-.01.025-.028.044-.052a.313.313 0 0 0 .042-.067l.065.035-.292.54-.063-.036c.008-.015.015-.037.028-.067a.19.19 0 0 0 .018-.06.086.086 0 0 0-.013-.057.181.181 0 0 0-.048-.044l-.92-.5a.348.348 0 0 0-.06-.018c-.02-.004-.04.004-.06.02a.684.684 0 0 0-.045.052.233.233 0 0 0-.042.056l-.065-.032.32-.59a.575.575 0 0 1 .096-.138.5.5 0 0 1 .124-.104.303.303 0 0 1 .297.006.41.41 0 0 1 .118.094c.03.033.05.072.063.118a.473.473 0 0 1 .015.133c-.004.05-.012.1-.022.148l.296-.04c.078-.01.174-.026.288-.04a.64.64 0 0 0 .117-.027.43.43 0 0 0 .076-.042c.018-.013.033-.03.05-.05.018-.02.029-.04.038-.052l.065.035Zm-1.201-.044a.28.28 0 0 0-.22-.034.289.289 0 0 0-.167.152l-.085.154.547.292.063-.117a.327.327 0 0 0 .033-.248.335.335 0 0 0-.171-.199Zm.83-1.19a.308.308 0 0 1 .123-.036c.045-.004.09 0 .142.015.126.03.215.102.27.214a.52.52 0 0 1 .032.372.644.644 0 0 1-.191.322l.062.06-.02.082-.481-.113.022-.08a.853.853 0 0 0 .173-.018.53.53 0 0 0 .156-.048.5.5 0 0 0 .123-.096.366.366 0 0 0 .076-.152.37.37 0 0 0 .013-.122.183.183 0 0 0-.03-.094.249.249 0 0 0-.06-.07.492.492 0 0 0-.1-.043.328.328 0 0 0-.168.007.31.31 0 0 0-.146.115c-.03.04-.061.081-.097.133-.031.044-.063.088-.096.13a.475.475 0 0 1-.186.144.396.396 0 0 1-.383-.065.385.385 0 0 1-.096-.124.408.408 0 0 1-.046-.153.511.511 0 0 1 .087-.337.549.549 0 0 1 .107-.118l-.06-.06.02-.082.467.114-.02.082c-.056 0-.111.001-.165.007a.578.578 0 0 0-.15.035.348.348 0 0 0-.118.081.34.34 0 0 0-.074.14.254.254 0 0 0 .019.175c.03.053.073.088.129.105.06.017.114.013.163-.004a.315.315 0 0 0 .13-.096c.034-.042.066-.085.095-.127.03-.043.06-.082.089-.12a.88.88 0 0 1 .087-.099.448.448 0 0 1 .102-.076Zm.857-.957-.09.644-.071-.01.006-.08a.245.245 0 0 0-.002-.077.117.117 0 0 0-.03-.052c-.013-.013-.035-.02-.06-.024l-1.038-.139h-.058a.095.095 0 0 0-.05.05c-.01.02-.021.041-.03.072-.011.028-.022.054-.026.075l-.07-.01.089-.643.07.01c-.002.017-.002.043-.002.073 0 .031.002.055.006.08a.094.094 0 0 0 .033.055c.016.01.037.018.059.018l1.035.145c.022.003.04 0 .059-.006a.086.086 0 0 0 .048-.048.271.271 0 0 0 .028-.063.352.352 0 0 0 .022-.08l.072.01Zm-.917-1.713-.003.07a1.06 1.06 0 0 0-.185.08c-.03.02-.06.04-.082.065-.025.022-.04.044-.044.068l-.01.078c0 .031-.005.063-.005.09l-.003.06 1.155.04a.134.134 0 0 0 .06-.01c.023-.008.034-.027.045-.049a.316.316 0 0 0 .026-.076c.007-.038.013-.066.015-.088l.072.002-.028.682-.07-.004c0-.017-.004-.05-.006-.087a.232.232 0 0 0-.013-.08.1.1 0 0 0-.035-.053.132.132 0 0 0-.066-.018l-1.163-.045-.003.061v.078c0 .03 0 .06.003.087a.137.137 0 0 0 .037.074.69.69 0 0 0 .174.128.438.438 0 0 0 .085.032l-.004.073-.391-.015.047-1.26.392.017Zm-.3-1.577c.003.01.008.03.012.056.01.024.018.044.026.053.015.028.027.044.035.056.094.075.192.144.294.207.076.044.173.1.288.17a.393.393 0 0 0 .22.068l.275.004a.131.131 0 0 0 .067-.015.13.13 0 0 0 .04-.046.418.418 0 0 0 .023-.078c.007-.037.013-.063.015-.086h.074l-.015.676-.07-.004c0-.018-.004-.044-.008-.083a.309.309 0 0 0-.013-.08.104.104 0 0 0-.04-.05.123.123 0 0 0-.065-.016l-.351-.003c-.011-.004-.03.003-.06.016-.03.013-.062.026-.096.044l-.258.132c-.093.048-.172.09-.24.128a.284.284 0 0 0-.088.06c-.02.013-.035.032-.053.054a.178.178 0 0 0-.022.06.29.29 0 0 0-.013.06h-.07l.009-.619h.074c0 .07.003.12.01.151.008.027.02.041.034.043a.047.047 0 0 0 .018-.006l.04-.016.062-.03a.539.539 0 0 0 .067-.037c.06-.03.123-.06.183-.094.059-.03.138-.074.236-.126-.17-.107-.301-.192-.4-.25a.582.582 0 0 0-.167-.084c-.017 0-.03.003-.04.016-.01.008-.014.024-.021.043a.233.233 0 0 0-.013.064c-.002.023-.002.047-.006.065h-.074l.01-.503h.072Zm-7.165 5.967a.181.181 0 0 0-.138.067.234.234 0 0 0-.06.17.21.21 0 0 0 .056.152.186.186 0 0 0 .14.057c.056 0 .1-.018.137-.057.037-.039.054-.094.054-.163 0-.068-.017-.122-.058-.163a.165.165 0 0 0-.131-.063Zm.91 0a.153.153 0 0 0-.13.072c-.04.058-.061.17-.061.331 0 .162.019.265.056.32.04.054.085.08.14.08.052 0 .1-.026.139-.08.037-.055.057-.158.057-.32s-.02-.267-.057-.32c-.04-.053-.087-.083-.143-.083Z"/><path d="M29.094 56.933H17.557c-.015.002-.01.02-.018.031-.012 1.483.005 3.01 0 4.455-.012 1.463.2 2.785.676 3.826.466 1.03 1.23 1.771 2.1 2.394.883.627 1.989.964 3.009 1.49 1.016-.53 2.118-.86 2.998-1.503.868-.628 1.654-1.35 2.114-2.39.459-1.045.665-2.332.665-3.838 0-1.453.012-2.995-.007-4.465Zm-8.892 6.551c.784-.407 1.57-.854 2.183-1.446-.35.084-.71.12-1.07.108.057-.09.149-.145.223-.217.518-.484 1.098-.947 1.38-1.68-.191.064-.43.118-.687.118a5.82 5.82 0 0 0 1.113-2.345h.03c.19.856.57 1.657 1.114 2.345-.225-.015-.414-.024-.674-.126.01.11.068.212.116.307.25.458.65.822 1.024 1.176.15.14.314.265.447.421-.414.037-.602.004-1.057-.116.148.175.342.305.52.447.489.4 1.073.698 1.66 1.008.047.024.119.04.138.102a3.539 3.539 0 0 1-1.556-.137c-.644-.222-1.254-.235-1.705.187-.502-.405-1-.41-1.803-.198-.499.15-1.022.2-1.54.148.017-.066.094-.076.144-.102Zm1.784 3.85h-.12v-.763a.402.402 0 0 1-.117.077.544.544 0 0 1-.124.067v-.113a.902.902 0 0 0 .176-.118.498.498 0 0 0 .107-.13h.077v.98Zm1.068-.21a.322.322 0 0 1-.311.228.265.265 0 0 1-.277-.246l.115-.01c.01.055.03.096.059.12.026.028.063.037.105.037a.2.2 0 0 0 .098-.026.21.21 0 0 0 .067-.068.555.555 0 0 0 .063-.26v-.028a.23.23 0 0 1-.1.096.276.276 0 0 1-.338-.052.324.324 0 0 1-.087-.233.33.33 0 0 1 .088-.239.298.298 0 0 1 .218-.089c.067 0 .122.017.178.048a.331.331 0 0 1 .122.15.832.832 0 0 1 .039.274c0 .124-.017.224-.04.298Zm.915.005a.324.324 0 0 1-.106.163.27.27 0 0 1-.177.06.268.268 0 0 1-.224-.103c-.064-.079-.098-.212-.098-.395 0-.119.015-.21.037-.28a.317.317 0 0 1 .108-.16.252.252 0 0 1 .177-.06c.052 0 .098.01.139.03.04.02.074.052.098.09a.512.512 0 0 1 .059.147.965.965 0 0 1 .022.233.926.926 0 0 1-.035.275Zm.944.206h-.647c0-.028.004-.06.015-.082a.417.417 0 0 1 .08-.13c.037-.046.089-.092.157-.15a1.4 1.4 0 0 0 .216-.208.243.243 0 0 0 .057-.144.154.154 0 0 0-.053-.118.183.183 0 0 0-.134-.052.189.189 0 0 0-.138.053.2.2 0 0 0-.052.142l-.126-.01a.32.32 0 0 1 .096-.21c.056-.05.13-.07.224-.07s.168.022.222.074a.259.259 0 0 1 .083.194c0 .04-.008.08-.024.117a.542.542 0 0 1-.08.12c-.036.04-.1.096-.186.17-.072.06-.118.104-.14.122-.017.024-.035.045-.05.07h.48v.112Zm-.988-2.726.03.26h-1.12l.034-.26h-3.512l.438-.538a6.347 6.347 0 0 0 1.703-.344c1.194-.448 1.918.166 1.918.166.57-.479 1.288-.38 1.952-.135.625.23 1.58.3 1.58.3l.412.55-3.435.001Z"/></g><defs><filter id="a" x="1" y="48.026" width="125.915" height="54.303" filterUnits="userSpaceOnUse" color-interpolation-filters="sRGB"><feFlood flood-opacity="0" result="BackgroundImageFix"/><feColorMatrix in="SourceAlpha" values="0 0 0 0 0 0 0 0 0 0 0 0 0 0 0 0 0 0 127 0" result="hardAlpha"/><feOffset dy="16"/><feGaussianBlur stdDeviation="6.5"/><feColorMatrix values="0 0 0 0 0 0 0 0 0 0 0 0 0 0 0 0 0 0 0.03 0"/><feBlend in2="BackgroundImageFix" result="effect1_dropShadow_6_2"/><feBlend in="SourceGraphic" in2="effect1_dropShadow_6_2" result="shape"/></filter></defs></svg>