<?xml version="1.0" encoding="UTF-8"?>
<svg xmlns="http://www.w3.org/2000/svg" version="1.1" viewBox="0 0 128 48.9">
  <defs>
    <style>
      .cls-1 {
        fill: #711a5f;
        fill-rule: evenodd;
      }
    </style>
  </defs>
  <!-- Generator: Adobe Illustrator 28.7.1, SVG Export Plug-In . SVG Version: 1.2.0 Build 142)  -->
  <g>
    <g id="_图层_1" data-name="图层_1">
      <g>
        <path class="cls-1" d="M24.1,11l.7-.4,1.4,2.9-.6.4s-1.5-2.9-1.5-2.9ZM31.2,9.1h.8s0,2,0,2c0,.2,0,.4,0,.5,0,.2-.1.3-.3.5-.1.1-.2.2-.4.3-.2,0-.4.1-.7.1-.1,0-.3,0-.5,0-.2,0-.3,0-.5-.1-.1,0-.2-.2-.3-.3,0-.1-.2-.2-.2-.4,0-.2,0-.4-.1-.5v-2s.7,0,.7,0v2.1c0,.2.1.5.2.5,0,0,.4.1.6.1.2,0,.5,0,.6-.2,0-.1.1-.4.1-.6,0,0,0-2.1,0-2.1ZM33.5,9.2h.8c0,.1,1.2,2.7,1.2,2.7l.5-2.1h.6c0,.1-.7,3.3-.7,3.3l-.7-.2-1.2-2.6-.5,2.1h-.7c0,0,.7-3.3.7-3.3ZM37.9,10.4l.7.3-1.4,3-.7-.3s1.4-3,1.4-3ZM25,39.2l1-2-.6-.2.2-.5,1.2.4-1.3,2.5s-.6-.3-.6-.3ZM30.3,39.2c0,0,0-.1,0-.2,0-.3,0-.4,0-.5,0,0-.2-.1-.5-.2h-.8c-.2-.1-.3-.1-.4,0,0,0-.1.1-.1.3v.2c0,.1,0,.2,0,.3,0,0,.2.1.5.1.4,0,.8,0,1.2.1ZM30.2,39.6c-.2,0-.4,0-.6,0-.2,0-.4,0-.6,0-.5,0-.8-.2-.9-.3-.2-.1-.2-.3-.2-.6v-.4c0-.2.2-.4.4-.5.2,0,.4-.1.7,0l1.2.2c.4,0,.6.1.7.3.1.1.1.4,0,.7v.4c-.1.5-.4.9-.8,1.1s-.9.3-1.6.2c0,0,0,0-.1,0,0,0,0,0,0,0l-.3-.5h.2c.6.1,1,.1,1.3,0,.3,0,.5-.2.6-.5ZM33,40.6l-.2-2.2h-.6c0,0,0-.3,0-.3l1.2-.3.3,2.7s-.6,0-.6,0ZM37.4,38c0,0,0-.1,0-.2,0-.3-.2-.4-.3-.4,0,0-.3,0-.5,0l-.7.3c-.2,0-.3.1-.4.2,0,0,0,.2,0,.3h0c0,.3.1.4.2.4s.3,0,.5-.1c.4-.1.8-.3,1.1-.5h0ZM37.6,38.4c-.2,0-.4.2-.6.3-.2,0-.4.2-.6.2-.4.2-.7.2-.9.2-.2,0-.3-.2-.4-.4v-.4c-.2-.2-.2-.4,0-.6.1-.2.3-.3.6-.4l1.1-.4c.3-.1.6-.1.8,0,.2,0,.3.3.4.6v.3c.3.5.3.9,0,1.3-.2.4-.7.7-1.3.9h-.1s0,0,0,0l-.5-.3h.2c.6-.3,1-.5,1.2-.7.2-.2.3-.4.3-.7Z"/>
        <path class="cls-1" d="M14,25c0-9.7,7.9-17.5,17.5-17.5s17.5,7.8,17.5,17.5-7.8,17.5-17.5,17.5-17.5-7.8-17.5-17.5ZM31.5,8.2c-9.3,0-16.8,7.5-16.8,16.8s7.5,16.8,16.8,16.8,16.8-7.5,16.8-16.8-7.5-16.8-16.8-16.8Z"/>
        <path class="cls-1" d="M31.5,14l3.3,3.3h4.4v4.4l3.4,3.4-1,1h0s-2.1,2.1-2.1,2.1v4.5h-4.7l-3.2,3.2-3.2-3.2h-4.6v-4.5l-3.3-3.3,3.3-3.3v-4.5h4.6l3.2-3.2h0ZM31.5,15l-2.9,2.9h-4.2v4.1l-3,3,3,3v4.1h4.2l2.9,2.9,2.9-2.9h4.3v-4.1l2.8-2.8-3.1-3.1v-4h-4l-3-3Z"/>
        <path class="cls-1" d="M19.8,25c0-6.4,5.2-11.7,11.7-11.7s11.7,5.2,11.7,11.7-5.2,11.7-11.7,11.7-11.7-5.2-11.7-11.7ZM31.5,14c-6.1,0-11,4.9-11,11s4.9,11,11,11,11-4.9,11-11-4.9-11-11-11ZM16.2,29.3v-.8s1.8-1.9,1.8-1.9l-2.2.3v-.6c-.1,0,3.2-.5,3.2-.5v.7s-1.9,2-1.9,2l2.4-.3v.6s-3.2.5-3.2.5h0ZM17.8,23.2l-1.4.3,1.3.6v-.9ZM18.4,23v1.3c0,0,.6.3.6.3v.7c-.1,0-3.2-1.5-3.2-1.5v-.9c0,0,3.4-.9,3.4-.9v.8c0,0-.8.2-.8.2ZM16.4,20.4l.3-.7,2.7-.7-2.1-.8.2-.6,3.1,1.2-.3.6-2.7.8,2.1.9-.3.6s-3-1.3-3-1.3Z"/>
        <path class="cls-1" d="M18.1,16.5l.5-.6,1.1.8-.5-1.6.5-.7.6,1.8h2.2c0,.1-.5.8-.5.8h-1.9c0,0,1.2.8,1.2.8l-.4.6-2.7-1.9h0ZM23.4,13.9l-1.1-.8.5,1.3.7-.5ZM23.9,14.2l-1,.7.2.7-.5.4-1.1-3.3.7-.6,2.9,1.8-.6.5s-.6-.4-.6-.4ZM39.4,11.2l.7.4-.8,2.5,2-1.6.6.5-2.8,1.9-.6-.4s.8-3.3.8-3.3ZM42.9,13.8l1.2,1.5-.5.4-.8-.9-.5.5.8,1-.4.4-.8-1-.7.6.8,1-.4.4-1.2-1.5s2.6-2.2,2.6-2.2ZM44,17.7l.2.3c.2.3.5.2.5.2,0,0,.4-.2.1-.6l-.2-.4-.7.4ZM42,18l2.7-1.6.7,1.1c.2.3.2.6,0,.9,0,.1-.2.3-.3.3-.1,0-.3.1-.4.1-.1,0-.3,0-.4-.1,0,0-.2-.1-.3-.2l-.8,1.5-.5-.7.7-1c.1-.1.2-.4.2-.4l-1.2.8-.4-.7h0ZM44.1,20.4s-.2.6-.2.8c0,.1.2.3.3.3.2,0,.3,0,.4,0,0,0,.2,0,.2-.2,0,0,0-.2,0-.4,0-.5.1-.6.2-.8,0-.2.3-.4.5-.4.2,0,.3,0,.5,0,.2,0,.3,0,.5.2.2.1.3.3.4.7,0,.3,0,.7-.2,1l-.5-.3c0-.2,0-.5,0-.7,0-.2-.5-.5-.7.2-.1.4,0,1.5-1.1,1.5-.2,0-.6,0-1-.7-.2-.4-.2-.9.1-1.4,0,0,.5.3.5.3ZM47.2,22.6v.7c0,0-3.3.3-3.3.3v-.7c0,0,3.3-.4,3.3-.4ZM47.5,24.2v2.5s-.7,0-.7,0v-.9s-2.7,0-2.7,0v-.8s2.8,0,2.8,0v-.8s.7,0,.7,0h0ZM47.3,27.3l-.2.8-1.3.3,1.1.9-.3.8-1.5-1.5-1.4-.2v-.8c.1,0,1.6.3,1.6.3,0,0,2-.6,2-.6ZM21,34c0,.3-.2.5-.5.5-.3,0-.5-.2-.5-.5h0c0-.3.2-.5.5-.5s.5.2.5.5h0ZM43.1,34c0,.3-.2.5-.5.5s-.5-.2-.5-.5.2-.5.5-.5.5.2.5.5ZM27.8,23.1c-.2,0-.7-.2-.9,0-.2.1,0,.2,0,.4.2.2.3.3.4.5.1.2.3.5.6.4.4,0,.4-.6.7-.9,0,0,0,0,.1,0,0,0,0,0,.1,0,0,0,.2-.1.1-.2,0,0-.2-.1-.3-.1-.1,0-.3,0-.4,0-.2,0-.3,0-.5,0ZM28.4,18.7c.1.1.2.3.2.5,0,.5-.2,1,0,1.5,0,.1.5.1.6.1.2,0,.4,0,.5-.2,0-.2-.1-.5-.2-.6,0-.2,0-.5.1-.7.4-.4.8.4.9.7.1.4.2.9,0,1.3-.2.3-.7.4-1,.4-.2,0-.8,0-.8.3,0,.3.4.5.6.5.3,0,.6-.1.8-.1.2,0,.6,0,.7.3.2.3.3,1,.3,1.5.1,1.4-.1,3.4-.1,4.4,0,.8.3,1.7-.7,1.4-.2-.2,0-.5,0-.8,0-.8,0-1.9,0-2.9s0-.9,0-1.3c0-.3,0-1.2-.3-1.3-.3,0-.6.3-.8.6.1.2.5,0,.5.3,0,.2,0,.6-.1.7-.3.1-.7-.1-1,0-.1.2-.2.4,0,.5.4,0,1,0,1.1.4.1.6-.7.3-1,.7-.2,1.1.1,2.9,0,3.8,0,.2-.1.6-.4.6-.4,0-.6-.8-.7-1.2,0-1.2.2-2.2,0-3.3-.4-.1-.9,0-1-.4,0-.6.8-.3,1-.7,0-.6-.7-.2-1-.4-.1,0,0-.8,0-.9,0-.3-.3-.8-.5-.3-.2.5-.1,1.2,0,1.7,0,.3,0,.6,0,.9,0,.9.3,3.5-.3,3.6-.6.1-.6-.9-.7-1.5,0-1.3,0-3.2,0-4.3,0-.4-.2-1-.2-1.2.2-1,1.5-.5,2.1-.8.1,0,.5-.3.4-.5,0-.2-.6-.1-.7-.1-.4,0-1,0-1.2-.6,0-.8.1-2,.7-1.8.6.2,0,.8.2,1.3,0,.2.4.5.8.4.8-.3,0-1.6.4-2.1.2-.2.4-.2.6,0h0ZM33.1,23.2c.1,0,.3,0,.4-.1.1,0,.2-.2.3-.3.2-.4,0-1-.6-.8-.3.1-.3.5-.3.8,0,.1,0,.3.2.4h0ZM32.9,20.9c-.2.2,0,.5.3.5.1,0,.6,0,.6-.2.1-.2,0-.5,0-.6-.1,0-.4,0-.6,0-.1,0-.2,0-.3.1h0ZM34.4,23.8c-.2.2-.7,0-.9,0-.9.3-.4,2.4-.5,3.4,0,.6-.3,1.2-.4,1.7-.1.4-.2.8-.3,1.2-.2.5-.8.1-.8-.3,0-.3.2-.6.3-.9.6-2.3.6-5.9.3-8.3,0-.2,0-.4,0-.6,0-.1.1-.4.3-.4.1,0,.4.2.5.3.4.3.7.2.8-.3.1-.4-.2-.5.2-.7.7-.4.8,1.3.8,1.7,0,.7,0,1.5,0,2.2,0,.3,0,.6-.1.9,0,0,0,0,0,.1ZM36.6,23.1s0,0,0-.1c0-.2,0-.5,0-.7,0-.1-.4-.2-.5-.2,0,0-.2,0-.2,0,0,0,0,0,0,.2,0,.2,0,.7.2.8.2.1.5,0,.6,0h0ZM35.8,21.2c0,0,.2.2.3.2.2,0,.7.1.8-.2,0,0,0-.3-.1-.4,0-.1-.2-.2-.3-.3-.2,0-.5-.2-.6,0,0,.2,0,.4,0,.5ZM36.3,20c0,0,.3-.2.3-.2.1,0,.2,0,.4,0,.5,0,.5.5.5.8,0,.5-.1,1.1-.1,1.6,0,1.1,0,2.2,0,3.3,0,.6,0,1.2.1,1.8,0,.4,0,.7,0,1.1,0,.3,0,.7,0,1,0,.3.4,1-.1,1.1-.7.2-.8-1-.8-1.6,0-.8.3-4.4-.3-4.9-.3-.2-.6-.1-.9,0-.4,0-.6,0-.6-.5,0-.4,0-.8,0-1.2,0-.9,0-1.8,0-2.7,0-.2,0-.6.4-.6.6,0,.4,1,1,1.1h0Z"/>
        <path class="cls-1" d="M36,24.3s0,0,0,.1c0,.1,0,.3,0,.4,0,.2-.2.3-.1.5,0,.1.3.1.3.3,0,.2,0,.4,0,.5,0,.2-.2.2-.2.5,0,.2,0,.4,0,.6,0,.5,0,1,0,1.5,0,.4.5,1.5,0,1.8-.3.1-.5-.1-.6-.4-.1-.4,0-.8,0-1.2,0-.8.1-1.7,0-2.5,0-.3-.3-.7-.1-1,0,0,.1-.1.1-.2,0,0,0-.2-.1-.2,0-.2-.2-.4,0-.6.1-.2.4-.3.6-.3.2,0,.4,0,.5.2h0ZM34.4,26.4c-.1,1.1,0,2.4-.4,3.4-.1.3-.6,1.3-.9,1.2-.6-.1,0-1,.2-1.3.3-.8.5-2.2.4-3.2-.3-.2-.3-.6-.2-.9,0-.1.3-.3.3-.4,0-.2-.2-.3-.3-.4-.1-.2-.1-.5.1-.6.3-.2,1.1-.2,1,.4,0,.2-.3.4-.3.6,0,.2.4.4.4.6,0,.2-.2.4-.3.5ZM57.7,23.2c.2,0-.1.8-.3,1.1,0,.1-.1.2-.2.3,0,.1-.1.2-.1.4,0,.3,0,.5,0,.8,0,.6.2,1,.2,1.6-.2,0-.3.2-.5.2-.5-.5-1.4-1.5-.2-1.9,0,0,.1-.6.1-.7,0-.3.1-.5.2-.8,0-.3.2-.6.4-.8.1,0,.3-.3.4-.3ZM65.3,23.5c0-.7,0-1.4.1-2.1h0c0,0,0,0,0,0v-.2c0-.2,0-.4,0-.6h0s0,0,0,0h0s0,0,0,0h0s0,0,0,0h0s0,0,0,0h0s0,0,0,0h0s0,0,0,0h0s0,0,0,0h0c0-.2.1-.5,0-.6-.3-.2-.8.2-1.1.3-1.4.8-2.8,1.6-4.3,2.3-.3.2-.6.3-.9.4-.3,0-.5.1-.8.2-.2,0-.5.1-.8.1-.1-.5.8-1,1.2-1.2.3-.2.6-.3.9-.4.2,0,.8-.2.9-.4.4-.5.6-1.2.7-2.1-.9.3-3.2,1.3-3.4,1.4-.3.2-.5.3-.9.1-.5-.2,0-.9.4-1.1,0,.1,0,.4,0,.4,0,0,.3,0,.4,0,.5-.2,1-.4,1.5-.7.6-.3,1.2-.6,1.7-.9.2,0,.4,0,.5-.3,0-.2,0-.5.1-.7,0-.5.1-1,.3-1.5,0-.2.2-.3.2-.5h0s0,0,0,0h0s0,0,0,0h0s0,0,0,0h0s0,0,0,0h0s0,0,0,0v-.3s0,0,0,0h0c0,0,0,0,0,0v-2.9c.4,0,1.9,1.5,1.9,1.5.6.9-.4,3.4-.6,4.1.9,0,1.6-.6,2.4-.8.2,0-.5-.5-.5-.5-.1,0-.3,0-.4-.2h0s0,0,0,0h0c0,0-.1-.2-.1-.3h0c.3,0,.7,0,1.1,0,.2,0,.4,0,.6,0,.1,0,.3,0,.5,0,.2,0,.2.2.3.2,0,0,.3,0,.3.1.2.3,0,.6-.4.7-.5.2-.9.3-1.3.5-.5.2-.9.4-1.3.5-.2,0-.5.2-.7.3-.1,0-.6.1-.7.2-.2.3-.4.7-.6,1-.2.3-.4.7-.5,1.1.4,0,1-.3,1.3-.4.7-.2,1.3-.5,2-.7.2,0,.5-.2.7-.2.2,0,.1,0,.3.1.1.1.3.2.4.3,0,.2,0,.6,0,.9,0,.9-.1,1.7-.2,2.6-.1,1.3-.2,2.6-.3,3.9,0,.2,0,.4,0,.6,0,.2,0,.6-.1.8-.4.3-1.5-.7-1.8-.9-.2-.2-.4-.4-.7-.5,0,0-.2-.2-.3-.2-.2,0-.1.2-.2.2-.2.2-.9,0-1.1,0-.3,0-.3-.4-.3-.6,0,0-.5,0-.6-.2,0,0,0-.2,0-.2,0-.2,0-.3.3-.4.2-.1.4-.2.7-.2,0,0,0-.3,0-.3,0,0-.2-.1-.3-.2-.2,0-.5-.1-.3-.4.1-.2.5-.5.8-.6,0,0,.2-.4.2-.5,0-.2.2-.3.3-.4.2-.3.5-.7.4-1,0,0,0-.2-.7.3-.2.2-.4.4-.5.6-.2.2-.4.4-.5.6-.2.2-.2.4-.6.4-.3,0-.5-.1-.7-.3-.3-.2-.5-.3-.3-.6,0,0,1.1,0,1.2,0,.3-.1.6-.4.9-.6.3-.2.5-.4.7-.6.2-.2.3-.3.6-.4.2,0,.4-.3.6-.3.4-.1.9.2.7.6,0,.1-.3.2-.4.4-.1.1-.2.3-.3.4-.4.4-.9.8-1.1,1.2.2,0,.6-.1.8,0,.1.1,0,.4,0,.6,0,.2-.2.3-.3.4,0,.2.2.1.3.2.1,0,0,0,.1,0,0,.1,0,.4,0,.5,0,.2,0,.3,0,.5.1.6.3.5.6.7.4.2,1.4.6,1.2,0-.1-.6.2-1.2.2-1.7h0c0,0,0-.1,0-.1v-.2s0,0,0,0h0v-.4s0-.2,0-.2h0c0-.1,0-.2,0-.2h0ZM73.3,22.1c.4,0,.3.5.3.8,0,.3,0,.6.1.9,0,.4.3.9.3,1.3,0,.4-1.4.8-1.4.7,0-.6,0-1.4.2-2,0-.3.1-.7.2-1,0,0,.2-.8.3-.8ZM76.8,24.3h0c0,0,0,.2,0,.3,0,.2-.1.4-.1.5,0,.3.4.2.6.3,0-.3.3-1,0-1.2,0,.1-.2,0-.3,0h0ZM81.2,25.1c0,.2,0,.4,0,.7h0c0,.4,0,.6-.1.8,0,0-.4.5-.6.5-.2,0-2.2-.7-3.1-1.1-.4-.2-.8-.3-1.2-.5-.2,0-.5-.3-.4-.6-.2,0-.6,0-.6-.3,0-.1.3-.2.4-.3.2,0,.3-.1.3-.3.2-.4-.5-.3-.7-.3,0-.3.2-.5.5-.6.3-.2.5-.3.8-.4.4-.2.7-.4,1-.6.4-.2.5,0,.9,0,.1.5-.3.5-.6.8.1.1.4,0,.6,0,0,.9.4,2.2-.6,2.8,0,0,.5.1.6.1.2,0,.5,0,.7.1.4,0,.9.1,1.3,0,.2-.7-.3-1.5-.2-2.2-.5-1.7.2-4.4,0-6.4-.3,0,0,.9-.1,1,0,.2-.2.3-.4.5-.2.2-.4.5-.5.7,0,.2-.1.3-.2.5,0,.1-.2.3-.2.4,0,.3.3.8-.3.7-.2,0-.5,0-.6-.2,0,0-.3-.4-.4-.4-.6,0-.6.6-.6,1.1,0,.2-.3.6-.6.7h0s0,0,0,0h0s0,0,0,0h0s0,0,0,0h0s0,0,0,0h0c0-.2.1-.4.2-.7,0-.1,0-.4,0-.5-.3.1-.6.7-.8.7-.2,0-.4-.3-.5-.4-.3-.6,1.3-.7,1.6-.9,0,0,.1-.8.1-.9,0-.3.2-.6.2-.9,0,0-.7.3-.7.4-.2.1-.5.3-.7.5-.5.3-1.2.5-1.7.4,0,0-.2-.1-.3-.2.2-.4.9-.8,1.4-1,.5-.3,1.1-.5,1.7-.7,0,0,0-.1,0-.2,0,0,.3,0,.4,0,.2,0,.5,0,.6,0,.2.2.1.5,0,.7-.2.5-.5,1-.4,1.5,1.5.3,1.6-.8,2.2-1.3.1-.9.3-1.8.6-2.5.2,0,.4,0,.5,0,.2,0,.4,0,.6,0h0s0,0,0,0h0s0,0,0,0c.3.1.2.9.2,1.2.2,2-.5,4-.3,6.4h0s0,0,0,0h0c.2.4.2.8.2,1.1h0ZM76.6,23.3v.4c.2-.2.7-.3.8-.7-.4,0-.3,0-.8.3ZM88.1,23c-.3-.1-.5-.3-.6-.9.2,0,.2.2.4.3.5-.2,1.2-.2,1.5-.6,0,0,.5,0,.6,0,.2,0,.3-.1.4-.2.2-.1.4-.2.6-.3.2-.2.2-.6.3-.8.1-.7.4-1.4.5-2.1,0-.4-.3-1.4.5-1.5.1,0,.2.1.3.2,0,.2.1.1.3.2h0s0,0,0,0h0s0,0,0,0h0s0,0,0,0h0s0,0,0,0c.2.1.3.3.3.5h0c0,.2,0,.4,0,.6h0s0,0,0,0h0s0,0,0,0h0s0,0,0,0h0s0,0,0,0h0s0,0,0,0h0s0,0,0,0h0c0,.1,0,.2,0,.3,0,.1-.1.2-.2.3,0,.2,0,.3-.1.5-.1.3-.3.6-.3.9.3.2.7-.1,1.1-.2,0-.4,0-.4,0-.8,0,0,.5,0,.6,0,0,0,.2,0,.3,0,0,0,0-.1.1-.2,0,0,.3,0,.4,0,.3,0,.6,0,.9,0,.3,1-.9,1-1.9,1.3h0s0,0,0,0h0s0,0,0,0h0c-.9.3-1.6.6-1.6.6-.3,1.9-1.4,3.9-3.5,4.5-.6.2-1.4.3-2,.2,0,0,.2-.2.2-.2.1-.1,0-.2.3-.2.4-.1.8-.3,1.1-.4.7-.4,1.3-.8,1.9-1.2,0,0,0-.4.1-.5,0-.2.1-.3.2-.5.1-.3.5-.9.5-1.2-.3.2-.5.4-.9.5-.3,0-.6.3-.8.4,0,0-.7.1-.9,0h0ZM92.7,22.7c0,0,.3.2.3.2,0,0,.1,0,.2,0,0,0,0,.2,0,.2,0,0,.2,0,.3,0,.2,0,.4.2.5.3,0,0,.9.7.9.7.4-.2.9,0,1.3,0,.2,0,.4-.1.3.1,0,0-.3.4-.3.4-.7.2-1,.7-1.6.6-.5,0-1.6-1.3-1.6-1.4-.4-.4-.8-.7-1.1-1.1.2,0,.4,0,.6,0ZM110.2,18.2v-.5.5ZM110.6,23.3c.2,0,.3.2.3.5,0,.5-.4.6-.8.6-.3,0-1.1-.2-1.3.1-.1.2.1.5.2.7,0,.3,0,.6,0,.9,0,.6,0,1.1,0,1.7,0,.4-.4.8-.8.9-.3,0-.7,0-1,0-.4,0-.7,0-1-.1-.2-.1-.4-.1-.7-.2h0s0,0,0,0h0s0,0,0,0h0s0,0,0,0h0s0,0,0,0h0s0,0,0,0c-.3-.1-.6-.3-.6-.5h0c.3.2.6.1.9.2.3,0,.7,0,1,0,.3,0,.5,0,.8,0,.3,0,.6-.3.8-.5,0-.3,0-.5.1-.8,0-.2,0-.4,0-.6,0-.3,0-.5-.1-.8,0-.2,0-.4-.2-.6,0-.1,0,0-.2,0,0,0-.4,0-.4,0-.8.6-1.8,1-2.7,1.5h-1c0,0-.3-.3-.4-.3-.3-.5,0-.6.5-.7.4-.1.7-.3,1-.5.7-.3,1.3-.7,2.1-.9.5-.1.9-.2,1.4-.3,0,0,.2-.2.2-.2,0,0,.2,0,.3,0,.3,0,.5,0,.8-.1.2,0,.5,0,.7,0h0ZM110,18.2c0,0,0,0,.2,0v-.5c-.2,0-.2,0-.2-.1,0,.2-.2.6,0,.7ZM107.1,17.4c.2,0,.2-.2.2-.3,0,0,0-.2-.2-.1v.4ZM108,17.3h.6c-.1-.3.4-.5,0-.6-.2.2-.4.4-.6.6ZM107.1,16.1v.5c.4,0,.5-.3.6-.5-.2,0-.3,0-.6,0ZM110,16.7c.7-.3,1.1,1.1.6,1.7.7-.2,1.1-.8,1.4-1.5h.2c.1-.7.7-1.1.6-1.9-1.1-.3-1.9.5-2.8.8,0,.3.3.7,0,1ZM103.5,23.1c0,0,2.8-1.3,3-1.5.4-.2.8-.3,1.2-.5.3-.1.6-.3.9-.5.4-.2,1.9-.7,2.2-.8.5,0,.8.2.7.8,0,.6-.7,1-1.2,1.2-.7.4-1.3.7-2,1.2,0-.4.4-.7.7-.9.4-.5.9-1,1.2-1.5-.6-.2-1.3.2-1.7.5-.3.1-.5.3-.8.4-.2,0-.4.1-.6.2-.2.1-.3.3-.4.4-.2.1-.4.2-.5.3-.3.3-.6.5-1,.7-.4.2-.7.5-1.2.7-.4.2-.8.5-1.2.5-.6,0-.9-.5-.6-1,.2-.4.6-.3.9-.5.3-.1.5-.3.7-.5.5-.4,1-.5,1.6-.8.3-.2.7-.4,1-.6.2,0,.3-.2.5-.3.1,0,.4-.1.5-.2.6-.5,1.5-.8,1.8-1.5,0,0-.4,0-.5,0-.1,0-.2-.3-.2-.4,0,0-.5.3-.6.3-.1,0-.8.3-.9,0,0-.1.3-.4.4-.5.2-.2.4-.4.6-.7,0,0-.5-.3-.6-.2-.2,0-.3.3-.4.5-.2.3-.4,1-.9.7-.3.3-.6.7-.8,1.1,0,.2-.1.5-.3.6-.1.1-.4,0-.4.3-1-.3-.7-1.9-.7-2.7,0-.3,0-.6,0-.9.4,0,.8.2.9.6.1.4.1.9,0,1.4.2,0,.4-.3.6-.4.2-.1.3-.3.4-.5,0-.2,0-.5,0-.7,0-.2-.1-.2-.2-.3,0-.2,0-.5,0-.7,0-.2-.1-.4-.2-.6,0-.2-.2-.4-.2-.6,0-.2,0-.6-.2-.7,0,0-.1,0-.2-.1,0-.2,0-.3,0-.5.1,0,.1,0,.1.2,0,0,.6.2.7.2.2.1.4.3.5.5.2.2.5.5.8.5.2,0,.3,0,.5,0,.2,0,.5,0,.7,0,.1,0,.2-.1.3-.2,0,0,0-.2,0-.3,0,0,.2-.1.2-.2,0,0,.1-.2.2-.3,0-.2.3-.3.4-.4,0-.1.1-.3.2-.4.1,0,1-.2,1,0,.1.7-.2,1-.6,1.3,0,0,.1,0,.2,0,0,0,0-.1.1-.1,0,0,0-.1.1-.1.5-.3,1-.5,1.6-.6.5,0,1.3,0,1.7.4.2.2,0,.9-.1,1.1,0,.1-.2.3-.3.4-.1.1-.1.3-.2.4,0,.1-.2.2-.3.4,0,.1-.2.3-.2.4,0,.1-.2.3-.3.4,0,0-.2.1-.3.2,0,0,0,.2-.1.3,0,0-.1,0-.2,0-.1.2,0,.3-.2.5h0s0,0,0,0h0s0,0,0,0h0s0,0,0,0h0s0,0,0,0h0c-.1.1-.2.2-.2.4h0c-.6.3-1.1.6-1.8.3-.9.8-5.1,3.1-6.1,3.7h0ZM55.5,31.6c.2,0,.6,0,1,0s.4,0,.5,0c0,0,0,.2.3.4.6.7,1.8,2.2,2.2,2.6,0,0,0,0,0,0,0-.9,0-1.9,0-2.3,0-.2,0-.3-.3-.4-.1,0-.3,0-.5,0,0,0,0-.2,0-.2.2,0,.5,0,1,0s.7,0,.8,0c0,0,0,.2,0,.2-.1,0-.2,0-.3,0-.2,0-.3.2-.3.4,0,.6,0,1.6,0,2.6,0,.3,0,.7,0,.9-.2,0-.4,0-.6,0-.4-.5-2.1-2.7-2.6-3.2,0,0,0,0,0,0,0,.7,0,2.2,0,2.5,0,.3.1.4.3.4.1,0,.2,0,.4,0,0,0,0,.2,0,.2-.2,0-.6,0-.9,0s-.7,0-.9,0c0,0,0-.2,0-.2.2,0,.3,0,.4,0,.2,0,.2-.2.3-.4,0-.4,0-1.6,0-2.8,0-.1,0-.3-.2-.4-.2,0-.3-.1-.5-.1,0,0,0-.2,0-.2h0ZM62.7,34.5c-.2,0-.6.2-.7.3,0,0,0,.1,0,.2,0,.3.2.5.5.5s.2,0,.2,0c0,0,0,0,0-.1,0-.2,0-.6,0-.7s0,0,0,0ZM62.6,33.7c-.1-.2-.3-.2-.5-.2s-.3,0-.3,0c0,0-.2.3-.3.4,0,0-.2,0-.2-.1,0,0,.1-.4.2-.4.3-.2.9-.4,1.1-.4.4,0,.6.2.8.4.1.2.2.4.2.7s0,.8,0,1.1,0,.3.2.3c0,0,.2,0,.2,0,0,0,0,.2,0,.3-.2.2-.5.3-.7.3s-.4,0-.4-.2h0c0-.1,0-.1,0-.1-.4.2-.7.3-.8.3-.2,0-.3,0-.4-.2-.2-.2-.3-.4-.3-.7,0,0,0-.3.1-.4.2-.1,1.1-.3,1.4-.4,0,0,0,0,0,0,0,0,0,0,0-.1,0-.1,0-.3-.1-.4h0ZM64.8,35.6c0,0,.1-.1.2-.3,0-.2,0-.7,0-1.1s0-.5,0-.5c0,0,0-.2-.4-.3,0,0,0-.1,0-.2.4,0,.9-.2,1.1-.3,0,0,0,0,0,0,0,0,0,.3,0,.4s0,0,0,0c.4-.3.7-.4.9-.4s.6.1.7.4c.1.2.2.5.2.8s0,1,0,1.2c0,0,0,0,0,.1.1,0,.2,0,.4.1,0,0,0,.2,0,.2-.1,0-.3,0-.8,0s-.5,0-.8,0c0,0,0-.2,0-.2,0,0,.2,0,.2,0,0,0,.1,0,.1-.2,0-.3,0-1.1,0-1.4,0-.1,0-.3-.2-.3-.1,0-.2-.1-.4-.1-.1,0-.3,0-.4.1,0,0,0,0,0,.2,0,.5,0,1.2,0,1.6,0,.2,0,.2.2.2,0,0,.1,0,.2,0,0,0,0,.2,0,.2-.2,0-.5,0-.8,0s-.6,0-.8,0c0,0,0-.2,0-.2,0,0,.2,0,.2,0h0ZM70.3,33.1c.5,0,1.1,0,1.4,0,0,0,0,.2,0,.2-.3,0-.4.1-.6.2-.2.2-.5.4-.6.6,0,0,0,0,0,0,.2.3.8,1.1,1.1,1.3.1.1.2.1.5.1,0,0,0,.2,0,.2-.1,0-.6,0-.9,0-.1,0-.3,0-.4-.2-.2-.2-.5-.7-.8-1,0,0-.1-.2-.2-.2,0,.3,0,.5,0,.8,0,.2,0,.2.2.3,0,0,.2,0,.3,0,0,0,0,.2,0,.2-.2,0-.4,0-.8,0s-.6,0-.8,0c0,0,0-.2,0-.2.1,0,.2,0,.3,0,.1,0,.1,0,.1-.3,0-.2,0-.8,0-1.2,0-1.7,0-2.1,0-2.2,0,0,0-.2-.1-.2,0,0-.2,0-.3,0,0,0,0-.2,0-.2.4,0,1-.1,1.3-.2,0,0,0,0,0,.1,0,0,0,.2,0,.7,0,.8,0,1.5,0,2.3.1,0,.2,0,.3-.2.3-.2.6-.6.6-.7,0,0,0,0-.1-.1,0,0-.3,0-.3,0,0,0,0-.2,0-.2ZM74.1,34.5c-.2,0-.6.2-.7.3,0,0,0,.1,0,.2,0,.3.2.5.5.5s.2,0,.2,0c0,0,0,0,0-.1,0-.2,0-.6,0-.7s0,0,0,0h0ZM74,33.7c-.1-.2-.3-.2-.5-.2s-.3,0-.3,0c0,0-.2.3-.3.4,0,0-.3,0-.2-.1,0,0,.1-.4.2-.4.3-.2.9-.4,1.1-.4.4,0,.6.2.8.4.1.2.2.4.2.7s0,.8,0,1.1,0,.3.2.3c0,0,.2,0,.2,0,0,0,0,.2,0,.3-.2.2-.5.3-.7.3s-.4,0-.4-.2h0c0-.1,0-.1,0-.1-.4.2-.7.3-.8.3-.2,0-.3,0-.4-.2-.2-.2-.3-.4-.3-.7,0,0,0-.3.1-.4.2-.1,1.1-.3,1.4-.4,0,0,0,0,0,0,0,0,0,0,0-.1,0-.1,0-.3-.1-.4h0ZM77,32.5c0,0-.4,0-.5,0-.1,0-.2-.2-.2-.3,0,0,0-.2,0-.3,0,0,.3-.1.5-.1s.3,0,.3,0c0,0,0,.2,0,.2,0,.1,0,.3-.2.4h0ZM77.5,35.8c-.1,0-.4,0-.8,0s-.6,0-.8,0c0,0,0-.2,0-.2.1,0,.2,0,.3,0,0,0,.1,0,.1-.3,0-.2,0-.6,0-.9s0-.5,0-.6,0-.1,0-.2c0,0-.1,0-.3-.2,0,0,0-.2,0-.2.2,0,.8,0,1.2-.2,0,.3,0,.8,0,1.2s0,.8,0,1.1c0,.2,0,.2.1.3,0,0,.1,0,.3,0,0,0,0,.2,0,.2ZM79.8,31.6c.2,0,.6,0,1,0s.8,0,1,0c0,0,0,.2,0,.2-.1,0-.2,0-.3,0-.2,0-.2.1-.2.4,0,.5,0,1.3,0,1.6,0,.3,0,.6,0,.8,0,.4.5.8,1.2.8s1.1-.2,1.1-1.1c0-.5,0-1.5,0-2,0-.3,0-.4-.3-.4-.1,0-.3,0-.4,0,0,0,0-.2,0-.2.2,0,.5,0,.9,0s.7,0,.8,0c0,0,0,.2,0,.2-.1,0-.2,0-.3,0-.2,0-.2.2-.3.5,0,.6,0,1.4,0,1.9-.1,1.2-.9,1.6-1.8,1.6s-1.7-.6-1.8-1.3c0-.5,0-1.8,0-2.4,0-.2,0-.3-.2-.3-.1,0-.2,0-.4,0,0,0,0-.2,0-.2h0ZM85.5,35.6c0,0,.1-.1.2-.3,0-.2,0-.7,0-1.1s0-.5,0-.5c0,0,0-.2-.4-.3,0,0,0-.1,0-.2.4,0,.9-.2,1.1-.3,0,0,0,0,0,0,0,0,0,.3,0,.4s0,0,0,0c.4-.3.7-.4.9-.4s.6.1.7.4c.1.2.2.5.2.8s0,1,0,1.2c0,0,0,0,0,.1,0,0,.2,0,.4.1,0,0,0,.2,0,.2-.1,0-.3,0-.8,0s-.5,0-.8,0c0,0,0-.2,0-.2,0,0,.2,0,.2,0,0,0,.1,0,.1-.2,0-.3,0-1.1,0-1.4,0-.1,0-.3-.2-.3-.1,0-.2-.1-.4-.1-.1,0-.3,0-.4.1,0,0,0,0,0,.2,0,.5,0,1.2,0,1.6,0,.2,0,.2.2.2,0,0,.1,0,.2,0,0,0,0,.2,0,.2-.2,0-.5,0-.8,0s-.6,0-.8,0c0,0,0-.2,0-.2,0,0,.2,0,.2,0ZM90.4,32.5c0,0-.4,0-.5,0-.1,0-.2-.2-.2-.3,0,0,0-.2,0-.3,0,0,.3-.1.5-.1s.3,0,.3,0c0,0,0,.2,0,.2,0,.1,0,.3-.2.4h0ZM91,35.8c-.1,0-.4,0-.8,0s-.6,0-.8,0c0,0,0-.2,0-.2.1,0,.2,0,.3,0,0,0,.1,0,.1-.3,0-.2,0-.6,0-.9s0-.5,0-.6,0-.1,0-.2c0,0-.1,0-.3-.2,0,0,0-.2,0-.2.2,0,.8,0,1.2-.2,0,.3,0,.8,0,1.2s0,.8,0,1.1c0,.2,0,.2.1.3,0,0,.1,0,.3,0,0,0,0,.2,0,.2ZM91.5,33.1c.2,0,.5,0,.8,0s.6,0,.8,0c0,0,0,.2,0,.2,0,0-.2,0-.3,0,0,0,0,0,0,0,0,.3.5,1.2.6,1.5,0,0,0,0,0,0,.1-.3.4-1,.5-1.3,0-.2,0-.2,0-.3-.1,0-.2,0-.3,0,0,0,0-.2,0-.2,0,0,.4,0,.6,0s.5,0,.6,0c0,0,0,.2,0,.2,0,0-.2,0-.2,0-.1,0-.2.1-.3.3-.2.4-.4.9-.7,1.5-.1.3-.2.5-.2.6-.2,0-.3,0-.5,0,0-.2-.1-.4-.2-.6-.2-.5-.4-1-.5-1.3-.2-.5-.2-.5-.4-.6,0,0-.2,0-.2,0,0,0,0-.2,0-.2h0ZM96.1,34.1s0,0,0,0c.2,0,.8,0,.9,0,0,0,0,0,0,0,0-.4-.2-.7-.5-.7s-.5.3-.5.8ZM98,35.1c0,0,0,.1,0,.2-.3.4-.8.6-1.3.6s-.7-.1-.9-.3c-.3-.3-.4-.7-.4-1.1s.3-1,.7-1.2c.2-.1.6-.2.8-.2.8,0,1,.6,1.1,1,0,0,0,0,.1,0,0,0,0,.2,0,.2-.2,0-1.3.1-1.8.2,0,0,0,0,0,0,0,.2.1.4.3.6.2.2.4.3.7.3s.6,0,.8-.3c0,0,0,0,0,0h0ZM101.1,33.2s0,0,0,.1c0,.2-.2.4-.3.6,0,0,0,0,0,0-.2-.1-.3-.3-.5-.3s-.2,0-.3.1c0,0,0,0,0,.1,0,.4,0,1.3,0,1.4,0,.2,0,.2.2.3.1,0,.3,0,.4,0,0,0,0,.2,0,.2-.1,0-.5,0-1,0s-.6,0-.8,0c0,0,0-.2,0-.2,0,0,.2,0,.3,0,0,0,.1,0,.1-.2,0-.1,0-.6,0-1.1s0-.4,0-.5c0,0,0-.2-.4-.3,0,0,0-.2,0-.2.3,0,.8-.1,1.1-.3,0,0,0,0,0,0,0,0,0,.4,0,.5s0,0,0,0c.1-.2.3-.3.4-.4.1,0,.3-.1.4-.1.2,0,.3,0,.4.2h0ZM103.7,33.9s-.2,0-.2,0c0-.3-.1-.5-.3-.6,0,0-.2,0-.3,0-.2,0-.4.1-.4.3s0,.3.7.6c.6.2.7.5.7.8,0,.6-.6.9-1.2.9s-.6,0-.9-.1c0-.2,0-.7-.1-.8,0,0,.1,0,.2,0,.1.4.3.6.5.7.1,0,.2,0,.4,0,.3,0,.4-.1.4-.3s-.1-.3-.5-.5c-.7-.3-.9-.6-.9-1s.4-.9,1.2-.9.4,0,.5,0h.3c0,.3,0,.5,0,.8h0ZM105.7,32.5c0,0-.4,0-.5,0-.1,0-.2-.2-.2-.3,0,0,0-.2,0-.3,0,0,.3-.1.5-.1s.3,0,.3,0c0,0,0,.2,0,.2,0,.1,0,.3-.2.4h0ZM106.3,35.8c-.1,0-.4,0-.8,0s-.6,0-.8,0c0,0,0-.2,0-.2.1,0,.2,0,.3,0,0,0,.1,0,.1-.3,0-.2,0-.6,0-.9s0-.5,0-.6,0-.1,0-.2c0,0-.1,0-.3-.2,0,0,0-.2,0-.2.2,0,.8,0,1.2-.2,0,.3,0,.8,0,1.2s0,.8,0,1.1c0,.2,0,.2.1.3,0,0,.1,0,.3,0,0,0,0,.2,0,.2ZM108.1,33.5s0,0,0,0c0,.3,0,.8,0,1.1s0,.4,0,.5c0,.2.2.3.4.3s.3,0,.4-.1c0,0,0,.2,0,.2-.2.2-.5.3-.8.3s-.6-.1-.7-.3c-.1-.2-.1-.4-.1-.8s0-1,0-1.3,0,0,0,0c0,0-.3,0-.4,0,0,0,0-.2,0-.3.1,0,.2,0,.3,0,0,0,0,0,0,0v-.6c.2,0,.6-.3.7-.3,0,0,.1,0,.2,0,0,.1,0,.5,0,.9s0,0,0,0c.2,0,.7,0,.8,0,0,.1,0,.3,0,.4-.2,0-.5,0-.7,0ZM109.3,33.1c.1,0,.4,0,.8,0s.6,0,.8,0c0,0,0,.2,0,.2,0,0-.2,0-.2,0,0,0,0,0,0,.1.1.3.5,1.3.6,1.4h0c.2-.4.5-1.1.5-1.3,0,0,0-.2-.1-.2-.1,0-.2,0-.3,0,0,0,0-.2,0-.2.1,0,.4,0,.6,0s.5,0,.7,0c0,0,0,.1,0,.2,0,0-.2,0-.3,0-.1,0-.2.1-.3.4-.5,1.1-1,2.2-1.6,3.3,0,.2-.2.3-.2.4h0c-.1,0-.4,0-.5-.2,0,0,0-.1,0-.1.2-.3.8-.9,1-1.4,0,0,0-.1,0-.2-.2-.4-.4-1-.7-1.6-.2-.5-.3-.6-.5-.6,0,0-.2,0-.3,0,0,0,0-.2,0-.2Z"/>
      </g>
    </g>
  </g>
</svg>