<?xml version="1.0" encoding="UTF-8"?>
<svg xmlns="http://www.w3.org/2000/svg" version="1.1" viewBox="0 0 128 40.9">
  <defs>
    <style>
      .cls-1, .cls-2 {
        fill: #004ea2;
      }

      .cls-1, .cls-3 {
        fill-rule: evenodd;
      }

      .cls-3 {
        fill: #004098;
      }
    </style>
  </defs>
  <!-- Generator: Adobe Illustrator 28.7.1, SVG Export Plug-In . SVG Version: 1.2.0 Build 142)  -->
  <g>
    <g id="_图层_1" data-name="图层_1">
      <g>
        <path class="cls-3" d="M44.8,20.3c0,0,.2,0,.2,0,.4-.7,1.6-2.6,1.4-3.3q-.3.2-1,.5c-.2.2-.1.6-.3.9,0,.6-.9,1.2-.3,1.9ZM39,23v-.8c0,0,0,0,0,0,0-.6-.1-1.1.1-1.5.1,0,.2.1.4.4.8.3,2-.5,1.9-1.4-.4-.7-.6-1.5-.7-2.2.2-.2.1-.2.6-.2.2.3.9.7.9,1.3.2.3.4.7,1,.4.6-1.1.6-2.3.4-3.4-.8-.9-1-.4-2,.1-1,0-1.2,0-1.8-.6.2-.9,4.4-1.8,5.4-2,0,0,1.3-.4,1.5-.4.8-.4,1.7-1,2.7-.7.3,1-2.2,2.1-3,2,0,0,0-.1,0-.2-.9,0-1.9.5-2.7.8,0,0,0,.2,0,.3,0,0,.1,0,.2,0,1.4.1,1.6.2,1.7,1.8.3.3,1.4-1,1.6-1.2,1-.7,1.5.5,1.5,1.5-.6.7-1,1.5-1.5,2.3-.3.7-.8,2-1.6,2.4,0,.3.4.6.4,1.2-.5.4-1.1.7-1.6.7,0-.3.3-.6.1-.8-.5,0-1.4.4-1.7.1,0-.4,0-.8-.1-1.2-.7,0-.7,0-1.1-.4-.3,0-.6.3-.8.5l-.8.2c0,.1,0,.2,0,.4.2.4,1.3,1.9.4,2.3-1.3,0-1-1.1-1.5-1.5h0ZM53.2,24.3q0-.1-.8-.6c-.5-.7-.2-.8.4-1.2.6,0,1.3-.4,1.7-.8.6-.2.9-.7,1.6-.8,0-.1.1-.2.2-.3h0c0-.6.4-3.9.6-4,0-.5.2-2.8.6-3,0-.2,0-.3.2-1.4-.1-.3,0-.6,0-.8.2,0,.3,0,.5,0,.3.5,1.1,1.1,1,2-1,1.3-1.3,2.7-1.6,4.3-.2.2-.5,3.8-.4,3.8-.3.7-1,0-1.3,0-.6.9-1.2,1.9-2,2.7q-.2,0-.3.2h-.5s0,0,0,0Z"/>
        <path class="cls-3" d="M53.2,21.6c0,0,.1-.3.1-.4,0,0,0,0,0,0,.2-.5.8-1.7.8-2.1-.4-.7-.8-1.3.3-1.2.4.2.9.4,1.3.8,0,.4-.2.9-.6,1.1-.6.6-1,1.7-2,1.8ZM59.8,21.8c-.4,0-.8,0-1.2-.1-1.3-.5,1-2.7.9-3.4-.2,0-.4-.1-.6-.2,0-.4,1.1-.9,1.4-1.3.3-1.1.7-2.2.9-3.2,1.2-1.3,2.1.4,1.1,1.7-.1.4-.3.7-.4,1,.5.3.8.3.6,1.1-.6.4-1.3,0-1.5,1-.3.5-1,1.4-.9,2,.6.3,1.4-.2,1.3,1-.3.6-1,.5-1.5.4ZM67.3,23.4c-.7-.7-1.2-1.1-1.8-1.5v-.3c.4,0,.5-.2,1,0,0,0,.8,0,.9-.1.5,0,1.4-.4,1.8-.7,1.1-1,2.3-2.7,3.1-4,.4-.4,1-1,1-1.5-.4,0-1.5,0-1.6.2-.8-.1-1.9-.6-1.8-1.4.5-.3.7-.4,1.4-.5,1.1.1,2.1.3,3.3.2,1-.2,2-.7,1.9.8-.4.5-.7.7-1.2,1-.5.4-1.7,1.5-1.8,2.2-.3.4-1,1.2-1.1,1.7.8.3,1.4-.5,2-.8.2.1.4,1.1.6,1.5-.9,1.1-2.2,1.1-3.4,1.6-1.2.7-2.6,1.1-3.8,1.8h-.4s0,0,0,0ZM80.5,24.5c-1.1-1.1.7-2.1,1.5-2.7.5-.2.8,0,1.2-.6,0,0,0,0,0,0-.4,0-.8,0-1.1-.1.1-.6.9-.8.7-1.5-.6-.3-.2-.7,0-1,.6-.2,1.6-.7,1.5-1.5-.8,0-.8,1.2-1.7,1-.3-.4-.2-.6-.6-.6-.7.6-1.2.9-2.2.6-.3-.2-.5-.6-.5-.9.5-.2,1.1,0,1.7-.3.3,0,2-.7,2.2-1.1,0-.1,0-.2,0-.3-.1,0-.2-.2-.3-.2-.7,0-1.3,0-1.1-.8.3-.1.5,0,.9,0,.4-.3.1-1.4,0-1.8,1.1-.5,1,.1.9,1.2q.2.1.5.2c.3-.4.4-.3.9-.4.2-.8,0-1.6,0-2.3.3-.3.6-.4,1-.1.2.4-.1,1.9-.4,2.5,0,.3-.3.7-.1,1.1.5,0,1.6-.4,1.4.8q-.1,0-.3,0c-1-.2-3,0-3.3,1.1,0,0,0,0,0,0,.6,0,1-.8,1.7-.6.3.6.1.7-.3,1.5,0,0,0,.2,0,.3.3.5-.1.6-.3,1.2,0,0,0,.8,0,1.1q-.5.5-.7.7c0,.9.7,1.9-.4,2.5-1.2-.6-.6-1.3-1.8-.3-.5.7-.4,1.5-1.3,1.6Z"/>
        <path class="cls-3" d="M85.4,22.6c-.5-.3-.8-1.1-.8-1.5q0,0,.3,0c.7,0,.8,0,1.3.7-.1.4-.3.8-.8.9h0ZM83.2,22c-.2-.1-.2-.2-.1-.3.2,0,.3-.2.4.1,0,0-.1.1-.2.2ZM84.1,15.1c0,0,0-.2,0-.2.6-.4.2-1.1.8-1.2.3.4-.1,1.4-.8,1.4ZM100.4,23.6c-.5-.4-1.8-2.3-1.3-2.7.7,0,2,.8,2.5,1.5,0,.6-.5,1.1-1.1,1.2h0ZM92.3,23c-.1,0,0-.2,0-.2.9-.7,2.2-1.3,3-2.2.1-.3.7-1.5.6-1.7-.8,0-2,.8-2.6,1.1-.9,0-1.6,1.1-2.3,1-.8-.4-1.5-.9-.6-1.5,1-.2,2-.8,3.1-1.1.2,0,.7-.2.8-.3.6-.1,1.4-.3,2-.6.5-2,0-4.2-.3-6.2.2-.2.6-.3.7.1.2,0,.8.7,1.1,1,.2.9,0,2.1-.2,3.1,0,.9-.2,1.1.6,1.2.8-.5,1-1.1,2-1.1,0,0,.1.2.2.3,0,.6-1.2,1.2-1.6,1.4-.7.3-1,.3-1.4,1-.3,1.3-.8,2.3-1.5,3.4-1,.7-2.4,1-3.5,1.1h0ZM111.7,11.3h2c0,.1-.2,2.8-.2,2.8-.4-.4-.8-.6-1.3-.2-.4-.1-.6-.2-.8-.4,0-.8,1-.6.7-1.5,0,0,0,0-.1,0,0-.3-.3-.5-.4-.6h0ZM111.1,16s0,0-.1,0c0-.4,0-.4-.2-.6-.1,0-.2,0-.3,0-.1.2-.2.3-.3.5-.4,0-.3-.2-.3-.4.3-.4.9-1.1,1.5-1.1.2.2.2.2.5.2.3.4-.4,1.2-.7,1.5h0ZM111.5,11.3c-.2.3-.4.7-.7,1-.6.9-.6.9-1.6,1-.6.3-.7.3-.1.9,0,.2-.2.3,0,.6.4,0,.5-.3,1-.4,0,.2-.5.8-.8.8-.4-.2-.5-.3-.8-.3v.3c.2.1.3.3.4.6-.2.4-.3.4-.7.4,0-1.2-1.1-1.5-1.4-2.2-.2-.2-.5-.4-.7-.6-.4.1-.3.3-.4.7.8,1.6.8,1.8,1.4,3.1.3.5.9-.3,1.1-.4.6,0,.8,0,1.2-.5h.3c0,.3,0,.4-.1.7h.4c-.1.8-3.8,1.2-4.3,1.2h0c.2-.2.5-.7.5-.8-.1-.4-.6-1.1-1-1.2q0,0-.2,1.1c0,.3-.2.7.3.8-.1.5-.4.4.2,1,1.3.5,3.6-.5,4.8-1.1.2-.2.3-.4.6-.3,0,.4-.5.6-.9.8q-.2.2-.5.4c0,.3,0,.2.4.3,0,0,.1,0,.3,0,1-.2,2.3-.9,2.3-2.2-.3,0-.6,0-.9-.1,0,0,0-.2,0-.3.5-.2,1.3-.8,1.4-1.4q.2-.4.3-.5v-.5c-.4-.4-.8-.6-1.2-.2-.4-.1-.6-.2-.8-.4,0-.8,1-.6.7-1.5,0,0,0,0-.1,0,0-.3-.3-.5-.4-.6,0,0-.2,0-.2,0ZM108.6,23.8c-.7-.3-1.1-.7-1.5-1.1,0,0,0-.1,0-.2.4,0,.9,0,1.4,0,.3-.4,0-1-.2-1.2-.7,0-1.6.5-2.2.8-.4,0-.6.1-.8.3-.4-.2-1.1-.8-1.1-1.1,1.1-.6,2.4-.8,3.7-1.2.3-.2,1.5-.5,1.8-.5.4-.2.7-.1,1.1.1,0,.1.2.2.3.3.3,1.1-1.7.6-1.9,1.3q.3.9.4,1.8c-.2.6-.9.6-1.3.7ZM113.2,28.1l.4-1c0,0,0-.2.1-.2,0,0,.1,0,.2,0v-.2h-.6v.2h0c0,0,.1,0,.1,0,0,0,0,.1,0,.2l-.3.7-.4-.8c0,0,0-.1,0-.2,0,0,0,0,.1,0h0v-.2h-.9v.2h0c0,0,.1,0,.1,0,0,0,0,0,0,.2l.6,1.1v.6c0,.2,0,.3-.2.3h0v.2h.9v-.2h0c-.2,0-.2,0-.2-.3,0,0,0-.5,0-.5ZM111,26.8h.3c.1,0,.2,0,.2,0,0,0,0,.2,0,.4h.1v-.7h-.1c0,0,0,0-.1,0h-1.3s0,0,0,0c0,0,0,0,0,0h0v.7c0,0,0,0,0,0,0-.2,0-.3,0-.4,0,0,0,0,.2,0h.3v1.8c0,.2,0,.3-.2.3h0v.2h1v-.2h0c-.2,0-.2,0-.2-.3v-1.8h0ZM108.8,26.8h0c.1,0,.2,0,.2.3v1.6c0,.2,0,.3-.2.3h0v.2h.8v-.2h0c-.1,0-.2,0-.2-.3v-1.6c0-.2,0-.3.2-.3h0v-.2h-.8v.2ZM107.3,29.1h0s0,0,0,0,0,0,0,0c.2,0,.3,0,.4,0,.4,0,.5-.3.6-.7,0-.2,0-.4-.2-.5-.1-.2-.3-.3-.4-.4-.2-.2-.3-.3-.3-.5,0-.2.1-.3.3-.3.2,0,.4.2.4.5h.1v-.6h-.1s0,0,0,0c0,0,0,0,0,0,0,0,0,0,0,0-.1,0-.2,0-.3,0-.3,0-.5.2-.5.7,0,.4.2.6.5.8.2.1.4.3.4.6,0,.2-.1.4-.3.4-.2,0-.4-.2-.5-.6h-.1v.7q0,0,0,0ZM105.5,26.7h.1c.3,0,.5.2.5.6,0,.4-.2.6-.5.6h-.1v-1.2ZM105.5,28h.2c0,0,.2.2.3.5,0,.2.1.3.2.3,0,0,.1.2.2.2,0,0,.2,0,.4,0h.2c-.1-.1-.3-.2-.4-.4,0-.1-.2-.3-.2-.4,0-.1-.1-.3-.2-.4.3-.1.4-.3.4-.6,0-.2,0-.3-.1-.4-.1-.2-.4-.3-.7-.3,0,0-.2,0-.4,0,0,0-.2,0-.3,0,0,0,0,0,0,0v.2h0c.2,0,.2,0,.2.3v1.6c0,.2,0,.3-.2.3h0v.2h.9v-.2h0c-.1,0-.2,0-.2-.3,0,0,0-.6,0-.6ZM104.2,26.8c.1,0,.2,0,.2.4h.1v-.6h-1.5v.2h0c.2,0,.2,0,.2.3v1.6c0,.2,0,.3-.2.3h-.1v.2h1.6v-.6s0,0,0,0c0,.3-.1.4-.3.4h-.5c0,0-.1,0-.1-.2v-.7h.4c.2,0,.3,0,.2.3h.1v-.8h-.1c0,.2,0,.3-.2.3h-.4v-.9h.6ZM101.6,29.1h.2l.6-1.9c0-.3.2-.4.3-.4h0v-.2h-.7v.2h0c.1,0,.2,0,.2.2l-.4,1.5-.4-1.3c0-.1,0-.2,0-.3,0,0,0,0,.2,0h0v-.2h-.9v.2h0c0,0,.1,0,.2,0,0,0,0,.1.1.3l.6,2h0ZM99.6,26.8h0c.1,0,.2,0,.2.3v1.6c0,.2,0,.3-.2.3h0v.2h.8v-.2h0c-.1,0-.2,0-.2-.3v-1.6c0-.2,0-.3.2-.3h0v-.2h-.8v.2ZM97.6,27.1l1.3,2h.1v-2.1c0-.1,0-.2.2-.2h0v-.2h-.7v.2h0c.1,0,.2,0,.2,0,0,0,0,.1,0,.3v1.2l-1.1-1.7h-.5v.2c0,0,.2,0,.2,0v1.8c0,.2,0,.2-.2.2h0v.2h.6v-.2c-.2,0-.3,0-.3-.3v-1.5h0ZM96.3,26.8h0c.2,0,.2.1.2.4v1c0,.5-.2.7-.5.7-.3,0-.5-.2-.5-.7v-1.2c0-.2,0-.3.2-.3h0v-.2h-.8v.2h0c.1,0,.2,0,.2.3v1.2c0,.6.3.9.8.9.5,0,.7-.4.8-1v-1c0-.2,0-.3.2-.3h0v-.2h-.7v.2h0ZM93.2,28.4h-.1s0,0,0,0c-.1.3-.2.4-.4.4h-.3c0,0-.1,0-.1-.2v-1.6c0-.2,0-.3.2-.3h0v-.2h-.9v.2h0c.1,0,.2,0,.2.3v1.6c0,.2,0,.3-.2.3h0v.2h1.4l.2-.7h0ZM90.5,27.9h-.5l.2-.9.3.9ZM90.6,28.2v.5c.2,0,.2.2.1.2,0,0,0,0-.1,0h0v.2h.9v-.2c-.1,0-.2-.1-.3-.4l-.5-2h-.4,0c0,.1-.5,2-.5,2,0,.3-.1.4-.3.4h0v.2h.7v-.2h0c-.1,0-.2,0-.2,0,0,0,0-.1,0-.2v-.5c.1,0,.7,0,.7,0ZM89,28.4c-.1.4-.3.6-.6.6-.4,0-.6-.4-.7-1.1,0-.7.2-1,.7-1.1.3,0,.4.2.5.6h.1v-.7h0s0,0,0,0c0,0,0,0,0,0-.1,0-.3-.1-.4-.1-.6,0-1,.5-1,1.3,0,.8.4,1.2,1,1.3,0,0,.2,0,.3,0,0,0,.1,0,.2,0,0,0,.1,0,.2,0,0-.2.1-.5.2-.7h-.1ZM86.1,26.8h0c.1,0,.2,0,.2.3v1.6c0,.2,0,.3-.2.3h0v.2h.8v-.2h0c-.1,0-.2,0-.2-.3v-1.6c0-.2,0-.3.2-.3h0v-.2h-.8v.2h0ZM84.2,27.1l1.3,2h.1v-2.1c0-.1,0-.2.2-.2h0v-.2h-.7v.2h0c.1,0,.2,0,.2,0,0,0,0,.1,0,.3v1.2l-1.1-1.7h-.5v.2c0,0,.2,0,.2,0v1.8c0,.2,0,.2-.2.2h0v.2h.7v-.2c-.2,0-.3,0-.3-.3v-1.5h0ZM82.6,28.9v.2h.9v-.2h0c-.1,0-.2,0-.2-.3v-1.6c0-.2,0-.3.2-.3h0v-.2h-.9v.2h0c.2,0,.2,0,.2.3v.6h-.9v-.6c0-.2,0-.3.2-.3h0v-.2h-.9v.2h0c.1,0,.2,0,.2.3v1.6c0,.2,0,.3-.2.3h0v.2h.9v-.2h0c-.1,0-.2,0-.2-.3v-.7h.9v.7c0,.2,0,.3-.2.3h0,0ZM80.9,28.4c-.1.4-.3.6-.6.6-.4,0-.6-.4-.7-1.1,0-.7.2-1,.7-1.1.3,0,.4.2.5.6h.1v-.7h0s0,0,0,0c0,0,0,0,0,0-.1,0-.3-.1-.4-.1-.6,0-1,.5-1,1.3,0,.8.4,1.2,1,1.3,0,0,.2,0,.3,0,0,0,.1,0,.2,0,0,0,.1,0,.2,0,0-.2.1-.5.2-.7h-.1ZM78.5,26.8c.1,0,.2,0,.2.4h.1v-.6h-1.5v.2h0c.2,0,.2,0,.2.3v1.6c0,.2,0,.3-.2.3h-.1v.2h1.6v-.6s0,0,0,0c0,.3-.1.4-.3.4h-.5c0,0-.1,0-.1-.2v-.7h.4c.2,0,.3,0,.2.3h.1v-.8h-.1c0,.2,0,.3-.2.3h-.4v-.9h.6ZM76.3,26.8h.3c.1,0,.2,0,.2,0,0,0,0,.2,0,.4h.1v-.7h-.1c0,0,0,0-.1,0h-1.3s0,0,0,0c0,0,0,0,0,0h0v.7c0,0,0,0,0,0,0-.2,0-.3,0-.4,0,0,0,0,.2,0h.3v1.8c0,.2,0,.3-.2.3h0v.2h1v-.2h0c-.2,0-.2,0-.2-.3v-1.8h0ZM74.2,28.1l.4-1c0,0,0-.2.1-.2,0,0,.1,0,.2,0v-.2h-.6v.2h0c0,0,.1,0,.1,0,0,0,0,.1,0,.2l-.3.7-.4-.8c0,0,0-.1,0-.2,0,0,0,0,.1,0h0v-.2h-.9v.2h0c0,0,.1,0,.1,0,0,0,0,0,0,.2l.6,1.1v.6c0,.2,0,.3-.2.3h0v.2h.9v-.2h0c-.2,0-.2,0-.2-.3v-.5ZM72.8,28.4h-.1s0,0,0,0c-.1.3-.2.4-.4.4h-.3c0,0-.1,0-.1-.2v-1.6c0-.2,0-.3.2-.3h0v-.2h-.9v.2h0c.1,0,.2,0,.2.3v1.6c0,.2,0,.3-.2.3h0v.2h1.4l.2-.7h0ZM69.2,27.7c0-.6.2-1,.6-1,.4,0,.6.5.6,1.2,0,.7-.2,1-.6,1-.4,0-.6-.5-.6-1.3ZM68.8,27.9c0,.8.4,1.2,1,1.2.6,0,1-.5,1-1.3,0-.8-.4-1.2-1-1.3-.6,0-1,.5-1,1.4ZM67.5,26.7c0,0,.1,0,.2,0,.2,0,.4.2.4.6,0,.4-.1.6-.4.6,0,0-.1,0-.2,0v-1.1ZM67.5,28h.1s.2,0,.2,0c.4,0,.7-.3.7-.7,0-.5-.3-.8-.7-.8-.1,0-.3,0-.4,0-.2,0-.3,0-.4,0v.2h0c.1,0,.2,0,.2.2v1.7c0,.2,0,.2-.2.2h0v.2h.9v-.2h0c-.2,0-.2,0-.2-.3v-.6h0ZM63.3,27.1l1.3,2h.1v-2.1c0-.1,0-.2.2-.2h0v-.2h-.7v.2h0c.1,0,.2,0,.2,0,0,0,0,.1,0,.3v1.2l-1.1-1.7h-.5v.2c0,0,.2,0,.2,0v1.8c0,.2,0,.2-.2.2h0v.2h.7v-.2c-.2,0-.3,0-.3-.3v-1.5h0ZM61.3,26.7h.1c.3,0,.5.2.5.6,0,.4-.2.6-.5.6h-.1v-1.2ZM61.3,28h.2c0,0,.2.2.3.5,0,.2.1.3.2.3,0,0,.1.2.2.2,0,0,.2,0,.4,0h.2c-.1-.1-.3-.2-.4-.4,0-.1-.2-.3-.2-.4,0-.1-.1-.3-.2-.4.3-.1.4-.3.4-.6,0-.2,0-.3-.1-.4-.1-.2-.4-.3-.7-.3,0,0-.2,0-.4,0,0,0-.1,0-.3,0,0,0,0,0,0,0v.2h0c.2,0,.2,0,.2.3v1.6c0,.2,0,.3-.2.3h0v.2h.9v-.2h0c-.1,0-.2,0-.2-.3v-.6h0ZM59.9,26.8c.1,0,.2,0,.2.4h.1v-.6h-1.5v.2h0c.2,0,.2,0,.2.3v1.6c0,.2,0,.3-.2.3h-.1v.2h1.6v-.6s0,0,0,0c0,.3-.1.4-.3.4h-.5c0,0-.1,0-.1-.2v-.7h.4c.2,0,.3,0,.2.3h.1v-.8h-.1c0,.2,0,.3-.2.3h-.4v-.9h.6ZM57.7,26.8h.3c.1,0,.2,0,.2,0,0,0,0,.2,0,.4h.1v-.7h-.1c0,0,0,0-.1,0h-1.3s0,0,0,0c0,0,0,0,0,0h0v.7c0,0,0,0,0,0,0-.2,0-.3,0-.4,0,0,0,0,.2,0h.3v1.8c0,.2,0,.3-.2.3h0v.2h1v-.2h0c-.2,0-.2,0-.2-.3v-1.8ZM55.1,29.1h0s0,0,0,0c0,0,0,0,0,0,.2,0,.3,0,.4,0,.4,0,.5-.3.6-.7,0-.2,0-.4-.2-.5-.1-.2-.3-.3-.4-.4-.2-.2-.3-.3-.3-.5,0-.2.1-.3.3-.3.2,0,.4.2.4.5h.1v-.6h-.1s0,0,0,0c0,0,0,0,0,0,0,0,0,0,0,0-.1,0-.2,0-.3,0-.3,0-.5.2-.5.7,0,.4.2.6.5.8.2.1.4.3.4.6,0,.2-.1.4-.3.4-.2,0-.4-.2-.5-.6h-.1v.7c0,0,0,0,0,0ZM54.2,26.8c.1,0,.2,0,.2.4h.1v-.6h-1.5v.2h0c.2,0,.2,0,.2.3v1.6c0,.2,0,.3-.2.3h-.1v.2h1.6v-.6s0,0,0,0c0,.3-.1.4-.3.4h-.5c0,0-.1,0-.1-.2v-.7h.4c.2,0,.3,0,.2.3h.1v-.8h-.1c0,.2,0,.3-.2.3h-.4v-.9h.6ZM51.6,27.4v-.4c-.2,0-.2,0-.2-.1,0,0,0,0,0,0h.1c0,0,0,0,0,0,0,0,0,0,0,.1l-.2.4h0ZM51,29.1h.2l.3-.9.3.9h.2l.5-2c0-.2.1-.4.3-.4v-.2h-.5v.2c.2,0,.2.1.1.3l-.4,1.4-.3-.9.2-.6c0-.2.1-.3.2-.3v-.2h-1.2v.2c0,0,.1,0,.2.3l.3,1-.2.5-.5-1.5c0,0,0-.1,0-.2,0,0,0,0,0,0v-.2h-.7v.2h0c0,0,.1,0,.1,0,0,0,0,.1.1.3l.7,2h0ZM49,28.9v.2h.9v-.2h0c-.1,0-.2,0-.2-.3v-1.6c0-.2,0-.3.2-.3h0v-.2h-.9v.2h0c.2,0,.2,0,.2.3v.6h-.9v-.6c0-.2,0-.3.2-.3h0v-.2h-.9v.2h0c.1,0,.2,0,.2.3v1.6c0,.2,0,.3-.2.3h0v.2h.9v-.2h0c-.1,0-.2,0-.2-.3v-.7h.9v.7c0,.2,0,.3-.2.3h0ZM46.7,26.8h.3c.1,0,.2,0,.2,0,0,0,0,.2,0,.4h.1v-.7h-.1c0,0,0,0-.1,0h-1.3s0,0,0,0c0,0,0,0,0,0h0v.7c0,0,0,0,0,0,0-.2,0-.3,0-.4,0,0,0,0,.2,0h.3v1.8c0,.2,0,.3-.2.3h0v.2h1v-.2h0c-.2,0-.2,0-.2-.3v-1.8h0ZM44,26.7h.1c.3,0,.5.2.5.6,0,.4-.2.6-.5.6h-.1v-1.2ZM44,28h.2c0,0,.2.2.3.5,0,.2.1.3.2.3,0,0,.1.2.2.2,0,0,.2,0,.4,0h.2c-.1-.1-.3-.2-.4-.4,0-.1-.2-.3-.2-.4,0-.1-.1-.3-.2-.4.3-.1.4-.3.4-.6,0-.2,0-.3-.1-.4-.1-.2-.4-.3-.7-.3,0,0-.2,0-.4,0,0,0-.1,0-.3,0,0,0,0,0,0,0v.2h0c.2,0,.2,0,.2.3v1.6c0,.2,0,.3-.2.3h0v.2h.9v-.2h0c-.1,0-.2,0-.2-.3,0,0,0-.6,0-.6ZM41.4,27.7c0-.6.2-1,.6-1,.4,0,.6.5.6,1.2,0,.7-.2,1-.6,1-.4,0-.6-.5-.6-1.3h0ZM41,27.9c0,.8.4,1.2,1,1.2.6,0,1-.5,1-1.3,0-.8-.4-1.2-1-1.3-.6,0-1,.5-1,1.4ZM39,27.1l1.3,2h.1v-2.1c0-.1,0-.2.2-.2h0v-.2h-.7v.2h0c.1,0,.2,0,.2,0,0,0,0,.1,0,.3v1.2l-1.1-1.7h-.5v.2c0,0,.2,0,.2,0v1.8c0,.2,0,.2-.2.2h0v.2h.7v-.2c-.2,0-.3,0-.3-.3v-1.5h0Z"/>
        <path class="cls-1" d="M23.8,10.5c5.4,0,9.8,4.4,9.8,9.8s-4.4,9.8-9.8,9.8h0v-.4c5.2,0,9.4-4.2,9.4-9.4s-4.2-9.4-9.4-9.4v-.4h0ZM23.8,30c-5.4,0-9.8-4.4-9.8-9.8s4.4-9.8,9.8-9.8v.4c-5.1,0-9.4,4.2-9.4,9.4s4.2,9.4,9.4,9.4v.4Z"/>
        <path class="cls-1" d="M31.7,22.2h0c0-.1,0,0,0,0h0ZM31.7,21.8h0q0-.1,0-.1s0,0,0,0h0v.4h-.1c0,0,0-.1,0-.1h0s0,0,0,0ZM31.7,21.4h0c0,0,0,0,0-.1,0,0,0,0,0-.1h0c0-.1,0-.1-.1-.1h0c0-.1,0-.1,0-.1.1,0,.1.1.1.2s0,0,0,.1h0c0,.1,0,.1,0,.1h0c0,0-.2,0-.2,0h0ZM31.7,20.6h0c0-.1.1-.1.1-.2,0,0,0-.1,0-.1h0q0,0,0,0h-.1c0-.1.1-.1.1-.1,0,0,0,0,0,0,0,0,0,0,0,0h0v.4c0,0,0,.1,0,.2,0,0-.1,0-.2,0ZM31.7,19.3h0c0-.1,0-.1,0-.1,0,0,0,0,0,0h0c0,0,0,0,0,0v.7c.1,0-.1,0-.1,0h0s0,0,0,0c0,0,0,0,0-.2v-.2h0s-.1,0-.1,0ZM31.7,18.7h0c0,0,0,0,0-.1h0s0,0,0,0v.3c0,0,0,0,0,0,0,0,0,0,0,0,0,0,0,0,0,0ZM31.7,18.3h0c0,0,0,0,0,0h0ZM31.7,18.3h0c0,0,0,0,0,0,0,0,0,0,0,0h-.1s-.3.3-.3.3h0c0-.1.2-.3.2-.3h0q0-.1,0-.1s0,0,0,0h0s0,.3,0,.3ZM31.7,18.7h0c0,0,0,0,0,0h-.4c0-.1.4,0,.4,0h0s0,0,0,0h0ZM31.7,19.1h0c0,.1-.2.1-.2.1v.2s0,0,0,0c0,0,0,0,0,0h0-.3c0,0,0,0,0,0h0s0,0,0,0h0c0-.1,0-.3,0-.3h-.2s0-.1,0-.1c0,0,.4,0,.4,0ZM31.7,20h0c0,.1-.2.1-.2.1h0c0,.2,0,.3.2.3h0c0,.1,0,.1,0,.1,0,0,0,0,0,0,0,0,0-.1,0-.2l-.2.2h0c0-.1.2-.3.2-.3h0s-.2,0-.2,0h0c0-.1.4-.1.4-.1ZM31.7,20.9h0c0,.1,0,.1,0,.1,0,0,0,0,0,.1h0c0,.1-.1.2-.2.2h0c0-.1,0-.2,0-.2t0,0h0c0,0,0-.1,0-.1,0,0,0,0,.1,0,0,0,0,0,0,0ZM31.7,21.3h-.1s.1,0,.1,0h0s0,0,0,0ZM31.7,21.7h0c0,.1,0,.1,0,.1h-.4v-.2h.4s0,0,0,0ZM31.7,22.1h0c0,.1-.1.7-.1.7h-.2c0,0,.1,0,.1,0,0,0,0,0,0-.1,0,0,0,0,0,0h0c0,0-.3-.1-.3-.1h0c0-.1.3,0,.3,0h0v-.2s0,0,0,0h0s.2,0,.2,0ZM31.3,23.6h0c0-.1,0-.1,0-.1h0ZM31.3,23.2h0c0-.1,0-.1,0-.1h0s0,0,0,0h0s0,0,0,0v.3h-.1,0q0,0,0,0s0,0,0,0h0s0,0,0,0ZM31.3,20.9h0c0,0,0,0,0,0h0s0,0,0,0h0ZM31.3,19.8h0s0,0,0,0h0s0,0,0,0ZM31.3,17.9h0c0-.1.1-.1.1-.1,0,0,0,0,0,0,0,0,0,0,0-.1h0v.3c.1,0,.1,0,.1,0q0,0,0-.1s0,0-.1,0c0,0-.1,0-.1,0ZM31.3,17.4h0c0,0,0-.1,0-.1,0,0,0,0,0-.1h0s.1.3.1.3c0,0,0,0,0,0,0,0,0,0-.1,0h0ZM31.3,17.3h0c0,0,0,0,0,0l-.5.3h0c0-.1.3-.8.3-.8h-.3c0,.1,0,0,0,0l.4-.2h0c0-.1.1,0,.1,0l-.4.7.4-.2s0,0,0,0ZM31.3,17.8h0c0,.1-.3.2-.3.2,0,0-.1,0-.1,0,0,0,0,0,0,.1h0v-.3c-.1,0,0,0,0,0,0,0,0,.1,0,.1,0,0,0,0,.1,0h.4c0-.1,0-.1,0-.1ZM31.3,18.4h0c0,.1-.1.3-.1.3h.1c0,0-.4,0-.4,0h0s.4-.3.4-.3h0ZM31.3,19.2h0c0,.1-.1.1-.1.1h0s0,0,0,0h0s0,.1,0,.1h0c0,.1,0,.1,0,.1h0q0,0,0,0h0s-.2,0-.2,0v-.7c0,0,0,0,0,0h0q0,.1,0,.1h.1ZM31.3,20h0c0,.1,0,.1,0,.1,0,0,0,0-.1,0,0,0,0,0,0,.1h0v-.4h0s0,0,0,0c0,0,0,0,.1,0h0ZM31.3,20.4h0c0,.1,0,.2,0,.2,0,0,0,0,0,0,0,0,0,0,0,.1h0v-.2h.2c0-.1,0-.1,0-.1ZM31.3,20.8h0c0,0,0,0,0,0,0,0-.1.1-.1.2s0,0,0,.1c0,0,0,0,.1,0h0c0,.1,0,.1,0,.1,0,0-.1,0-.1-.1,0,0,0-.1,0-.2h0c0,0,0-.1,0-.1h0c0,0,0,0,0,0h0s.2,0,.2,0ZM31.3,21.6h0c0,.1-.3.1-.3.1,0,0,0,0,0,0h0v-.4c0,0,0,.1.1.1,0,0,0,0,.1,0,0,0,.1,0,.1,0ZM31.3,22.2h0c0,.1-.3,0-.3,0h-.1s0,0,0,0h0v-.3h.1c0,0,0,.1,0,.1,0,0,0,0,.1,0h.3ZM31.3,23h0c0,.1-.3.2-.3.2l.2.3s0,0,0,0c0,0,0,0,0,0h0c0,.1,0,.3,0,.3h0c0-.1,0-.2,0-.2l-.2-.3h-.2v-.2h0s.2.1.2.1h.3ZM30.7,16.5h0c0,0,.1-.1.1-.1h0c0,0,0-.1,0-.1h0c0,0,0,0,0,0v.2c.1,0,.1,0,.1,0h0c0,0,0,0-.1,0,0,0,0,0,0,0,0,0-.1,0-.1,0ZM30.7,16h0c0-.1.1,0,.1,0h0s0,0,0,0ZM29.2,15.2s0,0,0,0c0,0,0,0,0,0h0s.4-.4.4-.4h0s0,0,0,0c0,0,0,0,0,0h0s.3.2.3.2h-.1s0,0,0,0h0c0,0-.4.4-.4.4h0s0,0,0,0c0,0,0,0,0,0h0c0,0,0,.1,0,.1h.1c0,.1.2.1.2.1h0s0,0,0,0h-.2c0,.1-.4-.4-.4-.4,0,0,0,0,0,0ZM30.7,15.8h0c0-.1,0-.1,0-.1,0,0,0,0,0,0,0,0,0,0,0,0,0,0,0,0,0,0h-.3c0,.1,0,.2,0,.2,0,0,0,0,0,0,0,0,0,.1,0,.2,0,0,0,0,0,.1,0,0,0,0,0,.1,0,0,0,0,0,0,0,0,0,0,0,0,0,0,.1,0,.2,0h.2v-.2h-.2c0,.2,0,.2-.1.2h0c0,0-.1,0-.2-.1,0-.1,0-.2,0-.3,0,0,0,0,.1,0h.3c0-.1,0-.2,0-.2h0s0-.1,0-.1ZM30.7,16.9h0c0,0-.1.1-.1.1h0q0,0,0,.1h0c0,0,0,0,0,0v-.3c-.1,0,0,0,0,0,0,0,0,0,0,0s0,0,0,0h0s.1,0,.1,0ZM30.7,17.5h0c0,.1,0,.1,0,.1h0s0-.1,0-.1h0ZM30.7,23h0c0,.1,0,.1,0,.1,0,0,0,0,0,0t0,0h0s0,0,0,0v-.3c.1,0,.2,0,.2,0,0,0,0,0,0,0t0,0ZM29.2,14.9l.2-.6h0s-.2,0-.2,0h0c0,0,0,0,0,0h0v.5h0ZM29.1,15.2h0c0,0,0,0,0,0h0ZM29.2,14.3h0c0,0-.3.2-.3.2l.2.2v-.2c0,0,0,.4,0,.4h0q0,.2,0,.2s0,0,0,0h0l-.2-.2s0,0,.1,0c0,0,0,0,0,0h0c0-.1-.2-.3-.2-.3h-.1s0,0,0,0h0c0,0,0,0,0,0l.5-.2ZM28.6,13.8h0c0,0,0,0,.1,0h0s0,0,0,0h0s-.1.3-.1.3h0c0-.1,0-.1,0-.2,0,0,0,0,0-.1,0,0,0,0,0,0ZM28.6,13.7h0s0,0,0,0c0,0-.2,0-.2,0-.1,0-.1,0-.2.1,0,0-.1.2-.1.3,0,0,0,.1,0,.1h.1c0,.1.1.2.3.1h0s0,0,0,0c-.1,0-.2,0-.3,0h0v-.6c0,0,0-.1.1-.1,0,0,.2,0,.3,0,0,0,.1,0,.2.1t0,0ZM28.6,14.6h0c0,.1,0,.1,0,.2h0s-.2-.1-.2-.1h0s0,0,0,0h.1s0,0,0,0h0ZM28,13.3h0c0,0,.1,0,.1,0h-.1ZM28,13.2h0c0,0,0,0,0,0,0,0,0,0,0,.1l-.3.4s0,0,0,0c0,0,0,0,0,.1h0s-.1,0-.1,0h0c0-.1,0-.2,0-.2l.2-.4c0,0,0,0,0-.1s0,0,0,0h0s.2,0,.2,0ZM28,13.8h0c0,.1,0,.2,0,.3s0,.1.1.2v-.5h0ZM27.6,13.1s0,0,.1,0h0s-.2-.1-.2-.1c0,0,0,.1,0,.1ZM27.6,13h0c0,.1,0,.2,0,.2l-.3.6h0l-.2-.9-.2.4h0c0,0,0,.1,0,.1,0,0,0,0,0,0h0s-.2,0-.2,0h0c0,0,0,0,0,0h0s0-.1,0-.1l.3-.5h0s0-.1,0-.1h.2c0,0,.1.8.1.8l.2-.4h0q0,0,0-.1s0,0,0-.1h.1s0,0,0,0ZM27.6,13.8h0c0,.1-.1,0-.1,0h0q0,0,.1,0s0,0,0,0ZM26.6,12.6h0s.1,0,.1,0h-.1,0ZM26.6,12.6h0c0,0,0,.1,0,.1l-.2.5h0c0,.1,0,.1,0,.1h0s-.4,0-.4,0h0s0,0,0,0c0,0,0,0,0,0v-.2c0,0-.3-.1-.3-.1v.3c-.1,0-.1,0,0,.1,0,0,0,0,0,0h0s-.3,0-.3,0h0s.1,0,.1,0c0,0,0,0,0-.1l.2-.5s0,0,0,0c0,0,0,0,0,0h0s.4,0,.4,0h0s0,0,0,0c0,0,0,0-.1.1v.2c0,0,.3.1.3.1v-.2c.1,0,.1-.1.1-.1,0,0,0,0-.1,0h0s.2,0,.2,0ZM26.6,13.4h0s0,0,0,0c0,0,0,0,0,0ZM25.7,12.4h0c0-.1,0-.1,0-.1h0ZM25.7,12.3v.3h0c0-.1,0-.1,0-.2,0,0,0,0,0,0,0,0,0,0,0,0-.1,0-.2,0-.3,0s0,.1-.1.3c0,.1,0,.2,0,.3,0,0,0,0,.1,0,0,0,0,0,.1,0s.1,0,.2,0h0s0,0,0,0h0c-.1.1-.2.1-.4.1-.1,0-.2,0-.3-.1,0-.1-.1-.2,0-.3,0,0,0-.1,0-.2,0,0,0-.1.2-.2,0,0,.1,0,.2,0,0,0,.1,0,.2,0h.1,0ZM22.2,12.2h0s0,.1,0,.1l.3.3v.2s0,0,0,0c0,0,0,0,0,0h0s0,0,0,0h0s.4,0,.4,0h0s0,0,0,0c0,0,0,0,0,0,0,0,0,0,0,0h0s0-.3,0-.3l.2-.3s0,0,0,0t0,0s0,0,0,0h0s-.3,0-.3,0h0s0,0,0,0c0,0,0,0,0,0s0,0,0,0v.3c-.1,0-.3-.2-.3-.2h0c0,0,0-.1,0-.1h0s-.3,0-.3,0h0s0,0,0,0ZM24,12.9h.1s0,0,0,0h0s0-.5,0-.5h0q0-.1,0-.1h0s.7,0,.7,0v.2h0c0-.1,0-.1-.1-.1h-.3v.3h.3s0,0,0,0h0s0,0,0,0v.3s0,0,0,0t0,0h-.3s0,.3,0,.3h0c0,0,0,0,0,0h.1s0,0,0,0c0,0,0,0,0,0,0,0,0,0,0,0,0,0,0,0,0,0h0s0,0,0,0v.2c0,0-.8,0-.8,0h0ZM23.2,12.1h.7v.2h0c0,0,0-.1,0-.1,0,0,0,0-.1,0h-.1v.7s0,0,0,0h0s-.4,0-.4,0h0s0,0,0,0v-.7h0s0,0,0,0h-.1s0,0,0,.1h0s0,0,0,0v-.2h0ZM22.2,12.2h0s0,0,0,0h0ZM22.2,12.8v.3l-.7.2h0c0,0,0,0,0,0t0,0h0c0,0-.1-.6-.1-.6h0c0,0,0,0,0,0h0s.3-.1.3-.1h0c0,0,0,0,0,0t0,0h0c0,0,.1.6.1.6h0s0,0,0,0h.1s0,0,0,0c0,0,.1,0,.1,0,0,0,0,0,0-.1h0s0,0,0,0ZM21.4,13.2v-.2.2ZM21.4,12.4h0s0,0,0,0h0s0,0,0,0h0ZM21.4,13v.2h0c0,.1-.1.2-.2.3h-.2c0,0,.1,0,.1,0,0,0,.1,0,.1-.1v-.2s0-.1,0-.2c0,0,0-.1-.1-.2,0,0,0,0-.1,0h0c0,0,.1,0,.1,0,0,0,.1,0,.2.1,0,0,0,0,.1.1t0,0h0ZM20.9,12.6h0c0,0-.1,0-.1,0-.1,0-.1.1-.2.2,0,0,0,.1,0,.3,0,0,0,.1,0,.1,0,0,0,.1.1.1h0c0,0-.1,0-.1,0-.1,0-.2-.1-.2-.3,0,0,0-.1,0-.2s0-.1,0-.2c0,0,.1-.1.2-.1,0,0,.1,0,.1,0ZM20.1,13.9h0q0,0,0-.1v-.3h0c.1,0,.1-.1,0-.3,0,0,0,0-.1-.1h0c0,0,.1,0,.1,0,0,0,.1,0,.1.1,0,0,0,0,0,.1,0,0,0,.1,0,.1,0,0,0,0-.1.1h0s.1.2.1.2t0,0h.1s-.3.1-.3.1ZM20.1,13h0c0,0,0,.1-.1.1h0c0,.1.1.4.1.4h0s0,.3,0,.3l-.3-.5h0q0-.1,0-.1s0,0,0,0h0s.2-.1.2-.1c0,0,0,0,.1,0,0,0,0,0,0,0ZM20.1,13.9h0s0,0,0,0h0s0,0,0,0ZM18.7,14.8h0c0-.1.1-.1.1-.1,0,0,0,0,.1,0h0s-.1.2-.1.2h0ZM18.7,14.2v-.3l.7.2-.3-.3h0c0,0,0,0,0,0,0,0,0,0-.1,0h0s.2-.2.2-.2t0,0s0,0,0,.1h0c0,0,.4.6.4.6h0l-.8-.2.3.4h0q0,.1,0,.1s0,0,0,0h0s-.2.2-.2.2h0c0,0,0-.1,0-.1,0,0,0,0,0,0h0s-.2-.4-.2-.4ZM18.7,13.9v.3h-.1c0-.1,0-.1,0-.1,0,0,0,0-.1,0h0s.2-.2.2-.2h0ZM18.7,14.7h0c0,.1-.4,0-.4,0h0c0,0,.1.2.1.2h0c0,0,0,0,.1,0l-.3.3h0c0,0,0,0,0-.1s0,0,0,0v-.2c-.1,0-.1-.2-.1-.2h0s0,0,0,0c.1,0,.1-.2,0-.3,0,0,0,0-.1,0h0c.1-.1.1-.1.2,0,0,0,0,0,0,0,0,0,0,0,0,0,0,0,0,.1,0,.1h.3c0,0,0,0,0,0ZM18.2,15.5h0c0-.1,0-.3,0-.3v.3h0ZM18.2,14.3h0c0,.1,0,.1,0,.1,0,0,0,0-.1,0h0s0,0,0,0h0s.2.2.2.2v.2l-.3-.2s0,0,0,0,0,0,0,0h0l.3-.3c0,0,.1,0,.2-.1h0ZM18.2,15.2v.3l-.3.4h0q0,0,0-.1s0,0,0,0h0s-.3-.3-.3-.3v-.2h.2c0,.1.1,0,.1,0,0,0,0,0,0,0,0,0,0,0,0,0,0,0,0,0,0,0l.3.2h0s0,0,0,0c0,0,0,0,0,0h-.1c0,.1.2.3.2.3h0s0,0,0,0h0s0-.1,0-.1c0,0,0,0,0,0t0,0h0c0-.1,0-.2,0-.2h0s0,0,0,0h0ZM17.5,16.2h0c0-.1,0-.1,0-.1,0,0,0,0,0,0,0,0,0,0,.1,0h0s0,0,0,0l-.2.3h0c0,0,0-.1,0-.1,0,0,0,0,0,0ZM17.5,15.1h0c0-.1.1-.2.1-.1h0-.1c0-.1-.1,0-.1,0h0c0,0,0,0,0,0ZM17.5,15h0c0,0,0,.1,0,.1h0c0,0,0,.1,0,.1h0v.2h0s0,0,0,0c0,0,0,0,0,0,0,0,0,0,0,0h0l.3-.3ZM17.5,16.1h0c0,.1,0,.1,0,.1l-.4-.3h0c0-.1.5.1.5.1ZM17,23.3h0c0-.1,0-.1,0-.1,0,0,0,0,0,0h0s0,0,0,0v.3c.1,0,0,0,0,0q0,0,0,0h0ZM17,17.4h0c0-.1,0-.1,0-.1h0ZM17,17.1h0c0,0,0,0,0,0,0,0,.1,0,.2-.1,0,0,0,0,0-.1,0,0,0,0-.1-.1h-.1s0-.1,0-.1h.1s0,0,0,0c0,0,.1,0,.1.1,0,0,0,.1,0,.2,0,0,0,0,0,.1h0c0,.1-.1,0-.1,0h0ZM17,15.7h0c0-.1.1-.2.1-.2h.2c0,.1,0,.1,0,.1h0s-.1,0-.1,0c0,0,0,0,0,0,0,0,0,0,0,0ZM17,15.6v.3h0c0,0,0,0,0,0,0,0,0,0,0,0,0,0,0,0,0,.1h0c0,0,0,.1,0,.1h0s-.2-.1-.2-.1l.3-.5h0ZM17,16.5v.2h-.1c0,0,0,.1,0,.1,0,0-.1,0-.1,0s0,0,0,0,0,0,0,0c0,0,0-.2,0-.3,0,0,0,0,0,0h0s0,0,0,0h0s0,0,0,0h.3c0,0,0,.1,0,.1h-.3v.2s0,0,0,0c0,0,0,0,.1,0,0,0,0,0,.1,0h.1c0,0,0,0,0-.1ZM17,17h0c0,0-.1,0-.1,0h0s.1,0,.1,0ZM17,17.3h0c0,.1-.2.7-.2.7h0q0-.1,0-.1h-.4v-.3h.1s0-.1,0-.1t0,0s0,0,0,0h0s.3,0,.3,0h0s0,0,0,0c0,0,0,0,0,0,0,0,0,0,0,0v.2c0,0,.2.1.2.1h0s0,0,0,0h0s0-.1,0-.1h0c0,0,0-.1,0-.1,0,0,0,0,0,0,0,0,0,0,0,0h0s0,0,0,0c0,0,.1.1.1.1ZM17,23.2s0,0,0,0h0s-.4.2-.4.2l.4-.8h0s-.5.2-.5.2h0c0,0,.3,0,.3,0l-.3.5v.4h0s0,0,0-.1h0s.5-.2.5-.2h0s0,0,0,0c0,0,0-.1,0-.1ZM16.4,22.6v-.2c0,0,.1,0,.2,0,0,0,0,0,.1-.1,0,0,0-.1,0-.1,0,0,0-.1,0-.1,0,0-.1,0-.2,0h0c0-.1.1-.1.1-.1.1,0,.2.1.2.3,0,.1,0,.2,0,.3,0,.1-.2.2-.3.2h0ZM16.4,21.6h0c0-.1,0-.1,0-.1,0,0,0,0,0,0,0,0,0,0,0,0h0s0,.3,0,.3h0s0,0,0,0c0,0-.1,0-.1,0ZM16.4,21.2v-.2s0,0,0,0h0c0-.1,0-.1,0-.1v.2s-.1.1-.1.1ZM16.4,20.5h0c0-.1,0-.1,0-.1,0,0,0,0,0,0h0s0,0,0,0v.4h0q0,0,0-.1h0ZM16.4,19.9h0c0-.1,0-.1,0-.1,0,0,0,0,0,0v.3h0s0,0,0,0c0,0,0,0,0,0ZM16.4,19.4h0c0-.1,0-.1.1-.1,0,0,0,0,0,0h0v.4h0c0,0,0-.1,0-.1,0,0,0,0,0,0ZM16.4,18.7v-.2l.3.2h-.3s0,0,0,0ZM16.4,18.4h0c0-.1.1-.1.1-.1h-.1c0-.1.4,0,.4,0,0,0-.4,0-.4,0ZM16.4,17.1h0c0,0,.1,0,.1,0h0s0,0,0,0ZM16.4,17h0c0,0,0,.1-.1.2h0c0,.1,0,.2,0,.2h0s0,0,0,0h.1v.2h-.1c0,0,0,0,0,0,0,0,0,0,0,0,0,0,0,0,0,0h0s.3-.7.3-.7c0,0,0,0,0,0ZM16.4,18.1h0c0,0-.3-.1-.3-.1h0s0,0,0,0t0,0h0s0-.1,0-.1h0c0-.1,0-.1,0-.1h0c0,0,0,.1,0,.1h0s.3.2.3.2h0ZM16.4,18.2h0c0,.1-.2.1-.2.1h.2v.2l-.3-.2h-.1c0-.1,0-.1,0-.1,0,0,.4,0,.4,0ZM16.4,18.6h0c0,.1-.4.2-.4.2h0c0-.1.4-.2.4-.2h0ZM16.4,19.2h0c0,.1-.3.1-.3.1v.4s.3,0,.3,0h0c0,.1,0,.1,0,.1h-.4v-.2h.1s0-.4,0-.4h-.1c0-.1.4-.1.4-.1h0ZM16.4,20.3h0c0,.1-.4.1-.4.1h0c0-.1.4-.1.4-.1,0,0,0,0,0,0ZM16.4,21v.2l-.2.2h0c0,0,.2,0,.2,0h0c0,.1-.4.2-.4.2h0c0-.1.2-.1.2-.1h0c0-.2,0-.3-.2-.3h0c0-.1,0-.1,0-.1,0,0,0,0,0,0,0,0,0,0,0,.1l.3-.2h0ZM16.4,21.8h0c0,.1,0,.1-.1.2,0,0-.2,0-.2.1,0,0,0,0,0,.1v-.2h0c0-.1.1-.1.2-.1,0,0,.1,0,.2,0ZM16.4,22.5v.2h-.1c0,0-.1,0-.2-.1,0,0,0,0,0,0h0s0,0,.2,0c0,0,.1,0,.3,0h0ZM16.4,22.9h0c0,0,0,0,0,0h0s0,0,0,0c0,0,0,0,0,.1h0v-.3c-.1,0,0,0,0,0t0,0s0,0,.1,0h.1s0,0,0,0ZM16.4,23.3v.4-.2c0,0,0-.2,0-.2ZM15.9,17.9h0c0,.1,0,.1,0,.1h0c0-.1,0-.1,0-.1ZM15.9,18.3h0q0,.1,0,.1s0,0,0,0h0v-.3h.1s0,0,0,0h0s0,0,0,0ZM15.9,18.7h0c0,.1-.1.1-.1.1,0,0,0,0,0,0h0s0,0,0,0v-.3c0,0,0,0,.1,0h.1,0ZM15.9,19.2h0c0,.1-.2.1-.2.1,0,0,0,0,0,.1h0v-.4h0s0,0,0,.1h.2ZM15.9,19.7h0c0,.1-.3.1-.3.1,0,0,0,0,0,0h0v-.3h0c0,0,0,.1.1.1h.1,0ZM15.9,20.4h0c0,.1-.3.1-.3.1h0c0,.2,0,.2,0,.2t0,0h0c0,0-.2,0-.2,0v-.7s.2,0,.2,0h0s0,0,0,0t0,.1h0c0,.1.3.1.3.1ZM15.9,21h0c0,.1,0,.1,0,.1,0,0-.1,0-.1,0,0,0,0,.1,0,.1h0c0,0,0,0,0,0h.1c0,.1,0,.1,0,.1,0,0,0,0,0,0,0,0,0,0,0,0v-.3s0,0,0,0c0-.1,0-.2,0-.3s0-.1.2-.1h0,0ZM15.9,22v.2s0,0,0,.1h0c0,0,0,0,0,0,0,0,0-.2,0-.3,0,0,0,0,0-.1h0ZM30,26.5v-.6s0,0,0-.1c0,0,0-.1,0-.1,0,0,0-.1,0-.1,0-.1,0-.1.1-.2h0s.1,0,.1,0h0c0,0,0,0,0,.1,0,0,0,.1,0,.1s0,0,0,.1c0,0,0,0,.1,0,0,0,.1,0,.1,0s0,0,0,0c0,0,0,.1,0,.3,0,0,0,0-.1,0,0,0,0,0-.1,0h-.2s0,0,0-.1c0,0,0,0,0,0h0c0,0-.1-.1-.2-.2,0,0,0,0,0,.1,0,0,0,0,0,.1,0,0,0,0,0,.1,0,0,0,.1,0,.1s0,.1,0,.1c0,0,0,0,0,0ZM30,25.4s.1,0,.1,0c0,0,.1-.3.1-.3,0-.1,0-.3,0-.3,0,0,0-.1,0-.1t0,0s0,0,0,.1v.3s0,0,0,0c0,0,0,0,0,.1v.2ZM30,24.8v.3s0,0,0,0v.2s0,0,0,0h0c0,.1,0,.1,0,.2s0,0,0,0h0c0,.1-.1.2-.1.3,0,0,0,0,0,0v-.4c0-.1.1-.3.1-.4,0,0,0-.1,0-.2,0,0,0,0,0,.1,0,0,0,0,0,0,0,0,0-.1,0-.1h0s0,0,0,0t0,0h0c0-.1,0-.1,0-.1,0,0,0,0,0,0,0,0-.1-.4-.1-.4,0,0,0,0,0,0v-.3h0s0,0,0,0h0c.1.2.2.4.1.6,0,0,0,0,0,0ZM30,25.3h0c0,.1,0,0,0,0ZM30,25.9h0c0,.2-.1.3-.2.4h0c0,.1,0,.3,0,.3h0s0,0,.1,0c0,0,0-.6,0-.6ZM29.2,25.9s.1,0,.1,0c0,0,0-.2,0-.2,0,0-.1,0-.1,0v.2ZM29.6,24.2v.3c0,0-.1,0-.1,0,0,0,0,.3,0,.3,0,0,0,0,0,0h0c0,.1,0,.1,0,.1,0,0,0,0,0,.1,0,0,0,0,0,.1,0,0,0,0,0,0,0,0,0,0,0,0,0,0,0,.1,0,.1,0,0,0,0-.1,0t0,0v-.3h0s0,0,.1,0c0,0,0-.1,0-.1,0,0,0,0,0,0h0s0,0,0,0c0,0,0,0,0-.1,0,0,0,0,0,0,0,0,0,0,0-.1,0,0,0,0,0,0,0,0,0,0,0,.1,0,0,0,.1-.1,0v-.8s0,0,0,0c0,0,0,0,0,0h0c0,.2,0,.2.1.2,0,0,0,0,0,0,0,0,0,0,0-.1,0,0,0,0,0,0ZM29.6,24.8s0,0,0,0h0c0,0,0,0,0,0ZM29.6,25.6v.4h0c0,0-.1,0-.1,0h0c0-.2,0-.2,0-.2h0ZM29.1,25.7s.1.1.2.2v-.2h-.2ZM29.2,24.2v.8s0,0,0,0h-.1c0,0,0-.1,0-.2,0,0,0,0,0-.3h0v-.2s0,0,0,0c0,0,.1,0,.2,0ZM29.2,25.2v.3s-.1,0-.1,0c-.1,0-.2,0-.3,0,0,0-.1,0-.1-.1,0,0,.1,0,.4,0,0,0,0,0,0,0ZM25.5,28.8v-.3s0,0,.1,0c0,0,0,0,0,0,0,0,0,0,0,.1t0,0s0,0,0,0h-.1s0,0,0,0ZM25.5,27.6v-.2c.2,0,.1.2.1.2h-.1ZM27,28.1s-.4,0-.2-.2c0,0,.3-.3.4-.3,0,0,.4-.3.4-.3,0,0-.1-.5-.4-.9,0,0,.1-.1.4.1,0,0,0,.5.2.7,0,0,.1,0,.2-.3,0,0,0,0,.1,0,0,0,0,0,0,.1s0,.1-.2.2c0,0,0,.1-.1.2,0,0,0,.4,0,.6,0,0,0,.3-.4.4,0,0-.1,0-.1,0,.2-.2.4-.5.4-.8,0,0-.5.4-.6.6,0,0,0,0,0,0ZM28.3,27.6s.2,0,.4,0c.1.1,0,.3-.1.3,0,0-.2-.2-.3-.2,0,0,0-.1,0-.2ZM25.5,27.4v.2c-.1,0-.3,0-.4.1h0c0-.1,0-.2,0-.2h0c0-.1,0-.3,0-.3v-.2s0,0,0,0t0,0h0c0-.1,0-.1,0-.1,0,0,0,0,0,0,0,0,0,0,0,0,0,0,0,0,0,0,0,.2,0,.4,0,.6h0s.1,0,.1,0c0,0,0,0,0,0ZM25.5,28.6v.3h0c0-.1,0-.1-.1-.1,0,0,0,0,0,0,0,0,0,0,0,0,0,0,0,0,0,0ZM25.1,29s0,0,0,0c0,0,0,0,0,0s0,0,0,0,0-.1,0-.2c0,0,0,0,0,0,0,0,0-.1,0-.2h0c0,0,.1,0,.1-.1s0,0,0,0h0c0,0,0,0,0,0t0,0h0c.1,0,0,0,.1-.1h0s0,0,0,0,0,0,0,0,0-.1,0-.2,0,0,0,0c0,0-.1,0-.2,0h0c0,.1,0,.1,0,.1,0,0,0,0,0,0h0v.8s0,0,0,0h0s0,0,0,0c0,0,0,.1,0,.1ZM25.1,27.5c0,0,0-.2,0-.3h0v.3ZM25.1,26.8h0c0,.1,0,0,0,0h0ZM25.1,27.2v.3h0s0,0,0,0h0c0,.1,0,.2,0,.2-.1.2,0,0,0,0h0s0,.1,0,.1c0,0,0,.1,0,.1,0,0-.1.1-.1.1,0,0,0,0-.1,0h0c0,0,0,0,0,0,0,.1-.3.1-.3.1-.1,0-.2,0-.2-.1h0c0,0,0-.1,0-.1.1,0,.2,0,.2,0,0,0,0,0,0,0,0,0,.2-.1.3-.2t0,0h0s0,0,0-.1h-.1c0,0-.1,0-.1,0s0,0,0,0t0,0s0,0,.1,0h0c0-.1,0-.2,0-.2h0c0-.1,0-.1,0-.1h0c.1,0,.1.1.1.1,0,.1,0,.1,0,.1,0,0,.1,0,.1-.1h0ZM25.1,28s0,0,0,0c0,0-.1.1-.2.3h0s0,0,0,0h0c0,0,0,0,0,0,0,0,0,0,0,0,0,0-.1.2,0,.1,0,0,0,0,.1,0,0,0,0,0,0,.1,0,0,0,0-.1,0,0,0,0,0,0,0,0,0-.1,0-.1.1,0,0,0,0,0,.1,0,0,0,.1,0,.2,0,0,0,0,.1,0s0,0,0,0c0,0,0,0,0,0,0,0,0-.1,0-.1,0,0,0,0,0,0,0,0,0-.1.1-.2,0,0,0,0,0,0v-.9h0ZM20,27.8h0c0-.1,0,0,0,0h0ZM20,27.5v-.3s0,0,0,0h0c0-.1,0-.1,0-.1,0,0,.1.1.3-.1,0,0,.3-.1.3-.2,0,0,0,0,0,0,0,0,.3-.2.2.2,0,0-.2.2-.4.3,0,0,.2.3-.2.2,0,0-.1,0-.3.1ZM20,26.7c.2-.2.3-.3.3-.3.2,0,.1-.4.1-.4h-.1c0,0-.2.3-.3.4v.3h0ZM22.2,27.3s.6,0,.7,0c0,0,.3,0,0,.3,0,0-.2,0-.6.7,0,0,.2,0,.3-.2,0,0,.2.3-.1.4,0,0-.5,0-.9.3,0,0-.1,0-.2,0,0,0-.2-.2-.3-.2,0,0,.4,0,.5,0,0,0,.2,0,.6-.5,0,0,.2-.4.3-.4,0,0-.3,0-.4,0,0,0-.3-.1-.1-.2h.1s0,0,0,0ZM20,26.5v.3c-.3.2-.5.5-.7.8,0,0-.1,0-.1-.1,0,0,0,0-.1,0v-.2h.2s.5-.5.7-.7c0,0,0,0,0,0ZM20,27.1c0,0,0,0,0,.1h0ZM20,27.2c-.1,0-.4.2-.4.2-.1,0-.1.2-.1.2l.3.2c0,0,.1,0,.1,0h0c0-.1-.1-.2-.1-.2h.1v-.4ZM19.1,27.1s.1,0,.1,0c0,0,.2,0,.2-.2,0,0,0-.1-.1-.2,0,0-.2,0-.2.2v.3h0ZM19.1,25.4v-.3s0,0,.1,0c0,0,.1.2.1.2,0,0,0,.1-.3,0h0ZM19.1,25.1v.3s0,0-.1,0c0,0-.3-.2-.2-.3,0,0-.3-.3-.4-.3,0,0,.2.3,0,.4,0,0-.1.1-.2.1.2,0,.4.1.5.2,0,0,0,.1-.2.3,0,0-.1,0-.3,0,0,0-.2,0-.3,0v-.3h0c.2,0,.3,0,.3,0-.1-.1-.2-.1-.2-.1h0s0,0,0,0v-.3c.1,0,.2-.1.3-.1,0,0,.1-.1.1-.2h0s-.2-.1-.2-.1c0,0,0,0,0-.2v-.2s.1,0,.5.4c.2.1.4.4.6.5ZM19.1,26.9v.3c-.4.1-.3,0-.3,0,0,0,.3-.1.3-.3h0ZM19.1,27.2h-.4c-.2,0-.2,0-.2,0,0,0,.1.3.1.3,0,0,.4,0,.5-.1v-.2h0ZM17.9,25v.3c0,0-.2,0-.3,0-.1,0-.1,0,0,.1h.3v.3h-.3s-.1,0-.1,0v-.5s0,0,0,0v-.4s0,0,0,0c0,0,.1-.1.2-.1,0,0,.1,0-.1.4,0,.1.2.1.3,0h0ZM17.5,24.8v.4h0q0,.1,0,0v.5s0-.1,0-.2c0,0,0-.1-.1,0h0s.2.3.1.4c0,0-.2,0-.3-.1,0,0,0,0,.1,0-.2-.3-.3-.2,0-.4,0,0,0,0,0,0,0,0-.1,0,0-.2,0,0-.1,0-.3-.1,0,0,0,0-.1.2,0,0-.1.1-.3.2,0,0,0,0,0-.1,0,0,0,0,.1-.2.1-.2.3-.2.4-.3,0,0,0,.1,0,.2,0,0,.1.1.3.2,0,0,.1,0,.2-.2Z"/>
        <path class="cls-1" d="M23.8,13.9c1.5,0,3,.5,4,1.5h-.1c-1.1-.8-2.5-1.2-3.9-1.2-3.4,0-6.1,2.7-6.1,6.1s2.8,6.2,6.1,6.2,6.2-2.8,6.2-6.2-.8-3.4-2-4.5v-.2c1.5,1.2,2.2,2.9,2.2,4.7,0,3.5-2.9,6.3-6.4,6.3s-6.3-2.8-6.3-6.3,2.9-6.3,6.3-6.3h0Z"/>
        <path class="cls-1" d="M23.8,15.7c1.1,0,2,.4,2.8.9h-.1c-.7-.4-1.6-.8-2.7-.8-2.4,0-4.3,2-4.3,4.4s.6,2.5,1.5,3.3c0,0,.2.1.3.2,1.7.6,3.4-.3,4-1.8.5-.9,1.5-.8,1.7-.1.1.5-.4.9-.8.7-.1,0-.2-.1-.2-.3-.3.9,1.1,1.2,1.9-.4.2-.5.3-1.1.3-1.7,0-1.3-.6-2.5-1.5-3.3h.1c1,.7,1.6,2,1.6,3.3,0,2.5-2.1,4.6-4.6,4.6-2.5,0-4.6-2.1-4.6-4.6,0-2.5,2-4.6,4.6-4.6h0ZM26.2,25.7h0c0,0,0,0,0-.1,0,0,.1,0,.2-.1,0,0,0-.1,0-.1,0,0,0-.1-.1-.1s0,0-.1,0v-.6c0,0,.1,0,.1.1h0c0,.2,0,.3-.1.4.1,0,.2,0,.3,0,0,0,.1,0,.1.1,0,0,0,.1,0,.3,0,0-.2.1-.3.2,0,0,0,0-.1,0ZM26.2,24.5v.6h-.1c0,0,0,.1,0,.1,0,0,0,.1,0,.2,0,0,0,.1.1.1h.1c0,.1-.2.1-.3.1h0v-.7h.1s0,0,0-.1h0c0-.2,0-.3-.1-.3s0,0-.1,0h0c.1-.1.2-.1.3,0h0ZM25.9,24.5h0c0,0,0,.1,0,.1,0,0-.1,0-.1.1h0c0,.2,0,.2.1.2t0,0v.7c0,0-.1,0-.2-.1,0,0,0-.1,0-.2,0,0,0-.1.1-.2-.1,0-.1,0-.2,0,0,0-.1-.1-.1-.2,0,0,0-.1,0-.2,0,0,.1-.2.2-.2,0,0,0,0,0,0ZM22.9,26.1h0c0-.1,0-.2,0-.2,0,0,0-.1.1-.3h0s0,0-.1,0h0c0,0,0,0,0-.1,0,0,0,0,.1,0,0-.2,0-.3,0-.4,0,0-.1-.1-.2-.1h0c0,0,0,0,0,0,.1,0,.3.1.3.2.1.1.1.3,0,.5,0,.1,0,.2-.1.3,0,0-.1.1-.2.2,0,0,0,0-.1,0h0ZM25,25.7c0-.1,0-.2-.2-.3h-.1s0,0,.1,0c0,0,.1-.2.1-.3,0,0,0-.1-.1-.2,0,0-.2,0-.3,0,0,0-.2,0-.3.1,0,0-.1.1-.1.2s0,0,0,0c0,0,0,0,.1,0,0,0,0,0,0,0,0,0,0,0,0,0h0s0,0,0,0c0,0,0,0,0,0,0,0,0,0,.1,0,0,0,.1,0,.1,0,0,0,0,0,0,.1s0,.1,0,.2c0,0-.1.1-.2.1s0,0,0,0h0s0,0,0,0h0c.1,0,.2,0,.3,0s.1,0,.1.1c0,.1,0,.2,0,.2,0,0-.1,0-.2,0,0,0-.1,0-.2,0,0,0,0,0,0,0h0q0-.1,0-.1h0s0,0-.1,0t0,0s0,0,.1.1c.1,0,.2,0,.3,0,.1,0,.3,0,.4-.1.1,0,.1-.2.1-.3h0ZM21.8,24.6h-.1c-.1,0-.3,0-.4-.1h0c0,.1,0,.1.1.1,0,0,0,0,0,0,0,0,0,0,0,0l-.3.7s0,0,0,0-.1,0-.2,0h0c0,0,.7.4.7.4h0c-.1-.1-.2-.1-.2-.2,0,0,0,0,0,0,0,0,.4-.9.4-.9ZM22.9,24.9h0c0,0-.1,0-.1.1,0,0,0,.1-.1.2,0,0,0,.1,0,.2,0,0,0,.1.1.1h0c0,0-.1,0-.1,0-.1,0-.2,0-.3-.2,0,0,0-.2,0-.3,0-.1,0-.2.2-.2,0,0,.1,0,.3,0ZM22.9,26h0c0,.1-.2.1-.2.1-.1,0-.2,0-.3-.1,0,0,0,0,0-.1t0,0s0,0,0,0c0,0,0,0,.1,0h0c0,.2.2.2.3.1,0,0,0,0,0,0Z"/>
        <path class="cls-1" d="M25.1,18.5l3.4-3.4-3.4,4.9v-1.5ZM25.1,18.2l3.2-3.2-3.2,2v1.3ZM21.9,21.8l3.2-3.2v1.5l-2.7,3.9-.5-2.1ZM25.1,16.9l-7.9,4.8h4.5c0,0,3.4-3.5,3.4-3.5v-1.3ZM24.4,14s0,0,0,0,0,0,0,0,0,0,0,0,0,0,0,0ZM24.2,14.4h0s0,0,0,0t0,0h0ZM24.5,14.7s0,0,0,0,0,0,0,0c0,0,0,0,0,0,0,0,0,0,0,0ZM24.3,14.8s0,0,0,0c0,0,0,0,0,0h0c0,0,0,0,0,0ZM24,14.1s0,0,0,0c0,0,0,0,0,0,0,0,0,0,0,0,0,0,0,0,0,0ZM23.8,14s0,0,0,0,0,0,0,0c0,0,0,0,0,0,0,0,0,0,0,0ZM23.5,14.3s0,0,0,0c0,0,0,0,0,0,0,0,0,0,0,0,0,0,0,0,0,0ZM23.4,14s0,0,0,0c0,0,0,0,0,0,0,0,0,0,0,0s0,0,0,0ZM23.2,14.1s0,0,0,0h0s0,0,0,0c0,0,0,0,0,0ZM23.9,14.4s0,0,0,0c0,0,0,0,0,0,0,0,0,0,0,0s0,0,0,0ZM23.7,14.7s0,0,0,0,0,0,0,0c0,0,0,0,0,0s0,0,0,0ZM23.3,14.4s0,0,0,0,0,0,0,0,0,0,0,0,0,0,0,0h0ZM23.4,14.6h0c0,0,0,0,0,0t0,0ZM24.4,14.3s0,0,0,0c0,0,0,0,0,0,0,0,0,0,0,0h0ZM23.5,14.5s0,0,0,0h0s0,0,0,0ZM23.9,14.8h0c0,0,0,0,0,0t0,0s0,0,0,0ZM24.1,15s0,0,0,0,0,0,0,0c0,0,0,0,0,0s0,0,0,0ZM23.9,15.1h0s0,0,0,0h0s0,0,0,0ZM23.7,15s0,0,0,0c0,0,0,0,0,0,0,0,0,0,0,0h0ZM21,14.8s0,0,0,0,0,0,0,0,0,0,0,0,0,0,0,0h0ZM21.4,14.6h0s0,0,0,0c0,0,0,0,0,0h0s0,0,0,0ZM21.5,14.9s0,0,0,0c0,0,0,0,0-.1,0,0,0,0,0,0,0,0,0,0,0,0ZM21.7,14.4s0,0,0,0c0,0,0,0,0,0,0,0,0,0,0,0,0,0,0,0,0,0ZM21.9,14.7h0s0,0,0,0h0s0,0,0,0h0ZM20.7,15.6s0,0,0,0,0,0,0,0,0,0,0,0c0,0,0,0,0,.1ZM21.7,15.3s0,0,0,0,0,0,0,0c0,0,0,0,0,0s0,0,0,0h0ZM21.8,15s0,0,0,0c0,0,0,0,0,0,0,0,0,0,0,0,0,0,0,0,0,0ZM22,15.2h0s0,0,0,0h0s0,0,0,0ZM22,14.5s0,0,0,0,0,0,0,0,0,0,0,0,0,0,0,0ZM22.3,14.3s0,0,0,0c0,0,0,0,0,0h0c0,0,0,.1,0,.1h0ZM22.6,14.5s0,0-.1,0h0c0,0,0,0,0,0,0,0,0,0,0,.1ZM22.6,14.2s0,0,0,0,0,0,0,0h0c0,0,0,.1,0,.1ZM22.8,14.2s0,0,0,0t0,0h0s0,0,0,0ZM22,15s0,0,0,0c0,0,0,0,0,0,0,0,0,0,0,0s0,0,0,0ZM22.2,14.7s0,0,0,0c0,0,0,0,0,0,0,0,0,0,0,0,0,0,0,0,0,0ZM22.6,14.9s0,0,0,0,0,0,0,0c0,0,0,0,0,0s0,0,0,0ZM22.8,14.5s0,0,0,0c0,0,0,0,0,0,0,0,0,0,0,0s0,0,0,0h0ZM22.8,14.7s0,0,0,0c0,0,0,0,0,0t0,0h0s0,0,0,0ZM20.2,15.6s0,0,0,0c0,0,0,0,0,0,0,0,0,0,0,0,0,0,0,0,0,0ZM20.2,15.3s0,0,0,0,0,0,0,0c0,0,0,0,.1,0,0,0,0,0,0,0ZM20.6,15.3s-.1,0-.1,0,0,0,0-.1c0,0,0,0,.1,0,0,0,0,0,0,0h0ZM21,15.6s0,0,0,0c0,0,0,0,0,0,0,0,0,0,.1,0,0,0,0,0,0,0ZM21.2,15.2s0,0,0,0c0,0,0,0,0,0s0,0,0,0c0,0,0,0,0,0ZM21.4,15.4s0,0,0,0c0,0,0,0,0,0,0,0,0,0,0,0,0,0,0,0,0,0ZM20.4,15.1s0,0,0,0c0,0,0,0,0,0,0,0,0,0,0,0,0,0,0,0,0,0ZM20.6,15.5h0c0,0,0,0,0,0h0ZM21,15.1s0,0,0,0c0,0,0,0,0,0,0,0,0,0,0,0,0,0,0,0,0,0h0ZM19.9,15.5h0s0,0,0,0h0s0,0,0,0ZM20.7,15s0,0,0,0c0,0,0,0,0,0,0,0,0,0,0,0,0,0,0,0,0,0h0ZM21,15.2s0,0,0,0c0,0,0,0,0,0h0s0,0,0,0ZM21.7,14.7s0,0,0,0c0,0,0,0,0,0,0,0,0,0,0,0,0,0,0,0,0,0ZM21.5,15.1s0,0,0,0,0,0,0,0c0,0,0,0,0,0,0,0,0,0,0,0ZM21.3,15h0s0,0,0,0h0ZM22.6,14.7h0s0,0,0,0c0,0,0,0,0,0ZM21.9,15.2s0,0,0,0c0,0,0,0,0,0t0,0h0ZM21.7,15.5s0,0,0,0c0,0,0,0,0,0,0,0,0,0,0,0s0,0,0,0h0ZM22.3,15h0s0,0,0,0c0,0,0,0,0,0,0,0,0,0,0,0h0ZM22.2,15.2h0c0,0,0-.1,0-.1,0,0,0,0,0,0s0,0,0,0ZM22.4,15.5s0,0,0,0c0,0,0,0,0,0h0s0,0,0,0ZM22,15.5s0,0,0,0,0,0,0,0c0,0,0,0,0,0,0,0,0,0,0,0h0ZM23,14.9s0,0,0,0c0,0,0,0,0,0s0,0,0,0c0,0,0,0,0,0ZM23.1,15.1h0s0,0,0,0c0,0,0,0,0,0h0ZM22.7,15.4s0,0,0,0,0,0,0,0,0,0,0,0c0,0,0,0,0,0ZM23.2,15.3s0,0,0,0c0,0,0,0,0,0s0,0,0,0c0,0,0,0,0,0h0ZM23.5,15.1s0,0,0,0h0s0,0,0,0h0ZM23.3,14.8s0,0,0,0,0,0,0,0,0,0,0,0c0,0,0,0,0,0ZM23.4,15s0,0,0,0,0,0,0,0h0c0,0,0,.1,0,.1ZM23,14.6s0,0,0,0c0,0,0,0,0,0,0,0,0,0,0,0s0,0,0,0ZM23,14.3s0,0,0,0c0,0,0,0,0,0s0,0,0,0,0,0,0,0ZM23,14.1s0,0,0,0,0,0,0,0h0c0,0,0,.1,0,.1ZM21.3,14.8s0,0,0,0c0,0,0,0,0,0,0,0,0,0,0,0,0,0,0,0,0,0ZM24.6,14.1s0,0,0,0h0s0,0,0,0,0,0,0,0ZM24.8,14.5h0q0,0,0,0h0q0,0,0,0h0ZM24.5,14.9h0s0,0,0,0t0,0s0,0,0,0ZM24.9,14.3s0,0,0,0c0,0,0,0,0,0,0,0,0,0,0,0s0,0,0,0ZM25.2,14.2s0,0,0,0c0,0,0,0,0,0,0,0,0,0,0,0s0,0,0,0ZM25.4,14.5s0,0,0,0c0,0,0,0,0,0s0,0,0,0c0,0,0,0,0,0ZM25.6,14.3s0,0,0,0,0,0,0,0c0,0,0,0,0,0,0,0,0,0,0,0ZM25.8,14.4s0,0,0,0h0s0,0,0,0h0ZM24.7,14.7s0,0,0,0c0,0,0,0,0,0,0,0,0,0,0,0s0,0,0,0ZM25,14.6s0,0,0,0c0,0,0,0,0,0,0,0,0,0,0,0,0,0,0,0,0,0ZM25.1,14.9s0,0,0,0,0,0,0,0c0,0,0,0,0,0,0,0,0,0,0,0ZM25.6,14.7s0,0,0,0c0,0,0,0,0,0,0,0,0,0,0,0s0,0,0,0ZM25.5,14.8s0,0,0,0c0,0,0,0,0,0h0,0ZM25.3,14.8s0,0,0,0c0,0,0,0,0,0t0,0h0ZM24.9,14.9s0,0,0,0h0s0,0,0,0h0ZM24.8,15.1s0,0,0,0t0,0s0,0,0,0,0,0,0,0h0ZM24.8,15.3s0,0,0,0h0s0,0,0,0c0,0,0,0,0,0h0ZM24.5,15.1s0,0,0,0,0,0,0,0c0,0,0,0,0,0,0,0,0,0,0,0ZM25.1,15.4s0,0,0,0t0,0s0,0,0,0h0ZM27.4,15.2h0s0,0,0,0c0,0,0,0,0,0h0ZM27.2,15.5s0,0,0,0c0,0,0,0,0,0,0,0,0,0,0,0,0,0,0,0,0,0h0ZM27.1,15h0s0,0,0,0c0,0,0,0,0,0h0c0,0,0,0,0,0ZM26.9,15.2s0,0,0,0c0,0,0,0,0,0h0s0,0,0,0h0ZM27.8,16.4s0,0,0,0c0,0,0,0,0,0,0,0,0,0-.1,0,0,0,0,0,0,0Z"/>
        <path class="cls-1" d="M27,15.9s0,0,0,0c0,0,0,0,0,0,0,0,0,0-.1,0,0,0,0,0,0,0ZM26.9,15.6s0,0,0,0,0,0,0,0c0,0,0,0,0,0,0,0,0,0,0,0ZM26.7,15.8h0s0,0,0,0c0,0,0,0,0,0,0,0,0,0,0,0ZM26.8,15s0,0,0,0,0,0,0,0c0,0,0,0,0,0,0,0,0,0,0,0ZM26.6,14.8s0,0,.1,0c0,0,0,0,0,0,0,0,0,0,0,0,0,0,0,0,0,0h0ZM26.3,14.9s0,0,0,0c0,0,0,0,0-.1,0,0,0,0,0,0,0,0,0,0,0,0ZM26.3,14.6s0,0,0,0c0,0,0,0,0,0,0,0,0,0,0,0,0,0,0,0,0,0ZM26.1,14.6h0s0,0,0,0c0,0,0,0,0,0h0ZM26.7,15.5s0,0,.1,0c0,0,0,0,0-.1,0,0,0,0,0,0,0,0,0,0,0,0ZM26.6,15.2s0,0,0,0t0,0s0,0,0,0c0,0,0,0,0,0ZM26.2,15.3s0,0,0,0c0,0,0,0,0,0,0,0,0,0,0,0,0,0,0,0,0,0ZM26.1,14.8s0,0,0,0c0,0,0,0,0,0,0,0,0,0,0,0s0,0,0,0ZM26,15s0,0,0,0h0s0,0,0,0h0ZM28.8,16.7s0,0,0,0c0,0,0,0,0,0,0,0,0,0-.1,0,0,0,0,0,0,0ZM28.5,16.9s0,0,0,0c0,0,0,0,0-.1,0,0,0,0,0,0s0,0,0,0h0ZM28.4,16.5s0,0,0,0c0,0,0,0,0,0,0,0,0,0,0,0,0,0,0,0,0,0ZM28.2,16.5h0s0,0,0,0c0,0,0,0,0,0h0ZM27.9,16.2s0,0,0,0h0s0,0,0,0c0,0,0,0,0,0ZM28.4,17.3s0,0,.1,0c0,0,0,0,0-.1,0,0,0,0,0,0,0,0,0,0,0,0ZM28.2,17.1s0,0,0,0c0,0,0,0,0,0,0,0,0,0,0,0t0,0h0ZM28,17s0,0,0,0h0s0,0,0,0c0,0,0,0,0,0ZM28.3,16.3s0,0,0,0c0,0,0,0,0-.1,0,0-.1,0-.1,0,0,0,0,0,0,.1h0ZM28,16.1s0,0,0,0c0,0,0,0,0,0,0,0,0,0-.1,0,0,0,0,0,0,0h0ZM27.7,16.4h0q0,0,0,0s0,0,0,0ZM28,16.8s0,0,.1,0c0,0,0,0,0,0,0,0,0,0,0,0,0,0,0,0,0,0ZM27.7,16.7s0,0,0,0,0,0,0,0c0,0,0,0,0,0,0,0,0,0,0,0h0ZM27.5,16.6s0,0,0,0t0,0s0,0,0,0h0ZM28.2,15.9h0s0,0,0,0h0s0,0,0,0ZM28.1,16.3s0,0,0,0c0,0,0,0,0,0h0s0,0,0,0ZM28.9,16.9h0s0,0,0,0c0,0,0,0,0,0h0ZM28.6,16.4s0,0,0,0c0,0,0,0,0,0h0s0,0,0,0ZM28,15.9h0s0,0,0,0h0s0,0,0,0ZM27.7,16h0s0,0,0,0c0,0,0,0,0,0h0ZM27,15.2h0s0,0,0,0c0,0,0,0,0,0h0ZM27.2,15.8h0s0,0,0,0h0s0,0,0,0ZM27.5,15.6h0s0,0,0,0h0ZM26.2,15.1s0,0,0,0c0,0,0,0,0,0h0ZM26.8,15.8h0c0,0,0,0,0,0h0ZM26.9,16.1s0,0,0,0c0,0,0,0,0,0t0,0s0,0,0,0ZM26.7,16.2h0s0,0,0,0c0,0,0,0,0,0h0ZM26.4,15.5s0,0,0,0h0s0,0,0,0t0,0ZM26.4,15.7s0,0,0,0c0,0,0,0,0,0,0,0,0,0,0,0h0ZM26.3,15.9s0,0,0,0h0s0,0,0,0h0ZM26.5,15.9s0,0,0,0c0,0,0,0,0-.1,0,0,0,0,0,0,0,0,0,0,0,0ZM26.1,15.6s0,0,.1,0c0,0,0,0,0-.1,0,0,0,0-.1,0,0,0,0,0,0,0ZM25.8,15.2s0,0,0,0h0c0,0,0,0,0,0h0ZM25.6,15.3s0,0,0,0h0s0,0,0,0c0,0,0,0,0,0ZM25.8,15.8s0,0,.1,0c0,0,0,0,0-.1,0,0,0,0,0,0,0,0,0,0,0,0ZM25.5,15.6s0,0,0,0c0,0,0,0,0,0,0,0,0,0,0,0t0,0ZM25.8,15.5s0,0,0,0h0s0,0,0,0h0ZM25.6,15s0,0,0,0h0c0,0,0,0,0,0,0,0,0,0,0,0ZM25.4,15.2s0,0,0,0c0,0,0,0,0,0h0s0,0,0,0ZM25.8,14.9s0,0,0,0c0,0,0,0,0,0h0s0,0,0,0ZM25.9,14.6s0,0,0,0c0,0,0,0,0,0,0,0,0,0,0,0s0,0,0,0ZM26,14.4s0,0,0,0t0,0s0,0,0,0c0,0,0,0,0,0ZM27.9,16.6s0,0,0,0h0s0,0,0,0c0,0,0,0,0,0ZM27.5,15.5s0,0,0,0h0c0,0,0,0,0,0,0,0,0,0,0,0ZM24.5,14.4s0,0,0,0,0,0,0,0,0,0,0,0,0,0,0,0ZM24.4,15.2h0q0,0,0,0h0q0,0,0,0ZM24.1,14.6s0,0,0,0c0,0,0,0,0,0,0,0,0,0,0,0h0ZM22.9,15.1s0,0,0,0h0s0,0,0,0h0ZM22,14.3h0s0,0,0,0c0,0,0,0,0,0t0,0ZM20.4,15.4s0,0,0,0c0,0,0,0,0,0h0s0,0,0,0ZM25.3,15.4s0,0,0,0c0,0,0,0,0,0h0s0,0,0,0h0ZM28.8,17.2h0c0,0,0,0,0,0,0,0,0,0,0,0ZM29.1,17.3s0,0,0,0c0,0,0,0,0,0,0,0,0,0,0,0,0,0,0,0,0,.1ZM28.7,17s0,0,0,0c0,0,0,0,0,0,0,0,0,0,0,0,0,0,0,0,0,0ZM28.5,17.1h0s0,0,0,0h0s0,0,0,0ZM28.7,17.6s0,0,0,0c0,0,0,0,0,0s0,0-.1,0c0,0,0,0,0,0h0ZM28.5,17.5s0,0,0,0t0,0s0,0,0,0c0,0,0,0,0,0ZM28.9,17.1s0,0,0,0c0,0,0,0,0,0h0s0,0,0,0ZM28.8,17.4s0,0,0,0h0s0,0,0,0t0,0ZM29,17.5h0q0,0,0,0s0,0,0,0ZM19.2,16.2s0,0-.1,0c0,0,0,0,0,0s0,0,0,0,0,0,0,.1ZM19.7,15.7s0,0,0,0c0,0,0,0,0,0,0,0,0,0,0,0,0,0,0,0,0,0ZM20.1,15.9s0,0-.1,0c0,0,0,0,0,0s0,0,0,0c0,0,0,0,0,0ZM20.4,15.6s0,0,0,0h0s0,0,0,0c0,0,0,0,0,0ZM19.7,16.2s0,0,0,0c0,0,0,0,0,0,0,0,0,0,0,0,0,0,0,0,0,0ZM20.1,16.4s0,0-.1,0c0,0,0,0,0,0,0,0,0,0,0,0,0,0,0,0,0,0ZM20.2,16.2s0,0,0,0c0,0,0,0,0,0,0,0,0,0,0,0s0,0,0,0ZM20.5,16.2s0,0,0,0h0s0,0,0,0c0,0,0,0,0,0ZM20.4,15.9s0,0,0,0,0,0,0,0c0,0,0,0,0,0,0,0,0,0,0,0ZM20.7,16s0,0,0,0c0,0,0,0,0,0,0,0,0,0,0,0s0,0,0,0h0ZM21.1,15.8s0,0,0,0,0,0,0,0c0,0,0,0,0,0,0,0,0,0,0,0h0ZM21.3,15.6s0,0,0,0c0,0,0,0,0,0,0,0,0,0,0,0,0,0,0,0,0,0ZM21.4,15.9h0s0,0,0,0h0s0,0,0,0ZM19.5,16s0,0,0,0h0c0,0,0,0,0,0,0,0,0,0,0,0ZM19.5,16.3s0,0,0,0,0,0,0,0c0,0,0,0,0,0,0,0,0,0,0,0h0ZM19.7,16.5s0,0,0,0h0s0,0,0,0h0ZM21.8,15.6s0,0,0,0h0s0,0,0,0h0ZM20.7,15.8s0,0,0,0h0s0,0,0,0h0s0,0,0,0ZM19.8,15.9s0,0,0,0h0s0,0,0,0c0,0,0,0,0,0ZM19.9,16.2h0s0,0,0,0c0,0,0,0,0,0t0,0ZM19.9,16.6s0,0,0,0c0,0,0,0,0,0,0,0,0,0,0,0,0,0,0,0,0,0ZM17.9,22s0,0,0,0,0,0,0,0c0,0,0,0,0,0,0,0,0,0,0,0ZM18.2,22h0s0,0,0,0c0,0,0,0,0,0t0,0h0ZM18.4,21.7s0,0,0,0c0,0,0,0,0,0,0,0,0,0,0,0,0,0,0,0,0,0ZM18.6,21.8h0s0,0,0,0c0,0,0,0,0,0h0ZM18,22.3s0,0,0,0h0c0,.1,0,.1.1.1,0,0,0,0,0,0ZM18.1,22.6s0,0,0,0c0,0,0,0,0,0,0,0,0,0,0,0s0,0,0,0h0ZM18.4,22.7s0,0,0,0c0,0,0,0,0,0s0,0,0,0t0,0ZM18.2,22.9s0,0,0,0c0,0,0,0,0,0,0,0,0,0,0,0t0,0h0ZM18.3,23.1s0,0,0,0c0,0,0,0,0,0,0,0,0,0,0,0h0ZM18.3,22.3s0,0,0,0t0,0s0,0,0,0t0,0ZM18.7,22.4s0,0,0,0c0,0,0,0,0,0,0,0,0,0,0,0,0,0,0,0,0,0ZM18.5,22.9s0,0,0,0,0,0,0,0c0,0,0,0,0,0,0,0,0,0,0,0ZM18.7,22.8h0s0,0,0,0h0ZM18,21.9s0,0,0,0c0,0,0,0,0,0t0,0h0ZM18.6,22.6s0,0,0,0c0,0,0,0,0,0h0ZM18.7,22.2h0s0,0,0,0h0s0,0,0,0ZM18.8,22s0,0,0,0c0,0,0,0,0,0,0,0,0,0,0,0,0,0,0,0,0,0h0ZM19.1,22s0,0,0,0c0,0,0,0,0,0,0,0,0,0,0,0,0,0,0,0,0,0ZM18.9,22.3s0,0,0,0c0,0,0,0,0,0,0,0,0,0,0,0,0,0,0,0,0,0ZM19.8,24.9s0,0,0,.1c0,0,0,0,0,0,0,0,0,0,0,0h0ZM19.4,24.6s0,0,0,0h0c0,0,0,0,0,0ZM19.6,24.3s0,0,0,.1h-.1s0,0,0-.1h0ZM19.1,24.4h0c0,0,0,0,0,0h0c0,0,0,0,0,0ZM19.3,24h0s0,0,0,0c0,0,0,0,0,0h0,0ZM20,24.1s0,0,0,0c0,0,0,0-.1,0,0,0,0,0,0-.1,0,0,0,0,0,0ZM19.6,24.1s0,0,0,0h0s0,0,0,0h0,0ZM19.8,23.8s0,0,0,0h0s0,0,0,0ZM19.1,24s0,0,0,0c0,0,0,0,0,0,0,0,0,0,0,0h0ZM18.8,23.9s0,0,0,0c0,0,0,0-.1,0,0,0,0,0,0,0,0,0,0,0,0,0ZM18.9,23.6h0c0,.1,0,.1-.1,0,0,0,0,0,0,0,0,0,0,0,0,0ZM18.6,23.6h0c0,0,0,0,0,0,0,0,0,0,0,0t0,0ZM18.6,23.4h0s0,0,0,0t0,0s0,0,0,0h0ZM19.5,23.9s0,0,0,0c0,0,0,0,0,0,0,0,0,0,0,0,0,0,0,0,0,0ZM19.2,23.8s0,0,0,0c0,0,0,0,0,0,0,0,0,0,0,0,0,0,0,0,0,0ZM19.3,23.3h0c0,.1,0,.1-.1,0,0,0,0,0,0,0,0,0,0,0,0,0ZM18.8,23.3s0,0,0,0h0c0-.1,0-.1,0,0h0ZM19,23.3h0s0,0,0,0c0,0,0,0,0,0,0,0,0,0,0,0ZM20.3,25h0c0,0,0,0,0,0t0,0s0,0,0,0ZM20.5,24.6s0,0,0,0h0s0,0,0,0h0ZM20.1,24.5s0,0,0,0c0,0,0,0,0,0,0,0,0,0,0,0,0,0,0,0,0,0ZM20.2,24.3s0,0,0,0h0q0,0,0,0ZM20.6,24.4h0s0,0,0,0h0s0,0,0,0ZM20.4,24.2s0,0,0,0c0,0,0,0,0,0t0,0h0ZM20.3,24.5s0,0,0,0h0c0,0,0,0,0,0h0Z"/>
        <path class="cls-2" d="M20.3,24.1h0s0,0,0,0h0Z"/>
        <path class="cls-1" d="M20,24.8h0c0,0,0,0,0,0,0,0,0,0,0,0t0,0h0ZM20,25.1h0c0,.1,0,0,0,0t0,0h0ZM20.3,24.8h0s0,0,0,0t0,0s0,0,0,0ZM19.4,24.2h0s0,0,0,0t0,0s0,0,0,0ZM19.9,24.3s0,0,0,0c0,0,0,0,0,0h0c0,0,0,0,0,0ZM19.8,24.6h0s0,0,0,0h0q0,0,0,0h0ZM19,23.4s0,0,0,0h0q0,0,0,0h0ZM19.8,23.9s0,0,0,0c0,0,0,0,0,0h0s0,0,0,0ZM20.1,24s0,0,0,0c0,0,0,0,0,0,0,0,0,0,0,0,0,0,0,0,0,0ZM20.2,23.7s0,0,0,0h0q0,0,0,0ZM19.4,23.6s0,0,0,0h0q0,0,0,0ZM19.7,23.6s0,0,0,0h0s0,0,0,0h0ZM19.9,23.4h0s0,0,0,0c0,0,0,0,0,0h0ZM20,23.8s0,0,0,0c0,0,0,0,0,0,0,0,0,0,0,0,0,0,0,0,.1,0ZM19.6,23.2s0,0,0,.1c0,0,0,0,0,0,0,0,0,0,0,0,0,0,0,0,.1,0ZM19.1,23h0c0,0,0,0,0,0,0,0,0,0,0,0h0ZM19.2,22.8h0s0,0,0,0t0,0s0,0,0,0ZM19.6,22.9s0,0,0,0c0,0,0,0,0,0,0,0,0,0,0,0,0,0,0,0,.1,0h0ZM19.2,22.4h0c0,0,0,0,0,0,0,0,0,0,0,0h0ZM18.9,22.8s0,0,0,0h0s0,0,0,0c0,0,0,0,0,0ZM19,22.6s0,0,0,0h0s0,0,0,0c0,0,0,0,0,0h0ZM18.8,23s0,0,0,0h0s0,0,0,0c0,0,0,0,0,0ZM18.6,23.2h0c0,.1,0,.1-.1,0h0c0-.1,0-.1.1,0ZM18.4,23.3h0c0,0,0,0,0,0,0,0,0,0,0,0,0,0,0,0,0,0ZM19.6,24.6h0c0,0,0,0,0,0,0,0,0,0,0,0t0,0ZM17.8,21.7s0,0,0,0c0,0,0,0,0,0,0,0,0,0,0,0s0,0,0,0h0ZM18.1,21.5h0s0,0,0,0h0c0,0,0,0,0,0ZM18.6,21.6s0,0,0,0t0,0s0,0,0,0h0ZM17.8,21.4s0,0,0,0,0,0,0,0c0,0,0,0,0,0,0,0,0,0,0,0ZM17.7,21.2s0,0,0,0c0,0,0,0,0,0t0,0s0,0,0,0ZM17.9,20.9s0,0,0,0,0,0,0,0,0,0,0,0,0,0,0,0ZM17.6,20.8s0,0,0,0c0,0,0,0,0,0s0,0,0,0c0,0,0,0,0,0ZM17.6,20.6s0,0,0,0c0,0,0,0,0,0h0s0,0,0,0ZM18.4,21.4s0,0,0,0,0,0,0,0,0,0,0-.1c0,0,0,0,0,0ZM18.1,21.2s0,0,0,0c0,0,0,0,0,0,0,0,0,0,0,0,0,0,0,0,0,0ZM18.3,21s0,0,0,0c0,0,0,0,0,0,0,0,0,0,0,0,0,0,0,0,0,0ZM18,20.6s0,0,0,0,0,0,0,0h0s0,0,0,0ZM18.2,20.7s0,0,0,0c0,0,0,0,0,0,0,0,0,0,0,0,0,0,0,0,0,0ZM18.2,20.9s0,0,0,0h0s0,0,0,0c0,0,0,0,0,0h0ZM18.4,21.2s0,0,0,0t0,0s0,0,0,0h0ZM18.7,21.3s0,0,0,0,0,0,0,0h0s0,0,0,0ZM18.9,21.2h0s0,0,0,0h0s0,0,0,0ZM18.8,21.5s0,0,0,0,0,0,0,0c0,0,0,0,0,0,0,0,0,0,0,0ZM18.6,21s0,0,0,0c0,0,0,0,0,0s0,0,0,0c0,0,0,0,0,0ZM18,18.3s0,0,0,0c0,0,0,0,0,0s0,0,0,0c0,0,0,0,0,0ZM17.9,18.7s0,0,0,0c0,0,0,0,0,0t0,0s0,0,0,0ZM18.2,18.9s0,0,0,0,0,0,0,0,0,0,0,0,0,0,0,0h0ZM17.8,19.1s0,0,0,0c0,0,0,0,0,0,0,0,0,0,0,0,0,0,0,0,0,0h0ZM18.1,19.3s0,0,0,0c0,0,0,0,0,0h0s0,0,0,0ZM18.7,17.9s0,0,0,0,0,0,0,0,0,0,0,0c0,0,0,0,0,0ZM18.6,18.9s0,0,0,0c0,0,0,0,0,0s0,0,0,0c0,0,0,0,0,0ZM18.4,19s0,0,0,0c0,0,0,0,0,0s0,0,0,0,0,0,0,0ZM18.6,19.3h0s0,0,0,0h0s0,0,0,0ZM17.9,19.4s0,0,0,0,0,0,0,0c0,0,0,0,0,0,0,0,0,0,0,0ZM17.8,19.6s0,0,0,0,0,0,0,0c0,0,0,0,0,0,0,0,0,0,0,0ZM18,19.9s0,0,0,0c0,0,0,0,0,0,0,0,0,0,0,0,0,0,0,0,0,0ZM17.6,20s0,0,0,0c0,0,0,0,0,0s0,0,0,0c0,0,0,0,0,0ZM17.8,20.2s0,0,0,0c0,0,0,0,0,0,0,0,0,0,0,0h0ZM18.3,19.3s0,0,0,0c0,0,0,0,0,0s0,0,0,0,0,0,0,0h0ZM18.2,19.5s0,0,0,0c0,0,0,0,0,0s0,0,0,0c0,0,0,0,0,0ZM18.4,19.9s0,0,0,0,0,0,0,0,0,0,0,0,0,0,0,0ZM18,20.2s0,0,0,0,0,0,0,0c0,0,0,0,0,0h0ZM18.2,20.1s0,0,0,0h0s0,0,0,0h0ZM18.7,16.9s0,0,0,0,0,0,0,0,0,0,0,0c0,0,0,0,0,0ZM19,17.1s0,0,0,0c0,0,0,0,0,0,0,0,0,0,0,0,0,0,0,0,0,0h0ZM18.7,17.4s0,0,0,0c0,0,0,0,0,0s0,0,0,0,0,0,0,0ZM18.7,17.6h0s0,0,0,0c0,0,0,0,0,0,0,0,0,0,0,0ZM19.5,17.1s0,0,0,0c0,0,0,0,0,0,0,0,0,0,0,0s0,0,0,0h0ZM19.2,17.3s0,0,0,0h0c0,0,0,.1,0,.1s0,0,0,0ZM19.3,17.6h0s0,0,0,0h0s0,0,0,0h0ZM18.4,17.4s0,0,0,0,0,0,0,0,0,0,0,0,0,0,0,0ZM18.4,17.9s0,0,0-.1c0,0,0,0,0,0s0,0,0,0,0,0,0,0ZM18.8,18.2s0,0,0,0,0,0,0,0,0,0,0,0c0,0,0,0,0,0h0ZM18.5,18.5s0,0,0,0c0,0,0,0,0,0,0,0,0,0,0,0,0,0,0,0,0,0ZM18.7,18.6h0s0,0,0,0t0,0s0,0,0,0ZM19,17.5s0,0,0,0,0,0,0,0,0,0,0,0c0,0,0,0,0,0h0ZM19.2,17.8s0,0,0,0h0c0,0,0,.1,0,.1s0,0,0,0ZM19.2,18.6s0,0,0,0h0s0,0,0,0h0ZM18.3,17.6s0,0,0,0h0s0,0,0,0c0,0,0,0,0,0ZM18.6,17.6s0,0,0,0c0,0,0,0,0,0,0,0,0,0,0,0h0ZM18.4,18.3s0,0,0,0c0,0,0,0,0,0,0,0,0,0,0,0,0,0,0,0,0,0ZM18.8,16.7s0,0,0,0c0,0,0,0,0,0,0,0,0,0,0,0h0ZM18.5,17.1h0s0,0,0,0h0s0,0,0,0h0ZM18.2,18s0,0,0,0c0,0,0,0,0,0s0,0,0,0c0,0,0,0,0,0h0ZM18.5,18.1s0,0,0,0h0s0,0,0,0h0ZM18,19.1s0,0,0,0h0s0,0,0,0h0ZM18.4,18.7s0,0,0,0c0,0,0,0,0,0,0,0,0,0,0,0s0,0,0,0ZM18.2,18.5s0,0,0,0h0s0,0,0,0h0,0ZM18.2,19.9s0,0,0,0h0s0,0,0,0h0ZM18.6,19.1h0s0,0,0,0c0,0,0,0,0,0h0ZM18.8,18.9s0,0,0,0c0,0,0,0,0,0,0,0,0,0,0,0,0,0,0,0,0,0h0ZM19,19.1s0,0,0,0h0s0,0,0,0h0ZM18.4,19.6s0,0,0,0c0,0,0,0,0,0h0s0,0,0,0h0ZM18.6,19.5s0,0,0,0c0,0,0,0,0,0,0,0,0,0,0,0s0,0,0,0ZM18.9,19.5h0s0,0,0,0c0,0,0,0,0,0,0,0,0,0,0,0ZM18.9,19.2s0,0,0,0,0,0,0,0,0,0,0,0,0,0,0,0ZM18.7,19.8s0,0,0,0c0,0,0,0,0,0,0,0,0,0,0,0s0,0,0,0ZM18.4,20.2s0,0,0,0,0,0,0,0c0,0,0,0,0,0h0ZM18.6,20.4h0s0,0,0,0ZM19,20.1s0,0,0,0,0,0,0,0,0,0,0,0,0,0,0,0ZM18.8,20.4s0,0,0,0c0,0,0,0,0,0,0,0,0,0,0,0,0,0,0,0,0,0ZM18.7,20.1s0,0,0,0h0s0,0,0,0c0,0,0,0,0,0ZM18.3,20.5s0,0,0,0c0,0,0,0,0,0h0s0,0,0,0ZM18.6,20.7s0,0,0,0c0,0,0,0,0,0,0,0,0,0,0,0s0,0,0,0ZM18.2,20.3s0,0,0,0c0,0,0,0,0,0s0,0,0,0c0,0,0,0,0,0ZM17.8,20.4s0,0,0,0,0,0,0,0,0,0,0,0c0,0,0,0,0,0h0ZM17.6,20.3s0,0,0,0,0,0,0,0c0,0,0,0,0,0,0,0,0,0,0,0ZM18.9,17.8s0,0,0,0h0s0,0,0,0h0ZM18,18.6h0s0,0,0,0,0,0,0,0c0,0,0,0,0,0ZM18.1,21.7s0,0,0,0,0,0,0,0,0,0,0,0,0,0,0,0ZM18.9,21.7s0,0,0,0h0s0,0,0,0c0,0,0,0,0,0ZM18.5,22s0,0,0,0,0,0,0,0c0,0,0,0,0,0,0,0,0,0,0,0ZM19.4,23h0s0,0,0,0h0c0,0,0,0,0,0h0ZM18.9,24.1h0s0,0,0,0h0c0,0,0,0,0,0ZM18.8,20.7s0,0,0,0h0s0,0,0,0c0,0,0,0,0,0h0ZM19.2,16.7s0,0,0,0h0c0,0,0,0,0,0t0,0ZM19.1,16.4s0,0,0,0,0,0,0,0,0,0,0,0c0,0,0,0,0,0ZM19,16.9s0,0,0,0c0,0,0,0,0,0,0,0,0,0,0,0s0,0,0,0h0ZM19.2,17.1h0s0,0,0,0h0ZM19.6,16.7s0,0,0,0,0,0,0,0h0c0,0,0,0,0,0ZM19.5,17s0,0,0,0c0,0,0,0,0,0,0,0,0,0,0,0,0,0,0,0,0,0ZM19.2,16.6s0,0,0,0h0s0,0,0,0h0ZM19.4,16.7h0s0,0,0,0h0s0,0,0,0ZM19.4,16.5s0,0,0,0t0,0h0s0,0,0,0ZM19.7,16.9h0c0,0,0,0,0,0h0ZM18.9,16.6s0,0,0,0c0,0,0,0,0,0h0s0,0,0,0ZM19.5,17.4s0,0,0,0c0,0,0,0,0,0h0s0,0,0,0ZM18.9,18.7s0,0,0,0h0s0,0,0,0c0,0,0,0,0,0ZM18.8,19.7h0s0,0,0,0h0s0,0,0,0ZM18.3,22.5s0,0,0,0h0q0,0,0,0s0,0,0,0ZM29.3,23.1s0,0,0,0c0,0,0,0,0,0,0,0,0,0,0,0,0,0,0,0,0,0h0ZM29,22.8s0,0,0,0c0,0,0,0,0,0h0s0,0,0,0h0ZM28.7,23s0,0,0,0c0,0,0,0,0,0s0,0,0,0c0,0,0,0,0,0ZM28.6,22.7s0,0,0,0h0s0,0,0,0c0,0,0,0,0,0ZM29.3,22.8s0,0,0,0,0,0,0,0c0,0,0,0,0,0s0,0,0,0ZM29.5,22.5s0,0,0,0c0,0,0,0,.1,0,0,0,0,0,0,0,0,0,0,0,0,0ZM29.4,22.2s0,0,0,0c0,0,0,0,0,0,0,0,0,0,0,0s0,0,0,0h0ZM29.7,22.2s0,0,0,0c0,0,0,0,0,0,0,0,0,0,0,0,0,0,0,0,0,0h0ZM29.7,22h0s0,0,0,0c0,0,0,0,0,0,0,0,0,0,0,0ZM29.1,22.5h0c0,0,0,0,0,0t0,0s0,0,0,0ZM29,22.2s0,0,0,0c0,0,0,0,0,0,0,0,0,0,0,0,0,0,0,0,0,0ZM29.4,22s0,0,0,0c0,0,0,0,0,0h0c0,0,0,0,0,0ZM29.2,22h0c0,0,0,0,0,0,0,0,0,0,0,0h0ZM29.1,23s0,0,0,0c0,0,0,0,0,0h0s0,0,0,0ZM29.2,22.1s0,0,0,0h0s0,0,0,0ZM28.8,22.4h0s0,0,0,0c0,0,0,0,0,0,0,0,0,0,0,0ZM28.6,22.5s0,0,0,0t0,0s0,0,0,0t0,0ZM28.4,22.3h0s0,0,0,0h0c0,0,0,0,0,0ZM28.7,22.1s0,0,0,0c0,0,0,0,0,0,0,0,0,0,0,0,0,0,0,0,0,0ZM29.9,19.7s0,0,0,0c0,0,0,0,0,0,0,0,0,0,0,0s0,0,0,0h0ZM29.9,20.2s0,0,0,0c0,0,0,0,0,0t0,0s0,0,0,0ZM29.6,20.2s0,0,0,0,0,0,0,0,0,0,0,0c0,0,0,0,0,0ZM30,20.5s0,0,0,0t0,0s0,0,0,0,0,0,0,0ZM29.6,20.6h0s0,0,0,0t0,0h0ZM29.2,19.1s0,0,0,0,0,0,0,0,0,0,0,0,0,0,0,0ZM29.1,20.1s0,0,0,0,0,0,0,0c0,0,0,0,0,0s0,0,0,0ZM29.4,20.3s0,0,0,0c0,0,0,0,0,0s0,0,0,0h0s0,0,0,0ZM29.1,20.5s0,0,0,0t0,0h0ZM29.8,20.7s0,0,0,0,0,0,0,0c0,0,0,0,0,0s0,0,0,0ZM29.9,21s0,0,0,0,0,0,0,0,0,0,0,0c0,0,0,0,0,0ZM29.6,21.3s0,0,0,0,0,0,0,0,0,0,0,0,0,0,0,0ZM29.9,21.4s0,0,0,0c0,0,0,0,0,0,0,0,0,0,0,0s0,0,0,0ZM29.7,21.6s0,0,0,0h0ZM29.4,20.6s0,0,0,0,0,0,0,0c0,0,0,0,0,0s0,0,0,0ZM29.5,20.9s0,0,0,0c0,0,0,0,0,0,0,0,0,0,0,0,0,0,0,0,0,0ZM29.2,21.2s0,0,0,0,0,0,0,0,0,0,0,0,0,0,0,0ZM29.5,21.5s0,0,0,0,0,0,0,0,0,0,0,0,0,0,0,0ZM29.3,21.4s0,0,0,0c0,0,0,0,0,0h0ZM29.2,17.5s0,0,0,0,0,0,0,0c0,0,0,0,0,0,0,0,0,0,0,0ZM29.6,18.1s0,0,0,0t0,0s0,0,0,0c0,0,0,0,0,0ZM29.2,18.4s0,0,0,0,0,0,0,0c0,0,0,0,0,0,0,0,0,0,0,0ZM29.4,18.6s0,0,0,0c0,0,0,0,0,0s0,0,0,0h0s0,0,0,0ZM29.3,18.8h0s0,0,0,0h0ZM29,17.9s0,0,0,0,0,0,0,0,0,0,0,0,0,0,0,0ZM28.6,18.2s0,0,0,0c0,0,0,0,0,0,0,0,0,0,0,0,0,0,0,0,0,0ZM28.9,18.4s0,0,0,0,0,0,0,0h0s0,0,0,0ZM28.8,18.7h0s0,0,0,0t0,0s0,0,0,0ZM29.6,18.7s0,0,0,0c0,0,0,0,0,.1s0,0,0,0,0,0,0,0ZM29.5,19.1s0,0,0,0,0,0,0,0,0,0,0,0c0,0,0,0,0,0ZM29.1,19.4s0,0,0,0c0,0,0,0,0,0,0,0,0,0,0,0s0,0,0,0ZM29.3,19.7s0,0,0,0,0,0,0,0c0,0,0,0,0,0s0,0,0,0ZM29.2,19.8s0,0,0,0h0q0,0,0,0h0ZM29,18.7s0,0,0,0,0,0,0,0,0,0,0,0,0,0,0,0ZM28.8,19s0,0,0,0,0,0,0,0t0,0s0,0,0,0ZM28.8,19.4s0,0,0,0,0,0,0,0c0,0,0,0,0,0s0,0,0,0ZM28.9,19.7s0,0,0,0c0,0,0,0,0,0h0s0,0,0,0ZM28.7,19.7h0s0,0,0,0h0ZM29.8,19.1s0,0,0,0c0,0,0,0,0,0h0ZM29.4,19h0s0,0,0,0h0s0,0,0,0h0ZM29.6,19.5s0,0,0,0c0,0,0,0,0,0t0,0s0,0,0,0ZM29.4,17.8s0,0,0,0,0,0,0,0,0,0,0,0c0,0,0,0,0,0h0ZM29,17.7s0,0,0,0c0,0,0,0,0,0s0,0,0,0c0,0,0,0,0,0ZM28.8,17.7s0,0,0,0h0s0,0,0,0h0ZM29.6,18.4h0s0,0,0,0c0,0,0,0,0,0ZM29.8,19.3s0,0,0,0,0,0,0,0,0,0,0,0,0,0,0,0ZM29.4,19.5s0,0,0,0t0,0h0,0ZM29.7,20.4s0,0,0,0h0s0,0,0,0ZM29.4,20s0,0,0,0h0c0,0,0,.1,0,.1,0,0,0,0,0,0h0ZM29.6,19.8h0s0,0,0,0t0,0ZM29.4,21.3s0,0,0,0c0,0,0,0,0,0h0s0,0,0,0h0ZM29.2,20.3s0,0,0,0h0s0,0,0,0h0ZM29,20.1s0,0,0,0t0,0s0,0,0,0,0,0,0,0ZM28.8,20.2h0s0,0,0,0t0,0s0,0,0,0h0ZM29.2,20.9s0,0,0,0c0,0,0,0,0,0,0,0,0,0,0,0h0ZM29,20.7h0s0,0,0,0c0,0,0,0,0,0s0,0,0,0ZM28.8,20.7h0s0,0,0,0c0,0,0,0,0,0,0,0,0,0,0,0h0ZM28.8,20.4s0,0,0,0,0,0,0,0,0,0,0,0,0,0,0,0ZM28.9,21s0,0,0,0,0,0,0,0c0,0,0,0,0,0,0,0,0,0,0,0ZM29.1,21.5s0,0,0,0c0,0,0,0,0,0s0,0,0,0c0,0,0,0,0,0ZM28.8,21.6s0,0,0,0t0,0h0ZM28.6,21.2s0,0,0,0c0,0,0,0,0,0s0,0,0,0,0,0,0,0ZM28.6,21.5s0,0,0,0c0,0,0,0,0,0t0,0s0,0,0,0ZM28.6,21.9h0s0,0,0,0c0,0,0,0,0,0t0,0ZM29.1,21.8s0,0,0,0t0,0s0,0,0,0,0,0,0,0ZM28.8,21.9s0,0,0,0h0c0,0,0,0,0,0,0,0,0,0,0,0ZM29.3,21.7s0,0,0,0,0,0,0,0c0,0,0,0,0,0t0,0ZM29.6,21.8s0,0,0,0c0,0,0,0,0,0,0,0,0,0,0,0,0,0,0,0,0,0ZM29.8,21.8s0,0,0,0c0,0,0,0,0,0s0,0,0,0c0,0,0,0,0,0ZM29.1,19h0s0,0,0,0h0ZM29.8,19.9s0,0,0,0,0,0,0,0,0,0,0,0t0,0ZM29.1,23.3h0s0,0,0,0h0s0,0,0,0ZM28.8,23.3s0,0,0,0h0s0,0,0,0h0s0,0,0,0ZM28.4,22.9s0,0,0,0t0,0h0s0,0,0,0ZM28.9,23.6s0,0,0,0c0,0,0,0,0,0,0,0,0,0-.1,0,0,0,0,0,0,0ZM28.8,23.8s0,0,0,0c0,0,0,0,0,.1,0,0,0,0,0,0,0,0,0,0,0,0ZM28.5,23.8s0,0,.1,0c0,0,0,0,0,0,0,0,0,0,0,0,0,0,0,0,0,0ZM28.6,24.1s0,0,0,0h0c0,.1,0,.1,0,0,0,0,0,0,0,0ZM28.5,24.3s0,0,0,0c0,0,0,0,0,0h0s0,0,0,0ZM28.5,23.2s0,0,0,0c0,0,0,0,0,.1,0,0,0,0-.1,0,0,0,0,0,0,0ZM28.5,23.5h0c0,0,0,0,0,0,0,0,0,0,0,0h0ZM28.2,23.5s0,0,0,0c0,0,0,0,0,0,0,0,0,0-.1,0,0,0,0,0,0,0h0ZM28.3,24h0s0,0,0,0h0s0,0,0,0ZM28.2,23.8h0c0,0,0,0,0,0t0,0ZM28.3,23.7s0,0,0,0h0c0,0,0,0,0,0,0,0,0,0,0,0ZM28.3,23.3s0,0,0,0h0c0,0,0,0,0,0,0,0,0,0,0,0ZM28.2,23h0c0,0,0,0,0,0,0,0,0,0,0,0ZM28,23s0,0,0,0h0s0,0,0,0c0,0,0,0,0,0ZM28.2,22.8s0,0,0,0c0,0,0,0,0,0,0,0,0,0,0,0,0,0,0,0,0,0h0ZM28,23.3s0,0,0,0c0,0,0,0,0,0,0,0,0,0,0,0,0,0,0,0,0,0ZM27.3,24.9h0c0,0,0,0,0,0,0,0,0,0,0,0,0,0,0,0,0,0ZM27.5,25s0,0,0,0h0s0,0,0,0c0,0,0,0,0,0ZM27.7,24.9h0c0,.1,0,.1,0,.1,0,0,0,0,0-.1,0,0,0,0-.1,0h0ZM27.8,24.6h0c0,.1.1.1.1.1h0c0-.1-.1-.1-.1-.1h0ZM28.1,24.7s0,0,0,0h0c0,0,0-.1,0,0ZM28.1,24.5h0s0,0,0,0c0,0,0,0,0,0h0ZM27.4,24.7s0,0,0,0c0,0,0,0,0,0,0,0,0,0,0,0,0,0,0,0,0,0h0ZM27.4,24.3s0,0,0,.1h0s0,0,0-.1h0ZM28,24.4s0,0,0,0h0s0,0,0,0h0ZM27.8,24.2h0c0,0,0,0,0,0t0,0s0,0,0,0h0ZM27.7,24.4h0c0,0,0,0,0,0h0s0,0,0,0ZM27.2,24.4s0,0,0,0h0s0,0,0,0ZM27.3,24.5h0s0,0,0,0c0,0,0,0,0,0,0,0,0,0,0,0ZM27.3,24.7s0,0,0,0h0c0,0,0,0,0,0Z"/>
        <path class="cls-2" d="M27.1,24.6h0s0,0,0,0h0Z"/>
        <path class="cls-1" d="M27,24.4h0q0,.1,0,0s0,0,0,0c0,0,0,0,0,0ZM26.9,24.2h0c0,0,0,0,0,0h0q0,0,0,0h0ZM27.2,24.1s0,0,0,0c0,0,0,0,0,0h0q0,0,0,0ZM27.7,24s0,0,0,0c0,0,0,0,0,0,0,0,0,0,0,0,0,0,0,0,0,0ZM27.6,23.7h0s0,0,0,0t0,0s0,0,0,0ZM27.2,23.8h0q0,0,0,0h0c0,0,0,0,0,0ZM27.4,23.6h0c0,0,0,.1,0,0h0c0,0,0,0,0,0ZM27.4,23.9h0s0,0,0,0h0c0,0,0,0,0,0ZM27.9,23.8h0q0,0,0,0s0,0,0,0c0,0,0,0,0,0ZM27.9,23.6s0,0,0,0h0s0,0,0,0h0ZM28,24.1s0,0,0,0h0s0,0,0,0c0,0,0,0,0,0ZM28.2,24.3s0,0,0,0c0,0,0,0,.1,0,0,0,0,0,0,0,0,0,0,0,0,0ZM28.3,24.4s0,0,0,0c0,0,0,0,0,0,0,0,0,0,0,0,0,0,0,0,0,0ZM28.9,23.1s0,0,.1,0c0,0,0,0,0,0,0,0,0,0,0,0,0,0,0,0,0,0ZM28.2,22.6h0s0,0,0,0t0,0s0,0,0,0h0ZM28.8,22.6s0,0,0,0c0,0,0,0,0,0h0q0-.1,0,0ZM29.2,18.1h0s0,0,0,0ZM29,18.2h0s0,0,0,0t0,0ZM28.9,21.3h0s0,0,0,0h0ZM30,20.8h0s0,0,0,0t0,0ZM29.6,18.9h0s0,0,0,0c0,0,0,0,0,0ZM27.7,23.4h0s0,0,0,0c0,0,0,0,0,0h0ZM28.6,17.9s0,0,0,0,0,0,0,0,0,0,0,0,0,0,0,0ZM27,24.1h0s0,0,0,0c0,0,0,0,0,0t0,0ZM29.3,22.4s0,0,0,0h0s0,0,0,0ZM20.7,24.3s0,0,0,0h0q0,0,0,0ZM28.3,18.9s0,0,0,0c0,0,0,0,0,0,0,0,0,0,0,0s0,0,0,0ZM28.6,19.1h0s0,0,0,0c0,0,0,0,0,0s0,0,0,0ZM28.4,19.3h0s0,0,0,0c0,0,0,0,0,0h0ZM28.5,19.4s0,0,0,0c0,0,0,0,0,0s0,0,0,0c0,0,0,0,0,0h0ZM28.6,18.5s0,0,0,0,0,0,0,0c0,0,0,0,0,0,0,0,0,0,0,0ZM28.3,18.6h0s0,0,0,0c0,0,0,0,0,0h0ZM28.3,18.5s0,0,0,0c0,0,0,0,0,0t0,0s0,0,0,0ZM28.1,18.5h0s0,0,0,0h0ZM28.6,18.8s0,0,0,0c0,0,0,0,0,0t0,0s0,0,0,0ZM28.4,19.1s0,0,0,0t0,0h0ZM28.1,18.7s0,0,0,0c0,0,0,0,0,0h0s0,0,0,0ZM28.5,19.6s0,0,0,0,0,0,0,0,0,0,0,0t0,0h0ZM28.3,18s0,0,0,0,0,0,0,0c0,0,0,0,0,0,0,0,0,0,0,0ZM28,18.2s0,0,0,0c0,0,0,0,0,0h0s0,0,0,0ZM28.4,18.2s0,0,0,0,0,0,0,0,0,0,0,0c0,0,0,0,0,0ZM28.1,17.2s0,0,0,0c0,0,0,0,0,0s0,0,0,0c0,0,0,0,0,0ZM27.9,17.6s0,0,0,0h0s0,0,0,0h0ZM28.2,17.7s0,0,0,0h0c0,0,0,.1,0,.1,0,0,0,0,0,0ZM28.1,18h0s0,0,0,0h0s0,0,0,0ZM27.7,17.1s0,0,0,0c0,0,0,0,0,0,0,0,0,0,0,0,0,0,0,0,0,0h0ZM28.2,16.9s0,0,0,0c0,0,0,0,0,0,0,0,0,0,0,0s0,0,0,0h0ZM28,18.4s0,0,0,0c0,0,0,0,0,0,0,0,0,0,0,0s0,0,0,0ZM28.5,17.7s0,0,0,0h0q0,0,0,0ZM27.6,17s0,0,0,0h0s0,0,0,0c0,0,0,0,0,0ZM27.3,16.9h0s0,0,0,0c0,0,0,0,0,0h0ZM28.3,16.6s0,0,0,0h0c0,0,0,.1,0,.1s0,0,0,0ZM28.7,19.9s0,0,0,0h0s0,0,0,0c0,0,0,0,0,0ZM28.6,20.5h0s0,0,0,0c0,0,0,0,0,0,0,0,0,0,0,0ZM28.6,20.9s0,0,0,0h0c0,0,0,0,0,0,0,0,0,0,0,0ZM27.7,17.5s0,0,0,0c0,0,0,0,0,0h0s0,0,0,0ZM27.5,17.3h0c0,0,0,0,0,0h0ZM27.2,16.7s0,0,0,0h0s0,0,0,0h0ZM24.1,15.7h0c0,0,0,0,0,0,0,0,0,0,0,0ZM23.9,15.5s0,0,0,0,0,0,0,0,0,0,0,0,0,0,0,0h0ZM23.5,15.7s0,0,0,0c0,0,0,0,0,0s0,0,0,0,0,0,0,0h0ZM23.1,15.5s0,0,0,0t0,0s0,0,0,0h0s0,0,0,0ZM23.2,15.8s0,0,0,0c0,0,0,0,0,0s0,0,0,0c0,0,0,0,0,0ZM24.3,15.7s0,0,0,0h0s0,0,0,0ZM20.9,16.2s0,0,0,0c0,0,0,0,0,0,0,0,0,0,0,0,0,0,0,0,0,0ZM21.4,16s0,0,0,0h0s0,0,0,0c0,0,0,0,0,0h0ZM21.5,16.3s0,0,0,0c0,0,0,0,0,0s0,0,.1,0c0,0,0,0,0,0h0ZM21.7,15.9s0,0,0,0c0,0,0,0,0,0s0,0,0,0c0,0,0,0,0,0ZM21.8,16.1s0,0,0,0c0,0,0,0,0,0h0s0,0,0,0ZM21.9,15.9s0,0,0,0c0,0,0,0,0,0s0,0,0,0,0,0,0,0ZM22.2,15.8s0,0,0,0c0,0,0,0,0,0s0,0,0,0,0,0,0,0ZM22.5,15.9s0,0,0,0c0,0,0,0,0-.1,0,0,0,0,0,0,0,0,0,0,0,0ZM22.6,15.6s0,0,0,0c0,0,0,0,0,0s0,0,0,0c0,0,0,0,0,0ZM22.7,15.7s0,0,0,0t0,0h0s0,0,0,0ZM22.2,16s0,0,0,0,0,0,0,0,0,0,0,0c0,0,0,0,0,0h0ZM20.1,17s0,0,0,0,0,0,0,0h0c0,0,0,.1,0,.1ZM20.1,16.8s-.1,0-.1,0,0,0,0-.1c0,0,.1,0,.1,0,0,0,0,0,0,0ZM20.6,16.7s0,0-.1,0c0,0,0,0,0,0s0,0,0,0,0,0,0,.1h0ZM21.1,16.6s0,0,0,0c0,0,0,0,0,0,0,0,0,0,0,0,0,0,0,0,0,0ZM20.3,16.5s0,0,0,0c0,0,0,0,0,0h0s0,0,0,0ZM20.5,16.9s0,0,0,0h0s0,0,0,0c0,0,0,0,0,0ZM20.9,16.6s0,0,0,0,0,0,0,0c0,0,0,0,0,0,0,0,0,0,0,0ZM19.9,16.9h0c0,0,0,0,0,0h0ZM20.6,16.4s0,0,0,0,0,0,0,0c0,0,0,0,0,0,0,0,0,0,0,0ZM20.9,16.7h0s0,0,0,0h0ZM21.7,16.1s0,0,0,0c0,0,0,0,0,0,0,0,0,0,0,0h0s0,0,0,0ZM21.2,16.4s0,0,0,0h0s0,0,0,0h0ZM22.9,15.8s0,0,0,0c0,0,0,0,0,0,0,0,0,0,0,0,0,0,0,0,0,0ZM23,15.6s0,0,0,0,0,0,0,0h0c0,0,0,.1,0,.1ZM21.2,16.2s0,0,0,0,0,0,0,0h0c0,0,0,.1,0,.1ZM24.6,15.6s0,0,0,0,0,0,0,0c0,0,0,0,0,0,0,0,0,0,0,0h0ZM24.9,15.5s0,0,0,0c0,0,0,0,0,0,0,0,0,0,0,0,0,0,0,0,0,0h0ZM25.2,15.7s0,0,0,0c0,0,0,0,0,0,0,0,0,0,0,0s0,0,0,0ZM25.3,15.9s0,0,0,0c0,0,0,0,0,0,0,0,0,0,0,0s0,0,0,0ZM25.5,15.8s0,0,0,0c0,0,0,0,0,0,0,0,0,0,0,0s0,0,0,0ZM25.7,15.8s0,0,0,0c0,0,0,0,0,0h0q0,0,0,0ZM25.6,16s0,0,0,0,0,0,0,0c0,0,0,0,0,0t0,0ZM27.7,17s0,0,0,0c0,0,0,0,0,0,0,0,0,0,0,0s0,0,0,0h0ZM27.3,16.7h0s0,0,0,0h0s0,0,0,0ZM27,17s0,0,0,0c0,0,0,0,0,0,0,0,0,0-.1,0,0,0,0,0,0,0ZM27.8,17.8s0,0,0,0c0,0,0,0,0,0,0,0,0,0,0,0,0,0,0,0,0,.1ZM26.6,16.3s0,0,0,0c0,0,0,0,0,0,0,0,0,0,0,0,0,0,0,0,0,0ZM26.2,16.4s0,0,0,0,0,0,0,0c0,0,0,0,0,0,0,0,0,0,0,0ZM26.2,16s0,0,0,0c0,0,0,0,0,0,0,0,0,0,0,0,0,0,0,0,0,0ZM26.1,16.1h0s0,0,0,0h0s0,0,0,0ZM26.5,16.6s0,0,0,0c0,0,0,0,0,0,0,0,0,0,0,0,0,0,0,0,0,.1ZM26,16.3s0,0,0,0c0,0,0,0,0,0,0,0,0,0,0,0,0,0,0,0,0,0Z"/>
        <path class="cls-1" d="M28.2,18.8s0,0,0,0c0,0,0,0,0,0,0,0,0,0,0,0,0,0,0,0,0,.1ZM28.2,18.2s0,0,0,0c0,0,0,0,0,0,0,0,0,0,0,0,0,0,0,0,0,0ZM28,17.5s.1,0,.1,0c0,0,0,0,0-.1,0,0,0,0,0,0,0,0,0,0,0,.1h0ZM27.4,17.4h0c0,0,0,0,0,0h0ZM28.2,17.4h0s0,0,0,0c0,0,0,0,0,0,0,0,0,0,0,0ZM28.5,16.6s0,0,0,0c0,0,0,0,0,0h0s0,0,0,0ZM28,17.7s0,0,0,0c0,0,0,0,0,0h0s0,0,0,0ZM27.6,17.3s0,0,0,0h0c0,0,0,0,0,0h0ZM27.9,17.3h0s0,0,0,0h0s0,0,0,0ZM27.6,17.6s0,0,0,0c0,0,0,0,0,0h0s0,0,0,0ZM27,16.7h0s0,0,0,0h0s0,0,0,0ZM27.2,17.1s0,0,0,0h0c0,0,0,0,0,0,0,0,0,0,0,0h0ZM27.4,17.1s0,0,0,0h0s0,0,0,0c0,0,0,0,0,0ZM25.8,16.1s0,0,0,0c0,0,0,0,0,0,0,0,0,0-.1,0,0,0,0,0,0,0ZM25.9,15.9s0,0,0,0c0,0,0,0,0,0h0s0,0,0,0ZM27.8,18s0,0,0,0c0,0,0,0,0,0h0s0,0,0,0ZM27.4,16.9s0,0,0,0c0,0,0,0,0,0,0,0,0,0,0,0s0,0,0,0ZM24.6,15.8s0,0,0,0c0,0,0,0,0,0s0,0,0,0,0,0,0,0ZM22,15.7s0,0,0,0h0s0,0,0,0h0ZM20.3,16.8h0s0,0,0,0h0ZM19.2,17.7s0,0,0,0c0,0,0,0,0,0s0,0,0,0,0,0,0,0ZM19.6,17.2s0,0,0,0c0,0,0,0,0,0,0,0,0,0,0,0,0,0,0,0,0,0h0ZM20,17.4s0,0,0,0c0,0,0,0,0,0,0,0,0,0,0,0s0,0,0,0ZM20.3,17.1s0,0,0,0t0,0h0s0,0,0,0ZM19.6,17.7s0,0,0,0c0,0,0,0,0,0h0c0,0,0,.1,0,.1ZM19.9,17.9s0,0,0,0c0,0,0,0,0,0s0,0,0,0,0,0,0,0ZM20.1,17.6s0,0,0,0c0,0,0,0,0,0,0,0,0,0,0,0s0,0,0,0ZM20.3,17.4s0,0-.1,0c0,0,0,0,0,0s0,0,0,0,0,0,0,.1ZM19.4,17.7s0,0,0,0c0,0,0,0,0,0s0,0,0,0t0,0ZM19.6,17.9s0,0,0,0c0,0,0,0,0,0h0s0,0,0,0ZM19.7,17.4h0s0,0,0,0h0s0,0,0,0ZM19.9,17.6s0,0,0,0c0,0,0,0,0,0,0,0,0,0,0,0h0ZM19.8,18.1s0,0,0,0c0,0,0,0,0,0s0,0,0,0h0ZM18.9,18.5s0,0,0,0c0,0,0,0,0,0,0,0,0,0,0,0,0,0,0,0,0,0ZM19.5,18.6s0,0,0,0c0,0,0,0,0,0s0,0,0,0c0,0,0,0,0,0h0ZM19.1,18.8s0,0,0,0h0c0,0,0,.1,0,.1s0,0,0,0ZM18.4,18.6h0s0,0,0,0h0s0,0,0,0ZM19.1,18.2h0s0,0,0,0h0s0,0,0,0ZM19.1,17.9s0,0,0,0c0,0,0,0,0,0s0,0,0,0,0,0,0,0ZM19,18.3s0,0,0,0h0c0,0,0,.1,0,.1s0,0,0,0ZM19.2,18.4h0s0,0,0,0t0,0s0,0,0,0ZM19.5,18.2s0,0,0,0c0,0,0,0,0,0s0,0,0,0,0,0,0,0h0ZM19.4,18.4h0s0,0,0,0,0,0,0,0c0,0,0,0,0,0ZM19.1,18h0s0,0,0,0t0,0s0,0,0,0ZM19.3,18.1h0s0,0,0,0h0s0,0,0,0ZM19.3,17.9s0,0,0,0h0s0,0,0,0h0ZM19.6,18.3s0,0,0,0h0s0,0,0,0c0,0,0,0,0,0h0ZM18.8,18h0s0,0,0,0h0s0,0,0,0ZM19.4,18.8h0s0,0,0,0h0s0,0,0,0h0ZM24.2,15.5s0,0,0,0,0,0,0,0c0,0,0,0,0,0,0,0,0,0,0,0ZM23.8,15.2h0s0,0,0,0c0,0,0,0,0,0h0ZM24.1,15.2s0,0,0,0h0s0,0,0,0ZM24.4,15.5h0s0,0,0,0c0,0,0,0,0,0h0ZM23.3,15.4s0,0,0,0h0s0,0,0,0h0ZM23.4,15.6s0,0,0,0c0,0,0,0,0,0,0,0,0,0,0,0,0,0,0,0,0,0ZM23.7,15.5s0,0,0,0,0,0,0,0c0,0,0,0,0,0,0,0,0,0,0,0ZM23.9,15.7s0,0,0,0c0,0,0,0,0,0,0,0,0,0,0,0s0,0,0,0ZM23.5,15.4s0,0,0,0c0,0,0,0,0,0,0,0,0,0,0,0s0,0,0,0ZM22.6,15.2s0,0,0,0c0,0,0,0,0,0,0,0,0,0,0,0,0,0,0,0,0,0ZM25,15.1s0,0,0,0h0s0,0,0,0h0ZM25,15.8s0,0,0,0h0s0,0,0,0h0ZM20.7,16.9s0,0,0,0h0s0,0,0,0c0,0,0,0,0,0h0ZM19.4,17.9h0s0,0,0,0h0s0,0,0,0h0ZM18.7,18.3s0,0,0,0c0,0,0,0,0,0h0s0,0,0,0ZM18.2,17.8s0,0,0,0c0,0,0,0,0,0,0,0,0,0,0,0h0ZM18.2,18.3s0,0,0,0c0,0,0,0,0,0h0s0,0,0,0ZM28.1,17.8s0,0,0,0c0,0,0,0,0,0h0s0,0,0,0ZM29.2,17.8s0,0,0,0,0,0,0,0c0,0,0,0,0,0s0,0,0,0ZM29.4,18.1s0,0,0,0h0q0,0,0,0h0s0,0,0,0ZM29.4,18.3s0,0,0,0c0,0,0,0,0,0s0,0,0,0c0,0,0,0,0,0h0ZM28,22.4s0,0,0,0,0,0,0,0c0,0,0,0,0,0,0,0,0,0-.1,0ZM28.3,22.5s0,0,0,0t0,0s0,0,0,0c0,0,0,0,0,0ZM28.4,22.2h0c0,0,0,0,0,0h0s0,0,0,0ZM27.7,22.5s0,0,0,.1c0,0,0,0,0,0,0,0,0,0,0-.1,0,0,0,0,0,0ZM28.1,22.1s0,0,0,0c0,0,0,0,0,0,0,0,0,0,0,0,0,0,0,0,0,0ZM28,22.1s0,0,0,0c0,0,0,0,0,0h0s0,0,0,0ZM27.8,22.3s0,0,0,0h0s0,0,0,0c0,0,0,0,0,0ZM28.4,20.4s0,0,0,0,0,0,0,0,0,0,0,0c0,0,0,0,0,0ZM28.4,20.8s0,0,0,0h0q0,0,0,0h0ZM28.6,21s0,0,0,0c0,0,0,0,0,0t0,0s0,0,0,0ZM28.4,21.4s0,0,0,0h0c0,0,0,.1,0,.1s0,0,0,0ZM28.4,21.8s0,0,0,0c0,0,0,0,0,0h0s0,0,0,0ZM28.3,21.1s0,0,0,0h0c0,0,0,.1,0,.1s0,0,0,0ZM28.2,21.7s0,0,0,0,0,0,0,0,0,0,0,0h0ZM28.1,21.6s0,0,0,0h0,0s0,0,0,0ZM28.4,19.7s0,0,0,0,0,0,0,0h0s0,0,0,0ZM28.3,19.7s0,0,0,0c0,0,0,0,0,0,0,0,0,0,0,0h0ZM28.5,20.6s0,0,0,0h0s0,0,0,0h0s0,0,0,0ZM28.5,20.1s0,0,0,0c0,0,0,0,0,0h0s0,0,0,0ZM28.2,21.4s0,0,0,0t0,0s0,0,0,0c0,0,0,0,0,0h0ZM28.1,21.9s0,0,0,0c0,0,0,0,0,0,0,0,0,0,0,0t0,0ZM28.3,22s0,0,0,0c0,0,0,0,0,0,0,0,0,0,0,0s0,0,0,0ZM28.5,22s0,0,0,0,0,0,0,0h0s0,0,0,0ZM28.5,20.2s0,0,0,0h0c0,0,0,.1,0,0,0,0,0,0,0,0h0ZM28,22.5s0,0,0,0c0,0,0,0,0,0h0s0,0,0,0ZM28.2,19.1h0s0,0,0,0c0,0,0,0,0,0t0,0h0ZM28.6,21.7s0,0,0,0t0,0s0,0,0,0h0ZM28.4,19.9s0,0,0,0t0,0s0,0,0,0c0,0,0,0,0,0ZM28.3,22.2s0,0,0,0c0,0,0,0,0,0s0,0,0,0c0,0,0,0,0,0Z"/>
        <path class="cls-1" d="M28.1,22.5s0,0,0,0t0,0s0,0,0,0c0,0,0,0,0,0ZM27.7,22.4h0s0,0,0,0h0s0,0,0,0ZM27.9,22.7s0,0,0,0c0,0,0,0,0,.1,0,0,0,0-.1,0,0,0,0,0,0,0h0ZM27.8,22.9s0,0,0,0c0,0,0,0,0,0,0,0,0,0-.1,0h0c0,0,0,0,0,0ZM27.4,23s0,0,.1,0c0,0,0,0,0,.1,0,0,0,0,0,0,0,0,0,0,0,0ZM27.6,23.2s0,0,0,0h0c0,0,0,0,0,0,0,0,0,0,0,0ZM27.4,23.4s0,0,0,0c0,0,0,0,0,0h0s0,0,0,0ZM27.6,22.7s0,0,0,0h0c0,0,0,0,0,0,0,0,0,0,0,0ZM27.3,23.2s0,0,0,0t0,0s0,0,0,0c0,0,0,0,0,0ZM26.7,24h0c0,0,0,.1,0,0h0c0,0,0,0,0,0ZM26.8,23.7h0c0,.1,0,.1.1.1h0c0-.1,0-.1-.1-.1h0ZM27,23.9h0q0,.1,0,0s0,0,0,0c0,0,0,0,0,0ZM27.1,23.6h0c0,0,0,0,0,0t0,0h0ZM26.5,23.9h0c0,.1,0,.1,0,.1,0,0,0,0,0-.1,0,0-.1,0-.1,0ZM26.9,23.5s0,0,0,0c0,0,0,0,0,0,0,0,0,0,0,0h0ZM27.2,23.4s0,0,0,0c0,0,0,0,.1,0,0,0,0,0,0,0,0,0,0,0,0,0h0ZM27.3,23.6s0,0,0,0c0,0,0,0,0,0,0,0,0,0,0,0,0,0,0,0,0,0ZM27.8,22.2s0,0,.1,0c0,0,0,0,0,0,0,0,0,0,0,0,0,0,0,0,0,0ZM20,23.5s0,0,0,0c0,0,0,0,0,0,0,0,0,0,0-.1,0,0,0,0,0,0h0ZM19.8,23.2s0,0,0,0h0s0,0,0,0c0,0,0,0,0,0ZM20,22.9s0,0,0,0c0,0,0,0,0,0,0,0,0,0,0,0,0,0,0,0,0,0ZM19.5,22.8s0,0,0,0c0,0,0,0,0,0h0c0,0,0,0,0,0ZM19.8,22.6h0s0,0,0,0t0,0s0,0,0,0ZM20,22.7s0,0,0,0c0,0,0,0,0,0,0,0,0,0,0,0s0,0,0,0h0ZM19.5,22.5s0,0,0,0c0,0,0,0,0,0s0,0,0,0h0ZM19.4,22.2s0,0,0,.1c0,0,0,0,0,0s0,0,0,0c0,0,0,0,0,0ZM19.7,22.3s0,0,0,0c0,0,0,0,0,0,0,0,0,0,0-.1,0,0,0,0,0,0ZM21,24.1s0,0,0,0c0,0,0,0,0,0,0,0,0,0,0,0s0,0,0,0ZM21,23.9h0s0,0,0,0c0,0,0,0,0,0,0,0,0,0,0,0ZM20.7,24.1s0,0,0,0c0,0,0,0,0,0,0,0,0,0,0,0,0,0,0,0,.1,0ZM20.6,23.7s0,0,0,.1c0,0,0,0,0,0,0,0,0,0,0,0,0,0,0,0,0,0ZM20.4,23.2s0,0,0,0c0,0,0,0,0,0,0,0,0,0,0,0,0,0,0,0,0,0ZM20.4,24h0s0,0,0,0h0c0,0,0,0,0,0ZM20.8,23.8s0,0,0,0h0s0,0,0,0h0ZM20.4,23.4s0,0,0,0t0,0s0,0,0,0c0,0,0,0,0,0ZM20.3,23.8s0,0,0,0c0,0,0,0,0,0,0,0,0,0,0,0,0,0,0,0,0,0ZM20.5,23.4h0s0,0,0,0t0,0s0,0,0,0ZM19.8,22.8h0c0,0,0,0,0,0h0s0,0,0,0ZM20.2,23s0,0,0,0c0,0,0,0,0,0h0c0,0,0,0,0,0ZM20.2,23.2h0q0,0,0,0h0s0,0,0,0ZM20,23.2s0,0,0,0c0,0,0,0,0,0,0,0,0,0,0,0,0,0,0,0,0,0ZM19.4,22.6h0s0,0,0,0c0,0,0,0,0,0h0ZM20.7,24h0s0,0,0,0h0s0,0,0,0ZM19.8,22.5s0,0,0,0c0,0,0,0,0,0,0,0,0,0,0,0,0,0,0,0,0,0h0ZM20.7,23.6h0s0,0,0,0c0,0,0,0,0,0,0,0,0,0,0,0h0ZM19.5,24.8h0s0,0,0,0h0s0,0,0,0ZM19.2,22s0,0,0,0c0,0,0,0,0,0,0,0,0,0,0,0,0,0,0,0,0,0ZM19.6,22h0s0,0,0,0c0,0,0,0,0,0h0ZM19.5,22h0s0,0,0,0c0,0,0,0,0,0,0,0,0,0,0,0ZM19.2,21.7s0,0,0,0c0,0,0,0,0,0h0s0,0,0,0h0ZM19.4,21.6s0,0,0,0c0,0,0,0,0,0h0s0,0,0,0ZM19.2,21.4s0,0,0,0,0,0,0,0c0,0,0,0,0,0,0,0,0,0,0,0ZM19.1,21.2s0,0,0,0c0,0,0,0,0,0s0,0,0,0c0,0,0,0,0,0ZM19.4,20.9s0,0,0,0,0,0,0,0,0,0,0,0c0,0,0,0,0,0ZM19.1,20.8s0,0,0,0,0,0,0,0c0,0,0,0,0,0,0,0,0,0,0,0ZM19,20.6h0s0,0,0,0c0,0,0,0,0,0,0,0,0,0,0,0ZM19.4,21.2s0,0,0,0t0,0s0,0,0,0c0,0,0,0,0,0ZM19.2,20.6h0s0,0,0,0c0,0,0,0,0,0ZM19.2,18.7h0s0,0,0,0c0,0,0,0,0,0t0,0ZM19.2,19.1s0,0,0,0c0,0,0,0,0,0,0,0,0,0,0,0,0,0,0,0,0,0h0ZM19.3,19.4s0,0,0,0c0,0,0,0,0,0,0,0,0,0,0,0s0,0,0,0h0ZM19.2,19.6s0,0,0,0,0,0,0,0,0,0,0,0,0,0,0,0ZM19.2,19.9s0,0,0,0t0,0s0,0,0,0,0,0,0,0ZM19,19.8h0s0,0,0,0ZM19.1,20.2h0s0,0,0,0h0s0,0,0,0ZM19.4,19.1s0,0,0,0h0s0,0,0,0h0ZM19.2,20.4s0,0,0,0c0,0,0,0,0,0,0,0,0,0,0,0,0,0,0,0,0,0ZM19,20.3s0,0,0,0h0c0,0,0,.1,0,.1s0,0,0,0h0ZM19.5,21.7s0,0,0,0,0,0,0,0,0,0,0,0c0,0,0,0,0,0ZM19,19.3s0,0,0,0c0,0,0,0,0,0h0ZM17.6,19.4s0,0,0,0h0s0,0,0,0t0,0ZM17.9,19.7s0,0,0,0c0,0,0,0,0,0h0s0,0,0,0Z"/>
      </g>
    </g>
  </g>
</svg>