<?xml version="1.0" encoding="UTF-8"?>
<svg xmlns="http://www.w3.org/2000/svg" version="1.1" viewBox="0 0 128 40.9">
  <defs>
    <style>
      .cls-1 {
        fill: #005ca1;
      }
    </style>
  </defs>
  <!-- Generator: Adobe Illustrator 28.7.1, SVG Export Plug-In . SVG Version: 1.2.0 Build 142)  -->
  <g>
    <g id="_图层_1" data-name="图层_1">
      <path class="cls-1" d="M28,7.2c.9,0,1.8,0,2.7.3.9.2,1.7.4,2.5.8,1.6.7,3,1.6,4.2,2.9,1.2,1.2,2.2,2.7,2.9,4.2.3.8.6,1.6.8,2.5.4,1.8.4,3.6,0,5.4-.3,1.7-1,3.3-2,4.8-1,1.4-2.2,2.6-3.6,3.6-1.4,1-3.1,1.7-4.8,2-1.8.4-3.6.4-5.4,0-.9-.2-1.7-.4-2.5-.8-1.6-.7-3-1.6-4.2-2.9-.6-.6-1.1-1.3-1.6-2-.5-.7-.9-1.5-1.2-2.3-.3-.8-.6-1.6-.8-2.5-.4-1.8-.4-3.6,0-5.4.2-.9.4-1.7.8-2.5,1-2.4,2.7-4.4,4.8-5.9,1.4-1,3.1-1.7,4.8-2,.9-.2,1.8-.3,2.7-.3h0ZM28,6.5c-7.8,0-14,6.3-14,14s6.3,14,14,14,14-6.3,14-14c0-7.8-6.3-14-14-14Z"/>
      <path class="cls-1" d="M28,11.2c1.8,0,3.7.5,5.2,1.6,1.5,1,2.7,2.4,3.4,4.1.5,1.1.7,2.4.7,3.6,0,1.8-.5,3.7-1.6,5.2-1,1.5-2.4,2.7-4.1,3.4-1.1.5-2.4.7-3.6.7-1.8,0-3.7-.5-5.2-1.6-1.5-1-2.7-2.4-3.4-4.1-.5-1.1-.7-2.4-.7-3.6,0-1.8.5-3.7,1.6-5.2,1.7-2.6,4.6-4.1,7.7-4.1ZM28,10.3c-5.6,0-10.2,4.6-10.2,10.2s4.6,10.2,10.2,10.2,10.2-4.6,10.2-10.2c0-5.6-4.6-10.2-10.2-10.2ZM29.3,32.4c0,.2,0,.5,0,.7,0,.2-.2.4-.4.4-.3,0-.6,0-.7-.3,0-.2-.1-.5,0-.8,0-.2,0-.4.2-.6.1-.3.5-.4.8-.3,0,0,0,0,0,0,.2.1.2.3.3.4,0,.1,0,.3,0,.4ZM29,32.5c0,0,0-.2,0-.3,0-.2,0-.3-.1-.5,0,0,0-.1-.2-.2-.2,0-.3,0-.4.2,0,.1,0,.3,0,.4,0,.2,0,.5,0,.7,0,.2,0,.3.1.4,0,0,.1.2.2.2.1,0,.2,0,.3-.2,0-.2.1-.4.1-.7h0ZM26.7,32.4c0,0-.1,0-.2.1-.3.2-.7,0-.7-.3,0-.3,0-.5.2-.7.2-.2.4-.2.6-.2.3,0,.4.2.4.5,0,.3,0,.5-.1.7-.2.5-.6.7-1.1.8,0,0,0,0,0,0,0,0,0,0,0,0,.4,0,.7-.4.8-.7,0,0,0,0,0,0ZM26,31.9c0,0,0,.2,0,.3,0,.2.2.3.3.3.2,0,.3-.1.4-.3,0-.2,0-.4,0-.6,0-.1-.2-.2-.3-.2-.1,0-.2.1-.3.2,0,0,0,.2,0,.2h0ZM30.4,33h.3c.1,0,.3-.1.4-.1,0,0,.1,0,.2-.1h0c0-.1,0,0,0,0s0,0,0,0c0,.1,0,.2,0,.3,0,0,0,0,0,0-.3,0-.7.1-1,.2,0,0,0,0,0,0,0,0,0,0,0,0,.2-.2.3-.5.4-.7.1-.2.2-.3.2-.5,0-.1,0-.3,0-.4-.1-.2-.4-.2-.6,0,0,0,0,.1,0,.2,0,0,0,0,0,0,0,0,0,0,0,0,0,0,0-.1,0-.2,0,0,0-.1,0-.2.2-.1.3-.2.6-.2.2,0,.3.2.4.4,0,.2,0,.4,0,.6-.1.3-.3.5-.5.8,0,0,0,0,0,0ZM23.8,32.6c.2,0,.2,0,.2-.1.1-.4.3-.8.4-1.2,0,0,0,0,0,0,0,0,0,0,0-.1,0,0,0,0-.1,0,0,0,0,0,0,0,0,0,0,0,0,0,0,0,.2,0,.3,0,0,0,.1,0,.2,0,0,0,0,0,0,0,0,0,0,0,0,0-.2.5-.4,1-.6,1.6,0,.1,0,.1,0,.2,0,0,0,0,0,0,0,0,0,0,0,0,0,0,0,0,0,0-.2,0-.4-.1-.6-.2h-.1s0,0,0,0c0,0,0,0,0,0,0,0,0,0,.1,0ZM22.7,30.6c0,.2-.1.3-.3.3-.2,0-.3-.1-.3-.3s.2-.3.3-.3c.2,0,.3.2.3.3ZM32.8,30.8c.2,0,.3.1.3.3,0,.2-.1.3-.3.3,0,0,0,0,0,0-.2,0-.3-.1-.3-.3,0-.2.2-.3.3-.3Z"/>
      <path class="cls-1" d="M40.1,18.8c0,0-.1,0-.2,0-.3,0-.7,0-1,0h0c0,0,0,0,0,.1,0,0,0,.1,0,.2,0,0,0,0,0,0,0,0,0,0,0,0,0-.3,0-.6-.1-.9,0-.1,0-.2-.1-.3,0,0,0,0,0,0,0,0,0,0,0,0,.1.2.1.1.3,0,0,0,.1-.1.2-.2,0,0,0,0,0,0,0-.2-.1-.5-.2-.7,0,0,0,0,0,0-.1,0-.2,0-.4,0,0,0-.1,0,0,0,0,0,0,0,0,.1,0,0,0,0,0,0,0,0,0,0,0,0,0-.2,0-.4-.1-.5,0,0,0,0,0,0,0,0,0,0,0,0,0,.2.3.2.5.2.3,0,.5,0,.8.1.2,0,.4,0,.6,0,0,0,0,0,.1,0,0,0,0,0,0,0,0,0,0,0,0,0-.1.1-.3.2-.4.3-.3.3-.7.5-1,.8,0,0-.1.3,0,.4,0,0,0,0,0,0,.2,0,.5,0,.7,0,.2,0,.4,0,.6,0,0,0,.1,0,.2,0,0,0,0,0,0,0,0,0,0-.2,0-.2,0,0,0,0,0,0,0,0,0,0,0,0,0,.1,0,.3,0,.4,0,0,0,0,0,.1-.4.4-.8.8-1.2,1.2,0,0,0,0,0,0,.1,0,.3,0,.4,0,.2,0,.4,0,.7,0,0,0,.1,0,.2,0,0,0,0,0,0,0,0,0,0,0,0-.1,0,0,0,0,0,0,0,0,0,0,0,0,0,.2,0,.4,0,.6,0,0,0,0,0,0,0,0,0,0,0,0,0,0,0-.1,0-.2,0,0,0,0,0,0,0,0-.2,0-.3,0-.3,0-.6,0-.9,0-.1,0-.3,0-.4,0,0,0,0,0,0,0,0,0,0,0,0-.1.3-.3.5-.5.8-.8.2-.2.4-.4.6-.6,0,0,0,0,0,0h0ZM38.9,17c0,0,0,0,0,0,0,.2.1.4.2.5,0,0,0,0,0,0,.2-.1.4-.3.5-.4,0,0,0,0,0,0,0,0,0,0-.1,0-.2,0-.5,0-.7,0h0ZM17.1,19.2c-.2,0-.4-.2-.6-.3-.2,0-.4-.2-.6-.2,0,0-.1,0-.1,0,0,0,0,0,0,0s0,0,0,0c0,0,0,0,0,0,0,0,0-.2,0-.3,0,0,0-.2,0-.3,0,0,0,0,0,0s0,0,0,0h0c0,.2.1.2.2.3.5.2,1,.5,1.5.7,0,0,0,0,0,0,0,0,0,0,0,0l-1.1.3s0,0,0,0c0,0,0,0,0,0,.4.2.7.3,1.1.5,0,0,0,0,0,0,0,0,0,0,0,0l-1.5.4s0,0,0,0c-.1,0-.2,0-.3.2,0,0,0,0,0,0,0,0,0,0,0,0,0-.2,0-.4,0-.7,0,0,0,0,0,0,0,0,0,0,0,0,0,.2,0,.2.3.2.4,0,.8-.2,1.2-.3,0,0,0,0,0,0l-.9-.4s0,0-.1,0c0,0-.2,0-.2,0,0,0-.1,0-.1.1,0,0,0,0,0,0,0,0,0,0,0,0,0,0,0,0,0,0,0,0,0-.2,0-.3,0-.1,0-.2,0-.4,0,0,0,0,0,0,0,0,0,0,0,0,0,.2,0,.2.2.1.4,0,.8-.2,1.2-.3ZM38.1,24.4s0,0,0,0c0,0,0,.1-.1.2,0,0,0,0,0,0,0,0,0,0,0,0,.1-.2.2-.5.3-.7,0,0,0,0,0,0,0,0,0,0,0,0,0,0,0,.1,0,.2,0,0,0,.1,0,.1.2.1.5.2.7.3.2,0,.4.2.6.3.1,0,.1,0,.2,0,0,0,0,0,0-.1,0,0,0,0,0,0,0,0,0,0,0,0-.1.2-.2.5-.3.7,0,0,0,0,0,0,0,0,0,0,0,0,0,0,0-.1,0-.2,0,0,0-.1,0-.1-.2,0-.4-.2-.6-.3,0,0,0,0,0,0-.1.3-.2.6-.4.8,0,0,0,0,0,0,.2,0,.4.2.6.2,0,0,0,0,.1,0,0,0,0,0,.1-.1,0,0,0,0,0,0,0,0,0,0,0,0-.1.2-.2.5-.3.7,0,0,0,0,0,0,0,0,0,0,0,0,0,0,0-.1,0-.2,0,0,0-.1,0-.1-.3-.2-.7-.3-1.1-.5,0,0-.2,0-.3-.1,0,0,0,0-.1,0,0,0,0,0-.1.1,0,0,0,0,0,0,0,0,0,0,0,0,0-.2.2-.3.2-.5,0,0,0-.1,0-.2,0,0,0,0,0,0,0,0,0,0,0,0,0,0,0,.1,0,.2,0,0,0,.1,0,.1.2,0,.3.1.5.2.1,0,.1,0,.2,0,.1-.2.2-.5.3-.7,0,0,0,0,0,0-.2,0-.4-.2-.6-.3,0,0,0,0,0,0h0ZM16.5,22.5c0-.3,0-.5-.1-.8,0-.1,0-.1-.1,0-.2,0-.3,0-.5,0,0,0-.1,0-.1,0,0,0,0,.1,0,.2,0,0,0,0,0,0s0,0,0,0c0-.2,0-.4,0-.6,0,0,0,0,0-.1,0,0,0,0,0,0,0,0,0,0,0,0,0,0,0,0,0,.2,0,0,0,0,.1,0,.2,0,.3,0,.5,0,.2,0,.4,0,.5,0h.5c0,0,0-.1,0-.2,0,0,0-.1,0-.2,0,0,0,0,0,0s0,0,0,0c0,.1,0,.3,0,.4,0,.1,0,.2,0,.4,0,0,0,0,0,0,0,0,0,0,0,0h0c0-.2,0-.2-.1-.2-.2,0-.4,0-.6,0,0,0,0,0,0,0,0,.3,0,.5,0,.8,0,.1,0,.1.1.1.2,0,.4,0,.6,0,0,0,0,0,0,0v-.2s0,0,0,0c0,0,0,0,0,0,0,.3,0,.5,0,.8,0,0,0,0,0,0,0,0,0,0,0,0,0,0,0-.1,0-.2,0,0,0,0-.1,0-.2,0-.3,0-.5,0-.2,0-.4,0-.5,0h-.5c0,0,0,0,0,.1,0,0,0,.1,0,.2,0,0,0,0,0,0s0,0,0,0c0-.3,0-.5,0-.8,0,0,0,0,0,0,0,0,0,0,0,0,0,0,0,.1,0,.2,0,0,0,0,.1,0h.5c0,0,0,0,0,0,0,0,.1,0,0,0h0ZM17.2,25.3c.2,0,.3,0,.4.2,0,0,0,0,0,0,.1-.2.2-.5.3-.7,0-.1,0-.2,0-.3,0,0,0-.1,0-.1,0,0,0,0,0,0,0,.1.1.2.2.3,0,0,0,0,0,0-.2.3-.3.6-.5.8,0,0,0,.1,0,.2,0,.1,0,.1.2,0,.1,0,.3-.2.4-.2,0,0,0,0,0-.1,0,0,0-.1,0-.2,0,0,0,0,0,0,0,0,0,0,0,0,.1.2.2.5.4.7,0,0,0,0,0,0,0,0,0,0,0,0,0,0,0,0-.1-.1,0,0,0,0-.1,0-.4.2-.9.4-1.3.7,0,0,0,0,0,.2,0,0,0,.1,0,.2,0,0,0,0,0,0,0,0,0,0,0,0-.1-.3-.3-.6-.5-.9-.2-.3,0-.7.4-.7ZM17.3,25.5s0,0,0,0c-.2,0-.3.2-.3.4,0,.1.1.3.2.4,0,0,0,0,0,0,.2,0,.4-.2.6-.3,0,0,0,0,0,0,0,0,0-.2-.1-.2,0-.1-.2-.2-.4-.2h0ZM27.9,9.4c0,.1,0,.2,0,.3,0,0,0,0,0,.1,0,0,.1,0,.2,0,0,0,0,0,0,0s0,0,0,0c-.3,0-.5,0-.8,0,0,0,0,0,0,0,0,0,0,0,0,0,0,0,.1,0,.2,0,0,0,.1,0,.1-.1,0-.5,0-.9,0-1.4,0-.2,0-.2-.2-.2,0,0,0,0-.1,0,0,0,0,0,0,0s0,0,0,0c.2,0,.4,0,.6,0s.3,0,.4,0c.3,0,.5.3.4.5,0,.2-.2.4-.4.4,0,0,0,0,0,0,.1.2.3.4.4.6,0,.1.2.1.3.2,0,0,0,0,0,0,0,0,0,0,0,0,0,0,0,0,0,0-.1,0-.3,0-.5,0s0,0,0,0c-.2-.3-.4-.5-.6-.8,0,0,0,0,0,0,0,0,0,0,0,0q-.1,0-.1.1c0,0,0,.2,0,.2h0ZM27.9,8.5h0v.3s0,0,0,0c0,0,.2,0,.2,0,.2,0,.4,0,.4-.3,0-.2,0-.4-.3-.4-.1,0-.2,0-.4,0,0,0,0,0,0,0v.3h0ZM20.1,30.2c-.1-.1-.2-.2-.4-.4,0,0,0,0,0,0,0-.4,0-.8,0-1.1v-.7c0,0,0,0,0,0,0,0,0,0,0,0-.2.3-.5.5-.7.8,0,0,0,0,0,0,0,0,0,0,0,.1,0,0,0,0,0,.1,0,0,0,0,0,0,0,0,0,0,0,0-.2-.2-.3-.3-.5-.5,0,0,0,0,0,0,0,0,0,0,0,0,0,0,0,0,.1,0,0,0,.1,0,.2,0,.2-.2.4-.4.6-.6.2-.2.4-.4.5-.6,0,0,0,0,0,0,0,0,0,0,0,0,0,.4,0,.8-.1,1.2v.7c0,0,0,0,0,0,0,0,0,0,0,0,.3-.3.6-.6.8-.9,0,0,0-.1,0-.2,0,0,0,0,0-.1,0,0,0,0,0,0,0,0,0,0,0,0,.2.2.3.3.5.5,0,0,0,0,0,0,0,0,0,0,0,0,0,0,0,0-.1,0,0,0-.1,0-.1,0-.4.3-.7.7-1,1,0,0,0,0,0,.1,0,0,0,.1.1.2,0,0,0,0,0,.1h0ZM22.6,10.8l-.4-.7c0-.1-.1-.2-.2-.3,0,0,0,0-.2,0h-.1c0,0,0,0,0,0,0,0,0,0,0,0,.2-.1.4-.2.6-.4,0,0,0,0,0,0,0,0,0,0,0,0,0,0,0,0-.1.1,0,0,0,.1,0,.2.1.2.3.4.4.6.1.2.3.5.5.7,0,0,0,0,0,0,0,0,0,0,0,0-.5-.2-1.1-.4-1.6-.5,0,0-.2,0-.3,0,0,0,0,0,0,0,0,.1.1.2.2.3.2.3.3.5.5.8,0,.1,0,.1.2,0,0,0,0,0,.1,0,0,0,0,0,0,0,0,0,0,0,0,0-.2,0-.4.2-.6.4,0,0,0,0,0,0,0,0,0,0,0,0,0,0,0,0,.1-.1,0,0,0,0,0-.2-.1-.2-.2-.4-.3-.5-.1-.2-.3-.5-.4-.7,0,0,0,0-.1,0,0,0-.1,0-.2,0,0,0,0,0,0,0,0,0,0,0,0,0,.1,0,.3-.1.4-.2,0,0,0,0,0,0,.5.2,1.1.4,1.7.6,0,0,0,0,.1,0ZM37.7,27.9c-.1,0-.2-.2-.3-.3l-.7-.6c0,0,0,0-.2,0,0,0,0,0-.1,0,0,0,0,0,0,0,0,0,0,0,0,0,.2-.2.3-.3.4-.5,0,0,0,0,0,0,0,0,0,0,0,0,0,0,0,0,0,.1,0,0,0,.1,0,.2.2.2.4.3.6.5.2.1.3.3.5.4,0,0,.1,0,.2,0,0,0,.1,0,.2-.1,0,0,0,0,0,0,0,0,0,0,0,0-.1.1-.2.2-.3.3,0,0,0,0,0,0-.6,0-1.2,0-1.8,0h0c0,0,0,0,.1.1.3.2.5.4.8.7,0,0,0,0,.2,0,0,0,0,0,.1,0,0,0,0,0,0,0,0,0,0,0,0,0-.2.2-.3.3-.4.5,0,0,0,0,0,0,0,0,0,0,0,0,0,0,0,0,0-.1,0,0,0-.1,0-.2-.1-.1-.3-.2-.4-.4-.3-.2-.6-.5-.9-.7,0,0,0,0,0,0,0,0,0,0,0,0,.3,0,.6,0,.8,0,.4,0,.8,0,1.2,0,0,0,0,0,0,0h0Z"/>
      <path class="cls-1" d="M18.6,26.2c.3,0,.6.2.8.4.1.1.2.3.2.5,0,.2,0,.4-.2.5-.2.3-.5.4-.8.5-.2,0-.4,0-.6-.1-.2-.2-.4-.4-.5-.7,0-.3,0-.5.2-.7.2-.2.4-.4.7-.4,0,0,.1,0,.2,0h0ZM19.4,27c0-.3-.3-.8-.8-.6-.3,0-.5.2-.7.4-.2.2-.2.5,0,.8.1.2.4.4.7.3.3,0,.5-.2.7-.4.1-.1.2-.3.2-.5ZM37.4,12.5c0-.1,0-.2,0-.3,0,0,0,0,0,0,0,0,0,0,0,0,.1.2.3.4.5.6,0,0,0,0,0,0,0,0,0,0,0,0,0,0,0,0,0,0,0,0,0,0-.1,0,0,.1,0,.3-.1.4,0,0,0,0,0,.1,0,0,0,0,0,0h.6c0,0,.1,0,0-.2,0,0,0,0,0,0,0,0,0,0,0,0,0,0,0,0,0,0,.1.2.2.3.4.5,0,0,0,0,0,0,0,0,0,0,0,0-.1-.1-.3-.1-.5-.1-.2,0-.4,0-.6,0,0,0,0,0,0,0,0,.3-.2.6-.3.9,0,0,0,.2,0,.2,0,0,0,0,0,0,0,0,0,0,0,0,0,0,0,0,0,0-.1-.2-.3-.4-.5-.6,0,0,0,0,0,0,0,0,0,0,0,0,0,0,0,0,0,0,0,0,.1,0,.1,0,0-.2.1-.3.2-.5h0c0-.2,0-.2,0-.2-.2,0-.4,0-.6,0,0,0,0,0-.1,0,0,0,0,0,0,0,0,0,0,0,0,0,0,0,0,0,0,0,0,0,0,0,0,0-.1-.2-.2-.3-.4-.5,0,0,0,0,0,0,0,0,0,0,0,0,0,0,.2.1.3.1.2,0,.3,0,.5,0,.1,0,.2,0,.3,0,0,0,0,0,0,0,0-.3.2-.5.2-.8,0,0,0,0,0,0ZM17.1,17.2s0,0,0,0c0,0-.1,0-.1,0v.5c-.2,0-.1,0-.1,0,.2,0,.5.1.7.2,0,0,0,0,0,0,0-.2.1-.4.2-.6,0,0,0-.1,0-.2,0,0-.1-.1-.2-.2,0,0,0,0,0,0,0,0,0,0,0,0,.1,0,.2.2.3.2,0,0,0,0,0,0,0,.3-.2.6-.3.9,0,.2,0,.3-.1.5,0,0,0,0,0,0,0,0,0,0,0,0,0,0,0-.1,0-.2,0,0,0,0,0-.1-.2,0-.4-.1-.5-.2-.3,0-.5-.2-.8-.2h0c-.2,0-.2,0-.2,0h0c0,.1,0,.1,0,.1,0,0,0,0,0,0,.1-.3.2-.7.3-1,0-.1,0-.3.1-.4,0,0,0,0,0,0,.1,0,.2,0,.3,0,0,0,0,0,0,0,0,0,0,0,0,0,0,0-.1,0-.2,0,0,0-.1,0-.1,0,0,.2-.1.4-.2.6,0,0,0,0,0,0,.2,0,.4.1.6.2,0,0,0,0,0,0,0-.2,0-.3.1-.5,0,0,0-.1,0-.1,0,0,0,0-.1,0,0,0,0,0,0,0,0,0,0,0,0,0,.2,0,.4.1.5.2,0,0,0,0,0,0,0,0,0,0,0,0,0,0,0,0,0,0h0ZM27.2,9.4c0,.2,0,.3,0,.5,0,0,0,0,0,0-.4,0-.7,0-1.1.1-.1,0-.2,0-.3,0,0,0,0,0,0,0,0,0,0,0,0,0,0,0,.1,0,.2,0,0,0,0,0,0-.1,0-.4-.1-.9-.2-1.3,0,0,0,0,0,0,0-.2,0-.1-.2-.2,0,0,0,0,0,0,0,0,0,0,0,0,0,0,0,0,0,0,.4,0,.7,0,1.1-.1.1,0,.2,0,.3,0,0,0,0,0,0,0,0,.1,0,.2,0,.3,0,0,0,0,0,0,0,0,0,0,0,0,0,0,0,0,0-.2,0,0-.1-.1-.2,0-.2,0-.4,0-.6,0,0,0,0,0,0,0,0,.2,0,.4,0,.5,0,0,0,.1.1,0,.1,0,.2,0,.4,0,.2,0,.2,0,.2-.2h0c0,0,0-.1,0-.1,0,0,0,0,0,0,0,.2,0,.4,0,.6,0,0,0,0,0,0,0,0,0,0,0,0,0,0,0,0,0-.2,0,0,0,0-.1,0-.2,0-.3,0-.5,0,0,0,0,0,0,0,0,.2,0,.5,0,.7,0,0,0,0,0,0,.2,0,.4,0,.6,0,0,0,.2,0,.2-.1,0,0,0-.1,0-.2,0,0,0,0,.1,0h0ZM20.2,13.2c-.2,0-.3,0-.4-.2-.2-.2-.5-.5-.7-.8,0,0-.1-.1-.2,0,0,0,0,0,0,0,0,0,0,0,0,0,0,0,0,0,0,0,.2-.2.4-.3.6-.5,0,0,0,0,0,0,0,0,0,0,0,0,0,0,0,0,0,.1,0,0,0,.1,0,.2,0,0,.1.2.2.2.2.2.4.4.5.6.1.1.3.2.5,0,.2,0,.3-.2.4-.3.1-.2,0-.4,0-.6-.2-.2-.4-.4-.6-.6,0,0-.1-.1-.2-.2,0,0,0,0-.2,0,0,0,0,0-.1,0,0,0,0,0,0,0,0,0,0,0,0,0,.2-.1.3-.3.5-.4,0,0,0,0,0,0,0,0,0,0,0,0,0,0,0,0,0,.1,0,0,0,.1,0,.2l.2.3c.2.2.3.4.5.5.2.3.2.6,0,.8-.2.2-.3.4-.6.4,0,0,0,0-.1,0h0ZM35.2,28.5s0,0-.1,0c0,0,0,0,0,0,0,0,0,0,0,0,.1-.1.3-.2.4-.3,0,0,0,0,0,0,0,0,0,0,0,0,0,0,0,.2,0,.3.1.5.3,1,.4,1.4,0,0,0,.2,0,.2,0,0,0,0,0,0,0,0,0,0,0,0-.4-.2-.8-.4-1.2-.6-.2,0-.3-.1-.5-.2,0,0-.1,0-.2,0h0s0,0,0,0c0,0,0,0,0,0,.2-.1.4-.3.5-.4,0,0,0,0,0,0,0,0,0,0,0,0s0,0,0,0c0,0,0,0,0,.1.1,0,.2.1.3.2,0,0,0,0,0,0l.6-.5s0,0,0,0c0-.1,0-.2-.1-.4,0,0,0,0,0,0h0ZM35.7,29.9c0,0,0-.1,0-.2,0-.2-.1-.4-.2-.6,0,0,0,0,0,0-.1.1-.3.2-.4.3,0,0,0,0,0,0,.2,0,.3.2.5.2,0,0,.2,0,.3.1ZM38.3,23.1c0-.3,0-.6.3-.8.2-.2.4-.3.6-.3.3,0,.6,0,.8.3.2.2.3.5.3.8,0,.3-.1.5-.3.7,0,0,0,0,0,0-.1,0-.3,0-.4,0,0,0,0,0,0,0,0,0,0,0,0,0,0,0,.1,0,.2,0,.1,0,.2,0,.3-.2.2-.2.2-.6,0-.9-.1-.2-.3-.3-.6-.3-.2,0-.3,0-.5,0-.3,0-.4.3-.5.6,0,.2,0,.4,0,.6,0,0,0,0,0,0,0,0,0,0,0,0,0-.2,0-.3,0-.5ZM16.5,15.7c0-.2.1-.4.3-.6,0-.1,0-.1.2,0,0,0,.2,0,.2.1,0,0,0,0,0,0,0,0,0,0,0,0,0,0,0,0,0,0-.3,0-.5.1-.5.3,0,.2,0,.4.3.4,0,0,.1,0,.2,0,.1,0,.3-.2.4-.3.1-.1.3-.2.5-.1.3,0,.5.3.4.6,0,.3-.2.5-.4.7,0,0,0,0,0,0-.1,0-.2-.1-.4-.2,0,0,0,0,0,0,0,0,0,0,0,0,0,0,.1,0,.2,0,.2,0,.4-.1.5-.4,0-.3-.1-.4-.4-.4,0,0-.2,0-.2.1-.1,0-.2.2-.4.3-.2.1-.3.2-.5,0-.2-.1-.3-.3-.3-.5ZM30,10.1c-.2,0-.4,0-.6-.2,0,0,0,0,0,0,0-.1,0-.3,0-.4,0,0,0,0,0,0,0,0,0,0,0,0,0,0,0,0,0,.1,0,.3.2.4.5.4.2,0,.3-.1.3-.3,0-.1,0-.2-.2-.3-.1-.1-.3-.2-.4-.3,0,0-.2-.2-.2-.3,0-.2.1-.5.3-.6.3,0,.5,0,.8.1,0,0,0,0,0,0,0,.1,0,.2,0,.3,0,0,0,0,0,0,0,0,0,0,0,0,0-.1,0-.2-.1-.3-.1-.1-.4-.2-.5,0-.1.1-.1.3,0,.4.1.1.3.2.4.3.1,0,.2.2.3.3.1.3,0,.6-.3.7,0,0,0,0,0,0,0,0-.2,0-.3,0ZM18.2,13.5s0,0,0,0c0,0-.1,0-.2,0,0,0-.1,0-.2,0,0,0-.1.2-.2.3,0,0,0,0,0,0,.4.3.8.5,1.2.7q.1,0,.2,0s0,0,.1-.1c0,0,0,0,0,0,0,0,0,0,0,0-.1.2-.3.4-.4.7,0,0,0,0,0,0,0,0,0,0,0,0,0,0,0-.1,0-.2,0,0,0-.1,0-.1-.4-.3-.8-.5-1.3-.8,0,0,0,0,0,0,0,0-.1.2-.2.3,0,0,0,.1,0,.2,0,0,0,0,.1.1,0,0,0,0,0,0,0,0,0,0,0,0-.1,0-.2-.2-.3-.2,0,0,0,0,0,0,.3-.4.5-.8.8-1.3q0,0,.1,0l.3.2s0,0,0,0ZM32.5,9s0,0-.1,0c0,0-.1.1-.1.2,0,0,0,0,0,0,0,0,0,0,0,0,0-.1.1-.2.2-.4,0,0,0,0,0,0,.5.2.9.4,1.4.6,0,0,0,0,0,.1,0,.1,0,.2-.1.4,0,0,0,0,0,0,0,0,0,0,0,0,0,0,0-.1,0-.2,0,0,0-.1,0-.1-.1,0-.2-.1-.4-.2,0,0,0,0,0,0-.2.4-.4.9-.6,1.4,0,0,0,.1,0,.2,0,0,0,0,.1,0,0,0,0,0,0,0,0,0,0,0,0,0-.2-.1-.5-.2-.7-.3,0,0,0,0,0,0,0,0,0,0,0,0,0,0,.1,0,.2,0,0,0,0,0,.1,0,.1-.3.3-.6.4-.9,0-.1.1-.3.2-.4,0,0,0,0,0,0l-.3-.2s0,0,0,0ZM16.7,24.9s0,0,.1,0c0,0,0,0,0,0,0,0,0,0,0,0-.1,0-.2,0-.4,0,0,0,0,0-.1,0-.1-.4-.2-.7-.4-1.1,0-.1,0-.2-.1-.3,0,0,0,0,0,0l.4-.2s0,0,0,0c0,0,0,0,0,0,0,0-.1,0-.2.1,0,0,0,.1,0,.2,0,.1,0,.2.1.3,0,0,0,0,0,0,.5-.1,1-.3,1.4-.5,0,0,0,0,0-.1,0,0,0-.1,0-.2,0,0,0,0,0,0,0,0,0,0,0,0,0,.2.1.5.2.7,0,0,0,0,0,0,0,0,0,0,0,0,0,0,0,0,0-.2,0,0,0,0-.1,0-.4.1-.7.2-1.1.3-.1,0-.2,0-.3.1,0,0,0,0,0,0,0,.1,0,.3.1.4,0,0,0,0,.1,0,0,0,.1,0,.1,0ZM34.4,10.4c0,.1,0,.3,0,.4,0,0,0,0,0,0,.2-.1.5-.2.7-.4,0,0,0,0,0-.1,0,0,0,0,0,0,0,0,0,0,0,0,0,0,0,0,0,0,.2.1.3.2.5.3,0,0,0,0,0,0,0,0,0,0,0,0,0,0-.1,0-.2,0-.1,0-.2,0-.3,0-.3.1-.5.2-.8.4,0,0,0,0,0,0,0,.1-.2.3-.3.4,0,0,0,.1,0,.2,0,0,0,0,.1.1,0,0,0,0,0,0,0,0,0,0,0,0-.2-.1-.4-.3-.7-.4,0,0,0,0,0,0,0,0,0,0,0,0,0,0,.1,0,.2,0,0,0,0,0,.1,0,0-.1.2-.3.3-.4,0,0,0-.2,0-.2,0-.3,0-.6,0-1,0,0,0-.2-.1-.2,0,0,0,0,0,0,0,0,0,0,0,0,.2.1.4.2.5.3,0,0,0,0,0,0s0,0,0,0c-.2,0-.2,0-.2.1,0,.1,0,.2,0,.3ZM24.8,10c0-.1,0-.3,0-.5,0-.3,0-.6,0-.9,0-.1,0-.1-.1-.1h0s0,0,0,0,0,0,0,0c.1,0,.2,0,.4-.1,0,0,.1,0,.2,0,0,0,0,0,0,0,0,0,0,0,0,0-.2,0-.2.3-.2.5,0,.5,0,1,0,1.6,0,0,0,0,0,0,0,0,0,0,0,0-.1-.1-.2-.3-.3-.4-.3-.3-.5-.7-.8-1,0,0,0,0-.1,0,0,0,0,0-.1,0,0,0,0,0,0,0,0,0,0,0,0,0,.2,0,.4-.1.6-.2,0,0,0,0,0,0,0,0,0,0,0,0-.2.1-.2.1,0,.3.2.3.5.6.7,1,0,0,0,0,0,0ZM38.7,14.2c0,0,0-.1,0-.2,0,0,0,0,0,0,0,0,0,0,0,0,.1.2.2.4.4.6,0,0,0,0,0,0,0,0,0,0,0,0h0c0-.2-.1-.2-.2-.1-.4.2-.8.5-1.2.7,0,0,0,0,0,.2h0c0,.2,0,.2,0,.2,0,0,0,0,0,0-.1-.2-.3-.4-.4-.7,0,0,0,0,0,0,0,0,0,0,0,0,0,0,0,0,.1.1,0,0,0,0,.1,0l.6-.4c.2-.1.4-.3.6-.4,0,0,0,0,0-.1ZM22.7,9.3c0,0-.1,0-.2,0,0,0,0,0,0,0,0,0,0,0,0,0,.2,0,.5-.2.7-.3,0,0,0,0,0,0,0,0,0,0,0,0,0,0,0,0-.1,0,0,0-.1,0,0,.2.1.2.2.5.3.7,0,.2.2.4.3.6,0,.1,0,.1.2,0,0,0,0,0,.1,0,0,0,0,0,0,0,0,0,0,0,0,0-.2,0-.5.2-.7.3,0,0,0,0,0,0,0,0,0,0,0,0,0,0,0,0,.1,0,0,0,.1,0,0-.2v-.3c-.3-.3-.4-.7-.6-1,0,0,0,0-.1,0ZM37.1,26.3s0,0,0,0c0,0,0,0-.1.1,0,0,0,0,0,0,0,0,0,0,0,0,.2-.2.3-.4.4-.7,0,0,0,0,0,0,0,0,0,0,0,0,0,0,0,0,0,.1,0,0,0,.1,0,.2.1,0,.2.1.3.2.3.2.6.4.9.6,0,0,0,0,.1,0,0,0,0,0,.1-.1,0,0,0,0,0,0,0,0,0,0,0,0-.1.2-.3.4-.4.7,0,0,0,0,0,0,0,0,0,0,0,0,0,0,0,0,0-.1,0,0,0-.1,0-.2-.4-.3-.8-.5-1.2-.8,0,0,0,0,0,0ZM32.2,8.8c0,0-.1,0-.2,0,0,0-.1,0-.1,0,0,.2-.1.3-.2.5,0,.3-.2.6-.3.9,0,.1,0,.1,0,.2,0,0,0,0,.1,0,0,0,0,0,0,0,0,0,0,0,0,0-.2,0-.5-.2-.7-.2,0,0,0,0,0,0,0,0,0,0,0,0,0,0,0,0,.1,0,.1,0,.1,0,.2,0,0-.2.1-.4.2-.7,0-.2.1-.5.2-.7,0,0,0,0,0-.1h-.2c0-.1,0-.1,0-.2,0,0,0,0,0,0,.2,0,.4.1.6.2,0,0,0,0,.1,0,0,0,0,0,0,0,0,0,0,0,0,0h0ZM39.6,21.1c.2,0,.3.1.3.3,0,.2-.1.3-.3.3,0,0,0,0,0,0-.2,0-.3-.1-.3-.3,0-.2.1-.3.3-.3ZM36.2,12c0,.2-.2.3-.3.3s-.3-.2-.3-.3c0-.1.2-.3.3-.3.2,0,.3.2.3.3h0ZM39.2,15.6c-.1,0-.3,0-.4-.1,0,0,0,0,0,0,0,0,0,0,0,0,0,0,.1,0,.2,0,0,0,0,0,0,0,0-.1,0-.2,0-.2,0,0,.2,0,.2,0,0,0,0,.2,0,.3,0,0-.2.1-.3.1ZM28,12.4c2.2,0,4.2.8,5.7,2.4,1.5,1.5,2.4,3.6,2.4,5.7,0,2.2-.8,4.2-2.4,5.7-2.7,2.7-7,3.2-10.3,1-.9-.6-1.6-1.3-2.2-2.2-.9-1.3-1.4-2.9-1.4-4.5,0-2.2.8-4.2,2.4-5.7,1.5-1.5,3.6-2.4,5.7-2.4ZM28,11.9c-4.7,0-8.6,3.8-8.7,8.5,0,4.7,3.8,8.6,8.5,8.7,0,0,.1,0,.2,0,4.7,0,8.6-3.8,8.6-8.6,0-4.7-3.8-8.6-8.6-8.6h0Z"/>
      <path class="cls-1" d="M22.8,15c.6-.6,1.4-1.1,2.2-1.5.8-.3,1.6-.5,2.5-.6.1,0,.2,0,.4,0,0,0,0,0,0,0,0,0,0,.1,0,.2v6.5c0,0,0,0,0,0-.3,0-.5.3-.6.6,0,0,0,0,0,0,0,0,0,0,0,0h-6.5c0,0,0,0,0,0,0-.6.1-1.2.3-1.8.3-1.2,1-2.3,1.9-3.2,0,0,0,0,0,0h0c0,0,0,.2,0,.3,0,.2,0,.4,0,.6,0,.3,0,.5,0,.8,0,0,0,0,0,.1,0,.1,0,.2,0,.4,0,.4,0,.8,0,1.2,0,.2,0,.3,0,.5,0,0,0,.2,0,.2,0,.2.1.3.3.3.1,0,.3,0,.3-.2,0-.2,0-.4,0-.6,0-.2,0-.4,0-.6,0-.3,0-.6,0-.9,0,0,0-.1,0-.2,0-.1,0-.2,0-.3,0-.1,0-.3,0-.5,0-.2,0-.4,0-.6,0,0,0-.1.1-.1.1,0,.3,0,.4,0,0,0,0,0,.1,0,0,0,0,.2,0,.3,0,.2,0,.4,0,.5,0,.2,0,.3,0,.5,0,.3,0,.7,0,1,0,.2,0,.4,0,.5,0,0,0,0,0,.1,0,0,0,.1,0,.2,0,.2,0,.4,0,.6,0,0,0,.2.1.2.2.1.4,0,.5-.2,0-.2,0-.3.1-.5,0-.1,0-.2,0-.4,0-.1,0-.3,0-.4,0-.3,0-.6,0-1,0,0,0-.1,0-.2,0-.1,0-.3,0-.4,0-.2,0-.5,0-.7,0,0,0-.1,0-.2s0-.1.1-.1c0,0,.1,0,.2,0,.2,0,.3,0,.3.3,0,.2,0,.4,0,.7,0,.2,0,.3,0,.5,0,0,0,.1,0,.2,0,0,0,.1,0,.2,0,.3,0,.6,0,.9,0,0,0,0,0,0,0,.2,0,.5,0,.7,0,.2,0,.4.1.6,0,0,0,.1.1.1.3,0,.5,0,.4-.4,0-.2-.1-.4-.1-.6,0,0,0-.1,0-.2,0-.2,0-.4-.1-.6,0-.3,0-.6,0-.9,0,0,0-.2,0-.2,0,0,0-.1,0-.2h0c0-.3,0-.6,0-.9,0,0,0-.2.1-.2,0,0,0,0,0,0,.1,0,.3,0,.4,0,.1,0,.1,0,.1.2,0,.2,0,.3,0,.5,0,.1,0,.2,0,.3,0,0,0,0,0,.1,0,.1,0,.2,0,.4,0,.2,0,.3,0,.5,0,.2,0,.3,0,.5,0,.1,0,.3,0,.4,0,.1,0,.3,0,.4,0,.1,0,.3,0,.4,0,.2.1.2.2.2.2,0,.3,0,.4-.2,0,0,0-.1,0-.2,0,0,0-.1,0-.2,0,0,0-.2,0-.3,0-.3,0-.5-.1-.8,0-.1,0-.3,0-.4,0,0,0-.1,0-.2,0-.2,0-.4,0-.5,0,0,0-.1,0-.2,0,0,0-.1,0-.2,0,0,0-.2,0-.3,0-.2,0-.5,0-.7,0,0,0-.2-.1-.2-.1,0-.3-.1-.4-.1-.2,0-.3,0-.5,0-.2,0-.3,0-.5,0,0,0,0,0-.1,0,0,0,0,0,0,0,0,0,0-.2,0-.3,0-.1,0-.2-.1-.3,0,0-.1,0-.2,0,0,0-.1,0-.2,0-.1,0-.1,0-.2.2,0,0,0,.2,0,.3,0,0,0,.2-.2.2,0,0-.1,0-.2,0-.2,0-.4,0-.6,0,0,0-.2,0-.3,0,0,0,0,0-.1,0-.1,0-.2,0-.4,0h0s0,0,0,0ZM28.3,21.4s0,0,0,0v6.6c0,0,0,0,0,0,.3,0,.5,0,.8,0,.3,0,.6-.1.9-.2,1.2-.3,2.3-.9,3.2-1.8,0,0,0,0,0-.2,0,0-.2-.2-.3-.3-.1-.1-.1-.3-.2-.4,0,0,0,0,0,0,0-.2,0-.5-.1-.7,0-.3-.1-.6-.1-.8,0,0,0-.1,0-.2,0-.1,0-.2,0-.3,0,0,0,0,0-.1,0-.2,0-.4,0-.7,0-.2,0-.4,0-.6,0,0-.2-.1-.2,0,0,0,0,0,0,0,0,.3,0,.6,0,.8,0,.2,0,.5,0,.7,0,.1,0,.2,0,.4,0,0,0,0,0,.1,0,.1,0,.3,0,.4,0,0,0,.2,0,.3,0,.2,0,.4,0,.6,0,.3,0,.5,0,.8,0,.2,0,.3,0,.5,0,0,0,0,0,0-.2.2-.5,0-.5-.2,0-.2,0-.4,0-.6,0-.2,0-.3,0-.5,0-.4,0-.8,0-1.2,0,0,0-.1,0-.2,0-.2,0-.3,0-.5,0-.2,0-.3,0-.5,0-.3,0-.6,0-.9,0,0,0-.2,0-.3,0-.2,0-.4,0-.5,0-.1.1-.2.2-.1.2,0,.3,0,.5,0,0,0,0,0,0,0,.2,0,.3,0,.5,0,.1,0,.2,0,.3,0,0,0,.2,0,.2,0,0,0,.1,0,.2.1,0,0,0,.2,0,.2,0,.2,0,.3-.2.3-.1,0-.3,0-.4,0,0,0,0,0,0,0,0,0,0,.2,0,.3,0,0,0,.1,0,.2.1.3,0,.6.2.8,0,0,0,0,0,0,0,.1,0,.3,0,.4,0,.2.1.5.1.7,0,0,0,.1,0,.2.1.3.1.6.3.9,0,0,0,.1.1.2,0,0,0,0,.1,0,0,0,0,0,0,0,.4-.4.8-.9,1-1.5.6-1,.9-2.2.9-3.3q0,0,0,0h-6.6s0,0,0,0c0,0,0,.1,0,.2,0,0,.2,0,.2,0,.1,0,.3,0,.4,0,.2,0,.3,0,.5,0,.1,0,.3,0,.4,0,.1,0,.2,0,.3,0s0,0,.1,0c0,0,0,0,0,.1,0,.2,0,.4,0,.5,0,.3,0,.5,0,.8,0,0,0,0,0,0,0,.2,0,.5,0,.7,0,.2,0,.3,0,.5,0,0,0,.1,0,.2,0,.1,0,.3,0,.4,0,0,0,0,0,0,0,.4,0,.8,0,1.2,0,0,0,.2,0,.2,0,.1,0,.2,0,.3,0,.1,0,.2,0,.4,0,0-.1,0-.2,0,0,0-.2,0-.2,0s-.2,0-.2-.1c0-.2,0-.4,0-.6,0-.2,0-.4,0-.5,0,0,0-.2,0-.3,0,0,0-.2,0-.2,0,0,0-.1,0-.2,0-.5,0-1,0-1.5,0-.1,0-.2,0-.4,0,0,0-.2,0-.3,0,0,0-.2,0-.3,0-.1,0-.2,0-.3,0,0,0-.1-.2-.1,0,0,0,0-.1.1,0,.1,0,.2,0,.3,0,.2,0,.4,0,.7,0,0,0,.2,0,.2,0,.2,0,.3,0,.5,0,.3,0,.5,0,.8,0,.1,0,.3,0,.4,0,0,0,.1,0,.2,0,0,0,.2,0,.3,0,0,0,.2,0,.3,0,.1,0,.2,0,.3,0,0,0,.2,0,.3,0,.1-.1.2-.2.4,0,0,0,0-.1,0,0,0,0,0-.1,0-.1,0-.2,0-.2-.2s0,0,0-.1c0-.2.1-.5.2-.7,0,0,0-.2,0-.3,0,0,0-.1,0-.2,0-.1,0-.3,0-.5,0,0,0-.2,0-.3,0-.2.1-.5.1-.8,0-.2,0-.5,0-.7,0-.3,0-.5,0-.8,0-.2,0-.2-.2-.2,0,0-.2,0-.2,0-.2,0-.3-.1-.3-.3h0c0,0-.2,0-.3,0h0ZM23.9,20.7c-1.1,0-2.3,0-3.5,0,0,0,0,0,0,0,0,.1,0,.3,0,.4,0,.4,0,.7.2,1.1.1.5.3,1,.5,1.5.3.5.6,1.1,1,1.5,0,0,.1.2.2.2,0,0,0-.2,0-.3,0-.2,0-.5,0-.7,0-.3,0-.6,0-.9,0-.2,0-.4,0-.5,0,0,0-.1.1-.1.1,0,.3,0,.4,0,0,0,.2,0,.2,0,.2,0,.4,0,.6,0,.1,0,.2,0,.3,0,.1,0,.3,0,.4,0s.3,0,.5,0c0,0,.2,0,.3,0,.1,0,.2,0,.4,0,0,0,.1,0,.2,0,0,0,.2,0,.2,0,0,0,.1,0,.2,0,0,0,.1,0,.2,0,0,0,.1,0,.2,0,.2,0,.3,0,.5,0,0,0,0,0,0,0,0,0,0,.2,0,.3,0,.3,0,.6,0,.9,0,0,0,.1,0,.2,0,.3,0,.6,0,.8,0,.3,0,.6,0,.9,0,0,0,.1,0,.2,0,0,0,0,0,0-.1,0-.2,0-.3,0-.1,0-.2,0-.2-.2,0,0,0-.1,0-.2,0-.4,0-.8,0-1.2,0-.2,0-.4,0-.6,0-.2,0-.4,0-.6,0,0,0-.1,0-.1,0,0,0,0-.1,0-.2,0-.4,0-.6,0-.3,0-.6,0-.9,0-.1,0-.3,0-.4,0-.1,0-.2,0-.3,0-.2,0-.4,0-.7,0-.1,0-.3,0-.4,0-.1,0-.1,0-.2.2,0,0,0,.2,0,.2,0,0,0,.1,0,.2,0,.1,0,.2,0,.3,0,.1,0,.2,0,.3,0,0,0,.2,0,.3,0,.1,0,.3,0,.4,0,.1,0,.3-.1.4,0,0,0,0,0,0l.2.2c1.3,1.2,3,1.8,4.8,1.9,0,0,0,0,0,0,0-2.2,0-4.4,0-6.6,0,0,0,0,0,0-.3,0-.5-.3-.6-.6,0,0,0,0,0,0-.5,0-1,0-1.5,0s0,0,0,0c0,0,0,0,0,0,0,0,.1.2.2.2,0,0,0,0,0,0-.1,0-.2.2-.4.3,0,0,0,0,0,.1.1,0,.2.2.3.3,0,0,0,0,.1,0,.2,0,.3,0,.5,0,0,0,0,0,0,0,0,0,0,0,0,0-.1,0-.3,0-.4,0,0,0,0,0-.1,0,0,0,0-.1,0-.2,0,0,.1-.1.2-.1.1,0,.3,0,.4,0,.1,0,.1,0,.1-.2,0,0,0-.1,0-.2,0-.1,0-.2.2-.2,0,0,0,0,.1,0,.1,0,.2,0,.3.2,0,.1,0,.2,0,.3,0,.3,0,.7,0,1,0,.1,0,.3,0,.4,0,0,0,0,0,0,0,0-.2,0-.3,0-.2,0-.4,0-.7,0,0,0-.2,0-.2,0,0,0,0,0-.2,0,0,0-.1.1-.2.1-.1,0-.2,0-.3-.1,0,0-.2-.1-.3-.1,0,0-.2,0-.2.1-.1,0-.3.1-.4.1-.1,0-.2-.1-.3-.2,0,0,0-.2.1-.3,0,0,.1,0,.1,0,0,0,0,0,0-.2,0,0,0,0-.1-.1-.1-.1-.2-.3,0-.5,0,0,.1-.1.2-.2,0,0,0,0,0,0,0,0-.2-.2-.3-.2-.1,0-.1-.1,0-.2,0,0,.1-.1.2-.2h-.2s0,0,0,0ZM25.3,25.5c0,0-.1,0-.1.1,0,0,0,0,0,0,0,.2,0,.4,0,.5,0,.1,0,.2-.2.2-.1,0-.2,0-.4,0-.2,0-.3,0-.5,0-.1,0-.3,0-.4,0,0,0-.1,0-.2,0-.1,0-.2,0-.2-.2,0,0,0-.1,0-.2,0,0,0,0,0,0,.1,0,.2,0,.3,0,.2,0,.4,0,.5,0,0,0,0,0,0,0,.2,0,.2-.2.1-.3,0,0,0,0-.1,0-.3,0-.6,0-1,0-.1,0-.2,0-.2-.2,0-.3,0-.6,0-.9,0,0,0-.1,0-.2,0-.1,0-.2.2-.2,0,0,.1,0,.1,0,.1,0,.2.1.2.2,0,.1,0,.3,0,.4,0,0,0,.1,0,.2,0,.1.1.2.3.2.1,0,.2,0,.3,0,0,0,.1,0,.1-.1,0,0,0-.1-.1-.2-.2-.1-.3-.2-.3-.4,0-.2,0-.3.1-.4,0,0,.2,0,.3,0,0,0,0,0,0,0,0,0,0,0,0,0,.2,0,.3,0,.5,0,.2,0,.3,0,.5,0,0,0,0,0,.1,0,0,0,0,0,0,.2,0,.1-.1.2-.2.4,0,0,0,0,0,.1,0,0,0,0,0,0,0,0,0,0-.1.1,0,0,0,0,0,0,.2,0,.3,0,.5,0,0,0,0,0,.1-.1,0,0,0-.2,0-.3,0-.1,0-.2,0-.3,0,0,0-.1.1-.2,0,0,0,0,.1,0,.1,0,.2,0,.2.2,0,.3,0,.6,0,.9,0,.2,0,.3-.3.3,0,0-.1,0-.2,0-.2,0-.4,0-.6,0h0ZM23,22.2s0,0,0,0c0,0,0,.1.1.1s.2,0,.3,0c0,0,.1,0,.2,0,.1,0,.2,0,.2.2,0,.1,0,.2-.2.3,0,0-.1,0-.2,0-.2,0-.5,0-.7,0-.1,0-.2-.1-.3-.3,0-.3,0-.6,0-.9,0-.2,0-.5,0-.7s0-.2.2-.2c.1,0,.2,0,.3,0,0,0,0,0,0,.1s0,0,0,0c0,.2,0,.2.2.2.1,0,.2,0,.3,0,0,0,.1,0,.2,0,.1,0,.2.2.2.3,0,0,0,.1-.2.1-.2,0-.3,0-.5,0,0,0-.1,0-.2,0,0,0,0,0,0,0,0,0,.1,0,.2,0,0,0,.1,0,.2,0,.1,0,.3,0,.4,0,0,0,0,.1,0,.2,0,0,0,.1-.1.1-.1,0-.2,0-.4,0,0,0-.2,0-.3,0ZM33,14.8c0,.1,0,.2,0,.4,0,.2,0,.3,0,.5,0,0,0,.2-.1.2-.2,0-.3,0-.5,0-.3,0-.6,0-.9,0-.2,0-.4,0-.6,0s-.5,0-.7,0c0,0,0,0,0,0,0,0-.2,0-.2,0-.1,0-.3,0-.4,0-.2,0-.2,0-.2.2,0,.1,0,.1.1.1.2,0,.3,0,.5,0,.2,0,.4,0,.6,0,.3,0,.5,0,.8,0,0,0,0,0,0,0,0,0,.2,0,.3,0,0,0,.1,0,.2,0,0,0,.2,0,.3,0,.2,0,.4,0,.6,0,.2,0,.4,0,.6,0s.2,0,.3.2c0,0,0,0,0,.1,0,.2,0,.5,0,.7,0,0,0,0,0,0,0,.2,0,.3,0,.5,0,0,0,0,0,0,0,.2,0,.3,0,.5,0,.3,0,.6,0,.9,0,.1,0,.3,0,.4,0,0,0,.2-.2.2,0,0,0,0-.1,0-.1,0-.3,0-.3-.3,0,0,0-.2,0-.3,0-.2,0-.3,0-.5,0,0,0-.2,0-.2,0,0,0-.1,0-.2,0-.2,0-.5,0-.7,0-.1,0-.3,0-.4,0-.1,0-.3,0-.4,0-.1,0-.2-.2-.2,0,0-.2,0-.3,0,0,0-.2,0-.3,0-.2,0-.4,0-.5,0-.1,0-.2,0-.4,0-.2,0-.3,0-.5,0-.4,0-.8,0-1.2,0-.3,0-.6,0-.9,0-.1,0-.2,0-.2-.2,0,0,0-.2,0-.3,0-.2,0-.5,0-.7,0-.2,0-.2.2-.3.2,0,.3,0,.5,0,.2,0,.5,0,.7,0,.2,0,.4,0,.6,0,.1,0,.2,0,.3,0,0,0,0,0,.1,0,.2,0,.3,0,.5,0,.1,0,.2,0,.3,0,.1,0,.3,0,.4,0,0,0,.1,0,.1,0,0,0,0-.1,0-.2,0,0,0,0,0,0-.1,0-.2,0-.3,0,0,0-.1,0-.2,0-.2,0-.4,0-.5,0-.2,0-.4,0-.6,0-.3,0-.5,0-.8,0-.1,0-.2,0-.3,0-.1,0-.2,0-.4,0-.2,0-.3,0-.5,0,0,0,0,0,0,0,0-.1,0-.2,0-.3,0,0,0-.1.1-.1.1,0,.2,0,.4,0,.2,0,.3,0,.5,0,.1,0,.2,0,.3,0,.1,0,.3,0,.4,0,0,0,.1,0,.2,0,0,0,.1,0,.2,0,.2,0,.3,0,.5,0,.2,0,.4,0,.7,0,0,0,0,0,0,0,0,0,.2,0,.3,0,.1,0,.3,0,.4,0,0,0,0,0,0,0-1.1-.8-2.3-1.3-3.7-1.4-.2,0-.3,0-.5,0,0,0,0,0,0,0,0,2.1,0,4.3,0,6.4s0,.1,0,.2c0,0,0,0,0,0,.3,0,.5.3.6.6,0,0,0,0,.1,0,2.2,0,4.4,0,6.6,0h0c0,0,0,0,0,0,0-.2,0-.4,0-.6-.1-1.1-.5-2.1-1-3-.4-.7-1-1.4-1.6-1.9,0,0,0,0,0,.1ZM32.5,19c0,.1,0,.3,0,.4,0,0-.1.2-.2.2-.2,0-.5,0-.7,0,0,0-.2,0-.3,0,0,0-.1,0-.2,0-.2,0-.3,0-.5,0-.2,0-.3,0-.5,0-.2,0-.5,0-.7,0-.2,0-.3,0-.5,0,0,0-.2,0-.2-.2,0-.1-.1-.2-.1-.4,0,0,0-.1,0-.2,0-.2,0-.3,0-.5,0-.1,0-.2,0-.3,0-.3,0-.5,0-.8,0-.1,0-.2.2-.2.1,0,.3,0,.4,0,.2,0,.3,0,.5,0,.2,0,.4,0,.6,0,.3,0,.5,0,.8,0,.2,0,.3,0,.5,0,0,0,0,0,.1,0,.2,0,.4,0,.6,0,.2,0,.3.2.3.4,0,.2,0,.3,0,.5,0,.1,0,.3,0,.5,0,.2,0,.4,0,.7ZM26.3,22.4s0,0,0,0c0,0,0,0,0,0-.1,0-.2,0-.3,0s-.2,0-.3-.2c0,0,0,0,0,0,0,0-.2.1-.2.2,0,0,0,0,0,.1,0,0,.1,0,.2.1,0,0,0,0,.1,0,0,0,.1-.1.2-.1,0,0,.2,0,.3,0,0,0,.1,0,.2,0h0ZM24.3,20.7c.1.1.2.2.4.3,0,0,.2,0,.2,0,0,0,.1,0,.2-.1,0,0,.1,0,.2-.1,0,0-1,0-1,0ZM24.8,21.7s-.1,0-.1.1c0,0,0,.1.2.1s.1,0,.1-.1c0,0,0-.1-.2-.1ZM22.7,15.1h0s0,0,0,0h0s0,0,0,0h0ZM22.7,15h0s0,0,0,0h0s0,0,0,0ZM22.7,15.1s0,0,0,0h0s0,0,0,0h0ZM22.7,15.1h0s0,0,0,0c0,0,0,0,0,0h0ZM22.7,15.1h0s0,0,0,0c0,0,0,0,0,0h0ZM24.7,24.5s0,0,0,0c0,0,0,0,0,0,0,0,0,0,0-.1,0,0,0,0,0,0,0,0,0,0,0,0,0,0-.1,0,0,0h0ZM29.2,18.7s0,0,0,0c.1-.2.3-.3.4-.5,0,0,0,0,0-.1-.1,0-.2-.1-.4-.2,0,0,0,0,0,0,0,0,0,0,0,.1,0,.1,0,.2,0,.3,0,.1,0,.2,0,.3h0ZM30.4,18.9c0,0,0-.1.1-.2,0,0,0-.1,0-.2,0,0,0,0,0,0,0,0,0,0-.1,0-.1.1-.2.2-.3.3,0,0,0,0,0,0,0,0,0,.1,0,.1,0,0,.1,0,.2,0,.1,0,.2,0,.3-.2ZM30.8,17.6c0,0-.1.1-.2.2,0,0,0,0,0,.1,0,0,.1,0,.2,0,.1,0,.1,0,.2,0h0c0-.1,0-.2.1-.3,0,0,0,0,0-.1,0,0,0,0-.1,0,0,0-.2,0-.2,0ZM32,18.2c0,0,0-.1,0-.2,0,0,0-.1,0-.2,0,0,0,0,0,0,0,.1-.2.3-.3.4,0,0,0,0,0,0,0,0,.2.1.2.1,0,0,0,0,.1,0,0,0,0-.2,0-.2h0ZM31.5,19s0,0,0,0c0,0,0,0,0,0,0,0-.2-.1-.3-.1,0,0-.1,0-.1,0,0,0,0,0,0,.1,0,0,0,0,0,.1,0,0,0,0,.1,0,0,0,.2,0,.3,0ZM29.7,17.5s0,0,0,0c0,0,.1,0,.2.1.1,0,.1,0,.2,0,0,0,0,0,0,0,0,0-.1,0-.2,0,0,0,0,0-.1,0h0ZM28.4,20.5c0,.2-.2.4-.4.4-.2,0-.4-.2-.4-.4h0c0-.2.2-.4.4-.4.2,0,.4.2.4.4ZM46.6,28.3c0-.1,0-.2-.2-.2h-.2c0,0,0,0,0-.1s0,0,0,0h.3s.1,0,.1,0h.3c0,0,.1,0,.1,0l.2.3c0,0,.1.2.2.2l1.9,2.4v-2.2c0,0,0-.1,0-.2,0,0,0-.2,0-.3,0-.1,0-.2-.2-.2h-.2c0,0,0,0,0-.1s0,0,.1,0h.2c.2,0,.5,0,.7,0h.2c0,0,.1,0,.1,0s0,0,0,0h-.1c-.1,0-.2,0-.3.2,0,0,0,.2,0,.3,0,.1,0,.3,0,.4v1.9c0,.1,0,.3,0,.4v.2c0,0,0,.1,0,.1h0s-.1,0-.1,0c0,0,0,0-.1,0l-.4-.6-1.9-2.5v2.3s0,.2,0,.2c0,.1,0,.2,0,.2,0,.1,0,.2.2.2h.2c0,0,0,0,0,0s0,0-.1,0h-.2c-.2,0-.5,0-.7,0h-.2c0,0,0,0,0,0s0,0,0,0h.1c.1,0,.2,0,.3-.2,0,0,0-.2,0-.3,0,0,0-.2,0-.4v-2.1h0ZM50.7,28.3c.3-.3.8-.5,1.4-.5s1.1.2,1.3.5c.3.3.4.8.4,1.5s-.1,1.1-.4,1.4c-.3.3-.8.5-1.4.5s-1-.2-1.3-.5c-.3-.3-.4-.8-.4-1.4s.1-1.1.4-1.4ZM51.1,31.1c.2.3.5.4,1,.4s.8-.1,1-.4c.2-.3.3-.7.3-1.3s0-1-.3-1.3c-.2-.3-.5-.4-1-.4-.8,0-1.3.6-1.3,1.7s0,1,.3,1.3ZM54.7,28.5c0-.2,0-.3-.2-.4h-.2c0,0,0,0,0-.1s0,0,0,0h.2c0,0,.1,0,.2,0,0,0,.2,0,.2,0s.2,0,.3,0h.6c.1,0,.2,0,.3,0,.3,0,.6,0,.7.2.2.1.2.3.2.6,0,.6-.3.9-.9.9l.8,1.2c0,0,.1.1.1.2,0,.1.2.2.3.3,0,0,0,0,0,0,0,0,0,0,0,0h0s0,0,0,0c0,0,0,.1,0,.1h-.1c0,0-.1,0-.2,0,0,0,0,0-.1,0,0,0-.1,0-.1,0,0,0-.1,0-.2,0v-.2c-.2-.1-.2-.2-.3-.4l-.5-.7c-.2-.3-.3-.4-.3-.5,0,0-.1,0-.2,0,0,0,0,0-.1,0h-.2s0,1.3,0,1.3c0,.2,0,.3.2.4h.2c0,0,0,0,0,0s0,.1,0,.1h-.1s-.3,0-.3,0c-.2,0-.3,0-.5,0h-.4c0,0,0,0,0,0s0,0,0,0h.2c.2,0,.2-.1.2-.4v-2.5h0ZM55.2,29.5c.1,0,.3,0,.3,0,.4,0,.6,0,.8-.2.2-.1.2-.3.2-.6s0-.5-.2-.6c-.1,0-.3-.1-.6-.1s-.3,0-.5,0c0,.1,0,.2,0,.2v1.2h0,0ZM58.4,28.1c-.2,0-.3,0-.4,0,0,0-.1.2-.2.4h0c0,.2,0,.2,0,.2,0,0,0,0-.1,0-.1,0-.2,0-.2,0v-.3s0-.2,0-.2c0,0,0,0,0-.1,0,0,0,0,0-.1h0c0-.2,0-.2.1-.2h1c.4,0,.7,0,1.1,0h.9c0,0,.1,0,.1,0h0c0,.2,0,.2,0,.2,0,0,0,0,0,.2v.4s0,0-.1,0,0,0-.1,0c0,0,0,0,0,0h0c0-.3,0-.5-.2-.5,0,0-.2,0-.4,0h-.5v2.9c0,.2,0,.3.3.4h.2c0,0,.1,0,.1,0s0,.1,0,.1h-.1s-.3,0-.3,0c-.2,0-.4,0-.5,0h-.4c0,0,0,0,0,0s0,0,.1,0h.2c.2,0,.3-.1.3-.4v-2.9s-.5,0-.5,0ZM61.5,28.5c0-.2,0-.3-.2-.4h-.2c0,0-.1,0-.1-.1s0,0,0,0h.2c0,0,.1,0,.2,0,.2,0,.3,0,.5,0,0,0,.1,0,.2,0h.2c0,0,0,0,0,0s0,0,0,0h-.2c-.2,0-.2.1-.2.4v1h1.9v-1c0-.2,0-.3-.2-.4h-.2c0,0-.1,0-.1-.1s0,0,0,0h.2c0,0,.1,0,.2,0,.2,0,.3,0,.5,0,0,0,.1,0,.2,0h.2c0,0,.1,0,.1,0s0,0,0,0h-.2c-.2,0-.2.1-.2.4v2.5c0,.2,0,.3.2.4h.2c0,0,.1,0,.1,0s0,.1,0,.1h-.1s-.3,0-.3,0c-.2,0-.3,0-.5,0h-.4c0,0,0,0,0,0s0,0,0,0h.2c.2,0,.2-.1.2-.4v-1.3h-1.9v1.3c0,.2,0,.3.2.4h.2c0,0,.1,0,.1,0s0,.1,0,.1h-.1s-.3,0-.3,0c-.2,0-.3,0-.5,0h-.4c0,0,0,0,0,0s0,0,0,0h.2c.2,0,.2-.1.2-.4,0,0,0-2.5,0-2.5ZM65.7,28.8c-.1-.5-.3-.7-.4-.7h0c0,0,0,0,0-.1s0,0,0,0h.2c.3,0,.5,0,.8,0h.2c0,0,0,0,0,0s0,0,0,0h-.1c-.1,0-.2,0-.2.2h0c0,.2,0,.3,0,.4l.6,2.3.8-3c0,0,0,0,0,0h.3c0,0,0,0,.1.1v.3c0,0,0,0,0,.1,0,.3.2.7.3,1.1,0,.2.1.5.2.7l.2.8c.1-.4.2-.7.3-1.1l.2-.8c0-.4.1-.7.1-.8s0-.2-.2-.2h0c0,0,0,0,0-.1s0,0,0,0h.1s0,0,.1,0c.1,0,.2,0,.4,0,0,0,0,0,.1,0h.1c0,0,0,0,0,0s0,0,0,0h0s0,0,0,0c-.1,0-.2.2-.3.5-.3.9-.5,1.8-.7,2.7,0,.2,0,.3-.1.3h-.3s0,0-.1-.1v-.3c0,0,0,0,0,0,0,0,0-.1,0-.2l-.4-1.5c0-.4-.2-.7-.3-1.1l-.6,2.2c0,.2-.1.4-.2.6,0,.3-.1.5-.2.5h-.3s0,0,0,0l-.7-2.7h0ZM70.8,28.5c0-.2,0-.3-.2-.4h-.2c0,0,0,0,0-.1s0,0,0,0h.3c.1,0,.2,0,.3,0,.3,0,.7,0,1,0h1c0,0,0,0,0,0h0c0,.2,0,.3,0,.4v.4s0,0-.2,0-.1,0-.1,0h0c0-.2,0-.3,0-.3,0-.1-.1-.2-.2-.3,0,0-.2,0-.2,0-.1,0-.2,0-.3,0h0c-.1,0-.3,0-.6,0,0,0,0,.2,0,.3v1.2h.4c.2,0,.3,0,.4,0,0,0,.1-.1.1-.3,0,0,0-.1,0-.2h0s0,0,0,0,0,0,.1,0,.1,0,.1,0v.2c0,.3,0,.6,0,.9v.2s0,0-.1,0-.1,0-.1,0h0c0-.3,0-.4-.1-.5,0,0-.2,0-.4,0h-.4v1.6h1c.3,0,.5-.2.6-.5v-.2s0,0,0,0h0c0-.2,0-.2.2-.2s.1,0,.1,0v.8c0,0,0,.1-.1.1h-.5c-.2,0-.3,0-.5,0-.2,0-.4,0-.6,0-.1,0-.3,0-.4,0-.1,0-.2,0-.3,0h-.3c0,0,0,0,0,0s0,0,0,0h.2c.2,0,.2-.1.2-.4v-2.5h0ZM73.7,30.5c0,0,0,0,.1,0s.1,0,.1,0c0,0,0,0,0,0h0c0,0,0,.1,0,.1,0,.5.3.8.8.8s.9-.3.9-.8-.2-.6-.6-.7c0,0-.2,0-.3-.1h-.1s0,0,0,0c0,0,0,0,0,0,0,0,0,0,0,0-.2,0-.3-.1-.4-.2-.3-.2-.4-.5-.4-.8,0-.6.4-.9,1.2-.9s.6,0,.9.1h0s0,0,0,0v.8c0,0,0,0-.1,0s-.2-.1-.2-.3,0-.3-.2-.4c-.1-.1-.3-.2-.5-.2-.5,0-.8.2-.8.6s.2.5.5.6c0,0,.2,0,.3.1h.1s0,0,0,0c0,0,0,0,0,0,.2,0,.3.1.4.2.4.2.5.5.5.9,0,.8-.5,1.1-1.4,1.1s-.3,0-.5,0c-.2,0-.3,0-.5-.1,0,0-.1,0-.1-.1,0,0,0-.8,0-.8ZM78.1,28.1h-.5c-.2,0-.3,0-.4,0,0,0-.1.2-.2.4h0c0,.2,0,.2,0,.2,0,0,0,0-.1,0-.1,0-.2,0-.2,0v-.3s0-.2,0-.2c0,0,0,0,0-.1,0,0,0,0,0-.1h0c0-.2,0-.2.1-.2h.9c.4,0,.7,0,1.1,0h.9c0,0,.1,0,.1,0h0c0,.2,0,.2,0,.2,0,0,0,0,0,.2v.4s0,0-.1,0,0,0-.1,0c0,0,0,0,0,0h0c0-.3,0-.5-.2-.5,0,0-.2,0-.4,0h-.5v2.9c0,.2,0,.3.3.4h.2c0,0,.1,0,.1,0s0,.1,0,.1h-.1s-.3,0-.3,0c-.2,0-.4,0-.5,0h-.4c0,0,0,0,0,0s0,0,.1,0h.2c.2,0,.3-.1.3-.4,0,0,0-2.9,0-2.9ZM82.2,28.5c0-.2,0-.3-.2-.4h-.2c0,0,0,0,0-.1s0,0,0,0h.2c0,0,.1,0,.2,0,.2,0,.3,0,.5,0,0,0,.1,0,.2,0h.2c0,0,0,0,0,0s0,0-.1,0h-.2c-.2,0-.2.1-.2.4v1.9c0,.4,0,.7.2.9.2.2.4.2.8.2.8,0,1.1-.4,1.1-1.1v-1.3s0-.3,0-.3c0-.1,0-.3,0-.4,0-.2-.1-.3-.3-.3h-.1c0,0,0,0,0-.1s0,0,0,0h.2c.3,0,.5,0,.8,0h.2c0,0,0,0,0,0s0,0,0,0h-.1c-.2,0-.3.3-.3.8v1.2c0,.3,0,.6,0,.7,0,.2-.2.4-.3.5-.2.2-.6.3-1.1.3s-.9,0-1.1-.3c-.2-.2-.3-.5-.3-1v-1.9h0,0ZM86.2,28.3c0-.1,0-.2-.2-.2h-.2c0,0-.1,0-.1-.1s0,0,0,0h.3s.1,0,.1,0h.3c0,0,.1,0,.1,0l.2.3.2.2,1.9,2.4v-2.2c0,0,0-.1,0-.2,0,0,0-.2,0-.3,0-.1,0-.2-.2-.2h-.2c0,0,0,0,0-.1s0,0,.1,0h.2c.2,0,.5,0,.7,0h.2c0,0,.1,0,.1,0s0,0,0,0h-.1c-.1,0-.2,0-.3.2,0,0,0,.2,0,.3,0,0,0,.2,0,.4v1.9c0,.1,0,.3,0,.4v.2c0,0,0,.1,0,.1h0s-.1,0-.1,0c0,0,0,0-.1,0l-.4-.6-1.9-2.5v2.3s0,.2,0,.2c0,.1,0,.2,0,.2,0,.1,0,.2.2.2h.2c0,0,0,0,0,0s0,0-.1,0h-.2c-.2,0-.5,0-.7,0h-.2c0,0-.1,0-.1,0s0,0,0,0h.1c.1,0,.2,0,.3-.2,0,0,0-.2,0-.3,0,0,0-.2,0-.4v-2.1h0ZM90.4,28.5c0-.2,0-.3-.2-.4h-.2c0,0,0,0,0-.1s0,0,0,0h.2c0,0,.1,0,.2,0,.2,0,.3,0,.5,0,0,0,.1,0,.2,0h.2c0,0,0,0,0,0s0,0,0,0h-.2c-.2,0-.2.1-.2.4v2.5c0,.2,0,.3.2.4h.2c0,0,0,0,0,0s0,.1,0,.1h-.1s-.3,0-.3,0c-.2,0-.3,0-.5,0h-.4c0,0,0,0,0,0s0,0,.1,0h.2c.2,0,.2-.1.2-.4v-2.5h0,0ZM93.6,30.8c.1-.3.2-.5.3-.8.1-.3.2-.6.3-.8.2-.5.2-.7.2-.8s0-.2-.2-.2h-.1c0,0,0,0,0-.1s0,0,0,0h.5s.5,0,.5,0c0,0,.1,0,.1,0s0,0,0,0h-.1c0,0-.2,0-.2.2,0,0,0,.2-.1.3l-.7,1.9c-.2.5-.3.8-.3.9,0,.2-.1.3-.1.3h-.3s0,0,0,0h0s0,0,0-.1l-.2-.7-.6-1.8c0-.2-.2-.4-.2-.6,0-.2-.2-.3-.3-.3h-.1c0,0-.1,0-.1-.1s0,0,.1,0h.2c.3,0,.6,0,.8,0h.2c0,0,0,0,0,0s0,0,0,0h-.2c-.1,0-.2,0-.2.2s.3,1,1,2.7v-.3q.1,0,.1,0ZM95.8,28.5c0-.2,0-.3-.2-.4h-.2c0,0-.1,0-.1-.1s0,0,.1,0h.3c.1,0,.2,0,.3,0,.3,0,.7,0,1,0h1c0,0,0,0,0,0h0c0,.2,0,.3,0,.4v.4s0,0-.2,0-.1,0-.1,0h0c0-.2,0-.3,0-.3,0-.1-.1-.2-.2-.3,0,0-.2,0-.2,0-.1,0-.2,0-.3,0h0c-.1,0-.3,0-.6,0,0,0,0,.2,0,.3v1.2h.4c.2,0,.3,0,.4,0,0,0,.1-.1.1-.3,0,0,0-.1,0-.2h0s0,0,0,0,0,0,.1,0,.1,0,.1,0v.2c0,.3,0,.6,0,.9v.2s0,0-.1,0-.1,0-.1,0h0c0-.3,0-.4-.1-.5,0,0-.2,0-.4,0h-.4v1.6h1c.3,0,.5-.2.6-.5v-.2s0,0,0,0h0c0-.2,0-.2.2-.2s.1,0,.1,0v.8c0,0,0,.1-.1.1h-.5c-.2,0-.3,0-.5,0-.2,0-.4,0-.6,0-.2,0-.3,0-.4,0-.1,0-.2,0-.3,0h-.3c0,0-.1,0-.1,0s0,0,.1,0h.2c.2,0,.2-.1.2-.4v-2.5h0ZM99,28.5c0-.2,0-.3-.2-.4h-.2c0,0-.1,0-.1-.1s0,0,0,0h.2c0,0,.1,0,.2,0,0,0,.2,0,.2,0s.2,0,.3,0h.6c.1,0,.2,0,.3,0,.4,0,.6,0,.7.2.2.1.2.3.2.6,0,.6-.3.9-.9.9l.8,1.2c0,0,.1.1.1.2,0,.1.2.2.3.3,0,0,0,0,0,0,0,0,0,0,0,0h0s0,0,0,0c0,0,0,.1,0,.1h-.1c0,0-.1,0-.2,0,0,0,0,0-.1,0,0,0-.1,0-.1,0,0,0-.1,0-.2,0v-.2c-.2-.1-.2-.3-.3-.4l-.5-.7c-.2-.3-.3-.4-.3-.5,0,0-.1,0-.2,0,0,0,0,0-.1,0h-.1s0,1.3,0,1.3c0,.2,0,.3.2.4h.2c0,0,.1,0,.1,0s0,.1,0,.1h-.1s-.3,0-.3,0c-.2,0-.3,0-.5,0h-.4c0,0-.1,0-.1,0s0,0,0,0h.2c.2,0,.2-.1.2-.4v-2.5h0,0ZM99.5,29.5c.1,0,.3,0,.3,0,.4,0,.6,0,.8-.2.2-.1.2-.3.2-.6s0-.5-.2-.6c-.1,0-.3-.1-.6-.1s-.3,0-.5,0c0,.1,0,.2,0,.2,0,0,0,1.2,0,1.2ZM102.2,30.5c0,0,0,0,.1,0s.1,0,.1,0c0,0,0,0,0,0h0c0,0,0,.1,0,.1,0,.5.3.8.8.8s.9-.3.9-.8-.2-.6-.6-.7c0,0-.2,0-.3-.1h-.1s0,0,0,0c0,0,0,0,0,0,0,0,0,0,0,0-.1,0-.3,0-.4-.2-.3-.2-.4-.5-.4-.8,0-.6.4-.9,1.2-.9s.6,0,.9.1h0s0,0,0,0v.8c0,0,0,0-.1,0s-.2-.1-.2-.3,0-.3-.2-.4c-.1-.1-.3-.2-.5-.2-.5,0-.8.2-.8.6s.2.5.5.6c0,0,.2,0,.3.1h.1s0,0,0,0c0,0,0,0,0,0,.2,0,.3.1.4.2.4.2.5.5.5.9,0,.8-.5,1.1-1.4,1.1s-.3,0-.5,0c-.2,0-.3,0-.5-.1,0,0-.1,0-.1-.1,0,0,0-.8,0-.8ZM105.8,28.5c0-.2,0-.3-.2-.4h-.2c0,0-.1,0-.1-.1s0,0,0,0h.2c0,0,.1,0,.2,0,.2,0,.3,0,.5,0,0,0,.1,0,.2,0h.2c0,0,0,0,0,0s0,0,0,0h-.2c-.2,0-.2.1-.2.4v2.5c0,.2,0,.3.2.4h.2c0,0,0,0,0,0s0,.1,0,.1h-.1s-.3,0-.3,0c-.2,0-.3,0-.5,0h-.4c0,0,0,0,0,0s0,0,.1,0h.2c.2,0,.2-.1.2-.4v-2.5h0,0ZM107.9,28.1c-.2,0-.3,0-.4,0,0,0-.1.2-.2.4h0c0,.2,0,.2,0,.2,0,0,0,0-.1,0-.1,0-.2,0-.2,0v-.3s0-.2,0-.2c0,0,0,0,0-.1,0,0,0,0,0-.1h0c0-.2,0-.2.1-.2h.9c.4,0,.7,0,1.1,0h.9c0,0,.1,0,.1,0h0c0,.2,0,.2,0,.2,0,0,0,0,0,.2v.4s0,0-.1,0,0,0-.1,0c0,0,0,0,0,0h0c0-.3,0-.5-.2-.5,0,0-.2,0-.4,0h-.5v2.9c0,.2,0,.3.3.4h.2c0,0,.1,0,.1,0s0,.1-.1.1h-.1s-.3,0-.3,0c-.2,0-.4,0-.5,0h-.4c0,0,0,0,0,0s0,0,.1,0h.2c.2,0,.3-.1.3-.4v-2.9h-.5,0ZM112,30.1c0,0,0-.2-.1-.4,0,0-.1-.2-.2-.3l-.5-.7c0-.1-.1-.2-.2-.3-.1-.2-.2-.3-.3-.3h-.1c0,0-.1,0-.1-.1s0,0,.1,0h.2c0,0,.1,0,.2,0,.2,0,.4,0,.5,0,0,0,.1,0,.2,0h.2c0,0,.1,0,.1,0s0,0-.1,0h-.1c-.1,0-.2,0-.2.2s0,.2.1.3l.7,1.2c.1-.2.3-.4.4-.6,0-.1.2-.3.2-.5.1-.2.2-.4.2-.5,0,0,0-.1-.2-.1h0c0,0,0,0,0-.1s0,0,0,0h.5s.5,0,.5,0c0,0,0,0,0,0s0,0-.1,0c-.1,0-.2,0-.3.2,0,.1-.2.2-.2.4l-.6,1c0,0,0,.1-.1.2,0,0,0,.2,0,.2v.9c0,.2,0,.3.2.4h.2c0,0,.1,0,.1,0s0,.1-.1.1h-.1s-.3,0-.3,0c-.2,0-.4,0-.5,0h-.4c0,0-.1,0-.1,0s0,0,.1,0h.2c.2,0,.2-.1.2-.4v-.9h0,0ZM105.9,24.2c0,0-.1,0-.2,0-.3,0-.4-.2-.3-.5,0-.2,0-.4.3-.4.4,0,.7-.3,1.1-.4.2,0,.5-.1.7-.2.2,0,.4-.2.5-.3.2-.2.3-.4.2-.6,0-.1,0-.3,0-.4,0-.1-.1-.2-.3-.3,0,0-.1,0-.2,0-.2,0-.4,0-.5,0-.2,0-.4,0-.6.1-.2,0-.4.2-.6.3-.1,0-.2,0-.4,0-.1,0-.2-.1-.2-.2,0-.1,0-.3.2-.4.2-.2.4-.4.6-.6.1-.1.3-.2.4-.3.2,0,.3-.1.5-.2.2-.1.4-.3.3-.5,0-.3,0-.6,0-.9,0-.4,0-.8,0-1.2.1-.5.3-.9.4-1.4,0-.2,0-.4,0-.7,0-.1,0-.2-.2-.3-.2,0-.4,0-.6,0-.3,0-.6.2-.9.3-.3.1-.6.2-.9.3-.1,0-.2,0-.3.1-.2.1-.5.3-.7.4-.2.1-.5.3-.7.5-.1.1-.3.2-.4.3-.1,0-.3,0-.4,0-.1,0-.2-.1-.2-.3,0-.2,0-.3,0-.5,0,0,0-.2.1-.3.2-.5.6-.7,1.1-.7.2,0,.4,0,.5,0s0,0,0,0c.2,0,.4-.1.6-.3,0,0,.1,0,.2-.1.3-.2.7-.4,1-.5.3,0,.7-.1,1.1-.2.2,0,.5,0,.7-.2.1,0,.2-.2.4-.2.1,0,.3-.1.4-.1,0,0,.2,0,.2-.1,0,0,.1,0,.2,0,.2,0,.3,0,.5,0,0,0,.2,0,.2,0,.3,0,.6.3.8.5.2.2.2.4.2.7,0,.4-.3.8-.6,1-.2.2-.4.3-.6.4-.1.1-.3.2-.4.4-.3.4-.5.8-.6,1.3,0,.1,0,.3,0,.4.1.3.3.5.4.7,0,0,.1.1.2,0,.4,0,.8,0,1.1-.1,0,0,.2,0,.2,0l1.2.3c.1,0,.2,0,.3.1.1,0,.3,0,.5,0,.4,0,.8.1,1.1.4,0,0,.1.2.2.3h0c0,.3-.1.4-.2.5-.2.1-.3.2-.5.2-.4,0-.8.1-1.2.3-.3.2-.7.2-1.1.1-.2,0-.4,0-.6,0-.2,0-.2,0-.2.3,0,0,0,.1,0,.2,0,.2,0,.4,0,.5,0,0,0,.2,0,.3,0,.3,0,.5,0,.8,0,.2,0,.4-.3.5-.4.2-.8.3-1.1.5,0,0-.2,0-.3,0,0,0-.1,0-.2,0,0,0,0,0-.1,0,0,0,0,0,0,0,0,0,0,0,0,0,0,0,0,0-.1,0-.3,0-.6,0-1,0-.4,0-.7,0-1.1,0h0ZM113,9.4c-.1,0-.3.2-.4.3,0,0,0,0-.1,0-.2,0-.3,0-.5,0-.3-.1-.7,0-1.1,0-.1,0-.3,0-.4.1-.2,0-.5.1-.8,0-.2,0-.3-.1-.5-.2,0,0,0,0,0,0,0,0,0,0,0,0,0,0-.1.1-.2.2-.1.1-.3.2-.5.2-.2,0-.3,0-.4.2,0,.2-.1.4-.1.6,0,.2,0,.3.2.3.3.1.6.2,1,.2,0,0,.2,0,.2-.1,0,0,0-.1.1-.2.3-.2.6-.2.9-.2,0,0,0,0,0,0,0,0,0,0,0,0,0,0,0,0-.1,0,0,.1-.2.2-.3.3-.1,0-.2.2-.3.3-.1.1-.2.2-.2.4,0,.3,0,.4.4.4.2,0,.3-.1.4-.2.2-.2.4-.2.6-.3,0,0,.2,0,.3,0,.3,0,.6-.1.8-.3.1,0,.2-.1.4-.1.2,0,.4-.1.6-.3,0,0,.2-.2.3-.2.2-.2.4-.4.6-.6,0,0,0,0,0,0,0-.1,0-.2,0-.3,0-.2-.2-.4-.4-.4,0,0,0,0-.1,0h-.1s0,0,0,0ZM106.6,11.5c0-.1-.1-.2-.1-.3,0-.2,0-.3,0-.5,0-.3,0-.5-.2-.7,0-.2-.2-.3-.4-.4-.1,0-.2,0-.4,0,0,0,0,0,0,0-.1,0-.2.1-.2.2,0,0,0,.1,0,.2,0,.3,0,.6,0,.8,0,.2,0,.4,0,.6,0,.1,0,.2-.1.3,0,.2,0,.4,0,.6.1.5.7.9,1.2.8.3,0,.4-.2.5-.5,0,0,0-.2,0-.3,0-.3,0-.6-.2-.9ZM90.8,11.2c0-.2,0-.5,0-.7,0,0,0,0,0-.1.1-.1.2-.1.4,0,.1,0,.2,0,.3.2.2.2.5.3.7.5.2.1.4.3.5.5.2.2.2.5.3.7,0,.2,0,.3,0,.5,0,.2,0,.4.2.4.3,0,.6,0,.8-.3,0,0,.1-.1.2-.1,0,0,.1,0,.2-.1,0,0,0,0,0,0,.4.1.6.6.4,1,0,0,0,.1-.2.2-.3.2-.5.4-.8.7,0,0-.2.2-.3.2-.3,0-.5.2-.7.4-.2.2-.4.3-.5.5,0,0-.1.2-.1.3,0,0,0,.1,0,.2,0,.2-.1.4-.3.5-.1.1-.3.2-.4.3,0,0-.1.2-.2.3,0,.2-.1.4-.2.6,0,.2-.2.4-.4.5-.3.2-.5.4-.6.7,0,.3-.2.5-.4.8-.2.2-.3.5-.4.7,0,0-.1.2-.2.2-.3.2-.6.5-.8.8-.1.1-.2.3-.4.4-.1,0-.3.1-.4.1-.3,0-.4-.4-.4-.6,0-.1.1-.2.2-.3,0,0,0-.1.1-.2.2-.2.4-.5.5-.8.2-.4.4-.7.7-1.1.2-.4.4-.7.6-1.1,0-.2,0-.3.1-.5,0-.3.1-.5.2-.8,0,0,0,0,0-.1,0,0-.2-.1-.3-.2-.3-.2-.7-.4-.9-.7-.2-.2-.2-.5-.2-.8,0,0,0,0,0,0,0,0,0-.1.1-.1.2,0,.5,0,.7,0,.4,0,.7,0,1.1-.2.3-.2.5-.4.6-.8,0-.2,0-.4,0-.6,0-.3,0-.6,0-.8,0-.2,0-.5,0-.7h0ZM93.2,22.7c0,0,0,.1.1.1.1,0,.3,0,.4,0,.3-.2.6-.4.9-.6.2-.1.4-.2.6-.2.1,0,.3,0,.4,0,.3,0,.5,0,.7-.3.3-.2.3-.5.1-.8-.2-.3-.3-.6-.4-.9,0,0,0-.1,0-.2,0-.2-.3-.4-.5-.4-.2,0-.3-.1-.5-.2-.2,0-.3-.1-.5-.2-.2-.2-.4-.3-.6-.4-.3-.2-.7-.3-1.1-.3,0,0,0,0,0,0,0,0,0,0,0,0-.1,0-.2,0-.3.2,0,0,0,.2,0,.2,0,.3,0,.6,0,.9,0,.1,0,.2.1.2.4,0,.7.2.8.7,0,.3,0,.6,0,.9,0,.3,0,.6,0,.9,0,.2,0,.5,0,.7ZM73,16.2c0,.2,0,.4,0,.6,0,.2,0,.4-.1.5,0,.2-.1.3-.2.5,0,0,0,.1,0,.2,0,0,0,0,0,0,.1-.1.3,0,.4,0,0,0,0,0,0,.1,0,.2,0,.5,0,.7,0,.3-.2.6-.5.8-.4.3-.7.6-.9,1-.1.2-.3.4-.4.6-.2.3-.5.5-.8.7-.2.1-.4.3-.6.5-.2.2-.4.4-.7.5-.1,0-.3,0-.4,0-.2,0-.4.1-.7.2-.4,0-.7,0-.9-.4-.1-.2-.2-.4-.2-.6,0-.2,0-.4.2-.5.2-.2.4-.3.7-.3,0,0,0,0,.1,0,.3,0,.6-.2.8-.3.4-.2.7-.4,1-.7.2-.2.4-.4.4-.6.1-.5.3-.9.5-1.3,0,0,0-.1,0-.1-.2,0-.3,0-.5,0,0,0-.2,0-.2,0-.2,0-.4-.2-.4-.3,0-.2-.1-.4-.2-.6,0-.3,0-.6.1-.9,0,0,0-.1,0-.2,0-.1.2-.2.3-.1.1,0,.2,0,.3.1.1,0,.2,0,.4,0,.2,0,.3-.1.4-.3,0-.2,0-.5,0-.7,0-.5,0-1,0-1.5.1-.5.4-.9.8-1.2,0,0,.1,0,.2,0,.2,0,.3,0,.3.3,0,.3.2.5.3.8,0,.2,0,.4,0,.6,0,.4,0,.8.1,1.1,0,0,0,0,0,0,0,.2,0,.4,0,.7h0ZM77.9,13.6c-.2-.6-.7-.8-1.3-1,0,0,0,0,0,0,0,.1,0,.2,0,.4,0,.2,0,.5,0,.7,0,.7-.1,1.4-.2,2.1,0,.3,0,.5,0,.8,0,.4,0,.7,0,1.1,0,.4,0,.8,0,1.2,0,.3.1.6.4.8.1.1.2.2.4.3.3.3.7.5,1.1.7.2,0,.4,0,.6,0,.6-.2,1.1-.5,1.5-1.1.1-.2.2-.4.4-.6.1-.2.3-.4.5-.5,0,0,0,0,0,0,0-.3-.3-.5-.5-.5-.2,0-.3,0-.5,0-.5.1-.9.3-1.3.6,0,0-.1.1-.2.1-.2.1-.4,0-.6-.2,0,0,0-.1,0-.2,0-.2,0-.4,0-.6,0-.3,0-.6,0-.9-.1-.3-.2-.7-.2-1,0-.3,0-.5.1-.8,0-.3.1-.5.2-.8,0,0,0-.2,0-.2,0-.2,0-.3,0-.4ZM79.7,11.4c0,0,0,0,0,0,0,.2,0,.4,0,.5,0,.2.1.4.2.6.1.3.2.6.2.9,0,.1,0,.2,0,.3q0,.1.2.2h0c.2,0,.5,0,.7,0,.4-.2.8-.5,1-.9,0,0,.1-.2.1-.3,0-.1,0-.2,0-.4,0,0,0,0,0,0,0,0-.2-.2-.3-.2,0,0,0,0-.1,0-.3-.1-.6-.2-.9-.4,0,0-.1,0-.2,0-.2,0-.4,0-.6,0-.1,0-.2,0-.4,0h0ZM46,19.2s0,0,0-.1c0-.3.2-.6.4-.8,0,0,0,0,0,0,.2,0,.3,0,.4.1.2.2.4.3.5.5.2.3.4.5.7.8.2.2.4.5.4.8,0,.3.2.5.3.8,0,.2.2.5.2.7,0,.2,0,.4-.1.5-.2.4-.6.6-1,.6-.5,0-.9-.1-1.3-.5-.2-.2-.3-.4-.3-.6,0,0,0-.2,0-.2.1-.3,0-.6,0-.9-.1-.4-.2-.7-.2-1.1,0,0,0-.2,0-.3,0,0,0-.2,0-.2ZM54,24c.4,0,.7,0,1-.4.2-.2.4-.3.6-.4.1,0,.2-.1.3-.2.2-.2.5-.4.7-.5.1,0,.2-.2.3-.3,0-.1.2-.3.3-.4,0,0,0-.1,0-.2,0-.2,0-.4,0-.5,0,0,0-.2.1-.3,0-.1,0-.3,0-.4l-.2-.2c0,0-.1-.2-.2-.3,0,0,0-.1,0-.2.1,0,.2,0,.4,0,.5,0,.9-.2,1.4-.3.4-.1.7-.2,1-.5.5-.4.9-.8,1.3-1.2.1-.1.3-.3.4-.5.2-.4.4-.7.8-1,0,0,0,0,0-.1,0,0,.1-.2.1-.3,0-.3,0-.6.1-.8,0-.2,0-.5,0-.8,0-.3-.2-.5-.4-.6-.2,0-.4-.2-.5-.4-.1-.1-.3-.2-.5-.2-.2,0-.3,0-.5,0-.3,0-.6,0-.9,0-.3,0-.5,0-.8,0,0,0-.1,0-.2,0,0,0,0,0,0,0-.4,0-.8.1-1.2.3,0,0-.1,0-.2,0-.3,0-.5.1-.8.1-.3,0-.5.1-.8.3-.1,0-.2.2-.3.3,0,0-.2.1-.2.2-.4.2-.9.3-1.3.6-.1,0-.3.1-.5,0-.3,0-.5,0-.8,0-.2,0-.4,0-.5-.1-.1,0-.2-.1-.4-.2-.2,0-.5,0-.6.2-.2.2-.3.4-.3.6-.2.5-.3,1-.4,1.6,0,.3,0,.6.1.9,0,0,0,.2,0,.3,0,.2,0,.4,0,.6,0,0,0,0,0,0,0,0,0,0,0,0,0,0,0,0,0,0,0,0,.1,0,.1.2,0,0,0,.1,0,.2,0,.2,0,.5,0,.7,0,.3.1.7.4.8.1,0,.3,0,.4,0,0,0,.2-.1.3-.2.5-.4.8-1,.9-1.6,0-.2,0-.3,0-.5,0-.3.2-.5.4-.7,0-.1.2-.2.4-.2.2,0,.5,0,.7-.1.1,0,.2,0,.1.1-.2.6-.5,1.2-.8,1.8-.2.4-.5.7-.8,1-.2.3-.4.5-.5.9-.1.3-.3.7-.5,1,0,.1-.1.2-.2.4,0,.3,0,.5.3.6.1,0,.2,0,.3,0,.3,0,.6,0,.9,0,.1,0,.1,0,.1.2,0,0,0,.2,0,.3,0,.2.1.3.3.3,0,0,.2,0,.3,0,0,0,.1,0,.2,0h0ZM59.4,16.9c-.2.3-.4.6-.7.8-.1.2-.3.3-.5.4-.5.2-.9.5-1.4.8,0,0-.1.2-.1.3,0,.2,0,.4,0,.5,0,.2,0,.2-.3.2,0,0,0,0-.1,0-.2,0-.3,0-.5,0-.3.1-.6.3-.9.5,0,0,0,0,0,0-.2,0-.4-.2-.3-.5,0,0,0,0,0,0,0-.2.1-.3.2-.5.2-.2.4-.4.7-.6.2-.2.3-.3.4-.6,0-.1.1-.3.2-.4,0-.2.1-.4.2-.6,0-.7.5-1.2,1-1.6.3-.2.7-.4,1.1-.6.3-.1.7-.3,1-.4,0,0,0,0,0,0,0,0,.1,0,.2,0,.3,0,.4.2.4.5,0,.6-.2,1.2-.6,1.8ZM53.7,9.7c-.2,0-.3,0-.5,0,0,0-.1,0-.2,0-.2.1-.4.3-.5.5-.1.1-.2.3-.2.4,0,.2,0,.4-.2.5,0,0,0,0,0,0,0,.3.1.5.3.6.1.1.3.2.5.2.2,0,.4,0,.5,0,.3,0,.5,0,.8,0,.3,0,.6,0,.9-.3.2-.2.3-.3.4-.5,0-.2.2-.3.4-.4.1,0,.2-.2.2-.4,0-.1,0-.2-.1-.3-.2-.3-.5-.5-.8-.6,0,0-.1,0-.2,0,0,0,0,0-.1.1,0,0,0,0-.1,0-.3-.1-.6-.1-.9-.1,0,0,0,0,0,0h0s0,0,0,0Z"/>
    </g>
  </g>
</svg>