<svg width="128" height="137" fill="none" xmlns="http://www.w3.org/2000/svg"><g filter="url(#a)"><mask id="b" style="mask-type:alpha" maskUnits="userSpaceOnUse" x="20" y="20" width="88" height="88"><path d="M20 20h88v87.999H20V20Z" fill="#fff"/></mask><g mask="url(#b)"><path fill-rule="evenodd" clip-rule="evenodd" d="M22.794 63.996c0-22.72 18.486-41.202 41.202-41.202 22.721 0 41.207 18.482 41.207 41.202s-18.486 41.206-41.207 41.206c-22.716 0-41.202-18.486-41.202-41.206Zm-2.796 0c0 24.264 19.738 44.002 43.998 44.002 24.265 0 44.003-19.738 44.003-44.002 0-24.26-19.738-43.999-44.003-43.999-24.26 0-43.998 19.739-43.998 44Z" fill="#004098"/></g><path fill-rule="evenodd" clip-rule="evenodd" d="m32.59 50.825-1.323-.552.686-1.653 1.324.553-.687 1.652Zm-.043 3.03-.123-.034.672-1.615 1.507.626.855.392.437-1.058-.878-.33-1.506-.627.69-1.655.12.063.423-1.018-.906-.347-1.657-.692-.74-.336-.3.808-.776 1.866-.463-.192-.903-.412-.44 1.057.928.352.46.193-.754 1.82-.35.758.758.29 1.656.69.878.388.412-.988Zm-2.37-.966.672-1.62 1.324.556-.672 1.614-1.324-.55ZM37.936 37.908l3.604-3.178 3.435 3.899-3.6 3.178-3.439-3.9Zm-.722.596 3.487 3.949.584.702.718-.634-.068-.083 3.6-3.178.109.123.733-.646-.625-.667-3.519-3.993-.542-.655-.573.541-3.872 3.413-.613.507.58.621Zm3.957 2.868.506-.474 2.329-2.053.567-.471-.555-.631-.432.409c.002-.196.01-.377.015-.54l-.27-.02-.386-.012c-.06-.005-.151-.014-.273-.033l.466-.365-.575-.65-.374.347-.74.654-.508-.577.78-.685.539-.43-.58-.659-.54.504-2.215 1.954-.523.438.57.645.496-.468.765-.675.51.577-.612.541-.523.437.568.645.498-.469.61-.54.7.791-.827.736-.541.443.555.631Zm1.523-2.432-.7-.791.41-.366a2.403 2.403 0 0 1-.101.566c.362-.009.592 0 .693.02l.277.056-.58.515ZM52.224 29.215c.18.103.335.196.466.274l.182-.479.154-.417c-.455-.242-.91-.45-1.368-.634a3.236 3.236 0 0 1-.392.83c.458.18.78.324.958.426Zm.87 5.816c.12.085.227.158.327.23l.093-.416c.072-.317.137-.747.197-1.284l.09-.907c.006-.06.013-.15.03-.278l-.228-.069a13.04 13.04 0 0 1-.705-.3l.009.25c.005.107-.007.301-.035.58-.028.281-.057.51-.087.685-.03.179-.072.363-.117.559-.046.194-.083.33-.11.406-.03.075-.06.154-.096.236.3.122.51.225.632.308Zm-.886-3.749c.162.076.385.196.664.36l.08-.278.174-.45c.017-.038.039-.1.068-.187a55.033 55.033 0 0 0-1.357-.582c-.073.267-.133.452-.187.552a5.848 5.848 0 0 1-.16.306c.314.111.55.204.718.28Zm4.746-.983c-.358-.233-.612-.39-.759-.482l1.218-.312.18.859-.896.227.257-.292Zm.082 2.091c.143-.154.273-.284.392-.387a21.342 21.342 0 0 0-.788-.523l1.135-.287.078.373c.027.166.063.361.095.594l-.912.23Zm-1.998-2.28.878-.223a3.474 3.474 0 0 1-.435.463c.145.07.362.201.649.386l-.978.248-.114-.874Zm-1.742.024c.107.073.224.156.347.255l.155-.264c.035-.056.109-.21.22-.46l.073.388c0 .013.024.151.065.408l.072.48c.009.06.018.152.031.27l-.802.188.217.858.713-.202.034.384c.011.147.025.341.035.585.014.244.02.412.022.498.003.09.003.22.003.388l.782-.233 2.756-.699-.017.117c-.005.094-.1.181-.276.26-.176.084-.298.13-.366.144a18 18 0 0 1-.65.102c.219.233.358.407.417.515.06.108.117.222.168.344.61-.174 1.003-.328 1.187-.472.182-.14.301-.287.364-.435.066-.152.102-.296.112-.435.008-.14.014-.265.025-.384l.642-.143-.208-.826-.602.176-.048-.279-.077-.406c-.014-.06-.027-.158-.048-.285l.713-.158-.218-.855-.69.19-.103-.537c-.009-.049-.043-.206-.099-.472l-.134-.68-.87.253-2.438.617-.726.162.18-.522 3.128-.794 1.027-.23-.22-.864-1.013.287-2.673.677c.054-.185.1-.382.14-.595a4.718 4.718 0 0 1-1-.065 5.79 5.79 0 0 1-.075.614c-.036.182-.096.431-.179.74-.085.311-.179.55-.29.712-.113.16-.216.301-.315.42.233.1.401.186.51.263Zm1.963 1.699 1.018-.261-.076.065-.222.207c-.032.029-.082.064-.142.118.322.187.52.309.586.366.073.054.144.108.212.165l-1.293.329-.083-.99ZM70.304 31.724l1.08.262.219-.888-1.046-.255-.744-.162.215-.887.688.188 1.092.266.213-.878-1.435-.35-.696-.15.212-.869.677.187.693.168a6.91 6.91 0 0 0-.306-1.105c.369-.064.67-.132.904-.192.141.441.269.867.38 1.279-.154.037-.323.083-.497.135l1.543.374a18.7 18.7 0 0 0-.443-.323c.17-.165.315-.322.432-.469.119-.143.252-.319.403-.538.25.202.51.406.778.606-.326.377-.504.58-.53.61l-.183.225.669.162.716.154-.214.89-.667-.182-1.495-.364-.208.857.983.243.737.155-.214.888-.63-.17-1.083-.265-.216.889 1.523.367.711.154-.216.9-.684-.19-1.542-.37-.182.742-.212.986-.996-.244.265-.972.179-.745-1.072-.26-1.06-.24.22-.895 1.04.276Zm-1.603-4.662c.289-.182.548-.372.78-.567.37.442.658.8.86 1.082-.048.048-.288.278-.71.69-.106-.15-.415-.553-.93-1.205Zm-1.295 5.062c.147-.173.32-.406.525-.69.204-.287.336-.483.401-.591l.276-.455c.179.225.397.463.645.724-.273.433-.512.796-.714 1.089-.204.29-.397.56-.575.81-.178.245-.349.463-.513.645-.165-.38-.296-.64-.398-.784l-.168-.241c.199-.163.372-.333.52-.507Zm.36-3.137c.376-.308.623-.512.734-.609.269.307.569.683.91 1.135-.385.35-.623.571-.709.661a7.944 7.944 0 0 0-.258-.366c-.086-.119-.314-.392-.677-.82ZM80.905 37.453c.376.176.805.33 1.293.469.484.136.947.146 1.38.023.431-.113.775-.25 1.033-.416.257-.162.48-.346.674-.559l.37-.384c-.805-.69-1.332-1.125-1.584-1.308l-.764-.57.591-.739.759.637 1.588 1.273c.344-.418.545-.669.617-.762l.542-.708c.368.352.564.532.59.549l.247.198c-.225.257-.347.401-.372.43l-.802.954 1.64 1.311.785.6-.604.752-.755-.636-1.64-1.312c-.108.144-.188.26-.238.352a3.258 3.258 0 0 0-.192.483 4.062 4.062 0 0 0-.184.742c-.04.263-.049.664-.022 1.197.03.54.141.96.332 1.263.19.305.392.584.591.842a3.832 3.832 0 0 0-.333.122 2.649 2.649 0 0 0-.438.265l-.252.168a16.03 16.03 0 0 1-.48-.87c-.206-.387-.336-.88-.393-1.476-.057-.59-.062-.994-.016-1.202l.112-.648a7.96 7.96 0 0 1-.637.296c-.215.088-.518.154-.92.195a5.07 5.07 0 0 1-1.361-.079c-.513-.093-.946-.19-1.3-.29.03-.097.057-.204.083-.32.025-.111.046-.392.06-.842ZM98.78 48.782c-.505.518-.823.842-.96.975l-.391.367a7.19 7.19 0 0 0-.72-.797c.145-.106.27-.198.378-.28.104-.077.233-.191.386-.338.151-.146.35-.368.592-.663.215.273.454.517.716.736Zm-4.539-1.89.6-.247.495-.225.312.84.228.561c.401-.426.683-.8.852-1.116l.203-.387c.33.276.528.427.59.458l.253.121c-.318.533-.583.934-.795 1.211l-.254.33c-.273-.219-.55-.409-.832-.574l1.336 3.264c.04-.183.065-.41.08-.685.204.056.373.1.51.127.138.03.317.049.536.063.223.014.386.019.488.01l.504-.038c-.009.374.01.753.062 1.13l-.46-.022a21.424 21.424 0 0 1-.665-.068 6.709 6.709 0 0 1-.614-.086l-.29-.062.23.566.389.866-.543.207-.685.282-.509.224-.386-.946.616-.227.29-.122-1.907-4.659-.337.139-.526.234-.384-.944.613-.225Zm.26 3.104c-.052.216-.12.435-.206.664.195.103.39.195.59.274l-.384-.938Zm-2.636-2.338.883-.36.303.828.683 1.669a1.71 1.71 0 0 0 .09-.262c.227.173.446.312.657.42l-.297-.735-.345-.763.84-.341.282.777 1.216 2.98-.335.49a6.595 6.595 0 0 1-.33-.103c-.14-.046-.463-.213-.977-.503l.633 1.538.35.785-.876.363-.32-.847-.753-1.848a4.036 4.036 0 0 1-.675.376 1.44 1.44 0 0 1-.557.125c-.203.006-.394-.079-.565-.26a2.24 2.24 0 0 1-.375-.52 5.22 5.22 0 0 1-.257-.607c.117-.07.215-.136.302-.196.085-.06.157-.12.225-.194l.247-.269c.065.176.114.326.154.437.036.111.067.193.09.242.078.178.179.273.293.276a.876.876 0 0 0 .324-.052c.146-.062.242-.116.285-.17l.119-.14-.957-2.339-.357-.797Z" fill="#E60012"/><path fill-rule="evenodd" clip-rule="evenodd" d="M28.542 64.11c-1.351.133-2.949.777-2.79 2.43.155 1.54 1.701 1.972 3.228 1.822 1.712-.165 2.971-.99 2.83-2.427-.132-1.362-1.394-2.007-3.268-1.826Zm.12.912c.862-.083 2.035.011 2.135 1.017.103 1.083-1.218 1.34-1.88 1.407-1.694.165-2.105-.543-2.148-1.012-.051-.534.308-.886.641-1.065.225-.128.59-.285 1.253-.347ZM28.869 73.35c-.468.008-1.937.032-2.25-1.376-.26-1.168.696-2.22 2.488-2.612 1.595-.358 3.154-.065 3.465 1.338.054.242.154.853-.366 1.464-.242.281-.555.467-.937.638l-.464-.8c.603-.245.86-.676.763-1.123-.24-1.07-1.813-.72-2.182-.639-.54.12-1.067.287-1.395.55-.288.227-.464.568-.375.953.126.58.77.715 1.42.683l-.167.924ZM33.105 73.268l1.111 3.078-.932.34-.814-2.245-1.227.444.751 2.089-.933.335-.755-2.088-1.5.545.837 2.322-.934.335-1.14-3.154 5.536-2.001ZM31.464 83.47 35.686 79l-.473-.82-5.962 1.446.474.823 1.337-.35.882 1.532-.965.994.485.845Zm.597-3.63 2.197-.571-1.597 1.617-.6-1.046ZM36.908 80.96l.527.683-1.997 3.831.006.008 3.102-2.413.507.65-4.647 3.62-.55-.705 1.945-3.755-.004-.008-3.031 2.359-.51-.653 4.652-3.616ZM43.164 87.717l-1.98 2.495c-.433.547-.612.772-.7 1.06-.129.435.082.725.293.893.667.529 1.114-.032 1.734-.818l2.018-2.544.697.554-1.92 2.418c-.654.828-1.04 1.265-1.489 1.479-.699.338-1.267.033-1.654-.273-1.418-1.125-.491-2.289.353-3.354l1.952-2.459.696.55ZM46.076 89.944l.742.441-.474 4.3.008.002 2.018-3.375.71.423-3.019 5.057-.767-.458.455-4.201-.012-.009-1.971 3.3-.71-.424 3.02-5.056ZM50 92.16l.802.379-2.524 5.32-.803-.381 2.526-5.318ZM51.282 92.82l.907.334-.469 4.475.014.003 2.517-3.72.885.328-3.513 4.979-.899-.33.558-6.068ZM55.69 94.376l3.189.736-.222.968-2.327-.536-.296 1.273 2.162.503-.224.967-2.163-.5-.36 1.554 2.405.558-.228.971-3.269-.762 1.333-5.732ZM59.158 101.124l.886.091.26-2.445.176.021c.596.063.639.182 1.062 1.293l.503 1.346 1.06.111-.412-1.199c-.34-.99-.493-1.22-.83-1.537v-.017c.177-.004.348-.054.51-.129.455-.193.756-.73.821-1.369.062-.568-.076-1.265-.558-1.573-.127-.07-.333-.181-.991-.252l-1.864-.196-.623 5.855Zm1.404-4.773.69.07c.592.068.707.079.859.224.148.15.19.386.165.624-.02.171-.092.544-.412.652-.162.054-.537.017-.805-.012l-.658-.068.16-1.49ZM65.125 99.498c.065.304.233 1.117 1.03 1.065.625-.036.843-.491.818-.867-.028-.493-.347-.58-1.174-.794-.446-.117-1.44-.376-1.521-1.674-.042-.64.21-1.66 1.506-1.742.861-.054 1.674.346 1.796 1.674l-.889.107c-.057-.304-.157-.85-.861-.805-.264.018-.74.154-.708.631.022.379.31.526 1.032.7.685.174 1.615.403 1.709 1.85.04.711-.257 1.331-.624 1.586-.38.271-.824.315-1.028.325-.471.033-1.644.05-1.939-1.896l.853-.16ZM68.422 95.32l.878-.137.899 5.823-.876.134-.901-5.82ZM71.524 95.755l-1.27.31-.234-.966 3.4-.83.236.966-1.268.31 1.157 4.752-.862.213-1.16-4.755ZM76.36 96.85l-2.706-2.633.975-.366 1.785 1.817.147-2.536.958-.357-.322 3.77.859 2.311-.832.313-.864-2.32ZM82.944 93.306c.764 1.12 2.097 2.21 3.47 1.279 1.28-.876.913-2.441.046-3.712-.966-1.416-2.291-2.126-3.487-1.313-1.131.77-1.091 2.188-.029 3.746Zm.742-.545c-.487-.715-.967-1.79-.133-2.362.898-.612 1.759.423 2.136.975.961 1.403.533 2.102.146 2.367-.444.304-.927.156-1.244-.048-.222-.135-.53-.384-.905-.932ZM85.409 87.907l2.257-2.018.663.742-1.597 1.425.932 1.04 1.378-1.226.666.739-1.383 1.234 1.666 1.864-.664.591-3.918-4.39ZM96.16 81.535c.335.328 1.383 1.358.6 2.569-.652 1.007-2.067 1.061-3.608.064-1.373-.89-2.256-2.204-1.478-3.41a1.625 1.625 0 0 1 1.302-.77c.37-.024.721.069 1.111.22l-.244.895c-.598-.256-1.089-.14-1.336.242-.596.921.756 1.8 1.077 2.006.466.3.953.557 1.371.609.362.043.73-.074.945-.404.322-.495-.033-1.051-.516-1.492l.775-.529ZM93.074 78.653l.338-.824 2.146.881.662-1.614-2.143-.881.335-.821 5.448 2.241-.34.817-2.38-.978-.661 1.615 2.381.98-.338.821-5.448-2.237ZM94.622 74.442l.235-.856 5.679 1.555-.236.855-5.678-1.554ZM95.145 72.558l.166-.847 4.2-1.006.004-.01-3.858-.757.16-.813 5.778 1.134-.173.878-4.107.99-.003.014 3.768.736-.156.81-5.779-1.129ZM102.23 64.678l-6.035 1.168-.097.937 5.687 2.308.094-.946-1.287-.495.176-1.758 1.366-.245.096-.969Zm-2.602 2.6-2.115-.818 2.237-.384-.122 1.203ZM38.825 76.28c.033.077.078.149.112.225.154.301.312.6.477.895.056.105.117.208.175.31.172.301.351.597.531.895.036.057.066.11.104.165a24.267 24.267 0 0 0 .635.958 24.538 24.538 0 0 1 16.447-6.298c2.94 0 5.765.502 8.376 1.447l.057.02a.258.258 0 0 0 .07.025 33.605 33.605 0 0 0 11.557 2.035c4.176 0 8.174-.761 11.863-2.148.034-.078.07-.151.103-.233.013-.038.03-.078.045-.115.102-.245.196-.494.29-.747.042-.113.09-.227.132-.344l.001-.008c.103-.291.199-.581.293-.868.037-.122.079-.236.114-.35.091-.298.173-.599.254-.903.033-.116.065-.23.095-.35.078-.303.149-.608.22-.92.024-.114.05-.23.073-.347.065-.313.122-.628.176-.94l.035-.211a26.51 26.51 0 0 1-16.19 5.486c-4.121 0-8.023-.935-11.507-2.61-.162-.08-.324-.164-.487-.242l-.01-.008a21.46 21.46 0 0 0-9.409-2.149 21.44 21.44 0 0 0-15.145 6.239.301.301 0 0 1 .023.051c.161.35.318.7.49 1.04ZM82.007 84.81a13.66 13.66 0 0 1-3.758.526c-2.058 0-4.007-.455-5.761-1.265-.068-.033-.128-.068-.196-.1-.051-.027-.105-.047-.156-.07a15.035 15.035 0 0 0-6.285-1.367c-5.388 0-10.115 2.831-12.775 7.09a27.615 27.615 0 0 0 10.616 2.11c7.02 0 13.431-2.617 18.317-6.918l-.002-.006Z" fill="#004098"/><path fill-rule="evenodd" clip-rule="evenodd" d="M79.567 80.195a23.301 23.301 0 0 1-9.914-2.205c-.056-.026-.114-.049-.17-.076a20.542 20.542 0 0 0-8.635-1.885c-6.642 0-12.545 3.14-16.322 8.008.085.083.172.165.261.246.007.008.017.013.02.022l.42.381.115.104c.11.094.219.189.331.287.1.08.194.165.292.243.09.076.178.155.274.228.097.081.197.158.298.238.098.074.189.15.288.222.05.042.102.082.153.12.177.132.353.26.529.388a29.073 29.073 0 0 0 .964.666c.13.084.263.167.392.252.104.065.204.127.31.191 3.11-4.718 8.455-7.834 14.53-7.834 3.01 0 5.851.767 8.321 2.113.06.039.128.068.19.101.085.049.165.103.249.149a13.96 13.96 0 0 0 6.624 1.663c1.699 0 3.325-.303 4.828-.856.205-.214.4-.436.6-.658l.171-.192c.21-.242.41-.489.61-.737.068-.082.133-.16.197-.244.19-.239.372-.483.551-.727a21.167 21.167 0 0 0 .717-1.024c.068-.102.141-.207.212-.31a.842.842 0 0 1 .06-.099 23.375 23.375 0 0 1-7.466 1.225Z" fill="#004098"/><path fill-rule="evenodd" clip-rule="evenodd" d="M74.907 48.384h-.91v1.802h-1.821v-1.802H68.56v-.602l3.616-3.014h1.82v3.014h.91v.602Zm-6.168 1.802h-5.44v-.6c0-.42.586-.955 1.753-1.622l.121-.07c1.164-.664 1.745-1.203 1.745-1.615v-.3c0-.17-.092-.31-.268-.428a1.136 1.136 0 0 0-.634-.174h-.904c-.555 0-.86.201-.895.609H63.3c.143-.81.75-1.218 1.813-1.218h1.814c.494 0 .921.12 1.279.357.355.236.534.523.534.849v.305c0 .412-.583.951-1.753 1.614l-.12.07c-1.162.662-1.75 1.19-1.75 1.57v.045h3.623v.608Zm-6.17-2.103c0 .577-.307 1.07-.93 1.48-.624.416-1.372.623-2.241.623H58.04v-.608h.905c.499 0 .926-.122 1.278-.356.35-.236.532-.519.532-.849v-.606c-.071.412-.37.617-.905.617h-.905c-.491 0-.916-.12-1.274-.355-.36-.233-.54-.517-.54-.845V45.98c0-.331.177-.616.54-.852.353-.24.777-.359 1.274-.359h1.812c.495 0 .924.12 1.28.36.351.235.532.52.532.851v2.104Zm-7.981 2.103h-1.82v-4.2h-.906v-.609l1.812-.609h.914v5.418Zm9.104-13.924c-4.703 0-9.13 1.175-13.011 3.24-8.756 4.662-14.726 13.882-14.726 24.497 0 1.654.154 3.269.431 4.843a22.237 22.237 0 0 1 12.905-4.11c4.212 0 8.169 1.16 11.53 3.195.045.023.088.048.134.076.101.06.199.123.296.189a24.226 24.226 0 0 0 12.494 3.449c6.965 0 13.246-2.935 17.68-7.624l.003-.018c0-15.32-12.42-27.737-27.736-27.737Z" fill="#00A7EA"/><path fill-rule="evenodd" clip-rule="evenodd" d="M60.487 45.55a1.106 1.106 0 0 0-.633-.173c-.25 0-.464.054-.634.173-.18.12-.265.262-.265.429v1.205c0 .165.083.298.262.417.173.118.387.18.637.18.246 0 .455-.062.633-.18.177-.124.268-.271.268-.428v-1.2c0-.165-.091-.306-.268-.423ZM72.177 47.782V45.53l-2.708 2.253h2.708Z" fill="#00A7EA"/></g><defs><filter id="a" x="-13" y="0" width="154" height="157" filterUnits="userSpaceOnUse" color-interpolation-filters="sRGB"><feFlood flood-opacity="0" result="BackgroundImageFix"/><feColorMatrix in="SourceAlpha" values="0 0 0 0 0 0 0 0 0 0 0 0 0 0 0 0 0 0 127 0" result="hardAlpha"/><feOffset dy="16"/><feGaussianBlur stdDeviation="6.5"/><feColorMatrix values="0 0 0 0 0 0 0 0 0 0 0 0 0 0 0 0 0 0 0.03 0"/><feBlend in2="BackgroundImageFix" result="effect1_dropShadow_49_9862"/><feBlend in="SourceGraphic" in2="effect1_dropShadow_49_9862" result="shape"/></filter></defs></svg>