<?xml version="1.0" encoding="UTF-8"?>
<svg xmlns="http://www.w3.org/2000/svg" xmlns:xlink="http://www.w3.org/1999/xlink" version="1.1" viewBox="0 0 128 46.9">
  <defs>
    <style>
      .cls-1 {
        mask: url(#mask);
      }

      .cls-2 {
        fill: #fff;
      }

      .cls-3 {
        fill: #004098;
      }

      .cls-3, .cls-4, .cls-5, .cls-6 {
        fill-rule: evenodd;
      }

      .cls-4 {
        fill: #231815;
      }

      .cls-5 {
        fill: #00a7ea;
      }

      .cls-6 {
        fill: #e60012;
      }
    </style>
    <mask id="mask" x="14" y="10.5" width="25.6" height="25.6" maskUnits="userSpaceOnUse">
      <g id="b">
        <path class="cls-2" d="M14,10.5h25.6v25.6H14V10.5Z"/>
      </g>
    </mask>
  </defs>
  <!-- Generator: Adobe Illustrator 28.7.1, SVG Export Plug-In . SVG Version: 1.2.0 Build 142)  -->
  <g>
    <g id="_图层_1" data-name="图层_1">
      <g>
        <path class="cls-4" d="M53.6,16.4s-.1.4-.4.4c0,0-.2.2-.3.4,0,0-.3.3-.9-.4,0,0,0,0-.2-.3,0,0,0-.2.4-.5,0,0,.3-.2.8,0,0,0,.8.1.6.4ZM56.1,15.7c-.6,0-2.3-.6-3.1-.9-.8-.3,0-1.4-.3-2.2-.3-.8-1.9-.5-1.9-.5,0,0-1,.1-.6,1.3,1.3.9,0,1.8,0,1.8-.8.7-.8.7-.8.7-1.4.4-3,1.8-3,1.8-.8.4-1.1-.3-1.1-.3-.3-.2-1.2-.1-1.4,0-.2.1-.7,1.2-.2,1.7.7.4.5.6.6,1.3.5.4.2.3,1.1.3.8.3.7.4,1.8.3,1.1.2.7-1.4.7-1.7s.9-1.1,1.5-1.2c.6,0,.6.7.5.9-.1.1-1.3,1.2-1.6,1.7-.3.5.2,1.1.2,1.1,0,0,1.2,0,1.5.4.2.6-.1.6-.1,2.8.4,2-.4,4.4-.3,4.4,0,0,.3.5,1.4.4,1.1-.1,1.1-1.7,1.1-1.7,0,0,.1-5.9.1-6.1,0-.2,0-.9,0-.9,0,0,.7-.4.8-1.5,0-.1-.2-1,.7-1.3,1.3-.2,1.6-.4,1.8-.7.6-.5.7-1.6.3-1.8h0ZM62,19.9s.4.7,0,1.1c0,0-.4.2-.4-.3,0,0,.3-.2.2-.4,0-.2.2-.2.2-.4ZM62.5,21.6s0,.3,0,.4c0,.2-.3.5-.6.8-.3.3-.2-.2-.3,0,0,0,.3-.3.5-.6,0-.2,0-.4,0-.5,0,0,.1-.2.3-.2,0,0,.2-.2.3,0h0ZM66.3,14.6l-.8-.6c-.3-.5-.8-.5-.8-.5-.9,0-2,.9-2,.9-.2.2-.2.1-.5.4l-.4.4c-.3.3-.6.5-.6.5-1,.8-1.4,1.4-1.4,1.4-.3.3-1,1.6-1,1.6-.1-.2,0-.8,0-.8,0-.3.1-.7.1-.7,0-.3.1-.7.1-.7.4-1.7-.4-1.8-.4-1.8-1,0-1.1,1.8-1.1,1.8-.1.3-.6,6.3-.6,6.3,0,1.4.1,2,.1,2,0,1,1.2,1.4,1.2,1.4.7.3,1,0,1,0,.4-.2,0-1.3,0-1.3-.3-.3-.4-1.2-.4-1.2,0-.7,0-.9,0-.9-.6-.5-.1-.9-.1-.9.2-.4.5-.6.5-.6.3-1.9,1.2-2.9,1.2-2.9.3-.7.7-.9.7-.9.1-.3.2,0,.2,0,0,.7.2,1,.2,1l-.2.6c-.8.2-.8.4-.8.4,0,.2,0,.4.2.5.1.1.3.2.3.2-.1.1-.2.3-.3.4-.2.4,0,.8,0,.8l-.2.6c-.3.5-.2.7-.2.7,0,.3,0,.5.2.7.2.3.9.4.9.4.7,0,.8-.6.8-.6.6-.6.7-.5.7-.5,0,.4.2.9.2.9.2.8.7.8.9.7l.3-.2s-.2-.5-.5-.9c0,0-.2-.3-.4-.7,0,0-.2-.5.3-.6,0,0,.6-.4.2-1.2,0,0-.2-.6-.7,0,0,0-.5-.1-.4-.3,0,0,.2-1.2-.4-2,0,0,.3-.4-.7-1.5h0c0-.1,1-.8,1.3-1.1,0,0,.6-.4.7-.8,0,0,.6-.6.6-.2,0,0,.1.8,0,1,0,0-.5,1.1-.1,1.9,0,0,0,.4-.5.3l-.3.6s-.6.7-.2,1c0,0,.3.2.6-.1,0,0,.4-.1.3.2,0,0-.1.5,0,1.6,0,0,.2,1.1,0,.9,0,.1,0,1,.1,1.2,0,0,0,.6,0,.8l-.4.2c0,.2.2.3.2.3.3.4.1.7.1.7.4,1.1.7,1.1.7,1.1.8,0,.9-.6.9-.6.3-.4-.3-1.8-.3-1.8-.1-.2-.2-.7-.2-.7,0-.6-.1-1.3-.1-1.3,0-.3,0-.7,0-.7,0-.5-.1-1.3-.1-1.3,0-.4,0-1,0-1,0-.4,0-1.1,0-1.1,0-.6,0-1,0-1,0-.4.9-1.3.9-1.3.3,0,.4-.6.4-.6.1-.5-.3-.8-.3-.8h0Z"/>
        <path class="cls-4" d="M61.4,24.3s.5-.2.8-.2c0,0,.7-.3.9.1,0,0,.4.7-.4,1.1,0,0-.8.4-1.5,0,0,0-.8-.6.2-.9ZM68.8,15.8s1-.7,1.9.1c0,0,.3.2.3.4.2.6-.2.8-.6,1.3,0,0-1,.2-1.4-.5,0,0-.2-.7-.2-1.3ZM70.1,19.4s.2.2.3,0c0,0,.5-.4.8-.2,0,0-.1,0-.2.9,0,0,0,.2-.2.8v.8c-.1,0,0,.2-.3.8,0,0,0,.7-.3,1.1l-.3.9s.4.7-.1,1.2l-.7.4s-.7.3-1.2-.2c-.1-.2,0-.2-.1-.6,0,0-.3-.7-.5-.8,0,0-.2-.2.4-.4,0,0,.3,0,.6-.4,0,0,0-.2.4-.6,0,0,.2-.3.4-.6l.4-.9s.2-.4-.5-.6c0,0-.4,0-.4-.8,0,0-.3-.8.7-1.1h.5c0,.1.2.2.5.4ZM75.9,21.4l-.5-.7s-.2,0,0-.2c0,0,.7-.6,1.2.8,0,0-.1.2-.6.2ZM75.5,23.5s-.2.9-.7.4c0,0,0-.4.4-.8,0,0,0-.4.4,0,0,0,.4,0,0,.4h0ZM74.7,21.4s-.3.7-.4.7c0,0-.5.2-.6-.3,0,0,.2-.9.5-1.2,0,0,.2-.3.4,0,0,0,.3.3.1.4,0,0-.3,0-.1.4ZM78.9,21.1c-.7-.4-1,0-1,0-.5-.1-.4-1-.4-1,0-.2-.1-.5-.1-.5l-.3-.3c-.5-.4-.9,0-.9,0-.6,0-.3-.5-.3-.5l.2-.2c.4-.3.6-.6.6-.6.3-.3.5-.5.5-.5.5-.3.3-1.4.3-1.4-.5-.8-1.5,0-1.5,0-.3.3-.3-.2-.3-.2v-.8c.5-.9-.4-1-.4-1-1.5,0-1.5,2.1-1.5,2.1l-.5.8c-.2.3-.2.4-.2.4-.2,1.4,1.1,1.4,1.1,1.4.4,0,.2.3.2.3-.9.9-1.4,3-1.4,3-.1.8-.5.9-.5.9-1.4-.3-1.4.3-1.4.3.3,1.3.8,1.5.8,1.5.4,0,.5,0,.5,0,.8.9,2.3,1,2.3,1,.5.8.8.6.8.6,1.1-.2,1.2-.5,1.2-.5.6-.4,1-2.5,1-2.5.1-.5.3-.8.3-.8,0-.2.8.2.8.2.7.5,1.4-.3,1.4-.3.4-1.1-1-1.4-1-1.4ZM82.1,16.6s-.3-1,.4-1c0,0,.2,0,.3.1,0,0,.2,0,.3,0,0,0,.1-.1.4.1,0,0,.9.5.5,1.3,0,0-.6.7-1.3.4,0,0-.5.1-.7-.4,0,0,0-.4,0-.6h0ZM83.1,19.1s.3-.2.4.1c0,0-.1.3,0,.4,0,0,.4.4-.2.6,0,0-.2.6-.6.5,0,0-.3,0-.8,1.4,0,0,0,.1.3,0,0,0,.2-.6.6-.8.7-.5.4-.5.8-1,0,0,.4-.3.4.1,0,0,0,.3-.4.9,0,0-.8,1.6-.6,1.9,0,0,.4.8-.2,1.1,0,0-.5.4-.9,0,0,0-.3-.3-.4-.5,0,0-.3,0-.2-.6,0,0,.3-.7.1-.7,0,.1.1-.2,0-.3l.3-1.2s0-.4.1-.5c0,0,.1-.5.1-.6,0,0,0-.1,0-.2,0,0-.2-.5.1-.9,0,0,.3-.3.8,0,0,0,.2.2.4.2h0ZM87,15.2c.4.2.6-.4,1.1-.3,0,0,.2.4,0,.6,0,0,.3.3,0,1,0,0-.1.7-1,.6,0,0-.5-.2-.6-.7v-.4c-.1,0-.2-.3,0-.6,0,0,.2-.4.6-.3ZM90.3,14.6s0-.9.4-.9c0,0,.7-.2,1.2.4,0,0,.6.5.1,1.1,0,0-.3.7-1.1.3,0,0-1.2.5-1.5,1.4,0,0,0,.1.2.1,0,0,.8.1.8.9,0,0,0,.2-.4.5,0,0-.1.2-.4.4,0,0-.1.1,0,.3,0,0,0,.1,0,.4,0,0,0,.3.4.3,0,0,.7,0,1.1.5,0,0,.6.4,0,1.2,0,0-.6.4-.8.5,0,0-.6.3-.6.8,0,0,0,0-.1.4,0,0-.2.8-.2,1.3,0,0,0,.4,0,.8v.6s0,.3,0,.9v.4s.5.9,0,1.6c0,0-.1.4-.2.6,0,0,0,.2-.5,0,0,0-.3,0-.4-.7,0,0-.2-.6,0-1.5v-.9s0-1,0-1.3c0,0,0-.7,0-1,0,0,0-.2-.3,0,0,0-.9.4-1.3-.1,0,0-.4-.6.5-1.6l.3-.4.4-.6s.1-.5-.1-.6c0,0,0-.6.4-1.2,0,0,0-.1-.1-.2,0,0-.6-.2-.7-.6,0,0,0-.2.6-.6,0,0-.3-.4,0-.7l1-.8s0-.2.4-.3c0,0,0-.4.3-.6,0,0,.6-.4.8-1.2h0ZM96.1,18.2s.2-.4.2-.7c0,0-.3-.5-.2-.8,0,0-.4-1.1.5-1.2,0,0,.8,0,1.1.7,0,0,.5.3.1.7,0,0-.2.7.2.7l.4-.2s.2-.1.8-.2c0,0,.7-.2.9.2,0,0,.6.8-.3,1.4,0,0-.5,0-.8.1,0,0-.3.1-.8.3,0,0-1,.2-.7.9,0,0,.2.4.4.7,0,0,1.4,1.7,2.4,2.3h.3c0,.1.4.2.4.2,0,0,.2,0,.9.2,0,0,.2,0,.9.5,0,0,.1.1.4,0,0,0,.3,0,.5.3,0,0,0,.1-.3.4,0,0-.2.2-1.4.3,0,0-1.2.2-2,0,0,0-.1,0-.4,0,0,0-.3,0-1.2-1.1,0,0-1.2-1.7-1.6-2.1,0,0-.3.2-.3.4,0,0-.1.6-.7,1.6,0,0,0,0-.6.8,0,0,0,0-.8.7,0,0,0,0-.5.3,0,0,0,0-.8.3,0,0-.9,0-1.3-.5,0,0-.5-.3.7-.7,0,0,.4-.3.8-.7l.4-.5s.2-.3.4-.6c0,0,0-.1.4-.7l.4-.7s.2-.2-.2-.4l-1-.4s-.6,0-.5-.9c0,0,.3-.4.8-.4,0,0,1.4-.3,1.9-1h0ZM112.3,19s-.1.2-.4.5c0,0-.8.5-1.2.5-.2,0-.8,0-1.1-.1,0,0,0-.3.2-.5l.6-.4.5-.3s.2-.5,1.2-.4c0,0,.7.2.3.7ZM109.2,18.5s-.1-.2,0-.5c0,0,0-.4.2-.8,0,0,.2-.7.6-.6,0,0,.5.1.2.6v.4c-.1,0-.6.8-1,.9h0ZM108.7,26.8s-.5,0-.5-.4c0,0-.4-.6.4-1.3,0,0,.4-.5.4,0,0,0,.1.2.1.4,0,0,.1,1-.4,1.2ZM107.2,19.3s-.5,0-.2-1.6h0s0,1,.4,1.4c0,0,0,.4-.2.3ZM113.7,18.3c-.1-.7-.7-.9-.7-.9-.4-.4-.6,0-.6,0-.6.1-.5-.4-.5-.4.2-.9-.2-1-.2-1-.4-.3,0-.7,0-.7.6-.6,0-1.1,0-1.1l.2-.9c.3-.8-.6-.9-.6-.9-.5,0-.8.3-.8.3-.4.1-.3,1.7-.3,1.7-.1.8-.8,1-.8,1-.4,0-.8.8-.8.8-.2-.1-.1-.5-.1-.5.2-.3.6-1.3.6-1.3,0-1.2-1.1-1.1-1.1-1.1-1.1.1-.8.8-.8.8.4.5,0,.7,0,.7-.7-.3-1-.3-1-.3-.6,0-.9.4-.9.4-.4.4,0,.7,0,.7.1.2,0,.3,0,.3,0,.4,0,.9,0,.9-.1.4,0,.7,0,.7v.5c0,.2,0,.3,0,.3-.2.8.1,1.5.1,1.5.2.5,0,.6,0,.6l-.6.4c-.3.3-.3-.3-.3-.3-.5-.6-1.1.6-1.1.6-.4,1.6.6,1.8.6,1.8,1,.3,1.8-1.3,1.8-1.3.6-1.1,1.7-1.2,1.7-1.2v.2c.1,0,0,.6,0,.6,0,1.3.8,1,.8,1h.2c0,.1.1.8.1.8.2.4.1.6.1.6-.3,0-.5.3-.5.3l-.3.2c-1.4.9-1.4,2.1-1.4,2.1-.2,1.9,2.3,2.3,2.3,2.3.7,0,.9-.5.9-.5.8-.8.7-3,.7-3,0-.3.6-.3.6-.3,1,0,1.1-.3,1.1-.3.3-.3.4-.7.2-.9-.3-.4-1-.5-1-.5-.6-.3-1.3,0-1.3,0,0-.2-.3-.6-.3-.6-.1-.7,1.3-1.7,1.3-1.7.2,0,.8-.2.8-.2.3.2.4.2.4.2,1.4,0,1.6-.3,1.6-.3.1-.3.2-.6.2-.6.3-.7-.2-1.4-.2-1.4ZM44.1,33c0,.5.1.9.4,1.2.3.3.7.4,1.1.4s.8-.1,1-.4c.3-.3.5-.7.5-1.2s-.2-.9-.5-1.2c-.3-.3-.7-.4-1.1-.4-.4,0-.8.1-1.1.4-.3.3-.5.7-.5,1.2ZM44.6,33c0-.5,0-.8.3-1.1.2-.2.4-.4.7-.3.3,0,.5.1.7.3.2.2.3.6.3,1.1s0,.9-.3,1.1c-.2.2-.4.3-.7.3-.3,0-.5-.1-.7-.3-.2-.2-.3-.6-.3-1.1ZM49.6,31.5c.2,0,.3,0,.3,0,0,0,0,0,.1,0,0,0,0,0,0-.1h0v1s0,0,0,0c0-.2-.1-.3-.2-.5-.2-.2-.5-.4-.8-.4-.3,0-.6.1-.8.4-.2.3-.3.6-.3,1.1s.1.7.3,1c.2.2.5.4.8.4s.5,0,.7-.2c.1,0,.3-.2.4-.3h0c-.1.2-.2.3-.4.4-.3.2-.5.3-.9.3-.5,0-.9-.2-1.2-.5-.3-.3-.4-.7-.4-1.1s.1-.8.4-1.1c.3-.3.7-.5,1.2-.5s.3,0,.5,0ZM50.5,34.4c.2,0,.3,0,.3,0,0,0,0-.2,0-.3v-2.1c0-.2,0-.3,0-.3,0,0-.2,0-.3,0h0c0,0,2.5,0,2.5,0v.7s0,0,0,0c0-.2,0-.3-.2-.4,0,0-.3,0-.5,0h-.6c0,0-.1,0-.1,0,0,0,0,0,0,.1v1h.7c.2,0,.3,0,.4,0,0,0,0-.2.1-.4h.1v1.1h-.1c0-.2,0-.3-.1-.4,0,0-.2,0-.4,0h-.7v1.2c0,0,0,.1,0,.2,0,0,.2,0,.5,0s.5,0,.7-.1c.2,0,.3-.2.4-.5h.1l-.2.8h-2.5c0,0,0,0,0,0ZM54.3,34.5h0c0,0-.1-.1-.2-.1,0,0,0,0,0-.2s0,0,0-.2c0,0,0-.3.2-.6h1.2l.2.4c0,0,0,.1,0,.2,0,0,0,0,0,.1,0,0,0,.1,0,.1,0,0-.1,0-.3,0h0c0,0,1.2,0,1.2,0h0c-.1,0-.2-.1-.2-.2,0,0-.1-.2-.2-.3l-1.2-2.6h-.1l-1,2.3c-.1.3-.2.5-.3.6,0,0-.2.1-.3.1h0c0,0,.9,0,.9,0ZM54.3,33.3l.5-1.3.5,1.3s-1.1,0-1.1,0ZM56.8,34.4c.2,0,.3,0,.4-.1,0,0,0-.2,0-.5v-2h0c0-.1-.1-.2-.2-.2,0,0-.1,0-.2,0h0c0,0,.8,0,.8,0l1.8,2.2v-1.5c0-.3,0-.4-.1-.5,0,0-.2,0-.3,0h0c0,0,1.1,0,1.1,0h0c-.2.1-.3.1-.4.2,0,0,0,.2,0,.5v2.5h0l-2.1-2.6v1.8c0,.3,0,.4.1.5,0,0,.2,0,.3,0h0c0,0-1.1,0-1.1,0h0c0,0,0,0,0,0ZM63.8,31.4h0c-.2,0-.3.1-.4.2,0,0,0,.2,0,.3v1.5c0,.2,0,.4,0,.6.1.2.4.4.7.4s.6-.1.8-.4c0-.1.1-.4.1-.7v-1.2c0-.3,0-.4,0-.5,0,0-.2-.1-.4-.1h0c0,0,1.1,0,1.1,0h0c-.2.1-.3.1-.4.2,0,0,0,.2,0,.5v1.2c0,.3,0,.6-.2.8-.2.3-.5.5-1,.5s-.8-.2-1-.5c0-.2-.2-.4-.2-.7v-1.4c0-.2,0-.3,0-.3,0,0-.2,0-.3,0h0c0,0,1.3,0,1.3,0h0ZM65.9,34.4c.2,0,.3,0,.4-.1,0,0,0-.2,0-.5v-2h0c0-.1-.1-.2-.2-.2,0,0-.1,0-.2,0h0c0,0,.8,0,.8,0l1.8,2.2v-1.5c0-.3,0-.4-.1-.5,0,0-.2,0-.3,0h0c0,0,1.1,0,1.1,0h0c-.2.1-.3.1-.4.2,0,0,0,.2,0,.5v2.5h0l-2.1-2.6v1.8c0,.3,0,.4.1.5,0,0,.2,0,.3,0h0c0,0-1.1,0-1.1,0h0c0,0,0,0,0,0ZM69.3,34.4c.2,0,.3,0,.4,0,0,0,0-.2,0-.3v-2.1c0-.2,0-.3,0-.3,0,0-.2,0-.4,0h0c0,0,1.4,0,1.4,0h0c-.2,0-.3.1-.4.2,0,0,0,.2,0,.3v2.1c0,.2,0,.3,0,.3,0,0,.2,0,.4,0h0c0,0-1.4,0-1.4,0h0c0,0,0,0,0,0ZM72.1,31.4h0c0,0-.2,0-.2.1,0,0-.1,0-.1.1s0,0,0,.2c0,0,0,.2.2.3l.7,1.6.7-1.8c0,0,0-.1,0-.2,0,0,0,0,0-.1,0,0,0-.2-.1-.2,0,0-.2,0-.2,0h0c0,0,1,0,1,0h0c0,0-.2.1-.2.2,0,0-.1.2-.2.3l-1,2.6h0l-1.2-2.6c0-.2-.2-.3-.2-.4,0,0-.1,0-.3,0h0c0,0,1.3,0,1.3,0h0ZM74.2,34.4c.2,0,.3,0,.3,0,0,0,0-.2,0-.3v-2.1c0-.2,0-.3,0-.3,0,0-.2,0-.3,0h0c0,0,2.5,0,2.5,0v.7s0,0,0,0c0-.2,0-.3-.2-.4,0,0-.3,0-.5,0h-.6c0,0-.1,0-.1,0,0,0,0,0,0,.1v1h.7c.2,0,.3,0,.4,0,0,0,0-.2.1-.4h.1v1.1h-.1c0-.2,0-.3-.1-.4,0,0-.2,0-.4,0h-.7v1.2c0,0,0,.1,0,.2,0,0,.2,0,.5,0s.6,0,.7-.1c.2,0,.3-.2.4-.5h.1l-.2.8h-2.5c0,0,0,0,0,0ZM77,34.5h1.3c-.2,0-.3-.1-.3-.2,0,0,0-.2,0-.3v-.9h.2s1.2,1.4,1.2,1.4h.8c0,0-.2-.1-.2-.1,0,0-.1,0-.2-.2l-1-1.2c.3,0,.5-.1.6-.2.2-.1.2-.3.2-.5,0-.3-.2-.6-.5-.7-.2,0-.4-.1-.7-.1h-1.3c.2,0,.3.1.3.2,0,0,0,.2,0,.3v2c0,.2,0,.3,0,.4,0,0-.2,0-.3.1,0,0,0,0,0,0ZM77.9,32.9v-1.2c0,0,0-.1,0-.1,0,0,.1,0,.2,0,.2,0,.4,0,.5,0,.2,0,.3.3.3.6s-.1.5-.4.6c-.1,0-.4,0-.7,0h0ZM80.4,33.6c0,.2.2.4.3.5.2.2.4.3.7.3.2,0,.3,0,.4-.1.1,0,.2-.2.2-.4,0-.1,0-.3-.2-.4-.1-.1-.3-.2-.5-.3l-.4-.2c-.1,0-.2-.1-.3-.2-.1-.1-.2-.3-.2-.5,0-.2,0-.4.2-.6.2-.2.4-.2.6-.2s.2,0,.4,0c.2,0,.2,0,.3,0,0,0,0,0,.1,0,0,0,0,0,0-.1h0v1c.1,0,0,0,0,0,0-.3-.2-.5-.4-.6-.1-.1-.3-.2-.5-.2-.1,0-.2,0-.3.1,0,0-.1.2-.1.3,0,.1,0,.2.1.3,0,0,.2.2.3.3l.4.2c.3.2.4.3.5.4.1.1.2.3.2.5,0,.2,0,.5-.3.6-.2.2-.4.2-.7.2s-.3,0-.5,0c0,0-.2,0-.3,0,0,0,0,0-.1,0,0,0,0,0,0,.1h-.1v-1c-.1,0,0,0,0,0ZM82.8,34.4c.2,0,.3,0,.4,0,0,0,0-.2,0-.3v-2.1c0-.2,0-.3,0-.3,0,0-.2,0-.4,0h0c0,0,1.4,0,1.4,0h0c-.2,0-.3.1-.4.2,0,0,0,.2,0,.3v2.1c0,.2,0,.3,0,.3s.2,0,.4,0h0c0,0-1.4,0-1.4,0h0c0,0,0,0,0,0ZM84.4,31.4h2.7v.8s0,0,0,0c0-.2-.1-.4-.2-.5,0,0-.3-.1-.5-.1h-.3v2.4c0,.2,0,.3,0,.3,0,0,.2,0,.4,0h0c0,0-1.4,0-1.4,0h0c.2,0,.3-.1.4-.2,0,0,0-.2,0-.4v-2.3h-.2c-.3,0-.4,0-.5.1,0,0-.2.2-.2.5h-.1v-.8s0,0,0,0ZM88.6,31.4h0c0,0-.2,0-.2.1,0,0,0,0,0,.1s0,0,0,0,0,0,0,.1l.7,1,.7-1s0,0,0-.1c0,0,0,0,0,0,0,0,0-.1-.1-.1,0,0-.1,0-.2,0h0c0,0,1,0,1,0h0c0,0-.2.1-.3.2-.1,0-.2.2-.4.4l-.7,1.1v.9c0,.2,0,.3,0,.3,0,0,.2,0,.4,0h0c0,0-1.4,0-1.4,0h0c.2,0,.3-.1.4-.2s0-.2,0-.4v-.8l-.6-.9c-.2-.3-.4-.5-.4-.6,0,0-.2-.1-.3-.1h0c0,0,1.3,0,1.3,0h0ZM91.7,33c0,.5.1.9.4,1.2.3.3.7.4,1.1.4s.8-.1,1-.4c.3-.3.5-.7.5-1.2s-.2-.9-.5-1.2c-.3-.3-.7-.4-1.1-.4-.4,0-.8.1-1.1.4-.3.3-.5.7-.5,1.2ZM92.2,33c0-.5,0-.8.3-1.1.2-.2.4-.4.7-.3.3,0,.5.1.7.3.2.2.3.6.3,1.1s0,.9-.3,1.1c-.2.2-.4.3-.7.3-.3,0-.5-.1-.7-.3-.2-.2-.3-.6-.3-1.1ZM95,34.4c.2,0,.3,0,.3,0,0,0,0-.2,0-.4v-2c0-.2,0-.3,0-.3s-.2,0-.3,0h0c0,0,2.5,0,2.5,0v.7s-.1,0-.1,0c0-.2,0-.3-.2-.4,0,0-.3,0-.5,0h-.6c0,0-.1,0-.1,0,0,0,0,0,0,.1v1h.7c.2,0,.3,0,.4,0,0,0,0-.2.1-.4h.1v1.1h-.1c0-.2,0-.3-.1-.4,0,0-.2,0-.4,0h-.7v1c0,.2,0,.3,0,.3,0,0,.2,0,.3,0h0c0,0-1.3,0-1.3,0h0ZM101,31.5c.2,0,.3,0,.3,0,0,0,0,0,.1,0,0,0,0,0,0-.1h0v1s0,0,0,0c0-.2-.1-.3-.2-.5-.2-.2-.5-.4-.8-.4-.3,0-.6.1-.8.4-.2.3-.3.6-.3,1.1s.1.7.3,1c.2.2.5.4.8.4s.5,0,.7-.2c.1,0,.2-.2.4-.3h0c-.1.2-.2.3-.4.4-.3.2-.6.3-.9.3-.5,0-.9-.2-1.2-.5-.3-.3-.4-.7-.4-1.1s.1-.8.4-1.1c.3-.3.7-.5,1.2-.5s.3,0,.5,0h0ZM101.9,34.4c.2,0,.3,0,.3,0,0,0,0-.2,0-.4v-2c0-.2,0-.3,0-.3,0,0-.2,0-.3,0h0c0,0,1.3,0,1.3,0h0c-.2,0-.3.1-.3.2,0,0,0,.2,0,.3v.9h1.4v-.9c0-.2,0-.3,0-.3,0,0-.2,0-.3,0h0c0,0,1.3,0,1.3,0h0c-.2,0-.3.1-.3.2,0,0,0,.2,0,.3v2.1c0,.2,0,.3,0,.3,0,0,.2,0,.3,0h0c0,0-1.3,0-1.3,0h0c.2-.1.3-.1.3-.2,0,0,0-.2,0-.4v-.9h-1.4v1c0,.2,0,.3,0,.3,0,0,.2,0,.3,0h0c0,0-1.3,0-1.3,0,0,0,0,0,0,0ZM105.3,34.4c.2,0,.3,0,.4,0,0,0,0-.2,0-.3v-2.1c0-.2,0-.3,0-.3,0,0-.2,0-.4,0h0c0,0,1.4,0,1.4,0h0c-.2,0-.3.1-.4.2,0,0,0,.2,0,.3v2.1c0,.2,0,.3,0,.3,0,0,.2,0,.4,0h0c0,0-1.4,0-1.4,0h0c0,0,0,0,0,0ZM106.8,34.4c.2,0,.3,0,.4-.1,0,0,0-.2,0-.5v-2h0c0-.1-.1-.2-.2-.2,0,0-.1,0-.2,0h0c0,0,.8,0,.8,0l1.8,2.2v-1.5c0-.3,0-.4-.1-.5,0,0-.2,0-.3,0h0c0,0,1.1,0,1.1,0h0c-.2.1-.3.1-.4.2,0,0,0,.2,0,.5v2.5h0l-2.1-2.6v1.8c0,.3,0,.4.1.5,0,0,.2,0,.3,0h0c0,0-1.1,0-1.1,0h0c0,0,0,0,0,0ZM111.2,34.5h0c0,0-.2-.1-.2-.1,0,0,0,0,0-.2s0,0,0-.2c0,0,0-.3.2-.6h1.2l.2.4c0,0,0,.2,0,.3,0,0,0,.1,0,.1,0,0-.2,0-.3,0h0c0,0,1.2,0,1.2,0h0c-.1,0-.2-.1-.2-.2,0,0-.1-.2-.2-.3l-1.2-2.6h-.1l-1,2.3c-.1.3-.2.5-.3.6,0,0-.2.1-.3.1h0c0,0,.9,0,.9,0ZM111.2,33.3l.5-1.3.5,1.3s-1.1,0-1.1,0Z"/>
        <g class="cls-1">
          <path class="cls-3" d="M14.8,23.3c0-6.6,5.4-12,12-12s12,5.4,12,12-5.4,12-12,12-12-5.4-12-12h0ZM14,23.3c0,7.1,5.7,12.8,12.8,12.8s12.8-5.7,12.8-12.8-5.7-12.8-12.8-12.8-12.8,5.7-12.8,12.8h0Z"/>
        </g>
        <path class="cls-6" d="M17.7,19.4l-.4-.2.2-.5.4.2-.2.5ZM17.7,20.3h0s.2-.5.2-.5l.4.2h.2c0,.1.1-.2.1-.2h-.3c0,0-.4-.3-.4-.3l.2-.5h0s.1-.3.1-.3h-.3c0,0-.5-.3-.5-.3h-.2c0,0,0,.1,0,.1l-.2.5h-.1c0,0-.3-.2-.3-.2v.3c-.1,0,.1.1.1.1h.1c0,0-.2.6-.2.6v.2c-.1,0,.1,0,.1,0l.5.2h.3c0,.1.1-.2.1-.2ZM17,20l.2-.5.4.2-.2.5-.4-.2h0ZM19.2,15.7l1-.9,1,1.1-1,.9-1-1.1h0ZM19,15.9l1,1.1.2.2.2-.2h0s1-.9,1-.9h0s.2-.2.2-.2l-.2-.2-1-1.2-.2-.2-.2.2-1.1,1h-.2c0,.1.2.3.2.3h0ZM20.2,16.7h.1c0-.1.7-.7.7-.7h.2c0-.1-.2-.3-.2-.3h-.1c0,0,0,0,0,0h0s-.1,0-.1,0c0,0,0,0,0,0h.1c0-.1-.2-.3-.2-.3h-.1c0,.1-.2.3-.2.3v-.2c-.1,0,0-.2,0-.2h.2c0-.1-.2-.3-.2-.3h-.2c0,.1-.6.7-.6.7h-.2c0,.1.2.3.2.3h.1c0-.1.2-.3.2-.3v.2c.1,0,0,.2,0,.2h-.2c0,.1.2.3.2.3h.1c0-.1.2-.3.2-.3l.2.2-.2.2h-.2c0,.1.2.3.2.3h0ZM20.6,16l-.2-.2h.1c0,0,0,0,0,0,.1,0,.2,0,.2,0h0s-.2.2-.2.2h0ZM23.4,13.2c0,0,0,0,.1,0h0c0-.1,0-.3,0-.3-.1,0-.3-.1-.4-.2,0,0,0,.2-.1.2.1,0,.2,0,.3.1h0ZM23.6,14.8h0c0,0,0,0,0,0,0-.1,0-.2,0-.4v-.3s0,0,0,0h0c0,0-.1,0-.2-.1h0c0,.2,0,.3,0,.4,0,0,0,.1,0,.2,0,0,0,0,0,.1h0c0,.1.1.1.2.2ZM23.4,13.8s.1,0,.2.1h0c0,0,0-.2,0-.2,0,0,0,0,0,0-.1,0-.3-.1-.4-.2,0,0,0,.2-.1.2,0,0,.2,0,.2,0ZM24.8,13.5c-.1,0-.2-.1-.2-.1h.4c0,0,0,.2,0,.2h-.3c0,0,0,0,0,0ZM24.8,14.1s0,0,.1-.1c0,0-.2-.1-.2-.2h.3c0,0,0,0,0,0,0,0,0,.1,0,.2,0,0-.3,0-.3,0ZM24.2,13.4h.3s0,0-.1,0c0,0,.1,0,.2.1h-.3c0,0,0-.2,0-.2ZM23.7,13.4s0,0,.1,0h0c0,0,0-.1,0-.2h0c0,.1,0,.2,0,.2h0c0,.1,0,.2,0,.2h-.2c0,0,0,.3,0,.3h.2c0,0,0,0,0,0,0,0,0,0,0,.2h0v.3h.2c0,0,.8-.3.8-.3h0c0,0,0,0,0,.1,0,0,0,0-.1,0,0,0-.1,0-.2,0,0,0,0,0,.1.2,0,0,0,0,0,0,.2,0,.3,0,.3-.1,0,0,0,0,.1-.1,0,0,0,0,0-.1h0c0-.1.2-.2.2-.2v-.2c0,0-.2,0-.2,0h0c0,0,0-.2,0-.2h0c0,0,.2-.1.2-.1v-.2c0,0-.3,0-.3,0v-.2s0-.1,0-.1v-.2s-.3,0-.3,0l-.7.2h-.2s0-.1,0-.1l.9-.2h.3c0,0,0-.3,0-.3h-.3c0,0-.8.3-.8.3,0,0,0-.1,0-.2,0,0-.2,0-.3,0,0,.1,0,.3,0,.4,0,.1,0,.2-.2.3,0,0,.1,0,.1,0ZM24.3,13.9h.3c0,0,0,0,0,0h0c0,0,0,0,0,0,0,0,.2,0,.2.2h-.4c0,0,0-.2,0-.2ZM28.6,13.9h.3c0,0,0-.2,0-.2h-.3c0,0-.2-.1-.2-.1v-.3c0,0,.3,0,.3,0h.3c0,0,0-.2,0-.2h-.4c0-.1-.2-.1-.2-.1v-.3c0,0,.3,0,.3,0h.2c0,0,0-.2,0-.3.1,0,.2,0,.3,0,0,.1,0,.3.1.4,0,0,0,0-.1,0h.4c0,0,0,0-.1,0,0,0,0,0,.1-.1,0,0,0,0,.1-.2,0,0,.1.1.2.2,0,.1-.1.2-.2.2h0c0,0,.2.1.2.1h.2s0,.3,0,.3h-.2c0,0-.4-.2-.4-.2v.2c0,0,.2,0,.2,0h.2s0,.3,0,.3h-.2s-.3-.1-.3-.1v.3c0,0,.4.1.4.1h.2s0,.3,0,.3h-.2c0,0-.4-.2-.4-.2v.2c0,0-.1.3-.1.3h-.3c0,0,0-.4,0-.4v-.2c0,0-.3,0-.3,0h-.3c0,0,0-.3,0-.3,0,0,.3,0,.3,0ZM28.2,12.5c0,0,.2-.1.2-.2.1.1.2.2.2.3l-.2.2s-.1-.2-.3-.3ZM27.8,14c0-.1.2-.2.3-.4h0c0,0,.1,0,.2,0,0,.1-.1.2-.2.3l-.2.2c0,0,0,.1-.1.2,0,0,0-.2-.1-.2h0c0-.1.1-.2.2-.2ZM27.9,13.1c.1,0,.2-.1.2-.2,0,0,.2.2.3.3,0,0-.1.1-.2.2,0,0,0,0,0-.1,0,0-.1-.2-.2-.2ZM31.7,15.6c.1,0,.2,0,.4.1.1,0,.3,0,.4,0,.1,0,.2,0,.3-.1,0,0,.1-.1.2-.2h.1c-.1-.2-.3-.4-.5-.5l-.2-.2.2-.2.2.2.5.4c0-.1.2-.2.2-.2l.2-.2c.1.1.2.2.2.2h0c0,0-.1.2-.1.2l-.2.3.5.4.2.2-.2.2-.2-.2-.5-.4s0,0,0,.1c0,0,0,0,0,.1,0,0,0,.1,0,.2,0,.1,0,.2,0,.3,0,.1,0,.3,0,.4,0,0,.1.2.2.2,0,0,0,0,0,0,0,0,0,0-.1,0h0s0-.1-.1-.2c0-.1-.1-.3-.1-.4,0-.1,0-.2,0-.3v-.2s0,0-.2,0c0,0-.2,0-.3,0-.1,0-.2,0-.4,0-.1,0-.3,0-.4,0,0,0,0,0,0,0,0,0,0-.1,0-.2h0ZM36.9,18.9c-.1.2-.2.2-.3.3h-.1c0,0-.1,0-.2-.1h.1c0-.1,0-.1.1-.2,0,0,.1-.1.2-.2,0,0,.1.2.2.2ZM35.6,18.3h.2c0,0,.1-.1.1-.1v.2c0,0,.2.2.2.2.1-.1.2-.2.2-.3h0c0,0,.2,0,.2,0h0c0,.2-.2.3-.2.4h0c0,0-.2,0-.2,0l.4,1c0,0,0-.1,0-.2,0,0,.2,0,.3,0,0,0,.1,0,.1,0h.1c0,0,0,.2,0,.3h-.1c-.1,0-.2,0-.4,0h0s0,.1,0,.1v.3c.1,0,0,0,0,0h-.2c0,0-.1.1-.1.1v-.3c-.1,0,0,0,0,0h0s-.6-1.4-.6-1.4h0s-.2.1-.2.1v-.3c-.1,0,0,0,0,0h0ZM35.7,19.2c0,0,0,.1,0,.2,0,0,.1,0,.2,0,0,0-.1-.3-.1-.3ZM34.9,18.5h.3c0-.1,0,.1,0,.1l.2.5s0,0,0,0c0,0,.1,0,.2.1v-.2c0,0-.2-.2-.2-.2h.2c0,0,0,.1,0,.1l.4.9h0c0,.1,0,.1,0,.1,0,0-.2,0-.3-.1l.2.4v.2c.1,0-.2.1-.2.1v-.2c0,0-.3-.5-.3-.5,0,0-.1,0-.2.1,0,0-.1,0-.2,0,0,0-.1,0-.2,0,0,0,0,0-.1-.2,0,0,0-.1,0-.2,0,0,0,0,0,0,0,0,0,0,0,0h0s0,0,0,0c0,0,0,0,0,0,0,0,0,0,0,0,0,0,.1,0,.2,0h0s-.3-.7-.3-.7v-.2c-.1,0-.1,0-.1,0Z"/>
        <path class="cls-3" d="M16.5,23.3c-.4,0-.9.2-.8.7,0,.4.5.6.9.5.5,0,.9-.3.8-.7,0-.4-.4-.6-1-.5h0ZM16.5,23.6c.2,0,.6,0,.6.3,0,.3-.4.4-.5.4-.5,0-.6-.2-.6-.3,0-.2,0-.3.2-.3.1,0,.2,0,.4-.1ZM16.6,26c-.1,0-.6,0-.7-.4,0-.3.2-.6.7-.8.5-.1.9,0,1,.4,0,.2,0,.3-.1.4,0,0-.2.1-.3.2v-.2c0,0,.1-.2,0-.3,0-.3-.5-.2-.6-.2-.2,0-.3,0-.4.2,0,0-.1.2-.1.3,0,.2.2.2.4.2v.3s0,0,0,0ZM17.8,26l.3.9h-.3c0,0-.2-.6-.2-.6h-.4c0,.1.2.7.2.7h-.3c0,0-.2-.5-.2-.5l-.4.2.2.7h-.3c0,0-.3-.8-.3-.8l1.6-.6ZM17.3,28.9l1.2-1.3v-.2c-.1,0-1.9.4-1.9.4v.2c.1,0,.5-.1.5-.1l.3.4-.3.3v.2ZM17.5,27.9l.6-.2-.5.5-.2-.3ZM18.9,28.2l.2.2-.6,1.1h0s.9-.7.9-.7v.2c.1,0-1.2,1.1-1.2,1.1l-.2-.2.6-1.1h0s-.9.7-.9.7v-.2c-.1,0,1.2-1.1,1.2-1.1h0ZM20.7,30.2l-.6.7c-.1.2-.2.2-.2.3,0,0,0,.2,0,.3.2.2.3,0,.5-.2l.6-.7.2.2-.6.7c-.2.2-.3.4-.4.4-.2,0-.4,0-.5,0-.4-.3-.1-.7.1-1l.6-.7s.2.2.2.2ZM21.6,30.8h.2c0,.1-.1,1.4-.1,1.4h0s.6-1,.6-1h.2c0,.1-.9,1.6-.9,1.6h-.2c0-.1.1-1.4.1-1.4h0s-.6,1-.6,1h-.2c0-.1.9-1.6.9-1.6h0ZM22.7,31.5h.2c0,.1-.7,1.7-.7,1.7h-.2c0-.1.7-1.7.7-1.7ZM23.1,31.7h.3c0,0-.1,1.4-.1,1.4h0l.7-1.1h.3c0,0-1,1.5-1,1.5h-.3c0,0,.2-1.9.2-1.9ZM24.4,32.1l.9.2v.3c0,0-.7-.2-.7-.2v.4c0,0,.5.1.5.1v.3c0,0-.7-.1-.7-.1v.5c-.1,0,.6.2.6.2v.3c0,0-1-.2-1-.2l.4-1.7ZM25.4,34.1h.3s0-.7,0-.7h0c.2,0,.2,0,.3.4v.4c.1,0,.5,0,.5,0v-.3c-.2-.3-.3-.4-.4-.4h0c0,0,.1,0,.1,0,.1,0,.2-.2.2-.4,0-.2,0-.4-.2-.5,0,0,0,0-.3,0h-.5c0,0-.2,1.6-.2,1.6ZM25.8,32.7h.2c.2,0,.2,0,.2,0,0,0,0,.1,0,.2,0,0,0,.2-.1.2,0,0-.2,0-.2,0h-.2s0-.5,0-.5ZM27.1,33.6c0,0,0,.3.3.3.2,0,.2-.1.2-.3,0-.1-.1-.2-.3-.2-.1,0-.4-.1-.4-.5,0-.2,0-.5.4-.5.2,0,.5.1.5.5h-.3c0,0,0-.2-.2-.2,0,0-.2,0-.2.2,0,.1,0,.2.3.2.2,0,.5.1.5.5,0,.2,0,.4-.2.5,0,0-.2,0-.3,0-.1,0-.5,0-.6-.6,0,0,.2,0,.2,0ZM28.1,32.4h.3s.3,1.7.3,1.7h-.3s-.3-1.7-.3-1.7ZM29,32.5h-.4c0,0,0-.2,0-.2l1-.2v.3c0,0-.3,0-.3,0l.3,1.4h-.2c0,0-.3-1.3-.3-1.3ZM30.4,32.8l-.8-.8h.3c0-.1.5.4.5.4v-.7s.3-.1.3-.1v1.1c0,0,.2.7.2.7h-.2c0,0-.3-.6-.3-.6ZM32.3,31.8c.2.3.6.6,1,.4.4-.3.3-.7,0-1.1-.3-.4-.7-.6-1-.4-.3.2-.3.6,0,1.1h0ZM32.5,31.7c-.1-.2-.3-.5,0-.7.3-.2.5.1.6.3.3.4.2.6,0,.7-.1,0-.3,0-.4,0-.1,0-.2-.2-.3-.3h0ZM33,30.2l.7-.6.2.2-.5.4.3.3.4-.4.2.2-.4.4.5.5-.2.2-1.1-1.3h0ZM36.2,28.4c0,0,.4.4.2.7-.2.3-.6.3-1,0-.4-.3-.7-.6-.4-1,0-.1.2-.2.4-.2.1,0,.2,0,.3,0v.3c-.2,0-.4,0-.5,0-.2.3.2.5.3.6.1,0,.3.2.4.2.1,0,.2,0,.3-.1,0-.1,0-.3-.2-.4l.2-.2h0ZM35.3,27.5v-.2c0,0,.7.3.7.3l.2-.5-.6-.3v-.2c0,0,1.7.7,1.7.7v.2c0,0-.8-.3-.8-.3l-.2.5.7.3v.2c0,0-1.7-.7-1.7-.7ZM35.7,26.3v-.2c0,0,1.7.5,1.7.5v.2c0,0-1.7-.5-1.7-.5ZM35.9,25.8v-.2s1.3-.3,1.3-.3h0s-1.1-.2-1.1-.2v-.2s1.7.3,1.7.3v.3s-1.2.3-1.2.3h0s1.1.2,1.1.2v.2s-1.7-.3-1.7-.3h0ZM37.9,23.5l-1.8.3v.3s1.6.7,1.6.7v-.3s-.3-.1-.3-.1v-.5s.4,0,.4,0c0,0,0-.3,0-.3ZM37.2,24.2l-.6-.2h.7c0-.1,0,.2,0,.2ZM19.5,26.9s0,0,0,0c0,0,0,.2.1.3h0c0,.2.1.3.2.4h0s0,0,0,0c0,0,.1.2.2.3,1.3-1.2,3-1.8,4.8-1.8.8,0,1.7.1,2.4.4h0c1.1.4,2.2.6,3.4.6,1.2,0,2.4-.2,3.5-.6h0c0,0,0-.1,0-.1,0,0,0-.1,0-.2h0c0-.2,0-.3,0-.4h0c0-.2,0-.3.1-.5,0,0,0-.2,0-.3,0,0,0,0,0-.1,0,0,0-.2,0-.3h0c-1.4,1-3,1.5-4.7,1.5-1.2,0-2.3-.3-3.4-.8,0,0,0,0-.1,0h0c-.9-.4-1.8-.6-2.7-.6-1.7,0-3.2.7-4.4,1.8h0c0,.1,0,.2.1.3h0ZM32,29.3c-.9.3-1.9.2-2.8-.2,0,0,0,0,0,0-.6-.3-1.2-.4-1.9-.4-1.5,0-2.9.8-3.7,2.1,1,.4,2,.6,3.1.6,2,0,3.9-.8,5.3-2h0s0,0,0,0Z"/>
        <path class="cls-3" d="M31.3,28c-1,0-2-.2-2.9-.6h0c-.8-.4-1.6-.6-2.5-.6-1.9,0-3.6.9-4.8,2.3h0c0,0,0,0,0,0h.1c0,.1,0,.1,0,.1h0c0,.1,0,.1,0,.2,0,0,0,0,0,0,0,0,0,0,0,0,0,0,0,0,0,0h0c.1.1.3.2.4.3h.1c0,0,0,.1,0,.1.9-1.4,2.5-2.3,4.2-2.3.9,0,1.7.2,2.4.6,0,0,0,0,0,0,0,0,0,0,0,0,.6.3,1.2.5,1.9.5.5,0,1,0,1.4-.2,0,0,.1-.1.2-.2,0,0,0,0,0,0,.1-.2.3-.3.4-.5h0c0-.2,0-.2.1-.3h0c0-.1,0-.1,0-.1-.7.2-1.4.4-2.2.4Z"/>
        <path class="cls-5" d="M30,18.7h-.3v.5h-.5v-.5h-1.1v-.2l1.1-.9h.5v.9h.3v.2ZM28.2,19.3h-1.6v-.2c0-.1.2-.3.5-.5h0c.3-.2.5-.4.5-.5h0c0-.1,0-.2,0-.2,0,0-.1,0-.2,0h-.3c-.2,0-.2,0-.3.2h-.3c0-.2.2-.4.5-.4h.5c.1,0,.3,0,.4.1s.2.2.2.2h0c0,.2-.2.4-.5.6h0c-.3.2-.5.4-.5.5h0s1.1,0,1.1,0v.2ZM26.4,18.6c0,.2,0,.3-.3.4-.2.1-.4.2-.7.2h-.4v-.2h.3c.1,0,.3,0,.4-.1.1,0,.2-.2.2-.2v-.2c0,.1-.1.2-.3.2h-.3c-.1,0-.3,0-.4-.1-.1,0-.2-.2-.2-.2v-.3c0,0,0-.2.2-.2.1,0,.2-.1.4-.1h.5c.1,0,.3,0,.4.1.1,0,.2.2.2.2,0,0,0,.6,0,.6ZM24.1,19.3h-.5v-1.2h-.3v-.2l.5-.2h.3v1.6ZM26.7,15.2c-4.5,0-8.1,3.6-8.1,8.1,0,.5,0,.9.1,1.4,1.1-.8,2.4-1.2,3.8-1.2,1.2,0,2.4.3,3.5,1,1.1.7,2.4,1,3.6,1,1.9,0,3.8-.8,5.1-2.2h0c0-4.5-3.6-8.1-8.1-8.1h0Z"/>
        <path class="cls-5" d="M25.8,17.9c0,0-.1,0-.2,0,0,0-.1,0-.2,0,0,0,0,0,0,.1v.4s0,0,0,.1c0,0,.1,0,.2,0,0,0,.1,0,.2,0,0,0,0,0,0-.1v-.3s0,0,0-.1ZM29.2,18.6v-.7l-.8.7h.8Z"/>
      </g>
    </g>
  </g>
</svg>