<svg width="128" height="128" fill="none" xmlns="http://www.w3.org/2000/svg"><g filter="url(#a)" fill-rule="evenodd" clip-rule="evenodd"><path d="M22.592 51.039a13.991 13.991 0 0 0-4.471 3.014 14.01 14.01 0 0 0-3.015 4.472A13.975 13.975 0 0 0 14 64.001a14.016 14.016 0 0 0 4.12 9.947 14 14 0 0 0 4.472 3.014 13.963 13.963 0 0 0 5.475 1.105 14.016 14.016 0 0 0 9.947-4.12 13.997 13.997 0 0 0 3.014-4.47A13.962 13.962 0 0 0 42.134 64c0-1.9-.371-3.741-1.106-5.476a13.991 13.991 0 0 0-3.014-4.471 14.012 14.012 0 0 0-9.947-4.12c-1.9-.001-3.741.373-5.475 1.105Zm.181 25.494a13.53 13.53 0 0 1-4.323-2.915 13.51 13.51 0 0 1-2.915-4.323 13.508 13.508 0 0 1-1.069-5.294c0-1.836.36-3.618 1.069-5.296a13.51 13.51 0 0 1 2.915-4.322 13.552 13.552 0 0 1 9.617-3.986 13.551 13.551 0 0 1 9.618 3.986A13.54 13.54 0 0 1 41.669 64a13.54 13.54 0 0 1-3.984 9.617 13.528 13.528 0 0 1-4.324 2.915 13.508 13.508 0 0 1-5.294 1.067c-1.837 0-3.618-.358-5.294-1.067Z" fill="#7E181C"/><path d="M24.017 54.415a10.322 10.322 0 0 0-3.305 2.229 10.35 10.35 0 0 0-3.047 7.355 10.349 10.349 0 0 0 3.047 7.356 10.332 10.332 0 0 0 3.305 2.229c1.284.544 2.644.818 4.049.818 1.405 0 2.767-.274 4.05-.818a10.354 10.354 0 0 0 3.307-2.23A10.376 10.376 0 0 0 38.47 64a10.385 10.385 0 0 0-3.047-7.355 10.344 10.344 0 0 0-3.307-2.23 10.332 10.332 0 0 0-4.05-.817c-1.405 0-2.765.274-4.049.818Zm.124 18.88a10.042 10.042 0 0 1-3.208-2.162 10.063 10.063 0 0 1-2.954-7.134 10.047 10.047 0 0 1 2.954-7.133 10.042 10.042 0 0 1 3.208-2.161 9.993 9.993 0 0 1 3.925-.794c1.362 0 2.684.266 3.928.794a10.023 10.023 0 0 1 3.206 2.161 10.023 10.023 0 0 1 2.163 3.206A10.02 10.02 0 0 1 38.155 64a10.055 10.055 0 0 1-2.954 7.134 10.023 10.023 0 0 1-3.207 2.162 10.016 10.016 0 0 1-3.928.793 9.995 9.995 0 0 1-3.925-.793ZM23.269 76.024l-.02.009a7.092 7.092 0 0 0-.428-.206 15.822 15.822 0 0 0-.529-.228l-.008-.02.035-.078.02-.006.132.045c.075.027.123.04.148.042.018 0 .037-.01.058-.03.035-.034.116-.189.242-.47l.142-.315c.044-.095.096-.215.159-.362l.04-.097c.02-.041.02-.066.002-.074a.401.401 0 0 0-.088-.005c-.14 0-.26.003-.36.006l-.011-.016c.016-.05.032-.107.045-.173l.006-.009c.262.04.563.07.9.09l.02.03-.115.216c-.02.035-.067.134-.144.293l-.229.497c-.16.355-.241.549-.241.58-.001.023.007.042.022.052.026.023.1.067.227.132l.01.02-.035.077ZM27.102 76.319a.604.604 0 0 1-.104.278.651.651 0 0 1-.444.272.91.91 0 0 1-.282 0c-.232-.032-.4-.134-.504-.309a.434.434 0 0 1-.047-.288.437.437 0 0 1 .196-.322c.037-.023.114-.057.232-.095-.191-.132-.275-.294-.25-.485.03-.216.16-.358.39-.43.101-.03.211-.037.332-.02.176.022.311.08.402.174.087.089.12.193.106.315-.023.166-.14.288-.349.367.137.074.23.155.278.245a.47.47 0 0 1 .044.297Zm-.366.113c.018-.133-.035-.243-.159-.326a2.625 2.625 0 0 0-.261-.16l-.04-.019c-.16.08-.249.197-.27.35a.365.365 0 0 0 .026.22c.064.132.17.21.315.229a.345.345 0 0 0 .26-.06.333.333 0 0 0 .129-.234Zm.125-1.019a.286.286 0 0 0-.06-.23.35.35 0 0 0-.234-.115.303.303 0 0 0-.232.048.241.241 0 0 0-.1.17.258.258 0 0 0 .073.204c.032.036.08.072.143.11.022.016.057.035.102.062l.08.044a.351.351 0 0 0 .229-.293ZM30.37 75.611c.033.247.011.456-.064.63a1.153 1.153 0 0 1-.905.694l-.135-.074.03-.059c.032.005.07.005.117 0a.62.62 0 0 0 .508-.41c.05-.122.072-.296.067-.517-.136.147-.213.224-.23.229a.735.735 0 0 1-.214.063.445.445 0 0 1-.353-.09.558.558 0 0 1-.194-.379c-.038-.27.04-.484.233-.643a.69.69 0 0 1 .356-.141c.275-.04.487.05.635.263.074.106.122.25.148.434Zm-.422-.087c-.025-.17-.07-.293-.137-.369a.268.268 0 0 0-.243-.093c-.119.018-.191.086-.217.208a.621.621 0 0 0-.004.225.55.55 0 0 0 .134.317c.065.065.146.09.24.076.122-.015.196-.075.224-.178a.508.508 0 0 0 .003-.186ZM33.635 75.034c.044.1.063.197.056.29a.657.657 0 0 1-.239.463.865.865 0 0 1-.242.146c-.216.093-.411.093-.59-.002a.444.444 0 0 1-.19-.22.445.445 0 0 1 0-.38c.02-.038.07-.106.151-.202-.234-.013-.389-.108-.465-.284-.088-.2-.05-.39.111-.57a.79.79 0 0 1 .272-.192c.162-.07.308-.09.434-.057.12.031.205.104.254.216.068.154.03.319-.109.494a.666.666 0 0 1 .365.064.48.48 0 0 1 .192.234Zm-.675-.65a.287.287 0 0 0-.172-.165.344.344 0 0 0-.258.023.305.305 0 0 0-.173.16.236.236 0 0 0 .002.196c.03.066.086.11.169.138.044.013.104.02.179.02.026.002.066.002.118 0l.09-.004c.086-.117.101-.24.045-.368Zm.422.936c-.054-.122-.156-.189-.306-.198a2.47 2.47 0 0 0-.306.002l-.044.002c-.095.15-.111.298-.05.439.036.08.081.14.137.176.123.08.252.09.387.031a.343.343 0 0 0 .192-.188.335.335 0 0 0-.01-.264ZM16.136 67.602a.513.513 0 0 1 .512.063.86.86 0 0 1 .193.213c.056.086.107.187.151.303l.054.14.486-.185a.15.15 0 0 0 .069-.046.119.119 0 0 0 .027-.083.391.391 0 0 0-.01-.088.764.764 0 0 0-.021-.1l.096-.038.362.948-.096.035-.047-.089a.37.37 0 0 0-.047-.077c-.025-.026-.05-.042-.073-.045a.2.2 0 0 0-.084.015l-1.222.466a.17.17 0 0 0-.068.044c-.017.017-.027.045-.028.084a.498.498 0 0 0 .01.1.79.79 0 0 0 .017.091l-.096.037-.364-.956c-.086-.222-.114-.404-.085-.54a.393.393 0 0 1 .264-.292Zm.24.45c-.128.05-.216.112-.258.189-.043.078-.039.181.012.315l.038.102.76-.291-.02-.052c-.05-.13-.12-.22-.208-.267-.088-.047-.195-.045-.323.004ZM15.643 64.69l.011.103a.701.701 0 0 0-.197.152.35.35 0 0 0-.106.198.582.582 0 0 0 .001.107c.004.046.008.085.012.113l.031.266.71-.083-.022-.188a.43.43 0 0 0-.032-.126.245.245 0 0 0-.077-.097.346.346 0 0 0-.112-.049.712.712 0 0 0-.134-.022l-.011-.102.765-.09.013.103a.5.5 0 0 0-.133.054.392.392 0 0 0-.107.073.21.21 0 0 0-.052.106.462.462 0 0 0-.002.137l.022.188.532-.064a.55.55 0 0 0 .13-.026.14.14 0 0 0 .07-.056.192.192 0 0 0 .022-.093 1.042 1.042 0 0 0-.01-.153c-.004-.03-.007-.066-.015-.109a.758.758 0 0 0-.05-.208.148.148 0 0 0-.047-.067 1.028 1.028 0 0 0-.21-.117 1.431 1.431 0 0 0-.207-.08l-.01-.093.576-.031.201 1.727-.1.012a2.292 2.292 0 0 0-.023-.099.496.496 0 0 0-.028-.087.133.133 0 0 0-.06-.06.155.155 0 0 0-.084-.007l-1.3.15a.171.171 0 0 0-.075.024c-.02.013-.035.038-.047.075a.45.45 0 0 0-.018.1c-.003.042-.006.072-.006.094l-.101.013-.191-1.632.471-.055ZM17.308 61.261l-.104.725c-.185.085-.34.163-.465.235-.127.072-.285.164-.476.276l-.01.066.58.084a.186.186 0 0 0 .081-.005.14.14 0 0 0 .064-.06.676.676 0 0 0 .059-.154l.1.014-.138.975-.102-.015c.003-.023.004-.056.007-.1a.354.354 0 0 0-.003-.091.132.132 0 0 0-.04-.072.208.208 0 0 0-.08-.032l-1.301-.183a.171.171 0 0 0-.079.004c-.022.006-.043.027-.065.059a.788.788 0 0 0-.073.182l-.1-.015.143-1.008.102.016c-.002.026-.003.06-.003.097a.52.52 0 0 0 .007.098c.006.036.02.06.043.074a.19.19 0 0 0 .078.029l.62.088.008-.053a15.569 15.569 0 0 0-.188-.266 3.285 3.285 0 0 0-.344-.416c-.04-.039-.078-.061-.11-.066-.016-.002-.029.013-.04.042a.76.76 0 0 0-.038.142l-.102-.014.114-.798.1.015c-.002.097.005.18.02.249a.652.652 0 0 0 .095.211c.07.103.131.188.184.256.051.069.118.155.2.263.113-.067.25-.15.413-.244.163-.095.322-.19.477-.285.04-.025.078-.053.116-.085a.518.518 0 0 0 .096-.113.471.471 0 0 0 .051-.139l.103.014ZM18.008 59.421l-.384.955-.095-.037.032-.1a.385.385 0 0 0 .02-.093c0-.035-.007-.062-.023-.08a.172.172 0 0 0-.07-.048l-1.22-.488a.167.167 0 0 0-.08-.013.118.118 0 0 0-.074.04.523.523 0 0 0-.06.077 1.186 1.186 0 0 0-.056.09l-.095-.037.382-.956.095.038-.026.096a.48.48 0 0 0-.018.099c-.002.037.006.062.024.083.018.019.041.035.07.044l1.22.489a.143.143 0 0 0 .079.014.118.118 0 0 0 .075-.043.378.378 0 0 0 .056-.074c.022-.036.04-.07.052-.095l.096.04ZM18.307 55.658c-.013.02-.03.05-.05.093a.266.266 0 0 0-.029.127c0 .04.02.083.058.127.04.045.104.099.193.163l1.08.776-.136.188-1.837.1.706.506c.089.064.16.106.212.128.055.02.103.024.141.013a.295.295 0 0 0 .108-.06c.042-.034.074-.061.096-.083l.083.059-.464.648-.084-.06a.94.94 0 0 0 .053-.105.31.31 0 0 0 .026-.116.199.199 0 0 0-.052-.124c-.035-.04-.1-.095-.199-.165l-.714-.513a.391.391 0 0 0-.112-.056.26.26 0 0 0-.118-.008.333.333 0 0 0-.118.046.558.558 0 0 0-.111.086l-.083-.06.407-.566 1.611-.087-.573-.412a1.038 1.038 0 0 0-.216-.127.224.224 0 0 0-.14-.016.31.31 0 0 0-.107.062c-.04.031-.072.056-.094.079l-.08-.058.46-.644.083.059ZM21.52 54.13l-.05.052a.53.53 0 0 0-.048.065c-.022.032-.027.06-.02.089.008.026.02.05.038.074l.135.168c.028.033.05.062.068.08.017.021.038.047.064.076a1.532 1.532 0 0 1-.208.356c-.103.143-.21.26-.322.348a1.115 1.115 0 0 1-.333.189.846.846 0 0 1-.709-.054 1.042 1.042 0 0 1-.317-.272 1.113 1.113 0 0 1-.195-.358.88.88 0 0 1 .087-.74 1.22 1.22 0 0 1 .762-.548l.018-.107.09-.073.435.522-.09.072a1.21 1.21 0 0 0-.47-.206.465.465 0 0 0-.365.105.432.432 0 0 0-.164.413c.02.172.11.357.27.556.171.212.34.351.506.414.165.064.312.045.44-.057a.608.608 0 0 0 .137-.154.467.467 0 0 0 .057-.148L21.1 54.7a.142.142 0 0 0-.062-.05c-.022-.01-.051-.01-.088 0a1.124 1.124 0 0 0-.182.086l-.065-.079.752-.606.064.08ZM25.84 51.355l-.103.046a.3.3 0 0 0-.104.078c-.027.029-.04.073-.038.131 0 .057.017.14.045.25l.179.666a.624.624 0 0 1-.074.524c-.102.156-.262.263-.481.322-.256.066-.47.063-.64-.015a.607.607 0 0 1-.338-.425l-.245-.914a.143.143 0 0 0-.037-.071.156.156 0 0 0-.079-.041c-.025-.005-.055-.006-.088-.005-.034.003-.062.005-.082.008l-.026-.1.939-.25.026.099a.618.618 0 0 0-.079.032.547.547 0 0 0-.08.042.102.102 0 0 0-.052.069.218.218 0 0 0 .006.085l.24.901c.049.178.122.297.221.356.101.06.226.069.376.03a.47.47 0 0 0 .31-.226c.06-.112.066-.254.02-.426l-.161-.607a1.06 1.06 0 0 0-.087-.237.229.229 0 0 0-.1-.097.333.333 0 0 0-.127-.02c-.058 0-.1 0-.123.004l-.027-.102.783-.209.026.102ZM29.343 51.223l-.105.011a.297.297 0 0 0-.122.05c-.034.024-.057.064-.071.121-.015.056-.022.14-.023.252l-.019 1.328-.232-.002-1.132-1.452-.013.87c-.001.108.005.19.018.246a.225.225 0 0 0 .068.125c.023.02.06.036.113.052a.84.84 0 0 0 .122.032l-.001.103-.797-.012v-.1c.035-.004.073-.01.117-.02a.319.319 0 0 0 .111-.044.198.198 0 0 0 .072-.113 1.09 1.09 0 0 0 .02-.257l.013-.88a.358.358 0 0 0-.018-.124.245.245 0 0 0-.06-.101.342.342 0 0 0-.105-.072.684.684 0 0 0-.134-.041v-.104l.698.01.993 1.273.01-.706a1.078 1.078 0 0 0-.018-.25.232.232 0 0 0-.069-.123.362.362 0 0 0-.11-.053c-.05-.015-.09-.024-.12-.032l.003-.099.792.01-.001.102ZM31.342 53.442l-.998-.257.026-.1c.022.004.056.012.102.019.044.009.076.01.096.009a.12.12 0 0 0 .076-.035.17.17 0 0 0 .038-.073l.33-1.274a.19.19 0 0 0 .003-.08.125.125 0 0 0-.051-.07.921.921 0 0 0-.18-.095l.024-.097.997.257-.026.1c-.025-.005-.057-.01-.096-.015-.04-.005-.073-.007-.102-.005a.113.113 0 0 0-.079.034.21.21 0 0 0-.037.074l-.329 1.273a.174.174 0 0 0-.003.081.135.135 0 0 0 .051.07.477.477 0 0 0 .082.046l.1.04-.024.098ZM34.993 53.193a.42.42 0 0 0-.08-.024c-.028-.006-.058-.007-.09-.006a.302.302 0 0 0-.108.022.456.456 0 0 0-.102.061c-.052.042-.127.1-.224.181-.097.08-.208.167-.332.27-.111.09-.232.19-.363.3l-.378.312-.23-.122c.032-.322.065-.647.096-.98.034-.33.057-.562.066-.692a.385.385 0 0 0-.005-.114.338.338 0 0 0-.046-.103.453.453 0 0 0-.053-.067.786.786 0 0 0-.072-.057l.05-.091.886.47-.047.09a.917.917 0 0 0-.19-.061c-.036-.005-.057 0-.067.017a.14.14 0 0 0-.01.03l-.01.046c-.011.081-.024.215-.042.405-.017.19-.045.479-.085.862a47.72 47.72 0 0 0 .78-.668c.047-.04.088-.077.123-.115a.357.357 0 0 0 .07-.085c.014-.024.006-.054-.022-.091a.77.77 0 0 0-.18-.141l.048-.093.666.352-.05.092ZM37.01 55.35l-.075-.07a.66.66 0 0 0 .05-.246.354.354 0 0 0-.048-.217.45.45 0 0 0-.073-.08c-.033-.035-.06-.06-.083-.08l-.197-.181-.482.527.139.13c.035.031.07.056.106.073a.243.243 0 0 0 .124.024.337.337 0 0 0 .114-.038.705.705 0 0 0 .118-.07l.075.068-.52.57-.076-.068a.579.579 0 0 0 .064-.128.392.392 0 0 0 .033-.126c0-.042-.01-.08-.03-.115a.5.5 0 0 0-.088-.104l-.14-.127-.36.395a.67.67 0 0 0-.082.106c-.015.03-.021.06-.015.087.003.026.019.056.043.084.025.03.06.067.109.112l.081.072a1.01 1.01 0 0 0 .176.124c.03.016.056.021.079.02a1.09 1.09 0 0 0 .234-.05c.097-.03.168-.053.209-.075l.069.063-.415.401-1.282-1.171.07-.075c.018.015.045.034.08.06.034.024.06.04.078.046a.128.128 0 0 0 .085.007.173.173 0 0 0 .068-.05l.883-.965a.181.181 0 0 0 .04-.067c.008-.022.003-.051-.013-.09a1.447 1.447 0 0 0-.109-.16l.069-.075 1.212 1.107-.32.351ZM37.973 58.99l-.386-.599c.091-.204.162-.37.21-.499.05-.128.103-.284.16-.464l-.037-.057-.47.304a.142.142 0 0 0-.059.057.134.134 0 0 0-.008.087 1.074 1.074 0 0 0 .06.16l-.087.056-.538-.834.087-.056.064.08a.368.368 0 0 0 .063.064.13.13 0 0 0 .08.028.156.156 0 0 0 .078-.03l1.101-.709a.199.199 0 0 0 .056-.055c.014-.02.016-.05.01-.088a.639.639 0 0 0-.032-.1 1.973 1.973 0 0 0-.033-.085l.086-.055.564.874c.126.197.191.365.196.506a.365.365 0 0 1-.18.332.442.442 0 0 1-.325.076.748.748 0 0 1-.34-.185 14.2 14.2 0 0 0-.112.317c-.043.12-.084.245-.126.373-.014.04-.029.096-.044.161a.305.305 0 0 0-.01.153c.007.02.015.044.03.072a.996.996 0 0 0 .027.06l-.085.057Zm.678-1.493c.105-.067.16-.146.172-.236.01-.088-.019-.185-.088-.293l-.057-.087-.65.421.052.084a.41.41 0 0 0 .245.194c.095.023.204-.005.326-.083ZM38.492 60.513a1.161 1.161 0 0 1-.047-.582l-.116-.058-.034-.105.63-.227.036.108a1.906 1.906 0 0 0-.159.154 1.04 1.04 0 0 0-.135.19.678.678 0 0 0-.078.215.471.471 0 0 0 .021.236c.038.111.094.188.168.23.075.042.154.05.237.021a.232.232 0 0 0 .146-.133.687.687 0 0 0 .04-.277v-.213c-.001-.065 0-.126.002-.184a.569.569 0 0 1 .115-.33.533.533 0 0 1 .266-.184.46.46 0 0 1 .21-.023.548.548 0 0 1 .215.073c.066.04.127.097.185.17a.951.951 0 0 1 .19.55c.002.097-.003.172-.013.23l.098.051.037.109-.596.212-.036-.108c.054-.047.111-.098.166-.154.055-.056.1-.11.131-.162a.526.526 0 0 0 .068-.178.415.415 0 0 0-.02-.202.344.344 0 0 0-.149-.194.249.249 0 0 0-.215-.023.23.23 0 0 0-.145.13.663.663 0 0 0-.04.27v.21c0 .07 0 .133-.003.19a.633.633 0 0 1-.099.337.493.493 0 0 1-.272.196.539.539 0 0 1-.464-.065.754.754 0 0 1-.197-.19 1.081 1.081 0 0 1-.143-.29ZM39.1 63.365l-.105-1.024.1-.01.019.102a.326.326 0 0 0 .026.091c.015.032.035.053.058.062.021.01.05.012.082.01l1.308-.136a.18.18 0 0 0 .077-.025.123.123 0 0 0 .047-.072.956.956 0 0 0 .025-.203l.103-.009.105 1.024-.101.01-.021-.095a.492.492 0 0 0-.032-.097c-.014-.032-.034-.054-.059-.062-.024-.009-.053-.014-.083-.009l-1.306.135a.174.174 0 0 0-.08.026.131.131 0 0 0-.046.072.87.87 0 0 0-.015.2l-.103.01ZM40.236 66.361l.013-.1c.082-.017.17-.05.267-.099s.152-.097.165-.147l.021-.101c.007-.04.013-.075.016-.103l.006-.062-1.442-.172a.186.186 0 0 0-.084.008.122.122 0 0 0-.065.06 1.2 1.2 0 0 0-.064.195l-.102-.011.122-1.03.101.011-.001.107a.325.325 0 0 0 .007.095c.01.035.025.061.047.075.022.015.05.022.082.027l1.455.172.007-.06a1.22 1.22 0 0 0 .008-.107c.003-.04.004-.073.004-.102 0-.05-.043-.111-.126-.18a1.1 1.1 0 0 0-.236-.159l.01-.102.53.063-.213 1.785-.528-.063ZM39.633 69.572a.494.494 0 0 0 .014-.085.378.378 0 0 0-.043-.203c-.02-.04-.044-.08-.07-.12-.058-.082-.121-.169-.19-.262s-.143-.195-.226-.304a.777.777 0 0 0-.128-.144.983.983 0 0 0-.187-.087l-.245-.095a.175.175 0 0 0-.084-.013.128.128 0 0 0-.077.043.788.788 0 0 0-.11.172l-.097-.036.372-.97.096.036c-.008.024-.016.058-.028.102a.538.538 0 0 0-.019.098.136.136 0 0 0 .029.082.219.219 0 0 0 .072.047l.306.117.071.025c.02.006.039.01.055.01.017 0 .04 0 .07-.005.03-.005.067-.01.114-.019.134-.02.261-.039.381-.061.122-.02.235-.041.341-.06a.536.536 0 0 0 .24-.102c.02-.018.04-.04.059-.07a.712.712 0 0 0 .045-.08l.095.038-.38.991-.096-.036a.94.94 0 0 0 .052-.192c.003-.036-.006-.06-.024-.065-.009-.004-.03-.004-.06-.004a3.858 3.858 0 0 0-.15.016c-.063.007-.15.02-.264.036-.113.02-.247.042-.4.07.186.248.317.418.391.513a.726.726 0 0 0 .147.157c.028.009.055.001.083-.027a.551.551 0 0 0 .09-.153l.095.036-.244.64-.096-.036Z" fill="#7E181C"/><path d="M37.636 64c0 5.284-4.283 9.568-9.567 9.568-5.286 0-9.57-4.284-9.57-9.568a9.568 9.568 0 0 1 9.57-9.569c5.284 0 9.567 4.283 9.567 9.57Zm-3.621 4.863a13.405 13.405 0 0 0-1.073-2.027 9.209 9.209 0 0 0-1.345-1.65 6.03 6.03 0 0 0-1.629-1.132 4.641 4.641 0 0 0-1.144-.36v-.444a.757.757 0 0 0-1.513 0v.444c-.387.068-.77.188-1.143.36a6.07 6.07 0 0 0-1.63 1.133 9.171 9.171 0 0 0-1.344 1.649 13.35 13.35 0 0 0-1.073 2.027.734.734 0 0 0 .383.962c.37.158.8-.014.96-.385.573-1.338 1.293-2.442 2.083-3.195.568-.543 1.16-.896 1.764-1.056v1.189c0 .409-.3.57-.439.653l-.185.113a3.766 3.766 0 0 0-.904.85c-.544.697-.968 1.647-1.191 2.675a.73.73 0 1 0 1.427.311c.18-.818.504-1.56.916-2.088.21-.27.637-.722 1.132-.722.496 0 .923.453 1.133.722.413.528.738 1.27.916 2.088a.73.73 0 1 0 1.428-.31c-.224-1.03-.648-1.98-1.191-2.676a3.802 3.802 0 0 0-.904-.85 48.903 48.903 0 0 0-.187-.113c-.137-.084-.438-.244-.438-.653v-1.189c.605.16 1.195.513 1.764 1.056.79.752 1.51 1.857 2.083 3.195.159.37.589.543.96.385.37-.16.543-.59.384-.962Zm-5.3-12.128v4.727c0 .249.181.61.572.693.877.186 1.879.698 2.783 1.445.888.733 1.722 1.694 2.48 2.862a.732.732 0 0 0 1.225-.798c-.838-1.29-1.772-2.362-2.774-3.19-.89-.736-1.821-1.263-2.773-1.573v-1.678c1.37.376 2.8 1.156 4.029 2.21a.73.73 0 1 0 .95-1.11 13.065 13.065 0 0 0-2.588-1.729 10.53 10.53 0 0 0-2.391-.88v-.979a.756.756 0 0 0-1.512 0Zm-2.051-.756a.756.756 0 0 0-.756.756v.979c-.79.181-1.59.475-2.392.88a13.067 13.067 0 0 0-2.588 1.728.73.73 0 1 0 .95 1.11c1.23-1.053 2.658-1.833 4.03-2.21v1.68c-.952.31-1.882.835-2.774 1.571-1.002.829-1.936 1.902-2.774 3.191a.732.732 0 0 0 1.225.798c.758-1.168 1.591-2.13 2.48-2.862.904-.747 1.907-1.26 2.784-1.445a.731.731 0 0 0 .57-.693v-4.727a.756.756 0 0 0-.755-.756Z" fill="#7E181C"/><path d="M51.314 73.71c0 .235-.046.442-.138.622-.091.181-.218.33-.38.448-.16.12-.335.205-.526.26a2.2 2.2 0 0 1-.61.083h-.502v1.357c0 .075.012.14.037.195.024.056.074.098.15.128a2.328 2.328 0 0 0 .469.063v.225h-1.92v-.225c.049-.004.12-.011.215-.023a.722.722 0 0 0 .197-.04.274.274 0 0 0 .136-.12.43.43 0 0 0 .041-.203v-3.24c0-.072-.01-.139-.031-.198-.021-.06-.07-.104-.147-.133a1.38 1.38 0 0 0-.238-.058 2.804 2.804 0 0 0-.202-.024v-.225h2.045c.416 0 .755.1 1.014.303.26.2.39.47.39.805Zm-.963.763c.07-.101.117-.206.14-.314a1.384 1.384 0 0 0-.007-.658.867.867 0 0 0-.146-.325.75.75 0 0 0-.29-.23 1.085 1.085 0 0 0-.446-.082h-.444v1.977h.321c.227 0 .41-.034.552-.105a.808.808 0 0 0 .32-.264ZM55.602 75.77l-.086 1.32h-3.72v-.225c.063-.003.147-.012.253-.026a.918.918 0 0 0 .205-.042.296.296 0 0 0 .14-.124.413.413 0 0 0 .04-.193v-3.226a.464.464 0 0 0-.035-.185.272.272 0 0 0-.145-.132 1.699 1.699 0 0 0-.457-.11v-.225h3.467v1.078h-.234a1.423 1.423 0 0 0-.274-.5c-.14-.178-.273-.274-.4-.29a2.978 2.978 0 0 0-.233-.02 7.297 7.297 0 0 0-.31-.006h-.705v1.771h.504c.162 0 .28-.015.354-.046a.482.482 0 0 0 .197-.153.802.802 0 0 0 .118-.244c.032-.1.054-.197.064-.288h.234v1.762h-.234a1.34 1.34 0 0 0-.068-.322.834.834 0 0 0-.114-.247.464.464 0 0 0-.222-.161 1.183 1.183 0 0 0-.329-.038h-.504v1.342c0 .134.01.24.028.317.02.079.056.138.111.177.055.04.129.067.224.077.093.011.228.017.402.017h.274c.113 0 .208-.003.286-.013.08-.007.161-.023.246-.045a.367.367 0 0 0 .181-.09c.097-.1.198-.254.304-.458.106-.205.174-.356.203-.452h.235ZM60.224 77.09h-1.26a13.796 13.796 0 0 0-.809-1.116c-.297-.37-.608-.728-.932-1.076h-.082v1.56c0 .07.013.132.038.187a.296.296 0 0 0 .142.132c.033.015.095.033.185.054.09.021.165.033.225.034v.226h-1.855v-.225l.213-.019a.67.67 0 0 0 .196-.039.266.266 0 0 0 .138-.12.41.41 0 0 0 .043-.196v-3.238a.421.421 0 0 0-.038-.187.28.28 0 0 0-.143-.13 1.11 1.11 0 0 0-.204-.072 1.091 1.091 0 0 0-.206-.038v-.225h1.856v.225c-.058.002-.13.011-.218.028a1.414 1.414 0 0 0-.192.048.228.228 0 0 0-.143.126.516.516 0 0 0-.037.194v1.553h.063c.19-.16.376-.328.56-.502.184-.175.35-.348.5-.521.166-.193.289-.347.366-.462a.578.578 0 0 0 .115-.306c0-.032-.02-.057-.059-.078a.683.683 0 0 0-.292-.072l-.113-.008v-.225h1.68v.225a.3.3 0 0 0-.04.003l-.073.007a.67.67 0 0 0-.087.012 1.19 1.19 0 0 0-.341.103.606.606 0 0 0-.194.138l-.678.768c-.238.264-.47.505-.703.723.32.362.586.674.796.934.21.26.433.54.67.837a1.55 1.55 0 0 0 .504.425.739.739 0 0 0 .204.064c.081.015.15.023.205.025v.225ZM62.473 77.09h-2.025v-.225c.058-.003.14-.01.247-.018a.902.902 0 0 0 .228-.039.307.307 0 0 0 .152-.111.356.356 0 0 0 .048-.199v-3.25a.441.441 0 0 0-.035-.185c-.023-.05-.078-.092-.165-.126a1.757 1.757 0 0 0-.239-.07 1.598 1.598 0 0 0-.236-.04v-.225h2.025v.225c-.066.002-.144.01-.235.024-.09.013-.17.03-.237.052-.08.025-.134.066-.162.123a.433.433 0 0 0-.04.19v3.248c0 .07.014.13.045.185a.31.31 0 0 0 .157.128c.044.018.115.036.217.056.1.02.184.03.255.032v.226ZM67.499 72.827c-.06.002-.15.02-.274.05a.965.965 0 0 0-.263.099c-.077.052-.128.153-.155.303-.026.15-.04.34-.04.57v3.289h-.277l-2.721-3.675v2.315c0 .26.016.459.049.597.032.14.082.239.149.298.049.047.148.09.298.13.152.04.252.06.3.063v.225H62.73v-.225c.056-.004.151-.025.285-.061.135-.038.22-.07.254-.1a.468.468 0 0 0 .15-.27c.028-.122.041-.33.041-.623v-2.21a.885.885 0 0 0-.05-.291.564.564 0 0 0-.135-.226.969.969 0 0 0-.308-.178 1.092 1.092 0 0 0-.313-.08v-.225h1.281l2.524 3.424V73.89c0-.261-.017-.462-.05-.603-.034-.14-.082-.234-.145-.28a1.036 1.036 0 0 0-.288-.117 1.598 1.598 0 0 0-.304-.063v-.225H67.5v.225ZM72.206 75.291c-.052.007-.12.016-.207.03a.76.76 0 0 0-.209.06.283.283 0 0 0-.135.134.483.483 0 0 0-.04.204v.35c0 .253.002.424.005.513.002.088.006.161.011.219-.28.126-.559.223-.837.291a3.515 3.515 0 0 1-.818.102c-.286 0-.562-.054-.826-.161a2.06 2.06 0 0 1-.695-.46c-.2-.2-.36-.444-.477-.73a2.507 2.507 0 0 1-.177-.963c0-.343.056-.66.168-.952.113-.292.272-.546.478-.761.2-.212.439-.376.715-.493.277-.117.573-.176.887-.176.254 0 .473.032.66.096.187.062.353.136.495.223l.13-.215h.253l.028 1.565h-.262a4.71 4.71 0 0 0-.164-.514 1.842 1.842 0 0 0-.252-.454 1.161 1.161 0 0 0-.376-.318 1.1 1.1 0 0 0-.53-.12c-.225 0-.426.046-.602.139-.177.09-.33.228-.46.41a1.94 1.94 0 0 0-.296.656 3.43 3.43 0 0 0-.104.879c0 .285.034.554.103.808.068.252.168.47.299.654.13.187.293.336.49.443.196.11.418.163.667.163.185 0 .354-.029.506-.086a.917.917 0 0 0 .325-.18c.016-.111.025-.222.027-.333l.001-.286v-.248a.715.715 0 0 0-.037-.236.253.253 0 0 0-.15-.152 1.052 1.052 0 0 0-.283-.071 5.509 5.509 0 0 0-.28-.03v-.224h1.969v.224ZM78.662 72.827c-.06.002-.147.014-.261.038a.81.81 0 0 0-.28.104c-.072.048-.122.148-.15.3a3.182 3.182 0 0 0-.041.557v1.95a1.289 1.289 0 0 1-.563 1.099 1.708 1.708 0 0 1-.527.244 2.06 2.06 0 0 1-.53.075c-.27 0-.51-.035-.72-.106a1.602 1.602 0 0 1-.531-.287 1.194 1.194 0 0 1-.32-.412 1.142 1.142 0 0 1-.107-.485v-2.651a.413.413 0 0 0-.037-.185.339.339 0 0 0-.148-.137.718.718 0 0 0-.203-.07 1.538 1.538 0 0 0-.203-.034v-.225h1.855v.225c-.058.002-.13.011-.219.028a1.46 1.46 0 0 0-.194.048.223.223 0 0 0-.142.125.526.526 0 0 0-.035.193v2.477c0 .12.013.246.04.377a.997.997 0 0 0 .156.368c.083.115.196.21.338.285.141.073.336.11.584.11.232 0 .428-.037.585-.11a.975.975 0 0 0 .374-.292c.087-.113.148-.232.184-.356.036-.124.054-.25.054-.376v-1.838c0-.234-.017-.425-.05-.574-.035-.148-.084-.246-.15-.291a.878.878 0 0 0-.303-.124 2.075 2.075 0 0 0-.293-.05v-.225h1.837v.225ZM83.714 72.827c-.06.002-.15.02-.273.05a.97.97 0 0 0-.264.099c-.076.052-.128.153-.155.303-.026.15-.039.34-.039.57v3.289h-.277l-2.722-3.675v2.315c0 .26.017.459.049.597.032.14.082.239.15.298.047.047.147.09.298.13.151.04.251.06.3.063v.225h-1.837v-.225c.056-.004.152-.025.286-.061.135-.038.218-.07.252-.1a.46.46 0 0 0 .152-.27c.026-.122.041-.33.041-.623v-2.21a.896.896 0 0 0-.05-.291.553.553 0 0 0-.136-.226.966.966 0 0 0-.307-.178 1.096 1.096 0 0 0-.314-.08v-.225h1.28l2.526 3.424V73.89c0-.261-.018-.462-.05-.603-.034-.14-.082-.234-.145-.28a1.032 1.032 0 0 0-.289-.117 1.59 1.59 0 0 0-.304-.063v-.225h1.828v.225ZM85.91 77.09h-2.024v-.225c.057-.003.14-.01.247-.018a.892.892 0 0 0 .228-.039.313.313 0 0 0 .153-.111.359.359 0 0 0 .047-.199v-3.25a.435.435 0 0 0-.034-.185c-.025-.05-.08-.092-.166-.126a1.732 1.732 0 0 0-.238-.07 1.631 1.631 0 0 0-.237-.04v-.225h2.024v.225c-.065.002-.144.01-.234.024-.091.013-.17.03-.237.052-.08.025-.134.066-.162.123a.423.423 0 0 0-.041.19v3.248c0 .07.015.13.045.185a.317.317 0 0 0 .158.128c.044.018.116.036.216.056.1.02.186.03.255.032v.226ZM90.65 72.827a.863.863 0 0 0-.199.036.732.732 0 0 0-.192.08.529.529 0 0 0-.174.17c-.043.071-.086.154-.127.248-.142.336-.354.858-.637 1.567-.283.71-.573 1.45-.873 2.22h-.264c-.303-.817-.596-1.603-.88-2.36-.282-.757-.474-1.27-.575-1.534a.57.57 0 0 0-.102-.173.7.7 0 0 0-.357-.22 1.063 1.063 0 0 0-.192-.034v-.225h1.854v.225c-.157.008-.29.024-.4.047-.107.023-.161.064-.161.123a.765.765 0 0 0 .034.159l.38 1.01.747 1.997a100.035 100.035 0 0 0 .975-2.479 2.8 2.8 0 0 0 .122-.399c.01-.073.016-.133.016-.18a.147.147 0 0 0-.064-.122.573.573 0 0 0-.173-.083 1.296 1.296 0 0 0-.212-.048 3.129 3.129 0 0 0-.218-.025v-.225h1.673v.225ZM94.594 75.77l-.085 1.32h-3.72v-.225c.062-.003.147-.012.252-.026a.91.91 0 0 0 .205-.042.29.29 0 0 0 .14-.124.412.412 0 0 0 .04-.193v-3.226a.467.467 0 0 0-.035-.185.27.27 0 0 0-.145-.132 1.694 1.694 0 0 0-.457-.11v-.225h3.468v1.078h-.235a1.42 1.42 0 0 0-.273-.5c-.141-.178-.274-.274-.4-.29a3.011 3.011 0 0 0-.234-.02 7.29 7.29 0 0 0-.31-.006H92.1v1.771h.504a.99.99 0 0 0 .355-.046.48.48 0 0 0 .197-.153.802.802 0 0 0 .117-.244c.033-.1.054-.197.065-.288h.234v1.762h-.234a1.418 1.418 0 0 0-.068-.322.872.872 0 0 0-.114-.247.468.468 0 0 0-.223-.161 1.18 1.18 0 0 0-.329-.038H92.1v1.342c0 .134.01.24.03.317a.29.29 0 0 0 .11.177.46.46 0 0 0 .223.077c.095.011.228.017.402.017h.274c.113 0 .208-.003.286-.013.08-.007.162-.023.247-.045a.364.364 0 0 0 .18-.09 2.01 2.01 0 0 0 .305-.458c.105-.205.173-.356.203-.452h.234ZM99.434 77.09h-1.216a28.293 28.293 0 0 0-.723-1.082c-.216-.304-.45-.618-.702-.941h-.46v1.415c0 .073.011.138.034.194.023.055.072.097.148.127.037.014.103.028.197.041.094.013.174.02.239.022v.225h-1.884v-.225c.05-.004.122-.011.216-.023a.737.737 0 0 0 .198-.04.272.272 0 0 0 .134-.12.43.43 0 0 0 .043-.203v-3.245a.58.58 0 0 0-.032-.196c-.02-.058-.069-.1-.145-.13a1.305 1.305 0 0 0-.203-.052 1.865 1.865 0 0 0-.21-.03v-.225h2.07c.188 0 .367.02.533.058.167.04.318.103.453.189.13.085.234.195.312.331.078.136.117.3.117.493 0 .174-.026.326-.08.459a.931.931 0 0 1-.235.345c-.095.091-.209.17-.342.237a2.755 2.755 0 0 1-.442.17c.222.292.406.539.554.74.145.2.325.443.54.73.092.125.176.219.25.278.076.06.15.109.224.146a.746.746 0 0 0 .206.063c.083.015.151.023.206.025v.225Zm-1.659-3.343c0-.27-.078-.486-.235-.644-.158-.16-.38-.239-.666-.239h-.541v1.921h.416c.293 0 .538-.093.733-.278.195-.187.293-.44.293-.76ZM102.399 75.037c.094.105.165.22.211.347.044.126.067.272.067.44 0 .397-.146.725-.439.983-.293.258-.656.387-1.09.387-.2 0-.4-.033-.6-.1a2.48 2.48 0 0 1-.518-.235l-.136.232h-.254l-.046-1.537h.253c.053.191.115.363.186.517.07.154.164.297.28.43.11.126.239.227.386.3.147.075.317.112.512.112.146 0 .274-.02.383-.057a.67.67 0 0 0 .265-.162.677.677 0 0 0 .15-.245.98.98 0 0 0-.103-.828.927.927 0 0 0-.452-.353 24.067 24.067 0 0 0-.47-.182 7.165 7.165 0 0 1-.459-.187 1.489 1.489 0 0 1-.59-.448c-.14-.186-.21-.427-.21-.725 0-.172.035-.332.104-.48.069-.147.168-.279.296-.395a1.46 1.46 0 0 1 .954-.353c.206 0 .39.033.554.097.162.063.311.137.446.222l.13-.215h.252l.029 1.49h-.254a5.773 5.773 0 0 0-.156-.49 1.714 1.714 0 0 0-.226-.422 1.036 1.036 0 0 0-.333-.291.979.979 0 0 0-.481-.11.737.737 0 0 0-.513.194.614.614 0 0 0-.212.47.81.81 0 0 0 .136.483 1 1 0 0 0 .395.314c.153.074.305.138.453.192a6.4 6.4 0 0 1 .431.174c.126.055.247.116.364.186.118.07.219.151.305.245ZM105.195 77.09h-2.024v-.225c.057-.003.14-.01.248-.018a.89.89 0 0 0 .227-.039.313.313 0 0 0 .153-.111.363.363 0 0 0 .047-.199v-3.25a.452.452 0 0 0-.034-.185c-.024-.05-.079-.092-.166-.126a1.668 1.668 0 0 0-.239-.07 1.59 1.59 0 0 0-.236-.04v-.225h2.024v.225c-.065.002-.143.01-.234.024-.09.013-.17.03-.237.052-.081.025-.134.066-.162.123a.426.426 0 0 0-.041.19v3.248c0 .07.015.13.045.185a.318.318 0 0 0 .158.128c.045.018.116.036.217.056.099.02.184.03.254.032v.226ZM109.416 73.82h-.216a1.472 1.472 0 0 0-.103-.271 2.49 2.49 0 0 0-.167-.297 1.565 1.565 0 0 0-.208-.256.412.412 0 0 0-.219-.125 3.091 3.091 0 0 0-.248-.019 7.057 7.057 0 0 0-.276-.006h-.184v3.592c0 .07.014.134.044.193.03.058.081.102.155.134.038.014.118.036.239.06.121.025.216.039.283.04v.226h-2.118v-.225c.059-.004.149-.013.269-.025.121-.013.205-.028.252-.048a.304.304 0 0 0 .152-.118.383.383 0 0 0 .049-.208v-3.62h-.183c-.066 0-.147 0-.243.003-.097.004-.19.01-.279.02a.392.392 0 0 0-.217.126c-.074.075-.143.16-.206.256a2.185 2.185 0 0 0-.269.568h-.224v-1.218h3.917v1.218ZM114 72.827a.733.733 0 0 0-.171.042 1.166 1.166 0 0 0-.334.195 1.8 1.8 0 0 0-.172.215 9.961 9.961 0 0 0-.455.705c-.14.239-.313.541-.521.909-.078.134-.13.243-.155.325a1.259 1.259 0 0 0-.038.358v.857c0 .075.015.141.045.198.031.055.083.1.157.134.043.017.122.036.236.061.112.024.205.038.274.04v.225h-2.099v-.225c.058-.004.147-.012.266-.023.118-.012.2-.028.246-.046a.297.297 0 0 0 .157-.13.432.432 0 0 0 .043-.203v-1.09a.563.563 0 0 0-.062-.186c-.04-.09-.09-.19-.146-.298a54.81 54.81 0 0 0-.821-1.526c-.07-.12-.132-.21-.186-.271a.937.937 0 0 0-.184-.162.671.671 0 0 0-.182-.073 1.28 1.28 0 0 0-.19-.03v-.226h1.913v.225c-.214.005-.366.02-.454.044-.09.026-.133.06-.133.108a.21.21 0 0 0 .019.066c.013.032.031.072.053.12l.097.188.107.204c.098.188.198.375.301.563l.402.727c.332-.534.586-.95.76-1.249.175-.298.262-.477.262-.535a.144.144 0 0 0-.054-.117.394.394 0 0 0-.142-.069 1.047 1.047 0 0 0-.199-.033 8.594 8.594 0 0 1-.199-.017v-.225H114v.225Z" fill="#1A1919"/><path d="m62.81 63.567-.386.039c-.357.106-.748.252-1.157.386-.417.136-1.019.365-1.464.038-.031-.04-.014-.01-.039-.077.399-.425.39-.68 1.003-.964.009-.421.172-.923-.038-1.195.044-.633.79-.325 1.349-.463.343-.083.76-.21 1.04-.385.33-.206.661-.658.81-1.04.062-.158-.01-.48.078-.618v-.308c-.03-.058-.984-.372-1.118-.462-.099-.067-.344-.272-.387-.386-.036-.102.007-.203-.037-.27-.048-.097-.088-.088-.155-.155-.193.018-.249.083-.333.16-.026.023-.075.042-.091.072-.017.03 0 .065 0 .098v.943c-.093.207-.51.329-.694.462-.154.167-.309.334-.462.502-.23-.02-.248-.1-.386-.193-.334-1.56-.478-2.86-1.542-3.662-.256-.194-.453-.578-.771-.694-.113.308-.258.629-.345.941-.02.073.01.136-.01.21-.19.715-.338 1.445-.532 2.202-.046.179-.266 1.152-.23 1.311.166.77.381 1.748.577 2.468.091.335.02.578.116.886.173.56.67 2.006 1.08 2.275.459.302 1.215.445 1.811.193.182-.078.342-.338.462-.386h.579l1.697-.462c.202-.084.703-.354.847-.502.205-.208.22-.62.463-.848.005-.277-.023-.391-.116-.54-.713.017-1.129.24-1.619.424ZM54.29 58.517c-.004-.514.01-1.101-.077-1.504-.073-.333.08-.763-.038-1.04-.354-.833-1.865-1.573-2.7-2.005-.32-.166-.323-.488-.77-.578-.1-.02-.31.204-.309.27-.021.532.383.739.656 1.079.166.207.266.445.423.656.249.328.665.613.81 1.04.236.688.244 2.426.077 3.2v.77c-.025.297-.05.592-.077.889-.216-.082-.356-.296-.578-.387l-.5-.076c-.156-.097-.258-.276-.463-.348-.233-.08-.447.01-.695-.077-.267-.094-.35-.308-.77-.308-.085.012-.246.14-.232.192.056.327.33.489.425.771v.309c.061.243.132.576.192.848.097.44-.187.693-.27.964-.34 1.103-.536 2.216-1.4 2.788a.227.227 0 0 0-.08.084c-.02.034-.025.129-.026.15-.022.635-.119 1.872.465 2.067a.99.99 0 0 0 .058.038c.06.028.58.025.675 0 .207-.106.578-.644.809-.81.348-.248.728-.41 1.08-.655l.192-.23a8.269 8.269 0 0 0 1.002-.85c.04-.019.093-.024.116 0 .03.13.084.419 0 .54-.007.663-.078 1.137.193 1.543.15.005.373.02.462-.039.303-.113.45-.623.579-.926.33-.779.409-1.696.617-2.62l.039-.965c.19-.867.153-1.932.153-2.93l.04-1.195a3.365 3.365 0 0 1-.078-.654Zm-2.005 5.59v.501c-.072.16-.43.286-.578.385-.129.088-.278.244-.424.309-.272.12-.5.125-.732.27-.21.13-.443.326-.656.462-.158.102-.71.323-.964.155l-.115-.039c.028-.414.328-.604.5-.887.339-.552.781-1.006 1.119-1.54l.077-.271c.124-.19.374-.348.463-.578.675.013 1.032-.327 1.156-.85.1.009.13.018.193.04.009.43.014.93 0 1.35-.007.207.049.555-.039.693ZM103.598 56.86c.123.165.343.294.463.462.404.565.509 1.729.732 2.467.693-.006.987-.607 1.311-1.002-.001-.956-.98-2.426-1.542-2.814-.325-.224-.712-.32-1.041-.54-.348-.231-.54-.563-.964-.732-.058-.018-.185.116-.193.154v.617l.424.346c.274.364.54.679.81 1.041Z" fill="#7E181C"/><path d="M111.847 57.939c.599-.776 1.4-1.492 1.773-2.467.107-.28.571-.96.271-1.35-.133-.198-.506-.08-.772-.154-.119-.033-.207-.163-.308-.192-.177-.054-.358.082-.463.115-.486.155-.905.204-1.349.385-.198.08-.761.421-1.002.27l-.117-.038c.042-.74.563-1.177.811-1.773.071-.174.292-.634.153-.849-.021-.345-.379-.583-.578-.77-.063-.053-.353.043-.347.154.015.98-.398 2.044-.963 2.428-.181.122-.337.07-.578.155-.383.133-.786.52-1.234.192-.23 0-.261.037-.386.116.041.384.268.706.578.809.079.043.355.005.54 0-.007.302-.244.561-.424.694 0 .129.011.229.039.309.416.078.494-.14.887-.155-.064.438-.417.645-.617.964-.263.053-.646.09-.887.116-.021.002-.041.03-.038.038.006.294.118.397.308.502-.104.402-.43.683-.656 1.002-.088.125-.346.296-.193.54.052.09.118.096.232.115.388-.373 1.048-.548 1.234-1.118.612.04.611.187.963.425a1.12 1.12 0 0 1-.231.578c-.002.147.006.29.039.385.46-.02 1.149-.627 1.465-.424h.077c-.056.26-.347.267-.54.386-.41.254-.898.418-1.35.655-.61.32-1.286.682-1.85 1.041l-.501.154c-.919.544-1.788 1.216-2.737 1.735-.025.066-.008.038-.039.077a.838.838 0 0 0 .039.27c1.175.245 2.113-.296 2.93-.617 1.101-.431 2.144-1.148 3.045-1.812.293-.216.505-.573.809-.77.238-.155.447-.217.656-.387h.193c-.067.236-.234.33-.347.502l-.116.308-.616.579c-.098.13-.183.326-.309.424-.309.238-.651.465-.886.77-.032.054.021.261.038.386.615-.05.974-.448 1.426-.655.278-.128.581-.154.849-.308.178-.104.269-.31.423-.424.751-.558 1.429-.992 1.273-2.352-.19-.068-.467-.08-.617-.193h-.81c.129-.45.567-.457.81-.771Zm-1.234-.501c-.148.198-.261.436-.385.656a.639.639 0 0 1-.193-.04c-.113-.567-.155-1.002-.346-1.426-.136-.026-.205-.046-.309.039-.228.19-.064.695-.347.925-.112.115-.406-.318-.501-.386.071-.823.864-1.44 1.272-1.966.741.015 1.273.382 1.966.424-.021.912-.753 1.237-1.157 1.774ZM102.364 60.985c.1.227.345.485.424.733.162.03.243.013.424 0 .299-.31.484-.59.579-1.12.081-.456-.85-1.59-1.157-1.695-.076-.052-.251-.044-.385-.04-.06.264.087 1.066.115 1.35v.772ZM109.111 63.22c-.298.388-1.523.366-2.043.579-.713.292-1.473.534-2.197.847-.482.21-.983.498-1.466.694l-.385.078c-.207.086-.432.304-.617.385l-.539.038c-.193.09-.291.277-.425.425.012.69.368.889.54 1.278.034.079-.003.16.078.264.059.063.234.132.346.154.273.056.661-.189.848-.27.722-.311 1.258-.842 1.889-1.233.227-.14.571-.306.81-.386.278-.093.485-.012.732-.116.448-.187.259-.49.925-.27.028.104.093.188.116.27.075.27-.088.598-.038.81.053.23.127.277.115.579-.09.096-.124.266-.231.346-.329.247-.863.346-1.311.463-.306.08-.688-.131-.925.039h-.077c.008.132.018.197.077.27.114.35.33.23.694.346.356.115.737.619 1.35.27.129-.073.176-.258.346-.308.302-.088.579.055.771-.116.182-.09.215-.32.308-.501.083-.158.221-.398.271-.579.072-.263-.069-.503-.116-.654l-.077-.463c-.146-.357-.378-.554-.386-1.08-.005-.06.063-.133.116-.154.43-.104.854-.203 1.426-.192.185-.187.436-.312.578-.54.093-.148.094-.358.193-.501 0-.371-.131-.408-.269-.617-.557-.009-.894-.158-1.427-.154ZM95.155 58.363c.11-.166.111-.31.27-.424.12-.082-.037-.513-.116-.54-1.442-.325-1.566.74-2.313 1.311-.342.262-.73.431-1.08.694h-.076c-.14-.77-.039-1.781-.039-2.622V55.78c.028-.07.16-.156.193-.231.133-.306.074-.796-.077-1.041-.208-.338-.644-.427-.964-.655-.169-.121-.297-.34-.501-.424-.316-.132-.66-.006-.925-.194-.172.027-.23.086-.347.155-.34.886.494 2.134.732 2.776.207.555.214 2.288.078 2.929-.105.484.065 1.206-.194 1.543-.146.201-1.409.628-1.735.77-.27.119-.588.286-.886.386-.33.11-.647.14-.925.309-.43.257-1.114.725-1.581.886l-.424.039c-.198.064-.451.176-.656.231a1.033 1.033 0 0 1-.308.039c-.14-.135-.32-.34-.424-.502-.055-.072-.12-.114-.164-.084-.027 0-.061.036-.068.123-.032 1.199-.12 1.45.425 2.274 1.125.237 1.932-.314 2.66-.809.322-.22.636-.352.964-.578.244-.17.43-.47.694-.617l.347-.077c.505-.2 1.025-.504 1.696-.54-.006 1.273-1.097 2.572-1.889 3.085-.12.076-.248.167-.389.228a9.635 9.635 0 0 0-.42.195l-.31.038a4.607 4.607 0 0 0-.616.386c-.259.192-.224.378-.385.617v.076c2.057-.012 3.33-.911 4.471-1.85.429-.35.959-.66 1.196-1.195.285-.643.389-1.43.578-2.12.04-.27.076-.54.116-.81.113-.201.677-.502.886-.655.203-.147.374-.39.578-.54.412-.304.825-.58 1.234-.887.22-.164.542-.462.694-.693ZM95.232 64.184c-.38-.297-.54-.738-1.234-.732a.39.39 0 0 1-.116.077c-.02.909.1 1.036.348 1.696.026.116.05.231.077.348.092.177.45.585.231.924.043.353.636.481 1.041.347.435-.142.887-.444 1.157-.77-.005-.999-.925-1.436-1.504-1.89ZM73.45 52.233l.155.116c.142.204.31.539.385.771.157.487.2 1.303-.154 1.542-.054.03-.01.39.116.386.613-.076 1.23-.506 1.465-.964 1.065.03 1.655-.279 1.58-1.35-.102-.109-.15-.294-.27-.385a16.112 16.112 0 0 0-1.002-.694c-.152-.099-.345-.098-.5-.193-.546-.333-.99-.674-1.89-.655-.446.527-.17.516.038.963l.077.463ZM72.602 59.288c.29.074.963-.075 1.195-.154.647-.22 1.329-1.364 1.889-1.774.373-.273.796-.675 1.234-.848l.501-.077.501-.54c-.012-.22-.062-.39-.154-.385h-.462c-.2.13-.572.082-.81.154-.438.135-.897.335-1.31.464-.117.012-.232.024-.348.038-1.275.479-2.604 1.03-3.817 1.541-.08.19-.25.483-.077.695.135.383 1.218.773 1.658.886ZM76.457 62.72c-.473 0-.894-.099-1.31.038-.198.065-.289.227-.501.27.04-.25.528-.55.694-.733.133-.148.265-.343.424-.463.133-.1.323-.177.424-.308.068-.089.108-.24.192-.308.064-.013.13-.025.193-.04.098-.089.122-.264.231-.346.325-.241.635-.297.849-.655.042-.076-.037-.237-.116-.309-.255-.203-1.515-.37-1.966-.23-.228.07-.548.206-.733.346l-.192.27-.579.077c-.232.141-.429.419-.655.578-.466.328-.964.604-1.465.887-.218.126-.472-.396-.617-.5-.095-.07-.22-.082-.309-.155-.089.008-.108.007-.153.038-.09.03-.087.04-.155.078-.017.273.106.601.039.886-.151.636-.432 1.802-.193 2.544.038.12.18.27.231.386.063.144.037.285.116.424.111.196.376.26.463.501.336-.066.92-1.13 1.182-1.541 0-.002 0-.004.002-.006.056-.097.049-.16.049-.228v-.961c.127-.033.386-.08.502-.155.184 0 .243.021.346.077-.011.12-.44 1.168-.5 1.234.03.268.204.361.423.424-.066.526-.653.64-1.002.886-.415.293-.872.616-1.31.887-.174.108-.368.124-.54.231-.106.067-.203.206-.309.27-.181.11-.374.114-.54.232-.083.058-.116.198-.23.23-.16.046-.288-.093-.387-.115-.24-.053-.406.112-.578.155-.047.95.368 1.918 1.426 1.927.53-.562 1.109-1.032 1.582-1.658l.5-.424c.114-.167.144-.317.27-.463.047-.053.132-.033.193-.076l.423-.463c.131-.094.254-.102.348-.232.08.016.075.01.115.04.1.134.098.36.194.5.006.344.033.74-.194.849l-.347.076c-.096.072-.128.233-.23.308v.233c.026.052.705.275.809.346.081.056.238.25.27.347v.347c.047.105.236.236.308.347.124.028.385.08.502 0l.115-.038c-.018-1.182-.09-2.265-.424-3.162-.114-.305-.538-.865-.27-1.272 0-.572.394-.41.733-.617.471-.286.982-.56 1.426-.886.172-.127.245-.342.385-.502-.029-.185-.107-.267-.154-.424ZM78.694 65.302c-.404-.552-.831-1.06-1.812-1.04-.07.047-.22.043-.347.038-.193.8-.17 1.443.23 2.043l.31.27c.227.338.355.67.77.81.422.272.92-.256 1.118-.386.057-.225.246-.954.116-1.156-.018-.324-.243-.384-.385-.579Z" fill="#7E181C"/></g><defs><filter id="a" x="-13" y="0" width="154" height="157" filterUnits="userSpaceOnUse" color-interpolation-filters="sRGB"><feFlood flood-opacity="0" result="BackgroundImageFix"/><feColorMatrix in="SourceAlpha" values="0 0 0 0 0 0 0 0 0 0 0 0 0 0 0 0 0 0 127 0" result="hardAlpha"/><feOffset dy="16"/><feGaussianBlur stdDeviation="6.5"/><feColorMatrix values="0 0 0 0 0 0 0 0 0 0 0 0 0 0 0 0 0 0 0.03 0"/><feBlend in2="BackgroundImageFix" result="effect1_dropShadow_49_342"/><feBlend in="SourceGraphic" in2="effect1_dropShadow_49_342" result="shape"/></filter></defs></svg>