<svg width="128" height="128" fill="none" xmlns="http://www.w3.org/2000/svg"><path fill-rule="evenodd" clip-rule="evenodd" d="M95.973 64.1c0 17.868-14.484 32.352-32.352 32.352-17.868 0-32.352-14.484-32.352-32.352 0-17.867 14.484-32.35 32.352-32.35 17.868 0 32.352 14.483 32.352 32.35Z" fill="#fff"/><path fill-rule="evenodd" clip-rule="evenodd" d="M44.754 66.943h14.373s2.427 1.152 3.47 3.642H50.547s.17-1.917-5.792-3.642ZM51.505 72.886h12.01s.725 2.235 1.426 3.001H52.868s-.51-2.17-1.363-3.001ZM74.479 68.84h18.418s-.097 1.926-.83 3.853H73.03s1.214-2.258 1.448-3.853ZM72.202 74.269h19.376s-.283 1.486-1.752 3.876H68.88s2.213-2.024 3.321-3.876ZM53.996 78.428h13.316s1.504 1.363 3.067 1.534h18.566s-1.336 2.327-2.67 3.662H61.378s-5.082-.54-7.382-5.196Z" fill="#273B92"/><path fill-rule="evenodd" clip-rule="evenodd" d="M74.7 66.667h14.114c.084-.835.132-1.681.132-2.537 0-13.977-11.33-25.307-25.306-25.307S38.333 50.153 38.333 64.13c0 .943.056 1.873.156 2.79-.096-.757-.005-1.526-.005-2.307 0-10.036 8.135-18.168 18.17-18.168 10.034 0 18.17 8.132 18.17 18.168 0 .695-.047 1.38-.123 2.054Z" fill="#CB242B"/><path fill-rule="evenodd" clip-rule="evenodd" d="M61.461 85.98c-4.121-.34-6.107-1.985-7.053-3.34-8.218-1.012-14.88-7.51-15.92-15.72 1.39 12.662 12.116 22.516 25.149 22.516 4.655 0 9.013-1.262 12.76-3.456H61.46Z" fill="#273B92"/><path fill-rule="evenodd" clip-rule="evenodd" d="M64 33.103c-17.037 0-30.898 13.859-30.898 30.896 0 17.038 13.86 30.898 30.898 30.898 17.036 0 30.898-13.86 30.898-30.898 0-17.037-13.862-30.896-30.898-30.896Zm0 74.381c-23.978 0-43.485-19.506-43.485-43.484 0-23.979 19.507-43.486 43.485-43.486 23.978 0 43.485 19.507 43.485 43.486 0 23.978-19.507 43.484-43.485 43.484Z" fill="#fff"/><path fill-rule="evenodd" clip-rule="evenodd" d="M64 33.617c-16.752 0-30.381 13.631-30.381 30.384 0 16.752 13.63 30.38 30.382 30.38 16.752 0 30.382-13.628 30.382-30.38 0-16.753-13.63-30.384-30.382-30.384Zm0 61.796C46.68 95.413 32.59 81.32 32.59 64c0-17.321 14.09-31.414 31.412-31.414 17.32 0 31.412 14.093 31.412 31.414 0 17.32-14.091 31.412-31.412 31.412Zm0-74.384c-23.692 0-42.97 19.277-42.97 42.972 0 23.691 19.278 42.969 42.97 42.969 23.694 0 42.971-19.278 42.971-42.97 0-23.694-19.277-42.971-42.97-42.971ZM64 108c-24.26 0-44-19.74-44-44 0-24.262 19.74-44 44-44 24.262 0 44.002 19.738 44.002 44 0 24.26-19.74 44-44.001 44Z" fill="#273B92"/><path fill-rule="evenodd" clip-rule="evenodd" d="M33.758 38.565c.254-.44.408-.502.846-.292.384.183.225.483.178.785-.124.812-.21 1.63-.313 2.446.06.012.119.022.177.031.076-.253.121-.526.243-.758.082-.164.264-.368.412-.375.158-.01.351.165.485.303.218.223.374.516.608.72.837.733 1.695 1.442 2.546 2.162.28.235.36.529.09.788-.322.312-.703.567-1.07.83-.012.008-.243-.207-.224-.245.411-.825-.106-1.246-.677-1.676-.467-.35-.893-.752-1.351-1.113-.116-.09-.329-.19-.428-.142-.156.073-.252.27-.34.46.384-.091.74-.234 1.023.123.28.354-.043.634-.225 1.05.24-.09.362-.15.493-.185.156-.04.339-.12.47-.07.16.055.396.237.388.346-.012.159-.203.316-.342.448-.068.063-.19.066-.351.114.423.354.8.648 1.145.975.126.12.282.366.237.478-.076.194-.279.381-.474.465a.632.632 0 0 1-.547-.073c-.408-.324-.828-.66-1.142-1.068-.483-.627-.882-1.32-1.315-1.985l-.119.031c.014.27.044.541.04.813-.026 1.454-.038 2.912-.1 4.366-.033.813-.505.906-1.268.82-.34-.039-.441-.328-.386-.633.084-.475.23-.937.303-1.412.16-1.054.291-2.112.437-3.168.11-.807.227-1.612.277-2.462-.072.11-.135.223-.214.327-.216.283-.42.58-.672.828-.081.082-.337.094-.433.025-.095-.066-.143-.29-.111-.421.11-.467.271-.921.394-1.383a.758.758 0 0 0-.045-.47c-.081.25-.135.514-.253.745-.222.431-1.02.623-1.315.32-.096-.099-.17-.295-.143-.425.083-.408.198-.812.34-1.201.13-.354.09-.621-.254-.813-.327-.183-.665-.42-.608-.819.056-.394.405-.608.797-.69.157-.032.326-.013.48-.052.215-.055.467-.091.622-.228.19-.168.331-.292.568-.12.225.162.412.34.292.658-.043.116-.102.234-.112.354-.021.282.02.504.41.42.163-.036.344.027.531.048ZM97.143 41.489l.144-.114c.086-.28-.085-.414-.325-.478-.053-.012-.133.084-.202.128l.383.464Zm-.232 2.459c-.088-.432-1.4-1.002-2.107-.98.7.326 1.37.636 2.107.98Zm-.345-1.288c-.02.05-.039.103-.058.154.115.08.23.23.346.23.71.004 1.423-.015 2.132-.06.075-.005.212-.248.19-.35-.074-.327-.685-.486-.881-.22-.315.426-.715.388-1.149.316-.192-.03-.386-.046-.58-.07Zm-1.952.163-1.789-.34c-.402-.077-.824-.096-1.087-.493-.159-.24-.297-.462-.103-.755.186-.283.454-.35.75-.3.712.125 1.416.273 2.099.405.015-.295-.05-.593.063-.793.114-.2.4-.307.616-.445.16-.104.322-.207.498-.282.159-.066.335-.092.503-.135.015.205.054.412.033.613-.015.132-.12.254-.129.408.593-.444 1.257-.81 1.266-1.691.003-.15.294-.297.451-.443.123.147.342.291.348.446.017.378-.085.758-.1 1.14-.006.184.022.467.136.536.147.088.436.077.595-.012.588-.328.828-.331 1.063.084.24.42.089.817-.489 1.126.264.11.482.194.696.288.474.21.558.77.156 1.092-.43.349-.904.487-1.463.332-.462-.127-.522-.064-.459.398.105.748-.129.859-.744.78-.46-.06-.946-.014-1.279-.45-.04-.053-.196-.03-.294-.015-.41.055-.82.121-1.262.188.015.023.06.108.124.171.426.413.422 1.293-.061 1.632-.117.082-.47-.012-.597-.141a4.137 4.137 0 0 1-.663-.945c-.144-.273-.27-.25-.476-.097-.555.408-1.111.812-1.674 1.208-.121.087-.264.174-.404.194-.149.02-.374.015-.447-.075-.089-.11-.08-.32-.068-.485.024-.338.086-.677.116-1.016.018-.192-.008-.389.01-.579.027-.276-.05-.682.346-.682.348.001.305.361.34.642.025.21.15.48.316.577.126.073.394-.07.586-.147.11-.045.2-.145.288-.233.25-.24.247-.44-.096-.593-.45-.203-.907-.393-1.336-.635a1.21 1.21 0 0 1-.48-.517c-.045-.097.13-.429.22-.435.285-.02.606.002.86.123.453.216.857.533 1.3.774.316.172.662.292 1 .438.025-.22-.023-.492.091-.612.12-.126.395-.105.602-.147.008-.033.019-.069.028-.102ZM76.268 30.711c-.433.308-.817.607-1.225.865-.694.438-1.342.252-1.943-.213-.318-.247-.415-.625-.213-.859.26-.297.54-.087.722.078.62.566 1.386.192 1.877-.585-.236.059-.393.084-.541.137-.546.198-.933.007-1.074-.562a1.236 1.236 0 0 1-.017-.53c.07-.35.327-.476.606-.255.42.332.901.276 1.37.314.106.009.24-.065.322-.141.116-.113.217-.252.289-.397.576-1.136 1.135-2.278 1.718-3.41.083-.159.301-.391.397-.366.176.047.381.236.44.41.193.565.19 1.126-.174 1.652-.46.661-.9 1.337-1.338 2.015-.052.08-.088.22-.054.295.032.066.19.126.266.104.29-.084.562-.224.852-.303.194-.054.44-.116.6-.04.233.109.469.292.397.641-.057.276-.182.466-.477.472-.657.017-1.315.023-1.972.024-.472.003-.558.125-.331.528.22.395.453.78.69 1.162.296.475.793.69 1.25.963.156.093.26.276.387.417-.162.133-.305.33-.49.386-.348.108-.72.179-1.083.18a.786.786 0 0 1-.553-.279 2.193 2.193 0 0 1-.408-.835c-.132-.608-.195-1.232-.29-1.868ZM55.036 27.851l-.258.408c.137.031.31.126.398.076.11-.061.147-.247.215-.378a46.23 46.23 0 0 0-.355-.106Zm-1.033-2.712c.222-.207.386-.345.526-.504.04-.045.048-.173.014-.22-.032-.043-.147-.052-.218-.035-.349.08-.4.33-.322.759Zm1.264 3.663c-.691.217-1.573 1.025-1.525 1.384.811-.218 1.539-.863 1.525-1.384Zm-3.61 2.94c.343-.361.307-.784.322-1.16.013-.386-.093-.774-.14-1.164-.143-1.222-.037-2.344.91-3.299.269-.274.282-.85.32-1.295.073-.841.505-1.23 1.327-1.086.282.048.513.021.705-.225.243-.31.556-.295.853-.094.214.145.264.354.07.565l-1.627 1.77c-.053.06-.115.127-.136.2-.09.338.37 1.07.71 1.14.15.03.302.042.454.064.379.053.776.04.925.537.037.125.276.213.439.268a.964.964 0 0 1 .65 1.164c-.157.691-.637 1.156-1.124 1.612-.061.058-.2.033-.304.046-.008-.11-.062-.252-.014-.327.255-.39.573-.75.582-1.25.003-.154-.008-.345-.091-.457-.135-.182-.326-.22-.446.05-.094.215-.196.43-.283.648-.245.615-.742.901-1.338 1.08-.45.135-.892.307-1.349.417-.304.073-.508-.158-.375-.438.209-.44.459-.87.747-1.263.211-.288.37-.523.2-.896-.146-.32-.221-.672-.362-1.12-.114.264-.174.469-.288.642-.085.127-.255.305-.361.29-.354-.052-.39.164-.38.392.026.63.096 1.26.12 1.89.027.704.04 1.41.024 2.114-.01.378-.616.74-1.08.69-.37-.039-.574-.286-.512-.757.16-1.232-.204-2.365-.59-3.498-.12-.343-.27-.673-.385-1.017-.099-.292-.016-.533.302-.626.393-.114.937.144 1.022.552.119.565.149 1.15.207 1.725.06.59.105 1.182.167 1.77.01.1.07.193.129.346Z" fill="#273B92"/><path fill-rule="evenodd" clip-rule="evenodd" d="M49.285 25.877c-.05-.127-.096-.227-.127-.334-.086-.295.055-.424.337-.414.453.017 1.269.777 1.333 1.231.054.375-.17.603-.54.49-.5-.15-.865-.47-1.003-.973ZM30.512 69.766c-.114-.626-.45-1.025-1.007-1.193-.556-.168-1.485-.133-2.785.102-.95.175-1.632.447-2.046.817-.414.37-.569.849-.462 1.432.103.568.406.952.91 1.154.504.203 1.201.22 2.095.059 1.418-.26 2.35-.558 2.799-.9.447-.342.613-.832.496-1.47Zm-7.967 3.758-.25.045-.046-.252c-.163-.895-.13-1.574.102-2.032.233-.46.685-.75 1.36-.872l.146-.027c.003-.681.285-1.294.84-1.839.559-.545 1.27-.895 2.133-1.054.492-.088.953-.1 1.385-.036.43.065.832.207 1.206.425.373.219.672.48.896.782.224.303.37.642.438 1.017.072.402.06.784-.039 1.15a2.858 2.858 0 0 1-.564 1.058c-.278.345-.61.626-.995.845a4.096 4.096 0 0 1-1.299.457c-.86.159-1.647.076-2.36-.244-.713-.321-1.193-.803-1.439-1.447-.029.006-.07.01-.126.016a.937.937 0 0 0-.121.015c-.564.102-.944.304-1.141.609-.197.303-.242.751-.134 1.342l.008.042ZM25.27 75.824l.24-.084.278.797 5.833-2.05-.279-.797.238-.084.904 2.575-.238.084-.286-.816-5.833 2.048.287.816-.24.085-.904-2.574ZM26.924 80.4l.223-.119.357.66L32.942 78l-.352-.65.223-.12.924 1.708-2.854 4.786 3.987-2.155-.36-.664.224-.121.881 1.631-.223.121-.369-.682-5.805 3.137-.126-.232 3.897-6.42-5.334 2.881.359.664-.224.12-.866-1.604ZM35.15 88.751l1.712 2.047-.195.164-.391-.47c-.562.471-1.138.66-1.729.569-.59-.092-1.151-.458-1.685-1.094-.569-.679-.784-1.422-.65-2.228.135-.806.602-1.543 1.396-2.207a4.112 4.112 0 0 1 1.203-.712c.426-.16.862-.238 1.309-.235.442.001.844.084 1.204.249.36.165.673.404.936.72.202.24.356.499.464.775.108.274.167.559.176.854l.513.05.093.11-1.305 1.09-.136-.163c.318-.426.48-.859.487-1.298.007-.441-.142-.846-.451-1.213-.423-.507-.938-.705-1.543-.597-.605.11-1.351.535-2.236 1.276-.86.72-1.388 1.339-1.586 1.855-.197.517-.098 1.013.301 1.489.347.413.7.622 1.065.625.363.001.79-.201 1.283-.615l.18-.148-.61-.73.195-.163ZM36.6 93.824l.155-.2.594.467 3.822-4.86-.594-.468.156-.2 1.985 1.562-.157.2-.594-.469-1.75 2.229 2.266 1.78 1.751-2.226-.594-.468.156-.198 1.985 1.56-.157.2-.59-.464-3.82 4.86.59.464-.158.198-1.984-1.56.156-.199.594.467 1.895-2.41-2.265-1.783-1.895 2.411.593.467-.156.2-1.985-1.56ZM46.376 97.36l1.565.781.441-2.78-2.006 1.999Zm-2.928 1.556.112-.226.712.354 4.986-4.896.226.114-1.039 6.86.627.312-.113.226-2.277-1.133.112-.227.74.368.355-2.22-1.73-.863-1.593 1.606.756.376-.113.227-1.761-.878ZM50.66 102.211l.076-.242.805.258 1.883-5.888-.805-.258.078-.241 2.598.832-.078.24-.823-.262-1.883 5.888.824.264-.078.241-2.598-.832ZM56.327 102.097l.72-4.69-.775-.119.039-.25 2.495.382-.04.25-.765-.117-.711 4.632c-.08.51-.02.918.178 1.222.198.303.525.49.981.561.53.081.958-.023 1.284-.309.325-.287.536-.748.635-1.386l.654-4.256-.757-.116.039-.25 1.813.279-.04.25-.755-.115-.66 4.285c-.117.76-.384 1.297-.802 1.61-.418.312-1.002.413-1.748.297-.642-.099-1.122-.34-1.44-.724-.318-.384-.433-.862-.345-1.436ZM63.493 104.665l-.012-.253.75-.035-.288-6.176-.74.035-.012-.252 1.941-.091 3.072 4.646-.21-4.526-.755.035-.012-.253 1.852-.087.012.254-.775.035.308 6.593-.263.012-4.095-6.296.283 6.056.754-.036.012.254-1.822.085ZM71.462 104.007l-.05-.248.827-.17-1.246-6.056-.828.17-.05-.248 2.673-.549.05.248-.847.174 1.245 6.056.847-.174.051.247-2.672.55ZM78.76 102.2l-4.377-5.415-.695.256-.087-.238 2.395-.886.088.236-.736.273 3.278 4.043-.174-5.193-.862.32-.089-.237 1.795-.666.087.237-.657.244.243 6.948-.21.078ZM83.46 100.034l-.132-.218.648-.39-3.202-5.29-.646.392-.13-.216 4.246-2.57.832 1.374-.183.109c-.33-.397-.647-.616-.956-.658-.308-.042-.716.09-1.224.397l-1.07.648 1.466 2.424.174-.105c.372-.226.594-.452.669-.68.073-.23.024-.52-.15-.871l.178-.11 1.301 2.153-.18.11c-.253-.37-.512-.58-.78-.624-.267-.045-.612.06-1.035.315l-.047.03 1.603 2.648 1.212-.734c.474-.287.76-.6.86-.935.1-.338.042-.807-.17-1.411l.191-.115.895 1.682-4.37 2.645ZM88.698 91.909l.438-.399c.507-.46.78-.844.819-1.148.037-.306-.119-.653-.47-1.04-.328-.36-.626-.544-.893-.55-.267-.006-.615.184-1.04.573l-.648.59 1.794 1.974Zm1.047 3.796.588-.534-4.158-4.576-.56.509-.169-.19 2.093-1.9c.552-.501 1.063-.792 1.537-.873.473-.08.867.05 1.18.399.312.342.429.74.351 1.195-.078.454-.34.902-.786 1.348l.054.058c.419-.262.826-.403 1.224-.42.396-.016.739.095 1.028.329.152.121.353.316.603.581.252.267.442.434.573.497a.503.503 0 0 0 .313.069.56.56 0 0 0 .293-.155.923.923 0 0 0 .162-.19c.05-.075.094-.16.133-.254l.171.188c-.075.163-.159.31-.249.442a1.987 1.987 0 0 1-.29.338c-.316.286-.659.377-1.03.278-.374-.1-.815-.406-1.326-.919a.522.522 0 0 0-.05-.048c-.364-.371-.687-.57-.964-.595-.2-.02-.4.01-.6.083-.2.075-.383.187-.553.34l-.438.399 2.186 2.405.573-.52.171.187-1.89 1.717-.17-.188ZM95.912 90.068l-.107.14-1.394-1.074.118-.155c.49.177.953.216 1.389.119a1.761 1.761 0 0 0 1.046-.658c.293-.381.422-.794.384-1.239a1.433 1.433 0 0 0-.571-1.063c-.405-.31-1.036-.165-1.895.436-.066.048-.117.086-.152.108-.737.512-1.304.793-1.703.841-.399.049-.793-.078-1.181-.376-.437-.336-.681-.751-.735-1.249-.054-.498.094-.976.448-1.435.263-.342.603-.589 1.018-.74a.452.452 0 0 0 .13-.059.173.173 0 0 0 .019-.05.144.144 0 0 0-.003-.056l-.074-.3.13-.17 1.214.933-.111.145c-.473-.157-.89-.19-1.255-.102-.363.092-.675.303-.933.64-.235.305-.342.63-.322.977.02.35.159.62.418.821.214.165.453.222.714.165.26-.054.579-.226.955-.517.054-.043.136-.106.249-.192.631-.483 1.097-.768 1.399-.849.267-.07.535-.073.803-.01.27.063.531.19.783.384.549.424.86.922.937 1.496.077.575-.097 1.138-.522 1.689a2.369 2.369 0 0 1-1.133.815.457.457 0 0 0-.122.053c-.006.006-.009.02-.01.037a.29.29 0 0 0 .001.062l.068.433ZM99.413 85.172l-.22-.126.422-.732-5.356-3.088-.422.731-.22-.127 1.364-2.363.218.127-.431.749 5.355 3.088.432-.75.221.128-1.363 2.363ZM102.121 80.04l-.235-.092.315-.786-5.734-2.299c-.02.04-.037.08-.057.122-.02.042-.045.105-.078.189-.175.436-.195.806-.058 1.11.138.305.48.638 1.033 1l-.084.206-1.765-.803 1.92-4.79 1.827.653-.084.208c-.603-.145-1.07-.15-1.4-.015-.33.135-.59.438-.779.907l-.067.177a1.92 1.92 0 0 0-.033.1l5.732 2.304.307-.766.236.094-.996 2.482ZM104.485 72.98l-.249-.049.173-.853-2.837-.574-3.606 1.247-.146.715-.248-.05.538-2.654.249.05-.17.837 3.207-1.082-2.558-2.126-.197.977-.25-.05.416-2.044.247.049-.153.756 2.884 2.373 2.828.573.172-.853.249.05-.549 2.709Z" fill="#273B92"/></svg>