<?xml version="1.0" encoding="UTF-8"?>
<svg xmlns="http://www.w3.org/2000/svg" version="1.1" viewBox="0 0 128 46.9">
  <defs>
    <style>
      .cls-1 {
        fill: #fff;
      }

      .cls-1, .cls-2, .cls-3 {
        fill-rule: evenodd;
      }

      .cls-2 {
        fill: #273b92;
      }

      .cls-3 {
        fill: #cb242b;
      }
    </style>
  </defs>
  <!-- Generator: Adobe Illustrator 28.7.1, SVG Export Plug-In . SVG Version: 1.2.0 Build 142)  -->
  <g>
    <g id="_图层_1" data-name="图层_1">
      <path class="cls-2" d="M68.9,15c-.2-.2-.3-.5-.5-.7-.5-.4-.3-.6,0-.9.2-.1.3-.2.5-.2.5-.2.5-.6.5-1,0-.4-.3-.5-.7-.5-.3,0-.6-.3-.9-.5-.2-.1-.3-.4-.5-.5-.5-.4-1.1-.6-1.6-.3-.5.3-.5,1-.4,1.5.1.6-.2.9-.7,1.1-.6.2-1.2.5-1.7.8-.2,0-.3.4-.4.6,0,.6.9,1.4,1.7,1.2.4,0,.7-.3,1.1-.4-.1.2-.3.4-.5.5-.7.3-1.3.6-2,.9-.2,0-.4.4-.4.5,0,.2.3.5.5.5.5,0,1.1,0,1.6,0,.2,0,.4,0,.6,0-1,.8-2.1,1.4-3.2,2.1-1.4.9-2.7,1.8-4.1,2.6-.6.4-1.3.7-1.9,1-.4.2-.7.6-.4,1.1.6,1,1.2,1.4,2.2.7,1.8-1.4,3.5-2.8,5.2-4.2.3-.3.6-.6.9-.8h.2c-.3,1.3-.8,2.4-1,3.6-.2.8-.1,1.6-.1,2.4,0,.2.2.6.5.7.3.1.7.2,1,0,.2,0,.3-.5.3-.7,0-.7,0-1.5,0-2.3.2.1.3.3.5.3.3,0,.7.1.9,0,.1,0,.1-.6,0-.8,0-.2-.3-.3-.5-.5-.2-.1-.4-.2-.7-.4.7-.2,1.3,0,1.4-.8.1-.7-.4-1-.9-1.3.3,0,.6-.2.9,0,.2,0,.2.4.3.6,0,.9,0,1.8,0,2.7,0,1.1,0,2.1-1.3,2.4,0,0,0,.5,0,.5.7.2,1.3.4,2,.4.6,0,.8-.3.8-.9,0-1.7,0-3.4,0-5.1,0-.5.2-.9.2-1.4,0-.3,0-.7-.1-.9-.2-.2-.6-.2-.8-.1-.4,0-.8.3-1.1.5v-.2c.9-.7,2-1.4,3-2,.4-.2.9-.4.7-1-.2-.7-.4-.8-1.2-.7h0ZM93.5,22c.6.8,1,1.7,1.6,2.4.3.4.7.7,1.1.9.3.1.7.2,1,0,.5-.2,1-.6,1.4-1,.2-.2.3-.6.4-.9-.3-.1-.5-.3-.8-.3-.8,0-1.7,0-2.4-.5-.6-.4-1.2-.8-1.7-1.2-.6-.4-.5-.6.1-1,.9-.4,1.8-.9,2.7-1.3.4-.2.5-.6.4-1-.1-.5-.6-.6-1-.6s-.6.2-.8.5c-.4.3-.6.7-1,1,0,0-.4.1-.4,0,0,0-.1-.3-.1-.4.2-1.2.3-2.5.5-3.7.2-1-.2-1.8-.8-2.4-.2-.2-.6-.3-.9-.3-.2,0-.3.5-.3.8,0,2-.1,3.9-.2,5.9,0,.2,0,.5-.1.7,0,.2-.2.4-.4.4-.7.3-1.3.7-2.1.5-.5-.1-.8.2-.7.8,0,.3.2.5.4.7.6.7,1.2.7,1.9,0,.2-.2.4-.3.7-.5-.2,1.4-1,2.4-2.2,2.1-.4-.1-.9-.2-1.1.4-.1.5.3.9.9,1.1,1.1.3,2.2,0,2.9-1,.4-.6.7-1.3,1.1-2h0Z"/>
      <path class="cls-2" d="M68.9,15c.8-.1,1,0,1.2.7.2.6-.3.7-.7,1-1.1.7-2.1,1.4-3.2,2v.2c.5-.2.9-.4,1.3-.5.3,0,.7,0,.8.1.2.2.2.6.1.9,0,.5-.2.9-.2,1.4,0,1.7,0,3.4,0,5.1,0,.6-.3.9-.8.9-.7,0-1.4-.3-2-.4,0,0,0-.5,0-.5,1.4-.3,1.4-1.3,1.3-2.4,0-.9,0-1.8,0-2.7,0-.2,0-.6-.3-.6-.2-.1-.6,0-.9,0,.5.4,1,.6.9,1.3-.1.7-.8.6-1.4.8.3.2.5.3.7.4.2.1.5.3.5.5,0,.2.1.7,0,.8-.2.1-.6,0-.9,0-.1,0-.3-.2-.5-.3,0,.8,0,1.6,0,2.3,0,.3-.2.7-.3.7-.3,0-.7,0-1,0-.2-.1-.4-.5-.5-.7,0-.8,0-1.6.1-2.4.3-1.2.7-2.3,1-3.5h-.2c-.3.2-.6.5-.9.7-1.7,1.4-3.4,2.8-5.2,4.2-1,.8-1.6.3-2.2-.7-.3-.4,0-.8.4-1.1.6-.4,1.3-.7,2-1,1.4-.8,2.8-1.7,4.1-2.6,1.1-.7,2.1-1.3,3.2-2.1-.2,0-.4,0-.6,0-.5,0-1.1,0-1.6,0-.2,0-.4-.3-.5-.5,0-.2.2-.5.4-.5.7-.3,1.3-.6,2-.9.2,0,.4-.3.5-.5-.4.1-.7.3-1.1.4-.7.2-1.7-.6-1.7-1.2,0-.2.2-.5.4-.6.6-.3,1.1-.6,1.7-.8.5-.2.8-.5.7-1.1-.1-.6-.2-1.2.4-1.5.5-.3,1.1-.1,1.6.3.2.2.3.4.5.5.3.2.6.5.9.5.4,0,.7.1.7.5,0,.4,0,.8-.5,1-.2,0-.4.1-.5.2-.3.2-.6.5,0,.9.2.2.3.4.5.7h0ZM108.5,15.1v-.3c-.3-.4-.6-.3-.9,0,0,0,0,.2,0,.4,0,0,.9,0,.9,0ZM111.4,17.6c-.6-.3-2.5.9-3.1,1.8l3.1-1.8ZM108.5,17.7c-1.4,0-1.9,1.2-2.7,2,.5,0,2.7-1.6,2.7-2ZM109.4,16.9v.2c.3,0,.6,0,.7-.2.6-.9,1.3-1.8,1.8-2.7,0,0-.1-.5-.3-.5-.5-.2-1.2.4-1.1.9.3.8-.2,1.2-.6,1.7-.2.2-.4.4-.6.7ZM107.9,19.5c-.7.6-1.3,1.3-2,1.9-.5.4-.9.9-1.6.9-.4,0-.8,0-1-.5-.2-.5,0-.9.3-1.2.8-.8,1.6-1.5,2.4-2.3-.4-.3-.8-.5-.9-.8-.2-.3,0-.8,0-1.2,0-.3,0-.6,0-.9,0-.3.2-.5.3-.8.3.2.6.3.8.5.2.1.2.4.4.5,0-1.1.1-2.3-1-3.1-.2-.1-.1-.6-.2-1,.3,0,.7-.2.9,0,.5.3.9.8,1.3,1.1.2.2.6.4.8.3.2-.1.5-.5.5-.8.1-1,.3-1.3,1.1-1.3.7,0,1.1.6,1,1.6.4-.2.7-.4,1-.6.7-.4,1.5,0,1.5.8,0,.8-.2,1.6-.9,2.1-.6.5-.5.6,0,.9,1,.5,1,.9.3,1.6-.5.5-.9,1.2-1.7,1.2,0,0-.2.2-.3.4-.3.6-.6,1.1-.9,1.8,0,0,.2,0,.3,0,.9-.2,2,.6,2,1.5,0,.2-.4.6-.7.6-.6,0-1.2,0-1.8,0-.5,0-.6.1-.6.5,0,1.1,0,2.1,0,3.2,0,.2,0,.5-.1.7-.1.2-.3.5-.5.5-.2,0-.5-.2-.7-.3-.4-.3-.8-.7-1.2-1.1-.2-.2-.5-.3-.7-.5-.3-.3-.9-.5-.5-1,.3-.4.7,0,1.1.2.3.2.7.2,1,.1.2,0,.3-.6.3-.9,0-.2,0-.4,0-.6,0-.5-.3-.7-.8-.4-.7.4-1.3.8-2,1.1-.3.2-.7.2-1.1.1-.2,0-.4-.5-.3-.7.2-.4.5-.8.9-1,.7-.4,1.4-.6,2.1-.9.5-.2,1-.6,1.4-.9-.3-.2-.6-.4-.7-.7,0-.3.2-.6.4-.9,0,0-.1-.1-.1-.1ZM81.8,20.9l-.6.4c.2.1.4.3.5.3.2,0,.3-.3.5-.4-.1,0-.3-.2-.4-.3ZM81.8,16.5c.4-.2.7-.3,1-.4,0,0,.2-.2.1-.3,0,0-.2-.2-.3-.2-.5,0-.8.3-.9.9ZM81.6,22.4c-1.1,0-2.8.6-2.9,1.1,1.3.1,2.7-.4,2.9-1.1ZM74.8,24.6c.7-.3.9-.9,1.1-1.5.2-.5.3-1.2.4-1.7.5-1.8,1.2-3.4,3.1-4.2.5-.2.9-1.1,1.2-1.7.6-1.2,1.4-1.5,2.5-.8.4.2.7.3,1.1,0,.5-.3,1-.1,1.3.3.2.3.2.6-.2.8-1.1.5-2.2,1.1-3.3,1.6-.1,0-.2.1-.3.2-.3.4,0,1.7.4,2,.2.1.4.2.6.3.5.3,1.1.5,1,1.3,0,.2.3.5.5.6.6.5.7,1.3.3,2-.6.9-1.5,1.3-2.5,1.7-.1,0-.3,0-.5-.1,0-.2,0-.4.2-.5.6-.4,1.2-.8,1.5-1.5,0-.2.2-.5.1-.7,0-.3-.3-.5-.7-.2-.3.3-.5.5-.8.8-.7.7-1.6.9-2.5.8-.7,0-1.4,0-2.2-.1-.5,0-.6-.5-.3-.8.5-.5,1.1-1,1.8-1.4.5-.3.8-.5.8-1.2,0-.5,0-1.1.1-1.8-.3.3-.5.6-.8.8-.2.1-.5.3-.7.2-.5-.3-.6,0-.8.3-.3.9-.6,1.8-.9,2.8-.3,1-.7,2-1.1,3-.2.5-1.3.7-1.9.4-.5-.3-.7-.7-.3-1.4.9-1.7,1-3.5,1.1-5.3,0-.6,0-1.1,0-1.7,0-.5.3-.8.8-.7.6,0,1.3.7,1.2,1.3-.1.9-.4,1.7-.7,2.6-.2.9-.5,1.7-.7,2.6,0,.1,0,.3,0,.6h0ZM93.5,22c-.4.7-.7,1.4-1.1,2-.7,1.1-1.7,1.2-2.9,1-.6-.1-1-.6-.9-1.1.2-.6.7-.5,1.1-.4,1.2.4,2.1-.6,2.2-2-.3.2-.5.4-.7.5-.6.6-1.3.6-1.9,0-.2-.2-.3-.5-.4-.7-.1-.5.1-.9.7-.8.8.2,1.4-.2,2.1-.5.2,0,.3-.2.4-.4,0-.2.1-.5.1-.7,0-2,0-3.9.2-5.9,0-.3.2-.7.3-.8.3,0,.7,0,.9.3.6.7,1,1.4.8,2.4-.2,1.2-.4,2.5-.5,3.7,0,.1,0,.4.1.4,0,0,.3,0,.4,0,.3-.3.6-.7,1-1,.2-.2.5-.5.8-.5.4,0,.8.1,1,.6.1.4,0,.8-.4,1-.9.5-1.8.9-2.7,1.3-.7.3-.7.5-.1,1,.6.4,1.1.8,1.7,1.2.7.5,1.6.4,2.4.5.3,0,.5.2.8.3-.1.3-.2.7-.4.9-.4.4-.9.7-1.4,1-.3.1-.7.1-1,0-.4-.2-.8-.5-1.1-.9-.6-.8-1.1-1.6-1.6-2.4h0ZM58.4,35.9h.1c0,.2.1.3.1.4,0,0,0,.1.1.2,0,0,.1,0,.2.1,0,0,0,0,.1,0,0,0,0,0,.1,0,.1,0,.2,0,.3,0,0,0,.2,0,.2-.2v.2c0,.2-.2.3-.3.3-.2.1-.4.1-.7,0,0,0-.1,0-.2-.1,0,0-.2-.1-.2-.2-.1-.1-.2-.3-.3-.4l-.2-.3c-.5,0-.8-.2-1.1-.5-.2-.3-.4-.8-.4-1.4s0-.8.2-1.1c.1-.3.3-.5.6-.7.2-.2.5-.2.8-.2s.6,0,.9.2c.2.2.4.4.5.7.1.3.2.7.2,1.1s0,1-.3,1.3c-.2.3-.5.6-.8.7ZM57,33.9c0,.6,0,1,.3,1.4.2.3.4.5.8.5s.4,0,.5-.2c.1-.1.3-.3.3-.6,0-.3.1-.6.1-.9s0-.8-.1-1c0-.3-.2-.5-.4-.6-.1-.1-.3-.2-.5-.2-.2,0-.3,0-.4.1-.1,0-.2.2-.3.3,0,.2-.1.3-.2.5,0,.2,0,.4,0,.7h0ZM61.1,35.2c0,.1,0,.2,0,.3s0,.1,0,.1c0,0,0,0,0,0,0,0,.1,0,.2,0h0c0,.1-1.2.1-1.2.1h0c.1-.2.2-.2.2-.2,0,0,0,0,0-.2,0,0,0-.2,0-.3v-2.5c0-.1,0-.2,0-.3,0,0,0,0,0-.1,0,0,0,0,0,0,0,0-.1,0-.2,0h0c0-.1,1.2-.1,1.2-.1h0c0,.2-.1.2-.2.2,0,0,0,0,0,0,0,0,0,0,0,.1,0,0,0,.2,0,.3,0,0,0,2.5,0,2.5ZM64.5,34.4c.1.2.2.4.3.6h0c0-.1,0-.4,0-.7s0-.7,0-.9v-.6c0-.1,0-.2,0-.3,0,0,0,0,0-.1,0,0,0,0,0,0,0,0-.1,0-.2,0h0c0-.1,1-.1,1-.1h0c0,.2-.1.2-.2.2,0,0,0,0,0,0,0,0,0,0,0,.1,0,.1,0,.2,0,.3v3.2h-.4l-1.6-2.7c0-.2-.2-.3-.2-.4,0,0,0-.2-.1-.2h0c0,.1,0,.4,0,.8,0,.4,0,.8,0,1.2v.6c0,.1,0,.2,0,.3,0,0,0,.1,0,.1,0,0,0,0,0,0,0,0,.1,0,.2,0h0c0,.1-1.1.1-1.1.1h0c.1-.2.2-.2.2-.2,0,0,0,0,0-.2,0,0,0-.2,0-.3v-2.5c0-.1,0-.2,0-.3,0,0,0,0,0-.1,0,0,0,0,0,0,0,0-.1,0-.2,0h0c0-.1.9-.1.9-.1,0,0,1.4,2.4,1.4,2.4ZM69,35.9h-.2c0,0-.2-.2-.2-.2-.1,0-.3.1-.4.2-.2,0-.3,0-.5,0-.5,0-.9-.2-1.1-.5-.2-.3-.4-.8-.4-1.5s0-.8.2-1.1c.1-.3.3-.6.6-.7.3-.2.6-.2.9-.2.4,0,.7,0,1.1.1v.8h-.3c0-.1-.1-.3-.2-.4,0,0-.2-.2-.3-.2-.1,0-.2,0-.4,0-.2,0-.4,0-.6.2-.2.1-.3.3-.4.6,0,.3-.1.6-.1,1,0,.4,0,.7.1,1,0,.3.2.5.3.6.1.1.3.2.5.2.2,0,.4,0,.5-.2s.2-.3.2-.5v-.2c0-.2,0-.3,0-.4,0,0,0-.1,0-.2,0,0-.1,0-.2-.1h0c0-.1,1.2-.1,1.2-.1h0c0,.2-.1.2-.2.2,0,0,0,0,0,.1,0,0,0,.1,0,.2,0,0,0,.2,0,.3,0,0,0,1,0,1ZM72.9,35.2c0,.1,0,.2,0,.3,0,0,0,0,0,.1,0,0,0,0,0,0,0,0,0,0,0,0,0,0,.1,0,.2,0h0c0,.1-1.2.1-1.2.1h0c0-.2.2-.2.2-.2,0,0,0,0,0-.2,0,0,0-.2,0-.3v-1.2h-1.6v1.2c0,.1,0,.2,0,.3,0,0,0,.1,0,.1,0,0,0,0,0,0,0,0,.1,0,.2,0h0c0,.1-1.2.1-1.2.1h0c.1-.2.2-.2.2-.2,0,0,0,0,0-.2,0,0,0-.2,0-.3v-2.5c0-.1,0-.2,0-.3,0,0,0,0,0-.1,0,0,0,0,0,0,0,0-.1,0-.2,0h0c0-.1,1.2-.1,1.2-.1h0c0,.2-.1.2-.2.2,0,0,0,0,0,0,0,0,0,0,0,.1,0,0,0,.2,0,.3v1h1.6v-1c0-.2,0-.3,0-.3,0,0,0-.1,0-.1,0,0-.1,0-.2,0h0c0-.1,1.2-.1,1.2-.1h0c0,.2-.2.2-.2.2,0,0,0,0,0,.2,0,0,0,.2,0,.3v2.5h0ZM75.9,36h0c0-.2.1-.2.2-.2,0,0,0,0,.1,0,0,0,0-.1,0-.2,0,0,0-.1,0-.2,0,0,0-.2,0-.3v-.4h-1.5v.3c-.1.1-.2.2-.2.3,0,0,0,.1,0,.2,0,.1,0,.2,0,.3s.1,0,.3.1h0c0,.1-1.2.1-1.2.1h0c.1-.2.2-.2.3-.3,0-.1.2-.3.2-.5l1.2-3.2h.5l1,3.2c0,.2,0,.3.1.3,0,0,0,.1.1.2,0,0,.1,0,.2,0h0c0,.1-1.3.1-1.3.1h0ZM74.8,34.4h1.2l-.6-1.9-.7,1.9h0ZM78.5,35.2c0,.1,0,.2,0,.3,0,0,0,0,0,.1,0,0,0,0,0,0,0,0,.1,0,.2,0h0c0,.1-1.2.1-1.2.1h0c.1-.2.2-.2.2-.2,0,0,0,0,0-.2,0,0,0-.2,0-.3v-2.5c0-.1,0-.2,0-.3,0,0,0,0,0-.1,0,0,0,0,0,0,0,0-.1,0-.2,0h0c0-.1,1.2-.1,1.2-.1h0c0,.2-.1.2-.2.2,0,0,0,0,0,0,0,0,0,0,0,.1,0,0,0,.2,0,.3v2.5ZM85.1,34.6c0,.2,0,.4,0,.5,0,.1,0,.3-.2.4,0,.1-.2.2-.3.3,0,0-.2.1-.4.2-.1,0-.3,0-.5,0-.2,0-.4,0-.6,0-.2,0-.3-.1-.4-.3-.1-.1-.2-.3-.2-.4,0-.2,0-.4,0-.6v-1.9c0-.2,0-.3,0-.3,0,0,0,0,0-.1,0,0,0,0,0,0,0,0-.1,0-.2,0h0c0-.1,1.2-.1,1.2-.1h0c0,.2-.2.2-.2.2,0,0,0,0,0,.2,0,.1,0,.2,0,.3v2.1c0,.2,0,.3,0,.5,0,.1,0,.2.2.3,0,0,.2.1.3.2,0,0,.2,0,.4,0,.1,0,.2,0,.4,0,.1,0,.2-.1.3-.2,0-.1.1-.2.1-.4,0-.1,0-.3,0-.6v-1.8c0-.1,0-.2,0-.3,0,0,0-.1,0-.1,0,0-.2,0-.2,0h0c0-.1,1.2-.1,1.2-.1h0c0,.2-.2.2-.2.2,0,0,0,0,0,.2,0,.1,0,.2,0,.3v1.9h0ZM88.3,34.4c.1.2.2.4.3.6h0c0-.2,0-.5,0-.7,0-.3,0-.7,0-.9v-.6c0-.1,0-.2,0-.3,0,0,0,0,0-.1,0,0,0,0,0,0,0,0-.1,0-.2,0h0c0-.1,1-.1,1-.1h0c0,.2-.1.2-.2.2,0,0,0,0,0,0,0,0,0,0,0,.1,0,.1,0,.2,0,.3v3.2h-.4l-1.6-2.7c0-.2-.2-.3-.2-.4,0,0,0-.2-.1-.2h0c0,.1,0,.4,0,.8,0,.4,0,.8,0,1.2v.6c0,.1,0,.2,0,.3,0,0,0,0,0,.1,0,0,0,0,0,0,0,0,.1,0,.2,0h0c0,.1-1.1.1-1.1.1h0c.1-.2.2-.2.2-.2,0,0,0,0,0-.2,0,0,0-.2,0-.3v-2.5c0-.1,0-.2,0-.3,0,0,0,0,0-.1,0,0,0,0,0,0,0,0-.1,0-.2,0h0c0-.1.9-.1.9-.1,0,0,1.4,2.4,1.4,2.4ZM90.9,35.2c0,.1,0,.2,0,.3,0,0,0,.1,0,.1,0,0,0,0,0,0,0,0,.1,0,.2,0h0c0,.1-1.2.1-1.2.1h0c.1-.2.2-.2.2-.2,0,0,0,0,0-.2,0,0,0-.2,0-.3v-2.5c0-.1,0-.2,0-.3,0,0,0,0,0-.1,0,0,0,0,0,0,0,0-.1,0-.2,0h0c0-.1,1.2-.1,1.2-.1h0c0,.2-.1.2-.2.2,0,0,0,0,0,0,0,0,0,0,0,.1,0,0,0,.2,0,.3v2.5ZM93,32h0c0,.2-.1.2-.2.2,0,0,0,0-.1,0,0,0,0,.1,0,.2,0,0,0,.1,0,.2,0,0,0,.2,0,.3l.7,2.4.8-2.4c0,0,0-.2,0-.2,0,0,0-.1,0-.2,0-.1,0-.2,0-.3s-.1,0-.3-.1h0c0-.1,1.2-.1,1.2-.1h0c0,.2-.1.2-.2.2,0,0-.1.1-.1.2,0,0-.1.2-.2.4l-1.2,3.2h-.4l-1-3.2c0-.1,0-.3-.1-.4,0,0,0-.1-.1-.2,0,0-.1,0-.2,0h0c0-.1,1.3-.1,1.3-.1h0ZM98.3,32v.9h-.3c0,0,0-.2,0-.2,0,0,0-.1,0-.2,0,0,0,0-.1-.1,0,0,0,0-.1,0,0,0-.1,0-.2,0h-.9v1.5h.6c0,0,.1,0,.2,0,0,0,0,0,.1-.1,0,0,0-.1,0-.3h.3v1.1h-.3c0,0,0-.2,0-.3,0,0,0,0-.1-.1,0,0-.1,0-.2,0h-.6v1.7h.9c0,0,.2,0,.2,0,0,0,.1,0,.2,0,0,0,0,0,.1-.2,0,0,0-.1,0-.2,0,0,0-.2,0-.3h.3v1h-2.7c.1-.2.2-.2.2-.2,0,0,0,0,0-.2,0,0,0-.2,0-.3v-2.5c0-.1,0-.2,0-.3,0,0,0,0,0-.1,0,0,0,0,0,0,0,0-.1,0-.2,0h0c0-.1,2.7-.1,2.7-.1h0ZM99.8,34.2v1c0,.1,0,.2,0,.3,0,0,0,.1,0,.1,0,0,0,0,0,0,0,0,0,0,.2,0h0c0,.1-1.2.1-1.2.1h0c.1-.2.2-.2.2-.2,0,0,0,0,0-.2,0,0,0-.2,0-.3v-2.5c0-.1,0-.2,0-.3,0,0,0,0,0-.1,0,0,0,0,0,0,0,0-.1,0-.2,0h0c0-.1,1.4-.1,1.4-.1.5,0,.8,0,1,.2s.3.4.3.8,0,.5-.2.7c-.1.2-.4.3-.7.4h0c.1,0,.2.1.3.2,0,0,.2.2.3.4l.3.5c0,.1.1.2.2.3,0,0,.1.1.2.2,0,0,.1,0,.2,0h0c0,.1-.8.1-.8.1,0-.1-.1-.2-.2-.3,0-.1-.1-.2-.2-.4l-.3-.5c0-.1-.1-.2-.2-.3,0,0,0-.1-.1-.1,0,0,0,0-.1,0,0,0-.1,0-.2,0h-.3,0ZM99.8,32.3v1.7h.3c.2,0,.3,0,.4,0,.2,0,.4-.2.5-.4,0-.1,0-.3,0-.4,0-.2,0-.3,0-.5,0-.1-.2-.2-.3-.3-.1,0-.3,0-.5,0-.1,0-.3,0-.4,0h0ZM102.8,35.1c0,.2,0,.3.2.4,0,0,.2.2.3.2.1,0,.3,0,.4,0,.2,0,.4,0,.5-.2.1-.1.2-.3.2-.5,0-.1,0-.3,0-.4,0-.1-.1-.2-.2-.3-.2-.1-.3-.2-.5-.3-.2,0-.4-.2-.5-.3-.1,0-.2-.2-.3-.3,0-.1,0-.3,0-.4,0-.2,0-.4.2-.6.1-.2.3-.3.4-.4.2,0,.4-.1.7-.1.1,0,.3,0,.4,0,.1,0,.3,0,.5.1v.8h-.3c0-.2,0-.3-.2-.4,0,0-.1-.2-.2-.2-.1,0-.2,0-.4,0-.1,0-.2,0-.3,0,0,0-.2.1-.2.2,0,.1,0,.2,0,.3,0,.1,0,.2,0,.3,0,0,.1.2.2.3.1,0,.3.2.5.3.2.1.4.2.6.3.1.1.2.2.3.4,0,.1.1.3.1.5,0,.2,0,.4,0,.5,0,.1-.1.3-.3.3-.1,0-.3.2-.4.2-.2,0-.3,0-.5,0-.3,0-.7,0-1-.2v-.8h.3ZM106.4,35.2c0,.1,0,.2,0,.3,0,0,0,0,0,.1,0,0,0,0,0,0,0,0,.1,0,.2,0h0c0,.1-1.2.1-1.2.1h0c0-.2.2-.2.2-.2,0,0,0,0,0-.2,0-.1,0-.2,0-.3v-2.5c0-.1,0-.2,0-.3,0,0,0,0,0-.1,0,0,0,0,0,0,0,0-.1,0-.2,0h0c0-.1,1.2-.1,1.2-.1h0c0,.2-.1.2-.2.2,0,0,0,0,0,0,0,0,0,0,0,.1,0,0,0,.2,0,.3,0,0,0,2.5,0,2.5ZM107.3,32h3.1v1h-.3c0-.1,0-.3-.1-.4,0,0,0-.2-.1-.2,0,0,0,0-.2-.1,0,0-.2,0-.2,0h-.4v3c0,.1,0,.2,0,.3,0,0,0,.1,0,.2,0,0,0,0,.1,0,0,0,.1,0,.2,0h0c0,.1-1.3.1-1.3.1h0c0-.2.1-.2.2-.2,0,0,0,0,.1,0,0,0,0,0,0,0,0,0,0,0,0-.1,0,0,0-.2,0-.3v-3h-.4c0,0-.2,0-.2,0,0,0-.1,0-.2.1,0,0-.1.1-.1.2,0,.1,0,.2-.1.4h-.3v-1h0ZM112,34.3l-.8-1.5c0-.1-.1-.3-.2-.4,0,0,0-.1-.2-.2,0,0-.1,0-.2,0h0c0-.1,1.2-.1,1.2-.1h0c-.2.2-.3.2-.3.4s0,.1,0,.2c0,0,0,.2.1.3l.6,1.1.6-1c0-.1.1-.2.2-.3,0,0,0-.2,0-.2,0,0,0-.1,0-.2,0,0-.1,0-.2,0h0c0-.1,1.1-.1,1.1-.1h0c0,.2-.1.2-.2.3,0,0-.1.1-.2.2,0,.1-.2.3-.3.4l-.8,1.4v.9c0,.1,0,.2,0,.3,0,0,0,.1,0,.2,0,0,0,0,.1,0,0,0,.1,0,.2,0h0c0,.1-1.3.1-1.3.1h0c0-.2.1-.2.2-.2,0,0,0,0,.1,0,0,0,0-.1,0-.2,0,0,0-.2,0-.3v-.9h0ZM74.5,14.9c0-.2-.1-.3-.2-.5-.1-.4,0-.6.5-.6.7,0,1.9,1.2,2,1.9,0,.6-.3.9-.8.7-.8-.2-1.3-.7-1.5-1.5Z"/>
      <path class="cls-1" d="M44.7,23.3c0,7.2-5.8,13.1-13.1,13.1s-13.1-5.8-13.1-13.1,5.8-13.1,13.1-13.1,13.1,5.8,13.1,13.1Z"/>
      <path class="cls-2" d="M24,24.4h5.8s1,.5,1.4,1.5h-4.9s0-.8-2.3-1.5ZM26.7,26.8h4.9s.3.9.6,1.2h-4.9s-.2-.9-.5-1.2ZM36,25.2h7.4s0,.8-.3,1.6h-7.7s.5-.9.6-1.6ZM35.1,27.4h7.8s-.1.6-.7,1.6h-8.5s.9-.8,1.3-1.6h0ZM27.7,29.1h5.4s.6.6,1.2.6h7.5s-.5.9-1.1,1.5h-10.1s-2.1-.2-3-2.1h0Z"/>
      <path class="cls-3" d="M36.1,24.3h5.7c0-.3,0-.7,0-1,0-5.6-4.6-10.2-10.2-10.2s-10.2,4.6-10.2,10.2,0,.8,0,1.1c0-.3,0-.6,0-.9,0-4.1,3.3-7.3,7.3-7.3h0c4.1,0,7.3,3.3,7.3,7.3s0,.6,0,.8h0Z"/>
      <path class="cls-2" d="M30.7,32.1c-1.7-.1-2.5-.8-2.8-1.3-3.3-.4-6-3-6.4-6.3.6,5.1,4.9,9.1,10.2,9.1s3.6-.5,5.2-1.4h-6Z"/>
      <path class="cls-1" d="M31.8,10.8c-6.9,0-12.5,5.6-12.5,12.5s5.6,12.5,12.5,12.5,12.5-5.6,12.5-12.5-5.6-12.5-12.5-12.5ZM31.8,40.8c-9.7,0-17.6-7.9-17.6-17.6S22.1,5.7,31.8,5.7s17.6,7.9,17.6,17.6-7.9,17.6-17.6,17.6Z"/>
      <path class="cls-2" d="M31.8,11c-6.8,0-12.3,5.5-12.3,12.3s5.5,12.3,12.3,12.3,12.3-5.5,12.3-12.3-5.5-12.3-12.3-12.3ZM31.8,35.9c-7,0-12.7-5.7-12.7-12.7s5.7-12.7,12.7-12.7,12.7,5.7,12.7,12.7-5.7,12.7-12.7,12.7ZM31.8,5.9c-9.6,0-17.4,7.8-17.4,17.4s7.8,17.4,17.4,17.4,17.4-7.8,17.4-17.4S41.3,5.9,31.8,5.9ZM31.8,41c-9.8,0-17.8-8-17.8-17.8S22,5.5,31.8,5.5s17.8,8,17.8,17.8-8,17.8-17.8,17.8Z"/>
      <path class="cls-2" d="M19.6,13c.1-.2.2-.2.3-.1.2,0,0,.2,0,.3,0,.3,0,.7-.1,1h0c0,0,0-.2,0-.3,0,0,.1-.1.2-.2,0,0,.1,0,.2.1,0,0,.2.2.2.3.3.3.7.6,1,.9.1,0,.1.2,0,.3-.1.1-.3.2-.4.3,0,0,0,0,0,0,.2-.3,0-.5-.3-.7-.2-.1-.4-.3-.5-.5,0,0-.1,0-.2,0,0,0-.1.1-.1.2.2,0,.3,0,.4,0,.1.1,0,.3,0,.4,0,0,.1,0,.2,0,0,0,.1,0,.2,0,0,0,.2,0,.2.1,0,0,0,.1-.1.2,0,0,0,0-.1,0,.2.1.3.3.5.4,0,0,.1.1,0,.2,0,0-.1.2-.2.2,0,0-.2,0-.2,0-.2-.1-.3-.3-.5-.4-.2-.3-.4-.5-.5-.8,0,0,0,0,0,0,0,.1,0,.2,0,.3,0,.6,0,1.2,0,1.8,0,.3-.2.4-.5.3-.1,0-.2-.1-.2-.3,0-.2,0-.4.1-.6,0-.4.1-.9.2-1.3,0-.3,0-.7.1-1,0,0,0,0,0,.1,0,.1-.2.2-.3.3,0,0-.1,0-.2,0,0,0,0-.1,0-.2,0-.2.1-.4.2-.6,0,0,0-.1,0-.2,0,.1,0,.2-.1.3,0,.2-.4.3-.5.1,0,0,0-.1,0-.2,0-.2,0-.3.1-.5,0-.1,0-.2-.1-.3-.1,0-.3-.2-.2-.3,0-.2.2-.2.3-.3,0,0,.1,0,.2,0,0,0,.2,0,.2,0,0,0,.1-.1.2,0,0,0,.2.1.1.3,0,0,0,0,0,.1,0,.1,0,.2.2.2,0,0,.1,0,.2,0h0ZM45.2,14.2h0c0-.2,0-.2-.1-.2,0,0,0,0,0,0,0,0,.2.2.2.2ZM45.1,15.1c0-.2-.6-.4-.9-.4l.8.4h0ZM44.9,14.6h0c0,0,0,.2.1.2.3,0,.6,0,.9,0,0,0,0,0,0-.1,0-.1-.3-.2-.4,0-.1.2-.3.2-.5.1,0,0-.2,0-.2,0ZM44.1,14.7c-.2,0-.5,0-.7-.1-.2,0-.3,0-.4-.2,0,0-.1-.2,0-.3,0-.1.2-.1.3-.1.3,0,.6.1.8.2,0-.1,0-.2,0-.3,0,0,.2-.1.2-.2,0,0,.1,0,.2-.1,0,0,.1,0,.2,0,0,0,0,.2,0,.2,0,0,0,.1,0,.2.2-.2.5-.3.5-.7,0,0,.1-.1.2-.2,0,0,.1.1.1.2,0,.2,0,.3,0,.5,0,0,0,.2,0,.2,0,0,.2,0,.2,0,.2-.1.3-.1.4,0,0,.2,0,.3-.2.5.1,0,.2,0,.3.1.2,0,.2.3,0,.4-.2.1-.4.2-.6.1-.2,0-.2,0-.2.2,0,.3,0,.3-.3.3-.2,0-.4,0-.5-.2,0,0,0,0-.1,0-.2,0-.3,0-.5,0,0,0,0,0,0,0,.2.2.2.5,0,.7,0,0-.2,0-.2,0-.1-.1-.2-.2-.3-.4,0-.1-.1,0-.2,0-.2.2-.5.3-.7.5,0,0-.1,0-.2,0,0,0-.2,0-.2,0,0,0,0-.1,0-.2,0-.1,0-.3,0-.4,0,0,0-.2,0-.2,0-.1,0-.3.1-.3.1,0,.1.1.1.3,0,0,0,.2.1.2,0,0,.2,0,.2,0,0,0,0,0,.1,0,.1,0,0-.2,0-.2-.2,0-.4-.2-.5-.3,0,0-.2-.1-.2-.2,0,0,0-.2,0-.2.1,0,.2,0,.3,0,.2,0,.3.2.5.3.1,0,.3.1.4.2,0,0,0-.2,0-.2,0,0,.2,0,.2,0h0s0,0,0,0ZM36.7,9.8c-.2.1-.3.2-.5.3-.3.2-.5.1-.8,0-.1,0-.2-.3,0-.3.1-.1.2,0,.3,0,.3.2.6,0,.8-.2,0,0-.2,0-.2,0-.2,0-.4,0-.4-.2,0,0,0-.1,0-.2,0-.1.1-.2.2-.1.2.1.4.1.6.1,0,0,0,0,.1,0,0,0,0-.1.1-.2.2-.5.5-.9.7-1.4,0,0,.1-.2.2-.1,0,0,.2,0,.2.2,0,.2,0,.5,0,.7-.2.3-.4.5-.5.8,0,0,0,0,0,.1,0,0,0,0,.1,0,.1,0,.2,0,.3-.1,0,0,.2,0,.2,0,0,0,.2.1.2.3,0,.1,0,.2-.2.2-.3,0-.5,0-.8,0-.2,0-.2,0-.1.2,0,.2.2.3.3.5.1.2.3.3.5.4,0,0,.1.1.2.2,0,0-.1.1-.2.2-.1,0-.3,0-.4,0,0,0-.2,0-.2-.1,0,0-.1-.2-.2-.3,0-.2,0-.5-.1-.8ZM28.1,8.6v.2s0,0,0,0c0,0,0,0,0-.2,0,0,0,0-.1,0ZM27.7,7.5c0,0,.2-.1.2-.2,0,0,0,0,0,0,0,0,0,0,0,0-.1,0-.2.1-.1.3ZM28.2,9c-.3,0-.6.4-.6.6.3,0,.6-.3.6-.6h0ZM26.8,10.2c.1-.1.1-.3.1-.5,0-.2,0-.3,0-.5,0-.5,0-.9.4-1.3.1-.1.1-.3.1-.5,0-.3.2-.5.5-.4.1,0,.2,0,.3,0,0-.1.2-.1.3,0,0,0,.1.1,0,.2l-.7.7s0,0,0,0c0,.1.1.4.3.5,0,0,.1,0,.2,0,.2,0,.3,0,.4.2,0,0,.1,0,.2.1.2,0,.3.3.3.5,0,.3-.3.5-.5.7,0,0,0,0-.1,0,0,0,0-.1,0-.1.1-.2.2-.3.2-.5,0,0,0-.1,0-.2,0,0-.1,0-.2,0,0,0,0,.2-.1.3,0,.2-.3.4-.5.4-.2,0-.4.1-.5.2-.1,0-.2,0-.2-.2,0-.2.2-.3.3-.5,0-.1.1-.2,0-.4,0-.1,0-.3-.1-.5,0,.1,0,.2-.1.3,0,0-.1.1-.1.1-.1,0-.2,0-.2.2,0,.3,0,.5,0,.8,0,.3,0,.6,0,.9,0,.2-.2.3-.4.3-.1,0-.2-.1-.2-.3,0-.5,0-1-.2-1.4,0-.1-.1-.3-.2-.4,0-.1,0-.2.1-.3.2,0,.4,0,.4.2,0,.2,0,.5,0,.7,0,.2,0,.5,0,.7,0,0,0,0,0,.1h0Z"/>
      <path class="cls-2" d="M25.8,7.8c0,0,0,0,0-.1,0-.1,0-.2.1-.2.2,0,.5.3.5.5,0,.2,0,.2-.2.2-.2,0-.4-.2-.4-.4ZM18.2,25.6c0-.3-.2-.4-.4-.5-.2,0-.6,0-1.1,0-.4,0-.7.2-.8.3-.2.1-.2.4-.2.6,0,.2.2.4.4.5.2,0,.5,0,.8,0,.6-.1,1-.2,1.1-.4.2-.1.2-.3.2-.6ZM15,27.1h-.1s0,0,0,0c0-.4,0-.6,0-.8,0-.2.3-.3.5-.4h0c0-.3.1-.5.3-.8.2-.2.5-.4.9-.4.2,0,.4,0,.6,0,.2,0,.3,0,.5.2.2,0,.3.2.4.3.2.3.2.6.2.9,0,.1-.1.3-.2.4-.1.1-.2.3-.4.3-.2,0-.3.2-.5.2-.3,0-.7,0-1,0-.3-.1-.5-.3-.6-.6h0s0,0,0,0c-.2,0-.4.1-.5.2s0,.3,0,.5c0,0,0,0,0,0ZM16.1,28h0s.1.3.1.3l2.4-.8v-.3c-.1,0,0,0,0,0l.4,1h0s-.1-.3-.1-.3l-2.4.8v.3c.1,0,0,0,0,0,0,0-.4-1-.4-1ZM16.8,29.9h0s.1.2.1.2l2.2-1.2v-.3c-.1,0,0,0,0,0l.4.7-1.2,1.9,1.6-.9v-.3c-.1,0,0,0,0,0l.4.7h0s-.1-.2-.1-.2l-2.3,1.3h0c0,0,1.6-2.7,1.6-2.7l-2.2,1.2v.3c.1,0,0,0,0,0l-.4-.6h0ZM20.1,33.2l.7.8h0c0,0-.2-.1-.2-.1-.2.2-.5.3-.7.2-.2,0-.5-.2-.7-.4-.2-.3-.3-.6-.3-.9,0-.3.2-.6.6-.9.2-.1.3-.2.5-.3.2,0,.3,0,.5,0,.2,0,.3,0,.5,0,.3.1.5.3.6.6,0,.1,0,.2,0,.3h.2s0,0,0,0l-.5.4h0c.1-.2.2-.4.2-.6,0-.2,0-.4-.2-.5-.2-.2-.4-.3-.6-.2-.2,0-.5.2-.9.5-.3.3-.6.5-.6.8,0,.2,0,.4.1.6.1.2.3.3.4.3.1,0,.3,0,.5-.2h0c0,0-.2-.4-.2-.4,0,0,0,0,0,0ZM20.7,35.3h0c0,0,.2.1.2.1l1.5-2-.2-.2h0c0,0,.8.5.8.5h0c0,0-.2-.1-.2-.1l-.7.9.9.7.7-.9-.2-.2h0c0,0,.8.5.8.5h0c0,0-.2-.1-.2-.1l-1.5,2,.2.2h0c0,0-.8-.5-.8-.5h0c0,0,.2.1.2.1l.8-1-.9-.7-.8,1,.2.2h0c0,0-.8-.5-.8-.5h0ZM24.7,36.7l.6.3.2-1.1-.8.8ZM23.5,37.3h0c0,0,.3,0,.3,0l2-2h0s-.4,2.8-.4,2.8h.3c0,.1,0,.2,0,.2l-.9-.5h0c0,0,.3,0,.3,0v-.9c.1,0-.6-.3-.6-.3l-.6.6.3.2h0c0,0-.7-.3-.7-.3ZM26.4,38.7h0c0,0,.3,0,.3,0l.8-2.4h-.3c0-.1,0-.2,0-.2l1,.3h0c0,0-.3,0-.3,0l-.8,2.4h.3c0,.1,0,.2,0,.2,0,0-1-.3-1-.3ZM28.7,38.6l.3-1.9h-.3s0-.1,0-.1l1,.2h0c0,.1-.3,0-.3,0l-.3,1.9c0,.2,0,.4,0,.5,0,.1.2.2.4.2.2,0,.4,0,.5-.1.1-.1.2-.3.3-.6l.3-1.7h-.3s0-.1,0-.1h.7c0,.1,0,.2,0,.2h-.3s-.3,1.7-.3,1.7c0,.3-.2.5-.3.7s-.4.2-.7.1c-.3,0-.5-.1-.6-.3-.1-.2-.2-.3-.1-.6h0ZM31.6,39.7h0c0-.1.3-.1.3-.1v-2.5c-.1,0-.4,0-.4,0h0c0-.1.8-.1.8-.1l1.2,1.9v-1.8c0,0-.4,0-.4,0h0c0-.1.7-.1.7-.1h0c0,.1-.3.1-.3.1v2.7c.1,0,0,0,0,0l-1.7-2.5v2.4c.1,0,.4,0,.4,0h0c0,.1-.7.1-.7.1ZM34.8,39.4h0c0,0,.3-.2.3-.2l-.5-2.4h-.3c0,0,0,0,0,0l1.1-.2h0c0,0-.3.2-.3.2l.5,2.4h.3c0,0,0,0,0,0l-1.1.2ZM37.7,38.7l-1.8-2.2h-.3c0,.1,0,0,0,0l1-.4h0c0,0-.3.2-.3.2l1.3,1.6v-2.1c0,0-.4.1-.4.1h0c0,0,.7-.4.7-.4h0c0,0-.3.2-.3.2v2.8c0,0,0,0,0,0ZM39.6,37.8h0c0,0,.3-.2.3-.2l-1.3-2.1-.3.2h0c0,0,1.7-1.1,1.7-1.1l.3.6h0c-.1-.1-.3-.2-.4-.2-.1,0-.3,0-.5.2l-.4.3.6,1h0c.2-.1.2-.2.3-.3,0,0,0-.2,0-.4h0s.5.8.5.8h0c-.1-.1-.2-.2-.3-.2-.1,0-.2,0-.4.1h0s.6,1.1.6,1.1l.5-.3c.2-.1.3-.2.3-.4,0-.1,0-.3,0-.6h0s.4.6.4.6l-1.8,1.1h0ZM41.7,34.5l.2-.2c.2-.2.3-.3.3-.5,0-.1,0-.3-.2-.4-.1-.1-.3-.2-.4-.2-.1,0-.2,0-.4.2l-.3.2.7.8ZM42.2,36l.2-.2-1.7-1.8-.2.2h0c0,0,.8-.8.8-.8.2-.2.4-.3.6-.4.2,0,.3,0,.5.2.1.1.2.3.1.5,0,.2-.1.4-.3.5h0c.2,0,.3-.1.5-.1.2,0,.3,0,.4.1,0,0,.1.1.2.2,0,0,.1.1.2.2,0,0,0,0,.1,0,0,0,0,0,.1,0,0,0,0,0,0,0,0,0,0,0,0-.1h0c0,.1,0,.2-.1.3,0,0,0,0-.1.1-.1.1-.3.2-.4.1-.2,0-.3-.2-.5-.4,0,0,0,0,0,0-.1-.2-.3-.2-.4-.2,0,0-.2,0-.2,0,0,0-.2,0-.2.1l-.2.2.9,1,.2-.2h0c0,0-.8.8-.8.8h0q0,0,0,0ZM44.7,33.8h0c0,0-.6-.4-.6-.4h0c.2,0,.4,0,.6,0,.2,0,.3-.1.4-.3.1-.1.2-.3.2-.5,0-.2,0-.3-.2-.4-.2-.1-.4,0-.8.2h0c-.3.2-.5.4-.7.4-.2,0-.3,0-.5-.2-.2-.1-.3-.3-.3-.5,0-.2,0-.4.2-.6.1-.1.2-.2.4-.3,0,0,0,0,0,0,0,0,0,0,0,0,0,0,0,0,0,0h0c0-.1,0-.2,0-.2l.5.4h0c-.2,0-.3,0-.5,0-.2,0-.3.1-.4.3,0,.1-.1.3-.1.4,0,.1,0,.3.2.3,0,0,.2,0,.3,0,.1,0,.2,0,.4-.2h.1c.3-.3.4-.4.6-.4.1,0,.2,0,.3,0,.1,0,.2,0,.3.2.2.2.3.4.4.6,0,.2,0,.5-.2.7-.1.2-.3.3-.5.3,0,0,0,0,0,0,0,0,0,0,0,0h0s0,.2,0,.2ZM46.1,31.8h0c0,0,.2-.3.2-.3l-2.2-1.2-.2.3h0c0,0,.5-1,.5-1h0c0,0-.2.4-.2.4l2.2,1.2.2-.3h0c0,0-.6,1-.6,1ZM47.2,29.7h0s.1-.4.1-.4l-2.3-.9h0c0,0,0,0,0,.1,0,.2,0,.3,0,.4,0,.1.2.3.4.4h0c0,0-.7-.2-.7-.2l.8-1.9.7.3h0c-.2,0-.4,0-.6,0-.1,0-.2.2-.3.4,0,0,0,0,0,.1l2.3.9v-.3c.1,0,.2,0,.2,0,0,0-.4,1-.4,1ZM48.1,26.9h0s0-.4,0-.4l-1.1-.2-1.5.5v.3c0,0-.2,0-.2,0l.2-1.1h0s0,.4,0,.4l1.3-.4-1-.9v.4c0,0-.2,0-.2,0l.2-.8h0s0,.3,0,.3l1.2,1,1.1.2v-.3c0,0,.2,0,.2,0,0,0-.2,1.1-.2,1.1Z"/>
    </g>
  </g>
</svg>