<?xml version="1.0" encoding="UTF-8"?>
<svg xmlns="http://www.w3.org/2000/svg" version="1.1" viewBox="0 0 128 40.9">
  <defs>
    <style>
      .cls-1 {
        fill-rule: evenodd;
      }

      .cls-1, .cls-2 {
        fill: #063398;
      }
    </style>
  </defs>
  <!-- Generator: Adobe Illustrator 28.7.1, SVG Export Plug-In . SVG Version: 1.2.0 Build 142)  -->
  <g>
    <g id="_图层_1" data-name="图层_1">
      <g>
        <path class="cls-1" d="M99.3,12.3c.4,1-.2,1.8-.2,3,.4.3,1.4,0,1.8.2,0,.4.3.5.2,1-.7,1-1.8.7-2.7,1.3-.9.6-1.6,2.3-2.4,3.2-1,1.1-1.8,1.9-3,2.4,1.2-1.7,2.8-3,3.7-5-.8,0-1.5-.3-1.8-1,.3-1.3,1.8-1.2,2.9-1.7,1.1-.8-.3-3.8,1.6-3.3h0ZM63.5,20.6c-.7-.3-1.2-.3-2.2-.1v.7c1.5.8,3.8.1,4.2-1.3-1.1-.2-1.4.5-2.1.7h0ZM62,18.2c0,.4-.2.4-.1.8.9.2,1-.4,1.5-.6.9.5,1.3.2,2.6.2,0-.4-.1-.5-.2-.8-1.2.1-2.3.4-3.8.3ZM63.7,12.7c0,.7-.6.8-.7,1.4,1.1.6,2.7-.8,3.2.2-.9,1.2-2.9,1.1-3.4,2.6,1.2,0,2.3-.2,3.4-.3.6.2.5,1.1.8,1.7,0,.5.8.2.9.7,0,.7-.2,1-.9.9-.5.3-.7.8-1.3,1,.4.5,0,.9-.2,1.4-1.9.1-5.6,1.8-5.3-1.5-.7.1-1.7.6-2.2,0,.3-1.2,1.3-1.4,2.4-1.5.8-1.6,2.1-2.7,3.3-3.9-.4-.3-1.4,0-1.8-.2,0-.3-.2-.5-.1-.9-2.3,1.2-4.9,4.4-3.8,8.2-.3.2-.6.3-1.1.2-.2-3,1.3-6,3-7.8.6-.7,1.5-1.1,2.2-1.6.4-.4.9-1.4,1.6-.7ZM89.1,20.1c.5,0,1.1,0,1.1-.5-.5,0-1.1,0-1.1.5ZM89.4,18.6c0,.5.6,0,1,.1,0-.4-.9-.2-1-.1ZM86.2,18.3c.5-.2,1.5,0,1.6-.6-.6.1-1.3.1-1.6.6ZM89.1,16.2c.6,0,.9-.2,1-.7-.4.2-1.2,0-1,.7h0ZM88.7,12.6c.3.2.2.8.2,1.3,1.4.2,3.1-.7,3.9.2-.6.9-2.5.4-3.7.7.5.4,2-.1,2.3.7-.3,1.1-1.8.9-1.9,2.1,1.3-.3,2.3.6,3.2,1.1-.2,1.2-2.1.7-2.1,2.2-.5.1-.8.4-1.4.5-.5,1.3-1.3,2.3-2.5,3-.3-.2-.4-.7-.6-1,1.4.2,1.5-.8,1.8-1.6-1.1-.4-2.7.8-3.7-.1.2-1.7,2.9-.2,3.8-1.3-1.9-.5-4.2.8-5.8.2.1-.7,1-.5,1.5-.6,1.2-.3,2.7-.6,4-.8-1.5-.5-3.1.9-4.5.2.2-1.4,2.3-.9,3.1-1.6,0-.3-.2-.3-.1-.7.2-.5,1.4-.1,1.5-.8-1.3-.4-1.8,1.7-3.2,1.3-.4-1.9,2.3-1.7,3.3-2.5-1.4-.4-2.9,1-4.2.3.2-1.8,3-.8,4.3-1.4,0-.4-.2-.6-.1-1,.3-.1.4-.4.8-.3h0ZM50.8,13.5c.5,1-.6,1.7-.8,2.6-.1.5.1,1.2,0,1.8-.1.9-.6,1.8,0,2.9,1.6.1,3.9-1.4,4.6.2-1,.7-4.4,1.9-6.8,1.8-1.6,0-2.9-1.2-1.1-2.1.7.2,1.4.3,2.2.2.2-2-.7-6.4,1-7.6.3-.2.5,0,.9,0ZM76.3,20c.2,1.1-.9,1.3-1.5.9v-.8c-.6.2-1.5.2-1.6.9.9.4,2.5.2,3.8.2,0-.4-.3-.7,0-1,.3.1.4.4.8.5,0-.3.5-.3.5-.7-.7-.1-1.1,0-1.9,0h0ZM74.6,17.7c-.1.4-.4.6-.5,1.1,1.1.3,1.3-.5,1.8-.8,0,.2.3.1.5.1v.5c.8,0,1.3.2,2.2.1,0-.6-.1-.9-.1-1.4-1.3,0-2.9.4-3.9.3ZM78.8,13.7c.2.5-.4,1-1.1.9-.9.5-1.5,1.1-2.2,1.8,1.3.4,2.5-.3,3.7-.3.4.7.2,1.8.6,2.5.4.2,1,.2,1.1.7.1.6-.3.6-.6.9-.4,0-.4-.2-.8-.2-.5.1-.5.8-1.1.8.4.4.2,1-.1,1.4-2,0-4,1.1-6,.2-.2-.5-.3-1.1-.1-1.7-.3-.3-.7.4-1.1.3,0,.7,0,1.4-.5,1.7-.4,0-.4.2-.8,0-.4-2.3.6-4.3.3-5.8.8-.7.4-1.9,1-2.7.4-.2.9.3,1.3.5.2.2-.1.7-.1,1.1-.4.1-.7.4-1.1.1,0,.4.2.7.1,1.3-1.2.3-.9,2-.8,3.2.6-.6,1.6-.9,2.4-1.3.9-1.9,2.5-3,3.9-4.2-1.2-.1-2.2.6-3.1.1,0-.4.2-.7.1-1.1.4-.4,1.3-.5,1.4.2,1.3,0,2.7-.4,3.7-.3h0Z"/>
        <path class="cls-1" d="M59.6,14.1c.3,1.3-.6,2.1-1.6,1.5.2.9.4,1.9-.8,1.8-.7-.9.2-1,.6-1.7.5-.9.3-1.9,1-1.9.4,0,.5.5.8.3ZM50.8,16.4c.3-.4.2-1.2.6-1.5,1.8-.6,2.5,2,.8,2.2-.6,0-.7-.6-1.4-.7ZM111.1,17.4c0,.8-.6.9-1,1.3.6.3,1.8-.3,2.4,0,.2.2.1.6.1.9-.6.2-1.4.3-2.3.2.2,1.4-.3,2.2-.9,3.1-.3.5-.8,1.3-1.5,1.1-.7-1.8,1.9-1.9,1.1-3.7-1.3,0-1.8,1.5-3.2,1,0-.1,0-.2-.1-.2.1-1.8,2.5-1.3,3.1-2.7-.6-.2-1.5.7-2.3.3-.1-1.3,3.8-2,4.6-1.4ZM103.7,22.3c-.1.5-1,.3-1.1.8-1-.3-2.4-.8-3.2-1.6-.5-.5-2.1-2.6-.2-2.5.5,0,0,.2.6.7.7.7,3.7,1.4,4,2.6Z"/>
        <path class="cls-1" d="M106.7,15.4c.6.2.7-1.2.3-1.3,0,.5-.3.8-.3,1.3ZM108.1,15.2c.2-.5,1.1-1.5.3-1.9-.2.4-1,1.4-.3,1.9h0ZM110.3,13.1c.1.8-.3,1.2-.5,1.7.6-.2.7-2.1,1.8-1.1-.1.4-.6.5-.7.9.8-.2.9-1,.9-1.9-.8,0-1,.3-1.6.5ZM109.9,11.4c.3.3,0,1-.1,1.3.9.1,1.6-1.4,2.9-.9.3,1.1,0,2.3-.6,2.9.7,0,1.6.1,1.9.6,0,.9,0,1.6-.7,1.7-.6-.2-1-.8-1-1.3-2.5.3-4.6.9-6.8,1.5-.3.6.2,1.9-.7,1.9-.3-1-.6-2.6,0-3.4.4-.2.8-.3,1.1,0,.2-1.3-.5-3.2.8-3.2.5.8-.3,1.1-.2,1.8.6-.6.7-1.7,1.4-2.2.5-.2.4.3.6.5.5-.4.5-1.2,1.4-1.1h0ZM47.7,26.1v.9h0c0-.1,0-.3-.1-.4-.1-.2-.4-.3-.6-.3-.1,0-.2,0-.3.1,0,0-.1.2-.1.3,0,0,0,.2,0,.2,0,0,.3.2.6.4.3.1.4.2.5.3,0,0,.2.2.2.3.1.3,0,.6-.2.8-.2.2-.4.2-.6.2,0,0-.2,0-.2,0,0,0-.2,0-.3,0,0,0-.2,0-.2,0,0,0,0,0,0,0,0,0,0,0,0,.1h0v-.9h0c0,.2,0,.3.1.4,0,.1.2.2.3.2.1,0,.3,0,.4,0,.1,0,.3,0,.4-.1.1-.1.2-.3,0-.5,0,0-.1-.1-.2-.2-.1,0-.3-.2-.4-.3-.2,0-.3-.2-.5-.3,0,0-.2-.2-.2-.3-.1-.3,0-.6.1-.8.2-.1.4-.2.6-.2.1,0,.3,0,.5.1,0,0,.1,0,.2,0s0,0,0,0c0,0,0,0,0-.1h0ZM48.9,27.4h1.3v-.8c0,0,0-.2,0-.3,0,0,0,0,0,0,0,0-.1,0-.2,0h0c0,0,1.2,0,1.2,0h0c0,0,0,0,0,0,0,0-.1,0-.2,0,0,0,0,0,0,0,0,0,0,.2,0,.3v1.7c0,.1,0,.2,0,.3,0,0,0,0,0,0,0,0,.1,0,.2,0h0c0,0-1.2,0-1.2,0h0c0,0,0,0,0,0,.1,0,.2,0,.2,0,0,0,0-.1,0-.3v-.8h-1.3v.8c0,.1,0,.2,0,.3,0,0,0,0,0,0,0,0,.1,0,.2,0h0c0,0-1.2,0-1.2,0h0c0,0,0,0,0,0,.1,0,.2,0,.2,0,0,0,0-.1,0-.3v-1.7c0,0,0-.2,0-.3,0,0,0,0,0,0,0,0-.1,0-.2,0h0c0,0,1.2,0,1.2,0h0c0,0,0,0,0,0,0,0-.1,0-.2,0,0,0,0,0,0,0,0,0,0,.2,0,.3v.8h0ZM52.8,27.8l-.5-1.1-.5,1.1h.9,0ZM52.9,27.9h-1l-.2.4c0,0,0,.2,0,.2,0,0,0,0,0,.1,0,0,.1,0,.3,0h0c0,0-.8,0-.8,0h0c.1,0,.2-.1.2-.2,0,0,.1-.2.2-.4l.9-2.2h0l.9,2.2c0,.2.1.3.2.3,0,0,.2,0,.3,0h0c0,0-1.1,0-1.1,0h0c.1,0,.2,0,.2-.1,0,0,0,0,0-.1,0,0,0-.2,0-.3l-.2-.4h0ZM53.9,26.1h.7l1.6,2v-1.6c0-.2,0-.3,0-.3,0,0-.1,0-.2,0h0c0,0,.9,0,.9,0h0c0,0,0,0,0,0-.1,0-.2,0-.2.1,0,0,0,.1,0,.3v2.3h0l-1.8-2.2v1.7c0,.2,0,.3,0,.3,0,0,.1,0,.2,0h0c0,0-.9,0-.9,0h0c0,0,0,0,0,0,.1,0,.2,0,.2-.1,0,0,0-.1,0-.3v-1.9c0,0-.1-.1-.2-.2,0,0-.1,0-.2,0,0,0-.1,0-.2,0h0c0,0,0,0,0,0ZM59.4,26.1v.8c0,0,0,0,0,0,0-.2-.1-.3-.3-.5-.2-.2-.4-.2-.6-.2-.3,0-.6.1-.8.4-.2.2-.2.5-.2.8s0,.5.2.7c0,.2.2.4.4.5.2,0,.3.1.5.1.2,0,.4,0,.6-.1v-.8c0-.1,0-.2,0-.3,0,0,0,0,0,0,0,0-.2,0-.2,0h0c0,0,1,0,1,0h0c0,0,0,0,0,0-.1,0-.2,0-.2.1,0,0,0,.1,0,.3v.8c-.1,0-.3.1-.5.2-.2,0-.3,0-.5,0-.5,0-.9-.2-1.2-.5-.2-.2-.3-.6-.3-.9,0-.2,0-.5.2-.7.1-.2.3-.5.6-.6.2-.1.4-.2.7-.2s.2,0,.3,0c0,0,.2,0,.3.1,0,0,0,0,.2,0,0,0,0,0,0,0,0,0,0,0,0-.1h0ZM60.6,27.4h1.3v-.8c0,0,0-.2,0-.3,0,0,0,0,0,0,0,0-.1,0-.2,0h0c0,0,1.2,0,1.2,0h0c0,0,0,0,0,0,0,0-.1,0-.2,0,0,0,0,0,0,0,0,0,0,.2,0,.3v1.7c0,.1,0,.2,0,.3,0,0,0,0,0,0,0,0,.1,0,.2,0h0c0,0-1.2,0-1.2,0h0c0,0,0,0,0,0,.1,0,.2,0,.2,0,0,0,0-.1,0-.3v-.8h-1.3v.8c0,.1,0,.2,0,.3,0,0,0,0,0,0,0,0,.1,0,.2,0h0c0,0-1.2,0-1.2,0h0c0,0,0,0,0,0,.1,0,.2,0,.2,0,0,0,0-.1,0-.3v-1.7c0,0,0-.2,0-.3,0,0,0,0,0,0,0,0-.1,0-.2,0h0c0,0,1.2,0,1.2,0h0c0,0,0,0,0,0,0,0-.1,0-.2,0,0,0,0,0,0,0,0,0,0,.2,0,.3v.8h0ZM64.6,27.8l-.5-1.1-.5,1.1h.9ZM64.6,27.9h-1l-.2.4c0,0,0,.2,0,.2,0,0,0,0,0,.1,0,0,.1,0,.3,0h0c0,0-.8,0-.8,0h0c.1,0,.2-.1.2-.2,0,0,.1-.2.2-.4l.9-2.2h0l.9,2.2c0,.2.1.3.2.3,0,0,.2,0,.3,0h0c0,0-1.1,0-1.1,0h0c.1,0,.2,0,.2-.1,0,0,0,0,0-.1,0,0,0-.2,0-.3l-.2-.4h0ZM66.9,28.8h0c0,0-1.2,0-1.2,0h0c0,0,0,0,0,0,.1,0,.2,0,.2,0,0,0,0-.1,0-.3v-1.7c0,0,0-.2,0-.3,0,0,0,0,0,0,0,0-.1,0-.2,0h0c0,0,1.2,0,1.2,0h0c0,0,0,0,0,0-.1,0-.2,0-.2,0,0,0,0,.1,0,.3v1.7c0,.1,0,.2,0,.3,0,0,0,0,0,0,0,0,.1,0,.2,0h0ZM69.7,28.8l-1-2.3v1.8c0,.2,0,.3,0,.3,0,0,.1,0,.2,0h0c0,0-.9,0-.9,0h0c0,0,0,0,0,0,.1,0,.2,0,.2-.1,0,0,0-.1,0-.3v-1.8c0,0,0-.2,0-.3,0,0,0,0-.1,0,0,0-.2,0-.2,0h0c0,0,.8,0,.8,0l1,2.1,1-2.1h.8c0,0,0,0,0,0-.1,0-.2,0-.2.1,0,0,0,.1,0,.3v1.8c0,.2,0,.3,0,.3,0,0,.1,0,.2,0h0c0,0-1.1,0-1.1,0h0c0,0,0,0,0,0,.1,0,.2,0,.2-.1,0,0,0-.1,0-.3v-1.8l-1,2.3s0,0,0,0ZM73.5,27.8l-.5-1.1-.5,1.1h.9ZM73.5,27.9h-1l-.2.4c0,0,0,.2,0,.2,0,0,0,0,0,.1,0,0,.1,0,.3,0h0c0,0-.8,0-.8,0h0c.1,0,.2-.1.2-.2,0,0,.1-.2.2-.4l.9-2.2h0l.9,2.2c0,.2.1.3.2.3,0,0,.2,0,.3,0h0c0,0-1.1,0-1.1,0h0c.1,0,.2,0,.2-.1,0,0,0,0,0-.1,0,0,0-.2,0-.3l-.2-.4h0ZM75.5,27.4s0,0,.1,0c.3,0,.4,0,.6-.2.1-.1.2-.3.2-.4,0-.2,0-.3-.2-.4-.1-.1-.3-.2-.4-.2,0,0-.2,0-.3,0,0,0,0,1.1,0,1.1ZM77.4,28.8h-.7l-.9-1.3c0,0-.1,0-.2,0h0s0,.8,0,.8c0,.2,0,.3,0,.3,0,0,.1,0,.2,0h.1c0,0-1.2,0-1.2,0h0c0,0,.1,0,.1,0,.1,0,.2,0,.2-.1,0,0,0-.1,0-.3v-1.7c0-.2,0-.3,0-.3,0,0-.1,0-.2,0h-.1c0,0,1,0,1,0,.3,0,.5,0,.6,0,.1,0,.3.1.3.2,0,.1.1.3.1.4,0,.2,0,.3-.2.4-.1.1-.3.2-.5.3l.6.8c.1.2.2.3.3.4,0,0,.2,0,.4.1,0,0,0,0,0,0ZM78.6,28.8h0c0,0-1.2,0-1.2,0h0c0,0,0,0,0,0,.1,0,.2,0,.2,0,0,0,0-.1,0-.3v-1.7c0,0,0-.2,0-.3,0,0,0,0,0,0,0,0-.1,0-.2,0h0c0,0,1.2,0,1.2,0h0c0,0,0,0,0,0-.1,0-.2,0-.2,0,0,0,0,.1,0,.3v1.7c0,.1,0,.2,0,.3,0,0,0,0,0,0,0,0,.1,0,.2,0h0ZM81,26.1v.6s0,0,0,0c0,0,0-.2,0-.2,0,0,0-.1-.2-.2,0,0-.2,0-.3,0h-.4v2.1c0,.2,0,.3,0,.3,0,0,.1,0,.2,0h0c0,0-1.1,0-1.1,0h0c0,0,0,0,0,0,.1,0,.2,0,.2-.1,0,0,0-.1,0-.3v-2.1h-.3c0,0-.2,0-.3,0,0,0-.1,0-.2.1,0,0,0,.2,0,.3h0v-.6h2.2,0ZM82.4,28.8h0c0,0-1.2,0-1.2,0h0c0,0,0,0,0,0,.1,0,.2,0,.2,0,0,0,0-.1,0-.3v-1.7c0,0,0-.2,0-.3,0,0,0,0,0,0,0,0-.1,0-.2,0h0c0,0,1.2,0,1.2,0h0c0,0,0,0,0,0-.1,0-.2,0-.2,0,0,0,0,.1,0,.3v1.7c0,.1,0,.2,0,.3,0,0,0,0,0,0,0,0,.1,0,.2,0h0ZM84.2,28.8l-1-2.3v1.8c0,.2,0,.3,0,.3,0,0,.1,0,.2,0h0c0,0-.9,0-.9,0h0c0,0,0,0,0,0,.1,0,.2,0,.2-.1,0,0,0-.1,0-.3v-1.8c0,0,0-.2,0-.3,0,0,0,0-.1,0,0,0-.2,0-.2,0h0c0,0,.8,0,.8,0l1,2.1,1-2.1h.8c0,0,0,0,0,0-.1,0-.2,0-.2.1,0,0,0,.1,0,.3v1.8c0,.2,0,.3,0,.3,0,0,.1,0,.2,0h0c0,0-1.1,0-1.1,0h0c0,0,0,0,0,0,.1,0,.2,0,.2-.1,0,0,0-.1,0-.3v-1.8l-1,2.3s0,0,0,0ZM87,26.3v1.1h.6c.2,0,.3,0,.3,0,0,0,.1-.2.1-.3h0v.9h0c0,0,0-.2,0-.3,0,0,0,0-.1-.1,0,0-.2,0-.2,0h-.6v.9c0,.1,0,.2,0,.2,0,0,0,0,0,0,0,0,0,0,.2,0h.5c.2,0,.3,0,.3,0,0,0,.1,0,.2-.1.1-.1.2-.2.3-.4h0l-.2.7h-2.1c0,0,0,0,0,0,0,0,.1,0,.2,0,0,0,0,0,0,0,0,0,0-.2,0-.3v-1.8c0-.2,0-.3,0-.3,0,0-.1,0-.2,0h0c0,0,2.1,0,2.1,0v.6s0,0,0,0c0-.1,0-.2,0-.3,0,0,0,0-.2-.1,0,0-.2,0-.3,0h-.7,0ZM91.6,26.2h0c0,0,1,0,1,0h0c0,0-.1,0-.1,0,0,0-.2,0-.2.1,0,0,0,.1,0,.3v1.1c0,.3,0,.5,0,.6,0,.2-.2.3-.3.4-.2.1-.4.2-.6.2s-.5,0-.7-.2c-.1,0-.3-.2-.3-.4,0-.1,0-.3,0-.7v-1.1c0-.2,0-.3,0-.3,0,0-.1,0-.2,0h-.1c0,0,1.2,0,1.2,0h0c0,0-.1,0-.1,0-.1,0-.2,0-.2.1,0,0,0,.1,0,.3v1.2c0,.1,0,.2,0,.4,0,.1,0,.2.1.3,0,0,.1.1.2.2,0,0,.2,0,.3,0,.2,0,.3,0,.5-.1.1,0,.2-.2.3-.3,0-.1,0-.3,0-.6v-1.1c0-.2,0-.3,0-.3,0,0-.1,0-.2,0,0,0-.1,0-.1,0Z"/>
        <path class="cls-1" d="M92.5,26.1h.7l1.6,2v-1.6c0-.2,0-.3,0-.3,0,0-.1,0-.2,0h0c0,0,.9,0,.9,0h0c0,0,0,0,0,0-.1,0-.2,0-.2.1,0,0,0,.1,0,.3v2.3h0l-1.8-2.2v1.7c0,.2,0,.3,0,.3,0,0,.1,0,.2,0h0c0,0-.9,0-.9,0h0c0,0,0,0,0,0,.1,0,.2,0,.2-.1,0,0,0-.1,0-.3v-1.9c0,0-.1-.1-.2-.2,0,0-.1,0-.2,0,0,0-.1,0-.2,0h0ZM96.8,28.8h0c0,0-1.2,0-1.2,0h0c0,0,0,0,0,0,.1,0,.2,0,.2,0,0,0,0-.1,0-.3v-1.7c0,0,0-.2,0-.3,0,0,0,0,0,0,0,0-.1,0-.2,0h0c0,0,1.2,0,1.2,0h0c0,0,0,0,0,0-.1,0-.2,0-.2,0,0,0,0,.1,0,.3v1.7c0,0,0,.2,0,.3,0,0,0,0,0,0,0,0,.1,0,.2,0h0ZM99.8,26.1h0c0,0-.2.1-.2.2,0,0-.1.2-.2.3l-.9,2.3h0l-1-2.3c0,0,0-.1-.1-.2,0,0,0,0-.1,0,0,0-.1,0-.2,0h0c0,0,1.1,0,1.1,0h0c-.1,0-.2.1-.2.1,0,0,0,0,0,.1,0,0,0,.2,0,.3l.7,1.6.6-1.6c0-.2,0-.3,0-.3s0,0,0-.1c0,0-.1,0-.2,0,0,0,0,0,0,0h0c0,0,.8,0,.8,0h0ZM100.7,26.3v1.1h.6c.2,0,.3,0,.3,0,0,0,.1-.2.1-.3h0v.9h0c0,0,0-.2,0-.3,0,0,0,0-.1-.1,0,0-.2,0-.3,0h-.6v.9c0,.1,0,.2,0,.2,0,0,0,0,0,0,0,0,0,0,.2,0h.5c.2,0,.3,0,.3,0,0,0,.1,0,.2-.1,0,0,.2-.2.3-.4h0l-.2.7h-2.1c0,0,0,0,0,0,0,0,.1,0,.2,0,0,0,0,0,0,0,0,0,0-.2,0-.3v-1.8c0-.2,0-.3,0-.3,0,0-.1,0-.2,0h0c0,0,2.1,0,2.1,0v.6s0,0,0,0c0-.1,0-.2,0-.3,0,0,0,0-.2-.1,0,0-.2,0-.3,0,0,0-.7,0-.7,0ZM103.1,27.4s0,0,.1,0c.3,0,.5,0,.6-.2.1-.1.2-.3.2-.4,0-.2,0-.3-.2-.4-.1-.1-.3-.2-.4-.2,0,0-.2,0-.3,0,0,0,0,1.1,0,1.1ZM105,28.8h-.7l-.9-1.3c0,0-.1,0-.2,0h0s0,.8,0,.8c0,.2,0,.3,0,.3,0,0,.1,0,.2,0h.1c0,0-1.2,0-1.2,0h0c0,0,.1,0,.1,0,.1,0,.2,0,.2-.1,0,0,0-.1,0-.3v-1.7c0-.2,0-.3,0-.3,0,0-.1,0-.2,0h-.1c0,0,1,0,1,0,.3,0,.5,0,.6,0,.1,0,.3.1.3.2,0,.1.1.3.1.4,0,.2,0,.3-.2.4-.1.1-.3.2-.5.3l.6.8c.1.2.2.3.3.4.1,0,.2.1.4.1,0,0,0,0,0,0ZM106.9,26.1v.9h0c0-.1,0-.3-.1-.4-.1-.2-.4-.3-.6-.3-.1,0-.2,0-.3.1,0,0-.1.2-.1.3,0,0,0,.2,0,.2,0,0,.3.2.6.4.3.1.4.2.5.3,0,0,.2.2.2.3.1.3,0,.6-.2.8-.2.2-.4.2-.6.2,0,0-.2,0-.2,0,0,0-.2,0-.3,0,0,0-.2,0-.2,0,0,0,0,0,0,0,0,0,0,0,0,.1h0v-.9h0c0,.2,0,.3.1.4,0,.1.2.2.3.2.1,0,.3,0,.4,0,.1,0,.3,0,.4-.1.1-.1.2-.3,0-.5,0,0-.1-.1-.2-.2-.1,0-.3-.2-.4-.3-.2,0-.3-.2-.5-.3,0,0-.2-.2-.2-.3-.1-.3,0-.6.1-.8.2-.1.4-.2.6-.2.1,0,.3,0,.5.1,0,0,.1,0,.2,0,0,0,0,0,0,0,0,0,0,0,0-.1h0ZM108.5,28.8h0c0,0-1.2,0-1.2,0h0c0,0,0,0,0,0,.1,0,.2,0,.2,0,0,0,0-.1,0-.3v-1.7c0,0,0-.2,0-.3,0,0,0,0,0,0,0,0-.1,0-.2,0h0c0,0,1.2,0,1.2,0h0c0,0,0,0,0,0-.1,0-.2,0-.2,0,0,0,0,.1,0,.3v1.7c0,.1,0,.2,0,.3,0,0,0,0,0,0,0,0,.1,0,.2,0h0ZM111,26.1v.6s0,0,0,0c0,0,0-.2,0-.2,0,0,0-.1-.2-.2,0,0-.2,0-.3,0h-.4v2.1c0,.2,0,.3,0,.3,0,0,.1,0,.2,0h0c0,0-1.1,0-1.1,0h0c0,0,0,0,0,0,.1,0,.2,0,.2-.1,0,0,0-.1,0-.3v-2.1h-.3c0,0-.2,0-.3,0,0,0-.1,0-.2.1,0,0,0,.2,0,.3h0v-.6h2.2,0ZM113.1,26.1h.9c0,0,0,0,0,0-.1,0-.2,0-.3.2,0,0-.1.2-.2.3l-.7,1v.7c0,.2,0,.3,0,.3,0,0,.1,0,.2,0h0c0,0-1.1,0-1.1,0h0c0,0,0,0,0,0,.1,0,.2,0,.2-.1,0,0,0-.1,0-.3v-.6l-.7-1.1c0,0-.1-.2-.2-.2,0,0-.1,0-.2-.1,0,0,0,0-.1,0h0c0,0,1.2,0,1.2,0h0c0,0,0,0,0,0,0,0-.1,0-.2,0,0,0,0,0,0,.1,0,0,0,.1.1.3l.6.9.5-.8c0-.1.1-.2.1-.3,0,0,0-.1-.1-.2,0,0-.1,0-.2,0h0Z"/>
        <path class="cls-2" d="M27.2,7.5c-7.3,0-13.2,5.9-13.2,13.2s5.9,13.2,13.2,13.2,13.2-5.9,13.2-13.2-5.9-13.2-13.2-13.2ZM27.2,33.3c-7,0-12.6-5.7-12.6-12.7s5.7-12.7,12.6-12.7,12.6,5.7,12.6,12.7-5.7,12.7-12.6,12.7h0Z"/>
        <path class="cls-2" d="M36.6,20.7c0-5.2-4.3-9.5-9.5-9.5h0c-5.2,0-9.5,4.2-9.5,9.5,0,.6,0,1.3.2,1.9-.5,0-1.5.3-2,.4l2.8,5s.9-.3,2.2-.4c1.8,1.6,4,2.5,6.4,2.5,2.4,0,4.7-.9,6.4-2.5,0,0,1,0,2.3.4l2.7-5s-.7-.2-2.1-.4c.1-.6.2-1.3.2-1.9h0ZM32.5,15.7v1.6c-.3-.3-.9-.5-1.5-.5s-1.2.2-1.5.5v-1.7h3ZM32.5,18.3v1.6c-.3-.3-.9-.5-1.5-.5s-1.2.2-1.5.5v-1.7h3ZM31,20.7s0,1.1-1.4,1.1h-5s-1.1.1-1.5-1.1h7.9ZM25.6,13.3h3v1.6c-.3-.3-.9-.5-1.5-.5s-1.2.2-1.5.5v-1.7h0ZM25.6,15.7h3v1.6c-.3-.3-.9-.5-1.5-.5s-1.2.2-1.5.5v-1.7h0ZM25.6,18.3h3v1.6c-.3-.3-.9-.5-1.5-.5s-1.2.2-1.5.5v-1.7ZM21.7,15.7h3v1.6c-.3-.3-.9-.5-1.5-.5s-1.2.2-1.5.5v-1.7h0ZM21.7,18.3h3v1.6c-.3-.3-.9-.5-1.5-.5s-1.2.2-1.5.5c0,0,0-1.7,0-1.7ZM38,23.4l-2.4,4.3c-4.5-1.2-7.7.5-7.7.5h-1.6c-3.8-1.7-7.6-.5-7.6-.5l-2.3-4.3c8-1.7,10.6.5,10.6.5h.3c3.8-2.3,10.8-.5,10.8-.5ZM22.6,30.3c-.2,0-.3,0-.5,0v.3c.2,0,.5,0,.7,0l-.4,1.1.6.2.5-1.6h-.5c0,0-.2,0-.4,0ZM25.6,30.8c-.3,0-.5,0-.7,0-.2,0-.3.2-.3.4,0,.2,0,.3.2.4.2.1.4.2.6.2.2,0,.4,0,.6,0,0,.2-.1.3-.2.4,0,0-.2,0-.3,0,0,0-.2,0-.2,0,0,0,0,0,0-.2h-.6c0,0,.1.2.2.3.2,0,.4.2.6.2.3,0,.6,0,.8,0,.2-.1.4-.3.4-.6,0-.3,0-.5-.2-.7-.2-.2-.4-.2-.7-.3h0ZM25.8,31.6c0,0-.2,0-.3,0-.1,0-.2,0-.3-.1,0,0,0-.1,0-.2,0-.1,0-.2.1-.2,0,0,.2,0,.3,0,.1,0,.2,0,.3.1,0,0,.1.1,0,.2,0,0,0,.2-.1.2h0ZM29,30.9c-.2,0-.4-.1-.7,0-.3,0-.5.1-.7.2-.2.2-.3.4-.2.7,0,.3.2.5.3.6.2.1.4.1.7,0,.3,0,.5-.1.7-.2.2-.2.3-.4.2-.7s-.2-.5-.4-.6ZM28.8,32c0,0,0,.1-.1.1,0,0-.1,0-.2,0,0,0-.1,0-.2,0,0,0-.1,0-.1-.1,0,0,0-.2-.1-.4,0-.2,0-.3,0-.4,0,0,0-.1.1-.1,0,0,.1,0,.2,0,0,0,.1,0,.2,0,0,0,.1,0,.1.1,0,0,0,.2,0,.4,0,.2,0,.3,0,.4ZM31.6,30.1c-.2,0-.5,0-.8,0-.3.1-.5.2-.6.4-.1.2-.2.3-.1.5,0,.1.2.2.4.3.2,0,.4,0,.6,0,.2,0,.4-.2.5-.3,0,.2,0,.3,0,.4,0,0-.1.2-.3.2,0,0-.2,0-.2,0,0,0-.1,0-.1,0l-.5.2c0,.1.2.2.4.2.2,0,.4,0,.6-.1.3-.1.5-.3.7-.5.1-.2.2-.4,0-.7-.1-.3-.3-.4-.5-.5ZM31.3,30.9c0,0-.1.1-.2.2,0,0-.2,0-.3,0,0,0-.2,0-.2-.2,0,0,0-.2,0-.2,0,0,.1-.1.2-.2,0,0,.2,0,.3,0,.1,0,.2,0,.2.2,0,0,0,.2,0,.2Z"/>
        <path class="cls-2" d="M16.3,20.1c0-.1,0-.2.1-.2,0,0,0,0,0,0,.1,0,.2,0,.3,0,0,0,0,.1,0,.2,0,0,0,.2-.1.2,0,0-.2,0-.3,0v.3c.2,0,.4,0,.5-.1.1,0,.2-.2.2-.4,0-.1,0-.2,0-.3,0,0-.1-.2-.2-.2,0,0-.2,0-.3,0-.1,0-.2,0-.3,0,0,0-.2,0-.2.1,0,0-.1.2-.2.3,0,.1-.1.2-.1.3,0,0,0,0-.1,0,0,0,0,0-.1,0,0,0,0-.1,0-.2,0,0,0-.1,0-.2,0,0,.1,0,.2,0v-.3c-.1,0-.3,0-.4.1-.1,0-.2.2-.2.4,0,0,0,.2,0,.3,0,0,.1.1.2.2,0,0,.2,0,.3,0,.1,0,.3,0,.4,0,0,0,.2-.2.2-.3h0ZM17.2,19.1l-.8-.2v-.5c.1,0,.9.2.9.2v-.3c0,0-1.8-.4-1.8-.4v.3c0,0,.7.2.7.2v.5c-.1,0-.8-.2-.8-.2v.3c0,0,1.8.4,1.8.4v-.3c0,0,0,0,0,0ZM17.5,17.9l-.4-.3.2-.5h.4s.1-.3.1-.3h-2c0-.1-.1.2-.1.2l1.6,1.2v-.3h.1ZM16.9,17.4l-.6-.4h.7c0,0-.1.4-.1.4ZM18.3,16v-.3c.1,0-1.6-.9-1.6-.9v.2c-.1,0,1,.6,1,.6h-1.4c0,0-.1.2-.1.2l1.7.9v-.2c.1,0-1-.6-1-.6,0,0,1.4,0,1.4,0ZM17.7,15c.1.1.3.2.5.2.1,0,.3,0,.4,0,.1,0,.2-.1.3-.2,0,0,.1-.2.1-.3,0-.1,0-.2,0-.3l-.6-.4-.4.5.3.2.2-.3h.2c0,.2,0,.3,0,.3,0,0,0,.1,0,.2,0,0-.2.1-.3.1-.1,0-.3,0-.5-.2-.2-.1-.3-.2-.3-.4,0-.1,0-.2,0-.3,0,0,.1-.1.2-.1,0,0,.2,0,.2,0v-.3c0,0-.2-.1-.3,0-.1,0-.3.1-.4.2,0,0-.1.2-.1.3,0,.1,0,.3.1.4,0,.1.2.3.4.4ZM19.6,14.2l-.6-.6.4-.4.6.6.2-.2-1.4-1.3-.2.2.5.5-.4.4-.5-.5-.2.2,1.4,1.3.2-.2ZM20.5,13.3l-.2-.4.4-.4.4.3.2-.2-1.6-1.1-.2.2.8,1.8s.2-.2.2-.2ZM19.9,11.9l.6.4-.3.2-.3-.7h0ZM21.7,12.4l-1.1-1.6-.2.2,1.1,1.6.2-.2ZM22.3,12h.2c0-.1-.6-1.5-.6-1.5l.9,1.2h.2c0-.1-.4-1.6-.4-1.6l.6,1.4h.2c0-.1-.8-1.8-.8-1.8l-.4.2.3,1.3-.8-1.1-.4.2.8,1.7ZM23.9,11.3v-.5s.5-.2.5-.2l.2.4h.3c0,0-1.1-1.8-1.1-1.8h-.3c0,0,0,2.1,0,2.1,0,0,.3,0,.3,0ZM24.3,10.4h-.4c0,.1,0-.6,0-.6l.4.6h0ZM25.3,10.9v-.8c-.1,0,0,0,0,0,0,0,0,0,.1,0,0,0,0,0,0,0,0,0,0,.1.2.3l.3.4h.3c0,0-.2-.4-.2-.4,0,0-.1-.2-.2-.3,0,0-.1,0-.2-.1.1,0,.2-.1.2-.2,0-.1,0-.2,0-.4,0-.1,0-.2-.1-.3,0,0-.1-.1-.2-.2-.1,0-.2,0-.3,0h-.6c0,0,.3,2,.3,2,0,0,.3,0,.3,0ZM25.3,9.3c.1,0,.2,0,.2,0,0,0,0,0,.1,0,0,0,0,0,0,.2,0,0,0,0,0,.1,0,0,0,0,0,0,0,0-.2,0-.2,0h-.2s0-.4,0-.4c0,0,.2,0,.2,0ZM26.7,10.8v-1.9c-.1,0-.4,0-.4,0v1.9c.1,0,.4,0,.4,0ZM28,8.9h-1.1s0,.3,0,.3h.4s0,1.6,0,1.6h.3s0-1.6,0-1.6h.4s0-.3,0-.3h0ZM28.6,8.9h-.3s-.2,1.9-.2,1.9h.3s.2-1.9.2-1.9ZM28.9,10.9l.3-1.5v1.5s.2,0,.2,0l.6-1.4-.3,1.5h.3c0,0,.4-1.8.4-1.8h-.4c0,0-.5,1.1-.5,1.1v-1.3s-.4,0-.4,0l-.4,1.9s.3,0,.3,0ZM31.2,11.6v-.3c.1,0-.6-.3-.6-.3l.2-.5.7.2v-.3c.1,0-.6-.2-.6-.2v-.4c.1,0,.9.3.9.3v-.3c.1,0-.9-.4-.9-.4l-.7,1.8s1,.4,1,.4ZM32.3,12.2c0,0,.2,0,.3,0,0,0,.2,0,.2,0,0,0,.1,0,.2-.2,0,0,.2-.2.3-.4l.5-.9h-.2c0-.1-.5.8-.5.8,0,.1-.1.2-.2.3,0,0,0,0-.1.1,0,0-.1,0-.2,0,0,0-.1,0-.1-.2,0,0,0-.1,0-.2,0,0,0-.2.2-.3l.5-.9h-.2c0-.1-.5.7-.5.7,0,.1-.2.3-.2.4,0,0,0,.1,0,.2,0,0,0,.2,0,.2,0,0,.1.2.2.2h0ZM33.7,13.1l.2.2,1.2-1.5-.2-.2-.8,1,.3-1.4-.2-.2-1.2,1.5.2.2.8-1s-.3,1.3-.3,1.3ZM34.2,13.6l1.3-1.4-.2-.2-1.3,1.4.2.2ZM36.4,13.2l-1.3.7.8-1.2-.2-.2-1.1,1.6.2.2,1.8-.9s-.2-.2-.2-.2ZM35.9,15.6l.3-.2-.4-.6.4-.3.4.6.3-.2-.4-.6.3-.2.4.6.3-.2-.6-.9-1.6,1.1s.6.9.6.9ZM36.1,16l.7-.4h0c0,0,0,.1,0,.2,0,0,0,0,0,.1,0,0,0,.1-.2.3l-.3.4.2.3.3-.3c.1-.1.2-.2.2-.3,0,0,0-.1,0-.2,0,0,.2.2.3.2.1,0,.2,0,.4,0,0,0,.2-.1.2-.2,0,0,0-.1,0-.2,0-.1,0-.2-.1-.3l-.3-.5-1.7.9s.1.3.1.3ZM37.5,15.3v.2c.2.1.2.2.2.2,0,0,0,0,0,.1,0,0,0,0-.1.1,0,0,0,0-.1,0,0,0,0,0-.1,0,0,0,0,0-.1-.2v-.2c0,0,.3-.2.3-.2h0ZM37.6,16.8c0,0,0,.2,0,.4,0,.1,0,.2,0,.2,0,0,0,0,0,.1,0,0-.2.1-.3,0,0,0-.1,0-.1-.2,0,0,0-.2,0-.2,0,0,.1-.1.2-.2v-.2c-.3,0-.5.2-.5.3,0,.1,0,.3,0,.4,0,.1,0,.2.2.3,0,0,.2,0,.3.1.1,0,.2,0,.3,0,0,0,.2,0,.3-.2,0,0,.1-.1.1-.2,0,0,0-.2,0-.3,0-.1,0-.2,0-.3,0,0,0,0,0,0,0,0,0,0,.1,0,0,0,.1,0,.1.2,0,0,0,.1,0,.2,0,0,0,0-.2.1v.3c.3,0,.4-.1.5-.3,0-.1,0-.3,0-.4,0,0,0-.2-.2-.2,0,0-.2,0-.2,0,0,0-.2,0-.3,0-.1,0-.2.1-.3.2h0ZM37,18.5l1.8-.5v-.3c0,0-1.9.5-1.9.5v.3h0ZM38.8,19.4h.3c0,0-.2-1.2-.2-1.2h-.3c0,0,0,.5,0,.5l-1.6.3v.3s1.6-.3,1.6-.3v.4ZM39.2,20.9v-.3s-.8-.3-.8-.3l.7-.4v-.3s-1.1.6-1.1.6h-.8s0,.3,0,.3h.8s1.1.4,1.1.4ZM21,25.9s0,0-.1,0c-.1,0-.3,0-.5,0,0,0-.2,0-.2,0,0,0-.1-.3,0-.5,0,0,0-.2,0-.2,0-.2,0-.4,0-.5,0,0,0,0,0-.1,0,0,.1-.3,0-.3,0,0,0,0,0,0,0,0,0,0-.2,0-.2.1-.3.4-.3.7v.3s0,.4,0,.4c0,.1,0,.3,0,.4,0,0,0,0-.2,0,0,0-.1,0-.2,0-.2,0-.2-.1-.4,0,0,0-.1,0,0,.2,0,0,.2.1.3.2.5,0,.9,0,1.3-.2,0,0,.1,0,.2,0,0,0,.1,0,.1-.1,0,0,0,0,.1,0,0-.2-.2-.2-.3-.2ZM27.4,25.5c0,0,0-.2-.1-.3,0-.1,0-.2,0-.3,0,0-.1,0-.2,0h-.1c-.1,0-.4,0-.6,0,0,0,0,0,0,0,0-.1.3-.4.5-.4,0,0,.1,0,.2,0,0,0,.1-.1.1-.2,0,0-.1,0-.2,0h0c0,0-.4,0-.4,0,0,0-.1,0-.2,0,0,0,0,0,0,0,0,0,0,0-.1,0,0,0-.1,0-.1,0,0,0,0,.2,0,.2.2.1.4,0,.6,0h.1s0,0,0,0c0,0-.3.3-.4.3-.2.1-.3.3-.4.5v.2c-.2,0-.2,0-.2,0-.1,0-.3.1-.4.2h0c0-.1,0-.6,0-.7,0,0,.1,0,.2,0,0,0,0-.2,0-.3,0,0,0,0,0,0,.2,0,.2,0,.3-.2,0,0,0,0,0-.1,0,0-.2-.1-.3-.1,0,0-.1.2-.1.3,0,0,0,0,0,.1,0,0-.1.1-.2.2,0,0,0,0,0,0,0,0,0,.1,0,.2,0,.3-.2.6,0,.9,0,0,0,.2,0,.2,0,0,0,0,0,0,0,0,0,0,0,0,.2,0,0-.2.2-.4,0,0,.2-.1.3-.1,0,.1,0,.3,0,.4,0,0,.2,0,.2,0,.2,0,.5,0,.7,0,0,0,.2,0,.3,0,0,0,.2,0,.3,0,0,0,.1-.2,0-.3h0c0,0,0,0,.1-.1,0,0,0,0,0-.1.1,0,.2.1.3,0,.1-.2-.1-.3-.2-.3h0ZM26.9,25.9c0,0-.1,0-.2,0,0,0,0,0,0,0,0,0,0,.1,0,.2h0c-.1,0-.8,0-.9,0,0,0,0,0,0-.1,0,0,.3-.1.3,0h0c0,0,0,.1,0,.2.4,0,.2-.2.4-.3.1,0,.3,0,.4,0,0,0,0,.1-.1.2ZM27.1,25.4c0,0-.4,0-.5,0,0,0,0,0,0-.1,0,0-.1,0-.1,0,0,0,0,.1-.1.1,0,0-.2,0-.3,0,0,0,0,0,0,0,0,0,0-.2.1-.2h.1c0,0,.1,0,.2,0,.1,0,.4,0,.5,0,0,0,0,0,0,0,0,0,0,.2,0,.3ZM24.3,25.4c-.1,0,0-.4-.2-.5-.2,0-.6.1-.8,0,0,0,0,0,0,0,0,0,.3-.3.4-.4,0,0,.1,0,.2,0,0,0,0,0,0,0,0,0,.1,0,.2,0h0c0,0,0-.1,0-.1-.1,0-.5.2-.7,0h0c0-.2.1-.2.1-.3h0c0,0,0,0-.1,0,0,0,0,0-.1,0,0,0,0,0,0,0-.2.2-.4.3-.6.4-.3.3-.4.6-.6,1v.3c-.1,0-.1.3-.1.3,0,0,0,0,0,.1,0,0,0,.1,0,.2.1,0,.2,0,.3,0,0-.1,0-.2,0-.3,0-.1,0-.4,0-.6,0-.3.3-.7.5-.9l.3-.3h0c0,0,0,.2,0,.2,0,0,.3,0,.4,0,0,0,0,0,0,0l-.2.2h0c0,.1,0,.1,0,.2v.2c-.2,0-.2,0-.2.1,0,0-.1.2-.2.3,0,0-.2,0-.3,0h0c-.1.1-.3.1-.2.3.2.2.3,0,.5,0,0,0,0,0,0,0,0,.1,0,.2,0,.3.1.2.5.1.7,0h.1c.1,0,.2,0,.4,0,0,0,.1-.2,0-.3,0-.1.2-.2.3-.3,0,0,.1,0,.2,0,0,0,0-.2,0-.3,0,0,0,0-.1,0h0ZM23.7,26.1c-.1,0-.7.1-.8,0,0,0,0-.1,0-.2,0,0,.3,0,.3,0,0,0,.1,0,.2,0,0,0,0,0,.1-.1h.2s.1,0,.1,0c0,0,0,0,0,0,0,0-.2.2-.2.3ZM24,25.4s-.1,0-.2,0c0,0-.2,0-.3,0,0,0-.1,0-.2,0,0,0,0,.1-.1.1,0,0-.1,0-.2,0,0,0,0-.2,0-.2,0,0,0,0,.1,0,.2,0,.5,0,.7,0h0s0,.1,0,.2ZM21.9,25.1h0c0,0,.2,0,.2,0,0-.1,0-.2,0-.4,0,0,0,0,0,0,0,0,.2.1.3,0,.1-.1.1-.4-.1-.4,0,0-.2.1-.2.2,0,0,0,.2,0,.2,0,0-.2.1-.2.2,0,0,0,0,0,.1ZM33.4,25.5c.2,0,.1-.4.2-.4,0,0,.3-.1.4-.2.4,0,.8-.2,1.2-.2h0c0,0,0,.1,0,.1,0,0,0,.1.1.1.2,0,.3-.2.2-.4,0-.2-.3-.2-.5-.2h0c.1-.2.2-.4.1-.7,0,0-.2,0-.2,0-.1,0-.3.2-.4.2,0,0,0,0,0,0,0,0,0-.2,0-.3,0,0,0,0,0,0,0,0,0,0,0,0-.1,0-.2.2-.3.3,0,0,0,0,0,0,0,0,0,0,0-.1-.2,0-.3.4-.4.5h0c0,0,0,0,0-.1,0,0,0,0,0,0,0,0,0-.3,0-.3,0,0-.1,0-.1,0h0c0,.2,0,.3,0,.5,0,0,0,.1,0,.2h0s0,0-.1,0c0,0-.2,0-.2,0,0,.1,0,.5,0,.6,0,0,0,.2,0,.2ZM34.7,24.3c0,0,0-.1,0-.2,0,0,.2,0,.3-.1,0,0,0,.1,0,.2,0,0-.1.3-.2.3,0,0,0,0,0,0,0,0,.2-.1.2-.2,0,0,0,0-.2,0-.2,0-.1.2-.2.3h0s0,0,0,0c0,0,0-.1,0-.2ZM34.3,24.1s0,0,0,.1c0,0,0,0,0,.1v.2c0,0-.1,0-.2,0h0c0-.2,0-.3.2-.5ZM34,24.3s0,0,0,0c0,0,0,.3,0,.3,0,0,0,0,0,0,0,0,0,0,0,0,0,0,0-.2,0-.3Z"/>
        <path class="cls-2" d="M20.8,25s0,0,0-.1c0-.2,0-.3-.1-.3,0,0-.1,0-.2,0,0,0,0,0-.1,0,0,0-.1.2-.1.4.2,0,.3.2.5,0h0ZM34.7,25.4s0,0,0,0h0c0,0,0,0,.2-.1,0,0,0-.2,0-.3,0,0,0,0-.1,0,0,0-.1,0-.2,0-.2,0-.8,0-.7.4.1,0,.3,0,.4,0,0,0,.1,0,.2,0h0c-.1.2-.3.2-.4.3,0,0-.1.1-.2.2,0,0-.2.2,0,.3,0,0,.2,0,.2,0,0,0,.2-.1.2-.2,0,0,.3,0,.3,0,0,.2,0,.4-.1.5,0,0-.1,0-.1.1,0,0,0,0,0,0,0,.1,0,.3.1.2,0,0,0-.1.2-.2h0c.2-.2.2-.4.2-.8.1,0,.4,0,.5,0,0,0,0-.2,0-.3,0,0-.4,0-.5,0ZM30.5,24.4c0-.3-.7,0-.9,0,0-.1,0-.3-.1-.3-.2.1-.1.1,0,.3,0,0-.7,0-.9.1,0,0-.2,0-.2.2,0,0,.1.1.3,0,.2,0,.5-.1.7-.2,0,0,0,0,0,0,0,0-.5.3-.6.3-.1,0-.2,0-.2.2,0,0,0,0,0,.1,0,0,.2,0,.3,0,.1,0,0-.1.1-.2.1,0,.2-.1.4-.2,0,0,0,0,0,0,0,.1-.1,0-.2.1-.1,0-.2,0-.1.2,0,0,0,0,0,0,0,0-.3.2-.4.2-.2,0-.4,0-.3.2,0,0,.2.1.3,0h.1c.2-.1.4-.1.6-.2,0,0,0,0,0,0h0c0,0-.3,0-.4,0h-.4c0,0-.1.1-.1.1-.1,0-.3,0-.4,0,0,0,0,0,0,0,0,0,.3,0,.4,0,.2,0,.4,0,.6,0h.2c0,0,.1,0,.2,0,0,0,0,0,0,0-.1.2-.5,0-.7.1,0,0-.3,0-.2.2,0,.1.7,0,.8,0h0c0,.1-.1.4-.2.4,0,0-.1,0-.2,0h0c0,0,0,.2,0,.2,0,0,0,0,0,0,.2-.1.4-.2.5-.4,0,0,0-.2.1-.3,0,0,.2,0,.3,0,.1,0,.1-.2.2-.3.1-.1.4,0,.4-.3,0,0-.2,0-.2,0,0,0,0,0,0-.1,0,0-.3,0-.5,0,0,0,0,0,0,0h0c0,0,0-.2,0-.2,0,0,.4-.1.3-.3,0,0-.2-.1-.3-.1,0,0-.1,0-.2,0,0,0,0,0,0,0h0c.2-.1.8,0,.9-.2h0ZM28.9,25.3s0,0,0,0h.2c0,0,.1-.1.1-.1h0c0,0-.2.1-.4.1ZM29.7,25.8s0,0,0,0c0,0,0,0,.1,0,0,0,0,0,0,0,0,0,0,0,0,0,0,0-.2,0-.2,0ZM29.8,25.4c0,0,.1,0,.2,0h0c0,0-.1,0-.2,0,0,0,0,0,0,0,0,0,0,0,0,0ZM29.6,24.8s0,0,.1,0c0,0,0,0,.1,0h0c0,0-.1.2-.2.2h0s0,0,0,0h0ZM32.2,25.7h0c0-.1,0-.2-.2-.1,0,0,0,0,0,0-.2.1,0,.3.1.4,0,.1.2.3.4.3,0,0,.1,0,.2,0,0,0,.2.1.3.1,0,0,0,0,0,0h.2c0-.2,0-.3-.1-.3,0,0-.1,0-.2,0-.2,0-.4-.2-.5-.3,0,0,0,0,0,0h0Z"/>
        <path class="cls-2" d="M32,24.7c0-.2.3-.8-.1-.8,0,0-.2.1-.1.2h0c0,.3,0,.5-.1.6-.2,0-.8.2-.7.4,0,.2.2.2.4.2,0,0,0,0,0,0,0,.3-.3.5-.5.7-.1.2-.3.3-.4.5h0s0,0,0,0c.3-.2.6-.5.8-.7,0-.1.2-.2.2-.3,0-.1,0-.2.2-.3.1-.1.6-.1.7-.3,0,0,0-.1,0-.2,0-.2-.3-.2-.5-.2h0Z"/>
      </g>
    </g>
  </g>
</svg>