<svg width="128" height="137" fill="none" xmlns="http://www.w3.org/2000/svg"><g filter="url(#a)" fill="#980042"><path d="m67.466 25.648-.759 4.734c-.17 1.13.79 2.073 2.476 2.336a2.351 2.351 0 0 0 2.986-1.996l.51-3.202c.14-.928.573-1.408 1.099-1.547.17 0 .34 0 .355-.109.016-.108 0-.123-.139-.139l-1.098-.124-1.145-.2c-.124 0-.155 0-.17.092-.016.093.139.14.294.217.48.247.742.82.588 1.748l-.51 3.28a1.856 1.856 0 0 1-2.26 1.779 1.547 1.547 0 0 1-1.439-1.888l.743-4.734c.14-.866 1.006-.294 1.052-.603.047-.31 0-.155-.186-.17l-1.547-.217-1.547-.263c-.062-.015-.062.031-.062.14 0 .108.898 0 .759.866Zm5.94 7.488s0 .124.093.17l1.145.48 1.13.526h.185c.031 0-.232-.186-.449-.434-.216-.247-.417-.727 0-1.547l1.795-4.069 1.934 7.55c0 .155 0 .31.14.356.138.047.154-.093.231-.294l2.275-5.152c.355-.804.82-.99 1.175-.99.356 0 .557.217.62 0 .061-.216 0-.124-.094-.17l-1.144-.48-1.13-.526h-.186c-.03 0 .233.186.465.433.232.248.417.743 0 1.548l-1.315 2.955-1.547-6.08-1.192-.434-1.067-.495h-.17c-.031 0 0 .14.17.232a1.36 1.36 0 0 1 .65 1.068l-1.904 4.41c-.355.804-.82.99-1.175.99-.356 0-.557-.217-.635-.047Zm12.424-.851-3.296 4.641c-.51.712-1.02-.185-1.206 0-.186.186 0 .14.093.248l1.253.866 1.222.898c.14.108.216.077.263 0 .046-.078-.836-.45-.325-1.16l3.295-4.642c.51-.712 1.021.185 1.207 0 .186-.186 0-.14-.093-.248l-1.253-.866-1.222-.897c-.14-.109-.217-.078-.263 0-.047.077.835.448.325 1.16Zm4.208 3.326-2.831 6.312c0 .124-.109.248 0 .294.108.047.17 0 .31 0l5.832-2.243c1.547-.619 1.84.31 2.073.093.232-.217 0-.186-.14-.356l-.773-.773-.743-.82c-.077-.093-.17-.093-.216 0-.047.092.634.696-.124 1.423a2.042 2.042 0 0 1-.619.387l-3.543 1.377 1.996-4.255c.056-.127.134-.242.232-.34.418-.403.743.355.913.2.17-.154 0-.123-.093-.278l-1.036-1.067-1.052-1.145h-.186c-.046 0 .402.263 0 1.191Zm5.848 6.622-4.873 2.908c-.759.45-.867-.572-1.13-.417-.263.154-.093.108 0 .263l.805 1.3c.773 1.299 1.547 2.568 2.243 3.805l2.336-.835.294-.124a.107.107 0 0 0 .033-.077.108.108 0 0 0-.033-.078c0-.077-.14 0-.356 0a3.094 3.094 0 0 1-3.496-1.361c-.356-.604-.232-.913.2-1.16l2.368-1.408.14.232a1.361 1.361 0 0 1-.573 1.934c-.186.123-.217.185-.155.278.062.093.108 0 .186 0l2.877-1.717c.078 0 .109-.124 0-.17-.108-.047-.123-.093-.31 0a1.362 1.362 0 0 1-1.871-.48l-.016-.232 2.708-1.547.31.51a2.615 2.615 0 0 1 .185 2.847c-.387.727-.557.82-.51.897.046.078.077.078.123 0l.217-.2 1.547-1.548c-.665-1.098-1.346-2.197-2.042-3.373-.232-.37-.48-.835-.758-1.315-.093-.154-.155-.154-.232-.108-.078.046.541.743-.217 1.176Zm-2.058 9.329c-.077 0-.124.077 0 .248.155.541.325 1.036.449 1.454.124.417.248.928.402 1.47 0 .17.108.2.201.17.093-.031-.386-.867.465-1.114l2.521-.743a1.408 1.408 0 0 1-.31 1.547l-2.35 2.058.34 1.13c.108.37.2.757.309 1.144 0 .093.077.093.14 0 .061-.093-.31-.665.386-1.33l1.284-1.238a2.135 2.135 0 0 0 .433-2.46c.867 2.089 1.764 2.43 2.646 2.166.882-.263 1.547-1.547 1.052-3.295-.201-.697-.356-1.145-.511-1.671-.154-.526-.247-.928-.402-1.47-.015-.093-.139-.093-.139-.093s.387.867-.464 1.114l-5.43 1.547c-.867.31-.728-.711-1.022-.634Zm7.488.433.201.665c.263.898 0 1.548-1.206 1.934a1.548 1.548 0 0 1-2.197-1.206l-.124-.403 3.326-.99Zm1.872 11.743c.193-.591.308-1.205.341-1.826a2.316 2.316 0 0 0-.691-1.667 2.31 2.31 0 0 0-1.676-.669c-2.708.14-1.424 4.456-3.62 4.564-.836 0-1.44-.572-1.548-1.686 0-1.547 1.284-2.213 2.661-2.538.232 0 .387 0 .387-.17s0-.108-.17-.108l-3.094.14s-.093 0-.093.092c0 .093.371.108.402.526.031.418-.464.96-.402 2.042a2.677 2.677 0 0 0 2.707 2.754c2.955-.14 1.749-4.533 3.543-4.641.836 0 1.207.557 1.238 1.33 0 1.222-.634 1.841-1.826 2.383-.433.2-.65.216-.65.325 0 .108.001.093.109.077h.356l2.057-.294c.17 0 .201 0 .186-.14-.016-.138-.201-.108-.217-.494Zm-.015 3.728c-.31 0 0 .944-.882.836l-5.616-.758c-.866-.124-.325-.99-.619-1.037-.294-.046-.14 0-.17.201 0 .557-.124 1.083-.186 1.547-.062.465-.154.944-.232 1.547 0 .17 0 .232.108.232.109 0 0-.943.882-.835l5.616.758c.867.124.325.99.619 1.037.294.046.14 0 .17-.201 0-.557.124-1.083.186-1.547.062-.465.155-.96.217-1.548.046-.17 0-.216-.093-.232Zm-.882 6.127-1.779-.975-.356-.185a.094.094 0 0 0-.031-.024.094.094 0 0 0-.108.023 4.055 4.055 0 0 1 1.346 3.095l-5.725-1.857c-.665-.216-.696-.588-.526-1.098v-.232c0-.031-.139 0-.17.123-.2.588-.356 1.13-.526 1.548-.17.417-.356 1.005-.557 1.547v.2c0 .032.155 0 .201-.138.17-.511.418-.774 1.083-.557l5.74 1.933c-1.253 1.873-2.877 1.424-2.97 1.671a.093.093 0 0 0 0 .124h.386l2.012.294h.232a.249.249 0 0 0 0-.17.457.457 0 0 1 0-.31l1.547-4.64a.464.464 0 0 1 .186-.233s.108 0 .123-.124c.016-.123.047.062-.108-.015Zm-4.208 8.432-3.651-.202-2.073-1.345c-.743-.465.123-1.037-.14-1.192-.263-.154-.139 0-.232.108-.294.48-.557.929-.789 1.3-.232.371-.526.805-.82 1.284-.093.155 0 .217 0 .263 0 .047.403-.866 1.145-.402l2.243 1.392 1.145 2.244c.929 1.81.403 2.088.588 2.197a.109.109 0 0 0 .155 0l.526-.867c.232-.371.387-.588.572-.882.186-.294 0-.216 0-.247s-.417.541-1.036.154a2.862 2.862 0 0 1-.882-1.02l-.835-1.548 2.738.186c.216-.001.429.052.619.155.526.325 0 .773.124.897.123.124.139 0 .216-.14.279-.432.526-.881.79-1.314l.835-1.3v-.216c0-.031-.263.495-1.238.495ZM38.55 83.572c-.232-.356-.108-1.068-.712-1.965a2.677 2.677 0 0 0-3.744-.96c-2.46 1.64.836 4.781-.665 5.787-.696.464-1.315.14-1.748-.51-.681-1.006-.402-1.904.34-2.971.263-.387.449-.526.387-.619-.062-.093 0 0-.14 0l-.278.232-1.547 1.315c-.14.093-.14.155-.093.217.047.062.279-.14.48.17.143.632.372 1.24.68 1.81a2.321 2.321 0 0 0 3.234.79c2.259-1.548-1.083-4.55.758-5.772.696-.464 1.547-.263 2.15.666.882 1.33 0 2.552-.974 3.543-.17.17-.31.247-.248.34.062.093.093 0 .202 0l2.521-1.686v-.124c0-.047-.294.015-.603-.263Zm-3.388-5.632c.077 0 .123-.093 0-.247-.186-.526-.372-1.021-.51-1.44-.14-.417-.295-.912-.465-1.453 0-.17-.124-.186-.201-.155-.077.03.418.85-.418 1.13l-2.738.912-.851-2.707 2.692-.929c.835-.278.727.743 1.021.65.294-.093.124-.093 0-.247-.186-.526-.371-1.021-.51-1.44-.14-.417-.28-.912-.465-1.453 0-.17-.123-.186-.2-.155-.078.03.417.85-.419 1.13l-5.26 1.81c-.835.278-.727-.743-1.02-.65-.295.092-.125.092 0 .247.17.526.37 1.021.51 1.439.139.418.278.928.464 1.454 0 .17.124.186.201.155.077-.031-.418-.851.418-1.13l2.382-.804.913 2.723-2.383.804c-.835.279-.727-.742-1.02-.65-.295.094-.124.094 0 .248.185.526.37 1.021.51 1.439.14.418.278.913.464 1.454 0 .17.124.186.201.17.078-.015-.418-.85.418-1.129l5.322-1.826c.758-.278.65.743.944.65Zm-3.528-9.84c.882 0 .495.913.805.898.31-.016.14 0 .124-.232 0-.557 0-1.083-.093-1.547 0-1.547-.14-2.97-.186-4.41l-2.444-.355-.263-.078a.109.109 0 0 0-.1.067.11.11 0 0 0-.009.042c0 .092.109.108.31.154a3.094 3.094 0 0 1 2.444 2.847c0 .696-.216.913-.727.928l-2.831.14v-.279c0-.758.448-1.346 1.423-1.439.217 0 .263 0 .263-.17s0-.108-.155-.108l-3.341.154c-.093 0-.155 0-.155.124s0 .14.278.14a1.363 1.363 0 0 1 1.424 1.299v.278l-3.094.155v-.588a2.614 2.614 0 0 1 1.175-2.568c.697-.464.882-.464.867-.557-.016-.093 0-.108-.093-.108l-.279.077-2.057.65c0 1.284.154 2.584.216 3.93v1.547c0 .17 0 .216.155.216s-.17-.928.712-.974l5.631-.232Zm-6.56-8.601c.124 0 .14 0 .186-.217a1.361 1.361 0 0 1 .913-.835l4.641 1.02c.851.186 1.13.604 1.207.96.077.356-.108.588 0 .619.108.03.124 0 .155-.124.077-.356.154-.789.247-1.222.093-.433.248-.882.403-1.222 0-.124 0-.155-.078-.17-.077-.016-.139.262-.325.525-.185.263-.634.557-1.547.372l-4.332-.944 7.055-3.42c.155 0 .294-.108.31-.216.015-.108-.124-.123-.325-.17l-5.555-1.207c-.85-.185-1.129-.603-1.206-.959-.078-.356.108-.588 0-.619-.108-.03-.124 0-.155.124-.077.356-.155.789-.247 1.222-.093.433-.202.851-.294 1.207 0 .124 0 .155.077.17.077.016.124-.216.278-.51.155-.294.635-.557 1.547-.372l3.095.666-5.6 2.815-.264 1.192c-.093.402-.186.789-.278 1.145-.047.092-.047.154.093.17Zm4.503-8.71a.078.078 0 0 0 .061.03.078.078 0 0 0 .062-.03c0-.124-.092-.109-.587-.852a2.692 2.692 0 0 1-.109-2.83l.31-.666 4.455 6.606c.093.124.14.201.186.217.046.015.108 0 .14 0 .386-.805.742-1.64 1.129-2.445.386-.804.773-1.547 1.16-2.413l-1.903-1.393-.356-.247a.11.11 0 0 0-.077-.033.11.11 0 0 0-.078.033c-.077.17.526.433.944 1.16a2.863 2.863 0 0 1 .078 2.785l-.387.805-4.44-6.498a1.237 1.237 0 0 0-.232-.294s-.093 0-.155.123c-.356.759-.665 1.548-1.021 2.213-.356.665-.697 1.454-1.037 2.166l1.655 1.377.202.185Zm2.753-8.401 4.425 3.543c.681.54-.232 1.02 0 1.206.232.186.14 0 .248-.077l.928-1.207.975-1.176c.108-.139.093-.2 0-.263-.093-.062-.495.805-1.176.263l-2.228-1.794 1.81-2.244 2.259 1.81c.68.542-.232 1.022 0 1.207.232.186.14 0 .248-.077l.928-1.207.974-1.176c.109-.139.093-.2 0-.263-.092-.062-.495.805-1.175.263l-4.425-3.543c-.68-.541.232-1.02 0-1.206-.232-.186-.14 0-.248.077l-.928 1.207-.974 1.176c-.109.139-.093.2 0 .263.092.061.495-.805 1.175-.263l1.965 1.547-1.825 2.258-1.965-1.547c-.681-.541.232-1.02 0-1.206-.232-.186-.14 0-.248.077l-.928 1.207-1.021 1.145c-.108.139-.093.2 0 .263.093.061.526-.851 1.207-.263Zm7.55-8.185 3.296 4.642c.51.711-.51.913-.325 1.16.185.247.124.093.263 0l1.222-.897 3.605-2.553-1.021-2.259a2.464 2.464 0 0 0-.155-.278.109.109 0 0 0-.155 0c-.015.046-.015.046-.015.263a3.095 3.095 0 0 1-1.068 3.589c-.572.402-.882.31-1.175-.093l-1.547-2.243.216-.155a1.362 1.362 0 0 1 1.98.418c.14.17.202.201.279.14.077-.063 0-.11 0-.187l-1.934-2.738c0-.077-.124-.093-.186 0s-.077.124 0 .31a1.36 1.36 0 0 1-.325 1.902l-.216.155-1.795-2.614.48-.34a2.614 2.614 0 0 1 2.816-.419c.758.325.866.48.943.434.078-.047 0-.093 0-.14l-.216-.185-1.656-1.377-3.156 2.29-1.253.866c-.14.108-.14.17-.093.247.047.078.696-.65 1.191.062Zm6.993-5.368a1.362 1.362 0 0 1 1.207.31l1.687 4.47c.309.82.108 1.285-.155 1.547-.263.264-.542.233-.48.403.062.17 0 .108.186 0l1.16-.464 1.176-.418c.124 0 .124-.108.108-.17-.015-.062-.294 0-.634 0s-.804-.232-1.114-1.052l-1.563-4.038 6.669 4.038c.139.093.263.185.355.154.093-.03 0-.17 0-.37l-2.01-5.37c-.31-.82-.11-1.284.154-1.547.263-.262.541-.232.48-.402-.063-.17 0-.108-.186 0l-2.305.82c-.124 0-.124.109-.093.17.03.062.294 0 .619 0s.82.232 1.114 1.052l1.083 3.002-5.4-3.094-1.145.433-1.114.402c-.077 0-.108 0-.077.155.03.154.108.015.278-.031ZM43.594 94.262a1.02 1.02 0 1 0 2.04.001 1.02 1.02 0 0 0-2.04 0ZM82.58 94.262a1.021 1.021 0 1 0 2.043 0 1.021 1.021 0 0 0-2.042 0ZM52.257 94.185c-.928-.186-1.114-.325-1.16-.17-.046.154 0 .123.108.17l1.408.48c.186 0 .232.139.155.37l-1.547 4.843c-.14.434-.495.573-1.099.403-.603-.171-.68-.202-.742 0-.062.201 0 .139.123.185l2.136.696 2.088.697h.201c.016 0 0-.202-.619-.418-.618-.217-.773-.542-.634-.99l1.919-6.05v-.278c-.77.16-1.56.18-2.337.062Zm7.999 1.145c-1.841-.201-2.909.696-3.094 2.011a2.274 2.274 0 0 0 2.305 2.49 2.584 2.584 0 0 0 1.547-.293 5.014 5.014 0 0 1-3.218 3.094v.093c.495 0 4.641-.712 4.92-3.868a2.925 2.925 0 0 0-2.46-3.527Zm1.083 2.862c-.027.328-.1.651-.217.96a1.548 1.548 0 0 1-1.284.448c-.711 0-1.3-.68-1.13-2.166.171-1.485.852-1.98 1.548-1.918.696.061 1.3.696 1.083 2.66v.016Zm7.705.402a1.81 1.81 0 0 0-1.548-3.202 2.398 2.398 0 0 0-2.46 2.336 1.98 1.98 0 0 0 1.037 1.547 2.164 2.164 0 0 0-1.052 1.918 2.28 2.28 0 0 0 .978 1.483 2.267 2.267 0 0 0 1.745.327c1.795-.154 2.94-1.268 2.831-2.521a2.011 2.011 0 0 0-1.531-1.888Zm-1.548-3.001a1.546 1.546 0 0 1 1.733 1.547 1.686 1.686 0 0 1-.34 1.361c-.79-.185-2.475-.433-2.568-1.547a1.223 1.223 0 0 1 1.145-1.361h.03Zm.202 7.209a1.796 1.796 0 0 1-1.996-1.841 1.546 1.546 0 0 1 .603-1.547c.467.098.927.228 1.377.387 1.207.325 1.547.789 1.547 1.377a1.549 1.549 0 0 1-1.547 1.624h.016Zm8.462-6.25a1.547 1.547 0 0 0 .186-1.315 1.932 1.932 0 0 0-2.584-1.083 2.336 2.336 0 0 0-1.686 2.166.092.092 0 0 0 .108 0c.201 0 0-.928 1.176-1.284a1.255 1.255 0 0 1 1.748.789 1.407 1.407 0 0 1-.17 1.408c-.433.433-.913.325-.85.557.061.232.448-.093.897-.093a1.78 1.78 0 0 1 1.655 1.361 1.548 1.548 0 0 1-.928 2.166c-.496.155-.975 0-1.238-.711-.263-.712-.573-.944-1.099-.774a.788.788 0 0 0-.48 1.006c.233.742 1.409 1.129 2.894.665a2.862 2.862 0 0 0 2.104-3.404 2.398 2.398 0 0 0-1.733-1.454Z"/><path d="M104.55 46.92a44.002 44.002 0 0 0-53.525-24.964A44 44 0 1 0 108 63.94a43.733 43.733 0 0 0-3.45-17.018Zm-40.395 59.394a42.311 42.311 0 0 1-41.5-50.568A42.314 42.314 0 0 1 106.467 64a42.359 42.359 0 0 1-42.313 42.313Z"/><path d="M56.59 67.73c.1.033.208.033.309 0 .209-.023.407-.103.572-.233 0 0 .124 0 .124-.077 0-.078-.449-.31-.68-.31-.261.01-.509.115-.697.294.015.17.294.294.371.325Zm2.63 5.43c.123-.65-.093-.48-1.455-.526h-3.388a.355.355 0 0 0-.31.402c0 .464-.123.418 2.197.418h.898c1.454-.093 1.81.077 2.057-.294Z"/><path d="M90.811 73.098a2.042 2.042 0 0 0-.634-1.547l-6.946-6.947a2.043 2.043 0 0 1-.604-1.454v-1.454a2.041 2.041 0 0 0 .635 1.547l6.946 6.946a2.04 2.04 0 0 1 .603 1.455v-7.86a2.041 2.041 0 0 0-.634-1.547l-6.946-6.947a2.043 2.043 0 0 1-.604-1.454v-1.454a2.042 2.042 0 0 0 .635 1.547l6.946 6.947a2.04 2.04 0 0 1 .603 1.454v-8.695a2.057 2.057 0 0 0-.526-1.268L75.713 37.793a2.058 2.058 0 0 0-1.269-.526h-1.067a.51.51 0 0 0-.511.51v6.931a.774.774 0 0 1-.773.774h-.743v-6.668a1.547 1.547 0 0 0-1.547-1.547H58.508a1.547 1.547 0 0 0-1.547 1.547v6.668h-.774a.773.773 0 0 1-.758-.774v-6.915a.511.511 0 0 0-.51-.51h-1.083c-.471.024-.919.21-1.27.525L37.994 52.382c-.315.35-.501.798-.526 1.269v8.694a2.045 2.045 0 0 1 .603-1.454l6.978-6.962a2.043 2.043 0 0 0 .634-1.547v1.454a2.042 2.042 0 0 1-.603 1.455l-6.947 6.946a2.045 2.045 0 0 0-.634 1.547v7.86a2.04 2.04 0 0 1 .603-1.455l6.947-6.946a2.043 2.043 0 0 0 .634-1.547v1.454a2.042 2.042 0 0 1-.603 1.454l-6.947 6.947a2.043 2.043 0 0 0-.634 1.547v1.191c.025.47.21.918.526 1.269l2.042 2.042 4.982-5.044a2.043 2.043 0 0 0 .634-1.547v1.454a2.041 2.041 0 0 1-.603 1.455l-4.317 4.316L52.46 89.93l3.094-5.693a1.547 1.547 0 0 1 1.408-.85h1.222a1.547 1.547 0 0 0-1.423.865l-3.466 6.189c.155.05.317.075.48.077h6.002l1.145-6.327a1.037 1.037 0 0 1 1.021-.851h1.052a1.036 1.036 0 0 0-1.02.866l-1.145 6.312h6.513l-1.145-6.312a1.037 1.037 0 0 0-1.021-.866h1.052a1.037 1.037 0 0 1 1.021.85l1.145 6.328h6.05c.162-.002.323-.028.479-.077l-3.466-6.189a1.547 1.547 0 0 0-1.423-.866h1.222a1.547 1.547 0 0 1 1.408.851l3.094 5.693 11.696-11.696-4.316-4.316a2.044 2.044 0 0 1-.604-1.455V71.01a2.043 2.043 0 0 0 .635 1.547l4.997 4.998 2.042-2.043c.316-.35.501-.798.526-1.268l.078-1.145Zm-21.01-20.206c.233-2.135.28-1.918 1.548-2.367.959-.24 1.937-.396 2.924-.464 1.331.001 2.654.22 3.914.65.65.232.387.449.418 2.909-.109.928-.186.773-1.13.866a7.1 7.1 0 0 1-2.212-.232c-.325-.402-.727-2.615-1.547-2.336-.31.232 0 .263-.542 1.33a6.805 6.805 0 0 1-.495.913 5.383 5.383 0 0 1-2.29.279c-.742-.016-.587-.418-.587-1.547Zm-1.546-1.81c0-.448 0-.557.37-.587.372-.031.589.2.635.495.047.293 0 1.423 0 2.336 0 .526 0 1.655-.418 1.81-.417.154-.742.108-.711-.418.025-.423.092-.843.201-1.253.041-.795.015-1.592-.077-2.383Zm.278 5.462c.542.216.573 1.903.573 1.903v2.212a3.48 3.48 0 0 1 0 1.068.757.757 0 0 1-.681.108c-.248-.14-.371-1.455-.371-1.888a19.776 19.776 0 0 0-.14-2.429c-.046-.974.062-.866.681-.974h-.062Zm-2.042-.913c.14-1.27.213-2.545.216-3.822a6.19 6.19 0 0 1 .093-1.438c0-.201.279-.232.635-.263.355-.031.448 1.903.448 1.903 0 1.748-.526 5.182-.526 6.08-.17 1.547.526 5.415.14 5.77-.124 0-.62.14-.743-.108a16.71 16.71 0 0 1-.464-4.084c-.017-1.35.071-2.7.263-4.038h-.062Zm-1.547-2.29c.216-1.052.216-2.259.216-2.584a.82.82 0 0 1 .712-.108c.387.279.51 3.698-.356 4.394-.263 0-.572 0-.665-.155-.093-.154.062-.711.201-1.547h-.108Zm-.464 4.642c0-1.377.139-1.548.417-2.027a.758.758 0 0 1 .82.232 25.7 25.7 0 0 1-.185 4.007c0 1.067.278 2.166-.155 2.336-.433.17-.774 0-.804-.294-.047-1.33.015-4.285.015-4.285l-.108.03Zm-1.238 16.879c0 1.81-.108 1.64-1.361 1.64h-3.992v1.315c0 .51.449.881-2.445 1.175-.68 0-5.028-.108-5.322-.618-.294-.511-.85-1.377-.448-2.12.75.6 1.605 1.056 2.522 1.346 1.202.246 2.439.272 3.65.077.62-.247.604-.433.573-1.114l-3.636-.216c-1.113-.14-1.052-.124-1.067-.681-.016-.557.17-.557.897-.51.807.091 1.618.132 2.43.123h1.546v-.897h-2.135c-1.84-.078-1.547-.34-1.64-1.176.155-1.547.155-1.3 1.547-1.392 1.393-.093 4.472-.078 5.323 0 1.33.124 1.16.216 1.129 1.408-.14.68.108.912-1.207 1.114l-1.547.092v.882h2.97s1.053 0 1.053-.897.123-2.197.123-2.197a.926.926 0 0 0-.928-.944h-7.921c-1.547 0-1.547.263-1.748.805-.201.541-.263 3.094-.727 3.094-1.192-.294-.913-.418-.898-1.114a22.42 22.42 0 0 1 .387-2.831c.248-.65.371-1.021 4.255-.99h7.039c1.191 0 1.547 0 1.764 1.222.059 1.125.028 2.253-.093 3.373l-.093.03Zm-11.68-7.937c0 .278.463.232 1.392.2.928-.03.758-.17.789.496 0 .248 0 .31-.51.325-1.857.093-1.703 0-1.687.48.015.48.325.293 1.439.232.727 0 .789-.14.835.355.028.17.028.342 0 .511-.526 0-2.568.217-3.094.155-.526-.062-.542 0-.51-1.114.027-.916.136-1.827.324-2.723.232-.495.263-.402 2.336-.48 1.099 0 .975 0 1.068.666 0 .262 0 .324-1.702.433-.743-.078-.603-.14-.588.433l-.093.03Zm3.094-1.006c-.109 0 .263-.588.464-.634.402.158.794.339 1.175.541.19.078.377.165.557.263l.294-.139a6.188 6.188 0 0 1 1.547-.712c.078 0 .48.666.202.836-.32.231-.656.438-1.006.619l.619.34c.448.217.526.325.48.758a1.05 1.05 0 0 1-.341.294c-.232.108-.433.232-.68.34l.572.279c.82.464.773.356.526.774a.696.696 0 0 1-.96.123c-.108 0-.742-.31-1.33-.618-.4.233-.814.445-1.238.634-.572.263-.665.278-.866 0-.201-.279-.14-.48.449-.82.192-.09.378-.194.557-.31-.248-.139-.542-.232-.851-.433-.31-.2-.31-.17-.34-.325-.032-.154-.093-.448.556-.789l.573-.278a2.693 2.693 0 0 1-.882-.774l-.077.031Zm8.338 3.605c-.433.093-2.908.155-2.955.14-.046-.016-.263 0-.263-.326 0-.325 0-.526.851-.51.851.015 1.44.077 1.44-.403 0-.48-.094-.448-1.409-.402-.758 0-.727 0-.758-.154-.093-.465-.2-.728.464-.774.913-.077 1.687 0 1.733-.232.047-.232 0-.542-.727-.495-1.547.108-1.547.216-1.624-.263-.078-.48-.202-.604 1.02-.68 1.223-.078 2.244-.171 2.321.386.205.919.293 1.86.263 2.8.093.851.047.82-.294.882l-.062.031Zm-.2-5.245c-.418.217-1.996-1.934-3.095-3.341a5.244 5.244 0 0 0-3.094-1.764c-1.872-.108-4.456 3.218-5.106 4.363-.325.51-.696 1.005-1.253.758-.557-.248-.495-.31-.2-1.16a16.833 16.833 0 0 1 3.851-4.518c1.052-.99 1.315-1.114 1.656-2.29.17-2.15.108-2.661-.51-2.77-.62-.108-3.389-.463-3.513 1.254-.093 1.454-.093 2.104-.093 2.692 0 .866 0 .727-.928.727-.572 0-.263-2.924-.263-4.904.31-1.207 1.037-.975 2.228-1.068.618.033 1.238.033 1.857 0 .99 0 1.222-.51 1.284-1.3.062-.788.154-.866.85-.974.697-.108.558.387.697 1.005.216.975-.108 1.053 1.3 1.114 1.407.062 2.103 0 2.63 0 1.16.109 1.794 0 1.872 1.78 0 1.547.417 2.924 0 3.48a1.409 1.409 0 0 1-1.114.45c-.48-.264.541-3.59-.728-4.147a6.483 6.483 0 0 0-3.434 0c-.573.279-.34 1.454-.402 2.305-.062.851 0 1.377 1.361 2.275a23.002 23.002 0 0 1 3.914 3.82c.82.774 1.5 1.826.294 2.198l-.062.015Zm.82-18.797h-6.19a1.547 1.547 0 0 1 1.548-1.547h3.852a.773.773 0 0 1 .774.773l.015.774Zm5.878 26.626c-.247.232-1.13.355-1.315.634a6.311 6.311 0 0 0 0 2.444c.155.17.573 0 1.207 0 .634 0 .634 1.547.278 1.547-.355 0-1.732.217-2.444.294-.64.094-1.287.14-1.934.14-.68 0-.665-.372-.743-.882-.077-.51 0-.79.496-.727a1.656 1.656 0 0 0 1.407-.34c.356-.295.155-1.053.202-1.64.046-.588.123-.99-.604-.805-1.02.247-1.083.402-1.083-1.346v-1.64c0-.836-.124-1.269.928-1.547.465-.093.217 1.284.202 1.934-.016.65-.078 1.268.263 1.268.866 0 .371-1.887.433-3.527 0-1.083-.186-1.547.665-1.733.851-.186.588.17.619 1.068.03.897 0 3.806.325 3.775.727 0 .588-2.538.541-2.97 0-.666-.139-.96.542-1.022.68-.062.541 0 .634.526.08.559.116 1.122.108 1.687-.034.519-.101 1.036-.2 1.547a1.81 1.81 0 0 1-.511 1.315h-.016Zm3.218 6.822a2.026 2.026 0 0 1-1.02 0c-.341 0-.511-.448-.79-1.346-.14-.48-.263-.959-.495-2.088-.2-.975-.2-1.98 0-2.955a9.814 9.814 0 0 1 .68-1.702c.282-.603.51-1.23.682-1.872a3.25 3.25 0 0 0 0-1.78 8.256 8.256 0 0 0-.418-1.129c-.248-.557-.418-.82.216-.897.913 0 .851 0 1.254.65a4.19 4.19 0 0 1 .464 1.702 5.476 5.476 0 0 1-.665 3.202 5.199 5.199 0 0 0-.882 3.25c.085 1.204.298 2.397.634 3.557.108.356.634 1.27.34 1.408Zm2.228-2.026c.279.974.913 1.81.495 1.918a1.408 1.408 0 0 1-1.083-.17 5.168 5.168 0 0 1-.99-2.475 12.686 12.686 0 0 1-.17-3.45c.418-1.842 1.361-2.414 1.547-3.946.1-.577.04-1.17-.17-1.717-.248-.743-1.114-1.872-.124-1.872.619 0 .634.077.867.263a4.64 4.64 0 0 1 .881 2.383 7.58 7.58 0 0 1-.804 3.249 7.148 7.148 0 0 0-.944 2.769c.077 1.008.243 2.007.495 2.986v.062Zm3.543-6.947c-.51 1.872-.944 1.656-1.3 3.744.101 1.08.303 2.146.604 3.187.124.604.696 1.81.418 1.903a1.825 1.825 0 0 1-1.176-.247c-.34-.263-.62-1.547-.774-1.903a7.41 7.41 0 0 1 .14-4.936 8.832 8.832 0 0 0 .881-2.599 6.9 6.9 0 0 0-.371-2.924c-.201-.51-.48-.897 0-.913 1.361 0 1.191.418 1.547 1.33a7.378 7.378 0 0 1 .031 3.296v.062Zm-.34-6.327c-.743.262-.681-.093-.712-1.16 0-.682 0-2.832-.882-3.095-.882-.263-1.547-.418-1.733-.155-.185.263 0 3.976 0 3.976 0 .898-.386.758-.773.697-.758-.202-.68-.635-.665-1.346.043-1.131.006-2.263-.109-3.389a1.439 1.439 0 0 0-1.918 1.207c-.232 1.439-.387 2.413-.449 2.723-.062.31 0 .433-.216.48-.217.046-.805.2-.898 0a7.367 7.367 0 0 1 .078-2.275c.173-.844.416-1.672.727-2.475.108-.557 1.547-.928 2.444-1.284.495-.14.356-.913.201-.928-.627-.006-1.253.04-1.872.139-.433 0-.82.34-1.16-.418-.17-.371-.248-.696.789-.758l1.33-.108s.96 0 1.022-.186c0-.379.096-.751.278-1.083 0-.124.464 0 .696 0 .51.14.31.17.403.805 0 .294 0 .37 1.547.325 1.175 0 2.042-.17 2.01.293 0 .232 0 .712-.107.836-.109.124-.51.108-1.052.124h-2.368c-.2 0-.108.309 0 .557.109.247 0 .216.728.386 2.583.758 2.552.604 2.955 2.275.154.868.232 1.748.232 2.63-.016.572.185.897-.51 1.145l-.016.062Z"/><path d="M76.61 53.124h.618c.325 0 .294-.556.108-1.253-.2-.417-.789-.386-1.361-.37-.232 0-.402 0-.325.401.232 1.346.34 1.13.96 1.222Zm-5.416.078h.449c.913 0 .85-.557.959-1.315 0-.31-.449-.232-.96-.14-.51.093-.479 0-.572.418-.092.418-.2.944.124 1.037Z"/></g><defs><filter id="a" x="-13" y="0" width="154" height="157" filterUnits="userSpaceOnUse" color-interpolation-filters="sRGB"><feFlood flood-opacity="0" result="BackgroundImageFix"/><feColorMatrix in="SourceAlpha" values="0 0 0 0 0 0 0 0 0 0 0 0 0 0 0 0 0 0 127 0" result="hardAlpha"/><feOffset dy="16"/><feGaussianBlur stdDeviation="6.5"/><feColorMatrix values="0 0 0 0 0 0 0 0 0 0 0 0 0 0 0 0 0 0 0.03 0"/><feBlend in2="BackgroundImageFix" result="effect1_dropShadow_49_8374"/><feBlend in="SourceGraphic" in2="effect1_dropShadow_49_8374" result="shape"/></filter></defs></svg>