<?xml version="1.0" encoding="UTF-8"?>
<svg xmlns="http://www.w3.org/2000/svg" version="1.1" viewBox="0 0 128 48.9">
  <defs>
    <style>
      .cls-1 {
        fill: #7c2e9a;
        fill-rule: evenodd;
      }

      .cls-2 {
        fill: #5c307d;
      }
    </style>
  </defs>
  <!-- Generator: Adobe Illustrator 28.7.1, SVG Export Plug-In . SVG Version: 1.2.0 Build 142)  -->
  <g>
    <g id="_图层_1" data-name="图层_1">
      <g>
        <path class="cls-2" d="M62,10.5c.2.1.2.4.3.8,0,0-.2.2-.3.2v1.9c.8-.5,2-1.3,2.1-2.1-.4-.6-1.5-1.4-2.1-1.5,0,0,0,.8,0,.8ZM62,18.5v-1.1s0,0,0,0c.5.3.3.8,0,1.2h0ZM61.8,11.6c0-.4,0-.8,0-1.2,0,0,.2,0,.2,0v-.8h0c0-.7-.4-1-.9-.8-.4.4-.6.9-.8,1.4v7.2c.3-.5.6-1,.9-1.4,0,0,0,0,0,0q0-.1,0-.2c-.2-.9-.5-1.6.3-2.4.1,0,.2-.1.4-.2v-1.9c0,0-.2,0-.2.2h0ZM62,17.4v1.1c-.3.4-.8.8-.9,1.1,0,.3.6.2.8,1.1-.6,2.5-.3,5,0,7.7-.2.6-1,.7-1.4.7-.1,0-.2-.2-.3-.3v-1.6h0c.2-.5.1-1.3,0-1.6v-1.4h0c0-.3,0-.6,0-.9,0,0,0,0,0,0v-1.4s0,0,.1,0c0,0,.1-.6,0-.7,0,0-.1,0-.2-.1v-2.9c.5-.4,1.1-.8,1.7-1ZM60.3,10.4v7.2c-.2.4-.4.8-.5,1.1.2-.1.3-.2.5-.3v2.9s0,0-.1,0c0,.2-.1.6,0,.7,0,0,0,0,.1,0v1.4c-.1,0-.4-.2-.5-.2v.2s0,.2,0,.2v.2s.1.2.1.2l.4.2v1.4s0,0,0,0c-.5-.2-.7-.2-.8-.6,0,0-.1,0-.2,0-.1.3-.2.9-.4,1.7,0,.5,0,3.1-1.2,2.9-.5-.4-.5-.4-.5-1,.4-1.9.8-3.6,1.4-5.4,0-.9.5-1.5.7-2.2-.7,0-1.3.8-1.7,0,0-.1,0-.2,0-.3,1-1.1,1.1-2.1.8-3.4,0,0,0-.2,0-.3.2-.4.6-.9.4-1.3-.7,0-1.4,1-1.8,1.4-1,.8-1.1.9-1.6,1.2-1.4.4-1.5.4-1.7,1.7,0,2-.3,4.5-1,6.5-.1.7-.2,1.4-.3,2.1,0,.7.2,1.9-.6,2.2,0,0-.1,0-.2-.1v-12.9c.1.4.2.9.5,1.4,1,.3.5,1.6.5,2.7.2-.4.3-.9.4-1.2.1-1.7,0-2.3,1-3.4.6-.4,1.5-.9,1.9-1.2q3.1-1.7,3.3-1.9c.7-1.1.8-2.5,1.2-3.7h0ZM60.3,27.3c-.2,0-.2,0-.8-.2,0,.4.3,1.3.8,1.8v-1.6ZM51.5,14c0,0,.2,0,.2,0,.2,0,.4-.1.6-.2s.3-.1.3-.4c.1-.8-.5-1.3-1.2-1.4v2.1h0ZM51.5,12v2h-.1c0,0-.2,0-.2-.2-.6-.5-.9-1.2-.8-1.9.3,0,.8,0,1.2,0h0ZM51.5,17.8v12.9c-.5-.3-.8-.5-1.1-.8q-.2-1.1-.3-2.3c0-.6,0-1.3,0-1.9,0-1.2,0-2.4,0-3.6,0-.4,0-.9,0-1.3,0-.4,0-.9,0-1.3v-.2c0-.9.2-1.8,1.1-2.1.2.1.3.3.4.5h0ZM109.2,25.6c.3,0,.6-.1.9-.2.3,0,.6.2,1.1.5,0,.9-1.4,1-1.9,1.5v-1.8ZM109.2,28.3c0,0,0,.1.1.2,0,.4,0,.9-.1,1.3v-1.5ZM113.9,15.9v.4c-.2,1.1-1.6,1.6-2.2,2.5-.1,0-.3.2-.4.3-.8,0-1.5.4-2.1.8v-2c.2-.2.3-.4,1.3,0,.9-.1,1.4-.9,1.8-1.6-.2-.7-2.5.4-3,.5,0,0,0,0-.1.2v-4.9c.8-.8,1.5-1.6,1.3-2.7.1-.9,1-.4,1.6,0,.6,1-.2,1.4-1.1,2.2-.5.6-1,1.3-1.6,1.8v.2c.9.2,1.3,0,1.3.9-.2.4-.7.8-.6,1.4,1.3-.4,2.4-1.1,3.8,0,0,0,0,0,0,0ZM109.2,23.7v-1c.5-.4,1-.8,1-1.1-.1,0-.2,0-.4,0-.1,0-.4.3-.6.5v-.7c.6-.3,1.2-.6,1.8-1,.5,0,1.6-.2,1.5.7-.5.2-1.4,1.3-1.7,1.7-.5.3-1,.6-1.5.9ZM108.1,31c-.7-.2-3.9-1.1-3.5-1.9.7,0,1.9.7,3,.6.4-.5.2-1.7,0-2.1-1,0-1.4.7-2.2.9-.4,0-.9,0-1.3-.2v-1.4c.8-.3,1.8-.6,2.6-.8.4-.3-.2-.6.6-.5.3.2,1,.2,1.7,0v1.8c-.2.2-.3.5,0,.9v1.5c-.2.5-.5,1-1,1.1ZM109.2,12.1v4.9c-.3.3-1,.9-.6,1.3.3,0,.5-.2.6-.4v2c-.7.4-1.4.9-2.1,1,0,0,0-.1,0-.2.4-.3,1.5-.9,1.6-1.5-1-.5-.9-.4-1.7.2-1.2.4-1.7.5-2.5,1.3,0,.2-.1.5-.2.7v-1.4c.7-.7,1.5-1.1,2.2-1.8,0-.2,0-.4,0-.6.3,0,.6,0,.8,0,.7-.7,1.7-2.4,1.6-3.2-.6,0-1.2.4-1.7.2,0-.6,0-.6.6-1,.4-.5.9-1,1.4-1.5ZM109.2,21.3c-.1,0-.2.1-.3.2-1.5.7-3,1.6-4.4,2.2-.2.2-.2.1-.2.4q.2.1.4.2c.5,0,1.1,0,1.6,0,.7,0,1.1-.6,1.7-.9.1,0,.2,0,0,.1-.4.4-1.3,1.2-1.3,1.7,0,0,.2,0,.3,0,.7-.6,1.4-1,2.1-1.5v-1c-.4.2-.8.5-1,.6,0-.3.5-.8,1-1.2v-.7ZM104.2,18.9c.8-.1,1.4-.4,1.3-1.3-.4-.3-.9-.7-1.3-1.1v2.4ZM104.2,28.3c-.6-.1-1-.4-.9-.9.3-.2.6-.3.9-.5v1.4ZM104.2,16.4v2.4s0,0,0,0c0-.4,0-.7,0-1-.4-.5-1.8-2-1-2.5,0,0,.2.2.3.2.1.2.4.6.8.9ZM104.2,20v1.4c0,.2,0,.5-.2.6,0,0-.2,0-.3,0-1.1-.5-1.7-1.3-1.7-2.2v-.2c.8,0,.9.9,2.1.3h0s0,0,0,0ZM76.5,13.2c0,0,.2,0,.3-.1.9-1.1,1.8-2.4,2.8-3.5.7,0,.8-.2,1.1.7-.2.5-.7.8-.8,1.3.3-.2.7-.3.9-.7.4,0,.9.2,1,.5v.2c0,.2-.1.4-.4.5-1.3.5-2.8,1-3.8,1.9-.4.5-.8.9-1.1,1.4v-2.1h0ZM76.5,16.1v1c.4-.3.8-.5,1.3-.8,0,0,.1,0,.2,0,0,0,0,.1,0,.2q-.2.2-.4.3c-.2.6-.6.8-1.1,1.1v2.8c1-.9,1.7-2.3,2.8-3.2.6-.7,1-.9.4-1.5-.3-1.8-2-.6-3.1,0h0ZM76.5,21.2c.8-.3,2.1-1.1,2.6-1.4.4.2.6.3.6.9-.8.6-1.5,1.1-2,1.9,0,.7.6.7,1.3,1.2.4.7-1.3,1.7-2.5,2.4v-1c.4-.2.8-.6.9-.9q-.4-.7-.9-.7v-2.4ZM76.1,13.4c.2,0,.3-.1.4-.2v2.1h0c-.2.2-.3.3-.4.3v-2.3h0ZM76.1,16.3c.1,0,.3-.1.4-.2v1c-.2.1-.3.3-.4.5v-1.3ZM76.5,20.8c-.2.1-.3.2-.4.3v.2c0,0,.2,0,.4-.1v2.4c0,0-.2,0-.2,0,0,0-.1,0-.2.1v-3.9c.3-.2.5-.6.4-.8-.2,0-.3,0-.4.1v-1c.2,0,.3-.1.4-.2,0,0,0,2.8,0,2.8ZM76.5,26.2c-.2,0-.3.2-.4.3v-1.1c.2,0,.3-.2.4-.2v1ZM75.5,28.7c0,.5,0,1.1,0,1.7,0,.2-.2.4-.4.5-.9-.8-.9-2.3-1-3.3-.8-.1-.9,0-1-.8q.5-.1.9-.3c.2-.5,0-1.9,0-2.3-.8,0-1.8,1.2-2.5,1.6-.8.9-1.1.8-2,.4,0,0,0-.1,0-.2.8-.3,4-2.3,4.2-3.3q-.2,0-.4-.2v-.2c.2-.1.3-.3.5-.4.1-.3.3-1.3.1-1.5-.9,0-1.4,1.9-2.5,1.5-.6.3-1.6,1.2-2.3.9,0-.2,0-.3,0-.4.6-.3,1-.6,1.8-1,.4-.7,0-1.4.7-1.5l.3.3c1.9,0,1.9-2.8,1.9-4,.4-.7,1.3-.6,1.4-1.6-1.5.2-1.4,1.7-2.5,1.9-.2,0-.3-.1-.5-.2-1.3,0-1.9,1.4-3.1.4,0,0,0-.1,0-.2q1.8-.9,2.9-1.4c.8-.7.3-2.2.4-3.1.9,0,.9,1.5,1.5,2,.6-.2,1.1-.5,1.7-.7v2.3c-.1.1-.1.3-.3.7,0,0,.2,0,.2,0v1.3c0,.2-.2.4-.2.7,0,0,.1,0,.2,0v1c-.3.2-.4.4-.4.9,0,0,.3-.1.4-.3v3.9c-.6.4-.4,1.1-.4,1.9,0,0,.2,0,.4-.2v1.1c-.2,0-.3.2-.4.3q0,.2-.2,1.9h0ZM93.7,18.1c.2-.5.2-1,.4-1.3q.4.3.9.6c.5.7-.4,1.7-1.4,2.6v-1.8ZM93.7,27.6v-2.5c.6.5,1.3,1,1.8,1.3h1.4c0,.7-1.7,1.6-2.3,1.7-.2,0-.4-.1-.7-.2-.1-.1-.2-.2-.3-.3ZM85.5,28.8c0,0,0-.1,0-.2,0,0,0-.1,0-.2,2.3-.8,4.2-3.5,4.7-6.1,0,0,0-.1,0-.2-.9,0-1.6.4-2.4.4-1.5-.9-.6-1.1.6-1.3.8-.4,1.7-.9,2.5-1.6.6-2,1.2-4,1.5-5.9.3-.4-.2-.8.6-1,.2.2.5.2.7.7-.2,1.5-.4,3.2-.8,4.8,0,.1,0,.2,0,.4.5,0,.8-.2.9-.6v1.8c-.8.7-1.6,1.2-1.8,1.4-.3.8-.6,1.6-.8,2.5-1.6,2.5-2.8,4.5-5.6,5.1ZM93.7,25.2c-.5-.4-.9-.8-1-1.1-.4-.2-.3-.1-.5-.1,0,.3,0,.5,0,.8.2.7.8,2.1,1.5,2.9v-2.5h0ZM98.2,38.6v-.5c0,0,.2,0,.3,0s.3,0,.5,0c.2,0,.4-.2.6-.3v.4c-.2.1-.4.2-.7.3-.2,0-.5.1-.7.1h-.1ZM98.2,36.6v-.3h.8c0-.4,0-.7-.2-.8-.1-.2-.3-.2-.6-.2h0v-.3h.2c.4,0,.7.1,1,.4.2.3.4.6.4,1.1h0c0,.2,0,.2,0,.2h-1.5ZM100.2,38.5v-.3h.4s.1-.1.1-.1v-2.7h-.5v-.2l.8-.3h.3v.7c.1-.1.2-.2.4-.3.1-.1.3-.2.4-.3,0,0,0,0,0,0h.1c0,0,.2,0,.2,0,0,0,.2,0,.2,0v.6h-.2c0,0-.1,0-.2-.1,0,0-.1,0-.2,0-.1,0-.3,0-.4.1-.2.1-.3.2-.4.4v2.1h.1c0,.1.5.2.5.2v.3h-1.8ZM105.3,35.1v.8h-.3v-.5c-.2,0-.2,0-.3-.1,0,0-.2,0-.3,0-.2,0-.3,0-.4.1-.1,0-.2.2-.2.4s0,.2.1.3c0,0,.2.2.5.3,0,0,0,0,.2,0,.3.1.5.2.6.3,0,0,.2.2.2.3,0,.1,0,.2,0,.4,0,.3-.1.6-.4.8-.3.2-.6.3-1,.3s-.3,0-.5,0c-.2,0-.3,0-.4-.1v-1h.3v.6c.2,0,.3,0,.4.1.1,0,.2,0,.3,0,.2,0,.4,0,.5-.2.1-.1.2-.3.2-.4,0-.1,0-.3-.1-.4,0,0-.3-.2-.6-.4-.4-.2-.6-.3-.8-.5-.1-.2-.2-.3-.2-.6,0-.3.1-.6.3-.8.2-.2.6-.3,1-.3s.3,0,.4,0c.2,0,.3,0,.4.1h0ZM106.8,34.9h.3v3.2h.1c0,.1.4.1.4.1v.3h-1.7v-.3h.4s.1-.1.1-.1v-2.7h-.5v-.2l.9-.3ZM106.9,33.3c.1,0,.2,0,.3.1,0,0,.1.2.1.3,0,.2-.2.4-.4.4,0,0,0,0,0,0-.1,0-.2,0-.3-.1,0,0-.1-.2-.1-.3,0-.1,0-.2.1-.3,0,0,.2-.1.3-.1ZM108.4,35.4h-.5v-.2l.5-.2.3-.7h.3v.8h1.1v.3h-1.1v1.9c0,.3,0,.5.1.6,0,.1.2.2.5.2s.2,0,.2,0c0,0,.2,0,.2,0v.3c-.2,0-.3,0-.5.1-.2,0-.3,0-.5,0-.3,0-.5,0-.6-.2-.1-.1-.2-.3-.2-.6v-2.4ZM110.2,35h1.6v.3h-.4s0,.1,0,.1l.9,2.3.9-2.3h0c0-.1-.4-.1-.4-.1v-.3h1.3v.3h-.4c0,0-1.5,3.6-1.5,3.6-.2.4-.4.8-.6.9-.2.2-.4.3-.6.3s-.3,0-.4-.1c0,0-.1-.2-.1-.3,0,0,0-.1,0-.2,0,0,0-.1.1-.2l.7.3c0-.1.2-.3.3-.4,0-.2.2-.4.3-.7l-1.2-3.2h-.5v-.3h0ZM92.7,35h1.6v.3h-.4s0,.1,0,.1l.9,2.4.9-2.4h0c0-.1-.4-.1-.4-.1v-.3h1.3v.3h-.4c0,0-1.3,3.3-1.3,3.3h-.4l-1.2-3.2h-.4v-.3h0ZM98.2,34.9v.3c-.2,0-.4.1-.6.3-.2.2-.3.4-.3.8h.8v.3h-.9c0,.6,0,.9.3,1.2.1.2.3.3.6.3v.5c-.4,0-.8-.2-1.1-.5-.3-.3-.4-.8-.4-1.3s.2-1,.5-1.4c.3-.3.6-.5,1.1-.5h0ZM77.4,38.5v-.3c0,0,.2,0,.2,0,.2,0,.3-.2.5-.2v-1.3c-.3,0-.6.2-.8.2v-.3c.2,0,.5-.1.8-.2v-.2c0-.3,0-.5-.2-.7,0-.1-.3-.2-.5-.2h0v-.3h.3c.4,0,.7,0,.8.2.2.2.2.4.2.8v2.1h.1c0,.1.4.1.4.1v.3h-1v-.4c-.3.2-.5.3-.8.3,0,0,0,0,0,0h0ZM91.8,33.3c.1,0,.2,0,.3.1,0,0,.1.2.1.3,0,.1,0,.2-.1.3,0,0-.2.1-.3.1-.1,0-.2,0-.3-.1,0,0-.1-.2-.1-.3,0-.1,0-.2.1-.3,0,0,.2-.1.3-.1ZM91.8,34.9h.3v3.2h.1c0,.1.4.1.4.1v.3h-1.7v-.3h.4s.1-.1.1-.1v-2.7h-.5v-.2l.8-.3ZM86.7,38.5v-.3h.4s.1-.1.1-.1v-2.7h-.5v-.2l.9-.3h.3v.4c.3-.2.5-.3.7-.3.2,0,.3,0,.5,0,.3,0,.6,0,.7.3.2.2.3.5.3.8v2.1h.1c0,.1.4.1.4.1v.3h-1.6v-.3h.3s.1-.1.1-.1v-2c0-.3,0-.5-.2-.6s-.3-.2-.6-.2-.2,0-.4,0c-.1,0-.3,0-.4.2v2.5h.1c0,.1.3.1.3.1v.3s-1.6,0-1.6,0ZM81.6,33.6h1.8v.3h-.4c0,0-.1.2-.1.2v2.7c0,.5,0,.9.3,1.1.2.2.5.3,1,.3s.8-.1,1-.3c.2-.2.3-.6.3-1.1v-2.6h-.2c0-.1-.4-.2-.4-.2v-.3h1.6v.3h-.4c0,0-.1.2-.1.2v2.7c0,.3,0,.6,0,.8,0,.2-.1.3-.2.5-.2.2-.3.3-.6.4-.3,0-.6.2-.9.2s-.6,0-.9-.2c-.2,0-.5-.2-.6-.4-.1-.2-.2-.3-.2-.5,0-.2,0-.4,0-.8v-2.7h-.1c0,0-.4-.2-.4-.2v-.3h0ZM77.4,34.9v.3c0,0-.1,0-.2,0,0,0-.2,0-.3,0v.6h-.5c0,0-.2,0-.2,0,0,0,0,0,0-.2,0-.2.2-.4.4-.6.2-.1.5-.2.8-.2ZM77.4,36.5v.3c-.2,0-.3.2-.4.2-.2.1-.3.3-.3.6s0,.3.2.4c0,0,.2.2.4.2s0,0,.2,0v.3c-.2,0-.3,0-.4,0-.3,0-.5,0-.7-.2-.2-.2-.3-.4-.2-.7,0-.3.1-.6.4-.8.2-.1.5-.2,1-.4ZM65.3,40.1v-.3h0c.3,0,.6,0,.8-.2.2-.2.3-.3.3-.6s0-.3-.1-.4c0,0-.3-.2-.6-.2h-.4v-.6h.5c.5.2.8.2,1,.4.2.1.3.3.3.6,0,.2,0,.3-.1.4,0,.1-.2.3-.3.4-.2.2-.4.3-.7.4-.2,0-.4,0-.6.1ZM65.3,37.3v-.3h0c.2,0,.4,0,.5-.2.1-.2.2-.4.2-.7s0-.5-.2-.7c-.1-.2-.3-.3-.5-.2h0v-.3h0c.1,0,.3,0,.4,0,.1,0,.3,0,.4.2h1.1v.3h-.8c0,0,.1.2.2.3,0,.1,0,.2,0,.4,0,.3-.1.6-.4.8-.2.2-.6.3-1,.3ZM72.5,34.9h.3v2.4c0,.3,0,.4.2.6.1.1.3.2.6.2.3,0,.6,0,.8-.2v-2.5h-.5v-.2l.9-.3h.3v3.2h.1c0,.1.3.1.3.1v.3h-1.1v-.4c-.2.2-.4.3-.6.4-.2,0-.4.1-.6.1-.3,0-.6,0-.7-.3-.2-.2-.2-.5-.2-.8v-2.1h-.5v-.2l.8-.3h0ZM68.4,33.1h.3v2.2c.3-.2.5-.3.7-.3.2,0,.3,0,.5,0,.3,0,.6,0,.7.3.2.2.2.5.2.8v2.1h.1c0,.1.4.1.4.1v.3h-1.6v-.3h.3s.1-.1.1-.1v-1.9c0-.3,0-.5-.2-.6-.1-.1-.3-.2-.6-.2s-.2,0-.4,0c-.1,0-.3.1-.4.2v2.5h.1c0,.1.3.1.3.1v.3h-1.6v-.3h.4s.1-.1.1-.1v-4.5h-.6v-.2l.9-.3h0ZM65.3,34.9v.3c-.2,0-.4,0-.5.2-.1.2-.2.4-.2.7s0,.5.2.7c.1.2.3.2.5.2v.3s0,0,0,0h-.1s0,0,0,.2c0,0,0,.1,0,.2h0c0,.1,0,.2,0,.2h.2v.5h-.3c-.2,0-.3,0-.5.2-.1.1-.2.3-.2.4,0,.2,0,.4.3.6.2.1.4.2.6.2v.3h-.2c-.4,0-.8,0-1-.2-.2-.2-.4-.4-.3-.7,0-.2,0-.4.2-.6.2-.2.3-.3.6-.3,0,0,0-.1,0-.2,0,0,0,0,0-.2,0,0,0-.2,0-.3,0-.1.2-.2.3-.4-.3,0-.5-.2-.7-.4-.2-.2-.2-.4-.2-.7s.1-.7.4-.9c.2-.2.6-.3,1-.3h0ZM59.6,38.5v-.3h.4s.1-.1.1-.1v-2.7h-.5v-.2l.9-.3h.3v.4c.3-.2.5-.3.7-.3.2,0,.3,0,.5,0,.3,0,.6,0,.7.3.2.2.2.5.2.8v2.1h.1c0,.1.4.1.4.1v.3h-1.6v-.3h.3s.1-.1.1-.1v-2c0-.3,0-.5-.2-.6-.1-.1-.3-.2-.6-.2-.1,0-.3,0-.4,0-.1,0-.3,0-.4.2v2.5h.1c0,.1.3.1.3.1v.3h-1.6ZM58.4,33.3c.1,0,.2,0,.3.1,0,0,.1.2.1.3,0,.2-.2.4-.4.4,0,0,0,0,0,0-.1,0-.2,0-.3-.1,0,0-.1-.2-.1-.3,0-.1,0-.2.1-.3,0,0,.2-.1.3-.1ZM58.4,34.9h.3v3.2h.1c0,.1.4.1.4.1v.3h-1.7v-.3h.4s.1-.1.1-.1v-2.7h-.5v-.2s.8-.3.9-.3ZM56.9,35.1v.8h-.3v-.5c-.2,0-.2,0-.4-.1,0,0-.2,0-.3,0-.2,0-.3,0-.4.1-.1,0-.2.2-.2.4s0,.2.1.3c0,0,.2.2.5.3,0,0,0,0,.2,0,.3.1.5.2.6.3,0,0,.2.2.2.3,0,.1,0,.2,0,.4,0,.3-.1.6-.4.8-.2.2-.6.3-1,.3s-.3,0-.5,0c-.2,0-.3,0-.5-.1v-1h.3v.6c.2,0,.3,0,.4.1.1,0,.2,0,.3,0,.2,0,.4,0,.5-.2.1-.1.2-.3.2-.4,0-.1,0-.3-.1-.4,0,0-.3-.2-.6-.4-.4-.2-.6-.3-.8-.5-.1-.2-.2-.3-.2-.6,0-.3.1-.6.3-.8.2-.2.5-.3,1-.3s.3,0,.5,0c.2,0,.3,0,.4.1h0ZM50.1,33.6h4.2v1.1h-.4v-.7c0,0-.2,0-.2,0h-1.1v4.2h.1c0,0,.5.1.5.1v.3h-1.9v-.3h.5s.1-.1.1-.1v-4.2h-1.2c0,0,0,.8,0,.8h-.4v-1.1h0Z"/>
        <path class="cls-1" d="M35.6,15.5c.1,0,.3,0,.4-.1,0,0,.4,0,.5,0,0,0,.2-.1.1-.2,0,0-.1,0-.2,0,0,0-.2,0-.2,0,0,0,0-.1-.1-.1,0,0-.3,0-.3,0,0,0-.2.2-.2.2,0,0,0,.3,0,.3ZM36.8,14.3s.1,0,.2,0c0,0,.2.2.4.1s.2-.1.2-.3c0-.2-.2-.2-.2-.2,0,0-.3-.1-.3-.2,0,0,0,0-.2,0-.1,0-.1,0-.2.1,0,0-.1.3,0,.4ZM36.4,14.8c0,0,.2,0,.3,0,0,0,0,0,.1,0,0,0,0,0,.2,0,.1,0,.1-.2,0-.2s0,0-.2,0c-.2,0-.2-.1-.3-.2,0,0,0,0-.1,0,0,0,0,.3,0,.3,0,0,0,.1.2.1ZM40.1,19.4c.2,0,.3-.1.3-.3,0,0,0,0,0,0,0-.2-.1-.3-.3-.3-.2,0-.3.1-.3.3,0,.2.1.3.3.3ZM38.4,16.4c0,0,0,.1,0,.1s-.1,0-.2-.1c0,0,0,0,0-.1,0,0-.1,0-.2,0,0,0,0,0-.1,0,0,0,0-.1,0-.2,0,0,0,0,0,0,0,0,.1,0,.1,0,0,0,.2.2.3.3,0,0,.1.1.2.2ZM38,17.1s0,0-.1,0c0,0,0,0-.1-.1,0,0,0,0,0-.1,0,0,.1-.2.1-.2.2,0,.3,0,.3.2,0,.1,0,.2-.1.2ZM37.5,16.5c0,0-.2.1-.3.1s0-.1,0-.2c0,0,.2-.1.2-.1.2,0,.2,0,.2.2ZM38.1,15.8c0,0-.3-.2-.4-.3,0,0-.2-.1-.2-.2,0,0-.2-.1-.2-.1,0,0-.1,0-.1.2,0,.1,0,.2,0,.2,0,0,.1,0,.2.1,0,0,0,.1,0,.2,0,0-.2.1-.3.2-.1,0-.3,0-.4,0-.1,0-.3,0-.4-.1,0,0,0,0-.1,0,0,0-.1,0-.1.2,0,.1.2.3.3.4.2,0,.4,0,.5,0,.1,0,.3.2.5.5.2.2.2.3.2.3,0,0-.2.2-.2.4,0,.1.1.2.2.2,0,0,.1,0,.2-.3,0-.2.6-.8.7-.8.1,0,.2,0,.3.1.1.1.3.4.3.4,0,0,.3,0,.3,0,0,0,.1-.2.1-.2,0,0,0-.2,0-.2,0,0,0,0-.1,0,0,0-.6-.7-.7-.8-.1-.1-.1-.2,0-.2,0,0,.1,0,.1,0,0,0,.2.1.2.2,0,0,0,.1.2,0,0,0,.1,0,.1-.2,0-.1,0-.2-.1-.2,0,0-.2-.2-.3-.2,0,0,0,0,0-.1,0,0,0,0,.1,0,0,0,.3.4.4.5.2,0,.2,0,.3,0,0,0,0-.1,0-.2-.1,0-.2-.2-.3-.3,0-.1-.2-.3-.2-.3,0,0,0-.1,0-.2,0,0,0,0-.2,0,0,0-.1,0-.2,0,0,0,0,0-.1,0,0,0-.1,0-.2,0,0,0,0-.1,0-.2,0,0-.3,0-.3,0,0,0-.1.2,0,.3,0,.1,0,.2.2.2,0,0,.4.2.3.3,0,.1-.2,0-.2,0s-.2-.1-.2-.3c0-.1-.1,0-.2,0,0,0-.1,0-.1.1,0,.1,0,0,0,.2,0,0,0,0,0,.1,0,0,.1,0,.2,0,0,0,.2.2.2.2,0,0,0,0-.2,0h0ZM21.9,16.2c0,0,.1-.1.1-.1,0,0,.2,0,.2,0s-.1.2-.2.2-.1,0-.1-.1h0ZM21.2,14.8c0,0,.1,0,.1,0,0,0,0,.2,0,.2s.2,0,.2,0c0,0,0,0,0,.2,0,.1,0,.2,0,.3,0,0-1.2,1.4-1.2,1.4,0,0,0,0-.1,0,0,0,0,0,0,.2s0,.2.1.2c.1,0,.2,0,.3,0,0,0,.4.2.5.3,0,.1.1.2.2.2s.1,0,.1-.2c0-.2-.2-.3-.3-.4-.1,0-.2-.1-.4-.2,0,0,0-.1,0-.2,0,0,.4-.5.4-.5,0,0,0,0,0,0,0,0,0,.3.1.3.1,0,.1,0,.2-.2,0-.1.2-.2.2-.1,0,0,0,.2,0,.2,0,0-.2.3-.3.3,0,0-.2.1-.1.2,0,0,.1.1.3.1.1,0,.2-.1.2-.2,0,0,.2-.4.3-.5,0,0,.2,0,.2.1,0,0-.5.6-.5.6,0,0,0,.1.2.2,0,0,.2-.2.3-.2,0,0,.1,0,.2-.1,0,0,.2-.4.1-.6s-.2-.3-.2-.4c0-.1.1-.1.2-.1,0,0,.2-.2.2-.3s0-.2-.2-.2c0,0-.2.1-.2.2,0,0,0,.2-.1.2,0,0,0,0-.1-.2,0,0,0-.2-.1-.2s-.3,0-.4.3c-.1.2-.2.3-.2.3,0,0-.1.1-.2.1,0,0,0,0,0-.1,0,0,.7-.9.7-.9,0,0,.2-.1.3,0,.1,0,.2.1.2.2,0,0,.2.2.2.2,0,0,.2-.1.2-.3,0-.1-.2-.2-.2-.3,0,0-.1-.1-.2-.2,0,0,0-.1-.1-.1,0,0-.3,0-.3,0,0,0-.3.4-.3.4,0,0,0,0,0-.1,0-.2-.2-.4-.2-.4,0,0-.1,0-.2,0,0,0,0,0,0-.1,0,0,0-.1-.1-.1,0,0-.2,0-.3.1-.1.2-.2.3-.1.3,0,0,.1,0,.2,0h0ZM19.8,16.2c0,0,.3.2.4.3s.2.2.3.2c0,0,.2,0,.2-.1s.1-.3,0-.4c0-.1,0-.1-.1-.1s0,.1-.1.1c0,0,0,0-.1,0,0,0,0-.1,0-.2,0,0,0-.1,0-.2,0,0-.1,0-.2,0,0,0-.1.2-.2.2,0,0,0,0,0-.1,0,0,0-.1,0-.2,0,0-.1,0-.1,0,0,0-.1,0-.2,0,0,0-.1.3-.1.4,0,0,0,.1.1.2ZM18.7,21.9h.3c0,.1.3-1.1.3-1.1h-.3c0,0-.1.3-.1.3l-1.2-.4v.4c-.1,0,1.1.4,1.1.4v.4ZM19.2,19.4c.2,0,.3-.1.3-.3,0,0,0,0,0,0,0-.2-.1-.3-.3-.3-.2,0-.3.1-.3.3h0c0,.2.1.3.3.3ZM25.1,13.6c.1,0,.3-.2.4-.3.1-.1.4-.3.5-.2s.1.5,0,.8c-.2.3-.4.5-.5.5-.1,0-.3.2-.3.2,0,0,0,.3.1.4,0,0,0,.1.3,0,.2,0,.4-.1.5-.3,0-.2.2-.4.3-1.1,0-.5.2-.2.2-.2,0,0,.9.7,1.3.7.4,0,.6,0,.8-.5,0-.1,0-.2-.1-.1,0,0-1.1-.1-1.7-.3-.6-.2-.4-.3-.3-.4.1,0,.7-.2.7-.2s.2-.2.1-.4c0-.2-.1-.2-.2-.2-.1,0-.6.1-.7.2,0,0-.2.2-.3.2,0,0-.2,0-.3,0,0-.1,0-.5-.1-.5-.1,0-.3,0-.3.2,0,0,0,.4.1.5,0,0,0,0-.2.2-.2.1-.5.3-.6.3,0,0-.2.2-.2.3,0,.1.2.3.4.3ZM40,21.2l.7.2-.6.5v.4c.1,0,.9-.8.9-.8h.6c0-.1-.1-.6-.1-.6l-.6.2-1.1-.3s0,.4,0,.4ZM20.8,15.3c0,0,.2,0,.3,0,0,0,0,.1,0,.1,0,0-.1,0-.1,0,0,0,0-.1,0-.2ZM20.3,15.4c0,0,.2,0,.2,0,0,0,0,.1,0,.1,0,0,0,.1.1.1,0,0,.1,0,.1,0,0,0,.1.2.2.2,0,0,.1,0,.2,0,0,0,0-.2,0-.3,0,0,.1,0,.2,0,0,0,0,0,0-.1,0,0,0,0-.1,0,0,0-.1,0-.1,0,0,0,0,0,0-.1,0,0,0,0-.1,0,0,0-.1,0-.1,0,0,0,0,0,0-.1,0,0,0-.1,0-.1,0,0-.2,0-.2,0,0,0,0,.1,0,.2s0,0,0,.1c0,0-.1,0-.2,0,0,0,0,0,0,.1s0,.1.1.1h0ZM31.6,13.1s0,0,.1,0c0,0,.2,0,.2-.2,0,0,0-.2,0-.2,0,0-.1,0,0-.2,0,0,0,0,.3,0,0,0,.1,0,.1,0,0,0,0,.5-.2.6-.1,0-.4,0-.4,0,0,0-.2,0-.1,0h0ZM32.2,12.1c0,0,.4,0,.6,0,.1,0,0,.1,0,.1s0,0-.2,0c-.1,0-.3-.1-.3-.1,0,0,0,0,0,0ZM33,12.6s.1,0,.1.1c0,0-.1.1-.2.1,0,0-.1,0-.1,0,0,0,0,.1,0,.1,0,0,0,0,0,.1,0,0-.1,0-.2,0,0,0-.1,0-.2-.1,0,0,0-.2,0-.3,0,0,.2-.3.2-.3,0,0,.3,0,.3,0ZM30.6,13.4c.1,0,.7,0,.8,0s.7,0,.7.2c0,0-.1.2-.3.2-.1,0-.3-.1-.6-.2s-.6,0-.6.1c0,.1.1.2.2.2,0,0,.5,0,1,.2,0,0-.1.5,0,.5,0,0,.2,0,.2,0,0,0,0-.2.1-.3,0-.2.1-.1.1-.1,0,0,.2.1.5.2.3,0,.4,0,.5,0,0-.1-.1-.2-.2-.2s-.3,0-.5-.1c-.2,0-.3-.2-.3-.2s0-.1,0,0c0,0,.5,0,.7.3.3.2.6.3.7.3,0,0,.3-.1.3-.2,0-.1-.2-.3-.3-.3,0,0-.2,0-.3,0-.2,0-.3,0-.5-.1,0,0-.1,0,0-.2,0,0,.2,0,.2,0s.1.1.3,0,.1-.2,0-.2c0,0,0,0-.1-.2,0,0,0-.2-.1-.2,0,0,.2-.1.2-.3,0,0,0,0-.1,0-.1,0-.1-.1,0-.1,0,0,.4.2.4.1,0,0,.1-.2,0-.3-.1-.1-.3-.2-.4-.2,0,0,0-.2,0-.3,0,0-.1,0-.2,0,0,0-.1.2-.2.2-.1,0-.3-.1-.4-.1-.1,0-.2,0-.3,0,0,0,0-.2,0-.2,0,0-.2,0-.3,0-.1,0-.2,0-.2,0s-.4,0-.4,0c0,.1-.1.2,0,.4,0,0,.1,0,.2,0s.3,0,.3,0c0,0-.3,0-.3,0,0,0,0,0,0,.2,0,.1,0,.1.1.1,0,0,.1,0,0,0,0,0-.2,0-.3,0s-.3,0-.3.1c0,.2,0,.3.2.3,0,0,.2,0,.2,0s0,.1-.1.1c-.1,0-.6-.1-.7-.1,0,0-.2,0-.3.2,0,.1.1.2.3.3ZM40.7,22.5h-.3s.1,1.2.1,1.2h.3s0-.4,0-.4h1.3c0-.1,0-.5,0-.5h-1.3c0,.1,0-.3,0-.3h0ZM37,32.2l-.3.2.6.8c.2.3,0,.5-.2.4,0,0-.1,0-.2,0l-.7-.8-.3.3.8.9c.1.1.2.2.4.1.3,0,.6-.3.7-.5,0-.3-.2-.6-.2-.6l-.6-.8ZM31.7,34.9l-.4.4.2.2.3-.2.2,1.1h.4c0,0-.3-1.6-.3-1.6,0,0-.3,0-.3,0ZM28.9,35.7c0,0-.1.2-.3.1-.3-.1-.1-.5,0-.5,0,0,.2,0,.2.2,0,0,0,0,0,.1ZM29.1,35.3c-.1-.1-.3-.2-.4-.2-.3,0-.5.2-.5.5,0,0,0,.2,0,.2.1.2.2.2.3.2.2,0,.4-.2.3,0,0,.2-.1.2-.3.2-.1,0-.3,0-.4,0v.3s.4.2.8,0c.1,0,.3-.4.2-.7,0-.1,0-.3-.1-.5ZM30.3,35.1l-.5.4.2.3.3-.2v1.1c0,0,.4,0,.4,0v-1.5c0,0-.4,0-.4,0ZM32.9,35.3v.4c.1,0,1.3-.4,1.3-.4v-.4c-.1,0-1.3.4-1.3.4ZM40.5,24.4h1.6v-.4h-1.6s0,.4,0,.4ZM41.4,24.7c-.1,0-.3.1-.3.4-.1.6-.4.4-.4.2,0-.2,0-.4,0-.4h-.3c0,0,0,.3,0,.5,0,.1,0,.4.2.5.1.1.6.2.7-.3.1-.5.4-.4.4-.2,0,.2,0,.5,0,.5h.3s0,0,0-.6c0-.5-.5-.5-.6-.5ZM40.9,26.8c0,.2,0,.2,0,.2h-.4c0,0,0-.4.2-.5.2,0,.3.1.3.3ZM41.1,26.5s0,0,0,0c0,0,0,0,0,0,0-.1,0-.2-.2-.3-.2-.1-.5-.1-.7.3-.1.3-.2.5-.2.7,0,.1,0,.1,0,.1l1.5.4v-.4c.1,0-.5-.2-.5-.2,0,0,0-.2.1-.2,0,0,.1,0,.2,0,.4,0,.4,0,.4,0v-.4c0,0-.3,0-.6,0,0,0-.1,0-.2,0h0ZM39.3,29.1l.9.9-1.2-.3-.2.4,1.6.3.3-.5-1.1-1.2s-.2.4-.2.4ZM40.9,28.6l-.3-.2.2-.6h-.3c0,0-.2.5-.2.5h-.3c0-.1.2-.7.2-.7h-.3c0-.1-.4.9-.4.9l1.5.6.4-1.1h-.3c0-.1-.3.6-.3.6ZM38.4,30.6l1.3.9.2-.3-1.3-.9-.2.3h0ZM38,31.2l.9.8-1.3-.4-.4.4,1.2,1.1.2-.3-.9-.8,1.3.4.3-.4-1.2-1.1s-.2.3-.2.3ZM35.4,27.7s0,0,0,0c0,0,0,.2,0,.3,0,0,0,.1.1.1,0,0,.1,0,.1-.1,0,0,0-.3,0-.3,0,0,0,0-.2,0ZM36.1,26.5s0,0,0,0,0,0,0,0c0,0,.1,0,.2-.1,0,0,0,0,0-.1,0,0,0-.1,0-.1,0,0,0,0-.1,0,0,0,0,0-.1,0,0,0,0,.1,0,.1,0,0,0,.1-.1.2,0,0,0,.1,0,.1h0ZM36.8,22.4s0,0-.1,0c0,0,0,0,0,0s0,0,0,0c0,0,0,0,0,0,0,0,0-.1,0-.1s0,0,0-.1c0,0,0,0,0-.1,0,0,.1-.1.1-.1,0,0,0,0,.1,0,0,0,.1,0,.2,0,0,0,0,0,0,.1,0,0,0,.2,0,.2,0,0,0,.1,0,.2h0ZM36.1,23.2c0,0,0,0-.1.1,0,0-.2,0-.2,0,0,0,0,0,0-.1,0,0,0,0,0-.1,0,0-.1,0-.1-.1,0,0,0-.1,0-.2,0,0,0,0,.1,0,.2,0,.2.1.2.1s0,0,0,0c0,0,0,0,0,.1,0,0,0,0,0,0,0,0,0,.1,0,.2h0ZM35.4,22.4c0,0-.1,0-.1-.1,0,0,0,0,0-.1,0,0,0,0,0,0,0,0,0,0,.2,0,0,0,0,0,0,.1,0,0,0,0,0,.1,0,0-.1,0-.2,0ZM35.2,22.8s0,0-.1.1c0,0-.1.1-.2.1,0,0-.2,0-.2,0,0,0,0,0,0-.1,0,0,0-.1,0-.1,0,0,.2,0,.3,0,0,0,.2,0,.2,0,0,0,0,0,0,0h0ZM37.2,22.5c0,0,0-.1,0-.2,0,0,0-.1,0-.2,0,0,0,0,0-.1,0-.1-.1-.2-.2-.3,0,0,0-.1,0-.1,0,0,0,0,0,0,0,0,0-.1,0-.1,0,0-.2,0-.3,0,0,0,0,0-.1,0,0,0,0,0-.1.1,0,0,0,0,0,0,0,0,0,0-.1,0,0,0,0,0,0,.1,0,0,.1.2.1.3,0,0,0,.2,0,.2,0,0-.1,0-.2,0,0,0-.1-.1-.2-.2,0,0,0-.2,0-.3,0,0,0-.1,0-.1,0,0,0,0-.1,0,0,0,0,0,0,0,0,0,0,.1-.2.2,0,0-.3.3-.3.4,0,0,0,.1,0,.2,0,0,0,.1,0,.2,0,0-.2,0-.3,0,0,0-.1,0-.2,0,0,0-.1,0-.1.2,0,0,0,.2,0,.2,0,0,0,0,0,.1,0,0,0,.1,0,.1,0,0,0,0,0,0,0,0,0,.1,0,.1,0,0,0,.1,0,.1,0,0,0,.1,0,.1,0,0,0,0,.1,0,0,0,0,0,.1-.1,0,0,0-.2,0-.2s.2,0,.2-.1c0,0,0-.2,0-.2,0,0,0,0,0,0,0,0,0,0,0,0,0,0,0,.2,0,.2,0,0,0,0,0,0,0,0,0,.1,0,.1,0,0,0,0,0,0,0,0,0,0,0,0s.4,0,.4,0c0,0,.2,0,.2-.1,0,0,0-.2,0-.2,0,0,0-.1-.1-.2,0,0,0-.2,0-.3,0,0,0-.2,0-.2,0,0,0,0,.1,0,0,0,.3.2.3.3,0,0,0,0,.2,0,0,0,.3,0,.3-.2,0,0,0,0,0-.1h0ZM34.4,22.1c.2,0,.5-.2.5-.2,0-.1,0-.3,0-.4,0,0,0-.1,0-.2,0,0,0-.2,0-.2,0,0,.1,0,.2,0,.1,0,.2,0,.2.2.1.2.2.2.3.1.1,0,.1-.1.2-.1.1,0,.2,0,.2-.1,0,0,0-.2,0-.3,0,0,0,0-.1-.2,0,0,0,0,0-.1,0,0,0,0,0-.1,0-.1,0-.1,0-.1-.2,0-.2,0-.2,0,0,0,0,0,0,.1,0,0,0,.1,0,.2,0,0,.1,0,.2.1.2.2-.2.3-.3.2-.2-.2-.2-.6-.7-.2,0,0-.1,0-.2.2,0,0,0,.2,0,.3,0,.2.1,0,.2.2,0,0,0,0,0,0,0,0,0,.1-.1.2-.2,0-.3,0-.5,0,0,0-.2,0-.3,0-.2,0-.2.2-.1.3,0,0,.1.1.3.2,0,0,.3,0,.3,0,0,0,0,0,0,0ZM27.9,18.9c0,0,0,0-.1,0,0,0,.1-.1.2-.1,0,0,0,0,0,0s0,0-.1,0ZM27.7,18.5c0,0,0,0,0,0,0,0,0,0,0,0,.2,0,.2,0,.2,0,0,0,0,0-.1.1,0,0,0,0-.1,0ZM27.3,18.5s-.1,0-.2,0,0,0,0,0,0,0,0,0c0,0,.1,0,.1,0,0,0,.1,0,.2-.1s.2-.1.2-.2c0,0,.2,0,.2,0,0,0,0,0,0,0,0,0,0,0,0,0,0,0-.5.3-.5.3ZM26.9,18.2c0,0,0,0,0-.1,0,0,0-.1,0-.1,0,0,.1,0,.2-.1,0,0,0,0,.1,0s0,0,0,0c0,0,.1,0,.2,0,0,0,0,0,.1,0,0,0,0,0,.1,0,0,0,0,0,0,.1,0,0,0,0-.1,0s-.1,0-.1,0c0,0-.1,0-.1,0,0,0-.2.1-.3.2,0,0-.1,0-.2,0ZM28.7,18.8c-.1,0-.2,0-.4,0,0,0,0,0,0,0,0,0,0-.2,0-.2,0,0,0-.1,0-.1s0,0-.1,0c0,0,0-.9,0-.9,0,0,0,0,0,0,0,0,0,0,0,0,0,0,0,0,0,0,0,0,0,0-.1,0,0,0-.1,0-.1,0,0,0,0,0,0,0,0,0-.1,0-.2,0,0,0-.2,0-.2.1,0,0,0,0,0,0,0,0,0,0,0-.1,0,0,.3-.2.4-.2,0,0,.2,0,.2,0,0,0,.1,0,.2,0s.2,0,.2-.2c0,0,0-.1,0-.1,0,0-.2,0-.3,0-.1,0-.6.3-.9.4-.2,0-.7.3-.8.4,0,0-.4.2-.4.3,0,0,0,.1,0,.2,0,.1.2.3.2.4,0,0,.2.3.2.4,0,0,.2.3.2.4,0,0,0,.2,0,.3,0,.1,0,.2,0,.3,0,0,0,.2,0,.2,0,0,0,.1.1.1,0,0,0,0,.1-.2,0-.2,0-.3,0-.5,0-.2,0-.4-.2-.6,0-.2-.2-.4-.3-.5,0,0-.1-.2-.2-.2,0,0,0-.1,0-.2,0,0,0-.1.1-.2,0,0,.2-.2.3-.2,0,0,.1,0,.1,0,0,0,0,0,0,.1,0,0-.1.1-.1.1s0,.2,0,.3c0,0,.1.2.2.2,0,0,0,0,0,.2,0,0,.1.1.2.1,0,0,0,0,.1,0,0,0,0,0,.1,0,0,0,0,0,0,0,0,0,0,.1,0,.2,0,0,0,0,.1,0,0,0,.2,0,.2,0,0,0,0,0,0,.1,0,0-.1,0-.2,0,0,0-.1.1-.1.2,0,0,.1.1.2.1,0,0,.1,0,.2-.1,0,0,.1,0,.2-.1,0,0,.1,0,.2,0,0,0,0,.2,0,.2,0,0,0,.1-.1.1,0,0-.1,0-.2,0,0,0,0,0-.1,0,0,0,0,.1,0,.2s.1,0,.1.1c0,0,0,0,.1,0,.1,0,.2,0,.3-.2,0-.1.1-.2.1-.2,0,0,0-.1,0-.2,0,0,0-.2,0-.3,0,0,0,0,0-.1,0,0,0,0,.1,0,0,0,0,0,.1,0,0,0,0,0,0,0,0,0,0,0,0,0s0-.1,0-.1c0,0,0,0,0,0h0ZM32.7,29.2c0,0,.1,0,.1-.1,0,0,0,0,0-.1,0,0,0-.2,0-.2,0,0,0,0-.1,0,0,0,0,0,0,0,0,0,0,.1,0,.3,0,.1.1.2.2.2ZM31.4,29.7s0,0,.1,0,.1,0,.2,0c0,0,0-.2,0-.2,0,0-.1-.2-.2-.1,0,0,0,0,0,.1,0,0,0,.2,0,.2h0ZM30.7,29.6s.1-.1.1-.1c.2-.2.3-.2.3-.2s.1,0,.2,0c0,0,.3,0,.4,0,0,0,.1.1.2.2,0,0,.1,0,.2,0,0,0,0-.2,0-.2,0,0,0,0,0-.1,0,0,0-.1,0-.2s0,0,0,0,0,0,0,0c0,0,0,0-.1,0,0,0-.1,0-.2,0,0,0-.3,0-.3,0s-.2,0-.3,0c-.1,0-.1,0-.2.1,0,0,0,.1-.1.1,0,0,0,0,0,0,0,0,0,0,0,.1,0,0,0,0,0,.1,0,0,0,.1.1.1h0ZM18.1,23.2c.2-.5.4-.4.4-.1,0,.2,0,.5,0,.5h.3c0,0,0,0,0-.5,0-.5-.5-.6-.6-.6-.1,0-.3.1-.3.3-.2.6-.4.4-.4.2,0-.2.1-.4.1-.4h-.3c0,0,0,.2,0,.4,0,.1,0,.4.2.5.1.1.6.3.7-.2ZM32.6,29.7c.1,0,0,.1.1.2,0,0-.2.1-.2.2,0,0-.4.3-.5.3,0,0-.5.2-.5.2s-.1,0,0-.2c0-.1.1-.2.3-.2,0,0,.4-.2.5-.2.1,0,.2,0,.3-.1,0,0,.2-.1.2-.1ZM32.9,30.2c0,.1,0,.1,0,.2,0,0,0,0-.1,0,0,0,0,0-.1.1,0,0,0,0-.2,0,0,0-.2.1-.3.1,0,0,0,0-.1,0,0,0-.2,0-.2,0,0,0-.1,0-.1,0,0,0-.1.1-.2.1s0,0,0-.1c0,0,0-.2.1-.2,0,0,.1,0,.1,0s0,0,.1,0c0,0,.1,0,.2,0,0,0,.4-.2.4-.2,0,0,0,0,.1-.1,0,0,.2-.1.2-.1.2,0,.2,0,.3.1ZM33.2,30.7c0,.1-.2.2-.3.2-.1,0-.3.1-.4.2,0,0-.2.1-.3.1,0,0-.2.1-.3.2-.1,0-.3,0-.3,0,0-.1.1-.2.1-.2s.1,0,.2,0c0,0,.1,0,.1,0,0,0,0,0,.2,0,0,0,.2-.1.3-.2,0,0,.3-.1.3-.1.2,0,.2,0,.3,0,0,0,0,0,0,.2ZM31.8,29.8c0,0-.2,0-.2,0,0,0,0,0-.1.2,0,0-.3.3-.3.3,0,0,0,0,0,0,0,0,0,.1,0,.2,0,0,0,0,0,.1,0,0,0,.2,0,.2s0,.1,0,.2c0,0,0,0,.1.1,0,0,0,.1,0,.2,0,0,0,.2,0,.3,0,0,.2.3.3.3.1,0,.3,0,.3,0,0,0,.5-.2.5-.2s.2.1.3.1c0,0,0,0,0,0,0,0,0-.3,0-.3,0,0,.6-.5.6-.6,0,0,0,0,0-.1,0-.1-.2-.3-.2-.4,0-.1-.1-.2-.2-.3,0,0-.2-.2-.2-.3,0,0-.1-.3-.2-.3,0,0-.1,0-.1,0,0,0,0,0,0,0,0,0-.2.1-.3.2-.1,0-.3.1-.3.2ZM36,27.1c0,0-.2-.2-.2-.2,0,0,0,0-.1,0s0,0,0-.1c0,0,0-.1,0-.2,0-.2-.2-.3-.2-.5,0-.2,0-.3,0-.5,0-.1,0-.2,0-.2,0,0-.2,0-.3,0-.1.2,0,.4,0,.5,0,.1.2.3.3.3,0,0,0,.2,0,.3,0,0-.2,0-.3,0-.1,0-.3-.2-.4-.3,0,0-.1,0-.2,0s0,0,0,0c0,0,0,0-.1,0,0,0,0,0,0,0s0,0,0,.3c.1.2.2.2.3.2.1,0,.3.1.4.1,0,0,.2,0,.3,0,0,0,0,0,.1,0,0,0,0,.1,0,.2,0,0,0,.1-.1.1,0,0-.1,0-.1,0,0,0-.1,0-.2,0,0,0-.2,0-.3,0,0,0-.3,0-.4.1-.1,0-.2.2-.2.3,0,.1,0,.2,0,.2,0,0,0,0,.1,0,0,0,.1-.1.2-.1,0,0,.3-.1.4-.1,0,0,.2,0,.3,0s.3,0,.3,0c0,0,.1,0,.2,0,0,0,.2,0,.3,0,0,0,0,0,.1-.2ZM22.2,23s0,.1.1.2c0,0,0,0,0,0s0,0,0,0c0,0,0-.2,0-.2,0,0,0-.1,0-.2s0-.2,0-.2c0,0-.1,0-.2,0,0,0,0,0,0,0,0,0,0,.1,0,.2,0,0,0,0,0,0,0,0,0,0,0,0,0,0,0,.1,0,.1ZM36.9,25.9s-.2,0-.2,0,0,.4,0,.5c0,.1,0,.2-.1.4-.1.2-.2.4-.4.6,0,0-.1.2-.2.3,0,0,0,0,0,0,0,0,0,.1,0,.2,0,0,0,.1,0,.2,0,0-.1.2-.1.2,0,0,0,.1,0,.2,0,0,0,.2.1.2,0,0,.1-.1.2-.2,0,0,0-.2,0-.2,0,0,.1-.2.1-.2,0,0,.1-.2.1-.3,0,0,0-.1,0-.2,0,0,.2-.4.2-.5,0,0,0-.2,0-.3,0-.1,0-.3,0-.3,0,0,0-.1,0-.2,0-.1,0-.2-.1-.3ZM18.7,28.1h-.2c0,0,0,.3,0,.3h-.3c0,.1-.1,0-.1-.2,0,0,0-.2,0-.2.1-.3.6-.4.9-.2.3.2.3.7.3.7h.3s0-.5-.2-.7c-.2-.3-.5-.5-.7-.5-.2,0-.3,0-.5.1,0,0-.2.1-.3.2,0,0-.3.3,0,1,.2.4.2.4.2.4l.9-.3-.3-.6h0ZM30.8,30.2c.1-.1.1-.2.2-.3,0-.1,0-.2,0-.2,0,0-.1,0-.1,0,0,0,0,0-.1.1,0,0,0,0,0,0s0,0,0,0c0,0,0,0,0,.1,0,0,0,0,0,.1,0,0,0,.1,0,.2,0,0,.1,0,.2,0ZM19,26.3l-1.2.2,1.1-.8v-.5c0,0-1.6.2-1.6.2v.4c0,0,1.2-.2,1.2-.2l-1.1.7v.5c0,0,1.7-.2,1.7-.2,0,0,0-.4,0-.4ZM18.8,24.2h-1.6s0,.4,0,.4h1.6s0-.4,0-.4ZM21.6,31.6l-.2-.3-.7.6c-.4.3-.7,0-.6-.3.2-.3.6-.5.9-.7l-.2-.3s-.8.7-.8.7c0,0-.4.3-.1.7.3.6.8.4,1,.2.2-.1.8-.6.8-.6h0ZM20.3,29.8l-.5.3-.3-.4.5-.3-.2-.4-1.4.8.2.4.6-.3.2.4-.6.3.2.4,1.4-.8-.2-.4h0ZM24.6,22s0,0,0,.1c0,0,0,0,0,.1s0,0,0,0c0,0-.1,0-.1,0,0,0,0,.1,0,.2,0,0,0,0,0,.1,0,0,0,.2,0,.2,0,0,0,0-.1,0,0,0-.2,0-.2,0,0,0-.2,0-.2,0,0,0-.1,0-.2,0,0,0-.1,0-.1,0,0,0,0,0-.1-.1,0,0-.2,0-.2,0,0,0,0,0,0,0,0,0,0,0,0,0,0,0,0,.2,0,.3,0,0,.1.2.1.2,0,0,0,0,.1,0,0,0,.2,0,.1,0,0,0,0-.2,0-.3,0,0,0,0,.1,0,0,0,.4,0,.4,0,0,0,.1,0,.2.1,0,0,.2.2.3.3,0,0,.2,0,.2,0,0,0,0-.1,0-.2,0,0,0-.1,0-.2,0,0,0-.1,0-.1,0,0,0,0,.1,0,0,0,0,0,0,0,0,0,0-.1,0-.2,0,0,0,0,0,0,0,0,0-.2.1-.2,0,0,.3,0,.3,0,0,0,0,0,.1-.1s0,0,.1,0c0,0,.2-.2.3-.3,0-.1,0-.3,0-.4s0,0-.1-.1c0,0-.1,0-.2-.1,0,0,0,0,0-.1,0,0,0,0-.2,0,0,0-.2,0-.2.2s0,.2.1.2c0,0,.2,0,.2,0,0,0,0,0,0,.3,0,.2,0,.2-.1.3,0,0-.1,0-.2,0,0,0-.1,0,0-.1,0,0,.1-.1.1-.2s0,0,0,0c0,0-.2,0-.2,0,0,0,0,.1,0,.1h0ZM21.8,33.2l-.3-.3.5-.3-.3.6ZM20.7,32.9l.3.3.3-.2.4.4-.2.3.3.3.7-1.6-.4-.4s-1.5.8-1.5.8ZM22.5,27c0,0,.1-.1,0-.2,0,0-.2-.2-.3-.2,0,0-.2,0-.2.1,0,0,0,.1.1.2.1.1.2.1.3,0h0ZM33.1,18.6s0,0-.1,0c0,0,0,0,0,0,0,0-.1,0-.2,0,0,0,0,0-.1,0,0,0-.2-.1-.2-.1,0,0,0,0-.1,0,0,0,0,0-.1,0,0,0-.1,0-.2,0,0,0-.1,0-.2,0,0,0-.2,0-.3,0,0,0-.1,0-.2-.1,0,0,0-.1,0-.1,0,0,.2,0,.2-.1,0,0,.2,0,.3,0,.1,0,.2,0,.3,0,0,0,0,0,.1,0,0,0,0,0,.1,0,0,0,.1,0,.2.1,0,0,.2.1.3.2,0,0,.2.1.2.1,0,0,0,0,0,.1,0,0,0,0,0,.1ZM32.9,19c0,0,0,.1-.2.2,0,0-.1,0-.1,0,0,0,0,0-.1,0-.1,0-.3-.1-.4-.2,0,0-.2,0-.2,0s-.3,0-.3,0c0,0-.2,0-.2-.1,0,0-.1-.1-.1-.1,0,0,0,0,0-.1,0,0,.2,0,.2,0,0,0,.2,0,.3,0,0,0,0,0,.1,0,0,0,0,0,.1,0,0,0,.1,0,.2,0,0,0,.2,0,.2,0,0,0,.2,0,.2,0,0,0,.2,0,.2,0,0,0,0,0,.1,0,0,0,0,0,0,.1ZM32.6,19.7s0,0,0,0c0,0,0,0,0,0,0,0-.1,0-.2,0,0,0-.1,0-.2,0,0,0-.1,0-.2,0-.2,0-.4-.2-.6-.3,0,0-.1,0-.1-.1,0,0,0-.1,0-.2,0,0,.1-.1.1-.1,0,0,.2,0,.2,0s0,0,0,0,0,0,0,0c0,0,.2,0,.2,0s.2,0,.2,0c0,0,0,0,.1,0s0,0,.1,0c0,0,0,0,.1,0,0,0,.2,0,.2,0,0,0,0,0,0,.2,0,0,0,.1,0,.1ZM33.2,18c0,0-.1-.1-.2-.2,0,0-.1,0-.2,0-.1,0-.2,0-.2-.1,0,0,0-.1,0-.1,0,0,0-.1,0-.1,0,0,0,0,0-.1,0,0,0,0,0,0,0,0,0,0,0,0,0,0,0,0-.1,0,0,0,0,.1-.1.2,0,0-.1,0-.2,0-.1,0-.1,0-.2,0s0,0-.1,0c-.1,0-.3,0-.4,0-.1,0-.2,0-.2.2,0,0,0,.2,0,.3,0,0,0,.2,0,.3s0,.2,0,.3c0,0,0,.1,0,.2v.2c0,0,0,.1,0,.2,0,0,0,.2,0,.3,0,0,0,.2,0,.2,0,0,0,0,0,.1,0,0,0,.1.1.2,0,0,0,0,0,0s0,0,.2,0c0,0,.1,0,.2,0s.2,0,.2,0c0,0,0,0,0,0,0,0,0,0,0,0,0,0,0,0,.1,0,0,0,.2,0,.2,0,0,0,0,0,.1,0,0,0,.4-.2.4-.3,0,0,0-.2,0-.3,0,0,0-.1,0-.1,0,0,.1-.1.2-.2,0-.1,0-.2.1-.2,0,0,.2,0,.2-.1s0-.2,0-.2c0,0,0-.1,0-.2s0-.2,0-.3c0-.1-.1-.2-.2-.2ZM29.7,25.7l1.7,1.2-.6-2,1.7-1.3h-2.1l-.6-2-.7,2h-2.1l1.7,1.3-.6,2,1.7-1.2h0ZM24.3,26.9s0,0,0,.1c0,0,0,0-.2,0,0,0,0-.2,0-.2,0-.1.1,0,.2,0ZM24.5,26.6c0,0,0,0,.2,0,0,0,0,.1,0,.2,0,0-.1,0-.2,0s0-.2,0-.2ZM24.8,27.3c0,0,0,0-.1,0s-.1,0-.1-.1c0,0,0,0,0,0,0,0,.2,0,.1.2h0ZM24.9,27c.2,0,.2.2.1.2,0,0-.1,0-.2-.1,0-.1,0-.1,0-.1ZM22.8,26.7c0,.2.1.2,0,.3,0,0-.2.2-.2.3,0,0,0,.2,0,.2,0,0,.1,0,.1,0,0,0,.1-.2.2-.2s.2,0,.2,0c0,0,.4.3.3.4,0,.1-.2,0-.2,0s-.1,0-.2-.1c0,0-.3,0-.3.2,0,.2,0,.2,0,.2s0,.2.1.2.2,0,.3,0c.1,0,.2,0,.3.1.1.1.3,0,.2,0,0,0,0,0,0-.1-.2-.1-.2-.3-.1-.2,0,0,.2,0,.4.2.2.2.1.1.3.3.2.1.3,0,.2-.2,0-.2,0,0-.2-.2-.3-.2-.5-.3-.4-.5,0-.1.2,0,.3.2.1.2.3,0,.3,0,0,0-.1-.3,0-.1,0,0,0,.1.1.2.1,0,.1,0,.2,0,0,0,.3-.4.4-.5.1,0,0-.2,0-.2,0,0-.1-.2-.1-.2,0,0,0,0,.1,0,0,0,.2.2.2.2,0,0,.2,0,.1-.1,0,0-.1-.1-.2-.2,0,0,0,0,0-.1,0,0,.1,0,.1-.2s0-.2-.1-.2c0,0-.1.1-.2.1s-.2,0-.2,0c0,0,0-.1-.2-.1,0,0-.2,0-.1.1,0,0,.2.2.1.2,0,0-.2,0-.2,0,0,0,0,0-.2,0-.1,0-.3.1-.4.2,0,0-.2.1-.2.2,0,0,.2.2.2.3s0,0-.1,0c0,0-.2-.2-.2-.1,0,0-.1.1,0,.1,0,0,.2.2.1.2s-.1,0-.2,0c0-.1-.2-.3-.2-.3,0,0,0-.1.1-.2,0,0,.4-.4.5-.6,0,0,.4,0,.6-.1.3-.2.2-.3.1-.3,0,0-.2,0-.2,0,0,0-.2,0-.2,0s0-.2.1-.3c0-.1.2-.2,0-.3-.1,0-.4,0-.4,0,0,0,0,0,0,.1s0,.3-.2.4c-.2.1-.2,0-.3,0,0,0-.2,0-.3,0,0,0-.2,0-.2.2,0,0,0,0,.2,0,.1,0,.4,0,.2.2-.1.2-.4.4-.4.4,0,0-.1,0-.2-.2,0,0-.2-.5-.4-.5-.2,0-.2.1-.2.2,0,0,.2.3.3.5h0ZM23.1,21.8s0,0,0,0c0,0,0,0,.1,0,0,0,0,.2,0,.2s0,0-.1,0c0,0,0-.2,0-.2ZM23.4,21.3c0,0,.1,0,.1,0,0,0,.1,0,.1,0,0,0,0,0,0,0,0,0,0,0,.1,0,0,0,0,0,0,0,0,0,0,0,0,0s0,.2,0,.3c0,0-.1.2-.1.2,0,0,0,0,0,.1s0,0,0,.2c0,0,0,0-.1,0,0,0,0,0,0-.1,0,0,0-.2,0-.2,0,0,0,0,0-.1,0,0,0-.1-.1-.2,0,0,0,0,0,0h0ZM23.6,20.9c0,0,0,0,0,0,0,0,.1,0,.1,0,0,0,0,.1,0,.2,0,0-.1,0-.2,0,0,0,0,0,0-.1ZM22.5,22.2c.1,0,.1,0,.2,0,0,0,0-.1,0-.2,0,0,0-.1,0-.2,0,0,0-.2,0-.2,0,0,0,0,0-.2,0,0,0-.1,0-.2,0,0,0,0,0,0s0,.2,0,.2,0,0,0,0c0,0,0,.1,0,.2,0,0,0,.2,0,.2,0,0,0,.1,0,.1,0,0,0,0,0,0s0,0,.1,0,0,0,.1,0c0,0,0,0,0,0,0,0,0,0,.1,0,0,0,0,0,.1,0,0,0,0,0,0,0,0,0,0,0,0,0,0,0,0,0,0-.1,0,0,0,0,.1,0,0,0,0,0,0,0s0,0,0,0,0,0,0,0c0,0,0,.1,0,.1,0,0,0,0,.1,0,0,0,0,0,0,0,0,0,0-.1,0-.2,0,0,0,0,0-.1s0-.1,0-.2c0,0,0-.1.1-.2,0,0,0-.1.1-.2,0,0,0-.2,0-.2,0,0,0,0,0-.1,0,0,0-.1-.1-.1,0,0-.2,0-.2,0,0,0,0,0,0,.1,0,0,0,.2-.1.2,0,0-.1.2-.2.3,0,0,0,.2,0,.2,0,0,0,0,0,0,0,0,0,0-.1,0,0,0,0,0,0-.1,0,0,0-.2.1-.3,0,0,.2-.2.2-.3,0-.1,0-.2,0-.3,0,0,0,0,0-.1,0,0-.1-.2-.2-.2,0,0-.2-.1-.2-.1,0,0-.2,0-.2,0,0,0-.1.2-.2.3,0,0,0,.2-.1.2,0,0,0,0-.1,0s-.1,0-.1,0c0,0,0,0,0-.1,0,0,.1,0,.1-.2,0,0,0-.1,0-.2,0,0,0,0,0-.1,0,0,0,0-.1,0s-.1,0-.1,0,0,0,0,0c0,0,0,.2-.1.3,0,.1-.2.2-.2.3,0,0-.1,0-.1.1,0,0,0,.2,0,.3,0,0,0,.1,0,.2,0,0,0,.1,0,.2,0,0,0,.2,0,.2,0,0,0,.1.1.1h0ZM26.1,30.4c.2,0,.5.2.5.2,0,0,.2.1.2.2,0,.1-.1.2-.1.3,0,0,0,0,0,.2,0,0-.2.2-.2.2,0,0,0,.2.1.3,0,0,0,0,.1,0,0,0,.1-.3.2-.4,0-.2.3-.6.3-.6,0,0-.1-.3-.1-.3s0-.2.2-.3c.1-.1.4-.2.4-.3,0,0,0,0,0-.1-.1,0-.3,0-.4.1,0,0-.2.2-.3.3s-.1,0-.2,0c0,0,0-.1,0-.2.1-.1.2-.2.3-.3,0,0,.2-.2.3-.3,0,0,.1,0,.2-.1,0,0,0-.1,0-.2s-.2,0-.3.1-.1.1-.2.2c0,0-.4.4-.4.4,0,0-.2.1-.2,0,0,0,0-.1,0-.3,0-.2.4-.5.5-.6.1,0,.4-.2.6-.2.2,0,.2-.1.2-.2,0,0-.2,0-.6,0-.4.1-.9.6-.9.6,0,0-.2.1-.2.2,0,.2-.1.3-.2.4-.1,0,0,.1,0,.2,0,.1.2.2.4.2ZM27.4,31.2c0,0,0,.3-.1.3,0,0,0,0,0,.1s0,.2,0,.2c0,0,0,.2,0,.2,0,0,.1,0,.2,0,0-.1,0-.3.2-.5.1,0,.2,0,.2,0,0,0,0,0,0,.1s0,.2,0,.3c0,0,0,.1,0,.2,0,0,0,0,.1,0,0,0,0-.1,0-.3,0-.1.1-.3.2-.4s0-.2,0-.2c0,0-.3,0-.4,0,0,0-.1-.2,0-.3,0-.2.1-.3.2-.3,0,0,.2,0,.3,0,0,0,.2,0,.3,0s.1-.2,0-.2c0,0-.1,0-.2,0s-.2,0-.3,0c0,0,0-.1,0-.2s.2-.3.3-.4c0,0,.1-.2,0-.3,0-.1-.1-.1-.2,0,0,0-.2.2-.2.3,0,0-.1.2-.1.3,0,.2,0,.4-.1.5s0,.3-.1.3c0,0-.2.3-.2.4,0,0-.1.2-.1.3ZM24.1,30.8s0,0,0-.2c.1,0,.2-.2.2-.3.2,0,.3-.2.4-.4.2,0,.3-.2.4-.3.2,0,.3-.3.3-.3.3-.1.4-.3.4-.4.3-.1.4-.3.4-.4.3-.1.2-.3.4-.3.2,0,.3-.3.3-.3,0,0,.2,0,.3-.2,0,0,0,0,0,0,0,.2.2.3.4.3,0,.1.3.2.5.2.1,0,.3.2.5.2,0,0,.3.2.5.1,0,0,.2.1.3,0,0,.2,0,.3,0,.4,0,0,0,.3,0,.5,0,.2,0,.3,0,.5,0,.1-.1.3,0,.5,0,.2,0,.3,0,.5,0,.1-.1.3,0,.5,0,0-.1.2,0,.5,0,.2,0,.3,0,.5,0,0,0,.1,0,.2-.2,0-.4,0-.5,0,0,0-.2-.2-.7-.1,0,0-.2-.2-.7-.2,0,0-.2-.2-.7-.2,0,0-.2-.3-.6-.3,0,0-.2-.3-.6-.4,0,0-.2-.3-.6-.4,0,0-.1-.3-.6-.5h0ZM24.5,32.1c-.2,0-.4-.2-.4-.4,0-.2,0-.6,0-.6,0,0,0-.2,0-.2.1,0,.2.1.3.2.1.1,0,.5,0,.7s0,.2,0,.2h0ZM24,30.6c0,0-.1-.1-.2-.2,0,0,0,0,0,0,0,0,0,0-.1,0,0,0,0,0,0-.1,0,0,0,0,0,0,0,0,.1,0,.1,0,0,0,.2.1.3.2,0,0,.2.1.2,0,0,0,0,.1-.2.2,0,0,0,0,0,0h0ZM23.9,31.4c0,.1,0,.3,0,.3-.2,0-.3-.2-.4-.4,0-.2,0-.5,0-.6,0,0,0-.2,0-.2.1,0,.2.1.3.2.1.1,0,.5,0,.7ZM23.3,30.9c0,0,0,.2,0,.2-.2,0-.3-.2-.4-.4,0-.2.1-.5.2-.6,0,0,0-.2,0-.2.1,0,.2.2.3.3,0,.1,0,.5,0,.7ZM22.8,30.3c0,.1,0,.2,0,.2-.2,0-.3-.3-.3-.5,0-.2.2-.5.2-.6,0,0,0,0,0-.2.1,0,.2.2.2.3s0,.5-.1.7h0ZM22.2,29.9c-.2,0-.3-.3-.3-.5s.2-.5.3-.6c0,0,0,0,0-.1,0,0,.1.2.2.3,0,.1-.1.5-.2.6,0,.1,0,.2,0,.2ZM21.8,29.2c-.1-.1-.2-.3-.2-.5s.3-.5.3-.5c0,0,0-.1,0-.1,0,0,.1.2.2.3,0,.1-.2.5-.2.6,0,0,0,.1-.1.2ZM21.4,28.5c-.1-.1-.2-.3-.2-.5,0-.2.3-.5.4-.5,0,0,0,0,0-.1,0,0,.1.2.2.3,0,.1-.2.5-.3.6,0,0-.1.2-.1.2ZM21.1,27.8c-.1-.1-.2-.4-.1-.5,0-.2.3-.4.4-.5,0,0,0,0,.1-.1,0,0,0,.2.1.4,0,.1-.3.5-.3.6,0,0-.1.2-.1.2h0ZM20.8,27c-.1-.1-.1-.4,0-.6,0-.2.4-.4.4-.4,0,0,0,0,.1-.1,0,0,0,.2,0,.4,0,.2-.3.5-.4.5,0,0-.1.1-.2.2ZM20.6,25.7c0-.2.4-.4.5-.4,0,0,.1-.1.1-.1,0,.1,0,.2,0,.4,0,.2-.3.4-.4.5,0,0-.1.1-.2.2-.1-.2-.1-.4,0-.6ZM20.5,24.9c0-.2.4-.3.5-.4,0,0,.1,0,.1,0,0,.1,0,.2,0,.4,0,.2-.4.4-.5.5-.1,0-.2.2-.2.2,0-.2,0-.4,0-.6ZM20.5,24.1c0-.2.5-.3.5-.3,0,0,.1,0,.1,0,0,.1,0,.2,0,.4,0,.2-.4.4-.5.4-.1,0-.2.2-.2.2,0-.2,0-.4,0-.6h0ZM20.6,23.3c.1-.2.5-.3.6-.3,0,0,.1,0,.1,0,0,.1,0,.2,0,.4,0,.2-.4.3-.5.4s-.2.1-.2.1c0-.2,0-.4,0-.6h0ZM20.7,22.5c.1-.1.5-.2.6-.2,0,0,.1,0,.1,0,0,.1,0,.2,0,.4,0,.1-.5.3-.6.3,0,0-.2,0-.2.1,0-.2,0-.4.1-.5ZM20.9,21.7c.1-.1.5-.2.6-.2,0,0,.2,0,.2,0,0,.1,0,.2-.1.4,0,.1-.5.2-.6.3,0,0-.2,0-.2,0,0-.2,0-.4.2-.5h0ZM21.2,21c.1-.1.5-.1.6-.1,0,0,.2,0,.2,0,0,.1,0,.2-.1.4,0,.1-.5.2-.6.2-.1,0-.2,0-.2,0,0-.2,0-.4.2-.5ZM21.5,20.3c.2-.1.5,0,.6,0,0,0,.2,0,.2,0,0,.1,0,.2-.2.3,0,.1-.5.2-.6.2,0,0-.2,0-.2,0,0-.2.1-.4.3-.5ZM21.9,19.6c.2,0,.5,0,.6,0s.2,0,.2,0c0,.1-.1.2-.2.3,0,.1-.5.1-.6.1,0,0-.2,0-.2,0,0-.2.2-.4.3-.5h0ZM22.4,18.9c.2,0,.5,0,.6,0,0,0,.2,0,.2,0,0,.1-.1.2-.2.3-.1.1-.5,0-.7,0,0,0-.2,0-.3,0,0-.2.2-.4.4-.4h0ZM22.9,18.3c.2,0,.5,0,.6,0,0,0,.2,0,.2,0,0,.1-.1.2-.2.3-.1.1-.5,0-.7,0-.1,0-.2,0-.2,0,0-.2.2-.3.4-.4h0ZM23.4,17.8c.2,0,.5.1.6.1,0,0,.2,0,.2,0,0,.1-.1.2-.3.3-.1,0-.5,0-.7,0-.1,0-.3,0-.3,0,0-.2.2-.3.4-.4ZM24.1,17.2c.2,0,.5.2.6.2,0,0,0,0,.1,0,0,0-.2.2-.3.2-.1,0-.5,0-.6-.1-.1,0-.2,0-.2,0,0-.2.3-.3.4-.3h0ZM24.7,16.8c.2,0,.5.2.5.2,0,0,.1,0,.1,0,0,0-.2.1-.3.2-.1,0-.5-.1-.6-.2-.1,0-.2,0-.2,0,0-.2.3-.3.5-.3h0ZM25.4,16.4c.2,0,.5.3.5.3,0,0,0,0,.1,0,0,0-.2.1-.3.2-.1,0-.5-.2-.6-.2-.1,0-.2-.1-.2-.1.1-.1.3-.2.5-.2h0ZM26.1,16c.2,0,.5.3.5.4,0,0,.1,0,.1,0,0,0-.2.1-.4.2-.1,0-.5-.2-.6-.3,0,0-.1,0-.2-.1.1-.1.3-.2.5-.2ZM26.9,15.8c.2,0,.4.3.5.4s.1.1.1.1c0,0-.2.1-.4.1-.2,0-.5-.2-.6-.3,0,0-.1-.1-.2-.1.1-.1.4-.2.6-.2h0ZM27.6,15.6c.2,0,.4.4.4.4,0,0,.1.1.1.1-.1,0-.2,0-.4.1-.2,0-.5-.3-.5-.4,0,0-.1-.1-.2-.2.2-.1.4-.2.6-.1h0ZM28.4,15.4c.2,0,.4.4.4.5,0,0,0,0,.1.1-.1,0-.2,0-.4,0-.2,0-.4-.3-.5-.4,0-.1-.2-.2-.2-.2.2-.1.4-.1.6,0ZM29.2,15.3c.2,0,.3.4.4.5,0,0,0,0,0,.1-.1,0-.2,0-.4,0-.2,0-.4-.4-.5-.5,0-.1-.2-.2-.2-.2.2,0,.4,0,.6,0ZM30,15.3c.2,0,.3.5.3.5,0,0,0,.1,0,.1-.1,0-.2,0-.4,0-.2,0-.4-.4-.4-.5,0-.1-.1-.2-.1-.2.2,0,.4,0,.6,0h0ZM30.8,15.4c.2.1.2.5.3.6,0,0,0,.1,0,.1-.1,0-.2,0-.4,0-.2,0-.3-.4-.4-.5,0-.1-.1-.2-.1-.2.2,0,.4,0,.6,0ZM31.6,15.6c.1.1.2.5.2.6,0,0,0,.1,0,.2-.1,0-.2,0-.4,0-.1,0-.3-.5-.3-.6,0-.1-.1-.2-.1-.2.2,0,.4,0,.6.1ZM32.4,15.8c.1.1.1.5.1.6,0,0,0,.1,0,.2-.1,0-.2,0-.4-.1-.1,0-.2-.5-.3-.6,0,0,0-.2,0-.2.2,0,.4,0,.5.2h0ZM33.1,16c.1.1,0,.5,0,.6,0,0,0,.2,0,.2-.1,0-.2,0-.4-.1-.1,0-.2-.5-.2-.6,0-.1,0-.2,0-.2.2,0,.4,0,.5.2ZM33.8,16.4c.1.2,0,.5,0,.6,0,0,0,.2,0,.2-.1,0-.2,0-.4-.2-.1,0-.2-.5-.2-.6,0-.1,0-.2,0-.2.2,0,.4.1.5.3ZM34,17.3s.1.3.6.4c0,0,0,.3.6.5,0,0,0,0,.1.2-.2,0-.3.2-.3.3,0,0-.3.1-.4.4-.2,0-.3.2-.3.4-.1,0-.3.1-.4.4-.2,0-.3.2-.4.3,0,0-.3.1-.3.4,0,0-.2,0-.4.3-.2,0-.3.2-.4.3,0,0-.1,0-.2.2,0,0,0,0,0,0,0-.2-.2-.3-.4-.3,0-.2-.3-.3-.5-.2,0-.1-.2-.2-.5-.2,0,0-.3-.2-.5-.1,0,0-.1,0-.2,0h0c0-.1,0-.3,0-.4,0-.2,0-.3,0-.5,0-.2,0-.4,0-.5.1-.2,0-.5,0-.5.1-.3,0-.5,0-.5.1-.3,0-.5,0-.5.1-.3,0-.3,0-.5,0-.2,0-.4,0-.5,0,0,0-.1,0-.2.1,0,.3,0,.5,0,0,0,.2.2.7.1,0,0,.2.2.7.2,0,0,.1.2.7.2,0,0,.1.2.7.3,0,0,.1.2.7.4h0ZM34.5,16.8c0,.2,0,.5,0,.6,0,0,0,.2,0,.2-.1,0-.2-.1-.3-.2-.1,0-.1-.5,0-.7,0-.1,0-.3,0-.3.2,0,.4.2.5.3ZM34.7,16.8c.2,0,.4.2.4.4,0,.2,0,.5,0,.6,0,0,0,.2,0,.2-.1,0-.2-.1-.3-.2-.1-.1,0-.5,0-.7,0-.1,0-.3,0-.3ZM35.3,17.6c0-.1,0-.3,0-.3.2,0,.4.2.4.4,0,.2,0,.5-.1.6,0,0,0,.2,0,.2-.1,0-.2-.1-.3-.3-.1-.1,0-.5,0-.7ZM35.9,18.1c0-.1,0-.2,0-.2.2,0,.3.2.4.4,0,.2-.1.5-.2.6,0,0,0,.1,0,.2-.1,0-.2-.2-.3-.3,0-.1,0-.5,0-.7ZM36.5,18.4c.2,0,.3.3.3.5,0,.2-.2.5-.2.6,0,0,0,.2,0,.2-.1,0-.2-.2-.3-.3,0-.1,0-.5.1-.6,0-.1,0-.2,0-.2ZM36.9,19.3c0,0,0-.2,0-.2.2,0,.3.3.3.5,0,.2-.2.5-.3.5,0,0,0,.1,0,.1,0,0-.1-.2-.2-.3,0-.1.1-.5.2-.6ZM37.4,19.9c0-.1.1-.2.1-.2.2.1.2.3.2.5,0,.2-.3.5-.3.5,0,0,0,.1,0,.1,0,0-.1-.2-.2-.3,0-.1.2-.5.2-.6ZM37.9,20.4c.1.1.2.4.2.5,0,.2-.3.5-.4.5,0,0,0,.1,0,.1,0,0-.1-.2-.2-.4,0-.1.2-.5.3-.6,0,0,.1-.2.1-.2ZM38.2,21.1c.1.1.2.4.2.5,0,.2-.3.4-.4.5,0,0,0,0-.1.1,0,0-.1-.2-.1-.4s.3-.5.3-.6c0,0,.1-.1.1-.2h0ZM38.4,21.9c.1.1.2.4.1.6,0,.2-.4.4-.4.4,0,0,0,0-.1.1,0-.1,0-.2-.1-.4,0-.2.3-.5.4-.5,0,0,.2-.2.2-.2ZM38.7,23.2c0,.2-.4.4-.5.4,0,0,0,0-.1.1,0-.1,0-.2,0-.4,0-.2.3-.4.4-.5,0,0,.2-.2.2-.2.1.2.1.4,0,.6ZM38.7,24c0,.2-.4.3-.5.3,0,0-.1,0-.1,0,0-.1,0-.2,0-.4,0-.2.4-.4.5-.5.1,0,.2-.2.2-.2,0,.2,0,.4,0,.6ZM38.7,24.8c0,.2-.5.3-.5.3,0,0,0,0-.1,0,0-.1,0-.2,0-.4,0-.2.4-.4.5-.4.1,0,.2-.1.2-.1,0,.2,0,.4,0,.6ZM38.7,25.6c-.1.2-.5.2-.6.3,0,0-.1,0-.2,0,0-.1,0-.2,0-.4,0-.2.5-.3.6-.4.1,0,.2-.1.2-.1,0,.2,0,.4-.1.6h0ZM38.6,26.4c-.1.1-.5.2-.6.2,0,0-.1,0-.2,0,0-.1,0-.2,0-.4,0-.2.5-.3.6-.3.1,0,.2-.1.2-.1,0,.2,0,.4-.1.6ZM38.3,27.2c-.1.1-.5.2-.6.2,0,0-.2,0-.2,0,0-.1,0-.2.1-.4s.5-.2.6-.3c0,0,.2,0,.2,0,0,.2,0,.4-.2.5ZM38.1,27.9c-.1.1-.6.1-.6.1,0,0-.1,0-.2,0,0-.1,0-.2.1-.4,0-.1.5-.2.6-.2.1,0,.2,0,.2,0,0,.2,0,.4-.2.5ZM37.7,28.6c-.2.1-.6,0-.6,0,0,0-.1,0-.2,0,0-.1,0-.2.2-.4,0-.1.5-.2.7-.2.1,0,.2,0,.2,0,0,.2-.1.4-.3.5ZM37.3,29.3c-.2,0-.6,0-.6,0,0,0-.2,0-.2,0,0-.1.1-.2.2-.4,0-.1.5-.1.7-.1.1,0,.2,0,.2,0,0,.2-.2.4-.3.5h0ZM36.9,30c-.2,0-.6,0-.6,0,0,0-.2,0-.2,0,0-.1.1-.2.2-.3.1-.1.6,0,.7,0,.1,0,.3,0,.3,0,0,.2-.2.4-.4.4ZM36.4,30.6c-.2,0-.6,0-.6,0,0,0-.1,0-.2,0,0-.1.1-.2.3-.3.1-.1.6,0,.7,0,.1,0,.3,0,.3,0,0,.2-.2.3-.4.4ZM35.8,31.2c-.2,0-.5-.1-.6-.2,0,0-.1,0-.2,0,0-.1.2-.2.3-.3.1,0,.6,0,.7,0,0,0,.2,0,.2,0,0,.2-.3.3-.4.4ZM35.2,31.7c-.2,0-.5-.2-.6-.2,0,0-.2,0-.2,0,0-.1.2-.2.3-.3.1,0,.5,0,.7.1,0,0,.2,0,.2,0,0,.2-.3.3-.5.3ZM34.5,32.1c-.2,0-.5-.2-.6-.3,0,0-.2,0-.2,0,0,0,.2-.2.3-.2.1,0,.5.1.6.2,0,0,.2,0,.2,0,0,.2-.3.3-.5.3h0ZM33.9,32.5c-.2,0-.5-.3-.5-.3,0,0-.1,0-.1,0,0,0,.2-.1.4-.2.2,0,.5.2.6.2,0,0,.1,0,.2.1-.1.2-.3.2-.5.2ZM33.1,32.9c-.2,0-.5-.3-.5-.4,0,0,0,0-.1,0,0,0,.2-.1.4-.2.2,0,.5.2.6.3,0,0,.2.1.2.1-.1.1-.3.2-.5.2ZM32.4,33.2c-.2,0-.4-.3-.5-.4,0,0-.1-.1-.1-.1.1,0,.2,0,.4-.1.2,0,.5.3.6.3,0,0,.2.1.2.1-.2.1-.4.2-.6.2h0ZM31.6,33.4c-.2,0-.4-.4-.4-.4,0,0-.1-.1-.1-.1.1,0,.2,0,.4,0,.2,0,.5.3.5.4,0,0,.1.1.2.2-.2.1-.4.1-.6,0ZM30.8,33.5c-.2,0-.4-.4-.4-.5,0,0-.1-.1-.1-.1.1,0,.2,0,.4,0,.2,0,.4.3.5.4s.2.2.2.2c-.2,0-.4.1-.6,0h0ZM30,33.6c-.2,0-.3-.5-.4-.5,0,0,0,0,0-.1.1,0,.2,0,.4,0,.2,0,.4.4.5.5,0,.1.2.2.2.2-.2,0-.4,0-.6,0ZM29.4,30.6c.2,0,.3,0,.4,0,0,0,.1,0,.2,0,0,0,0,.2,0,.3,0,0-.1.1-.4.2-.1,0-.2,0-.2,0,0-.1,0-.3,0-.4ZM28.9,28.1s0,0,0,0c0,0,.2,0,.3,0s.2.3.3.4c0,0,0,.1,0,.1-.1,0-.3,0-.4,0-.1,0-.2-.3-.2-.4ZM28.4,27.9c0,0,.2,0,.3,0,.1,0,.2.3.2.4,0,0,0,.2,0,.2-.1,0-.3,0-.4,0,0,0-.1-.3-.1-.4,0,0,0-.1,0-.1ZM32.8,21.4s.2.1.2.1c0,0,0,.1-.2.2,0,0,0,0,0,0,0,0-.1,0-.2-.1,0,0,0,0,0,0,0,0-.1-.2-.3-.3,0,0,0,0,0,0,0,0,.1,0,.1,0,0,0,.2.1.3.2ZM33.2,21.1s0,0,.1,0c0,0,0,.1-.2.2,0,0-.2,0-.4-.2,0,0-.2,0-.2,0,0-.1.2-.3.3-.2.2.1.2.2.3.2ZM33.6,20.7s.1,0,.2,0c0,0-.1.1-.2.2,0,0-.2,0-.4-.2,0,0-.2,0-.2,0,0,0,.2-.3.3-.2.2.1.2.2.3.2ZM33.9,20.4s.1,0,.2,0c0,0-.1.1-.2.2,0,0-.2,0-.4-.2,0,0-.2,0-.2,0,0,0,.2-.3.3-.2.2.1.2.2.3.2ZM34.3,20s.1,0,.2,0c0,0-.1.1-.2.2,0,0-.2,0-.4-.2,0,0-.2,0-.2,0,0-.1.2-.3.3-.2.2.1.2.2.3.2ZM34.7,19.7s.1,0,.2,0c0,0-.1.1-.2.2,0,0-.2,0-.4-.2,0,0-.2,0-.2,0,0-.1.2-.3.3-.2.2.1.2.2.3.2ZM35,19.3s.1,0,.2,0c0,0-.1.1-.2.2,0,0-.2,0-.4-.2,0,0-.2,0-.2,0,0,0,.2-.3.3-.2.2.1.2.2.3.2h0ZM35.3,19s.1,0,.2,0c0,0-.1.1-.2.2,0,0-.2,0-.4-.2,0,0-.2,0-.2,0,0,0,.2-.3.3-.2.2.1.2.2.3.2ZM35.6,19c0,0-.2,0-.4-.2,0,0-.2,0-.2,0,0-.2.2-.3.3-.3,0,0,0,0,.1.1,0,0,.1.1.2.2,0,0,0,0,0,.1,0,0-.1,0-.2.1h0ZM37.9,24.7s0,0,0,.1c0,0-.2,0-.2,0,0,0-.1-.2-.1-.4,0,0,0-.2-.1-.2.2,0,.4,0,.4,0,0,0,0,.2,0,.3,0,0,0,0,0,.2h0ZM34.6,24.7c0,.1,0,.2,0,.2-.1,0-.3,0-.4,0,0-.2,0-.3,0-.4,0,0,0-.1,0-.2,0,0,.2,0,.3,0,0,0,.1.2.2.4ZM35.1,24.7c0,.1,0,.2,0,.2-.1,0-.3,0-.4,0,0-.2,0-.3,0-.4,0,0,0-.1,0-.2,0,0,.2,0,.3,0,0,0,.1.1.2.4h0ZM35.6,24.8c-.1,0-.3,0-.4,0,0-.2,0-.3,0-.4,0,0,0-.1,0-.2,0,0,.2,0,.3,0,0,0,.1.1.2.4,0,.1,0,.2,0,.2ZM36.1,24.9c-.1,0-.3,0-.4,0,0-.2,0-.3,0-.4,0,0,0-.1,0-.2,0,0,.2,0,.3,0,0,0,.1.2.2.4,0,.1,0,.2,0,.2ZM36.6,24.7c0,.1,0,.2,0,.2-.1,0-.3,0-.4,0,0-.2,0-.3,0-.4,0,0,0-.1,0-.2,0,0,.2,0,.3,0,0,0,.1.2.2.4h0ZM37.1,24.2c0,0,.2,0,.3,0,0,0,.1.2.2.4,0,.1,0,.2,0,.2-.1,0-.3,0-.4,0,0-.2,0-.3,0-.4,0,0,0-.1,0-.1h0ZM37.1,24.8c-.1,0-.3,0-.4,0,0-.2,0-.3,0-.4,0,0,0-.1,0-.2,0,0,.2,0,.3,0,0,0,.1.2.2.4,0,.1,0,.2,0,.2ZM33.8,24.5s0,0,0,0c0,0,0-.1,0-.2,0,0,0,0,0,0,0,0,0,0,.1,0,0,0,.1.1.2.4,0,.1,0,.2,0,.2-.2,0-.3,0-.4,0,0,0,0,0,0,0,0-.1,0-.2,0-.3h0ZM30.8,28.2s0,0,.1.1c-.1,0-.2.1-.4,0-.1,0-.3-.2-.3-.3,0,0,0,0,0,0,0,0,.1,0,.2,0,.1,0,.3.2.4.2h0ZM31.3,28.1c0,0,.1,0,.1,0,0,0-.2.1-.4.1-.1,0-.3-.2-.3-.2,0,0,0,0,0,0,0,0,.1,0,.2-.1,0,0,.3.2.4.2ZM31.7,27.8s0,0,.2,0c0,.1-.2.2-.3.2-.1,0-.3-.2-.4-.2,0,0,0,0,0,0,0,0,.1,0,.2-.1,0,0,.3.1.4.2ZM32.1,27.5c0,0,.1,0,.2,0,0,.1-.2.2-.3.2-.1,0-.3-.1-.4-.2,0,0-.1,0-.1,0,0,0,.1-.1.2-.2s.4,0,.4.1h0ZM32.5,27.2c0,0,.2,0,.2,0,0,.1-.1.2-.3.3-.1,0-.4,0-.4,0,0,0-.1,0-.1,0,0,0,0-.1.2-.2s.4,0,.4,0ZM32.8,27.8c0,0,0,.2,0,.2-.2,0-.3-.3-.3-.3,0,0,0,0,.1-.1h0c0,0,.1-.1.2-.2,0,0,0,0,0,0,0,0,.1.1.2.2,0,0,0,.2-.2.4ZM33.1,28.1c0,0,0,.2,0,.2,0,0-.3-.2-.2-.3,0-.2.1-.2.2-.3,0,0,0-.1,0-.2,0,0,.1,0,.2.2,0,0,0,.2-.2.4ZM33.5,28.4c0,0,0,.2,0,.2,0,0-.3-.2-.2-.3,0-.2.1-.2.2-.3,0,0,0-.1,0-.2,0,0,.1,0,.2.2,0,0,0,.2-.2.4ZM33.8,28.8c0,0,0,.2,0,.2,0,0-.3-.2-.2-.3,0-.2.1-.2.2-.3,0,0,0,0,0-.2,0,0,.1,0,.2.2,0,0,0,.2-.2.4h0ZM34.1,29.1c0,0,0,.2,0,.2,0,0-.3-.2-.2-.3,0-.2.1-.2.2-.3,0,0,0-.1,0-.2,0,0,.1,0,.2.2,0,0,0,.2-.2.4ZM34.5,29.5c0,0,0,.2,0,.2,0,0-.3-.2-.2-.3,0-.2.1-.2.2-.3,0,0,0-.1,0-.2,0,0,.1,0,.2.2,0,0,0,.2-.2.4ZM35.1,29.7s0,0,0-.1c0,0,.1,0,.2.2,0,0,0,.2-.2.4,0,0,0,.2,0,.2,0,0-.3-.2-.2-.3,0-.2.1-.2.2-.3ZM34.8,29.8c0,0,0,.2,0,.2,0,0-.3-.2-.2-.3,0-.2.1-.2.2-.3,0,0,0,0,0-.2,0,0,.1,0,.2.2,0,0,0,.2-.2.4ZM32.8,26.8c0,0,.2,0,.2,0,0,.1-.1.2-.2.3-.1,0-.4,0-.4,0,0,0-.1,0-.1,0,0,0,0-.1.1-.2,0,0,.4,0,.4,0ZM33.1,26.4c0,0,.1,0,.2,0,0,.1,0,.2-.2.3-.1,0-.4,0-.4,0,0,0-.1,0-.1,0,0,0,0-.1.1-.2,0,0,.3,0,.4,0ZM33.3,26c0,0,.1,0,.2,0,0,.1,0,.3-.2.3,0,0-.4,0-.4,0,0,0-.1,0-.1,0,0,0,0-.1,0-.2,0,0,.3-.1.4-.1ZM33.5,25.5c0,0,.2,0,.2,0,0,.1,0,.3-.2.3,0,0-.3,0-.4,0,0,0,0,0-.1,0,0,0,0-.2,0-.2,0,0,.3-.1.4-.1h0ZM33.5,25c0,0,.1,0,.1,0,0,.1,0,.3,0,.4,0,0-.3.1-.4.1,0,0,0,0,0,0,0,0,0-.2,0-.3,0,0,.3-.2.4-.2h0ZM33.7,24.3c0,.1-.3.2-.3.2,0,0,0,0,0,0,0,0,0-.2,0-.3,0-.1.2-.3.3-.3,0,0,.1-.1.1-.1,0,.1,0,.3,0,.4ZM33.7,24.7c0,0,0,.1,0,.1,0,.1-.3.2-.4.2,0,0,0,0,0,0,0,0,0-.2,0-.3,0-.1.3-.2.3-.2,0,0,.1,0,.1,0h0s0,0,0,0c0,0,0,.1,0,.2h0ZM33.5,23.6c0,0,.1-.1.1-.1,0,.1,0,.2,0,.4,0,.1-.3.2-.3.2,0,0,0,0,0,0,0,0,0-.2,0-.2,0-.1.2-.3.3-.3h0ZM33.3,23.1c0,0,0-.1,0-.1,0,0,.1.2,0,.4,0,.1-.2.3-.3.3s0,0,0,0c0,0,0-.1,0-.2,0,0,.2-.3.2-.4ZM33.2,22.6c0,0,0-.1,0-.1,0,0,.1.2.1.3,0,.1-.2.3-.2.3,0,0,0,0,0,0,0,0,0-.1-.1-.2s.1-.3.2-.4ZM32.7,22.3s0,0,0,0c0,0-.1-.1-.2-.2s0-.3,0-.4c0,0,0-.1,0-.2.1,0,.2.2.2.3,0,.1-.1.3-.1.4ZM32.9,22.2c0,0,0-.2,0-.2.1,0,.2.2.2.3,0,.1-.2.3-.2.3,0,0,0,0,0,0,0,0,0-.1-.1-.2,0,0,0-.3.1-.4h0ZM29.8,28.2s0,0,0,0c0,0,.2,0,.3,0,.1,0,.3.2.3.3,0,0,.1.1.1.1-.1,0-.3,0-.4,0-.1,0-.2-.3-.2-.3h0ZM29.4,28.2s0,0,0,0c0,0,.2,0,.3,0,.1,0,.2.3.3.3,0,0,.1.1.1.1,0,0-.1,0-.2,0,0,0-.1,0-.2,0-.1,0-.2-.3-.2-.3h0ZM30,28.9c0,0-.2.1-.4.2-.1,0-.2,0-.2,0,0-.2,0-.4,0-.4,0,0,0,0,.2,0,.1,0,.3,0,.4,0,0,0,0,0,0,0,0,0,0,.2,0,.3ZM29.4,32.8c0,0,0-.1,0-.1,0,0,.2,0,.4,0,0,0,.2,0,.2,0,0,.1,0,.2,0,.3-.1,0-.2,0-.3,0h0c0,0-.1,0-.2,0,0,0,0,0,0,0,0,0,0,0,0,0h0ZM29.4,31.6c.2,0,.3,0,.4,0,0,0,.1,0,.2,0,0,0,0,.2,0,.3,0,0-.1.1-.4.2-.1,0-.2,0-.2,0,0-.1,0-.3,0-.4ZM30,31.3c0,0-.1.1-.4.2-.1,0-.2,0-.2,0,0-.1,0-.3,0-.4.2,0,.3,0,.4,0,0,0,.1,0,.2,0,0,0,0,.2,0,.3ZM30,32.3c0,0-.1.1-.4.2-.1,0-.2,0-.2,0,0-.1,0-.3,0-.4.2,0,.3,0,.4,0,0,0,.1,0,.1,0,0,0,0,.2,0,.3ZM29.4,30.1c.2,0,.3,0,.4,0,0,0,.1,0,.2,0,0,0,0,.2,0,.3,0,0-.1.1-.4.2-.1,0-.2,0-.2,0,0-.1,0-.3,0-.4ZM29.4,29.2c.2,0,.3,0,.4,0,0,0,.1,0,.2,0,0,0,0,.2,0,.3,0,0-.1.1-.4.2-.1,0-.2,0-.2,0,0-.1,0-.3,0-.4h0ZM29.4,29.6c.2,0,.3,0,.4,0,0,0,.1,0,.2,0,0,0,0,.2,0,.3,0,0-.1.1-.4.2-.1,0-.2,0-.2,0,0-.1,0-.3,0-.4ZM30.1,32.4c0-.2,0-.3,0-.5,0-.2,0-.4,0-.5.1-.2,0-.5,0-.5.1-.3,0-.5,0-.5.1-.3,0-.5,0-.5.1-.3,0-.3,0-.5,0-.2,0-.4,0-.5,0,0,0-.2,0-.3.1,0,.3,0,.4-.1,0,0,.4,0,.5-.1,0,0,.4,0,.5-.2.1,0,.3,0,.4-.3.2,0,.4,0,.4-.3,0,.2.2.4.4.4,0,0,.1.3.3.3,0,.2.2.3.3.3,0,.1.1.2.4.4,0,.2.2.3.3.4,0,0,.1.3.3.3,0,0,0,.2.3.3,0,0,.1.2.3.4,0,0,0,.1.1.2,0,0,0,0,0,0-.1,0-.3.2-.4.4,0,0,0,0-.2,0-.2,0-.3.2-.4.4,0,0-.4,0-.6.4,0,0-.3,0-.7.3,0,0-.3,0-.7.3,0,0-.3,0-.7.2,0,0-.3,0-.7.2,0,0-.3-.1-.7,0,0,0,0,0,0,0,0-.1,0-.3,0-.4h0ZM35.5,30.5h0s0,0,0,0c0,0,0,0,0,0ZM35.3,30.5s0,0,0,0c0,0,0,0,0-.1,0,0,0-.2.2-.3,0,0,.1-.2,0-.2,0,0,.2.2.2.3,0,0,0,0-.1.2,0,0,0,0,0,0,0,0-.1.1-.2.2ZM37.9,26.1s-.2.3-.2.7c0,0-.2.2-.2.7,0,0-.3.2-.3.7,0,0-.2.1-.4.6,0,0-.3.2-.4.6,0,0-.3.2-.5.6,0,0,0,0-.1,0,0-.1-.2-.2-.3-.3,0-.2-.2-.3-.4-.3,0-.2-.2-.3-.3-.4,0-.2-.3-.3-.3-.3-.1-.3-.3-.3-.4-.3-.1-.3-.3-.4-.3-.4-.1-.3-.3-.2-.3-.4,0-.2-.2-.3-.3-.3,0,0,0-.1-.2-.2,0,0,.1-.2.1-.3.2,0,.3-.3.3-.4.2,0,.3-.3.2-.5.2-.1.2-.3.2-.5.1-.1.2-.3,0-.5.2,0,.3,0,.4,0,0,0,.3,0,.5,0,.2,0,.3,0,.5,0,.1,0,.3.1.5,0,0,0,.3,0,.5,0,.1,0,.3,0,.5,0,0,0,.2.1.5,0,.2,0,.3,0,.5,0,0,0,.2,0,.2,0,0,.1,0,.3,0,.4,0,0-.2.2-.1.7ZM37.6,21.7s0,.4.2.7c0,0,0,.3.1.7,0,0-.1.3,0,.7,0,0,0,0,0,.2-.1,0-.3,0-.4,0-.2,0-.3,0-.5,0-.2,0-.4,0-.5,0-.2-.1-.5,0-.5,0-.3-.1-.5,0-.5,0-.3-.1-.5,0-.5,0-.3-.1-.3,0-.5,0-.2,0-.4,0-.5,0,0,0,0,0-.1,0,0-.1,0-.2-.1-.3,0-.2,0-.4,0-.5,0-.2,0-.4-.2-.5,0-.2,0-.4-.2-.5,0-.1,0-.3-.3-.4,0,0,0-.1,0-.2.1,0,.2-.2.2-.3.2,0,.3-.2.4-.4.2,0,.3-.2.4-.3.2,0,.3-.3.3-.3.3-.1.4-.3.4-.4.3,0,.4-.3.4-.4.3-.1.2-.3.4-.3.2,0,.3-.3.3-.3,0,0,.1,0,.2-.1,0,0,.2.2.3.3,0,0,0,.3.4.6,0,0,0,.3.4.6,0,0,0,.4.3.7,0,0,0,.3.3.7h0ZM32.2,21.3c.1,0,.2.1.3.3,0,.1,0,.3,0,.4,0,0,0,0,0,0,0,0-.1,0-.2-.2,0,0,0-.3,0-.4,0,0,0-.2,0-.2ZM31.8,21c.1,0,.2.1.3.2,0,.1,0,.4,0,.4,0,0,0,.1,0,.1,0,0-.1,0-.2-.1s0-.3,0-.4c0,0,0-.2,0-.2ZM31.7,21.5c0,0-.2,0-.2-.1,0,0,0-.3,0-.4,0,0,0-.2,0-.2.1,0,.3,0,.3.2,0,.1,0,.4,0,.4,0,0,0,.1,0,.1ZM31.3,21.2c0,0-.1,0-.2,0,0,0-.1-.3-.1-.4,0,0,0-.1,0-.1.1,0,.3,0,.3.1,0,0,0,.3,0,.4,0,0,0,0,0,.1ZM26.4,27.6c0,0-.2,0-.2,0,0-.2.2-.3.3-.3,0,0,0,0,.1,0,0,0,0,0,.1.1,0,0,.1.2.2.2,0,0-.1.1-.2.1,0,0-.2,0-.4-.2h0ZM26,28c0,0-.2,0-.2,0,0-.1.2-.3.3-.2.2.1.2.2.3.2,0,0,.1,0,.2,0,0,0-.1.1-.2.2,0,0-.2,0-.4-.2ZM25.7,28.3c0,0-.2,0-.2,0,0,0,.2-.3.3-.2.2.1.2.2.3.2,0,0,.1,0,.2,0,0,0-.1.1-.2.2,0,0-.2,0-.4-.2ZM25.3,28.6c0,0-.2,0-.2,0,0,0,.2-.3.3-.2.2.1.2.2.3.2,0,0,.1,0,.2,0,0,0-.1.1-.2.2,0,0-.2,0-.4-.2h0ZM25,29c0,0-.2,0-.2,0,0-.1.2-.3.3-.2.2.1.2.2.3.2,0,0,.1,0,.2,0,0,0-.1.1-.2.2,0,0-.2,0-.4-.2ZM24.6,29.3c0,0-.2,0-.2,0,0,0,.2-.3.3-.2.2.1.2.2.3.2,0,0,.1,0,.2,0,0,0-.1.1-.2.2,0,0-.2,0-.4-.2ZM24.3,29.7c0,0-.2,0-.2,0,0-.1.2-.3.3-.2.2.1.2.2.3.2,0,0,.1,0,.2,0,0,0-.1.1-.2.2,0,0-.2,0-.4-.2ZM24.1,29.7c.2.1.2.2.3.2,0,0,0,0,.1,0,0,0,0,.1-.2.2,0,0-.2,0-.4-.2,0,0-.2,0-.2,0,0,0,.2-.3.3-.2ZM21.5,24.2c0,0,.1.1.2.4,0,.1,0,.2,0,.2-.2,0-.3,0-.4,0,0-.2,0-.4,0-.6h0s0,0,0-.1c0,0,0,0,.2,0ZM25.1,24.2c.1,0,.2,0,.3,0,0,0,0,0,0,0,0,0,0,.2,0,.3,0,0,0,0,0,.2,0,0,0,0,0,.1,0,0-.1,0-.1,0,0,0,0-.2,0-.4,0,0,0-.2,0-.2ZM24.6,24.3c0,0,.2,0,.3,0,0,0,.1.2.2.4,0,.1,0,.2,0,.2-.1,0-.3,0-.4,0,0-.2,0-.3,0-.4,0,0,0-.1,0-.1ZM24.1,24.3c0,0,.2,0,.3,0,0,0,.1.1.2.4,0,.1,0,.2,0,.2-.1,0-.3,0-.4,0,0-.2,0-.3,0-.4,0,0,0-.1,0-.2h0ZM23.6,24.3c0,0,.2,0,.3,0,0,0,.1.1.2.4,0,.1,0,.2,0,.2-.1,0-.3,0-.4,0,0-.2,0-.3,0-.4,0,0,0-.1,0-.2h0ZM23.1,24.3c0,0,.2,0,.3,0,0,0,.1.2.2.4,0,.1,0,.2,0,.2-.1,0-.3,0-.4,0,0-.2,0-.3,0-.4,0,0,0-.1,0-.2ZM22.6,24.2c0,0,.2,0,.3,0,0,0,.1.1.2.4,0,.1,0,.2,0,.2-.1,0-.3,0-.4,0,0-.2,0-.3,0-.4,0,0,0-.1,0-.2h0ZM22.2,24.9c-.1,0-.3,0-.4,0,0-.2,0-.3,0-.4,0,0,0-.1,0-.2,0,0,.2,0,.3,0,0,0,.1.2.2.4,0,.1,0,.2,0,.2h0ZM22.2,24.4c0,0,0-.1,0-.2,0,0,.2,0,.3,0,0,0,.1.1.2.4,0,.1,0,.2,0,.2-.1,0-.3,0-.4,0,0-.2,0-.3,0-.4ZM24.1,18.5c0,0,0,.2-.2.4,0,.1,0,.2,0,.2-.1,0-.2-.1-.3-.3,0,0,.1,0,.2-.2,0,0,.1-.2.1-.2,0,0,0,0,0,0,0,0,0,0,0,0,0,0,0,.1.1.2ZM28.5,20.7c0,0-.1,0-.1,0,.1,0,.2-.1.4,0,.1,0,.3.2.3.3,0,0,0,0,0,0,0,0-.1,0-.2,0-.1,0-.3-.2-.4-.2ZM28,20.9c0,0-.1,0-.1,0,0,0,.2-.1.4-.1.1,0,.3.2.3.2,0,0,0,0,0,0,0,0-.1,0-.2.1,0,0-.3-.2-.4-.2ZM27.6,21.1c0,0-.2,0-.2,0,0-.1.2-.2.3-.2.1,0,.3.2.3.2,0,0,0,0,0,0,0,0-.1,0-.2.1,0,0-.3-.1-.4-.2h0ZM27.2,21.4c0,0-.1,0-.2,0,0-.1.2-.2.3-.2.1,0,.3.1.4.2,0,0,.1,0,.1,0,0,0-.1.1-.2.2,0,0-.4,0-.4-.1ZM26.8,21.7c0,0-.1,0-.2,0,0,0,0-.1,0-.1h0c0,0,0,0,.2-.1.1,0,.4,0,.4.1,0,0,.1,0,.1,0,0,0,0,.1-.2.2,0,0-.4,0-.4,0ZM26.3,21.6c0,0,.1-.2.2-.3,0,0,.1-.2,0-.2,0,0,.2.2.2.3-.1,0-.3.2-.3.3,0,0,0,0,0,0h0s0,0-.1,0c0,0,0,0,0,0,0,0,0-.1,0-.1ZM26,21.2c.1-.2.1-.2.2-.3,0,0,0-.1,0-.1,0,0,.1,0,.2.2,0,0,0,.2-.2.4,0,0,0,.2,0,.2-.1,0-.3-.2-.2-.3ZM25.6,20.9c.1-.2.1-.2.2-.3,0,0,0-.1,0-.2,0,0,.1.1.2.2,0,0,0,.2-.2.4,0,0,0,.2,0,.2-.1,0-.3-.2-.2-.3ZM25.3,20.6c0-.2.1-.2.2-.3,0,0,0-.1,0-.2,0,0,.1.1.2.2,0,0,0,.2-.2.4,0,0,0,.2,0,.2,0,0-.3-.2-.2-.3h0ZM24.9,20.2c0-.2.1-.2.2-.3,0,0,0-.1,0-.2,0,0,.1.1.2.2,0,0,0,.2-.2.4,0,0,0,.2,0,.2-.1,0-.3-.2-.2-.3h0ZM24.6,19.8c.1-.2.2-.2.2-.3,0,0,0-.1,0-.2,0,0,.1.1.2.2,0,0,0,.2-.2.4,0,0,0,.2,0,.2-.1,0-.3-.2-.2-.3ZM24.2,19.3c0,0,0,.2,0,.2-.1,0-.3-.2-.2-.3.1-.2.2-.2.2-.3,0,0,0-.1,0-.2,0,0,.1.1.2.2,0,0,0,.2-.2.4h0ZM24.2,19.5c.1-.2.2-.2.2-.3,0,0,0-.1,0-.2,0,0,.1.1.2.2,0,0,0,.2-.2.4,0,0,0,.2,0,.2,0,0-.3-.2-.2-.3h0ZM26.5,22.1c0,0-.2,0-.2,0,0-.1.1-.2.2-.3.1,0,.4,0,.4,0,0,0,0,0,.1,0,0,0,0,.1-.1.2s-.4,0-.4,0ZM26.2,22.5c0,0-.2,0-.2,0,0-.1,0-.2.2-.3.1,0,.4,0,.4,0,0,0,.1,0,.1,0,0,0,0,.1-.1.2,0,0-.4,0-.4,0ZM26,23c0,0-.2,0-.2,0,0-.1,0-.3.2-.3,0,0,.4,0,.4,0,0,0,.1,0,.1,0,0,0,0,.1-.1.2,0,0-.3,0-.4,0ZM25.8,23.4c0,0-.2,0-.2,0,0-.1,0-.3.1-.3,0,0,.4,0,.4,0,0,0,.1,0,.1,0,0,0,0,.2,0,.2,0,0-.3.1-.4.1ZM25.7,23.9c0,0-.1,0-.1,0,0-.1,0-.3.1-.4,0,0,.3-.1.4-.1,0,0,0,0,.1,0,0,0,0,.2,0,.2,0,0-.3.2-.4.2h0ZM25.6,25.2c0-.1.3-.2.3-.3,0,0,0,0,0,0,0,0,0,.1,0,.2,0,.1-.2.3-.3.3,0,0-.1.1-.1.1,0-.1,0-.2,0-.4ZM25.6,24.1c0-.1.3-.2.4-.2,0,0,0,0,0,0,0,0,0,.2,0,.3,0,.1-.3.2-.4.3,0,0,0,0-.1,0,0-.1,0-.3,0-.4h0ZM25.6,24.6c0-.1.3-.2.3-.2,0,0,0,0,0,0,0,0,0,.2,0,.3,0,.1-.3.2-.3.3,0,0,0,0-.1.1,0-.1,0-.3,0-.4ZM26,25.9c0,0-.1.1-.1.1,0,0-.1-.2,0-.4,0-.1.2-.3.3-.3,0,0,0,0,0,0,0,0,0,.1,0,.2,0,0-.2.3-.2.4h0ZM26.2,26.3c0,0,0,.1,0,.1,0,0-.2-.2-.1-.3,0-.1.2-.3.2-.3,0,0,0,0,0,0,0,0,0,.1.1.2,0,0-.1.3-.2.4ZM26.6,26.6s0,0,0,0c0,0,.1.1.2.2s0,.4,0,.4c0,0,0,.1,0,.2-.1,0-.2-.2-.2-.3,0-.1.1-.3.1-.4h0ZM26.4,26.7s0,0,0,.2c-.1,0-.2-.2-.2-.3,0-.1.2-.3.2-.4,0,0,0,0,0,0,0,0,.1.1.1.2,0,0,0,.3-.1.4h0ZM29.5,20.7s0,0,0,0c0,0-.2,0-.3,0-.1,0-.3-.2-.3-.3,0,0-.1-.1-.1-.1.1,0,.2,0,.4,0,.1,0,.2.3.2.3ZM29.4,18.1c.2,0,.3,0,.4,0,0,0,.1,0,.2,0,0,0,0,.2,0,.3,0,0-.1.1-.4.2-.1,0-.2,0-.2,0,0-.1,0-.3,0-.4ZM30,16.4c0,0-.2.1-.4.2-.1,0-.2,0-.2,0,0-.2,0-.4,0-.4,0,0,.1,0,.2,0,0,0,.2,0,.3,0,0,0,0,0,0,0,0,0,0,0,.1,0,0,0,0,.2,0,.2h0ZM29.7,20.4c.1,0,.2.3.2.3,0,0,0,0,0,0,0,0-.2,0-.3,0-.1,0-.2-.2-.3-.3,0,0-.1-.1-.1-.1.1,0,.3,0,.4,0ZM29.3,20.3c0,0,0-.1,0-.1,0,0,.2,0,.4,0,0,0,.2,0,.2,0,0,0,0,.3,0,.4,0,0,0,0-.1,0,0,0-.3,0-.5,0,0,0,0,0,0,0ZM29.4,19.6c.2,0,.3,0,.4,0,0,0,.1,0,.1,0,0,0,0,.2,0,.3,0,0-.1.1-.4.2-.1,0-.2,0-.2,0,0-.1,0-.3,0-.4ZM29.4,19.1c.2,0,.3,0,.4,0,0,0,.1,0,.2,0,0,0,0,.2,0,.3,0,0-.1.1-.4.2-.1,0-.2,0-.2,0,0-.1,0-.3,0-.4ZM30,18.8c0,0-.1.1-.4.2-.1,0-.2,0-.2,0,0-.1,0-.3,0-.4.2,0,.3,0,.4,0,0,0,.1,0,.2,0,0,0,0,.2,0,.3ZM29.4,17.6c.2,0,.3,0,.4,0,0,0,.1,0,.2,0,0,0,0,.2,0,.3,0,0-.1.1-.4.2-.1,0-.2,0-.2,0,0-.1,0-.3,0-.4ZM29.4,16.7c.2,0,.3,0,.4,0,0,0,.1,0,.2,0,0,0,0,.2,0,.3,0,0-.1.1-.4.2-.1,0-.2,0-.2,0,0-.1,0-.3,0-.4ZM29.4,17.1c.2,0,.3,0,.4,0,0,0,.1,0,.2,0,0,0,0,.2,0,.3,0,0-.1.1-.4.2-.1,0-.2,0-.2,0,0-.1,0-.3,0-.4ZM30.4,20.5c.1,0,.3,0,.4.1,0,0,.1.3.1.4,0,0,0,0,0,0,0,0-.2,0-.3,0,0,0-.2-.3-.2-.4,0,0,0-.1,0-.2ZM30.4,20.8s0,0,0,0c0,0-.2,0-.3,0-.1,0-.2-.3-.2-.4,0,0,0,0,0-.1.1,0,.3,0,.4,0,0,0,.1.3.2.4ZM29.3,16.6c0,0,0,.3,0,.5,0,.2,0,.3,0,.5,0,.1-.1.3,0,.5,0,.2,0,.3,0,.5,0,.1-.1.3,0,.5,0,0-.1.2,0,.5,0,.2,0,.3,0,.5,0,0,0,.2,0,.2-.3,0-.4.1-.5,0-.2,0-.4,0-.5.1-.1,0-.4,0-.5.2-.1,0-.4.1-.5.3,0,0-.3,0-.4.2,0-.1-.2-.2-.3-.3,0-.2-.2-.3-.4-.4,0-.2-.2-.3-.4-.4,0-.2-.3-.3-.4-.3-.1-.3-.4-.3-.4-.4-.1-.3-.4-.4-.4-.4-.1-.3-.3-.2-.4-.4-.1-.2-.3-.3-.3-.3,0,0,0,0-.1-.2.1,0,.3-.2.4-.4,0,0,.3,0,.6-.4,0,0,.3,0,.6-.4,0,0,.3,0,.7-.3,0,0,.3,0,.7-.3,0,0,.3,0,.7-.2,0,0,.3.1.7-.1,0,0,.3.1.7,0,0,0,0,0,.2,0,0,.2,0,.3,0,.4ZM21.4,22.8s.2-.2.2-.7c0,0,.2-.1.2-.7,0,0,.3-.2.3-.7,0,0,.2,0,.3-.6,0,0,.3-.1.4-.6,0,0,.1,0,.2-.2,0-.1.2-.3.2-.4,0,0,0,0,0,0,0,.1.2.2.3.3,0,0,.2.3.4.4,0,.2.2.3.4.3,0,.1.1.3.4.4,0,.2.2.3.4.4,0,0,.1.3.4.3,0,0,0,.2.4.3,0,0,.1.3.4.4,0,0,0,.1.1.2,0,0-.1.2-.1.3,0,0-.3.2-.3.4,0,0-.3.4-.2.5,0,0-.2.2-.1.5,0,0-.2.3,0,.5,0,0,0,0,0,0-.1,0-.3,0-.4,0-.2,0-.3,0-.5,0-.2,0-.4,0-.5,0-.2-.1-.5,0-.5,0-.3-.1-.5,0-.5,0-.3-.1-.5,0-.5,0-.3-.1-.3,0-.5,0-.2,0-.4,0-.5,0,0,0-.1,0-.2,0,0-.1,0-.3,0-.6,0,0,.2-.2.1-.7ZM22,27.9s0-.4-.3-.7c0,0,0-.4-.2-.7,0,0,0-.4-.1-.7,0,0,0-.1,0-.2,0-.2,0-.4-.1-.5,0,0,0,0,0,0,.2,0,.3,0,.4,0,0,0,.3,0,.5,0,.2,0,.3,0,.5,0,.1,0,.3.1.5,0,0,0,.3,0,.5,0,.1,0,.3,0,.5,0,0,0,.2.1.5,0,0,0,.3,0,.5,0,0,0,.1,0,.2,0,0,0,0,0,0,.1,0,0,0,.5,0,.5,0,.1,0,.5.2.5,0,.2,0,.4.2.5,0,.2.1.4.3.5,0,0,0,.1,0,.2-.2,0-.3.2-.3.3,0,0-.3.1-.4.4-.2,0-.3.2-.3.4-.1,0-.3.1-.4.4-.2,0-.3.2-.4.3,0,0-.3.1-.3.4,0,0-.2,0-.4.3-.2,0-.3.2-.4.3,0,0-.1,0-.1.1-.1-.1-.2-.2-.4-.3,0,0,0-.3-.4-.6,0,0,0-.4-.4-.6,0,0,0-.3-.3-.7ZM27.1,27.6s0,0-.1,0c0,0,0,0,0,0,0,0,0,0,0-.1,0-.1,0-.4,0-.4,0,0,0-.1,0-.1,0,0,.1,0,.2.2,0,0,0,.4,0,.4,0,0,0,.2,0,.2ZM27.5,27.9c-.1,0-.2,0-.3-.2,0-.1,0-.4,0-.4,0,0,0-.1,0-.1,0,0,.1,0,.2.1,0,0,0,.3,0,.4,0,0,0,.1,0,.2h0ZM27.8,27.5c0,0-.2-.1-.2-.1,0,0,0,0-.2-.2,0,0-.1,0-.2-.1,0,0,0,0,0-.1,0,0-.1-.1-.2-.2,0,0,0,0,0-.2,0,0-.1-.1-.2-.2,0,0,0,0,0-.1,0-.1-.2-.2-.2-.2,0,0,0,0,0-.2,0-.1-.1-.2-.1-.2,0,0,0,0,0-.2,0-.1-.1-.2-.1-.2,0,0,0,0,0-.2,0,0,0-.2,0-.3,0,0,0,0,0-.2,0-.1,0-.3,0-.3,0,0,0,0,0-.2,0-.1,0-.3,0-.3,0,0,0,0,0-.2,0-.1,0-.3,0-.3,0,0,0,0,.1-.1,0-.1,0-.2,0-.2,0,0,0,0,.1-.2,0-.1,0-.2,0-.2,0,0,0,0,.2-.2,0,0,0-.1,0-.2,0,0,.1,0,.2-.1,0,0,.1-.2.1-.2,0,0,0,0,.2,0,0,0,.2-.2.2-.2,0,0,.1,0,.2,0,0,0,.2-.2.2-.2,0,0,.1,0,.2,0,.1,0,.2-.1.2-.1,0,0,.1,0,.2,0,.1,0,.2-.1.2-.1,0,0,0,0,.2,0,.1,0,.2,0,.2,0,0,0,.1,0,.2,0,.1,0,.2,0,.2,0,0,0,0,0,.2,0,.1,0,.3,0,.3,0,0,0,0,0,.2,0,.1,0,.3,0,.3,0,0,0,0,0,.2.1.1,0,.2,0,.2,0,0,0,0,0,.1.1.1,0,.2,0,.2,0,0,0,0,0,.1.1.1,0,.2.1.2.1,0,0,0,0,.1.2.1,0,.2.1.2.1,0,0,0,0,0,.2,0,0,.2.2.2.2,0,0,0,.1,0,.2,0,0,.1.1.2.2,0,0,0,.1,0,.2,0,.1.2.2.2.2,0,0,0,.1,0,.2,0,0,0,.2.1.2,0,0,0,0,0,.2,0,.1,0,.2,0,.2,0,0,0,.1,0,.2,0,.1,0,.2,0,.2,0,0,0,0,0,.2s0,.3,0,.3c0,0,0,0,0,.2,0,.1,0,.3,0,.3,0,0,0,0,0,.2,0,.1,0,.3,0,.3,0,0,0,0-.1.2,0,.1,0,.2,0,.2,0,0,0,0-.1.2,0,0,0,.1,0,.2,0,0,0,0-.1.1,0,0-.1.2-.1.2,0,0,0,0-.2.1,0,0-.1.2-.1.2,0,0-.1,0-.2,0,0,0-.2.2-.2.2,0,0-.1,0-.2,0,0,0-.2.2-.2.2,0,0-.1,0-.2,0-.1,0-.2.1-.2.1,0,0-.1,0-.2,0,0,0-.1,0-.2.1,0,0-.1,0-.2,0-.1,0-.2,0-.2,0,0,0-.1,0-.2,0-.1,0-.2,0-.2,0,0,0,0,0-.2,0-.1,0-.3,0-.3,0,0,0,0,0-.2,0-.1,0-.3,0-.3,0,0,0,0,0-.2,0,0,0-.2,0-.3,0,0,0,0,0-.2-.1-.1,0-.2,0-.2,0,0,0,0,0-.1-.1h0ZM27.6,27.5c0,0,.1,0,.2.1,0,0,0,.3,0,.4,0,0,0,.1,0,.2-.1,0-.3,0-.3-.2,0,0,0-.4,0-.4,0,0,0-.1,0-.1ZM28,27.7c0,0,.2,0,.2,0,0,0,.1.3.1.4,0,0,0,.2,0,.2-.1,0-.3,0-.3-.1,0,0,0-.4,0-.4,0,0,0,0,0-.1ZM29.2,33.6c-.2,0-.3-.5-.3-.5,0,0,0-.1,0-.1.1,0,.2,0,.4,0,.2,0,.4.4.4.5,0,0,0,.1.1.2-.2,0-.4,0-.6,0h0ZM28.5,33.5c-.2-.1-.2-.5-.3-.6,0,0,0-.1,0-.2.1,0,.2,0,.4,0,.2,0,.3.4.4.6,0,0,0,.1.1.2-.2,0-.4,0-.6-.1h0ZM27.7,33.4c-.1-.1-.2-.5-.2-.6,0,0,0-.2,0-.2.1,0,.2,0,.4,0,.2,0,.3.5.3.6,0,0,0,.2.1.2-.2,0-.4,0-.6-.1ZM26.9,33.2c-.1-.1-.1-.5-.2-.6,0,0,0-.1,0-.2.1,0,.2,0,.4.1.1,0,.2.5.3.6,0,0,0,.2,0,.2-.2,0-.4,0-.5-.2h0ZM26.2,32.9c-.1-.1-.1-.5-.1-.6,0,0,0-.1,0-.2.1,0,.2,0,.4.1.1,0,.2.5.2.6,0,.1,0,.2,0,.2-.2,0-.4,0-.5-.2ZM25.4,32.6c-.1-.2,0-.6,0-.6,0,0,0-.2,0-.2.1,0,.2,0,.4.2.1,0,.1.5.1.7s0,.2,0,.2c-.2,0-.4-.1-.5-.3ZM24.7,32.2c0-.2,0-.6,0-.6,0,0,0-.2,0-.2.1,0,.2.1.4.2.1,0,.1.5,0,.7,0,.1,0,.2,0,.2-.2,0-.4-.2-.5-.3h0ZM24.9,32.5c.2.1.5.2.5.2,0,0,.1.1.3.2.2,0,.4.1.4.1,0,0,.1.1.3.2.2,0,.4,0,.4,0,0,0,.1.1.3.2.2,0,.5,0,.5,0,0,0,.1,0,.3.1.2,0,.5,0,.5,0,0,0,.1,0,.3.1.2,0,.5,0,.5,0,0,0,.2,0,.3,0,.2,0,.5,0,.5,0,0,0,.2,0,.4,0,.2,0,.4-.1.4-.1,0,0,.2,0,.4,0,.2,0,.4-.2.4-.2,0,0,.2,0,.3,0,.2,0,.5-.2.5-.2,0,0,.2,0,.4,0,.2,0,.4-.2.4-.2,0,0,.2,0,.4,0,.2,0,.4-.3.4-.3,0,0,.2,0,.3-.1.2-.1.4-.3.4-.3,0,0,.2,0,.3-.1.2-.1.3-.3.3-.3,0,0,.2,0,.3-.2.2-.1.3-.3.3-.3,0,0,.2,0,.3-.2.2-.2.3-.4.3-.4,0,0,.2,0,.3-.2.1-.2.2-.4.2-.4,0,0,.2-.1.3-.2.1-.2.2-.4.2-.4,0,0,.1-.1.2-.3.1-.2.2-.5.2-.5,0,0,.1-.1.2-.3,0-.2.1-.5.1-.5,0,0,.1-.1.2-.3,0-.2,0-.4,0-.4,0,0,.1-.2.2-.4,0-.2,0-.5,0-.5,0,0,0-.1.1-.3,0-.2,0-.5,0-.5,0,0,0-.2,0-.3,0-.2,0-.5,0-.5,0,0,0-.2,0-.3,0-.2,0-.5,0-.5,0,0,0-.2,0-.3,0-.1,0-.3,0-.4,0,0,0-.2,0-.4,0-.2-.1-.4-.1-.4,0,0,0-.2,0-.4,0-.2-.2-.4-.2-.4,0,0,0-.2,0-.4,0-.2-.2-.4-.2-.4,0,0,0-.2,0-.4,0-.1-.2-.3-.3-.4,0,0,0-.2-.1-.3-.1-.2-.3-.4-.3-.4,0,0,0-.2-.2-.3-.1-.2-.3-.4-.3-.4,0,0,0-.1-.1-.2-.1-.2-.4-.4-.4-.4,0,0,0-.2-.2-.3-.1-.1-.4-.3-.4-.3,0-.1-.2-.3-.3-.4-.1,0-.3-.2-.3-.2,0,0,0-.1-.2-.2-.2-.1-.4-.2-.4-.2,0-.1-.2-.2-.3-.3-.1,0-.3-.1-.3-.1,0,0-.1-.1-.3-.2-.2,0-.5-.1-.5-.1,0,0-.1-.1-.3-.2-.1,0-.3,0-.5,0,0,0-.1-.1-.3-.2-.2,0-.5,0-.5,0,0,0-.1-.1-.3-.1-.2,0-.5,0-.5,0,0,0-.2,0-.4,0-.2,0-.4,0-.4,0,0,0-.2,0-.3,0-.2,0-.5,0-.5,0,0,0-.2,0-.4,0-.2,0-.4,0-.4,0,0,0-.2,0-.4,0-.2,0-.4.1-.4.1,0,0-.2,0-.4,0-.1,0-.3,0-.4.2,0,0-.2,0-.4,0-.2,0-.4.2-.4.2,0,0-.2,0-.3,0-.2,0-.4.3-.4.3,0,0-.2,0-.3.1-.2.1-.4.3-.4.3,0,0-.2,0-.3.2-.2.1-.3.3-.3.3,0,0-.2,0-.3.2-.2.1-.3.3-.3.3,0,0-.2,0-.3.2-.2.2-.3.4-.3.4,0,0-.2,0-.3.2-.1.2-.2.4-.2.4,0,0-.2.1-.3.3,0,.1-.1.3-.2.4,0,0-.1.1-.2.3-.1.2-.2.4-.2.4,0,0-.1.1-.2.3,0,.2-.1.4-.1.4,0,0-.1.1-.2.3,0,.2,0,.4,0,.4,0,0-.1.2-.2.3,0,.2,0,.4,0,.4,0,0-.1.2-.1.3,0,.2,0,.4,0,.4,0,0,0,.2,0,.4,0,.1,0,.3,0,.4,0,0,0,.2,0,.4,0,.2,0,.4,0,.4,0,0,0,.2,0,.4,0,.2.1.4.1.4,0,0,0,.2,0,.4,0,.2.1.4.1.4,0,0,0,.2,0,.4,0,.2.2.4.2.4,0,0,0,.2,0,.4,0,.2.2.4.2.4,0,0,0,.2,0,.3,0,.2.3.4.3.4,0,0,0,.2.1.3.1.2.3.4.3.4,0,0,0,.2.1.3.1.2.3.3.3.3,0,0,0,.2.2.3.1.2.4.3.4.3,0,0,0,.1.2.3.2.2.4.3.4.3,0,0,.1.2.2.3.2.1.4.3.4.3,0,0,.1.2.2.2.2.1.4.2.4.2,0,0,.1.2.3.3h0ZM26.7,35.1l.2.3h.3c0-.1-.2,1-.2,1h.4c0,0,.3-1.4.3-1.4h-.3c0,0-.6.1-.6.1ZM24.7,35.1l1.2.5v-.4c.1,0-1-.5-1-.5,0,0-.1.4-.1.4ZM44.9,25c-.2.3-.8.5-.9.5-.1,0-.2.1-.2.1,0-.2,0-.4,0-.7,0-.3.7-.6.9-.7.2,0,.3-.2.3-.2.1.3,0,.7,0,1ZM44.8,26.4c-.2.3-.8.4-1,.4-.1,0-.3.1-.3.1,0-.2,0-.4,0-.7,0-.3.8-.5.9-.6.2,0,.4-.2.4-.2,0,.3,0,.7-.2.9h0ZM44.6,27.7c-.2.2-.9.4-1,.4,0,0-.2,0-.3,0,0-.2,0-.4.1-.7,0-.3.8-.5,1-.5.2,0,.4-.2.4-.2,0,.3,0,.7-.2.9ZM44.2,28.9c-.2.2-.9.3-1,.3-.1,0-.3,0-.3,0,0-.2,0-.4.2-.6.1-.2.8-.4,1-.4.2,0,.4-.1.4-.1,0,.3-.1.7-.3.9h0ZM43.8,30.2c-.2.2-.9.2-1,.2-.1,0-.3,0-.3,0,0-.2.1-.4.2-.6.1-.2.9-.3,1.1-.4s.4-.1.4-.1c0,.3-.2.7-.4.9h0ZM43.2,31.4c-.3.2-.9.1-1,0-.1,0-.3,0-.3,0,0-.2.2-.4.3-.6.1-.2.9-.3,1.1-.3.2,0,.4,0,.4,0,0,.3-.2.6-.5.8ZM42.5,32.6c-.3.2-.9,0-1.1,0-.1,0-.3,0-.3,0,0-.2.2-.4.3-.6.2-.2.9-.2,1.1-.2.2,0,.4,0,.4,0,0,.3-.3.6-.5.8h0ZM41.8,33.7c-.3.1-.9,0-1,0-.1,0-.3,0-.3,0,0-.2.2-.3.4-.6.2-.2.9-.1,1.1,0,.2,0,.4,0,.4,0,0,.3-.3.6-.6.7ZM40.9,34.7c-.3.1-.9-.1-1-.2,0,0-.2,0-.3,0,0-.2.2-.3.4-.5.2-.2.9,0,1.1,0,.2,0,.4,0,.4,0,0,.3-.4.6-.7.7ZM40,35.6c-.3,0-.9-.2-1-.3,0,0-.2,0-.3,0,0-.2.3-.3.5-.5.2-.2.9,0,1.1.1.2,0,.4,0,.4,0-.1.3-.4.5-.7.6ZM39,36.5c-.3,0-.9-.3-1-.3,0,0-.2,0-.3,0,.1-.2.3-.3.5-.4.2-.1.9.1,1.1.2.2,0,.4.1.4.1-.1.3-.5.5-.8.6ZM37.9,37.3c-.3,0-.9-.4-1-.4,0,0-.3-.1-.3-.1.1-.2.3-.3.6-.4.2-.1.9.2,1.1.3.2,0,.4.1.4.1-.2.3-.5.5-.8.5h0ZM36.7,37.9c-.3,0-.8-.5-.9-.5,0,0-.2-.1-.2-.1.2-.2.4-.2.6-.3.2-.1.9.3,1,.4.2.1.4.2.4.2-.2.2-.6.4-.9.4ZM35.5,38.5c-.3,0-.8-.5-.9-.6,0,0-.2-.2-.2-.2.2-.1.4-.2.6-.3.3,0,.8.4,1,.5.2.1.4.2.4.2-.2.2-.6.4-.9.3ZM34.3,39c-.3,0-.7-.6-.8-.7,0,0-.2-.2-.2-.2.2-.1.4-.2.6-.2.3,0,.8.4,1,.6.2.1.3.2.3.2-.2.2-.6.3-.9.3h0ZM33,39.3c-.3,0-.7-.6-.7-.7,0,0-.2-.2-.2-.2.2-.1.4-.1.7-.2.3,0,.8.5.9.7.1.2.3.3.3.3-.3.2-.7.2-1,.2ZM31.7,39.6c-.3-.1-.6-.7-.7-.8,0,0-.2-.2-.2-.2.2,0,.4,0,.7,0,.3,0,.7.6.8.7.1.2.3.3.3.3-.3.2-.7.2-1,0ZM30.3,39.7c-.3-.1-.5-.8-.6-.9,0-.1-.2-.2-.2-.2.2,0,.4,0,.7,0,.3,0,.7.6.8.8.1.2.3.3.3.3-.3.1-.7.1-1,0h0ZM29,39.7c-.3-.2-.5-.8-.5-.9,0-.1-.1-.2-.1-.2.2,0,.4,0,.7,0,.3,0,.6.7.7.9,0,.2.2.3.2.3-.3.1-.7,0-1,0ZM27.7,39.6c-.3-.2-.4-.8-.4-.9,0-.1-.1-.3-.1-.3.2,0,.4,0,.7,0,.3,0,.5.7.6.9,0,.2.2.4.2.4-.3,0-.7,0-1-.2ZM26.4,39.3c-.2-.2-.3-.9-.4-1,0-.1,0-.3,0-.3.2,0,.4,0,.7.1.3,0,.5.8.5,1,0,.2.2.4.2.4-.3,0-.7,0-.9-.2ZM25.1,39c-.2-.2-.3-.9-.3-1,0,0,0-.2,0-.3.2,0,.4,0,.7.2.2.1.4.8.4,1,0,.2.1.4.1.4-.3,0-.7-.1-.9-.3ZM23.8,38.6c-.2-.2-.2-.9-.2-1,0-.1,0-.3,0-.3.2,0,.4.1.6.2.2.1.3.9.4,1.1,0,.2.1.4.1.4-.3,0-.7-.2-.9-.4h0ZM22.4,36.4s-.4-.5-1-.7c0,0-.2-.5-1-.8,0,0-.2-.5-.9-.8,0,0,0-.5-.8-.9,0,0,0-.5-.7-1,0,0,0-.6-.6-1,0,0,0-.5-.5-1.1,0,0,0-.7-.4-1.1,0,0,0-.7-.3-1.2,0,0,.1-.6-.2-1.1,0-.1,0-.2,0-.4,0-.2,0-.6-.2-.9,0,0,.3-.5,0-1.2,0,0,.3-.4,0-1.2,0,0,.3-.4.2-1.2,0,0,.3-.3.3-1.2,0,0,.3-.2.4-1.2,0,0,.4-.3.5-1.1,0,0,.4-.2.6-1.1,0,0,.5-.2.7-1,0,0,.2-.2.4-.3.1-.2.3-.4.4-.6,0,0,.3-.1.5-.4.2-.3.3-.5.3-.5,0,0,.5-.1.9-.8,0,0,.5,0,1-.7,0,0,.5,0,1-.6,0,0,.6,0,1.1-.5,0,0,.6,0,1.1-.4,0,0,.5.1,1.2-.3,0,0,.5.2,1.2-.2,0,0,.4.2,1.2-.1,0,0,.4.3,1.2,0,0,0,.5.3,1.2,0,0,0,.4.3,1.2.2,0,0,.4.4,1.2.3,0,0,.2.4,1.2.4,0,0,.2.4,1.1.5,0,0,.2.4,1.1.6,0,0,.2.4,1,.7,0,0,.1.4.9.8,0,0,.2.5.9.8,0,0,0,.4.8.9,0,0,0,.5.7,1,0,0,0,.6.6,1,0,0,0,.6.5,1.1,0,0,0,.6.4,1.1,0,0,0,.7.3,1.2,0,0-.1.6.2,1.2,0,0-.2.5.1,1.2,0,0-.2.5,0,1.2,0,0-.3.3,0,1.2,0,0-.3.3-.2,1.2,0,0-.3.4-.3,1.2,0,0-.4.4-.4,1.2,0,0-.4.3-.5,1.1,0,0-.4.2-.6,1.1,0,0-.5.3-.7,1,0,0-.5.3-.8,1,0,0-.5.1-.8.8,0,0,0,0-.2.1-.2,0-.5.4-.7.7,0,0,0,0-.3.1-.2,0-.5.3-.7.6,0,0-.6,0-1,.6,0,0-.5,0-1.1.5,0,0-.6,0-1.1.5,0,0-.5-.1-1.1.3,0,0-.6-.1-1.2.2,0,0-.5-.2-1.2.1,0,0-.5-.2-1.2,0,0,0-.5-.3-1.2,0,0,0-.4-.3-1.2-.2,0,0-.3-.3-1.2-.3,0,0-.3-.4-1.2-.4,0,0-.3-.4-1.1-.5,0,0-.4-.5-1.1-.6ZM22.6,38c-.2-.3,0-.9,0-1,0-.1,0-.3,0-.3.2,0,.4.2.6.3.2.1.2.9.2,1.1s0,.4,0,.4c-.3,0-.7-.2-.8-.5h0ZM21.5,37.3c-.2-.3,0-.9,0-1,0-.1,0-.3,0-.3.2,0,.4.2.6.4.2.2.2.9.2,1.1,0,.1,0,.3,0,.4-.3,0-.6-.3-.8-.6h0ZM21.1,37.2c-.3,0-.6-.3-.7-.6-.1-.3,0-.9,0-1,0-.1,0-.3,0-.3.2,0,.4.2.6.4.2.2.1.9,0,1.1,0,.2,0,.4,0,.4h0ZM20.1,36c0,.2,0,.4,0,.4-.3,0-.6-.4-.7-.7-.1-.3.1-.9.2-1,0-.1,0-.3,0-.3.2,0,.3.2.5.4.2.2,0,.9,0,1.1ZM19.1,35.1c0,.1,0,.3,0,.4-.3-.1-.5-.4-.6-.7,0-.3.2-.9.3-1,0,0,0-.3,0-.3.2,0,.3.3.5.5.2.2,0,.9-.1,1.1ZM18.1,34.6c-.3-.1-.5-.5-.5-.8,0-.3.3-.9.4-1,0,0,0-.3,0-.3.2.1.3.3.4.5.1.2-.1.9-.2,1.1,0,.2-.1.4-.1.4ZM17.4,33.1c0,.2-.1.4-.1.4-.3-.2-.4-.5-.5-.8,0-.3.4-.8.4-.9,0,0,.1-.2.1-.2.2.1.2.3.4.5.1.2-.2.9-.3,1.1ZM16.7,32c-.1.2-.2.4-.2.4-.3-.2-.4-.5-.4-.8,0-.3.4-.8.5-.9,0,0,.1-.2.1-.2.1.1.2.3.3.6.1.2-.3.9-.4,1h0ZM15.9,31.2c-.2-.2-.4-.6-.3-.9,0-.3.5-.8.6-.8,0,0,.2-.2.2-.2.1.1.2.3.3.6,0,.2-.4.8-.5,1-.1.2-.2.4-.2.4ZM15.3,30c-.2-.2-.3-.6-.2-.9,0-.3.6-.7.7-.8,0,0,.2-.2.2-.2.1.2.2.4.2.6,0,.2-.4.8-.6,1-.1.2-.2.3-.2.3h0ZM14.7,27.8c0-.3.6-.7.7-.7,0,0,.2-.2.2-.2.1.2.1.4.2.6,0,.3-.5.8-.7.9-.1,0-.2.2-.3.3-.2-.2-.2-.6-.2-.9ZM14.5,26.5c.1-.3.7-.6.8-.7,0,0,.2-.2.2-.2,0,.2,0,.4.1.6,0,.3-.6.7-.7.8-.2.1-.3.3-.3.3-.2-.2-.2-.6,0-.9ZM14.4,26.1c-.2-.3-.1-.7,0-.9.1-.3.7-.6.8-.6.1,0,.2-.2.2-.2,0,.2,0,.4,0,.6,0,.3-.6.7-.8.8-.2.1-.3.3-.3.3ZM14.4,23.8c.2-.3.8-.5.9-.5.1,0,.2-.1.2-.1,0,.2,0,.4,0,.6,0,.3-.7.6-.9.7-.2,0-.3.2-.3.2-.1-.3,0-.7,0-.9ZM14.5,22.5c.2-.3.8-.4.9-.5.1,0,.2-.1.2-.1,0,.2,0,.4,0,.6,0,.3-.7.6-.9.6-.2,0-.4.2-.4.2-.1-.3,0-.7.2-.9ZM14.7,21.2c.2-.2.9-.4,1-.4.1,0,.3,0,.3,0,0,.2,0,.4-.1.6,0,.2-.8.5-1,.6-.2,0-.4.2-.4.2,0-.3,0-.7.2-.9h0ZM15.1,19.9c.2-.2.9-.3,1-.3.1,0,.3,0,.3,0,0,.2,0,.4-.2.6,0,.2-.8.4-1,.4-.2,0-.4.1-.4.1,0-.3.1-.7.3-.9ZM15.5,18.7c.2-.2.9-.2,1-.2.1,0,.3,0,.3,0,0,.2-.1.4-.2.6-.1.2-.8.3-1.1.4-.2,0-.4.1-.4.1,0-.3.2-.7.4-.8ZM16.1,17.5c.3-.2.9-.1,1,0,.1,0,.3,0,.3,0,0,.2-.1.4-.3.6-.1.2-.9.3-1.1.3-.2,0-.4,0-.4,0,0-.3.2-.6.5-.8h0ZM16.7,16.3c.3-.2.9,0,1,0,.1,0,.3,0,.3,0,0,.2-.2.3-.3.6-.2.2-.9.2-1.1.2-.1,0-.3,0-.4,0,0-.3.3-.6.5-.8ZM17.5,15.2c.3-.1.9,0,1,0,.1,0,.3,0,.3,0,0,.2-.2.3-.4.5-.2.2-.9.1-1.1,0-.2,0-.4,0-.4,0,0-.3.3-.6.6-.7h0ZM18.3,14.2c.3-.1.9.1,1,.2.1,0,.3,0,.3,0,0,.2-.2.3-.4.5-.2.2-.9,0-1.1,0-.2,0-.4,0-.4,0,0-.3.4-.6.7-.7ZM19.3,13.2c.3,0,.9.2,1,.3.1,0,.3,0,.3,0,0,.2-.3.3-.5.5s-.9,0-1.1-.1c-.2,0-.4,0-.4,0,.1-.3.4-.5.7-.6ZM20.3,12.4c.3,0,.9.3,1,.3,0,0,.3,0,.3,0-.1.2-.3.3-.5.4-.2.1-.9-.1-1.1-.2-.1,0-.3,0-.4-.1.1-.3.5-.5.8-.5ZM21.4,11.6c.3,0,.9.4.9.4,0,0,.2.1.2.1-.1.2-.3.2-.5.4-.2.1-.9-.2-1.1-.3-.2,0-.4-.1-.4-.1.2-.3.5-.4.8-.5ZM22.6,10.9c.3,0,.8.4.9.5,0,0,.2.1.2.1-.1.1-.3.2-.6.3-.2,0-.9-.3-1-.4-.2-.1-.4-.2-.4-.2.2-.2.5-.4.9-.4ZM23.7,10.4c.3,0,.8.5.9.6,0,0,.2.2.2.2-.1.1-.3.2-.6.3-.2,0-.8-.4-1-.5-.2-.1-.4-.2-.4-.2.2-.2.6-.4.9-.3h0ZM25,9.9c.3,0,.7.6.8.7,0,0,.2.2.2.2-.2.1-.4.2-.6.2-.3,0-.8-.4-.9-.6-.1-.1-.3-.2-.3-.2.2-.2.6-.3.9-.2ZM26.3,9.6c.3,0,.7.6.7.7,0,0,.2.2.2.2-.2.1-.4.1-.6.2-.3,0-.8-.5-.9-.7-.1-.2-.3-.3-.3-.3.2-.2.6-.3,1-.2h0ZM27.6,9.3c.3.1.6.7.7.8,0,0,.2.2.2.2-.2,0-.4,0-.6.1-.3,0-.7-.6-.8-.7-.1-.2-.3-.3-.3-.3.3-.2.7-.2,1,0ZM28.9,9.2c.3.1.5.8.6.8,0,.1.2.2.2.2-.2,0-.4,0-.7,0-.3,0-.7-.6-.8-.8-.1-.2-.3-.3-.3-.3.3-.2.7-.1,1,0ZM30.3,9.2c.3.2.5.8.5.9,0,.1.1.2.1.2-.2,0-.4,0-.7,0s-.6-.7-.7-.9c0-.2-.2-.3-.2-.3.3-.1.7,0,1,0h0ZM31.6,9.3c.3.2.4.8.4.9,0,.1.1.2.1.2-.2,0-.4,0-.7,0-.3,0-.5-.7-.6-.9,0-.2-.2-.4-.2-.4.3-.1.7,0,1,.2ZM32.9,9.5c.2.2.3.9.3,1,0,.1,0,.3,0,.3-.2,0-.4,0-.7-.1-.3,0-.5-.8-.5-1,0-.2-.2-.4-.2-.4.3,0,.7,0,.9.2ZM34.2,9.9c.2.2.2.9.2,1,0,.1,0,.3,0,.3-.2,0-.4,0-.6-.2-.2,0-.4-.8-.4-1,0-.1,0-.3-.1-.4.3,0,.7.1.9.3ZM35.4,10.3c.2.2.2.9.2,1,0,.1,0,.3,0,.3-.2,0-.4-.1-.6-.2-.2-.1-.3-.8-.3-1,0-.2-.1-.4-.1-.4.3,0,.7.2.9.4h0ZM36.7,10.9c.2.3,0,.9,0,1,0,.1,0,.3,0,.3-.2,0-.4-.1-.6-.3-.2-.1-.3-.9-.3-1.1,0-.2,0-.4,0-.4.3,0,.7.2.8.5ZM37.8,11.5c.2.3,0,.9,0,1,0,.1,0,.3,0,.3-.2,0-.4-.2-.6-.3-.2-.2-.2-.9-.2-1.1,0-.2,0-.4,0-.4.3,0,.6.3.8.6ZM38.2,11.7c.3,0,.6.3.7.6.1.3,0,.9-.1,1,0,.1,0,.3,0,.3-.2,0-.3-.2-.5-.4-.2-.2-.1-.9,0-1.1,0-.2,0-.4,0-.4ZM39.2,12.9c0-.2,0-.4,0-.4.3,0,.6.4.7.7.1.3-.2.9-.2,1,0,0,0,.3,0,.3-.2,0-.3-.2-.5-.4-.2-.2,0-.9,0-1.1h0ZM40.2,13.8c0-.2,0-.4,0-.4.3.1.5.4.6.7,0,.3-.2.9-.3,1,0,0,0,.3,0,.3-.2,0-.3-.3-.5-.5-.2-.2,0-.9.1-1.1ZM41.2,14.3c.3.1.5.5.6.8,0,.3-.3.9-.4,1,0,0,0,.3,0,.3-.2-.1-.3-.3-.4-.5-.1-.2.1-.9.2-1.1,0-.2.1-.4.1-.4ZM41.9,15.7c.1-.2.2-.4.2-.4.3.2.5.5.5.8,0,.3-.4.8-.5.9,0,0-.1.2-.1.2-.2-.1-.2-.3-.4-.5-.1-.2.2-.9.3-1.1h0ZM42.6,16.8c.1-.2.2-.4.2-.4.3.2.4.6.4.9,0,.3-.5.8-.5.9,0,0-.1.2-.1.2-.2-.1-.2-.3-.3-.6-.1-.2.3-.9.4-1ZM43.4,17.6c.2.2.4.6.3.9,0,.3-.5.8-.6.8,0,0-.2.2-.2.2-.1-.2-.2-.3-.3-.6,0-.2.4-.8.5-1,.1-.2.2-.4.2-.4ZM43.9,18.9c.2.2.3.6.3.9,0,.3-.6.7-.7.8,0,0-.2.2-.2.2-.1-.2-.2-.4-.2-.6,0-.3.4-.8.6-1,.1-.2.2-.3.2-.3ZM44.5,21.1c0,.3-.6.7-.7.7,0,0-.1.1-.2.2-.1-.2-.1-.4-.2-.6,0-.3.5-.8.7-.9.2-.1.3-.3.3-.3.2.2.3.6.2.9ZM44.8,22.4c-.1.3-.7.6-.8.7,0,0-.2.2-.2.2,0-.2,0-.4-.1-.6,0-.3.6-.7.7-.8.2-.1.3-.3.3-.3.2.3.2.7,0,1h0ZM44.9,22.8c.2.3.1.7,0,1-.1.3-.8.5-.8.6-.1,0-.2.2-.2.2,0-.2,0-.4,0-.7,0-.3.6-.7.8-.8.2-.1.3-.3.3-.3ZM45.3,24.6c0-.4-.1-.8-.1-.8,0,0,0-.3,0-.6,0-.2,0-.5-.2-.7,0,0,0-.4,0-.7,0-.4-.2-.7-.2-.7,0,0,0-.3,0-.6,0-.3-.3-.7-.3-.7,0,0,0-.3-.1-.6-.1-.3-.4-.7-.4-.7,0,0,0-.3-.1-.6-.2-.3-.4-.7-.4-.7,0,0,0-.3-.2-.5-.2-.3-.5-.7-.5-.7,0,0,0-.3-.3-.5-.2-.3-.6-.6-.6-.6,0,0,0-.2-.2-.4-.2-.3-.6-.6-.6-.6,0,0-.1-.3-.3-.5-.2-.2-.4-.3-.6-.4-.1-.2-.3-.4-.5-.6-.2-.1-.5-.3-.5-.3,0,0-.1-.2-.3-.4-.3-.2-.7-.4-.7-.4-.2-.2-.3-.3-.5-.5-.2-.1-.5-.2-.6-.2,0,0-.2-.2-.5-.3-.3-.1-.8-.2-.8-.2,0,0-.2-.2-.5-.3-.3-.1-.8-.1-.8-.1,0,0-.2-.2-.5-.3-.4,0-.8,0-.8,0,0,0-.2-.2-.5-.2-.4,0-.8,0-.8,0,0,0-.3-.1-.6-.2-.3,0-.7,0-.7,0,0,0-.3,0-.6,0-.4,0-.8,0-.8,0,0,0-.3,0-.7,0-.3,0-.7.2-.7.2,0,0-.4,0-.7,0-.4,0-.7.2-.7.2,0,0-.3,0-.6,0-.4,0-.7.3-.7.3,0,0-.4,0-.7.1-.3.1-.6.4-.6.4,0,0-.3,0-.6.1-.3.1-.6.4-.6.4,0,0-.3,0-.6.2-.3.2-.7.5-.7.5,0,0-.3,0-.5.3-.3.2-.6.5-.6.5,0,0-.3,0-.5.3-.3.2-.5.6-.5.6,0,0-.3.1-.5.4-.3.3-.5.6-.5.6,0,0-.3.1-.5.4-.2.2-.4.6-.4.6,0,0-.3.2-.5.5-.2.3-.3.7-.3.7,0,0-.2.2-.4.5-.2.3-.3.7-.3.7,0,0-.2.2-.4.5-.1.3-.2.7-.2.7,0,0-.2.2-.3.5-.1.3-.1.7-.1.7,0,0-.2.3-.3.6,0,.3,0,.7,0,.7,0,0-.2.3-.2.6,0,.3,0,.8,0,.8,0,0-.1.3-.2.6,0,.3,0,.7,0,.7,0,0,0,.4,0,.7,0,.4,0,.7,0,.7,0,0,0,.3,0,.7,0,.3.2.7.2.7,0,0,0,.3,0,.6,0,.3.2.7.2.7,0,0,0,.3,0,.6,0,.3.3.6.3.6,0,0,0,.3,0,.6.1.4.4.7.4.7,0,0,0,.3.1.6.2.3.4.7.4.7,0,0,0,.3.2.6.2.3.5.6.5.6,0,0,0,.3.2.5.2.3.5.5.5.5,0,0,0,.3.3.5.2.3.6.6.6.6,0,0,0,.2.3.4.3.3.7.5.7.5,0,0,.1.2.4.4.3.2.7.4.7.4,0,0,.2.3.4.4.3.2.7.3.7.3,0,0,.2.3.5.4.3.2.8.3.8.3,0,0,.2.2.5.3.3.2.7.2.7.2,0,0,.2.2.5.3.3.1.7.1.7.1,0,0,.2.2.5.3.4,0,.8,0,.8,0,0,0,.2.2.5.2.4,0,.9,0,.9,0,0,0,.2.1.5.2.4,0,.8,0,.8,0,0,0,.3.1.6.1.4,0,.8-.1.8-.1,0,0,.3,0,.7,0,.4,0,.7-.2.7-.2,0,0,.3,0,.6,0,.4,0,.7-.3.7-.3,0,0,.3,0,.6,0,.4,0,.8-.3.8-.3,0,0,.3,0,.6-.1.3-.1.6-.4.6-.4,0,0,.3,0,.6-.1.3-.2.6-.4.6-.4,0,0,.3,0,.6-.2.3-.2.6-.5.6-.5,0,0,.3,0,.5-.2.3-.2.6-.6.6-.6,0,0,.3,0,.5-.3.3-.2.5-.6.5-.6,0,0,.3-.1.5-.3.3-.3.5-.6.5-.6,0,0,.3-.2.5-.4.2-.3.4-.6.4-.6,0,0,.3-.2.4-.4.1-.2.3-.4.3-.7,0,0,.2-.2.4-.5.2-.3.3-.8.3-.8,0,0,.2-.2.3-.5.2-.3.2-.8.2-.8,0,0,.2-.2.3-.5.1-.3.1-.7.1-.7,0,0,.2-.3.3-.6.1-.4,0-.8,0-.8,0,0,.2-.2.2-.5,0-.4,0-.8,0-.8,0,0,.1-.3.2-.6,0-.3,0-.8,0-.8,0,0,.1-.3.1-.5h0Z"/>
      </g>
    </g>
  </g>
</svg>