<svg width="128" height="128" fill="none" xmlns="http://www.w3.org/2000/svg"><g filter="url(#a)" fill-rule="evenodd" clip-rule="evenodd" fill="#E60013"><path d="m28.944 54.49.798.141.063-.354-.337-.06.069-.388.286.05.06-.337-.287-.05.06-.337.305.054.063-.354-.768-.135-.312 1.77ZM29.877 54.674l.465-1.737.452.122-.465 1.737-.453-.122Z"/><path d="m27.587 52.09.611.014.606.048.591.077.587.103.577.133.56.163.556.189.54.212.529.24.514.264.498.287.481.31.466.334.452.35.431.378.416.392.393.416.379.432.353.451.331.466.309.483.291.498.261.514.24.527.212.541.19.556.16.563.134.574.104.586.076.596.047.602.016.611-.016.615-.047.601-.076.596-.104.585-.133.575-.161.564-.19.552-.212.54-.24.528-.261.514-.291.499-.309.482-.331.469-.353.448-.379.434-.393.417-.416.392-.43.375-.453.357-.466.331-.481.31-.498.287-.514.264-.529.237-.54.215-.556.189-.56.159-.578.136-.586.104-.591.073-.606.048-.61.014-.612-.014-.605-.048-.593-.073-.585-.104-.578-.136-.56-.16-.556-.188-.54-.215-.529-.237-.514-.264-.498-.288-.482-.309-.465-.331-.452-.357-.431-.375-.416-.392-.393-.417-.378-.434-.354-.448-.331-.47-.309-.481-.29-.499-.262-.514-.24-.528-.212-.54-.189-.552-.162-.564-.133-.575-.103-.586-.077-.595-.048-.601-.015-.615.015-.611.048-.602.077-.596.103-.586.133-.574.162-.563.19-.556.211-.54.24-.528.262-.514.29-.498.309-.483.331-.466.354-.45.378-.433.393-.416.416-.392.431-.378.452-.35.465-.334.482-.31.498-.287.514-.263.529-.242.54-.211.556-.189.56-.163.578-.133.585-.103.593-.077.605-.048.611-.014Zm.853-1.12-.8.843-.053.055-.052-.055-.8-.843-.685.943-.048.06-.055-.048-.908-.732-.555 1.02-.037.069-.065-.038-.991-.609-.447 1.157-.068-.03-1.065-.472-.272 1.13-.018.074-1.186-.35-.127 1.156-.005.077-.075-.015-1.15-.18.03 1.167v.073l-.075-.002-1.164-.028.18 1.148.01.077-.072.004-1.156.127.328 1.113.022.073-.073.018-1.131.272.472 1.065.03.068-.071.03-1.085.418.608.99.038.069-.069.033-1.02.556.732.906.048.058-.06.046-.943.685.899.852-.057.053-.842.803.943.68.06.049-.049.06-.73.903 1.02.556.068.036-.038.065-.608.992 1.085.423.072.023-.031.071-.472 1.062 1.131.272.073.02-.022.071-.328 1.116 1.156.125.073.004-.011.079-.18 1.147 1.164-.03h.075v.079l-.03 1.159 1.15-.18.075-.012.005.073.127 1.161 1.113-.332.073-.02.29 1.204 1.065-.472.067-.032.028.075.42 1.081.991-.604.065-.037.037.064.555 1.024.907-.736.056-.047.048.062.684.942.8-.844.053-.056.053.056.8.844.684-.942.048-.062.056.047.907.736.555-1.024.038-.064.064.037.991.604.42-1.081.028-.075.067.032 1.065.472.272-1.13.019-.075.073.021 1.112.332.127-1.161.006-.073.074.012 1.15.18-.03-1.16v-.078h.076l1.163.03-.18-1.147-.012-.079.074-.004 1.156-.125-.328-1.116-.022-.07.073-.021 1.131-.272-.472-1.062-.03-.07.071-.024 1.085-.423-.608-.992-.037-.065.068-.036 1.02-.556-.732-.904-.047-.06.06-.047.942-.681-.842-.803-.057-.053.057-.053.842-.8-.942-.684-.06-.046.047-.058.732-.907-1.02-.555-.068-.033.037-.069.608-.99-1.085-.418-.07-.03.501-1.133-1.131-.272-.073-.018.022-.073.328-1.113-1.156-.127-.074-.004.192-1.225-1.163.028-.076.002v-.073l.03-1.167-1.15.18-.074.015-.006-.077-.127-1.155-1.185.349-.019-.073-.272-1.131-1.065.472-.067.03-.028-.07-.42-1.087-.991.61-.064.037-.038-.068-.555-1.021-.907.732-.056.047-.048-.06-.684-.942Z"/><path d="m27.587 51.66.808-.85.063-.064.049.068.691.95.913-.74.068-.05.04.074.563 1.033 1.001-.615.072-.044.032.08.424 1.099 1.072-.479.079-.036.02.083.277 1.143 1.123-.33.084-.028.009.09.124 1.165 1.16-.184.087-.011-.004.086-.028 1.173 1.172-.028.088-.003-.012.086-.184 1.16 1.165.124.09.008-.027.085-.33 1.127 1.142.273.083.02-.035.078-.48 1.075 1.1.423.079.031-.044.073-.614 1 1.032.563.075.04-.052.069-.74.91.951.693.068.052-.063.06-.853.808.853.808.063.062-.068.05-.951.692.74.915.052.065-.075.04-1.032.563.614 1.002.044.075-.08.028-1.098.423.514 1.154-.083.018-1.143.277.33 1.124.028.087-.09.005-1.165.125.184 1.162.012.083h-.088l-1.172-.03.028 1.172.004.089-.086-.014-1.161-.18-.124 1.165-.009.086-.084-.023-1.123-.336-.277 1.144-.02.083-.079-.034-1.072-.477-.424 1.095-.032.082-.072-.046-1.001-.611-.563 1.029-.04.08-.068-.056-.913-.737-.691.947-.049.07-.063-.062-.808-.853-.808.853-.063.062-.049-.07-.692-.948-.912.738-.068.056-.04-.08-.563-1.03-1.001.612-.072.046-.032-.082-.423-1.095-1.073.477-.079.034-.02-.083-.277-1.144-1.122.336-.085.023-.01-.086-.123-1.165-1.16.18-.087.014.004-.09.029-1.171-1.173.03H17.6l.012-.082.184-1.163-1.165-.125-.09-.005.027-.087.332-1.124-1.143-.277-.084-.018.036-.08.478-1.074-1.098-.423-.08-.028.044-.075.615-1.002-1.033-.562-.075-.041.052-.065.74-.915-.951-.692-.068-.05.063-.062.852-.808-.852-.809-.063-.059.068-.052.951-.693-.74-.91-.052-.068 1.108-.604-.615-1-.044-.073.08-.03 1.098-.424-.478-1.075-.036-.078.084-.02 1.143-.273-.331-1.127-.027-.084.089-.01 1.165-.123-.184-1.16-.012-.086.088.003 1.173.028-.03-1.173-.003-.086.087.011 1.16.184.124-1.165.009-.09.085.027 1.122.331.277-1.143.02-.083.079.036 1.073.479.423-1.1.032-.08.072.045 1.001.615.603-1.108.068.051.912.74.692-.95.05-.068.062.063.808.852Zm0-1.247.696.017.688.055.682.085.667.118.656.153.643.183.631.216.617.241.603.276.584.3.57.328.551.355.532.38.515.4.492.43.473.45.451.473.428.493.401.514.38.531.355.552.328.57.301.587.274.6.242.616.215.632.184.644.152.656.12.666.085.682.054.687.017.697-.017.7-.054.687-.085.68-.12.666-.152.656-.184.647-.215.631-.242.613-.274.603-.3.584-.329.57-.355.552-.38.535-.4.512-.429.491-.451.472-.473.452-.492.428-.515.405-.532.38-.551.355-.57.323-.584.302-.602.275-.618.244-.63.213-.644.183-.656.153-.667.122-.682.085-.688.053-.696.015-.696-.014-.688-.054-.682-.085-.666-.122-.657-.153-.643-.183-.631-.213-.617-.244-.603-.275-.585-.302-.569-.323-.552-.355-.53-.38-.515-.405-.493-.428-.472-.452-.451-.472-.428-.49-.401-.513-.381-.535-.355-.552-.328-.57-.3-.584-.276-.603-.24-.613-.216-.631-.184-.647-.153-.656-.119-.666-.085-.68-.054-.688L14 64l.017-.697.054-.687.085-.682.12-.666.152-.656.184-.644.215-.632.24-.615.277-.6.3-.588.328-.57.355-.552.38-.53.402-.515.428-.493.45-.473.473-.45.493-.43.514-.4.532-.38.551-.355.57-.328.584-.3.603-.276.617-.241.631-.216.643-.183.657-.153.666-.118.682-.085.688-.055.696-.017Z"/><path d="m26.312 73.136.003.014.003.013v.032l-.006.012-.004.016-.002.009-.007.012-.008.012-.008.012-.009.01-.012.005-.011.005-.012.008-.016.003h-.012l-.022-.004-.025-.003h-.024l-.02.004-.044.004-.041.01h-.021l-.022.002h-.017l-.02-.001-.008-.004-.011-.004-.008-.004-.009-.004-.008-.008-.009-.009-.01-.01-.008-.012.006-.008.01-.012.004-.009.004-.012.006-.024.005-.027.009-.052.007-.05v-.024l.005-.027.008-.02.008-.02.008-.012.006-.008.005-.008.009-.008.008-.008.01-.004.012-.007.012-.004.02-.021.014-.015.016-.016.018-.008.012-.009.014-.002.008-.002h.012l.01.004.009.004.008.005.009.008.006.012.007.01.008.014.007.016.02.062.023.064.015.03.014.027.01.013.005.01.012.01.01.008Zm4.366-.308.001.022.011.015.005.011.011.008.013.01.011.006.015.007.018.002.029.002.034.005h.014l.014.007.016.004.011.005.014.015.015.012.016.015.017.01.015.01.014.013.02.012.016.008.04.014.034.012.037.01.043.005.037.006h.083l.04-.006.041-.003.035-.009.038-.012.035-.012.012.009h.01l.01.007.013.003.027.005.023.006.012.003.008.006.012.006.006.01.01.008.002.012v.029l-.449.407-.024-.003-.024-.005-.023-.003-.02-.013-.025-.005-.02-.015-.02-.008-.02-.013-.02-.015-.02-.015-.02-.016-.017-.017-.039-.035-.035-.035-.07-.077-.07-.073-.037-.036-.036-.032-.017-.015-.019-.012-.016-.014-.019-.012-.03-.047-.038-.051-.04-.053-.036-.053.011-.015.016-.012.012-.012.015-.008.017-.006.017-.006.018-.003h.057l.016.003h.019l.035.012.034.005Zm-.142-.712v.007l.003.012v.005l-.003.01-.002.006-.003.006-.005.01-.005.002-.012.01-.015.01-.011.013-.008.012-.009.004h-.018l-.005-.003-.011-.001-.005-.007-.006-.005-.006-.004-.01-.012-.01-.014-.009-.012-.015-.01-.003-.02v-.02l.006-.018.005-.015.016-.035.017-.032.015-.003h.012l.009.003.01.001.008.007.005.009.007.007.002.012.011.016.01.017.008.01.006.009.011.005.01.008Zm-.145-.512v.115l.004.02v.021l.003.023.005.02.007.02.005.024.008.017.009.017.012.019.015.016.016.018.01-.011.015-.004.012-.003h.014l.013.003h.011l.012.008.013.007.023.015.027.01.011.008.012.003.015.002h.015l.044-.002h.065l.02.006.02.007.019.005.02.002.018.012.015.01.017.011.015.016.012.016.008.017.012.025-.017.026-.019.024-.017.024-.02.02-.023.02-.021.021-.023.02-.024.023-.051.031-.046.037-.054.032-.048.032-.05.036-.044.032-.026.02-.021.02-.02.02-.018.022-.021.022-.014.024-.018.022-.014.026-.012.027-.015.03-.009.029-.008.034.01.02.007.026.004.011v.041l-.016.019-.016.019-.008.016-.012.02-.005.02-.01.02-.005.02v.024l-.009.04-.007.045v.02l-.003.024-.005.02-.008.019-.01.037-.01.036-.016.035-.015.04-.018.035-.014.032-.021.037-.02.031-.022.036-.023.033-.024.028-.023.032-.023.031-.028.026-.029.03-.028.026-.028.027-.032.027-.03.022-.033.024-.033.02-.028.024-.036.02-.031.016-.04.018-.036.014-.037.015-.033.012-.039.008-.037.013-.04.007-.038.008-.005-.008-.007-.004-.002-.006-.01-.002-.012-.003-.014-.005-.016-.003h-.014l-.011-.005-.013-.008.007-.015.004-.016.008-.014.003-.01.008-.017.008-.01.01-.013.011-.009.02-.017.028-.018.027-.016.026-.013.06-.02.061-.023.027-.012.03-.014.026-.01.027-.02.017-.012.015-.013.017-.012.012-.015.027-.033.027-.029.02-.035.018-.036.015-.032.017-.035.03-.072.048-.105.02-.032.017-.035.024-.032-.015-.009-.012-.008-.014-.007h-.015l-.012-.002h-.015l-.012.002-.01.007-.015.003-.01.005-.011.009-.015.007-.02.02-.021.024-.047.049-.045.051-.022.023-.025.021-.015.009-.01.009-.014.006-.012.003h-.068l-.034-.003-.035-.006-.031-.006-.036-.008-.032-.01-.029-.01-.029-.01-.03-.014-.03-.016-.024-.02-.026-.02-.023-.024-.021-.024-.02-.03.02-.103.06-.018.063-.024.063-.02.062-.028.063-.025.057-.03.06-.033.056-.031.059-.037.053-.036.05-.036.053-.045.048-.043.047-.045.021-.024.02-.024.025-.027.016-.024.003-.025v-.024l.004-.027-.004-.026v-.047l-.012-.052-.02-.1-.024-.096-.012-.051-.012-.053-.005-.05-.007-.05-.001-.028v-.027l.001-.021.004-.028.003-.029.005-.027.007-.027.009-.028-.016-.04-.013-.05-.007-.026-.012-.024-.003-.024-.005-.026-.003-.023-.004-.027.004-.023.003-.021.005-.012.003-.009.007-.015.005-.008.007-.013.008-.008.012-.008.009-.011.032.003.036.008.032.008.036.008.035.01.032.011.033.011.033.016.031.015.027.021.026.017.027.023.008.013.012.014.01.012.01.014.011.015.005.012.007.018.005.015Zm-3.996-.692.008.01.01.009.005.012.006.012.003.012.003.013.002.012v.075l-.002.056v.028l.002.028v.013l.007.01v.014l.005.011.007.008.008.011.009.006.01.009.01.005.016.006.015.004.02.003.01-.018.007-.015.015-.011.016-.012.015-.008.014-.007.018-.005.014-.003h.068l.018.003.017.005.016.007.014.001.01.013.011.01.012.007.012.005.026.01.024.011.015.004.012.007.012.005.012.009.012.005.008.013.012.012.005.013v.024l-.005.02-.004.025-.005.021-.007.021-.011.017-.005.018-.016.018-.008.017-.015.018-.012.015-.018.014-.03.033-.036.027-.035.026-.037.025-.04.025-.038.02-.075.042-.069.044-.042.013-.044.012-.044.013-.044.016-.018.008-.02.012-.02.011-.014.016-.013.016-.013.02-.003.008-.005.015-.003.013-.005.01.02.01.017.009.017.004.019.007.016.006.019.003.017.003h.036l.015-.003.017-.003.02-.002.033-.01.032-.009.068-.025.067-.028.037-.015.032-.013.036-.008.032-.005.01-.01.006-.009.011-.003h.008l.01-.002.006.002h.011l.006.003.021.008.018.004h.009l.008.004.01.003h.013l.009.005.012.008.01.013.009.009.008.01.007.011.005.014.009.012.015.047.015.053-.063.043-.06.005-.067.003-.061.003-.068.006h-.065l-.066.004-.064.005-.062.006-.032.006-.03.006-.03.002-.032.006-.03.012-.029.005-.029.012-.03.012-.026.012-.027.015-.027.016-.026.016-.026.02-.021.02-.027.025-.02.024v.032l.004.01.007.01.003.007.009.009.008.008.016.019.02.012.016.008.017.008.032-.003h.042l.014.007h.013l.015.005.014.003.012.01.009.006.013.009.01.008.009.012.012.012.008.015v.024l-.005.012-.003.011-.02.021-.012.017-.01.008-.006.01-.005.013-.007.008v.045l.01.015.064.057.067.063.066.052.068.051.07.057.072.052.067.056.074.056.01.03.004.027.01.023.002.027v.047l-.005.011-.007.015-.004.012-.01.016-.07.013-.144.03-.075.014-.074.016-.07.02-.036.01-.036.01-.032.011-.034.017-.067.008-.064.007-.033.006-.035.002-.036.005-.028.007-.033.005-.03.011-.016.009-.014.008-.015.006-.012.009-.012.008-.01.01-.013.01-.012.013-.012.011-.008.015-.01.018-.011.015-.028.117-.031.12-.014.059-.015.056-.016.057-.02.06-.02.056-.02.059-.012.027-.012.025-.016.025-.014.027-.015.025-.015.028-.016.023-.02.024-.02.024-.016.024-.023.02-.022.02-.035-.003-.037-.012-.02-.001-.015-.003-.016-.01-.02-.006-.017-.008-.014-.013-.015-.008-.014-.012-.012-.012-.01-.015-.013-.018-.005-.02-.011-.015-.004-.015-.005-.017-.007-.016-.008-.031-.006-.033v-.068l.003-.032.006-.033.012-.032.009-.03.015-.03.013-.031.02-.031.02-.025.024-.028.02-.02.012-.008.008-.004.006-.008.006-.01.003-.01.004-.008v-.1l-.01-.012-.014-.012-.012-.008-.015-.003-.016-.004h-.033l-.012.007-.032.005-.034.01-.015.002h-.031l-.02-.002-.046-.066-.042-.06-.008-.016-.015-.016-.012-.011-.012-.014-.013-.009-.015-.012-.021-.011-.02-.011-.002-.02v-.02l.006-.017.004-.02.002-.01.003-.006.007-.009.004-.006.01-.004.007-.004.012-.004.007-.004.064.012.069.007.035.003.037.002.032-.002.035-.003.032-.003.033-.005.032-.013.03-.011.012-.01.014-.006.012-.008.015-.011.012-.01.008-.015.012-.012.007-.017-.007-.022-.003-.026-.002-.023v-.024l.002-.02.003-.027.007-.023.005-.022.015-.044.014-.044.022-.044.018-.04.004-.025.01-.02.006-.022.003-.02.005-.02v-.062l-.001-.022-.007-.02-.008-.016-.01-.021-.015-.022-.016-.021-.02-.02-.025-.02.01-.013.015-.015.016-.012.012-.008.028-.017.032-.02.01-.013.012-.01.012-.011.01-.012.004-.017.004-.016v-.017l-.005-.023-.01-.024-.01-.021-.017-.017-.017-.018-.018-.017-.022-.016-.021-.015-.023-.012-.022-.012-.024-.009-.027-.004-.027-.007-.025-.006-.027-.006h-.054l-.023.006-.019.01-.017.007-.015.013-.013.012-.013.011-.012.016-.01.014-.008.015-.009.015-.004.017-.008.018-.008.035-.006.035-.015.079-.015.075-.005.017-.007.02-.005.017-.01.017-.005.014-.012.016-.012.017-.015.012-.008.032-.016.03-.008.03-.012.032-.016.062-.017.065-.016.065-.02.064-.016.067-.02.061-.013.031-.008.031-.011.032-.016.026-.012.03-.019.03-.016.027-.017.024-.022.028-.021.024-.024.027-.022.02-.026.021-.029.021-.028.023-.032.015-.048.048-.052.05-.016.008-.015.012-.017.006-.018.006-.017.003h-.021l-.024-.003-.021-.009-.012-.009-.008-.011-.01-.012-.005-.012-.006-.012v-.012l-.002-.012v-.012l.002-.023.006-.021.008-.026.01-.02.01-.027.007-.023v-.023l.003-.013-.003-.008v-.024l-.006-.011-.009-.01-.005-.012-.012-.01-.015-.012-.012-.012v-.017l.004-.016.001-.015.003-.02.01-.01.006-.015.008-.012.012-.015.018-.024.027-.024.027-.016.03-.02.03-.021.025-.023.03-.022.03-.022.015-.012.012-.013.008-.013.013-.011.01-.015.01-.016.011-.017.005-.017.06-.094.055-.092.027-.047.025-.05.025-.047.024-.052.02-.049.022-.05.02-.05.018-.051.015-.053.014-.052.012-.055.011-.053.015-.015.017-.016.016-.04.006-.02.006-.017v-.02l.003-.024v-.045l-.007-.047-.002-.047-.01-.048-.005-.048v-.068l.003-.02.003-.017.006-.02.009-.02.008-.02.012-.014.015-.018.018-.015.02-.011.022-.013.029-.012.023-.02.027-.023.02-.026.022-.027.016-.03.015-.026.016-.03.015-.026.008-.033.01-.032.002-.031.002-.032v-.064l-.004-.033-.01-.032-.012-.019-.01-.017-.008-.017-.005-.022-.007-.016v-.108l.003-.043v-.065l-.003-.02.034-.013.015-.003.015-.003.011-.002.012.002.016.003h.01l.01.007.013.005.012.004.012.011.02.016.022.02.017.017.017.024.02.023.016.024.02.026.02.021.016.024.02.017.028.029.027.03.032.033.027.033.01.016.015.019.008.02.008.017.005.023.007.02v.024l-.003.024.003.02-.007.016-.005.016-.007.015-.009.014-.01.012-.013.012-.013.01-.031.02-.034.017-.031.015-.027.014-.014-.008-.014-.006-.018-.007h-.047l-.016.007-.015.006-.032.008-.033.012-.027.015-.029.016-.003.008-.005.01-.007.007-.002.007-.014.013-.015.01-.034.014-.029.015-.014.008-.012.008-.006.004-.006.007v.007l-.006.003-.002.007v.01l-.004.01.004.005.002.015v.008l.006.012.006.015.006.014.008.015.01.016.006.012.011.011.01.01.01.011.016.008.047.036.046.032.024.015.022.018.01.008.01.009.01.011.004.013.007.01.005.016.003.012v.015l.004.017v.017l-.004.023-.003.017.012.015.01.014.01.011.015.01.016.01.012.007.013.007.015.002.016.006h.047l.017-.006.016-.002.013-.007.012-.004.012-.012.01-.01.005-.01.009-.01.009-.021.012-.021.002-.027.008-.024.001-.025.004-.027.003-.053.003-.052.002-.024.007-.028.009-.02.008-.024-.002-.012-.01-.007-.005-.008-.009-.005-.019-.012-.02-.009-.047-.012-.044-.014-.021-.005-.015-.011-.005-.001-.007-.01-.005-.006-.003-.006v-.015l.003-.011.005-.008.007-.012.008-.013.012-.014.015-.016h.046l.024-.005.022-.004.023-.008.021-.006.02-.012.02-.01.019-.015.021-.013.017-.015.015-.018.018-.014.015-.022.012-.017.012-.024.013-.038.015-.048.013-.04.024-.136.016-.091.01-.045.009-.044.012-.044.012-.044.012-.044.023-.04.009-.02.011-.019.012-.02.012-.02h.053l.04-.004.04.004h.052l.012.008.016.011.012.017.011.01.017.025.018.03.01.01.008.013.009.012.011.008.012.007.012.009.017.003.019.001Zm-3.976-1.792h.104l.052.013.05.01.05.012.047.013.05.012.048.02.095.028.097.032.05.015.046.012.051.005.053.008.012.012.009.01.012.013.012.007.022.018.028.015.06.03.056.027.026.015.026.017.009.008.008.009.012.01.01.012.009.012.003.014.01.01.001.02.003.013v.055l-.014.02-.012.013-.018.016-.016.015-.013.015-.015.009-.017.011-.016.007-.02.007-.019.007-.017.005-.019.004-.037.007-.04.001-.08.004-.083.003-.04.003-.04.002-.04.007-.037.009-.672-.04h-.011l-.012.007-.008.005-.026.022-.017.018-.033.034-.036.037.006.017.01.017.004.018.012.015.01.015.011.015.016.01.011.017.027.024.03.02.031.024.032.02.066.037.069.045.028.027.028.023.016.011.016.017.012.017.013.015h.048l.024.001.017.01.022.005.016.016.02.012.016.017.004.02-.004.016-.002.015-.006.013-.008.015-.01.013-.013.014-.012.013-.026.02-.03.017-.028.016-.028.015-.024.005h-.02l-.017.004h-.02l-.02-.004h-.023l-.016-.005-.021-.007-.032-.012-.036-.014-.032-.015-.036-.018-.032-.014-.033-.015-.017-.005-.018-.008-.019-.004-.017-.004h-.056l-.02.004-.019.002-.02.01-.02.005-.025.011-.026-.008-.03-.007-.033-.001-.031-.008-.036.004-.031.004h-.016l-.012.005-.015.007-.014.005-.01.032-.018.032-.015.033-.012.033-.008.035-.008.033-.009.035-.006.035-.012.072-.01.072-.005.075-.002.073-.006.151-.003.153-.004.076v.076l-.004.072-.011.072.015.065.013.062.008.062.012.065.009.061.011.069.016.06.016.06.012.03.01.03.012.028.014.027.016.03.015.026.016.027.017.026.02.024.023.024.025.024.024.02.027.02.032.023.03.02.039.016.068.045.06.044.014.016.014.008.013.015.014.012.009.017.012.015.008.015.008.018-.016.008-.015.01-.018.006-.02.008-.015.004-.036.005h-.056l-.037-.005-.04-.004-.036-.008-.08-.017-.079-.02-.04-.005-.041-.006h-.06l-.02.004-.015-.02-.015-.01-.018-.015-.015-.008-.017-.01-.02-.006-.022-.006-.02-.002-.038-.004-.044-.003h-.128l-.044-.001-.018-.007-.017-.006-.02-.003-.016-.008-.017-.01-.016-.012-.015-.012-.016-.017-.01-.016-.011-.02-.013-.023-.009-.026-.013-.02-.013-.024-.011-.024-.01-.02-.011-.024-.003-.025-.005-.02-.008-.027-.002-.023-.003-.024v-.027l-.002-.025.002-.052.003-.05.012-.103.015-.103.005-.053.003-.05.004-.05-.004-.055.023-.055.02-.057.02-.058.02-.056.036-.119.033-.117.02-.056.024-.057.02-.056.027-.057.023-.051.033-.053.017-.028.015-.025.02-.024.018-.027-.006-.016-.008-.012-.008-.013-.012-.008-.01-.004-.005-.007h-.009l-.01-.002-.009-.003h-.009l-.005.003-.012.002-.53.491-.04.02-.037.024-.042.023-.038.024-.042.025-.039.02-.023.005-.02.01-.024.005-.02.005-.022.023-.022.02-.024.02-.023.015-.025.018-.024.017-.023.015-.027.018-.026.013-.027.014-.027.01-.03.013-.026.008-.026.012-.03.008-.025.007-.028.006-.033.01-.027.002-.028.003-.03.007h-.03l-.029.002h-.03l-.03-.002h-.028l-.031-.004-.028-.006-.03-.002-.03-.007-.029-.009-.03-.007-.024-.016-.02-.012-.026-.018-.024-.01-.054-.02-.053-.017-.024-.008-.023-.012-.024-.012-.022-.015-.023-.015-.02-.02-.005-.013-.009-.009-.01-.015-.008-.012-.035-.02-.038-.023-.02-.014-.022-.013-.018-.014-.016-.017-.015-.02-.02-.016-.011-.02-.012-.02-.006-.02-.004-.023-.007-.013v-.04l.004-.009.003-.01.008-.008.014-.008.011-.02h.084l.02.022.024.024.02.017.021.018.024.022.024.013.023.019.024.013.023.016.025.012.027.015.025.012.027.012.026.008.027.011.027.006.025.009.028.005.027.006.029.004.027.003.03.004h.084l.027-.007.029-.004.03-.006.027-.002.03-.008.029-.005.03-.012.04-.01.041-.013.04-.013.037-.015.039-.012.035-.016.036-.02.036-.014.036-.022.031-.023.033-.023.035-.024.033-.026.032-.03.032-.03.032-.036h.042l.006-.013.009-.015.018-.025.02-.023.025-.024.05-.045.046-.043.024-.02.018-.024.007-.012.008-.009.005-.012.004-.012.007-.014v-.038l-.005-.016-.002-.012-.005-.014-.011-.014-.033-.004H20.7l-.032.004-.032.002-.032.003-.033.009-.032.006-.032.008-.131.042-.128.043-.028.007-.033.006-.032.006-.03.003-.033.003-.025.003-.033-.003-.026-.003-.031-.006-.03-.009-.028-.012-.027-.014-.028-.018-.052-.05-.024-.026-.017-.02-.006-.019-.009-.017v-.02l-.005-.036-.004-.035v-.016l-.003-.017v-.018l-.003-.018-.006-.019-.006-.016-.01-.017-.015-.02.004-.022.007-.021.004-.024.001-.024.007-.047.005-.045.003-.023.006-.023.006-.021.01-.021.008-.02.011-.02.012-.02.02-.013.023-.012.02-.008.02-.007.018-.003h.039l.016.003.016.007.017.004.015.008.015.008.015.012.026.02.027.021.026.027.027.024.027.024.029.02.011.012.017.005.016.007.016.005.016.007h.057l.795.1.052-.048.051-.051.049-.05.047-.05.052-.05.046-.053.044-.05.047-.056.092-.107.088-.109.092-.107.095-.109.005-.01.012-.013.003-.008.005-.016.006-.023.006-.026v-.024l.003-.026-.003-.025v-.073l.003-.024.008-.027.001-.012.003-.008.007-.016.005-.007.005-.013.011-.012.012-.011.008-.012h.018l.018-.002h.032l.033.002.026.007.03.01.028.013.027.014.024.015.05.03.054.03.025.016.027.012.03.008.03.012Zm11.623-.433-.011.02-.005.02-.004.02v.037l.004.02v.02l.005.017.007.018.004.024.005.017v.039l-.008.017-.008.02-.009.02.009.028.008.027.003.025.005.031-.005.026v.026l-.004.028-.004.029-.008.053-.007.055-.004.03v.03l.004.029.003.03-.012.012-.008.004-.011.005-.013.007h-.036l-.02-.01-.02-.01-.022-.01-.017-.016-.021-.014-.02-.012-.023-.012-.02-.008-.013-.004-.012-.002-.012-.005h-.015l-.012.005-.012.002h-.016l-.011.006-.033-.039-.032-.042-.036-.04-.032-.038-.011-.023-.012-.024-.01-.02-.008-.022-.003-.012v-.05l.007-.011.002-.009.003-.015.048-.076.047-.076.045-.073.044-.076.047-.075.05-.072.023-.036.03-.036.027-.035.03-.036.013-.002h.012l.012.002h.013l.007.006h.01l.01.006.004.006.008.006.004.006.004.009.005.008.006.015.005.021.007.04.004.045v.022l.005.02.007.015.004.017Zm.104-.263.009.016.008.015.01.017.005.015.006.014.006.018.004.017v.016l.005.035v.069l-.003.035-.002.073-.004.071v.036l.004.036.002.032.01.036-.007.028-.003.029v.03l-.002.03.002.064.003.066.007.067.005.071.003.068.004.068v.035l-.004.033v.033l-.003.031-.005.03-.007.033-.009.029-.011.027-.013.03-.015.027-.02.023-.017.026-.023.024-.029.018-.028.02-.032.017.002.012.006.016v.068l-.011.05-.008.045-.008.02-.001.02v.02l.001.021.008.013v.008l.004.012.009.01.006.004.012.013.009.008.011.007.03-.028.03-.026.029-.026.027-.03.05-.058.05-.056.047-.06.046-.063.052-.057.047-.063.017-.012.016-.006.017-.002h.042l.013.004.012.008.03.015.027.017.026.017.025.022-.004.044-.003.046.003.05v.053l.004.055.003.049v.053l-.003.054-.004.025v.025l-.004.026-.004.025-.007.024-.006.024-.008.022-.012.023-.008.023-.013.019-.015.024-.016.016-.02.021-.02.02-.023.016-.024.015.004.015v.026l-.007.012-.005.027-.01.023-.026.054-.029.047-.012.024-.009.024-.003.01-.006.012-.002.015v.02l.002.012.003.008.003.012.005.016.01.008.01.012.011.009h.025l.02-.009.025-.005.021-.015.023-.012.021-.016.018-.016.02-.02.077-.08.07-.08.02-.018.016-.015.017-.015.019-.012.017-.008.019-.01.02-.002h.017l.02.003.02.005.02.012.02.015.02.021.023.027.021.032.024.036-.002.025-.01.024-.008.021-.012.023-.013.023-.019.02-.02.02-.021.02-.091.073-.088.069-.02.018-.02.015-.015.018-.014.016-.012.019-.007.017-.004.018-.004.018.004.02.004.021.012.022.015.02.021.024.028.02.031.024.041.024.007.02.005.02.009.02.01.02.02.04.024.036.02.037.024.035.023.04.021.041.026.044.021.05.018.048.019.05.013.052.012.055.008.052.004.054-.037.035-.047.028-.04.031-.045.028-.047.02-.044.02-.047.017-.05.019-.052.012-.047.012-.052.008-.05.005-.054.007-.056.003h-.108l-.012-.015-.016-.011-.01-.016-.013-.015-.002-.009-.006-.008v-.025l.006-.008.006-.009.008-.006.016-.017.018-.02.016-.012.016-.015.035-.028.038-.023.077-.045.08-.037.038-.02.038-.022.034-.022.037-.027.016-.016.016-.013.015-.016.012-.018.015-.015.008-.02.015-.022.012-.024-.01-.021-.01-.028-.01-.026-.012-.027-.015-.026-.012-.025-.012-.024-.016-.022-.036-.05-.036-.044-.04-.045-.036-.048-.02.004-.02.003-.02.01-.016.005-.018.014-.018.012-.015.013-.014.013-.03.033-.026.035-.024.032-.027.03-.024.03-.024.03-.023.03-.018.028-.02.033-.02.031-.019.032-.017.03-.032.066-.03.067-.03.065-.027.068-.013.016-.02.011-.012.01-.023.005-.016.01-.02.004-.02.004-.02.003h-.061l-.02-.003-.022-.004h-.021l-.02-.008-.017-.006-.019-.008-.017-.01-.015-.013-.012-.01-.012-.014-.008-.015-.008-.018-.005-.015-.006-.02v-.052l.003-.02.008-.014v-.017l.008-.019.052-.059.056-.066.06-.064.052-.064.027-.035.024-.036.025-.037.02-.033.016-.04.015-.038.006-.017.006-.022.006-.02.002-.021.037-.038.044-.04.044-.046.044-.045.016-.02.017-.025.014-.027.016-.028.006-.012.003-.013.003-.016.002-.015.004-.013v-.015l-.004-.016v-.018l-.012-.002-.01-.005-.008-.007-.011-.006-.005-.007-.01-.008-.005-.006-.003-.009-.01-.02-.004-.017-.004-.02-.003-.025V70.9l.003-.02.004-.024.001-.024.008-.043.008-.04.015-.02.012-.025.014-.02.018-.024.03-.044.027-.048.012-.02.007-.027.01-.024.005-.025v-.025l-.003-.014-.003-.015-.003-.013-.006-.013-.003-.015-.012-.012-.004-.016-.005-.005-.007-.007-.004-.005-.008-.002h-.008l-.005.002h-.007l-.023.016-.03.017-.016.007-.013.009-.01.011-.009.012-.007.012-.005.013-.004.012-.003.019-.003.026-.002.03-.008.014-.005.012-.006.011-.012.012-.012.033-.013.033-.015.032-.016.033-.035.059-.034.058-.04.056-.04.056-.043.056-.04.054-.089.11-.087.107-.044.057-.044.056-.037.06-.042.058-.012.025-.01.025-.004.024-.01.027-.006.053-.004.055v.028l-.007.03-.005.026-.007.027-.009.02-.015.026-.005.012-.008.008-.007.013-.013.011h-.038l-.02.008-.02.004-.042.012-.042.011-.021.004-.02.003-.017-.003-.019-.004-.012-.004-.005-.004-.012-.005-.007-.007-.008-.004-.005-.01-.008-.012-.007-.013-.104-.244.036-.032.029-.033.027-.036.024-.034.02-.036.019-.035.017-.035.015-.04.029-.073.024-.078.015-.037.017-.04.015-.04.017-.04.087-.116.165-.227.079-.116.038-.061.039-.056.039-.06.035-.059.034-.061.035-.06.032-.062.032-.061v-.021l-.003-.02-.004-.023-.005-.016-.007-.017-.009-.016-.007-.015-.01-.013-.014-.015-.009-.013-.015-.015-.016-.012-.032-.023-.032-.024-.017-.005h-.03l-.012.005-.013.006-.013.01-.014.008-.012.01-.025.022-.024.027-.02.027-.02.026-.02.021-.02.018-.008.004-.009.004-.008.003-.008-.003-.007-.004-.009-.004-.006-.01-.006-.01-.008-.02-.007-.02-.005-.026-.007-.03v-.008l-.001-.009-.004-.008-.006-.008-.014-.014-.016-.012-.02-.002h-.02l-.022.002-.018.006h-.005l-.01.006-.005.006-.008.006-.007.01v.008l-.005.009v.008l.02.02-.008.036-.007.04-.005.035v.04l-.004.077-.003.08-.005.039-.003.032-.007.02-.005.016-.005.017-.007.016-.008.016-.012.015-.009.016-.012.012-.015.013-.016.009-.017.012-.018.012.007.003.004.003.008.003v.006l.003.008.001.012-.005.024.004.02-.004.012-.003.009v.042l.003.02.012.04.017.043.007.018.005.02.004.02v.031l-.004.012-.002.012-.006.009-.004.011-.008.009-.005.012-.012.008-.024-.003-.027-.005-.02-.005-.028-.012-.02-.01-.021-.012-.016-.014-.02-.016-.02-.016-.016-.015-.019-.021-.017-.019-.032-.04-.035-.042-.028-.041-.032-.042-.037-.038-.035-.034-.017-.019-.018-.017-.02-.016-.021-.015-.02-.012-.02-.009-.024-.008-.024-.008-.016.001h-.011l-.012-.004-.01-.004-.016-.016-.018-.016-.005-.017v-.028l.008-.015.004-.012.008-.012.008-.008.012-.008.02-.021.025-.018.022-.014.021-.012.028.004.029.008.026.006.028.008.022.012.026.01.025.017.027.008.045.03.052.026.05.031.05.023.012-.018.008-.016.007-.013.005-.016.003-.015.004-.012-.004-.013v-.011l-.006-.013-.006-.012L33 70.23l-.009-.01-.017-.02-.02-.02-.051-.044-.048-.04-.025-.024-.024-.024-.007-.012-.008-.013-.005-.013-.007-.015-.038-.06-.038-.06-.04-.063-.04-.06-.024-.032-.024-.029-.024-.027-.025-.02-.024-.027-.032-.02-.027-.018-.033-.011-.008.008-.015.003-.012.005-.009.004h-.012l-.012-.004-.01-.002-.013-.003-.021-.009-.027-.011-.008-.004-.013-.006h-.011l-.012-.006h-.005l-.003-.003-.007-.006-.002-.003-.003-.008v-.059l.024-.016.023-.008.025-.008.024-.01.031-.002.025-.004h.055l.056.004.057.002.06.01.056.008.03.004h.03l.03.003h.026l.028-.004.028-.003.024-.004.028-.004.024-.01.028-.01.02-.016.023-.015.024-.02.02-.024.018-.026.018-.031.015.003h.01l.013-.004.01-.004.017-.018.017-.017.007-.09.011-.097v-.046l.005-.051V68.812l-.008-.042-.004-.026-.008-.02-.005-.02-.006-.023-.01-.02-.01-.018-.01-.02-.015-.015-.014-.017-.018-.016-.017-.015-.019-.014-.003-.022v-.02l.003-.017.003-.018.006-.01.006-.008.004-.006.005-.009.008-.003.007-.005.012-.004h.012l.017.004h.02l.016-.004.016-.005.03-.011.03-.016.03-.015.033-.01.017-.004.015-.003h.017l.02.004.024.007.021.013.018.015.013.011.007.014.013.016.003.015.005.017.004.02v.018l-.004.018v.02l-.008.04-.013.04v.068l.004.007.003.008.003.01.006.006.004.008.005.005.008.004.009.005h.015l.015-.005.014-.007.012-.01.011-.007.013-.01.012-.007.008-.016.034-.05.028-.05.024-.05.022-.05.027-.054.024-.046.016-.027.017-.02.015-.02.02-.021.024-.016.023-.018.028-.014.026-.012h.044l.022.005.016.007.02.005.017.012.016.012.02.012.016.017.016.015.012.016.016.016.024.036.027.032ZM25.683 59.932c.117.161.115.327-.065.497-.39.402-.44.881-.332 1.394.031.193.298.218.328-.006.019-.237.008-.51.086-.8.068-.195.247-.166.26 0 .023.798-.177 1.255-.442 1.72-.122.345.173.5.286.362.23-.31.412-.816.466-1.86 0-.667-.02-1.294-.21-1.575-.198-.338-.618-.203-.377.268Zm2.967-.304c.02-.113-.144-.171-.215-.104-.134.138-.176.325-.167.541.047.875.118 1.447.116 1.946-.032.311-.097.507-.2.562.051.032-.001.22.126.373.098.052.178.01.234-.164.059-.178.081-.453.088-.771l.003-.914c.159-.166.226-.467.238-.85.047-.238.23-.235.235-.094-.021.092-.086.157-.084.235.014.136.215.184.272.241.093.113-.068.425-.104.701-.015.082.014.084.047.117a.45.45 0 0 1 .143.292c.002.184-.144.403-.134.708.103.195.203.553.308.585.165.043.21-.1.247-.163-.002-.391.26-.312.287-.445.096-.14.02-.205-.054-.216-.282-.108-.188-.251-.282-.377-.07-.413.308-.354.31-.505.014-.21-.227-.26-.34-.39-.082-.145-.033-.426.157-.449.073-.006.11-.012.182-.02.081-.01.175-.198.068-.264-.085-.043-.121-.127-.105-.255l.008-.34c-.022-.101-.181-.13-.25-.058-.115.073-.134.281-.22.439-.114.069-.157-.316-.41-.427-.203-.072-.304.052-.356.19l-.142.671c-.04.119-.195.112-.154-.06.035-.331.1-.49.148-.735Zm-.637 1.743c.008-.156.228-.092.218.076.015.458.031.916-.14 1.349-.064.102-.312.042-.28-.142a7.38 7.38 0 0 0 .202-1.283Zm.002-1.87c-.196.356-.232.763-.196 1.193.066.319.3.23.281.053-.044-.457.007-.843.199-1.124.055-.151-.21-.238-.284-.122Zm-1.14-.032c.121-.146.363-.029.29.183-.151.488-.18.847.06.917.245.086.299.517.243 1.14-.024.222-.271.258-.324.042l-.07-.798c-.043-.19-.216-.23-.24.02a3.406 3.406 0 0 0 .377 1.742c.065.156-.188.558-.404.222-.176-.394-.276-.927-.265-1.663-.01-.753-.004-1.396.334-1.805Zm2.18 6.21-.044.266a.406.406 0 0 1 .081-.044.372.372 0 0 1 .14-.023c.096 0 .178.03.248.092a.384.384 0 0 1 .125.305.459.459 0 0 1-.087.284c-.078.106-.199.158-.36.158a.426.426 0 0 1-.273-.087.33.33 0 0 1-.128-.275h.242a.211.211 0 0 0 .052.124.16.16 0 0 0 .12.044.161.161 0 0 0 .135-.064.267.267 0 0 0 .049-.168c0-.059-.013-.11-.042-.15a.158.158 0 0 0-.138-.07.218.218 0 0 0-.077.011.162.162 0 0 0-.086.079l-.217-.01.085-.678h.677v.205h-.502Zm-1.286.72h.242a.147.147 0 0 0 .046.093c.026.02.057.031.095.031a.163.163 0 0 0 .14-.075.465.465 0 0 0 .063-.268l-.007-.004a.225.225 0 0 1-.106.084.361.361 0 0 1-.126.02.347.347 0 0 1-.27-.112.389.389 0 0 1-.101-.273c0-.145.04-.257.12-.334a.41.41 0 0 1 .299-.108c.145 0 .253.051.325.153.074.103.109.263.109.48 0 .22-.046.384-.14.494a.385.385 0 0 1-.307.137.4.4 0 0 1-.262-.085.33.33 0 0 1-.12-.232Zm.219-.539c0 .085.018.146.055.183.03.028.073.043.127.043a.172.172 0 0 0 .121-.049c.038-.036.057-.09.057-.158a.265.265 0 0 0-.046-.168c-.03-.04-.077-.059-.14-.059a.167.167 0 0 0-.11.037c-.043.035-.064.093-.064.171Zm-.654.469a.21.21 0 0 0-.037-.13c-.032-.041-.08-.063-.143-.063a.166.166 0 0 0-.12.045.195.195 0 0 0-.053.145c0 .061.016.11.048.144.031.035.075.053.13.053a.155.155 0 0 0 .136-.064.21.21 0 0 0 .04-.13Zm.25-.01a.39.39 0 0 1-.09.255c-.078.096-.19.143-.336.143-.145 0-.255-.04-.332-.123a.364.364 0 0 1-.095-.252c0-.059.008-.107.023-.145a.3.3 0 0 1 .165-.166.252.252 0 0 1-.15-.242c0-.102.037-.183.11-.245a.415.415 0 0 1 .274-.09c.124 0 .22.03.291.095.066.059.099.134.099.225a.3.3 0 0 1-.034.146.239.239 0 0 1-.109.102.327.327 0 0 1 .136.11c.032.048.049.11.049.186Zm-.424-.367a.145.145 0 0 0 .11-.042.152.152 0 0 0 .04-.11.151.151 0 0 0-.04-.11.135.135 0 0 0-.102-.043c-.054 0-.095.014-.124.04a.15.15 0 0 0-.042.113.16.16 0 0 0 .041.106.15.15 0 0 0 .117.046Zm-1.381-.116v-.17h.034c.106 0 .186-.024.238-.07a.188.188 0 0 0 .064-.143h.199v1.231h-.243v-.848h-.292Zm3.042-4.572c.027-.086.172-.021.203.164.05.45.028.917-.08 1.405-.03.119-.298.131-.274-.098a5.82 5.82 0 0 0 .15-1.47Zm-4.911-.811c1.513.848 1.328 2.661-.43 3.337.298 2.214 1.482 4.098 4.146 5.23 2.869-1.253 3.671-2.825 4.157-5.183-1.31-.325-2.015-2.234-.329-3.326a5.66 5.66 0 0 0-.714-1.755c-1.21.189-2.224.014-3.014-.588-.6.5-1.592.718-3.107.565-.3.57-.568 1.193-.71 1.72Z"/><path d="M23.64 60.632c1.595.696 1.2 2.668-.448 2.957.321 2.38 1.56 4.746 4.437 5.734 3.082-1.345 4.121-3.452 4.478-5.745-1.504-.042-2.073-2.377-.348-2.862-.138-.888-.591-1.731-.857-2.207-1.298.204-2.377.057-3.169-.744-.61.635-1.472.968-3.147.658-.288.441-.878 1.33-.945 2.209Zm-1.162.796c2.048-.46 1.536 2.003-.184.896-.12 3.79 1.966 6.767 5.362 7.934 4.863-1.888 5.328-5.72 5.327-7.853-1.81 1.103-2.086-1.423-.144-.897-.103-1.59-1.235-3.796-1.54-4.093-1.971.792-2.616.04-3.55-.905-.637.687-1.603 1.81-3.627.834-.34.52-1.61 2.624-1.644 4.084ZM27.707 54.415l.468.033.05-.722.124.009c.102.007.185 0 .251-.025a.248.248 0 0 0 .137-.113.628.628 0 0 0 .053-.248l.011-.154a1.356 1.356 0 0 0 0-.252.294.294 0 0 0-.061-.14.318.318 0 0 0-.147-.097 1.099 1.099 0 0 0-.29-.052l-.47-.033-.126 1.794Zm.687-1.418c.019.021.025.062.02.121l-.01.149c-.004.066-.016.108-.033.129-.017.018-.049.027-.09.024a.202.202 0 0 1-.034-.004l.032-.454c.06.004.099.016.115.035ZM27.41 52.635a.836.836 0 0 0-.284.04c-.063.027-.103.063-.122.11-.019.047-.026.147-.024.298l.017.919c.002.15.013.25.034.296.02.047.061.081.124.105.06.023.158.033.287.03l.142-.002-.005-.235a.46.46 0 0 1-.126-.01c-.018-.006-.03-.019-.037-.039a.648.648 0 0 1-.013-.153l-.016-.918a.515.515 0 0 1 .01-.16.066.066 0 0 1 .04-.039.639.639 0 0 1 .12-.009l-.005-.235-.142.002ZM25.76 52.815c-.01.288-.01.527-.003.722a9.764 9.764 0 0 0-.235-.68l-.424.074.523 1.074.113.64.426-.075-.113-.64.138-1.19-.424.075ZM31.66 53.357c-.144.25-.257.46-.342.636.027-.12.065-.357.112-.71l-.41-.134-.042 1.193-.2.619.41.134.202-.62.68-.985-.41-.133ZM23.89 53.227l.093.347.268-.072.372 1.39.453-.122-.373-1.39.266-.07-.093-.348-.986.264ZM32.422 53.682l-1.03 1.493.431.22.173-.276.15.076-.125.3.425.217.577-1.724-.601-.306Zm-.287 1.149c.084-.134.223-.345.424-.631-.117.279-.21.514-.28.705l-.144-.074ZM23.759 55.219l-.645-1.679.438-.168.644 1.679-.437.168ZM34.036 54.585l-.429.687.207-.826-.33-.207-.954 1.525.331.207.433-.693-.225.822.346.217.953-1.525-.332-.207ZM22.983 54.123a.766.766 0 0 0-.175-.252c-.051-.04-.125-.058-.218-.055a.766.766 0 0 0-.303.09.687.687 0 0 0-.23.176.354.354 0 0 0-.081.21.641.641 0 0 0 .09.294c.043.085.09.148.14.193a.405.405 0 0 0 .148.086c.05.012.145.029.282.043.138.017.227.031.27.047.04.015.084.072.132.165a.204.204 0 0 1 .029.107.076.076 0 0 1-.044.065c-.028.014-.052.016-.073.004a.312.312 0 0 1-.075-.108l-.099-.194-.387.197.053.105c.061.12.12.206.179.258a.342.342 0 0 0 .237.083.68.68 0 0 0 .317-.081.664.664 0 0 0 .239-.192.347.347 0 0 0 .086-.216.681.681 0 0 0-.088-.271c-.08-.159-.162-.26-.246-.306-.084-.044-.247-.076-.488-.093-.084-.004-.141-.018-.169-.038a.302.302 0 0 1-.083-.11.191.191 0 0 1-.028-.103c.002-.026.015-.045.04-.058.022-.01.044-.012.061-.003.018.01.04.044.068.1l.06.118.388-.197-.032-.064ZM35.207 56.255c.094-.112.156-.207.186-.284a.399.399 0 0 0-.008-.267.642.642 0 0 0-.206-.283.568.568 0 0 0-.324-.145.38.38 0 0 0-.258.062 1.677 1.677 0 0 0-.263.268l-.343.409c-.08.095-.136.17-.17.222a.448.448 0 0 0-.061.178c-.01.067 0 .135.028.208a.451.451 0 0 0 .13.186.318.318 0 0 0 .332.06l-.05.127.226.19.62-.74-.418-.352-.175.21.07.058-.137.163a.534.534 0 0 1-.123.118c-.026.015-.055.011-.08-.01-.023-.019-.031-.043-.022-.068a.499.499 0 0 1 .09-.132l.556-.661a.526.526 0 0 1 .121-.121c.022-.012.044-.007.066.011.026.022.032.045.023.07a.824.824 0 0 1-.114.156l-.105.126.359.3.05-.059ZM21.655 56.494l.384-.269-.465-.663c.053-.037.09-.05.116-.04.026.01.066.056.12.134l.343.49.357-.25-.273-.39a1.834 1.834 0 0 0-.16-.21.292.292 0 0 0-.11-.053c-.047-.013-.116-.003-.207.031.079-.066.119-.129.12-.19 0-.057-.04-.145-.12-.26-.088-.125-.172-.202-.252-.232a.304.304 0 0 0-.23.004 2.43 2.43 0 0 0-.383.235l-.271.19 1.031 1.473Zm-.366-1.53c.026.004.057.028.089.074l.057.082c.046.065.064.11.055.132-.007.024-.034.051-.076.08l-.23-.327c.044-.03.078-.044.105-.04ZM20.927 57.128l.62-.521-.23-.276-.262.22-.254-.302.223-.187-.22-.262-.223.187-.22-.262.238-.2-.23-.275-.598.5 1.156 1.378ZM36.587 56.94l-1.03.833a.65.65 0 0 1-.141.098c-.023.01-.045.001-.063-.021-.015-.02-.018-.04-.005-.06a.51.51 0 0 1 .11-.104l1.047-.849-.295-.363-.827.669c-.158.128-.26.216-.303.26a.37.37 0 0 0-.095.168.435.435 0 0 0 .007.231c.024.087.07.172.138.255a.665.665 0 0 0 .193.168.43.43 0 0 0 .393.005c.048-.028.126-.084.232-.17l.934-.757-.295-.364ZM19.124 56.414l.233.243c.183.198.399.42.646.665-.277-.206-.62-.451-1.032-.732l-.323.372 1.535.975.465-.536-1.2-1.36-.324.373ZM37.471 58.166l-.68.441.538-.66-.213-.328-1.508.979.213.328.685-.445-.552.65.222.342 1.508-.98-.212-.327ZM19.672 58.604l-1.454-1.057.275-.38 1.455 1.058-.276.379ZM36.262 59.683l1.63-.76.198.424-1.63.76-.198-.424ZM17.785 58.247l.702.405-.833-.179-.195.339 1.557.899.195-.338-.707-.409.83.197.204-.354-1.558-.899-.195.339ZM38.475 60.35l-.327.08c-.264.06-.564.136-.899.227.317-.137.7-.311 1.15-.527l-.16-.466-1.613.841.232.672 1.777-.36-.16-.467ZM17.065 59.674l1.229.496a.66.66 0 0 1 .153.077c.02.015.023.038.012.065-.009.022-.026.034-.049.032a.509.509 0 0 1-.145-.044l-1.25-.505-.175.435.986.398c.19.077.315.122.375.14a.37.37 0 0 0 .193 0 .433.433 0 0 0 .2-.118.712.712 0 0 0 .155-.243.67.67 0 0 0 .054-.251.434.434 0 0 0-.059-.21.409.409 0 0 0-.127-.136 2.117 2.117 0 0 0-.263-.12l-1.114-.45-.175.434ZM36.944 61.488l.196.786.349-.087-.083-.331.384-.096.07.282.332-.083-.07-.282.331-.082.075.301.35-.087-.19-.756-1.744.435ZM37.167 62.435l.066.464.802-.113c.009.064.003.103-.016.121-.023.019-.081.034-.175.047l-.592.083.06.431.471-.066c.143-.02.23-.037.26-.048a.29.29 0 0 0 .097-.074c.033-.036.056-.102.067-.198.023.1.06.164.114.193.051.026.148.03.287.011.151-.021.258-.06.321-.119a.304.304 0 0 0 .101-.207c.007-.08-.005-.23-.036-.448l-.046-.327-1.78.25Zm1.53.368c-.015.022-.051.038-.106.046l-.099.014c-.08.011-.127.007-.143-.011-.018-.018-.03-.054-.037-.105l.396-.056c.007.053.003.09-.011.112ZM16.504 61.376l.786.196-.85.058-.094.38 1.745.434.095-.379-.793-.197.852-.04.098-.396-1.744-.435-.095.379ZM18.017 63.146l-1.781-.25.065-.464 1.78.25-.064.464ZM38.633 64.75a.772.772 0 0 0 .305-.037c.06-.025.11-.082.151-.166a.767.767 0 0 0 .064-.31.688.688 0 0 0-.049-.285.353.353 0 0 0-.148-.171.642.642 0 0 0-.3-.059.646.646 0 0 0-.236.034.404.404 0 0 0-.146.09 2.265 2.265 0 0 0-.17.229c-.08.114-.135.186-.169.217-.032.028-.103.04-.207.038a.203.203 0 0 1-.108-.024.076.076 0 0 1-.037-.07c0-.03.01-.053.03-.066a.313.313 0 0 1 .131-.015l.218.004.007-.435-.117-.002a.882.882 0 0 0-.312.036.342.342 0 0 0-.185.17.68.68 0 0 0-.076.319.666.666 0 0 0 .056.3.347.347 0 0 0 .15.178c.06.03.153.048.282.05.177.003.304-.021.385-.073.079-.055.183-.184.311-.388.044-.072.082-.116.113-.131a.302.302 0 0 1 .136-.022c.047 0 .08.008.104.024.022.013.033.034.032.063 0 .024-.01.044-.025.055-.018.01-.058.014-.12.013l-.133-.002-.008.435.071.001ZM16.183 63.753l1.265.044c.068.003.113.007.137.01a.083.083 0 0 1 .059.035.115.115 0 0 1 .021.078c0 .011-.003.032-.006.06l.315.011.008-.233a.837.837 0 0 0-.016-.231.228.228 0 0 0-.083-.128.252.252 0 0 0-.136-.053 5.384 5.384 0 0 0-.348-.02l-1.2-.041-.016.468ZM37.266 64.914l1.785.22-.057.465-1.785-.22.057-.465ZM16.204 64.657l.808-.056-.79.318.027.39 1.794-.126-.027-.39-.815.057.798-.3-.029-.408-1.794.126.028.39ZM38.977 65.937l-.35-.081-.063.27-1.401-.323-.106.456 1.402.324-.062.268.35.081.23-.995ZM16.431 66.604l1.813-.076-.084-.476-.325.028-.029-.166.315-.08-.083-.47-1.724.576.117.664Zm1.09-.462c-.157.014-.409.03-.758.041.293-.074.536-.142.73-.2l.029.159ZM38.499 67.84c-.25-.144-.46-.257-.636-.342.12.027.357.064.71.112l.134-.41-1.194-.042-.618-.201-.134.412.619.2.986.68.133-.41ZM18.449 67.057l-1.737.466-.122-.453 1.737-.465.122.452ZM38.005 68.345a.637.637 0 0 1-.055.107.067.067 0 0 1-.05.02.522.522 0 0 1-.152-.052l-.84-.374a.637.637 0 0 1-.135-.072c-.015-.014-.023-.03-.022-.049a.457.457 0 0 1 .042-.12l-.215-.096-.058.13a.828.828 0 0 0-.084.276c-.003.067.013.118.048.155.034.037.122.086.26.147l.84.374c.137.061.232.094.283.095.05 0 .099-.022.148-.07a.835.835 0 0 0 .148-.246l.057-.13-.215-.095ZM17.157 68.79l.336-.129-.1-.259 1.344-.515-.168-.438-1.343.516-.099-.257-.336.129.366.953ZM58.242 57.435c0-.112.26-.225.352-.274.04.077.078.116.078.235 0 .138-.174.157-.313.157-.09 0-.117-.027-.117-.118Zm-2.386-3.521c0 .327.889 1.024.939 1.213-.328.088-.47.318-.47.743v.47c0 .42.049.508-.042.936-.07.338.004.7-.037 1.057-.015.126-.194.694-.257.8-.019.033-.563.42-.633.462-.203.125-.453.27-.65.407-.15.103-.525.362-.66.434-.27.146-.442.252-.692.403-.207.125-.414.352-.743.352-.35 0-.536-.195-.938-.195-.031.085-.196.224-.196.274 0 .524.315 1.264.557 1.555.198.238.904.831 1.28.831.617 0 1.343-.5 1.604-.86.088-.121.206-.2.274-.313.038-.062.06-.145.103-.21.077-.114.07-.037.156-.157.174-.242.288-.572.523-.729.033.063.117.266.117.352 0 .72-1.038 3.504-1.368 3.796-.655.579-.472.74-1.52 1.06-.348.108-2.078.223-2.078.544 0 .466 1.48.906 1.997.838l.858-.134c.037-.056.645-.469.811-.636.256-.256.51-.46.73-.757.426-.576.918-.957 1.196-1.737.157-.442.196-.605.328-1.12.117-.455.158-.758.255-1.23.085-.414.144-.815.228-1.22.085-.409.082-.96.166-1.32l.313.116c0 .373.139.669.156 1.057.014.303.204.514.235.978.023.335.255.504.274.94.012.287.22.613.296.955.046.207.26.65.36.852.068.137.182.203.235.352.112.317.139.192.243.383.155.286.898 1.213 1.251 1.213h.43c.385 0 1.32-.722 1.893-.883.372-.105 1.821-.645 1.821-.995 0-.468-1.785-.156-2.306-.156h-.352c-.437 0-.938-.95-1.183-1.243-.286-.342-.86-.988-1.073-1.352-.204-.349-.844-1.161-.936-1.49-.064-.232-.061-.225-.192-.393-.104-.133-.098-.285-.174-.453-.075-.165-.31-.698-.391-.82.12-.181.037-.21.223-.364.023-.02.355-.271.355-.271.134-.077.694-.4.78-.471.39-.326 1.262-.582 1.262-1.242 0-.167-.164-.255-.274-.314-.237.159-.763.196-1.173.196-.733 0-.624.068-1.173.196-.145-.077-.392-.447-.392-.665 0-.12.287-.157.43-.157.036-.053.899-.614 1.08-.76.37-.296.625-.654.97-.907.326-.24.622-.65 1-.877.335-.2.665-.7.665-1.212 0-.31-.203-.43-.508-.43-.548 0-1.227.259-1.73.343-.385.064-.895.484-1.422.65-.092.03-.217.136-.326.182-.134.056-.255.041-.393.116-.304.165-.355.197-.76.296-.247.06-.167.133-.34.168-.08.015-.393.037-.465.043-.19.016-.271.012-.368.14-.057.076-.179.268-.179.37ZM92.494 62.17v.43c0 .223.056.578.235.626.006.285.654 1.206.831 1.398.358.388.439 1.028 1.202 1.028h.118c.657 0 .978-.356 1.367-.627.369-.257.9-.504 1.164-.819l-.029-.198c-.148-.039-.136-.113-.396-.19a1.58 1.58 0 0 0-.503-.083h-.118c-1.116 0-1.474.172-2.19-.39-.13-.102-.585-.547-.66-.671-.07-.118-.474-.74-.59-.74h-.196c-.094 0-.235.142-.235.236Z"/><path d="M91.595 56.105v.391c0 .219-.058.352-.119.508-.048.122-.046.383-.08.546-.071.343-.117.781-.183 1.107-.146.716-.112 1.6-.713 1.869-.162.072-.637.424-.774.477-.354.14-.54.256-.912.38-.404.133-.417.28-1.012.277-.445-.002-.668.182-.82.47.06.265.28.873.44 1.047.231.252.025.177.407.335.209.087.403.052.633-.017.787-.238 1.403-.991 1.92-1.13.028.048.04.042.04.118v.234c0 .236-.497.994-.641 1.159-.187.214-.799.634-1.1.739-.434.15-.92.328-1.347.49-.483.185-1.017.137-1.291.547l-.03.04.499.351c.786 0 1.612.251 2.302-.044.672-.288 1.16-.406 1.677-.904a6.022 6.022 0 0 0 1.13-1.45c.04-.073.326-.854.35-.943.057-.21.029-.288.107-.518.072-.212.117-.222.182-.484.227-.921.636-.808 1.318-1.263.47-.314 1.244-.558 1.644-.937.162-.155.586-.419.659-.632.131-.387-.16-.61-.441-.741-.192-.09-1.812-.938-1.812-.34v.079c0 .23.118.32.118.508 0 .296-.263.377-.436.607l-.333.09-.095-.15.629-1.799c.154-.23.391-.88.391-1.252v-.195c0-.377-1.51-1.33-2.033-1.33-.463 0-.274 1.285-.274 1.76ZM72.084 61.661c0-.142.008-.038-.04-.078.052-.103.04.032.04-.118v-.117c.06.045.078.007.078.117v.274l-.066.125-.013-.203Zm5.648-6.044c.07-.104.47-.725.569-.725.042 0 .156.115.156.196 0 .05-.329.284-.334.53h-.391Zm-3.068.645c0 .518.126.273.352.273.095 0 .19.168.222.236l.042 1.214.05-.002-.157.352c-.125.03-.95.274-1.017.274-.42 0-.756-.541-1.189-.688-.42-.143-1.167-.233-1.07-.83.085-.53.261-.988.661-1.215.194-.11.41-.23.652-.287.179-.043.516-.257.516-.462v-.391c0-.381-.896-.873-1.251-.979-.278-.082-.516-.241-.818-.277-.241-.03-.795-.27-.864-.27h-.117c-.145 0-.235.2-.235.352 0 .183.38.534.548.548.041.178.23.643.311.862.1.27.432.512.432.742v.117c0 .899-.704 1.549-.704 1.878v.47c0 .184.309.656.396.895.185.509.14.465.253 1.077.046.25-.068.94-.11 1.188-.04.226-.131.303-.174.492-.035.159-.035.426-.062.603-.055.366-.134.742-.195 1.096-.096.563-.304.583-.391.939-.104.424.075 1.965.556 1.965h.118c.54 0 .652-.773.822-1.172.046-.108.051-.263.1-.408.068-.195.112-.19.175-.334.018-.042.154-.781.154-.864.061-.09.156-.204.156-.352v-.039c0-.98-.073-1.993 0-3.052.028-.412.34-.811.706-.858.617-.08.85.115 1.406.115.066.164.261.083.274.626-.162.241.019.18-.267.36-.164.103-.232.18-.175.393.083.31.637.34.637.656v.039c0 .16-.419.5-.547.547v.352c0 .22.586.435.586.548 0 .317-.495.876-.759.963-.537.176-.706.328-1.43.328-.105.156-.196.153-.196.43v.08c0 .237.739.82 1.017.82.22 0 .214-.078.469-.078.104-.155.21-.274.47-.274a.15.15 0 0 1 .156.157v.117c0 .55-.636.553-.298 1.706.072.244.793 1.19 1.08 1.19.488 0 1.068-1.096 1.252-1.486.244-.52-.08-1.7-.08-2.427.394-.588.552-.302 1.11-.61.164-.091.494-.148.628-.233.287-.183.337-.135.598-.263.261-.13.884-.462 1.095-.626.292-.228.87-.413.87-.89v-.117c0-.629-.88-.376-1.367-.587-.23-.1-.545-.12-.768-.21-.295-.118-.339-.17-.719-.26-.084.046-.195.07-.195.197v.039c0 .042.319.51.369.57.286.341.156.231.334.603-.171.116-.263.157-.438.266-.182.114-.382.125-.533.21-.199.111-.196.149-.459.245-.421.153-.03.101-.552.088l-.246-.182c.02-.24.152-.346.334-.449.09-.05.285-.354.37-.451-.07-.145-.113-.29-.243-.383-.107-.077-.383-.076-.383-.283v-.273c.014-.004.838-.384.908-.423.225-.123.617-.43.617-.751 0-.19-.083-.243-.156-.352-.607 0-.182-.048-.597.146-.23.108-.374.117-.614.232l-.236-.026c-.248-.468.104-.988.445-1.237.153-.112.13-.08.258-.212.134-.139.174-.062.304-.165.259-.203.416-.195.629-.349.288-.209.968-.417 1.33-.586.232-.11.42-.188.703-.275.162-.05.554-.203.554-.424v-.117c0-.19-.124-.313-.313-.313h-.235c-.276 0-1.356.468-1.618.572-.222.088-.213.007-.378.169-.183.179-.204.065-.404.144-.137.054-.135.163-.311.236-.15.062-.276.064-.417.131-.026-.05-.078-.13-.078-.196 0-.05.913-.415 1.01-.476.171-.109.627-.532.765-.721.207-.287 1.236-1.43 1.236-1.737v-.274c0-.089-.223-.354-.275-.422l-.35-.047c-.592-.09-1.068.498-1.448.586-.261-.39.046-.58-.303-.948-.174-.184-.473-.406-.685-.567-.384-.29-1.206-.962-1.539-.153-.314.763-.174 1.235-.344 2.082-.114.568.132.597-.175 1.076-.07.11-.55.701-.55.74ZM106.052 61.087c.009.102.017.236-.068.222l-.322-.063.39-.159Zm3.764-3.613c-.088.02-.09.04-.195.04h-.118c-.09 0-.177-.196-.177-.286 0-.054.081-.094.117-.118a.402.402 0 0 1 .373.364Zm-2.803-1.977c0-.088.031-.086.078-.156l.334.172-.069.458-.246.048c-.053-.033-.109-.044-.109-.149l.012-.373Zm2.686-.135c0-.078.373-.523.492-.604.138-.093.55-.34.703-.392.308-.103.422-.202.775-.32.266-.09.177-.041.378-.169.096-.06.272-.064.389-.12l.225.138.078.296c-.081.133-.159.233-.22.393-.101.268-.126.187-.228.359-.171.29-.319.431-.411.802 0 .003-.366.827-.375.838-.118.151-.374.578-.594.578-.125 0-.31-.294-.357-.425-.078-.222-.159-.268-.317-.425-.148-.148-.538-.71-.538-.95Zm-1.955-.861c-.171 0-.761-.272-.892-.36-.131-.087-.55-.447-.682-.569-.181-.167-.539-.394-.781-.47-.241-.077-.486-.4-.89-.4-.122 0-.196.193-.196.312 0 .064.153.23.213.335.08.143.094.265.188.398.125.177.179.68.381.754 0 .161.659 2.387.195 2.387h-.156c-.152 0-.565-.861-1.447-.861h-.117c-.176 0-.391.074-.391.235 0 .498 1.19 1.375.899 2.621.142.267.138.394.362.617.314.312.194.244.694.244.311-.587.267-1.116.821-1.487.503.266.269.235.88.218l.176-.179c0-1.004.857-1.182.938-1.487.875 0 .235.078.235.352v.196c0 .156.177.086.25.454.066.326.258.36.258.485v.04c0 .367-.441.558-.716.69-.198.096-.116.129-.446.26-.19.074-.289.166-.479.263-.207.107-.703.382-.889.52-.25.184-.744.36-.941.505-.308.227-.538.333-.883.525-.276.154-.611.4-.904.543-.519.253-1.584.59-1.579 1.276l-.084.112c.104.077.171.315.3.405.184.129.24.204.411.332.227.171.676.437 1.049.437.191 0 .644-.358.751-.5.237-.314.259-.402.568-.684.182-.166.522-.351.724-.528.239-.208.505-.342.781-.51.424-.257 1.148-.714 1.649-.853.026-.007.831-.38.856-.396.161-.108.727-.319.966-.324.025.107.078.159.078.235 0 .034-.955.973-1.066 1.084-.175.174-.331.38-.528.528-.263.196-.442.208-.551.544-.105.322-.072.579-.398.659-.041.01-.719.284-.78.314-.169.084-.465.306-.64.417-.177.112-.519.16-.768.327-.666 0-1.726.46-1.994.861.08.166.113.298.236.429.016.016.357.329.368.335.163.093.725.527.882.527h.391c.4 0 1.016-.632 1.322-.829.493-.318.851-.497 1.376-.775.199.096.27.023.358.267.074.203.053.322.089.58.072.506-.147.668-.371.911-.143.155-.673.327-.972.358-.482.05-.629-.003-1.176-.003h-.079c-.181 0-.317.124-.391.235.162.305.313.316.681.414.33.088.487.2.752.343.271.145.457.237.723.372.248.125.444.33.658.457l.314-.021c.066-.125.186-.341.276-.428.215-.21.132-.244.279-.465.065-.098.423-.927.423-1.025v-.978c0-.18-.274-.732-.274-1.29v-.118c.192-.052.375-.295.664-.314.289-.019.7.035.971-.007.608-.094.681-.62.907-1.049-.174-.259-.311-.47-.743-.47l-.196.002-1.797.194-.08-.352c.213-.112.976-.389 1.105-.498.175-.147.339-.168.48-.303.162-.155.277-.22.439-.382.32-.323 1.496-1.232 1.496-1.712 0-.343-.466-.783-.822-.783h-.391c-.306 0-1.548.638-1.83.79-.194.105-1.74.736-1.923.736-.257.384-.453.076-.747.494l-.465.093v-.195c.34-.091.259-.125.452-.291.186-.16.189.01.468-.276.034-.035.785-.463.918-.568.15-.12.253-.093.458-.284.061-.057.344-.21.457-.287.235-.16.661-.486 1-.486h.157c.859 0 1.049-.117 1.535-.654.056-.062.445-.601.471-.664.09-.213.143-.204.23-.357.073-.13.07-.25.181-.405.153-.213.251-.486.409-.726.135-.205.311-.555.442-.73.086-.115.72-1.505.72-1.589v-.235c0-.33-.518-.593-.586-.782-.505 0-.384-.179-.947-.008-.179.054-.579.347-.705.468-.14.137-1.234.948-1.398.948-.024 0-.082-.054-.118-.078.351-.524 1.246-.906 1.28-1.766.016-.41-.392-.68-.686-.824-.139-.067-.416-.21-.532-.25-.254-.085-.39-.29-.492-.29h-.117c-.381 0-.313.69-.355 1.054-.018.159-.317.758-.411.997-.13.33-.241.738-.406 1.001-.168.267-.376.665-.783.665ZM52.704 75.912V71.91h-1.429v-.816h3.828v.816h-1.425v4.002h-.974Zm3.274-3.963v-.855h.923v.855h-.923Zm0 3.963v-3.49h.923v3.49h-.923Zm2.934-2.425-.838-.151c.094-.338.255-.587.486-.75.23-.161.571-.243 1.025-.243.412 0 .719.05.92.147.201.097.344.22.426.371.082.15.123.425.123.827l-.01 1.078c0 .306.015.533.045.678.03.145.085.302.166.468h-.914a3.686 3.686 0 0 1-.089-.272 1.274 1.274 0 0 0-.032-.11 1.684 1.684 0 0 1-.506.346c-.18.077-.371.115-.576.115-.359 0-.642-.098-.849-.292a.972.972 0 0 1-.31-.74c0-.197.047-.373.14-.528a.92.92 0 0 1 .397-.354c.169-.082.415-.154.735-.215.43-.081.73-.157.896-.227v-.092c0-.178-.044-.304-.132-.38-.087-.075-.252-.114-.495-.114-.165 0-.293.033-.385.098-.092.064-.166.177-.223.34Zm1.235.75c-.118.039-.305.086-.562.14-.256.056-.423.11-.503.161-.12.087-.18.194-.18.325 0 .13.048.242.144.336a.505.505 0 0 0 .368.141.804.804 0 0 0 .477-.164.571.571 0 0 0 .22-.306c.025-.078.036-.229.036-.45v-.184Zm5.367 1.675h-.924v-1.781c0-.377-.02-.62-.059-.732a.519.519 0 0 0-.193-.258.554.554 0 0 0-.32-.092.74.74 0 0 0-.43.132.67.67 0 0 0-.262.349c-.047.144-.07.411-.07.802v1.58h-.924v-3.49h.857v.513c.306-.395.69-.592 1.151-.592.203 0 .39.037.559.11a.94.94 0 0 1 .383.281c.086.115.147.244.18.388.035.145.052.352.052.62v2.17Zm1.29-3.963v-.855h.923v.855h-.923Zm.923.473v3.381c0 .446-.029.76-.086.943a.768.768 0 0 1-.336.428c-.165.103-.377.155-.632.155-.092 0-.192-.009-.297-.025a3.383 3.383 0 0 1-.344-.074l.16-.788c.045.008.086.015.124.02a.723.723 0 0 0 .107.009c.094 0 .171-.02.232-.06.06-.041.1-.09.12-.148.02-.056.03-.227.03-.512v-3.329h.922Zm1.341-.473v-.855h.923v.855h-.923Zm0 3.963v-3.49h.923v3.49h-.923Zm5.419 0h-.923v-1.781c0-.377-.02-.62-.06-.732a.516.516 0 0 0-.193-.258.552.552 0 0 0-.32-.092.742.742 0 0 0-.43.132.67.67 0 0 0-.262.349c-.047.144-.07.411-.07.802v1.58h-.924v-3.49h.857v.513c.305-.395.69-.592 1.151-.592.203 0 .39.037.559.11a.94.94 0 0 1 .383.281c.086.115.146.244.18.388.035.145.052.352.052.62v2.17Zm2.806-4.818h.973v2.61c0 .413.012.683.036.805a.78.78 0 0 0 .297.474c.157.12.371.18.643.18.276 0 .484-.056.625-.17a.664.664 0 0 0 .252-.415c.03-.165.043-.437.043-.819v-2.665h.972v2.53c0 .58-.025.988-.078 1.227a1.36 1.36 0 0 1-.29.605 1.485 1.485 0 0 1-.567.392c-.237.098-.547.146-.928.146-.46 0-.809-.053-1.047-.16a1.501 1.501 0 0 1-.563-.413 1.323 1.323 0 0 1-.272-.534c-.064-.276-.096-.683-.096-1.223v-2.57Zm8.41 4.818h-.924v-1.781c0-.377-.02-.62-.06-.732a.515.515 0 0 0-.192-.258.552.552 0 0 0-.32-.092.741.741 0 0 0-.43.132.67.67 0 0 0-.262.349c-.047.144-.07.411-.07.802v1.58h-.924v-3.49h.857v.513c.305-.395.689-.592 1.151-.592.203 0 .39.037.559.11a.938.938 0 0 1 .382.281c.087.115.147.244.181.388.035.145.052.352.052.62v2.17Zm1.31-3.963v-.855h.923v.855h-.923Zm0 3.963v-3.49h.923v3.49h-.923Zm3.203 0-1.406-3.49h.969l.657 1.782.19.594c.051-.151.084-.251.096-.3.032-.098.064-.197.099-.294l.664-1.782h.95l-1.388 3.49h-.83Zm5.179-1.11.92.153c-.118.338-.304.595-.56.771-.255.177-.574.265-.958.265-.607 0-1.056-.198-1.347-.595-.23-.317-.346-.719-.346-1.202 0-.58.151-1.032.455-1.36a1.491 1.491 0 0 1 1.146-.491c.52 0 .929.171 1.23.515.299.343.442.868.43 1.576h-2.314c.007.273.08.487.223.638a.7.7 0 0 0 .533.229c.145 0 .266-.04.364-.118.1-.08.174-.206.224-.381Zm.053-.934c-.007-.268-.076-.47-.207-.61a.636.636 0 0 0-.48-.209.64.64 0 0 0-.5.221c-.13.146-.196.346-.193.598h1.38Zm2.928 2.044h-.923v-3.49h.857v.496c.147-.234.279-.389.395-.463a.734.734 0 0 1 .4-.112c.21 0 .413.058.608.175l-.286.804a.813.813 0 0 0-.433-.15.508.508 0 0 0-.33.106c-.09.071-.16.2-.211.386-.052.186-.078.577-.078 1.17v1.078Zm1.784-.996.926-.141c.039.18.119.316.24.41.12.092.289.14.506.14.239 0 .419-.044.539-.133a.29.29 0 0 0 .122-.246.243.243 0 0 0-.066-.175c-.046-.043-.149-.084-.309-.12-.744-.165-1.217-.315-1.416-.45a.898.898 0 0 1-.414-.787c0-.302.118-.556.358-.762.238-.206.608-.31 1.11-.31.478 0 .834.08 1.066.234.232.156.391.386.479.691l-.871.16a.536.536 0 0 0-.212-.311c-.104-.073-.252-.11-.445-.11-.244 0-.417.034-.523.103a.218.218 0 0 0-.104.187c0 .066.03.121.092.167.083.062.37.148.862.26.492.112.835.249 1.03.411.193.165.289.394.289.687 0 .32-.133.595-.401.825-.267.23-.662.345-1.186.345-.475 0-.851-.097-1.129-.29a1.322 1.322 0 0 1-.543-.785Zm4.442-2.967v-.855h.924v.855h-.924Zm0 3.963v-3.49h.924v3.49h-.924Zm3.844-3.49v.736h-.631v1.407c0 .285.006.45.018.498.013.047.04.085.082.117.043.03.096.046.156.046.087 0 .21-.03.373-.089l.078.716a1.836 1.836 0 0 1-.73.138c-.166 0-.316-.028-.45-.083a.667.667 0 0 1-.294-.218.86.86 0 0 1-.13-.36 4.608 4.608 0 0 1-.029-.65v-1.522h-.424v-.736h.424v-.694l.926-.538v1.232h.631Zm.578 0h.983l.834 2.478.816-2.478h.955l-1.231 3.359-.221.608a2.54 2.54 0 0 1-.231.467 1.017 1.017 0 0 1-.254.261 1.113 1.113 0 0 1-.351.156 1.835 1.835 0 0 1-.472.056c-.177 0-.351-.02-.523-.056l-.082-.724c.145.03.275.043.392.043.214 0 .373-.063.477-.189.102-.125.181-.285.236-.48l-1.328-3.5Z"/></g><defs><filter id="a" x="-13" y="0" width="154" height="157" filterUnits="userSpaceOnUse" color-interpolation-filters="sRGB"><feFlood flood-opacity="0" result="BackgroundImageFix"/><feColorMatrix in="SourceAlpha" values="0 0 0 0 0 0 0 0 0 0 0 0 0 0 0 0 0 0 127 0" result="hardAlpha"/><feOffset dy="16"/><feGaussianBlur stdDeviation="6.5"/><feColorMatrix values="0 0 0 0 0 0 0 0 0 0 0 0 0 0 0 0 0 0 0.03 0"/><feBlend in2="BackgroundImageFix" result="effect1_dropShadow_49_4195"/><feBlend in="SourceGraphic" in2="effect1_dropShadow_49_4195" result="shape"/></filter></defs></svg>