<svg width="701" height="175" viewBox="0 0 701 175" fill="none" xmlns="http://www.w3.org/2000/svg">
<g clip-path="url(#clip0_551_1202)">
<path d="M112.89 69.78H112.06V69.91H112.89V69.78Z" fill="#003678"/>
<path d="M106.89 101.72L100.45 100.53L92.38 102.22L94.04 100.56L101.01 98.38L108.15 100.6L106.9 101.73L106.89 101.72ZM101.89 123.74L101.11 120.06L103.27 111.52L103.3 111.56V111.51L105.96 111.12L107.89 124.23C105.99 124.05 103.98 123.87 101.89 123.74ZM88.23 106.19L94.24 107.67L102.32 104.6L106.84 106.83L102.32 106.01L93.96 109.08L88.22 106.19H88.23ZM71.09 120.57L68.15 112.17L64.02 110.93L70.96 108.81L73.7 117.76L90.33 115.28L71.09 120.57ZM68 94.14H68.8V98.64H68V94.14ZM69.78 94.24H73.92V98.65H69.78V94.24ZM59.7 83.43H54.37V53.42H59.99V53.07H67.02C67.05 53.26 67.08 53.46 67.13 53.65L61.34 55.99L61.21 55.66H61.2L60.47 55.96L61.83 59.22L62.53 58.93L62.37 58.52L68.13 56.19C68.26 56.39 68.4 56.59 68.53 56.77L64.24 61.1L63.98 60.85L63.42 61.41L65.95 63.88L66.5 63.32L66.18 63.02L70.46 58.72C70.65 58.86 70.83 58.98 71.05 59.1L68.8 64.82L68.4 64.66L68.13 65.38L71.4 66.68L71.68 65.96L71.33 65.82L73.58 60.15C73.81 60.21 74.06 60.26 74.32 60.29V66.33H73.93V83.44H59.71L59.7 83.43ZM53.4 83.44H52.35V53.42H53.4V83.44ZM67.74 55.43C67.79 55.53 67.84 55.62 67.9 55.72L62.61 57.89L62.47 57.59L67.75 55.44L67.74 55.43ZM62.17 45.66L62.3 45.34L68.25 47.81L68.12 48.12L62.17 45.65V45.66ZM70 57.77C70.11 57.87 70.25 57.99 70.4 58.12L65.78 62.29L65.61 62.12L69.99 57.78L70 57.77ZM65.38 40.67L66.11 40.86L70.5 45.15L70.06 45.6L65.37 40.67H65.38ZM72.75 59.43C72.89 59.48 73.02 59.53 73.17 59.58L70.75 65.39L70.35 65.23L72.75 59.43ZM70.21 37.3L70.89 38.56L73.52 43.68C73.28 43.74 73.08 43.8 72.91 43.85L70.21 37.3ZM75.62 93.71H75.64L76.43 94.49V98.65H75.61V93.71H75.62ZM75.62 86.31H75.64L76.43 87.11V90.73H75.61V86.31H75.62ZM75.64 66.3H76.04V59.95C76.17 59.95 76.3 59.93 76.44 59.91V66.3V83.46H75.65V66.3H75.64ZM76.11 36.25H76.47V43.47C76.37 43.47 76.23 43.45 76.11 43.44V36.25ZM78.33 46.45C79.33 46.45 80.16 47.26 80.16 48.28C80.16 49.3 79.33 50.1 78.33 50.1C77.33 50.1 76.52 49.29 76.52 48.28C76.52 47.27 77.34 46.45 78.33 46.45ZM81.85 64.89L81.6 64.99L79.22 59.12L79.8 58.8L81.85 64.9V64.89ZM82.11 56.78L86.58 61.28L86.27 61.58L81.85 57.11C81.95 57 82.03 56.89 82.11 56.78ZM83.57 53.89L89.35 56.33L89.21 56.67L83.46 54.23C83.49 54.09 83.53 53.97 83.57 53.88V53.89ZM90.36 50.54H107.77V51.21H90.36V50.54ZM104.93 45.41L105.45 49.88H105.03L104.66 45.16L104.93 45.41ZM106.93 47.55L111.77 50.45V50.76L106.93 48.38V47.54V47.55ZM114.3 51.38L114.45 52.11L109.02 53.23L108.28 52.91L114.31 51.38H114.3ZM117.78 52.48L112.75 58.91L112.29 58.3L117.32 51.86L117.78 52.48ZM120.68 53.05L117.99 61.36L117.61 61.24L120.36 52.72L120.68 53.06V53.05ZM123.18 52.59H123.7V63.37H123.18V52.59ZM77.5 86.91H79.23V90.72H77.5V86.91ZM80.17 85.66L80.98 85.09V91.55L80.17 91.04V85.66ZM102.42 82.3V77.87L102.96 78L103.27 81.68L105.96 86.77L102.42 82.31V82.3ZM111.79 70.06V68.23H112.46L113.93 69.65L113.6 72.19L111.99 73.29H111.4V72.08H112.28V71.72H111.4V70.06H111.79ZM113.47 74.97H112.43V73.63L114.5 72.58L113.47 74.97ZM114.69 125.04L117.04 112.66L116.4 108.08L114.37 116.65H113.31V108.98L116.59 106.56L118.14 93.03L111.89 107.59H111.43L111.4 98.61L113.41 93.16L109.6 89.85L113.35 85.94L114.54 86.59L112.95 89.74L116.8 92.91L122.3 88.81L126.36 74.69L124.63 68.54L127.06 66.6L127.67 65.43L127.56 65.47L123.39 67.07L122.61 76.16L115.27 76.52L123.15 77.34L115.07 78.65L116.08 81.4L114.52 83.16L111.13 81.82L108.03 83.43L106.4 81.49L108.53 75.47H109.42L109.92 80.62L111.13 76.92L114.23 77.15L112.96 76.57L114.94 76.43L114.34 75.1L115.58 73.3L116.03 69.29L113.28 67.04L111.13 67.09L109.31 68.65L108.75 57.35L108.21 56.67L107.67 75.19L106.35 77.52C106.35 77.52 106.2 77.17 105.82 75.98C105.47 74.79 106.02 71.4 106.02 71.4L107.35 57.04L106.33 58.38L105.61 67.17L102.35 69.49L101.47 74.26L102.78 70.64L105.21 69.26L104.95 71.66L103.2 72.68L99.99 76.86L99.59 84.11L106.84 90.33L105.31 94.32L111.26 98.67L109.91 99.63L103.25 96.13L105.31 94.32L92.36 92.81L85.76 96.08V101.6H81.51L79.87 98.67H77.49V94.25H81.03C81.03 94.25 81.09 94.25 81.14 94.25C81.95 94.25 82.6 93.59 82.6 92.78V92.27H82.61V86.94V84.92C82.61 84.11 81.95 83.44 81.16 83.44C81.11 83.44 81.08 83.45 81.05 83.45H77.49V66.33H77.05V60.26C77.32 60.21 77.57 60.17 77.83 60.09L80.01 65.81L79.6 65.97L79.89 66.7L83.19 65.43L82.91 64.71L82.56 64.84L80.32 58.98C80.49 58.87 80.65 58.75 80.82 58.64L85.27 63L84.96 63.31L85.52 63.86L87.99 61.35L87.43 60.81L87.2 61.06L82.69 56.67C82.82 56.5 82.93 56.33 83.03 56.15L88.98 58.56L88.81 58.95L89.53 59.25L90.86 55.97L90.14 55.68L89.99 56.03L84.04 53.62C84.08 53.44 84.11 53.26 84.15 53.08H90.35V53.4H106.57C106.59 53.67 106.66 54.03 106.81 54.41C107.1 55.14 107.5 55.66 107.72 55.57C107.73 55.57 107.75 55.57 107.75 55.55L113.41 53.41H115.17L111.18 58.84C111.04 59.04 111.43 59.56 112.07 60.02C112.71 60.48 113.33 60.69 113.46 60.49C113.48 60.49 113.48 60.48 113.48 60.48L119.18 53.4H119.22L116.39 61.95C116.39 61.95 116.37 61.97 116.37 61.98C116.28 62.23 116.87 62.67 117.67 62.96C118.45 63.25 119.13 63.3 119.28 63.1V63.08L119.3 63.06C119.3 63.05 119.3 63.04 119.3 63.04L122.48 53.4H122.54V64.03V64.08C122.6 64.3 123.28 64.48 124.13 64.48C124.98 64.48 125.67 64.3 125.71 64.08V64.06V53.41H126.94V51.28H114.49V50.6H126.94V49.92H122.29H114.27C113.01 49.73 109.72 49.03 107.56 46.81C104.57 43.75 104.51 41.59 104.51 41.59L103.92 41.55V49.92H103.32V41.55H102.15V49.92H90.35V50.32H84.15C83.56 46.66 80.67 43.76 77.01 43.15V36.17H77.44V35.4H73.86V36.17H74.31V43.13C74.09 43.16 73.85 43.2 73.62 43.26L71.03 36.9L71.4 36.75L71.11 36.03L67.86 37.37L68.14 38.09L68.55 37.93L71.13 44.27C70.95 44.38 70.78 44.49 70.62 44.61L65.83 39.86L66.09 39.58L65.54 39.03L63.06 41.55L63.61 42.1L63.92 41.79L68.66 46.49C68.53 46.67 68.41 46.86 68.27 47.05L62.17 44.57L62.33 44.17H62.31L61.61 43.87L60.28 47.14L60.99 47.44L61.15 47.07L67.18 49.53C67.11 49.79 67.05 50.05 67.02 50.32H59.99V49.95H52.31C51.5 49.95 50.85 50.61 50.85 51.43C50.85 51.45 50.85 51.46 50.85 51.49V53.09V83.46V85.49C50.85 86.3 51.51 86.96 52.31 86.96C52.36 86.96 52.39 86.96 52.41 86.96H59.71H73.48H73.93V90.77H73.47H67.79C67.75 90.77 67.73 90.77 67.69 90.77C66.87 90.77 66.22 91.43 66.22 92.24V94.27V98.69H55.73L55.76 107.56L58.72 110.77L58.69 116.8L62.07 118.19V126.45C47.08 129.25 41.5 132.68 40.94 132.77C40.22 132.9 43.64 133.44 48.54 135.73C54.67 138.59 53.82 140.16 53.82 140.16C53.82 140.16 64.56 133.29 87.63 129.24C99.62 127.13 121.38 126.24 129.44 127.75C129.44 127.75 123.28 126.35 114.68 125.1L114.69 125.04Z" fill="#003678"/>
<path d="M87.22 171.84C40.39 171.84 2.41 133.88 2.41 87.04C2.41 40.2 40.39 2.27 87.22 2.27C134.05 2.27 171.99 40.23 171.99 87.05C171.99 133.87 134.02 171.85 87.22 171.85V171.84ZM87.22 0C39.05 0 0 39.05 0 87.2C0 135.35 39.05 174.4 87.22 174.4C135.39 174.4 174.4 135.36 174.4 87.2C174.4 39.04 135.37 0 87.22 0Z" fill="#003678"/>
<path d="M23.89 56.61C22.95 56.2 22.15 56.1 21.5 56.34C20.85 56.58 20.36 57.04 20.05 57.77C19.73 58.49 19.7 59.18 19.99 59.82C20.27 60.46 20.86 61 21.81 61.42C22.75 61.82 23.55 61.91 24.23 61.67C24.9 61.43 25.41 60.96 25.72 60.27C26.01 59.57 26.03 58.89 25.75 58.24C25.47 57.59 24.85 57.04 23.9 56.63L23.89 56.61Z" fill="#003678"/>
<path d="M79.48 133.73V140.83H77.5V136.19C77.19 136.43 76.88 136.62 76.58 136.77C76.29 136.92 75.91 137.06 75.47 137.19V135.61C76.13 135.4 76.64 135.14 77 134.84C77.37 134.54 77.65 134.17 77.87 133.73H79.48Z" fill="#003678"/>
<path d="M85.01 136.15C85.01 135.77 84.91 135.47 84.72 135.26C84.53 135.05 84.3 134.94 84.03 134.94C83.76 134.94 83.56 135.04 83.38 135.23C83.21 135.43 83.13 135.71 83.13 136.1C83.13 136.49 83.22 136.79 83.39 136.99C83.57 137.2 83.8 137.3 84.06 137.3C84.32 137.3 84.57 137.2 84.74 137C84.92 136.8 85.02 136.51 85.02 136.14L85.01 136.15ZM81.42 139.26L83.35 139.02C83.4 139.29 83.48 139.48 83.61 139.59C83.73 139.7 83.88 139.76 84.05 139.76C84.37 139.76 84.61 139.6 84.78 139.29C84.91 139.06 85 138.57 85.07 137.82C84.84 138.06 84.6 138.23 84.36 138.35C84.12 138.46 83.83 138.52 83.51 138.52C82.88 138.52 82.35 138.29 81.92 137.85C81.49 137.4 81.28 136.84 81.28 136.16C81.28 135.7 81.39 135.27 81.61 134.89C81.83 134.51 82.13 134.23 82.52 134.03C82.9 133.84 83.38 133.73 83.96 133.73C84.65 133.73 85.22 133.85 85.64 134.08C86.05 134.33 86.39 134.71 86.64 135.23C86.9 135.75 87.03 136.44 87.03 137.3C87.03 138.56 86.76 139.48 86.23 140.07C85.71 140.66 84.96 140.95 84.03 140.95C83.48 140.95 83.03 140.89 82.72 140.76C82.4 140.63 82.13 140.44 81.92 140.2C81.71 139.96 81.55 139.64 81.43 139.27L81.42 139.26Z" fill="#003678"/>
<path d="M88.37 133.84H92.98V135.39H89.86L89.69 136.44C89.91 136.34 90.13 136.26 90.34 136.21C90.56 136.16 90.76 136.13 90.96 136.13C91.66 136.13 92.23 136.34 92.66 136.76C93.1 137.18 93.31 137.71 93.31 138.35C93.31 138.8 93.2 139.24 92.98 139.65C92.76 140.07 92.44 140.39 92.02 140.61C91.62 140.83 91.09 140.94 90.45 140.94C89.98 140.94 89.59 140.89 89.26 140.81C88.93 140.72 88.66 140.59 88.41 140.42C88.19 140.25 88 140.05 87.86 139.83C87.72 139.62 87.6 139.34 87.5 139.02L89.46 138.8C89.51 139.12 89.62 139.36 89.79 139.52C89.97 139.69 90.18 139.77 90.42 139.77C90.69 139.77 90.91 139.66 91.09 139.46C91.26 139.25 91.35 138.95 91.35 138.54C91.35 138.13 91.26 137.82 91.08 137.63C90.9 137.44 90.67 137.34 90.37 137.34C90.18 137.34 90 137.39 89.83 137.48C89.69 137.55 89.56 137.67 89.4 137.85L87.75 137.61L88.35 133.85L88.37 133.84Z" fill="#003678"/>
<path d="M95.7401 135.87L93.9001 135.54C94.0501 134.96 94.3501 134.51 94.7801 134.2C95.2201 133.89 95.8301 133.73 96.6201 133.73C97.5301 133.73 98.1801 133.9 98.5801 134.24C98.9901 134.58 99.2001 135.01 99.2001 135.52C99.2001 135.82 99.1101 136.09 98.9601 136.33C98.7901 136.58 98.5301 136.79 98.2001 136.98C98.4701 137.04 98.6801 137.12 98.8201 137.21C99.0501 137.36 99.2401 137.54 99.3601 137.78C99.4901 138.01 99.5501 138.29 99.5501 138.61C99.5501 139.02 99.4501 139.4 99.2401 139.78C99.0301 140.15 98.7201 140.44 98.3201 140.64C97.9301 140.84 97.4001 140.94 96.7601 140.94C96.1201 140.94 95.6101 140.87 95.2501 140.72C94.8901 140.57 94.5901 140.35 94.3601 140.06C94.1201 139.78 93.9301 139.42 93.8201 138.98L95.7501 138.73C95.8201 139.12 95.9301 139.39 96.0901 139.54C96.2601 139.69 96.4601 139.77 96.7001 139.77C96.9601 139.77 97.1701 139.67 97.3501 139.48C97.5201 139.3 97.6101 139.04 97.6101 138.73C97.6101 138.4 97.5201 138.15 97.3601 137.97C97.1901 137.79 96.9601 137.7 96.6801 137.7C96.5301 137.7 96.3201 137.74 96.0601 137.81L96.1601 136.43C96.2601 136.44 96.3501 136.45 96.4101 136.45C96.6701 136.45 96.8701 136.37 97.0401 136.21C97.2101 136.04 97.2801 135.86 97.2801 135.63C97.2801 135.42 97.2201 135.25 97.1001 135.13C96.9701 135 96.7901 134.94 96.5801 134.94C96.3401 134.94 96.1601 135.01 96.0101 135.15C95.8801 135.29 95.7701 135.53 95.7301 135.87H95.7401Z" fill="#003678"/>
<path d="M45.8601 141.28L46.7601 141.04L47.6701 140.79L47.1201 140.53L46.6701 140.31L45.8601 141.28Z" fill="#003678"/>
<path d="M59.6301 22.41C59.8201 22.24 59.9501 22.04 60.0001 21.82C60.0501 21.59 60.0201 21.35 59.9101 21.1C59.7801 20.82 59.6001 20.62 59.3501 20.52C59.1101 20.42 58.8201 20.41 58.4901 20.5C58.3301 20.55 57.8601 20.74 57.1001 21.08L55.6201 21.73L56.5701 23.88L57.9701 23.26C58.8801 22.86 59.4301 22.57 59.6201 22.4L59.6301 22.41Z" fill="#003678"/>
<path d="M146.87 51.45C147.06 51.62 147.27 51.72 147.5 51.74C147.73 51.76 147.96 51.7 148.2 51.55C148.46 51.39 148.63 51.18 148.7 50.92C148.77 50.66 148.73 50.38 148.6 50.07C148.53 49.92 148.28 49.48 147.84 48.77L146.99 47.4L144.99 48.63L145.79 49.93C146.31 50.77 146.67 51.28 146.86 51.45H146.87Z" fill="#003678"/>
<path d="M22.21 64.97L18.48 65.31L21.36 67.67L22.21 64.97Z" fill="#003678"/>
<path d="M95.59 156.79C95.22 156.79 94.91 157.09 94.91 157.09C94.5 157.39 94.56 157.57 94.56 157.57C94.54 157.82 94.37 158.44 94.37 158.44C94.28 158.56 94.25 159.02 94.31 159.14C94.32 159.2 94.53 159.68 94.56 159.71C94.83 160.15 95.86 160.77 95.86 160.77C96.07 160.91 96.28 160.92 96.49 160.93C96.65 160.93 96.82 160.93 96.99 160.95C97.62 160.83 97.65 160.27 97.65 160.27C97.55 160.04 97.85 159.71 97.85 159.71C98.02 159.52 97.97 159.35 97.97 159.35C97.84 159.09 97.77 158.48 97.77 158.48C97.45 158.32 96.79 157.75 96.79 157.75C96.29 157.1 96.85 157.01 96.85 157.01C97.1 157.07 97.24 156.97 97.24 156.97C97.6 156.91 97.49 156.35 97.49 156.35C97.4 156.06 97.51 155.87 97.51 155.87C97.6 155.33 97.46 155.29 97.46 155.29C97.21 154.88 96.97 155.39 96.97 155.39C96.78 155.72 95.95 156.36 95.95 156.36C95.89 156.44 95.84 156.51 95.8 156.56C95.64 156.76 95.59 156.79 95.59 156.79Z" fill="#003678"/>
<path d="M59.6399 149.05C59.7999 149.48 59.9099 149.76 59.9699 149.94C60.0399 150.13 60.0599 150.23 60.0399 150.29C60.2699 150.65 60.1199 150.45 60.1999 150.84C60.3199 150.91 60.3199 150.79 60.3899 150.67C60.3499 150.38 60.3099 149.94 60.2199 149.51C60.1999 149.35 60.1599 149.2 60.1199 149.05C60.0099 149.02 59.7599 149.07 59.6499 149.05H59.6399Z" fill="#003678"/>
<path d="M56.3401 151.47C56.5201 151.57 57.0001 151.37 57.2301 151.36C58.0101 151.32 59.0301 151.1 59.4501 150.87C59.5601 150.81 59.6301 150.75 59.6501 150.69C59.6301 150.66 59.6101 150.64 59.5901 150.61C59.5401 150.53 59.4901 150.42 59.4401 150.35C58.5701 150.92 56.9401 151.09 56.3301 151.47H56.3401Z" fill="#003678"/>
<path d="M103.87 23.37C104.67 23.59 105.39 23.5 106.04 23.11C106.7 22.72 107.17 22 107.45 20.95C107.73 19.91 107.69 19.07 107.33 18.42C106.97 17.77 106.38 17.34 105.56 17.12C104.74 16.9 104 16.97 103.36 17.35C102.72 17.73 102.25 18.44 101.97 19.48C101.69 20.51 101.74 21.35 102.11 22.02C102.49 22.69 103.07 23.13 103.87 23.35V23.37Z" fill="#003678"/>
<path d="M87.1701 5.17004C42.1201 5.17004 5.59009 41.69 5.59009 86.73C5.59009 131.77 42.1201 168.29 87.1601 168.29C132.2 168.29 168.73 131.78 168.73 86.73C168.73 41.68 132.22 5.17004 87.1701 5.17004ZM160.25 82.59L158.69 82.76L158.09 77.28L156.04 77.51L156.6 82.61L155.04 82.78L154.48 77.68L151.97 77.96L152.6 83.65L151.04 83.82L150.19 76.08L159.44 75.06L160.27 82.59H160.25ZM149.54 48.53C150.11 49.46 150.46 50.18 150.57 50.69C150.69 51.2 150.64 51.69 150.43 52.17C150.22 52.65 149.89 53.03 149.42 53.32C148.83 53.68 148.22 53.79 147.59 53.64C146.97 53.49 146.37 53.07 145.8 52.36C145.83 52.86 145.8 53.31 145.71 53.71C145.62 54.11 145.4 54.7 145.04 55.5L144.14 57.52L142.85 55.41L143.8 53.08C144.14 52.25 144.34 51.7 144.4 51.43C144.46 51.16 144.46 50.92 144.4 50.7C144.35 50.48 144.2 50.16 143.95 49.76L143.73 49.4L140.42 51.44L139.34 49.68L147.27 44.81L149.55 48.52L149.54 48.53ZM140.8 36.79L145.97 43.02L144.76 44.02L142.84 41.7L136.89 46.63L135.57 45.04L141.52 40.11L139.59 37.79L140.8 36.79ZM139.39 35.32L138.32 36.48L134.27 32.74L132.87 34.26L136.64 37.73L135.57 38.89L131.8 35.42L130.09 37.28L134.3 41.16L133.24 42.31L127.52 37.04L133.82 30.2L139.39 35.34V35.32ZM125.4 24.12L128.13 26C129.16 26.71 129.81 27.22 130.07 27.51C130.48 27.96 130.71 28.49 130.76 29.09C130.82 29.7 130.64 30.31 130.22 30.92C129.9 31.39 129.53 31.72 129.12 31.91C128.71 32.1 128.3 32.19 127.88 32.17C127.47 32.15 127.09 32.07 126.75 31.93C126.3 31.72 125.68 31.35 124.91 30.82L123.8 30.05L121.81 32.93L120.11 31.76L125.4 24.1V24.12ZM119.51 20.84L118.88 22.28L114.32 20.29L113.43 22.32L117.38 24.05L116.75 25.49L112.8 23.77L111.22 27.38L109.33 26.55L113.06 18.02L119.5 20.84H119.51ZM99.9001 19.01C100.15 18.09 100.51 17.36 100.98 16.82C101.33 16.42 101.75 16.09 102.24 15.83C102.73 15.57 103.23 15.42 103.74 15.36C104.42 15.29 105.16 15.36 105.97 15.58C107.43 15.98 108.48 16.7 109.14 17.77C109.79 18.83 109.92 20.1 109.52 21.57C109.13 23.03 108.38 24.05 107.29 24.63C106.2 25.22 104.92 25.31 103.47 24.92C102 24.52 100.94 23.8 100.29 22.74C99.6401 21.69 99.5101 20.44 99.9001 19.01ZM88.5601 13.19L90.7401 17.01L93.2901 13.46L95.6701 13.6L91.6201 18.78L91.4001 22.68L89.3401 22.56L89.5601 18.65L86.1201 13.06L88.5601 13.2V13.19ZM85.0301 13.11L85.1501 14.68L82.1401 14.91L82.7401 22.62L80.6801 22.78L80.0901 15.07L77.0801 15.3L76.9601 13.73L85.0301 13.11ZM75.2101 14.09L76.7801 23.26L74.7501 23.61L73.1801 14.44L75.2101 14.09ZM64.0401 17.82C64.2101 17.34 64.5401 16.92 65.0201 16.56C65.5001 16.2 66.1201 15.92 66.8801 15.71C68.1201 15.37 69.1201 15.36 69.8801 15.68C70.6401 16 71.1501 16.57 71.4101 17.38L69.4401 18C69.2301 17.56 68.9501 17.28 68.6201 17.16C68.2901 17.04 67.8401 17.05 67.2801 17.2C66.7001 17.36 66.2801 17.59 66.0101 17.9C65.8401 18.1 65.7801 18.31 65.8501 18.54C65.9101 18.75 66.0601 18.91 66.3001 19.01C66.6001 19.13 67.2701 19.17 68.2901 19.12C69.3101 19.07 70.0901 19.09 70.6101 19.18C71.1401 19.28 71.5801 19.48 71.9501 19.8C72.3201 20.11 72.5801 20.56 72.7401 21.13C72.8801 21.65 72.8601 22.17 72.6701 22.71C72.4801 23.25 72.1301 23.71 71.6101 24.08C71.0901 24.46 70.4101 24.76 69.5501 25C68.3001 25.34 67.2701 25.35 66.4601 25C65.6501 24.67 65.0401 24.02 64.6301 23.05L66.5201 22.34C66.8001 22.89 67.1501 23.25 67.5801 23.43C68.0101 23.6 68.5301 23.61 69.1401 23.44C69.7801 23.26 70.2401 23.01 70.4901 22.67C70.7501 22.33 70.8301 22 70.7401 21.68C70.6801 21.47 70.5601 21.31 70.3901 21.2C70.2101 21.09 69.9401 21.03 69.5701 21.01C69.3101 21.01 68.7401 21.01 67.8601 21.05C66.7301 21.1 65.8901 21 65.3701 20.77C64.6301 20.44 64.1601 19.92 63.9701 19.2C63.8401 18.74 63.8701 18.27 64.0401 17.8V17.82ZM57.0901 19.38C58.0901 18.94 58.8501 18.69 59.3701 18.64C59.8901 18.59 60.3701 18.7 60.8201 18.97C61.2601 19.24 61.6001 19.62 61.8201 20.13C62.1001 20.77 62.1301 21.39 61.9001 21.98C61.6701 22.58 61.1601 23.11 60.3901 23.58C60.9001 23.62 61.3401 23.71 61.7201 23.85C62.1001 23.99 62.6601 24.3 63.4101 24.76L65.2901 25.92L63.0301 26.92L60.8501 25.67C60.0701 25.22 59.5501 24.95 59.3001 24.85C59.0401 24.76 58.8001 24.72 58.5701 24.75C58.3401 24.78 58.0101 24.88 57.5801 25.07L57.2001 25.24L58.7701 28.8L56.8801 29.63L53.1201 21.12L57.1001 19.36L57.0901 19.38ZM50.6001 22.5L51.4401 23.83L46.7801 26.78L47.8801 28.52L52.2201 25.78L53.0601 27.11L48.7301 29.85L50.0801 31.99L54.9201 28.93L55.7601 30.26L49.1801 34.42L44.2101 26.56L50.6101 22.51L50.6001 22.5ZM37.0601 32.35L43.4701 35.93L40.9301 29.06L42.6001 27.64L45.8301 37.11L44.1301 38.56L35.3601 33.8L37.0701 32.35H37.0601ZM34.3901 34.96L41.0901 41.42L39.6601 42.91L32.9601 36.45L34.3901 34.97V34.96ZM27.2901 43.22L34.8401 43.73L29.9001 39.88L31.0701 38.38L38.4001 44.11L37.1301 45.74L29.7301 45.27L34.5601 49.04L33.3901 50.54L26.0501 44.82L27.2801 43.24L27.2901 43.22ZM21.3701 52.7L25.8001 55.18C26.5001 55.57 26.9701 55.81 27.2001 55.88C27.5801 55.99 27.9501 55.96 28.3201 55.78C28.6901 55.6 29.0101 55.26 29.2901 54.76C29.5801 54.25 29.7001 53.8 29.6501 53.44C29.6001 53.07 29.4601 52.78 29.2101 52.57C28.9601 52.36 28.5201 52.08 27.8601 51.71L23.3401 49.18L24.3501 47.38L28.6201 49.77C29.6001 50.32 30.2601 50.75 30.6101 51.08C30.9601 51.4 31.2001 51.77 31.3301 52.19C31.4601 52.61 31.4901 53.08 31.4001 53.61C31.3201 54.14 31.0801 54.76 30.6801 55.47C30.2001 56.32 29.7501 56.92 29.3201 57.26C28.8901 57.6 28.4601 57.82 28.0301 57.91C27.6001 58 27.2001 58 26.8501 57.91C26.3201 57.77 25.6001 57.44 24.6901 56.93L20.3501 54.5L21.3601 52.7H21.3701ZM13.5501 77.6L20.3901 74.37L14.2001 73.41L14.4901 71.52L23.6801 72.95L23.3701 74.99L16.6801 78.18L22.7301 79.12L22.4401 81.01L13.2501 79.58L13.5501 77.61V77.6ZM13.1401 82.17L22.4301 82.62L22.3301 84.68L13.0401 84.23L13.1401 82.17ZM13.2401 93L16.8901 92.8L16.6601 88.73L13.0101 88.94L12.8901 86.88L22.1801 86.36L22.3001 88.42L18.2301 88.65L18.4601 92.72L22.5201 92.49L22.6401 94.55L13.3501 95.08L13.2301 93.02L13.2401 93ZM23.2701 103.51C22.6301 104.55 21.5801 105.22 20.1501 105.52C18.6301 105.84 17.3601 105.66 16.3401 104.96C15.3201 104.27 14.6601 103.22 14.3601 101.81C14.1001 100.58 14.2201 99.51 14.7201 98.6C15.0101 98.06 15.5001 97.6 16.1901 97.22L17.0401 99.15C16.5901 99.37 16.2701 99.7 16.0701 100.13C15.8801 100.56 15.8301 101.06 15.9501 101.6C16.1101 102.35 16.4801 102.9 17.0601 103.26C17.6401 103.62 18.4801 103.69 19.5701 103.46C20.7301 103.22 21.5001 102.81 21.9001 102.25C22.2901 101.69 22.4101 101.04 22.2601 100.3C22.1501 99.76 21.8901 99.33 21.5001 99C21.1101 98.68 20.5601 98.5 19.8501 98.47L19.9901 96.39C21.0501 96.48 21.9001 96.83 22.5301 97.43C23.1601 98.03 23.5901 98.87 23.8201 99.95C24.1001 101.29 23.9201 102.47 23.2701 103.51ZM26.1901 64.62L23.9101 64.83L22.6601 68.76L24.4201 70.2L23.7501 72.31L16.0801 65.71L16.7401 63.63L26.8601 62.51L26.1901 64.63V64.62ZM51.0101 142.56C50.9101 142.73 50.8601 142.82 50.6701 142.92C50.2901 143.15 48.5501 142.79 48.4001 142.87C47.5701 142.85 47.2801 142.85 47.1201 143.17C47.2301 143.39 47.1801 143.98 46.7801 143.95C46.4401 143.86 45.6001 143.64 45.0001 143.59C44.8001 143.57 44.6201 143.56 44.5001 143.58C42.5701 145.96 41.0701 147.93 38.9501 150.16C38.9001 150.13 38.5901 150.33 38.5401 150.29C40.0201 148.01 41.4801 145.51 43.0801 143.22C43.1501 142.96 43.0001 142.8 43.0601 142.69C42.9401 142.35 43.4201 141.82 43.7201 141.84C43.7701 141.84 43.9501 141.84 44.0301 141.79C45.0401 140.34 44.9701 140.42 45.3201 139.9C45.0901 139.57 43.6101 139.14 43.8901 138.74C44.0501 138.71 44.5601 138.76 44.8101 138.78C45.1701 138.87 45.4901 138.93 45.8201 139.05C46.4201 138.35 46.8001 137.77 47.1001 136.93C47.2001 136.77 47.7001 136.08 47.5701 135.99C47.5701 135.77 47.4901 135.66 47.5701 135.42C48.2001 135.77 48.6501 136.18 48.6601 136.92C48.6801 136.94 48.6901 137.41 48.5901 137.58C48.1501 138.21 47.7101 138.84 47.2701 139.47C47.4101 139.58 47.5601 139.66 47.6901 139.73C48.2301 139.98 48.7101 140.02 49.2401 140.31C49.2901 140.24 49.5601 140.29 49.6001 140.22C50.9801 140.91 51.2101 142.28 51.0201 142.56H51.0101ZM39.5401 137.68C40.1701 138.09 40.5901 138.44 40.8901 138.91C41.0001 139.11 41.7701 139.93 42.0901 141.15C42.2701 141.6 42.4201 141.83 42.2601 142.28C41.4901 141.85 41.5601 141.6 41.2101 140.73C41.1601 140.37 41.0001 140.01 40.3901 139.26C40.3201 138.89 39.5701 138.13 39.5401 137.68ZM52.6801 153.06C52.6801 152.68 52.3801 152.5 52.4601 152.1C53.4701 150.67 54.9001 147.47 56.2501 145.55C56.3901 145.3 56.5601 145.04 56.7001 145.12C56.7201 145.29 56.8901 145.3 56.5301 146.02C56.5501 146.19 52.9601 152.87 53.2301 153.1C52.9801 153.1 53.0101 153.2 52.6801 153.07V153.06ZM57.6101 154.67C57.5101 154.71 57.4101 154.74 57.3101 154.74C57.0001 154.76 56.6801 154.6 56.3501 154.38C56.0701 154.08 55.1501 152.67 55.2501 152.27C55.2701 152.28 55.2901 152.29 55.3201 152.31C55.5801 153.25 57.1501 153.02 58.5101 152.56C59.5601 152.21 60.4801 151.73 60.5901 151.55C60.5001 151.33 60.5901 151.25 60.3501 151.03C60.2601 151.19 59.7601 151.36 59.0701 151.53C57.4901 151.91 55.0001 152.22 54.8101 152.03C54.1501 151.91 54.2501 151.66 54.7101 151.05C55.9001 150.62 57.8701 150.25 59.0501 149.71C59.1101 149.63 59.3501 149.49 59.1701 149.11C58.6601 149.43 57.1401 149.49 56.6501 149.55C56.1201 149.02 56.5001 148.49 56.7901 147.97C56.9001 147.95 56.7901 147.97 56.9001 147.94C57.2601 148.27 58.5001 148.01 58.7801 147.69C58.5801 147.44 58.1501 146.47 58.3801 146.68C58.7701 146.89 58.7701 146.97 59.2201 147.1C59.3101 147.1 59.3801 147.08 59.3201 146.96C59.0101 146.9 58.7401 146.73 58.7201 146.59C58.8501 146.12 59.1901 146.18 59.5101 146.3C59.8401 146.48 61.0201 147.49 61.1101 147.49C61.1701 147.52 61.2101 147.56 61.2501 147.61C61.3601 147.75 61.4201 147.93 61.4501 148.06C61.3201 148.75 61.0801 148.93 60.5701 148.91C60.7101 149.77 60.6001 150.47 61.1801 151.33C61.5701 151.09 61.9201 151.06 62.0101 150.75C62.4401 151.12 62.5801 151.37 62.6301 151.96C62.2701 152.65 61.4201 152.5 61.2801 152.74C61.0501 153.59 61.1601 154.9 60.9301 155.58C60.7901 155.7 60.6601 155.69 60.5601 155.58C60.3901 154.95 60.4301 153.75 60.5801 153.07C60.1401 153.21 59.5001 153.46 58.6501 153.61C58.6201 153.78 58.6601 153.68 58.6901 153.81C58.9701 154.09 59.1001 154.19 59.1801 154.44C59.1501 154.62 58.9401 154.85 58.8401 154.9C58.6701 155 58.4001 154.8 57.9101 154.63C57.8301 154.64 57.6701 154.65 57.6101 154.67ZM62.5901 146.99C62.6901 146.71 63.1101 146.78 63.2501 146.91C63.7001 147.24 64.1001 147.44 64.3301 148.34C64.2901 148.56 64.2001 148.74 64.0201 148.97C63.8201 149.1 63.0601 148.94 62.9601 148.5C62.8701 148.06 62.5401 147.24 62.5801 146.99H62.5901ZM66.9801 149.72C65.7601 149.94 62.9901 157.51 61.8401 159.12C61.0401 160.3 60.6101 160.42 60.0901 159.79C59.4101 159.06 58.5501 155.79 58.7001 155.19C58.8301 155.26 58.9801 155.87 59.1301 156.07C59.2601 155.84 59.1101 155.8 59.2501 155.71C59.4501 156.21 60.0901 157.61 60.2901 157.85C60.8601 158.16 61.0101 157.39 61.3701 157.03C62.0901 155.47 64.1301 150.59 64.9101 149.24C65.3801 148.26 65.8201 147.43 65.2101 146.85C63.1601 145.81 60.6701 146.54 58.8001 145.49C58.8301 145.46 58.8501 145.43 58.9201 145.41C59.9401 145 64.6601 146.15 64.6701 146.13C66.0801 146.51 67.9201 147.98 66.9701 149.71L66.9801 149.72ZM71.3501 159.82C71.3501 159.82 70.8901 159.97 70.8701 160.1C70.8701 160.1 70.7201 160.27 70.4901 160.31C70.4901 160.31 70.0701 160.49 69.7201 160.36C69.7201 160.36 69.4701 160.19 69.2901 160.17C69.2901 160.17 68.9601 160.03 68.7901 160C68.7901 160 68.5001 159.98 68.9301 159.83C68.9301 159.83 69.0001 159.7 69.2301 159.74C69.2301 159.74 69.3301 159.71 69.4001 159.63C69.4001 159.63 69.3801 159.55 69.5501 159.6C69.5501 159.6 69.7101 159.79 69.8601 159.38C69.8601 159.38 69.8301 159.33 70.0501 159.28C70.0501 159.28 70.8201 158.99 72.4301 157.91C72.4301 157.91 73.8701 157.04 74.8301 156.06C74.8301 156.06 75.5501 155.51 76.3401 154.87C76.3401 154.87 78.7201 152.91 79.1701 152.42C79.1701 152.42 77.4801 151.59 77.6901 150.74C77.6901 150.74 77.7501 150.46 77.9401 150.77C77.9401 150.77 78.7301 151.42 79.9801 151.1C79.9801 151.1 80.6101 151.12 81.3201 150.61C81.3201 150.61 82.1701 150.53 82.4301 152.01C82.4301 152.01 82.5701 152.72 82.0801 152.63C82.0801 152.63 81.6401 152.6 81.1501 152.75C81.1001 152.76 80.8101 152.7 80.6001 152.95C80.6001 152.95 79.4001 154.01 77.1201 155.57C77.1201 155.57 75.8801 156.45 74.1701 157.94C74.1701 157.94 72.9301 159.17 71.3401 159.82H71.3501ZM83.0501 159.89C83.0501 159.89 83.0001 160.08 83.0201 160.24C83.0201 160.24 83.0301 160.63 82.5501 160.56C82.5501 160.56 81.3301 160.89 81.0101 161.21C81.0101 161.21 80.3901 161.86 80.4601 162.26C80.4601 162.26 80.5301 162.76 79.9901 162.86C79.9901 162.86 79.7001 162.96 79.3501 162.81C79.3501 162.81 78.9401 162.54 78.3901 162.94C78.3901 162.94 78.3001 163.12 78.0601 162.82C78.0601 162.82 78.0801 162.73 77.8501 162.65C77.8501 162.65 77.7001 162.53 77.7201 162.33C77.7201 162.33 77.7001 162 77.3501 161.74C77.3501 161.74 77.1901 161.78 77.0901 161.41C77.0901 161.41 76.8501 160.34 76.6701 159.86C76.6701 159.86 76.4901 159.25 76.0401 159.01C76.0401 159.01 75.2101 158.03 75.6301 158.04C75.6301 158.04 76.4301 158 76.9201 159.1C76.9201 159.1 76.8901 159.42 76.9701 159.77C76.9701 159.77 77.0401 160.08 77.5401 161.24C77.5401 161.24 77.5901 161.42 77.7101 161.12L77.9101 160.64C77.9101 160.64 78.1301 160.34 78.3101 160.47C78.3101 160.47 78.3901 160.68 78.5401 160.5C78.5401 160.5 79.1001 160.26 79.4301 159.87C79.4301 159.87 79.8901 159.43 79.7201 159.2C79.7201 159.2 79.1901 158.64 78.9801 158.35C78.9801 158.35 78.5701 158.1 78.8401 158.04C78.8401 158.04 79.0601 158.03 79.5601 158.17C79.5601 158.17 80.6001 158.35 80.9701 158.04C80.9701 158.04 81.1301 157.7 81.3601 157.89C81.3601 157.89 81.8701 158.37 82.1401 158.34C82.1401 158.34 83.2101 158.76 83.0301 159.89H83.0501ZM93.0101 163.1C93.0101 163.1 92.9301 163.39 92.5901 163.28C92.5901 163.28 91.5601 162.64 91.1001 161.35C91.1001 161.35 90.7801 159.58 90.8301 159.41C90.8301 159.41 90.8501 159.38 90.8301 159.17L90.6601 158.07C90.6601 158.07 90.6901 157.98 90.7701 157.84C90.7701 157.84 90.7001 157.58 90.7901 157.56C90.7901 157.56 90.7901 157.52 90.7701 157.42C90.7701 157.42 90.7901 156.96 91.0201 157.2C91.0201 157.2 91.2201 157.37 91.0701 157.63C91.0701 157.63 90.8701 157.98 91.5801 159.22C91.5801 159.22 91.6401 159.44 91.8601 159.53C91.8601 159.53 92.1401 159.67 92.2001 160.15C92.2001 160.15 92.2601 160.48 92.2301 160.59C92.2301 160.59 92.1101 160.84 92.3601 160.75C92.3601 160.75 92.5401 160.71 92.5601 160.9C92.5601 160.9 92.6101 161.53 92.6601 161.69C92.6601 161.69 92.8101 161.86 92.7901 161.97C92.7901 161.97 92.7901 162.09 92.8701 162.13C92.8701 162.13 92.9101 162.14 92.9301 162.26C92.9301 162.26 93.1001 163.07 93.0201 163.11L93.0101 163.1ZM92.5001 155.46C92.5001 155.46 92.2701 155.35 92.1001 155.26C92.1001 155.26 91.9201 155.32 91.6501 155.31C91.6501 155.31 91.3901 155.25 91.5401 155.04C91.5401 155.04 91.9301 154.18 91.7701 153.43C91.7701 153.43 91.6301 153.33 91.8301 153.14C91.8301 153.14 91.9601 152.89 92.1301 153.19C92.1301 153.19 92.9901 154.47 93.0401 155.09C93.0401 155.09 93.0901 155.61 92.5001 155.45V155.46ZM102.96 156.3C102.96 156.3 102.72 156.86 102.31 157.11C102.31 157.11 102.12 157.24 102.07 157.65C102.07 157.65 101.61 158.7 101.24 158.88C101.24 158.88 100.73 159.19 100.91 159.7C100.91 159.7 101.53 160.19 101.42 160.92C101.42 160.92 101.49 161.14 101.25 161.16C101.25 161.16 101.11 161.23 100.91 161.28C100.83 161.31 100.73 161.33 100.63 161.35C100.63 161.35 100.06 161.54 99.5901 161.56C99.5901 161.56 99.1901 161.6 98.8101 161.54C98.8101 161.54 98.7201 161.49 98.6001 161.59C98.6001 161.59 97.8101 162.46 96.9301 161.77C96.9301 161.77 96.7601 161.64 96.5701 161.5C96.3801 161.36 96.1601 161.23 96.0401 161.23C96.0401 161.23 94.9901 160.56 94.5301 160.29C94.5301 160.29 93.9401 159.76 93.8401 159.37C93.8401 159.37 93.7001 158.93 93.3901 158.94C93.3901 158.94 93.1401 158.86 93.0901 158.64V158.6C93.0901 158.6 93.0901 158.51 93.0901 158.46C93.0901 158.46 93.0201 158.24 93.4101 157.68C93.4101 157.68 93.7301 157.29 94.0401 157.05C94.0401 157.05 94.7601 156.35 95.2401 156.09C95.2401 156.09 95.4401 155.9 95.6501 155.69C95.8201 155.52 95.9901 155.35 96.0701 155.26C96.0701 155.26 96.3701 154.91 96.7801 154.8C96.7801 154.8 97.3501 154.59 97.3701 154.38C97.3701 154.38 97.3101 153.81 97.3101 153.68L96.8901 151.02C96.8901 151.02 96.8401 150.74 97.1301 150.9C97.1301 150.9 97.2801 151.01 97.5401 150.92C97.5401 150.92 97.8201 150.87 98.0101 151.5C98.0101 151.5 98.3501 152.24 98.4601 153C98.4601 153 98.6101 153.94 98.6001 154.1C98.6001 154.1 98.5701 154.42 98.8801 154.41C98.8801 154.41 99.3101 154.44 99.8301 154.48C100.48 154.53 101.29 154.59 101.62 154.63C101.62 154.63 102.39 154.7 103.02 155.63C103.02 155.63 103.26 155.7 102.95 156.3H102.96ZM114.5 151.02C114.5 151.02 114.28 151.04 114.28 151.34C114.28 151.34 114.1 151.98 114.18 152.26C114.18 152.26 114.24 152.69 114 153.13C114 153.13 113.38 153.96 113.92 154.98C113.92 154.98 114.49 155.44 113.93 155.93C113.93 155.93 113.71 156.04 113.55 156.56C113.55 156.56 113.44 156.87 113.52 156.95C113.52 156.95 113.39 157.33 113.43 157.43C113.43 157.43 113.33 157.83 112.86 158.06C112.86 158.06 112.4 158.31 112.33 158.61C112.33 158.61 112.12 158.9 111.98 158.95C111.98 158.95 111.85 158.93 111.84 159.13C111.84 159.13 111.69 159.5 111.2 159.68C111.2 159.68 111.15 158.48 111.16 158.04C111.16 158.04 111.1 157.41 111.24 157.07C111.24 157.07 111.15 156.6 111.46 156.62C111.46 156.62 111.62 156.74 111.64 156.5C111.64 156.5 111.83 155.85 111.83 155.77C111.83 155.77 111.63 155.58 111.56 155.59C111.56 155.59 111.38 155.42 111.41 155.18C111.41 155.18 111.43 155.08 111.19 154.99C111.19 154.99 110.76 154.76 110.78 154.97C110.78 154.97 110.74 155.03 110.49 154.98C110.49 154.98 108.77 154.62 109.54 154.29C109.54 154.29 110.43 154.26 111.02 153.41C111.02 153.41 111.22 153.28 111.33 151.99C111.33 151.99 111.36 151.81 111.2 151.77C111.2 151.77 111.05 151.6 111.13 151.46C111.13 151.46 111.13 151.34 111 151.11C111 151.11 110.9 151 110.96 150.86C110.96 150.86 110.96 150.62 110.83 150.52C110.83 150.52 110.73 150.37 110.79 150.26C110.79 150.26 110.79 150.19 110.68 150C110.68 150 110.58 149.9 110.76 149.82C110.76 149.82 110.99 149.86 110.76 149.55C110.76 149.55 110.62 149.37 110.47 149.24L110.2 149.07L109.63 147.7C109.63 147.7 109.01 147.24 109.77 147.41C109.77 147.41 110.34 147.22 110.74 147.38C110.74 147.38 111.44 147.4 111.69 147.42C111.69 147.42 111.86 147.31 112.19 147.87C112.19 147.87 112.37 148.54 112.5 148.55C112.5 148.55 113.27 148.73 113.46 148.83C113.46 148.83 113.56 148.85 113.6 148.73C113.6 148.73 113.97 148.66 114.18 149.08C114.18 149.08 114.16 149.32 114.36 149.25C114.36 149.25 114.75 149.26 114.74 149.72C114.74 149.72 115.06 150.54 114.52 151.05L114.5 151.02ZM119.41 155.54C119.41 155.54 119.27 156.13 118.75 156.21C118.75 156.21 118.34 156.33 118.1 156.38C118.1 156.38 117.73 156.38 117.58 156.27C117.58 156.27 117.43 156.18 117.32 156.31C117.32 156.31 117.2 156.31 116.9 155.99C116.9 155.99 116.65 155.88 116.67 155.49C116.67 155.49 116.63 155.01 116.35 154.53C116.35 154.53 116.09 153.76 116.52 153.88C116.52 153.88 116.85 153.88 117.09 153.77C117.09 153.77 117.68 153.8 118.31 154.06C118.31 154.06 118.92 154.34 119.14 154.35C119.14 154.35 119.51 154.44 119.45 154.96C119.45 154.96 119.4 155.15 119.49 155.26C119.49 155.26 119.51 155.42 119.42 155.54H119.41ZM125.84 144.51C125.84 144.51 125.39 144.38 125.16 144.29C125.16 144.29 124.92 144.03 124.82 144.5C124.82 144.5 123.83 145.32 123.88 146.29C123.88 146.29 123.76 146.5 123.92 146.74C123.92 146.74 123.92 147.18 123.84 147.35C123.84 147.35 123.87 147.93 123.66 148.02C123.66 148.02 123.37 148.07 123.25 148.21C123.25 148.21 123.17 148.25 122.99 148.21C122.99 148.21 122.25 148.24 122.35 147.72C122.35 147.72 122.43 147.09 122.29 146.59C122.29 146.59 122.08 146.11 122.52 145.93C122.52 145.93 122.93 145.73 123.12 145.76C123.12 145.76 123.29 145.79 123.36 145.57C123.36 145.57 124.35 144.53 124.66 143.88C124.66 143.88 124.78 143.85 124.52 143.5C124.52 143.5 123.51 142.47 122.72 142.22C122.72 142.22 121.81 141.82 121.33 141.89C121.33 141.89 119.82 141.79 120.89 141.49C120.89 141.49 121.88 141.13 123.35 142.21C123.35 142.21 124.45 142.88 124.77 143.42C124.77 143.42 124.89 143.65 125.06 143.4C125.06 143.4 125.55 143.01 125.26 142.68C125.26 142.68 124.68 141.55 122.69 140.32C122.69 140.32 122.01 139.87 121.59 139.99C121.59 139.99 121.26 139.89 121.63 139.84C121.63 139.84 122.57 139.4 123.69 140.36C123.69 140.36 124.67 141.15 125.27 141.82C125.27 141.82 125.58 142.08 125.38 141.74C125.38 141.74 125.3 141.46 125.45 141.3C125.45 141.3 125.49 141.16 125.32 141.14C125.32 141.14 125.21 140.86 125.27 140.78C125.27 140.78 125.37 140.62 125.09 140.64C125.09 140.64 124.94 140.51 124.74 140.56C124.74 140.56 123.86 140.47 124.5 140.38C124.5 140.38 124.74 140.35 124.96 140.37C124.96 140.37 125.19 140.37 125.01 140.09C125.01 140.09 124.71 139.37 124.69 139.18C124.69 139.18 124.53 138.84 124.43 139.24C124.43 139.24 124.3 139.58 123.82 139.31C123.82 139.31 122.82 139.2 122.89 138.68C122.89 138.68 122.98 138.03 122.48 137.93C122.48 137.93 121.92 137.81 122.54 137.64C122.54 137.64 123.06 137.52 123.71 137.69C123.71 137.69 123.79 137.87 124.18 137.65C124.18 137.65 125.72 136.99 125.98 137.94C125.98 137.94 125.84 138.8 126.09 139.21C126.09 139.21 126.2 139.66 126.11 139.83C126.11 139.83 126.05 139.94 126.33 140.25C126.33 140.25 126.44 140.38 126.33 140.55C126.33 140.55 126.33 140.89 126.37 141.22C126.37 141.22 126.16 141.77 126.44 141.42C126.44 141.42 127.37 140.1 127.83 139.55C127.83 139.55 128.04 139.15 127.61 139.18C127.61 139.18 126.96 139.04 126.7 138.78C126.7 138.78 126.24 138.6 126.6 138.56C126.6 138.56 127.04 138.62 126.95 138.43C126.95 138.43 126.83 138.36 127.09 138.27C127.09 138.27 127.45 138.26 127.34 138C127.34 138 127.15 137.38 126.95 137.62C126.95 137.62 126.34 137.63 126.04 137.21C126.04 137.21 125.73 137.07 125.85 136.94C125.85 136.94 125.79 136.74 126.05 136.83C126.05 136.83 126.8 137.16 126.55 136.75L126.19 136.25C126.19 136.25 126.04 135.96 125.59 136.27C125.59 136.27 124.54 136.47 124.94 136.08C124.94 136.08 125.27 135.93 125.11 135.72C125.11 135.72 124.99 135.66 125.41 135.36C125.41 135.36 125.49 135.29 125.41 135.13C125.41 135.13 125.45 134.99 125.86 134.91C125.86 134.91 127.31 134.3 127.57 135.14C127.57 135.14 127.68 135.47 127.53 135.68C127.53 135.68 127.46 135.69 127.65 136.44C127.65 136.44 127.59 136.82 127.84 137.03C127.84 137.03 128.17 137.46 128.2 137.8C128.2 137.8 128.59 138.26 128.6 138.44C128.6 138.44 128.68 138.74 128.86 138.59C128.86 138.59 130.29 136.89 131.38 137.31C131.38 137.31 131.85 137.25 131.21 138.19C131.21 138.19 131.02 138.52 130.83 138.56L129.64 139.03C129.64 139.03 129.28 139.2 129.64 138.88C129.64 138.88 130.22 138.38 130.21 138.17C130.21 138.17 130.33 137.8 130.06 138.11C130.06 138.11 129.45 138.74 129.21 138.84C129.21 138.84 128.78 139.11 128.96 139.44C128.96 139.44 129.05 139.53 129 139.64C129 139.64 128.96 139.67 129.06 139.81C129.06 139.81 129.44 140.39 128.78 140.44C128.78 140.44 128.29 140.5 128.1 140.18C128.1 140.18 127.98 139.78 127.77 140.22C127.77 140.22 127.18 141.2 126.84 141.54C126.84 141.54 125.93 142.48 126.12 142.71C126.12 142.71 126.56 142.91 126.32 143.07C126.32 143.07 126.12 143.08 125.86 143.01C125.86 143.01 125.69 142.92 125.59 143.26C125.59 143.26 125.05 143.84 125.49 143.99C125.49 143.99 125.62 144.05 125.69 144.22C125.69 144.22 126.08 144.25 125.83 144.43L125.84 144.51ZM132.86 148.67C132.86 148.67 132.76 148.83 132.73 149.25C132.73 149.25 132.73 149.39 132.59 149.5L130.89 150.72C130.89 150.72 130.7 150.67 130.52 150.9C130.52 150.9 130.39 150.9 130.37 150.85C130.37 150.85 130.33 150.75 130.21 150.93C130.21 150.93 130.01 150.82 129.88 150.99L128.87 151.21C128.87 151.21 128.44 151.25 128.95 151C128.95 151 130.27 150.66 129.62 150.58C129.62 150.58 129.22 150.51 129.56 150.36C129.56 150.36 130.84 149.57 131.23 148.57C131.23 148.57 132.41 146.71 130.87 145.58C130.87 145.58 130.15 145.63 129.52 146.45C129.52 146.45 129.13 147.44 128.72 147.49C128.72 147.49 127.74 147.45 127.27 147.04C127.27 147.04 126.77 146.88 127.16 146.79C127.16 146.79 127.42 146.89 127.78 146.52C127.78 146.52 128.25 146.26 128.22 146.02C128.22 146.02 128.59 145.62 129.08 145.25C129.08 145.25 129.58 144.77 129.66 144.55C129.66 144.55 129.7 144.18 129.38 144.36C129.38 144.36 128.68 145.11 128.01 143.69C128.01 143.69 128.01 142.31 127.74 142.8C127.74 142.8 127.46 143.69 126.81 143.89C126.81 143.89 126.49 144.07 126.14 143.96C126.14 143.96 125.65 143.7 126.14 143.69C126.14 143.69 126.59 143.58 127.03 142.8C127.03 142.8 127.46 142.28 127.39 142C127.39 142 127.29 141.74 127.81 141.54C127.81 141.54 128.9 140.72 129.48 141.23C129.48 141.23 129.79 141.51 129.51 142.08C129.51 142.08 129.35 142.56 129.82 143.01C129.82 143.01 130.63 143.48 130.78 143.16C130.78 143.16 131.71 142.43 132.01 142.66C132.01 142.66 132.8 142.74 132.65 143.21C132.65 143.21 132.5 143.48 132.45 143.72C132.45 143.72 132.4 143.82 132.12 143.99C132.12 143.99 131.57 144.33 131.98 144.83L132.88 146.06C132.88 146.06 133.28 147.26 133.06 148.09C133.08 148.15 132.93 148.53 132.83 148.66L132.86 148.67ZM86.9601 147.1C53.7801 147.1 26.9001 120.21 26.9001 87.04C26.9001 53.87 53.7801 26.99 86.9601 26.99C120.14 26.99 147.01 53.89 147.01 87.04C147.01 120.19 120.12 147.1 86.9601 147.1ZM145.95 62.38C145.37 60.97 145.3 59.69 145.74 58.53C146.18 57.38 147.09 56.51 148.47 55.95C149.35 55.59 150.15 55.43 150.87 55.47C151.4 55.5 151.92 55.64 152.42 55.86C152.93 56.09 153.35 56.39 153.71 56.76C154.18 57.26 154.58 57.89 154.89 58.66C155.46 60.06 155.53 61.34 155.09 62.5C154.65 63.66 153.73 64.53 152.32 65.12C150.93 65.69 149.66 65.73 148.53 65.22C147.4 64.71 146.55 63.76 145.97 62.37L145.95 62.38ZM157.21 65.83L157.71 67.83L150.28 69.68L151.52 74.68L149.99 75.06L148.25 68.05L157.21 65.82V65.83ZM159.15 99.79L152.56 100.31L158.42 103.36L157.8 106.41L148.68 104.55L149.06 102.68L156.24 104.13L149.47 100.68L149.87 98.72L157.45 98.23L150.28 96.75L150.66 94.88L159.78 96.74L159.16 99.79H159.15ZM152.59 90.63C152.8 90.94 153.06 91.13 153.38 91.2C153.7 91.27 154.23 91.32 154.97 91.35L160.15 91.54L160.08 93.6L155.19 93.43C154.07 93.39 153.28 93.3 152.83 93.18C152.37 93.05 151.99 92.83 151.68 92.52C151.37 92.21 151.13 91.8 150.96 91.29C150.79 90.78 150.72 90.12 150.75 89.31C150.78 88.33 150.91 87.59 151.14 87.1C151.36 86.6 151.65 86.21 151.98 85.93C152.32 85.65 152.67 85.47 153.03 85.39C153.57 85.27 154.36 85.23 155.4 85.27L160.37 85.45L160.29 87.51L155.22 87.33C154.42 87.3 153.89 87.31 153.65 87.35C153.26 87.42 152.95 87.62 152.7 87.95C152.46 88.27 152.32 88.73 152.3 89.31C152.28 89.9 152.37 90.35 152.58 90.65L152.59 90.63Z" fill="#003678"/>
<path d="M127.04 30.2099C127.32 30.2899 127.58 30.2799 127.83 30.1999C128.08 30.1199 128.28 29.9599 128.43 29.7299C128.62 29.4499 128.69 29.1599 128.64 28.8499C128.58 28.5499 128.44 28.2799 128.19 28.0399C128.01 27.8599 127.62 27.5699 127.01 27.1399L126.19 26.5699L124.68 28.7499L125.61 29.3899C126.28 29.8499 126.75 30.1199 127.04 30.1999V30.2099Z" fill="#003678"/>
<path d="M99.16 155.31C99.27 155.5 99.55 155.9 99.55 155.9C99.66 156.2 99.8 156.28 99.8 156.28C100.03 156.47 99.82 156.82 99.82 156.82C99.7 156.92 99.62 157.12 99.62 157.12C99.51 157.66 98.99 158.14 98.99 158.14C98.59 158.53 99.03 159.3 99.03 159.3C99.25 159.83 99.96 158.72 99.96 158.72C100.07 158.54 100.23 158.47 100.23 158.47C100.29 158.38 100.35 158.27 100.44 158.14C100.73 157.7 101.14 157.12 101.14 157.12C101.22 156.84 101.7 155.93 101.7 155.93C101.84 155.84 101.68 155.5 101.68 155.5C101.62 155.26 100.75 154.91 100.75 154.91C100.6 154.86 100.23 154.82 99.91 154.81C99.58 154.79 99.3 154.79 99.3 154.79C98.76 154.85 99.17 155.29 99.17 155.29L99.16 155.31Z" fill="#003678"/>
<path d="M151.53 63.1299C152.52 62.7199 153.17 62.1799 153.46 61.4999C153.75 60.8199 153.74 60.0899 153.41 59.2999C153.08 58.5099 152.57 57.9799 151.88 57.6999C151.19 57.4199 150.34 57.4899 149.34 57.8999C148.36 58.2999 147.71 58.8599 147.41 59.5699C147.11 60.2699 147.11 61.0099 147.42 61.7699C147.74 62.5299 148.25 63.0499 148.95 63.3299C149.65 63.6099 150.51 63.5399 151.52 63.1299H151.53Z" fill="#003678"/>
<path d="M331.28 50.16C326.45 54.05 332.68 93.9 331.54 103.76C330.87 110.88 329.31 112.4 325.52 110.92C320.77 109.36 309.1 97.1601 308.28 94.1501C309.02 94.1501 311.17 96.4101 312.32 96.9701C312.32 95.6701 311.54 95.8201 311.95 95.1101C314.03 96.8201 320.21 101.38 321.7 101.94C324.94 101.9 323.74 98.19 324.45 95.75C323.82 87.18 320.93 60.92 321.08 53.09C320.74 47.67 320.67 42.99 316.62 41.89C305.11 42.29 296.01 51.53 285.28 51.45C285.32 51.23 285.36 51.08 285.62 50.81C289.07 46.55 312.55 40.17 312.55 40.07C319.64 38.32 331.29 40.29 331.29 50.16H331.28Z" fill="#EB1922"/>
<path d="M308.16 46.8501C310.91 47.1901 313.16 47.1101 316.36 50.4801C316.74 51.5301 316.78 52.5201 316.52 53.9701C315.96 55.0101 312.25 56.1601 310.77 54.4801C309.32 52.7801 305.91 50.0001 305.46 48.8101C305.2 47.3601 307.21 46.6601 308.17 46.8501H308.16Z" fill="#EB1922"/>
<path d="M275.11 54.91C275.6 55.61 276.37 55.24 276.55 59.25C277.04 59.95 277.48 97.87 279.23 98.2C278.11 98.82 278.49 99.16 276.77 99.39C275.8 97.76 274.11 97.68 273.44 95.72C274.4 87.03 272.92 69.56 274.18 57.88C274.18 56.47 274.3 54.91 275.11 54.91Z" fill="#EB1922"/>
<path d="M226.19 74.2799C221.75 74.6999 221.29 73.4699 217.35 70.8699C216.08 69.5299 214.4 68.4999 209.69 67.1199C208.32 65.7899 203.03 64.7899 201.61 63.0299C205.44 62.9099 208.2 63.1499 210.76 64.2599C211.8 64.7599 217.39 65.9799 222.21 70.0799C224.27 71.4199 225.57 71.9499 226.19 74.2899V74.2799Z" fill="#EB1922"/>
<path d="M241.35 47.9699C244.32 47.4899 246.47 46.2299 249.48 45.8899C249.48 45.4799 250.74 44.8499 250.74 44.4799C258.49 43.3699 263.38 48.3799 263.42 50.1199C263.5 51.1199 263.54 51.6399 263.06 52.5699C262.13 54.6099 253.86 58.1699 253.45 58.9199C249.93 61.2199 248.74 62.1099 248.97 63.8899C250.08 64.4399 251.59 67.0799 249.82 68.1199C248.1 68.7199 244.02 70.2599 241.35 71.7499V56.1399L244.39 52.4999L241.35 52.9799V47.9799V47.9699ZM228.38 30.3899C232.01 30.0199 235.05 30.4199 237.23 33.4699C237.38 33.4699 238.75 35.4299 238.87 36.4299V48.1199C239.76 48.1599 240.61 48.0799 241.35 47.9699V52.9699L238.87 53.3799L238.31 59.7599L241.35 56.1199V71.7299C240.47 72.2099 239.68 72.6899 239.24 73.1399C238.13 88.6499 237.57 101.19 235.23 116.58C234.94 116.58 234.2 118.33 233.89 118.33C233.44 104.56 232.29 89.9399 232.29 75.7799C231.81 74.5199 230.73 74.2599 230.65 73.6699C229.17 72.5899 229.66 68.9899 230.94 68.2099C231.16 68.0999 231.91 67.5499 232.1 67.0999C232.1 58.1599 232 58.6799 232 55.5299C230.1 54.8199 222.69 57.3499 222.69 54.8599C223.24 54.2699 225.54 53.0099 226.62 52.3399C228.37 51.6699 229.87 50.9999 231.59 50.5499C232.06 45.9199 231.96 42.3899 230.77 38.0199C230.7 37.0599 230.81 32.7599 229.99 32.7599C229.36 31.8299 228.7 31.6099 228.37 30.3899H228.38Z" fill="#EB1922"/>
<path d="M309.76 71.1499C310.87 69.1499 312.36 68.1899 311.98 66.5899C314.77 67.1399 315.99 67.9199 317.62 70.4099C317.73 74.2999 313.61 75.7199 313.61 77.0899C314.68 81.3899 318.31 86.8399 318.94 90.3999C318.64 91.2499 318.02 91.5199 317.34 91.3299C315.08 88.9799 312.38 83.6399 311.34 80.2599C309.74 81.9399 307.56 84.5999 304.21 87.2799C304.47 88.0899 304.44 87.5699 304.89 88.0599C306.81 88.6199 307.59 88.7299 308.56 89.6199C308.86 90.4699 308.49 91.9899 308.2 92.4699C307.67 93.3199 306.04 93.0999 303.46 93.5499C303.14 93.8099 302.45 94.2199 302.22 94.4699C301.9 94.8799 301.52 95.2499 301.07 95.5099V83.0799C304.82 78.9999 307.72 74.6599 307.75 73.6199C306.82 72.8399 306.97 72.3299 305.45 71.9099C305.45 72.7999 303.67 74.7999 301.08 77.1699V73.4699C301.41 72.9499 301.57 72.4999 301.53 72.2099C301.38 72.1399 301.24 72.0599 301.08 71.9899V68.1299C301.86 68.7999 302.16 69.1799 302.23 69.5099C304.08 70.4999 302.97 69.9899 304.23 71.5099C304.94 71.5099 304.64 70.9899 304.64 70.3099C303.75 69.1699 302.49 67.3099 301.08 65.6699V54.6999C301.9 55.0299 302.56 55.6999 303.04 56.1799C304.15 59.5199 303.52 60.8599 301.23 62.0399C303.93 65.4799 305.16 68.7899 309.76 71.1299V71.1499ZM301.08 95.5199C299.79 96.3399 297.99 96.4499 296.01 96.2699C294.04 95.6299 286.62 91.6699 286.1 89.6999H286.51C289.96 93.1899 296.26 88.3999 301.08 83.0899V95.5199ZM301.08 77.1899V73.4899C299.79 75.5699 295.85 78.9699 292.55 81.0199C291.59 81.6099 289.92 83.6399 288.91 83.6399C290.66 80.4899 297.41 75.7899 299.83 71.2099C300.22 71.4099 300.67 71.7399 301.09 71.9999V68.1399C300.38 67.5099 299.25 66.5399 297.5 65.0299C298.01 64.8799 299.02 64.0999 299.57 63.9499C300.09 64.4799 300.61 65.0699 301.1 65.6899V54.7199C300.81 54.5999 300.51 54.5299 300.18 54.5299C299.81 54.7199 292.19 53.1899 290.32 53.1899C288.6 53.4099 287.02 53.9699 287.57 56.3499C288.05 56.9299 289.64 57.0199 291.13 56.5299C291.66 56.8999 291.43 57.1599 291.03 57.3799C288.77 57.8999 288.57 57.5699 286.35 57.5699C284.83 57.2399 289.06 60.4299 290.54 61.0599C290.05 63.1399 285.26 67.2899 282.9 66.7099C282.53 67.1499 282.93 66.7799 282.49 67.1099C282.49 70.1099 282.11 73.3399 285.72 74.3799C287.72 72.9699 294.22 68.9999 295.67 66.3699C297.41 67.6299 296.7 68.7799 296.62 69.2999C292.74 74.5299 285.02 80.9199 280.86 85.6599C280.35 89.4399 280.49 90.7799 283.68 89.6999C284.98 90.0699 295.14 82.6899 301.12 77.1899H301.08Z" fill="#EB1922"/>
<path d="M565.2 48.86C565.2 48.86 559.44 44.11 564.56 46C564.56 46 569.57 47.42 572.36 55.94C572.36 55.94 574.84 61.77 574.58 64.89C574.58 64.89 574.4 66.15 575.81 65.63C575.81 65.63 578.93 65.49 578.71 63.33C578.71 63.33 579.63 57.1 575.18 46.49C575.18 46.49 573.74 42.71 571.7 42.01C571.7 42.01 570.7 40.67 572.33 41.52C572.33 41.52 577.37 42.45 579.08 49.54C579.08 49.54 580.78 55.52 581.22 59.93C581.22 59.93 581.7 61.85 581.86 59.93C581.86 59.93 582.33 58.59 583.41 58.37C583.41 58.37 583.97 57.89 583.34 57.37C583.34 57.37 583.7 55.95 584.19 55.81C584.19 55.81 585.03 55.44 583.86 54.74C583.86 54.74 583.63 53.81 582.71 53.4C582.71 53.4 579.44 50.54 582.26 51.99C582.26 51.99 583.34 52.55 584.11 53.25C584.11 53.25 585.04 53.88 585.12 52.25C585.12 52.25 585.97 48.51 586.42 47.69C586.42 47.69 586.75 45.87 585.19 47.21C585.19 47.21 583.7 48.21 582.56 45.72C582.56 45.72 578.85 42.38 580.63 40.53C580.63 40.53 582.86 38.16 581.14 36.34C581.14 36.34 579.22 34.26 582.19 35.35C582.19 35.35 584.64 36.34 586.75 38.9C586.75 38.9 586.53 39.83 588.76 40.09C588.76 40.09 596.87 41.86 595.17 46.43C595.17 46.43 592.17 49.47 591.94 51.84C591.94 51.84 591.09 53.95 590.25 54.41C590.25 54.41 589.68 54.66 589.91 56.74C589.91 56.74 589.98 57.59 589.05 57.96C589.05 57.96 588.05 59.3 587.28 60.78C587.28 60.78 584.83 62.38 586.99 61.78C586.99 61.78 594.52 59.14 597.93 58.29C597.93 58.29 599.92 57.29 598.08 56.18C598.08 56.18 595.89 53.73 595.59 51.98C595.59 51.98 594.26 49.91 595.82 50.82C595.82 50.82 597.45 52.32 597.59 51.31C597.59 51.31 597.3 50.68 598.6 51.1C598.6 51.1 600.1 52.1 600.38 50.76C600.38 50.76 601.42 47.75 599.93 48.12C599.93 48.12 597.45 46.42 597.45 43.86C597.45 43.86 596.6 42.41 597.45 42.23C597.45 42.23 597.76 41.22 598.53 42.37C598.53 42.37 600.57 45.86 600.79 43.49V40.45C600.79 40.45 601.02 38.89 598.31 38.82C598.31 38.82 593.52 36.6 596.23 36.18C596.23 36.18 598.01 36.51 597.93 35.24C597.93 35.24 597.59 34.66 600.15 34.66C600.15 34.66 600.71 34.62 600.86 33.77C600.86 33.77 601.42 33.33 603.28 34.18C603.28 34.18 610.85 35.88 609.48 40C609.48 40 608.99 41.63 607.77 42.08C607.77 42.08 607.47 41.93 606.06 45.49C606.06 45.49 604.73 46.83 605.12 48.42C605.12 48.42 605.2 51.1 604.34 52.54C604.34 52.54 604.57 55.52 604.12 56.25C604.12 56.25 603.56 57.67 604.72 57.58C604.72 57.58 615.36 54.87 618.51 59.66C618.51 59.66 620.55 60.77 615.28 62.71C615.28 62.71 613.56 63.49 612.68 63.08L606.57 61.52C606.57 61.52 604.64 61.15 607.05 60.93C607.05 60.93 610.84 60.59 611.39 59.74C611.39 59.74 612.95 58.59 610.95 59.07C610.95 59.07 606.68 59.85 605.44 59.52C605.44 59.52 602.94 59.37 602.72 61.23C602.72 61.23 602.8 61.85 602.27 62.15C602.27 62.15 602.01 62.15 602.01 63C602.01 63 601.87 66.41 599.08 64.71C599.08 64.71 596.97 63.56 597.08 61.71C597.08 61.71 597.76 59.78 595.68 60.93C595.68 60.93 590.48 63.15 588.14 63.57C588.14 63.57 581.8 64.72 581.87 66.2C581.87 66.2 583.05 68.28 581.64 68.21C581.64 68.21 580.79 67.69 579.93 66.65C579.93 66.65 579.53 65.8 578.15 66.91C578.15 66.91 574.33 67.69 575.66 69.55C575.66 69.55 576.03 70.14 575.81 71.07C575.81 71.07 577.3 72.33 575.74 72.33C575.74 72.33 574.33 70.54 573.66 69.47C573.66 69.47 573.44 67.76 571.69 69.32C571.69 69.32 565.35 69.77 562.78 73.81C562.78 73.81 561.71 74.33 561.63 75.75C561.63 75.75 560.4 77.53 559.55 77.97C559.55 77.97 558 80.39 556.92 80.16C556.92 80.16 555.59 79.53 554.74 79.75C554.74 79.75 554.3 79.68 553.66 79C553.66 79 550.62 76.97 552.52 75.18C552.52 75.18 554.66 72.89 555.52 70.47C555.52 70.47 556.08 67.91 558.38 68.47C558.38 68.47 560.64 68.84 561.27 69.55C561.27 69.55 561.86 70.14 562.79 69.47C562.79 69.47 569.77 68.13 572.89 66.43C572.89 66.43 573.44 66.65 573.4 64.5C573.4 64.5 572.33 57.44 569.84 54.18C569.84 54.18 567.31 49.96 565.21 48.88L565.2 48.86Z" fill="#EB1922"/>
<path d="M579.3 69.9599C579.3 69.9599 581.41 70.8099 585.41 68.9599C585.41 68.9599 588.61 68.1099 589.16 66.7999C589.16 66.7999 589.53 65.4699 592.17 66.1699C592.17 66.1699 598.92 66.0299 599.76 69.7299C599.76 69.7299 600.22 71.7299 597.43 73.2199C597.43 73.2199 595.44 74.6999 596.03 77.8499C596.03 77.8499 597.92 82.0399 599.44 81.1799C599.44 81.1799 605.27 80.8899 605.82 82.7399C605.82 82.7399 608.76 85.2999 606.82 86.7899C606.82 86.7899 605.42 87.4499 604.56 88.2299C604.56 88.2299 604.11 88.4899 602.47 88.3699C602.47 88.3699 599.29 88.1499 599.51 91.3399L599.58 98.8699C599.58 98.8699 597.74 104.84 594.5 107.54C594.42 107.84 592.72 108.93 591.93 109.14C591.93 109.14 591.08 109.48 589.75 111.11C589.75 111.11 589.3 111.63 588.45 111.71H578.13C578.13 111.71 577.51 110.96 576.12 111.33C576.12 111.33 575.64 110.95 575.64 110.7C575.64 110.7 575.79 110.18 574.79 110.55C574.79 110.55 574.3 109.54 573.3 109.84L568.6 107.84C568.6 107.84 566.74 106.77 569.53 107.21C569.53 107.21 575.8 109.62 573.43 107.47C573.43 107.47 572.03 106.06 573.8 106.43C573.8 106.43 581.21 106.91 585.63 104.05C585.63 104.05 595.72 100.01 592.78 91.0399C592.78 91.0399 589.74 89.1499 584.89 90.6299C584.89 90.6299 580.48 93.4899 578.7 92.4799C578.7 92.4799 574.88 89.4799 574.17 86.5099C574.17 86.5099 572.65 84.4299 574.43 85.1999C574.43 85.1999 575.16 86.3599 577.72 85.9199C577.72 85.9199 580.36 86.2099 580.92 85.1999C580.92 85.1999 583.56 84.6599 586.58 84.5699C586.58 84.5699 589.96 84.0599 590.93 83.4299C590.93 83.4299 592.15 82.0899 590.37 81.8699C590.37 81.8699 585.4 82.8799 586.81 75.2699C586.81 75.2699 590.75 69.6999 588.25 70.9299C588.25 70.9299 584.55 73.6699 581.39 72.6299C581.39 72.6299 579.61 72.4099 578.5 70.9999C578.5 70.9999 577.28 68.5499 579.28 69.9199L579.3 69.9599Z" fill="#EB1922"/>
<path d="M514.05 43.9201C514.05 43.9201 512.15 40.6601 515.23 42.8801C515.23 42.8801 518.2 43.1401 519.68 44.6201C519.68 44.6201 522.8 46.0701 523.91 46.6201C523.91 46.6201 524.88 46.4701 525.25 49.6201C525.25 49.6201 524.77 53.0001 525.37 53.2901C525.37 53.2901 528.52 55.5901 529.15 56.4101C529.15 56.4101 529.56 56.7101 529.97 56.2301C529.97 56.2301 531.78 56.6401 531.93 58.9301C531.93 58.9301 531.37 59.9701 532.42 60.0501C532.42 60.0501 534.16 60.8701 533.22 62.9001C533.22 62.9001 533.05 67.2101 529.63 68.5101C529.63 68.5101 528.6 68.1701 528.04 69.5101C528.04 69.5101 526 72.0601 525.81 73.4801C525.81 73.4801 525.26 75.5601 523.29 77.0801C523.29 77.0801 518.84 79.6401 519.32 85.2801C519.32 85.2801 521 88.4701 517.54 89.5801C517.54 89.5801 516.35 89.6501 514.62 91.7001C514.62 91.7001 513.51 92.8901 513.72 93.3701C513.72 93.3701 512.38 94.8201 512.38 95.3701C512.38 95.3701 511.12 96.9701 508.56 97.1201C508.56 97.1201 505.97 97.3801 505.07 98.5601C505.07 98.5601 503.55 99.4801 502.84 99.4101C502.84 99.4101 502.28 99.0401 501.87 99.9701C501.87 99.9701 500.47 101.35 497.91 101.2C497.91 101.2 499.99 95.6701 500.91 93.7201C500.91 93.7201 501.87 90.7901 503.14 89.4801C503.14 89.4801 503.62 87.1801 504.98 87.8801C504.98 87.8801 505.47 88.7101 506.02 87.6701C506.02 87.6701 508.14 85.1001 508.32 84.7401C508.32 84.7401 507.77 83.4801 507.43 83.3601C507.43 83.3601 506.95 82.2501 507.58 81.2101C507.58 81.2101 507.84 80.7701 506.95 79.9601C506.95 79.9601 505.47 78.0701 505.14 79.0601C505.14 79.0601 504.84 79.2601 503.8 78.5501C503.8 78.5501 496.71 73.6101 500.84 73.6101C500.84 73.6101 504.91 75.1601 509.26 72.4901C509.26 72.4901 510.41 72.3101 513.41 66.6701C513.41 66.6701 513.89 65.8901 513.26 65.4101C513.26 65.4101 512.93 64.3701 513.55 63.8901C513.55 63.8901 513.73 63.3301 513.64 62.0701C513.64 62.0701 513.41 61.3701 513.96 60.8901C513.96 60.8901 514.38 59.7801 514.04 59.1101C514.04 59.1101 513.89 58.2601 514.37 57.8501C514.37 57.8501 514.52 57.5501 514.37 56.4401C514.37 56.4401 514.1 55.7701 515.07 55.7701C515.07 55.7701 516.03 56.3601 515.56 54.5001C515.56 54.5001 515.29 53.4001 514.85 52.5401L513.95 51.2401L514.03 43.9301L514.05 43.9201Z" fill="#EB1922"/>
<path d="M531.15 87.99C531.15 87.99 531.49 83.99 533.22 85.36C533.22 85.36 534.72 85.99 536.01 85.99C536.01 85.99 538.61 87.26 540.95 89.66C540.95 89.66 543.18 92.1 544.11 92.59C544.11 92.59 545.62 93.71 544.35 95.92C544.35 95.92 543.73 96.7 543.95 97.37C543.95 97.37 543.72 98.15 543.09 98.48C543.09 98.48 541.32 100.85 538.79 100.22C538.79 100.22 536.71 99.96 535.53 99.74C535.53 99.74 533.87 98.99 533.39 98.21C533.39 98.21 532.9 97.5 532.12 97.88C532.12 97.88 531.57 97.66 530.83 95.65C530.83 95.65 529.9 94.65 530.75 92.91C530.75 92.91 531.5 90.68 531.16 87.96L531.15 87.99Z" fill="#EB1922"/>
<path d="M421.13 88.6299C421.13 88.6299 420.91 79.3499 421.31 78.5699C421.31 78.5699 421.46 78.4599 421.52 77.3799L421.57 71.6399C421.57 71.6399 421.78 71.2199 422.3 70.5599C422.3 70.5599 422.16 69.1899 422.64 69.1499V68.4099C422.64 68.4099 423.12 66.1099 424.07 67.4799C424.07 67.4799 424.93 68.5299 423.97 69.7099C423.97 69.7099 422.64 71.3099 425.28 78.1699C425.28 78.1699 425.42 79.3099 426.43 79.9899C426.43 79.9899 427.75 80.9199 427.64 83.3999C427.64 83.3999 427.71 85.0999 427.43 85.6599C427.43 85.6599 426.65 86.8099 427.94 86.5899C427.94 86.5899 428.91 86.5099 428.83 87.5199C428.83 87.5199 428.58 90.7399 428.72 91.5999C428.72 91.5999 429.36 92.5999 429.2 93.1199C429.2 93.1199 429.1 93.7199 429.46 93.9699C429.46 93.9699 429.65 94.0799 429.65 94.6699C429.65 94.6699 429.87 98.8999 429.42 99.0499C429.42 99.0499 428.8 100.46 427.13 99.6499C427.13 99.6499 422.37 95.5699 421.12 88.6299H421.13Z" fill="#EB1922"/>
<path d="M430.91 48.89C430.91 48.89 430.28 48.26 431.47 47.48C431.47 47.48 432.32 46.33 432.96 48C432.96 48 436.29 55.16 436.03 58.38C436.03 58.38 435.85 61.06 432.99 59.79C432.99 59.79 431.92 59.05 431.14 58.46C431.14 58.46 430.17 58.61 428.8 58.35C428.8 58.35 427.54 57.83 428.46 56.87C428.46 56.87 431.13 52.83 430.91 48.89Z" fill="#EB1922"/>
<path d="M471.1 60.76C474.35 61.54 478.41 62.5 480.07 62.96C480.07 62.96 483.93 63.92 486.38 69.15C486.38 69.15 487.53 69.7 485.5 72.48C485.5 72.48 483.82 75.12 481.55 76.08C481.55 76.08 480.48 76.56 479.93 78.64C479.93 78.64 476.74 83.58 474.74 84.24C474.74 84.24 471.92 85.42 472.39 88.17C472.39 88.17 475.15 91.18 474 94.78C474 94.78 474.19 95.97 472.93 95.86C472.93 95.86 472.14 96.09 471.11 96.2V79.84C472.96 77.83 475.49 75.24 475.49 75.24C476.11 73.87 479.29 69.64 479.29 69.64C480.07 69.3 479.51 67.45 479.51 67.45C479.4 66.19 475.29 63.7 475.29 63.7C474.55 63.3 472.73 62.85 471.1 62.51V60.77V60.76ZM448.84 63.55C449.84 62.84 450.84 62.1 451.33 61.7C451.33 61.7 453.14 60.17 455.3 59.92C455.3 59.92 458.38 59.33 458.64 58.28C458.64 58.28 458.78 55.31 458.93 54.68V40.84C458.93 40.84 458.9 39.4 460.23 40.43C460.23 40.43 460.92 41.09 462.31 40.87C462.31 40.87 463.76 40.83 464.24 44.17C464.24 44.17 465.36 48.2 465.31 52.18C465.31 52.18 465.31 57.08 465.13 57.87C465.13 57.87 464.71 59.46 466.32 59.64C466.32 59.64 468.47 60.13 471.11 60.75V62.49C469.46 62.16 468.02 61.9 468.02 61.9C465.21 61.79 466.95 64.35 466.95 64.35C467.36 65.39 468.44 67.65 468.44 67.65C468.73 69.25 469.4 69.8 469.4 69.8C470.43 70.95 469.05 72.58 469.05 72.58C468.38 72.98 467.79 73.95 467.79 73.95C466.78 76.62 463.76 78.62 463.76 78.62C461.38 80.29 463.01 84.55 463.01 84.55C463.7 87.41 468.2 82.37 468.2 82.37C468.86 81.55 469.8 81.29 469.8 81.29C470.14 80.88 470.57 80.36 471.1 79.81V96.17C470.65 96.25 470.13 96.27 469.6 96.27C469.6 96.27 466.53 96.8 464.15 96.49C464.15 96.49 462.11 96.38 460.22 95.75C460.22 95.75 459.85 95.41 459.1 95.82C459.1 95.82 454.4 99.61 450.46 95.42C450.46 95.42 449.72 94.61 448.83 93.75V90.75C449.65 90.89 450.49 91.01 451.35 91.27C454.64 91.15 455.28 88.37 455.28 88.37C454.94 87.11 456.75 85.7 456.75 85.7C457.76 84.85 457.65 83.96 457.65 83.96C457.2 82.52 457.32 79.39 457.32 79.39C455.83 78.32 452.91 74.91 452.91 74.91C450.9 71.19 453.79 71.19 453.79 71.19C454.99 71.72 455.83 71.31 455.83 71.31C457.72 71.31 457.6 68.38 457.6 68.38C457.39 66.82 458.06 65.93 458.06 65.93C458.98 63.26 458.28 62.93 458.28 62.93C457.31 60.63 455.72 63.03 455.72 63.03C454.49 64.55 449.75 67.11 449.75 67.11C449.41 67.48 449.07 67.78 448.82 68V63.51L448.84 63.55ZM434.7 78.27C434.7 78.27 433.48 77.69 433.41 76.49V76.27C433.41 76.05 433.48 75.8 433.59 75.57C433.59 75.57 433.41 74.38 435.87 71.87C435.87 71.87 437.78 70.12 439.57 69.2C439.57 69.2 443.77 66.23 446.43 65.27C446.43 65.27 447.61 64.45 448.85 63.57V68.06C447.88 68.95 447.59 69.06 447.59 69.06C445.69 68.8 443.88 70.03 443.88 70.03C441.54 71.24 441.74 72.22 441.74 72.22C441.44 73.48 440.07 76.49 440.07 76.49C439.51 77.04 438.99 79.34 439.21 80.01C439.21 80.3 439.88 82.94 440.03 83.09C441.03 85.54 445.78 89.51 445.78 89.51C446.74 90.36 447.78 90.62 448.86 90.81V93.81C448 92.96 447.01 92.13 446.38 92.03C446.38 92.03 441.55 87.81 439.44 86.06C439.44 86.06 436.85 82.91 436.65 80.83C436.65 80.83 436.31 78.49 434.72 78.3L434.7 78.27Z" fill="#EB1922"/>
<path d="M384.58 40.51C384.58 40.51 388.3 38.85 391.78 45.15C391.78 45.15 393.51 48.16 391.15 48.52C391.15 48.52 389.08 49.04 387.11 50.48C386.89 50.62 385.49 50.78 384.93 52.22C384.93 52.22 381.11 58.9 373.16 69.54C373.16 69.54 368.89 75.44 363.41 84.89C363.41 84.89 359.7 92.39 353.47 97.8C353.47 97.8 351.61 99.21 351.73 99.8C351.73 99.8 351.32 100.79 350.35 101.36C350.35 101.36 348.72 102.8 346.95 102.77C346.95 102.77 345.54 102.4 344.69 102.58C344.69 102.58 342.98 102.47 342.16 102.58C342.16 102.58 340.79 102.95 342.53 101.58C342.53 101.58 342.67 100.87 343.75 100.69C343.75 100.69 344.15 100.4 344.34 99.91C344.34 99.91 344.11 99.57 344.97 99.57C344.97 99.57 346.02 100.2 346.02 98.09C346.02 98.09 345.83 97.91 346.72 97.31C346.72 97.31 349.78 94.79 355.44 87.4C355.44 87.4 360.63 81.2 363.49 75.31C363.49 75.31 365.91 71.71 368.5 67.56C368.5 67.56 376.3 54.95 377.59 52.05C377.59 52.05 368.61 50.9 368.27 46.68C368.27 46.68 368.13 45.3 369.46 46.42C369.46 46.42 374.05 48.16 379.25 44.79C379.25 44.79 382.14 43.9 384.59 40.48L384.58 40.51Z" fill="#EB1922"/>
<path d="M373.57 86.9199C373.57 86.9199 368.26 83.7699 370.19 83.1399C370.19 83.1399 373.76 81.7199 377.69 85.9599C377.69 85.9599 378.05 87.4399 378.98 88.9199C378.98 88.9199 379.77 90.2099 383.84 94.7099C383.84 94.7099 384.35 95.45 384.44 93.9L384.62 91.41C384.62 91.41 385.18 89.7 386.18 90.04C386.18 90.04 386.89 90.86 387.3 89.82C387.3 89.82 389.48 87.8499 390.37 85.5599C390.37 85.5599 391.78 82.8399 390.67 82.0699C390.67 82.0699 387.4 80.36 386 79.36C386 79.36 383.74 78.8299 384.89 78.1699C384.89 78.1699 385.88 77.76 388.37 77.65C388.37 77.65 393.38 76.87 394.56 74.87C394.56 74.87 394.78 73.0899 396.08 73.5699C396.08 73.5699 399.16 74.9499 400.34 74.3899C400.34 74.3899 405.88 74.6499 406.77 80.0699C406.77 80.0699 406.84 81.04 407.18 81.73C407.18 81.73 407.84 83.4799 405.53 83.9299C405.53 83.9299 400.49 87.3399 399.56 89.2699C399.56 89.2699 397.75 93.16 398.66 94.91C398.66 94.91 399.74 97.06 397.47 98.36C397.47 98.36 396.29 99.2499 394.47 99.1399C394.47 99.1399 392.17 98.55 390.28 101.22C390.28 101.22 390.16 102.15 388.61 101.15C388.61 101.15 388.57 100.7 387.39 100.7C387.39 100.7 386.5 100.4 386.32 99.44C386.32 99.44 385.72 97.96 383.73 97.33C383.73 97.33 383.06 97.74 382.04 96.22C382.04 96.22 379.26 91.7299 377.74 89.8399C377.74 89.8399 375.97 87.35 373.56 86.94L373.57 86.9199Z" fill="#EB1922"/>
<path d="M634.05 102.56H631.85C629.97 99.28 629.03 95.33 629.03 90.73C628.96 85.99 629.9 81.97 631.85 78.7H634.05C632.1 82.33 631.12 86.37 631.12 90.84C631.12 95.31 632.1 99.35 634.05 102.56Z" fill="#EB1922"/>
<path d="M638.6 87.4799C642.43 84.7599 644.84 81.8299 645.82 78.6899L647.71 79.7399C647.99 79.8799 648.02 79.9799 647.81 80.0599L647.71 80.1599C647.29 80.2999 646.87 80.6799 646.45 81.3099C645.96 82.1499 645.51 82.8099 645.09 83.2999V91.0399C645.09 91.1799 645.13 91.5999 645.2 92.2999C645.27 92.7199 645.31 93.0299 645.31 93.2399H643.42C643.57 92.2599 643.63 91.5299 643.63 91.0399V85.1799C643.35 85.4599 642.97 85.8399 642.48 86.3299C642.13 86.7499 641.4 87.4799 640.28 88.5299C639.65 87.9699 639.09 87.6199 638.61 87.4799H638.6ZM641.64 95.4399H650.33V94.7099C650.33 94.3599 650.26 93.5599 650.12 92.3099L652.21 92.6199C652.42 92.6199 652.52 92.6499 652.52 92.7199C652.52 92.7899 652.42 92.8999 652.21 93.0299C651.93 93.1699 651.79 93.8299 651.79 95.0199V95.4399H660.37C660.93 95.4399 661.66 95.3999 662.57 95.3299V97.0099C662.36 97.0099 662.05 96.9799 661.63 96.8999C661.21 96.8299 660.79 96.7999 660.37 96.7999H651.79V100.57C651.79 100.85 651.82 101.37 651.9 102.14C651.97 102.42 652 102.63 652 102.77H650.12C650.26 101.8 650.33 101.06 650.33 100.58V96.8099H641.64C641.01 96.8099 640.28 96.8799 639.44 97.0199V95.3399C639.93 95.4099 640.66 95.4499 641.64 95.4499V95.4399ZM651.58 85.0799V81.3099C651.58 80.8899 651.54 80.0499 651.47 78.7999L653.46 79.1099C653.67 79.1799 653.77 79.2499 653.77 79.3199L653.56 79.5299C653.28 79.7399 653.14 80.3999 653.14 81.5199V84.3499C655.79 83.0899 657.85 81.7699 659.32 80.3699L660.78 81.9399C660.93 82.1499 660.96 82.2599 660.89 82.2599C660.82 82.3299 660.61 82.3699 660.26 82.3699C659.42 82.5799 658.76 82.8599 658.27 83.1999C657.22 83.8999 655.51 84.8399 653.14 86.0299V89.3799C652.79 90.4999 653.91 91.0199 656.49 90.9499C659.14 91.0899 660.43 90.4999 660.36 89.1699C660.5 88.6099 660.57 88.1599 660.57 87.8099C661.26 88.0899 661.92 88.2999 662.56 88.4399C662.49 88.5799 662.45 88.7499 662.45 88.9599C662.31 89.4499 662.18 89.8699 662.03 90.2199C661.61 91.8299 660.08 92.5599 657.42 92.4199C655.4 92.4199 654.18 92.3899 653.76 92.3199C652.36 92.1099 651.64 91.3699 651.57 90.1199V86.5599C650.31 87.0499 649.13 87.4999 648.01 87.9199C647.73 87.5699 647.38 87.1899 646.96 86.7699C646.82 86.6299 646.72 86.5199 646.65 86.4599C648.11 86.1799 649.76 85.7299 651.57 85.0999L651.58 85.0799Z" fill="#EB1922"/>
<path d="M674.5 78.0601L676.39 78.5901C676.67 78.7301 676.81 78.8301 676.81 78.9001C676.81 78.9701 676.64 79.0701 676.29 79.2201C675.94 79.4301 675.7 79.7401 675.56 80.1601C675.48 80.3701 675.38 80.7201 675.25 81.2001C675.04 81.6901 674.9 82.0701 674.83 82.3501H686.77C687.05 82.3501 687.46 82.3101 688.03 82.2401C688.45 82.1701 688.8 82.1401 689.08 82.1401V83.8101C688.8 83.8101 688.45 83.7701 688.03 83.7001C687.47 83.6301 687.05 83.6001 686.77 83.6001H674.21C673.45 85.2701 672.39 87.4701 671.07 90.1901H677.04V88.4101C677.04 87.4301 677 86.5301 676.93 85.6901L678.92 85.9001C679.13 85.9701 679.23 86.0401 679.23 86.1101C679.23 86.1801 679.09 86.2801 678.81 86.4201C678.67 86.5601 678.6 87.2201 678.6 88.4101V90.1901H684.25C684.95 90.1901 685.75 90.1201 686.66 89.9901V91.6701C685.82 91.6001 685.06 91.5601 684.35 91.5601H678.6V100.46C678.88 101.93 677.52 102.73 674.52 102.87C674.45 102.1 674.21 101.4 673.79 100.78C676.3 101.27 677.38 101.03 677.04 100.05V91.5701H671.17C670.61 91.5701 669.99 91.7501 669.29 92.0901L668.45 90.3101C669.01 90.1001 669.53 89.6101 670.02 88.8401C670.78 87.5101 671.59 85.7701 672.43 83.6101H667.83C667.48 83.6101 666.99 83.6401 666.36 83.7101C666.01 83.7801 665.73 83.8201 665.52 83.8201V82.1501C665.8 82.1501 666.15 82.1801 666.57 82.2501C667.12 82.3201 667.54 82.3601 667.83 82.3601H673.06C673.69 81.0301 674.17 79.6001 674.52 78.0701L674.5 78.0601ZM665.61 100.14C668.74 98.8901 671.05 96.9001 672.51 94.1801L674.29 95.2201L674.6 95.4301C674.53 95.5001 674.36 95.5701 674.08 95.6401C673.66 95.8501 673.28 96.1701 672.93 96.5801C671.4 98.3301 669.55 100 667.38 101.6C667.03 100.83 666.44 100.35 665.61 100.13V100.14ZM680.89 95.7501L682.04 94.2801C684.2 95.7501 686.44 97.6001 688.74 99.8301L687.38 100.98C685.36 99.0301 683.19 97.2801 680.9 95.7501H680.89Z" fill="#EB1922"/>
<path d="M694.95 78.6899H697.15C699.1 81.9699 700.04 85.9799 699.98 90.7199C699.98 95.3199 699.04 99.2699 697.15 102.55H694.95C696.9 99.3399 697.88 95.4299 697.88 90.8299C697.88 86.2299 696.9 82.3199 694.95 78.6899Z" fill="#EB1922"/>
<path d="M222.89 129.7L223.34 135.73H222.89C222.29 133.92 221.44 132.61 220.34 131.82C219.24 131.02 217.91 130.63 216.36 130.63C215.06 130.63 213.89 130.93 212.84 131.52C211.79 132.12 210.97 133.07 210.36 134.37C209.76 135.68 209.46 137.3 209.46 139.24C209.46 140.84 209.74 142.23 210.31 143.41C210.88 144.58 211.73 145.49 212.87 146.11C214.01 146.73 215.31 147.05 216.77 147.05C218.04 147.05 219.16 146.8 220.13 146.31C221.1 145.82 222.17 144.84 223.33 143.37L223.78 143.64C222.8 145.22 221.65 146.38 220.35 147.11C219.04 147.84 217.49 148.21 215.69 148.21C212.45 148.21 209.94 147.12 208.16 144.95C206.83 143.33 206.17 141.43 206.17 139.24C206.17 137.47 206.6 135.85 207.48 134.37C208.35 132.89 209.56 131.74 211.08 130.93C212.61 130.12 214.29 129.71 216.1 129.71C217.51 129.71 218.9 130.02 220.28 130.64C220.69 130.83 220.97 130.93 221.15 130.93C221.41 130.93 221.63 130.85 221.82 130.68C222.07 130.45 222.25 130.12 222.36 129.71H222.9L222.89 129.7Z" fill="#EB1922"/>
<path d="M230.52 138.28H239.61V133.23C239.61 132.32 239.55 131.72 239.42 131.44C239.32 131.22 239.12 131.03 238.82 130.88C238.41 130.67 237.97 130.56 237.51 130.56H236.82V130.09H245.16V130.56H244.47C244.01 130.56 243.57 130.66 243.16 130.86C242.85 131 242.64 131.21 242.53 131.5C242.42 131.78 242.36 132.36 242.36 133.23V144.66C242.36 145.56 242.42 146.16 242.55 146.45C242.65 146.67 242.84 146.86 243.14 147.02C243.56 147.23 244 147.34 244.46 147.34H245.15V147.82H236.81V147.34H237.5C238.3 147.34 238.88 147.13 239.24 146.69C239.48 146.41 239.6 145.73 239.6 144.66V139.25H230.51V144.66C230.51 145.56 230.57 146.16 230.69 146.45C230.79 146.67 230.99 146.86 231.29 147.02C231.7 147.23 232.14 147.34 232.6 147.34H233.3V147.82H224.96V147.34H225.65C226.46 147.34 227.04 147.13 227.4 146.69C227.63 146.41 227.75 145.73 227.75 144.66V133.23C227.75 132.32 227.69 131.72 227.56 131.44C227.46 131.22 227.27 131.03 226.97 130.88C226.55 130.67 226.11 130.56 225.65 130.56H224.96V130.09H233.3V130.56H232.6C232.14 130.56 231.71 130.66 231.29 130.86C231 131 230.79 131.21 230.68 131.5C230.56 131.78 230.51 132.36 230.51 133.23V138.28H230.52Z" fill="#EB1922"/>
<path d="M254.54 147.34V147.82H246.19V147.34H246.88C247.69 147.34 248.27 147.13 248.64 146.69C248.87 146.41 248.98 145.73 248.98 144.66V133.23C248.98 132.33 248.92 131.73 248.79 131.44C248.69 131.22 248.5 131.03 248.2 130.87C247.78 130.66 247.34 130.55 246.87 130.55H246.18V130.08H254.53V130.55H253.83C253.04 130.55 252.46 130.77 252.1 131.2C251.86 131.48 251.74 132.16 251.74 133.23V144.66C251.74 145.56 251.8 146.16 251.93 146.45C252.03 146.67 252.23 146.86 252.53 147.02C252.94 147.23 253.37 147.34 253.83 147.34H254.53H254.54Z" fill="#EB1922"/>
<path d="M254.55 130.09H259.86L271.83 143.38V133.15C271.83 132.06 271.69 131.39 271.42 131.11C271.06 130.74 270.49 130.56 269.72 130.56H269.03V130.09H275.89V130.56H275.19C274.36 130.56 273.77 130.79 273.42 131.24C273.21 131.52 273.1 132.15 273.1 133.14V148.1H272.58L259.68 133.81V144.75C259.68 145.84 259.81 146.52 260.07 146.79C260.44 147.16 261.01 147.34 261.77 147.34H262.47V147.82H255.61V147.34H256.29C257.13 147.34 257.73 147.11 258.08 146.66C258.29 146.38 258.4 145.75 258.4 144.76V132.41C257.83 131.81 257.41 131.41 257.11 131.22C256.82 131.03 256.39 130.85 255.82 130.68C255.54 130.6 255.12 130.56 254.55 130.56V130.09Z" fill="#EB1922"/>
<path d="M289.5 141.9H281.88L280.56 144.67C280.23 145.36 280.07 145.88 280.07 146.22C280.07 146.49 280.21 146.73 280.5 146.93C280.78 147.13 281.4 147.27 282.34 147.33V147.81H276.16V147.33C276.98 147.2 277.5 147.03 277.75 146.82C278.24 146.4 278.78 145.54 279.38 144.25L286.29 129.69H286.79L293.6 144.42C294.15 145.61 294.65 146.38 295.09 146.73C295.54 147.08 296.16 147.28 296.96 147.32V147.8H289.25V147.32C290.03 147.29 290.55 147.17 290.83 146.97C291.11 146.77 291.24 146.52 291.24 146.23C291.24 145.85 291.05 145.24 290.66 144.41L289.5 141.88V141.9ZM289.05 140.92L285.75 133.76L282.35 140.92H289.05Z" fill="#EB1922"/>
<path d="M316.51 130.56V130.09H323.37V130.56H322.64C321.88 130.56 321.29 130.85 320.88 131.44C320.68 131.71 320.58 132.34 320.58 133.33V140.51C320.58 142.29 320.39 143.66 320 144.64C319.61 145.62 318.85 146.46 317.71 147.16C316.57 147.86 315.02 148.21 313.06 148.21C310.93 148.21 309.31 147.88 308.2 147.21C307.09 146.54 306.31 145.64 305.85 144.51C305.54 143.74 305.39 142.28 305.39 140.15V133.24C305.39 132.14 305.22 131.42 304.89 131.08C304.56 130.74 304.02 130.57 303.27 130.57H302.53V130.1H310.99V130.57H310.24C309.43 130.57 308.85 130.8 308.51 131.27C308.27 131.59 308.15 132.24 308.15 133.24V140.94C308.15 141.63 308.22 142.41 308.36 143.3C308.5 144.19 308.75 144.88 309.12 145.37C309.49 145.87 310.02 146.27 310.71 146.6C311.4 146.92 312.24 147.08 313.25 147.08C314.53 147.08 315.68 146.83 316.69 146.32C317.7 145.82 318.39 145.17 318.77 144.38C319.14 143.6 319.33 142.26 319.33 140.39V133.24C319.33 132.13 319.19 131.43 318.93 131.15C318.56 130.76 318 130.57 317.27 130.57H316.54L316.51 130.56Z" fill="#EB1922"/>
<path d="M322.95 130.09H328.26L340.22 143.38V133.15C340.22 132.06 340.09 131.39 339.82 131.11C339.46 130.74 338.89 130.56 338.12 130.56H337.44V130.09H344.3V130.56H343.6C342.77 130.56 342.17 130.79 341.83 131.24C341.62 131.52 341.51 132.15 341.51 133.14V148.1H340.99L328.09 133.81V144.75C328.09 145.84 328.22 146.52 328.48 146.79C328.85 147.16 329.41 147.34 330.18 147.34H330.88V147.82H324.02V147.34H324.7C325.54 147.34 326.14 147.11 326.49 146.66C326.7 146.38 326.81 145.75 326.81 144.76V132.41C326.24 131.81 325.82 131.41 325.52 131.22C325.23 131.03 324.8 130.85 324.23 130.68C323.95 130.6 323.53 130.56 322.96 130.56V130.09H322.95Z" fill="#EB1922"/>
<path d="M353.45 147.34V147.82H345.1V147.34H345.79C346.6 147.34 347.18 147.13 347.55 146.69C347.78 146.41 347.89 145.73 347.89 144.66V133.23C347.89 132.33 347.83 131.73 347.71 131.44C347.61 131.22 347.42 131.03 347.12 130.87C346.7 130.66 346.25 130.55 345.79 130.55H345.1V130.08H353.45V130.55H352.75C351.96 130.55 351.38 130.77 351.02 131.2C350.78 131.48 350.66 132.16 350.66 133.23V144.66C350.66 145.56 350.72 146.16 350.85 146.45C350.95 146.67 351.15 146.86 351.45 147.02C351.86 147.23 352.29 147.34 352.75 147.34H353.45Z" fill="#EB1922"/>
<path d="M374.83 130.09V130.56C374.14 130.68 373.62 130.88 373.26 131.17C372.75 131.6 372.3 132.26 371.91 133.15L365.1 148.21H364.55L357.24 132.95C356.86 132.16 356.6 131.68 356.45 131.5C356.21 131.23 355.91 131.01 355.56 130.86C355.21 130.71 354.74 130.61 354.14 130.56V130.09H362.12V130.56C361.21 130.64 360.63 130.78 360.36 130.98C360.09 131.18 359.95 131.44 359.95 131.75C359.95 132.19 360.17 132.87 360.61 133.79L365.59 144.18L370.21 133.92C370.66 132.91 370.89 132.21 370.89 131.82C370.89 131.57 370.75 131.33 370.47 131.09C370.19 130.86 369.72 130.7 369.06 130.6C369.01 130.6 368.93 130.58 368.81 130.56V130.09H374.83Z" fill="#EB1922"/>
<path d="M381.04 131.07V138.05H385.32C386.43 138.05 387.17 137.9 387.55 137.6C388.05 137.21 388.33 136.52 388.38 135.52H388.92V141.67H388.38C388.25 140.81 388.11 140.25 387.98 140.01C387.8 139.7 387.52 139.47 387.13 139.29C386.74 139.12 386.14 139.03 385.32 139.03H381.04V144.86C381.04 145.64 381.08 146.12 381.16 146.29C381.24 146.46 381.37 146.59 381.57 146.69C381.76 146.79 382.13 146.84 382.66 146.84H385.97C387.08 146.84 387.88 146.77 388.38 146.63C388.88 146.49 389.36 146.21 389.82 145.81C390.42 145.27 391.03 144.46 391.65 143.37H392.21L390.53 147.82H375.49V147.34H376.18C376.64 147.34 377.08 147.24 377.49 147.04C377.8 146.9 378.01 146.69 378.11 146.41C378.22 146.13 378.28 145.55 378.28 144.68V133.19C378.28 132.06 378.15 131.36 377.91 131.1C377.56 130.75 376.99 130.57 376.18 130.57H375.49V130.1H390.52L390.73 133.99H390.17C389.97 133.06 389.75 132.42 389.5 132.07C389.26 131.72 388.9 131.46 388.42 131.28C388.04 131.15 387.36 131.08 386.4 131.08H381.06L381.04 131.07Z" fill="#EB1922"/>
<path d="M412.54 147.81H407.31L400.68 139.52C400.2 139.54 399.81 139.55 399.51 139.55C399.39 139.55 399.25 139.55 399.11 139.55C398.97 139.55 398.82 139.55 398.67 139.53V144.67C398.67 145.79 398.8 146.49 399.07 146.76C399.43 147.15 399.98 147.34 400.7 147.34H401.46V147.82H393.11V147.34H393.84C394.66 147.34 395.25 147.1 395.6 146.6C395.8 146.33 395.9 145.68 395.9 144.66V133.23C395.9 132.11 395.76 131.41 395.5 131.14C395.13 130.75 394.58 130.56 393.84 130.56H393.11V130.09H400.21C402.28 130.09 403.8 130.23 404.79 130.5C405.77 130.77 406.61 131.28 407.29 132.02C407.98 132.76 408.32 133.63 408.32 134.65C408.32 135.74 407.93 136.69 407.15 137.49C406.37 138.29 405.16 138.86 403.52 139.19L407.57 144.26C408.5 145.43 409.29 146.22 409.95 146.6C410.61 146.99 411.48 147.23 412.54 147.34V147.82V147.81ZM398.66 138.69C398.84 138.69 399 138.69 399.14 138.69C399.27 138.69 399.38 138.69 399.47 138.69C401.33 138.69 402.72 138.32 403.66 137.59C404.6 136.86 405.07 135.92 405.07 134.79C405.07 133.66 404.69 132.78 403.93 132.09C403.17 131.4 402.16 131.05 400.91 131.05C400.35 131.05 399.6 131.15 398.66 131.35V138.69Z" fill="#EB1922"/>
<path d="M425.48 129.7V135.82H424.95C424.77 134.65 424.46 133.71 424.01 133.01C423.56 132.31 422.92 131.76 422.09 131.35C421.26 130.94 420.4 130.74 419.51 130.74C418.51 130.74 417.68 131.02 417.02 131.57C416.36 132.12 416.04 132.75 416.04 133.46C416.04 134 416.25 134.49 416.66 134.94C417.26 135.59 418.68 136.46 420.93 137.55C422.76 138.44 424.02 139.12 424.68 139.59C425.35 140.06 425.86 140.62 426.22 141.27C426.58 141.91 426.76 142.59 426.76 143.29C426.76 144.63 426.19 145.78 425.04 146.75C423.89 147.72 422.41 148.21 420.61 148.21C420.04 148.21 419.51 148.17 419.01 148.09C418.71 148.05 418.09 147.89 417.16 147.61C416.22 147.33 415.63 147.2 415.38 147.2C415.13 147.2 414.95 147.27 414.81 147.4C414.67 147.53 414.57 147.8 414.5 148.21H413.96V142.12H414.5C414.75 143.4 415.08 144.35 415.51 144.99C415.93 145.62 416.58 146.15 417.45 146.57C418.32 146.99 419.27 147.2 420.31 147.2C421.51 147.2 422.46 146.91 423.16 146.34C423.86 145.76 424.21 145.08 424.21 144.3C424.21 143.86 424.08 143.42 423.81 142.98C423.54 142.54 423.13 142.12 422.57 141.74C422.19 141.48 421.17 140.93 419.48 140.08C417.8 139.23 416.61 138.56 415.9 138.05C415.19 137.54 414.66 136.99 414.29 136.38C413.93 135.77 413.74 135.1 413.74 134.37C413.74 133.1 414.28 132.01 415.36 131.09C416.44 130.17 417.81 129.71 419.48 129.71C420.52 129.71 421.62 129.94 422.79 130.4C423.33 130.61 423.71 130.72 423.93 130.72C424.18 130.72 424.39 130.65 424.55 130.52C424.71 130.39 424.83 130.12 424.93 129.71H425.46L425.48 129.7Z" fill="#EB1922"/>
<path d="M437.12 147.34V147.82H428.78V147.34H429.47C430.28 147.34 430.86 147.13 431.23 146.69C431.46 146.41 431.58 145.73 431.58 144.66V133.23C431.58 132.33 431.52 131.73 431.39 131.44C431.29 131.22 431.1 131.03 430.8 130.87C430.38 130.66 429.93 130.55 429.47 130.55H428.78V130.08H437.12V130.55H436.42C435.63 130.55 435.05 130.77 434.69 131.2C434.45 131.48 434.33 132.16 434.33 133.23V144.66C434.33 145.56 434.39 146.16 434.51 146.45C434.61 146.67 434.81 146.86 435.11 147.02C435.52 147.23 435.95 147.34 436.41 147.34H437.11H437.12Z" fill="#EB1922"/>
<path d="M454.62 130.09L454.83 134.23H454.28C454.18 133.5 454.03 132.98 453.85 132.66C453.55 132.16 453.16 131.78 452.66 131.54C452.17 131.3 451.52 131.18 450.72 131.18H447.97V144.75C447.97 145.84 448.1 146.52 448.36 146.79C448.73 147.16 449.29 147.34 450.05 147.34H450.73V147.82H442.42V147.34H443.12C443.95 147.34 444.54 147.11 444.89 146.66C445.1 146.38 445.21 145.75 445.21 144.76V131.19H442.86C441.94 131.19 441.29 131.25 440.91 131.37C440.41 131.54 439.98 131.85 439.62 132.32C439.26 132.79 439.05 133.43 438.99 134.23H438.44L438.65 130.09H454.63H454.62Z" fill="#EB1922"/>
<path d="M469.31 130.09H476.14V130.56H475.76C475.51 130.56 475.15 130.66 474.67 130.86C474.19 131.06 473.75 131.35 473.36 131.73C472.97 132.11 472.48 132.72 471.91 133.57L467.19 140.27V144.76C467.19 145.85 467.32 146.53 467.59 146.8C467.96 147.17 468.54 147.35 469.33 147.35H469.97V147.83H461.62V147.35H462.32C463.15 147.35 463.74 147.12 464.09 146.67C464.3 146.39 464.41 145.76 464.41 144.77V140.59L459.06 133.12C458.43 132.25 458 131.71 457.77 131.49C457.54 131.27 457.08 131.01 456.36 130.71C456.17 130.62 455.89 130.58 455.52 130.58V130.11H463.86V130.58H463.43C462.98 130.58 462.56 130.68 462.18 130.87C461.8 131.06 461.61 131.35 461.61 131.74C461.61 132.05 461.9 132.62 462.49 133.44L466.55 139.15L470.4 133.68C470.98 132.86 471.27 132.25 471.27 131.84C471.27 131.6 471.2 131.38 471.06 131.19C470.92 131 470.72 130.85 470.46 130.74C470.2 130.63 469.81 130.58 469.29 130.58V130.11L469.31 130.09Z" fill="#EB1922"/>
<path d="M493 129.7C495.54 129.7 497.74 130.57 499.6 132.32C501.46 134.06 502.39 136.24 502.39 138.85C502.39 141.46 501.45 143.77 499.58 145.54C497.7 147.31 495.44 148.2 492.77 148.2C490.1 148.2 487.81 147.34 485.98 145.6C484.15 143.87 483.23 141.63 483.23 138.88C483.23 136.13 484.29 133.78 486.4 132C488.23 130.46 490.43 129.69 492.99 129.69L493 129.7ZM492.73 130.62C490.98 130.62 489.57 131.21 488.52 132.38C487.2 133.85 486.54 135.99 486.54 138.82C486.54 141.65 487.22 143.94 488.59 145.5C489.64 146.69 491.03 147.28 492.75 147.28C494.59 147.28 496.11 146.63 497.3 145.33C498.5 144.03 499.1 141.98 499.1 139.18C499.1 136.14 498.44 133.88 497.12 132.39C496.06 131.21 494.6 130.61 492.73 130.61V130.62Z" fill="#EB1922"/>
<path d="M509.22 131.07V138.02H512.79C513.61 138.02 514.21 137.86 514.58 137.53C514.96 137.2 515.21 136.56 515.34 135.58H515.88V141.61H515.34C515.34 140.92 515.23 140.41 515.04 140.08C514.86 139.76 514.59 139.51 514.26 139.35C513.93 139.19 513.43 139.11 512.78 139.11H509.21V144.66C509.21 145.56 509.27 146.16 509.4 146.45C509.5 146.67 509.69 146.86 510 147.02C510.42 147.23 510.85 147.34 511.31 147.34H512.01V147.82H503.67V147.34H504.36C505.17 147.34 505.75 147.13 506.11 146.69C506.34 146.41 506.46 145.73 506.46 144.66V133.23C506.46 132.33 506.4 131.73 506.28 131.44C506.18 131.22 505.99 131.03 505.69 130.87C505.28 130.66 504.84 130.55 504.36 130.55H503.67V130.08H518.19L518.4 133.97H517.89C517.64 133.15 517.35 132.54 517.02 132.16C516.69 131.77 516.28 131.5 515.8 131.32C515.31 131.15 514.56 131.06 513.54 131.06H509.22V131.07Z" fill="#EB1922"/>
<path d="M532.4 139.51V144.66C532.4 145.78 532.53 146.48 532.8 146.75C533.16 147.14 533.71 147.33 534.45 147.33H535.2V147.81H526.85V147.33H527.59C528.41 147.33 529 147.09 529.36 146.59C529.55 146.32 529.65 145.67 529.65 144.65V133.22C529.65 132.1 529.52 131.4 529.26 131.13C528.89 130.74 528.33 130.55 527.59 130.55H526.85V130.08H534.01C535.76 130.08 537.14 130.24 538.14 130.57C539.15 130.9 540 131.45 540.69 132.23C541.38 133.01 541.73 133.93 541.73 134.99C541.73 136.44 541.2 137.61 540.15 138.52C539.1 139.43 537.61 139.88 535.69 139.88C535.22 139.88 534.71 139.85 534.16 139.79C533.61 139.73 533.02 139.64 532.4 139.51ZM532.4 138.76C532.91 138.85 533.36 138.91 533.75 138.96C534.14 139 534.48 139.03 534.76 139.03C535.75 139.03 536.62 138.68 537.34 137.98C538.06 137.28 538.43 136.37 538.43 135.26C538.43 134.49 538.25 133.78 537.91 133.13C537.56 132.47 537.08 131.98 536.44 131.66C535.81 131.33 535.09 131.17 534.28 131.17C533.79 131.17 533.16 131.25 532.4 131.42V138.78V138.76Z" fill="#EB1922"/>
<path d="M548.62 131.07V138.05H552.9C554.01 138.05 554.75 137.9 555.13 137.6C555.63 137.21 555.91 136.52 555.96 135.52H556.49V141.67H555.96C555.82 140.81 555.69 140.25 555.56 140.01C555.38 139.7 555.1 139.47 554.71 139.29C554.32 139.12 553.71 139.03 552.9 139.03H548.62V144.86C548.62 145.64 548.66 146.12 548.74 146.29C548.82 146.46 548.95 146.59 549.14 146.69C549.33 146.79 549.7 146.84 550.23 146.84H553.54C554.65 146.84 555.45 146.77 555.95 146.63C556.45 146.49 556.93 146.21 557.39 145.81C557.99 145.27 558.6 144.46 559.22 143.37H559.78L558.1 147.82H543.06V147.34H543.75C544.21 147.34 544.65 147.24 545.06 147.04C545.37 146.9 545.58 146.69 545.69 146.41C545.8 146.13 545.86 145.55 545.86 144.68V133.19C545.86 132.06 545.74 131.36 545.48 131.1C545.14 130.75 544.56 130.57 543.75 130.57H543.06V130.1H558.09L558.3 133.99H557.74C557.54 133.06 557.32 132.42 557.07 132.07C556.83 131.72 556.46 131.46 555.99 131.28C555.61 131.15 554.93 131.08 553.97 131.08H548.63L548.62 131.07Z" fill="#EB1922"/>
<path d="M577.22 130.09L577.43 134.23H576.88C576.77 133.5 576.63 132.98 576.45 132.66C576.15 132.16 575.76 131.78 575.26 131.54C574.77 131.3 574.12 131.18 573.31 131.18H570.56V144.75C570.56 145.84 570.69 146.52 570.95 146.79C571.32 147.16 571.88 147.34 572.64 147.34H573.32V147.82H565V147.34H565.7C566.54 147.34 567.12 147.11 567.47 146.66C567.68 146.38 567.79 145.75 567.79 144.76V131.19H565.44C564.53 131.19 563.88 131.25 563.49 131.37C562.99 131.54 562.56 131.85 562.2 132.32C561.84 132.79 561.63 133.43 561.57 134.23H561.02L561.23 130.09H577.21H577.22Z" fill="#EB1922"/>
<path d="M597.82 147.81H592.59L585.95 139.52C585.47 139.54 585.08 139.55 584.78 139.55C584.66 139.55 584.52 139.55 584.38 139.55C584.24 139.55 584.1 139.55 583.94 139.53V144.67C583.94 145.79 584.07 146.49 584.34 146.76C584.7 147.15 585.25 147.34 585.97 147.34H586.73V147.82H578.39V147.34H579.12C579.94 147.34 580.53 147.1 580.88 146.6C581.08 146.33 581.18 145.68 581.18 144.66V133.23C581.18 132.11 581.05 131.41 580.78 131.14C580.41 130.75 579.86 130.56 579.12 130.56H578.39V130.09H585.49C587.56 130.09 589.08 130.23 590.07 130.5C591.05 130.77 591.88 131.28 592.57 132.02C593.26 132.76 593.6 133.63 593.6 134.65C593.6 135.74 593.21 136.69 592.43 137.49C591.65 138.29 590.44 138.86 588.8 139.19L592.85 144.26C593.77 145.43 594.57 146.22 595.23 146.6C595.89 146.99 596.76 147.23 597.83 147.34V147.82L597.82 147.81ZM583.94 138.69C584.12 138.69 584.28 138.69 584.42 138.69C584.55 138.69 584.66 138.69 584.75 138.69C586.61 138.69 588.01 138.32 588.95 137.59C589.89 136.86 590.36 135.92 590.36 134.79C590.36 133.66 589.98 132.78 589.22 132.09C588.46 131.4 587.45 131.05 586.2 131.05C585.65 131.05 584.89 131.15 583.95 131.35V138.69H583.94Z" fill="#EB1922"/>
<path d="M608.02 129.7C610.56 129.7 612.76 130.57 614.62 132.32C616.48 134.06 617.41 136.24 617.41 138.85C617.41 141.46 616.47 143.77 614.6 145.54C612.73 147.31 610.46 148.2 607.79 148.2C605.12 148.2 602.84 147.34 601.01 145.6C599.18 143.87 598.26 141.63 598.26 138.88C598.26 136.13 599.32 133.78 601.43 132C603.27 130.46 605.46 129.69 608.02 129.69V129.7ZM607.75 130.62C606 130.62 604.59 131.21 603.53 132.38C602.21 133.85 601.55 135.99 601.55 138.82C601.55 141.65 602.23 143.94 603.6 145.5C604.65 146.69 606.04 147.28 607.76 147.28C609.6 147.28 611.12 146.63 612.32 145.33C613.51 144.03 614.12 141.98 614.12 139.18C614.12 136.14 613.46 133.88 612.14 132.39C611.08 131.21 609.62 130.61 607.75 130.61V130.62Z" fill="#EB1922"/>
<path d="M635.14 142.91L635.62 143L633.96 147.81H618.84V147.33H619.57C620.39 147.33 620.98 147.09 621.33 146.6C621.53 146.32 621.63 145.67 621.63 144.66V133.23C621.63 132.12 621.5 131.42 621.23 131.14C620.86 130.75 620.3 130.56 619.57 130.56H618.84V130.09H627.66V130.56C626.63 130.56 625.9 130.64 625.48 130.82C625.06 131 624.78 131.23 624.62 131.51C624.47 131.79 624.39 132.45 624.39 133.5V144.65C624.39 145.38 624.47 145.87 624.62 146.14C624.74 146.32 624.91 146.46 625.15 146.55C625.39 146.64 626.14 146.68 627.4 146.68H628.82C630.32 146.68 631.37 146.58 631.98 146.38C632.58 146.18 633.14 145.83 633.64 145.32C634.14 144.81 634.64 144.01 635.14 142.91Z" fill="#EB1922"/>
<path d="M642.1 131.07V138.05H646.38C647.49 138.05 648.23 137.9 648.6 137.6C649.1 137.21 649.38 136.52 649.43 135.52H649.97V141.67H649.43C649.29 140.81 649.16 140.25 649.03 140.01C648.86 139.7 648.58 139.47 648.18 139.29C647.79 139.12 647.19 139.03 646.37 139.03H642.09V144.86C642.09 145.64 642.13 146.12 642.21 146.29C642.29 146.46 642.42 146.59 642.61 146.69C642.8 146.79 643.17 146.84 643.7 146.84H647.01C648.11 146.84 648.92 146.77 649.42 146.63C649.92 146.49 650.39 146.21 650.86 145.81C651.45 145.27 652.06 144.46 652.69 143.37H653.26L651.57 147.82H636.53V147.34H637.22C637.68 147.34 638.12 147.24 638.53 147.04C638.84 146.9 639.05 146.69 639.16 146.41C639.27 146.13 639.33 145.55 639.33 144.68V133.19C639.33 132.06 639.2 131.36 638.96 131.1C638.61 130.75 638.04 130.57 637.23 130.57H636.54V130.1H651.57L651.78 133.99H651.22C651.02 133.06 650.79 132.42 650.55 132.07C650.31 131.72 649.95 131.46 649.47 131.28C649.08 131.15 648.41 131.08 647.44 131.08H642.1V131.07Z" fill="#EB1922"/>
<path d="M667.77 130.56V130.09H674.63V130.56H673.9C673.14 130.56 672.55 130.85 672.14 131.44C671.94 131.71 671.84 132.34 671.84 133.33V140.51C671.84 142.29 671.64 143.66 671.25 144.64C670.86 145.62 670.1 146.46 668.96 147.16C667.82 147.86 666.27 148.21 664.31 148.21C662.18 148.21 660.55 147.88 659.45 147.21C658.34 146.54 657.56 145.64 657.1 144.51C656.79 143.74 656.64 142.28 656.64 140.15V133.24C656.64 132.14 656.47 131.42 656.14 131.08C655.81 130.74 655.27 130.57 654.52 130.57H653.78V130.1H662.24V130.57H661.49C660.68 130.57 660.1 130.8 659.75 131.27C659.51 131.59 659.39 132.24 659.39 133.24V140.94C659.39 141.63 659.46 142.41 659.6 143.3C659.74 144.19 659.99 144.88 660.36 145.37C660.72 145.87 661.25 146.27 661.94 146.6C662.63 146.92 663.48 147.08 664.48 147.08C665.76 147.08 666.91 146.83 667.92 146.32C668.93 145.82 669.63 145.17 670 144.38C670.37 143.6 670.56 142.26 670.56 140.39V133.24C670.56 132.13 670.43 131.43 670.16 131.15C669.79 130.76 669.23 130.57 668.5 130.57H667.77V130.56Z" fill="#EB1922"/>
<path d="M686.71 147.81L679.17 132.89V144.75C679.17 145.84 679.3 146.52 679.56 146.79C679.92 147.16 680.48 147.34 681.26 147.34H681.96V147.82H675.1V147.34H675.8C676.63 147.34 677.22 147.11 677.57 146.66C677.78 146.38 677.89 145.75 677.89 144.76V133.15C677.89 132.37 677.79 131.8 677.6 131.45C677.46 131.2 677.21 130.99 676.85 130.82C676.49 130.65 675.9 130.57 675.1 130.57V130.1H680.67L687.74 143.95L694.72 130.1H700.29V130.57H699.61C698.77 130.57 698.17 130.8 697.82 131.25C697.61 131.53 697.5 132.16 697.5 133.15V144.76C697.5 145.85 697.64 146.53 697.91 146.8C698.27 147.17 698.83 147.35 699.61 147.35H700.29V147.83H691.94V147.35H692.64C693.48 147.35 694.07 147.12 694.41 146.67C694.62 146.39 694.73 145.76 694.73 144.77V132.91L687.19 147.83H686.71V147.81Z" fill="#EB1922"/>
</g>
<defs>
<clipPath id="clip0_551_1202">
<rect width="700.28" height="174.4" fill="white"/>
</clipPath>
</defs>
</svg>
