<?xml version="1.0" encoding="UTF-8"?>
<svg xmlns="http://www.w3.org/2000/svg" version="1.1" viewBox="0 0 128 32.9">
  <defs>
    <style>
      .cls-1, .cls-2 {
        fill: #004098;
      }

      .cls-2 {
        fill-rule: evenodd;
      }
    </style>
  </defs>
  <!-- Generator: Adobe Illustrator 28.7.1, SVG Export Plug-In . SVG Version: 1.2.0 Build 142)  -->
  <g>
    <g id="_图层_1" data-name="图层_1">
      <g>
        <path class="cls-2" d="M21.1,8.5c0,.1,0,.4.2.4h0s0,0,0,0c0-.1-.1-.3-.2-.4h-.1s0,0,0,0ZM21.6,8.6h.3c0,.2-.3.4-.4.5,0,0-.3.4-.3.4,0,.2.1.2.3.2,0-.4.1-.4.3-.7.1-.2.3-.4.5,0l-.3.2s0,0,0,0h0c-.1,0-.2.2-.2.3.1,0,.1-.1.2-.1.1,0,0,.1,0,.2h0c0,0,0,0,0,.1l-.4.2s0,0,.1,0h0s.2,0,.3,0c0,.2-.3.1-.4.3.2,0,.4.1.6-.1v-.3c0,0,0,0,0,0,0,0,.1,0,.2,0s0,0,0,0c0,0,0-.1,0-.1h-.3s0,0,0,0h0s.1-.2.1-.2h0c0-.1.2-.2.2-.2,0,0,.2,0,.2-.2h0c0-.2-.1-.3-.2-.4h-.2c0-.1.3-.2.3-.3s0,0-.2,0h0c0,0-.2.2-.5.2ZM19.3,9.2c0,.1.2.3.2.4h-.2c0,0-.1,0,0,.1,0,0,.1,0,.1.2,0,0-.2,0-.2,0s-.1,0-.1,0v.4s-.3.3-.3.3c0-.3.2-.5.2-.8h0c0-.2-.2,0-.2,0,0,0,0,0,0,.2h0c0,.3-.2.9,0,.9s.2-.2.2-.2c0,.2-.1.7.1.7s.2-.2.2-.3c0,0,.1.2.3.2s0,0,0,0c0-.1-.2-.1-.3-.4,0-.1,0-.1,0-.3,0,0,0-.2,0-.3s0,0,0-.1h0s0,.4,0,.4h0c0,.2.1.4.2.4.1,0,.3-.3.3-.3,0,0,.2.2.2.3.1.1.1.1.3.2,0-.2,0-.3-.1-.5,0-.1-.2-.3-.2-.4l.2-.3h0c0,0-.2,0-.2,0-.1-.2-.3,0-.4-.2,0-.1-.2-.2-.4-.2h0s0,0,0,0h0ZM19.2,10.4c0,0,0-.1,0-.1,0,0,0,0,0,0,0,0,0,0,0,.1,0,0,0,.1,0,.1,0,0,0,0,0,0ZM19.1,10.2s0,0,0,0,0,0,0,0c0,0,0,0,0,0ZM19.1,10.7s0,.2,0,.2c0,0,0,0,0-.1,0,0,0,0,0,0h0ZM19.6,10.3s0,0,0-.1c0,0,0,0,0,0s0,0,0,0ZM19.5,9.9s0,0,0,0c0,0,0,0,0,0,0,0,0,0,0,0h0ZM19.9,9.8h0s0,0,0,0c0,0,0,0,0,0,0,0,0,0,0,0ZM28.7,11.6c-.2,0-.3-.3-.3-.3,0,0,0,0,0,.2h0c0,.2.4.3-.1.3s-.1-.1-.2-.1,0,0,0,0h0c0,.1,0,.2.2.2h.1c.2,0,.3,0,.4-.1.1,0,.2,0,.3.1,0,0,.3.2.3.2h0s0,0,0,0c0-.1,0-.2-.1-.3,0,0,0,0,0-.1h0s0,.1,0,.1h0s-.2-.1-.2-.1c0-.1.4-.2.4-.4s0,0,0-.1h0s-.3.4-.5.4h0ZM28.2,12.5h0c0,.1.1.2.2.2s.1-.2.2-.2c0-.2,0-.2,0-.3,0-.1-.1,0-.2,0,0,0,0,.2,0,.3,0,0-.1.2-.1.2h0ZM16.9,11.4c0-.2.2-.4.3-.5.2.1,1,.7,1,1s-.1.1-.2.2h0c0,0-.2.2-.2.2h0c0,.1-.1.3-.3.3h0c0,0-.5-.5-.5-.6s.1-.3.2-.3h0c0,.2,0,.3,0,.3,0,0,0,.1.1.1h.2c0,0,0,0,0,0,0,0,.1,0,.2,0,.2,0,.2-.6.2-.8,0,0,0,0-.1,0-.3,0-.2.2-.4.2,0,0,0-.2-.2-.2h0c-.1,0-.1.3-.2.4-.1,0-.1-.3-.1-.4ZM16.7,11.7c0,.4.3.4.5.6.2.2.2.5.5.5h0c0-.1,0-.1,0-.1,0,0,.2-.2.2-.3,0-.2,0-.2.3-.2.3-.5,0-.6-.3-.9-.1-.2-.6-.6-.8-.6s-.6.6-.6,1ZM17.8,11.7s0,0,0,0c0,0,0,0,0,0s0,0,0,0c0,0,0,0,0,0h0ZM23.3,13c0-.1-.1-.2-.1-.3s.3-.2.5-.2h.1s.3,0,.3,0c-.2-.1-1.5-.3-1.9-.3,0,0,.5.3.6.4.2.1.4.3.5.4ZM30.4,13c0,0-.2.1-.2.2s0,0,0,0c.2,0,.3-.1.4-.2.2-.2-.1,0-.3,0ZM29.4,13.6h0c0,0,0,.1,0,.1,0,0,0,0,0,0,.2,0,0-.1.3-.2,0,0,.2,0,.3.1.1,0,.1.1.2.2v.2s0,0,0,0c0,0-.2,0-.2-.1,0,0-.1-.2-.2-.2h0s0,0,0,0c0,.1,0,0,.1.2-.2,0-.2,0-.3,0,0-.1-.1-.1-.2-.2,0-.1,0-.2-.2-.2,0,.4.3.4.3.6-.3,0-.3-.2-.3-.5,0,0-.1.1-.1.3s.2.4.3.4.2,0,.2-.1c.1,0,.2.3.3.3,0,0,.1,0,.1,0h0c0-.2-.2-.3-.2-.3s.1,0,.2,0h0c0,0,0,0,.1,0,0,0,.1.2.2.2h0c0,0,.2-.2.2-.3,0-.1,0-.2,0-.3,0,0,.2,0,.2.1,0,0,.1.2.2.2h0c0,0,.2,0,.2-.2,0-.2-.3-.2-.3-.4v-.2c-.1,0-.1.1-.2.2h0c-.3,0-.6-.1-.9-.2,0,0-.3.3-.3.3ZM15.9,13.6h-.2c0,0-.3.1-.3.2s.4.2.5.2c0,0,0,.4,0,.4,0,0,0,0-.1.1h.3c0,.1.2.1.2.1h0c0,0,0,0,.2,0h0c0-.2.1-.2.2-.2h0c0-.1,0,0,0,0h.5c-.1-.2-.2-.1-.2-.2,0-.1-.2,0-.3-.2,0-.2,0-.3,0-.4v-.2s0,0,0,0c-.2,0,0,.2-.2.2,0,0,0-.2,0-.3,0,0-.1-.2-.1-.2-.2,0-.2.4-.2.6ZM16,13.7v-.2c0,0,0,0,.1,0v.3c0,0,0,0-.1,0h0ZM16.2,14.3c0,0,0-.1,0-.2,0,0,0,0,.1,0h.2c0,.2-.1.2-.3.2ZM24.7,14.4h0c0,1.2-.7,2-1.2,2.6-.3.3-.7.6-1.1.8-.2.1-1.1.6-1.2.6.2,0,1.2-.5,1.4-.7.4-.2.8-.5,1.1-.9.4-.4.6-.7.8-1.2.1-.2.2-.5.2-.8,0-.4,0-.6,0-.9.1.2.3.8.3,1.2h0c0,.7-.2,1.2-.5,1.6-.1.2-.3.4-.4.6,0,0-.5.5-.5.6.3-.1.8-.9,1-1.1.2-.4.5-1,.5-1.6h0c0-.4,0-.7-.1-.9,0-.2-.2-.5-.3-.6.1,0,.5.7.6.9.1.3.3.7.3,1.2s-.1.9-.2,1.2c0,.2-.1.3-.2.5,0,.1-.2.4-.3.5.1,0,.5-.8.5-1,.1-.3.3-.8.3-1.2v-.3c0-.4-.2-1-.3-1.2-.1-.2-.2-.3-.3-.5,0,0-.3-.4-.3-.4.2,0,.8.6.9.8.3.4.4.6.6,1.1.1.4.2,1,0,1.5,0,.3,0,.5-.1.7,0,.2-.2.5-.2.7.2-.2.5-1.5.5-2h0c0-.5-.1-1-.3-1.3,0-.2-.1-.3-.3-.5-.1-.2-.2-.3-.3-.4-.2-.3-1.4-1.2-1.8-1.2,0,0,.3.2.4.2,0,0,.2.2.3.3.1.2.3.6.3,1h0Z"/>
        <path class="cls-2" d="M20.1,19.1c.6,0,1.1-.2,1.6-.2.5,0,1.1,0,1.1.5h.5c0-.6.6-.5,1.2-.5.5,0,1,.2,1.5.2h.7s-.4-.4-.4-.4h0c-.5,0-.8,0-1.2-.2-.2,0-.8-.3-1.1-.3h-.3c-.3,0-.6.3-.7.6-.1,0-.1-.4-.5-.6-.3,0-.7,0-.9,0-.7.2-.9.3-1.9.3h0s-.4.4-.4.4h.3s.4,0,.4,0Z"/>
        <path class="cls-2" d="M18,16.4c0-.7.2-1.5.5-2,.1-.3.3-.5.5-.8.2-.3.4-.4.6-.7.3-.3,1.1-.8,1.5-1,.7-.3,1.3-.4,2.1-.4,1.5,0,2.8.7,3.5,1.4.7.7,1.5,2,1.5,3.4v.4c0,1.3-.8,2.8-1.5,3.4-.9.8-1.9,1.4-3.5,1.4-2.7,0-5.1-2.2-5.1-4.9v-.3h0ZM17,15.6v.4c0,.4.2,1,.3,1.2.2.4.4.6.6,1,0,.8,0,1.1.2,1.7.2.4.4.9.7,1.2.6.6,1.4,1.2,2.6,1.2h.2c.3,0,.5,0,.7,0,.1,0,.6-.2.6-.2,0,0,.5.2.6.2.2,0,.5,0,.8,0h.2c1.1,0,2.2-.6,2.7-1.2.7-.8,1-1.4,1-2.8.1-.2.3-.3.4-.5.1-.2.2-.4.3-.6.2-.6.2-.9.2-1.5,0-.9-.7-2.1-1.2-2.5-.4-.3-.6-.5-1.1-.7-.2,0-.5-.1-.6-.3-.1-.2-.3-.4-.4-.5-.6-.6-1.4-1.2-2.6-1.2h-.4c-.7,0-1.6.4-2,.7-.2.2-.5.4-.7.7-.4.6-.2.3-.8.5-.7.3-1,.6-1.5,1.2-.3.4-.7,1.3-.7,2h0Z"/>
        <path class="cls-2" d="M23.1,11.8c2.6,0,4.8,2.1,4.8,4.8,0,2.6-2.1,4.8-4.8,4.8-2.6,0-4.8-2.1-4.8-4.8,0-2.6,2.1-4.8,4.8-4.8ZM23.1,12c2.5,0,4.6,2,4.6,4.6,0,2.5-2,4.6-4.6,4.6-2.5,0-4.6-2-4.6-4.6,0-2.5,2-4.6,4.6-4.6Z"/>
        <path class="cls-1" d="M20,15.9v-1h-.2c0,0,0,.1-.1.2,0,0-.1,0-.2,0v.2c0,0,.2,0,.2-.1v.7h.2ZM20.6,15.9c.1,0,.2,0,.3-.1,0,0,.1-.2.1-.4s0-.3,0-.4c0,0-.2-.1-.2-.1,0,0-.2,0-.2,0,0,0,0,.2,0,.2,0,0,0,.2,0,.2,0,0,.1,0,.2,0,0,0,.1,0,.2,0,0,.1,0,.2,0,.2,0,0,0,0-.1,0,0,0,0,0,0,0,0,0,0,0,0,0h-.2c0,0,0,.2,0,.2,0,0,.1,0,.2,0ZM20.6,15.4s0,0,0,0c0,0,0,0,0-.1s0-.1,0-.1c0,0,0,0,0,0,0,0,0,0,0,0,0,0,0,0,0,.1,0,0,0,0,0,.1,0,0,0,0,0,0ZM21.5,15.9c.1,0,.2,0,.3-.1,0,0,0-.1,0-.2,0,0,0-.2,0-.2,0,0-.1,0-.2,0,0,0,0,0-.1,0v-.2h.4v-.2h-.5v.5c0,0,0,0,0,0,0,0,0,0,.1,0,0,0,0,0,.1,0,0,0,0,0,0,.1s0,.1,0,.1c0,0-.1,0-.2,0,0,0,0,0,0,0,0,0,0,0,0-.1h-.2c0,.1,0,.2.1.2,0,0,.1,0,.2,0ZM22.4,15.9c0,0,.2,0,.2,0,0,0,0-.1,0-.2,0,0,0-.1,0-.1,0,0,0,0-.1,0,0,0,.1-.1.1-.2,0,0,0-.1,0-.2,0,0-.1,0-.2,0,0,0-.2,0-.2,0,0,0,0,.1,0,.2,0,0,0,0,0,.1,0,0,0,0,.1,0-.1,0-.2.1-.2.3,0,0,0,.2.1.2,0,0,.1,0,.2,0h0ZM22.4,15.3s0,0,0,0c0,0,0,0,0,0,0,0,0,0,0,0,0,0,0,0,0,0,0,0,0,0,0,0,0,0,0,0,0,0,0,0,0,0,0,0,0,0,0,0,0,0ZM22.4,15.8s0,0-.1,0c0,0,0,0,0-.1,0,0,0,0,0-.1,0,0,0,0,.1,0,0,0,0,0,.1,0,0,0,0,0,0,.1,0,0,0,0,0,.1,0,0,0,0,0,0Z"/>
        <path class="cls-2" d="M24.1,9.6c0-.2.3-.5.5-.5v.2s0,.1,0,.1h.2c0-.1,0,0,0,0,0,.1,0,.1,0,.2l-.4-.2v.4c.1,0,0,0,0,0-.1,0-.3-.1-.3-.2h0ZM24.7,8.5c0,0-.1.3-.2.5h-.2c-.1,0,0,0-.2.1,0-.1,0-.3.1-.4,0-.2.2-.1.2-.3,0,0,0,0-.2,0-.1,0,0,.3-.4.3s0,0-.1,0h0c0,.1.2.1.2.1,0,.1,0,.2-.1.3,0,0-.2.1-.3.1h0s-.2,0-.2,0c0,.1-.1.1-.1.2,0,0,0,.2.2.2h0s.2,0,.2,0c0,.2,0,.1,0,.3,0,.2,0,.1.2.2v-.3s0,0,0,0c0,0,0,.2.2.2h.2c.1,0,.2,0,.3,0,0,0,0,.2.2.2s.2,0,.2-.1h0c0-.2-.3-.3-.3-.3s0-.2,0-.3-.1-.1-.2-.2h0c.2,0,.2-.1.3-.2.1,0,.2,0,.2-.2-.1,0-.2,0-.3-.2h0c0-.2,0-.2-.2-.2s0,.1,0,.2ZM24.8,8.7s-.1.1,0,.2c0,0,.2,0,.2,0,0,0,0,0,0-.1,0,0,0,0,0,0ZM26.7,10.1c-.1,0-.2-.1-.3-.2,0,0,0,0,0,.2s0,.2.2.2h0,0c0,0-.1,0-.2,0h0c-.1,0-.3,0-.4,0-.2,0-.1.1-.3.2v.2s0,0,0,0c.2,0,.3-.2.4-.2s0,0,.1,0c0,0-.1.1-.1.3s0,0,0,.1c.1,0,.1-.4.3-.4v.3c0,0,0,.1.1.1s0,0,.1,0c0-.1,0-.3,0-.4,0,0,0-.2-.1-.2h-.2s.2-.3.2-.3h0s.5,0,.5,0h0s0,0,0,0l-.2-.2c0,0,0,.1,0,.1h0c0,0,0,0,0,0,0,0,.5-.5.2-.6,0,0-.3.5-.4.5h0ZM27.4,9.8h0c0,.2,0,.2,0,.2h0c0,0,0,.1.1.1.1,0,.1,0,.2-.1-.1-.2,0-.2-.3-.3,0,0,0,0,0,.1ZM26.3,10.4c0,0,0,0,.1,0s0,0,0,0c0,0-.1,0-.2,0ZM16.1,16.5v.4s0,0,0,0h0s0,0,0,0c0,0,0,0,0,0,0,0,0,0,0,0h-.4s0,0-.1,0c0,0,0,0,0,0,0,0,0,0,0,0,0,0,0,0,0,.1,0,0,0,0,0,0,0,0,.1,0,.2,0h.3s0,0,0,0c0,0,0,0,0,0,0,0,0,0,0,0h0s0,.3,0,.3h0s0,0,0,0c0,0,0,0,0,0,0,0,0,0,0,0,0,0,0,0,0,0h-.3c0,0-.1,0-.2,0,0,0,0,0-.1,0,0,0,0-.1,0-.2,0,0,0-.1,0-.2,0,0,0,0,0-.1,0,0,0,0,.1,0h.4s0,0,0,0c0,0,0,0,0,0,0,0,0,0,0,0,0,0,0,0,0,0ZM16,17.6h0s0,0,0,0c0,0,0,0,0,0,0,0,0,.1,0,.1,0,0,0,0-.1,0h-.2s0,0,0,0c0,0,0,0,0,0h0s0-.3,0-.3h0s0,0,0,0c0,0,0,0,0,0h.2s0,0,0,0c0,0,0,0,0,0,0,0,0,0,0,0h-.3c0,0,0,0,0,0,0,0,0,0,0,0h0s0-.3,0-.3h0s0,0,0,0c0,0,0,0,0,0h.3c0,0,0,0,0,0s0,0,0,0h0s0,.2,0,.2h0ZM16.4,18.1s0,0,0,0c0,0,0,0,0,0,0,0,0,0,0,0,0,0,0,0,0,0,0,0,0,0,0,0,0,0,0,0,0,0,0,0,0,0,0,0,0,0,0,0,0,0ZM16.1,18.2h-.4c0,.1,0,.1,0,.1,0,0,0,0,0,0h0s0-.3,0-.3h0s0,0,0,0c0,0,0,0,0,0h.3c0,0,0,0,0-.1,0,0,0,0,0,0h0s0,.2,0,.2h0ZM15.8,18.7l.3-.3s0,0,0,0c0,0,0,0,0,0h0s0,.3,0,.3h0s0,0,0,0c0,0,0,0,0,0,0,0,0,0,0,0h-.1c0,.1.2.2.2.2,0,0,0,0,.1,0,0,0,0,0,0,0,0,0,0,0,0,0h0s0,.2,0,.2h0s0,0,0,0c0,0,0,0,0,0h-.4s0,0,0,0h0ZM16.3,19.4v-.3c-.2,0-.2,0-.2.1,0,0,0,0,0,.1,0,0,0,0,0,0,0,0,0,0,0,0h0c0,0,0,0-.1,0,0,0,0,0,0,0,0,0,0-.1,0-.2,0,0,0,0,.1-.1,0,0,.1,0,.2,0,0,0,.1,0,.1.1,0,0,0,.1,0,.2,0,0,0,.1-.1.1ZM16.3,19.3s0,0,.1,0c0,0,0,0,0,0,0,0,0,0,0,0,0,0,0,0,0,0,0,0,0,0-.1,0h0s0,.2,0,.2h0ZM16.6,19.6h-.1c0,0,0,0,.1,0,0,0,0,0,0,0,0,0,0,0,0,0,0,0,0,0,0,0,0,0,0,0,0,0,0,0,0,0,0,0,0,0,0,0,0,0,0,0,0,0,0,0,0,0,0,0,0,0,0,0,0,0,0,0,0,0,0,0,0,0,0,0,0,0-.1,0h-.1c0,0,0,0,0,0,0,0,0,0,0,0,0,0,0,0,0,0,0,0,0,0,0,0h0s-.1-.2-.1-.2h0s0,0,0,0c0,0,0,0,0,0h.2c0-.1,0-.2,0-.2,0,0,0,0,0,0,0,0,0,0,0,0h0s0,.2,0,.2h0ZM17,20h-.1c0,0,0,0,0,0,0,0,0,0,0-.1,0,0,0,0,0,0,0,0,0,0,0,0,0,0,0,0,0,0,0,0,0,0,0,0,0,0,0,0,0,.1,0,0,0,0,0,.1,0,0,0,0,0,0,0,0,0,0,0,0,0,0,0,0,0,0,0,0,0,0,0,0,0,0,0,0,0,0,0,0,0,0,0,0,0,0,0,0,0,0h0s.2-.1.2-.1h0s0,0,0,.1c0,0,0,0,0,0,0,0,0,0,0,0,0,0,0,0,0,0,0,0,0,0,0,0,0,0,0,0,0,0,0,0,0,0,0-.1,0,0,0,0,0,0,0,0,0,0,.1,0,0,0,0,0,0,0,0,0,0,0,0,0,0,0,0,0,0,0,0,0,0,0,0,0,0,0,0,0,0,0h0ZM17.3,20.1s0,0,0,0c0,0,0,0,0,0,0,0,0,0,0,0,0,0,0,0,0,0,0,0,0,0,0,0,0,0,0,0,0,0,0,0,0,0,0,0,0,0,0,0,0,0ZM17.2,20.3l-.3.2s0,0,0,0c0,0,0,0,0,0h0s-.1-.2-.1-.2h0s0,0,0,0c0,0,0,0,0,0l.2-.2s0,0,0,0c0,0,0,0,0,0h0s.1.2.1.2ZM17.5,20.5h-.1c0,.1,0,.2,0,.2h0s0,0,0,0l-.2.2s0,0,0,0c0,0,0,0,0,0,0,0,0,0,0,0,0,0,0,0,0,0h0c0,0-.1,0-.2,0,0,0,0,0,0,0,0,0,0,0,0,0,0,0,0,0,0,0l.2-.2h0c0,0,0,0,0,0,0,0,.2,0,.3,0h0ZM17.2,21.3l.2-.4s0,0,0-.1c0,0,0,0,0,0h0s.2.2.2.2h0s0,0,0,0c0,0,0,0,0,0,0,0,0,0,0,0v.2c0,0,0,0,0,0,0,0,0,0,.1,0,0,0,0,0,0,0,0,0,0,0,0,0h0s.1.1.1.1h0s0,0,0,0c0,0,0,0-.1,0h-.4c0,.2-.1.2-.2.2,0,0,0,0,0,0,0,0,0,0,0,0,0,0,0,0,0,0,0,0,0,0,0,0,0,0,0,0,0,0,0,0,0,0,0,0,0,0,0,0,0,0,0,0,0,0,0,0,0,0,0,0,0,0,0,0,0,0,0,0,0,0,0,0,.1,0,0,0,0,0,0,0ZM18.2,21.5c0,0,0,.2,0,.2,0,0,0,0,0,.1,0,0,0,0-.2,0,0,0-.1,0-.2,0,0,0,0-.1,0-.2,0,0,0-.1,0-.2,0,0,.1,0,.2,0,0,0,.1,0,.2,0h0ZM18.1,21.5s0,0,0,0c0,0,0,0,0,0,0,0,0,0-.1.1,0,0,0,0,0,0,0,0,0,0,0,0,0,0,0,0,0,0,0,0,0,0,0,0,0,0,.2-.2.2-.3,0,0,0,0,0,0,0,0,0,0,0,0h0ZM18.5,22l-.2.3s0,0,0,0c0,0,0,0,0,0h0s-.2-.2-.2-.2h0s0,0,0,0c0,0,0,0,0,0,0,0,0,0,0,0l.2-.3h0c0,0,0,0,0,0h0c0,0,0,0,0,0h0c0,0,0,0,.1,0,0,0,.1,0,.1,0,0,0,0,0,0,0,0,0,0,0,0,0,0,0,0,0,0,0,0,0,0,0,0,0,0,0,0,0,0,0,0,0,0,0,0,0,0,0,0,0,0,0,0,0,0,0,0,0,0,0,0,0,0,0,0,0,0,0,0,0,0,0,0,0,0,0,0,0,0,0,0,0h0c0,0,0,.1,0,.1h0c0,0,0,0,0,0h0q0,0,0,0ZM19.4,22.2v.2c-.1,0-.2,0-.2,0,0,0,0-.1,0-.2,0,0,0,0,0-.1,0,0,0,0,0,0,0,0,0,0,0,0,0,0,0,0,0,0,0,0,0,0,0,0,0,0,0,0,0,.1,0,0,0,.2,0,.2,0,0,0,0,0,.1,0,0,0,0-.1,0,0,0-.1,0-.2,0,0,0,0,0,0,0,0,0,0,0,0,0,0,0,0,0,0,0,0,0,0,0,0,0,0,0,0,0,0,0h0s.2-.2.2-.2h0c0,0,0,.1,0,.2,0,0,0,.1,0,.1,0,0,0,0,0,0,0,0,0,0,0,0,0,0,0,0,0,0,0,0,0,0,0,0,0,0,0,0,0-.1,0,0,0-.1,0-.2,0,0,0,0,0-.1,0,0,0,0,0,0,0,0,0,0,.1,0,0,0,.1,0,.2,0,0,0,0,0,0,.1,0,0,0,0,0,0,0,0,0,0,0,0,0,0,0,0,0,0,0,0,0,0,0,0ZM19.5,23.1h0s0,0-.1,0c0,0,0,0-.1,0,0,0,0,0-.1-.2,0,0,0-.1,0-.2,0,0,0-.1.1-.1,0,0,.1,0,.2,0,0,0,0,0,0,0,0,0,0,0,0,.1,0,0,0,0,0,0,0,0,0,0,0,0,0,0,0,0,0,0,0,0,0,0,0,0,0,0,0,0,0,0,0,0,0,0,0,0,0,0,0,0,0,0,0,0,0,0,0,.1,0,0,0,0,0,.1,0,0,0,0,0,.1,0,0,0,0,0,0,0,0,0,0,0,0h0ZM20,22.6s0,0,0,0c0,0,0,0,0,0,0,0,0,0,0,0,0,0,0,0-.1,0,0,0,0,0,0,0,0,0,0,0,0,0,0,0,0,0,0,0,0,0,0,0,0,0ZM20,22.9l-.2.4s0,0,0,0,0,0,0,0h0s-.2-.1-.2-.1h0s0,0,0,0c0,0,0,0,0,0v-.3c.1,0,.2,0,.2,0,0,0,0,0,0,0h0s.2,0,.2,0ZM20.4,23.3h-.3s0,0,0,0c0,0,0,0,0,0,0,0,0,0,0,0,0,0,0,0,0,0h0c0,0,0,0-.1,0,0,0,0,0-.1,0,0,0-.1,0-.1-.1,0,0,0-.1,0-.2,0,0,0-.1.1-.2,0,0,.1,0,.2,0,0,0,0,0,.1.1,0,0,0,.1,0,.2h0ZM20.3,23.2s0,0,0-.1c0,0,0,0,0,0,0,0,0,0,0,0,0,0,0,0,0,0,0,0,0,0,0,.1h0s.1,0,.1,0ZM20.8,23.2h0s0,0,0,0c0,0,0,0,0,0,0,0,0,0,0,0,0,0,0,0,0,0,0,0,0,0,0,.1v.2c0,0,0,0,0,0,0,0,0,0,0,0h0s-.2,0-.2,0h0s0,0,0,0c0,0,0,0,0,0v-.2c0,0,0,0,0,0,0,0,0,0,0,0,0,0,0,0,0,0,0,0,0,0-.1,0v.3c0,0,0,0,0,0,0,0,0,0,0,0h0s-.2,0-.2,0h0s0,0,0,0c0,0,0,0,0,0v-.3c0,0,.1,0,0,0,0,0,0,0,0,0h0s.2,0,.2,0ZM21.5,23.8h0c0,0,0,0-.1,0,0,0,0,0-.1,0,0,0-.1,0-.1-.1,0,0,0-.1,0-.2,0,0,0-.1,0-.2,0,0,.1,0,.2,0,0,0,0,0,.1,0,0,0,0,0,0,0,0,0,0,0,0,0,0,0,0,0,0,0,0,0,0,0,0,0,0,0,0,0,0,0,0,0,0,0,0,0,0,0,0,0,0,0,0,0,0,0,0,0,0,0,0,0,0,.1,0,0,0,0,0,.1,0,0,0,0,0,.1,0,0,0,0,.1,0,0,0,0,0,0,0h0ZM22,23.8h-.3s0,0,0,.1c0,0,0,0,0,0,0,0,0,0,0,0,0,0,0,0,0,0h0c0,0,0,0-.1.1,0,0,0,0-.1,0,0,0-.1,0-.1-.1,0,0,0-.1,0-.2,0,0,0-.1.1-.2,0,0,.1,0,.2,0,0,0,0,0,.1,0,0,0,0,.1,0,.2ZM21.9,23.7s0,0,0-.1c0,0,0,0,0,0,0,0,0,0,0,0,0,0,0,0,0,0,0,0,0,0,0,.1h0s.1,0,.1,0ZM22.6,24c0,0-.1,0-.2,0,0,0,0,0,0,0,0,0,0,0,0,0,0,0,0,0,0-.1,0,0,.1,0,.2-.1h0c0,0,0-.1,0-.1,0,0,0,0,0,0,0,0,0,0,0,0,0,0,0,0,0,0,0,0,0,0,0,0,0,0,0,0,0,0,0,0,0,0,0,0,0,0,0,0,0,0,0,0,0,0,0,0,0,0,0,0,0,0,0,0,0,0,0,0,0,0,0,0,0,0,0,0,0,0,0,0,0,0,0,0,.1,0,0,0,0,0,.1,0,0,0,0,0,0,0,0,0,0,0,0,.1v.2s0,0,0,0c0,0,0,0,0,0,0,0,0,0,0,0,0,0,0,0,0,0h0s0,0,0,0c0,0,0,0,0,0,0,0,0,0,0,0,0,0,0,0,0,0ZM22.6,24v-.2s0,0,0,0c0,0,0,0,0,0,0,0,0,0,0,0,0,0,0,0,0,0,0,0,0,0,0,0ZM23.1,23.6h0s0,0,0,0c0,0,0,0,0,0,0,0,0,0,0,0,0,0,0,0,0,0,0,0,0,0,0,.1v.2s0,0,0,0c0,0,0,0,0,0h0s-.3,0-.3,0h0s0,0,0,0c0,0,0,0,0,0v-.2s0,0,0,0c0,0,0,0,0,0,0,0,0,0,0,0,0,0,0,0,0,0v.3s0,0,0,0c0,0,0,0,0,0h0s-.3,0-.3,0h0s0,0,0,0c0,0,0,0,0,0v-.3s0,0,0,0c0,0,0,0,0,0h0s.2,0,.2,0h0ZM24,23.3v.6c0,0,0,0,0,0,0,0,0,0,0,0,0,0,0,0,0,0h0s-.2,0-.2,0h0c0,0,0,0,0,0,0,0,0,0,0,0,0,0-.1,0-.2,0,0,0,0-.1,0-.2,0,0,0-.1,0-.2,0,0,0,0,0-.1,0,0,0,0,.1,0,0,0,0,0,0,0,0,0,0,0,0,0v-.2s0,0,0,0c0,0,0,0,0,0,0,0,0,0,0,0h0s.2,0,.2,0h0ZM23.9,23.6c0,0,0,0-.1,0,0,0,0,0,0,0,0,0,0,0,0,0,0,0,0,0,0,.1,0,0,0,0,0,.1,0,0,0,0,0,0,0,0,0,0,0,0,0,0,0,0,0,0,0,0,0-.3,0-.3ZM24.9,23.1v.2s0,0,0,0c0,0,0,0,0,0,0,0,0,0,0,0,0,0,0,0,0,0h0s.1.6.1.6c0,0,0,0,0,0,0,0,0,0,0,0,0,0,0,0,0,0h0s0,0,0,0h-.4c0,0,0,0,0,0h0s0,0,0,0c0,0,0,0,0,0,0,0,0,0,0,0v-.6c-.1,0-.2,0-.2,0,0,0,0,0,0,0,0,0,0,0,0,.1h0s0-.2,0-.2c0,0,.6-.2.6-.2ZM25.5,23.4h-.3c0,.1,0,.2,0,.2,0,0,0,0,0,0,0,0,0,0,0,0,0,0,0,0,0,0h0c0,0,0,.1,0,.2,0,0,0,0-.1,0,0,0-.1,0-.2,0,0,0,0-.1,0-.2,0,0,0-.2,0-.2,0,0,0-.1.1-.1,0,0,.1,0,.1,0,0,0,0,0,.1.2h0ZM25.3,23.4s0,0,0-.1c0,0,0,0,0,0,0,0,0,0,0,0,0,0,0,0,0,0,0,0,0,0,0,.1h0s.1,0,.1,0h0ZM26,23.4h0c0,0,0,0,0,.1,0,0,0,0,0,0,0,0-.1,0-.2,0,0,0,0,0-.1-.2,0,0,0-.1,0-.2,0,0,0-.1.1-.2,0,0,0,0,.1,0,0,0,0,0,0,0,0,0,0,0,0,0,0,0,0,0,0,0,0,0,0,0,0,0,0,0,0,0,0,0,0,0,0,0,0,0,0,0,0,0,0,0,0,0,0,0,0,0,0,0,0,0,0,.1,0,0,0,0,0,.1,0,0,0,0,0,0,0,0,0,0,0,0,0,0,0,0,0,0,0,0,0,0,0,0ZM26,22.6v.3c.1,0,.2,0,.2,0,0,0,0,0,0,0,0,0,0,0,0,0,0,0,0,0,0,0,0,0,0,0,0,.1v.2c.1,0,.1,0,.1,0,0,0,0,0,0,0h0s-.2.1-.2.1h0s0,0,0,0c0,0,0,0,0,0v-.2c-.1,0-.1,0-.1,0,0,0,0,0,0,0,0,0,0,0,0,0,0,0,0,0,0,0,0,0,0,0,0,0v.3c.1,0,.1,0,.2,0,0,0,0,0,0,0h0s-.2.1-.2.1h0s0,0,0,0c0,0,0,0,0,0l-.2-.5s0,0,0,0c0,0,0,0,0,0h0s.2-.1.2-.1ZM26.7,22.6h0s0,0,0,0c0,0,0,0,0,0,0,0,0,0,0,0,0,0,0,0,0,0,0,0,0,0,0,.1v.2c.1,0,.1,0,.1,0,0,0,0,0,0,0h0s-.2.1-.2.1h0s0,0,0,0c0,0,0,0,0,0v-.2c-.1,0-.1,0-.1,0,0,0,0,0,0,0,0,0,0,0,0,0,0,0,0,0,0,.1v.2c.1,0,.2,0,.2,0,0,0,0,0,0,0h0s-.2.1-.2.1h0s0,0,0,0c0,0,0,0,0,0v-.3c-.2,0-.2,0-.2,0,0,0,0,0,0,0h0s.2-.1.2-.1h0ZM27.2,22.2s0,0,.1,0c0,0,0,0,.1,0,0,0,0,0,.1,0,0,0,0,.1,0,.2,0,0,0,.1,0,.2,0,0-.1,0-.2,0,0,0-.1,0-.2-.1,0,0,0-.1,0-.2,0,0,0-.1,0-.2ZM27.2,22.3s0,0,0,0c0,0,0,0,0,0,0,0,0,0,0,.2,0,0,0,0,0,0,0,0,0,0,0,0,0,0,0,0,0,0,0,0,0,0,0,0,0,0,0,0,0,0,0-.1-.1-.2-.2-.3,0,0,0,0,0,0,0,0,0,0,0,0ZM27.5,21.7l.4.5s0,0,0,0c0,0,0,0,0,0h0s-.2.2-.2.2h0s0,0,0,0c0,0,0,0,0,0l-.3-.4s0,0,0,0c0,0,0,0,0,0h0s.2-.2.2-.2ZM27.9,21.6s0,0,.1,0c0,0,0,0,.1,0,0,0,0,0,.1,0,0,0,0,.1,0,.2,0,0,0,.1,0,.2,0,0-.1,0-.2,0,0,0-.1,0-.2,0,0,0,0-.1,0-.2,0,0,0-.1,0-.2ZM27.9,21.7s0,0,0,0c0,0,0,0,0,0,0,0,0,0,.1.1,0,0,0,0,0,0,0,0,0,0,0,0,0,0,0,0,0,0,0,0,0,0,0,0,0,0,0,0,0,0,0,0-.1-.2-.2-.3,0,0,0,0,0,0,0,0,0,0,0,0h0ZM28.4,21.1h.1c0-.1,0,0,0,0h0c0,0,0,0,0,0,0,0,0,0,0,.1,0,0,0,0,0,.1,0,0,0,0,0,0h0c0,0,0,0,0,0,0,0,0,0,0,0s0,0,0,0c0,0,0,0,0,0h0c0-.1,0-.1.1-.2,0,0,0,0,.1,0,0,0,0,0,0,0,0,0,0,0,0,0,0,0-.1.2-.2.2,0,0,0,0,0,0,0,0,0,0,0,0,0,0,0,0,0,0,0,0,0,0,0,0,0,0,0,0-.1,0,0,0,0,0,0,0,0,0,0,0,0-.1,0,0,0,0-.1,0,0,0,0,0,0,0,0,0,0,0,0-.1,0,0,0-.1,0-.2,0,0,0,0,0,0h0ZM28.3,21.2s0,0,0,0c0,0,0,0,0,.1,0,0,0,0,0,0,0,0,0,0,0,0,0,0,0,0,0,0,0,0,0,0,0,0,0,0,0,0-.1,0,0,0,0,0,0,0ZM28.7,21.7s0,0,0,0c0,0,0,0,0,0s0,0,0,0c0,0,0,0,0,0,0,0,0,0,0-.1,0,0,0,0,0,0,0,0,0,0,0,0,0,0,0,0,0,0,0,0,0,0-.1.1h0ZM29.1,21.1h-.4c0-.1,0-.1-.1-.1,0,0,0,0,0,0h0s.2-.2.2-.2h0s0,0,0,0,0,0,0,0c0,0,0,0,0,0h.2c0,0,0,0,0,0,0,0,0,0,0,0,0,0,0,0,0,0,0,0,0,0,0,0h0s.1-.2.1-.2h0s0,0,0,0c0,0,0,0,0,.1l.2.4c0,0,0,.2,0,.2,0,0,0,0,0,.1,0,0,0,0,0,0,0,0,0,0,0,0,0,0,0,0,0,0,0,0,0,0,0,0,0,0,0,0,0,0,0,0,0,0,0,0,0,0,0,0,0,0s0,0,0,0c0,0,0,0,0,0,0,0,0,0,0-.1,0,0,0,0,0,0ZM29.1,20.1s0,0,0,0c0,0,0,0,.1,0,0,0,0,0,.1,0,0,0,.1,0,.1.1,0,0,0,.1,0,.2,0,0,0,.1-.2.1,0,0-.1,0-.2,0,0,0-.1,0-.1-.2,0,0,0-.1,0-.2ZM29.1,20.1s0,0,0,0c0,0,0,0,0,0s0,0,.1,0c0,0,0,0,0,0,0,0,0,0,0,0,0,0,0,0,0,0,0,0,0,0,0,0,0,0,0,0,0,0,0,0-.2-.1-.3-.2,0,0,0,0,0,0,0,0,0,0,0,0ZM29.4,19.6l.3.2s0,0,0,0c0,0,0,0,0,0h0s-.1.3-.1.3h0s0,0,0,0c0,0,0,0,0,0,0,0,0,0,0,0l-.3-.2h0c0,0,0,0,0,0h0c0,0,0,0,0,0h0s0,0,0-.1c0,0,0-.1,0-.2,0,0,0,0,0,0,0,0,0,0,0,0,0,0,0,0,0,0,0,0,0,0,0,0,0,0,0,0,0,0,0,0,0,0,0,0,0,0,0,0,0,0,0,0,0,0,0,0,0,0,0,0,0,0,0,0,0,0,0,0,0,0,0,0,0,0,0,0,0,0,0,0h0s0,0,0,0h0c0,0,0,0,0,0h0c0,0,0,0,0,0ZM29.6,18.5h.2c0,0,0,.1,0,.1,0,0-.1,0-.2,0,0,0-.1.2-.1.3,0,0,0,0,0,.1,0,0,0,0,.2.1,0,0,.1,0,.2,0,0,0,0,0,.1,0,0,0,0,0,0-.1,0,0,0,0,0-.1,0,0,0-.1,0-.2h0c0,0,0,.1,0,.2,0,0,0,.1,0,.2,0,0,0,.1-.1.2,0,0-.1,0-.2,0,0,0-.1,0-.2,0-.1,0-.2-.2-.2-.3,0-.1,0-.3.1-.4,0,0,0,0,0,0,0,0,0,0,0,0,0,0,0,0,0,0,0,0,0,0,0,0ZM29.7,18.2h.3c0,0,0,0,0,0,0,0,0,0,0,0,0,0,0,0,0,0,0,0,0,0,0,0,0,0,0,0,.1,0h.2c0,0,0,0,0,0s0,0,0,0h0s0,.3,0,.3h0s0,0,0,0c0,0,0,0,0,0h-.2c0,0,0,0,0,0,0,0,0,0,0,0,0,0,0,0,0,0,0,0,0,0,0,0h.3c0,0,0,0,0,0,0,0,0,0,0,0h0s0,.3,0,.3h0s0,0,0,0c0,0,0,0,0,0h-.5c0-.2,0-.2,0-.2,0,0,0,0,0,0h0s0-.2,0-.2ZM29.8,17.8s0,0,0,0c0,0,0,0,0,0,0,0,0,0,0,0,0,0,0,0,0,0,0,0,0,0,0,0,0,0,0,0,0,0,0,0,0,0,0,0,0,0,0,0,0,0ZM30.1,17.7h.4c0,0,0,0,0,0,0,0,0,0,0,0h0s0,.3,0,.3h0s0,0,0,0c0,0,0,0,0,0h-.3c0,0,0,0,0,0,0,0,0,0,0,0h0s0-.2,0-.2h0ZM30.1,17.4h0s0,0,0,0c0,0,0,0,0,0,0,0,0-.1.1-.1,0,0,0,0,.1,0h.2s0,0,0,0,0,0,0,0h0s0,.3,0,.3h0s0,0,0,0c0,0,0,0,0,0h-.2s0,0,0,0c0,0,0,0,0,0,0,0,0,0,0,0h.3s0,0,0,0c0,0,0,0,0,0h0s0,.3,0,.3h0s0,0,0,0c0,0,0,0,0,0h-.3s0,0,0,0c0,0,0,0,0,0h0s0-.2,0-.2h0ZM30.7,16.7c0,0,0,.1,0,.2,0,0,0,0,0,0,0,0,0,0,0,0,0,0,0,0,0,0,0,0,0-.2-.1-.2h0s0,0,0,0c0,0,0,0,0,0,0,0,0,0,0,0,0,0,0,0,0,0,0,0,0,0,0,0,0,0,0,0,0,0,0,0,0,0,0,0,0,0,0,0,0,0,0,0,0,0,0,0,0,0,0,0,0,0,0,0,0,0,0,0,0,0,0,0,0,0,0,0,0,0,0,0,0,0,0,0,0-.1,0,0,0,0,0-.1,0,0,0,0,0,0,0,0,0,0,.1,0h.2s0,0,0,0c0,0,0,0,0,0,0,0,0,0,0,0,0,0,0,0,0,0h0s0,0,0,0c0,0,0,0,0,0,0,0,0,0,0,0,0,0,0,0,0,0ZM30.6,16.7h-.2s0,0,0,0c0,0,0,0,0,0,0,0,0,0,0,0,0,0,0,0,0,0,0,0,0,0,0,0Z"/>
        <path class="cls-2" d="M23.1,7.5c5,0,9.1,4.1,9.1,9.1s-4.1,9.1-9.1,9.1-9.1-4.1-9.1-9.1c0-5,4.1-9.1,9.1-9.1ZM23.1,8c4.7,0,8.6,3.9,8.6,8.6s-3.9,8.6-8.6,8.6-8.6-3.9-8.6-8.6,3.9-8.6,8.6-8.6ZM40.8,11.5v-1.2c-.2-.3-1.3-1.3-1.6-1.2-.3,0-.4,2.2-.3,2.7-.4.2-1.8,1-1.8,1-.3.1-.4-.3-.8-.4l-.2,1.3.2.7h0c.1.5.4.2.7,1.1h.3c.4-.2.6.3.8.8h.5s-.1,0-.1,0l.8,2.4c.6-.7.2-.9.6-1.4.4-.5,0-1,.3-1.7,1-.3,1.2-.8,1.5-.9l1.1-.2c0,0,.1-.3.1-.4-.2-.8-1.1,0-1.4-.8.3-.2.9-.5,1.1-.7.3-.3.8-.8.9-.9-.3-.9-1.8-.3-2.8-.3ZM40.5,12.3l1.1-.2c.2,0,.2.2,0,.3l-1.2,1c-.2-.1-.2-.5,0-1.2ZM37.7,14c.2-.3.4-.5.7-.5.2,0,.2.4.3.7l-.3.9c-.4,0-.6-.3-.8-1.1ZM48.9,10.5c.7-.7,2.1-.8,2.8-.6.4,1.3.9,6,0,7.1-.4.5-.9,0-1.3-.2l-.2.4-.9-.3v.3c-.5,0-1.2.4-1.7,0l-.2-.2c.2-.4,0-3.2.5-3.8.2-.2,1.2-.5,1.5-.2l-.2.2c-.3.3-.7.6-1.1.8-.1.3-.2.6-.1.8l.9.5-.5.4c0,.3,0,.7.3,1,.5.6,2.5-1.4,3.2-1.8,0-.2.1-.5,0-.7-.8-.9-1,0-2-.9.2-.3.5-1.2.2-1.5v-.2c-.6-.5-1.6.6-2.1.9-.1-.6.4-1.4,1-2ZM47.2,10.9c-1.2,1.3-.5,2.4-.5,3.7,0,1.5-1,2.5,0,3.7l.5-.4.3.3c.2.3,1.3,0,1.6,0,.9-.3.7-.5,1.7.6,2.7-.6,1.8-2,2-4,0-1.1.2-4.2-.6-5.1-.9-1-3.9,0-5,1.2ZM50.8,14.6s0-.2.2,0,.1.3,0,.4c0,0-.1,0-.2,0,0-.1,0-.3,0-.3ZM48.6,14.5c0,0,.3-.3.4-.3.2,0,.2.1,0,.3-.1.2-.2.2-.3.2s-.2,0-.1-.1ZM49.7,14.2c0,0,0-.3.1-.3s.2,0,0,.1c0,.1,0,.1,0,.2,0,0-.2,0-.2,0ZM62.8,9.4c-.3.5,0,1.6-.4,2.2l-.5-.7c-.4,0-.8,0-.7.6.2.6.4.7,0,1.2-.2-.2-.5-.8-.6-.9-.1,0-.5-.2-.6,0l-.8,1.6-1.8.3c.9-1,2-1.6,2.9-3v-.2c.4-.6-.6-.6-.7-.5-.2.3,0,.4-.2.8v.2c-.7.9-3.2,2.9-2.5,3.4.3.2,1-.2,1.3-.2-.5.6-2.3,2.7-1.4,3.4.5.4,1.4-.3,1.8-.8.3.4.2,1.1.6,1.4.1.1.3.1.4,0,.3-.5-.5-1.2,0-2.3.2-.6.5-.5.7-1,.2-.4.3-.8.6-1.3.1-.2.2-.2.4-.4l.2.2-.7,1.7s-.6.4-.6.4c-.1.2-.1,1.4,0,1.5.4.3,1.9-.4,2-.3.3.3.1,1.3.1,1.8,0,.9.2,1,.5,1.8.3-.6.7-1.8.8-2.4.1-.8.2-1.8.3-2.4l1.7-.5v-.5c0,0-.7-.4-.7-.4,0-1.2-.9-1.1-.8-2,.1-.7-.3-1.6-.9-2.1h0c-.1-.2-.3-.2-.4,0h0ZM59.5,14.4c.2-.3.1-.6.3-.6.2,0,.4-.1.5,0,0,.1,0,.4-.2.5-.2.1-.4.4-.4.4,0,0-.3,0,0-.3h0ZM59.8,13.1c0,.2.2.3.4,0,.1-.2.1-.4,0-.4-.2,0-.2.1-.3.3ZM58.6,15.2c-.1-.1-.6.8-.5.9.1.1.3-.2.5-.3.2,0,.1-.5,0-.6ZM61.4,15.3c0-.2.1-.3.4-.3.3,0,.3.2,0,.3-.2,0-.4.2-.5,0ZM62.1,12.9c0,0,.1-.2.3,0,.2,0,.1.1-.1.3-.2.1-.2-.1-.2-.2ZM63.8,14h.2c0,0,0,.2,0,.2,0,0,0,0-.2,0-.2,0,0-.2,0-.2ZM68.9,9.8c.1.8-.6,2,.4,2.1h.2c.2,0,.3,0,.4-.1.2-.7-.2-1.5-.4-2.1,0,0-.2,0-.3,0,0,.2,0,0-.3,0h0Z"/>
        <path class="cls-2" d="M70.3,10.7l1.2.7c-.4.4-1.5,1.1-2.1,1.5-.2.2-1.8,1.8-1.8,2-.2,1,.4,1.3,1.2,1.4.3-1.8,1-2.1,1.9-3,.8-.9,1.9-1.8,2.6,0l-1.4.9c-.1,0-.2-.1-.4-.2h-.3c-.7-.1-1,.7-1,1.2.5,0,.7-.6,1.1-.6.6,0,0,.7-.1,1.2h0c0,.4.1.5.2.7l-2.1.5c.1.2.2.4.6.4h.3c.2,0,1-.1,1.5-.2-.2,1.1-1.7.5-2.1,1.2,1.2.2,2,.9,2.9-.2v-1.3c-.1,0,.2,0,.2,0,.3.1.5.3.8.3.1,0,.4-.2.4-.4,0-.3,0-.7-.3-.7l-1.4-.2-.2.4-.4-.2.6-.9v-.7s.8,0,.8,0c.3-.3.8-.4.9-.7v-.2c.1-.7-.5-1.4-.9-1.8l-.8-.3c.4-.5,1.7-.5,1.8-1.1,0-.4-.4-.5-.8-.6h-.4c-.3-.1-1.2.8-2.5.7h0ZM80.3,16.3c-.1-1,1-2.9,1.8-2.8v1.1c0,.1.3.5.4.6l.7-.7v.4c.2.5,0,.6,0,1.1l-1.8-.5.9,1.7h-.6c-.5.2-1.3-.3-1.4-.9ZM82.7,10.3c0,.3-.3,1.7-.4,2.4h-.7c-.5.2-.2.6-.7.9.2-.6.2-1.5.4-2,.3-.8.8-.8.9-1.6-.2,0-.5-.1-.7-.1-.6,0-.2,1.7-1.8,2-.4,0-.2,0-.7,0l.3.6h1c0,0-.3,1.5-.3,1.7-.1.5-.9.8-1.5.9h-.1s-.9,0-.9,0c-.3.7-.5.8-.5,1.2.3.4.3.8.9.7h.1s1.1-.3,1.1-.3c.1.8.3.6.6,1.2.4.9,0,.6.9.9l-.3-1.4h.2c.2.4.4.9,1,.8h.7c.6-.2,1-.5,1.4-.2.4.3.5.8,1.1.7.3,0,.7-.5.6-.8v-.2c-.2-1-1.4-1-1.5-1.3,0-.4.2-1.1.1-1.8,0-.6-.8-.6-1.3-.8v-.5c1-.1.9-.4,1.3-.8.5-.4,1-.4.9-1.1-.7,0-1.2-.2-1.6-.8v-.5c0-.3-.2-.7-.7-.6-.6,0-.1.6,0,.8ZM83.3,11.3c-.2,0-.4.8-.3,1,.1.2.8-.1.8-.1,0,0,.2-.3-.1-.5-.2-.2-.2-.4-.4-.3h0ZM91.3,12.9c-.5.3-1,0-1.3,0,0,.4,0,.4.2.8.2.4.5.5.9.3l.3-.2v.4c-.3.1-.6,0-.8,0h0c-.6.4-.9.9-1.3,1.4-.6.7-.2.9-.5,1.7l.4.9c.2,0,.2,0,.4,0,.7-.4.8-1.6,1-1.8.3-.2.4-.1.7,0,0,.5-.2.9.2,1.7.2.4.3.4.5.4.3-.7-.4-2.1.3-2.6l.5,1.6c.1.3.8.3,1,0,.3-.2.3-.3.3-.5-.3-.6-.5-1.3-.6-2-.1-.3-.7-.6-.8-.5l-.7.5v-1.7c.1,0,.2,0,.2,0l2.1-1.2h0c0,.1,0-.3,0-.3l-1.3-.3c.1.3.2.5-.1.7l-.3.2c-.3.2,0,0-.3,0,0-.1.6-3.5-.6-2.9.1.5-.2,3.2-.5,3.3ZM93.3,10l.3.6c.1.2.2.2.4.3v.3c.3,0,.5.1.8,0,.5-.3.3-.5.3-1-1-.7-.7-.6-1.9-.7,0,.2,0,.3.2.5h0ZM90.5,15.5c-.4-.2.1-.6.4-.7.2-.2.2-.1.3.3.1.4-.3.6-.7.5ZM100.5,12.9c-.5.7-2,.3-2.5.5,0,.4.2.6.6.8h.2c.5.5,2.5-.8.9,1.5-.2.3-1,.2-1.3.7-.2.2-.1.3,0,.5h0c.5.4,1.2.4,1.6-.1l.3-.5c.5-.7.6-1.6.7-2.3.6-.3.9-.6,1.6-.9.3,0,1.6-.6,1.7-.7h0c.2-.3,0-.4,0-.6-.4-.3-.8,0-1.5-.1-.2,0-.5-.4-.8-.3h0c0-.1.3.7.3.7h.1c0,0-1.2.4-1.2.4-.2-.7.3-2.6-.6-3.2-.3-.2-.1,0-.6-.1l-.2.3c-.1.2,1,2.6.4,3.5ZM103,17.8l.5.3c.3-.3.5-.3.8-.8.3-.4-.3-1.1-.6-1.4-.8-.8-.7-.5-1.5-.9-.7,0-.8.3-.7.7.3.3.8.7,1,1,.2.3.4,1,.6,1.1ZM108.1,9.9c0,.3.2,1,.6,1.3.3.1.4,0,.6,0,.2-.8,0-1.5-.1-2.2-.4-1.4-.7.4-1.1,1.1ZM108.4,16.2h.3c0-.1.3.2.3.2.1,0,.3-.1.4-.2.6-1-.3-.7-.2-1.7.4-.3.8-.7,1.2-1,.6-.3,1-.3,1.4-.4l.8.2v.5c-.3.2-.6.6-1,.7-.3.1-1,.2-1.2.5h0c0,.3-.1.4,0,.5.5.3.4-.3,1.1-.2-.4.9-.5.7-.4,1.6-.7,0-.7.2-1.5.2-.7,0-1.2-.3-1.4.5,1.8,1,2.4-.1,3.3.3-.9,1.6-1.8.7-3.1.4,0,.5.4.9,1,1.2.8.4,2.4,0,2.6-.4.1-.2,0-.9,0-1.2.6-.3,1.7-.4,1.8-.6.2-.3.2-.7,0-.8h-.1c-.8-.5-1.4.5-1.8.3-.5-.3,0-.6.4-1.1l.2-.3c.2-.4.2-.4,0-.7.3-.4,1-.2,1.3-.6h0c.2-.5-.4-1.2-.8-1.5-.7-.4-1-.3-1.5-.4.4-.2.7-.6,1.1-.7.4-.1,1.1,0,1.3-.4h0c.2-.4,0-1-.3-1.2-1-.5-1.5.9-2.4.3l-.9-.4c-.2.5.2.9.4,1.4h.9c-.7.6-1.7,1.4-2.5,2.1-.2.2-.4.4-.7.6-.2.1-.5.2-.6.3.2.3.3.6.3.9l.5,1h0ZM36.1,21h1.3c0,0,0,0,0,0,0,0-.2,0-.2,0,0,0,0,0,0,0,0,0,0,.1,0,.3v1.4c0,.3,0,.4,0,.5,0,0,0,.2.2.2,0,0,.2,0,.3,0,.3,0,.5-.1.6-.4,0-.1,0-.3,0-.6v-1.2c0,0,0-.2,0-.3,0,0,0,0,0-.1,0,0-.2,0-.2,0h0c0,0,.9,0,.9,0h0c0,0,0,0,0,0,0,0-.1,0-.2,0,0,0,0,0,0,.1,0,0,0,.2,0,.2v1.1c0,.3,0,.6,0,.7,0,.2-.1.3-.3.4-.2.1-.4.2-.6.2s-.4,0-.5,0c-.1,0-.3-.2-.3-.3,0-.1,0-.3,0-.6v-1.4c0-.2,0-.3,0-.3,0,0,0,0,0,0,0,0-.1,0-.2,0h0ZM39.6,21.9v.3c0,0,.2-.2.3-.2,0,0,.2,0,.3,0,.1,0,.2,0,.3.1,0,0,.1.2.1.3,0,0,0,.2,0,.5v.8c0,.2,0,.2,0,.3s0,0,.2,0h0c0,0-.9,0-.9,0h0c0,0,.1-.1.1-.2,0,0,0-.1,0-.3v-.9c0-.2,0-.3,0-.3,0,0,0,0,0,0,0,0,0,0,0,0-.1,0-.2,0-.3.3v1c0,.1,0,.2,0,.3,0,0,0,0,.1,0h0c0,0-.9,0-.9,0h0c0,0,.1-.1.2-.2,0,0,0-.1,0-.3v-1.1c0-.1,0-.2,0-.3,0,0,0,0-.2,0h0c0,0,.7,0,.7,0ZM41.6,20.9c0,0,.2,0,.2,0,0,0,0,.1,0,.2,0,0,0,.2,0,.2,0,.1-.3.1-.4,0,0,0,0,0,0,0,0,0,0-.1,0-.2,0,0,0-.2,0-.2,0,0,.1,0,.2,0ZM41.8,21.9v1.5c0,.1,0,.2,0,.3,0,0,0,0,.2,0h0c0,0-.9,0-.9,0h0c0,0,.1-.1.2-.1,0,0,0-.1,0-.3v-1.1c0-.1,0-.2,0-.3,0,0,0,0-.2,0h0c0,0,.7,0,.7,0h0ZM43.1,23.9l-.6-1.5c0-.1,0-.2-.2-.3,0,0,0,0-.1,0h0c0,0,.9,0,.9,0h0c0,0,0,0-.1.1,0,0,0,0,0,.1,0,0,0,.1,0,.3l.3.7.2-.6c0-.2,0-.3,0-.4,0,0,0,0,0-.1,0,0,0,0-.1,0h0c0,0,.6,0,.6,0h0c0,0,0,.1-.1.1,0,0,0,.1-.2.3l-.6,1.5h0,0ZM45.8,22.8h-.9c0,.3,0,.5.2.6,0,.1.2.2.3.2,0,0,.1,0,.2,0,0,0,.1-.2.2-.2h0c0,.3-.2.4-.3.5-.1,0-.2.1-.4.1-.2,0-.5-.1-.6-.3-.1-.2-.2-.4-.2-.7,0-.3,0-.6.2-.8.2-.2.3-.3.5-.3s.3,0,.5.2c.1.2.2.4.2.7ZM45.3,22.7c0-.2,0-.4,0-.5,0,0,0-.1,0-.2,0,0,0,0-.1,0,0,0-.1,0-.2.1,0,.1-.1.3-.1.5h0c0,0,.5,0,.5,0ZM46.8,21.9v.4c.1-.2.2-.3.3-.4,0,0,.2,0,.2,0,0,0,.1,0,.2,0,0,0,0,.1,0,.2,0,0,0,.2,0,.2,0,0,0,0-.1,0,0,0-.1,0-.2,0,0,0,0,0,0,0,0,0,0,0,0,0,0,0,0,0,0,0,0,0,0,.1-.1.2,0,.1,0,.3,0,.4v.4h0c0,.2,0,.2,0,.3,0,0,0,0,0,0,0,0,0,0,.1,0h0c0,0-.9,0-.9,0h0c0,0,.1-.1.2-.1s0-.1,0-.3v-1.1c0,0,0-.1,0-.2,0,0,0,0,0,0,0,0,0,0-.1,0h0c0,0,.7,0,.7,0ZM49,21.8v.7s0,0,0,0c0-.2-.2-.3-.2-.4,0,0-.1-.1-.2-.1,0,0,0,0-.1,0,0,0,0,0,0,.1,0,0,0,0,0,.1,0,0,.2.2.3.3s.3.3.4.4c0,0,0,.2,0,.3,0,.1,0,.2,0,.3,0,.2-.3.3-.5.3-.1,0-.2,0-.3,0,0,0,0,0,0,0,0,0,0,0-.1.1h0v-.7s0,0,0,0c0,.2.1.3.2.4,0,0,.2.1.3.1s.1,0,.1,0c0,0,0,0,0-.2,0,0,0-.1,0-.2,0,0-.2-.2-.2-.2-.2-.1-.3-.3-.4-.3-.2-.2-.2-.6,0-.8,0-.1.2-.2.4-.2,0,0,.2,0,.3,0,0,0,0,0,0,0s0,0,0,0c0,0,0,0,0,0h0,0ZM49.9,20.9c0,0,.2,0,.2,0,0,0,0,.1,0,.2,0,0,0,.2,0,.2,0,.1-.3.1-.4,0,0,0,0,0,0,0,0,0,0-.1,0-.2,0,0,0-.2,0-.2,0,0,.1,0,.2,0h0ZM50.2,21.9v1.5c0,.1,0,.2,0,.3s0,0,.2,0h0c0,0-.9,0-.9,0h0c0,0,.1-.1.2-.1,0,0,0-.1,0-.3v-1.1c0-.1,0-.2,0-.3s0,0-.2,0h0c0,0,.7,0,.7,0ZM51.3,21.2v.7h.4v.2h-.4v1.2c0,.1,0,.2,0,.2,0,0,0,0,0,0,0,0,0,0,0,0,0,0,.2,0,.2-.2h0c0,.3-.3.4-.5.4-.1,0-.2,0-.3-.1,0,0-.1-.1-.1-.2,0-.1,0-.3,0-.4v-1.1h-.2c.2-.2.3-.3.4-.5.1-.1.2-.3.3-.5h0ZM52.8,23.9l-.6-1.4c0-.2-.1-.4-.2-.4,0,0,0,0-.1-.1h0c0,0,.9,0,.9,0h0c0,0-.1,0-.1.1,0,0,0,0,0,0,0,0,0,.2,0,.3l.3.8.2-.6c0-.2.1-.4.1-.4,0,0,0,0,0-.1,0,0,0,0-.2,0h0c0,0,.6,0,.6,0h0c0,0-.1.1-.1.1,0,0,0,.2-.2.4l-.5,1.4c-.1.4-.2.6-.3.7,0,.1-.2.2-.3.2-.2,0-.3-.1-.3-.3,0,0,0,0,0,0,0,0,0-.1,0-.2,0,0,0,0,.2,0,0,0,.1,0,.1,0,0,0,0,.1,0,.2,0,0,0,0,0,.1,0,0,0,0,0,0,0,0,0,0,0,0,0,0,.1-.2.2-.4,0,0,0-.2,0-.2ZM55.6,21.8c.2,0,.3,0,.4.1.1,0,.2.2.3.4,0,.2,0,.3,0,.5,0,.3,0,.5-.2.7-.1.2-.4.3-.6.3-.2,0-.5-.1-.6-.3-.1-.2-.2-.5-.2-.7,0-.3,0-.5.2-.7.1-.2.4-.3.6-.3h0ZM55.6,22c0,0-.1,0-.2,0,0,0,0,.2,0,.3,0,.2,0,.4,0,.7,0,.1,0,.3,0,.4,0,0,0,.2,0,.2,0,0,0,0,.2,0,0,0,.1,0,.1,0,0,0,0-.1,0-.2,0-.1,0-.4,0-.8,0-.2,0-.3,0-.5,0,0,0-.1-.1-.2,0,0,0,0-.1,0ZM57.5,22.1v1.3c0,.1,0,.2,0,.2,0,0,.1,0,.2,0h0c0,0-1,0-1,0h0c0,0,.1,0,.2-.1,0,0,0,0,0,0,0,0,0-.1,0-.2v-1.3h-.2v-.2h.2c0-.1,0-.2,0-.2,0-.2,0-.4.2-.5s.3-.2.5-.2.3,0,.3,0c0,0,.1.1.1.2,0,0,0,.1,0,.2,0,0-.1,0-.2,0,0,0-.1,0-.2,0,0,0,0,0,0-.1,0,0,0,0,0,0,0,0,0,0,0,0,0,0,0,0,0,0,0,0,0,0,0,0,0,0,0,0,0,0,0,0,0,0,0,.2v.4s0,.2,0,.2h.3v.2h-.3ZM60.5,20.9v.9s0,0,0,0c0-.2-.1-.4-.3-.6-.1-.1-.3-.2-.5-.2-.1,0-.2,0-.3.1-.1.1-.1.3,0,.4,0,0,.1.1.2.2,0,0,.2.1.4.2.3.2.5.3.6.5.1.1.2.3.2.5,0,.2,0,.4-.2.6-.2.2-.4.3-.6.3,0,0-.2,0-.2,0,0,0-.2,0-.3-.1,0,0,0,0-.1,0,0,0,0,0-.1,0,0,0,0,0,0,.1h0v-1.1h0c0,.3.2.5.3.7.2.2.3.2.5.2.1,0,.2,0,.3-.1,0,0,.1-.2.1-.3,0,0,0-.1,0-.2,0,0,0-.1-.1-.2-.1,0-.2-.2-.3-.2-.2,0-.3-.2-.5-.3,0,0-.2-.2-.2-.3,0-.1,0-.2,0-.4,0-.2,0-.4.2-.6.1-.2.3-.2.6-.2.2,0,.3,0,.4.1,0,0,.1,0,.2,0,0,0,0,0,0,0,0,0,0-.1,0-.2h0ZM62.5,23.3h0c0,.2-.2.3-.3.4-.1,0-.2.1-.4.1-.2,0-.4-.1-.5-.3-.1-.2-.2-.5-.2-.7,0-.2,0-.5.2-.7.2-.2.4-.4.6-.4s.3,0,.4.2c0,0,.2.2.2.3,0,0,0,.1,0,.2,0,0-.1,0-.2,0,0,0-.1,0-.2,0,0,0,0-.2,0-.3,0,0,0-.1,0-.2,0,0,0,0,0,0,0,0-.1,0-.2.1,0,.1,0,.3,0,.5s0,.4,0,.5c0,.1.1.3.2.4.1.1.3.1.4,0,0,0,.1-.1.2-.2ZM63.3,20.9c0,0,.2,0,.2,0,0,0,0,.1,0,.2,0,0,0,.2,0,.2,0,.1-.3.1-.4,0,0,0,0,0,0,0,0,0,0-.1,0-.2,0,0,0-.2,0-.2,0,0,.1,0,.2,0ZM63.6,21.9v1.5c0,.1,0,.2,0,.3s0,0,.2,0h0c0,0-.9,0-.9,0h0c0,0,.1-.1.2-.1,0,0,0-.1,0-.3v-1.1c0-.1,0-.2,0-.3s0,0-.2,0h0c0,0,.7,0,.7,0ZM65.5,22.8h-.9c0,.3,0,.5.2.6,0,.1.2.2.3.2,0,0,.1,0,.2,0,0,0,.1-.2.2-.2h0c0,.3-.2.4-.3.5-.1,0-.2.1-.4.1-.2,0-.5-.1-.6-.3-.1-.2-.2-.4-.2-.7,0-.3,0-.6.2-.8.2-.2.3-.3.5-.3s.3,0,.5.2c.1.2.2.4.2.7h0ZM65.1,22.7c0-.2,0-.4,0-.5,0,0,0-.1,0-.2,0,0,0,0-.1,0,0,0-.1,0-.2.1,0,.1-.1.3-.1.5h0c0,0,.5,0,.5,0ZM66.6,21.9v.3c0-.1.2-.2.3-.2,0,0,.2,0,.3,0,.1,0,.2,0,.3.1,0,0,.1.2.1.3,0,0,0,.2,0,.5v.8c0,.2,0,.2,0,.3s0,0,.2,0h0c0,0-.9,0-.9,0h0c0,0,.1-.1.1-.2,0,0,0-.1,0-.3v-.9c0-.2,0-.3,0-.3,0,0,0,0,0,0,0,0,0,0,0,0-.1,0-.2,0-.3.3v1c0,.1,0,.2,0,.3,0,0,0,0,.1,0h0c0,0-.9,0-.9,0h0c0,0,.1-.1.2-.2,0,0,0-.1,0-.3v-1.1c0-.1,0-.2,0-.3,0,0,0,0-.2,0h0c0,0,.7,0,.7,0h0ZM69.5,23.3h0c0,.2-.2.3-.3.4-.1,0-.2.1-.4.1-.2,0-.4-.1-.6-.3-.1-.2-.2-.5-.2-.7,0-.2,0-.5.2-.7.2-.2.4-.4.6-.4s.3,0,.4.2c0,0,.2.2.2.3,0,0,0,.1,0,.2,0,0-.1,0-.2,0,0,0-.1,0-.2,0,0,0,0-.2,0-.3,0,0,0-.1,0-.2,0,0,0,0,0,0,0,0-.1,0-.2.1,0,.1,0,.3,0,.5s0,.4,0,.5c0,.1.1.3.2.4.1.1.3.1.4,0,0,0,.1-.1.2-.2ZM71.3,22.8h-.9c0,.3,0,.5.2.6,0,.1.2.2.3.2,0,0,.1,0,.2,0,0,0,.1-.2.2-.2h0c0,.3-.2.4-.3.5-.1,0-.2.1-.4.1-.2,0-.5-.1-.6-.3-.1-.2-.2-.4-.2-.7,0-.3,0-.6.2-.8.2-.2.3-.3.5-.3s.3,0,.5.2c.1.2.2.4.2.7ZM70.9,22.7c0-.2,0-.4,0-.5,0,0,0-.1,0-.2,0,0,0,0-.1,0,0,0-.1,0-.2.1,0,.1-.1.3-.1.5h0c0,0,.5,0,.5,0h0ZM73.4,23.5c-.2.2-.4.3-.6.3,0,0-.2,0-.2-.1,0,0-.1-.2,0-.3,0-.1,0-.3.2-.4.1-.1.4-.3.7-.5v-.2c0-.1,0-.2,0-.3,0,0,0,0,0,0,0,0,0,0-.1,0,0,0-.1,0-.2,0,0,0,0,0,0,0s0,0,0,.1c0,0,0,.1,0,.2,0,0,0,.1,0,.2,0,0-.1,0-.2,0,0,0-.1,0-.2,0,0,0,0-.1,0-.2,0,0,0-.2.1-.3,0,0,.2-.2.3-.2.1,0,.3,0,.4,0s.3,0,.4.1c0,0,.1.2.2.3,0,0,0,.2,0,.4v.8c0,0,0,.1,0,.2,0,0,0,0,0,0,0,0,0,0,0,0,0,0,0,0,0,0h0c0,.1-.1.2-.2.3,0,0-.1,0-.2,0,0,0-.2,0-.2,0,0,0,0-.1,0-.2h0ZM73.4,23.4v-.7c-.1,0-.2.2-.3.3,0,0,0,.1,0,.2,0,0,0,.1,0,.2,0,0,0,0,.1,0s.1,0,.2-.1ZM75.1,21.9v.3c0-.1.2-.2.3-.2,0,0,.2,0,.3,0,.1,0,.2,0,.3.1,0,0,.1.2.1.3,0,0,0,.2,0,.5v.8c0,.2,0,.2,0,.3s0,0,.2,0h0c0,0-.9,0-.9,0h0c0,0,.1-.1.1-.2,0,0,0-.1,0-.3v-.9c0-.2,0-.3,0-.3,0,0,0,0,0,0,0,0,0,0,0,0-.1,0-.2,0-.3.3v1c0,.1,0,.2,0,.3,0,0,0,0,.1,0h0c0,0-.9,0-.9,0h0c0,0,.1-.1.2-.2,0,0,0-.1,0-.3v-1.1c0-.1,0-.2,0-.3,0,0,0,0-.2,0h0c0,0,.7,0,.7,0h0ZM78.3,21v2.2c0,.2,0,.2,0,.3,0,0,0,0,0,.1,0,0,0,0,.1,0h0c0,0-.7.2-.7.2v-.3c0,0-.1.2-.2.2,0,0-.1,0-.2,0-.2,0-.4-.1-.5-.3-.1-.2-.2-.4-.2-.7,0-.2,0-.4,0-.6,0-.1.1-.3.3-.4.1,0,.2-.1.4-.1,0,0,.2,0,.2,0,0,0,.1,0,.2.2v-.6c0,0,0-.2,0-.3,0,0,0,0,0,0,0,0,0,0-.2,0h0c0,0,.8,0,.8,0ZM77.8,22.3c0-.2-.2-.3-.3-.3,0,0,0,0-.1,0,0,0,0,.1-.1.2,0,.2,0,.3,0,.5,0,.2,0,.4,0,.5,0,0,0,.2.1.3,0,0,0,0,.1,0,.1,0,.2,0,.3-.3,0,0,0-1,0-1ZM81.8,21v.8h0c0-.1,0-.3-.1-.4,0,0-.1-.1-.2-.2,0,0-.2,0-.2,0h-.2v2.2c0,.1,0,.2,0,.3,0,0,0,0,0,0,0,0,.1,0,.2,0h0c0,0-1.3,0-1.3,0h0c0,0,0,0,0,0,0,0,.1,0,.2,0,0,0,0,0,0,0,0,0,0-.2,0-.3v-2.2h-.2c-.2,0-.3,0-.4.1-.1.1-.2.3-.2.5h0v-.8h2.2ZM83.3,22.8h-.9c0,.3,0,.5.2.6,0,.1.2.2.3.2,0,0,.1,0,.2,0,0,0,.1-.2.2-.2h0c0,.3-.2.4-.3.5-.1,0-.2.1-.4.1-.2,0-.5-.1-.6-.3-.1-.2-.2-.4-.2-.7,0-.3,0-.6.2-.8.2-.2.3-.3.5-.3s.3,0,.5.2c.1.2.2.4.2.7ZM82.8,22.7c0-.2,0-.4,0-.5,0,0,0-.1,0-.2,0,0,0,0-.1,0,0,0-.1,0-.2.1,0,.1-.1.3-.1.5h0c0,0,.5,0,.5,0ZM85,23.3h0c0,.2-.2.3-.3.4-.1,0-.2.1-.4.1-.2,0-.4-.1-.6-.3-.1-.2-.2-.5-.2-.7,0-.2,0-.5.2-.7.2-.2.4-.4.6-.4s.3,0,.4.2c0,0,.2.2.2.3,0,0,0,.1,0,.2,0,0-.1,0-.2,0,0,0-.1,0-.2,0,0,0,0-.2,0-.3,0,0,0-.1,0-.2,0,0,0,0,0,0,0,0-.1,0-.2.1,0,.1,0,.3,0,.5s0,.4,0,.5c0,.1.1.3.2.4.1.1.3.1.4,0,0,0,.1-.1.2-.2ZM86.1,21v1.1c0-.1.2-.2.3-.2,0,0,.2,0,.2,0,.1,0,.2,0,.3.1,0,0,.1.2.2.2,0,0,0,.3,0,.5v.8c0,.1,0,.2,0,.3,0,0,0,0,.1,0h0c0,0-.9,0-.9,0h0c0,0,.1-.1.1-.2,0,0,0-.1,0-.3v-.9c0-.1,0-.2,0-.3,0,0,0,0,0,0,0,0,0,0,0,0,0,0-.1,0-.1,0,0,0-.1.1-.2.2v1c0,.1,0,.2,0,.3,0,0,0,0,.1,0h0c0,0-.9,0-.9,0h0c0,0,.1-.1.2-.2,0,0,0-.1,0-.3v-2c0-.1,0-.2,0-.3,0,0,0,0-.2,0h0c0,0,.7,0,.7,0ZM88.3,21.9v.3c0-.1.2-.2.3-.2,0,0,.2,0,.3,0,.1,0,.2,0,.3.1,0,0,.1.2.1.3,0,0,0,.2,0,.5v.8c0,.2,0,.2,0,.3s0,0,.2,0h0c0,0-.9,0-.9,0h0c0,0,.1-.1.1-.2,0,0,0-.1,0-.3v-.9c0-.2,0-.3,0-.3,0,0,0,0,0,0,0,0,0,0,0,0-.1,0-.2,0-.3.3v1c0,.1,0,.2,0,.3,0,0,0,0,.1,0h0c0,0-.9,0-.9,0h0c0,0,.1-.1.2-.2,0,0,0-.1,0-.3v-1.1c0-.1,0-.2,0-.3,0,0,0,0-.2,0h0c0,0,.7,0,.7,0h0ZM90.6,21.8c.2,0,.3,0,.4.1.1,0,.2.2.3.4,0,.2,0,.3,0,.5,0,.3,0,.5-.2.7-.1.2-.4.3-.6.3-.2,0-.5-.1-.6-.3-.1-.2-.2-.5-.2-.7,0-.3,0-.5.2-.7.1-.2.4-.3.6-.3h0ZM90.6,22c0,0-.1,0-.2,0,0,0,0,.2,0,.3,0,.2,0,.4,0,.7,0,.1,0,.3,0,.4,0,0,0,.2,0,.2,0,0,.2.1.3,0,0,0,0,0,0,0,0,0,0-.1,0-.2,0-.1,0-.4,0-.8s0-.4,0-.5c0,0,0-.1-.1-.2,0,0,0,0-.1,0ZM92.5,21v2.4c0,.1,0,.2,0,.3,0,0,0,0,.2,0h0c0,0-.9,0-.9,0h0c0,0,.1-.1.2-.1,0,0,0-.1,0-.3v-2c0-.1,0-.2,0-.3,0,0,0,0-.2,0h0c0,0,.7,0,.7,0ZM93.8,21.8c.2,0,.3,0,.4.1.1,0,.2.2.3.4,0,.2,0,.3,0,.5,0,.3,0,.5-.2.7-.1.2-.4.3-.6.3-.2,0-.5-.1-.6-.3-.1-.2-.2-.5-.2-.7,0-.3,0-.5.2-.7.1-.2.4-.3.6-.3h0ZM93.8,22c0,0-.1,0-.2,0,0,0,0,.2,0,.3,0,.2,0,.4,0,.7,0,.1,0,.3,0,.4,0,0,0,.2,0,.2,0,0,.2.1.3,0,0,0,0,0,0,0,0,0,0-.1,0-.2,0-.1,0-.4,0-.8s0-.4,0-.5c0,0,0-.1-.1-.2,0,0,0,0-.1,0ZM96.1,21.9h.6v.2h-.3c0,0,0,.1.1.2,0,0,0,.2,0,.2,0,.1,0,.3-.1.4,0,.1-.2.2-.3.2,0,0-.2,0-.3,0h-.2c0,0-.1,0-.1,0,0,0,0,0,0,.1,0,0,0,0,0,.1,0,0,0,0,.2,0h.3c.3,0,.4,0,.5,0,.1,0,.2.2.2.4,0,.1,0,.2,0,.3,0,0-.1.2-.3.2-.2,0-.3.1-.5.1-.1,0-.3,0-.4,0-.1,0-.2,0-.3-.1,0,0,0-.1,0-.2,0,0,0-.1,0-.2,0,0,.1-.1.2-.1-.2,0-.2-.2-.2-.4,0-.1,0-.2,0-.3,0-.1.2-.2.3-.2-.1,0-.3-.1-.4-.3,0-.1-.1-.2-.1-.4,0-.4.3-.7.7-.7,0,0,0,0,0,0,.1,0,.2,0,.4,0ZM95.8,22c0,0-.1,0-.2.1,0,0,0,.2,0,.5s0,.3,0,.4c0,0,.1.1.2.1s.1,0,.2-.1c0,0,0-.2,0-.4s0-.4,0-.5c0,0,0,0-.2,0ZM95.7,24.1c-.1,0-.2,0-.2,0,0,0-.1.1-.1.2s0,.1.1.2c0,0,.2,0,.4,0s.3,0,.4,0c0,0,.1-.1.1-.2,0,0,0,0,0,0,0,0,0,0-.2,0,0,0-.2,0-.5,0ZM97.8,23.9l-.6-1.4c0-.2-.1-.4-.2-.4,0,0,0,0-.1-.1h0c0,0,.9,0,.9,0h0c0,0-.1,0-.1.1,0,0,0,0,0,0,0,0,0,.2,0,.3l.3.8.2-.6c0-.2.1-.4.1-.4,0,0,0,0,0-.1,0,0,0,0-.2,0h0c0,0,.6,0,.6,0h0c0,0-.1.1-.1.1,0,0,0,.2-.2.4l-.5,1.4c-.1.4-.2.6-.3.7,0,.1-.2.2-.3.2-.2,0-.3-.1-.3-.3,0,0,0,0,0,0,0,0,0-.1,0-.2,0,0,0,0,.2,0,0,0,.1,0,.1,0,0,0,0,.1,0,.2,0,0,0,0,0,.1,0,0,0,0,0,0,0,0,0,0,0,0,0,0,.1-.2.2-.4v-.2c0,0,0,0,0,0ZM100.6,21.8c.1,0,.3,0,.4.1.1,0,.2.2.3.4,0,.2,0,.3,0,.5,0,.3,0,.5-.2.7-.1.2-.4.3-.6.3-.2,0-.5-.1-.6-.3-.1-.2-.2-.5-.2-.7,0-.3,0-.5.2-.7.1-.2.4-.3.6-.3h0ZM100.6,22c0,0-.1,0-.2,0,0,0,0,.2,0,.3,0,.2,0,.4,0,.7,0,.1,0,.3,0,.4,0,0,0,.2,0,.2,0,0,.2.1.3,0,0,0,0,0,0,0,0,0,0-.1,0-.2,0-.1,0-.4,0-.8s0-.4,0-.5c0,0,0-.1-.1-.2,0,0,0,0-.1,0ZM102.5,22.1v1.3c0,.1,0,.2,0,.2,0,0,.1,0,.2,0h0c0,0-1,0-1,0h0c0,0,.1,0,.2-.1,0,0,0,0,0,0,0,0,0-.1,0-.2v-1.3h-.2v-.2h.2c0-.1,0-.2,0-.2,0-.2,0-.4.2-.5.1-.1.3-.2.5-.2s.3,0,.3,0c0,0,.1.1.1.2,0,0,0,.1,0,.2,0,0-.1,0-.2,0,0,0-.1,0-.2,0,0,0,0,0,0-.1,0,0,0,0,0,0,0,0,0,0,0,0,0,0,0,0,0,0,0,0,0,0,0,0,0,0,0,0,0,0,0,0,0,0,0,.2v.4s0,.2,0,.2h.3v.2h-.3ZM106.3,20.9v1h0c0-.3-.2-.4-.3-.6-.1-.1-.3-.2-.5-.2-.2,0-.3,0-.4.2-.1.1-.2.2-.3.4,0,.2-.1.4-.1.7s0,.5,0,.7c0,.2.1.4.3.5.1.1.3.2.5.2.2,0,.3,0,.4-.1.1,0,.3-.2.4-.4v.2c-.1.2-.3.3-.4.4-.2,0-.3.1-.5.1-.3,0-.5,0-.7-.2-.2-.1-.4-.3-.5-.5-.2-.5-.2-1,0-1.5.1-.2.3-.4.5-.6.2-.1.4-.2.7-.2s.4,0,.6.1c.1,0,.2,0,.2,0,0,0,0,0,.1,0,0,0,0,0,0-.2h0ZM107.4,21v1.1c0,0,.2-.2.3-.2,0,0,.2,0,.2,0,.1,0,.2,0,.3.1,0,0,.1.2.2.2,0,0,0,.3,0,.5v.8c0,.1,0,.2,0,.3,0,0,0,0,.1,0h0c0,0-.9,0-.9,0h0c0,0,.1-.1.1-.2,0,0,0-.1,0-.3v-.9c0-.2,0-.3,0-.3,0,0,0,0,0,0,0,0,0,0,0,0,0,0-.1,0-.1,0,0,0-.1.1-.2.2v1c0,.1,0,.2,0,.3,0,0,0,0,.1,0h0c0,0-.9,0-.9,0h0c0,0,.1-.1.2-.2,0,0,0-.1,0-.3v-2c0-.1,0-.2,0-.3,0,0,0,0-.2,0h0c0,0,.7,0,.7,0ZM109.3,20.9c0,0,.1,0,.2,0,0,0,0,.1,0,.2,0,0,0,.2,0,.2,0,.1-.3.1-.4,0,0,0,0,0,0,0,0,0,0-.1,0-.2,0,0,0-.2,0-.2,0,0,.1,0,.2,0ZM109.6,21.9v1.5c0,.1,0,.2,0,.3,0,0,0,0,.2,0h0c0,0-.9,0-.9,0h0c0,0,.1-.1.2-.1,0,0,0-.1,0-.3v-1.1c0-.1,0-.2,0-.3,0,0,0,0-.2,0h0c0,0,.7,0,.7,0ZM110.8,21.9v.3c0,0,.2-.2.3-.2,0,0,.2,0,.3,0,.1,0,.2,0,.3.1,0,0,.1.2.1.3,0,0,0,.2,0,.5v.8c0,.2,0,.2,0,.3s0,0,.2,0h0c0,0-.9,0-.9,0h0c0,0,.1-.1.1-.2,0,0,0-.1,0-.3v-.9c0-.2,0-.3,0-.3,0,0,0,0,0,0,0,0,0,0,0,0-.1,0-.2,0-.3.3v1c0,.1,0,.2,0,.3s0,0,.1,0h0c0,0-.9,0-.9,0h0c0,0,.1-.1.2-.2,0,0,0-.1,0-.3v-1.1c0-.1,0-.2,0-.3,0,0,0,0-.2,0h0c0,0,.7,0,.7,0ZM113.3,23.5c-.2.2-.4.3-.6.3,0,0-.2,0-.2-.1,0,0-.1-.2,0-.3,0-.1,0-.3.2-.4s.4-.3.7-.5v-.2c0-.1,0-.2,0-.3,0,0,0,0,0,0,0,0,0,0-.1,0,0,0-.1,0-.2,0,0,0,0,0,0,0s0,0,0,.1c0,0,0,.1,0,.2,0,0,0,.1,0,.2,0,0-.1,0-.2,0,0,0-.1,0-.2,0,0,0,0-.1,0-.2,0,0,0-.2.1-.3,0,0,.2-.2.3-.2.1,0,.3,0,.4,0s.3,0,.4.1c0,0,.1.2.2.3,0,0,0,.2,0,.4v.8c0,0,0,.1,0,.2,0,0,0,0,0,0,0,0,0,0,0,0,0,0,0,0,0,0h0c0,.1-.1.2-.2.3,0,0-.1,0-.2,0,0,0-.2,0-.2,0,0,0,0-.1-.1-.2h0ZM113.3,23.4v-.7c-.1,0-.2.2-.3.3,0,0,0,.1,0,.2,0,0,0,.1,0,.2,0,0,0,0,.1,0,0,0,.1,0,.2-.1Z"/>
      </g>
    </g>
  </g>
</svg>