<svg width="128" height="137" fill="none" xmlns="http://www.w3.org/2000/svg"><g filter="url(#a)" fill="#004098"><path fill-rule="evenodd" clip-rule="evenodd" d="M54.643 25c.342.712-.052 1.79.948 1.79h.21c.172 0 .316-.062.316-.21 0-.657-.62-1.3-.945-1.781l-.529.2ZM56.747 25.32l1.262.525c-.305.455-1.298 1.227-1.811 1.763-.189.197-1.448 1.985-1.448 2.126 0 1.016.602 1.173 1.367 1.156.038-1.725.637-2.116 1.345-3.174.645-.964 1.59-2.003 2.503-.333l-1.22 1.09c-.149-.074-.175-.105-.42-.105h-.316c-.653 0-.846.85-.736 1.366.507-.136.617-.656.988-.703.537-.07.063.65.063 1.123v.106c0 .252.17.309.32.535l-1.897.726c.156.213.242.316.631.316h.315c.24 0 .963-.327 1.367-.421-.087 1.044-1.575.679-1.787 1.472 1.205.026 2.085.593 2.734-.631l-.309-1.242.308-.125c.295.07.534.21.84.21.129 0 .316-.217.316-.42 0-.322-.097-.63-.42-.63l-1.344.005-.126.409-.383-.133.481-.911-.102-.645.738-.092c.24-.357.736-.457.736-.84v-.211c0-.687-.728-1.29-1.159-1.555l-.838-.127c.35-.523 1.576-.724 1.576-1.261 0-.37-.466-.42-.84-.42h-.421c-.304 0-1.01 1.022-2.313 1.05ZM45.5 28.473c0 .55.791 1.286.828 1.942l-.842-.266c-.38.242-.666.498-.3.846.48.322.665.287.525.946-.263-.061-.826-.315-.946-.315-.165 0-.54.158-.553.318l.169 1.716-1.403 1.33c.31-1.33.946-2.457.946-4.1v-.21c0-.63-.946-.047-.946.105 0 .312.21.281.21.736v.21c0 1.05-1.218 4.1-.315 4.1.373 0 .78-.748 1.051-.946-.155.734-.628 3.468.526 3.468.665 0 1.018-1.09 1.156-1.682.476.127.727.736 1.261.736.172 0 .316-.063.316-.21 0-.525-1.066-.68-1.277-1.78-.123-.642.165-.701.102-1.242-.05-.444-.192-.798-.192-1.393 0-.284.05-.29.105-.525l.283-.01.243 1.797c-.03.054-.316.63-.316.63 0 .265.6 1.157.736 1.157.54 0 1.449-1.472 1.577-1.472.446 0 .75.926 1.03 1.282.504.636.667.685 1.387 1.03-.053-.636-.35-1.823-.567-2.375-.265-.675-.788-1.54-.947-2.072l1.205-1.442-.218-.44-.84.128c-.643-.88-1.361-.267-1.725-1.112-.247-.577-1.08-1.095-1.848-1.095h-.105c-.172 0-.315.063-.315.21Zm-.298 5.893c0-.319-.213-.558-.027-.637.186-.08.265-.319.398-.292.133.026.133.345.053.557-.08.212-.186.557-.186.557s-.238.133-.238-.185Zm-.372-1.248c.026.212.345.08.345-.185 0-.266-.106-.425-.239-.266-.133.16-.133.239-.106.451Zm0 2.415c-.186 0-.133 1.009.053 1.035.186.027.186-.398.292-.557.106-.16-.16-.478-.345-.478Zm2.574-1.698c-.186-.133-.026-.292.212-.505.24-.212.399-.026.24.186-.16.213-.266.452-.452.319Zm-.726-2.286c-.033-.066.033-.197.23-.23s.197.033.033.263c-.165.23-.23.033-.263-.033Zm2.129-.128.164-.197.165.197s.033.065-.165.098c-.197.033-.131-.131-.164-.098ZM91.224 40.035c-.73 0-1.232-1.324-1.577-1.576-.25.183-.315.404-.315.84v.21c0 .551 1.898 1.367-.526 1.367-.32 0-.628-.63-1.156-.63-.242 0-.315.072-.315.314v.106c0 .53.379 1.05.946 1.05h.525c.748 0 1.499-.366 1.997-.63.538.258.888.342 1.41.693.196.133 1.248.884 1.323.884h.105c.236 0 .23-.083.427-.213.007-.536-.312-.799-.606-1.241-.082-.124-.068-.481-.159-.595l.052-.104-.423.629.02.136-.888-.715c.362-.493 1.998-1.081 1.998-1.997 0-.341-.092-.079-.21-.525h-.316c-.23 0-1.406 1.997-2.312 1.997Zm-2.313 4.31v.525c.376.088.494.21.946.21.391 0 .654-.797.73-1.162.204-.97-.03-.748-.1-1.57-.28-.53-.56-.417-.84-.21-.093.397-.087.902-.218 1.252-.11.293-.518.745-.518.954ZM34.044 39.089c0-.995 1.02-2.173 1.681-2.523 1.191.63 4.835 3.399 4.835 4.94 0 .633-.725.635-1.156.841l.118.417-.825.477.197.25c-.295.43-.644 1.169-1.277 1.169h-.315c-.115-.431-2.207-2.234-2.207-2.943 0-.25.51-1.226.946-1.262v.316c0 .502-.154 1.03-.316 1.366.076.279.237.5.482.666l.99-.35-.1.63c.306.165.544.42.94.42.825 0 .962-2.84 1.157-3.678-.12-.18-.229-.421-.526-.421-1.258 0-.752.811-2.102.841-.085-.365-.428-1.156-.84-1.156h-.21c-.63 0-.703 1.506-.842 2.102-.528-.353-.63-1.232-.63-2.102Zm-1.051 1.471c0 1.749 1.302 2.024 2.183 2.862 1.048.997.957 2.461 2.636 2.496l.12-.628h.421c.368 0 1.007-.975 1.156-1.262.459-.885.211-.84 1.682-.84 1.653-2.469-.024-2.725-1.261-4.204-.668-.799-2.718-3.049-3.994-3.049-1.406 0-2.944 2.997-2.944 4.625Zm5.268-.093s-.085-.203.102-.22c.186-.017.287.101.287.237 0 .135-.034.152-.186.135a.254.254 0 0 1-.203-.152ZM64.946 46.867c-.138-.594-.526-.834-.526-1.577 0-.671 1.443-.946 2.208-.946l.633-.024 1.574.13c-1-.636-7.06-1.472-9.04-1.472.106.143 2.32 1.445 2.75 1.77.804.604 1.743 1.679 2.401 2.119ZM99.737 46.867c-.264.177-.735.645-.735 1.051 0 .281.151.311.315.42.745-.173 1.251-.61 1.748-1.09.976-.943-.62-.381-1.328-.381Zm-5.105 2.892.388.265-.117.417c.084.059.259.21.315.21 1.062 0 .463-.524 1.261-.946.4.192.956.318 1.326.567.494.332.661.687.96.909l.154.754-.338.293c-.362-.192-.767-.317-1.08-.602-.227-.208-.592-.765-.917-.765h-.105c-.172 0-.315.063-.315.21 0 .521.461.207.63.841-.883.074-.76-.055-1.471.42-.306-.578-.674-.565-1.033-1.174-.341-.577-.273-1.096-1.07-.928 0 1.854 1.395 1.91 1.472 2.839-1.629 0-1.412-1.156-1.681-2.313-.398.266-.526.712-.526 1.367 0 .837 1.06 1.892 1.472 1.892.25 0 .753-.397.946-.526.523.35 1.154 1.472 1.366 1.472.323 0 .63-.098.63-.421v-.105c0-.811-1.156-1.166-1.156-1.577 0-.541.544-.21 1.051-.21h.316c.404 0 .432-.058.525-.315.443.118.57.736 1.051.736h.105c.457 0 .736-.791.736-1.262 0-.722-.189-.894-.315-1.366.343.181.794.334 1.082.6.269.249.537.871.915.871h.105c.293 0 .736-.443.736-.736 0-1.013-1.381-.853-1.342-1.786l-.025-1.051c-.49.04-.64.7-.973 1.067l.448.72c-1.26-.337-3.111-1.209-4.27-1.843l-1.256 1.476ZM28.998 49.495l-1.156-.42c-.343.164-1.682 1.017-1.682 1.366 0 .358 2.055 1.012 2.523 1.05.04.476.42 2.07.42 2.103 0 .375-.381.364-.617.699l1.25.52.733.042h.106c.423 0 .185-.42 1.156-.42v-.315c0-.48.547-.526 1.056-.524l.2-.53.011.128 2.517-.125c-.499-.746-.86-.42-1.19-1.018-.314-.568-.908-.344-1.543-.77 0-1.05-.463-1.444-.444-1.79l.129-1.152c-.085-.06-.26-.21-.316-.21-.824 0-.27 1.082-1.156 1.156-.075-.322-.231-1.008-.356-1.326-.164-.416-.534-.989-.59-1.197-.967.021-.828 1.774-1.05 2.733Zm.73.509.178-1.18c.091-.184.21-.184.354 0l.59 1.534c-.178.19-.575.035-1.121-.354Zm.79 3.338c-.22-.243-.323-.545-.309-.906.133-.177.42-.147.73-.088l.816.508c-.03.416-.498.541-1.236.486ZM71.989 53.7v.63c0 5.258-3.18 9.247-5.91 11.853-1.333 1.272-3.5 2.814-5.161 3.774-.944.545-5.48 2.76-5.852 3.083 1.015-.085 5.665-2.593 6.619-3.157 1.955-1.156 3.976-2.646 5.547-4.228 1.968-1.979 2.72-3.158 4.02-5.754.537-1.07.832-2.353 1.078-3.758.318-1.81-.026-2.848-.026-4.546.7 1.007 1.366 4.072 1.366 5.886v.316c0 3.22-1.185 5.504-2.348 7.637-.546 1-1.36 2.133-2.048 2.998-.383.482-2.24 2.372-2.33 2.714 1.261-.668 3.868-4.178 4.772-5.528 1.17-1.75 2.48-4.954 2.48-7.822v-.525c0-1.18-.256-2.716-.564-3.64-.311-.93-1.072-2.44-1.223-3.087.725.485 2.331 3.263 2.766 4.276.72 1.676 1.228 3.57 1.228 5.92 0 2.059-.6 4.525-1.198 6.054-.35.898-.677 1.639-1.08 2.494-.278.59-1.181 1.893-1.296 2.383.625-.418 2.204-3.68 2.596-4.657.614-1.526 1.399-3.791 1.399-5.854v-1.576c0-1.91-.876-4.689-1.579-5.885-.504-.86-.889-1.526-1.47-2.314-.281-.382-1.61-1.836-1.681-2.102.921.246 3.801 2.959 4.434 3.764 1.444 1.838 2.112 2.944 2.911 5.392.645 1.973.79 5.04.391 7.41-.22 1.31-.406 2.25-.694 3.405-.21.84-.894 2.638-.946 3.258 1.057-1.216 2.312-7.24 2.312-9.88v-.21c0-2.055-.579-4.636-1.261-5.992-.461-.918-.706-1.48-1.261-2.312-.574-.86-1.092-1.299-1.64-2.04-1.044-1.409-6.936-5.577-8.871-5.738.387.336 1.294.731 1.807 1.135.4.316 1.088 1.127 1.369 1.574a8.897 8.897 0 0 1 1.344 4.648Z"/><path fill-rule="evenodd" clip-rule="evenodd" d="M49.495 76.193c2.872 0 5.283-.821 7.67-.844 2.356-.022 5.574-.469 5.574 2.42h2.522c.063-2.802 3.054-2.518 5.68-2.421 2.44.09 4.66.845 7.46.845h1.89l1.366-.122-1.777-1.67.097-.1c-2.476 0-4.07-.06-5.978-.644-1.17-.36-4.006-1.248-5.374-1.248h-1.262c-1.613 0-3.141 1.433-3.258 2.838-.67-.49-.491-2.1-2.564-2.692-1.445-.413-3.19-.068-4.502.251-3.486.848-4.437 1.495-9.016 1.495l.094.095-1.74 1.727 1.328.094 1.79-.024Z"/><path fill-rule="evenodd" clip-rule="evenodd" d="M39.51 63.16c0-3.368 1.2-7.47 2.347-9.741.69-1.365 1.425-2.663 2.277-3.82.91-1.233 1.82-2.093 2.76-3.23 1.298-1.57 5.177-3.934 7.225-4.863 2.536-1.151 6.305-2.102 9.986-2.102 7.152 0 13.475 3.421 17.054 7.016 3.52 3.537 7.332 9.651 7.332 16.634v1.997c0 6.446-3.997 13.528-7.445 16.52-4.207 3.651-9.146 6.92-16.94 6.92-13.227 0-24.597-10.846-24.597-23.86v-1.472Zm-4.836-3.785v1.997c0 1.898.78 4.719 1.417 6.047 1.039 2.167 1.703 2.898 2.893 4.675 0 3.658.154 5.364 1.198 8.051.81 2.086 2.17 4.31 3.61 5.744 2.981 2.965 6.994 5.755 12.85 5.755h.736c1.28 0 2.416-.204 3.477-.412.593-.117 2.96-.954 3.04-.954.366 0 2.375.778 3.072.922 1.118.23 2.355.444 3.655.444h.736c5.166 0 10.54-2.918 12.883-5.721 3.258-3.897 4.775-6.749 4.775-13.83.561-.837 1.254-1.586 1.851-2.564.587-.961 1.01-1.987 1.42-3.098 1.036-2.8 1.014-4.395 1.04-7.266.038-4.487-3.194-10.244-5.74-12.13-2.068-1.531-2.734-2.38-5.445-3.49-.995-.407-2.468-.534-3.027-1.386-.627-.956-1.209-1.725-2.002-2.518-2.75-2.75-6.95-5.597-12.377-5.597h-1.787c-3.563 0-7.787 1.958-9.794 3.555-1.184.94-2.487 2.108-3.389 3.338-2.016 2.75-1.131 1.343-4.056 2.671-3.61 1.64-5.098 2.988-7.49 5.858-1.644 1.971-3.546 6.318-3.546 9.91Z"/><path fill-rule="evenodd" clip-rule="evenodd" d="M64 40.792c12.782 0 23.207 10.426 23.207 23.208 0 12.782-10.425 23.208-23.207 23.208S40.792 76.783 40.792 64c0-12.782 10.426-23.208 23.208-23.208Zm0 1.027c12.217 0 22.18 9.964 22.18 22.181S76.218 86.18 64 86.18 41.82 76.218 41.82 64 51.782 41.82 64 41.82Z"/><path d="M48.936 60.894v-4.866h-.754c-.106.296-.3.554-.585.775-.285.222-.548.372-.79.452v.842c.46-.151.86-.386 1.2-.704v3.501h.929Zm3.154.086c.526 0 .954-.196 1.282-.588.328-.393.493-1.032.493-1.918 0-.87-.158-1.495-.473-1.876a1.502 1.502 0 0 0-1.21-.57c-.452 0-.824.15-1.116.451-.292.301-.438.697-.438 1.189 0 .471.139.854.415 1.148.277.295.606.442.987.442.35 0 .642-.136.876-.407-.038.556-.123.921-.258 1.098-.134.176-.297.264-.49.264a.51.51 0 0 1-.366-.132c-.093-.088-.15-.224-.172-.407l-.9.1c.067.4.217.702.45.904.234.201.54.302.92.302Zm.099-2.403a.58.58 0 0 1-.463-.22c-.124-.146-.185-.376-.185-.69 0-.308.056-.53.17-.665a.535.535 0 0 1 .428-.204c.18 0 .34.083.478.248.138.166.206.398.206.698 0 .273-.06.48-.183.621a.575.575 0 0 1-.451.212Zm4.267 2.4c.56 0 .998-.214 1.313-.641a1.75 1.75 0 0 0 .347-1.068c0-.479-.143-.867-.43-1.167-.286-.3-.636-.45-1.048-.45-.216 0-.427.052-.634.156l.145-.824h1.752v-.869h-2.456l-.476 2.522.754.11c.211-.236.45-.354.717-.354.214 0 .387.074.52.223.134.149.2.372.2.67 0 .317-.067.554-.201.712a.636.636 0 0 1-.942.053.794.794 0 0 1-.235-.498l-.925.096c.055.405.223.728.505.968.282.24.647.36 1.094.36Zm4.136.003c.474 0 .854-.14 1.139-.42.285-.28.428-.643.428-1.09 0-.272-.07-.51-.21-.718a1.298 1.298 0 0 0-.613-.473 1.057 1.057 0 0 0 .668-1.002c0-.36-.128-.66-.382-.895-.255-.236-.612-.354-1.073-.354-.465 0-.824.118-1.076.354a1.173 1.173 0 0 0-.378.896c0 .211.054.406.163.583.11.178.284.317.524.418-.28.12-.484.288-.615.508-.13.219-.195.46-.195.722 0 .476.173.85.52 1.124.293.231.66.347 1.1.347Zm-.043-3.048a.569.569 0 0 1-.418-.155c-.105-.104-.157-.248-.157-.433 0-.174.053-.314.159-.42a.576.576 0 0 1 .426-.159.56.56 0 0 1 .415.157.565.565 0 0 1 .157.419c0 .185-.053.33-.159.434a.575.575 0 0 1-.423.157Zm.027 2.301a.638.638 0 0 1-.491-.215c-.131-.143-.197-.343-.197-.598a.86.86 0 0 1 .167-.51c.111-.156.28-.234.507-.234.197 0 .358.069.486.207.128.137.192.32.192.547 0 .26-.063.459-.188.596a.617.617 0 0 1-.476.207Z"/><path fill-rule="evenodd" clip-rule="evenodd" d="M68.815 30.408c0-.96 1.46-2.576 2.207-2.418l-.124 1.049c.005.105.19.551.23.633l.783-.592.057.382c0 .531-.169.558-.21 1.05l-1.748-.722.665 1.744-.599.03c-.566 0-1.26-.566-1.26-1.156Zm3.259-5.36c0 .286-.578 1.526-.736 2.227l-.736-.02c-.505.014-.32.49-.84.63.304-.576.38-1.356.669-1.852.435-.746.944-.662 1.117-1.406-.182-.088-.466-.21-.736-.21-.59 0-.479 1.576-2.102 1.576-.396 0-.199-.069-.682-.086l.265.585 1.047.132c-.007.096-.529 1.396-.61 1.597-.181.449-.99.61-1.597.61l-.108.023-.943-.128c-.435.575-.62.704-.63 1.051.211.442.164.841.84.841l.108.024 1.154-.13c0 .821.256.655.457 1.225.313.885-.173.522.769.981l-.07-1.364h.21c.106.456.262.946.841.946h.736c.61 0 1.065-.259 1.447.13.324.33.344.816.97.816.298 0 .736-.334.736-.631v-.21c0-.924-1.261-1.16-1.261-1.472 0-.344.414-1.027.411-1.687-.002-.55-.73-.72-1.153-.943l.216-.418c.91 0 .789-.302 1.33-.562.573-.274 1.072-.182 1.088-.91-.724-.168-1.16-.357-1.477-.948l.216-.418c-.167-.347-.221-.736-.736-.736-.58 0-.21.515-.21.736Zm.5 1.077c-.185.043-.499.656-.405.875.094.218.812 0 .812 0s.25-.25-.031-.5c-.14-.217-.189-.417-.375-.375ZM81.738 32.563c-.673 0-.942-.502-1.262-.736-.085.367-.21.354-.21.735 0 .491.245.736.736.736l.328.004-.118.417c-.383-.103-.582-.42-.84-.42h-.106c-.711 0-1.243.278-1.873.439-.922.235-.572.663-1.236 1.138l-.044.945c.19.127.185.21.42.21.835 0 1.476-.946 1.787-.946.39 0 .475.103.63.315-.307.421-.63.66-.63 1.472 0 .39.103.475.316.63.588-.43.588-1.923 1.52-1.988l-.26 1.568c-.057.335.62.63.947.63.32 0 .424-.1.547-.222a4.728 4.728 0 0 1 .399-1.984c.052-.336-.386-.865-.529-.86l-.91.075.939-1.372.079.1 2.525.053-.022.104.163-.351-1.089-.903c-.026.314-.075.526-.42.526h-.316c-.402 0-.038.032-.315-.105.035-.13 2.18-2.622.84-2.733-.108.468-1.667 2.523-1.996 2.523Zm3.258-1.367v.63c0 .236.083.231.205.419l-.1.318c.228.152.35.315.736.315.611 0 .548-.239.736-.63-.612-1.158-.42-.873-1.472-1.577-.055.235-.105.241-.105.525Zm-5.238 3.114c-.279-.335.363-.419.67-.419.306 0 .278 0 .195.39-.084.391-.586.363-.865.029ZM30.13 63.952l.159 1.907-.096.01-.008-.096c-.012-.143-.034-.24-.067-.292a.242.242 0 0 0-.126-.103c-.052-.018-.179-.019-.378 0l-1.712.158c-.314.03-.519.073-.617.133a.621.621 0 0 0-.232.27.857.857 0 0 0-.064.443c.016.2.072.367.17.5a.786.786 0 0 0 .378.283c.155.056.42.067.79.033l1.427-.132c.157-.014.267-.043.331-.083a.304.304 0 0 0 .129-.143.818.818 0 0 0 .03-.353l.096-.009.106 1.279-.096.009-.007-.076a.512.512 0 0 0-.08-.254.336.336 0 0 0-.19-.133.85.85 0 0 0-.3-.008l-1.329.123c-.41.038-.71.036-.897-.004-.187-.04-.366-.164-.538-.372-.17-.207-.273-.504-.304-.887-.027-.32-.007-.57.06-.753.09-.248.217-.429.38-.543.165-.114.392-.185.683-.212l1.713-.158c.2-.019.325-.041.372-.07a.257.257 0 0 0 .107-.134c.025-.06.03-.168.015-.325l.096-.008Zm-.58 5.231-.307.063c.156.102.275.207.357.312a.82.82 0 0 1 .16.363.648.648 0 0 1-.333.712c-.091.05-.275.101-.549.158l-.925.19c-.183.037-.294.078-.332.122-.039.044-.054.124-.046.237l-.09.019-.235-1.271.092-.019c.03.093.079.153.15.181.047.02.155.013.323-.021l1.057-.217c.195-.04.317-.074.364-.1a.237.237 0 0 0 .103-.107.213.213 0 0 0 .019-.136c-.028-.154-.159-.276-.392-.366l-1.273.262c-.178.036-.288.077-.329.122-.04.045-.059.115-.053.213l-.091.019-.234-1.271.091-.019c.03.104.076.172.138.206.044.022.156.015.34-.022l1.342-.276c.18-.037.287-.077.325-.121.038-.044.053-.123.047-.237l.094-.02.188 1.024Zm1.9 2.165a.428.428 0 0 1-.044.323.394.394 0 0 1-.247.191.363.363 0 0 1-.303-.048.413.413 0 0 1-.182-.261.426.426 0 0 1 .046-.32.386.386 0 0 1 .245-.19.402.402 0 0 1 .486.306Zm-1.05.672-1.861.49c-.166.044-.268.093-.303.146-.037.053-.045.14-.024.26l-.09.024-.316-1.342.09-.023c.029.108.08.182.148.22.047.026.154.016.319-.028l1.372-.361c.166-.044.268-.092.304-.145.036-.053.044-.138.023-.257l.093-.025.245 1.041Zm-1.863 2.556 1.51-1.46c.182-.177.292-.304.331-.38a.344.344 0 0 0 .03-.206l.09-.033.418 1.286-.09.033c-.026-.081-.059-.132-.096-.15a.169.169 0 0 0-.147-.016c-.06.022-.161.1-.304.237l-.73.712.847.048c.242.014.407.006.495-.027a.169.169 0 0 0 .105-.103c.019-.05.014-.126-.015-.225l.09-.033.258.792-.09.032a.335.335 0 0 0-.142-.156c-.06-.032-.213-.057-.46-.076l-2.06-.153-.04-.122Zm2.595 3.29-.498-1.3c-.291.141-.495.326-.61.552a.599.599 0 0 0-.038.506.512.512 0 0 0 .186.242c.086.06.216.107.391.143l-.02.109c-.297-.022-.526-.09-.69-.202a.98.98 0 0 1-.361-.474c-.134-.351-.108-.673.079-.963.15-.234.379-.416.684-.547.375-.16.714-.18 1.018-.06.303.119.51.323.62.61a.923.923 0 0 1-.04.745c-.12.257-.36.47-.721.64Zm-.078-.692c.259-.11.429-.2.514-.272a.49.49 0 0 0 .165-.23.24.24 0 0 0-.01-.161c-.034-.088-.103-.143-.206-.163-.18-.04-.395-.006-.642.1l-.085.036.264.69Zm1.708 1.503-.485.273c.297.025.51.074.639.146s.22.16.272.266a.34.34 0 0 1 .03.26.357.357 0 0 1-.181.206c-.103.057-.195.076-.278.055a.264.264 0 0 1-.18-.142.391.391 0 0 1-.034-.266c.02-.092.03-.146.03-.16a.126.126 0 0 0-.014-.064.221.221 0 0 0-.117-.104.515.515 0 0 0-.297-.025c-.173.031-.35.097-.528.198l-.491.276-.128.075a.612.612 0 0 0-.158.11.227.227 0 0 0-.047.136c0 .049.02.12.06.213l-.081.046-.614-1.22.082-.047c.057.094.116.146.177.156.06.01.184-.037.37-.142l1.182-.664a.99.99 0 0 0 .224-.15.226.226 0 0 0 .058-.123.442.442 0 0 0-.04-.185l.085-.047.464.923Zm1.822 2.253-.696.472-.044-.081c.16-.226.25-.415.27-.566a.603.603 0 0 0-.05-.38.256.256 0 0 0-.154-.128.21.21 0 0 0-.18.018.219.219 0 0 0-.09.118c-.034.088-.062.294-.084.617-.021.323-.064.553-.128.69a.736.736 0 0 1-.289.323.822.822 0 0 1-.393.117.685.685 0 0 1-.4-.103.841.841 0 0 1-.293-.318 1.567 1.567 0 0 1-.138-.482.396.396 0 0 0-.029-.112c-.028-.052-.09-.073-.183-.062l-.043-.078.733-.498.044.08c-.158.192-.253.38-.284.565-.03.184-.016.33.045.442a.287.287 0 0 0 .167.146.24.24 0 0 0 .2-.026.333.333 0 0 0 .147-.185c.027-.079.048-.233.064-.462.027-.339.063-.57.108-.691a.763.763 0 0 1 .32-.405.724.724 0 0 1 .535-.09c.195.037.353.168.475.39.065.12.101.254.108.4a.28.28 0 0 0 .023.124.133.133 0 0 0 .054.058.47.47 0 0 0 .14.026l.045.08Zm1.634.486c.061.1.08.206.057.32a.416.416 0 0 1-.175.266.39.39 0 0 1-.553-.126.424.424 0 0 1-.055-.317.404.404 0 0 1 .173-.266.372.372 0 0 1 .301-.06.382.382 0 0 1 .252.183Zm-.786.996-1.61 1.105c-.143.098-.224.18-.241.242-.019.062 0 .147.058.254l-.078.053-.712-1.16.078-.053c.06.093.13.145.208.157.052.008.15-.037.293-.136l1.186-.814c.143-.098.224-.178.242-.241.018-.062 0-.146-.057-.251l.08-.055.553.9Zm1.645.887-.716.55.338.492-.208.16-.337-.492-1.209.928a1.134 1.134 0 0 0-.207.185.22.22 0 0 0-.04.12.17.17 0 0 0 .023.1c.066.096.198.134.395.114l-.001.101c-.35.087-.618-.005-.802-.273a.659.659 0 0 1-.126-.413.623.623 0 0 1 .113-.352c.037-.05.16-.157.37-.318l1.058-.812-.187-.27.074-.057c.252.09.492.15.719.174.226.026.457.022.693-.01l.05.073Zm-1.32 3.662.902-1.836c.137-.277.211-.458.224-.545a.486.486 0 0 0-.027-.254l.075-.063.81 1.057-.075.064c-.056-.068-.106-.105-.15-.114a.129.129 0 0 0-.116.028c-.05.043-.124.165-.22.364l-.476.97.747-.254c.267-.09.44-.168.52-.237a.21.21 0 0 0 .078-.154c.003-.06-.028-.135-.093-.225l.074-.064.51.666-.074.063a.299.299 0 0 0-.193-.097c-.073-.007-.264.043-.576.15l-1.83.626c-.458.156-.755.233-.888.233a.546.546 0 0 1-.451-.224.538.538 0 0 1-.124-.367.419.419 0 0 1 .147-.308.34.34 0 0 1 .25-.09c.09.007.163.048.22.121a.304.304 0 0 1 .067.226c-.01.08-.06.16-.149.238-.05.045-.078.08-.083.104a.074.074 0 0 0 .015.067c.026.034.073.054.142.06.1.008.28-.035.539-.132l.205-.073Zm4.477 1.152a1.2 1.2 0 0 1 .304 1.205 1.626 1.626 0 0 1-.345.61c-.235.266-.494.426-.78.478-.344.065-.652-.037-.924-.304-.266-.263-.384-.565-.354-.903.03-.34.16-.64.39-.899.237-.269.517-.43.84-.484.323-.055.612.044.869.297Zm-.118.15a.29.29 0 0 0-.234-.087c-.092.006-.211.077-.36.215-.148.137-.34.34-.578.61a3.658 3.658 0 0 0-.327.426.55.55 0 0 0-.101.304.312.312 0 0 0 .275.317.421.421 0 0 0 .267-.094c.136-.1.376-.344.716-.73.2-.227.325-.395.376-.504a.515.515 0 0 0 .058-.29.292.292 0 0 0-.092-.168Zm1.916 2.043-1.08 1.36c-.105.132-.157.227-.157.284.001.088.06.182.177.279l-.06.075-1.093-.97.06-.075a.576.576 0 0 0 .203.127c.049.012.094.007.134-.014a.849.849 0 0 0 .186-.193l1.08-1.36-.27-.24.163-.205.27.24.115-.145.077-.1a.79.79 0 0 1 .608-.318c.247-.01.488.09.726.3.163.145.259.284.286.418.028.134.01.24-.052.319a.26.26 0 0 1-.203.099.358.358 0 0 1-.25-.104.331.331 0 0 1-.118-.202.227.227 0 0 1 .04-.18.643.643 0 0 1 .073-.066.37.37 0 0 0 .061-.06c.023-.03.032-.059.028-.087a.153.153 0 0 0-.053-.1.148.148 0 0 0-.136-.034c-.052.01-.108.052-.166.126l-.288.37-.198.25.274.244-.163.205-.274-.243Zm4.16 1.33-.648 1.032-.088-.065c.128-.284.163-.563.105-.837-.058-.274-.18-.48-.367-.618-.144-.106-.285-.15-.424-.13a.432.432 0 0 0-.387.4c-.006.1.014.218.06.354.033.099.129.3.286.603.22.424.338.757.352 1a1.06 1.06 0 0 1-.179.662.99.99 0 0 1-.715.448c-.309.044-.608-.04-.896-.254-.09-.066-.17-.14-.238-.219a2.635 2.635 0 0 1-.23-.335.58.58 0 0 0-.138-.168.239.239 0 0 0-.146-.042.345.345 0 0 0-.19.063l-.079-.058.76-1.147.079.057c-.152.37-.195.703-.13 1.005.065.301.2.528.405.68.159.117.315.164.47.143a.48.48 0 0 0 .352-.214.526.526 0 0 0 .084-.25.856.856 0 0 0-.038-.312 3.273 3.273 0 0 0-.234-.525c-.17-.33-.283-.585-.334-.765-.051-.181-.068-.353-.051-.517.016-.163.071-.316.166-.458a.95.95 0 0 1 .663-.433c.28-.045.55.027.805.217a1.354 1.354 0 0 1 .424.516.742.742 0 0 0 .153.22.132.132 0 0 0 .11.029c.038-.008.095-.05.173-.128l.064.047Zm.718 4.09.04.097c-.204.14-.406.215-.605.224a.97.97 0 0 1-.55-.133.989.989 0 0 1-.5-.734 1.515 1.515 0 0 1 .172-.96c.16-.305.377-.528.652-.67a.97.97 0 0 1 .988.032c.219.128.362.288.43.48.069.192.065.36-.01.504a.32.32 0 0 1-.193.172.306.306 0 0 1-.248-.04.359.359 0 0 1-.172-.222c-.025-.096-.003-.228.067-.395.044-.106.059-.19.045-.25a.193.193 0 0 0-.09-.13c-.074-.043-.157-.039-.25.012-.144.077-.281.243-.414.497-.11.21-.185.43-.222.66-.038.23-.026.423.035.582a.549.549 0 0 0 .48.344c.086.002.2-.022.345-.07Zm2.423-2.258a.436.436 0 0 1 .175.57.387.387 0 0 1-.232.21.37.37 0 0 1-.306-.027.4.4 0 0 1-.198-.245.426.426 0 0 1 .024-.322.396.396 0 0 1 .232-.21.362.362 0 0 1 .305.024Zm-.21 1.278-.87 1.808c-.078.16-.11.273-.096.337.014.063.07.127.17.189l-.041.087-1.166-.627.042-.088c.097.048.182.056.255.026.05-.02.112-.111.19-.272l.642-1.332c.077-.16.11-.273.096-.337-.014-.064-.07-.126-.17-.188l.044-.09.904.487Zm2.026 2.202-1.24-.503c-.1.323-.111.606-.033.85a.56.56 0 0 0 .324.374c.096.04.195.046.294.021.1-.025.222-.094.366-.204l.062.088c-.218.215-.422.347-.61.397a.887.887 0 0 1-.575-.044.954.954 0 0 1-.613-.719c-.059-.275-.03-.576.089-.901.145-.399.362-.675.652-.828.29-.153.571-.174.845-.063.229.093.392.272.488.54.096.267.08.597-.049.992Zm-.532-.412c.1-.274.154-.468.162-.582a.515.515 0 0 0-.047-.285.22.22 0 0 0-.118-.102c-.084-.034-.169-.018-.253.048-.15.112-.273.301-.37.565l-.032.09.658.266Zm2.251-.195-.096.315c.16-.095.304-.155.43-.179a.72.72 0 0 1 .38.028.59.59 0 0 1 .33.26c.072.12.104.252.096.393-.003.109-.049.303-.135.584l-.291.947c-.058.188-.078.31-.06.367.017.057.076.11.174.157l-.029.093-1.165-.4.029-.094c.09.018.165.001.222-.05.04-.034.086-.137.14-.31l.332-1.082c.061-.2.093-.329.094-.385a.251.251 0 0 0-.038-.147.195.195 0 0 0-.104-.084c-.141-.048-.305.014-.493.186l-.4 1.303c-.056.182-.076.303-.06.363.019.06.068.111.152.153l-.029.094-1.165-.4.029-.094c.1.023.179.014.237-.028.04-.029.089-.137.146-.324l.423-1.375c.056-.184.075-.303.057-.36-.018-.056-.076-.108-.173-.157l.03-.096.937.322Zm3.49 2.875.064.083c-.16.193-.333.324-.522.39a.965.965 0 0 1-.563.033.949.949 0 0 1-.673-.56 1.52 1.52 0 0 1-.085-.973c.074-.34.225-.617.453-.834a.98.98 0 0 1 .957-.257c.244.06.424.171.54.337.115.164.155.326.12.486a.336.336 0 0 1-.14.222.305.305 0 0 1-.248.034.343.343 0 0 1-.224-.163c-.05-.085-.062-.219-.039-.4.015-.114.007-.199-.022-.253a.184.184 0 0 0-.121-.1c-.081-.02-.16.01-.237.086-.117.116-.206.315-.268.598a2.2 2.2 0 0 0-.041.698c.024.233.085.415.186.55a.525.525 0 0 0 .55.19c.083-.022.187-.078.314-.167Zm2.694-.195-1.307-.243c-.041.336-.001.617.12.84.092.17.22.271.386.302a.47.47 0 0 0 .293-.038c.093-.045.2-.137.322-.275l.076.075c-.175.255-.351.425-.527.512a.883.883 0 0 1-.572.072c-.354-.066-.598-.259-.732-.58-.107-.26-.132-.56-.075-.904.07-.42.234-.735.49-.944.257-.209.53-.286.819-.232.241.045.434.188.576.43.143.244.187.572.131.985Zm-.597-.297c.049-.29.067-.49.055-.605a.507.507 0 0 0-.098-.27.213.213 0 0 0-.134-.075c-.09-.017-.17.016-.24.097-.127.14-.214.351-.26.63l-.016.094.693.13Zm3.393 1.478c-.313.254-.587.371-.821.354a.459.459 0 0 1-.334-.169.502.502 0 0 1-.113-.369.714.714 0 0 1 .272-.508c.17-.144.528-.325 1.077-.544l.017-.257c.013-.194.011-.315-.006-.367a.33.33 0 0 0-.286-.21.463.463 0 0 0-.281.06c-.046.029-.072.065-.075.109-.002.038.02.087.063.148.06.083.089.161.084.234a.31.31 0 0 1-.11.221.336.336 0 0 1-.253.076.386.386 0 0 1-.265-.125.327.327 0 0 1-.095-.25.582.582 0 0 1 .173-.365.932.932 0 0 1 .429-.244c.18-.05.364-.069.553-.055.23.017.407.082.534.194a.73.73 0 0 1 .237.354c.02.078.02.255.002.53l-.066.991a1.07 1.07 0 0 0-.001.221.14.14 0 0 0 .034.07.088.088 0 0 0 .058.025c.045.004.093-.026.144-.09l.073.071a.947.947 0 0 1-.287.274.569.569 0 0 1-.32.068.485.485 0 0 1-.316-.126.476.476 0 0 1-.121-.321Zm.013-.199.056-.855c-.216.114-.38.241-.492.38a.519.519 0 0 0-.121.29.327.327 0 0 0 .071.229c.04.052.098.081.176.087.086.006.19-.038.31-.131Zm2.492-1.948.006.331c.122-.144.24-.25.353-.317a.73.73 0 0 1 .366-.104.564.564 0 0 1 .393.131c.105.09.175.204.212.34.03.104.047.303.052.598l.016.996c.003.197.022.32.057.367.034.048.105.078.212.089l.002.098-1.225.023-.002-.099a.254.254 0 0 0 .195-.124c.027-.046.04-.159.036-.34l-.018-1.138a2 2 0 0 0-.03-.397.244.244 0 0 0-.082-.125.186.186 0 0 0-.123-.044c-.149.003-.285.117-.41.345l.024 1.37c.003.192.022.313.056.364.035.05.097.081.19.093l.001.098-1.225.022-.001-.098c.101-.013.173-.049.215-.109.029-.04.042-.159.039-.356l-.024-1.445c-.003-.194-.022-.313-.056-.36-.035-.047-.106-.077-.213-.09l-.002-.1.986-.019Zm4.176-1.486.34 2.924c.022.197.041.313.056.348.02.058.051.1.093.123a.404.404 0 0 0 .209.028l.01.089-.991.342-.047-.403c-.103.172-.2.292-.288.36a.632.632 0 0 1-.313.127c-.306.04-.565-.074-.777-.341-.172-.217-.278-.496-.318-.838a1.942 1.942 0 0 1 .05-.753 1.13 1.13 0 0 1 .308-.538.863.863 0 0 1 .48-.23.646.646 0 0 1 .315.031c.095.036.2.106.314.21l-.089-.766c-.022-.194-.044-.31-.063-.348a.236.236 0 0 0-.107-.104.492.492 0 0 0-.236-.008l-.013-.114 1.067-.139Zm-.52 1.816c-.157-.241-.326-.349-.51-.325a.235.235 0 0 0-.15.074c-.057.065-.097.17-.12.317-.025.146-.02.365.014.657.037.32.086.554.15.703.062.148.135.252.22.311a.239.239 0 0 0 .169.03c.15-.02.279-.163.383-.43l-.156-1.337Zm5.031-2.722.214.98-.09.022c-.104-.214-.2-.362-.286-.444a.685.685 0 0 0-.322-.17c-.07-.017-.186-.005-.346.034l-.254.062.609 2.79c.04.184.075.297.104.34a.27.27 0 0 0 .14.092.44.44 0 0 0 .243-.003l.113-.028.022.098-1.792.438-.021-.099.113-.027a.474.474 0 0 0 .227-.115.261.261 0 0 0 .076-.154c.01-.046-.005-.16-.045-.343l-.61-2.789-.248.06c-.23.057-.386.149-.468.278-.115.18-.162.408-.143.684l-.095.023-.214-.98 3.073-.75Zm2.557 1.693-1.282.363c.097.323.246.56.444.707a.516.516 0 0 0 .47.102.486.486 0 0 0 .251-.165 1.21 1.21 0 0 0 .182-.393l.1.033c-.058.31-.149.543-.274.7a.928.928 0 0 1-.49.321c-.346.098-.645.032-.895-.2-.2-.187-.344-.448-.43-.784-.104-.413-.08-.771.068-1.076.149-.303.366-.495.65-.575.236-.067.467-.023.694.133.226.156.397.434.512.834Zm-.66-.003c-.072-.284-.135-.474-.192-.572a.479.479 0 0 0-.197-.202.206.206 0 0 0-.152-.008c-.087.025-.147.09-.178.195-.059.184-.054.414.016.687l.023.093.68-.193Zm3.144-.28.096.031c-.03.255-.104.466-.226.633a1.029 1.029 0 0 1-.45.36.894.894 0 0 1-.854-.067c-.268-.166-.463-.42-.585-.756a1.648 1.648 0 0 1-.066-.96c.09-.377.31-.637.658-.778.234-.095.442-.109.625-.04.183.068.302.18.357.333a.351.351 0 0 1 .001.267.326.326 0 0 1-.187.174.326.326 0 0 1-.272-.003c-.086-.041-.167-.145-.244-.309-.048-.103-.099-.168-.151-.196a.174.174 0 0 0-.154-.011c-.077.031-.128.102-.15.21-.037.166-.005.383.093.655.082.224.194.425.335.603.143.179.291.294.446.346a.502.502 0 0 0 .353-.017.512.512 0 0 0 .204-.15c.057-.068.113-.176.17-.325ZM78.198 93.629l.636 1.32c.056-.196.119-.348.191-.455a.741.741 0 0 1 .268-.247.58.58 0 0 1 .406-.065c.136.03.246.09.33.183.084.093.189.27.315.53l.428.89c.084.173.152.274.204.3.051.027.127.02.226-.018l.042.087-1.094.59-.042-.088a.296.296 0 0 0 .126-.192c.008-.056-.028-.167-.107-.332l-.49-1.016c-.091-.189-.156-.303-.193-.344a.224.224 0 0 0-.124-.074.187.187 0 0 0-.131.02.348.348 0 0 0-.147.164 1.001 1.001 0 0 0-.077.337l.589 1.222c.079.163.14.258.181.286.057.04.134.041.23.006l.043.087-1.094.59-.042-.088c.085-.059.135-.124.148-.198.01-.05-.028-.161-.112-.335l-1.117-2.317c-.083-.173-.15-.272-.2-.298-.05-.026-.126-.02-.228.019l-.043-.09.879-.474Zm3.298-.37.152.289c.044-.188.1-.34.171-.455a.774.774 0 0 1 .277-.273.558.558 0 0 1 .405-.08.614.614 0 0 1 .338.194c.073.078.176.245.312.504l.457.87c.09.173.161.272.212.297.052.025.128.016.228-.028l.045.086-1.072.628-.045-.086a.275.275 0 0 0 .117-.206c.003-.054-.036-.16-.12-.319l-.521-.995a1.943 1.943 0 0 0-.202-.336.226.226 0 0 0-.129-.07.184.184 0 0 0-.128.023c-.13.076-.199.245-.208.507l.629 1.199c.088.168.158.265.211.293.054.027.123.023.209-.013l.045.086-1.072.628-.045-.086c.084-.061.132-.129.143-.203.007-.05-.034-.161-.125-.334l-.663-1.264c-.089-.169-.158-.265-.21-.29-.05-.024-.127-.014-.227.027l-.046-.088.862-.505Zm2.595-1.693c.172-.128.364-.2.575-.216a.998.998 0 0 1 .604.152c.192.116.356.277.493.484.197.297.291.599.28.904-.011.37-.17.668-.474.893-.298.22-.602.28-.909.178a1.424 1.424 0 0 1-.75-.59c-.2-.3-.29-.623-.275-.968.017-.346.17-.625.456-.837Zm.114.153a.317.317 0 0 0-.128.223c-.014.096.027.235.124.417.096.182.244.423.444.725.105.16.215.302.326.426.087.095.173.15.26.168a.274.274 0 0 0 .23-.045.314.314 0 0 0 .122-.174.487.487 0 0 0-.032-.295c-.065-.162-.24-.46-.527-.892-.169-.254-.298-.419-.388-.494a.454.454 0 0 0-.256-.12.263.263 0 0 0-.175.06Zm1.346-2.645 1.854 2.507c.105.142.188.22.248.233.06.014.139-.014.234-.083l.057.077-1.03.851-.057-.077c.082-.073.125-.15.13-.233.003-.056-.049-.154-.154-.297l-1.543-2.088c-.105-.141-.186-.218-.247-.232-.06-.014-.138.014-.232.082l-.06-.08.8-.66Zm1.908-.399c.153-.151.334-.251.54-.298a.986.986 0 0 1 .619.061c.206.087.39.222.552.407.234.266.367.55.396.854a1.12 1.12 0 0 1-.352.954c-.266.262-.559.366-.876.31a1.393 1.393 0 0 1-.822-.473 1.558 1.558 0 0 1-.398-.92 1.081 1.081 0 0 1 .34-.895Zm.133.135a.324.324 0 0 0-.098.24c0 .097.058.228.178.394.119.166.297.383.535.653.126.142.252.267.38.374a.487.487 0 0 0 .28.128c.088.005.162-.02.22-.078a.321.321 0 0 0 .098-.19.484.484 0 0 0-.07-.288c-.086-.151-.3-.42-.64-.806-.2-.227-.35-.37-.448-.432a.446.446 0 0 0-.27-.08.265.265 0 0 0-.165.085Zm2.152-2.46.567-.62.205.21-.323.352c.12-.002.217.01.29.035a.777.777 0 0 1 .476.607c.025.166.005.338-.058.516a1.203 1.203 0 0 1-.227.413l-.225.226a.291.291 0 0 0-.08.205c-.001.077.024.142.075.194a.185.185 0 0 0 .16.058c.062-.007.129-.051.203-.133l.308-.344c.252-.275.453-.436.606-.482a.529.529 0 0 1 .57.152c.105.108.17.24.194.397a.867.867 0 0 1-.056.464 2.28 2.28 0 0 1-.442.678c-.151.166-.305.301-.46.406-.155.106-.287.161-.395.165-.107.003-.19-.025-.25-.086a.327.327 0 0 1-.093-.225c-.004-.09.036-.215.117-.37-.236.09-.424.063-.566-.082a.588.588 0 0 1-.153-.36c-.018-.151.013-.333.091-.545-.222.114-.418.16-.59.137a.763.763 0 0 1-.451-.234c-.17-.174-.252-.398-.242-.672.01-.274.12-.527.331-.757.112-.123.251-.224.418-.305Zm-.268.385c-.07.075-.093.177-.067.304.024.126.15.306.38.54.184.188.335.293.451.31.117.02.207-.007.272-.077a.34.34 0 0 0 .077-.302c-.02-.123-.129-.285-.326-.486-.223-.227-.401-.352-.536-.375a.256.256 0 0 0-.251.086Zm1.829 2.091c-.122.134-.193.234-.211.298-.03.115-.012.205.054.272.063.065.156.085.278.06.123-.025.282-.144.477-.358.167-.183.275-.35.324-.5.05-.152.033-.27-.05-.355a.155.155 0 0 0-.106-.05.357.357 0 0 0-.223.083c-.079.057-.26.24-.543.55Zm1.807-2.694-1.887-.55c-.284-.085-.468-.124-.551-.12a.422.422 0 0 0-.23.081l-.073-.063.81-1.058.074.064c-.05.072-.075.132-.074.18a.146.146 0 0 0 .05.113c.05.043.178.094.383.151l.997.291-.391-.72c-.139-.257-.248-.419-.327-.487a.188.188 0 0 0-.16-.05c-.055.01-.118.058-.189.144l-.074-.064.51-.666.075.064a.338.338 0 0 0-.05.22c.009.076.095.264.258.564l.96 1.762c.24.441.372.732.4.87a.614.614 0 0 1-.113.513.487.487 0 0 1-.315.204.373.373 0 0 1-.315-.088.376.376 0 0 1-.135-.24.327.327 0 0 1 .066-.252.271.271 0 0 1 .195-.116c.077-.007.161.027.251.104.052.042.09.064.114.064.023.002.043-.008.06-.03.025-.034.034-.086.024-.158-.013-.105-.09-.282-.233-.53l-.11-.197Zm.053-4.84c.105-.192.25-.343.435-.452a.994.994 0 0 1 .608-.132c.22.019.433.092.64.218.298.182.503.412.615.695.138.34.114.68-.072 1.02-.182.334-.434.523-.753.568a1.349 1.349 0 0 1-.916-.2 1.494 1.494 0 0 1-.636-.755c-.122-.32-.096-.641.079-.962Zm.164.088a.332.332 0 0 0-.026.26c.025.093.118.2.278.322.16.122.39.275.692.459.16.097.316.177.467.24.116.048.217.06.303.036a.286.286 0 0 0 .19-.143.329.329 0 0 0 .04-.212.467.467 0 0 0-.146-.253c-.124-.118-.402-.31-.835-.574-.254-.155-.437-.246-.548-.274a.44.44 0 0 0-.28.006.277.277 0 0 0-.135.133Zm1.435-2.484 1.484.833c.144.08.242.115.294.103.082-.02.156-.1.222-.241l.082.046-.67 1.332-.082-.046a.635.635 0 0 0 .076-.236c0-.053-.014-.1-.042-.136a.827.827 0 0 0-.217-.153l-1.483-.833-.166.329-.224-.126.166-.33-.158-.088-.109-.058a.844.844 0 0 1-.42-.563c-.061-.253-.018-.524.127-.813.1-.199.209-.327.327-.383.118-.056.22-.06.305-.012a.278.278 0 0 1 .135.19c.02.087.005.18-.045.278a.319.319 0 0 1-.162.165c-.066.026-.123.025-.174-.004a.627.627 0 0 1-.077-.061.358.358 0 0 0-.069-.051c-.032-.018-.06-.021-.085-.011a.144.144 0 0 0-.081.075.17.17 0 0 0-.005.148c.021.052.072.101.152.146l.403.22.272.153.168-.334.225.126-.169.334Zm.723-5.574 1.128.482-.038.099c-.323-.052-.601-.01-.836.127a1.13 1.13 0 0 0-.5.59 1.156 1.156 0 0 0-.05.666c.049.229.15.426.309.589.2.21.45.378.745.504.29.125.571.2.84.223.27.025.497-.02.683-.133.186-.113.329-.302.43-.566.082-.217.114-.434.093-.653-.02-.218-.102-.474-.246-.768l.281.12c.117.275.179.535.184.78a2.07 2.07 0 0 1-.151.788c-.14.366-.335.663-.583.888-.248.226-.533.36-.852.404A1.73 1.73 0 0 1 96 77.34a1.872 1.872 0 0 1-.785-.636 2.01 2.01 0 0 1-.382-.971A2.133 2.133 0 0 1 95.4 74c.117-.132.185-.218.201-.26a.22.22 0 0 0-.003-.165.343.343 0 0 0-.149-.154l.038-.099Zm.552-1.074 1.347.408a1.609 1.609 0 0 1-.184-.457.813.813 0 0 1 .012-.375.644.644 0 0 1 .231-.359.602.602 0 0 1 .352-.13c.122-.001.315.038.581.119l.908.275c.178.054.294.07.347.048.054-.022.1-.085.142-.188l.09.027-.34 1.248-.089-.027a.31.31 0 0 0-.046-.228c-.034-.045-.135-.093-.303-.144l-1.038-.314c-.193-.059-.316-.087-.37-.086a.216.216 0 0 0-.211.16.374.374 0 0 0 .013.226.96.96 0 0 0 .181.29l1.247.377c.167.05.274.069.322.055.066-.016.12-.075.161-.174l.09.027-.339 1.248-.09-.027c.019-.107.007-.19-.034-.25-.029-.04-.132-.089-.31-.143l-2.364-.716c-.176-.053-.29-.07-.343-.049-.051.022-.1.085-.142.19l-.093-.029.272-1.002Zm.765-2.276a.41.41 0 0 1 .17-.272.375.375 0 0 1 .3-.063.38.38 0 0 1 .255.179.43.43 0 0 1 .06.318.407.407 0 0 1-.168.269.388.388 0 0 1-.555-.114.42.42 0 0 1-.062-.317Zm1.22-.14 1.884.388c.168.034.279.035.333.003.054-.031.096-.106.125-.225l.091.019-.25 1.357-.091-.019c.017-.111.001-.2-.046-.266-.033-.044-.133-.082-.3-.117l-1.388-.285c-.168-.035-.28-.037-.334-.005-.053.032-.095.106-.124.223l-.093-.02.194-1.052Zm.234-1.717.31.046a1.53 1.53 0 0 1-.24-.418.842.842 0 0 1-.04-.398.61.61 0 0 1 .534-.558c.102-.016.29-.002.567.04l.933.138c.185.027.303.027.352-.002.05-.028.089-.098.116-.208l.092.014-.17 1.282-.092-.014c0-.098-.028-.172-.086-.223-.039-.035-.143-.065-.313-.09l-1.066-.16a1.709 1.709 0 0 0-.375-.03.224.224 0 0 0-.13.065.208.208 0 0 0-.06.123c-.02.155.065.315.258.48l1.284.191c.18.027.296.026.349-.002.053-.029.091-.09.116-.183l.092.013-.17 1.282-.092-.013c.003-.108-.019-.19-.068-.242-.034-.037-.143-.069-.327-.096l-1.355-.201c-.18-.027-.295-.026-.345.002-.049.029-.087.098-.116.208l-.095-.014.137-1.032Zm2.681-3.133c.234.335.34.626.32.874a.502.502 0 0 1-.166.349.44.44 0 0 1-.351.113c-.184-.017-.343-.115-.476-.296-.133-.181-.299-.563-.496-1.148l-.243-.023c-.182-.017-.297-.017-.347 0a.279.279 0 0 0-.134.107.373.373 0 0 0-.069.192.533.533 0 0 0 .051.299c.027.049.06.076.102.08.037.004.084-.018.142-.064.08-.062.153-.09.222-.084a.285.285 0 0 1 .208.12.385.385 0 0 1 .067.268.43.43 0 0 1-.123.279.292.292 0 0 1-.238.095.53.53 0 0 1-.342-.188 1.019 1.019 0 0 1-.224-.458 1.89 1.89 0 0 1-.042-.586c.02-.242.084-.428.193-.56a.69.69 0 0 1 .339-.245c.074-.02.242-.016.501.007l.936.087c.11.01.18.012.209.005a.127.127 0 0 0 .067-.035.095.095 0 0 0 .025-.06c.004-.048-.024-.1-.083-.154l.069-.075c.12.101.204.204.254.307a.65.65 0 0 1 .059.34.535.535 0 0 1-.125.33.425.425 0 0 1-.305.124Zm-.189-.017-.807-.075c.104.23.221.407.351.527.088.08.178.124.272.132a.287.287 0 0 0 .217-.07c.051-.042.079-.103.086-.185.007-.09-.033-.2-.119-.33Z"/><path fill-rule="evenodd" clip-rule="evenodd" d="M64 20c24.234 0 44 19.766 44 44s-19.766 44-44 44-44-19.766-44-44 19.766-44 44-44Zm0 2.32c22.957 0 41.681 18.723 41.681 41.68S86.957 105.681 64 105.681c-22.957 0-41.68-18.724-41.68-41.681 0-22.957 18.723-41.68 41.68-41.68Z"/></g><defs><filter id="a" x="-13" y="0" width="154" height="157" filterUnits="userSpaceOnUse" color-interpolation-filters="sRGB"><feFlood flood-opacity="0" result="BackgroundImageFix"/><feColorMatrix in="SourceAlpha" values="0 0 0 0 0 0 0 0 0 0 0 0 0 0 0 0 0 0 127 0" result="hardAlpha"/><feOffset dy="16"/><feGaussianBlur stdDeviation="6.5"/><feColorMatrix values="0 0 0 0 0 0 0 0 0 0 0 0 0 0 0 0 0 0 0.03 0"/><feBlend in2="BackgroundImageFix" result="effect1_dropShadow_49_9761"/><feBlend in="SourceGraphic" in2="effect1_dropShadow_49_9761" result="shape"/></filter></defs></svg>