<svg width="128" height="128" fill="none" xmlns="http://www.w3.org/2000/svg"><path fill-rule="evenodd" clip-rule="evenodd" d="M84.406 60.741c.276.077 1.655.241 1.655.58 0 .398-.766.803-1.027 1.064-.118.138-.236.274-.356.41-.057.075-1.219 1.38-1.219 1.722-.024.024.076.113.1.113.006-.009.683-.278.707-.283 0-.019.169-.083.318-.184l.487-.226a.817.817 0 0 1 .705-.158c.1.022.231.095.38.081.027-.002.172.097.203.162.008.017.014.175.028.241.02.165-.11.393-.256.471-.07.01-.268.04-.336.063-2.752.94-3.824 1.553-3.88 1.595-.06.056-1.649 1.146-1.476 1.015-.01.006-.297.145-.43.18.035-.01-.067-.029-.1-.044-.038 0-.306-.113-.31-.118-.06-.05-.215-.163-.275-.212a2.763 2.763 0 0 1-.38-.38c-.219-.32-.068-.619-.054-.619.008.009.015.015.015 0h.013c.02.006 2.287-.711 2.32-.72l.198-.086.015-.028c.077-.103 2.73-3.526 2.758-3.578.006-.008.013-.014 0-.014.007-.058 0-.185-.085-.185-.154.04-1.383.661-1.433.7-.076.032-.153.065-.231.096-.417.198-.538.049-.917-.142-.12-.06-.73-.565-.716-.95.003-.067.184-.111.285-.122.15-.017.288.047.422.055.307-.002 1.1.023 1.326-.04a6.37 6.37 0 0 0 .758-.251c.018-.006.338-.152.407-.152a2.56 2.56 0 0 0 .381-.056ZM47.234 57.602c.259-.07.538-.062.7-.014.2.06.586.567.666.745l.074.172c.033.14.05.336.01.476-.028.08-.019.183-.084.242a2.927 2.927 0 0 1-.206.166c-.019 0-.143.142-.161.142 0 .023-.127.094-.105.084-.251.122-.457.193-.657.093-.04-.02-.094-.099-.099-.159-.002-.036-.009-.106-.005-.176.005-.093.025-.17.026-.194.006-.095.063-.272.085-.31.026-.047-.055-.409-.055-.409l-.33-.603c-.013-.018-.059-.082-.038-.104M43.166 58.717c.405.066.583.11.705.49.024.074.089.186.058.258-.175.398-.33.433-.655.627-.083.042-.25.13-.326.183-.165.113-.608.321-.826.31-.09-.004-.268-.071-.367-.103-.294-.096-.406-.11-.68-.244l-.109-.049c0-.006-.23-.105-.23-.105s-.049-.013-.044-.052a.333.333 0 0 0 .008-.036c.008-.064-.017-.11.005-.122.11-.059.406-.19.514-.233l.198-.077.203-.06a.991.991 0 0 1 .148-.036c.146-.052-.122.042.086-.03.018-.007.075-.035.125-.056.15-.066.093-.042.168-.06.007-.003.024-.005.086-.029.045-.017.077-.03.083-.03 0-.006 0 .005 0 0 .068-.041.217-.109.138-.072.058-.027.109-.038.156-.07.076-.049.036-.02.102-.067.047-.036.047-.036.093-.065.019-.01.127-.075.143-.088.119-.094.02-.001.155-.151M40.227 64.27c.138.036.198.067.247.189.009.02.044.1.047.119.043.244.31.447.364.587.036.096.033.136.036.154.021.127.028.172.014.242-.004.017-.002.079-.064.164-.06.08-.06.078-.089.098-.067.046-.102.06-.112.068a1.06 1.06 0 0 1-.443.176c-.021.004-.055.034-.138.038-.215.01-.3.17-.519.142-.297-.039-.158-.55-.057-.674.077-.094.117-.14.16-.202.005-.005.036-.077.042-.083 0-.023.043-.09.082-.127-.017.017.034-.05.069-.106.019-.032.102-.176.138-.283l.09-.273c.044-.076.09-.152.133-.228Z" fill="#231916"/><path fill-rule="evenodd" clip-rule="evenodd" d="M40.681 61.983c.24-.092.472-.215.716-.31.119-.047.202-.108.377-.156.15-.042.247-.068.389-.116.217-.073.31-.133.472-.184.225-.074.4-.101.692-.216.44-.172.786-.23.99-.536.127-.19.036-.484.032-.71-.007-.412-.065-.765-.072-1.164l.008-.632-.065-.189-.069-.478-.162-.498-.087-.579c-.04-.172-.169-.408-.125-.597.033-.137.283-.247.333-.26.027-.007.296.066.443.098.194.03.349.01.503.105.214.13.418.456.474.673.041.16.016.354.016.527 0 .368.035.772-.023 1.11l-.155.55c-.049.474.021.978.086 1.401.02.117.091.274.239.274.164-.12.748-.41.913-.141.05.08.044.209.042.312-.008.463-.336.402-.666.556-.105.05-.333.102-.346.233l.067.41c.101.83.33 1.58.72 2.268l.374.622c.026.052.245.378.276.378 0-.007.02-.024.024-.03.123-.23.086-.744.086-1.032.017-.16.014-.342.031-.503.005-.176.03-.328.034-.505.012-.078.077-.149.168-.14.108.011.208.165.27.237.584.689.458 1.524.352 2.4a8.247 8.247 0 0 1-.05.825c-.017.134-.015.153-.035.27-.004.107-.028.231-.033.339-.017.102-.024.244-.043.348-.005.16-.001.288-.067.416-.055.106-.227.18-.33.232-.648.316-.905-.461-1.046-.887-.089-.27-.147-.382-.273-.642-.12-.248-.408-.618-.566-.873-.093-.151-.17-.498-.367-.561l-.098.007c-.213.064-.511.466-.657.622l-.672.642c-.21.187-.567.449-.817.577-.123.064-.277.158-.394.228-.225.133-.43.295-.64.45-.196.146-.41.27-.616.403l-.799.556-.598.27c-.225.1-.477.214-.759.206-.117-.004-.281-.214-.487-.317-.064-.032-.222-.065-.284-.098-.268-.142-.35-.219-.444-.37-.023-.035-.063-.172.032-.184.26-.032.131-.022.353-.106.01-.004.298-.11.307-.115.314-.162.721-.183 1.032-.316.3-.129.552-.281.837-.415.065-.03.26-.135.333-.169.039-.02.194-.1.24-.12l.158-.086c.1-.04.13-.058.132-.054.005.005.06-.033.06-.028.12-.056.11-.065.225-.128.203-.113.35-.213.543-.34.089-.053.476-.318.534-.36.382-.28 1.004-.49 1.03-.942.014-.25-.074-.524-.13-.753-.025-.073-.026-.086-.06-.183-.011-.033-.032-.057-.086-.022a2.61 2.61 0 0 0-.612.595c-.118.156-.141.333-.24.497-.206.34-.793.517-1.133.258a.573.573 0 0 1-.217-.49c.021-.24.063-.406.174-.608.006-.014.056-.102.059-.202.006-.256.112-.703-.311-.668-.19.015-.404.148-.535.122-.026-.005-.038-.075-.036-.153 0-.022.034-.07.017-.086-.008-.007-.027-.007-.037 0a.85.85 0 0 0-.148.163c-.075.1-.08.233-.159.335-.141.181-.393.246-.573.376-.1.072-.12.196-.227.246-.134.062-.323.138-.477.125-.077-.006-.151-.098-.219-.133-.068-.033-.157-.068-.188-.095-.113-.096-.633-.26-.766-.393-.103-.103-.095-.19-.105-.258-.017-.111.42-.067.732-.201.184-.079.305-.151.31-.151.16-.086.074-.046.156-.085.049-.022.215-.113.307-.147m5.074-1.15v.017c-.104.042-.398.187-.428.298-.031.114.1.22.117.319l.052.593c.065.231.475.88.805.803.09-.02.091-.12.096-.2.013-.284-.29-1.554-.438-1.752-.04-.055-.13-.067-.204-.078Zm-1.159.632c-.162.124-.365.205-.553.288-.186.082-.626.112-.665.367-.042.255.976.385 1.073.372.143-.019.272-.044.352-.16.108-.163-.024-.797-.207-.867ZM54.234 56.603c.31 0 .59.263.59.557 0 .124.121.266.172.372l.084.254a.169.169 0 0 0 .005.016h-.017c.01.01.017.017.017 0 .109.352.013.736-.192 1.005-.052.067-.152.232-.208.298-.25.298-.423 1.078-.607 1.078-.16-.16-.226-.42-.226-.661 0-.281.04-.59.098-.866l.128-.594c.107-.324.034-.79.034-1.147 0-.023-.006-.12.018-.12l.104-.192ZM54.059 61.2c.478.032.79.662.941 1.04.01.025.018.092.049.092.153.14.281-.122.417-.122 0 .005.05.015.055.017.07.021.128.035.118.035.007.011.02.023.018.035 0 .02-.022.035-.035.052.007.017.026.035.017.053-.073.145-.105.306-.155.46-.075.228-.09.314-.16.448-.036.069-.063.128-.083.196-.042.133-.15.287-.166.33-.142.365-.207 1.19-.339 1.52-.139.346-.362 1.379-.367 1.45-.007.138-.041.184-.057.32-.028.114-.067.226-.084.343-.026.183.002.372-.022.555-.004.022-.004.103-.008.128-.147.791-.431.87-.8.87a.324.324 0 0 1-.161-.06c-.062-.038-.106-.1-.16-.152-.132-.159-.295-.368-.38-.556-.01-.02-.079-.156-.085-.241-.014-.164.029-.126.066-.347.002-.016-.013-.121-.01-.139.017-.103.209-.293.209-.4.029-.07.212-.468.217-.491.016-.058.023-.08.026-.099.042-.207.258-1.707.34-2.327.012-.09.135-.398.235-.593a.709.709 0 0 0 .028-.107c.023-.149.046-.285.075-.449.003-.019.005-.039.017-.052.01-.01.036-.098.043-.109.013-.02.022-.226.027-.25.084-.434.006-.68-.015-1.135-.001-.03-.011-.157.015-.157.016-.031.139-.15.139-.121l.035-.017v-.02ZM59.724 65.668l.288.037c.184.056.368.207.579.207.02 0 .372.553.547.821.01.017.139.302.184.412.05.068.07.184.07.278-.009.011-.047.16-.14.364-.049.113-.203.313-.347.313-.062-.013-.278-.051-.278-.051l-.348-.07c-.04-.007-.08-.012-.122-.017-.077.04-.694.12-.763.156l-.07-.088v-.016a.528.528 0 0 0 .052-.104c.023-.035.05-.12.4-.367.16-.111.293-.18.33-.697.01-.157-.127-.39-.191-.536l-.053-.237c-.032-.144-.138-.191-.138-.405Z" fill="#231916"/><path fill-rule="evenodd" clip-rule="evenodd" d="M60.593 56.266c.65.175.73.528.73 1.183-.12.17-.115.41-.23.585-.285.427-1.178.972-1.178 1.5-.038.102-.08.322-.017.422l.174.133c.007-.009.017-.017 0-.017l.226-.07c.147 0 .31.09.422.165.092.06.239.13.296.227.148.26-.153.682-.297.866-.122.153-.453.126-.527.296-.109.25.192.467.192.689.249.695-.2 1.057-.48 1.572l-.152.268c-.052.087-.135.21-.146.319-.035.333.379.1.379.1 0-.018.242-.188.242-.296.015-.046-.004-.38.019-.521.023-.153.052-.151.052-.192.108.025.194.08.313.08.67-.004.789-.007 1.047.296.015.018.022.121-.006.216-.076.262-.182.376-.446.529-.042.03-.085.064-.127.096l-.215.236c-.112.108-.268.188-.402.26-.018.007-.351.142-.547.138-.019 0-.196.06-.295.096-.301.086-.527.304-.556.66-.002.03-.249.381-.243.381-.085.178-.713.853-.884.952a.718.718 0 0 1-.384.076c-.086-.012-.14-.072-.185-.177-.014-.03.162-.248.48-.639.122-.15.116-.242.138-.297.005-.011.125-.313.105-.313-.03-.304-.312-.375-.59-.375-.034 0-.158.01-.158.01s-.145-.163-.123-.163l-.016-.307c.062-.047.182-.165.313-.174.021 0 .035.024.052.036.116-.024.646-.057.8-.435.208-.51-.318-.585-.244-.573-.515-.079-.184.303-.617.464-.047.018-.125.062-.348.09-.162.02-.946-.472-.583-1.012.007-.01.36-.417.367-.428.072-.117.163-.234.191-.38.013-.06.063-.15.07-.212.08-.754.269-1.012.269-1.012s-.111-.532-.356-.517c-.108.006-.209.058-.327.036-.21-.043-.44-.224-.607-.354-.029-.021-.112-.129-.11-.151.079-.495.767-.078 1.912-1.147.01-.008.012-.022.018-.035.017-.04.035-.08.051-.121.011-.032.053-.348.07-.348v-.017c.006-.041.013-.081.018-.122.004-.023.009-.087.034-.087v-.381l.07-.279c.01-.015.07-.103.07-.07v-.034c.344-.066.55.407.637.662.008.006.015.011.023.015h.052v.019c.1-.108.12-.341.077-.495a8.489 8.489 0 0 1-.077-.115h.017l-.019-.26c-.036-.134-.116-.27-.065-.421.006-.02.007-.048.032-.048v-.017h.017c.158.056.346.08.46.213.124.146.069.551.323.551v.018h.017c0-.024-.006-.018.017-.018.022-.055.414-.347.313-.347.13-.353.14-.77.218-1.15.004-.023.035-.118.008-.118a.856.856 0 0 1 .227-.21Zm-1.999 6.76c0 .006-.012.015-.016.017-.538.26-.661.227-.661.227s.017.233.017.33c.11-.008.408-.098.419-.104.01-.005.157-.105.165-.11.086-.047.168-.176.21-.26.005-.013.04-.094.04-.1h-.174Zm.313-1.077c0 .006-.085.017-.085.023-.203.071-.61.046-.61.36.006.075.008.187.066.236.075.064.44-.038.75-.255.011-.006.013-.021.018-.034l.035-.157c-.055-.082-.078-.13-.174-.173Zm-.66-1.596c-.183.06-.706.508-.678.57 0 0 .853.423 1.066.074.152-.25-.159-.607-.405-.646M68.31 59.711c.25.017.71.197.71.192.034.034.469.331.542.487.056.118-.092.378-.092.378-.324.763-.49 1.87-.49 1.847 0 .24.053.576.057.576.513.257-.017.467-.017.78 0 .09-.224.433-.052.433.01-.017.05-.13.062-.148.008-.007.557-.651.557-.651s.2.054.299.054c-.028.076-.022.176-.075.303-.002.005-.062.074-.085.127a5.37 5.37 0 0 1-.237.463c-.128.223-.163.43-.262.64l-.12.188c0 .004-.029.067-.033.079l-.263.82c-.003.01-.093.746-.103.929-.007.115-.079.165-.123.25-.29.562-.83.22-1.439.293-.02.002-.446-.047-.446-.266.047-.093.062-.122.107-.215.008-.008.407-.587.413-.616.07-.104.399-.69.46-.84.044-.109.117-.44.154-.571.046-.162.073-.28.077-.355a1.198 1.198 0 0 0-.368.173c-.361.24-.55.154-.866-.098-.064-.05-.237-.146-.237-.248-.282-.282.645-.575.871-.765.228-.19.451-.274.633-.518.007-.011-.026.044.02-.05.019-.038.139-1.766.139-2.008 0-.024.01-.052-.018-.052v-.018h-.017c-.285.125-.502.338-.76.523-.355.252-.854-.065-1.156-.216a51.185 51.185 0 0 0-.317-.202l-.053-.208c0-.024.106-.243.192-.243 0 0 .79-.352.934-.433.067-.059.905-.58.91-.584.108-.089.469-.206.492-.23ZM74.284 57.617l.688.013c.282.053 1.174.452 1.132.892-.012.114-.033.24-.098.314-.144.165-.375.255-.547.376l-.234.262-.28.223c-.167.15-.643 1.007-.663 1.11-.07.353-.308.623-.362.795l-.043.543c-.004.036-.061.119-.186.226-.139.121-.318.192-.47.285-.126.074-.231.16-.346.257-.073.043-.146.118-.22.161-.124.146-.224.686-.198.909.004.032-.001.144.026.144 0 .023.434.013.519-.012.323-.093.648.456.685.632.05.234-.263.497-.347.58-.257.226-.557.409-.667.758-.01.036-.086.452-.086.535l.156.103c.086-.005.71-.079.71-.103l.292-.055c.225.005.45.01.676.013.094.006.18.042.207.055.067.032.122.13.157.16.067.057.49.447.488.442.095.147.221.062.221.146-.112.492-.778.329-1.16.329l-.542.02c-.093.02-.33.058-.453.066-.175.01-.32.05-.462.086-.62.16-1.403.401-1.704.1-.101-.1-.12-.247-.189-.368-.082-.145-.23-.284-.227-.476.002-.185.185-.3.185-.432.022 0 .017.005.017-.018.211-.183.364-.685.17-.948-.116-.159-.332-.202-.346-.43-.011-.198.395-.404.419-.404.003-.04.068-.484.15-.911-.004.024-.09-.284-.064-.284-.257-.198-.138-.45-.138-.71 0-.024.052-.104.208-.45.023-.052.011-.115.016-.173l.052-.104v-.311l-.173-.122v.035l-.049.238c-.056.13-.199.448-.172.42-.12.123-.195.155-.246.14-.209-.069-.326-.414-.462-.633-.108-.172-.24-.313-.313-.503-.055-.146-.038-.395-.038-.562.01-.015.034-.617.025-.901-.01-.168-.09-.349-.046-.533.016-.065.08-.105.143-.112.201-.027.198.156.291.267l.165.16c.219.283.72 1.188.72 1.552.025.01.058.029.069.051 0 0 .552-.316.708-.71.019-.04.251-.709.227-.709v-.103a4.08 4.08 0 0 1-.017-.156h-.017l-.017.01c-.024.01-.326.178-.345.19-.22.123-.514.123-.798.118-.02 0-.07-.014-.07.01-.197-.369.09-.425.795-.903.322-.218.484-.328.59-.413.073-.065 1.288-.801 1.483-.933.144-.084.21-.124.405-.244Zm-.745 1.23c-.215.114-.386.269-.584.414l-.243.16a.435.435 0 0 0-.062.135l-.012.104c.07.128.14.254.208.381l-.017.399a2.037 2.037 0 0 0-.086.64c.07-.014.287-.219.276-.173.053-.225.11-.585.274-.92.084-.176.247-.508.462-.9.01-.017.043-.223.009-.223l-.225-.017ZM108.667 54.766l.512.126c.187.076.274.207.433.321.113.058.229.115.344.172.281.157.159.46.024.655-.112.16-.42.319-.42.532.28-.017.376-.136.593-.243.312-.157.633-.312.966-.427.107-.038.215-.077.322-.117.01-.01.019-.017.019 0 .428-.246.534-.454 1.006-.393 1.224.155 1.33.521 1.462.827.092.212.093 1.002.019 1.222-.04.118-.272.207-.378.257-.255.12-.945.5-.998.526a2.706 2.706 0 0 0-.419.232c-.177.125-.824.626-.707.848.049.093.509.448.509.448.068.053.408.393.361.393.098.596-.727.64-1.078 1.125-.093.129-.57.424-.315.55.185.092.489.033.71.049.414.03.647.221.945.46.107.087.257.064.314.216a.507.507 0 0 1-.002.308l-.06.1c-.028.05-1.372.97-1.772.744-.032-.019-.048-.055-.072-.083a5.338 5.338 0 0 0-.077-.625c-.053-.063-.221-.162-.314-.159-.053.01-.113.006-.161.033-.296.172-.372.513-.319.76.031.056.215 2.62.25 2.795.017.086.209.88.195.904.045.168.082.296.114.452l-.057.238c-.06.301-.046.532-.333.695l-.153.072c-.102.018-.308.092-.412.087-.665-.033-1.147-.308-1.769-.431-.241-.048-.745-.146-.86-.318-.011-.016.031-.148.038-.178l.399.053c.082.012.163.043.247.036.556-.045 1.082-.187 1.082-.187s.337-.413.344-.582c.042-1.214-.077-2.901-.177-3.41-.01-.048-.113-.18-.147-.218h-.037c-.095.06-.188.123-.285.179-.792.467-1.769 1.513-2.15 1.928-.224.21-.532.64-.986.723-.378.07-.78-.13-1.084-.257-.022-.01-.629-.408-.93-.534-.149-.063-.135-.364-.135-.359.007 0 .098-.118.198-.155.232-.09.84-.2 1.029-.276.481-.197 1.873-.897 1.967-.944.007 0 2.636-1.395 2.641-1.395.029-.01.266-.372.266-.393.018-.039.45-.756.494-1.02.018-.106.107-.423-.113-.392-.389.056-.615.324-1.012.51-.075.034-.794.57-1.498.838-.143.056-.304-.047-.457-.071-.018-.012-.481-.106-.526-.278-.006-.014.403-.409.433-.409.041.003 1.34-.52 1.34-.535.025 0 1.339-.657 1.339-.68.191-.089.648-.283.969-.466.006-.003.293-.4.297-.406.302-.451.921-1.577.977-1.631l.076-.16c.014-.032.114-.155.114-.179.001-.036.073-.36-.055-.505-.058-.069-.245-.137-.342-.133-.213.008-1.138.397-1.303.525-.07.053-.132.167-.125.256a.105.105 0 0 1 .001.017c-.007 0 .438.771.46 1.088l-.052.25c-.005.025-.035.128-.009.128l-.335.418c-.092.098-.465.312-.465.422l-.378.017c-.41.137-1.162-.09-1.356-.47-.071-.14-.129-.716.328-1.674.011-.022.019.006.019-.018h-.019v.018c-.068-.012-.246 0-.246 0l-.133.09-.366.338-.279.212-.027.126.14.503c.071.032.115.159.115.233l.126.158c.156.225.303.638.097.904-.017.022-.019.064-.053.064-.558.303-.973-.563-1.415-.394-.022.009-.069.026-.069.053.027.066.052.132.077.197-.058.216.13.644-.209.644-.335.073-.435-.245-.581-.438a84.547 84.547 0 0 1-.141-.17c-.01-.013-.247-.47-.304-.554a1.285 1.285 0 0 0-.039-.054l-.244-.436c-.073-.163-.098-.316-.206-.46-.011-.016-.081-.126-.103-.153-.273-.32-.834-.898-.15-.898.07.03.487.224.564.272.129.08.622.532.785.532 0-.006.034-.002.034-.008.007 0 .038-.09.051-.113-.006 0-.096-.21-.144-.291a7.773 7.773 0 0 0-.205-.328c-.55-.796-.85-.998-.911-1.055-.176-.16-.545-.48-.359-.74.007-.008.033-.058.033-.021h.019c.103-.05 1.285.58 1.291.555.006 0 .416.288.416.294.007 0 .194.167.194.187.098.15.216.312.349.441.068.059.128.157.198.214.063.077.076.124.168.188a.429.429 0 0 0 .217.07.787.787 0 0 1 .259-.306c.013-.006.314-.26.377-.395.006-.016.058-.158.029-.158a21.152 21.152 0 0 1-.311-.222c-.133-.09-.493-.146-.53-.355-.017-.105.042-.238.042-.334.025 0 .341.035.494.035.058-.018.749.107.931-.069.032-.032.281-.378.287-.492.025 0 .031-.427.031-.457.059-.065.139-.185.197-.25Zm.378 3.253c-.017.074-.1.465-.093.465-.111.186.118.43.322.43v-.02c.006-.011.167-.267.19-.267v-.018c-.088-.248-.083-.529-.419-.59ZM94.615 57.038c.124.01.309.005.406.076.144.104.455.269.532.339.212.19.976.82 1.085 1.14.007.022.084.282.037.356-.154.244-.24 1.33-.276 1.45-.12.413-.167.906-.084 1.015.04.055.164.096.17.096a78.813 78.813 0 0 1 1.184-.872c.069 0 .492.034.56.034l.132-.019c.296-.119.495.318.656.318.011.106.025.214.037.32-.11.045-1.632.774-1.748.866-.335.261-.563.449-1.212.817-.205.117-.4 1.154-.51 1.386-.639 1.355-1.05 2.53-2.11 3-.182.08-.526.268-.66.319-.045.016-.634.269-.824.297-.127.018-.358.084-.621.1-.32.019-.764-.071-.96-.076-.016-.002-.141-.046-.066-.154.055-.077.21-.06.581-.26.132-.07.364-.181.498-.243.044-.022.166-.12.195-.134 1.394-.688 2.136-1.928 2.117-1.928.057-.032.294-.656.337-.732-.008-.006-.019-.018 0-.018v-.019h-.019a.571.571 0 0 0-.254.084c-.144.09-1.248.982-1.17.946-.338.15-.594.296-1.16.038.005.002-.013 0-.019 0-.083-.134-.758-.602-1.217-.806-.052-.023-.039-.173-.056-.261a.575.575 0 0 1 .392-.169c.02.012 1.234-.377 1.234-.384.24-.047 2.742-1.21 2.801-1.635a.953.953 0 0 1-.007-.098c.364-2.043.065-3.768-.136-4.271-.069-.169.136-.866.155-.918Z" fill="#231916"/><path fill-rule="evenodd" clip-rule="evenodd" d="M96.206 63.519c.179.057.333.02.577.266.005.004.09.157.105.171.098.146 1.138 1.395 1.58 1.68.312.203 1.424.698 2.364.68.072-.002.244.144.244.144-.017.122-.193.276-.241.302-.176.095-1.158.449-1.417.537-.355.122-.862.456-1.095.38-.463-.155-.691-.576-.75-.667-.212-.329-1.51-3.06-1.51-3.089-.055-.117.08-.33.143-.404Z" fill="#231916"/><path d="M41.352 71.553v.065a.225.225 0 0 0-.113.037.281.281 0 0 0-.082.097c-.007.014-.044.106-.11.274l-.75 1.975h-.07l-.592-1.543-.654 1.543h-.065l-.787-1.954a2.082 2.082 0 0 0-.168-.356c-.031-.042-.085-.066-.16-.073v-.065h1.037v.065c-.083.003-.139.015-.166.038a.107.107 0 0 0-.042.086c0 .045.03.14.087.284l.469 1.161.376-.907-.099-.254a1.89 1.89 0 0 0-.125-.278.276.276 0 0 0-.102-.1.376.376 0 0 0-.168-.03v-.065h1.16v.065a.631.631 0 0 0-.175.02.11.11 0 0 0-.08.108c0 .027.027.11.08.248l.436 1.133.39-1.025a2.13 2.13 0 0 0 .076-.217.468.468 0 0 0 .014-.108.14.14 0 0 0-.05-.114c-.033-.028-.096-.042-.189-.045v-.065h.622ZM41.558 71.553h1.236v.066h-.062a.437.437 0 0 0-.192.028.167.167 0 0 0-.074.08.876.876 0 0 0-.022.257v1.171c0 .215.017.356.049.426.032.069.085.127.16.173a.525.525 0 0 0 .28.069c.13 0 .24-.03.33-.088a.536.536 0 0 0 .206-.24c.045-.103.068-.281.068-.535v-.976a.561.561 0 0 0-.034-.23.2.2 0 0 0-.085-.095.5.5 0 0 0-.224-.04v-.066h.828v.066h-.05a.319.319 0 0 0-.167.04.23.23 0 0 0-.097.122.613.613 0 0 0-.023.203v.908c0 .282-.019.485-.056.61a.678.678 0 0 1-.27.343c-.144.105-.34.158-.588.158-.207 0-.367-.028-.48-.083a.709.709 0 0 1-.327-.29 1 1 0 0 1-.095-.475v-1.171a.834.834 0 0 0-.023-.257.174.174 0 0 0-.08-.08.488.488 0 0 0-.208-.029v-.065ZM45.162 72.795v.741c0 .123.007.2.02.23a.18.18 0 0 0 .08.08c.04.023.093.035.16.035h.08v.065H44.25v-.065h.08c.069 0 .125-.013.167-.038a.163.163 0 0 0 .07-.084.738.738 0 0 0 .02-.223v-1.574a.797.797 0 0 0-.02-.23.178.178 0 0 0-.078-.08.318.318 0 0 0-.16-.034h-.08v-.065h1.252v.065h-.08a.334.334 0 0 0-.167.037.17.17 0 0 0-.072.085.728.728 0 0 0-.02.222v.678h.846v-.678a.782.782 0 0 0-.02-.23.178.178 0 0 0-.08-.08.321.321 0 0 0-.16-.034h-.077v-.065h1.25v.065h-.078a.327.327 0 0 0-.168.037.17.17 0 0 0-.072.085.728.728 0 0 0-.02.222v1.574c0 .123.007.2.02.23.012.03.039.057.079.08s.093.035.16.035h.078v.065h-1.25v-.065h.078c.07 0 .127-.013.168-.038a.167.167 0 0 0 .072-.084.723.723 0 0 0 .02-.223v-.74h-.846ZM48.52 73.134l-.357-.824-.367.824h.724Zm.06.13h-.846l-.1.234a.515.515 0 0 0-.05.192.16.16 0 0 0 .082.148c.031.019.11.033.234.042v.066h-.796v-.066a.355.355 0 0 0 .212-.106c.055-.059.124-.179.205-.362l.856-1.909h.033l.863 1.963c.082.186.15.303.203.35.04.037.097.058.17.064v.066h-1.158v-.066h.048c.093 0 .158-.013.195-.038a.095.095 0 0 0 .04-.082.22.22 0 0 0-.011-.065 1.747 1.747 0 0 0-.053-.132l-.127-.299ZM50.677 71.553l1.18 1.484v-1.029c0-.143-.02-.24-.061-.291-.057-.068-.152-.101-.285-.099v-.065h.791v.065a.596.596 0 0 0-.203.05.204.204 0 0 0-.082.101.69.69 0 0 0-.029.24V74h-.06l-1.618-1.993v1.522c0 .137.031.23.094.278a.346.346 0 0 0 .216.073h.057v.065h-.85v-.065c.133-.001.224-.028.276-.082.052-.053.078-.142.078-.27v-1.688l-.051-.064a.463.463 0 0 0-.134-.125.397.397 0 0 0-.168-.034v-.065h.849ZM54.55 71.553h1.235v.066h-.061a.436.436 0 0 0-.192.028.168.168 0 0 0-.074.08.876.876 0 0 0-.022.257v1.171c0 .215.016.356.049.426.032.069.085.127.16.173a.526.526 0 0 0 .28.069c.13 0 .24-.03.33-.088a.536.536 0 0 0 .206-.24c.045-.103.067-.281.067-.535v-.976a.57.57 0 0 0-.033-.23.204.204 0 0 0-.085-.095.502.502 0 0 0-.224-.04v-.066h.828v.066h-.05a.317.317 0 0 0-.167.04.23.23 0 0 0-.097.122.6.6 0 0 0-.023.203v.908c0 .282-.02.485-.056.61-.037.124-.127.239-.27.343-.145.105-.34.158-.588.158-.208 0-.367-.028-.48-.083a.708.708 0 0 1-.327-.29 1.001 1.001 0 0 1-.095-.475v-1.171a.819.819 0 0 0-.023-.257.17.17 0 0 0-.08-.08.486.486 0 0 0-.208-.029v-.065ZM58.066 71.553l1.18 1.484v-1.029c0-.143-.02-.24-.061-.291-.057-.068-.152-.101-.285-.099v-.065h.791v.065a.598.598 0 0 0-.204.05.204.204 0 0 0-.081.101.69.69 0 0 0-.029.24V74h-.06l-1.618-1.993v1.522c0 .137.031.23.094.278a.346.346 0 0 0 .216.073h.057v.065h-.85v-.065c.133-.001.224-.028.276-.082.052-.053.078-.142.078-.27v-1.688l-.051-.064a.463.463 0 0 0-.135-.125.396.396 0 0 0-.167-.034v-.065h.849ZM61.19 73.88v.066h-1.252v-.066h.08c.069 0 .125-.012.167-.037a.163.163 0 0 0 .071-.085.73.73 0 0 0 .02-.222v-1.574a.79.79 0 0 0-.02-.23.177.177 0 0 0-.079-.08.315.315 0 0 0-.16-.034h-.079v-.065h1.251v.065h-.079a.332.332 0 0 0-.167.037.168.168 0 0 0-.073.084.73.73 0 0 0-.02.223v1.574c0 .123.008.199.021.23.013.03.04.057.08.08.039.023.092.034.16.034h.078ZM63.936 71.553v.065a.387.387 0 0 0-.233.14c-.049.058-.123.197-.22.414l-.825 1.829H62.6l-.82-1.903c-.1-.23-.166-.364-.199-.404-.033-.04-.097-.065-.19-.076v-.065h1.147v.065H62.5c-.104 0-.175.013-.212.039a.087.087 0 0 0-.04.078c0 .02.004.046.013.075.01.028.042.106.096.232l.51 1.191.473-1.06c.056-.129.09-.215.104-.258a.401.401 0 0 0 .019-.112.16.16 0 0 0-.028-.093.175.175 0 0 0-.083-.062.562.562 0 0 0-.201-.03v-.065h.785ZM65.048 71.69v.975h.048c.151 0 .261-.048.33-.143.068-.095.111-.236.13-.422h.067v1.253h-.067a.942.942 0 0 0-.089-.335.387.387 0 0 0-.158-.176.602.602 0 0 0-.26-.045v.675c0 .131.005.212.016.241.011.03.032.054.062.072.031.02.08.029.149.029h.142c.224 0 .403-.052.538-.156.135-.103.231-.26.29-.473h.066l-.108.761h-2.069v-.065h.08a.33.33 0 0 0 .168-.037.163.163 0 0 0 .07-.085.742.742 0 0 0 .02-.222v-1.575c0-.108-.003-.174-.01-.199a.17.17 0 0 0-.065-.095.304.304 0 0 0-.183-.05h-.08v-.065h2.004v.708h-.067c-.034-.173-.082-.297-.144-.373a.535.535 0 0 0-.262-.166 1.417 1.417 0 0 0-.371-.031h-.247ZM67.525 71.681v1.05h.1c.164 0 .286-.016.367-.046a.366.366 0 0 0 .192-.162.593.593 0 0 0 .07-.307c0-.182-.043-.317-.129-.404-.085-.087-.222-.13-.411-.13h-.19Zm0 1.174v.67c0 .13.008.212.023.245.017.034.044.06.084.08.04.02.115.03.224.03v.066h-1.224v-.065c.11 0 .185-.01.225-.031a.182.182 0 0 0 .083-.08.742.742 0 0 0 .023-.244v-1.553a.75.75 0 0 0-.023-.245.177.177 0 0 0-.084-.08.563.563 0 0 0-.224-.03v-.065h1.111c.29 0 .502.02.636.06.134.04.243.114.328.221a.593.593 0 0 1 .127.379.565.565 0 0 1-.19.437.788.788 0 0 1-.341.165l.575.81c.076.105.13.17.161.196a.3.3 0 0 0 .168.06v.065h-.754l-.771-1.09h-.157ZM70.963 71.498l.02.798h-.073a.816.816 0 0 0-.252-.483.632.632 0 0 0-.433-.182.406.406 0 0 0-.285.096.293.293 0 0 0-.105.221c0 .053.012.1.037.142.034.055.089.11.164.164.056.039.183.108.383.206.28.138.469.268.567.39a.66.66 0 0 1 .144.42.68.68 0 0 1-.233.516.84.84 0 0 1-.594.217.955.955 0 0 1-.214-.023 1.562 1.562 0 0 1-.252-.087.38.38 0 0 0-.14-.035.171.171 0 0 0-.097.035.253.253 0 0 0-.083.108h-.065v-.904h.065c.052.255.152.448.3.582.147.133.306.2.477.2a.447.447 0 0 0 .315-.107.33.33 0 0 0 .117-.251.328.328 0 0 0-.045-.164.523.523 0 0 0-.136-.151 2.062 2.062 0 0 0-.325-.186 2.801 2.801 0 0 1-.47-.274.843.843 0 0 1-.22-.252.628.628 0 0 1-.076-.307c0-.19.07-.353.21-.488a.735.735 0 0 1 .53-.2.905.905 0 0 1 .427.106c.08.039.135.057.167.057.03 0 .055-.009.073-.028a.328.328 0 0 0 .049-.136h.053ZM72.69 73.88v.066h-1.252v-.066h.08c.069 0 .125-.012.167-.037a.163.163 0 0 0 .07-.085.726.726 0 0 0 .02-.222v-1.574c0-.122-.006-.2-.02-.23a.177.177 0 0 0-.078-.08.315.315 0 0 0-.16-.034h-.08v-.065h1.252v.065h-.079a.331.331 0 0 0-.168.037.168.168 0 0 0-.072.084.726.726 0 0 0-.02.223v1.574c0 .123.007.199.02.23a.18.18 0 0 0 .08.08c.04.023.093.034.16.034h.08ZM75.142 71.553v.648h-.063a1.017 1.017 0 0 0-.125-.323.481.481 0 0 0-.19-.156.6.6 0 0 0-.234-.031h-.178v1.846c0 .122.006.198.02.229.013.03.04.057.08.08.039.023.093.034.16.034h.08v.066H73.44v-.066h.079a.33.33 0 0 0 .167-.037.166.166 0 0 0 .073-.084.724.724 0 0 0 .02-.222V71.69h-.174c-.161 0-.278.034-.351.102a.677.677 0 0 0-.194.407h-.067v-.647h2.15ZM77.933 71.553v.065a.354.354 0 0 0-.182.069c-.058.05-.151.184-.279.404l-.518.867v.579c0 .123.006.2.02.23a.18.18 0 0 0 .076.08.296.296 0 0 0 .153.034h.134v.065h-1.343v-.066h.125c.07 0 .127-.012.168-.037a.168.168 0 0 0 .072-.084.72.72 0 0 0 .02-.222v-.48l-.564-1.026c-.111-.202-.19-.321-.236-.357a.296.296 0 0 0-.183-.056v-.065h1.147v.065h-.052c-.069 0-.117.01-.145.03-.028.02-.042.041-.042.064 0 .042.048.148.141.32l.433.791.43-.722c.107-.176.161-.293.161-.35 0-.032-.015-.059-.046-.08-.04-.03-.113-.047-.22-.053v-.065h.73ZM81.335 71.632c-.219 0-.385.112-.5.335-.092.184-.139.448-.139.79 0 .41.072.711.215.906.1.137.24.205.42.205.122 0 .223-.03.304-.088a.724.724 0 0 0 .242-.361c.057-.165.086-.38.086-.647 0-.317-.03-.553-.088-.71-.059-.157-.134-.268-.225-.333a.53.53 0 0 0-.315-.097Zm-.021-.113c.38-.014.69.097.929.334.238.236.358.532.358.887 0 .304-.09.571-.267.802-.236.305-.568.458-.997.458-.43 0-.764-.145-1-.437a1.268 1.268 0 0 1-.278-.82c0-.356.12-.652.363-.89.242-.237.539-.348.892-.334ZM83.813 71.69v.984h.069a.61.61 0 0 0 .26-.048.408.408 0 0 0 .17-.16.733.733 0 0 0 .09-.306h.062v1.202h-.062c-.022-.227-.083-.377-.182-.45a.561.561 0 0 0-.338-.108h-.069v.733c0 .122.007.198.02.229.014.03.04.057.08.08.039.023.092.035.16.035h.079v.065H82.9v-.065h.08a.33.33 0 0 0 .167-.037.161.161 0 0 0 .071-.085.734.734 0 0 0 .02-.222v-1.575a.798.798 0 0 0-.02-.23.179.179 0 0 0-.079-.08.315.315 0 0 0-.16-.034H82.9v-.065h2.02v.687h-.073c-.016-.162-.058-.281-.126-.359a.553.553 0 0 0-.294-.164 1.885 1.885 0 0 0-.392-.026h-.222ZM89.186 71.553v.648h-.063a1.02 1.02 0 0 0-.125-.323.482.482 0 0 0-.19-.156.6.6 0 0 0-.234-.031h-.178v1.846c0 .122.007.198.02.229.014.03.04.057.08.08.039.023.093.034.161.034h.08v.066h-1.253v-.066h.079a.33.33 0 0 0 .168-.037.166.166 0 0 0 .072-.084.72.72 0 0 0 .02-.222V71.69h-.174c-.161 0-.278.034-.35.102a.677.677 0 0 0-.195.407h-.067v-.647h2.15ZM90.392 71.69v.975h.048c.152 0 .262-.048.33-.143.068-.095.111-.236.13-.422h.067v1.253H90.9a.942.942 0 0 0-.089-.335.388.388 0 0 0-.158-.176.601.601 0 0 0-.26-.045v.675a.99.99 0 0 0 .016.241c.011.03.032.054.062.072.031.02.08.029.149.029h.143c.224 0 .402-.052.537-.156.135-.103.232-.26.29-.473h.066l-.108.761H89.48v-.065h.08a.33.33 0 0 0 .167-.037.163.163 0 0 0 .07-.085.738.738 0 0 0 .02-.222v-1.575a1.26 1.26 0 0 0-.009-.199.17.17 0 0 0-.065-.095.304.304 0 0 0-.184-.05h-.08v-.065h2.004v.708h-.067c-.034-.173-.082-.297-.144-.373a.535.535 0 0 0-.262-.166 1.417 1.417 0 0 0-.37-.031h-.248ZM94.32 71.498v.83h-.068a.887.887 0 0 0-.29-.498.74.74 0 0 0-1.164.293 1.527 1.527 0 0 0-.112.593c0 .214.027.409.082.585a.78.78 0 0 0 .254.399c.115.09.264.135.448.135.15 0 .289-.033.414-.1a1.43 1.43 0 0 0 .396-.34v.207c-.134.14-.274.241-.42.304a1.27 1.27 0 0 1-.508.095 1.46 1.46 0 0 1-.68-.154 1.086 1.086 0 0 1-.46-.441 1.23 1.23 0 0 1-.16-.613c0-.228.059-.444.178-.65a1.311 1.311 0 0 1 1.13-.646c.169.001.347.038.534.11a.827.827 0 0 0 .206.064c.038 0 .07-.014.098-.042a.228.228 0 0 0 .054-.131h.069ZM95.597 72.795v.741c0 .123.007.2.02.23.014.03.04.057.08.08s.092.035.16.035h.079v.065h-1.251v-.065h.079c.07 0 .126-.013.168-.038a.16.16 0 0 0 .07-.084.738.738 0 0 0 .02-.223v-1.574a.797.797 0 0 0-.02-.23.178.178 0 0 0-.078-.08.316.316 0 0 0-.16-.034h-.08v-.065h1.252v.065h-.08a.334.334 0 0 0-.167.037.172.172 0 0 0-.073.085.728.728 0 0 0-.019.222v.678h.846v-.678a.782.782 0 0 0-.02-.23.179.179 0 0 0-.08-.08.323.323 0 0 0-.16-.034h-.078v-.065h1.25v.065h-.078a.328.328 0 0 0-.168.037.172.172 0 0 0-.072.085.728.728 0 0 0-.02.222v1.574c0 .123.007.2.02.23.013.03.04.057.08.08s.093.035.16.035h.078v.065h-1.25v-.065h.078c.07 0 .126-.013.168-.038a.168.168 0 0 0 .072-.084.723.723 0 0 0 .02-.223v-.74h-.846ZM98.41 71.553l1.181 1.484v-1.029c0-.143-.02-.24-.061-.291-.057-.068-.152-.101-.284-.099v-.065h.79v.065a.597.597 0 0 0-.203.05.203.203 0 0 0-.082.101.69.69 0 0 0-.029.24V74h-.06l-1.618-1.993v1.522c0 .137.031.23.094.278a.346.346 0 0 0 .216.073h.057v.065h-.849v-.065c.132-.001.224-.028.275-.082.052-.053.078-.142.078-.27v-1.688l-.051-.064a.463.463 0 0 0-.134-.125.397.397 0 0 0-.168-.034v-.065h.849ZM101.628 71.632c-.219 0-.386.112-.499.335-.094.184-.14.448-.14.79 0 .41.072.711.215.906.1.137.24.205.42.205.121 0 .223-.03.304-.088a.724.724 0 0 0 .242-.361c.057-.165.086-.38.086-.647 0-.317-.029-.553-.088-.71-.059-.157-.134-.268-.225-.333a.53.53 0 0 0-.315-.097Zm-.021-.113c.381-.014.691.097.929.334a1.2 1.2 0 0 1 .357.887c0 .304-.089.571-.266.802-.236.305-.568.458-.997.458-.431 0-.764-.145-.999-.437a1.267 1.267 0 0 1-.279-.82c0-.356.121-.652.363-.89.241-.237.539-.348.892-.334ZM105.395 73.106l-.09.84h-2.125v-.065h.079c.07 0 .125-.013.168-.037a.16.16 0 0 0 .07-.085.718.718 0 0 0 .02-.222v-1.575a.779.779 0 0 0-.02-.23.18.18 0 0 0-.078-.08.32.32 0 0 0-.16-.034h-.079v-.065h1.275v.065h-.104a.33.33 0 0 0-.167.037.163.163 0 0 0-.072.085.717.717 0 0 0-.02.222v1.525c0 .123.007.2.021.234a.142.142 0 0 0 .083.075c.029.01.101.016.214.016h.199a.678.678 0 0 0 .318-.067.6.6 0 0 0 .22-.212c.062-.097.12-.239.175-.427h.073ZM107.031 71.632c-.219 0-.385.112-.499.335-.093.184-.14.448-.14.79 0 .41.072.711.216.906.1.137.24.205.42.205.121 0 .222-.03.303-.088a.724.724 0 0 0 .242-.361c.058-.165.086-.38.086-.647 0-.317-.029-.553-.088-.71-.059-.157-.134-.268-.225-.333a.53.53 0 0 0-.315-.097Zm-.021-.113c.381-.014.691.097.929.334a1.2 1.2 0 0 1 .358.887c0 .304-.089.571-.267.802-.235.305-.568.458-.997.458-.431 0-.764-.145-.999-.437a1.267 1.267 0 0 1-.279-.82c0-.356.121-.652.363-.89.242-.237.539-.348.892-.334ZM111.009 71.498v.844h-.065a1.075 1.075 0 0 0-.355-.526.837.837 0 0 0-.517-.18.663.663 0 0 0-.446.15.82.82 0 0 0-.253.422 2.1 2.1 0 0 0-.074.554c0 .23.027.43.082.603.053.173.141.3.261.382a.753.753 0 0 0 .43.121.873.873 0 0 0 .177-.018c.061-.013.123-.03.187-.054v-.498a.526.526 0 0 0-.02-.183.178.178 0 0 0-.08-.075.299.299 0 0 0-.147-.033h-.062v-.065h1.163v.065a.507.507 0 0 0-.184.036.183.183 0 0 0-.081.091.516.516 0 0 0-.016.164v.498a2.381 2.381 0 0 1-.991.206c-.228 0-.416-.03-.566-.093a1.4 1.4 0 0 1-.397-.243 1.15 1.15 0 0 1-.269-.34 1.181 1.181 0 0 1-.124-.545c0-.36.127-.664.379-.913a1.31 1.31 0 0 1 .955-.372c.119 0 .226.01.322.029.051.009.135.036.251.08.116.044.184.066.206.066a.138.138 0 0 0 .091-.036.32.32 0 0 0 .078-.137h.065ZM113.987 71.553v.065a.358.358 0 0 0-.182.069c-.058.05-.151.184-.278.404l-.519.867v.579c0 .123.006.2.019.23s.039.056.077.08a.297.297 0 0 0 .153.034h.134v.065h-1.343v-.066h.125c.07 0 .127-.012.168-.037a.167.167 0 0 0 .072-.084.728.728 0 0 0 .019-.222v-.48l-.563-1.026c-.111-.202-.19-.321-.236-.357a.297.297 0 0 0-.184-.056v-.065h1.148v.065h-.052c-.069 0-.117.01-.145.03-.028.02-.042.041-.042.064 0 .042.047.148.142.32l.432.791.43-.722c.107-.176.161-.293.161-.35 0-.032-.015-.059-.046-.08-.04-.03-.114-.047-.22-.053v-.065h.73Z" fill="#231916"/><path fill-rule="evenodd" clip-rule="evenodd" d="M34.063 64c.034 5.524-4.416 10.03-9.939 10.064-5.523.034-10.028-4.416-10.062-9.94-.034-5.523 4.415-10.028 9.939-10.062 5.523-.034 10.028 4.415 10.062 9.939Z" fill="#00489B"/><path fill-rule="evenodd" clip-rule="evenodd" d="M30.865 64.02a6.801 6.801 0 1 1-13.603.084 6.802 6.802 0 1 1 13.603-.083Z" fill="#FBC642"/><path d="m16.433 64.069-.026-.001a.123.123 0 0 0-.012-.06.13.13 0 0 0-.049-.047.736.736 0 0 0-.116-.048l-.764-.29v-.027l.619-.2-.606-.235v-.025l.804-.263c.06-.02.096-.031.107-.037a.094.094 0 0 0 .041-.037.154.154 0 0 0 .014-.066h.027l-.01.356-.027-.001v-.018c.002-.025-.003-.043-.015-.057a.05.05 0 0 0-.04-.02.502.502 0 0 0-.115.027l-.542.172.451.173.082-.026.065-.02a.35.35 0 0 0 .064-.033.09.09 0 0 0 .022-.02.133.133 0 0 0 .02-.036.127.127 0 0 0 .005-.042h.027l-.011.373h-.026v-.026c.001-.026-.004-.045-.015-.058a.066.066 0 0 0-.045-.02.444.444 0 0 0-.127.03l-.526.167.523.197a.496.496 0 0 0 .12.035c.011 0 .021-.003.03-.01a.053.053 0 0 0 .021-.024.205.205 0 0 0 .013-.07h.025l-.008.287Zm.042.668.025-.002.026.34-.026.001-.002-.036a.1.1 0 0 0-.054-.084.233.233 0 0 0-.102-.007l-.389.03a.653.653 0 0 1-.224-.012.28.28 0 0 1-.145-.1.417.417 0 0 1-.075-.224.436.436 0 0 1 .037-.242.296.296 0 0 1 .137-.125.8.8 0 0 1 .234-.041l.374-.028c.058-.005.096-.016.113-.034.017-.016.024-.044.022-.08l-.003-.035.026-.003.032.413-.027.003-.002-.038c-.004-.04-.018-.066-.044-.082-.018-.01-.054-.013-.107-.008l-.417.03a.865.865 0 0 0-.127.02.27.27 0 0 0-.108.046.208.208 0 0 0-.062.083.351.351 0 0 0 .038.29.22.22 0 0 0 .112.092.606.606 0 0 0 .219.012l.386-.03c.06-.004.096-.014.11-.028.02-.02.028-.048.025-.084l-.002-.037Zm-.309.693.073.438.271-.044a.305.305 0 0 0 .094-.025c.01-.007.019-.018.025-.035a.122.122 0 0 0 .005-.066l-.004-.032.025-.005.067.405-.026.004-.006-.034a.126.126 0 0 0-.026-.061.059.059 0 0 0-.039-.024.331.331 0 0 0-.093.007l-.61.1a.323.323 0 0 0-.094.025.065.065 0 0 0-.025.033.137.137 0 0 0-.006.068l.005.032-.026.005-.066-.404.026-.005.005.034c.007.038.023.065.049.079.016.009.053.009.11-.001l.287-.047-.072-.44-.288.048a.259.259 0 0 0-.093.026c-.011.005-.019.017-.025.033a.134.134 0 0 0-.007.066l.006.035-.026.004-.066-.405.026-.005.005.034c.006.038.022.065.048.08.017.008.053.008.11-.001l.61-.1a.336.336 0 0 0 .095-.026.067.067 0 0 0 .025-.034.121.121 0 0 0 .005-.066l-.005-.034.026-.004.067.405-.026.005-.006-.034a.126.126 0 0 0-.026-.062.06.06 0 0 0-.039-.024.307.307 0 0 0-.093.007l-.272.045Zm.15 1.426-.098-.357-.163-.022a.224.224 0 0 0-.087-.002c-.014.005-.024.015-.032.03-.006.018-.005.048.004.092l-.026.009-.08-.291.026-.008c.018.037.033.06.046.068.028.017.08.03.155.04l.85.116.006.024-.68.533a.346.346 0 0 0-.101.104.157.157 0 0 0-.008.096l-.024.007-.1-.364.024-.007c.013.036.026.06.04.07.014.01.028.013.043.01a.342.342 0 0 0 .088-.055l.117-.093Zm.046-.032.33-.26-.418-.057.088.316Zm.581.092.124.228-.354.857.486-.263c.053-.028.08-.05.088-.07.009-.024.004-.053-.013-.085l-.016-.03.023-.013.158.293-.023.013-.016-.03c-.02-.035-.044-.055-.073-.059-.018-.001-.052.01-.098.036l-.71.383-.014-.022.38-.922-.52.28c-.051.028-.08.052-.087.07-.01.024-.005.053.013.086l.016.03-.024.013-.158-.294.023-.012.016.029c.02.036.044.056.074.058.017.003.05-.01.098-.035l.587-.316a.423.423 0 0 0 .026-.087.235.235 0 0 0-.005-.069.224.224 0 0 0-.024-.057l.023-.012Zm1.181 2.033.02-.018.224.255-.02.018-.024-.028a.099.099 0 0 0-.092-.034c-.017.002-.046.022-.087.056l-.291.257a.68.68 0 0 1-.186.126.28.28 0 0 1-.178.006.4.4 0 0 1-.193-.133.434.434 0 0 1-.116-.216.292.292 0 0 1 .033-.182.818.818 0 0 1 .163-.173l.28-.247c.045-.04.069-.072.072-.096.002-.024-.008-.05-.033-.077l-.022-.027.018-.017.275.31-.02.018-.024-.027c-.027-.03-.054-.043-.085-.04-.02.003-.05.022-.09.057l-.313.276a.828.828 0 0 0-.09.092.29.29 0 0 0-.06.102.205.205 0 0 0 .001.103.343.343 0 0 0 .204.209c.053.019.102.02.146.007a.592.592 0 0 0 .18-.122l.292-.258c.045-.038.069-.069.07-.088.005-.028-.006-.055-.03-.083l-.024-.026Zm.175.243.192.176-.056.926.375-.406c.04-.043.06-.075.06-.095 0-.025-.014-.052-.04-.078l-.026-.023.018-.018.246.225-.019.02-.024-.023c-.03-.028-.06-.038-.089-.032-.017.005-.044.027-.08.066l-.549.594-.018-.017.058-.996-.4.434c-.04.043-.06.074-.06.095 0 .025.013.052.041.077l.024.022-.017.02-.245-.226.017-.019.025.022c.03.028.06.038.088.032.018-.004.046-.026.081-.064l.453-.492a.454.454 0 0 0-.004-.09.233.233 0 0 0-.026-.064.249.249 0 0 0-.042-.047l.017-.019Zm.551 1.725-.015.022-.33-.246.016-.02.026.02c.033.023.063.031.09.024.018-.006.045-.031.079-.077l.37-.497a.36.36 0 0 0 .05-.082.07.07 0 0 0-.005-.042.134.134 0 0 0-.042-.053l-.028-.02.016-.022.33.246-.017.021-.027-.02c-.032-.025-.06-.032-.09-.024-.018.005-.044.03-.078.076l-.37.497a.3.3 0 0 0-.05.083.063.063 0 0 0 .006.043.13.13 0 0 0 .04.051l.03.02Zm1.403-.186-.014.022a.158.158 0 0 0-.082-.012.314.314 0 0 0-.11.058l-.705.531-.022-.013.112-.893a.488.488 0 0 0 .006-.086.115.115 0 0 0-.019-.053.205.205 0 0 0-.052-.049l.013-.023.338.2-.015.022c-.04-.019-.069-.027-.085-.024a.054.054 0 0 0-.039.026.341.341 0 0 0-.027.111l-.077.608.477-.362a.384.384 0 0 0 .087-.082c.008-.01.007-.026.002-.044a.135.135 0 0 0-.046-.057l-.009-.009.013-.022.254.151Zm.235.19-.157.344.191.09c.05.02.086.03.11.022.031-.009.059-.038.085-.087l.024.01-.14.304-.023-.012a.365.365 0 0 0 .02-.089.095.095 0 0 0-.023-.053.225.225 0 0 0-.075-.05l-.19-.087-.132.287a.278.278 0 0 0-.028.073c0 .01.002.02.01.028.006.01.02.018.044.03l.148.067a.442.442 0 0 0 .112.04c.026.002.053-.001.083-.012a.556.556 0 0 0 .136-.083l.026.013-.175.184-.671-.308.01-.024.03.014c.021.01.043.013.067.011a.058.058 0 0 0 .041-.016.305.305 0 0 0 .046-.083l.26-.564c.026-.056.036-.093.03-.11-.007-.024-.029-.045-.065-.062l-.03-.014.01-.024.672.308-.079.195-.024-.012a.331.331 0 0 0 .013-.107.111.111 0 0 0-.031-.062.274.274 0 0 0-.086-.05l-.24-.11Zm1.125 1.411-.242-.082-.165-.529-.056-.016a.077.077 0 0 1-.018-.008l-.021-.006-.089.262c-.02.057-.025.095-.016.113.01.026.03.043.066.055l.035.012-.008.026-.389-.132.008-.025.034.012c.039.013.07.009.095-.01.014-.011.03-.042.047-.094l.199-.586c.019-.057.025-.096.017-.113-.011-.026-.034-.044-.068-.056l-.035-.012.01-.024.33.111a.822.822 0 0 1 .206.093c.041.03.072.07.091.118a.22.22 0 0 1 .002.15.225.225 0 0 1-.104.128.335.335 0 0 1-.199.03l.1.322a.478.478 0 0 0 .07.158.3.3 0 0 0 .108.078l-.008.025Zm-.487-.684c.008.001.015.005.022.007.006.001.011.005.015.006.086.029.158.032.215.01a.193.193 0 0 0 .114-.122.2.2 0 0 0-.006-.156.205.205 0 0 0-.124-.101.756.756 0 0 0-.109-.023l-.127.379Zm1.425-.098-.078.322-.024-.006a.44.44 0 0 0-.01-.159.244.244 0 0 0-.07-.11.262.262 0 0 0-.114-.06.169.169 0 0 0-.129.014.135.135 0 0 0-.07.088.125.125 0 0 0 .01.085c.02.04.077.103.17.185.075.07.125.118.151.152a.26.26 0 0 1 .053.106.235.235 0 0 1 0 .112.246.246 0 0 1-.126.163.3.3 0 0 1-.23.024.376.376 0 0 1-.075-.024.871.871 0 0 1-.082-.046.536.536 0 0 0-.08-.043.039.039 0 0 0-.029.004c-.009.006-.017.02-.026.04l-.025-.007.078-.32.024.007c-.003.07.001.124.013.162a.242.242 0 0 0 .072.106c.036.03.078.052.129.065.056.013.105.01.146-.012a.146.146 0 0 0 .076-.095.158.158 0 0 0-.002-.074.237.237 0 0 0-.043-.08 2.022 2.022 0 0 0-.125-.123 1.4 1.4 0 0 1-.144-.148.305.305 0 0 1-.055-.106.204.204 0 0 1 0-.111.234.234 0 0 1 .118-.155.281.281 0 0 1 .213-.025.4.4 0 0 1 .149.075c.023.018.04.027.05.03a.04.04 0 0 0 .032-.004c.009-.005.019-.018.028-.04l.025.008Zm.413 1.012-.003.026-.407-.055.003-.026.034.005c.039.005.07-.002.09-.023.013-.013.024-.049.031-.106l.083-.613a.367.367 0 0 0 .003-.097.07.07 0 0 0-.024-.034.126.126 0 0 0-.063-.024l-.034-.005.004-.026.407.054-.004.027-.034-.005c-.039-.005-.069.002-.089.023-.014.014-.024.048-.032.105l-.082.613a.367.367 0 0 0-.005.097.066.066 0 0 0 .027.033.119.119 0 0 0 .06.026l.035.005Zm.983-.854v.225l-.027-.002a.252.252 0 0 0-.018-.085.129.129 0 0 0-.054-.062.19.19 0 0 0-.096-.025l-.134-.006-.034.73c-.003.06.002.097.014.112.017.02.043.032.081.034l.034.002-.002.026-.406-.019.001-.027.034.002c.04.001.07-.009.088-.033.011-.014.018-.048.02-.102l.035-.732-.116-.005a.369.369 0 0 0-.096.006.139.139 0 0 0-.066.048.216.216 0 0 0-.035.102l-.027-.001.022-.225.782.037Zm.704-.03.334-.014v.026l-.018.001a.22.22 0 0 0-.116.068.685.685 0 0 0-.066.102l-.216.373.01.24c.003.06.01.096.024.11.018.02.048.028.086.025h.031l.001.025-.406.017-.002-.026h.035c.04-.003.068-.016.085-.041.009-.015.012-.05.01-.104l-.01-.227-.278-.389a.802.802 0 0 0-.067-.087.269.269 0 0 0-.07-.04.099.099 0 0 0-.041-.004l-.002-.028.41-.016v.026l-.02.001a.117.117 0 0 0-.06.018.05.05 0 0 0-.027.048c0 .017.016.047.047.09l.212.301.176-.303c.026-.046.04-.08.038-.101a.053.053 0 0 0-.012-.035.063.063 0 0 0-.03-.023.146.146 0 0 0-.057-.006l-.001-.026Zm1.346-.245a.437.437 0 0 1 .347.063c.11.071.182.175.215.312a.506.506 0 0 1-.052.386.444.444 0 0 1-.29.217.444.444 0 0 1-.356-.06.505.505 0 0 1-.214-.324.486.486 0 0 1 .064-.398.457.457 0 0 1 .286-.196Zm-.001.054a.248.248 0 0 0-.179.14c-.045.092-.05.211-.014.36.036.154.096.262.18.329.066.05.139.066.221.046a.282.282 0 0 0 .193-.153c.04-.083.043-.198.008-.344-.037-.16-.097-.271-.178-.335a.262.262 0 0 0-.231-.043Zm.773-.227.119.357.165-.054c.039-.014.063-.031.076-.054.011-.022.012-.06.002-.111l.025-.008.101.307-.024.009a.196.196 0 0 0-.04-.073.084.084 0 0 0-.048-.025.158.158 0 0 0-.074.01l-.165.054.095.287a.318.318 0 0 0 .039.088c.009.01.02.016.037.02a.142.142 0 0 0 .067-.004l.033-.011.01.024-.392.13-.008-.025.032-.01c.037-.013.062-.034.07-.06.007-.019.001-.055-.017-.11l-.195-.587a.296.296 0 0 0-.039-.089.068.068 0 0 0-.037-.019.136.136 0 0 0-.067.003l-.032.012-.008-.024.677-.225.074.196-.023.008a.314.314 0 0 0-.072-.08.152.152 0 0 0-.07-.025.315.315 0 0 0-.11.023l-.2.066Zm1.619-.87.122.189-.023.013a.246.246 0 0 0-.062-.062.133.133 0 0 0-.08-.022.188.188 0 0 0-.092.031l-.116.067.37.632c.03.051.053.08.071.086.026.008.056.001.087-.016l.029-.017.013.023-.35.205-.014-.022.029-.018c.035-.02.053-.045.056-.075.001-.019-.011-.05-.038-.097l-.37-.631-.1.058a.349.349 0 0 0-.078.056.138.138 0 0 0-.027.077.206.206 0 0 0 .025.104l-.023.013-.104-.198.675-.396Zm.27-.17.224.305.17-.125c.044-.033.068-.061.072-.086.009-.031-.004-.07-.034-.115l.021-.016.198.27-.021.013a.42.42 0 0 0-.07-.06.09.09 0 0 0-.056-.006.2.2 0 0 0-.08.041l-.17.125.188.255a.415.415 0 0 0 .05.06.052.052 0 0 0 .03.004c.01 0 .026-.01.047-.025l.13-.096a.462.462 0 0 0 .09-.078.19.19 0 0 0 .03-.08.539.539 0 0 0-.006-.158l.023-.017.076.243-.595.437-.015-.021.026-.02a.125.125 0 0 0 .042-.051.066.066 0 0 0 .006-.046.328.328 0 0 0-.05-.08l-.368-.5c-.036-.05-.063-.076-.081-.08-.025-.006-.053.003-.085.027l-.027.02-.016-.021.595-.437.132.162-.022.017a.324.324 0 0 0-.087-.065.108.108 0 0 0-.07-.003.332.332 0 0 0-.086.05l-.211.157Zm.996-.986.24.223-.016.014a.402.402 0 0 0-.235-.067.304.304 0 0 0-.186.087.307.307 0 0 0-.074.35.692.692 0 0 0 .149.221c.06.063.12.108.185.135a.313.313 0 0 0 .191.021.36.36 0 0 0 .174-.095.335.335 0 0 0 .092-.142.534.534 0 0 0 .006-.223l.026-.005a.51.51 0 0 1 .006.252.43.43 0 0 1-.126.2.435.435 0 0 1-.39.125.51.51 0 0 1-.283-.158.564.564 0 0 1-.134-.236.48.48 0 0 1 .32-.579.098.098 0 0 0 .04-.016.046.046 0 0 0 .015-.033.109.109 0 0 0-.017-.058l.017-.016Zm.552.06.254-.366-.227-.156a.298.298 0 0 0-.084-.047c-.013-.004-.027 0-.042.007a.137.137 0 0 0-.05.044l-.02.027-.021-.015.233-.337.021.015-.019.028a.133.133 0 0 0-.023.062.062.062 0 0 0 .01.044c.01.014.034.035.073.06l.509.352c.04.028.068.043.084.048.011.001.026 0 .041-.007a.149.149 0 0 0 .052-.045l.019-.026.02.013-.232.338-.02-.015.018-.027c.022-.032.03-.063.02-.091-.006-.019-.032-.043-.08-.076l-.24-.166-.253.366.24.167c.04.026.068.042.084.045.013.004.027.002.042-.006a.12.12 0 0 0 .051-.044l.02-.028.021.015-.233.337-.022-.014.02-.027c.022-.033.03-.064.02-.091-.006-.019-.033-.043-.08-.077l-.508-.351a.322.322 0 0 0-.085-.048.063.063 0 0 0-.041.007.149.149 0 0 0-.052.044l-.02.028-.021-.016.234-.337.021.015-.02.03a.135.135 0 0 0-.023.061.063.063 0 0 0 .011.044c.01.014.033.034.073.06l.225.156Zm.08-.85.121-.23.91-.185-.49-.257c-.053-.028-.088-.039-.107-.034-.026.007-.047.027-.065.06l-.015.029-.024-.012.155-.296.024.013-.016.03c-.02.035-.022.067-.007.094.007.016.036.036.084.06l.715.375-.012.023-.976.201.522.273c.052.029.088.04.106.036.026-.007.048-.027.065-.06l.016-.03.023.012-.155.296-.023-.013.016-.028c.02-.037.021-.069.007-.094-.008-.016-.036-.037-.083-.062l-.591-.31a.412.412 0 0 0-.087.027.255.255 0 0 0-.055.042.238.238 0 0 0-.033.052l-.024-.012Zm.654-1.398a.436.436 0 0 1 .251-.249.492.492 0 0 1 .379.004.504.504 0 0 1 .287.262c.054.12.059.242.01.363a.44.44 0 0 1-.254.256.493.493 0 0 1-.386-.009.483.483 0 0 1-.29-.281.46.46 0 0 1 .003-.346Zm.043.031a.255.255 0 0 0 .013.227c.05.089.144.162.287.22.144.056.27.069.372.037a.242.242 0 0 0 .165-.152.277.277 0 0 0-.016-.247c-.043-.08-.135-.148-.276-.205-.152-.06-.277-.075-.376-.043a.254.254 0 0 0-.169.163Zm1.037-1.093.01-.02.229.149-.2.714-.025-.007.009-.034c.011-.04.005-.072-.014-.095a.248.248 0 0 0-.097-.043l-.595-.167c-.058-.016-.096-.02-.114-.01-.025.01-.042.034-.052.07l-.01.034-.025-.007.116-.417.026.006a.274.274 0 0 0-.015.107c.004.023.012.04.025.051a.288.288 0 0 0 .1.04l.58.163c.038.01.065.013.082.01a.048.048 0 0 0 .027-.018.444.444 0 0 0 .037-.105l.018-.067a.538.538 0 0 0 .027-.154.201.201 0 0 0-.033-.094.48.48 0 0 0-.106-.106Zm-.598-.728a.431.431 0 0 1 .195-.296.485.485 0 0 1 .37-.075c.145.024.255.09.335.197.08.106.108.224.086.352a.441.441 0 0 1-.194.305.507.507 0 0 1-.382.072.486.486 0 0 1-.34-.217.455.455 0 0 1-.07-.338Zm.05.021a.248.248 0 0 0 .059.22c.067.076.175.127.326.153.154.027.279.014.373-.038a.252.252 0 0 0 .13-.184.28.28 0 0 0-.068-.238c-.059-.07-.163-.117-.312-.143-.162-.027-.288-.015-.378.035a.258.258 0 0 0-.13.195Zm.084-1.386.303-.005-.002.025a.413.413 0 0 0-.176.085.303.303 0 0 0-.096.214.311.311 0 0 0 .127.288.526.526 0 0 0 .285.098.601.601 0 0 0 .253-.037.366.366 0 0 0 .174-.128.34.34 0 0 0 .058-.275.355.355 0 0 0-.035-.098l-.276-.018a.24.24 0 0 0-.094.005.062.062 0 0 0-.036.031.188.188 0 0 0-.017.08l-.027-.002.024-.37.026.002v.018c-.003.037.008.062.031.078.017.01.051.017.102.02l.293.018a.674.674 0 0 1 .064.342c-.013.184-.081.321-.206.41a.501.501 0 0 1-.552.013.52.52 0 0 1-.199-.213.467.467 0 0 1-.045-.251.43.43 0 0 1 .014-.095.944.944 0 0 1 .045-.118.174.174 0 0 0 .018-.052c.001-.01-.002-.017-.01-.024-.009-.007-.024-.012-.048-.014l.002-.027Zm.023-.817-.008-.335h.027v.017c0 .013.007.03.018.054.01.022.027.045.048.063.02.02.054.042.1.07l.37.221.24-.005c.058-.001.095-.01.11-.022.02-.019.027-.047.027-.085v-.032h.026l.009.406h-.026v-.033c-.002-.04-.014-.07-.04-.085-.015-.01-.05-.014-.102-.014l-.228.006-.394.272a.687.687 0 0 0-.087.065.257.257 0 0 0-.042.07.103.103 0 0 0-.005.042h-.026l-.01-.41h.026v.021c0 .022.007.042.018.06.01.02.026.028.047.027.016 0 .047-.015.09-.045l.305-.207-.3-.18c-.045-.028-.078-.042-.1-.04a.059.059 0 0 0-.035.01.06.06 0 0 0-.024.03.149.149 0 0 0-.008.058h-.026Z" fill="#fff"/><path d="M24.006 54.836a9.196 9.196 0 0 0-6.508 2.742 9.195 9.195 0 0 0-2.662 6.542 9.197 9.197 0 0 0 2.743 6.507 9.196 9.196 0 0 0 6.541 2.663 9.195 9.195 0 0 0 6.508-2.743 9.198 9.198 0 0 0 2.662-6.54 9.198 9.198 0 0 0-2.743-6.509 9.195 9.195 0 0 0-6.54-2.662Zm-6.787 2.467a9.587 9.587 0 0 1 6.785-2.86 9.592 9.592 0 0 1 6.82 2.776 9.594 9.594 0 0 1 2.858 6.785 9.594 9.594 0 0 1-2.774 6.82 9.594 9.594 0 0 1-6.786 2.858 9.591 9.591 0 0 1-6.82-2.775 9.589 9.589 0 0 1-2.858-6.784 9.592 9.592 0 0 1 2.775-6.82Z" fill="#fff"/><path d="M24.022 57.499a6.544 6.544 0 0 0-4.63 1.951 6.544 6.544 0 0 0-1.893 4.654 6.546 6.546 0 0 0 1.95 4.629 6.542 6.542 0 0 0 4.654 1.893 6.547 6.547 0 0 0 4.63-1.95 6.547 6.547 0 0 0 1.893-4.653 6.545 6.545 0 0 0-1.95-4.63 6.547 6.547 0 0 0-4.654-1.894Zm-4.814 1.769a6.806 6.806 0 0 1 4.812-2.027 6.805 6.805 0 0 1 4.837 1.967 6.808 6.808 0 0 1 2.027 4.813 6.803 6.803 0 0 1-1.968 4.836 6.808 6.808 0 0 1-4.812 2.028 6.809 6.809 0 0 1-4.837-1.969 6.807 6.807 0 0 1-2.026-4.81 6.81 6.81 0 0 1 1.967-4.838Z" fill="#fff"/><path fill-rule="evenodd" clip-rule="evenodd" d="m21.683 60.04-.33.15-.307.174-.26.151-.309.22-.233.196-.211.178-.204.197-.213.218-.16.19-.152.189-.14.199-.11.21-.143.221-.111.243-.124.282-.091.253-.072.254-.061.296-.052.264-.042.337-.032.276-.003.348.01.258.05.309.063.248.102.282.114.27.135.231.156.2.188.203.219.173.23.152.272.133.263.091.264.053.256.038.286.001.268-.02.32-.018.237-.043.279-.051.238-.063.238-.063.27-.092.26-.103.25-.104.262-.114.304-.183-.288.01-.288.01-.317-.023-.347-.023-.286-.041-.203-.06-.274-.092-.21-.11-.221-.131-.22-.193-.187-.181-.137-.18-.116-.19-.115-.219-.103-.251-.092-.28-.042-.268-.03-.258-.01-.276-.01-.278.01-.277.043-.316.063-.306.072-.285.095-.355.093-.294.115-.313.102-.264.134-.291.1-.202.272-.519.223-.378Z" fill="#00489B"/><path fill-rule="evenodd" clip-rule="evenodd" d="m26.588 58.762-.37.124-.403.142-.387.14-.353.144-.354.177-.407.21-.373.246-.393.298-.305.285-.323.298-.308.318-.309.37-.29.353-.24.356-.221.373-.207.41-.134.342-.081.308-.046.294-.047.31.004.364.024.279.076.298.111.28.113.232.163.248.168.18.167.162.237.147.24.096.29.116.292.063.345.048.312.012.313.012.348-.022.33-.04.297-.041.315-.075.28-.059.298-.092.316-.11.3-.11.263-.094.213-.113.177-.098-.21.01-.225.025-.313.006-.277-.01-.31-.064-.292-.08-.308-.116-.323-.186-.252-.218-.198-.25-.131-.196-.13-.247-.093-.316-.075-.28-.04-.332-.024-.295.013-.347.048-.328.084-.379.1-.36.117-.36.153-.358.168-.324.203-.322.202-.304.236-.269.235-.267.234-.218.216-.2.232-.182.18-.15.339-.264Z" fill="#00489B"/><path fill-rule="evenodd" clip-rule="evenodd" d="m23.963 64.108.111-.114.198-.142.229-.13.208-.141.217-.12.166-.121.173-.09.195-.11.207-.12.229-.109.227-.108.218-.11.217-.099.217-.098.216-.087.229-.109.259-.097.184-.068.216-.066.204-.045.204-.046.204-.035.214-.025.234.02.243.053.157.08.156.102.134.133.111.164.08.151.088.174.068.184.057.195.024.193.024.214c.09.86-.164 1.78-.417 2.596l-.153.4-.07.178-.07.146-.081.158-.101.145-.08.125-.11.124-.111.08-.121.092-.184.069.007-.15.036-.138.027-.149.037-.125.072-.211-.078.072-.046.105-.046.105-.082-.1-.027.128-.048.148-.058.146-.059.137-.07.167-.102.135-.11.114-.067.072-.074-.014-.096.029-.062-.088-.09.125-.111.155-.07.137-.1.123-.101.125-.09.113-.015-.161-.065.008-.046.106-.086.102-.058.056-.007-.067.06-.093.042-.104.072-.132.042-.123.053-.102.032-.094.032-.105-.068.037-.051.093-.052.103-.06.103-.053.103-.06.093-.032.086-.042.084-.08.112.015-.18-.068.043-.051.094-.062.103-.06.074-.08.102-.08.083-.099.111-.109.083-.097.053-.058-.002.012-.067.042-.084.022-.076.051-.074.032-.094.012-.067-.068.045-.07.074-.09.072-.079.084-.099.093-.108.09-.11.092-.069.074-.09.092.014-.086.04-.046-.077-.002-.087.025-.087.026-.096.024.071-.102.088-.064.109-.1.09-.093.128-.11.13-.147.139-.149.14-.167.13-.148.1-.139.1-.13.092-.13.111-.16.102-.158.09-.13.083-.14.082-.17.083-.14.073-.18.073-.168.054-.17.046-.19.035-.189.025-.134.015-.142.005-.143.005-.143-.013-.173-.032-.135-.014-.154-.043-.135-.06-.165-.052-.145-.08-.166-.09-.137-.09-.138-.12-.127-.12-.111-.13-.081-.133-.081-.14-.063-.141-.062-.152-.045-.17-.025-.162-.025-.19-.008-.173-.007-.153.014-.163.013-.174.023-.163.032-.154.041-.144.033-.145.024-.114.028Z" fill="#00489B"/><path fill-rule="evenodd" clip-rule="evenodd" d="M16.825 59.248c.017-.02.032-.046.051-.06.023-.018.114-.01.14-.002.009.005.018.007.027.01.018.011.042.03.054.05a.87.87 0 0 0 .02.034.33.33 0 0 0 .006.07.065.065 0 0 1-.006.006c.003.003.002.005.004 0 .007.035-.02.126-.065.108-.002-.002-.01-.005-.008-.008-.007-.003-.016-.012-.024-.02.002-.002.002-.002 0-.003-.01-.005-.046-.054-.04-.06l-.053-.033a10.552 10.552 0 0 0-.097-.025c-.003 0-.017-.003-.015-.007-.002-.013-.002-.042.006-.053l.001-.005-.002-.002Zm15.101.685.016.073c.003.028-.006.048-.008.077v.054c0 .045-.037.053-.065.05-.022-.002-.054-.028-.076-.012.018.032.035.036.057.054a.82.82 0 0 1 .095.087l.03.03c.002.002.004.003.002.004.012.008.044.01.052.027h-.003c.002.002.005.003.003.005v.002c.002 0 .002 0 .002-.002a.077.077 0 0 1 .003.006l.001-.002c0 .003 0 .008.003.005 0 .003 0 .003.002 0 .005.006.012.01.018.008l.014.045.014.058v.032l.012.002v.002h-.002c-.002.011-.01.038-.004.048.002.01 0 .016-.008.021l.004.005c.002.001.004.002.002.002-.002.004-.003.004-.002.008-.005.001-.01.001-.017.004.001.003.004.018.002.02l.002.004c.003.004.003.01.002.015-.006.028-.106.102-.131.11-.015.003-.04-.011-.047-.029-.003 0-.103-.08-.107-.088-.014-.003-.039-.017-.046-.034-.023.006-.108-.05-.125-.02a.686.686 0 0 0-.017.095c-.001.012-.017.08-.02.073-.055.055-.143-.073-.18-.045-.011-.018-.066-.044-.065-.003.002.03.023.062.034.09.02.052.013.095.005.148-.003.02.008.037-.004.055a.072.072 0 0 1-.031.022h-.014c-.017.001-.082-.063-.088-.06-.007 0-.012-.005-.016-.015-.008-.005-.015-.01-.021-.016-.016-.026-.048-.036-.046-.072 0-.005.002-.01.004-.015l.043-.034.016-.02c.003-.012.004-.039-.002-.05l-.011-.017-.006.003c-.02-.03-.066-.011-.089.013l-.012.024-.006.001-.003.008a.245.245 0 0 0-.065.046.612.612 0 0 0-.017.023l-.091.066c-.007.022-.058.05-.073.066-.008.008-.013.026-.02.032-.012.002-.054.032-.044.054-.003.002-.003.002-.003-.001h-.01l-.043.052-.027.01c-.034.014-.056.033-.088.01l-.016-.014c-.008-.01-.014-.021-.022-.033 0-.002-.003-.004 0-.006-.022-.012-.016-.04-.026-.061-.004-.009-.02-.047-.01-.053-.002-.003 0-.003-.004-.002l-.004.003c-.001-.003-.003-.004 0-.006 0-.002.003-.016.004-.012 0-.005 0-.01-.002-.015-.005-.034-.008-.065-.018-.1 0-.003 0-.002-.003 0 .002-.004.005-.006.004-.009l-.002.001-.004-.006c0-.036-.022-.068-.016-.103 0-.002 0-.008.003-.004 0-.003-.002-.01 0-.013.002-.001.01-.002.008-.006.002-.001 0-.001.003.001l.01-.003.016.052.01.032c.004.004.031.04.026.044l.003.004c.002 0 .003-.003.004 0 .001.005.01.02.007.022l.001.003.003-.002c0 .003 0 .003.002.001.002.003.002.002 0 .003l.001.003.001-.001a.061.061 0 0 0 .004.009l.002-.002c.004.006.01.018.015.014.002.003.001.003.003.001.002.002.002.005.004.003.001.003.002.006-.001.009.002.002 0 .001.003 0 0 .003 0 .007.002.004-.002.004-.004.007-.002.01h.001c.013-.014.06.007.076-.006.032-.027.068-.052.102-.075l.052-.04c.003-.002.015-.014.017-.01.009-.021.038-.03.052-.048 0 0 0-.002.002-.002v.002c.004.002.004.005.006.002.001 0 .038-.054.043-.042l.043-.051c0-.002.002-.004.003 0a.246.246 0 0 1 .022-.018l.006-.022c0-.001 0-.003-.002-.005l-.034-.02c-.033-.02-.066-.037-.1-.055l-.027-.006a1.317 1.317 0 0 0-.184-.063 3.326 3.326 0 0 1-.1-.035h-.004c0-.002.002-.01-.002-.006-.004-.009-.015-.016-.021-.026-.024-.044-.024-.08-.027-.127-.002-.004-.003-.02-.006-.018 0-.01-.005-.075 0-.08v.005h.003c-.003-.024.01-.057 0-.081v-.003c.001-.023.017-.026.025-.04 0 0 .002 0 .001-.003.002-.001.003-.004.004 0l-.002.001c.002 0 .002.002.002.002h.002c.001.002 0 .002.002 0 0-.002 0-.01.002-.005-.002.002-.002 0 0 .003.001 0 .006 0 .003.002v.002c.004-.001.003 0 0-.004.004-.001.003-.002.004.002.002 0 .003.002.004.003 0 .002.003.004 0 .005 0 .002 0 .003.002.003a.061.061 0 0 0 .009.005l-.001.001c.001.004.003.007.001.01l.002-.001.021.016-.001.002c.001 0 .005.003.002.005l.002.003.001-.002c.002.002 0 .002.002 0 .002.003.002.002 0 .004l.002.003c0 .002.006.008.004.009l.002.003c.003-.002.003 0 .002-.003l.006.013.017.013-.003.001s-.002.005 0 .003c.002.003.003.002 0 .004 0 0 .003 0 .002-.002l.015.015c0-.003.002-.004.003-.006 0 0 .004 0 .005.002v.001c0 .003 0 .009.004.006l.002.007c.003-.002.004-.004.005 0v.001l.004.006.002-.002v.002c.002 0 .005 0 .007.003h-.003l.001.003a.013.013 0 0 1 .003.008l.002-.002.001.003.002-.001.083.068c.002.003.002.002 0 .004.01.006.047.033.053.045l.014.01c.002.003.001.003.003 0a.32.32 0 0 0 .046.04c.002.002 0 .002.002 0 .002.002.002.002 0 .004.001.002 0 .002.002 0 .01-.002.06.037.058.038l.008-.005v.003c.002.002.002.008.005.006l.011.013-.002.002c.001.002 0 .002.002.001.003.003 0 .002.003 0l.012.008.001-.001c0 .003-.001.01.002.009.003.003.008.005.01.01.003 0 .011 0 .007.003.002.003.002.003.004.002.003.002.018.02.015.023.002 0 .006-.003.008 0l.002.008c.004-.002.01-.003.011.001l-.002.002.003-.003c0-.002.002-.004.002-.001l.016.013.045.03.001.004h-.002a.343.343 0 0 0 .031.028.202.202 0 0 0 .054.003c.005 0 .04.003.039 0l.017-.003s.003-.003.004 0l.02-.007c0 .002.004.002 0 .004.002.001.005.002.003 0l.002-.002.042-.006c.003-.002.001-.002.003 0 .011-.007.046-.014.032-.042 0-.003-.011-.017-.01-.019-.019-.023-.044-.03-.067-.044l-.028-.023a1.143 1.143 0 0 1-.025-.015c-.003-.003-.013-.016-.018-.012a.034.034 0 0 1-.005.007c-.02-.042-.076-.037-.1-.088l-.02-.017a1.314 1.314 0 0 0-.017-.06v-.01c-.009-.022-.014-.054 0-.072 0-.002 0-.002.002 0 0 .002 0 .003.002.002 0 .003 0 .003.002.001a.203.203 0 0 1 .058.02c.003.005.015.033.014.034v.001l.015.008c.002.003.001.003.004.001.008.008.057.051.065.046l.003.002v.004c.003.003.01.014.012.012l.002.002c0 .004.002.005 0 .007l.002.001c.018.016.036.03.054.044l.002.004-.002.002.095.07c.002.002 0 .003.003 0a5.367 5.367 0 0 0 .062.052l.001.005c.001-.002.002-.002.003-.002.004.007.028.035.034.03l.002-.001c.025.01.09.023.113.007 0 .002-.001.007.002.004l.007-.004c.005 0 .025-.004.028.002l.007-.01c.004.003.03.015.027.009.003-.002.01-.007.012-.003h.002c0-.003.004-.002.002-.006l.03.012.018-.012a.376.376 0 0 1 .025.01l.02-.003c.004-.001.013-.005.016.002.002-.003.001-.001 0-.004.002 0 .005-.002.006.001.002-.002.001-.002.003.002.017-.013.04-.018.048-.044a.1.1 0 0 0-.006-.052.608.608 0 0 0-.124-.12c-.009-.004-.024-.004-.033.002l-.001.002-.001-.002c-.003.01-.006.016-.013.02a.329.329 0 0 1-.071.118l-.027.011c-.004.002-.016.006-.014.009l-.06-.01c-.016-.005-.057-.034-.069-.027l-.022-.044c-.036-.04-.054-.15-.027-.2.012-.02.034-.033.051-.045l.002.002c.002-.002.002-.003.004 0l.001-.002c.005-.005.03-.017.032-.013.003-.002.003 0 .001-.004.002 0 .012 0 .011-.005.002-.002 0-.002.002.002.004-.002.017-.007.018-.004.001-.002.003-.003.004 0 0-.002.002-.006.003-.002.003-.002.002-.002.004 0 0-.001.001-.006.003-.001.003-.002.003-.005.004-.001.002 0 .002 0 .003-.002.002-.002.005 0 .002-.005.013.003.03.008.042-.002.001.003 0 .003.003 0h-.003c-.003-.01-.013-.03-.013-.03l-.016-.01-.055-.02-.036-.019-.014.006a2.006 2.006 0 0 1-.043.054c0 .01-.01.025-.017.03a.436.436 0 0 1-.01.027c-.014.036-.048.084-.086.079-.002 0-.007.002-.009-.003-.06-.045.004-.16-.037-.2-.003-.003-.007-.007-.01-.005l-.015.024c-.024.008-.058.062-.076.02-.026-.035.002-.07.012-.102l.009-.03c.001-.002.02-.047.024-.038l.016-.038.002-.01.032-.061c.012-.021.03-.043.037-.066.002-.002.006-.015.007-.011.012-.033.045-.173.082-.089l.003.032.002-.002c-.001-.003-.002-.001 0-.003h.006c.001.012-.013.074-.012.075h.002l-.001.002.001.003c.002 0 .01 0 .011.004 0 0 0-.002.002-.002l.001.003-.012.037c.005.02-.02.053-.01.074h.014v-.003c.001.002.003.003.005.002a.083.083 0 0 1 .025-.036c0-.013.005-.026.014-.032l.005-.032c.019-.017.026-.06.036-.068 0-.014.014-.103.022-.11 0-.039.014-.097.051-.093 0 0 .008 0 .003.002.002 0 .002.002.002.003.01.009.008.135.017.156v.004h-.01a.11.11 0 0 1 .007.053c-.003.014-.02.03-.012.046l.007-.003.002.003h-.002l.001.004c-.008.011-.008.043-.01.044a.53.53 0 0 0-.027.075l-.005.038c-.004.014-.013.02-.015.036 0 .01.001.022.005.032.011-.002.043 0 .05.016h.004c.017-.002.035.013.051.01.003 0 .004-.002.006.002.001-.002.003-.004.004 0 .002-.003.01-.006.008-.01l.005-.054c.002-.023-.01-.077.01-.092.01-.013.024-.01.033-.018.001.003 0 .003.003.001.002.02.012.044.02.062l.015.017h.002v.002c0 .035.013.08.042.09.004.002.019 0 .021.006.002-.002.002 0 .002-.004.006 0 .02-.002.023.005l.002-.006c.001.001.011.005.01 0 .002 0 .013-.001.01-.005.003-.001.002-.003.004 0l.035-.021c.001.003 0 .002.003 0s.006-.005.01-.006l.028.005Zm-.307.285a.604.604 0 0 0-.052.022c-.024 0-.037.045-.026.07l.003-.001h.005l-.001-.002c.002-.002.001-.002.002 0 .002-.001 0-.002.003.002a.361.361 0 0 0 .024.003c.001 0 .002-.002.004 0h.002c.02-.03.048-.05.036-.094Zm-2.516-2.113c.009.031.044.093.018.124l.002.002v.011c-.006.028-.013.058-.017.087l.003.066c-.008.053-.016.106-.014.163l.015.054c.002.014.002.027.002.041-.002.003-.001.003-.003 0-.002.003-.003.01-.006.006l-.002.002c.004.01.012.044.004.053l.006.002.002-.002c.003.003.013.01.011.013l.002.001.005.003-.005.007a.12.12 0 0 0-.008.023l.002-.004c.001.004.003.005.005.008a.032.032 0 0 1 .001.011c.004.004.011.017.014.014.003.01.007.02.013.028a.31.31 0 0 0 .013.041c0 .002.001.002.002.003l.008-.005a.04.04 0 0 0 .005.008c-.005.014.003.024.01.035a.042.042 0 0 1 .002.011c.002.002.004.004.007.004v.003c.005.035.036.06.05.092a.33.33 0 0 1 .008.047c-.014.013-.04.002-.045.01-.024-.017-.042-.023-.065-.053-.032-.003-.09-.048-.123-.07-.044-.03-.098-.043-.136-.096-.002-.013-.02-.075-.01-.087a.209.209 0 0 1 .014-.104c.043-.105.06-.227.1-.335.009-.024.023-.079.038-.096a.276.276 0 0 1 .022-.1c.002.002.002.005.005.001.006-.02.032-.022.045-.022Zm.487-.943c.011.018.03.04.03.061l-.001.04.014.05c0 .002 0 .003-.001 0-.004.002-.008.004-.01.001-.003.002-.003.002-.001.004l-.002.002c.005.016.009.034.012.051.004.034-.003.087.015.114-.002 0-.02.004-.016.01a.177.177 0 0 1-.008.101c-.001.003-.005.016-.008.013a.268.268 0 0 1-.023.033c-.025.003-.082.052-.104.074-.003.002-.01.005-.008.008l-.03.033c-.035.008-.073.06-.101.088-.004.002-.01.006-.009.01-.001 0-.012-.004-.009 0-.012.014-.02.037-.007.055.001.002.003.003 0 .006l.003.004c.007 0 .163.034.163.034.002.002.003.004.001.007l.002.002.012-.002a.039.039 0 0 0 .003-.008.034.034 0 0 0 .006.002l.032.054.019.026.014.015c.038.023.014.099.028.119l-.028.04c-.014-.007-.03-.002-.042-.02l-.008-.003-.003-.009a.295.295 0 0 1-.095-.046l-.04-.01c.002 0 .004 0 .006-.002-.002-.003-.002-.003-.004 0l-.002-.002-.054-.029c-.026-.014-.113-.011-.13-.036-.023.004-.04-.021-.06-.023-.032-.003-.06.024-.088.032-.003.001-.011.004-.01.008-.032.006-.052.035-.083.054a1.513 1.513 0 0 0-.052.015c-.002 0-.015.005-.012.01-.003 0-.016.006-.013.01-.033.007-.06.023-.094.027-.002 0-.008-.001-.006.002-.001.003-.003.006-.005.007-.02.004-.093.044-.11.02-.002.003-.002.001 0 .005l-.034.01c-.002 0-.003.004-.006.005a.091.091 0 0 1-.015.006c-.01-.01-.03-.018-.04-.006-.002.003-.002.005-.004 0-.041-.003-.074-.022-.11-.04a2.148 2.148 0 0 0-.039-.01c-.017-.01-.034-.02-.05-.032a.2.2 0 0 0-.018-.011c-.015-.028-.05-.036-.07-.057-.013-.015-.025-.038-.041-.044 0-.002-.013-.002-.009-.006a.163.163 0 0 1-.035-.046l-.009-.025a3.41 3.41 0 0 0-.052-.077c-.001-.002-.001-.005-.004 0 0-.006.006-.016.004-.019.003-.002.002-.002.004 0 .002 0 .006 0 .004-.005-.003.004-.001.004-.004 0 .002-.002.003-.004.005 0 .002-.001.009-.003.006.002 0 0 .003 0 0-.002.011.004.021.008.03.013v.001c0 .002.005.002.003.005l.001.003c0-.001 0-.002.002-.003.003.004.001.004.004 0v.008l.006.011.002-.002-.002-.002a.387.387 0 0 0 .027.013l.001.002.002-.002.002.002c.002 0 .006 0 .008-.002l.054.031c.007.003.029.005.032.009a.015.015 0 0 0 .006.002v-.002l.017.028.012-.017.001.002.005.017c0 .001 0 .004.002.001h-.002a.056.056 0 0 1 .03.021L28.4 58l.002.002c.025-.009.05-.002.078-.002h.005c0 .002-.001.002-.002.003.002 0 .003 0 .002-.003h.023c.002 0 .003 0 .002-.002l.016-.002.005.003.003.004h.017l.001.002c.003 0 .006.003.005.007l.002.002c.012-.005.1-.016.108-.005l.005-.01h.034c.001 0 .003 0 .001-.003.008.004.016.008.025.01 0-.002.005-.015.01-.01v-.002c.003-.003.012-.016.016-.013l.001-.002c.003-.004.01-.01.008-.013.002-.003.001-.003.003 0 .002-.003 0-.003.003 0h.002c.012-.005.023-.007.035-.011v-.002c.002 0 .003-.001.003-.003l-.003-.001a.08.08 0 0 0-.03-.023.903.903 0 0 0-.198-.04l-.007-.009c-.028 0-.054-.026-.07-.057-.002-.003-.003-.01-.005-.006-.001-.004-.012-.023-.01-.025 0 0-.002-.009 0-.005 0-.004-.008-.029-.01-.026-.001-.002-.004-.018-.007-.014 0 0 0-.002-.002-.002a.987.987 0 0 0-.031-.246l.02-.037a.073.073 0 0 1 .052.03c0 .004 0 .009.002.011.001 0 .003.001.001.003.002 0 .004 0 .002-.002l.002-.003c.004 0 .03.006.024.012l.002.002s0-.002.003-.002l.002.004.002-.002.001.002v.003c.008.012.018.023.029.035l.008.004c0-.002.001-.003.002-.003 0 .002.001.003.003.005l.017.014c.002 0 .005-.002.007 0l-.001.003.009.01-.002.001c.003.004.002.004.004 0 .002.004.001.004.004.001 0 .003 0 .01.003.005l.004.005.002-.002v.006c.003-.003.002-.003.005 0 .002 0 .005-.002.006.002.008 0 .052.021.049.024 0 .001 0 .002.002.003l.001-.002c.026.025.075.029.095.055l.001-.002.002.002.037.014.002.005v.002l.01.006c.024.008.048.015.072.025.002.003 0 .003.002 0 .007.003.036.023.04.018.008.007.042.02.042.02.003.004.002.004.004 0 .015-.003.03.004.046-.003.002-.002.003-.003.006 0 .001-.003.002-.005.004-.003l.002-.001.005-.009v.002c.003-.002.004-.004.006-.002h.002c.018-.038.065-.056.09-.084 0-.003.012-.01.014-.01.001 0 .002-.003.005 0v-.003l.029-.05c.005-.008.021-.016.02-.014a.942.942 0 0 0 .13-.147l.022-.044.069-.093c.01-.019.011-.046.025-.063.018-.021.043-.03.063-.054.003-.004.022-.02.02-.022a.17.17 0 0 0 .02-.01Zm-3.004-1.245c.039.04.253.203.229.273-.029.082-.183.094-.244.124-.03.017-.058.035-.087.05-.016.011-.03.02-.045.032-.009.007-.033.026-.045.018-.009.045-.208.122-.233.192-.005.003.005.03.008.034.002-.002.004-.002.003 0 .002-.002.005-.007.008-.006a.274.274 0 0 0 .02 0l.014.003c.004.003.003.003.004-.001.002.002.003.007.005.002l.004.003.002-.003c.004.002.021.008.023.003.003.002.003.002.004-.001l.003.005a.084.084 0 0 0 .007.004l.001-.003.009-.002.001-.003.002.002-.002.005.005-.004c.002 0 .006.005.007 0 .004.002.002.002.004 0l.013.002c.001-.004 0-.002.002 0 .007-.009.041-.017.049-.011h-.001c.002.002.006 0 .005.005h.002l.001-.001h.002l.001-.002s.002 0 .002.002l.007.003v.004c.002.001.002.001.003-.003.002.002.001.002.002-.001.005 0 .013-.002.011.002l.003.001c.002-.001.003-.001.002.002h.003c.003 0 .01.003.012-.002.003 0 .003 0 0 .004.01-.002.045 0 .049-.01l.006-.001c.043-.014.085-.006.126.033.014.012.023.028.04.04.006.004.022.013.02.02 0-.002-.001-.002-.002-.003v.008c-.004 0-.012.001-.013.006-.002 0-.004.001-.002.003v.002c.002.003.002.004.003-.001l.031.028c-.002.004-.002.006-.006.004-.002.003-.002.002.001.004l-.007.045c-.008.036-.041.07-.07.073l-.037-.014-.037.002c-.02-.002-.04-.012-.06-.011-.005 0-.03 0-.027-.005a.371.371 0 0 1-.15-.019.076.076 0 0 1-.008.01l-.004-.002c-.018-.015-.039-.004-.054-.012-.009-.01-.04-.007-.04-.007-.003 0-.013-.002-.011-.006-.006 0-.046-.005-.044-.01l-.002-.002a.28.28 0 0 1-.135.014.151.151 0 0 1-.017-.006c-.016.002-.03.004-.046.004a.303.303 0 0 0-.1-.004l-.04.017c-.003 0-.016.006-.014.002-.036-.01-.28.026-.295.069-.003-.003-.002 0-.001-.004-.002 0-.006.001-.005-.004l-.002-.001c-.017.03-.073-.009-.08.007l-.014-.017a.389.389 0 0 1-.052-.072v-.004l-.018-.048a.363.363 0 0 1-.035-.112c0-.005.002-.015 0-.016 0-.005 0-.01-.003-.013 0-.002 0-.01.004-.008 0-.003 0-.017.005-.015l.001-.003.001-.01a.082.082 0 0 1 .01-.008l.001-.01c.002 0 .002.002.003.002 0-.005.002-.017.005-.014.001-.007.005-.04.007-.039.002.003.002.005.003.002l.002.001.009.008h.007c.002 0 .004-.004.008-.002.014-.005.032.012.047.021l.001-.002c.01-.002.019-.002.028-.002 0 .001.002.004.002.001l.03.006h.037l.001-.003.003.001-.001.004a.941.941 0 0 0 .047-.016l.027.02.01.001v-.003c.002 0 .002.002.003.002l-.001.002.015-.001-.002.002.022.02v-.004l.002.001c.002 0 .007-.003.003-.005a.125.125 0 0 1 .014-.01l.002.002c.003 0 .004-.001.003.002l-.002.005.007.002.002-.004c0 .002.002.008.004.004.003.001.002.001.004-.003.003.002.003 0 .001.004.002 0 .003-.001.001-.003.005-.001.02.003.023-.003l.003.001c.004.003.017.008.014.012h.003c.002-.002 0-.002.003 0l.002-.003.004.002c.002-.001.004-.004.007-.004l.001-.002.002.002.008.008h.008a.089.089 0 0 0 .018.003c.013.002.026.002.038.002l.005-.004c.02-.015.082-.035.09-.06.002-.002.007-.003.005.001l.002-.005c.006-.004.037-.02.035-.022.004 0 .01.002.013-.003-.002 0-.002-.001-.003-.002l.008-.005c.005-.004.01-.006.016-.008l.009-.01-.003-.001s.005-.006.004 0c.011-.006.033-.013.04-.027l.002.001c.003 0 .006 0 .006-.004.005-.004.01-.008.013-.014.003.002.004.006.006 0l-.002-.001c.005-.004.017-.014.024-.011a.036.036 0 0 1 .005-.01c.011-.007.078-.051.083-.048.001-.003.002-.002 0-.004l.015-.015a.012.012 0 0 0 .007.003c.002 0 .003 0 .004-.004.006-.018.051-.019.054-.028.001-.004.01-.015.006-.018l.001-.003c.004.002.006.005.01.006 0-.004 0-.004.003-.001 0-.008.008 0 .01-.006l.01.006v-.003h.002a.06.06 0 0 0 .003-.008l.003.001c.001-.003.001-.006.004-.005 0-.001-.002-.006.002-.005.001-.004 0-.003.003-.001 0-.003-.002-.009.003-.006 0-.003 0-.007.004-.004a.41.41 0 0 1 .117-.074l.004-.004c-.002 0-.002 0-.003-.002l.057-.051c.001-.005 0-.004.003-.002s.005.005.006 0l.025-.025c.001 0 .003-.001.001-.002.005-.012.013-.038 0-.047-.029-.006-.064-.015-.091-.013-.018.003-.037.008-.055.01-.003 0-.017.001-.015-.004-.032.014-.059.005-.09.008a.377.377 0 0 0-.033.01h-.046c-.082.001-.09-.04-.139-.116-.016-.022-.017-.066-.03-.084a1.588 1.588 0 0 1-.018-.091.01.01 0 0 1-.007-.004v-.005c-.002-.028-.008-.045.007-.074l.001-.003-.002-.001c.016-.008.038-.006.055.001.027.01.045.036.066.052l.15.083c.005.003.033.02.033.016l.01.005v-.003l.003.002-.001.003c.002.001.002.002.003-.002h.002l.001-.001h.002c.01.008.052.017.052.023h.001c.012.002.023.004.035.004.022.002.047.002.069.003.003 0 .007.003.009-.002l.001.002c.023.016.057 0 .067.007 0 .002.001.014.003.008.007.005.047.022.05.017l.014-.001Zm-4.68-.16c.036-.007.06-.006.089.014.004.003.011.005.013.01l.002-.001-.001-.002c.004-.002.002 0 .002-.004-.001-.004-.002-.007.002-.008v-.003a.088.088 0 0 0 .018.015s0 .002.002.002c.022.014.056.025.072.05.011.02 0 .073 0 .073-.001.038-.01.104-.01.104 0 .012.004.068-.005.07 0 .007.002.014.003.02.002.001.003.005.005.007a1.66 1.66 0 0 0-.008.06l.008.07-.002.03c.003 0 .002 0 .001-.004l.002.026c.004-.001.003 0 .002-.004l.007.034c.01.003.014.043.015.043.081.026.013.084.023.14.003.018-.017.09.007.082l.004-.011c0-.001 0-.004-.001-.003l-.001-.003c.002-.005.002-.016.005-.018 0-.004-.001-.004.002-.004 0-.004 0-.002-.003-.002 0-.005-.003-.02.001-.02.007-.01.022-.024.019-.039.002 0 .002-.002.004-.004v.003h.013v-.003l.002-.002v-.003c-.002-.003-.007-.017-.003-.018.002-.001.006-.005.005-.009 0-.003 0-.007-.003-.005.002-.003.012-.017.007-.016.01-.027.04-.011.054-.015 0 .016.009.067-.01.072-.002 0-.004.003-.005-.001h-.003v.004c.004-.002.004-.002.004.002l.001.033c.004.024-.008.046-.004.067-.026.032-.018.085-.024.127l-.014.044v.016c0 .003-.005.086.005.083.001.003.002.003-.001.003-.004.01-.02.071-.014.07 0 .005.002.042.006.042l.005.035c.002.002.004.004.005.008-.013.012-.004.054.003.072v.002h-.003c0 .005-.004.013 0 .012 0 .018-.006.032-.009.05-.023.113-.12.082-.194.103l-.007.008c-.022-.002-.058.01-.064-.03l.01-.056v-.004c0-.003 0-.007.002-.008v-.002s.002 0 .003-.002l.008.005c.001-.002.003-.004.003-.001l.002-.001c0-.02-.003-.081.018-.087v-.017a5.85 5.85 0 0 0 .018-.064c.002-.002.004-.008.005-.002 0-.006-.002-.014-.004-.021.005-.021.018-.06.014-.084 0-.014.002-.029.004-.043 0-.005-.001-.004.003-.004-.002-.022.001-.044-.004-.069l.007-.018-.004-.042c-.002-.001-.006-.004-.005.002-.02.005-.03.025-.041.044-.043.059-.073.05-.127.017-.01-.007-.038-.017-.042-.035-.049-.04.101-.143.096-.175a.276.276 0 0 0 .076-.118c0-.003.005-.011 0-.01a.896.896 0 0 0-.027-.197c0-.003-.006-.017-.001-.02 0-.004.001-.02.006-.02l-.024-.132c-.001-.004 0-.01-.005-.008v-.004h-.002c-.037.034-.06.081-.091.126-.041.06-.123.023-.17.007l-.052-.024-.014-.036c-.001-.004-.001-.003.001-.004 0-.01.005-.044.017-.047l.034-.039c0-.001.002-.01.003-.003 0-.002.001-.002.002-.002.004-.003.019-.009.02-.006l.005-.001v-.003l.001-.001.054-.06c.008-.015.03-.047.042-.05.001-.005.013-.028.014-.023 0-.002.002-.004 0-.004.008-.014.031-.047.044-.052v-.002l.001-.017c.001 0 .002 0 .003-.002v.004l.015.009v.002h.003v-.003c.01-.018.024-.047.042-.051a.095.095 0 0 1 .007-.016Zm.775-.618.098-.026c.041-.001.172.039.182.094.003 0 .003 0 .003-.003v.02a.112.112 0 0 1 0 .067c-.014.034-.044.061-.064.089l-.024.057-.033.052a.53.53 0 0 0-.053.199c-.002.004-.007.025-.004.025 0 .002-.002.01.002.01l-.007.056c-.004.032-.018.063-.02.096l.009.066c0 .007.001.033.004.033l-.02.05c-.015.027-.038.047-.057.07-.015.018-.026.044-.039.065a.555.555 0 0 1-.027.034.415.415 0 0 0 .002.172c.001.006.004.025.009.025 0 .004 0 .003.002.002v-.003c.004 0 .026 0 .025-.004a.037.037 0 0 0 .008-.008v.003c.002-.001.005-.006.005-.001.002 0 .002 0 .003-.002.008-.012.016-.008.026-.01.054-.028.093.063.107.059v-.003c-.001-.004 0-.01.002-.012v.005c.004-.002.004 0 .003-.006 0 .007.002.03-.003.03.033.02.003.08.01.078l-.028.055c-.028.052-.065.097-.069.164 0 .007.004.028-.003.03.002.003.01.01.006.011 0 .018-.001.045.002.06a.428.428 0 0 1 .026.013l.035-.015c.002.001.002.003.002.004.003-.001.002 0 .002-.005.003 0 .002 0 .002-.004l.006-.001v-.002l.005-.002.018-.026h.003c.004.001.025.007.023.003l.04-.022.096-.024c.014-.003.029.01.034.008.006-.01.02.017.025.016.01.01.065.044.066.053h.003v-.003l.001-.002c.002-.004.003-.01.007-.01l-.001-.004h.003v.003h.003c-.004.055.035.026.038.04 0 .095-.1.092-.154.106a3.775 3.775 0 0 1-.097.033c-.011.009-.024.014-.037.023-.026-.005-.047.022-.066.034l-.018.022c-.006 0-.024.011-.025.008-.047.03-.142.099-.195.057-.017-.014-.025-.04-.039-.06-.016-.022-.041-.042-.048-.076-.005-.034.017-.062.013-.086.003 0 .002 0 .001-.004.024-.041.029-.138-.007-.18-.022-.022-.054-.022-.063-.062-.009-.036.028-.059.022-.09l.005-.002.017.005c-.001-.004-.001-.002.002-.004a.229.229 0 0 1-.003-.055c0-.004 0-.003.002-.004a.065.065 0 0 1-.003-.006c.002 0 .005.001.004-.004-.002-.001-.003-.002 0-.003-.002-.004-.002-.003.001-.004 0-.004 0-.002-.003-.002-.002-.035 0-.083-.018-.111 0-.002-.004-.005 0-.006-.002-.004-.011-.023-.008-.024-.042-.026-.034-.077-.042-.123a.071.071 0 0 1 .002-.028v-.006c.003 0 .003 0 0-.004.006-.014.015-.035.012-.052a.574.574 0 0 0-.003-.032l.003-.022-.01-.056-.028-.015c0 .002 0 .005.002.006v.045l-.011.077v.004l.001-.001c-.001.007-.02.039-.021.033-.004 0-.01 0-.01.005-.038-.014-.06-.061-.087-.095-.02-.027-.044-.048-.06-.078-.013-.025-.019-.071-.023-.102 0-.003.002-.01.004-.011l-.03-.153c-.009-.029-.025-.06-.025-.094 0-.013.008-.022.016-.026.028-.013.034.02.05.036l.029.023a.804.804 0 0 1 .153.252c.004.001.01.001.011.007.003-.001.003 0 .003-.004l.002-.001c.032-.06.063-.075.073-.152l.003-.025-.005-.008.01-.038-.005-.01h.002c0-.003-.001-.006.002-.007l-.001-.003-.004-.01c.003-.005.01-.037.006-.037l-.003-.019c-.002-.005-.004-.026-.008-.024v-.003h-.003c0 .001 0 .002-.002.003l-.008.009-.01.012-.01.008a.128.128 0 0 1-.007.011l-.007.009c-.027.03-.068.042-.109.053-.003 0-.01 0-.01.005-.051-.077.04-.093.031-.145.003 0 .003 0 .002-.003l.002-.002c.02.002.081-.08.094-.1l.025-.045c.002 0 .005 0 .003-.004a.387.387 0 0 1 .073-.093c.001 0 .003.002.003-.001.003-.01.027-.032.026-.037.003 0 .002-.002.003.002a3.83 3.83 0 0 1 .07-.095c.017-.02.037-.031.05-.06Zm-.065.252c-.026.03-.046.065-.068.098a.848.848 0 0 1-.03.04c-.002.003-.01.018-.005.017l.003.029.042.06.01.073a.488.488 0 0 0 .01.12c.009-.006.04-.045.033-.043a.52.52 0 0 0-.003-.029h.002l.001-.007c0-.002-.005-.006 0-.007-.001-.005-.001-.003.002-.004-.007-.072.01-.15.022-.219.006-.035.02-.051.02-.093 0-.004-.002-.012.002-.013-.002-.003-.003-.006 0-.007 0-.006-.003-.022-.009-.02l-.032.005Zm-4.209 1.936c.03-.033.08-.03.105.006.01.017.034.021.05.03l.028.022.002.002h-.002.002c.04.031.064.09.067.146 0 .014-.002.05.005.06-.006.044.05.18.032.2-.028-.003-.057-.028-.078-.059a.747.747 0 0 1-.064-.118l-.038-.088c-.017-.053-.064-.104-.094-.15-.002-.002-.011-.014-.009-.015a.73.73 0 0 1-.006-.036Zm.546-.801c.08-.049.116-.013.172.07.002.033.023.063.027.098.008.083-.032.247.013.314.005.016.019.05.034.054l.028-.001c0-.002 0-.004-.001-.002a.994.994 0 0 0 .016-.033c.014-.017.037-.023.055-.025.014-.002.034-.01.048-.003.036.016.043.102.045.14 0 .033-.034.065-.027.095.011.042.059.038.078.065.083.06.07.155.087.25.002.015.004.033.008.049.002.017.005.04.013.056.024.045.045-.028.045-.028l-.004-.007c.003-.013.011-.043.002-.056a.33.33 0 0 0-.042-.068c-.001-.004-.003-.012-.001-.015l-.01-.014c.012-.01.024-.012.037-.025.042-.037.063-.084.114-.075.003 0 .017.002.015.005.032.037.03.09.017.138l-.004.026v.052a.287.287 0 0 1-.017.07c0 .003-.002.019-.004.016-.008.013-.026.054-.033.062l-.006.003c-.008.015-.013.03-.02.044-.022.044-.028.1.002.143-.001.005.007.076.007.076l.002-.002c.007.032.003.184-.006.214a.121.121 0 0 1-.03.05c-.01.009-.039.001-.034-.005-.011-.047.005-.137-.02-.174.002-.003.004-.003.001-.006-.002 0-.006-.02-.005-.02-.002-.004-.003-.005 0-.008-.003 0-.007 0-.004-.004-.002-.003-.006-.02-.008-.018-.028-.036-.061-.015-.089.015-.003.004-.015.016-.014.019-.005 0-.026-.003-.024-.005a1.057 1.057 0 0 0-.03-.04c.002-.012.004-.039.013-.047l-.002-.002a.032.032 0 0 1 .005-.006c.003 0 .006 0 .009-.002l.027-.046h-.002l.002-.003.002.002c.003-.021.026-.07.011-.092.001-.016-.028-.05-.025-.052-.003 0-.005.003-.008 0-.004-.003-.046-.004-.039.006-.052.033-.004.079-.013.09l-.005.006c.002.003.001.003.003 0 0 .003.002.005.003.008-.004.007-.03.067-.032.063-.032.045-.127.02-.143-.038v-.009c-.002-.002 0-.002-.003 0v-.03c.001 0 .002 0 .002-.002 0-.023 0-.045-.002-.067v-.006a.153.153 0 0 0-.017-.072l-.008-.03c-.01-.031-.029-.06-.043-.091 0-.002 0-.008-.003-.004-.002-.008-.015-.059-.013-.063-.02-.014-.057-.053-.08-.026-.01.013-.014.031-.028.04-.024.018-.062.02-.09.021-.004 0-.025-.006-.023-.007-.014-.021-.005-.06.01-.077v-.002l.001-.002c0 .002 0 .002.002.003v-.005l.001-.001-.001-.003.001-.001.006-.006v.002a.143.143 0 0 1 .008-.016l-.002-.001.002-.003v-.002c.001-.002 0-.002.002 0 .003-.002.003 0 0-.003l.022-.055.002.002c.002-.002.002-.002 0-.005.002-.001.002 0 0-.003a.92.92 0 0 1 .006-.026c-.002-.003-.002-.002 0-.003 0-.007.007-.03.008-.029h.002c0-.003 0-.005.002-.003 0-.002 0-.004.002-.006l.015-.105-.002-.006a.446.446 0 0 1-.005-.02c-.002-.006-.024-.05-.023-.051l-.001-.003c-.003-.005-.006-.01-.008-.017-.003-.004-.007-.013-.005-.015l-.002-.002-.03-.046-.017-.042c0-.002-.003-.02 0-.016 0-.001 0-.003-.003-.005.028-.046.088-.007.12.015h.002a.029.029 0 0 1 .006-.006l.001.003a.106.106 0 0 0-.034-.07l-.017-.007v-.001a.401.401 0 0 0-.023-.032c-.015-.012-.034-.02-.042-.045 0-.003-.003-.006 0-.01-.002 0-.002-.001-.003-.002l.003-.002c.02-.009.04-.027.063-.022.024.005.053.062.078.034v.003l.003-.001c-.002-.004-.002-.003 0-.006-.002-.008.01-.087.001-.076-.018-.059-.052-.113-.077-.169 0-.002-.006-.018-.01-.015a.177.177 0 0 1 .005-.05Zm.38 1.061.001.002-.001.002c-.012.032-.023.075-.045.1l.001.002c.003-.002.001-.002.003 0 .004.015.018.026.025.038.01-.013.042-.065.033-.078.002-.002.002-.005.002-.006l.001-.005a.125.125 0 0 0 .001-.056c0-.002 0-.01-.003-.007-.002-.002-.002 0 0-.003-.002-.003-.002-.002 0-.005l-.002-.002a.103.103 0 0 1-.016.018Zm-.06-.168.001.002c-.014.031-.064.08-.037.12a.603.603 0 0 1 .02.027c.004-.002.016-.012.019-.008h.001c.004-.012.008-.023.01-.034.004-.001.003-.001.005.001.002-.002.002-.001 0-.004.002-.002.002-.001 0-.004.002-.001.007 0 .003-.005.002 0 .003-.002.004-.003l-.001-.002.001-.002.016-.055-.002-.006c-.003-.008-.005-.017-.01-.023-.012-.005-.019-.008-.03-.004Zm-.203-.128.002.002c-.002 0-.001.001-.001.003.001.002.001.001-.002.002a.011.011 0 0 1 .002.007.174.174 0 0 0-.015.055h.003l-.004.004v-.001h-.003c.005.02-.009.053.003.07.03-.017.12-.044.11-.105l-.005-.022c-.001 0-.003 0-.001-.002l-.01-.005c.001-.002.002-.003.002-.007-.027-.01-.053-.022-.08 0Zm.597.507a.895.895 0 0 0 .032-.026c.022-.012.053-.013.074-.036 0-.002 0-.002.003 0l.12.046c.002 0 .012.003.01.007.001 0 .002 0 .001-.002l.04.026a.071.071 0 0 1 .032.028c0 .002 0 .011.003.008-.002.003-.006.005-.004.009 0 .001 0 .003.001.001.004.008.021.038.018.042.002.02.005.06-.008.077a.343.343 0 0 0-.031.023l-.04.029a.1.1 0 0 1-.014.01c-.004.014-.046.072-.05.066l-.01.037a.046.046 0 0 0-.015-.005l-.001-.002c0-.002 0-.02-.002-.016l-.002-.003-.002-.02a.024.024 0 0 1 .006-.005c-.003-.003-.003-.002 0-.006h-.004l.008-.057a.145.145 0 0 0-.006-.082c-.002-.002-.005-.005-.002-.008l-.029-.046a2.579 2.579 0 0 0-.054-.033l-.026-.026c-.015-.014-.03-.009-.048-.036Zm-.93.047c.049-.048.132-.002.18.029.002.002.01.009.012.006.027.002.017-.045.03-.06l.002.003a.142.142 0 0 1 .02-.015s.003 0 .004.002l.001.011.006.005c.002.02.008.042.02.06.005.037.031.068.027.11l.001.002.01.018c-.001.07.033.113.062.172.003.005.007.02.009.019l.004.007.027.07.006.019.001.01c.007.009.006.02.012.029-.002 0-.01-.001-.008.003l-.001.003.002.002.008.002a.146.146 0 0 0 .015.032l.025.076c.002.002.002.005.005.002 0 .007.024.05.027.046 0 .022.011.035.02.054l.021.052.045.071c.002.005.009.02.01.018 0 .01.005.03.011.038l.007.004a.53.53 0 0 0 .013.05c.01.041-.01.074-.034.103l-.02.01-.03-.003a.254.254 0 0 1-.1-.04c-.003-.001-.01-.007-.01-.01-.015-.018-.02-.045-.032-.062l-.006-.005a.222.222 0 0 0-.014-.073l-.01-.036-.01-.041c-.002-.002-.002 0 0-.003-.002-.005-.005-.023-.007-.02l-.037-.073-.009-.025c-.004-.005-.026-.035-.023-.04l-.014-.037a2.904 2.904 0 0 1-.033-.058c-.002-.002-.005-.006-.003-.009-.002-.003-.001-.003-.003 0-.002-.005-.01-.031-.012-.03a1.14 1.14 0 0 0-.03-.057.639.639 0 0 0-.015-.04c-.002-.003-.003-.004-.001-.008-.002-.002-.002 0 0-.004-.009-.014-.006-.039-.015-.05-.001-.003-.004-.005-.006-.007a.15.15 0 0 0-.028-.07l-.002-.01c0-.002 0-.005.002-.005-.002-.004-.002-.004-.004 0-.026-.067-.08-.134-.12-.188-.003-.004-.015-.02-.012-.021-.001-.006 0-.034.003-.03l.002-.006-.001-.002Zm-2.44 1.559.049-.043c.02-.018.031-.039.055-.047a.17.17 0 0 1 .117.014c.021.012.04.036.06.053.042.04.09.078.124.121.017.024.032.05.05.076.049.056.112.1.165.136.015.01.04.02.052.002 0-.033.017-.132.062-.124.013.003.026.017.038.028.051.05.017.082.007.138-.004.017-.018.05-.004.065l.052.035a.877.877 0 0 0 .42.175c.008.003.064.01.067.007-.001 0-.002 0-.002-.003-.01-.038-.076-.092-.109-.122l-.05-.056-.058-.057c-.008-.01-.01-.025-.002-.035.01-.012.036-.007.05-.007.128.004.212.107.301.21l.085.084c.016.015.02.032.033.047l.035.034.03.04c.017.016.038.033.047.054.007.018 0 .045-.003.063-.018.11-.129.058-.19.03a.985.985 0 0 0-.122-.043c-.04-.013-.081-.005-.12-.017-.024-.008-.07-.032-.095-.015l-.007.013c-.01.03.009.108.015.142l.014.147a.936.936 0 0 1-.005.167l-.015.06c0 .04.003.081.005.123-.002.039-.004.076-.008.116 0 .05-.003.101-.004.152l-.021.099c-.008.037-.016.079-.041.111-.01.014-.049.011-.077.024-.01.005-.027.02-.035.024-.04.016-.065.026-.082.007-.003-.006-.023-.005-.016-.017a.315.315 0 0 0 .037-.096v-.004c-.004-.053.035-.105.046-.157.01-.048.014-.15.039-.19l.002-.001a.279.279 0 0 1 .003-.078h-.002c0-.002.002-.002.002-.003l.001.002.012-.06a10.6 10.6 0 0 0 .007-.11c.002-.015 0-.085.007-.093-.017-.06.027-.176-.021-.227-.027-.028-.065-.046-.096-.064l-.032-.015c-.002.003-.007.009-.004.011a.479.479 0 0 0 .015.135c.008.03.025.05.035.08.022.061-.009.149-.067.16a.081.081 0 0 1-.074-.025.354.354 0 0 1-.061-.1c0-.004 0-.003-.002-.002-.024-.032-.079-.098-.11-.044-.014.024-.014.051-.032.076-.012-.003-.018-.01-.029-.019.003-.002.003-.002 0-.004l-.003.004.005.036c.008.018.02.033.026.053.008.036-.007.072-.008.107 0 .02.013.035.01.053-.005.022-.02.047-.028.07l-.033.012-.03.012c-.024-.016-.08.047-.107.048-.02.002-.029-.008-.038-.015-.014-.009.056-.116.043-.127l.002-.003a1.23 1.23 0 0 0 .011-.083c.003-.003.003-.003 0-.004l.021-.065c.002-.003.001-.003.004 0 .002-.061.024-.123.04-.18.01-.038.015-.078.025-.117.005-.018.003-.044.015-.061.007-.022.016-.043.022-.065.01-.034.01-.077.03-.106a.332.332 0 0 1 .013-.03c.01-.056.05-.152.032-.21-.01-.034-.05-.054-.078-.078-.047-.043-.09-.073-.136-.114a3.117 3.117 0 0 1-.072-.067l-.027-.012-.059-.042-.07-.034-.074-.05c-.023-.013-.06-.023-.078-.049-.012-.017-.002-.047 0-.066Zm.702.605.002.001c-.004.017-.013.068-.003.083.01.015.033.01.047.02l.071.055c.032.017.14.037.16-.01.004-.014-.007-.023-.015-.033a.909.909 0 0 0-.235-.131c-.01-.002-.02.007-.027.015Zm-.027.203c0 .032-.009.065-.015.096-.006.03-.04.085-.015.116.025.032.12-.066.137-.09.005-.02.015-.034.008-.056-.008-.029-.092-.08-.115-.066Zm.003.588c.015-.012.034-.019.05-.004h.01c.013.02.084.007.1.022l.005.008c.018-.005.048.044.048.044l.006.006c0 .004-.001.024.003.02l-.002.005a.147.147 0 0 1-.017.087v.01c-.022.023-.014.064-.036.086-.03.031-.076-.04-.081-.063-.004-.019-.007-.046-.019-.06v-.004c-.002-.003-.002-.001 0-.005a.04.04 0 0 1-.008-.006c0-.007 0-.03.001-.029l-.046-.078-.014-.04Zm-.382-.929c.042-.04.066-.06.12-.034l.03.015c.029.053.024.09.019.149a.996.996 0 0 1-.008.041.313.313 0 0 1-.035.145c-.007.011-.016.012-.025.019a.523.523 0 0 1-.104.07l-.052.027-.003-.003.002-.005c-.001 0-.002 0-.002-.002l-.017-.013a.81.81 0 0 1 .029-.128c.002-.004 0-.004.004-.001 0 0 0-.003.002-.003.005-.022.012-.045.02-.068-.003-.001-.006-.006-.004-.01l.014-.026a.005.005 0 0 1-.002-.002l.001-.003.003.002c0-.013.002-.03.01-.041-.003-.002-.003-.002 0-.003l.001-.04c-.003-.002-.003 0 0-.004l.002-.01a.203.203 0 0 0-.005-.072Z" fill="#fff"/></svg>