<?xml version="1.0" encoding="UTF-8"?>
<svg xmlns="http://www.w3.org/2000/svg" version="1.1" viewBox="0 0 128 38.9">
  <defs>
    <style>
      .cls-1 {
        fill: #00489b;
      }

      .cls-1, .cls-2, .cls-3, .cls-4 {
        fill-rule: evenodd;
      }

      .cls-2, .cls-5 {
        fill: #fff;
      }

      .cls-3, .cls-6 {
        fill: #231916;
      }

      .cls-4 {
        fill: #fbc642;
      }
    </style>
  </defs>
  <!-- Generator: Adobe Illustrator 28.7.1, SVG Export Plug-In . SVG Version: 1.2.0 Build 142)  -->
  <g>
    <g id="_图层_1" data-name="图层_1">
      <path class="cls-3" d="M84.4,16.2c.3,0,1.7.2,1.7.6s-.8.8-1,1.1c-.1.1-.2.3-.4.4,0,0-1.2,1.4-1.2,1.7,0,0,0,.1,0,.1,0,0,.7-.3.7-.3,0,0,.2,0,.3-.2l.5-.2c.2-.2.5-.2.7-.2,0,0,.2,0,.4,0,0,0,.2,0,.2.2,0,0,0,.2,0,.2,0,.2-.1.4-.3.5,0,0-.3,0-.3,0-2.8.9-3.8,1.6-3.9,1.6,0,0-1.6,1.1-1.5,1,0,0-.3.1-.4.2,0,0,0,0,0,0,0,0-.3-.1-.3-.1,0,0-.2-.2-.3-.2-.1-.1-.3-.2-.4-.4-.2-.3,0-.6,0-.6,0,0,0,0,0,0h0s2.3-.7,2.3-.7h.2c0,0,0-.1,0-.1,0-.1,2.7-3.5,2.8-3.6,0,0,0,0,0,0,0,0,0-.2,0-.2-.2,0-1.4.7-1.4.7,0,0-.2,0-.2,0-.4.2-.5,0-.9-.1-.1,0-.7-.6-.7-1,0,0,.2-.1.3-.1.2,0,.3,0,.4,0,.3,0,1.1,0,1.3,0,.3,0,.5-.2.8-.3,0,0,.3-.2.4-.2.1,0,.3,0,.4,0h0ZM47.2,13.1c.3,0,.5,0,.7,0,.2,0,.6.6.7.7v.2c.1.1.1.3,0,.5,0,0,0,.2,0,.2,0,0-.1.1-.2.2,0,0-.1.1-.2.1,0,0-.1,0-.1,0-.3.1-.5.2-.7,0,0,0,0,0,0-.2,0,0,0-.1,0-.2,0,0,0-.2,0-.2,0,0,0-.3,0-.3,0,0,0-.4,0-.4l-.3-.6s0,0,0-.1M43.2,14.2c.4,0,.6.1.7.5,0,0,0,.2,0,.3-.2.4-.3.4-.7.6,0,0-.2.1-.3.2-.2.1-.6.3-.8.3,0,0-.3,0-.4-.1-.3,0-.4-.1-.7-.2h-.1c0,0-.2-.2-.2-.2,0,0,0,0,0,0,0,0,0,0,0,0,0,0,0-.1,0-.1.1,0,.4-.2.5-.2h.2c0,0,.2-.1.2-.1,0,0,0,0,.1,0,.1,0-.1,0,0,0,0,0,0,0,.1,0,.2,0,0,0,.2,0,0,0,0,0,0,0,0,0,0,0,0,0,0,0,0,0,0,0,0,0,.2-.1.1,0,0,0,.1,0,.2,0,0,0,0,0,.1,0t0,0s.1,0,.1,0c.1,0,0,0,.2-.2M40.2,19.7c.1,0,.2,0,.2.2,0,0,0,0,0,.1,0,.2.3.4.4.6,0,0,0,.1,0,.2,0,.1,0,.2,0,.2,0,0,0,0,0,.2,0,0,0,0,0,0,0,0-.1,0-.1,0-.1,0-.3.2-.4.2,0,0,0,0-.1,0-.2,0-.3.2-.5.1-.3,0-.2-.6,0-.7,0,0,.1-.1.2-.2,0,0,0,0,0,0,0,0,0,0,0-.1,0,0,0,0,0-.1,0,0,.1-.2.1-.3v-.3c.1,0,.2-.2.2-.2h0Z"/>
      <path class="cls-3" d="M40.7,17.5c.2,0,.5-.2.7-.3.1,0,.2-.1.4-.2.2,0,.2,0,.4-.1.2,0,.3-.1.5-.2.2,0,.4-.1.7-.2.4-.2.8-.2,1-.5.1-.2,0-.5,0-.7,0-.4,0-.8,0-1.2v-.6s0-.2,0-.2v-.5c0,0-.2-.5-.2-.5v-.6c-.1-.2-.3-.4-.2-.6,0-.1.3-.2.3-.3,0,0,.3,0,.4,0,.2,0,.3,0,.5.1.2.1.4.5.5.7,0,.2,0,.4,0,.5,0,.4,0,.8,0,1.1l-.2.5c0,.5,0,1,0,1.4,0,.1,0,.3.2.3.2-.1.7-.4.9-.1,0,0,0,.2,0,.3,0,.5-.3.4-.7.6-.1,0-.3.1-.3.2v.4c.2.8.4,1.6.8,2.3l.4.6c0,0,.2.4.3.4,0,0,0,0,0,0,.1-.2,0-.7,0-1,0-.2,0-.3,0-.5,0-.2,0-.3,0-.5,0,0,0-.1.2-.1.1,0,.2.2.3.2.6.7.5,1.5.4,2.4,0,.3,0,.6,0,.8,0,.1,0,.2,0,.3,0,.1,0,.2,0,.3,0,.1,0,.2,0,.3,0,.2,0,.3,0,.4,0,.1-.2.2-.3.2-.6.3-.9-.5-1-.9,0-.3-.1-.4-.3-.6-.1-.2-.4-.6-.6-.9,0-.2-.2-.5-.4-.6h0c-.2,0-.5.5-.7.6l-.7.6c-.2.2-.6.4-.8.6-.1,0-.3.2-.4.2-.2.1-.4.3-.6.4-.2.1-.4.3-.6.4l-.8.6-.6.3c-.2,0-.5.2-.8.2-.1,0-.3-.2-.5-.3,0,0-.2,0-.3,0-.3-.1-.3-.2-.4-.4,0,0,0-.2,0-.2.3,0,.1,0,.4-.1,0,0,.3-.1.3-.1.3-.2.7-.2,1-.3.3-.1.6-.3.8-.4,0,0,.3-.1.3-.2,0,0,.2,0,.2-.1h.2c0-.1.1-.1.1-.1,0,0,0,0,0,0,.1,0,.1,0,.2-.1.2-.1.3-.2.5-.3,0,0,.5-.3.5-.4.4-.3,1-.5,1-.9,0-.2,0-.5-.1-.8,0,0,0,0,0-.2,0,0,0,0,0,0-.2.2-.4.4-.6.6-.1.2-.1.3-.2.5-.2.3-.8.5-1.1.3-.1-.1-.2-.3-.2-.5,0-.2,0-.4.2-.6,0,0,0-.1,0-.2,0-.3.1-.7-.3-.7-.2,0-.4.1-.5.1,0,0,0,0,0-.2,0,0,0,0,0,0,0,0,0,0,0,0,0,0-.1.1-.1.2,0,0,0,.2-.2.3-.1.2-.4.2-.6.4,0,0-.1.2-.2.2-.1,0-.3.1-.5.1,0,0-.2,0-.2-.1,0,0-.2,0-.2,0-.1,0-.6-.3-.8-.4-.1-.1,0-.2-.1-.3,0-.1.4,0,.7-.2.2,0,.3-.2.3-.2.2,0,0,0,.2,0,0,0,.2-.1.3-.1M44.3,16.9h0c-.1,0-.4.2-.4.3,0,.1,0,.2.1.3v.6c.1.2.5.9.9.8,0,0,0-.1,0-.2,0-.3-.3-1.6-.4-1.8,0,0-.1,0-.2,0ZM43.2,17.5c-.2.1-.4.2-.6.3-.2,0-.6.1-.7.4,0,.3,1,.4,1.1.4.1,0,.3,0,.4-.2.1-.2,0-.8-.2-.9ZM54.2,12.1c.3,0,.6.3.6.6s.1.3.2.4v.3c0,0,0,0,0,0h0s0,0,0,0c.1.4,0,.7-.2,1,0,0-.2.2-.2.3-.2.3-.4,1.1-.6,1.1-.2-.2-.2-.4-.2-.7s0-.6,0-.9v-.6c.2-.3.2-.8.2-1.1s0-.1,0-.1v-.2ZM54.1,16.7c.5,0,.8.7.9,1,0,0,0,0,0,0,.2.1.3-.1.4-.1,0,0,0,0,0,0,0,0,.1,0,.1,0,0,0,0,0,0,0,0,0,0,0,0,0,0,0,0,0,0,0,0,.1-.1.3-.2.5,0,.2,0,.3-.2.4,0,0,0,.1,0,.2,0,.1-.2.3-.2.3-.1.4-.2,1.2-.3,1.5-.1.3-.4,1.4-.4,1.4,0,.1,0,.2,0,.3,0,.1,0,.2,0,.3,0,.2,0,.4,0,.6,0,0,0,.1,0,.1-.1.8-.4.9-.8.9,0,0-.1,0-.2,0,0,0-.1,0-.2-.2-.1-.2-.3-.4-.4-.6,0,0,0-.2,0-.2,0-.2,0-.1,0-.3,0,0,0-.1,0-.1,0-.1.2-.3.2-.4,0,0,.2-.5.2-.5,0,0,0,0,0,0,0-.2.3-1.7.3-2.3,0,0,.1-.4.2-.6,0,0,0,0,0-.1,0-.1,0-.3,0-.4,0,0,0,0,0,0,0,0,0,0,0-.1,0,0,0-.2,0-.2,0-.4,0-.7,0-1.1,0,0,0-.2,0-.2,0,0,.1-.2.1-.1h0s0,0,0,0ZM59.7,21.1h.3c.2,0,.4.2.6.2s.4.6.5.8c0,0,.1.3.2.4,0,0,0,.2,0,.3,0,0,0,.2-.1.4,0,.1-.2.3-.3.3,0,0-.3,0-.3,0h-.3c0,0,0,0-.1,0,0,0-.7.1-.8.2h0c0-.1,0-.2,0-.2,0,0,0-.1.4-.4.2-.1.3-.2.3-.7,0-.2-.1-.4-.2-.5v-.2c0-.1-.2-.2-.2-.4h0Z"/>
      <path class="cls-3" d="M60.6,11.7c.7.2.7.5.7,1.2-.1.2-.1.4-.2.6-.3.4-1.2,1-1.2,1.5,0,.1,0,.3,0,.4h.2c0,.1,0,.1,0,.1h.2c.1,0,.3,0,.4,0,0,0,.2.1.3.2.1.3-.2.7-.3.9-.1.2-.5.1-.5.3-.1.2.2.5.2.7.2.7-.2,1.1-.5,1.6l-.2.3c0,0-.1.2-.1.3,0,.3.4,0,.4,0,0,0,.2-.2.2-.3,0,0,0-.4,0-.5,0-.2,0-.2,0-.2.1,0,.2,0,.3,0,.7,0,.8,0,1,.3,0,0,0,.1,0,.2,0,.3-.2.4-.4.5,0,0,0,0-.1,0l-.2.2c-.1.1-.3.2-.4.3,0,0-.4.1-.5.1,0,0-.2,0-.3,0-.3,0-.5.3-.6.7,0,0-.2.4-.2.4,0,.2-.7.9-.9,1-.1,0-.3,0-.4,0,0,0-.1,0-.2-.2,0,0,.2-.2.5-.6.1-.2.1-.2.1-.3,0,0,.1-.3.1-.3,0-.3-.3-.4-.6-.4s-.2,0-.2,0c0,0-.1-.2-.1-.2v-.3s.2-.2.3-.2c0,0,0,0,0,0,.1,0,.6,0,.8-.4.2-.5-.3-.6-.2-.6-.5,0-.2.3-.6.5,0,0-.1,0-.3,0-.2,0-.9-.5-.6-1,0,0,.4-.4.4-.4,0-.1.2-.2.2-.4,0,0,0-.2,0-.2,0-.8.3-1,.3-1,0,0-.1-.5-.4-.5-.1,0-.2,0-.3,0-.2,0-.4-.2-.6-.4,0,0-.1-.1-.1-.2,0-.5.8,0,1.9-1.1,0,0,0,0,0,0,0,0,0,0,0-.1,0,0,0-.3,0-.3h0c0,0,0,0,0-.1,0,0,0,0,0,0v-.7c0,0,.1-.1.1,0h0c.3-.1.5.4.6.6,0,0,0,0,0,0h0c0,0,.1-.3,0-.5,0,0,0,0,0-.1h0v-.3c0-.1-.1-.3,0-.4,0,0,0,0,0,0h0s0,0,0,0c.2,0,.3,0,.5.2.1.1,0,.6.3.6h0s0,0,0,0c0,0,0,0,0,0,0,0,.4-.3.3-.3.1-.4.1-.8.2-1.2,0,0,0-.1,0-.1,0,0,.1-.2.2-.2h0ZM58.6,18.5s0,0,0,0c-.5.3-.7.2-.7.2,0,0,0,.2,0,.3.1,0,.4,0,.4-.1,0,0,.2-.1.2-.1,0,0,.2-.2.2-.3,0,0,0,0,0,0,0,0-.2,0-.2,0ZM58.9,17.4s0,0,0,0c-.2,0-.6,0-.6.4,0,0,0,.2,0,.2,0,0,.4,0,.8-.3,0,0,0,0,0,0v-.2c0,0,0-.1-.1-.2ZM58.2,15.8c-.2,0-.7.5-.7.6,0,0,.9.4,1.1,0,.2-.2-.2-.6-.4-.6M68.3,15.2c.2,0,.7.2.7.2,0,0,.5.3.5.5,0,.1,0,.4,0,.4-.3.8-.5,1.9-.5,1.8,0,.2,0,.6,0,.6.5.3,0,.5,0,.8s-.2.4,0,.4c0,0,0-.1,0-.1,0,0,.6-.7.6-.7,0,0,.2,0,.3,0,0,0,0,.2,0,.3,0,0,0,0,0,.1,0,.2-.2.3-.2.5-.1.2-.2.4-.3.6v.2c-.1,0-.1,0-.2,0l-.3.8s0,.7-.1.9c0,.1,0,.2-.1.2-.3.6-.8.2-1.4.3,0,0-.4,0-.4-.3,0,0,0-.1.1-.2,0,0,.4-.6.4-.6,0-.1.4-.7.5-.8,0-.1.1-.4.2-.6,0-.2,0-.3,0-.4-.1,0-.3,0-.4.2-.4.2-.6.2-.9,0,0,0-.2-.1-.2-.2-.3-.3.6-.6.9-.8.2-.2.5-.3.6-.5,0,0,0,0,0,0,0,0,.1-1.8.1-2s0,0,0,0h0s0,0,0,0c-.3.1-.5.3-.8.5-.4.3-.9,0-1.2-.2-.1,0-.2-.1-.3-.2v-.2c0,0,0-.2.1-.2,0,0,.8-.4.9-.4,0,0,.9-.6.9-.6.1,0,.5-.2.5-.2h0ZM74.3,13.1h.7c.3,0,1.2.5,1.1.9,0,.1,0,.2,0,.3-.1.2-.4.3-.5.4l-.2.3-.3.2c-.2.2-.6,1-.7,1.1,0,.4-.3.6-.4.8v.5s-.1.1-.2.2c-.1.1-.3.2-.5.3-.1,0-.2.2-.3.3,0,0-.1.1-.2.2-.1.1-.2.7-.2.9,0,0,0,.1,0,.1,0,0,.4,0,.5,0,.3,0,.6.5.7.6,0,.2-.3.5-.3.6-.3.2-.6.4-.7.8,0,0,0,.5,0,.5h.2c0,0,.7,0,.7,0h.3c.2,0,.4,0,.7,0,0,0,.2,0,.2,0,0,0,.1.1.2.2,0,0,.5.4.5.4,0,.1.2,0,.2.1-.1.5-.8.3-1.2.3h-.5c0,0-.3,0-.5,0-.2,0-.3,0-.5,0-.6.2-1.4.4-1.7,0-.1,0-.1-.2-.2-.4,0-.1-.2-.3-.2-.5,0-.2.2-.3.2-.4,0,0,0,0,0,0,.2-.2.4-.7.2-.9-.1-.2-.3-.2-.3-.4,0-.2.4-.4.4-.4,0,0,0-.5.2-.9,0,0,0-.3,0-.3-.3-.2-.1-.5-.1-.7s0-.1.2-.5c0,0,0-.1,0-.2h0v-.4h-.2c0-.1,0,0,0,0v.2c-.1.1-.2.4-.2.4-.1.1-.2.2-.2.1-.2,0-.3-.4-.5-.6-.1-.2-.2-.3-.3-.5,0-.1,0-.4,0-.6,0,0,0-.6,0-.9,0-.2,0-.3,0-.5,0,0,0-.1.1-.1.2,0,.2.2.3.3l.2.2c.2.3.7,1.2.7,1.6,0,0,0,0,0,0,0,0,.6-.3.7-.7,0,0,.3-.7.2-.7h0c0-.2,0-.2,0-.3h0s-.3.2-.3.2c-.2.1-.5.1-.8.1,0,0,0,0,0,0-.2-.4,0-.4.8-.9.3-.2.5-.3.6-.4,0,0,1.3-.8,1.5-.9.1,0,.2-.1.4-.2h0ZM73.5,14.3c-.2.1-.4.3-.6.4l-.2.2s0,0,0,.1h0c0,.2.1.4.2.5v.4c0,.2-.1.4-.1.6,0,0,.3-.2.3-.2,0-.2.1-.6.3-.9,0-.2.2-.5.5-.9,0,0,0-.2,0-.2h-.2s0,0,0,0ZM108.7,10.2h.5c.2.2.3.3.4.4.1,0,.2.1.3.2.3.2.2.5,0,.7-.1.2-.4.3-.4.5.3,0,.4-.1.6-.2.3-.2.6-.3,1-.4.1,0,.2,0,.3-.1,0,0,0,0,0,0,.4-.2.5-.5,1-.4,1.2.2,1.3.5,1.5.8,0,.2,0,1,0,1.2,0,.1-.3.2-.4.3-.3.1-.9.5-1,.5-.1,0-.3.1-.4.2-.2.1-.8.6-.7.8,0,0,.5.4.5.4,0,0,.4.4.4.4,0,.6-.7.6-1.1,1.1,0,.1-.6.4-.3.5.2,0,.5,0,.7,0,.4,0,.6.2.9.5.1,0,.3,0,.3.2,0,.1,0,.2,0,.3h0c0,.1-1.4,1.1-1.8.8,0,0,0,0,0,0,0-.2,0-.4,0-.6,0,0-.2-.2-.3-.2,0,0-.1,0-.2,0-.3.2-.4.5-.3.8,0,0,.2,2.6.2,2.8,0,0,.2.9.2.9,0,.2,0,.3.1.5v.2c-.1.3-.1.5-.4.7h-.2c-.1,0-.3.2-.4.2-.7,0-1.1-.3-1.8-.4-.2,0-.7-.1-.9-.3,0,0,0-.1,0-.2h.4c0,0,.2,0,.2,0,.6,0,1.1-.2,1.1-.2,0,0,.3-.4.3-.6,0-1.2,0-2.9-.2-3.4,0,0-.1-.2-.1-.2h0c0,0-.2.1-.3.2-.8.5-1.8,1.5-2.2,1.9-.2.2-.5.6-1,.7-.4,0-.8-.1-1.1-.3,0,0-.6-.4-.9-.5-.1,0-.1-.4-.1-.4,0,0,0-.1.2-.2.2,0,.8-.2,1-.3.5-.2,1.9-.9,2-.9,0,0,2.6-1.4,2.6-1.4,0,0,.3-.4.3-.4,0,0,.4-.8.5-1,0-.1.1-.4-.1-.4-.4,0-.6.3-1,.5,0,0-.8.6-1.5.8-.1,0-.3,0-.5,0,0,0-.5-.1-.5-.3,0,0,.4-.4.4-.4,0,0,1.3-.5,1.3-.5,0,0,1.3-.7,1.3-.7.2,0,.6-.3,1-.5,0,0,.3-.4.3-.4.3-.5.9-1.6,1-1.6v-.2c0,0,.2-.2.2-.2,0,0,0-.4,0-.5,0,0-.2-.1-.3-.1-.2,0-1.1.4-1.3.5,0,0-.1.2-.1.3,0,0,0,0,0,0,0,0,.4.8.5,1.1v.2c0,0,0,.1,0,.1l-.3.4c0,0-.5.3-.5.4h-.4c-.4.2-1.2,0-1.4-.5,0-.1-.1-.7.3-1.7,0,0,0,0,0,0h0c0,0-.2,0-.2,0h-.1c0,0-.4.4-.4.4l-.3.2h0c0,.1.1.6.1.6,0,0,.1.2.1.2v.2c.3.2.4.6.2.9,0,0,0,0,0,0-.6.3-1-.6-1.4-.4,0,0,0,0,0,0,0,0,0,.1,0,.2,0,.2.1.6-.2.6-.3,0-.4-.2-.6-.4,0,0,0-.1-.1-.2,0,0-.2-.5-.3-.6,0,0,0,0,0,0l-.2-.4c0-.2,0-.3-.2-.5,0,0,0-.1-.1-.2-.3-.3-.8-.9-.2-.9,0,0,.5.2.6.3.1,0,.6.5.8.5,0,0,0,0,0,0,0,0,0,0,0-.1,0,0,0-.2-.1-.3,0-.1-.1-.2-.2-.3-.6-.8-.8-1-.9-1.1-.2-.2-.5-.5-.4-.7,0,0,0,0,0,0h0c.1,0,1.3.6,1.3.6,0,0,.4.3.4.3,0,0,.2.2.2.2,0,.2.2.3.3.4,0,0,.1.2.2.2,0,0,0,.1.2.2,0,0,.1,0,.2,0,0-.1.1-.2.3-.3,0,0,.3-.3.4-.4,0,0,0-.2,0-.2-.1,0-.2-.1-.3-.2-.1,0-.5-.1-.5-.4,0-.1,0-.2,0-.3,0,0,.3,0,.5,0,0,0,.7.1.9,0,0,0,.3-.4.3-.5,0,0,0-.4,0-.5,0,0,.1-.2.2-.2h0ZM109,13.5c0,0,0,.5,0,.5-.1.2.1.4.3.4h0s.2-.3.2-.3h0c0-.3,0-.5-.4-.6ZM94.6,12.5c.1,0,.3,0,.4,0,.1.1.5.3.5.3.2.2,1,.8,1.1,1.1,0,0,0,.3,0,.4-.2.2-.2,1.3-.3,1.5-.1.4-.2.9,0,1,0,0,.2,0,.2,0,.4-.3.8-.6,1.2-.9,0,0,.5,0,.6,0h.1c.3-.1.5.3.7.3,0,.1,0,.2,0,.3-.1,0-1.6.8-1.7.9-.3.3-.6.4-1.2.8-.2.1-.4,1.2-.5,1.4-.6,1.4-1.1,2.5-2.1,3-.2,0-.5.3-.7.3,0,0-.6.3-.8.3-.1,0-.4,0-.6,0-.3,0-.8,0-1,0,0,0-.1,0,0-.2,0,0,.2,0,.6-.3.1,0,.4-.2.5-.2,0,0,.2-.1.2-.1,1.4-.7,2.1-1.9,2.1-1.9,0,0,.3-.7.3-.7,0,0,0,0,0,0h0s0,0,0,0c0,0-.2,0-.3,0-.1,0-1.2,1-1.2.9-.3.2-.6.3-1.2,0,0,0,0,0,0,0,0-.1-.8-.6-1.2-.8,0,0,0-.2,0-.3.1-.1.2-.2.4-.2,0,0,1.2-.4,1.2-.4.2,0,2.7-1.2,2.8-1.6,0,0,0,0,0,0,.4-2,0-3.8-.1-4.3,0-.2.1-.9.2-.9h0Z"/>
      <path class="cls-3" d="M96.2,19c.2,0,.3,0,.6.3,0,0,0,.2.1.2,0,.1,1.1,1.4,1.6,1.7.3.2,1.4.7,2.4.7,0,0,.2.1.2.1,0,.1-.2.3-.2.3-.2,0-1.2.4-1.4.5-.4.1-.9.5-1.1.4-.5-.2-.7-.6-.8-.7-.2-.3-1.5-3.1-1.5-3.1,0-.1,0-.3.1-.4Z"/>
      <path class="cls-6" d="M41.4,27h0c0,0,0,0-.1.1,0,0,0,0,0,0,0,0,0,.1-.1.3l-.8,2h0l-.6-1.5-.7,1.5h0l-.8-2c0-.1-.1-.2-.2-.4,0,0,0,0-.2,0h0c0,0,1,0,1,0h0c0,0-.1,0-.2.1,0,0,0,0,0,0,0,0,0,.1,0,.3l.5,1.2.4-.9v-.3c-.1,0-.2-.2-.2-.3,0,0,0,0-.1,0,0,0-.1,0-.2,0h0c0,0,1.2,0,1.2,0h0c0,0-.1,0-.2,0,0,0,0,0,0,.1,0,0,0,.1,0,.2l.4,1.1.4-1c0,0,0-.1,0-.2,0,0,0,0,0-.1,0,0,0,0,0-.1,0,0,0,0-.2,0h0c0,0,.6,0,.6,0h0ZM41.6,27h1.2c0,0,0,0,0,0,0,0-.1,0-.2,0,0,0,0,0,0,0,0,0,0,.2,0,.3v1.2c0,.2,0,.4,0,.4,0,0,0,.1.2.2,0,0,.2,0,.3,0,.1,0,.2,0,.3,0,0,0,.2-.1.2-.2,0-.1,0-.3,0-.5v-1c0,0,0-.2,0-.2,0,0,0,0,0,0,0,0-.1,0-.2,0h0c0,0,.8,0,.8,0h0c0,0,0,0,0,0,0,0-.1,0-.2,0,0,0,0,0,0,.1,0,0,0,.1,0,.2v.9c0,.3,0,.5,0,.6,0,.1-.1.3-.3.3-.1.1-.3.2-.6.2s-.4,0-.5,0c-.1,0-.3-.2-.3-.3,0-.1-.1-.3,0-.5v-1.2c0,0,0-.2,0-.3,0,0,0,0,0,0,0,0-.1,0-.2,0h0ZM45.2,28.3v.7c0,.1,0,.2,0,.2,0,0,0,0,0,0,0,0,0,0,.2,0h0c0,0-1.3,0-1.3,0h0c0,0,0,0,0,0,0,0,.1,0,.2,0,0,0,0,0,0,0,0,0,0-.1,0-.2v-1.6c0,0,0-.2,0-.2,0,0,0,0,0,0,0,0-.1,0-.2,0h0c0,0,1.3,0,1.3,0h0c0,0,0,0,0,0,0,0-.1,0-.2,0,0,0,0,0,0,0,0,0,0,.1,0,.2v.7h.8v-.7c0,0,0-.2,0-.2,0,0,0,0,0,0,0,0-.1,0-.2,0h0c0,0,1.2,0,1.2,0h0c0,0,0,0,0,0,0,0-.1,0-.2,0,0,0,0,0,0,0,0,0,0,.1,0,.2v1.6c0,.1,0,.2,0,.2,0,0,0,0,0,0s0,0,.2,0h0c0,0-1.2,0-1.2,0h0c0,0,0,0,0,0,0,0,.1,0,.2,0,0,0,0,0,0,0,0,0,0-.1,0-.2v-.7h-.8,0ZM48.5,28.6l-.4-.8-.4.8h.7ZM48.6,28.7h-.8v.2c-.1,0-.1.1-.1.2,0,0,0,.1,0,.1,0,0,.1,0,.2,0h0c0,0-.8,0-.8,0h0c0,0,.2-.1.2-.2,0,0,.1-.2.2-.4l.9-1.9h0l.9,2c0,.2.2.3.2.3,0,0,0,0,.2,0h0c0,0-1.2,0-1.2,0h0c0,0,0,0,0,0,0,0,.2,0,.2,0,0,0,0,0,0,0,0,0,0,0,0,0,0,0,0,0,0-.1,0,0-.1-.3-.1-.3ZM50.7,27l1.2,1.5v-1c0-.1,0-.2,0-.3,0,0-.2-.1-.3,0h0c0,0,.8,0,.8,0h0c0,0-.1,0-.2.1,0,0,0,0,0,.1,0,0,0,.2,0,.2v2h0l-1.6-2v1.5c0,.1,0,.2,0,.3,0,0,.1,0,.2,0h0c0,0-.8,0-.8,0h0c.1,0,.2,0,.3-.1,0,0,0-.1,0-.3v-1.7h0c0-.1,0-.2-.1-.2,0,0-.1,0-.2,0h0c0,0,.8,0,.8,0h0ZM54.5,27h1.2c0,0,0,0,0,0,0,0-.1,0-.2,0,0,0,0,0,0,0,0,0,0,.2,0,.3v1.2c0,.2,0,.4,0,.4,0,0,0,.1.2.2,0,0,.2,0,.3,0,.1,0,.2,0,.3,0,0,0,.2-.1.2-.2,0-.1,0-.3,0-.5v-1c0,0,0-.2,0-.2,0,0,0,0,0,0,0,0-.1,0-.2,0h0c0,0,.8,0,.8,0h0c0,0,0,0,0,0,0,0-.1,0-.2,0,0,0,0,0,0,.1,0,0,0,.1,0,.2v.9c0,.3,0,.5,0,.6,0,.1-.1.2-.3.3-.1.1-.3.2-.6.2s-.4,0-.5,0c-.1,0-.3-.2-.3-.3,0-.1-.1-.3,0-.5v-1.2c0,0,0-.2,0-.3,0,0,0,0,0,0,0,0-.1,0-.2,0h0ZM58.1,27l1.2,1.5v-1c0-.1,0-.2,0-.3,0,0-.2-.1-.3,0h0c0,0,.8,0,.8,0h0c0,0-.1,0-.2.1,0,0,0,0,0,.1,0,0,0,.2,0,.2v2h0l-1.6-2v1.5c0,.1,0,.2,0,.3,0,0,.1,0,.2,0h0c0,0-.8,0-.8,0h0c.1,0,.2,0,.3-.1,0,0,0-.1,0-.3v-1.7h0c0-.1,0-.2-.1-.2,0,0-.1,0-.2,0h0c0,0,.8,0,.8,0h0ZM61.2,29.4h0c0,0-1.3,0-1.3,0h0c0,0,0,0,0,0,0,0,.1,0,.2,0,0,0,0,0,0,0,0,0,0-.1,0-.2v-1.6c0,0,0-.2,0-.2,0,0,0,0,0,0,0,0-.1,0-.2,0h0c0,0,1.3,0,1.3,0h0c0,0,0,0,0,0,0,0-.1,0-.2,0,0,0,0,0,0,0,0,0,0,.1,0,.2v1.6c0,.1,0,.2,0,.2,0,0,0,0,0,0,0,0,0,0,.2,0h0ZM63.9,27h0c0,0-.2.1-.2.2,0,0-.1.2-.2.4l-.8,1.8h0l-.8-1.9c0-.2-.2-.4-.2-.4s0,0-.2,0h0c0,0,1.1,0,1.1,0h0c0,0,0,0,0,0-.1,0-.2,0-.2,0,0,0,0,0,0,0,0,0,0,0,0,0,0,0,0,.1,0,.2l.5,1.2.5-1.1c0-.1,0-.2.1-.3,0,0,0,0,0-.1,0,0,0,0,0,0,0,0,0,0,0,0,0,0-.1,0-.2,0h0c0,0,.8,0,.8,0h0ZM65,27.2v1h0c.2,0,.3,0,.3-.1,0,0,.1-.2.1-.4h0v1.3h0c0-.1,0-.2,0-.3,0,0,0-.1-.2-.2,0,0-.2,0-.3,0v.7c0,.1,0,.2,0,.2,0,0,0,0,0,0,0,0,0,0,.1,0h.1c.2,0,.4,0,.5-.2.1-.1.2-.3.3-.5h0v.8h-2.2c0,0,0,0,0,0,0,0,.1,0,.2,0,0,0,0,0,0,0,0,0,0-.1,0-.2v-1.6c0-.1,0-.2,0-.2,0,0,0,0,0,0,0,0-.1,0-.2,0h0c0,0,2,0,2,0v.7h0c0-.2,0-.3-.1-.4,0,0-.2-.1-.3-.2-.1,0-.2,0-.4,0h-.2,0ZM67.5,27.2v1.1h0c.2,0,.3,0,.4,0,0,0,.1,0,.2-.2,0,0,0-.2,0-.3,0-.2,0-.3-.1-.4,0,0-.2-.1-.4-.1h-.2,0ZM67.5,28.3v.7c0,.1,0,.2,0,.2,0,0,0,0,0,0,0,0,.1,0,.2,0h0c0,0-1.2,0-1.2,0h0c.1,0,.2,0,.2,0,0,0,0,0,0,0,0,0,0-.2,0-.2v-1.6c0,0,0-.2,0-.2,0,0,0,0,0,0,0,0-.1,0-.2,0h0c0,0,1.1,0,1.1,0,.3,0,.5,0,.6,0s.2.1.3.2c0,.1.1.2.1.4,0,.2,0,.3-.2.4,0,0-.2.1-.3.2l.6.8c0,.1.1.2.2.2,0,0,.1,0,.2,0h0c0,0-.8,0-.8,0l-.8-1.1h-.2ZM71,27v.8s0,0,0,0c0-.2-.1-.4-.3-.5-.1-.1-.3-.2-.4-.2-.1,0-.2,0-.3,0,0,0-.1.1-.1.2,0,0,0,0,0,.1,0,0,0,.1.2.2,0,0,.2.1.4.2.3.1.5.3.6.4,0,.1.1.3.1.4,0,.2,0,.4-.2.5-.2.1-.4.2-.6.2,0,0-.1,0-.2,0,0,0-.2,0-.3,0,0,0,0,0-.1,0,0,0,0,0,0,0,0,0,0,0,0,.1h0v-.9h0c0,.3.2.4.3.6.1.1.3.2.5.2.1,0,.2,0,.3-.1,0,0,.1-.2.1-.3,0,0,0-.1,0-.2,0,0,0-.1-.1-.2-.1,0-.2-.1-.3-.2-.2,0-.3-.2-.5-.3,0,0-.2-.2-.2-.3,0,0,0-.2,0-.3,0-.2,0-.4.2-.5.1-.1.3-.2.5-.2.1,0,.3,0,.4.1,0,0,.1,0,.2,0s0,0,0,0c0,0,0,0,0-.1,0,0,0,0,0,0ZM72.7,29.4h0c0,0-1.3,0-1.3,0h0c0,0,0,0,0,0,0,0,.1,0,.2,0,0,0,0,0,0,0,0,0,0-.1,0-.2v-1.6c0-.1,0-.2,0-.2,0,0,0,0,0,0,0,0-.1,0-.2,0h0c0,0,1.3,0,1.3,0h0c0,0,0,0,0,0,0,0-.1,0-.2,0,0,0,0,0,0,0,0,0,0,.1,0,.2v1.6c0,.1,0,.2,0,.2,0,0,0,0,0,0,0,0,0,0,.2,0h0ZM75.1,27v.6h0c0-.1,0-.2-.1-.3,0,0-.1-.1-.2-.2,0,0-.2,0-.2,0h-.2v1.8c0,.1,0,.2,0,.2,0,0,0,0,0,0,0,0,0,0,.2,0h0c0,0-1.3,0-1.3,0h0c0,0,0,0,0,0,0,0,.1,0,.2,0,0,0,0,0,0,0,0,0,0-.1,0-.2v-1.8h-.2c-.2,0-.3,0-.4.1-.1.1-.2.3-.2.4h0v-.6h2.2,0ZM77.9,27h0c0,0-.1,0-.2.1,0,0-.2.2-.3.4l-.5.9v.6c0,.1,0,.2,0,.2,0,0,0,0,0,0,0,0,0,0,.2,0h.1c0,0-1.3,0-1.3,0h0c0,0,.1,0,.1,0,0,0,.1,0,.2,0,0,0,0,0,0,0,0,0,0-.1,0-.2v-.5l-.6-1c-.1-.2-.2-.3-.2-.4,0,0-.1,0-.2,0h0c0,0,1.1,0,1.1,0h0c0,0,0,0,0,0,0,0-.1,0-.1,0s0,0,0,0c0,0,0,.1.1.3l.4.8.4-.7c.1-.2.2-.3.2-.3s0,0,0,0c0,0-.1,0-.2,0h0c0,0,.7,0,.7,0ZM81.3,27.1c-.2,0-.4.1-.5.3,0,.2-.1.4-.1.8s0,.7.2.9c0,.1.2.2.4.2s.2,0,.3,0c.1,0,.2-.2.2-.4,0-.2,0-.4,0-.6s0-.6,0-.7c0-.2-.1-.3-.2-.3,0,0-.2,0-.3,0ZM81.3,27c.4,0,.7,0,.9.3.2.2.4.5.4.9s0,.6-.3.8c-.2.3-.6.5-1,.5s-.8-.1-1-.4c-.2-.2-.3-.5-.3-.8,0-.4.1-.7.4-.9.2-.2.5-.3.9-.3ZM83.8,27.2v1h0c0,0,.2,0,.3,0,0,0,.1,0,.2-.2,0,0,0-.2,0-.3h0v1.2h0c0-.2,0-.4-.2-.4,0,0-.2-.1-.3-.1h0v.7c0,.1,0,.2,0,.2,0,0,0,0,0,0,0,0,0,0,.2,0h0c0,0-1.3,0-1.3,0h0c0,0,0,0,0,0,0,0,.1,0,.2,0,0,0,0,0,0,0,0,0,0-.1,0-.2v-1.6c0,0,0-.2,0-.2,0,0,0,0,0,0,0,0-.1,0-.2,0h0c0,0,2,0,2,0v.7h0c0-.2,0-.3-.1-.4,0,0-.2-.1-.3-.2-.1,0-.3,0-.4,0h-.2ZM89.2,27v.6h0c0-.1,0-.2-.1-.3,0,0-.1-.1-.2-.2,0,0-.2,0-.2,0h-.2v1.8c0,.1,0,.2,0,.2,0,0,0,0,0,0,0,0,0,0,.2,0h0c0,0-1.3,0-1.3,0h0c0,0,0,0,0,0,0,0,.1,0,.2,0,0,0,0,0,0,0,0,0,0-.1,0-.2v-1.8h-.2c-.2,0-.3,0-.3.1-.1.1-.2.3-.2.4h0v-.6h2.2,0ZM90.4,27.2v1h0c.2,0,.3,0,.3-.1s.1-.2.1-.4h0v1.3h0c0-.1,0-.2,0-.3,0,0,0-.1-.2-.2,0,0-.2,0-.3,0v.7c0,0,0,.2,0,.2,0,0,0,0,0,0,0,0,0,0,.1,0h.1c.2,0,.4,0,.5-.2.1-.1.2-.3.3-.5h0v.8h-2.2c0,0,0,0,0,0,0,0,.1,0,.2,0,0,0,0,0,0,0,0,0,0-.1,0-.2v-1.6c0,0,0-.1,0-.2,0,0,0,0,0,0,0,0-.1,0-.2,0h0c0,0,2,0,2,0v.7h0c0-.2,0-.3-.1-.4,0,0-.2-.1-.3-.2-.1,0-.2,0-.4,0h-.2,0ZM94.3,27v.8h0c0-.2-.1-.4-.3-.5-.3-.3-.8-.2-1,0,0,0,0,.1-.1.2,0,.2-.1.4-.1.6,0,.2,0,.4,0,.6,0,.2.1.3.3.4.1,0,.3.1.4.1s.3,0,.4,0c.2,0,.3-.2.4-.3v.2c-.1.1-.3.2-.4.3-.2,0-.3,0-.5,0-.2,0-.5,0-.7-.2-.2,0-.4-.3-.5-.4-.1-.2-.2-.4-.2-.6,0-.2,0-.4.2-.7.2-.4.7-.6,1.1-.6.2,0,.3,0,.5.1,0,0,.1,0,.2,0,0,0,0,0,0,0,0,0,0,0,0-.1h0,0ZM95.6,28.3v.7c0,.1,0,.2,0,.2,0,0,0,0,0,0s0,0,.2,0h0c0,0-1.3,0-1.3,0h0c0,0,0,0,0,0,0,0,.1,0,.2,0,0,0,0,0,0,0,0,0,0-.1,0-.2v-1.6c0,0,0-.2,0-.2,0,0,0,0,0,0,0,0-.1,0-.2,0h0c0,0,1.3,0,1.3,0h0c0,0,0,0,0,0,0,0-.1,0-.2,0,0,0,0,0,0,0,0,0,0,.1,0,.2v.7h.8v-.7c0,0,0-.2,0-.2,0,0,0,0,0,0,0,0-.1,0-.2,0h0c0,0,1.2,0,1.2,0h0c0,0,0,0,0,0,0,0-.1,0-.2,0,0,0,0,0,0,0,0,0,0,.1,0,.2v1.6c0,.1,0,.2,0,.2,0,0,0,0,0,0s0,0,.2,0h0c0,0-1.2,0-1.2,0h0c0,0,0,0,0,0,0,0,.1,0,.2,0,0,0,0,0,0,0,0,0,0-.1,0-.2v-.7h-.8ZM98.4,27l1.2,1.5v-1c0-.1,0-.2,0-.3,0,0-.2-.1-.3,0h0c0,0,.8,0,.8,0h0c0,0-.1,0-.2.1,0,0,0,0,0,.1,0,0,0,.2,0,.2v2h0l-1.6-2v1.5c0,.1,0,.2,0,.3,0,0,.1,0,.2,0h0c0,0-.8,0-.8,0h0c.1,0,.2,0,.3-.1,0,0,0-.1,0-.3v-1.7h0c0-.1,0-.2-.1-.2,0,0-.1,0-.2,0h0c0,0,.8,0,.8,0h0ZM101.6,27.1c-.2,0-.4.1-.5.3,0,.2-.1.4-.1.8s0,.7.2.9c0,.1.2.2.4.2s.2,0,.3,0c.1,0,.2-.2.2-.4,0-.2,0-.4,0-.6s0-.6,0-.7-.1-.3-.2-.3c0,0-.2,0-.3,0ZM101.6,27c.4,0,.7,0,.9.3.2.2.4.6.4.9,0,.3,0,.6-.3.8-.2.3-.6.5-1,.5s-.8-.1-1-.4c-.2-.2-.3-.5-.3-.8,0-.4.1-.7.4-.9.2-.2.5-.3.9-.3ZM105.4,28.6v.8h-2.2c0,0,0,0,0,0,0,0,.1,0,.2,0,0,0,0,0,0,0,0,0,0-.1,0-.2v-1.6c0,0,0-.2,0-.2,0,0,0,0,0,0,0,0-.1,0-.2,0h0c0,0,1.3,0,1.3,0h0c0,0-.1,0-.1,0,0,0-.1,0-.2,0,0,0,0,0,0,0,0,0,0,.1,0,.2v1.5c0,.1,0,.2,0,.2,0,0,0,0,0,0,0,0,.1,0,.2,0h.2c.1,0,.2,0,.3,0,0,0,.2-.1.2-.2,0,0,.1-.2.2-.4,0,0,0,0,0,0ZM107,27.1c-.2,0-.4.1-.5.3,0,.2-.1.4-.1.8s0,.7.2.9c0,.1.2.2.4.2s.2,0,.3,0c.1,0,.2-.2.2-.4,0-.2,0-.4,0-.6s0-.6,0-.7-.1-.3-.2-.3c0,0-.2,0-.3,0ZM107,27c.4,0,.7,0,.9.3.2.2.4.6.4.9,0,.3,0,.6-.3.8-.2.3-.6.5-1,.5s-.8-.1-1-.4c-.2-.2-.3-.5-.3-.8,0-.4.1-.7.4-.9.2-.2.5-.3.9-.3ZM111,27v.8h0c0-.2-.2-.4-.4-.5-.1-.1-.3-.2-.5-.2-.2,0-.3,0-.4.2-.1.1-.2.3-.3.4,0,.2,0,.4,0,.6,0,.2,0,.4,0,.6,0,.2.1.3.3.4.1,0,.3.1.4.1,0,0,.1,0,.2,0,0,0,.1,0,.2,0v-.5c0,0,0-.1,0-.2,0,0,0,0,0,0,0,0,0,0-.1,0h0c0,0,1.2,0,1.2,0h0c0,0-.1,0-.2.1,0,0,0,0,0,0,0,0,0,.1,0,.2v.5c-.3.1-.6.2-1,.2-.2,0-.4,0-.6,0-.1,0-.3-.1-.4-.2-.1,0-.2-.2-.3-.3,0-.2-.1-.4-.1-.5,0-.4.1-.7.4-.9.3-.2.6-.4,1-.4.1,0,.2,0,.3,0,0,0,.1,0,.3,0s.2,0,.2,0c0,0,0,0,0,0,0,0,0,0,0-.1h0,0ZM114,27h0c0,0-.1,0-.2.1,0,0-.2.2-.3.4l-.5.9v.6c0,.1,0,.2,0,.2s0,0,0,0c0,0,0,0,.2,0h.1c0,0-1.3,0-1.3,0h0c0,0,.1,0,.1,0,0,0,.1,0,.2,0,0,0,0,0,0,0,0,0,0-.1,0-.2v-.5l-.6-1c-.1-.2-.2-.3-.2-.4,0,0-.1,0-.2,0h0c0,0,1.1,0,1.1,0h0c0,0,0,0,0,0,0,0-.1,0-.1,0s0,0,0,0c0,0,0,.1.1.3l.4.8.4-.7c.1-.2.2-.3.2-.3s0,0,0,0c0,0-.1,0-.2,0h0c0,0,.7,0,.7,0Z"/>
      <path class="cls-1" d="M34.1,19.5c0,5.5-4.4,10-9.9,10.1-5.5,0-10-4.4-10.1-9.9,0-5.5,4.4-10,9.9-10.1,5.5,0,10,4.4,10.1,9.9h0Z"/>
      <path class="cls-4" d="M30.9,19.5c0,3.8-3,6.8-6.8,6.8-3.8,0-6.8-3-6.8-6.8,0-3.8,2.9-6.9,6.7-6.9,3.8,0,6.9,2.9,6.9,6.7,0,0,0,0,0,.1h0Z"/>
      <path class="cls-5" d="M16.4,19.5h0s0,0,0,0c0,0,0,0,0,0,0,0,0,0-.1,0l-.8-.3h0s.6-.2.6-.2l-.6-.2h0s.8-.3.8-.3c0,0,0,0,.1,0,0,0,0,0,0,0,0,0,0,0,0,0h0v.4s0,0,0,0h0s0,0,0,0c0,0,0,0,0,0,0,0,0,0-.1,0l-.5.2.5.2h0s0,0,0,0c0,0,0,0,0,0,0,0,0,0,0,0,0,0,0,0,0,0,0,0,0,0,0,0h0v.4h0c0,0,0,0,0,0,0,0,0,0,0,0,0,0,0,0-.1,0l-.5.2.5.2s0,0,.1,0c0,0,0,0,0,0,0,0,0,0,0,0,0,0,0,0,0,0h0s0,.3,0,.3ZM16.5,20.2h0s0,.3,0,.3h0s0,0,0,0c0,0,0,0,0,0,0,0,0,0-.1,0h-.4c0,0-.2,0-.2,0,0,0-.1,0-.1,0,0,0,0-.1,0-.2,0,0,0-.2,0-.2,0,0,0,0,.1-.1,0,0,.2,0,.2,0h.4c0,0,0,0,.1,0,0,0,0,0,0,0h0s0,0,0,0v.4s0,0,0,0h0c0,0,0-.1,0-.1,0,0,0,0-.1,0h-.4s0,0-.1,0c0,0,0,0-.1,0,0,0,0,0,0,0,0,0,0,.2,0,.3,0,0,0,0,.1,0,0,0,.1,0,.2,0h.4c0,0,0,0,.1,0,0,0,0,0,0,0h0s0,0,0,0ZM16.2,20.9v.4c0,0,.3,0,.3,0,0,0,0,0,0,0,0,0,0,0,0,0,0,0,0,0,0,0h0s0,0,0,0v.4c0,0,0,0,0,0h0c0,0,0,0,0,0,0,0,0,0,0,0,0,0,0,0,0,0h-.6c0,.1,0,.1,0,.1,0,0,0,0,0,0,0,0,0,0,0,0h0s0,0,0,0v-.4c0,0,0,0,0,0h0c0,0,0,0,0,.1,0,0,0,0,.1,0h.3s0-.5,0-.5h-.3c0,0,0,0,0,0,0,0,0,0,0,0,0,0,0,0,0,0h0s0,0,0,0v-.4c0,0,0,0,0,0h0c0,0,0,0,0,.1,0,0,0,0,.1,0h.6c0-.1,0-.1,0-.1,0,0,0,0,0,0,0,0,0,0,0,0h0s0,0,0,0v.4c0,0,0,0,0,0h0c0,0,0,0,0,0,0,0,0,0,0,0,0,0,0,0,0,0h-.3s0,0,0,0ZM16.3,22.3v-.4c0,0-.3,0-.3,0,0,0,0,0,0,0,0,0,0,0,0,0,0,0,0,0,0,0h0s0-.3,0-.3h0s0,0,0,0c0,0,0,0,.2,0h.9c0,.1,0,.1,0,.1l-.7.5s0,0-.1.1c0,0,0,0,0,0h0s-.1-.4-.1-.4h0s0,0,0,0c0,0,0,0,0,0,0,0,0,0,0,0,0,0,.1,0,.1,0ZM16.4,22.3l.3-.3h-.4c0,0,0,.3,0,.3h0ZM16.9,22.4v.2c.1,0-.2.9-.2.9l.5-.3c0,0,0,0,0,0,0,0,0,0,0,0h0s0,0,0,0l.2.3h0s0,0,0,0c0,0,0,0,0,0,0,0,0,0,0,0l-.7.4h0s.4-.9.4-.9l-.5.3c0,0,0,0,0,0,0,0,0,0,0,0h0s0,0,0,0l-.2-.3h0s0,0,0,0c0,0,0,0,0,0,0,0,0,0,0,0l.6-.3s0,0,0,0c0,0,0,0,0,0,0,0,0,0,0,0h0ZM18.1,24.4h0s.2.2.2.2h0s0,0,0,0c0,0,0,0,0,0,0,0,0,0,0,0l-.3.3c0,0-.1,0-.2.1,0,0-.1,0-.2,0,0,0-.1,0-.2-.1,0,0,0-.1-.1-.2,0,0,0-.1,0-.2,0,0,.1-.1.2-.2l.3-.2s0,0,0,0c0,0,0,0,0,0h0s0,0,0,0l.3.3h0s0,0,0,0c0,0,0,0,0,0,0,0,0,0,0,0l-.3.3s0,0,0,0c0,0,0,0,0,.1,0,0,0,0,0,.1,0,0,.1.2.2.2,0,0,.1,0,.1,0,0,0,.1,0,.2-.1l.3-.3s0,0,0,0c0,0,0,0,0,0h0s0,0,0,0ZM18.3,24.7l.2.2v.9c0,0,.3-.4.3-.4,0,0,0,0,0,0s0,0,0,0h0s0,0,0,0l.2.2h0s0,0,0,0c0,0,0,0,0,0,0,0,0,0,0,0l-.5.6h0s0-1,0-1l-.4.4s0,0,0,0,0,0,0,0h0s0,0,0,0l-.2-.2h0s0,0,0,0c0,0,0,0,0,0,0,0,0,0,0,0l.5-.5s0,0,0,0c0,0,0,0,0,0,0,0,0,0,0,0h0ZM18.8,26.4h0s-.3-.2-.3-.2h0s0,0,0,0c0,0,0,0,0,0,0,0,0,0,0,0l.4-.5s0,0,0,0c0,0,0,0,0,0,0,0,0,0,0,0h0s0,0,0,0l.3.2h0s0,0,0,0c0,0,0,0,0,0,0,0,0,0,0,0l-.4.5s0,0,0,0c0,0,0,0,0,0,0,0,0,0,0,0h0s0,0,0,0ZM20.3,26.2h0s0,0,0,0c0,0,0,0-.1,0l-.7.5h0s.1-.9.1-.9c0,0,0,0,0,0,0,0,0,0,0,0,0,0,0,0,0,0h0s.3.2.3.2h0s0,0,0,0c0,0,0,0,0,0,0,0,0,0,0,.1v.6c0,0,.4-.4.4-.4,0,0,0,0,0,0,0,0,0,0,0,0,0,0,0,0,0,0h0s0,0,0,0c0,0,.3.2.3.2ZM20.5,26.4l-.2.3h.2c0,.1,0,.1.1.1,0,0,0,0,0,0h0s-.1.3-.1.3h0s0,0,0-.1c0,0,0,0,0,0,0,0,0,0,0,0h-.2c0,0-.1.2-.1.2,0,0,0,0,0,0,0,0,0,0,0,0,0,0,0,0,0,0h.1c0,0,0,0,.1.1,0,0,0,0,0,0,0,0,0,0,.1,0h0s-.2.2-.2.2l-.7-.3h0s0,0,0,0c0,0,0,0,0,0,0,0,0,0,0,0,0,0,0,0,0,0l.3-.6c0,0,0,0,0-.1,0,0,0,0,0,0h0s0,0,0,0l.7.3v.2c0,0-.1,0-.1,0,0,0,0,0,0-.1,0,0,0,0,0,0,0,0,0,0,0,0h-.2c0-.1,0-.1,0-.1ZM21.6,27.8h-.2c0,0-.2-.6-.2-.6h0s0,0,0,0h0s0,.3,0,.3c0,0,0,0,0,.1,0,0,0,0,0,0h0s0,0,0,0h-.4c0-.1,0-.2,0-.2h0s0,0,0,0c0,0,0,0,0,0l.2-.6c0,0,0,0,0-.1,0,0,0,0,0,0h0s0,0,0,0h.3c0,.1.1.2.2.2,0,0,0,0,0,.1,0,0,0,.1,0,.2,0,0,0,.1-.1.1,0,0-.1,0-.2,0v.3c.1,0,.1.1.2.2,0,0,0,0,.1,0,0,0,0,0,0,0ZM21.1,27.1s0,0,0,0c0,0,0,0,0,0,0,0,.2,0,.2,0,0,0,0,0,.1-.1,0,0,0-.1,0-.2,0,0,0,0-.1-.1,0,0,0,0-.1,0,0,0-.1.4-.1.4ZM22.6,27v.3c0,0-.1,0-.1,0,0,0,0-.1,0-.2,0,0,0,0,0-.1,0,0,0,0-.1,0,0,0,0,0-.1,0,0,0,0,0,0,0,0,0,0,0,0,0,0,0,0,.1.2.2,0,0,.1.1.2.2,0,0,0,0,0,.1,0,0,0,0,0,.1,0,0,0,.1-.1.2,0,0-.2,0-.2,0,0,0,0,0,0,0,0,0,0,0,0,0,0,0,0,0,0,0,0,0,0,0,0,0,0,0,0,0,0,0h0s0-.3,0-.3h0c0,0,0,.1,0,.2,0,0,0,0,0,.1,0,0,0,0,.1,0,0,0,.1,0,.1,0,0,0,0,0,0,0,0,0,0,0,0,0,0,0,0,0,0,0,0,0,0,0-.1-.1,0,0,0,0-.1-.1,0,0,0,0,0-.1,0,0,0,0,0-.1,0,0,0-.1.1-.2,0,0,.1,0,.2,0,0,0,.1,0,.1,0,0,0,0,0,0,0,0,0,0,0,0,0,0,0,0,0,0,0,0,0,0,0,0,0ZM23,28h0s-.4,0-.4,0h0s0,0,0,0c0,0,0,0,0,0,0,0,0,0,0-.1v-.6c0,0,0,0,0,0,0,0,0,0,0,0,0,0,0,0,0,0h0s0,0,0,0h.4c0,0,0,0,0,0h0s0,0,0,0c0,0,0,0,0,.1v.6c0,0,0,0,0,0,0,0,0,0,0,0,0,0,0,0,0,0h0ZM23.9,27.2v.2h0s0,0,0,0c0,0,0,0,0,0,0,0,0,0,0,0h-.1s0,.7,0,.7c0,0,0,0,0,.1,0,0,0,0,0,0h0s0,0,0,0h-.4s0,0,0,0h0s0,0,0,0c0,0,0,0,0-.1v-.7s0,0,0,0c0,0,0,0,0,0,0,0,0,0,0,0,0,0,0,0,0,.1h0s0-.2,0-.2c0,0,.8,0,.8,0ZM24.7,27.2h.3s0,0,0,0h0s0,0-.1,0c0,0,0,0,0,.1l-.2.4v.2c0,0,0,0,0,.1,0,0,0,0,0,0h0s-.4,0-.4,0h0s0,0,0,0c0,0,0,0,0,0,0,0,0,0,0-.1v-.2s-.3-.4-.3-.4c0,0,0,0,0,0,0,0,0,0,0,0,0,0,0,0,0,0h0s.4,0,.4,0h0s0,0,0,0c0,0,0,0,0,0,0,0,0,0,0,0,0,0,0,0,0,0l.2.3.2-.3s0,0,0-.1c0,0,0,0,0,0,0,0,0,0,0,0,0,0,0,0,0,0h0s0,0,0,0ZM26,26.9c.1,0,.2,0,.3,0,.1,0,.2.2.2.3,0,.1,0,.3,0,.4,0,.1-.2.2-.3.2-.1,0-.3,0-.4,0-.1,0-.2-.2-.2-.3,0-.1,0-.3,0-.4,0-.1.2-.2.3-.2ZM26,27c0,0-.1,0-.2.1,0,0,0,.2,0,.4,0,.2,0,.3.2.3,0,0,.1,0,.2,0,0,0,.2,0,.2-.2,0,0,0-.2,0-.3,0-.2,0-.3-.2-.3,0,0-.2,0-.2,0ZM26.8,26.7v.4c.1,0,.3,0,.3,0,0,0,0,0,0,0,0,0,0,0,0-.1h0s.1.3.1.3h0s0,0,0,0c0,0,0,0,0,0,0,0,0,0,0,0h-.2c0,0,0,.3,0,.3,0,0,0,0,0,0,0,0,0,0,0,0,0,0,0,0,0,0h0s0,0,0,0h-.4c0,.1,0,.1,0,.1h0s0,0,0,0c0,0,0,0,0-.1l-.2-.6s0,0,0,0c0,0,0,0,0,0,0,0,0,0,0,0h0s0,0,0,0l.7-.2v.2c0,0,0,0,0,0,0,0,0,0,0,0,0,0,0,0,0,0,0,0,0,0-.1,0h-.2c0,0,0,0,0,0ZM28.4,25.9v.2c.1,0,0,0,0,0,0,0,0,0,0,0,0,0,0,0,0,0,0,0,0,0,0,0h-.1c0,0,.4.7.4.7,0,0,0,0,0,0,0,0,0,0,0,0h0s0,0,0,0l-.4.2h0s0,0,0,0c0,0,0,0,0,0,0,0,0,0,0,0l-.4-.6h-.1c0,0,0,0,0,.1,0,0,0,0,0,0,0,0,0,0,0,.1h0s-.1-.2-.1-.2l.7-.4h0ZM28.7,25.7l.2.3h.2c0-.2,0-.2,0-.2,0,0,0,0,0-.1h0s.2.3.2.3h0s0,0,0,0c0,0,0,0,0,0,0,0,0,0,0,0h-.2c0,.1.2.4.2.4,0,0,0,0,0,0,0,0,0,0,0,0,0,0,0,0,0,0h.1c0-.1,0-.1,0-.2,0,0,0,0,0,0,0,0,0-.1,0-.2h0s0,.2,0,.2l-.6.4h0s0,0,0,0c0,0,0,0,0,0,0,0,0,0,0,0,0,0,0,0,0,0l-.4-.5c0,0,0,0,0,0,0,0,0,0,0,0h0s0,0,0,0l.6-.4v.2c.1,0,.1,0,.1,0,0,0,0,0,0,0,0,0,0,0,0,0,0,0,0,0,0,0l-.2.2h0ZM29.7,24.7l.2.2h0c0,0-.2,0-.2,0,0,0-.1,0-.2,0,0,0-.1.2,0,.3,0,0,0,.2.1.2,0,0,.1.1.2.1,0,0,.1,0,.2,0,0,0,.1,0,.2,0,0,0,0,0,0-.1,0,0,0-.1,0-.2h0c0,0,0,.2,0,.2,0,0,0,.1-.1.2-.1.1-.2.2-.4.1-.1,0-.2,0-.3-.2,0,0-.1-.1-.1-.2,0-.2,0-.5.3-.6,0,0,0,0,0,0,0,0,0,0,0,0,0,0,0,0,0,0,0,0,0,0,0,0ZM30.2,24.8l.3-.4-.2-.2s0,0,0,0c0,0,0,0,0,0,0,0,0,0,0,0h0s0,0,0,0l.2-.3h0s0,0,0,0c0,0,0,0,0,0,0,0,0,0,0,0,0,0,0,0,0,0l.5.4s0,0,0,0c0,0,0,0,0,0,0,0,0,0,0,0h0s0,0,0,0l-.2.3h0s0,0,0,0c0,0,0,0,0,0,0,0,0,0,0,0l-.2-.2-.3.4.2.2s0,0,0,0c0,0,0,0,0,0,0,0,0,0,0,0h0s0,0,0,0l-.2.3h0s0,0,0,0c0,0,0,0,0,0,0,0,0,0,0,0l-.5-.4s0,0,0,0c0,0,0,0,0,0,0,0,0,0,0,0h0s0,0,0,0l.2-.3h0s0,0,0,0c0,0,0,0,0,0,0,0,0,0,0,0,0,0,0,0,0,0l.2.2h0ZM30.3,23.9v-.2c.1,0,1-.2,1-.2l-.5-.3c0,0,0,0-.1,0,0,0,0,0,0,0h0s0,0,0,0l.2-.3h0s0,0,0,0c0,0,0,0,0,0,0,0,0,0,0,0l.7.4h0s-1,.2-1,.2l.5.3c0,0,0,0,.1,0,0,0,0,0,0,0h0s0,0,0,0l-.2.3h0s0,0,0,0c0,0,0,0,0,0,0,0,0,0,0,0l-.6-.3s0,0,0,0c0,0,0,0,0,0,0,0,0,0,0,0h0s0,0,0,0ZM30.9,22.5c0-.1.1-.2.3-.2.1,0,.3,0,.4,0,.1,0,.2.1.3.3,0,.1,0,.2,0,.4,0,.1-.1.2-.3.3-.1,0-.3,0-.4,0-.1,0-.2-.1-.3-.3,0-.1,0-.2,0-.3ZM31,22.5c0,0,0,.2,0,.2,0,0,.1.2.3.2.1,0,.3,0,.4,0,0,0,.1,0,.2-.2,0,0,0-.2,0-.2,0,0-.1-.1-.3-.2-.2,0-.3,0-.4,0,0,0-.1,0-.2.2ZM32,21.5h0s.2.1.2.1l-.2.7h0s0,0,0,0c0,0,0,0,0,0,0,0,0,0,0,0l-.6-.2c0,0,0,0-.1,0,0,0,0,0,0,0h0s0,0,0,0v-.4c.1,0,.1,0,.1,0,0,0,0,0,0,.1,0,0,0,0,0,0,0,0,0,0,.1,0l.6.2s0,0,0,0c0,0,0,0,0,0,0,0,0,0,0-.1h0c0-.1,0-.2,0-.2,0,0,0,0,0,0,0,0,0,0-.1-.1ZM31.4,20.7c0-.1,0-.2.2-.3.1,0,.2-.1.4,0,.1,0,.3,0,.3.2,0,.1.1.2,0,.4,0,.1,0,.2-.2.3-.1,0-.3,0-.4,0-.1,0-.3,0-.3-.2,0,0,0-.2,0-.3ZM31.5,20.7c0,0,0,.2,0,.2,0,0,.2.1.3.2.2,0,.3,0,.4,0,0,0,.1-.1.1-.2,0,0,0-.2,0-.2,0,0-.2-.1-.3-.1-.2,0-.3,0-.4,0,0,0-.1.1-.1.2ZM31.6,19.4h.3s0,0,0,0c0,0-.1,0-.2,0,0,0,0,.1,0,.2,0,.1,0,.2.1.3,0,0,.2,0,.3,0,0,0,.2,0,.3,0,0,0,.1,0,.2-.1,0,0,0-.2,0-.3,0,0,0,0,0,0h-.3s0,0,0,0c0,0,0,0,0,0,0,0,0,0,0,0h0s0-.4,0-.4h0c0,0,0,0,0,0,0,0,0,0,.1,0h.3c0,.1,0,.2,0,.4,0,.2,0,.3-.2.4-.2.1-.4.1-.6,0,0,0-.2-.1-.2-.2,0,0,0-.2,0-.3,0,0,0,0,0,0,0,0,0,0,0-.1,0,0,0,0,0,0,0,0,0,0,0,0,0,0,0,0,0,0h0s0,0,0,0ZM31.6,18.5v-.3s0,0,0,0h0s0,0,0,0c0,0,0,0,0,0,0,0,0,0,.1,0l.4.2h.2c0,0,0,0,.1,0,0,0,0,0,0,0h0s0,0,0,0v.4s0,0,0,0h0c0,0,0-.1,0-.1,0,0,0,0-.1,0h-.2s-.4.3-.4.3c0,0,0,0,0,0,0,0,0,0,0,0,0,0,0,0,0,0h0v-.4s0,0,0,0h0s0,0,0,0c0,0,0,0,0,0,0,0,0,0,0,0l.3-.2-.3-.2s0,0-.1,0c0,0,0,0,0,0,0,0,0,0,0,0,0,0,0,0,0,0h0Z"/>
      <path class="cls-5" d="M24,10.3c-2.4,0-4.8,1-6.5,2.7-1.7,1.7-2.7,4.1-2.7,6.5,0,2.4,1,4.8,2.7,6.5,1.7,1.7,4.1,2.7,6.5,2.7,2.4,0,4.8-1,6.5-2.7,1.7-1.7,2.7-4.1,2.7-6.5,0-2.4-1-4.8-2.7-6.5-1.7-1.7-4.1-2.7-6.5-2.7h0ZM17.2,12.8c1.8-1.8,4.2-2.8,6.8-2.9,2.6,0,5,1,6.8,2.8,1.8,1.8,2.8,4.2,2.9,6.8,0,2.6-1,5-2.8,6.8-1.8,1.8-4.2,2.8-6.8,2.9-2.6,0-5-1-6.8-2.8-1.8-1.8-2.8-4.2-2.9-6.8,0-2.6,1-5,2.8-6.8Z"/>
      <path class="cls-5" d="M24,13c-1.7,0-3.4.7-4.6,2-1.2,1.2-1.9,2.9-1.9,4.7,0,1.7.7,3.4,2,4.6,1.2,1.2,2.9,1.9,4.7,1.9,1.7,0,3.4-.7,4.6-1.9,1.2-1.2,1.9-2.9,1.9-4.7,0-1.7-.7-3.4-2-4.6-1.2-1.2-2.9-1.9-4.7-1.9ZM19.2,14.7c1.3-1.3,3-2,4.8-2,1.8,0,3.6.7,4.8,2,1.3,1.3,2,3,2,4.8,0,1.8-.7,3.5-2,4.8-1.3,1.3-3,2-4.8,2-1.8,0-3.6-.7-4.8-2-1.3-1.3-2-3-2-4.8,0-1.8.7-3.6,2-4.8Z"/>
      <path class="cls-1" d="M21.7,15.5l-.3.2-.3.2-.3.2-.3.2-.2.2-.2.2-.2.2-.2.2-.2.2-.2.2v.2c-.1,0-.2.2-.2.2v.2c-.1,0-.3.2-.3.2v.3c-.1,0-.2.3-.2.3v.3c0,0-.1.3-.1.3v.3c0,0,0,.3,0,.3v.3s0,.3,0,.3v.3s0,.3,0,.3v.2c0,0,.2.3.2.3v.3c.1,0,.2.2.2.2l.2.2.2.2.2.2.2.2h.3c0,.1.3.2.3.2h.3c0,0,.3,0,.3,0h.3s.3,0,.3,0h.3s.2,0,.2,0h.3c0,0,.2-.1.2-.1h.2c0,0,.3-.2.3-.2h.3c0-.1.2-.2.2-.2h.3c0-.1.3-.3.3-.3h-.3s-.3,0-.3,0h-.3s-.3,0-.3,0h-.3s-.2-.1-.2-.1h-.3c0,0-.2-.2-.2-.2h-.2c0-.1-.2-.3-.2-.3l-.2-.2v-.2c-.1,0-.3-.2-.3-.2v-.2c-.1,0-.2-.3-.2-.3v-.3c0,0-.1-.3-.1-.3v-.3s0-.3,0-.3v-.3s0-.3,0-.3v-.3s.1-.3.1-.3v-.3c0,0,.2-.4.2-.4v-.3c0,0,.2-.3.2-.3v-.3c.1,0,.2-.3.2-.3v-.2c.1,0,.4-.5.4-.5l.2-.4h0Z"/>
      <path class="cls-1" d="M26.6,14.2h-.4c0,.1-.4.3-.4.3h-.4c0,.1-.4.3-.4.3l-.4.2-.4.2-.4.2-.4.3-.3.3-.3.3-.3.3-.3.4-.3.4-.2.4-.2.4-.2.4v.3c-.1,0-.2.3-.2.3v.3s0,.3,0,.3v.4s0,.3,0,.3v.3c0,0,.2.3.2.3v.2c.1,0,.3.2.3.2l.2.2.2.2h.2c0,.1.2.2.2.2h.3c0,.1.3.2.3.2h.3s.3,0,.3,0h.3s.3,0,.3,0h.3s.3,0,.3,0h.3c0,0,.3-.1.3-.1h.3c0,0,.3-.2.3-.2h.3c0-.1.3-.2.3-.2h.2c0-.1.2-.2.2-.2h-.2s-.2,0-.2,0h-.3s-.3,0-.3,0h-.3c0,0-.3-.1-.3-.1h-.3c0-.1-.3-.3-.3-.3l-.3-.2-.2-.2v-.2c-.1,0-.3-.2-.3-.2v-.3c0,0-.2-.3-.2-.3v-.3s0-.3,0-.3v-.3s0-.3,0-.3v-.4c0,0,.2-.4.2-.4v-.4c.1,0,.3-.4.3-.4l.2-.3.2-.3.2-.3.2-.3.2-.3.2-.2.2-.2.2-.2.2-.2.3-.3h0Z"/>
      <path class="cls-1" d="M24,19.6h.1c0-.1.2-.3.2-.3h.2c0-.1.2-.3.2-.3h.2c0-.1.2-.2.2-.2h.2c0,0,.2-.2.2-.2h.2c0-.1.2-.2.2-.2h.2c0-.1.2-.2.2-.2h.2c0,0,.2-.2.2-.2h.2c0,0,.2-.2.2-.2h.3c0,0,.2-.2.2-.2h.2c0,0,.2-.1.2-.1h.2s.2,0,.2,0h.2s.2,0,.2,0h.2c0,0,.2.1.2.1h.2c0,.1.1.2.1.2v.2c.1,0,.2.2.2.2v.2c0,0,.2.2.2.2v.2c0,0,0,.2,0,.2v.2c.1.9-.1,1.8-.4,2.6l-.2.4v.2c0,0-.1.1-.1.1v.2c0,0-.2.1-.2.1h0c0,.1-.1.2-.1.2h-.1c0,0-.1.2-.1.2h-.2c0,0,0,0,0,0h0c0-.1,0-.3,0-.3h0c0-.1,0-.3,0-.3h0c0,0,0,.2,0,.2h0c0,.1,0,0,0,0h0c0,.1,0,.3,0,.3h0c0,.1,0,.3,0,.3v.2c0,0-.2.1-.2.1h-.1c0,.1,0,.2,0,.2h0s0,0,0,0h0c0,0,0,0,0,0v.2c-.1,0-.2.1-.2.1h-.1c0,.1-.1.2-.1.2h0c0,.1,0,0,0,0h0s0,.1,0,.1h0c0,.1,0,.2,0,.2h0c0,0,0-.2,0-.2h0c0-.1,0-.2,0-.2h0c0-.1,0-.2,0-.2h0c0,0,0-.2,0-.2h0s0,.1,0,.1h0c0,.1,0,.2,0,.2h0c0,.1,0,.2,0,.2h0c0,0,0,.2,0,.2h0c0,.1,0,0,0,0h0s0,.1,0,.1h0c0,.1,0,.2,0,.2h0c0,.1,0,.2,0,.2h0c0,.1-.1.2-.1.2h0c0,0,0,0,0,0h0c0,0,0-.2,0-.2h0c0,0,0-.1,0-.1h0c0,0,0-.2,0-.2h0s0,.1,0,.1h0c0,0,0,.2,0,.2h0c0,0-.1.2-.1.2h-.1c0,0,0,.2,0,.2h0c0,0,0,0,0,0h0s0,0,0,0h0s0,0,0,0h0s0,0,0,0h0c0,0,.1-.2.1-.2h0c0,0,.1-.2.1-.2h.1c0-.1.1-.3.1-.3v-.2c.1,0,.3-.1.3-.1h.1c0-.1.1-.3.1-.3h0c0-.1.1-.3.1-.3v-.2c.1,0,.2-.1.2-.1h0c0-.1,0-.3,0-.3h0c0-.1,0-.3,0-.3v-.2c0,0,.1-.2.1-.2v-.2s0-.2,0-.2h0c0-.1,0-.3,0-.3h0c0-.1,0-.3,0-.3v-.2s0-.1,0-.1v-.2s0-.1,0-.1v-.2c0,0-.1-.1-.1-.1v-.2c0,0-.2-.1-.2-.1h0c0-.1-.1-.3-.1-.3h-.1c0-.1-.1-.2-.1-.2h-.1c0,0-.1-.1-.1-.1h-.1c0,0-.2-.1-.2-.1h-.2s-.2,0-.2,0h-.2s-.2,0-.2,0h-.2s-.2,0-.2,0h-.2s-.2,0-.2,0h-.2s-.1,0-.1,0h-.1s-.1,0-.1,0h0Z"/>
      <path class="cls-2" d="M16.8,14.7s0,0,0,0c0,0,.1,0,.1,0,0,0,0,0,0,0,0,0,0,0,0,0,0,0,0,0,0,0,0,0,0,0,0,0,0,0,0,0,0,0,0,0,0,0,0,0,0,0,0,.1,0,.1,0,0,0,0,0,0,0,0,0,0,0,0t0,0s0,0,0,0h0s0,0,0,0c0,0,0,0,0,0,0,0,0,0,0,0h0s0,0,0,0h0ZM31.9,15.4h0c0,.1,0,.1,0,.2h0c0,0,0,.1,0,.1,0,0,0,0,0,0,0,0,0,0,0,0,0,0,0,0,0,0h0s0,0,0,0c0,0,0,0,0,0h0s0,0,0,0h0s0,0,0,0c0,0,0,0,0,0h0s0,0,0,0t0,0s0,0,0,0h0s0,.1,0,.1h0s0,0,0,0h0s0,0,0,0c0,0,0,0,0,0,0,0,0,0,0,0h0s0,0,0,0c0,0,0,0,0,0,0,0,0,0,0,0,0,0,0,0,0,0h0s0,0,0,0c0,0-.1.1-.1.1,0,0,0,0,0,0,0,0-.1,0-.1,0,0,0,0,0,0,0,0,0-.1,0-.1,0,0,0,0,0,0,0,0,0,0,0,0,0,0,0-.1,0-.2,0,0,0,0,0,0,0,0,0,0,0,0,0,0,0,0,0,0,.1,0,0,0,0,0,0,0,0,0,0,0,0h0s0,0,0,0c0,0,0,0,0,0,0,0,0,0,0,0,0,0,0,0,0,0,0,0,0,0,0,0h0s0,0,0,0c0,0,0,0,0,0h0s0,0,0,0c0,0,0,0,0,0h0s0,0,0,0h0s0,0,0,0c0,0,0,0,0,0h0c0,0,0,.1,0,.1,0,0,0,0,0,0,0,0,0,0,0,0t0,0h0c0,0,0,0,0,0,0,0,0,0,0,0h0s0,0,0,0c0,0,0,0,0,0,0,0,0,0,0,0,0,0,0,0,0,0,0,0,0,0,0,0h0s0,0,0,0c0,0,0,0,0,0,0,0,0,0,0,0,0,0,0,0,0,0,0,0,0,0,0,0,0,0,0,0,0,0h0s0,0,0,0c0,0,0,0,0-.1,0,0,0,0,0,0,0,0,0,0,0,0,0,0,0,0,0,0,0,0,0,0,0,0h0s0,0,0,0h0s0,0,0,0h0s0,0,0,0c0,0,0,0,0,0h0s0,0,0,0t0,0s0,0,0,0h0s0,0,0,0c0,0,0,0,0,0h0s0,0,0,0c0,0,0,0,0,0,0,0,0,0,0,0,0,0,0,0,0,0,0,0,0,0,0,0,0,0,0,0,0,0,0,0,0,0,0,0h0s0,0,0,0c0,0,0,0,.1,0h0s0,0,0,0c0,0,0,0,0,0,0,0,0,0,0,0h0s0,0,0,0c0,0,0,0,0,0h0c0,0,0,0,0,0,0,0,0,0,0,0h0s0,0,0,0h0s0,0-.1,0h0c0,0-.1,0-.2,0,0,0,0,0-.1,0h0s0,0,0,0c0,0,0,0,0,0,0,0,0,0,0-.1,0,0,0,0,0,0,0,0,0,0,0,0h0s0,0,0,0c0,0,0,0,0,0h0s0,0,0,0c0,0,0,0,0,0,0,0,0,0,0,0h0s0,0,0,0h0s0,0,0,0c0,0,0,0,0,0,0,0,0,0,0,0,0,0,0,0,0,0h0s0,0,0,0c0,0,0,0,0,0,0,0,0,0,0,0,0,0,0,0,0,0,0,0,0,0,0,0,0,0,0,0,0,0h0s0,0,0,0h0s0,0,0,0h0s0,0,0,0h0s0,0,0,0c0,0,0,0,0,0,0,0,0,0,0,0h0s0,0,0,0h0s0,0,0,0h0s0,0,0,0h0s0,0,0,0c0,0,0,0,0,0,0,0,0,0,0,0h0s0,0,0,0c0,0,0,0,0,0h0s0,0,0,0h0s0,0,0,0h0s0,0,0,0h0s0,0,0,0c0,0,0,0,0,0h0,0s0,0,0,0h0s0,0,0,0h0s0,0,0,0c0,0,0,0,0,0,0,0,0,0,0,0h0s0,0,0,0c0,0,0,0,0,0,0,0,0,0,0,0t0,0s0,0,0,0c0,0,0,0,0,0h0s0,0,0,0c0,0,0,0,0,0h0s0,0,0,0c0,0,0,0,0,0,0,0,0,0,0,0h0s0,0,0,0c0,0,0,0,0,0,0,0,0,0,0,0,0,0,0,0,0,0t0,0s0,0,0,0c0,0,0,0,0,0h0s0,0,0,0h0s0,0,0,0c0,0,0,0,0,0h0s0,0,0,0h0s0,0,0,0c0,0,0,0,0,0,0,0,0,0,0,0,0,0,0,0,0,0h0s0,0,0,0h0s0,0,0,0c0,0,0,0,0,0h0s0,0,0,0c0,0,0,0,0,0,0,0,0,0,0,0,0,0,0,0,0,0,0,0,0,0,0,0h0s0,0,0,0c0,0,0,0,0,0,0,0,0,0,0,0,0,0,0,0-.1,0h0s0,0,0,0h0s0,0,0,0t0,0s0,0,0,0t0,0s0,0,0,0c0,0,0,0,0,0h0s0,0,0,0c0,0,0,0,0,0,0,0,0,0,0,0h0s0,0,0,0h0s0,0,0,0h0s0,0,0,0h0s0,0,0,0h0c0,0,0,0,0,0,0,0,0,0,0,0h0s0,0,0,0c0,0,0,0,0,0h0s0,0,.1,0c0,0,0,0,0,0h0s0,0,0,0h0s0,0,0,0c0,0,0,0,0,0h0s0,0,0,0h0s0,0,0,0c0,0,0,0,0,0h0s0,0,0,0c0,0,0,0,0,0,0,0,0,0,0,0,0,0,0,0,0,0,0,0,0,0,0,0,0,0,0,0,0,0,0,0,0,0-.1-.1,0,0,0,0,0,0h0s0,0,0,0c0,0,0,0,0,0,0,0,0,0,0,.1h0s0,0,0,0h0s0,0,0,0h0c0,0,0-.2,0-.2,0,0,0,0,0,0h0s0,0,0,0h0s0,0,0,0c0,0,0,0,0,0,0,0,0,0,0,0,0,0,0,0,0,0,0,0,0,0,0,0,0,0,0,0,0,0,0,0,0,0,0,0,0,0,0,0,0,0,0,0,0,0,0,0,0,0,0,0,0,0t0,0s0,0,0,0c0,0,0,0,0,0,0,0,0,0,0,0h0s0,0,0,0h0s0,0,0,0h0s0,0,0,0c0,0,0,0,0,0,0,0,0,0,0,0,0,0,0,0,0,0,0,0,0,0,0,0,0,0,0,0,0,0,0,0,0-.2,0-.2,0,0,0,0,0,0h0s0,0,0,0c0,0,0,0,0-.1h0s0,0,0,0h0s0,0,0,0h0c0,0,0-.1,0-.1,0,0,0,0,0,0,0,0,0-.2,0,0h0s0,0,0,0c0,0,0,0,0,0h0s0,0,0,0h0,0s0,0,0,0c0,0,0,0,0,0,0,0,0,0,0,0h0s0,0,0,0c0,0,0,0,0,0h0s0,0,0,0c0,0,0,0,0,0,0,0,0,0,0,0h0s0,0,0-.1c0,0,0-.1,0-.1,0,0,0,0,0,0,0,0,0,0,0,0,0,0,0,0,0,0,0,0,0,.1,0,.2h0s0,0,0,0c0,0,0,0,0,0,0,0,0,0,0,0h0s0,0,0,0h0,0s0,0,0,0c0,0,0,0,0,0h0c0,0,0,0,0,0,0,0,0,0,0,0,0,0,0,0,0,0h0s0,0,0,0c0,0,0,0,0,0,0,0,0,0,0,0,0,0,0,0,0,0h0c0,0,0-.1,0-.1,0,0,0,0,0,0,0,0,0,0,0,0,0,0,0,0,0,0h0s0,0,0,0h0s0,0,0,0c0,0,0,0,0,0,0,0,0,0,0,0,0,0,0,0,0,0h0s0,0,0,0c0,0,0,0,0,0,0,0,0,0,0,0h0s0,0,0,0,0,0,0,0h0s0,0,0,0ZM31.6,15.7s0,0,0,0c0,0,0,0,0,0h0s0,0,0,0h0s0,0,0,0c0,0,0,0,0,0,0,0,0,0,0,0,0,0,0,0,0,0h0s0,0,0,0ZM29.1,13.6s0,0,0,.1h0s0,0,0,.1h0c0,.1,0,.2,0,.2h0c0,0,0,0,0,0,0,0,0,0,0,0,0,0,0,0,0,0h0s0,0,0,0h0s0,0,0,0c0,0,0,0,0,0h0s0,0,0,0h0s0,0,0,0h0s0,0,0,0c0,0,0,0,0,0,0,0,0,0,0,0,0,0,0,0,0,0,0,0,0,0,0,0,0,0,0,0,0,0h0s0,0,0,0c0,0,0,0,0,0,0,0,0,0,0,0,0,0,0,0,0,0h0s0,0,0,0c0,0,0,0,0,0,0,0,0,0,0,0,0,0,0,0,0,0,0,0,0,0-.1,0,0,0,0,0-.1,0,0,0,0,0,0,0,0,0,0,0,0-.1,0-.1,0-.2.1-.3,0,0,0,0,0,0,0,0,0,0,0,0,0,0,0,0,0,0,0,0,0,0,0,0ZM29.6,12.6s0,0,0,0h0s0,0,0,0c0,0,0,0,0,0,0,0,0,0,0,0t0,0h0s0,0,0,0c0,0,0,0,0,.1,0,0,0,0,0,0,0,0,0,0,0,.1,0,0,0,0,0,0,0,0,0,0,0,0,0,0,0,0-.1,0,0,0,0,0,0,0h0s0,0-.1.1c0,0,0,0,0,0,0,0,0,0,0,0,0,0,0,0,0,0,0,0,0,0,0,0h0s.2,0,.2,0c0,0,0,0,0,0h0s0,0,0,0c0,0,0,0,0,0,0,0,0,0,0,0h0c0,0,0,0,0,0h0s0,.1,0,.1h0s0,0,0,0h0s0,0,0,0c0,0,0,0,0,0h0s0,0,0,0t0,0h0s0,0,0,0c0,0-.1,0-.1,0,0,0,0,0,0,0,0,0,0,0,0,0,0,0,0,0,0,0,0,0,0,0,0,0,0,0,0,0,0,0,0,0,0,0,0,0,0,0,0,0,0,0,0,0,0,0,0,0,0,0,0,0,0,0,0,0,0,0,0,0,0,0,0,0-.1,0,0,0,0,0,0,0h0s0,0,0,0c0,0,0,0,0,0,0,0,0,0,0,0,0,0,0,0,0,0,0,0,0,0-.1,0,0,0,0,0,0,0,0,0,0,0,0,0,0,0,0,0,0,0,0,0,0,0,0,0,0,0,0,0,0,0,0,0,0,0,0,0,0,0,0,0,0,0h0c0,0,0,0,0-.1,0,0,0,0,0,0,0,0,0,0,0,0,0,0,0,0,0,0,0,0,0,0,0,0,0,0,0,0,0,0,0,0,0,0,0,0,0,0,0,0,0,0,0,0,0,0,0,0,0,0,0,0,0,0h0s0,0,0,0h0s0,0,0,0c0,0,0,0,0,0h0s0,0,0,0h0s0,0,0,0c0,0,0,0,0,0h0s0,0,0,0h0s0,0,0,0h0s0,0,0,0c0,0,0,0,0,0h0s0,0,0,0h0s0,0,0,0h0s0,0,0,0h0s0,0,0,0h0s0,0,0,0c0,0,0,0,0,0h0s0,0,0,0c0,0,0,0,0,0h0s0,0,0,0h0s0,0,0,0h0s0,0,0,0h0s0,0,0,0h0s.1,0,.1,0h0s0,0,0,0c0,0,0,0,0,0,0,0,0,0,0,0,0,0,0,0,0,0h0s0,0,0,0h0s0,0,0,0c0,0,0,0,0,0,0,0,0,0,0,0h0s0,0,0,0h0s0,0,0,0h0s0,0,0,0c0,0-.1,0-.2,0h0s0,0,0,0c0,0,0,0,0,0,0,0,0,0,0,0,0,0,0,0,0,0,0,0,0,0,0,0,0,0,0,0,0,0,0,0,0,0,0,0,0,0,0-.2,0-.2h0s0,0,0,0c0,0,0,0,0,0,0,0,0,0,0,0,0,0,0,0,0,0h0s0,0,0,0h0s0,0,0,0h0s0,0,0,0h0s0,0,0,0h0s0,0,0,0c0,0,0,0,0,0h0s0,0,0,0h0s0,0,0,0h0s0,0,0,0c0,0,0,0,0,0,0,0,0,0,0,0h0s0,0,0,0h0s0,0,0,0c0,0,0,0,0,0,0,0,0,0,0,0,0,0,0,0,0,0h0s0,0,0,0h0s0,0,0,0h0s0,0,0,0h0s0,0,0,0c0,0,0,0,0,0,0,0,0,0,0,0,0,0,0,0,0,0,0,0,0,0,0,0,0,0,0,0,0,0,0,0,0,0,0,0,0,0,0,0,0,0,0,0,0,0,0,0h0s0,0,0,0h0s0,0,0,0h0s0,0,0,0c0,0,0,0,0,0s0,0,0,0h0s0,0,0,0c0,0,0,0,0,0,0,0,0,0,.1-.1h0s0-.1,0-.1c0,0,0,0,0,0,0,0,0,0,0,0,0,0,0,0,0,0,0,0,0,0,0,0h0ZM26.6,11.4s.3.2.2.3c0,0-.2,0-.2.1,0,0,0,0,0,0,0,0,0,0,0,0,0,0,0,0,0,0,0,0-.2.1-.2.2,0,0,0,0,0,0,0,0,0,0,0,0,0,0,0,0,0,0,0,0,0,0,0,0h0s0,0,0,0c0,0,0,0,0,0h0s0,0,0,0c0,0,0,0,0,0t0,0h0s0,0,0,0h0s0,0,0,0h0s0,0,0,0h0s0,0,0,0c0,0,0,0,0,0,0,0,0,0,0,0h0s0,0,0,0c0,0,0,0,0,0h0s0,0,0,0h0s0,0,0,0h0s0,0,0,0h0s0,0,0,0c0,0,0,0,0,0,0,0,0,0,0,0h0s0,0,0,0h0s0,0,0,0t0,0s0,0,0,0h0s0,0,.1,0c0,0,0,0,0,0,0,0,0,0,0,0,0,0,0,0,0,0h0s0,0,0,0c0,0,0,0,0,0h0s0,0,0,0h0s0,0,0,0c0,0,0,0,0,0h0c0,0,0,.1,0,.1h0s0,0,0,0c0,0,0,0,0,0,0,0,0,0,0,0,0,0-.1,0-.1,0,0,0,0,0,0,0h0s0,0,0,0c0,0,0,0,0,0,0,0,0,0,0,0,0,0,0,0,0,0h0s0,0-.1,0c0,0,0,0,0,0,0,0,0,0,0,0,0,0,0,0-.1,0h0s0,0,0,0c0,0-.3,0-.3,0,0,0,0,0,0,0,0,0,0,0,0,0h0s0,0,0,0h0s0,0,0,0h0s0,0,0,0c0,0,0,0,0-.1,0,0,0,0,0,0,0,0,0,0,0,0,0,0,0,0,0,0,0,0,0,0,0,0h0s0,0,0,0c0,0,0,0,0,0h0s0,0,0,0c0,0,0,0,0,0,0,0,0,0,0,0,0,0,0,0,0,0h0s0,0,0,0h0s0,0,0,0c0,0,0,0,0,0h0s0,0,0,0c0,0,0,0,0,0h0s0,0,0,0h0s0,0,0,0h0s0,0,0,0h0s0,0,0,0h0s0,0,0,0h0s0,0,0,0h0s0,0,0,0h0s0,0,0,0c0,0,0,0,0,0,0,0,0,0,0,0h0s0,0,0,0h0s0,0,0,0h0s0,0,0,0c0,0,0,0,0,0,0,0,0,0,0,0,0,0,0,0,0,0,0,0,0,0,0,0h0s0,0,0,0h0s0,0,0,0h0s0,0,0,0c0,0,0,0,0,0h0s0,0,0,0h0s0,0,0,0c0,0,0,0,0,0,0,0,0,0,0,0h0s0,0,0,0c0,0,0,0,0,0h0s0,0,0,0c0,0,0,0,0,0,0,0,0,0,0,0h0s0,0,0,0h0s0,0,0,0c0,0,0,0,0,0,0,0,0,0,0,0h0s0,0,0,0c0,0,0,0,0,0,0,0,0,0,0,0h0s0,0,0,0c0,0,0,0,0,0,0,0,0,0,0,0,0,0,0,0,0,0h0s0,0,0,0c0,0,0,0,0,0,0,0,0,0,0,0,0,0,0,0,0,0h0s0,0,0,0t0,0s0,0,0,0h0s0,0,0,0h0s0,0,0,0h0s0,0,0,0c0,0,0,0,0,0,0,0,0,0,0,0,0,0,0,0,0,0,0,0,0,0,0,0,0,0,0,0,.1,0h0,0s0,0,0,0c0,0,0,0,0,0s0,0,0,0h0s0,0,0,0c0,0,0,0,0,0,0,0,0,0,0,0,0,0,0,0,0,0,0,0,0,0,0,0,0,0,0,0,0,0,0,0,0,0,0,0h0c0,0,0,0-.1-.1,0,0,0,0,0,0,0,0,0,0,0,0,0,0,0,0,0,0h0s0,0,0,0h0s0,0,0,0c0,0,0,0,0,0,0,0,0,0,0,0h.1c0,0,0,.1,0,0h0s0,0,0,0h0s0,0,0,0c0,0,0,0,0,0h0s0,0,0,0c0,0,0,0,0,0h0s0,0,0,0c0,0,0,0,0,0,0,0,0,0,0,0h0s0,0,0,0c0,0,0,0,0,0,0,0,0,0,0,0,0,0,0,0,0,0ZM21.9,11.2s0,0,0,0c0,0,0,0,0,0h0s0,0,0,0c0,0,0,0,0,0,0,0,0,0,0,0h0s0,0,0,0c0,0,0,0,0,0,0,0,0,0,0,0,0,0,0,0,0,0,0,0,0,.1,0,.1,0,0,0,0,0,0,0,0,0,0,0,0,0,0,0,0,0,0,0,0,0,0,0,0h0c0,0,0,0,0,0,0,0,0,0,0,0h0s0,0,0,0h0s0,0,0,0c0,0,0,0,0,.1,0,0,0,0,0,0h0s0,0,0,0h0s0,0,0,0c0,0,0,0,0,0,0,0,0,0,0,0,0,0,0,0,0,0,0,0,0,0,0,0,0,0,0,0,0,0h0s0,0,0,0h0s0,0,0,0h0s0,0,0,0c0,0,0,0,0,0,0,0,0,0,0,0,0,0,0,0,0,0,0,0,0,0,0,0,0,0,0,0,0,0,0,0,0,0,0,0h0s0,0,0,0h0c0,0,0,0,0,.1,0,0,0,0,0,.1h0c0,0,0,.1,0,.1,0,0,0,0,0,0,0,0,0,0,0,0,0,0,0,0,0,0h0s0,0,0,0c0,0,0,0,0,0h0s0,0,0,0c0,0,0,0,0,0,0,0,0,0,0,0,0,.1-.1,0-.2.1h0s0,0,0,0h0c0,0,0,0,0,0h0s0,0,0,0h0s0,0,0,0h0s0,0,0,0h0s0,0,0,0c0,0,0,0,0,0,0,0,0,0,0,0,0,0,0,0,0,0,0,0,0,0,0,0,0,0,0,0,0,0,0,0,0,0,0,0h0s0,0,0,0c0,0,0,0,0,0,0,0,0,0,0,0,0,0,0,0-.1,0,0,0,0,0,0,0,0,0,.1-.1,0-.2,0,0,0,0,0-.1,0,0,0,0,0,0,0,0,0-.1,0-.2,0,0,0,0,0,0,0,0,0,0,0,0h0c0-.1,0-.1,0-.1h0s0,0,0,0c0,0,0,0,0,.1,0,0-.1,0-.2,0h0s0,0,0,0c0,0,0,0,0,0,0,0,0,0,0,0h0s0,0,0,0c0,0,0,0,0,0,0,0,0,0,0,0h0s0,0,0,0h0c0,0,0-.1,0-.1,0,0,0,0,0,0,0,0,0,0,0,0,0,0,0,0,0,0h0s0,0,0,0c0,0,0,0,0,0h0s0,0,0,0h0s0,0,0,0h0s0,0,0,0c0,0,0,0,0,0h0ZM22.7,10.6h0s.2,0,.2,0t0,0h0s0,0,0,0c0,0,0,0,0,0h0c0,0,0,.1,0,.1,0,0,0,.1,0,.2,0,0,0,0,0,0,0,0,0,0,0,0h0c0,0,0,.1,0,.2h0c0,0,0,0,0,0h0c0,0,0,0,0,.1,0,0,0,0,0,0,0,0,0,0,0,0,0,0,0,.1,0,.2,0,0,0,0,0,0,0,0,0,0,0,0h0s0,0,0,0c0,0,0,0,0,0h0s0,0,0,0t0,0s0,0,0,0c0,0,0,0,.1,0h0s0,0,0,0h0s0,0,0,0c0,0,0,0,0,0,0,0,0,0,0,0h0c0,.1,0,.2,0,.2,0,0,0,0,0,0,0,0,0,0,0,0,0,0,0,0,0,0,0,0,0,0,0,0h0s0,0,0,0c0,0,0,0,0,0,0,0,0,0,0,0h0s0,0,0,0h0s0,0,0,0c0,0,0,0,0,0h0s0,0,0,0c0,0,0,0,0,0,0,0,0,0,0,0,0,0,0,0,0,0h0s0,0,0,0c0,0,0,0,0,0h0s0,0,0,0h0s0,0,0,0c0,0,0,0,0,0,0,0-.1,0-.2.1,0,0,0,0,0,0,0,0,0,0,0,0,0,0,0,0,0,0h0s0,0,0,0c0,0-.1,0-.2,0,0,0,0,0,0,0,0,0,0,0,0,0,0,0,0,0,0,0,0,0,0,0,0,0,0,0,0-.1,0-.2,0,0,0,0,0,0,0,0,0,0,0,0h0s0,0,0,0c0,0,0,0,0,0,0,0,0,0,0,0,0,0,0,0,0,0,0,0,0,0,0,0,0,0,0,0,0,0,0,0,0,0,0,0,0,0,0,0,0,0,0,0,0,0,0,0,0,0,0,0,0-.1,0,0,0,0,0,0,0,0,0,0,0,0,0,0,0,0,0-.1,0,0,0,0,0,0h0s0,0,0,0c0,0,0,0,0,0,0,0,0,0,0,0h0s0,0,0,0h0s0,0,0,0h0s0,.1,0,.1h0s0,0,0,0c0,0,0,0,0,0,0,0,0,0,0,0,0,0,0,0,0,0,0,0,0,0,0,0,0,0,0,0,0-.1,0,0,0,0,0,0v-.2s0,0,0,0,0,0,0,0c0,0,0,0,0,0h0c0,0,.1.2.2.3,0,0,0,0,0,0,0,0,0,0,0,0h0c0,0,0,0,0-.2h0s0,0,0,0h0s0,0,0,0h0s0,0,0,0h0s0,0,0,0c0,0,0,0,0,0h0s0,0,0,0h0s0,0,0,0c0,0,0,0,0,0h0s0,0,0,0h0s0,0,0,0h0s0,0-.1,0c0,0,0,0,0,0,0,0,0,0,0-.1t0,0h0s0,0,0-.1h0s0,0,0,0c0,0,0,0,0,0,0,0,0,0,0,0,0,0,0,0,0,0,0,0,0,0,0,0,0,0,0,0,0,0,0,0,0,0,0,0h0ZM22.6,10.9s0,0,0,0c0,0,0,0,0,0,0,0,0,0,0,0h0s0,0,0,0h0c0,.1,0,.2,0,.2,0,0,0,0,0,0,0,0,0,0,0,0h0s0,0,0,0c0,0,0,0,0,0,0,0,0-.2,0-.2,0,0,0,0,0,0s0,0,0,0c0,0,0,0,0,0,0,0,0,0,0,0,0,0,0,0,0,0ZM18.4,12.8s0,0,.1,0c0,0,0,0,0,0h0s0,0,0,0h0,0s0,0,0,.1c0,0,0,0,0,0,0,0,0,.2,0,.2,0,0,0,0,0,0,0,0,0,0,0-.1h0c0-.1,0-.2,0-.2,0,0,0,0,0,0,0,0,0,0,0,0ZM19,12c0,0,.1,0,.2,0,0,0,0,0,0,0,0,0,0,.2,0,.3,0,0,0,0,0,0h0s0,0,0,0c0,0,0,0,0,0,0,0,0,0,0,0,0,0,0,0,0,0,0,0,0,.1,0,.1,0,0,0,0,0,0,0,0,0,0,0,0,0,0,0,.2,0,.2,0,0,0,0,0,0,0,0,0,0,0,0,0,0,0,0,0,0h0s0,0,0,0c0,0,0,0,0,0,0,0,0,0,0,0h0s0,0,0,0c0,0,0,0,.1,0,0,0,0,0,0,0,0,0,0,0,0,.1h0c0,.1,0,.1,0,.1,0,0,0,0,0,0,0,0,0,0,0,0h0s0,0,0,0c0,0,0,0,0,.1,0,0,0,0,0,0h0s0,.2,0,.2c0,0,0,0,0,0,0,0,0,0,0,0,0,0,0-.1,0-.2,0,0,0,0,0,0,0,0,0,0,0,0,0,0,0,0,0,0,0,0,0,0,0,0,0,0,0,0,0,0,0,0,0,0,0,0,0,0,0,0,0,0,0,0,0,0,0,0,0,0,0,0,0,0,0,0,0,0,0,0h0s0,0,0,0c0,0,0,0,0,0h0s0,0,0,0h0s0,0,0,0c0,0,0,0,0,0,0,0,0,0,0,0,0,0,0,0,0,0,0,0,0,0,0,0,0,0,0,0,0,0h0s0,0,0,0c0,0,0,0,0,0,0,0,0,0,0,0,0,0-.1,0-.1,0h0s0,0,0,0h0s0,0,0,0c0,0,0,0,0,0h0s0,0,0,0h0c0,0,0,0,0-.1,0,0,0,0,0,0,0,0,0,0,0,0,0,0,0,0,0,0,0,0,0,0,0,0,0,0,0,0,0,0,0,0,0,0,0,0,0,0,0,0,0,0h0s0,0,0,0t0,0h0s0,0,0,0h0s0,0,0,0h0s0,0,0,0c0,0,0,0,0,0h0s0,0,0,0h0s0,0,0,0c0,0,0,0,0,0h0c0,0,0,0,0,0t0,0s0,0,0,0c0,0,0,0,0,0,0,0,0,0,0,0,0,0,0,0,0,0h0s0,0,0,0c0,0,0,0,0,0h0c0-.1,0-.1,0-.1,0,0,0,0,0,0,0,0,0,0,0,0h0s0,0,0,0c0,0,0,0,0,0h0s0,0,0,0h0s0,0,0,0c0,0,0,0,0,0,0,0,0,0,.1,0h0s0,0,0,0h0s0,0,0,0h0s0,0,0,0c0,0,0,0,0,0,0,0,0,0,0,0,0,0,0,0,0,0h0s0,0,0,0c0,0,0,0,0,0h0s0,0,0,0c0,0,0,0,0,0,0,0,0,0,0,0,0,0,0-.1,0-.2,0,0,0,0,0,0,0,0,0,0,0,0h0ZM19.3,13.1h0s0,0,0,0c0,0,0,0,0,0h0s0,0,0,0c0,0,0,0,0,0,0,0,0,0,0,0,0,0,0,0,0,0h0s0,0,0,0c0,0,0,0,0,0,0,0,0,0,0,0,0,0,0,0,0,0h0s0,0,0,0ZM19.3,12.9h0s0,0,0,.1c0,0,0,0,0,0,0,0,0,0,0,0h0s0,0,0,0c0,0,0,0,0,0,0,0,0,0,0,0,0,0,0,0,0,0,0,0,0,0,0,0,0,0,0,0,0,0h0s0,0,0,0h0c0,0,0,0,0,0,0,0,0,0,0,0,0,0,0,0,0,0ZM19.1,12.8h0s0,0,0,0c0,0,0,0,0,0,0,0,0,0,0,0,0,0,0,0,0,0h0,0s0,0,0,0h0s0,0,0,0c0,0,.1,0,.1-.1h0s0,0,0,0h0s0,0,0,0c0,0,0,0,0,0h0ZM19.7,13.3s0,0,0,0c0,0,0,0,0,0t0,0h.1s0,0,0,0c0,0,0,0,0,0h0s0,0,0,0c0,0,0,0,0,0,0,0,0,0,0,0,0,0,0,0,0,0,0,0,0,0,0,0,0,0,0,0,0,0,0,0,0,0,0,0h0s0,0,0,0c0,0,0,0,0,0h0s0,0,0,0h0s0,0,0,0h0s0,0,0,0c0,0,0,0,0,0,0,0,0,0,0,0h0,0c0,0,0-.1,0-.1,0,0,0,0,0,0h0c0,0,0,0,0,0h0s0,0,0,0ZM18.7,13.3s.1,0,.2,0c0,0,0,0,0,0,0,0,0,0,0,0h0s0,0,0,0c0,0,0,0,0,0h0s0,0,0,0c0,0,0,0,0,0,0,0,0,0,0,.1h0s0,0,0,0c0,0,0,.1,0,.2,0,0,0,0,0,0h0s0,0,0,0h0s0,0,0,0c0,0,0,0,0,0,0,0,0,0,0,0h0s0,0,0,0h0s0,0,0,0h0c0,0,0,0,0,0,0,0,0,0,0,0,0,0,0,0,0,0h0c0,0,0,.1,0,.1,0,0,0,0,0,0,0,0,0,0,0,0h0s0,0,0,0c0,0,0,0,0,.1h0s0,0,0,0c0,0,0,0-.1,0,0,0,0,0,0,0,0,0,0,0,0,0h0s0,0,0,0h0s0,0,0,0c0,0,0,0,0,0,0,0,0,0,0,0h0c0,0,0,0,0,0,0,0,0,0,0,0h0c0,0,0,0,0,0,0,0,0,0,0,0,0,0,0,0,0,0,0,0,0,0,0,0,0,0,0,0,0,0,0,0,0,0,0,0,0,0,0,0,0,0,0,0,0,0,0,0,0,0,0,0,0,0,0,0,0,0,0,0,0,0,0,0,0,0h0s0,0,0,0t0,0c0,0,0-.1-.1-.2,0,0,0,0,0,0,0,0,0,0,0,0h0s0,0,0,0ZM16.3,14.9h0c0,0,0,0,0,0,0,0,0,0,.1,0,0,0,0,0,0,0,0,0,0,0,.1.1,0,0,0,0,0,0,0,0,.1,0,.2.1,0,0,0,0,0,0,0,0,0-.1,0-.1,0,0,0,0,0,0,0,0,0,0,0,.1,0,0,0,0,0,0h0c.1.1.3.2.4.2,0,0,0,0,0,0,0,0,0,0,0,0,0,0,0,0-.1-.1h0c0,0,0-.1,0-.1,0,0,0,0,0,0,0,0,0,0,0,0,.1,0,.2.1.3.2h0c0,0,0,.1,0,.1h0s0,0,0,0c0,0,0,0,0,0,0,0,0,0,0,0,0,.1-.1,0-.2,0,0,0,0,0-.1,0,0,0,0,0-.1,0,0,0,0,0,0,0h0s0,.1,0,.2h0c0,.2,0,.3,0,.3h0c0,.1,0,.1,0,.2,0,0,0,0,0,.1,0,0,0,.1,0,.2h0c0,.1,0,.2,0,.2,0,0,0,0,0,0,0,0,0,0,0,0,0,0,0,0,0,0,0,0,0,0,0,0,0,0,0,0,0,0h0c0,0,0-.1,0-.2,0,0,0-.2,0-.2h0s0,0,0,0h0s0,0,0,0h0s0,0,0,0c0,0,0,0,0-.1,0,0,0,0,0,0,0,0,0-.2,0-.2,0,0,0,0,0,0h0s0,0,0,0c0,0,0,0,0,.1,0,0,0,0,0,0,0,0,0,.1,0,.2,0,0,0,0,0,0,0,0,0,0,0,0,0,0,0,0,0,0,0,0,0,0-.1,0,0,0,0,0,0,0,0,0,0,0,0,0t0,0h0s0,0,0,0c0,0,0,0,0,0,0,0,0,0,0,.1,0,0,0,0,0,0,0,0,0,0,0,0h0s0,0,0,0c0,0,0,0-.1,0,0,0,0,0,0,0,0,0,0-.1,0-.1h0s0,0,0,0t0,0h0c0,0,0,0,0,0,0,0,0-.1,0-.2,0,0,0,0,0-.1,0,0,0,0,0,0,0,0,0,0,0,0,0,0,0,0,0-.1,0,0,0,0,0,0,0,0,0-.2,0-.2,0,0,0,0,0,0,0,0,0,0-.1-.1,0,0,0,0,0,0h0s0,0,0,0h0s0,0,0,0c0,0,0,0,0,0,0,0,0,0,0,0h0ZM17,15.5h0s0,0,0,0,0,0,0,0h0c0,0,.1,0,.2,0,0,0,0,0,0,0,0,0-.2,0-.2-.1,0,0,0,0,0,0ZM17,15.7s0,0,0,0c0,0,0,0,0,.1,0,0,.1,0,.1,0,0,0,0,0,0,0,0,0,0,0-.1,0ZM17,16.3s0,0,0,0h0s0,0,.1,0h0s0,0,0,0h0s0,0,0,0h0s0,0,0,0h0s0,0,0,0c0,0,0,0,0,0,0,0,0,0,0,0h0s0,0,0,0c0,0,0,0,0,0,0,0,0,0,0,0h0c0,0,0-.1,0-.1h0ZM16.6,15.3s0,0,.1,0h0c0,0,0,.1,0,.2,0,0,0,0,0,0,0,0,0,.1,0,.1,0,0,0,0,0,0,0,0,0,0-.1,0h0s0,0,0,0h0s0,0,0,0h0c0,0,0,0,0-.1,0,0,0,0,0,0,0,0,0,0,0,0,0,0,0,0,0,0,0,0,0,0,0,0h0s0,0,0,0h0s0,0,0,0c0,0,0,0,0,0t0,0h0s0,0,0,0h0s0,0,0,0Z"/>
    </g>
  </g>
</svg>