<svg width="128" height="137" fill="none" xmlns="http://www.w3.org/2000/svg"><g filter="url(#a)" fill="#C92B2F"><path d="M32.278 62.674c-.04.288-.06.491-.064.614-.004.115.003.316.022.603a19.88 19.88 0 0 0-.761.348c-.262.127-.575.275-.939.453.21.143.468.312.77.51s.592.386.864.56a2.37 2.37 0 0 0-.054.337c-.006.133.005.246.03.34l-.044-.001-.876-.674-.366-.278c-.125-.092-.246-.186-.369-.279l-.367-.278-.163.09a138.257 138.257 0 0 0-1.254.641c-.198.1-.405.202-.625.308a17.5 17.5 0 0 1-.64.296l.026-.293c.014-.128.024-.228.026-.294.002-.069 0-.17-.005-.302l-.007-.293c.198-.086.449-.205.754-.35.305-.15.642-.312 1.012-.49l-.961-.666-.509-.304c-.04-.024-.08-.05-.121-.08a.9.9 0 0 0-.107-.066c.027-.19.043-.29.044-.306a1.784 1.784 0 0 0-.02-.35c.184.132.496.358.934.677.438.321.832.602 1.183.848l2.587-1.32Zm-.781 6.345c-.148.006-.362.012-.643.02-.281.007-.514.016-.698.029-.2.013-.445.038-.74.072-.296.033-.524.056-.683.07a42.905 42.905 0 0 0-1.008.124 12.33 12.33 0 0 1-.003-.273c0-.122 0-.213-.004-.269a5.557 5.557 0 0 0-.075-.607c.74.012 1.584-.016 2.53-.082l.367-.026c.148-.01.309-.023.48-.04.171-.016.305-.027.396-.033.402-.043.71-.082.926-.116-.01.271-.01.458-.002.56.006.104.034.29.081.557-.41 0-.718.005-.924.014Zm.776 2.3a.522.522 0 0 1-.045-.13.552.552 0 0 1 .075-.369.476.476 0 0 1 .34-.212c.235-.041.409.021.516.192.05.078.084.17.101.271.038.213-.017.384-.167.513a.864.864 0 0 1-.36.149 1.392 1.392 0 0 1-.977-.172 1.162 1.162 0 0 1-.489-.592l.28-.049c.05.123.162.232.34.329.118.07.248.094.386.07Zm-3.68 2.867 1.275.118c1.46.144 2.721.235 3.782.273.006.023.011.052.017.083a1.16 1.16 0 0 0 .035.18.927.927 0 0 0 .05.114c.021.04.042.08.058.117l-.093.086a130.688 130.688 0 0 0-3.711 3.098l-.056.06-.062.022a9.09 9.09 0 0 1-.073-.287c-.033-.124-.058-.22-.08-.285a4.878 4.878 0 0 0-.207-.535c.538-.382.937-.679 1.191-.89a9.33 9.33 0 0 1-.106-.363 15.388 15.388 0 0 0-.108-.367c-.056-.168-.147-.43-.278-.786l-.101-.001-.71-.02a6.675 6.675 0 0 0-.672.013 1.655 1.655 0 0 0-.2-.614l.05-.016Zm2.082.679.39 1.199a50.77 50.77 0 0 0 1.337-1.082 26.513 26.513 0 0 0-1.661-.114l-.066-.003Zm.246 5.555a1.554 1.554 0 0 0-.267-.524c.462-.174.938-.369 1.424-.584a49.9 49.9 0 0 0 2.066-.984c.217-.11.385-.193.498-.248a4.29 4.29 0 0 0 .29-.154c.04.147.073.244.096.295.027.054.087.144.178.264-.15.378-.287.729-.414 1.053-.124.326-.262.69-.417 1.089-.154.4-.285.743-.397 1.027-.112.284-.239.597-.382.94l2.053-1.001c.1-.05.229-.119.379-.206.151-.088.265-.153.342-.194l.12-.072c.041.147.073.245.097.294.02.043.05.089.085.142.035.053.064.096.084.13a4.751 4.751 0 0 0-.353.148c-.31.122-.58.231-.803.332l-.32.144-.301.13c-.116.05-.224.1-.323.146a7.163 7.163 0 0 0-.246.115l-1.929.94a.188.188 0 0 0-.023-.071 1.4 1.4 0 0 0-.075-.176 1.544 1.544 0 0 0-.147-.255 63.83 63.83 0 0 0 1.284-3.138l.377-1.01c-.386.173-.665.3-.834.383l-.572.28c-.705.343-1.224.614-1.56.81l-.01-.046Zm3.049 6.842c.255.218.53.226.826.027.284-.188.594-.412.935-.678.109-.086.273-.213.49-.378.218-.165.379-.289.48-.37l.37-.279.373-.285c.061-.05.15-.119.266-.214.114-.096.203-.167.262-.213.07-.063.18-.157.326-.28.146-.124.254-.217.323-.28.153.242.26.402.318.475.076.098.205.24.385.423-.33.224-.575.393-.733.508-.148.107-.372.276-.666.507-.05.029-.118.077-.207.146-.14.11-.335.266-.584.472-.252.206-.469.38-.653.524l-.332.259c-.358.28-.672.436-.94.466-.523.066-.998-.118-1.425-.552l.186-.278Zm6.555.697c-.109.098-.272.237-.485.421-.214.182-.39.336-.525.463-.146.135-.322.308-.53.52-.21.212-.372.375-.485.485-.082.082-.2.205-.358.367-.155.164-.273.286-.35.364l-.172-.211c-.078-.094-.135-.165-.173-.206a5.912 5.912 0 0 0-.44-.426 30.258 30.258 0 0 0 1.914-1.654l.269-.251c.11-.101.224-.213.348-.333.121-.122.22-.213.286-.276.285-.285.5-.511.648-.674.163.217.28.363.35.438.07.075.208.203.413.38-.318.26-.555.46-.71.593Zm-1.43 3.949 1.123-.615a63.862 63.862 0 0 0 3.288-1.888c.02.016.04.035.061.06a1.11 1.11 0 0 0 .13.128.62.62 0 0 0 .104.067c.04.023.079.042.114.063l-.029.125a128.679 128.679 0 0 0-1.345 4.643l-.012.082-.04.052-.222-.195a3.826 3.826 0 0 0-.225-.194 4.988 4.988 0 0 0-.469-.327c.232-.618.396-1.087.49-1.404a7.95 7.95 0 0 1-.292-.241 8.867 8.867 0 0 0-.296-.243c-.14-.11-.362-.275-.67-.498l-.083.055-.6.38c-.206.131-.388.26-.55.388a1.584 1.584 0 0 0-.509-.397l.032-.041Zm2.106-.6.993.774c.14-.422.308-.97.504-1.643-.538.289-1.017.569-1.441.833l-.056.036Zm6.528 6.055c-.655.108-1.308-.034-1.956-.423-.678-.406-1.095-.925-1.252-1.555-.163-.604-.052-1.226.33-1.862.391-.652.94-1.038 1.65-1.16.657-.098 1.307.046 1.947.431.543.325.918.732 1.13 1.223.174.408.233.79.177 1.144a2.797 2.797 0 0 1-.38 1.044 2.526 2.526 0 0 1-.7.757 2.361 2.361 0 0 1-.946.4Zm-.252-.795c.361-.216.69-.57.986-1.062.16-.268.274-.555.338-.86.064-.306.05-.594-.043-.868a1.213 1.213 0 0 0-.556-.662 1.282 1.282 0 0 0-.781-.197c-.262.02-.498.1-.71.238-.336.22-.665.594-.984 1.126a2.62 2.62 0 0 0-.333.844c-.057.29-.038.568.057.83.097.261.284.477.562.645.449.268.937.257 1.464-.034Zm5.582-.524c-.073.178-.183.443-.333.792a39.545 39.545 0 0 0-.487 1.194c-.07.181-.123.32-.162.415-.044.109-.107.28-.191.515a16.8 16.8 0 0 1-.191.517l-.243-.117a4.448 4.448 0 0 0-.266-.123 4.793 4.793 0 0 0-.26-.09l-.27-.09c.046-.1.112-.25.205-.446a83.272 83.272 0 0 0 1.114-2.593c.077-.188.18-.463.31-.821-.124-.05-.313-.12-.57-.208a14.617 14.617 0 0 0-.645-.181.916.916 0 0 0 .136-.252c.042-.105.07-.18.082-.231 0-.007.001-.022.006-.042a.184.184 0 0 0 .006-.044c.205.098.365.168.474.213.455.2.837.363 1.148.488l.66.266c.108.044.272.102.485.175.214.07.386.132.52.187-.056.079-.099.16-.132.244-.04.1-.075.209-.098.325a7.705 7.705 0 0 0-1.094-.545l-.204.452Zm5.703 4.703c-.58.326-1.241.416-1.985.273-.775-.151-1.343-.495-1.708-1.034-.358-.513-.469-1.135-.326-1.863.145-.747.528-1.296 1.153-1.652.584-.318 1.244-.405 1.978-.264.622.12 1.113.376 1.479.764.304.324.49.662.557 1.014.076.356.076.726 0 1.112-.068.345-.2.663-.4.95-.198.29-.45.523-.748.7Zm-.51-.661c.266-.325.454-.77.563-1.335a2.77 2.77 0 0 0 .023-.924 1.615 1.615 0 0 0-.337-.801 1.214 1.214 0 0 0-.747-.43 1.272 1.272 0 0 0-.804.08c-.237.11-.433.265-.583.467-.242.322-.423.786-.54 1.396-.062.31-.07.614-.025.906.045.293.158.545.337.761.18.212.43.352.749.413.514.1.968-.078 1.364-.533Zm3.766 1.466a2.074 2.074 0 0 0-.27-.03 1.617 1.617 0 0 0-.318.02 26.44 26.44 0 0 0 .153-1.531 51.078 51.078 0 0 0 .102-2.285c.004-.245.008-.431.014-.558.004-.14.004-.25.001-.328.147.034.25.05.304.054.062.001.168-.009.318-.032.262.309.509.595.735.86.228.262.486.553.766.878.28.323.522.6.72.834.2.23.416.49.65.778l.054-1.511.026-.772a5.932 5.932 0 0 0-.004-.431c-.006-.175-.011-.306-.011-.393l-.006-.14c.149.034.251.051.306.053.046.001.1-.002.163-.008.065-.007.116-.013.155-.014a4.91 4.91 0 0 0-.035.38 18.989 18.989 0 0 0-.106 1.216 24.443 24.443 0 0 0-.05.68 9.86 9.86 0 0 0-.014.27l-.075 2.146a.18.18 0 0 0-.074-.013 1.586 1.586 0 0 0-.19-.018 1.56 1.56 0 0 0-.295.012 63.772 63.772 0 0 0-2.168-2.606l-.715-.81c-.028.424-.046.729-.053.919l-.022.635a24.985 24.985 0 0 0-.016 1.757l-.045-.012Zm9.058-4.384c-.396-.384-.883-.519-1.459-.407-.553.108-.95.433-1.192.973-.176.42-.21.907-.1 1.466.054.284.16.553.316.811.155.255.347.444.574.568.142.075.26.123.35.142.09.022.224.037.399.047.158-.002.28-.011.361-.028a2.46 2.46 0 0 0 .448-.14.667.667 0 0 0 .142-.056.353.353 0 0 0 .114-.07c.003-.004.004-.016.004-.035-.001-.021 0-.032.004-.033l-.1-.517a17.97 17.97 0 0 0-.248-1.04 4.485 4.485 0 0 0 1.049-.203c.028.317.082.687.164 1.11.034.171.09.424.168.754-.666.33-1.236.541-1.706.634-.363.07-.717.09-1.06.061a2.647 2.647 0 0 1-.947-.253 2.046 2.046 0 0 1-.73-.6 2.262 2.262 0 0 1-.406-.96 2.66 2.66 0 0 1 .001-1.118 2.18 2.18 0 0 1 .442-.907 2.59 2.59 0 0 1 .797-.65c.319-.171.673-.293 1.064-.369a3.304 3.304 0 0 1 1.698.089 5.82 5.82 0 0 0-.053.712l-.094.019Zm7.417-2.547c.028.068.067.173.122.317.053.141.095.25.123.316.031.08.075.196.132.356.057.16.1.28.132.356.186.498.296.895.333 1.19.036.297-.053.606-.266.93-.22.348-.578.622-1.072.821a3.256 3.256 0 0 1-.827.218c-.274.036-.537.01-.79-.073a1.354 1.354 0 0 1-.65-.474 1.717 1.717 0 0 1-.195-.319 3.716 3.716 0 0 1-.198-.432c-.053-.131-.11-.272-.177-.423a21.344 21.344 0 0 1-.152-.359l-.325-.805-.15-.36c-.072-.164-.122-.285-.154-.361a2.677 2.677 0 0 0-.057-.133 2.444 2.444 0 0 1-.063-.139c.262-.075.442-.132.546-.174.105-.043.27-.125.495-.246.012.033.027.086.05.16l.047.167c.194.568.378 1.071.555 1.51.235.58.41.977.524 1.191.116.172.216.3.296.382a.958.958 0 0 0 .341.206c.267.105.548.098.84-.02.295-.119.505-.274.633-.465.128-.19.194-.445.197-.762-.006-.22-.148-.675-.427-1.366a29.434 29.434 0 0 0-.828-1.903c.165-.036.277-.066.337-.092.064-.024.169-.081.31-.169.011.048.03.115.056.197.03.084.056.171.09.263.03.093.058.17.082.234l.09.261Zm3.876 2.047c-.088.04-.168.084-.239.13a1.575 1.575 0 0 0-.248.2c-.23-.439-.48-.887-.753-1.343a54.359 54.359 0 0 0-.922-1.47c-.067-.103-.17-.256-.306-.46-.136-.203-.24-.36-.308-.464a4.474 4.474 0 0 0-.187-.27c.14-.057.233-.101.28-.131.051-.034.132-.104.241-.209.393.104.758.197 1.095.283.339.082.717.176 1.131.28.416.104.772.192 1.068.27.295.076.622.163.981.265l-1.245-1.916a5.623 5.623 0 0 0-.251-.35c-.105-.141-.183-.246-.234-.317l-.085-.11a1.97 1.97 0 0 0 .28-.133c.039-.025.081-.059.13-.1.05-.043.087-.077.119-.102.082.154.144.265.19.334.159.294.3.546.426.756.077.124.14.225.184.3l.164.282a28.525 28.525 0 0 0 .329.534l1.169 1.8a.15.15 0 0 0-.068.032 1.682 1.682 0 0 0-.401.273 63.427 63.427 0 0 0-3.271-.892l-1.05-.253c.219.363.381.625.484.782l.346.535c.427.657.758 1.139.994 1.448l-.043.016Zm3.144-6.873c.097.113.233.278.415.495.176.217.327.394.45.532.133.149.304.327.513.539.207.213.367.378.476.494.08.084.2.204.36.362.162.159.282.279.357.358-.045.037-.116.093-.213.169a3.548 3.548 0 0 0-.21.17 6.169 6.169 0 0 0-.432.432 29.48 29.48 0 0 0-1.622-1.943l-.245-.274c-.1-.11-.21-.228-.326-.353-.12-.124-.21-.224-.272-.292-.28-.29-.502-.509-.663-.66.22-.157.368-.273.445-.341.076-.07.207-.205.389-.407.252.323.446.563.578.719Zm5.668-.236-.115.098c-.053.044-.093.08-.118.106a1.482 1.482 0 0 0-.187.246c-.714-.303-1.475-.615-2.281-.934-.808-.32-1.614-.63-2.417-.93.215-.189.363-.327.443-.414.08-.086.207-.243.38-.47.33.166.668.321 1.009.469.34.146.734.31 1.182.493.448.183.832.341 1.152.477a49.538 49.538 0 0 0-1.626-3.28l.04-.026.024-.015c.169-.18.288-.318.361-.414l.697 1.548c.273.607.531 1.163.77 1.67.242.506.469.965.686 1.376Zm-1.65-5.544c.074-.098.18-.237.32-.414.139-.18.254-.33.338-.452.134-.19.288-.42.461-.686.176-.266.311-.47.405-.608.092.07.227.17.412.3.022.007.047.019.077.04-.433.518-.756.93-.97 1.236.128.1.323.24.584.423l.308.223c.136.1.239.173.307.22l.858-1.313c.098.105.177.177.236.217.05.035.13.075.24.117-.29.355-.542.68-.749.977-.02.026-.052.072-.098.132-.047.06-.08.108-.103.14l.72.504.707.495c.245-.346.523-.8.838-1.356.087.071.224.17.408.3.022.006.046.02.076.04-.082.11-.206.276-.375.495-.168.217-.29.385-.37.497-.053.075-.128.19-.229.34-.1.156-.173.267-.222.339-.074.104-.184.275-.334.514-.033-.027-.085-.07-.157-.124a2.556 2.556 0 0 1-.152-.121c-.105-.078-.274-.2-.508-.377-.232-.173-.41-.301-.531-.386a33.59 33.59 0 0 1-.42-.3l-.425-.304-.658-.461a9.883 9.883 0 0 0-.456-.297c-.206-.13-.359-.228-.46-.295l-.077-.055Zm5.42-3.009a7.543 7.543 0 0 0-.4.029c-.034.002-.055.012-.064.03-.01.019-.001.035.025.046.12.059.303.145.551.258.247.113.431.198.551.256l.17.084c.17.075.392.163.673.267a17.97 17.97 0 0 1-.14.246 4.647 4.647 0 0 0-.135.244c-.026.053-.062.14-.11.259-.047.117-.084.203-.107.258l-.108-.066a6.276 6.276 0 0 1-.15-.08l-.12-.069c-.029-.017-.07-.04-.127-.077a20.706 20.706 0 0 0-1.203-.622c-.123-.06-.31-.15-.562-.269l-.565-.269c-.29-.142-.753-.352-1.387-.631l.225-.42c.048-.096.117-.245.206-.444.09-.199.16-.349.209-.449.241-.493.444-.806.612-.935.385-.262.775-.296 1.168-.104.293.143.493.346.603.611.107.267.12.563.04.89.362-.018 1.12-.097 2.272-.245l.46-.043-.153.273c-.07.12-.12.214-.15.272-.089.183-.17.375-.245.575l-1.612.095-.427.03Zm-1.667-.517.486.237c.196.096.344.172.443.228.165-.337.21-.618.14-.84-.072-.225-.256-.41-.554-.555-.122-.059-.231-.1-.328-.124a.669.669 0 0 0-.342-.01.502.502 0 0 0-.236.14c-.064.069-.124.156-.179.26l-.162.308.732.356Zm1.947-5.533c-.418.02-.684.212-.8.575-.07.216-.07.409.002.578.075.166.206.28.389.34.154.049.31.024.462-.071.155-.099.353-.266.596-.506a6.79 6.79 0 0 1 .62-.553c.171-.13.351-.204.542-.22a1.39 1.39 0 0 1 .617.08c.2.064.389.181.566.347.228.22.363.52.408.902.037.28-.001.594-.115.941-.132.407-.337.729-.615.968a6.31 6.31 0 0 0-.765-.459l.04-.123a.902.902 0 0 0 .616-.151.988.988 0 0 0 .374-.525.903.903 0 0 0 .005-.599c-.065-.187-.203-.312-.41-.38-.185-.06-.378-.035-.583.08-.213.16-.43.36-.65.6a3.847 3.847 0 0 1-.272.236 9.228 9.228 0 0 0-.221.181.905.905 0 0 1-.521.196 1.57 1.57 0 0 1-.61-.071 1.313 1.313 0 0 1-.865-.83 1.392 1.392 0 0 1-.105-.538c.006-.168.041-.362.113-.58.122-.378.316-.677.577-.894.014-.001.032-.012.06-.035.18.136.373.273.577.41l-.032.101ZM96.052 71.794c.143.037.35.093.622.168.27.077.495.135.675.177.195.046.437.095.729.148l.673.13c.114.024.281.054.504.092.224.037.39.067.498.088l-.078.26a3.831 3.831 0 0 0-.075.258 6.25 6.25 0 0 0-.106.604 30.058 30.058 0 0 0-2.442-.663l-.36-.082c-.145-.034-.3-.068-.47-.103a17.264 17.264 0 0 0-1.31-.242c.09-.256.144-.436.167-.536.024-.1.052-.286.085-.556.393.12.69.206.888.257Zm.66-3.644c.194.019.478.053.855.1.378.047.662.08.849.1a157.614 157.614 0 0 1 .874.08c.119.014.302.028.55.043.248.016.431.03.548.04-.008.054-.023.143-.045.268a4.653 4.653 0 0 0-.045.288 3.468 3.468 0 0 0-.013.274l-.014.285c-.109-.015-.27-.04-.484-.073a8.604 8.604 0 0 0-.479-.069 77.885 77.885 0 0 0-2.322-.288c-.2-.021-.492-.044-.875-.072a14.81 14.81 0 0 0-.043.605c-.002.259 0 .482.006.67a1 1 0 0 0-.281-.06 1.942 1.942 0 0 0-.244-.016.168.168 0 0 1-.043.007.134.134 0 0 0-.043.006c.038-.225.061-.397.073-.515.069-.492.119-.905.153-1.238l.074-.707a7.84 7.84 0 0 0 .034-.514c.01-.225.02-.408.037-.551.091.03.182.049.271.058.108.011.221.014.338.005-.106.4-.18.8-.22 1.2l.49.074Zm-.775-2.673a6.413 6.413 0 0 0-.064-.61c.1-.05.197-.102.298-.155.098-.05.197-.102.297-.151.146-.075.357-.189.636-.34.13-.07.326-.172.589-.307a1.4 1.4 0 0 0 .214-.143.745.745 0 0 1-.138-.115 1.666 1.666 0 0 0-.215-.106c-.15-.08-.426-.203-.827-.377a7.1 7.1 0 0 0-.571-.232l-.2-.08a8.66 8.66 0 0 1-.155-.066c.004-.006.007-.02.01-.036a.274.274 0 0 1 .01-.038c.007-.052.007-.126.003-.224a1.85 1.85 0 0 0-.045-.347 57.6 57.6 0 0 1 1.247.639c.595.312 1.067.544 1.415.698.351.002.616 0 .793-.008.223-.007.655-.047 1.299-.121a24.52 24.52 0 0 1-.008.296 5.7 5.7 0 0 0-.004.3c.008.196.024.39.053.58a15.26 15.26 0 0 0-1.569-.021 5.538 5.538 0 0 0-.39.003c-.214.139-.427.268-.638.392-.209.126-.43.256-.663.388l-.735.415c-.257.147-.48.272-.662.383.018-.287.025-.491.02-.617Z"/><path fill-rule="evenodd" clip-rule="evenodd" d="M64 20c24.296 0 44 19.704 44 44s-19.704 44-44 44c-24.297 0-44-19.704-44-44s19.703-44 44-44Zm0 1.655c23.383 0 42.345 18.962 42.345 42.345S87.383 106.345 64 106.345 21.655 87.383 21.655 64 40.617 21.655 64 21.655Z"/><path d="M64 22.77c11.383 0 21.692 4.615 29.153 12.077 7.462 7.461 12.078 17.77 12.078 29.153s-4.616 21.692-12.078 29.153c-7.461 7.462-17.77 12.078-29.153 12.078s-21.692-4.616-29.153-12.078C27.385 85.692 22.769 75.383 22.769 64s4.616-21.692 12.078-29.153C42.308 27.385 52.617 22.769 64 22.769Zm28.545 12.685C85.239 28.15 75.146 23.63 64 23.63s-21.239 4.52-28.545 11.825C28.15 42.761 23.63 52.854 23.63 64s4.52 21.239 11.826 28.545C42.761 99.85 52.854 104.372 64 104.372s21.239-4.521 28.545-11.827C99.85 85.239 104.37 75.146 104.37 64s-4.52-21.239-11.825-28.545Z"/><path fill-rule="evenodd" clip-rule="evenodd" d="m65.656 35.708.327 3.142c.884.07 1.755.186 2.608.344l1.133-2.953c1.09.225 2.156.514 3.198.86l-.496 3.123c.83.296 1.638.633 2.425 1.01l1.856-2.557c.99.5 1.947 1.057 2.867 1.664l-1.288 2.887c.72.498 1.413 1.03 2.078 1.598l2.452-1.989c.827.737 1.61 1.52 2.346 2.347l-1.988 2.452c.567.665 1.1 1.358 1.598 2.078l2.885-1.288c.609.92 1.165 1.877 1.665 2.867l-2.557 1.856c.378.787.714 1.596 1.011 2.425l3.122-.496c.347 1.04.636 2.108.861 3.198l-2.953 1.131c.158.855.274 1.726.344 2.61l3.142.327c.032.548.05 1.1.05 1.656 0 .555-.018 1.108-.05 1.656l-3.142.329c-.07.882-.186 1.753-.344 2.608l2.953 1.13a28.242 28.242 0 0 1-.86 3.2l-3.124-.497c-.296.83-.632 1.638-1.01 2.425l2.557 1.856c-.5.99-1.056 1.947-1.665 2.867l-2.885-1.288a25.383 25.383 0 0 1-1.6 2.078l1.99 2.452c-.736.827-1.52 1.61-2.346 2.346l-2.452-1.988c-.665.567-1.358 1.1-2.078 1.598l1.288 2.887a28.713 28.713 0 0 1-2.867 1.664l-1.856-2.556c-.787.376-1.596.713-2.425 1.009l.496 3.122a28.242 28.242 0 0 1-3.198.861l-1.133-2.953a24.83 24.83 0 0 1-2.608.344l-.327 3.142a27.742 27.742 0 0 1-3.313 0l-.328-3.142a25.228 25.228 0 0 1-2.608-.344l-1.13 2.953a28.163 28.163 0 0 1-3.2-.86l.497-3.123a25.425 25.425 0 0 1-2.425-1.01l-1.855 2.557c-.99-.5-1.948-1.057-2.868-1.664l1.288-2.887a25.721 25.721 0 0 1-2.079-1.598l-2.453 1.988a28.858 28.858 0 0 1-2.345-2.346l1.99-2.452a25.682 25.682 0 0 1-1.6-2.078l-2.886 1.288a28.463 28.463 0 0 1-1.664-2.867l2.556-1.856a25.425 25.425 0 0 1-1.009-2.425l-3.122.496a28.147 28.147 0 0 1-.862-3.198l2.953-1.131a25.254 25.254 0 0 1-.343-2.608l-3.142-.329a27.739 27.739 0 0 1 0-3.312l3.142-.327c.07-.884.184-1.755.343-2.61l-2.953-1.13c.226-1.09.515-2.157.862-3.2l3.122.497c.296-.83.633-1.638 1.01-2.425l-2.557-1.855c.5-.99 1.057-1.948 1.664-2.868l2.887 1.288a25.682 25.682 0 0 1 1.598-2.078l-1.989-2.452a28.635 28.635 0 0 1 2.345-2.346l2.453 1.988c.664-.567 1.359-1.1 2.078-1.598l-1.287-2.887a28.713 28.713 0 0 1 2.867-1.664l1.856 2.556a25.425 25.425 0 0 1 2.425-1.009l-.496-3.122a28.163 28.163 0 0 1 3.198-.861l1.131 2.953c.855-.16 1.726-.274 2.608-.344l.328-3.142a27.756 27.756 0 0 1 3.313 0ZM64 41.366c12.466 0 22.634 10.168 22.634 22.634 0 12.466-10.168 22.634-22.634 22.634-12.466 0-22.634-10.168-22.634-22.634 0-12.466 10.168-22.634 22.634-22.634Z"/><path fill-rule="evenodd" clip-rule="evenodd" d="M50.67 58.279h20.603l.474.6v5.206c-1.606.49-2.733.765-2.958 2.561-.181 1.884 1.037 3.064 2.153 4.344.39.447.915.79 1.297 1.285.008.012.018.01 0 .01-4.077-.036-11.659-.006-15.733.002-.174-.173 1.7-1.048 2-1.404.722-1.271 1.213-3.216.594-4.54-.084-.18-.532-.862-.702-1.02-.805-.526-1.603-1.127-2.521-1.457.056-.406.207-.864.312-1.244.328-1.19.534-1.602.865-2.796.176-.52-1.123-1.34-1.48-.293-.495 1.447-.958 2.409-1.484 3.94-.735-.154-.895-.24-1.671-.255-.151-.002-.566-.13-.704-.19-.366-.15-.572-.253-.734-.617-.031-.072-.113-.274-.114-.35-.02-1.2-.206-2.412-.197-3.782ZM72.153 58.554h6.503l.015-.043c.043-.134.072-.15.208-.216.12-.056.423-.169.552-.17a3.18 3.18 0 0 1 .744.093c.112.031.164.253.236.336h1.28v.005c-.108.31-.126.338-.48.64-.096.08-.279.167-.44.24-.079.035-.115.019-.206.09-.005.004-.006.034-.008.07.008.204-.017.403-.001.587.04.491-.263.918-.71 1.005v1.45c.102.006.203.014.305.026.33.182.404.362.445.625.085.55.039 1.255.079 1.8-.011.48-.285.777-.576.923a1 1 0 0 1-.243.026v1.435c.288.015.493.075.633.37.21.447.176 1.864.072 2.406-.057.302-.286.487-.53.578-.084.042-.74.059-.854.027-.233-.067-.384-.154-.482-.288-.387-.526-.342-2.39-.015-2.831a.555.555 0 0 1 .393-.236c.077-.01.154-.017.232-.022v-1.44a1.1 1.1 0 0 1-.198-.017c-.234-.066-.383-.153-.481-.288a.896.896 0 0 1-.184-.566c.006-.492.035-1.153 0-1.675.088-.458.135-.64.555-.817.073-.01.225-.026.301-.03v-1.555l-.03-.017c-.031-.019.011-.127-.019-.148a.21.21 0 0 0-.084-.022l-.002.001-.005-.001c-.01 0-.138-.02-.138-.02-.004.06.025.125-.023.167a.182.182 0 0 0-.029.02c-.093.04-.325.166-.606.512a13.336 13.336 0 0 1-2.668 1.365 5.314 5.314 0 0 1-.584.171c-.987.247-1.825.413-2.339.535-.318.073-.543.067-.618.072v-5.172Zm7.703 9.38v.158c0 .276-.55.264-.55.014v-.157c-.07.005-.133-.01-.181-.004-.307.023-.364 1.996-.11 2.37.163.18 1.039.249 1.14-.095.135-.455.184-2.066-.102-2.274a1.927 1.927 0 0 0-.197-.012Zm-.01-4.833v.055c-.032.244-.574.234-.548.013v-.053c-.091-.018-.247-.014-.269.015-.25.172-.16 1.428-.163 1.704-.003.151.013.574.079.648.053.057.192.103.36.128v-.015c0-.35.551-.408.551-.001v.013c.179-.032.302-.102.336-.222.048-.161.098-.371.084-.588a12.07 12.07 0 0 1-.022-.906c-.02-.273.033-.61-.201-.779a1.73 1.73 0 0 0-.206-.012ZM56.114 72.567H72.35c.37.046.418.214.532.358v1.359l-.262.001c-.127.002-.299-.133-.426-.133-5.286.02-10.299.01-15.58.032-.086 0-.4.17-.486.17h-.403c-.006-.268-.167-1.787.39-1.787ZM55.454 55.854h8.007v1.998h-8.007v-1.998Zm7.051.223h.205v1.551h-.205v-1.55ZM55.454 53.513h8.007v1.998h-8.007v-1.998Zm7.051.224h.205v1.55h-.205v-1.55ZM55.454 51.172h8.007v1.997h-8.007v-1.997Zm7.051.224h.205v1.55h-.205v-1.55ZM66.37 46.804v11.012h-2.384V46.852c0-.516 2.164-.618 2.385-.047ZM68.7 47.535v10.282h-1.983v-10.24c0-.48 1.8-.576 1.982-.041Z"/><path fill-rule="evenodd" clip-rule="evenodd" d="m70.335 49.069 5.42 8.41-1.82 1.174-5.398-8.376c-.254-.393 1.348-1.537 1.798-1.208ZM46.751 80.279h34.326a25.945 25.945 0 0 1-.712.99l-.068.09-.17.223H47.7l-.13-.17-.153-.201a25.358 25.358 0 0 1-.667-.932ZM62.299 50.977c-.787 0-1.575-.03-2.363-.04H57.71c-.193-.145-.3-.215-.362-.372-.013-.037-.024-.031.017-.034 3.057-.263 3.29-.276 3.278-.337-2.094-.068-3.975.14-5.93.791-.418.097-.853.221-1.286.212.193-.572.473-.667.525-1.37 2.37-.495 4.634-.886 7.118-.728.874-1.392 3.264-.48 2.231 1.346-.327.383-.518.402-1.001.532Zm-.528-.552c.087-.163.303-.264.404-.435.059-.01.116-.02.173-.025-.057-.491-.082-.434-.255-.817.966.179.8.746.258 1.098-.248.16-.347.127-.58.179ZM49.666 76.61c.388-1.05 6.37-17.303 6.338-17.288l.721.326s.06-.035-.124.558c-.184.594-2.16 6.098-2.16 6.098l-3.81 10.671-.965-.365Z"/><path fill-rule="evenodd" clip-rule="evenodd" d="M50.763 76.698c.56.221 1.09.433 1.503.6.007.056.012.114.02.171.058.1.066.213.155.274.146.104.362.135.315.253l-.862 2.13c-.037.094-.244-.017-.431-.043-.086-.011-.152.032-.224.057l-.161.098c-1.1-.445-3.024-1.196-4.124-1.64l-.019-.152c-.024-.058-.029-.156-.07-.194-.175-.168-.486-.14-.411-.326l.854-2.109c.04-.1.236-.01.426.018.087.012.174-.025.24-.031.051-.039.12-.107.17-.147.451.185 1.043.418 1.66.662l.959.38ZM53.316 74.549h21.949v5.157H53.316V74.55Zm6.263.781h-.778c-.105.532-.46.797-1.069.797v.719h.816v2.04h1.031V75.33Zm3.088 2.877c-.376.05-.577-.086-.603-.41 0-.297.163-.445.487-.445.298.012.453.162.467.446 0 .247-.117.382-.35.409Zm-.135-1.419c-.286-.013-.435-.136-.447-.37.012-.245.168-.376.466-.388.273.012.415.143.427.387-.012.235-.162.358-.446.371Zm-.934.272c-.401.155-.595.415-.583.777.026.7.54 1.063 1.536 1.089.96-.026 1.457-.389 1.495-1.089 0-.376-.193-.648-.582-.817.31-.116.466-.356.466-.719-.051-.608-.504-.931-1.36-.97-.919.039-1.4.367-1.437.99-.014.338.143.583.465.739Zm4.51-.04c-.273-.012-.415-.168-.429-.466.014-.311.162-.472.448-.484.285.025.44.173.466.446 0 .31-.162.48-.486.504Zm-1.38 1.012c.115.595.588.894 1.418.894.985-.026 1.495-.615 1.534-1.77 0-1.216-.543-1.826-1.631-1.826-.92.026-1.393.44-1.419 1.244.066.712.46 1.087 1.186 1.127.31.014.587-.072.834-.251 0 .53-.181.795-.543.795-.22 0-.364-.091-.428-.273l-.952.06Zm5.13-.758c.283.012.433.17.447.465-.014.313-.17.473-.467.487-.285-.026-.442-.181-.466-.466.012-.325.174-.486.485-.486Zm1.379-1.01c-.116-.623-.59-.934-1.418-.934-.985.04-1.498.641-1.536 1.808 0 1.192.551 1.788 1.652 1.788.906-.026 1.374-.428 1.398-1.206-.064-.712-.46-1.087-1.185-1.127a1.21 1.21 0 0 0-.816.253c-.012-.531.163-.804.525-.816.22 0 .363.097.427.292l.953-.059ZM79.102 27.883c-.568-.23-1.239-.4-1.629.116-.4.636-.59 1.225-.366 1.42.134.15.783.495 1.572.872l-.146.322-.401-.193c-1.035-.32-1.926.265-2.97 1.408-.672.312-1.663-.196-1.204-.773.558-.123.855-.339 1.017-.766.149-.758.213-1.51.637-1.76 1.53-.529 1.273-1.486.556-2.129-.614-.455-1.221-.52-1.12.062.19.571.529 1.253-.367 1.155l-2.517-.752c-.713-.246-1.164.734-.235 1.155.505.196 1.074.226 1.521.296.632.053.587.66-.166.54l-1.821-.157c-.628-.036-.974.899.308 1.005.56.045 1.166-.091 1.74-.235.497-.005.559.386.215.636-.366.203-.86.238-1.433.242-.707-.039-1.275.143-1.208.871l-.57 1.518c-.35.921-.026 1.384.562 1.281l1.667.39c3.434.614 5.408 1.621 6.7 3.876.398.62 1.35.742 1.303-.127-.11-.402-.332-.772-.655-1.153.641-.945 1.181-1.972 1.491-2.986.451-1.446-.548-2.042-1.072-2.46l-.53-.253.16-.346c.887.39 1.68.706 1.908.753.475.106.651-.403.933-1.217.223-.648-.414-.978-1.43-1.511l-2.45-1.1Zm.496 4.017c-.19-.133-.278.017-.333.255-.028.213.42.465.641.53.281-.26-.088-.588-.308-.785Zm-1.873-.717c-.136.013-.301.012-.248.316.064.178.535.322.62.126.103-.262-.092-.392-.372-.442Zm1.23 2.177c-.028-.358.56-.14.826.097.147.147.445.4.383.593-.245.492-1.109-.075-1.21-.69Zm-2.097-1.226c-.159-.02-.296.077-.322.39.022.22.735.52 1.007.364.52-.375-.427-.7-.685-.754Zm1.49 2.257c-.392-.146-.84.263-.733.879.13.362.882.56 1.266.763.349.05.667-.462.608-.813-.173-.248-.735-.537-1.142-.829Zm-2.867-.89c-.34.319-.214.61.115.915.255.2.644.303.978.214.265-.15.41-.629.295-.866-.161-.32-.955-.654-1.388-.264Zm-1.585-.734c-.328-.048-.537.154-.553.478-.003.329.36.546.698.374.318-.252.391-.676-.145-.852Zm-1.88-.935-.443 1.164c.069.358.568.34.66.102l.447-1.155c-.015-.425-.466-.466-.665-.11Zm6.749-3.12c-.345-.094-.5.243-.392.552.135.204 1.995.927 2.966 1.342.575-.077.333-.58-.19-.817l-2.384-1.077ZM44.31 31.992c-1.602.548-1.483 2.118.396.971a40.063 40.063 0 0 1 3.179-1.805l-.002.003c.255.112.377.338.404.578-1.508 1.254-3.255 3.094-3.744 6.25-.13.91 1.148 1.711 1.43.24.138-2.547 1.436-4.338 2.429-5.341.764-.581 1.825-1.25 3.368-1.042 1.804.057 2.755 1.082 4.127 2.07.72.28 1.446-.496.396-1.537-1.421-1.303-4.18-2.032-6.706-1.418 0 0-.239-.314-.084-.552H49.5c1.13-.476 2.244-.838 3.304-1.038 1.379-.098 1.616-1.39.016-1.335-1.147.001-3.963 2.414-4.514.878-.46-1.275-2.057-.96-1.002.602.78 1.114-1.63 1.672-2.993 2.476ZM27.657 47.12c.076-.223.405-.88.605-.96.295-.1.64.05.246.644-.666 1.041-.055 1.941.25 1.008.212-1.152 1.013-1.55.858-.436-.145.641.051.986.306.659.142-.108.245-.707.475-.87.662-.321.656.706.149 1.534-.375.813-1.248.873-2.303.371-.929-.496-.826-1.14-.586-1.95Zm8.76-1.884c-.05-1.536 1.372-.355 1.211.298-.217.948-.612 1.81-1.057 2.447.43.558.629 1.219.387 1.905-.377.835-1.171.967-1.081.354.367-.901-.15-1.16-.627-.732-.334.338-.679 1.234-1.466 1.2-.98-.13-.108-1.065.183-1.452l.151-.123c-.173.091-.417.113-.79-.029-.673-.344-.305-1.368.122-2.238.468-.948.836-1.664 1.319-1.772 1.075-.011 1.145.855.83 1.608.3 1.237.954-.55.818-1.466Zm-2.106 3.741.002-.002c.547.019 1.071-.818.554-.889l-.354.597c-.056.088-.118.199-.202.294Zm-.33-1.889c-.126.344-.279.7-.13.842.337.264.742-.43 1.015-1.17.18-1.115-.478-.59-.886.328Zm-1.796 5.666c.939.875 1.356-.18.521-1.005-1.448-2.046-.422-3.868.401-5.47.946-1.578 2.35-3.173 4.2-2.76 1.568.355 1.617-1.283.282-1.302-2.01-.273-3.115.958-4.428 2.85l-.284-.186.719-1.188c.215-.59.378-1.352-.573-2.27-.588-.516-1.243-.881-1.81-.437-.489.54-.798 1.219-1.05 1.884 0 .077.009.131.03.168l-.2.113c-.155.127-.447.281-.478.633.055.28.182.412.11.778l-.457.619c-.29.368-.205.795.214.692.35-.156.542-.103.682.015l.118.458c.053.337.182.487.664.16.273-.078.753.132 1.035.532-1.1 2-1.397 4.039.304 5.717Zm.551-7.068-.331.49c-.086.13-.17.263-.252.395-.701-.694.151-1.176.584-.885Zm-.331-1.113c-.226.258-.793.42-.934-.086.053-.71-.362-.872-.647-.315-.172.218-.577.076-.488-.403l.303-.825c.141-.093.302-.209.454-.293.393-.827 1.122-.993.843-.067-.217.53.022 1.19.416.713.383-.492.766-.37.615.135-.292.486-.41.795-.562 1.14ZM98.53 45.894c1.39-.65.75-1.972-.785-1.36-.789.035-3.05-1.874-3.952-2.703-.65-.787-1.62-.274-.857.599 1.044 1.098 2.505 2.199 3.934 2.797.46.202.76.852.636 1.365-.23 1.465.106 4.2.355 5.048.178.656 1.368.813 1.1-.061-.52-1.852-.507-5.234-.43-5.685Z"/><path fill-rule="evenodd" clip-rule="evenodd" d="M95.184 44.52c-.93-.265-1.596-.584-2.43-1.365-.677-.568-1.426-.156-.63.84.933.972 2.29 1.43 3.264 1.608.689-.024.667-.835-.204-1.084ZM97.239 48.197c-.3.92-.403 1.65-.219 2.779.097.877-.661 1.271-1.049.054-.287-1.315.088-2.697.48-3.605.402-.56 1.066-.09.788.772Z"/><path fill-rule="evenodd" clip-rule="evenodd" d="M95.015 45.525c-.839 1.496.274 2.545 1.25 2.375l-.329 1.294c-.311-.4-.936-1.16-1.146.05-.072 1.45-.202 3.435-.74 4.325-.61.791-1.51.389-1.204-.514.429-1.42.882-2.765.861-4.453-.052-.541-.135-1.19-1.094-1.683a70.113 70.113 0 0 0-3.428-1.461c-1.133-.54-.473-1.496.227-1.255 1.174.4 2.31 1.01 3.228 1.72.99.731 1.022-.199 1.12-.817l1.255.419ZM95.577 44.476c-.109.118-.285.08-.514.008l-.048 1.04.525.058a1.16 1.16 0 0 0 .75-.625l-.713-.481ZM97.481 47.002c-.234.12-.767.02-1.03.423l.736.934c.145-.218.147-.391.31-.483l-.016-.874Z"/></g><defs><filter id="a" x="-13" y="0" width="154" height="157" filterUnits="userSpaceOnUse" color-interpolation-filters="sRGB"><feFlood flood-opacity="0" result="BackgroundImageFix"/><feColorMatrix in="SourceAlpha" values="0 0 0 0 0 0 0 0 0 0 0 0 0 0 0 0 0 0 127 0" result="hardAlpha"/><feOffset dy="16"/><feGaussianBlur stdDeviation="6.5"/><feColorMatrix values="0 0 0 0 0 0 0 0 0 0 0 0 0 0 0 0 0 0 0.03 0"/><feBlend in2="BackgroundImageFix" result="effect1_dropShadow_49_9273"/><feBlend in="SourceGraphic" in2="effect1_dropShadow_49_9273" result="shape"/></filter></defs></svg>