<svg width="128" height="128" fill="none" xmlns="http://www.w3.org/2000/svg"><path d="M17.163 64.912c1.681-.09 1.192-1.95 1.192-1.95-1.89-4.604-3.834-4.651-3.834-4.651-1.019-.212-.229.993-.229.993.858.776 1.07 4.267 1.07 4.267.26 1.723 1.801 1.341 1.801 1.341Z" fill="#CC1233"/><path d="M26.197 60.5c.185-.564-.372-1.453-.372-1.453-1.066-.685.419-1.534.419-1.534l2.086-1.494c1.067-.687.093-1.171.093-1.171-.696-.363-2.179.161-2.179.161l-3.106 1.615c-.65.283-.556-.28-.556-.28l.23-1.496c.418-1.495-1.3-1.817-1.3-1.817-1.76-.242-2.084-.646-2.084-.646-1.67.042-.697.93-.697.93 1.022.403 1.16 4.602 1.16 4.602-.463.767-2.041.969-2.041.969l-.055.082s-.159.06-.228.107c-.072.045-.072.183-.105.23-.036.044 0 .06.018.105.015.045.139.137.227.184.088.046.243.075.243.075h.51s.192-.015.278-.029a.805.805 0 0 0 .16-.046l.227-.139.157-.045.175-.015.14.06.123.139.018.288.018.718s-.036.242-.018.334c.018.092-.018.214-.018.32 0 .108-.07.184-.07.184l-.263.38s0 .229.02.276c.014.045.067.183.103.274.035.09.122.166.175.228.053.062.07.289.087.381.018.092.018.352.018.352l.007.403v.363l.186.443.046 1.052c-.046.364.279 6.418.279 6.418.464.93 1.112.326 1.112.326.834-.73 1.577-5.25 1.577-5.25.047-.525.093-4.684.093-4.684 0-.768.836-.81.836-.81l1.53-.564c.37-.122.74-.526.74-.526Zm-2.32-2.332-.129.133-.102.065-.151.09s-.103.089-.181.089c-.075 0-.126.177-.126.177h-.281l-.025-.09-.18-.067s-.051-.11-.075-.2c-.026-.086-.026-.22-.026-.22l.13-.133.151-.156.129-.133.203-.11.178-.068.202.023.231.111.152.133.053.113-.152.243ZM42.639 60.099c-.673-.04-1.744-.27-2.561-.727-.823-.46-.927-.014-.927-.014.028.33.996.74.996.74 1.055.395.47.663.47.663-.718.32-2.696.933-2.696.933-1.26.624-1.247.012-1.247.012 0-.677.617-1.429.617-1.429.453-.589 3.911-2.769 3.911-2.769 1.102-.854.763-.97.763-.97-.204-.395-1.07-.484-1.07-.484-.556.09-2.623.74-2.623.74-.878.37-.775-.435-.775-.435.102-1.531.409-2.667.409-2.667.381-.752.074-.905.074-.905-.441-.306-1.842-.678-1.842-.678-1.198-.397-1.602.195-1.53.308.074.115.808 1.085.865 1.429.058.345.526 2.91.089 3.458-.44.548-1.437.585-1.949.637-.513.05-.367.55.044.919.41.37.69-.012 1.305-.242.614-.23.568.307.585.522.015.218-.264 1.94-.514 2.463-.25.522-.365.178-.365.178-.132-.663-.808-1.99-1.332-1.95-.525.04-.5.42-.589.688-.086.267.074 1.16-.38 1.556-.455.396-.235.944-.235.944.411.332.293.663.219.75-.074.092-.689.5-1.01.666-.324.166-2.463 1.275-3.634 1.518-1.173.242-.367.537-.367.537 1.64.713 2.506.42 2.506.42s1.32-.92 2.081-1.481c.762-.56 1.7-.777 2.05-.802.352-.026.176.586.061.83-.117.24-1.19 1.835-1.495 2.296-.31.458-2.434 2.755-2.434 2.755-.643.943.338.702.469.677.133-.027 2.535-1.927 2.535-1.927.484-.268 2.608-2.986 2.784-4.261.177-1.276 1.145-1.953 2.14-2.092.995-.141 5.7-1.393 6.07-2.17.363-.777-.792-.597-1.468-.636Zm-5.186-1.864c.029-.05.1-.101.146-.139.043-.04.116-.09.16-.116.044-.025.205-.09.205-.09l.221-.165.263-.113.367-.104.484.064-.03.217s-.027.038-.072.09c-.046.051-.164.152-.236.229-.072.078-.072.078-.116.141-.043.063-.192.256-.234.28-.045.025-.073.064-.22.154-.148.089-.088.064-.219.127-.133.064-.176.14-.25.18-.072.038-.206.1-.265.139-.057.038-.19-.026-.19-.026s-.088-.23-.088-.306c0-.077-.059-.243-.074-.292-.014-.052.118-.219.148-.27Z" fill="#CC1233"/><path d="M38.939 66.383c.07.317.63 1.736.897 2.253.152.294.983 1.054 2.18.351 1.284-.75-.201-2.4-.201-2.4-2.435-2.267-3.909-2.325-3.909-2.325-.538-.147-.607.427-.387.544.219.119 1.302 1.016 1.42 1.577ZM51.592 64.785c-.324.143-.324.143-.597 0-.27-.14-.43-.236-.297-.565.135-.33.27-.424.028-.706-.246-.284-.27-.612.186-1.013.46-.4.625-1.907.652-2.402.028-.494.187-.73.596-.941.402-.211.513-.4-.68-1.059-1.189-.66.327-1.342.327-1.342l2.136-1.319s.946-.635.459-.965c-.485-.329-1.378.166-1.378.166s-.647.284-.864.4c-.22.117-.22.259-1.38.423-1.162.165-1.111.448-1.056.519.056.071.325.564.488.8.16.235-.055.494-.055.494s-2.055 1.743-3.137 2.684c-1.082.942-.893 1.27-.704 1.553.19.283.92.331 1.27.283.353-.047 1.76-.659 2.003-.848.245-.187.623-.775.73-.354.108.425-.107 1.155-.107 1.155-.298.164-1 1.153-.894 1.2.109.047.462.683.462.683s.026.802.107.989c.08.189.162.33.132.54-.026.214-.267.92-.89 1.413-.623.496-.407 2.12-.08 2.356.324.236 1.137.212 1.108-.329-.028-.541.163-.918.432-1.6.272-.684 1.272-1.201 1.543-1.673.27-.471-.216-.683-.54-.542Zm-1.136-5.768-.27.4s-1.977 1.295-2.408 1.248c0 0-.758.142.137-.612.89-.753 2.19-1.86 2.19-1.86l.376.446-.025.378Z" fill="#CC1233"/><path d="M57.865 65.16c.134.474.727 1.791 1.567 1.979.838.19 1.11-.377.919-.542-.192-.164-.242-.375-.892-1.482-.648-1.106-.081-1.085-.081-1.085.949-.492.623-.917.623-.917-.242-.707-.92-.471-.92-.471-.891.048-.972-.8-1.189-1.765-.215-.965.484-1.013.484-1.013 1.408-.658 1.384-1.225 1.384-1.225-.03-1.082-.57-1.198-1.384-2.094-.809-.895-2.164-1.6-2.164-1.6-.377-.142-.51.234-.51.234l.052 1.884.135.47c-.106.471.298 2.38.298 2.38l-.08.352-1.057.964s-1.647.99-2.216 1.766c-.571.776.596.377.676.353.081-.021 1.54-1.2 2.109-1.764.568-.566.73-.26.73-.26l.514.872c.432 1.012-.188 1.06-.188 1.06-.921.21-.541.447.081.492.62.048.971.944 1.11 1.412Zm-.893-7.649-.162-.308.079-.846h.163l1.083.988.407.47s.242.377-.082.731c-.325.353-.54.543-.54.543s-.461.117-.544-.19c-.08-.306-.242-.73-.242-.73l-.162-.658ZM60.948 56.522c.242 0 .379.352.08.706-.298.353-.568.682-.568.682s-.407.754.703.26c1.108-.495 1.785-.92 1.812-.988.029-.072.242-.92-.462-1.036-.702-.118-1.728-.19-1.728-.19s-.676-.072-.541.424c-.001 0 .459.142.704.142ZM66.679 56.193c-.106.046-.514.753.593.21 1.111-.54 2.52-1.248 2.95-1.648 0 0 0-.258-.218-.236l-1.347.26s-.948.234-1.058.258c-.107.024-.674.096-.674.096s-.703.188-.19.588c.513.4.053.425-.056.472ZM69.438 63.42l-.162-.165-.513-.025-.298.142-.135.377s.138 1.272 1.083 1.25c.942-.023.808-.896.808-1.013 0-.118-.783-.566-.783-.566ZM72.98 63.137s.073-1.529.11-1.695c.136-.635.43-1.366.621-1.671.19-.308-.162-.284-.162-.284h-.323s-1.435 2.85-1.87 3.132c0 0-.402 1.226.841 1.249 1.242.022.783-.731.783-.731Z" fill="#CC1233"/><path d="M64.14 60.548c.158-.025.835-.472 1.266-.99.435-.517.543-.188.543-.046 0 .14-.486 1.717-.702 2.165-.219.45-.219.613 1.025.754 1.245.142.163 1.036-.05 1.178-.22.14-.462.752-.381.846.083.094.27.59.216.731-.055.14-.188.424.378.73.568.305.757 1.2.597 1.507-.163.305-1.109.658-1.109.658s-.949-.188-2.57.33c-1.623.518-1.217.634-1.083.92.136.28 2.057.656 2.489.656.432 0 1.135-.258 1.513-.423.38-.165 1.299-.305 1.299-.305s.381.33.999.4c.623.07 1.058-.637.65-.895-.403-.261-.838-.967-.838-.967l-.241-1.27s-.784-1.201-.839-1.412c-.054-.212-.677-.801.513-1.955 1.187-1.154.3-1.484.3-1.484-1.27-.563-1.137-.776-1.137-.776s.431-.612.676-1.224c.24-.611.513-.8.782-.895.27-.094 1.895-1.341 1.895-1.341.757-1.247-.405-.965-.405-.965s-.706.188-1.679.494c-.972.305-1.378.094-1.378.094s-.164.235-.512.611c-.355.377-2.976 1.72-2.976 1.72-.785.919.594 1.177.758 1.154Zm1.187 8.381s-.188.116-.298.116h-.27l-.242.025-.326-.14-.107-.189.244-.07h.216s.162-.026.245-.049c.078-.023.186-.046.267-.046h.218c.11 0 .133.023.133.023s.082.118.11.187c.028.072-.19.143-.19.143ZM76.82 69.543c1.055-.331.326-1.98.326-1.98-.271-1.036-.46-6.287-.46-6.287-.08-3.272.322-3.812.322-3.812.597-.684-.187-1.038-.187-1.038-.352-.26-1.865-.683-1.865-.683-.434-.116-1.162.355-.948.613.218.258.326.919.326.919l.025 1.317.026 9.583s.409.755-1.053.235c-1.461-.517-1.594-.094-1.542 0 .054.094 1.975 1.271 2.57 1.719.596.45 1.407-.259 2.46-.586ZM81.565 59.265c.033.225.054.465.054.691 0 .252-.105.494-.111.737-.012.27.179.446.46.351.237-.08.495-.245.735-.35.378-.163.55-.319.503-.715-.029-.212-.174-.48-.276-.672-.269-.496-.852-1.01-1.416-1.25-.11-.057-.357-.06-.447.028-.13.135-.003.184.11.322.201.232.345.56.388.858Z" fill="#CC1233"/><path d="M81.423 58.012c.032.011.062.032.091.046.006.001.016 0 .02.003l-.11-.05ZM82.506 55.036c.116.376.302.755.513 1.116.345.597.345 1.399.38 2.044.033.507.28 1.2.994.975 1.201-.374.48-2.088.197-2.783-.201-.49-.573-1.012-.975-1.395-.18-.172-.398-.38-.685-.363-.116.007-.424.067-.49.155-.144.197.015.1.066.252ZM92.351 53.303s-1.709 1.013-1.974 1.274l-.291.14-.297.1s-.28.246-.747-.36c0 0-.265-.29-.632-.29 0 0-1.011.32-.564-.52.449-.837 2.063-3.642 2.063-3.642l.563-.969s.263-.216.132-.478C90.472 48.3 90.21 48 90.21 48l-.376.066-1.62 3.017s-1.054 2.755-1.43 3.018c-.38.261-1.47 1.41-1.47 1.41s-.114.59.714.13l1.019-.886s.602-.328.715.756c.115 1.082-.45.917-.45.917h-.602l-.416.066-.266.099-.039.229.115.197.15.097.387.22.08.26-.428.318-.317.406s-.328.679.665.39c.05-.016.862-.694.862-.694s.368-.059.368.015c0 .07-.037.563-.037.563s.28.029.433.014a.846.846 0 0 0 .283-.086s-.052-.045.083 0c.132.043.113.014.215.1.1.087.115.145.215.217.099.073.115.073.166.115.049.046.316.117.316.117l.648-.26 1.36-1.475s1.494-2.11 1.812-3.107c0 0 .263-1.084-1.014-.926Zm-1.237 2.043-.059.196s-.147.231-.185.28c-.039.05-.113.18-.188.263a1.292 1.292 0 0 0-.172.247c-.055.096-.11.13-.149.179-.037.05-.076.098-.245.262-.166.165 0 0-.075.098-.075.1-.075.264-.075.328 0 .067-.151.05-.206.018-.059-.034-.038-.05-.096-.165-.056-.114-.074-.147-.056-.23.015-.08.04-.13.04-.18v-.18c0-.064-.078-.164-.078-.164s-.054-.081-.225-.245c-.17-.165-.13-.263-.13-.263v-.148s.053-.033.13-.1c.073-.065.111-.08.111-.08l.208-.084s.114-.064.225-.13c.115-.065.06-.033.06-.033s.28-.082.356-.098c.076-.016.15-.097.226-.147a.86.86 0 0 0 .093-.067l.246-.016.17.033.073.197s.02.165 0 .23ZM92.51 63.415c-.416-.164-2.788.69-3.165.886-.377.196-1.657.918-2.374.493-.717-.428.037-1.214.302-1.609.264-.394 2.422-1.984 3.165-2.164.941-.23 2.03-1.15 2.03-1.15.718-.883-.788-1.015-.788-1.015-.904-.032-3.693.918-3.693.918-1.277.362-9.267 4.723-9.267 4.723l-.375.428.829.556 1.995-.066c.605-1.115 4.031-3.049 4.031-3.049s4.032-2.428 4.75-2.624c.714-.198.637.229.525.394-.114.163-.65.57-1.581.983-1.847.82-2.714 1.901-2.714 1.901-.715.427-.488 1.249-.304 1.838.19.59-.146.786-.146.786l-1.473.69s-1.468.72-2.672.72c-1.178 0-.226.855-.226.855.979 1.18 1.996.622 1.996.622s1.505-.885 2.26-1.278c.751-.393.83-.133.942.064.114.198.528 1.51.564 2.068.039.557-.224.49-.224.49l-2.151.034-.298.196.488.295 2.072.723s.829.459 1.13.391c.3-.063.792-.981.944-1.505.15-.527-.189-1.346-.83-2.757-.64-1.41 1.281-1.574 1.281-1.574l.828-.197s1.355-.688 1.585-.722c.225-.033.187.098.975-.23.793-.326 0-.949-.412-1.114ZM100.004 62.037c-.337-.164-.754.394-.754.394-1.316 1.705-.335-1.247-.335-1.247.298-2.361 1.806-3.706 1.806-3.706s1.132-1.408-.3-1.213c-1.434.197-4.485 1.705-4.485 1.705-1.506.69-.075 1.475-.075 1.475.754.723 1.205.396 1.658.198.452-.198.64-.525.678.229.038.755-.529 1.837-.529 1.837-.678 1.377-1.278 4.986-1.278 4.986s.15 2 1.018 2.067c.863.065 1.168-1.05 1.168-1.05 0-.557.791-3.248.791-3.248s.98-2.262.637-2.427ZM104.186 56.725c.63-.216 1.887-.623 1.887-.623 1.999.032 1.769-.854 1.769-.854.112-1.311-2.298-.985-2.298-.985-.789.066-.64.361-.64.361.79.131.451.658.451.658s0 .26-1.243.885c-1.243.624-.555.773.074.558Z" fill="#CC1233"/><path d="m100.797 62.137.639-.066.643-.953s-.263.166 0-.064 1.016-.788 1.016-.788 2.26-1.279 2.827-1.41c.563-.131.152.46.152.46-.946.229-2.979 2.59-2.979 2.59v.625s-.076-.164-.226.294c-.149.46.689.24.689.24l1.121-.733c1.166-.46.712-1.048.712-1.048-.752-.657.868-1.413.868-1.413s2.074-.982 3.018-1.835c.94-.852-.265-1.245-.265-1.245s-1.058-.1-2.488.654l-2.563 1.345-.261.099-.342.13-.45.033-.188-.23s-.077-.425-.077-.525c0-.097-.414-.26-.414-.26l-.603.36-.038.425-1.015 1.87c-.569.624.224 1.445.224 1.445ZM113.192 69.156c1.391-.79.565-1.61.565-1.61l-1.506-.916c-2.64-1.608-2.263-.754-2.263-.754s.756 1.017 1.395 1.605c.639.592 0 .919 0 .919s-2.826.361-4.032-.098c-1.205-.46-1.732-.558-1.808-1.969-.077-1.409-.227-1.082-.64-.983-.415.097-.149-.264-.149-.264s.374-.523.789-1.376c.415-.855-.789-.788-.789-.788l-1.959.884-.942.068s-.113.59.111.72c.226.133.719.952.719.952-.341.426-2.905 2.952-2.905 2.952.227.622 1.058.098 1.358.032.3-.064 2.562-2.327 2.864-2.59.301-.262.604.622.604.622v1.74c.524 1.803 2.259 1.54 2.259 1.54l2.598-.098s2.335.197 3.731-.588ZM15.068 75.872h3.883v.976h-1.303v2.976h-1.276v-2.976h-1.304v-.976ZM20.746 75.872v1.454a1.54 1.54 0 0 1 .466-.33c.153-.069.336-.1.546-.1.312 0 .56.09.738.272.18.181.27.46.27.836v1.82h-1.153v-1.576c0-.18-.034-.307-.105-.382-.069-.075-.167-.112-.293-.112a.424.424 0 0 0-.34.151c-.087.1-.13.282-.13.542v1.378h-1.147v-3.953h1.148ZM25.602 78.142c-.023-.214-.081-.365-.179-.457a.532.532 0 0 0-.383-.138.532.532 0 0 0-.438.208c-.07.087-.113.217-.133.387h1.133Zm1.165.526h-2.3c.02.176.07.307.15.393.11.123.254.185.434.185.112 0 .22-.027.32-.08a.728.728 0 0 0 .2-.178l1.13.098c-.172.287-.38.493-.624.617-.245.125-.595.186-1.051.186-.397 0-.707-.053-.936-.16a1.356 1.356 0 0 1-.564-.51 1.488 1.488 0 0 1-.224-.822c0-.448.15-.81.45-1.086.299-.278.712-.417 1.24-.417.429 0 .766.063 1.014.188.248.124.437.304.567.54.128.236.193.543.193.921v.125ZM32.04 78.207l1.118.322a1.933 1.933 0 0 1-.355.754 1.537 1.537 0 0 1-.6.458c-.24.1-.546.152-.915.152-.45 0-.816-.062-1.1-.187-.284-.124-.53-.344-.737-.66-.206-.315-.31-.716-.31-1.206 0-.655.182-1.158.545-1.51.364-.35.878-.527 1.543-.527.52 0 .93.101 1.227.303.297.202.519.511.663.927l-1.126.241a.911.911 0 0 0-.124-.264.72.72 0 0 0-.262-.215.783.783 0 0 0-.347-.076c-.29 0-.513.11-.667.333-.117.166-.174.426-.174.78 0 .437.069.737.208.898.14.164.335.245.587.245.245 0 .43-.066.554-.197.124-.131.216-.322.273-.571ZM35.857 78.142c-.022-.214-.082-.365-.18-.457a.527.527 0 0 0-.381-.138.53.53 0 0 0-.438.208.749.749 0 0 0-.132.387h1.131Zm-1.134.526c.02.176.07.307.15.393.11.123.255.185.432.185.114 0 .221-.027.323-.08a.747.747 0 0 0 .199-.178l1.13.098c-.172.287-.38.493-.625.617-.244.125-.593.186-1.05.186-.396 0-.71-.053-.934-.16a1.354 1.354 0 0 1-.566-.51 1.502 1.502 0 0 1-.224-.822c0-.448.15-.81.45-1.086.298-.278.712-.417 1.24-.417.428 0 .766.063 1.014.188.248.124.436.304.566.54.13.236.195.543.195.921v.125h-2.3ZM37.547 76.96h1.068v.464c.161-.189.322-.325.485-.407.164-.08.364-.122.599-.122.317 0 .566.09.745.271.18.181.27.46.27.837v1.821h-1.152v-1.576c0-.18-.035-.307-.105-.383-.07-.074-.167-.11-.294-.11-.14 0-.252.05-.339.151-.087.099-.13.28-.13.542v1.377h-1.148V76.96ZM42.774 75.872v1.088h.63v.803h-.63v1.016c0 .122.012.203.036.242.037.06.103.092.197.092.085 0 .203-.024.356-.07l.084.757a3.87 3.87 0 0 1-.794.09c-.286 0-.495-.035-.63-.107a.643.643 0 0 1-.3-.318c-.064-.144-.097-.375-.097-.696v-1.007h-.422v-.802h.422v-.525l1.148-.563ZM43.965 76.96h1.073v.471c.103-.204.21-.346.32-.421a.692.692 0 0 1 .408-.116c.17 0 .354.05.556.152l-.357.784a.93.93 0 0 0-.32-.081c-.15 0-.267.06-.35.177-.118.169-.178.48-.178.939v.96h-1.152V76.96ZM48.651 78.465a5.295 5.295 0 0 1-.493.143c-.234.06-.38.119-.443.176a.273.273 0 0 0-.002.415.42.42 0 0 0 .278.082c.129 0 .248-.03.358-.089a.552.552 0 0 0 .232-.217.708.708 0 0 0 .07-.334v-.176Zm-.993-.577-1.095-.112c.04-.183.1-.328.178-.433a.989.989 0 0 1 .337-.273c.105-.056.25-.099.433-.129.185-.03.383-.047.598-.047.343 0 .62.019.827.057.208.037.382.113.522.23a.799.799 0 0 1 .23.344c.056.148.085.29.085.424v1.265c0 .135.009.242.026.317.019.077.058.175.117.293H48.84a1.128 1.128 0 0 1-.084-.168 1.327 1.327 0 0 1-.04-.18c-.15.137-.299.236-.447.296a1.938 1.938 0 0 1-.706.117c-.356 0-.627-.078-.812-.237a.743.743 0 0 1-.278-.585c0-.217.066-.395.2-.537.133-.14.38-.244.738-.311.43-.084.708-.141.836-.174.128-.034.263-.078.406-.132 0-.136-.03-.231-.087-.285-.058-.053-.162-.08-.307-.08-.187 0-.328.027-.42.086-.075.044-.135.129-.18.254ZM51.642 75.872h-1.147v3.953h1.148v-3.953ZM56.651 78.319l-.454-1.422-.452 1.422h.906Zm.267.854H55.47l-.202.652h-1.304l1.547-3.953h1.398l1.55 3.953h-1.335l-.206-.652ZM61.016 78.703l1.092.116a1.366 1.366 0 0 1-.822.938c-.212.088-.483.132-.813.132-.317 0-.581-.028-.792-.084a1.412 1.412 0 0 1-.903-.722c-.086-.17-.13-.397-.13-.679 0-.294.053-.54.158-.735.077-.144.18-.272.315-.387.133-.114.27-.199.411-.254.223-.089.51-.133.86-.133.487 0 .86.083 1.117.251.255.167.436.412.54.733l-1.08.138a.471.471 0 0 0-.185-.277.608.608 0 0 0-.358-.093.595.595 0 0 0-.463.194c-.117.13-.175.325-.175.59 0 .234.058.412.174.534a.593.593 0 0 0 .445.182c.15 0 .277-.037.38-.108a.653.653 0 0 0 .23-.336ZM64.674 78.465a5.282 5.282 0 0 1-.494.143c-.233.06-.38.119-.443.176a.27.27 0 0 0-.095.203c0 .086.031.156.094.212.063.054.155.082.277.082a.75.75 0 0 0 .358-.089.556.556 0 0 0 .233-.217.708.708 0 0 0 .07-.334v-.176Zm-.994-.577-1.095-.112c.04-.183.1-.328.178-.433a.984.984 0 0 1 .336-.273c.106-.056.25-.099.435-.129a3.64 3.64 0 0 1 .596-.047c.344 0 .62.019.827.057.209.037.382.113.522.23a.796.796 0 0 1 .23.344c.057.148.085.29.085.424v1.265c0 .135.01.242.026.317.019.077.058.175.118.293h-1.077a1.23 1.23 0 0 1-.084-.168 1.354 1.354 0 0 1-.04-.18 1.494 1.494 0 0 1-.447.296 1.95 1.95 0 0 1-.708.117c-.355 0-.626-.078-.812-.237a.743.743 0 0 1-.277-.585c0-.217.067-.395.201-.537.132-.14.378-.244.737-.311.43-.084.708-.141.836-.174.127-.034.262-.078.406-.132 0-.136-.03-.231-.087-.285-.059-.053-.162-.08-.308-.08-.187 0-.327.027-.421.086-.073.044-.133.129-.177.254ZM68.48 78.385c0-.226-.05-.393-.15-.504a.485.485 0 0 0-.377-.166.42.42 0 0 0-.334.159c-.09.107-.135.284-.135.535 0 .234.046.406.14.514.093.11.207.163.345.163a.47.47 0 0 0 .365-.163c.097-.11.146-.29.146-.538Zm1.149-2.513v3.953h-1.072v-.423c-.151.18-.288.301-.412.363-.166.084-.35.125-.552.125-.407 0-.72-.149-.934-.445-.215-.296-.323-.658-.323-1.082 0-.475.12-.838.356-1.09.238-.252.54-.377.907-.377.177 0 .34.028.484.086.147.057.276.144.388.258v-1.367h1.158v-.001ZM72.483 78.142c-.023-.214-.084-.365-.18-.457a.528.528 0 0 0-.382-.138c-.183 0-.33.07-.438.208-.069.087-.114.217-.133.387h1.133Zm1.163.526h-2.3c.022.176.072.307.151.393a.555.555 0 0 0 .433.185c.114 0 .22-.027.322-.08a.738.738 0 0 0 .2-.178l1.13.098c-.172.287-.381.493-.625.617-.244.125-.594.186-1.05.186-.397 0-.709-.053-.936-.16a1.363 1.363 0 0 1-.565-.51 1.498 1.498 0 0 1-.224-.822c0-.448.15-.81.45-1.086.3-.278.712-.417 1.24-.417.428 0 .766.063 1.014.188.248.124.437.304.566.54.13.236.195.543.195.921v.125ZM75.249 76.96v.417c.154-.174.31-.297.466-.371.157-.074.347-.111.568-.111.24 0 .429.04.569.12a.936.936 0 0 1 .34.362c.18-.186.343-.313.493-.381.148-.067.33-.1.547-.1.32 0 .572.09.751.273.18.184.27.469.27.856v1.8h-1.147v-1.637c0-.13-.026-.226-.078-.29a.35.35 0 0 0-.288-.149.41.41 0 0 0-.325.141c-.083.094-.124.245-.124.452v1.483h-1.148v-1.579a.938.938 0 0 0-.022-.255.356.356 0 0 0-.127-.175.42.42 0 0 0-.539.076c-.084.096-.128.252-.128.471v1.462H74.18V76.96h1.07ZM79.606 76.96h1.212l.615 1.908.573-1.908h1.129l-1.186 3.063c-.135.349-.274.584-.413.708-.2.172-.503.259-.91.259-.166 0-.42-.021-.766-.065l-.09-.766c.166.05.348.076.55.076.136 0 .246-.03.33-.09.082-.06.153-.166.212-.319l-1.256-2.866ZM86.394 78.397c0 .256.054.444.161.567a.518.518 0 0 0 .407.183c.165 0 .301-.06.407-.18.106-.121.16-.314.16-.58 0-.249-.054-.433-.161-.555a.507.507 0 0 0-.397-.182.53.53 0 0 0-.415.185c-.108.124-.162.31-.162.562Zm-1.148.004c0-.438.153-.798.461-1.08.308-.284.724-.426 1.248-.426.599 0 1.05.167 1.356.498.246.27.37.6.37.992 0 .44-.153.8-.458 1.082-.306.282-.727.422-1.266.422-.48 0-.869-.117-1.165-.35a1.389 1.389 0 0 1-.546-1.138ZM90.508 76.96h.548v.802h-.548v2.062H89.36v-2.062h-.428v-.802h.428v-.13c0-.117.012-.245.039-.386a.761.761 0 0 1 .148-.343.767.767 0 0 1 .303-.215c.13-.054.321-.084.573-.084.2 0 .49.024.875.069l-.126.663a2.227 2.227 0 0 0-.332-.031c-.103 0-.179.016-.223.05a.28.28 0 0 0-.096.156c-.01.04-.013.123-.013.25ZM95.105 76.77v2.158h.312c.268 0 .457-.03.57-.086a.592.592 0 0 0 .265-.296c.063-.141.095-.37.095-.685 0-.42-.072-.704-.214-.86-.143-.154-.38-.23-.71-.23h-.318Zm-1.278-.898h1.896c.374 0 .676.05.906.146.23.097.42.236.571.418.15.18.26.393.327.634.067.24.102.495.102.765 0 .423-.052.749-.152.983-.1.233-.24.427-.417.586-.18.156-.37.26-.576.313-.28.072-.533.108-.761.108h-1.896v-3.953ZM98.23 76.96h1.074v.471c.104-.204.21-.346.32-.421a.693.693 0 0 1 .407-.116c.169 0 .355.05.556.152l-.356.784a.94.94 0 0 0-.32-.081.407.407 0 0 0-.352.177c-.116.169-.177.48-.177.939v.96H98.23V76.96ZM102.917 78.465a5.449 5.449 0 0 1-.493.143c-.233.06-.382.119-.442.176a.27.27 0 0 0-.097.203c0 .086.031.156.095.212.062.054.155.082.277.082.128 0 .246-.03.356-.089a.563.563 0 0 0 .235-.217.72.72 0 0 0 .069-.334v-.176Zm-.993-.577-1.096-.112a1.14 1.14 0 0 1 .179-.433.977.977 0 0 1 .337-.273c.104-.056.248-.099.433-.129.183-.03.383-.047.598-.047.342 0 .618.019.826.057.209.037.383.113.521.23a.81.81 0 0 1 .231.344c.057.148.085.29.085.424v1.265c0 .135.008.242.027.317.017.077.057.175.117.293h-1.077a1.079 1.079 0 0 1-.084-.168.988.988 0 0 1-.04-.18c-.15.137-.299.236-.447.296a1.952 1.952 0 0 1-.708.117c-.356 0-.627-.078-.812-.237a.745.745 0 0 1-.277-.585c0-.217.068-.395.2-.537.134-.14.379-.244.738-.311.43-.084.709-.141.837-.174.126-.034.261-.078.405-.132 0-.136-.029-.231-.088-.285-.059-.053-.161-.08-.306-.08-.188 0-.328.027-.422.086-.073.044-.132.129-.177.254ZM105.799 76.96v.417c.155-.174.31-.297.467-.371.157-.074.347-.111.569-.111.238 0 .426.04.567.12a.925.925 0 0 1 .341.362c.179-.186.344-.313.492-.381.148-.067.33-.1.548-.1.321 0 .572.09.752.273.179.184.269.469.269.856v1.8h-1.148v-1.637c0-.13-.026-.226-.078-.29a.347.347 0 0 0-.287-.149.407.407 0 0 0-.325.141c-.084.094-.124.245-.124.452v1.483h-1.148v-1.579a.988.988 0 0 0-.022-.255.375.375 0 0 0-.127-.175.363.363 0 0 0-.214-.066.417.417 0 0 0-.325.142c-.085.096-.128.252-.128.471v1.462h-1.148V76.96h1.069ZM112.529 78.465a5.267 5.267 0 0 1-.493.143c-.233.06-.38.119-.442.176a.273.273 0 0 0-.002.415.42.42 0 0 0 .277.082.75.75 0 0 0 .358-.089.566.566 0 0 0 .234-.217.721.721 0 0 0 .068-.334v-.176Zm-.993-.577-1.095-.112c.041-.183.102-.328.179-.433a.973.973 0 0 1 .336-.273c.104-.056.25-.099.433-.129.185-.03.383-.047.598-.047.343 0 .619.019.827.057.208.037.383.113.521.23a.81.81 0 0 1 .232.344c.055.148.083.29.083.424v1.265c0 .135.01.242.028.317.017.077.057.175.116.293h-1.077a1.052 1.052 0 0 1-.083-.168 1.192 1.192 0 0 1-.04-.18c-.151.137-.3.236-.448.296a1.943 1.943 0 0 1-.707.117c-.356 0-.627-.078-.812-.237a.743.743 0 0 1-.278-.585c0-.217.068-.395.201-.537.133-.14.379-.244.737-.311.431-.084.709-.141.837-.174.128-.034.262-.078.405-.132 0-.136-.029-.231-.087-.285-.058-.053-.16-.08-.307-.08-.187 0-.328.027-.421.086-.072.044-.132.129-.178.254Z" fill="#CC1233"/></svg>