<svg width="128" height="137" fill="none" xmlns="http://www.w3.org/2000/svg"><g filter="url(#a)" fill="#004EA2"><path d="M64 20c24.235 0 44 19.765 44 44 0 24.234-19.765 43.999-44 43.999-24.234 0-44-19.765-44-44C20 39.765 39.766 20 64 20Zm0 1.753c-23.269 0-42.247 18.978-42.247 42.246 0 23.27 18.978 42.247 42.247 42.247 23.27 0 42.247-18.977 42.247-42.247 0-23.268-18.978-42.246-42.247-42.246Z"/><path d="M48.545 82.752a24.5 24.5 0 0 1-6.547-8.41A24.141 24.141 0 0 1 39.68 64c0-13.393 10.924-24.317 24.319-24.317 13.394 0 24.318 10.924 24.318 24.317 0 3.693-.832 7.201-2.317 10.343a24.486 24.486 0 0 1-6.547 8.41l-.558-.674a23.645 23.645 0 0 0 6.314-8.109A23.273 23.273 0 0 0 87.442 64c0-12.91-10.53-23.442-23.442-23.442S40.558 51.088 40.558 64c0 3.563.8 6.943 2.231 9.97a23.648 23.648 0 0 0 6.314 8.109l-.558.674Z"/><path fill-rule="evenodd" clip-rule="evenodd" d="m64.147 86.457-4.98-7.6c1.53-.787 1.34-3.242.03-3.446-1.459-.228-2.62-.298-3.643-2.591h2.373l-.729-1.989c-2.714.238-3.268-.516-4.555-2.636l3.39-.116-.685-1.73c-3.695.17-4.67-.735-5.592-2.84l4.305-.152-.932-2.059c-4.409.123-5.342-.001-6.959-2.983l5.477-.027-.772-1.961c-4.992.215-6.24-.273-7.652-2.77l11.22-.284c1.636-.041 3.503 1.073 4.19 2.557l1.35 2.911 1.42-4.9c.732-2.525 6.25-1.61 8.025.07l-3.337 1.208 1.633 3.976c1.183-2.77 2.633-5.823 5.752-5.823h11.008c-.847 2.432-2.891 3.645-7.336 2.858l-.78 2.059 5.488-.017c-1.313 3.063-2.771 3.448-6.854 2.984l-.853 2.059 4.37.142c-.84 1.94-2.362 3.101-5.736 2.698l-.71 2.004 3.48-.016c-.998 2.439-1.641 2.983-4.813 2.84l-.727 1.989 2.506.01c-1.053 2.122-1.366 2.374-3.614 2.573-1.337.119-1.933 2.26-.153 3.528l-4.605 7.474ZM26.321 78.686l-1.659-4.451.907-.316 7.604 1.16-1.163-3.122.906-.316 1.519 4.077-.906.316-7.605-1.158 1.303 3.495-.906.316ZM29.217 84.758l-.458-.89 3.577-1.84-1.134-2.206-3.577 1.84-.459-.89 7.647-3.932.458.89-3.22 1.655 1.134 2.207 3.22-1.657.458.89-7.646 3.933ZM32.844 89.601l-2.716-3.793 7.17-4.454 2.585 3.609-.797.494-1.972-2.753-2.224 1.381 1.812 2.53-.796.495-1.812-2.53-2.558 1.589 2.105 2.939-.797.493ZM38.938 95.564l-.91-.768 5.278-6.484.91.768-5.278 6.484ZM43.026 98.42l1.081-2.298-1.31-.95-1.952 1.9-.891-.688 6.187-6.114 1.241.757-3.295 7.991-1.061-.597Zm1.58-3.423 1.29-2.963-.119-.097-2.23 2.27 1.06.79ZM49.228 101.419l-1.118-.52.652-5.966-2.444 5.015-1.115-.512 3.878-7.68 1.007.467-.468 5.668 2.521-4.68.938.39-3.851 7.818ZM55.002 103.141l-.72-.235.066-.676c-.168.145-.393.237-.67.279a1.796 1.796 0 0 1-.841-.075c-.597-.193-1.037-.661-1.321-1.402-.286-.741-.23-1.762.17-3.06.438-1.419.976-2.406 1.616-2.963.638-.554 1.609-.864 2.468-.589.924.295 1.524 1.432 1.258 3.005l-1.104-.09c.19-.674.094-1.725-.564-1.94a1.442 1.442 0 0 0-1.511.416c-.381.425-.751 1.225-1.114 2.404-.344 1.117-.44 1.932-.288 2.447.152.516.414.833.781.953.368.12.703.071 1.004-.147.3-.217.544-.629.73-1.232l.154-.498-1.316-.43.265-.86 2.165.708-1.228 3.985ZM66.44 101.246c-.024.775-.232 1.381-.619 1.82-.388.438-.987.64-1.794.61-.808-.03-1.392-.278-1.75-.744-.358-.467-.527-1.087-.501-1.861l.19-5.858 1.031.038-.19 5.858c-.017.549.09.957.321 1.224.231.268.541.409.93.425.388.013.706-.105.953-.354.248-.249.381-.647.399-1.196l.19-5.858 1.031.038-.19 5.858ZM72.31 102.811l-.92.139-2.9-5.59.443 6.001-1.094.157-.642-8.416 1.259-.117 2.392 3.921-.444-4.22.914-.157.992 8.282ZM75.454 101.929l-1.079.327-2.243-7.966 1.079-.327 2.243 7.966ZM78.365 91.834l1.364 8.795-1.064.525-4.659-7.465 1.026-.432 3.238 5.09-.898-6.08.993-.433ZM87.017 96.82l-3.931 2.125-4.28-7.35 3.738-2.021.476.816-2.853 1.541 1.328 2.28 2.62-1.416.476.815-2.622 1.417 1.527 2.622 3.046-1.646.475.816ZM91.496 93.679l-.865.739-3.046-2.524-.788.713 2.059 2.8-.865.906-5.043-7.08 1.608-1.151c.514-.369 1.19-.632 1.798-.56 1.57.188 2.241 1.245 2.17 2.475-.023.388-.045.767-.198 1.152l3.17 2.53Zm-5.434-4.987c-.64-.175-1.144.32-1.605.68l1.676 2.213c.512-.369.75-.449 1.138-1.117.168-.803-.191-1.498-1.209-1.776Z"/><path fill-rule="evenodd" clip-rule="evenodd" d="M94.216 86.843c1.758 1.056 1.348 4.053-.962 4.403-.622.094-1.352-.094-1.666-.293l.394-.896c.381.085.767.222 1.132.153 1.497-.285 1.43-1.84.558-2.485-.304-.224-.74-.253-1.1-.213-1.01.113-1.657.867-2.78.937-1.23.077-2.085-.672-2.286-1.868a2.476 2.476 0 0 1 .36-1.742c.65-1.018 2.03-1.156 3.035-.563l-.39.925c-.544-.289-1.509-.288-1.872.28-.19.298-.255.602-.198.912.126.675.587 1.067 1.237.988 1.091-.132 1.829-1.03 2.902-.995.512.017 1.119.146 1.636.457ZM97.924 85.751l-.633.777-7.248-4.544.633-.777 7.248 4.544ZM94.266 76.584l-.803 1.486 6.846 4.025-.462.855-6.844-4.026-.802 1.487-.855-.503 2.065-3.827.855.503ZM95.522 70.93l4.174 3.73 2.788 1.194-.339.94-2.583-1-5.947-.138.286-.952 4.15.067-2.939-2.703.41-1.139ZM38.298 91.82c-.738.735-1.428 1.115-2.067 1.136-.64.021-1.218-.233-1.74-.763-.474-.483-.708-1.045-.703-1.689.003-.326.098-.66.283-1.005l.94.574c-.08.163-.122.318-.126.467-.009.35.1.642.324.872.318.323.65.468.999.44.349-.03.773-.293 1.274-.79l4.18-4.138.779.794-4.143 4.102ZM52.519 90.37l-2.93-1.818.266-.46 1.087.677 1.743-3.034-1.089-.676.237-.412c.413.255.74.4.986.432.244.03.45-.066.617-.296l.624.386-2.34 4.079 1.063.66-.264.462Zm8.737-1.852c.047-.233-.034-.443-.243-.634-.212-.187-.531-.312-.96-.371-.394-.055-.727-.03-1.006.076-.28.102-.444.272-.492.51a.55.55 0 0 0 .104.464c.102.137.272.27.508.4.105.055.263.135.479.236.214.1.41.185.591.25.345-.11.59-.244.736-.389.145-.15.24-.331.283-.542Zm-.38 2.625c.043-.216.012-.392-.09-.537-.106-.144-.33-.306-.674-.488a5.767 5.767 0 0 0-.46-.21c-.192-.08-.41-.173-.651-.278-.324.088-.585.213-.781.377-.198.165-.32.37-.368.608-.064.316.031.59.283.838.251.245.599.401 1.042.46.453.066.834.026 1.142-.11.31-.14.495-.36.556-.66Zm-1.817 1.29a4.795 4.795 0 0 1-1.068-.268 2.543 2.543 0 0 1-.77-.449 1.394 1.394 0 0 1-.413-.568 1.14 1.14 0 0 1-.053-.633c.058-.282.226-.523.507-.728.28-.204.655-.344 1.126-.423l.004-.02c-.366-.204-.626-.406-.782-.61a.837.837 0 0 1-.15-.702c.08-.395.375-.687.883-.883.511-.2 1.118-.248 1.82-.15.733.101 1.293.306 1.683.618.39.307.546.657.469 1.04-.048.233-.2.45-.456.647-.26.199-.598.336-1.022.406l-.003.023c.44.208.76.429.96.665a.926.926 0 0 1 .203.83c-.09.445-.414.783-.975 1.013-.56.231-1.215.297-1.963.191Zm10.136-3.213c0-.358-.05-.65-.148-.875a1.214 1.214 0 0 0-.41-.52 1.389 1.389 0 0 0-.47-.236 2.166 2.166 0 0 0-.526-.062c-.434 0-.78.105-1.038.312-.26.207-.388.505-.388.9 0 .224.04.403.127.549.085.144.222.27.416.372.132.07.285.122.454.148a3.664 3.664 0 0 0 1.277-.043c.263-.054.49-.125.684-.21a1.997 1.997 0 0 0 .021-.335Zm-4.056-.451c0-.273.066-.52.197-.742.134-.226.314-.42.546-.582.217-.157.485-.275.804-.364.316-.088.635-.13.963-.13.363 0 .692.04.987.121.295.08.55.199.766.352.272.194.483.447.634.759.149.315.225.71.225 1.19 0 .435-.073.85-.22 1.238-.147.393-.361.716-.648.971a3.073 3.073 0 0 1-1.096.626c-.427.144-.953.216-1.58.216-.14 0-.29-.003-.45-.014a3.473 3.473 0 0 1-.446-.06v-.676h.054c.09.034.226.068.415.096.186.032.378.046.571.046.693 0 1.238-.151 1.634-.455.396-.306.62-.741.673-1.306a4.372 4.372 0 0 1-.807.281c-.258.06-.537.088-.837.088-.294 0-.559-.022-.8-.065a2.645 2.645 0 0 1-.726-.246 1.632 1.632 0 0 1-.642-.546 1.427 1.427 0 0 1-.217-.798Zm11.486-4.503-.193 5.431-.832.526.074-5.135-3.173 1.54-.28-.611 3.99-2.07.414.32ZM80.615 42.732c-.586-.394-.124-.444-.006-1.033.1-.506-.143-1.141.01-1.486.413-.931 1.602-.389 2.216.206.109.105.184.365.241.614.142.62.257 1.483-.479 1.809-.634.282-1.472.233-1.982-.11ZM73.708 38.834l-.052-.05c.033-.07.066-.14.096-.2.23.004 2.431-.44 2.447-.488.67-.2 1.305-.47 1.71-1.064-1.414-.092-2.963.348-4.297-.073-.542-.389-.822-.879-1.17-1.229l.022-.072c-.505-.721-.339-1.322.515-1.27 1.189.81 3.558.675 4.972.698.324-.013 1.23.022 1.546-.142.976-1.606 1.476-3.408 2.235-5.014.896-1.023 1.38.155 1.813.974.055.104.137.295.196.578.02.006.184.905-.486 1.175a6.812 6.812 0 0 0-1.498 2.462c.947.23 1.802-.337 2.846.061.057.58-.137.977-.756 1.195-.901.06-1.851.057-2.863.105-.548.789-1.318 1.715-2.212 2.178-.13.067-.737.302-.869.322-.685.101-1.341.296-2.018.222-1.869-.204-1.858-.29-2.177-.368ZM51.683 41.875c-.77-.139-1.611-.805-2.117-1.225.014-.2.029-.401.057-.594 1.303-1.637 2.612-3.184 3.7-5.015.266-.8.66-1.666.96-2.467.018-.017.06-.1.052-.12.33-.432.483-.562.972-.125.144.436-.57 1.108-.67 1.6-.175.864-.637 3.038-.959 3.865-.205.527-1.084 3.459-1.617 3.934a4.4 4.4 0 0 0-.378.147ZM59.76 33.694c-1.01.218-1.46-.348-2.157-.786-.086-.26.033-.46.005-.647.236-.123.925-.442 1.371-.588.54-.281 1.748-1.68 2.355-1.373.393 1.194-.608 2.765-1.574 3.394ZM51.586 33.784c-.47-.237-.947-1.76-1.105-2.237.06-.94.917-1.2 1.787-.83.775.608 1.248.82.877 1.863-.528.772-.822.892-1.56 1.204ZM58.791 31.102c-.226-.443.159-1.617-.09-1.811-.232.1-.457.254-.706.336-.677-.134-1.528-.694-1.436-1.323.313-.62.174-.448.86-.673a114.39 114.39 0 0 1 1.764-1.386c1.066-.501 1.742-.021 2.097 1.059-.013.763-.34 1.446-.658 2.126-.51.479-.955.981-1.402 1.474-.152.061-.29.13-.429.198ZM51.83 29.527c-.29-.146-.22-.284-.15-.526-.15-.456-.526-.759-.67-1.195-.062-.854-.296-1.11.277-1.678.583.095 2.655.553 2.488 1.69-.334.765-1.242 1.432-1.945 1.71ZM37.737 60.288c-.884.662-2.645.24-2.92-.954-.193-.844-1.264-3.22-1.722-4.503-.23-.4-.498-.708-.35-1.162.297-.087.648.229.913.473.133-.039.34-.37.324-.595-.066-.936-.101-1.96-.269-2.885-.243-.194-.485-.39-.713-.588-.158.475-.693 2.025-1.251 1.223.12-.632.167-1.677-.207-2.291-.472-.481-1.136-.794-1.357-1.325.062-.751 1.204-.974 1.889-.7.547.023.495-1 1.179.667.024.275.297.436.605.58l.14-.187c-.043-.72-.089-1.504-.056-2.27-.7-.657-1.288-1.201-1.719-2.008-.03-.789.848-1.28 1.616-1.546.235-.432.224-.8.184-1.343.046-.175.046-.175.222-.452.269.01.496.096.802.263.647.776-.552 3.272.676 3.418.23-.422-.127-.84-.33-1.176.046-.609.955-1.409 1.605-1.664.977-.127.938.425.976 1.267.05.115.1.228.155.333 1.275.858 1.275.858 3.045 1.948.55.474.61 1.258.666 1.496.035.15.292 1.267-.284 1.364-1.45-.903-2.895-1.928-4.303-2.746a.213.213 0 0 0-.023.087c.636.547 1.515 2.084 1.571 2.962-.314.575-.93.837-1.502.7-.107-.146-.073-.277-.1-.454-.445-.715-1.683-1.366-2.315-1.76-.218.491.324 1.894.494 2.472.036.344.073.687.115 1.022.437.5.885.956 1.37 1.458.181.285.371.575.561.866l-.036.067c.224.433.726 1.703-.117 1.742a2.2 2.2 0 0 1-.234-.14c-.29-.657-.827-1.36-1.396-1.733-.166.67.096 1.379-.206 1.929-.185.337-.547.506-.805.613-.273.115-.446.174-.464.275.248.298.532.58.77.893.943 1.25 1.745 2.483 2.822 3.68.08.34.067.432-.02.684ZM31.544 54.868c-.358.016-.553-.401-.835-.592-.989-.241-1.73-.41-2.093-1.366a2.69 2.69 0 0 1 .131-.264c.502-.212 1.447-.37 2.084-.42 1.225.22.871 1.757.713 2.642ZM28.875 52.093c-.202.164-.245.128-.342.124-.139-.225-.197-.393-.423-.48-1.082.02-2.233-.744-2.076-1.853.19-.233.404-.103.822 0 .902-.218 2.238-.84 2.354.62-.078.535-.22 1.08-.335 1.589ZM90.628 49.38c-.464-.866.746-1.842 1.297-2.175.794.17.797 1.448.267 2.057-.747.51-.833.609-1.564.118Z"/><path fill-rule="evenodd" clip-rule="evenodd" d="M89.248 58.013c-.01-.038-.013-.069-.021-.092-.908-.788-1.643-1.674-2.141-2.7.032-.104.032-.104.124-.211.71.183 1.278.88 2.09.745.419-.317.772-.589 1.05-.941-.9-.782-1.943-.632-2.856-1.048-.61-.53-1.12-2.06-.838-2.684.73-.74.556-.256 1.396.476 1.107.76 2.583 1.144 3.888 1.642.336.046.336.046.488.105.808-.412 1.057-.383 1.821.12.373.122.373.122 1.539.397.089-.053.178-.105.275-.15-1.237-.96-3.017-.944-4.485-1.221-.556-.31-.817-.71-.987-1.148-.22-.163-1.514-1.056-.548-.969.455.193.936.206 1.438.396 1.38.26 2.815.725 4.22 1.092.13-.149.151-.274.163-.337.189-.184.316-.247.51-.338-.224-.108-.26-.168-.415-.072-.764-.287-1.466-.029-1.409-.978-.58.35-1.23.35-1.725-.08-.236-.712.537-1.518.815-1.972.01-.077.247-.45.469-.938.218-.651.303-1.533.96-1.671.543.125.756.18.59.92.062.428.121 1.248.043 1.616-.124.593-.34 1.44-.888 1.92.394.096 1.034.16 1.162-.337-.192-.63.418-.78.846-.64.193.211.193.211.48.447.093-.107.085-.114.092-.223-.225-.457-.08-.475.287-.663-.254-.54.008-1.108.455-1.255 1.446.852 1.446.852 2.16 1.212.807-.094 2.413-.943 2.888-.023-.037.475-.314 1.06-.782 1.449-.272.096-.549.131-.785.302.074.065.142.138.208.21.722.237 1.229.17.803 1.176.22.713.452.813-.396 1.322-1.014.35-2.103.72-3.158 1.034a.52.52 0 0 0-.102.084c.068.104.138.208.2.32-.254.358-.622.748-.999 1.115-.718.143-1.084-.218-1.608-.615-.88-.288-1.65-.567-2.533-.784-.109.108-.234.202-.321.401.29.267.58.549.871.83.114.52-.483 1.073-1.015 1.218-.368-.276-.603-.423-.983-.535-.184.129-.369.258-.56.396-.579.636-1.724 2.435-2.776 1.68Zm9.286-5.8a.616.616 0 0 0-.03-.083c.504-.446.654-.62.133-.986-.144.034-.419.1-.424-.078-.006-.192.917-.405 1.058-.485.264.23.651.667.683 1.115-.366.42-.848.508-1.42.517Z"/></g><defs><filter id="a" x="-13" y="0" width="154" height="157" filterUnits="userSpaceOnUse" color-interpolation-filters="sRGB"><feFlood flood-opacity="0" result="BackgroundImageFix"/><feColorMatrix in="SourceAlpha" values="0 0 0 0 0 0 0 0 0 0 0 0 0 0 0 0 0 0 127 0" result="hardAlpha"/><feOffset dy="16"/><feGaussianBlur stdDeviation="6.5"/><feColorMatrix values="0 0 0 0 0 0 0 0 0 0 0 0 0 0 0 0 0 0 0.03 0"/><feBlend in2="BackgroundImageFix" result="effect1_dropShadow_49_8303"/><feBlend in="SourceGraphic" in2="effect1_dropShadow_49_8303" result="shape"/></filter></defs></svg>