<svg width="128" height="128" fill="none" xmlns="http://www.w3.org/2000/svg"><g filter="url(#a)" fill="#063398"><path fill-rule="evenodd" clip-rule="evenodd" d="M99.324 55.872c.442 1.043-.159 1.85-.23 2.977.394.294 1.421-.046 1.833.23.039.38.332.507.229 1.03-.696 1.021-1.823.668-2.748 1.26-.923.59-1.58 2.27-2.404 3.205-.96 1.088-1.757 1.94-2.978 2.405 1.246-1.655 2.772-3.03 3.665-5.038-.803.054-1.521-.294-1.832-1.03.26-1.267 1.828-1.226 2.862-1.718 1.08-.753-.306-3.822 1.603-3.32ZM63.485 64.116c-.712-.346-1.247-.272-2.175-.114v.687c1.52.801 3.835.124 4.236-1.26-1.09-.174-1.361.471-2.06.687Zm-1.488-2.404c.056.361-.207.404-.115.801.886.199 1.011-.362 1.489-.572.933.451 1.27.206 2.633.229.012-.355-.14-.547-.229-.802-1.242.132-2.326.423-3.778.344Zm1.717-5.496c.026.713-.569.805-.687 1.374 1.084.603 2.737-.795 3.206.229-.872 1.15-2.94 1.106-3.435 2.633 1.246-.014 2.276-.243 3.435-.343.649.19.532 1.148.802 1.717.065.47.85.218.916.687.068.68-.237.985-.916.916-.481.283-.695.833-1.26 1.03.367.461-.009.897-.229 1.375-1.925.122-5.596 1.75-5.267-1.489-.73.115-1.65.649-2.176 0 .255-1.203 1.29-1.396 2.405-1.488.808-1.596 2.08-2.73 3.32-3.893-.392-.294-1.42.046-1.831-.23-.07-.273-.165-.522-.115-.915-2.254 1.17-4.875 4.447-3.779 8.244-.26.198-.64.276-1.145.229-.16-3.033 1.267-6.01 2.977-7.786.647-.671 1.54-1.082 2.176-1.603.447-.366.852-1.361 1.603-.687ZM89.134 63.658c.453-.08 1.06-.008 1.144-.458-.537-.002-1.129-.06-1.144.458Zm.229-1.488c.048.539.594-.084 1.03.114.054-.437-.894-.217-1.03-.114Zm-3.207-.344c.516-.209 1.521.071 1.603-.572-.59.134-1.331.119-1.603.572Zm2.978-2.06c.587.015.918-.228 1.03-.688-.375.198-1.202-.057-1.03.687Zm-.458-3.665c.297.2.231.76.229 1.26 1.438.19 3.07-.711 3.892.229-.565.885-2.537.363-3.663.687.457.383 1.972-.114 2.29.687-.28 1.057-1.768.904-1.947 2.06 1.338-.285 2.33.605 3.206 1.146-.2 1.212-2.082.742-2.06 2.175-.464.148-.79.432-1.375.458-.53 1.303-1.334 2.33-2.52 2.977-.298-.234-.384-.683-.572-1.03 1.383.238 1.466-.825 1.832-1.603-1.144-.407-2.71.752-3.663-.115.24-1.692 2.948-.218 3.778-1.26-1.934-.495-4.218.786-5.84.23.144-.691.98-.468 1.489-.573 1.25-.256 2.74-.64 4.007-.801-1.506-.474-3.104.909-4.465.229.154-1.411 2.268-.862 3.092-1.603.002-.27-.198-.337-.115-.687.24-.524 1.4-.127 1.488-.802-1.345-.37-1.758 1.725-3.206 1.26-.368-1.875 2.279-1.678 3.321-2.52-1.372-.374-2.947.987-4.236.344.153-1.755 3.02-.796 4.35-1.374-.004-.377-.193-.57-.114-1.03.264-.118.37-.394.802-.344ZM50.775 57.017c.523.987-.595 1.71-.801 2.634-.107.478.106 1.187 0 1.832-.147.892-.573 1.811 0 2.862 1.585.139 3.898-1.422 4.58.23-1.005.745-4.378 1.927-6.756 1.831-1.631-.065-2.93-1.163-1.145-2.06a6.01 6.01 0 0 0 2.176.228c.207-2.025-.712-6.411 1.03-7.557.3-.197.494-.004.916 0ZM76.31 63.544c.2 1.058-.916 1.292-1.49.916v-.802c-.638.2-1.525.154-1.602.916.918.418 2.515.157 3.778.23 0-.357-.27-.747 0-1.031.297.123.426.414.802.458.071-.31.478-.285.458-.687-.725-.118-1.078.034-1.947 0Zm-1.718-2.29c-.133.401-.45.618-.458 1.145 1.148.27 1.283-.472 1.832-.802.021.17.276.105.458.115v.458c.834-.071 1.327.2 2.175.114.077-.573-.106-.886-.114-1.374-1.332.029-2.894.356-3.893.344Zm4.236-4.008c.192.533-.358 1.013-1.145.916-.884.452-1.543 1.13-2.175 1.832 1.26.38 2.47-.277 3.664-.343.358.672.24 1.82.572 2.519.38.23.98.241 1.145.687.108.604-.349.643-.572.916-.419.075-.44-.248-.802-.23-.534.115-.485.813-1.145.802.406.39.172 1.041-.114 1.374-2.004.077-4.014 1.12-5.954.23-.2-.494-.316-1.13-.115-1.718-.32-.275-.685.379-1.145.343-.045.68-.097 1.353-.458 1.718-.419.025-.439.157-.801 0-.378-2.34.644-4.32.343-5.84.808-.699.368-1.937 1.03-2.748.37-.195.923.257 1.26.458.187.244-.124.724-.114 1.145-.392.108-.71.36-1.145.115.056.401.17.745.114 1.26-1.189.27-.875 1.952-.801 3.205.64-.581 1.578-.864 2.404-1.26.852-1.857 2.469-2.95 3.893-4.236-1.185-.102-2.176.637-3.091.115.032-.388.182-.658.114-1.145.423-.364 1.27-.52 1.374.229 1.257-.014 2.682-.435 3.664-.344Z"/><path fill-rule="evenodd" clip-rule="evenodd" d="M59.592 57.59c.286 1.339-.618 2.105-1.603 1.488.214.94.43 1.888-.801 1.832-.667-.855.179-1.004.572-1.717.476-.864.274-1.875 1.03-1.947.353-.033.496.459.802.344ZM50.775 59.88c.267-.42.205-1.17.573-1.489 1.843-.616 2.476 2.048.801 2.176-.624.047-.673-.585-1.374-.687ZM111.117 60.91c.028.79-.647.88-1.03 1.26.643.32 1.807-.254 2.405 0 .177.166.101.586.114.916-.641.198-1.424.255-2.29.229.185 1.418-.306 2.229-.915 3.091-.343.485-.805 1.317-1.489 1.145-.692-1.776 1.855-1.87 1.145-3.664-1.316.045-1.789 1.461-3.206 1.03.018-.132-.025-.203-.115-.228.107-1.84 2.545-1.348 3.092-2.748-.578-.215-1.528.736-2.29.343-.143-1.301 3.779-1.99 4.579-1.374ZM103.675 65.834c-.106.542-1.017.28-1.145.801-1.037-.346-2.415-.8-3.206-1.603-.453-.459-2.08-2.648-.23-2.519.534.038.055.181.574.687.731.714 3.707 1.406 4.007 2.634Z"/><path fill-rule="evenodd" clip-rule="evenodd" d="M106.652 58.964c.644.22.694-1.233.344-1.26-.036.499-.301.768-.344 1.26Zm1.488-.23c.204-.53 1.076-1.529.344-1.946-.231.404-1 1.41-.344 1.947Zm2.176-2.06c.11.834-.257 1.193-.457 1.717.643-.236.733-2.111 1.831-1.145-.105.43-.595.474-.687.916.756-.198.901-1.008.916-1.946-.761-.075-1.029.345-1.603.458Zm-.457-1.718c.266.35.037.97-.115 1.26.899.134 1.579-1.428 2.862-.916.271 1.095.049 2.318-.572 2.862.742.097 1.575.104 1.946.573.072.873-.023 1.58-.687 1.717-.636-.168-1.023-.792-1.03-1.26-2.451.297-4.614.883-6.756 1.49-.273.604.16 1.915-.687 1.946-.297-.977-.561-2.563 0-3.435.418-.16.785-.336 1.145 0 .215-1.326-.549-3.224.802-3.206.488.76-.323 1.095-.229 1.832.623-.56.716-1.65 1.374-2.176.493-.15.362.325.572.458.462-.378.528-1.152 1.375-1.145ZM47.659 69.606v.932h-.073a1.162 1.162 0 0 0-.129-.427.729.729 0 0 0-.617-.346.48.48 0 0 0-.341.127.383.383 0 0 0-.135.287.34.34 0 0 0 .085.224c.082.1.278.232.586.397.252.136.424.24.516.311a.758.758 0 0 1 .212.256.698.698 0 0 1-.163.835.86.86 0 0 1-.61.222c-.079 0-.152-.006-.221-.018a2.242 2.242 0 0 1-.255-.073 1.143 1.143 0 0 0-.246-.062c-.033 0-.059.01-.078.03-.02.02-.034.06-.043.123h-.073V71.5h.073c.035.193.08.338.14.434a.668.668 0 0 0 .266.24c.12.063.252.095.395.095a.56.56 0 0 0 .392-.132.406.406 0 0 0 .09-.51.595.595 0 0 0-.17-.189 4.829 4.829 0 0 0-.423-.253 4.08 4.08 0 0 1-.492-.31.83.83 0 0 1-.222-.253.663.663 0 0 1 .147-.806.793.793 0 0 1 .566-.21c.144 0 .295.036.456.106.074.033.126.05.156.05.035 0 .063-.01.085-.031.022-.02.04-.062.053-.124h.073ZM48.893 70.918h1.251v-.771a.903.903 0 0 0-.025-.272.179.179 0 0 0-.084-.086.366.366 0 0 0-.18-.047h-.096v-.074h1.152v.074h-.095a.377.377 0 0 0-.18.045.167.167 0 0 0-.087.097.955.955 0 0 0-.023.263v1.738c0 .137.008.227.026.27a.18.18 0 0 0 .081.086c.058.032.12.047.183.047h.095v.074H49.76v-.073h.095c.11 0 .19-.033.24-.098.034-.042.05-.144.05-.306v-.82h-1.251v.82c0 .137.008.227.026.27a.177.177 0 0 0 .083.086.366.366 0 0 0 .18.047h.098v.074h-1.154v-.073h.095c.112 0 .192-.033.243-.098.031-.042.047-.144.047-.306v-1.738a.903.903 0 0 0-.026-.272.18.18 0 0 0-.08-.086.378.378 0 0 0-.184-.047h-.095v-.074h1.154v.074h-.097a.377.377 0 0 0-.181.045.172.172 0 0 0-.085.097.92.92 0 0 0-.024.263v.77ZM52.8 71.313l-.456-1.089-.47 1.09h.927Zm.056.147h-1.043l-.183.425a.674.674 0 0 0-.067.235c0 .04.02.077.058.108.04.031.124.051.254.06v.074h-.849v-.073c.113-.02.186-.046.219-.078.068-.064.142-.193.224-.387l.948-2.218h.07l.937 2.242c.076.18.145.296.206.35a.419.419 0 0 0 .257.09v.074h-1.063v-.073c.108-.006.18-.024.218-.054a.139.139 0 0 0 .057-.111.825.825 0 0 0-.08-.276l-.163-.388ZM53.88 69.668h.73l1.648 2.02v-1.553c0-.166-.02-.269-.056-.31-.05-.056-.127-.083-.233-.083h-.093v-.074h.938v.074h-.096c-.114 0-.194.034-.242.103-.03.042-.044.139-.044.29v2.27h-.071l-1.776-2.169v1.66c0 .165.018.268.053.31.05.055.128.082.233.082h.095v.074h-.938v-.073h.094c.115 0 .196-.035.244-.104.03-.042.044-.139.044-.29v-1.873a1.225 1.225 0 0 0-.178-.181.651.651 0 0 0-.178-.081.634.634 0 0 0-.175-.018v-.074ZM59.369 69.606l.07.85h-.07a1.164 1.164 0 0 0-.273-.478.852.852 0 0 0-.617-.232c-.343 0-.604.135-.783.407-.15.229-.225.502-.225.818 0 .257.05.492.15.704.099.212.229.367.39.466.16.098.326.147.495.147a1.095 1.095 0 0 0 .557-.148v-.78c0-.134-.01-.223-.031-.264a.208.208 0 0 0-.095-.096.553.553 0 0 0-.228-.033v-.075h1.043v.075h-.05c-.103 0-.174.035-.212.104-.027.049-.04.145-.04.29v.824a2.014 2.014 0 0 1-.45.181 1.976 1.976 0 0 1-.496.058c-.52 0-.915-.167-1.186-.501a1.337 1.337 0 0 1-.304-.866c0-.237.057-.464.171-.682a1.46 1.46 0 0 1 .556-.596c.198-.115.431-.172.7-.172.098 0 .187.008.267.023.08.016.194.051.34.106a.547.547 0 0 0 .15.041.08.08 0 0 0 .064-.034c.018-.023.03-.069.033-.136h.074ZM60.646 70.918h1.252v-.771a.903.903 0 0 0-.026-.272.179.179 0 0 0-.084-.086.366.366 0 0 0-.18-.047h-.096v-.074h1.153v.074h-.096a.377.377 0 0 0-.18.045.167.167 0 0 0-.087.097.955.955 0 0 0-.023.263v1.738c0 .137.009.227.026.27a.18.18 0 0 0 .081.086c.059.032.12.047.183.047h.096v.074h-1.153v-.073h.096c.11 0 .19-.033.24-.098.033-.042.05-.144.05-.306v-.82h-1.252v.82c0 .137.009.227.026.27a.177.177 0 0 0 .083.086.366.366 0 0 0 .181.047h.098v.074h-1.155v-.073h.096c.11 0 .192-.033.242-.098.032-.042.048-.144.048-.306v-1.738a.903.903 0 0 0-.026-.272.18.18 0 0 0-.081-.086.378.378 0 0 0-.183-.047h-.096v-.074h1.155v.074h-.098a.377.377 0 0 0-.18.045.172.172 0 0 0-.086.097.92.92 0 0 0-.024.263v.77ZM64.554 71.313l-.457-1.089-.469 1.09h.926Zm.056.147h-1.044l-.182.425a.674.674 0 0 0-.068.235c0 .04.02.077.059.108.039.031.123.051.253.06v.074h-.848v-.073c.112-.02.185-.046.218-.078.068-.064.143-.193.225-.387l.948-2.218h.069l.938 2.242c.075.18.144.296.205.35a.419.419 0 0 0 .258.09v.074h-1.063v-.073c.107-.006.18-.024.217-.054a.138.138 0 0 0 .057-.111.825.825 0 0 0-.08-.276l-.162-.388ZM66.942 72.288v.074h-1.154v-.073h.095c.111 0 .192-.033.242-.098.032-.042.048-.144.048-.306v-1.74a.893.893 0 0 0-.026-.27.18.18 0 0 0-.081-.086.377.377 0 0 0-.183-.047h-.095v-.074h1.154v.074h-.097c-.11 0-.19.032-.24.097-.034.042-.05.144-.05.306v1.74c0 .137.008.227.025.27a.177.177 0 0 0 .084.086.366.366 0 0 0 .18.047h.098ZM69.723 72.362l-1.04-2.267v1.8c0 .166.017.269.053.31.049.056.126.084.232.084h.096v.073h-.938v-.073h.095c.114 0 .195-.035.243-.104.029-.042.043-.139.043-.29v-1.76a.617.617 0 0 0-.04-.258.221.221 0 0 0-.102-.097.55.55 0 0 0-.239-.038v-.074h.763l.977 2.108.962-2.108h.763v.073h-.093c-.116 0-.197.035-.245.104-.029.042-.044.139-.044.29v1.76c0 .166.019.269.056.31.049.056.126.084.233.084h.093v.073h-1.144v-.073h.095c.115 0 .196-.035.242-.104.03-.042.044-.139.044-.29v-1.8l-1.039 2.267h-.066ZM73.482 71.313l-.457-1.089-.469 1.09h.926Zm.056.147h-1.043l-.183.425a.674.674 0 0 0-.067.235c0 .04.019.077.058.108.04.031.124.051.253.06v.074h-.848v-.073c.113-.02.186-.046.219-.078.067-.064.142-.193.224-.387l.948-2.218h.07l.937 2.242c.076.18.144.296.206.35a.419.419 0 0 0 .257.09v.074h-1.063v-.073c.107-.006.18-.024.218-.054a.138.138 0 0 0 .056-.111.825.825 0 0 0-.08-.276l-.162-.388ZM75.451 70.977a1.779 1.779 0 0 1 .111.002c.257 0 .45-.055.581-.167a.534.534 0 0 0 .196-.425.556.556 0 0 0-.158-.41.566.566 0 0 0-.418-.158c-.077 0-.18.013-.312.038v1.12Zm1.913 1.385h-.719l-.912-1.26a4.472 4.472 0 0 1-.22.003l-.062-.002v.782c0 .17.019.275.056.316.05.058.125.088.226.088h.105v.073h-1.154v-.073h.102c.113 0 .195-.038.244-.112.028-.04.042-.138.042-.292v-1.74c0-.17-.019-.275-.056-.316-.052-.058-.129-.087-.23-.087h-.102v-.074h.982c.286 0 .497.02.632.063a.724.724 0 0 1 .346.23.6.6 0 0 1 .142.4c0 .166-.054.31-.162.431-.108.122-.275.209-.501.259l.556.773c.127.177.236.295.328.353.091.059.21.096.357.111v.074ZM78.584 72.288v.074H77.43v-.073h.095c.111 0 .192-.033.242-.098.032-.042.048-.144.048-.306v-1.74a.893.893 0 0 0-.026-.27.18.18 0 0 0-.081-.086.377.377 0 0 0-.183-.047h-.095v-.074h1.154v.074h-.097c-.11 0-.19.032-.24.097-.034.042-.05.144-.05.306v1.74c0 .137.008.227.025.27a.177.177 0 0 0 .084.086.366.366 0 0 0 .18.047h.098ZM81.038 69.668l.03.632h-.076a.762.762 0 0 0-.06-.239.398.398 0 0 0-.164-.17.572.572 0 0 0-.269-.054h-.38v2.058c0 .166.019.27.055.31.05.056.127.084.232.084h.093v.073h-1.142v-.073h.095c.114 0 .195-.035.243-.104.029-.042.043-.139.043-.29v-2.058h-.323a.901.901 0 0 0-.269.028.368.368 0 0 0-.177.145.587.587 0 0 0-.087.29h-.075l.031-.632h2.2ZM82.424 72.288v.074H81.27v-.073h.096c.11 0 .192-.033.242-.098.032-.042.048-.144.048-.306v-1.74a.892.892 0 0 0-.026-.27.18.18 0 0 0-.082-.086.378.378 0 0 0-.183-.047h-.095v-.074h1.154v.074h-.097c-.11 0-.19.032-.24.097-.034.042-.05.144-.05.306v1.74c0 .137.009.227.026.27.013.034.04.062.083.086a.366.366 0 0 0 .181.047h.097ZM84.188 72.362l-1.04-2.267v1.8c0 .166.017.269.053.31.049.056.127.084.233.084h.095v.073h-.938v-.073h.096c.113 0 .195-.035.242-.104.03-.042.044-.139.044-.29v-1.76a.62.62 0 0 0-.04-.258.222.222 0 0 0-.102-.097.548.548 0 0 0-.24-.038v-.074h.764l.976 2.108.962-2.108h.763v.073h-.093c-.116 0-.197.035-.245.104-.029.042-.043.139-.043.29v1.76c0 .166.018.269.056.31.048.056.126.084.232.084h.093v.073h-1.144v-.073h.095c.115 0 .196-.035.242-.104.03-.042.044-.139.044-.29v-1.8l-1.039 2.267h-.066ZM86.992 69.815v1.065h.592c.153 0 .257-.023.308-.07.069-.06.107-.168.115-.321h.073v.937h-.073a1.018 1.018 0 0 0-.056-.252.246.246 0 0 0-.117-.11.6.6 0 0 0-.25-.039h-.592v.888c0 .12.005.192.016.218.01.025.029.046.056.061a.335.335 0 0 0 .15.023h.457c.152 0 .263-.01.332-.032a.49.49 0 0 0 .198-.125 1.51 1.51 0 0 0 .253-.372h.08l-.233.676h-2.076v-.073h.095a.38.38 0 0 0 .181-.046.169.169 0 0 0 .087-.096.941.941 0 0 0 .023-.26v-1.75c0-.17-.018-.276-.052-.316-.048-.053-.127-.08-.239-.08h-.095v-.073H88.3l.03.59h-.077a.938.938 0 0 0-.093-.292.317.317 0 0 0-.15-.121.902.902 0 0 0-.28-.03h-.739ZM91.585 69.742v-.074h.954v.073h-.102a.273.273 0 0 0-.244.134c-.028.04-.042.136-.042.286v1.093c0 .27-.027.48-.08.628a.79.79 0 0 1-.316.384c-.157.106-.37.16-.64.16-.295 0-.518-.051-.67-.153a.825.825 0 0 1-.324-.412c-.043-.118-.064-.339-.064-.663v-1.053c0-.166-.023-.274-.068-.326-.046-.052-.12-.078-.222-.078h-.101v-.073h1.164v.073h-.103c-.112 0-.19.036-.238.106-.034.047-.05.147-.05.298v1.174c0 .105.01.224.028.36.02.135.055.24.105.316a.57.57 0 0 0 .217.186c.095.05.211.074.35.074a.958.958 0 0 0 .472-.115.614.614 0 0 0 .285-.296c.05-.12.076-.322.076-.608v-1.091c0-.168-.018-.274-.055-.316-.052-.058-.129-.087-.23-.087h-.102Z"/><path fill-rule="evenodd" clip-rule="evenodd" d="M92.529 69.668h.731l1.647 2.02v-1.553c0-.166-.019-.269-.056-.31-.049-.056-.127-.083-.232-.083h-.093v-.074h.937v.074h-.095c-.114 0-.195.034-.243.103-.029.042-.043.139-.043.29v2.27h-.072l-1.776-2.169v1.66c0 .165.018.268.054.31.05.055.127.082.232.082h.096v.074h-.938v-.073h.093c.116 0 .197-.035.244-.104.03-.042.044-.139.044-.29v-1.873a1.228 1.228 0 0 0-.178-.181.646.646 0 0 0-.177-.081.637.637 0 0 0-.175-.018v-.074ZM96.777 72.288v.074h-1.155v-.073h.095c.112 0 .193-.033.243-.098.032-.042.047-.144.047-.306v-1.74a.897.897 0 0 0-.025-.27.182.182 0 0 0-.082-.086.377.377 0 0 0-.183-.047h-.095v-.074h1.155v.074h-.098c-.11 0-.19.032-.24.097-.034.042-.05.144-.05.306v1.74a.89.89 0 0 0 .026.27c.013.034.04.062.083.086a.366.366 0 0 0 .181.047h.098ZM99.765 69.668v.074a.437.437 0 0 0-.217.091.825.825 0 0 0-.187.298l-.94 2.293h-.073l-1.01-2.323a1.248 1.248 0 0 0-.109-.218.347.347 0 0 0-.122-.097.572.572 0 0 0-.196-.044v-.074h1.101v.074c-.124.011-.206.033-.243.063a.145.145 0 0 0-.055.117c0 .067.03.17.091.31l.686 1.58.636-1.56c.062-.153.093-.26.093-.32 0-.038-.02-.075-.058-.11a.38.38 0 0 0-.194-.074 1.828 1.828 0 0 0-.034-.006v-.074h.83ZM100.665 69.815v1.065h.591c.154 0 .257-.023.308-.07.069-.06.108-.168.115-.321h.074v.937h-.074a1.034 1.034 0 0 0-.055-.252.25.25 0 0 0-.117-.11.604.604 0 0 0-.251-.039h-.591v.888c0 .12.004.192.015.218a.126.126 0 0 0 .056.061.335.335 0 0 0 .151.023h.457c.152 0 .262-.01.332-.032a.499.499 0 0 0 .199-.125c.081-.082.165-.206.252-.372h.079l-.232.676h-2.077v-.073h.096a.381.381 0 0 0 .181-.046.17.17 0 0 0 .086-.096.942.942 0 0 0 .023-.26v-1.75c0-.17-.017-.276-.052-.316-.048-.053-.127-.08-.238-.08h-.096v-.073h2.077l.029.59h-.077a.927.927 0 0 0-.093-.292.314.314 0 0 0-.15-.121.897.897 0 0 0-.279-.03h-.739ZM103.136 70.977a1.733 1.733 0 0 1 .111.002c.257 0 .451-.055.581-.167a.536.536 0 0 0 .196-.425.556.556 0 0 0-.158-.41.567.567 0 0 0-.418-.158c-.077 0-.181.013-.312.038v1.12Zm1.913 1.385h-.719l-.912-1.26a4.415 4.415 0 0 1-.221.003l-.061-.002v.782c0 .17.019.275.056.316.05.058.125.088.226.088h.105v.073h-1.154v-.073h.102c.113 0 .195-.038.244-.112.027-.04.042-.138.042-.292v-1.74c0-.17-.019-.275-.056-.316-.052-.058-.129-.087-.23-.087h-.102v-.074h.982c.286 0 .497.02.632.063a.725.725 0 0 1 .346.23.598.598 0 0 1 .142.4c0 .166-.054.31-.162.431-.108.122-.275.209-.502.259l.556.773c.127.177.237.295.328.353a.83.83 0 0 0 .358.111v.074ZM106.879 69.606v.932h-.074a1.157 1.157 0 0 0-.128-.427.73.73 0 0 0-.617-.346.483.483 0 0 0-.342.127.383.383 0 0 0-.134.287.34.34 0 0 0 .085.224c.082.1.278.232.586.397.251.136.423.24.515.311a.764.764 0 0 1 .213.256.695.695 0 0 1-.163.835.86.86 0 0 1-.611.222c-.078 0-.152-.006-.22-.018a2.293 2.293 0 0 1-.256-.073 1.146 1.146 0 0 0-.245-.062.103.103 0 0 0-.078.03c-.02.02-.034.06-.043.123h-.074V71.5h.074c.034.193.08.338.139.434a.665.665 0 0 0 .267.24c.12.063.251.095.394.095a.562.562 0 0 0 .393-.132.406.406 0 0 0 .089-.51.59.59 0 0 0-.17-.189 4.629 4.629 0 0 0-.423-.253 4.192 4.192 0 0 1-.492-.31.83.83 0 0 1-.221-.253.665.665 0 0 1 .147-.806.794.794 0 0 1 .566-.21c.144 0 .295.036.455.106a.47.47 0 0 0 .157.05c.035 0 .063-.01.084-.031.022-.02.04-.062.053-.124h.074ZM108.532 72.288v.074h-1.155v-.073h.096c.111 0 .192-.033.242-.098.032-.042.048-.144.048-.306v-1.74a.898.898 0 0 0-.026-.27.182.182 0 0 0-.081-.086.382.382 0 0 0-.183-.047h-.096v-.074h1.155v.074h-.098c-.109 0-.19.032-.24.097-.033.042-.049.144-.049.306v1.74c0 .137.008.227.025.27a.177.177 0 0 0 .083.086.369.369 0 0 0 .181.047h.098ZM110.985 69.668l.03.632h-.076a.754.754 0 0 0-.059-.239.394.394 0 0 0-.164-.17.571.571 0 0 0-.269-.054h-.379v2.058c0 .166.017.27.053.31.05.056.128.084.233.084h.093v.073h-1.143v-.073h.096c.114 0 .195-.035.242-.104.03-.042.044-.139.044-.29v-2.058h-.324a.899.899 0 0 0-.268.028.368.368 0 0 0-.177.145.595.595 0 0 0-.088.29h-.075l.032-.632h2.199ZM113.055 69.668h.94v.074h-.051a.587.587 0 0 0-.332.177 1.77 1.77 0 0 0-.201.278l-.65 1.023v.675c0 .166.019.27.056.31.05.056.13.084.238.084h.088v.073h-1.144v-.073h.095c.114 0 .195-.035.242-.104.029-.042.044-.139.044-.29v-.638l-.739-1.128a2.49 2.49 0 0 0-.178-.248.682.682 0 0 0-.194-.12.26.26 0 0 0-.115-.02v-.073h1.153v.074h-.06a.345.345 0 0 0-.172.043.141.141 0 0 0-.078.131c0 .048.04.134.121.259l.562.868.528-.83c.08-.125.12-.218.12-.279a.178.178 0 0 0-.112-.168.396.396 0 0 0-.161-.024v-.074Z"/><path d="M27.224 51C19.933 51 14 56.931 14 64.224S19.933 77.45 27.224 77.45c7.293 0 13.226-5.932 13.226-13.226C40.45 56.93 34.517 51 27.224 51Zm0 25.874c-6.975 0-12.649-5.674-12.649-12.651 0-6.974 5.675-12.65 12.65-12.65 6.975 0 12.65 5.676 12.65 12.65 0 6.977-5.675 12.651-12.65 12.651Z"/><path d="M36.624 64.272a9.5 9.5 0 0 0-9.5-9.501 9.5 9.5 0 0 0-9.306 11.427c-.533.096-1.456.272-2.041.437l2.767 5.035s.889-.33 2.154-.4a9.475 9.475 0 0 0 6.426 2.502 9.469 9.469 0 0 0 6.416-2.493c.065-.004.99-.022 2.253.394l2.72-5.033s-.715-.242-2.088-.422c.131-.629.199-1.28.199-1.947Zm-4.11-5.013v1.637c-.33-.282-.876-.464-1.493-.464-.629 0-1.185.189-1.511.48V59.26h3.003Zm0 2.536v1.637c-.33-.283-.876-.465-1.493-.465-.629 0-1.185.192-1.511.48v-1.652h3.003Zm-1.482 2.478s-.098 1.053-1.405 1.094h-4.985s-1.062.136-1.491-1.094h7.88Zm-5.444-7.412h3.006v1.636c-.33-.28-.876-.465-1.493-.465-.63 0-1.184.19-1.513.482V56.86Zm0 2.398h3.006v1.637c-.33-.282-.876-.464-1.493-.464-.63 0-1.184.189-1.513.48V59.26Zm0 2.536h3.006v1.637c-.33-.283-.876-.465-1.493-.465-.63 0-1.184.192-1.513.48v-1.652Zm-3.92-2.536h3.005v1.637c-.33-.282-.876-.464-1.493-.464-.63 0-1.184.189-1.512.48V59.26Zm0 2.536h3.005v1.637c-.33-.283-.876-.465-1.493-.465-.63 0-1.184.192-1.512.48v-1.652Zm16.375 5.124-2.404 4.328c-4.456-1.203-7.712.5-7.712.5h-1.593c-3.796-1.742-7.617-.526-7.617-.526l-2.299-4.33c8-1.687 10.594.53 10.594.53h.255c3.777-2.302 10.776-.502 10.776-.502ZM22.627 73.827a2.393 2.393 0 0 1-.52-.006l-.087.271c.29.04.555.04.792.005l-.36 1.119.557.18.501-1.563-.452-.144c-.094.075-.238.121-.431.138ZM25.571 74.331c-.28-.037-.52-.018-.716.06-.196.075-.304.197-.326.358-.02.158.05.296.21.418.16.12.358.195.595.226.218.029.408.01.565-.065-.047.186-.117.302-.208.352a.523.523 0 0 1-.314.05.541.541 0 0 1-.221-.075.192.192 0 0 1-.088-.15l-.567-.039c.024.138.104.25.24.336a1.4 1.4 0 0 0 .56.177c.328.043.602.011.823-.092.222-.105.352-.305.39-.6.04-.289-.033-.513-.212-.665-.181-.154-.425-.25-.73-.29Zm.184.814a.513.513 0 0 1-.29.033.526.526 0 0 1-.28-.11c-.07-.058-.099-.14-.085-.244.014-.103.058-.173.135-.209a.505.505 0 0 1 .276-.031c.112.016.21.056.288.121.078.066.11.148.098.249a.228.228 0 0 1-.142.19ZM29.036 74.453c-.179-.094-.413-.123-.707-.09-.294.035-.515.115-.666.245-.183.156-.257.388-.222.692.036.311.151.52.346.62.193.101.438.134.732.1.294-.033.516-.115.667-.245.182-.157.257-.388.221-.695-.036-.307-.16-.517-.371-.627Zm-.253 1.11a.25.25 0 0 1-.11.144.46.46 0 0 1-.182.058.423.423 0 0 1-.189-.014.28.28 0 0 1-.15-.127c-.045-.067-.078-.198-.1-.387-.022-.192-.018-.33.013-.415a.261.261 0 0 1 .112-.145c.052-.031.11-.051.18-.059a.463.463 0 0 1 .19.016.294.294 0 0 1 .15.127c.044.069.077.199.098.388.023.191.02.33-.012.414ZM31.575 73.66c-.232-.049-.492-.016-.78.094-.264.102-.466.235-.602.394-.134.16-.172.318-.112.47.058.148.183.238.382.266.198.028.409 0 .633-.085.205-.079.36-.189.463-.327.048.185.042.321-.014.409a.524.524 0 0 1-.251.193.47.47 0 0 1-.23.04.192.192 0 0 1-.15-.088l-.518.236c.088.11.213.17.373.182.162.01.352-.026.574-.112.309-.12.535-.277.681-.473.144-.2.163-.436.056-.715-.106-.276-.275-.435-.505-.484Zm-.228.723a.539.539 0 0 1-.241.167.534.534 0 0 1-.299.038c-.09-.02-.154-.077-.19-.175-.039-.097-.031-.18.018-.246a.516.516 0 0 1 .227-.163.537.537 0 0 1 .311-.028c.1.02.17.078.205.171a.235.235 0 0 1-.031.236Z"/><path d="M16.251 63.632c.05-.115.083-.19.102-.222a.25.25 0 0 1 .09-.096.266.266 0 0 1 .295.067c.05.047.07.119.063.209a.257.257 0 0 1-.105.198.51.51 0 0 1-.284.079l.013.28c.215-.001.38-.046.5-.132.119-.086.186-.217.2-.394a.604.604 0 0 0-.047-.31.445.445 0 0 0-.199-.206.699.699 0 0 0-.301-.093.724.724 0 0 0-.309.032.469.469 0 0 0-.207.14 1.195 1.195 0 0 0-.16.292c-.055.136-.105.217-.148.251a.177.177 0 0 1-.12.033.158.158 0 0 1-.113-.056.256.256 0 0 1-.054-.197c.005-.081.032-.137.078-.175a.384.384 0 0 1 .217-.06l.007-.286a.656.656 0 0 0-.43.108c-.113.08-.176.21-.19.384a.56.56 0 0 0 .045.282.441.441 0 0 0 .18.19c.08.047.17.073.267.08a.581.581 0 0 0 .395-.097c.08-.054.152-.156.215-.3ZM17.218 62.598l-.817-.172.116-.543.816.171.058-.277-1.867-.393-.059.278.737.154-.116.546-.734-.156-.06.277 1.867.393.06-.278ZM17.51 61.401l-.37-.256.19-.533.448.031.102-.288-1.987-.105-.103.285 1.617 1.152.102-.286Zm-.646-.445-.603-.414.733.051-.13.363ZM18.307 59.539l.13-.253-1.695-.877-.122.235 1.136.586-1.4-.072-.126.244 1.694.878.12-.234-1.111-.576 1.374.069ZM17.744 58.566c.149.106.305.182.464.229a.75.75 0 0 0 .436.005.628.628 0 0 0 .326-.241.743.743 0 0 0 .126-.332.75.75 0 0 0-.02-.332l-.622-.44-.354.5.263.187.19-.268.198.14a.606.606 0 0 1 .005.196.382.382 0 0 1-.065.173c-.07.099-.173.145-.309.141-.134-.005-.296-.07-.48-.204-.173-.12-.28-.243-.326-.366a.342.342 0 0 1 .04-.335.283.283 0 0 1 .186-.12.44.44 0 0 1 .247.038l.105-.27a.728.728 0 0 0-.447-.084.55.55 0 0 0-.36.245.589.589 0 0 0-.118.33c0 .146.044.288.135.428.09.137.217.264.38.38ZM19.612 57.69l-.605-.57.38-.406.608.571.192-.206-1.389-1.307-.194.207.549.515-.382.405-.549-.515-.194.206 1.391 1.308.193-.208ZM20.483 56.818l-.183-.41.44-.357.367.259.238-.193-1.646-1.122-.235.191.784 1.822.235-.19Zm-.62-1.381.6.424-.299.243-.3-.667ZM21.665 55.944l-1.062-1.583-.236.158 1.062 1.583.236-.158ZM22.322 55.509l.24-.11-.63-1.365.884 1.248.247-.115-.378-1.48.632 1.363.239-.112-.801-1.731-.388.178.319 1.287-.776-1.073-.389.18.801 1.73ZM23.913 54.826l-.013-.45.543-.16.24.382.294-.087-1.088-1.669-.29.087.022 1.983.292-.086Zm.349-.892-.371.11-.02-.731.39.62ZM25.343 54.456l-.122-.786.058-.009a.37.37 0 0 1 .144-.002.25.25 0 0 1 .097.067c.032.034.095.117.19.253l.265.379.335-.052-.225-.342a2.287 2.287 0 0 0-.207-.282.784.784 0 0 0-.175-.135.41.41 0 0 0 .247-.216.632.632 0 0 0 .037-.365.693.693 0 0 0-.106-.287.359.359 0 0 0-.19-.156.783.783 0 0 0-.331-.001l-.589.092.292 1.884.28-.042Zm-.024-1.601c.112-.017.182-.025.204-.025a.167.167 0 0 1 .117.059c.03.036.052.085.06.15a.31.31 0 0 1-.005.145.177.177 0 0 1-.067.094.91.91 0 0 1-.247.06l-.206.032-.074-.478.218-.037ZM26.699 54.285l-.117-1.907-.284.018.117 1.906.284-.017ZM27.995 52.4l-1.115-.024-.005.324.414.007-.033 1.585.285.008.031-1.588.417.009.006-.322ZM28.625 52.463l-.282-.03-.209 1.895.282.031.209-1.896ZM28.924 54.435l.318-1.468-.045 1.526.267.057.587-1.41-.315 1.468.258.055.401-1.863-.417-.091-.518 1.22.025-1.326-.417-.09-.402 1.865.258.057ZM31.205 55.104l.11-.302-.738-.27.178-.486.666.244.11-.301-.664-.246.146-.399.714.263.111-.303-.98-.36-.66 1.791 1.007.369ZM32.319 55.73a.558.558 0 0 0 .263.087.436.436 0 0 0 .221-.05.606.606 0 0 0 .196-.162c.06-.074.15-.21.266-.407l.51-.864-.244-.144-.537.909c-.077.13-.136.22-.176.272a.291.291 0 0 1-.147.105c-.06.019-.122.005-.19-.034a.259.259 0 0 1-.127-.156.343.343 0 0 1 .022-.207 3.05 3.05 0 0 1 .153-.28l.527-.89-.246-.145-.518.878a3.143 3.143 0 0 0-.221.43.614.614 0 0 0-.04.223c0 .077.02.154.059.226a.6.6 0 0 0 .229.21ZM33.657 56.625l.222.177 1.182-1.5-.208-.163-.79 1.005.336-1.362-.217-.172-1.18 1.501.207.16.774-.981-.326 1.335ZM34.24 57.166l1.313-1.383-.206-.195-1.313 1.383.206.195ZM36.434 56.71l-1.288.679.826-1.2-.204-.231-1.1 1.637.203.23 1.761-.89-.198-.225ZM35.859 59.161l.266-.183-.446-.648.428-.293.4.583.266-.18-.4-.585.35-.24.43.627.265-.182-.59-.861-1.574 1.079.605.883ZM36.082 59.568l.709-.362.025.052a.372.372 0 0 1 .046.135.24.24 0 0 1-.032.113c-.022.04-.084.128-.183.26l-.277.37.155.303.253-.321c.102-.13.168-.224.202-.285a.761.761 0 0 0 .074-.208.4.4 0 0 0 .283.165.613.613 0 0 0 .357-.078.687.687 0 0 0 .241-.191.367.367 0 0 0 .09-.229.77.77 0 0 0-.103-.315l-.272-.53-1.698.867.13.254Zm1.41-.722.101.197c.053.102.082.166.088.187a.162.162 0 0 1-.02.129.281.281 0 0 1-.12.105.36.36 0 0 1-.142.04.165.165 0 0 1-.108-.034c-.03-.022-.074-.095-.137-.215l-.094-.187.433-.222ZM37.556 60.292c-.05.084-.074.205-.072.367.002.123.001.204-.002.24a.246.246 0 0 1-.044.126.271.271 0 0 1-.297.062c-.065-.026-.112-.082-.144-.166a.254.254 0 0 1 .015-.224.545.545 0 0 1 .227-.19l-.128-.249c-.194.088-.329.198-.403.324a.516.516 0 0 0-.019.444c.04.114.099.205.17.264.07.063.158.098.264.109.105.01.209-.003.313-.04a.734.734 0 0 0 .267-.155.476.476 0 0 0 .131-.211c.022-.077.032-.19.027-.334-.005-.146.006-.242.033-.288a.155.155 0 0 1 .094-.078.162.162 0 0 1 .128.001.26.26 0 0 1 .13.16c.028.074.027.137 0 .19-.027.051-.084.1-.173.145l.109.261a.656.656 0 0 0 .35-.274c.07-.12.074-.262.016-.428a.543.543 0 0 0-.157-.239.432.432 0 0 0-.242-.098.593.593 0 0 0-.277.034.554.554 0 0 0-.316.247ZM37.017 62.001l1.846-.479-.07-.274-1.847.479.07.274ZM38.821 62.959l.317-.054-.189-1.098-.317.054.07.409-1.563.27.05.28 1.561-.27.071.409ZM39.239 64.425l-.018-.328-.774-.282.739-.37-.018-.336-1.076.576-.802.041.016.284.798-.043 1.135.458ZM20.998 69.392c-.04-.004-.08.021-.125.028-.15.023-.299.037-.467.073-.074.014-.156.047-.242.033-.054-.091-.118-.317-.082-.465.019-.078.06-.155.075-.246.03-.174-.028-.356.03-.508.02-.05.066-.083.094-.123.02-.03.102-.292.088-.33a1.213 1.213 0 0 0-.042-.074c-.04-.024-.08-.033-.151-.03-.24.122-.282.398-.323.71l.022.258-.026.415c.026.114.049.257.055.417-.042.031-.09.027-.155.03-.062.006-.124.01-.185.014-.168-.025-.23-.115-.354.06-.034.049-.108.097-.064.205.032.076.24.148.347.156.484.043.91-.092 1.302-.2.064-.016.13-.03.194-.043.047-.024.102-.079.15-.105.04-.022.099-.004.119-.048.058-.153-.155-.213-.26-.227ZM27.372 69.003a13.75 13.75 0 0 0-.105-.293c-.027-.114.008-.24-.044-.318a.323.323 0 0 0-.165.016l-.137-.016c-.112.094-.372.102-.582.104-.005-.008-.007-.017-.012-.023.067-.143.346-.374.49-.448.058-.029.135-.006.195-.025.054-.02.148-.11.112-.185-.026-.048-.115-.066-.187-.044l-.096.058-.419.018c-.062.001-.149.036-.196.01-.03-.023-.035-.07-.066-.096a.927.927 0 0 0-.108-.006c-.063.03-.104.037-.145.092-.008.078-.016.159-.026.241.184.11.384.017.6-.01l.112-.007h.009c-.01.077-.289.266-.356.321-.159.13-.31.303-.426.472l-.13.238c-.04.014-.078.026-.117.043-.137.058-.344.13-.421.25h-.024c-.08-.145-.063-.572.014-.682.035-.05.132-.035.155-.097.03-.082-.021-.194-.031-.254a.155.155 0 0 1 .022-.023c.218.026.243-.023.277-.214.005-.033.022-.07.002-.109-.02-.035-.235-.13-.291-.112-.04.022-.146.207-.128.288.01.047.05.08.027.14-.033.086-.135.115-.154.214-.01.048.02.068.032.097a.349.349 0 0 1 0 .174c-.06.288-.166.569-.097.912.017.083-.03.174.001.238.01.02.02.027.04.033.032.014.07-.004.092-.012.2-.066.066-.25.16-.385.022-.037.198-.138.27-.121.017.118-.055.304.036.405.051.058.153.052.236.073.196.048.456.052.654-.014.088-.033.177-.064.267-.095.095-.007.191-.017.286-.023.076-.048.123-.207.036-.27v-.027c.046-.032.092-.064.138-.094.036-.034.045-.085.094-.11.126-.04.215.128.34-.053.12-.17-.118-.252-.234-.27Zm-.509.474c-.08-.01-.1-.082-.179-.094a.047.047 0 0 1-.018.011c-.017.094.01.12.03.19l-.004.009c-.137.073-.792.035-.91-.018-.009-.041.005-.1.032-.121.027-.023.296-.11.333-.099l.015.004c.015.095-.005.132.04.209.376.088.232-.17.375-.263.103.003.298-.029.396.009.056.04-.081.143-.11.163Zm.216-.5c-.062.037-.433.025-.517 0a2.288 2.288 0 0 1-.028-.102c-.043-.01-.104-.026-.15-.01-.055.026-.069.102-.1.149a.701.701 0 0 1-.273.018.071.071 0 0 1-.01-.02c-.024-.063.07-.192.1-.237l.123.001c.056-.016.136-.041.214-.056.133-.021.372.021.535-.047.013 0 .025 0 .039.002.061.037.08.207.067.302ZM24.315 68.967c-.144-.093-.021-.365-.207-.453-.162-.075-.62.104-.813.063-.021.007-.03.002-.035-.023.055-.09.262-.321.36-.357.064-.023.14 0 .205-.025.04-.016.048-.072.08-.096.057-.038.124-.036.155-.097l.008-.049a.242.242 0 0 0-.085-.084c-.14-.021-.549.157-.667.058l.035-.149c.038-.053.133-.072.102-.179l-.04-.051c-.04-.004-.078-.005-.117-.008-.04.03-.088.046-.115.088a1.232 1.232 0 0 0-.047.072c-.19.154-.401.263-.57.437-.264.273-.447.631-.601 1.012l-.1.257-.014.346c-.009.034-.038.068-.026.122.01.043.026.12.048.15.103.022.228-.01.252-.094.03-.11-.084-.187-.097-.289-.014-.113.056-.45.092-.556.098-.272.332-.698.533-.868l.344-.263h.02c.027.057-.002.158.036.214.065.097.299.054.43.062a.103.103 0 0 1 .006.023l-.223.22-.098.125c-.032.014-.063.023-.093.037l-.147.151c-.024.037-.025.078-.046.123-.01.022-.142.246-.154.252-.077.05-.205.04-.292.039l-.065.068c-.12.08-.254.071-.246.27.165.178.298.034.504.018.013.025 0 .048.006.081.02.117.02.215.076.286.134.169.455.105.676.06h.141c.13-.032.24-.09.403-.093.036-.055.14-.213.052-.275a2.32 2.32 0 0 1 .288-.296c.071-.021.114.023.18-.028.061-.052.08-.186.013-.251-.04-.037-.099-.022-.147-.05Zm-.625.639c-.148.056-.71.137-.786-.009a.178.178 0 0 1 .01-.153c.057-.013.256-.062.32-.043.067.022.126.086.237.058.08-.02.09-.085.148-.117l.166-.037c.046-.002.1-.006.132.005 0 .005.003.01.005.017-.075.1-.18.154-.232.279Zm.317-.644c-.028.049-.11.006-.179.019-.087.01-.176.02-.263.026-.054-.014-.101-.092-.173-.082-.092.014-.077.105-.144.13a.466.466 0 0 1-.223.022c-.008-.054.02-.165.064-.188.048.004.097.01.146.012.158-.016.544-.036.661-.096l.06-.004c.023.029.073.105.051.161ZM21.885 68.615l.022.084c.02 0 .165-.042.199-.056.058-.115-.02-.236-.03-.36.001-.004.002-.007.004-.009.08-.046.19.102.312-.01.143-.13.117-.444-.13-.441-.078.06-.169.13-.203.231-.024.071-.014.164-.053.221-.048.07-.167.127-.188.216-.02.08.042.092.067.124ZM33.421 69.058c.166.077.126-.353.159-.428.038-.084.315-.118.43-.15.376-.096.767-.239 1.21-.243l.014.017c-.01.068-.028.12.057.118.033.049.05.115.107.14.182.073.291-.184.239-.36-.046-.15-.274-.158-.45-.172l-.005-.03a.704.704 0 0 0 .119-.631c-.029-.056-.152-.086-.232-.052-.143.06-.267.225-.44.25-.003 0-.004-.002-.006-.005-.01-.08.06-.167.032-.259-.009-.021-.016-.03-.035-.038a.416.416 0 0 1-.063-.004c-.128.069-.176.158-.253.27-.007.002-.013.002-.02.002a.302.302 0 0 0-.056-.106c-.192-.04-.262.416-.386.508l-.005-.004c0-.048.004-.096.006-.143.022-.011.037-.006.062-.016.064-.046 0-.253-.056-.278-.068.005-.13.04-.144.092l.007.093c-.022.114-.052.224-.029.371.009.056.03.144.011.201l-.004.015c-.044.003-.066-.021-.104-.032-.064-.018-.156.041-.183.078-.094.133-.063.48-.022.626.013.043.007.153.04.17Zm1.317-1.262c.013-.05-.006-.128.02-.166.053-.08.22-.082.31-.13.068.004.062.115.053.168-.02.093-.102.298-.198.285 0-.005-.004-.01-.005-.014.037-.049.185-.122.15-.21-.025-.053-.095-.045-.156-.03-.181.043-.135.177-.188.313l-.077.013c-.002-.008-.005-.015-.006-.024a.694.694 0 0 0 .097-.205Zm-.418-.149c.025.016.075.077.066.12-.02.038-.043.077-.064.115l-.068.21a.196.196 0 0 1-.082.017l-.005-.003c.008-.231.022-.322.153-.459Zm-.351.229c.01.007.008.005.016.014.028.07-.007.253-.047.285-.016.003-.032.004-.047.008-.004-.008-.008-.015-.01-.022-.036-.08.05-.241.088-.285Z"/><path d="M20.809 68.538a.27.27 0 0 0 .09-.105c.06-.157-.025-.286-.146-.325-.05.003-.102.005-.151.005-.04-.01-.046-.039-.11-.035-.077.066-.139.243-.134.38.156.092.273.222.45.08ZM34.708 68.963c-.004-.001-.007-.005-.011-.008l-.004-.014c.05-.069.093-.043.157-.089.088-.06.091-.199.032-.274a3.963 3.963 0 0 1-.113-.013 6.13 6.13 0 0 1-.199.025c-.231.057-.813.1-.722.388.125.062.286-.037.395-.07.05-.016.126-.042.152-.016l-.036.113c-.126.078-.263.104-.411.168-.073.033-.122.104-.182.153-.05.04-.153.162-.089.26.033.052.158.067.244.044.091-.026.156-.121.23-.173.02-.015.273-.092.3-.098.094.154-.022.379-.13.455-.053.037-.105.055-.139.11-.018.026.01.035.002.072-.03.126-.077.32.134.238.098-.04.092-.146.15-.222l.066-.05c.165-.177.232-.39.215-.719.11-.076.37-.007.515-.058.08-.04.048-.226-.022-.252-.083-.032-.414.025-.534.03ZM30.495 67.897c-.013-.272-.694-.052-.916-.092-.06-.11.046-.288-.14-.294-.176.102-.116.112-.099.3-.088.095-.69.082-.866.132-.086.023-.223.05-.188.18.023.094.145.121.265.093.24-.061.478-.146.743-.164.001.006.002.014.005.02-.05.067-.508.254-.616.292-.112.036-.155.06-.18.18 0 .034-.003.07-.003.106.043.097.166.085.255.044.1-.047.077-.11.133-.156a.981.981 0 0 1 .386-.163c.003.007.006.011.01.016.04.105-.13.087-.197.108-.134.043-.162.1-.136.23-.002.002-.004.002-.005.005-.032.046-.314.153-.386.17-.152.043-.41.015-.344.225.026.054.199.11.295.08l.134-.063c.175-.06.425-.086.636-.096.005.004.008.006.01.01v.019c-.095.063-.269.036-.396.066l-.376.084-.12.036a1.97 1.97 0 0 0-.398.062c-.013.024-.028.056-.016.094.045.095.258.05.372.023.177-.042.393-.046.603-.086l.194-.02c.067.007.137-.03.2-.006.014.007.012.007.02.019-.115.199-.487.061-.694.112-.087.021-.258.095-.19.215.072.136.682 0 .84-.005l.021.03c-.044.117-.102.33-.224.37-.069.005-.136.01-.205.013l-.003.04c.057.056.048.12.087.166.012.018.02.02.045.024.198-.11.36-.233.471-.423.035-.062.073-.211.11-.258.049-.061.212-.053.28-.094.1-.062.146-.202.227-.294.104-.121.358-.05.352-.28-.072-.073-.162-.046-.217-.09-.04-.033-.049-.096-.092-.126-.098-.068-.325-.083-.459-.038-.011-.011-.008-.006-.016-.02l.057-.051c.031-.046.02-.144.064-.172.088-.064.393-.104.334-.275-.032-.09-.213-.145-.331-.137-.063 0-.124.005-.185.006-.005-.006-.01-.007-.015-.01v-.006c.165-.103.8-.02.864-.151Zm-1.56.975a.016.016 0 0 0-.005-.008l.189-.085.12-.023h.034l.016.039c-.073.052-.23.077-.354.077Zm.73.458c-.015-.008-.015-.01-.023-.025.023-.083.072-.059.148-.091.03 0 .062.002.093.004.01.011.011.01.016.033-.018.03-.192.09-.234.079Zm.097-.399c.053 0 .119-.004.157.006l.01.024c-.031.041-.145.052-.213.055a.362.362 0 0 0-.025-.02c.003-.054.033-.044.071-.065Zm-.126-.63c.02-.043.064-.04.106-.06.038-.004.075-.005.112-.005l.015.014c-.01.062-.147.168-.225.142l-.015-.003a.129.129 0 0 1 .007-.087ZM32.186 69.192l-.017-.074c-.024-.06-.093-.077-.183-.071a3.788 3.788 0 0 1-.096.037c-.179.13.032.316.104.416.092.129.213.254.351.332.065.022.128.044.192.068.093.05.21.123.33.136.032-.022.04-.064.067-.084l.204-.061c.065-.116-.084-.222-.145-.264-.066-.047-.138-.065-.217-.1-.169-.08-.355-.163-.5-.27-.022-.017-.074-.046-.09-.065Z"/><path d="M32.05 68.179c-.092-.15.289-.773-.104-.758-.068.037-.172.105-.147.219l.038.14c-.016.162-.06.327-.114.457-.196.075-.78.165-.695.45.085.166.18.212.406.199a.06.06 0 0 1 .01.016c-.097.26-.288.536-.451.744-.121.154-.287.29-.414.452l.007.032a.284.284 0 0 0 .039.01c.276-.186.602-.463.794-.726.075-.101.155-.208.221-.315.066-.101.097-.226.188-.302.139-.117.617-.14.684-.307a.315.315 0 0 0 .005-.161c-.051-.19-.255-.16-.468-.15Z"/></g><defs><filter id="a" x="-13" y="0" width="154" height="157" filterUnits="userSpaceOnUse" color-interpolation-filters="sRGB"><feFlood flood-opacity="0" result="BackgroundImageFix"/><feColorMatrix in="SourceAlpha" values="0 0 0 0 0 0 0 0 0 0 0 0 0 0 0 0 0 0 127 0" result="hardAlpha"/><feOffset dy="16"/><feGaussianBlur stdDeviation="6.5"/><feColorMatrix values="0 0 0 0 0 0 0 0 0 0 0 0 0 0 0 0 0 0 0.03 0"/><feBlend in2="BackgroundImageFix" result="effect1_dropShadow_49_3699"/><feBlend in="SourceGraphic" in2="effect1_dropShadow_49_3699" result="shape"/></filter></defs></svg>