<svg width="128" height="137" fill="none" xmlns="http://www.w3.org/2000/svg"><g filter="url(#a)" clip-rule="evenodd"><path fill-rule="evenodd" d="M22.572 64.007c0-22.889 18.545-41.435 41.427-41.435 22.886 0 41.432 18.546 41.432 41.435 0 22.875-18.546 41.426-41.432 41.426-22.882 0-41.427-18.551-41.427-41.426Z" fill="#F9C623"/><path fill-rule="evenodd" d="M34.052 34.062c-7.664 7.67-12.397 18.243-12.397 29.945 0 11.692 4.733 22.279 12.397 29.936 7.67 7.662 18.248 12.403 29.946 12.403 11.696 0 22.277-4.741 29.947-12.403 7.66-7.657 12.401-18.243 12.401-29.936 0-11.702-4.741-22.275-12.401-29.945-7.67-7.664-18.251-12.396-29.947-12.396-11.698 0-22.277 4.732-29.946 12.396ZM20 64.007C20 39.706 39.701 20 63.998 20 88.297 20 108 39.706 108 64.007c0 24.294-19.702 43.993-44 43.993S20 88.301 20 64.007Z" fill="#1A1919"/><path fill-rule="evenodd" d="M35.29 35.297c-7.348 7.345-11.898 17.495-11.898 28.71 0 11.207 4.55 21.352 11.898 28.705 7.35 7.344 17.496 11.89 28.709 11.89 11.209 0 21.361-4.546 28.708-11.89 7.353-7.353 11.896-17.498 11.896-28.704 0-11.216-4.543-21.366-11.895-28.711-7.348-7.352-17.5-11.896-28.71-11.896-11.212 0-21.359 4.544-28.708 11.896Zm-12.718 28.71c0-22.89 18.545-41.435 41.427-41.435 22.886 0 41.432 18.546 41.432 41.436 0 22.874-18.546 41.425-41.432 41.425-22.882 0-41.427-18.55-41.427-41.425Z" fill="#474926"/><path fill-rule="evenodd" d="M35.29 35.297c-7.348 7.345-11.898 17.495-11.898 28.71 0 11.207 4.55 21.352 11.898 28.705 7.35 7.344 17.496 11.89 28.709 11.89 11.209 0 21.361-4.546 28.708-11.89 7.353-7.353 11.896-17.498 11.896-28.704 0-11.216-4.543-21.366-11.895-28.711-7.348-7.352-17.5-11.896-28.71-11.896-11.212 0-21.359 4.544-28.708 11.896Zm-12.718 28.71c0-22.89 18.545-41.435 41.427-41.435 22.886 0 41.432 18.546 41.432 41.436 0 22.874-18.546 41.425-41.432 41.425-22.882 0-41.427-18.55-41.427-41.425Z" fill="#1A1919"/><path fill-rule="evenodd" d="m27.346 77.491 1.89-.848.076.179c-.441.283-.742.648-.898 1.096-.155.442-.155.854.006 1.225.122.29.296.484.518.588.224.105.436.114.635.03a.68.68 0 0 0 .3-.23 1.56 1.56 0 0 0 .225-.559c.04-.169.073-.544.107-1.12.046-.813.168-1.396.357-1.753a1.71 1.71 0 0 1 .857-.77c.476-.201.967-.189 1.47.045.502.23.877.635 1.118 1.21.076.188.131.364.165.54.033.177.048.407.051.696 0 .158.019.282.055.374a.498.498 0 0 0 .184.197.704.704 0 0 0 .346.09l.064.147-2.159.914-.064-.153c.555-.38.914-.817 1.082-1.307.17-.49.168-.943-.005-1.354-.133-.32-.33-.537-.581-.652-.252-.117-.489-.129-.716-.03a.86.86 0 0 0-.347.27 1.37 1.37 0 0 0-.22.48c-.056.191-.091.517-.117.965-.04.628-.098 1.093-.178 1.397a2.143 2.143 0 0 1-.383.78c-.17.219-.388.383-.656.496a1.669 1.669 0 0 1-1.379-.016c-.462-.202-.803-.56-1.02-1.075a2.59 2.59 0 0 1-.167-.57 3.277 3.277 0 0 1-.017-.569c.011-.227-.002-.384-.034-.46-.033-.073-.078-.123-.142-.146-.064-.024-.187-.019-.37.018l-.053-.125ZM25.954 70.85c.1.553.463.926 1.082 1.119.511.149 1.202.144 2.075-.013 1.04-.183 1.775-.504 2.21-.959.301-.315.407-.704.328-1.16-.056-.31-.178-.553-.36-.734-.242-.227-.588-.378-1.035-.447-.445-.075-1.006-.05-1.684.073-.803.146-1.395.326-1.769.55-.373.216-.619.459-.74.722a1.36 1.36 0 0 0-.107.848Zm-.285.105c-.21-.965-.067-1.805.423-2.521.497-.713 1.198-1.153 2.104-1.315.773-.14 1.496-.04 2.165.31.888.46 1.429 1.239 1.627 2.328.197 1.1-.026 2.016-.663 2.748-.5.58-1.155.944-1.963 1.089-.907.159-1.717-.015-2.432-.52-.715-.507-1.139-1.214-1.26-2.12ZM25.008 64.656l.203-3.193.167.01-.01.159c-.017.24 0 .407.044.498a.468.468 0 0 0 .192.205c.087.043.307.073.659.099l3.038.192c.555.032.926.016 1.11-.054a1.05 1.05 0 0 0 .474-.38c.132-.184.207-.42.224-.71.022-.331-.033-.62-.173-.862a1.36 1.36 0 0 0-.59-.566c-.258-.134-.716-.225-1.375-.262l-2.53-.163c-.276-.016-.476 0-.6.045a.515.515 0 0 0-.256.204c-.078.128-.128.315-.143.56l-.164-.01.134-2.146.168.015-.011.126a.835.835 0 0 0 .077.44.57.57 0 0 0 .301.268c.093.047.268.08.519.094l2.355.152c.73.043 1.253.126 1.568.238.317.117.602.372.848.76.249.389.351.904.312 1.543-.033.532-.134.945-.295 1.226-.217.388-.485.654-.804.799-.312.143-.73.2-1.244.167l-3.038-.195c-.355-.02-.578-.017-.667.02a.458.458 0 0 0-.223.19c-.056.096-.09.277-.106.54l-.164-.01ZM27.571 50.123l1.613.486-.045.155c-.402-.013-.697.009-.896.073-.198.065-.37.184-.526.355-.09.094-.173.282-.258.56l-.133.447 4.591 1.38c.304.09.503.132.589.122a.467.467 0 0 0 .26-.133.818.818 0 0 0 .207-.37l.056-.194.158.045-.928 3.093-.158-.047.056-.195a.854.854 0 0 0 .033-.444.463.463 0 0 0-.158-.239c-.062-.054-.242-.125-.544-.217l-4.59-1.376-.136.444c-.12.407-.122.723-.01.957.16.326.452.589.867.791l-.048.157-1.612-.485 1.612-5.365ZM32.657 46.987l1.66.97c.28.16.458.247.547.258a.494.494 0 0 0 .285-.073.803.803 0 0 0 .284-.31l.1-.175.145.085-1.628 2.79-.143-.085.104-.18a.859.859 0 0 0 .133-.42.434.434 0 0 0-.1-.267c-.045-.068-.207-.182-.478-.341l-3.529-2.06c-.272-.164-.457-.247-.543-.258a.475.475 0 0 0-.282.066.785.785 0 0 0-.287.312l-.105.18-.14-.083 1.627-2.79.143.083-.102.176a.833.833 0 0 0-.133.422.449.449 0 0 0 .096.271c.05.066.206.178.48.336l1.518.89 1.112-1.908-1.52-.886c-.273-.162-.457-.25-.54-.26a.432.432 0 0 0-.285.07.85.85 0 0 0-.29.312l-.1.173-.143-.083 1.631-2.787.14.084-.1.172a.826.826 0 0 0-.135.422.465.465 0 0 0 .095.276c.05.065.21.176.48.337l3.527 2.06c.278.16.458.25.546.26a.486.486 0 0 0 .285-.071c.1-.06.2-.166.285-.313l.102-.173.143.083-1.629 2.787-.143-.083.1-.174a.8.8 0 0 0 .134-.42.448.448 0 0 0-.096-.274c-.046-.067-.204-.177-.475-.337l-1.662-.974-1.114 1.91ZM35.773 37.8l1.821 1.743.087-.087c.274-.288.38-.578.324-.88-.056-.3-.246-.635-.558-1.007l.112-.115 2.358 2.252-.115.119a2.434 2.434 0 0 0-.791-.435c-.241-.067-.45-.077-.61-.017-.167.058-.352.196-.555.41l1.264 1.211c.25.237.413.373.485.404a.391.391 0 0 0 .251.011c.09-.023.196-.097.318-.222l.256-.272c.4-.416.625-.846.67-1.283.05-.439-.073-.901-.364-1.39l.119-.124 1.232 1.567-3.701 3.87-.121-.115.142-.152a.81.81 0 0 0 .23-.379.405.405 0 0 0-.033-.283c-.032-.075-.16-.22-.388-.439l-2.951-2.822c-.207-.197-.337-.313-.395-.348a.45.45 0 0 0-.298-.05c-.14.023-.281.107-.418.253l-.146.147-.116-.108 3.582-3.75 1.322 1.27-.112.116c-.385-.242-.703-.373-.953-.391-.252-.019-.514.048-.784.197-.16.085-.403.3-.73.641l-.434.458ZM45.225 34.711 43.31 33.45l.37 2.277 1.546-1.016Zm.319.206-1.807 1.184.11.661c.039.214.098.385.17.494.097.15.225.22.393.212.095-.003.285-.082.57-.241l.089.14-1.725 1.133-.091-.14a.892.892 0 0 0 .304-.54c.036-.204.01-.567-.078-1.083l-.869-5.356.072-.05 4.657 3.04c.448.29.764.455.95.483.139.028.296-.008.459-.098l.092.133-2.51 1.649-.089-.136.106-.068c.197-.134.32-.255.365-.365a.246.246 0 0 0-.034-.233.516.516 0 0 0-.116-.132 7.925 7.925 0 0 0-.305-.214l-.713-.473ZM51.694 26.938l.786 1.916-.18.069c-.273-.451-.626-.767-1.067-.934-.438-.17-.846-.177-1.226-.037-.292.114-.495.283-.607.5a.78.78 0 0 0-.046.64.684.684 0 0 0 .217.304c.134.102.32.182.552.244.17.043.54.09 1.121.143.804.071 1.385.21 1.737.415.345.202.597.497.74.876.185.481.157.974-.087 1.468-.25.493-.666.855-1.25 1.082a3 3 0 0 1-.546.145c-.177.025-.408.032-.697.025a1.112 1.112 0 0 0-.37.047.453.453 0 0 0-.208.178.63.63 0 0 0-.099.34l-.153.063-.843-2.187.154-.06c.362.564.786.941 1.27 1.125.49.184.941.196 1.358.036.322-.125.545-.309.67-.557.127-.249.145-.486.055-.72a.833.833 0 0 0-.263-.351 1.217 1.217 0 0 0-.472-.237c-.192-.062-.51-.107-.96-.151-.627-.056-1.091-.128-1.391-.224a2.111 2.111 0 0 1-.77-.406 1.546 1.546 0 0 1-.468-.668c-.18-.46-.163-.922.055-1.376.218-.459.59-.789 1.11-.986.19-.075.381-.123.575-.148.152-.014.341-.014.57-.002.229.02.382.01.46-.017a.252.252 0 0 0 .15-.14c.025-.062.025-.185-.004-.371l.127-.044ZM60.5 25.187l.272 1.661-.165.027c-.16-.363-.307-.623-.452-.774a1.289 1.289 0 0 0-.552-.319c-.123-.036-.327-.03-.614.018l-.46.071.766 4.732c.05.316.102.51.147.585.05.073.125.13.233.176.112.043.251.05.424.02l.2-.03.026.161-3.188.52-.024-.165.198-.034c.177-.029.317-.08.411-.164a.412.412 0 0 0 .146-.252c.024-.075.011-.268-.04-.58l-.77-4.73-.458.074c-.415.068-.702.204-.863.41-.223.287-.335.662-.335 1.121l-.162.032-.268-1.663 5.529-.897ZM67.448 25.155l3.155.538-.029.162-.159-.03c-.234-.04-.403-.04-.496-.002a.39.39 0 0 0-.223.17c-.056.08-.112.294-.167.644l-.513 2.999c-.092.55-.112.92-.063 1.11.051.192.162.361.33.513.168.15.396.248.682.297.329.053.62.028.878-.08a1.39 1.39 0 0 0 .621-.53c.16-.242.296-.691.407-1.34l.425-2.498c.046-.274.052-.474.018-.6a.54.54 0 0 0-.175-.282c-.121-.089-.3-.156-.544-.198l.029-.162 2.116.36-.027.162-.125-.02a.806.806 0 0 0-.445.03.591.591 0 0 0-.3.269c-.056.09-.106.259-.145.507L72.3 29.5c-.122.721-.258 1.232-.406 1.538-.151.302-.43.558-.845.76-.412.21-.935.258-1.565.147-.532-.087-.927-.23-1.19-.42-.362-.261-.596-.551-.708-.882-.112-.328-.122-.745-.036-1.256l.51-3c.063-.35.077-.577.048-.666a.41.41 0 0 0-.165-.24c-.09-.067-.262-.122-.525-.165l.03-.161ZM77.96 27.702l1.36 4.711 1.016-2.437c.145-.348.196-.601.145-.764-.067-.225-.261-.397-.585-.526l.066-.15 1.897.788-.061.154c-.258-.069-.435-.097-.539-.082a.505.505 0 0 0-.291.166c-.096.092-.2.274-.314.547l-1.987 4.77-.148-.06-1.893-6.405-1.532 3.675c-.136.324-.153.575-.047.754a.915.915 0 0 0 .452.387l.134.059-.063.15-2.038-.847.065-.15c.316.127.563.154.74.08.174-.075.327-.26.453-.564l1.687-4.047-.064-.214c-.054-.21-.117-.358-.192-.444-.07-.093-.192-.174-.366-.25l.06-.155 2.045.854ZM83.163 37.308l-.094.14-2.706-1.754.09-.14.17.113c.152.097.29.15.416.152a.397.397 0 0 0 .272-.09c.07-.038.192-.195.363-.456l2.221-3.43c.174-.269.27-.445.285-.532a.47.47 0 0 0-.057-.286.76.76 0 0 0-.3-.3l-.171-.114.092-.137 2.71 1.755-.09.14-.17-.112a.826.826 0 0 0-.419-.153.447.447 0 0 0-.274.083c-.07.048-.188.197-.359.466l-2.224 3.427c-.172.269-.268.445-.28.535a.464.464 0 0 0 .057.284c.05.107.15.206.295.301l.173.108ZM93.012 37.922l-.115.123a.997.997 0 0 0-.689-.15c-.198.022-.58.156-1.156.394l-4.802 2.004-.112-.11 1.841-5.047c.225-.61.336-.983.346-1.118.006-.138-.067-.297-.223-.483l.111-.118 2.165 2.027-.114.126-.072-.069c-.2-.184-.355-.287-.471-.303a.22.22 0 0 0-.216.077.607.607 0 0 0-.11.168c-.03.07-.11.275-.233.616l-1.152 3.15 2.77-1.165c.34-.143.56-.245.664-.31a.905.905 0 0 0 .234-.172.4.4 0 0 0 .111-.227.412.412 0 0 0-.044-.263 1.405 1.405 0 0 0-.327-.417l.116-.121 1.478 1.388ZM95.474 41.797l-2.081 1.425.065.103c.227.324.487.49.793.497.306.006.675-.107 1.099-.338l.095.134-2.689 1.838-.096-.13c.273-.234.469-.461.589-.684.119-.224.166-.427.144-.6-.025-.17-.118-.382-.286-.625l-1.448.99c-.282.193-.45.324-.494.39a.352.352 0 0 0-.064.24c.002.096.055.213.152.358l.214.31c.325.474.696.784 1.118.918.414.14.896.116 1.436-.07l.096.138-1.785.886-3.025-4.42.134-.09.117.17c.101.146.209.25.325.3.08.043.178.05.288.028.08-.017.246-.11.507-.29l3.373-2.307c.233-.162.371-.264.417-.312a.46.46 0 0 0 .113-.282c.005-.142-.048-.3-.164-.463l-.116-.167.137-.096 2.926 4.274-1.51 1.038-.092-.14c.315-.327.512-.608.58-.852.068-.242.057-.512-.032-.805-.054-.172-.213-.455-.48-.845l-.356-.521ZM99.42 48.801l-2.496 1.003.1.243c.161.399.314.681.466.849a.94.94 0 0 0 .572.31c.235.038.499-.003.798-.123.433-.176.713-.407.837-.698.123-.29.095-.667-.093-1.126l-.183-.458Zm-2.815 1.132-1.629.655c-.314.126-.499.225-.564.297-.064.07-.1.16-.11.28-.01.117.04.31.148.573l-.154.063-1.195-2.967.153-.064c.11.267.21.442.296.519a.51.51 0 0 0 .274.127c.096.004.298-.053.609-.18l3.76-1.51c.31-.126.5-.227.563-.298a.427.427 0 0 0 .109-.281c.012-.114-.038-.308-.148-.573l.153-.06 1.08 2.676c.282.697.439 1.229.471 1.59.033.36-.039.698-.214 1.005-.178.31-.443.537-.79.675a1.466 1.466 0 0 1-1.24-.03c-.255-.122-.495-.34-.725-.655l-1.394 2.16c-.18.282-.29.477-.324.578a.76.76 0 0 0 .018.458l-.153.064-.723-1.798 1.883-2.925-.154-.379ZM102.704 58.804l-2.031.413-.034-.193c.496-.181.863-.471 1.116-.87.249-.403.336-.799.263-1.2-.054-.306-.179-.535-.374-.69-.199-.147-.404-.202-.615-.166a.706.706 0 0 0-.344.162 1.59 1.59 0 0 0-.343.496c-.071.157-.191.517-.35 1.075-.22.775-.464 1.319-.731 1.623a1.713 1.713 0 0 1-1.004.566c-.508.094-.983-.03-1.423-.363-.44-.334-.714-.811-.828-1.43a2.621 2.621 0 0 1-.044-.559c.013-.181.045-.413.108-.692.033-.155.039-.28.022-.377a.42.42 0 0 0-.134-.23.698.698 0 0 0-.318-.166l-.029-.158 2.306-.418.03.162c-.629.25-1.073.596-1.345 1.04-.27.444-.371.881-.287 1.324.06.34.2.595.418.762.223.17.452.232.697.186a.855.855 0 0 0 .398-.19 1.4 1.4 0 0 0 .322-.417c.093-.181.201-.487.323-.917.172-.606.332-1.046.483-1.326.147-.278.327-.505.54-.678.21-.176.463-.286.748-.34.485-.086.932.017 1.342.318.41.299.66.722.761 1.273.036.197.049.398.033.594-.01.15-.043.333-.105.554-.058.224-.079.377-.063.46.011.078.044.138.107.17.051.04.171.06.362.069l.023.133ZM96.845 64.838h-.165l-.075-3.228.169-.002.005.204a.8.8 0 0 0 .105.432.43.43 0 0 0 .223.175c.079.031.27.045.586.04l4.085-.096c.32-.008.519-.027.599-.062a.488.488 0 0 0 .206-.208.787.787 0 0 0 .078-.417l-.002-.203.163-.005.078 3.23-.168.007-.003-.207a.814.814 0 0 0-.109-.43.414.414 0 0 0-.223-.18c-.078-.033-.273-.043-.585-.035l-4.086.09c-.321.008-.519.031-.598.07a.405.405 0 0 0-.204.203.848.848 0 0 0-.084.415l.005.207ZM102.029 72.545l-1.663-.248.025-.16c.398-.042.689-.105.873-.2.184-.093.346-.236.475-.427.069-.108.128-.304.172-.59l.068-.458-4.74-.712c-.316-.049-.52-.059-.6-.037a.466.466 0 0 0-.24.17.826.826 0 0 0-.15.397l-.032.2-.161-.025.477-3.193.161.025-.027.204a.802.802 0 0 0 .034.44.44.44 0 0 0 .189.214c.067.043.255.09.57.133l4.735.71.074-.46c.061-.42.016-.735-.13-.947-.201-.303-.529-.523-.969-.662l.027-.163 1.664.252-.832 5.537ZM99.11 81.017l-.153-.06c.047-.202.047-.37.002-.504-.066-.187-.304-.538-.725-1.056l-1.62-2.068-1.397-.538c-.302-.114-.497-.174-.581-.17a.502.502 0 0 0-.267.11.8.8 0 0 0-.224.335l-.124.324-.154-.055 1.242-3.239.157.058-.118.301a.81.81 0 0 0-.064.439c.014.088.06.175.143.252.056.056.228.143.525.258l1.157.445 3.018-.4c.595-.082.954-.166 1.086-.243.13-.072.232-.204.307-.392l.156.061-1.068 2.772-.153-.057.047-.128c.064-.167.087-.292.064-.38-.027-.082-.067-.138-.121-.159-.104-.041-.41-.027-.92.037l-2.311.31 1.338 1.724c.335.424.568.663.71.72.081.028.16.017.239-.036.11-.067.221-.232.333-.485l.158.06-.682 1.764Z" fill="#1A1919"/><path fill-rule="evenodd" d="m64.577 95.35-.579.991-.574-.991-.485-.844-24.287-42.061h50.7L65.063 94.506l-.487.844Z" fill="#4D7236"/><path fill-rule="evenodd" d="M77.675 67.57V64.7h-2.87s-.314-2.368-2.821-4.822c-2.503-2.447-5.748-2.604-5.748-2.604v-1.328h.544v-.223s-.388-.294-1.096-.561c-.712-.265-1.454-.377-1.454-.377V52.68h-.458v2.106s-.754.112-1.454.377c-.711.267-1.091.562-1.091.562v.222h.534v1.328s-3.437.464-5.75 2.604c-2.318 2.147-2.82 4.822-2.82 4.822h-2.873v2.869h-4.052l8.346 14.423.897-.05h16.984l.457-.025.613-.374 8.034-13.974h-3.922Z" fill="#F9C623"/><path d="M77.675 67.57V64.7h-2.87s-.314-2.368-2.821-4.822c-2.503-2.447-5.748-2.604-5.748-2.604v-1.328h.544v-.223s-.388-.294-1.096-.561c-.712-.265-1.454-.377-1.454-.377V52.68h-.458v2.106s-.754.112-1.454.377c-.711.267-1.091.562-1.091.562v.222h.534v1.328s-3.437.464-5.75 2.604c-2.318 2.147-2.82 4.822-2.82 4.822h-2.873v2.869h-4.052l8.346 14.423.897-.05h16.984l.457-.025.613-.374 8.034-13.974h-3.922Z" stroke="#1A1919" stroke-width="1.091"/><path fill-rule="evenodd" d="m66.95 94.383 24.84-43.015a30.444 30.444 0 0 1 2.74 12.64c0 8.43-3.422 16.052-8.95 21.578a30.37 30.37 0 0 1-18.63 8.797Zm-24.538-8.797c-5.522-5.526-8.938-13.149-8.938-21.578 0-4.507.983-8.791 2.741-12.64l24.837 43.015a30.427 30.427 0 0 1-18.64-8.797Zm0-43.176c5.53-5.514 13.156-8.934 21.587-8.934 8.435 0 16.06 3.42 21.581 8.934a30.563 30.563 0 0 1 5.948 8.38H36.47a30.722 30.722 0 0 1 5.941-8.38Z" fill="#FFFFFE"/><path fill-rule="evenodd" d="M37.672 75.52h-.496v-3.16c-.12.113-.276.228-.47.341-.195.114-.368.2-.523.256v-.48c.279-.13.52-.288.728-.473.208-.186.355-.366.44-.54h.32v4.056ZM40.766 72.803c0-.286-.076-.51-.227-.678a.714.714 0 0 0-.548-.25c-.22 0-.412.09-.575.27-.164.18-.245.414-.245.7 0 .256.077.466.232.626a.764.764 0 0 0 .575.241c.23 0 .418-.08.567-.24.148-.161.221-.385.221-.67Zm-2.031 1.784.477-.045c.04.225.117.387.232.489.114.1.26.152.438.152a.756.756 0 0 0 .401-.107.84.84 0 0 0 .282-.28c.073-.115.135-.274.185-.472.05-.199.075-.4.075-.606l-.003-.098c-.1.156-.235.286-.408.382-.17.1-.358.148-.557.148-.335 0-.618-.121-.85-.364-.23-.242-.347-.561-.347-.958 0-.41.122-.74.363-.99.242-.249.544-.374.908-.374.264 0 .503.07.72.212.219.14.384.343.497.605.113.263.17.64.17 1.136 0 .517-.056.928-.168 1.234-.113.307-.28.538-.5.7-.222.16-.482.237-.78.237-.316 0-.574-.085-.775-.261-.2-.176-.32-.422-.36-.74ZM42.027 73.527c0 .663.078 1.106.234 1.324.154.221.346.332.574.332.228 0 .42-.11.574-.332.157-.222.234-.663.234-1.324 0-.665-.077-1.107-.234-1.326-.154-.218-.348-.326-.58-.326a.633.633 0 0 0-.546.288c-.17.246-.256.702-.256 1.364Zm-.51 0c0-.477.05-.862.148-1.154.098-.29.245-.515.438-.673.194-.158.438-.237.732-.237.217 0 .407.044.571.131a1.1 1.1 0 0 1 .405.377c.106.165.19.366.25.601.06.237.092.555.092.955 0 .475-.05.857-.147 1.148-.097.291-.243.518-.436.675-.194.16-.44.238-.735.238-.39 0-.696-.138-.918-.418-.266-.336-.4-.884-.4-1.643ZM46.983 75.045v.475h-2.671a.903.903 0 0 1 .058-.344c.068-.18.177-.361.327-.538.15-.176.366-.379.648-.61.44-.363.736-.646.89-.856.155-.211.232-.411.232-.597a.666.666 0 0 0-.21-.5.761.761 0 0 0-.55-.2c-.24 0-.43.07-.574.213-.144.144-.216.343-.217.595l-.511-.051c.035-.38.166-.67.394-.87.229-.198.534-.299.918-.299.388 0 .694.108.921.322.226.215.34.482.34.801 0 .162-.034.319-.1.475a1.846 1.846 0 0 1-.329.495 7.8 7.8 0 0 1-.766.71c-.297.25-.488.42-.572.509-.085.089-.155.18-.21.27h1.982ZM82.7 74.505h.508l-.005-.396h-.474c-.161 0-.338.008-.528.025.003-.055.007-.096.01-.123l.008-.066a1.373 1.373 0 0 0-.018-.176c.193.016.369.024.528.024h.108l-.026-.106c-.007-.022-.029-.067-.064-.144a1.111 1.111 0 0 0-.14-.218l-.117-.132c.177-.042.317-.098.424-.174l.383.703c-.096.014-.19.038-.283.072h.536c.063-.113.124-.232.182-.36l.108-.237.07-.187c.14.097.276.166.407.204l-.142.213a9.74 9.74 0 0 0-.229.366h.143c.155 0 .32-.008.493-.024-.01.048-.017.088-.02.113a.243.243 0 0 0-.003.065l.023.187a5.082 5.082 0 0 0-.493-.025h-.484v.396h.453c.234 0 .468-.01.703-.03a1.208 1.208 0 0 0-.024.206l.024.211a8.833 8.833 0 0 0-.713-.03h-.443v.402c0 .143 0 .232.004.271l.02.264-.227-.015-.076.005-.149.01c.01-.12.017-.21.02-.275a4.21 4.21 0 0 0 .006-.26v-.403H82.7c-.23 0-.456.012-.677.031l.016-.137V74.605l-.016-.13c.22.02.447.03.677.03Zm-1.466-2.34c.007-.07.01-.121.012-.154.003-.03.003-.062.003-.09-.005-.04-.008-.124-.015-.25.655.024 1.03.036 1.12.036h.863l.01-.137v-.137l-.014-.418c.142.013.227.022.251.022.027.002.112-.004.259-.022l-.021.378-.01.161-.004.153h.936c.073 0 .448-.012 1.128-.036-.01.066-.015.117-.02.154a.78.78 0 0 0-.003.092l.023.248a23.478 23.478 0 0 0-1.128-.036h-.948l-.02.473h1.204c.102 0 .273-.01.511-.03-.007.121-.013.23-.02.327-.007.098-.01.166-.01.208v2.37a.476.476 0 0 1-.07.273.361.361 0 0 1-.204.14c-.093.026-.301.072-.627.138a3.904 3.904 0 0 0-.023-.16.973.973 0 0 0-.053-.177 1.358 1.358 0 0 0-.205-.314c.238.05.42.078.546.085.085.008.135-.009.154-.045a.36.36 0 0 0 .029-.157v-2.3h-2.982v2.247c0 .212 0 .335.005.372l.025.357a2.635 2.635 0 0 0-.464 0c.01-.156.019-.275.023-.353.006-.081.007-.208.007-.386v-2.11a3.41 3.41 0 0 0-.008-.271l-.022-.244c.25.02.433.03.552.03h1.178l.015-.473h-.857c-.282 0-.657.012-1.126.036ZM89.415 74.69c.14-.075.265-.164.377-.267l1.12.856c-.15.12-.289.241-.417.367l-.077-.091c-.165-.197-.458-.454-.874-.768l-.129-.098Zm-1.852-.957h2.325v-.732h-2.325v.732Zm-.483.386c.004-.086.01-.165.019-.244.008-.077.012-.135.012-.173v-.716l-.015-.239-.016-.2c.264.02.461.03.596.03h2.1c.143 0 .328-.01.551-.03-.014.12-.023.215-.028.28a2.104 2.104 0 0 0-.007.16v.715c0 .107.004.196.014.263l.021.154a7.287 7.287 0 0 1-.328-.017 2.99 2.99 0 0 0-.216-.013h-.825v1.402a.497.497 0 0 1-.041.229.354.354 0 0 1-.17.13c-.085.037-.29.08-.613.127a2.099 2.099 0 0 0-.098-.302l-.11-.197.116.013c.241.038.378.019.413-.047a.627.627 0 0 0 .05-.271v-1.084h-.825c-.064 0-.264.01-.6.03Zm-.723-2.433c.36.028.587.04.683.04h1.481c-.032-.098-.048-.151-.052-.16l-.193-.43c.193 0 .379-.018.555-.054l.177.645h1.339c.102 0 .336-.013.702-.04-.009.075-.016.133-.018.172-.001.04-.001.073-.004.097a2.22 2.22 0 0 0 .022.235c-.366-.028-.6-.041-.702-.041H87.04c-.102 0-.33.013-.683.041l.016-.152a.66.66 0 0 0 .002-.087l-.018-.266Zm.093 3.609a3.84 3.84 0 0 0 1.022-.85l.086-.1c.156.12.287.21.392.273l-.136.102a3.649 3.649 0 0 0-.276.247 7.32 7.32 0 0 1-.442.39l-.3.248-.072.062a1.777 1.777 0 0 0-.137-.149l-.235-.167.098-.056Z" fill="#1A1919"/><path fill-rule="evenodd" d="M77.675 67.57V64.7h-2.87s-.314-2.368-2.821-4.822c-2.503-2.447-5.748-2.604-5.748-2.604v-1.328h.544v-.223s-.388-.294-1.096-.561c-.712-.265-1.454-.377-1.454-.377V52.68h-.458v2.106s-.754.112-1.454.377c-.711.267-1.091.562-1.091.562v.222h.534v1.328s-3.437.464-5.75 2.604c-2.318 2.147-2.82 4.822-2.82 4.822h-2.873v2.869h-4.052l8.545 14.715.24-.367.206.359.252-.176h16.984l.25.176.207-.36.288-.497 8.497-13.85h-4.06Z" fill="#F9C623"/><path fill-rule="evenodd" d="M37.392 87.998c.036-.03.09-.072.167-.115a.836.836 0 0 1 .307-.106.808.808 0 0 1 .365-.008.988.988 0 0 1 .575.28.845.845 0 0 1 .092.101c.05.055.083.121.128.188.036.074.062.152.084.232.017.081.022.178.027.28a.691.691 0 0 1-.05.301 2.056 2.056 0 0 1-.134.266 1.019 1.019 0 0 1-.556.409c-.116.03-.216.05-.303.05-.089 0-.167-.008-.251-.02a.801.801 0 0 1-.244-.085 1.583 1.583 0 0 1-.202-.135.702.702 0 0 1-.151-.14.829.829 0 0 1-.123-.186 1.648 1.648 0 0 1-.095-.246.972.972 0 0 1-.024-.332c.013-.132.044-.24.084-.331a.728.728 0 0 1 .14-.237c.054-.067.107-.121.164-.166ZM89.162 89.729a1.014 1.014 0 0 1-.31-.417.891.891 0 0 1-.078-.362 1.056 1.056 0 0 1 .018-.28c.02-.067.042-.128.063-.189.023-.053.054-.105.078-.147l.077-.115c.052-.054.104-.103.167-.156a.905.905 0 0 1 .207-.136c.08-.027.17-.058.27-.083a.768.768 0 0 1 .304-.008c.102.026.198.047.287.081.09.029.184.09.279.169.1.086.177.185.234.293.056.107.092.204.112.29.016.083.029.165.029.243a.81.81 0 0 1-.038.26 1.812 1.812 0 0 1-.088.23c-.026.061-.072.117-.105.168a.858.858 0 0 1-.167.159 1.243 1.243 0 0 1-.22.142.795.795 0 0 1-.323.088 1.564 1.564 0 0 1-.338-.008.998.998 0 0 1-.26-.088c-.075-.048-.143-.088-.198-.134ZM68.68 46.153c.407.079 1.044.555 1.411.98.34.378.464.735.494 1.115.043.38-.115.313-.197.313-.179-.07-.626-.144-.842-.3-.486-.352-.45-1.413-.91-1.84-.095-.082-.085-.288.044-.268ZM78.56 42.306c-.02.098-.02.207-.05.217-.122.05-.211.09-.252.013-.037-.072 0-.226.023-.36.013-.076-.023-.156 0-.223.037-.148.131-.21.131-.21.05-.018.238-.05.238-.05s.067.098.08.178c0 .126-.139.291-.17.435Zm-.215.794c0 .114.01.243-.103.273l-.223.033a1.485 1.485 0 0 1-.439-.02c-.137-.035-.197-.125-.218-.253-.038-.161.09-.418.145-.691.04-.154 0-.287.04-.469l.07-.093h.116l.085.093c.074.244-.048.54.047.775.079.188.216.055.439.12.041-.014.128.114.041.232Zm2.04.142c-.134-.048-.276-.123-.39-.145-.163-.038-.397.052-.648.117-.161.036-.324.022-.495.07 0 0-.006-.16 0-.235.082-.449.178-1.107.407-1.793.143-.398.11-.801-.025-1.119-.084-.195-.322-.335-.556-.354-.246-.017-.577.096-1.035.395-.123.073-.159.158-.192.215-.115.131-.057.167.13.131.154-.033.355-.158.548-.217a.53.53 0 0 1 .259-.028s.123.036.194.151c.096.158.12.37.135.568.012.168.034.317-.118.369-.28.09-.36.026-.552.066-.03 0-.277.158-.388.146-.057-.017-.079-.193-.186-.354-.056-.099-.19-.09-.19-.09.009-.178.1-.309.129-.474.026-.11-.05-.105-.05-.105-.213.14-.322.32-.435.41-.051.032-.113.032-.173.032-.022-.11-.005-.247.005-.426.034-.331.1-.711.1-.711s.157-.112.324-.22l.363-.201c.136-.132.42-.075.561-.145.135-.078.097-.28.135-.424-.049-.154-.217-.167-.33-.137-.31.109-.64.46-.791.421-.06-.014-.072-.245-.133-.376-.068-.099-.185-.099-.269-.137 0 .014-.162.062-.162.062-.073.264-.113 1.11-.113 2.506 0 .066.1.223.153.223.051.024.162.024.162.024s.234.037.257.069c.082.184.095.51.105.716.012.246-.293.754-.293.754s-.19.042-.2-.12c-.025-.184-.009-.55-.036-.748-.016-.102 0-.373-.022-.48-.026-.07-.082-.03-.086-.01-.04.072-.06.462-.076.792-.024.286-.056.522-.056.522.01.178.056.632.066.709l-.227.086-.202-.017c-.14-1.183-.176-2.226-.346-3.25h-.128l-.23.217c-.034.104-.115.882-.115.882-.026.386.24 1.456.267 1.794-.012 0 0 .474 0 .474l-.098.028h-.093l-.211-.083c-.084-.556-.05-1.63-.302-2.102-.047-.09-.271-.44-.418-.489-.073-.035-.144.208-.144.208.027.24.1.317.144.576.078.623.147 1.313.19 1.882.017.066.084.11.098.182.169.032.343.04.5.093.121.04.207.128.339.138.118.016.302-.068.302-.068l.159-.195c.11-.058.446-.084.588-.068.12.132.252.168.327.158.086-.018.17-.198.349-.315 0 0 .161-.093.401-.103.15-.007.29.094.464.133.253.053.508.053.479.053.247 0 .23-.161.326-.214.122-.077.313-.104.664-.123 1.03-.07-1.761 1.54-.834 1.383.48-.078.483-.18.757-.302.303-.139.437-.251.632-.379.092-.059.302-.078.425-.15 0 0 .05-.146.106-.243.064-.121.167-.263.189-.334 0-.23-.19-.196-.39-.271ZM76.776 49.35s-.385.195-.69-.17c-.304-.374-.236-.608-.236-.608.044-.231.14-.348.404-.49.099-.068.383-.17.639-.17.161-.01.435-.064.507.102.059.653-.108.922-.624 1.335Zm3.147-1.322c-.062-.125-.336-.295-.413-.438-.133-.118-.22-.17-.43-.131-.15-.015-.363.087-.692.043-.122.013-.281-.043-.281-.043 0-.354-.06-.474-.249-.645-.112-.051-.26-.008-.26-.008a.328.328 0 0 1-.186-.025l-.012-.172c.25-.352.38-.629.697-.926-.01 0 .264-.157.291-.2.122-.105.028-.273 0-.426-.172 0-.37.02-.597-.013-.173-.028-.384-.113-.536-.076-.206.048-.38.351-.662.467-.018.012-.031.03-.049.046-.16.124-.282.226-.282.226s-.02.16.157.16c.174 0 .508-.12.73-.152a.39.39 0 0 1 .25.053c-.107.216-.21.487-.325.651-.086.138-.185.173-.199.307-.015.124.147.249.213.404.033.07.118.248.106.314l-.095.035c-.189.064-.46.015-.675.09-.412.129-.703.392-.812.704-.081.224-.005.487.021.673.088.209.205.439.328.513 0 0 .124.086.392.134.267.059.574 0 .574 0 .641-.173 1.017-.874 1.214-1.682 0 0 .186-.008.326-.011.261-.017.508.026.791.128.188.032.367.29.665.29 0 0 .055-.15 0-.29ZM55.13 44.582c.01.023.135-.082.219.063.12.108.248.356.29.39-.126.91.036 1.516.147 2.19 0 .02-.067.273-.067.273s.032.173-.222.102l-.24-.297c-.798-.706-.17-1.577-.127-2.72ZM73.11 44.081s.122-.207.196-.148c.117.104.245.347.268.422.268 1.023-.381 1.353-.814 1.692.027.02-.362.109-.286-.426.054-.343.55-.838.636-1.54ZM64.256 43.772c.03-.006.165-.045.246.016.028.034.016.084.06.134.051.079.115.12.11.164-.015.062-.102.037-.195.03-.261-.035-.406-.328-.22-.344ZM50.505 44.586c-.312.164-.888.422-.833.314l.008-.601s.572-.056.729-.117c0-.022.111-.151.072-.296-.04-.12-.178-.184-.162-.184-.145-.073-.686.053-.686.053s-.016-.48-.016-.572c.306-.084.998-.346 1.318-.315.257.009.74-.043.764.08.08.357-1.056 1.572-1.194 1.638Zm-1.649.616-.629.11s-.514.117-.693.105c0 0-.12-.368-.126-.433 0-.13-.057-.245.071-.337.128-.1.402-.135.714-.159.322-.011.663-.044.663-.044v.758Zm4.091-2.276c-.042-.153-.112-.182-.168-.462-.056-.283-.375-.469-.608-.386-.48.176-2.355.436-2.355.436v-.447s.495-.167.625-.343c.009 0 .04-.242-.058-.379-.064-.106-.267-.095-.296-.194-.187-.67-.008-1.207-.09-1.482-.126-.408-.605-.437-.805-.475-.541-.097-.742.246-.58.622.005.084.192.349.192.349l.024 1.074s-.08.023-.4.092c-.274.062-.799.164-.82.232 0 0-.063.178.021.296.068.113.274.168.302.174.25.07.904.067.904.067v.592c-.636.124-1.721.22-1.922.353-.035.594 1.916.302 1.916.302v.602s-1.088.258-1.57.331c-.02 0-.642-.352-.744-.358-.365-.03-.32.168-.32.168.22.552.447 1.093.628 1.729.09.057.32.095.521.072.263-.015.528-.128.766-.184.39-.07.694-.094.694-.094v.516s-.44.322-.563.48c-.516.667-1.024 1.073-1.66 1.58-.079.065-.29.24-.229.305.203 0 .42-.027.61-.076.216-.038.64-.375.805-.507.304-.243.748-.885 1.045-1.105l.023.528c-.04.893.039 1.37-.023 1.397-.11.1-.44.029-1.045.029l-.026.186c.37.209.537.349.883.497l.15.23c.108.1.554.038.641-.155.045-.352-.075-2.96 0-3.076.117-.219.4-.68.427-.704.17-.161.41-.31.599-.426.157-.081.608-.635.95-.918.485-.405.95-.734 1.438-1.084.034-.017.067-.089.101-.11 0 0 .03-.21.017-.274ZM57.655 40.522s.112-.165.204-.153c.22.07.527.254.55.335 0 .02-.023.184-.1.256-.035.198-.007.422-.018.538 0 0 .588-.048.777-.11.213-.066.362-.15.635-.23-.01 0 .125.053.125.156 0 .107-.13.237-.13.255-.421.206-1.329.45-1.526.503-.036.016-.354 1.128-.673 1.929-.132.348-.377.581-.449.761-.028.075.065.117.048.138.008-.013.447-.16.447-.16.092-.04.45-.274.484-.263.09.023-.363.552-.595.779-.067.083-.047.282-.047.282.09 0 .38-.014.453-.057.009-.014.116-.27.134-.303.106-.144.534-.422.59-.583.05-.176-.154-.566-.154-.566v-.207l.15-.147s.208-.096.296-.129c.132-.036.495-.054.859-.094.278-.034.738-.08 1.176-.144.227-.047.456-.13.637-.135.296-.024.457.035.547.11 0 0 .122.257.128.358.031.223.031.524.039.717 0 .119.158.167.158.273 0 .206-.174.394-.247.606-.07.2-.023.439-.078.677-.1.343-.799 2.15-.932 2.37-.095.162-.275.299-.38.303 0 0-.264.027-.264.033-.172-.303-.093-.167-.332-.371-.227-.207-.469-.537-.732-.726 0 0 .104-.122.171-.122.336 0 .627.027.97.027 0 0 .14-.04.206-.178.282-.572.586-1.408.696-2.072.101-.631 0-.82.022-1.228 0 0-.07-.122-.137-.122 0 0-.181-.04-.294-.04-.688.005-1.456.073-1.909.13-.04.083.014.512.014.512-.18.165-.681.377-.757.604v.294c.333-.06.636-.248.86-.267.089-.012.158.117.158.117a1.888 1.888 0 0 1-.227.117c-.22.106-.347.142-.644.276v.629c.289-.068.408-.133.596-.09.314.08.127.22.04.312-.228.104-.608.287-.608.287s-.02.466-.094.919c-.055.392-.168.755-.202.984-.199.103-.228.26-.35.3-.106.034-.248.092-.391.087-.061 0-.11-.053-.11-.053s-.084-.017.054-.23c.084-.118.338-.333.324-.333.036-.23.096-.464.122-.712.023-.19.017-.692.017-.692l-.795.132-.388.01c0-.014-.122-.189-.122-.189.062 0 .133-.03.235-.052.148-.048.329-.096.329-.096s.52-.285.772-.41l-.025-.522c-.367.093-.516.208-.862.353l-.298-.145c-.117-.305.096-.489-.093-.804-.053-.07-.4-.255-.493-.369.836-.8 1.062-1.36 1.366-2.784-.304 0-.473.032-.668 0-.141-.01-.441-.031-.573-.063 0 0-.17-.265-.153-.357.008-.055.234-.093.234-.093.128.051 1.093.01 1.093.01s.152-.09.169-.102c.01-.325-.053-.85-.035-.976ZM66.937 40.366s.03-.193.083-.193c.082 0 .176.04.262.09a.923.923 0 0 1 .095.103c0 1.013-.008 2.391.048 3.287a.17.17 0 0 0 .128.148s.2-.023.481-.092c.19-.042.4-.13.601-.163.363-.046.658-.16.921-.304.173-.093.296-.377.457-.481.246-.09.383.3.431.386.12.22.133.393.16.493a.34.34 0 0 1-.177.3c-.15.061-.414.025-.563.07l-.406.166c-.666.18-1.141.418-1.705.558-.213.056-.422.042-.62.092-.107.745-.182 1.84-.49 2.489-.334.685-.688.685-1.727.685-.069 0-.378.028-.45.028l-.054-.16.068-.155c.58-.335 1.054-.57 1.361-1.005.304-.417.557-1.159.645-1.707.02-.063 0-.197 0-.197-.16-.06-.721-.153-.993-.304-.243-.143-.518-.352-.598-.49 0 0 .075-.105.131-.105.133 0 .239-.044.377-.044.508-.009 1.018.034 1.24.018a.164.164 0 0 0 .121-.057s.024-.895.087-1.587c.039-.459.086-1.87.086-1.87Z" fill="#1A1919"/><path fill-rule="evenodd" d="m50.4 47.175.008-.16.12-.033 1.631.422.498.206.195.341-.051.303-.186.14-.065.162-.085.283-.19.032-.265-.168-.119-.309-.1-.382-.24-.224-.532-.233-.438-.22-.181-.16ZM52.576 95.94c.065.06.068.078.029.17.024.012.046.03.067.04-.004.28.195.363-.005.712-.05.005-.036-.003-.084.046-.013-.015-.032-.019-.052-.03-.092.097-.148.027-.262.033a.971.971 0 0 0-.088.045c-.07-.031-.13-.06-.198-.087.006-.007.005-.015.01-.023-.04-.032-.059 0-.059 0-.063-.05-.13-.097-.198-.147.004-.02.003-.04.006-.058-.065-.057-.122-.114-.186-.163.012-.02.02-.036.03-.048a.098.098 0 0 0-.025-.018c.021-.036.042-.08.069-.118-.01-.003-.02-.005-.024-.01.043-.037.084-.076.127-.11l-.024-.018c.02-.061.16-.217.16-.217a.288.288 0 0 1-.037-.054c.025-.038.044-.079.065-.115-.005-.004-.012-.006-.02-.013.01-.059.052-.129.114-.152.058-.058.072-.06.15-.042.027-.001.3.115.336.166.003.022-.002.04 0 .063.038.02.078.042.117.067-.007.008-.009.016-.016.02.019.046.013.01-.002.062ZM50.129 95.775c-.04.084-.08.164-.112.249-.059-.004-.057.01-.123-.003-.036.04-.07.08-.1.123-.021 0-.043-.003-.06-.004-.025.038-.046.082-.069.117-.008-.003-.016-.009-.024-.014a.705.705 0 0 1-.04.07.092.092 0 0 1-.024-.012c-.006.014-.018.032-.027.047l-.021-.013c-.012.017-.017.034-.028.048-.01-.006-.017-.013-.025-.014-.044.038-.018.073-.03.104a.072.072 0 0 1-.019-.016l-.095.107-.105-.031c-.086.085-.137.025-.252-.05-.011-.071-.04-.048-.066-.102a.963.963 0 0 1 .006-.06 2.592 2.592 0 0 1-.073-.035c.009-.01.008-.021.014-.025-.011-.04-.008-.01.007-.063a.842.842 0 0 1-.093-.053c0-.006.003-.013.01-.022a2.054 2.054 0 0 1-.174-.348c.017-.03.036-.06.057-.092-.018-.042.035-.23.096-.285.007.004.02.01.024.014.012-.016.016-.033.029-.047a.05.05 0 0 1 .021.014.597.597 0 0 0 .053-.094c.032-.002.067-.007.096-.005.012-.016.018-.034.03-.046.017-.01.044-.006.073-.024.038.042.02.012.032.054.02.019.037.038.06.063-.017.02-.027.047-.042.067.032.022.062.04.094.057-.002.02-.005.036-.002.058.041.034.082.069.124.102.005-.01.007-.014.013-.019.025.01.052.023.075.037-.001-.01.004-.015.01-.027.063.036.13.059.2.087.007-.005.008-.017.011-.02.017.003.031.014.048.022.005-.007.011-.016.017-.02a.412.412 0 0 0 .063.038c.032-.013.062-.029.092-.043.068-.005.14.029.214.062.008.042-.004.008.035.047ZM47.301 95.614c.015.013.031.021.047.03a.56.56 0 0 0-.046.094c-.011.022.05.032 0 .096-.002-.004-.017-.008-.022-.016-.028.034-.06.071-.093.102a.108.108 0 0 1-.06-.003.88.88 0 0 1-.102.13c-.008-.007-.017-.008-.024-.015-.005.018-.018.032-.03.047-.008-.003-.012-.008-.02-.015-.008.015-.016.034-.027.05-.017 0-.043-.005-.056-.004-.016.024-.032.047-.043.067-.008-.003-.015-.003-.023-.012l-.026.047c-.01 0-.016-.008-.021-.015l-.07.118a.105.105 0 0 1-.024-.012c-.04.07-.083.14-.12.21-.006-.006-.02-.007-.02-.016-.015.013-.019.032-.027.047-.036.001-.068.007-.1.012-.07.043-.11.181-.147.255a.724.724 0 0 0 .336.168c.008-.013.011-.017.014-.028.02.007.036.02.05.025a.06.06 0 0 0 .013-.023c.052.03.108.065.163.095a.375.375 0 0 0 .014-.023c.027.01.047.026.07.04.003-.007.01-.014.012-.023a.31.31 0 0 1 .07.041.125.125 0 0 1 .016-.023c.057.021.112.043.174.068.006-.008.008-.013.014-.024.08.046.155.09.238.136 0-.01.006-.016.012-.027.02.016.044.029.07.04a.119.119 0 0 1 .012-.023c.047.031.094.054.14.084a.046.046 0 0 1 .012-.023c.101.055.203.114.304.174.012-.014.032-.023.047-.032.072.038.143.077.209.117.02-.01.035-.018.056-.033.075.045.155.092.231.132.005-.007.005-.013.012-.022l.117.069.018-.024c.013.007.028.017.045.025 0-.007.007-.014.014-.024.054.029.109.066.164.096.005-.01.005-.016.011-.025.037.01.076.019.105.03.006-.007.009-.016.015-.023.04.016.086.027.133.043-.002-.005.008-.016.01-.022.064-.009.067-.013.144.021l.09-.106c.013.013.03.021.047.03.155-.099.208-.11.422.022.024.073.136.1.18.167-.006.01-.01.016-.01.024a.224.224 0 0 0 .045.026c-.003.018-.002.04-.002.06.017.014.03.02.045.025a.058.058 0 0 0-.01.022c.036.04.082.076.125.107.005.032.002.065.005.097.025.016.048.027.07.041-.005.009-.01.013-.01.019.019.041.027.041.075.085-.026.1.029.112.041.2.003.003.009.01.02.015-.045.1-.087.195-.136.293-.076.008-.152.02-.23.026-.126-.018-.563-.22-.705-.34l.015-.025c-.057-.048-.084.024-.12-.006a.04.04 0 0 1 .014-.025c-.164-.129-.673-.405-.83-.443-.112-.066-.22-.127-.327-.189-.006.008-.01.016-.019.024a.303.303 0 0 0-.07-.04c0 .006-.008.014-.011.021a3.792 3.792 0 0 0-.118-.068c-.003.01-.004.02-.01.027a1.702 1.702 0 0 0-.118-.067c-.005.004-.011.015-.014.02-.083-.048-.173-.097-.255-.147 0 0-.032.032-.085-.01 0 0-.002-.05-.056-.07-.005.008-.007.02-.013.028-.029-.023-.059-.036-.09-.058a.094.094 0 0 0-.019.028c-.027-.021-.062-.039-.094-.056l-.011.023-.11-.03c0 .007-.008.013-.006.02a1.052 1.052 0 0 1-.117-.066c-.006.01-.011.017-.019.026a1.73 1.73 0 0 0-.176-.072c-.005.009-.004.015-.011.022-.023-.012-.047-.022-.07-.04-.005.008-.008.019-.012.024l-.12-.064c-.016.009-.033.017-.048.032-.055-.02-.1-.039-.153-.057a1.485 1.485 0 0 0-.124.05 1.86 1.86 0 0 1-.163-.092c-.085.018-.167.028-.245.049-.021.019-.043.04-.067.056-.039-.025-.076-.049-.113-.07-.002.013-.009.017-.015.025-.036.001-.266-.188-.266-.188a.313.313 0 0 0 .015-.078.046.046 0 0 0-.023-.012c.01-.017.017-.031.03-.05a.103.103 0 0 1-.032-.051c.006-.032.016-.068.026-.103-.009-.007-.015-.007-.024-.016.023-.051.038-.104.057-.153-.01-.015-.023-.032-.033-.05.009-.073.107-.178.141-.198.025.004.043.003.066.005.018-.03.035-.062.052-.093.009.003.012.01.023.013l.028-.048c.031 0 .064-.004.095-.004.024-.04.045-.079.064-.117.009.007.016.004.024.011.062-.08.117-.163.174-.238a.185.185 0 0 1 .059-.002c.074-.038.088-.089.156-.16.006.005.015.01.019.016.003-.01.013-.018.017-.026-.009-.004-.018-.012-.024-.01l.263-.41c.066-.067.142-.129.203-.192a.056.056 0 0 0-.02-.016c.048-.126.098-.247.15-.376-.087-.083-.051-.138.028-.264.011.005.014.01.022.02a.987.987 0 0 0 .066-.062c.04 0 .136.057.163.091.003.021-.003.04-.007.064a.59.59 0 0 1 .094.055c.001.005-.005.013-.005.02l.146.118a.966.966 0 0 1-.002.057c.033.045.071.085.113.132a.349.349 0 0 0-.018.08l.028.054a.097.097 0 0 1-.023.04.655.655 0 0 1-.118.369ZM71.13 96.021a.239.239 0 0 0 .007.05c.007 0 .014.002.02 0 .016.027.028.046.037.077.029.004.053.012.081.016.023.012.023.049.06.072-.009.105 0 .078.021.204-.027.022-.052.038-.076.06.002.005 0 .014 0 .028-.013-.004-.032.001-.048.004-.003.01.003.016.005.026a1.832 1.832 0 0 0-.157.014c-.004.016-.013.033-.02.055-.017 0-.03.003-.055.004 0 .006.005.014.002.022-.032.013-.064.024-.094.037-.003.008 0 .018 0 .03-.105.007-.206.013-.306.026l-.007-.026c-.054.012-.117.032-.173.044-.002-.01-.006-.014-.004-.028-.046.004-.088.012-.127.016 0 .008 0 .012.002.023-.028 0-.054.005-.08.008.005.012.003.017.008.028-.019 0-.037.004-.053.006a.048.048 0 0 0 .001.02c-.058.006-.105.016-.153.016-.002.008 0 .014 0 .03-.133.02-.269.038-.407.06l.007.053c-.127.004-.105-.006-.205.02l.002.312c-.008-.002-.018.003-.029 0-.008.07.04.125.043.153-.007 0-.014.003-.022.003 0 .043.005.086.008.13-.008-.003-.016.003-.022 0-.01.02-.017.035-.02.054-.03.01-.053.02-.078.035l.004.05c-.092.028-.177.076-.19.173-.072.032-.148.064-.225.099-.014.1-.073.135-.19.147-.013.074 0 .055-.073.086-.045.065-.055.021-.125.066.006.005.004.014.01.022-.029.012-.058.021-.074.034-.013.072-.008.057-.073.082-.002.007.003.018.005.028-.045.001-.085.009-.132.01a.323.323 0 0 0-.019.055c-.017.001-.035.001-.05.009-.002.006.003.013 0 .024-.033.023-.042.021-.104.034.005.144-.064.175-.071.315.06.016.145.015.233.008.004-.01 0-.022 0-.028l.15-.039c.035 0-.005.035.026.022.209-.064.473-.119.672-.066.002.028 0 .052.007.08a1.193 1.193 0 0 1-.103.008c-.007.026-.013.053-.022.08l-.153.042a.508.508 0 0 0-.014.055.717.717 0 0 1-.105.005l-.02.055c-.065.004-.123.013-.182.018.006.009.004.014.001.025a.716.716 0 0 1-.124.034c.005.013.002.022 0 .03-.03.012-.063.025-.098.036.004.009.003.015.004.022a2.853 2.853 0 0 1-.153.016c0 .011.002.022 0 .03-.017 0-.031.005-.05 0 .002.014 0 .02.002.029a1.38 1.38 0 0 0-.127.014c-.003.008.002.015 0 .025-.016 0-.033.002-.054.004a.986.986 0 0 1-.042.079.118.118 0 0 1-.049.006c.003.011 0 .019.002.025l-.1.015c-.001.007-.003.014 0 .022a.986.986 0 0 1-.1.01c-.001.009-.001.02-.004.025-.047.005-.098.01-.149.017-.006.02-.014.035-.023.054-.137.024-.27.044-.407.063-.005-.008-.003-.018-.002-.023-.014-.002-.017 0-.028 0 0-.025-.004-.05-.007-.076-.03-.022-.074-.045-.106-.068a.761.761 0 0 1-.04-.153c-.013.004-.018.003-.03.004-.002-.028 0-.05-.008-.076-.004 0-.015.004-.024 0a.3.3 0 0 0-.005-.049c-.008.002-.014 0-.022.002l-.027-.258a.222.222 0 0 0 .089-.134c.228-.025.64-.23.665-.4.13-.03.061-.072.19-.099.02-.073.005-.059.073-.087.026-.029-.001-.012.052-.029.013-.107.01-.032.068-.085 0-.007.002-.018-.002-.026.034-.024.041-.024.1-.036.009-.07.025-.06.037-.132a.86.86 0 0 1 .102-.007.327.327 0 0 1 .049-.08c.03-.028.102-.031.123-.066-.003-.028-.004-.051-.008-.08.045-.088.089.025.082-.162-.005-.002-.014.003-.021 0a.458.458 0 0 0-.037-.072c-.02 0-.051.007-.075.007-.003-.007 0-.017-.002-.027-.018.005-.031.005-.05.005 0-.007-.003-.015-.004-.021-.024.006-.05.02-.074.028 0 .008.003.018.004.027-.022-.01-.036-.012-.055-.019.002.008.004.016 0 .027a1.22 1.22 0 0 0-.174.018c-.006-.009-.003-.022-.007-.03a.371.371 0 0 0-.18-.007c-.002.008 0 .015.004.027l-.081-.018s-.025.038-.076.032c0-.01-.003-.017-.005-.026-.02.002-.048 0-.075.01a.394.394 0 0 0-.025-.053c-.022.001-.038.005-.059.006.002-.006.005-.02 0-.028l-.05.008v-.028c-.03.006-.052.006-.082.01a.047.047 0 0 0 0-.026c-.043-.026-.047-.034-.11-.044-.002-.014-.002-.037-.002-.05-.03-.015-.053-.03-.084-.043.001-.007.003-.013 0-.025-.019.001-.036 0-.052.002-.041-.028-.038-.131-.044-.202.026-.003.05-.003.077-.009.005-.024.01-.054.016-.076.212-.03.428-.058.64-.09a.123.123 0 0 0-.005-.026c.046-.004.088-.005.133-.01-.002-.011-.007-.02-.009-.028.081-.008.158-.013.234-.022.002-.006 0-.012-.004-.022.12-.02.243-.04.361-.062a.094.094 0 0 0 0 .024c.008 0 .016-.003.023 0a.16.16 0 0 0 .022-.057c.095-.06.255-.073.407-.088-.003-.015-.005-.034-.003-.052.142.038.257-.022.457-.045.013-.05-.002-.023.024-.056.052-.067.206-.142.295-.18.058-.004.117-.013.176-.018.004-.01 0-.017 0-.025.091-.026.185-.053.276-.076.004-.008.002-.02 0-.028.026-.007.051-.007.077-.007 0-.01-.004-.017-.004-.028l.08.021c-.004-.016-.002-.018-.002-.029h.05c.009-.02.014-.04.021-.058.107-.007.202-.018.306-.027.148-.056.4-.028.567-.03ZM71.727 98.424a.17.17 0 0 1 0 .052c.079.013.06 0 .086.072.07.061.045.307.04.38a.32.32 0 0 1-.08.035c-.02.026-.165.069-.223.051-.011-.014-.025-.031-.034-.05-.022 0-.052.007-.077.007-.023-.069-.014-.055-.084-.07.002-.008-.002-.016 0-.027a6.093 6.093 0 0 1-.314-.071.438.438 0 0 1-.04-.1 6.653 6.653 0 0 1-.238-.055c-.012-.018-.02-.035-.035-.053-.016.006-.03.006-.048.008 0-.007 0-.014-.004-.027a2.04 2.04 0 0 0-.154.02c-.005-.012-.002-.02 0-.03a.362.362 0 0 1-.05.005c-.004-.008-.001-.019-.007-.027-.067.008-.136.013-.205.022-.012-.014-.02-.033-.03-.05l-.177.018c-.004-.006-.004-.018-.006-.025-.007.001-.013.003-.021.001a.567.567 0 0 1-.015-.128c.058-.03.117-.081.168-.122.019.002.036 0 .05 0 .016-.03.034-.055.044-.084.074-.006.14-.016.21-.019a.094.094 0 0 1-.005-.029c.01.002.018.002.028.001-.002.005.003.017.002.021a5.21 5.21 0 0 0 .255-.023.3.3 0 0 1 0 .03c.037-.005.07-.008.104-.011.002.011 0 .016.004.025.034-.005.07-.006.103-.007.005.008 0 .013 0 .021.113-.012.226-.016.336-.029.008.016.019.032.029.052.045 0 .09.003.131.005.01.02.022.034.037.053a.167.167 0 0 1 .043-.006c.038.025.012.063.038.103a.038.038 0 0 1 .025-.004c.043.042.038.053.114.065ZM70.116 99.743a.103.103 0 0 0 .046-.005c.012.106.029.234.084.282.02.058.033.051.059.093a.373.373 0 0 0 .076-.029c-.005-.012-.004-.021 0-.027.05-.005.102-.009.154-.016-.003-.008-.004-.015-.008-.023.037-.005.075-.008.107-.014.006-.012.011-.032.017-.05.09-.016.172-.033.255-.055 0 .013.003.02.008.028.007.002.014 0 .02 0 .006-.02.014-.036.024-.055.06.002.119.004.182.009-.003.01.002.015 0 .029a.332.332 0 0 1 .075-.012c.01.017.022.036.034.049.03-.001.052-.004.08-.004-.003.008-.005.015 0 .023a.43.43 0 0 1 .05-.005c-.002.01.005.02 0 .027.096.068.013.02.06.096.027.007.038.015.059.02.004.044.005.087.01.131-.044.045-.015.063-.04.106-.008.003-.017.003-.025.004-.007.016-.011.032-.026.053-.065.057-.067-.042-.091.087-.188.02-.361.093-.505.154l-.277.051c.002.008 0 .015.002.022a.833.833 0 0 1-.199.099c-.007.028-.015.054-.017.075-.013.007-.018.006-.026.01-.007.04-.01.083-.016.13-.005-.001-.014-.003-.025 0-.014.114-.029.227-.042.341-.018.012-.036.021-.048.03a1.23 1.23 0 0 0-.093.397l-.052.007c-.044.036-.007.232 0 .307.121.003.216.022.338-.03-.002-.008 0-.015-.004-.022.053-.006.105-.015.155-.019l-.003-.026c.053-.003.102-.008.157-.014a.253.253 0 0 1 .018-.052c.018-.002.033-.007.055-.007-.007-.008-.003-.015-.002-.021.045-.009.098-.012.155-.015-.005-.012-.006-.023-.008-.03.046-.004.086-.005.13-.008.005-.012-.005-.02-.005-.031.044-.001.086-.003.132-.009-.006-.011-.003-.018-.002-.026l.822-.054c.002.009 0 .014.002.022.054.016.108.03.156.035.005.02.005.039.006.058.027.005.056.013.08.017.002.007-.001.019.004.025.079.037.103.024.14.115.01 0 .017-.003.025 0 .009.057.012.118.02.179-.008 0-.02.005-.027.002 0 .022.004.036.007.052a.154.154 0 0 1-.072.081c-.041.05-.248.144-.38.116.004-.008 0-.016 0-.026a.946.946 0 0 1-.08.006c.004-.01 0-.017 0-.024l-.232.021v-.024c-.072-.003-.141-.006-.208-.007 0 .011.002.02 0 .024a.693.693 0 0 1-.1.013c-.102-.016-.566-.008-.693.043-.002.008 0 .014.001.022-.04.012-.056-.019-.056-.019-.011 0-.017-.001-.029.003.001.008.007.016.005.023-.034.001-.039-.015-.104-.015.003.018.006.036.002.051-.263.028-.528.055-.796.073.002.012.002.022.006.031-.021-.002-.032.003-.056-.002.007.018.009.024.007.033l-.18.014c-.005.02-.014.038-.021.058-.031.005-.066.021-.1.033-.008.019-.013.036-.02.056a.887.887 0 0 1-.103.032.742.742 0 0 1 .007.055c-.083.004-.174.016-.256.023.003.011 0 .013 0 .024a.67.67 0 0 1-.127-.012v.024a.445.445 0 0 1-.05.008c.001.007 0 .016.003.023-.043.002-.089.01-.132.013l.006.026c-.036.013-.07.025-.1.033-.002.015.003.019 0 .029-.094.011-.19.017-.282.024.002.009 0 .021.005.028-.017 0-.034.006-.05.004a.027.027 0 0 0 .003.026c-.055.007-.107.011-.157.015a.16.16 0 0 1 0 .049c-.09.023-.291.027-.46.047-.035-.053-.06-.05-.084-.12-.017-.001-.034.006-.054.003a.206.206 0 0 1-.002-.051.64.64 0 0 1-.104.007c-.04-.038-.082-.077-.115-.116a.288.288 0 0 0-.05.009c-.005-.016-.002-.022-.008-.03-.019-.006-.034-.013-.052-.017 0-.036-.006-.069-.01-.107-.003.003-.015.003-.023.008.005-.056.003-.106.011-.161.005 0 .016-.002.022-.001.003-.01-.003-.018 0-.028.052-.01.1-.025.153-.037-.004-.008-.002-.018 0-.028.031-.034.082-.07.114-.115.052.005.107.009.155.01l.06.073.153-.015c.002.008.007.015.006.031.016-.009.03-.005.048-.01l.006.023c.075.004.155.006.231.006 0 .008.002.02.004.028.005-.003.02 0 .025-.004-.004-.01-.002-.016 0-.023a.254.254 0 0 1 .075-.008l-.005-.03c.094-.005.186-.016.283-.03.001-.003-.004-.011-.003-.021.024-.004.048-.004.078-.008 0-.006-.003-.013-.002-.029.103-.007.203-.015.305-.027.004-.017.016-.035.023-.054.021-.002.035-.002.05-.002.002-.009-.003-.021-.004-.027l.36-.085c-.005-.031-.012-.069-.014-.103.028-.024.004.005.025-.026.027-.005.05-.005.076-.009-.055-.19-.055-.531-.076-.792-.06-.017-.062-.017-.108-.046 0-.003-.003-.019 0-.023a.195.195 0 0 0-.055.003c-.002-.006 0-.017 0-.025l-.28.077c-.006.018-.011.039-.019.053-.2-.006-.397-.011-.599-.024-.01-.019-.022-.044-.028-.071-.148.01-.19-.044-.319-.043-.037-.102-.114-.128-.153-.248a.336.336 0 0 0 .116-.137.811.811 0 0 0 .406-.07c.03.008.056.015.084.019l.018-.053c.069-.004.135-.014.206-.017.006-.019.018-.037.022-.055.09-.015.187-.018.28-.027 0 0-.01-.027.05-.032.018.017-.004.038.028.026.008-.019.014-.039.023-.057.015.001.034-.006.048-.002 0-.013 0-.022-.002-.029.077-.004.153-.015.231-.024.002-.005 0-.013-.001-.021l.052-.007c-.004-.007-.003-.014-.003-.026.071-.044.05.024.097-.062.008-.001.015-.002.025 0l.011-.154a.125.125 0 0 1 .023-.008.707.707 0 0 0-.008-.102c.011 0 .018-.002.027 0a3.732 3.732 0 0 1 0-.261c.009-.001.02-.003.021-.001l-.005-.132c.005.003.015 0 .022 0 0-.113-.003-.225-.002-.334.043-.031.032-.04.095-.059.042-.059.125-.072.224-.073.004.004.005.014.01.022.02-.003.043-.009.072-.008.01.019.02.033.028.05.046.02.09.042.138.066.024.117.082.136.104.27ZM77.573 93.75c.066-.003.125-.011.189-.017.042.058.066.058.119.093a.493.493 0 0 1 .026-.013c.046.04.174.28.176.376-.012.003-.02.004-.026.01.006.017.016.03.017.045-.005.006-.012.007-.022.01-.015.057-.03.079-.024.147-.016.01-.028.013-.045.02-.016.083-.074.099-.062.194-.103.019-.087.016-.17.068.005.016.01.032.019.05-.062.023-.13.049-.193.07.009.017.01.032.018.05l-.068.031.007.019c-.023.044-.018.061-.012.115-.057.047-.038.071-.051.083-.045.015-.091.036-.144.056 0 0 .007.014-.033.04-.053-.042-.086-.048-.132-.113a.18.18 0 0 1-.047.02.345.345 0 0 1-.043-.178c.008-.01.013-.007.022-.01a.61.61 0 0 0-.038-.098c.024-.03.058-.057.08-.085a.451.451 0 0 1-.012-.105c.007-.013.022-.025.032-.044l-.017-.047c.01-.005.02-.007.021-.01 0-.044-.039-.037-.039-.038-.004-.006-.007-.019-.012-.025.008-.004.016-.005.024-.008-.033-.075-.057-.143-.084-.212a.06.06 0 0 1 .026-.013c-.008-.017-.017-.034-.017-.05 0 0 .01-.008.018-.008a.862.862 0 0 0-.06-.145c.003-.007-.004-.015-.007-.023.01-.005.019-.005.025-.01-.005-.006-.008-.014-.013-.022a.033.033 0 0 1-.02.006c-.014-.034-.026-.06-.036-.092 0-.008.014-.01.022-.01-.028-.043-.053-.089-.081-.134.021-.03.041-.096.043-.102.024-.007.044-.02.067-.025.09-.08.162-.066.279-.085.088.09.205.11.278.22ZM76.07 94.85c.044.065.09.133.132.2-.004.002-.016.002-.026.008.01.015.013.031.024.049-.005.005-.015.001-.02.006.018.05.033.1.057.145-.015.001-.022.008-.024.01.003.027.018.051.024.07-.008.005-.016.01-.024.013.009.015.013.031.018.048l-.036.041c-.02.099.016.159-.074.229-.033.093-.074.046-.153.112.008.011.005.017.008.024l-.11.07c-.05-.04-.176-.058-.26-.032-.102-.14-.202-.268-.306-.408-.021 0-.05.002-.08.005-.031-.059-.061-.097-.095-.183.056-.04.126-.094.21-.086.03.019.05.036.08.057.033-.006.073-.01.105-.02.017.016.027.027.043.045.06-.031.128-.054.188-.08.002-.007-.005-.018-.005-.023.036-.023.074-.047.107-.072 0-.006-.003-.02-.01-.025a.204.204 0 0 1 .051-.018c-.004-.01-.009-.018-.009-.025a.41.41 0 0 1 .061-.052.177.177 0 0 0 .002-.057c.044-.016.084-.036.121-.052ZM77.996 95.082c.044.067.054.07.134.06.038.08.077.226.056.28.017.097-.013.142-.123.185.008.01.011.02.011.027-.078.024-.164.046-.25.072l.014.026a.312.312 0 0 0-.071.026c0 .007.005.016.01.024l-.146.058c-.013.04-.025.081-.036.122-.109.122-.278-.032-.269.163-.022.064.048.134.086.22a.508.508 0 0 0 .156-.038c.055-.104.18-.04.26-.104.121-.089.158-.17.349-.248.048.069.076.062.157.047.006.018.014.034.016.05a.038.038 0 0 0 .023-.01c.007.007.01.014.017.024-.01.005-.02.007-.026.009l.038.099a.476.476 0 0 0-.068.024c.002.038.004.071.01.106-.028.019-.055.043-.09.064.004.009.012.018.012.021-.06.023-.109.044-.17.069.007.008.01.015.012.025-.103.046-.198.1-.302.147 0 .018-.004.04-.002.057-.045.03-.092.056-.136.083a.248.248 0 0 0-.002.057l-.05.02c.006.006.002.015.007.02-.02.036-.034.034-.084.06.025.069.025.086.026.134-.011.004-.019.004-.027.01.001.06.057.05.064.082-.01.005-.017.01-.026.01.003.033.007.145.046.181a.461.461 0 0 0 .057.004c.005.016.01.034.02.047.007-.001.012-.006.02-.008.024.065.055.127.075.191-.047.049-.086.112-.123.164-.02.004-.035.014-.051.018a.621.621 0 0 0-.018.091c-.021.014-.043.039-.066.052l-.002.056c-.025.01-.05.018-.071.03 0 .007.004.017.008.024-.036.024-.05-.005-.06-.007-.086.039-.174.073-.258.11-.004-.013-.01-.018-.014-.027-.01.006-.015.006-.024.01-.006 0-.01.005-.02.01.003.01.002.016.005.025-.012.038-.008.003-.005.055a.567.567 0 0 0-.057.054.1.1 0 0 0 .01.024c-.026.009-.051.019-.075.024 0 .023-.005.043-.005.061-.07.036-.138.074-.21.11a.075.075 0 0 0 .014.024l-.045.018c0 .01.005.014.008.025-.016.008-.032.012-.05.018.001.022-.004.04-.006.06-.026.008-.042.016-.07.03.002.006.007.016.007.023-.037.024-.066.048-.108.069 0 .01.005.016.008.028a.13.13 0 0 0-.049.018c.003.008.007.016.008.024a3.71 3.71 0 0 1-.056.052v.082c-.04.007-.083.012-.127.018-.005-.011-.01-.026-.018-.042-.09.015-.141.01-.196-.065-.026.013-.06.025-.092.036-.019-.02-.036-.042-.052-.062-.073-.03-.077-.147-.085-.211a.334.334 0 0 1 .108-.077c-.002-.004-.004-.012-.01-.02.105-.021.207-.043.307-.067.005.01.004.017.01.023.031.007.099.028.137.001-.002-.007-.005-.017-.005-.024.016-.008.028-.015.046-.02.003-.02.001-.036.004-.056.078-.082.137-.023.216-.088a.148.148 0 0 1-.01-.024l.096-.035-.009-.026c.017-.01.034-.01.046-.022-.001-.006-.002-.013-.01-.024.09-.032.178-.068.265-.103-.016-.041-.034-.076-.047-.118l.047-.02-.024-.27a1.334 1.334 0 0 0-.084-.131l-.104.013c-.007-.015-.007-.03-.015-.047-.099.03-.203.059-.297.09l-.023.09c-.017.007-.03.016-.047.016 0 .012.009.022.01.027-.159.067-.318.13-.48.193-.039-.037-.051-.026-.083-.079l-.052.02a.639.639 0 0 0-.038-.098c.048-.055.035-.1.104-.153 0-.008 0-.015-.006-.02.052-.008.284-.078.33-.137.007-.016.009-.038.01-.055.014-.006.033-.014.046-.022 0-.016.008-.035.002-.054l.124-.048a.125.125 0 0 1-.009-.025.312.312 0 0 1 .068-.027l-.008-.028a.57.57 0 0 0 .118-.046c.003-.007-.002-.015-.007-.02.017-.008.035-.018.051-.023-.005-.005-.007-.016-.01-.022.06-.051.121-.11.184-.159-.007-.062.008-.063.01-.112-.073-.02-.073-.06-.124-.119-.084 0-.128-.022-.228.009.01.012.017.027.026.044l-.139.082c.006.008.007.015.01.027-.046.018-.097.036-.14.055-.002.01.002.014.007.023-.018.005-.035.014-.047.02-.003.017-.004.04-.01.054-.031.029-.066.05-.107.076a.079.079 0 0 0 .012.025 5.218 5.218 0 0 0-.216.083c-.078-.05-.04.001-.093-.019a1.013 1.013 0 0 1-.05-.06c-.019 0-.037-.007-.06-.007a.054.054 0 0 1-.005-.024c-.02.01-.034.01-.05.018-.04-.014-.091-.096-.115-.148a.418.418 0 0 1 .194-.135c0-.008-.006-.016-.008-.021.118-.057.234-.109.352-.17a.105.105 0 0 1 .004-.056c.014-.008.03-.011.049-.022-.01-.005-.006-.013-.011-.02.039-.02.077-.033.12-.05a.054.054 0 0 0-.016-.022c.02-.004.035-.012.055-.02-.007-.007-.013-.017-.013-.023.045-.015.08-.034.123-.048a.054.054 0 0 1-.008-.024c.021-.009.045-.021.069-.03a.233.233 0 0 1-.013-.023l.144-.057c-.003-.013-.001-.018-.005-.024.029-.012.059-.026.095-.036l-.012-.027c.041-.022.071-.048.114-.073-.006-.004-.009-.017-.01-.021.012-.04.006-.001.004-.057.038-.026.07-.052.108-.076-.002-.006-.01-.015-.006-.024.051-.028.101-.055.155-.088-.004-.01-.01-.014-.01-.026l.072-.026c.002-.019.007-.04.004-.056.072-.036.136-.077.208-.113a.205.205 0 0 1 .006-.059c.015-.003.026-.012.044-.017a.337.337 0 0 0 .016-.092c.03-.004.052-.017.077-.027.003-.017.007-.039.005-.057.019-.012.048-.02.07-.028.002-.009-.006-.018-.007-.026.065-.021.126-.05.193-.074l.008.022c.038-.026.075-.048.109-.072.007.01.003.017.01.024.068-.01.17-.05.226-.063Z" fill="#1A1919"/><path fill-rule="evenodd" d="M79.134 96.403a.15.15 0 0 0 .05-.019c.036.064.069.115.105.21-.055.08.01.127-.086.198l.01.025-.141.06.008.024c-.013.002-.032.01-.05.02.006.006.01.017.01.019a5.609 5.609 0 0 1-.188.077c.005.012.001.017.01.03-.06.008-.118.024-.177.042 0 .007.002.012.008.023a.283.283 0 0 0-.071.028c0 .005.006.015.011.023l-.052.017c.005.01.01.015.01.027-.056.024-.112.04-.166.066.002.007.002.014.006.023a.282.282 0 0 1-.023.01c.017.038.027.079.051.12.036.018.007 0 .043.033.108-.04.125-.014.21-.028.062.09.08.078.137.224l-.059.053c.025.045.056.093.085.132-.016.014-.029.03-.04.042l.019.051c-.009.004-.017.005-.025.01.013.022.024.048.033.07-.01.006-.017.004-.027.012.006.005.01.015.011.022l-.073.033c0 .018-.005.034-.005.05a.4.4 0 0 0-.047.025c0 .008.005.015.01.021-.026.012-.05.017-.074.03-.01.04-.02.083-.034.127a1.958 1.958 0 0 1-.167.064c0 .017-.005.041-.006.056a.293.293 0 0 1-.093.038c.004.01.007.019.006.026-.049.076-.005.106-.124.163a.58.58 0 0 1-.109-.207c.022-.007.044-.018.07-.03.002-.023.03-.065.03-.065l-.053-.119c.015-.013.027-.034.044-.04.018-.049 0-.038.049-.078-.007-.019-.011-.033-.019-.05.017-.005.03-.01.05-.02-.011-.067-.016-.055.044-.1-.025-.089 0-.088-.011-.164.017-.005.03-.013.047-.02-.017-.096.021-.115-.01-.22-.005.003-.01.01-.02.014-.01-.025-.017-.05-.025-.075a.231.231 0 0 1-.025.01l-.056-.06-.226.058c-.006-.013-.008-.033-.018-.046-.025.008-.043.016-.07.028-.055-.048-.085-.066-.127-.175l.086-.056a.292.292 0 0 0-.006-.024l.094-.04c.013-.033.014-.062.02-.096a.369.369 0 0 0 .071-.026c-.003-.004-.002-.014-.011-.025.043-.013.078-.028.119-.044a.044.044 0 0 0-.01-.026l.073-.028c-.001-.005-.001-.016-.007-.023.041-.032.037 0 .059.005l.123-.106c.003-.02-.002-.036.007-.062.04-.03.082-.066.121-.105.002-.017.008-.032.008-.054a.57.57 0 0 0 .086-.066c-.007 0-.007-.012-.011-.021l.281-.136c-.002.006.005.016.005.024.027-.023.06-.044.09-.063-.003.006.008.016.005.025.026-.014.05-.019.073-.033 0 .007.005.02.01.023.036.022.009 0 .044.039ZM80.73 96.853c.016-.008.026-.016.043-.021.008.017.013.034.02.052.024-.014.05-.021.074-.03.05.043.128.122.197.142.007.043.012.085.021.13-.007.002-.015.008-.027.01.023.04.034.079.051.12-.006-.002-.015.005-.025.007-.029.084-.077.06-.073.168-.097.048-.195.1-.298.151-.02-.013-.028-.026-.046-.041-.021.009-.045.022-.068.03a.958.958 0 0 0-.044-.039l-.12.045a.16.16 0 0 0-.02-.043c-.083.069-.151.035-.293.09-.006-.013-.016-.03-.019-.05-.323.07-.544.158-.884.296a.296.296 0 0 1-.072-.109c.055-.027.052-.034.088-.063-.02-.019-.066-.036-.066-.087.01.001.02-.004.027-.006-.002-.01-.007-.019-.013-.028.047-.019.099-.036.144-.054 0-.011-.005-.014-.008-.025.027-.008.047-.02.071-.03a.054.054 0 0 0-.007-.023c.053-.022.112-.044.167-.064a.396.396 0 0 0 0-.059c.044-.053.264-.23.383-.237.004.01.002.017.005.026.059 0 .2 0 .26-.045-.002-.01-.002-.023-.008-.027.035-.013.061-.028.098-.038a.082.082 0 0 1-.01-.025c.014-.01.032-.01.043-.02a.057.057 0 0 0-.005-.024c.04-.015.082-.03.117-.046-.003-.009-.006-.016-.006-.024a.32.32 0 0 1 .258-.048c.037.016.007-.003.044.04ZM76.71 99.511c.01.023.017.046.025.072-.032.041-.058.152-.068.164-.086.037-.162.066-.238.1-.007-.013-.014-.017-.014-.025a1.955 1.955 0 0 0-.175.044c-.003-.01-.009-.018-.01-.026a1.023 1.023 0 0 1-.096.039l-.046-.039c-.006.002-.014.009-.021.008.005.008.005.016.005.025-.013.007-.029.013-.04.021-.002.005.004.015.007.023-.05.02-.093.041-.145.059.003.01.01.017.01.025-.018 0-.034.011-.047.02 0 .007 0 .016.01.021a2.739 2.739 0 0 0-.097.039l-.019.091-.29.114c.002.017-.004.037-.005.059-.072.024-.141.054-.216.081-.013.055-.03.107-.042.161l-.115.072a.764.764 0 0 1-.005.058c-.018.01-.045.018-.068.031-.003.004.001.012.005.023-.023.005-.045.019-.066.025-.006.02-.007.042-.009.055-.143.066-.28.133-.425.199-.003-.008-.001-.013-.005-.024a3.047 3.047 0 0 0-.111.071c-.001-.009-.008-.014-.008-.024-.025.012-.051.02-.075.031.001-.007-.002-.016-.007-.024-.018.008-.033.008-.049.017a3.515 3.515 0 0 1-.178-.096.675.675 0 0 1-.078.005c-.009-.016-.014-.031-.022-.05a.13.13 0 0 0-.024.012c-.011-.033-.022-.065-.04-.098.077-.092.173-.304.399-.323.119-.01.194.028.326-.018a.444.444 0 0 1 .071-.172c.018-.001.032-.011.045-.012a.211.211 0 0 0 .008-.063c.084-.03.163-.06.24-.094.108.06.225.009.328-.074.034-.012.069-.028.1-.04a.085.085 0 0 1-.01-.025.115.115 0 0 0 .047-.019c-.004-.01-.005-.018-.011-.018a3.59 3.59 0 0 1 .17-.071.606.606 0 0 1 .026-.093c.008-.004.026-.014.038-.018.006-.017.003-.04.006-.059.016-.004.034-.013.05-.017-.006-.006-.006-.013-.01-.021.084-.03.166-.049.247-.075.004-.02.003-.038.007-.055a.7.7 0 0 1 .096-.038c-.005-.008-.006-.018-.013-.027a.63.63 0 0 1 .177-.125c-.005-.029-.003-.052-.008-.08.046-.028.093-.055.132-.08-.002-.055-.004-.016.01-.054a.54.54 0 0 1 .102-.157c.043-.016.08-.034.122-.048 0-.02.002-.043.007-.057.1-.061.21-.122.311-.18.007.003.011.011.011.019.016 0 .037-.01.053-.013-.002.001.003.01.007.019.115-.053.232-.11.35-.167.037 0 .148.006.197.004.023.03.03.034.062.088-.01.006-.017.01-.025.01.005.023.019.046.026.07-.01.004-.018.008-.026.01a.265.265 0 0 1-.002.057c-.015.008-.031.014-.049.024-.008.038-.021.079-.03.12-.03.02-.057.045-.09.062a.368.368 0 0 1-.02.091c-.015.005-.027.016-.044.021a.33.33 0 0 0-.005.056c-.016.004-.027.016-.052.022l.015.022c-.14.047-.282.09-.42.14-.004-.008-.006-.017-.008-.024-.082.014-.117.08-.17.123ZM79.58 98.505c.011.013.014.029.022.046.021-.01.043-.02.069-.03.004.01.01.018.013.027a.47.47 0 0 1 .307.072c.006-.005.012-.009.02-.01.024.056.045.114.072.166-.056.097-.001.036-.005.137-.006.006-.015.01-.023.014.007.03.007.068.014.103-.006.004-.016.005-.022.01.01.03.025.064.036.094-.005.005-.02.003-.023.013.012.012.012.026.022.045-.022.028-.038.053-.054.078 0 .009.007.014.008.022l-.11.074c.016.075-.006.133-.006.193.015.035.025.065.037.098-.007.005-.013.006-.024.01a.593.593 0 0 0 .04.236c-.017.008-.033.01-.046.02.018.047.035.095.054.141-.005.007-.015.007-.021.013l.01.021c-.063.035-.12.07-.184.1 0 .02-.005.041-.005.056-.073.028-.143.062-.217.085l.013.026c-.12.043-.242.097-.362.145-.09.038-.193.14-.328.156.002-.005-.002-.015-.005-.023-.01.004-.017.008-.026.01a2.2 2.2 0 0 1-.193.073c.001-.005-.003-.009-.006-.018-.162.017-.295.21-.416.275-.005-.017-.015-.033-.019-.047a.266.266 0 0 0-.046.017c-.042-.007-.068-.078-.1-.101l-.09-.021-.029-.064c-.07-.07-.076-.01-.142-.147-.012.008-.026.012-.045.022a4.948 4.948 0 0 0-.106-.262.237.237 0 0 0-.023.008.624.624 0 0 0-.021-.047c-.008.005-.016.005-.025.007-.005-.022-.019-.049-.025-.069-.008.004-.016.004-.022.012l-.021-.052c-.031-.008-.06-.008-.096-.021-.01-.033-.021-.061-.032-.095-.008.005-.018.008-.025.012-.036-.025-.042-.054-.07-.111-.033.011-.064.026-.101.039 0-.01-.002-.016-.01-.026-.01.018-.022.027-.037.045-.003-.01-.005-.018-.01-.025-.037-.015-.007.003-.04-.036-.129.022-.156-.026-.203-.169a.41.41 0 0 1 .152-.09.061.061 0 0 0-.006-.025c.039-.014.08-.032.12-.053.004.01.009.019.006.026.047-.015.096-.035.145-.058.004.012.007.017.012.027.016-.006.032-.011.05-.02.01.014.025.025.038.039.02-.003.033-.014.05-.022.023.019.05.04.075.057a.37.37 0 0 1 .068-.028c.007.002.009.014.016.022.027 0 .057-.004.08-.004.045.098.11.171.18.232.007 0 .014 0 .025-.004.004.022.015.044.025.07.008-.005.017-.005.024-.009.005.016.012.028.021.047.006 0 .014-.008.018-.013.017.045.038.079.051.12.021.002.04.008.057.006.017.032.027.064.04.099.007-.004.014-.006.024-.014.033.052.072.102.115.151.076-.013.12.007.165.068.16-.081.323-.16.485-.241 0-.023.004-.043.005-.059.037-.019.079-.035.117-.053a.84.84 0 0 0 .009-.053c.032-.006.07-.011.1-.015a.145.145 0 0 0 .006-.057c.043-.018.078-.034.124-.05-.004-.005-.008-.018-.011-.025.006-.002.016-.003.022-.008.004-.053.005-.085.036-.123-.037-.088-.07-.18-.106-.265.02-.016.04-.031.061-.053-.015-.057-.02-.064-.013-.104l.019-.008a.41.41 0 0 0-.013-.05c.008-.003.018-.004.025-.005-.02-.043-.033-.085-.048-.123a.388.388 0 0 0-.156.032c-.002-.009-.007-.014-.011-.022-.098-.013-.374.194-.43.23-.045-.078-.084-.158-.123-.23.014-.018.025-.035.036-.045-.003-.009-.003-.015-.009-.025a.15.15 0 0 0 .061.006c-.007-.01-.008-.015-.013-.025l.137-.08c-.007-.016-.012-.037-.023-.047.084-.043.088-.07.153-.113a.569.569 0 0 1-.007-.082c.07-.038.145-.102.194-.137.071-.016.138-.035.206-.05a.116.116 0 0 0-.013-.025c.01-.006.02-.007.026-.01.005.005.002.012.008.021.09-.027.185-.051.273-.077ZM57.27 98.369a.219.219 0 0 1 .052.004.197.197 0 0 1 0-.055c.033.004.065.01.1.007.004-.02.002-.036.006-.05h.05c.056-.136.096-.238.223-.298v-.08c.064-.001.062-.007.108-.019.004-.027.015-.05.022-.078.024-.006.04-.013.06-.021l.008-.13a.069.069 0 0 1 .02 0c.03-.029.002-.011.052-.02l.033-.157c.063-.009.046-.005.086-.047.006.004.013 0 .02-.001 0-.031.003-.065.009-.102a.345.345 0 0 1 .047-.02c.004-.043.01-.085.01-.128a.835.835 0 0 1 .078-.05c.039-.075.018-.278.018-.357a.225.225 0 0 0-.08-.009c-.011-.097-.04-.153-.036-.285.018-.001.033.002.049.005.003-.024.003-.036.003-.05.079-.013.211-.09.341-.04 0 .008-.004.019-.007.031a.267.267 0 0 1 .057-.002c-.002.01-.003.016-.007.026.029 0 .058 0 .082.006-.001.005 0 .014-.002.02.037.012.068.026.102.033.007.013.018.097.02.106.016.01.037.018.052.027.015.026.03.055.047.081.018-.003.032 0 .05.002.032.028.016.075.02.128h.053c-.002.023-.005.039-.005.054.027.007.055.002.08.007 0 .014-.001.03-.005.05l.051.001a.77.77 0 0 1-.066.308h-.025c-.002.018-.002.036-.002.05-.008.002-.012-.004-.027 0 .002.035.004.065-.003.099-.005.003-.016.004-.025 0-.003.03-.003.053-.004.078-.025.015-.049.033-.079.049-.05.082.03.094-.11.126-.008.048-.022.1-.031.153-.008-.004-.015-.004-.028-.004a.769.769 0 0 1-.005.128 1.914 1.914 0 0 1-.136.097 3.258 3.258 0 0 1-.059.178h-.026c-.042.051-.08.073-.106.148-.026 0-.053 0-.08-.002-.028.108-.086.15-.189.171-.02.082-.06.092-.08.176-.04.01-.076.014-.109.02-.01.028-.022.054-.029.08-.071.01-.084.035-.133.069v.028c-.045.006-.086.01-.13.02-.025.03-.058.065-.084.1a.307.307 0 0 0-.074-.008c-.005.008-.002.016-.006.028-.035.02-.044.012-.1.02-.018.07-.039.06-.06.13a1.106 1.106 0 0 0-.104.018l.001.024-.026.002c-.004.026 0 .053-.01.076-.01.009-.031.015-.047.023a8.05 8.05 0 0 0-.044.387c-.016.008-.033.012-.051.019-.001.036-.004.071-.006.106-.01 0-.018-.002-.028 0 0 .013 0 .032-.004.05-.007.001-.016-.003-.025 0-.047.111.003.204-.036.256-.03.027-.002.008-.051.022-.014.088-.028.169-.037.257-.01-.001-.021-.002-.027 0-.003.016-.003.033-.005.051-.006.002-.015-.004-.025-.001l.01.389c-.01-.006-.02-.004-.027-.003-.016.048.01.034.025.052-.002.006-.007.019-.005.03-.006-.006-.015-.006-.02-.006-.004.032-.008.069-.007.104-.019.009-.035.018-.054.021a9.98 9.98 0 0 0-.02.388c.003.007.03.007.027.049-.013.003-.02.006-.026.003-.006.042-.008.084-.012.128-.005.002-.013-.004-.02-.001a2.633 2.633 0 0 1-.01.154c-.006-.002-.022.003-.028 0a1.079 1.079 0 0 1-.03.104c-.004-.003-.015-.003-.026-.004.01.035.015.071.024.107-.008-.006-.022-.002-.029-.003-.006.033-.018.068-.027.099-.017.001-.034-.005-.054-.002-.036.079-.089.138-.11.23a.178.178 0 0 0-.05-.004c-.011.015-.02.036-.031.052l-.414-.019c-.046-.103-.096-.181-.25-.192.005-.028.004-.057.01-.079-.077-.044-.085-.106-.178-.139.003-.015.001-.032.001-.049-.017-.011-.034-.023-.05-.03.006-.087.01-.171.01-.256.15-.027.295-.057.445-.082.023-.082.053-.11.132-.124.04-.175.07-.431.11-.615.007-.153.012-.307.023-.462a.307.307 0 0 1 .05-.021c.015-.073.02-.137.038-.208-.01 0-.018-.002-.028 0 0-.036.005-.069.009-.104l.022.003v-.028c-.009 0-.016-.003-.022 0a.118.118 0 0 1 0-.051c-.008-.006-.014-.002-.02-.001-.012-.046.022-.049.02-.053-.003-.042-.014-.083-.018-.13a.334.334 0 0 0-.157-.032c.003.012.002.035.002.052-.071.04-.139.076-.214.117-.001.02.002.035 0 .053a1.824 1.824 0 0 1-.107.073l-.002.079c-.01-.005-.02-.003-.026-.004-.017.026-.04.048-.056.074a.914.914 0 0 1-.08.023c-.013.029-.021.053-.03.076l-.078-.001c-.08.043-.045.14-.187.172l-.001.076c-.03.015-.057.033-.08.046-.005.011-.003.018-.005.024h-.05c0 .009.001.017-.004.026-.013 0-.028-.003-.052-.005-.013.026-.035.053-.048.077-.014-.003-.017-.002-.026 0a1.3 1.3 0 0 0-.034.129c-.028.028-.093.026-.132.04-.009.021-.02.035-.025.051-.037.009-.07.014-.108.021l-.002.03c-.07.038-.091.058-.182.068-.004.015-.001.035 0 .049-.023-.002-.04.003-.058.001a.117.117 0 0 1 0 .05c-.153.004-.227.057-.39.057-.032-.068-.04-.046-.04-.155.03-.078.053-.151.082-.227l.239-.066c.014-.025.036-.051.058-.078.014.005.031.003.048.002.017-.019.036-.045.057-.071.044-.005.084-.016.127-.018.022-.029.04-.055.056-.081.084-.042.088.05.131-.094a.185.185 0 0 1 .053.005c.053-.092.131-.146.17-.254.01.001.033.001.051.005.013-.032.048-.045.054-.049l.001-.079a.322.322 0 0 1 .055-.021.152.152 0 0 1 .003-.057l.022.002c.053-.07-.019-.018.056-.073 0-.007.006-.016.002-.025a.513.513 0 0 0 .081.005c-.004-.014-.007-.02 0-.03.024-.012.051-.03.078-.048 0-.022 0-.048.002-.074.02-.004.035 0 .05 0 .015-.025.053-.042.055-.046.013-.046.025-.085.034-.128l.08-.05c-.002-.022.005-.05.002-.074l.05-.025.008-.051c.006-.001.015.003.029 0l.022-.078c.022.002.04 0 .053.004.026-.067.044-.15.086-.202.02-.007.038-.017.054-.022.012-.028.018-.055.03-.078.018 0 .033 0 .047.006a.75.75 0 0 0 .008-.107c-.082-.02-.167-.044-.253-.061-.06.059-.139.052-.214.091a.48.48 0 0 1-.03.05c-.033.009-.065.017-.098.021l-.002.075c-.02 0-.037.003-.058.003.003.011 0 .035 0 .05-.095.02-.11.074-.21.093 0 .016-.006.037 0 .053-.013-.002-.016-.002-.03-.002-.06.038-.125.076-.185.12 0 .009-.005.017-.003.027a8.538 8.538 0 0 0-.28-.016c-.01.016-.024.034-.03.05-.015-.004-.035.002-.05-.001a9.863 9.863 0 0 0-.084.1c-.044.005-.085.014-.126.019a.263.263 0 0 0-.03.05c-.02-.003-.038 0-.057 0a.458.458 0 0 1-.028.07c-.036.038-.11.022-.178.02-.037-.034-.16-.058-.232-.062-.02.115-.022.063-.08.127-.012 0-.022 0-.03-.005v.057c-.035.005-.068.01-.1.019-.004.02-.003.035-.006.05-.116.017-.13.003-.26-.009-.005-.046-.014-.09-.017-.132-.006.003-.019 0-.025-.003.007-.049.023-.1.03-.153a.13.13 0 0 0 .028 0c.004-.04.003-.086.004-.125.023-.016.055-.032.08-.05a1.21 1.21 0 0 1 .007-.103.03.03 0 0 0 .022 0c.003-.014.003-.028.005-.05a.067.067 0 0 0 .025 0c0-.051.006-.1.009-.151a.505.505 0 0 1 .08-.05c0-.024.002-.048 0-.078.02-.071.058-.09.11-.123.14-.118.214.083.382.018.016-.015.024-.036.035-.051.018.001.036.004.051.004a.04.04 0 0 1 0-.025c.035 0 .067.003.104 0 .026-.028.05-.062.08-.098.021.004.04.004.054.004l.001-.026c.092.005.19.007.285.012 0-.007-.003-.014 0-.021.014-.004.03-.001.05 0 0-.006.006-.018 0-.028.154-.001.31-.002.468-.001.004-.03.019-.056.023-.076.052-.02.136-.058.188-.071.1-.027.177.06.28.016.02-.03.044-.05.058-.076l.077.002c.016-.025.035-.049.054-.071.16-.095.257.034.27-.248.053-.042.055-.07.061-.154.018 0 .03.004.05.006 0-.018.003-.036.006-.055.023-.006.046-.01.075-.023.008-.114.01-.109.064-.176h.02c.015-.258.023-.51.042-.771-.023-.001-.036-.004-.053 0-.01-.211-.017-.414-.024-.624l-.075-.002c-.009-.02-.021-.038-.024-.056-.058-.05-.096-.105-.178-.136l.03-.126c.052-.006.11-.012.16-.02a.065.065 0 0 0-.002-.028 2.3 2.3 0 0 0 .208.038c.003-.001.01-.03.051-.023.002.007 0 .017 0 .026.043 0 .082.007.125.007.008.017.02.035.024.053.079.029.157.059.23.089.006.027.016.052.023.078.02.006.035.02.05.025a.721.721 0 0 0 .024.105c.007.003.012 0 .02.003.002.034-.001.07-.001.101.014.012.03.021.045.028 0 .114-.007.226-.007.336.003 0 .015.004.02 0a2.638 2.638 0 0 1-.008.183l-.026-.002c0 .051-.002.102-.005.157-.008-.005-.016-.004-.026-.004a.543.543 0 0 0-.005.101h-.028l-.011.338c-.024.05-.04.096-.061.152.007-.003.02 0 .028 0 .037.06.077.12.119.184.023.019.046.042.075.055.005.056.013.102.018.158a.062.062 0 0 1 .024.001c.027.09-.038.306-.066.357a.644.644 0 0 1-.058.023c.002.01.004.02.003.027.003-.002.018 0 .023 0l.002.028c.032-.03.006 0 .026-.053.021-.008.035-.011.052-.025a6.07 6.07 0 0 1 .008-.074ZM60.953 97.868a.185.185 0 0 1-.001.053c.132.02.14.103.258.142 0 .058-.002.064.014.102.012.002.015.004.026.002-.002.042-.002.084-.01.131.026.005.038.016.054.027l-.007.151c-.015.004-.034 0-.05-.002-.007.027-.022.053-.027.079a1.114 1.114 0 0 0-.08.02c-.003.008-.004.019-.002.024-.024.004-.054-.001-.078 0a.053.053 0 0 0 0 .026c-.015-.004-.037-.001-.051-.004-.005.011-.004.018-.005.025-.076.026-.213-.022-.255-.04-.205-.007-.414-.012-.614-.025a.089.089 0 0 1-.005-.027c-.133-.01-.27-.012-.41-.017v.026a.688.688 0 0 1-.08-.005c.003.009.004.017.003.027-.043-.002-.09-.006-.129-.006l.003.024c-.014 0-.02.002-.033 0 .001-.01 0-.016.005-.024l-.466-.05c.002-.028 0-.049.008-.078h-.029c-.093-.112-.131-.005-.118-.24.102-.052.124-.116.289-.114 0-.01.002-.016 0-.024.127-.005.26-.009.388-.009a.43.43 0 0 1 .03-.05c.014.004.032.001.048.001.007-.009.005-.014.006-.026.03.004.067.004.103.006l.027-.051c.075.007.153.011.232.011-.001-.007.003-.02 0-.026l.102-.017c.003-.011.002-.02.008-.028.021.002.048.002.074.002l.001-.025c.026-.008.052-.013.076-.021.003-.014.003-.038.003-.051a.482.482 0 0 0 .053 0 .364.364 0 0 1 .03-.073c.118.002.237.009.36.013-.005.011-.002.02 0 .03.026 0 .05 0 .076.002.016.023.03.054.048.079.044.008.087.02.125.03ZM59.408 99.523c.108.008.322.112.352.175l-.005.104c.007-.002.014 0 .024 0 .006.084.008.175.015.26-.007 0-.015-.003-.028 0 0 .014.001.031-.001.049-.007.002-.017-.002-.022-.002a2.207 2.207 0 0 1-.06.151c-.047.068-.086.08-.114.178-.014-.003-.032.001-.046-.006-.04.042-.072.087-.113.128-.071.048-.104.024-.135.117-.186.041-.148.174-.394.167-.01-.075-.057-.258-.005-.365.006.002.015.004.022.008v-.052l.107-.078c-.002-.035.005-.066.01-.101a.114.114 0 0 1-.03-.003c.011-.049.02-.101.032-.151-.006 0-.016.002-.028 0-.006-.036-.01-.071-.019-.103-.067-.04-.134-.077-.196-.115-.01-.02-.02-.035-.024-.055h-.08c.001-.008.003-.02.001-.025-.05-.046-.101-.09-.147-.136l.028-.079c.008.002.015.005.025.002.002-.03.005-.051.003-.08.012.002.016.004.027.005.049-.08-.017-.02.055-.076l.001-.025c.02-.002.035.003.05.003 0-.013.006-.02.007-.027.014.003.03.003.046.002.002-.008.004-.016.005-.027.144-.038.408.047.487.075.042.004.085 0 .127.004a.063.063 0 0 1-.005.03c.032.03.014 0 .028.048ZM59.013 101.859c.189.039.496.161.556.307-.008.124-.013.239-.02.36-.007.002-.015 0-.024 0-.002.024-.006.051-.005.079-.009-.005-.015-.002-.026-.001.003.007 0 .013.004.026-.186.064-.287.137-.556.125a3.706 3.706 0 0 0-.12-.16c-.005 0-.014 0-.02-.003-.004-.033 0-.066 0-.098a.063.063 0 0 0-.024 0c-.005-.035-.015-.075-.023-.109-.024-.006-.047-.018-.073-.031-.011-.013-.015-.03-.027-.048-.014-.004-.032 0-.05-.002a.125.125 0 0 0-.02-.053c-.011-.001-.02-.004-.03-.001.003-.019.006-.034.004-.055-.038-.025-.082-.055-.124-.081-.024-.036-.13-.39-.11-.447.019-.061.067-.126.088-.2a.808.808 0 0 1 .26-.014c.022.039.047.07.072.106a.505.505 0 0 1 .072.032.16.16 0 0 1 0 .05c.007.003.016.002.028 0 .003.019.013.039.021.057.076.058.123.037.147.161ZM55.955 64.426H72.1l-8.016-2.788-8.13 2.788ZM55.99 66.457h16.074v-1.351H55.99v1.351ZM55.26 75.432h17.531v-1.37h-17.53v1.37ZM55.989 76.088v3.846h1.766v-2.667h2.149v2.667h3.048v-2.667h2.15v2.667h3.046v-2.667h2.15v2.667h1.766v-3.846H55.989ZM57.686 72.633h3.188v-4.39h-3.188v4.39Zm4.746 0h3.188v-4.39h-3.188v4.39Zm4.747 0h3.188v-4.39h-3.188v4.39Zm4.885.009v-5.526H55.989v5.526h-.728v.675h17.53v-.675h-.727ZM54.753 82.599h18.383v-1.323H54.753V82.6Z" fill="#1A1919"/><path fill-rule="evenodd" d="M66.951 94.384 91.79 51.368a30.444 30.444 0 0 1 2.74 12.64c0 8.43-3.421 16.052-8.95 21.578a30.37 30.37 0 0 1-18.629 8.798Zm-2.952 1.233L39.389 52.9h49.297L64 95.617ZM42.413 85.586c-5.523-5.526-8.939-13.148-8.939-21.578 0-4.507.983-8.79 2.741-12.64l24.838 43.016a30.427 30.427 0 0 1-18.64-8.798Zm0-43.175c5.529-5.515 13.155-8.935 21.586-8.935 8.435 0 16.06 3.42 21.582 8.934a30.563 30.563 0 0 1 5.947 8.38H36.47c1.5-3.122 3.52-5.953 5.942-8.38Zm52.94 21.597c0-17.32-14.038-31.36-31.354-31.36-17.318 0-31.355 14.04-31.355 31.36 0 16.488 12.738 30.001 28.908 31.244L64 99.492l2.45-4.24c16.174-1.243 28.903-14.756 28.903-31.244Z" fill="#1A1919"/></g><defs><filter id="a" x="-13" y="0" width="154" height="157" filterUnits="userSpaceOnUse" color-interpolation-filters="sRGB"><feFlood flood-opacity="0" result="BackgroundImageFix"/><feColorMatrix in="SourceAlpha" values="0 0 0 0 0 0 0 0 0 0 0 0 0 0 0 0 0 0 127 0" result="hardAlpha"/><feOffset dy="16"/><feGaussianBlur stdDeviation="6.5"/><feColorMatrix values="0 0 0 0 0 0 0 0 0 0 0 0 0 0 0 0 0 0 0.03 0"/><feBlend in2="BackgroundImageFix" result="effect1_dropShadow_49_5087"/><feBlend in="SourceGraphic" in2="effect1_dropShadow_49_5087" result="shape"/></filter></defs></svg>