<svg width="128" height="128" fill="none" xmlns="http://www.w3.org/2000/svg"><g filter="url(#a)" fill="#004098"><path fill-rule="evenodd" clip-rule="evenodd" d="M21.14 56.03c.07.147-.01.37.195.37h.044c.035 0 .064-.013.064-.044 0-.135-.127-.268-.194-.367l-.11.041ZM21.574 56.096l.26.109c-.063.093-.268.253-.374.363-.039.04-.298.41-.298.438 0 .21.124.242.282.239.008-.356.13-.437.277-.655.133-.198.328-.413.516-.068l-.252.224c-.03-.015-.036-.021-.087-.021h-.064c-.135 0-.175.175-.152.281.105-.028.127-.135.203-.145.111-.014.013.134.013.232v.021c0 .053.036.064.066.11l-.39.15c.032.044.05.066.13.066h.064c.05 0 .199-.068.282-.087-.018.215-.325.14-.368.303.248.006.43.122.563-.13l-.063-.256.063-.026c.061.015.11.044.173.044.027 0 .065-.045.065-.087 0-.066-.02-.13-.086-.13l-.277.001-.026.085-.079-.028.1-.188-.022-.132.152-.02c.05-.073.152-.094.152-.173v-.043c0-.142-.15-.266-.239-.32l-.173-.027c.072-.108.325-.149.325-.26 0-.076-.096-.086-.173-.086h-.087c-.062 0-.208.21-.476.216ZM19.256 56.746c0 .114.163.265.17.4l-.173-.054c-.079.05-.138.102-.062.174.099.066.137.06.108.195-.054-.013-.17-.065-.195-.065-.034 0-.111.033-.114.066l.035.353-.29.274c.065-.274.196-.506.196-.844V57.2c0-.13-.195-.01-.195.022 0 .064.043.058.043.151v.044c0 .216-.25.845-.065.845.077 0 .16-.154.217-.195-.032.151-.13.715.108.715.137 0 .21-.225.238-.347.098.026.15.151.26.151.036 0 .065-.012.065-.043 0-.108-.22-.14-.263-.366-.025-.133.034-.145.021-.257-.01-.091-.04-.164-.04-.287 0-.058.011-.06.022-.108l.059-.002.05.37-.065.13c0 .055.123.239.151.239.112 0 .299-.304.325-.304.092 0 .155.191.213.264.103.132.137.142.285.213a2.296 2.296 0 0 0-.116-.49c-.055-.139-.163-.317-.195-.427l.248-.297-.045-.09-.173.026c-.133-.181-.28-.055-.356-.23-.05-.118-.222-.225-.38-.225h-.022c-.036 0-.065.013-.065.043Zm-.062 1.215c0-.066-.044-.115-.005-.131.038-.017.054-.066.082-.06.027.005.027.07.01.114-.016.044-.038.115-.038.115s-.049.027-.049-.038Zm-.077-.257c.006.043.072.016.072-.039 0-.054-.022-.087-.05-.054-.027.033-.027.049-.022.093Zm0 .497c-.038 0-.027.208.011.214.039.005.039-.082.06-.115.022-.033-.032-.099-.07-.099Zm.531-.35c-.038-.027-.006-.06.044-.104.049-.043.082-.005.049.039s-.055.093-.093.065Zm-.15-.47c-.007-.014.007-.041.048-.048.04-.007.04.007.006.054-.033.047-.047.007-.054-.007Zm.439-.027.034-.04.034.04s.007.013-.034.02c-.04.007-.027-.027-.034-.02ZM28.68 59.13c-.151 0-.255-.274-.326-.326-.052.038-.065.084-.065.173v.044c0 .113.391.282-.108.282-.066 0-.13-.13-.239-.13-.05 0-.064.015-.064.064v.022c0 .11.078.217.195.217h.108c.154 0 .309-.076.411-.13.111.053.183.07.29.143.041.027.258.182.274.182h.021c.049 0 .048-.017.088-.044.002-.11-.064-.165-.125-.256-.017-.025-.014-.1-.032-.123l.01-.021-.087.13.004.028-.183-.148c.075-.101.412-.222.412-.411 0-.07-.019-.017-.043-.108h-.065c-.048 0-.29.411-.477.411Zm-.477.887v.109c.077.018.101.043.194.043.081 0 .135-.164.151-.24.042-.2-.006-.154-.02-.323-.058-.11-.116-.086-.174-.044-.019.083-.018.187-.045.259-.023.06-.107.153-.107.196ZM16.894 58.934c0-.205.21-.448.347-.52.245.13.997.7.997 1.018 0 .13-.15.131-.239.174l.024.085-.17.099.041.051c-.06.09-.133.241-.263.241h-.065c-.024-.089-.455-.46-.455-.606 0-.052.105-.253.195-.26v.065a.7.7 0 0 1-.065.281.236.236 0 0 0 .1.138l.203-.073-.02.13c.063.034.112.087.194.087.17 0 .198-.586.238-.758-.025-.037-.047-.087-.108-.087-.26 0-.155.167-.434.173-.017-.075-.088-.238-.173-.238h-.043c-.13 0-.145.31-.174.433-.108-.072-.13-.254-.13-.433Zm-.216.303c0 .36.268.417.45.59.216.206.197.508.543.515l.025-.13h.086c.076 0 .208-.2.239-.26.094-.182.043-.173.346-.173.341-.509-.005-.562-.26-.867-.137-.164-.56-.628-.823-.628-.29 0-.606.618-.606.953Zm1.086-.019s-.018-.042.02-.045c.039-.004.06.02.06.049 0 .027-.007.031-.039.027-.03-.003-.041-.03-.041-.03ZM23.263 60.537c-.028-.122-.108-.172-.108-.325 0-.138.297-.195.455-.195l.13-.005.325.027c-.206-.13-1.455-.303-1.863-.303.021.03.478.297.567.364.165.125.359.346.494.437ZM30.434 60.537c-.055.037-.152.133-.152.217 0 .058.031.064.065.087.154-.036.258-.126.36-.225.201-.195-.128-.079-.273-.079Zm-1.053.596.08.055-.024.086c.018.012.054.043.065.043.22 0 .096-.108.26-.195.083.04.197.066.273.117.102.069.137.142.198.187l.032.156-.07.06c-.074-.04-.158-.065-.222-.124-.047-.043-.122-.158-.19-.158h-.02c-.036 0-.066.013-.066.044 0 .107.095.042.13.173-.182.015-.157-.011-.303.087-.063-.12-.14-.117-.213-.242-.07-.12-.056-.226-.22-.192 0 .383.287.394.303.585-.336 0-.291-.238-.347-.476-.082.055-.108.147-.108.281 0 .173.218.39.303.39.052 0 .156-.081.195-.108.108.072.238.303.282.303.066 0 .13-.02.13-.086v-.022c0-.167-.239-.24-.239-.325 0-.112.113-.043.217-.043h.065c.084 0 .09-.012.108-.065.092.024.118.151.217.151h.022c.094 0 .151-.163.151-.26 0-.148-.039-.184-.065-.281.071.037.164.069.223.123.056.052.111.18.189.18h.022c.06 0 .151-.091.151-.152 0-.208-.284-.175-.276-.368l-.005-.217c-.101.009-.132.145-.2.22l.091.149c-.26-.07-.64-.25-.88-.38l-.259.304ZM15.854 61.079l-.238-.087c-.07.034-.346.21-.346.282 0 .074.423.208.52.216.008.098.086.427.086.434 0 .077-.079.075-.127.144l.257.107.152.009h.021c.088 0 .039-.087.239-.087v-.065c0-.099.113-.108.217-.108l.042-.109.002.026.519-.026c-.103-.153-.178-.086-.246-.21-.064-.116-.187-.07-.318-.158 0-.217-.095-.298-.091-.369l.026-.238c-.017-.012-.053-.043-.065-.043-.17 0-.055.223-.238.239-.015-.067-.048-.208-.073-.274-.034-.085-.11-.203-.122-.246-.2.004-.17.365-.217.563Zm.151.105.037-.243c.018-.038.043-.038.072 0l.122.316c-.037.039-.118.007-.23-.073Zm.163.688a.251.251 0 0 1-.064-.187c.027-.036.087-.03.15-.018l.169.105c-.007.085-.103.111-.255.1ZM24.715 61.945v.13c0 1.084-.655 1.906-1.218 2.443-.275.262-.722.58-1.064.778-.195.112-1.13.569-1.206.635.21-.017 1.168-.534 1.364-.65.403-.239.82-.546 1.143-.872.406-.408.56-.65.83-1.186.11-.22.17-.484.221-.774.066-.373-.005-.587-.005-.937.144.208.281.84.281 1.213v.065c0 .664-.244 1.135-.484 1.574-.112.206-.28.44-.422.618-.079.1-.461.49-.48.56.26-.138.797-.862.984-1.14.24-.36.51-1.02.51-1.612v-.108c0-.243-.052-.56-.116-.75-.064-.192-.22-.503-.252-.637.15.1.48.673.57.882.149.345.254.736.254 1.22 0 .424-.124.932-.247 1.248-.073.185-.14.337-.223.514-.057.121-.243.39-.267.49.129-.085.454-.758.535-.959.126-.315.288-.781.288-1.207v-.325c0-.393-.18-.966-.325-1.212-.104-.177-.183-.315-.303-.477-.058-.079-.332-.379-.347-.434.19.051.784.61.914.776.298.38.436.607.6 1.112.133.406.163 1.038.08 1.527-.044.27-.083.464-.142.701-.043.174-.184.544-.195.672.218-.25.476-1.492.476-2.036v-.044c0-.423-.119-.955-.26-1.234-.095-.19-.145-.305-.26-.477-.118-.177-.224-.268-.337-.42-.216-.29-1.43-1.15-1.829-1.183.08.07.267.15.373.234.082.065.224.232.282.324.15.24.277.577.277.958Z"/><path fill-rule="evenodd" clip-rule="evenodd" d="M20.079 66.581c.592 0 1.089-.169 1.58-.174.486-.004 1.15-.096 1.15.5h.52c.012-.578.629-.52 1.17-.5.503.019.96.174 1.537.174h.39l.281-.025-.366-.344.02-.02c-.51 0-.839-.013-1.232-.133-.241-.074-.826-.258-1.108-.258h-.26c-.332 0-.647.296-.671.585-.138-.1-.101-.433-.528-.555-.298-.085-.658-.014-.928.052-.719.175-.915.308-1.858.308l.019.02-.359.356.274.02.369-.006Z"/><path fill-rule="evenodd" clip-rule="evenodd" d="M18.02 63.895c0-.694.248-1.54.485-2.007.142-.282.293-.55.469-.788.188-.254.375-.431.569-.666.267-.323 1.067-.81 1.489-1.002A5.283 5.283 0 0 1 23.09 59c1.474 0 2.777.705 3.515 1.446.725.729 1.51 1.99 1.51 3.428v.412c0 1.328-.823 2.788-1.534 3.405-.866.752-1.885 1.426-3.491 1.426-2.726 0-5.07-2.236-5.07-4.918v-.303Zm-.996-.78v.412c0 .39.161.972.292 1.246.214.447.351.597.597.963 0 .754.031 1.106.246 1.66.168.43.448.888.745 1.184.614.61 1.441 1.186 2.648 1.186h.152c.263 0 .498-.042.716-.085.122-.024.61-.197.627-.197.075 0 .49.16.633.19.23.048.485.092.753.092h.152c1.064 0 2.172-.602 2.655-1.18.671-.802.984-1.39.984-2.85.116-.172.259-.327.382-.528.12-.198.208-.41.292-.639.214-.577.21-.905.214-1.497.008-.925-.658-2.111-1.182-2.5-.427-.316-.564-.49-1.123-.72-.205-.083-.508-.11-.624-.285a3.083 3.083 0 0 0-.412-.52c-.567-.566-1.433-1.153-2.551-1.153h-.368c-.735 0-1.605.404-2.019.733-.244.194-.512.435-.698.688-.416.567-.234.277-.836.55-.744.338-1.05.616-1.544 1.208-.339.406-.73 1.302-.73 2.042Z"/><path fill-rule="evenodd" clip-rule="evenodd" d="M23.068 59.285a4.792 4.792 0 0 1 4.783 4.783 4.792 4.792 0 0 1-4.783 4.783 4.792 4.792 0 0 1-4.783-4.783 4.792 4.792 0 0 1 4.783-4.783Zm0 .212a4.58 4.58 0 0 1 4.572 4.571 4.58 4.58 0 0 1-4.572 4.572 4.58 4.58 0 0 1-4.571-4.572 4.58 4.58 0 0 1 4.571-4.571Z"/><path d="M19.964 63.428v-1.003h-.156a.353.353 0 0 1-.12.16.554.554 0 0 1-.163.093v.174a.66.66 0 0 0 .247-.145v.721h.192Zm.65.018c.108 0 .196-.04.264-.121.068-.081.101-.213.101-.396 0-.179-.032-.308-.097-.386a.31.31 0 0 0-.25-.118.307.307 0 0 0-.23.093.337.337 0 0 0-.09.245c0 .098.029.176.086.237a.27.27 0 0 0 .203.091.229.229 0 0 0 .18-.084c-.007.115-.025.19-.052.226a.123.123 0 0 1-.101.055.105.105 0 0 1-.076-.027.134.134 0 0 1-.035-.084l-.186.02a.3.3 0 0 0 .093.187.28.28 0 0 0 .19.062Zm.02-.495a.12.12 0 0 1-.095-.046c-.026-.03-.039-.077-.039-.142 0-.063.012-.11.036-.137a.11.11 0 0 1 .088-.042c.037 0 .07.017.098.051a.218.218 0 0 1 .043.144c0 .056-.013.099-.038.128a.118.118 0 0 1-.093.044Zm.88.494a.317.317 0 0 0 .27-.132.36.36 0 0 0 .072-.22.334.334 0 0 0-.089-.24.287.287 0 0 0-.216-.093.289.289 0 0 0-.13.032l.03-.17h.36v-.179h-.506l-.098.52.155.022a.195.195 0 0 1 .148-.072c.044 0 .08.015.107.045.028.031.042.077.042.138 0 .066-.014.115-.042.147a.131.131 0 0 1-.194.01.164.164 0 0 1-.048-.101l-.191.02c.011.083.046.15.104.199.058.05.133.074.226.074Zm.852 0a.32.32 0 0 0 .235-.086.301.301 0 0 0 .088-.224.258.258 0 0 0-.043-.148.267.267 0 0 0-.127-.098.218.218 0 0 0 .138-.206.24.24 0 0 0-.079-.185.313.313 0 0 0-.22-.073.313.313 0 0 0-.223.073.242.242 0 0 0-.078.185c0 .044.012.084.034.12a.223.223 0 0 0 .108.086.26.26 0 0 0-.167.254.28.28 0 0 0 .107.231c.06.048.136.072.227.072Zm-.009-.627a.117.117 0 0 1-.086-.032.12.12 0 0 1-.032-.09c0-.035.01-.064.032-.086a.119.119 0 0 1 .088-.033c.036 0 .064.011.086.033.021.021.032.05.032.086a.12.12 0 0 1-.033.09.119.119 0 0 1-.087.032Zm.006.474a.131.131 0 0 1-.102-.044.176.176 0 0 1-.04-.124c0-.037.011-.072.034-.105.023-.032.058-.048.105-.048a.13.13 0 0 1 .1.043.16.16 0 0 1 .04.112c0 .054-.013.095-.04.123a.127.127 0 0 1-.097.043Z"/><path fill-rule="evenodd" clip-rule="evenodd" d="M24.06 57.145c0-.198.302-.53.456-.498l-.026.216c.001.022.04.114.047.13l.162-.122.012.08c0 .109-.035.114-.044.216l-.36-.15.137.36-.123.006c-.117 0-.26-.116-.26-.238Zm.672-1.105c0 .06-.119.315-.151.46l-.152-.005c-.104.003-.066.101-.173.13.062-.119.078-.28.138-.382.09-.153.194-.136.23-.29a.374.374 0 0 0-.152-.043c-.122 0-.098.325-.433.325-.082 0-.04-.014-.14-.018l.054.121.216.027a6.42 6.42 0 0 1-.126.33c-.037.092-.204.125-.329.125l-.022.005-.195-.027c-.09.119-.127.145-.13.217.044.091.034.173.174.173l.022.005.238-.026c0 .169.053.134.094.252.064.182-.036.108.158.202l-.014-.281h.043c.022.094.054.195.174.195h.151c.126 0 .22-.053.299.027.066.068.07.168.2.168.06 0 .151-.069.151-.13v-.043c0-.19-.26-.24-.26-.304 0-.07.085-.212.085-.347 0-.114-.15-.149-.238-.195l.045-.086c.188 0 .162-.062.274-.116.118-.056.22-.037.224-.187-.149-.035-.239-.074-.304-.196l.044-.086c-.034-.071-.045-.151-.151-.151-.12 0-.044.106-.044.151Zm.104.222c-.039.01-.103.136-.084.18.02.046.167 0 .167 0s.052-.05-.006-.102c-.029-.045-.039-.086-.077-.078ZM26.724 57.59c-.139 0-.194-.104-.26-.153-.017.076-.043.073-.043.152 0 .101.05.152.151.152h.068l-.024.086c-.08-.02-.12-.086-.174-.086h-.021c-.147 0-.256.057-.386.09-.19.049-.118.137-.255.235l-.01.195c.04.026.039.043.088.043.171 0 .304-.195.368-.195.08 0 .098.021.13.065-.064.087-.13.136-.13.303 0 .08.02.098.065.13.121-.089.121-.396.313-.41l-.053.324c-.012.069.127.13.195.13.066 0 .087-.021.112-.046a.974.974 0 0 1 .083-.41c.01-.068-.08-.178-.11-.176l-.187.015.194-.283.016.02.52.012-.004.021.033-.072-.224-.186c-.005.064-.016.108-.087.108h-.065c-.082 0-.008.007-.065-.022.008-.026.45-.54.174-.563-.023.097-.344.52-.412.52Zm.672-.283v.13c0 .05.017.048.042.087l-.02.065c.046.032.071.065.15.065.127 0 .114-.05.153-.13-.127-.238-.087-.18-.304-.325-.011.049-.021.05-.021.108Zm-1.08.642c-.057-.069.075-.086.138-.086.063 0 .058 0 .04.08-.017.08-.12.075-.178.006ZM16.088 64.058l.032.393-.02.002v-.02a.146.146 0 0 0-.015-.06.05.05 0 0 0-.026-.02.254.254 0 0 0-.078 0l-.352.032a.344.344 0 0 0-.127.027.128.128 0 0 0-.048.056.176.176 0 0 0-.014.091.198.198 0 0 0 .035.103c.02.028.046.047.078.059a.418.418 0 0 0 .163.006l.294-.027a.165.165 0 0 0 .069-.017.063.063 0 0 0 .026-.03.17.17 0 0 0 .006-.072l.02-.002.022.264-.02.001-.001-.015a.105.105 0 0 0-.017-.052.07.07 0 0 0-.039-.028.18.18 0 0 0-.062-.002l-.274.026a.68.68 0 0 1-.185-.001.205.205 0 0 1-.11-.077.324.324 0 0 1-.063-.182.378.378 0 0 1 .012-.156.226.226 0 0 1 .079-.112.293.293 0 0 1 .14-.043l.353-.033a.233.233 0 0 0 .077-.014.053.053 0 0 0 .022-.028.159.159 0 0 0 .003-.067l.02-.002Zm-.12 1.079-.063.013a.3.3 0 0 1 .074.064.168.168 0 0 1 .033.075.133.133 0 0 1-.07.146.49.49 0 0 1-.112.033l-.19.039c-.039.008-.062.016-.07.025-.007.01-.01.026-.009.05l-.018.003-.049-.262.02-.004c.005.02.016.032.03.037.01.005.032.003.067-.004l.217-.045a.363.363 0 0 0 .076-.02.049.049 0 0 0 .025-.05c-.006-.032-.033-.057-.081-.076l-.263.054c-.036.008-.059.016-.067.025-.009.01-.012.024-.011.044l-.02.004-.047-.262.019-.004c.006.022.015.036.028.043.009.004.032.003.07-.005l.277-.057c.037-.007.059-.016.067-.025.008-.009.01-.025.01-.048l.019-.004.038.21Zm.392.446a.088.088 0 0 1-.01.066.081.081 0 0 1-.05.04.075.075 0 0 1-.063-.01.085.085 0 0 1-.037-.054.088.088 0 0 1 .01-.066.08.08 0 0 1 .05-.04.076.076 0 0 1 .062.01c.02.013.033.03.038.054Zm-.216.138-.384.101c-.034.01-.055.02-.063.03-.007.011-.009.03-.004.054l-.019.005-.065-.277.018-.005c.006.023.017.038.03.046.01.005.033.003.067-.006l.282-.074c.035-.01.055-.02.063-.03.007-.011.01-.029.005-.053l.019-.005.05.214Zm-.384.527.31-.301a.406.406 0 0 0 .069-.078.07.07 0 0 0 .006-.043l.018-.006.087.265-.019.006c-.005-.016-.012-.027-.02-.03a.034.034 0 0 0-.03-.004.24.24 0 0 0-.063.05l-.15.146.174.01c.05.002.084 0 .103-.006a.035.035 0 0 0 .021-.021c.004-.01.003-.026-.003-.047l.019-.006.053.163-.019.007a.068.068 0 0 0-.029-.033.322.322 0 0 0-.095-.015l-.424-.032-.009-.025Zm.534.678-.102-.268a.262.262 0 0 0-.126.114.123.123 0 0 0-.008.104c.008.021.02.038.038.05a.221.221 0 0 0 .081.03l-.004.022a.287.287 0 0 1-.142-.042.201.201 0 0 1-.075-.097.21.21 0 0 1 .017-.199.303.303 0 0 1 .14-.112.27.27 0 0 1 .21-.013.213.213 0 0 1 .128.126.19.19 0 0 1-.008.153.289.289 0 0 1-.149.132Zm-.016-.142a.468.468 0 0 0 .106-.057.1.1 0 0 0 .034-.047.049.049 0 0 0-.002-.033c-.007-.018-.021-.03-.042-.034a.223.223 0 0 0-.133.02l-.017.008.054.142Zm.352.31-.1.055a.353.353 0 0 1 .132.03.133.133 0 0 1 .056.055.07.07 0 0 1 .006.054.074.074 0 0 1-.037.042c-.021.012-.04.016-.057.012a.055.055 0 0 1-.038-.03.08.08 0 0 1-.006-.054.308.308 0 0 0 .006-.033c0-.005 0-.009-.003-.013a.046.046 0 0 0-.024-.022.107.107 0 0 0-.062-.005.347.347 0 0 0-.108.04l-.102.058-.026.015a.125.125 0 0 0-.032.023.047.047 0 0 0-.01.028c0 .01.004.025.012.044l-.016.01-.127-.252.017-.01c.012.02.024.03.036.032.013.002.038-.007.077-.029l.243-.137a.204.204 0 0 0 .046-.03.047.047 0 0 0 .012-.026.09.09 0 0 0-.008-.038l.018-.01.095.19Zm.376.464-.144.097-.009-.017a.287.287 0 0 0 .056-.117.124.124 0 0 0-.01-.078.053.053 0 0 0-.032-.026.043.043 0 0 0-.037.004.045.045 0 0 0-.019.024.55.55 0 0 0-.017.127.435.435 0 0 1-.027.142.152.152 0 0 1-.059.067.17.17 0 0 1-.081.024.141.141 0 0 1-.083-.021.174.174 0 0 1-.06-.066.325.325 0 0 1-.028-.1.08.08 0 0 0-.006-.022c-.006-.011-.019-.015-.038-.013l-.009-.016.151-.103.01.017a.25.25 0 0 0-.06.116.14.14 0 0 0 .01.091.06.06 0 0 0 .034.03.049.049 0 0 0 .042-.005.069.069 0 0 0 .03-.038.461.461 0 0 0 .013-.095.623.623 0 0 1 .022-.143.157.157 0 0 1 .066-.083.149.149 0 0 1 .11-.019c.04.008.073.035.099.08.013.025.02.053.022.083 0 .011.001.02.004.025.004.007.007.01.012.013a.098.098 0 0 0 .029.005l.009.017Zm.337.1c.012.02.016.042.011.066a.086.086 0 0 1-.036.055.075.075 0 0 1-.062.012.08.08 0 0 1-.052-.038.087.087 0 0 1-.011-.066.083.083 0 0 1 .035-.055.076.076 0 0 1 .063-.012c.022.005.04.017.052.038Zm-.163.205-.331.228c-.03.02-.046.037-.05.05-.004.012 0 .03.012.052l-.016.01-.147-.238.016-.011c.013.019.027.03.043.032.01.002.03-.008.06-.028l.245-.168c.03-.02.046-.036.05-.05.004-.012 0-.03-.012-.051l.017-.011.113.185Zm.34.183-.148.113.07.102-.043.032-.07-.1-.249.19a.231.231 0 0 0-.043.038.044.044 0 0 0-.008.025c0 .01.002.016.005.02.014.02.04.028.081.024v.021c-.072.018-.127 0-.165-.056a.136.136 0 0 1-.026-.085.129.129 0 0 1 .023-.073.514.514 0 0 1 .076-.065l.218-.168-.038-.055.015-.012a.575.575 0 0 0 .29.034l.012.015Zm-.273.755.186-.379a.523.523 0 0 0 .047-.112.1.1 0 0 0-.006-.053l.015-.013.167.218-.015.013c-.012-.013-.022-.021-.031-.023a.027.027 0 0 0-.024.006.271.271 0 0 0-.045.075l-.098.2.154-.053a.367.367 0 0 0 .107-.048.043.043 0 0 0 .016-.032c0-.012-.006-.028-.02-.047l.016-.013.105.137-.015.014a.062.062 0 0 0-.04-.02.445.445 0 0 0-.119.03l-.377.13a.782.782 0 0 1-.183.047.112.112 0 0 1-.093-.046.11.11 0 0 1-.025-.075.086.086 0 0 1 .03-.064.07.07 0 0 1 .052-.018.06.06 0 0 1 .045.025c.01.014.016.03.014.046-.002.017-.013.033-.031.05-.01.008-.016.016-.017.02-.002.005 0 .01.003.014.005.008.015.012.03.013a.314.314 0 0 0 .11-.027l.042-.015Zm.923.237a.246.246 0 0 1 .063.248.336.336 0 0 1-.071.126.283.283 0 0 1-.16.099.205.205 0 0 1-.191-.063.224.224 0 0 1-.073-.186.316.316 0 0 1 .08-.186.291.291 0 0 1 .173-.1.198.198 0 0 1 .18.062Zm-.024.03a.06.06 0 0 0-.048-.017c-.02.001-.044.016-.074.044-.031.028-.07.07-.12.126a.741.741 0 0 0-.067.088.113.113 0 0 0-.02.062.064.064 0 0 0 .056.066.087.087 0 0 0 .055-.02 1.264 1.264 0 0 0 .225-.254.107.107 0 0 0 .012-.06.06.06 0 0 0-.02-.034Zm.395.422-.223.28c-.021.028-.032.047-.032.059 0 .018.012.037.036.057l-.012.016-.225-.2.012-.016a.119.119 0 0 0 .042.027c.01.002.02.001.027-.003a.177.177 0 0 0 .039-.04l.223-.28-.056-.05.033-.042.056.05.024-.03.015-.021a.163.163 0 0 1 .126-.066.21.21 0 0 1 .15.062c.033.03.053.059.058.086.006.028.003.05-.01.066a.054.054 0 0 1-.042.02.073.073 0 0 1-.051-.021.068.068 0 0 1-.025-.042c-.002-.015 0-.027.008-.037a.114.114 0 0 1 .015-.013.074.074 0 0 0 .013-.013c.005-.006.007-.012.006-.018a.032.032 0 0 0-.011-.02.03.03 0 0 0-.028-.007c-.011.002-.023.01-.035.026l-.059.076-.04.052.056.05-.034.042-.056-.05Zm.857.274-.133.213-.018-.014a.274.274 0 0 0 .021-.172.204.204 0 0 0-.076-.127.117.117 0 0 0-.087-.027.087.087 0 0 0-.064.038.088.088 0 0 0-.016.044.196.196 0 0 0 .013.073c.006.02.026.062.059.124.045.088.07.157.072.206a.218.218 0 0 1-.037.137.204.204 0 0 1-.147.092.244.244 0 0 1-.185-.052.295.295 0 0 1-.049-.045.559.559 0 0 1-.047-.07.12.12 0 0 0-.029-.034.05.05 0 0 0-.03-.009.07.07 0 0 0-.04.013l-.015-.011.157-.237.016.012a.347.347 0 0 0-.027.207.225.225 0 0 0 .083.14.13.13 0 0 0 .097.03.099.099 0 0 0 .073-.045.108.108 0 0 0 .017-.051c.002-.02 0-.04-.008-.064a.678.678 0 0 0-.048-.109.931.931 0 0 1-.069-.157.28.28 0 0 1-.01-.107.206.206 0 0 1 .034-.094.196.196 0 0 1 .136-.09.214.214 0 0 1 .166.045.278.278 0 0 1 .088.106c.013.025.023.04.031.046a.027.027 0 0 0 .023.006c.008-.002.02-.01.036-.027l.013.01Zm.148.843.008.02a.24.24 0 0 1-.124.046.2.2 0 0 1-.114-.027.204.204 0 0 1-.103-.152.312.312 0 0 1 .036-.197.312.312 0 0 1 .134-.138.2.2 0 0 1 .204.006.19.19 0 0 1 .088.1c.014.039.014.073-.002.103a.066.066 0 0 1-.04.035.063.063 0 0 1-.05-.008.074.074 0 0 1-.036-.046c-.005-.02 0-.047.014-.081.009-.022.012-.04.009-.052a.04.04 0 0 0-.019-.026c-.015-.01-.032-.008-.051.002a.237.237 0 0 0-.085.103.448.448 0 0 0-.046.135.23.23 0 0 0 .007.12.112.112 0 0 0 .099.071.223.223 0 0 0 .071-.014Zm.5-.465c.02.01.034.028.04.05a.09.09 0 0 1-.004.067.08.08 0 0 1-.048.043.082.082 0 0 1-.104-.056.088.088 0 0 1 .005-.066.082.082 0 0 1 .048-.044.075.075 0 0 1 .063.006Zm-.044.263-.18.373c-.015.033-.022.056-.019.069.003.013.015.026.035.039l-.008.018-.24-.13.008-.017c.02.01.038.011.053.005.01-.004.023-.023.039-.056l.132-.275c.016-.033.023-.056.02-.07-.003-.012-.015-.025-.035-.038l.009-.018.186.1Zm.418.454-.256-.104a.287.287 0 0 0-.007.175.115.115 0 0 0 .067.077c.02.008.04.01.06.005a.225.225 0 0 0 .076-.042l.013.018a.298.298 0 0 1-.126.082.183.183 0 0 1-.118-.01.196.196 0 0 1-.127-.148.335.335 0 0 1 .019-.185.296.296 0 0 1 .134-.171.198.198 0 0 1 .174-.013c.047.02.081.056.1.111a.315.315 0 0 1-.01.205Zm-.11-.085a.535.535 0 0 0 .034-.12.107.107 0 0 0-.01-.059.046.046 0 0 0-.024-.02c-.018-.008-.035-.005-.053.009a.247.247 0 0 0-.076.116l-.007.019.136.055Zm.464-.04-.02.065a.285.285 0 0 1 .089-.037.15.15 0 0 1 .078.005c.03.011.053.029.068.054a.141.141 0 0 1 .02.081c0 .022-.01.063-.028.12l-.06.196c-.012.038-.016.064-.012.075.003.012.015.023.036.033l-.006.019-.24-.083.005-.019c.02.004.035 0 .046-.01.009-.007.018-.029.029-.064l.069-.223a.415.415 0 0 0 .019-.08.052.052 0 0 0-.008-.03.04.04 0 0 0-.021-.017c-.03-.01-.063.003-.102.038l-.082.269c-.012.037-.016.062-.012.075.003.012.013.022.03.031l-.005.02-.24-.083.006-.02c.02.005.036.003.048-.005.008-.006.019-.028.03-.067l.088-.283c.011-.038.015-.063.011-.074-.003-.012-.015-.023-.035-.033l.006-.02.193.067Zm.72.592.013.017a.25.25 0 0 1-.108.08.199.199 0 0 1-.116.007.195.195 0 0 1-.139-.115.313.313 0 0 1-.017-.2.326.326 0 0 1 .093-.172.202.202 0 0 1 .197-.053c.05.012.088.035.111.07a.124.124 0 0 1 .025.1.069.069 0 0 1-.029.045.063.063 0 0 1-.05.007.07.07 0 0 1-.047-.033c-.01-.018-.013-.046-.008-.083.003-.023.002-.04-.004-.052a.038.038 0 0 0-.025-.02c-.017-.005-.033.001-.05.017a.247.247 0 0 0-.055.123.454.454 0 0 0-.008.144.225.225 0 0 0 .038.114.108.108 0 0 0 .114.039.229.229 0 0 0 .064-.035Zm.555-.04-.27-.05c-.008.07 0 .127.025.173a.112.112 0 0 0 .08.062.096.096 0 0 0 .06-.008.234.234 0 0 0 .066-.056l.016.015a.305.305 0 0 1-.109.106.182.182 0 0 1-.118.015.191.191 0 0 1-.15-.12.335.335 0 0 1-.016-.186.305.305 0 0 1 .101-.195.2.2 0 0 1 .169-.047c.05.009.09.038.119.088.029.05.038.118.027.203Zm-.123-.061a.54.54 0 0 0 .01-.125.104.104 0 0 0-.02-.055.044.044 0 0 0-.027-.016c-.018-.003-.035.003-.05.02a.253.253 0 0 0-.053.13l-.003.02.143.026Zm.699.305c-.065.052-.121.076-.17.072a.094.094 0 0 1-.068-.034.104.104 0 0 1-.024-.076.147.147 0 0 1 .057-.105.91.91 0 0 1 .222-.112l.003-.053a.266.266 0 0 0-.001-.076.06.06 0 0 0-.021-.029.069.069 0 0 0-.038-.014.096.096 0 0 0-.058.012c-.01.006-.015.014-.015.023-.001.007.003.018.012.03a.075.075 0 0 1 .018.048.064.064 0 0 1-.023.046.07.07 0 0 1-.052.016.08.08 0 0 1-.055-.026.068.068 0 0 1-.02-.052.12.12 0 0 1 .036-.075.193.193 0 0 1 .089-.05.329.329 0 0 1 .114-.011.181.181 0 0 1 .11.04.15.15 0 0 1 .049.072.46.46 0 0 1 0 .11l-.014.204a.228.228 0 0 0 0 .045.029.029 0 0 0 .007.015.02.02 0 0 0 .012.005c.01 0 .02-.005.03-.019l.015.015a.195.195 0 0 1-.06.056.115.115 0 0 1-.065.014.098.098 0 0 1-.065-.025.098.098 0 0 1-.025-.066Zm.002-.041.012-.177a.314.314 0 0 0-.101.079.107.107 0 0 0-.025.06.067.067 0 0 0 .014.047c.009.01.02.016.037.017.017.002.039-.007.063-.026Zm.514-.402.001.068a.299.299 0 0 1 .073-.065.15.15 0 0 1 .076-.022c.032 0 .059.009.08.028a.137.137 0 0 1 .044.07c.006.02.01.062.01.123l.004.205c0 .04.005.066.012.076.007.01.022.016.044.018v.02l-.252.005v-.02a.053.053 0 0 0 .04-.026.173.173 0 0 0 .007-.07l-.004-.235a.411.411 0 0 0-.006-.081.05.05 0 0 0-.017-.026.038.038 0 0 0-.025-.01c-.031.001-.06.025-.085.072l.005.282c0 .04.005.065.012.075.007.01.02.017.039.02v.02l-.252.004v-.02c.02-.003.035-.01.044-.022.006-.009.008-.033.008-.074l-.005-.298c-.001-.04-.005-.064-.012-.074-.007-.01-.022-.016-.044-.018v-.021l.203-.004Zm.86-.306.07.602c.005.041.01.065.012.072.004.012.01.02.02.025a.083.083 0 0 0 .042.006l.003.019-.205.07-.01-.083a.267.267 0 0 1-.059.074.127.127 0 0 1-.064.026c-.063.008-.117-.015-.16-.07a.334.334 0 0 1-.066-.173.401.401 0 0 1 .01-.155.232.232 0 0 1 .064-.11.177.177 0 0 1 .1-.048.132.132 0 0 1 .064.006c.02.008.04.022.065.043l-.019-.157a.3.3 0 0 0-.013-.072.049.049 0 0 0-.022-.022.101.101 0 0 0-.048-.001l-.003-.024.22-.028Zm-.106.374c-.033-.05-.068-.072-.105-.067a.048.048 0 0 0-.031.015.13.13 0 0 0-.025.066.532.532 0 0 0 .003.135.567.567 0 0 0 .03.145c.013.03.029.052.046.064.009.006.02.008.035.006.03-.004.057-.033.079-.089l-.032-.275Zm1.036-.561.045.202-.02.004a.332.332 0 0 0-.058-.091.141.141 0 0 0-.066-.035.17.17 0 0 0-.072.007l-.052.013.126.575a.254.254 0 0 0 .021.07.055.055 0 0 0 .029.019c.013.004.03.004.05 0l.023-.007.005.02-.37.09-.004-.02.023-.005a.098.098 0 0 0 .047-.024.053.053 0 0 0 .016-.032.24.24 0 0 0-.01-.07l-.125-.575-.051.013c-.048.011-.08.03-.097.057a.227.227 0 0 0-.03.14l-.019.005-.044-.201.633-.155Zm.527.349-.264.075c.02.066.05.115.092.145.031.024.063.031.097.022a.1.1 0 0 0 .051-.035.248.248 0 0 0 .038-.08l.02.006a.326.326 0 0 1-.056.145.19.19 0 0 1-.1.066.181.181 0 0 1-.185-.041.323.323 0 0 1-.089-.162.316.316 0 0 1 .014-.222.211.211 0 0 1 .134-.118.164.164 0 0 1 .143.027c.046.032.082.09.105.172Zm-.135 0a.526.526 0 0 0-.04-.119.099.099 0 0 0-.04-.041.042.042 0 0 0-.032-.002c-.018.005-.03.019-.037.04a.26.26 0 0 0 .003.142l.005.019.14-.04Zm.647-.058.02.006a.27.27 0 0 1-.046.13.212.212 0 0 1-.093.075.184.184 0 0 1-.176-.014.294.294 0 0 1-.12-.156.339.339 0 0 1-.014-.198.218.218 0 0 1 .135-.16.173.173 0 0 1 .13-.008.115.115 0 0 1 .073.068.072.072 0 0 1 0 .055.067.067 0 0 1-.039.036.067.067 0 0 1-.056 0c-.017-.01-.034-.03-.05-.064-.01-.022-.02-.035-.031-.04a.036.036 0 0 0-.032-.003c-.016.007-.026.021-.03.043a.253.253 0 0 0 .018.135c.017.046.04.088.07.125.029.036.06.06.091.071a.104.104 0 0 0 .073-.004.106.106 0 0 0 .042-.03.249.249 0 0 0 .035-.067ZM25.995 70.175l.13.272a.33.33 0 0 1 .04-.094.152.152 0 0 1 .055-.05.12.12 0 0 1 .084-.014c.028.006.05.019.068.037.017.02.039.056.065.11l.088.183c.017.036.031.057.042.062.01.005.026.004.047-.004l.008.018-.225.122-.009-.018a.062.062 0 0 0 .026-.04c.002-.011-.006-.034-.022-.068l-.101-.21a.376.376 0 0 0-.04-.07.047.047 0 0 0-.025-.016.038.038 0 0 0-.027.004.072.072 0 0 0-.03.034.204.204 0 0 0-.017.07l.122.251a.175.175 0 0 0 .037.06c.012.008.028.008.048 0l.008.019-.225.12-.009-.017c.018-.012.028-.026.031-.04.002-.011-.006-.034-.023-.07l-.23-.477c-.017-.036-.031-.056-.042-.062-.01-.005-.026-.004-.047.004l-.009-.019.182-.097Zm.68-.077.03.06a.318.318 0 0 1 .036-.094.16.16 0 0 1 .057-.056.115.115 0 0 1 .083-.016c.028.005.051.019.07.04.015.016.036.05.064.103l.094.18c.019.035.034.056.044.06.01.006.027.004.047-.005l.01.018-.222.13-.009-.018a.056.056 0 0 0 .024-.043.17.17 0 0 0-.024-.066l-.108-.205a.401.401 0 0 0-.041-.069.047.047 0 0 0-.027-.014.038.038 0 0 0-.026.004c-.027.016-.041.05-.043.105l.13.247c.017.034.032.055.043.06.011.006.025.005.043-.002l.01.017-.222.13-.009-.018c.017-.013.027-.026.03-.042 0-.01-.008-.033-.026-.068l-.137-.261c-.018-.035-.032-.055-.043-.06-.01-.005-.026-.003-.047.006l-.01-.018.178-.105Zm.534-.348a.224.224 0 0 1 .119-.045.205.205 0 0 1 .124.031.32.32 0 0 1 .102.1c.04.061.06.124.057.187a.227.227 0 0 1-.097.183c-.062.046-.124.058-.188.037a.294.294 0 0 1-.154-.121.326.326 0 0 1-.057-.2.219.219 0 0 1 .094-.172Zm.024.031a.065.065 0 0 0-.027.046c-.003.02.006.049.026.086.02.038.05.087.091.15a.758.758 0 0 0 .067.087c.018.02.036.031.054.035.018.004.034 0 .047-.01a.065.065 0 0 0 .026-.035.1.1 0 0 0-.007-.061 1.307 1.307 0 0 0-.189-.286.094.094 0 0 0-.052-.024.054.054 0 0 0-.036.012Zm.277-.545.382.517c.022.029.039.045.051.048.013.003.029-.003.048-.017l.012.015-.212.176-.012-.016c.017-.015.026-.031.027-.048 0-.012-.01-.032-.032-.061l-.318-.43c-.021-.03-.038-.046-.05-.048-.013-.003-.03.002-.049.017l-.012-.017.165-.136Zm.393-.082a.227.227 0 0 1 .112-.062.204.204 0 0 1 .127.013c.042.018.08.046.114.084a.309.309 0 0 1 .081.176.23.23 0 0 1-.072.196c-.055.054-.115.076-.18.064a.287.287 0 0 1-.17-.097.321.321 0 0 1-.082-.19.223.223 0 0 1 .07-.184Zm.027.028a.067.067 0 0 0-.02.05c0 .019.012.046.037.08.024.035.061.08.11.135.026.03.052.055.079.077a.1.1 0 0 0 .057.026.057.057 0 0 0 .046-.016.066.066 0 0 0 .02-.039.1.1 0 0 0-.015-.06 1.281 1.281 0 0 0-.224-.254.092.092 0 0 0-.055-.017.055.055 0 0 0-.035.017Zm.444-.507.117-.128.042.043-.066.073c.024 0 .044.002.06.007a.16.16 0 0 1 .098.125.219.219 0 0 1-.012.106.247.247 0 0 1-.047.085l-.047.047a.06.06 0 0 0-.016.042c0 .016.005.03.015.04.01.01.02.014.033.012.013-.001.027-.01.042-.027l.064-.071a.338.338 0 0 1 .125-.1.109.109 0 0 1 .117.032c.022.022.035.05.04.082a.18.18 0 0 1-.012.095.543.543 0 0 1-.186.224.167.167 0 0 1-.08.034c-.023 0-.04-.005-.053-.018a.067.067 0 0 1-.018-.046c-.001-.02.007-.045.024-.076-.049.018-.088.012-.117-.017a.122.122 0 0 1-.032-.075.249.249 0 0 1 .02-.112.211.211 0 0 1-.122.028.157.157 0 0 1-.093-.048.18.18 0 0 1-.05-.138.24.24 0 0 1 .068-.157.28.28 0 0 1 .086-.062Zm-.055.079c-.015.015-.02.036-.014.063.005.026.031.063.078.11.038.04.07.061.093.065.024.004.043-.002.056-.016a.07.07 0 0 0 .016-.062c-.004-.026-.026-.059-.067-.1-.046-.047-.083-.073-.11-.078a.053.053 0 0 0-.052.018Zm.377.43a.197.197 0 0 0-.044.062c-.006.024-.002.043.011.056.014.014.032.018.058.013.025-.005.058-.03.098-.074a.296.296 0 0 0 .067-.103c.01-.031.007-.056-.01-.073a.033.033 0 0 0-.022-.01.074.074 0 0 0-.046.016c-.017.012-.054.05-.112.114Zm.372-.554-.389-.114a.465.465 0 0 0-.113-.024.087.087 0 0 0-.047.016l-.016-.013.167-.218.015.013c-.01.015-.015.028-.015.037 0 .01.004.018.01.024.01.009.037.02.08.031l.205.06-.08-.148a.397.397 0 0 0-.068-.1.039.039 0 0 0-.033-.011c-.011.002-.024.012-.039.03l-.015-.014.105-.137.015.013a.07.07 0 0 0-.01.046c.002.015.02.054.053.116l.198.363c.05.09.077.15.082.18.008.04 0 .075-.023.105a.1.1 0 0 1-.065.042.077.077 0 0 1-.065-.018.078.078 0 0 1-.027-.05.068.068 0 0 1 .013-.051.056.056 0 0 1 .04-.025c.016 0 .034.006.052.022.01.009.019.013.024.013.005 0 .009-.001.012-.006.005-.007.007-.018.005-.033a.355.355 0 0 0-.048-.109l-.023-.04Zm.011-.998a.237.237 0 0 1 .09-.093.205.205 0 0 1 .125-.027.3.3 0 0 1 .132.045.295.295 0 0 1 .127.143c.028.07.023.14-.015.21-.038.069-.09.108-.155.117a.278.278 0 0 1-.19-.04.308.308 0 0 1-.13-.156.227.227 0 0 1 .016-.199Zm.034.018a.068.068 0 0 0-.005.054c.005.02.024.041.057.066s.08.057.143.095c.032.02.065.036.096.05.024.01.044.011.062.007a.059.059 0 0 0 .04-.03.068.068 0 0 0 .008-.043.097.097 0 0 0-.03-.053 1.244 1.244 0 0 0-.286-.174.09.09 0 0 0-.057.001.057.057 0 0 0-.028.027Zm.296-.512.306.172c.03.017.05.024.06.021.017-.004.032-.02.046-.05l.017.01-.138.275-.017-.01a.132.132 0 0 0 .015-.049.043.043 0 0 0-.008-.028.167.167 0 0 0-.045-.031l-.306-.172-.034.068-.046-.026.034-.068-.032-.018-.023-.012a.174.174 0 0 1-.086-.116.242.242 0 0 1 .026-.168c.02-.04.043-.067.067-.079.025-.011.046-.012.063-.002.014.008.024.02.028.039a.083.083 0 0 1-.01.057.066.066 0 0 1-.033.035c-.013.005-.025.005-.036-.001a.131.131 0 0 1-.016-.013.074.074 0 0 0-.014-.01c-.006-.004-.012-.005-.017-.003a.03.03 0 0 0-.017.016.035.035 0 0 0 0 .03c.003.01.014.021.03.03l.084.046.056.031.034-.069.046.026-.034.07Zm.149-1.148.232.099-.008.02a.254.254 0 0 0-.172.026.238.238 0 0 0-.113.259c.01.047.03.088.063.122a.461.461 0 0 0 .154.104c.06.025.118.04.173.046a.224.224 0 0 0 .14-.028.224.224 0 0 0 .09-.117.295.295 0 0 0 .019-.134.474.474 0 0 0-.051-.158l.058.025c.024.056.037.11.038.16a.425.425 0 0 1-.031.162.469.469 0 0 1-.12.184.322.322 0 0 1-.176.083.357.357 0 0 1-.19-.026.414.414 0 0 1-.24-.331.44.44 0 0 1 .116-.357.27.27 0 0 0 .041-.053.045.045 0 0 0 0-.034.07.07 0 0 0-.031-.032l.008-.02Zm.114-.222.277.084a.33.33 0 0 1-.038-.094.167.167 0 0 1 .003-.077.132.132 0 0 1 .047-.074.124.124 0 0 1 .073-.027c.025 0 .065.008.12.025l.187.056c.036.011.06.014.071.01.011-.004.021-.017.03-.039l.018.006-.07.257-.018-.005a.063.063 0 0 0-.01-.047c-.007-.01-.028-.02-.062-.03l-.214-.065a.335.335 0 0 0-.076-.017.045.045 0 0 0-.044.033.077.077 0 0 0 .003.046.195.195 0 0 0 .037.06l.257.078c.034.01.056.014.066.01.014-.002.025-.014.034-.035l.018.006-.07.257-.018-.006c.004-.022.001-.039-.007-.051-.006-.009-.027-.019-.064-.03l-.487-.147c-.037-.011-.06-.015-.071-.01-.01.004-.02.017-.03.039l-.018-.006.056-.207Zm.157-.469a.084.084 0 0 1 .035-.056.077.077 0 0 1 .062-.013c.022.005.04.017.053.037.012.02.016.042.012.065a.084.084 0 0 1-.035.056.076.076 0 0 1-.061.013.08.08 0 0 1-.053-.037.087.087 0 0 1-.013-.065Zm.252-.029.388.08c.034.007.057.008.068 0 .012-.006.02-.021.026-.045l.019.003-.051.28-.02-.004c.004-.023.001-.041-.009-.055-.006-.009-.027-.017-.062-.024l-.286-.059c-.034-.007-.057-.007-.068 0-.011.006-.02.021-.026.045l-.02-.004.04-.217Zm.048-.354.064.01a.315.315 0 0 1-.05-.086.173.173 0 0 1-.008-.082.126.126 0 0 1 .11-.115c.021-.004.06 0 .117.008l.192.028c.038.006.063.006.073 0 .01-.006.018-.02.024-.043l.019.003-.036.264-.018-.003c0-.02-.006-.035-.018-.046-.008-.007-.03-.013-.064-.018l-.22-.033a.36.36 0 0 0-.078-.006.046.046 0 0 0-.039.038c-.004.032.014.065.053.1l.265.039c.037.005.061.005.072 0 .01-.007.019-.02.024-.038l.019.002-.035.265-.02-.003c.002-.023-.003-.04-.013-.05-.007-.008-.03-.014-.068-.02l-.279-.041c-.037-.006-.06-.006-.07 0-.011.006-.019.02-.025.043l-.02-.003.029-.213Zm.552-.645c.049.069.07.129.066.18a.103.103 0 0 1-.034.072.09.09 0 0 1-.072.023.136.136 0 0 1-.098-.061 1.003 1.003 0 0 1-.102-.237l-.05-.004a.226.226 0 0 0-.072 0 .057.057 0 0 0-.028.022.077.077 0 0 0-.014.04.11.11 0 0 0 .01.06c.006.011.013.017.022.017.007.001.017-.003.029-.013.016-.012.031-.018.046-.017.017.002.031.01.042.025a.08.08 0 0 1 .014.055.088.088 0 0 1-.025.057.06.06 0 0 1-.05.02.11.11 0 0 1-.07-.039.21.21 0 0 1-.046-.094.387.387 0 0 1-.008-.121.206.206 0 0 1 .04-.115.142.142 0 0 1 .07-.051.404.404 0 0 1 .102.002l.193.018a.188.188 0 0 0 .043 0 .025.025 0 0 0 .014-.007.02.02 0 0 0 .005-.012c.001-.01-.005-.02-.017-.032l.014-.015a.197.197 0 0 1 .053.063c.01.021.014.044.012.07a.11.11 0 0 1-.026.068.087.087 0 0 1-.063.026Zm-.039-.004-.166-.015a.33.33 0 0 0 .073.108.096.096 0 0 0 .056.028.059.059 0 0 0 .044-.015c.01-.008.016-.021.018-.038.001-.019-.007-.041-.025-.068Z"/><path fill-rule="evenodd" clip-rule="evenodd" d="M23.068 55c4.995 0 9.069 4.074 9.069 9.068 0 4.995-4.074 9.069-9.069 9.069-4.994 0-9.068-4.074-9.068-9.069C14 59.074 18.074 55 23.068 55Zm0 .478c4.732 0 8.59 3.859 8.59 8.59 0 4.732-3.858 8.59-8.59 8.59-4.731 0-8.59-3.858-8.59-8.59 0-4.731 3.859-8.59 8.59-8.59ZM40.805 59.002l.086-1.226c-.24-.286-1.364-1.341-1.683-1.246-.328.097-.395 2.25-.31 2.712-.423.167-1.782.966-1.813.975-.342.102-.43-.268-.797-.404l-.154 1.343.151.718.028.101c.109.408.432.064.682.998l.289-.085c.438-.13.622.383.751.873l.536.05-.114.044.765 2.386c.553-.682.162-.941.623-1.42.438-.457.08-.968.305-1.694.96-.286 1.201-.838 1.52-.914l1.088-.19c.032-.097.125-.306.111-.36-.213-.792-1.06.035-1.355-.797.274-.16.861-.497 1.12-.703.337-.27.765-.783.941-.893-.27-.925-1.836-.314-2.77-.268Zm-.276.841 1.124-.15c.192.038.222.151.091.34l-1.25.984c-.218-.12-.18-.543.035-1.174ZM37.68 61.51a1.16 1.16 0 0 1 .748-.543c.197.079.244.363.27.677l-.254.924c-.388.083-.623-.333-.764-1.058ZM48.872 58.077c.662-.724 2.122-.836 2.793-.607.37 1.328.943 6.005-.083 7.127-.421.46-.902-.069-1.326-.233l-.199.389-.864-.255-.036.325c-.482.098-1.204.38-1.623-.082l-.21-.23c.211-.398.024-3.238.496-3.754.167-.183 1.154-.519 1.466-.227l-.21.23a3.154 3.154 0 0 1-1.118.763 1.277 1.277 0 0 0-.123.837l.889.468-.487.386c.094.342.081.703.344.993.547.602 2.528-1.365 3.214-1.832.04-.218.129-.473-.068-.69-.834-.92-1.038.04-1.953-.924.187-.328.486-1.154.212-1.456l-.139-.153c-.417-.46-1.467.582-1.956.915-.114-.643.402-1.358.981-1.99Zm-1.676.303c-1.163 1.271-.483 2.423-.457 3.677.032 1.49-1.003 2.49.086 3.74l.498-.367.278.307c.244.269 1.317.026 1.606-.074.893-.309.7-.457 1.674.618 2.738-.589 1.797-2 1.962-3.98.088-1.07.226-4.204-.619-5.136-.932-1.027-3.945.03-5.028 1.215Zm3.554 3.78s.08-.21.214-.086.123.284.033.383c-.09.098-.124.086-.214-.038-.09-.123-.033-.259-.033-.259Zm-2.167-.148c.022-.065.255-.324.404-.346.15-.021.234.108.085.26-.149.151-.191.194-.34.194-.149 0-.17-.043-.149-.108Zm1.144-.28c0-.075.062-.326.148-.326s.16 0 .099.113c-.062.113 0 .125-.05.213-.049.088-.197.076-.197 0ZM62.753 56.957c-.286.485-.054 1.613-.365 2.213l-.517-.746c-.42-.017-.775.034-.672.563.206.575.367.656-.083 1.152-.173-.214-.478-.779-.571-.852-.129-.1-.501-.188-.594-.056l-.76 1.613-1.78.32c.931-.983 2.01-1.589 2.862-3.036l.11-.185c.326-.554-.71-.616-.79-.482-.162.275.018.376-.218.776l-.11.185c-.545.925-3.072 2.87-2.372 3.418.29.227.994-.184 1.308-.195-.502.552-2.288 2.673-1.392 3.374.516.404 1.357-.342 1.77-.779.304.402.183 1.09.598 1.415.134.104.278.136.354.006.272-.462-.475-1.246-.068-2.343.238-.64.492-.517.725-1.031.19-.422.265-.82.573-1.343.147-.25.19-.225.354-.4l.225.164-.744 1.73c-.05.03-.569.358-.572.363-.138.233-.135 1.382-.029 1.465.42.328 1.889-.416 1.988-.338.347.271.102 1.271.136 1.755.06.866.162 1.007.542 1.75.29-.593.674-1.818.792-2.437.144-.756.187-1.834.34-2.399l1.684-.538.058-.52-.717-.397c-.044-1.166-.92-1.063-.763-2.028.107-.657-.27-1.62-.867-2.087l-.082-.063c-.133-.105-.277-.136-.353-.007Zm-3.29 5.008c.164-.28.123-.62.309-.577.186.042.371-.12.46-.016.09.104-.075.385-.247.523-.172.139-.434.378-.434.378s-.254-.028-.089-.309Zm.358-1.324c-.09.203.226.28.364.046.138-.234.138-.439-.047-.38-.186.06-.227.13-.317.334Zm-1.253 2.126c-.145-.113-.627.807-.496.944.13.136.35-.238.516-.314.165-.075.124-.517-.02-.63Zm2.88.068c-.075-.23.131-.273.427-.315.295-.042.322.218.089.309-.234.09-.44.236-.516.006Zm.622-2.454c.009-.078.128-.154.298-.063.171.091.137.149-.11.252-.248.103-.197-.111-.188-.189Zm1.72 1.18.23-.074.026.274s-.009.078-.18-.013c-.17-.091-.033-.196-.076-.187ZM68.939 57.361c.138.782-.556 1.963.448 2.115l.211.032c.173.026.335-.017.377-.167.189-.674-.246-1.53-.433-2.073-.079-.008-.221-.095-.263.004-.063.152.01.069-.34.09Z"/><path fill-rule="evenodd" clip-rule="evenodd" d="m70.345 58.226 1.212.73c-.381.42-1.515 1.06-2.123 1.53-.223.174-1.784 1.813-1.805 1.957-.155 1.04.437 1.293 1.223 1.392.302-1.761.974-2.07 1.86-3.046.808-.889 1.933-1.809 2.614.04l-1.415.93c-.142-.098-.163-.134-.415-.171l-.323-.048c-.669-.1-.995.742-.961 1.287.54-.062.731-.578 1.118-.57.561.01-.034.675-.106 1.16l-.016.108c-.038.259.127.342.246.597l-2.052.455c.127.242.199.36.597.419l.324.048c.245.036 1.035-.188 1.463-.223-.248 1.056-1.716.455-2.054 1.235 1.23.21 2.045.925 2.895-.23l-.127-1.318.334-.081c.293.115.515.296.83.343.13.02.356-.175.386-.383.05-.33-.003-.66-.334-.71l-1.377-.198-.19.4-.373-.195.631-.86-.006-.675.77.017c.299-.33.822-.356.88-.749l.033-.215c.104-.704-.55-1.431-.95-1.768l-.84-.258c.439-.483 1.725-.502 1.807-1.052.056-.378-.414-.501-.798-.558l-.43-.064c-.31-.046-1.189.893-2.528.724ZM80.333 63.815c-.146-.991 1.023-2.882 1.77-2.834l.039 1.1c.02.108.268.54.318.619l.669-.731.114.384c.08.548-.08.602-.044 1.117l-1.802-.476.908 1.696-.575.123c-.548.087-1.307-.39-1.397-.998Zm2.34-6.031c.043.295-.327 1.664-.373 2.411l-.716.092c-.487.093-.235.556-.719.78.208-.64.162-1.458.367-2.014.308-.836.813-.828.868-1.622-.19-.062-.484-.145-.745-.104-.572.091-.224 1.7-1.796 1.95-.383.062-.202-.04-.673.017l.346.562 1.034-.025c.007.1-.3 1.522-.348 1.741-.107.491-.866.782-1.453.876l-.102.04-.932.013c-.334.66-.493.821-.451 1.181.272.423.287.843.942.738l.108.008 1.098-.31c.124.846.347.635.629 1.192.437.865-.089.564.893.894l-.275-1.397.204-.032c.172.453.397.935.958.846l.712-.114c.59-.094.992-.43 1.421-.089.365.291.458.79 1.064.693.288-.046.662-.458.617-.764l-.032-.217c-.14-.953-1.398-1.001-1.445-1.323-.053-.356.244-1.125.14-1.804-.085-.568-.816-.63-1.259-.796l.146-.464c.882-.14.718-.433 1.203-.784.513-.372 1.01-.353.914-1.106-.727-.062-1.178-.19-1.575-.751l.146-.464c-.214-.333-.326-.725-.825-.646-.56.09-.125.564-.091.792Zm.65 1.034c-.175.073-.385.754-.26.965.123.21.785-.125.785-.125s.204-.296-.106-.51c-.168-.203-.246-.402-.42-.33ZM91.293 60.432c-.543.343-.987.023-1.35-.027.096.378-.01.43.162.778.222.447.53.545.927.295l.267-.164.092.44c-.355.102-.66-.086-.869.046l-.084.053c-.575.364-.878.89-1.314 1.357-.638.686-.162.897-.483 1.67l.391.883c.211.019.245.097.435-.023.674-.426.763-1.616 1.015-1.775.314-.198.43-.148.651-.034-.058.541-.21.923.156 1.663.176.355.298.381.54.415.28-.694-.394-2.055.329-2.59l.499 1.562c.105.335.784.26 1.048.093.26-.164.297-.309.341-.483a5.4 5.4 0 0 1-.574-2.013c-.11-.332-.702-.591-.815-.513l-.701.532.137-1.73.11.052 2.062-1.242.03.107-.029-.404-1.286-.267c.12.3.176.518-.102.694l-.255.161c-.324.205-.016.049-.302.065-.03-.136.575-3.502-.556-2.92.124.482-.206 3.15-.472 3.319Zm2.013-2.91.285.576c.106.215.171.168.354.277l.063.34c.253.023.425.109.737-.088.493-.312.334-.497.308-.95-1.016-.743-.733-.582-1.9-.687.062.243.024.274.153.533Zm-2.822 5.513c-.376-.163.104-.566.352-.723.248-.156.225-.142.334.256.109.399-.309.63-.686.467ZM100.454 60.415c-.468.685-2.035.309-2.494.47.012.354.178.557.588.837l.198.135c.518.353 2.503-.909.948 1.37-.206.302-.996.186-1.335.683-.155.228-.134.343.094.499l.099.067c.5.341 1.232.318 1.595-.215l.337-.494c.48-.704.617-1.645.689-2.283.587-.34.891-.615 1.555-.88.251-.1 1.632-.607 1.68-.678l.068-.099c.151-.221.07-.27.073-.537-.427-.3-.848-.088-1.463-.114-.205-.008-.532-.362-.754-.346l-.065-.115.321.801.141.069-1.241.376c-.233-.657.264-2.572-.597-3.159-.321-.219-.133.035-.629-.14l-.202.297c-.149.217.975 2.603.394 3.456Zm2.569 4.939.494.337c.324-.298.514-.33.804-.755.251-.367-.33-1.126-.624-1.432-.781-.813-.723-.45-1.54-.913-.679-.077-.752.26-.738.655.315.342.793.66 1.038 1.01.205.29.368.963.566 1.098ZM108.14 57.452c.029.346.226 1.043.614 1.257.268.148.376.02.567-.079.228-.802.078-1.515-.117-2.243-.384-1.428-.691.39-1.064 1.065Zm.245 6.274.275-.108.335.332c.101-.05.337-.136.367-.19.561-1.012-.255-.717-.236-1.702.394-.28.808-.743 1.24-.965.579-.296 1.005-.268 1.374-.435l.801.25.101.478c-.374.244-.708.564-1.145.712-.318.107-1.042.16-1.213.47l-.056.101c-.091.164-.106.334.034.412.497.275.44-.331 1.135-.158-.396.882-.455.696-.376 1.626-.713-.014-.733.16-1.502.181-.731.02-1.19-.319-1.45.53 1.768.978 2.394-.138 3.321.279-.861 1.553-1.848.736-3.094.382.044.52.402.878 1.026 1.223.799.443 2.364-.012 2.581-.404.133-.24.02-.928-.001-1.18.61-.314 1.665-.385 1.777-.587.171-.308.241-.653-.067-.823l-.101-.056c-.773-.428-1.375.548-1.767.331-.516-.286.087-.63.355-1.113l.166-.3c.214-.387.173-.444-.023-.669.347-.36 1.003-.154 1.257-.614l.055-.1c.242-.435-.365-1.119-.814-1.367-.688-.382-.953-.292-1.47-.421.355-.232.739-.58 1.144-.715.38-.126 1.115-.053 1.314-.413l.056-.1c.155-.28-.034-.936-.313-1.09-.967-.536-1.543.865-2.413.336l-.893-.41c-.22.49.207.859.382 1.37l.922-.047c-.662.688-1.665 1.43-2.535 2.182-.243.21-.39.409-.667.59-.166.109-.458.212-.625.306.204.259.324.551.257.918l.486.958ZM36.062 68.539h1.288v.077h-.064c-.097 0-.163.012-.2.034a.187.187 0 0 0-.077.095c-.015.04-.023.141-.023.302v1.382c0 .253.017.42.05.502.035.082.09.15.167.204a.499.499 0 0 0 .293.081.57.57 0 0 0 .558-.387c.047-.121.071-.331.071-.631v-1.151a.747.747 0 0 0-.035-.27.23.23 0 0 0-.088-.113.472.472 0 0 0-.234-.048v-.077h.862v.077h-.051a.301.301 0 0 0-.175.048.268.268 0 0 0-.1.143.829.829 0 0 0-.025.24v1.072c0 .332-.019.571-.057.718a.8.8 0 0 1-.283.406c-.15.124-.354.186-.613.186-.215 0-.382-.033-.5-.099a.782.782 0 0 1-.34-.34c-.067-.14-.1-.326-.1-.561v-1.382c0-.162-.008-.263-.024-.303a.188.188 0 0 0-.083-.094c-.039-.025-.11-.035-.217-.034v-.077Zm3.58.877v.251a1.05 1.05 0 0 1 .255-.236.488.488 0 0 1 .261-.074c.111 0 .204.035.278.106.073.07.122.157.147.26.02.08.03.232.03.456v.758c0 .15.011.243.035.28.024.037.074.06.15.07v.075h-.87v-.075a.18.18 0 0 0 .14-.092c.02-.034.03-.12.03-.258v-.866c0-.16-.006-.26-.017-.302a.187.187 0 0 0-.056-.096.128.128 0 0 0-.088-.035c-.105 0-.203.085-.294.256v1.043c0 .145.011.238.035.277.025.039.069.063.134.073v.075h-.87v-.075c.072-.009.123-.035.154-.08.02-.03.032-.12.032-.27v-1.1c0-.147-.012-.237-.036-.274-.024-.036-.074-.06-.15-.07v-.077h.7Zm1.925-.943a.26.26 0 0 1 .203.094c.055.064.082.14.082.228a.328.328 0 0 1-.083.227.261.261 0 0 1-.402 0 .33.33 0 0 1-.083-.227c0-.088.028-.165.083-.228a.257.257 0 0 1 .2-.094Zm.258.943v1.542c0 .137.014.225.042.263.029.038.084.06.166.066v.075h-.93v-.075c.077-.003.133-.028.17-.075.025-.032.037-.117.037-.254v-1.137c0-.137-.014-.225-.042-.263-.029-.038-.083-.06-.164-.066v-.076h.72Zm1.27 2.004-.58-1.51a1.567 1.567 0 0 0-.164-.344.212.212 0 0 0-.124-.074v-.076h.914v.076c-.058 0-.097.012-.118.036a.15.15 0 0 0-.044.108c0 .052.027.148.08.29l.284.73.226-.63c.066-.181.098-.308.098-.384a.14.14 0 0 0-.041-.105c-.028-.027-.077-.042-.147-.045v-.076h.563v.076a.22.22 0 0 0-.132.07c-.034.037-.086.147-.155.33l-.574 1.528h-.087Zm2.682-1.101h-.943c.01.258.071.462.182.612.084.115.186.173.305.173a.32.32 0 0 0 .2-.07.877.877 0 0 0 .194-.25l.062.045c-.093.215-.196.367-.309.457a.61.61 0 0 1-.392.134.633.633 0 0 1-.58-.333 1.292 1.292 0 0 1-.158-.666c0-.325.078-.583.233-.776.156-.192.338-.288.546-.288.174 0 .325.08.453.243.129.162.198.401.207.719Zm-.452-.14c0-.223-.01-.376-.033-.46a.385.385 0 0 0-.1-.189.142.142 0 0 0-.102-.038c-.065 0-.117.036-.157.107-.072.123-.108.293-.108.507v.073h.5Zm1.5-.763v.44c.114-.2.214-.334.3-.4a.412.412 0 0 1 .248-.099c.068 0 .124.024.164.072a.299.299 0 0 1 .062.203c0 .093-.02.165-.06.216a.178.178 0 0 1-.144.078.234.234 0 0 1-.17-.071 1.036 1.036 0 0 0-.084-.08.074.074 0 0 0-.043-.012.145.145 0 0 0-.1.045.443.443 0 0 0-.114.203c-.04.134-.06.283-.06.446v.446l.002.118c0 .079.005.129.013.15a.16.16 0 0 0 .065.083.339.339 0 0 0 .146.033v.075h-.928v-.075c.075-.007.125-.03.151-.07.026-.04.04-.144.04-.314v-1.075a.899.899 0 0 0-.015-.213.167.167 0 0 0-.053-.085.257.257 0 0 0-.123-.038v-.076h.703Zm2.163-.054.028.663h-.063c-.075-.197-.152-.332-.233-.403a.361.361 0 0 0-.24-.11.17.17 0 0 0-.128.058.188.188 0 0 0-.054.133c0 .037.012.073.037.108.04.056.15.154.33.292.18.138.298.255.355.352a.625.625 0 0 1 .086.324.76.76 0 0 1-.072.318.528.528 0 0 1-.491.323.91.91 0 0 1-.33-.087.23.23 0 0 0-.075-.023c-.04 0-.074.035-.101.103h-.061l-.03-.699h.063c.056.184.13.32.228.412.096.092.187.138.273.138.059 0 .107-.021.144-.061a.215.215 0 0 0 .056-.15.278.278 0 0 0-.055-.172 1.455 1.455 0 0 0-.246-.22c-.188-.148-.31-.26-.364-.338a.66.66 0 0 1 .016-.784.465.465 0 0 1 .395-.182c.093 0 .184.026.271.077.033.02.06.031.08.031.023 0 .04-.005.054-.015a.39.39 0 0 0 .065-.088h.063Zm.91-.89a.26.26 0 0 1 .204.095c.054.064.082.14.082.228a.328.328 0 0 1-.084.227.261.261 0 0 1-.401 0 .33.33 0 0 1-.083-.227c0-.088.027-.165.083-.228a.256.256 0 0 1 .2-.094Zm.258.944v1.542c0 .137.015.225.043.263.028.038.084.06.166.066v.075h-.93v-.075c.076-.003.133-.028.17-.075.024-.032.036-.117.036-.254v-1.137c0-.137-.014-.225-.042-.263-.028-.038-.083-.06-.164-.066v-.076h.721Zm1.177-.712v.712h.407v.206h-.407v1.2c0 .113.004.185.013.218.01.032.026.059.05.08.023.02.044.03.063.03.08 0 .155-.07.227-.207l.054.046c-.099.267-.26.4-.483.4a.395.395 0 0 1-.277-.103.458.458 0 0 1-.144-.23 2.239 2.239 0 0 1-.019-.383v-1.051h-.224v-.074c.154-.123.286-.252.395-.389.108-.136.202-.288.284-.455h.06Zm1.479 2.737-.556-1.443c-.084-.218-.145-.352-.185-.401a.312.312 0 0 0-.144-.105v-.076h.914v.076c-.06.003-.102.017-.126.04a.114.114 0 0 0-.038.085c0 .053.031.157.093.312l.294.763.2-.59c.073-.209.11-.355.11-.437a.168.168 0 0 0-.046-.123c-.03-.03-.083-.047-.16-.05v-.076h.576v.076a.208.208 0 0 0-.137.074c-.036.043-.096.186-.18.432l-.49 1.442c-.124.361-.216.584-.276.667a.38.38 0 0 1-.318.175.332.332 0 0 1-.342-.337c0-.081.021-.148.065-.2a.201.201 0 0 1 .16-.08c.062 0 .112.023.149.067.037.045.057.114.057.207.002.052.007.086.017.101.01.016.024.023.043.023.029 0 .06-.02.094-.06.049-.059.107-.192.172-.4l.054-.162Zm2.777-2.084c.15 0 .29.044.418.131a.81.81 0 0 1 .293.373c.067.16.1.337.1.529 0 .276-.06.507-.185.692a.705.705 0 0 1-.62.338.68.68 0 0 1-.598-.308 1.236 1.236 0 0 1-.21-.714c0-.279.072-.522.215-.73a.677.677 0 0 1 .587-.31Zm.008.148a.201.201 0 0 0-.16.08c-.046.054-.076.159-.09.317a7.646 7.646 0 0 0-.02.656c0 .149.008.287.025.416a.432.432 0 0 0 .087.225.194.194 0 0 0 .15.077.196.196 0 0 0 .139-.051.366.366 0 0 0 .095-.199c.024-.131.037-.398.037-.799a2.23 2.23 0 0 0-.035-.486.384.384 0 0 0-.103-.193.178.178 0 0 0-.125-.043Zm1.937.115v1.35c0 .13.013.213.037.246.04.051.112.075.218.071v.075h-1.015v-.075a.373.373 0 0 0 .165-.03.149.149 0 0 0 .068-.079.747.747 0 0 0 .018-.208v-1.35h-.25v-.204h.25v-.144l-.002-.098c0-.2.064-.367.194-.5s.305-.2.525-.2c.151 0 .263.032.336.096.073.064.11.135.11.213a.225.225 0 0 1-.069.162.243.243 0 0 1-.18.068.205.205 0 0 1-.152-.056.174.174 0 0 1-.056-.125c0-.012.004-.037.01-.076a.306.306 0 0 0 .008-.067c0-.03-.007-.05-.022-.065a.094.094 0 0 0-.071-.03c-.036 0-.066.016-.09.05-.023.033-.036.086-.036.16l.004.364v.248h.255v.204h-.255Zm3.015-1.145.02.94h-.075a1.006 1.006 0 0 0-.262-.57c-.14-.143-.29-.215-.452-.215a.392.392 0 0 0-.297.114.363.363 0 0 0-.07.428.66.66 0 0 0 .17.193c.058.046.191.127.4.244.292.163.488.316.59.46a.84.84 0 0 1 .151.495.85.85 0 0 1-.244.61.819.819 0 0 1-.619.254.9.9 0 0 1-.223-.027 1.624 1.624 0 0 1-.263-.102.36.36 0 0 0-.145-.041.166.166 0 0 0-.101.041.288.288 0 0 0-.087.127h-.067V70.36h.067c.054.3.158.528.313.686.153.158.32.237.497.237a.435.435 0 0 0 .328-.127.413.413 0 0 0 .123-.296.428.428 0 0 0-.047-.194.601.601 0 0 0-.143-.178 2.126 2.126 0 0 0-.338-.22 2.88 2.88 0 0 1-.49-.322.962.962 0 0 1-.229-.297.816.816 0 0 1-.08-.363c0-.224.073-.416.22-.574a.72.72 0 0 1 .551-.237.838.838 0 0 1 .446.126.465.465 0 0 0 .174.067.092.092 0 0 0 .075-.033.396.396 0 0 0 .052-.16h.055Zm1.975 2.385.056.05a.941.941 0 0 1-.302.384.663.663 0 0 1-.385.126.64.64 0 0 1-.55-.294 1.196 1.196 0 0 1-.206-.705 1.3 1.3 0 0 1 .187-.7c.151-.242.359-.364.624-.364.178 0 .319.05.424.152a.46.46 0 0 1 .157.34c0 .078-.02.141-.064.189a.213.213 0 0 1-.166.07.23.23 0 0 1-.18-.08c-.047-.055-.075-.151-.087-.29-.007-.087-.025-.148-.053-.183a.124.124 0 0 0-.1-.052c-.059 0-.109.035-.15.106-.064.107-.096.27-.096.492 0 .182.026.358.078.525a.822.822 0 0 0 .21.373.35.35 0 0 0 .411.042.826.826 0 0 0 .192-.181Zm.8-2.387a.26.26 0 0 1 .203.094c.054.064.082.14.082.228a.328.328 0 0 1-.084.227.262.262 0 0 1-.401 0 .33.33 0 0 1-.084-.227c0-.088.028-.165.084-.228a.256.256 0 0 1 .2-.094Zm.257.943v1.542c0 .137.015.225.043.263.028.038.084.06.166.066v.075h-.93v-.075c.076-.003.133-.028.17-.075.024-.032.036-.117.036-.254v-1.137c0-.137-.014-.225-.042-.263-.028-.038-.083-.06-.164-.066v-.076h.721Zm1.95.903h-.943c.011.258.072.462.183.612.084.115.185.173.305.173a.32.32 0 0 0 .2-.07.874.874 0 0 0 .194-.25l.062.045c-.093.215-.196.367-.31.457a.611.611 0 0 1-.391.134.634.634 0 0 1-.58-.333 1.292 1.292 0 0 1-.158-.666c0-.325.078-.583.233-.776.155-.192.337-.288.546-.288.174 0 .325.08.453.243.128.162.197.401.207.719Zm-.452-.14c0-.223-.01-.376-.032-.46a.384.384 0 0 0-.1-.189.143.143 0 0 0-.103-.038c-.064 0-.116.036-.156.107-.073.123-.109.293-.109.507v.073h.5Zm1.489-.763v.251c.088-.108.173-.187.254-.236a.487.487 0 0 1 .261-.074c.112 0 .204.035.278.106.073.07.122.157.147.26.02.08.03.232.03.456v.758c0 .15.011.243.035.28.024.037.074.06.15.07v.075h-.87v-.075a.18.18 0 0 0 .14-.092c.02-.034.03-.12.03-.258v-.866c0-.16-.006-.26-.017-.302a.188.188 0 0 0-.056-.096.128.128 0 0 0-.088-.035c-.105 0-.203.085-.294.256v1.043c0 .145.012.238.035.277.025.039.07.063.134.073v.075h-.87v-.075c.072-.009.124-.035.154-.08.021-.03.032-.12.032-.27v-1.1c0-.147-.012-.237-.036-.274-.024-.036-.074-.06-.15-.07v-.077h.7Zm2.915 1.444.056.05a.941.941 0 0 1-.302.384.664.664 0 0 1-.385.126.64.64 0 0 1-.55-.294 1.196 1.196 0 0 1-.206-.705 1.3 1.3 0 0 1 .187-.7c.151-.242.359-.364.624-.364.178 0 .319.05.424.152a.46.46 0 0 1 .157.34c0 .078-.02.141-.064.189a.213.213 0 0 1-.166.07.229.229 0 0 1-.18-.08c-.047-.055-.076-.151-.087-.29-.007-.087-.025-.148-.053-.183a.124.124 0 0 0-.1-.052c-.059 0-.109.035-.15.106-.064.107-.096.27-.096.492 0 .182.026.358.078.525a.824.824 0 0 0 .21.373.35.35 0 0 0 .411.042.826.826 0 0 0 .192-.181Zm1.843-.541h-.943c.01.258.071.462.182.612.084.115.186.173.305.173a.32.32 0 0 0 .2-.07.874.874 0 0 0 .194-.25l.062.045c-.093.215-.196.367-.31.457a.611.611 0 0 1-.391.134.633.633 0 0 1-.58-.333 1.292 1.292 0 0 1-.158-.666c0-.325.078-.583.233-.776.155-.192.337-.288.546-.288.174 0 .325.08.453.243.128.162.198.401.207.719Zm-.452-.14c0-.223-.011-.376-.033-.46a.385.385 0 0 0-.1-.189.142.142 0 0 0-.103-.038c-.064 0-.116.036-.156.107-.072.123-.109.293-.109.507v.073h.5Zm2.488.896c-.21.21-.398.314-.565.314a.312.312 0 0 1-.244-.11.394.394 0 0 1-.098-.273c0-.149.056-.282.17-.401.112-.119.358-.276.737-.473v-.196c0-.147-.007-.24-.021-.278a.216.216 0 0 0-.08-.1.222.222 0 0 0-.132-.043c-.08 0-.146.02-.198.06-.03.025-.047.054-.047.088 0 .029.017.065.051.109.047.06.07.117.07.172a.248.248 0 0 1-.066.174.232.232 0 0 1-.176.072.263.263 0 0 1-.195-.08.255.255 0 0 1-.078-.184c0-.1.035-.196.105-.287a.665.665 0 0 1 .293-.21c.125-.047.254-.072.39-.072.163 0 .291.04.387.118a.548.548 0 0 1 .185.255c.017.058.025.192.025.402v.755c0 .089.004.145.01.168.006.022.015.04.027.05.012.011.027.017.043.017.032 0 .064-.025.097-.076l.055.05a.704.704 0 0 1-.19.223.378.378 0 0 1-.224.07.323.323 0 0 1-.23-.078.37.37 0 0 1-.1-.236Zm0-.152v-.652a1.127 1.127 0 0 0-.33.316.414.414 0 0 0-.073.227c0 .064.02.12.061.169.03.038.074.056.129.056.061 0 .132-.039.213-.116Zm1.756-1.507v.251c.088-.108.173-.187.254-.236a.488.488 0 0 1 .261-.074c.111 0 .204.035.278.106.073.07.122.157.147.26.02.08.029.232.029.456v.758c0 .15.012.243.036.28.024.037.074.06.15.07v.075h-.87v-.075a.18.18 0 0 0 .14-.092c.02-.034.029-.12.029-.258v-.866c0-.16-.005-.26-.016-.302a.187.187 0 0 0-.057-.096.128.128 0 0 0-.087-.035c-.106 0-.204.085-.294.256v1.043c0 .145.011.238.035.277.025.039.069.063.134.073v.075h-.87v-.075c.072-.009.123-.035.154-.08.02-.03.032-.12.032-.27v-1.1c0-.147-.012-.237-.036-.274-.024-.036-.074-.06-.15-.07v-.077h.7Zm3.183-.877v2.24c0 .151.003.24.01.269.01.045.03.08.057.101.028.022.076.037.144.042v.068l-.726.16v-.307a.948.948 0 0 1-.233.243.42.42 0 0 1-.23.065c-.22 0-.394-.11-.521-.333a1.312 1.312 0 0 1-.156-.664c0-.21.032-.397.097-.563a.84.84 0 0 1 .261-.376.58.58 0 0 1 .358-.127c.083 0 .156.018.22.054.063.037.131.1.204.19v-.588a1.22 1.22 0 0 0-.017-.268.18.18 0 0 0-.066-.09c-.03-.019-.085-.029-.166-.029v-.087h.764Zm-.515 1.32c-.091-.198-.202-.296-.333-.296a.156.156 0 0 0-.112.042.486.486 0 0 0-.112.227 2.087 2.087 0 0 0-.043.497c0 .246.016.427.047.545a.55.55 0 0 0 .131.257c.028.026.067.039.117.039.107 0 .21-.095.305-.287v-1.024Zm3.992-1.32v.764h-.066a1.305 1.305 0 0 0-.13-.38.519.519 0 0 0-.198-.184.553.553 0 0 0-.244-.038h-.186v2.178c0 .144.007.234.02.27a.207.207 0 0 0 .083.095.299.299 0 0 0 .169.04h.083v.078h-1.307v-.077h.083c.073 0 .13-.015.175-.044a.189.189 0 0 0 .075-.1.934.934 0 0 0 .02-.263v-2.177h-.18c-.168 0-.29.04-.366.121-.107.113-.174.273-.202.481h-.07v-.764h2.24Zm1.492 1.78h-.944c.011.258.072.462.183.612.084.115.185.173.305.173a.32.32 0 0 0 .2-.07.867.867 0 0 0 .193-.25l.063.045c-.093.215-.196.367-.31.457a.611.611 0 0 1-.391.134.633.633 0 0 1-.58-.333 1.29 1.29 0 0 1-.158-.666c0-.325.078-.583.233-.776.155-.192.337-.288.546-.288.174 0 .325.08.453.243.128.162.197.401.207.719Zm-.453-.14c0-.223-.01-.376-.032-.46a.386.386 0 0 0-.1-.189.143.143 0 0 0-.103-.038c-.064 0-.116.036-.156.107-.073.123-.11.293-.11.507v.073h.501Zm2.19.681.057.05a.94.94 0 0 1-.303.384.664.664 0 0 1-.385.126.64.64 0 0 1-.55-.294 1.196 1.196 0 0 1-.206-.705 1.3 1.3 0 0 1 .187-.7c.151-.242.36-.364.624-.364.178 0 .32.05.424.152a.46.46 0 0 1 .157.34c0 .078-.02.141-.063.189a.213.213 0 0 1-.167.07.229.229 0 0 1-.18-.08c-.046-.055-.075-.151-.087-.29-.006-.087-.025-.148-.053-.183a.124.124 0 0 0-.1-.052c-.058 0-.108.035-.15.106-.064.107-.095.27-.095.492 0 .182.025.358.077.525a.825.825 0 0 0 .21.373.35.35 0 0 0 .412.042.822.822 0 0 0 .191-.181ZM86.096 68.539v1.126c.095-.112.18-.192.26-.238a.47.47 0 0 1 .244-.07.4.4 0 0 1 .277.104c.077.07.128.151.153.245.025.093.037.251.037.473v.76c0 .148.013.242.038.278.024.037.074.06.148.07v.075h-.872v-.075a.194.194 0 0 0 .138-.084c.022-.035.033-.123.033-.264v-.868a1.56 1.56 0 0 0-.016-.303.183.183 0 0 0-.056-.095.13.13 0 0 0-.09-.035.224.224 0 0 0-.143.057.71.71 0 0 0-.15.2v1.044c0 .14.009.226.027.26.023.048.071.077.143.088v.075h-.872v-.075c.072-.009.124-.035.155-.08.02-.03.031-.12.031-.268v-1.977c0-.148-.012-.24-.036-.275-.023-.036-.074-.06-.15-.07v-.078h.701Zm2.214.877v.251c.088-.108.173-.187.254-.236a.487.487 0 0 1 .261-.074c.111 0 .204.035.278.106.073.07.122.157.147.26.02.08.03.232.03.456v.758c0 .15.011.243.035.28.024.037.074.06.15.07v.075h-.87v-.075a.18.18 0 0 0 .14-.092c.02-.034.03-.12.03-.258v-.866c0-.16-.006-.26-.017-.302a.188.188 0 0 0-.057-.096.128.128 0 0 0-.087-.035c-.105 0-.203.085-.294.256v1.043c0 .145.012.238.035.277.025.039.069.063.134.073v.075h-.87v-.075c.072-.009.123-.035.154-.08.021-.03.032-.12.032-.27v-1.1c0-.147-.012-.237-.036-.274-.024-.036-.074-.06-.15-.07v-.077h.7Zm2.322-.059c.15 0 .289.044.417.131a.81.81 0 0 1 .294.373c.067.16.1.337.1.529 0 .276-.061.507-.186.692a.705.705 0 0 1-.62.338.68.68 0 0 1-.597-.308 1.236 1.236 0 0 1-.21-.714c0-.279.071-.522.214-.73a.677.677 0 0 1 .588-.31Zm.007.148a.201.201 0 0 0-.16.08c-.046.054-.075.159-.089.317a7.646 7.646 0 0 0-.021.656c0 .149.008.287.025.416a.431.431 0 0 0 .087.225.196.196 0 0 0 .289.026.366.366 0 0 0 .095-.199c.025-.131.038-.398.038-.799 0-.236-.013-.398-.036-.486a.384.384 0 0 0-.103-.193.177.177 0 0 0-.125-.043Zm1.856-.966v2.42c0 .136.015.224.043.262.029.038.084.06.165.066v.075h-.928v-.075c.075-.003.132-.028.169-.075.025-.032.037-.117.037-.254v-2.015c0-.136-.014-.223-.042-.261-.029-.039-.083-.06-.164-.066v-.077h.72Zm1.303.818c.15 0 .29.044.418.131a.81.81 0 0 1 .293.373c.068.16.1.337.1.529 0 .276-.06.507-.185.692a.705.705 0 0 1-.62.338.68.68 0 0 1-.598-.308 1.237 1.237 0 0 1-.21-.714c0-.279.072-.522.215-.73a.677.677 0 0 1 .588-.31Zm.008.148a.201.201 0 0 0-.16.08c-.046.054-.076.159-.09.317a7.68 7.68 0 0 0-.02.656c0 .149.008.287.025.416a.431.431 0 0 0 .087.225.196.196 0 0 0 .289.026.367.367 0 0 0 .095-.199c.025-.131.037-.398.037-.799 0-.236-.012-.398-.035-.486a.385.385 0 0 0-.103-.193.178.178 0 0 0-.125-.043Zm2.287-.067h.58v.23h-.33a.7.7 0 0 1 .126.185.647.647 0 0 1 .044.235c0 .138-.034.26-.103.36a.693.693 0 0 1-.277.24.726.726 0 0 1-.312.087l-.22-.01a.18.18 0 0 0-.14.06.208.208 0 0 0-.056.147c0 .05.017.091.05.123.035.032.09.048.165.048l.319-.004c.257 0 .434.032.531.096.139.088.208.225.208.41a.57.57 0 0 1-.096.321.567.567 0 0 1-.252.213c-.158.069-.34.103-.546.103a1.64 1.64 0 0 1-.423-.051.564.564 0 0 1-.275-.142.281.281 0 0 1-.082-.19.26.26 0 0 1 .063-.172.495.495 0 0 1 .237-.128c-.16-.089-.24-.213-.24-.37a.47.47 0 0 1 .098-.28.777.777 0 0 1 .31-.235.765.765 0 0 1-.358-.268.68.68 0 0 1-.11-.385.711.711 0 0 1 .736-.703c.114 0 .232.026.353.08Zm-.318.048c-.071 0-.132.04-.18.122-.05.081-.074.25-.074.505 0 .206.024.348.073.425.048.078.105.116.171.116.074 0 .135-.038.184-.114.05-.077.074-.226.074-.446 0-.248-.027-.418-.082-.508-.04-.067-.095-.1-.166-.1Zm-.109 2.163c-.125 0-.208.012-.248.035-.07.044-.105.102-.105.175 0 .071.036.135.109.193.072.057.208.086.408.086.17 0 .305-.025.402-.077.097-.051.146-.123.146-.216a.138.138 0 0 0-.027-.088.253.253 0 0 0-.15-.085c-.067-.016-.245-.023-.535-.023Zm2.114-.209-.555-1.442c-.084-.218-.146-.352-.185-.401a.31.31 0 0 0-.145-.105v-.076h.915v.076c-.06.003-.103.017-.127.04a.114.114 0 0 0-.037.085c0 .053.03.157.092.312l.294.763.201-.59c.072-.209.109-.355.109-.437a.168.168 0 0 0-.046-.123c-.03-.03-.083-.047-.159-.05v-.076h.576v.076a.207.207 0 0 0-.137.074c-.036.043-.096.186-.18.432l-.49 1.442c-.125.361-.217.584-.277.667a.38.38 0 0 1-.318.175.332.332 0 0 1-.342-.337c0-.081.022-.148.065-.2a.201.201 0 0 1 .161-.08c.062 0 .111.023.148.067.038.045.057.114.058.207.001.052.007.086.017.101.01.016.024.023.042.023.03 0 .06-.02.094-.06.05-.059.107-.192.173-.4l.053-.162Zm2.778-2.083c.149 0 .289.044.417.131a.813.813 0 0 1 .294.373c.067.16.1.337.1.529 0 .276-.061.507-.186.692a.704.704 0 0 1-.619.338.681.681 0 0 1-.598-.308 1.236 1.236 0 0 1-.21-.714c0-.279.072-.522.214-.73a.677.677 0 0 1 .588-.31Zm.007.148a.2.2 0 0 0-.16.08c-.046.054-.075.159-.089.317a7.883 7.883 0 0 0-.021.656c0 .149.009.287.025.416a.432.432 0 0 0 .087.225.196.196 0 0 0 .289.026.367.367 0 0 0 .096-.199c.024-.131.037-.398.037-.799 0-.236-.012-.398-.036-.486a.376.376 0 0 0-.103-.193.177.177 0 0 0-.125-.043Zm1.938.115v1.35c0 .13.012.213.037.246.039.051.112.075.217.071v.075h-1.014v-.075a.374.374 0 0 0 .165-.03.147.147 0 0 0 .067-.079.75.75 0 0 0 .018-.208v-1.35h-.25v-.204h.25v-.144l-.002-.098c0-.2.065-.367.194-.5.13-.133.305-.2.525-.2.152 0 .264.032.336.096.073.064.11.135.11.213a.226.226 0 0 1-.068.162.244.244 0 0 1-.18.068.203.203 0 0 1-.152-.056.175.175 0 0 1-.056-.125c0-.012.004-.037.01-.076a.265.265 0 0 0 .008-.067c0-.03-.008-.05-.022-.065a.093.093 0 0 0-.072-.03c-.035 0-.065.016-.089.05-.024.033-.036.086-.036.16l.004.364v.248h.254v.204h-.254Zm3.76-1.145v.978h-.072c-.054-.255-.154-.45-.302-.587a.718.718 0 0 0-.5-.204.683.683 0 0 0-.429.152.88.88 0 0 0-.285.398c-.077.21-.116.442-.116.699 0 .252.028.482.085.69.056.207.144.364.265.47.12.107.276.16.467.16a.827.827 0 0 0 .432-.117c.13-.078.268-.211.413-.402v.244c-.14.165-.286.285-.437.359a1.191 1.191 0 0 1-.531.111c-.266 0-.503-.06-.71-.18a1.21 1.21 0 0 1-.478-.521 1.643 1.643 0 0 1 .019-1.488c.124-.242.292-.43.503-.563.212-.133.437-.2.675-.2.175 0 .36.043.556.13.113.05.184.075.215.075a.132.132 0 0 0 .102-.05.28.28 0 0 0 .056-.154h.072Zm1.153.064v1.126a1.08 1.08 0 0 1 .26-.238.469.469 0 0 1 .245-.07.4.4 0 0 1 .277.104c.076.07.127.151.152.245.025.093.038.251.038.473v.76c0 .148.013.242.037.278.025.037.074.06.149.07v.075h-.873v-.075a.195.195 0 0 0 .139-.084c.022-.035.033-.123.033-.264v-.868c0-.16-.006-.262-.017-.303a.189.189 0 0 0-.056-.095.13.13 0 0 0-.089-.035.222.222 0 0 0-.143.057.713.713 0 0 0-.152.2v1.044c0 .14.01.226.028.26.023.048.072.077.144.088v.075h-.872v-.075c.072-.009.123-.035.154-.08.021-.03.031-.12.031-.268v-1.977c0-.148-.012-.24-.035-.275-.024-.036-.074-.06-.15-.07v-.078h.7Zm1.925-.066c.08 0 .148.031.203.094.055.064.082.14.082.228a.327.327 0 0 1-.083.227.261.261 0 0 1-.402 0 .327.327 0 0 1-.083-.227c0-.088.027-.165.083-.228a.256.256 0 0 1 .2-.094Zm.258.943v1.542c0 .137.014.225.042.263.029.038.084.06.166.066v.075h-.929v-.075c.076-.003.132-.028.169-.075.025-.032.037-.117.037-.254v-1.137c0-.137-.014-.225-.042-.263-.029-.038-.083-.06-.164-.066v-.076h.721Zm1.196 0v.251a1.04 1.04 0 0 1 .254-.236.49.49 0 0 1 .261-.074c.112 0 .204.035.278.106a.52.52 0 0 1 .147.26c.02.08.029.232.029.456v.758c0 .15.012.243.036.28.024.037.074.06.15.07v.075h-.87v-.075a.18.18 0 0 0 .14-.092c.019-.034.029-.12.029-.258v-.866c0-.16-.005-.26-.016-.302a.187.187 0 0 0-.056-.096.13.13 0 0 0-.088-.035c-.105 0-.203.085-.294.256v1.043c0 .145.012.238.036.277.024.039.068.063.133.073v.075h-.87v-.075c.072-.009.124-.035.154-.08.021-.03.032-.12.032-.27v-1.1c0-.147-.012-.237-.036-.274-.024-.036-.074-.06-.15-.07v-.077h.701Zm2.46 1.659c-.21.21-.398.314-.565.314a.31.31 0 0 1-.244-.11.391.391 0 0 1-.098-.273c0-.149.056-.282.169-.401.113-.119.359-.276.738-.473v-.196c0-.147-.007-.24-.021-.278a.217.217 0 0 0-.08-.1.22.22 0 0 0-.132-.043c-.08 0-.146.02-.198.06-.031.025-.048.054-.048.088 0 .029.018.065.052.109.047.06.07.117.07.172a.245.245 0 0 1-.067.174.23.23 0 0 1-.176.072.263.263 0 0 1-.194-.08.255.255 0 0 1-.078-.184c0-.1.035-.196.105-.287a.662.662 0 0 1 .292-.21c.125-.047.255-.072.39-.072.164 0 .292.04.388.118a.542.542 0 0 1 .184.255c.018.058.026.192.026.402v.755a.79.79 0 0 0 .01.168c.006.022.015.04.027.05.012.011.027.017.042.017.032 0 .065-.025.098-.076l.055.05a.707.707 0 0 1-.19.223.38.38 0 0 1-.224.07.325.325 0 0 1-.23-.078.371.371 0 0 1-.101-.236Zm0-.152v-.652a1.127 1.127 0 0 0-.331.316.418.418 0 0 0-.072.227c0 .064.02.12.061.169a.156.156 0 0 0 .129.056c.061 0 .132-.039.213-.116Z"/></g><defs><filter id="a" x="-13" y="0" width="154" height="157" filterUnits="userSpaceOnUse" color-interpolation-filters="sRGB"><feFlood flood-opacity="0" result="BackgroundImageFix"/><feColorMatrix in="SourceAlpha" values="0 0 0 0 0 0 0 0 0 0 0 0 0 0 0 0 0 0 127 0" result="hardAlpha"/><feOffset dy="16"/><feGaussianBlur stdDeviation="6.5"/><feColorMatrix values="0 0 0 0 0 0 0 0 0 0 0 0 0 0 0 0 0 0 0.03 0"/><feBlend in2="BackgroundImageFix" result="effect1_dropShadow_49_4698"/><feBlend in="SourceGraphic" in2="effect1_dropShadow_49_4698" result="shape"/></filter></defs></svg>