<svg width="128" height="128" fill="none" xmlns="http://www.w3.org/2000/svg"><path fill-rule="evenodd" clip-rule="evenodd" d="M43.411 71.95v-1.57h.59c.12 0 .216.015.288.047.073.032.13.08.17.147a.386.386 0 0 1 .063.207c0 .067-.018.13-.055.19a.391.391 0 0 1-.165.144.412.412 0 0 1 .22.142.382.382 0 0 1 .076.238.459.459 0 0 1-.162.352.48.48 0 0 1-.172.077 1.041 1.041 0 0 1-.254.027h-.599Zm.208-.91h.34a.763.763 0 0 0 .198-.019.22.22 0 0 0 .12-.078.227.227 0 0 0 .04-.137.252.252 0 0 0-.037-.138.19.19 0 0 0-.107-.081.901.901 0 0 0-.24-.022h-.314v.475Zm0 .725h.392a.932.932 0 0 0 .141-.007.34.34 0 0 0 .12-.043.227.227 0 0 0 .08-.088.276.276 0 0 0 .03-.132.262.262 0 0 0-.045-.153.238.238 0 0 0-.125-.09.786.786 0 0 0-.23-.027h-.363v.54ZM45.01 71.95v-1.57h1.136v.185h-.928v.48h.87v.185h-.87v.535h.965v.186h-1.172ZM46.628 71.95h.207v-1.57h-.207v1.57ZM47.218 71.505l.188-.026c.005.12.027.202.067.247.04.044.095.066.166.066a.245.245 0 0 0 .135-.036.184.184 0 0 0 .078-.097.656.656 0 0 0 .022-.197v-1.083h.208v1.071a.78.78 0 0 1-.048.306.342.342 0 0 1-.15.165.499.499 0 0 1-.244.056c-.138 0-.243-.04-.317-.119-.073-.079-.108-.197-.105-.353ZM48.579 71.95h.208v-1.57h-.208v1.57ZM49.273 71.95v-1.57h.214l.825 1.233v-1.234h.2v1.572h-.214l-.825-1.235v1.235h-.2ZM51.718 71.334v-.184l.665-.001v.583a1.175 1.175 0 0 1-.316.184.941.941 0 0 1-.755-.038.654.654 0 0 1-.285-.286.902.902 0 0 1-.097-.42c0-.153.032-.295.096-.428a.636.636 0 0 1 .276-.295.868.868 0 0 1 .415-.096c.113 0 .216.018.308.055a.505.505 0 0 1 .216.153.684.684 0 0 1 .119.258l-.188.051a.586.586 0 0 0-.088-.189.362.362 0 0 0-.15-.11.552.552 0 0 0-.216-.04.637.637 0 0 0-.247.043.458.458 0 0 0-.168.114.548.548 0 0 0-.099.156.824.824 0 0 0-.06.316c0 .14.024.257.073.351a.462.462 0 0 0 .21.21c.093.046.19.069.294.069.09 0 .178-.018.264-.052a.666.666 0 0 0 .194-.111v-.293h-.461ZM54.33 70.38h.209v.907c0 .158-.018.283-.054.376a.458.458 0 0 1-.194.227.682.682 0 0 1-.366.087.752.752 0 0 1-.362-.076.433.433 0 0 1-.2-.22 1.047 1.047 0 0 1-.06-.394v-.908h.208v.907c0 .137.013.237.038.302s.069.114.13.15a.454.454 0 0 0 .227.052c.153 0 .262-.035.327-.104.065-.07.098-.203.098-.4v-.907ZM55.005 71.95v-1.57h.213l.825 1.233v-1.234h.2v1.572h-.214l-.825-1.235v1.235h-.2ZM56.75 71.95h.208v-1.57h-.208v1.57ZM57.895 71.95l-.609-1.57h.226l.408 1.14c.033.092.06.178.082.258.025-.086.053-.171.085-.257l.424-1.142h.212l-.615 1.572h-.213ZM59.036 71.95v-1.57h1.136v.185h-.928v.48h.87v.185h-.87v.535h.965v.186h-1.173ZM60.621 71.95v-1.57h.697c.14 0 .247.014.32.042a.352.352 0 0 1 .174.149c.044.072.065.15.065.237a.394.394 0 0 1-.108.282c-.072.076-.183.125-.334.146a.525.525 0 0 1 .125.078c.06.056.118.126.173.209l.273.428h-.261l-.208-.327a2.9 2.9 0 0 0-.15-.217.46.46 0 0 0-.106-.105.316.316 0 0 0-.095-.042.662.662 0 0 0-.116-.007h-.24v.698h-.209Zm.208-.877h.447c.095 0 .17-.01.223-.03a.238.238 0 0 0 .122-.094.255.255 0 0 0 .042-.141.234.234 0 0 0-.08-.183c-.055-.048-.14-.072-.256-.072h-.498v.52ZM62.255 71.446l.196-.017c.009.078.03.143.065.193.034.05.086.091.157.122a.598.598 0 0 0 .242.047c.079 0 .149-.012.21-.035a.295.295 0 0 0 .135-.097.226.226 0 0 0 .045-.135.202.202 0 0 0-.043-.13.314.314 0 0 0-.141-.092 2.772 2.772 0 0 0-.28-.077 1.44 1.44 0 0 1-.303-.097.429.429 0 0 1-.169-.147.36.36 0 0 1-.054-.196c0-.079.022-.153.067-.222a.418.418 0 0 1 .197-.157.753.753 0 0 1 .288-.053c.117 0 .22.018.309.056.089.037.157.092.205.165a.48.48 0 0 1 .077.248l-.199.015a.323.323 0 0 0-.11-.225c-.06-.05-.152-.076-.273-.076-.126 0-.217.023-.275.069a.207.207 0 0 0-.086.166c0 .057.02.104.06.14.041.036.145.074.314.112.17.038.285.072.348.1a.48.48 0 0 1 .203.16.425.425 0 0 1-.007.46.475.475 0 0 1-.206.173.72.72 0 0 1-.302.061.899.899 0 0 1-.358-.062.5.5 0 0 1-.226-.187.529.529 0 0 1-.086-.282ZM63.947 71.95h.208v-1.57h-.208v1.57ZM65.043 71.95v-1.385h-.517v-.186h1.245v.186h-.52v1.386h-.208ZM66.549 71.95v-.665l-.606-.906h.253l.31.474c.057.089.11.177.16.266.047-.082.104-.175.171-.278l.305-.462h.242l-.627.906v.666h-.208ZM68.077 71.185c0-.26.07-.465.21-.612a.715.715 0 0 1 .543-.221c.144 0 .275.034.392.103.116.07.205.166.266.29a.941.941 0 0 1 .092.422c0 .16-.032.302-.097.428a.659.659 0 0 1-.273.285.781.781 0 0 1-.382.097.739.739 0 0 1-.396-.107.686.686 0 0 1-.265-.293.884.884 0 0 1-.09-.392Zm.214.004c0 .19.051.338.153.447.102.109.23.163.383.163a.5.5 0 0 0 .387-.165c.1-.11.152-.266.152-.468a.807.807 0 0 0-.066-.335.498.498 0 0 0-.47-.3.53.53 0 0 0-.38.151c-.106.101-.159.27-.159.507ZM69.98 71.95v-1.57h1.06v.185h-.852v.486h.738v.186h-.737v.714h-.209ZM71.92 71.95v-1.57h.593c.105 0 .184.004.24.014a.472.472 0 0 1 .193.074.387.387 0 0 1 .126.151.481.481 0 0 1 .048.215.484.484 0 0 1-.127.34c-.086.091-.24.138-.462.138h-.403v.639h-.207Zm.208-.824h.407c.134 0 .23-.025.286-.075a.268.268 0 0 0 .084-.21.283.283 0 0 0-.05-.17.233.233 0 0 0-.13-.092.903.903 0 0 0-.194-.014h-.403v.561ZM73.443 71.185c0-.26.07-.465.21-.612a.715.715 0 0 1 .543-.221c.145 0 .276.034.392.103.116.07.205.166.267.29a.94.94 0 0 1 .091.422c0 .16-.032.302-.096.428a.66.66 0 0 1-.274.285.782.782 0 0 1-.381.097.74.74 0 0 1-.397-.107.686.686 0 0 1-.265-.293.884.884 0 0 1-.09-.392Zm.215.004c0 .19.05.338.152.447.102.109.23.163.384.163a.5.5 0 0 0 .386-.165c.101-.11.152-.266.152-.468a.807.807 0 0 0-.065-.335.499.499 0 0 0-.47-.3.531.531 0 0 0-.38.151c-.106.101-.16.27-.16.507ZM75.265 71.446l.196-.017c.01.078.031.143.065.193.034.05.087.091.158.122a.597.597 0 0 0 .241.047.58.58 0 0 0 .21-.035.295.295 0 0 0 .136-.097.226.226 0 0 0 .044-.135.202.202 0 0 0-.043-.13.314.314 0 0 0-.14-.092 2.772 2.772 0 0 0-.28-.077 1.44 1.44 0 0 1-.304-.097.43.43 0 0 1-.168-.147.36.36 0 0 1-.055-.196c0-.079.022-.153.067-.222a.418.418 0 0 1 .198-.157.753.753 0 0 1 .288-.053c.117 0 .22.018.308.056.09.037.158.092.206.165a.48.48 0 0 1 .077.248l-.2.015a.322.322 0 0 0-.109-.225c-.061-.05-.153-.076-.273-.076-.126 0-.218.023-.275.069a.207.207 0 0 0-.087.166c0 .057.02.104.061.14.04.036.145.074.314.112.169.038.285.072.348.1.091.042.159.096.203.16a.425.425 0 0 1-.007.46.475.475 0 0 1-.206.173.72.72 0 0 1-.303.061.899.899 0 0 1-.357-.062.5.5 0 0 1-.227-.187.529.529 0 0 1-.086-.282ZM77.322 71.95v-1.385h-.518v-.186h1.246v.186h-.52v1.386h-.208ZM78.314 71.446l.197-.017a.43.43 0 0 0 .064.193c.034.05.087.091.158.122a.598.598 0 0 0 .241.047c.08 0 .15-.012.21-.035a.296.296 0 0 0 .136-.097.228.228 0 0 0 .045-.135.204.204 0 0 0-.043-.13.315.315 0 0 0-.142-.092 2.765 2.765 0 0 0-.28-.077 1.451 1.451 0 0 1-.303-.097.428.428 0 0 1-.168-.147.36.36 0 0 1-.055-.196c0-.079.023-.153.068-.222a.418.418 0 0 1 .197-.157.752.752 0 0 1 .288-.053c.117 0 .22.018.308.056a.443.443 0 0 1 .283.413l-.2.015a.323.323 0 0 0-.108-.225c-.062-.05-.153-.076-.274-.076-.126 0-.217.023-.275.069a.208.208 0 0 0-.087.166c0 .057.02.104.062.14.04.036.144.074.313.112.17.038.285.072.348.1.091.042.16.096.203.16a.427.427 0 0 1-.006.46.476.476 0 0 1-.207.173.719.719 0 0 1-.303.061.901.901 0 0 1-.357-.062.502.502 0 0 1-.227-.187.53.53 0 0 1-.086-.282ZM80.775 71.95l.603-1.57h.224l.644 1.57h-.237l-.184-.475h-.657l-.172.476h-.221Zm.453-.645h.533l-.164-.435a4.372 4.372 0 0 1-.111-.326 2 2 0 0 1-.085.3l-.173.461ZM82.531 71.95v-1.57h.214l.825 1.233v-1.234h.2v1.572h-.214l-.825-1.235v1.235h-.2ZM84.24 71.95v-1.57h.542c.122 0 .215.007.28.022.09.02.167.058.23.112.083.07.145.16.186.269.041.109.062.233.062.373 0 .12-.014.225-.042.318a.758.758 0 0 1-.107.229.56.56 0 0 1-.143.142.582.582 0 0 1-.188.079 1.073 1.073 0 0 1-.252.027h-.567Zm.209-.185h.335c.104 0 .185-.01.244-.029a.35.35 0 0 0 .141-.081.493.493 0 0 0 .115-.2.978.978 0 0 0 .041-.302.733.733 0 0 0-.08-.379.407.407 0 0 0-.197-.177.807.807 0 0 0-.27-.032h-.33v1.2ZM86.796 71.95v-1.385h-.517v-.186h1.245v.186h-.52v1.386h-.208ZM87.864 71.95v-1.57h1.135v.185h-.927v.48h.869v.185h-.87v.535h.965v.186h-1.172ZM89.436 71.95v-1.57h.209v1.385h.774v.186h-.983ZM90.793 71.95v-1.57h1.135v.185H91v.48h.87v.185H91v.535h.965v.186h-1.172ZM93.495 71.4l.208.052a.702.702 0 0 1-.235.391.649.649 0 0 1-.415.134.746.746 0 0 1-.413-.103.645.645 0 0 1-.243-.3 1.076 1.076 0 0 1-.083-.42c0-.164.032-.307.094-.429a.64.64 0 0 1 .267-.278.778.778 0 0 1 .38-.094c.158 0 .29.04.398.12.107.08.181.192.223.337l-.204.049a.486.486 0 0 0-.159-.25.42.42 0 0 0-.262-.079.507.507 0 0 0-.302.087.456.456 0 0 0-.17.233.933.933 0 0 0-.05.302c0 .134.02.25.058.35.039.1.1.174.182.224.082.05.17.073.267.073a.449.449 0 0 0 .295-.1.516.516 0 0 0 .164-.3ZM94.018 71.185c0-.26.07-.465.21-.612a.715.715 0 0 1 .543-.221c.145 0 .276.034.392.103a.68.68 0 0 1 .266.29.941.941 0 0 1 .092.422c0 .16-.032.302-.096.428a.66.66 0 0 1-.274.285.782.782 0 0 1-.381.097.74.74 0 0 1-.397-.107.686.686 0 0 1-.265-.293.884.884 0 0 1-.09-.392Zm.215.004c0 .19.05.338.152.447.102.109.23.163.384.163a.5.5 0 0 0 .386-.165c.101-.11.152-.266.152-.468a.806.806 0 0 0-.065-.335.498.498 0 0 0-.47-.3.531.531 0 0 0-.38.151c-.106.101-.16.27-.16.507ZM95.904 71.95v-1.57h.313l.372 1.112c.035.103.06.181.075.233.018-.058.046-.142.084-.253l.376-1.093h.28v1.572h-.2v-1.316l-.457 1.316h-.188l-.454-1.338v1.338h-.2ZM97.855 71.95v-1.57h.313l.372 1.112c.034.103.06.181.075.233.018-.058.045-.142.083-.253l.377-1.093h.28v1.572h-.201v-1.316l-.457 1.316h-.188l-.454-1.338v1.338h-.2ZM100.843 70.38h.208v.907c0 .158-.018.283-.054.376a.46.46 0 0 1-.193.227.685.685 0 0 1-.367.087.75.75 0 0 1-.361-.076.43.43 0 0 1-.2-.22 1.043 1.043 0 0 1-.06-.394v-.908h.207v.907a.89.89 0 0 0 .038.302.287.287 0 0 0 .131.15.453.453 0 0 0 .227.052c.152 0 .261-.035.326-.104.065-.07.098-.203.098-.4v-.907ZM101.517 71.95v-1.57h.213l.825 1.233v-1.234h.2v1.572h-.214l-.825-1.235v1.235h-.199ZM103.262 71.95h.208v-1.57h-.208v1.57ZM105.079 71.4l.208.052a.7.7 0 0 1-.235.391.648.648 0 0 1-.415.134.744.744 0 0 1-.413-.103.641.641 0 0 1-.243-.3 1.078 1.078 0 0 1-.083-.42.92.92 0 0 1 .094-.429.637.637 0 0 1 .267-.278.777.777 0 0 1 .381-.094c.157 0 .289.04.396.12.108.08.182.192.224.337l-.204.049a.486.486 0 0 0-.159-.25.42.42 0 0 0-.262-.079.507.507 0 0 0-.302.087.46.46 0 0 0-.171.233.933.933 0 0 0-.049.302c0 .134.019.25.058.35.039.1.099.174.182.224.082.05.171.073.267.073a.446.446 0 0 0 .295-.1.513.513 0 0 0 .164-.3ZM105.493 71.95l.603-1.57h.224l.643 1.57h-.237l-.183-.475h-.657l-.172.476h-.221Zm.453-.645h.533l-.164-.435a4.635 4.635 0 0 1-.112-.326c-.02.101-.048.201-.084.3l-.173.461ZM107.489 71.95v-1.385h-.518v-.186h1.245v.186h-.52v1.386h-.207ZM108.587 71.95h.208v-1.57h-.208v1.57ZM109.22 71.185c0-.26.07-.465.21-.612a.715.715 0 0 1 .543-.221c.145 0 .276.034.392.103.116.07.205.166.266.29a.941.941 0 0 1 .092.422c0 .16-.032.302-.097.428a.656.656 0 0 1-.273.285.78.78 0 0 1-.381.097.738.738 0 0 1-.397-.107.686.686 0 0 1-.265-.293.885.885 0 0 1-.09-.392Zm.215.004c0 .19.05.338.152.447.102.109.23.163.384.163a.501.501 0 0 0 .386-.165c.101-.11.152-.266.152-.468a.809.809 0 0 0-.065-.335.506.506 0 0 0-.47-.3.53.53 0 0 0-.38.151c-.106.101-.159.27-.159.507ZM111.11 71.95v-1.57h.214l.825 1.233v-1.234h.2v1.572h-.214l-.825-1.235v1.235h-.2ZM112.749 71.446l.196-.017c.01.078.031.143.065.193.034.05.087.091.158.122a.6.6 0 0 0 .241.047c.08 0 .15-.012.21-.035a.296.296 0 0 0 .136-.097.224.224 0 0 0 .045-.135.202.202 0 0 0-.043-.13.317.317 0 0 0-.142-.092 2.709 2.709 0 0 0-.28-.077 1.445 1.445 0 0 1-.303-.097.428.428 0 0 1-.168-.147.365.365 0 0 1-.055-.196.414.414 0 0 1 .265-.38.752.752 0 0 1 .288-.052c.117 0 .219.018.308.056a.44.44 0 0 1 .206.165.488.488 0 0 1 .077.248l-.199.015a.322.322 0 0 0-.109-.225c-.062-.05-.153-.076-.274-.076-.126 0-.217.023-.275.069a.206.206 0 0 0-.086.166c0 .057.02.104.061.14.04.036.144.074.313.112.169.038.285.072.348.1a.487.487 0 0 1 .203.16.426.426 0 0 1-.007.46.478.478 0 0 1-.206.173.723.723 0 0 1-.303.061.9.9 0 0 1-.357-.062.5.5 0 0 1-.227-.187.537.537 0 0 1-.086-.282ZM46.526 61.874s.762-2.698.072-2.747c-.69-.05-1.134.64-.937 1.774.197 1.134.099.64.099.64s-1.824.198-1.824.69c0 .494.592.642 1.43.346.837-.296 0 1.232 0 1.528 0 .295-1.38 1.38-1.824 1.429-.444.05-.099 1.232 1.33.345 1.43-.887 3.894-2.316 3.894-2.316s0 1.33.838 1.774c.838.443-1.133.591-.788.936.345.345 1.823.099 2.612-.837.788-.937-.986-.937-1.528-1.282s.099-2.218 1.971-2.169c1.873.05.148-1.133-1.478-.837 0 0 .295-3.155-.74-3.204-1.035-.05-1.528-.394-.887.887.64 1.282.148 3.302.148 3.302s-2.02 1.479-2.464 1.627c-.444.148.076-1.886.076-1.886ZM58.562 58.675c-.107.054.484-1.183.108-1.451-.377-.27 2.741-.323 2.257.59-.484.915-2.258.807-2.365.86Zm-4.085 2.956c.43-.215 6.934-3.547 9.568-3.117 0 0 .806.806-1.183 1.236-1.989.43-8.063 3.117-8.063 3.117s-.752-1.02-.322-1.236Zm4.627 2.683s-1.775-.197-1.025-1.46c.609-1.025 2.207-2.259 3.102-1.733.6.352.516.64.231 1.089-.25.395-.627.94-.848 1.039l-.198 1.34s2.525-.236 2.09 1.381c0 0-1.064.592-1.577-.236 0 0-.513-.67-.592-.474-.078.197.277 2.564-1.222 1.38 0 0-1.026-1.143-.118-.788l.157-1.538Zm.898-2.488s-1.22.85-.296.925c0 0 .444.11.74-.666.295-.777-.444-.259-.444-.259Zm-1.627 3.587c.037-.074-.666.407-1.073.407-.407 0-1.442-.074-.961.629.48.702 1.442.96 1.738.443.296-.517.259-1.405.296-1.479ZM67.439 58.659l1.879-2.193c.209-.243 2.019.105 1.149.836-.87.73-1.184.73-1.184.73l.117.328s2.25-.78 1.554.508l-1.392.835s-.522.627.452.313c.975-.313 2.088-.209 1.184.87-.905 1.08-.905.8-.905.8s-.279.419.87.419c1.148 0-.105.94-1.218 1.009l-.174.592s.23.009.488.029c.737.057.979.21.165.724-.84.53-2.418.497-2.463.325-.056-.21-.209-.278.626-.522.835-.243.209-.522-.139-.452-.162.032-.383.154-.574.276-.356.227-.309.38-.64.128-.17-.13-.321-.307-.039-.404.475-.163 1.01-.557 1.01-.557s-.244-1.01-.697-.696c-.452.313-2.158.452-1.253-.313.905-.766 1.67-1.601 1.67-1.601s-.73-.557-.103-.836c.626-.278.73-.452.73-.452l.035-.87-1.148.174Zm1.126 2.263c.456-.066.295-.266.236-.531-.041-.188-.866.622-.236.531Zm3.861-1.507c.663-.522 1.943-1.338 2.651-.544.986 1.104-.986 2.17-.986 2.17s2.17 1.932-1.262 3.549c0 0 .04 4.733-.394 4.811-.373.068-.717-.505-.78-3.446a52.111 52.111 0 0 1 .076-4.414c.027-.42.057-.74.087-.985.091-.731.09-.733.608-1.141Zm1.378.944s-.181.427-.48.526c-.3.098 1.326 1.347.707 2.037-.618.69-1.48.887-1.48.887l.007-2.957c.003-1.203 1.671-1.612 1.246-.493ZM80.875 57.333s.197-1.223 1.38-.158c1.184 1.065-.867 1.104-.867 1.104L79.1 60.015s-.513 1.025 1.657-.119c2.169-1.143 1.46-1.38 4.14-.986 0 0 2.091 1.184-.67 2.209 0 0-1.025.118.237-.789s-1.144-1.222-1.538-.907c-.345.276-.871.401.033.798.498.219.721.244.513.958-.094.324-.34.758-.901 1.32 0 0-.905.436.591.535.475.031.589-.016.699.573.09.489-.115 1.218-1.684 1.85 0 0-.789 1.577 1.972 1.212.204-.026.805-.115.548.34-.332.586-3.23.36-3.23-1.039l-1.636-.003c-1.728-.004-.61-1.578.216-2.679-2.317.193.53-2.688.824-2.452.55.443-.017.593-.337.853-.483.39-.97.939-.132 1.087 1.15.202.853.145.902-.606l.06-.91c.041-.634.38-1.046-.38-.956-.508.06-1.34.304-1.884 1.21-.828 1.38-.4.991-.513 1.104-.112.112-.746.541-.67-1.262.025-.586 1.307-2.23 2.166-2.957.794-.672.734.16.792-1.066Zm.164 6.868c.136-.624-.893-.23-.893.522s.748.553 1.208.43c1.245-.332-.513-.045-.315-.952Zm1.157.41c-.067-.007 0-1.607.878-.963.995.727-.525.995-.878.962ZM89.659 60.458l1.553-.333s.164-2.182-.058-2.44c-.221-.26 1.715-.128 1.707.682-.009.81-.244.686-.466.723-.222.037 0 .74 0 .74s1.405-.703 1.405.11c0 .814-1.257.407-1.812.888-.416.36-.501.651-.148.866.413.251.508-.098 1.053.492.759.822 2.215 2.516 3.718 2.426 0 0-1.282 1.516-3.255-.345-.462-.436-.548-.821-.821-1.121L91.397 61.9s-2.404 3.106-3.329 3.18c-.924.074 2.071-1.812 2.441-3.365 0 0 .407-.555-.222-.518-.814.161-.925-.702-.628-.74ZM102.159 59.538s-.295 1.708-1.15.952c0 0-.493-.328-.657.46-.164.789-1.38.493-1.282-.887.1-1.38.56-2.858 1.414-2.07 0 0 .328 1.183.558.164.23-1.018.854-1.412.92-.295.066 1.117.822 1.281.854.033.033-1.249-.23-1.709.23-1.84.46-.132.427.164.46.492.033.33.986-.36 1.019.23.033.592-.526.69-.789.756 0 0-.277.362-.079.418.197.056 1.239-.422.76.282-.479.704-.648.281-.845.478-.197.198.789.282.789.873 0 .592-.282.902-.282.902s1.718-.17 1.943.281c.226.451.169 1.55-1.436 1.521-1.605-.028-.422-.366-.225-.479.197-.112.253-.563-.845-.281-1.099.281-2.479 1.098-3.014 1.21-.535.113-1.183-.478-.76-.731.422-.254 2.619-.76 2.985-.93.366-.169 1.183-1.042 0-1.577-.04-.018-.485-.005-.568.038Zm-2.98 2.271c-.141-.084-1.718 1.07-1.183 2.394.167.414.38.254.59.236.457-.038.888-.574.733-1.193-.225-.902 0-1.352-.14-1.437Zm2.816 2.338s.394-.901-.704-.873c-1.099.028 0-.676.873-.845.873-.169 1.69-.676 1.493.422 0 0 .084.395-.564.733l.029.507s2.027-.535 1.633.197c-.394.732-.76.76-1.324.732 0 0 .028 2.14-.929 2.478-.958.338-1.718-.112-1.521-.62.197-.506.197-.563.845-.365.648.197.338-.845.31-1.155-.028-.31-1.042.14-1.437.563-.394.423-2.337-.45-1.07-.817 1.267-.366 2.366-.957 2.366-.957ZM38.721 64c0-6.826-5.534-12.36-12.36-12.36C19.533 51.64 14 57.173 14 64s5.534 12.36 12.36 12.36c6.827 0 12.361-5.534 12.361-12.36Zm-.334 0c0-6.642-5.385-12.026-12.027-12.026-6.642 0-12.026 5.384-12.026 12.026 0 6.642 5.384 12.026 12.026 12.026 6.642 0 12.027-5.384 12.027-12.026Z" fill="#013A89"/><path fill-rule="evenodd" clip-rule="evenodd" d="M35.948 64a9.588 9.588 0 1 0-19.175 0 9.588 9.588 0 0 0 19.175 0Zm-.133 0a9.454 9.454 0 1 0-18.908 0 9.454 9.454 0 0 0 18.908 0Z" fill="#013A89"/><path fill-rule="evenodd" clip-rule="evenodd" d="M16.844 64.13s.035.148.028.254h13.352s-1.4-2.998-1.576-3.35c-.065-.13-.05-.247.169-.099.218.148.668.458 1.351 1.922 0 0 .598-.268.732-.324.134-.056.134-.113.021-.31-.238-.416-.43-.792-.697-1.206-.197-.306-.473-.549-.816-.856-.073-.065-.148-.106.246-.387 0 0 .161.138.42.377.202.187.37.34.586.63.24.323.53.806.861 1.46 0 0 .824-.375.977-.47 0 0 .026-.099-.038-.27-.092-.24-.3-.607-.475-.907-.314-.54-.492-.79-1.51-1.721-.16-.147-.041-.227.059-.354.1-.126.206-.248.422-.047.105.097.448.33.891.893.47.594 1.074 1.751 1.59 3.113l1.405-.311s-.36-2.148-1.98-3.938c-.136-.15-1.232-1.446-3.148-2.256-.956-.405-2.155-.653-3.466-.648-.824.004-3.263.096-5.443 1.98-.051.076-.09.132.085.174.13.032 1.576.345 2.819 1.615.269.275.407.42.596.772.421.785.494 1.086.612 1.599.057.244.159 1.362-.908 1.884-.214.106-1.034.597-2.29.254-.694-.142-1.336-.496-1.98-.48-.644.015-.987.1-1.89.765-.145.107-.398.359-1.005.243Zm3.732 6.287 1.073-1.105s1.848 1.77 4.697 1.75c.912-.007 1.946-.155 2.87-.692 0 0-.387-.846-.418-.934 0 0 .464-.237.542-.279.077-.041.144-.036.211.114s.279.686.439.81c0 0 .635-.406 1.288-1.014.786-.732 1.646-1.818 2.072-3.636.075-.32.248-1.244.175-2.111l1.503-.114s.028 1.629-.408 3.216c-.089.321-.31.8-.542 1.264-.257.514-.53 1.011-.749 1.301-.19.253-1.285 2.044-3.819 2.994-.254.095-3.948 1.502-7.463-.511-.272-.156-.924-.532-1.471-1.053Zm7.585-2.253.3.633.654-.312-.291-.625-.663.304Zm-.503-.997.3.633.663-.3-.304-.637-.659.304Zm-.503-1.022.288.62.654-.307-.295-.613-.646.3Zm-7.185 5.132-1.372 1.471-.228-.217a.267.267 0 0 1-.076-.108.277.277 0 0 1-.007-.119.508.508 0 0 1 .055-.157 1.103 1.103 0 0 1 .264-.318c.075-.059.131-.09.17-.094l.078-.015a.55.55 0 0 1 .096-.305 1.329 1.329 0 0 1 .335-.354c.06-.041.11-.068.151-.081a.329.329 0 0 1 .12-.017c.038.002.07.011.096.027a.496.496 0 0 1 .088.07l.23.217Zm-.721.575.438-.47-.114-.108a.844.844 0 0 0-.084-.074c-.015-.01-.038-.014-.07-.013a.23.23 0 0 0-.107.039.542.542 0 0 0-.112.091.92.92 0 0 0-.093.114.428.428 0 0 0-.06.136c-.01.04-.008.068.004.084.012.017.03.038.053.063l.145.138Zm-.18.194-.128-.122a.215.215 0 0 0-.069-.046.114.114 0 0 0-.077.002.318.318 0 0 0-.098.056.729.729 0 0 0-.173.193.241.241 0 0 0-.034.083.127.127 0 0 0 .004.069c.007.019.022.041.047.067l.13.124.397-.426Zm-1.03-1.039.2-.178.267.303.496-.442-.295-.334.199-.178.39.442-1.514 1.348-.387-.44.195-.174.293.333.423-.377-.266-.303Zm.525-1.27.083.111-1.609 1.217-.083-.11 1.609-1.218Zm-1-.36-1.188.757-.075-.119 1.22-.776c.044-.028.093-.057.147-.086a.86.86 0 0 1 .165-.068.5.5 0 0 1 .147-.022.293.293 0 0 1 .121.03c.039.02.068.048.087.085.027.05.032.102.015.154a.542.542 0 0 1-.08.155.674.674 0 0 1-.157.149l-.115.086-.076-.115.089-.066a.448.448 0 0 0 .071-.066.221.221 0 0 0 .042-.084.103.103 0 0 0-.009-.086.087.087 0 0 0-.053-.042.185.185 0 0 0-.085-.006.455.455 0 0 0-.116.038c-.045.02-.095.048-.15.083Zm.16-.98.065.125-1.783.94-.065-.126 1.783-.94Zm-1.64.12 1.409-.596.053.125-1.865.788-.05-.126 1.176-1.005-1.363.576-.054-.127 1.865-.787.051.12-1.223 1.032Zm-.521-1.721.04.138c-.04.02-.08.042-.122.065a.32.32 0 0 0-.105.093.157.157 0 0 0 .02.21c.022.023.058.04.108.052.05.012.112.017.186.016.074 0 .147-.007.218-.02.071-.011.146-.029.222-.05.077-.022.137-.04.18-.056.078-.026.155-.059.23-.097a.645.645 0 0 0 .176-.125.277.277 0 0 0 .075-.122.212.212 0 0 0 .003-.091.96.96 0 0 0-.02-.076l-.04-.127-.466.14.052.163-.273.081-.093-.295.996-.297.063.199a.963.963 0 0 1 .035.155.328.328 0 0 1-.027.17.47.47 0 0 1-.128.172.95.95 0 0 1-.203.138 1.982 1.982 0 0 1-.232.101 3.91 3.91 0 0 1-.604.164 1.277 1.277 0 0 1-.514-.003.407.407 0 0 1-.149-.068.245.245 0 0 1-.077-.292.39.39 0 0 1 .088-.127.993.993 0 0 1 .272-.174l.088-.037Zm-.905-1.975-.015-.135 1.335-.126a1.68 1.68 0 0 1 .371.01c.068.01.128.027.181.053a.376.376 0 0 1 .133.106.253.253 0 0 1 .06.142.221.221 0 0 1-.036.149.46.46 0 0 1-.119.122.664.664 0 0 1-.154.084c-.054.02-.111.035-.172.046-.06.01-.132.02-.213.027l-1.305.123-.015-.136 1.282-.12c.099-.01.177-.022.234-.037a.369.369 0 0 0 .14-.065.197.197 0 0 0 .069-.092.216.216 0 0 0 .007-.102.16.16 0 0 0-.04-.097.231.231 0 0 0-.094-.055.577.577 0 0 0-.155-.023c-.065-.003-.141 0-.23.007l-1.264.12Zm.477-.728 1.541.017-.002.137-2.04-.021.006-.138 1.496-.457-1.49-.016.002-.14 2.04.023-.003.131-1.55.464Zm1.586-1.146-.013.14-2.014-.197.013-.14 2.014.197Zm.1-.725-2.051-.02.027-.15 1.556.026-1.443-.56.03-.147 1.9.752-.02.099ZM16 60.648l.256.078-.111.373.638.194.124-.414.256.078-.163.545-1.947-.589.162-.542.251.076-.123.41.545.165.112-.373Zm1.306-.095-.053.128-1.869-.757.13-.314a.247.247 0 0 1 .077-.1.26.26 0 0 1 .125-.053.52.52 0 0 1 .174.01c.067.013.144.038.228.073.087.037.154.073.2.106a.702.702 0 0 1 .11.094l.048.05.066.002c.021 0 .049.004.083.01.033.007.09.023.172.049l.707.223-.053.128-.688-.222a.561.561 0 0 0-.128-.025c-.042-.002-.072.002-.09.013a.141.141 0 0 0-.05.069l-.066.161.877.355Zm-1.64-.664.516.209.07-.17a.161.161 0 0 0 .01-.086.16.16 0 0 0-.058-.091.508.508 0 0 0-.15-.086.692.692 0 0 0-.099-.029.273.273 0 0 0-.095-.004.163.163 0 0 0-.13.101l-.065.156Zm1.421-.302.06-.125.082.032a.65.65 0 0 0 .09.024c.032.007.06.008.086.006a.174.174 0 0 0 .13-.084.199.199 0 0 0 .027-.061.14.14 0 0 0 .01-.065.193.193 0 0 0-.017-.066.198.198 0 0 0-.055-.066.575.575 0 0 0-.103-.068 1.214 1.214 0 0 0-.105-.05.412.412 0 0 0-.106-.022.22.22 0 0 0-.116.033 2.485 2.485 0 0 0-.146.088.673.673 0 0 1-.14.072.382.382 0 0 1-.148.014.806.806 0 0 1-.194-.04 1.044 1.044 0 0 1-.24-.12.762.762 0 0 1-.144-.108.547.547 0 0 1-.078-.102.437.437 0 0 1-.043-.101.24.24 0 0 1-.007-.097.336.336 0 0 1 .02-.081.205.205 0 0 1 .107-.115.422.422 0 0 1 .147-.032.792.792 0 0 1 .283.048l.072.028-.058.123-.064-.022a.486.486 0 0 0-.078-.018.233.233 0 0 0-.094.002.113.113 0 0 0-.068.04.315.315 0 0 0-.035.056.193.193 0 0 0-.01.103c.005.031.018.06.036.087a.405.405 0 0 0 .162.132c.043.02.082.034.12.04.036.005.069.006.098.003a.288.288 0 0 0 .085-.024c.027-.013.064-.033.11-.06.046-.029.091-.054.136-.077a.394.394 0 0 1 .132-.042.414.414 0 0 1 .145.011 1.13 1.13 0 0 1 .473.243.588.588 0 0 1 .112.141.315.315 0 0 1 .043.134.243.243 0 0 1-.024.119.25.25 0 0 1-.08.107.289.289 0 0 1-.117.052.495.495 0 0 1-.138.01.85.85 0 0 1-.281-.07l-.076-.032Zm1.133-.823-.075.118-1.716-1.086.074-.118 1.717 1.086Zm-1.21-1.387-.206-.156.22-.29.22-.29.205.155-.185.245c.23.174.461.348.69.525.233.18.47.36.71.539l-.081.112c-.24-.18-.478-.361-.712-.54l-.692-.524-.17.224Zm2.333-.041-.098.104-.682-.641-1.048-.482.109-.116.789.358-.424-.746.112-.118.57 1.007.672.634Zm2.953-4.305.297-.103a.252.252 0 0 1 .114-.01c.04.004.08.027.12.069.04.041.074.087.102.138a1.554 1.554 0 0 1 .117.263c.03.092.05.171.058.238a.633.633 0 0 1-.004.19.28.28 0 0 1-.06.138.251.251 0 0 1-.108.071l-.138.048.278.817-.128.044-.648-1.903Zm.41.781.136-.047a.168.168 0 0 0 .073-.045.157.157 0 0 0 .034-.073.292.292 0 0 0 0-.099.742.742 0 0 0-.1-.275.26.26 0 0 0-.075-.08.084.084 0 0 0-.076-.01l-.185.064.192.565Zm1.018-1.225c.068-.013.144.016.23.085.084.069.165.182.24.338a2.283 2.283 0 0 1 .227 1.006 1.008 1.008 0 0 1-.071.392c-.045.1-.105.155-.18.167-.073.013-.152-.018-.236-.093a1.083 1.083 0 0 1-.235-.335 2.204 2.204 0 0 1-.168-.486 2.215 2.215 0 0 1-.056-.513.928.928 0 0 1 .075-.398c.049-.095.107-.15.174-.163Zm.06.264c-.045.01-.082.049-.115.117a.677.677 0 0 0-.047.29 1.872 1.872 0 0 0 .164.737c.05.11.105.193.164.25.06.056.113.08.163.071.05-.007.09-.047.119-.12a.78.78 0 0 0 .044-.287c0-.117-.015-.242-.045-.375-.03-.128-.07-.25-.124-.366a.735.735 0 0 0-.168-.252c-.06-.051-.111-.073-.156-.065Zm1.935-.29-.008-.263h.721l.009.263h-.304l.054 1.774h-.14l-.054-1.774h-.278Zm3.765.154.116.03c-.018.345-.032.69-.055 1.035-.022.345-.057.69-.082 1.034a13.596 13.596 0 0 1-.144-.04c.005-.09.01-.182.017-.272l.02-.273-.196-.053a10.347 10.347 0 0 1-.197-.053c-.08.16-.158.317-.234.473a7.054 7.054 0 0 0-.136-.043c.143-.3.292-.599.441-.905.151-.31.3-.622.45-.933Zm-.102 1.258c.011-.14.021-.28.03-.421.01-.14.018-.281.027-.422l-.185.38-.185.38.157.042.156.041Zm1.02-.451-.574 1.407-.125-.051.759-1.862.124.054-.123 1.533.555-1.36.126.05-.759 1.862-.12-.048.137-1.585Zm.219 1.74.946-1.776.217.116a.503.503 0 0 1 .206.22.409.409 0 0 1 .035.192 1.06 1.06 0 0 1-.03.217 1.613 1.613 0 0 1-.078.228 3.774 3.774 0 0 1-.287.546c-.07.106-.138.192-.203.26a.746.746 0 0 1-.174.143.357.357 0 0 1-.27.034.784.784 0 0 1-.137-.06l-.225-.12Zm.95-1.495-.715 1.34.084.046a.45.45 0 0 0 .163.054c.05.005.1-.005.154-.03.053-.026.1-.06.142-.102.04-.042.084-.1.129-.17.045-.072.094-.157.147-.256.054-.098.093-.182.118-.252a.883.883 0 0 0 .047-.186.433.433 0 0 0-.054-.275.379.379 0 0 0-.13-.124l-.086-.045Zm1.82 1.133.169-.21.276.23c.09.075.18.152.27.229l-.17.208-.228-.193c-.188.234-.372.47-.558.701-.185.231-.375.453-.561.67l-.106-.093c.188-.216.378-.437.563-.666.186-.231.37-.466.557-.7l-.212-.176Zm.852 1.53-.189.19-.28-.281-.47.475.31.312-.188.19-.41-.41 1.433-1.451.407.41-.185.186-.308-.31-.4.407.28.282Zm-.614 1.086 1.545-1.298.091.107-1.338 1.125.305.356-.206.173-.397-.463Zm1.852.437-.22.155-.234-.323-.548.386.26.357-.22.155-.343-.472 1.672-1.177.34.47-.215.152-.258-.356-.468.33.235.323Zm.866.883-.073-.121c.02-.015.043-.03.066-.048a.31.31 0 0 0 .067-.068.21.21 0 0 0 .039-.096.177.177 0 0 0-.016-.104.181.181 0 0 0-.125-.092.494.494 0 0 0-.198.003 1.087 1.087 0 0 0-.228.072 2.713 2.713 0 0 0-.261.134c-.1.057-.184.108-.25.154a1.017 1.017 0 0 0-.174.15.413.413 0 0 0-.097.168.194.194 0 0 0 .019.156c.022.04.057.067.106.08.05.015.088.015.117.002l.174-.069.074.122-.094.046a1.367 1.367 0 0 1-.145.061.507.507 0 0 1-.373-.012.252.252 0 0 1-.107-.11.288.288 0 0 1-.03-.174.455.455 0 0 1 .092-.215 1.1 1.1 0 0 1 .214-.215 2.82 2.82 0 0 1 .44-.287c.102-.057.198-.104.289-.142.09-.039.182-.067.274-.084a.944.944 0 0 1 .237-.018.353.353 0 0 1 .281.17c.035.07.04.135.014.196a.562.562 0 0 1-.11.169.785.785 0 0 1-.154.129l-.068.043Zm.861.528c.029.064.019.143-.03.238a.932.932 0 0 1-.282.296 2.27 2.27 0 0 1-.953.412c-.162.028-.299.03-.409.007-.11-.024-.18-.071-.21-.14-.03-.07-.018-.151.037-.247.056-.095.15-.192.28-.29.131-.098.28-.183.447-.255a2.28 2.28 0 0 1 .5-.152.997.997 0 0 1 .416-.004c.106.028.174.073.204.135Zm-.25.108c-.02-.04-.069-.07-.145-.087a.725.725 0 0 0-.3.01 1.935 1.935 0 0 0-.373.118 1.644 1.644 0 0 0-.326.182.782.782 0 0 0-.211.206c-.043.067-.054.124-.034.17.02.047.069.077.15.091.081.015.18.01.297-.012a1.916 1.916 0 0 0 .702-.305.699.699 0 0 0 .212-.21c.037-.067.047-.121.028-.163Zm.577.76.05.163-1.465.78 1.657-.136.049.163-1.963.568-.036-.129 1.483-.428-1.57.135-.036-.12 1.389-.73-1.48.427-.041-.126 1.963-.568Zm.407 1.482.026.168-1.556.574 1.66.086.027.168-2.021.298-.018-.13 1.527-.227-1.575-.075-.02-.123 1.475-.535-1.523.225-.024-.13 2.022-.299Zm.213 2.075.008.137-1.335.051a1.682 1.682 0 0 1-.37-.03.596.596 0 0 1-.177-.063.38.38 0 0 1-.127-.115.257.257 0 0 1-.051-.146.224.224 0 0 1 .043-.147.458.458 0 0 1 .124-.116.652.652 0 0 1 .157-.075.997.997 0 0 1 .174-.036c.06-.007.132-.013.213-.016l1.305-.05.008.137-1.281.05a1.52 1.52 0 0 0-.235.023.362.362 0 0 0-.143.057.196.196 0 0 0-.073.089.218.218 0 0 0-.012.102.163.163 0 0 0 .035.1.23.23 0 0 0 .09.06c.039.015.09.025.154.031.064.007.14.008.229.006l1.264-.049Zm-.515.702-1.536-.096.006-.135 2.033.127-.01.135-1.504.373 1.486.093-.006.137-2.033-.127.006-.13 1.558-.377Zm-1.65 1.053.021-.14 2.01.31-.022.139-2.009-.309Zm1.2 1.481.034-.137c.026.005.053.009.082.012.03.004.061.002.096-.004a.22.22 0 0 0 .097-.041.18.18 0 0 0 .062-.085.173.173 0 0 0-.024-.151.48.48 0 0 0-.145-.132 1.085 1.085 0 0 0-.214-.104 2.698 2.698 0 0 0-.283-.082 3.32 3.32 0 0 0-.29-.06 1.053 1.053 0 0 0-.23-.01.432.432 0 0 0-.189.053.197.197 0 0 0-.098.125.16.16 0 0 0 .019.13c.026.042.053.07.084.08l.173.07-.034.136a4.25 4.25 0 0 0-.1-.03 1.366 1.366 0 0 1-.148-.056.496.496 0 0 1-.164-.114.381.381 0 0 1-.094-.148.242.242 0 0 1 .002-.152.29.29 0 0 1 .101-.145.475.475 0 0 1 .22-.09c.092-.016.195-.019.306-.008a2.85 2.85 0 0 1 .52.093c.113.03.216.061.308.095s.178.077.256.127c.079.051.14.101.183.15a.339.339 0 0 1 .08.311.23.23 0 0 1-.128.15.585.585 0 0 1-.199.045.802.802 0 0 1-.203-.013l-.08-.015Zm.25.956-.042.11-2.05-.306.055-.143.541.078.148-.38-.463-.28.052-.133 1.76 1.054Zm-1.242-.217.834.134-.718-.433-.116.299Zm.653 1.02.236.12-.333.65-.236-.12.14-.274-1.587-.804.064-.126 1.588.805.128-.25Zm-2.197.31.073-.118 1.731 1.058-.073.12-1.731-1.06Zm1.178 1.89c-.042.057-.117.088-.225.093a.933.933 0 0 1-.399-.093 2.21 2.21 0 0 1-.824-.614 1.038 1.038 0 0 1-.203-.35c-.032-.107-.024-.19.024-.25.046-.062.125-.092.236-.093.112 0 .242.032.392.096.15.063.297.149.441.257.145.107.27.225.377.353.11.133.178.252.204.358.026.105.018.186-.023.244Zm-.216-.16c.026-.038.029-.095.008-.17a.693.693 0 0 0-.154-.253 1.85 1.85 0 0 0-.602-.452.778.778 0 0 0-.285-.078c-.08-.003-.136.016-.166.056-.033.04-.036.098-.01.175.027.077.078.16.154.25a1.86 1.86 0 0 0 .608.451.693.693 0 0 0 .29.077c.077 0 .13-.02.157-.056Zm-.798.61-1.123-1.041.093-.102 1.485 1.379-.095.099-1.404-.657 1.086 1.007-.094.103-1.485-1.378.089-.097 1.447.687Zm-1.326.02a6.282 6.282 0 0 1-.11.095l-.063-.06a.669.669 0 0 0-.07-.06.302.302 0 0 0-.076-.042.184.184 0 0 0-.157.016.29.29 0 0 0-.054.04.166.166 0 0 0-.04.05.176.176 0 0 0-.015.062.17.17 0 0 0 .02.079.563.563 0 0 0 .063.102c.028.038.053.07.075.094.03.03.06.053.09.071a.23.23 0 0 0 .124.027.942.942 0 0 0 .176-.023.776.776 0 0 1 .163-.021c.044 0 .093.013.146.036.055.024.111.059.17.104.06.046.122.111.189.195.048.06.083.11.102.151.02.042.033.082.041.123.008.04.01.077.007.11a.243.243 0 0 1-.03.095.324.324 0 0 1-.049.07.216.216 0 0 1-.147.073.431.431 0 0 1-.152-.022.871.871 0 0 1-.253-.144l-.061-.05.099-.096.055.042c.017.014.04.029.07.045.029.016.059.026.092.03a.12.12 0 0 0 .08-.014.248.248 0 0 0 .053-.04.179.179 0 0 0 .046-.094.222.222 0 0 0-.006-.095.372.372 0 0 0-.043-.096.461.461 0 0 0-.07-.085.392.392 0 0 0-.196-.115.31.31 0 0 0-.091-.006 1.089 1.089 0 0 0-.13.019c-.055.01-.109.021-.16.025a.335.335 0 0 1-.145-.022.496.496 0 0 1-.135-.085 1.527 1.527 0 0 1-.216-.221.871.871 0 0 1-.12-.195.438.438 0 0 1-.036-.157.284.284 0 0 1 .025-.13.279.279 0 0 1 .077-.095.29.29 0 0 1 .122-.063.307.307 0 0 1 .13 0c.044.01.087.026.13.05a.891.891 0 0 1 .225.17c.017.02.036.038.055.056ZM26.36 54.46c5.255 0 9.54 4.285 9.54 9.539s-4.285 9.54-9.54 9.54c-5.254 0-9.539-4.286-9.539-9.54s4.285-9.54 9.54-9.54Zm0-.094c5.306 0 9.633 4.327 9.633 9.633 0 5.306-4.327 9.633-9.633 9.633-5.305 0-9.633-4.327-9.633-9.633 0-5.306 4.328-9.633 9.633-9.633Zm0-2.556c6.714 0 12.19 5.475 12.19 12.189 0 6.713-5.476 12.19-12.19 12.19-6.713 0-12.189-5.477-12.189-12.19 0-6.714 5.476-12.19 12.19-12.19Zm0 .156c6.628 0 12.034 5.405 12.034 12.033 0 6.628-5.406 12.033-12.034 12.033-6.627 0-12.033-5.405-12.033-12.033 0-6.628 5.406-12.033 12.033-12.033Zm-5.529 21.129c.069.038.129.07.181.094l.221.106.166-.367c.021-.046.045-.103.071-.171l.145.07a1.35 1.35 0 0 0-.091.16c-.097.209-.19.421-.29.63-.103.21-.212.42-.307.63a2.56 2.56 0 0 0-.078.209l-.14-.066c.038-.079.077-.164.117-.256a3.128 3.128 0 0 0-.275-.033.805.805 0 0 0-.197.004c.008-.072.014-.147.02-.228.057.021.141.044.253.067.113.024.202.038.268.045.047-.093.097-.185.144-.278.046-.093.09-.186.132-.28l-.22-.105a2.563 2.563 0 0 0-.185-.079l.066-.152Zm1.007-.158.136.073a1.83 1.83 0 0 0-.079.142c-.08.162-.16.326-.24.493.071 0 .148-.01.232-.024.083-.015.174-.034.27-.06a.986.986 0 0 0 .038.218.797.797 0 0 0-.278-.017c-.129.01-.238.018-.327.02a11.499 11.499 0 0 0-.266.576c-.033.077-.016.13.05.16l.157.07c.052.022.09.023.114.003a.844.844 0 0 0 .119-.168c.017.068.053.12.11.157-.082.092-.143.151-.184.176-.041.025-.088.027-.14.005-.099-.044-.199-.088-.299-.135-.105-.048-.133-.138-.079-.265.091-.213.195-.425.3-.64.102-.212.2-.424.3-.632.017-.035.039-.086.066-.152Zm1.543 1.947c.048-.038.11-.035.151-.075.04.066.073.099.132.181.058.082.11.157.155.224a1.798 1.798 0 0 0-.152.122 3.743 3.743 0 0 0-.286-.452Zm-.59-.31c.03.053.062.106.097.16a6.49 6.49 0 0 0-.502.28.664.664 0 0 0-.095-.142c.248-.115.414-.214.5-.298Zm.022-.708 1.093.292a2.404 2.404 0 0 0-.166.57l-.462-.129-.112.488c-.02.092-.054.144-.1.156a.958.958 0 0 1-.242.01.554.554 0 0 0-.028-.213c.085.044.144.041.177.043.032.002.057-.032.073-.102l.095-.415-.47-.113c.025-.086.05-.18.073-.283.023-.104.057-.233.069-.304Zm.097.207-.065.284.798.204.073-.301-.806-.187Zm.457-.638.17.008c-.002.02-.003.053-.002.1l.003.18c.12.03.263.069.38.098.106.027.2.048.286.064-.015.049-.03.106-.042.154a18.361 18.361 0 0 0-1.543-.4c.008-.051.015-.12.023-.17a12.137 12.137 0 0 0 .532.164c.075.02.125.032.2.05a3.33 3.33 0 0 0-.003-.1 3.859 3.859 0 0 1-.004-.148Zm1.968 2.255.023-.223a4.79 4.79 0 0 0 .018-.191l.067-.926c.007-.088.01-.162.013-.221l.007-.192c.069.01.13.017.186.02l.216.014c.055.003.118.004.191.004a4.307 4.307 0 0 0-.081.232l-.158.42c.066.093.108.164.125.21a.63.63 0 0 1 .046.297.438.438 0 0 1-.044.17.24.24 0 0 1-.104.111.742.742 0 0 1-.213.057l-.001-.063a.301.301 0 0 0-.012-.06.89.89 0 0 0-.052-.121.568.568 0 0 0 .113.02c.094.006.143-.042.149-.145a.64.64 0 0 1-.001-.053.418.418 0 0 0-.033-.171.925.925 0 0 0-.124-.24l.085-.235.083-.284-.223-.014-.085 1.18c-.005.045-.008.118-.01.218l-.008.197a.918.918 0 0 0-.173-.01Zm-.412-1.082.2.016.035-.379-.201-.016-.034.38Zm-.048.539.2.016.036-.395-.201-.016-.035.395Zm-.3-.566.207.016.034-.379-.207-.016-.034.379Zm-.048.539.207.016.035-.395-.206-.016-.036.395Zm-.053-1.084c.067.012.13.02.188.025l.167.014.011-.13c.006-.068.01-.112.01-.132l.005-.136a.46.46 0 0 0 .159.012l-.02.163c-.007.045-.01.08-.013.106l-.012.127.162.013c.058.005.122.006.19.005a5.154 5.154 0 0 0-.039.337l-.067.748a3.96 3.96 0 0 0-.012.158l-.007.158-.08-.013a.549.549 0 0 0-.075 0c.008-.052.014-.091.016-.117l.006-.066-.549-.043-.01.106-.004.07-.003.054a.47.47 0 0 0-.151-.012 14.572 14.572 0 0 0 .038-.349l.069-.767c.002-.025.006-.077.01-.158l.01-.172Zm1.986.076c.07 0 .129 0 .18-.004l.375-.023-.005-.065a2.447 2.447 0 0 0-.011-.108l-.018-.142.108.002a.626.626 0 0 0 .08-.014 2.223 2.223 0 0 0 .01.25l.004.067.38-.024c.046-.003.107-.01.18-.02a1.475 1.475 0 0 0 .006.198l.044.614c.004.06.008.1.01.115l.015.117c-.08 0-.14.003-.177.01v-.033l.002-.02-.004-.048-.389.024.02.279a.433.433 0 0 0 .014.097c.005.013.018.026.038.038.02.013.123.01.309-.008a.696.696 0 0 0 .142-.023.112.112 0 0 0 .065-.048.224.224 0 0 0 .025-.08 1.48 1.48 0 0 0 .01-.154c.03.034.057.062.083.083.026.02.072.04.137.06-.015.03-.029.061-.041.09-.012.03-.027.063-.045.1a.228.228 0 0 1-.07.085.267.267 0 0 1-.125.042 3.495 3.495 0 0 1-.238.018c-.192.012-.313.01-.363-.01-.05-.017-.079-.045-.087-.082a.921.921 0 0 1-.017-.132l-.025-.344-.384.024.005.065.004.036.005.038a1.054 1.054 0 0 0-.084-.003l-.028.004-.062.008-.006-.148a4.299 4.299 0 0 0-.007-.131l-.044-.604a1.798 1.798 0 0 0-.008-.093l-.013-.103Zm.227.78.384-.024-.018-.248-.384.024.018.248Zm-.028-.4.383-.023-.017-.233-.383.024.017.233Zm.58.365.39-.024-.019-.248-.388.024.018.248Zm-.028-.399.389-.024-.017-.233-.389.025.017.232Zm1.232.89.05-.03c.118-.07.222-.162.31-.272a.704.704 0 0 0 .159-.312 1.69 1.69 0 0 0 .018-.486l-.396.087-.245.069-.01-.054-.007-.041a.524.524 0 0 0-.006-.029l-.021-.073c.141-.021.225-.035.25-.04l.411-.092a2.673 2.673 0 0 0-.04-.22l-.02-.086a9.185 9.185 0 0 1-.011-.05l-.045-.183c.049-.004.084-.008.103-.011a.537.537 0 0 0 .091-.032l.03.198a3.218 3.218 0 0 0 .044.251l.02.095.43-.094.238-.068.01.072.006.039c.002.01.012.039.028.086-.119.017-.198.03-.238.038l-.4.089c.008.03.022.066.04.112.018.046.07.127.153.244a.785.785 0 0 0 .239.235c.074.04.149.072.223.095a.937.937 0 0 0 .205.039l.054.004c-.073.064-.115.12-.125.169l-.021.086-.054-.027c-.003 0-.061-.027-.175-.078a1.13 1.13 0 0 1-.317-.218 1.407 1.407 0 0 1-.268-.382 2.98 2.98 0 0 0-.001.117c0 .035 0 .064-.002.086a1.466 1.466 0 0 1-.067.273.704.704 0 0 1-.1.183 1.71 1.71 0 0 1-.111.137c-.03.031-.094.093-.195.186l-.025.024-.06-.064a.351.351 0 0 0-.152-.073Zm1.954-.747a4.228 4.228 0 0 1-.04-.124l-.029-.062c.098-.026.175-.049.23-.069l.49-.178-.014-.04-.001-.004-.016-.032-.031-.064.029-.023c.038-.03.093-.088.164-.17l-.422.152c-.025.01-.104.043-.235.1a.52.52 0 0 0-.026-.087l-.01-.027-.026-.053c.13-.037.212-.062.245-.074l.513-.186c.064-.023.132-.053.206-.09.007.029.013.05.018.064l.014.038.01.03.026.055-.055.035a1.252 1.252 0 0 0-.225.214l-.039.044.024.064.402-.146a3.79 3.79 0 0 0 .25-.106 2.22 2.22 0 0 0 .029.106c.004.014.017.04.04.08l-.26.08-.402.146.118.32c.013.036.018.07.015.103-.004.032-.083.09-.239.172l-.02-.044a.27.27 0 0 0-.033-.051.604.604 0 0 0-.094-.085l.032-.005a.295.295 0 0 0 .078-.02c.045-.018.07-.032.076-.044a.07.07 0 0 0 .005-.043.681.681 0 0 0-.033-.106l-.053-.143-.49.178c-.017.006-.09.038-.22.095Zm-.171-.525a2.46 2.46 0 0 0-.041-.128l-.055-.147a2.532 2.532 0 0 0-.053-.125c.093-.027.156-.046.187-.057l.759-.275c.028-.132.042-.28.042-.444v-.076a.708.708 0 0 0 .177.044l-.011.062-.017.083-.02.142-.023.135.213-.078c.032-.011.09-.037.173-.075l.024.087a.678.678 0 0 0 .015.05l.052.142.02.044.028.058a.623.623 0 0 0-.165.06 2.106 2.106 0 0 0-.03-.108l-.042-.112-1.17.426.04.11a.59.59 0 0 0 .023.055l.032.069a1.07 1.07 0 0 0-.159.058Zm-.079-.737a.568.568 0 0 0 .108-.127l.277.196a.415.415 0 0 0-.069.055l-.056.074-.04-.05a.96.96 0 0 0-.16-.117l-.06-.031Zm.524-.358.21.267a.51.51 0 0 0-.14.09l-.033-.047a3.932 3.932 0 0 0-.066-.092l-.085-.103-.024-.03a.65.65 0 0 0 .138-.085ZM24.9 53.851c.016.16.114.409.337.28a.165.165 0 0 0 .05-.042.166.166 0 0 0 .029-.079c.034-.435-.088-.405-.312-.529a.869.869 0 0 1-.146-.096.46.46 0 0 1-.098-.127c-.137-.25-.19-.83.195-.9.246-.008.339.295.381.49h-.127c-.038-.146-.167-.343-.331-.216-.113.085-.104.284-.053.399a.353.353 0 0 0 .124.157c.028.02.067.044.118.074.218.124.31.178.363.422.01.044.03.144.033.197a.89.89 0 0 1-.012.24.495.495 0 0 1-.063.162.272.272 0 0 1-.097.097.25.25 0 0 1-.12.029c-.248.01-.372-.32-.406-.558h.135Zm2.008-.09c-.016.16.034.423.278.339a.17.17 0 0 0 .057-.033.167.167 0 0 0 .043-.072c.116-.421-.01-.415-.206-.578a.866.866 0 0 1-.125-.121.461.461 0 0 1-.072-.144c-.088-.272-.029-.851.362-.847.243.038.276.352.281.552l-.124-.024c-.01-.15-.1-.368-.285-.273-.127.062-.156.259-.127.381a.35.35 0 0 0 .092.177c.023.025.057.057.102.096.19.162.27.233.276.482 0 .045.001.147-.005.2a.89.89 0 0 1-.058.234.496.496 0 0 1-.092.147.272.272 0 0 1-.113.077.248.248 0 0 1-.125.006c-.244-.037-.303-.384-.291-.624l.132.025Zm-7.29.665c.055-.037.136-.039.24-.006a.708.708 0 0 1 .164.08c.058.038.12.086.184.144a2.372 2.372 0 0 1 .349.391c.053.074.1.149.143.223.041.075.077.149.106.224.056.149.08.278.075.387-.005.11-.039.182-.1.222-.063.04-.145.044-.25.008a1.019 1.019 0 0 1-.338-.217 2.586 2.586 0 0 1-.48-.611 1.847 1.847 0 0 1-.11-.229.927.927 0 0 1-.08-.399c.009-.105.04-.179.096-.217Zm.154.224c-.037.025-.056.076-.06.152a.663.663 0 0 0 .066.286c.049.115.114.228.192.338.077.11.158.203.244.283a.803.803 0 0 0 .241.166c.075.03.132.028.174.002.043-.027.065-.079.066-.158a.734.734 0 0 0-.064-.279 1.619 1.619 0 0 0-.189-.327 2.032 2.032 0 0 0-.255-.29.753.753 0 0 0-.249-.17c-.073-.026-.13-.028-.166-.003Zm1.253.197.458.803-.119.065-1.012-1.775.492-.269.136.24-.372.203.284.499.344-.188.133.234-.344.188Z" fill="#013A89"/></svg>