<svg width="128" height="128" fill="none" xmlns="http://www.w3.org/2000/svg"><g filter="url(#a)"><path fill-rule="evenodd" clip-rule="evenodd" d="M14 64c0-5.997 4.861-10.858 10.858-10.858 5.997 0 10.858 4.861 10.858 10.858 0 5.997-4.86 10.858-10.858 10.858C18.861 74.858 14 69.997 14 64Z" fill="#97401A"/><path fill-rule="evenodd" clip-rule="evenodd" d="M16.623 64a8.235 8.235 0 0 1 8.235-8.235 8.235 8.235 0 1 1 0 16.47A8.235 8.235 0 0 1 16.623 64Z" fill="#005C33"/><mask id="b" style="mask-type:alpha" maskUnits="userSpaceOnUse" x="16" y="55" width="18" height="18"><path d="M16.623 64a8.235 8.235 0 0 0 8.235 8.235 8.235 8.235 0 1 0 0-16.47" fill="#fff"/></mask><g mask="url(#b)" fill-rule="evenodd" clip-rule="evenodd" fill="#00A650"><path d="M24.848 69.178s-.037.06-.078.102c-.041.04-.102.081-.088.095.013.013.034.03.034.03v.676s-.297-.02-.363.018c-.071.041-.154.088-.228.14-.075.05-.19.059-.259.069-.052.007-.127.112-.198.14-.072.026-.17.059-.21.078-.084.045-.091.163-.138.18-.048.016-.13.005-.16.089-.033.095-.162.066-.178.09-.024.033-.138.165-.18.168-.04.004-.27.106-.332.179-.551.047-.76.09-.76.09l6.36-.008s-.377-.101-.624-.102a1.707 1.707 0 0 0-.32-.179c-.07-.02-.186-.079-.218-.089-.07-.024-.145.004-.169-.02-.041-.041-.081-.056-.149-.06-.068-.003-.052-.035-.08-.099-.027-.064-.099-.07-.159-.1-.044-.022-.152-.136-.206-.154-.055-.016-.114.015-.148-.012-.034-.027-.067-.112-.132-.13-.065-.016-.222-.027-.26-.071-.037-.044-.182-.099-.267-.163-.085-.065-.344-.06-.344-.06v-.683s.027-.007.024-.027c-.003-.02-.054-.051-.088-.085a.95.95 0 0 1-.082-.102ZM21.95 71.351s.003.045.053.05c.05.004.226.062.31.112.175.103.202.455.202.455l.26-.002.003.089.215.002s-.131.019-.067.023c.064.005.232.002.215.007-.017.004-.256.023-.202.023.054 0 .324.035.357.007.034-.028.007-.142.007-.142h-.374s0-.052-.044-.056c-.043-.004-.141-.004-.141-.004s-.074-.383-.31-.482c-.236-.1-.485-.082-.485-.082Z"/><path d="M22.862 71.47s-.014.326 0 .365c.013.039.067.028.067.002 0-.026.007-.329-.007-.36-.013-.03-.06-.008-.06-.008ZM23.007 71.418c-.014.043 0 .417.013.438.013.022.077.026.077 0 0-.025 0-.425-.013-.447-.013-.022-.064-.034-.077.009ZM23.189 71.441c-.04.005-.034.067-.034.132 0 .064-.003.26.034.26.036 0 .03-.23.03-.26s.01-.136-.03-.132ZM24.774 71.465c-.047 0-.047.034-.047.116s.02.271.054.271.034-.232.034-.28c0-.047-.013-.107-.04-.107ZM24.943 71.385c-.068 0-.054.084-.054.162 0 .077-.013.327.047.327.061 0 .047-.237.047-.323 0-.086.017-.166-.04-.166ZM25.085 71.478c-.028 0-.028.026-.028.107 0 .082-.013.267.028.267.04 0 .037-.228.043-.28.007-.051-.003-.094-.043-.094ZM26.648 71.465c-.047 0-.047.034-.047.116s.02.266.053.266c.034 0 .034-.227.034-.274 0-.047-.012-.108-.04-.108ZM26.817 71.385c-.068 0-.055.084-.055.162 0 .077-.013.327.048.327.06 0 .047-.237.047-.323 0-.086.017-.166-.04-.166ZM26.958 71.478c-.027 0-.027.026-.027.107 0 .082-.014.267.027.267.04 0 .037-.228.044-.28.007-.051-.004-.094-.044-.094Z"/><path d="M25.199 71.971c-.015.062-.029.138-.01.17a.71.71 0 0 1-.201 0c-.03-.009.113-.016.085-.03-.015-.008-.06-.006-.071-.012-.03-.014.029-.016.03-.033.002-.01-.097.005-.11-.005-.02-.012.042-.028.042-.028l-.19-.005.038-.03h-.39s.02-.41-.22-.503a.831.831 0 0 0-.566-.024c-.201.07-.252.413-.283.433-.03.019-.05-.015-.05-.015s.044-.275.125-.357c.076-.078.186-.172.474-.192.287-.02.546.054.66.174.115.12.129.43.129.43l.444-.01s.085-.32.166-.402c.076-.078.186-.172.475-.192.286-.02.546.054.66.174.115.12.128.43.128.43l.445-.01s.094-.38.255-.51c.162-.129.465-.106.465-.106v.164s-.33-.027-.461.067c-.118.084-.185.35-.189.398-.003.047.026.035-.019.06a.798.798 0 0 1-.24.043c-.032 0 .116-.047.12-.056.003-.008-.209.051-.239.051-.022 0 .129-.014.129-.014l-.209-.013.064-.02h-.39s.02-.41-.22-.503a.832.832 0 0 0-.565-.024c-.202.07-.253.413-.283.433a.337.337 0 0 0-.028.067Z"/></g><path fill-rule="evenodd" clip-rule="evenodd" d="M24.858 55.87c-4.483 0-8.13 3.647-8.13 8.13 0 4.483 3.647 8.13 8.13 8.13 4.484 0 8.132-3.647 8.132-8.13 0-4.483-3.648-8.13-8.132-8.13Zm0 16.47c-4.598 0-8.34-3.742-8.34-8.34s3.742-8.34 8.34-8.34c4.599 0 8.34 3.742 8.34 8.34s-3.741 8.34-8.34 8.34Z" fill="#D0A58C"/><path fill-rule="evenodd" clip-rule="evenodd" d="M23.89 70.52h-.077c-.03.106-.083.117-.21.124v.065h.182v.464h.105v-.653ZM24.461 70.954c.073 0 .15-.028.18-.078l.002.002c-.025.17-.082.245-.189.245-.08 0-.127-.041-.132-.107h-.098c0 .063.049.174.233.174.27 0 .284-.298.284-.368 0-.105-.025-.303-.275-.303-.165 0-.251.106-.251.225 0 .13.101.21.246.21Z" fill="#fff"/><path fill-rule="evenodd" clip-rule="evenodd" d="M24.475 70.881c-.066 0-.16-.016-.16-.141 0-.087.061-.147.152-.147.113 0 .159.065.159.14 0 .129-.1.148-.15.148Z" fill="#00A650"/><path fill-rule="evenodd" clip-rule="evenodd" d="M25.428 71.014v-.07h-.115v-.424h-.08l-.36.414v.08h.342v.159h.098v-.16h.115Z" fill="#fff"/><path fill-rule="evenodd" clip-rule="evenodd" d="M25.213 70.647h.002v.296h-.252l.25-.296Z" fill="#00A650"/><path fill-rule="evenodd" clip-rule="evenodd" d="M26.101 70.855c0-.136-.043-.336-.268-.336-.225 0-.269.2-.269.336 0 .135.044.335.269.335.225 0 .268-.2.268-.335Z" fill="#fff"/><path fill-rule="evenodd" clip-rule="evenodd" d="M25.997 70.855c0 .164-.052.262-.164.262-.113 0-.164-.098-.164-.262 0-.163.051-.262.164-.262.112 0 .164.099.164.262Z" fill="#00A650"/><path fill-rule="evenodd" clip-rule="evenodd" d="M23.152 54.154c-.01-.038.01-.092.031-.095.027-.004.031.03.06.026.013-.002.041-.005.053-.013.008-.006.052-.025.066-.032.04-.021.068-.044.112-.065.029-.014.07-.012.092-.023.065-.033.244-.128.27-.131.025-.004.047.018.068.016.037-.006.113-.018.128-.01.009.006.02.043.03.05.014.01.054.05.055.082.002.026-.026.07-.025.08.004.038.002.058-.006.072a.536.536 0 0 0-.044.12c-.005.017-.044.057-.048.073-.03.104-.068.179-.09.282-.003.017-.024.052-.036.048-.012-.004-.041-.003-.052.009-.007.008-.039.008-.052.025-.01.013-.069.012-.077.036-.005.015-.003.05.01.063.019.02.053-.008.06-.02.005-.011.027-.032.044-.03.012.001.039.012.072.013.02 0 .031.017.031.027.003.047.028.07.03.083a.056.056 0 0 1-.006.037c-.012.019-.029.03-.055.052-.014.012-.047.02-.067.036a.056.056 0 0 0-.016.044c.003.024.025.024.038.023.013-.002.066-.028.091-.031.026-.004.05-.002.072-.008.016-.004.06-.031.084-.03.028.002.056-.029.076-.012.005.033.068.04.075.091.01.073-.025.162-.089.176-.026.006-.01-.018-.104-.003a2.018 2.018 0 0 0-.167.03c-.024.008-.06.004-.092.008-.033.003-.064.016-.079.02-.027.005-.052.023-.088.027a.269.269 0 0 0-.106.037c-.02.014-.082.018-.111.026-.02.006-.05.037-.11.052-.022.006-.075-.005-.08-.027-.006-.033-.027-.05-.03-.096l-.002-.046c0-.012-.002-.04.017-.055.004-.002.011-.025.024-.026.013 0 .018.018.037.012a.468.468 0 0 0 .094-.048c.033-.024.088-.057.12-.073.012-.026-.017-.036-.026-.033-.019.005-.04.01-.053 0-.026 0-.04-.005-.047-.015-.007-.011-.003-.034-.004-.043-.001-.018-.003-.027-.002-.052 0-.016-.001-.04.023-.042.013-.002.017.007.03.005.013-.002.017-.008.03-.01.014-.001.022-.001.03-.005a.067.067 0 0 0 .024-.029.193.193 0 0 0-.002-.062c-.004-.017-.02-.012-.037 0-.012.008-.027.012-.046.02-.009.002-.029.014-.042.016a.116.116 0 0 1-.036 0c-.016-.002-.015-.014-.022-.025-.005-.01-.018-.026-.019-.04-.003-.036-.034-.044-.04-.053a.183.183 0 0 1-.027-.063c-.005-.041.028-.08.02-.104-.006-.021-.036-.101-.038-.158-.001-.015-.024-.036-.03-.065-.005-.023.002-.037 0-.053 0-.02.014-.06.006-.09ZM23.105 54.128c.008.013-.004.054-.003.077 0 .016-.022.04-.014.089.004.02-.013.04-.038.068a.776.776 0 0 0-.065.096c-.016.043.003.084.005.097.002.013-.003.052.015.064.021.015.034-.008.05-.008.011 0 .008.023.023.044.03.041.04.047.042.07 0 .012.002.023-.007.03-.025.02-.113.104-.129.162-.003.012.008.053.015.056.012-.003.043-.006.056-.008.013-.002.046.016.055.026.009.01.022.039.022.052.002.082-.056.138-.117.19-.058.05-.166.11-.215.148-.041.033-.075.102-.1.117 0 0-.028.016-.044.008-.01-.006-.037-.004-.066-.009-.023-.004-.017-.036-.035-.052-.019-.016-.038-.03-.048-.05a.255.255 0 0 1-.032-.1c-.001-.025.044-.09.087-.11.012-.006.04-.042.052-.05a.102.102 0 0 0 .04-.091c-.002-.022.007-.04.004-.055 0-.002-.008-.028-.024-.04-.014-.009-.02-.02-.029-.033 0 0-.052-.047-.056-.073-.005-.04.023-.074.062-.085.012-.003.036 0 .049-.004.03-.007.047-.038.06-.065.01-.02-.002-.077 0-.106.004-.036-.037-.036-.06-.041-.018-.005-.044-.016-.064-.015-.017.001-.04-.022-.045-.038-.012-.021-.02-.013-.036-.017-.02-.005-.026-.058-.028-.071-.001-.007.013-.016.03-.027.016-.009.016-.027.021-.043.007-.023.03-.032.05-.04.014-.006.053-.008.071-.019.095-.055.194-.183.291-.192.05-.004.07-.005.088-.02.028-.021.054.044.067.068Z" fill="#fff"/><path fill-rule="evenodd" clip-rule="evenodd" d="M23.777 54.046c.007.005.012.042.013.055.003.018-.022.061-.041.08 0 0-.048.014-.078.007-.024-.005-.03-.043-.03-.065-.002-.043.085-.053.136-.077ZM23.437 54.187c.038-.015.052-.003.054.046 0 .036-.036.051-.063.078-.013.014-.03-.012-.03-.012-.016-.011-.011-.041-.015-.06-.007-.044.044-.036.054-.052ZM23.7 54.329c.01-.005.034-.008.039.008a.22.22 0 0 1 .005.048c-.007.029-.038.05-.057.057-.009.002-.038-.015-.04-.028-.002-.013-.013-.041-.002-.058.028-.001.038-.02.055-.027ZM23.493 54.423a.02.02 0 0 1 .023.02c.001.035-.015.066-.032.079-.012.008-.042.004-.065.002a.064.064 0 0 1-.01-.036.066.066 0 0 1 .012-.042.472.472 0 0 1 .072-.023Z" fill="#8C492C"/><path fill-rule="evenodd" clip-rule="evenodd" d="M20.285 55.301c.01-.007.035-.006.058-.01.01-.002.039-.03.054-.03.03.002.087-.005.107.004.023.01.049.045.06.051.012.007.028.03.032.048-.01.05-.026.083-.026.105 0 0 .004.041 0 .072-.006.079.004.158.006.24 0 .023-.007.054-.01.083-.002.01-.017.023-.031.025-.01.001-.024.032-.01.055.006.01.021.037.049.058.031.024.147.243.173.29.023.04.005.099-.005.114-.012.017-.005.064-.024.093-.013.021-.026.054-.037.06-.01.007-.022.004-.034-.002-.009-.003-.037.006-.048.007-.017 0-.028-.007-.045-.006-.016.002-.043.012-.065.006-.02-.005-.032-.021-.058-.036-.036-.02-.117-.02-.124-.031-.012-.017.032-.047.037-.05.036-.023.077-.013.087-.02.038-.022.047-.047.018-.102a1.356 1.356 0 0 0-.027-.048c-.007-.011-.03-.041-.04-.065a.696.696 0 0 1-.042-.094c-.005-.008-.024-.022-.033-.02-.015.016-.04.006-.055.015-.01.007-.022.023-.033.03-.01.006-.037.022-.063.03a.072.072 0 0 1-.032-.007c-.019-.01-.023-.023-.039-.036-.005-.002-.019-.017-.024-.017-.009-.012-.027-.032-.033-.043-.007-.01-.036-.034-.055-.058-.022-.028-.044-.045-.066-.078l-.058-.085c-.035-.062-.007-.097-.006-.13.01-.018.027-.039.037-.053.02-.008.03-.005.059-.003.004.003.03.01.038.016a.275.275 0 0 0 .077-.083c.01-.017.04-.035.056-.06a.222.222 0 0 1 .04-.049c.01-.006.012-.013.033-.034.018-.02.028-.028.04-.053a.371.371 0 0 1 .019-.04c.006-.01.01-.021.018-.03.005-.011.005-.017.025-.029Z" fill="#fff"/><path fill-rule="evenodd" clip-rule="evenodd" d="M20.646 55.8c.013-.01.03.001.05-.016.006-.005.045 0 .057-.004a.144.144 0 0 0 .047-.022c.012-.01.042-.006.052-.013.01-.006.025-.02.034-.028.02-.018.107.012.137.025.013.005.025.008.045.02.007.005.02.035.023.047.007.028-.002.038-.006.06-.004.017.008.045.005.065 0 .01-.003.036-.009.051a.137.137 0 0 1-.038.05c-.01.01-.031.017-.041.028-.018.017-.022.041-.033.048-.014.008-.037.004-.056-.017-.01-.01-.017-.036-.032-.047-.02-.015-.069-.034-.076-.045-.017-.026-.053-.023-.063-.04-.025-.038-.046-.047-.055-.053a.057.057 0 0 1-.02-.042c0-.017-.03-.042-.021-.067ZM19.999 56.374c.039-.024.082.043.096.035a.213.213 0 0 0 .049-.05c.004-.004.067-.04.067-.04.01-.007.022-.011.03-.004.014.014.017.042.017.042.007.01.02.036.019.047-.002.013-.009.028-.01.05 0 .009-.018.027-.016.04.004.03.019.047.015.073-.004.02-.012.028-.025.055-.012.022-.037.023-.047.034-.008.01-.03.054-.049.066-.04.024-.088.029-.115-.018-.007-.01-.015-.041-.022-.052-.006-.011-.027-.02-.034-.032-.006-.01.001-.043-.003-.059-.012-.043-.025-.097-.002-.137.01-.017.019-.043.03-.05ZM19.795 54.799c.01-.007.03-.015.044-.02.018-.009.04-.025.051-.032.013-.008.02.002.04.006.007 0 .042-.02.057-.015.014.006.036.039.05.047.019.012.05.006.085.06.035.053.022.063.005.111-.002.017.01.036.026.022.024-.022.118-.112.139-.135a.644.644 0 0 1 .08-.077c.01-.008.032-.003.05-.008.015-.004.038-.02.05-.011.024.017.055.023.075.014.01-.004.031 0 .038.011l.028.052c.017.037-.028.098-.044.13-.006.011-.028-.006-.057.014-.01.007-.067.049-.078.055l-.06.047c-.013.012-.037.04-.05.053-.017.02-.03.034-.046.057-.009.01-.036.013-.058.032-.01.008-.034.056-.062.085-.07.072-.162.146-.165.165-.003.023-.035.026-.045.046-.006.011-.035.029-.045.045-.016.029-.032.027-.041.042-.008.013-.02.02-.038.03-.012.007-.023.025-.038.04a.107.107 0 0 1-.038.024.127.127 0 0 0-.031.02c-.003.019-.023.03-.042.044a.188.188 0 0 0-.034.04c.003.013-.008.03-.024.044-.015.013-.013-.006-.043-.003-.015.001-.037.027-.057.03-.024.002-.04-.026-.05-.05-.002-.005-.016-.025-.031-.047-.01-.014-.018-.03-.013-.044.01-.03.05-.099.077-.122.009-.008.028.006.039 0 .01-.007.034-.048.05-.06.047-.036.088-.076.131-.12.022-.022.052-.026.059-.047.01-.015.076-.087.096-.107.012-.012.034-.034.031-.057 0-.008-.018-.024-.025-.029-.017-.013-.025.003-.04.01-.015.005-.04 0-.048-.006-.008-.008-.01-.026-.012-.038l-.007-.04-.01-.048c-.008-.027-.087-.063-.103-.077-.01-.008-.012-.025-.009-.041.007-.03.035-.034.056-.047.017-.011.022-.03.027-.037.006-.007.026-.015.033-.024.012-.015.008-.022.027-.034Z" fill="#fff"/><path fill-rule="evenodd" clip-rule="evenodd" d="M20.264 55.606s.02-.024.037-.03c.009-.002.01.03.01.053 0 .01-.01.05-.022.072-.017.033-.018.055-.031.08a.227.227 0 0 1-.05.056c-.024.014-.046 0-.056-.014-.015-.022-.008-.042 0-.056.014-.028.037-.053.06-.084.002-.006.016-.026.019-.038.004-.016.023-.02.033-.039Z" fill="#8C492C"/><path fill-rule="evenodd" clip-rule="evenodd" d="M32.882 57.227c.018.023.011.062.007.085-.004.028-.05.038-.08.036a.2.2 0 0 0-.09.009c-.01.003-.049.029-.048.044 0 .004.004.041-.014.06-.02.021-.055.016-.163.05 0 .002-.087.012-.099.014-.02.003-.013.054.021.075.018.01-.048.029-.017.061.023.024.074.033.089.002 0-.016-.023-.038-.025-.054-.003-.026.03-.056.037-.051.016.01.035.007.045.007.01 0 .033.01.046-.002.008-.008-.008-.038.04-.045.032-.005.042.013.054.02.01.007.038-.004.053-.009a.127.127 0 0 0 .044-.023c.03-.027.012-.072.04-.087.057-.032.18.064.198.068.006.002.019-.006.029-.004a.056.056 0 0 1 .042.036c.004.013.011.039.014.07.001.01-.004.028-.022.04-.015.012-.058.027-.061.048-.001.01-.066-.012-.105-.013-.066-.004-.106.035-.156.058-.004.002-.043.017-.052.023l-.056.03c-.024.013-.052.027-.068.046-.01.012.008.025.017.035.018.018.064.024.078.025.013.011.03.023.035.035.006.012 0 .038.006.05.007.012.019.016.022.042.002.014.024.026.021.05-.004.035-.045.082-.067.1-.022.018-.074.052-.098.051-.022 0-.087-.032-.14-.088-.012-.011-.032-.023-.05-.022-.008.001-.036-.03-.038-.05-.002-.013-.032-.039-.056-.056a.243.243 0 0 0-.164-.035.154.154 0 0 1-.074 0 .372.372 0 0 0-.096-.003.107.107 0 0 0-.064.042c-.005.009.004.023.02.033.016.01.05.018.067.032.015.012.04.006.049.017.011.014.002.046.024.084.008.014.012.042.03.078.002.005.018.031-.002.044-.012.007-.049.039-.072.04-.02.001-.047.003-.06-.007-.026-.018-.038-.03-.067-.049-.014-.009-.038-.017-.051-.027-.02-.015-.102-.075-.128-.054-.014.012-.039.05-.06.065-.02.013-.038.031-.062.044-.026.014-.052.022-.075.046-.019.019-.058.014-.064.014-.047.016-.092.063-.134.038-.03-.016-.067-.027-.088-.045-.036-.032-.043-.026-.066-.04a.197.197 0 0 1-.075-.083c-.002-.017.029-.036.044-.051.03-.029-.007-.132.001-.15.01-.022.033.003.06.024.048.035.09.07.115.084.053.03.155-.033.213-.048.019-.005.034-.023.011-.052a.654.654 0 0 0-.084-.063.618.618 0 0 1-.085-.065c-.018-.016-.073-.032-.083-.042-.018-.019-.04-.028-.04-.07 0-.012-.01-.027-.012-.038-.005-.019.027-.036.036-.045a.288.288 0 0 1 .069-.042c.024-.01.087.008.108.03.01.01.025.053.034.063.01.01.053.012.077.02.027.009.05.033.073.046.03.016.038.015.054.02.015.004.024-.004.033-.007.013-.005.037-.032.052-.036a.295.295 0 0 0 .06-.025c.015-.01-.02-.029-.03-.038-.01-.01-.039-.015-.062-.015-.024 0-.048-.015-.064-.023a.078.078 0 0 1-.035-.038c-.006-.023.005-.03.021-.045.02-.019.046-.037.06-.037.017 0 .067-.052.13-.047.02.002.036.046.054.05.014.005.028.006.033.01.014.007.036.035.052.045.022.015.04.031.068.045.01.005.03.031.049.036.012.004.008.002.046.024-.001-.003.023.003.035.008.011.003.04.04.048.05.013.017.035.03.04.04.01.018.012.035.03.052.01.01.055.018.067.026.02.015.069-.003.074-.02a.3.3 0 0 0-.065-.055c-.019-.01-.057-.052-.07-.057a.309.309 0 0 1-.107-.092.193.193 0 0 0-.06-.04.42.42 0 0 1-.06-.042c-.02-.019-.056-.053-.088-.075-.016-.01-.05-.037-.073-.051a.389.389 0 0 0-.101-.048c-.03-.005-.057.003-.107.01a.226.226 0 0 1-.047.002c-.065-.01-.125.003-.165-.027-.017-.013-.025-.024-.02-.052a.28.28 0 0 1 .063-.112c.028-.027.052-.015.09-.082.009-.014.036-.025.05-.02.004.002.025.01.04.01.049-.001.098-.023.162-.034 0 0 .017.003.018.016.001.01-.04.058-.068.088-.017.018-.011.035.005.047.024.017.056.03.07.034.006 0 .027.01.036 0 .01-.008.017-.036.024-.048a.313.313 0 0 1 .046-.06c.01-.009.071-.059.118-.095.029-.021.044-.06.11-.117.02-.018.06-.064.058-.074-.004-.017.038-.027.059-.013.008.006.023.024.03.031.007.007.02-.006.026.007.006.014.003.017-.008.033-.011.018-.022.024-.032.042-.013.02-.041.033-.044.048-.001.005-.015.026-.029.028-.007 0-.027.02-.034.028-.01.012-.028.02-.042.035a3.27 3.27 0 0 1-.075.079c-.011.01-.017.04-.044.06-.01.007-.028.028-.04.035-.022.017-.054.014-.06.028-.008.015-.007.036-.002.044.008.015.042.024.053.033.01.008.024.027.038.036a.438.438 0 0 1 .07.051c.008.01.033.017.042.024.012.006.033.01.043.01.01 0 .018-.003.024-.015.01-.021-.01-.03-.032-.04-.012-.007-.045-.01-.045-.022 0-.021.003-.029.022-.039.012-.007.027-.034.007-.044-.015-.007-.042.011-.052.022-.013.015-.026.006-.037.005-.012-.002-.028.003-.034-.011-.008-.02.001-.045.022-.065l.094-.08c.02-.016.035-.054.051-.068.04-.035.074-.066.087-.082.012-.014.02-.03.023-.034.008-.01.037-.02.06-.021.01-.001.029.001.044.014.012.01-.014.04-.035.059a.055.055 0 0 0-.02.037.55.55 0 0 1-.085.106c-.019.016-.011.021-.01.034 0 .019.043.033.045.053.001.013-.012.032-.006.04.015.027.07.008.084.006.041-.006.044-.068.036-.08-.004-.006-.035-.012-.054-.027-.023-.017-.032 0-.04-.016-.011-.02.032-.048.058-.054.024-.006.053-.014.065-.028.019-.02.024-.058.034-.068.007-.007.053-.008.063.002.01.01-.003.05.004.064.009.009.066-.001.098-.01.019-.005.06-.036.09-.023.01.004.016.02.026.023.01.002.025.015.03.02ZM17.02 57.602c.009-.007.037-.006.05-.016.018-.012.038-.035.058-.05.009-.006.042-.047.05-.056a.131.131 0 0 1 .044-.027c.009-.003.031-.02.045-.018.032.001.065 0 .086.015.019.013.02.025.033.035a.37.37 0 0 1 .053.053c.006.01.016.046.032.082.011.016.044.056.054.065.028.027.047.047.104.108.018.019.033.043.058.073.008.01.035.04.053.057.026.025.043.017.05.023a.317.317 0 0 1 .027.017c.015.011.033.015.04.025.014.016.027.05.057.091a.09.09 0 0 1 .016.065.379.379 0 0 1-.025.125c-.02.041.006.101.001.13-.005.03-.023.07-.035.104a.593.593 0 0 0-.033.146c-.002.026-.022.054-.029.08-.002.009-.005.11-.02.15-.008.025-.07.009-.105.009-.025 0-.027.005-.062.01-.018.003-.04-.024-.056-.033-.018-.01-.047-.019-.052-.025-.016-.015-.017-.04-.011-.05.007-.014.024-.024.029-.038a.401.401 0 0 0 .018-.084c.005-.033.025-.06.032-.077.021-.047.026-.112.037-.15.008-.023.02-.067-.002-.09 0 0-.094-.09-.108-.094-.016-.005-.038.01-.038.01a.203.203 0 0 1-.038.053c-.009.01-.015.041-.025.058-.006.011-.014.033-.027.038-.013.005-.02.01-.038.004-.028-.009-.04-.027-.063-.04-.015-.01-.027-.008-.046-.026-.024-.024-.017-.03-.073-.076-.032-.027-.015-.067-.002-.087.017-.025.019-.058.038-.08.01-.012.035-.036.04-.049.01-.023.028-.062.03-.088-.007-.029-.003-.056-.029-.084-.05-.052-.061-.089-.105-.133-.052-.053-.087-.037-.108-.042a.029.029 0 0 1-.022-.022c.002-.024.009-.03.005-.06 0-.012.001-.023.011-.03ZM17.57 56.878c.021-.02.035-.012.052-.015.01-.003.024-.016.033-.023.009-.008.03-.004.045.001a.25.25 0 0 1 .085.047c.05.05.028.096.047.139 0 0 .026.046.039.054.03.02.062 0 .053-.029.015-.025.01-.047.016-.064.006-.02.049-.02.086-.045.022-.014.074.02.106.028.017.003.048.03.058.038.012.01.014.033.005.048a.766.766 0 0 0-.032.059c-.014.025-.008.048-.01.067-.004.03-.018.052-.021.086-.003.04-.021.1-.04.131-.002.027.05.097.07.125.015.019.04.036.051.041.035.018.055.05.106.052a.152.152 0 0 0 .095-.041.337.337 0 0 1 .052-.043c.016-.005.036-.026.04-.028.014-.004.039-.013.046-.022a.247.247 0 0 1 .056-.048c.03-.016.076.006.098.034.02.027.032.066.052.1.015.024.032.045.03.07-.002.018-.037.043-.046.066a.224.224 0 0 1-.04.07c-.013.013-.043.018-.054.023-.029.014-.053.044-.064.057-.015.017-.058.06-.058.06-.009.009-.041.022-.063.038-.024.018-.054.06-.075.072a.212.212 0 0 1-.056.018.305.305 0 0 1-.09-.018c-.016-.006-.066-.053-.07-.057-.015-.01-.085-.048-.095-.057l-.052-.043a.298.298 0 0 0-.053-.038c-.023-.008-.07-.052-.08-.06-.038-.036-.034-.052-.099-.13-.007-.008-.015-.043-.022-.05-.034-.037-.022-.041-.048-.071-.021-.026-.042-.063-.05-.07-.034-.04-.082-.087-.09-.096-.02-.022-.03-.04-.046-.069a1.042 1.042 0 0 0-.076-.109s-.05-.04-.062-.061c-.017-.028-.008-.042.008-.061.01-.012.04-.025.055-.04.014-.014.021-.04.03-.05.014-.016.033-.021.042-.03.01-.01.02-.041.036-.056ZM27.337 54.18c.013.004.029.02.035.034.014.028.035.045.046.072.006.017.004.04.004.062 0 .015.017.037.015.044-.018.052-.057.041-.118.065-.03.011-.07.023-.092.045a.176.176 0 0 1-.068.025c-.065.011-.118-.002-.135.052-.02.057.016.042.003.103-.003.014-.02.032-.03.04-.018.015-.02.025-.026.037-.006.015-.009.03-.022.04-.01.008-.015.028-.02.044-.015.055-.036.102-.023.12.062.008.149.032.215.049.026.006.04-.008.061-.008.016 0 .042.004.055.008.013.004.036.018.054.03.015.009.034.031.049.045.018.018.054.035.059.078.002.016-.002.038-.005.053-.002.006-.001.017.002.02a.046.046 0 0 1-.001.029.117.117 0 0 1-.03.04c-.014.011-.032.03-.047.027-.04-.008-.06-.01-.073-.014-.013-.004-.052-.027-.075-.033-.027-.007-.053-.005-.082-.013a1.355 1.355 0 0 1-.13-.044c-.021-.009-.098-.02-.122-.03-.048-.02-.095-.019-.125-.02-.023-.002-.084-.01-.122-.013-.044-.005-.095-.03-.134-.037a1.132 1.132 0 0 0-.25-.01c-.107.01-.307.043-.32.038-.02-.008-.05-.08-.085-.133-.001-.018.01-.049.013-.062a.16.16 0 0 0 .012-.077c.021-.025.12-.038.137-.037.014 0 .046.025.07.025.014 0 .11-.014.163-.02.018-.001.047.004.063.004.049-.003.125-.02.179-.028.116-.015.153-.142.181-.186a.223.223 0 0 0 .032-.07c.006-.024.012-.053 0-.06-.02-.008-.052-.002-.065-.006 0 0-.054.004-.082-.015-.022-.015-.01-.045-.006-.08.004-.03-.01-.064-.026-.1-.007-.014 0-.061.005-.074.004-.013.008-.057.011-.07.009-.034.04-.029.073-.036.013-.003.07.04.102.053.012.005.177.02.27.02h.049l.035-.004a.988.988 0 0 0 .215-.034.127.127 0 0 1 .057.007c.025.007.037.001.05.005ZM29.998 55.162c.018.016.078.037.078.05 0 .03.016.061.033.088.016.024-.002.031-.01.055-.009.02-.002.035-.017.048-.015.013-.047.034-.08.062-.006.007-.038.039-.029.047.009.008.023.008.037.01.007 0 .035.002.052.005.016.003.039.013.057.012.029-.002.068-.014.08-.007 0 0 .086.027.086.049 0 .03.03.041.061.068.029.023.018.085-.005.129-.01.017-.014.023-.034.013-.01-.006-.033.005-.059.007-.059.003-.084-.012-.12-.015-.027-.002-.043.002-.07-.008-.025-.011-.048-.023-.068-.029a.478.478 0 0 0-.12-.02.207.207 0 0 0-.06.03c-.027.016-.034.066-.032.082a.94.94 0 0 0 .067.259c.015.04.006.151.042.205.037.057.055.111.074.155.01.025.04.05.054.068.015.021.022.053.034.066.028.032.053.062.095.116.01.013.031.027.03.043 0 .013-.025.014-.031.024-.008.012-.015.035-.032.042a.112.112 0 0 1-.091-.004c-.013-.006-.03.005-.043.008-.012.002-.023-.008-.032-.011a.678.678 0 0 1-.062-.041c-.015-.011-.043-.019-.067-.038-.007-.005-.042-.025-.052-.045-.023-.04-.061-.042-.085-.065-.016-.016-.035-.044-.031-.066.01-.06.043-.06.003-.188-.017-.053-.016-.116-.025-.166-.002-.01-.013-.076-.022-.096-.032-.073-.05-.16-.061-.182-.005-.008-.101.063-.163.082-.069.02-.111.022-.196.05-.073.023-.141.002-.174.004-.03.001-.1-.004-.125-.003-.034 0-.076-.027-.1-.029a.145.145 0 0 1-.054-.018c-.012-.01-.01-.03-.016-.047-.006-.013.015-.05.004-.065-.007-.008-.03-.028-.034-.038-.004-.013.01-.023.045-.016.032.007.05.005.083 0 .007-.001.045-.002.06-.008.01-.003.029.005.038.005.077-.004.221-.056.308-.076.081-.018.128-.073.155-.09.014-.01.044-.033.048-.047.002-.008-.029-.015-.04-.021-.013-.006-.02-.012-.03-.018-.013-.006-.034-.006-.048-.012-.02-.006-.026-.01-.039-.023-.018-.019-.018-.043-.044-.063-.016-.012-.044-.07-.02-.127.012-.028.027-.041.05-.044.02-.002.04-.013.053-.015.017-.002.033.01.051.009.013-.001.026-.009.049-.003.018.005.055.036.085.052.055.027.109.027.17.032a.322.322 0 0 1 .103-.116c.02-.017.038-.049.057-.077.036-.054.031-.062.037-.074.01-.02.024-.016.037-.012.043.012.04.028.053.036.02.012.04.001.052.012Z" fill="#fff"/><path fill-rule="evenodd" clip-rule="evenodd" d="m24.858 68.958-1.129-.245.325-1.298c-2.927-.25-5.053-.925-5.053-.925-.428-.295-.803-.896-.803-.896s.73.18 1.276.203c1.135.045 2.914-.105 4.197.034-.001.006.594.009 1.187.009.593 0 1.188-.003 1.187-.009 1.283-.139 3.063.01 4.197-.035.546-.021 1.276-.202 1.276-.202s-.374.601-.803.896c0 0-2.126.674-5.053.925l.325 1.298-1.129.245Z" fill="#00A650"/><path fill-rule="evenodd" clip-rule="evenodd" d="M24.858 64.258c.849.002 1.72 0 1.715-.012 1.32-.22 2.778-.125 3.492-.136.41-.007.905-.117.905-.117-.086.164-.407.58-.823.875a6.02 6.02 0 0 1-1.006.46c-.358.13-1.814.46-2.42.538-.376.047-.752.096-1.078.12l.301 1.218-1.086.184-1.086-.184.3-1.218c-.325-.024-.7-.073-1.077-.12-.606-.078-2.062-.409-2.42-.538a6.021 6.021 0 0 1-1.005-.46c-.417-.294-.737-.71-.824-.875 0 0 .495.11.905.117.714.011 2.172-.084 3.492.136-.005.012.866.014 1.715.012Z" fill="#2BB673"/><path fill-rule="evenodd" clip-rule="evenodd" d="m24.868 65.88-.01-.002-.009.002-1.024-.122.277-1.176c-.074.035-.557.007-.911-.055-.68-.118-1.342-.286-1.964-.578a4.599 4.599 0 0 1-1.006-.65 3.284 3.284 0 0 1-.79-.928c-.004.008.613.1.885.113.516.025 1.509.06 2.859.173.006.009.851.012 1.683.01.832.002 1.678-.001 1.684-.01 1.35-.113 2.343-.148 2.86-.173.272-.013.888-.105.884-.113-.1.19-.373.59-.79.928-.312.269-.687.501-1.005.65-.622.292-1.284.46-1.965.578-.354.062-.837.09-.91.055l.276 1.176-1.024.122Z" fill="#81CA9C"/><path fill-rule="evenodd" clip-rule="evenodd" d="m24.858 64.202-.978-.061.254-1.057c-.098.068-.393.059-.68.016a4.67 4.67 0 0 1-1.413-.452c-.525-.267-.924-.598-1.318-1.049-.303-.347-.59-.841-.642-1.006.064.024.298.081.532.123.295.052 1.515.31 3.11.38h2.27c1.595-.07 2.815-.328 3.11-.38.234-.042.468-.099.531-.123-.052.165-.338.66-.641 1.006-.394.45-.793.782-1.318 1.05a4.67 4.67 0 0 1-1.414.45c-.286.044-.58.053-.679-.015l.254 1.057-.978.061Z" fill="#BFE2CA"/><path fill-rule="evenodd" clip-rule="evenodd" d="m23.974 62.481.229-.937s-.297.124-.618.02c-.412-.133-.53-.445-.53-.445s-.45.054-.785-.216c-.3-.243-.333-.668-.333-.668s-.519-.104-.87-.543a1.477 1.477 0 0 1-.326-.923c.676.229 2.011.54 3.599.532l.191-.987c.021-.104.069-.41.32-.41h.015c.251 0 .299.306.32.41l.192.987c1.586.009 2.922-.303 3.598-.532 0 .125-.014.532-.326.923-.352.439-.87.543-.87.543s-.033.425-.334.668c-.333.27-.784.216-.784.216s-.118.312-.53.445c-.32.104-.618-.02-.618-.02l.23.937h-1.77Z" fill="#fff"/><path fill-rule="evenodd" clip-rule="evenodd" d="M24.062 62.412h1.593l-.241-.985.127.053s.139.056.32.056c.088 0 .172-.012.25-.038.372-.12.482-.392.486-.404l.02-.05.053.006s.034.004.087.004c.147 0 .425-.026.646-.205.274-.221.307-.615.308-.619l.004-.052.051-.01c.005-.002.5-.106.83-.52.23-.287.293-.586.307-.782-.474.151-1.763.504-3.46.504h-.123l-.01-.056-.192-.986-.004-.016c-.032-.167-.087-.339-.248-.339h-.015c-.161 0-.216.172-.249.339l-.003.016-.192.986-.01.056h-.122c-1.697 0-2.988-.353-3.461-.504.014.196.078.495.307.782.33.413.825.518.83.52l.051.01.004.052c0 .004.035.399.308.619.22.179.5.205.645.205a.847.847 0 0 0 .088-.004l.054-.006.019.05c.004.012.114.284.486.404a.807.807 0 0 0 .25.038c.181 0 .319-.056.32-.056l.127-.053-.241.985Zm1.77.138h-1.947l.222-.904c-.065.015-.153.03-.252.03a.95.95 0 0 1-.291-.046.938.938 0 0 1-.551-.438h-.054c-.164 0-.478-.03-.732-.235-.26-.21-.334-.54-.353-.666a1.71 1.71 0 0 1-.861-.556 1.544 1.544 0 0 1-.341-.966v-.096l.091.03c.367.124 1.705.529 3.512.529h.007l.181-.932.003-.015c.024-.123.088-.45.385-.45h.015c.297 0 .36.327.385.45l.002.015c.014.066.143.733.182.932h.007c1.807 0 3.145-.405 3.511-.529l.092-.03v.096c0 .2-.043.593-.341.966a1.71 1.71 0 0 1-.861.556c-.02.126-.093.456-.353.666-.286.23-.65.24-.786.235a.934.934 0 0 1-.551.438.948.948 0 0 1-.291.045c-.1 0-.187-.014-.252-.03l.221.905Z" fill="#005C33"/><path fill-rule="evenodd" clip-rule="evenodd" d="M24.766 58.377s-.002.005.218-.049c.69-.168 1.5-.635 1.946-1.117.043-.046.1-.12.1-.12.047-.084.082.056-.078.246-.405.481-1.3 1.025-2.172 1.182-.106.02-.122-.13-.014-.142Z" fill="#fff"/><path fill-rule="evenodd" clip-rule="evenodd" d="M25.532 58.146s-.153-.227-.113-.486c.04-.26.27-.465.27-.465s.075.233.085.522c.008.219-.242.429-.242.429ZM26.1 57.853s-.148-.227-.114-.49c.034-.262.245-.475.245-.475s.076.235.09.526c.011.222-.22.44-.22.44ZM25.57 58.276s.202-.096.44.01c.238.107.434.313.434.313s-.165.087-.512.009c-.268-.061-.362-.332-.362-.332ZM26.597 57.517s-.138-.218-.107-.47c.032-.253.228-.457.228-.457s.07.225.083.505c.01.213-.204.422-.204.422ZM27.016 57.176s.209-.026.304-.286c.086-.234.087-.507.087-.507s-.18.07-.339.334c-.13.217-.052.46-.052.46ZM26.152 57.987s.224-.104.474-.03c.25.074.443.286.443.286s-.24.06-.526.029c-.217-.023-.39-.285-.39-.285ZM26.675 57.612s.19-.17.437-.16c.238.01.45.063.45.063s-.165.187-.429.242c-.2.043-.458-.145-.458-.145ZM15.419 63.692l-.005.241c0 .052.01.092.03.118.021.027.053.04.097.041.037 0 .065-.013.084-.04a.223.223 0 0 0 .03-.123l.004-.232-.24-.005Zm-.476-.008-.005.256c0 .054.011.096.037.124.025.027.064.042.116.043.045 0 .08-.013.103-.04.023-.028.035-.07.036-.127l.005-.25-.292-.006Zm.908-.186-.001.101-.007.387a.33.33 0 0 1-.078.227.259.259 0 0 1-.205.079c-.09-.002-.16-.034-.205-.096a.236.236 0 0 1-.021-.034.247.247 0 0 1-.25.156c-.111-.003-.196-.036-.253-.1-.058-.066-.085-.16-.083-.282l.006-.356.002-.1 1.095.018ZM14.773 64.764l1.088-.133.09.736-.096.012-.097.011-.065-.527-.23.028.06.49-.093.011-.094.012-.06-.49-.284.035.068.55-.096.013-.097.012-.094-.76ZM15.99 65.666l.02.103.02.103-1.076.21-.02-.104-.02-.103 1.075-.21ZM16.197 66.545l.027.102.027.101-.76.204c-.108.03-.197.025-.266-.014-.069-.038-.117-.109-.145-.212-.03-.11-.02-.199.026-.266.047-.067.134-.116.26-.147l.064-.017.052.194-.063.017a.27.27 0 0 0-.136.064c-.026.028-.033.062-.022.104.01.04.03.066.057.078.027.011.066.01.118-.004l.76-.204ZM16.368 67.041l.038.098.038.099-1.023.392-.038-.098-.037-.098 1.022-.393ZM15.651 68.17l-.042-.09-.041-.089.993-.463.046.1.047.1-.526.692.697-.325.041.089.042.09-.993.462-.044-.095-.045-.095.54-.71-.715.334ZM16.355 69.544a.432.432 0 0 1-.061-.377.63.63 0 0 1 .28-.335.632.632 0 0 1 .43-.12c.137.018.247.091.33.219a.454.454 0 0 1 .081.308.398.398 0 0 1-.15.263l-.115-.176a.189.189 0 0 0 .065-.13.255.255 0 0 0-.238-.276.467.467 0 0 0-.282.091.46.46 0 0 0-.198.217c-.027.077-.014.155.038.236v-.001a.217.217 0 0 0 .188.105.424.424 0 0 0 .143-.027l.002-.001-.13-.2.16-.102.229.354-.496.322-.076-.118.107-.095h-.021a.333.333 0 0 1-.287-.157ZM18.063 69.937l.07.078.071.079-.814.733-.07-.078-.071-.079.814-.733ZM17.813 71.263l-.072-.067-.072-.067.747-.801.081.075.08.075-.228.839.524-.563.072.067.072.067-.747.801-.153-.142.235-.861-.539.577ZM19.529 71.672a.166.166 0 0 0 .022-.137.232.232 0 0 0-.095-.126.19.19 0 0 0-.123-.042.133.133 0 0 0-.1.06c-.02.026-.022.056-.006.09a.901.901 0 0 0 .123.167c.097.115.152.206.165.273.012.066-.01.14-.071.224a.298.298 0 0 1-.235.132.466.466 0 0 1-.297-.104.435.435 0 0 1-.186-.254.37.37 0 0 1 .068-.289l.164.12a.178.178 0 0 0-.032.142.23.23 0 0 0 .097.128c.054.04.103.06.148.064a.11.11 0 0 0 .103-.046c.024-.034.03-.066.02-.098a.547.547 0 0 0-.102-.148c-.106-.126-.168-.222-.185-.29-.017-.068.002-.14.058-.217a.32.32 0 0 1 .235-.142.418.418 0 0 1 .287.093.394.394 0 0 1 .166.24c.02.094 0 .188-.058.28l-.166-.12ZM20.247 71.96l-.267-.148.047-.085.048-.085.716.397-.046.084-.048.086-.266-.148-.437.788-.091-.05-.093-.052.437-.788ZM21.014 72.148l.095.044.095.045-.463.992-.095-.044-.095-.045.463-.992ZM21.636 72.627l-.287-.1.031-.091.032-.092.774.266-.031.092-.032.092-.288-.099-.293.852-.1-.034-.1-.035.294-.851ZM23.037 73.549c-.037.151-.095.254-.174.305-.079.052-.188.06-.328.026-.134-.033-.224-.093-.271-.18-.047-.086-.052-.202-.017-.348l.166-.663.102.026.102.025-.167.67c-.019.076-.017.137.005.183.022.046.065.077.129.093.068.017.121.012.16-.016.037-.027.066-.082.087-.165l.167-.67.102.026.102.025-.165.663ZM23.722 73.151l-.302-.037.012-.096.012-.097.813.1-.012.096-.012.097-.302-.037-.11.894-.104-.013-.105-.013.11-.894ZM24.535 74.117l-.02-1.096.742-.012.002.096.001.098-.53.01.003.232.493-.009.002.094.001.094-.492.01.005.285.554-.01.002.097.002.097-.765.014ZM26.878 73.635a.467.467 0 0 0 .019-.287.484.484 0 0 0-.126-.265.232.232 0 0 0-.218-.063.232.232 0 0 0-.177.139.488.488 0 0 0-.017.294.466.466 0 0 0 .124.259c.06.056.132.076.217.06a.236.236 0 0 0 .178-.137Zm-.517.244a.625.625 0 0 1-.208-.385.644.644 0 0 1 .047-.443.434.434 0 0 1 .317-.222.435.435 0 0 1 .377.087.648.648 0 0 1 .21.393.624.624 0 0 1-.05.435.439.439 0 0 1-.317.219.44.44 0 0 1-.376-.084ZM27.631 73.732l-.338-1.042.681-.221.03.092.03.093-.481.156.076.237.42-.137.03.09.029.09-.42.136.143.441-.1.032-.1.033ZM28.956 72.233l-.269.143-.045-.086-.046-.086.724-.385.045.086.046.086-.269.143.423.795-.093.05-.093.05-.423-.796ZM30.14 72.61l-.596-.918.622-.404.053.081.053.082-.446.29.127.194.413-.268.051.079.052.08-.414.267.156.24.465-.302.053.081.053.082-.642.416ZM31.525 71.079a.465.465 0 0 1 .09.32.417.417 0 0 1-.158.277.411.411 0 0 1-.358.099.64.64 0 0 1-.364-.24.666.666 0 0 1-.178-.406.409.409 0 0 1 .158-.338.43.43 0 0 1 .295-.11.433.433 0 0 1 .29.13l-.161.135a.212.212 0 0 0-.145-.063.226.226 0 0 0-.15.059.21.21 0 0 0-.076.196c.01.08.053.167.13.259.076.09.152.146.229.168a.21.21 0 0 0 .204-.042.211.211 0 0 0 .08-.143.246.246 0 0 0-.047-.166l.161-.135ZM31.27 70.332l.07-.078.071-.079.305.275.264-.293-.305-.275.07-.078.071-.078.814.733-.07.078-.07.078-.37-.332-.263.293.368.332-.07.078-.07.079-.815-.733ZM33.028 69.948l-.056.08-.057.08-.897-.627.127-.181.862.11-.63-.441.056-.08.057-.082.897.629-.06.085-.06.087-.886-.113.647.453ZM33.689 68.34a.467.467 0 0 0-.212-.196.49.49 0 0 0-.285-.069.234.234 0 0 0-.186.13.234.234 0 0 0-.003.226c.038.075.11.14.217.197a.47.47 0 0 0 .28.067.234.234 0 0 0 .183-.13.235.235 0 0 0 .006-.226Zm-.136.555a.624.624 0 0 1-.43-.08.647.647 0 0 1-.315-.316.437.437 0 0 1 .026-.386.436.436 0 0 1 .306-.238c.134-.028.28 0 .438.085a.626.626 0 0 1 .307.31c.05.126.04.254-.03.386a.44.44 0 0 1-.302.239ZM34.207 67.814l-1.022-.392.037-.098.038-.099.84.323.18-.468.091.035.091.035-.255.664ZM34.48 66.082a.466.466 0 0 0-.253-.138.485.485 0 0 0-.294.001.233.233 0 0 0-.148.171.233.233 0 0 0 .051.22c.055.064.14.11.259.14a.472.472 0 0 0 .287-.003.235.235 0 0 0 .146-.172.236.236 0 0 0-.048-.22Zm.002.572a.624.624 0 0 1-.437.026.647.647 0 0 1-.381-.23.435.435 0 0 1-.068-.38.435.435 0 0 1 .239-.306.646.646 0 0 1 .445-.024c.17.042.294.118.373.228.079.109.1.236.064.38a.44.44 0 0 1-.235.306ZM34.94 64.967a.433.433 0 0 1-.184.334.631.631 0 0 1-.427.093.634.634 0 0 1-.412-.172.45.45 0 0 1-.125-.375.45.45 0 0 1 .125-.293.396.396 0 0 1 .281-.115l-.018.21a.188.188 0 0 0-.132.063.225.225 0 0 0-.066.14.254.254 0 0 0 .084.223.47.47 0 0 0 .278.102c.124.01.22-.005.29-.05.068-.043.107-.112.115-.208v.001a.22.22 0 0 0-.084-.199.414.414 0 0 0-.13-.067h-.002l-.02.237-.188-.017.036-.42.59.05-.013.141-.143.008.017.014c.096.08.139.18.128.3ZM34.554 63.799l-.67.375-.005-.125-.004-.125.467-.227-.481-.18-.009-.238.69.31.417-.015.003.105.004.105-.412.015Z" fill="#fff"/><path fill-rule="evenodd" clip-rule="evenodd" d="M41.439 72.238h.679c.145 0 .255-.034.328-.103.072-.069.109-.172.109-.31 0-.122-.038-.213-.112-.273-.075-.06-.187-.09-.336-.09h-.668v.776Zm0-1.265h.639c.14 0 .244-.028.313-.085.069-.056.104-.142.104-.257 0-.099-.037-.173-.11-.222-.072-.05-.183-.075-.33-.075h-.616v.64Zm-.536-1.14H42.2c.258 0 .46.066.606.195.145.13.218.311.218.542 0 .241-.082.425-.245.55a.54.54 0 0 1-.09.057.762.762 0 0 1 .168.095c.17.128.257.315.257.56 0 .297-.085.523-.254.678-.17.155-.417.233-.742.233h-1.215v-2.91ZM43.745 72.743v-2.91h1.97v.517h-1.411v.618h1.309v.5h-1.31v.758h1.474v.517h-2.032ZM46.336 69.834h.558v2.909h-.558v-2.91ZM48.53 69.834h.558v2.091c0 .296-.073.52-.218.67-.146.151-.36.227-.645.227-.302 0-.524-.083-.664-.25-.141-.166-.207-.422-.197-.77v-.173h.532v.174c-.005.177.019.308.071.392.053.086.137.128.253.128.11 0 .19-.03.237-.093.048-.062.072-.163.072-.305v-2.091ZM49.743 69.834h.559v2.909h-.559v-2.91ZM51.469 72.743h-.523v-2.91h.586l1.074 2.043v-2.042h.523v2.909h-.557l-1.103-2.098v2.098ZM54.966 72.822c-.39 0-.699-.137-.928-.41-.228-.273-.343-.642-.343-1.108 0-.475.12-.852.357-1.13.238-.28.56-.42.965-.42.325 0 .593.09.803.266.211.177.334.415.37.716h-.56a.5.5 0 0 0-.196-.333.596.596 0 0 0-.387-.144.673.673 0 0 0-.57.275c-.138.182-.206.435-.206.76 0 .33.066.58.197.753.132.172.325.258.579.258h-.002c.216 0 .384-.09.506-.269.067-.101.116-.22.148-.358v-.006h-.63v-.5h1.12v1.569h-.373l-.055-.376-.032.047a.883.883 0 0 1-.765.41h.002ZM58.004 69.834h.558v2.909h-.558v-2.91ZM59.73 72.743h-.523v-2.91h.586l1.074 2.043v-2.042h.523v2.909h-.557l-1.103-2.098v2.098ZM63.526 70.706a.442.442 0 0 0-.167-.33.621.621 0 0 0-.398-.12.5.5 0 0 0-.333.1.353.353 0 0 0-.12.285c0 .087.042.154.125.202.083.047.258.103.527.168.389.095.65.205.78.329.132.122.197.32.197.591 0 .273-.099.49-.296.65-.198.16-.466.24-.803.24-.338 0-.603-.084-.794-.254-.19-.17-.292-.413-.306-.727h.54a.468.468 0 0 0 .154.356c.097.084.233.125.406.125.178 0 .317-.031.417-.094.1-.063.15-.15.15-.26 0-.11-.035-.19-.108-.241-.07-.052-.22-.105-.45-.16-.426-.104-.709-.215-.852-.335-.142-.119-.213-.304-.213-.556 0-.283.093-.506.282-.672.188-.166.442-.249.762-.249.3 0 .544.086.732.258.188.171.292.403.313.694h-.544ZM65.29 70.35h-.81v-.516h2.176v.516h-.808v2.393h-.559V70.35ZM67.093 69.834h.559v2.909h-.559v-2.91ZM68.9 70.35h-.808v-.516h2.176v.516h-.809v2.393h-.558V70.35ZM72.895 71.646c.001.416-.083.716-.252.9-.17.184-.445.276-.828.276-.367 0-.638-.096-.814-.288-.177-.192-.266-.488-.267-.888v-1.812h.559v1.832c0 .209.043.365.13.47.087.103.217.156.392.156.187 0 .32-.049.4-.144.08-.096.12-.256.12-.482v-1.832h.56v1.812ZM74.17 70.35h-.81v-.516h2.176v.516h-.808v2.393h-.559V70.35ZM76.018 72.743v-2.91h1.97v.517h-1.411v.618h1.31v.5h-1.31v.758h1.473v.517h-2.032ZM81.54 72.04c.128-.178.193-.425.193-.74 0-.322-.065-.574-.193-.756a.619.619 0 0 0-.536-.273.617.617 0 0 0-.533.273c-.129.182-.193.434-.193.756 0 .315.064.562.192.74a.622.622 0 0 0 .534.265.624.624 0 0 0 .536-.266Zm-1.473.372c-.232-.273-.348-.642-.348-1.108 0-.475.116-.852.348-1.13.232-.28.545-.42.938-.42.395 0 .709.14.94.42.231.278.347.655.347 1.13 0 .466-.116.835-.348 1.108-.23.273-.544.41-.94.41-.392 0-.705-.137-.937-.41ZM82.888 72.743v-2.91h1.904v.517h-1.345v.661h1.172v.5h-1.172v1.232h-.559ZM87.077 70.35h-.808v-.516h2.175v.516h-.808v2.393h-.559V70.35ZM88.927 72.743v-2.91h1.97v.517h-1.412v.618h1.31v.5h-1.31v.758h1.473v.517h-2.031ZM93.829 71.724c-.034.336-.155.603-.363.8-.208.199-.474.298-.795.298-.376 0-.675-.137-.897-.41-.221-.273-.332-.642-.332-1.108 0-.475.11-.852.332-1.13.222-.28.52-.42.897-.42.318 0 .581.094.79.28.209.187.331.44.368.76h-.559a.56.56 0 0 0-.187-.375.596.596 0 0 0-.406-.138c-.208 0-.37.09-.488.27-.118.18-.177.43-.177.749 0 .311.058.555.176.731.117.176.28.264.49.264a.56.56 0 0 0 .405-.154.652.652 0 0 0 .187-.418h.559ZM94.384 69.834h.56v1.09h1.046v-1.09h.559v2.909h-.56v-1.318h-1.046v1.318h-.559v-2.91ZM97.74 72.743h-.522v-2.91h.587l1.073 2.043v-2.042h.523v2.909h-.557l-1.103-2.098v2.098ZM101.788 72.04c.128-.178.193-.425.193-.74 0-.322-.065-.574-.193-.756a.62.62 0 0 0-.536-.273.618.618 0 0 0-.533.273c-.129.182-.193.434-.193.756 0 .315.064.562.192.74a.621.621 0 0 0 .534.265.625.625 0 0 0 .536-.266Zm-1.473.372c-.232-.273-.348-.642-.348-1.108 0-.475.116-.852.348-1.13.232-.28.544-.42.937-.42.396 0 .71.14.941.42.231.278.346.655.346 1.13 0 .466-.115.835-.346 1.108-.231.273-.545.41-.941.41-.393 0-.705-.137-.937-.41ZM103.137 72.743v-2.91h.558v2.393h1.331v.517h-1.889ZM107.263 72.04c.129-.178.193-.425.193-.74 0-.322-.064-.574-.193-.756a.618.618 0 0 0-.535-.273.616.616 0 0 0-.533.273c-.129.182-.193.434-.193.756 0 .315.064.562.192.74a.621.621 0 0 0 .534.265.623.623 0 0 0 .535-.266Zm-1.472.372c-.232-.273-.348-.642-.348-1.108 0-.475.116-.852.348-1.13.232-.28.544-.42.937-.42.396 0 .709.14.94.42.232.278.347.655.347 1.13 0 .466-.115.835-.347 1.108-.231.273-.544.41-.94.41-.393 0-.705-.137-.937-.41ZM109.763 72.822c-.389 0-.699-.137-.928-.41-.228-.273-.343-.642-.343-1.108 0-.475.119-.852.357-1.13.238-.28.56-.42.965-.42.325 0 .593.09.804.266.21.177.333.415.368.716h-.559a.5.5 0 0 0-.196-.333.598.598 0 0 0-.387-.144.672.672 0 0 0-.57.275c-.138.182-.206.435-.206.76 0 .33.066.58.198.753.131.172.324.258.578.258h-.002c.216 0 .385-.09.506-.269a1.1 1.1 0 0 0 .148-.358v-.006h-.63v-.5h1.12v1.569h-.373l-.054-.376-.033.047a.883.883 0 0 1-.765.41h.002ZM112.368 71.648l-.934-1.814h.666l.556 1.26v.002l.522-1.262h.634l-.885 1.802v1.107h-.559v-1.095ZM75.212 59.49c0 .113-.185.353-.319.453 0 0-.302.042-.477-.025-.137-.052-.14-.285-.126-.419.025-.26.557-.247.888-.352.04.037.034.263.034.344Zm-.52 1.677c-.067.167-.268.276-.394.293-.052.007-.217-.12-.218-.201 0-.08-.042-.26.042-.352.168.017.243-.084.352-.117.063-.02.21-.02.227.083.016.11-.009.294-.009.294Zm-1.4-1.132c-.024.218-.26.277-.443.42-.093.07-.168-.101-.168-.101-.093-.084-.039-.26-.042-.377-.009-.268.294-.176.369-.268.242-.059.318.025.284.326Zm-.284 1.735c-.08.043-.26-.008-.394-.042a.398.398 0 0 1-.034-.226.401.401 0 0 1 .109-.243c.118-.034.289-.057.453-.075.067-.008.135.054.126.134-.026.217-.151.394-.26.452Zm3.896-3.72c-.084-.068-.554-.06-.779-.06-.129 0-.243-.15-.402-.15-.153 0-1.316.419-1.735.561-.15.051-.394 0-.578.059-.283.09-.468.205-.73.302-.088.032-.37.106-.427.134-.076.036-.246.033-.326.033-.181 0-.176-.21-.344-.21-.134 0-.293.31-.268.554.02.192-.1.419-.11.545-.005.094-.058.176-.05.318.01.176.135.327.126.419-.03.343.08.852.1.98.026.16-.209.359-.209.612 0 .08.04.266.11.403.028.06.207.139.192.36-.006.08.059.184.084.251.028.075.016.143.109.168a.705.705 0 0 0 .218.033c.08 0 .212-.056.268-.059.117-.033.217-.045.293-.083.118-.059.213-.07.226.033.017.134-.033.363-.042.377a.41.41 0 0 1-.167.151c-.057.02-.104.009-.184.009s-.113.033-.193.033-.096-.059-.176-.059c-.149 0-.16.141-.176.235-.025.15-.025.21-.033.319-.005.056-.045.188-.009.26.033.067.109.108.268.133.076.067.201.059.319.042.061-.008.226.076.125.218a7.337 7.337 0 0 0-.78.344 2.859 2.859 0 0 1-.61.21c-.118.016-.135-.093-.21-.101-.08-.01-.143.126-.168.134-.126.075-.142.243-.15.318-.008.064-.019.197-.026.277-.025.276.089.402.1.603.01.143.32.25.453.235.377-.042.592-.202.712-.218.185-.025.562 0 .696-.067.128-.064.41-.143.67-.134.219.007.385-.078.553-.093.093-.007.293-.058.495-.05.2.009.41.059.562.034.079-.013.519-.035 1.03-.042.578-.008.463.123.629.109.393-.033.687-.538.687-.989 0-.317-.377-.41-.377-.611-.11-.118-.302.041-.47.008-.145-.03-.432.096-.536.109-.134.017-.278-.017-.436-.017-.159 0-.497.109-.578.109-.08 0-.21-.017-.21-.168 0-.124.101-.23.135-.251.134-.084.343-.1.435-.16.175-.11.285-.167.377-.268a.344.344 0 0 0 .068-.217c0-.08-.134-.243-.11-.528a.198.198 0 0 0-.167-.193c-.201-.029-.352-.117-.419-.134-.106-.026-.253.078-.302.142-.05.067-.276.201-.377.067-.064-.086-.042-.301 0-.385.069-.138.428-.084.495-.15.094-.094.285-.068.335-.11.073-.06.251-.042.318-.008.073.036.225-.164.26-.26.218-.603.511-1.023.78-1.626.042-.095.308-.305.351-.402.134-.302.227-.503.37-.687.056-.074.091-.193.1-.428.002-.059.204-.305.218-.46.016-.193-.185-.47-.268-.545-.055-.05-.088-.281-.135-.319ZM70.041 64.083c-.08 0-.268-.008-.344 0-.041-.025-.073-.278-.041-.352.142-.335.745-.763.913-.863.063-.038.062-.104.067-.184.008-.135-.047-.178-.193-.453-.075-.142-.034-.276-.1-.285-.1-.012-.195.114-.31.009-.101-.093-.034-.322-.034-.403 0-.08-.084-.343.05-.586.04-.071.359-.421.478-.528.168-.151.289-.252.285-.377-.008-.302.15-.428.16-.528.01-.134.117-.377.083-.461-.062-.154-.16-.57-.352-.461-.117.067-.243.059-.545.042-.596-.033-1.299.662-1.919.913-.116.047-.351.026-.444.05-.129.037-.274.07-.335.202-.043.092-.063.201-.16.243-.117.05-.209.09-.209.134 0 .08-.002.41.11.452.094.037.148-.003.2.134.022.103.138.26.243.269.117.008.269.1.377.142.13.05.377.084.327.302-.04.17-.015.521-.092.636-.1.151-.234.328-.42.344-.08.007-.22-.027-.3-.017-.243.034-.445.208-.445.461 0 .161.277.482.277.486.044.093.071.162.142.226a.473.473 0 0 1 .118.26c0 .097-.068.193-.076.327a.913.913 0 0 1-.067.252.625.625 0 0 1-.251.26c-.077.044-.278.235-.352.259-.28.09-.608.444-.62.595-.017.193.032.411.108.629.045.128.147.23.243.343.097.113.034.302.168.344.173.054.335.067.394.109.087.062.276-.009.276-.009.16-.067.42-.46.696-.62.331-.19 1.034-.463 1.425-.712.414-.266.813-.553.871-1.048a.756.756 0 0 0-.092-.335c-.043-.064-.23-.201-.31-.201ZM59.462 62.14a1.61 1.61 0 0 1-.342.303c-.19.119-.265.23-.414.319a1.358 1.358 0 0 1-.438.135c-.166 0-.242-.143-.247-.247-.008-.16.092-.243.175-.294.158-.099.36-.158.573-.247.035-.023.167-.084.223-.143.072-.064.183-.027.295-.096 0 0 .183-.064.287-.04.056.013-.04.183-.112.31Zm1.855-.023c.072-.12.255-.247.462-.47a.52.52 0 0 0-.016-.35c-.037-.067-.065-.333-.151-.454-.08-.112-.398-.255-.55-.358-.076-.053-.31.008-.374-.016-.13-.05-.258-.128-.334-.128-.141 0-.16.032-.223.072-.064.024-.12.064-.191.104a2.326 2.326 0 0 0-.223.143c-.138.095-.216.108-.374.15-.176.049-.202.08-.279.08-.076 0-.25.078-.358.128-.171.08-.377.081-.486.135-.255.128-.533.2-.66.191-.028-.056-.139-.172-.152-.198-.144-.102-.183-.152-.319-.168-.095.04-.246.096-.358.16-.104.167-.366.262-.374.7-.001.077.016.254.032.621.011.245.073.403.103.613.027.188.104.402.104.478 0 .077.03.239.04.327.028.016.053.14.071.167.04.12.023.203.088.31.03.05.125.13.151.135.159.04.346.04.422.04.077 0 .186-.047.263-.047.111 0 .207.127.334.095.056.016.112.146.112.207a3.972 3.972 0 0 0-.072.621c-.03.152 0 .385 0 .462 0 .076-.003.258-.008.335-.024.382-.15.485-.414.485-.076 0-.255-.183-.518-.175-.038 0-.358.016-.35.143.005.08.422.335.55.558.088.155.103.278.19.366.1.1.271.133.359.175.092.046.127.114.215.167.06.035.236.074.27.12.048.063.1.119.176.119.076 0 .245-.13.382-.199.191-.096.301-.362.414-.414.103-.048.382-.303.39-.581.01-.327.088-1.831 0-2.055-.078-.2-.072-.385-.072-.461 0-.16.168-.279.223-.255.08.034.203.015.24-.032.11-.143.245-.279.318-.406.247-.43.437-.877.724-1.266.112-.151.223-.374.223-.374Z" fill="#231F20"/><path fill-rule="evenodd" clip-rule="evenodd" d="M62.826 64.96c-.118-.162-.476-.591-.638-.56-.072.013-.192.042-.266.042-.073 0-.218-.11-.31-.097a.856.856 0 0 1-.315-.03c-.075-.02-.263-.167-.314-.16-.16.024-.209-.087-.31-.072-.128.096-.043.326-.105.411a.359.359 0 0 0-.023.282c.03.067.111.176.12.454.003.122.198.215.206.406.004.078.198.335.255.47.044.107-.002.265.016.35.037.166.144.263.247.263.074 0 .172-.113.318-.151.087-.023.218.01.303-.008.151-.037.262-.066.358-.144.078-.066.17-.19.207-.239.078-.096.103-.28.175-.358.093-.1.17-.125.224-.294.022-.07.047-.267.021-.319-.062-.125-.117-.176-.169-.246ZM56.85 66.074c.04-.047.05-.226.048-.302 0 0 .072-.152.04-.271-.016-.062-.09-.08-.167-.08 0 0-.441-.008-.478.008-.087.04-.294.103-.414.103-.095 0-.11-.485-.39-.485-.076 0-.207.11-.31.167-.245.138-.346.461-.422.725-.027.095-.168.242-.168.318 0 .077.08.194.08.271 0 .076-.056.266-.056.343 0 .328.267.453.55.453.137 0 .389-.168.462-.191.084-.027.222.048.35-.032.154-.096.222-.111.302-.207.107-.126.08-.255.152-.43.03-.073.183-.111.215-.159.07-.107.151-.165.207-.23ZM63.42 58.343c-.136-.016-.28-.144-.351-.31-.034-.08-.209-.072-.295-.096-.111-.032-.21-.13-.286-.12a4.133 4.133 0 0 0-.661.151c-.185.056-.952.23-1.155.271-.12.024-.127-.111-.063-.199.238-.199.342-.206.326-.597-.016-.39-.199-.454-.263-.581-.04-.082-.055-.325-.111-.398-.058-.075-.306-.073-.343-.104-.095-.08-.097-.152-.19-.151-.077 0-.245.015-.367 0-.092-.011-.218-.036-.294-.032-.136.008-.135.054-.247.096-.064.024-.193.005-.247.024-.048.016-.134.098-.255.103-.154.007-.308-.062-.438.072-.073.076-.112.174-.087.247.04.119.342.557.294.716-.037.123-.063.215-.096.287-.04.111-.056.147-.087.23-.027.07-.077.166-.056.24.016.055.134.158.231.175.098.017.191-.04.239.08.02.047.06.185.04.23-.056.127-.24.175-.343.2-.167.039-.74.206-.835.254-.104.088-.271.016-.454.064a7.593 7.593 0 0 1-1.067.215c-.119.011-.37.15-.446.15-.076 0-.132-.133-.207-.118-.207.04-.633.274-.78.398-.069.057-.078.17-.073.27.008.159.022.309.017.343-.024.159-.032.35.104.414.11.052.307-.015.39.024.167.08.097.173.214.151.128-.024.24-.08.263-.151.032-.02.227-.1.303-.104.143-.008.286-.008.358-.096 0 0 .17-.028.223-.007.064.023.207.007.279-.008.125-.028.239-.088.318-.088.127 0 .212.001.295-.04.095-.048.175.007.35-.087.104-.056.31-.056.374-.096.12-.075.29.01.383-.103.071-.088.783-.184 1.377-.343.239-.063.514-.233.59-.246.174-.032.325.04.405.015.155-.072.27-.105.422-.151.103-.032.319-.104.422-.127l.462-.056c.077 0 .505-.034.581-.04.215-.016.279.145.343.103.183-.119.613-.294.636-.54.016-.16.016-.283.016-.36 0-.076-.097-.167-.159-.174ZM113.829 60.075c-.093-.11-.243-.063-.313-.112-.128-.09-.191-.055-.278-.079-.073-.02-.167-.156-.245-.18-.08-.024-.198.003-.302.014-.063.06-.284.24-.437.242-.083.002-.216.029-.227-.071-.015-.146.036-.33.078-.488.042-.151.086-.326.098-.379.015-.064.107-.296.115-.329.107-.32.1-.654.39-.937.167-.163.533-.363.494-.41-.079-.1.029-.353.044-.47a.295.295 0 0 0-.091-.267 2.17 2.17 0 0 0-.367-.229.339.339 0 0 0-.337.04c-.049.037-.072.123-.101.144-.099.066-1.034.21-1.131.598-.047.188.23.298.226.54a.81.81 0 0 1-.082.296c-.039.087-.107.253-.177.27-.085.023-.207-.004-.317.157-.169.249.031.302.032.368.003.112-.135.17-.177.213-.043.043-.11.145-.222.172-.051.012-.056.277.076.376.078.058.269.045.339.111.081.2-.175.389-.374.392-.276.005-.079-.366-.205-.332-.232.063-.493-.114-.418-.219.042-.06.357-.492.345-.5.301-.617.471-.754.46-.93-.011-.16-.19-.296-.213-.315-.071-.057-.022-.337.002-.394.063-.154.167-.288.338-.441.137-.124.279-.368.173-.506-.089-.116-.231-.307-.412-.32a.46.46 0 0 0-.216.045c-.051.035-.146-.011-.216.021-.177.08-.211.39-.268.5-.092.174-.285.473-.363.475-.087-.024-.216-.248-.298-.246-.088.001-.274.212-.272.273.001.08.146.263.163.433.011.108-.073.27-.149.405-.078.14-.139.446 0 .486.105.03.068-.085.24-.114.147-.024.3-.139.344-.131.086.015.351.287.207.49-.054.078-.192.398-.374.36-.061-.014-.092-.148-.159-.2-.097-.073-.336.057-.424-.017-.06-.05-.113-.04-.107-.191.004-.101-.056-.753-.118-.82a.34.34 0 0 1-.082-.24c.002-.17-.025-.411-.12-.4a.394.394 0 0 0-.248.138c-.086.104-.159.279-.15.354.004.03.046.133.057.242.012.125.015.403.004.73-.005.132.101.35.087.509-.008.08-.032.674-.031.755.003.173.075.317.197.365.084.033.136-.06.189-.104.051-.042.145-.07.135-.186-.009-.09.021-.286.115-.321.13-.048.19.13.168.215-.032.126-.012.17.082.259.053.049.206-.086.284-.115.146-.052.257-.105.312.029a.143.143 0 0 1-.032.168.74.74 0 0 1-.222.146c-.071.014-.204.093-.284.097a2.575 2.575 0 0 0-.517.093c-.095.027-.242.014-.32.023-.086.01-.266.122-.37.098-.053-.012-.147-.094-.185-.19-.036-.09.109-.22.132-.387.011-.08-.006-.247.003-.327.022-.202-.084-.35-.086-.443a18.614 18.614 0 0 0-.037-.661c-.011-.126.03-.236.02-.336-.006-.06-.013-.235.013-.268.05-.068.012-.22-.005-.243-.053-.075.004-.26-.033-.394-.034-.123-.017-.193-.048-.317-.027-.12-.029-.142-.116-.174-.077-.029-.076.085-.137.086-.065.001-.206-.009-.268.005-.149.034-.28.264-.184.321.049.03.092.4.087.56-.016.537.091.761.069.98-.036.358-.071.843-.07.923.001.08.033.331.077.451.026.08.117.228.118.308.001.08-.125.135-.153.154a1.464 1.464 0 0 1-.447.175c-.115.023-.216-.021-.227-.172-.018-.244-.061-.632-.107-.669-.062-.049-.147.011-.147.011-.219.331-.326.643-.521.864a.643.643 0 0 1-.214.138c-.077.044-.145.208-.116.304.138.45-.017.508-.013.746.005.26.161.639.238.742.106.139.187.152.314.128.301-.055.495-.368.81-.617a1.5 1.5 0 0 0 .187-.221c.177-.255.25-.41.397-.519.128-.094.429-.198.636-.254.156-.042.413-.082.534-.11.227-.051.526-.067.699-.087.111-.013.363-.06.43-.091.095-.044.319-.11.431-.1.338.028.683-.004.854-.09.077-.04.428-.033.544-.077.137-.053.511-.07.517-.06.054.092-.065.383-.217.415-.086.018-.308.19-.394.191-.155.003-.235-.054-.356-.086-.064-.016-.216.03-.346.015-.077-.009-.364-.036-.424-.001-.072.041-.199.118-.179.128-.253.076-.233.063-.301.106-.095.06-.304.044-.362.065-.177.068-.325.08-.482.118-.112.027-.328.014-.423.04-.034.01-.1.071-.171.113-.103.06-.364-.052-.457.033-.281.256-.258.691-.325.768-.059.068-.09.261-.087.42.002.143-.015.222.117.284a.46.46 0 0 0 .311.003c.104-.036.267-.08.369-.191.094-.103.242-.214.324-.215.083-.002.316-.08.295.028a1.663 1.663 0 0 1-.141.371c-.041.085-.022.305-.053.378-.025.06-.024.126-.11.178-.085.052-.11.089-.308.157-.157.055-.356.051-.508.134-.136.075-.327.257-.41.259-.084.001-.343-.112-.426-.11-.183.003-.524.21-.582.362-.059.157-.097.399-.095.48.001.08-.056.294.049.35.057.031.168.048.218.097.185.181.32.12.478.118.083-.002.385-.185.532-.194.182-.012.503-.068.647-.112.146-.044.564-.118.629-.111.225.02.242.162.186.264-.175.322-.321 1.037-.673 1.152-.166.054-.5.093-.854.158-.202.037-.41.032-.351.173.045.109.655.373.659.626.003.129-.037.344.042.41.165.065.434.068.683.004.163-.04.163-.094.456-.125.163-.017.372-.141.568-.202.283-.09.261-.483.384-.753.023-.031.211-.186.202-.347-.013-.201.062-.35.109-.527.042-.157.037-.315.057-.457.023-.16-.042-.427-.035-.536.013-.207.617-.32.772-.348.099-.018.234-.088.335-.115.201-.053.31-.056.491-.093.104-.02.201-.144.281-.24.094-.11.104-.409.121-.487.033-.143-.152-.18-.184-.19-.235-.071-.378-.17-.471-.193-.26-.063-.367-.236-.479-.243-.082-.005-.164.132-.275.148-.137.019-.308.139-.42.166-.112.027-.216.012-.235-.046-.048-.156.025-.386.079-.463.101-.144.327-.356.416-.417a.941.941 0 0 0 .306-.324c.084-.17.483-.529.837-.593.177-.033.414-.058.484-.009.094.066.351.073.381.035.068-.084.207-.129.3-.13.476-.008.884-.162.981-.26.103-.103.165-.473.179-.649.014-.172-.026-.553-.168-.718ZM45.813 59.331c-.022-.156-.163-.3-.288-.448-.056-.066-.221-.098-.268-.127a.844.844 0 0 0-.302-.08c-.078 0-.398.022-.467.01-.147-.028-.327-.023-.458-.05-.099-.02-.21-.15-.284-.16-.079-.01-.136.025-.182.078-.117.138-.175.136-.29.225a.178.178 0 0 0-.004.188c.064.116.277.204.259.66-.015.377-.134.58-.157 1.022-.012.23-.153.325-.254.47-.125.105-.372.183-.52.238-.075.027-.282.023-.378.026-.18.005-.339.133-.52.163-.142.023-.39.117-.375.37.025.444-.032.434-.036.64-.002.163.055.21.077.312.032.154.003.286.082.452.048.1.1.115.178.15.073.035.203-.015.28-.035.114-.031.283-.135.362-.133.079.001.27-.004.394-.05 0 0 .16.035.203.126.039.083.026.877.026.877-.012.188-.255.315-.384.379-.223.11-.53.36-.827.46-.104.036-.313.06-.48.18a2.646 2.646 0 0 1-.446.263c-.083.04-.2.002-.288.028-.07.019-.182.128-.184.26-.001.05.078.214.109.337.026.109-.003.319.083.387.17.134.199.123.307.235.143.152.328.498.476.434.24-.102.7-.513.747-.536.147-.08.357-.104.48-.204a3.52 3.52 0 0 1 .786-.462c.206-.091.45-.173.611-.277.15-.095.312-.459.575-.547.242-.08.492-.267.663-.406a.547.547 0 0 0 .22-.34c.054-.303.155-.506.174-.628.012-.078-.047-.174-.06-.289-.01-.086-.02-.13-.03-.189-.01-.059-.113-.1-.11-.321.003-.148.024-.395.034-.475.028-.229.073-.399.083-.556.034-.507.045-.68.05-.917 0-.078.039-.393.065-.507.094-.22.21-.412.23-.488.026-.098.021-.372.016-.45-.007-.107.041-.157.022-.295ZM51.093 64.865a1.445 1.445 0 0 0-.45-.048c-.07.006-.212-.07-.285-.112-.028-.016-.205-.012-.294-.063a1.918 1.918 0 0 0-.41-.056c-.163-.015-.432-.09-.576-.256-.203-.233-.143-.454-.21-.684a.991.991 0 0 1-.026-.402c.038-.203.136-.727.26-.831.223-.045.562-.21.753-.364.164-.13.32-.155.472-.263.096-.069.175-.193.34-.24.17-.047.251-.068.395-.099.107-.023.2-.12.193-.218-.006-.078-.014-.33-.067-.419-.104-.174-.165-.552-.317-.587-.27-.063-.443-.256-.563-.199-.099.047-.174.161-.347.199-.093.154-.313.093-.35-.12-.016-.09.08-.401.08-.401.111-.26.408-.353.424-.788a1.545 1.545 0 0 0-.146-.568c-.042-.09-.111-.197-.185-.208-.065-.01-.18-.012-.237-.053-.08-.059-.104-.158-.284-.17-.13-.007-.316.077-.394.076-.08-.001-.186-.066-.31-.063-.08.002-.235.08-.346.076-.129-.003-.319-.087-.409-.08-.155.01-.252.028-.307.215-.043.147-.017.533-.017.533-.002.078-.11.604-.17.792-.06.185-.104.31-.115.49-.005.078-.018.487-.047.802-.005.063-.082.31-.107.514-.029.238-.094.203-.116.506-.004.06-.128.246-.136.31-.076.613-.167.66-.165.98 0 .079 0 .467.063.608.026.058.053.316.05.394l.026.41c0 .08.122.552.137.658.005.037 0 .451.04.55.046.117.22.417.294.473.075.055.195.14.317.177.139.044.446.001.63.036.161.03.354.12.433.122 0 0 .368.015.507.01.099-.005.336-.021.516.049.074.029.219.143.334.145.114.002.295-.043.477-.114.14-.055.39-.002.485-.074.116-.088.135-.252.188-.423.07-.228.189-.438.224-.644.036-.212-.057-.508-.252-.578ZM89.745 65.114a.998.998 0 0 0-.043-.318c-.098-.248-.332-.298-.468-.375-.107-.063-.252-.164-.357-.198-.121-.04-.28-.092-.362-.096a1.499 1.499 0 0 0-.336.033c-.12.028-.186.136-.349.136-.418 0-.964-.017-1.343.032-.106-.091-.048-.396-.038-.746.003-.102 0-.223.05-.288.064-.082.06-.176.073-.27.013-.083.016-.144.1-.259.042-.059.12-.194.116-.276-.014-.385-.2-.241-.173-.607.027-.35.358-.348.728-.51.105-.043.314-.166.363-.245.103-.166.317-.292.474-.403.328-.23.576-.225.602-.557.004-.048-.129-.153-.15-.24-.033-.134-.056-.27-.118-.356-.103-.145-.253-.218-.374-.362-.06-.07-.175-.145-.257-.15-.082-.004-.14.048-.302.044-.132-.003-.26-.002-.344.042-.5.264-.74.368-1.223.517-.06.019-.172.069-.201.075-.066.017-.165.051-.286.08-.552.126-1.549.283-1.63.273-.212-.028-.61-.201-.683-.164-.185.093-.374.108-.376.322-.001.082.041.348.037.43-.004.081.017.372.079.448.152.187.284.371.304.554.023.206 0 .405.156.461.192.07.506-.033.506-.033.081.005.26-.08.396-.065.073.03.085.21.084.364-.002.188-.041.33-.084.457-.102.302-.135 1.104-.798 1.368-.311.124-.735.338-1.023.425-.091.029-.267.037-.37.075-.306.108-.854.334-.934.353-.147.035-.37-.057-.451-.041-.104.02-.67.238-.757.422.053.116.062.293.044.472-.008.082-.024.28.014.386.277.261.564.645.7.66.081.01 1.215-.485 1.832-.699a7.007 7.007 0 0 1 1.494-.306c.24-.016.579.056.845.018.228-.031.602-.08.741-.106.181-.033.459-.104.772-.062.153.02.624-.02.761-.003.238.03.62.068.834.07.188 0 .336-.043.507-.042.145 0 .41.08.491.085.082.005.207-.018.454-.027.095-.004.172-.14.235-.236.044-.071.113-.194.117-.276a.277.277 0 0 0-.034-.172c-.023-.012-.044-.077-.045-.114ZM103.28 66.44c-.046-.084-.2-.095-.295-.135a12.228 12.228 0 0 0-.857-.32c-.097-.033-.234-.178-.376-.243-.12-.053-.362-.099-.494-.196-.231-.173-.494-.406-.866-.594-.348-.175-.64-.785-.844-.952-.624-.508-.901-.832-1.142-1.164-.057-.08-.17-.362-.079-.536.064-.121.153-.27.227-.332.108-.09.564-.234.691-.263.128-.03.281-.036.451-.059.17-.023.243-.094.396-.167.193-.092.377-.089.673-.289.134-.09.218-.212.291-.215.137-.005.144-.053.14-.175-.011-.303-.143-.662-.367-.697-.248-.038-.436-.019-.526-.169-.07-.116-.606.004-.606.004-.082.002-.257.184-.4.279-.094.061-.242.079-.338.114-.097.035-.252.114-.286.13-.085.037-.16.073-.229.059-.071-.016-.001-.282.005-.334.092-.25.196-.455.237-.571.039-.113-.04-.17-.062-.306-.024-.151.05-.244-.105-.32-.175-.089-.357-.201-.449-.37-.035-.064-.418.007-.564-.022-.094-.019-.167.1-.304.096-.094-.003-.132-.098-.394-.03-.083.023-.16.04-.156.177.002.082.053.109.026.503-.014.206-.006.428-.065.583-.133.346-.21.571-.19.92-.336.166-.62.33-.996.352-.206.011-.496-.043-.606-.014-.141.038-.184.118-.251.163-.092.062-.212.05-.295.113-.064.048-.13.167-.23.238-.113.082-.155.202-.133.38.048.383.373.6.491.615.198.028.275.15.426.2.112.03.146.028.273-.002.094-.011.206-.075.288-.078.082-.003.132.004.213 0 .082-.002.27-.062.282-.009.02.084-.068.296-.115.388-.088.174-.166.609-.539.95-.401.369-1.004 1.086-1.396 1.339-.051.032-.175.05-.21.092-.066.08-.263.194-.3.224-.156.124-.247.193-.436.255-.202.066-.25.162-.188.22.045.042.235.073.294.1.104.048.106.302.174.353.088.065.136.18.229.197a.93.93 0 0 0 .34-.063c.134-.065.442-.05.618-.158.133-.083.518-.267.67-.366.167-.108.59-.208.903-.552.365-.402.584-.537.884-.86.269-.287.562-.954.608-.926.131.081.487.487.881.773.108.078.37.394.408.438.202.239.383.575.635.806.6.551.433.651.556.997.046.13.235.22.367.252.195.05.399-.058.644.088.117.07.361.073.413.08.187.025.358-.021.469-.008.111.013.412.034.453.027.06-.01.146.012.204-.041.053-.05.117-.16.199-.17a.676.676 0 0 0 .495-.256c.074-.088.035-.232.04-.318.005-.07.134-.153.095-.225Z" fill="#231F20"/></g><defs><filter id="a" x="-13" y="0" width="154" height="157" filterUnits="userSpaceOnUse" color-interpolation-filters="sRGB"><feFlood flood-opacity="0" result="BackgroundImageFix"/><feColorMatrix in="SourceAlpha" values="0 0 0 0 0 0 0 0 0 0 0 0 0 0 0 0 0 0 127 0" result="hardAlpha"/><feOffset dy="16"/><feGaussianBlur stdDeviation="6.5"/><feColorMatrix values="0 0 0 0 0 0 0 0 0 0 0 0 0 0 0 0 0 0 0.03 0"/><feBlend in2="BackgroundImageFix" result="effect1_dropShadow_49_4883"/><feBlend in="SourceGraphic" in2="effect1_dropShadow_49_4883" result="shape"/></filter></defs></svg>