<svg width="128" height="128" fill="none" xmlns="http://www.w3.org/2000/svg"><path fill-rule="evenodd" clip-rule="evenodd" d="M29.457 49c8.537 0 15.457 6.92 15.457 15.457s-6.92 15.457-15.457 15.457S14 72.994 14 64.457 20.92 49 29.457 49Zm6.535 21.814.005.005c.059-.005.32-.015.35-.05a.371.371 0 0 0-.006-.186c-.047-.12-.283-.399-.438-.404l-.024.02c-.042.164.072.353.152.448-.012.062-.04.095-.04.167Zm-13.13 1.123-.015-.045c.06-.15.168-.294.221-.438.023-.063.02-.121.054-.172.08-.12.32-.142.37-.286.024-.072-.003-.18-.05-.212-.03-.02-.076-.007-.093-.039-.033-.061.053-.172.074-.212.12-.236.024-.713-.242-.713-.062.034-.161.104-.177.182l-.005.172a8.414 8.414 0 0 1-.202.576c-.04.103-.056.215-.113.3a.795.795 0 0 1-.236.212l-.064.03-.01.054c.033.022.075.03.128.034.043.074-.024.155-.05.222-.068.183-.326.591-.098.758.045.033.114.05.178.025l.256-.099c.163-.048.438-.051.477-.216.011-.046-.015-.081-.03-.104-.12-.182-.225-.015-.374-.03Zm2.028-.222c-.018-.041-.056-.066-.118-.064l-.06.015c-.087.045-.06.214-.142.256l-.079.014c-.067.032-.146.068-.217.109-.17.098-.326.229-.492.33l-.172.093-.089.079c-.049.028-.111.025-.148.064-.024.194.141.402.394.3.054-.021.299-.345.32-.408.04-.022.088-.007.148-.02.118-.026.233-.055.37-.034.095.014.236.048.275-.02.075-.13-.01-.324-.01-.458 0-.079.052-.194.02-.256Zm-.537.566c-.055-.047.172-.186.212-.212.147.01-.113.255-.212.212Zm1.137-.527c-.075-.102-.12-.233-.3-.231l-.03.025a.57.57 0 0 0 0 .201c.011.063-.027.11-.014.158l.044.069c.063.12.094.196.207.266.137-.002.3-.13.236-.29-.032-.081-.096-.135-.143-.198Zm-3.717-2.314c-.145.08-.067.236-.034.37l-.02.236c-.054.325-.135.724-.108 1.098l.005.345c.016.104.053.403.024.502-.029.102-.143.14-.197.216-.113.16-.277.318-.438.429-.165.114-.333.212-.369.457.041.063.048.06.128.09.04.014.068.059.138.043.156-.035.412-.398.492-.531.036-.06.043-.144.079-.197.04-.059.111-.227.207-.202.053.033.102.189.212.128.064-.031.09-.212.068-.31-.024-.112-.06-.241-.083-.374-.014-.081.023-.13.01-.207l-.02-.158c.051-.286.06-.565.143-.812.065-.193.176-.364.221-.561.016-.07-.026-.113-.04-.158-.055-.194-.172-.404-.418-.403Zm-.748 2.467c.029.213-.197.39-.138.551l.079.01c.063-.055.132-.131.177-.202.023-.036.027-.072.06-.098.123-.098.27-.159.344-.305 0-.185-.283-.324-.478-.32l-.187.054c-.121.2.122.155.143.31Zm4.79-2.186c-.219-.091-.36.128-.472.079-.053-.028-.058-.101-.123-.123l-.252-.015c-.063-.016-.134-.035-.216-.034-.035.023-.06.035-.079.073.02.216.177.21.246.345l.005.03c-.054.054-.127.083-.192.128-.08.053-.158.133-.241.182-.09.053-.208.074-.251.172l-.005.04a.296.296 0 0 0 .123.063c.053.01.38-.077.428-.098.07-.03.117-.115.173-.163.107-.09.215-.138.35-.206.107-.055.17-.158.31-.192l.132.024c.043-.04.185-.15.148-.24-.016-.042-.043-.048-.084-.065Zm-.526 1.162c.017-.084.183-.288.255-.315.068-.11-.049-.238-.157-.236-.085.042-.123.1-.197.142l-.453.261c-.056.033-.212.085-.241.133l-.005.03c.172.107.279-.083.448-.074.035.053-.002.124-.044.157-.15.118-.28.224-.39.384h-.009l-.084-.127c-.04-.05-.087-.069-.118-.133-.098-.003-.19 0-.221.063.012.12.097.222.128.33l.029.128.162.08c.113-.006.118-.074.163-.149.03-.04.102-.007.153-.03l.172-.122.202-.089c.08-.059.17-.196.207-.295.018-.05-.013-.081 0-.138Zm3.21.079-.08.059c-.069.042-.15.066-.216.103l-.492.207-.015-.005c-.017-.04.083-.242.108-.295l.143-.286c.089-.134.21-.263.261-.433.049-.164-.235-.324-.394-.32-.143.065-.324.064-.526.064h-.212l-.133.069c-.072.124.274.489.458.453.108-.022.158-.134.24-.178l.03-.004c.033.076-.04.165-.064.221-.073.177-.098.346-.137.571-.013.072-.05.167-.005.222-.014.097-.282.157-.37.202-.217.11-.436.22-.679.31-.14.052-.414.113-.478.226.018.155.28.359.473.241.33-.2.667-.388.994-.595.087-.055.29-.23.4-.232l.004.005v.015c-.041.036-.075.063-.108.108.01.02.01.02.03.03.15-.07.315-.157.472-.217l.148-.024c.163-.057.375-.132.468-.261.016-.109-.178-.291-.32-.256Zm6.346.95c-.039-.058-.285-.164-.37-.197-.077-.03-.097-.086-.221-.084l-.094.025c-.088.14.06.225.119.31.05.076.041.156.083.241.068.139.3.139.483.104.07-.106.07-.118.04-.251-.014-.057-.012-.106-.04-.148Zm2.52-.01c-.026-.012-.054-.048-.103-.034-.123.033-.223.24-.389.197-.05-.101.113-.159.079-.296-.035-.144-.271-.157-.433-.172l-.025.015c-.096.255.092.195.153.31.017.051-.048.12-.06.177-.008.042 0 .091-.01.123-.094.06-.2.1-.3.163l-.054.049c-.089.041-.22.02-.285.084v.02a.521.521 0 0 0 .448.103l.25-.124c.015.01.017.009.025.025.014.04-.014.094-.024.128-.103.352-.401.042-.645.148l-.005.015c.013.165.465.303.66.226.13-.051.365-.216.32-.428-.019-.087-.067-.192-.084-.261a.16.16 0 0 1 .084-.07h.024c.008.047-.03.06-.04.104.072.013.104-.058.148-.088.055-.038.114-.087.178-.114.087-.036.181-.048.25-.098.028-.123-.074-.163-.162-.202Zm.202-1.418c-.087.048-.075.171-.217.177l-.01-.004c-.029-.135.113-.25.173-.335l.06-.114.053-.044.015-.064c.056-.088.161-.182.192-.29.027-.095-.015-.157-.03-.227-.091-.055-.216-.03-.33-.01a52.75 52.75 0 0 1-.053.133l.059.099c.018.071-.041.125-.06.167a2.98 2.98 0 0 1-.221.433l-.015.01c-.023-.073-.008-.152.005-.226-.028-.055-.141-.072-.148-.104l.02-.063c.03-.129-.022-.198-.133-.222-.01-.017-.015-.023-.015-.054.13-.127.166-.273.01-.399-.055-.045-.1-.087-.206-.084-.028.017-.055.02-.07.05-.03.081.063.114.045.187a1.98 1.98 0 0 1-.133.275c-.055.072-.223.052-.29.138l-.005.025c.035.05.12.045.147.098v.015c-.027.07-.1.112-.142.168v.049l.004.014.045.005.152-.093.133-.04c.034-.023.027-.058.079-.069h.005c.034.076-.061.23-.099.281-.071.014-.164-.001-.221.025-.01.038-.023.077-.015.118.041.022.092.03.113.074.034.113-.162.293-.177.398l.02.01c.096.038.352-.2.394-.256.155.003.174.009.266-.059h.024c.032.03.082.076.064.138-.037.079-.155.096-.236.133-.14.064-.559.365-.734.32-.02-.041-.01-.118-.024-.167-.052-.167-.197-.437-.4-.439-.066.069.027.148.045.222.07.291-.021.33.28.423.012.023.009.035 0 .06-.028.018-.078.03-.098.058l-.005.03c.044.042.341.083.409.035.188-.134.363-.274.566-.4l.133-.088.064-.005c.062-.027.18-.14.256-.118l.02.015c-.03.228-.519.48-.675.64v.024l.005.005c.161-.019.3-.123.429-.177l.236-.05c.244-.1.396-.3.541-.501.027-.037.08-.05.099-.094.06-.144-.24-.338-.399-.256Zm-.625.045a8.007 8.007 0 0 0-.05-.03c-.024-.092.01-.168.07-.207h.024c.055.08.033.207-.044.237Zm-1.536 1.083-.089.059-.024.123c-.04.092-.16.232-.123.354.027.06.174.174.265.148.172-.074.272-.69-.03-.684Zm-3.146-1.61c-.064-.114-.189-.106-.31-.06-.08.03-.126.088-.187.129-.133.086-.275.157-.409.236-.05.03-.247.161-.276.108-.026-.064.012-.22.05-.246l.152-.044c.195-.081.516-.295.591-.492-.034-.095-.204-.228-.345-.202-.112.02-.203.101-.285.157-.102-.015-.002-.263-.227-.266-.086.087-.091.189-.078.335l.01.084c-.02.08-.13.166-.183.221l-.034-.005c-.068-.154-.066-.365-.29-.29-.034.058.02.106 0 .187l-.055.143c-.013.053.006.114-.02.153-.084.126-.329.116-.457.201-.035.133.187.276.334.251.07-.011.091-.05.153-.064.057.041.113.137.227.114.048-.01.068-.04.128-.045h.004c.01.016.02.026.01.05-.038.066-.365.2-.453.25-.198.114-.413.223-.605.345-.12.076-.228.187-.35.261-.102.063-.458.211-.418.37l.024.039c.078.018.135-.001.207-.015l.27-.044c.188-.073.289-.243.44-.35.074-.053.144-.095.22-.148.076-.05.142-.157.257-.162l.014.015c-.036.127-.098.194 0 .32.16.034.183-.143.271-.212a.887.887 0 0 1 .192-.118c.03-.013.05-.035.094-.025l.024.015c-.01.04-.064.04-.098.054-.026.143-.065.207-.177.256-.054.024-.093.024-.119.074l-.004.03c.083.088.116.027.201.078.016.01.017.014.025.03l-.01.044c-.022.03-.123.035-.158.05-.05.14.108.138.153.226l.005.034c-.03.03-.133.067-.148.104-.037.096.186.172.08.29-.03.034-.4.154-.468.168-.05.01-.087-.026-.128 0-.197.122.133.368.25.379.08-.076.048-.203.143-.256.1.01.24.09.31.142l.08.09c.23.045.093-.172.147-.281.032-.067.36-.204.453-.227.098-.164-.107-.321-.212-.36-.12.06-.075.306-.202.37l-.034.005-.015-.015c-.03-.22.048-.414.113-.571.034-.08.131-.2.114-.315l-.03-.148c-.02-.03-.068-.023-.098-.044a90.3 90.3 0 0 1-.084-.143v-.005c.027-.004.035.008.064.015l.03-.025c.01-.069-.03-.121.004-.177.017-.027.049-.035.074-.054.11-.082.312-.198.375-.32-.005-.1-.17-.215-.296-.153-.039.02-.048.05-.103.07h-.015l.005-.025c.112-.07.237-.173.374-.212l.103.015.192-.089c.103-.032.151.012.247-.05.059-.037.237-.126.167-.25Zm-.906-.345h.015c.04.09-.147.219-.192.276h-.03c-.099-.163.129-.22.207-.276Zm-.58 3.028c-.038.038-.09.047-.168.044l-.035-.044c.012-.084.08-.11.133-.153h.035l.01.005c.022.036.026.083.024.148Zm-.04-2.53c.02-.045.078-.063.118-.09h.015c.035.064-.03.129-.074.158h-.05c-.014-.02-.022-.042-.01-.069Zm.03.275c-.008.01-.006.008-.015.015-.01-.007-.009-.005-.015-.015a7.517 7.517 0 0 1-.01-.054l.015-.02.03.005c.005.024.006.051-.006.069Zm-.08.684c-.02-.009-.025-.008-.034-.03-.042-.152.207-.306.31-.339.059-.019.076.018.143-.025.033.001.037.004.044.03.017.07-.385.33-.462.364Zm3.801-.654c-.032-.088-.17-.109-.256-.055-.13.084-.189.243-.33.32-.037.021-.073.089-.133.055-.05-.04-.01-.139-.01-.207.002-.168.034-.315 0-.483-.027-.138-.404-.375-.546-.398l-.04.02c-.148.254.032.352.109.531.048.113.12.75.064.862-.039.078-.254.177-.335.23-.19.127-.391.262-.61.355l-.271.109c-.067.017-.114-.007-.163.024-.063.307.076.429.37.33.184-.062.331-.21.458-.335.108-.106.317-.26.453-.334l.034.005c.055.09-.018.23-.06.315a.998.998 0 0 1-.58.531c-.132.045-.332-.008-.389.118l.015.035c.116.028.293.013.413-.005l.104.01c.366-.081.536-.202.709-.478.038-.06.1-.132.118-.206.043-.175.058-.336.108-.493.018-.055-.004-.128.025-.167.055-.075.158-.129.246-.172l.143-.119c.07-.05.147-.087.212-.138.058-.045.189-.134.142-.26Zm-8.114-7.964h3.315l.009-.52H26.38l-.009.52Zm0 3.011h3.315l.009-.52H26.38l-.01.52Zm-2.802-6.027 9.962-.02c1.527.04 2.226 1.276 2.063 2.388-.114.777-.796 1.398-1.077 1.463.77.225 1.36.863 1.474 1.625.265 1.755-1.331 2.396-1.887 2.377l-10.567.002.022-1.09 7.721.006c1.565-.149 1.277-1.96 0-2l-7.706.019-.006-1.03 7.63.027c.948-.094 1.47-1.235 1.16-1.954l-6.001.005v-.41l5.74.012c-.261-.307-.838-.473-1.34-.462l-7.199.004.01-.962Zm5.888-9.486c3.994 0 7.61 1.619 10.227 4.236a14.418 14.418 0 0 1 4.236 10.227c0 3.994-1.619 7.61-4.236 10.227a14.418 14.418 0 0 1-10.227 4.236c-3.994 0-7.61-1.619-10.227-4.236a14.418 14.418 0 0 1-4.236-10.227c0-3.994 1.62-7.61 4.236-10.227a14.418 14.418 0 0 1 10.227-4.236Zm9.819 4.645a13.842 13.842 0 0 0-9.819-4.067 13.842 13.842 0 0 0-9.818 4.067 13.842 13.842 0 0 0-4.067 9.818c0 3.834 1.554 7.306 4.067 9.818a13.842 13.842 0 0 0 9.818 4.067c3.834 0 7.306-1.554 9.819-4.067a13.842 13.842 0 0 0 4.066-9.818c0-3.834-1.554-7.306-4.066-9.818ZM27.664 75.168h-.14v-1.235h-.236v-.116h.377v1.35Zm1.084-.587a.327.327 0 0 0 .327-.334.331.331 0 0 0-.329-.339.294.294 0 0 0-.222.095.337.337 0 0 0-.09.242c0 .097.03.178.09.24a.295.295 0 0 0 .224.096Zm-.032.587h-.166l.316-.49a.947.947 0 0 1-.146.02.4.4 0 0 1-.304-.127.453.453 0 0 1-.12-.322.448.448 0 0 1 .46-.46.446.446 0 0 1 .457.444c0 .108-.055.248-.167.42l-.024.037-.306.478Zm1.226-.766a.327.327 0 0 0-.327.334.333.333 0 0 0 .33.34.293.293 0 0 0 .221-.095.34.34 0 0 0 .09-.243.338.338 0 0 0-.089-.241.294.294 0 0 0-.225-.095Zm.033-.585h.165l-.315.488c.029-.007.055-.012.08-.016a.472.472 0 0 1 .065-.004.4.4 0 0 1 .304.127c.08.086.12.193.12.322a.447.447 0 0 1-.462.46.442.442 0 0 1-.455-.445c0-.107.056-.247.167-.419l.025-.038.306-.475Zm.815.904c0 .113.029.2.087.262a.309.309 0 0 0 .239.094.31.31 0 0 0 .239-.093.366.366 0 0 0 .086-.259v-.465a.365.365 0 0 0-.087-.259.31.31 0 0 0-.238-.093.307.307 0 0 0-.24.094.374.374 0 0 0-.086.263v.456Zm-.13-.028v-.4c0-.088.006-.154.018-.198a.377.377 0 0 1 .061-.124.457.457 0 0 1 .377-.183c.142 0 .253.044.335.132.081.088.122.21.122.365v.413a.784.784 0 0 1-.017.181.366.366 0 0 1-.057.127.433.433 0 0 1-.164.14.494.494 0 0 1-.219.049.477.477 0 0 1-.379-.183.329.329 0 0 1-.059-.127.816.816 0 0 1-.018-.192ZM18.67 69.8c.039-.017.06-.031.066-.041.005-.011 0-.034-.016-.068l-.014-.032c-.066-.148-.135-.244-.207-.29-.072-.044-.157-.046-.255-.002-.095.042-.15.102-.168.179-.017.077.002.179.06.307.032.073.058.114.077.124.019.01.052.004.098-.017l.359-.16Zm.647-.288c.039-.017.06-.037.067-.06.005-.023-.008-.071-.04-.142l-.019-.043a.46.46 0 0 0-.198-.238c-.079-.04-.167-.037-.264.006-.1.044-.158.111-.178.2-.019.09.002.203.062.338l.034.077c.017.038.032.06.044.065.012.006.034.001.064-.012l.428-.19Zm.362.337-.042.018c-.037-.08-.073-.127-.11-.142-.035-.016-.088-.009-.158.023l-.913.406c-.071.032-.113.066-.125.103-.011.037-.001.096.03.179l-.04.018-.29-.652c-.07-.16-.097-.296-.078-.41a.302.302 0 0 1 .184-.24.3.3 0 0 1 .218-.014.453.453 0 0 1 .208.148.513.513 0 0 1 .006-.3c.032-.08.091-.14.18-.18.131-.059.251-.053.359.016.107.07.206.207.296.411l.275.616Zm-.651-1.437-.044.011c-.026-.083-.055-.135-.088-.156-.032-.02-.086-.02-.162.001l-.96.275c-.074.022-.12.05-.137.084-.017.035-.015.096.005.182l-.043.013-.35-1.222.31-.11.013.044c-.087.04-.14.085-.161.135-.021.049-.017.124.012.227l.104.36c.012.044.026.07.04.08.015.01.045.009.09-.004l.385-.11c.03-.01.047-.018.053-.028.006-.01.005-.03-.004-.06l-.082-.285c-.032-.112-.067-.18-.105-.206-.037-.026-.095-.03-.174-.012l-.013-.043.49-.141.013.043c-.08.03-.13.065-.149.106-.02.041-.012.118.02.23l.082.286c.008.028.017.044.027.05.01.007.03.005.06-.003l.428-.123c.052-.015.084-.032.096-.05.012-.018.012-.047 0-.088l-.095-.334c-.04-.135-.086-.227-.142-.276a.488.488 0 0 0-.269-.094l.008-.044.383.011.359 1.251Zm-.456-1.572-.045.007c-.015-.085-.038-.14-.07-.165-.03-.025-.083-.03-.16-.019l-.985.156c-.076.012-.125.035-.147.07-.022.033-.027.092-.016.177l-.045.007-.105-.668.044-.006c.018.086.041.142.072.166.03.024.084.03.16.018l.984-.156c.076-.012.125-.034.147-.068.022-.034.027-.093.016-.178l.044-.008.106.667Zm-1.704-1.619.044-.003c.008.084.028.14.058.167.031.028.09.038.175.032l.794-.055c.15-.01.267.014.35.075.084.061.13.154.138.28a.314.314 0 0 1-.043.197.173.173 0 0 1-.138.085.084.084 0 0 1-.067-.023.102.102 0 0 1-.03-.07.117.117 0 0 1 .019-.074.176.176 0 0 1 .082-.063c.061-.031.09-.064.088-.1-.002-.032-.015-.056-.037-.071-.023-.015-.056-.021-.099-.018l-1.04.073c-.089.006-.145.025-.171.057-.027.033-.037.093-.03.18l-.046.004-.047-.673Zm1.457-.336h-.045c-.002-.086-.016-.145-.043-.174-.026-.03-.078-.044-.156-.044h-.997c-.077 0-.129.015-.156.045-.027.03-.042.088-.044.173h-.045v-.676l.045.001c.004.088.019.146.045.175.027.029.078.043.155.043h.997c.076 0 .128-.015.155-.044.027-.03.042-.088.044-.174l.045-.001v.676Zm-.238-1.246c.082.011.137.005.164-.018.027-.024.05-.08.069-.167l.044.007-.074.53-.045-.007c.006-.088 0-.148-.02-.179-.02-.03-.07-.05-.152-.062l-1.03-.145a.34.34 0 0 0-.122.078.249.249 0 0 0-.058.114l-.045-.006.054-.38 1.168-.724-.8-.112c-.081-.012-.136-.005-.163.018-.027.023-.05.078-.068.165l-.044-.007.074-.527.044.006c-.006.088 0 .147.02.177s.07.052.152.063l1.225.172-.006.045-1.326.827.94.132Zm.715-2.87a1.09 1.09 0 0 1-.004.637c-.072.232-.196.4-.373.502a.716.716 0 0 1-.59.054.764.764 0 0 1-.482-.385.812.812 0 0 1-.04-.63.897.897 0 0 1 .128-.257c.056-.08.086-.125.088-.133a.059.059 0 0 0-.006-.049.138.138 0 0 0-.05-.044l.01-.036.445.112-.013.043a.658.658 0 0 0-.339.102.493.493 0 0 0-.174.267.527.527 0 0 0 .057.46c.09.14.234.24.433.3.202.062.38.06.531-.007a.543.543 0 0 0 .307-.359.58.58 0 0 0 .026-.19.436.436 0 0 0-.038-.169l-.384-.117c-.082-.025-.136-.029-.162-.01-.025.017-.055.073-.088.167l-.045-.014.186-.607.045.014c-.019.07-.022.118-.01.146.014.029.056.054.128.076l.413.127Zm-.868-1.384-.04-.021.31-.584.04.02c-.037.075-.05.131-.036.169.013.038.06.078.142.122l.563.3c.154.081.285.11.392.088.107-.022.195-.098.263-.227a.448.448 0 0 0 .045-.37c-.04-.113-.131-.209-.274-.284l-.563-.3c-.08-.042-.14-.058-.183-.046-.043.012-.084.055-.125.129l-.04-.02.245-.463.04.02c-.033.067-.041.121-.025.162.016.041.063.083.14.124l.538.285c.185.099.3.22.346.363.046.144.02.306-.076.487a.913.913 0 0 1-.168.23.51.51 0 0 1-.2.124.415.415 0 0 1-.205.008.995.995 0 0 1-.26-.102l-.493-.262c-.118-.063-.2-.09-.245-.08-.047.008-.09.05-.131.128Zm2.121-1.396c.064.051.114.074.15.068.036-.006.084-.042.145-.107l.035.028-.337.416-.035-.028c.05-.073.076-.128.075-.164-.002-.036-.035-.08-.099-.132l-.807-.654a.343.343 0 0 0-.145.004.247.247 0 0 0-.109.068l-.035-.029.241-.297 1.375-.02-.628-.508c-.064-.052-.114-.075-.15-.069-.035.006-.082.042-.142.107l-.035-.028.336-.415.034.029c-.05.072-.075.126-.074.162 0 .036.034.08.098.132l.961.779-.028.035-1.563.025.737.598Zm1.13-.966-.032-.031c.059-.064.089-.115.09-.155.002-.04-.026-.086-.082-.14l-.717-.693c-.055-.053-.103-.078-.143-.075-.04.002-.091.034-.152.093l-.033-.031.47-.486.032.032c-.059.066-.088.118-.09.157 0 .039.027.085.082.138l.717.693c.055.053.103.079.143.076.04-.003.09-.034.152-.095l.033.03-.47.487Zm1.23-1.144-1.152-.647a.727.727 0 0 0-.225-.094.187.187 0 0 0-.14.036l-.027-.036.502-.378.026.036a.437.437 0 0 0-.099.106c-.01.024-.008.047.01.07.017.023.097.076.238.158.14.081.38.213.718.395l-.21-.933a.902.902 0 0 0-.024-.085.204.204 0 0 0-.024-.05c-.02-.026-.043-.037-.07-.034a.333.333 0 0 0-.122.06l-.028-.036.358-.27.027.036a.154.154 0 0 0-.053.1.65.65 0 0 0 .025.2l.307 1.337-.037.029Zm.753-.653-.021-.04c.075-.044.12-.084.132-.12.013-.037.001-.09-.037-.158l-.484-.874c-.038-.067-.075-.105-.113-.114-.038-.01-.096.006-.176.045l-.021-.038 1.111-.616.177.277-.04.022c-.06-.075-.115-.118-.168-.126-.052-.01-.125.011-.218.063l-.328.182c-.04.022-.063.041-.07.057-.005.016.003.045.026.087l.194.35c.015.027.028.042.038.046.011.003.03-.003.059-.018l.259-.144c.1-.056.16-.106.177-.148.017-.043.008-.1-.028-.173l.04-.022.247.446-.04.022c-.046-.072-.091-.112-.136-.122-.045-.009-.118.015-.22.071l-.26.145c-.025.014-.04.026-.043.037-.004.012.002.03.017.059l.215.388c.027.048.05.075.07.083.021.007.05 0 .087-.02l.303-.168c.123-.068.202-.135.238-.2a.486.486 0 0 0 .03-.283l.046-.002.075.375-1.138.631Zm1.539-1.721c.007.018.017.03.028.034.012.005.027.003.046-.005.166-.067.276-.14.33-.22.055-.08.06-.175.016-.285-.04-.1-.102-.16-.183-.183-.081-.021-.189-.005-.324.05-.06.024-.096.047-.106.066-.01.02-.005.052.013.098l.18.444Zm-.12.92-.016-.041.025-.01c.07-.029.112-.062.127-.1.016-.04.008-.096-.022-.17l-.374-.926c-.027-.067-.059-.106-.096-.118-.038-.012-.099-.002-.183.03l-.017-.042.7-.283c.154-.062.285-.08.391-.052.107.028.183.1.23.215.036.09.037.177.004.26a.538.538 0 0 1-.202.23c.273.159.471.266.596.322.125.057.208.079.25.066l.017.042-.312.126a6.865 6.865 0 0 1-.376-.19 9.25 9.25 0 0 1-.393-.228l-.126.05c-.02.008-.032.017-.037.028-.005.01-.004.026.004.043l.137.34c.03.075.065.12.104.137.04.017.097.01.172-.02l.018-.008.017.042-.637.257Zm1.724-.643-.188-.448.044-.01a.8.8 0 0 0 .258.246.372.372 0 0 0 .27.048.279.279 0 0 0 .177-.119.256.256 0 0 0-.051-.34.55.55 0 0 0-.192-.096l-.258-.085a.682.682 0 0 1-.25-.128.36.36 0 0 1-.113-.193.355.355 0 0 1 .056-.297.455.455 0 0 1 .282-.176.603.603 0 0 1 .194-.01.71.71 0 0 0 .125.006.048.048 0 0 0 .033-.025.097.097 0 0 0 .006-.053l.038-.01.15.427-.045.01a.68.68 0 0 0-.224-.233.329.329 0 0 0-.247-.041.259.259 0 0 0-.16.1.206.206 0 0 0-.033.173c.012.05.038.092.079.126a.6.6 0 0 0 .19.092l.285.09a.71.71 0 0 1 .259.133.38.38 0 0 1 .111.2.39.39 0 0 1-.057.329.504.504 0 0 1-.313.19.79.79 0 0 1-.21.018 1.213 1.213 0 0 0-.123-.002.077.077 0 0 0-.044.025.064.064 0 0 0-.013.045l-.037.008Zm1.145-.281-.006-.045c.086-.013.142-.034.168-.063.026-.03.034-.084.024-.161l-.121-.99c-.01-.075-.03-.125-.064-.149-.033-.023-.092-.03-.177-.022l-.005-.045.67-.082.005.045c-.087.014-.143.036-.168.066-.025.03-.033.082-.024.158l.122.99c.01.076.03.126.063.149.033.023.092.03.177.022l.007.044-.671.083Zm1.224-.163v-.045c.094 0 .155-.014.183-.042.029-.028.043-.09.043-.186v-1.061c0-.032-.005-.05-.014-.057-.009-.006-.035-.01-.079-.01h-.036c-.144 0-.241.021-.292.062-.05.041-.082.12-.095.234h-.045l.012-.381h1.347v.381h-.048c-.011-.116-.04-.195-.088-.235-.047-.04-.155-.06-.325-.06-.05 0-.078.003-.087.01-.009.008-.013.027-.013.056v1.053c0 .106.015.171.044.196.03.024.09.038.182.04l.001.045h-.69Zm1.678.021.005-.044.01.001c.076.01.131.002.165-.022s.055-.07.064-.138l.05-.407-.402-.734a.29.29 0 0 0-.087-.1.303.303 0 0 0-.126-.046l.005-.045.682.084-.005.043a.554.554 0 0 0-.138.007c-.026.007-.04.02-.043.039-.003.021.006.052.027.093a.113.113 0 0 0 .004.005l.29.547.355-.422c.035-.04.058-.069.069-.085a.106.106 0 0 0 .017-.04c.003-.02-.007-.037-.028-.05a.445.445 0 0 0-.122-.04l.005-.045.462.057-.005.045a.222.222 0 0 0-.121.025.54.54 0 0 0-.135.123l-.465.544-.055.447c-.008.063.002.108.03.136.027.028.084.047.169.06l-.006.045-.671-.083Zm2.235-.372c-.07.203-.082.378-.035.526a.44.44 0 0 0 .292.3.442.442 0 0 0 .415-.056c.129-.089.227-.234.297-.436.07-.201.08-.375.034-.523a.442.442 0 0 0-.293-.3.44.44 0 0 0-.414.056c-.129.088-.227.232-.297.433Zm-.242-.083c.076-.222.203-.376.382-.464a.752.752 0 0 1 .596-.019c.22.076.373.203.46.382.086.18.091.38.015.601-.076.222-.204.378-.383.466a.75.75 0 0 1-.597.02.749.749 0 0 1-.458-.383c-.087-.18-.092-.381-.015-.603Zm1.448 1.295.021-.04c.083.038.142.053.177.043.036-.01.072-.05.108-.121l.452-.887c.035-.07.045-.123.031-.161-.014-.038-.06-.077-.136-.116l.022-.042 1.098.56-.138.322-.04-.02c.03-.097.033-.172.01-.227-.024-.054-.084-.105-.18-.154l-.281-.143c-.04-.02-.07-.027-.092-.02-.023.006-.042.026-.06.062l-.183.358c-.015.03-.02.05-.017.062.003.011.018.023.044.037l.176.09c.1.05.175.072.22.062.047-.01.088-.05.125-.124l.04.02-.239.47-.04-.02c.037-.086.048-.15.033-.19-.015-.04-.074-.087-.179-.14l-.178-.09c-.023-.012-.04-.016-.053-.013-.012.004-.024.017-.035.039l-.187.367c-.036.07-.046.124-.03.164.016.04.065.082.147.125l-.02.04-.616-.313Zm1.911 1.07.026-.038c.077.054.135.078.174.07.04-.006.087-.048.142-.127l.608-.869c.018-.026.025-.044.022-.054-.004-.01-.024-.028-.06-.053l-.03-.021c-.117-.083-.209-.122-.274-.117-.065.004-.136.05-.212.137l-.037-.026.229-.305 1.103.772-.219.313-.039-.028c.058-.102.078-.183.063-.243s-.093-.139-.232-.236c-.04-.028-.066-.042-.077-.04-.012 0-.026.013-.043.037l-.604.862c-.06.087-.086.15-.076.187.01.036.053.082.127.136l-.025.038-.566-.396Zm.952.721.032-.032c.065.058.117.087.155.088.039.002.085-.026.139-.084l.68-.73c.053-.057.078-.104.075-.143-.003-.039-.036-.09-.098-.153l.03-.033.93.867-.21.254-.033-.03c.054-.08.077-.147.069-.2-.008-.053-.05-.115-.128-.188l-.274-.256c-.034-.03-.059-.047-.076-.047-.018-.001-.043.015-.075.05l-.273.293c-.02.022-.031.039-.031.05 0 .012.011.028.035.05l.216.202c.085.08.15.12.196.123.046.003.097-.024.156-.08l.033.03-.348.374-.033-.03c.054-.067.078-.123.073-.168-.005-.045-.05-.108-.135-.187l-.218-.203c-.02-.02-.037-.03-.049-.03-.012 0-.028.012-.05.035l-.303.325c-.037.04-.056.07-.057.092 0 .022.015.047.045.076l.254.237c.103.096.19.15.264.164a.487.487 0 0 0 .279-.058l.016.042-.334.188-.952-.888Zm2.31 2.01-.007.053a.839.839 0 0 1-.375-.056.732.732 0 0 1-.286-.22c-.148-.183-.211-.373-.192-.571.02-.198.12-.37.3-.515a.764.764 0 0 1 .578-.184.77.77 0 0 1 .529.301.933.933 0 0 1 .138.24c.037.09.059.141.066.15.013.016.03.025.049.026a.076.076 0 0 0 .055-.018l.026.031-.348.337-.028-.035a.625.625 0 0 0 .119-.342.476.476 0 0 0-.115-.308.511.511 0 0 0-.41-.202c-.164-.001-.327.064-.49.195a.755.755 0 0 0-.285.433.495.495 0 0 0 .104.433c.07.087.15.15.24.19.091.04.202.06.332.062Zm-.182.408.04-.022c.044.075.085.119.123.13.037.012.09-.001.158-.04l.863-.499c.066-.038.104-.077.112-.117.009-.04-.007-.097-.047-.173l.038-.022.336.582-.039.022c-.047-.074-.09-.117-.127-.128-.037-.011-.089.002-.155.04l-.32.185c-.024.014-.037.027-.04.04-.004.012 0 .03.014.053l.316.547c.011.02.023.03.035.032.012.002.031-.004.057-.02l.316-.182c.066-.037.103-.076.112-.114.009-.04-.007-.097-.048-.174l.039-.024.337.584-.04.023c-.044-.074-.086-.117-.123-.13-.038-.012-.09.002-.158.04l-.864.5c-.065.037-.103.076-.112.115-.008.04.008.097.049.172l-.039.023-.337-.584.04-.021c.045.073.086.117.124.128.038.012.09 0 .155-.038l.354-.205c.025-.014.038-.026.042-.037.004-.011 0-.027-.012-.047l-.316-.548c-.012-.02-.025-.033-.039-.036-.014-.004-.031 0-.053.013l-.352.204c-.067.038-.105.077-.113.115-.01.039.007.096.049.172l-.04.023-.335-.582Zm1.266 1.856c-.078.025-.125.054-.139.088-.014.033-.01.093.011.18l-.043.013-.165-.509.043-.014c.033.083.066.133.096.152.031.019.086.015.164-.01l.989-.321a.339.339 0 0 0 .076-.124.248.248 0 0 0 .002-.128l.043-.014.118.364-.732 1.164.768-.25c.078-.025.125-.055.139-.088.014-.033.01-.092-.012-.177l.043-.014.165.507-.043.014c-.032-.082-.064-.133-.095-.152-.031-.018-.086-.015-.164.01l-1.177.383-.014-.043.83-1.325-.903.294Zm1 1.629c-.21.037-.369.112-.476.225a.44.44 0 0 0-.12.4c.028.155.111.267.25.336.14.07.314.086.525.049.21-.037.367-.112.474-.225a.441.441 0 0 0 .12-.401.44.44 0 0 0-.25-.335c-.139-.07-.313-.086-.522-.05Zm-.044-.252c.231-.041.428-.005.591.11a.751.751 0 0 1 .306.512.753.753 0 0 1-.112.587c-.114.162-.287.264-.517.305-.232.04-.43.004-.594-.11a.751.751 0 0 1-.306-.513.749.749 0 0 1 .112-.586c.116-.163.29-.264.52-.305Zm-.447 1.909.044-.001v.01c.002.08.018.133.05.161.031.028.091.041.18.04l.967-.017c.087-.001.142-.017.165-.045.024-.03.035-.087.034-.172l.045-.002.012.676h-.045v-.01c-.002-.079-.017-.133-.048-.163-.03-.03-.083-.045-.16-.044l-.999.018c-.066 0-.108.01-.124.03-.017.02-.024.06-.023.121l.005.257c.001.11.027.2.077.271.05.071.128.127.233.168l.001.046-.393-.115-.021-1.23Zm.72 1.873c-.213-.026-.387-.001-.523.076a.441.441 0 0 0-.231.347.442.442 0 0 0 .14.395c.113.107.276.174.488.2.211.025.384 0 .52-.077a.441.441 0 0 0 .23-.349.44.44 0 0 0-.14-.393c-.112-.107-.274-.174-.485-.2Zm.03-.254c.233.028.41.12.534.277a.75.75 0 0 1 .142.58.753.753 0 0 1-.279.528c-.157.122-.352.17-.584.14-.233-.028-.412-.12-.535-.277a.75.75 0 0 1-.144-.58.75.75 0 0 1 .28-.528c.157-.122.353-.169.586-.14Zm-1.24 3.143a1.19 1.19 0 0 1-.05-.32 1.083 1.083 0 0 1 .042-.317c.068-.234.189-.403.364-.509a.716.716 0 0 1 .59-.064c.225.064.387.19.488.377.1.187.117.397.05.63a.894.894 0 0 1-.122.258 1.487 1.487 0 0 0-.087.134.059.059 0 0 0 .008.05.14.14 0 0 0 .05.043l-.01.036-.446-.105.012-.043a.658.658 0 0 0 .337-.107.493.493 0 0 0 .17-.27.528.528 0 0 0-.065-.46c-.092-.137-.239-.235-.439-.292-.203-.058-.38-.053-.53.017-.151.07-.251.19-.3.363a.575.575 0 0 0-.023.19c.003.064.017.12.04.169l.386.11c.083.024.137.027.162.009.026-.018.054-.075.085-.17l.046.013-.175.61-.046-.012c.018-.07.02-.119.007-.147-.014-.028-.056-.053-.129-.074l-.415-.119Zm-.414.566.041.018-.004.01c-.03.07-.04.124-.027.163.013.04.051.073.114.101l.374.167.82-.169a.29.29 0 0 0 .12-.054.307.307 0 0 0 .082-.107l.04.018-.278.628-.04-.018a.553.553 0 0 0 .033-.134c.001-.027-.007-.045-.024-.053-.02-.008-.052-.009-.097 0l-.007.001-.608.118.3.463c.03.045.05.075.062.09a.106.106 0 0 0 .034.029c.018.008.037.004.056-.012a.446.446 0 0 0 .073-.106l.041.018-.19.426-.04-.019a.221.221 0 0 0 .011-.123.536.536 0 0 0-.078-.165l-.385-.604-.411-.183c-.058-.026-.104-.03-.139-.01-.034.017-.07.065-.107.143l-.04-.018.274-.618ZM51.824 72.534a.447.447 0 0 0 .009.085.04.04 0 0 0 .015.005.31.31 0 0 0 .056.004h.046c.106 0 .198-.008.273-.023a.492.492 0 0 0 .178-.068.27.27 0 0 0 .096-.114.414.414 0 0 0 .033-.173.438.438 0 0 0-.03-.169.265.265 0 0 0-.086-.112.42.42 0 0 0-.155-.066 1.056 1.056 0 0 0-.235-.023.948.948 0 0 0-.125.007c-.028.003-.045.008-.052.014-.007.005-.012.016-.016.032a.329.329 0 0 0-.007.076v.525Zm0 .945c0 .025.002.046.007.062.005.014.012.024.02.03a.134.134 0 0 0 .056.017.86.86 0 0 0 .123.007h.063c.084 0 .158-.009.221-.027a.434.434 0 0 0 .158-.08.329.329 0 0 0 .095-.127c.021-.05.032-.11.032-.177a.431.431 0 0 0-.034-.18.312.312 0 0 0-.103-.124.494.494 0 0 0-.176-.077 1.08 1.08 0 0 0-.254-.026h-.111a.39.39 0 0 0-.064.004c-.012.002-.02.004-.022.007a.044.044 0 0 0-.007.017.209.209 0 0 0-.004.049v.625Zm-.66.256.002-.06v-.025h.026a.663.663 0 0 0 .14-.015.172.172 0 0 0 .075-.034.138.138 0 0 0 .036-.066.462.462 0 0 0 .014-.122v-1.332a.47.47 0 0 0-.014-.123.136.136 0 0 0-.036-.065.19.19 0 0 0-.076-.035.717.717 0 0 0-.142-.019h-.024v-.11h.977c.118 0 .224.01.316.032a.736.736 0 0 1 .24.098.453.453 0 0 1 .153.162.445.445 0 0 1 .052.215.43.43 0 0 1-.109.29.522.522 0 0 1-.13.107.69.69 0 0 1-.089.044.85.85 0 0 1 .13.048c.062.03.115.066.158.11a.424.424 0 0 1 .097.149.582.582 0 0 1-.024.448.479.479 0 0 1-.17.187.835.835 0 0 1-.282.108 1.945 1.945 0 0 1-.394.035h-.926v-.027Zm2.095 0v-.06l.002-.025h.025a.69.69 0 0 0 .14-.016.175.175 0 0 0 .075-.033.131.131 0 0 0 .036-.065.472.472 0 0 0 .014-.123V72.08c0-.05-.005-.09-.014-.122a.14.14 0 0 0-.035-.066.183.183 0 0 0-.076-.035.721.721 0 0 0-.142-.019h-.025v-.11h1.745l.001.024.027.438.002.028h-.11l-.004-.022a.637.637 0 0 0-.042-.153.226.226 0 0 0-.063-.087.254.254 0 0 0-.104-.045.79.79 0 0 0-.175-.017h-.5a.384.384 0 0 0-.07.005.07.07 0 0 0-.03.012h-.001c-.004.003-.008.012-.012.026a.358.358 0 0 0-.005.071v.533c0 .02 0 .034.003.046a.042.042 0 0 0 .005.015.042.042 0 0 0 .014.005.24.24 0 0 0 .047.003h.394c.076 0 .138-.005.187-.014a.228.228 0 0 0 .1-.038.164.164 0 0 0 .047-.073.465.465 0 0 0 .022-.128l.001-.025h.111v.733h-.11l-.002-.025a.511.511 0 0 0-.025-.136.171.171 0 0 0-.047-.076.218.218 0 0 0-.097-.038 1.002 1.002 0 0 0-.187-.014h-.398a.208.208 0 0 0-.041.003c-.008.001-.013.003-.015.005v.001c-.002.002-.004.006-.005.014a.235.235 0 0 0-.004.045v.593c0 .035.002.063.006.085a.084.084 0 0 0 .016.04.06.06 0 0 0 .03.016.231.231 0 0 0 .063.008h.463c.092 0 .17-.007.237-.02a.446.446 0 0 0 .155-.056.41.41 0 0 0 .11-.111.947.947 0 0 0 .1-.187l.01-.026.025.013.054.026.02.01-.007.022-.155.486-.006.018h-1.78v-.026Zm2.17.027v-.112h.026a.675.675 0 0 0 .14-.016.178.178 0 0 0 .076-.034.137.137 0 0 0 .036-.066.476.476 0 0 0 .014-.124v-1.33a.441.441 0 0 0-.014-.12.143.143 0 0 0-.038-.067.182.182 0 0 0-.077-.036.645.645 0 0 0-.137-.016h-.025v-.112h.954v.026l-.002.06v.025h-.024a.71.71 0 0 0-.141.019.175.175 0 0 0-.076.035.139.139 0 0 0-.036.066.472.472 0 0 0-.013.12v1.33c0 .049.004.09.014.122.008.03.02.052.036.066a.174.174 0 0 0 .077.036c.037.01.083.014.138.016h.025v.025l.002.06v.027h-.954Zm2.383-2.034v.11l-.025.001a.594.594 0 0 0-.136.017.17.17 0 0 0-.075.038.155.155 0 0 0-.037.073.565.565 0 0 0-.013.137v1.062a.98.98 0 0 1-.035.272.548.548 0 0 1-.104.203.443.443 0 0 1-.173.126.61.61 0 0 1-.383.022.384.384 0 0 1-.123-.061.287.287 0 0 1-.084-.095.252.252 0 0 1-.028-.118.136.136 0 0 1 .046-.106.145.145 0 0 1 .051-.03.2.2 0 0 1 .123 0 .182.182 0 0 1 .096.072.329.329 0 0 1 .034.06l.001.004.007.018a.278.278 0 0 0 .051.085c.016.016.032.024.049.024a.12.12 0 0 0 .047-.009.076.076 0 0 0 .03-.023.118.118 0 0 0 .02-.045.278.278 0 0 0 .008-.07v-1.39a.565.565 0 0 0-.015-.14.151.151 0 0 0-.038-.074.17.17 0 0 0-.078-.037.627.627 0 0 0-.141-.013h-.026v-.112h.951Zm.252 2.034v-.112h.026a.674.674 0 0 0 .139-.016.178.178 0 0 0 .076-.034.14.14 0 0 0 .036-.066.475.475 0 0 0 .014-.124v-1.33a.44.44 0 0 0-.014-.12.143.143 0 0 0-.038-.067.182.182 0 0 0-.076-.036.644.644 0 0 0-.137-.016h-.026v-.112h.955v.026l-.002.06v.025h-.026a.716.716 0 0 0-.14.019.18.18 0 0 0-.076.035.141.141 0 0 0-.036.066.458.458 0 0 0-.013.12v1.33c0 .049.005.09.014.122.008.03.02.052.036.066a.172.172 0 0 0 .077.036c.037.01.083.014.138.016h.025v.025l.002.06v.027h-.954Zm1.675-.359a.54.54 0 0 0 .013.13c.007.03.018.051.032.063.016.013.04.024.075.033a.82.82 0 0 0 .142.02l.025.003v.11h-.766v-.11l.024-.002a.832.832 0 0 0 .142-.02.189.189 0 0 0 .075-.034.12.12 0 0 0 .033-.063.556.556 0 0 0 .013-.13v-1.378a.54.54 0 0 0-.053-.076.28.28 0 0 0-.129-.091.345.345 0 0 0-.081-.017l-.024-.002v-.11h.549l.008.009 1.127 1.353v-1.005a.533.533 0 0 0-.013-.13.126.126 0 0 0-.032-.063.18.18 0 0 0-.074-.032.804.804 0 0 0-.14-.02l-.025-.002v-.11h.763v.11l-.025.002a.8.8 0 0 0-.14.02.19.19 0 0 0-.076.032.125.125 0 0 0-.032.064.536.536 0 0 0-.013.129v1.676h-.098l-.008-.01-1.292-1.542v1.193Zm3.885.158a1.729 1.729 0 0 1-.398.185 1.437 1.437 0 0 1-.43.063c-.165 0-.314-.024-.448-.072a1.013 1.013 0 0 1-.355-.214.936.936 0 0 1-.232-.332 1.096 1.096 0 0 1-.076-.42c0-.16.026-.304.078-.435a1.027 1.027 0 0 1 .592-.575 1.27 1.27 0 0 1 .833-.013 6.649 6.649 0 0 0 .196.06.05.05 0 0 0 .021-.004.062.062 0 0 0 .02-.015.117.117 0 0 0 .017-.028.224.224 0 0 0 .014-.04l.005-.02h.02l.05-.002h.025v.025l.031.61.002.028h-.106l-.006-.017a1.185 1.185 0 0 0-.116-.23.518.518 0 0 0-.308-.235.798.798 0 0 0-.222-.028.745.745 0 0 0-.307.06.665.665 0 0 0-.238.183.819.819 0 0 0-.155.285 1.202 1.202 0 0 0-.053.368c0 .138.018.261.053.371a.815.815 0 0 0 .158.285c.07.081.15.142.243.182a.78.78 0 0 0 .439.051.736.736 0 0 0 .224-.077.51.51 0 0 0 .078-.054v-.524c0-.055-.004-.1-.012-.132-.007-.03-.016-.048-.028-.058a.189.189 0 0 0-.075-.026 1.191 1.191 0 0 0-.158-.015l-.025-.001v-.114h.9v.114l-.026.001a.604.604 0 0 0-.114.013.148.148 0 0 0-.06.026.11.11 0 0 0-.028.056.53.53 0 0 0-.01.117v.59l-.013.008Zm1.023-1.72v-.112h.934v.11h-.025a.567.567 0 0 0-.132.018.154.154 0 0 0-.071.038.166.166 0 0 0-.034.078.684.684 0 0 0-.013.148v.85c0 .114.011.214.034.297.022.083.056.15.1.204.044.052.1.092.168.118.069.027.15.04.245.04a.706.706 0 0 0 .255-.042.495.495 0 0 0 .188-.128.549.549 0 0 0 .118-.205.887.887 0 0 0 .04-.278v-.85a.622.622 0 0 0-.015-.146.185.185 0 0 0-.039-.08.17.17 0 0 0-.076-.043.522.522 0 0 0-.136-.017h-.025v-.025l-.002-.06v-.028h.752v.11l-.025.001a.401.401 0 0 0-.118.02.156.156 0 0 0-.069.044.196.196 0 0 0-.038.083.649.649 0 0 0-.013.143v.811c0 .287-.073.505-.218.654a.688.688 0 0 1-.27.167 1.123 1.123 0 0 1-.369.056c-.071 0-.139-.005-.203-.014a1.088 1.088 0 0 1-.182-.042.806.806 0 0 1-.155-.07.546.546 0 0 1-.27-.343.977.977 0 0 1-.033-.167 1.856 1.856 0 0 1-.011-.21v-.744a1.28 1.28 0 0 0-.014-.213.246.246 0 0 0-.04-.11.15.15 0 0 0-.074-.046.476.476 0 0 0-.138-.017h-.026Zm2.964 1.562a.55.55 0 0 0 .013.13c.008.03.019.051.033.063.015.013.04.024.075.033.037.01.084.017.142.02l.024.003v.11h-.766v-.11l.025-.002a.82.82 0 0 0 .141-.02.192.192 0 0 0 .076-.034.122.122 0 0 0 .032-.063.54.54 0 0 0 .013-.13v-1.378a.493.493 0 0 0-.114-.133.28.28 0 0 0-.068-.034.356.356 0 0 0-.081-.017l-.024-.002v-.11h.55l.007.009 1.127 1.353v-1.005a.555.555 0 0 0-.013-.13.124.124 0 0 0-.032-.063.18.18 0 0 0-.074-.032.8.8 0 0 0-.14-.02l-.025-.002v-.11h.763v.11l-.024.002a.798.798 0 0 0-.141.02.183.183 0 0 0-.075.032.126.126 0 0 0-.033.064.53.53 0 0 0-.013.129v1.676h-.098l-.008-.01-1.292-1.542v1.193Zm1.905.36v-.113h.025a.674.674 0 0 0 .14-.016.178.178 0 0 0 .076-.034.136.136 0 0 0 .036-.066.475.475 0 0 0 .014-.124v-1.33a.44.44 0 0 0-.014-.12.143.143 0 0 0-.038-.067.183.183 0 0 0-.076-.036.65.65 0 0 0-.138-.016h-.025v-.112h.954v.026l-.002.06v.025h-.025a.71.71 0 0 0-.14.019.176.176 0 0 0-.076.035.139.139 0 0 0-.036.066.473.473 0 0 0-.013.12v1.33c0 .049.004.09.014.122.008.03.02.052.036.066a.172.172 0 0 0 .077.036c.036.01.083.014.138.016h.025v.025l.002.06v.027h-.954Zm2.234.03-.708-1.613a1.626 1.626 0 0 0-.085-.17.514.514 0 0 0-.073-.103.229.229 0 0 0-.16-.066h-.027v-.112h.893l-.001.026-.001.06v.024l-.025.002a1.276 1.276 0 0 0-.118.013.25.25 0 0 0-.062.017.057.057 0 0 0-.024.022.071.071 0 0 0-.008.036c0 .017.01.054.03.111.021.06.053.14.095.239.041.098.1.231.175.399.069.154.152.335.249.545l.5-1.11a1.598 1.598 0 0 0 .042-.106.426.426 0 0 0 .01-.039.127.127 0 0 0 .004-.027.094.094 0 0 0-.01-.043.066.066 0 0 0-.025-.026.198.198 0 0 0-.06-.02.836.836 0 0 0-.106-.011l-.024-.001v-.025l-.002-.06v-.026h.65v.11l-.024.002a.184.184 0 0 0-.12.055.426.426 0 0 0-.058.083 1.587 1.587 0 0 0-.07.144l-.746 1.67-.007.016h-.097l-.007-.016Zm1.305-.057v-.06l.001-.026h.026a.686.686 0 0 0 .14-.016.175.175 0 0 0 .075-.033.13.13 0 0 0 .036-.065.471.471 0 0 0 .014-.123V72.08c0-.05-.005-.09-.014-.122a.14.14 0 0 0-.035-.066.184.184 0 0 0-.076-.035.721.721 0 0 0-.143-.019h-.025v-.11H74.8l.001.024.027.438.002.028h-.11l-.004-.022a.637.637 0 0 0-.042-.153.227.227 0 0 0-.062-.087.258.258 0 0 0-.105-.045.79.79 0 0 0-.175-.017h-.5a.385.385 0 0 0-.07.005.07.07 0 0 0-.031.012c-.004.003-.008.012-.011.026a.326.326 0 0 0-.006.071v.533c0 .02 0 .034.003.046a.044.044 0 0 0 .005.015.046.046 0 0 0 .014.005.244.244 0 0 0 .046.003h.395c.076 0 .138-.005.187-.014a.226.226 0 0 0 .1-.038.163.163 0 0 0 .047-.073.464.464 0 0 0 .022-.128l.001-.025h.111v.733h-.11l-.002-.025a.511.511 0 0 0-.025-.136.171.171 0 0 0-.047-.076.218.218 0 0 0-.097-.038 1.003 1.003 0 0 0-.187-.014h-.397a.208.208 0 0 0-.042.003c-.008.001-.013.003-.015.005v.001c-.003.002-.004.006-.006.014a.23.23 0 0 0-.003.045v.593c0 .035.002.063.006.085.004.02.01.032.016.04a.061.061 0 0 0 .03.016.226.226 0 0 0 .063.008h.463c.092 0 .171-.007.237-.02a.447.447 0 0 0 .155-.056.408.408 0 0 0 .11-.111.937.937 0 0 0 .099-.187l.01-.026.025.013.055.026.02.01-.007.022-.155.486-.006.018h-1.78v-.026Zm2.838-1.08c0 .011.001.02.004.027.001.005.003.01.006.012a.03.03 0 0 0 .013.006.103.103 0 0 0 .028.004c.118 0 .219-.01.303-.027a.566.566 0 0 0 .201-.077.31.31 0 0 0 .112-.129.454.454 0 0 0 .038-.193.455.455 0 0 0-.032-.177.285.285 0 0 0-.092-.12.436.436 0 0 0-.164-.07 1.079 1.079 0 0 0-.348-.018c-.023.004-.038.01-.045.015a.065.065 0 0 0-.017.033.317.317 0 0 0-.007.076v.639Zm-.659 1.106v-.112h.062a.44.44 0 0 0 .12-.014.154.154 0 0 0 .069-.038.17.17 0 0 0 .036-.074.527.527 0 0 0 .014-.13v-1.33c0-.088-.017-.146-.051-.175a.19.19 0 0 0-.08-.033.756.756 0 0 0-.144-.015h-.026v-.112h1.032c.113 0 .213.01.3.033a.642.642 0 0 1 .226.103.447.447 0 0 1 .14.171c.03.067.046.144.046.23 0 .068-.01.13-.033.188a.454.454 0 0 1-.099.154.588.588 0 0 1-.16.115.925.925 0 0 1-.178.067c.118.15.222.281.313.39.096.116.175.207.237.272.061.064.115.114.16.147a.23.23 0 0 0 .1.051l.024.002v.11h-.487l-.008-.008a9.916 9.916 0 0 1-.736-.893h-.167a.11.11 0 0 0-.029.003.028.028 0 0 0-.012.005l-.001.001a.021.021 0 0 0-.005.01.085.085 0 0 0-.004.026v.489c0 .051.005.094.014.129a.165.165 0 0 0 .039.073c.017.017.042.03.075.039a.51.51 0 0 0 .13.014h.051v.112h-.968Zm2.458.019-.11-.64-.004-.03h.108l.007.017c.034.083.072.158.115.223.042.064.088.12.14.166.05.045.102.08.156.102a.417.417 0 0 0 .299.01.336.336 0 0 0 .185-.174.324.324 0 0 0-.041-.32.55.55 0 0 0-.087-.089.932.932 0 0 0-.126-.086l-.31-.187a1.3 1.3 0 0 1-.175-.122.688.688 0 0 1-.12-.127.489.489 0 0 1-.092-.3.489.489 0 0 1 .17-.39.56.56 0 0 1 .194-.112.747.747 0 0 1 .37-.025c.044.007.09.019.135.034a2.626 2.626 0 0 0 .153.044.046.046 0 0 0 .018-.004.037.037 0 0 0 .013-.01.09.09 0 0 0 .01-.02.159.159 0 0 0 .008-.033l.003-.023h.098l.003.023.065.599.004.029h-.108l-.006-.018a1.19 1.19 0 0 0-.096-.21.687.687 0 0 0-.119-.15.4.4 0 0 0-.416-.101.287.287 0 0 0-.097.058.25.25 0 0 0-.084.195.288.288 0 0 0 .059.17c.02.026.048.054.083.082.035.029.078.059.129.09l.344.201c.072.044.133.087.183.13a.68.68 0 0 1 .12.129c.03.043.053.09.068.142a.61.61 0 0 1 .022.166.614.614 0 0 1-.045.24.523.523 0 0 1-.137.189.598.598 0 0 1-.211.12.856.856 0 0 1-.27.04 1.027 1.027 0 0 1-.286-.04 4.671 4.671 0 0 0-.151-.039.104.104 0 0 0-.03.004.056.056 0 0 0-.019.009.042.042 0 0 0-.012.014.075.075 0 0 0-.008.024l-.004.022h-.094l-.004-.022Zm1.589-.019v-.112h.025a.675.675 0 0 0 .14-.016.178.178 0 0 0 .075-.034.137.137 0 0 0 .037-.066.476.476 0 0 0 .013-.124v-1.33a.441.441 0 0 0-.014-.12.14.14 0 0 0-.037-.067.18.18 0 0 0-.077-.036.644.644 0 0 0-.137-.016h-.025v-.112h.954v.026l-.002.06v.025h-.025a.72.72 0 0 0-.141.019.176.176 0 0 0-.076.035.139.139 0 0 0-.035.066.472.472 0 0 0-.013.12v1.33c0 .049.004.09.013.122.009.03.02.052.037.066a.172.172 0 0 0 .076.036c.037.01.084.014.139.016h.025v.025l.002.06v.027h-.954Zm1.632 0v-.112h.026c.118 0 .193-.016.226-.049a.16.16 0 0 0 .035-.077.708.708 0 0 0 .013-.152v-1.415a.217.217 0 0 0-.003-.044.04.04 0 0 0-.004-.01.606.606 0 0 0-.09-.008h-.048c-.095 0-.173.007-.236.02a.327.327 0 0 0-.137.056.266.266 0 0 0-.075.11.697.697 0 0 0-.043.185l-.002.024h-.11v-.027l.017-.51.001-.025h1.846v.562h-.112l-.002-.024a.764.764 0 0 0-.04-.189.262.262 0 0 0-.07-.108.312.312 0 0 0-.142-.054 1.567 1.567 0 0 0-.35-.016.074.074 0 0 0-.023.005.036.036 0 0 0-.005.012.19.19 0 0 0-.003.041v1.404c0 .07.004.124.014.166.008.038.02.063.036.076a.192.192 0 0 0 .079.032.8.8 0 0 0 .147.015h.025v.025l.002.06v.027h-.972Zm2.242 0v-.112h.04c.095 0 .16-.017.196-.05a.145.145 0 0 0 .04-.064.37.37 0 0 0 .013-.109v-.539l-.645-.898a.432.432 0 0 0-.059-.065.32.32 0 0 0-.137-.072.482.482 0 0 0-.09-.012l-.025-.001v-.112h.968v.11l-.024.001a1.4 1.4 0 0 0-.108.014.367.367 0 0 0-.066.016.074.074 0 0 0-.028.018.025.025 0 0 0-.006.016c0 .01.004.025.01.041.008.017.02.038.036.062l.005.006.001.002.45.645.381-.584a2.962 2.962 0 0 0 .076-.121.197.197 0 0 0 .01-.027.063.063 0 0 0 .003-.019.032.032 0 0 0-.006-.02.064.064 0 0 0-.023-.017.272.272 0 0 0-.06-.017 1.069 1.069 0 0 0-.1-.013l-.025-.002v-.11h.674v.11l-.025.002a.299.299 0 0 0-.077.014.248.248 0 0 0-.065.034.386.386 0 0 0-.069.065c-.025.03-.053.068-.083.113l-.523.789v.593c0 .04.005.072.014.098a.118.118 0 0 0 .037.056.196.196 0 0 0 .08.032.74.74 0 0 0 .138.015h.026v.112h-.954Zm2.73-1.017c0 .14.015.266.045.376.03.11.075.206.135.286.059.08.128.14.207.18.08.04.17.06.27.06s.19-.02.27-.06c.08-.04.149-.1.208-.18a.853.853 0 0 0 .135-.286c.03-.11.045-.236.045-.376s-.015-.265-.045-.375a.848.848 0 0 0-.135-.284.585.585 0 0 0-.208-.18.595.595 0 0 0-.27-.06c-.1 0-.19.02-.27.06a.584.584 0 0 0-.207.18.84.84 0 0 0-.135.284c-.03.11-.045.235-.045.374Zm-.394 0c0-.16.024-.303.072-.431a.938.938 0 0 1 .552-.557c.127-.048.27-.072.427-.072.157 0 .3.024.427.072a.94.94 0 0 1 .553.556c.047.129.072.272.072.431 0 .16-.024.305-.072.433a.951.951 0 0 1-.553.559c-.127.048-.27.073-.427.073-.158 0-.3-.025-.427-.073a.94.94 0 0 1-.552-.559 1.233 1.233 0 0 1-.072-.433Zm2.398.99.002-.06v-.024l.024-.001a.782.782 0 0 0 .145-.017.18.18 0 0 0 .076-.032.132.132 0 0 0 .032-.064.53.53 0 0 0 .013-.126v-1.328c0-.05-.005-.09-.014-.123a.142.142 0 0 0-.038-.068.172.172 0 0 0-.076-.035.605.605 0 0 0-.138-.013h-.026v-.115h1.695l.002.024.03.467.002.028h-.11l-.004-.022a.665.665 0 0 0-.046-.162.266.266 0 0 0-.07-.097.283.283 0 0 0-.112-.05.771.771 0 0 0-.178-.019h-.421a.282.282 0 0 0-.068.007.083.083 0 0 0-.036.018.071.071 0 0 0-.018.031.202.202 0 0 0-.007.06v.536c0 .021.001.038.003.05a.046.046 0 0 0 .006.016.043.043 0 0 0 .015.005c.01.003.024.004.042.004h.263a.973.973 0 0 0 .183-.014.233.233 0 0 0 .1-.04.148.148 0 0 0 .047-.072.411.411 0 0 0 .017-.13v-.025h.112v.754h-.11l-.002-.024a.68.68 0 0 0-.024-.148.175.175 0 0 0-.043-.08.194.194 0 0 0-.093-.037.994.994 0 0 0-.187-.014h-.266a.146.146 0 0 0-.037.003.036.036 0 0 0-.015.007.035.035 0 0 0-.008.015.132.132 0 0 0-.003.034v.55c0 .05.005.09.015.123.009.031.023.054.04.07a.193.193 0 0 0 .084.037c.04.01.09.015.15.016h.025v.025l.003.087h-.977v-.027Zm2.917.027v-.112h.026c.118 0 .193-.016.226-.049a.158.158 0 0 0 .035-.077.707.707 0 0 0 .013-.152v-1.415a.206.206 0 0 0-.003-.044.041.041 0 0 0-.004-.01.609.609 0 0 0-.09-.008h-.048c-.094 0-.173.007-.236.02a.327.327 0 0 0-.137.056.265.265 0 0 0-.075.11.693.693 0 0 0-.042.185l-.003.024h-.11v-.027l.017-.51.001-.025h1.847v.562h-.113l-.002-.024a.76.76 0 0 0-.04-.189.258.258 0 0 0-.07-.108.312.312 0 0 0-.142-.054 1.565 1.565 0 0 0-.349-.016.074.074 0 0 0-.024.005.03.03 0 0 0-.004.012.19.19 0 0 0-.004.041v1.404c0 .07.005.124.014.166.008.038.02.063.036.076a.187.187 0 0 0 .08.032.791.791 0 0 0 .146.015h.025l.001.025.001.06.001.027h-.973Zm1.597-.026.002-.06v-.026h.025a.694.694 0 0 0 .14-.016.173.173 0 0 0 .076-.033.134.134 0 0 0 .036-.065.473.473 0 0 0 .013-.123V72.08c0-.05-.004-.09-.013-.122a.137.137 0 0 0-.035-.066.184.184 0 0 0-.077-.035.717.717 0 0 0-.142-.019h-.025v-.11h1.745l.002.024.027.438.001.028h-.11l-.003-.022a.628.628 0 0 0-.042-.153.226.226 0 0 0-.063-.087.256.256 0 0 0-.105-.045.786.786 0 0 0-.174-.017h-.5a.385.385 0 0 0-.07.005.071.071 0 0 0-.031.012c-.005.003-.009.012-.012.026a.325.325 0 0 0-.006.071v.533c0 .02.002.034.004.046a.039.039 0 0 0 .005.015.039.039 0 0 0 .014.005.24.24 0 0 0 .046.003h.395c.076 0 .138-.005.186-.014a.226.226 0 0 0 .1-.038.162.162 0 0 0 .047-.073.444.444 0 0 0 .022-.128l.002-.025h.111v.733h-.11l-.003-.025a.512.512 0 0 0-.024-.136.173.173 0 0 0-.047-.076.215.215 0 0 0-.098-.038 1.006 1.006 0 0 0-.186-.014h-.398a.21.21 0 0 0-.042.003c-.007.001-.012.003-.014.005l-.001.001c-.002.002-.003.006-.005.014a.225.225 0 0 0-.004.045v.593c0 .035.002.063.007.085a.086.086 0 0 0 .015.04.059.059 0 0 0 .03.016.227.227 0 0 0 .063.008h.463c.093 0 .172-.007.238-.02a.449.449 0 0 0 .155-.056.418.418 0 0 0 .11-.111.942.942 0 0 0 .099-.187l.01-.026.025.013.055.026.02.01-.007.022-.156.486-.005.018h-1.781v-.026Zm4.08-.477.05.052.014.015-.013.018a1.315 1.315 0 0 1-.178.204.927.927 0 0 1-.43.232 1.23 1.23 0 0 1-.685-.043.951.951 0 0 1-.558-.552 1.188 1.188 0 0 1-.073-.425c0-.156.026-.3.076-.428a.994.994 0 0 1 .227-.345 1 1 0 0 1 .346-.226 1.174 1.174 0 0 1 .612-.061c.062.01.125.024.189.043a5.419 5.419 0 0 0 .203.057c.01 0 .02-.002.028-.005a.062.062 0 0 0 .022-.015.071.071 0 0 0 .014-.023.098.098 0 0 0 .005-.032V71.7h.105l.002.024.057.642.003.028h-.109l-.005-.018a.996.996 0 0 0-.103-.231.668.668 0 0 0-.143-.166.572.572 0 0 0-.181-.1.679.679 0 0 0-.218-.034.66.66 0 0 0-.533.245.838.838 0 0 0-.152.286c-.034.11-.051.233-.051.37 0 .131.017.25.051.357a.851.851 0 0 0 .152.284.673.673 0 0 0 .23.186c.085.04.18.061.285.061a.945.945 0 0 0 .207-.022.759.759 0 0 0 .35-.18c.056-.048.11-.105.165-.17l.019-.023.02.021Zm.236.476.001-.06v-.025h.026a.664.664 0 0 0 .14-.015.17.17 0 0 0 .075-.034.14.14 0 0 0 .036-.067.478.478 0 0 0 .013-.123v-1.33a.459.459 0 0 0-.013-.121.145.145 0 0 0-.038-.067.182.182 0 0 0-.077-.037.652.652 0 0 0-.138-.017h-.025v-.11h.948v.11h-.025a.689.689 0 0 0-.14.02.178.178 0 0 0-.076.035.14.14 0 0 0-.035.066.459.459 0 0 0-.014.12v.494c0 .016.002.03.004.04a.034.034 0 0 0 .007.015.035.035 0 0 0 .015.007c.01.002.022.003.038.003h.842a.112.112 0 0 0 .03-.003c.006-.002.01-.004.011-.006a.043.043 0 0 0 .007-.018.268.268 0 0 0 .003-.044v-.487a.452.452 0 0 0-.014-.12.145.145 0 0 0-.036-.067.175.175 0 0 0-.076-.035.695.695 0 0 0-.14-.018l-.024-.001v-.025l-.002-.06v-.026h.95v.111h-.025a.657.657 0 0 0-.139.017.175.175 0 0 0-.076.034.136.136 0 0 0-.036.067.46.46 0 0 0-.014.123v1.33c0 .048.005.088.014.12.009.03.02.052.037.067a.175.175 0 0 0 .076.036c.037.009.083.014.138.016h.026v.112h-.952l.001-.026.001-.06v-.026h.026a.655.655 0 0 0 .139-.016.174.174 0 0 0 .076-.035.143.143 0 0 0 .036-.066.453.453 0 0 0 .014-.12v-.545a.22.22 0 0 0-.003-.041.034.034 0 0 0-.006-.015c-.002-.002-.005-.004-.01-.005a.12.12 0 0 0-.032-.004h-.845a.12.12 0 0 0-.033.004.032.032 0 0 0-.015.008.043.043 0 0 0-.009.017.145.145 0 0 0-.004.036v.543c0 .049.005.09.014.121a.14.14 0 0 0 .036.067.168.168 0 0 0 .075.035c.037.01.084.014.14.016h.025v.112h-.95l.002-.027Zm2.956-.332c0 .053.004.096.012.13.008.03.019.051.033.063.015.013.04.024.075.033.037.01.084.017.142.02l.024.003v.11h-.766v-.11l.025-.002a.825.825 0 0 0 .142-.02.194.194 0 0 0 .075-.034.123.123 0 0 0 .032-.063.555.555 0 0 0 .013-.13v-1.378a.54.54 0 0 0-.053-.076.277.277 0 0 0-.129-.091.346.346 0 0 0-.08-.017l-.025-.002v-.11h.55l.007.009 1.127 1.353v-1.005a.57.57 0 0 0-.012-.13.128.128 0 0 0-.033-.063.175.175 0 0 0-.073-.032.805.805 0 0 0-.141-.02l-.025-.002v-.11h.763v.11l-.024.002a.805.805 0 0 0-.141.02.185.185 0 0 0-.075.032.12.12 0 0 0-.032.064.51.51 0 0 0-.013.129v1.676h-.099l-.008-.01-1.291-1.542v1.193Zm2.336-.659c0 .141.015.267.046.377.03.11.074.206.134.286.06.08.129.14.208.18.079.04.169.06.269.06.101 0 .191-.02.27-.06.08-.04.149-.1.209-.18a.847.847 0 0 0 .134-.286c.031-.11.046-.236.046-.376s-.015-.265-.046-.375a.843.843 0 0 0-.134-.284.586.586 0 0 0-.208-.18.6.6 0 0 0-.271-.06c-.1 0-.19.02-.269.06a.595.595 0 0 0-.208.18.844.844 0 0 0-.134.284 1.38 1.38 0 0 0-.046.374Zm-.393 0c0-.159.024-.302.072-.43a.941.941 0 0 1 .552-.557c.127-.048.269-.072.426-.072.158 0 .301.024.428.072a.95.95 0 0 1 .552.556c.048.129.072.272.072.431 0 .16-.024.305-.072.433a.948.948 0 0 1-.552.559c-.127.048-.27.073-.428.073-.157 0-.299-.025-.426-.073a.947.947 0 0 1-.552-.559 1.23 1.23 0 0 1-.072-.433Zm2.4 1.018v-.112h.04c.05 0 .092-.005.126-.015a.147.147 0 0 0 .07-.038.172.172 0 0 0 .037-.08.622.622 0 0 0 .014-.142v-1.289a.558.558 0 0 0-.014-.136c-.008-.032-.019-.054-.034-.066a.167.167 0 0 0-.074-.03.707.707 0 0 0-.138-.013h-.025l-.001-.025-.001-.06-.001-.028h.955v.113h-.04a.498.498 0 0 0-.127.014.169.169 0 0 0-.074.038.16.16 0 0 0-.04.07.468.468 0 0 0-.014.123v1.333c0 .042.003.076.009.102.005.022.012.037.02.045a.103.103 0 0 0 .047.019.507.507 0 0 0 .097.007h.342a.751.751 0 0 0 .195-.023.51.51 0 0 0 .154-.07.53.53 0 0 0 .123-.119.807.807 0 0 0 .097-.176l.007-.016h.113l-.011.034-.162.522-.006.018h-1.684Zm2.439-1.017c0 .14.015.266.045.376.03.11.075.206.134.286.06.08.129.14.208.18.079.04.169.06.269.06a.6.6 0 0 0 .271-.06c.079-.04.149-.1.208-.18a.868.868 0 0 0 .135-.286h-.001a1.4 1.4 0 0 0 .046-.376c0-.14-.015-.265-.045-.375a.863.863 0 0 0-.135-.284.586.586 0 0 0-.208-.18.599.599 0 0 0-.271-.06c-.1 0-.19.02-.269.06a.595.595 0 0 0-.208.18.863.863 0 0 0-.134.284c-.03.11-.045.235-.045.374Zm-.394 0c0-.16.024-.303.072-.431a.941.941 0 0 1 .552-.557c.127-.048.269-.072.426-.072.158 0 .301.024.428.072a.95.95 0 0 1 .552.556c.048.129.072.272.072.431 0 .16-.024.305-.072.433a.95.95 0 0 1-.552.559c-.127.048-.27.073-.428.073-.157 0-.299-.025-.426-.073a.948.948 0 0 1-.552-.559 1.231 1.231 0 0 1-.072-.433Zm4.405.816a1.729 1.729 0 0 1-.399.185 1.418 1.418 0 0 1-.429.063c-.165 0-.314-.024-.448-.072a1.015 1.015 0 0 1-.356-.214.951.951 0 0 1-.231-.332h.001a1.085 1.085 0 0 1-.077-.42c0-.16.026-.304.078-.435a1.023 1.023 0 0 1 .592-.575 1.267 1.267 0 0 1 .832-.013 7.857 7.857 0 0 0 .196.06.052.052 0 0 0 .022-.004.062.062 0 0 0 .019-.015.093.093 0 0 0 .018-.028.281.281 0 0 0 .014-.04l.005-.02h.02l.049-.002h.025l.002.025.03.61.001.028h-.105l-.006-.017a1.238 1.238 0 0 0-.116-.23.608.608 0 0 0-.138-.15h.001a.535.535 0 0 0-.171-.085.806.806 0 0 0-.222-.028.745.745 0 0 0-.307.06.662.662 0 0 0-.238.183.796.796 0 0 0-.155.285 1.198 1.198 0 0 0-.053.368c0 .138.018.261.053.371a.813.813 0 0 0 .158.285c.069.081.151.142.243.182.092.04.197.06.313.06a.794.794 0 0 0 .244-.039.642.642 0 0 0 .183-.1v-.525c0-.055-.003-.1-.011-.132-.007-.03-.016-.049-.028-.058a.192.192 0 0 0-.075-.026 1.182 1.182 0 0 0-.158-.015l-.025-.001v-.114h.899v.114l-.025.001a.598.598 0 0 0-.114.013.15.15 0 0 0-.061.026.117.117 0 0 0-.027.056.524.524 0 0 0-.011.117v.59l-.012.008Zm.832.201v-.112h.04c.095 0 .16-.017.196-.05a.145.145 0 0 0 .039-.064.376.376 0 0 0 .014-.109v-.539l-.645-.898a.386.386 0 0 0-.123-.11.32.32 0 0 0-.074-.027.478.478 0 0 0-.09-.012l-.025-.001v-.112h.969v.11l-.024.001a1.364 1.364 0 0 0-.108.014.356.356 0 0 0-.066.016.074.074 0 0 0-.028.018.025.025 0 0 0-.006.016c0 .01.003.024.01.04.008.019.02.04.036.063l.005.006.001.002.451.645.38-.584a3.362 3.362 0 0 0 .075-.121.122.122 0 0 0 .014-.045.033.033 0 0 0-.006-.02.065.065 0 0 0-.024-.019.264.264 0 0 0-.059-.016 1.082 1.082 0 0 0-.101-.013l-.023-.002v-.11h.673v.11l-.025.002a.276.276 0 0 0-.211.113c-.025.03-.053.068-.083.113l-.523.789v.593c0 .04.004.072.014.098a.117.117 0 0 0 .037.056.198.198 0 0 0 .079.032.73.73 0 0 0 .139.015h.026v.112h-.954ZM106.679 60.46l.019.018c.217-.02 1.182-.057 1.291-.182.042-.216.056-.502-.019-.691-.174-.442-1.044-1.472-1.618-1.491l-.091.073c-.152.605.267 1.304.564 1.654-.045.231-.147.353-.146.619Zm-48.495 4.145-.055-.163c.225-.552.622-1.088.819-1.619.086-.233.074-.448.2-.636.293-.44 1.182-.524 1.363-1.055.091-.267-.01-.667-.182-.782-.108-.072-.283-.028-.345-.145-.12-.226.198-.636.273-.782.443-.873.09-2.637-.892-2.636-.23.128-.596.386-.654.672l-.018.637c-.21.672-.485 1.472-.746 2.127-.151.38-.208.794-.418 1.11-.216.323-.547.57-.873.781l-.236.11-.036.2c.121.082.276.108.472.127.16.27-.088.57-.181.818-.255.675-1.206 2.186-.364 2.8a.695.695 0 0 0 .655.09l.945-.363c.602-.176 1.62-.19 1.764-.8.04-.17-.054-.298-.11-.382-.441-.673-.832-.056-1.381-.109Zm7.491-.818c-.067-.152-.206-.243-.436-.236l-.218.054c-.322.166-.221.792-.527.946l-.291.054c-.247.116-.541.25-.8.4-.629.364-1.207.846-1.82 1.219l-.635.345-.328.29c-.18.104-.41.093-.545.237-.09.715.52 1.486 1.454 1.11.198-.08 1.103-1.277 1.183-1.51.146-.082.323-.024.545-.072.438-.096.86-.202 1.364-.128.355.053.873.18 1.018-.072.277-.483-.038-1.196-.036-1.692 0-.29.193-.718.072-.945Zm-1.981 2.091c-.206-.173.634-.688.781-.782.544.038-.417.942-.781.782Zm4.2-1.946c-.28-.378-.448-.86-1.11-.854l-.109.09c-.05.21-.038.514 0 .746.04.233-.1.405-.054.582l.164.255c.233.445.346.724.763.982.505-.008 1.111-.478.873-1.073-.119-.297-.357-.498-.527-.727Zm-13.729-8.545c-.535.294-.248.87-.127 1.363l-.073.873c-.2 1.198-.5 2.675-.4 4.055l.018 1.273c.06.387.195 1.491.091 1.854-.108.377-.528.52-.727.8a6.821 6.821 0 0 1-1.618 1.582c-.613.422-1.233.785-1.364 1.691.152.232.178.221.472.328.148.053.253.22.51.163.577-.129 1.52-1.472 1.818-1.964.134-.22.157-.53.291-.727.146-.215.411-.836.764-.745.195.122.379.698.782.472.238-.115.335-.783.254-1.145-.092-.414-.226-.89-.309-1.382-.05-.299.084-.477.036-.764l-.072-.581c.19-1.06.22-2.09.527-3 .24-.715.651-1.343.818-2.074.059-.256-.098-.417-.145-.582-.207-.716-.639-1.494-1.546-1.49Zm-2.764 9.11c.106.786-.729 1.437-.509 2.036l.29.036c.233-.205.489-.485.656-.746.085-.133.098-.268.218-.363.456-.363.998-.586 1.273-1.128.001-.683-1.047-1.196-1.764-1.181l-.691.2c-.448.735.45.574.527 1.145Zm17.693-8.074c-.81-.337-1.332.474-1.746.29-.195-.103-.213-.372-.454-.454l-.928-.054c-.232-.058-.497-.13-.8-.127-.129.084-.219.13-.29.272.075.795.651.773.908 1.273l.019.109c-.202.2-.468.31-.71.473-.293.199-.583.492-.89.673-.336.197-.769.275-.928.636l-.018.145c.129.097.265.2.455.237.194.038 1.405-.287 1.581-.364.258-.112.432-.426.637-.6.394-.334.796-.513 1.29-.764.401-.202.628-.583 1.146-.709l.492.091c.159-.149.683-.555.545-.89-.059-.154-.159-.174-.31-.237Zm-1.946 4.291c.067-.312.677-1.065.946-1.164.25-.402-.181-.877-.582-.872-.315.155-.456.37-.727.527-.559.324-1.118.646-1.673.964-.21.12-.786.311-.891.49l-.018.11c.636.395 1.028-.307 1.654-.273.13.197-.007.46-.163.582-.556.434-1.036.824-1.437 1.418h-.036l-.31-.473c-.145-.185-.323-.253-.436-.49-.361-.011-.698 0-.818.236.046.444.36.817.473 1.218l.109.473.6.29c.415-.019.435-.27.6-.545.111-.147.376-.026.564-.109l.636-.454.746-.328c.297-.219.631-.725.763-1.09.068-.187-.044-.3 0-.51Zm11.856.291-.291.218c-.257.155-.555.245-.8.382l-1.819.764-.054-.018c-.064-.147.305-.894.4-1.091l.527-1.055c.327-.495.778-.972.964-1.6.18-.604-.867-1.196-1.454-1.182-.53.242-1.2.237-1.946.236h-.782l-.491.255c-.264.457 1.015 1.806 1.691 1.673.4-.08.584-.495.89-.655l.11-.018c.12.28-.15.61-.236.818-.271.653-.365 1.28-.51 2.11-.046.264-.182.615-.017.818-.05.36-1.043.582-1.364.745-.803.408-1.614.814-2.51 1.146-.517.19-1.53.418-1.763.836.063.572 1.031 1.324 1.745.891 1.218-.738 2.465-1.433 3.673-2.2.32-.204 1.072-.846 1.473-.855l.018.019v.054c-.153.135-.277.232-.4.4.037.072.037.073.11.11.554-.257 1.166-.581 1.745-.8l.545-.092c.604-.21 1.384-.487 1.728-.963.06-.402-.655-1.076-1.182-.946Zm23.439 3.51c-.142-.213-1.053-.607-1.364-.728-.285-.11-.358-.316-.819-.31l-.345.092c-.328.52.224.832.436 1.145.19.279.154.574.31.891.249.51 1.105.512 1.782.382.258-.39.258-.435.145-.927-.048-.21-.042-.391-.145-.546Zm9.31-.037c-.098-.044-.2-.178-.382-.127-.454.125-.824.889-1.437.727-.187-.372.415-.586.291-1.09-.13-.531-1.002-.583-1.6-.637l-.091.054c-.354.942.341.721.564 1.146.065.19-.175.447-.218.654-.033.156-.005.339-.037.455-.349.222-.74.37-1.109.6l-.2.182c-.33.154-.814.074-1.055.309v.072c.317.273 1.008.57 1.655.382l.927-.454c.054.033.061.03.091.09.053.148-.054.348-.091.474-.379 1.3-1.481.155-2.382.545l-.018.055c.048.61 1.719 1.12 2.437.836.481-.19 1.35-.8 1.182-1.582-.069-.319-.246-.707-.309-.964a.587.587 0 0 1 .309-.254h.091c.028.172-.11.217-.146.382.263.046.383-.214.546-.328.202-.14.418-.32.654-.418.321-.133.671-.178.928-.364.101-.453-.276-.6-.6-.745Zm.745-5.237c-.323.176-.277.632-.8.655a6.078 6.078 0 0 1-.036-.018c-.108-.495.414-.924.636-1.237l.218-.418.201-.164.054-.236c.204-.325.596-.673.709-1.073.099-.35-.055-.578-.109-.836-.34-.204-.801-.11-1.218-.037l-.2.491.218.364c.067.263-.151.464-.218.618-.254.576-.501 1.113-.819 1.6l-.054.037c-.085-.272-.03-.564.018-.837-.105-.203-.521-.265-.545-.382l.072-.236c.11-.475-.082-.73-.491-.818-.039-.062-.054-.085-.054-.2.48-.468.613-1.007.036-1.473-.205-.165-.374-.32-.764-.309-.099.061-.199.073-.254.182-.111.302.23.421.164.69-.034.135-.399.898-.491 1.019-.202.265-.824.19-1.073.51l-.018.09c.131.186.442.169.545.364v.054c-.1.258-.369.413-.527.618v.182l.018.055.164.018.563-.346.491-.145c.124-.087.099-.215.291-.255h.019c.125.28-.227.849-.364 1.037-.266.05-.607-.004-.819.09-.035.141-.083.287-.054.437.151.084.34.113.418.273.125.42-.599 1.082-.654 1.473l.072.036c.356.139 1.301-.737 1.455-.945.572.01.643.03.982-.219h.091c.117.108.303.28.236.51-.138.29-.574.353-.873.49-.519.238-2.063 1.35-2.709 1.182-.077-.151-.035-.436-.091-.618-.19-.616-.727-1.614-1.473-1.618-.248.251.098.544.164.818.256 1.075-.079 1.22 1.036 1.564.041.084.028.126 0 .218-.105.068-.291.114-.363.218l-.019.11c.16.155 1.26.304 1.509.127.695-.493 1.341-1.012 2.092-1.473l.491-.328.236-.018c.229-.099.667-.518.946-.436l.073.055c-.11.843-1.916 1.77-2.492 2.363v.091l.018.018c.596-.07 1.108-.455 1.582-.654l.873-.182c.902-.376 1.461-1.11 2-1.855.097-.134.295-.18.364-.345.222-.534-.884-1.25-1.473-.946Zm-2.309.164-.182-.11c-.092-.34.034-.62.255-.763h.09c.203.294.12.766-.163.873Zm-5.673 4-.328.218a73.1 73.1 0 0 1-.091.455c-.147.34-.591.856-.454 1.31.101.22.644.642.982.545.634-.272 1.002-2.552-.109-2.528Zm-11.62-5.946c-.236-.42-.697-.39-1.145-.218-.292.112-.464.324-.691.473-.488.32-1.016.581-1.51.873-.186.11-.91.596-1.018.4-.096-.24.042-.814.182-.91l.564-.163c.72-.3 1.904-1.089 2.182-1.818-.126-.35-.754-.842-1.273-.746-.417.078-.75.376-1.055.582-.376-.055-.005-.97-.836-.982-.318.319-.338.696-.291 1.236l.036.31c-.069.295-.477.615-.672.818l-.128-.018c-.248-.573-.243-1.348-1.073-1.073-.121.215.074.392 0 .69l-.2.528c-.048.196.022.423-.072.564-.313.467-1.217.431-1.691.745-.128.491.691 1.018 1.236.928.255-.043.335-.185.564-.237.21.151.416.504.836.418.18-.036.254-.148.473-.163h.018c.037.057.071.096.037.182-.142.244-1.348.74-1.674.927-.731.42-1.528.82-2.236 1.273-.44.28-.842.688-1.291.963-.376.23-1.693.78-1.546 1.364l.091.146c.287.067.497-.004.764-.055l1-.164c.69-.27 1.063-.895 1.618-1.29.277-.197.534-.353.818-.546.279-.189.524-.58.946-.6l.055.055c-.134.471-.364.716 0 1.181.59.125.673-.527 1-.781.224-.175.431-.312.709-.437.11-.05.184-.128.346-.09l.09.054c-.04.15-.237.15-.363.2-.095.528-.24.762-.655.945-.198.088-.342.087-.436.273l-.018.11c.308.325.429.102.745.29.057.033.062.051.091.11l-.036.163c-.081.112-.455.128-.582.182-.185.52.396.512.564.836.005.043.012.085.018.127-.11.109-.493.248-.546.382-.14.354.687.635.29 1.073-.11.123-1.471.57-1.727.618-.179.035-.32-.094-.472 0-.727.452.494 1.36.927 1.4.296-.279.177-.75.527-.945.367.035.884.33 1.146.527l.291.328c.852.168.347-.633.546-1.037.118-.244 1.326-.752 1.672-.836.364-.608-.395-1.187-.781-1.328-.445.218-.277 1.126-.746 1.364l-.127.018-.055-.054c-.11-.814.177-1.53.419-2.11.123-.296.482-.736.418-1.163a375.78 375.78 0 0 1-.11-.546c-.075-.11-.252-.087-.363-.163l-.31-.528v-.018c.102-.016.13.029.237.055l.11-.091c.04-.255-.112-.45.018-.655.063-.1.177-.13.272-.2.408-.3 1.152-.733 1.382-1.182-.016-.366-.624-.794-1.09-.564-.144.071-.179.186-.383.255h-.055l.019-.091c.413-.26.877-.638 1.382-.782l.382.055.709-.328c.38-.116.556.044.909-.181.219-.14.877-.468.618-.928Zm-3.345-1.273h.054c.146.334-.543.808-.709 1.019h-.11c-.365-.601.475-.81.765-1.018ZM87.405 67.37c-.136.14-.326.175-.618.164l-.128-.164c.044-.31.294-.407.491-.564h.128l.036.018c.082.135.1.308.09.546Zm-.146-9.346c.079-.163.29-.23.437-.327h.054c.133.232-.112.473-.273.582h-.181c-.055-.079-.086-.157-.037-.255Zm.11 1.018c-.025.037-.02.03-.055.055-.034-.025-.03-.017-.055-.055l-.036-.2.055-.072.109.018c.02.087.026.19-.018.254Zm-.292 2.528c-.076-.034-.092-.03-.127-.11-.157-.563.764-1.133 1.146-1.254.217-.069.28.066.527-.091.122.003.137.011.164.11.06.256-1.424 1.219-1.71 1.345Zm14.038-2.419c-.119-.323-.631-.4-.945-.2-.479.307-.7.896-1.219 1.182-.137.076-.27.326-.49.2-.183-.147-.038-.51-.037-.763.003-.619.122-1.164 0-1.782-.1-.511-1.493-1.386-2.018-1.473l-.146.073c-.548.941.116 1.304.4 1.963.18.416.442 2.767.237 3.182-.144.291-.939.657-1.237.855-.704.467-1.446.963-2.255 1.309l-1 .4c-.247.064-.42-.026-.6.091-.235 1.132.278 1.583 1.364 1.218.68-.228 1.224-.779 1.691-1.236.4-.392 1.173-.96 1.673-1.237l.127.019c.204.333-.065.85-.218 1.163-.445.912-1.149 1.629-2.146 1.964-.488.164-1.225-.03-1.436.436l.054.128c.43.105 1.084.05 1.528-.018l.382.036c1.351-.3 1.978-.746 2.618-1.764.14-.223.369-.49.436-.763.16-.647.217-1.24.4-1.819.065-.203-.017-.472.092-.618.203-.276.585-.474.908-.636l.528-.437c.258-.186.542-.322.782-.509.216-.168.699-.498.527-.964Z" fill="#0094B0"/></svg>