<svg width="128" height="137" fill="none" xmlns="http://www.w3.org/2000/svg"><g filter="url(#a)" fill-rule="evenodd" clip-rule="evenodd" fill="#7E181C"><path d="M46.876 23.459a43.766 43.766 0 0 0-13.987 9.43 43.825 43.825 0 0 0-9.429 13.986A43.712 43.712 0 0 0 20 64.003c0 5.94 1.165 11.704 3.46 17.128a43.84 43.84 0 0 0 9.429 13.984 43.795 43.795 0 0 0 13.987 9.427C52.297 106.837 58.058 108 63.999 108a43.732 43.732 0 0 0 17.128-3.458 43.847 43.847 0 0 0 13.986-9.427 43.786 43.786 0 0 0 9.427-13.984c2.297-5.424 3.46-11.188 3.46-17.128a43.682 43.682 0 0 0-3.46-17.128 43.772 43.772 0 0 0-9.428-13.986 43.818 43.818 0 0 0-13.984-9.43A43.826 43.826 0 0 0 63.998 20c-5.94 0-11.7 1.17-17.122 3.459Zm.565 79.742a42.323 42.323 0 0 1-13.522-9.118 42.26 42.26 0 0 1-9.119-13.52c-2.219-5.244-3.342-10.815-3.342-16.56A42.293 42.293 0 0 1 24.8 47.438a42.26 42.26 0 0 1 9.119-13.52 42.39 42.39 0 0 1 30.08-12.467 42.276 42.276 0 0 1 16.56 3.344 42.388 42.388 0 0 1 13.523 9.123 42.35 42.35 0 0 1 9.12 13.52 42.299 42.299 0 0 1 3.343 16.565 42.256 42.256 0 0 1-3.343 16.56 42.35 42.35 0 0 1-9.12 13.52 42.32 42.32 0 0 1-13.524 9.118c-5.245 2.219-10.815 3.339-16.56 3.339-5.744 0-11.316-1.12-16.557-3.339Z"/><path d="M51.332 34.018a32.282 32.282 0 0 0-10.337 6.973 32.443 32.443 0 0 0-6.976 10.341 32.37 32.37 0 0 0-2.555 12.666c0 4.393.86 8.653 2.555 12.667a32.44 32.44 0 0 0 6.976 10.34 32.318 32.318 0 0 0 10.337 6.972 32.228 32.228 0 0 0 12.664 2.56c4.393 0 8.654-.858 12.668-2.56a32.39 32.39 0 0 0 10.344-6.973 32.453 32.453 0 0 0 9.53-23.006c0-4.392-.864-8.652-2.56-12.666a32.481 32.481 0 0 0-6.97-10.34 32.353 32.353 0 0 0-10.344-6.974 32.319 32.319 0 0 0-12.668-2.556c-4.394 0-8.65.858-12.664 2.556Zm.387 59.054a31.41 31.41 0 0 1-10.034-6.761 31.48 31.48 0 0 1-6.76-10.029 31.402 31.402 0 0 1-2.48-12.284c0-4.259.837-8.39 2.48-12.283a31.383 31.383 0 0 1 6.76-10.029 31.41 31.41 0 0 1 10.034-6.761 31.26 31.26 0 0 1 12.277-2.48c4.26 0 8.394.83 12.287 2.48a31.349 31.349 0 0 1 10.028 6.761 31.355 31.355 0 0 1 6.764 10.029 31.346 31.346 0 0 1 2.477 12.283c0 4.264-.83 8.395-2.477 12.284a31.452 31.452 0 0 1-6.764 10.029 31.349 31.349 0 0 1-10.028 6.761 31.321 31.321 0 0 1-12.287 2.48c-4.26 0-8.39-.831-12.277-2.48ZM48.992 101.61l-.062.027c-.36-.192-.806-.407-1.338-.645a48.786 48.786 0 0 0-1.656-.714l-.025-.063.11-.24.062-.021c.143.048.28.097.411.14.235.087.388.128.466.132.055 0 .116-.033.182-.094.107-.106.36-.59.755-1.471l.445-.984c.137-.297.301-.672.495-1.133l.127-.3c.06-.131.06-.208.007-.235a1.257 1.257 0 0 0-.276-.015c-.437.002-.814.01-1.129.019l-.033-.049c.052-.156.1-.336.143-.543l.017-.027c.822.124 1.763.22 2.819.279l.057.096c-.082.152-.2.378-.358.676-.061.11-.21.418-.45.918l-.714 1.554c-.503 1.109-.756 1.716-.756 1.815-.003.07.021.129.07.161.08.071.314.21.709.414l.03.061-.108.242ZM60.98 102.53c-.046.337-.151.632-.326.87-.324.464-.784.748-1.386.852-.25.047-.544.043-.883-.001-.727-.098-1.252-.419-1.577-.965-.147-.241-.194-.543-.147-.903.059-.435.263-.772.614-1.004.114-.072.357-.179.727-.299-.6-.413-.86-.919-.782-1.517.091-.674.497-1.12 1.22-1.343a2.49 2.49 0 0 1 1.036-.067c.55.071.973.255 1.258.546.271.28.378.606.33.988-.07.517-.434.901-1.09 1.146.428.23.718.486.869.765.142.245.184.564.137.932Zm-1.144.356c.057-.415-.11-.761-.496-1.022a8.105 8.105 0 0 0-.819-.496l-.124-.061c-.499.249-.778.615-.843 1.094-.038.276-.013.502.081.687.199.413.529.654.983.716.322.042.591-.024.814-.19.229-.176.365-.417.404-.728Zm.393-3.187c.035-.285-.026-.52-.192-.72-.167-.197-.41-.318-.73-.359-.293-.042-.531.009-.724.15a.755.755 0 0 0-.314.53c-.027.217.05.433.229.637.1.114.25.227.448.347.068.049.176.11.318.192l.248.138c.419-.174.658-.482.717-.915ZM71.2 100.317c.106.771.038 1.426-.198 1.97a3.603 3.603 0 0 1-1.1 1.441c-.5.397-1.079.64-1.73.73l-.421-.23.093-.185c.1.016.219.016.365-.003a1.936 1.936 0 0 0 1.245-.685c.13-.154.246-.354.343-.595.157-.382.227-.925.21-1.619-.423.461-.666.702-.718.717a2.326 2.326 0 0 1-.67.197c-.43.059-.796-.036-1.103-.279-.333-.267-.536-.661-.607-1.186-.12-.846.126-1.516.728-2.012.286-.234.654-.382 1.113-.442.86-.123 1.522.156 1.986.824.231.33.382.782.464 1.357Zm-1.318-.272c-.077-.534-.219-.917-.428-1.154a.837.837 0 0 0-.76-.29c-.37.055-.598.267-.677.65a1.944 1.944 0 0 0-.014.703c.066.445.206.778.42.991a.84.84 0 0 0 .748.239c.383-.047.614-.236.7-.555.04-.147.04-.342.01-.584ZM81.415 98.512c.138.311.198.617.177.908-.039.563-.288 1.048-.749 1.449a2.72 2.72 0 0 1-.758.456c-.674.29-1.285.29-1.842-.006-.252-.135-.45-.368-.594-.69-.177-.407-.177-.807 0-1.186.06-.121.215-.333.47-.632-.733-.041-1.217-.339-1.456-.888-.274-.626-.157-1.22.348-1.784.219-.246.501-.442.85-.6.508-.218.964-.283 1.357-.178.375.097.643.324.795.675.212.48.097.997-.34 1.545.485-.024.868.04 1.14.198.248.144.45.386.602.733Zm-2.11-2.033c-.118-.26-.296-.434-.539-.515-.245-.084-.513-.06-.808.072-.266.114-.45.28-.54.5a.739.739 0 0 0 .007.611c.09.207.267.346.526.434.14.04.328.064.56.064.083.003.207.003.371 0l.282-.016c.27-.364.316-.75.14-1.15Zm1.317 2.929c-.166-.384-.487-.592-.955-.62a7.709 7.709 0 0 0-.957.005l-.14.006c-.295.472-.346.934-.152 1.374.11.253.252.436.425.552.388.251.79.28 1.213.097.293-.127.496-.328.6-.589.103-.264.09-.54-.034-.825ZM26.68 75.267c.308-.116.593-.154.862-.111a1.6 1.6 0 0 1 .738.307c.23.176.43.4.607.668.175.267.333.582.472.946l.17.436 1.518-.576a.467.467 0 0 0 .215-.143.372.372 0 0 0 .085-.26 1.215 1.215 0 0 0-.03-.277 2.357 2.357 0 0 0-.067-.314l.302-.115 1.13 2.962-.3.112c-.036-.069-.083-.164-.146-.28-.06-.12-.109-.196-.148-.24-.079-.083-.155-.131-.227-.14a.625.625 0 0 0-.262.045l-3.822 1.457a.528.528 0 0 0-.213.14c-.054.052-.085.14-.088.26-.003.083.007.186.029.316.02.128.037.224.055.284l-.301.114-1.137-2.988c-.27-.695-.358-1.264-.268-1.693.095-.427.368-.733.826-.91Zm.754 1.407c-.403.155-.676.351-.809.59-.136.245-.122.568.036.987l.12.319 2.378-.911-.064-.162c-.157-.41-.373-.689-.648-.836-.276-.146-.613-.14-1.013.013ZM25.14 66.16l.034.32a2.19 2.19 0 0 0-.617.476c-.204.22-.312.422-.33.618-.01.077-.01.19.003.336.012.142.023.267.035.353l.098.833 2.22-.26-.069-.587a1.342 1.342 0 0 0-.1-.394.766.766 0 0 0-.239-.306c-.066-.053-.184-.102-.35-.15a2.198 2.198 0 0 0-.42-.072l-.036-.32 2.395-.278.04.32c-.113.024-.25.08-.415.17-.163.088-.276.16-.334.228a.658.658 0 0 0-.164.333 1.43 1.43 0 0 0-.006.426l.068.59 1.663-.202c.174-.018.31-.044.41-.082a.435.435 0 0 0 .218-.173.601.601 0 0 0 .066-.291 3.225 3.225 0 0 0-.03-.478c-.012-.094-.023-.207-.046-.342a2.377 2.377 0 0 0-.063-.34 1.807 1.807 0 0 0-.097-.312.46.46 0 0 0-.146-.207 3.224 3.224 0 0 0-.655-.367 4.457 4.457 0 0 0-.648-.248l-.033-.295 1.804-.097.63 5.403-.315.037a7.343 7.343 0 0 0-.07-.308 1.56 1.56 0 0 0-.088-.272.417.417 0 0 0-.191-.19.484.484 0 0 0-.261-.02l-4.065.471a.537.537 0 0 0-.236.072c-.06.04-.11.12-.146.235a1.426 1.426 0 0 0-.055.311 4.15 4.15 0 0 0-.018.298l-.318.038-.598-5.104 1.475-.172ZM30.346 55.434l-.325 2.268a18.29 18.29 0 0 0-1.455.734c-.394.224-.889.512-1.486.862l-.03.206 1.809.263a.58.58 0 0 0 .256-.016c.071-.027.135-.088.2-.188a2.124 2.124 0 0 0 .184-.482l.316.045-.435 3.05-.317-.046c.007-.071.012-.175.02-.31.01-.135.004-.228-.008-.289a.414.414 0 0 0-.128-.226.648.648 0 0 0-.248-.097l-4.072-.575a.535.535 0 0 0-.244.013c-.07.02-.137.085-.204.184-.052.076-.097.18-.137.291a2.442 2.442 0 0 0-.09.28l-.316-.046.449-3.154.317.049a14.57 14.57 0 0 0-.008.303c0 .12.005.224.022.307.018.112.063.19.135.233a.597.597 0 0 0 .243.09l1.94.276.024-.168a47.096 47.096 0 0 0-.587-.831c-.23-.32-.425-.569-.574-.748a10.24 10.24 0 0 0-.503-.553c-.127-.121-.243-.19-.342-.205-.05-.007-.09.04-.129.129a2.38 2.38 0 0 0-.117.446l-.319-.045.359-2.495.314.047c-.009.303.014.564.059.777.048.215.149.432.299.661.22.321.41.59.573.802.161.214.37.485.625.82.355-.209.785-.467 1.296-.76a84.51 84.51 0 0 0 1.49-.893c.124-.078.246-.166.364-.267.118-.103.22-.225.3-.353.04-.065.074-.138.1-.22a1.51 1.51 0 0 0 .06-.214l.32.045ZM32.537 49.678l-1.201 2.988-.297-.117c.025-.073.055-.173.1-.313.04-.133.063-.231.063-.292 0-.109-.023-.193-.072-.249a.535.535 0 0 0-.218-.15l-3.818-1.528a.527.527 0 0 0-.248-.04.369.369 0 0 0-.233.129 1.63 1.63 0 0 0-.19.239 3.622 3.622 0 0 0-.173.281l-.298-.116 1.194-2.992.297.119c-.021.08-.05.18-.08.3-.033.118-.05.22-.056.31-.006.116.018.195.073.26.056.06.13.108.22.138l3.815 1.529a.446.446 0 0 0 .248.045.368.368 0 0 0 .236-.133c.046-.045.105-.12.173-.234.07-.114.127-.216.165-.297l.3.123ZM33.47 37.907c-.038.065-.09.158-.154.293a.833.833 0 0 0-.092.395c0 .128.064.26.184.398.12.14.323.31.602.51l3.378 2.426-.424.589-5.75.314 2.211 1.582c.277.2.498.332.664.4a.71.71 0 0 0 .44.041.923.923 0 0 0 .337-.188c.133-.108.233-.191.3-.26l.26.184-1.452 2.028-.26-.187c.053-.091.108-.202.163-.33a.973.973 0 0 0 .084-.362.623.623 0 0 0-.165-.388c-.107-.126-.313-.298-.62-.517L30.94 43.23a1.225 1.225 0 0 0-.35-.174.814.814 0 0 0-.37-.024 1.045 1.045 0 0 0-.37.143 1.76 1.76 0 0 0-.346.27l-.26-.19 1.273-1.77 5.041-.273-1.794-1.287c-.282-.203-.512-.337-.676-.399a.7.7 0 0 0-.436-.048.97.97 0 0 0-.334.192c-.127.099-.227.176-.296.248l-.25-.181 1.442-2.015.255.185ZM43.52 33.13c-.06.058-.11.116-.157.161a1.679 1.679 0 0 0-.149.203c-.067.1-.085.188-.06.277.024.084.06.16.117.232l.422.527c.088.104.159.192.213.25.055.065.12.145.2.237-.109.297-.325.673-.65 1.114-.322.446-.66.811-1.008 1.087a3.491 3.491 0 0 1-1.04.592 2.665 2.665 0 0 1-2.217-.17c-.36-.19-.691-.475-.994-.85a3.487 3.487 0 0 1-.61-1.118 2.758 2.758 0 0 1-.117-1.183c.045-.388.175-.765.39-1.132.22-.366.516-.7.891-1.003.259-.205.522-.368.789-.479.27-.116.504-.192.704-.233l.056-.335.28-.227 1.36 1.631-.281.225c-.56-.37-1.048-.579-1.467-.642a1.455 1.455 0 0 0-1.144.328c-.406.327-.578.758-.513 1.292.065.535.347 1.114.847 1.738.534.664 1.061 1.098 1.58 1.296.517.198.976.14 1.374-.178a1.91 1.91 0 0 0 .43-.482 1.46 1.46 0 0 0 .179-.463l-.733-.919a.444.444 0 0 0-.195-.153c-.07-.034-.16-.034-.275-.004a1.38 1.38 0 0 0-.298.12 3.519 3.519 0 0 0-.273.148l-.2-.243 2.35-1.896.2.251ZM57.033 24.447c-.075.031-.18.079-.32.146a.935.935 0 0 0-.326.242c-.085.09-.125.229-.12.41.003.178.055.439.142.784l.558 2.081c.163.611.085 1.158-.23 1.642-.32.485-.82.819-1.505 1.005-.8.207-1.468.197-2.003-.046-.534-.244-.886-.686-1.056-1.329l-.766-2.861a.445.445 0 0 0-.116-.222.487.487 0 0 0-.247-.128 1.348 1.348 0 0 0-.277-.015c-.106.01-.192.015-.254.025l-.082-.31 2.936-.784.083.309c-.083.027-.167.06-.247.099-.086.037-.168.08-.25.133a.319.319 0 0 0-.163.214.678.678 0 0 0 .017.267l.753 2.818c.151.555.38.93.69 1.114.316.188.706.215 1.176.094.456-.125.782-.358.968-.708.187-.348.21-.793.064-1.332l-.503-1.9c-.092-.337-.182-.58-.274-.74-.09-.15-.194-.256-.309-.304a1.043 1.043 0 0 0-.4-.059c-.182-.003-.312 0-.383.01l-.085-.318 2.448-.653.081.316ZM67.99 24.036a8.455 8.455 0 0 0-.328.034.929.929 0 0 0-.383.155c-.104.075-.177.201-.22.38-.047.175-.07.439-.074.787l-.057 4.155-.728-.007-3.54-4.541-.04 2.722c-.004.337.014.594.056.77a.704.704 0 0 0 .214.388c.072.065.189.115.35.163.16.052.285.086.383.102l-.003.32-2.491-.037.002-.313c.107-.011.225-.032.364-.06a.996.996 0 0 0 .346-.138.619.619 0 0 0 .224-.356c.043-.158.066-.426.066-.802l.04-2.754a1.117 1.117 0 0 0-.057-.387.766.766 0 0 0-.191-.317 1.066 1.066 0 0 0-.326-.224c-.12-.051-.263-.099-.418-.13v-.324l2.182.032 3.106 3.982.032-2.207c.003-.349-.013-.61-.057-.784a.729.729 0 0 0-.215-.383 1.137 1.137 0 0 0-.345-.166c-.155-.05-.28-.077-.375-.101l.01-.309 2.478.033-.006.317ZM74.242 30.975l-3.12-.803.081-.314c.07.015.177.038.319.06.139.028.238.034.299.028a.377.377 0 0 0 .24-.108.537.537 0 0 0 .118-.23l1.032-3.984a.596.596 0 0 0 .008-.252.389.389 0 0 0-.16-.215 1.836 1.836 0 0 0-.259-.158 2.994 2.994 0 0 0-.306-.14l.08-.306 3.118.806-.081.31c-.079-.013-.18-.03-.303-.045a1.65 1.65 0 0 0-.316-.016.354.354 0 0 0-.248.107.655.655 0 0 0-.115.232l-1.03 3.981a.547.547 0 0 0-.01.255c.019.075.073.15.161.22.047.038.137.084.257.142.121.05.227.092.312.123l-.077.307ZM85.663 30.197a1.295 1.295 0 0 0-.25-.074 1.046 1.046 0 0 0-.28-.018.944.944 0 0 0-.34.067c-.094.04-.2.098-.32.192-.162.129-.395.314-.699.566-.303.248-.65.52-1.04.841a125.8 125.8 0 0 0-1.134.94c-.411.337-.806.669-1.182.976l-.722-.381c.1-1.008.204-2.024.304-3.062.106-1.037.176-1.76.206-2.169.01-.146.007-.267-.015-.354a1.058 1.058 0 0 0-.147-.324 1.436 1.436 0 0 0-.165-.21 2.44 2.44 0 0 0-.225-.178l.154-.284 2.774 1.471-.146.278c-.28-.109-.48-.178-.593-.19-.115-.015-.182.004-.213.056a.447.447 0 0 0-.03.091c-.009.032-.017.081-.03.146-.036.254-.078.673-.133 1.267-.052.593-.14 1.497-.267 2.697a152.862 152.862 0 0 0 2.443-2.091c.145-.126.274-.242.383-.358.111-.11.184-.196.22-.267.041-.075.018-.17-.07-.285-.084-.106-.271-.26-.563-.442l.151-.288 2.08 1.1-.151.287ZM91.972 36.941l-.236-.218c.095-.215.147-.471.157-.767.01-.293-.038-.522-.15-.68a1.413 1.413 0 0 0-.228-.25c-.102-.109-.19-.186-.259-.252l-.616-.564-1.507 1.65.433.406c.11.096.222.173.334.227a.763.763 0 0 0 .385.075c.084-.005.205-.044.357-.118s.277-.146.37-.218l.233.213-1.627 1.783-.237-.215c.067-.092.133-.227.2-.399.068-.175.103-.308.103-.396 0-.129-.03-.25-.093-.36a1.557 1.557 0 0 0-.276-.324l-.437-.396-1.128 1.236c-.118.127-.2.24-.255.332-.047.092-.065.184-.047.27.01.083.06.175.134.264.078.092.189.208.34.348.072.06.155.139.256.227.099.086.19.157.275.215.09.069.187.126.275.172a.49.49 0 0 0 .247.063 3.41 3.41 0 0 0 .733-.154c.304-.095.523-.17.653-.238l.215.198-1.296 1.255-4.012-3.664.218-.234c.058.047.143.106.252.187.108.075.187.123.245.143a.4.4 0 0 0 .263.023.537.537 0 0 0 .213-.157l2.762-3.017a.567.567 0 0 0 .13-.209c.022-.07.006-.162-.043-.28a1.483 1.483 0 0 0-.163-.267 4.488 4.488 0 0 0-.176-.237l.211-.233 3.793 3.463-1.001 1.097ZM94.983 48.332l-1.206-1.876c.286-.639.506-1.159.657-1.56.155-.403.321-.888.501-1.452l-.116-.18-1.472.954a.448.448 0 0 0-.182.177.418.418 0 0 0-.028.273c.01.05.032.133.075.239.04.104.08.193.113.261l-.27.174-1.683-2.609.27-.175.2.25c.086.1.15.169.198.2a.406.406 0 0 0 .25.089.488.488 0 0 0 .244-.096l3.445-2.216a.619.619 0 0 0 .174-.173c.044-.06.05-.154.03-.275a2.016 2.016 0 0 0-.097-.314c-.042-.11-.078-.2-.105-.263l.269-.172 1.765 2.733c.394.616.598 1.142.613 1.583.011.44-.177.782-.565 1.037-.342.22-.683.3-1.016.24-.336-.063-.69-.259-1.063-.582-.104.283-.22.615-.348.994-.135.376-.264.767-.395 1.167-.046.127-.09.298-.14.503-.051.206-.06.364-.027.479.019.064.043.135.088.226.04.09.07.15.089.185l-.268.179Zm2.122-4.672c.327-.211.503-.456.537-.738.034-.276-.058-.58-.276-.917l-.177-.271-2.035 1.316.165.26c.215.337.473.54.767.61.297.07.638-.016 1.019-.26ZM96.607 53.093a3.64 3.64 0 0 1-.193-.985c-.015-.318 0-.597.047-.836l-.363-.18-.108-.328 1.974-.71.11.336a5.919 5.919 0 0 0-.497.483 3.252 3.252 0 0 0-.423.594c-.12.21-.2.437-.243.672-.042.229-.02.475.066.737.118.35.293.59.525.723a.88.88 0 0 0 .742.064.726.726 0 0 0 .456-.417c.09-.208.133-.499.127-.865 0-.242 0-.462-.003-.666-.002-.204.003-.394.009-.576.024-.418.143-.766.358-1.034.212-.27.49-.47.831-.575.211-.075.432-.099.66-.071.23.024.456.105.671.228.204.123.397.303.578.534.185.237.328.509.431.822.104.307.157.605.162.901.007.298-.007.532-.04.716l.308.158.115.34-1.866.662-.113-.336c.172-.146.349-.308.522-.482a2.83 2.83 0 0 0 .409-.506c.108-.178.175-.364.211-.557a1.297 1.297 0 0 0-.063-.631c-.094-.28-.249-.479-.463-.608a.778.778 0 0 0-.672-.07.72.72 0 0 0-.457.407c-.088.201-.13.486-.124.843-.002.216 0 .435.003.655 0 .222-.003.418-.012.595-.015.423-.12.775-.309 1.054-.187.285-.47.49-.85.613a1.687 1.687 0 0 1-1.451-.202 2.363 2.363 0 0 1-.617-.595 3.389 3.389 0 0 1-.448-.907ZM98.507 62.013l-.328-3.202.314-.033c.014.069.033.175.059.32.027.142.052.238.081.286.049.1.11.166.182.192.068.03.155.039.257.03l4.09-.423a.56.56 0 0 0 .243-.077.387.387 0 0 0 .146-.225c.023-.066.039-.169.054-.3.015-.131.024-.242.024-.334l.321-.03.329 3.201-.316.034c-.019-.08-.04-.183-.066-.299a1.61 1.61 0 0 0-.098-.304c-.045-.1-.108-.167-.184-.193a.539.539 0 0 0-.261-.028l-4.084.422a.542.542 0 0 0-.25.08.41.41 0 0 0-.144.225c-.019.06-.03.158-.043.29a2.724 2.724 0 0 0-.005.336l-.321.032ZM102.063 71.386l.039-.317c.257-.052.532-.156.835-.307.305-.152.476-.303.516-.458.019-.082.042-.193.067-.318.021-.127.04-.234.049-.32l.021-.196-4.512-.536a.585.585 0 0 0-.263.024.383.383 0 0 0-.203.187 3.776 3.776 0 0 0-.2.61l-.319-.036.382-3.223.315.038c0 .08 0 .194-.003.335-.003.147.003.241.021.296.03.11.08.192.149.233a.58.58 0 0 0 .255.086l4.551.54.023-.192c.012-.09.019-.201.024-.331.01-.126.013-.23.013-.321-.003-.156-.133-.348-.394-.563a3.458 3.458 0 0 0-.739-.496l.035-.32 1.652.198-.664 5.584-1.65-.197ZM100.176 81.43a1.52 1.52 0 0 0 .045-.269c.006-.086.003-.17-.012-.255a1.2 1.2 0 0 0-.121-.379 4.071 4.071 0 0 0-.224-.376 51.64 51.64 0 0 0-.59-.818c-.216-.292-.45-.61-.709-.951-.166-.223-.295-.37-.399-.45-.106-.073-.3-.166-.585-.274l-.767-.295a.549.549 0 0 0-.261-.041.403.403 0 0 0-.242.134 2.159 2.159 0 0 0-.18.247 2.474 2.474 0 0 0-.166.292l-.304-.115 1.165-3.031.3.111c-.025.076-.05.182-.088.32a1.676 1.676 0 0 0-.057.305.427.427 0 0 0 .088.258c.057.055.132.11.227.146l.955.364c.085.032.157.059.224.08a.632.632 0 0 0 .17.033c.055 0 .127-.001.22-.017l.356-.058c.419-.064.818-.123 1.194-.193.38-.062.734-.128 1.067-.189a1.665 1.665 0 0 0 .75-.319.915.915 0 0 0 .183-.22c.056-.087.104-.17.14-.246l.298.119-1.189 3.1-.3-.115c.102-.29.154-.492.164-.601.009-.113-.019-.185-.076-.202-.027-.012-.091-.012-.187-.012a12.61 12.61 0 0 0-.467.048c-.199.022-.473.065-.828.115-.354.06-.773.129-1.252.215.581.777.991 1.31 1.224 1.607.239.298.392.461.459.49.088.028.172.005.26-.084.085-.087.179-.247.282-.479l.296.113-.763 2.004-.3-.113Z"/><path d="M93.929 64.001c0 16.526-13.396 29.926-29.925 29.926-16.533 0-29.932-13.4-29.932-29.926 0-16.535 13.4-29.931 29.932-29.931 16.529 0 29.925 13.396 29.925 29.931Zm-11.326 15.21c-.995-2.314-2.122-4.45-3.356-6.34-1.295-1.995-2.71-3.732-4.206-5.16-1.606-1.534-3.322-2.726-5.095-3.542a14.52 14.52 0 0 0-3.58-1.125v-1.39A2.368 2.368 0 0 0 64 59.287a2.368 2.368 0 0 0-2.364 2.367v1.39c-1.213.212-2.41.586-3.577 1.125-1.773.816-3.486 2.008-5.1 3.543-1.495 1.427-2.911 3.164-4.203 5.159-1.233 1.89-2.363 4.026-3.355 6.34a2.296 2.296 0 0 0 1.197 3.008 2.296 2.296 0 0 0 3.004-1.204c1.792-4.186 4.045-7.64 6.516-9.994 1.776-1.699 3.625-2.802 5.518-3.302v3.719c0 1.28-.94 1.78-1.374 2.043-.14.086-.438.265-.578.352-.88.568-1.887 1.448-2.83 2.659-1.699 2.18-3.025 5.15-3.724 8.368a2.28 2.28 0 0 0 1.745 2.72 2.284 2.284 0 0 0 2.72-1.747c.56-2.56 1.574-4.882 2.864-6.53.654-.844 1.991-2.26 3.541-2.26 1.552 0 2.886 1.416 3.544 2.26 1.29 1.648 2.307 3.97 2.864 6.53a2.285 2.285 0 1 0 4.466-.973c-.7-3.217-2.025-6.189-3.725-8.368-.942-1.212-1.953-2.09-2.825-2.659l-.586-.352c-.43-.263-1.372-.764-1.372-2.043v-3.719c1.894.5 3.74 1.603 5.52 3.302 2.467 2.355 4.72 5.808 6.515 9.994a2.291 2.291 0 0 0 3.001 1.204 2.298 2.298 0 0 0 1.201-3.008ZM66.028 41.275v14.785c0 .778.565 1.907 1.786 2.168 2.744.581 5.877 2.184 8.707 4.521 2.778 2.29 5.386 5.298 7.754 8.95a2.29 2.29 0 0 0 3.164.672 2.28 2.28 0 0 0 1.039-1.92c0-.427-.117-.86-.37-1.247-2.621-4.034-5.541-7.389-8.677-9.98-2.785-2.302-5.696-3.949-8.673-4.917v-5.25c4.286 1.177 8.756 3.615 12.602 6.91a2.284 2.284 0 1 0 2.972-3.472 40.855 40.855 0 0 0-8.095-5.405c-2.504-1.267-5.011-2.186-7.479-2.753v-3.062a2.364 2.364 0 0 0-4.73 0Zm-6.418-2.364a2.365 2.365 0 0 0-2.365 2.364v3.062c-2.467.567-4.974 1.486-7.48 2.753a40.86 40.86 0 0 0-8.095 5.405 2.282 2.282 0 0 0-.25 3.22 2.29 2.29 0 0 0 3.223.252c3.846-3.295 8.313-5.733 12.602-6.91v5.25c-2.977.968-5.887 2.615-8.676 4.916-3.134 2.592-6.055 5.947-8.676 9.981a2.29 2.29 0 0 0 .674 3.167 2.283 2.283 0 0 0 3.157-.672c2.37-3.652 4.978-6.66 7.756-8.95 2.83-2.337 5.966-3.94 8.71-4.52 1.221-.262 1.782-1.39 1.782-2.17V41.277a2.364 2.364 0 0 0-2.362-2.364Z"/></g><defs><filter id="a" x="-13" y="0" width="154" height="157" filterUnits="userSpaceOnUse" color-interpolation-filters="sRGB"><feFlood flood-opacity="0" result="BackgroundImageFix"/><feColorMatrix in="SourceAlpha" values="0 0 0 0 0 0 0 0 0 0 0 0 0 0 0 0 0 0 127 0" result="hardAlpha"/><feOffset dy="16"/><feGaussianBlur stdDeviation="6.5"/><feColorMatrix values="0 0 0 0 0 0 0 0 0 0 0 0 0 0 0 0 0 0 0.03 0"/><feBlend in2="BackgroundImageFix" result="effect1_dropShadow_49_4969"/><feBlend in="SourceGraphic" in2="effect1_dropShadow_49_4969" result="shape"/></filter></defs></svg>