<svg width="128" height="128" fill="none" xmlns="http://www.w3.org/2000/svg"><path fill-rule="evenodd" clip-rule="evenodd" d="M64 20c24.301 0 44.001 19.7 44.001 44s-19.7 44-44 44C39.7 108 20 88.3 20 64s19.7-44 44-44Zm18.602 62.096.014.014c.167-.016.911-.044.995-.14.033-.166.044-.386-.014-.532-.135-.341-.805-1.135-1.247-1.15l-.07.056c-.118.467.205 1.005.434 1.276-.034.178-.113.271-.112.476Zm-37.377 3.195-.042-.126c.173-.425.48-.838.63-1.247.067-.18.058-.346.155-.49.226-.34.911-.404 1.05-.813.071-.206-.007-.515-.14-.603-.083-.056-.218-.022-.266-.112-.092-.175.153-.49.21-.603.342-.673.07-2.032-.686-2.032-.178.1-.46.298-.505.519l-.014.49a24.189 24.189 0 0 1-.574 1.64c-.117.293-.16.612-.323.855-.166.25-.42.44-.672.602l-.183.084-.028.155c.094.063.213.084.365.098.123.209-.069.44-.14.63-.197.52-.93 1.685-.28 2.159a.535.535 0 0 0 .504.07l.729-.28c.464-.137 1.248-.147 1.36-.617.03-.131-.043-.23-.085-.294-.34-.52-.642-.044-1.065-.085Zm5.774-.63c-.052-.118-.16-.187-.336-.182l-.169.042c-.248.127-.17.61-.406.728l-.224.042c-.19.09-.417.193-.617.309-.484.28-.93.651-1.401.938l-.49.267-.253.224c-.14.08-.317.071-.42.182-.07.551.4 1.145 1.12.855.153-.061.85-.984.911-1.163.113-.063.25-.019.42-.056.338-.074.664-.156 1.052-.098.273.04.673.138.785-.056.214-.372-.03-.922-.028-1.304 0-.224.149-.553.056-.728Zm-1.528 1.611c-.158-.133.49-.53.603-.602.419.029-.322.725-.603.602Zm3.238-1.5c-.216-.291-.345-.662-.855-.658l-.084.07c-.039.162-.03.395 0 .575.03.179-.078.312-.042.448l.126.196c.18.344.267.559.589.757.389-.005.855-.368.672-.827-.092-.228-.275-.383-.406-.56Zm-10.581-6.586c-.413.227-.191.671-.099 1.051l-.055.673c-.154.923-.386 2.062-.309 3.125l.014.981c.047.298.15 1.15.07 1.43-.083.29-.407.4-.56.616a5.252 5.252 0 0 1-1.248 1.22c-.471.325-.95.604-1.05 1.302.117.18.137.17.364.253.113.041.194.17.392.126.445-.1 1.172-1.135 1.401-1.513.103-.17.122-.409.225-.561.112-.166.317-.645.588-.575.15.095.293.538.603.365.184-.09.258-.604.196-.883-.07-.32-.174-.686-.238-1.066-.039-.23.065-.367.028-.588l-.056-.448c.146-.816.17-1.61.406-2.313.186-.55.502-1.034.63-1.597.046-.198-.075-.322-.111-.449-.16-.552-.492-1.151-1.191-1.149Zm-2.13 7.021c.081.607-.563 1.108-.393 1.57l.224.028c.179-.158.376-.374.505-.575.066-.103.076-.207.168-.28.351-.28.77-.452.98-.869.002-.526-.806-.922-1.358-.91-.178.05-.355.102-.533.153-.345.567.347.443.407.883Zm13.636-6.222c-.624-.26-1.027.365-1.346.224-.15-.08-.164-.288-.35-.35l-.715-.042c-.18-.045-.383-.1-.617-.098-.099.065-.168.1-.224.21.06.613.503.595.7.98l.015.085c-.155.154-.36.238-.547.364-.226.154-.45.38-.686.519-.259.152-.592.212-.715.49l-.014.112c.1.075.204.154.35.183.15.03 1.084-.221 1.22-.28.198-.087.332-.329.49-.463.304-.258.613-.396.995-.589.308-.156.484-.45.883-.546l.379.07c.122-.115.526-.429.42-.687-.045-.118-.123-.134-.239-.182Zm-1.5 3.307c.051-.24.522-.82.729-.896.192-.311-.14-.677-.449-.674-.242.12-.351.286-.56.407-.43.25-.862.498-1.29.743-.161.092-.605.24-.686.378l-.014.084c.49.305.793-.236 1.275-.21.1.152-.006.355-.126.449-.429.334-.798.635-1.107 1.093h-.028l-.239-.365c-.112-.142-.249-.195-.336-.378-.278-.008-.538 0-.63.182.035.342.278.63.364.939l.084.364.462.225c.32-.015.336-.209.463-.421.086-.113.29-.02.434-.084l.49-.35.575-.253c.23-.168.487-.558.59-.84.05-.144-.036-.23 0-.393Zm9.138.224-.225.169c-.198.119-.428.188-.616.294l-1.402.588-.042-.013c-.049-.113.235-.69.308-.841l.407-.813c.252-.382.599-.75.743-1.234.138-.465-.668-.921-1.121-.91-.408.186-.924.183-1.5.182h-.603l-.378.196c-.204.352.782 1.392 1.303 1.29.309-.062.45-.382.687-.505l.084-.014c.092.216-.115.47-.182.63-.21.504-.28.986-.392 1.626-.036.204-.141.475-.015.63-.037.28-.803.45-1.05.576-.619.314-1.244.627-1.934.882-.399.148-1.18.322-1.36.645.05.44.795 1.02 1.345.686.939-.568 1.9-1.104 2.831-1.695.247-.157.827-.652 1.136-.659l.013.014v.042c-.118.104-.213.179-.308.308.029.056.029.057.084.085.428-.197.9-.448 1.346-.617l.42-.07c.465-.162 1.067-.376 1.331-.743.047-.309-.504-.829-.91-.729Zm18.065 2.705c-.11-.164-.812-.467-1.052-.56-.219-.086-.276-.244-.63-.239l-.266.07c-.253.401.172.642.336.883.146.215.118.443.238.687.193.393.851.395 1.374.294.199-.3.198-.335.112-.714-.037-.162-.033-.302-.112-.42Zm7.175-.028c-.076-.034-.154-.137-.294-.098-.35.096-.635.686-1.108.56-.144-.286.32-.45.225-.84-.1-.41-.773-.449-1.234-.49l-.07.041c-.273.726.263.556.435.883.05.146-.135.345-.168.505-.026.12-.004.26-.028.35-.27.171-.571.286-.855.463l-.155.14c-.253.118-.627.057-.812.238V87c.244.21.776.438 1.275.294l.715-.35c.041.025.047.024.07.07.04.114-.042.267-.07.365-.292 1.002-1.142.12-1.836.42l-.014.042c.037.47 1.325.863 1.878.645.37-.147 1.04-.616.91-1.22-.052-.245-.189-.545-.237-.742a.455.455 0 0 1 .238-.197h.07c.022.133-.085.167-.112.295.202.036.295-.165.42-.252.156-.109.322-.247.505-.323.247-.103.517-.137.714-.28.078-.35-.212-.463-.462-.575Zm.574-4.036c-.248.135-.213.487-.616.505l-.028-.014c-.084-.382.319-.712.49-.953l.169-.323.154-.126.041-.182c.158-.25.46-.518.548-.827.076-.27-.043-.446-.085-.644-.262-.157-.617-.085-.939-.029-.05.127-.103.253-.154.379l.168.28c.052.203-.116.358-.168.477-.195.444-.385.857-.63 1.233l-.042.028c-.066-.21-.024-.434.013-.645-.08-.157-.402-.205-.42-.294l.056-.182c.085-.366-.063-.563-.378-.63-.03-.049-.042-.066-.042-.155.37-.36.472-.776.028-1.135-.158-.127-.288-.246-.589-.239-.077.048-.154.057-.196.14-.086.234.178.325.126.533a5.639 5.639 0 0 1-.379.785c-.155.205-.634.146-.826.392l-.014.07c.101.144.34.13.42.28v.043c-.077.198-.284.318-.406.477v.14l.014.042.126.013.434-.266.379-.112c.095-.067.076-.166.224-.196h.014c.097.216-.174.654-.28.799-.205.038-.468-.004-.63.07-.029.108-.065.22-.043.336.117.065.262.087.322.21.097.324-.461.834-.504 1.136l.056.027c.274.107 1.002-.568 1.121-.728.441.008.496.024.757-.169h.07c.09.084.233.217.182.393-.106.224-.442.273-.673.378-.4.184-1.59 1.04-2.088.911-.058-.117-.027-.336-.07-.476-.147-.475-.56-1.244-1.135-1.248-.19.194.076.42.126.631.198.83-.06.941.799 1.205.031.065.022.098 0 .169-.081.052-.225.088-.28.168l-.015.084c.123.12.971.235 1.164.098.535-.38 1.033-.78 1.612-1.135l.378-.252.182-.014c.177-.077.514-.4.729-.337l.056.042c-.085.65-1.476 1.365-1.92 1.822v.07l.014.014c.459-.054.854-.351 1.22-.504l.672-.14c.695-.29 1.126-.855 1.541-1.43.075-.103.228-.14.28-.266.172-.411-.68-.963-1.135-.729Zm-1.78.126a32.414 32.414 0 0 0-.14-.084c-.07-.263.027-.479.197-.588h.07c.155.226.092.59-.126.672Zm-4.372 3.084-.252.168a1093 1093 0 0 1-.07.35c-.114.261-.456.66-.35 1.009.078.17.496.495.756.42.489-.209.773-1.966-.084-1.947Zm-8.955-4.583c-.182-.324-.538-.3-.883-.168-.225.086-.358.25-.533.364-.376.247-.783.448-1.163.673-.144.085-.702.459-.785.308-.073-.184.033-.627.14-.701l.435-.126c.556-.231 1.468-.84 1.681-1.401-.096-.27-.58-.65-.98-.575-.321.06-.578.29-.813.449-.29-.043-.005-.749-.645-.757-.245.246-.26.536-.224.953l.028.238c-.053.227-.367.475-.519.63l-.098-.013c-.192-.441-.187-1.04-.827-.827-.093.165.057.302 0 .532l-.154.407c-.037.15.017.325-.056.434-.241.36-.938.332-1.303.575-.099.378.533.784.953.714.197-.032.258-.142.434-.182.163.117.321.388.645.323.139-.029.196-.115.364-.126h.014c.029.043.055.074.028.14-.109.188-1.038.57-1.289.714-.564.324-1.178.633-1.724.981-.338.216-.648.53-.995.743-.29.177-1.305.601-1.191 1.051l.07.112c.221.052.383-.003.589-.042l.77-.126c.532-.208.82-.69 1.248-.995.213-.152.411-.272.63-.42.215-.146.404-.448.73-.463l.041.042c-.103.364-.28.552 0 .911.454.096.52-.407.77-.603a2.53 2.53 0 0 1 .547-.336c.085-.038.143-.099.267-.07l.07.042c-.03.116-.183.116-.28.154-.073.407-.185.588-.505.729-.153.067-.264.067-.336.21l-.014.085c.238.25.33.078.574.223.044.026.048.04.07.085a14.3 14.3 0 0 1-.028.126c-.062.086-.35.098-.448.14-.142.4.305.394.434.644l.014.099c-.084.083-.38.19-.42.294-.108.272.529.49.224.827-.086.095-1.135.438-1.331.476-.139.027-.247-.073-.364 0-.56.349.38 1.048.714 1.08.228-.216.136-.578.406-.73.283.028.681.255.883.407l.225.252c.656.13.267-.488.42-.798.092-.189 1.022-.58 1.29-.645.28-.468-.306-.915-.603-1.023-.343.168-.214.868-.575 1.05l-.098.015-.042-.042c-.085-.627.136-1.178.323-1.626.094-.228.371-.567.322-.897l-.084-.42c-.059-.085-.195-.067-.28-.126l-.24-.407v-.014c.08-.012.101.022.183.042l.084-.07c.032-.196-.085-.346.014-.504.05-.078.137-.1.21-.154.315-.232.888-.565 1.066-.911-.013-.282-.481-.613-.841-.435-.11.055-.137.143-.294.196h-.042l.014-.07c.318-.2.676-.491 1.065-.602l.294.042.546-.252c.293-.09.43.033.701-.14.169-.108.677-.361.477-.715Zm-2.579-.981h.042c.113.257-.418.622-.546.785h-.085c-.282-.463.366-.624.59-.785Zm-1.654 8.618c-.104.109-.251.135-.476.126a36.04 36.04 0 0 0-.098-.126c.034-.238.226-.313.378-.434h.098l.028.014c.063.103.077.237.07.42Zm-.112-7.203c.06-.125.224-.178.337-.252h.042c.102.179-.087.364-.21.448h-.14c-.043-.06-.066-.12-.029-.196Zm.084.785c-.019.028-.015.023-.042.042-.026-.02-.023-.013-.042-.042a22.33 22.33 0 0 1-.028-.154l.042-.056.084.014c.016.067.02.146-.014.196Zm-.224 1.948c-.06-.026-.072-.023-.098-.084-.121-.435.589-.874.883-.967.167-.053.217.05.406-.07.094.002.106.008.126.084.047.198-1.097.94-1.317 1.037Zm10.82-1.864c-.093-.25-.487-.31-.73-.154-.368.236-.538.69-.938.91-.107.06-.21.252-.379.155-.14-.114-.029-.393-.028-.589.003-.476.094-.896 0-1.373-.077-.394-1.15-1.068-1.555-1.135l-.112.056c-.423.726.089 1.005.308 1.513.138.32.34 2.133.182 2.453-.11.224-.723.506-.953.659-.543.36-1.115.742-1.738 1.008a825.3 825.3 0 0 1-.77.309c-.192.05-.325-.02-.463.07-.182.872.214 1.22 1.051.939.523-.176.943-.6 1.303-.953.309-.302.904-.74 1.29-.953l.098.014c.157.257-.05.656-.168.897-.344.703-.886 1.255-1.654 1.513-.376.127-.945-.022-1.107.337l.042.098c.331.08.835.038 1.177-.014l.294.028c1.042-.231 1.525-.576 2.018-1.36.109-.172.285-.377.337-.588.123-.498.166-.955.308-1.402.05-.156-.013-.364.07-.476.157-.213.451-.365.7-.49l.407-.337c.2-.143.418-.248.603-.392.166-.13.538-.385.406-.743ZM55.214 58.418h9.436l.026-1.48H55.24l-.025 1.48Zm0 8.571h9.436l.026-1.48H55.24l-.025 1.48Zm-7.977-17.155 28.36-.056c4.345.11 6.336 3.631 5.871 6.795-.325 2.21-2.265 3.979-3.066 4.165 2.194.64 3.871 2.457 4.197 4.625.753 4.997-3.79 6.82-5.373 6.768l-30.08.004.064-3.102 21.98.018c4.452-.425 3.634-5.583 0-5.694l-21.937.053-.017-2.932 21.717.077c2.701-.267 4.187-3.515 3.304-5.56l-17.084.012V53.84l16.342.035c-.744-.875-2.388-1.347-3.815-1.316l-20.492.012.029-2.738ZM64 22.83c11.369 0 21.662 4.608 29.112 12.058 7.45 7.45 12.059 17.743 12.059 29.112 0 11.368-4.609 21.661-12.059 29.111C85.662 100.562 75.37 105.17 64 105.17c-11.368 0-21.661-4.608-29.111-12.059C27.439 85.661 22.83 75.368 22.83 64c0-11.369 4.609-21.662 12.059-29.112C42.339 27.438 52.632 22.83 64 22.83Zm27.95 13.22C84.796 28.9 74.915 24.475 64 24.475c-10.914 0-20.796 4.424-27.949 11.577C28.9 43.203 24.475 53.085 24.475 64c0 10.915 4.424 20.796 11.576 27.949 7.153 7.152 17.035 11.576 27.95 11.576 10.914 0 20.796-4.424 27.948-11.576 7.153-7.153 11.577-17.034 11.577-27.95 0-10.914-4.424-20.796-11.576-27.948ZM58.897 94.49h-.4v-3.516h-.671v-.33h1.071v3.846Zm3.085-1.671a.93.93 0 0 0 .931-.951c0-.27-.091-.5-.273-.685a.894.894 0 0 0-.664-.279.835.835 0 0 0-.632.27.959.959 0 0 0-.255.688c0 .279.084.508.253.687.167.18.381.27.64.27Zm-.09 1.671h-.473l.897-1.394a2.645 2.645 0 0 1-.227.043c-.069.01-.13.015-.187.015-.348 0-.637-.122-.865-.364-.228-.244-.342-.549-.342-.917 0-.378.124-.691.37-.938.246-.248.56-.372.94-.372.373 0 .683.122.93.367.248.243.372.543.372.898 0 .308-.159.707-.476 1.195l-.069.108-.87 1.359Zm3.49-2.179a.93.93 0 0 0-.931.951c0 .271.09.5.273.688a.893.893 0 0 0 .663.281.832.832 0 0 0 .632-.272.97.97 0 0 0 .255-.692.961.961 0 0 0-.253-.686.838.838 0 0 0-.64-.27Zm.092-1.666h.47l-.897 1.389a2.99 2.99 0 0 1 .227-.044c.069-.01.131-.014.187-.014.349 0 .637.122.865.364.228.243.342.55.342.917a1.271 1.271 0 0 1-1.315 1.31 1.26 1.26 0 0 1-.928-.366 1.217 1.217 0 0 1-.369-.902c0-.306.16-.704.476-1.193l.072-.11.87-1.352Zm2.321 2.575c0 .32.082.567.246.745.163.177.39.266.68.266.29 0 .517-.088.68-.264.163-.176.246-.422.246-.736v-1.326c0-.313-.083-.558-.247-.736-.165-.177-.39-.265-.678-.265-.29 0-.518.09-.68.268-.165.18-.247.428-.247.749v1.299Zm-.372-.082v-1.14c0-.25.018-.436.053-.562.035-.125.093-.243.174-.352a1.303 1.303 0 0 1 1.073-.52c.403 0 .72.125.953.374.232.25.348.596.348 1.038v1.178c0 .208-.017.38-.05.515a1.042 1.042 0 0 1-.16.361c-.122.171-.278.303-.468.397-.19.093-.398.14-.623.14-.221 0-.422-.044-.605-.134a1.343 1.343 0 0 1-.473-.387.935.935 0 0 1-.169-.36 2.32 2.32 0 0 1-.053-.548ZM33.293 79.21c.111-.05.174-.09.187-.12.014-.03 0-.094-.044-.192l-.04-.09c-.188-.422-.384-.697-.59-.825-.205-.128-.447-.131-.725-.007-.27.12-.428.289-.478.508-.05.22.007.51.169.874.093.209.166.327.22.354.055.027.149.011.279-.047l1.023-.455Zm1.844-.821c.109-.048.172-.105.188-.172.016-.066-.02-.202-.111-.404l-.055-.123c-.15-.338-.339-.563-.564-.676-.225-.112-.476-.106-.752.017-.282.126-.45.316-.506.57-.054.256.004.577.175.962l.097.218c.049.11.091.172.126.186.034.015.096.003.183-.035l1.219-.543Zm1.028.96-.118.05c-.105-.226-.209-.36-.311-.406-.102-.044-.254-.023-.454.066l-2.599 1.157c-.202.09-.32.189-.353.294-.033.105-.005.274.086.508l-.114.051-.826-1.854c-.202-.455-.278-.844-.224-1.167a.858.858 0 0 1 .524-.684.856.856 0 0 1 .622-.039c.21.065.406.205.59.42-.077-.34-.07-.623.019-.854.089-.23.258-.4.51-.512.376-.168.716-.152 1.022.046.305.198.587.59.846 1.17l.78 1.754Zm-1.853-4.092-.124.032c-.075-.237-.157-.385-.25-.444s-.246-.059-.46.003l-2.735.784c-.21.06-.34.14-.39.239-.049.099-.044.271.014.517l-.12.035-.998-3.477.882-.313.036.124c-.247.116-.4.244-.458.385-.06.14-.047.355.036.645l.295 1.028c.035.124.074.2.115.228.04.027.126.023.256-.015l1.094-.313c.085-.024.135-.05.152-.078.016-.028.013-.085-.012-.173l-.233-.81c-.09-.317-.19-.514-.297-.587-.108-.074-.273-.085-.498-.033l-.036-.123 1.397-.4.035.123c-.228.082-.37.182-.424.3-.055.117-.036.336.055.653l.234.816c.023.079.048.126.078.143.028.019.085.015.171-.01l1.217-.349c.149-.042.24-.09.274-.142.034-.052.034-.135.001-.25l-.272-.95c-.11-.385-.245-.647-.404-.787-.16-.14-.414-.228-.764-.267l.023-.127 1.09.033 1.02 3.56Zm-1.298-4.474-.127.02c-.044-.242-.11-.399-.197-.47-.086-.07-.24-.088-.46-.053l-2.803.444c-.215.034-.354.099-.417.195-.063.097-.079.266-.047.506l-.127.02-.3-1.9.127-.018c.049.246.117.403.204.472.088.069.24.086.453.052l2.803-.444c.217-.034.356-.098.418-.194.063-.095.078-.265.046-.507l.126-.023.3 1.9Zm-4.849-4.61.125-.008c.023.24.078.4.166.477.087.078.252.108.496.09l2.26-.157c.427-.03.76.042.997.214.238.173.369.44.394.799a.893.893 0 0 1-.122.559.492.492 0 0 1-.394.243.239.239 0 0 1-.19-.066.29.29 0 0 1-.086-.199.333.333 0 0 1 .053-.212.5.5 0 0 1 .235-.18c.173-.087.256-.182.25-.283-.007-.093-.042-.161-.106-.204-.064-.042-.158-.06-.282-.05L29 67.404c-.25.017-.412.071-.486.164-.076.091-.103.263-.086.513l-.128.009-.134-1.915Zm4.146-.956h-.128c-.006-.246-.046-.41-.121-.495-.074-.083-.223-.125-.446-.125h-2.838c-.217 0-.365.043-.442.128-.078.086-.12.25-.126.493h-.128v-1.925l.128.003c.01.25.053.417.129.498.075.082.222.122.439.122h2.838c.218 0 .367-.041.443-.126.077-.084.118-.25.124-.494l.128-.003v1.925Zm-.676-3.546c.232.032.388.015.465-.052.078-.069.143-.226.196-.474l.127.018-.212 1.509-.127-.018c.017-.253-.002-.423-.058-.51-.056-.086-.2-.145-.433-.178l-2.93-.411a.972.972 0 0 0-.347.22.708.708 0 0 0-.166.326l-.127-.018.152-1.08 3.325-2.062-2.277-.32c-.232-.032-.387-.015-.465.051-.077.067-.141.223-.192.47l-.127-.019.211-1.502.127.018c-.019.25 0 .419.056.505.055.086.2.146.432.179l3.489.49-.018.127-3.776 2.354 2.675.377Zm2.033-8.172c.085.308.127.613.127.915a3.104 3.104 0 0 1-.138.899c-.203.662-.556 1.14-1.06 1.43-.504.292-1.064.343-1.681.155-.638-.196-1.095-.56-1.37-1.098-.276-.537-.314-1.135-.113-1.793.079-.258.2-.501.36-.73.163-.23.247-.356.254-.379a.167.167 0 0 0-.02-.14.396.396 0 0 0-.14-.127l.029-.1 1.266.318-.038.123c-.417.03-.738.127-.964.289-.225.162-.39.416-.495.76-.147.48-.093.916.162 1.312.254.395.666.68 1.233.853.574.176 1.078.169 1.511-.022.433-.19.724-.53.874-1.02.055-.18.079-.36.073-.54a1.235 1.235 0 0 0-.107-.481l-1.094-.335c-.234-.071-.387-.082-.46-.03-.073.05-.156.21-.25.478l-.13-.04.53-1.73.128.04c-.054.198-.062.337-.026.418.037.08.158.153.363.216l1.176.36Zm-2.47-3.938-.114-.06.885-1.663.11.058c-.103.213-.138.373-.101.48.036.108.172.224.406.348l1.602.852c.44.234.81.318 1.115.254.306-.065.555-.281.75-.648.2-.374.242-.725.127-1.05-.114-.326-.374-.597-.78-.813l-1.602-.851c-.227-.121-.4-.165-.521-.131-.122.033-.241.156-.358.366l-.115-.057.701-1.318.11.058c-.09.19-.114.344-.069.46.047.118.18.235.402.353l1.528.813c.527.28.856.624.986 1.032.13.41.058.87-.215 1.385-.14.263-.3.482-.48.655-.18.173-.37.29-.57.353a1.186 1.186 0 0 1-.584.023 2.826 2.826 0 0 1-.74-.291l-1.403-.746c-.334-.177-.566-.254-.698-.229-.132.025-.255.147-.372.367Zm6.04-3.975c.182.148.324.213.425.195.102-.018.239-.12.412-.304l.1.08-.959 1.184-.1-.08c.145-.209.216-.364.213-.467-.003-.103-.097-.228-.28-.376l-2.298-1.861a.972.972 0 0 0-.412.01.703.703 0 0 0-.31.193l-.1-.08.686-.848 3.913-.055-1.787-1.446c-.182-.148-.325-.213-.425-.196-.1.017-.236.118-.406.302l-.1-.08.955-1.18.1.081c-.146.205-.216.36-.213.462.003.103.097.229.279.376l2.737 2.217-.08.1-4.45.073 2.1 1.7Zm3.216-2.748-.092-.09c.166-.18.252-.327.256-.44.005-.111-.073-.245-.234-.4l-2.041-1.971c-.156-.151-.292-.223-.407-.215-.115.008-.26.097-.432.267l-.093-.09 1.337-1.384.09.091c-.166.188-.25.337-.253.448-.003.111.075.242.23.393l2.042 1.971c.158.153.293.225.407.218.114-.008.258-.098.432-.27l.095.087-1.337 1.385Zm3.5-3.258-3.278-1.84c-.282-.16-.496-.248-.642-.268a.535.535 0 0 0-.399.103l-.077-.103 1.43-1.078.075.104c-.156.136-.252.237-.282.303-.032.067-.023.131.027.197s.276.216.677.45a78.97 78.97 0 0 0 2.045 1.124l-.598-2.656a2.568 2.568 0 0 0-.068-.24.576.576 0 0 0-.07-.145c-.055-.073-.122-.104-.2-.095-.076.01-.191.067-.346.17l-.08-.1 1.02-.77.078.102a.438.438 0 0 0-.152.284c-.015.113.009.304.073.573l.874 3.804-.108.08Zm2.143-1.857-.06-.114c.215-.126.34-.24.377-.344.038-.103.002-.253-.105-.448l-1.38-2.487c-.106-.192-.212-.3-.32-.327-.108-.026-.275.018-.501.13l-.061-.11 3.164-1.753.502.79-.112.061c-.169-.214-.327-.334-.478-.359-.15-.027-.356.033-.62.18l-.936.518c-.113.063-.178.118-.196.164-.017.046.006.128.072.247l.552.995c.042.077.079.12.11.13.03.01.085-.007.165-.05l.737-.41c.289-.16.458-.3.505-.422.048-.12.022-.284-.08-.492l.112-.063.705 1.271-.112.063c-.132-.205-.262-.32-.39-.347-.126-.026-.334.042-.623.202l-.742.411c-.071.04-.112.075-.122.108-.011.032.005.086.049.165l.613 1.107c.075.135.142.214.2.235.058.02.14.003.244-.055l.865-.48c.35-.194.575-.383.675-.57.1-.187.13-.455.089-.805l.129-.006.213 1.069-3.24 1.796Zm4.38-4.901c.022.052.05.085.083.098.032.013.076.008.13-.013.472-.191.785-.4.94-.629.155-.228.17-.497.044-.809-.116-.286-.29-.46-.52-.52-.232-.062-.538-.015-.922.14-.173.07-.274.133-.302.188-.028.055-.016.148.037.28l.51 1.264Zm-.337 2.621-.049-.119.072-.029c.198-.08.319-.175.362-.285.044-.11.023-.27-.063-.483l-1.065-2.634c-.076-.19-.168-.302-.274-.337-.106-.034-.28-.006-.52.084l-.048-.118 1.99-.805c.44-.178.813-.227 1.115-.148.303.08.52.284.653.612a.952.952 0 0 1 .012.74c-.095.235-.286.454-.574.656.776.45 1.342.756 1.696.916.355.16.592.223.713.187l.048.12-.889.358a19.556 19.556 0 0 1-1.07-.542 26.279 26.279 0 0 1-1.12-.649l-.357.144c-.055.023-.09.049-.104.08-.015.03-.012.072.009.122l.391.97c.086.211.184.341.297.388.112.047.276.027.49-.06l.05-.02.047.12-1.812.732Zm4.903-1.831-.534-1.277.125-.03c.226.322.47.557.735.704.264.147.522.193.77.135a.795.795 0 0 0 .502-.337.706.706 0 0 0 .102-.574.729.729 0 0 0-.247-.396 1.565 1.565 0 0 0-.547-.273l-.734-.24c-.314-.1-.553-.221-.713-.365a1.025 1.025 0 0 1-.319-.55 1.01 1.01 0 0 1 .157-.846c.177-.25.445-.417.804-.5.167-.038.35-.048.552-.029.202.018.32.025.355.017a.138.138 0 0 0 .096-.072.278.278 0 0 0 .018-.151l.107-.025.424 1.213-.125.029c-.196-.31-.408-.532-.637-.664a.936.936 0 0 0-.704-.117.739.739 0 0 0-.458.288.587.587 0 0 0-.09.491c.032.142.106.26.223.357.116.095.296.183.542.263l.812.256c.334.11.58.236.736.38.156.143.262.333.316.57.082.355.027.666-.163.933-.19.268-.487.449-.89.541a2.257 2.257 0 0 1-.6.053 3.406 3.406 0 0 0-.348-.005.218.218 0 0 0-.125.069.18.18 0 0 0-.038.128l-.104.024Zm3.26-.801-.015-.127c.244-.037.403-.096.477-.18.074-.085.097-.238.07-.459l-.346-2.817c-.027-.215-.087-.357-.181-.423-.095-.067-.263-.088-.505-.065l-.015-.127 1.91-.235.013.128c-.247.04-.407.104-.479.188-.072.085-.094.236-.068.451l.346 2.817c.027.217.086.359.18.424.093.067.262.087.505.064l.019.127-1.91.234Zm3.486-.464v-.129c.267 0 .44-.04.52-.119.081-.08.122-.256.122-.529v-3.02c0-.09-.014-.143-.04-.162-.024-.017-.1-.026-.223-.026h-.104c-.41 0-.686.058-.83.174-.145.117-.236.34-.272.667h-.128l.036-1.086h3.832v1.086h-.135c-.033-.332-.117-.555-.251-.67-.134-.114-.442-.171-.924-.171-.142 0-.225.01-.249.031-.025.02-.038.074-.038.157v2.997c0 .302.043.488.128.558.084.07.256.107.517.113l.003.129H61.79Zm4.776.062.015-.128.03.004c.215.026.37.005.467-.063.097-.068.157-.2.181-.392l.142-1.16-1.141-2.088a.825.825 0 0 0-.25-.283.868.868 0 0 0-.359-.134l.016-.128 1.941.238-.015.125c-.185-.007-.317 0-.392.02-.075.019-.117.056-.123.11-.008.06.018.149.078.265a.155.155 0 0 0 .01.015l.826 1.557L69 29.166c.101-.116.165-.196.196-.242a.3.3 0 0 0 .05-.116c.007-.057-.02-.104-.08-.142a1.272 1.272 0 0 0-.349-.112l.016-.127 1.316.161-.016.128a.633.633 0 0 0-.344.07c-.103.055-.231.173-.385.352l-1.324 1.548-.156 1.274c-.022.178.006.306.085.385.078.08.239.136.48.172l-.015.127-1.91-.234Zm6.36-1.06c-.198.576-.23 1.074-.097 1.497.133.422.41.706.831.851.423.146.817.093 1.182-.158s.647-.664.845-1.24c.197-.572.229-1.069.095-1.49a1.257 1.257 0 0 0-.835-.851 1.253 1.253 0 0 0-1.177.158c-.366.25-.646.66-.843 1.233Zm-.688-.237c.217-.63.58-1.071 1.088-1.321.51-.25 1.075-.268 1.698-.053.624.214 1.06.577 1.307 1.088.247.51.262 1.08.045 1.71-.218.632-.582 1.075-1.09 1.326-.511.252-1.077.271-1.702.056-.622-.214-1.056-.578-1.303-1.09-.247-.512-.26-1.085-.043-1.716Zm4.123 3.686.06-.113c.236.108.404.15.505.123.1-.027.203-.143.306-.346l1.287-2.525c.1-.196.13-.35.089-.458-.04-.109-.17-.219-.388-.33l.061-.12 3.128 1.594-.394.917-.115-.058c.087-.275.096-.49.028-.643-.067-.155-.238-.301-.51-.44l-.801-.408c-.112-.057-.2-.076-.263-.058-.063.018-.12.077-.171.18l-.519 1.018c-.043.085-.06.143-.05.175.011.032.053.067.128.105l.5.255c.287.146.496.206.627.18.131-.028.25-.145.355-.353l.115.058-.68 1.336-.115-.058c.104-.245.136-.424.094-.54-.042-.114-.212-.248-.51-.4l-.506-.257c-.065-.033-.116-.044-.15-.034-.037.011-.07.047-.102.11l-.532 1.045c-.102.199-.13.354-.085.468.045.114.184.231.419.355l-.056.116-1.755-.894Zm5.44 3.044.074-.105c.219.153.384.22.495.2.112-.018.246-.14.403-.363l1.732-2.474c.052-.073.072-.125.061-.155-.01-.029-.067-.08-.168-.15l-.085-.06c-.336-.234-.595-.345-.78-.333-.186.013-.388.143-.605.39l-.105-.072.652-.87 3.14 2.198-.624.89-.11-.078c.163-.29.222-.521.178-.693-.044-.17-.264-.394-.659-.67-.116-.081-.19-.12-.221-.117-.033.002-.073.039-.121.107l-1.72 2.455c-.173.248-.244.424-.215.53.03.105.149.235.36.39l-.072.107-1.61-1.127Zm2.71 2.055.09-.092c.186.165.333.25.443.252.11.004.24-.076.393-.239l1.94-2.08c.15-.16.22-.295.211-.406-.009-.11-.102-.255-.278-.437l.085-.091 2.646 2.467-.596.722-.094-.087c.152-.227.217-.415.195-.566-.022-.15-.142-.329-.364-.535l-.781-.73c-.095-.088-.167-.133-.216-.135-.05-.003-.12.045-.213.144l-.776.832c-.06.065-.09.112-.09.145 0 .032.033.08.1.142l.616.575c.242.225.428.342.558.35.13.008.277-.068.443-.229l.094.088-.99 1.063-.094-.088c.153-.188.223-.347.209-.477-.014-.128-.143-.305-.384-.53l-.621-.58c-.06-.055-.106-.083-.14-.082-.034-.001-.081.031-.142.097l-.863.925c-.106.113-.16.201-.162.263-.002.063.04.134.128.216l.722.674c.293.273.543.428.752.466.208.037.473-.017.793-.165l.046.121-.951.533-2.71-2.526Zm6.576 5.721-.02.15A2.387 2.387 0 0 1 90 45.612c-.31-.13-.582-.34-.816-.629-.42-.518-.6-1.06-.545-1.624.057-.563.34-1.052.851-1.466.508-.412 1.058-.587 1.647-.524.59.063 1.093.35 1.505.86.158.195.29.422.395.68.105.26.167.403.187.428a.194.194 0 0 0 .139.076.217.217 0 0 0 .157-.054l.073.09-.988.958-.08-.1c.222-.334.335-.659.337-.972a1.357 1.357 0 0 0-.326-.877c-.307-.38-.696-.571-1.165-.575-.47-.004-.935.181-1.397.556-.444.36-.714.77-.81 1.23-.097.461 0 .873.293 1.233.2.248.43.43.687.543.257.113.572.171.943.175Zm-.52 1.162.114-.062c.127.213.244.337.35.37.107.034.258-.005.45-.116l2.459-1.419c.188-.109.294-.22.319-.332.024-.113-.022-.278-.137-.494l.109-.062.956 1.657-.109.062c-.136-.21-.256-.332-.361-.364-.106-.032-.253.006-.441.114l-.913.527c-.068.04-.105.076-.116.112-.009.034.005.085.043.15l.9 1.558c.032.056.065.088.1.094.034.005.088-.014.162-.056l.9-.52c.186-.107.292-.216.317-.327.025-.11-.02-.274-.136-.494l.11-.067.96 1.662-.112.064c-.128-.21-.246-.333-.353-.368-.108-.035-.257.004-.449.114l-2.458 1.42c-.187.108-.294.218-.319.33-.025.111.022.275.138.49l-.11.065-.96-1.662.112-.062c.13.21.247.333.356.367.108.034.255-.003.441-.11l1.008-.582c.069-.04.108-.075.119-.106.01-.032 0-.076-.034-.133l-.901-1.562c-.034-.059-.07-.093-.109-.103-.04-.008-.09.004-.152.04l-1.003.579c-.189.109-.296.218-.321.328-.026.11.021.273.14.49l-.112.064-.956-1.656Zm3.605 5.282c-.223.073-.355.156-.396.25-.039.096-.029.266.032.512l-.122.04-.471-1.449.122-.04c.096.236.188.38.276.433.088.053.244.043.467-.03l2.813-.914a.967.967 0 0 0 .216-.35.707.707 0 0 0 .007-.366l.122-.04.337 1.037-2.085 3.311 2.186-.71c.223-.073.356-.157.396-.25.04-.094.03-.262-.033-.506l.122-.04.469 1.444-.122.04c-.093-.234-.184-.377-.272-.431-.088-.053-.244-.043-.467.03l-3.35 1.088-.04-.122 2.362-3.772-2.569.835Zm2.85 4.638c-.601.105-1.052.319-1.358.64-.305.321-.419.701-.341 1.14.078.44.315.76.71.956.398.198.895.244 1.495.138.596-.105 1.046-.317 1.35-.64.304-.32.417-.7.339-1.14a1.254 1.254 0 0 0-.71-.955c-.394-.198-.89-.245-1.486-.14Zm-.127-.718c.656-.116 1.218-.012 1.682.312.466.324.756.81.87 1.458.115.65.009 1.207-.318 1.671-.326.464-.818.753-1.474.869-.659.116-1.222.013-1.689-.31-.468-.325-.758-.811-.873-1.462-.114-.648-.008-1.204.321-1.668.329-.464.823-.754 1.48-.87Zm-1.276 5.434.129-.003v.03c.004.226.05.378.14.459.089.08.26.117.512.113l2.752-.048c.249-.005.406-.048.472-.13.066-.081.099-.245.096-.49l.129-.005.033 1.926-.128.002-.001-.03c-.004-.225-.048-.38-.134-.466-.087-.086-.238-.127-.455-.123l-2.844.05c-.19.002-.308.03-.355.086-.046.055-.068.169-.065.344l.013.732c.005.313.08.571.221.771.142.202.363.36.664.48l.002.128-1.12-.328-.06-3.498Zm2.05 5.332c-.606-.075-1.1-.003-1.486.216a1.255 1.255 0 0 0-.66.99c-.054.443.08.818.4 1.122.322.306.785.495 1.39.57.6.073 1.092.001 1.477-.218.385-.217.604-.549.658-.993a1.254 1.254 0 0 0-.4-1.12c-.319-.304-.779-.493-1.38-.567Zm.088-.723c.662.08 1.168.344 1.518.79.35.446.485.995.405 1.649-.08.655-.344 1.157-.793 1.505-.447.347-1.002.48-1.663.4-.664-.082-1.172-.346-1.524-.791-.353-.447-.489-.998-.408-1.653.08-.653.345-1.154.795-1.502.45-.347 1.006-.48 1.67-.398Zm-3.532 8.948a3.382 3.382 0 0 1-.142-.912 3.088 3.088 0 0 1 .122-.9c.19-.667.536-1.15 1.034-1.45.5-.3 1.059-.361 1.679-.183.641.184 1.104.541 1.39 1.073.284.532.332 1.13.142 1.791a2.55 2.55 0 0 1-.347.736c-.158.233-.24.36-.247.383a.168.168 0 0 0 .022.14.398.398 0 0 0 .142.124l-.026.102-1.271-.297.035-.123c.417-.037.736-.14.959-.306.222-.166.383-.422.482-.768.138-.482.077-.918-.185-1.31-.262-.39-.678-.667-1.248-.83-.577-.166-1.08-.15-1.51.047-.43.199-.715.543-.856 1.035a1.649 1.649 0 0 0-.064.542c.01.18.049.34.116.48l1.099.314c.235.068.388.076.46.023.072-.051.153-.213.243-.483l.13.038-.5 1.738-.129-.037c.051-.198.057-.338.02-.419-.039-.08-.16-.15-.368-.209l-1.182-.339Zm-1.177 1.61.117.053-.012.027c-.088.198-.113.353-.076.465.036.113.144.209.322.288l1.067.475 2.331-.481a.827.827 0 0 0 .343-.156.874.874 0 0 0 .234-.304l.117.053-.795 1.786-.114-.051a1.58 1.58 0 0 0 .095-.38c.004-.078-.02-.128-.069-.15-.056-.025-.148-.026-.276-.003l-.018.005-1.73.334.853 1.318c.082.13.14.215.174.258a.3.3 0 0 0 .097.082c.052.023.105.01.16-.035.053-.048.122-.148.208-.301l.117.052-.539 1.21-.117-.051a.629.629 0 0 0 .033-.35c-.022-.114-.097-.27-.224-.47l-1.093-1.72-1.172-.521c-.164-.073-.295-.084-.394-.031-.099.051-.2.188-.305.41l-.117-.053.783-1.758Z" fill="#0094B0"/></svg>