<svg width="128" height="137" fill="none" xmlns="http://www.w3.org/2000/svg"><g filter="url(#a)" fill-rule="evenodd" clip-rule="evenodd" fill="#2C3563"><path d="m31.262 54.425.96 2.447 2.408-1.05-1.047 2.407 2.443.961-2.443.96 1.047 2.405-2.408-1.047-.96 2.443-.957-2.443-2.412 1.047 1.05-2.408-2.443-.957 2.443-.96-1.05-2.409 2.412 1.05.957-2.446Zm65.603 0 .96 2.447 2.409-1.05-1.05 2.407 2.442.961-2.442.96 1.05 2.405-2.408-1.047-.96 2.443-.961-2.443-2.405 1.047 1.047-2.408-2.447-.957 2.447-.96L93.5 55.82l2.405 1.05.96-2.446ZM92.472 39.467a2.404 2.404 0 0 0-.044-.542c-.021-.18-.076-.3-.173-.356-.1-.052-.183-.024-.249.09-.031.09-.08.193-.159.304-.038.103-.131.2-.273.294-.21.134-.442.276-.687.431-.602.374-1.189.698-1.766.964-.58.273-1.133.48-1.658.63a9.912 9.912 0 0 1-2.08.345c-.377.041-.75.069-1.106.086a.544.544 0 0 0-.183.02c-.08.032-.087.08-.028.146.055.055.17.1.346.128.19.034.373.052.556.048.598.083 1.258.062 1.99-.072a10.651 10.651 0 0 0 1.945-.56c.73-.29 1.427-.626 2.09-1.013.256-.158.505-.297.747-.414a2.98 2.98 0 0 1 .425-.197.562.562 0 0 0 .124-.035c.028.07.052.142.08.211.083.19.218.363.408.525.805.743 1.623 1.5 2.456 2.277.387.346.632.529.736.553.087.024.149 0 .176-.062.045-.1.028-.249-.055-.446a1.2 1.2 0 0 0-.425-.504 21.848 21.848 0 0 1-1.513-1.171 18.874 18.874 0 0 1-1.62-1.649.077.077 0 0 0-.06-.03ZM70.847 30.57c.03.01.069.017.107.02.29.008.739.073 1.35.198a.53.53 0 0 0 .052.183c.1.29.263.356.48.187a.846.846 0 0 0 .336-.412c.142-.404.297-.819.463-1.247.141-.377.332-.67.56-.884.145-.111.18-.242.1-.39a3.602 3.602 0 0 0-.47-.533.48.48 0 0 0-.37-.097c-.55.049-1.12.042-1.703-.017l-.038-.052a1.742 1.742 0 0 0-.525-.518c-.073-.049-.149-.042-.228.02-.042.039-.045.111-.01.215.04.3.044.59.006.87-.007.236-.062.543-.162.923-.346 1.313-.67 2.329-.971 3.04a8.804 8.804 0 0 1-1.02 1.98c-.141.197-.217.387-.228.574-.003.311.025.536.083.674.073.148.16.172.273.08.152-.087.29-.25.415-.498a9.464 9.464 0 0 0 .684-1.614c.21-.715.432-1.42.646-2.121.059-.197.114-.394.17-.58Zm1.454-.256c-.1-.086-.273-.134-.511-.134-.287 0-.56.003-.82.003.09-.31.184-.587.277-.822.412.027.764.069 1.068.114.187.003.249-.049.197-.159-.049-.124-.166-.225-.36-.308-.169-.058-.418-.079-.75-.062-.006.007-.017.01-.023.014.172-.494.31-.836.41-1.026.032 0 .07 0 .115-.007.314.014.577.028.791.038.315.014.518.066.608.162.055.066.049.218-.03.45-.222.66-.44 1.26-.647 1.807a.507.507 0 0 1-.118.183 1.26 1.26 0 0 0-.207-.253Zm3.14 1.013c.056.02.129.045.229.062.377.035.967.156 1.759.366-.512 1.88-.992 3.445-1.438 4.696-.065.21-.145.352-.224.432-.063.034-.163.01-.3-.073a25.45 25.45 0 0 1-.592-.338c-.148-.1-.231-.11-.245-.032.332.54.577.992.746 1.365.049.19.142.325.263.394.069.056.148.052.235-.007.135-.09.31-.238.525-.452.166-.187.28-.415.335-.678.394-1.737.981-3.987 1.762-6.758.132-.484.284-.815.456-1.005.145-.121.183-.242.104-.363-.128-.2-.332-.411-.611-.625a.533.533 0 0 0-.412-.118c-.359.073-.642.11-.85.11-.231-.006-.57-.04-1.005-.1-.128-.2-.28-.359-.46-.487-.038-.038-.083-.048-.131-.027-.062.017-.083.082-.059.2.049.304.038.632-.027.988-.114.512-.26 1.023-.432 1.534-.08.242-.104.498-.083.77.02.19.066.325.131.395.11.09.214.024.308-.194.007-.024.014-.041.017-.055Zm1.94-.08c-.1-.117-.284-.18-.54-.197a13.07 13.07 0 0 1-1.271-.12c.02-.108.045-.222.062-.343l.18-.615c.007.004.027.01.065.021.488.083.909.149 1.261.2.18.018.256-.027.218-.141-.052-.128-.162-.232-.342-.318-.166-.073-.415-.11-.743-.114-.138.014-.259.031-.373.048.11-.387.221-.732.325-1.043.055.01.128.01.214.014.428.038.86.065 1.292.08.183.016.28.075.294.172.017.21-.004.463-.052.764a71.186 71.186 0 0 1-.46 1.755c-.037-.045-.082-.097-.13-.163Zm-25.22 2.077c.266.242.833.705 1.707 1.375.957.719 1.765 1.258 2.418 1.624.304.19.57.245.788.173.619-.27 1.203-.512 1.752-.736.235-.09.342-.166.321-.228-.014-.073-.169-.125-.47-.163a51.245 51.245 0 0 0-1.216-.086c-.504-.017-.922-.083-1.247-.197-.439-.135-1.078-.442-1.914-.916-.944-.514-1.683-.967-2.222-1.35a7.687 7.687 0 0 0-.076-.48c.708-.384 1.665-.82 2.868-1.303.186-.063.363-.128.532-.197.162-.066.259-.142.27-.232-.004-.114-.097-.207-.274-.273-.318-.083-.58-.117-.79-.103a.976.976 0 0 0-.502.169c-.539.352-1.282.812-2.218 1.375-.086-.314-.173-.629-.26-.936a13.183 13.183 0 0 1-.203-.736 4.321 4.321 0 0 1-.18-1.24c.014-.118-.038-.198-.152-.246-.214-.093-.511-.142-.884-.166-.221-.007-.398.038-.536.149-.162.134-.138.252.073.352.352.173.58.398.673.677.34.96.598 1.81.778 2.557-.764.429-1.576.878-2.433 1.358-.176.09-.165.183.028.276.159.056.325.08.498.077a1.16 1.16 0 0 0 .473-.18c.456-.35.978-.68 1.551-1.002.014.072.032.148.042.235.17.832.2 1.59.08 2.273a4.46 4.46 0 0 1-.488 1.507c-.224.494-.653 1.123-1.285 1.883-.093.097-.152.166-.16.214-.027.066.039.086.198.048.124-.041.397-.248.815-.621.297-.256.636-.667 1.006-1.227.28-.435.47-.888.58-1.375.132-.543.17-1.185.107-1.918a7.457 7.457 0 0 1-.048-.411Zm-18.544 9.232c.166-.083.352-.17.567-.266a.594.594 0 0 0 .214-.142c.017-.027.01-.072-.017-.127-.035-.06-.156-.1-.363-.121a.521.521 0 0 0-.3.065.525.525 0 0 0-.15.097c-.03-.135-.062-.28-.093-.435a.98.98 0 0 1-.065-.37c-.01-.076-.052-.128-.125-.148-.055-.025-.176-.025-.36-.004-.155.052-.269.107-.334.17-.062.082-.038.141.076.179a.358.358 0 0 1 .21.159c.128.231.232.477.322.732-.02.014-.045.032-.08.052-.276.246-.483.44-.621.574-.035.038-.028.069.017.086.055.02.114.017.166-.014.197-.114.407-.228.628-.342.063.19.111.401.156.63-.004.065.007.113.028.144.027.059.065.056.103-.007.031-.048.049-.159.049-.331a4.657 4.657 0 0 0-.028-.58Zm1.555.892c.19-.07.394-.149.618-.235a.427.427 0 0 0 .228-.135c.018-.028.014-.07-.01-.124-.024-.073-.142-.118-.349-.139a.477.477 0 0 0-.307.031.783.783 0 0 0-.284.156.564.564 0 0 1-.055-.173 1.17 1.17 0 0 1-.076-.366c-.017-.073-.055-.114-.114-.128-.052-.024-.166-.017-.339.01-.142.038-.238.097-.29.17-.052.065-.028.12.072.162.104.02.173.073.218.145.066.139.145.287.232.446a6.19 6.19 0 0 0-.602.46c-.02.024-.013.055.025.086.051.031.107.031.172.003a8.84 8.84 0 0 1 .536-.242c0 .014.007.028.017.045.094.27.183.574.256.91 0 .065.01.11.035.134.03.045.062.041.096-.014.028-.052.038-.148.024-.3.007-.173-.01-.38-.051-.63-.021-.079-.038-.169-.052-.272Zm-.553 3.856c.273-.104.456-.284.542-.54.187-.635.408-1.267.664-1.893.297-.698.712-1.582 1.226-2.657.315-.656.536-1.05.664-1.185.131-.073.22-.093.266-.055.03.01.08.062.138.155.124.194.249.387.377.591.062.107.12.145.172.121.056-.031.087-.131.09-.294.014-.511.087-.94.211-1.288.09-.29.107-.453.041-.48-.072-.035-.456.072-1.15.327a.725.725 0 0 0-.432.37c-.152.315-.3.646-.442.992-.937-.93-1.527-1.655-1.77-2.18-.02-.107-.075-.173-.165-.2-.131-.022-.404.086-.819.324a.516.516 0 0 0-.225.27c-.134.38-.304.794-.508 1.236-.082.135-.065.204.049.208.114-.028.231-.083.349-.166a.623.623 0 0 0 .235-.363c.065-.173.131-.352.2-.546.017-.045.042-.069.059-.076.083-.038.2-.003.352.114.132.114.266.245.401.387-.072.01-.148.059-.228.138-.107.114-.218.311-.321.598-.042.16-.08.318-.128.473-.048.094.01.121.183.08.045-.01.09-.055.138-.135.215-.366.401-.687.556-.96.146.159.315.325.502.511a.6.6 0 0 0-.17.138c-.107.121-.197.322-.287.608-.041.18-.076.346-.103.501-.035.104.027.128.18.063.044-.007.086-.06.13-.146.18-.355.336-.666.467-.932.197.214.418.445.653.687a4.07 4.07 0 0 0-.228.498c-.38.78-.846 1.796-1.396 3.054a.148.148 0 0 0-.027.083 19.425 19.425 0 0 1-.995-.363l.007-.003c.148-.356.276-.674.39-.95.052-.152.024-.222-.086-.215-.118.028-.232.107-.35.235-.086.132-.162.342-.224.636a.993.993 0 0 0-.007.197 9.841 9.841 0 0 1-.397-.155 1.593 1.593 0 0 1-.277-.114c.128-.422.25-.785.356-1.082.049-.145.024-.21-.086-.197-.107.02-.21.097-.311.228-.09.128-.149.328-.187.598-.014.114-.027.228-.034.339a3.577 3.577 0 0 0-.29-.146.348.348 0 0 0-.218-.065c-.007-.183-.01-.342-.017-.47-.007-.135-.014-.266-.018-.401a1.293 1.293 0 0 1-.024-.463c.02-.142-.038-.214-.17-.218-.134.014-.28.073-.442.177-.151.093-.234.176-.252.252-.038.076-.01.117.076.135.107.03.19.124.256.269.083.114.152.249.21.39.05.125.104.253.156.384a1.404 1.404 0 0 0-.466.384c-.076.079-.104.155-.083.235.02.079.09.114.214.1.311-.021.626-.007.943.041.29.062 1.002.283 2.129.663a45.75 45.75 0 0 1-.46.92c-.017.024-.02.051-.017.076-.01.003-.024-.004-.048-.018-.197-.024-.35-.01-.457.042-.159.055-.162.145 0 .259a.95.95 0 0 1 .156.08.738.738 0 0 1 .27.31c.1.218.196.47.276.76.034.108.128.19.283.246.207.09.38.135.529.135.231.017.297-.1.193-.346-.09-.2-.235-.411-.435-.64a7.256 7.256 0 0 1-.539-.676Zm4.637-2.17c.376-.733.874-1.58 1.482-2.536.138-.208.263-.401.373-.584.097-.145.125-.253.083-.329-.062-.103-.186-.124-.366-.062a3.716 3.716 0 0 0-.68.353 1.018 1.018 0 0 0-.305.435c-.256.663-.608 1.53-1.06 2.595-.035-.01-.077-.017-.115-.028a1.05 1.05 0 0 0-.4.035l-.06-.992c-.03-.376-.013-.667.06-.877.034-.16-.004-.256-.135-.284-.125-.045-.45.07-.978.346a.596.596 0 0 0-.283.39 34.252 34.252 0 0 1-.536 1.904c-.055.207-.224.498-.504.878-.1.148-.07.242.093.276a.84.84 0 0 0 .408-.1c.255-.135.39-.353.397-.657.048-.183.19-.763.428-1.748a.349.349 0 0 1 .19-.232c.097-.058.184-.038.246.063.142.345.297.718.48 1.116a1.007 1.007 0 0 0-.27.183c-.138.117-.207.228-.2.328-.007.121.07.16.221.118a1.49 1.49 0 0 1 .674-.111c-.546 1.147-1.13 2.384-1.762 3.718-.086.159-.028.221.176.193.17-.041.318-.117.439-.224a.86.86 0 0 0 .273-.401c.263-.86.618-1.735 1.068-2.633.072-.166.159-.345.255-.536.332.135.64.298.926.495.311.214.536.431.664.646.12.2.086.41-.097.636-.159.2-.325.39-.49.57-.077.069-.06.107.044.114.066 0 .18-.038.35-.121.41-.156.735-.228.97-.218.17.007.28-.055.325-.18.052-.093.031-.297-.052-.608-.066-.283-.221-.546-.466-.794-.29-.301-.688-.58-1.185-.833a6.698 6.698 0 0 0-.681-.304Zm50.152-1.407c.038.06.096.135.172.218.605.608 1.12 1.147 1.545 1.631-.097.18-.128.294-.08.339.063.072.208.086.44.038.196-.021.338-.08.431-.17.29-.27.677-.58 1.172-.946.138-.108.3-.17.48-.184.141-.013.22-.065.235-.148.017-.266-.024-.577-.114-.933-.042-.1-.135-.207-.28-.314a5.501 5.501 0 0 1-.957-.615 9.59 9.59 0 0 0-.432-.377l.1.01c.138.024.29.042.456.06.08.006.17.023.27.047.103.042.169.031.2-.038.024-.044.045-.103.066-.169.242.218.5.456.784.712.332.332.632.632.905.898.042.07.118.1.225.097.069-.041.086-.152.052-.328a1.252 1.252 0 0 0-.07-.256.59.59 0 0 0-.241-.328 50.457 50.457 0 0 1-1.02-.822c-.41-.329-.773-.66-1.095-.989a47.334 47.334 0 0 0-.725-.732c-.142-.142-.218-.11-.225.086.003.097.01.211.02.335.022.118.098.222.229.311.224.2.48.422.763.667-.18.052-.425.104-.729.16a.425.425 0 0 0-.2.037.881.881 0 0 0-.093-.1 1.378 1.378 0 0 0-.087-.4c-.03-.053-.069-.073-.128-.07-.03.014-.062.052-.09.117l-.141.232a1.03 1.03 0 0 1-.214.21 7.42 7.42 0 0 1-.781.643c-.18.132-.39.25-.615.346a.74.74 0 0 0-.332.224c-.114.163-.18.298-.193.398-.025.093.01.142.114.142a.787.787 0 0 0 .183-.038Zm1.942 1.466c-.083-.156-.235-.329-.463-.53l-1.2-1.063c.156-.08.298-.163.426-.256l.117-.09a.509.509 0 0 0 .138.214c.443.398.816.747 1.123 1.044.11.107.187.11.218.01.031-.114.007-.245-.08-.394-.076-.134-.231-.286-.466-.46a42.927 42.927 0 0 0-.774-.538l.3-.239a4.97 4.97 0 0 0 .184-.141.477.477 0 0 0 .138.197c.422.373.788.694 1.092.964.117.1.193.103.228.003a.499.499 0 0 0-.087-.387c-.09-.124-.252-.273-.487-.446a30.271 30.271 0 0 1-.715-.463c.232-.183.4-.3.504-.349.032.035.07.076.108.114.293.242.546.456.76.643.477.37.718.64.732.798-.048.104-.186.256-.414.467-.691.57-1.123.895-1.303.97-.01-.003-.031.004-.059.018.004-.01-.007-.042-.02-.087Zm-3.362 1.126a4.353 4.353 0 0 1-1.082-.325 9.192 9.192 0 0 1-1.558-1.012c-.07-.08-.114-.059-.128.052.007.058.124.22.353.487.3.328.694.629 1.195.902.383.217.784.359 1.206.428-.017.694-.02 1.396-.01 2.097-.007.263.09.505.29.722.362.422.777.799 1.254 1.13.114.094.187.132.225.114.048-.03.048-.1 0-.217a58.397 58.397 0 0 0-.609-1.4 7.907 7.907 0 0 1-.494-1.627 17.525 17.525 0 0 1-.145-.788c.37-.007.795-.052 1.275-.131.218-.042.432-.031.629.027.176.056.283.021.315-.11.034-.124.02-.315-.035-.567-.045-.176-.166-.325-.356-.439a6.33 6.33 0 0 1-.594-.421 25.362 25.362 0 0 1-.498-.463c.038-.042.07-.1.09-.18a.88.88 0 0 0 .02-.38.688.688 0 0 0-.106-.314c-.035-.045-.09-.038-.156.013a1.006 1.006 0 0 1-.318.156c-.338.055-.656.07-.95.041a4.232 4.232 0 0 1-.967-.141c-.311-.073-.788-.228-1.434-.467-.052-.03-.07-.013-.056.045.025.049.108.114.232.197a4.453 4.453 0 0 0 1.641.791c.232.045.522.1.874.163a.13.13 0 0 0-.007.048c-.027.522-.062 1.047-.096 1.569Zm1.271-.96c.325.214.505.345.546.397.07.141.02.235-.131.283a3.77 3.77 0 0 1-1.258.283 4.052 4.052 0 0 1-.038-.611 24.63 24.63 0 0 0-.024-.975c.131 0 .276.018.439.06.083.186.238.372.466.562ZM93.657 86.148l-4.98-3.624.916-1.265 2.443.885a26.223 26.223 0 0 1 1.71.684 11.687 11.687 0 0 1-.804-.474c-.26-.166-.553-.366-.881-.604l-1.846-1.344.792-1.096 4.982 3.625-.885 1.22-2.612-.913a15.633 15.633 0 0 1-1.7-.701 30.437 30.437 0 0 1 2.046 1.334l1.614 1.174-.795 1.099Zm4.367-13.935.239-1.361.494.09c.203.034.359.024.473-.031.114-.056.183-.16.21-.308a.437.437 0 0 0-.079-.356.529.529 0 0 0-.331-.186.728.728 0 0 0-.405.048 1.497 1.497 0 0 0-.435.287c-.073.059-.17.148-.297.27-.422.383-.736.645-.947.784a1.67 1.67 0 0 1-.625.259 2.03 2.03 0 0 1-.722-.004c-.508-.093-.871-.317-1.103-.68-.228-.363-.293-.826-.193-1.386.097-.56.297-.96.605-1.199.307-.238.718-.31 1.237-.22l.497.085-.228 1.3-.418-.073c-.194-.034-.342-.024-.446.028-.103.055-.17.155-.193.304a.355.355 0 0 0 .072.31.46.46 0 0 0 .304.17c.225.038.636-.197 1.237-.712l.042-.03.1-.09c.536-.453.909-.712 1.116-.785a1.75 1.75 0 0 1 .453-.08c.162-.01.328 0 .504.032.522.093.898.324 1.133.701.235.377.301.86.197 1.444-.1.577-.324.995-.673 1.244-.35.249-.802.325-1.362.225l-.456-.08Zm1.147 3.677-5.856-1.904.432-1.324 5.853 1.904-.429 1.324Zm-4.08 4.263.56-1.264.456.204c.193.086.349.117.47.086.12-.024.214-.107.276-.245a.452.452 0 0 0 .01-.367.528.528 0 0 0-.276-.262.746.746 0 0 0-.404-.049c-.149.021-.311.076-.495.173-.082.042-.2.104-.355.187a9.77 9.77 0 0 1-1.103.532 1.56 1.56 0 0 1-.666.1 1.95 1.95 0 0 1-.702-.18c-.47-.207-.774-.518-.909-.922-.134-.411-.086-.874.149-1.396.228-.518.522-.857.878-1.012.355-.16.774-.132 1.25.082l.463.208-.535 1.202-.387-.17c-.183-.082-.328-.11-.442-.082-.111.028-.197.107-.26.245a.375.375 0 0 0-.007.322.47.47 0 0 0 .256.238c.211.093.67-.038 1.375-.39l.045-.021.121-.062c.626-.308 1.05-.474 1.275-.491.145-.01.297 0 .456.031.16.028.315.083.477.156.487.214.798.532.936.953.135.422.083.906-.159 1.448-.238.539-.556.888-.953 1.043-.398.16-.857.121-1.379-.11l-.421-.187Zm-4.81 9.93L85.855 85.8l2.163-2.242.857.825-1.196 1.244.878.85 1.057-1.095.843.815-1.053 1.1.991.956 1.234-1.282.853.833-2.2 2.28Zm-2.609 2.364-4.118-4.582 1.033-.933 4.119 4.578-1.034.937Zm-6.264-1.11 1.669 2.481c.114.166.221.267.328.305.104.038.221.013.346-.07.12-.082.186-.183.19-.293.003-.114-.045-.252-.156-.418l-1.672-2.481c-.11-.166-.221-.266-.332-.304-.107-.035-.22-.014-.345.069-.121.083-.183.18-.19.294-.004.114.052.252.162.418Zm-1.043.978c-.35-.525-.487-1.001-.411-1.44.079-.436.37-.826.874-1.165.508-.342.974-.47 1.403-.376.428.09.822.4 1.174.926l1.413 2.1c.356.53.498 1.01.419 1.445-.073.435-.363.822-.868 1.168-.5.338-.97.463-1.406.37-.435-.094-.83-.405-1.182-.927l-1.416-2.1Zm-4.426 6.755-2.357-5.694 1.977-.819 1.008 1.697a20.696 20.696 0 0 1 .77 1.468c-.113-.342-.21-.646-.293-.912a10.708 10.708 0 0 1-.18-.618l-.476-1.98 1.966-.816 2.356 5.695-1.233.514-.864-2.083c-.18-.435-.363-.885-.55-1.351-.183-.467-.373-.947-.563-1.437.128.528.235.967.318 1.323.087.356.142.584.163.684l.743 3.175-.809.335-1.662-2.643c-.231-.376-.442-.715-.622-1.019-.18-.3-.349-.59-.508-.87.194.424.387.86.58 1.302.187.442.391.919.605 1.434l.868 2.104-1.237.511Zm-6.057 1.306.18-6.267 1.848-.287 2.052 5.919-1.465.228-.307-1.075-.95.145.03 1.12-1.388.217Zm1.347-2.463.66-.104-.497-1.824c-.035-.124-.073-.256-.108-.397l-.158-.636c.01.166.02.338.027.518l.02.553.056 1.89Zm-8.455.833 1.372.072-.024.498c-.014.207.017.362.086.47.07.103.177.162.329.169a.444.444 0 0 0 .345-.121.531.531 0 0 0 .145-.356.744.744 0 0 0-.097-.39 1.58 1.58 0 0 0-.338-.405c-.07-.058-.17-.148-.3-.262-.433-.373-.733-.653-.896-.84a1.665 1.665 0 0 1-.331-.59 2.046 2.046 0 0 1-.083-.72c.027-.518.207-.908.535-1.181.332-.273.785-.39 1.351-.363.57.031.988.183 1.261.46.273.276.398.677.37 1.199l-.024.508-1.316-.07.024-.424c.01-.197-.018-.343-.087-.44-.062-.096-.169-.148-.318-.158a.386.386 0 0 0-.304.11c-.083.08-.12.187-.127.325-.014.228.273.612.856 1.144l.031.034.104.094c.512.477.816.812.909 1.016.066.134.11.28.138.438.028.156.038.325.028.501-.028.532-.211.937-.557 1.217-.345.279-.811.404-1.402.369-.588-.027-1.027-.2-1.317-.518-.29-.314-.418-.757-.387-1.327l.024-.46Zm-5.6 1.675 1.644-6.046 1.863.155.608 6.237-1.48-.124-.047-1.113-.958-.083-.228 1.095-1.402-.121Zm1.886-2.073.667.056-.059-1.894a14.996 14.996 0 0 1-.007-.408c-.003-.145-.007-.362-.003-.656-.031.166-.062.335-.093.511-.038.177-.076.356-.111.543l-.394 1.848Zm-5.487 1.172L54.6 94.65l-.887-.19.248-1.164 3.134.667-.245 1.168-.888-.19-1.03 4.864-1.358-.286Zm-4.194-1.51 2.342-5.701 1.29.532-2.347 5.697-1.285-.528Zm-3.929-4.506 1.168.73-.263.424c-.114.176-.158.328-.152.453.01.124.076.228.208.31a.435.435 0 0 0 .359.06.522.522 0 0 0 .297-.239.724.724 0 0 0 .104-.39c0-.149-.035-.325-.1-.515-.028-.087-.076-.214-.135-.38-.2-.536-.322-.923-.373-1.168a1.544 1.544 0 0 1-.007-.677c.048-.228.138-.45.273-.674.273-.435.622-.691 1.043-.767.418-.076.87.034 1.358.335.48.304.77.643.878 1.02.107.373.02.78-.26 1.226l-.265.432-1.116-.698.22-.363c.111-.166.156-.308.146-.425-.014-.117-.08-.214-.208-.294a.377.377 0 0 0-.317-.051.472.472 0 0 0-.27.22c-.12.194-.059.668.197 1.417l.01.049.045.127c.221.667.322 1.113.308 1.334a1.96 1.96 0 0 1-.09.45 2.38 2.38 0 0 1-.221.452c-.28.453-.636.715-1.075.791-.435.076-.905-.038-1.41-.356-.497-.31-.798-.677-.898-1.091-.103-.415 0-.868.304-1.352l.242-.39Zm-2.329-3.469c.246.19.436.287.57.294.135.01.263-.062.387-.218l.222-.27c.127-.158.18-.303.148-.428-.034-.128-.159-.283-.383-.46l-.038-.034-.906 1.116Zm-3.379 1.994 3.87-4.793 1.548 1.258c.4.325.632.657.698.988.062.335-.045.67-.322 1.013l-.038.045-.217.276c-.204.249-.408.408-.619.477-.203.065-.449.058-.718-.035.155.235.224.46.2.678-.02.214-.138.452-.345.711l-.895 1.11c-.104.127-.18.238-.225.328a.796.796 0 0 0-.083.262l-1.095-.888a.75.75 0 0 1 .104-.245c.051-.09.141-.21.266-.366l.746-.923c.21-.263.304-.463.287-.605-.018-.145-.152-.317-.398-.521l-1.7 2.1-1.064-.87Zm-3.718-3.725 4.465-4.243 2.142 2.26-.86.822-1.186-1.254-.888.843 1.047 1.106-.853.812-1.044-1.106-.998.95 1.22 1.289-.86.822-2.185-2.3Zm-2.912-3.99 4.55-4.26.822 1.215-1.959 1.614c-.096.08-.3.235-.6.47-.305.235-.654.504-1.055.808a82.17 82.17 0 0 1 1.845-1.009l2.232-1.192.805 1.192-5.659 2.623-.981-1.462Zm-2.264-3.922 5.532-2.702.612 1.254-5.532 2.702-.611-1.254Zm-2.225-5.594 5.815-2.015.512 1.48-2.122 1.499c-.235.166-.477.335-.729.5-.255.167-.525.336-.812.512.28-.142.56-.27.847-.39.283-.118.622-.242 1.002-.377l2.156-.746.442 1.278-5.815 2.014-.494-1.423 2.242-1.624c.232-.17.477-.338.733-.504.26-.163.532-.325.819-.491-.422.19-.822.36-1.203.515-.376.152-.732.287-1.06.4l-1.89.654-.443-1.282Zm5.062-5.225-4.543.515c-.2.021-.342.07-.425.146-.076.072-.11.183-.094.324.018.149.073.252.173.308.097.058.245.076.439.052l4.544-.512.155 1.39-4.315.483c-.63.069-1.12-.024-1.469-.294-.352-.266-.56-.698-.629-1.302-.066-.595.042-1.061.328-1.396.284-.339.74-.543 1.369-.615l4.312-.484.155 1.385Z"/><path d="M64.002 20C88.236 20 108 39.764 108 63.998 108 88.236 88.236 108 64.002 108 39.764 108 20 88.236 20 63.998 20 39.764 39.764 20 64.002 20Zm0 3.79c22.144 0 40.208 18.064 40.208 40.208 0 22.148-18.064 40.212-40.208 40.212-22.148 0-40.212-18.064-40.212-40.212 0-22.144 18.064-40.208 40.212-40.208Zm0 .892c21.653 0 39.316 17.663 39.316 39.316 0 21.657-17.663 39.317-39.316 39.317-21.657 0-39.317-17.66-39.317-39.317 0-21.653 17.66-39.316 39.317-39.316Zm0 12.048c15.02 0 27.268 12.252 27.268 27.268 0 15.023-12.249 27.269-27.268 27.269-15.023 0-27.272-12.246-27.272-27.269 0-15.016 12.249-27.268 27.272-27.268Zm0 .77C78.596 37.5 90.5 49.407 90.5 63.999c0 14.595-11.904 26.498-26.498 26.498-14.598 0-26.501-11.903-26.501-26.498 0-14.591 11.903-26.497 26.5-26.497Zm0-15.492c23.125 0 41.991 18.865 41.991 41.99 0 23.13-18.866 41.995-41.991 41.995-23.13 0-41.994-18.866-41.994-41.995 0-23.125 18.865-41.99 41.994-41.99Z"/><path d="M68.815 54.196h1.364v-1.268h.684v1.268h1.365v-1.268h.719v1.931h-5.394v-1.064h.512v-.867h.75v1.268Zm-4.686 3.103c.246.017.487.065.709.145l.283-.77a3.633 3.633 0 0 0-.93-.184h-.062v.809Zm1.023.276c.204.1.394.228.567.377l.598-.598a3.585 3.585 0 0 0-.882-.556l-.283.777Zm.809.612c.103.114.2.235.28.366l.874-.235a3.549 3.549 0 0 0-.553-.732l-.601.6Zm.452.674c.08.172.145.359.19.549h.833v-.415h-.017a2.796 2.796 0 0 0-.145-.366l-.86.232Zm-.065.742h-.025a2.352 2.352 0 0 0-.217-.66h-.004l-.024-.058a2.436 2.436 0 0 0-.515-.657l-.072-.052.007-.007a2.41 2.41 0 0 0-3.922 1.434h-.024v3.75h4.796v-3.75Zm-5.052-.193c.042-.187.107-.37.187-.543l-.864-.231a4.54 4.54 0 0 0-.142.36h-.014v.169h-.003v.245h.836Zm.356-.85c.083-.125.17-.245.266-.356l-.601-.601c-.208.218-.39.463-.54.725l.875.232Zm.511-.594c.166-.145.353-.273.553-.377l-.28-.777a3.735 3.735 0 0 0-.87.556l.597.598Zm.868-.512c.238-.086.49-.141.756-.155v-.809h-.083a3.49 3.49 0 0 0-.953.194l.28.77Zm2.512-.964a4.047 4.047 0 0 1 1.52 1.168V56.49h-1.52Zm1.838 1.635c.127.22.242.456.325.701h.763v-.701h-1.088Zm-7.19.701c.09-.245.196-.48.328-.701h-1.082v.701h.754Zm.625-1.14c.404-.515.933-.93 1.54-1.196h-1.54v1.196Zm5.87 2.712h.75v-.646h-.75v.646Zm0 .985h.75v-.646h-.75v.646Zm0 .984h.75v-.646h-.75v.647Zm0 .985h.75v-.646h-.75v.646Zm-5.476-3.6h-.75v.373h.003v.27h.747v-.643Zm-.75 1.63h.75v-.645h-.75v.646Zm.75.34h-.747v.272h-.003v.373h.75v-.646Zm-.75 1.63h.75v-.646h-.75v.646Zm-1.275-1.696h.936v-1.192h-.936v1.192Zm-1.586 0h1.25v-1.192H57.6v1.192Zm.954 1.696h1.568v-1.358h-1.568v1.358Zm-.957 0h.615v-1.358h-.615v1.358Zm.957-3.227h1.568v-.957h-1.568v.957Zm-.957-.003h.615v-.957h-.615v.957Zm0-1.296h1.5v-.701h-1.5v.701Zm.953-1.04h1.925V56.49h-1.925v1.296Zm-2.118 0h1.78V56.49h-1.78v1.296Zm-1.385 0h1.047V56.49h-1.047v1.296Zm16.74 0h1.161V56.49h-1.161v1.296Zm-2.121 0h1.782V56.49h-1.782v1.296Zm-2.264 0h1.925V56.49h-1.925v1.296Zm-12.355-1.638h.718v-.95h-.718v.95Zm1.06 0h1.3v-.95h-1.3v.95Zm1.635 0h1.092v-.95H57.74v.95Zm1.434 0h2.322v-.95h-2.322v.95Zm2.66 0h1.952v-.95h-1.952v.95Zm2.294 0h1.95v-.95h-1.95v.95Zm2.291 0h2.308v-.95H66.42v.95Zm2.65 0h1.092v-.95H69.07v.95Zm1.434 0H71.8v-.95h-1.296v.95Zm1.634 0h.805v-.95h-.805v.95Zm1.148 1.977h-2.612v5.566H57.26v-5.566h-2.556v-5.54h1.402v1.272h.681v-1.271h1.365v1.271h.684v-1.271h1.02v-2.861h1.46v1.313h.785v-1.313h1.465v1.313h.781v-1.313h1.465v1.313h.788v-1.313h1.465v2.86h1.092v1.272h.68v-1.271h1.365v1.271h.684v-1.271h1.4v5.539Zm-4.475.701h1.524v-.701H68.81v.701Zm-8.956-5.898h-.68v1.268h-1.362v-1.268h-.684v1.268h-1.365v-1.268h-.718v1.931h5.317v-1.064h-.508v-.867Zm.85 1.931v-1.064h1.942v1.064h-1.942Zm2.28 0v-1.064h1.946v1.064h-1.945Zm2.285 0v-1.064h1.941v1.064H65.27Zm2.508 8.493h1.58v-1.358h-1.58v1.358Zm1.918 0h.639v-1.358h-.64v1.358Zm-1.973-13.288v1.734h-7.53v-1.734h.785v1.268h.007v.048h1.434v-.048h.024v-1.268h.781v1.316h1.434v-.048h.031v-1.268h.788v1.316h1.434v-.048h.024v-1.268h.788Zm-7.53 3.393h1.504v-1.32h-1.503v1.32Zm1.843 0h1.813v-1.32h-1.813v1.32Zm2.156 0h1.81v-1.32h-1.81v1.32Zm2.156 0h1.375v-1.32h-1.375v1.32Zm2.712 8.199h1.275v-1.192H69.06v1.192Zm.636-1.534h.639v-.957h-.64v.957Zm-1.918 1.534h.94v-1.192h-.94v1.192Zm1.58-2.491v.96h-1.58v-.96h1.58Z"/><path d="M50.398 51.241h9.457v-.525h-9.457v.525Zm17.666 0h9.502v-.525h-9.502v.525ZM50.771 56.85h4.046v-.525h-4.046v.525Zm22.445 0h3.974v-.525h-3.974v.525Zm-22.158 4.374h6.202v-.525h-6.202v.525Zm10.493 0h4.796v-.525h-4.795v.525Zm9.126 0h6.23v-.525h-6.23v.525Zm-18.527 4.8h6.236L60.81 63.6h.739l-2.419 2.422h9.423l-2.564-2.564h.36v.142h.525l2.418 2.422h6.52v.521H52.15v-.521Z"/><path d="m54.293 42.664-7.035 6.116c1.953.225 3.259 2.35 3.266 4.191l.01 4.247c.01 3.793.145 10.51 4.278 12.18.746.296 4.581 1.198 6.43 2.11 2.228 1.1 2.477 2.205 2.767 2.274.418-.373.823-1.282 2.43-2.1 2.027-1.027 5.572-1.815 6.747-2.285 4.136-1.669 4.267-8.386 4.278-12.18l.01-4.028c.007-1.938 1.157-4.167 3.265-4.409l-7.035-6.116c-3.334 2.074-5.57 3.013-9.63 3.027-4.121.017-6.398-.926-9.78-3.027Zm.104.923-5.777 4.91c.131-.024 1.603.746 2.297 2.882.28.86.305 1.93.29 3.006-.01 1.012.018 2.028.011 2.892.052 3.527.076 9.802 3.866 11.481.705.28 4.36 1.11 6.102 1.966 2.105 1.033 2.564 1.793 2.823 1.887.394-.353.826-.902 2.34-1.67 1.913-.97 5.43-1.758 6.54-2.204 3.714-1.572 3.763-7.94 3.887-11.52l-.017-2.674c.003-1.154-.107-2.055.287-3.158.421-1.195 1.167-2.339 2.35-2.878l-5.792-4.996c-3.21 1.994-5.628 2.826-9.574 2.84-3.763.014-6.475-.805-9.633-2.764Z"/><path d="m73.386 45.11.753 1.566 1.72.235-1.253 1.202.307 1.707-1.527-.822-1.53.822.307-1.707-1.254-1.202 1.72-.235.757-1.565Zm-9.46 21.665.753 1.565 1.724.235-1.258 1.199.308 1.71-1.528-.822-1.53.822.307-1.71-1.25-1.2 1.717-.234.757-1.565Zm0 1.085.435.898.988.135-.722.69.18.982-.882-.473-.88.473.18-.981-.72-.691.985-.135.435-.898Zm-9.34-22.75.753 1.566 1.721.235-1.254 1.202.31 1.707-1.53-.822-1.53.822.31-1.707-1.254-1.202 1.72-.235.754-1.565Zm0 1.086.436.898.988.135-.719.69.173.982-.878-.47-.877.47.172-.981-.718-.691.991-.135.432-.898Zm18.8 0 .432.898.988.135-.719.69.176.982-.877-.47-.881.47.176-.981-.719-.691.989-.135.435-.898ZM55.883 77.448c-.077.007-.104.048-.087.124a.314.314 0 0 1-.02.173.727.727 0 0 0-.073.103c-.118.125-.197.218-.245.27-.06.069-.08.104-.07.104.014.013.073-.014.17-.073a2.52 2.52 0 0 1 .31-.18c.111-.062.184-.103.222-.134.02-.018.072-.038.148-.073.097-.045.135-.086.104-.12-.152-.129-.304-.194-.46-.194Zm6.074-.304a.159.159 0 0 0-.062.02c-.35.138-.971.252-1.849.339-.238.028-.256.069-.055.124.217.028.428.024.642-.014.073.104.056.26-.055.463-.207.36-.439.588-.687.678a.18.18 0 0 0-.076.048.424.424 0 0 0-.028.28c.017.08.055.12.107.117 0 0 .062-.02.18-.052l1.838-.518.041.042c.173.176.29.248.353.217.141-.138.128-.318-.045-.535-.114-.114-.308-.214-.577-.294-.26-.066-.339-.048-.242.052.104.104.221.238.366.404a51.53 51.53 0 0 1-1.593.284c.194-.173.446-.429.764-.781a.458.458 0 0 1 .093-.087c.197-.117.163-.235-.097-.356.57-.082.975-.152 1.213-.203.131-.038.17-.09.11-.166-.055-.052-.169-.073-.341-.063Zm5.815-.063c-.066.007-.076.049-.024.118.062.072.051.224-.025.463-.22.843-.497 1.437-.836 1.783-.117.128-.096.148.056.062.4-.287.722-.77.96-1.458.087.124.235.39.439.788.1.165.166.283.204.352.045.204.266.28.667.235.041.003.076.003.103.007.135-.007.221-.024.263-.049.045-.024.024-.051-.059-.083-.632-.38-1.047-.735-1.244-1.067a3.302 3.302 0 0 0-.304-.339c.049-.183.11-.342.183-.47a.374.374 0 0 0 .028-.1c-.052-.083-.187-.162-.411-.242Zm5.155 2.578a3 3 0 0 0 .601.027c.187.01.308.018.363.025.159.017.242-.014.252-.094 0-.107-.072-.176-.218-.207a2.676 2.676 0 0 0-.507.024c-.204.028-.36.042-.47.045.052-.449.11-.78.176-.988.02-.08.045-.152.066-.214.017-.052.03-.094.034-.118-.052-.141-.245-.245-.57-.31-.083.02-.093.093-.028.22.042.1.066.18.073.25.031.424-.066 1.388-.294 2.895l-.763-.028c0-.12.007-.283.01-.484.024-.521.048-.843.073-.96.007-.056.024-.121.044-.197.021-.052.025-.09.014-.121-.093-.118-.259-.21-.49-.28-.094-.01-.1.059-.025.2a.7.7 0 0 1 .094.232c.034.276.027.809-.021 1.593-.314.02-.622.01-.926-.028-.162-.003-.225.017-.19.062.076.049.21.097.408.145.632-.017 1.299-.01 1.993.032.318.024.64.062.957.11.305.035.595.083.871.142.225.038.318-.01.28-.149-.086-.159-.238-.259-.45-.294a6.362 6.362 0 0 0-.587.01c-.431.004-.76.008-.991.008l.22-1.548ZM66.05 77.33c.214.29.401.456.556.49.204-.058.232-.179.083-.372-.46-.225-.666-.266-.639-.118Zm.74.864a1.826 1.826 0 0 0-.284.045 6.848 6.848 0 0 1-1.655.173c-.097.01-.103.044-.024.1.1.1.21.166.328.197.042.003.28-.052.712-.163.038.553-.349 1.175-1.16 1.866-.115.076-.115.1-.004.08a.987.987 0 0 0 .328-.163c.47-.307.802-.694.985-1.154a.54.54 0 0 1 .08.028c.168.072.258.124.272.152.02.097-.024.287-.131.577-.107.276-.197.428-.266.466a.983.983 0 0 1-.176-.048c-.198-.08-.27-.09-.222-.031.114.141.183.283.218.432 0 .027.004.038.017.038.107.048.228.007.37-.118.114-.128.21-.318.29-.566.097-.318.19-.546.28-.688.01-.041.02-.07.02-.08a.504.504 0 0 0-.245-.255c-.027 0-.058-.01-.1-.024a2.5 2.5 0 0 1-.297-.035.492.492 0 0 1 .083-.135c.045-.069.062-.114.048-.141.018-.025-.075-.097-.269-.215.366-.062.674-.09.926-.093.135.01.193-.027.17-.11-.05-.083-.15-.132-.294-.135Zm.736 1.302c.01.014.03.042.055.083.224.28.373.415.442.405.187-.083.225-.215.1-.394-.432-.187-.635-.214-.597-.094Zm-.166.857c.283.401.528.65.722.74.207-.083.231-.242.069-.477a2.707 2.707 0 0 0-.591-.294c-.183-.052-.249-.041-.2.031Zm-5.964-.511c.197-.024.408-.062.632-.114.2-.024.297-.07.294-.135-.017-.08-.117-.114-.307-.103a.961.961 0 0 0-.177.027 2.655 2.655 0 0 0-.438.083 1.06 1.06 0 0 1 .04-.325.124.124 0 0 0-.003-.1c-.231-.12-.41-.176-.532-.17-.055.004-.051.053.01.16.087.17.139.342.15.515-.122.017-.28.048-.481.083a7.648 7.648 0 0 1-.356.062c-.2.048-.162.093.107.135.215.013.46-.007.74-.063l.058.681a30.76 30.76 0 0 1-1.558.2.816.816 0 0 1-.176.031c-.19.025-.263.056-.221.094.072.02.21.048.428.076a14.154 14.154 0 0 1 3.576-.308c.228 0 .304-.062.232-.193-.104-.128-.277-.197-.536-.214-.034.003-.11.013-.214.034-.349.073-.76.145-1.237.225l-.031-.681Zm-6.983-2.018c-.066-.007-.08.028-.048.1a.946.946 0 0 0 .235.27c.069.069.134.09.197.059.058-.031.086-.09.08-.18-.056-.162-.208-.245-.464-.249Zm1.047 1.22c.332-.042.55-.087.66-.135.11-.086.035-.124-.218-.117a2.483 2.483 0 0 0-.231.041.698.698 0 0 1-.204.055.274.274 0 0 1 .028-.117c.01-.038.013-.073.01-.097-.004-.038-.038-.08-.107-.128.453-.09.75-.152.888-.19.076-.034.093-.08.048-.138a.425.425 0 0 0-.255-.038l-.132.031a9.735 9.735 0 0 1-1.624.332c-.114.024-.124.055-.03.1.075.031.196.038.348.028.1-.007.207-.025.318-.049.073.06.128.17.166.335a9.391 9.391 0 0 1-.567.104c-.072.045-.034.083.121.107a2.02 2.02 0 0 0 .477-.062l.031.325a10.22 10.22 0 0 1-.954.138c-.096.038-.093.073.01.114.08.02.215.024.409.007.148-.014.283-.031.397-.055a.913.913 0 0 1 .152-.031l.038.708a1.011 1.011 0 0 0-.166.035c-.967.134-1.544.2-1.734.203-.09.007-.108.038-.052.083.097.08.207.135.325.166l.151-.035c.343-.145 1.172-.297 2.478-.459.332-.031.732-.038 1.21-.031a.402.402 0 0 0 .058-.004c.138-.024.145-.093.02-.214a.608.608 0 0 0-.431-.114 4.944 4.944 0 0 0-.515.1c-.225.06-.377.09-.453.097.18-.17.3-.297.373-.376.045-.056.028-.1-.051-.132a.541.541 0 0 0-.35-.045c-.051.004-.058.035-.027.097a.35.35 0 0 1 .031.17 1.442 1.442 0 0 1-.183.341l-.415.076-.02-.69c.1-.021.252-.049.456-.077.29-.051.477-.086.566-.107.1-.034.121-.076.066-.12-.066-.035-.176-.046-.332-.032-.02.004-.107.014-.245.042-.19.027-.366.055-.529.083l-.01-.325Zm-.636.919c-.069-.07-.19-.11-.373-.121-.066.004-.059.066.017.19.1.156.187.239.25.249.137-.066.172-.17.106-.318Zm1.348.653a5.187 5.187 0 0 0-.415.093c-.387.1-.722.18-.998.242-.097-.069-.19-.093-.277-.072-.062.017-.058.062.014.13.041.063.09.19.149.395.034.138.072.255.107.356.048.11.103.169.169.176.045-.017.062-.083.038-.194.038-.003.19-.024.456-.058.57-.09.947-.139 1.123-.156.052-.017.055-.045.01-.08a.35.35 0 0 0-.176-.1c.083-.197.19-.335.325-.41.062-.042.031-.108-.09-.184a.97.97 0 0 0-.435-.138Zm-1.369.446c.028-.004.111-.014.25-.042a6.988 6.988 0 0 1 1.026-.162c.048-.007.072.055.072.183a.763.763 0 0 1-.104.356l-1.116.228-.128-.563Z"/><path d="M76.379 76.757c.58-.636.756-1.189.76-1.703.007-.605-.308-.933-.608-1.29-.322-.38-.633-.78-.812-1.247-.138-.355-.083-.932.1-1.513.356-1.154 1.493-1.931 2.567-1.931h2.678l.014-1.393c.02-.84-.429-1.565-.75-2.336a4.414 4.414 0 0 1-.36-1.786l.06-3.337h.024c.3.487.6.974.908 1.45.384-.625 1.351-1.07 2.478-1.07 1.461 0 2.653.75 2.653 1.665 0 .504-.362.957-.93 1.261v3.486c.236.284.454.577.644.885.404.653.618 1.42.473 2.204-.363 1.987-3.714 3.94-3.752 5.998-.007.415.017 1.372-.028 2.094-.014.332-.01.615-.097.778-.159.31-.466.373-.777.307-.667-.138-1.548-1.074-2.156-.912-.536.142-.698.663-.785 1.178-.134.781-.349 1.552-.705 2.284a7.273 7.273 0 0 1-1.053 1.593c-.232.263-.436.4-.681.477-.242.076-.525.09-.888-.014-7.18-2.049-15.531-2.049-22.71 0-.364.104-.647.09-.889.014s-.449-.214-.677-.477a7.033 7.033 0 0 1-1.054-1.593 8.363 8.363 0 0 1-.705-2.284c-.09-.514-.252-1.036-.788-1.178-.608-.162-1.489.774-2.152.912-.315.066-.622.004-.781-.307-.086-.163-.083-.446-.1-.778-.042-.722-.014-1.679-.024-2.094-.038-2.059-3.386-4.011-3.75-5.998-.144-.784.066-1.551.47-2.204.19-.308.412-.601.643-.885v-3.486c-.566-.304-.93-.757-.93-1.261 0-.916 1.193-1.666 2.654-1.666 1.13 0 2.094.446 2.478 1.072.307-.477.611-.964.912-1.451h.024l.056 3.337a4.412 4.412 0 0 1-.36 1.786c-.318.771-.77 1.497-.75 2.336l.014 1.393h2.678c1.075 0 2.215.777 2.57 1.931.18.58.236 1.158.097 1.513-.18.467-.49.868-.812 1.248-.297.356-.611.684-.608 1.289.004.514.187 1.081.77 1.72 8.87-1.924 15.777-1.931 24.747-.017Zm-1.089 6.551c.246.076.512.09.622-.304.515-1.427-.093-3.22-.038-4.647.01-.384.073-.74.218-1.058-8.289-1.872-15.866-1.872-24.183 0 .145.318.208.674.221 1.058.056 1.427-.556 3.22-.041 4.647.11.394.377.38.622.304 7.19-1.97 15.39-1.966 22.58 0Zm-23.643-.07c-.342-.683-.329-1.65-.242-2.618.093-1.002.255-2.004.124-2.692-.097-.48-.325-.663-.584-1.033-.636-.908-1.005-2.108-.283-3.03.47-.605 1.13-1.123 1.133-1.734.004-.695-.18-2.122-1.748-2.447l-3.334-.017c-.135.601-.277 2.104.041 2.64.501.864 1.144 1.931 1.213 3.213l.062 2.391c.035-.01.062-.02.097-.031 0 0 .943-.356 1.413.618.314.65.328 1.496.56 2.205.2.622.532 1.299.93 1.817.127.173.48.66.618.719Zm-5.28-13.689c.004-.255.02-1.572.052-2.249.031-.68.45-1.316.736-1.976.21-.484.3-.981.349-1.52.059-.636.038-1.327.038-2.074 0 0-.988 1.649-2.419 3.456-.736.929-1.866 1.917-2.467 2.881-.352.57-.756 1.624-.27 2.523.146.259.319.51.509.756l-.01-.024s2.1.017 3.482-1.773Zm-3.05 2.302c1.108 1.264 2.525 2.487 2.667 4.26.003.307-.08 2.37.1 2.56.086.083.248.173.504.035 0 0 .467-.335.971-.591-.01-.425-.041-1.403-.09-2.46a5.341 5.341 0 0 0-.884-2.602c-.467-.68-.601-1.614-.515-2.405 0 0-1.372.968-2.754 1.203Zm.075-5.47c.553-.605 1.137-1.189 1.624-1.807.235-.297.463-.601.68-.905h-2.304v2.712Zm2.709-3.286c.207-.3.408-.601.605-.905-.07-.629-1.047-1.13-2.143-1.13-1.136 0-2.149.542-2.149 1.206 0 .31.228.598.588.815.131.056.262.087.39.097h2.519c.076 0 .12-.045.19-.083ZM76.358 83.24c.342-.684.325-1.652.239-2.62-.09-1.001-.256-2.003-.121-2.69.093-.481.32-.664.584-1.034.635-.908 1.001-2.108.28-3.03-.47-.605-1.13-1.123-1.134-1.734-.003-.695.183-2.122 1.752-2.447l3.33-.017c.139.601.277 2.104-.037 2.64-.505.864-1.148 1.931-1.217 3.213l-.062 2.391c-.03-.01-.066-.02-.097-.031 0 0-.94-.356-1.41.618-.317.65-.328 1.496-.563 2.205a6.273 6.273 0 0 1-.925 1.817c-.132.173-.484.66-.619.719Zm5.276-13.69c-.003-.255-.017-1.572-.048-2.249-.035-.68-.453-1.316-.74-1.976-.207-.484-.297-.981-.349-1.52-.058-.636-.038-1.327-.038-2.074 0 0 .989 1.649 2.419 3.456.736.929 1.87 1.917 2.47 2.881.35.57.754 1.624.267 2.523a5.79 5.79 0 0 1-.508.756l.01-.024s-2.1.017-3.483-1.773Zm3.051 2.302c-1.106 1.264-2.526 2.487-2.667 4.26-.004.307.08 2.37-.1 2.56-.087.083-.25.173-.505.035 0 0-.466-.335-.97-.591.013-.425.04-1.403.092-2.46.038-.84.367-1.849.882-2.602.47-.68.6-1.614.514-2.405 0 0 1.372.968 2.754 1.203Zm-.076-5.47c-.55-.605-1.137-1.189-1.624-1.807a23.795 23.795 0 0 1-.68-.905h2.304v2.712ZM81.9 63.095c-.207-.3-.407-.601-.605-.905.07-.629 1.05-1.13 2.143-1.13 1.14 0 2.149.542 2.149 1.206 0 .31-.225.598-.588.815-.13.056-.259.087-.39.097h-2.515c-.08 0-.125-.045-.194-.083Z"/></g><defs><filter id="a" x="-13" y="0" width="154" height="157" filterUnits="userSpaceOnUse" color-interpolation-filters="sRGB"><feFlood flood-opacity="0" result="BackgroundImageFix"/><feColorMatrix in="SourceAlpha" values="0 0 0 0 0 0 0 0 0 0 0 0 0 0 0 0 0 0 127 0" result="hardAlpha"/><feOffset dy="16"/><feGaussianBlur stdDeviation="6.5"/><feColorMatrix values="0 0 0 0 0 0 0 0 0 0 0 0 0 0 0 0 0 0 0.03 0"/><feBlend in2="BackgroundImageFix" result="effect1_dropShadow_49_5548"/><feBlend in="SourceGraphic" in2="effect1_dropShadow_49_5548" result="shape"/></filter></defs></svg>