<svg width="128" height="128" fill="none" xmlns="http://www.w3.org/2000/svg"><path d="M50.552 90.776s.276.198-.038.416c-.09.026-.488.16-1.142-.198-.064-.039-1.237-.552-1.956-.648-.23-.058-1.282-.154-1.68-.212-.064-.013-.423-.077-.59-.115-.077-.026-.391-.128-1.308-.11a.81.81 0 0 1-.385-.147c-.148-.102-.34-.211-.404-.25-.058-.058-.11-.27-.11-.27l.078-.153s2.033.494 3.36.782c1.334.289 2.04.488 2.04.488s.91.109 1.289.14c.378.033.641.052.801.238a.33.33 0 0 0 .045.039Zm-9.408 5.49s.096.397.27.269c.224-.045.942-.302 1.288-.475.02-.013.135-.135.231-.346-.109-.026-1.237-.282-1.686-.11-.064.02-.263.09-.2.257l.097.404Zm3.514-.25s-.262.32-.218.846c0 .102.058.615.398.558.07-.02.16-.026.16-.026l.206-.333s.019-.174-.186-.667c-.052-.148-.135-.295-.289-.347a.315.315 0 0 0-.07-.032Zm1.835-1.713s-.289.558-.7.494c-.102 0-.468-.11-.68.218-.089.16-.326.391-.095.494l.038.012s.09.007.205-.057l.116-.058s1.808-.693 1.937-.686c.07-.026.23-.077.032-.2-.084-.044-.577-.204-.776-.217-.013.006-.077 0-.077 0Zm-1.899.237s-.166.417-.243.462c.013.02-.039.058.134.045.11-.058.34-.199.372-.237.032-.039.186-.244-.077-.27-.102-.032-.186 0-.186 0Zm.173-2.546c-.102.09-.788.462-.949.597-.128.083-.307.186-.423.423.045.026.231.135.462.045.109.019.128-.013.128-.013s.872 0 1.232-.02c.359-.019.987-.07.987-.07s.18-.058.205-.096c.09-.045.59-.32.84-.43.007-.013.263-.14.045-.199-.224-.057-.859-.262-.91.084-.02.096-.11.468-.295.52l-.058-.007s-.334-.103-.244-.379l.02-.05s.198-.277-.09-.353c-.167-.026-.783-.187-.95-.052Zm1.399-.455c.032-.09.077-.218.109-.353.077.141.122.27.154.378.07.013.128.026.16.045.038.013.776.186 1.366.065.026.006.18.185.359.083.18-.07.25-.09.673-.43.084.02.186.096.186.096l.013.719s-.019.147-.134.115c-.077.026-.866.205-1.527.673l-.07.045s-.2.09.07.154c.25.058 1.34.18 1.552.238.052.012.238-.02.404.288.039.07.244.346.013.45l-.167.018c.039.02-.384-.057-.526-.122-.14-.07-.615-.147-.795-.186-.18-.038-.628-.23-.75-.288-.09-.02-.308-.09-.372-.077l-.09-.02s-.18-.019-.282-.012c-.013 0-.141-.128-.23.256 0 .064-.13.25.172.302.295.051 1.347.224 1.668.577.044.045.166.276-.218.539-.276.134-2.072.84-2.072.84l-.814.09s-.18.038-.193-.212c-.128-.07-.474-.32-.763-.301-.006-.007-.058-.129-.23-.238.012-.019.018-.14.172-.147.154-.007.026-.18-.006-.237l-.032-.065s-.18-.14.141-.506c.192-.25.443-.533.629-.584.012.026.134.494.705.346.122-.064.346-.109.545-.397.013-.02.103-.16-.167-.116-.269.045-.692.07-.692.07s-.129-.006-.129-.089c0-.083-.115-.064-.282-.064h-.166l-1.854.02s-.218-.11-.77.294l-.282.173s-.891.45-1.192.635c-.122.077-.962.545-1.444.533-.032 0-.096-.026-.064-.11.007-.096-.044-.211.129-.237.237-.115 1.763-.853 2.533-1.417.789-.552 2.238-1.623 2.29-1.667.044-.045 1.987-1.392 2.148-1.405.045-.013.115-.045.115-.045s.231-.154.212.039a.63.63 0 0 0 .07.051s-.75.872-.949.994c-.038.045-.282.16.32.18.078.012.213.012.354.019Zm-.167 2.7s-.032.166-.11.192c-.076.026-.288.045-.236-.02.05-.063.019-.108.096-.115.077-.006.25-.057.25-.057Zm2.309-5.926s-.097-.257-.212.032c-.013.07-.032.314.032.686 0 .032.141.385-.128.43.019.032.14.25.18.346.038.096.237.129.282.116.025-.007.262.019.262.019s.18-.154.16-.34c.007-.122-.057-.532-.39-.981a5.344 5.344 0 0 0-.186-.308Zm8.882 9.966s.41.263.57 1.706c.014.154.123.436-.41.667a.131.131 0 0 1-.224.006.928.928 0 0 0-.276-.089c-.032-.026-.02-.283-.109-.34.006-.045-.135-.276.026-.616-.007-.038.083-.141.083-.141s.103-.096.115-.468c.013-.36.026-.66.122-.66.116-.04.103-.065.103-.065Zm3.822-3.745s-.622-.103-.795-.129c-.173-.019-.545-.096-.192.231-.02.013.173.129.166.263.026.032.61.436 1.437.667.122.045.314.052.135.154-.103.141-.456.603-.623.962-.154.27-.583 1.04-1.41.789-.013-.032-.263-.045-.122-.494 0-.013-.11-.25-.25-.27-.052.007-.148.36-.18.578-.032.225-.006.372-.404.564l-.205.11-.398.192s-.218.167.193.32c.108.013.583.039.34.206-.026.019-.084.23.057.423.045.083.385.398.59.038.205-.359.135-.763.34-.891.128-.141.59-.436.712-.07.122.365.16.294.141.423.045.051.353.301.795.256l.193-.057s.198-.231-.032-.54c.006-.025-.167-.057-.289-.057-.013 0-.327-.051-.224-.167.102-.115.307-.397 1.013-.449.218-.032.551-.096.551-.096s.116-.019.167.045c.051.064.148.02-.051.263-.199.244-1.353 1.776-1.353 1.776s-.328.449-.315-.166c0-.07-.051-.391-.917-.193-.18.052-.48.141-.564.27-.084.128-.096.045.051.16.148.11.603.225.763.231.065-.006.372.077.424.263l.083.128.224.321.116-.019.237.006s.494-.468.975-1.225c.154-.205.224-.36.61-.782.384-.424.679-.84.737-1.148-.007-.141-.154-.558-.834-.347-.276.039-1.186.2-1.186.2s-.372.083-.212-.25c.128-.219.23-.463.308-.668.032-.064.045-.32.68-.327.397 0 1.475.128 1.404-.32.013-.084.103-.29-.372-.443-.41-.148-2.514-.731-2.514-.731Zm12.897 2.398s-.077-.115-.135.013c-.006.02-.038.051.045.141.084.09.783.93 1.097 1.276.32.34 1.09 1.148 1.295 1.097.058-.006.41-.058.802-.096.385-.039.539-.122.673-.263.058-.051.174-.16.257-.199.013-.013-.167-.083-.346-.135-.186-.044-1.264-.307-2.7-1.167-.847-.59-.988-.667-.988-.667Zm-2.398.45s-.77.506-1.078.987c-.077.077-.173.205.225.385.102.051.455.109 1.122-.66.237-.212.596-.732.692-.847.097-.116.219-.328.328.102.025.077.044.353-.129.904-.038.206-.32 1.283-.59 1.63-.102.198-.057.32-1.417 1.301-.07.077-.27.148-.026.263.039.019.988.026 1.905-.878.308-.392.654-.7.853-2.322.032-.365.006-.654-.032-1.16 0-.245-.051-.796.68-1.31.045-.025 1-.371 1.11-.794.012-.026.076-.321-.38-.366-.005 0-.153.039-.288.122-.07.051-.211.128-.333.167-.032.032-.231.147-.32.462-.04.076-.059.218-.277.23-.013-.006-.09-.057-.109-.237-.019-.186-.07-1.065-.077-1.142-.006-.083-.032-.93-.865-1.096-.097 0-.475.09-.45.205.007.058-.083.039 0 .366.148.333.34.744.411 1.366 0 .102.051.365.135.622.083.256.237.622-.077.795-.173.18-1.013.904-1.013.904Zm11.223-7.331s.34-.27 1.244.802c.115.186.23.404.192.41-.077.045-.205.135-.205.135s-.212-.116-.295-.141c-.038-.02-.115-.167-.18-.308-.019-.032-.109-.231-.282-.218a.903.903 0 0 1-.346-.308c-.026-.026-.115-.09-.115-.09s-.097-.025-.071-.186c0-.013.058-.096.058-.096Zm2.443-2.604.603.847s-.231.23-.289.372c-.045.045-.14.077-.083-.052.032-.109.103-.577-.148-.635a6.335 6.335 0 0 0-.59-.198 7.76 7.76 0 0 1 .507-.334Zm1.007 1.026s-.167.27.032.372c.103.039.27.097.391-.096l.039-.135s.064-.32-.052-.275c-.057-.026-.237-.18-.346.019-.038.09-.064.115-.064.115Zm2.052-.846s-.712.545-.846 1.141c.115-.083.442-.493.603-.66.16-.167.25-.417.25-.417l-.007-.064Zm-5.092 4.887s-.02-.18.404.019c.314.173 1.16.789 1.238 1.263 0 .077.02.18-.154.225l-.045.013s-.135.083-.212.128c-.076.045-.102-.129-.224-.148a7.065 7.065 0 0 1-.308-.205s-.154-.083-.199-.276c-.109-.25-.423-.93-.449-.968l-.05-.051Zm-12.717-61.58a4.735 4.735 0 0 1-.834-1.039c-.032-.006-.051-.013-.051-.013l.025-.551s.815-.16 1.72-.404c.114-.032.25-.058.397-.077-.238-.52-.507-.795-.84-.917a.474.474 0 0 0-.09-.026c-.084-.006-.205.006-.314.013-.077.006-.148.013-.231.013-.135 0-.25-.02-.327-.07-.225.018-.469.05-.738.095-.52.231-.956.417-1.315.558.546.058 1.148.174 1.424.404l-.365.436c-.257-.218-1.046-.288-1.597-.314.346.276.788.674 1.302 1.219l.006.006c.167.186.551.353.981.481.276.077.577.141.847.186Zm4.797-2.052a3.382 3.382 0 0 0-.808-.731c-.488-.32-1.02-.526-1.418-.584-.327-.051-.936-.006-1.52.064.321.238.584.616.809 1.18.468.007.994.084 1.507.283.16.057.314.134.468.218l.038-.321s.225-.058.924-.11Zm-5.015 1.186c.782.892 2.482 2.162 5.477 1.469a10.793 10.793 0 0 1-1.148-1.353 3.072 3.072 0 0 0-.937-.558c-.82-.314-1.667-.289-2.161-.154-.23.064-.455.122-.667.173.417.122.853.244 1.078.308l-.154.552c-.296-.09-.975-.283-1.488-.437Zm4.739 3.919a23.144 23.144 0 0 0-.866-1.02l-.32-.353.461-.115c.007 0 1.116-.289 2.168-.334-.083-.064-.16-.128-.244-.192v.007c-2.02.59-3.501.314-4.54-.206-.513.257-1.25.462-1.738.578.404.41 1.173 1.077 2.155 1.34.756.199 1.366.327 1.891.365.392.013.725-.006 1.033-.07Zm2.642-2.751s.295.186.59.442c.007-.417.084-.802.141-1.045a4.86 4.86 0 0 0-1.199-.91c-.372-.193-.789-.328-1.212-.309-.224.007-.41.02-.577.032.282.154.577.327.77.462l-.334.462a6.816 6.816 0 0 0-.597-.366c.16.173.308.366.443.584l-.026.013c.616.712 1.45 1.481 2.367 1.77l-.013.045c.109.045.225.096.34.154a2.572 2.572 0 0 1-.09-.494c-.23-.25-.654-.52-.654-.52l.051-.32Zm2.995 1.43c.007 0 .937.39 1.552.833 0-.102-.006-.211-.019-.327-.038-.48-.141-.994-.25-1.237-.09-.193-.276-.379-.507-.552a4.219 4.219 0 0 0-.994-.526c-.404-.147-1.026-.16-1.392-.147.238.359.59.866.866 1.128l-.09.552c-.314-.301-.724-.904-.962-1.27-.096.564-.134 1.379.328 1.809.032.032.083.077.134.121.738.687 1.347 1.251 2.854.84a.373.373 0 0 0 .013-.09c-.314-.256-1.462-.737-1.469-.743l-.064-.391Zm-1.09 3.264c-.34.045-.847.103-1.219.148.392.468 1.116 1.212 1.95 1.43 1.033.275 1.712.211 2.392.14-1.135-.673-1.642-1.603-1.866-2.244h-.038l.057.34c-.468.083-.891.141-1.289.167l.013.019Zm5.823.154v-.039c-.359-.372-.981-1.051-1.11-1.417l.437.135c.064.186.391.564.686.872.026-.365.083-.616.083-.616l.039-.186.147-.025c-.115-.86-1.301-1.764-1.725-2.091a2.991 2.991 0 0 1-.128-.103c-.16-.128-.776-.211-1.16-.25.05.244.089.513.108.764.026.34.02.673-.038.916 0 .007.006.013.006.02l-.013-.007c-.013.064-.038.116-.058.167.167.07.328.16.469.295.045.039.09.084.14.128.386.347.815.738 1.136 1.238.058.013.122.02.192.032.238.032.533.084.79.167Zm-2.168.276c.007 0 .994.782 1.527 1.295-.026-1.064-.872-1.834-1.559-2.462-.044-.045-.096-.084-.14-.129-.45-.41-1.084-.462-1.566-.43.295.206.616.488.667.725l-.262.417c-.039-.212-.404-.487-.7-.686l-.147.058c.334.82 1.186 2.071 3.36 2.552-.474-.43-1.301-1.084-1.301-1.084l.121-.256Zm1.7 1.475c.334.038.635.102.86.205.16.07.32.154.487.244a3.68 3.68 0 0 1-.539-.744 2.914 2.914 0 0 1-.314-1.084c-.173-.032-.41-.07-.603-.103-.058-.006-.11-.019-.16-.025.186.416.295.91.256 1.494l.013.013Zm2.47 2.058a3.235 3.235 0 0 0-.533-.538 6.168 6.168 0 0 0-1.315-.802c-.628-.282-2.193-.218-2.828-.18.032.41.154 1.2.59 1.559.353.288.898.615 1.469.885.314.147.634.282.93.378a18.741 18.741 0 0 1-.603-1.308l.371-.372s.674.301 1.354.32c.14.014.333.026.564.058Zm1.756.148a5.925 5.925 0 0 1-1.366-.57c.129.16.238.326.32.5l-.127.064a3.922 3.922 0 0 1 1.314.699 2.889 2.889 0 0 1-.14-.693Zm-1.103-2.463s.648.731 1.065 1.398c-.026-.846-.058-1.712-.058-1.712l-.013-.41.02.006a2.036 2.036 0 0 0-.334-.667c-.218-.276-.526-.494-.956-.68-.506-.218-1.09-.237-1.487-.212.34.25.82.674.904 1.072l-.456-.193c-.044-.237-.525-.577-.73-.718-.033.25-.052.622-.007 1 .006.013.013.02.02.032h-.02c.038.263.109.533.237.77.244.455.7.936 1.264 1.34a5.96 5.96 0 0 0 1.456.77c-.219-.57-1.187-1.668-1.193-1.674l.288-.122ZM75.34 32.845c.366.129.77.25 1.071.302l-.09.564a7.438 7.438 0 0 1-1.109-.301c.167.199.36.436.584.724.41.507.93.892 1.68 1.09.673.174 1.526.206 2.642.052-.891-.308-1.719-1.007-1.725-1.013l.167-.244s1.039.879 1.924.949c-.276-.366-.796-.814-1.366-1.212-.744-.52-1.565-.95-2.072-1-.513-.065-1.174.006-1.706.09Zm16.56 6.818c-.398-1.052-1.688-1.713-2.335-1.989.019.552.045 1.533.077 2.258.019.462.211.987.506 1.456.173.275.379.526.597.718-.16-.86-.09-2.354-.09-2.36l.013-.302.301.032c.007-.006.41.039.93.187Zm-1.066 4.22.75.179a5.66 5.66 0 0 1-.608-1.25l-.039.09a2.137 2.137 0 0 1-.41-.25c.128.365.23.769.308 1.23Zm.956 4.187c-.513-.359-.95-.737-1.2-1.039-.422-.513-.467-1.462-.429-2.148a2.99 2.99 0 0 1-.256-.052l-.058.18a16.949 16.949 0 0 0-1.154-.314c.416.353.885.801 1.09 1.18l-.398-.039c-.154-.288-.577-.673-.943-.968.07.16.135.327.167.507.077.384.391 1.295 1.206 2.026.282.25.622.481 1.039.654l-.013-.013.545.007c.006-.007.16-.007.404.02Zm2.238-2.976-.102-.05c.147-.302.211-.944.147-1.688-.058-.64-.212-1.34-.494-1.917-.39-.815-1.481-1.174-2.142-1.315.276.385.796 1.103 1.11 1.578l-.36.026c-.269-.404-.686-.995-.974-1.386-.007.603.006 1.507.154 1.886.025.057.051.14.083.23.193.52.5 1.373 1.27 2.034.18.102.366.23.545.384.128.077.27.142.417.206l-.064.147c.077.09.154.186.224.289a.556.556 0 0 1 .064.102c.045-.166.084-.346.122-.526Zm1.54 4.522c.256-.565.384-1.309.384-1.309l.09-.513.385.353s.205.186.474.456a4.027 4.027 0 0 0-.128-.821 5.686 5.686 0 0 0-.802-1.809c-.346-.5-.686-.943-.962-1.283.283.93.719 2.476.61 2.919l-.456-.315c.084-.346-.237-1.552-.506-2.443-.11.462-.218.994-.257 1.372a7.146 7.146 0 0 0-.032.462c.096.378.141.802.128 1.283.032.147.077.288.135.43.18.467.475.903.936 1.218Zm-.321.866c.019-.122.051-.238.083-.34a2.929 2.929 0 0 1-.885-.866c-.09-.013-.186-.032-.282-.051.16.198.34.39.507.57.205.238.41.456.577.687Zm-1.033 1.115s.577.546 1.11 1.238a6.397 6.397 0 0 1-.128-.923c-.007-.11-.013-.218-.013-.327h-.007c-.057-.443-.468-.898-.923-1.405-.218-.244-.45-.5-.674-.782-.333-.436-.98-.629-1.481-.712.333.218 1.25.879 1.52 1.597l-.436-.122c-.225-.603-1.232-1.212-1.232-1.219l.026-.282c-.013 0-.026-.006-.038-.006l-.026.199a1.76 1.76 0 0 1 0 .686c-.064.327.083 1.032.41 1.712.244.513.59.994 1.02 1.25.5.302 1.039.424 1.488.527.115.025.224.05.327.077-.5-.7-1.142-1.302-1.142-1.302l.2-.206Zm2.97 2.957c0-.09.006-.18.019-.263-.129-.564-.308-1.065-.308-1.071l.436.135s.026.083.07.211c.283-.602.63-1.18.84-1.52a3.837 3.837 0 0 0-.147-.692c-.102-.347-.25-.642-.397-.943-.141-.282-.52-.705-.879-1.084.141.545.27 1.219.173 1.61l-.455-.314c.09-.36-.039-1-.18-1.52-.096.333-.23.73-.41 1.039-.167.282-.237.987-.186 1.731.045.648.186 1.315.449 1.745.359.596.744.84.975.936Zm-1.11 2.713c-.135-.59-.327-1.135-.327-1.142l.34.103c.051-.654.16-1.212.218-1.488-.154-.122-.41-.34-.802-.712-.237-.224-.673-.391-1.116-.507-.044-.012-.09-.019-.134-.032a4.15 4.15 0 0 0-.366-.077c.558.507 1.302 1.309 1.59 2.175l-.442-.148c-.212-.641-.737-1.25-1.186-1.68.019.083.032.166.032.263.006.102 0 .237-.013.39-.051.88-.154 2.733 2.302 3.624a4.946 4.946 0 0 1-.096-.77Zm1.809-1.475c.006-.007.012-.02.019-.026a7.04 7.04 0 0 0 .795-1.526l.212-.59.308.551s.224.391.57 1.02v-.115a13.26 13.26 0 0 0-.09-1.411c-.044-.308-.506-.853-.846-1.219 0 .045.006.09.006.135l-.295.006c-.198.334-.449.77-.66 1.225-.25.532-.148 1.308-.02 1.95Zm.712 4.835c-.122-.365-.276-.692-.411-.994a6.932 6.932 0 0 1-.34-.814 5.885 5.885 0 0 1-.224-2.04l-.097.02a6.029 6.029 0 0 0-.077-.347c-.083-.352-.192-.808-.243-1.289a1.486 1.486 0 0 1-.379-.154c-.153.744-.448 2.617.18 3.675.173.295.449.597.737.91.29.321.597.655.854 1.033Zm.365-2.482s.16.808.199 1.45c.699-.462 1-.969 1.064-1.475.077-.616-.173-1.257-.487-1.822-.334-.602-.57-1.032-.731-1.32-.148.313-.36.718-.635 1.109-.115.166-.186.564-.186 1.058 0 .474.058 1.013.212 1.5.07.219.186.469.308.744.012.026.019.045.032.071-.02-.61-.2-1.514-.2-1.514l.424.2Zm-4.38-.314c-.058.5-.11 1.244-.013 1.744.077.379.353.847.68 1.296.205.282.423.551.622.789.058-.988.487-2.489.577-2.796-.026-.052-.051-.103-.07-.154-.77-.231-1.354-.533-1.796-.879Zm3.649 5.323s.09.462.154.956c.82-2.053-.199-3.181-1.058-4.13a4.857 4.857 0 0 1-.032-.033c.115.436.243.982.224 1.283l-.462-.27c.013-.288-.115-.833-.237-1.263-.154.597-.346 1.437-.372 2.04-.013.263.192.776.5 1.353.295.551.674 1.135 1.059 1.61.031-.578-.2-1.745-.2-1.745l.424.199Zm1.584-3.316c0 .007-.667 1.597-.09 3.316.372-.481.815-1.315.815-1.321l.205.417s-.25.468-.545.923c1.372-.776 1.385-1.757 1.391-2.584v-.18c.007-.5-.327-1.276-.66-1.917.006.468-.032 1.148-.244 1.61l-.442-.347c.077-.167.134-.372.166-.59-.154.23-.359.449-.622.66l.026.013Zm.661 6.747c0 .007-.039 1.11-.79 1.88.757-.328 1.226-.809 1.527-1.335.398-.712.5-1.513.558-2.142.071-.737-.199-1.385-.423-1.776.006.314-.013.795-.167 1.11l-.301-.232c.102-.211.134-.506.147-.77-.231.18-.519.353-.859.52-.186.5-.828 2.309-.757 3.495.013.2 0 .405-.026.603.584-.705.622-1.622.622-1.629l.469.276Zm-2.207 1.27c.013.436-.077 1.231-.23 2.084.346-.59.872-1.66.82-2.571-.057-1.046.372-2.508.642-3.303a5.388 5.388 0 0 1-.289-.667c-.115.558-.359 1.186-.776 1.904.276.597.167 1.277.077 1.88-.038.25-.077.48-.077.673h-.167Zm-2.11-.263c.328-.455.578-1.469.578-1.475l.154-.641.359.551c.032.051.102.135.186.237.154.186.352.43.52.7.089-.597.16-1.257-.219-1.7-.353-.404-.705-.91-1.013-1.417.122.442.25 1 .23 1.308l-.461-.27c.013-.224-.07-.609-.16-.974a7.23 7.23 0 0 1-.565 1.116c-.154.25-.154.673-.077 1.135.084.5.27 1.026.468 1.43Zm.61 2.245c0 .006.186.93.263 1.789.09-.295.18-.616.256-.95.295-1.25.475-2.597.391-2.917-.083-.334-.333-.686-.558-.962-.147.436-.378 1.032-.666 1.314-.11.11-.353.41-.514.898a3.185 3.185 0 0 0-.147 1.142c.02.346.205.802.423 1.327.116.289.244.597.36.917.134-.743-.27-2.75-.27-2.757l.462.199Zm2.494 1.75s-.68.481-.795 1.25c-.058.38-.365 1.13-.712 1.841-.013.033-.032.065-.045.097.36-.276.712-.597 1.04-.937.98-1.038 1.712-2.212 1.712-2.674.006-.59.122-1.7.205-2.45.006-.032.006-.058.013-.09 0-.019.006-.044.006-.064-.436.315-.987.565-1.686.731-.071.16-.142.315-.212.456-.289.577-.57.975-.57.981l-.232-.16-.07-.052-.058.244c-.006.02-.006.038-.013.051-.212.905-.5 1.764-.82 2.206-.04.052-.071.097-.11.135l-.147-.135c.064.25.122.5.154.764.038.314.05.641.025.98-.006.097-.019.193-.032.29.02-.039.045-.078.064-.116.013-.02.02-.038.032-.064.09-.16.174-.334.263-.507.347-.705.654-1.45.706-1.828.115-.782.808-1.27.808-1.276l.474.327Zm-4.194 5.804c.096-.038.199-.09.308-.154l-.083-.07c1.552-1.847 1.16-3.534.654-4.874.02.801.032 1.956-.02 2.418l-.461-.289c.051-.468.032-1.68.02-2.47-.366.54-.796 1.239-.886 1.694-.083.43-.186 1.116-.141 1.828.045.68.218 1.379.68 1.853l-.07.064Zm8.587-6.541c-1.904 1.2-8.478 6.31-8.798 11.236-.398.045-1.104.128-1.501.18.115-1.598 1.353-3.977-.539-5.785 0 0 .706-.058 1.34.378a4.172 4.172 0 0 1-.282-1.34c-.044-.764.064-1.507.154-1.97.148-.769 1.052-2.032 1.405-2.513-.11-.308-.186-.59-.2-.847a3.668 3.668 0 0 1 .18-1.346c.103-.308.238-.558.36-.75a6.006 6.006 0 0 1-.635-1.829c-.096-.577-.077-1.141.147-1.52.206-.34.462-.808.603-1.263.122-.391.148-.77-.051-.994-.282-.32-.686-.782-1.04-1.27-.365-.506-.685-1.051-.782-1.526-.147-.75.007-1.956.058-2.34-.878-1.033-.808-2.258-.77-2.957.007-.142.013-.257.013-.328-.032-.557-.404-.827-.404-.827l.097-.25c-.52-.327-.924-.885-1.206-1.468-.372-.783-.532-1.636-.455-2.066a1.37 1.37 0 0 0-.039-.64 4.46 4.46 0 0 1-1.86-.982c-.93-.834-1.295-1.892-1.385-2.34-.115-.59-.616-1.117-.616-1.117l.244-.449a4.74 4.74 0 0 1-1.52-1.7 7.563 7.563 0 0 0-.173-.326c-.449-.09-.994-.295-1.52-.545-.61-.289-1.2-.648-1.584-.962-.667-.545-.782-1.7-.808-2.11a6.028 6.028 0 0 1-1.995-.206c-1.449-.384-2.571-2.045-2.571-2.052l-.167-.244c-.885-.23-1.5-.68-1.982-1.282 0-.007-.006-.007-.006-.013-.443.135-.917.18-1.469.141-.551-.038-1.193-.173-1.994-.385-1.655-.436-2.764-1.879-2.77-1.885l-.29-.366.456-.09s.693-.134 1.347-.346a7.82 7.82 0 0 1-1.219-.256c-.52-.154-1.007-.372-1.25-.654l.006.006c-1.193-1.27-1.95-1.668-1.956-1.674l.07-.526s.751-.18 2.662-1.032l.07-.02c.321-.05.616-.096.892-.115l.077-.013c.007 0 2.283-.391 3.11-.263.469.07 1.084.302 1.642.674.456.301.872.692 1.155 1.167.526-.02 1.038.141 1.494.372.532.276.981.648 1.263.93h.007c.006 0 1.192-.097 1.917.173.379.141.796.353 1.135.603.308.224.558.487.687.776.012.025.019.051.032.077.34.032 1.372.147 1.686.397.02.013.064.052.116.09.48.366 1.795 1.373 1.943 2.476.462-.026 1.154-.007 1.764.256.513.225.897.5 1.173.847.27.34.436.744.52 1.237.705.283 2.578 1.161 2.918 2.732l-.122.026c.648.25 1.34.674 1.674 1.36.314.654.487 1.417.551 2.116 0 .026.007.045.007.064l.205.237s.789.886 1.597 2.04c.41.59.718 1.334.885 1.994.14.578.173 1.116.07 1.469.334.36.66.75.802 1.039.167.333.32.648.436 1.032.032.116.064.231.096.36l.148.14c.006.007 1.282 1.238 1.379 1.925.051.346.096.968.096 1.494 0 .417-.026.789-.109.956.179.333.346.692.449 1.07l.083-.05c.006.006 1.411 2.205 1.392 3.353v.173c-.007.648-.013 1.38-.488 2.059.257.378.763 1.295.661 2.38-.064.68-.173 1.564-.629 2.366-.115.205-.256.41-.423.596l.039.007c0 .006-.283 2.238-.289 3.142 0 .257-.16.674-.43 1.148a8.639 8.639 0 0 1 3.014-1.462ZM86.601 40.406c.52.328 1.097.79 1.494 1.398l-.365.02c-.488-.744-1.347-1.219-1.86-1.456.186.391.449.936.795 1.584a4.27 4.27 0 0 0 1.622 1.674c.54.314 1.174.551 1.93.693 0-.013.007-.026.007-.039-.449-.673-1.07-1.494-1.07-1.5l.326-.071s.379.506.77 1.058c-.295-1.533-.975-2.36-1.668-2.809-.73-.475-1.481-.532-1.82-.539-.065-.006-.116-.006-.161-.013Zm7.202 6.356a2.825 2.825 0 0 0-.872-1.41 4.625 4.625 0 0 1-.552-.386 2.97 2.97 0 0 0-.757-.295c-.121-.025-.23-.057-.333-.077.34.295.705.674.802 1.04l-.45-.168c-.076-.288-.519-.654-.814-.872l-.038.385c-.026 0-.052-.006-.077-.006-.032.583.006 1.334.307 1.706.321.39 1.02.936 1.777 1.372.442.25.898.462 1.302.577 0-.006-.007-.006-.007-.013-.237-.647-.295-1.32-.288-1.853ZM67.342 76.275c-.5.507-1.129.821-1.648 1.026l-.103.026c-2.501.263-4.45-.474-5.887-1.642-1.943-1.584-2.944-3.957-3.13-5.688v-.07c.385-5.048 4.009-7.37 7.889-9.858 1.84-1.18 3.732-2.392 5.335-3.95 4.682-5.548.866-8.947-.93-10.12.263 2.565-.878 4.842-2.43 6.714-1.899 2.283-4.4 3.944-5.67 4.752l-.012.007c-6.593 3.893-7.106 8.799-7.106 8.818l-.007.026c-.25 1.366-.211 2.597.039 3.707.539 2.347 2.052 4.136 3.81 5.412 1.776 1.29 3.802 2.059 5.335 2.341.763.141 1.385.16 1.79.07h.012c1.206-.25 2.136-.833 2.713-1.57Zm-.173-1.11c-.648.661-1.424.93-2.2.976-.82.045-1.648-.167-2.315-.45-.603-.25-1.09-.557-1.334-.769l-.051-.051c-2.495-3.027-1.713-5.188.327-6.869 1.571-1.295 3.886-2.263 5.97-3.136.494-.205.975-.404 1.386-.59 8.83-4.9 5.355-10.28 3.803-12.076-.263 1.309-.981 2.784-2.373 4.432l-.026.026c-1.667 1.622-3.604 2.86-5.477 4.065-3.7 2.373-7.15 4.586-7.516 9.223.18 1.564 1.084 3.687 2.835 5.11 1.276 1.04 3.008 1.7 5.246 1.476.57-.23 1.282-.603 1.66-1.257a.61.61 0 0 0 .065-.11Zm.583-7.163c.077.315.122.674.077 1.02-.019.173-.057.346-.128.513.154-.032.302-.045.443-.032.224.02.43.096.602.25.032-.109.071-.211.122-.308a.817.817 0 0 1 .5-.39 1.516 1.516 0 0 1-.256-.38 1.054 1.054 0 0 1-.096-.596 1.566 1.566 0 0 1-.423.097 1.625 1.625 0 0 1-.84-.174Zm-3.354-31.014c-7.465 0-14.243 3.047-19.156 7.959-4.912 4.912-7.959 11.691-7.959 19.156 0 7.465 3.047 14.244 7.96 19.156 4.912 4.913 11.69 7.96 19.155 7.96 7.465 0 14.244-3.047 19.157-7.96 4.912-4.912 7.958-11.69 7.958-19.156 0-7.465-3.046-14.243-7.959-19.156-4.906-4.913-11.684-7.959-19.156-7.959Zm0 1.822c-.327 0-.654.006-.98.019.48.147.935.359 1.359.609 1.815 1.09 3.046 3.02 3.617 4.611v-.006c.115.308.211.615.288.923 1.007.552 4.297 2.642 4.201 6.208 1.167 1.161 7.19 7.863-3.553 13.814l-.032.02c-.481.205-.943.404-1.417.602-2.033.853-4.304 1.796-5.772 3.014-1.687 1.386-2.322 3.181-.244 5.728.205.166.603.41 1.103.621.571.238 1.276.424 1.963.385.66-.038 1.308-.282 1.834-.904.205-.244.391-.545.551-.91a6.106 6.106 0 0 0-.532-1.456l.051-.026c-.73-.68-1.827-1.263-3.334-1.642l.096-.782c1.353.013 2.456.218 3.354.551l-.167-.282c.34-.244.487-.577.532-.93.064-.583-.154-1.2-.301-1.5l.41-.315c.481.398.834.526 1.142.5.314-.025.622-.218.988-.442l.333.404c-.346.36-.385.629-.282.847.115.25.417.48.673.686l-.23.462c-.418-.11-.616-.039-.706.115-.115.199-.128.545-.128.885l-.54.058c-.134-.45-.333-.622-.576-.642-.257-.019-.571.09-.91.238.377.16.717.34 1.019.545a4.734 4.734 0 0 1 1.68 1.937c.34.718.475 1.481.468 2.2-.013 1.013-.308 1.955-.718 2.571l-.045.058a10.58 10.58 0 0 1-1.603 1.334c-2.22 1.507-4.797 2-7.395 1.545-2.578-.449-5.162-1.828-7.426-4.072a19.771 19.771 0 0 1-2.405-2.912c-1.488-2.193-1.886-5.002-1.584-7.926.359-3.49 1.712-7.158 3.38-10.127a39.877 39.877 0 0 1 2.892-4.431c1-1.34 2.033-2.572 3.136-3.887 1.52-1.802 2.29-3.22 2.59-4.316.193-.712.187-1.276.059-1.719a1.967 1.967 0 0 0-.635-.974 2.34 2.34 0 0 0-.853-.45l-.007-.41a25.273 25.273 0 0 0-13.21 6.99c-4.586 4.586-7.427 10.91-7.427 17.874 0 6.965 2.84 13.288 7.426 17.874 4.586 4.585 10.909 7.426 17.874 7.426 6.965 0 13.288-2.84 17.873-7.426 4.586-4.586 7.427-10.91 7.427-17.874 0-6.964-2.841-13.288-7.427-17.873-4.585-4.58-10.915-7.42-17.88-7.42Zm0-.796c7.19 0 13.712 2.931 18.438 7.658 4.727 4.726 7.658 11.248 7.658 18.438 0 7.182-2.931 13.711-7.658 18.438-4.726 4.726-11.248 7.657-18.438 7.657-7.182 0-13.711-2.931-18.438-7.657-4.726-4.727-7.657-11.25-7.657-18.438 0-7.183 2.93-13.712 7.657-18.438 4.733-4.727 11.256-7.658 18.438-7.658Zm0-2.584c7.895 0 15.065 3.22 20.26 8.414 5.194 5.195 8.414 12.364 8.414 20.26 0 7.894-3.22 15.064-8.414 20.258-5.195 5.195-12.365 8.415-20.26 8.415-7.894 0-15.064-3.22-20.259-8.415-5.195-5.194-8.414-12.364-8.414-20.259 0-7.894 3.22-15.064 8.414-20.26 5.195-5.194 12.365-8.413 20.26-8.413Zm-3.386 3.982.096.077c.379.321.712.764.885 1.36.167.577.186 1.283-.05 2.148-.328 1.2-1.149 2.72-2.746 4.618-1.103 1.308-2.135 2.546-3.11 3.848a38.544 38.544 0 0 0-2.835 4.341c-1.622 2.886-2.937 6.446-3.283 9.82-.282 2.75.077 5.38 1.455 7.4a19.141 19.141 0 0 0 2.31 2.796c2.141 2.13 4.578 3.431 6.996 3.854 2.392.417 4.771-.032 6.81-1.423.514-.347 1.001-.75 1.463-1.212.32-.5.552-1.264.564-2.104a4.278 4.278 0 0 0-.39-1.86 3.948 3.948 0 0 0-1.405-1.61 5.154 5.154 0 0 0-1.097-.551c.622.43 1.103.91 1.443 1.424.462.699.673 1.443.66 2.167a3.76 3.76 0 0 1-.68 2.065c-.673.975-1.82 1.745-3.328 2.04h.013c-.5.115-1.244.096-2.11-.064-1.635-.302-3.784-1.116-5.663-2.476-1.898-1.379-3.527-3.322-4.117-5.88-.276-1.206-.32-2.547-.045-4.028v.025c0-.012.558-5.31 7.497-9.408l-.013.007c1.232-.783 3.662-2.399 5.484-4.586 1.776-2.142 2.975-4.848 1.84-7.882v-.006c-.52-1.45-1.642-3.213-3.277-4.194a5.125 5.125 0 0 0-3.367-.706Zm12.826-14.448-1.93-.437.013.007-1.969-.346-2-.25h.012l-2.033-.148h.013l-2.052-.045-.52.013.064 1.186.02.289-.289.02-1.321.07-.462.025h.007l-.456.032h.007l-.456.039h.007l-.462.045h.006l-.455.051h.006l-.455.058h.006l-.448.057h.006l-.449.065h.007l-.45.07h.007l-.442.077h.006l-.462.07h.006l-.442.084h.006l-.442.09h.006l-.436.096h.007l-.873.205h.007l-.443.103h.007l-.43.115h.007l-.43.122h.006l-.423.122h.006l-.423.128-.423.135h.006l-.417.135h-.006l-.417.14h.007l-.417.148-.41.154h.006l-.41.154h.006l-.41.16h.006l-.808.334h.006l-.404.173-1.469.654-.243.11-.129-.232-.583-1.077-.013.006h.006l-.43.218h.007l-.43.225h.007l-.43.23-.423.232h.006l-.423.237h.006l-.416.244-.417.25h.006l-.41.25-.41.256h.006l-.404.263-.405.27h.007l-.398.269h.007l-.392.276v-.007l-.39.282-.386.283h.007l-.385.288-.378.295h.006l-.378.302-.372.301h.006l-.372.308-.365.314v-.006l-.36.314h.007l-.36.32-.352.321-.353.327v-.006l-.346.333-.102.103.75 1.039.14.192-.16.173-1.013 1.084-.301.327-.295.334v-.006l-.295.333-.289.34-.282.34v-.007l-.282.347-.276.346-.276.353-.269.352v-.006l-.526.718-.256.366v-.006l-.257.365-.25.366-.224.295V42.9l-.244.372-.237.378v-.006l-.231.378-.231.385v-.006l-.225.385-.218.384v-.006l-.218.391-.211.391v-.006l-.206.391-.198.398v-.007l-.2.398v-.006l-.192.404c-.41.878-.776 1.75-1.167 2.661l-.07.25-.244-.07-1.2-.353-.019.058v-.007l-.166.456v-.007l-.167.468v-.006l-.154.455v.007l-.295.923v-.006l-.141.468v-.007l-.135.469v-.007l-.128.475-.122.474v-.006l-.115.475v-.007l-.11.481v-.006l-.102.48v-.006l-.096.488v-.007l-.096.481v-.006l-.084.494v-.007l-.083.488v-.007l-.077.488v-.007l-.07.494v-.006l-.065.493v-.006l-.051.507-.051.494v-.007l-.045.5V60.5l-.039.5v-.006l-.032.5v-.006l-.025.5v-.007l-.02.385 1.2-.064.301-.013v2.617l.058 1.27.025.436v-.007l.033.436v-.006l.038.436v-.006l.038.43v-.007l.045.43.052.43v-.007l.057.43v-.007l.058.43v-.007l.064.424v-.007l.141.847v-.007l.077.424v-.007l.077.443v-.007l.18.834v-.006l.096.41v-.006l.103.41v-.006l.102.41.11.41v-.006l.115.404v-.006l.115.404.122.404v-.007l.128.398v-.006l.128.397.135.391v.007l.135.391.14.391v-.006l.148.391v-.006l.148.39.154.386v-.007l.16.385.616 1.456.102.244-.237.121-1.09.571.045.096-.007-.012.693 1.378-.006-.006.737 1.334.789 1.308.834 1.276-.007-.006.885 1.244-.006-.006.93 1.212-.007-.007.975 1.174h-.026l1.014 1.135-.007-.006 1.052 1.09 1.09 1.052-.006-.007 1.135 1.014-.006-.007 1.173.969-.006-.007 1.2.924 1.237.878-.007-.006 1.277.834-.013-.007 1.308.79-.006-.007 1.334.744-.013-.007 1.366.693-.013-.007 1.392.642-.007-.007 1.411.584 1.437.532 1.462.481-.013-.006 1.488.423h-.013l1.507.366 1.52.307 1.552.251H58.3l1.572.192h-.013l1.584.135h-.013l1.603.07h-.012l1.603.007 1.622-.058h-.013l2.078-.167-.013.007 2.034-.27 2-.372h-.012l1.968-.468-.012.006 1.93-.564-.013.007 1.886-.655-.013.007 1.834-.738 1.796-.827-.02.006 1.745-.91-.013.006 1.687-.987 1.635-1.072-.013.007 1.584-1.148-.013.006 1.136-.91c-.058-.007-.11-.013-.148-.013-.308-.084-.936.205-.994.218-.641.276-1.206.218-1.206.218s-.699-.083-.551-.147a44.21 44.21 0 0 1 1.129-.405s.346-.044.134-.038c.212-.006 1.2-.436 1.219-.449-.039-.058-.097-.244-.135-.301-.026-.41-.84-1.302-.994-1.463-.301-.205-.66.392-.66.392s-1.123 1.616-1.328 1.872c-.205.257-.372.276-.475.302-.102.019-.487-.039-.66-.103-.186-.026-.238-.115-.308-.218-.083-.122.128-.167.128-.186.404-.083 1.296-1.097 1.398-1.186.09-.058.808-.937.93-1.097.212-.205.173-.603.141-.776-.051-.09-.006-.276.02-.577.057-.462-.59-.289-.732-.257-.211.077-.224-.032-.224-.218s.34-.673.34-.673l.128-.16c.18-.315.064-.244.007-.238-.167-.038-.603.584-.661.654-.058.077-.295.424-.41.584-.43.564-.982.802-.982.802l-.154.05c-.224.097-.211-.14-.211-.14l.282-.314.16-.129c.917-.712 1.18-1.468 1.18-1.468l-.218-.07-.109-.014c-.18-.064-.14.045-.154.045-.013 0-.025.237-.025.334 0 .09-.09.34-.116.352-.07-.07-.205-.423-.23-.558-.026-.134-.097-.102-.116-.102-.295-.026-.263.244-.27.256.013.347.058.475-.006.629-.064.16-.14.058-.154.07-.14-.083-.417-.327-.551-.449-.526-.705-.36-.551-.36-.551l-.05-.045c-.02-.154-.232-.365-.334-.507-.302-.609-1.084-.974-1.206-1.077-.115-.109-.122-.16-.109-.237-.02-.18.103-.16.141-.148.686.09 1.225.379 1.437.494.34.135.757.815.846.924.122.192.25.18.276.186.34-.007.302-.334.302-.334s.019-.334-.071-.552c-.09-.218-.186-.09-.16-.05.025.038-.007.082-.039.115-.115.128-.256.154-.295.128-.186-.16-.083-.366-.07-.41.134-.142-.026-.174-.026-.174l-.18-.064-.115-.032c-.11-.013-.122-.083-.122-.096-.064-.141.141-.244.141-.244l.058-.025c.288-.045.385-.366.404-.45.064-.25-.084-1.032-.128-1.256-.045-.225.019-.193.019-.193s.135.007.288.039c.276.096.257.288.257.288s-.006.347-.038.577c-.065.174.121.218.153.238.584-.013.75.006.995.07.243.064.205.469.205.584-.026.128.096.096.128.122.109.013.141-.026.147-.052.11-.147-.147-.776-.205-.852-.115-.122-.025-.719-.025-.719s-.11-.154-.18-.263c-.16-.077-.436.436-.513.565a.599.599 0 0 1-.391.327c-.231-.026-.122-.321-.077-.424.186-.397.77-.923.82-.955.578-.212.687.103.687.103l.186.551.212 1.61s.057.5.115.718c.051.218.276-.064.276-.064s.41-.34.474-.526.552-.539.674-.59c.57-.141.699.494.686.57-.006.071-.006.29-.173.616-.167.328-.84.764-1.084.924-.231.128-.57.564-.641.667-.09.147-.27.25-.328.404-.057.154.116.006.142.006.365-.288.814-.07.974.007.218.115.193.282.142.365-.052.186-.481.969-.481.969l-.103.154c-.09.109-.122.243-.122.243l.045.052s.032.205.167-.013c.14-.212.545-.462.628-.513.385-.154.5-.744.494-.795-.051-.071.077-.11.083-.116.917-.212 1.11.007 1.174.077.186.289-.167.635-.282.706-.975.346-.956.397-1.392.692-.442.295-.186.622-.096.718.096.097 1.231 1.36 1.231 1.36s.18.244.308.333c.154.077.257.18.32.276l1.187-1.045-.013.013 1.392-1.354 1.328-1.41 1.257-1.475 1.186-1.533-.006.013 1.115-1.597-.006.013 1.039-1.649.956-1.686.878-1.745.789-1.776.712-1.834-.007.013.623-1.88-.007.013.532-1.91.436-1.944-.006.013.34-1.97.244-2.006v.012l.147-2.039v.013l.045-2.052-.064-2.078v.013l-.167-2.072.007.013-.27-2.033-.372-2v.012l-.468-1.969.007.013-.565-1.93.007.012-.655-1.885.007.013-.738-1.835-.801-1.789.006.013-.91-1.744.006.013-.988-1.687-1.064-1.636-1.142-1.577.007.013-1.206-1.514-1.29-1.462.014.013-1.347-1.392-1.411-1.328-1.469-1.256-1.52-1.18-1.597-1.116-1.629-1.033-1.686-.955-1.744-.88-1.777-.794-1.821-.706-1.854-.622-1.904-.538ZM39.765 96.849l-.006-.007-1.206-.93-.006-.006-1.174-.968-.006-.007-1.135-1.013-.007-.006-1.096-1.059-.007-.006-1.058-1.096-.007-.007-1.013-1.135-.006-.006-.975-1.174-.006-.007-.93-1.212-.007-.006-.885-1.244-.006-.007-.84-1.276-.007-.006-.789-1.315-.006-.013-.744-1.347-.006-.006-.693-1.379-.006-.013-.16-.346-.116-.25 1.34-.706-.506-1.205-.16-.385V78.7l-.155-.385-.147-.391v-.007l-.148-.391v-.006l-.14-.392-.142-.397v-.007l-.134-.397-.129-.398v-.006l-.128-.392v-.006l-.244-.808v-.006l-.115-.404V74.3l-.11-.41-.102-.41v-.007l-.102-.41v-.007l-.097-.404v-.007l-.18-.833v-.007l-.076-.41v-.006l-.077-.424v-.006l-.141-.847v-.006l-.064-.423v-.007l-.058-.43v-.006l-.058-.43v-.006l-.051-.43-.045-.43v-.006l-.038-.43v-.006l-.052-.417-.032-.436v-.006l-.025-.436-.007-.148-.051-1.129v-2.007l-1.212.064-.314.02.012-.315.007-.192v-.007l.019-.506v-.007l.026-.5v-.006l.032-.5v-.007l.038-.5v-.006l.045-.5v-.007l.058-.5.057-.494v-.007l.065-.493v-.007l.07-.494v-.006l.077-.488v-.006l.084-.487v-.007l.096-.468v-.006l.096-.481v-.007l.103-.48v-.007l.102-.481v-.006l.11-.482v-.006l.115-.474v-.007l.121-.474v-.007l.129-.474v-.007l.134-.468v-.006l.142-.469v-.006l.295-.924v-.006l.153-.462v-.006l.16-.455v-.007l.168-.455v-.007l.115-.307.096-.25.257.076 1.212.353.513-1.212.18-.41v-.007l.185-.41v-.007l.186-.404.193-.404v-.006l.198-.398v-.006l.411-.795v-.007l.212-.391.218-.391v-.007l.218-.384.224-.385v-.007l.231-.384.23-.379V43.3l.238-.379.244-.372v-.006l.244-.372.25-.366.256-.365v-.007l.257-.365.526-.718v-.007l.269-.352.276-.353.276-.346.282-.347v-.006l.282-.34.288-.34.347-.289v-.006l.295-.334.301-.327.853-.91-.757-1.046-.14-.198.172-.174.283-.275.346-.334v-.006l.353-.327.352-.32.36-.322h.006l.36-.314v-.006l.365-.315.372-.307h.006l.372-.302.378-.301h.007l.378-.295.385-.289h.006l.385-.288.391-.283v-.006l.392-.276h.006l.398-.27h.006l.404-.268.404-.263h.006l.411-.257.41-.25h.007l.417-.25.416-.244h.007l.423-.237h.007l.423-.231.43-.23h.006l.43-.225h.006l.436-.218h.007l.5-.25.134.243.59 1.084 1.226-.545.404-.173h.006l.808-.334h.006l.41-.16h.007l.41-.154h.007l.41-.154.417-.147h.007l.417-.142h.006l.417-.134h.006l.392-.173.423-.129h.006l.423-.121h.007l.43-.122h.006l.43-.116h.006l.43-.109h.006l.872-.205h.007l.436-.096h.006l.443-.09h.006l.443-.083h.006l.443-.077h.006l.443-.077h.006l.449-.07h.006l.45-.065h.006l.449-.058h.006l.455-.057h.007l.455-.052h.007l.455-.045h.006l.456-.038h.006l.462-.032h.006l1.495-.083-.065-1.193-.019-.295.295-.007.821-.025h.013l2.058.044h.013l2.033.148h.013l1.95.244h.013l1.975.346.013.006 1.943.443.013.006 1.91.533.014.006 1.872.628.013.007 1.834.712.013.006 1.79.802.012.006 1.745.885.012.007 1.7.962.013.006 1.648 1.045.013.007 1.597 1.116.012.006 1.54 1.193.012.007 1.482 1.263.013.006 1.417 1.334.006.007 1.354 1.398.013.013 1.288 1.462.007.013 1.218 1.526.007.013 1.141 1.584.007.013 1.07 1.641.007.013.994 1.693.007.013.91 1.745.007.012.827 1.796.006.013.744 1.84.007.013.654 1.886.006.013.565 1.93.006.013.468 1.969v.013l.372 2.007v.013l.27 2.039.006.013.167 2.071v.013l.064 2.084v.013l-.045 2.059v.013l-.147 2.04v.012l-.244 2.007v.013l-.346 1.982-.007.013-.442 1.95-.007.012-.532 1.918-.007.012-.622 1.88-.006.012-.712 1.84-.006.014-.802 1.795-.006.013-.885 1.751-.007.013-.962 1.7-.006.012-1.046 1.655-.006.013-1.116 1.596-.006.013-1.193 1.54-.007.012-1.263 1.482-.006.013-1.334 1.423-.007.007-1.398 1.36-.013.012-1.462 1.29-.013.006-1.526 1.218-.013.007-1.584 1.147-.013.007-1.642 1.07-.012.007-1.693.994-.013.007-1.745.91-.012.007-1.796.827-.013.007-1.84.743-.013.007-1.886.654-.013.006-1.93.565-.013.006-1.969.468h-.013l-2.007.372h-.013l-2.046.27-.012.006-2.078.167h-.013l-1.623.058h-.012l-1.616-.007h-.013l-1.597-.07h-.013l-1.584-.135H59.8l-1.571-.192h-.013l-1.552-.251h-.013l-1.533-.314h-.012l-1.514-.372h-.013l-1.488-.423-.012-.006-1.469-.481-.013-.007-1.443-.532-.013-.007-1.417-.59v-.006l-1.392-.641-.013-.007-1.366-.692-.012-.007-1.334-.737-.007-.007-1.308-.788-.013-.007-1.276-.834-.006-.006-1.232-.885Zm57.187-22.094c.006.058.019.116.032.167l-.032-.166Zm.077-1.744c-.052.263-.084.52-.103.763l.103-.763Zm.955-2.456c-.045.064-.083.128-.128.192l.128-.192Zm2.694-1.937c-.417.199-1.084.552-1.892 1.122l1.892-1.122Z" fill="#E61C3D"/><path d="M61.673 21.641c-.007 0-.007 0 0 0ZM23.61 81.438l-.347-.795.77-.404.641-.334a42.542 42.542 0 0 1-3.078-14.757c0-.076-.007-.153-.007-.23l-.609.032-.981.045v-.988c0-2.905.289-5.753.834-8.517a43.627 43.627 0 0 1 2.482-8.19l.32-.775 1.54.442a42.812 42.812 0 0 1 7.548-11.563l-.488-.68-.455-.628.539-.558a44.785 44.785 0 0 1 6.336-5.458 43.822 43.822 0 0 1 7.228-4.155l.788-.36.417.763.34.629a42.78 42.78 0 0 1 6.542-2.18 42.186 42.186 0 0 1 6.817-1.09l-.039-.636-.05-.936.942-.051c12.076-.648 23.312 3.68 31.7 11.19 8.382 7.51 13.917 18.208 14.59 30.29.674 12.096-3.642 23.357-11.159 31.758-7.51 8.414-18.22 13.962-30.321 14.642a43.702 43.702 0 0 1-25.512-6.497c-7.606-4.707-13.718-11.678-17.328-20.009Zm2.071.051c3.495 7.632 9.203 14.013 16.245 18.368a41.866 41.866 0 0 0 24.428 6.208c11.582-.648 21.83-5.958 29.026-14.007 7.189-8.036 11.325-18.816 10.678-30.398-.648-11.563-5.945-21.799-13.968-28.994-7.812-6.997-18.207-11.108-29.418-10.755l.032.609.052.943-.943.045h-.064a40.199 40.199 0 0 0-14.353 3.508l-.789.359-.75-1.373a42.34 42.34 0 0 0-6.131 3.605 42.288 42.288 0 0 0-5.528 4.675l.474.66.45.629-.533.564a40.834 40.834 0 0 0-8.03 12.333l-.32.77-.795-.238-.718-.212a42.784 42.784 0 0 0-2.06 7.061 41.939 41.939 0 0 0-.788 7.17l.59-.032.988-.051v.987c0 .385.006.776.012 1.18.013.366.026.757.052 1.174a40.164 40.164 0 0 0 1.007 6.997 39.864 39.864 0 0 0 2.206 6.689l.34.795-1.392.731Z" fill="#E61C3D"/><path fill-rule="evenodd" clip-rule="evenodd" d="M37.104 81.464a.65.65 0 0 1 .526.295l.41.615a.674.674 0 0 1 .07.603c.212-.051.43-.147.636-.282.359-.237.609-.564.724-.891.103-.296.096-.584-.045-.796-.14-.211-.41-.327-.718-.346-.346-.02-.744.09-1.103.333a1.945 1.945 0 0 0-.5.469Zm-2.957.776a.66.66 0 0 1 .295-.578l.616-.41a.67.67 0 0 1 .648-.051 1.902 1.902 0 0 0-.282-.687 1.725 1.725 0 0 0-.834-.673c-.308-.109-.622-.096-.872.07-.25.167-.385.456-.398.783-.02.327.083.699.308 1.026.141.218.327.398.52.52Zm.732 2.911a.65.65 0 0 1-.526-.295l-.41-.615a.674.674 0 0 1-.071-.603c-.212.05-.43.147-.635.282-.36.243-.61.564-.725.891-.103.295-.096.584.045.795.141.212.41.328.718.347.346.019.744-.09 1.103-.334.2-.128.366-.295.5-.468Zm2.956-.782a.668.668 0 0 1-.295.577l-.616.41a.67.67 0 0 1-.647.052 1.9 1.9 0 0 0 .282.686c.224.333.526.564.834.673.307.11.621.097.872-.07.25-.167.384-.456.397-.783a1.679 1.679 0 0 0-.308-1.026 2 2 0 0 0-.519-.52Zm-4.4-11.3c.193.064.36.218.424.43l.224.705c.064.212.02.43-.102.596.218.007.455-.019.686-.096.41-.128.744-.372.949-.654.18-.257.257-.532.18-.776-.077-.244-.302-.43-.597-.532-.327-.116-.737-.122-1.154.012-.225.071-.436.18-.61.315Zm-3.052-.084a.673.673 0 0 1 .442-.474l.706-.225a.68.68 0 0 1 .635.129c.025-.231 0-.481-.077-.738a1.755 1.755 0 0 0-.61-.879c-.262-.192-.57-.263-.859-.173-.282.09-.494.327-.603.635-.109.308-.115.693.007 1.071.083.257.205.481.359.654Zm-.116 2.995a.659.659 0 0 1-.423-.43l-.224-.711a.675.675 0 0 1 .102-.597 1.994 1.994 0 0 0-.686.096c-.41.129-.744.373-.95.655-.179.256-.256.532-.179.782.077.244.302.43.597.532.327.116.737.122 1.154-.013.225-.07.436-.185.61-.314Zm3.053.077a.672.672 0 0 1-.442.475l-.706.224a.68.68 0 0 1-.635-.128c-.025.23 0 .481.084.737.121.379.346.687.609.88.27.191.57.262.86.172.281-.09.493-.327.602-.635.11-.307.115-.692-.006-1.07a2.018 2.018 0 0 0-.366-.655Zm-2.046.077-.096-.308-.282.09c-.013.013-.02.032-.032.045-.238.327-.616.61-1.078.75a2.14 2.14 0 0 1-1.314.007c-.417-.148-.744-.443-.873-.847-.128-.41-.032-.834.225-1.193.237-.327.616-.609 1.077-.75a2.14 2.14 0 0 1 1.315-.006c.02.006.032.013.051.019l.283-.09-.097-.308c-.32-.25-.59-.635-.73-1.103-.155-.494-.148-.994-.007-1.398.141-.404.41-.712.782-.827.366-.116.77-.02 1.116.23.346.25.641.655.795 1.149.148.468.148.936.032 1.32l.097.309.282-.09c.013-.013.02-.032.032-.045.237-.327.616-.61 1.077-.75.462-.148.937-.141 1.315-.007.417.148.744.443.872.847.129.41.032.833-.224 1.193-.238.327-.616.609-1.084.75a2.14 2.14 0 0 1-1.315.006c-.019-.006-.032-.012-.051-.019l-.282.09.096.308c.32.25.59.635.737 1.103.154.494.148.994.007 1.398-.141.404-.41.712-.782.827-.373.116-.77.02-1.116-.23-.347-.25-.642-.655-.796-1.149a2.273 2.273 0 0 1-.032-1.32Zm.994-12.16a.679.679 0 0 1 .289.533l.02.744a.662.662 0 0 1-.264.545c.205.07.443.11.686.103.43-.013.821-.148 1.097-.366.244-.192.398-.442.391-.699-.006-.256-.166-.5-.423-.68-.282-.205-.68-.32-1.11-.314-.25.013-.48.058-.686.135Zm-2.911-.93a.655.655 0 0 1 .558-.326l.744-.02a.662.662 0 0 1 .57.302c.09-.218.135-.462.129-.731a1.75 1.75 0 0 0-.34-1.02c-.2-.256-.475-.417-.776-.41-.295.006-.565.173-.757.442-.192.27-.301.635-.295 1.033.013.27.07.52.167.73Zm-.95 2.842a.679.679 0 0 1-.288-.532l-.02-.744a.663.663 0 0 1 .264-.545 1.972 1.972 0 0 0-.686-.103c-.43.013-.821.147-1.097.365-.244.193-.398.443-.391.7.006.256.166.493.423.68.282.205.68.32 1.11.314.25-.013.487-.058.686-.135Zm2.912.93a.67.67 0 0 1-.558.327l-.744.02a.662.662 0 0 1-.57-.302 1.79 1.79 0 0 0-.129.73c.007.399.141.758.34 1.014.205.257.475.417.776.41.295-.006.564-.173.757-.442.192-.27.301-.635.295-1.032a2.003 2.003 0 0 0-.167-.725Zm-1.988-.5-.006-.321-.295.006c-.013.013-.026.02-.039.032-.32.25-.763.41-1.25.424a2.074 2.074 0 0 1-1.264-.366c-.359-.256-.59-.628-.596-1.058-.013-.43.199-.808.551-1.084.321-.25.764-.41 1.25-.423.488-.013.937.128 1.264.365.013.013.026.02.045.032l.295-.006-.006-.327a2.291 2.291 0 0 1-.398-1.263c-.013-.52.135-.994.385-1.34.244-.347.596-.565.981-.578.385-.006.744.192 1.007.532.263.334.43.808.443 1.328a2.27 2.27 0 0 1-.34 1.276l.006.32.295-.006a2.136 2.136 0 0 1 1.289-.455c.487-.013.936.128 1.264.366.359.256.59.628.596 1.058.013.43-.199.808-.552 1.084-.32.25-.763.41-1.25.423a2.073 2.073 0 0 1-1.264-.366c-.012-.012-.032-.019-.044-.032l-.296.007.007.327c.237.333.385.776.398 1.263.012.52-.135.994-.385 1.34-.25.347-.597.565-.981.578-.385.006-.744-.193-1.007-.533-.263-.333-.43-.801-.443-1.327a2.27 2.27 0 0 1 .34-1.276Zm4.361-11.39c.128.16.186.378.128.59l-.192.718a.675.675 0 0 1-.404.449c.18.122.391.224.628.289.417.109.828.09 1.148-.045.289-.116.507-.315.571-.558.064-.25-.02-.526-.212-.77a1.827 1.827 0 0 0-.974-.61 1.998 1.998 0 0 0-.693-.063Zm-2.533-1.712a.672.672 0 0 1 .628-.16l.719.191c.23.065.397.238.468.45.14-.18.256-.411.327-.661a1.77 1.77 0 0 0-.039-1.071c-.121-.302-.34-.532-.628-.61-.289-.076-.59.014-.853.212-.257.206-.468.52-.57.91-.071.251-.084.508-.052.739Zm-1.706 2.462c-.128-.16-.186-.378-.128-.59l.192-.718a.675.675 0 0 1 .404-.45 2.096 2.096 0 0 0-.628-.288c-.417-.109-.828-.09-1.155.045-.288.116-.506.314-.57.558-.065.25.019.526.211.77.218.276.558.5.975.609.25.058.48.077.699.064Zm2.533 1.706a.672.672 0 0 1-.628.16l-.719-.192a.686.686 0 0 1-.468-.449c-.147.18-.256.41-.327.66a1.72 1.72 0 0 0 .045 1.072c.122.301.34.532.628.609.29.077.59-.013.854-.212.256-.205.468-.52.57-.91.064-.25.077-.507.045-.738Zm-1.77-1.039.083-.314-.288-.077c-.02.006-.032.013-.051.02-.379.147-.847.179-1.315.05a2.155 2.155 0 0 1-1.116-.705c-.276-.346-.391-.77-.276-1.187.11-.41.424-.724.834-.885.378-.147.846-.18 1.315-.05.468.127.859.384 1.115.705.013.013.02.025.033.045l.288.077.084-.315a2.246 2.246 0 0 1-.026-1.32c.135-.501.41-.918.744-1.18.333-.264.73-.38 1.103-.277.372.103.66.398.814.79.16.397.186.89.052 1.397a2.302 2.302 0 0 1-.687 1.135l-.083.315.289.077.051-.02c.378-.147.846-.18 1.315-.05.468.127.86.384 1.116.705.275.346.39.77.275 1.186-.109.41-.423.725-.833.885-.379.148-.847.18-1.315.051a2.156 2.156 0 0 1-1.116-.705c-.013-.013-.02-.026-.032-.045l-.282-.083-.084.314c.135.385.154.853.026 1.32-.135.501-.41.918-.744 1.18-.333.264-.731.38-1.103.277-.372-.103-.66-.398-.814-.795-.16-.398-.186-.892-.052-1.399.122-.461.372-.853.68-1.122Zm7.382-9.71a.67.67 0 0 1-.045.603l-.385.635a.68.68 0 0 1-.513.32c.135.174.314.328.526.456.372.225.77.315 1.116.282.314-.032.57-.16.705-.378s.128-.507.013-.795c-.128-.32-.398-.635-.77-.86a1.842 1.842 0 0 0-.647-.263Zm-1.95-2.353a.651.651 0 0 1 .648.026l.635.384a.67.67 0 0 1 .32.565c.193-.135.366-.321.5-.545.206-.34.29-.712.264-1.04-.032-.326-.18-.602-.437-.763-.256-.153-.57-.153-.878-.032a1.726 1.726 0 0 0-.802.712 1.742 1.742 0 0 0-.25.693Zm-2.328 1.885a.67.67 0 0 1 .045-.602l.385-.635a.681.681 0 0 1 .513-.321 1.928 1.928 0 0 0-.526-.455 1.862 1.862 0 0 0-1.116-.283c-.308.032-.57.16-.705.379-.135.218-.129.507-.007.795.128.32.398.635.77.86.205.134.423.218.641.262Zm1.95 2.354a.65.65 0 0 1-.648-.026l-.635-.384a.656.656 0 0 1-.32-.565c-.193.135-.366.32-.5.545-.206.34-.29.712-.257 1.04.032.326.18.608.436.762.256.154.57.154.878.032.302-.121.597-.372.802-.711.128-.225.212-.462.244-.693Zm-1.405-1.494.167-.276-.25-.154c-.02 0-.032.007-.051.007a2.126 2.126 0 0 1-1.277-.315 2.1 2.1 0 0 1-.872-.987c-.167-.41-.16-.847.064-1.212.225-.366.61-.578 1.046-.616.404-.039.859.064 1.276.314.417.25.718.61.872.988.006.019.013.032.02.051l.25.154.166-.276c-.02-.404.09-.86.346-1.276.27-.443.648-.763 1.046-.924.397-.16.808-.16 1.135.045.333.2.52.565.564.988.039.423-.07.91-.34 1.353-.25.417-.602.725-.974.898l-.167.276.25.154c.02 0 .032-.007.051-.007.404-.038.86.064 1.277.315.416.25.718.609.872.987.166.41.16.847-.064 1.212-.225.366-.603.577-1.046.616a2.125 2.125 0 0 1-1.276-.314 2.102 2.102 0 0 1-.872-.988l-.02-.051-.25-.154-.166.276c.019.404-.09.859-.347 1.276-.269.442-.647.763-1.045.923-.398.16-.808.16-1.135-.045-.334-.198-.52-.564-.565-.987-.038-.424.071-.91.34-1.353.25-.424.603-.732.975-.898Zm9.8-7.26a.66.66 0 0 1-.212.564l-.545.5a.674.674 0 0 1-.584.16c.084.2.212.405.379.585.295.32.647.519.994.583.307.058.59.007.782-.167.192-.173.263-.455.23-.763-.031-.346-.204-.724-.493-1.039-.167-.18-.359-.32-.551-.423Zm-1.212-2.809a.666.666 0 0 1 .615.205l.5.545c.16.173.212.417.148.629.218-.077.436-.205.635-.385a1.69 1.69 0 0 0 .538-.923c.065-.321 0-.635-.205-.853-.199-.218-.506-.308-.834-.276a1.71 1.71 0 0 0-.968.455 2.092 2.092 0 0 0-.43.603Zm-2.765 1.16a.66.66 0 0 1 .212-.564l.545-.5a.674.674 0 0 1 .584-.16 2.018 2.018 0 0 0-.379-.584c-.295-.32-.647-.52-.994-.583-.307-.058-.59-.007-.782.166-.186.174-.263.456-.231.764.032.346.205.724.494 1.038.173.18.359.321.551.424ZM40.9 40.92a.666.666 0 0 1-.615-.205l-.5-.545a.653.653 0 0 1-.148-.628 1.897 1.897 0 0 0-.635.384 1.69 1.69 0 0 0-.538.924c-.065.32 0 .635.205.853.199.218.506.308.833.276a1.71 1.71 0 0 0 .969-.456c.192-.18.34-.391.43-.603Zm-.93-1.821.238-.218-.199-.218c-.02 0-.032-.006-.051-.006a2.145 2.145 0 0 1-1.142-.661c-.327-.36-.52-.789-.558-1.193-.045-.442.084-.86.404-1.148.315-.289.744-.385 1.18-.301.398.077.808.301 1.142.66.327.36.52.79.558 1.193 0 .02.006.032.006.051l.199.218.237-.218c.096-.397.327-.801.686-1.128.385-.353.84-.552 1.264-.597.423-.045.814.07 1.077.36.263.282.34.686.263 1.109-.077.417-.32.853-.705 1.206-.36.327-.783.526-1.187.59l-.237.218.199.218c.02 0 .032.006.051.006.398.077.808.302 1.142.66.327.36.52.79.558 1.194.045.442-.084.859-.404 1.147-.315.29-.744.385-1.18.302a2.145 2.145 0 0 1-1.142-.66c-.327-.36-.52-.79-.558-1.194 0-.019-.006-.038-.006-.05l-.193-.232-.237.218a2.27 2.27 0 0 1-.686 1.13c-.385.352-.84.55-1.264.596-.423.044-.814-.071-1.077-.36-.263-.282-.34-.686-.263-1.11.077-.416.32-.852.706-1.205.352-.32.776-.52 1.18-.577Zm11.448-4.226a.696.696 0 0 1-.359.487l-.667.327a.665.665 0 0 1-.603-.006c.026.218.09.442.199.667.192.385.481.68.789.84.276.141.564.173.795.058.23-.116.378-.36.436-.667.064-.34.006-.75-.186-1.136a2.021 2.021 0 0 0-.404-.57Zm-.385-3.034c.225.02.43.154.533.372l.327.667a.682.682 0 0 1-.032.648c.23-.013.48-.07.712-.192.359-.174.628-.443.776-.738.147-.295.173-.61.044-.872-.134-.27-.397-.436-.718-.5a1.76 1.76 0 0 0-1.058.166c-.231.116-.43.276-.584.45Zm-2.975.34a.696.696 0 0 1 .359-.487l.667-.327a.665.665 0 0 1 .602.006 2.077 2.077 0 0 0-.198-.667c-.193-.385-.481-.68-.79-.84-.275-.141-.563-.173-.794-.058-.231.116-.379.36-.436.667-.065.34-.007.75.186 1.135.109.231.25.417.404.571Zm.378 3.034a.653.653 0 0 1-.532-.366l-.327-.673a.682.682 0 0 1 .032-.648 1.74 1.74 0 0 0-.712.192c-.36.174-.629.443-.776.738-.148.295-.173.61-.045.872.135.27.398.436.718.5.32.058.7.007 1.058-.166.238-.116.437-.276.584-.45Zm-.378-2.014.288-.141-.128-.27c-.013-.006-.032-.012-.045-.025a2.161 2.161 0 0 1-.91-.956 2.123 2.123 0 0 1-.206-1.302c.084-.436.32-.801.706-.987.384-.193.82-.16 1.212.045.359.186.692.52.91.955.218.436.276.904.206 1.302 0 .02-.007.032-.013.051l.128.263.289-.14c.198-.353.538-.674.974-.892.469-.231.962-.295 1.38-.218.416.077.762.301.936.648.173.346.134.756-.058 1.135-.192.378-.545.73-1.013.962a2.237 2.237 0 0 1-1.302.23l-.289.142.128.263c.02.006.032.012.045.025.36.186.693.52.91.956.219.436.277.904.206 1.302-.083.436-.32.801-.705.987-.385.186-.821.16-1.212-.045a2.162 2.162 0 0 1-.911-.955 2.123 2.123 0 0 1-.205-1.302c0-.02.006-.032.013-.051l-.129-.263-.288.14c-.2.353-.539.674-.975.892-.468.231-.962.295-1.379.218-.417-.077-.763-.301-.936-.648-.173-.346-.135-.756.057-1.135.193-.378.546-.73 1.014-.962a2.283 2.283 0 0 1 1.302-.224Zm12.165-.853a.66.66 0 0 1-.48.366l-.732.128a.65.65 0 0 1-.577-.18c-.038.218-.038.45.007.693.076.423.269.789.525 1.026.225.212.494.327.75.282.25-.045.469-.237.61-.52.154-.314.218-.718.141-1.14a2.269 2.269 0 0 0-.244-.655Zm.488-3.014c.205.083.365.27.41.506l.128.732a.68.68 0 0 1-.211.615c.224.051.48.064.737.02.392-.071.732-.25.956-.488.224-.237.34-.532.289-.827-.052-.295-.257-.533-.552-.68a1.72 1.72 0 0 0-1.065-.135c-.262.032-.5.128-.692.257Zm-2.957-.513a.66.66 0 0 1 .481-.366l.731-.128a.65.65 0 0 1 .578.18 1.937 1.937 0 0 0-.007-.693c-.077-.424-.27-.789-.526-1.026-.224-.212-.494-.327-.75-.282-.25.044-.468.237-.61.519a1.86 1.86 0 0 0-.14 1.142c.057.243.14.468.243.654Zm-.48 3.02a.682.682 0 0 1-.411-.5l-.128-.731a.68.68 0 0 1 .211-.616 1.889 1.889 0 0 0-.737-.019c-.391.07-.731.25-.956.487-.224.238-.34.533-.288.828.05.295.256.532.551.68a1.72 1.72 0 0 0 1.065.134c.263-.045.5-.134.692-.263Zm.198-2.046.32-.057-.05-.289a6.987 6.987 0 0 0-.039-.038c-.295-.276-.52-.693-.603-1.168a2.153 2.153 0 0 1 .167-1.308c.199-.397.532-.673.955-.75.424-.077.834.077 1.155.378.295.276.52.693.603 1.167.083.481.013.943-.167 1.309-.006.012-.02.032-.026.045l.052.288.32-.058c.289-.282.706-.5 1.187-.583a2.286 2.286 0 0 1 1.385.173c.378.192.648.5.718.885.064.378-.083.763-.372 1.077a2.267 2.267 0 0 1-1.244.635 2.283 2.283 0 0 1-1.315-.14l-.32.057.051.289.038.038c.296.276.52.693.603 1.174.084.48.013.942-.166 1.308-.2.398-.533.673-.956.75-.423.077-.834-.077-1.154-.378-.295-.276-.52-.693-.603-1.174a2.152 2.152 0 0 1 .167-1.308c.006-.013.012-.032.025-.045l-.051-.288-.32.057c-.29.282-.706.5-1.187.584a2.286 2.286 0 0 1-1.385-.173c-.379-.193-.648-.5-.719-.885-.064-.379.084-.764.372-1.078a2.267 2.267 0 0 1 1.244-.635 2.283 2.283 0 0 1 1.315.142ZM35.885 85.016l-.18-.269-.243.167c-.006.02-.013.032-.02.051a2.1 2.1 0 0 1-.827 1.026c-.404.27-.859.391-1.263.372-.442-.019-.834-.211-1.07-.57-.238-.353-.27-.796-.123-1.206.135-.385.424-.757.828-1.026.404-.27.859-.392 1.263-.372.02 0 .032 0 .051.006l.244-.167-.18-.269a2.24 2.24 0 0 1-1.013-.853c-.288-.43-.423-.91-.397-1.34.019-.424.198-.796.519-1.014.32-.218.731-.237 1.135-.09.404.142.795.45 1.084.88.27.403.404.852.404 1.263l.18.269.243-.167.02-.051c.134-.385.423-.757.827-1.026.404-.27.86-.391 1.263-.372.443.02.834.212 1.071.57.237.353.263.79.122 1.206a2.101 2.101 0 0 1-.827 1.026c-.404.27-.86.392-1.264.372-.019 0-.038 0-.051-.006l-.244.167.18.27a2.24 2.24 0 0 1 1.013.852c.289.43.423.91.398 1.34-.02.424-.199.796-.52 1.014-.32.218-.73.237-1.135.09-.404-.142-.795-.45-1.084-.88a2.293 2.293 0 0 1-.404-1.263Z" fill="#E61C3D"/><path d="m86.973 57.991-2.906 1.026a.661.661 0 0 1-.205.045c-.038 0-.07-.032-.09-.096-.006-.026-.019-.045-.025-.064l-.257.09.308.898.257-.09c-.007-.02-.013-.045-.026-.07-.013-.046-.006-.084.026-.116a.676.676 0 0 1 .192-.09l2.905-1.026a.596.596 0 0 1 .212-.045c.051.006.09.045.115.11.007.018.013.044.02.063.012.039.025.077.044.129.039.108.013.23-.083.346-.09.096-.244.212-.468.353l.109.121.853-.474-.718-2.11-.975.199-.007.154c.276-.045.481-.052.61-.013.147.025.243.115.295.263a.478.478 0 0 1 .032.102c.032.09.025.148-.02.193a.63.63 0 0 1-.198.102Zm-.719-3.251-.243.115c.006.02.025.058.045.103.032.07.038.128.012.167a.269.269 0 0 1-.109.096l-2.963 1.41c-.05.026-.096.033-.134.014-.032-.013-.07-.058-.103-.129a.649.649 0 0 0-.045-.096l-.243.116.48 1.038.244-.115c-.019-.038-.032-.077-.051-.103-.032-.07-.038-.128-.026-.16.013-.032.052-.064.103-.09l2.956-1.41a.35.35 0 0 1 .141-.033c.045.007.084.039.11.103a.996.996 0 0 0 .057.122l.244-.116-.475-1.032Zm-2.783-2.636c-.372.25-.526.731-.455 1.45.051.602-.058.993-.327 1.173a.956.956 0 0 1-.603.173c-.186-.006-.334-.102-.456-.288-.07-.11-.102-.25-.102-.43.006-.167.032-.308.083-.417a1.29 1.29 0 0 1 .16-.276l-.147-.224-.673.789.147.224.193-.128a.94.94 0 0 0 .16.667c.186.288.423.462.712.507.314.038.622-.033.91-.225.372-.244.52-.712.443-1.392-.07-.615.013-1 .244-1.154.192-.128.378-.199.564-.199a.5.5 0 0 1 .449.25c.083.129.109.263.09.41-.032.161-.077.302-.141.411a2.229 2.229 0 0 1-.167.212l.147.224.706-.776-.148-.224-.14.096a.946.946 0 0 0-.161-.564c-.199-.308-.443-.475-.738-.494-.269-.013-.52.057-.75.205Zm-3.239-4.797-2.167 2.13a.43.43 0 0 1-.2.115c-.063.006-.108-.007-.153-.052-.02-.019-.032-.038-.058-.057l-.192.192 1.674 1.75.93-.647-.186-.192c-.372.198-.616.295-.738.301a.332.332 0 0 1-.256-.115l-.526-.545c-.058-.058-.077-.122-.064-.186a.47.47 0 0 1 .128-.18l1.052-1.033.282.295c.07.077.102.148.083.218-.006.077-.122.225-.346.443l.186.192 1.09-1.07-.186-.193c-.192.186-.327.289-.417.314-.077.013-.154-.013-.224-.09l-.282-.295.923-.91a.447.447 0 0 1 .212-.129.183.183 0 0 1 .173.058l.539.558c.057.058.077.16.07.302-.013.14-.109.346-.288.609l.186.192.654-.846-1.68-1.758-.193.187c.013.019.038.038.064.064.052.05.064.109.039.166-.007.07-.052.141-.129.212Zm-2.225-2.11-1.61 3.527.154.135.013-.02 3.034-2.295a.317.317 0 0 1 .16-.07.16.16 0 0 1 .122.031c.019.02.051.039.083.07l.173-.204-.551-.462-.173.205c.019.02.044.039.07.058.032.026.045.058.045.109-.007.045-.038.09-.09.135l-2.366 1.815 1.347-2.694c.006-.045.038-.077.096-.11.051-.018.09-.012.128.02.032.026.058.045.077.064l.173-.205-.75-.635-.173.205c.019.013.038.032.057.045.02.02.026.052.02.09-.013.07-.026.128-.039.186Zm-1.648-1.821-.154.224c.02.013.051.032.09.064.064.045.096.09.09.135a.214.214 0 0 1-.052.141l-1.873 2.726c-.032.045-.07.077-.108.083-.039.006-.09-.013-.154-.058-.026-.019-.058-.038-.084-.057l-.154.224.93.654.154-.224c-.038-.026-.07-.045-.096-.064-.064-.045-.096-.09-.096-.129-.007-.032.013-.077.045-.128l1.866-2.72a.264.264 0 0 1 .109-.095c.045-.013.09-.007.141.032.032.019.064.045.109.077l.154-.225-.917-.66Zm-3.213 2.963 1.84-3.245a.304.304 0 0 1 .116-.122c.038-.02.102 0 .186.044l.135-.237-.616-.359-.135.231c.077.045.122.096.135.147.006.045-.007.097-.045.16l-1.283 2.265.353-3.367-.648-.379-.134.231c.07.045.115.09.128.135a.262.262 0 0 1-.045.167l-1.603 2.828a.296.296 0 0 1-.122.128c-.039.013-.096-.006-.173-.051l-.135.237.616.36.134-.238c-.09-.051-.134-.096-.14-.135-.007-.045.012-.096.05-.166l1.546-2.733-.391 3.964.23.135ZM69.9 43.004l.75-1.995a.365.365 0 0 1 .103-.16c.045-.032.09-.039.134-.02.026.007.052.02.077.033l.096-.25-.878-.34-.096.25.045.019c.032.013.05.045.057.096a.517.517 0 0 1-.032.186l-.75 1.995c-.205.551-.244 1.007-.115 1.372.115.276.327.481.647.603.27.103.545.058.821-.141.282-.205.513-.552.7-1.039l.75-1.995a.317.317 0 0 1 .109-.153.135.135 0 0 1 .128-.026c.025.006.051.02.083.032l.096-.25-.718-.276-.096.25c.026.013.051.02.077.032.045.02.07.052.083.116.02.045.013.109-.013.186l-.75 1.994c-.154.404-.34.693-.564.872-.218.173-.424.225-.616.148-.167-.064-.276-.218-.327-.456-.045-.25.02-.602.199-1.083Zm12.64 6.798a.458.458 0 0 1 .167-.096c.045-.007.083.012.122.057.019.02.032.045.051.064.064.084.154.193.263.334a.34.34 0 0 1 .077.224.698.698 0 0 1-.083.379.863.863 0 0 1-.231.282 1.244 1.244 0 0 1-.334.199.717.717 0 0 1-.32.051c-.11-.006-.186-.038-.231-.096-.02-.02-.039-.052-.07-.09l-.398-.494.987-.814Zm-.333-.41-2.399 1.98a.476.476 0 0 1-.199.11c-.057.02-.102.013-.121-.02a4.275 4.275 0 0 0-.071-.09l-.205.174.635.795.205-.173c-.026-.032-.045-.057-.07-.083-.026-.032-.026-.077 0-.135.031-.045.083-.103.153-.167l1.206-.994.398.494c.032.039.025.103-.007.192-.051.116-.18.257-.378.424l-.642.532a.894.894 0 0 0-.301.475c-.026.147.02.301.147.455.154.192.404.186.757 0l-.173-.218c-.199.103-.314.128-.353.083-.025-.038-.019-.083.026-.14.058-.065.135-.142.23-.232l.642-.532c.231-.186.366-.391.417-.603a.157.157 0 0 0 .007-.051c.025.013.064.026.115.045a.904.904 0 0 0 .539.006c.18-.058.34-.14.474-.256.167-.135.282-.289.34-.443a.942.942 0 0 0 .058-.5.703.703 0 0 0-.135-.34l-1.052-1.315-.205.173c.026.033.045.052.058.071a.135.135 0 0 1 .025.128.468.468 0 0 1-.121.154Zm5.49 10.773-1.764 1.193-1.103.263c-.103.026-.18.02-.218-.019-.032-.02-.052-.058-.064-.115l-.02-.077-.256.064.243 1.052.257-.065c-.007-.025-.013-.057-.02-.09a.212.212 0 0 1 .013-.14c.02-.033.084-.065.186-.09l1.104-.263 2.148.237a.427.427 0 0 1 .18.051c.044.039.076.09.09.148l.256-.064-.16-.693-.257.064c.02.084.013.148-.02.186-.031.026-.083.039-.147.039l-1.763-.2 1.436-.968c.084-.057.154-.07.212-.044.045.025.083.109.115.23l.257-.064-.238-1.026-.256.064c.013.052 0 .103-.032.167a.56.56 0 0 1-.18.16ZM52.784 47.442l-1.783-.86-.423-1.462a1.017 1.017 0 0 1-.02-.218.274.274 0 0 1 .071-.18c.026-.025.058-.05.077-.07l-.18-.205-.654.583.18.206c.038-.033.07-.065.096-.084.039-.032.083-.038.128-.006.039.025.071.077.11.154l.326 1.141-1.02-.5a.392.392 0 0 1-.147-.141c-.025-.051-.019-.103.026-.141.032-.026.058-.052.096-.084l-.18-.205-.782.693.18.205c.013-.013.025-.026.045-.038.038-.033.083-.039.14-.02.065.02.142.045.225.084l1.61.782.474 1.603c.02.064.026.135.013.206a.284.284 0 0 1-.096.205c-.02.019-.032.032-.045.038l.173.206.719-.635-.18-.206c-.038.032-.077.07-.122.11-.064.057-.122.07-.18.032a.396.396 0 0 1-.096-.129l-.378-1.282 1.193.57c.07.039.109.09.122.148.006.045-.013.09-.058.128l-.045.045.18.205.801-.705-.18-.206-.031.033c-.07.064-.135.083-.193.07-.07-.02-.128-.045-.192-.07Zm-5.951 1.61c.18.506.519.974 1.013 1.41.43.372.866.61 1.327.712.456.09.796 0 1.026-.27a.497.497 0 0 0 .129-.346c0-.128-.032-.275-.097-.436l.456.212.173-.205-1.129-.994a.517.517 0 0 1-.147-.2c-.02-.05.032-.153.16-.3l-.205-.18-.821.962.205.18c.103-.116.18-.174.244-.174.07.013.141.052.218.122.07.064.154.135.25.218.128.116.237.238.314.379a.972.972 0 0 1 .122.327.301.301 0 0 1-.07.25c-.077.09-.206.134-.379.128-.147-.013-.346-.083-.609-.212a4.755 4.755 0 0 1-.802-.59 6.12 6.12 0 0 1-.705-.718c-.186-.263-.308-.487-.36-.68-.05-.192-.038-.333.046-.436a.548.548 0 0 1 .378-.205c.192-.013.487.083.872.289l.18-.206-1.135-.641-.174.205.16.141a.606.606 0 0 0-.48.238c-.25.282-.302.622-.16 1.02Zm2.039 3.38-3.13-2.053a.337.337 0 0 1-.115-.122c-.013-.038.006-.103.058-.186l-.225-.148-.391.61.224.147c.052-.077.103-.122.154-.128.045-.006.096.013.154.051l2.18 1.43-3.334-.532-.41.648.224.147c.045-.07.09-.115.14-.121.046-.007.097.012.168.05l2.725 1.784c.064.045.11.09.122.134.007.039-.013.097-.064.173l.23.154.392-.609-.23-.154c-.059.09-.103.135-.142.135-.045.006-.096-.013-.167-.058l-2.629-1.725 3.925.603.14-.23Zm-5.08 6.79-2.007-.692a.426.426 0 0 1-.16-.096c-.032-.051-.038-.096-.026-.141.007-.026.02-.052.026-.084l-.257-.09-.307.911.256.09a.436.436 0 0 0 .02-.051c.012-.039.044-.058.09-.058a.498.498 0 0 1 .185.026l2.008.692c.558.193 1.013.218 1.366.07.275-.127.461-.352.577-.685.096-.276.038-.558-.167-.84-.212-.283-.564-.507-1.058-.68L42.33 56.9a.367.367 0 0 1-.16-.103.129.129 0 0 1-.026-.134c.007-.026.02-.058.032-.09l-.256-.09-.25.744.256.09c.007-.026.02-.051.026-.083.013-.045.051-.077.11-.09.044-.02.108-.02.185.006l2.007.7c.404.14.7.32.885.544.18.212.238.424.167.629-.057.18-.205.295-.442.353-.231.057-.59.006-1.071-.154Zm-2.898 3.214c.404.346.93.583 1.571.705.558.11 1.052.09 1.5-.058.437-.154.687-.404.758-.75a.5.5 0 0 0-.058-.365 1.29 1.29 0 0 0-.302-.334l.5-.045.052-.27-1.469-.281a.518.518 0 0 1-.224-.097c-.045-.038-.045-.147-.013-.34l-.263-.05-.237 1.25.263.051c.032-.154.07-.244.128-.27a.507.507 0 0 1 .244-.006l.32.064c.167.032.321.09.456.167.109.058.199.135.27.225a.346.346 0 0 1 .063.256c-.019.116-.109.218-.27.302-.134.064-.339.102-.628.128a4.561 4.561 0 0 1-.987-.103 5.697 5.697 0 0 1-.962-.263c-.295-.134-.507-.27-.648-.404-.141-.134-.199-.27-.173-.397a.603.603 0 0 1 .224-.372c.16-.11.462-.174.898-.193l.052-.27-1.302.02-.052.27.206.038a.62.62 0 0 0-.302.449c-.058.353.064.667.385.943Zm2.533-7.87 1.809.462-.385.738-1.424-1.2Zm3.373.315-3.7-.95-.25.482 2.911 2.45a.393.393 0 0 1 .122.192c.013.051 0 .109-.032.173l.238.128.34-.647-.238-.129c-.038.077-.083.116-.14.122a.405.405 0 0 1-.161-.07l-.821-.686.442-.847 1.046.263c.07.02.122.058.154.102.025.033.025.078 0 .122l.237.129.417-.802-.238-.128a.204.204 0 0 1-.153.115.797.797 0 0 1-.173-.02Zm5.22-11.57.155.225c.019-.013.051-.038.096-.064.064-.045.122-.058.16-.045.045.02.084.045.116.096l1.898 2.739a.19.19 0 0 1 .038.134c-.006.039-.044.084-.109.129-.025.019-.057.038-.083.057l.16.231.937-.667-.16-.23c-.04.025-.071.05-.097.07-.064.045-.115.064-.154.051-.032-.006-.07-.038-.102-.09l-1.899-2.738a.467.467 0 0 1-.057-.141c0-.045.025-.09.083-.128.032-.02.064-.045.109-.077l-.154-.225-.936.674ZM58.312 86.408l1.982-4.36-.365-.078a3.055 3.055 0 0 1-1.405.25l-.141.315.449.09c.115.025.192.064.237.115.051.058.045.147-.006.263l-1.475 3.251a.286.286 0 0 1-.244.18c-.109.006-.314-.02-.622-.084l-.141.315 2.238.461.141-.314c-.314-.064-.513-.122-.59-.173-.09-.045-.102-.122-.058-.23Zm15.86-6.015c.045-.16.16-.289.353-.385.128-.064.289-.058.481.02.192.076.353.223.487.435.122.186.193.385.212.59 0 .11-.032.244-.109.41-.378 0-.66-.031-.847-.09a.776.776 0 0 1-.416-.326c-.154-.231-.206-.45-.16-.654Zm2.655 1.847c.193.077.353.205.475.384a.71.71 0 0 1 .083.648.755.755 0 0 1-.39.468.862.862 0 0 1-.642.064 1.012 1.012 0 0 1-.558-.423c-.122-.186-.186-.417-.205-.692 0-.154.044-.34.14-.54.488-.031.854 0 1.097.09Zm1.04.102a1.744 1.744 0 0 0-.783-.686 2.865 2.865 0 0 0-.969-.199c.167-.282.25-.52.25-.718 0-.231-.057-.443-.173-.629-.166-.256-.423-.43-.776-.525-.333-.09-.699-.039-1.077.154-.32.16-.545.39-.667.686a.98.98 0 0 0 .077.904c.205.32.443.545.712.66.18.084.423.135.737.154-.198.36-.301.648-.314.866-.02.257.045.494.186.719.154.243.423.404.808.48.436.071.86.007 1.276-.205.334-.166.578-.423.731-.757.167-.327.16-.634-.019-.904Zm-12.744 2.251c-.115.148-.244.27-.372.372-.205.154-.372.231-.506.237-.193.007-.347-.115-.469-.365-.102-.237-.134-.558-.109-.95.032-.403.142-.724.321-.961.154-.193.314-.289.468-.295.225-.013.391.115.513.372.148.359.2.891.154 1.59Zm.77.122c.07-.827-.02-1.456-.282-1.873-.238-.384-.616-.564-1.136-.545-.34.02-.66.148-.955.392-.385.352-.603.763-.654 1.23-.045.52.032.918.23 1.187.25.302.559.443.943.43.321-.013.623-.135.898-.353.039-.032.09-.07.135-.115-.051.564-.135.968-.25 1.206a2.113 2.113 0 0 1-.372.615c-.116.141-.237.218-.353.225-.141.006-.23-.013-.276-.065-.032-.044-.05-.115-.038-.218.013-.115-.013-.198-.077-.256-.051-.058-.141-.083-.276-.083a.552.552 0 0 0-.295.109.424.424 0 0 0-.14.269c-.014.154.057.288.204.404.16.128.41.186.75.173.328-.013.636-.154.93-.404.25-.205.469-.494.648-.872.193-.366.314-.853.366-1.456Zm6.099 1.302.013-1.283-.392.103c-.012.34-.064.57-.16.68a.746.746 0 0 1-.36.205l-1.327.346c.032-.301.148-.59.34-.872.417-.635.731-1.122.962-1.468.295-.469.392-.924.295-1.36a1.147 1.147 0 0 0-.622-.782c-.308-.16-.712-.174-1.206-.045-.397.102-.698.32-.917.647-.18.289-.237.571-.173.847a.533.533 0 0 0 .238.333.548.548 0 0 0 .365.013.619.619 0 0 0 .282-.186.355.355 0 0 0 .077-.295.385.385 0 0 0-.173-.237.43.43 0 0 1-.141-.225c-.013-.05.006-.134.064-.243.09-.167.237-.276.456-.334a.71.71 0 0 1 .513.058c.23.128.384.346.461.66.116.488.052.943-.211 1.373-.231.385-.475.789-.744 1.218-.289.494-.372 1-.25 1.527l2.61-.68Z" fill="#E61C3D"/></svg>