<svg width="128" height="137" fill="none" xmlns="http://www.w3.org/2000/svg"><g filter="url(#a)" fill="#89030A"><path d="M107.898 63.986c.453 23.7-19.65 44.765-45.393 43.993-22.573-.678-43.063-19.552-42.493-45.198.511-23.034 19.742-42.893 44.284-42.78 23.878.112 43.981 19.963 43.602 43.985ZM63.974 106.53c23.74-.38 41.997-18.646 42.462-41.552.5-24.642-18.746-43.047-41.567-43.442-24.429-.427-43.326 18.75-43.346 42.384-.019 23.747 18.689 42.226 42.451 42.61Z"/><path d="m30.862 79.779 1.946-2.49.546 1.098-1.298 1.516 1.996-.113.539 1.082-3.179.02-2.02 2.62-.546-1.101 1.364-1.624-2.124.096-.527-1.054 3.303-.05ZM35.15 81.694l.584.914-4.915 3.136-.585-.915 4.915-3.135ZM36.502 83.802l.702.869-2.221 3.744 3.155-2.585.644.794-4.536 3.66-.698-.865 2.221-3.752-3.159 2.59-.643-.795 4.535-3.66ZM37.576 91.055l-.473.5c-.213.225-.225.419-.039.593.248.233.419.085.772-.287l3.02-3.198.77.729-2.814 2.981c-.372.395-.643.682-.887.783-.477.19-.942.058-1.438-.407-.656-.616-.675-1.275-.04-1.946l.412-.434.717.686ZM42.62 90.222l.852.67-3.61 4.578-.852-.67 3.61-4.578ZM45.313 92.206l1.233.78-1.993 5.636-.988-.624.539-1.392-1.055-.667-1.02 1.09-.937-.594 4.221-4.229Zm-.872 3.574.911-2.314-1.69 1.822.779.492ZM48.802 94.269l1.023.445-.232 4.346 1.597-3.753.938.407-2.326 5.346-1.016-.442.23-4.357-1.602 3.76-.938-.407 2.326-5.346ZM55.182 102.002c-.36.492-.767.612-1.41.446-1.3-.334-1.357-1.388-.8-3.543.264-1.028.536-1.702.9-2.028.419-.38.95-.46 1.655-.279 1.21.31 1.629 1.012 1.318 2.222l-.038.143-.985-.252.015-.058c.175-.675.008-1.086-.488-1.214-.787-.201-.969.47-1.364 2.008-.36 1.404-.404 2.036.224 2.194.578.148.873-.182 1.097-1.054l.05-.194-.728-.186.233-.9 1.74.45-.794 3.078-.714-.182.09-.651ZM62.028 97.75l-.14 3.926c-.026.807.094 1.159.71 1.183.613.023.748-.33.775-1.144l.136-3.911 1.07.038-.14 4.02c-.019.559-.05.977-.333 1.322-.326.392-.841.582-1.554.558-1.388-.05-1.803-.628-1.752-2.008l.139-4.02 1.09.035ZM66.28 97.765l1.11-.136 2.004 3.865-.528-4.043 1.016-.124.705 5.787-1.1.136-2.012-3.868.527 4.05-1.016.124-.705-5.791ZM71.273 97.005l1.055-.252 1.349 5.671-1.055.252-1.349-5.67ZM73.293 96.552l1.097-.388 2.365 4.097-.81-4.647 1.081-.38.783 5.904-1.345.472-3.17-5.058ZM78.193 94.691l2.66-1.376.445.86-1.702.88.62 1.198 1.582-.818.422.818-1.581.818.736 1.427 1.74-.9.455.877-2.698 1.395-2.68-5.179ZM82.112 92.56l1.585-1.129c.954-.678 1.61-.6 2.237.283.442.62.461 1.147.074 1.52.771-.291 1.004.058 1.457.655l.473.612c.233.302.442.485.744.535l-1.05.748c-.206-.159-.392-.387-.609-.682l-.368-.488-.09-.128c-.441-.62-.77-.535-1.402-.086l-.303.217 1.485 2.086-.853.608-3.38-4.752Zm2.795 1.038c.511-.364.558-.663.178-1.194-.36-.504-.674-.48-1.213-.097l-.434.31.957 1.345.512-.364ZM89.543 91.528l.26.267c.434.454.717.601 1.074.256.333-.322.34-.663.03-.984-.29-.303-.58-.291-1.124-.21l-.674.101c-.895.144-1.368.178-1.938-.415-.679-.701-.64-1.558.093-2.264.775-.748 1.624-.724 2.395.074.047.05.097.1.14.155l-.744.713-.109-.112c-.43-.446-.748-.508-1.093-.174-.252.24-.252.542 0 .806.26.267.566.21 1.062.12l.71-.124c.907-.163 1.414-.105 2.007.508.733.76.706 1.624-.112 2.41-.841.811-1.663.776-2.523-.12a5.88 5.88 0 0 1-.233-.263l.78-.744ZM89.466 86.178l.697-.83 4.458 3.753-.698.83-4.457-3.752ZM92.253 84.194l-.71 1.027-.79-.547 2.038-2.946.791.547-.71 1.027 4.005 2.772-.616.891-4.008-2.771ZM96.862 81.267l-3.687-.155.543-1.074 2.357.206-1.566-1.768.53-1.043 2.315 2.861 2.206 1.12-.496.977-2.202-1.124ZM33.28 65.211c-.015-9.61 2.877-16.796 8.719-22.739 6.423-6.532 14.276-9.389 23.417-9.137 15.068.411 29.72 13.525 29.201 31.71-.446 15.579-13.637 30.142-31.79 29.619-15.832-.454-29.895-13.916-29.546-29.453Zm19.828-17.428c-1.666-.55-3.325-.772-5.043-.516-1.88.28-3.554.996-4.911 2.322-1.892 1.85-2.628 4.148-2.439 6.776.12 1.66.62 3.171 1.49 4.578.732 1.19 1.654 2.198 2.829 2.997-5.125 2.794-5.993 8.54-3.946 12.4 1.907 3.594 6.803 6.218 12.028 3.853.915 5.454 4.97 8.815 9.652 9.354 2.408.275 4.718-.225 6.796-1.52 2.903-1.814 4.605-4.453 5.16-7.83 4.849 1.652 9.485-.353 11.5-3.74 1.055-1.78 1.365-3.71 1.02-5.734-.484-2.837-1.95-5.07-4.334-6.714 5.199-2.79 5.807-8.737 4.024-12.152-.895-1.717-2.167-3.07-3.88-3.966-2.722-1.422-5.5-1.41-8.292-.163-.872-5.516-5.601-9.667-11.338-9.415-4.966.217-9.49 3.923-10.316 9.47Z"/><path d="M57.946 81.135v-.511h.058c.616 0 .9-.167.954-.644h.585v3.66h-.721v-2.505h-.876ZM61.958 82.461c-.717 0-1.19-.465-1.19-1.194 0-.771.511-1.287 1.283-1.287.891 0 1.364.624 1.364 1.806 0 1.276-.52 1.962-1.446 1.962-.647 0-1.066-.36-1.104-.938h.736c.031.236.182.349.454.349.368 0 .558-.318.585-.958-.159.17-.388.26-.682.26Zm.097-1.888c-.334 0-.54.24-.54.67 0 .4.21.629.567.629.349 0 .558-.229.558-.617 0-.426-.233-.682-.585-.682ZM64.784 82.116c.535-.357.922-.52.922-1 0-.318-.205-.523-.542-.523-.36 0-.578.228-.578.662v.031h-.674c0-.84.473-1.31 1.298-1.31.764 0 1.24.454 1.24 1.124 0 .578-.302.869-.856 1.245-.438.298-.76.45-.837.662h1.659v.625H63.85c.007-.71.306-1.094.934-1.516ZM68.49 82.849h-1.543v-.644l1.349-2.12h.907v2.182h.422v.582h-.422v.79h-.713v-.79Zm.015-2.132-.996 1.566h.996v-1.566ZM68.08 74.522c-.803 0-1.574.02-2.346-.02-.108-.003-.282-.282-.286-.433-.024-1.113-.012-2.23-.012-3.38H62.73v3.833c-.856 0-1.659.008-2.461-.012-.082-.003-.221-.186-.221-.29-.016-1.004-.012-2.012-.012-3.063.19-.015.353-.004.496-.054.105-.035.183-.151.272-.229-.082-.073-.16-.209-.245-.209-.81-.015-1.62-.02-2.43.004-.112.004-.22.186-.45.388l1.008.096c0 1.043.008 2.067-.011 3.086-.004.097-.19.275-.291.275-2.605.016-5.214.012-7.85.012v-5.322h26.941v1.12c0 1.244-.004 2.485.004 3.73 0 .278-.012.484-.392.48-2.45-.012-4.9-.008-7.35-.012-.05 0-.1-.027-.177-.046v-3.35c.147-.007.282.016.391-.027.12-.046.221-.15.33-.232-.12-.074-.237-.206-.357-.21a32.988 32.988 0 0 0-2.05 0c-.148.004-.288.151-.431.233.136.074.267.151.407.213.058.027.136.023.229.035v3.384ZM76.08 64.521v4.245H51.85c-.012-.136-.032-.291-.032-.446-.004-.954-.008-1.911 0-2.865.008-1.043-.147-.93.962-.934 1.26-.004 2.523 0 3.783 0H76.08ZM58.621 57.916h3.943c1.45 0 1.45 0 1.45-1.477 0-.737 0-1.477.003-2.214 0-.035.012-.07.031-.159.132-.015.28-.03.477-.05v3.873h4.857v3.244h3.985v3.144h-18.85c0-.958-.016-1.884.019-2.815.003-.104.286-.286.445-.29a60.343 60.343 0 0 1 3.133-.004c.41.011.527-.128.511-.527-.02-.876-.004-1.76-.004-2.725ZM43.197 70.002c-.074-.918-.074-.922.74-.922H49.8v5.302h-6.606V70.58h2.93c.144-.446-.003-.59-.414-.582-.822.016-1.648.004-2.512.004ZM84.675 69.994h-2.598c-.011.225-.023.415-.034.698.72 0 1.414.024 2.104-.008.43-.019.605.09.59.563-.035 1.038-.012 2.077-.012 3.147H78.22V69.08h5.788c.783.004.783.004.667.914ZM65.355 43.538c.41.62.775 1.155 1.124 1.698.228.36.442.729.655 1.1.174.303.36.315.577.047.179-.22.36-.442.574-.71 1.334 2.474 2.644 4.897 3.954 7.323-1.47-1.426-2.903-2.903-3.95-4.74-.202.093-.341.15-.48.22-.439.221-.687.074-.947-.34-.38-.598-.864-1.12-1.36-1.749-.21.295-.458.55-.601.857-.616 1.302-1.531 2.392-2.461 3.473-.136.159-.326.275-.481.419-.233.21-.396.116-.593-.078-.322-.322-.713-.581-1.016-.919-.384-.43-.605-.135-.853.125-.546.573-1.035 1.213-1.64 1.717-.616.515-1.321.942-2.03 1.325-.322.175-.753.14-1.136.202l-.074-.143c.19-.16.368-.33.57-.47 1.337-.945 2.667-1.903 3.725-3.178.314-.38.675-.725.973-1.116.256-.334.5-.353.806-.097.194.159.419.287.582.473.356.403.655.283.988-.035.892-.857 1.524-1.88 2.008-3.008.326-.776.69-1.535 1.086-2.396ZM98.474 60.583c.082.224.202.395.179.538-.062.396-.078.865-.307 1.152-.267.333-.724-.035-.752-.601l-.066-1.23c-.55.07-.96.117-1.368.175-.705.097-1.186-.515-.919-1.21.342-.887.698-1.767 1.066-2.639.066-.155.19-.333.334-.4.302-.139.407.043.504.342.33 1.008.698 2 1.07 2.992.058.156.197.276.414.567.109-.415.16-.675.252-.915.05-.128.179-.225.268-.338.093.109.213.206.267.33.314.717.601 1.442.919 2.155.074.163.217.299.33.442l.17-.058c-.035-.206-.027-.426-.112-.609-.291-.628-.655-1.229-.919-1.868-.314-.752-.837-1.272-1.555-1.609-.406-.19-.682-.403-.45-.895.009-.016.005-.035.005-.055.015-.348-.19-.93.306-.918.395.008.814.426 1.159.732.256.225.407.57.597.853.779-.36 1.489-.69 2.202-1.023l.093.046c-.275.396-.547.795-.853 1.24.357.493.814.152 1.237.047.449-.112.899-.248 1.434-.395-.14.275-.268.543-.411.802-.031.059-.112.093-.155.148-.566.752-.713.883.341 1.267 1.217.446 1.221.442 1.527.934-.414.218-.856.644-1.221.586-.395-.062-.717-.578-1.085-.911-.198.616-.004 1.031.659 1.407.271.155.496.302.411.659-.043.178-.086.484-.167.496-.209.035-.539.012-.64-.124-.348-.469-.845-.539-1.341-.659-.368-.089-.577-.011-.539.4.031.337-.085.639-.414.604-.194-.02-.4-.322-.528-.539-.414-.705-.678-1.53-1.55-1.845-.105-.03-.206-.035-.392-.073Zm-1.915-2.737c-.162.236-.252.31-.275.399-.093.403-.182.81-.248 1.221-.023.151-.004.438.043.45.314.07.647.132.957.081.12-.02.314-.372.272-.5-.187-.523-.454-1.016-.749-1.651Zm1.935-.799 2.186 3c-.093-1.441-1.43-3.21-2.186-3Zm4.636 4.78c-.357-.64-.791-1.035-1.465-1.074-.109-.008-.264.085-.314.175-.031.058.062.263.143.298.508.205 1.035.384 1.636.6Zm-2.923-3.745c.302.229.605.458.907.682-.097-.868-.229-.973-.907-.682ZM91.698 38.584c-.318.108-.65.186-.946.333-.372.186-.686-.03-.744-.496.71-.729 1.434-.357 2.163.062.016-.062.027-.128.043-.19-.167-.178-.38-.333-.489-.539-.081-.155-.03-.38-.042-.577.166.011.41-.039.48.05.76.927 1.807 1.43 2.807 2.008.174.1.28.36.36.566.016.039-.24.271-.333.252a1.576 1.576 0 0 1-.647-.314c-.353-.29-.655-.64-1.008-.926-.085-.07-.283 0-.427.003.055.136.078.303.171.4.128.135.314.225.492.349-.414.705-.961.736-1.647.325.011.233.015.357.027.555-.233-.043-.446-.082-.702-.132.047.228.093.45.14.67-.012.059-.02.113-.031.17-1-.906-1.562-.03-2.31.427.213.086.399.128.534.233.11.085.16.248.233.38-.14.054-.298.182-.415.151-.252-.074-.538-.17-.705-.357-.52-.573-1.217-.775-1.9-1.038-.213-.086-.372-.38-.48-.613-.031-.066.213-.36.337-.368.198-.012.415.116.605.22.217.117.399.303.624.4.147.062.376.081.508.012.407-.221.783-.497 1.174-.748-.182-.268-.562-.276-.969.011-.244.17-.527.283-.79.419-.35-.744.2-1.035.616-1.54-.264.07-.392.086-.504.14-.45.21-.892.43-1.334.652-.325.162-.515.085-.624-.283-.109-.36-.279-.706-.446-1.113.605-.217.609-.903.83-1.508.213.151.384.322.59.403.189.074.441.124.623.062.632-.217.624-.24.66.442.003.05.019.101.038.186.318.02.504-.062.368-.418-.143-.373.035-.458.353-.423.345.039.616.02.72-.418.032-.14.323-.295.501-.307.372-.023.748.058 1.124.062.163.004.326-.073.442-.104-.1-.376-.225-.69-.252-1.008-.012-.117.194-.256.302-.384.101.1.206.194.299.302.442.524.876 1.05 1.38 1.652-.058.314-.376.395-.729.325-.469-.093-.926-.244-1.388-.372-.414-.116-.821-.29-1.066.302-.054.136-.36.171-.554.245-.178.066-.36.12-.578.194.194.275.361.515.57.81l-1.244.732c.609.466.927.458 1.458.004.29.423.608.566 1.054.155.174-.159.48-.174.729-.256-.016-.08-.035-.159-.05-.232Zm-5.458.229c.341.465.834.333 1.233-.299l-1.233.299ZM96.761 48.337c.357.194.702.415 1.074.57.21.089.562-.062.539.337-.012.202-.074.473-.214.581-.26.194-.573.26-.876-.023-.465-.434-.957-.837-1.48-1.294-.915 1.205-.826 2.662-1.04 4.19-.457-.803-1.07-1.438-.972-2.291.097-.86 1.015-1.19 1.589-1.946-.36-.085-.632-.19-.907-.206-1.368-.08-2.237-.996-2.322-2.197.333.294.624.593.954.83.33.24.697.422 1.05.631l.109-.155c-.202-.275-.547-.543-.563-.83-.019-.294.284-.604.439-.899.387.485.724.938 1.093 1.357.318.364.744.465 1.22.372.695-.136 1.396-.229 2.079-.407.31-.081.604-.287.856-.496.252-.21.442-.496.671-.76.496.372.496.934.322 1.357-.101.244-.628.364-.985.446-.849.193-1.71.333-2.566.492-.027.116-.05.228-.07.34ZM72.165 30.42c.504.206.961.384 1.415.578.6.256 1.205.217 1.833.12.337-.05.698.074 1.043.062.201-.004.395-.12.593-.186-.058-.17-.124-.341-.178-.516-.05-.17-.09-.345-.027-.573.228.178.453.356.744.585l.349-1.093c-.194-.062-.403-.1-.582-.198-.31-.17-.566-.41-.376-.806.147-.31.38-.457.655-.124.57.69 1.388.814 2.19.988.439.097.869.229 1.346.357-.28.508-.594.574-1.016.372a2.088 2.088 0 0 0-.663-.201c-.353-.04-.771-.109-.903.345-.136.469.132.732.713.86-.12-.283-.21-.492-.302-.705.302-.19 1.4.027 1.539.364.038.09-.093.357-.182.38-.272.066-.566.05-.907.07-.063.33-.396.267-.725.294-.179.016-.345.167-.516.256.112.178.182.426.341.52.326.19.47.364.24.72-.061.094-.061.23-.108.411.775.148 1.52.28 2.256.442.147.035.267.198.403.299-.105.12-.201.325-.322.345a1.471 1.471 0 0 1-.732-.078c-.504-.201-.648.035-.752.477-.074.314-.198.647-.396.892-.12.15-.546.271-.62.194-.163-.167-.318-.516-.248-.706.105-.283.411-.489.616-.74.12-.148.218-.318.326-.477-.198-.02-.407-.097-.59-.047-.305.082-.58.295-.887.357-.543.112-.965.147-1.109-.613-.015-.073-.1-.135-.159-.209-.445.085-.476.888-1.131.605-.62-.271-.062-.837-.31-1.097.228-.062.472-.128.72-.198-.011-.07-.023-.14-.038-.21-.47-.116-.923-.135-1.403.105-.61.303-1.012.093-1.136-.566.271 0 .538-.034.794.008.66.105 1.334-.31 1.985.055.039.023.198-.066.206-.12.015-.082-.028-.233-.09-.256-.193-.082-.403-.171-.604-.163-.752.02-1.5.066-2.252.112-.753.05-1.105-.19-1.043-1.29Zm5.144 2.838.26.023.631-.946c-.48-.407-.837-.116-1.058.151-.1.128.105.508.167.772Zm4.144-3.842c.306.124.783.031 1.089-.135.174-.097.302-.586.213-.803-.24-.589-.605-1.132-.922-1.69-.008-.015-.066 0-.152 0-.399.609-.236 1.78-1.511 1.725.422.31.81.71 1.283.903Zm-.497 3.264c.28-.02.574.074.853.148.167.042.318.201.48.205.152.004.323-.1.447-.206.042-.034.007-.27-.055-.306-.283-.17-.577-.364-.895-.442-.744-.182-1.5-.306-2.272-.457.031.547.776 1.109 1.442 1.058ZM53.097 31.545c-.612.697-1.372.837-2.4.434-.488.984-1.38 1.318-2.445 1.03-.458.396-.81.741-1.206 1.032-.298.217-.655.36-.985.543-.79.442-1.22.391-1.872-.264-.453 1.136-1.05 2.16-1.98 2.954-.276.233-.536.48-.823.698-.763.581-1.589.41-2.252-.4-.744-.907-1.527-1.779-2.372-2.764l.205-1.19c.334.365.613.648.869.954.457.55.88 1.132 1.356 1.663.245.271.57.477.884.675.09.058.318.034.396-.043.895-.872 1.779-1.76 2.659-2.644.03-.03.023-.097.035-.151-1.101-.078-1.721.376-2.225 1.725-.086-.554-.237-.985-.198-1.4.07-.724.659-1.019 1.28-1.213 1.042-.325 2.092-.628 3.155-.946.252.609-.078 1.07-.764 1.384l.147.136c.714-.415 1.473-.768 2.12-1.268.253-.193.257-.713.38-1.112.435.17.904.702 1.617.41.806-.329.98-.526.992-1.368.485.16.973.423 1.481.462.62.042.927-.43 1.008-.923.353.12.706.299 1.066.326.09.008.213-.473.337-.764.097.078.229.182.357.295.298.26.628.22.946.073.287-.131.318-.352.046-.527-.236-.151-.511-.244-.787-.368.144-.337.291-.675.434-1.016 1.183.54 1.64 2.156 1.07 3.098-.321.53-.81.275-1.24.131-.333.55-.48.59-1.29.338ZM30.28 55.819c.186.527.163.973-.294 1.333-.09.07-.12.24-.132.368-.02.214.07.473-.02.64-.36.675.02 1.031.505 1.38.159.116.275.287.426.41.76.613.988 1.354.608 2.28-.116.283-.15.597-.248 1.004-.554-1.31-.558-2.729-1.624-3.83-.128.411-.21.725-.322 1.031-.248.675-.566.814-1.232.54-.609-.249-1.055-.656-1.252-1.303-.225-.737.166-1.337.922-1.43.299-.04.803-.047.845-.183.124-.399.078-.856.07-1.29-.004-.132-.097-.264-.1-.272.302-.236.716-.4.782-.651.074-.283-.17-.647-.29-1.023.496.003.942-.132.98-.74.012-.19-.042-.389-.066-.582-.178.046-.36.081-.535.14-.077.026-.135.1-.236.178-.062-.233-.128-.411-.163-.598-.058-.313-.1-.631-.147-.941.78-.19 1.465.174 1.795 1 .566 1.38.554 2.089-.272 2.539Zm-2.093 3.47c-.05-.051-.097-.102-.147-.152-.148.085-.396.143-.427.26-.066.244-.015.52-.011.783.077.004.155.011.229.015.12-.302.236-.605.356-.907ZM35.583 37.177v.98c-.286-.03-.527-.053-.794-.08-.016-.427-.198-.85.306-1.156.112-.07.066-.4.093-.605.035-.263.066-.53.108-.849.497.152.966.295 1.508.458l-.414.248c.004.05-.008.093.007.109.663.709 1.322 1.418 1.993 2.116.422.442.752.919.647 1.566-.046.275-.104.578-.256.795-.62.876-1.279 1.72-1.969 2.64-.228-.45-.457-.857-.632-1.283-.042-.109.047-.31.132-.427a66.992 66.992 0 0 1 1.613-2.14c.182-.228.228-.387 0-.585-.725-.628-1.45-1.26-2.175-1.888-.058.035-.112.07-.167.101ZM33.184 46.453c-1.14-.12-1.67.632-2.322 1.26-.155-.434-.306-.83-.43-1.236a.472.472 0 0 1 .058-.353c.473-.71 2.035-.904 2.651-.314.783.752.981 1.663.644 2.69-.066.202-.147.4-.229.597-.504 1.206-1.302 1.302-2.167.244 1.295-.504 1.272-1.799 1.795-2.888ZM32.28 52.47c-1.054-.772-2.062-1.667-3.213-2.303-.992-.55-1.295-1.245-1.136-2.272.012-.081.012-.166.027-.407 1.47 1.772 3.737 2.644 4.323 4.981ZM25.291 56.222c.295.74.555 1.434.85 2.116.124.291.034.407-.225.524-.582.263-1.152.55-1.73.83-.371-.625-.352-.722.218-1.075.736-.457.736-.457.504-1.34-.202-.757-.202-.757.383-1.055Z"/><path d="M35.812 41.453c-.725-.512.237-.927-.03-1.376-.687-.062-.912-.55-.528-1.206.198-.337.473-.624.713-.938.248.275.248.275-.159 1.093.027.02.05.058.078.058.232.004.643-.054.666.012.097.318.21.717.097.996-.193.489-.55.911-.837 1.36ZM27.974 52.597c.09.353.206.675.233 1 .011.124-.16.353-.287.388-.442.116-.617.275-.462.783.24.795.202.81-.724 1.179-.101-.353-.245-.702-.276-1.059-.011-.128.233-.345.404-.403.395-.136.484-.376.403-.744-.186-.814-.186-.814.71-1.144ZM34.843 39.27h-.91c.03-.349.123-.713.08-1.058-.038-.318-.22-.616-.375-1.012h.856v.907c.128.415.225.745.35 1.163ZM44.608 36.285c1.066.094 1.147.202.996 1.33-1.016.066-1.268-.26-.996-1.33Z"/><path d="M26.164 54.532c-.066-.392-.194-.729-.155-1.047.027-.225.24-.523.442-.6.314-.12.43.139.488.453.174.887.275.663-.775 1.194ZM50.818 28.374l.415-.845c.352.131.682.256 1.046.395l-.36.903c-.369-.15-.706-.29-1.101-.453ZM52.314 27.912c.147-.302.26-.542.4-.833.34.147.654.283 1.007.434-.124.314-.232.597-.353.907-.372-.178-.686-.33-1.054-.508ZM46.356 30.455l-1.07-.294c.093-.314.178-.593.267-.904.373.101.694.19 1.074.295-.093.31-.178.597-.271.903ZM52.543 26.85c-.124.272-.229.508-.357.795-.21-.07-.407-.12-.597-.202-.213-.089-.554-.143-.38-.488.128-.252.322-.531.702-.372.205.081.41.174.632.267Z"/></g><defs><filter id="a" x="-13" y="0" width="154" height="157" filterUnits="userSpaceOnUse" color-interpolation-filters="sRGB"><feFlood flood-opacity="0" result="BackgroundImageFix"/><feColorMatrix in="SourceAlpha" values="0 0 0 0 0 0 0 0 0 0 0 0 0 0 0 0 0 0 127 0" result="hardAlpha"/><feOffset dy="16"/><feGaussianBlur stdDeviation="6.5"/><feColorMatrix values="0 0 0 0 0 0 0 0 0 0 0 0 0 0 0 0 0 0 0.03 0"/><feBlend in2="BackgroundImageFix" result="effect1_dropShadow_49_5357"/><feBlend in="SourceGraphic" in2="effect1_dropShadow_49_5357" result="shape"/></filter></defs></svg>