<svg width="128" height="137" fill="none" xmlns="http://www.w3.org/2000/svg"><g filter="url(#a)" fill-rule="evenodd" clip-rule="evenodd" fill="#004B81"><path d="M64 21.407c-23.486 0-42.593 19.107-42.593 42.593 0 23.486 19.107 42.594 42.593 42.594 23.486 0 42.593-19.108 42.593-42.594S87.486 21.407 64 21.407ZM64 108c-11.752 0-22.802-4.576-31.112-12.887C24.577 86.803 20 75.753 20 64c0-11.752 4.577-22.802 12.888-31.112C41.198 24.577 52.248 20 64 20c11.753 0 22.803 4.577 31.113 12.888C103.424 41.198 108 52.248 108 64c0 11.753-4.576 22.803-12.887 31.113C86.803 103.424 75.753 108 64 108Z"/><path d="M64 35.422c-15.758 0-28.578 12.82-28.578 28.578 0 15.76 12.82 28.579 28.578 28.579S92.58 79.759 92.58 64c0-15.758-12.82-28.578-28.579-28.578Zm0 58.564c-16.534 0-29.985-13.452-29.985-29.986S47.465 34.015 64 34.015c16.534 0 29.986 13.45 29.986 29.985 0 16.534-13.452 29.986-29.986 29.986Z"/><path d="M69.507 74.619h1.21v-1.326h-1.21v1.326Zm-12.224 0h1.21v-1.326h-1.21v1.326Zm0-26.61H55.47v23.367h-5.197v1.917h5.197v1.326h-8.218v1.916h8.218v1.377H44.23v1.917h13.053v-3.294h3.022v-3.242h3.022v-31.82h-1.814v29.903h-1.208v-26.66h-1.812v26.66h-1.21V48.009Zm13.433 0h1.813v23.367h5.197v1.917H72.53v1.326h8.22v1.916h-8.22v1.377h11.242v1.917H70.715v-3.294h-3.021v-3.242h-3.02v-31.82h1.812v29.903h1.208v-26.66h1.813v26.66h1.209V48.009ZM28.44 66.28l-.046-2.52-1.205.022.04 2.17-.659.012-.038-2.17-2.016.036-.013-.745 4.558-.081.058 3.264-.68.013ZM29.471 69.5l.093.74-2.61.326c-1.358.213-2.088-.336-2.194-1.647-.199-1.243.378-1.933 1.73-2.072l2.61-.325.092.739-2.61.326c-.915.1-1.312.517-1.19 1.252.07.8.56 1.13 1.47.987l2.61-.326ZM30.072 72.314l.165.726-3.054.7c-1.001.275-1.588-.063-1.76-1.013-.197-.794.137-1.328 1.004-1.602l.268.68c-.535.153-.744.419-.627.797.08.416.39.554.928.417l3.076-.706ZM26.25 75.597l-.21-.71 4.348-1.291.211.71-4.349 1.291ZM28.509 76.848l.543 1.411 1.272-1.147c.152-.137.275-.222.37-.259l-.007-.02c-.128.034-.28.044-.456.034l-1.722-.02Zm-.842 2.695.865-.802-.73-1.903-1.189-.036-.283-.736 4.939.143.26.676-3.57 3.415-.292-.757ZM30.417 83.05l.02-.01a8.34 8.34 0 0 1 .696-.418l2.481-1.308.338.64-4.012 2.116-.349-.66a374.999 374.999 0 0 1 1.62-3.034c.17-.272.339-.517.505-.736l-.01-.02a5.65 5.65 0 0 1-.764.478l-2.423 1.278-.338-.639 4.012-2.118.358.68a151.778 151.778 0 0 1-1.621 2.985 4.694 4.694 0 0 1-.513.766ZM37.322 86.608l.464.584-2.06 1.634c-1.048.89-1.958.8-2.73-.266-.817-.957-.683-1.846.4-2.668l2.059-1.635.463.583-2.06 1.636c-.73.56-.85 1.124-.364 1.689.476.647 1.066.673 1.769.078l2.06-1.635ZM37.706 92.272l.015-.015c.185-.228.365-.43.54-.608l1.974-1.991.514.508-3.193 3.223-.53-.524a383.3 383.3 0 0 1 .636-3.381c.08-.311.167-.595.259-.854l-.015-.015c-.154.217-.349.445-.586.684l-1.928 1.946-.514-.508 3.193-3.223.544.539c-.281 1.51-.498 2.62-.65 3.335-.05.28-.137.574-.26.884ZM38.871 94.467l-.57-.481 2.923-3.468.57.482-2.923 3.467ZM41.895 91.168l.641.46-.886 3.57c-.05.145-.104.26-.164.34l.018.014c.096-.11.197-.2.3-.27l3.047-1.995.66.472-4.174 2.59-.552-.395 1.11-4.786Z"/><path d="m44.262 97.494 2.449 1.368-.31.554-3.1-1.73 2.224-3.98 3.003 1.678-.33.593-2.355-1.314-.587 1.052 2.22 1.24-.322.574-2.218-1.24-.674 1.205ZM49.305 96.476l-.487 1.173 1.153.48c.607.252.99.167 1.151-.257.132-.356-.089-.662-.663-.916l-1.154-.48Zm1.708 4.911-.931-.387-.675-2.37-.85-.354-.742 1.781-.687-.286 1.75-4.209 1.963.816c.933.421 1.26 1.023.98 1.81-.286.687-.822.93-1.609.73l.8 2.469ZM55.753 99.225h-.798c.026-.57-.222-.922-.746-1.057-.59-.169-.949-.058-1.075.33-.137.266.135.564.816.895 1.129.566 1.578 1.204 1.345 1.912-.275.803-.964 1.061-2.068.776-1.108-.272-1.626-.905-1.553-1.903l.777-.005c-.115.666.197 1.089.936 1.27.645.185 1.031.059 1.155-.376.149-.307-.148-.649-.89-1.03-1.075-.55-1.5-1.135-1.276-1.755.267-.774.93-1.025 1.992-.752.952.287 1.413.852 1.385 1.695ZM56.425 102.778l-.73-.15.91-4.444.73.15-.91 4.444ZM61.227 99.569l-1.499-.196-.503 3.845-.74-.096.504-3.847-1.521-.199.085-.65 3.76.491-.086.652ZM66.023 99.014l-1.982 2.634-.04 1.862-.744-.015.038-1.841L61.51 98.9l.854.017 1.232 1.932c0 .016.007.03.021.045a.52.52 0 0 1 .063.133.27.27 0 0 0 .045-.065.234.234 0 0 1 .046-.065c.06-.072.496-.706 1.31-1.903l.942.02ZM71.665 102.207c.95-.235 1.333-.893 1.146-1.973-.278-1.017-.87-1.48-1.775-1.388-.902.255-1.278.911-1.126 1.969.252 1.036.837 1.5 1.755 1.392Zm-.736-4.01c1.378-.186 2.262.434 2.652 1.861.255 1.499-.337 2.413-1.775 2.746-1.418.209-2.3-.403-2.647-1.839-.225-1.49.366-2.413 1.77-2.769ZM76.671 97.359l-2.397.778.373 1.147 2.063-.67.203.625-2.064.67.623 1.917-.709.23-1.407-4.336 3.105-1.007.21.646ZM82.198 94.702l-1.34.701 1.8 3.436-.66.346-1.8-3.436-1.36.712-.304-.582 3.358-1.76.306.583ZM84.738 96.903l2.335-1.555.352.529-2.954 1.968-2.528-3.793 2.864-1.908.377.565-2.243 1.495.667 1.002 2.116-1.408.364.547-2.115 1.409.765 1.149ZM88.927 90.365l-.46.676c-.516-.292-1-.265-1.454.08-.63.59-.613 1.312.051 2.166.719.828 1.417.974 2.094.441.534-.433.626-.979.278-1.642l.746-.372c.46.951.26 1.779-.597 2.484-1.08.874-2.12.74-3.124-.401-.967-1.192-.918-2.265.147-3.223.701-.573 1.475-.643 2.32-.21ZM90.338 87.043l.523-.561 3.317 3.094-.523.561-1.475-1.376-1.51 1.618 1.475 1.376-.508.545-3.317-3.094.508-.546 1.362 1.272 1.51-1.619-1.362-1.27ZM95.884 85.824l-.018-.014a8.2 8.2 0 0 1-.68-.443l-2.264-1.658.428-.583 3.66 2.68-.44.602a346.5 346.5 0 0 1-3.439-.128 10.273 10.273 0 0 1-.882-.13l-.012.018c.237.12.492.28.763.477l2.21 1.619-.427.583-3.66-2.68.453-.618c1.535.055 2.667.105 3.395.15.283.008.587.049.913.125ZM98.066 82.93c.437-.876.184-1.594-.76-2.152-.955-.447-1.69-.296-2.207.453-.39.854-.134 1.564.77 2.133.954.48 1.686.336 2.197-.434Zm-3.531-2.037c.75-1.17 1.796-1.443 3.136-.814 1.306.776 1.62 1.82.942 3.13-.76 1.216-1.798 1.493-3.117.826-1.28-.794-1.6-1.842-.961-3.142ZM95.743 78.776l.297-.708 3.598 1.505.879-2.103.587.246-1.176 2.81-4.185-1.75ZM101.388 75.01c.232-.952-.173-1.596-1.216-1.932-1.03-.226-1.714.084-2.053.928-.193.919.214 1.556 1.221 1.911 1.036.258 1.719-.044 2.048-.908Zm-3.894-1.21c.474-1.306 1.434-1.801 2.879-1.486 1.446.47 1.982 1.419 1.609 2.847-.473 1.354-1.424 1.852-2.857 1.493-1.424-.494-1.968-1.444-1.631-2.853ZM100.584 69.79l.335-2.143 1.712.268c.469.487.633 1.193.488 2.117-.289 1.478-1.175 2.13-2.657 1.958-1.492-.292-2.155-1.158-1.99-2.596.173-1.008.72-1.618 1.64-1.828l.094.813c-.594.114-.95.494-1.066 1.142-.067.906.415 1.47 1.444 1.69 1.049.104 1.683-.314 1.905-1.256.092-.592.007-1.041-.255-1.349l-.78-.121-.22 1.408-.65-.103ZM99.03 62.951l2.606 2.02 1.862.064-.026.745-1.84-.063-2.779 1.745.03-.854 1.948-1.204c.015 0 .03-.006.045-.02a.48.48 0 0 1 .134-.062.258.258 0 0 0-.064-.046.242.242 0 0 1-.065-.046c-.071-.061-.698-.506-1.884-1.337l.034-.942ZM56.04 87.972a.363.363 0 1 1-.726-.001.363.363 0 0 1 .727 0ZM72.686 87.972a.363.363 0 1 1-.726 0 .363.363 0 0 1 .726 0ZM59.355 89.783v-3.59h-.758v-.5h1.374v4.09h-.616ZM61.529 86.762c0 .202.051.363.156.484.105.12.246.181.422.181.177 0 .319-.06.426-.182a.708.708 0 0 0 .159-.483.71.71 0 0 0-.16-.484.538.538 0 0 0-.424-.183.535.535 0 0 0-.423.18c-.105.122-.157.284-.157.487Zm-.072 1.874c0 .22.06.395.177.526a.605.605 0 0 0 .474.197.613.613 0 0 0 .476-.198c.119-.132.178-.308.178-.525 0-.22-.06-.394-.178-.525a.615.615 0 0 0-.477-.197.607.607 0 0 0-.474.196c-.117.13-.175.305-.175.526Zm.006-1a1.094 1.094 0 0 1-.376-.385 1.051 1.051 0 0 1-.122-.515c0-.326.109-.595.326-.809.218-.212.491-.32.822-.32.328 0 .601.108.818.322.217.214.325.483.325.807 0 .193-.041.364-.123.513a1.11 1.11 0 0 1-.376.387c.193.11.34.252.445.43.104.177.156.374.156.59a1.212 1.212 0 0 1-.37.876c-.113.11-.244.194-.391.252a1.31 1.31 0 0 1-.484.086c-.175 0-.336-.028-.484-.087a1.174 1.174 0 0 1-.392-.251 1.232 1.232 0 0 1-.278-.403 1.19 1.19 0 0 1-.097-.473 1.146 1.146 0 0 1 .6-1.02ZM65.816 86.927c0-.254-.063-.456-.19-.606a.628.628 0 0 0-.507-.226.626.626 0 0 0-.508.226c-.126.15-.19.352-.19.606 0 .251.065.453.192.605a.628.628 0 0 0 .506.228c.21 0 .378-.076.506-.228.128-.152.191-.354.191-.605Zm-.406 1.202a.93.93 0 0 1-.215.074 1.146 1.146 0 0 1-.244.023c-.314 0-.578-.123-.791-.37-.213-.248-.32-.56-.32-.935 0-.384.117-.7.35-.945.233-.245.533-.368.898-.368.379 0 .69.13.93.389.241.26.362.595.362 1.005 0 .206-.035.414-.105.622-.07.208-.175.413-.314.618l-1.046 1.541h-.713l1.208-1.654ZM67.45 88.549c0 .253.063.455.19.605a.63.63 0 0 0 .506.226.63.63 0 0 0 .508-.226c.127-.15.19-.352.19-.605 0-.252-.064-.453-.191-.604a.632.632 0 0 0-.507-.227.628.628 0 0 0-.505.227c-.128.151-.191.353-.191.604Zm.406-1.203a.887.887 0 0 1 .216-.073c.076-.016.158-.024.248-.024a.988.988 0 0 1 .676.27c.138.126.243.277.317.455.074.177.11.37.11.58 0 .387-.115.703-.347.95a1.166 1.166 0 0 1-.892.371c-.38 0-.69-.13-.934-.392-.243-.261-.364-.598-.364-1.01 0-.204.035-.411.104-.619.07-.207.174-.415.312-.62l1.054-1.542h.708l-1.208 1.654ZM34.027 45.678c.067.172.287.333.165.535-.122.201-.387.047-.48-.03-.127-.105-.151-.158-.515-.42-.363-.263-.348-.434-.243-.6.106-.166.398-.205.604-.093.208.112.403.435.469.608Zm-.071 1.568c-.106.164-.294.272-.74-.037-.445-.31-.415-.525-.355-.625.062-.102.14-.308.598-.056.457.253.638.498.497.718Zm-.52-3.2a.553.553 0 0 0-.45-.019s-.165.055-.27.233c-.346.612-.353 1.562-.447 1.724a.632.632 0 0 1-.078.104c-.044.04-.173.142-.34.087 0 0-.141-.038-.207-.17-.21-.412-.641-1.506-.764-1.611-.129-.111-.211-.004-.286.068-.073.073-.236.276-.437.119-.197-.155-.176-.394-.25-.736-.006-.021-.011-.042-.018-.06l-.006-.013a.455.455 0 0 0-.509-.262s-.29.038-.362.355c-.042.19.053.416.088.601.047.254.058.514.013.77-.03.174-.009.357.006.533.038.466.096.93.133 1.396l.008.102c.026.377.094.785.148 1.106.048.296.053.536.032.588-.013.029-.021.06-.051.083-.039.03-.07.029-.104.024l-.03-.009c-.341-.093-.52.107-.662.41-.148.315-.244 1.012-.282 1.176-.038.165-.155.497-.283.86-.129.364.096.469.474.175.379-.294.196-.637.325-1.137.055-.212.136-.369.233-.475.142-.147.311-.14.311-.14.251-.016.392.19.392.19.096.136.156.304.188.415.099.33.15.683.222 1.021.093.436.178.876.297 1.306.065.235.175.454.295.665.1.175.193.386.364.502 0 0 .102.069.239.037.06-.004.124-.037.189-.113-.002 0 0-.001 0 0a.212.212 0 0 0 .031-.043c.235-.379-.395-1.153-.733-1.95-.226-.532-.332-.887-.29-1.096a.283.283 0 0 1 .159-.188s.091-.05.211-.004c.007.003.015.006.021.01l.005.001c.28.13.683.53.896.719.273.242 1.055 1.188 1.4 1.274.149.036.31.008.451-.043.126-.046.306-.126.366-.255a.203.203 0 0 0 .012-.15c-.04-.12-.193-.192-.302-.236a1.275 1.275 0 0 0-.431-.095c-.205-.009-.48-.266-.75-.529-.17-.165-1.068-.836-1.379-1.098-.175-.148-.669-.483-1.128-.764a1.064 1.064 0 0 1-.128-.095s-.12-.098-.201-.235a1.126 1.126 0 0 1-.06-.14c0-.005-.002-.009-.004-.013a2.057 2.057 0 0 1-.081-.496c-.02-.659-.297-3.164-.208-3.37.089-.206.377-.136.456.099.08.237.028.681.028.85 0 .168.047 1.244.304 1.203.258-.04.211-.47.191-.842-.012-.242-.069-.554-.03-.768 0 0 .024-.162.197-.216 0 0 .114-.043.242.046.002 0 .003.002.005.003.17.133.328.42.455.76.113.302.215.608.307.917.095.326.196.663.188 1.005-.008.403.05.78.168 1.17.215.702.442.843.602.714.159-.128.124-.607.092-.832-.03-.21-.31-1.575-.233-2.007a.278.278 0 0 1 .354-.2.82.82 0 0 1 .255.176c.103.107.285.248.68.418.398.168.275.388.277.488.004.181.48.515.78.466.292-.048.225-.348.257-.569.023-.153.08-.3.105-.452.108-.632-.026-1.345-.298-1.922 0 0-.379-.82-.97-1.327-.063-.054-.212-.197-.39-.288ZM27.515 48.867c.023.072.056.194.107.28l.002.003.005.01c.014.02.05.064.117.068.089.005.124-.043.151-.08.098-.164-.074-.416.061-.656.155-.275.05-.427-.02-.547-.076-.126-.248-.55-.607-.193-.36.357-.46.301-.628.368-.11.044-.308.227-.215.409.107.207.53.161.7.12.172-.044.282.075.328.218ZM95.252 52.071c-.497-.01-.638-.312-.75-.71l-.003-.013c-.126-.497.295-.72.295-.72a.684.684 0 0 1 .293-.08c.243-.006.408.137.409.136.109.09.197.197.288.301.18.205.463.448.405.755-.043.23-.44.343-.937.331Zm2.185 1.926a.266.266 0 0 0 .173-.212c.013-.143-.037-.335-.097-.563-.116-.44-.735-1.381-.484-1.88.042-.084.081-.153.12-.212a.633.633 0 0 1 .306-.236s.14-.055.304-.029l.033.007s1.146.207 1.572.897c.104.168.276.46.454.404.173-.053.24-.317.116-.505-.123-.189-.383-.743-1.17-1.513a.63.63 0 0 1-.185-.318c-.004-.031-.01-.163.128-.217.135-.045.25.02.508.16.4.216.985.447 1.192.564.218.124.868.67 1.128.848.199.138.388.289.541.387a.63.63 0 0 0 .95-.45.618.618 0 0 0-.09-.42l-.007-.008a4.96 4.96 0 0 0-.455-.529c-.16-.171-.328-.319-.464-.44-.141-.127-.376-.615-.496-.793-.099-.149-.317-.192-.446-.312-.234-.217-.284-.594-.334-.893a4.117 4.117 0 0 1-.056-.554c-.003-.096.015-.19.023-.286a1.287 1.287 0 0 0-.142-.699 2.497 2.497 0 0 0-.073-.133c-.106-.179-.313.377-.337.434-.2.484-.429 1.01-.41 1.545.014.31.158.605.349.844.133.167.287.335.477.444a.782.782 0 0 0 .314.103c.12.01.246-.038.36.017a.322.322 0 0 1 .165.193l.002.004c.044.148-.029.262-.029.262-.063.12-.194.152-.236.159a.782.782 0 0 1-.123.009c-.367-.002-1.747-.547-2.417-1.053-.637-.48-2.032-1.402-2.26-1.51-.256-.12-.805-.265-.914-.01-.123.288.352.522.545.621.352.183.687.418.979.687.318.295 1.2.988 1.31 1.187.11.199.194.584-.248.581-.443-.002-.738-.148-1.015.178-.277.324-.356.423-.634.179a49.534 49.534 0 0 1-1.008-1.109c-.128-.145-.635-.31-.961-.167-.188.08-.265.266-.32.45-.119.405-.31.828-.3 1.257.006.33.078.461.13.622.052.16.46.748 1.049.778.515.025 1.094-.104 1.314-.144a.197.197 0 0 1 .198.075l.003.004c.068.099.13.26.193.39.073.15.29.61.491.834.13.133.284.071.284.071ZM54.258 29.553c-.037-.026-.053-.069-.053-.069a.164.164 0 0 1 .016-.15.452.452 0 0 1 .283-.205c.162-.036.18.068.229.281.05.214-.031.305-.118.335-.084.03-.242-.11-.358-.192Zm1.974-.225a.161.161 0 0 0-.207-.029c-.129.083-.136.252-.228.368-.332.42-.64.866-.917 1.327-.013.021-.026.042-.037.065-.056.113-.166.195-.142-.019.023-.214.434-1.148.422-1.574-.013-.425-.027-.81-.264-.94-.117-.063-.173-.384-.187-.624a.56.56 0 0 1 .369-.558.871.871 0 0 1 .13-.036c.075-.015.149-.043.173-.122.015-.048.014-.1.025-.148.02-.091.21-.296.127-.385-.08-.084-.305-.004-.413.104-.108.108-.614.29-.712.301-.1.012-.397.129-.557.079 0 0-.333-.105-.382.173-.052.277.227.59.43.566.204-.026.418-.182.462.02.045.203.209.6.063.68-.145.079-.786.396-.798 1.012v.03c0 .02.008.097.082.138.085.047.165-.002.165-.002.102-.05.21-.112.271-.06.141.121.418.395.41.65-.008.254-.263 1.256-.278 1.485-.017.295-.054.588.285.646.268.045.468-.163.543-.524.076-.36 1.438-1.876 1.346-2.206-.052-.184-.11-.336-.181-.417ZM56.056 26.182l-.008-.021a.222.222 0 0 0-.043-.075c-.056-.057-.189-.057-.263-.041-.096.02-.15.094-.157.19-.023.328.431 1.459.783 1.625.352.167.427-.169.227-.698a1.973 1.973 0 0 0-.244-.445c-.078-.111-.163-.217-.23-.333-.036-.062-.044-.135-.065-.202ZM58.155 26.027c-.034.038-.083.074-.138.059-.052-.015-.089-.067-.116-.111a1.351 1.351 0 0 1-.145-.48 1.865 1.865 0 0 1-.019-.182c-.003-.063-.007-.13.013-.19.014-.045.052-.077.087-.105a.473.473 0 0 1 .312-.105.23.23 0 0 1 .065.014c.194.067.22.788-.059 1.1Zm-.6 1.011a.053.053 0 0 1 .018-.008.041.041 0 0 1 .023 0c.056.016.1.082.129.129a.712.712 0 0 1 .082.175c.04.124.05.31-.077.391-.14.088-.23-.214-.244-.303a.692.692 0 0 1-.002-.21c.006-.043.027-.142.071-.174Zm2.004-1.69s.356-.636-.285-1.082l-.03-.022c-.918-.52-2.396.183-2.739.538a.277.277 0 0 0-.027.339s.065.131.242.133c.153-.002.327-.058.416-.072.124-.018.24.205.267.4a.349.349 0 0 1-.149.315c-.213.146-.59.456-.26.63.386.2.092.979-.094 1.603-.111.373.345.32.854.139.042-.008.166-.015.2.13.058.298.098.654-.014.753 0 0-.737.553-.438.877.299.324.767.538.617.914-.149.376-.272.976.317 1.034.259.026.794-.034 1.267-.171 0 0 .001 0 0 0 .407-.083.617-.227.723-.34l.006-.006a.104.104 0 0 0 .012-.015.394.394 0 0 0 .087-.15c.107-.277-.11-.484-.11-.484-.562-.572-1.58-.008-1.414-.351.175-.363.732-.945.327-1.264a1.287 1.287 0 0 0-.632-.28s-.118-.014-.14-.131l-.123-.696c-.016-.116.081-.168.081-.168.066-.037.127-.073.18-.107.552-.352.184-.689-.12-.928a.164.164 0 0 1-.052-.193c.137-.274.759-.806 1.03-1.345ZM42.694 36.877a.642.642 0 0 1-.2.11c-.077.025-.276.059-.415-.171-.137-.228-.03-.601.25-.664a.388.388 0 0 1 .448.248.49.49 0 0 1 .013.346.335.335 0 0 1-.096.13Zm3.127-1.23c-.087-.055-.171.002-.171.002-.187.093-.391.163-.545.309-.156.15-.252.349-.324.55-.12.33-.233.776-.486 1.126a.355.355 0 0 1-.223.129s-.122.028-.255-.064a1.617 1.617 0 0 1-.285-.282c-.056-.074-.07-.173-.07-.173-.014-.15-.02-.399-.459-.934-.322-.394-.454-.692-.49-.918-.039-.267.08-.483.08-.483.092-.198.178-.46.01-.644-.092-.098-.214-.006-.299.054-.091.063-.19.156-.303.177-.182.033-.444-.01-.838-.423a1.733 1.733 0 0 1-.15-.179c-.219-.314-.177-.673.026-.977.097-.148.175-.309.204-.485.02-.124.026-.288-.074-.382-.347-.33-.653-.077-.726-.033-.08.049-.318.311-.489.478a.57.57 0 0 1-.653.102 1.466 1.466 0 0 1-.276-.193c-.464-.398-.73-.444-1.072-.14-.342.303-.326.521-.016.563.035.004.072.01.111.011.316.02.756-.056.984.192.202.22.169.328.056.603-.124.3-.385 1.248-.43 1.444a7.455 7.455 0 0 0-.104.556 1.378 1.378 0 0 1-.174.495c-.075.124.07.144.164.144.09 0 .23-.01.295-.082.125-.139.114-.914.274-1.441.127-.421.155-.739.316-.956a.463.463 0 0 1 .611-.107c.027.018.055.037.08.057.181.137.219.405.119.642-.055.131-.086.248.081.288a.077.077 0 0 0 .034.005c.077-.009.135-.156.176-.212.053-.07.123-.132.216-.111.228.05.601.448.67.55.07.101.251.496.078.87-.114.248-.225.648-.185.993.004.036.01.071.017.106.032.127.12.343.366.498l.009.006c.132.078.282.124.433.15.142.026.288.035.433.037.112.003.226-.001.338.007.069.005.136.022.203.04.08.021.162.036.239.07a.56.56 0 0 1 .333.476s.022.234-.147.412c-.19.181-.42.316-.726.32-.718.006-1.423-.168-1.423-.168s-.788-.23-1.136.017a.278.278 0 0 0-.1.102c-.012.032-.002.056.036.085.181.138.462.18.676.229.378.086.763.138 1.145.203.334.056.686.128 1.026.1l.03-.003c.426-.046.888-.125 1.229-.469.284-.287.783-1.29 1-1.827.04-.097.087-.189.15-.273.07-.094.15-.177.203-.284.038-.08.072-.162.103-.245.068-.18.133-.37.151-.561a.16.16 0 0 0-.076-.148ZM76.511 32.027c.012-.168-.162-.378-.28-.478-.291-.245-.713-.226-1.073-.246-.27-.016-.575.009-.838-.057a.512.512 0 0 1-.181-.085.361.361 0 0 1-.13-.297.681.681 0 0 1 .09-.27c.25-.454.62-1.117.483-1.597a.936.936 0 0 1-.036-.184c.002-.137.058-.191.058-.191a.29.29 0 0 1 .207-.11c.055 0 .113.008.172.022.273.062 1.306.029 1.07-.293-.237-.322-.654-.74-.962-.76-.306-.02-1.356.07-2.366-.182 0 0-.105-.016-.22-.013h-.015a.21.21 0 0 0-.168.342l.008.01c.36.407 1.07.695 1.352.785 0 0 .362.105.32.522a1.563 1.563 0 0 1-.101.337c-.078.19-.14.392-.208.587-.053.151-.487 1.27-1.486 1.082a2.151 2.151 0 0 1-.368-.131c-.598-.264-.766-.503-.937-.837-.17-.333-.361.643-.049.957.312.313.756.677 1.738.744.981.067 2.92.318 3.539.515a.456.456 0 0 0 .204.028l.01-.002a.166.166 0 0 0 .051-.019.21.21 0 0 0 .116-.179ZM89.225 41.487c.23-.317.255-.838.28-1.212.03-.444.001-.899-.17-1.313-.177-.427-.396-.838-.497-1.293 0 0-.048-.164-.14-.278a.226.226 0 0 0-.243-.063.221.221 0 0 0-.152.202c-.003.12.025.27.052.421.057.332.02 1.31-.167 2.011-.187.7.042 1.483.33 1.71.133.103.394.248.707-.185ZM88.841 36.242c.15-.024.3.023.41.076.179.09.35.233.537.338.346.195.703.358 1.03.588.153.107.293.264.483.303a.358.358 0 0 0 .408-.217c.083-.2.051-.567-.424-1.028-.375-.364-.883-.559-.998-.656a3.514 3.514 0 0 1-.229-.206.879.879 0 0 1-.242-.8c.107-.32.156-.57-.162-.75-.328-.188-.57.476-.65.577-.08.103-.157.14-.29.046a121.68 121.68 0 0 0-1.46-.953.303.303 0 0 0-.292.005s-.17.084-.153.293c.002.02.005.043.01.065.067.305.75.987.986 1.35.02.033.068.128.035.243a.31.31 0 0 1-.14.18c-.157.086-.377.137-.503.17-.097.024-.376.069-.683.11-.476.064-.963.09-1.442.032a3.54 3.54 0 0 1-.706-.162c-.203-.068-.479-.16-.695-.121a.067.067 0 0 1-.01 0h-.005a.302.302 0 0 0-.194.087.303.303 0 0 0-.091.232c.033.355.55.507.718.587.158.075.314.142.492.197.198.063.802.198 1.31.14.595-.069 1.194-.123 1.768-.306.376-.12.749-.257 1.116-.405l.066-.015Z"/></g><defs><filter id="a" x="-13" y="0" width="154" height="157" filterUnits="userSpaceOnUse" color-interpolation-filters="sRGB"><feFlood flood-opacity="0" result="BackgroundImageFix"/><feColorMatrix in="SourceAlpha" values="0 0 0 0 0 0 0 0 0 0 0 0 0 0 0 0 0 0 127 0" result="hardAlpha"/><feOffset dy="16"/><feGaussianBlur stdDeviation="6.5"/><feColorMatrix values="0 0 0 0 0 0 0 0 0 0 0 0 0 0 0 0 0 0 0.03 0"/><feBlend in2="BackgroundImageFix" result="effect1_dropShadow_49_8371"/><feBlend in="SourceGraphic" in2="effect1_dropShadow_49_8371" result="shape"/></filter></defs></svg>