<svg width="128" height="128" fill="none" xmlns="http://www.w3.org/2000/svg"><path fill-rule="evenodd" clip-rule="evenodd" d="M64 21.55C40.56 21.55 21.55 40.56 21.55 64S40.56 106.45 64 106.45c23.442 0 42.45-19.01 42.45-42.45S87.442 21.55 64 21.55Zm0 10.5c-17.64 0-31.948 14.307-31.948 31.95S46.36 95.95 64 95.95c17.643 0 31.951-14.307 31.951-31.95s-14.308-31.95-31.95-31.95Zm0-.951C45.834 31.099 31.1 45.83 31.1 64c0 18.169 14.735 32.901 32.901 32.901 18.166 0 32.901-14.732 32.901-32.9 0-18.17-14.735-32.902-32.9-32.902Zm2.975 43.884v3.952c1.753 1.733 3.401 2.849 6.06 3.162l-.05-7.114h-6.01Zm8.699.024v7.127c1.464-.289 3.29-.925 5.989-3.226v-3.886l-5.989-.015Zm.027-2.932h5.962V67.42H75.7v4.654Zm-8.729-4.614.008 4.597 5.947-.033.059-4.564h-6.014Zm-4.381-22.39v2.498l4.401.074v3.217l6.855 2.913 7.307-2.881.072-3.3 3.747-.07c.205 3.079 1.378 6.754 2.503 8.191.635.768 2.627-.22 1.797-1.017-.952-1.261-1.305-1.965-1.74-4.14-.23-.758.28-2.752-.748-3.38-.257-.044-1.577.408-1.51-.19v-1.819l-22.684-.096Zm-19.616 13.31c.393 6.792.264 13.156-.773 25.336l3.91.165c.704-9.21 1.21-18.107.771-25.488l-3.908-.012Zm-.308-6.556-.013 3.804 6.737-.025-.03 30.194 4.239.061.333-30.267 6.811-.012.005-3.79-18.082.035Zm.17-3.086h17.492v-3.384H42.837v3.384Zm12.928 9.954.484 25.498 4.238-.186-.627-25.364-4.095.052Zm7.974-6.947.071 6.823c4.735 5.717 17.399 3.496 20.141-.18l-.032-6.717c-1.027-.286-2.634-.128-3.725.101l.022 4.644c-2.49 3.354-10.861 3.147-12.765.027l-.044-4.698c-.709-.378-2.958-.309-3.668 0Zm-.645 12.708v14.449c2.44 8.423 18.961 9.911 22.44 0l-.065-14.528-22.375.08ZM64 33.992c-16.569 0-30.008 13.437-30.008 30.008 0 16.572 13.439 30.008 30.008 30.008 16.572 0 30.008-13.436 30.008-30.008S80.572 33.992 64 33.992ZM26.27 65.837a2.05 2.05 0 0 0-2.049 2.049 2.05 2.05 0 0 0 2.05 2.049 2.05 2.05 0 0 0 2.048-2.05 2.05 2.05 0 0 0-2.049-2.048Zm75.245-.393a2.05 2.05 0 0 0-2.049 2.05 2.05 2.05 0 1 0 2.049-2.049Zm-.935-5.82 2.518.999c.276.111.459.212.548.311.091.119.172.301.241.543l.336-.066-.395-2.04-.336.067.02.101c.047.245.022.41-.076.499-.101.067-.279.054-.529-.037l-1.765-.696 1.538-1.723c.116-.114.227-.146.329-.096.079.054.138.18.18.38l.025.135.335-.066-.548-2.807-.333.064.012.067c.045.224.052.382.023.481-.028.099-.119.22-.274.368l-2.084 2.31-1.205.235c-.395.101-.636-.074-.723-.518l-.047-.232-.333.064.573 2.94.333-.064-.025-.136c-.126-.53.037-.815.491-.857l1.171-.227Zm.92-7.693.351.958c.123.343.148.575.074.699-.057.116-.291.298-.709.548l.119.318 1.489-.686-.104-.287c-.161-.04-.262-.148-.301-.328l-1.422-3.903a.804.804 0 0 1-.05-.237.809.809 0 0 1 .072-.205l-.094-.256-1.594.4.128.353c.479-.08.775-.09.893-.037.139.047.265.23.381.55l.36.992-3.742 1.363c-.398.168-.68.03-.842-.42l-.106-.286-.319.116 1.072 2.943.32-.116-.071-.193c-.207-.503-.089-.812.353-.923l3.742-1.363Zm-2.848-6.764.046.092c.225.392.131.683-.283.871l-3.096 1.575c-.353.207-.632.106-.84-.296l-.046-.092-.301.153 1.251 2.46.301-.156-.059-.121c-.237-.415-.148-.714.267-.899l3.066-1.563c.382-.195.679-.09.883.314l.062.121.304-.156-1.252-2.458-.303.155Zm-6.725-1.402.133.198c.102-.013.17.01.21.064.025.04.065.136.114.294.185.476.36.839.526 1.083.684.936 1.466 1.158 2.345.677.34-.23.565-.585.674-1.072.074-.377.064-.92-.027-1.624-.075-.8.012-1.281.256-1.447.346-.177.674-.056.985.363.373.595.321 1.21-.16 1.832l.19.284 1.064-.921-.096-.143c-.045-.025-.062-.027-.047-.008-.077-.032-.129-.066-.153-.103a1.567 1.567 0 0 1-.077-.237 4.13 4.13 0 0 0-.469-.998c-.679-.883-1.402-1.105-2.175-.668-.62.582-.805 1.323-.555 2.224.175.785.062 1.367-.338 1.747-.48.267-.896.154-1.26-.343-.407-.602-.328-1.256.235-1.965l-.19-.281-1.185 1.044Zm.566-7.467-1.901 1.654.222.256c.745.857 1.427 1 2.046.432.603-.553.585-1.214-.054-1.982l-.313-.36Zm-2.158 1.876.447.513c.012.291-.054.768-.198 1.434-.11.46-.175.768-.185.929-.02.289.025.565.136.832.143.234.388.548.728.943.15.172.27.308.358.412l.205-.18c-.294-.373-.41-.785-.348-1.23a9.21 9.21 0 0 1 .175-1.098c.116-.524.175-.921.18-1.195.721.484 1.356.506 1.901.06a1.33 1.33 0 0 0 .477-.956c.074-.573-.302-1.316-1.124-2.227-.207-.24-.538-.585-.99-1.034-.118-.138-.32-.353-.604-.647a.928.928 0 0 1-.183-.158l-.26.225.114.128c.36.38.353.701-.017.965l-2.597 2.257c-.328.313-.654.266-.98-.141l-.089-.104-.256.222 1.987 2.289.257-.222-.178-.205c-.299-.346-.284-.657.042-.94l1.002-.872Zm-1.563-4.9c.299.165.306.498.018.992l.271.205.679-1.066-3.836-2.891-.205.271.081.062c.432.296.509.61.23.94L83.9 34.59c-.243.358-.546.383-.914.08l-.272-.205-.204.271 4.186 3.157.904-1.027-.272-.205c-.474.44-.913.477-1.32.114l-1.173-.881c-.225-.116-.227-.301-.005-.56l.943-1.25 1.034.778c.496.318.585.64.257.963l.272.205 1.044-1.388-.272-.205c-.242.358-.538.39-.883.1l-1.143-.863 1.165-1.55 1.525 1.15Zm-9.407-.02.498.222 3.367-3.123c.497-.5.931-.642 1.306-.424l.032.012.139-.311-2.022-.899-.138.311.185.084c.427.213.528.432.303.655l-2.515 2.384-.052-3.229c-.012-.303.042-.488.173-.555.128-.067.36-.027.691.12l.124.058.14-.314-2.77-1.232-.138.311.062.03c.227.101.375.215.442.346.057.098.091.325.108.68l.065 4.874Zm-3.99-6.942.097.032c.439.119.577.39.414.815l-1.073 3.303c-.104.397-.373.523-.803.385l-.099-.032-.103.323 2.621.852.107-.323-.131-.042c-.46-.126-.61-.403-.447-.827l1.064-3.271c.133-.41.415-.543.847-.405l.128.042.106-.324-2.621-.851-.107.323Zm-6.695-.538 3.51 4.863.475.067.644-4.59c.022-.315.28-.429.77-.338l.102.015.047-.338-2.225-.31-.047.337.1.013c.36.052.58.126.656.23.079.1.093.31.05.624l-.366 2.6-3.024-4.175-1.753-.247-.05.338c.272.037.49.126.652.262l-.56 3.982c-.027.363-.267.513-.713.449l-.07-.01-.046.336 2.09.294.047-.336c-.612-.042-.861-.319-.743-.83l.454-3.236Zm-4.32-1.168h.136c.499-.022.738.272.714.884v2.11c-.022 1.047-.59 1.58-1.701 1.603-1.022-.022-1.545-.501-1.565-1.432v-2.587c0-.385.202-.578.612-.578h.133v-.34h-2.722v.34h.17c.432-.022.634.17.614.578v2.587c.02 1.294.872 1.955 2.553 1.977 1.612-.022 2.43-.772 2.451-2.248v-2.18c-.022-.499.24-.736.783-.714h.069v-.34H64.36v.34Zm-16.6 3.192.123-.059c.437-.24.78-.079 1.03.481l.925 1.899c.437.948.163 1.676-.83 2.184-.928.428-1.607.23-2.034-.6l-1.133-2.325c-.17-.345-.071-.61.297-.787l.12-.06-.15-.308-2.447 1.195.149.308.155-.076c.378-.21.644-.126.802.252l1.136 2.325c.587 1.153 1.64 1.373 3.16.657 1.441-.729 1.846-1.76 1.22-3.096l-.956-1.96c-.24-.437-.109-.768.39-.983l.062-.032-.149-.306-2.021.985.15.306Zm-8.177 7.586c1.156 1.316 2.279 1.605 3.373.864.854-.75.849-1.71-.013-2.883-1.155-1.284-2.256-1.56-3.3-.832-.857.783-.877 1.733-.06 2.851Zm-.748 1.13c1.195 1.225 2.582 1.257 4.155.102 1.563-1.355 1.812-2.797.745-4.33-1.175-1.271-2.564-1.325-4.169-.173-1.553 1.403-1.795 2.871-.73 4.402Zm-.822 4.392.262.22 1.795-2.14-.262-.217-.086.103c-.292.378-.6.415-.934.106l-2.66-2.234c-.346-.259-.364-.555-.055-.888l.109-.131-.262-.22-1.795 2.14.262.218.044-.052c.304-.398.623-.44.956-.131l1.044.876-1.861 2.217-1.07-.898c-.345-.26-.357-.566-.031-.916l.086-.104-.26-.22-1.796 2.14.261.218.09-.104c.276-.328.572-.363.883-.101l2.661 2.232c.331.278.358.582.08.913l-.085.104.26.22 1.794-2.14-.26-.218-.088.103c-.294.349-.605.383-.935.107l-1.2-1.008 1.861-2.219 1.175.988c.346.291.383.602.106.933l-.089.104Zm-4.15 2.995-.17.296c.395.358.627.637.699.834.07.198.03.425-.119.682l-1.342 2.328-1.923-5.592-.415-.24-2.52 4.365 1.234.793.17-.296c-.565-.38-.709-.79-.43-1.23l1.175-2.034 1.923 5.589.413.24 2.757-4.777-1.451-.958Zm-7.03 6.448.05-.126c.165-.472.528-.583 1.088-.33l1.958.79c.96.411 1.242 1.137.847 2.179-.405.938-1.042 1.244-1.914.916l-2.4-.97c-.357-.144-.458-.405-.305-.785l.05-.126-.317-.126-1.022 2.525.319.126.064-.158c.14-.41.395-.523.765-.35l2.4.967c1.21.464 2.137-.076 2.787-1.627.585-1.503.195-2.54-1.163-3.115l-2.022-.817c-.471-.166-.595-.496-.37-.992l.027-.065-.316-.126-.844 2.084.318.126Zm-2.21 8.225.267-1.683c.013-.366.287-.506.825-.42l.047-.304-1.21-.192-.689 4.34.304.049.017-.101c.037-.386.314-.526.825-.422l3.463.547c.363.038.504.23.427.586l-.022.135.336.055.405-2.558-.336-.054-.027.17c-.022.43-.299.583-.832.454l-1.377-.22.212-1.345c.044-.43.279-.6.7-.508l.055-.338-1.716-.272-.051.338c.454.025.617.304.486.835l-.193 1.212-1.915-.304Zm65.198 36.629c-.148.148-.903.568-.027.61.603-.037.61-.388.67-.447.064-.131.014-.84-.642-.163Zm-4.386-5.43c-.052.118-.08.367-.032.458.03.06.074.094.135.111.033.01.043.02.07.04.098.081.214.086.36.089.242 0 .343.071.568-.052.323-.16.343-.822.63-1.247.263-.661.496-.355.476-.094-.07.921-.388 1.827-.674 2.499-.39.913-1.34 2.634-1.16 2.97.436.853 1.12.47 1.031-.035-.034-.282-.012-.457.17-.825.304-.642.759-1.533 1.149-2.133.58-1.073 1.518-.918 1.575-.096-.193 1.274-.67 1.094-1.452 1.755-.738 1.042-.086.835.173.595.025-.022.04-.037.067-.057l.051-.042c.588-.513.432.56.403.924-.005.071-.008.084.025.138.185.311-.015.469-.428.78a.245.245 0 0 1-.054.032c-.491.195-.365.496-.227.632.02.017.025.022.054.022.326.017.573.09.86.134.012 0 .022.002.034.007.308.094.58.037.871.057.548-.023 1.114-.534 1.185-1.309.04-.674-.5-.752.175-1.202.45-.373.77-1.096-.118-.933a.105.105 0 0 0-.044.015c-.21.116-.334.385-.864.8-.032.024-.06.05-.09.074-.219.21-.777.58-.648-.348.002-.018.002-.032.002-.05-.007-.63.096-.654.311-.923.602-.884.745-2.69-.452-2.661-.387.015-1.232.696-.94-.205.027-.123.017-.202.05-.395l.001-.044c-.007-.59.282-1.509-.476-1.326-.012.002-.022.002-.032.005-.111.002-.163-.022-.304.032a.226.226 0 0 0-.054.027c-.281.18-.582.378-.758.652a.356.356 0 0 1-.108.126c-.321.252-.447.563-.966.684-.2.074-.414.04-.545.318Zm-.76.843c-.144.235-.057.556.004.694.015.03.02.057.028.086.1.403.313.341.53.319.36-.052.54-.057.613-.558.049-.24.13-.472-.257-.568-.027-.005-.045-.012-.07-.022-.073-.035-.152-.04-.273-.052-.02-.002-.028-.002-.042-.012-.099-.062-.287-.082-.474.052a.202.202 0 0 0-.06.061ZM39.755 88.15c-.086.14.02.185.062.254.044.119.007.188.054.37.008.043.015.161.057.255.002.007.005.01.005.017-.01.227.022.264.054.385.003.005.003.01.01.015.025.04.091.08.2.114a.086.086 0 0 1 .035.015c.143.081.358.153.52.1.067-.021.104-.11.094-.155a.073.073 0 0 1-.005-.024c.005-.183-.084-.25-.086-.36 0-.01 0-.02-.002-.03-.018-.104-.05-.22-.07-.326-.002-.018-.005-.023-.017-.037-.143-.183-.269-.368-.467-.563a.07.07 0 0 0-.022-.015c-.254-.136-.335-.079-.402-.03-.005.003-.01.005-.012.008l-.008.007Zm1.072 2.007c-.605-.076-1.524-.015-2.178-.126a.096.096 0 0 0-.037 0c-.353.047-.654-.005-.725-.044-.015-.008-.023-.015-.038-.022-.407-.176-.222-.321-.4-.47a.032.032 0 0 0-.01-.007c-.086-.044-.234-.067-.375.104l-.007.012c-.244.464-.188.914-.037 1.034l.03.03c.19.207.488.222.666.23.005 0 .01 0 .015.002l.007.003c.17.076.102.175-.002.281-.005.005-.01.01-.017.012-.139.07-.252.09-.346.104-.007.003-.015.003-.02.005-.59.25-1.039.235-1.296.202-.565-.041-.933-.227-1.367.223a.16.16 0 0 0-.025.032c-.22.39-.22.62-.121.7.185.186.617-.014.91-.073l.013-.005c.183-.052.274-.08.48-.037.468.15.172.427.024.52-.77.549-.721.968-.602 1.119a.122.122 0 0 0 .02.017c.194.15.32.07.434.022.012-.005.02-.01.032-.014.061-.042.133-.067.192-.119a.163.163 0 0 1 .047-.034c.045-.03.055-.052.077-.067l.034-.025c.035-.02.087-.034.129-.064.022-.017.047-.03.066-.05.208-.2.163-.3.511-.713.037-.044.067-.079.094-.126.21-.36.41-.086.558.074.05.055.104.1.148.156.131.168.264.12.398.138.012 0 .022.003.034 0 .22-.02.778-.116.689-.498-.101-.208-.304-.045-.462-.043-.027 0-.052.005-.079.008-.202.02-.474-.086-.392-.417 0-.005 0-.008.002-.013.018-.113-.002-.212.126-.345a.635.635 0 0 1 .227-.138c.178-.055.282-.067.58-.178.015-.005.023-.008.037-.008.129-.007.225-.09.346-.11.074-.008.101-.023.153-.045.072-.044.15-.08.227-.114a.394.394 0 0 0 .027-.007c.062-.015.102-.022.17-.06.003-.002.008-.004.01-.007a1.778 1.778 0 0 1 .326-.165c.26-.146 1.124-.289 1.047-.59a1.02 1.02 0 0 1-.007-.015c-.077-.133-.057-.207-.329-.279h-.014Zm2.925 1.338c-.094-.31-.299-.247-.44-.274l-.02-.002c-.434-.003-.765.086-1.011.01-.336-.124-.563-.627-.948-.41a.078.078 0 0 0-.023.017c-.15.18-.066.365.065.484.113.101.266.101.313.197.089.15-.057.215-.128.245-.188.096-.26.18-.299.19-.007 0-.015.002-.022.005-.096.03-.198.02-.287.096a2.896 2.896 0 0 0-.452.178c-.093.061-.249.076-.375.113-.084.04-.13.037-.202.062-.101.044-.21.109-.284.121a.115.115 0 0 0-.047.015c-.103.057-.197.091-.316.183-.192.123-.308.269-.481.298a.077.077 0 0 0-.037.02c-.23.19-.35.378-.709.57-.217.136-.474.37-.659.42-.022.007-.027.01-.042.027-.33.326-.298.73-.187.827.224.195.563-.346.817-.546.2-.172.432-.234.637-.387.21-.158.44-.48.585-.56.348-.213.743-.41 1.093-.482.257-.054.968-.232.82.198-.091.138-.35.251-.523.377-.312.287-.39.257-.583.383-.286.4-.104.726.05.736.932.281 1.503.328 1.35 1.108-.556.938-.845 1.01-1.373 1.36-.41.116-1.046.163-1.165-.19.086-.21.232-.173.34-.318.043-.084-.054-.218.04-.306.136-.149.193-.124.388-.24.249-.148.518-.328.353-.553-.188-.63-.85-.38-1.168-.365-.111.002-.24.027-.291-.168-.015-.067-.057-.188-.267-.207-.224-.055-.417.2-.578.343-.071.069-.182.185-.182.264.005.205.034.538.11.622.156.155.34.16.517.252.18.135-.012.303-.217.313-.131.008-.388-.042-.413.087.023.16.287.187.373.207.208.05.215.215.208.309v.014c.032.316.167.408.352.536a.032.032 0 0 0 .015.01c.356.17.79.202 1.343.116.319-.072.454-.123.721-.385a.233.233 0 0 1 .064-.045c.143-.064.282-.185.366-.286.005-.007.012-.012.017-.017.14-.104.306-.225.41-.363.328-.444.925-.773.632-1.533-.262-.617-.763-.598-1.148-.889-.008-.005-.013-.012-.018-.017a.168.168 0 0 1 0-.225c.005-.007.01-.01.018-.015.066-.044.123-.03.212-.054a.661.661 0 0 0 .26-.14c.108-.107.049-.245.26-.351.238-.124.64-.143.64-.452.008-.138-.04-.232-.31-.378-.154-.084-.31-.15-.334-.276-.017-.163.195-.15.301-.217.005-.005.01-.005.017-.008.17-.037.294-.079.467-.165.225-.08.55-.101.847-.121.316-.022.595-.05.538-.368Zm6.82 8c-.093.196-.064.359-.088.534a.074.074 0 0 0 .002.04c.143.575.499.345.605.116.064-.087.17-.398.114-.697-.01-.158-.235-.6-.633.008Zm-.115-1.288c-.116.173-.072.287-.346.514-.21.353.111.286.267.182.138-.094.051-.145.412-.284.242-.286-.106-.688-.333-.412Zm.187-3.513c-.234-.158-.684.284-1.01.49-.056.034-.076.058-.118.108-.272.326-.748.585-1.118.881a.179.179 0 0 0-.045.042c-.343.395-.745.943-1.09 1.215a.263.263 0 0 1-.05.03c-.595.315-1.536.806-1.832 1.84a.26.26 0 0 0-.007.063c-.008.195-.032.52.254.61.02.007.027.01.044-.008.072-.084.237-.514.35-.74.07-.139.374-.443.692-.741.064-.052.257-.141.346.066.037.104.143.242.412.082.146-.111.235-.188.34-.324a.207.207 0 0 0 .038-.064c.047-.108.14-.269.237-.355.14-.138.343-.348.73-.393.613-.047 1.27.15 1.032.519l-.022.034c-.454.822-1.234 1.355-1.775 1.75-1.19.711-1.479.736-1.8.408-.15-.136-.395-.153-.515-.151-.055 0-.07.022-.094.064-.193.348-.07.536.02.645l.066.091c.296.469.938.454 1.254.402.015-.002.025-.007.037-.012 1.03-.365 1.597-.622 2.506-1.634a.98.98 0 0 1 .163-.18c.2-.131.363-.257.232.182-.094.22-.26.516-.111.887.047.116.056.175.074.301.015.116.05.239.133.36.032.049.07.091.101.138.035.047.067.097.104.139.309.328.817-.119.968-.314.21-.212.44-.595.42-.975.031-.538.355-.264.444-.054a.748.748 0 0 0 .056.108c.482.761.541 2.205-.148 2.847-.75.765-1.797.187-1.824.387-.244.348.538.827 1.042.763.116-.012.247-.062.358-.101.59-.193 1.515-.761 1.459-2.713-.109-1.003-.502-2.076-1.373-2.684a1.213 1.213 0 0 1-.222-.397c-.13-.183-.252-.41-.467-.578a.908.908 0 0 1-.172-.33.163.163 0 0 1 .005-.092c.022-.11.027-.264.002-.377-.01-.043-.017-.087-.027-.131-.032-.15-.131-.395-.34-.42-.206.025-.277.276-.282.38.308.538-.316.59-.682.222-.283-.185-.404.003-.61-.056-.076-.03-.234-.121-.007-.319.608-.637 2.234-1.449 1.822-1.91Zm4.12 4.106c-.118.32-.106.451-.12.678-.05.504-.339.512-.53.724-.429.39.02.402.243.318.044-.017.089-.044.133-.066.22-.107.4-.267.662-.316.081-.015.145-.02.222-.052.244-.094.674-.311.442-.516-.04-.035-.074-.054-.109-.094-.103-.118-.252-.257-.23-.471.005-.065.023-.102.008-.168-.116-.57-.578-.376-.72-.037Zm20.941-1.568c.87 1.83.748 1.963.375 2.3-.106.095-.143.14-.279.171-1.078.254-.903.605-.903.938 0 .077-.015.106.037.171.173.222.716.402.822.392.195-.005.42-.217.607-.188.297.121.208.494.215.961-.03.355.106.74.72.725.235-.039.339-.439.322-.511-.116-.491-.682-1.762.069-2.443a.672.672 0 0 0 .084-.084c.578-.667 1.192-1.383 2.597-2.05.061-.029.079-.034.108-.098.232-.452-.022-.938-.93-.899a.291.291 0 0 0-.144.032c-.293.144-.424.482-.651.78-.245.317-.595.588-.86.867-.278.237-.609.825-.86-.506-.018-.086 0-.128-.003-.21-.005-.232-.36-.63-.627-.925-.017-.02-.032-.038-.057-.052-.133-.09-.575-.339-.72.288-.035.149.014.205.078.341Zm3.508 2.678c-.175.941.713 1.185 1.12 1.272.107-.003.751-.2.734-.842-.04-.183-.257-.405-.958-.53-.306-.03-.77-.23-.896.1Zm-19.07-.244-.34-.032a4.204 4.204 0 0 1-1.326.817l.081.18c.235-.044.49-.13.76-.251l-.241 2.735c-.013.145-.094.219-.242.224l-.39-.034-.02.22 2.002.175.022-.22-.417-.034c-.145-.015-.212-.112-.197-.289l.308-3.49Zm2.313 1.2c-.052.686.084 1.024.413 1.017.145.005.318-.054.518-.18.042-.262.064-.482.069-.659.02-.753-.148-1.133-.508-1.143-.326-.025-.492.296-.492.965Zm-.4 2.834c1.348-.272 2.081-1.044 2.2-2.318-.003-1.062-.437-1.63-1.304-1.704-.785.045-1.222.474-1.31 1.289.03.736.377 1.138 1.046 1.207a1.12 1.12 0 0 0 .642-.202c-.202.827-.674 1.345-1.414 1.555l.14.173Zm3.343-1.945.175.093c.16-.086.323-.13.486-.133.492.022.75.326.78.913-.022.526-.212.808-.57.847-.13.003-.257-.084-.373-.262-.118-.192-.251-.288-.4-.286-.197.005-.298.114-.31.328.039.292.328.44.868.445.96-.069 1.47-.531 1.514-1.38-.067-.815-.533-1.239-1.4-1.269a1.86 1.86 0 0 0-.514.084l.01-.76 1.494-.032.081-.739-.195.005c-.015.082-.086.124-.217.126l-1.397.03-.032 1.99Zm4.86-1.371c-.084-.466-.323-.678-.71-.639-.339.067-.492.272-.457.612.032.343.353.6.955.778.185-.193.257-.442.212-.751Zm.425 2.242c.02-.333-.343-.61-1.086-.832-.203.195-.272.462-.205.8.076.533.328.777.75.731.4-.092.58-.324.541-.699Zm.18-2.353c-.148-.557-.59-.807-1.323-.75-.706.153-1.044.558-1.014 1.214.041.388.318.704.831.943-.471.284-.676.628-.617 1.032.153.608.615.877 1.383.815.767-.163 1.143-.597 1.123-1.303-.064-.437-.393-.761-.985-.973.469-.299.669-.625.602-.978ZM64 20c24.296 0 44 19.704 44 44s-19.704 44-44 44-44-19.704-44-44 19.704-44 44-44Z" fill="#E50012"/></svg>