<svg width="128" height="128" fill="none" xmlns="http://www.w3.org/2000/svg"><mask id="a" style="mask-type:alpha" maskUnits="userSpaceOnUse" x="20" y="20" width="88" height="88"><path d="M20 20h88v88H20V20Z" fill="#fff"/></mask><g mask="url(#a)"><path fill-rule="evenodd" clip-rule="evenodd" d="M20 64c0 24.261 19.737 44 44 44 24.261 0 44-19.739 44-44 0-24.263-19.739-44-44-44-24.263 0-44 19.737-44 44Z" fill="#007147"/></g><path fill-rule="evenodd" clip-rule="evenodd" d="M106.527 64c0 23.488-19.04 42.529-42.53 42.529-23.486 0-42.526-19.041-42.526-42.53 0-23.487 19.04-42.529 42.527-42.529 23.488 0 42.529 19.042 42.529 42.53Z" fill="#6EB92C"/><path fill-rule="evenodd" clip-rule="evenodd" d="m24.674 60.78 2.015-.093-.004.134c-.607.167-1.045.417-1.317.745-.27.327-.411.728-.42 1.198-.009.39.085.749.278 1.068.191.321.504.579.936.768.434.19.973.292 1.623.308.535.009 1.001-.068 1.398-.23.395-.162.702-.418.918-.756.216-.34.33-.731.34-1.176a2.04 2.04 0 0 0-.227-1.021c-.159-.297-.478-.626-.96-.987l.09-.134c.52.306.9.662 1.135 1.064.236.4.349.87.338 1.418-.02.978-.4 1.729-1.137 2.254-.55.39-1.192.575-1.924.563a3.384 3.384 0 0 1-1.619-.432 2.856 2.856 0 0 1-1.128-1.117 2.953 2.953 0 0 1-.377-1.528c.008-.428.124-.846.339-1.258.066-.122.1-.21.102-.262a.29.29 0 0 0-.078-.207.668.668 0 0 0-.323-.164l.002-.156ZM27.99 57.85l.562-2.688-1.659-.347c-.295-.06-.494-.083-.595-.067a.382.382 0 0 0-.222.142.782.782 0 0 0-.183.367l-.044.204-.156-.034.517-2.475.158.033-.042.202a.82.82 0 0 0 .015.41.373.373 0 0 0 .169.232c.086.051.272.106.555.164l3.739.784c.292.06.489.083.592.065a.382.382 0 0 0 .219-.136.81.81 0 0 0 .185-.37l.043-.208.159.034-.52 2.48-.157-.035.042-.205c.05-.238.016-.422-.1-.56-.078-.091-.29-.172-.635-.245l-1.765-.37-.563 2.69 1.763.37c.293.063.492.084.593.065a.374.374 0 0 0 .22-.138.811.811 0 0 0 .185-.368l.044-.21.158.032-.52 2.483-.157-.035.043-.205c.05-.238.016-.427-.1-.564-.078-.088-.29-.169-.637-.238l-3.737-.783c-.296-.063-.494-.083-.596-.068a.402.402 0 0 0-.22.137.825.825 0 0 0-.185.37l-.043.206-.158-.031.52-2.482.157.033-.044.207a.858.858 0 0 0 .017.41.397.397 0 0 0 .169.23c.086.051.269.108.554.167l1.66.345ZM31.472 49.408l-2.594-.007 1.8 1.881.794-1.874Zm.344.014-.894 2.11.703.734c.174.182.311.292.416.337.084.035.173.027.271-.023.095-.054.208-.205.34-.46l.147.063-.727 1.714-.149-.063c.056-.244.067-.413.03-.508-.07-.193-.267-.453-.59-.786l-3.673-3.819.06-.14 5.337.023c.43.001.725-.036.886-.114.163-.08.298-.226.405-.442l.148.062-.912 2.15-.148-.062c.081-.223.106-.385.078-.487a.303.303 0 0 0-.177-.21c-.117-.049-.327-.075-.627-.075l-.924-.004ZM29.607 44.78l.902-1.328 5.703-.503-2.825-1.915c-.302-.205-.511-.3-.633-.285-.162.023-.307.13-.438.324l-.115.167-.134-.09 1.155-1.705.134.09-.117.176c-.14.205-.177.396-.111.568.042.103.2.247.473.435l4.13 2.799-.088.131-6.134.555 3.017 2.044c.301.204.51.3.63.287.162-.025.308-.13.437-.323l.117-.173.134.092-1.155 1.704-.134-.09.114-.17c.143-.208.18-.4.115-.572-.04-.103-.199-.251-.473-.437l-3.408-2.308a2.741 2.741 0 0 0-.547.1 1.522 1.522 0 0 0-.369.222c-.068.058-.15.154-.246.295l-.134-.09ZM37.822 34.486l1.427 1.215-.108.108c-.439-.22-.827-.328-1.166-.324-.49.007-.93.207-1.322.597-.534.53-.73 1.148-.587 1.847.123.588.43 1.13.921 1.623.398.398.838.686 1.321.861.483.177.928.217 1.33.12a2.061 2.061 0 0 0 1.002-.538c.152-.153.283-.322.386-.507.108-.178.19-.379.247-.587l-1.207-1.213c-.21-.21-.363-.33-.459-.365a.484.484 0 0 0-.296 0c-.1.034-.236.133-.405.301l-.117-.117 1.623-1.614.116.114-.077.078c-.161.16-.217.324-.171.492.036.116.164.288.389.512l1.278 1.282c-.11.363-.25.692-.42.98-.174.29-.4.577-.682.856-.81.807-1.685 1.161-2.621 1.06a2.925 2.925 0 0 1-1.816-.876 3.174 3.174 0 0 1-.79-1.327 3.19 3.19 0 0 1-.059-1.787c.128-.483.401-.934.82-1.355.152-.15.303-.275.452-.374.15-.1.38-.222.693-.365.16-.07.258-.128.298-.167.038-.037.054-.09.046-.155-.008-.061-.063-.15-.16-.262l.114-.113ZM41.64 32.51c-.127-.36-.267-.71-.424-1.052-.156-.345-.187-.549-.094-.62a.586.586 0 0 1 .366-.103c.154.005.267.178.346.526.077.348.145.702.203 1.064.059.36.112.868.16 1.522l-.168.064a13.626 13.626 0 0 0-.39-1.401ZM51.113 30.85l-1.853-1.816-.02 2.604 1.873-.789Zm.237.252-2.11.887-.007 1.015c-.003.25.019.429.062.533.036.084.105.14.21.169.107.03.295 0 .565-.093l.063.15-1.717.723-.062-.152c.21-.136.335-.248.376-.34.082-.188.124-.511.125-.977l.028-5.293.14-.061 3.808 3.738c.307.298.545.477.716.535.169.054.368.042.598-.036l.061.149-2.15.904-.063-.15c.213-.1.343-.2.395-.292a.312.312 0 0 0 .019-.277c-.05-.117-.181-.28-.397-.49l-.66-.642ZM53.001 26.228l1.572-.328 4.45 3.612-.697-3.345c-.074-.354-.162-.57-.26-.64-.129-.1-.308-.124-.536-.077l-.2.045-.033-.162 2.018-.418.031.158-.204.043c-.246.049-.404.16-.477.329-.042.105-.03.321.038.644l1.017 4.887-.153.033-4.794-3.873.741 3.57c.076.356.16.57.254.641.135.098.314.124.538.076l.206-.043.033.157-2.018.42-.032-.157.2-.04c.248-.054.408-.164.48-.335.044-.102.032-.314-.035-.643l-.84-4.03a2.875 2.875 0 0 0-.463-.312c-.1-.044-.24-.073-.42-.094a1.56 1.56 0 0 0-.384.04l-.032-.158ZM70.215 25.39l.02-.16 2.078.278-.022.16-.221-.031a.588.588 0 0 0-.57.219c-.074.078-.131.285-.175.609l-.316 2.38c-.08.588-.199 1.036-.358 1.345-.16.31-.427.557-.799.745-.373.186-.852.24-1.442.161-.64-.085-1.111-.26-1.413-.525a1.837 1.837 0 0 1-.585-.992c-.058-.27-.04-.755.054-1.463l.306-2.291c.047-.36.03-.604-.056-.73-.084-.125-.239-.206-.459-.234l-.221-.027.021-.16 2.536.335-.022.163-.226-.032c-.241-.031-.425.024-.55.16-.085.097-.15.305-.192.633l-.34 2.559c-.032.226-.047.491-.044.792.003.298.049.538.136.716.088.18.227.336.419.471.193.134.438.22.739.261.382.05.737.014 1.062-.115.325-.127.56-.311.707-.558.145-.247.26-.681.342-1.305l.317-2.375c.048-.366.04-.6-.03-.704-.096-.141-.254-.227-.476-.256l-.22-.03ZM73.436 25.75l1.522.516 2.002 5.363 1.095-3.234c.116-.342.15-.57.101-.683-.062-.151-.204-.263-.424-.34l-.193-.061.052-.155 1.949.661-.05.155-.2-.07c-.237-.081-.43-.063-.577.046-.09.066-.188.257-.294.573l-1.6 4.722-.15-.05-2.165-5.765-1.17 3.454c-.116.343-.151.57-.106.68.065.151.208.264.424.338l.2.064-.052.157-1.95-.661.051-.155.194.066c.24.082.433.067.58-.04.09-.07.19-.26.296-.575l1.32-3.896c-.098-.246-.178-.414-.242-.502a1.416 1.416 0 0 0-.314-.296 1.366 1.366 0 0 0-.348-.16l.05-.151ZM80.257 34.684l-.074.145-2.262-1.15.074-.142.186.093c.218.112.407.129.571.049.105-.05.237-.234.398-.549l1.728-3.413c.136-.265.209-.454.219-.553a.393.393 0 0 0-.075-.248.856.856 0 0 0-.311-.28l-.188-.092.073-.143 2.264 1.148-.073.14-.193-.097c-.214-.106-.405-.122-.568-.046-.106.05-.24.233-.4.552l-1.73 3.41c-.134.267-.207.453-.216.552a.387.387 0 0 0 .077.253c.081.12.184.21.31.273l.19.099ZM89.05 33.62l-.095.133c-.193-.088-.36-.125-.504-.108-.209.028-.444.127-.711.298l-4.584 2.94-.131-.09 1.113-5.453c.056-.277.082-.456.077-.53a.726.726 0 0 0-.098-.329 1.236 1.236 0 0 0-.295-.324l.091-.134 1.981 1.389-.091.133c-.24-.139-.412-.202-.517-.193a.32.32 0 0 0-.248.14c-.084.12-.159.345-.227.672l-.758 3.707 3.113-2.004c.305-.199.494-.35.57-.457.048-.07.06-.16.036-.272-.026-.112-.111-.238-.258-.378l-.052-.055.093-.13 1.494 1.045ZM91.004 35.951l-1.658 1.652.917.922c.237.24.433.362.586.37.201.014.428-.093.679-.32l.113.114-1.459 1.454-.114-.113c.175-.232.277-.393.307-.477a.55.55 0 0 0-.011-.353c-.045-.125-.152-.274-.327-.451l-.916-.924-1.383 1.378c-.185.184-.29.304-.314.362a.269.269 0 0 0-.01.182c.017.066.083.154.199.27l.707.711c.237.235.425.394.564.468.14.076.308.112.502.114.255 0 .579-.06.97-.18l.122.121-1.412.684-3.215-3.231.115-.114.147.148c.098.102.214.171.351.21.1.036.192.031.283-.012.088-.042.236-.163.439-.366l2.726-2.714c.264-.263.403-.451.411-.57.009-.157-.073-.319-.244-.492l-.149-.15.115-.113 3.217 3.231-.873.961-.12-.118c.176-.264.281-.461.311-.6a.702.702 0 0 0-.043-.422c-.052-.111-.18-.27-.387-.481l-1.146-1.15ZM93.141 42.196l.082.116c.021.036.04.063.055.087.324.461.668.739 1.033.831.366.098.703.035 1.012-.182.301-.21.481-.48.539-.804.056-.321-.025-.635-.244-.95a4.002 4.002 0 0 0-.462-.511l-2.015 1.413Zm-.077 5.187-.906-1.294 1.115-3.227c-.09-.12-.161-.216-.216-.294-.021-.03-.044-.063-.067-.101a2.793 2.793 0 0 1-.073-.114l-1.408.985c-.305.218-.47.38-.498.504-.042.162.002.333.128.513l.133.191-.132.093-1.455-2.076.132-.093.127.181c.144.206.314.305.508.3.11-.002.303-.099.579-.292l3.13-2.197c.304-.213.469-.377.498-.497.038-.166-.006-.342-.135-.527l-.127-.18.13-.094 1.24 1.764c.36.515.59.922.686 1.219.094.295.103.6.02.91-.081.315-.26.567-.538.761a1.39 1.39 0 0 1-.981.254c-.356-.041-.72-.23-1.097-.576l-.69 1.973c-.158.454-.231.798-.22 1.036.009.239.094.498.25.784l-.133.094ZM100.225 48.44l-1.846.884-.069-.146c.332-.217.573-.437.724-.66.151-.223.235-.476.25-.76a1.582 1.582 0 0 0-.15-.79 1.05 1.05 0 0 0-.573-.558c-.252-.1-.485-.097-.699.003a.757.757 0 0 0-.364.384c-.118.258-.195.769-.23 1.538-.03.626-.073 1.068-.128 1.315a1.688 1.688 0 0 1-.304.665 1.5 1.5 0 0 1-.54.44c-.405.192-.828.204-1.271.03-.443-.174-.783-.508-1.02-1a2.894 2.894 0 0 1-.172-.456 4.57 4.57 0 0 1-.099-.574c-.04-.295-.075-.477-.108-.545-.033-.069-.076-.11-.135-.128-.056-.019-.152-.009-.283.033l-.07-.144 1.83-.88.07.146c-.35.253-.592.483-.73.69a1.457 1.457 0 0 0-.218.754c-.013.3.047.59.185.874.155.327.364.547.63.654a.904.904 0 0 0 .753-.01.922.922 0 0 0 .345-.297c.1-.137.17-.309.212-.518.03-.138.064-.498.102-1.076.035-.582.087-1.004.145-1.27a1.82 1.82 0 0 1 .294-.68c.137-.186.314-.336.535-.441.382-.183.785-.194 1.203-.032.417.163.734.468.952.924.136.283.208.618.22 1.002.008.18.024.299.052.358.033.069.08.116.142.139.062.024.159.019.297-.015l.068.148ZM96.124 54.424l-.154.05-.814-2.4.154-.05.067.195c.078.233.203.381.373.437.11.037.336 0 .67-.116l3.621-1.23c.285-.093.464-.174.545-.242a.38.38 0 0 0 .12-.227.859.859 0 0 0-.03-.416l-.067-.197.152-.053.815 2.4-.153.053-.069-.2c-.078-.23-.201-.374-.373-.432-.111-.041-.335-.003-.671.113l-3.621 1.225c-.284.097-.465.177-.543.244a.4.4 0 0 0-.12.235.789.789 0 0 0 .029.409l.069.202ZM102.944 58.56l-1.346.338-.033-.16c.232-.078.395-.156.487-.231a.894.894 0 0 0 .294-.427c.049-.163.049-.366 0-.604l-.166-.817-4.428.9c-.357.072-.572.155-.644.248-.098.133-.124.314-.079.538l.041.2-.158.032-.499-2.455.158-.033.041.204c.051.244.16.404.329.477.103.044.318.034.643-.034l4.429-.895-.141-.7c-.056-.27-.113-.46-.177-.565a.829.829 0 0 0-.388-.318c-.177-.072-.396-.093-.663-.06l-.033-.164 1.372-.205.961 4.73ZM103.261 64.155l.047 2.066-.162.001-.004-.112c0-.077-.038-.188-.108-.33a1.243 1.243 0 0 0-.295-.39 3.788 3.788 0 0 0-.622-.427l-2.278-1.376-1.484.033c-.363.01-.589.054-.676.139-.12.112-.177.287-.17.525l.002.194-.161.002-.058-2.513.163-.002.005.208c.005.251.084.425.238.527.093.064.309.09.638.084l1.402-.031 2.442-1.683c.285-.197.464-.332.534-.4.073-.07.155-.213.254-.432a.572.572 0 0 0 .037-.252l.162-.003.057 2.528-.162.005-.002-.133a.788.788 0 0 0-.106-.375.307.307 0 0 0-.289-.166c-.106.002-.292.098-.563.28l-1.88 1.278 1.851 1.118c.277.169.483.25.617.248a.397.397 0 0 0 .216-.067.455.455 0 0 0 .148-.185.902.902 0 0 0 .046-.355l.161-.004Z" fill="#FEFEFE"/><path fill-rule="evenodd" clip-rule="evenodd" d="M68.137 87.705V89.172h2.915v-1.43l-.001-.028v-.04c0-.816-.653-1.474-1.457-1.474-.805 0-1.457.658-1.457 1.474v.031Zm-8.274-.03c0-.817-.653-1.475-1.458-1.475-.804 0-1.459.658-1.459 1.474l.002.04-.002.028v1.43h2.917V87.675Zm6.178-.601a2.053 2.053 0 0 0-2.042-2.066 2.054 2.054 0 0 0-2.042 2.066c0 .02.002.036.004.055 0 .014-.004.026-.004.042v2h4.084v-2l-.002-.051.002-.046Zm17.613-43.99a7.577 7.577 0 0 0-.124-.161c.045.051.088.102.133.157l-.01.005Zm1.123 34.412.952-1.137-1.039-.902-.954 1.136 1.041.903Zm4.813-7.53.426-1.215-1.288-.463-.426 1.217 1.288.461Zm1.447-7.907.082-1-.876-.073-.085 1 .88.073Zm-.703-8.79-.725.136.15.827.726-.136-.151-.826Zm-3.208-7.403-.51.279.308.58.51-.277-.308-.582ZM44.261 76.593l-.951-1.136-1.04.902.952 1.137 1.04-.903Zm-4.566-7.088-.424-1.217-1.29.463.427 1.215 1.287-.46Zm-1.856-7.518-.082-1.001-.877.073.082 1 .877-.072Zm-.324-7.89.726.135.151-.827-.728-.136-.15.827Zm3.05-7.65.509.278.308-.58-.51-.28-.307.583Zm3.773-3.367c.044-.055.087-.106.13-.157l-.124.162-.006-.005Zm49.128 19.635c0 16.491-13.194 29.859-29.467 29.859-16.274 0-29.466-13.368-29.466-29.859 0-15.956 11.254-28.1 26.798-28.927-.136.007-.277.047-.41.072-.774.146-1.543.332-2.306.538-1.155.304-2.31.652-3.437 1.053-1.001.36-1.977.793-2.928 1.277-.94.477-1.824 1.034-2.707 1.61-1.858 1.207-3.636 2.715-5.075 4.585-.043.051-.087.102-.13.157l-.453-.353-.856 1.059.443.394a25.143 25.143 0 0 0-2.904 5.06l-.612-.34s-.482 1.166-.539 1.298c-.194.462-.477 1.36-.477 1.36l.681.266a25.12 25.12 0 0 0-.958 4.743l-.788-.046s-.115 1.2-.12 1.31c-.029.66-.046 1.545-.046 1.545l.816.057.006.066c.015 1.412.148 2.796.386 4.144l-.818.265s.227 1.174.32 1.536c.09.342.06.274.23.9l.845-.193a25.293 25.293 0 0 0 2.041 5.02l-.726.51s.268.494.682 1.175c.182.3.661 1.035.661 1.035l.773-.439a25.433 25.433 0 0 0 3.461 4.061l-.571.64 2.143 1.87.633-.904s3.517 1.863 6.015 1.969l.444-.905 2.373-.129v-.948c-.258 0-2.75.022-2.593-.046 1.386-.592 2.066-3.177 2.066-3.177l.508.617H70.596l.507-.617s.68 2.585 2.066 3.177c.157.068-2.333.047-2.593.046v.949l2.373.128.445.905c2.498-.106 6.015-1.969 6.015-1.969l.633.905 2.142-1.87-.57-.64a25.332 25.332 0 0 0 3.459-4.062l.773.439s.481-.735.664-1.035c.413-.68.681-1.175.681-1.175l-.727-.51a25.2 25.2 0 0 0 2.042-5.02l.844.193c.17-.626.142-.558.231-.9.093-.362.318-1.536.318-1.536l-.816-.265c.238-1.348.37-2.732.384-4.144l.009-.066.816-.057s-.018-.885-.048-1.544c-.005-.112-.119-1.311-.119-1.311l-.788.046a25.118 25.118 0 0 0-.958-4.743l.681-.266s-.282-.898-.477-1.36c-.056-.132-.54-1.298-.54-1.298l-.61.34a25.29 25.29 0 0 0-2.906-5.06l.444-.394-.855-1.06-.452.354a4.528 4.528 0 0 0-.133-.157c-1.438-1.87-3.216-3.378-5.075-4.585-.884-.576-1.767-1.133-2.706-1.61a25.487 25.487 0 0 0-2.928-1.277 42.996 42.996 0 0 0-3.438-1.053 31.022 31.022 0 0 0-2.306-.538c-.132-.025-.274-.065-.409-.072 15.544.827 26.798 12.97 26.798 28.927Z" fill="#007147"/><path fill-rule="evenodd" clip-rule="evenodd" d="M62.635 50.109h2.731V35.863h-2.731v14.246Z" fill="#FEFEFE"/><path fill-rule="evenodd" clip-rule="evenodd" d="M64.513 39.999h4.385v-2.366h-4.385v2.366ZM64.513 44.073h5.16V41.71h-5.16v2.363ZM64.513 48.15h5.934v-2.364h-5.934v2.364ZM53.85 55.884c-2.582 3.788-4.006 8.802-4.006 14.116 0 .654.53 1.186 1.184 1.186.654 0 1.184-.532 1.184-1.186 0-9.838 5.287-17.837 11.787-17.837 6.502 0 11.79 8 11.79 17.837 0 .654.53 1.186 1.184 1.186.652 0 1.182-.532 1.182-1.186 0-5.314-1.421-10.328-4.005-14.116-2.677-3.93-6.282-6.091-10.15-6.091-3.868 0-7.472 2.16-10.15 6.091Z" fill="#FEFEFE"/><path fill-rule="evenodd" clip-rule="evenodd" d="M60.368 51.876v2.872-.042c-.005.174 0 1.076.702 1.8.346.36.987.79 2.056.79h4.264a1.183 1.183 0 1 0 0-2.366h-4.073c-.53-.004-.584-.402-.582-.628v-2.426a1.185 1.185 0 0 0-2.367 0Z" fill="#FEFEFE"/><path fill-rule="evenodd" clip-rule="evenodd" d="M65.266 51.71v3.944c0 .655.529 1.183 1.185 1.183a1.18 1.18 0 0 0 1.18-1.183V51.71a1.18 1.18 0 0 0-1.18-1.18 1.18 1.18 0 0 0-1.185 1.18ZM62.818 56.402v7.1a1.184 1.184 0 0 0 2.366 0v-7.1c0-.652-.53-1.185-1.183-1.185s-1.183.533-1.183 1.185Z" fill="#FEFEFE"/><path fill-rule="evenodd" clip-rule="evenodd" d="M55.05 63.657a1.183 1.183 0 1 0 2.15.989c.965-2.095 3.698-3.505 6.8-3.505 3.103 0 5.836 1.41 6.8 3.505a1.183 1.183 0 1 0 2.15-.989c-1.343-2.92-4.94-4.881-8.95-4.881-4.01 0-7.606 1.96-8.95 4.881Z" fill="#FEFEFE"/><path fill-rule="evenodd" clip-rule="evenodd" d="M57.355 69.544a1.184 1.184 0 0 0 2.367 0A4.281 4.281 0 0 1 64 65.268a4.281 4.281 0 0 1 4.276 4.276 1.184 1.184 0 0 0 2.369 0c0-3.663-2.982-6.642-6.645-6.642a6.65 6.65 0 0 0-6.644 6.642ZM65.848 35.233c0 .655-.828 1.186-1.849 1.186-1.02 0-1.846-.531-1.846-1.186 0-.654.827-1.182 1.846-1.182 1.02 0 1.849.528 1.849 1.182ZM69.349 40.46c-.582 0-1.054-.736-1.054-1.644 0-.91.472-1.646 1.054-1.646.581 0 1.053.736 1.053 1.646 0 .908-.472 1.644-1.053 1.644ZM70.228 44.537c-.582 0-1.054-.737-1.054-1.644 0-.91.472-1.645 1.054-1.645.58 0 1.054.736 1.054 1.645 0 .907-.474 1.644-1.054 1.644ZM71.132 48.612c-.582 0-1.054-.737-1.054-1.644 0-.91.472-1.647 1.053-1.647.583 0 1.053.737 1.053 1.647 0 .907-.47 1.644-1.052 1.644ZM58.182 95.422c.38-.012.668-.183 1.11-.086.003.174.124.275.155.424a.724.724 0 0 1-.044.406c-.054.122-.175.184-.283.246-.117.072-.228.147-.344.223a5.685 5.685 0 0 1-1.006.541c-.126.048-.243.125-.326-.03a.515.515 0 0 1-.025-.356c.102-.081.203-.007.318-.04.107-.03.199-.234.292-.335.122-.132.292-.304.395-.435a.552.552 0 0 0 .114-.276c-.322-.09-.55.109-.751.152-.325.559-.85 1.102-1.128 1.569-.053.078-.273.418-.284.627.01.022.315-.008.342-.01.202-.007.402-.068.604-.089.346-.03.696-.053 1.044-.064.226-.01.451-.01.676-.004.189.007.375.017.56.038.188.025.285.25.17.427-.05.08-.113.051-.172.1-.072.059-.05.146-.13.2-.355.022-.79-.012-1.083-.015-.228 0-.457-.054-.685-.076a6.558 6.558 0 0 0-.818-.017c-.178.008-.356 0-.532.03-.169.028-.333.135-.504.13-.274.528-.638.758-.774 1.468.028.087.124.121.207.124.112.007.125-.019.183-.099.07-.099.163-.159.226-.27.06-.108.106-.228.18-.328.14-.196.267-.457.362-.642.42.041.657.373.628.666 0 .017-.229.158-.259.188a1.49 1.49 0 0 0-.181.255c-.032.055-.366.604-.348.621.134.138.304.236.46.344.1.067.3.15.303.288.006.159-.111.402-.255.471-.518-.118-.69-.303-1.121-.406-.343.418-.997.825-1.46 1.136-.136.089-.311.125-.436.231-.445.373-1.1.543-1.672.554a3.724 3.724 0 0 1-.528-.023 4.332 4.332 0 0 1-.328-.059c-.073-.012-.3-.025-.347-.073-.222-.24-.286-.659.056-.853.541.1.993.351 1.436.308.154-.011.284-.125.433-.185.804-.328 1.744-.792 2.252-1.436-.088-.084-.17-.162-.268-.235-.104-.082-.156-.271-.193-.39a.725.725 0 0 1-.008-.484c.126-.318.544-.579.579-.962 0-.026-.022-.038-.02-.059-.259-.049-.519.069-.736.1a9.977 9.977 0 0 0-1.408.323c-.161.047-.323.014-.474.089-.002-.01.013-.015.013-.03.002.044-.306.058-.33.067-.146.059-.21.188-.401.165-.432-.053-.586-.636-.472-.966 1.545.01 2.936-.253 4.377-.424.198-.333.364-.66.562-.965.087-.136.261-.328.284-.428.048-.118.196-.267.133-.417a.457.457 0 0 0-.172-.03c-.058.006-.151.093-.2.13a2.49 2.49 0 0 0-.194.143 5.636 5.636 0 0 0-.361.313c-.121.111-.24.224-.36.336-.07.066-.13.159-.22.2-.046.024-.076.02-.125.005-.024-.006-.17-.061-.175-.082-.038-.153-.03-.414.035-.642.019-.062.08-.142.09-.191.083-.416.37-.865.464-1.269-.078-.074.023-.186.073-.32.027-.07.18.104.189.117.053.109.079.246.1.363.023.123.025.249.02.37-.003.032-.044.364-.067.357.639.092 1-.316 1.458-.551.145-.431.56-1.098.661-1.645-.074-.126-.138-.163-.091-.316.241-.026.468.078.67.202.094.057.2.092.293.155.035.026.088.07.102.116.008.024-.029.18-.018.182.014.01.018-.001.023-.01.03.355-.4.69-.515 1.123ZM72.19 97.619c-.22.465-.285 1.02-.352 1.442.053.074.004.19.062.317.924.568 2.021 1.19 3.301.745.011-.005.002.156.002.167-.01.088-.08.16-.13.228-.052.075-.078.166-.133.239-.149.194-.368.317-.526.503-.13.148-.356.186-.527.148-.42-.097-.72-.367-1.024-.652-.095-.091-1.013-1.118-1.169-1.022-.092.06-.047.038-.078.132-.047.139-.143.257-.185.391-.067.207-.128.428-.217.626-.082.176-.187.336-.27.51-.074.151-.117.321-.214.458-.246.353-.42.755-.681 1.097-.11.141-.25.256-.34.411-.049-.012-.084.031-.088.102.001-.024-.168.145-.177.158a1.37 1.37 0 0 1-.22.176 2.943 2.943 0 0 1-.624.322c-.024-.056-.046-.115-.1-.134.33-.478.804-1.018 1.041-1.568.432-.569.793-1.291 1.07-1.949a6.64 6.64 0 0 0 .373-1.32c.027-.143.072-.286.073-.431.002-.06.008-.14-.02-.193a.156.156 0 0 0-.102-.075c-.058-.01-.102.052-.15.076-.062.03-.131.024-.198.03-.099.01-.194.055-.294.042a1.646 1.646 0 0 1-.458-.16c-.06-.03-.16-.041-.206-.094a.487.487 0 0 1-.065-.192c-.008-.085.167-.078.218-.097.12-.04.24-.075.358-.118.237-.088.47-.19.683-.33.113-.074.222-.163.316-.263.22-.23.346-.535.395-.847.055-.325-.038-.6-.04-.916-.006-.481.065-.956.047-1.438.214-.306.534-.242.739.023.259.333.104.6.12.968.01.22-.047.424-.094.633-.015.067.003.133-.01.197-.017.078-.053.15-.064.228-.018.147-.018.296.007.439.256-.135.483-.363.83-.368.142.062.374.165.278.334.029.152-.101.372-.18.462-.205.251-.66.432-.976.563ZM40.264 94.96c-.337.192-.422.363-.775.6.139.308.576-.016.781.025-.024-.04.06.004.073-.046-.033-.188.057-.36-.08-.58Zm.894.091a.675.675 0 0 0-.182.302c.164.081.341.046.439-.077.018-.133-.15-.136-.257-.225Zm2.185-5.292c-.06.096-.123.19-.188.285-.127.178-.252.358-.37.542-.059.093-.085.208-.15.297-.139.19-.324.36-.474.544-.128.154-.22.334-.35.49-.081.094-.163.193-.243.29-.18.214-.353.417-.482.662-.042.081-.114.163-.049.237.083.094.243.104.359.094.138-.01.274-.054.405-.1.235-.083.51-.236.766-.21.088.006.435.082.458.194a.35.35 0 0 1-.106.333c-.072.063-.166.058-.251.086-.078.025-.145.075-.222.1a4.158 4.158 0 0 0-.816.413c-.14.088-.276.185-.41.28-.116.083-.215.2-.326.288.244.11.586.11.851.157.148.025.3.049.443.091.247.072.515.106.423.428-.025.088-.059.171-.092.256-.014.04-.316.1-.363.113-.123.03-.237.045-.357.08-.139.045-.327 0-.444.114-.117.115-.01.288.042.412.11.27.29.548.277.846-.008.22-.129.457-.368.447-.059 0-.435.018-.408-.11.02-.105.05-.221.059-.331.013-.166-.03-.353-.067-.512-.031-.146-.256-.564-.45-.505.01.007.014.003.022-.004-.15.02-.636.098-.853.18-.073-.023-.305.062-.424.092-.244.059-.503.091-.716.243-.18.016-.295.174-.492.181-.178-.15-.047-.405-.034-.643.093-.2.225-.365.4-.552.472-.5 1.187-.864 1.743-1.216.005-.075.073-.16.09-.234-.087-.084-.147.002-.218.023-.014-.02.01-.01.02-.025-.486.11-.845.252-1.291.342-.005.02.01.02.014.012-.137.036-.368.11-.548.12-.007.018.008.018.014.009-.529.183-1.17.234-1.777.271-.355.022-.774-.015-1.142-.326-.005-.051.058-.11.033-.155.053-.026.119-.13.1-.169.122-.122.257-.357.445-.477.39-.244.966-.116 1.386-.116.531-.054 1.068-.031 1.6-.102.267-.036.53-.096.779-.197.128-.055.25-.121.364-.197.238-.158.516-.427.695-.65.104-.126.191-.273.279-.411.066-.105.242-.292.27-.41.028-.125.37-.502.521-.582.084-.097.142-.186.237-.277.093-.088.133-.225.201-.331.049-.072.093-.147.14-.218.059-.088.206-.37.337-.358.084-.13.203-.269.257-.41.065-.177.116-.328.23-.481.111-.149.244-.29.315-.467.083-.049.052-.316.097-.406.067-.133.088-.315.135-.459a2.61 2.61 0 0 0 .13-.572c.01-.135.017-.243.105-.352.084-.106.177-.248.307-.15.254.201.304.629.198.915-.045.116-.035.27-.06.353-.004.02-.032-.007-.035-.005-.015.035.015.065.004.106-.034.135-.175.294-.22.439-.09.303-.267.562-.433.826-.109.174-.213.352-.322.529ZM44.989 89.23c-.04-.074 0-.174-.016-.252-.013-.079-.038-.159-.05-.242a.561.561 0 0 1 .003-.24c.008-.032.127-.279.156-.259.511.347.755.925.76 1.532.001.104-.015.293-.117.354-.182.111-.534-.112-.688-.2.036.019.15-.248.155-.28.016-.093-.008-.234-.074-.306-.035-.038-.101-.06-.13-.106Z" fill="#FEFEFE"/><path fill-rule="evenodd" clip-rule="evenodd" d="M44.078 91.037a.13.13 0 0 0-.065.01c-.042.025-.07.096-.086.14-.043.107-.052.228-.07.342-.015.083-.049.54-.18.546-.075.003-.148.01-.225.003a.69.69 0 0 1-.234-.06c-.046-.012-.087-.025-.096-.079-.014-.083-.038-.163-.05-.246a.582.582 0 0 1 .003-.124c.004-.035-.013-.062-.022-.09a.242.242 0 0 1-.01-.103c.003-.038.017-.073.023-.11.004-.037-.018-.074-.012-.103.01-.053.067-.102.108-.134a.785.785 0 0 1 .163-.09c.135-.061.278-.103.418-.156.046-.019.096-.03.14-.058.035-.02.044-.059.06-.095.019-.034.049-.056.07-.09.056-.103.087-.26.187-.345a.471.471 0 0 0 .048-.066c.02-.031.087-.135.182-.166.451.284.974 1.046.256 1.166-.013.063-.09.042-.139.077-.048.032-.118-.022-.155-.05-.056-.039-.112-.095-.178-.123-.042-.02-.091.004-.136.004ZM84.606 92.653c.006.065-.047.132-.08.182-.064.097-.161.172-.253.242-.29-.199-.466-.502-.698-.758-.057-.062-.124-.116-.182-.18-.056-.058-.144-.103-.206-.153a5.825 5.825 0 0 1-.213-.177c-.038-.034-.077-.066-.114-.103-.014-.01-.094-.105-.109-.102.048-.01.08-.104.13-.126.062-.03.143.002.204.02.138.042.256.13.377.208.068.043.139.086.216.111.187.073.402-.005.556.12.11.089.16.217.205.345a1.364 1.364 0 0 0 .15.328c.011.014.016.028.017.043Z" fill="#FEFEFE"/><path fill-rule="evenodd" clip-rule="evenodd" d="M84.627 89.36c.19.201.233.252.233.419 0 .214-.07.487.07.738.202-.046.049-.214.172-.305.108.036.208.164.31.253.106-.127.058-.33.098-.476.024-.097.01-.09.008-.197 0-.139.014-.246-.064-.366-.178-.28-.506-.386-.717-.552-.147.1-.23.207-.328.243.097.055.136.156.218.244Zm.695-1.944c-.088.13-.235.434-.331.605-.022.037-.083.067-.103.103-.06.113-.138.374-.121.476.128.043.305.078.494.146.164.055.444.111.533.218.035.043.065.182.088.265.045.167.067.346-.049.435.144.367-.264.673-.03 1.052.143.026.28.109.408.297.052-.024.033-.057.079-.085-.024-.367.017-.785-.085-1.039.025-.285-.095-.508-.084-.75-.099-.183-.064-.408-.155-.593-.031-.066-.02-.125-.042-.194-.018-.056-.053-.108-.06-.169-.005-.03.006-.065-.002-.095-.018-.067-.06-.127-.085-.191l-.073-.189a1.18 1.18 0 0 0-.1-.188c-.013-.02-.12-.177-.148-.167-.066.02-.064.07-.134.063Zm-2.03.445c.061-.038-.028-.083-.043-.134-.006-.022-.048-.002-.056-.017-.09-.116-.155-.222-.314-.31-.019-.012-.043.01-.059.004-.112-.04-.122-.209-.225-.278.122-.144.224-.2.368-.192.183.009.365.031.55.046.09.01.179.017.271.022.037.002.081-.005.12.002.054.006.062.068.087.106.033.058.078.112.094.175.055.225-.028.445-.023.645 0 .039.037.063.036.096-.003.092-.052.18-.064.263-.03.231.044.49.065.702.028.01.064-.005.096-.038.174-.643.358-1.376.892-1.93.118-.123.249-.241.397-.328.073-.042.153-.077.235-.1.17-.047.254.183.303.296.072.176.147.351.189.538.083.352.115.71.143 1.072.012.173.022.347.048.517.036.33.124.962.407 1.282.213-.419.482-1.022.956-1.356.064-.045.123-.093.2-.117.085-.026.148.044.203.102.053.059.088.13.117.205.054.144.085.302.087.458 0 .309-.11.606-.235.88a7.991 7.991 0 0 1-.138.29c-.024.049-.045.1-.072.148-.024.04-.068.059-.095.1-.037.053-.058.12-.1.174-.02.025-.048.042-.069.069-.021.025-.026.053-.043.078a1.655 1.655 0 0 1-.132.186c-.013.02-.161.178-.157.186.284.655.047 1.304.003 2.004-.085-.114-.137-.292-.2-.405a.657.657 0 0 1-.067-.11c-.093-.033-.362.4-.52.502-.074.045-.157.045-.218.092-.023.018-.12-.118-.133-.132-.059-.091.085-.215.13-.275.083-.111.147-.234.221-.35.134-.215.231-.46.272-.71.023-.148.025-.293.006-.439-.006-.034.097-.143.12-.174.037-.055.074-.115.11-.172a3.558 3.558 0 0 0 .441-1.009c.016-.065.033-.13.045-.193.015-.066.056-.129.061-.195.014-.139-.214.024-.244.05-.107.107-.16.25-.23.382-.047.087-.13.166-.18.27-.021.044-.054.108-.076.165-.046.117-.168.317-.253.519-.02.048-.036.1-.055.151-.01.029-.007.063-.02.088-.013.032-.029.03-.052.042a.344.344 0 0 0-.1.136c-.026.053-.034.11-.055.166-.04.107-.141.178-.18.285-.014.039-.016.08-.036.113-.023.038-.06.065-.086.098-.042.057-.08.116-.12.17a2.728 2.728 0 0 1-.284.37c-.046.047-.08.106-.135.142-.107.075-.08-.15-.077-.205.009-.087.028-.17.051-.256.019-.058.063-.105.094-.156.037-.065.045-.136.089-.194.054-.066.11-.13.164-.197.1-.13.197-.268.256-.42.122-.31-.041-.643-.227-.8-.038-.031-.083-.055-.17-.031-.008.045-.02.072.037.096-.015.094-.216.3-.313.315-.054.01-.279-.103-.327-.092-.268.051-.063.735.025.964.021.238.123.536-.002.759a.472.472 0 0 1-.096.117c-.112.103-.132-.105-.126-.182.004-.068-.038-.134-.041-.208-.004-.084 0-.172-.01-.26a2 2 0 0 0-.028-.18c-.011-.051-.042-.113-.044-.164-.007-.222-.038-.468-.14-.64-.047-.186-.128-.75-.48-.495-.004.07.128.25-.057.321-.48-.098-.952-.646-1.388-.993-.018-.017-.053-.051-.065-.056-.066-.027-.037-.007-.086-.055a.69.69 0 0 0-.16-.101c-.055-.023-.107-.028-.149-.07a.351.351 0 0 0-.101-.074c-.049-.026-.21-.053-.2-.123.011-.073.072-.12.125-.164.043-.031.06-.081.114-.101.056-.024.119-.01.174.008.166.054.32.148.477.221.323.152.63.324.923.534.168.123.319.26.466.408.031.031.073-.022.103 0 .016-.183.115-.473.025-.647-.121-.23-.55-.24-.718-.555.155-.622-.019-1.26-.322-1.747Z" fill="#FEFEFE"/><path fill-rule="evenodd" clip-rule="evenodd" d="M87.594 96.68c.41-.228 1.034-.338 1.398-.812.016-.023-.153-.28-.173-.311a6.496 6.496 0 0 0-.18-.283c-.117-.175-.231-.355-.355-.522-.129-.175-.276-.323-.421-.477-.047-.048-.075-.112-.118-.165.003.007-.16.295-.171.324-.055.125-.103.248-.162.366-.114.246-.254.477-.481.628a.92.92 0 0 1-.231.116c-.044.015-.109.034-.153.022-.056-.021-.108-.095-.151-.135-.048-.04-.096-.065-.057-.13.055-.087.127-.161.196-.238a1.41 1.41 0 0 0 .094-.114c.027-.042.035-.09.076-.123.064-.049.116-.089.16-.155.047-.07.082-.144.135-.212.09-.118.22-.212.29-.34.044-.078.052-.186.101-.29.119-.245.259-.5.372-.76.15-.347.466-.76.736-1.031.129-.024.261-.198.396-.11.093.063.097.234.14.303-.144.689-.681 1.016-1.045 1.535.328.265.627.478.918.724.148.24.416.354.554.56.07.102.125.217.177.328.034.072.07.141.095.214.023.079.015.158.038.23.023.064.068.109.079.15.004.021-.02.044-.019.056.005.02.045.033.044.027.02.094.02.19.036.285.007.043.028.086.033.129.007.07-.076.142-.126.175-.106.072-.277.038-.395.05-.147.015-.293.025-.439.038-.3.022-.606.032-.908.014a3.624 3.624 0 0 1-.368-.044c-.02-.005-.097-.03-.115-.021ZM84.495 93.521c.041 0 .062.064.083.092.027.037.053.07.082.106a.88.88 0 0 0 .09.106c.044.046.077.063.094.13.011.036.023.078.044.113.027.042.052.076.058.128.01.057.005.113.016.167.017.088.04.172.069.256.03.087.065.171.104.256.018.043.038.089.058.13.014.025.04.114.064.127.038.019.08-.023.124-.057.015-.017-.025-.203-.027-.231-.008-.079-.014-.154-.02-.235l-.018-.234c-.006-.049-.03-.105-.012-.15.007-.016.083-.12.098-.11.143.094.193.29.273.364.073.225.2.623.214.915.011.18-.021.555-.138.762-.079.136-.27.082-.451-.013-.254-.136-.433-.43-.558-.64-.058-.252-.058-.449-.126-.65.02-.032-.01-.072.023-.1-.091-.19-.102-.578-.182-.797-.007-.023.008-.08.005-.109-.007-.04-.021-.08-.028-.116a.27.27 0 0 1-.004-.12c.006-.028.023-.082.055-.09h.01Z" fill="#FEFEFE"/></svg>