<svg width="512" height="512" viewBox="0 0 512 512" fill="none" xmlns="http://www.w3.org/2000/svg">
<path fill-rule="evenodd" clip-rule="evenodd" d="M455.813 108.462C462.694 111.167 470.824 109.738 476.386 104.175C483.871 96.6892 483.871 84.5523 476.386 77.0665L434.94 35.6144C427.455 28.1286 415.32 28.1285 407.835 35.6143C402.295 41.155 400.856 49.2437 403.517 56.1085L362.562 74.9829C356.042 77.9874 351.535 84.1452 350.643 91.2688L343.088 151.545C342.733 154.379 346.166 156.059 348.186 154.039L383.668 118.552C383.362 117.407 383.199 116.205 383.199 114.964C383.199 107.314 389.4 101.113 397.049 101.113C404.697 101.113 410.898 107.314 410.898 114.964C410.898 122.614 404.697 128.815 397.049 128.815C395.808 128.815 394.605 128.652 393.461 128.346L358.069 163.743C356.042 165.771 357.742 169.215 360.584 168.838L420.46 160.909C427.447 159.984 433.488 155.579 436.506 149.209L455.813 108.462ZM466.593 94.3806C464.517 96.4571 461.151 96.4571 459.075 94.3806L417.628 52.9285C415.552 50.852 415.552 47.4852 417.628 45.4087C419.705 43.3322 423.071 43.3322 425.147 45.4087L466.593 86.8608C468.67 88.9374 468.67 92.3041 466.593 94.3806Z" fill="#06B30C"/>
<path fill-rule="evenodd" clip-rule="evenodd" d="M127.12 425.155C146.834 435.2 172.642 435.2 224.256 435.2H287.744C339.358 435.2 365.166 435.2 384.88 425.155C402.221 416.319 416.319 402.221 425.155 384.88C435.2 365.165 435.2 339.358 435.2 287.744V256V244.562C435.2 212.665 405.14 189.317 374.235 197.21C338.276 206.394 305.606 173.724 314.79 137.765C322.683 106.86 299.335 76.7998 267.438 76.7998L256 76.7998L224.256 76.7998C172.642 76.7998 146.834 76.7998 127.12 86.8447C109.779 95.6803 95.6805 109.779 86.8448 127.12C76.8 146.834 76.8 172.641 76.8 224.256L76.8 287.744C76.8 339.358 76.8 365.165 86.8448 384.88C95.6805 402.221 109.779 416.319 127.12 425.155ZM290.68 347.339C302.444 355.182 305.623 371.076 297.78 382.84C289.938 394.604 274.044 397.782 262.28 389.94L154.76 318.26C146.06 312.46 141.762 301.952 143.902 291.718C146.043 281.483 154.193 273.58 164.488 271.753L242.2 257.965L142.981 212.733C134.601 208.913 128.919 200.886 128.101 191.712C127.283 182.539 131.456 173.633 139.028 168.391L205.588 122.311C217.213 114.263 233.16 117.163 241.208 128.788C249.256 140.412 246.356 156.36 234.732 164.408L205.221 184.838L338.299 245.506C348.498 250.155 354.486 260.899 353.077 272.018C351.667 283.138 343.188 292.048 332.152 294.006L236.213 311.027L290.68 347.339Z" fill="#06B30C"/>
</svg>
