<svg width="128" height="128" viewBox="0 0 128 128" fill="none" xmlns="http://www.w3.org/2000/svg">
<path d="M81.6 85.3823C72.0414 85.3823 64.1517 77.4883 64.1517 67.5169C64.1517 77.3498 56.2621 85.3823 46.7034 85.3823V84.8283C46.7034 74.9954 54.5931 66.9629 64.1517 66.9629C73.7103 66.9629 81.6 74.8569 81.6 84.8283V85.9362C81.6 93.5533 76.8966 100.062 70.2207 102.694H108L86 63.7776L64 25L42 63.7776L20 102.555H57.7793C51.2552 100.062 46.4 93.4148 46.4 85.7977V85.2438C56.1103 85.2438 63.8483 92.9993 64.1517 102.417C64.6069 92.9993 72.1931 85.3823 81.6 85.3823Z" fill="#AC8005"/>
</svg>
