<svg width="128" height="128" viewBox="0 0 128 128" fill="none" xmlns="http://www.w3.org/2000/svg">
<path d="M21.5 64C21.5 75.2717 25.9777 86.0817 33.948 94.052C41.9183 102.022 52.7283 106.5 64 106.5C75.2717 106.5 86.0817 102.022 94.052 94.052C102.022 86.0817 106.5 75.2717 106.5 64C106.5 52.7283 102.022 41.9183 94.052 33.948C86.0817 25.9777 75.2717 21.5 64 21.5C52.7283 21.5 41.9183 25.9777 33.948 33.948C25.9777 41.9183 21.5 52.7283 21.5 64Z" fill="#E70012"/>
<path d="M42.6054 43.2175L35.1211 50.9313V56.7113H29.0691L21.7549 64L29.3199 71.5395H35.1211V77.0688L42.8604 84.7825L49.7496 77.4938V50.2555L42.6054 43.2175ZM85.3944 43.2175L78.2501 50.2555V77.4938L85.1394 84.7825L92.8786 77.0688V71.5395H98.6799L106.245 64L98.9306 56.7113H92.8786V50.9313L85.3944 43.2175ZM84.3574 42.1805L77.0686 35.1213H71.2886V29.0693L63.9999 21.755L56.4604 29.32V35.1213H50.9311L43.6424 42.4355L50.9311 49.7498H77.3194L84.3574 42.1805ZM84.3574 85.8195L77.3194 78.2503H50.9311L43.6424 85.5645L50.9311 92.8788H56.4604V98.68L63.9999 106.245L71.2886 98.9307V92.8788H77.0686L84.3574 85.8195Z" fill="white"/>
</svg>
