<svg width="628" height="128" viewBox="0 0 628 128" fill="none" xmlns="http://www.w3.org/2000/svg">
<path fill-rule="evenodd" clip-rule="evenodd" d="M64.0014 14L71.6975 21.6987V31.282H81.2921L88.5268 38.5247L79.9768 47.0745H48.0344L39.4761 38.5247L46.7079 31.282H56.3135V21.6876L64.0014 14C91.6135 14 114 36.3776 114 63.9889V64L106.304 71.6959H96.7092V81.282L89.4635 88.5247L80.9162 79.9749V48.0251L89.4745 39.4642L96.7092 46.707V56.3151H106.315L114 64C114 91.6114 91.6135 114 64.0014 114H63.9903L56.3024 106.293V96.707H46.7079L39.4761 89.4642L48.0232 80.9144H79.9656L88.5268 89.4753L81.2838 96.707H71.6865V106.304L63.9903 114C36.3782 113.989 14 91.6003 14 63.9889L21.6962 56.293H31.2824V46.6959L38.5255 39.4642L47.0755 48.014V79.9639L38.5255 88.5137L31.2824 81.282V71.6849H21.685L14 63.9889C14 36.3776 36.3865 14 64.0014 14Z" fill="#E50012"/>
<path fill-rule="evenodd" clip-rule="evenodd" d="M577.973 49.4971C576.014 49.807 575.365 49.0035 576.014 47.0868C577.314 44.0239 579.024 42.565 581.135 42.7378C581.296 43.2204 591.55 43.3685 611.882 43.2204C613.029 43.2204 613.667 43.4562 613.841 43.9361C614.165 44.2597 613.991 44.8273 613.353 45.6307C611.07 48.3729 608.309 49.2613 605.05 48.2851C604.238 47.9643 602.852 47.5694 600.904 47.0868C599.441 46.9141 598.792 47.3967 598.956 48.521V55.7738C599.117 58.675 599.28 61.0854 599.441 63.0241C599.28 66.8822 597.157 68.969 593.097 69.2898C588.865 69.2898 585.531 67.4389 583.095 63.7425C582.435 63.0899 582.197 62.5332 582.358 62.0506C582.682 61.7298 583.247 61.7298 584.059 62.0506C588.452 63.8275 591.137 63.6575 592.124 61.568C592.448 60.9263 592.698 59.7993 592.848 58.1842C593.022 56.7363 593.097 53.8461 593.097 49.4971C592.762 48.3729 591.95 47.6435 590.65 47.3226C586.917 47.3226 582.682 48.0493 577.973 49.4971ZM556.733 49.744C555.597 49.892 554.948 50.2129 554.785 50.6955C554.621 51.0273 554.785 51.5839 555.272 52.3873C557.384 55.9329 560.718 56.2565 565.275 53.3526C565.599 53.2018 565.837 53.2018 566.012 53.3526C566.173 53.5226 566.261 53.8462 566.261 54.326C566.087 58.505 565.926 62.0506 565.773 64.9435C565.438 67.6857 566.411 68.8099 568.697 68.3273C571.469 68.0065 572.605 66.3996 572.106 63.5067C571.943 62.0506 571.793 59.9611 571.618 57.219V50.6955C571.469 49.5712 571.868 48.521 572.843 47.5694C573.004 47.3967 573.179 47.1609 573.328 46.84C574.304 45.7158 574.952 44.8273 575.288 44.1829C575.928 42.7378 576.1 41.7616 575.776 41.2818C575.288 40.7992 574.476 40.9582 573.328 41.7616C567.312 46.2834 561.777 48.9295 556.733 49.744ZM582.358 39.3513C580.897 39.6748 579.999 39.5131 579.675 38.8714C579.511 38.068 579.922 37.1028 580.897 35.9785C582.197 34.6924 583.732 34.0398 585.531 34.0398C586.019 34.3606 587.64 34.6074 590.411 34.7692C593.022 34.9282 597.332 35.0132 603.34 35.0132C604.812 35.8167 604.476 36.8669 602.365 38.153C601.4 38.3038 600.502 38.3888 599.679 38.3888C590.251 38.3888 584.481 38.7096 582.358 39.3513ZM566.012 42.0084C563.401 43.3055 561.53 42.8968 560.391 40.7991C559.255 39.3513 559.906 38.3038 562.353 37.6704C567.223 36.2143 570.981 34.7692 573.578 33.3214C574.39 33.0006 574.878 32.9155 575.03 33.0746C575.202 33.4091 575.116 33.9548 574.792 34.7692C573.492 37.9912 570.568 40.4015 566.012 42.0084ZM498.089 48.0493C498.089 49.1763 497.602 49.6562 496.629 49.4971C492.882 49.3354 490.934 49.7439 490.759 50.6955C489.947 51.9815 489.634 52.87 489.797 53.3526C489.947 53.8462 490.684 54.0052 491.984 53.8462C492.472 53.8462 493.206 53.7584 494.182 53.5994C495.482 53.2786 496.54 53.0318 497.352 52.87C497.84 52.87 498.089 53.1168 498.089 53.5994C498.089 56.6514 498.015 58.4282 497.84 58.9108C497.527 60.3587 496.867 61.483 495.892 62.2864C494.581 65.6702 495.728 67.1153 499.312 66.6354C503.696 64.7077 507.13 61.9656 509.555 58.4282C509.89 57.9374 509.965 57.5398 509.804 57.219C509.641 56.8982 509.316 56.8241 508.829 56.9831C508.017 57.4658 506.88 57.9374 505.42 58.4282C504.932 58.59 504.683 58.675 504.683 58.675C503.696 58.9986 503.297 58.8258 503.46 58.1842V53.5994C503.297 53.1168 503.621 52.87 504.444 52.87H508.579C509.391 52.87 510.051 52.3133 510.539 51.1781C510.702 50.2128 510.367 49.6562 509.555 49.4971H504.184C503.222 48.6937 503.222 47.8902 504.184 47.0868C506.307 47.2349 507.767 46.9141 508.579 46.1106C509.239 44.8273 508.743 44.0239 507.13 43.7003C502.399 44.3447 499.312 44.4187 497.84 43.9361C496.54 43.6153 495.482 44.0239 494.669 45.1481C494.182 45.7898 494.029 46.2834 494.182 46.5932C494.342 46.9141 494.841 47.0868 495.653 47.0868H497.114C497.765 47.0868 498.089 47.3967 498.089 48.0493ZM530.296 45.3949H518.096C517.284 45.3949 516.96 44.9864 517.132 44.1829C517.284 43.3685 517.695 42.9736 518.346 42.9736H530.296C531.444 43.7771 531.444 44.5915 530.296 45.3949ZM530.795 38.3888C530.795 39.3513 530.471 39.7599 529.808 39.5981H518.346C517.37 39.5981 516.96 39.1923 517.132 38.3888C516.96 37.7472 517.284 37.3386 518.096 37.1878H529.57C530.382 37.1878 530.795 37.5854 530.795 38.3888ZM528.847 34.0398H517.132C513.061 32.6057 510.941 33.6422 510.777 37.1878C511.101 38.4738 511.351 40.2425 511.514 42.491C511.675 44.7396 511.753 48.5209 511.753 53.8462C511.589 57.3807 511.026 60.2819 510.051 62.5332C509.067 64.6309 509.316 66.2269 510.777 67.3621C512.249 68.3273 514.036 68.2423 516.148 67.1153C519.396 65.5111 522.816 62.6923 526.4 58.675C528.996 60.9263 531.607 63.3367 534.204 65.917C538.112 68.8099 541.609 67.5979 544.694 62.2864C545.345 60.8496 545.021 60.1119 543.721 60.1119C538.514 59.3085 533.392 57.7016 528.359 55.2912C529.808 54.8086 531.194 54.0052 532.494 52.87C533.63 51.7457 533.306 50.6214 531.518 49.4971C529.734 48.6937 528.758 49.0036 528.597 50.4596C528.273 51.9184 527.372 53.0317 525.901 53.8462C524.939 53.5226 523.964 52.955 522.977 52.1515C522.168 51.6607 521.267 51.4249 520.294 51.4249C519.158 51.5839 518.432 51.9184 518.096 52.3873C517.944 53.0317 518.257 53.5226 519.069 53.8462C520.868 54.8086 522.653 55.9329 524.451 57.219C522.816 58.3542 520.954 59.3935 518.831 60.3587C517.198 61.1621 516.472 60.8496 516.633 59.3935C516.633 58.4283 516.711 56.9832 516.883 55.0445C516.883 53.1168 516.96 51.5839 517.132 50.4596C516.96 49.3354 517.609 48.6937 519.069 48.521C524.451 48.3729 528.597 48.4579 531.518 48.7677C534.778 50.3746 536.488 49.5712 536.651 46.3465C536.488 40.0807 536.565 36.7819 536.89 36.4611C536.89 33.4091 535.016 32.2711 531.283 33.0746C530.795 33.889 529.983 34.2098 528.847 34.0398ZM485.89 44.1829C484.914 42.8969 485.238 42.0852 486.862 41.7616C491.097 40.9582 495.567 37.9912 500.287 32.8387C500.936 32.1861 501.673 32.0381 502.485 32.3479C503.133 32.8388 503.372 33.4722 503.222 34.2866C503.059 34.9282 502.648 35.7317 501.986 36.6969C501.673 37.1878 501.836 37.4236 502.485 37.4236C504.27 37.7472 506.307 37.8212 508.579 37.6704C509.555 37.8212 510.128 38.227 510.289 38.8714C510.128 39.6749 509.555 40.1547 508.579 40.3275C505.495 40.6483 502.56 40.7991 499.788 40.7991C498.976 40.7991 498.253 41.1309 497.602 41.7616C494.669 44.0239 492.718 45.3949 491.746 45.8748C489.309 47.3226 487.35 46.766 485.89 44.1829ZM455.304 54.5618C454.819 55.2172 454.73 55.6121 455.057 55.7738C455.218 56.0947 455.717 56.0947 456.529 55.7738C461.897 53.3526 465.558 50.2128 467.518 46.3465C468.33 43.7771 467.831 41.8494 466.046 40.5633C464.422 40.2425 463.197 40.7991 462.374 42.2552C460.6 45.9516 458.228 50.0648 455.304 54.5618ZM433.59 55.7738C434.563 56.2565 435.211 56.3305 435.538 56.0207C435.873 55.5271 435.788 54.8937 435.3 54.082C433.676 51.8307 432.204 47.8053 430.904 42.0084C430.092 39.5981 428.543 38.6247 426.27 39.1073C424.475 39.5981 423.909 41.3667 424.56 44.4187C425.533 49.5712 428.543 53.3526 433.59 55.7738ZM444.08 57.9374C444.08 58.7518 444.329 59.0726 444.814 58.9108H447.5C447.987 59.0726 448.226 58.7518 448.226 57.9374L447.987 35.4959C447.824 32.9156 448.713 31.6295 450.662 31.6295C453.433 31.9503 454.819 33.719 454.819 36.9328C454.157 42.5651 453.843 49.5712 453.843 57.9374C453.843 58.4283 454.093 58.7518 454.57 58.9108C456.03 59.0726 458.552 59.1577 462.136 59.1577H475.81C477.259 59.3085 477.672 60.0461 477.021 61.3322C474.261 66.8054 469.627 68.4864 463.122 66.3996C447.012 62.6922 433.263 63.0899 421.875 67.5979C420.251 68.2423 418.951 68.2423 417.978 67.5979C417.166 66.6354 417.241 65.4344 418.206 63.9783C419.841 60.7645 422.773 59.3085 426.997 59.6403C433.016 59.6403 436.597 59.3935 437.736 58.9108C438.221 58.7518 438.548 58.4283 438.709 57.9374C438.395 53.2785 438.135 49.0886 437.982 45.3949C437.822 41.3668 437.647 38.3888 437.498 36.4611C437.01 34.0398 438.31 32.7537 441.405 32.6057C443.506 32.7537 444.404 34.2098 444.08 36.9328C443.592 39.1923 443.506 44.5038 443.841 52.87C443.841 55.1295 443.916 56.8241 444.08 57.9374ZM382.751 60.6027C383.238 60.6027 383.563 59.7993 383.734 58.1842C383.563 57.3807 382.013 56.8981 379.089 56.7363C376.482 56.7363 375.096 57.0682 374.943 57.7016C373.971 59.7993 374.458 60.9263 376.407 61.0853C378.366 61.2471 380.475 61.0854 382.751 60.6027ZM372.022 64.9435C372.66 65.2644 373.646 64.9435 374.943 63.9783C377.38 63.1748 380.389 63.2599 383.973 64.2251C386.248 65.0285 387.634 64.1401 388.108 61.568C388.282 59.6403 388.446 57.7016 388.607 55.7738C388.607 53.6734 386.484 53.0317 382.263 53.8462H381.537C380.713 53.6734 379.741 53.5994 378.605 53.5994H374.458C372.172 53.2786 370.548 53.5226 369.575 54.326C368.763 55.1295 368.677 56.2565 369.337 57.7016C369.489 58.505 369.65 59.6402 369.825 61.0853C369.974 63.6575 370.723 64.9435 372.022 64.9435ZM390.555 53.1167C390.879 52.7849 390.968 52.3874 390.804 51.9185C390.48 51.7457 389.906 51.4248 389.094 50.9422C386.171 48.6937 384.546 47.2349 384.211 46.5932C383.734 46.1106 382.911 46.1106 381.775 46.5932C381.126 47.0868 380.963 47.8052 381.287 48.7677C382.099 50.3746 383.801 51.5839 386.409 52.3873C388.044 53.2017 389.419 53.4376 390.555 53.1167ZM367.377 51.1781C366.565 51.6607 366.327 52.2283 366.64 52.87C367.139 53.3526 367.776 53.4376 368.589 53.1167C372.172 51.9815 374.544 51.104 375.67 50.4596C376.98 49.4971 377.141 48.2851 376.168 46.84C374.697 45.8748 373.397 46.0366 372.261 47.3226C371.274 49.2613 369.65 50.5474 367.377 51.1781ZM382.263 42.7378C382.911 42.565 383.399 41.4517 383.734 39.3513C383.734 39.1922 383.399 39.0414 382.751 38.8714H373.472C372.66 39.0414 372.421 39.439 372.746 40.0807C373.233 41.5258 373.732 42.2552 374.209 42.2552C374.858 42.417 376.083 42.565 377.867 42.7378H382.263ZM361.272 36.4611C366.327 36.6201 370.063 36.4611 372.499 35.9785C374.131 35.8167 374.943 35.3259 374.943 34.5224C374.783 34.3606 374.783 34.1248 374.943 33.804C375.096 33.6422 375.182 33.4091 375.182 33.0746C375.182 32.2711 375.755 31.7803 376.895 31.6295C381.287 31.9503 383.399 33.0005 383.238 34.7692C383.075 35.2491 383.399 35.4959 384.211 35.4959C396.575 35.4959 404.229 35.6467 407.153 35.9785C408.126 36.4611 407.638 37.9062 405.69 40.3275C405.041 41.2818 403.73 41.7616 401.782 41.7616C400.321 41.9344 397.885 41.3667 394.463 40.0807C392.018 39.439 390.242 39.1922 389.094 39.3513C388.607 40.4783 387.795 41.6135 386.658 42.7378C390.242 43.2204 392.839 43.2204 394.463 42.7378C397.073 43.0586 398.373 44.1829 398.373 46.1106C398.21 47.0868 398.046 48.2001 397.885 49.4971V52.87C397.885 54.4878 398.046 57.5398 398.373 62.0506C398.523 63.8275 398.697 64.9435 398.858 65.4344C399.346 67.3621 397.711 68.4864 393.978 68.8099C392.991 69.1308 392.503 68.1655 392.503 65.917V60.3587C392.678 56.6513 392.839 54.0052 392.991 52.3873C392.991 51.2631 392.916 50.3746 392.753 49.744V47.8052C392.428 47.0018 391.866 46.4342 391.054 46.1106C383.563 45.4799 375.431 45.4799 366.64 46.1106C365.992 46.4342 365.515 47.6435 365.18 49.744V54.326C365.343 62.3714 361.76 66.8822 354.44 67.8447C351.192 67.5239 350.131 66.2268 351.267 63.9783C358.586 62.5332 361.932 58.3542 361.272 51.4249C361.272 50.6214 361.034 48.7677 360.546 45.8748C360.058 43.6153 360.621 42.417 362.245 42.2552C365.18 43.3685 367.627 43.5412 369.575 42.7378C368.264 41.4517 367.777 40.3275 368.115 39.3513C362.744 39.3513 356.724 40.4783 350.056 42.7378C347.772 42.2552 347.448 40.7992 349.069 38.3888C350.868 36.7819 352.816 35.9785 354.928 35.9785C358.024 36.2993 360.136 36.4611 361.272 36.4611ZM308.734 37.4236C307.271 36.9327 305.724 36.2143 304.1 35.2491C302.953 34.6074 302.628 33.6422 303.113 32.3479C303.776 31.2346 304.826 30.667 306.298 30.667C307.747 30.9769 309.881 31.9503 312.63 33.5572C314.102 35.175 314.102 36.5351 312.63 37.6704C315.726 37.8212 319.462 37.8212 323.858 37.6704C328.414 37.6704 333.222 37.4236 338.255 36.9328C339.231 36.7819 339.48 37.5853 338.992 39.3513C338.829 39.6748 338.743 39.8449 338.743 39.8449C337.931 41.4517 337.119 42.5651 336.307 43.2204C334.359 45.1482 331.512 45.3072 327.765 43.7003C323.37 42.2552 318.65 41.4518 313.617 41.2818C312.805 41.4518 312.478 41.7616 312.63 42.2552V44.1829C312.478 44.9864 312.63 45.3072 313.129 45.1481C316.862 46.1106 319.623 45.9516 321.421 44.6655C324.83 44.0239 326.79 44.9864 327.266 47.5694C326.953 50.3006 326.79 52.8699 326.79 55.2912C326.79 58.505 326.953 61.2471 327.266 63.5067C327.117 65.1135 325.969 66.1528 323.858 66.6354C322.233 66.8054 321.421 66.0788 321.421 64.4609V50.9422C321.421 49.4971 319.95 48.6937 317.026 48.521H313.129C312.317 48.521 311.993 48.8527 312.143 49.4971C312.143 53.5226 312.317 59.1577 312.63 66.3996C312.478 67.8447 311.256 68.8949 308.983 69.5256C307.185 69.6984 306.298 68.969 306.298 67.3621V49.977C306.298 49.3354 305.974 49.0036 305.311 49.0036H300.431C299.131 49.1763 298.482 49.807 298.482 50.9422C298.643 56.8981 297.995 60.7645 296.523 62.5332C292.127 66.3996 288.879 66.4846 286.768 62.769C286.454 61.9656 286.767 61.483 287.751 61.3322C291.651 60.1969 293.771 57.5398 294.087 53.3526C294.087 51.7457 293.837 50.0648 293.361 48.2851V47.5694C292.873 46.2834 293.197 45.2222 294.325 44.4187C295.473 43.7771 296.77 43.8621 298.233 44.6655C298.893 45.1481 300.916 45.3072 304.338 45.1481C305.638 45.3072 306.212 44.7396 306.037 43.4563C306.037 42.0084 305.638 41.2818 304.826 41.2818C295.711 41.6136 289.204 42.417 285.307 43.7003C281.396 45.1481 279.612 44.8273 279.936 42.7378C281.247 39.1922 283.594 37.7472 287.017 38.3888C287.665 38.8714 288.391 39.0414 289.203 38.8714C295.558 38.5479 301.902 38.227 308.235 37.9062C308.895 37.9062 309.058 37.7472 308.734 37.4236ZM215.198 61.0853C215.348 64.1401 217.459 64.6309 221.542 62.5332C223.327 61.4062 226.175 58.7518 230.072 54.5618C230.56 53.9202 230.646 53.4376 230.322 53.1167C229.834 52.7849 229.26 52.7849 228.612 53.1167C223.565 56.0206 220.394 57.5398 219.106 57.7016C216.16 58.505 214.863 59.6402 215.198 61.0853ZM211.767 48.0493C211.767 49.977 213.399 51.1041 216.647 51.4249C220.394 51.9185 224.139 51.5839 227.875 50.4596C228.687 50.1388 229.022 49.7439 228.85 49.2613C228.687 48.7677 228.124 48.4579 227.148 48.2851C222.927 48.2851 219.258 47.3967 216.16 45.6307C213.887 44.9863 212.426 45.7898 211.767 48.0493ZM232.27 47.5694C232.27 46.4342 232.758 45.7898 233.731 45.6307C237.965 44.8273 241.061 43.4562 243.009 41.5258C243.832 40.8839 244.883 40.7224 246.18 41.0459C246.992 41.3668 247.48 41.6876 247.654 42.0084C247.804 42.3293 247.566 42.6528 246.906 42.9736C246.754 43.1327 246.019 43.3685 244.708 43.7003C243.746 44.1829 242.76 44.6655 241.787 45.1481C241.635 45.4799 241.873 45.6307 242.521 45.6307H245.456C246.268 45.6307 247.319 45.0631 248.616 43.9361C249.763 42.491 251.387 42.491 253.499 43.9361C253.987 45.0631 253.585 45.7898 252.277 46.1106C248.541 47.3967 245.282 48.8527 242.521 50.4596C243.333 51.5839 245.282 51.7457 248.378 50.9422C249.677 50.4596 250.329 49.977 250.329 49.4971C249.353 49.1763 248.951 48.6937 249.104 48.0493C249.439 47.5694 250.165 47.3967 251.301 47.5694C254.561 48.0493 256.758 48.7678 257.895 49.744C259.519 51.3481 259.444 52.5491 257.656 53.3526C257.157 53.6734 255.86 53.2018 253.749 51.9185C253.413 52.0665 253.175 52.1515 253.011 52.1515C252.687 52.3133 251.961 52.5491 250.814 52.87C249.19 53.3526 248.378 53.5994 248.378 53.5994C247.566 54.4028 247.654 54.9594 248.616 55.2912C253.338 54.8086 258.781 54.7236 264.976 55.0445C265.788 55.0445 266.999 55.1295 268.623 55.2912H270.582C270.907 55.2912 271.07 55.3653 271.07 55.5271V56.0207C269.122 61.483 265.948 63.5067 261.553 62.0506C255.533 59.7993 252.113 58.675 251.301 58.675C251.149 59.7993 251.703 60.8495 253.011 61.8038C253.987 62.769 256.509 63.9783 260.58 65.4344C262.204 66.0788 263.177 66.8822 263.501 67.8447C263.501 68.4863 263.352 68.969 263.016 69.2898C258.781 68.8099 253.987 66.9563 248.616 63.7425C247.654 63.0899 247.241 62.3714 247.405 61.568C247.241 60.9263 247.881 59.9611 249.353 58.675C248.217 58.3542 247.241 59.1576 246.429 61.0853C244.47 65.1135 241.549 67.5239 237.638 68.3273C232.758 69.1307 229.346 68.1655 227.387 65.4344C227.226 65.2643 227.55 65.1135 228.362 64.9435C235.194 65.1135 239.262 63.0241 240.562 58.675C234.867 59.1577 230.646 59.9611 227.875 61.0853C227.387 61.4062 227.062 61.4062 226.91 61.0853C226.738 60.9263 226.738 60.5177 226.91 59.8761C227.55 57.9374 228.85 56.5773 230.809 55.7738C231.283 55.6121 231.946 55.5271 232.758 55.5271H233.481C233.98 55.8479 234.382 55.9329 234.717 55.7738C237.153 55.7738 239.351 55.6121 241.299 55.2912C241.787 55.2912 242.034 55.0444 242.034 54.5618C241.873 53.9202 241.549 53.5226 241.061 53.3526C239.437 53.5226 237.477 54.0052 235.194 54.8086C233.731 54.9595 232.918 54.326 232.758 52.87C232.594 51.9185 233.082 51.2631 234.229 50.9422C237.314 50.4596 239.75 49.5712 241.549 48.2851C239.262 48.1261 236.904 48.3729 234.468 49.0036C232.996 49.3354 232.27 48.8528 232.27 47.5694ZM237.153 42.2552C237.965 42.2552 238.29 42.0852 238.126 41.7616C236.666 40.7991 235.768 39.6749 235.441 38.3888C235.116 37.2646 234.543 36.6201 233.731 36.4611C231.946 36.7819 230.809 37.5854 230.322 38.8714C230.646 41.1309 232.918 42.2552 237.153 42.2552ZM227.636 43.2204C226.661 43.3685 225.438 43.3685 223.978 43.2204C222.354 43.0587 221.043 42.7378 220.07 42.2552C215.198 40.9582 213.563 39.0414 215.198 36.4611C216.647 34.8432 218.119 34.5224 219.582 35.4959C222.179 38.068 224.951 39.9957 227.875 41.2818C228.534 41.7616 228.85 42.2552 228.85 42.7378C228.687 43.0586 228.285 43.2204 227.636 43.2204ZM253.749 40.7991C257.321 41.1309 259.768 40.2425 261.068 38.153C260.092 35.4109 258.468 34.3606 256.185 35.0132C255.533 36.7819 254.397 38.3888 252.762 39.8449C252.449 40.1547 252.363 40.4015 252.515 40.5633C252.515 40.7224 252.936 40.7991 253.749 40.7991ZM233.245 33.804C241.374 34.1248 248.541 33.2364 254.713 31.1469C255.697 30.9769 256.345 31.4677 256.672 32.6057C256.672 33.719 255.86 34.5224 254.236 35.0132C252.449 35.6467 249.677 36.0525 245.944 36.2143C246.268 36.8669 246.842 37.8212 247.654 39.1073C247.967 39.5981 248.217 39.8449 248.378 39.8449C248.378 40.1547 248.053 40.3275 247.405 40.3275C242.521 40.3275 240.737 39.0414 242.034 36.4611C240.249 36.6201 238.45 36.6201 236.665 36.4611C234.717 36.2993 233.331 36.0525 232.519 35.7317C231.544 35.4109 231.134 35.0133 231.283 34.5224C231.458 34.0398 232.106 33.804 233.245 33.804ZM157.278 37.9062C161.826 38.068 165.085 37.9062 167.033 37.4236C167.368 37.4236 167.521 37.1027 167.521 36.4611V32.6057C167.693 31.4677 168.993 30.9769 171.429 31.1469C173.541 31.4677 174.688 32.2711 174.838 33.5572V36.4611C174.688 37.2645 175.012 37.5854 175.824 37.4236H189.485C190.948 38.8714 190.46 39.9957 188.024 40.7991H175.824C175.012 40.9582 174.688 41.4518 174.838 42.2552C181.68 48.2001 190.297 52.5491 200.712 55.2912C201.211 55.6121 201.211 56.1797 200.712 56.9831C199.077 60.1969 196.48 61.8888 192.907 62.0506C191.109 62.3714 189.16 61.0853 187.04 58.1842C184.288 55.453 180.38 51.9185 175.336 47.5694C175.012 47.3967 174.838 47.3967 174.838 47.5694V56.7363C174.688 57.5398 175.012 57.8716 175.824 57.7016H181.68C182.817 57.8716 183.39 58.505 183.39 59.6403C183.39 60.6027 182.817 61.0853 181.68 61.0853H175.824C175.012 61.0853 174.688 61.4062 174.838 62.0506V66.8822C174.513 68.1655 173.214 69.0567 170.941 69.5256C168.993 69.6984 168.006 69.1307 168.006 67.8447V62.0506C168.006 61.4062 167.693 61.0853 167.033 61.0853H163.621C162.973 61.0853 161.501 61.4062 159.226 62.0506C157.929 62.0506 157.43 61.568 157.765 60.6027C160.689 57.3807 162.973 56.4155 164.597 57.7016H167.033C167.693 57.8716 168.006 57.5398 168.006 56.7363V48.521C167.845 47.7175 167.693 47.3967 167.521 47.5694C163.937 50.9423 158.577 55.453 151.411 61.0853C149.786 62.3714 147.675 62.854 145.078 62.5332C142.143 61.8888 141.17 60.7645 142.143 59.1577C151.909 54.8086 159.065 50.4596 163.621 46.1106C165.085 44.9864 166.382 43.5413 167.521 41.7616C167.693 41.2817 167.521 40.9582 167.033 40.7991C161.673 40.7991 156.466 41.6136 151.411 43.2204C149.473 43.5413 149.473 42.2552 151.411 39.3513C152.882 37.4236 154.833 36.9327 157.278 37.9062Z" fill="#231815"/>
<path fill-rule="evenodd" clip-rule="evenodd" d="M449.517 94.6899C450.962 93.4609 452.187 93.2393 452.104 90.6138C452.053 88.7201 450.994 87.5427 449.204 86.8702C447.028 86.0432 438.945 86.1951 436.222 86.3265L436.254 102.832L438.924 102.801L439.007 95.6946C440.84 95.6946 446.2 95.4447 447.593 96.0682C449.885 97.0937 448.829 100.417 449.466 102.669C450.461 103.012 451.779 102.852 452.889 102.852C452.334 101.706 452.021 102.71 451.873 100.889C451.581 97.1761 452.219 96.3594 449.517 94.6899ZM438.934 88.0966C442.014 88.0966 449.392 86.9295 449.298 91.0364C449.204 94.9501 442.064 93.8242 438.956 93.8242L438.934 88.0966Z" fill="#231815"/>
<path fill-rule="evenodd" clip-rule="evenodd" d="M596.75 105.347V86.5425H599.516V95.8664L609.887 86.5425H613.62L604.874 94.1627L614 105.347H610.365L602.933 95.8548L599.516 98.8406V105.347H596.75ZM575.8 105.347V86.5425H578.63L589.579 101.306V86.5425H592.226V105.347H589.393L578.447 90.5837V105.347H575.8ZM560.1 97.6253H567.218L565.038 92.4125C564.385 90.8221 563.888 89.5167 563.541 88.4846C563.258 89.7086 562.877 90.9122 562.391 92.1071L560.1 97.6253ZM554.101 105.347L562.108 86.5425H565.135L573.639 105.347H570.495L568.085 99.646H559.297L557.031 105.347H554.101ZM539.605 103.146H544.805C545.694 103.146 546.321 103.112 546.691 103.053C547.321 102.952 547.852 102.78 548.276 102.542C548.71 102.295 549.057 101.951 549.337 101.486C549.61 101.033 549.74 100.498 549.74 99.896C549.74 99.1924 549.546 98.5906 549.143 98.0673C548.74 97.5469 548.188 97.1834 547.482 96.9654C546.777 96.7618 545.757 96.6601 544.435 96.6601H539.605V103.146ZM539.605 94.4447H544.119C545.335 94.4447 546.224 94.3778 546.746 94.2295C547.451 94.0376 547.982 93.7295 548.34 93.2876C548.688 92.8456 548.871 92.2991 548.871 91.6391C548.871 91.0169 548.71 90.4587 548.374 89.9935C548.038 89.5167 547.56 89.1882 546.952 89.005C546.332 88.8364 545.268 88.7433 543.783 88.7433H539.605V94.4447ZM536.839 105.347V86.5425H544.663C546.257 86.5425 547.538 86.7227 548.504 87.1094C549.468 87.4844 550.218 88.0747 550.759 88.8684C551.312 89.6533 551.584 90.482 551.584 91.3571C551.584 92.1508 551.334 92.9125 550.857 93.616C550.379 94.3313 549.643 94.9012 548.665 95.3431C549.935 95.6716 550.901 96.2385 551.584 97.0467C552.256 97.8521 552.604 98.7941 552.604 99.896C552.604 100.783 552.387 101.6 551.976 102.361C551.562 103.112 551.054 103.702 550.446 104.112C549.837 104.519 549.079 104.827 548.165 105.042C547.254 105.246 546.127 105.347 544.794 105.347H536.839ZM506.06 105.347V86.5425H508.826V103.146H519.08V105.347H506.06ZM490.46 97.6253H497.567L495.387 92.4125C494.734 90.8221 494.237 89.5167 493.887 88.4846C493.606 89.7086 493.226 90.9122 492.748 92.1071L490.46 97.6253ZM484.449 105.347L492.457 86.5425H495.495L503.988 105.347H500.841L498.433 99.646H489.646L487.38 105.347H484.449ZM479.111 105.347H481.878V86.5425H479.111V105.347ZM472.462 98.7505L475.228 99.3872C474.654 101.431 473.612 102.986 472.115 104.053C470.607 105.132 468.774 105.667 466.602 105.667C464.358 105.667 462.533 105.257 461.125 104.429C459.714 103.6 458.65 102.408 457.911 100.841C457.187 99.2709 456.817 97.6021 456.817 95.8082C456.817 93.8429 457.228 92.1391 458.053 90.6738C458.889 89.2201 460.072 88.1212 461.602 87.3594C463.13 86.5977 464.813 86.2227 466.646 86.2227C468.741 86.2227 470.488 86.6995 471.907 87.6531C473.329 88.6183 474.317 89.9587 474.881 91.6973L472.168 92.2758C471.69 90.9123 470.985 89.915 470.074 89.2899C469.152 88.6648 467.99 88.348 466.602 88.348C464.996 88.348 463.663 88.6997 462.589 89.3917C461.514 90.0836 460.755 91.0169 460.322 92.174C459.886 93.3428 459.67 94.5464 459.67 95.7966C459.67 97.3869 459.931 98.7853 460.442 99.9774C460.95 101.169 461.764 102.065 462.85 102.658C463.933 103.248 465.105 103.542 466.374 103.542C467.916 103.542 469.218 103.135 470.29 102.338C471.365 101.533 472.082 100.341 472.462 98.7505ZM417.184 105.347V86.5425H432.243V88.7433H419.95V94.5261H431.451V96.727H419.95V103.146H432.743V105.347H417.184ZM392.785 105.347V86.5425H396.928L401.856 99.8524C402.322 101.088 402.647 102.021 402.853 102.646C403.091 101.952 403.472 100.954 403.972 99.6256L408.993 86.5425H412.693V105.347H410.035V89.6184L403.95 105.347H401.464L395.442 89.3249V105.347H392.785ZM368.516 105.347V86.5425H372.649L377.587 99.8524C378.042 101.088 378.378 102.021 378.584 102.646C378.823 101.952 379.192 100.954 379.7 99.6256L384.724 86.5425H388.413V105.347H385.766V89.6184L379.678 105.347H377.184L371.163 89.3249V105.347H368.516ZM347.913 96.2385C347.913 98.5005 348.596 100.283 349.941 101.588C351.299 102.885 352.99 103.542 355.029 103.542C357.101 103.542 358.817 102.885 360.161 101.568C361.497 100.248 362.169 98.387 362.169 95.9681C362.169 94.4446 361.886 93.1043 361.311 91.9705C360.736 90.8337 359.9 89.947 358.795 89.3249C357.687 88.6998 356.451 88.3799 355.073 88.3799C353.121 88.3799 351.438 88.9817 350.029 90.1854C348.618 91.4006 347.913 93.4126 347.913 96.2385ZM345.061 96.195C345.061 93.0724 345.991 90.6302 347.858 88.8684C349.713 87.1094 352.113 86.2227 355.062 86.2227C356.984 86.2227 358.72 86.6443 360.27 87.4729C361.811 88.2898 362.994 89.4498 363.808 90.9355C364.622 92.4124 365.022 94.0929 365.022 95.9798C365.022 97.887 364.6 99.5907 363.741 101.088C362.886 102.6 361.681 103.737 360.117 104.507C358.545 105.28 356.854 105.667 355.04 105.667C353.076 105.667 351.329 105.234 349.768 104.382C348.227 103.53 347.055 102.361 346.263 100.884C345.461 99.4075 345.061 97.8405 345.061 96.195ZM339.723 98.7505L342.489 99.3872C341.914 101.431 340.872 102.986 339.375 104.053C337.878 105.132 336.034 105.667 333.873 105.667C331.629 105.667 329.804 105.257 328.396 104.429C326.985 103.6 325.911 102.408 325.183 100.841C324.447 99.2709 324.078 97.6021 324.078 95.8082C324.078 93.8429 324.489 92.1391 325.325 90.6738C326.149 89.2201 327.333 88.1212 328.863 87.3594C330.39 86.5977 332.074 86.2227 333.907 86.2227C336.001 86.2227 337.759 86.6995 339.178 87.6531C340.6 88.6183 341.589 89.9587 342.142 91.6973L339.439 92.2758C338.95 90.9123 338.245 89.915 337.334 89.2899C336.412 88.6648 335.262 88.348 333.862 88.348C332.268 88.348 330.924 88.6997 329.849 89.3917C328.785 90.0836 328.016 91.0169 327.594 92.174C327.158 93.3428 326.93 94.5464 326.93 95.7966C326.93 97.3869 327.191 98.7853 327.702 99.9774C328.221 101.169 329.024 102.065 330.11 102.658C331.193 103.248 332.376 103.542 333.646 103.542C335.187 103.542 336.49 103.135 337.551 102.338C338.625 101.533 339.342 100.341 339.723 98.7505ZM296.737 105.347V97.3869L288.699 86.5425H292.018L296.14 92.2322C296.912 93.2875 297.626 94.3429 298.278 95.3983C298.917 94.4127 299.678 93.3108 300.578 92.0839L304.625 86.5425H307.846L299.514 97.3869V105.347H296.737ZM278.359 105.347V88.7433H271.491V86.5425H288.005V88.7433H281.125V105.347H278.359ZM265.428 105.347H268.194V86.5425H265.428V105.347ZM258.776 98.7505L261.553 99.3872C260.967 101.431 259.937 102.986 258.429 104.053C256.932 105.132 255.087 105.667 252.918 105.667C250.682 105.667 248.849 105.257 247.438 104.429C246.039 103.6 244.967 102.408 244.239 100.841C243.5 99.2709 243.131 97.6021 243.131 95.8082C243.131 93.8429 243.544 92.1391 244.38 90.6738C245.203 89.2201 246.386 88.1212 247.916 87.3594C249.446 86.5977 251.127 86.2227 252.971 86.2227C255.054 86.2227 256.812 86.6995 258.223 87.6531C259.645 88.6183 260.642 89.9587 261.195 91.6973L258.484 92.2758C258.006 90.9123 257.301 89.915 256.39 89.2899C255.468 88.6648 254.307 88.348 252.918 88.348C251.324 88.348 249.977 88.6997 248.902 89.3917C247.83 90.0836 247.08 91.0169 246.647 92.174C246.202 93.3428 245.986 94.5464 245.986 95.7966C245.986 97.3869 246.244 98.7853 246.755 99.9774C247.277 101.169 248.08 102.065 249.163 102.658C250.249 103.248 251.432 103.542 252.69 103.542C254.24 103.542 255.543 103.135 256.606 102.338C257.681 101.533 258.406 100.341 258.776 98.7505ZM221.714 105.347H224.481V86.5425H221.714V105.347ZM199.703 105.347L207.763 95.5931L200.667 86.5425H203.944L207.752 91.3571C208.544 92.3456 209.088 93.1044 209.402 93.6394C209.88 92.9794 210.433 92.2874 211.071 91.5489L215.237 86.5425H218.265L211.018 95.4797L218.817 105.347H215.424L210.16 98.6371C209.858 98.2621 209.574 97.887 209.305 97.5003C208.838 98.1371 208.511 98.5789 208.305 98.829L203.011 105.347H199.703ZM180.737 105.347V86.5425H183.581L194.526 101.306V86.5425H197.184V105.347H194.343L183.398 90.5837V105.347H180.737ZM161.395 105.347V86.5425H176.462V88.7433H164.161V94.5261H175.671V96.727H164.161V103.146H176.962V105.347H161.395ZM144.556 103.146H149.752C150.644 103.146 151.271 103.112 151.63 103.053C152.26 102.952 152.802 102.78 153.224 102.542C153.649 102.295 154.007 101.951 154.277 101.486C154.56 101.033 154.69 100.498 154.69 99.896C154.69 99.1924 154.493 98.5906 154.093 98.0673C153.69 97.5469 153.138 97.1834 152.432 96.9654C151.727 96.7618 150.708 96.6601 149.374 96.6601H144.556V103.146ZM144.556 94.4447H149.069C150.285 94.4447 151.163 94.3778 151.694 94.2295C152.399 94.0376 152.932 93.7295 153.28 93.2876C153.638 92.8456 153.821 92.2991 153.821 91.6391C153.821 91.0169 153.649 90.4587 153.321 89.9935C152.985 89.5167 152.519 89.1882 151.891 89.005C151.283 88.8364 150.219 88.7433 148.722 88.7433H144.556V94.4447ZM141.778 105.347V86.5425H149.61C151.207 86.5425 152.488 86.7227 153.452 87.1094C154.407 87.4844 155.165 88.0747 155.71 88.8684C156.251 89.6533 156.523 90.482 156.523 91.3571C156.523 92.1508 156.285 92.9125 155.807 93.616C155.318 94.3313 154.602 94.9012 153.616 95.3431C154.885 95.6716 155.851 96.2385 156.523 97.0467C157.207 97.8521 157.543 98.7941 157.543 99.896C157.543 100.783 157.337 101.6 156.923 102.361C156.512 103.112 156.001 103.702 155.396 104.112C154.788 104.519 154.027 104.827 153.116 105.042C152.194 105.246 151.077 105.347 149.741 105.347H141.778Z" fill="#231815"/>
</svg>
