<svg width="128" height="128" viewBox="0 0 128 128" fill="none" xmlns="http://www.w3.org/2000/svg">
<path d="M54.9785 60.6775L82.4195 61.0025V80.98L54.9785 87.8225V60.6775ZM83.92 61.002L105.904 61.238V74.828L83.9195 80.5545L83.92 61.002Z" fill="#154580"/>
<path d="M83.92 59.437L105.904 60.144V51.74L83.92 43.86V59.437ZM55.125 58.86L82.42 59.437V43.325L59.845 34.613C57.9065 33.884 55.125 35.3055 55.125 37.383V58.8595V58.86Z" fill="#4CBA5D"/>
<path d="M53.4785 60.6777V88.4162L22 97.4937V66.1457C22 63.2657 24.415 60.3857 28.805 60.4217L53.4785 60.6777Z" fill="#154580"/>
<path d="M83.9197 41.7844L105.903 50.2394V42.9814L87.3232 30.9314C85.3102 29.7299 83.9192 31.2229 83.9192 33.1564V41.7844H83.9197Z" fill="#E64729"/>
</svg>
