<svg width="128" height="128" viewBox="0 0 128 128" fill="none" xmlns="http://www.w3.org/2000/svg">
<path d="M52.9098 80.4585C51.7868 79.8616 50.8474 78.9703 50.1924 77.8802C49.5373 76.7901 49.1913 75.5423 49.1913 74.2705V23.2025C29.8933 30.382 18.5343 51.5915 22.2023 71.8355C24.0623 76.357 31.0683 80.4585 37.6373 80.4585H52.9093H52.9098Z" fill="#CC201E"/>
<path d="M58.3375 49.5055H74.725C75.849 49.5095 76.956 49.7855 77.95 50.309H92.722C97.6545 50.275 102.377 52.649 105.959 56.4805C101.548 33.409 80.6325 18.8805 58.3375 21.948V49.5055ZM74.0505 80.4435H37.903C31.9645 80.51 25.756 76.596 22.2025 71.8355C25.2885 84.8545 34.8605 96.8285 47.075 102.278C59.289 107.728 73.7075 106.986 85.45 100.583C80.8385 94.9875 80.2125 83.413 80.357 76.904C79.095 79.094 76.5775 80.444 74.0505 80.4435Z" fill="#EE7E18"/>
<path d="M92.6051 50.31H77.9501C78.7402 50.9702 79.3754 51.7963 79.8104 52.7295C80.2454 53.6628 80.4696 54.6804 80.4671 55.71V73.478C80.4666 73.69 80.4551 73.9025 80.4336 74.1135H80.4546C80.4546 74.4545 80.4206 74.8205 80.4041 75.2035C80.2111 79.6865 80.0266 94.2045 85.1141 100.233H85.1436C92.9616 109.123 106.5 105.085 106.5 105.085V63.27C106.499 60.996 106.318 58.7256 105.959 56.48C104.327 54.5296 102.283 52.9648 99.9737 51.8979C97.6649 50.831 95.1484 50.2886 92.6051 50.3095V50.31Z" fill="#CC201E"/>
</svg>
