<svg width="469" height="128" viewBox="0 0 469 128" fill="none" xmlns="http://www.w3.org/2000/svg">
<path d="M188.591 101.597L180.667 84.9303H179.461L172.14 102.2C170.934 104.569 170.934 105.774 169.082 105.774V106.377H175.8V105.774C174.595 105.774 173.346 105.774 173.346 104.569C173.346 103.966 173.949 102.803 174.552 100.391H181.873C182.476 100.994 183.682 103.363 183.682 104.569C183.682 105.774 183.079 105.774 181.227 105.774V106.377H192.209V105.774C190.4 105.774 190.4 104.569 188.591 101.597V101.597ZM178.212 91.4764L181.27 98.6255H175.154L178.212 91.4764V91.4764ZM210.512 85.3179V85.9209C212.967 85.9209 213.57 87.1267 213.57 88.8924V98.4101L201.985 85.3179H194.664V85.9209C195.267 85.9209 195.267 85.9209 197.721 88.2895V103.19C197.721 104.956 197.118 105.559 194.664 105.559V106.162H202.588V105.559C200.133 105.559 199.53 104.956 199.53 102.588V90.0983L214.776 106.765H215.981V88.2895C215.981 87.0837 215.981 85.9209 218.436 85.9209L217.833 85.3179H210.512V85.3179ZM243.458 105.172C243.458 105.172 233.682 94.448 233.079 93.2421C238.548 87.9019 240.4 86.0931 244.061 86.0931V85.4902H234.285V86.0931C236.739 86.0931 237.342 86.6961 237.342 87.299C237.342 87.9019 237.342 87.9019 236.137 89.0647C236.137 89.0647 230.021 94.4049 228.815 95.6108V89.0647C228.815 86.6961 230.021 86.696 231.873 86.0931V85.4902H220.288V86.0931C222.097 86.0931 223.346 86.0931 223.346 88.4618V103.966C223.346 105.731 222.14 105.731 220.288 106.334V106.937H231.873V106.334C230.064 106.334 228.815 105.731 228.815 103.966V98.0225L229.418 97.4196L235.534 104.569C236.137 105.172 236.137 105.774 236.137 105.774C236.137 106.377 235.534 106.377 233.682 106.377V106.98H245.267V105.774C244.664 105.774 244.061 105.774 243.458 105.172ZM256.249 95.6539C256.249 98.6254 257.454 101.597 259.909 104.009C262.364 105.774 265.379 106.98 268.436 106.98C272.097 106.98 275.155 105.774 276.963 104.009C279.418 102.243 280.624 99.2284 280.624 95.6539C280.624 89.1078 275.758 84.3274 268.436 84.3274C261.115 84.3274 256.249 89.1078 256.249 95.6539ZM268.436 86.0931C273.906 86.0931 274.552 90.2706 274.552 96.2137C274.552 102.157 272.743 106.334 268.436 106.334C264.776 106.334 262.321 102.157 262.321 96.2137C262.321 90.2706 263.57 86.0931 268.436 86.0931ZM282.476 84.9303V85.5333C284.285 85.5333 285.534 85.5333 285.534 87.9019V103.406C285.534 105.172 284.328 105.172 282.476 105.774V106.377H294.664V105.774C292.209 105.774 291.003 105.774 291.003 103.406V96.2568C295.267 96.2568 295.87 98.6254 295.87 101.037H296.473V90.3136H295.87C295.267 92.6823 295.267 95.094 291.003 95.094V87.945C291.003 86.7391 291.606 86.7391 293.458 86.7391C299.573 86.7391 300.176 88.5048 300.779 92.0794H301.382L301.985 84.9303H282.476ZM332.045 96.6875C331.184 95.8692 329.677 95.3093 327.566 95.0509C329.375 94.448 332.433 93.8451 332.433 90.2706C332.433 86.696 329.375 84.9303 323.303 84.9303H312.924V85.5333C314.733 85.5333 315.982 85.5333 315.982 87.9019V103.406C315.982 105.172 314.776 105.172 312.924 105.774V106.377H323.906C331.227 106.377 333.682 102.157 333.682 100.434C333.682 98.6685 332.907 97.5057 332.045 96.6875ZM322.097 87.299C322.097 86.6961 322.097 86.0931 323.906 86.0931C326.361 86.0931 327.782 87.9019 327.566 90.2706C327.351 92.6392 326.361 94.448 322.097 94.448V87.299V87.299ZM322.7 95.6539C325.155 95.6539 327.566 96.2568 327.566 100.434C327.566 103.406 326.361 105.215 323.303 105.215C322.7 105.215 322.097 105.215 322.097 103.449V95.6969H322.7V95.6539ZM166.843 96.6875C165.981 95.8692 164.474 95.3093 162.364 95.0509C164.173 94.448 167.23 93.8451 167.23 90.2706C167.23 86.696 164.173 84.9303 158.1 84.9303H147.721V85.5333C149.53 85.5333 150.779 85.5333 150.779 87.9019V103.406C150.779 105.172 149.573 105.172 147.721 105.774V106.377H158.703C166.024 106.377 168.479 102.157 168.479 100.434C168.436 98.6685 167.704 97.5057 166.843 96.6875ZM156.851 87.299C156.851 86.6961 156.851 86.0931 158.66 86.0931C161.115 86.0931 162.536 87.9019 162.321 90.2706C162.105 92.6392 161.115 94.448 156.851 94.448V87.299V87.299ZM157.497 95.6539C159.952 95.6539 162.364 96.2568 162.364 100.434C162.364 103.406 161.158 105.215 158.1 105.215C157.497 105.215 156.894 105.215 156.894 103.449V95.6969H157.497V95.6539ZM347.076 105.172C344.621 105.172 344.018 104.569 344.018 103.406V95.6539C347.076 95.6539 348.884 96.2568 349.487 100.434H350.09V89.7107H349.487C348.884 93.2852 347.033 94.4911 344.018 94.4911V87.342C344.018 86.1362 344.621 86.1362 346.473 86.1362C351.339 86.1362 353.191 86.7391 354.397 91.4764H355V84.9303H335.491V85.5333C337.3 85.5333 338.548 85.5333 338.548 87.9019V103.406C338.548 105.172 337.343 105.172 335.491 105.774V106.377H355.603L356.809 99.8313H356.206C353.794 104.569 350.133 105.172 347.076 105.172ZM359.263 84.9303V86.1362C361.072 86.1362 362.321 86.1362 362.321 88.5048V104.009C362.321 105.774 361.115 105.774 359.263 106.377V106.98H371.451V106.377C369.642 106.377 368.393 106.377 368.393 104.009V88.5048C368.393 86.7391 369.599 86.7391 371.451 86.1362V85.5333H359.263V84.9303V84.9303ZM376.964 84.9303V86.1362C378.772 86.1362 380.021 86.1362 380.021 88.5048V105.774C380.021 106.98 380.021 108.143 378.213 108.143C377.61 108.143 377.05 107.885 377.007 107.54C376.964 107.196 377.093 106.937 377.567 106.937C378.04 106.937 378.256 106.334 378.256 105.731C378.256 103.966 376.447 103.363 375.801 103.363C374.595 103.363 373.346 103.966 373.346 105.731C373.346 105.731 373.346 109.909 379.462 109.909C381.916 109.909 383.122 109.306 384.328 108.703C386.137 107.497 386.783 105.731 386.783 102.76V89.0647C386.783 86.6961 387.989 86.696 389.841 86.0931V85.4902H377.05V84.9303H376.964ZM391.003 84.9303V86.1362C392.812 86.1362 394.061 86.1362 394.061 88.5048V104.009C394.061 105.774 392.855 105.774 391.003 106.377V106.98H403.191V106.377C401.382 106.377 400.133 106.377 400.133 104.009V88.5048C400.133 86.7391 401.339 86.7391 403.191 86.1362V85.5333H391.003V84.9303ZM420.848 84.9303V86.1362C423.303 86.1362 423.906 87.342 423.906 89.1078V98.6255L412.321 85.5333H405V86.1362C405.603 86.1362 405.603 86.1362 408.058 88.5048V104.009C408.058 105.774 407.455 106.377 405 106.377V106.98H412.924V106.377C410.469 106.377 409.866 105.774 409.866 103.406V90.3136L425.112 106.98H425.715V88.5048C425.715 87.299 425.715 86.1362 428.17 86.1362V85.5333H420.848V84.9303V84.9303ZM443.415 97.4196V98.0225C445.87 98.0225 446.473 98.0225 446.473 100.391V103.966C446.473 105.172 445.87 106.334 442.812 106.334C437.343 106.334 436.094 100.391 436.094 96.2137C436.094 89.6676 437.903 86.0931 442.209 86.0931C446.473 86.0931 448.928 90.2706 450.134 92.6392H450.736V85.4902H449.531C448.928 86.0931 448.842 86.6961 448.411 86.6961C447.98 86.6961 448.152 86.6099 447.076 86.0931C445.999 85.5763 444.018 84.8873 442.209 84.8873C434.888 84.8873 430.021 89.6676 430.021 96.2137C430.021 101.554 433.682 107.54 442.812 107.54C445.87 107.54 450.134 106.937 451.942 105.774V101.597C451.942 99.2284 452.545 99.2284 455 98.6255V97.4196H443.415V97.4196ZM408.316 38.5909C410.168 39.8398 411.374 41.0457 412.623 40.4427C413.742 40.4427 414.388 39.9259 414.948 39.323L415.077 39.1938C415.077 38.5909 416.24 38.5909 416.843 38.5909H419.341L422.399 37.9879H427.308C429.16 38.5909 432.821 37.9879 433.467 37.9879H433.639C434.5 37.9879 437.257 38.031 438.376 38.5909C440.702 39.1938 441.908 39.1938 443.071 39.1938H443.286L445.741 39.7967H448.798C450.047 39.7967 451.856 39.1938 453.708 39.7967H453.837C454.397 39.7967 454.914 39.8398 454.914 40.3997C454.914 41.0026 454.311 42.8544 454.311 44.1034C453.708 44.7063 453.105 45.9122 450.177 47.118L450.004 47.2041L449.401 47.8071C448.798 48.41 448.152 49.056 446.947 49.056H446.688C445.396 49.056 442.769 49.0129 441.563 48.4961L441.434 48.4531L440.831 47.8501C439.582 46.6012 438.376 45.9983 437.773 45.9983C436.568 45.9983 435.965 46.5582 435.362 47.7209L435.319 47.8501V49.702C435.319 50.3049 435.879 52.0276 435.922 52.7167V65.1628C435.922 65.7658 436.525 66.4118 436.525 67.0147C437.127 68.2206 437.127 68.8235 437.127 69.4264V73.8192C437.084 73.3455 436.525 75.628 436.525 75.7141C436.525 76.274 436.008 76.8769 435.922 77.4368V78.8149C435.319 78.8149 435.319 79.4178 434.673 79.4178C434.07 79.4178 433.467 78.255 433.467 78.1689L432.864 76.92C432.261 75.7141 432.261 75.1112 432.261 74.5083V74.3791C432.261 73.7331 432.218 72.5703 431.658 71.9673C431.098 71.4075 431.055 70.2878 431.055 69.125V68.8665C431.658 67.6176 431.658 65.7658 431.055 64.5168C431.055 63.9139 430.495 62.1482 430.452 60.9423V57.7124C430.452 57.5832 430.452 54.0948 429.289 52.8458L429.203 52.7597V52.1568C429.203 50.9079 427.954 49.702 425.5 49.702C422.442 49.702 421.193 49.702 419.987 50.3049C418.781 50.3049 416.412 50.9079 415.723 50.348L415.68 50.3049H411.977C410.771 50.9079 410.168 50.9079 409.565 52.0276L409.522 52.1568V55.8605C409.522 57.0664 408.962 58.2292 408.919 58.8751V58.9613L408.316 60.8131C408.316 61.4161 408.316 62.0621 407.713 62.665C407.713 63.9139 407.11 64.5169 407.11 65.1198C407.11 65.7227 406.507 65.7227 406.507 66.3687C406.507 66.9716 405.904 67.6176 405.904 67.6176C405.301 68.8666 404.655 69.4695 400.995 71.3213C398.54 72.5703 398.54 72.5703 397.937 73.1732C397.377 73.1732 396.774 73.7331 396.214 73.7761H395.181C393.372 73.7761 391.133 73.7331 390.53 73.1732C389.324 71.9673 388.118 71.3644 388.075 69.5987V67.6176C388.075 66.3687 388.678 65.7658 388.678 65.1628C389.281 62.0621 390.53 62.0621 391.735 61.4591C392.898 60.8562 394.061 60.2963 395.267 60.2102H396.688C397.937 60.2102 399.143 59.6073 400.392 58.9613C400.995 57.7124 402.847 56.5065 403.45 55.2576C404.052 54.0086 405.301 52.8028 405.301 51.5539C405.904 50.3049 405.904 49.0991 405.301 48.4531C404.698 48.4531 404.052 47.8501 403.45 47.8501C401.598 47.8501 399.746 48.4531 398.54 49.0991C397.98 49.6589 397.42 49.702 396.344 49.702H395.482C394.879 49.0991 394.233 49.0991 393.63 49.702C392.381 50.3049 391.176 50.3049 390.573 50.3049C389.97 50.3049 388.721 49.702 388.721 48.4531C388.721 46.6012 388.118 45.3523 387.472 44.1034C386.912 42.9406 386.869 41.8209 386.869 41.1318V41.0026C387.472 40.3997 388.118 39.7537 389.324 39.1507C391.692 37.9449 392.338 37.9018 392.941 37.9018H394.233C395.439 37.2989 396.602 37.8587 397.808 37.9018H405.301C406.464 37.342 407.11 37.3419 408.316 38.5909V38.5909ZM321.193 20.0293C321.753 20.0293 321.753 20.0723 322.355 20.6322C322.958 20.6322 323.604 21.8811 324.207 22.484L325.456 23.087L326.705 24.3359C327.308 25.5848 328.557 24.9388 329.16 24.9388H330.409C331.012 24.9388 332.261 25.5417 332.864 25.5417C334.026 25.5417 335.189 24.422 335.318 24.3359C335.318 24.3359 335.318 23.733 335.921 23.733C336.524 23.13 337.17 23.13 337.17 22.484L337.773 21.8811C338.376 21.8811 339.022 21.2782 339.625 21.2782C340.228 21.2782 342.683 21.8811 343.932 21.8811C344.535 21.8811 346.387 21.2782 350.09 21.8811H363.613C363.613 22.484 364.216 22.484 364.862 22.484H365.077C366.068 22.484 366.111 22.5271 366.714 23.087C367.274 23.6468 368.393 23.6899 369.513 23.6899H369.772C370.375 23.6899 371.021 24.2928 371.623 24.9388C372.226 25.5848 372.226 25.5417 372.226 26.1877C372.226 26.7907 371.623 26.7907 371.623 27.4367C371.021 28.0396 370.375 29.2885 369.169 29.8915C367.92 30.4944 367.317 31.7433 367.317 33.5952V37.9449C366.714 38.5478 366.714 39.7967 366.714 40.3997V45.3523C366.714 45.9552 366.111 45.9552 366.111 46.6012C365.508 47.2042 365.508 47.8501 364.862 47.8501H362.407C361.158 48.4531 360.555 49.0991 360.555 50.3049V50.9079C360.555 51.4677 361.072 52.0276 361.632 52.5874L361.804 52.7597L364.259 55.2145L364.862 55.8174C366.111 57.0664 367.92 59.5211 369.772 60.1671L371.021 61.4161C371.623 62.019 372.269 62.665 373.475 62.665H375.93C376.533 62.665 377.179 62.665 377.179 63.2679C377.782 64.5169 376.576 66.3687 375.93 66.9716L374.681 68.2206C373.432 68.8235 372.226 70.6753 370.977 71.3213C369.729 71.9243 369.126 72.5703 367.274 71.3213C365.422 70.7184 364.819 70.0724 363.57 68.2206C362.321 65.7658 360.512 65.1198 358.66 65.1198C358.058 65.7227 357.412 65.7227 356.809 66.3687C356.206 66.9716 355.56 66.9716 356.206 69.4695H351.942C349.229 69.4695 347.592 69.5126 346.989 70.0724C346.387 70.0724 345.741 70.6753 345.138 71.3213C343.889 71.9243 343.286 72.5703 342.683 73.1732C342.08 73.1732 341.434 73.7761 340.831 74.4221L340.228 75.0251C338.979 75.628 336.524 75.628 335.921 75.0251L335.318 74.4221C334.07 73.1732 332.864 72.5703 332.864 70.0724V66.3687C332.864 65.7658 332.261 64.5168 331.012 64.5168C329.16 63.9139 326.705 65.7658 325.499 66.3687C325.499 66.9716 324.896 66.9716 324.896 66.9716C323.045 67.5746 319.987 70.6754 318.135 71.9243L317.532 72.5272C316.283 73.7761 315.68 74.3791 315.077 74.3791C313.828 73.7761 312.622 73.1301 312.622 71.9243V65.8088L313.225 65.2059C313.225 64.603 313.828 64.603 313.828 64.603L315.68 62.7511C316.24 62.1913 316.283 61.0715 316.283 59.9087V59.3919C316.283 58.3153 316.24 57.7554 315.68 57.1525C315.68 56.5496 314.604 56.5496 313.441 56.5496H313.225C312.622 56.5496 310.771 57.1525 310.168 56.5496C308.919 55.9466 308.316 54.6977 308.316 52.1999V51.5969C308.316 49.2283 308.876 49.1421 309.479 49.1421H310.771C313.225 49.7451 314.474 49.7451 315.077 49.1421C315.68 49.1421 316.326 47.8932 316.326 47.2903C316.326 46.6874 316.326 46.0414 315.077 45.4384H310.771L310.168 44.8355C309.565 44.2326 310.771 42.9836 309.565 42.3807C308.962 41.7778 308.316 41.7778 307.713 41.7778L306.464 42.3807H304.009C302.76 42.3807 301.554 41.1318 301.554 37.4281C301.554 34.3273 305.258 31.8725 307.067 30.6236L308.316 30.0207C309.565 28.7717 312.622 27.5659 313.225 26.9199C314.474 26.3169 313.828 26.3169 315.077 25.6709C316.929 24.422 318.135 23.8191 318.781 21.9672C319.384 20.7183 319.384 20.7183 320.03 20.1154L321.193 20.0293V20.0293ZM259.608 17.6606C261.33 17.6606 263.01 17.7467 264.173 18.8665C264.776 19.4694 265.379 21.2782 266.628 21.8811C268.436 22.484 268.436 23.087 269.082 23.6899C270.288 24.8958 273.346 24.2928 273.949 24.2928C273.949 24.2928 276.877 23.733 279.289 23.6899H281.227L284.285 24.2928C284.888 24.2928 285.491 23.6899 286.094 23.6899C286.653 23.13 287.213 23.087 287.773 23.087H287.945C289.108 23.087 289.711 23.087 290.314 23.6038L290.4 23.6468L291.003 24.2498L293.458 25.4556C294.061 25.4556 294.664 26.0585 294.664 27.2644C294.664 27.8243 294.104 27.8673 294.061 28.3411V28.4272L293.458 30.236C293.458 30.8389 293.458 31.4419 292.855 31.4419C292.252 32.0448 291.649 32.0448 289.797 33.8536C289.194 34.4565 288.591 35.0594 287.988 35.0594C287.386 35.0594 286.783 35.0594 285.534 34.4565C284.328 34.4565 284.328 33.8536 283.725 34.4565L283.596 34.5857C283.036 35.1456 282.519 35.7485 282.519 36.8682C282.605 37.0835 283.725 39.323 283.725 40.4427C283.725 41.6486 283.122 42.2515 282.519 42.8545C281.916 43.4574 279.461 45.8691 279.461 48.8407C279.461 52.3721 280.624 53.578 281.27 54.7838L281.313 54.87L281.916 55.4729C282.519 56.6788 283.122 56.6788 282.519 57.2817C281.959 57.8416 280.883 57.8846 280.237 57.8846H280.064L278.858 57.2817C277.05 57.2817 275.801 57.2817 273.992 56.6788C273.389 56.6788 272.786 56.0758 272.183 56.0758C272.183 56.0758 271.58 55.4729 270.374 55.4729C267.92 54.87 263.053 54.87 262.45 57.8846V58.3584C262.45 60.727 262.493 63.9139 263.053 65.0337C263.656 66.8424 263.656 69.814 263.053 71.0199L262.795 71.4075C261.675 73.0871 260.512 74.6375 259.392 74.6375C258.789 74.6375 256.938 72.2257 256.335 69.2542C255.732 67.4884 256.292 65.2059 256.895 62.8803L256.938 62.665V61.4591C257.497 59.7795 257.541 59.1336 257.541 58.1V57.8846C257.541 56.0758 256.938 54.87 253.88 54.87H253.492C251.382 54.87 250.736 54.913 249.013 55.4729C247.894 56.0328 247.808 56.0758 245.826 56.0758H245.094C243.372 56.0758 241.649 56.1189 241.089 57.2817C240.486 57.2817 240.486 57.8846 240.486 58.4876C240.486 59.6934 241.089 60.2963 241.692 60.2963C242.295 60.8993 243.501 60.8993 244.147 60.2963C244.75 60.2963 245.913 59.7365 247.075 60.2533L247.205 60.2963L248.41 60.8993C249.013 60.8993 249.616 61.5022 250.219 61.5022C250.822 61.5022 251.985 61.5022 252.028 62.0621V62.7081C251.425 62.7081 251.425 63.311 251.425 63.9139V64.1292C251.425 65.2059 251.339 65.7658 250.219 66.3256C249.013 67.5315 243.501 69.3403 240.443 69.3403H240.142C236.61 69.3403 233.682 69.2111 231.873 65.1628C231.313 64.0431 231.27 63.4402 231.27 62.8803V62.1482C231.27 62.1482 231.83 61.5883 232.39 61.5453H233.682C234.888 60.9423 235.491 60.9423 236.093 58.7029L236.137 58.5737V57.1956C236.739 56.0328 236.739 54.913 236.739 53.7502V51.7261C236.739 51.1663 236.826 50.6064 238.548 51.2093C239.151 50.6495 239.711 49.4867 239.754 47.8071V43.1559C239.754 41.4333 239.711 39.323 238.634 38.1602L238.548 38.0741L237.945 37.4711C237.342 36.2653 236.137 35.0594 231.83 35.0594C228.772 35.0594 228.772 34.4565 228.169 33.8536C227.566 33.2506 227.566 32.0448 227.566 32.0448L227.48 31.7433C226.92 30.0637 226.447 28.3411 228.212 26.6615C229.978 24.9388 231.141 24.8527 232.863 24.8527H250.779C251.985 24.8527 251.985 23.6468 252.588 23.0439C252.588 22.441 253.191 21.838 253.794 21.2351C254.397 20.6322 255 20.6322 255 20.0293C255 19.4263 255.603 18.8234 256.808 18.2205C257.368 17.6606 257.928 17.6175 259.005 17.6175L259.608 17.6606V17.6606ZM281.184 59.6504C281.787 60.2533 282.433 60.2533 283.036 60.2533C285.491 60.2533 286.74 60.8562 287.342 62.1051C288.591 63.957 288.591 65.2059 286.74 65.8088V69.5125C286.137 70.1155 285.491 71.9673 283.682 72.6133C282.002 73.1732 281.873 73.2163 280.883 73.2163H280.323C279.246 73.2163 278.686 73.1732 278.126 72.6133L276.274 72.0104C275.112 71.4506 274.509 71.4075 272.915 71.4075H272.571C270.116 70.8045 268.867 70.1585 267.661 68.3067L266.412 66.4548C265.163 65.2059 264.56 64.603 264.56 63.3541C264.56 60.8993 265.163 59.6504 266.412 59.6504C267.015 59.6504 268.264 60.2533 268.867 60.2533H273.777C274.379 60.2533 275.628 60.8562 276.231 60.2533L277.48 59.6504H281.184V59.6504ZM186.739 17.6606C187.342 17.6606 187.945 18.8665 187.945 20.0723C187.945 21.2351 187.945 22.3979 189.065 24.6804L189.151 24.8527L190.357 26.0586C191.563 27.2213 192.769 28.9871 196.257 28.4703L196.429 28.4272H201.296C203.105 28.4272 204.354 29.0301 205.559 29.0301H205.818C207.024 29.0301 208.66 29.0732 209.22 29.6331C210.426 30.236 211.029 31.9156 211.029 33.6813V34.4134C210.426 36.1792 209.263 38.5047 207.497 39.1507L207.368 39.1938H199.444C198.841 39.1938 198.238 39.7967 196.989 39.7967C195.18 39.7967 193.931 39.1938 193.329 39.1938C192.123 39.1938 192.123 39.7967 191.52 40.3997C191.52 41.0026 191.52 41.6055 190.917 42.2085C190.314 43.3712 190.314 44.534 190.314 45.137V48.7976C190.314 50.0035 189.711 51.8123 190.314 52.9751C190.917 54.1378 191.52 57.0664 194.405 57.7124L194.577 57.7554L197.032 58.3584H200.09C201.296 58.3584 201.899 57.7554 203.148 57.7554H203.449C205.086 57.7554 206.248 57.6693 207.411 56.5496C209.22 55.3437 209.866 54.7408 211.072 54.1378C212.278 53.5349 212.278 53.5349 212.881 52.3291C212.881 52.3291 213.441 51.7692 213.484 51.2093V50.5203C213.484 50.5203 214.087 48.7115 214.689 49.3144C215.292 50.5203 215.292 52.8889 215.895 53.4918C216.498 54.6546 216.498 56.3342 216.498 58.1V58.9182L215.895 63.6986V64.9045C215.292 66.7132 213.441 69.6848 209.78 70.2878C206.205 70.8907 203.837 70.8907 201.468 70.8907H201.21C200.822 70.8907 197.377 70.9768 193.931 72.0965C192.123 72.0965 189.754 72.6564 189.668 72.6995H188.462C187.859 72.6995 187.256 72.0965 186.653 72.0965C186.567 72.0965 186.007 72.0535 185.447 71.4936C184.844 70.8907 184.242 70.8907 183.639 70.2878C183.036 69.6848 181.313 68.5651 181.184 67.4023V66.0242C181.184 65.3351 181.098 63.0957 179.375 63.0957C177.566 63.0957 175.714 63.6986 172.657 65.5074C172.054 65.5074 172.054 65.5074 170.848 66.1103C169.642 66.7132 167.79 67.3162 166.584 68.522C165.378 69.7279 162.924 70.3308 158.66 70.9338C151.942 71.5367 149.53 70.9337 148.281 69.7279C145.869 67.9622 145.266 66.7994 145.223 63.9139V63.1387C145.826 59.6073 147.032 58.9613 148.195 58.3584L148.238 58.3153H149.53C150.176 58.3153 151.296 58.2722 151.899 57.7124C152.502 57.1094 152.502 56.5496 154.224 56.5065H159.823C162.881 55.9036 164.086 54.6977 164.689 52.932C165.292 51.1232 164.689 48.7545 162.881 47.5487C161.718 46.9888 160.512 47.5056 159.909 47.5487H158.057C156.851 46.9458 153.191 45.137 152.588 44.534C151.382 43.9311 150.779 43.3282 150.133 42.1223C149.53 40.9595 148.97 40.9165 148.927 39.8398V39.1077C149.487 37.4281 149.53 36.7821 149.53 35.7485V32.4324C149.53 31.3126 149.573 30.7097 150.736 30.1499C152.502 29.59 154.827 29.5469 156.119 29.5469H159.306C160.469 30.1068 162.235 30.1499 163.44 29.59L163.57 29.5469H164.173C165.378 28.944 166.541 28.944 166.627 27.2644V25.9293C166.627 24.7235 167.23 23.5176 167.833 22.9147C169.039 21.7088 169.039 21.7088 170.891 22.9147C172.743 24.1206 173.346 25.3264 173.346 27.0921C173.949 28.8579 174.552 35.8346 174.552 37.7726V52.5013C174.552 53.5349 174.595 54.0948 175.154 54.6546C175.757 54.6546 175.757 55.2576 176.963 55.2576C178.729 55.2576 178.772 54.6977 179.375 54.6546H181.313C181.959 54.6546 183.122 54.6116 183.682 53.4488C184.285 52.286 184.887 47.075 184.887 45.18V43.845C184.887 42.4668 184.285 30.882 184.285 23.733V20.503C184.285 19.2971 184.888 18.6942 185.49 18.0913C186.05 17.5314 186.093 17.4883 186.567 17.4883L186.739 17.6606V17.6606ZM356.722 54.6977C355.474 54.0948 354.871 54.0948 354.268 54.6977C353.019 55.3006 353.019 55.3006 353.019 56.5496V59.0044C353.019 59.6073 353.622 60.2533 354.268 60.2533C355.517 60.8562 357.325 60.8562 358.574 59.6504C359.134 59.6504 359.177 59.6503 359.177 59.1335V59.0044C359.177 58.4014 358.574 57.7554 358.574 57.7554V57.1525C358.574 56.5496 357.971 56.5496 357.971 55.9036L356.722 54.6977V54.6977ZM346.387 50.348H346.3C345.697 50.348 344.449 50.9509 343.846 52.1999C343.243 53.4488 343.846 54.0517 343.846 54.6546V56.5065C343.286 57.0664 343.243 57.6262 343.243 58.1861V58.3584C343.243 59.6073 343.243 60.2102 343.846 60.2102H346.3L347.549 58.9613C348.152 57.7124 348.152 57.1094 348.152 56.5065V54.6546C348.712 53.4919 348.755 52.3291 348.755 52.1999C348.152 50.4341 346.989 50.348 346.387 50.348V50.348ZM328.471 31.1835C326.016 30.5805 324.767 30.5805 322.958 31.1835C321.107 31.1835 320.504 32.4324 320.504 33.6382C320.504 34.2412 321.107 34.8872 322.355 34.8872H327.351C327.954 34.8872 328.514 34.9302 329.117 35.4901L330.969 36.093C331.529 36.6529 331.572 36.6959 332.045 36.6959H332.175C332.175 36.6959 332.778 36.6959 332.778 37.2989V39.9259C332.778 40.4858 332.734 41.0457 332.175 41.0457H330.926L329.677 40.4427C329.677 39.8398 324.767 39.1938 323.518 41.0457V41.6917L322.915 42.9406V43.5435C322.915 44.1464 323.518 44.1464 323.518 44.7924C324.121 45.3954 324.767 45.3954 325.973 45.3954C327.179 45.3954 329.031 45.9983 331.486 45.9983C332.734 46.6012 333.337 47.2472 333.337 48.4531C333.337 49.702 332.088 50.3049 331.486 50.3049C330.237 50.9079 330.883 50.9079 330.237 51.5539C329.677 52.1137 329.634 52.1568 329.16 52.1568H325.801C324.638 52.1568 324.078 52.1999 323.475 52.7597C322.872 53.3627 322.872 54.0086 322.872 55.2145C322.872 57.6693 324.121 57.6693 324.724 57.6693H325.327C326.576 57.6693 327.782 57.0664 327.782 57.0664C328.385 56.4634 329.031 56.4634 329.031 56.4634H329.246C330.28 56.4634 330.28 56.5065 330.28 57.0664C330.883 57.0664 330.883 57.6693 330.883 58.3153C331.486 58.9182 331.486 58.9182 332.734 59.5642C334.586 60.1671 335.189 59.5642 335.792 58.9613L336.395 58.3584C337.644 57.7554 338.247 55.2576 338.247 54.0086V52.7597C338.247 52.1568 338.85 50.3049 339.496 49.6589C339.496 47.8071 338.893 46.5582 338.893 45.9552C338.333 45.3954 338.29 43.1559 338.29 38.8062V37.8157C338.29 36.9974 338.204 32.9061 335.835 32.3032L333.983 31.7864C333.38 31.1834 332.132 31.1835 331.529 31.1835H328.471V31.1835ZM250.822 42.2085H249.573C248.367 42.2085 246.516 42.8114 245.913 44.6202C245.31 45.2231 245.913 45.826 245.913 46.429C246.516 46.9888 247.635 47.5917 248.841 47.6348H271.537C272.743 47.6348 273.346 47.0319 273.992 46.429C273.992 45.8691 274.552 45.826 274.035 45.3092L273.992 45.2662V44.0603C273.389 43.4574 272.786 41.7347 269.298 42.2515L269.125 42.2946H254.483C253.234 41.6486 251.468 42.1654 250.822 42.2085V42.2085ZM351.813 39.8398C351.21 39.2369 349.961 39.8398 349.358 39.8398H348.109C347.506 39.8398 346.257 40.4427 345.654 41.0887C345.051 41.6917 345.051 41.6917 345.051 42.3376V42.9406C345.654 44.7924 348.109 44.1895 349.961 44.1895C351.21 44.1895 353.019 44.1895 352.416 44.7924C353.665 44.7924 354.871 44.7924 355.474 43.5435C356.076 43.5435 356.076 42.9406 356.722 42.9406C357.971 42.3376 358.574 42.3376 358.574 41.6917V40.4427C358.574 39.8398 357.498 39.8398 356.335 39.8398H351.813V39.8398ZM257.196 28.4272H256.851C255.689 28.4272 254.526 28.9871 253.88 29.0301H252.588C250.779 29.6331 247.721 29.0301 246.472 29.0301C245.87 29.0301 244.664 29.0301 244.018 29.6331C243.415 30.1929 243.415 30.7959 243.415 31.3557V31.6141C243.415 32.6046 243.458 32.6477 244.534 33.1645L244.621 33.2076H267.403C269.212 33.2076 271.494 33.2506 273.26 33.8105C275.069 34.4134 276.317 35.0164 276.92 35.0164C277.523 35.5762 278.686 35.6193 279.289 35.0594L279.375 35.0164V34.3704C279.375 33.7674 279.332 33.2076 278.169 32.0448C277.566 31.4418 277.566 31.4418 273.906 29.6331C272.743 29.0732 271.58 29.0301 270.417 29.0301H262.321C261.201 28.4703 259.005 28.4272 257.196 28.4272V28.4272ZM358.574 28.0827H352.33C351.598 28.0827 349.272 28.1257 347.506 28.6856C345.654 29.2885 344.449 29.9345 344.449 31.1404C344.449 31.1404 344.449 31.7433 345.051 32.3893C345.654 33.6382 348.109 32.9922 348.755 32.9922H353.062C354.311 32.3893 357.368 32.9922 357.971 32.9922C359.22 32.9922 360.426 32.9922 361.029 32.3893C361.632 31.7864 361.632 31.1404 361.632 30.5375C361.632 29.3316 359.78 28.0827 358.574 28.0827V28.0827ZM386.223 19.4263C388.075 17.5745 391.735 17.5745 394.19 18.1774L396.645 18.7803C397.894 18.7803 399.1 19.3833 400.349 19.3833H401.598C402.847 19.3833 402.847 19.9862 403.45 19.9862C403.45 20.5891 404.698 20.5891 405.301 21.2351C405.301 21.838 407.153 22.484 407.153 22.484C407.756 22.484 408.402 23.087 408.402 23.733V24.422C408.402 24.9819 408.445 24.9819 409.005 25.5848L409.608 26.1877C410.211 27.4367 411.46 28.0396 412.063 27.4367C412.623 27.4367 412.666 26.9199 412.666 26.3169V26.1877C412.666 25.5848 413.269 25.5848 413.915 24.3359C414.561 23.087 416.369 21.8811 417.618 21.8811L419.47 21.2782C420.719 20.6752 422.528 20.0293 424.983 20.0293C428.04 20.0293 428.686 20.6322 429.289 20.6322H438.592C439.152 20.6322 439.238 20.6752 441.606 21.2351C444.061 21.2351 444.664 21.838 445.31 22.484L447.162 23.733C448.411 24.3359 449.014 24.9819 449.014 25.5848L449.617 26.8337C450.22 28.0827 450.22 28.0827 449.617 29.2885V29.8915C449.014 31.1404 448.368 31.1404 447.162 29.2885H426.878C426.275 29.8915 425.629 29.8915 424.423 29.2885C423.82 29.2885 422.571 29.8915 421.968 29.8915L420.719 30.4944C419.47 30.4944 418.867 30.4944 418.264 31.0973C417.661 31.0973 417.661 31.7002 416.413 31.7002C415.164 32.3032 415.164 31.7002 414.561 31.0973L413.958 30.4944C413.355 29.8915 412.709 29.8915 412.106 29.8915H411.503C410.943 29.3316 410.9 29.2885 410.426 29.2885H410.297C409.048 28.6856 409.048 29.2885 408.445 29.2885C407.842 29.8915 407.842 29.8915 407.196 29.2885H404.139C402.89 29.2885 401.684 29.8915 400.435 30.5375H399.832C399.229 31.1404 396.128 31.7864 394.922 31.1404H393.587C392.984 31.1404 392.338 31.0543 390.013 29.8915C387.558 28.6425 386.309 27.4367 385.706 26.1877C385.146 25.5848 385.103 22.8286 385.103 21.9672V21.795C384.974 21.2351 385.017 20.5891 386.223 19.4263V19.4263ZM65.4213 11.9758C36.6529 11.9758 14 35.4901 14 64C14 93.1129 37.2559 116.024 65.4213 116.024C78.9011 116.024 88.0742 111.072 92.3378 108.574C102.114 102.372 107.626 93.7159 106.421 85.0595C105.215 77.609 98.4532 72.0535 89.883 69.5556C89.2801 69.5556 88.0312 68.9527 87.4282 68.9527C91.6918 66.4548 94.1466 63.3971 94.7926 59.0474C95.9984 49.7451 85.6194 40.4858 71.5367 38.5909C58.7029 36.739 48.2809 37.9879 44.6202 37.9879V54.6977C51.9846 53.4488 61.7606 53.4488 69.7279 54.6977C76.4463 55.9466 80.7529 58.4014 81.3559 61.5022C81.3559 62.1051 81.3559 63.3541 80.7529 64C78.9011 66.4979 75.8434 66.4979 73.3886 65.8519C64.8184 64.603 55.0423 64.603 45.2231 65.8519V82.5617C54.3963 81.3128 69.6849 81.3128 77.0492 82.5617C83.7676 83.8106 88.0742 86.9114 88.6771 90.6151C88.6771 92.4669 88.0742 93.7159 86.8253 95.5677C84.3705 98.6685 77.0492 101.769 66.6271 101.769C45.8261 101.769 28.6856 84.4135 28.6856 63.3541C28.6856 42.2946 45.8261 24.9388 66.6271 24.9388C87.4282 24.9388 104.569 42.2946 104.569 63.3541V67.7038C107.023 68.9527 111.287 72.0535 116.197 77.609C117.402 73.2593 118.048 68.3067 118.048 63.3541C117.446 34.8872 94.1897 11.9758 65.4213 11.9758V11.9758Z" fill="#E50012"/>
</svg>
