<svg width="128" height="128" viewBox="0 0 128 128" fill="none" xmlns="http://www.w3.org/2000/svg">
<path d="M50.0415 64.157H77.9585C77.9585 69.084 77.1945 91.8645 78.594 94.994H91.2375C88.344 80.6505 86.8125 65.403 88.2565 48.1785H73.715L77.238 39.4065H50.763L54.286 48.1785H39.7435C41.187 65.403 39.656 80.6505 36.7625 94.994H49.4065C50.8055 91.864 50.0415 69.084 50.0415 64.157ZM57.93 84.125H70.07V72.0135H57.93V84.125ZM57.7115 91.969C57.7115 95.8475 57.4615 100.48 55.8135 104H24C29.483 84.6115 32.183 63.997 28.191 40.713H40.399C39.49 37.394 38.2081 34.1886 36.578 31.158C40.2185 31.5115 43.849 31.7915 47.4685 31.998C46.7075 29.6405 45.6475 27.328 44.1285 24.5C50.9385 25.38 57.526 25.689 64 25.637C70.473 25.689 77.061 25.3805 83.872 24.5C82.352 27.328 81.292 29.6405 80.5305 31.998C84.1505 31.7915 87.7805 31.5115 91.421 31.158C89.791 34.1886 88.5094 37.394 87.6005 40.713H99.808C95.8165 63.997 98.517 84.6115 104 104H72.186C70.5385 100.48 70.2875 95.8475 70.2875 91.969H57.7115Z" fill="#A60D13"/>
</svg>
