<svg width="367" height="128" viewBox="0 0 367 128" fill="none" xmlns="http://www.w3.org/2000/svg">
<path d="M61.8043 16.2122C88.1893 16.2122 109.609 37.5983 109.609 63.9833C109.609 90.3684 88.2224 111.788 61.8043 111.788C35.3861 111.788 14 90.4015 14 64.0165C14 37.6314 35.3861 16.2122 61.8043 16.2122ZM24.4613 64.0165C24.4613 82.6217 38.167 98.3799 56.5736 100.995V83.4494H48.3635C43.0004 83.4494 38.6636 79.1126 38.6636 73.7495V54.3166C38.6636 48.9535 43.0004 44.6166 48.3635 44.6166H56.5736V27.0707C38.1339 29.653 24.4613 45.4112 24.4613 64.0165V64.0165ZM67.0018 27.0376V44.5835H75.2451C80.6082 44.5835 84.945 48.9535 84.945 54.2835V73.6833C84.945 79.0463 80.6082 83.3832 75.2451 83.4163H67.0018V100.962C87.4279 98.082 101.63 79.1788 98.75 58.7527C96.4326 42.2993 83.4884 29.355 67.0018 27.0376ZM72.9939 55.0449H50.5815C49.787 55.0449 49.1249 55.6739 49.0918 56.4684V71.4652C49.0918 72.2597 49.7208 72.9218 50.5153 72.9549H72.9939C73.7885 72.9549 74.4506 72.3259 74.4837 71.5314V56.5346C74.4837 55.7401 73.8216 55.0449 72.9939 55.0449V55.0449Z" fill="#B81C22"/>
<path d="M222.366 67.8241H221.273C220.181 69.5456 216.97 72.4589 215.05 73.1872C211.706 70.5388 207.535 69.1483 203.231 67.3606H195.882C194.789 66.9303 191.876 66.5992 190.518 66.3013V68.2545C191.379 68.8504 191.843 70.6712 191.81 72.1609C182.308 71.8299 185.188 37.7313 189.227 32.9641C189.79 33.2951 189.558 33.0303 189.889 33.6262C190.386 35.0828 189.294 37.7975 188.797 38.9893C187.771 41.5384 187.771 58.2235 188.797 59.6471H189.029C189.194 59.2167 189.327 58.7863 189.459 58.356H189.691C189.591 60.3423 190.022 64.0832 191.214 64.8446C192.074 64.1494 194.292 64.8777 195.286 64.1825C197.338 62.7921 205.449 55.1447 205.813 52.7611C205.681 52.6949 205.515 52.6287 205.383 52.5294C204.29 53.3901 196.378 59.8457 194.392 58.356C194.955 52.9929 198.662 50.6093 200.218 46.7359H199.987C199.159 47.4312 199.159 47.8615 197.603 48.0271C197.603 43.6902 199.92 43.8227 200.185 40.5121C199.689 39.5521 200.45 39.3203 199.523 38.7906C199.358 38.592 199.225 38.3603 199.093 38.1285C198.265 38.7244 197.57 39.221 196.279 39.4196V37.6981L198.232 35.7449C198.199 33.8579 197.404 30.448 196.279 29.5211C196.146 29.5873 195.981 29.6535 195.848 29.7528C195.915 31.6067 195.815 33.0303 195.186 34.0565C194.955 34.1228 194.756 34.2221 194.524 34.2883C194.392 34.2221 194.226 34.1559 194.094 34.0565C193.432 32.8647 192.836 32.3351 192.803 30.3818C195.12 29.0907 195.815 25.7802 198 24.3235C200.152 22.9331 203.032 21.8406 205.35 20.8806C226.67 11.8428 224.584 52.728 222.366 67.8241V67.8241ZM326.416 20.0529C326.747 21.8737 327.972 22.7676 328.568 24.1249C330.555 28.8259 328.535 33.2951 327.277 36.6388C321.881 37.3009 319.001 40.4459 315.458 42.8626C315.525 42.995 315.591 43.1605 315.69 43.293C317.279 43.9551 323.669 45.3455 322.808 47.1994C322.874 47.7622 322.973 48.325 323.04 48.9209C320.656 50.4769 316.187 54.6482 315.061 57.2966C319.431 58.985 323.669 67.6255 319.133 71.4988V71.9292C319.001 71.863 318.835 71.7968 318.703 71.6975C317.18 69.4794 314.432 69.5787 314.002 66.1358C314.829 65.5399 315.194 60.5409 315.094 59.9119C308.771 60.1437 308.97 67.162 305.196 64.2156C304.832 63.8846 303.805 63.9839 303.342 63.5204C302.779 62.8583 302.746 61.6334 301.985 60.574C302.845 59.2167 302.68 58.4222 303.607 57.2304C306.09 54.0522 309.864 50.841 312.512 47.6629C312.446 47.3318 312.347 47.1001 312.28 46.8022C309.665 46.9015 305.891 45.511 304.931 43.9882L305.163 41.6046C309.466 39.0555 315.756 30.3156 318.736 26.1112C320.193 23.9925 320.689 21.4103 322.808 20.0529H326.416V20.0529ZM164.2 45.8752L166.153 46.1069V46.3718C165.689 47.994 164.961 48.325 164.862 50.4769C163.736 50.5431 162.71 51.1059 162.048 51.9997C160.426 53.7874 159.168 64.4805 157.744 67.4931C156.188 70.7043 158.406 74.5776 157.082 76.5309C155.46 76.8288 155.096 77.7227 153.407 78.0537C153.341 77.6234 153.242 77.193 153.175 76.7626C150.494 73.7831 152.58 67.8903 150.792 65.573C150.659 65.6392 150.494 65.7054 150.362 65.8047C150.328 69.7443 149.997 73.6838 151.222 76.1667C151.818 77.3585 152.878 77.5902 153.175 79.3779H152.083C148.739 72.7237 149.699 64.315 147.548 56.1379H147.316C146.952 56.2041 146.587 56.3034 146.223 56.3696C146.323 58.3229 145.958 58.9519 144.071 58.9519C142.516 57.9256 140.165 57.4952 138.708 56.3696C135.034 53.5557 132.021 45.0807 132.882 39.3534H133.974L139.172 44.551L140.463 44.3192L148.839 38.0954C148.772 31.2426 149.07 25.6146 150.792 21.0792H152.745C156.354 23.5621 159.333 26.8064 160.724 31.6067C164.564 31.4412 167.841 29.0245 172.542 30.3156C172.509 37.3671 164.928 41.2073 164.2 45.8752V45.8752ZM205.151 66.1026C208.726 66.1357 215.844 67.791 217.433 67.162C226.305 62.0969 220.678 26.9389 214.421 23.2311C208.627 19.7881 198 25.8795 196.544 28.8259C198.166 29.6204 199.027 31.6398 199.556 33.5269C202.271 33.4606 202.734 32.1695 205.151 32.004C205.482 32.3682 205.714 32.6992 206.012 33.0965C205.846 36.076 203.794 37.7312 202.801 39.9493C205.118 41.2073 208.263 45.2462 208.164 49.1857C207.071 49.5499 206.707 50.2451 207.303 51.139C209.852 48.9871 211.938 44.6503 213.792 41.9025C213.924 41.9688 214.09 42.035 214.222 42.1343C214.454 42.4653 214.652 42.6971 214.884 42.995C214.52 47.2656 210.448 50.2782 208.197 52.8936V54.4164C209.554 55.244 210.282 56.3034 212.269 56.5683C213.725 54.284 214.056 52.2646 215.281 49.252H215.513C215.579 53.7874 214.123 55.9724 213.129 59.1505L216.341 59.3822V61.7658C214.553 63.1232 215.381 64.5798 211.805 64.5798C211.242 63.5535 206.939 64.5136 205.118 64.8115C205.151 65.2419 205.151 65.6723 205.151 66.1026V66.1026ZM240.276 59.4484C238.919 59.4484 238.654 59.2829 237.892 58.7863V54.284C241.799 53.9529 242.262 48.0602 243.719 45.0476C247.063 37.9299 250.208 28.7266 255.14 22.8669H256.233C257.491 24.6877 259.477 25.3498 259.907 28.0645C257.458 29.3225 253.32 30.6798 251.929 33.0303C248.85 38.1285 240.276 52.7611 240.276 59.4484V59.4484ZM266.992 55.1116C266.893 49.6492 269.475 48.3581 270.899 44.5841H269.607C269.045 45.3786 268.217 45.4448 267.654 46.3056C266.131 49.5168 265.701 52.8936 265.701 56.6676H266.363C267.985 54.2509 274.308 56.9986 277.553 55.8068C281.227 54.4826 282.055 51.0397 286.789 51.1059V51.3376L286.127 51.9997C285.862 53.2908 285.001 53.6881 283.545 53.7212C283.313 55.9393 280.863 58.5215 279.638 60.1768C282.088 62.8583 290.795 63.9508 294.304 66.0033L293.642 66.6654V67.0958C289.802 67.2944 285.597 69.4132 281.823 67.7579C280.168 66.9965 279.208 65.2088 275.997 65.1757C274.375 68.1552 270.005 72.6244 265.635 72.6906C263.847 71.5982 262.556 71.0022 261.099 69.678C261.033 68.0228 260.934 66.4006 260.868 64.7122H259.775C258.318 70.2408 251.068 71.2009 246.632 73.5514C246.301 72.3596 246.069 71.1016 245.771 69.8767C247.162 68.9497 248.089 67.5924 249.214 66.4337C249.148 66.1357 249.049 65.8709 248.983 65.573C247.758 65.6061 247.46 65.7385 247.029 64.9108C249.413 65.0102 249.777 64.2487 249.612 61.8982C249.545 61.7658 249.479 61.6003 249.38 61.4679C249.248 61.5341 249.082 61.6003 248.95 61.6996C247.89 63.5535 245.043 68.0228 242.461 68.3869C241.898 67.2613 241.203 67.1289 240.938 65.573C241.004 65.4405 241.07 65.275 241.17 65.1426C244.315 64.7122 246.036 61.5672 248.287 59.945C248.221 59.8126 248.155 59.6471 248.056 59.5147H246.963C246.367 54.8137 245.54 53.4232 248.916 50.4769C248.916 48.325 248.155 47.7291 247.394 46.4049C249.115 45.2793 250.837 44.0875 252.591 42.9619C253.518 43.9882 254.445 44.9482 255.405 45.9745V46.8353C254.544 48.1264 252.988 48.6892 251.962 49.8479C252.028 50.8741 252.128 51.8342 252.194 52.8604H252.856C253.22 51.8342 253.452 51.6687 254.809 51.5693C254.875 50.7086 254.875 50.7417 255.24 50.2782H255.471C255.703 51.47 255.902 52.728 256.133 53.9529C255.306 54.4826 254.644 55.2109 254.18 56.1048H258.716C259.245 57.0317 259.543 57.1311 259.576 58.687C257.756 59.9781 252.128 66.1357 250.969 68.1552H251.399L251.631 68.3869C255.736 67.1951 259.312 62.759 261.761 59.7795C261.695 54.1516 262.092 49.1195 263.715 45.1138C264.542 43.0612 263.516 41.3729 264.145 39.7507C265.006 37.4333 266.893 34.8511 267.356 31.5405C268.714 31.7392 268.813 32.1364 269.938 31.9709C270.27 31.375 270.27 31.4743 270.799 31.1102V30.0177H271.892C273.083 27.9651 276.758 27.303 277.255 24.8201L279.638 24.5884C279.969 26.4754 274.805 44.6172 273.415 46.5373C272.355 46.9677 271.263 47.3981 270.203 47.8284C269.972 48.6892 269.773 49.5499 269.541 50.4106L269.773 50.6424C270.998 49.9141 272.322 49.3513 273.679 48.9209C273.613 47.5305 273.415 46.9346 274.11 46.5373C274.606 47.3318 275.136 48.1264 275.633 48.9209L275.401 51.0728C271.958 51.6024 270.236 54.6813 266.992 55.1116V55.1116ZM271.958 31.2095C271.428 34.4538 267.919 37.2678 268.912 41.3397H270.005C271.859 39.6845 273.746 38.0623 275.599 36.3739C276.162 33.56 276.725 30.7791 277.321 27.9982L277.089 27.7665L276.228 28.6272C274.937 29.2894 273.944 31.1433 271.925 31.2095H271.958V31.2095ZM206.873 30.7791C210.812 30.746 211.077 32.3351 213.99 32.7323C214.156 36.5063 212.732 38.1285 208.793 37.9299C207.568 35.8773 206.806 34.4207 206.873 30.7791V30.7791ZM259.841 32.0702C260.272 33.3613 260.702 34.6524 261.132 35.9767C258.649 36.076 257.822 37.5326 255.769 38.1285L255.538 37.8968C255.703 36.8374 256.067 32.5668 256.829 31.8385C257.259 31.4081 257.59 31.4081 258.55 31.4081C258.981 32.2357 258.716 31.9709 259.841 32.0702V32.0702ZM347.769 32.931C348.134 32.9972 348.498 33.0965 348.862 33.1627C348.796 33.2951 348.729 33.4606 348.63 33.5931C347.438 34.2552 347.008 35.7118 346.478 37.036C339.758 37.0029 335.057 39.7176 331.184 43.0943H330.521C330.323 42.7302 330.025 42.4322 329.661 42.2336C329.595 40.6114 329.23 40.6114 328.999 39.221C329.694 38.7906 330.025 37.8968 330.521 37.2678C333.666 39.6845 338.732 35.3808 341.049 34.4538C343.499 33.4938 345.684 33.9572 347.769 32.931V32.931ZM164.862 33.1296C161.948 36.2084 158.108 36.2746 160.326 43.8889H161.617C162.279 41.9357 166.583 36.3739 168.106 34.2221C167.775 33.891 167.411 33.5269 167.047 33.1296H164.862ZM201.476 36.1422V37.4333H202.767V36.1422H201.476ZM340.254 50.3775C340.254 51.9004 339.294 57.1973 339.824 58.356C341.446 61.8651 341.976 68.5193 341.976 73.419C339.923 74.8094 339.228 76.2329 335.52 76.2329C334.825 74.5777 334.163 71.9954 332.706 71.0354C330.058 69.3139 325.986 68.3207 324.728 65.2088H326.449C327.674 67.6586 332.276 68.5193 335.951 68.42C336.646 63.7853 337.672 54.3833 336.182 49.4506C336.05 49.5168 335.885 49.583 335.752 49.6823C334.958 50.7086 326.681 55.0123 324.993 55.0454C324.86 54.9792 324.695 54.913 324.562 54.8137V52.4301C333.037 48.6892 341.744 42.6971 352.338 42.1012C352.669 43.0281 352.835 42.7964 353 44.0544C349.789 45.6435 340.254 47.067 338.334 49.252V49.4837C338.93 49.8148 338.831 49.8148 339.195 50.3444C339.526 50.3775 339.89 50.3775 340.254 50.3775V50.3775ZM148.276 44.1537C145.958 44.3192 142.813 46.438 142.913 49.1195C143.873 50.5762 144.767 51.9997 145.727 53.4232C147.051 52.9929 147.68 51.9004 148.541 51.0396C148.441 48.7554 148.375 46.4711 148.276 44.1537ZM206.21 48.6892V47.398C205.548 46.9677 204.919 46.5373 204.257 46.1069V48.0602C205.085 48.3581 204.952 48.5236 206.21 48.6892ZM198.265 53.3901C200.98 53.4232 203.065 51.8673 204.323 50.3775V49.2851C203.628 48.7885 203.264 47.9277 202.602 47.3318C201.046 48.5567 198.53 51.1059 198.265 53.3901V53.3901ZM249.744 53.3901L249.512 53.6219C249.777 53.7874 250.075 53.9198 250.373 54.0522V53.8205C250.141 53.6881 249.943 53.5557 249.744 53.3901ZM249.082 54.0191L248.85 54.2509L249.281 54.6812C249.413 54.615 249.579 54.5488 249.711 54.4495C249.512 54.3502 249.314 54.1847 249.082 54.0191V54.0191ZM206.21 54.6812C204.323 58.356 199.225 59.5809 197.835 63.5204H200.847C203.297 61.9976 209.62 60.7064 212.5 59.8457V58.985C212.434 58.8525 212.368 58.687 212.269 58.5546C208.859 58.3891 208.925 55.4758 206.21 54.6812V54.6812ZM278.38 57.0648C277.884 57.8263 277.023 58.0911 276.427 58.7863C276.924 59.4816 276.924 59.614 277.95 59.8788H278.182C278.778 58.985 279.274 58.058 279.705 57.0648H278.38V57.0648ZM256.398 58.1242H254.677C252.856 59.0512 252.128 59.4484 252.293 62.4279L252.724 62.8583C254.048 61.832 256.167 60.1437 256.398 58.1242V58.1242ZM274.507 65.275C274.573 64.0832 274.673 64.2156 275.169 63.5535C272.951 61.6665 268.581 59.7464 265.271 59.2498L265.039 59.4815C264.807 64.7122 263.781 65.7385 266.76 69.3801C268.747 68.0559 272.157 65.5729 274.507 65.275ZM155.195 65.4405L153.672 65.6723C153.507 68.4862 153.341 71.2671 153.242 74.048C153.937 74.3128 153.804 74.3459 154.334 74.7101C154.698 74.6438 155.063 74.5445 155.427 74.4783C155.195 72.4589 155.195 68.9497 155.195 65.4405ZM250.406 68.0559C250.208 68.2214 249.976 68.3538 249.744 68.4862C249.81 68.6187 249.877 68.7842 249.976 68.9166C250.837 68.8504 250.804 68.8504 251.267 68.4862C250.969 68.3207 250.671 68.1883 250.406 68.0559Z" fill="#231815"/>
<path d="M144.965 106.958C145.76 106.958 146.554 106.892 147.349 106.726C148.044 106.594 148.673 106.362 149.269 105.998C149.799 105.667 150.262 105.203 150.56 104.64C150.891 104.011 151.057 103.283 151.023 102.588C151.023 102.058 150.924 101.529 150.692 101.065C150.494 100.602 150.196 100.171 149.832 99.807C149.468 99.4429 149.037 99.1118 148.574 98.8801C148.11 98.6152 147.647 98.4497 147.117 98.3504V98.2842C147.812 98.0525 148.474 97.6221 148.938 97.0593C149.434 96.4965 149.732 95.7682 149.732 95.0399C149.732 94.3447 149.567 93.6825 149.236 93.0866C148.905 92.5238 148.474 92.0604 147.945 91.6962C147.415 91.2989 146.819 91.0341 146.157 90.8355C145.528 90.6368 144.833 90.5375 144.171 90.5375C142.615 90.5375 141.059 90.5706 139.536 90.6037C138.013 90.6699 136.457 90.6699 134.934 90.6699V91.1996C135.365 91.1996 135.828 91.2658 136.225 91.4314C136.523 91.5638 136.821 91.7624 137.02 92.0273C137.219 92.2921 137.351 92.6232 137.417 92.9542C137.483 93.3515 137.55 93.7488 137.516 94.1129V103.283C137.516 103.747 137.483 104.21 137.45 104.64C137.417 104.938 137.318 105.236 137.119 105.501C136.921 105.733 136.623 105.898 136.325 105.965C135.861 106.097 135.398 106.163 134.901 106.196V106.792C135.166 106.759 135.398 106.759 135.663 106.759L136.49 106.726L137.516 106.693H138.874C140.463 106.693 141.721 106.726 142.648 106.825C143.674 106.925 144.435 106.958 144.965 106.958V106.958ZM142.913 98.3504C142.548 98.3504 142.184 98.3173 141.853 98.2511C141.555 98.1849 141.257 98.1187 140.959 98.0194V91.7293L141.754 91.6631C141.986 91.6631 142.251 91.63 142.515 91.63C143.641 91.63 144.535 91.8949 145.197 92.4576C145.859 93.0204 146.19 93.8812 146.19 95.0399C146.19 95.4702 146.124 95.9337 145.958 96.331C145.826 96.7282 145.594 97.0924 145.329 97.3903C145.031 97.6883 144.7 97.92 144.303 98.0856C143.84 98.2842 143.376 98.3835 142.913 98.3504V98.3504ZM143.409 105.832C142.979 105.832 142.582 105.799 142.151 105.7C141.721 105.601 141.324 105.468 140.959 105.303V98.7477C141.324 98.8801 141.688 98.9794 142.052 99.0456C142.548 99.1118 143.012 99.1449 143.509 99.1449C144.204 99.1449 144.932 99.0456 145.594 98.8801C146.091 99.3105 146.521 99.8071 146.819 100.403C147.117 100.966 147.283 101.628 147.316 102.29C147.316 103.482 146.952 104.376 146.223 104.971C145.396 105.567 144.402 105.865 143.409 105.832V105.832ZM170.423 106.329C169.894 106.329 169.397 106.196 168.9 105.965C168.404 105.733 168.04 105.303 167.874 104.806L162.511 90.1403C162.048 90.372 161.551 90.5375 161.021 90.6699C160.69 90.7693 160.326 91.299 159.896 92.2259L155.062 103.614C154.897 104.011 154.731 104.376 154.566 104.674C154.433 104.971 154.235 105.236 154.036 105.501C153.804 105.733 153.573 105.932 153.275 106.064C152.91 106.23 152.513 106.329 152.116 106.362V106.958C152.613 106.925 153.109 106.892 153.606 106.892C154.102 106.859 154.599 106.859 155.095 106.859C155.592 106.859 156.155 106.859 156.685 106.892C157.214 106.925 157.744 106.925 158.274 106.958V106.362C158.042 106.329 157.81 106.263 157.578 106.196C157.347 106.13 157.082 105.998 156.85 105.898C156.651 105.799 156.453 105.634 156.32 105.468C156.188 105.303 156.122 105.137 156.122 104.905C156.122 104.64 156.155 104.342 156.254 104.078C156.353 103.846 156.42 103.647 156.519 103.416L157.777 99.9064H162.71L163.537 102.356C163.604 102.522 163.67 102.72 163.769 102.952L164.034 103.68C164.133 103.912 164.199 104.144 164.266 104.409C164.332 104.607 164.332 104.773 164.365 104.971C164.365 105.402 164.133 105.766 163.736 105.932C163.14 106.196 162.478 106.329 161.816 106.362V106.958C162.511 106.925 163.206 106.892 163.868 106.892C164.564 106.892 165.226 106.859 165.921 106.859H168.139C168.536 106.859 168.934 106.892 169.331 106.892L170.39 106.958L170.423 106.329V106.329ZM162.213 98.7146H158.108L160.194 92.7556H160.227L162.213 98.7146V98.7146ZM187.34 107.322V95.8344C187.34 94.9074 187.373 94.146 187.439 93.5832C187.473 93.0866 187.605 92.6232 187.804 92.1597C188.002 91.8286 188.3 91.5307 188.664 91.3983C189.161 91.2327 189.691 91.1334 190.22 91.1334V90.5375C189.062 90.6368 187.936 90.703 186.744 90.703C186.148 90.703 185.586 90.67 184.99 90.6368L183.235 90.5375V91.1334C183.599 91.1996 183.963 91.2658 184.328 91.3652C184.626 91.4645 184.923 91.5969 185.188 91.7624C185.453 91.9279 185.652 92.1597 185.784 92.4245C185.95 92.7556 186.082 93.1197 186.115 93.4839C186.215 94.1791 186.314 94.8743 186.347 95.5695C186.413 96.3972 186.446 97.2579 186.446 98.1187C186.446 98.9794 186.479 99.8402 186.479 100.668V102.687H186.413C184.824 100.568 183.202 98.5159 181.481 96.5627C179.792 94.6095 178.104 92.5901 176.448 90.5044C175.356 90.6037 174.23 90.6699 173.072 90.6699C172.641 90.6699 172.211 90.6699 171.747 90.6037L170.423 90.5044V91.1003C170.754 91.1665 171.052 91.2658 171.383 91.3652C171.681 91.4645 172.012 91.5638 172.31 91.6962C172.608 91.8286 172.906 91.9611 173.171 92.1597C173.436 92.3583 173.701 92.557 173.899 92.8218L173.8 102.555C173.8 103.151 173.767 103.747 173.701 104.376C173.668 104.773 173.502 105.137 173.237 105.468C172.972 105.766 172.608 105.965 172.211 106.064C171.615 106.23 170.986 106.362 170.357 106.428V107.024C171.052 106.991 171.747 106.958 172.41 106.958C173.072 106.925 173.767 106.925 174.462 106.925C175.091 106.925 175.687 106.925 176.283 106.958C176.879 106.991 177.475 106.991 178.104 107.024V106.428C177.508 106.329 176.945 106.23 176.349 106.031C175.952 105.932 175.621 105.7 175.356 105.369C175.124 105.005 174.959 104.574 174.926 104.144C174.859 103.482 174.826 102.787 174.826 102.091V93.6163C175.224 94.0136 175.687 94.5433 176.217 95.1723C176.746 95.8013 177.375 96.4965 178.004 97.2248C178.633 97.9531 179.329 98.7808 180.024 99.6415L182.11 102.224C182.805 103.084 183.467 103.978 184.096 104.839C184.725 105.7 185.288 106.527 185.784 107.289L187.34 107.322ZM210.382 106.362C209.951 106.329 209.488 106.23 209.09 106.064C208.726 105.932 208.395 105.733 208.097 105.501C207.799 105.269 207.501 105.005 207.27 104.707C207.005 104.409 206.74 104.045 206.475 103.68L201.344 96.3641C201.973 95.8675 202.602 95.3378 203.198 94.775C203.794 94.2122 204.456 93.6494 205.085 93.1529C205.747 92.6563 206.442 92.1928 207.17 91.8286C207.899 91.4645 208.726 91.1996 209.554 91.1334V90.5044C208.859 90.5706 208.164 90.6037 207.534 90.6368C206.872 90.67 206.21 90.6699 205.515 90.6699H203.529C202.867 90.6699 202.238 90.6037 201.576 90.5375V91.1334C201.774 91.1665 201.94 91.1996 202.138 91.2658C202.337 91.3321 202.536 91.4314 202.701 91.5307C202.867 91.63 203.032 91.7624 203.131 91.9279C203.231 92.0935 203.297 92.259 203.297 92.4576C203.264 92.7887 203.131 93.0866 202.9 93.3184C202.602 93.7156 202.271 94.1129 201.907 94.4771C201.509 94.9074 201.079 95.3378 200.615 95.7682C200.152 96.1986 199.689 96.6289 199.258 97.0262C198.828 97.4235 198.43 97.7545 198.099 98.0525C197.768 98.3504 197.504 98.549 197.371 98.6483V93.6163C197.371 93.2853 197.404 92.9873 197.504 92.6563C197.57 92.3583 197.735 92.0935 197.934 91.8617C198.166 91.63 198.43 91.4314 198.762 91.299C199.192 91.1334 199.622 91.0672 200.086 91.1003V90.5044L197.802 90.6037C197.04 90.6368 196.279 90.6699 195.517 90.6699C194.16 90.6699 192.803 90.6037 191.412 90.5044V91.1003C191.843 91.1003 192.273 91.1665 192.67 91.299C192.968 91.4314 193.266 91.5969 193.465 91.8617C193.663 92.0935 193.796 92.3583 193.895 92.6563C193.994 92.9542 194.027 93.2853 194.027 93.6163V103.813C194.027 104.177 193.994 104.508 193.961 104.872C193.928 105.17 193.796 105.435 193.63 105.634C193.432 105.865 193.167 106.031 192.869 106.13C192.405 106.263 191.942 106.329 191.445 106.362V106.958C192.14 106.925 192.803 106.892 193.465 106.892C194.127 106.892 194.822 106.859 195.484 106.859C196.246 106.859 196.974 106.859 197.735 106.892C198.497 106.925 199.258 106.925 200.02 106.958V106.362C199.523 106.362 199.059 106.263 198.596 106.13C198.298 106.064 198.033 105.898 197.802 105.667C197.636 105.435 197.504 105.17 197.47 104.905C197.404 104.541 197.404 104.21 197.404 103.846V99.5753L198.993 98.3173L199.556 99.1118C199.821 99.476 200.119 99.9064 200.483 100.37C200.814 100.833 201.178 101.33 201.542 101.86C201.907 102.389 202.238 102.886 202.536 103.316C202.834 103.747 203.098 104.177 203.264 104.508C203.396 104.707 203.496 104.938 203.562 105.203C203.562 105.402 203.463 105.6 203.297 105.733C203.131 105.865 202.933 105.998 202.701 106.097C202.469 106.196 202.238 106.263 202.006 106.329C201.774 106.395 201.576 106.428 201.443 106.461V106.958C202.205 106.925 202.933 106.892 203.694 106.892C204.456 106.892 205.184 106.859 205.912 106.859C206.674 106.859 207.435 106.859 208.197 106.892C208.958 106.925 209.719 106.925 210.481 106.958L210.382 106.362ZM227.365 107.322C228.689 107.322 229.98 107.123 231.238 106.726C232.331 106.362 233.357 105.799 234.251 105.038C235.111 104.309 235.773 103.382 236.204 102.323C237.131 100.006 237.131 97.3903 236.204 95.073C235.773 94.0467 235.111 93.1197 234.251 92.3583C233.357 91.5969 232.331 91.0341 231.238 90.6699C228.722 89.9085 226.04 89.9085 223.524 90.6699C222.432 91.0341 221.406 91.5969 220.512 92.3583C219.651 93.0866 218.989 94.0136 218.559 95.073C217.632 97.3903 217.632 100.006 218.559 102.323C218.989 103.349 219.684 104.276 220.512 105.038C221.406 105.799 222.432 106.362 223.524 106.726C224.749 107.123 226.074 107.355 227.365 107.322V107.322ZM227.199 106.196C226.272 106.23 225.345 105.998 224.518 105.567C223.756 105.17 223.127 104.574 222.664 103.879C222.167 103.118 221.803 102.29 221.571 101.429C221.108 99.5091 221.108 97.5228 221.571 95.6358C221.77 94.775 222.134 93.9474 222.664 93.186C223.127 92.4907 223.789 91.8948 224.518 91.4976C226.206 90.6699 228.192 90.6699 229.881 91.4976C230.642 91.8948 231.271 92.4907 231.735 93.186C232.231 93.9143 232.595 94.7419 232.827 95.6358C233.291 97.5559 233.291 99.5422 232.827 101.429C232.628 102.29 232.264 103.151 231.735 103.879C231.271 104.574 230.609 105.17 229.881 105.567C229.053 105.998 228.126 106.23 227.199 106.196ZM247.327 106.263C246.798 106.263 246.301 106.23 245.771 106.13C245.44 106.064 245.142 105.932 244.877 105.733C244.679 105.534 244.513 105.303 244.48 105.038C244.414 104.707 244.381 104.376 244.381 104.011V98.2842H245.705C246.235 98.2842 246.764 98.3173 247.294 98.4497C247.691 98.549 248.089 98.7146 248.42 98.9794C248.751 99.2442 249.016 99.5753 249.181 99.9726C249.413 100.469 249.578 100.999 249.678 101.529H250.174C250.174 100.933 250.141 100.337 250.108 99.7408C250.075 99.1449 250.075 98.549 250.075 97.9531C250.075 97.3572 250.075 96.7945 250.108 96.1986C250.141 95.6027 250.141 95.0068 250.174 94.444H249.678C249.578 94.9737 249.38 95.4702 249.082 95.9006C248.85 96.2648 248.519 96.5958 248.155 96.8607C247.791 97.0924 247.393 97.291 246.996 97.3903C246.566 97.4897 246.135 97.5559 245.705 97.5559H244.381V91.4976H247.195C248.817 91.4976 250.108 91.7955 250.969 92.3914C251.83 92.9873 252.459 93.9805 252.823 95.404H253.319C253.253 94.9074 253.187 94.3777 253.187 93.8481V91.4314C253.187 91.1334 253.187 90.8355 253.22 90.5375L248.387 90.6368C246.798 90.67 245.175 90.703 243.553 90.703C242.693 90.703 241.832 90.67 240.971 90.6368L238.389 90.5375V91.2327C238.852 91.2327 239.316 91.2989 239.746 91.4314C240.044 91.5307 240.342 91.7293 240.541 91.9611C240.739 92.2259 240.872 92.5239 240.905 92.8218C240.971 93.2191 241.004 93.6494 241.004 94.0467V104.011C241.004 104.342 240.971 104.707 240.905 105.038C240.839 105.303 240.706 105.534 240.541 105.733C240.309 105.932 240.044 106.064 239.746 106.13C239.316 106.23 238.852 106.263 238.389 106.263V106.958C239.084 106.925 239.779 106.892 240.474 106.892C241.17 106.892 241.865 106.859 242.56 106.859C243.355 106.859 244.149 106.859 244.944 106.892C245.738 106.925 246.533 106.925 247.327 106.958V106.263ZM269.839 107.322C271.594 107.355 273.315 106.925 274.805 106.031C276.261 105.104 277.486 103.846 278.347 102.323L277.751 101.694C277.42 102.158 277.089 102.621 276.692 103.051C276.295 103.515 275.831 103.945 275.335 104.276C274.805 104.64 274.209 104.938 273.613 105.17C272.918 105.402 272.189 105.501 271.461 105.501C270.468 105.534 269.475 105.336 268.548 104.971C267.753 104.64 267.025 104.144 266.462 103.482C265.899 102.82 265.469 102.058 265.204 101.231C264.906 100.304 264.774 99.3436 264.774 98.3835C264.774 97.5559 264.873 96.7282 265.039 95.9337C265.204 95.1061 265.502 94.3447 265.933 93.6163C266.363 92.9211 266.926 92.3583 267.588 91.8949C268.349 91.4314 269.243 91.1996 270.137 91.2327C270.865 91.2327 271.627 91.3983 272.289 91.7293C272.951 92.0604 273.547 92.4907 274.076 93.0204C274.606 93.5832 275.07 94.2122 275.401 94.8743C275.732 95.5696 275.997 96.2979 276.096 97.0924H276.725C276.659 96.3972 276.559 95.702 276.526 95.0068C276.46 94.3115 276.46 93.6163 276.46 92.9211C276.46 92.5901 276.46 92.259 276.493 91.9611C276.526 91.6631 276.526 91.3321 276.526 91.001C276.427 91.0341 276.328 91.0341 276.261 91.0341C275.997 91.001 275.732 90.9679 275.467 90.9017C275.003 90.8024 274.474 90.703 273.878 90.6037C273.282 90.5044 272.686 90.372 272.057 90.3058C271.494 90.2065 270.965 90.1734 270.402 90.1734C269.144 90.1734 267.886 90.372 266.694 90.8024C265.635 91.1996 264.641 91.7955 263.814 92.557C262.986 93.3184 262.357 94.2453 261.927 95.2716C261.463 96.3972 261.232 97.589 261.265 98.7808C261.265 100.006 261.463 101.197 261.927 102.323C262.324 103.349 262.92 104.276 263.681 105.038C264.476 105.799 265.403 106.395 266.429 106.759C267.455 107.123 268.647 107.355 269.839 107.322V107.322ZM299.634 106.362C299.137 106.329 298.707 106.296 298.343 106.23C298.045 106.196 297.78 106.064 297.548 105.865C297.35 105.667 297.184 105.435 297.118 105.137C297.019 104.74 296.985 104.309 296.985 103.912V94.2122C296.985 93.7157 297.019 93.2522 297.052 92.7556C297.085 92.4245 297.184 92.1266 297.383 91.8949C297.581 91.6631 297.879 91.4976 298.177 91.3983C298.641 91.2658 299.137 91.1665 299.634 91.1334V90.5375C298.21 90.6368 296.787 90.703 295.363 90.703C293.94 90.703 292.45 90.6368 290.993 90.5375V91.1334C291.49 91.1665 291.987 91.2658 292.483 91.3983C292.781 91.4976 293.079 91.6631 293.278 91.8949C293.476 92.1597 293.576 92.4576 293.609 92.7556C293.675 93.2191 293.675 93.7157 293.675 94.2122V97.4897H285.399V94.2122C285.399 93.7157 285.432 93.2522 285.465 92.7556C285.498 92.4245 285.597 92.1266 285.796 91.8949C286.028 91.6631 286.292 91.4976 286.623 91.3983C287.087 91.2658 287.584 91.1665 288.08 91.1334V90.5375C286.657 90.6368 285.233 90.703 283.809 90.703C282.386 90.703 280.929 90.6368 279.506 90.5375V91.1334C279.969 91.1665 280.433 91.2658 280.896 91.3983C281.194 91.4976 281.459 91.6631 281.658 91.8949C281.856 92.1597 281.956 92.4576 281.989 92.7556C282.022 93.2191 282.055 93.7157 282.055 94.2122V103.912C282.055 104.342 282.022 104.74 281.922 105.137C281.856 105.402 281.724 105.667 281.492 105.865C281.26 106.064 280.996 106.163 280.698 106.23C280.367 106.296 279.969 106.329 279.44 106.362V106.958C280.135 106.925 280.83 106.892 281.558 106.892C282.254 106.859 282.949 106.859 283.644 106.859C284.339 106.859 285.101 106.859 285.829 106.892C286.557 106.925 287.286 106.925 288.014 106.958V106.362C287.517 106.329 287.087 106.296 286.756 106.23C286.458 106.196 286.16 106.064 285.928 105.865C285.697 105.667 285.564 105.435 285.498 105.137C285.399 104.74 285.365 104.309 285.365 103.912V98.549H293.642V103.912C293.642 104.342 293.609 104.74 293.509 105.137C293.443 105.402 293.278 105.667 293.079 105.865C292.847 106.064 292.549 106.163 292.251 106.23C291.92 106.296 291.523 106.329 290.993 106.362V106.958C291.722 106.925 292.417 106.892 293.145 106.892C293.874 106.859 294.569 106.859 295.297 106.859C296.025 106.859 296.721 106.859 297.449 106.892C298.177 106.925 298.872 106.925 299.601 106.958L299.634 106.362V106.362ZM310.757 106.362C309.731 106.329 309.036 106.13 308.605 105.832C308.175 105.501 307.943 104.971 307.976 104.409V93.8812C307.976 93.4508 308.01 93.0204 308.109 92.6232C308.175 92.3252 308.341 92.0273 308.539 91.7955C308.771 91.5638 309.069 91.3983 309.4 91.3321C309.863 91.1996 310.327 91.1665 310.824 91.1334V90.5375L308.672 90.6368C307.976 90.67 307.248 90.703 306.52 90.703C305.792 90.703 304.997 90.7031 304.236 90.6368L301.951 90.5375V91.1334C302.978 91.1665 303.673 91.3983 304.07 91.7955C304.434 92.1928 304.633 92.888 304.633 93.8812V104.409C304.666 104.971 304.434 105.501 304.004 105.832C303.607 106.13 302.878 106.296 301.852 106.362V106.925C302.613 106.892 303.342 106.859 304.103 106.859C304.865 106.825 305.593 106.825 306.354 106.825C307.116 106.825 307.811 106.825 308.539 106.859C309.268 106.892 309.963 106.892 310.724 106.925L310.757 106.362V106.362ZM329.23 107.322V95.8344C329.23 94.9074 329.263 94.146 329.33 93.5832C329.363 93.0866 329.495 92.6232 329.694 92.1597C329.892 91.8286 330.19 91.5307 330.554 91.3983C331.051 91.2327 331.581 91.1334 332.11 91.1334V90.5375C330.952 90.6368 329.793 90.703 328.634 90.703C328.038 90.703 327.476 90.7031 326.88 90.6368L325.125 90.5375V91.1334C325.489 91.1996 325.82 91.2658 326.184 91.3983C326.482 91.4645 326.78 91.63 327.045 91.7955C327.31 91.9611 327.509 92.1928 327.641 92.4576C327.807 92.7887 327.939 93.1528 327.972 93.517C328.072 94.2122 328.171 94.9075 328.204 95.6027C328.27 96.4303 328.303 97.291 328.303 98.1518C328.303 99.0125 328.336 99.8733 328.336 100.701V102.72H328.27C326.681 100.602 325.059 98.549 323.337 96.5958C321.649 94.6426 319.961 92.6232 318.305 90.5375C317.18 90.6368 316.054 90.703 314.929 90.703C314.498 90.703 314.068 90.7031 313.604 90.6368L312.28 90.5375V91.1334C312.611 91.1996 312.909 91.299 313.24 91.3983C313.538 91.4976 313.869 91.5969 314.167 91.7293C314.465 91.8617 314.763 91.9942 315.028 92.1928C315.293 92.3914 315.558 92.5901 315.756 92.8549L315.657 102.588C315.657 103.184 315.624 103.78 315.558 104.409C315.525 104.806 315.359 105.17 315.094 105.501C314.829 105.799 314.465 105.998 314.068 106.097C313.472 106.263 312.843 106.395 312.214 106.461V107.057C312.909 107.024 313.604 106.991 314.267 106.991C314.929 106.958 315.624 106.958 316.319 106.958C316.948 106.958 317.544 106.958 318.14 106.991C318.736 107.024 319.332 107.024 319.961 107.057V106.461C319.365 106.362 318.802 106.263 318.206 106.064C317.809 105.965 317.478 105.733 317.213 105.402C316.981 105.038 316.816 104.607 316.783 104.177C316.716 103.515 316.683 102.82 316.683 102.124V93.6163C317.08 94.0136 317.544 94.5433 318.074 95.1723C318.636 95.8013 319.232 96.4965 319.861 97.2248C320.49 97.9862 321.186 98.7808 321.881 99.6415L323.966 102.224C324.662 103.118 325.324 103.978 325.953 104.839C326.582 105.7 327.145 106.527 327.641 107.289L329.23 107.322V107.322ZM350.02 106.362C349.491 106.362 348.994 106.229 348.498 105.998C348.001 105.766 347.637 105.336 347.471 104.839L342.108 90.1734C341.645 90.4051 341.148 90.5706 340.618 90.703C340.287 90.8024 339.923 91.3321 339.493 92.259L334.659 103.647C334.494 104.045 334.328 104.409 334.163 104.707C334.03 105.005 333.832 105.269 333.633 105.534C333.401 105.766 333.17 105.965 332.872 106.097C332.508 106.263 332.11 106.362 331.713 106.395V106.991C332.21 106.958 332.706 106.925 333.203 106.925C333.699 106.892 334.196 106.892 334.693 106.892C335.189 106.892 335.752 106.892 336.282 106.925C336.811 106.958 337.341 106.958 337.871 106.991V106.395C337.639 106.362 337.407 106.296 337.176 106.23C336.944 106.163 336.679 106.031 336.447 105.932C336.249 105.832 336.05 105.667 335.917 105.501C335.785 105.336 335.719 105.17 335.719 104.938C335.719 104.674 335.752 104.376 335.851 104.111C335.951 103.879 336.017 103.68 336.116 103.449L337.374 99.9395H342.307L343.134 102.389C343.201 102.555 343.267 102.753 343.366 102.985L343.631 103.713C343.73 103.945 343.797 104.177 343.863 104.442C343.929 104.64 343.929 104.806 343.962 105.005C343.962 105.435 343.73 105.799 343.333 105.965C342.737 106.23 342.075 106.362 341.413 106.395V106.991C342.108 106.958 342.803 106.925 343.466 106.925C344.128 106.925 344.823 106.892 345.518 106.892H347.736C348.133 106.892 348.531 106.925 348.928 106.925L349.987 106.991L350.02 106.362V106.362ZM341.81 98.7477H337.705L339.791 92.7887H339.857L341.81 98.7477Z" fill="black"/>
</svg>
