<svg width="128" height="128" viewBox="0 0 128 128" fill="none" xmlns="http://www.w3.org/2000/svg">
<path d="M84.4172 65.6519C84.4172 65.6519 97.1927 64.7304 99.9927 63.6829C99.9927 63.6829 103.445 63.1594 101.66 58.4549C101.66 58.4549 99.9927 55.0699 98.7262 53.1099C98.7262 53.1099 97.1977 50.7109 95.5147 49.4209C93.8317 48.1309 92.4732 47.1499 91.7677 46.2369C91.0617 45.3239 88.5172 43.4634 87.3647 32.3619C87.3647 32.3619 87.2312 29.2284 86.8502 24.0054C86.8502 24.0054 86.3362 18.3839 81.3502 16.3084C81.3502 16.3084 77.6552 14.4894 69.2222 16.3084C60.7892 18.1269 49.1612 24.5384 40.8662 33.8024C32.5662 43.0659 18.6382 60.8119 26.1522 84.8339C33.6662 108.851 61.6557 118.638 81.3317 108.579C101.002 98.5159 103.44 83.6554 103.44 83.6554L103.864 81.3469C103.864 81.3469 105.531 73.7519 97.1977 73.7519L85.0697 73.6109C85.0697 73.6109 82.3887 95.9259 60.5227 92.9284C60.5227 92.9284 50.0417 92.0119 44.6802 80.0084C44.6802 80.0084 37.7852 66.1664 51.8277 53.7744C51.8277 53.7744 66.0077 44.1229 78.6507 56.1269C78.6507 56.1269 83.3602 60.1569 84.3792 65.6424L84.4172 65.6524V65.6519Z" fill="#025198"/>
<path d="M54.6975 61.2019H73.3025V81.7209H54.6975V61.2019Z" fill="#EB8919"/>
</svg>
