<svg width="128" height="128" viewBox="0 0 128 128" fill="none" xmlns="http://www.w3.org/2000/svg">
<path d="M65.6998 21.5C79.3498 22.05 92.1998 29.25 99.7498 41.05C103.6 47.05 106 54.1 106.4 61.65V64.8C106.25 72.95 103.75 80.55 99.6498 87C94.9498 94.35 87.9498 100.3 79.1498 103.65C74.6998 105.35 70.1498 106.25 65.5998 106.45V106.4C65.0498 106.4 64.4498 106.45 63.8998 106.45C63.3498 106.45 62.7498 106.45 62.1998 106.4V106.45C47.9498 105.85 34.5498 98.05 27.1498 85.3C23.9998 79.8 21.9998 73.4 21.5998 66.6L21.5498 66V64V64.05C21.5498 54.3 24.7998 45.35 30.2998 38.2L30.5998 37.8C34.6498 32.65 39.9498 28.35 46.2498 25.45C47.4998 24.85 48.7998 24.35 50.1498 23.9C54.1998 22.5 58.2498 21.75 62.3498 21.6V21.65C62.8998 21.65 63.4998 21.6 64.0498 21.6C64.5498 21.5 65.1498 21.5 65.6998 21.5ZM63.9998 32.25C58.7498 32.25 53.7998 33.5 49.4498 35.75C41.9498 40.4 38.5498 49.85 41.8498 58.4C44.4998 65.3 50.7998 69.75 57.6998 70.35V81C46.7998 80.4 36.7498 73.7 32.2998 63.05V64C32.2998 81.55 46.4998 95.75 64.0498 95.75C69.2998 95.75 74.2498 94.5 78.5998 92.2C86.0998 87.55 89.4998 78.1 86.2498 69.6C83.5998 62.7 77.2998 58.25 70.3998 57.65V47C81.2998 47.6 91.3498 54.3 95.7998 64.9V63.95C95.7498 46.45 81.5498 32.25 63.9998 32.25ZM57.6498 57.65H70.2998V70.35H57.6498V57.65Z" fill="#DE0112"/>
</svg>
