<svg width="128" height="128" viewBox="0 0 128 128" fill="none" xmlns="http://www.w3.org/2000/svg">
<path d="M64 21.5C87.468 21.5 106.5 40.5315 106.5 64C106.5 87.4685 87.468 106.5 64 106.5C40.532 106.5 21.5 87.4685 21.5 64C21.5 40.5315 40.532 21.5 64 21.5ZM81.5085 87.5915H46.4915C46.0165 89.134 45.4215 90.9075 44.816 92.479C50.2935 96.177 56.896 98.336 64 98.336C71.127 98.336 77.747 96.1635 83.235 92.4445C82.621 90.862 81.9895 89.153 81.5085 87.5915ZM91.616 43.597C90.066 47.374 85.9255 60.9615 91.2765 84.852C95.7035 79.07 98.336 71.8425 98.336 63.9995C98.336 56.3595 95.838 49.3015 91.616 43.597ZM36.3845 43.598C32.162 49.302 29.6645 56.3595 29.6645 63.9995C29.6536 71.5257 32.127 78.8451 36.701 84.822C42.033 60.9655 37.9315 47.372 36.3845 43.598ZM79.5545 50.532H48.445C49.7155 57.715 50.4215 66.937 48.903 77.003H79.098C77.5795 66.9365 78.284 57.714 79.5555 50.532H79.5545ZM70.6745 56.6955C71.7585 56.6955 72.301 57.237 72.301 58.32V69.016C72.301 70.099 71.7585 70.641 70.674 70.641H57.659C56.574 70.641 56.0315 70.099 56.0315 69.016V58.32C56.0315 57.237 56.5735 56.695 57.6585 56.695L70.6745 56.6955ZM64 29.6635C56.714 29.6635 49.958 31.936 44.4 35.8085C44.65 36.422 45.205 37.8485 45.867 39.943H82.133C82.7955 37.8495 83.35 36.422 83.6 35.809C78.041 31.936 71.286 29.6635 64 29.6635Z" fill="#B91B24"/>
</svg>
