<svg width="432" height="128" viewBox="0 0 432 128" fill="none" xmlns="http://www.w3.org/2000/svg">
<path d="M152.018 107.466H143.687C143.583 107.466 143.484 107.425 143.41 107.352C143.337 107.278 143.296 107.179 143.296 107.075V88.5014C143.296 88.3977 143.337 88.2983 143.41 88.225C143.484 88.1517 143.583 88.1105 143.687 88.1105H151.549C155.613 88.2369 157.77 89.7786 158.02 92.737C157.957 95.192 156.644 96.7026 154.081 97.2692V97.364C157.02 97.8673 158.613 99.4091 158.864 101.99C158.864 105.641 156.582 107.466 152.018 107.466ZM151.361 98.6854H146.594C146.49 98.6854 146.391 98.7266 146.317 98.7999C146.244 98.8732 146.203 98.9726 146.203 99.0763V104.904C146.203 105.12 146.378 105.295 146.594 105.295H151.549C154.3 105.295 155.675 104.13 155.675 101.801C155.55 99.787 154.112 98.7486 151.361 98.6854V98.6854ZM150.986 90.3768H146.594C146.543 90.3768 146.492 90.3869 146.444 90.4065C146.397 90.4262 146.354 90.455 146.317 90.4913C146.281 90.5276 146.252 90.5707 146.233 90.6181C146.213 90.6655 146.203 90.7163 146.203 90.7677V95.9343C146.203 96.1503 146.378 96.3252 146.594 96.3252H150.986C153.549 96.262 154.863 95.2236 154.925 93.2092C154.863 91.3208 153.549 90.3768 150.986 90.3768ZM172.529 88.3573L179.908 106.931C179.932 106.991 179.941 107.055 179.934 107.118C179.927 107.181 179.904 107.242 179.869 107.295C179.833 107.348 179.785 107.391 179.728 107.421C179.672 107.451 179.609 107.466 179.545 107.466H177.202C177.123 107.466 177.045 107.442 176.98 107.397C176.915 107.352 176.865 107.288 176.837 107.214L175.058 102.525C175.03 102.451 174.98 102.387 174.915 102.342C174.85 102.297 174.773 102.273 174.693 102.273H166.698C166.619 102.273 166.542 102.297 166.476 102.343C166.411 102.388 166.361 102.451 166.333 102.525L164.555 107.214C164.527 107.288 164.477 107.352 164.412 107.397C164.347 107.442 164.269 107.466 164.19 107.466H161.846C161.782 107.466 161.72 107.45 161.663 107.421C161.607 107.391 161.559 107.348 161.523 107.295C161.487 107.242 161.465 107.181 161.458 107.118C161.451 107.055 161.46 106.991 161.483 106.931L168.863 88.3573C168.892 88.2846 168.942 88.2222 169.007 88.1783C169.071 88.1344 169.148 88.1109 169.226 88.1109H172.166C172.244 88.1109 172.32 88.1344 172.385 88.1783C172.45 88.2222 172.5 88.2846 172.529 88.3573V88.3573ZM170.743 90.6599C170.715 90.6599 170.689 90.6685 170.667 90.6846C170.645 90.7006 170.628 90.7232 170.62 90.7491L170.09 92.3485C170.088 92.3558 170.085 92.3631 170.082 92.3702L169.84 92.9775C169.439 94.0087 168.551 96.3204 167.179 99.9129H173.644C173.707 99.9128 173.77 99.8973 173.826 99.8678C173.882 99.8382 173.93 99.7955 173.966 99.7432C174.002 99.6909 174.024 99.6308 174.032 99.5678C174.039 99.5049 174.031 99.441 174.008 99.3819L171.305 92.3596C171.305 92.2964 171.274 92.1709 171.212 91.9817L171.006 91.4744C170.831 91.0259 170.743 90.7546 170.743 90.6599V90.6599ZM182.762 88.1109H185.624C185.69 88.1109 185.756 88.128 185.814 88.1605C185.872 88.1929 185.921 88.2398 185.956 88.2965L195.595 103.973H195.689V88.5014C195.689 88.3977 195.73 88.2983 195.803 88.225C195.876 88.1517 195.976 88.1105 196.08 88.1105H198.112C198.215 88.1105 198.315 88.1517 198.388 88.225C198.461 88.2983 198.503 88.3977 198.503 88.5014V107.075C198.503 107.179 198.461 107.278 198.388 107.352C198.315 107.425 198.215 107.466 198.112 107.466H195.343C195.276 107.466 195.211 107.449 195.153 107.417C195.095 107.385 195.046 107.339 195.011 107.282L185.185 91.5099V107.075C185.185 107.179 185.144 107.278 185.071 107.352C184.997 107.425 184.898 107.466 184.794 107.466H182.762C182.659 107.466 182.559 107.425 182.486 107.352C182.413 107.278 182.372 107.179 182.372 107.075V88.5014C182.372 88.3977 182.413 88.2983 182.486 88.225C182.56 88.1517 182.659 88.1105 182.763 88.1105L182.762 88.1109ZM219.088 107.466H216.242C216.179 107.466 216.118 107.451 216.062 107.423C216.007 107.394 215.959 107.352 215.923 107.302L209.475 98.2132L205.63 102.084V107.075C205.63 107.127 205.62 107.178 205.6 107.225C205.581 107.272 205.552 107.315 205.515 107.352C205.479 107.388 205.436 107.417 205.389 107.436C205.341 107.456 205.29 107.466 205.239 107.466H203.113C203.009 107.466 202.91 107.425 202.837 107.352C202.764 107.278 202.722 107.179 202.722 107.075V88.5014C202.722 88.3977 202.764 88.2983 202.837 88.225C202.91 88.1517 203.01 88.1105 203.113 88.1105H205.239C205.343 88.1105 205.442 88.1517 205.515 88.225C205.589 88.2983 205.63 88.3977 205.63 88.5014V98.4023L215.361 88.2317C215.398 88.1936 215.442 88.1632 215.49 88.1424C215.539 88.1217 215.591 88.1109 215.644 88.1109H218.391C218.468 88.1111 218.543 88.1339 218.607 88.1765C218.671 88.2191 218.721 88.2796 218.751 88.3505C218.78 88.4214 218.789 88.4994 218.774 88.5749C218.76 88.6504 218.723 88.72 218.67 88.775L211.257 96.3252L219.397 106.837C219.442 106.894 219.469 106.963 219.476 107.036C219.484 107.109 219.471 107.182 219.439 107.247C219.406 107.313 219.357 107.368 219.295 107.407C219.233 107.446 219.161 107.466 219.088 107.466V107.466ZM239.235 87.8278C245.331 87.8278 248.613 91.5099 248.613 97.9301C248.613 104.35 245.142 107.749 239.141 107.749C233.14 107.749 229.763 104.386 229.763 97.9301C229.763 91.4744 233.139 87.8274 239.235 87.8274L239.235 87.8278ZM239.047 105.389C243.011 105.389 245.33 102.882 245.33 97.9297C245.33 92.9771 243.119 90.3764 239.141 90.3764C235.162 90.3764 232.858 93.2088 232.858 97.9297C232.858 102.651 235.083 105.389 239.047 105.389ZM265.916 90.5651H255.897V96.6079H264.602C264.706 96.6079 264.805 96.649 264.879 96.7223C264.952 96.7956 264.993 96.8951 264.993 96.9987V98.578C264.993 98.6816 264.952 98.7809 264.879 98.8541C264.805 98.9274 264.706 98.9685 264.602 98.9685H255.897V107.075C255.897 107.179 255.855 107.278 255.782 107.351C255.709 107.425 255.609 107.466 255.506 107.466H253.286C253.182 107.466 253.083 107.425 253.01 107.351C252.936 107.278 252.895 107.179 252.895 107.075V88.501C252.895 88.3973 252.936 88.2979 253.01 88.2246C253.083 88.1513 253.182 88.1101 253.286 88.1101H265.916C266.019 88.1101 266.119 88.1513 266.192 88.2246C266.265 88.2979 266.306 88.3973 266.306 88.501V90.1746C266.306 90.2783 266.265 90.3777 266.192 90.451C266.119 90.5243 266.019 90.5655 265.916 90.5655V90.5651ZM283.812 107.466H277.732C277.629 107.466 277.529 107.425 277.456 107.351C277.383 107.278 277.341 107.179 277.341 107.075V88.501C277.341 88.3973 277.383 88.2979 277.456 88.2246C277.529 88.1513 277.629 88.1101 277.732 88.1101H283.718C290.158 88.2364 293.441 91.4463 293.565 97.741C293.69 104.35 290.44 107.592 283.812 107.465V107.466ZM283.625 90.5651H280.639C280.536 90.5651 280.436 90.6063 280.363 90.6796C280.29 90.7529 280.248 90.8523 280.248 90.956V104.809C280.248 105.025 280.423 105.2 280.639 105.2H283.625C288.189 105.2 290.471 102.713 290.471 97.741C290.346 93.0829 288.064 90.6911 283.625 90.5651ZM307.23 88.3569L314.61 106.931C314.634 106.99 314.643 107.054 314.636 107.118C314.629 107.181 314.606 107.242 314.571 107.295C314.535 107.347 314.487 107.39 314.43 107.42C314.374 107.45 314.311 107.466 314.247 107.466H311.904C311.825 107.466 311.747 107.442 311.682 107.397C311.617 107.352 311.567 107.288 311.539 107.214L309.761 102.525C309.732 102.451 309.682 102.387 309.617 102.342C309.552 102.297 309.475 102.273 309.395 102.273H301.4C301.321 102.273 301.244 102.297 301.178 102.342C301.113 102.387 301.063 102.451 301.035 102.525L299.257 107.214C299.229 107.288 299.179 107.352 299.114 107.397C299.048 107.442 298.971 107.466 298.891 107.466H296.548C296.484 107.466 296.422 107.45 296.365 107.42C296.309 107.39 296.261 107.347 296.225 107.295C296.189 107.242 296.167 107.181 296.16 107.118C296.153 107.054 296.161 106.99 296.185 106.931L303.565 88.3569C303.594 88.2842 303.644 88.2218 303.709 88.1779C303.774 88.134 303.85 88.1105 303.928 88.1105H306.868C306.946 88.1105 307.022 88.134 307.087 88.1779C307.152 88.2218 307.202 88.2842 307.231 88.3569H307.23ZM305.445 90.6595C305.417 90.6595 305.391 90.6682 305.369 90.6842C305.347 90.7002 305.33 90.7228 305.322 90.7487L304.792 92.3469C304.79 92.3551 304.787 92.3631 304.783 92.371L304.677 92.6328C304.368 93.4145 303.436 95.8411 301.881 99.9125H308.346C308.409 99.9124 308.472 99.897 308.528 99.8674C308.584 99.8378 308.632 99.7951 308.668 99.7428C308.704 99.6905 308.726 99.6303 308.734 99.5674C308.741 99.5045 308.733 99.4407 308.71 99.3815L306.014 92.3726C306.012 92.3681 306.01 92.3636 306.007 92.3592C306.007 92.296 305.976 92.1705 305.914 91.9814L305.77 91.63C305.553 91.0879 305.445 90.7645 305.445 90.6595V90.6595ZM318.465 88.1105H321.326C321.392 88.1105 321.458 88.1275 321.516 88.16C321.574 88.1925 321.623 88.2393 321.658 88.2961L331.297 103.972H331.391V88.501C331.391 88.3974 331.432 88.298 331.506 88.2247C331.579 88.1514 331.678 88.1102 331.782 88.1101H333.814C333.917 88.1101 334.017 88.1513 334.09 88.2246C334.164 88.2979 334.205 88.3973 334.205 88.501V107.075C334.205 107.179 334.164 107.278 334.09 107.351C334.017 107.425 333.917 107.466 333.814 107.466H331.045C330.979 107.466 330.914 107.449 330.856 107.417C330.798 107.385 330.749 107.338 330.714 107.282L320.887 91.5095V107.075C320.887 107.179 320.846 107.278 320.773 107.351C320.7 107.425 320.6 107.466 320.497 107.466H318.465C318.361 107.466 318.262 107.425 318.188 107.351C318.115 107.278 318.074 107.179 318.074 107.075V88.501C318.074 88.3973 318.115 88.2979 318.188 88.2246C318.262 88.1513 318.361 88.1101 318.465 88.1101V88.1105ZM344.896 107.466H338.815C338.712 107.466 338.612 107.425 338.539 107.351C338.466 107.278 338.425 107.179 338.425 107.075V88.501C338.425 88.3973 338.466 88.2979 338.539 88.2246C338.612 88.1513 338.712 88.1101 338.815 88.1101H344.802C351.242 88.2364 354.524 91.4463 354.649 97.741C354.774 104.35 351.523 107.592 344.896 107.465V107.466ZM344.708 90.5651H341.722C341.671 90.5651 341.62 90.5752 341.573 90.5949C341.525 90.6145 341.482 90.6433 341.446 90.6796C341.41 90.7159 341.381 90.759 341.361 90.8064C341.342 90.8538 341.332 90.9047 341.332 90.956V104.809C341.332 105.025 341.507 105.2 341.722 105.2H344.708C349.272 105.2 351.554 102.713 351.554 97.741C351.429 93.0829 349.147 90.6911 344.708 90.5651ZM367.747 87.827C373.843 87.827 377.125 91.474 377.125 97.9297C377.125 104.385 373.843 107.749 367.654 107.749C361.464 107.749 358.275 104.385 358.275 97.9297C358.275 91.474 361.651 87.827 367.747 87.827ZM367.56 105.389C371.561 105.389 373.843 102.651 373.843 97.9297C373.843 93.2088 371.561 90.3764 367.654 90.3764C363.746 90.3764 361.37 93.2088 361.37 97.9297C361.37 102.651 363.558 105.389 367.56 105.389ZM380.986 88.1105H383.847C383.913 88.1105 383.979 88.1275 384.037 88.16C384.096 88.1925 384.145 88.2393 384.18 88.2961L393.819 103.972H393.912V88.501C393.912 88.3973 393.954 88.2979 394.027 88.2246C394.1 88.1513 394.2 88.1101 394.303 88.1101H396.335C396.439 88.1102 396.538 88.1514 396.612 88.2247C396.685 88.298 396.726 88.3974 396.726 88.501V107.075C396.726 107.179 396.685 107.278 396.611 107.351C396.538 107.425 396.439 107.466 396.335 107.466H393.566C393.5 107.466 393.435 107.449 393.377 107.417C393.319 107.385 393.27 107.338 393.235 107.282L383.409 91.5095V107.075C383.409 107.179 383.368 107.278 383.294 107.351C383.221 107.425 383.122 107.466 383.018 107.466H380.986C380.882 107.466 380.783 107.425 380.71 107.351C380.636 107.278 380.595 107.179 380.595 107.075V88.501C380.595 88.3973 380.636 88.2979 380.71 88.2246C380.783 88.1513 380.882 88.1101 380.986 88.1101V88.1105ZM418.296 96.7966V103.972C416.983 106.427 414.169 107.686 409.855 107.749C403.791 107.434 400.29 104.186 400.29 97.835C400.29 91.4843 403.666 88.1421 409.48 87.827C413.919 87.8902 417.343 89.9184 418.296 94.0585C417.39 94.064 416.42 94.064 415.389 94.0585C414.451 91.6039 412.481 90.3764 409.48 90.3764C405.729 90.7542 403.384 93.1476 403.384 97.8354C403.384 102.523 405.791 105.074 409.855 105.388C412.544 105.326 414.451 104.539 415.576 103.028V99.2516H409.683C409.58 99.2515 409.48 99.2103 409.407 99.137C409.334 99.0637 409.293 98.9643 409.293 98.8607V97.1883C409.293 97.0846 409.334 96.9852 409.407 96.9118C409.48 96.8385 409.58 96.7974 409.683 96.7974H418.296L418.296 96.7966Z" fill="#1B1918"/>
<path d="M64.0002 14C91.6093 14 114 36.3903 114 63.9998C114 91.6097 91.6093 114 64.0002 114C36.3903 114 14 91.6101 14 64.0002C14 36.3903 36.3907 14 64.0002 14ZM84.598 91.755H43.4024C42.8433 93.5692 42.1425 95.6558 41.4306 97.5048C47.8749 101.855 55.6418 104.395 64.0002 104.395C72.3846 104.395 80.1733 101.839 86.6294 97.4641C85.9069 95.6025 85.1642 93.5917 84.598 91.755V91.755ZM96.4901 39.9966C94.6664 44.4399 89.7947 60.4251 96.0901 88.532C101.298 81.7293 104.395 73.2264 104.395 63.9998C104.395 55.0113 101.457 46.7078 96.4897 39.9966H96.4901ZM31.5111 39.9974C26.5435 46.7086 23.6048 55.0113 23.6048 63.9998C23.6048 73.2106 26.6915 81.7008 31.8834 88.4965C38.1564 60.4298 33.3313 44.4376 31.5111 39.9974V39.9974ZM82.3002 48.156H45.6994C47.1942 56.606 48.0249 67.4549 46.2384 79.2979H81.762C79.9755 67.4553 80.8042 56.6052 82.2998 48.156H82.3002ZM71.8524 55.4065C73.1277 55.4065 73.7661 56.0441 73.7661 57.3174V69.902C73.7661 71.1757 73.1281 71.8129 71.8524 71.8129H56.54C55.2636 71.8129 54.6252 71.1757 54.6252 69.902V57.3178C54.6252 56.0441 55.2636 55.4069 56.54 55.4069L71.8524 55.4065ZM64.0006 23.6044C55.4286 23.6044 47.4805 26.2782 40.9418 30.8344C41.2356 31.5557 41.8882 33.2341 42.6672 35.6978H85.3336C86.1126 33.2349 86.7652 31.5561 87.059 30.8344C80.5195 26.2782 72.5722 23.6044 64.0006 23.6044V23.6044Z" fill="#B91B24"/>
<path d="M291.567 18.3766C294.782 18.8626 297.843 19.5867 300.739 20.5588C301.389 20.7238 301.708 21.1273 301.708 21.7685C301.554 22.2541 301.142 22.6576 300.503 22.9778C299.699 23.4639 299.214 24.1149 299.049 24.9223C298.566 26.8554 298.008 28.7166 297.36 30.4948H300.988C302.76 27.7441 304.203 26.1313 305.336 25.6453C306.295 25.8111 307.995 27.0212 310.407 29.2851C310.242 26.5352 310.087 24.2705 309.923 22.4918C309.758 20.879 310.489 20.2374 312.097 20.5588C315.313 21.6856 318.137 22.6576 320.549 23.4639H328.278C329.897 21.0448 331.02 19.8347 331.659 19.8347C333.762 20.1553 336.173 21.365 338.915 23.4639C340.038 24.4363 340.12 25.4901 339.151 26.6173C338.502 26.9379 338.183 27.5064 338.183 28.3127V36.0678C338.028 37.5258 338.183 40.8348 338.668 46.0038C338.668 47.4623 338.183 48.4241 337.214 48.9097C338.832 50.0468 340.522 51.4117 342.295 53.0348C342.614 53.5106 342.697 53.9966 342.533 54.4826C342.213 54.9686 341.811 55.1341 341.327 54.9686C341.004 54.9686 340.2 55.2095 338.915 55.692C336.173 57.15 333.514 58.3594 330.938 59.3314C333.514 62.8888 337.626 65.7939 343.254 68.0586C344.069 68.699 344.47 69.1029 344.47 69.2679C344.47 69.7535 344.069 70.1574 343.254 70.4776C340.842 71.4497 339.317 73.3831 338.668 76.2985C338.183 77.2603 337.462 77.4253 336.492 76.7742C332.628 73.7144 329.649 70.4776 327.558 67.0865C325.146 69.35 316.539 76.0505 315.725 76.5366C314.911 77.0226 314.438 77.5086 314.271 77.9946C313.149 79.2873 312.18 79.4425 311.377 78.4807C309.758 76.3715 308.47 74.2727 307.511 72.173C306.708 71.3676 307.109 70.6434 308.717 69.9916C309.841 69.6714 310.407 68.7823 310.407 67.3242V54.2449H300.739V65.3908C302.954 64.6015 305.131 63.7115 307.264 62.7237C308.232 62.2377 308.954 62.2377 309.438 62.7237C309.923 63.209 309.686 63.9327 308.717 64.9051C304.367 69.4337 301.142 72.6594 299.049 74.6035C298.091 75.4097 297.36 76.3715 296.875 77.5086C295.917 79.2873 294.866 79.6908 293.742 78.7187C293.257 78.2327 292.69 77.6642 292.052 77.0226C290.598 75.5653 289.547 74.521 288.908 73.8692C287.455 72.4213 287.538 71.3676 289.145 70.726C291.248 69.4333 292.206 67.3242 292.052 64.4191V54.2445H289.877C288.743 54.4001 287.538 54.5651 286.249 54.731C285.765 54.8853 285.363 54.8853 285.043 54.731C284.239 53.5453 283.838 52.897 283.838 52.7865C283.672 52.3008 283.838 52.0635 284.321 52.0635C286.733 52.3837 288.991 52.5492 291.083 52.5492H292.052V42.3644H290.835C289.073 44.6291 287.135 46.7279 285.043 48.6712C284.239 49.4787 283.755 49.7989 283.59 49.633C283.435 49.633 283.59 49.0748 284.074 47.9377C287.455 37.5981 289.31 28.3952 289.629 20.3199C289.475 18.6976 290.114 18.0564 291.567 18.3766V18.3766ZM406.927 37.0465C408.37 37.525 410.283 39.1142 412.678 41.8242C413.159 42.456 413.323 43.0166 413.159 43.4955C412.22 43.5275 406.209 43.4955 404.052 43.4955C404.205 43.9741 403.969 44.453 403.325 44.9315C402.527 45.2477 402.127 45.808 402.127 46.6028V65.9388C402.291 68.6488 402.445 70.4729 402.609 71.4299C402.773 74.2936 401.974 76.0454 400.215 76.6882H399.733C397.174 77.6452 395.098 78.1956 393.491 78.3583C391.413 78.6741 390.298 78.1956 390.134 76.9223C389.981 74.538 388.538 72.8675 385.816 71.9097C384.22 71.2783 383.657 70.7173 384.137 70.2388C386.002 70.2388 392.775 69.9916 392.775 66.4185V43.4955H381.978C380.382 43.6586 378.22 43.9184 377.425 43.9741C376.63 44.0301 376.707 44.1269 376.228 43.9741C375.747 43.8217 374.548 42.5981 374.548 41.5799C374.548 40.5612 374.669 41.095 376.428 41.4105C378.147 41.7188 379.442 41.8195 382.489 41.8242H402.609C404.85 38.6357 406.283 37.0469 406.927 37.0469V37.0465ZM371.474 30.511C372.589 31.1451 374.513 32.189 377.223 33.6207C377.669 33.9273 378.154 34.1718 378.666 34.3475C379.3 34.828 379.627 35.3808 379.627 36.0255C379.627 36.5056 379.228 36.8234 378.42 36.9869C377.304 37.3039 376.425 37.8666 375.791 38.6649C375.31 39.2986 373.551 41.6209 372.425 42.7363L372.671 42.9815C372.834 43.1354 372.988 43.1354 373.152 42.9815C374.43 43.6163 374.665 44.4139 373.868 45.3757C372.906 45.6923 372.507 46.4089 372.671 47.5346V63.5959C372.671 65.3911 372.906 71.4327 372.906 72.7111C373.069 74.9513 372.353 76.383 370.748 77.0285C369.315 77.3451 367.72 77.663 365.961 77.98C364.518 78.1435 364.136 78.4668 363.321 77.7447C362.507 77.0226 363.403 67.278 363.557 64.0764V51.1255C360.999 53.0482 358.442 54.7262 355.884 56.1685C355.251 56.4855 354.852 56.5673 354.688 56.4042C354.525 56.0868 354.688 55.688 355.169 55.2067C361.398 48.6495 366.196 40.8234 369.551 31.7081C369.714 30.5932 370.349 30.1944 371.474 30.511V30.511ZM238.046 18.3339C240.897 18.9689 243.69 19.8446 246.393 20.9516C247.663 21.5912 247.501 22.5451 245.915 23.8141C244.644 24.28 243.851 25.2338 243.526 26.6655C242.734 28.2483 242.255 29.2026 242.102 29.5169H257.83C260.208 25.3965 262.038 23.2554 263.309 23.0931C265.688 23.7327 268.544 25.8735 271.889 29.5169C272.204 30.1565 272.286 30.7041 272.123 31.181C271.96 31.4953 271.645 31.5767 271.167 31.4243H263.065C258.708 31.2655 255.72 31.1842 254.11 31.181H241.147C239.084 35.149 236.064 40.5371 232.089 47.3569H240.192V46.6462C240.038 44.5762 239.958 42.5977 239.958 40.7002C239.796 38.9543 239.642 37.6857 239.48 36.8945C239.002 35.4633 239.642 34.7526 241.392 34.7526C243.455 34.905 246.546 35.4633 250.683 36.4172C252.106 37.3608 252.268 38.396 251.151 39.5031C250.043 40.1419 249.564 40.7709 249.727 41.4105V47.3565H254.495C256.711 43.704 258.46 41.6442 259.731 41.1665C262.435 42.283 265.21 44.4238 268.077 47.5902C268.392 48.2298 268.544 48.7778 268.544 49.2548C268.392 49.5793 268.077 49.6512 267.598 49.4988H259.252C254.73 49.3389 251.815 49.258 250.509 49.2548H249.727V64.9537C249.727 67.7755 249.96 69.7946 249.96 70.4239C250.124 74.7062 247.104 77.2433 240.913 78.0345C239.002 78.1972 237.975 77.6389 237.813 76.3703C236.857 73.042 234.956 71.1441 232.089 70.6671C230.666 70.3426 229.954 70.0283 229.954 69.7133C229.792 69.0737 230.585 68.7598 232.333 68.7598C238.046 69.3994 240.67 67.6535 240.192 63.5335V49.2548H230.9L229.954 50.6852C228.999 52.4307 227.647 52.7462 225.899 51.6399C224.313 50.8479 222.727 49.8131 221.131 48.5445C220.337 47.5906 220.652 46.5649 222.086 45.4491C222.563 45.2971 223.194 44.6575 223.997 43.5516C226.538 39.2694 228.754 35.149 230.666 31.181C226.749 31.2418 224.207 31.3228 223.042 31.4243C221.293 31.5767 219.626 31.7393 218.04 31.8917C217.715 32.0536 216.2 30.2276 215.651 29.5169C215.102 28.8062 215.102 28.4923 215.895 28.8062C216.688 29.1205 218.355 29.2831 220.897 29.2831C223.753 29.4355 226.538 29.5169 229.233 29.5169H231.621C231.621 29.3542 231.693 29.0391 231.855 28.5622C232.017 28.2483 232.171 27.934 232.333 27.619C233.767 24.443 234.793 21.673 235.434 19.2874C235.749 18.4958 236.623 18.1815 238.046 18.3339V18.3339ZM159.516 18.3805C162.289 19.1947 165.218 20.3321 168.314 21.804C168.638 22.1278 168.961 22.3682 169.295 22.5345H181.992C183.952 19.9255 185.412 18.5369 186.391 18.3809C189.655 20.0088 192.584 22.1278 195.19 24.7372C195.837 25.7179 195.514 26.5324 194.211 27.1799C193.075 27.6703 192.584 28.4114 192.75 29.3822V46.5104H192.991C195.597 42.4295 197.39 40.3101 198.37 40.1538C199.83 40.8005 202.28 43.004 205.699 46.7512C206.022 47.4086 206.189 47.899 206.189 48.2227C206.022 48.5457 205.699 48.7131 205.21 48.7131H201.3C198.85 48.7131 196.17 48.629 193.231 48.4624H192.75V57.5227C193.075 62.5741 193.231 66.2483 193.231 68.5244C193.397 71.7908 192.584 73.9098 190.791 74.8913C188.675 76.0288 185.985 76.9263 182.733 77.584C180.449 77.9078 179.302 77.3333 179.302 75.8614C178.49 72.2812 176.134 70.1626 172.224 69.5048C170.754 69.0144 170.514 68.6769 170.514 68.0333C170.514 67.3897 171.076 67.1461 172.714 67.3029C174.174 67.6262 174.611 67.5532 178.082 67.5532C181.553 67.5532 183.14 66.2483 182.972 62.6582V48.4624H167.574C167.741 62.4904 160.579 72.0309 146.078 77.0937C144.942 77.4174 144.285 77.5003 144.118 77.3333C143.961 77.0096 144.285 76.4359 145.098 75.621C153.573 67.9602 158.587 58.8999 158.587 48.4624H156.096C151.53 48.4624 148.517 48.629 147.058 48.9531C146.567 49.1202 144.368 46.4263 144.368 46.2703C144.535 46.1037 144.774 46.0204 145.098 46.0204C146.077 46.187 147.954 46.343 150.717 46.5104H158.827C158.853 44.4289 158.866 40.7602 158.866 35.5035C158.866 27.619 157.646 21.1688 157.566 20.5832C157.232 19.6017 157.232 18.9439 157.566 18.6202C157.889 18.2972 158.536 18.2135 159.516 18.3805H159.516ZM231.887 52.5942C233.314 53.0692 235.779 54.4143 239.284 56.6178C240.192 57.3455 239.958 59.226 238.806 59.226C237.858 59.226 236.982 59.62 236.176 60.4093C230.613 66.7284 223.766 71.1563 215.645 73.6836C215.004 73.8455 214.607 73.7649 214.453 73.4518C214.29 73.1281 214.453 72.8146 214.932 72.5015C220.822 68.0724 225.519 61.7544 229.013 53.5441C229.493 52.2803 230.45 51.9672 231.887 52.5942ZM251.545 53.4529C259.884 55.0516 265.985 58.3416 269.836 63.3033C271.92 67.1469 271.284 69.9553 267.915 71.7079C264.701 72.8355 262.452 72.0356 261.168 69.3094C259.083 64.0207 255.561 59.2236 250.58 54.8976C249.943 54.4159 249.778 54.0989 250.097 53.9342C250.261 53.6172 250.744 53.4525 251.545 53.4525L251.545 53.4529ZM322.723 46.4898H319.343V66.6001C319.827 66.6001 320.714 66.4354 322.002 66.1144C323.93 65.6288 325.382 65.2253 326.351 64.9051C323.775 60.221 322.569 54.0791 322.724 46.4898H322.723ZM329.247 46.4898H325.146C325.785 49.7155 327.073 53.1071 329.01 56.664C330.454 54.731 331.742 52.5496 332.875 50.1191L331.906 50.3674C329.97 51.0082 329.083 50.5226 329.247 48.9101V46.4898V46.4898ZM310.408 42.364H300.74V52.3004C302.193 49.5612 303.399 48.0206 304.368 47.7C305.821 48.0202 307.831 49.3128 310.408 51.5771V42.3644V42.364ZM182.972 24.4967H168.554C167.908 24.9776 167.658 26.0424 167.824 27.6703V46.5104H182.972V24.4967H182.972ZM329.247 35.8297H319.343V44.5465H329.247V35.8293V35.8297ZM170.01 28.0624C176.393 29.5769 180.091 32.2814 181.101 36.1759C181.595 40.395 180.005 43.0127 176.308 44.0301C173.288 44.3653 171.697 42.9372 171.525 39.7242C171.353 35.8297 170.429 32.5404 168.752 29.8359C168.248 29.1548 168.161 28.6463 168.505 28.3111C168.666 28.1385 169.172 28.0624 170.01 28.0624ZM310.408 32.1902H296.638C295.349 35.2611 293.896 38.0016 292.289 40.4313H300.503C302.431 37.5258 303.718 36.1503 304.367 36.3054C305.656 36.4713 307.666 37.7639 310.407 40.1826V32.1902H310.408ZM370.728 18.3418C373.422 20.2678 375.557 21.8668 377.136 23.1468C377.613 23.7924 377.774 24.428 377.613 25.0736C377.451 25.5544 377.056 25.7909 376.428 25.7909C375.325 25.7909 374.454 26.108 373.816 26.7531C368.127 31.5589 362.195 35.5545 356.02 38.7612C355.393 39.0791 355.078 39.0791 355.078 38.7612C354.916 38.4335 355.078 38.034 355.544 37.5527C361.405 31.7942 365.749 25.6259 368.593 19.0691C368.917 18.424 369.82 17.8341 370.728 18.3418V18.3418ZM329.247 25.4076H320.796C319.663 25.4076 319.179 25.8111 319.343 26.6173V33.886H329.247V25.4076V25.4076ZM402.819 21.8123C404.252 22.2885 406.235 23.7864 408.776 26.3172C409.254 26.9549 409.415 27.4306 409.254 27.7445C409.101 28.0584 408.623 28.2203 407.831 28.2203H403.775C402.026 28.2203 399.728 28.1393 396.872 27.9873H386.148C384.4 28.1393 382.895 28.3012 381.625 28.4528C380.32 28.5622 379.632 27.0354 379.48 26.5604C379.318 26.2466 379.236 26.0847 379.236 26.0847C379.398 25.922 379.632 25.8514 379.948 25.8514C381.859 26.1656 384.166 26.3172 386.859 26.3172H398.773C400.684 23.3205 402.026 21.8123 402.818 21.8123H402.819Z" fill="#1B1918"/>
</svg>
