<svg width="484" height="128" viewBox="0 0 484 128" fill="none" xmlns="http://www.w3.org/2000/svg">
<path d="M111.232 51.0261C123.787 51.0261 133.999 61.2356 133.999 73.7853C133.999 86.3345 123.786 96.544 111.232 96.544C109.371 96.544 107.564 96.3146 105.831 95.8924C106.236 97.5804 106.459 99.3389 106.463 101.149C106.49 113.699 96.2988 123.93 83.7456 123.958C81.6923 123.963 79.7044 123.689 77.8097 123.181C80.3953 121.602 82.6837 119.581 84.5709 117.211C93.026 116.753 99.7556 109.724 99.7369 101.163C99.7177 92.3216 92.5062 85.1435 83.6614 85.1622C74.8166 85.1818 67.6358 92.3902 67.6545 101.232C67.6554 101.25 67.6567 101.267 67.6567 101.284L64.3447 103.685L60.9356 100.978C61.0537 88.5526 71.183 78.466 83.6471 78.4393C85.5245 78.4348 87.3484 78.6638 89.0962 79.09C88.6776 77.3528 88.4656 75.5722 88.4646 73.7853C88.4646 71.6861 88.7568 69.6559 89.2904 67.7256C90.8587 70.2877 92.8608 72.5575 95.2071 74.4333C95.5492 82.9761 102.605 89.8211 111.232 89.8211C120.078 89.8211 127.274 82.627 127.274 73.7853C127.274 64.9427 120.078 57.7494 111.232 57.7494C107.102 57.7494 103.332 59.319 100.485 61.8908C99.0987 59.9122 98.2903 57.5871 98.1499 55.1755C101.855 52.5654 106.366 51.0261 111.232 51.0261V51.0261ZM36.7676 76.9734C24.2131 76.9734 14 66.7644 14 54.2147C14 41.6655 24.2131 31.4564 36.7676 31.4564C38.6285 31.4564 40.4355 31.6854 42.169 32.1085C41.7539 30.3867 41.5416 28.6222 41.5366 26.851C41.5103 14.3013 51.7006 4.06954 64.2539 4.04281C66.3072 4.03836 68.2955 4.31139 70.1897 4.81871C67.6041 6.39814 65.3157 8.41898 63.4285 10.7893C54.9739 11.2468 48.2443 18.2761 48.2626 26.8372C48.2817 35.6784 55.4928 42.8565 64.3372 42.8383C73.1829 42.8191 80.3636 35.6103 80.3445 26.7677C80.3445 26.7499 80.3427 26.7334 80.3427 26.7165L83.6547 24.3158L87.0643 27.0225C86.9458 39.4474 76.8164 49.5344 64.3523 49.5607C62.4749 49.5652 60.651 49.3362 58.9037 48.91C59.3221 50.6472 59.5339 52.4278 59.5348 54.2147C59.5348 56.3139 59.2426 58.3441 58.7091 60.2749C57.1409 57.7127 55.139 55.443 52.7928 53.5671C52.4507 45.0243 45.3946 38.1789 36.7672 38.1789C27.9215 38.1789 20.7251 45.373 20.7251 54.2147C20.7251 63.0573 27.9219 70.2505 36.7676 70.2505C40.8974 70.2505 44.6677 68.6814 47.5148 66.1092C48.9007 68.0878 49.7091 70.4129 49.8496 72.8245C46.1451 75.435 41.6337 76.9739 36.7676 76.9739V76.9734ZM87.058 101.191C87.0856 113.741 76.8939 123.972 64.3403 124C51.7866 124.026 41.5517 113.839 41.5241 101.289C41.5199 99.4083 41.7491 97.5344 42.2064 95.7102C40.4266 96.1487 38.6003 96.3707 36.7672 96.3712C24.2131 96.3712 14 86.1612 14 73.6129C14 71.5605 14.277 69.5735 14.7893 67.6815C16.3638 70.2698 18.3805 72.5617 20.7474 74.4529C21.1861 82.9053 28.2039 89.6478 36.7672 89.6478C45.6129 89.6478 52.8088 82.4546 52.8088 73.6129C52.8088 64.7703 45.6129 57.5771 36.7672 57.5771C36.7503 57.5771 36.7333 57.5793 36.7164 57.5793L34.321 54.2624L37.0362 50.8604C49.4665 51.0052 59.5348 61.1537 59.5348 73.6129C59.5348 75.5197 59.2952 77.3721 58.8511 79.143C60.6153 78.7079 62.4253 78.4857 64.2423 78.4811C66.2907 78.4775 68.3303 78.7506 70.3056 79.2931C67.7461 80.866 65.4799 82.8723 63.6085 85.2223C55.063 85.5831 48.231 92.6498 48.2501 101.275C48.2684 110.117 55.4808 117.295 64.3256 117.276C73.1713 117.257 80.3516 110.047 80.3325 101.206C80.3244 97.0767 78.7455 93.3113 76.1666 90.4709C78.143 89.0806 80.4672 88.2675 82.8793 88.1228C85.4987 91.8201 87.0482 96.3262 87.0585 101.191H87.058ZM60.9414 26.8087C60.9138 14.259 71.1055 4.02767 83.6592 4.00005C96.2128 3.97333 106.448 14.1606 106.475 26.7107C106.48 28.5915 106.25 30.4655 105.793 32.2898C107.573 31.8511 109.399 31.629 111.232 31.6284C123.787 31.6284 133.999 41.8383 133.999 54.3867C133.999 56.4395 133.722 58.4264 133.21 60.3181C131.636 57.7297 129.619 55.4378 127.252 53.5466C126.813 45.0947 119.796 38.3517 111.232 38.3517C102.387 38.3517 95.1906 45.545 95.1906 54.3867C95.1906 63.2292 102.387 70.4225 111.232 70.4225C111.249 70.4225 111.266 70.4203 111.283 70.4203L113.679 73.7372L110.963 77.1396C98.5329 76.9948 88.4646 66.8463 88.4646 54.3867C88.4646 52.4803 88.7042 50.6283 89.1483 48.8565C87.3843 49.292 85.5745 49.5144 83.7576 49.5188C81.709 49.5224 79.6693 49.2491 77.6939 48.7064C80.2535 47.1338 82.5197 45.1274 84.391 42.7772C92.9365 42.4169 99.7685 35.3497 99.7493 26.7254C99.7311 17.8828 92.5187 10.7043 83.6739 10.7234C74.8282 10.743 67.6483 17.9523 67.667 26.794C67.6755 30.9233 69.254 34.6887 71.8328 37.5286C69.8564 38.9186 67.5325 39.7316 65.1206 39.8768C62.5008 36.1799 60.9517 31.6734 60.9414 26.8087V26.8087ZM162.124 124H470.092V120.25H162.124V124Z" fill="#CA7038"/>
<path d="M162.123 14.3264H172.628V4.46875H179.542V14.3264H205.338V4.46875H212.253V14.3264H222.757V20.9201H212.252V65.8109H205.338V62.2811H179.542V65.8773H172.627V20.9201H162.123V14.3264H162.123ZM179.542 55.6869H205.338V41.2341H179.542V55.6874L179.542 55.6869ZM179.542 34.7735H205.338V20.9201H179.542V34.7735H179.542ZM281.619 33.7744H262.272V65.8109H255.491V33.7744H237.008V27.5802H255.491V24.1836H229.23V17.7898H255.491V14.3264H236.941V8.13219H255.49V4.46875H262.271V8.13219H281.618V17.7898H288.798V24.1836H281.618V33.7744H281.619ZM262.272 14.3264V17.7898H274.837V14.3264H262.272ZM262.272 24.1836V27.5802H274.837V24.1836H262.272ZM277.098 36.3057H283.613V66.0109H277.098V36.3052V36.3057ZM246.914 39.1028L252.698 39.8355C252.033 47.4951 250.305 54.2888 247.512 60.2162L241.595 58.3513C244.454 52.7566 246.249 46.3624 246.914 39.1028V39.1028ZM270.383 38.7696C272.111 44.7643 273.641 51.2912 274.97 58.3513L268.92 59.7499C267.79 52.2903 266.394 45.6965 264.732 39.9687L270.383 38.7696ZM235.612 36.2389H241.994V41.1677C241.861 52.6234 238.936 61.0153 233.285 66.3436L228.099 61.748C233.019 57.4855 235.545 50.6254 235.612 41.1677V36.2384V36.2389ZM303.05 4.46875L309.698 5.86731C309.364 7.20441 309.015 8.53774 308.651 9.86703L308.302 11.1293H320.003V17.723H306.041C305.111 19.9875 304.18 22.1192 303.183 24.1168H318.474V30.3778H312.291V37.1047H320.668V43.4985H312.291V56.3528C314.419 55.6206 316.546 54.6879 318.674 53.5557L319.804 59.4835C315.682 61.4816 310.961 63.147 305.576 64.4787L302.917 58.7508C304.779 58.2181 305.776 57.3523 305.776 56.1533V43.4985H296.734V37.1047H305.776V30.3778H302.252V25.9817C301.587 27.1807 300.856 28.3797 300.191 29.5783L294.474 25.9817C298.529 19.2548 301.388 12.062 303.05 4.46875H303.05ZM329.511 24.5831V30.311H345.666V24.5831H329.511ZM345.666 18.5889V12.661H329.511V18.5889H345.666ZM351.649 38.3701L356.037 42.6994C353.378 46.0297 350.32 48.6937 346.996 50.5586C349.522 54.022 352.713 56.9527 356.569 59.4835L352.913 65.4777C342.94 58.3513 336.956 48.6937 334.962 36.5052H329.51V56.6864C332.701 55.7537 335.893 54.5547 339.018 53.1561L340.613 59.2172C336.146 61.0197 330.635 62.7644 324.083 64.4511L322.663 64.8119L321.2 59.0172C322.397 58.6177 322.995 58.0182 322.995 57.0859V6.40046H351.982V36.5052H341.079C341.677 39.7023 342.608 42.6994 343.871 45.3634C346.53 43.6985 349.123 41.3672 351.649 38.3706V38.3701ZM386.71 7.79902H419.42V14.6591H386.71V7.79947V7.79902ZM385.114 24.3168H422.279V31.1769H412.041V59.084C412.041 63.4801 409.581 65.6777 404.66 65.6777H395.02L393.491 58.884C396.549 59.1504 399.475 59.3503 402.267 59.3503C404.062 59.3503 404.993 58.6845 404.993 57.3523V31.1769H385.115V24.3168H385.114ZM375.142 4.66874L381.457 7.66629C377.934 14.9259 371.884 21.5196 363.307 27.4471L361.18 20.4538C367.43 15.9913 372.084 10.7298 375.142 4.66874ZM378.267 19.9875L384.516 22.9182C382.787 26.3817 380.593 29.7119 377.934 32.9086V65.9441H371.086V39.7687C368.826 41.6336 366.366 43.4985 363.84 45.297L361.712 38.4369C369.158 33.2418 374.676 27.048 378.267 19.9875V19.9875ZM171.03 100.249V82.5825H178.127C179.532 82.5825 180.58 82.6405 181.27 82.7572C181.96 82.8738 182.578 83.1166 183.123 83.4863C183.668 83.8559 184.122 84.3477 184.486 84.9623C184.849 85.577 185.031 86.266 185.031 87.029C185.036 87.838 184.802 88.6305 184.358 89.3068C183.91 89.9976 183.302 90.5161 182.535 90.8613C183.618 91.1748 184.449 91.7089 185.031 92.4643C185.612 93.2192 185.903 94.1069 185.903 95.1278C185.903 95.9308 185.715 96.712 185.339 97.4714C184.964 98.2304 184.451 98.8371 183.801 99.2909C183.151 99.7452 182.35 100.024 181.397 100.128L181.237 100.143C180.564 100.199 179.175 100.234 177.073 100.249H171.03H171.03ZM174.615 85.5226V89.6079L177.619 89.6065C178.636 89.6008 179.286 89.5812 179.568 89.5477C180.182 89.4756 180.664 89.2645 181.016 88.9153C181.367 88.5656 181.543 88.1055 181.543 87.5354C181.543 86.9889 181.391 86.5453 181.088 86.2037C180.785 85.8625 180.336 85.6558 179.738 85.5832L179.545 85.5672C179.077 85.5378 178.12 85.5226 176.674 85.5226H174.615V85.5226ZM174.615 92.5484V97.2724H177.933C179.225 97.2724 180.044 97.2363 180.392 97.1641C180.925 97.0675 181.359 96.8328 181.694 96.4591C182.029 96.0854 182.196 95.5852 182.196 94.9585C182.196 94.4285 182.067 93.9786 181.809 93.6089C181.551 93.2392 181.177 92.9702 180.689 92.8014C180.2 92.633 179.141 92.5484 177.509 92.5484H174.614H174.615ZM204.99 100.249H201.09L199.54 96.2364H192.443L190.978 100.249H187.175L194.09 82.5825H197.881L204.99 100.249V100.249ZM198.389 93.2597L195.943 86.7034L193.545 93.2597H198.39H198.389ZM206.977 100.249V82.5825H210.465L217.732 94.3804V82.5825H221.063V100.249H217.466L210.308 88.7282V100.249H206.977H206.977ZM224.951 100.249V82.5825H228.536V90.4274L235.778 82.5825H240.599L233.913 89.4636L240.962 100.249H236.324L231.442 91.9578L228.536 94.9108V100.249H224.951V100.249ZM249.078 91.524C249.078 89.7246 249.348 88.2142 249.889 86.9929C250.292 86.0939 250.852 85.2738 251.542 84.5708C252.24 83.8559 253.006 83.3255 253.837 82.9803C254.944 82.514 256.219 82.281 257.665 82.281C260.28 82.281 262.374 83.0885 263.944 84.7036C265.515 86.3181 266.3 88.5638 266.3 91.4398C266.3 94.2917 265.521 96.5232 263.962 98.1342C262.404 99.7448 260.321 100.55 257.713 100.55C255.073 100.55 252.973 99.7488 251.415 98.1462C249.856 96.5432 249.078 94.3363 249.078 91.524V91.524ZM252.771 91.4037C252.771 93.404 253.235 94.9206 254.164 95.9531C255.093 96.9851 256.272 97.5013 257.701 97.5013C259.13 97.5013 260.303 96.9891 261.219 95.9647C262.135 94.9402 262.594 93.404 262.594 91.3556C262.594 89.3308 262.148 87.8205 261.255 86.8245C260.363 85.8282 259.178 85.3302 257.701 85.3302C256.223 85.3302 255.032 85.834 254.128 86.8424C253.224 87.8508 252.771 89.3709 252.771 91.4033V91.4037ZM269.171 100.249V82.5825H281.343V85.5712H272.755V89.7526H280.168V92.7413H272.756V100.249H269.17L269.171 100.249ZM299.547 93.7537V90.7771H307.274V97.8144C306.523 98.5377 305.435 99.1747 304.01 99.7252C302.584 100.275 301.141 100.55 299.68 100.55C297.823 100.55 296.204 100.163 294.823 99.3876C293.442 98.6121 292.405 97.5035 291.711 96.0613C291.016 94.6191 290.669 93.0504 290.669 91.3556C290.669 89.5157 291.057 87.8806 291.832 86.4509C292.607 85.0211 293.741 83.9241 295.235 83.1607C296.374 82.5745 297.79 82.281 299.486 82.281C301.691 82.281 303.412 82.7411 304.652 83.6609C305.891 84.5811 306.688 85.8522 307.044 87.4753L303.483 88.1381C303.233 87.2704 302.762 86.5854 302.072 86.0834C301.382 85.581 300.52 85.3302 299.486 85.3302C297.92 85.3302 296.674 85.8242 295.75 86.8121C294.825 87.8009 294.363 89.2663 294.363 91.2109C294.363 93.3078 294.831 94.8805 295.768 95.9286C296.705 96.9771 297.932 97.5013 299.45 97.5013C300.201 97.5013 300.954 97.3548 301.709 97.0617C302.464 96.7682 303.112 96.4127 303.652 95.995V93.7537H299.547H299.547ZM326.64 100.249H322.741L321.191 96.2359H314.093L312.628 100.249H308.824L315.74 82.5825H319.53L326.64 100.249V100.249ZM320.039 93.2597L317.593 86.7034L315.195 93.2597H320.04H320.039ZM328.627 100.249V82.5825H332.115L339.382 94.3804V82.5825H342.712V100.249H339.115L331.958 88.7282V100.249H328.627H328.627ZM345.644 94.5006L349.132 94.1635C349.342 95.3282 349.768 96.1838 350.41 96.7303C351.051 97.2764 351.917 97.5498 353.007 97.5498C354.162 97.5498 355.032 97.3066 355.617 96.8207C356.203 96.3343 356.495 95.766 356.495 95.1153C356.495 94.6975 356.372 94.3421 356.126 94.049C355.88 93.7555 355.45 93.5007 354.836 93.2838L354.676 93.2312C354.317 93.1181 353.719 92.9551 352.882 92.7422L351.966 92.5123C350.044 92.0384 348.696 91.4559 347.921 90.765C346.831 89.7927 346.286 88.6079 346.286 87.2098C346.286 86.3101 346.542 85.4683 347.055 84.6853C347.568 83.9018 348.306 83.3054 349.271 82.8957C350.236 82.4859 351.4 82.281 352.765 82.281C354.994 82.281 356.671 82.7674 357.798 83.7392C358.924 84.7116 359.515 86.009 359.572 87.6321L355.987 87.7884C355.833 86.8807 355.504 86.2277 355 85.83C354.495 85.4327 353.738 85.2336 352.729 85.2336C351.687 85.2336 350.872 85.4465 350.282 85.8723C349.903 86.1453 349.713 86.511 349.713 86.9689C349.713 87.3867 349.891 87.7439 350.246 88.0414C350.677 88.4013 351.693 88.7754 353.296 89.1638L353.541 89.2226C355.284 89.6324 356.574 90.056 357.41 90.4938C358.246 90.9316 358.9 91.5302 359.372 92.2892C359.844 93.0486 360.08 93.9862 360.08 95.1033C360.08 96.1157 359.798 97.0635 359.233 97.9472C358.667 98.8308 357.868 99.4878 356.835 99.9176C355.801 100.347 354.513 100.563 352.971 100.563C350.726 100.563 349.003 100.046 347.8 99.0139C346.597 97.9814 345.878 96.4773 345.644 94.5006V94.5006ZM363.121 82.5825H366.706V92.1507C366.706 93.6695 366.75 94.6534 366.839 95.1037C366.993 95.8261 367.358 96.4069 367.935 96.8448C368.512 97.2826 369.302 97.5013 370.303 97.5013C371.32 97.5013 372.088 97.2946 372.604 96.8808C373.121 96.4666 373.432 95.9589 373.536 95.3562C373.642 94.7536 373.694 93.7537 373.694 92.3556V82.5825H377.279V91.8616C377.279 93.9826 377.182 95.4809 376.988 96.3566C376.795 97.2323 376.437 97.9712 375.917 98.5738C375.396 99.1765 374.699 99.6561 373.828 100.014C372.955 100.371 371.817 100.55 370.412 100.55C368.716 100.55 367.43 100.355 366.555 99.9657C365.678 99.576 364.986 99.0705 364.477 98.4473C363.969 97.8247 363.634 97.1722 363.472 96.4894C363.238 95.477 363.121 93.9826 363.121 92.0064V82.5825V82.5825Z" fill="#231916"/>
</svg>
