<svg width="128" height="128" viewBox="0 0 128 128" fill="none" xmlns="http://www.w3.org/2000/svg">
<path d="M90.35 54.8C99.25 54.8 106.5 62.05 106.5 70.9C106.5 79.8 99.25 87 90.35 87C89.05 87 87.75 86.85 86.5 86.55C86.8 87.75 86.95 89 86.95 90.25C86.95 99.15 79.75 106.4 70.85 106.4C69.4 106.4 68 106.2 66.65 105.85C68.5 104.75 70.1 103.3 71.45 101.6C77.45 101.3 82.2 96.3 82.2 90.25C82.2 84 77.1 78.9 70.8 78.9C64.55 78.9 59.45 84 59.45 90.3V90.35L57.1 92.05L54.7 90.15C54.8 81.35 61.95 74.2 70.8 74.2C72.15 74.2 73.4 74.35 74.65 74.65C74.35 73.45 74.2 72.2 74.2 70.9C74.2 69.4 74.4 68 74.8 66.6C75.9 68.4 77.35 70 79 71.35C79.25 77.4 84.25 82.25 90.35 82.25C96.6 82.25 101.7 77.15 101.7 70.9C101.7 64.65 96.6 59.55 90.35 59.55C87.4 59.55 84.75 60.65 82.75 62.5C81.8 61.15 81.2 59.5 81.1 57.75C83.75 55.9 86.95 54.8 90.35 54.8ZM37.65 73.2C28.75 73.2 21.5 65.95 21.5 57.1C21.5 48.2 28.75 41 37.65 41C38.95 41 40.25 41.15 41.5 41.45C41.2 40.25 41.05 39 41.05 37.75C41.05 28.85 48.25 21.6 57.15 21.6C58.6 21.6 60 21.8 61.35 22.15C59.5 23.25 57.9 24.7 56.55 26.4C50.55 26.7 45.8 31.7 45.8 37.75C45.8 44 50.9 49.1 57.2 49.1C63.45 49.1 68.55 44 68.55 37.7V37.65L70.9 35.95L73.3 37.85C73.2 46.65 66.05 53.8 57.2 53.8C55.85 53.8 54.6 53.65 53.35 53.35C53.65 54.55 53.8 55.8 53.8 57.1C53.8 58.6 53.6 60 53.2 61.4C52.1 59.6 50.65 58 49 56.65C48.75 50.6 43.75 45.75 37.65 45.75C31.4 45.75 26.3 50.85 26.3 57.1C26.3 63.35 31.4 68.45 37.65 68.45C40.6 68.45 43.25 67.35 45.25 65.5C46.2 66.85 46.8 68.5 46.9 70.25C44.25 72.1 41.05 73.2 37.65 73.2ZM73.25 90.35C73.25 99.25 66.05 106.5 57.15 106.5C48.25 106.5 41 99.3 41 90.4C41 89.05 41.15 87.7 41.5 86.45C40.25 86.75 38.95 86.9 37.65 86.9C28.75 86.9 21.5 79.65 21.5 70.8C21.5 69.35 21.7 67.95 22.05 66.6C23.15 68.45 24.6 70.05 26.25 71.4C26.55 77.4 31.55 82.15 37.6 82.15C43.85 82.15 48.95 77.05 48.95 70.8C48.95 64.55 43.85 59.45 37.6 59.45H37.55L35.85 57.1L37.75 54.7C46.55 54.8 53.7 62 53.7 70.8C53.7 72.15 53.55 73.45 53.2 74.7C54.4 74.4 55.7 74.25 57 74.25C58.5 74.25 59.95 74.45 61.3 74.85C59.5 75.95 57.9 77.4 56.55 79.05C50.5 79.3 45.65 84.3 45.65 90.4C45.65 96.65 50.75 101.75 57.05 101.75C63.3 101.75 68.4 96.65 68.4 90.35C68.4 87.45 67.3 84.75 65.45 82.75C66.8 81.8 68.45 81.2 70.2 81.1C72.15 83.7 73.25 86.9 73.25 90.35ZM54.75 37.65C54.75 28.75 61.95 21.5 70.85 21.5C79.75 21.5 87 28.7 87 37.6C87 38.95 86.85 40.3 86.5 41.55C87.75 41.25 89.05 41.1 90.35 41.1C99.25 41.1 106.5 48.35 106.5 57.2C106.5 58.65 106.3 60.05 105.95 61.4C104.85 59.55 103.4 57.95 101.75 56.6C101.45 50.6 96.45 45.85 90.4 45.85C84.15 45.85 79.05 50.95 79.05 57.2C79.05 63.45 84.15 68.55 90.4 68.55H90.45L92.15 70.9L90.25 73.3C81.45 73.2 74.3 66 74.3 57.2C74.3 55.85 74.45 54.55 74.8 53.3C73.55 53.6 72.3 53.75 71 53.75C69.5 53.75 68.05 53.55 66.7 53.15C68.5 52.05 70.1 50.6 71.45 48.95C77.5 48.7 82.35 43.7 82.35 37.6C82.35 31.35 77.25 26.25 70.95 26.25C64.7 26.25 59.6 31.35 59.6 37.65C59.6 40.55 60.7 43.25 62.55 45.25C61.2 46.2 59.55 46.8 57.8 46.9C55.85 44.3 54.75 41.1 54.75 37.65Z" fill="#CA7038"/>
</svg>
