<svg width="128" height="128" viewBox="0 0 128 128" fill="none" xmlns="http://www.w3.org/2000/svg">
<path d="M80.05 57.7499H106.4C106.65 62.3999 106.4 67.6999 105.7 71.5499C102.1 91.7999 84.65 106.45 64.15 106.45C40.95 106.5 22 87.4499 22 64.0999C22 52.6499 26.35 41.9499 34.3 33.9499C42.25 25.9499 52.85 21.5499 64.25 21.5499H91.3C91.3 22.0499 91.25 22.5499 91.2 22.9999C91.1 23.8499 90.95 24.5499 90.95 24.5499C90 28.5999 86.4 35.4499 76.9 35.4499H64.25C48.55 35.4499 35.75 48.2999 35.75 64.0999C35.75 79.8999 48.55 92.7499 64.25 92.7499C78.9 92.7499 91.05 81.7499 92.6 67.0999L92.75 65.8499H75.4V61.4499C75.4 59.5499 76.05 57.7999 80.05 57.7499ZM63.95 38.9999H106.5L106.3 40.3499C104.95 48.4499 99.85 52.4999 90.65 52.7499H56.45C54.4 52.7499 52.75 54.3999 52.75 56.4499V71.4999C52.75 73.5499 54.4 75.1999 56.45 75.1999H71.5C73.55 75.1999 75.2 73.5499 75.2 71.4999V69.3499H88.4L88 70.7999C84.95 81.4999 75.1 88.9499 64 88.9499C50.25 88.9499 39.05 77.7499 39.05 63.9499C39 50.1999 50.2 38.9999 63.95 38.9999Z" fill="#DE0112"/>
</svg>
