<svg width="128" height="128" viewBox="0 0 128 128" fill="none" xmlns="http://www.w3.org/2000/svg">
<path d="M59.352 101.654C60.8527 101.843 62.3639 101.938 63.8765 101.938C81.4665 101.938 95.7265 89.2695 95.7265 73.643C95.7265 65.3645 91.724 57.917 85.3445 52.743V27.476C97.998 34.829 106.5 48.479 106.5 64.1055C106.5 87.52 87.417 106.5 63.8765 106.5C58.1615 106.5 52.7105 105.379 47.7305 103.35V45.244C47.7305 38.982 51.6355 34.412 59.3515 33.785V56.031H68.648V26.3465C67.2772 26.1735 65.8976 26.0795 64.516 26.065L64.1235 26.0625C46.533 26.0625 32.2735 38.731 32.2735 54.3575C32.2735 62.636 36.276 70.084 42.655 75.2575V100.523C30.0015 93.1715 21.5 79.5215 21.5 63.8945C21.5 40.481 40.583 21.5 64.1235 21.5C69.8385 21.5 75.2885 22.6215 80.2695 24.651V82.424C80.2695 88.686 76.3645 93.256 68.6485 93.883L68.648 71.6365H59.3515L59.352 101.654Z" fill="#D70110"/>
</svg>
