<svg width="426" height="128" viewBox="0 0 426 128" fill="none" xmlns="http://www.w3.org/2000/svg">
<path d="M145.412 103.766C146.965 103.766 148.247 103.533 149.296 103.067C150.344 102.601 150.849 101.708 150.849 100.426C150.849 99.1442 150.228 98.2509 149.024 97.7848C147.781 97.3187 146.227 97.0857 144.324 97.0857H142.848V102.873C142.848 103.261 143.004 103.533 143.276 103.65C143.547 103.766 144.363 103.766 145.412 103.766V103.766ZM136.284 103.378C137.566 103.3 138.382 103.145 138.77 102.873C139.158 102.601 139.353 101.941 139.353 100.931L139.158 91.0267C139.158 90.0168 138.964 89.3954 138.576 89.0847C138.187 88.8128 137.372 88.6186 136.09 88.5798L135.974 87.2204H144.868C147.393 87.2204 149.412 87.5699 150.888 88.269C152.364 88.9682 153.49 90.5218 153.49 92.2307C153.49 93.5124 152.947 94.3669 151.898 95.0272C151.315 95.4155 150.966 95.5709 149.801 95.8428C151.238 96.1535 151.704 96.1147 153.063 97.241C154.423 98.3674 154.694 99.6491 154.694 100.931C154.694 103.067 153.374 103.999 151.082 104.776C149.878 105.203 148.402 105.397 146.616 105.397H136.284V103.378V103.378ZM145.606 94.7553C146.538 94.7553 147.354 94.5999 147.975 94.328C149.179 93.8231 149.762 92.9298 149.762 91.6093C149.762 90.0557 149.063 89.0458 147.703 88.5021C146.926 88.1914 145.8 88.0748 144.246 88.0748C143.664 88.0748 143.314 88.1137 143.159 88.2302C143.004 88.3467 142.926 88.5798 142.926 88.9682V94.7941L145.606 94.7553V94.7553ZM167.978 97.0468L165.103 90.3275L162.268 97.0468H167.978ZM155.355 105.203V104.698C156.17 104.621 156.753 104.349 157.18 103.883C157.569 103.417 158.268 102.135 159.239 100.037L164.832 87.4146H167.278L173.493 101.475C173.998 102.562 174.425 103.222 174.736 103.455C175.046 103.727 176.25 103.65 176.988 103.727V105.203H167.356L167.278 103.727L167.745 103.688C168.405 103.611 168.832 103.533 169.065 103.455C169.337 103.339 169.415 103.339 169.609 102.95C169.725 102.756 169.57 102.329 169.492 101.979C169.376 101.63 169.259 101.203 169.104 100.814L168.366 99.0665H162.346L161.414 100.814C161.142 101.436 160.986 101.863 160.909 102.057C160.753 102.484 160.676 102.795 160.676 103.028C160.676 103.494 160.909 103.844 161.336 104.038C161.608 104.154 162.113 104.232 162.851 104.271V105.164H155.355V105.203ZM177.532 103.727C178.697 103.611 179.435 103.339 179.746 102.95C180.057 102.523 180.251 101.591 180.251 100.115V89.8226L179.863 89.3566C179.435 88.8516 179.125 88.5798 178.814 88.4632C178.542 88.3467 178.115 88.269 177.532 88.269V87.0262H182.309L193.379 99.5326V91.9977C193.379 90.4441 193.146 89.4342 192.68 88.9682C192.369 88.6574 191.709 88.4632 190.699 88.3856V87.065H197.923V88.3856C196.874 88.5021 196.136 88.774 195.787 89.1624C195.437 89.5896 195.243 90.5217 195.243 91.9977V105.281H194.777L181.649 90.8325V100.387C181.649 101.941 181.649 102.679 182.115 103.145C182.387 103.455 183.047 103.65 184.057 103.766V105.242H177.532V103.727ZM198.7 103.805C199.982 103.727 200.758 103.533 201.069 103.222C201.38 102.912 201.535 102.174 201.535 101.047V90.6771C201.535 89.7061 201.38 89.0458 201.03 88.774C200.681 88.5021 199.904 88.3079 198.7 88.2302V86.9485H207.633V88.2302C206.39 88.269 206.468 88.3467 206.118 88.6574C205.769 88.9682 205.574 89.5896 205.574 90.5606V95.3379L206.429 94.7164C207.983 93.5512 212.449 89.3954 212.449 88.9293C212.449 88.5798 212.255 88.3467 211.905 88.2302C211.556 88.1137 211.129 88.1914 210.429 88.1914L210.585 86.9873H218.78V88.1914C217.77 88.269 217.226 88.1525 216.644 88.3856C216.061 88.6574 215.246 89.2012 214.236 90.0557L208.682 95.5709C214.702 100.853 217.848 103.611 218.197 103.844C218.702 104.154 219.401 104.349 220.372 104.465V104.931H210.779V103.883C211.4 103.844 209.808 103.883 211.75 103.883C213.692 103.883 211.4 101.979 210.973 101.591L205.613 97.0468V101.358C205.613 102.368 205.808 102.989 206.157 103.261C206.507 103.533 206.429 103.766 207.594 103.844V104.931H198.739V103.805H198.7ZM230.587 95.9205C230.587 98.6004 231.248 100.581 232.568 101.824C233.889 103.106 235.52 103.727 237.423 103.727C239.287 103.727 240.919 103.106 242.239 101.863C243.56 100.62 244.259 98.6393 244.259 95.8816C244.259 93.124 243.599 91.1043 242.239 89.8615C240.88 88.6186 239.287 87.9972 237.423 87.9972C235.52 87.9972 233.889 88.6186 232.568 89.9003C231.248 91.2597 230.587 93.2405 230.587 95.9205V95.9205ZM227.169 95.9205C227.169 93.1629 228.218 90.9102 230.315 89.24C232.257 87.7253 234.588 86.9485 237.423 86.9485C240.258 86.9485 242.628 87.7253 244.531 89.24C246.628 90.9102 247.677 93.124 247.677 95.9205C247.677 98.7558 246.589 100.97 244.453 102.64C242.511 104.116 240.181 104.892 237.462 104.892C234.549 104.892 232.102 104.077 230.16 102.407C228.14 100.737 227.169 98.5616 227.169 95.9205V95.9205ZM249.929 104.388C251.172 104.271 251.949 104.077 252.26 103.805C252.571 103.533 252.726 102.795 252.726 101.63V91.0267C252.726 90.0557 252.571 89.4342 252.221 89.1235C251.871 88.8128 251.134 88.6574 249.929 88.5798V88.0748H265.776L265.893 91.9588H264.999C264.766 90.716 264.378 89.9391 263.756 89.5896C263.174 89.24 263.096 89.0847 261.348 89.0847H256.998C256.571 89.0847 256.299 89.1624 256.183 89.2789C256.066 89.3954 255.988 89.6284 255.988 90.0168V96.0758H259.445C260.805 96.0758 261.659 95.9205 262.047 95.5709C262.436 95.2214 262.708 94.5222 262.941 93.4736H263.679V99.7268H262.941C262.708 98.6781 262.397 97.979 262.009 97.6294C261.62 97.2799 260.766 97.1245 259.445 97.1245H255.988V101.941C255.988 102.95 256.183 103.572 256.532 103.844C256.882 104.116 257.659 104.31 258.863 104.388V104.892H249.929V104.388V104.388ZM276.146 104.388C277.389 104.271 278.166 104.077 278.477 103.805C278.787 103.533 278.943 102.795 278.943 101.63V91.0267C278.943 90.0557 278.787 89.4342 278.438 89.1235C278.088 88.8516 277.35 88.6574 276.185 88.5798V88.0748H285.002V88.5798C283.837 88.6574 283.06 88.8128 282.71 89.1235C282.361 89.3954 282.166 90.0557 282.166 91.0267V96.3089H291.76V91.0267C291.76 90.0557 291.605 89.4342 291.255 89.1235C290.905 88.8516 290.167 88.6574 288.963 88.5798V88.0748H297.78V88.5798C296.615 88.6574 295.877 88.8128 295.527 89.1235C295.178 89.3954 295.022 90.0557 295.022 91.0267V101.979C295.022 102.95 295.178 103.611 295.527 103.883C295.877 104.155 296.615 104.349 297.78 104.426V104.931H288.963V104.426C290.206 104.31 290.983 104.116 291.294 103.844C291.605 103.572 291.76 102.834 291.76 101.669V97.5129H282.166V101.979C282.166 102.95 282.361 103.611 282.71 103.883C283.06 104.155 283.837 104.349 285.002 104.426V104.931H276.146V104.388V104.388ZM307.84 88.0748V88.5798C306.636 88.6574 305.859 88.8516 305.509 89.1235C305.16 89.3954 304.965 90.0945 304.965 91.1043V97.9013C304.965 99.3772 305.198 100.542 305.626 101.358C306.441 102.873 308.034 103.611 310.364 103.611C312.928 103.611 314.636 102.834 315.491 101.28C315.996 100.426 316.229 99.1053 316.229 97.2799V92.1919C316.229 90.6771 316.035 89.7061 315.607 89.3177C315.219 88.9293 314.442 88.6963 313.277 88.5798V88.0748H320.501V88.5798C319.297 88.6963 318.52 88.9682 318.132 89.3566C317.744 89.7838 317.588 90.7159 317.588 92.1919V97.2799C317.588 99.2219 317.239 100.737 316.578 101.824C315.374 103.844 313.044 104.854 309.626 104.854C306.247 104.854 303.956 103.844 302.752 101.863C302.091 100.814 301.742 99.3772 301.742 97.6683V91.1043C301.742 90.0945 301.548 89.4342 301.198 89.1235C300.848 88.8516 300.072 88.6574 298.906 88.5798V88.0748H307.84V88.0748ZM321.667 104.621L335.183 89.0458H328.075C326.288 89.0458 325.007 89.3954 324.269 90.1334C323.803 90.5606 323.453 91.3374 323.181 92.3861H322.366L322.987 88.036H339.261V88.3079L325.861 103.883H333.785C335.571 103.883 336.892 103.533 337.707 102.834C338.212 102.407 338.678 101.591 339.106 100.387H339.844L339.106 104.854H321.628V104.621H321.667ZM342.174 104.426C343.339 104.31 344.077 104.116 344.388 103.883C344.698 103.611 344.815 102.95 344.815 101.824V90.8325C344.815 89.9391 344.66 89.3177 344.31 89.0458C343.999 88.774 343.261 88.6186 342.174 88.5409V88.0748H350.524V88.5409C349.437 88.6186 348.699 88.774 348.388 89.0458C348.078 89.3177 347.883 89.9003 347.883 90.8325V95.7651H356.972V90.8325C356.972 89.9391 356.816 89.3177 356.506 89.0458C356.195 88.774 355.457 88.6186 354.37 88.5409V88.0748H362.72V88.5409C361.633 88.6186 360.895 88.774 360.584 89.0458C360.273 89.3177 360.079 89.9003 360.079 90.8325V102.135C360.079 103.067 360.234 103.65 360.584 103.921C360.895 104.193 361.633 104.349 362.72 104.426V104.892H354.37V104.426C355.535 104.31 356.273 104.155 356.583 103.883C356.855 103.611 357.011 102.95 357.011 101.824V96.8915H347.922V102.135C347.922 103.067 348.078 103.65 348.427 103.921C348.777 104.193 349.476 104.349 350.563 104.426V104.892H342.174V104.426V104.426ZM369.478 95.9205C369.478 98.6004 370.1 100.581 371.304 101.824C372.508 103.106 373.984 103.727 375.77 103.727C377.479 103.727 378.955 103.106 380.198 101.863C381.402 100.62 382.023 98.6393 382.023 95.8816C382.023 93.124 381.402 91.1043 380.159 89.8615C378.916 88.6186 377.44 87.9972 375.77 87.9972C374.022 87.9972 372.547 88.6186 371.304 89.9003C370.1 91.2597 369.478 93.2405 369.478 95.9205V95.9205ZM366.06 95.9205C366.06 93.1629 367.031 90.9102 369.012 89.24C370.838 87.7253 373.052 86.9485 375.731 86.9485C378.411 86.9485 380.625 87.7253 382.451 89.24C384.432 90.9102 385.403 93.124 385.403 95.9205C385.403 98.7558 384.393 100.97 382.334 102.64C380.509 104.116 378.295 104.892 375.731 104.892C372.974 104.892 370.682 104.077 368.818 102.407C366.992 100.737 366.06 98.5616 366.06 95.9205V95.9205ZM395.928 88.0748V88.5409C394.646 88.6186 393.831 88.774 393.481 89.007C393.093 89.2789 392.899 89.8615 392.899 90.7548V98.7169C392.899 100.037 393.132 101.047 393.598 101.746C394.491 103.067 396.161 103.727 398.608 103.727C401.288 103.727 403.113 103.028 404.046 101.669C404.551 100.892 404.822 99.7268 404.822 98.1343V91.6481C404.822 90.2887 404.589 89.4342 404.162 89.0847C403.735 88.7351 402.919 88.5409 401.715 88.4244V87.9583H409.328V88.4244C408.046 88.5409 407.23 88.774 406.842 89.1235C406.454 89.4731 406.259 90.3275 406.259 91.6093V98.0955C406.259 99.8045 405.91 101.164 405.211 102.135C403.929 103.921 401.482 104.776 397.87 104.776C394.297 104.776 391.889 103.883 390.607 102.135C389.908 101.203 389.558 99.9598 389.558 98.4062V90.6383C389.558 89.7449 389.364 89.1624 389.015 88.8905C388.626 88.6186 387.849 88.4632 386.607 88.3856V87.9195H395.928V88.0748Z" fill="#1C1511"/>
<path d="M400.046 30.4759C403.231 32.2625 404.241 32.6121 402.144 35.3308C400.046 38.0108 399.813 37.5059 397.56 39.3313C395.308 41.1568 389.171 45.9729 388.394 47.6819C387.618 49.4297 390.259 49.7016 392.55 47.6819C394.881 45.6622 397.017 46.1671 400.085 43.6425C403.153 41.118 405.134 40.8461 407.97 41.8171C410.844 42.7881 413.912 47.6819 409.562 47.6819C405.212 47.6819 397.56 49.0801 397.56 50.0123C397.56 50.9444 402.144 52.3426 402.144 56.4985C402.144 60.6544 403.62 68.1504 401.173 71.879C398.726 75.6077 401.367 77.938 397.522 77.938H397.172C393.405 77.938 388.822 77.9381 391.23 74.9474C393.715 71.8791 394.725 69.3933 394.725 63.5673C394.725 57.7414 395.269 51.4105 393.249 52.1096C391.23 52.8087 389.132 57.2365 386.647 56.4985C384.161 55.7994 379.966 54.44 383.229 50.0123C386.452 45.5845 388.822 43.0599 391.23 40.3412C393.638 37.6224 393.715 35.3308 391.23 35.3308C388.744 35.3308 387.113 31.3303 391.23 31.3303C395.385 31.3303 396.861 28.6892 400.046 30.4759V30.4759ZM372.82 22.5526C372.82 21.7758 374.762 21.1543 375.577 23.3294C376.393 25.5044 375.577 23.3294 376.587 24.9218C377.597 26.5142 379.578 28.0678 383.034 30.3205C386.491 32.5732 382.18 35.0978 380.898 37.001C379.617 38.9041 377.442 39.0983 378.412 40.9238C379.422 42.7492 381.947 40.9238 383.734 42.555C385.481 44.1863 381.986 47.41 380.898 49.2355C379.811 51.0609 378.412 53.702 378.412 57.586C378.412 61.47 376.315 65.6647 375.577 69.4321C374.839 73.1608 375.577 76.8505 371.771 77.7827C368.081 78.7148 367.965 73.355 367.965 70.7139V70.4808C367.965 67.9562 371.227 63.4508 369.945 62.208C368.664 60.9651 365.207 66.4026 361.983 67.8786C358.76 69.3933 360.896 61.3146 363.343 58.2075C365.79 55.1003 373.596 49.2355 372.781 47.41C371.926 45.5845 368.78 49.2355 366.955 49.8569C365.129 50.5172 361.983 49.8569 361.983 45.5457C361.983 41.2345 367.265 35.8358 369.945 31.0585C372.587 26.3977 372.781 23.4459 372.781 22.5526H372.82V22.5526ZM329.707 25.9705C333.358 26.6696 331.572 29.0388 331.572 32.4955C331.572 35.9523 331.572 37.5059 330.64 39.6421C329.707 41.7394 331.572 41.5064 329.707 44.0309C327.843 46.5555 328.465 46.439 328.465 48.2256C328.465 50.0123 331.572 48.2256 332.31 45.3515C333.086 42.4774 335.262 41.5064 334.135 39.6421C333.009 37.7777 338.291 37.5447 340 39.6421C341.709 41.7394 343.263 43.1376 343.263 44.7689C343.263 46.4002 339.961 46.439 338.252 48.1868C336.543 49.9346 333.397 51.9931 331.494 51.9931C329.63 51.9931 330.484 54.7507 331.494 55.8382C332.504 56.9257 334.096 55.5664 337.204 57.0034C340.311 58.4405 341.01 61.1981 341.748 64.0723C342.525 66.9076 340.971 67.8786 338.835 69.2379C336.66 70.5973 336.038 67.1406 334.096 66.4803C332.154 65.82 330.756 62.0526 329.047 61.237C327.338 60.4213 329.047 63.4508 329.63 64.7325C330.212 66.0142 329.047 67.762 327.649 69.2379C326.251 70.7139 326.833 71.6849 325.823 73.7822C324.814 75.8796 323.027 75.6853 321.007 75.6853C318.949 75.6853 317.279 73.7822 315.065 71.1023C312.851 68.4223 311.336 61.1981 311.336 58.2463C311.336 55.2945 312.851 47.6042 313.511 45.8564C314.172 44.1086 315.065 37.5059 312.89 36.1853C310.715 34.8648 312.773 33.8549 315.104 33.8549C317.395 33.8549 318.871 30.3982 320.308 30.3982C321.745 30.3982 323.532 28.5727 323.532 26.6307C323.532 24.6887 326.095 25.2713 329.707 25.9705V25.9705ZM183.825 27.5629C185.728 27.5629 185.884 28.6116 187.049 29.6602C188.253 30.6701 185.845 32.3013 185.845 33.5442C185.845 34.7871 184.991 38.5545 184.991 40.5354C184.991 42.5162 185.845 45.1185 186.272 46.0506C186.699 46.9439 185.845 50.4007 186.272 52.0708C186.699 53.7409 187.01 57.1588 187.01 60.266C187.01 63.3731 189.379 67.9951 189.379 70.1313C189.379 72.2674 187.166 72.5005 185.806 72.5005C184.447 72.5005 182.816 74.4813 181.845 74.4813C180.874 74.4813 180.757 71.0634 180.136 70.0924C179.514 69.1214 178.504 68.6165 177.922 68.6165C177.339 68.6165 177.456 66.2861 176.174 65.3928C174.892 64.5383 173.805 59.8387 174.504 58.9842C175.203 58.0909 177.456 62.0914 178.854 63.8781C180.252 65.6647 180.796 64.7325 180.796 63.3731C180.796 62.0138 179.786 56.1878 179.786 54.7119C179.786 53.236 177.145 53.3913 176.213 53.3913C175.281 53.3913 175.63 52.3815 177.145 51.6047C178.66 50.8279 177.145 49.1189 177.145 47.1381C177.145 45.1961 174.581 44.1086 173.844 44.1086C173.106 44.1086 173.377 45.4292 173.844 46.5555C174.31 47.643 173.377 52.3815 173.844 53.3913C174.31 54.4012 173.844 56.5762 173.844 57.0811C173.844 57.586 173.028 58.9842 172.406 58.9842C171.824 58.9842 171.824 61.0816 171.824 62.441V62.5963C171.824 63.9557 169.571 66.1308 169.222 68.2281C168.872 70.3643 166.464 70.0536 164.949 70.0536C163.434 70.0536 165.027 68.2281 166.076 68.2281C167.124 68.2281 167.163 66.325 167.163 64.6937C167.163 63.0624 167.551 62.9071 168.018 61.237C168.484 59.5668 168.018 58.3628 168.018 57.0423C168.018 55.7217 169.222 54.673 169.222 52.3427C169.222 50.0123 169.222 49.1966 169.571 47.6819C169.921 46.206 170.309 45.0019 170.309 42.8657C170.309 40.7296 169.222 38.2438 168.484 37.234C167.785 36.2241 167.979 34.4764 169.183 33.4277C170.426 32.379 171.785 33.6607 172.368 34.1268C172.95 34.5929 173.805 38.2827 173.805 39.1371C173.805 39.9916 174.115 39.7974 175.552 39.7974C176.99 39.7974 176.562 40.8072 177.883 40.8072C179.203 40.8072 178.815 35.1366 178.815 34.1656C178.815 33.1558 177.883 33.0005 176.174 33.4665C174.426 33.9326 173.805 32.6897 172.368 31.3303C170.931 29.971 174.504 29.8933 175.591 29.1553C176.679 28.4174 177.922 28.7281 179.786 28.7281C181.689 28.8058 181.922 27.5629 183.825 27.5629V27.5629ZM252.999 24.2615C254.319 24.2615 254.902 25.5044 257.737 27.4852C260.573 29.466 261.777 34.2433 261.078 37.0398C260.378 39.8362 261.078 64.9267 261.078 67.6844C261.078 70.442 260.573 70.4808 260.573 71.5683C260.573 72.6558 258.087 73.0054 256.728 73.0054C255.368 73.0054 253.504 75.4135 251.717 74.0929C249.931 72.7724 250.513 71.5683 249.931 70.0924C249.387 68.6165 249.309 64.9267 250.474 64.383C251.64 63.8392 252.533 62.441 251.678 61.3146C250.863 60.1883 251.678 58.4793 252.494 57.8967C253.31 57.3141 252.494 54.5565 252.494 51.527C252.494 48.4975 252.999 45.5457 252.999 43.9144C252.999 42.2832 253.465 41.0403 252.999 40.1858C252.533 39.3313 253.465 37.4282 253.465 35.6804C253.465 33.9326 252.533 34.2045 251.678 36.2242C250.863 38.2438 250.474 39.5255 249.309 40.2246C248.144 40.9238 249.309 42.1278 249.309 44.4193C249.309 46.7109 250.474 46.9828 250.474 48.3033C250.474 49.6239 248.804 50.7114 248.105 53.5855C247.406 56.4597 245.114 55.1391 243.444 55.1391C241.774 55.1391 240.493 52.2261 239.444 52.2261C238.395 52.2261 238.279 51.5659 238.279 53.5855C238.279 55.6052 240.57 57.5472 239.444 59.295C238.356 61.0816 240.531 64.9267 239.444 65.7424C238.356 66.558 236.958 67.7232 235.754 68.3835C234.55 69.0437 234.162 68.1504 234.162 67.1794C234.162 66.2473 232.686 64.2665 231.249 63.3343C229.812 62.4021 230.705 61.3146 230.705 58.4405C230.705 55.5663 226.044 58.4405 223.986 58.4405C221.927 58.4405 223.364 59.761 223.986 61.2758C224.607 62.7906 224.452 65.7035 223.364 66.7522C222.277 67.8009 223.053 68.6942 221.228 69.5875C219.403 70.4808 219.713 72.9666 218.393 72.9666C217.072 72.9666 216.956 72.1898 214.936 71.5295C212.955 70.8304 214.353 67.9562 214.353 65.7035C214.353 63.4897 213.072 64.8879 213.072 64.8879V64.8491C213.072 64.5772 213.149 62.0526 214.353 61.237C215.635 60.3825 214.353 59.3726 214.353 57.4307C214.353 55.4887 213.072 55.0226 213.072 55.0226C213.072 55.0226 211.246 54.7119 211.246 53.469C211.246 52.2261 209.926 52.1873 208.955 51.4493C207.984 50.7114 206.663 49.352 206.003 48.7694C205.343 48.1868 205.071 46.4779 206.663 46.4779C208.256 46.4779 208.955 48.1868 210.003 48.7694C211.013 49.352 213.111 48.1868 214.392 49.1966C215.674 50.2065 216.956 47.1381 217.577 45.468C218.199 43.7979 216.956 43.1765 215.674 42.5162C214.392 41.8559 215.674 39.3702 215.674 37.5447C215.674 35.7192 213.111 36.9621 211.712 36.1465C210.275 35.3308 213.732 33.1558 215.674 33.1558C217.616 33.1558 220.84 35.6027 221.849 37.9719C222.859 40.3412 224.801 43.8367 225.966 44.8466C227.132 45.8564 226.666 42.5162 227.637 41.0014C228.608 39.4867 229.734 41.0014 230.239 39.3313C230.744 37.6612 229.734 36.9233 230.744 34.1268C231.792 31.3692 233.424 30.4759 236.842 33.0781C240.298 35.7192 241.347 40.0693 240.415 42.4773C239.483 44.8854 237.89 44.264 238.317 47.0993C238.745 49.9346 240.376 46.9828 242.201 47.5654C244.027 48.148 244.765 43.7591 244.765 40.9626C244.765 38.1661 249.969 35.525 250.513 33.0781C251.057 30.6312 251.717 31.0973 251.717 29.5049C251.717 27.9124 246.59 27.3299 248.144 25.349C249.659 23.5624 251.678 24.2615 252.999 24.2615V24.2615ZM303.452 44.0309C305.51 45.4292 303.063 48.7306 301.432 49.352C299.801 49.9734 298.869 49.5462 298.869 50.7502C298.869 51.9543 298.131 53.8574 299.762 53.8574C301.393 53.8574 303.413 50.1676 304.423 51.294C305.471 52.4203 309.783 56.0324 307.103 56.0324C304.423 56.0324 304.267 57.8967 306.015 59.2561C307.763 60.5767 310.21 60.732 310.21 63.1789C310.21 65.6259 309.744 68.3058 307.064 68.3058C304.384 68.3058 301.704 72.1121 299.723 72.1121C297.742 72.1121 293.47 74.326 290.751 72.85C288.032 71.3741 288.071 70.3255 289.392 67.529C290.712 64.7325 295.14 62.1303 295.14 60.6932C295.14 59.2561 293.936 60.266 292.344 58.4793C290.751 56.6927 295.14 56.0324 295.14 56.0324C295.14 56.0324 297.004 53.9351 296.072 52.3427C295.14 50.7502 292.382 52.1485 293.47 49.9734C294.557 47.7984 295.761 48.3033 297.742 46.5944C299.723 44.8854 301.432 42.6327 303.452 44.0309V44.0309ZM134.266 55.0614C135.625 55.0614 137.14 55.178 138.422 56.4985C139.703 57.8191 139.665 58.9842 140.325 60.1883C140.985 61.3923 141.645 62.8682 142.306 62.4798C142.966 62.0526 143.704 61.1981 143.704 60.1883C143.704 59.1784 145.801 58.6735 145.801 59.4115C145.801 60.1883 146.656 62.4021 145.801 63.6839C144.947 64.9656 144.597 67.8397 143.704 68.5C142.811 69.1603 142.228 71.6072 140.325 70.9469C138.422 70.2866 134.965 65.7424 134.965 64.1111C134.965 62.441 135.975 59.1784 134.965 58.4016C133.955 57.6249 132.906 55.0614 134.266 55.0614V55.0614ZM293.237 67.0241C293.237 67.0241 292.227 69.7817 294.635 69.7817C297.043 69.7817 296.383 66.6357 296.383 64.3053C296.383 61.9361 293.315 66.9076 293.237 67.0241ZM157.259 30.0098C158.346 30.7089 158.579 32.6897 159.589 32.6897C160.599 32.6897 163.201 32.4567 164.017 33.2335C164.833 34.0103 165.105 34.321 164.949 35.8746C164.794 37.4282 166.309 39.3702 164.949 39.7197C163.59 40.0693 162.735 38.9818 161.648 38.9818C160.56 38.9818 159.123 39.9139 159.123 40.9626C159.123 41.9724 158.774 44.7301 157.997 44.7301C157.22 44.7301 155.589 46.3225 156.793 46.3225C157.997 46.3225 158.929 45.4292 160.017 45.8953C161.104 46.3613 165.26 48.0314 164.638 49.4685C164.017 50.9056 164.638 54.3623 164.638 55.4887C164.638 56.6539 164.716 59.1396 163.512 60.0718C162.308 61.0039 161.065 63.6062 160.793 64.4218C160.483 65.2374 159.356 67.0629 158.696 67.0629C158.036 67.0629 156.249 67.6067 155.356 67.6067C154.462 67.6067 153.181 68.6942 152.287 68.6942C151.394 68.6942 149.258 67.5678 149.258 66.4027C149.258 65.2375 149.219 61.0039 148.714 60.0329C148.209 59.0619 147.122 57.5472 146.345 56.1489C145.607 54.7507 147.277 53.3913 147.976 52.3427C148.675 51.2551 148.559 50.6725 149.219 48.8859C149.879 47.0993 151.278 46.8274 151.278 45.1961C151.278 43.5649 152.443 42.9434 151.278 41.9336C150.112 40.9238 147.277 40.9626 147.976 39.6809C148.675 38.3992 151.122 38.5545 152.249 37.4282C153.414 36.3018 154.851 35.6416 154.851 34.4375C154.851 33.2335 153.996 32.1848 154.851 31.6411C155.705 31.0973 156.133 29.3107 157.259 30.0098V30.0098ZM318.211 50.9833C317.201 53.0806 316.89 53.702 318.211 54.9449C319.531 56.1878 317.589 57.586 317.589 58.2075C317.589 58.8677 318.211 58.2075 318.211 60.1106C318.211 62.0138 317.512 64.2276 319.26 64.1499C321.007 64.0722 319.881 61.1981 322.134 60.6544C324.425 60.1106 325.707 60.7709 325.047 58.8677C324.386 56.9646 317.9 57.3141 318.949 56.0324C319.998 54.7507 325.823 56.6927 327.299 54.9449C328.736 53.1971 326.717 52.5369 325.862 50.9833C325.008 49.4297 323.959 50.2453 322.134 50.2453C320.308 50.2453 319.221 48.8859 318.211 50.9833V50.9833ZM301.859 58.4793C300.655 60.8874 301.626 63.0624 302.636 63.645C303.646 64.2276 304.656 62.0914 304.656 61.5865C304.656 61.0816 303.063 56.0713 301.859 58.4793ZM299.723 25.349C301.704 25.9705 304.034 27.9901 303.258 29.3107C302.481 30.6312 299.568 36.5349 296.461 41.4675C293.353 46.4002 286.712 53.0418 285.391 56.7704C284.071 60.499 281.235 61.8972 279.177 61.8972C277.118 61.8972 273.157 59.9552 275.837 58.7512C278.517 57.5472 282.673 54.0904 284.071 50.7114C285.469 47.3323 291.217 38.0885 293.159 35.7581C295.101 33.4277 297.393 31.4469 297.393 30.3594C297.393 29.2718 297.742 24.7276 299.723 25.349ZM153.841 49.9346C151.86 50.556 151.938 51.7989 150.773 52.5369C149.608 53.2748 150.268 54.7119 151.161 55.5275C152.054 56.3431 152.249 57.3918 153.025 58.4405C153.802 59.4892 153.841 60.5767 155.317 60.5767C156.793 60.5767 155.822 59.2173 156.249 58.4405C156.676 57.6637 157.725 56.1101 158.424 54.7119C159.123 53.3136 157.725 51.3328 157.142 50.2453C156.599 49.1578 155.822 49.3132 153.841 49.9346V49.9346ZM232.414 42.322C230.239 42.322 229.812 47.7596 227.986 49.3131C226.161 50.8667 225.966 51.6047 227.132 52.8087C228.297 54.0128 230.433 52.0708 231.909 51.0998C233.346 50.1288 234.395 46.9439 234.395 45.5845C234.395 44.2251 234.589 42.322 232.414 42.322V42.322ZM145.219 32.6121C145.219 33.6996 145.762 36.2241 146.5 36.8456C147.238 37.467 147.782 38.8653 146.5 39.2925C145.219 39.7197 144.248 43.6037 143.121 43.6037C141.995 43.6037 141.335 43.9921 140.441 46.4779C139.548 48.9636 137.917 50.4783 136.674 50.4783C135.431 50.4783 135.819 48.7694 136.674 47.2158C137.528 45.6622 137.14 43.0988 137.334 41.8171C137.528 40.5354 138.927 38.8653 138.927 37.4282C138.927 35.9911 138.344 34.7482 140.441 33.6996C142.539 32.6509 145.219 31.5245 145.219 32.6121V32.6121ZM320.308 42.4773C320.308 43.9921 322.367 44.7301 323.182 44.7301C323.998 44.7301 326.95 41.5452 325.474 41.5452C323.998 41.5452 320.308 41.0014 320.308 42.4773ZM324.93 31.6022C323.221 32.4567 323.26 34.9424 321.473 34.9424C319.687 34.9424 318.988 31.6799 318.327 34.9424C317.628 38.205 321.59 40.38 323.221 39.2925C324.852 38.205 325.94 37.3505 325.94 36.1465C325.94 34.9424 326.678 30.7866 324.93 31.6022ZM308.19 33.4277C310.443 33.4277 311.958 36.7679 311.181 36.7679C310.404 36.7679 308.851 37.8554 306.714 37.8554C304.578 37.8554 303.646 37.3505 301.82 37.8554C299.995 38.3603 298.908 35.0978 301.82 34.0103C304.733 32.9228 305.938 33.4277 308.19 33.4277V33.4277Z" fill="#1C1511"/>
<path d="M68.2387 78.9473C76.4728 80.9281 82.1822 88.8126 81.6773 97.5904C81.1335 106.019 74.3366 113.01 65.753 113.903C57.3248 114.796 49.4791 109.437 47.1487 101.008C48.0421 100.659 48.9354 100.115 50.0229 99.5712C51.6153 104.582 54.6836 108.194 59.4998 109.786C65.5976 111.922 72.2004 109.592 75.9678 104.232C79.5411 99.2217 79.1915 92.2305 75.2687 87.3755C71.1517 82.3652 64.5101 80.3844 58.6065 83.0643C55.7323 84.5014 53.0524 86.288 50.5666 88.0747C43.7697 93.085 36.0794 95.26 27.6512 94.1725C24.4275 93.8229 22.2913 92.5412 21.2038 88.968C28.7387 91.8421 35.8852 91.8421 42.8764 88.6184C45.4009 87.3755 47.5371 85.9384 49.8675 84.1518C55.3439 80.0348 61.0922 77.1607 68.2387 78.9473ZM80.784 78.5201C88.5131 85.8608 90.4939 97.8623 85.6389 107.378C84.0077 110.408 81.1335 110.796 78.4536 111.689C88.8626 100.931 86.5322 84.2683 72.0062 76.7723C75.3852 76.1897 78.0652 76.0343 80.784 78.5201ZM48.1197 110.058C45.5951 111.495 43.8085 109.359 41.8277 108.427C43.9639 108.271 46.838 105.591 48.1197 110.058ZM74.8026 91.4925C77.133 97.3962 74.2589 104.232 68.5494 106.562C62.84 108.893 56.548 106.019 53.868 100.465C52.6251 97.9399 53.6738 97.0466 56.0042 95.998C56.548 97.435 56.7033 98.8721 57.4413 99.9596C59.5775 103.727 64.044 104.97 68.0057 103.028C71.7731 101.047 73.2102 96.5806 71.4236 92.8131C69.637 89.0457 65.1704 87.0648 61.2087 88.8514C58.5288 90.0943 56.0042 92.0751 53.5185 93.8618C47.4206 98.173 40.8179 100.309 33.4771 100.659C30.603 100.853 29.0106 99.5712 27.7677 97.435C31.341 97.2408 34.7589 97.2408 37.9826 96.7359C44.0804 95.8426 49.2461 92.9684 54.1011 89.201C55.8877 87.7639 58.0239 86.3269 60.1989 85.4336C65.8695 83.0643 72.4723 85.8996 74.8026 91.4925V91.4925ZM113.332 58.8671C115.662 67.1012 111.545 76.2674 103.855 79.8406C101.175 81.0835 101.175 81.0835 99.932 78.4035C102.457 76.6169 104.748 75.374 106.729 73.5486C111.545 68.5382 111.739 60.4596 107.428 55.0608C102.961 49.5068 95.077 48.0697 88.9792 51.4876C82.8813 55.0608 80.2014 62.4404 82.8813 68.8878C83.9688 71.5677 85.7555 74.2477 87.5421 76.6169C93.2515 83.8023 95.2324 92.0363 94.1837 101.008C93.8341 104.038 91.8533 105.475 89.1734 106.912C89.7171 104.582 90.2609 102.795 90.6104 100.62C92.0475 92.1917 89.9113 84.8509 84.5126 78.4035C80.9393 73.937 78.2594 69.2762 78.4147 63.1784C78.6089 54.5559 85.4059 47.2152 94.1837 46.1277C102.612 45.079 111.04 50.6331 113.332 58.8671V58.8671ZM43.9639 102.173L45.0514 104.853C40.0411 107.378 38.0602 107.378 34.4481 103.96C37.866 103.261 40.7402 102.717 43.9639 102.173ZM64.3936 91.4149C67.0735 91.4149 69.2097 93.5511 69.2097 96.231C69.2097 98.9109 67.2289 101.047 64.3936 101.047C61.7136 101.047 59.5775 98.9109 59.5775 96.231C59.5775 93.5511 61.7136 91.4149 64.3936 91.4149ZM107.195 59.3721C109.525 64.9261 107.389 71.2182 101.99 73.8981C98.4172 75.5294 98.223 75.5294 96.281 72.1115C101.99 70.6744 104.321 68.1498 104.321 63.6833C104.321 60.4596 102.728 58.1292 99.8543 56.6921C96.8248 55.255 93.9506 55.6046 91.4261 57.935C88.9403 60.0712 87.8528 62.9453 89.0957 66.0137C89.989 68.3441 91.4261 70.4802 93.0185 72.6553C97.8346 79.1027 100.709 86.288 101.253 94.3667C101.447 97.2408 100.359 99.2217 97.8346 100.814C97.8346 98.2895 98.0288 95.9591 97.8346 93.6287C97.2909 86.6376 94.6109 80.5397 90.4939 74.9856C88.7073 72.4611 86.9206 69.7811 86.0273 66.907C84.0465 61.5082 87.4644 55.255 92.8243 53.2742C98.7668 51.2934 104.865 53.818 107.195 59.3721V59.3721ZM64.3936 94.6386C63.5003 94.6386 62.8012 95.3377 62.8012 96.231C62.8012 97.1243 63.5003 97.8234 64.3936 97.8234C65.0927 97.8234 65.8307 97.1243 65.986 96.231C65.986 95.3377 65.2869 94.6386 64.3936 94.6386ZM104.826 82.2875C107.506 87.492 107.35 89.8224 104.282 93.2015C103.738 90.3274 103.039 87.4532 102.651 84.7733C102.495 84.0742 103.932 83.1808 104.826 82.2875ZM50.9939 72.2669C52.0814 76.1897 51.693 78.1705 49.013 80.8504C41.6723 88.3854 29.9816 90.3273 20.8154 85.5112C17.7859 83.9188 16.6984 82.2875 16.3488 78.3647C28.6999 89.4729 44.7018 84.8121 50.9939 72.2669ZM110.03 79.6076C110.38 79.8018 110.729 79.9571 110.924 79.9571L110.691 80.8116C110.225 82.5206 109.758 84.2295 109.137 86.055C106.962 82.2875 107.156 81.2 110.03 79.6076V79.6076ZM38.8759 21.0372C35.1084 31.99 36.7397 41.5058 43.8862 50.0893C50.6832 58.168 51.2269 67.4896 45.867 74.8303C41.5558 80.7339 33.516 83.2585 26.3695 80.9281C19.3783 78.7919 14.368 72.1503 14.0184 64.6154C13.6689 57.4301 18.3296 50.2835 24.9324 47.5648C26.9132 46.8656 27.0686 47.021 27.9619 49.8951C27.2628 50.2447 26.3695 50.5943 25.6315 50.9827C18.485 54.2064 15.4167 62.6346 18.485 69.82C21.5145 76.8111 30.1369 80.229 36.9339 77.1607C44.2746 73.937 47.8479 65.7029 44.6242 58.5176C43.7308 55.8376 41.9442 53.3131 40.1576 50.7885C34.7589 43.8362 32.6227 35.9128 33.6713 27.135C34.0597 23.9113 35.6522 21.9305 38.8759 21.0372V21.0372ZM30.7972 27.2516V31.2132C30.4476 39.0977 33.1276 46.0888 37.7884 52.5751C39.575 54.9055 41.3616 57.4301 42.4491 60.3042C44.9349 66.0525 41.9054 72.3057 36.1959 74.8303C30.6418 77.1607 24.1944 74.6361 21.7087 69.082C19.223 63.6833 21.5145 57.0805 26.719 54.2064C29.7485 52.2255 30.4865 52.4197 32.0789 55.6434C30.4865 56.1872 29.0494 56.5367 27.7677 57.4301C24.1944 59.7604 23.1069 64.227 25.282 67.9945C27.2628 71.5677 31.8847 73.0048 35.6522 71.2182C39.4196 69.2374 41.2063 64.9261 39.2254 61.0033C37.9437 58.2845 36.1571 55.9542 34.3705 53.6238C29.9039 47.5259 27.7289 40.729 27.2239 33.194C27.0297 30.3199 28.2726 28.8828 30.7972 27.2516ZM96.4364 59.0225C99.1163 59.0225 101.447 61.1587 101.447 63.8386C101.447 66.3632 99.3105 68.849 96.6306 68.849C93.9506 68.849 91.6203 66.7128 91.6203 64.0328C91.6203 61.3529 93.7564 59.0225 96.4364 59.0225V59.0225ZM32.1566 59.1779C34.6812 59.1779 36.9727 61.5082 37.1669 63.994C36.9727 66.6739 34.8365 68.8101 32.1566 68.8101C29.4766 68.8101 27.3405 66.6739 27.3405 63.994C27.3405 61.314 29.4766 59.1779 32.1566 59.1779V59.1779ZM96.6306 62.4016C95.7373 62.4016 95.0382 63.1007 95.0382 63.994C95.0382 64.8873 95.7373 65.5864 96.6306 65.5864C97.5239 65.5864 98.223 64.8873 98.223 63.994C98.223 63.1007 97.5239 62.4016 96.6306 62.4016ZM31.9624 62.4016C31.0691 62.4016 30.37 63.1007 30.37 63.994C30.37 64.8873 31.0691 65.5864 31.9624 65.5864C32.8557 65.5864 33.5548 64.8873 33.5548 63.994C33.5548 63.1007 32.8557 62.4016 31.9624 62.4016ZM107.7 42.5156C110.225 43.7585 110.768 44.846 111.662 49.5068C100.903 39.0977 84.0077 41.6223 76.8223 55.6046C76.1232 52.3809 76.2786 49.8563 78.4536 47.3706C85.9885 39.4861 98.1842 37.3111 107.7 42.5156ZM49.3626 16.3764C44.7018 21.9305 42.1772 28.1837 43.6143 35.5633C45.0514 42.7486 49.3626 47.5648 56.3538 50.9827C52.2367 51.876 49.3626 51.3322 46.6438 48.4581C39.3031 40.7678 37.6718 29.1159 42.8764 19.7943C44.3523 17.0755 46.838 16.8813 49.3626 16.3764V16.3764ZM65.015 14.046C72.7053 14.5898 79.1527 19.6001 80.9393 26.9408C80.046 27.2904 79.1527 27.64 78.0652 28.1837C76.4728 23.5229 73.754 20.2992 69.4816 18.3184C63.7722 15.988 56.9364 17.6193 53.0135 22.6296C49.0907 27.4846 48.7023 34.6311 52.3144 39.6803C56.0819 45.079 62.8788 47.4094 68.5883 45.079C71.4624 43.8361 74.2977 42.2049 76.8223 40.224C84.5126 34.3204 93.0962 32.1454 102.418 33.932C104.204 34.2816 105.641 36.2624 107.428 37.6995C107.078 37.6995 106.884 37.8937 106.729 38.049C102.612 37.6995 98.3007 36.9615 94.1837 36.9615C88.4742 36.9615 83.4251 39.4861 78.9585 43.0593C74.2977 46.8268 69.2874 49.701 63.0342 49.3514C53.2077 48.8465 45.6728 40.4182 46.4108 30.7471C47.1099 20.6876 55.1886 13.3469 65.015 14.046V14.046ZM19.0288 41.2727C21.0096 46.1277 21.0096 46.283 17.9412 47.9143C17.5917 47.9143 17.2421 47.7201 17.0479 47.7201C17.5917 45.7393 18.1354 43.7585 19.0288 41.2727ZM23.8837 34.4369C24.4275 37.6606 24.9712 40.6901 25.6704 43.9138C24.777 44.2634 23.8837 44.4576 22.9904 44.8071C20.2716 40.5348 20.4658 38.049 23.8837 34.4369V34.4369ZM74.8026 27.2516C75.8902 29.7761 75.696 30.3199 72.4723 31.7181C71.9285 28.6498 70.8798 26.1641 68.0057 24.5328C64.782 22.9015 61.0145 23.4453 58.5288 26.164C56.1984 28.6886 55.8488 32.6114 57.6355 35.4856C59.4221 38.5539 63.1896 40.1464 66.5686 38.9035C69.0544 38.0102 71.2294 36.3789 73.3656 34.9418C79.813 30.0869 86.8041 27.4069 94.844 26.7078C97.5239 26.5136 99.3105 27.7953 101.097 30.4753C90.1832 29.2324 81.25 32.6115 73.1714 39.2531C69.5981 42.3214 65.4811 43.9138 60.665 42.3214C55.4604 40.5348 52.6251 36.0294 53.1689 30.3199C53.5185 25.4649 57.4801 21.3479 62.4904 20.4546C67.6561 19.5613 72.8218 22.4354 74.8026 27.2516V27.2516ZM64.1994 26.9797C66.8793 26.7855 69.0155 28.9605 69.0155 31.7958C69.2097 34.67 67.0347 36.8062 64.3547 36.8062C61.4806 36.8062 59.3444 34.67 59.3444 31.99C59.3833 29.1159 61.5194 26.9797 64.1994 26.9797ZM64.3936 29.6596C63.5003 29.6596 62.8012 30.3587 62.8012 31.2521C62.8012 32.1454 63.5003 32.8445 64.3936 32.8445C65.2869 32.8445 65.986 32.1454 65.986 31.2521C65.986 30.3587 65.2869 29.6596 64.3936 29.6596ZM93.5234 23.7171C90.2997 24.4163 87.4256 24.96 84.0077 25.5038C83.6581 24.6105 83.3086 23.8725 83.1144 22.9792C87.0372 20.105 90.2997 20.2992 93.5234 23.7171ZM80.2402 16.8813C82.221 17.5805 84.2019 18.1242 86.6876 18.8622C82.0268 20.843 81.6773 20.6488 79.8518 17.9689C80.046 17.6193 80.046 17.2697 80.2402 16.8813Z" fill="#FE0316"/>
</svg>
