<svg width="128" height="128" viewBox="0 0 128 128" fill="none" xmlns="http://www.w3.org/2000/svg">
<path d="M67.6119 76.7029C74.6099 78.3789 79.4784 85.0839 79.0219 92.5504C78.5654 99.7124 72.7844 105.655 65.4819 106.417C58.3319 107.179 51.6384 102.607 49.6604 95.4459C50.4214 95.1409 51.1819 94.6839 52.0944 94.2269C53.4639 98.4934 56.0499 101.541 60.1574 102.912C65.3299 104.741 70.9589 102.76 74.1534 98.1889C77.1964 93.9219 76.8919 87.9789 73.5449 83.8649C70.0459 79.5984 64.4174 77.9219 59.3969 80.2079C56.9629 81.4269 54.6809 82.9504 52.5509 84.4744C46.7699 88.7409 40.2284 90.5694 33.0784 89.6554C30.3399 89.3504 28.5144 88.2839 27.6014 85.2364C33.9914 87.6744 40.0764 87.6744 46.0094 84.9314C48.1394 83.8649 49.9644 82.6459 51.9424 81.1219C56.6584 77.6169 61.5269 75.1789 67.6124 76.7029H67.6119ZM78.2584 76.3289C84.8159 82.5699 86.4934 92.7679 82.3759 100.835C81.0034 103.422 78.5634 103.727 76.2759 104.488C85.1209 95.3554 83.1384 81.1999 70.7859 74.8069C73.6834 74.3504 75.9709 74.1979 78.2584 76.3289ZM50.5034 103.118C48.3689 104.336 46.8439 102.509 45.1664 101.748C46.9964 101.596 49.4364 99.3129 50.5039 103.118H50.5034ZM73.1174 87.4824C75.0974 92.5084 72.6609 98.2954 67.7879 100.275C62.9154 102.255 57.5859 99.8184 55.3019 95.0974C54.2359 92.9649 55.1494 92.2034 57.1294 91.2899C57.5859 92.5084 57.7384 93.7264 58.3474 94.6399C60.1744 97.8389 63.9814 98.9049 67.3314 97.2299C70.5289 95.5544 71.7469 91.7469 70.2244 88.5484C68.7019 85.3499 64.8949 83.6749 61.5449 85.1979C59.2609 86.2639 57.1294 87.9389 54.9974 89.4619C49.8204 93.1169 44.1864 94.9449 37.9429 95.2494C35.5069 95.4019 34.1364 94.3359 33.0704 92.5084C36.1154 92.3559 39.0089 92.3559 41.7499 91.8989C46.9269 91.1374 51.3429 88.7004 55.4544 85.5024C56.9769 84.2839 58.8044 83.0654 60.6314 82.3039C65.5039 80.3239 71.1379 82.7609 73.1174 87.4824ZM105.949 59.6364C107.927 66.6459 104.428 74.4174 97.8859 77.4649C95.604 78.5314 95.6039 78.5314 94.5394 76.2459C96.6694 74.7219 98.6469 73.6554 100.32 72.1314C104.428 67.8649 104.58 61.0079 100.929 56.4364C97.1255 51.7124 90.4314 50.4934 85.2589 53.3884C80.0869 56.4364 77.8049 62.6834 80.0869 68.1694C80.9994 70.4554 82.5209 72.7409 84.0419 74.7219C88.9104 80.8169 90.5839 87.8269 89.6709 95.4459C89.3669 98.0359 87.6934 99.2554 85.4109 100.474C85.8679 98.4934 86.324 96.9694 86.6284 95.1409C87.8455 87.9789 86.0199 81.7314 81.4559 76.2459C78.4134 72.4359 76.1309 68.4744 76.2834 63.2934C76.4354 55.9789 82.2164 49.7314 89.6709 48.8174C96.8209 47.9029 103.971 52.6269 105.949 59.6364ZM46.9964 96.4209L47.9114 98.7039C43.6414 100.835 41.9639 100.835 38.9139 97.9429C41.5965 97.376 44.2914 96.8685 46.9964 96.4209ZM64.5029 87.2359C66.7809 87.2359 68.6029 89.0574 68.6029 91.3354C68.6029 93.6129 66.9329 95.4349 64.5029 95.4349C63.9639 95.4372 63.4297 95.3327 62.9313 95.1274C62.4328 94.9222 61.98 94.6202 61.5988 94.2391C61.2176 93.8579 60.9157 93.405 60.7105 92.9066C60.5052 92.4081 60.4007 91.874 60.4029 91.3349C60.4029 89.0574 62.2249 87.2354 64.5029 87.2354V87.2359ZM100.678 60.2204C102.658 64.9419 100.831 70.2724 96.2624 72.5569C93.2174 73.9274 93.0649 73.9274 91.3899 71.0339C96.2624 69.8154 98.2419 67.6829 98.2419 63.8754C98.2419 61.1344 96.8719 59.1544 94.4354 57.9354C91.8469 56.7174 89.4104 57.0219 87.2789 59.0019C85.1469 60.8294 84.2334 63.2664 85.2989 65.8554C86.0604 67.8354 87.2789 69.6629 88.6489 71.4904C92.7605 76.9734 95.1969 83.0654 95.6539 89.9189C95.8059 92.3559 94.8924 94.0314 92.7604 95.4019C92.7604 93.2699 92.9129 91.2899 92.7604 89.3099C92.3034 83.3699 90.0194 78.1919 86.5174 73.4704C84.9944 71.3384 83.4719 69.0539 82.7104 66.6169C81.0354 62.0479 83.9289 56.7174 88.4969 55.0419C93.5219 53.3669 98.6989 55.4989 100.678 60.2204ZM64.5029 89.9684C64.3232 89.9676 64.1451 90.0024 63.9789 90.0709C63.8127 90.1393 63.6617 90.2399 63.5346 90.367C63.4075 90.4941 63.3068 90.6451 63.2384 90.8114C63.17 90.9776 63.1352 91.1557 63.1359 91.3354C63.1352 91.5151 63.1701 91.6932 63.2385 91.8593C63.307 92.0255 63.4076 92.1764 63.5347 92.3035C63.6618 92.4305 63.8128 92.5312 63.979 92.5995C64.1452 92.6679 64.3232 92.7027 64.5029 92.7019C65.1104 92.7019 65.7179 92.0944 65.8694 91.3354C65.8702 91.1557 65.8354 90.9776 65.767 90.8115C65.6987 90.6453 65.598 90.4943 65.471 90.3672C65.344 90.2401 65.193 90.1395 65.0269 90.071C64.8607 90.0026 64.6826 89.9677 64.5029 89.9684ZM98.6929 79.5254C100.98 83.9394 100.828 85.9184 98.2359 88.8104C97.7785 86.3754 97.1684 83.9394 96.8634 81.6564C96.711 81.0474 97.9309 80.2864 98.6934 79.5254H98.6929ZM52.9439 71.0014C53.8589 74.3504 53.5539 76.0244 51.2664 78.3079C45.0139 84.7004 35.1014 86.3749 27.3244 82.2654C24.7319 80.8954 23.8169 79.5254 23.5119 76.1769C34.0339 85.6139 47.6064 81.6564 52.9439 71.0019V71.0014ZM103.115 77.2424C103.42 77.3944 103.725 77.5469 103.878 77.5469C103.42 79.2209 102.963 80.8954 102.353 82.7219C100.523 79.5254 100.675 78.6119 103.115 77.2419V77.2424ZM42.6624 27.4839C39.4674 36.7789 40.8374 44.8554 46.9224 52.1694C52.7034 59.0269 53.1594 66.9504 48.5954 73.1984C44.9444 78.2269 38.0984 80.3599 32.0134 78.3789C26.0804 76.5504 21.8204 70.9124 21.5164 64.5124C21.2119 58.4174 25.1674 52.3224 30.7964 50.0364C32.4699 49.4264 32.6219 49.5789 33.3824 52.0174C32.7739 52.3224 32.0134 52.6269 31.4049 52.9314C25.3199 55.6744 22.7334 62.8364 25.3199 68.9314C27.9059 74.8744 35.2079 77.7694 40.9889 75.1789C47.2264 72.4364 50.2689 65.4269 47.5309 59.3314C46.7699 57.0459 45.2489 54.9124 43.7274 52.7789C39.1634 46.8364 37.3379 40.1314 38.2509 32.6649C38.5549 29.9219 39.9244 28.2459 42.6624 27.4839ZM35.6589 32.9589V36.3089C35.3544 43.0104 37.6389 48.9499 41.5974 54.4329C43.1204 56.4129 44.6429 58.5449 45.5564 60.9819C47.6884 65.8554 45.0999 71.1859 40.2269 73.3184C35.5069 75.2984 30.0249 73.1659 27.8934 68.4444C25.7614 63.8754 27.7409 58.2404 32.1569 55.8039C34.7454 54.1284 35.3544 54.2809 36.7249 57.0219C35.3549 57.4789 34.1364 57.7834 33.0704 58.5449C30.0254 60.5249 29.1114 64.3324 30.9389 67.5309C32.6139 70.5769 36.5729 71.7954 39.7704 70.2724C42.9679 68.5974 44.4904 64.9419 42.8154 61.5909C41.7499 59.3064 40.2269 57.3269 38.7044 55.3469C34.8979 50.1684 33.0704 44.3809 32.6134 37.9844C32.4614 35.5479 33.5274 34.3294 35.6589 32.9584V32.9589ZM91.6859 59.7529C93.9634 59.7529 95.938 61.5749 95.938 63.8529C95.938 65.9779 94.1154 68.1039 91.8379 68.1039C89.5599 68.1039 87.5854 66.2819 87.5854 64.0039C87.5854 61.7269 89.408 59.7529 91.6854 59.7529H91.6859ZM37.1684 59.9049C39.2944 59.9049 41.2684 61.8784 41.4204 64.0044C41.2684 66.2819 39.4459 68.1044 37.1684 68.1044C36.6294 68.1067 36.0952 68.0022 35.5968 67.7969C35.0983 67.5917 34.6455 67.2897 34.2643 66.9086C33.8831 66.5274 33.5812 66.0745 33.376 65.5761C33.1707 65.0776 33.0662 64.5435 33.0684 64.0044C33.0684 61.7269 34.8904 59.9044 37.1684 59.9044V59.9049ZM91.8374 62.6379C91.6578 62.6372 91.4798 62.672 91.3137 62.7405C91.1475 62.8089 90.9966 62.9095 90.8696 63.0365C90.7425 63.1636 90.6419 63.3145 90.5735 63.4806C90.5051 63.6467 90.4702 63.8248 90.4709 64.0044C90.4702 64.1841 90.5051 64.3621 90.5735 64.5282C90.6419 64.6943 90.7425 64.8453 90.8696 64.9723C90.9966 65.0993 91.1475 65.2 91.3137 65.2684C91.4798 65.3368 91.6578 65.3717 91.8374 65.3709C92.0171 65.3717 92.1952 65.3369 92.3614 65.2685C92.5276 65.2001 92.6786 65.0995 92.8057 64.9725C92.9327 64.8454 93.0334 64.6945 93.1019 64.5283C93.1703 64.3622 93.2052 64.1841 93.2044 64.0044C93.2052 63.8247 93.1703 63.6467 93.1019 63.4805C93.0334 63.3144 92.9327 63.1634 92.8057 63.0364C92.6786 62.9093 92.5276 62.8087 92.3614 62.7403C92.1952 62.6719 92.0171 62.6371 91.8374 62.6379ZM37.0164 62.6379C36.8367 62.6371 36.6587 62.6719 36.4925 62.7403C36.3263 62.8087 36.1753 62.9093 36.0482 63.0364C35.9211 63.1634 35.8205 63.3144 35.752 63.4805C35.6836 63.6467 35.6487 63.8247 35.6494 64.0044C35.6487 64.1841 35.6836 64.3622 35.752 64.5283C35.8205 64.6945 35.9211 64.8454 36.0482 64.9725C36.1753 65.0995 36.3263 65.2001 36.4925 65.2685C36.6587 65.3369 36.8367 65.3717 37.0164 65.3709C37.1961 65.3717 37.3741 65.3368 37.5402 65.2684C37.7064 65.2 37.8573 65.0993 37.9843 64.9723C38.1114 64.8453 38.212 64.6943 38.2804 64.5282C38.3488 64.3621 38.3837 64.1841 38.3829 64.0044C38.3837 63.8248 38.3488 63.6467 38.2804 63.4806C38.212 63.3145 38.1114 63.1636 37.9843 63.0365C37.8573 62.9095 37.7064 62.8089 37.5402 62.7405C37.3741 62.672 37.1961 62.6372 37.0164 62.6379ZM101.133 45.7344C103.268 46.7999 103.725 47.7134 104.488 51.6709C95.3379 42.8424 81.0034 44.9734 74.9034 56.8459C74.2934 54.1059 74.4459 51.9754 76.2759 49.8444C82.6809 43.1469 93.0509 41.3204 101.133 45.7344ZM51.5714 23.5119C47.6064 28.2304 45.4714 33.5579 46.6914 39.7984C47.9114 45.8869 51.5714 49.9964 57.5189 52.8884C54.0114 53.6494 51.5714 53.1929 49.2839 50.7574C43.0314 44.2124 41.6589 34.3189 46.0814 26.4039C47.3014 24.1204 49.4364 23.9684 51.5714 23.5119ZM64.8734 21.5409C71.4154 21.9979 76.8919 26.2649 78.4134 32.5124C77.6524 32.8174 76.8919 33.1219 75.9794 33.5789C74.6099 29.6169 72.3279 26.8739 68.6769 25.1979C63.8089 23.2169 58.0279 24.5884 54.6809 28.8554C51.3339 32.9694 51.0299 39.0649 54.0724 43.3314C57.2674 47.9029 63.0479 49.8839 67.9164 47.9029C70.3504 46.8364 72.7844 45.4649 74.9144 43.7884C81.4559 38.7599 88.7584 36.9314 96.6694 38.4554C98.1905 38.7604 99.4074 40.4364 100.929 41.6554C100.624 41.6554 100.472 41.8074 100.32 41.9604C96.821 41.6554 93.1704 41.0454 89.6709 41.0454C84.8029 41.0454 80.5429 43.1789 76.7399 46.2269C72.7849 49.4269 68.5249 51.8649 63.1999 51.5599C54.8329 51.1029 48.4434 43.9409 49.0519 35.7124C49.6604 27.1789 56.5069 20.9314 64.8734 21.5409ZM25.7999 44.6689C27.4774 48.7789 27.4774 48.9309 24.8849 50.3009C24.5799 50.3009 24.2749 50.1489 24.1224 50.1489C24.5799 48.4739 25.0374 46.7999 25.7999 44.6689ZM29.9169 38.8849C30.3744 41.6249 30.8319 44.2124 31.4419 46.9524C30.6794 47.2569 29.9169 47.4089 29.1549 47.7134C26.8674 44.0604 27.0199 41.9294 29.9169 38.8849ZM73.1179 32.9584C74.0319 35.0909 73.8794 35.5479 71.1384 36.7659C70.6819 34.1769 69.7684 32.0449 67.3319 30.6739C64.5909 29.3034 61.3934 29.7604 59.2619 32.0449C57.2819 34.1769 56.9774 37.5274 58.4999 39.9644C60.0229 42.5534 63.2204 43.9244 66.1134 42.8579C68.2454 42.0964 70.0724 40.7259 71.8999 39.5079C77.3814 35.3954 83.3199 33.1109 90.1724 32.5014C92.4564 32.3494 93.9789 33.4154 95.5019 35.6999C86.2134 34.6339 78.5999 37.5274 71.7474 43.1629C68.7024 45.7519 65.1999 47.1229 61.0889 45.7519C56.6729 44.2289 54.2364 40.4214 54.6934 35.5479C54.9979 31.4354 58.3479 27.9329 62.6114 27.1709C67.0274 26.4094 71.4429 28.8464 73.1179 32.9584ZM64.3514 32.5734C66.6294 32.4219 68.4514 34.2439 68.4514 36.6734C68.6034 39.1029 66.7814 40.9249 64.5034 40.9249C62.0734 40.9249 60.2514 39.1029 60.2514 36.8249C60.2514 34.3959 62.0734 32.5739 64.3514 32.5739V32.5734ZM64.5034 34.8514C64.3237 34.8506 64.1457 34.8854 63.9795 34.9538C63.8133 35.0222 63.6623 35.1228 63.5352 35.2499C63.4081 35.3769 63.3075 35.5279 63.239 35.694C63.1706 35.8602 63.1357 36.0382 63.1364 36.2179C63.1357 36.3976 63.1706 36.5757 63.239 36.7418C63.3075 36.908 63.4081 37.0589 63.5352 37.186C63.6623 37.313 63.8133 37.4136 63.9795 37.482C64.1457 37.5504 64.3237 37.5852 64.5034 37.5844C64.6831 37.5851 64.8611 37.5503 65.0272 37.4819C65.1934 37.4135 65.3443 37.3128 65.4713 37.1858C65.5984 37.0588 65.699 36.9078 65.7674 36.7417C65.8358 36.5756 65.8707 36.3976 65.8699 36.2179C65.8707 36.0383 65.8358 35.8602 65.7674 35.6941C65.699 35.528 65.5984 35.3771 65.4713 35.25C65.3443 35.123 65.1934 35.0224 65.0272 34.954C64.8611 34.8855 64.6831 34.8507 64.5034 34.8514ZM89.0864 29.7524C86.3414 30.3614 83.9014 30.8174 81.0039 31.2744C80.6989 30.5134 80.3939 29.9044 80.2414 29.1434C83.5964 26.7084 86.3414 26.8604 89.0864 29.7524ZM77.8014 23.9684C79.4789 24.5774 81.1564 25.0334 83.2914 25.6429C79.3264 27.3169 79.0214 27.1649 77.4964 24.8814C77.6489 24.5774 77.6489 24.2729 77.8014 23.9684Z" fill="#FE0316"/>
</svg>
