<svg width="128" height="128" viewBox="0 0 128 128" fill="none" xmlns="http://www.w3.org/2000/svg">
<path d="M104.663 54.5183C107.217 62.5593 107.052 72.6533 104.517 80.6213C99.8608 95.2558 88.3133 105.96 72.4028 109.218C63.6778 111.001 54.1648 109.615 46.7413 106.285C31.9733 99.6548 19.9368 85.1848 21.6663 62.2903C24.8923 68.9813 29.6823 74.3893 36.4763 77.8353C43.2463 81.2693 53.5233 82.2103 61.5513 79.0083C68.3338 76.3008 73.9733 71.3343 77.5353 64.6368C80.7183 58.6548 83.0218 48.1148 79.4413 39.7068C80.4803 48.6828 76.6738 55.9663 72.1098 60.5308C68.0833 64.5573 62.1078 67.5208 54.8063 67.4233C41.5413 67.2458 30.6663 56.8643 30.6113 43.0798C30.5803 35.8878 33.3178 30.6573 37.0628 26.5083C41.3093 21.8103 47.8713 17.8503 57.4458 18.5903C62.5538 18.9813 66.3723 20.8753 69.6168 23.2828C70.5638 23.9853 71.5658 25.3113 72.6963 25.7758C74.5353 26.5273 76.8873 26.7168 78.7083 27.3888C91.0933 31.9653 100.411 41.1553 104.663 54.5188" fill="#DC0917"/>
</svg>
