<svg width="506" height="128" viewBox="0 0 506 128" fill="none" xmlns="http://www.w3.org/2000/svg">
<path d="M201.795 29.6966L207.913 30.3971L212.771 30.2103L215.526 30.3971C216.413 30.4905 217.441 30.7708 217.908 31.0043C218.422 31.2378 219.543 31.9851 219.496 33.8533C219.449 34.4137 218.795 35.4879 217.955 36.5621C217.114 37.6363 215.666 39.5979 213.378 41.1392C210.575 42.3535 210.202 43.5678 210.062 43.6612C209.595 44.7821 209.875 46.0431 210.856 46.7904C211.089 47.1173 212.117 47.7712 214.218 48.9855C216.273 50.1998 217.674 51.6476 218.048 53.1889C218.468 54.7301 218.515 56.0379 217.815 57.3923C216.18 59.5407 214.218 60.1478 211.696 60.9418C209.641 61.5957 207.913 62.3429 205.718 63.1836C205.064 63.3704 204.644 63.5573 202.916 63.4639C202.029 63.604 201.515 63.5106 200.721 64.865L200.674 65.0051C200.534 65.3787 200.347 65.7991 200.207 66.6865C200.067 67.6205 200.16 68.181 200.16 68.2277C200.16 68.2744 200.02 69.1151 200.02 70.7031C200.02 72.0108 199.974 73.085 199.647 74.3927C199.32 75.4202 199.039 75.7471 198.572 76.4477C197.965 77.2417 194.182 78.8763 192.407 75.8405C192.174 74.6729 191.94 73.6921 192.314 71.6838C192.454 70.4228 192.688 69.2085 192.734 67.9008C192.874 67.0601 193.015 66.0793 193.108 65.2386C193.341 62.9034 193.248 60.5215 193.295 58.1863C193.248 57.8593 193.108 56.9252 193.341 55.6642C193.622 54.2631 193.762 53.1889 193.902 52.7218C193.902 51.9746 194.135 50.807 193.855 49.2657L193.575 42.8205C193.622 42.2134 193.668 41.5128 193.668 41.2793L193.715 40.4853C193.715 39.6913 193.668 39.4111 193.715 38.7105C193.762 38.01 193.762 37.4962 193.715 37.216C193.668 36.9358 193.388 36.3286 193.155 35.4412C192.874 34.5538 192.734 33.7599 192.641 33.0126C192.548 32.312 192.594 31.6582 192.688 31.0977C192.968 30.0235 193.622 30.0235 193.715 29.9301C193.855 29.8367 194.322 29.6032 196.377 29.5098C198.526 29.4631 200.3 29.6032 201.795 29.6966V29.6966ZM460.631 35.7214C467.31 35.7681 472.774 36.0484 476.977 36.5621C479.266 36.8423 484.217 37.216 485.991 36.9825C487.766 36.6555 488.934 36.4687 489.634 36.4687C490.335 36.4687 491.549 36.7022 491.97 37.0759C492.203 37.2627 492.437 37.8231 491.923 39.0375C491.643 39.8781 490.475 41.0457 490.055 41.7463C486.692 46.0431 485.478 46.2299 484.123 46.8371C482.582 47.2574 481.648 47.5377 480.667 47.5844C479.826 47.6778 478.752 47.5377 477.725 47.2574C475.716 46.7904 473.755 46.0431 471.98 45.9964C471.186 46.0431 470.906 46.37 470.719 46.6036C470.532 46.7904 470.439 47.164 470.439 47.7245C470.112 50.2932 470.112 52.8152 470.065 55.4774C470.018 56.0379 470.018 56.5049 470.018 57.0654C469.972 57.906 470.159 58.3264 470.252 58.7C470.439 59.5407 470.672 61.1286 470.812 63.1369C471.046 65.0985 470.812 66.593 470.812 67.5271C470.766 68.3211 470.532 69.442 470.065 70.9366C469.458 72.6179 468.617 73.7855 466.983 74.9998C465.488 75.5603 463.34 75.9806 460.117 75.8405C452.364 74.9532 449.842 73.1784 448.394 71.964C447.46 71.03 446.946 70.6096 446.946 69.7222C447.18 68.7882 448.067 68.3678 451.29 68.5079C454.279 68.8349 456.614 69.3486 458.669 68.7882C460.724 68.181 461.191 67.2469 461.518 66.4529C461.845 65.6123 462.499 64.3045 462.592 62.5298C462.686 61.8292 462.873 60.5682 462.826 57.6725C462.686 54.7768 462.406 52.3949 462.266 50.3866C462.219 47.8179 461.799 47.2574 461.285 46.6036C460.724 45.9497 458.623 45.436 456.147 45.8563C448.815 47.0706 445.218 47.3975 443.771 47.0239C441.389 46.4168 441.669 45.2024 441.762 43.381C441.856 42.6337 442.043 41.793 442.369 40.7188C442.743 39.6446 443.163 38.8973 443.677 38.477C444.191 38.0567 445.359 37.8231 446.946 37.5896C449.515 37.0759 451.804 36.7956 454.419 36.3753C455.96 36.1418 458.015 35.9083 460.631 35.7214V35.7214ZM387.118 19.0013C388.006 19.3749 388.986 19.7952 389.313 20.6826C389.734 21.9903 389.22 23.3448 389.033 24.6992C388.893 25.0261 388.753 25.5399 388.613 25.8668C388.192 26.8009 387.258 29.6966 387.165 30.6774C386.838 32.639 386.418 34.2736 386.231 36.2819C385.857 38.4303 386.558 44.9222 385.063 45.9497C383.195 47.8179 381.093 47.8179 379.505 49.0322C379.085 49.8262 380.58 51.9279 381.093 53.0488C382.448 55.384 383.008 56.645 385.997 59.0269C388.332 61.0819 390.714 62.4831 393.423 64.2111C395.618 65.5189 396.926 66.7332 399.728 66.7799C400.429 67.0601 401.877 66.92 402.624 67.1068C402.904 67.1535 403.511 67.714 403.511 68.0876C403.465 68.8816 402.484 70.236 401.97 70.8432C400.289 72.6179 398.28 73.9256 395.992 75.0466C394.684 75.7471 391.555 76.3543 389.36 74.9998C383.942 71.7772 384.176 70.4695 382.167 66.0793C381.654 65.0985 381.14 64.1177 380.019 63.5106C379.739 63.2303 378.711 63.8375 378.338 63.9309C376.096 65.0518 374.882 65.3787 371.472 66.2194C368.436 66.92 364.233 68.1343 360.964 68.975C356.667 69.9091 353.024 70.6096 348.68 71.4503C347.886 71.6371 346.112 72.1042 345.691 71.6371C344.804 71.1701 344.757 69.2085 345.738 68.3211C347.84 65.5655 349.988 63.1836 352.23 60.5215C352.557 60.1011 353.024 59.6341 353.304 59.1203C353.678 58.0929 354.238 57.0653 354.518 55.9444C354.939 54.1697 355.172 52.6284 355.312 50.7603C355.546 48.9388 355.499 47.1173 355.593 45.2958C355.686 43.3343 355.639 41.3727 355.686 39.4111C355.686 38.6638 355.733 37.9633 355.686 37.216C355.639 36.5621 355.546 35.8616 355.499 35.2077C355.453 33.9934 355.406 32.7791 355.312 31.5648C355.266 30.6774 355.266 29.8367 355.126 28.9493C355.079 28.4823 354.892 28.0619 354.705 27.5949C354.378 26.8476 353.958 26.147 353.724 25.3531C353.444 24.5591 353.304 23.7651 353.304 22.9244C353.304 22.0371 353.351 20.8694 353.771 20.309C354.565 19.6084 355.312 19.6084 357.087 19.5617C358.301 19.6084 359.329 19.6084 360.543 19.6084C361.758 19.7018 363.019 19.8886 364.186 19.8419C366.008 19.7485 367.876 19.6551 369.697 19.515C371.659 19.3282 373.434 19.0947 375.395 19.048C378.011 18.9078 381.093 18.7677 383.709 18.8144C384.736 18.7677 386.137 18.5809 387.118 19.0013V19.0013ZM333.828 17.3666C334.249 17.7402 334.015 19.048 334.436 19.3749C335.23 20.0288 336.164 20.0755 337.191 20.0755C339.246 20.0288 341.488 19.8419 343.496 19.4683C343.776 19.4216 344.057 19.2815 344.337 19.4216C346.345 19.4216 348.914 18.8612 351.109 21.57C351.483 22.364 351.436 23.158 351.296 23.5783C351.062 24.3256 350.502 24.9794 350.035 25.5866C349.474 26.2871 348.727 27.0811 348.027 27.5015C345.972 27.9218 344.57 27.6883 342.796 27.8284C341.395 28.0619 339.947 28.3421 338.452 28.4823C336.537 28.7625 334.529 28.9026 332.708 29.4631C331.54 29.8367 330.512 30.4905 329.578 31.3312C329.158 31.7516 328.784 32.0785 328.644 32.5922C328.691 33.106 329.625 33.1994 329.812 33.2461C332.054 33.1527 332.988 32.9192 334.716 32.5922C335.136 32.5455 335.463 32.4521 335.883 32.3587C336.771 32.1719 337.705 31.9851 338.639 31.845C339.9 31.7983 341.068 31.9851 342.282 32.0318C343.59 32.1719 344.804 32.2186 346.065 32.2186C346.532 32.2186 348.26 31.9851 348.587 32.1719C349.474 32.6389 349.381 32.9659 349.708 33.8533C349.988 34.6472 349.848 35.7214 349.474 36.4687C349.194 37.1226 348.4 37.5896 347.793 37.9632C347.186 38.3836 346.205 38.5704 345.504 38.7572C344.337 39.0375 343.263 39.1309 342.048 39.3644C340.974 39.5979 339.807 39.7847 338.826 40.2985C338.125 40.7188 337.565 41.2326 337.752 42.3535C338.125 43.2876 338.686 43.4744 339.62 43.6612C340.554 43.7546 341.581 43.6145 342.329 43.4277C343.543 43.1007 345.084 42.4936 346.298 42.4469C347.606 42.2601 348.307 42.587 348.774 43.1941C349.241 43.6612 349.194 45.1557 349.147 45.8096C349.101 46.9772 348.68 47.7245 348.12 48.6119C347.793 49.0789 347.186 49.5926 346.672 49.8729C345.271 50.5734 344.057 50.7603 342.562 51.0872C340.507 51.6009 339.573 51.7411 338.125 52.5817C337.611 52.862 337.331 53.6559 336.958 54.1697C336.771 54.4966 336.631 54.6834 336.444 55.0104C336.304 55.2906 336.117 55.6175 336.024 55.8977C335.883 56.4582 335.79 56.7851 335.93 57.2989C336.491 58.0929 337.144 57.9994 337.705 58.0461C339.106 57.906 339.62 57.5791 340.46 57.0654C342.095 56.2247 342.936 55.3373 344.477 54.4032C344.991 54.1697 345.831 53.6559 346.812 53.7961C347.466 53.9362 347.793 55.3373 347.793 55.8043C347.886 56.645 347.606 57.1588 347.326 57.7659C346.812 58.4665 346.205 59.0269 345.691 59.8209C345.178 60.5682 344.664 61.3154 344.057 62.016C343.169 62.9501 341.955 63.6507 341.068 64.3512C340.274 65.0518 339.526 65.4721 338.732 66.2194C336.164 68.3211 336.117 68.648 334.949 69.6288C333.922 70.703 333.081 71.7305 332.007 72.758C330.699 73.8322 329.905 74.9998 327.99 75.2334C327.103 75.3268 326.309 74.3927 325.935 73.2251C325.562 71.3102 325.749 69.9558 326.262 68.0876C326.636 66.6865 327.43 65.3787 327.99 64.071C328.364 63.2303 329.859 60.3814 330.372 59.7275C330.746 58.7467 331.213 57.906 331.26 56.8318C331.26 56.1313 331.166 55.0104 330.652 54.5433C330.185 54.2164 329.672 54.3565 329.111 54.4499C327.383 54.7301 326.309 55.1972 324.674 54.4499C324.161 54.123 323.88 53.6559 323.6 53.0955C323.086 51.8345 323.273 50.5267 323.553 49.5927C323.834 48.5652 324.161 47.9113 324.814 47.2107C325.235 46.7904 325.749 46.4635 326.309 46.1832C326.869 45.9497 328.551 45.6228 329.298 45.3893C330.045 45.2958 330.699 45.2024 331.353 44.8288C332.054 44.3618 332.381 44.0348 332.381 43.1007C332.427 42.587 332.334 42.3068 331.68 42.2601C330.559 42.1199 329.532 42.1667 328.457 42.0732C327.757 42.0265 327.01 41.9331 326.402 41.6529C325.842 41.3727 325.328 40.9523 324.955 40.4386C324.628 40.0182 324.488 39.5512 324.347 39.0375C324.301 38.6171 324.301 38.01 324.394 37.5896C324.441 37.1693 324.534 36.7489 324.628 36.3753C324.628 36.0484 324.721 35.161 324.441 34.8808C324.207 34.6939 323.88 34.6939 323.6 34.6472C323.18 34.5538 322.759 34.4137 322.339 34.2736C321.592 34.0401 320.751 33.8533 320.097 33.4796C319.07 32.9192 318.323 32.4988 317.669 31.7049C317.202 31.1444 316.735 30.7241 316.594 29.2295C317.388 28.8559 318.603 28.1086 319.443 27.5015C321.919 25.8668 325.842 23.2047 328.224 20.2623C329.438 18.9546 330.092 17.6001 331.867 16.8996C332.941 16.5259 333.408 16.9463 333.828 17.3666V17.3666ZM278.951 16.3391C280.258 16.2924 281.379 17.2265 282.127 18.4408C282.734 19.7018 282.921 20.5892 282.687 22.2239C282.454 23.8118 282.36 24.8393 282.547 25.0261C282.967 25.5399 283.901 25.7734 285.91 25.5866C288.712 25.4465 291.281 25.4932 294.036 25.3531C294.783 25.3998 295.811 25.3531 296.558 25.3998C298.52 25.6333 301.042 25.5399 303.611 25.0728C304.451 24.9794 305.806 24.8393 306.646 24.6992C308.001 24.6058 310.103 24.5124 310.616 24.7459C311.083 25.3998 311.13 26.8009 310.103 28.8092C309.729 29.4164 309.542 29.5565 309.168 30.2103C308.982 30.6307 308.655 30.9576 308.468 31.3779C308.328 31.6582 308.048 32.1719 307.721 32.5922C307.394 33.0126 307.02 33.8066 305.946 35.161C304.498 36.5621 303.984 36.6555 303.237 36.9358C302.49 37.1693 301.602 37.216 300.995 37.1693C300.622 37.1693 300.061 37.0759 299.127 36.8423C298.24 36.7022 297.352 36.3286 296.512 36.0484C295.671 35.7681 294.83 35.3945 293.803 34.9742C292.915 34.4604 292.121 34.4604 291.841 34.367C290.627 34.1802 289.412 34.0401 288.198 33.9C287.264 33.6664 286.19 33.4796 285.209 33.2461C283.948 33.0126 282.5 32.5455 281.613 32.7324C280.632 33.106 281.426 34.9275 282.127 35.6747C282.454 36.2352 282.921 36.9825 283.715 37.9166C284.509 38.8506 285.536 39.9248 286.283 40.4386C287.217 41.1859 287.498 41.3727 287.871 41.793C288.338 42.1199 288.945 42.4469 289.226 42.7738C290.814 43.848 292.635 45.3425 293.849 46.6503C294.41 47.4909 294.784 48.425 294.877 49.5927C294.83 50.7603 294.41 52.5817 293.99 53.4224C293.289 55.2439 292.542 56.5516 291.608 58.4198C290.674 60.2413 289.459 61.7358 288.852 64.0243C288.665 64.5848 288.478 64.9117 287.965 65.4722C287.638 66.0326 287.311 66.5464 286.984 67.1068C286.564 67.9942 286.143 68.6947 285.583 69.5821C285.162 70.2827 284.228 71.2635 283.014 72.4778C282.08 73.2718 280.492 74.9998 278.67 74.9998C278.437 74.9064 277.97 74.7196 277.783 73.552C277.736 72.6179 277.783 72.1976 278.017 71.2635C278.203 70.6563 278.344 69.9558 278.577 69.4887C278.857 68.975 278.997 68.4612 279.278 67.9475C279.745 66.7799 280.632 65.7057 281.099 64.4913C281.193 64.3512 281.473 63.6507 282.033 62.8567C282.5 62.0627 283.201 60.8017 284.322 58.9335C285.443 57.1588 286.657 55.2439 287.965 53.1422C288.805 52.068 288.478 50.7136 288.478 50.48C288.478 49.8729 288.105 49.2657 287.965 48.7987C287.825 48.3783 287.264 47.7712 286.657 47.2574C286.096 46.7904 285.629 46.5569 285.443 46.4635C284.882 46.2766 284.322 46.1365 283.621 46.0898C283.014 46.0431 282.64 46.0898 282.173 46.1832C281.333 46.4635 280.632 46.7904 280.165 47.164C279.651 47.5844 279.044 48.425 278.11 49.8729C277.409 51.4608 276.709 52.9554 275.681 54.7768C274.887 56.645 273.953 58.3264 272.879 60.0077C272.692 60.3814 272.365 60.7083 272.225 61.0819C271.478 62.3429 270.45 63.4172 269.516 64.6315C268.209 65.8458 266.667 66.92 264.986 67.9475C261.203 70.4695 256.206 70.0959 255.412 70.0025C254.478 69.769 253.123 69.5354 251.021 67.8074C250.508 66.7799 250.695 65.9859 251.675 65.0518C251.956 64.7249 253.263 63.8842 255.692 62.5765C257.7 61.4556 258.588 60.9885 261.156 59.7742C262.324 59.0736 263.351 58.5599 264.239 57.8126C265.64 56.645 266.667 55.1038 267.555 53.5158C269.143 51.274 271.104 49.3591 272.552 47.0239C273.44 45.903 274.187 44.5953 274.56 43.6145C275.074 42.0732 275.681 40.6254 276.242 39.0842C276.756 37.1693 276.849 35.8148 276.849 35.2544C276.802 34.4604 276.709 33.8066 276.148 33.4329C275.962 33.4329 273.767 34.367 273.346 34.6005C272.879 34.8808 271.898 35.161 271.385 35.3478C269.236 35.7681 267.742 36.2819 266.2 36.7956C264.706 37.3094 264.099 37.4495 263.165 37.4495C262.511 37.3561 262.044 37.216 261.577 36.9825C261.11 36.7022 260.783 36.4687 260.082 35.3478C259.802 34.7874 259.755 34.1802 259.708 33.7598C259.708 32.1252 259.895 31.0977 260.409 29.9768C260.969 29.2295 261.25 29.1361 261.483 28.9493C261.67 28.7158 263.305 28.0152 264.659 27.735C265.967 27.4081 266.994 27.1745 268.022 27.0344C269.096 26.8943 270.591 26.474 272.038 26.0536C273.486 25.6333 274.514 25.1662 274.934 24.6525C275.028 24.419 275.354 22.364 275.868 20.2156C275.868 19.2348 277.176 16.6193 278.951 16.3391V16.3391ZM439.38 35.6747C439.614 35.9083 439.661 36.3286 439.707 36.7489C439.707 37.1693 439.38 37.9633 439.147 38.5237C438.446 40.9523 437.746 43.2876 436.952 45.7162C436.345 47.9113 435.504 50.2465 434.897 52.4883C434.476 54.0296 433.309 57.2989 431.441 62.343C429.479 67.2936 427.798 69.442 425.276 70.9833C422.1 72.1976 419.671 73.3652 415.701 71.4036C414.907 70.5162 414.44 69.7689 413.786 68.3211C413.319 66.7799 413.132 65.9392 413.132 65.8925C413.086 64.6782 413.273 63.5106 413.833 63.1836C414.393 62.8567 415.094 62.2495 418.41 62.2495C420.699 62.016 422.52 61.0819 424.809 58.6066C427.05 55.9912 428.125 53.5158 429.059 51.4608C429.853 49.219 430.133 47.7245 429.899 47.3041C429.899 46.6503 428.685 46.7437 427.144 46.8838C426.397 46.9772 425.743 47.164 425.416 47.2574C425.042 47.3508 423.921 47.491 422.1 48.1915C420.185 48.8454 419.111 49.1256 418.55 49.1723C417.243 49.2657 416.262 49.3591 415.281 48.8921C414.347 48.1915 413.6 47.3041 413.273 46.1365C412.946 44.9689 412.806 43.4277 413.273 41.793C413.786 40.2051 414.347 39.4578 414.814 39.1309C415.141 38.8039 415.514 38.5704 415.888 38.5704C416.075 38.5704 416.869 38.6638 418.317 38.8506C419.157 38.9908 420.091 38.8973 420.652 38.7572C421.539 38.4303 422.287 38.2902 423.174 37.9166C423.641 37.7297 424.715 37.216 426.63 36.7022C428.358 36.1885 429.806 36.0484 430.413 36.0017C431.114 35.955 432.608 35.8148 434.476 35.6747C436.345 35.5346 437.699 35.5813 438.119 35.5346C438.633 35.4412 439.147 35.4879 439.38 35.6747V35.6747ZM185.262 14.0039C185.355 14.0506 185.589 14.0506 187.036 15.0781C188.484 16.6193 189.138 17.1798 189.652 17.6935C190.259 18.1606 190.633 18.3474 190.726 18.3941C190.866 18.4408 192.034 19.1881 194.743 19.0013C195.07 19.048 196.237 19.048 198.105 19.048C199.974 19.0947 201.608 19.3282 203.616 19.3282C205.531 19.515 207.54 19.7485 210.575 19.982C213.331 20.2156 214.872 20.2623 215.386 20.309C215.9 20.4024 216.834 20.4958 217.067 20.8227C217.301 21.1497 217.721 21.5233 217.815 21.8035C217.861 22.0838 217.768 23.3448 217.021 24.419C215.946 25.6333 214.966 26.147 214.405 26.2871C213.891 26.4273 213.004 26.5207 212.303 26.6141C212.023 26.6608 210.155 26.2404 207.259 25.9135C204.364 25.6333 202.589 25.4932 201.888 25.2129C201.094 25.1662 198.619 24.886 194.182 24.7459C193.061 24.7926 191.847 24.8393 189.885 24.7926C188.111 24.7459 187.083 24.6525 186.242 24.6525L184.748 24.6992L181.292 25.0261C180.731 25.1662 180.077 25.2597 178.489 25.2597C176.902 25.2597 175.36 25.3064 173.866 25.3998C172.418 25.68 171.531 25.8668 171.204 25.9135C170.83 25.9135 170.596 26.0069 170.55 26.0069L169.522 26.147L167.467 26.474L165.973 26.6608C164.945 26.8943 164.011 27.0344 163.17 27.0344C162.283 27.0811 161.723 27.3146 161.256 27.5015C160.835 27.6883 160.555 28.6224 160.041 30.6774C159.481 32.6857 159.341 35.5813 158.92 39.3177C158.734 43.1007 158.687 45.903 158.5 47.7245C158.313 49.6861 157.94 50.807 157.799 51.8345C157.519 52.862 157.426 53.2356 157.426 53.3757L157.146 54.4032C157.146 54.7768 156.959 55.1505 156.819 55.6175C156.679 56.0846 156.445 56.8785 156.118 57.9527C155.791 59.0269 155.324 60.1478 154.904 61.3622C154.437 62.6232 154.016 64.0243 153.503 65.659C153.036 67.2936 152.148 68.2277 151.634 68.9283L151.214 69.442C149.766 70.6563 150.187 70.6096 148.272 71.3569L146.263 71.5437C146.217 71.5437 145.703 71.6838 144.909 71.4503C143.555 71.0767 145.096 71.6371 143.321 70.8899L142.854 70.5162C142.527 70.2827 142.62 70.236 142.2 69.8157C141.78 69.3953 141.406 68.5546 141.266 67.9475L140.986 66.593C141.079 64.6782 141.5 62.9968 141.686 62.81L143.321 62.1561C143.414 62.1094 143.555 61.9693 143.788 61.7825C144.022 61.549 144.722 60.9885 145.843 60.1478C146.964 59.2605 147.758 58.4665 148.272 57.7192C148.739 56.9719 148.692 57.3456 149.206 55.851C149.72 54.3565 150.373 52.862 150.514 52.7218L150.794 52.3949C150.934 52.2081 150.934 52.1147 151.354 51.0872L152.102 49.4058L152.989 40.7188L153.129 40.0649C153.316 39.2243 153.549 38.7105 153.643 38.477L154.063 37.0292C154.11 36.7022 154.156 36.3753 154.156 36.0017C154.297 32.9659 153.876 30.9109 152.895 29.7433L151.027 28.0619C150.887 27.9218 150.093 26.941 150.046 26.474L149.953 25.5399C149.906 25.4932 149.86 24.9794 149.86 24.6992V24.0453C149.86 23.9519 149.86 23.7651 150 23.3448C150.14 22.8777 150.327 22.8777 150.654 22.7843L151.821 22.6909H152.008C152.288 22.6909 152.569 22.6442 152.849 22.5975L154.904 22.2706L157.286 21.9436C157.332 21.9436 159.014 21.7568 159.948 21.5233L162.657 20.9161L164.945 20.4491L167.934 20.0288L170.41 19.6084C170.69 19.5617 171.484 19.4216 172.838 19.4683C174.146 19.4683 175.641 19.5617 176.575 19.2815C178.256 18.8144 178.396 18.4875 179.19 17.6935L181.479 15.2649C182.693 13.8638 183.954 14.0039 185.262 14.0039V14.0039ZM188.438 33.9C189.465 34.1802 189.885 34.6472 189.979 34.9275C190.072 35.2077 190.025 35.7681 190.025 36.0951C189.278 37.9165 188.764 39.6446 187.97 41.5128L186.709 49.8262C186.289 50.7603 186.242 51.2273 185.915 51.6009L185.168 52.9554C184.795 53.6092 184.514 54.123 184.328 55.1972C184.514 56.8318 185.775 56.5516 186.523 57.4857C187.223 58.2797 188.438 59.6808 188.438 64.071C188.484 64.7249 188.438 65.1919 188.111 65.7991C186.289 67.0601 185.448 66.8266 183.767 66.3128C182.693 65.7991 182.132 65.2386 175.827 67.4804C171.297 68.8816 167.888 69.5821 167.374 69.6288C164.945 70.1893 164.712 70.1893 161.769 70.1893C160.835 69.9091 160.228 69.9558 159.434 69.3019C159.154 68.8816 158.92 68.6947 158.64 67.5271C158.64 66.92 158.687 66.3595 159.341 65.2853L161.349 62.1561C161.349 62.1094 161.536 61.5957 161.816 61.0819C162.096 60.5215 162.376 60.0544 162.563 59.4006C162.563 58.7467 162.89 58.4198 162.937 58.3264C162.937 58.2797 162.797 57.8126 163.124 57.3923C163.264 56.7384 163.451 56.3181 163.731 55.1505C164.011 53.9829 164.198 52.3482 164.291 50.2932C164.525 48.2849 164.618 46.2299 164.572 44.2216C164.525 42.9139 164.525 41.6529 164.058 40.4386C163.637 38.8973 163.918 36.9825 164.899 36.5154C169.522 35.1143 176.855 34.6005 182.086 34.2269C183.067 34.1802 184.047 34.367 185.168 34.2736C185.495 34.2736 185.869 34.2269 186.242 34.2269C186.569 34.0868 186.709 34.0401 186.896 33.9934L188.438 33.9V33.9ZM248.032 16.8529C248.406 17.3199 249.153 17.5067 249.667 18.5342C250.181 19.3282 250.508 20.1689 250.741 21.0096C250.975 21.8969 251.255 22.7376 251.489 23.625C254.664 24.2789 255.225 24.2789 255.785 24.3256C257.233 24.6058 258.121 24.9794 258.821 26.0536C259.428 26.8476 259.568 28.7158 258.868 29.8834C258.588 30.4438 258.167 30.8642 257.653 31.1911C257.14 31.7049 256.626 32.0785 255.692 32.5922L253.59 33.7132L252.656 34.2736C252.236 34.4604 251.348 35.2544 250.928 35.6747C250.788 35.9083 250.601 36.1885 250.461 36.422C250.227 36.889 249.994 37.3094 249.901 37.9632C249.807 38.6171 249.62 39.7847 249.527 41.3727C249.48 42.7271 249.574 43.8013 249.854 45.1557C250.181 46.0898 250.368 46.4634 250.695 46.8371C251.582 46.9305 252.376 46.7437 253.17 46.6036C254.057 46.4634 254.945 46.3233 255.785 46.1832L256.953 46.0431C260.316 45.9964 260.829 46.2766 261.717 47.2574C261.95 48.0981 261.997 48.6586 261.67 49.4058C261.343 50.1998 260.549 50.9471 260.362 51.274L259.755 51.8812C259.148 52.3949 258.541 52.9087 257.98 53.4224C257.233 54.3098 256.766 54.6834 256.533 54.9637C256.206 55.1038 255.692 55.3373 254.805 55.7109C253.917 56.1313 253.076 56.4115 252.516 56.8785C251.956 57.3456 251.208 57.8126 250.321 58.4198C249.434 59.0269 248.873 59.4473 248.499 59.6808C248.126 59.9143 247.238 60.1011 245.977 60.755C244.67 61.4089 243.642 61.9693 242.895 62.3897C241.774 63.0435 240.84 63.6974 239.626 64.398C237.29 65.5189 234.441 66.8266 232.293 62.9034C232.013 62.2495 231.826 61.7358 231.733 60.9418C231.686 59.2138 231.733 58.1396 232.34 56.3181C232.76 55.5708 233.18 54.8235 233.554 54.0296C233.694 53.6092 234.021 53.4224 234.395 53.0021C234.862 52.4883 235.702 51.5542 236.356 51.2273C237.057 50.9004 237.991 50.6202 239.719 50.2932C241.307 49.9663 242.708 49.219 242.988 48.0047C243.082 46.697 243.128 45.3425 243.222 44.0348C243.409 43.1007 243.642 42.1199 243.829 41.1392C243.969 39.6913 244.763 37.4495 243.082 36.3286C241.774 36.0017 239.719 36.5154 238.318 36.9358C236.917 37.3561 235.796 37.5896 235.282 37.6363C234.255 37.7297 233.227 37.4495 232.527 36.8423C231.826 36.2352 231.686 35.5346 231.452 34.6939C231.219 33.7131 231.686 31.1911 231.966 30.6774L232.853 28.9493C234.161 27.6883 234.441 27.5482 235.983 27.0344C236.683 26.6608 237.617 26.4273 237.991 26.3339C238.411 26.2871 238.832 26.1937 239.299 26.147C240.279 26.0069 242.475 25.6333 242.755 24.4657C242.942 23.9052 243.222 23.3448 243.315 23.0178C243.595 21.8035 243.969 20.7293 244.296 19.5617C244.81 17.8804 246.211 16.1523 248.032 16.8529V16.8529ZM365.027 50.6201C364.233 50.807 363.299 51.0405 362.598 51.4141C361.664 51.8345 360.87 52.2548 360.356 53.0955C359.609 54.3098 359.469 55.7109 359.422 57.439V57.6258C359.422 60.3814 359.656 63.0902 362.832 61.8759C363.112 61.8292 363.953 61.3155 364.186 61.1286C366.428 60.0077 366.568 59.7275 367.736 56.5516C368.063 55.5708 368.39 54.7301 368.576 53.6092C368.763 53.0488 368.857 51.1339 368.576 50.5267C368.343 50.2465 367.969 50.1531 367.596 50.1064C367.222 50.1064 365.354 50.5267 365.027 50.6201V50.6201ZM174.239 55.5241C170.69 56.5516 170.27 57.3456 170.27 59.3072V59.7275C170.27 60.2412 170.316 61.549 170.83 61.5957C171.857 61.549 171.717 61.4089 172.558 60.9885C173.492 60.5215 174.239 60.1011 175.173 59.8209C176.061 59.4006 176.855 59.1203 177.415 58.7467C177.976 58.4198 178.676 58.0461 179.377 56.5516C179.47 55.5708 179.657 54.8235 178.77 54.6367C178.303 54.59 177.322 54.9637 174.239 55.5241V55.5241ZM373.48 54.4499C373.107 54.917 373.013 55.4774 372.686 55.9444C372.36 56.5049 371.986 57.0654 371.659 57.6258C371.379 58.1863 370.958 58.6533 370.678 59.2137C370.258 60.288 370.631 60.288 372.219 60.3814C372.686 60.3814 375.676 60.5682 376.47 59.961C376.796 59.5874 377.357 58.9335 377.45 58.3731C377.544 56.7851 377.264 56.0846 376.796 55.1038C376.47 54.2631 375.676 53.0488 374.788 52.7685C374.368 52.6284 373.761 53.9829 373.48 54.4499V54.4499ZM200.3 49.3124C199.833 49.4992 199.553 49.7795 199.366 50.1531C199.32 50.4333 199.18 50.9004 199.086 51.5542C198.853 53.1889 198.806 54.7301 199.133 56.8318C199.74 58.0462 200.768 57.7192 201.795 57.8126C202.355 57.7659 203.149 57.5791 204.27 57.2522C205.438 56.9252 206.465 56.4115 207.353 55.9444C208.194 55.4774 208.754 55.1038 208.754 54.8702C208.707 54.4966 208.38 53.8428 207.726 53.0955L206.512 51.6944C206.372 51.5542 206.185 51.3207 205.998 51.1339C205.718 50.9004 205.531 50.7136 205.204 50.48L203.71 49.6861C203.149 49.4525 202.402 49.3124 201.608 49.3124C201.094 49.2657 200.908 49.1723 200.3 49.3124V49.3124ZM177.135 47.2107C175.314 47.2107 174.706 47.4442 174.099 47.5844C172.558 48.0514 171.811 48.3316 171.39 48.8454C170.97 49.7795 171.577 50.2465 171.998 50.7136C173.305 51.4608 173.866 51.3207 175.594 51.3207C176.481 51.1806 176.855 51.1339 177.649 50.9471C178.676 50.7603 179.237 50.5267 179.61 50.3866C179.984 50.1998 180.358 50.0597 181.152 49.4525C181.619 48.8921 181.712 48.752 181.619 48.3783C181.525 48.0047 181.058 47.6311 179.891 47.3041C178.957 47.164 178.116 47.164 177.135 47.2107ZM375.302 38.2902C372.546 38.5704 369.978 38.8039 367.222 38.8973C365.494 39.0842 363.439 39.4111 362.318 40.0183C361.477 40.4386 361.244 40.9523 360.73 41.6996C360.31 42.5403 360.357 43.5211 360.73 44.3618C360.917 44.6887 360.964 45.109 361.758 45.6228C362.692 45.7162 363.439 45.436 364.326 45.2491C365.634 44.9689 366.335 44.6887 367.736 44.5486C368.53 44.4552 369.697 44.3618 370.538 44.2216C372.453 43.8947 374.134 43.8947 376.516 43.6612C377.497 43.5678 378.758 43.7079 379.645 43.2409C380.439 42.8672 380.346 42.2134 380.393 41.5595C380.393 41.0924 380.253 40.4386 380.112 40.0183C379.926 39.4578 379.459 38.5704 378.945 38.4303C377.777 38.0099 376.423 38.2902 375.302 38.2902V38.2902ZM179.283 39.1309L174.239 40.1584C172.605 40.6254 172.371 40.6721 171.951 41.0924C171.904 41.6529 171.951 41.9331 171.951 42.1199C171.951 42.3068 172.091 42.5403 172.184 42.8672C172.465 43.381 172.745 43.7079 173.165 44.0348C173.679 44.3617 174.426 44.5019 175.033 44.4552C175.173 44.4552 176.294 44.315 178.957 43.8013C181.665 43.1007 182.319 42.0265 181.619 40.2985C181.105 39.5512 180.404 39.3177 179.283 39.1309ZM199.32 34.9275C198.946 35.628 198.853 36.2819 198.899 37.5896C198.946 39.1776 199.086 39.8781 199.226 40.2518C199.366 40.6254 199.413 40.9523 199.833 41.4194C200.487 41.8397 201.094 42.1199 202.075 42.1666C204.224 42.1199 205.111 41.2326 206.092 39.738C207.073 38.1968 207.633 37.1226 207.633 36.422C207.773 35.7214 207.446 35.2544 207.119 35.0676C205.485 34.1335 199.366 34.5538 199.32 34.9275V34.9275ZM182.366 27.1278C183.44 27.1278 184.701 27.1745 186.476 27.1278C188.671 27.3614 190.306 27.6883 190.819 28.202C191.193 29.1361 190.866 29.7433 190.493 30.4905C190.306 30.8175 189.745 31.1444 188.905 31.6582C187.83 32.0318 186.756 32.0785 184.701 31.8917C182.599 31.7516 181.852 31.8917 181.432 31.8917L178.209 32.4054L174.473 32.9659C174.006 33.0593 173.352 32.9659 172.792 33.0593C172.231 33.1527 171.904 33.1994 171.577 33.2461L169.616 33.5263C169.522 33.573 168.775 33.8533 166.767 34.1335C165.692 34.2736 164.245 34.1802 163.591 33.0126C163.544 33.0126 163.17 32.7324 163.03 32.0318C162.937 31.3312 162.984 31.3779 162.937 30.8642C162.984 30.3504 163.124 30.2103 163.451 29.6966C164.011 29.0894 164.431 28.9493 165.412 28.7158L166.066 28.6224C166.113 28.6691 166.206 28.6691 166.346 28.6691C166.44 28.7158 167.14 28.6224 168.355 28.3888L169.756 28.202L171.39 28.0152C171.531 27.9685 172.605 27.8284 175.033 27.5949L180.124 27.1278C180.544 27.2212 181.292 27.1278 182.366 27.1278V27.1278ZM370.164 25.9135C368.109 26.1003 366.428 26.2405 364.326 26.474C363.486 26.5674 362.552 26.6608 361.758 26.8943C360.123 27.3614 359.796 27.8284 360.263 31.1444C360.216 31.4713 360.216 32.2186 361.01 32.1252C362.598 32.1252 364.186 31.7516 365.774 31.5648C366.708 31.4713 367.549 31.5647 368.436 31.518C370.118 31.4246 371.799 31.1911 373.434 31.0977C373.761 31.0977 374.041 31.051 374.368 31.051C375.022 31.051 375.722 30.9109 376.376 30.8642C377.357 30.7708 378.851 30.9576 379.692 30.4905C380.206 30.2103 380.533 29.463 380.626 28.9026C380.766 28.1553 380.673 27.6883 380.393 26.8476C380.346 26.5207 379.505 26.0069 379.178 25.9602C376.563 25.68 374.368 25.8668 371.846 25.7734C371.332 25.7734 370.725 25.8668 370.164 25.9135V25.9135ZM435.504 18.8144C436.391 18.9078 437.652 18.9546 439.147 19.3282C440.688 19.7485 441.809 20.2623 442.089 20.8227C442.089 21.6167 441.856 22.1772 440.688 23.158C439.567 24.0453 437.839 25.3064 436.018 26.2871C434.196 27.4548 431.114 28.7158 426.49 29.7433C421.96 30.9109 418.69 31.051 416.916 30.6307C414.253 30.1636 412.899 29.1828 412.992 26.5207C412.992 24.419 413.133 23.2514 413.179 22.831C413.273 22.1772 413.6 21.1964 413.74 20.9161C414.487 19.048 416.355 19.1881 418.223 19.3282C419.578 19.4683 421.072 19.2815 422.427 19.1414C423.781 18.9546 426.35 18.7677 429.946 18.721C433.682 18.6276 435.41 18.8144 435.504 18.8144ZM472.4 18.9079C480.06 19.048 484.357 19.3749 486.038 20.0288C487.719 20.6826 488.513 20.9161 489.307 22.5975C489.868 23.5316 489.588 25.0728 489.494 25.3064C488.934 26.6608 488.187 27.3614 486.739 27.7817C485.431 28.4356 483.703 28.202 482.629 28.2954C480.62 28.2954 478.706 28.0619 476.744 27.735C475.857 27.6883 474.736 27.6416 473.334 27.6883C470.766 27.7817 467.45 28.1086 461.939 28.6224C456.895 29.0894 453.579 29.5097 451.991 29.79C450.403 30.0702 449.235 30.0235 448.675 30.0235C447.227 30.0702 446.012 29.9301 444.985 28.7625C444.705 27.8751 444.658 26.3339 445.078 25.68C445.405 24.886 445.779 24.2789 446.199 23.5316C446.76 22.5508 446.947 22.4107 447.087 22.1305C447.367 21.8035 447.6 21.5233 447.881 21.2898C447.974 21.2431 448.161 20.9161 448.908 20.6359C449.702 20.5425 451.337 20.2156 454.373 19.9354C456.381 19.7952 458.202 19.7018 460.164 19.5617C464.974 19.2815 469.271 19.048 472.4 18.9079V18.9079ZM486.785 101.108V102.462C485.244 102.369 484.544 103.069 484.637 104.61V109.701C481.928 110.962 479.219 111.616 476.604 111.71C469.131 111.523 465.301 107.786 465.068 100.454C465.535 93.6816 469.271 90.0387 476.277 89.5716C477.631 89.5716 479.313 89.8518 481.321 90.3656C482.208 90.6458 482.769 90.7859 483.002 90.7859C483.469 90.7859 483.75 90.6458 483.843 90.3656H484.684V96.5306H483.469C482.489 92.9343 480.387 91.1129 477.118 91.0195C472.447 91.3931 469.972 94.5223 469.645 100.407C469.972 106.479 472.447 109.748 477.118 110.215C478.472 110.215 479.593 109.935 480.48 109.421V104.61C480.807 103.163 479.499 102.462 476.604 102.462V101.108H486.785V101.108ZM443.584 94.3822V107.273C443.397 109.328 444.424 110.262 446.573 110.075V111.429H439.147V110.075H439.38C440.968 110.075 441.762 109.374 441.669 107.926V92.0937C441.015 91.6266 440.221 91.4398 439.287 91.4398V90.0854H445.545L458.156 104.704V94.3822C458.389 92.1404 457.455 91.1596 455.26 91.4398H454.886V90.0854H462.826V91.4398H462.452C460.678 91.3464 459.837 91.9068 459.93 93.1679V111.429H458.249L443.584 94.3822V94.3822ZM427.985 101.621L425.089 93.5882L422.427 101.621H427.985V101.621ZM428.592 103.49H421.866L420.652 107.506C420.232 108.58 420.232 109.234 420.512 109.514C420.839 109.888 421.679 110.075 423.034 110.075H423.407V111.429H415.234V110.075H415.701C417.056 110.168 418.083 109.094 418.69 106.852L423.968 90.5057L423.594 89.5716H428.171L434.29 106.992C434.943 109.047 435.971 110.075 437.419 110.075V111.429H427.424V110.075H428.498C429.386 110.075 429.946 109.841 430.18 109.421C430.413 108.954 430.366 108.347 429.946 107.553L428.592 103.49ZM405.66 91.9536V99.5664H410.003C411.918 99.7532 412.806 98.9592 412.619 97.1844H413.833V104.003H412.619C412.712 102.322 411.965 101.481 410.47 101.575H405.66V107.086C405.52 109.234 406.174 110.215 407.715 110.028H408.322V111.383H399.168V110.028H399.635C400.943 110.122 401.503 109.421 401.456 108.02V94.1954C401.503 92.1404 400.896 91.1596 399.542 91.253H399.168V90.0387H414.674V94.8959H413.6C413.6 92.7475 412.946 91.7667 411.685 91.9536H405.66V91.9536ZM396.693 101.108V102.462C395.151 102.369 394.451 103.069 394.544 104.61V109.701C391.835 110.962 389.126 111.616 386.511 111.71C379.038 111.523 375.209 107.786 374.975 100.454C375.442 93.6816 379.178 90.0387 386.184 89.5716C387.538 89.5716 389.22 89.8518 391.228 90.3656C392.116 90.6458 392.676 90.7859 392.909 90.7859C393.377 90.7859 393.657 90.6458 393.75 90.3656H394.591V96.5306H393.377C392.396 92.9343 390.294 91.1129 387.025 91.0195C382.354 91.3931 379.879 94.5223 379.552 100.407C379.879 106.479 382.354 109.748 387.025 110.215C388.379 110.215 389.5 109.935 390.387 109.421V104.61C390.387 103.116 389.407 102.462 386.511 102.462V101.108H396.693V101.108ZM353.491 94.3822V107.273C353.304 109.328 354.332 110.262 356.48 110.075V111.429H349.054V110.075H349.288C350.876 110.075 351.669 109.374 351.576 107.926V92.0937C350.922 91.6266 350.128 91.4398 349.194 91.4398V90.0854H355.406L368.016 104.704V94.3822C368.25 92.1404 367.315 91.1596 365.12 91.4398H364.747V90.0854H372.686V91.4398H372.313C370.538 91.3464 369.697 91.9068 369.791 93.1679V111.429H368.109L353.491 94.3822V94.3822ZM337.938 101.621L335.043 93.5882L332.381 101.621H337.938V101.621ZM338.546 103.49H331.82L330.606 107.506C330.185 108.58 330.185 109.234 330.466 109.514C330.793 109.888 331.633 110.075 332.988 110.075H333.361V111.429H325.188V110.075H325.655C327.01 110.168 328.037 109.094 328.644 106.852L333.922 90.5057L333.548 89.5716H338.125L344.243 106.992C344.897 109.047 345.925 110.075 347.373 110.075V111.429H337.378V110.075H338.452C339.34 110.075 339.9 109.841 340.133 109.421C340.367 108.954 340.32 108.347 339.9 107.553L338.546 103.49ZM324.908 105.358L322.759 111.383H306.133V110.028H306.74C308.515 110.122 309.355 109.328 309.262 107.6V93.8684C309.262 92.1871 308.468 91.3464 306.88 91.4865H306.273V90.1321H316.735V91.4865H315.8C314.259 91.4865 313.512 92.2805 313.512 93.8684V107.926C313.419 109.094 313.932 109.655 315.1 109.514H319.07C320.284 109.514 321.639 108.393 323.18 106.152C323.413 105.778 323.6 105.545 323.787 105.358H324.908V105.358ZM280.819 91.9536V99.5664H285.162C287.077 99.7532 287.965 98.9592 287.825 97.1844H289.039V104.003H287.825C287.918 102.322 287.171 101.481 285.676 101.575H280.866V107.086C280.725 109.234 281.379 110.215 282.921 110.028H283.528V111.383H274.374V110.028H274.841C276.148 110.122 276.709 109.421 276.662 108.02V94.1954C276.709 92.1404 276.102 91.1596 274.747 91.253H274.374V90.0387H289.88V94.8959H288.805C288.805 92.7475 288.151 91.7667 286.89 91.9536H280.819V91.9536ZM259.382 110.448C263.398 110.262 265.5 107.319 265.733 101.621C265.406 94.8492 263.024 91.253 258.541 90.8793C254.431 91.1596 252.282 94.0085 252.049 99.473C252.282 106.339 254.711 110.028 259.382 110.448V110.448ZM259.241 89.4315C266.2 89.8986 269.89 93.4948 270.31 100.314C269.843 107.646 265.92 111.429 258.634 111.71C251.722 111.336 248.032 107.833 247.472 101.108C247.939 93.775 251.862 89.8518 259.241 89.4315V89.4315ZM223.98 107.506C223.886 109.281 224.68 110.168 226.362 110.075H226.829V111.429H216.74V110.075H217.348C218.982 110.168 219.729 109.328 219.636 107.506V93.9618C219.683 92.1871 218.936 91.2997 217.254 91.4398H216.787V90.0854H226.875V91.4398H226.268C224.587 91.3464 223.839 92.2338 223.98 94.1019V100.267C225.287 100.08 226.642 99.2394 228.09 97.6982C229.958 95.2696 230.892 93.5415 230.985 92.4673C230.985 91.7667 230.378 91.3931 229.164 91.3931H228.79V90.0387H237.104V91.3931C235.329 91.3931 234.208 91.7667 233.741 92.6074C233.32 92.9343 232.76 93.8217 231.966 95.1294C230.612 97.1844 229.491 98.5856 228.603 99.2861C229.304 99.7065 230.425 100.967 231.966 103.022L234.628 106.759C236.076 109.001 237.617 110.075 239.345 109.981V111.336H228.743V109.981C230.191 109.981 230.892 109.655 230.892 109.047C230.565 107.973 229.024 105.825 226.221 102.602C225.334 101.715 224.633 101.294 224.073 101.388V107.506H223.98ZM195.677 94.3822V107.273C195.537 109.328 196.517 110.262 198.666 110.075V111.429H191.193V110.075H191.427C193.015 110.075 193.809 109.374 193.715 107.926V92.0937C193.061 91.6266 192.267 91.4398 191.333 91.4398V90.0854H197.592L210.202 104.704V94.3822C210.435 92.1404 209.455 91.1596 207.306 91.4398H206.932V90.0854H214.872V91.4398H214.499C212.724 91.3464 211.883 91.9068 211.977 93.1679V111.429H210.295L195.677 94.3822ZM180.124 101.621L177.228 93.5882L174.566 101.621H180.124ZM180.731 103.49H174.006L172.792 107.506C172.371 108.58 172.371 109.234 172.651 109.514C172.978 109.888 173.819 110.075 175.173 110.075H175.547V111.429H167.374V110.075H167.841C169.195 110.168 170.223 109.094 170.83 106.852L176.108 90.5057L175.734 89.5716H180.311L186.429 106.992C187.083 109.047 188.111 110.075 189.558 110.075V111.429H179.564V110.075H180.638C181.525 110.075 182.086 109.841 182.319 109.421C182.553 108.954 182.459 108.347 182.086 107.553L180.731 103.49V103.49ZM154.016 98.679H156.398C158.874 98.679 160.181 97.4647 160.275 95.0827C160.181 92.2805 158.64 90.9261 155.558 90.9261C154.997 90.9261 154.483 90.9728 154.016 91.0662V98.679V98.679ZM154.016 106.712C153.923 108.954 154.857 109.981 156.772 109.795C159.668 109.795 161.115 108.207 161.115 105.077C160.929 101.761 159.341 100.08 156.305 99.9867C155.091 99.9867 154.343 100.033 154.016 100.127V106.712ZM149.813 94.3822C150.046 92.1404 149.159 91.1596 147.057 91.4398H146.357V90.0854C146.497 90.0854 146.917 90.0387 147.571 89.9452C148.692 89.8518 149.579 89.8051 150.233 89.8051C152.662 89.6183 154.343 89.5249 155.277 89.5249C159.527 89.4315 162.33 90.2255 163.684 91.9536C164.478 92.9343 164.899 93.9618 164.899 95.036C164.899 97.1844 163.591 98.5389 161.022 99.0526V99.1927C164.151 99.9867 165.786 101.902 165.973 104.937C165.646 109.047 162.984 111.196 158.033 111.383H146.123V110.028C148.785 110.122 150 109.187 149.86 107.226V94.3822H149.813Z" fill="#231916"/>
<path d="M108.525 14.4729C111.747 15.5004 113.849 18.4895 113.942 22.9264C114.036 27.0831 113.942 31.9871 113.942 36.6575V64.2131C113.896 73.2271 113.942 82.6147 113.896 91.8621C113.942 96.3458 113.942 101.296 113.896 105.5C113.615 110.03 111.56 112.552 107.964 113.533C106.703 113.907 105.489 113.953 103.948 114H98.9035C97.2221 113.953 95.494 114 93.6726 114V78.458C93.6259 72.1529 93.8127 66.3148 93.5791 61.0372C93.0654 55.853 91.6176 51.3227 89.2356 47.5396C84.7987 40.4406 77.1859 35.0229 67.0977 34.1355C56.4024 33.2014 48.2759 37.7317 42.8114 42.7291C42.4378 43.056 41.9708 43.7099 41.6438 43.5231V14.0993H100.491C103.34 14.0993 106.329 13.7723 108.525 14.4729ZM29.0803 14.0059C30.7617 14.0526 32.4898 14.0059 34.3112 14.0059V49.5479C34.3579 55.853 34.1711 61.6911 34.4046 66.9687C34.9184 72.1529 36.3662 76.6832 38.7482 80.4663C43.1851 87.5653 50.7512 92.983 60.8861 93.8704C71.5347 94.8045 79.7079 90.2742 85.1257 85.2768C85.4993 84.9499 85.9663 84.296 86.2933 84.4829V113.907H27.4457C24.6434 113.907 21.701 114.234 19.4592 113.533C16.2833 112.552 14.1349 109.563 14.0415 105.079C13.9481 100.923 14.0415 96.0188 14.0415 91.3484V63.7928C14.0882 54.7321 13.9948 45.3912 14.0415 36.1438C14.0415 31.6601 13.9948 26.7095 14.0415 22.5061C14.3217 18.0224 16.3767 15.5004 19.973 14.4729C21.234 14.0993 22.4483 14.0526 23.9896 14.0059H29.0803V14.0059ZM72.1418 53.8447C73.2627 53.8447 74.1968 54.7788 74.1968 55.8997V72.1529C74.1968 73.2738 73.2627 74.2079 72.1418 74.2079H55.8887C54.7678 74.2079 53.8804 73.2738 53.8804 72.1529V55.8997C53.8804 54.7788 54.8145 53.8447 55.8887 53.8447H72.1418V53.8447Z" fill="#00A0E8"/>
</svg>
