<svg width="128" height="128" viewBox="0 0 128 128" fill="none" xmlns="http://www.w3.org/2000/svg">
<path d="M99.6259 24.3688C102.201 25.1813 103.888 27.5738 103.965 31.1458C104.043 34.4728 103.965 38.3898 103.965 42.1178C103.965 49.6738 103.976 56.8623 103.976 64.1623C103.943 71.3838 103.987 78.8843 103.954 86.2733C103.976 89.8673 103.976 93.8178 103.965 97.1673C103.743 100.806 102.1 102.798 99.2264 103.61C98.2274 103.91 97.2509 103.955 96.0074 104C94.6759 104 93.3104 103.988 91.9789 103.988C90.6359 103.966 89.2594 104 87.8169 103.988V75.5568C87.7614 70.5048 87.9279 65.8313 87.7279 61.6138C87.3284 57.4518 86.1629 53.8468 84.2764 50.8088C80.7249 45.1338 74.6649 40.8048 66.5849 40.0928C58.0614 39.3468 51.5684 42.9638 47.2069 46.9478C46.9069 47.2253 46.5299 47.7153 46.2744 47.5928V24.0578C61.7349 24.0463 77.8504 24.0463 93.2549 24.0578C95.4859 24.0578 97.8389 23.8013 99.6259 24.3688ZM36.0114 24.0203C37.3414 24.0423 38.7264 24.0203 40.1664 24.0203V52.4483C40.2219 57.4998 40.0444 62.1733 40.2439 66.3903C40.6539 70.5513 41.8064 74.1678 43.7009 77.1938C47.2354 82.8688 53.2849 87.2078 61.3619 87.9198C69.8714 88.6653 76.3529 85.0498 80.7069 81.0658C81.0064 80.7878 81.3829 80.2873 81.6379 80.4208V103.953H66.0364C55.5574 103.952 44.9899 103.95 34.7374 103.942C32.5104 103.942 30.1504 104.198 28.3664 103.631C25.8069 102.818 24.1229 100.437 24.0344 96.8548C23.9569 93.5388 24.0344 89.6223 24.0344 85.8838V63.8533C24.0564 56.6208 24.0124 49.1218 24.0454 41.7333C24.0344 38.1398 24.0234 34.2008 24.0344 30.8408C24.2669 27.2133 25.8959 25.2108 28.7654 24.3983C29.7739 24.0983 30.7374 24.0648 31.9784 24.0203H36.0114ZM70.6724 55.8108C71.1073 55.8128 71.5238 55.9865 71.8312 56.2942C72.1385 56.6018 72.3119 57.0184 72.3134 57.4533V70.5463C72.3119 70.9812 72.1385 71.3978 71.8312 71.7055C71.5238 72.0131 71.1073 72.1868 70.6724 72.1888H57.6299C56.7314 72.1888 55.9994 71.4513 55.9994 70.5463V57.4533C55.9994 56.5483 56.7314 55.8108 57.6294 55.8108H70.6719H70.6724Z" fill="#00A0E8"/>
</svg>
