<svg width="128" height="128" viewBox="0 0 128 128" fill="none" xmlns="http://www.w3.org/2000/svg">
<path d="M76.306 23C76.2945 23 76.286 23.002 76.2745 23.002C76.0745 23.02 76.1295 23.1595 76.2745 23.2545C78.0675 24.396 79.776 25.768 81.3795 27.3385C82.894 28.821 84.3125 30.476 85.796 32.1265C85.9855 32.3345 85.872 32.549 86.0545 32.7615C86.1925 32.9185 86.627 33.0755 86.7645 33.2435C88.2145 35.018 89.6225 37.567 91.057 40.2485C91.522 41.111 91.297 41.4475 90.678 40.5205C89.7715 39.173 89.237 38.7655 88.7895 38.246C87.2525 36.518 87.832 37.9185 88.1195 38.414C92.678 46.211 95.1615 56.7795 92.9655 66.919C89.3375 83.661 73.2145 92.0305 56.686 87.964C41.98 84.349 36.1175 67.76 40.4185 56.815C44.9065 45.401 56.784 42.5515 65.076 45.027V67.426H47.296C50.394 80.791 65.0205 83.612 73.807 78.7425C79.9965 75.311 82.3795 68.811 80.7605 63.811C78.201 55.8905 74.21 55.72 79.5065 47.6645C84.9945 39.3235 83.7225 23.7325 60.7015 23.7325C41.788 23.7325 23.545 37.6225 21.6385 60.855C19.705 84.433 38.2515 105.5 62.613 105.5C89.783 105.5 107.273 86.6675 106.473 60.709C106.311 55.2975 105.019 49.857 102.798 44.7905C102.202 43.4255 101.618 42.1485 100.999 40.9365C100.759 40.4715 100.302 40.2265 100.05 39.7815C99.85 39.4275 99.87 38.8615 99.663 38.516C98.5259 36.6084 97.1983 34.8211 95.7005 33.1815C95.095 32.5115 93.1595 30.124 92.509 29.5C91.549 28.573 92.3555 30.1085 93.168 31.644C93.908 33.04 94.658 34.434 94.099 33.978C93.507 33.496 89.032 27.1505 88.413 26.7015C88.13 26.498 87.8475 26.584 87.5625 26.6705C87.2885 26.7545 87.01 26.8365 86.7295 26.657C86.1035 26.252 85.462 24.761 84.816 24.396C83.9831 23.9274 83.1315 23.4927 82.2635 23.093C80.5775 22.387 85.511 26.56 83.8405 26.8165C83.5555 26.8585 81.916 25.883 80.2215 24.9095C78.5755 23.96 76.878 23.011 76.328 23H76.306Z" fill="#C6000C"/>
</svg>
