<svg width="128" height="128" viewBox="0 0 128 128" fill="none" xmlns="http://www.w3.org/2000/svg">
<path d="M60.1001 106.501V106.451C58.0501 106.301 56.2001 105.951 54.4002 105.551C52.7502 105.101 51.0502 104.651 49.6502 104.151C48.7002 103.751 47.7502 103.401 46.8001 103.051C44.9002 102.151 43.1002 101.151 41.4002 100.151C38.9002 98.5505 36.6002 96.7505 34.6502 94.9005C32.3502 92.6005 30.5001 90.3505 28.7501 87.9505C28.3001 87.2005 27.8502 86.4505 27.3502 85.7505C26.2002 83.7505 25.2001 81.7005 24.4001 79.7505C23.6001 77.6005 22.9002 75.4005 22.4502 73.4005L21.8502 70.4005C21.6502 68.9005 21.5002 67.3005 21.4502 65.9505C21.4002 64.1005 21.5001 62.1505 21.5501 60.4505C21.6501 59.7505 21.7001 59.1505 21.7501 58.5005C21.8501 57.6505 22.0002 56.7505 22.2002 55.9005C22.4502 54.7005 22.7501 53.5505 23.0001 52.4005C23.5501 50.7005 24.1502 49.1005 24.7002 47.5505C25.0502 46.7505 25.4001 46.0005 25.7501 45.2505C26.6001 43.6005 27.5002 42.1005 28.4502 40.5505C29.2002 39.4005 30.0501 38.3505 30.8502 37.2505C31.4502 36.5505 32.0502 35.8505 32.6502 35.2005C33.6502 34.2005 34.6502 33.2005 35.7002 32.2005C36.7002 31.4005 37.6502 30.5505 38.7002 29.7505C40.3502 28.6005 42.0001 27.5505 43.8501 26.5005C45.9501 25.4505 48.1002 24.5005 50.4002 23.7005C51.3502 23.4005 52.3001 23.1005 53.2502 22.8505C54.6002 22.5505 55.9501 22.3005 57.3001 22.0505L60.9002 21.6005V33.4005C59.7001 33.5005 58.5501 33.7505 57.5001 33.9005C56.4501 34.2005 55.4002 34.5005 54.4002 34.7505C52.9501 35.2505 51.7001 35.7505 50.3001 36.4005C48.1001 37.5005 46.2501 38.8505 44.3501 40.3005C43.8501 40.7005 43.4002 41.1005 42.9502 41.5005C42.1002 42.4005 41.2502 43.3005 40.4502 44.2005C39.8502 44.9505 39.2502 45.7505 38.7002 46.5005C38.2502 47.1505 37.8001 47.9005 37.3501 48.6005C36.0001 51.0005 34.9502 53.5505 34.2002 56.3005C34.0002 57.1505 33.8002 58.0505 33.6502 58.9505C33.4002 60.8005 33.2501 62.7505 33.2501 64.7505C33.3001 65.5505 33.3502 66.3005 33.4002 67.1005C33.4502 67.8005 33.5502 68.5505 33.6502 69.2505C34.0002 70.9505 34.4501 72.7005 35.0501 74.6005C35.6001 76.0005 36.2001 77.4005 37.0501 79.0005C37.4501 79.7005 37.9001 80.4505 38.3501 81.2005C39.2001 82.3005 40.0501 83.4005 40.8501 84.5005C41.7001 85.3505 42.6002 86.2505 43.5002 87.1005C45.1502 88.5505 47.0501 89.9005 49.2502 91.1505C49.2502 77.4005 49.3001 63.7505 49.3001 50.0005C49.4002 49.8005 49.4502 49.5505 49.5002 49.3505C50.0501 48.3505 50.6502 47.8505 51.8001 47.5505C56.9002 47.5005 62.0502 47.5005 67.1502 47.5005C67.1502 38.8505 67.2001 30.2005 67.2001 21.5505C69.9501 21.8005 72.6502 22.3005 75.5502 23.0505C76.7002 23.4005 77.8501 23.8005 79.0001 24.1505C80.6001 24.7505 82.3002 25.6005 84.0502 26.4505C86.4002 27.7505 88.6002 29.2005 90.9002 31.0005C91.3502 31.4005 91.8002 31.8005 92.3002 32.2005C92.9002 32.8005 93.5502 33.4005 94.1502 34.0005C94.7002 34.6005 95.2502 35.1505 95.8002 35.8005C97.4002 37.7005 98.9502 39.8005 100.4 42.1005L102.2 45.4005C102.9 46.9505 103.65 48.7005 104.3 50.5505C105.5 54.4005 106.25 58.4005 106.5 62.6005V65.6005C106.45 66.5005 106.35 67.4505 106.3 68.3005C106.1 69.9505 105.85 71.7005 105.45 73.5505C104.85 75.9005 104.15 78.2505 103.2 80.6005C102.8 81.4005 102.45 82.2505 102.1 83.1005C101.45 84.2505 100.75 85.4505 100.1 86.6505C99.1002 88.0505 98.1002 89.4505 97.1502 90.8005C96.4502 91.6005 95.8002 92.3505 95.1502 93.1505C94.3002 94.0005 93.4002 94.8505 92.5002 95.7505C90.2502 97.6505 87.7501 99.5505 85.2001 101.101C84.4001 101.501 83.6502 101.901 82.9002 102.351C79.5502 103.951 75.8501 105.301 72.2501 106.001C70.8501 106.201 69.1002 106.601 67.9002 106.601V106.651H67.1001V94.9005C68.9501 94.7005 70.7001 94.3005 72.7001 93.8005C74.1501 93.3505 75.6502 92.7505 77.1502 92.1005L79.4002 90.9005C81.4501 89.6505 83.4002 88.1505 85.2501 86.5505C86.1002 85.6505 87.0002 84.8005 87.7001 83.9005C89.0002 82.1505 90.3502 80.2005 91.3502 78.3005C92.0002 77.0005 92.5002 75.6505 93.0502 74.4005C93.5002 72.7505 93.9502 71.1505 94.3002 69.6005C94.4002 68.9505 94.4501 68.3005 94.6002 67.7005C94.7502 65.3505 94.7502 63.1005 94.6502 60.9505C94.4002 58.7005 93.8502 56.4505 93.2502 54.4505C92.8502 53.4505 92.5002 52.5005 92.1502 51.5505C91.7502 50.8005 91.4002 50.0005 91.0002 49.2505C90.1002 47.7005 89.0502 46.2005 88.1502 45.0005C87.0002 43.7005 85.8501 42.4505 84.8501 41.4005C84.1501 40.8505 83.5001 40.3005 82.8501 39.7005C81.4501 38.7005 80.1502 37.8505 78.8002 37.0505C78.7502 50.7005 78.7501 64.3505 78.7501 78.0005C78.6001 79.0505 78.0501 79.7505 77.2001 80.3505C76.8001 80.4505 76.4501 80.6005 76.1001 80.7005C71.0501 80.7005 65.9501 80.7005 60.9002 80.7505V106.501H60.1001ZM59.5001 69.0005H69.0001V59.5005H59.5001V69.0005Z" fill="#C00415"/>
</svg>
