<svg width="128" height="128" viewBox="0 0 128 128" fill="none" xmlns="http://www.w3.org/2000/svg">
<path d="M60.842 24.5C76.3405 24.5 89.7455 33.4975 96.1585 46.5735H68.85L60.842 38.5335L35.4775 64L60.8425 89.466L72.8995 77.36L97.877 77.361C92.422 92.601 77.8995 103.5 60.842 103.5C39.114 103.5 21.5 85.815 21.5 64C21.5 42.185 39.114 24.5 60.842 24.5ZM106.5 48.2615L104.184 52.9285H99.804C97.7655 60.8035 96.136 65.8595 94.9145 68.096C92.744 72.0715 91.0075 74.987 86.142 74.987H67.27L69.019 70.903L82.8605 70.9035C87.639 70.9035 88.7805 69.0595 90.9175 64.6465L91.008 64.4585C92.014 62.375 93.1555 58.5315 94.4325 52.9285H89.2495C88.2495 56.9945 87.2145 60.0085 86.1425 61.9705C83.972 65.9465 81.5655 68.0955 77.3855 68.0955H64.9195L61.283 75.418H55.3775L60.1325 65.8435L61.042 64.012L68.8645 48.262H106.5V48.2615ZM83.9315 52.9285H72.4525L66.947 64.012H74.103C79.813 64.012 80.881 62.137 83.022 57.708L83.103 57.541C83.6505 56.407 83.9265 54.8695 83.9315 52.9285Z" fill="#E5332B"/>
</svg>
