<svg width="477" height="128" viewBox="0 0 477 128" fill="none" xmlns="http://www.w3.org/2000/svg">
<path d="M169.86 104.154V89.6544C169.86 89.4387 170.035 89.2643 170.25 89.2643H175.821C177.001 89.2643 177.881 89.3143 178.461 89.4151C179.041 89.5159 179.56 89.7263 180.017 90.0458C180.475 90.3653 180.857 90.7909 181.162 91.3226C181.467 91.8538 181.62 92.4499 181.62 93.11C181.62 93.8258 181.431 94.4819 181.055 95.0798C180.688 95.669 180.156 96.1368 179.524 96.4245C180.433 96.6954 181.131 97.1574 181.62 97.8104C182.108 98.4635 182.352 99.2314 182.352 100.114C182.352 100.809 182.194 101.484 181.879 102.141C181.564 102.798 181.133 103.323 180.587 103.715C180.041 104.108 179.369 104.349 178.568 104.439L178.421 104.453C177.85 104.501 176.689 104.531 174.936 104.544H170.251C170.2 104.544 170.149 104.534 170.101 104.514C170.054 104.494 170.011 104.466 169.975 104.429C169.938 104.393 169.91 104.35 169.89 104.303C169.87 104.255 169.86 104.204 169.86 104.153V104.154ZM173.046 91.8376V94.6945C173.046 94.7458 173.056 94.7965 173.076 94.8439C173.096 94.8913 173.124 94.9343 173.161 94.9706C173.197 95.0069 173.24 95.0356 173.287 95.0553C173.334 95.0749 173.385 95.085 173.437 95.085H173.437L175.303 95.0837C176.043 95.0785 176.517 95.0609 176.724 95.0315C177.18 94.9671 177.538 94.7795 177.799 94.4683C178.06 94.1571 178.19 93.7473 178.19 93.2393C178.19 92.7528 178.078 92.3574 177.852 92.0537C177.628 91.7495 177.294 91.5654 176.85 91.501L176.688 91.4852C176.335 91.4598 175.63 91.4471 174.575 91.4471H173.437C173.333 91.4471 173.234 91.4882 173.161 91.5614C173.088 91.6347 173.046 91.734 173.046 91.8376ZM173.046 98.3859V101.243C173.046 101.459 173.221 101.634 173.437 101.634H175.62C176.621 101.634 177.256 101.606 177.525 101.55C177.939 101.476 178.275 101.295 178.535 101.007C178.795 100.719 178.925 100.334 178.925 99.8516C178.925 99.4436 178.825 99.0969 178.624 98.8124C178.424 98.5275 178.135 98.3206 177.756 98.1904C177.377 98.0607 176.556 97.9954 175.291 97.9954H173.437C173.386 97.9954 173.335 98.0055 173.287 98.0252C173.24 98.0448 173.197 98.0736 173.161 98.1099C173.124 98.1462 173.096 98.1894 173.076 98.2368C173.056 98.2842 173.046 98.335 173.046 98.3864V98.3859ZM206.419 104.544H203.803C203.725 104.544 203.648 104.521 203.584 104.477C203.519 104.433 203.469 104.37 203.44 104.297L202.258 101.32C202.229 101.247 202.179 101.185 202.114 101.141C202.05 101.097 201.973 101.073 201.895 101.073H196.122C196.043 101.073 195.965 101.097 195.9 101.143C195.835 101.188 195.785 101.252 195.757 101.327L194.644 104.291C194.617 104.365 194.567 104.429 194.501 104.475C194.436 104.52 194.358 104.544 194.279 104.544H191.748C191.684 104.544 191.621 104.529 191.564 104.499C191.508 104.469 191.46 104.425 191.424 104.372C191.388 104.319 191.366 104.258 191.359 104.195C191.352 104.131 191.361 104.067 191.385 104.008L197.217 89.5093C197.246 89.4369 197.296 89.3749 197.361 89.3313C197.426 89.2876 197.502 89.2643 197.58 89.2643H200.424C200.582 89.2643 200.724 89.3599 200.785 89.5054L206.78 104.004C206.805 104.063 206.814 104.128 206.808 104.192C206.801 104.256 206.78 104.317 206.744 104.371C206.708 104.424 206.66 104.468 206.603 104.498C206.547 104.528 206.483 104.544 206.419 104.544V104.544ZM200.94 98.1957L199.333 93.8915C199.305 93.8167 199.255 93.7522 199.189 93.7068C199.123 93.6613 199.045 93.6371 198.965 93.6374C198.885 93.6377 198.808 93.6624 198.742 93.7083C198.677 93.7542 198.627 93.8191 198.6 93.8942L197.024 98.1983C197.002 98.2574 196.995 98.3208 197.003 98.3831C197.011 98.4455 197.035 98.505 197.071 98.5566C197.107 98.6081 197.155 98.6502 197.21 98.6793C197.266 98.7083 197.328 98.7235 197.391 98.7234H200.574C200.637 98.7235 200.7 98.7082 200.756 98.679C200.812 98.6497 200.86 98.6073 200.896 98.5555C200.932 98.5036 200.954 98.4437 200.962 98.3811C200.97 98.3184 200.963 98.2548 200.94 98.1957V98.1957ZM216.889 104.154V89.6544C216.889 89.4387 217.064 89.2643 217.279 89.2643H219.774C219.908 89.2643 220.032 89.3327 220.104 89.4457L226.447 99.4681V89.6548C226.447 89.4392 226.622 89.2647 226.837 89.2647H229.017C229.232 89.2647 229.407 89.4392 229.407 89.6548V104.154C229.407 104.257 229.366 104.356 229.293 104.429C229.219 104.503 229.12 104.544 229.017 104.544H226.424C226.359 104.544 226.294 104.527 226.237 104.496C226.179 104.465 226.131 104.419 226.095 104.364L219.849 94.5801V104.154C219.849 104.205 219.839 104.256 219.819 104.303C219.799 104.35 219.771 104.393 219.734 104.43C219.698 104.466 219.655 104.495 219.607 104.514C219.56 104.534 219.509 104.544 219.458 104.544H217.28C217.228 104.544 217.178 104.534 217.13 104.514C217.083 104.495 217.04 104.466 217.003 104.43C216.967 104.393 216.938 104.35 216.919 104.303C216.899 104.256 216.889 104.205 216.889 104.154V104.154ZM241.872 104.233V89.7333C241.872 89.5176 242.048 89.3432 242.263 89.3432H244.668C244.884 89.3432 245.059 89.5176 245.059 89.7333V95.1486C245.059 95.2268 245.082 95.3032 245.126 95.368C245.17 95.4328 245.232 95.4829 245.304 95.5119C245.377 95.5409 245.457 95.5474 245.533 95.5306C245.609 95.5138 245.679 95.4745 245.733 95.4177L251.38 89.4646C251.416 89.4261 251.46 89.3954 251.509 89.3745C251.558 89.3535 251.61 89.3427 251.664 89.3427H254.843C254.921 89.3427 254.996 89.3654 255.06 89.4081C255.124 89.4508 255.175 89.5116 255.204 89.5828C255.234 89.6539 255.242 89.7323 255.227 89.808C255.212 89.8837 255.176 89.9533 255.121 90.0081L248.279 96.9246C248.242 96.962 248.213 97.0064 248.194 97.0553C248.174 97.1042 248.165 97.1564 248.166 97.209C248.167 97.2615 248.179 97.3133 248.201 97.3611C248.223 97.409 248.254 97.4519 248.293 97.4874L255.359 103.944C255.418 103.997 255.458 104.066 255.476 104.143C255.494 104.22 255.489 104.3 255.46 104.373C255.432 104.447 255.382 104.51 255.317 104.554C255.252 104.599 255.175 104.623 255.096 104.623H252.123C252.031 104.623 251.941 104.59 251.87 104.53L246.051 99.5869C245.981 99.5266 245.89 99.4936 245.797 99.4938C245.704 99.4941 245.614 99.5275 245.544 99.5882L245.195 99.8884C245.152 99.9251 245.118 99.9706 245.094 100.022C245.071 100.073 245.059 100.128 245.059 100.185V104.232C245.059 104.283 245.049 104.334 245.029 104.381C245.009 104.429 244.981 104.472 244.944 104.508C244.908 104.544 244.865 104.573 244.818 104.593C244.77 104.612 244.719 104.623 244.668 104.623H242.263C242.212 104.623 242.161 104.612 242.114 104.593C242.066 104.573 242.023 104.544 241.987 104.508C241.951 104.472 241.922 104.429 241.902 104.381C241.883 104.334 241.873 104.283 241.873 104.232L241.872 104.233ZM280.083 96.7287C280.083 95.2235 280.291 93.9603 280.706 92.9386C281.01 92.1956 281.44 91.5104 281.976 90.9128C282.513 90.3149 283.1 89.8713 283.739 89.5825C284.588 89.1924 285.568 88.9978 286.678 88.9978C288.687 88.9978 290.295 89.6728 291.501 91.0237C292.707 92.3745 293.31 94.2522 293.31 96.6581C293.31 99.0434 292.712 100.91 291.515 102.257C290.318 103.604 288.718 104.277 286.715 104.277C284.687 104.277 283.075 103.607 281.878 102.267C280.682 100.926 280.083 99.0802 280.083 96.7283V96.7287ZM283.022 96.6283C283.022 98.183 283.37 99.3616 284.065 100.164C284.759 100.966 285.641 101.367 286.71 101.367C287.78 101.367 288.656 100.969 289.342 100.173C290.028 99.3769 290.371 98.183 290.371 96.591C290.371 95.0175 290.037 93.8437 289.369 93.0697C288.702 92.2956 287.816 91.9082 286.71 91.9082C285.605 91.9082 284.714 92.3 284.037 93.0837C283.361 93.8674 283.022 95.0486 283.022 96.6283ZM305.802 104.154V89.6544C305.802 89.4387 305.977 89.2643 306.192 89.2643H314.759C314.975 89.2643 315.15 89.4387 315.15 89.6544V91.458C315.15 91.5615 315.109 91.6608 315.036 91.734C314.962 91.8072 314.863 91.8485 314.76 91.8486H309.379C309.327 91.8486 309.277 91.8587 309.229 91.8783C309.182 91.898 309.139 91.9268 309.102 91.9631C309.066 91.9994 309.037 92.0425 309.018 92.09C308.998 92.1374 308.988 92.1882 308.988 92.2395V95.0749C308.988 95.2906 309.163 95.465 309.379 95.465H313.715C313.931 95.465 314.106 95.6403 314.106 95.856V97.6597C314.106 97.7632 314.065 97.8624 313.992 97.9356C313.918 98.0089 313.819 98.0501 313.716 98.0502H309.379C309.275 98.0502 309.176 98.0913 309.103 98.1646C309.029 98.2378 308.988 98.3371 308.988 98.4407V104.153C308.988 104.257 308.947 104.356 308.874 104.429C308.8 104.502 308.701 104.543 308.598 104.543H306.193C306.089 104.543 305.99 104.502 305.917 104.429C305.843 104.356 305.802 104.257 305.802 104.153V104.154ZM340.339 103.887V89.3883C340.339 89.1727 340.513 88.9982 340.729 88.9982H345C346.767 88.9982 347.919 89.0745 348.456 89.227C349.28 89.4567 349.97 89.9551 350.527 90.723C351.083 91.4909 351.361 92.4823 351.361 93.6986C351.361 94.6366 351.2 95.4256 350.88 96.0646C350.559 96.7037 350.152 97.206 349.658 97.5707C349.164 97.9354 348.662 98.1769 348.151 98.2948C347.504 98.4311 346.586 98.5038 345.397 98.513L343.634 98.5135C343.419 98.5139 343.244 98.6888 343.244 98.9044V103.887C343.244 103.938 343.234 103.989 343.214 104.037C343.195 104.084 343.166 104.127 343.129 104.163C343.093 104.199 343.05 104.228 343.003 104.248C342.955 104.267 342.904 104.277 342.853 104.277H340.729C340.626 104.277 340.526 104.236 340.453 104.163C340.38 104.09 340.339 103.991 340.339 103.887V103.887ZM343.278 92.2991V95.1556C343.278 95.3712 343.453 95.5461 343.668 95.5461H344.646C345.632 95.5461 346.29 95.4795 346.623 95.3454C346.942 95.2215 347.215 95.0014 347.404 94.7155C347.592 94.4297 347.687 94.0975 347.687 93.7184C347.687 93.252 347.554 92.8672 347.29 92.5643C347.031 92.2643 346.675 92.0633 346.285 91.9958C345.986 91.9375 345.386 91.9082 344.485 91.9082H343.668C343.617 91.9082 343.566 91.9183 343.519 91.938C343.471 91.9576 343.428 91.9864 343.392 92.0227C343.356 92.059 343.327 92.1021 343.307 92.1496C343.288 92.197 343.278 92.2478 343.278 92.2991ZM376.163 104.544H373.546C373.468 104.544 373.391 104.521 373.327 104.477C373.262 104.433 373.212 104.37 373.183 104.297L372.001 101.32C371.972 101.247 371.922 101.185 371.858 101.141C371.793 101.097 371.716 101.073 371.638 101.073H365.866C365.787 101.073 365.709 101.097 365.644 101.143C365.578 101.188 365.528 101.252 365.5 101.327L364.389 104.291C364.361 104.365 364.311 104.429 364.245 104.475C364.18 104.52 364.102 104.544 364.023 104.544H361.492C361.428 104.544 361.365 104.529 361.308 104.499C361.252 104.469 361.204 104.425 361.168 104.372C361.132 104.319 361.11 104.258 361.103 104.195C361.096 104.131 361.105 104.067 361.129 104.008L366.961 89.5093C366.99 89.4369 367.04 89.3749 367.105 89.3313C367.169 89.2876 367.245 89.2643 367.323 89.2643H370.168C370.325 89.2643 370.468 89.3599 370.528 89.5054L376.524 104.004C376.549 104.064 376.558 104.128 376.552 104.192C376.545 104.256 376.523 104.317 376.488 104.371C376.452 104.424 376.404 104.468 376.347 104.498C376.29 104.528 376.227 104.544 376.163 104.544V104.544ZM370.684 98.1957L369.076 93.8915C369.048 93.8167 368.998 93.7522 368.932 93.7068C368.867 93.6613 368.789 93.6371 368.709 93.6374C368.629 93.6377 368.551 93.6624 368.486 93.7083C368.42 93.7542 368.371 93.8191 368.343 93.8942L366.768 98.1983C366.746 98.2573 366.739 98.3207 366.747 98.383C366.755 98.4454 366.778 98.5048 366.814 98.5564C366.85 98.6079 366.898 98.65 366.954 98.6791C367.009 98.7082 367.071 98.7234 367.134 98.7234H370.318C370.381 98.7235 370.443 98.7082 370.499 98.679C370.555 98.6497 370.603 98.6073 370.639 98.5555C370.675 98.5036 370.698 98.4437 370.706 98.3811C370.714 98.3184 370.706 98.2548 370.684 98.1957V98.1957ZM386.632 104.154V89.6544C386.632 89.4387 386.807 89.2643 387.022 89.2643H389.517C389.651 89.2643 389.776 89.3327 389.847 89.4457L396.19 99.4681V89.6548C396.19 89.4392 396.366 89.2647 396.581 89.2647H398.76C398.976 89.2647 399.151 89.4392 399.151 89.6548V104.154C399.151 104.205 399.141 104.256 399.121 104.303C399.101 104.35 399.072 104.393 399.036 104.43C399 104.466 398.957 104.495 398.909 104.514C398.862 104.534 398.811 104.544 398.76 104.544H396.168C396.102 104.544 396.038 104.527 395.98 104.496C395.923 104.464 395.874 104.419 395.839 104.364L389.592 94.5801V104.154C389.592 104.257 389.551 104.356 389.478 104.429C389.404 104.503 389.305 104.544 389.202 104.544H387.023C386.919 104.544 386.82 104.503 386.747 104.429C386.674 104.356 386.632 104.257 386.632 104.154V104.154ZM416.894 89.2643H419.117C419.333 89.2643 419.508 89.4396 419.508 89.6548V98.7743C419.508 100.018 419.4 100.975 419.182 101.644C418.89 102.518 418.361 103.22 417.593 103.75C416.826 104.279 415.815 104.544 414.559 104.544C413.085 104.544 411.952 104.129 411.157 103.299C410.666 102.786 410.287 101.703 410.018 100.05C410.009 99.9976 410.011 99.9444 410.024 99.8931C410.037 99.8419 410.06 99.7937 410.092 99.7516C410.123 99.7095 410.163 99.6743 410.209 99.6481C410.255 99.6219 410.306 99.6052 410.358 99.5992L412.41 99.3625C412.512 99.3507 412.614 99.3796 412.695 99.4429C412.776 99.5063 412.829 99.5989 412.842 99.7009C412.938 100.457 413.049 100.937 413.174 101.142C413.5 101.682 413.995 101.951 414.661 101.951C415.333 101.951 415.808 101.758 416.086 101.373C416.364 100.986 416.504 100.185 416.504 98.9693V89.6553C416.504 89.4392 416.679 89.2643 416.894 89.2643V89.2643ZM432.191 104.154V89.6544C432.191 89.4387 432.366 89.2643 432.581 89.2643H434.986C435.202 89.2643 435.377 89.4387 435.377 89.6544V104.153C435.377 104.257 435.336 104.356 435.262 104.429C435.189 104.502 435.09 104.543 434.987 104.543H432.581C432.478 104.543 432.379 104.502 432.306 104.429C432.232 104.356 432.191 104.257 432.191 104.153V104.154ZM448.357 103.887V89.3883C448.357 89.1727 448.532 88.9982 448.747 88.9982H451.242C451.376 88.9982 451.5 89.0666 451.572 89.1797L457.916 99.2016V89.3883C457.916 89.1727 458.09 88.9982 458.306 88.9982H460.485C460.701 88.9982 460.875 89.1727 460.875 89.3883V103.887C460.875 103.991 460.834 104.09 460.761 104.163C460.688 104.236 460.588 104.277 460.485 104.277H457.893C457.827 104.277 457.763 104.261 457.705 104.23C457.647 104.198 457.599 104.153 457.563 104.098L451.317 94.3136V103.887C451.317 103.938 451.307 103.989 451.287 104.037C451.268 104.084 451.239 104.127 451.203 104.163C451.166 104.199 451.123 104.228 451.076 104.248C451.028 104.267 450.978 104.277 450.926 104.277H448.748C448.697 104.277 448.646 104.267 448.598 104.248C448.551 104.228 448.508 104.199 448.472 104.163C448.435 104.127 448.407 104.084 448.387 104.037C448.367 103.989 448.357 103.938 448.357 103.887V103.887Z" fill="black"/>
<path d="M63.9009 14C83.5582 14 100.561 25.389 108.695 41.9404L74.0574 41.9408L63.9009 31.7642L31.7291 64L63.9009 96.2358L79.1944 80.9112L110.875 80.9121C103.956 100.203 85.5367 114 63.9009 114C36.3414 114 14 91.6143 14 64C14 36.3857 36.3414 14 63.9009 14ZM121.812 44.078L118.875 49.9855H113.319C110.734 59.9544 108.667 66.3537 107.118 69.1843C104.364 74.217 102.162 77.9075 95.9908 77.9075H72.0539L74.2717 72.7381L91.8286 72.7386C97.9097 72.7386 99.3469 70.3883 102.075 64.7613L102.163 64.5803C103.438 61.943 104.886 57.0782 106.506 49.9855H99.9316C98.6636 55.1322 97.35 58.9472 95.9912 61.4311C93.2378 66.4637 90.1854 69.1847 84.8841 69.1847H69.0721L64.4602 78.4532H56.9695L61.5823 69.183L64.1543 64.0153L74.0763 44.078H121.812V44.078ZM78.6268 49.9851L71.6445 64.0153H80.7206C87.9803 64.0153 89.3237 61.6301 92.0526 55.9956L92.1359 55.8238C92.8301 54.3888 93.1808 52.4427 93.1874 49.9855H78.6268V49.9851Z" fill="#E5332B"/>
<path d="M177.165 39.5326V30.4996H188.91C189.149 30.1274 189.311 29.6396 189.475 28.8967C189.493 28.8138 189.512 28.7279 189.533 28.6219L189.59 28.3483C189.706 27.7961 189.78 27.498 189.885 27.214L189.932 27.086H195.622L196.163 30.3891L211.99 30.5009V39.5326H221.338V43.3564H211.989V48.8839C211.989 51.6996 209.847 53.1167 205.704 53.1167H203.118L201.442 48.6714L201.742 48.6889C203.503 48.7936 205.567 48.1279 205.567 47.2775V43.3564H193.5C194.123 43.9587 194.763 44.663 195.532 45.5725C195.826 45.921 196.895 47.2127 197.134 47.4958C197.722 48.1923 198.168 48.6836 198.577 49.075L198.736 49.2267L193.961 53.1758L193.836 53.0707C193.704 52.9589 190.83 49.3314 189.266 47.8969C188.854 47.5188 188.427 47.1577 187.986 46.8147L187.792 46.6639L191.87 43.3564H183.629C182.453 47.31 177.651 53.9144 173.995 56.18L173.874 56.2545L168.64 51.8644L168.892 51.7272C171.661 50.2274 175.966 45.7676 177.147 43.3564H168.79V39.5326H177.164H177.165ZM205.521 39.4695V34.7205H193.489C195.898 35.7273 198.027 36.8156 199.899 37.9916L200.159 38.1555L198.105 39.4695H205.521H205.521ZM190.915 34.7205H183.873V39.4695H193.682C192.068 38.4088 191.143 37.9368 188.939 37.015L188.665 36.9006L190.915 34.7205V34.7205ZM215.307 65.4747H222.073V70.7318H167.321V65.4747H172.938V53.4204H215.307V65.4747V65.4747ZM180.643 65.7158H186.13V57.9972H180.643V65.7158ZM192.215 65.8789H197.7V58.1598H192.214V65.8784L192.215 65.8789ZM203.449 65.8789H208.935V58.1598H203.449V65.8784V65.8789ZM208.935 65.8789H209.131L208.935 66.0739V65.8789ZM256.54 50.6591V45.4572H249.535L246.958 40.8335L247.112 40.7345C247.895 40.235 248.594 39.6142 249.183 38.8953C249.632 38.3505 250.02 37.772 250.541 36.9024C250.662 36.7003 251.082 35.9889 251.116 35.9311C251.353 35.5322 251.544 35.2179 251.742 34.9072C252.386 33.8925 253.017 32.6468 253.692 31.111C254.02 30.3611 254.336 29.6064 254.641 28.8471L254.858 28.3089L255.068 27.7895C255.233 27.3775 255.35 27.0908 255.462 26.8213L255.523 26.6727L262.148 28.0126L259.929 32.127H269.748V36.8454H257.887C257.567 37.5432 257.157 38.2103 256.457 39.2328C255.651 40.4114 255.462 40.6876 255.281 41.0014H268.376V45.4572H262.951V50.6591H269.371V55.2464H262.951V61.7404C265.1 61.0747 267.198 60.2569 269.23 59.2933L269.441 59.1925L270.615 63.5423L270.484 63.6168C269.849 63.9806 269.204 64.3316 268.501 64.6972C268.067 64.9234 267.615 65.153 267.089 65.416C266.645 65.6378 265.061 66.4202 265.011 66.4452C264.148 66.8734 263.458 67.2214 262.752 67.5874C260.886 68.5541 259.052 69.5825 257.253 70.6709L257.075 70.7783L254.126 65.1171L254.357 65.0518C255.855 64.6297 256.54 64.1077 256.54 63.4476V55.2469H248.969V50.6591H256.54V50.6591ZM336.983 49.9249V45.4572H329.978L327.433 40.8901L327.498 40.7915C327.892 40.1908 328.289 39.5917 328.688 38.9944C328.807 38.8178 329.659 37.5427 329.91 37.1667C330.534 36.2336 331.15 35.295 331.758 34.351C333.687 31.3455 335.012 28.98 335.905 26.8213L335.966 26.6727L342.631 28.0205L339.648 32.127H350.191V36.8454H337.723C336.975 38.5311 336.352 39.8346 335.72 41.0014H350.289V45.4572H343.395V49.9249H349.814V54.5123H343.395V61.7404C345.543 61.0747 347.641 60.2569 349.673 59.2933L349.885 59.1925L351.058 63.5423L350.927 63.6168C350.293 63.9806 349.647 64.3316 348.945 64.6972C348.511 64.9234 348.058 65.153 347.533 65.416C347.089 65.6378 345.505 66.4202 345.455 66.4452C344.591 66.8734 343.901 67.2214 343.196 67.5874C341.329 68.5541 339.495 69.5825 337.697 70.6709L337.519 70.7783L334.57 65.1171L334.801 65.0518C336.298 64.6297 336.983 64.1077 336.983 63.4476V54.5123H329.412V49.9249H336.983V49.9249ZM281.615 30.8292C282.121 29.6377 282.519 28.4026 282.801 27.139L282.84 26.9703L289.436 27.63L289.365 27.8583C289.064 28.8257 288.632 29.7693 288.03 30.8292H299.188V47.7378H288.72V50.7314H301.41V63.6317C301.41 66.7998 299.526 68.4202 295.867 68.4202L293.126 68.5004L292.075 63.6514L292.308 63.6426C294.329 63.5681 295.309 63.2065 295.309 62.6599V55.2298H288.72V70.7318H282.44V55.2298H276.942V69.0496H270.901V50.7318H282.44V47.7382H272.447V30.8296H281.615L281.615 30.8292ZM292.939 43.1404V40.5938H278.637V43.1404H292.939ZM278.637 37.2662H292.939V34.7196H278.637V37.2662ZM359.444 41.3284V45.3433H373.011V41.3284H359.444H359.444ZM373.011 45.3433H373.206L373.011 45.5383V45.3433ZM373.011 36.532V32.5171H359.444V36.532H373.011ZM374.706 59.3612C375.764 61.5164 379.746 64.7941 383.267 66.4987L383.501 66.6117L379.313 71.2727L379.178 71.2017C371.067 66.926 365.376 58.5679 363.302 49.4108H359.52V63.1513L366.485 59.2153V64.4636L366.389 64.5206C363.435 66.2576 359.724 68.3093 355.254 70.6757L355.08 70.7678L352.35 65.4936L352.591 65.4344C353.603 65.185 354.045 64.8401 354.045 64.3518V27.7216H378.855V49.4112H369.174C369.696 51.3722 370.473 53.1881 371.488 54.8015C373.792 53.718 376.04 52.2168 378.234 50.2975L378.351 50.1949L382.588 53.2784L382.413 53.4397C382.111 53.7189 381.06 54.7029 380.902 54.8493C378.341 57.228 376.653 58.5206 374.706 59.3617V59.3612ZM433.983 33.2513V28.4553H460.82V33.2513H433.984H433.983ZM453.182 45.8342V66.1721C453.182 69.2753 451.015 70.8892 446.667 70.8892H441.168V65.9639L441.375 65.9771C443.091 66.0875 444.175 66.0801 445.02 65.9017C446.029 65.6891 446.523 65.2473 446.523 64.4868V45.8342H430.311V40.9374H463.024V45.8342H453.182H453.182ZM424.748 25.9648L424.878 25.8421L429.809 30.2822L429.668 30.4277C428.744 31.3854 427.563 32.2922 426.028 33.2477C424.687 34.0832 423.119 34.9352 420.802 36.1112C420.347 36.3426 415.633 38.6999 414.057 39.5081L413.906 39.5848L410.605 34.9431L410.802 34.8388C417.086 31.5116 422.325 28.2383 424.748 25.9648V25.9648ZM423.599 47.4809V70.6985H417.928V52.2387C416.173 53.3183 414.175 54.4509 411.879 55.6817L411.689 55.7838L409.688 50.9256L409.846 50.8423C415.65 47.793 421.643 42.1003 425.261 36.7415L425.375 36.5727L430.329 40.2151L430.226 40.3698C428.927 42.3299 426.599 44.7599 423.599 47.4809H423.599Z" fill="black"/>
<path d="M167.514 77.6737H462.826V80.7988H167.514V77.6737Z" fill="#E5332B"/>
</svg>
