<svg width="128" height="128" viewBox="0 0 128 128" fill="none" xmlns="http://www.w3.org/2000/svg">
<path d="M26.694 105.684C24.323 105.571 22.2905 103.537 22.1775 101.163C21.2742 76.3609 21.2742 51.534 22.1775 26.7317C22.2905 24.3577 24.3225 22.3232 26.694 22.2102C51.4711 21.3059 76.2729 21.3059 101.05 22.2102C103.422 22.3232 105.454 24.3577 105.567 26.7317C106.47 51.534 106.47 76.3609 105.567 101.163C105.454 103.537 103.422 105.571 101.05 105.684C76.2729 106.588 51.4711 106.588 26.694 105.684Z" fill="#0F469B"/>
<path d="M63.2792 30.9133C74.0062 41.7078 84.7332 52.3893 95.4607 63.1838C73.7237 57.7583 52.2697 57.7583 31.0977 63.1838L63.2792 30.9133ZM79.3132 63.1273L76.2082 63.2403C60.6257 63.8053 50.5757 66.0663 57.5202 70.9263C65.8762 76.7478 51.7052 80.1388 48.9952 80.9298L63.2792 95.3413L95.4607 63.0708H79.3132V63.1273Z" fill="white"/>
</svg>
