<svg width="128" height="128" viewBox="0 0 128 128" fill="none" xmlns="http://www.w3.org/2000/svg">
<path d="M40.05 88.3965C40.0241 88.298 39.9744 88.2074 39.9052 88.1326C39.8361 88.0578 39.7497 88.0011 39.6535 87.9675C28.9175 84.948 21.5 75.157 21.5 64.005C21.5 52.8525 28.9175 43.061 39.6535 40.0415C39.8445 39.972 39.989 39.813 40.04 39.6165C43.074 28.893 52.865 21.4935 64.0085 21.5C75.152 21.507 84.9335 28.9185 87.9545 39.645C88.0205 39.8445 88.183 39.997 88.3865 40.051C99.1025 43.084 106.5 52.866 106.5 64.003C106.5 75.14 99.1025 84.9215 88.3865 87.955C88.2864 87.9814 88.1945 88.0323 88.119 88.1032C88.0436 88.1741 87.987 88.2627 87.9545 88.361C84.9315 99.0845 75.1515 106.494 64.01 106.5C52.8685 106.507 43.0795 99.11 40.0435 88.39L40.05 88.3965Z" fill="#648F34"/>
<path d="M41.5925 85.5469L41.612 85.5244C41.5258 85.6477 41.4873 85.7981 41.5037 85.9477C41.5202 86.0972 41.5904 86.2357 41.7014 86.3372C41.8124 86.4388 41.9566 86.4966 42.107 86.4997C42.2574 86.5029 42.4039 86.4512 42.519 86.3544L42.4935 86.3769C43.0573 85.9595 43.6334 85.559 44.221 85.1759L44.263 85.2144C56.244 77.3234 71.773 77.3234 83.754 85.2144L83.796 85.1759C84.3847 85.5602 84.9619 85.9617 85.527 86.3799C85.6501 86.464 85.7994 86.5009 85.9475 86.4838C86.0956 86.4668 86.2326 86.397 86.3334 86.2872C86.4342 86.1774 86.4921 86.035 86.4964 85.886C86.5008 85.737 86.4513 85.5914 86.357 85.4759L86.4505 85.5889C86.0179 84.9962 85.598 84.3944 85.191 83.7839L85.2265 83.7424C77.3365 71.7609 77.3365 56.2334 85.2265 44.2524L85.188 44.2104C85.5795 43.6119 85.9875 43.0254 86.4115 42.4504L86.3535 42.5214C86.4503 42.4063 86.502 42.2598 86.4988 42.1094C86.4957 41.959 86.4379 41.8148 86.3364 41.7038C86.2348 41.5928 86.0963 41.5226 85.9468 41.5061C85.7972 41.4897 85.6468 41.5281 85.5235 41.6144L85.5685 41.5789C84.9896 42.0093 84.3975 42.4217 83.793 42.8154L83.751 42.7769C77.893 46.6471 71.0245 48.7054 64.0035 48.6949C56.9827 48.7055 50.1143 46.6471 44.2565 42.7769L44.2145 42.8154C43.6129 42.4224 43.0226 42.0123 42.4445 41.5854L42.5125 41.6404C42.3978 41.5473 42.2536 41.4983 42.1059 41.5022C41.9582 41.506 41.8167 41.5625 41.707 41.6614C41.5972 41.7603 41.5264 41.8951 41.5072 42.0416C41.4881 42.1881 41.5219 42.3366 41.6025 42.4604C42.0308 43.0277 42.4367 43.6115 42.8195 44.2104L42.7805 44.2524C46.6514 50.1098 48.7101 56.9781 48.6995 63.9989C48.7081 71.0137 46.6508 77.8758 42.7845 83.7289L42.823 83.7714C42.4362 84.3789 42.0259 84.9712 41.593 85.5469H41.5925Z" fill="white"/>
</svg>
