<svg width="128" height="128" viewBox="0 0 128 128" fill="none" xmlns="http://www.w3.org/2000/svg">
<path d="M82.873 24C77.698 26.7045 66.8205 33.207 61.4605 42.491C47.2475 42.319 42.8815 42.7455 42.8815 42.7455L41.4 82.7815C46.8185 79.478 51.017 74.886 53.724 70.725C57.023 65.67 57.199 60.851 59.2465 55.4235C66.8115 35.358 84.1165 25.5925 95.6495 24H99.699C101.891 24 104.001 25.797 104.001 27.9975V100.003C104.001 102.199 101.89 104 99.699 104H44.111C49.4575 101.155 59.8425 94.761 65.0355 85.7675C79.253 85.94 83.6145 85.5175 83.6145 85.5175L85.101 45.4775C79.6825 48.7805 75.484 53.3725 72.768 57.5335C69.478 62.5885 69.3015 67.4035 67.25 72.8395C60.0235 92.0205 43.885 101.79 32.4015 104H27.9865C25.794 104 24 102.199 24 100.003V27.9975C24 25.797 25.794 24 27.986 24H82.873Z" fill="#0D579F"/>
</svg>
