<svg width="414" height="128" viewBox="0 0 414 128" fill="none" xmlns="http://www.w3.org/2000/svg">
<path d="M135.093 85.2743V104.233H144.136C146.231 104.233 147.885 103.861 149.043 103.117C150.394 102.215 151.083 100.808 151.083 98.8956C151.083 97.6214 150.752 96.5858 150.118 95.8422C149.457 95.0722 148.492 94.5677 147.196 94.3286C148.188 93.957 148.933 93.4524 149.457 92.7621C149.98 92.0189 150.256 91.1159 150.256 90.0539C150.256 88.62 149.732 87.4783 148.712 86.6286C147.61 85.726 146.066 85.2743 144.109 85.2743H135.093V85.2743ZM139.757 88.66H143.192C144.103 88.66 144.748 88.819 145.165 89.1377C145.544 89.4365 145.753 89.9346 145.753 90.6113C145.753 91.3481 145.544 91.8859 145.165 92.2243C144.767 92.543 144.103 92.7224 143.154 92.7224H139.757V88.66ZM139.757 95.4306H143.93C145.031 95.4306 145.836 95.6776 146.344 96.1719C146.832 96.6659 147.086 97.462 147.086 98.5874C147.086 99.6853 146.747 100.454 146.069 100.948C145.54 101.332 144.798 101.524 143.866 101.524H139.757V95.4306V95.4306ZM161.517 84.5972L153.748 103.555H157.305L159.155 98.8027H167.663L169.512 103.555H173.069L165.301 84.5972H161.517ZM160.411 96.1077L163.369 87.9829H163.474L166.407 96.1077H160.411ZM211.332 84.5972L203.411 92.8682V84.5976H199.719V103.556H203.411V97.7007L205.661 95.4438L212.289 103.556H217.041L207.705 92.7224L215.826 84.5972H211.332V84.5972ZM238.681 83.92C235.834 83.92 233.608 84.8464 232.004 86.7517C230.451 88.5512 229.7 90.8799 229.7 93.7644C229.7 96.6225 230.451 98.9511 232.004 100.751C233.608 102.603 235.834 103.555 238.681 103.555C241.502 103.555 243.728 102.629 245.359 100.777C246.912 99.004 247.688 96.6753 247.688 93.7644C247.688 90.8534 246.912 88.4984 245.359 86.7253C243.728 84.8464 241.502 83.92 238.681 83.92V83.92ZM238.361 87.3057C240.076 87.3057 241.397 87.8579 242.324 89.0097C243.228 90.1616 243.691 91.7458 243.691 93.7621C243.691 95.778 243.228 97.3381 242.324 98.4662C241.397 99.5942 240.076 100.17 238.361 100.17C236.647 100.17 235.302 99.5701 234.375 98.3941C233.472 97.2422 233.031 95.7059 233.031 93.7621C233.031 91.7938 233.472 90.2575 234.375 89.1056C235.325 87.9058 236.646 87.3057 238.361 87.3057V87.3057ZM253.685 84.5972V103.555H257.392V95.8422H265.797V92.5098H257.392V87.9296H266.343V84.5972H253.684H253.685ZM281.667 84.5972V87.9296H287.796V103.555H291.528V87.9296H296.99V84.5972H281.667ZM301.654 84.5972V103.555H305.652V84.5972H301.654ZM310.982 84.5972V103.555H325.639V100.223H314.725V95.8422H324.561V92.5098H314.725V87.9296H325.192V84.5972H310.982V84.5972ZM330.303 84.5972V103.555H343.627V100.223H334.048V84.5972H330.303V84.5972ZM348.958 84.5972V103.555H352.955V84.5972H348.958ZM358.285 84.5972V103.555H362.243V90.3723H362.356L371.067 103.555H374.941V84.5972H370.955V96.9174H370.842L362.243 84.5972H358.285ZM177.067 84.5972V103.555H181.025V90.3723H181.137L189.849 103.555H193.723V84.5972H189.737V96.9174H189.624L181.025 84.5972H177.067ZM389.249 84.5972C391.678 84.5972 393.579 85.1267 394.979 86.2117C396.326 87.2702 397.171 88.8315 397.514 90.9482H394.398C394.134 89.731 393.553 88.8314 392.708 88.2227C391.837 87.6139 390.675 87.3231 389.249 87.3231C387.48 87.3231 386.08 87.9051 385.051 89.1226C383.915 90.3927 383.361 92.1658 383.361 94.4944C383.361 96.7173 383.862 98.4371 384.865 99.6282C385.948 100.898 387.638 101.534 389.936 101.534C390.833 101.534 391.678 101.428 392.471 101.216C393.183 101.012 393.866 100.719 394.504 100.343V96.4529H391.512V93.8063H397.593V101.798C396.59 102.592 395.455 103.174 394.16 103.598C392.788 104.021 391.283 104.233 389.592 104.233C386.582 104.233 384.258 103.28 382.595 101.375C381.037 99.6018 380.271 97.2996 380.271 94.4944C380.271 91.6627 381.037 89.3341 382.595 87.5082C384.232 85.55 386.45 84.5972 389.249 84.5972V84.5972Z" fill="black"/>
<path d="M84.3737 79.101C85.2158 75.5884 85.9462 72.3885 86.7446 69.2072C87.799 65.0133 88.8349 60.807 90.0264 56.6449C90.557 54.8132 89.8206 54.2883 88.2295 54.2883C83.1387 54.2758 78.0472 54.3007 72.9621 54.2634C70.9341 54.2445 70.7226 55.8072 70.3668 57.1637C68.5885 63.8947 66.8728 70.6385 65.1257 77.3822C64.6574 79.1882 64.3021 81.0383 63.6657 82.782C62.8236 85.1132 63.7968 85.6008 65.8992 85.5947C75.0584 85.5321 84.2177 85.5634 93.3834 85.5634H108.869C108.283 86.9381 107.989 87.957 107.453 88.832C97.2517 105.557 82.4646 114.457 62.7797 113.982C43.207 113.507 28.7632 104.032 19.5417 86.8822C13.577 75.801 12.7658 63.9196 15.4985 51.7074C16.0412 49.2946 17.1828 48.4384 19.6976 48.5071C26.2299 48.6824 32.7626 48.6072 39.2953 48.5385C41.2791 48.5196 41.8346 49.1197 41.2791 51.1073C38.4716 61.1571 35.7514 71.2382 32.9998 81.3133C32.8623 81.8008 32.7626 82.3008 32.6127 82.7884C32.0137 84.688 32.4503 85.6321 34.6905 85.5819C39.526 85.4762 44.3615 85.5132 49.1966 85.5819C50.9187 85.6132 51.7738 84.9882 52.2353 83.2759C55.1054 72.6261 58.1316 62.0132 60.9515 51.3448C61.5195 49.1884 62.5365 48.5071 64.6578 48.52C76.3689 48.5948 88.0736 48.5698 99.7846 48.5574C100.436 48.5725 101.079 48.4082 101.644 48.0824C102.209 47.7567 102.673 47.282 102.986 46.7103C103.299 46.1381 103.45 45.4909 103.421 44.8391C103.393 44.1873 103.186 43.5559 102.823 43.0134C102.474 42.4696 101.401 42.1697 100.652 42.1573C97.2578 42.0761 93.8638 42.1384 90.4694 42.1448L24.8141 42.1697H19.2361C19.9847 40.6198 20.3465 39.7134 20.8268 38.8758C33.9919 15.9884 63.3659 7.35749 86.7759 19.4946C107.209 30.0821 117.741 52.6636 112.787 75.2447C111.895 79.2883 111.895 79.3007 107.827 79.3071C101.039 79.3132 94.2505 79.3072 87.4621 79.2947C86.5637 79.2947 85.6653 79.1882 84.3801 79.107" fill="#D61919"/>
<path d="M249.594 52.4585C251.32 54.6248 251.161 55.1603 249.594 57.024C248.027 58.8873 243.139 61.6125 242.123 63.9445C241.107 66.2762 243.122 66.9522 244.771 66.9522C246.419 66.9522 246.123 70.0259 245.447 72.3829C244.771 74.7406 245.527 77.0979 242.123 74.7406C240.913 73.9029 239.442 71.7095 237.855 70.052C234.976 67.0458 231.589 63.3886 232.462 62.8191C233.819 61.9362 236.616 65.4997 238.718 63.7025C240.821 61.9048 244.817 57.024 243.076 57.024C241.334 57.024 240.75 56.4753 238.718 57.5867C236.687 58.6974 234.398 58.6974 233.042 60.3961C231.686 62.0948 227.255 61.7647 226.421 60.3961L226.36 60.2956C225.562 58.9837 225.091 58.1184 228.408 57.024C231.808 55.9016 236.574 56.0126 238.718 54.6248C240.863 53.2369 247.868 50.2923 249.594 52.4585V52.4585ZM396.32 36.9128C398.068 36.9128 398.132 39.6647 399.682 40.9336C401.233 42.2026 400.884 44.8292 399.682 44.8292C398.481 44.8292 396.885 44.8292 395.425 44.0689C393.965 43.3087 390.201 44.0599 389.136 46.6963C388.069 49.3331 390.348 71.2503 388.575 72.2171C386.802 73.1839 387.516 75.0876 384.549 75.0876C381.584 75.0876 382.55 73.0264 380.014 73.0264C377.478 73.0264 372.752 69.0206 370.729 67.6641C368.706 66.3075 370.206 65.9869 372.752 65.9869C375.298 65.9869 378.613 67.664 380.014 66.999C381.416 66.3339 380.916 65.9869 381.94 65.9869C382.964 65.9869 383.178 59.2163 381.94 55.7929C380.702 52.3694 380.916 48.4142 380.916 46.6219C380.916 44.8292 378.108 44.8681 374.371 45.5112C370.634 46.1543 370.634 48.4142 368.061 48.4142C365.488 48.4142 366.077 46.1211 364.645 44.8292C363.212 43.5376 370.316 41.6214 372.752 40.9336C375.188 40.2459 382.682 39.0971 386.256 39.0971C389.83 39.0971 394.573 36.9128 396.321 36.9128H396.32ZM172.06 23.2243C172.844 20.4787 178.145 23.9543 177.125 25.5374C176.106 27.1202 176.312 37.0495 177.125 37.0495C177.939 37.0495 180.677 35.0796 182.946 35.0796C185.216 35.0796 187.04 40.8981 184.533 40.8981C182.025 40.8981 179.627 42.4205 177.125 42.4205C174.624 42.4205 176.312 45.049 176.312 46.4542C176.312 47.8595 183.958 44.8273 186.831 45.5255C189.704 46.2242 189.697 49.7508 188.134 49.0226C186.571 48.2938 180.709 51.7682 178.145 51.7682C175.582 51.7682 175.09 53.7735 176.312 56.5179C177.535 59.2627 185.488 64.565 188.134 66.763C190.78 68.9609 197.509 70.2714 199.258 71.7537C201.006 73.236 192.907 74.0891 188.134 73.259C183.361 72.4289 178.466 65.7652 176.312 62.8191C174.159 59.8734 172.364 59.9199 171.626 63.3535C170.887 66.7868 167.68 71.5717 165.053 73.2594C162.425 74.9468 153.587 75.7719 158.207 72.5079C162.828 69.2434 166.774 62.5004 168.634 58.3813C170.495 54.2622 169.498 55.476 169.498 54.6248C169.498 54.0477 166.024 54.6248 163.086 55.5557C161.89 55.9345 160.419 53.6697 159.637 53.0511C156.332 50.4385 163.384 49.9675 166.333 49.4127C169.282 48.8584 170.887 47.8712 171.625 46.7291C172.364 45.5875 172.132 43.8892 171.322 43.1097C170.511 42.3302 166.945 43.3325 165.053 44.2094C163.16 45.0856 161.953 47.7613 160.854 46.4542C159.755 45.1471 161.953 42.8714 163.086 39.7505C164.22 36.6291 163.086 35.0936 163.086 32.9689C163.086 30.8442 166.803 31.6505 168.634 32.9689C169.856 33.8481 169.856 35.4841 168.634 37.8773H172.06C173.583 37.8773 171.276 25.9698 172.06 23.2243V23.2243ZM320.006 26.8173C322.248 30.0851 323.551 30.189 321.778 33.1608C320.006 36.1321 318.125 38.778 318.125 40.2931C318.125 41.8083 319.13 43.9137 316.332 45.6694C313.534 47.4248 313.534 48.8032 311.661 49.1401C309.788 49.4766 309.114 48.9048 309.114 50.4551C309.114 52.005 306.65 53.3864 309.114 53.3864C311.578 53.3864 311.661 53.8914 313.534 52.9974C315.408 52.1032 321.661 47.4335 323.629 48.0955C325.597 48.7575 326.291 50.3626 323.629 51.025C320.968 51.6877 315.937 54.6248 317.031 54.6248C318.125 54.6248 318.576 56.7177 321.778 57.9247C324.981 59.1317 327.713 59.7556 331.229 60.9818C334.746 62.2085 340.454 64.3664 337.768 66.1138C335.083 67.8608 332.614 70.3492 329.193 68.8729C325.772 67.3967 320.904 60.9818 318.73 60.9818C316.556 60.9818 315.982 63.2228 313.534 67.5292C311.087 71.8352 309.16 74.3606 305.631 74.3606C302.102 74.3606 303.697 67.9753 302.9 64.4785C302.103 60.9818 302.724 46.8092 302.103 43.8254C301.48 40.8411 302.9 39.6711 302.9 36.1325C302.9 32.5931 304.455 31.1799 306.833 30.0851C309.212 28.9903 311.799 27.8917 314.144 26.8173C316.49 25.7429 317.764 23.5491 320.006 26.8173H320.006ZM292.029 23.3999C292.029 20.796 296.168 23.3999 297.868 25.1511C299.569 26.9023 298.233 28.962 296.168 30.3416C294.103 31.7208 295.525 32.9247 297.868 32.9247C300.212 32.9247 303.471 32.3299 301.49 35.6329C299.51 38.9358 296.131 38.9359 294.431 38.321C292.73 37.7066 291.924 36.7927 289.875 38.321C287.826 39.8498 286.718 43.1097 288.686 43.9198C290.655 44.7298 293.79 42.2962 295.525 42.2962C297.26 42.2962 297.868 44.7298 297.868 46.2797C297.868 47.8292 296.168 48.313 294.431 48.313C292.693 48.313 292.029 51.6877 293.544 51.6877C295.058 51.6877 295.016 50.6764 296.168 50.6764C297.319 50.6764 298.789 50.6764 298.789 52.3124C298.789 53.948 293.016 58.3764 292.029 59.1147C291.042 59.8534 291.09 62.8195 292.029 63.7025C292.968 64.5854 295.126 62.409 296.827 60.4584C298.527 58.5071 298.789 60.5441 298.789 62.2625C298.789 63.9808 292.846 70.0093 291.09 71.6479C289.334 73.2862 287.566 72.5067 286.718 70.8129C285.87 69.1191 287.566 62.8191 287.566 61.4392C287.566 60.0592 286.103 60.5441 282.754 61.4392C279.405 62.3342 278.187 59.0463 278.187 57.1577C278.187 55.269 281.943 56.572 285.006 55.6679C288.069 54.7637 287.566 52.5076 287.566 50.6764C287.566 48.8455 286.103 48.313 283.956 48.313C281.81 48.313 282.574 49.2553 281.943 50.6764C281.312 52.0975 276.021 53.5477 273.894 53.5477C271.767 53.5477 280.407 44.3424 283.956 39.2093C287.506 34.0762 292.029 26.0042 292.029 23.3999ZM152.01 26.0737C152.898 24.9086 154.549 25.7716 156.675 27.414C158.801 29.0564 159.173 31.0723 157.676 31.0723C156.179 31.0723 155.147 32.7718 155.96 34.0943C156.773 35.4169 160.154 33.9342 161.027 35.7043C161.9 37.4743 159.408 39.0888 158.523 39.8721C157.637 40.6553 155.96 39.0888 153.811 39.0888C151.662 39.0888 150.322 41.7516 148.83 42.5949C147.339 43.4379 148.192 46.4206 150.322 46.4206C152.452 46.4206 152.01 44.1245 154.83 44.1082C157.649 44.092 158.523 44.1244 158.523 46.421C158.523 48.7171 153.811 49.8546 152.965 50.6813C152.119 51.5084 153.811 53.6421 154.83 53.6421C155.849 53.6421 158.523 52.7365 158.523 54.6248C158.523 56.513 154.83 57.8035 153.811 58.5229C152.792 59.2427 152.788 64.5654 153.811 65.1953C154.834 65.8252 155.96 64.565 157.676 63.3433C159.392 62.122 161.101 59.3541 161.883 60.9429C162.665 62.5321 156.675 68.8174 154.83 70.9957C152.985 73.1737 150.924 72.3583 149.587 72.3583C148.25 72.3583 149.731 64.565 148.83 63.3437C147.93 62.122 147.379 63.3437 144.276 63.3437C141.174 63.3437 139.859 62.6016 138.794 60.9429C137.756 59.3281 140.998 59.3515 142.437 59.3538H142.549C143.922 59.3538 146.72 57.1335 148.192 56.4296C149.665 55.7253 148.776 51.7342 146.719 50.6817C144.663 49.6288 143.15 49.02 142.549 49.02C141.949 49.02 139.878 52.7365 137.167 54.6248C134.456 56.513 132.154 52.7365 134.509 52.7365C136.864 52.7365 143.217 41.7279 146.72 37.0317C150.222 32.3356 151.123 27.2391 152.011 26.0737H152.01ZM361.631 39.0971C364.135 40.2644 365.429 42.9802 364.135 42.9802C362.841 42.9802 361.631 43.1531 361.631 43.777V53.9945C361.631 58.2129 360.934 59.8919 361.631 61.7893C362.329 63.6862 363.511 66.0824 361.631 66.999C359.752 67.9156 357.642 67.8555 356.349 66.999C355.057 66.1425 355.954 55.5361 355.505 53.9945C355.057 52.4525 354.412 52.8626 353.085 55.3223C351.758 57.782 349.372 59.3137 347.342 59.3137C345.313 59.3137 343.343 59.1638 345.342 56.5791C347.342 53.9945 351.848 51.1039 353.085 48.1978C354.322 45.2918 354.287 46.8632 356.349 42.9802C358.412 39.0971 359.128 37.9302 361.631 39.0971V39.0971ZM306.833 57.098C304.798 57.7468 305.987 62.8195 305.987 65.1179C305.987 67.4171 309.384 67.4318 310.639 66.1138C311.894 64.7958 313.134 61.4811 314.718 60.3704C316.301 59.2597 314.217 57.8314 313.134 57.098C312.052 56.3646 308.867 56.4492 306.833 57.098V57.098ZM235.467 23.3999C237.392 23.3999 237.877 24.0211 241.081 25.5374C244.285 27.0533 241.74 27.1413 240.131 28.104C238.523 29.067 238.826 33.5497 241.081 33.5497C243.335 33.5497 252.357 44.189 255.994 47.2246C259.632 50.2598 265.874 50.0533 268.478 52.3483C271.031 54.5976 261.223 54.6248 257.985 54.6248H257.795C254.772 54.6248 251.638 51.406 247.655 45.5101C243.672 39.6149 240.058 36.9399 237.877 36.9399C235.696 36.9399 224.475 55.3646 222.15 59.4047C219.825 63.4453 214.375 62.778 212.106 62.778C209.838 62.778 209.892 59.4047 212.106 59.4047C214.321 59.4047 218.668 54.6248 220.432 52.3483C222.196 50.0714 222.276 50.0529 220.432 50.0529C218.588 50.0529 213.923 53.8445 212.887 54.6248C211.851 55.405 209.891 56.368 208.667 56.368C207.442 56.368 203.999 43.1584 203.999 42.2324C203.999 41.306 208.123 41.9053 209.892 43.1584C211.66 44.4122 209.604 50.0529 211.246 50.0529C212.887 50.0529 212.107 38.139 212.107 33.5494C212.107 28.9601 212.026 29.3415 214.401 29.3415C216.777 29.3415 218.61 32.3835 217.647 33.5497C216.684 34.7159 217.647 45.5101 217.647 47.2246C217.647 48.9388 218.793 47.2246 219.627 47.2246C220.462 47.2246 218.793 39.7399 219.627 38.139C220.462 36.5381 222.15 38.139 224.001 38.139C225.851 38.139 224.001 40.2799 224.001 40.2799V45.5104C224.001 47.8617 225.592 47.2242 226.441 45.5104C227.289 43.7959 233.253 32.64 233.253 29.3415C233.253 26.0427 233.541 23.3999 235.467 23.3999V23.3999ZM236.448 43.1097C238.567 43.1097 238.861 45.4085 240.592 46.1272C242.323 46.8462 246.208 48.029 244.217 49.2738C242.226 50.5189 236.478 51.0095 235.132 49.2738C233.787 47.5381 234.329 43.1097 236.448 43.1097V43.1097ZM312.822 32.1388C311.453 32.1388 310.185 35.208 308.815 35.208C307.446 35.208 305.828 39.4502 309.431 38.1658C313.034 36.8818 313.034 39.8131 311.415 40.5764C309.797 41.3393 309.697 43.9311 308.27 44.4519C306.843 44.973 306.644 47.4758 309.43 46.2446C312.217 45.0134 312.495 43.1097 313.78 43.1097C315.065 43.1097 314.634 42.4382 314.849 40.2931C315.065 38.1481 316.73 34.0056 315.802 32.6517C314.873 31.2974 314.19 32.1388 312.822 32.1388H312.822ZM361.298 25.9947C362.58 26.8921 367.839 28.4246 365.474 30.3593C363.109 32.294 360.652 35.3542 359.035 37.2258C357.419 39.0971 356.607 40.9336 354.367 40.9336C352.128 40.9336 349.946 38.8482 351.037 38.037C352.128 37.2258 358.11 29.6017 358.11 27.937C358.11 26.2719 360.016 25.0978 361.298 25.9947V25.9947ZM377.383 28.871C378.066 27.4831 379.006 27.3388 381.354 28.0488C383.702 28.7588 384.884 28.0488 387.318 28.0488C389.75 28.0488 389.039 30.5145 389.039 33.3096C389.039 36.1042 387.282 36.0914 385.461 34.6752C383.64 33.2589 383.234 34.6752 380.738 34.6752C378.242 34.6752 376.699 30.2588 377.383 28.871Z" fill="black"/>
</svg>
