<svg width="442" height="128" viewBox="0 0 442 128" fill="none" xmlns="http://www.w3.org/2000/svg">
<path d="M375.072 78.3141C376.297 78.3141 376.741 79.083 376.741 79.8506V94.6759C376.741 96.2851 376.036 96.8443 374.72 96.8443H361.104V108.475C361.104 110.314 361.634 111.096 363.495 111.096H366.053L365.136 114H360.004C356.13 114 355.578 112.099 355.565 109.399V79.8506C355.565 78.8483 355.973 78.3141 357.084 78.3141H375.072H375.072ZM368.448 97.9214C368.639 99.8288 369.096 101.687 369.882 103.405C371.789 101.999 374.015 99.8256 375.546 97.9218L378.702 100.708C377.134 102.664 373.66 105.689 371.826 106.527C373.369 108.397 375.488 109.96 378.309 111.036L377.286 114C369.394 112.221 364.261 106.166 362.624 97.9218H368.448V97.9214ZM349.682 77.5299C349.251 79.348 348.707 80.8987 348.086 82.236H353.212C353.316 82.236 353.415 82.2773 353.489 82.3508C353.562 82.4243 353.604 82.524 353.604 82.6279V85.3728C353.604 85.4768 353.562 85.5765 353.489 85.65C353.415 85.7235 353.316 85.7648 353.212 85.7648H345.958C344.966 87.0496 343.908 88.0507 342.873 88.902H352.373C352.425 88.902 352.476 88.9122 352.524 88.9319C352.571 88.9516 352.614 88.9805 352.651 89.0169C352.687 89.0534 352.716 89.0966 352.736 89.1442C352.755 89.1918 352.765 89.2428 352.765 89.2943V91.7556C352.765 91.8071 352.755 91.8581 352.736 91.9056C352.716 91.9532 352.687 91.9963 352.651 92.0327C352.614 92.0691 352.571 92.098 352.523 92.1177C352.476 92.1374 352.425 92.1475 352.373 92.1475H350.217C350.165 92.1475 350.114 92.1577 350.067 92.1774C350.019 92.1971 349.976 92.226 349.94 92.2625C349.903 92.2989 349.874 92.3421 349.855 92.3897C349.835 92.4373 349.825 92.4883 349.825 92.5398V96.5724C349.825 96.789 350 96.9647 350.217 96.9647H353.212C353.316 96.9647 353.415 97.006 353.489 97.0795C353.562 97.153 353.604 97.2527 353.604 97.3566V99.9828C353.604 100.087 353.562 100.186 353.489 100.26C353.415 100.333 353.316 100.375 353.212 100.375H350.217C350.113 100.375 350.013 100.416 349.94 100.489C349.866 100.563 349.825 100.663 349.825 100.767V109.456C349.825 110.616 350.186 111.086 351.725 111.086H352.8C352.86 111.086 352.919 111.1 352.972 111.126C353.026 111.152 353.073 111.19 353.11 111.238C353.146 111.285 353.172 111.34 353.184 111.398C353.196 111.457 353.195 111.517 353.18 111.575L352.639 113.704C352.617 113.789 352.568 113.864 352.499 113.917C352.43 113.971 352.346 114 352.258 114H348.316C345.639 114 344.359 112.654 344.359 110.368V100.767C344.359 100.663 344.318 100.563 344.244 100.49C344.171 100.416 344.071 100.375 343.967 100.375H339.879C339.827 100.375 339.776 100.365 339.729 100.345C339.681 100.326 339.638 100.297 339.601 100.26C339.565 100.224 339.536 100.18 339.516 100.133C339.497 100.085 339.487 100.034 339.487 99.9828V97.3566C339.487 97.2527 339.528 97.153 339.601 97.0795C339.675 97.006 339.775 96.9647 339.879 96.9647H343.967C344.071 96.9647 344.171 96.9234 344.244 96.8499C344.318 96.7764 344.359 96.6768 344.359 96.5728V92.5398C344.359 92.4359 344.318 92.3362 344.244 92.2627C344.171 92.1892 344.071 92.1479 343.967 92.1479H342.299C342.195 92.1479 342.095 92.1067 342.022 92.0332C341.948 91.9597 341.907 91.86 341.907 91.756V89.6652C341.349 90.0898 340.809 90.4818 340.299 90.8632L337.918 87.4172C341.14 85.0557 342.726 82.0283 343.424 77.5299H349.682V77.5299ZM265.034 77.5299L266.014 80.2749H279.095C279.301 80.2748 279.505 80.3153 279.695 80.3942C279.886 80.473 280.059 80.5886 280.204 80.7343C280.35 80.8799 280.465 81.0529 280.544 81.2433C280.623 81.4336 280.664 81.6377 280.664 81.8437V83.5321H249.496C249.063 83.5321 248.713 83.8832 248.713 84.3159L248.712 91.5132C248.772 91.4987 248.835 91.491 248.899 91.491L260.271 91.4906V89.045H251.49C251.282 89.0449 251.083 88.9622 250.936 88.8152C250.789 88.6681 250.706 88.4687 250.706 88.2608V86.9417C250.706 86.5081 251.057 86.1571 251.49 86.1571H260.271V84.1963H266.154V86.1571H277.014C278.208 86.1571 278.58 86.549 278.58 87.5186V91.491H280.271C280.323 91.4909 280.374 91.501 280.421 91.5207C280.469 91.5404 280.512 91.5692 280.549 91.6056C280.585 91.642 280.614 91.6853 280.634 91.7328C280.653 91.7804 280.664 91.8314 280.664 91.8829V94.1559C280.664 94.2599 280.622 94.3596 280.549 94.4331C280.475 94.5066 280.376 94.5479 280.272 94.5479H278.58V98.5129C278.58 99.4672 278.263 99.8826 277.235 99.8826H266.153V102.235H275.958C276.582 102.235 277.18 102.483 277.622 102.925C278.063 103.366 278.311 103.964 278.311 104.588V114H271.576V112.887H256.441V114H250.468L250.659 104.541C250.672 103.925 250.925 103.339 251.365 102.908C251.804 102.477 252.396 102.236 253.011 102.236L260.272 102.235V99.8826H251.156C250.948 99.8826 250.748 99.8 250.601 99.6529C250.454 99.5058 250.372 99.3064 250.372 99.0984V97.7671C250.372 97.334 250.723 96.9829 251.156 96.9829L260.271 96.9825V94.5479H248.9C248.835 94.5479 248.772 94.5398 248.713 94.5256V100.295C248.713 107.515 246.008 112.101 243.637 114L240.272 111.626C243.673 106.928 243.204 101.473 243.204 95.1507V82.7984C243.204 81.0357 243.948 80.2749 245.663 80.2749H259.698L258.703 77.5299H265.034H265.034ZM403.799 88.1178C402.707 91.2356 401.183 93.6343 399.486 95.5013V112.823C399.486 112.978 399.455 113.131 399.396 113.274C399.337 113.416 399.251 113.546 399.141 113.655C399.032 113.765 398.902 113.851 398.76 113.91C398.617 113.97 398.464 114 398.309 114H394.388C394.076 114 393.777 113.876 393.556 113.655C393.335 113.435 393.211 113.136 393.211 112.823V100.177C391.731 100.918 390.341 101.436 389.197 101.843L387.329 98.8156C392.426 95.909 395.597 92.074 397.37 88.1178H403.799V88.1178ZM425.368 90.4708C425.992 90.4708 426.59 90.7188 427.032 91.16C427.473 91.6013 427.721 92.1998 427.721 92.8239V94.4897H422.728V108.283C422.728 112.088 420.771 114 416.546 114H411.488C411.155 112.756 410.832 111.863 410.485 110.525H413.951C415.763 110.525 416.31 109.905 416.31 107.884V94.4897H404.192C404.089 94.4897 403.987 94.4694 403.891 94.4299C403.796 94.3905 403.71 94.3327 403.637 94.2598C403.564 94.187 403.506 94.1005 403.467 94.0053C403.428 93.9101 403.407 93.8081 403.407 93.7051V91.255C403.407 90.8219 403.758 90.4712 404.192 90.4712H425.368V90.4708ZM311.629 77.9218C312.063 77.9218 312.414 78.2733 312.414 78.7064V107.671C312.414 108.104 312.765 108.455 313.198 108.455H320.458C320.891 108.455 321.242 108.104 321.242 107.671V85.1846C321.242 84.7515 321.593 84.4008 322.026 84.4008H326.545C326.979 84.4008 327.33 84.7515 327.33 85.1846V112.824C327.33 113.257 326.979 113.608 326.545 113.608H321.983C321.797 113.608 321.618 113.538 321.481 113.412C321.344 113.286 321.26 113.113 321.245 112.928L321.242 112.867C321.242 112.77 321.223 112.673 321.186 112.583C321.149 112.493 321.094 112.412 321.025 112.343C320.956 112.274 320.875 112.219 320.785 112.182C320.695 112.145 320.598 112.126 320.501 112.126H292.036C291.933 112.126 291.831 112.105 291.736 112.066C291.641 112.027 291.554 111.969 291.482 111.896C291.409 111.823 291.351 111.737 291.312 111.642C291.272 111.546 291.252 111.445 291.252 111.342V85.185C291.252 84.7515 291.603 84.4004 292.036 84.4004H296.38C296.813 84.4004 297.164 84.7519 297.164 85.1846V107.671C297.164 108.104 297.515 108.455 297.949 108.455H305.221C305.655 108.455 306.006 108.104 306.006 107.671V78.7064C306.006 78.2733 306.357 77.9218 306.79 77.9218H311.629V77.9218ZM270.066 106.12H257.618C257.306 106.12 257.006 106.244 256.786 106.465C256.565 106.685 256.441 106.984 256.441 107.296V108.746C256.441 108.963 256.617 109.138 256.833 109.138H271.183C271.235 109.138 271.286 109.128 271.333 109.108C271.381 109.089 271.424 109.06 271.461 109.023C271.497 108.987 271.526 108.944 271.546 108.896C271.565 108.849 271.576 108.798 271.576 108.746V107.629C271.576 107.229 271.417 106.845 271.134 106.562C270.851 106.279 270.467 106.12 270.066 106.12ZM272.224 94.5479H266.153V96.9825H272.224C272.657 96.9825 273.007 96.6314 273.007 96.1987V95.3321C273.007 94.8989 272.657 94.5482 272.224 94.5482V94.5479ZM369.392 90.0648H361.888C361.455 90.0648 361.104 90.4159 361.104 90.849V92.4994C361.104 92.9326 361.455 93.2837 361.888 93.2837H369.392C369.825 93.2837 370.176 92.9326 370.176 92.4994V90.849C370.176 90.4159 369.825 90.0648 369.392 90.0648ZM272.224 89.045H266.153V91.4906H272.224C272.657 91.4906 273.007 91.1399 273.007 90.7068V89.8292C273.007 89.3961 272.657 89.0454 272.224 89.0454V89.045ZM401.839 77.5299C399.616 85.7619 393.158 89.4365 389.351 90.8627L387.329 87.9384C391.857 85.09 394.902 81.4983 395.482 77.5299H401.839V77.5299ZM369.392 82.6461H361.888C361.455 82.6461 361.104 82.9976 361.104 83.4303V85.0836C361.104 85.5167 361.455 85.8678 361.888 85.8678H369.392C369.825 85.8678 370.176 85.5167 370.176 85.0836V83.4303C370.176 82.9972 369.825 82.6461 369.392 82.6461ZM424.191 79.4907C424.815 79.4907 425.414 79.7386 425.855 80.1799C426.296 80.6211 426.544 81.2196 426.544 81.8437V83.4121H406.545C406.339 83.4122 406.135 83.3716 405.944 83.2928C405.754 83.214 405.581 83.0985 405.435 82.9529C405.29 82.8072 405.174 82.6343 405.095 82.444C405.016 82.2537 404.976 82.0497 404.976 81.8437V79.883C404.976 79.8315 404.986 79.7805 405.005 79.7329C405.025 79.6853 405.054 79.642 405.09 79.6056C405.127 79.5691 405.17 79.5402 405.218 79.5205C405.265 79.5008 405.316 79.4907 405.368 79.4907H424.191ZM69.483 77.9218C79.336 77.9218 87.3328 85.9813 87.3328 95.9449C87.3328 105.914 79.336 114 69.483 114C59.6301 114 51.647 105.914 51.647 95.9454C51.647 85.9817 59.6305 77.9222 69.4834 77.9222L69.483 77.9218ZM157.622 79.5121V85.7401C153.886 84.1034 139.498 81.6296 139.498 87.3881C139.498 92.693 159.11 91.8223 159.096 102.847C159.096 115.462 138.717 115.071 130.077 111.291L130.18 104.831C134.474 107.118 149.456 109.299 149.707 103.218C149.828 100.14 146.116 98.8519 143.542 98.039C138.196 96.3256 130.165 94.1846 130.207 86.9477C130.266 76.1247 149.89 76.1522 157.622 79.5121ZM123.018 78.3141V84.8492H111.767V113.216H103.356V84.8492H91.2535V78.3141H123.018H123.018ZM30.1589 78.3141C36.1846 78.3141 43.4158 79.8325 43.5018 87.1837C43.5018 90.6785 40.9658 93.5685 37.8908 94.9923C41.7827 96.1033 44.9939 99.0931 44.9802 103.321C44.9446 111.297 36.2492 113.215 29.9218 113.215H14V78.3141H30.1589ZM29.7266 98.3897L22.4485 98.3893V107.48L29.5109 107.479C33.1661 107.46 36.4128 106.559 36.4128 102.529C36.4128 99.104 32.5665 98.3893 29.6212 98.3893L29.7266 98.3897ZM69.483 84.5212C64.2303 84.5212 60.5088 89.6401 60.5088 95.9449C60.5088 102.265 64.2299 107.38 69.483 107.38C74.7491 107.38 78.4677 102.265 78.4677 95.9449C78.4677 89.6401 74.7491 84.5212 69.483 84.5212ZM28.7396 84.0468H22.449V92.1237H28.7396C31.5738 92.1237 34.9074 91.4692 34.9301 88.22C34.9672 84.665 31.9193 84.0468 28.7396 84.0468Z" fill="#4A116C"/>
<path d="M186.254 106.598C188.896 103.975 191.826 102.515 194.236 101.027L210.097 91.0854C217.016 86.7961 217.543 83.9868 217.551 80.0063C217.541 72.2429 206.067 67.7523 186.27 63.905L186.254 106.598Z" fill="url(#paint0_linear_63_11482)"/>
<path d="M148.129 46.7561C148.129 53.4183 151.876 56.1248 157.012 57.9292L208.644 73.8215C211.837 74.793 217.527 76.7362 217.527 80.0673L217.527 46.6173C217.527 42.5922 216.972 37.5955 210.587 35.4441L157.012 18.5803C153.403 17.4699 150.141 15.735 148.129 14L148.129 46.7561Z" fill="url(#paint1_linear_63_11482)"/>
<defs>
<linearGradient id="paint0_linear_63_11482" x1="187.142" y1="65.9749" x2="206.635" y2="100.749" gradientUnits="userSpaceOnUse">
<stop stop-color="#E60012"/>
<stop offset="0.49" stop-color="#AF4280"/>
<stop offset="1" stop-color="#1D2088"/>
</linearGradient>
<linearGradient id="paint1_linear_63_11482" x1="217.527" y1="47.034" x2="148.129" y2="47.034" gradientUnits="userSpaceOnUse">
<stop stop-color="#FFE200"/>
<stop offset="1" stop-color="#E60012"/>
</linearGradient>
</defs>
</svg>
