<svg width="128" height="128" viewBox="0 0 128 128" fill="none" xmlns="http://www.w3.org/2000/svg">
<path fill-rule="evenodd" clip-rule="evenodd" d="M64.0101 21.3238C87.7251 21.3238 107.067 40.8781 107.067 64.8531C107.067 70.9362 105.819 76.7331 103.573 81.9997C88.3891 70.7183 63.3462 44.9534 63.3462 44.9534C36.6944 75.1025 26.804 79.2842 23.1469 78.5508C21.7262 74.24 20.9536 69.6362 20.9536 64.8531C20.9536 40.8781 40.2952 21.3238 64.0101 21.3238Z" fill="#005BAC"/>
<path fill-rule="evenodd" clip-rule="evenodd" d="M105.153 64.0145C105.153 86.7447 86.7255 105.172 63.9954 105.172C41.2624 105.172 22.8345 86.7447 22.8345 64.0145C22.8345 41.2844 41.2624 22.8559 63.9954 22.8559C86.7255 22.8559 105.153 41.2844 105.153 64.0145Z" fill="white"/>
<path d="M20 64.0014C20.0347 67.7839 20.4858 71.4969 21.3881 74.967C23.8866 76.2163 26.6627 76.2163 29.4388 75.5223C35.8238 71.9827 45.332 62.3357 45.332 62.3357L64.0014 43.6664L82.6708 62.3357C82.6708 62.3357 92.1789 71.9827 98.564 75.5223C101.34 76.2163 104.082 76.251 106.58 75.0017C107.482 71.4622 107.968 67.7839 107.968 63.9667C107.968 39.6757 88.2924 20 64.0014 20C39.7104 20 20 39.7104 20 64.0014Z" fill="url(#paint0_radial_63_13137)"/>
<path d="M102.897 76.2429C104.179 76.1541 105.404 75.5512 106.604 74.961C104.097 76.1985 101.33 76.1985 98.5693 75.5067C98.582 75.5067 98.5883 75.5131 98.5946 75.5194C95.7262 74.8848 92.5848 73.2792 89.7163 71.3754C93.6763 74.1423 98.4677 76.5348 102.897 76.2429Z" fill="url(#paint1_radial_63_13137)"/>
<path d="M29.4277 75.5566C29.4339 75.5504 29.4401 75.5443 29.4586 75.5381C26.6972 76.2362 23.9295 76.2362 21.4214 75.0006C22.694 75.6307 24.0099 76.1806 25.3813 76.2423C29.5945 76.44 34.1043 74.2531 37.9098 71.6708C35.1483 73.4562 32.1706 74.9388 29.4277 75.5566Z" fill="url(#paint2_radial_63_13137)"/>
<path fill-rule="evenodd" clip-rule="evenodd" d="M81.063 63.8911C82.7123 65.9523 85.9741 68.9256 89.6898 71.3874C84.723 67.9248 81.063 63.8911 81.063 63.8911Z" fill="#F4F4F4"/>
<path fill-rule="evenodd" clip-rule="evenodd" d="M37.9106 71.6411C41.7879 69.1332 45.2243 66.0251 46.9306 63.8911C46.9306 63.8911 43.0772 68.1347 37.9106 71.6411Z" fill="#F4F4F4"/>
<path fill-rule="evenodd" clip-rule="evenodd" d="M37.8786 71.6765C43.0452 68.1699 46.8985 63.9264 46.8985 63.9264C46.8985 63.9264 38.207 73.3234 29.4264 75.5487C29.4156 75.5537 29.4077 75.5598 29.3971 75.5653C32.1417 74.9543 35.1204 73.4664 37.8786 71.6765Z" fill="#F4F4F4"/>
<path fill-rule="evenodd" clip-rule="evenodd" d="M81.0629 63.8911C81.0629 63.8911 84.7229 67.9252 89.6897 71.3874C92.5557 73.2906 95.6932 74.8912 98.5645 75.5299C98.5568 75.524 98.5454 75.5185 98.5369 75.5129C89.757 73.2906 81.0629 63.8911 81.0629 63.8911Z" fill="#F4F4F4"/>
<path d="M63.9804 81.0373L46.9085 63.9654C46.9085 63.9654 38.2371 73.3594 29.4302 75.5725C26.6752 76.2499 23.9203 76.2951 21.3911 75.0305C26.2688 93.9992 43.5212 108 64.0255 108C84.4846 108.045 101.692 93.9992 106.57 75.0305C104.086 76.25 101.331 76.2951 98.5305 75.5725C89.8139 73.3595 81.0974 63.9203 81.0974 63.9203L63.9804 81.0373Z" fill="url(#paint3_radial_63_13137)"/>
<defs>
<radialGradient id="paint0_radial_63_13137" cx="0" cy="0" r="1" gradientUnits="userSpaceOnUse" gradientTransform="translate(63.9981 64.9761) rotate(45) scale(49.0752)">
<stop stop-color="#01A9E4"/>
<stop offset="1" stop-color="#00508F"/>
</radialGradient>
<radialGradient id="paint1_radial_63_13137" cx="0" cy="0" r="1" gradientUnits="userSpaceOnUse" gradientTransform="translate(81.2813 68.933) rotate(45) scale(8.97488)">
<stop stop-color="#0087C4"/>
<stop offset="1" stop-color="#005492"/>
</radialGradient>
<radialGradient id="paint2_radial_63_13137" cx="0" cy="0" r="1" gradientUnits="userSpaceOnUse" gradientTransform="translate(46.1519 69.3716) rotate(45) scale(8.73664 8.73664)">
<stop stop-color="#0085C2"/>
<stop offset="1" stop-color="#005492"/>
</radialGradient>
<radialGradient id="paint3_radial_63_13137" cx="0" cy="0" r="1" gradientUnits="userSpaceOnUse" gradientTransform="translate(63.9971 60.4265) rotate(45) scale(63.8709 63.8709)">
<stop stop-color="#8EC31F"/>
<stop offset="1" stop-color="#00733F"/>
</radialGradient>
</defs>
</svg>
