<svg width="128" height="128" viewBox="0 0 128 128" fill="none" xmlns="http://www.w3.org/2000/svg">
<path d="M102.183 16.5C101.564 27.122 98.0241 39.611 91.5221 52.03C77.7446 78.393 53.4536 96.3675 38.9851 89.4905C30.2671 85.342 27.4836 74.8155 29.1436 60.1645C20.1956 83.6785 23.1686 103.594 36.1441 109.757C52.0206 117.307 77.3541 99.6315 92.7271 70.2995C103.284 50.156 106.403 29.753 102.182 16.5" fill="#004898"/>
<path d="M84.929 36.2375C70.8995 47.5775 54.162 52.7295 47.4665 46.76C43.2495 43 43.6175 36.2265 46.9675 29.3535C36.5365 40.3185 33.8515 53.0055 39.8795 58.93C47.332 66.2625 65.6895 62.8825 81.8595 48.8355C93.399 38.8155 99.5975 26.0565 100.261 16.5C98.3395 22.255 93.039 29.687 84.929 36.2375Z" fill="#F4A100"/>
</svg>
