<svg width="407" height="128" viewBox="0 0 407 128" fill="none" xmlns="http://www.w3.org/2000/svg">
<path d="M134.095 62.6179C134.021 62.2481 134.243 62.1742 134.612 62.2481C138.088 63.0985 142.451 65.1321 142.451 65.1321H171.808C171.919 64.9842 172.917 63.838 173.952 63.0246C174.137 62.8767 174.544 62.5439 174.84 62.507C175.209 62.47 175.727 62.6918 175.912 62.7658C178.389 63.764 179.942 64.5775 182.456 66.0934C182.752 66.2783 182.9 66.5371 182.9 66.8699C182.9 67.0917 182.752 67.3505 182.271 67.7202C181.643 68.2009 181.088 68.5337 181.088 68.5337V72.1201C181.088 75.7435 181.236 78.3686 181.236 78.5905C181.236 79.6997 180.719 80.1064 180.09 80.5501C179.461 80.9568 177.835 81.7332 175.246 81.7332C172.658 81.7332 172.769 80.5131 172.843 79.6627C172.88 79.1081 172.917 78.4426 172.954 77.6292H142.451V79.5148C142.451 80.0325 142.414 80.4022 141.822 80.7719C141.194 81.1786 139.16 81.9551 136.572 81.9551C133.984 81.9551 134.095 80.735 134.169 79.8846C134.206 79.293 134.28 78.5165 134.28 77.5552V66.5001C134.28 64.5035 134.132 62.9506 134.095 62.6179V62.6179ZM314.267 24.609C314.822 24.609 315.599 24.9047 316.079 25.1636C317.225 25.7182 319 26.5316 320.701 27.6408C321.108 27.8996 321.514 28.2693 321.477 28.5651C321.44 28.8979 321.329 29.0828 320.664 29.7113C320.146 30.2289 319.074 31.2272 319.074 31.2272V34.7397C319.074 40.2488 319.407 49.2334 319.407 49.4552V49.5662C319.37 50.4905 318.889 50.8603 318.335 51.267C317.484 51.8585 315.746 52.7089 313.269 52.7089C310.866 52.7089 310.977 51.5627 311.014 50.7863V50.6014H305.8C306.762 55.7777 308.426 59.2533 310.126 62.0633C310.866 61.3238 311.605 60.3995 312.567 59.1423C314.489 56.6281 315.525 54.5206 315.746 54.1879C315.931 53.8921 316.264 53.3005 316.782 53.2635C317.41 53.1896 318.187 53.6702 318.556 53.8921C319.444 54.4467 321.847 56.0735 322.808 56.887C323.659 57.5895 323.659 57.8852 323.511 58.218C323.437 58.4398 323.067 58.6987 322.66 58.6617C321.958 58.6247 321.292 58.4029 320.664 58.8835C320.035 59.3642 318.556 60.5473 315.562 62.2851C314.23 63.0616 312.752 63.6901 311.457 64.1708C316.671 71.4546 323.733 73.4142 324.583 73.673C325.692 74.0058 325.729 74.3385 325.655 74.7452C325.581 75.115 325.36 75.3738 324.029 75.7805C321.108 76.6309 319.111 77.814 317.484 79.6627C316.449 80.8829 315.377 81.1047 314.304 80.2173C310.903 77.3704 308.278 74.0427 306.318 69.5689C303.545 72.1201 299.034 76.3351 295.411 80.2543C294.56 81.1786 293.858 81.5484 293.119 81.5484C292.342 81.5484 291.714 80.7719 291.714 80.7719C291.714 80.7719 288.534 76.52 288.386 76.3351C287.72 75.4477 288.09 74.6713 288.238 74.4864C288.386 74.2646 288.497 74.2646 289.014 73.4881C289.902 72.231 290.05 69.9017 290.087 68.6815V33.8154C290.087 29.3786 289.902 26.4946 289.754 25.4963C289.643 24.8678 290.087 24.7199 290.419 24.7938C294.117 25.4963 298.332 27.8996 298.332 27.8996H310.348C310.348 27.8996 311.568 26.4576 312.604 25.5333C313.01 25.2005 313.565 24.609 314.267 24.609V24.609ZM281.694 41.6168C282.137 41.6168 282.655 42.0235 283.32 42.5412C283.875 42.9849 284.615 43.6134 285.465 44.5008C286.352 45.4251 286.648 45.8318 286.759 46.0907C286.944 46.4974 286.796 47.052 285.798 47.052H279.401C279.364 47.2368 279.253 47.3847 279.032 47.5326C278.107 48.0872 277.664 48.1981 277.664 49.1964V55.0752H279.438C279.438 55.0752 281.583 52.7089 281.915 52.3392L281.952 52.3022C282.285 51.9325 282.766 51.4149 283.247 51.4149C283.69 51.4149 284.208 51.8216 284.873 52.3392C285.428 52.7829 286.167 53.4114 287.018 54.2988C287.905 55.2231 288.201 55.6299 288.312 55.8887C288.497 56.2954 288.349 56.85 287.314 56.85H277.664V69.8277C278.921 69.2731 287.166 65.6127 287.388 65.5018C287.942 65.28 288.386 64.9842 288.719 65.4648C289.088 65.9455 288.127 66.7959 288.127 66.7959C288.127 66.7959 280.917 73.1554 275.297 79.219C274.447 80.1434 273.744 80.5131 273.005 80.5131C272.228 80.5131 271.6 79.7367 271.6 79.7367C271.6 79.7367 268.42 75.4847 268.272 75.2998C267.607 74.4125 267.976 73.636 268.124 73.4512C268.272 73.2293 268.383 73.2293 268.901 72.4529C269.788 71.2327 269.936 68.8664 269.973 67.6463V56.85H266.941C264.094 56.85 262.726 57.1088 262.726 57.1088C262.726 57.1088 261.025 54.9643 260.951 54.8904C260.877 54.7795 260.877 54.7055 261.025 54.7425C261.58 54.8534 263.207 55.0752 265.462 55.0752H270.01V47.0889C267.274 47.1259 265.98 47.3478 265.98 47.3478C265.98 47.3478 264.279 45.2033 264.205 45.1293C264.131 45.0554 264.131 44.9445 264.279 44.9814C264.834 45.0924 266.46 45.3142 268.716 45.3142H277.922C277.922 45.3142 280.067 42.9479 280.4 42.5782C280.658 42.1714 281.176 41.6168 281.694 41.6168V41.6168ZM172.954 66.9068H142.451V75.7805H172.954V66.9068ZM241.91 29.2676C242.539 29.2676 242.908 29.4895 243.537 29.8222C245.496 30.8205 246.901 31.6709 249.157 33.3717C249.564 33.7045 250.081 34.0742 250.081 34.37C250.081 34.5918 250.007 34.8876 249.342 35.5162C248.75 36.0338 248.159 36.4775 248.159 36.4775V45.2403C248.159 55.1492 248.528 70.6781 248.528 70.9C248.528 71.9722 248.011 72.3789 247.382 72.8226C246.458 73.4512 244.572 74.3385 241.91 74.3385C239.322 74.3385 239.433 72.7856 239.507 71.9722C239.544 71.3806 239.618 70.937 239.618 70.0126V69.458H210.704V72.1571C210.704 72.7856 210.63 73.7839 209.632 74.2646C208.782 74.6713 206.859 75.2998 204.271 75.2998C201.683 75.2998 201.794 73.636 201.867 72.8226C201.941 71.9722 202.163 66.8698 202.163 55.1862V38.9547C202.163 33.2608 201.904 31.1163 201.757 30.3399C201.646 29.6004 202.126 29.4895 202.496 29.5634C206.637 30.5617 210.556 33.1499 210.667 33.2238H237.658C237.658 33.2238 239.544 30.8205 240.616 29.8962C240.838 29.6743 241.392 29.2676 241.91 29.2676V29.2676ZM303.101 50.6014H297.814V70.826C298.665 70.4193 302.658 68.5337 305.468 67.2026C305.357 66.9068 305.246 66.648 305.135 66.3152C303.508 61.3608 303.138 52.8568 303.101 50.6014V50.6014ZM239.581 34.9986H210.667V67.6463H239.581V34.9986ZM139.974 47.052C139.9 46.6822 140.121 46.5713 140.491 46.6822C143.967 47.5326 147.775 49.5662 147.775 49.5662H166.077C166.188 49.4183 167.186 48.2721 168.221 47.4587C168.406 47.3108 168.924 46.9041 169.331 46.9041C169.774 46.9041 170.662 47.2738 170.847 47.3478C174.1 48.7897 174.84 49.3813 175.764 50.0098C176.171 50.3056 176.319 50.5275 176.319 50.8602C176.319 51.156 176.208 51.3409 175.727 51.6737C175.099 52.1543 174.914 52.2652 174.914 52.2652V60.0667C174.914 60.6583 174.914 61.065 174.285 61.4717C173.657 61.8784 172.178 62.6548 169.589 62.6548C167.001 62.6548 167.112 61.4347 167.186 60.5843V60.5473H147.775V60.8062C147.775 61.3608 147.738 61.7675 147.146 62.1372C146.518 62.5439 145.039 63.3204 142.451 63.3204C139.863 63.3204 139.974 62.1002 140.047 61.2498C140.084 60.6583 140.158 59.8818 140.158 58.9205V50.9712C140.121 49.0116 140.011 47.3477 139.974 47.052V47.052ZM167.26 51.3409H147.738V58.8096H167.26V51.3409ZM132.875 39.5833C133.096 39.5093 133.392 39.5833 133.873 40.1749C134.575 41.0253 135.13 42.0605 135.5 43.0958H179.018C179.314 42.6521 180.497 40.8774 180.94 40.3228C181.347 39.8421 181.939 40.0639 182.382 40.3597C182.863 40.6185 186.782 42.8739 189.999 45.7209C190.406 46.0907 190.369 46.3125 190.332 46.5343C190.295 46.7562 190.184 47.1629 189.296 47.2368C188.372 47.3108 185.747 47.7545 183.861 48.6049C182.05 49.4552 180.534 50.3796 178.204 52.635C177.982 52.8568 177.613 52.9678 177.317 52.7459C177.021 52.5241 177.095 52.2283 177.169 52.0434C177.243 51.8585 179.129 45.536 179.203 45.3881C179.24 45.2402 179.351 44.9075 178.87 44.9075C161.529 44.9075 143.042 44.9075 135.906 44.9445C136.202 46.6822 136.054 48.457 135.463 50.0838C134.317 53.2635 130.323 55.1122 127.846 53.4114C125.665 51.8955 126.256 49.3443 127.144 48.3091C128.327 46.8671 130.397 46.2016 131.654 44.4268C132.69 42.9849 132.616 40.5076 132.579 40.1009C132.616 39.8051 132.764 39.6572 132.875 39.5833ZM311.125 39.8051H297.814V48.7897H311.125V39.8051V39.8051ZM268.198 22.8342C268.864 22.4275 269.788 22.7603 270.417 22.9082C271.785 23.2779 276.406 24.7568 277.479 25.1636C278.884 25.6812 279.032 26.014 278.921 26.4207C278.847 26.7904 278.44 27.0492 277.848 27.1601C275.741 27.5299 275.556 28.0105 275.186 28.75C274.964 29.1937 273.855 31.4861 271.711 34.7397H279.956C279.956 34.7397 282.1 32.3734 282.433 32.0037C282.766 31.6339 283.247 31.0793 283.764 31.0793C284.171 31.0793 284.725 31.4861 285.391 32.0037C285.946 32.4474 286.685 33.0759 287.535 33.9633C288.423 34.8876 288.682 35.2943 288.83 35.5532C289.014 35.9599 288.867 36.5145 287.831 36.5145C287.425 36.5145 276.222 36.5145 270.491 36.5514L269.936 37.3279C265.647 43.3546 262.135 46.1276 261.728 46.4974C261.321 46.9041 260.582 47.2368 260.286 46.8671C259.99 46.4604 260.286 45.9797 260.508 45.573C262.541 41.9126 263.724 39.1396 265.277 33.6305C266.682 28.6391 267.237 25.3854 267.348 24.7199C267.533 24.1653 267.533 23.2039 268.198 22.8342V22.8342ZM161.714 23.3888C161.64 23.0191 161.862 22.9821 162.232 23.0191C165.19 23.3149 169.22 24.0174 170.403 24.3871C171.586 24.7568 171.475 25.3484 170.884 25.7551C170.44 26.0509 169.516 26.4207 169.516 26.4207V32.5953H176.541C176.541 32.5953 179.831 28.75 180.164 28.3803C180.497 28.0105 180.977 27.6038 181.532 27.5668C182.308 27.5668 182.752 27.8626 183.492 28.3063C184.305 28.787 186.339 30.192 188.261 31.7449C189.296 32.5583 189.629 32.891 189.629 33.4087C189.629 34.1112 188.964 34.37 188.446 34.37H169.552V40.2858C169.552 40.8034 169.516 41.1731 168.924 41.5429C168.295 41.9496 166.816 42.726 164.228 42.726C161.64 42.726 161.751 41.4689 161.825 40.6555C161.862 40.0639 161.936 39.2875 161.936 38.3262V34.37H152.286V40.2118C152.286 40.7664 152.249 41.1731 151.657 41.5429C151.029 41.9496 149.55 42.726 146.962 42.726C144.373 42.726 144.484 41.4689 144.558 40.6555C144.595 40.0639 144.669 39.2875 144.669 38.3262V34.37H132.727C129.769 34.37 128.364 34.6288 128.364 34.6288C128.364 34.6288 126.7 32.5213 126.589 32.4104C126.515 32.3365 126.515 32.2255 126.663 32.2625C127.218 32.3734 128.844 32.5953 131.063 32.5953H144.632V27.419C144.632 25.3484 144.521 23.7216 144.447 23.3888C144.373 23.0191 144.595 22.9821 144.965 23.0191C147.923 23.3149 151.953 24.0174 153.136 24.3871C154.319 24.7568 154.208 25.3484 153.617 25.7551C153.173 26.0509 152.249 26.4207 152.249 26.4207V32.5953H161.899V27.2711C161.899 25.2745 161.751 23.7216 161.714 23.3888V23.3888ZM311.125 29.6743H297.814V38.0304H311.125V29.6743ZM330.018 42.0235C330.573 41.8387 336.23 40.2488 340.962 37.4758C345.843 34.6288 350.058 31.1903 350.058 31.1903C350.058 31.1903 350.465 30.7835 351.833 30.7835C352.535 30.7835 352.979 30.5987 353.238 30.2659C353.46 29.9701 353.534 29.6004 352.757 28.8979C351.722 28.0105 348.801 25.8661 347.47 25.0526C346.915 24.7199 346.176 24.1283 345.399 24.2022C344.623 24.2762 344.438 25.0526 344.105 25.4963C343.699 26.0509 342.441 28.3433 339.003 32.1886C334.492 37.2539 332.015 38.9547 329.464 40.7664C329.094 41.0253 328.465 41.2471 328.576 41.7278C328.687 42.2084 329.501 42.1714 330.018 42.0235V42.0235ZM353.164 43.5025C353.866 43.5395 354.236 43.2437 354.384 42.9109C354.569 42.5412 354.384 41.9496 353.312 41.2101C352.129 40.4337 348.764 38.2522 347.47 37.5497C346.915 37.2539 346.102 36.6624 345.362 36.8842C344.623 37.106 344.327 37.9934 344.068 38.5111C343.772 39.1026 342.478 42.1714 339.668 46.4974C336.008 52.1913 332.791 55.6668 329.759 58.6617C329.427 58.9945 329.02 59.3642 329.205 59.8448C329.39 60.2885 330.166 60.1406 330.684 59.8818C331.127 59.66 335.342 57.5155 340.815 53.3005V68.9404C340.815 74.0427 340.778 77.5922 340.63 79.33C340.556 80.1434 340.519 81.4744 343.144 81.4744C345.732 81.4744 347.211 80.735 347.877 80.2913C348.505 79.8846 348.505 79.293 348.505 78.6644V52.2283C348.505 51.267 348.986 50.6384 349.614 50.3056C350.132 50.0468 350.243 49.7141 350.206 49.4183C350.169 49.1595 349.688 48.7158 348.875 48.3091C348.579 48.1612 348.061 47.9393 347.396 47.6805C349.245 45.9058 350.354 44.6117 350.576 44.3529C351.019 43.9462 351.611 43.4285 353.164 43.5025V43.5025ZM391.247 45.2403C389.324 43.6874 387.254 42.2824 386.477 41.8017C385.738 41.358 385.294 41.0622 384.517 41.0622C384 41.0992 383.482 41.5059 383.149 41.8756C382.817 42.2454 379.526 46.0907 379.526 46.0907H356.75C354.495 46.0907 352.905 45.8688 352.35 45.7579C352.202 45.7209 352.202 45.8318 352.276 45.9058C352.35 45.9797 354.051 48.1242 354.051 48.1242C354.051 48.1242 355.456 47.8654 358.414 47.8654H373.056V71.6394C373.056 72.268 372.908 72.6377 372.316 72.8226C372.057 72.8965 368.988 73.1554 362.851 72.0831C362.407 72.0092 362.222 72.1941 362.185 72.3419C362.111 72.4898 362.148 72.8596 362.481 73.0814C362.888 73.3772 367.103 75.004 368.397 77.814C369.062 79.256 369.321 80.5501 369.321 80.5501C369.321 80.5501 369.358 81.3265 370.615 81.3265C371.466 81.3265 376.124 80.9938 378.602 79.4779C381.079 77.9619 381.744 76.7048 381.707 74.4495C381.67 73.4512 381.634 70.6411 381.634 67.9421V50.4166C381.634 49.2334 381.966 48.8637 382.817 48.42C383.112 48.2721 383.223 48.0503 383.26 47.9024H391.505C391.986 47.9024 392.689 47.6435 392.689 46.941C392.615 46.3864 392.282 46.0537 391.247 45.2403V45.2403ZM358.192 32.2255C358.192 32.2255 359.597 31.9667 362.555 31.9667C365.513 31.9667 386.033 31.9297 386.551 31.9297C387.032 31.9297 387.734 31.6709 387.734 30.9684C387.734 30.4878 387.401 30.155 386.366 29.3046C384.444 27.7517 382.373 26.3467 381.56 25.8661C380.82 25.4224 380.376 25.1266 379.6 25.1266C379.082 25.1266 378.565 25.5703 378.232 25.94C377.899 26.3097 374.609 30.155 374.609 30.155H360.891C358.636 30.155 357.046 29.9332 356.491 29.8222C356.344 29.7853 356.344 29.8962 356.417 29.9701C356.491 30.0811 358.192 32.2255 358.192 32.2255" fill="#231916"/>
<path d="M96.0113 14.0354C95.3458 25.2014 91.6484 38.3271 84.8453 51.4158C70.3886 79.146 44.9137 98.0396 29.7175 90.8297C20.585 86.4668 17.6641 75.4117 19.4019 59.9936C10.0106 84.729 13.1163 105.656 26.7596 112.164C43.3978 120.113 69.9818 101.515 86.1024 70.6791C97.1575 49.4192 100.448 27.9744 96.0113 14.0354" fill="#004898"/>
<path d="M77.9299 34.7792C63.2143 46.7217 45.6519 52.1199 38.6269 45.8343C34.19 41.8781 34.5967 34.7422 38.1092 27.5324C27.165 39.0681 24.355 52.4156 30.6775 58.6272C38.479 66.3547 57.7422 62.7683 74.7132 48.0158C86.8035 37.4783 93.3109 24.0568 94.0134 14C91.9799 20.1007 86.4338 27.9021 77.9299 34.7792" fill="#F4A100"/>
<path d="M380.634 92.2332C380.782 92.2332 380.893 92.3441 380.893 92.492V93.0096C380.893 93.1575 380.782 93.2684 380.634 93.2684C379.34 93.3424 378.933 93.4903 378.637 93.7491C378.379 94.0079 378.231 94.3407 378.231 95.5238V104.434C378.231 105.839 378.416 106.986 378.822 107.725C379.525 109.056 380.893 109.833 382.963 109.833C385.219 109.833 386.698 109.13 387.474 107.688C387.918 106.875 388.103 105.581 388.103 103.843V96.5591C388.103 94.7843 387.881 94.1928 387.622 93.897C387.252 93.5272 386.624 93.3424 385.625 93.2314C385.478 93.2314 385.404 93.1205 385.404 92.9726V92.455C385.404 92.3071 385.515 92.1962 385.662 92.1962H392.355C392.503 92.1962 392.613 92.3071 392.613 92.455V92.9726C392.613 93.1205 392.503 93.1945 392.392 93.2314C391.098 93.3793 390.617 93.6381 390.358 93.9339C390.062 94.2667 389.914 94.8213 389.914 96.5591V103.806C389.914 105.95 389.582 107.318 388.953 108.428C387.77 110.498 385.551 111.533 382.298 111.533C379.118 111.533 376.9 110.498 375.716 108.465C375.088 107.392 374.755 105.95 374.755 104.176V95.4499C374.755 94.2667 374.644 93.9709 374.348 93.6751C374.09 93.4163 373.646 93.2684 372.389 93.1945C372.241 93.1945 372.167 93.0836 372.167 92.9357V92.418C372.167 92.2701 372.278 92.1592 372.426 92.1592H380.634V92.2332ZM224.864 91.8634C227.489 91.8634 229.744 92.7138 231.556 94.4146C233.516 96.2263 234.514 98.7036 234.514 101.735C234.514 104.804 233.479 107.318 231.482 109.167C229.67 110.794 227.452 111.644 224.901 111.644C222.165 111.644 219.835 110.72 218.024 108.908C216.175 107.06 215.251 104.656 215.251 101.772C215.251 98.7405 216.249 96.2633 218.209 94.4146C219.983 92.7138 222.202 91.8634 224.864 91.8634V91.8634ZM361.851 91.8634C364.476 91.8634 366.732 92.7138 368.544 94.4146C370.503 96.2263 371.501 98.7036 371.501 101.735C371.501 104.804 370.466 107.318 368.47 109.167C366.658 110.794 364.44 111.644 361.888 111.644C359.152 111.644 356.823 110.72 355.048 108.908C353.2 107.06 352.275 104.656 352.275 101.772C352.275 98.7405 353.273 96.2633 355.233 94.4146C357.008 92.7138 359.226 91.8634 361.851 91.8634V91.8634ZM171.733 92.0853C171.807 92.0853 171.881 92.1222 171.918 92.1962L182.418 105.137V96.4851C182.418 94.6734 182.196 94.0079 181.79 93.6751C181.494 93.4163 181.124 93.2684 179.904 93.1575C179.756 93.1575 179.682 93.0466 179.682 92.8987V92.3811C179.682 92.2332 179.793 92.1222 179.941 92.1222H186.67C186.818 92.1222 186.929 92.2332 186.929 92.3811V92.8987C186.929 93.0466 186.818 93.1575 186.707 93.1575C185.709 93.2684 185.08 93.3793 184.71 93.86C184.415 94.2297 184.23 94.7843 184.23 96.5221V111.349C184.23 111.496 184.119 111.607 183.971 111.607H183.49C183.416 111.607 183.342 111.57 183.305 111.533L171.141 96.596V106.838C171.141 108.649 171.363 109.278 171.733 109.648C171.992 109.907 172.361 110.054 173.581 110.202C173.729 110.202 173.803 110.313 173.803 110.461V110.979C173.803 111.127 173.692 111.238 173.544 111.238H166.852C166.704 111.238 166.593 111.127 166.593 110.979V110.461C166.593 110.313 166.704 110.202 166.815 110.202C168.183 110.054 168.553 109.944 168.923 109.5C169.255 109.093 169.366 108.576 169.366 106.838V94.4885L169.034 94.1188C168.553 93.5642 168.294 93.3793 168.072 93.3054C167.813 93.1945 167.407 93.1575 166.852 93.1205C166.704 93.1205 166.593 93.0096 166.593 92.8617V92.3441C166.593 92.1962 166.704 92.0853 166.852 92.0853H171.733V92.0853ZM295.077 92.0853C295.151 92.0853 295.225 92.1222 295.262 92.1962L305.762 105.137V96.4851C305.762 94.6734 305.54 94.0079 305.134 93.6751C304.838 93.4163 304.468 93.2684 303.248 93.1575C303.1 93.1575 303.026 93.0466 303.026 92.8987V92.3811C303.026 92.2332 303.137 92.1222 303.285 92.1222H309.977C310.125 92.1222 310.236 92.2332 310.236 92.3811V92.8987C310.236 93.0466 310.125 93.1575 310.014 93.1575C309.016 93.2684 308.387 93.3793 308.018 93.86C307.722 94.2297 307.537 94.7843 307.537 96.5221V111.349C307.537 111.496 307.426 111.607 307.278 111.607H306.835C306.761 111.607 306.687 111.57 306.65 111.533L294.522 96.633V106.875C294.522 108.686 294.744 109.315 295.114 109.685C295.373 109.944 295.742 110.091 296.963 110.239C297.11 110.239 297.184 110.35 297.184 110.498V111.016C297.184 111.164 297.073 111.275 296.926 111.275H290.233C290.085 111.275 289.975 111.164 289.975 111.016V110.498C289.975 110.35 290.085 110.239 290.196 110.239C291.564 110.091 291.934 109.981 292.304 109.537C292.637 109.13 292.748 108.612 292.748 106.875V94.5255L292.415 94.1558C291.934 93.6012 291.675 93.4163 291.453 93.3424C291.195 93.2314 290.788 93.1945 290.233 93.1575C290.085 93.1575 289.975 93.0466 289.975 92.8987V92.3811C289.975 92.2332 290.085 92.1222 290.233 92.1222H295.077V92.0853ZM328.205 91.7155C328.353 91.7155 328.464 91.8264 328.464 91.9743L328.686 97.9271C328.686 98.0011 328.649 98.075 328.612 98.112C328.575 98.149 328.501 98.1859 328.427 98.1859H327.762C327.651 98.1859 327.577 98.112 327.54 98.038C326.985 96.707 326.394 95.7087 325.765 95.0431C324.693 93.9339 323.288 93.3793 321.55 93.3793C319.812 93.3793 318.222 94.0449 316.891 95.3759C315.56 96.707 314.895 98.9254 314.895 101.957C314.895 104.471 315.56 106.468 316.891 107.873C318.222 109.278 319.886 109.981 321.846 109.981C322.179 109.981 322.585 109.944 323.029 109.87C323.473 109.796 323.916 109.722 324.323 109.574C325.173 109.315 325.432 109.13 325.506 109.056C325.654 108.908 325.691 108.76 325.691 108.539V104.065C325.691 102.734 325.543 102.438 325.321 102.216C325.063 101.957 324.656 101.846 323.436 101.772C323.288 101.772 323.177 101.661 323.177 101.514V100.996C323.177 100.848 323.288 100.737 323.436 100.737H330.72C330.867 100.737 330.978 100.848 330.978 100.996V101.514C330.978 101.661 330.867 101.772 330.756 101.772C329.906 101.846 329.647 101.92 329.462 102.068C329.056 102.401 328.982 102.845 328.982 103.658V109.019C328.982 109.315 328.908 109.537 328.612 109.759C328.279 110.017 327.614 110.35 326.32 110.757C324.656 111.312 323.029 111.607 321.513 111.607C318.666 111.607 316.263 110.757 314.303 109.13C312.159 107.318 311.05 104.841 311.05 101.809C311.05 99.1103 311.9 96.7809 313.638 94.8953C315.523 92.7878 318.075 91.7155 321.18 91.7155C322.29 91.7155 323.436 91.8634 324.508 92.1962C326.541 92.7878 326.8 92.6029 326.985 92.455C327.17 92.3071 327.244 92.1222 327.355 91.8634C327.392 91.7525 327.503 91.7155 327.614 91.7155H328.205V91.7155ZM134.796 92.0853C137.162 92.0853 139.048 92.418 140.453 93.1945C141.895 94.0079 142.708 95.228 142.708 97.1506C142.708 98.5556 142.117 99.6279 141.082 100.367C140.675 100.663 140.12 100.922 139.455 101.144C140.416 101.44 141.303 101.92 142.08 102.512C143.078 103.288 143.596 104.397 143.596 105.766C143.596 108.058 142.487 109.685 140.305 110.535C139.159 110.979 137.791 111.201 136.127 111.201H126.699C126.551 111.201 126.44 111.09 126.44 110.942V110.424C126.44 110.276 126.551 110.165 126.699 110.165C128.067 110.091 128.51 109.981 128.806 109.685C129.102 109.389 129.213 109.093 129.213 107.873V95.3759C129.213 94.1928 129.102 93.86 128.806 93.5642C128.51 93.3054 128.067 93.1575 126.699 93.0835C126.551 93.0835 126.44 92.9726 126.44 92.8247V92.3071C126.44 92.1592 126.551 92.0483 126.699 92.0483H134.796V92.0853ZM155.095 91.7155C155.205 91.7155 155.279 91.7895 155.316 91.8634L162.452 107.836C163.007 109.093 163.266 109.463 163.525 109.722C163.82 110.017 164.19 110.091 164.819 110.165C164.967 110.165 165.04 110.276 165.04 110.424V110.942C165.04 111.09 164.93 111.201 164.782 111.201H157.498C157.35 111.201 157.239 111.09 157.239 110.942V110.424C157.239 110.276 157.35 110.165 157.461 110.165C158.459 110.091 158.718 110.054 158.866 109.907C159.125 109.722 159.31 109.463 159.088 108.723C158.977 108.391 158.866 108.021 158.681 107.651L157.609 105.1H150.436C149.733 106.838 149.29 107.91 149.142 108.317C148.994 108.686 148.957 108.982 148.957 109.204C148.957 109.574 149.105 109.833 149.401 109.944C149.548 110.017 149.881 110.091 150.695 110.165C150.843 110.165 150.917 110.276 150.917 110.424V110.942C150.917 111.09 150.806 111.201 150.658 111.201H144.964C144.816 111.201 144.705 111.09 144.705 110.942V110.424C144.705 110.276 144.816 110.165 144.927 110.165C145.592 110.091 146.073 109.87 146.406 109.426C146.738 108.982 147.367 107.725 148.254 105.692L154.207 91.8634C154.244 91.7525 154.355 91.7155 154.429 91.7155H155.095V91.7155ZM196.135 92.0853C196.283 92.0853 196.394 92.1962 196.394 92.3441V92.8617C196.394 93.0096 196.283 93.1205 196.135 93.1205C194.841 93.1945 194.398 93.3054 194.139 93.6012C193.88 93.897 193.732 94.2297 193.732 95.3759V100.589C195.285 99.2951 196.616 98.149 197.614 97.1876C200.239 94.7104 200.535 94.0449 200.535 93.7861C200.535 93.5272 200.424 93.3793 200.202 93.3054C199.87 93.1945 199.426 93.1575 198.834 93.1575C198.687 93.1575 198.576 93.0466 198.576 92.8987V92.3811C198.576 92.2332 198.687 92.1222 198.834 92.1222H206.34C206.488 92.1222 206.599 92.2332 206.599 92.3811V92.8987C206.599 93.0466 206.488 93.1575 206.377 93.1575C205.49 93.2314 204.935 93.3424 204.307 93.6382C203.826 93.897 203.086 94.4516 202.162 95.302L196.764 100.182C197.836 101.329 203.419 107.244 203.419 107.207C204.639 108.502 205.49 109.315 205.933 109.611C206.451 109.981 206.969 110.091 207.782 110.202C207.893 110.202 208.004 110.313 208.004 110.461V110.942C208.004 111.09 207.893 111.201 207.745 111.201H198.982C198.834 111.201 198.723 111.09 198.723 110.942V110.461C198.723 110.313 198.834 110.202 198.982 110.202C199.944 110.165 200.35 110.091 200.535 110.017C200.72 109.944 201.016 109.796 200.609 109.13C200.424 108.834 200.092 108.428 199.722 108.058L194.324 102.401L193.732 102.956V107.947C193.732 109.13 193.843 109.537 194.139 109.722C194.435 109.981 194.804 110.091 196.098 110.202C196.246 110.202 196.32 110.313 196.32 110.461V110.942C196.32 111.09 196.209 111.201 196.061 111.201H187.964C187.816 111.201 187.705 111.09 187.705 110.942V110.461C187.705 110.313 187.816 110.202 187.927 110.202C189.369 110.091 189.702 109.907 189.924 109.685C190.183 109.389 190.293 109.056 190.293 107.577V95.3759C190.293 94.1928 190.109 93.823 189.924 93.6012C189.665 93.3054 189.258 93.1945 187.964 93.1205C187.816 93.1205 187.705 93.0096 187.705 92.8617V92.3441C187.705 92.1962 187.816 92.0853 187.964 92.0853H196.135V92.0853ZM340.148 92.0853C340.296 92.0853 340.407 92.1962 340.407 92.3441V92.8617C340.407 93.0096 340.296 93.1205 340.148 93.1205C338.854 93.1945 338.41 93.3054 338.151 93.6012C337.892 93.897 337.745 94.2297 337.745 95.3759V100.589C339.297 99.2951 340.628 98.149 341.627 97.1876C344.252 94.7104 344.548 94.0449 344.548 93.7861C344.548 93.5272 344.437 93.3793 344.215 93.3054C343.919 93.1945 343.438 93.1575 342.847 93.1575C342.699 93.1575 342.588 93.0466 342.588 92.8987V92.3811C342.588 92.2332 342.699 92.1222 342.847 92.1222H350.353C350.5 92.1222 350.611 92.2332 350.611 92.3811V92.8987C350.611 93.0466 350.5 93.1575 350.39 93.1575C349.502 93.2314 348.948 93.3424 348.319 93.6382C347.838 93.897 347.099 94.4516 346.175 95.302L340.813 100.182C341.886 101.329 347.469 107.244 347.469 107.207C348.689 108.502 349.539 109.315 349.983 109.611C350.5 109.981 351.018 110.091 351.831 110.202C351.979 110.202 352.053 110.313 352.053 110.461V110.942C352.053 111.09 351.942 111.201 351.795 111.201H343.032C342.884 111.201 342.773 111.09 342.773 110.942V110.461C342.773 110.313 342.884 110.202 343.032 110.202C343.993 110.165 344.4 110.091 344.548 110.017C344.733 109.944 345.028 109.796 344.622 109.13C344.437 108.834 344.104 108.428 343.734 108.058L338.373 102.401L337.781 102.956V107.947C337.781 109.13 337.929 109.537 338.188 109.722C338.484 109.981 338.891 110.091 340.148 110.202C340.296 110.202 340.37 110.313 340.37 110.461V110.942C340.37 111.09 340.259 111.201 340.111 111.201H331.977C331.829 111.201 331.718 111.09 331.718 110.942V110.461C331.718 110.313 331.829 110.202 331.94 110.202C333.382 110.091 333.714 109.907 333.936 109.685C334.195 109.389 334.306 109.056 334.306 107.577V95.3759C334.306 94.1928 334.121 93.823 333.899 93.6012C333.64 93.3054 333.234 93.1945 331.94 93.1205C331.792 93.1205 331.681 93.0096 331.681 92.8617V92.3441C331.681 92.1962 331.792 92.0853 331.94 92.0853H340.148V92.0853ZM288.533 92.0853C288.68 92.0853 288.791 92.1962 288.791 92.3441V92.8617C288.791 93.0096 288.68 93.1205 288.533 93.1205C287.165 93.1945 286.684 93.3424 286.425 93.6012C286.166 93.86 286.018 94.2297 286.018 95.4129V107.91C286.018 109.204 286.203 109.537 286.425 109.722C286.684 109.944 287.165 110.091 288.533 110.165C288.68 110.165 288.754 110.276 288.754 110.424V110.942C288.754 111.09 288.643 111.201 288.496 111.201H280.029C279.881 111.201 279.77 111.09 279.77 110.942V110.424C279.77 110.276 279.881 110.165 279.992 110.165C281.36 110.054 281.84 109.944 282.099 109.722C282.358 109.537 282.506 109.204 282.506 107.91V95.4129C282.506 94.2297 282.321 93.823 282.062 93.6012C281.766 93.3424 281.323 93.1945 279.955 93.1205C279.807 93.1205 279.696 93.0096 279.696 92.8617V92.3441C279.696 92.1962 279.807 92.0853 279.955 92.0853H288.533ZM250.967 92.0853C251.115 92.0853 251.226 92.1962 251.226 92.3441L251.337 96.3742C251.337 96.4482 251.3 96.5221 251.263 96.5591C251.226 96.5961 251.152 96.633 251.078 96.633H250.265C250.117 96.633 250.043 96.5221 250.006 96.4112C249.821 95.228 249.562 94.4886 249.008 94.1558C248.342 93.7121 247.492 93.6751 245.902 93.6751H241.946C241.428 93.6751 241.317 93.86 241.317 94.3776V100.404H245.236C246.678 100.404 247.085 100.256 247.418 99.9607C247.825 99.5539 247.972 98.9624 248.157 97.9271C248.194 97.8162 248.305 97.7053 248.416 97.7053H249.082C249.23 97.7053 249.34 97.8162 249.34 97.9641V104.471C249.34 104.619 249.23 104.73 249.082 104.73H248.416C248.305 104.73 248.194 104.656 248.157 104.508C247.898 103.214 247.677 102.734 247.381 102.475C247.085 102.179 246.641 102.031 245.236 102.031H241.317V107.91C241.317 109.093 241.465 109.463 241.724 109.685C241.983 109.907 242.426 110.091 243.683 110.165C243.831 110.165 243.905 110.276 243.905 110.424V110.942C243.905 111.09 243.794 111.201 243.647 111.201H235.549C235.401 111.201 235.29 111.09 235.29 110.942V110.424C235.29 110.276 235.401 110.165 235.512 110.165C236.917 110.017 237.213 109.907 237.472 109.648C237.731 109.389 237.805 109.056 237.805 107.577V95.4129C237.805 94.2667 237.694 93.9339 237.398 93.6382C237.102 93.3424 236.732 93.2314 235.512 93.1575C235.364 93.1575 235.253 93.0466 235.253 92.8987V92.3811C235.253 92.2332 235.364 92.1222 235.512 92.1222H250.967V92.0853ZM267.384 92.0853C267.532 92.0853 267.642 92.1962 267.642 92.3441V92.8617C267.642 92.9357 267.605 93.0096 267.568 93.0466C267.532 93.0836 267.458 93.1205 267.384 93.1205C266.755 93.1205 266.274 93.1575 265.979 93.2684C265.72 93.3793 265.461 93.6012 265.72 94.1558C265.757 94.2667 265.868 94.4516 266.09 94.7843L270.083 100.552C270.896 99.3321 273.817 94.9322 273.965 94.7104C274.113 94.4516 274.224 94.2297 274.261 94.0818C274.409 93.6382 274.261 93.3793 273.854 93.2314C273.706 93.1945 273.336 93.1205 272.597 93.1205C272.449 93.1205 272.338 93.0096 272.338 92.8617V92.3441C272.338 92.1962 272.449 92.0853 272.597 92.0853H278.845C278.993 92.0853 279.104 92.1962 279.104 92.3441V92.8617C279.104 93.0096 278.993 93.1205 278.845 93.1205C278.328 93.1205 277.847 93.3054 277.44 93.6012C276.775 94.0818 275.998 94.9692 275.148 96.2263L270.97 102.512V107.91C270.97 109.13 271.118 109.5 271.414 109.722C271.71 109.944 272.19 110.091 273.669 110.165C273.817 110.165 273.928 110.276 273.928 110.424V110.942C273.928 111.09 273.817 111.201 273.669 111.201H264.943C264.795 111.201 264.685 111.09 264.685 110.942V110.424C264.685 110.276 264.795 110.165 264.943 110.165C266.533 110.091 266.903 109.981 267.199 109.685C267.495 109.389 267.605 109.093 267.605 107.577V102.771C267.199 102.142 263.908 97.4464 263.908 97.4464C262.614 95.5977 261.727 94.4146 261.209 93.897C260.728 93.4163 260.174 93.1575 259.471 93.1205C259.323 93.1205 259.212 93.0096 259.212 92.8617V92.3441C259.212 92.1962 259.323 92.0853 259.471 92.0853H267.384V92.0853ZM361.888 93.3793C360.261 93.3793 358.856 94.0449 357.71 95.3759C356.564 96.707 355.973 98.8514 355.973 101.735C355.973 104.582 356.564 106.727 357.673 108.095C358.82 109.426 360.188 110.091 361.851 110.091C363.441 110.091 364.846 109.426 365.992 108.132C367.139 106.838 367.73 104.656 367.73 101.735C367.73 98.7775 367.139 96.596 365.992 95.302C364.846 94.0449 363.441 93.3793 361.888 93.3793V93.3793ZM224.864 93.3793C223.237 93.3793 221.832 94.0449 220.686 95.3759C219.54 96.707 218.948 98.8514 218.948 101.735C218.948 104.582 219.54 106.727 220.649 108.095C221.795 109.426 223.2 110.091 224.827 110.091C226.417 110.091 227.822 109.426 228.968 108.132C230.114 106.838 230.706 104.656 230.706 101.735C230.706 98.7775 230.114 96.596 228.931 95.302C227.822 94.0449 226.417 93.3793 224.864 93.3793V93.3793ZM133.761 102.068H132.652V108.908C132.652 109.463 133.021 109.574 133.095 109.574C133.28 109.611 133.502 109.685 134.796 109.685C136.238 109.685 137.421 109.426 138.382 108.871C139.307 108.354 139.75 107.392 139.75 105.876C139.75 104.397 139.196 103.436 138.124 102.882C137.014 102.327 135.277 102.068 133.761 102.068V102.068ZM154.059 96.596L151.175 103.436H156.943L154.059 96.596ZM133.724 93.6751C132.799 93.6751 132.652 93.86 132.652 94.3776V100.404H135.166C135.905 100.404 136.867 100.256 137.495 99.9607C138.641 99.443 139.159 98.5556 139.159 97.2616C139.159 95.7087 138.53 94.6734 137.199 94.1188C136.423 93.823 135.277 93.6751 133.724 93.6751V93.6751Z" fill="#231916"/>
</svg>
