<svg width="128" height="128" viewBox="0 0 128 128" fill="none" xmlns="http://www.w3.org/2000/svg">
<path d="M48.05 62.55C48.05 55.6 52.55 49.4 59.25 47.25C65.95 45.1 73.25 47.35 77.45 52.95L71.3 57.5C69.1 54.55 65.25 53.3 61.7 54.45C58.2 55.6 55.8 58.85 55.8 62.5C55.8 66.25 58.25 69.6 61.9 70.65C65.55 71.75 69.45 70.35 71.55 67.2L77.75 71.8C73.65 77.55 66.25 80 59.5 77.85C52.75 75.7 48.1 69.6 48.05 62.55ZM44.6 48.8C44.1 49.35 43.25 49.45 42.65 49C42.05 48.6 41.85 47.8 42.25 47.15C47.7 41.05 55.75 37.5 64.25 37.5C72.75 37.5 80.8 41.05 86.3 47.15C86.7 47.75 86.5 48.55 85.9 49C85.3 49.4 84.45 49.35 83.95 48.8C79 43.4 71.8 40.25 64.3 40.25C56.7 40.3 49.5 43.4 44.6 48.8ZM83.9 79.2C84.4 78.65 85.25 78.55 85.85 79C86.45 79.4 86.65 80.2 86.25 80.85C80.75 87 72.7 90.5 64.2 90.5C55.7 90.5 47.65 86.95 42.15 80.85C41.75 80.25 41.95 79.4 42.55 79C43.15 78.6 44 78.65 44.5 79.2C49.45 84.6 56.65 87.75 64.15 87.75C71.8 87.7 79 84.6 83.9 79.2Z" fill="#D80C18"/>
<path d="M42.1 69.75V69.65C42.1 65.35 39.85 63.2 36.2 61.8C38.75 60.5 40.35 57.8 40.3 54.9V54.8C40.3 49.75 36.35 46.5 30 46.5H15.5V78.5H30.4C37.45 78.5 42.1 75.6 42.1 69.75ZM33.5 56.05C33.5 58.45 31.6 59.45 28.55 59.45H22.2V52.65H29C31.95 52.65 33.5 53.85 33.5 55.95V56.05ZM35.25 68.8C35.25 71.2 33.4 72.3 30.4 72.3H22.2V65.3H30.2C33.7 65.3 35.3 66.6 35.25 68.8ZM113 68.9V68.8C113 63.35 109.15 61.1 102.35 59.45C96.55 58.05 95.1 57.4 95.1 55.35V55.25C95.1 53.8 96.6 52.55 99.45 52.55C102.65 52.7 105.7 53.8 108.3 55.65L112.15 50.5C108.55 47.85 104.15 46.45 99.65 46.55C92.7 46.55 87.75 50.3 87.75 55.95V56C87.75 62.2 92.15 63.9 98.9 65.55C104.55 66.9 105.7 67.8 105.7 69.5V69.6C105.7 71.45 103.85 72.55 100.85 72.55C97.15 72.45 93.65 71.1 90.85 68.7L86.45 73.55C90.35 76.75 95.45 78.55 100.7 78.55C107.95 78.55 113 75.1 113 68.9Z" fill="#9FA0A0"/>
</svg>
