<svg width="473" height="128" viewBox="0 0 473 128" fill="none" xmlns="http://www.w3.org/2000/svg">
<path d="M75.3285 61.254C75.3455 48.1212 83.775 36.4744 96.2519 32.3452C108.729 28.2163 122.45 32.5323 130.309 43.0586L118.75 51.7435C114.641 46.1695 107.414 43.8635 100.833 46.0262C94.2519 48.1894 89.8066 54.3317 89.8114 61.254C89.7745 68.3374 94.3991 74.6039 101.183 76.6628C107.966 78.7218 115.297 76.0842 119.21 70.1772L130.797 78.8781C123.116 89.7006 109.314 94.3182 96.6591 90.2996C84.0047 86.2815 75.4027 74.5487 75.3841 61.2814L75.3285 61.254V61.254ZM68.8268 35.3332C68.3591 35.8271 67.73 36.1372 67.0534 36.2075C66.3768 36.2779 65.6974 36.1037 65.1382 35.7165C64.5877 35.3452 64.2015 34.7759 64.06 34.1271C63.9185 33.4783 64.0326 32.8 64.3785 32.2332C74.673 20.6667 89.7376 14 105.601 14C121.464 14 136.529 20.6667 146.823 32.2332C147.544 33.4109 147.212 34.9168 146.064 35.7165C145.504 36.1037 144.825 36.2779 144.148 36.2075C143.472 36.1372 142.843 35.8271 142.375 35.3332C133.123 25.1111 119.7 19.2445 105.59 19.2445C91.4736 19.2445 78.0508 25.1168 68.8047 35.3332H68.8268V35.3332ZM142.375 92.6664C142.843 92.1726 143.472 91.8625 144.148 91.7923C144.825 91.722 145.504 91.8963 146.064 92.2835C146.614 92.6549 147 93.2241 147.142 93.8729C147.283 94.5217 147.169 95.2 146.823 95.7668C136.529 107.333 121.464 114 105.601 114C89.7376 114 74.673 107.333 64.3785 95.7668C64.0326 95.2 63.9185 94.5217 64.06 93.8729C64.2015 93.2241 64.5877 92.6549 65.1382 92.2835C65.6974 91.8964 66.3768 91.7221 67.0534 91.7925C67.73 91.8628 68.3591 92.173 68.8268 92.6669C78.0786 102.889 91.5014 108.755 105.612 108.755C119.728 108.755 133.151 102.883 142.397 92.6669H142.375L142.375 92.6664Z" fill="#D80C18"/>
<path d="M63.9646 75.0308V74.8593C63.9646 66.6607 59.7676 62.567 52.9225 59.8746C57.7412 57.4262 60.7613 52.2968 60.6502 46.7236V46.5574C60.6502 36.9517 53.2555 30.7973 41.3304 30.7973H14V91.7329H41.9634C55.2151 91.7329 63.9642 86.1762 63.9642 75.0308H63.9646ZM47.8426 48.9893C47.8426 53.5153 44.2286 55.4376 38.5382 55.4376H26.5849V42.5414H39.3435C44.8619 42.5414 47.8152 44.807 47.8152 48.8178L47.843 48.9893H47.8426ZM51.1014 73.2249C51.1014 77.751 47.6485 79.8451 41.9634 79.8451H26.5854V66.55H41.6026C48.2315 66.55 51.1848 69.0705 51.1848 73.1698L51.1014 73.2249V73.2249ZM197.203 73.4524V73.2805C197.203 62.9382 189.986 58.617 177.151 55.4706C166.22 52.8507 163.516 51.5653 163.516 47.66V47.4937C163.516 44.7128 166.308 42.3143 171.655 42.3143C177.654 42.6139 183.436 44.6564 188.293 48.1918L195.51 38.3535C188.731 33.3041 180.467 30.6484 172.016 30.803C158.969 30.803 149.676 37.9381 149.676 48.6958V48.8621C149.676 60.6556 157.903 63.9405 170.644 67.0097C181.22 69.5467 183.391 71.2475 183.391 74.5602V74.7265C183.391 78.2163 179.949 80.3048 174.27 80.3048C167.344 80.104 160.701 77.5147 155.466 72.9757L147.239 82.2267C154.611 88.3594 164.121 91.7381 173.975 91.7329C187.727 91.8436 197.203 85.2351 197.203 73.4524ZM321.798 27.0952H328.222C329.376 34.5218 330.999 41.8679 333.081 49.0895H326.601C324.484 41.8822 322.879 34.5344 321.798 27.1009V27.0952V27.0952ZM246.707 52.7556L246.168 51.7559H253.73L253.897 52.0615C258.179 59.4488 263.256 66.3453 269.039 72.6276L270.038 73.7445H261.099L260.938 73.5666C255.335 67.2586 250.555 60.266 246.712 52.7561H246.707V52.7556ZM245.929 41.3506L246.707 40.3839C250.69 35.1916 254.299 29.7225 257.506 24.0178H265.007C262.016 29.9871 258.607 35.7383 254.807 41.2286L254.619 41.473L245.923 41.3506H245.929H245.929ZM239.666 67.2389C239.647 67.5543 239.751 67.8647 239.955 68.1058C240.048 68.2161 240.165 68.3043 240.296 68.3638C240.428 68.4234 240.571 68.4529 240.715 68.4501H249.166L246.707 73.9277H237.934C237.157 74.0507 236.361 73.9723 235.623 73.7C234.885 73.4277 234.23 72.9705 233.719 72.3723C233.164 71.7269 232.754 70.9698 232.518 70.1521C232.281 69.3345 232.223 68.4755 232.348 67.6335V48.9111H225.413V43.6779H232.353V24.0452H239.638V43.6722H270.46V48.8165H239.666V67.2385V67.2389ZM288.084 23.9844H294.485C296.307 28.1741 298.446 32.2189 300.882 36.084H293.486C291.269 32.2504 289.46 28.195 288.089 23.9844H288.084ZM318.017 59.8282H313.969V24.0399H320.771V57.3168C322.378 55.4919 323.875 53.5719 325.251 51.567H333.025C327.651 59.9989 320.995 67.5412 313.297 73.9221H301.748C307.771 69.8389 313.358 65.1477 318.422 59.9224L318.017 59.8282ZM367.844 52.7504V57.8612H361.903V67.8723C361.879 68.1762 361.975 68.477 362.17 68.711C362.358 68.9333 362.631 69.0613 362.908 69.05H368.655L366.545 73.9221H360.671C359.989 73.9478 359.31 73.8146 358.689 73.533C358.067 73.2515 357.52 72.8293 357.089 72.2998C356.147 71.1542 355.698 69.6819 355.84 68.2057V57.8278H351.387V52.75H355.84V45.1278H351.654V39.8946H368.067V45.1278H361.964V52.75H367.85H367.844V52.7504ZM356.751 37.3177H350.76C352.319 32.9825 353.537 28.5318 354.402 24.0065H360.071C360.071 24.0065 359.749 26.2174 359.344 28.3346H368.25V33.4789H357.939C357.073 36.4395 356.751 37.3173 356.751 37.3173V37.3177ZM428.844 26.7067H458.322V31.8509H428.871L428.844 26.7067ZM388.761 25.2233C389.626 25.2257 390.479 25.4328 391.249 25.8277C392.019 26.2226 392.684 26.7941 393.191 27.4955C394.08 28.7175 394.557 30.2452 394.541 31.8175V45.1283C394.596 46.7393 394.152 48.3173 393.297 49.6005C392.758 50.3044 392.057 50.8675 391.254 51.2419C390.45 51.6163 389.568 51.7909 388.683 51.7507H383.908C384.688 54.3386 385.68 56.8582 386.873 59.2838C388.491 57.2725 389.87 55.08 390.982 52.7504H396.373L396.023 53.656C394.428 57.3696 392.322 60.842 389.766 63.9722C391.779 67.5135 394.141 70.8448 396.817 73.9164H389.766C384.588 67.3115 380.673 59.8085 378.217 51.7836H375.812V67.6891C375.786 67.8686 375.797 68.0514 375.845 68.2264C375.893 68.4013 375.976 68.5645 376.09 68.7058C376.317 68.9723 376.645 69.1169 376.978 69.0835H382.886L381.132 73.9164H375.029C370.898 73.9164 369.632 70.5056 369.632 66.5114V25.1956L388.766 25.2233H388.761ZM375.835 41.134V46.7006H386.845C387.039 46.7164 387.234 46.6865 387.415 46.6131C387.595 46.5397 387.755 46.425 387.883 46.2782C388.16 45.9618 388.3 45.548 388.272 45.1283V41.1062L375.835 41.134V41.134ZM386.845 30.4566H375.835V36.051H388.25V31.9677C388.25 31.1177 387.639 30.4288 386.873 30.4288L386.845 30.4566ZM414.218 34.6006C417.194 31.3225 419.849 27.7676 422.147 23.9844H428.272C424.776 31.0275 419.945 37.3237 414.046 42.5227L414.213 34.6006H414.218V34.6006ZM458.616 40.073V45.0341H453.652V69.05C453.703 70.2821 453.295 71.4893 452.508 72.4387C452.148 72.8786 451.697 73.2358 451.186 73.4859C450.676 73.7361 450.117 73.8735 449.549 73.8886H439.288L437.805 68.7779H445.662C445.662 68.7779 446.767 68.7779 446.767 67.6613V45.0341H428.494V40.0726H458.616V40.073ZM306.901 27.1009H313.108C312.226 35.6983 310.416 44.1751 307.711 52.3836H300.882C303.773 44.1916 305.791 35.7169 306.901 27.1009V27.1009ZM296.101 73.8609H288.328C291.502 68.0126 294.001 61.8231 295.779 55.4111H302.664C301.076 61.7816 298.869 67.9815 296.073 73.9221L296.101 73.8613V73.8609ZM288.439 38.6839H294.835C296.654 42.8753 298.792 46.9206 301.231 50.7839H293.836C291.619 46.9504 289.81 42.8949 288.439 38.6839H288.439ZM414.213 48.9059C417.194 45.6198 419.853 42.0553 422.153 38.2615H428.278C427.208 40.5714 425.965 42.7964 424.557 44.9173V73.9164H417.805V53.2614C416.54 54.595 415.324 55.7727 414.213 56.8337V48.9059V48.9059ZM230.882 103.846V87.0501H235.524C239.083 87.0501 241.534 88.164 241.534 91.2827C241.587 93.3456 240.044 95.0977 238.004 95.2913C238.538 95.2945 239.066 95.4029 239.559 95.6104C240.051 95.8178 240.498 96.1202 240.873 96.5003C241.244 96.8753 241.536 97.3217 241.73 97.8125C241.924 98.3033 242.016 98.8283 242.002 99.3559C242.002 102.989 238.966 103.846 235.463 103.846H230.882V103.846ZM233.328 96.1756H233.334L233.367 101.897H235.202C237.42 101.897 239.405 101.528 239.405 99.0364C239.405 96.5511 237.036 96.1756 234.94 96.1756H233.328V96.1756ZM233.328 88.9984H233.334V94.2051H234.673C237.07 94.2051 239.083 94.0037 239.083 91.518C239.083 89.5133 237.331 88.9984 235.902 88.9984H233.328ZM242.002 103.846L249.118 87.0501H251.62L258.681 103.846H256.073L254.372 99.619H246.199L244.498 103.846H242.002V103.846ZM253.633 97.6481L250.314 89.3062L246.994 97.6481H253.633V97.6481ZM261.116 103.846V87.0501H263.896L270.156 100.565H270.206V87.0501H272.236V103.846H269.622L263.195 90.0455H263.145V103.846H261.116V103.846ZM275.361 103.846V87.0501H277.374V94.44L283.311 87.0501H285.958L279.431 94.9778L286.481 103.846H283.573L277.374 95.6047V103.846H275.361V103.846ZM294.682 95.448C294.682 98.6669 296.388 101.718 300.38 101.718C304.372 101.718 306.079 98.7229 306.079 95.448C306.079 92.1726 304.2 89.1998 300.38 89.1777C296.561 89.1438 294.682 92.173 294.682 95.448ZM296.01 102.698C293.33 101.164 292.068 98.3961 292.068 95.448C291.807 92.5368 293.33 89.7316 296.01 88.1979C297.343 87.4448 298.849 87.049 300.38 87.049C301.912 87.049 303.417 87.4448 304.75 88.1979C307.43 89.7316 308.692 92.5368 308.692 95.4476C308.692 98.3592 307.43 101.164 304.75 102.698C302.071 104.226 298.69 104.226 296.01 102.698H296.01ZM310.179 103.846V87.0501H319.163V89.1885H312.586V94.0649H318.876V96.2038H312.586V103.846H310.179V103.846ZM342.053 87.7555L341.721 89.9951C340.632 89.3904 339.377 89.0822 338.109 89.0822C334.312 89.0822 331.238 91.9265 331.238 95.4311C331.238 98.9413 334.312 101.78 338.109 101.78C339.427 101.792 340.732 101.519 341.934 100.979L342.08 103.247C340.788 103.668 339.434 103.863 338.076 103.823C335.586 103.991 333.143 103.152 331.371 101.528C329.591 99.9046 328.662 97.6537 328.815 95.3473C328.735 93.1194 329.696 90.9541 331.49 89.3175C333.263 87.7386 335.653 86.9268 338.109 87.067C339.469 87.0405 340.818 87.2758 342.053 87.7555V87.7555ZM345.869 103.846V87.0501H347.982V94.0653H355.084V87.0501H357.197V103.846H355.084V96.2033H347.982V103.845H345.869V103.846ZM358.759 103.846L365.898 87.0501H368.389L375.439 103.846H372.831L371.135 99.619H362.979L361.278 103.846H358.759V103.846ZM370.368 97.6481L367.055 89.3062L363.741 97.6481H370.368V97.6481ZM377.575 103.846V87.0501H380.868L388.372 100.565H388.399V87.0501H390.856V103.846H387.734L380.031 90.0455H379.998V103.846H377.575V103.846ZM408.28 87.8662L407.964 90.2964C406.56 89.4652 404.937 89.0807 403.309 89.1937C399.653 89.1937 396.7 92.032 396.7 95.5426C396.7 99.0477 399.653 101.898 403.309 101.898C404.223 101.927 405.136 101.832 406.009 101.618V96.6735H402.444V94.6861H408.42V103.107C406.758 103.627 405.022 103.869 403.28 103.823C400.883 103.991 398.535 103.152 396.833 101.528C395.125 99.9042 394.232 97.6533 394.372 95.3464C394.28 93.1541 395.195 91.0101 396.946 89.3166C398.64 87.7377 400.954 86.9259 403.309 87.0657C405.022 87.014 406.726 87.2889 408.28 87.8662H408.28ZM425.504 87.6257H425.495L425.12 89.8484C424.18 89.4127 423.156 89.1872 422.12 89.1876C420.92 89.1876 419.401 89.6304 419.401 91.3322C419.401 94.4339 426.292 93.7228 426.292 99.042C426.292 102.474 423.648 103.846 420.433 103.846C419.255 103.78 418.122 103.544 417.133 103.157L417.357 101.019C418.322 101.459 419.469 101.734 420.676 101.813C421.064 101.852 421.456 101.811 421.827 101.691C422.198 101.572 422.54 101.377 422.832 101.119C423.47 100.503 423.808 99.7939 423.808 99.0698C423.808 95.4697 416.917 96.4608 416.917 91.4385C416.917 88.5886 419.176 87.0488 422.064 87.0488C423.276 87.057 424.463 87.2559 425.504 87.6257ZM427.952 103.846V87.0488H430.028V94.0645H436.981V87.0492H439.085V103.846H436.986V96.2033H430.028V103.846H427.952V103.846ZM440.647 103.846L447.814 87.0488H450.334L457.444 103.846H454.818L453.105 99.6185H444.874L443.161 103.846H440.648H440.647ZM452.36 97.6477L448.9 89.3053L445.563 97.6477H452.36Z" fill="#9FA0A0"/>
</svg>
