<svg width="128" height="128" viewBox="0 0 128 128" fill="none" xmlns="http://www.w3.org/2000/svg">
<path d="M93.15 37.6C92.3 37.6 69.75 37.55 65.1 37.55H43.95C42.8 37.55 37.45 37.15 37.45 38.1V43.7C37.45 44.65 42.95 44.25 44.15 44.25H65.3C69.65 44.25 90.6 44.2 93.15 44.2V47.15L37.45 47.3L37.25 47.5V52.75H93.15V55.65L37.45 55.85L37.25 56.05V61.65L93.15 61.85V64.75H37.25V90.4H56.8V90.2L57 86.4C57.5 83.15 58.45 81.7 60.45 79.7C65.95 76.05 73.75 78.25 74.75 85.3L74.95 86.2L75.3 90.15V90.35H88.7L89.05 90.15V73.35H46.65V85.45H42.85V70.3H93.5V93.5H71.25C71.4 90.2 72.75 83.9 68.9 82.15C60.2 80.1 59.85 87.2 60.2 93.15L34 92.95C34 73.45 34.1 53.95 34.2 34.5H93.15V37.6ZM28.5 100H99.5V28H28.5V100Z" fill="#DE0516"/>
</svg>
