<svg width="128" height="128" viewBox="0 0 128 128" fill="none" xmlns="http://www.w3.org/2000/svg">
<path d="M57.587 23.6452C67.3185 22.9952 72.6955 30.1707 75.779 33.5812L77.724 35.6872L95.526 54.7877L84.469 65.6067L63.844 44.8162L42.795 66.8782L63.2075 88.7292L84.6835 66.6672L87.565 66.5872C91.61 66.4892 98.8435 66.3702 102.117 66.6672C105.385 66.9637 106.266 68.1902 106.5 68.9037C105.185 91.5487 86.6835 109.5 64.041 109.5C40.5445 109.5 21.5 90.1702 21.5 66.3257C21.5 44.7077 37.155 26.8007 57.587 23.6457V23.6452ZM106.5 42.7167L97.523 51.4872L97.2335 51.1102C94.294 47.3007 69.74 16.0567 59.683 22.0457L59.389 22.2342C60.2115 21.6607 81.028 7.67018 106.5 42.7167Z" fill="#06569F"/>
</svg>
