<svg width="128" height="128" viewBox="0 0 128 128" fill="none" xmlns="http://www.w3.org/2000/svg">
<path d="M72.55 63.95C64.05 55.45 55.55 46.95 47.1 38.45V38.35L63.85 21.5H63.95L106.35 63.95C106.3 64.05 106.25 64.1 106.2 64.2L72.55 63.95ZM64 106.45L63.9 106.5L64 106.45ZM42.5 64.25C42.45 64.2 42.45 64.15 42.4 64.05C38.9 60.55 35.45 57.05 31.95 53.6V53.5L44.9 40.55L68.55 64.15L42.5 64.25ZM32.15 74.7V74.6V74.7ZM21.5 64.05V63.95L29.75 55.7L38.4 64.35V64.5L21.5 64.05ZM30.3 72.6C30.25 72.65 30.2 72.65 30.15 72.7L30.3 72.6Z" fill="#00639E"/>
<path d="M63.85 106.5L47.05 89.6499L72.5 63.95H106.35C106.3 64.05 106.25 64.0999 106.2 64.1999L64 106.45L63.85 106.5ZM45.05 87.6499C40.75 83.2999 36.45 78.9999 32.1 74.6499V74.55L42.5 64.25C42.45 64.2 42.45 64.15 42.4 64.05L68.55 64.15L45.05 87.6499ZM30.15 72.6999L21.5 64.05V63.95L38.4 64.3499V64.5C35.7 67.1999 33 69.9 30.3 72.6499C30.25 72.6499 30.2 72.6499 30.15 72.6999Z" fill="#6088B7"/>
</svg>
