<svg width="479" height="128" viewBox="0 0 479 128" fill="none" xmlns="http://www.w3.org/2000/svg">
<path d="M185.08 23.6547L187.959 24.3633C188.269 24.4518 189.553 24.629 191.767 24.8947C193.982 25.1604 195.089 26.179 195.133 27.9505C195.178 29.722 194.469 30.7849 193.052 31.1835L190.262 31.9806C187.029 32.9107 185.39 33.7078 185.434 34.3721C185.434 34.4607 185.479 34.5936 185.523 34.7707C185.612 34.9922 185.7 35.2136 185.922 35.4793C186.099 35.745 186.497 35.8779 187.073 35.8779L188.579 35.8336C189.996 35.8336 190.882 35.9222 191.192 36.1436C191.502 36.3651 191.679 36.6308 191.723 36.9851C191.723 37.3394 191.59 37.6494 191.236 37.9151C190.926 38.1808 190.483 38.3137 189.907 38.3137L187.383 38.4908C187.206 38.5351 187.073 38.5794 186.984 38.668C186.896 38.7566 186.852 38.8894 186.852 38.978C186.807 39.1109 186.896 39.3766 187.029 39.7752C187.117 40.0852 187.162 40.2623 187.25 40.3509C187.339 40.4395 187.472 40.4838 187.693 40.528L190.572 40.3952C191.147 40.528 191.457 40.8823 191.457 41.4581C191.413 42.2995 190.882 42.7867 189.774 42.8753L188.313 42.9638C187.87 43.0524 187.649 43.0967 187.604 43.2296C187.56 43.3181 187.604 43.4953 187.649 43.7167L187.782 44.6467C187.826 44.8239 187.87 44.9567 187.959 45.0453C188.047 45.1339 188.402 45.1782 188.977 45.1782L190.97 45.2668C192.077 45.3553 192.875 45.4882 193.273 45.6653C193.672 45.8425 193.893 46.1968 193.893 46.7282C193.849 47.6583 192.963 48.1454 191.192 48.1897C189.42 48.234 188.446 48.3226 188.269 48.4554C188.136 48.5883 188.047 48.7654 188.047 48.9869V49.2969L188.136 52.7513C188.092 54.4342 188.003 55.8071 187.826 56.9585C187.649 58.11 187.206 59.3057 186.453 60.5458C185.7 61.8301 184.637 62.7601 183.309 63.3801C181.936 64.0002 180.607 64.3102 179.278 64.3102C177.95 64.3102 176.666 64.0445 175.47 63.5573C174.274 63.0701 173.344 62.4944 172.768 61.8744C172.193 61.2544 171.705 60.5015 171.307 59.66C170.908 58.8186 170.731 58.1986 170.82 57.8443C170.864 57.49 171.041 57.3128 171.351 57.3128C171.395 57.3571 171.44 57.3571 171.528 57.4014C171.617 57.4457 171.794 57.5785 172.148 57.8C172.503 58.0657 173.034 58.2871 173.743 58.5086C174.451 58.73 175.381 58.8629 176.577 58.8629C177.773 58.8629 178.791 58.5086 179.633 57.8C180.209 57.3128 180.696 56.6042 181.094 55.6299C181.493 54.6556 181.759 53.7699 181.847 52.9727L182.069 50.8912C182.113 50.3598 182.113 49.9169 182.113 49.5626C182.069 49.2083 181.98 48.9426 181.714 48.7654C181.493 48.544 181.05 48.4554 180.474 48.4997C180.341 48.544 179.81 48.5883 178.836 48.6326C177.861 48.7211 176.666 48.7211 175.293 48.7211C174.451 48.7654 173.875 48.6326 173.477 48.3668C173.078 48.1011 172.901 47.6583 172.857 47.0825C172.813 46.5068 173.034 46.1082 173.565 45.8868C174.053 45.6653 174.717 45.5325 175.603 45.4439L177.95 45.311L180.961 45.2225C181.36 45.2225 181.626 45.1782 181.714 45.0896C181.803 45.001 181.847 44.8239 181.847 44.6467C181.847 44.4696 181.803 44.1596 181.714 43.6724C181.626 43.4067 181.537 43.2295 181.449 43.1853C181.36 43.141 181.227 43.0967 181.006 43.0524C180.341 43.0524 179.456 43.0967 178.348 43.1853H178.127C176.887 43.3181 175.957 43.3624 175.293 43.3181C174.761 43.3181 174.363 43.2296 174.141 43.0524C173.875 42.8753 173.743 42.6095 173.698 42.211C173.654 41.8124 173.875 41.5024 174.407 41.2366C174.938 40.9709 175.426 40.8381 175.868 40.7938C175.957 40.7938 176.267 40.7938 176.798 40.8381C177.33 40.8823 178.083 40.8823 179.057 40.8823C180.563 40.9266 181.316 40.6609 181.316 40.1295C181.271 40.0852 181.271 39.9966 181.227 39.7752L181.006 39.1109C180.917 38.9337 180.784 38.8008 180.607 38.7123C180.43 38.6237 180.031 38.5794 179.323 38.6237L175.16 38.978L174.008 39.0666C173.565 39.1109 173.255 39.0223 173.123 38.8451C172.945 38.668 172.857 38.358 172.857 38.0037C172.857 37.6494 172.99 37.2065 173.3 36.7194C173.698 36.0108 174.23 35.6565 174.894 35.6565C175.027 35.6565 175.647 35.745 176.843 35.8779C178.038 36.0108 178.747 36.0993 179.013 36.055C179.588 36.055 179.943 35.9665 180.031 35.8336C180.12 35.6565 180.209 35.5236 180.209 35.3022C180.209 35.125 180.076 34.7707 179.766 34.195L178.791 32.5121C178.437 31.9806 178.304 31.4935 178.348 31.0063C178.393 30.5192 178.791 30.2535 179.588 30.2092C180.031 30.1649 180.563 30.2977 181.183 30.6077C181.803 30.8735 182.379 31.1392 182.821 31.4049C183.309 31.6706 183.619 31.8035 183.884 31.7592C184.15 31.7592 184.637 31.5378 185.39 31.0506C186.143 30.5635 186.497 29.9877 186.497 29.2791C186.409 28.0834 185.036 27.5077 182.379 27.5077C179.721 27.5519 177.374 28.1277 175.426 29.3677L172.635 31.0949C171.395 31.8921 170.421 31.9806 169.801 31.4049C169.181 30.8292 168.827 30.2092 168.782 29.5006C168.738 28.792 168.915 27.9948 169.314 27.0648C169.978 25.5147 170.82 24.6733 171.838 24.629C172.015 24.629 172.325 24.6733 172.768 24.8061C173.211 24.939 173.565 24.9833 173.787 24.9833C174.097 25.0276 174.85 24.8061 176.09 24.3633C177.286 23.9204 178.791 23.6104 180.519 23.389C182.201 23.3004 183.751 23.3447 185.08 23.6547V23.6547ZM270.864 44.2039C275.868 44.2482 278.836 44.2924 279.81 44.4696C280.784 44.6024 281.227 45.0453 281.227 45.7096C281.183 46.5954 280.607 47.0382 279.411 46.9939C279.19 46.9939 278.703 46.9939 277.906 46.9497C277.108 46.9054 274.983 46.9054 271.573 46.8611C270.421 46.8611 269.491 46.9054 268.782 46.9497C269.801 47.5254 270.465 48.1011 270.687 48.5883C270.953 49.0754 271.085 49.474 271.085 49.8283C271.085 50.1826 270.953 50.4926 270.643 50.7583C270.333 51.0684 269.934 51.3784 269.358 51.7327L267.72 52.7513L266.922 53.2827L267.454 53.4599C268.96 53.9913 269.934 54.2127 270.377 54.1242C270.643 54.0799 271.218 53.637 272.015 52.8398C272.857 51.9984 273.521 51.1569 274.097 50.2712L275.16 48.5883C275.603 47.8797 276.09 47.5254 276.621 47.4811C277.02 47.4811 277.551 47.7025 278.216 48.1011C278.88 48.4997 279.234 49.164 279.234 50.094C279.19 50.4926 279.057 50.9355 278.791 51.3784C278.526 51.8655 277.773 52.4412 276.533 53.1056L275.071 53.9027L274.053 54.5227C273.521 54.8328 273.255 55.0099 273.255 55.0542C273.255 55.0985 273.521 55.0985 274.008 55.1428L276.046 55.3199C276.887 55.4085 278.393 55.4528 280.563 55.4528C282.733 55.4528 284.593 55.3199 286.099 55.0099C287.604 54.7442 288.889 54.4342 289.952 54.0799C291.015 53.7256 291.546 53.5484 291.635 53.5484C291.945 53.5927 292.077 53.7256 292.077 54.0356C292.077 54.3456 292.033 54.6556 291.945 54.9656C291.457 56.2499 290.705 57.49 289.686 58.6414C288.667 59.7929 287.383 60.9886 285.789 62.1844C284.239 63.3801 282.556 64.0002 280.829 64.0445C278.924 64.0887 276.577 63.3802 273.787 61.9187C270.997 60.4572 269.225 59.4829 268.428 58.9957L263.202 55.8956L261.431 55.0099L259.349 54.0356C258.198 53.5484 257.445 53.327 257.002 53.5041L256.161 53.8141C255.939 53.9027 255.629 53.947 255.186 53.947C254.743 53.947 254.433 53.7699 254.301 53.4156C254.123 53.0613 254.035 52.8398 254.035 52.6627C254.035 52.5298 254.035 52.3527 254.079 52.2198C254.123 51.8655 254.345 51.2898 254.788 50.4483C255.231 49.6069 255.585 49.0312 255.851 48.5883C256.161 48.1897 256.648 47.9683 257.401 47.9683C257.622 47.9683 257.844 48.0125 258.065 48.1011C258.286 48.1897 258.685 48.6326 259.261 49.3854C259.836 50.1826 260.634 50.7583 261.564 51.2012L262.848 51.7769C263.379 52.0427 263.822 52.1755 264.132 52.1755C264.442 52.1312 264.841 51.7769 265.284 51.0241C265.771 50.2712 266.081 49.7397 266.214 49.3412C266.391 48.9426 266.258 48.9869 266.657 48.1454C266.922 47.5697 267.454 47.2154 268.251 46.9939H267.321L263.468 47.0825L259.482 47.304C257.445 47.4368 256.072 47.5254 255.452 47.5697C254.832 47.6582 253.991 47.8354 252.972 48.1011C251.953 48.3668 251.245 48.4997 250.846 48.4554C249.828 48.3668 249.34 47.9683 249.385 47.2154C249.385 46.8611 249.518 46.5068 249.739 46.0639C249.961 45.6653 250.359 45.2667 250.935 44.9125C251.511 44.5582 252.042 44.3367 252.618 44.2924C252.839 44.2924 253.282 44.3367 253.946 44.4696C254.611 44.5582 255.275 44.6025 255.939 44.6025C256.294 44.6467 258.065 44.5582 261.298 44.4253C264.62 44.2482 267.764 44.2039 270.864 44.2039V44.2039ZM247.215 31.0506C247.569 31.0949 247.79 31.2721 247.968 31.5821C248.145 31.8921 248.189 32.2464 248.189 32.6007C248.145 33.4864 247.968 34.2393 247.613 34.9036C247.259 35.5236 246.86 36.0993 246.418 36.5865L244.912 38.2251C244.69 38.4908 244.38 38.8451 243.937 39.3766C243.805 39.9966 243.716 40.528 243.672 40.8823C243.627 41.2366 243.627 42.4324 243.627 44.5582V58.2428C243.627 59.1286 243.583 59.8372 243.495 60.4572C243.406 61.0772 243.185 61.5644 242.875 62.0072C242.565 62.4501 242.077 62.8044 241.457 63.1144C240.837 63.4244 240.217 63.5573 239.642 63.513C238.579 63.513 237.959 63.203 237.737 62.5387C237.516 61.8744 237.427 61.2544 237.427 60.6343C237.427 60.0143 237.472 59.4829 237.472 59.04L237.604 55.5413L237.826 50.3598L237.959 45.4439C238.003 45.001 238.003 44.691 238.003 44.5139C237.914 43.8053 237.782 43.451 237.56 43.451C237.472 43.4953 237.339 43.5839 237.162 43.761C236.94 43.9381 236.143 44.2924 234.681 44.8682C233.22 45.4439 232.113 45.6653 231.404 45.621C229.987 45.5325 228.88 44.8239 228.127 43.5396C227.374 42.2552 226.976 41.2809 226.976 40.528C226.976 39.8194 227.02 39.4209 227.064 39.288C227.197 39.1109 228.791 38.668 231.936 37.9594C235.08 37.2508 237.782 36.3208 240.085 35.125C242.387 33.9293 243.849 33.1321 244.425 32.7335L246.152 31.4492C246.639 31.1835 246.993 31.0506 247.215 31.0506V31.0506ZM410.501 33.6193C411.209 33.7521 411.874 33.8407 412.494 34.0179C413.114 34.1507 413.557 34.195 413.822 34.195C413.955 34.195 414.575 34.1507 415.638 34.0179C416.701 33.885 418.782 33.8407 421.794 33.8407C422.768 33.885 424.628 33.885 427.374 33.9736C430.12 34.0179 432.777 34.0621 435.257 34.0621H439.42L443.096 34.1064H443.937L445.133 34.1507C445.886 34.195 446.285 34.3279 446.329 34.5936C446.329 34.8593 446.285 35.125 446.152 35.3465L445.355 36.9408C445 37.5165 444.336 38.3137 443.317 39.288C442.299 40.2623 441.325 40.7938 440.306 40.8823C439.686 40.9709 438.357 40.5723 436.32 39.6866C434.283 38.8451 432.777 38.4023 431.847 38.4466C431.094 38.5351 430.696 38.7123 430.696 39.1109C430.651 39.4652 430.651 39.7309 430.696 39.8637V40.7052L430.74 42.6095L430.873 45.2668L431.094 50.9798L431.227 54.5227C431.183 56.1171 430.873 57.4014 430.341 58.42C429.81 59.3943 428.747 60.4129 427.153 61.3872C425.558 62.3615 423.61 62.8487 421.263 62.8487C419.58 62.8487 417.985 62.4944 416.391 61.8301C414.797 61.1215 413.601 60.4572 412.804 59.7486C411.962 59.04 411.209 58.2871 410.412 57.4014C409.659 56.5157 409.128 55.8956 408.906 55.4528C408.685 55.0099 408.508 54.6999 408.508 54.5227C408.464 54.3456 408.464 54.2127 408.419 54.0799C408.419 53.947 408.508 53.7699 408.641 53.5484C408.818 53.327 409.216 53.4599 409.837 53.947C412.361 56.0728 415.151 57.0914 418.295 57.0471C420.51 57.0471 421.971 56.6042 422.635 55.7185C423.3 54.8328 423.698 53.947 423.831 53.017C423.964 52.1312 424.053 50.9798 424.053 49.6512C424.097 48.3226 424.097 46.9054 424.141 45.4439L424.186 41.5024V40.9709C424.186 40.6609 424.141 40.3066 424.097 39.9523C424.053 39.598 423.92 39.2437 423.61 38.9337C423.344 38.6237 422.458 38.4908 421.041 38.6237L417.941 38.978C415.904 39.1994 414.265 39.5094 412.981 39.8194L410.457 40.6609C409.084 41.1038 408.154 41.3252 407.755 41.3252C407.135 41.3252 406.648 41.1038 406.382 40.7052C406.116 40.2623 405.984 39.8195 405.984 39.288C405.984 38.4908 406.205 37.7823 406.604 37.1179C407.046 36.4536 407.489 35.7893 408.065 35.2136C408.596 34.6379 409.039 34.2393 409.305 34.1507C409.659 33.8407 410.014 33.7078 410.501 33.6193V33.6193ZM356.382 23.5661C356.692 23.5661 357.356 23.7875 358.375 24.1861C359.438 24.629 360.102 25.1162 360.501 25.7362C360.855 26.3562 361.077 26.8433 361.077 27.1976C361.077 27.5519 360.988 28.3934 360.767 29.722C360.678 30.1649 360.634 30.962 360.589 32.1135C360.545 33.265 360.545 34.505 360.589 35.9222C360.634 37.2951 360.634 38.0923 360.634 38.2694C360.501 39.7752 360.147 40.7938 359.482 41.3252C358.818 41.8567 358.198 42.1667 357.622 42.1667C357.312 42.211 356.648 42.0781 355.541 41.7681C354.434 41.5024 353.769 41.3252 353.503 41.3252H352.972L353.681 41.5466C354.832 41.9009 355.629 42.3438 356.028 42.831C356.471 43.3181 356.692 43.761 356.692 44.1596C356.648 44.7796 356.249 45.3996 355.452 45.9754C354.655 46.5511 353.813 47.0382 352.928 47.4368C352.042 47.8354 351.599 48.0568 351.643 48.1011C351.643 48.1897 352.396 48.544 353.946 49.164C355.496 49.8283 357.135 50.404 358.862 50.9798C360.589 51.5555 362.139 51.9541 363.424 52.2641L365.638 52.7513C367.144 53.1056 368.295 53.3713 369.048 53.4599C369.801 53.5927 370.2 53.8141 370.2 54.2127C370.155 54.3013 370.111 54.4785 369.978 54.7442L369.225 56.6042C368.915 57.2685 368.162 58.3314 366.967 59.66C365.771 61.0329 364.177 61.6972 362.184 61.653C360.324 61.6087 358.198 60.4129 355.806 58.0657L351.333 53.6813L350.005 52.4855C349.695 52.2198 349.473 52.1312 349.341 52.1312C349.208 52.1312 349.075 52.2641 348.942 52.4412L348.145 53.6813C347.835 54.1242 347.215 54.9213 346.285 55.9842C345.355 57.0471 343.76 58.4643 341.59 60.1915C339.42 61.9187 337.25 62.7601 335.169 62.6716C334.372 62.6716 333.663 62.4944 333.043 62.1401C332.423 61.7858 331.98 61.3872 331.714 60.8558C331.449 60.3686 331.316 59.8372 331.316 59.2172C331.316 58.6414 331.404 58.0657 331.67 57.5785L332.777 55.2756C333.087 54.567 333.309 53.6813 333.441 52.6184C333.574 51.5555 333.663 50.1383 333.796 48.3226C333.929 46.5511 333.973 45.311 334.017 44.6467C334.017 43.9824 334.061 42.3438 334.061 39.6423V39.4209V34.2393C333.973 32.4235 333.751 30.8292 333.353 29.4563C332.954 28.0834 332.821 27.1977 332.866 26.7105C332.91 26.3119 332.999 25.869 333.22 25.4262C333.441 24.9833 333.796 24.5847 334.239 24.2304C334.726 23.8761 335.213 23.6547 335.744 23.6547C336.054 23.6547 336.674 23.8318 337.604 24.1418C338.534 24.4518 339.42 24.6733 340.306 24.7176C341.192 24.8062 342.343 24.8061 343.76 24.8061C345.178 24.7619 346.905 24.8061 348.942 24.8061C350.935 24.8504 352.086 24.8504 352.352 24.8061C352.706 24.8061 353.016 24.7619 353.326 24.7176C353.636 24.6733 354.079 24.4518 354.744 24.0976L354.876 24.009C355.541 23.7875 356.072 23.5661 356.382 23.5661V23.5661ZM404.744 31.3606C405.186 31.3606 405.496 31.5821 405.629 31.9806C405.762 32.3792 405.851 32.7335 405.851 33.0435C405.851 33.3535 405.762 33.7521 405.496 34.2836C405.231 34.7707 405.009 35.2136 404.744 35.5679C404.478 35.9222 403.946 36.6308 403.149 37.6051C402.352 38.5794 401.865 39.288 401.776 39.598C401.643 39.9523 401.599 40.3952 401.599 40.8823C401.555 41.2366 401.555 41.9895 401.599 43.2296C401.599 44.4696 401.599 46.1968 401.555 48.4997L401.466 53.017C401.378 55.0542 401.378 56.1171 401.378 56.1614L401.422 57.5343C401.422 58.1986 401.378 58.73 401.333 59.1286C401.201 59.8372 400.891 60.4129 400.448 60.9001C400.005 61.3872 398.986 61.6972 397.392 61.8744C396.506 61.6087 395.93 61.2987 395.665 60.9887C395.399 60.6786 395.222 60.2801 395.133 59.7929C395.045 59.3057 395 58.73 395.045 58.11C395.045 57.4457 395.089 56.87 395.089 56.3828L395.266 52.6184L395.443 48.7211L395.532 46.1968C395.576 45.8425 395.576 45.6211 395.576 45.4882C395.532 45.3996 395.532 45.2668 395.443 45.0896C395.399 44.8682 395.31 44.7796 395.133 44.7353C394.956 44.691 394.823 44.8239 394.558 45.0896C394.203 45.3996 393.539 45.8425 392.52 46.3296C391.502 46.8611 390.793 47.1711 390.395 47.304C389.996 47.4368 389.465 47.5254 388.845 47.5254C387.826 47.5697 386.807 47.2597 385.744 46.6839C384.682 46.1082 383.884 45.3996 383.353 44.5582C382.821 43.7167 382.511 43.2296 382.511 43.0524C382.467 42.8753 382.467 42.6981 382.467 42.5652C382.467 42.3881 382.511 42.2552 382.6 42.1667C382.689 42.0781 382.91 41.9452 383.22 41.8567L384.947 41.4138C387.206 40.838 389.243 40.1295 390.97 39.3323C392.697 38.5351 394.69 37.5165 396.905 36.2765C399.119 35.0364 400.846 33.9293 402.175 32.9107C403.326 31.8921 404.212 31.3606 404.744 31.3606V31.3606ZM318.96 35.5236C319.181 35.5236 319.668 35.5679 320.421 35.6565C321.174 35.745 322.06 35.8336 323.078 35.8779C324.097 35.9222 325.204 35.9222 326.311 35.9222C327.418 35.9222 328.437 35.9222 329.411 36.0108C330.386 36.0993 330.873 36.4536 330.873 37.1622C330.873 37.8708 330.74 38.3137 330.43 38.5794C330.031 38.978 329.544 39.1994 328.968 39.2437C328.393 39.288 327.728 39.3323 326.976 39.3323C326.178 39.3323 325.691 39.4209 325.514 39.5094C325.293 39.6423 325.204 39.9523 325.204 40.4395V41.5466C325.204 41.9009 325.248 42.1224 325.381 42.2552C325.514 42.3881 325.824 42.4767 326.4 42.4767L327.684 42.5652L329.81 42.6538L331.581 42.7424C332.379 42.7867 332.821 42.8753 332.954 43.0081C333.087 43.141 333.131 43.3624 333.176 43.6281C333.176 43.8939 333.131 44.1596 333.043 44.4696C332.866 44.8239 332.511 45.2667 331.936 45.7982C331.36 46.3296 330.12 46.5511 328.26 46.4625C326.4 46.3739 325.381 46.4625 325.293 46.5954C325.16 46.7725 325.116 46.9497 325.116 47.1711L325.071 49.0312C325.027 50.1383 325.027 50.9355 325.027 51.5112C325.027 52.087 325.248 52.3527 325.736 52.397C326.001 52.4413 326.577 52.2198 327.507 51.8212C328.393 51.4226 328.968 51.1569 329.19 50.9798L330.519 50.2269C331.006 49.9612 331.36 49.9612 331.537 50.2269C331.759 50.4926 331.847 50.8469 331.891 51.3341C331.936 51.8212 331.714 52.4413 331.271 53.1941C330.386 54.7885 328.481 56.5599 325.647 58.5529C322.768 60.5015 320.687 61.4758 319.358 61.3872C318.207 61.3429 317.498 60.9444 317.232 60.2358C316.967 59.5272 316.834 58.8629 316.79 58.3314C316.79 57.7557 316.922 57.2242 317.232 56.6485L317.897 55.3642C318.118 54.9656 318.251 54.4342 318.384 53.8141C318.517 53.1941 318.605 52.397 318.738 51.3784C318.827 50.3598 318.871 49.5183 318.871 48.7654C318.871 48.0125 318.871 47.5697 318.915 47.3925C318.96 47.2154 318.96 47.0825 318.96 47.0382C318.915 46.7725 318.738 46.6397 318.384 46.6397C318.074 46.6397 317.321 46.7282 316.125 46.8611C314.93 46.994 313.999 47.1711 313.291 47.3925C312.582 47.614 312.095 47.7025 311.785 47.6583C311.165 47.614 310.722 47.3925 310.501 46.9939C310.279 46.5954 310.191 46.1525 310.191 45.7096C310.191 45.2668 310.457 44.7353 311.032 44.071C311.475 43.4953 312.007 43.0524 312.627 42.6981C313.247 42.3438 313.689 42.1667 313.999 42.1667C314.177 42.211 314.531 42.2995 315.151 42.521C315.771 42.7424 316.568 42.831 317.542 42.831C318.162 42.8753 318.561 42.7867 318.694 42.6095C318.827 42.4324 318.915 42.1224 318.915 41.7238L318.96 41.0595V40.6166C318.827 40.1295 318.738 39.8195 318.65 39.7309C318.561 39.6423 318.34 39.598 318.03 39.598C317.852 39.6423 317.498 39.6866 316.967 39.7752C316.435 39.8637 316.081 39.908 315.86 39.8637C315.505 39.8194 315.195 39.7309 314.974 39.5094C314.752 39.288 314.62 38.978 314.575 38.5351C314.531 38.0923 314.841 37.6051 315.55 36.9851C316.612 36.0108 317.72 35.5236 318.96 35.5236V35.5236ZM251.821 50.5812C252.042 50.9355 252.175 51.4226 252.219 52.0427C252.263 52.6627 252.308 53.327 252.308 53.9913C252.308 54.6556 252.219 55.4528 252.042 56.3385C251.821 57.3571 251.422 58.3757 250.846 59.3943C250.271 60.4129 249.429 60.9001 248.278 60.9001C247.658 60.9444 247.126 60.7229 246.639 60.3243C246.152 59.9258 245.886 59.5715 245.753 59.2615C245.62 58.9515 245.576 58.5529 245.532 58.0657C245.576 57.7114 245.62 57.3571 245.709 57.0914C245.798 56.8257 246.019 56.3828 246.462 55.8514L248.543 52.9727L249.828 50.8912C250.005 50.5812 250.271 50.3155 250.669 50.0498C251.068 49.8283 251.422 50.0055 251.821 50.5812ZM202.972 30.1649C204.168 31.0063 204.965 31.6706 205.275 32.2021C205.585 32.7335 205.762 33.2207 205.806 33.575C205.806 33.9736 205.585 34.3721 205.186 34.7264C204.744 35.125 203.902 35.6565 202.662 36.3651L199.518 38.1365L197.126 39.4652C196.86 39.598 196.728 39.7309 196.728 39.8637C196.728 39.9966 196.86 40.218 197.17 40.4837L200.093 43.3624C201.289 44.6024 202.618 45.6653 204.035 46.5954C205.452 47.4811 207.401 48.544 209.881 49.7397C212.361 50.9355 213.955 51.5998 214.664 51.7769C215.372 51.9541 215.771 52.087 215.815 52.2198C215.904 52.3084 215.948 52.4855 216.037 52.707C215.86 53.3713 215.638 53.9913 215.372 54.6113C215.107 55.1871 214.398 55.9399 213.247 56.8257C212.095 57.7114 210.811 58.4643 209.482 59.04C208.109 59.6158 207.046 59.8815 206.294 59.8372C204.655 59.7929 203.238 59.0843 202.086 57.6671C200.935 56.2499 199.695 54.2127 198.366 51.4669C197.038 48.7211 196.196 47.0825 195.842 46.4625L193.362 42.3881C192.742 41.3695 192.255 40.7495 191.945 40.4395L191.28 39.8637C191.059 39.598 190.926 39.3766 190.926 39.1109C190.926 38.8451 191.059 38.5794 191.413 38.3137C191.767 38.048 192.21 37.9151 192.786 37.9151L195.222 37.9594C195.576 37.8265 196.108 37.3394 196.816 36.4979C197.569 35.6565 198.145 34.9036 198.588 34.3721C199.03 33.7964 199.429 32.9992 199.739 31.9364C200.093 30.8735 200.448 30.1649 200.802 29.722C201.245 29.3234 201.953 29.4563 202.972 30.1649V30.1649ZM171.085 36.0108C171.528 36.4536 171.883 37.0294 172.148 37.738C172.414 38.4466 172.547 39.5094 172.547 40.8823C172.503 42.5653 172.37 44.4253 172.015 46.3739C171.705 48.3226 171.085 50.1826 170.2 51.8655C169.314 53.5484 168.118 54.9656 166.524 56.1614C164.974 57.3571 163.335 58.1986 161.564 58.7743C159.792 59.3057 158.286 59.5715 157.002 59.5272C154.522 59.4829 152.972 58.8629 152.441 57.6671C151.909 56.4714 151.643 55.6299 151.599 55.0985C151.599 54.567 151.643 54.257 151.732 54.0799C151.821 53.9913 151.953 53.947 152.175 53.8584C152.396 53.7699 153.149 53.7699 154.433 53.8141C155.718 53.8584 157.401 53.5041 159.571 52.707C161.741 51.9098 163.512 50.6698 164.974 48.8983C166.435 47.1268 167.232 45.7096 167.498 44.691C167.72 43.6281 167.897 42.7424 168.03 41.9452C167.897 41.1481 167.675 40.6166 167.41 40.3509C167.144 40.0852 166.347 39.9523 165.018 40.0409C163.689 40.1737 162.759 40.2623 162.184 40.4395C161.608 40.6166 160.899 40.838 160.058 41.1923C159.216 41.5466 158.596 41.7238 158.242 41.6795C157.799 41.6352 157.401 41.5024 157.046 41.1481C156.692 40.838 156.515 40.3509 156.471 39.7309C156.426 39.1109 156.604 38.4908 157.046 37.8265C157.489 37.0736 158.154 36.4979 158.995 36.0108C159.836 35.5236 160.501 35.2579 160.988 35.2579C161.298 35.2579 162.051 35.4793 163.291 35.8779C164.531 36.2765 165.771 36.2765 167.055 35.7893L168.251 35.3465C169.225 34.9479 170.155 35.2136 171.085 36.0108V36.0108ZM350.713 41.4138L346.108 41.5466L343.14 41.5909C341.28 41.6352 340.173 41.7681 339.907 42.0338C339.686 42.2109 339.597 42.6095 339.597 43.141C339.597 43.7167 339.553 44.691 339.465 46.0639C339.42 46.6396 339.376 48.1454 339.332 50.4926L339.243 53.1056C339.199 53.2827 339.199 53.4598 339.243 53.7699C339.243 54.0356 339.376 54.3013 339.686 54.4785C339.952 54.6999 340.616 54.567 341.59 54.1685L343.229 53.5041C344.469 53.017 345.443 52.4855 346.152 51.8212C346.86 51.2012 347.259 50.8026 347.259 50.6698C347.259 50.5369 347.126 50.3155 346.816 50.0498C346.595 49.8726 346.063 49.474 345.178 48.854C344.336 48.234 343.273 47.7468 341.989 47.3482C340.749 46.9497 340.085 46.5511 340.085 46.1082C340.04 45.6653 340.173 45.311 340.439 45.0453C340.926 44.4696 341.679 44.1153 342.653 44.071C343.45 44.0267 344.469 44.3367 345.62 44.9567C346.816 45.5768 347.613 46.0196 348.056 46.2854C348.455 46.5511 348.72 46.6839 348.898 46.6839H348.942C349.119 46.6839 349.296 46.5954 349.473 46.3739C349.695 46.1525 349.916 45.7982 350.226 45.2668C350.536 44.7353 350.802 44.2924 350.979 43.8939C351.156 43.5396 351.333 43.141 351.466 42.7867C351.599 42.4324 351.776 42.1224 351.953 41.9452C352.131 41.7681 352.219 41.6352 352.175 41.5024C352.308 41.4138 351.776 41.3695 350.713 41.4138V41.4138ZM263.512 21.0417C264.575 21.0417 265.461 21.2189 266.125 21.5732C266.79 21.9275 267.277 22.3261 267.498 22.7247C267.72 23.1232 267.897 23.6547 267.985 24.319C268.074 24.9833 268.162 25.4262 268.295 25.559C268.428 25.6919 268.605 25.8247 268.827 25.869C269.048 25.9133 269.535 25.9576 270.333 25.9576L272.503 26.0462L276.001 26.0905C278.614 26.1348 280.12 26.3119 280.607 26.6662C281.05 27.0205 281.271 27.4191 281.271 27.9062C281.227 29.0577 280.209 29.5891 278.171 29.4563L275.116 29.3234L271.705 29.2348C269.58 29.1906 268.384 29.2791 268.118 29.412C267.897 29.5449 267.72 29.6777 267.675 29.8549C267.587 30.032 267.542 30.2535 267.454 30.6077C267.365 30.962 267.365 31.1835 267.365 31.3163C267.41 31.5821 267.498 31.7592 267.631 31.8921C267.808 31.9806 268.428 32.0692 269.58 32.1135C270.731 32.1578 271.661 32.2021 272.458 32.3349C273.255 32.4678 273.743 32.5121 273.92 32.4678C274.318 32.4678 274.894 32.3792 275.558 32.1578C276.223 31.9364 276.754 31.8478 277.064 31.8478C277.418 31.8921 277.817 32.0249 278.216 32.2464C278.614 32.5121 278.968 32.8664 279.234 33.3978C279.5 33.9293 279.677 34.4607 279.677 34.9922C279.721 35.5236 279.633 36.4979 279.456 37.8265C279.146 39.7309 278.924 40.9709 278.791 41.5909C278.658 42.2109 278.216 42.6981 277.507 43.0524C276.798 43.4067 276.046 43.4067 275.293 43.0967L274.097 42.6095C273.565 42.3881 272.813 42.2995 271.927 42.2552L268.162 42.3438L262.804 42.4767C258.508 42.6095 255.806 42.7867 254.699 43.0524C253.592 43.3181 252.928 43.451 252.706 43.451C252.131 43.4067 251.643 43.1853 251.333 42.7424C251.023 42.2995 250.846 41.8124 250.802 41.2366L250.536 38.8008C250.492 38.8008 250.403 38.2251 250.226 37.0737C250.049 35.9222 249.961 35.125 250.005 34.6379C250.049 34.0179 250.138 33.4421 250.403 33.0435C250.625 32.6007 251.023 32.2464 251.511 31.9806C251.998 31.6706 252.529 31.5378 253.061 31.5378C253.415 31.5821 253.902 31.7149 254.522 31.9364C255.142 32.2021 255.629 32.2906 256.028 32.2906C257.711 32.2906 258.641 32.2464 258.906 32.2021C259.172 32.1135 259.482 31.9807 259.836 31.8035C260.058 31.4492 260.191 31.1392 260.235 30.9178C260.324 30.6963 260.324 30.4306 260.368 30.1206C260.368 29.8106 260.324 29.5891 260.235 29.5006C260.147 29.3677 259.925 29.2791 259.615 29.2791C259.482 29.2791 257.888 29.4563 254.788 29.8106L252.308 30.342C250.891 30.652 250.182 30.2977 250.226 29.2791C250.226 28.8806 250.359 28.3934 250.625 27.8177C250.891 27.2862 251.422 26.7548 252.263 26.2233C253.105 25.7362 253.813 25.4704 254.478 25.4262C254.655 25.4262 255.186 25.6033 256.116 25.869C257.002 26.179 258.065 26.3119 259.305 26.3119C260.014 26.3119 260.457 26.2233 260.634 26.0019C260.811 25.8248 260.899 25.559 260.944 25.2933C260.988 25.0276 260.988 24.8504 260.988 24.7619L260.855 23.3004C260.811 23.2561 260.811 23.0789 260.855 22.7689C260.899 22.4589 261.032 22.1046 261.298 21.6618C261.431 21.2632 262.228 21.0417 263.512 21.0417V21.0417ZM322.635 22.9904C323.255 23.0347 323.787 23.3447 324.097 23.9204C324.451 24.5404 324.407 25.3819 324.053 26.5333C323.92 26.8876 323.787 27.2419 323.61 27.6405C323.433 27.9948 323.3 28.2162 323.3 28.3048C323.255 28.3934 323.211 28.6148 323.167 28.9248L323.698 29.0134L324.983 28.9691L327.064 28.9248L330.076 29.0134C330.961 29.0577 331.537 29.1906 331.847 29.412C332.157 29.6334 332.334 29.9877 332.334 30.4749C332.334 30.962 332.201 31.3606 331.847 31.7149C331.537 32.0249 331.05 32.2906 330.386 32.5121C329.766 32.7335 328.304 32.8664 326.134 32.9107L322.768 33.0435L320.51 33.1321C320.111 33.1764 319.845 33.2207 319.668 33.265C319.491 33.3535 318.65 33.9736 317.144 35.2136C315.638 36.4536 314.265 37.4722 313.069 38.2694C311.874 39.0666 310.767 39.4209 309.704 39.4209C307.534 39.3766 306.338 38.668 306.116 37.1622C305.895 35.7008 305.806 34.9036 305.806 34.7707C305.851 34.3279 305.984 34.0179 306.338 33.7964C306.648 33.575 307.401 33.3093 308.552 33.0435C309.704 32.7778 311.121 32.1135 312.759 31.0063C314.398 29.9434 315.727 28.9248 316.701 28.0391C317.675 27.1091 318.738 26.0462 319.801 24.8061C320.864 23.6104 321.838 22.9904 322.635 22.9904V22.9904ZM257.711 35.4793C256.294 35.5236 255.496 35.7008 255.275 36.0108C255.054 36.3208 254.965 36.6308 254.921 36.8965C254.921 37.1622 254.965 37.5165 255.054 37.9151C255.098 38.2694 255.231 38.6237 255.408 38.9337C255.585 39.2437 256.161 39.3766 257.091 39.3323C258.154 39.3323 258.774 39.1994 258.995 38.978C259.216 38.7566 259.349 38.2694 259.349 37.6051C259.394 36.9408 259.349 36.4979 259.261 36.2765C259.039 35.745 258.508 35.4793 257.711 35.4793V35.4793ZM264.708 35.4793C264.177 35.5236 263.778 35.6122 263.557 35.7893C263.335 35.9665 263.247 36.2322 263.158 36.5422C263.114 36.8965 263.114 37.2065 263.114 37.4722C263.114 37.7822 263.158 37.9594 263.158 38.0037C263.291 38.7566 263.689 39.1109 264.442 39.1109C264.487 39.1551 264.797 39.1109 265.417 39.0223C265.992 38.9337 266.435 38.8451 266.657 38.668C266.878 38.4908 267.011 38.1365 266.967 37.5608V36.6308V36.4979C266.922 36.1436 266.745 35.8779 266.48 35.7008C266.302 35.5679 265.682 35.4793 264.708 35.4793V35.4793ZM271.44 35.7893C271.13 36.0551 270.953 36.4979 270.908 37.0737C270.864 37.6494 270.864 37.9594 270.908 37.9594C270.908 38.358 270.997 38.6237 271.174 38.8451C271.351 39.0223 271.794 39.1109 272.547 39.1109C273.565 39.1109 274.141 39.0223 274.363 38.8008C274.584 38.6237 274.717 38.358 274.806 38.0037C274.894 37.6494 274.938 37.2951 274.938 36.8965C274.938 36.4979 274.894 36.1879 274.717 35.9665C274.451 35.7008 273.92 35.5679 273.078 35.5236C272.193 35.5236 271.661 35.6122 271.44 35.7893V35.7893ZM350.536 35.0807C349.651 35.0807 348.499 35.125 347.038 35.1693C345.576 35.2136 344.646 35.2579 344.292 35.2579C343.672 35.3022 343.007 35.2579 342.299 35.2136C341.59 35.1693 341.103 35.125 340.837 35.125C340.173 35.1693 339.819 35.4793 339.819 36.0108V37.0294C339.819 37.428 339.907 37.738 340.085 37.8708C340.262 38.048 340.572 38.0923 341.103 38.0923L345.045 38.048L349.385 38.1365L353.105 38.0923C353.592 38.0923 353.902 38.0037 354.079 37.8708C354.256 37.738 354.345 37.4279 354.345 36.9851V36.2765C354.345 35.8336 354.256 35.5236 354.079 35.3465C353.946 35.2136 352.751 35.125 350.536 35.0807V35.0807ZM404.035 22.9904C404.566 23.0347 404.832 23.3447 404.876 23.9204C404.921 24.4961 404.788 25.0276 404.611 25.5147C404.035 26.8434 402.662 28.2605 400.625 29.7663C398.543 31.2721 396.683 32.3792 395.045 33.0435C393.406 33.7078 392.343 34.0179 391.856 33.9736C390.793 33.9293 389.863 33.3978 389.154 32.3349C388.402 31.2721 388.047 30.6078 388.092 30.2535C388.136 29.8992 388.18 29.6777 388.269 29.5449C388.402 29.3234 388.623 29.102 388.977 28.8806C389.287 28.6591 389.863 28.482 390.616 28.3048C391.369 28.1277 393.052 27.5519 395.665 26.5333C398.278 25.559 400.226 24.7176 401.511 24.009C402.751 23.3447 403.592 22.9904 404.035 22.9904V22.9904ZM246.772 22.5918C247.259 22.6361 247.569 22.8132 247.746 23.1675C247.923 23.4775 248.012 23.7875 248.012 24.0976C248.012 24.3633 247.79 24.8062 247.392 25.3819C246.196 26.9319 244.292 28.482 241.679 30.0763C239.066 31.6706 236.94 32.3792 235.346 32.2906C234.194 32.2464 233.309 31.8478 232.733 31.0506C232.157 30.2535 231.803 29.3677 231.714 28.3048C231.67 27.9948 231.714 27.7291 231.847 27.5519C231.98 27.3748 232.423 27.2419 233.264 27.1534C234.061 27.1091 235.434 26.8434 237.294 26.4005C239.199 25.9576 240.66 25.5147 241.767 24.9833C242.83 24.4961 243.893 23.9647 244.867 23.4332C245.753 22.8575 246.462 22.5918 246.772 22.5918V22.5918ZM347.923 28.792H341.015C340.572 28.8363 340.262 28.8806 340.085 29.0134C339.907 29.1463 339.819 29.2791 339.819 29.4563C339.775 29.5891 339.775 29.9434 339.775 30.5192V31.1392C339.775 31.4492 339.863 31.6706 339.996 31.8478C340.129 32.0249 340.527 32.1135 341.103 32.1135C341.502 32.1578 342.609 32.1135 344.38 32.0249C346.152 31.9364 348.189 31.9364 350.536 31.9364C352.883 31.9806 354.123 31.8921 354.256 31.7149C354.389 31.5821 354.433 31.3163 354.389 30.9178V30.1206V29.8106C354.345 29.4563 354.301 29.2349 354.168 29.0577C354.035 28.8806 353.769 28.792 353.371 28.7477H352.219L347.923 28.792V28.792ZM415.24 24.2304C415.461 24.2304 415.904 24.319 416.612 24.4519C417.321 24.5847 418.118 24.6733 418.96 24.6733C419.403 24.7176 420.067 24.7176 420.997 24.6733C421.927 24.629 422.68 24.629 423.167 24.5847C423.654 24.5847 424.983 24.629 427.153 24.7176C429.323 24.8062 431.316 24.8947 433.087 24.939C434.859 24.9833 435.744 25.4705 435.789 26.3562C435.789 27.2419 435.567 27.9062 435.08 28.2605C434.549 28.7034 433.087 28.9248 430.784 28.9691C430.696 29.0134 429.721 28.9691 427.906 28.8806C426.09 28.792 424.496 28.792 423.167 28.792C420.111 28.8363 418.162 28.8806 417.277 29.0134C416.391 29.1463 415.594 29.3234 414.93 29.5006L413.379 29.9434C412.582 30.1649 411.962 30.1649 411.475 29.9434C410.988 29.722 410.678 29.5006 410.545 29.2348C410.412 28.9691 410.324 28.6148 410.279 28.172C410.368 27.5962 410.501 27.1091 410.678 26.7548C410.855 26.4005 411.431 25.9133 412.449 25.249C413.557 24.5847 414.442 24.2304 415.24 24.2304V24.2304Z" fill="#231916"/>
<path d="M140.794 85.7892H460.413V82.2905H140.794V85.7892Z" fill="#C4232A"/>
<path d="M316.923 97.9235C319.89 97.9235 322.016 98.765 323.389 100.448C324.141 101.378 324.54 102.352 324.584 103.282H320.909C320.687 102.529 320.377 101.998 319.979 101.644C319.314 100.979 318.34 100.669 317.056 100.669C315.727 100.669 314.708 101.156 313.911 102.086C313.158 103.017 312.76 104.345 312.76 106.072C312.76 107.8 313.158 109.084 313.955 109.925C314.753 110.767 315.771 111.21 317.011 111.21C318.296 111.21 319.27 110.855 319.934 110.102C320.288 109.704 320.599 109.128 320.864 108.331H324.54C324.23 110.014 323.389 111.342 322.104 112.405C320.82 113.468 319.137 113.955 317.1 113.955C314.575 113.955 312.583 113.247 311.165 111.83C309.704 110.412 308.995 108.464 308.995 105.984C308.995 103.327 309.837 101.245 311.475 99.8278C312.893 98.5435 314.708 97.9235 316.923 97.9235V97.9235ZM397.171 97.5249C399.429 97.5249 401.201 98.0121 402.574 98.9864C403.947 99.9607 404.699 101.201 404.921 102.662H401.289C401.024 101.644 400.315 100.891 399.252 100.492C398.632 100.271 397.968 100.138 397.215 100.138C395.798 100.138 394.646 100.581 393.716 101.511C392.786 102.441 392.343 103.814 392.343 105.674C392.343 107.534 392.831 108.862 393.805 109.66C394.779 110.457 395.931 110.811 397.171 110.811C398.411 110.811 399.429 110.501 400.226 109.881C401.024 109.261 401.511 108.464 401.688 107.489H397.614V104.965H404.965V113.114H402.529L402.175 111.21C401.467 111.918 400.847 112.45 400.271 112.715C399.296 113.247 398.101 113.468 396.684 113.468C394.336 113.468 392.432 112.76 390.926 111.387C389.376 109.97 388.579 108.065 388.579 105.629C388.579 103.149 389.376 101.201 390.926 99.695C392.521 98.2778 394.602 97.5249 397.171 97.5249V97.5249ZM261.165 97.5249C263.645 97.5249 265.594 98.1006 266.923 99.2964C268.694 100.669 269.58 102.751 269.58 105.541C269.58 108.242 268.694 110.324 266.923 111.785C265.594 112.981 263.69 113.557 261.165 113.557C258.685 113.557 256.737 112.981 255.408 111.785C253.637 110.324 252.751 108.242 252.751 105.541C252.751 102.751 253.637 100.714 255.408 99.2964C256.781 98.1006 258.685 97.5249 261.165 97.5249ZM443.982 97.9235V100.625H434.726V103.858H443.229V106.515H434.726V110.412H444.425V113.158H431.139V97.9235H443.982V97.9235ZM201.644 97.9235L208.73 108.552V97.9235H212.184V113.158H208.464L201.201 102.352V113.158H197.746V97.9235H201.644V97.9235ZM221.706 97.9235V104.212L228.526 97.9235H233.309L226.046 104.168L233.663 113.114H228.924L223.477 106.471L221.706 108.021V113.114H218.074V97.8792H221.706V97.9235ZM418.384 97.9235C419.491 97.9235 420.377 98.0564 421.086 98.2335C422.326 98.5878 423.3 99.2078 424.053 100.182C424.673 100.935 425.072 101.776 425.293 102.618C425.514 103.504 425.647 104.345 425.647 105.142C425.647 107.179 425.16 108.862 424.23 110.28C422.946 112.184 420.997 113.114 418.34 113.114H410.767V97.8792H418.384V97.9235ZM166.081 97.9235C168.207 97.9678 169.757 98.4992 170.643 99.5621C171.174 100.226 171.44 100.979 171.44 101.865C171.44 102.795 171.174 103.548 170.643 104.124C170.333 104.434 169.89 104.744 169.314 105.009C170.2 105.275 170.908 105.718 171.351 106.338C171.794 106.958 172.016 107.711 172.016 108.552C172.016 109.438 171.75 110.28 171.219 110.988C170.864 111.475 170.466 111.874 169.978 112.184C169.403 112.538 168.738 112.804 167.986 112.937C167.233 113.07 166.391 113.158 165.505 113.158H157.578V97.9235H166.081V97.9235ZM187.206 97.9235L193.495 113.158H189.465L188.313 110.014H181.803L180.607 113.158H176.754L183.087 97.9235H187.206ZM372.99 97.9235L380.076 108.552V97.9235H383.53V113.158H379.81L372.547 102.352V113.158H369.093V97.9235H372.99V97.9235ZM287.516 97.9235V100.581H278.659V104.079H286.409V106.737H278.659V113.114H275.027V97.8792H287.516V97.9235ZM363.203 97.9235V100.625H353.947V103.858H362.45V106.515H353.947V110.412H363.645V113.158H350.359V97.9235H363.203ZM333.707 97.9235V103.725H340.483V97.9235H344.115V113.158H340.483V106.382H333.707V113.158H330.076V97.9235H333.707ZM261.165 100.182C259.704 100.182 258.552 100.625 257.711 101.555C256.87 102.485 256.427 103.769 256.427 105.497C256.427 107.179 256.87 108.508 257.711 109.438C258.552 110.368 259.748 110.811 261.165 110.811C262.627 110.811 263.778 110.368 264.62 109.438C265.461 108.508 265.904 107.224 265.904 105.497C265.904 103.814 265.461 102.485 264.62 101.555C263.778 100.669 262.627 100.182 261.165 100.182ZM417.764 100.536H414.398V110.457H417.764C419.491 110.457 420.687 109.704 421.396 108.242C421.75 107.445 421.971 106.471 421.971 105.319C421.971 103.769 421.706 102.574 421.13 101.732C420.554 100.979 419.447 100.536 417.764 100.536V100.536ZM165.417 106.427H161.077V110.501H165.373C166.126 110.501 166.746 110.412 167.144 110.235C167.897 109.925 168.296 109.261 168.296 108.331C168.296 107.534 167.941 107.002 167.188 106.692C166.746 106.515 166.17 106.427 165.417 106.427ZM185.08 101.378L182.777 107.357H187.295L185.08 101.378ZM164.885 100.536H161.077V103.902H165.373C166.126 103.902 166.746 103.769 167.233 103.504C167.72 103.238 167.941 102.795 167.941 102.175C167.941 101.466 167.631 100.979 167.011 100.758C166.436 100.625 165.727 100.536 164.885 100.536V100.536Z" fill="#231916"/>
<path d="M64.0886 14C89.4207 14 110.368 32.7777 113.734 57.1355C110.678 42.5208 97.6581 31.5376 82.1134 31.5376C64.2657 31.5376 49.7839 45.9752 49.7839 63.7786C49.7839 81.5819 64.2657 96.0195 82.1134 96.0195C97.9681 96.0195 111.166 84.5934 113.911 69.5802C111.121 94.558 89.9079 114 64.1329 114C36.4535 113.911 14 91.5465 14 63.9557C14 36.3649 36.4535 14 64.0886 14ZM91.9008 51.4668C93.7166 51.4668 95.178 52.9283 95.178 54.744V72.4145C95.178 74.2303 93.7166 75.6918 91.9008 75.6918H70.5545V51.4668H91.9008V51.4668ZM85.7006 60.7671H79.899V66.6129H85.7006V60.7671V60.7671Z" fill="#C4232A"/>
</svg>
