<svg width="128" height="128" viewBox="0 0 128 128" fill="none" xmlns="http://www.w3.org/2000/svg">
<path d="M64.132 21.5C85.697 21.5 103.519 37.4635 106.365 58.1825C103.758 45.7455 92.6995 36.4025 79.4495 36.4025C64.263 36.4025 51.9515 48.676 51.9515 63.816C51.9515 78.956 64.263 91.229 79.4495 91.229C92.9555 91.229 104.179 81.5195 106.5 68.7215C104.144 89.9715 86.075 106.5 64.132 106.5C40.587 106.5 21.5 87.4715 21.5 64C21.5 40.5275 40.587 21.5 64.132 21.5ZM87.7155 53.375C88.0808 53.3746 88.4425 53.4462 88.7802 53.5856C89.1178 53.725 89.4246 53.9296 89.6832 54.1876C89.9418 54.4456 90.147 54.752 90.2871 55.0893C90.4273 55.4266 90.4996 55.7882 90.5 56.1535V71.1825C90.4997 71.5478 90.4274 71.9094 90.2873 72.2468C90.1471 72.5841 89.9419 72.8906 89.6833 73.1486C89.4248 73.4066 89.1179 73.6112 88.7802 73.7506C88.4426 73.89 88.0808 73.9615 87.7155 73.961H69.5V53.375H87.7155ZM82.3945 61.279H77.421V66.2415H82.3945V61.279Z" fill="#C4232A"/>
</svg>
