<svg width="435" height="128" viewBox="0 0 435 128" fill="none" xmlns="http://www.w3.org/2000/svg">
<path d="M58.5064 14L68.6877 24.6305L18.7072 74.5466C7.60053 62.9919 19.633 53.286 19.633 53.286L58.5064 14ZM35.0942 90.5376L74.3798 51.6638C74.3798 51.6638 84.0857 39.6318 95.6408 50.7385L45.262 100.719L35.0942 90.5376V90.5376Z" fill="#F29600"/>
<path d="M82.0749 37.4833L42.7193 76.4366C42.7193 76.4366 32.9967 88.4941 21.4214 77.3644L71.4257 27.2805L82.0745 37.4829L82.0749 37.4833ZM58.9246 114L97.8167 74.5819C97.8167 74.5819 109.855 64.8434 98.7429 53.2502L48.2751 103.334L58.9239 114H58.9246Z" fill="#E50012"/>
<path d="M188.582 60.0992C190.898 62.8761 192.751 65.653 195.068 67.5045L188.582 75.3728C188.582 75.3728 185.802 72.5955 182.096 67.5045C180.242 69.8187 177.463 72.1329 174.22 73.9844L167.733 67.9671C167.733 67.9671 172.83 65.1903 177.463 60.0992C173.756 53.1563 170.05 44.3626 167.733 33.2543H149.2V41.1226H163.563C163.563 41.1226 166.807 40.6595 166.807 44.3622V56.8593C166.807 56.8593 167.733 64.2645 159.857 74.447L152.443 69.356C152.443 69.356 157.54 63.8018 157.54 56.3962V47.6025C157.54 47.6025 158.467 45.2883 155.687 45.2883H150.127V55.4704C150.127 55.4704 150.127 66.5787 142.251 73.5213L134.837 68.4302C134.837 68.4302 140.861 61.9503 140.861 54.5451V27.7001H150.127V29.5517H167.733C167.269 27.2375 166.806 24.9233 166.806 22.6091H176.072C176.072 22.6091 176.072 25.3859 176.999 29.5517H182.095C182.559 28.1628 183.485 24.9233 183.485 24.9233H192.752C191.826 26.3117 191.362 33.717 191.362 33.717H177.463C178.389 38.8084 180.242 44.8252 183.022 50.8421C183.949 48.0652 184.876 45.751 184.876 42.511H193.215C193.215 42.511 194.142 50.8425 188.582 60.0992H188.582ZM231.67 22.6091V25.8486H242.79V30.0143H231.67V35.5685H242.79V40.1969H226.11C226.11 41.5853 225.184 43.4364 224.257 45.2883H238.619C238.619 45.2883 242.789 44.8252 242.789 48.5279V73.9844H215.918V58.71C214.064 61.0242 213.138 62.413 213.138 62.413L207.115 56.3958C211.284 53.1562 215.918 42.5106 216.844 39.7338H210.821V35.5681H221.941V30.0139H211.284V25.8482H222.404V22.6087H231.67L231.67 22.6091ZM223.793 48.9906H224.257V56.3962H233.986V50.3794C233.986 50.3794 234.45 48.9909 232.133 48.9909H223.794L223.793 48.9906ZM223.793 61.0246V69.8187H233.523V61.0246H223.793ZM265.492 25.8486C272.905 25.8486 271.052 31.4028 271.052 31.4028L266.418 43.4368C266.418 43.4368 267.808 51.3051 268.272 53.1562C268.735 55.0078 269.198 61.0246 269.198 61.0246C269.198 68.8929 257.152 70.2813 254.372 70.7444V74.447H245.106V35.5685H254.372V64.2645C257.152 63.8018 259.006 62.4134 259.469 61.025C260.395 58.7104 259.006 53.6193 258.542 50.8421C258.079 48.0652 257.152 45.2883 257.152 44.3626C256.689 42.9737 257.152 42.0484 257.152 42.0484C257.152 42.0484 259.469 35.5685 260.396 32.7916C261.322 30.0143 258.079 30.0143 258.079 30.0143H245.106V25.8486H265.492V25.8486ZM299.314 38.8084H299.777V48.9909H306.727V53.1566H299.777V67.0418C301.167 67.0418 303.947 66.1157 303.947 66.1157L306.263 70.7444C306.263 70.7444 300.24 73.5213 295.144 74.447C290.047 74.9097 290.047 70.2813 290.047 70.2813V52.6936H283.561V48.5279H290.047V38.8084H286.804C285.878 40.1969 284.951 41.1226 284.951 41.1226L278.928 36.4942C282.634 33.2543 290.974 20.7576 290.974 20.7576L296.534 24.9233C296.534 25.386 296.07 25.8486 296.07 26.3117H306.263V30.4774H293.291C291.901 31.8658 290.974 33.717 289.584 35.1058H306.263V38.8084H299.314V38.8084ZM318.31 67.0418C318.31 67.0418 322.479 66.5787 325.723 64.7276L327.576 69.8187C327.576 69.8187 316.919 73.0582 314.603 73.5213C312.286 73.9844 309.043 73.9844 309.043 70.2817V24.9233H339.158C339.158 24.9233 342.865 24.9233 342.865 28.6259V48.5283H318.31V67.0418V67.0418ZM318.31 29.5517V35.1058H333.599V31.8659C333.599 31.8659 333.599 29.5517 330.819 29.5517H318.31ZM318.31 38.8084V44.8252H333.599V38.8084H318.31V38.8084ZM344.255 54.082C344.255 54.082 341.938 58.2477 337.769 61.0246C337.769 61.0246 343.329 65.1903 347.035 66.116L342.402 73.9844C342.402 73.9844 328.039 70.2814 322.016 50.8425H330.356C330.356 50.8425 332.209 54.5451 333.136 55.4704C333.136 55.4704 337.305 53.1563 339.158 50.8421L344.255 54.082V54.082ZM374.371 24.9233C374.371 24.9233 366.031 35.1058 360.934 37.8827L355.838 32.7916C355.838 32.7916 365.104 25.8486 368.811 20.7576L374.371 24.9233ZM356.301 47.1394C356.301 47.1394 368.347 37.8827 372.517 33.2543L378.077 37.42C378.077 37.42 376.687 38.8084 374.834 41.1226V74.447H365.567V49.9167L361.398 52.6936L356.301 47.1394V47.1394ZM379.467 37.8827V38.3453H421.165V42.511H412.826V67.9671C412.826 71.6702 408.656 73.0586 408.656 73.0586L400.316 75.8355L396.146 70.7444C396.146 70.7444 398.926 69.356 400.779 67.9671C403.096 66.5787 402.633 64.2645 402.633 64.2645V42.0484H379.467V37.8827V37.8827ZM420.239 24.9233V29.089H380.393V24.9233H420.239ZM137.962 88.4304H145.369C148.147 88.4304 152.313 89.3605 152.313 93.081C152.313 95.4064 150.462 96.8011 148.147 97.2662C150.925 97.7313 153.239 99.1265 153.239 101.451C153.239 106.102 148.61 107.032 145.832 107.032H138.425V88.4308H137.962V88.4304ZM142.129 95.8714H143.98C145.832 95.8714 148.147 95.4063 148.147 93.5461C148.147 91.2208 145.832 91.2208 143.98 91.2208H142.129V95.8714ZM142.129 104.242H143.98C145.832 104.242 148.61 103.777 148.61 101.451C148.61 99.1261 146.295 98.661 143.98 98.661H142.129V104.242ZM162.498 88.4308H167.128L175.461 107.032H170.831L168.979 102.846H160.183L158.332 107.032H153.702L162.498 88.4308V88.4308ZM164.813 92.1509L161.572 100.056H167.59L164.813 92.1509V92.1509ZM178.238 88.4304H183.33L191.663 102.382V88.4304H195.83V107.031H190.738L182.404 93.0806V107.031H178.238V88.4304V88.4304ZM200.459 88.4304H204.626V96.3361L212.496 88.4308H217.587L208.792 97.2662L218.051 107.032H212.495L204.625 98.1963V107.032H200.459V88.4308V88.4304ZM238.883 87.9653C245.364 87.9653 249.531 92.1509 249.531 97.7313C249.531 103.312 245.827 107.497 238.883 107.497C231.939 107.497 228.235 103.311 228.235 97.7313C228.235 92.1505 231.939 87.9657 238.883 87.9657V87.9653ZM238.883 104.706C243.05 104.706 244.901 101.451 244.901 97.7313C244.901 94.4758 243.05 91.2208 238.883 91.2208C234.717 91.2208 232.865 94.4762 232.865 97.7313C232.865 101.451 234.253 104.706 238.883 104.706ZM253.234 88.4308H265.27V91.2208H257.864V95.8714H265.27V98.6614H257.864V107.032H253.697V88.4308H253.234ZM292.584 107.032C291.195 107.497 289.343 107.497 287.954 107.497C281.01 107.497 276.381 104.241 276.381 98.1963C276.381 91.6854 281.01 87.9657 287.954 87.9657C289.343 87.9657 291.195 88.4308 292.584 88.8959L292.121 92.1509C290.732 91.2208 288.88 91.2208 287.491 91.2208C282.862 91.2208 280.547 94.0111 280.547 98.1963C280.547 101.916 283.325 104.706 287.954 104.706C289.806 104.706 291.658 104.241 292.584 103.776V107.032V107.032ZM295.361 88.4308H299.528V95.871H307.861V88.4308H312.027V107.032H307.861V98.6614H299.528V107.032H295.361V88.4308V88.4308ZM317.583 88.4308H330.082V91.2208H321.749V95.8714H329.156V98.6614H321.749V103.777H330.082V106.567H317.583V88.4304V88.4308ZM334.248 88.4308H339.34L347.673 102.382V88.4304H351.84V107.031H346.748L338.415 93.0806V107.031H334.248V88.4304V88.4308ZM373.135 92.1509C371.283 91.6858 369.432 91.2208 367.58 91.2208C362.488 91.2208 359.709 94.0111 359.709 98.1963C359.709 101.916 362.488 104.706 367.117 104.706C368.506 104.706 368.969 104.706 369.894 104.241V99.1261H365.265V96.3361H374.061V106.567C371.746 107.032 369.432 107.497 367.117 107.497C360.173 107.497 355.543 104.241 355.543 98.1963C355.543 91.6854 360.173 87.9657 367.117 87.9657C369.432 87.9657 371.746 88.4308 373.598 88.8959L373.135 92.1509H373.135ZM378.69 88.4304H384.708C391.19 88.4304 397.208 90.2906 397.208 97.7313C397.208 105.171 391.653 107.032 384.708 107.032H378.69V88.4308V88.4304ZM382.857 104.242H385.172C388.875 104.242 392.116 101.916 392.116 97.7309C392.116 93.5461 388.875 91.2208 385.172 91.2208H382.857V104.242ZM400.448 88.4308H404.615V99.1261C404.615 102.382 406.004 104.242 409.244 104.242C412.485 104.242 413.874 101.916 413.874 99.1261V88.4308H418.04V100.521C418.04 105.637 414.799 107.497 409.244 107.497C403.689 107.497 400.448 105.637 400.448 100.521V88.4308V88.4308Z" fill="#231815"/>
</svg>
