<svg width="128" height="128" viewBox="0 0 128 128" fill="none" xmlns="http://www.w3.org/2000/svg">
<path d="M59.9016 59.1563C54.888 59.2825 51.8582 60.9057 51.8582 60.9057V66.3251C51.8582 66.3251 53.9863 64.5396 57.3046 64.0076C60.623 63.4756 62.6609 64.0707 62.6609 65.757C62.6609 67.4522 62.6609 68.3269 62.6609 68.3269C62.6609 68.3269 57.9358 67.0735 54.3289 68.6696C51.2811 70.0222 48.9185 73.6561 50.5146 77.8582C53.2018 84.9188 61.651 82.0693 64.4373 81.8529C66.9171 81.6545 67.7287 81.7627 67.7287 81.7627C67.7287 81.7627 67.7287 69.3278 67.7287 65.4504C67.7287 61.5729 65.9432 59.003 59.9016 59.1563ZM62.5978 78.0025C62.5978 78.0025 60.8755 78.0927 59.6581 78.282C58.4408 78.4714 56.0873 78.8772 55.0232 77.0647C53.9592 75.2522 54.6445 72.8085 56.7185 72.1773C58.7835 71.5551 61.2001 71.9248 62.6068 72.1773V78.0025H62.5978Z" fill="#6B1685"/>
<path d="M69.8928 60.094V82.2947H74.9695V64.3502C74.9695 64.3502 77.2239 63.8813 79.5053 63.9083C81.7866 63.9354 81.976 65.3511 81.976 66.7308C81.976 68.1104 81.976 82.2947 81.976 82.2947H87.1068C87.1068 82.2947 87.1068 74.3324 87.1068 67.5694C87.1068 60.8064 84.7623 59.8866 81.471 59.3726C78.3601 58.8857 75.3032 59.7514 73.2653 59.9407C71.2274 60.1301 69.8928 60.094 69.8928 60.094Z" fill="#6B1685"/>
<path d="M89.253 52.3752V82.2947H94.5552V72.5831L101.949 82.2947H108L98.631 69.445L107.793 59.4268L101.616 59.4719L94.5101 66.8571L94.5552 52.3752H89.253Z" fill="#6B1685"/>
<path d="M26.1137 72.3847H48.1881C48.1881 72.2043 48.1701 71.7535 48.116 71.3657C48.098 71.2485 48.0799 71.1313 48.0619 71.014H26.1137V69.8779H47.8184C47.7553 69.6524 47.6832 69.3999 47.575 69.1475C47.5299 69.0302 47.4848 68.913 47.4307 68.8048C47.4126 68.7507 47.3856 68.6966 47.3676 68.6425C47.3495 68.5974 47.3225 68.5523 47.3044 68.5072H26.1137V67.3801H46.7183C46.4207 66.8931 46.0871 66.4332 45.7174 66.0004H37.0157V64.8732H44.5722C43.9049 64.3142 43.1565 63.8543 42.3539 63.4936H37.0247V62.3664H40.8661C41.8399 62.0779 42.7327 61.6 43.5172 60.9868H37.0337V60.9688H26.1137V59.8596H44.6894C45.0501 59.4358 45.3747 58.9759 45.6453 58.48H26.1137V57.3528H46.1863C46.2314 57.2356 46.4929 56.3248 46.565 55.9732H26.1137V54.846H46.7273C46.7273 54.828 46.7724 53.9352 46.7003 53.4663H26.1137V52.3752H46.4929C46.3847 51.8973 46.2314 51.4374 46.042 50.9956H38.6388V49.8774H45.4559C45.1493 49.3815 44.7886 48.9216 44.3918 48.4978H38.6388V47.3796H43.0573C41.885 46.5861 40.5054 46.0992 39.0085 46.0271C38.9724 46.0271 38.9364 46.0271 38.9003 46.018C38.8101 46.018 38.72 46.009 38.6388 46H38.6027H38.4855H20V82.3849H38.4855H38.6388V82.3759C39.6037 82.3578 40.5054 82.2045 41.362 81.925C41.5153 81.8799 41.6686 81.8168 41.8219 81.7627C41.8309 81.7537 41.849 81.7537 41.858 81.7447C42.399 81.5463 42.913 81.2938 43.3999 80.9962H38.6388V79.8871H44.9149C44.987 79.8149 45.0681 79.7518 45.1403 79.6797C45.1583 79.6617 45.1673 79.6526 45.1854 79.6436C45.3657 79.4723 45.537 79.2829 45.6994 79.0936C45.7084 79.0845 45.7084 79.0845 45.7174 79.0755C45.8797 78.8952 46.033 78.7058 46.1773 78.5074H38.6388V77.3803H46.9257C47.0159 77.2089 47.1061 77.0376 47.1962 76.8663C47.1962 76.8663 47.3676 76.5417 47.575 76.0006H26.1137V74.8735H47.9176C47.9357 74.8013 47.9537 74.7292 47.9717 74.657C47.9717 74.657 48.0709 74.2062 48.1431 73.5479C48.1431 73.5299 48.1431 73.5118 48.1431 73.4848H26.1137V72.3847Z" fill="url(#paint0_linear_63_10859)"/>
<defs>
<linearGradient id="paint0_linear_63_10859" x1="42.1063" y1="46.804" x2="21.4457" y2="82.3801" gradientUnits="userSpaceOnUse">
<stop stop-color="#FAC03D"/>
<stop offset="0.0716" stop-color="#F5A42F"/>
<stop offset="0.1593" stop-color="#F08523"/>
<stop offset="0.2541" stop-color="#EC681A"/>
<stop offset="0.3559" stop-color="#EA4F15"/>
<stop offset="0.4673" stop-color="#E83813"/>
<stop offset="0.5933" stop-color="#E72112"/>
<stop offset="0.7461" stop-color="#E60812"/>
<stop offset="1" stop-color="#E60012"/>
</linearGradient>
</defs>
</svg>
