<svg width="128" height="128" viewBox="0 0 128 128" fill="none" xmlns="http://www.w3.org/2000/svg">
<path d="M106.491 63.7215C106.491 52.8275 91.7255 44 73.5125 44C58.935 44 46.5645 49.6635 42.2165 57.507V57.498C41.8125 58.23 41.587 59.023 41.587 59.8505C41.587 61.8075 42.8215 63.546 44.7505 64.684L61.467 74.3305C62.334 74.802 63.3645 75.082 64.478 75.082C65.593 75.082 66.6255 74.802 67.489 74.336L83.345 65.175C84.418 64.56 85.095 63.589 85.095 62.5095C85.095 61.4615 84.4535 60.5275 83.4425 59.9035L77.55 56.4965L64.478 64.039L54.5905 58.326C58.41 54.889 65.5225 52.572 73.679 52.572C85.8665 52.572 95.744 57.7445 95.744 64.1275C95.4845 74.0115 80.985 81.6585 63.375 81.201C45.751 80.7385 31.68 72.34 31.941 62.461H31.9355C32.058 49.4275 49.152 39.0225 70.1045 39.226C71.9735 39.2475 73.8035 39.3485 75.5905 39.5275C71.2925 37.943 65.9215 37 60.0785 37C55.415 37 51.042 37.606 47.283 38.65C32.1215 42.813 21.5 52.4715 21.5 63.722C21.5 78.7865 40.527 91 63.999 91C87.4715 91 106.5 78.787 106.5 63.7215H106.491Z" fill="#004785"/>
</svg>
