<svg width="427" height="128" viewBox="0 0 427 128" fill="none" xmlns="http://www.w3.org/2000/svg">
<path d="M60.7209 16.0505L59.512 16.1675L57.094 16.2845L54.6761 16.5965L53.4671 16.8305L52.2581 17.0645L51.1662 17.2985L49.9572 17.6105L47.7342 18.2735L45.5113 18.9365L43.2883 19.8335L41.1824 20.8084L39.1544 21.9004L38.1405 22.4464L37.1655 22.9924L36.1515 23.6554L35.1765 24.2014L33.3046 25.6443L32.4076 26.3073L31.4326 26.9703L29.7946 28.5303L28.1567 30.1682L27.2597 30.9482L26.4797 31.8452L25.6997 32.6252L24.9198 33.5221L23.5938 35.3941L22.1508 37.2661L20.9418 39.255L20.3959 40.269L19.8499 41.166L18.7579 43.2719L17.7829 45.3779L17.0029 47.6008L16.2229 49.8238L15.56 51.9687L15.014 54.2697L14.585 56.6876L14.234 59.1056L14.117 61.5235L14 64.0195V65.2284L14.117 66.4374L14.234 68.9724L14.585 71.2733L14.819 72.4823L15.053 73.6912L15.287 74.7832L15.599 75.9922L16.2619 78.2151L17.0419 80.5161L17.8219 82.622L18.7969 84.845L19.8889 86.8339L20.4349 87.9259L20.9808 88.9009L21.6438 89.8759L22.1898 90.7728L23.6328 92.6448L24.2958 93.6198L24.9588 94.5168L26.5187 96.2717L28.1567 97.9097L28.9367 98.6897L29.8336 99.4697L30.6136 100.25L31.5106 101.03L33.3826 102.473L35.2545 103.799L37.2435 105.008L38.2185 105.554L39.2324 106.217L41.3384 107.191L43.4443 108.166L45.6673 109.063L47.8902 109.843L50.1132 110.389L52.4141 110.935L54.8321 111.364L57.25 111.715L59.668 111.949H64.0749L65.9468 111.832L67.8188 111.598L68.7938 111.481L69.6907 111.364L71.5627 111.052L73.3177 110.623L75.1896 110.194L76.9446 109.648L78.6215 108.985L80.3765 108.322L82.0145 107.659L83.6914 106.88L85.3294 105.983L86.8894 105.086L88.4493 104.111L89.8923 103.097L91.3353 102.005L92.7782 100.913L94.1042 99.7037L95.4302 98.4947L96.7561 97.1687L97.9651 95.9597L99.1741 94.5168L100.266 93.0738L101.28 91.6308L102.372 90.1879L103.269 88.6279L104.244 86.99L105.024 85.43L105.804 83.792L106.584 82.154L107.247 80.3991H100.539L101.553 82.7L91.1793 97.7927H34.2795L23.1648 83.909L47.6562 20.7304L61.5009 53.8797L74.7216 20.4574L87.3963 50.0968H107.91L107.247 48.3418L106.584 46.4699L105.921 44.7149L105.024 43.0769L104.244 41.322L103.23 39.684L102.255 38.124L101.28 36.5641L100.071 35.0041L99.5251 34.2241L98.9791 33.4441L97.7701 32.0012L96.4441 30.6752L95.1182 29.3492L93.6752 28.0233L92.2322 26.8143L90.7893 25.7223L89.2293 24.6303L87.6693 23.5384L86.0314 22.5634L84.3934 21.6664L82.7554 20.7694L81.0005 19.9895L79.2455 19.2095L78.3485 18.8975L77.4516 18.5465L75.6186 18.0395L73.7466 17.4935L71.8747 17.0645L69.8857 16.7525L68.0138 16.4015L66.0248 16.2845L63.9189 16.0505H60.7209V16.0505ZM57.991 83.402H84.5494L70.9777 50.5648L57.991 83.402V83.402ZM30.7696 83.402H57.328L43.7563 50.5648L30.7696 83.402ZM88.5273 52.7487L89.4243 54.7377H109.041L108.612 52.7487H88.5273ZM90.5163 57.3896L91.2963 59.3786H109.704L109.47 57.3896H90.5163ZM92.5052 62.0305L93.2852 64.0195H109.938V62.0305H92.5052V62.0305ZM94.3772 66.6324L95.2742 68.6213H109.704L109.938 66.6324H94.3772ZM96.3271 71.2733L97.2241 73.2623H109.002L109.353 71.2733H96.3271ZM98.3161 75.9142L99.2131 77.7861H107.91L108.456 75.9142H98.3161V75.9142Z" fill="#E50113"/>
<path d="M376.926 26.2695L376.302 26.5815L375.678 27.1275L375.132 27.6735L374.82 28.1025L374.625 28.5315L374.391 29.0775L374.196 29.6235L374.079 29.8575L373.845 30.0915L373.104 30.6374L372.792 30.8714L372.675 31.4174L372.558 31.9634V32.8214L372.441 33.2504L372.324 33.4844L372.207 33.6014L372.012 33.7184L371.7 33.9524V34.1474L371.583 34.3814L371.349 35.2393L371.232 35.4733L370.608 36.0193L370.296 36.5653L369.672 37.3063L368.19 39.0222L366.162 41.1672L365.967 41.4012L365.538 41.8302L365.226 42.0642L364.914 42.1812L364.602 42.2982H364.368L363.939 42.1812H363.705L363.51 42.2982L363.198 42.4152L362.886 42.6492L361.716 43.6242L360.429 44.1701L359.259 44.9111L359.142 48.343V48.031L359.259 48.343L359.376 48.46V48.694L359.61 48.811L359.727 48.928H359.844L359.961 49.045L360.078 49.279V49.591L360.195 49.786L360.312 50.02L360.624 50.449L360.858 50.761L360.975 51.073H361.716L361.95 51.19L362.262 51.307L362.496 51.424L362.73 51.658L362.847 51.775H363.471L363.9 51.658L364.524 51.424L364.758 51.307L365.811 50.449L366.24 50.137L366.669 49.708L367.098 49.162L367.215 48.967L367.449 48.733L367.761 48.616H368.697L368.814 48.928L369.126 49.357L369.555 49.786L369.984 50.332L370.218 50.644V50.878L370.101 50.995L369.984 51.19L369.672 51.424L369.555 51.541H369.282L369.048 51.853L368.931 52.165L368.814 52.4769L368.697 53.1399V53.3349L368.151 53.9589L367.917 54.1929L367.605 54.4269L367.176 54.8559L367.059 55.0899L366.825 55.2849L366.63 55.8309L366.396 56.2599L366.279 56.3769L366.045 56.4939H365.928L365.616 56.7278L365.07 57.0398L364.446 57.6638H364.212L363.783 57.7808L363.549 57.8978L363.354 58.1318L363.12 58.3658L363.003 58.5608L362.886 58.8728L362.691 59.0678L362.379 59.3018L362.145 59.4188L361.404 59.7308L360.78 59.9648L360.234 60.1598L359.922 60.2768L359.688 60.5108L359.142 60.8228L358.518 61.1348L357.894 61.3688L356.919 61.9147L356.491 62.1487L356.257 62.3827L356.14 62.4997V62.7337H356.257L356.374 62.8507L356.491 62.9677V63.5917L356.608 63.7087L356.724 63.8257L357.036 64.0207L357.154 64.2547L357.387 64.4887L357.504 64.7227L357.738 65.1517V65.3857L360.507 67.1796V67.0626L360.741 66.8286H361.248L361.56 66.9456L362.106 67.1406L362.418 67.2576H362.73L363.042 67.1406L363.354 67.0236L363.9 66.7116L364.446 66.2826L364.875 65.7367L365.304 65.1907L365.616 64.7617L366.786 63.7087L366.903 63.5917L367.137 63.3967L367.332 63.2797L367.566 63.1627L367.878 63.0457H368.19L368.385 63.1627L368.619 63.2797L368.736 63.3967L368.931 63.8257L369.048 64.2547L369.165 64.8007V65.8926L369.048 66.4386L368.931 66.8676L368.814 67.4916V68.2326L368.931 69.9486L369.165 72.1715L369.048 73.5755L369.165 73.6925L369.36 74.0045V74.6285L369.243 74.9404L369.009 75.3694L368.892 75.6034V75.8374L368.775 76.3834V78.0994L368.658 78.2944V78.4114L368.541 78.5284L368.112 78.7624L367.683 79.0743L367.371 79.3864L367.254 79.6983V79.9323L367.137 80.0493L367.02 80.1663L366.786 80.2833L366.24 80.5173L365.616 80.7123L365.07 80.9463L364.836 81.0633L364.719 81.1803V81.4923L364.836 81.6093L364.953 81.7263L366.006 82.2723L366.552 82.4673L366.669 82.5843H367.215L367.761 82.8183H367.878L368.112 82.9353L368.736 83.3642L369.711 83.7932L370.998 84.4172L371.427 84.6512L371.856 84.7682L372.597 84.8852H373.767L374.313 84.7682L374.742 84.6512L374.976 84.5342L375.093 84.4172L375.21 84.2222L375.405 83.9102L375.639 83.4813L376.185 83.1692L376.614 82.7403L377.16 82.1943L377.355 81.8823L377.589 81.4533L377.706 80.9073L377.823 80.3613L377.94 79.9323L378.057 79.5033V79.0743L378.291 76.3054L378.057 73.8485L378.291 72.0545L378.408 71.4305V69.9095L378.291 69.6756L378.174 69.0516L378.057 68.3106V66.5946L378.174 65.7367L378.291 65.1127L378.408 64.5667L378.291 64.0207L378.174 63.5917V63.1627L378.291 61.8757V61.3297L378.174 61.0958L378.057 60.9008L377.745 60.6668L377.55 60.4328L377.433 60.3158V60.0818L377.316 59.8478V59.3408L377.433 59.0288L377.55 58.7168L377.433 58.4828L377.316 58.1708L377.199 57.8588L376.965 57.4298V57.1958L377.082 57.0788H377.199L377.394 56.9618L377.628 56.7668L378.252 56.2209L378.876 55.3629H379.305L379.5 55.2459L379.617 55.1289L379.734 55.0119V54.5829L379.851 54.4659L380.046 54.3489L380.163 54.2319H380.787L381.645 54.1149H382.074L382.269 54.2319L382.386 54.4659L382.503 54.5829V54.6999L382.386 54.9339V55.1679L382.152 55.5969L381.957 55.9089L381.723 56.3379V56.5719L381.84 56.6889L381.957 56.8058L385.896 57.2348L386.754 57.1178L389.835 56.8058L390.81 56.6889L391.434 56.8058L391.746 56.9228L391.863 57.0398L392.097 57.2738L392.214 57.3908L392.331 57.6248V58.1708L392.448 60.9398L392.565 62.3437L392.682 63.3967V63.9427L392.565 64.2547L392.448 65.1127L392.331 66.1656V67.4526L392.448 67.8816L392.565 68.7396L392.682 69.3636V70.6115L392.448 71.1575L392.331 71.7815L392.214 72.4055L392.097 73.6925V75.0964L391.785 76.5004L391.668 76.6954L391.239 77.1244L390.615 77.6704L389.874 78.4114L389.328 78.6454L388.899 78.8404L388.587 78.9573L388.158 78.8404L387.417 78.6454L386.559 78.3334L386.13 78.1384H385.779L385.662 78.3334V78.7624L385.545 78.9573L385.428 79.0743L385.311 79.3083L384.999 79.5033L384.882 79.8153V80.2443L384.999 80.5563L385.311 81.1803L385.623 81.7263L385.818 81.9603L386.052 82.0773H386.559L386.676 82.1943L386.793 82.3113L386.91 82.5453L387.144 83.0913L387.339 83.4033L387.573 83.7152L389.796 83.9492L392.877 84.3782H399.39L400.131 84.4952L400.755 84.6122L401.067 84.4952L401.378 84.2612L401.613 83.9492L401.729 83.7152V77.7484L401.418 71.4695L401.105 67.1016L400.989 65.6196L400.872 65.0737V64.8787L400.677 64.4497L400.443 64.1377V63.9427L400.326 63.7087V63.3967L400.443 63.0847L400.56 62.2267L400.677 61.3688L400.872 60.3158L400.677 59.4578L400.365 57.7418V57.5078L400.482 57.3128L400.716 57.0008L401.028 56.7668L401.34 56.6499L401.768 56.5329H402.626L403.601 56.2209L404.342 56.1039H404.966L406.799 56.5329L407.969 56.6499H408.203L408.398 56.4549L408.632 56.3379L408.866 56.2209H409.061L409.919 56.3379L410.348 56.2209H410.66L411.089 55.9869H411.986L412.181 56.1039L412.415 56.3379L412.532 56.4549L412.766 56.5719H412.883L413 56.4549V56.1039L412.883 55.7919L412.649 55.3629L412.22 54.7389L412.103 54.4269V53.7639L412.337 53.3349L412.454 53.2179V52.9839L412.571 52.4379V50.956L412.454 48.187L412.571 47.2121V46.2371L412.805 45.1841V44.3261H412.688L412.571 44.5601L412.337 44.7941L411.596 45.3401L410.621 45.9641L409.451 46.5101L408.71 46.7441L407.735 46.9391L405.395 47.2511L403.25 47.3681L402.392 47.4851L398.961 47.797L391.824 47.9141L386.715 48.031L384.921 48.148L383.946 48.265H383.829L383.634 48.382L383.4 48.499L383.283 48.616V48.733H383.166V49.162L383.283 50.02L383.4 50.332V50.761L383.283 50.995L383.049 51.307L382.932 51.541L382.737 51.775L382.503 51.97H382.269L381.957 51.853L381.84 51.619L381.606 51.385L381.489 51.19L381.177 50.878L380.982 50.683L380.748 50.449L380.514 50.254L380.319 49.942L380.007 49.318V48.967L379.89 48.733L379.656 48.538L379.422 48.304L378.993 48.07H378.057L377.745 47.953L377.316 47.8361L377.121 47.5241L376.887 47.2121L376.77 46.9001L376.653 46.4711V45.4181L376.77 45.2231L376.887 44.9891L377.004 44.7551L377.121 44.5601L377.316 44.3651L377.628 44.1311L377.94 43.8971L378.252 43.7801H378.681L378.993 43.6631L379.539 43.7801H379.773L379.89 43.8971H380.202V43.7801L380.319 43.6631V43.3512L380.202 42.7272V41.4012L380.319 41.2062L380.436 41.0892L380.553 40.8552L380.67 40.5432L380.787 39.6852V38.9443L380.67 38.6323V38.3983L380.553 38.2813V37.9693L380.436 37.4233L380.319 36.5653L380.436 36.3313V35.5903L380.319 34.7323L380.202 34.1864L379.968 33.6404L379.851 33.2114V32.2364L380.046 31.8074L380.358 31.1834L380.787 30.7544L380.904 30.4424L381.099 30.1305V29.7015L380.982 29.5845L380.865 29.4675L380.748 29.2725L380.202 28.4145L380.085 28.1805V27.2055L379.968 27.0885H379.149L378.72 26.8935L378.486 26.6595L378.252 26.3475L377.94 25.7235L377.823 25.4896H377.706L377.589 25.7235L377.472 25.8405L377.043 26.0745L376.926 26.2695V26.2695ZM383.01 32.8604L384.297 33.2894L386.325 33.1724L389.211 33.3674H389.757L390.069 33.2504L390.81 32.9384L391.044 32.8214L391.356 32.7044H391.785L392.331 32.8214L393.93 33.0554L396.387 33.3674L397.011 33.4844H398.922L399.975 33.3674L400.833 33.1724L401.573 32.8604L402.002 32.6654L402.431 32.4314L404.888 31.1444V31.0274L405.005 30.7934L405.122 30.6764L405.434 30.4424L405.863 30.2084L406.487 29.9745L407.345 29.8575L407.774 29.7405H408.086L408.398 29.8575L408.632 29.9745L408.866 30.0915L408.983 30.3254L409.1 30.4424L409.217 30.6764V31.1054L409.1 31.4174V34.4983L408.671 37.8133L408.554 40.0362L408.437 40.5822L408.008 42.2982L407.774 42.7272L407.657 42.9222L407.423 43.0392L407.228 43.1562L407.111 43.2731H406.565L405.395 43.0392L404.03 42.7272L403.172 42.6102H402.431L401.573 42.7272H400.716L399.234 42.9222L398.181 43.0392H395.802L391.434 43.3512L385.038 43.7411L384.609 43.8581L384.297 43.9751L384.063 44.0921V42.4932L383.946 41.2062L383.829 40.6602L383.712 40.2312L383.595 39.8022L383.478 39.3732L383.361 38.3983L383.244 36.6043L383.127 35.8633L382.932 35.0053L382.62 33.8354L382.386 33.5234L382.269 33.2114V32.9774L382.503 32.8604H383.01V32.8604ZM299.006 24.7876V24.4756L299.123 24.2806L299.24 23.9686L299.357 23.7736L299.474 23.6566H299.708L299.903 23.7736L300.02 23.8906L300.254 24.0856L301.307 25.1386L301.736 25.7625L302.048 26.3085L302.243 26.7375L302.36 27.1665L302.672 27.5955L303.101 27.9075L303.53 28.2195L303.725 28.3365L303.959 28.5705L304.271 28.9995L304.388 29.4285L304.505 29.5455V29.7795L304.622 30.0134L305.051 30.3254L305.987 30.9494L306.104 31.0664L306.338 31.3004L306.455 31.6124V32.0414L306.65 32.3534L306.884 32.6654L307.001 33.0944L307.118 33.5234V34.0304L307.001 34.2644L306.884 34.4983L306.65 34.6933L306.455 34.9273L306.221 35.1223V35.4733L306.338 35.7073L306.455 36.0193L307.001 36.4483L307.43 36.6823L308.405 37.1113H308.834L309.146 37.2283L309.458 37.1113L309.77 36.9943L310.199 36.5653L310.628 36.1363L310.94 35.5903L311.057 35.3953V35.2783H310.94L310.823 34.7323L310.706 34.1084L310.589 33.4844L310.706 33.1724L310.823 32.9774L310.94 32.6654V31.7294L310.823 31.1834L310.706 30.9884V30.1305L310.823 29.8185L310.94 29.7015L311.057 29.5845H311.291L311.603 29.7795L313.942 31.3784L315.229 32.4314L315.658 32.8604L315.853 33.1724L315.97 33.2894L316.204 33.4064H316.75L318.661 33.0944L319.948 32.9774L321.43 32.8604H322.171L322.912 32.9774L323.77 33.0944L324.628 33.3284L324.823 33.2114H325.759L326.188 33.0944H326.422L326.656 32.9774L326.773 32.8604L326.968 32.7434L327.163 32.4314L327.475 32.3144L327.904 32.1194H328.099L328.216 32.2364L328.528 32.3534H328.645V32.1584L328.957 31.8464L329.074 31.6124L329.308 31.3784L329.62 31.2614H330.478L330.907 31.1444L331.648 30.7154L331.96 30.5984L332.155 30.7154L332.467 31.0274L332.584 31.3394V32.8214L332.701 33.1334V33.5624L332.818 33.8744L332.935 34.1864V34.3814L333.052 34.5763V36.0583L332.935 36.9163L332.818 38.5153V39.2562L332.701 39.3732L332.467 39.6852L332.233 39.9972L332.116 40.1922V40.4262L331.999 41.4012L331.804 43.1172L331.609 45.0281L331.375 45.7691L331.258 46.0811L331.141 46.2761L331.024 46.5881L330.907 46.9001V49.981L331.102 52.204L331.336 53.8029V54.1149L331.219 54.7389L331.102 55.7139L330.985 56.1429L330.751 56.6889L330.517 57.1178L330.322 57.7418L330.205 58.2878V59.3798L330.322 59.5748V59.8088L330.517 60.0038L330.634 60.1208H331.063L331.492 60.0038L331.921 59.8868L332.35 59.6528L332.584 59.4188L332.896 59.1068L333.13 58.6778L333.676 57.8198L333.988 57.1958L334.105 57.0008L334.3 56.8839H334.417L334.534 57.0008L334.846 57.5468H335.08L335.392 57.6638L335.704 57.8588L336.016 58.0928L336.25 58.4048L336.367 58.6388V59.3798L335.821 60.7838L336.25 61.5247L336.367 61.6417V61.8757L336.25 61.9927L336.133 62.2267L336.016 62.3437L335.899 62.6557V63.4747L336.133 63.9037L336.367 64.2157L336.484 64.3327L336.679 64.4497L336.796 64.5667L337.03 64.8787L337.147 64.9957L337.03 65.1127L336.796 65.3077L336.367 65.4246H336.133L335.899 65.5417L335.665 65.6587L335.353 65.8926L335.158 66.0876L334.924 66.3996L334.807 66.7116L334.378 66.8286L333.949 66.9456L333.403 67.0626H331.609L331.18 66.9456L330.205 66.7506L329.503 66.3606L328.957 66.2436H328.333L328.216 66.3606L328.099 66.5556L327.904 66.9846L327.592 67.4136L327.475 67.7256V68.3886L327.592 68.5836L327.709 68.8176L328.138 69.2466L328.684 69.6756L329.113 69.8706L329.425 69.9875L330.049 70.2216L330.673 70.4166H331.297L332.038 70.5335L332.467 70.6505L332.779 70.7675L333.754 71.1965L334.807 71.7425L335.119 71.9375L335.548 72.0545L335.86 72.1715H337.03L337.654 72.0545L338.278 71.9375L338.707 71.7425L339.136 71.5085L339.019 72.2495L338.824 73.9655L338.59 74.9404L338.278 75.9934L337.966 77.0464L337.42 78.0214L336.445 79.4253L335.821 80.2833L335.392 80.8293L335.08 81.0243L334.339 81.6483L333.598 82.3893L333.286 82.8183L333.169 83.0523L333.052 83.3642H332.779L332.35 83.1303V83.0133L332.233 82.8963L331.999 82.5843L331.804 82.2723L331.609 82.1553L331.375 81.9213H331.141L330.712 81.8043H330.478L330.049 81.5703L329.62 81.1413L328.996 80.5173L328.684 80.4003L328.06 79.8543L327.631 79.3083L327.163 78.8404L326.539 78.0994L325.915 77.1634L325.681 76.6174L325.447 76.1884L325.252 75.6424L325.018 75.3304L324.901 75.0964L324.667 74.9015L324.472 74.7844L324.16 74.6674H323.653L323.419 74.9015L322.99 75.2134L322.756 75.4474L322.639 75.6424V75.9934L322.405 76.3054L322.093 76.6174L321.469 77.1634L321.04 77.4754L320.728 77.6704L320.299 78.0994L320.065 78.3334L319.948 78.5674L319.831 78.8793L319.714 79.1134V79.5813L319.402 80.1273L319.09 80.4393L318.661 80.9853L318.037 81.4143L317.608 81.7263L317.179 81.9603L316.204 82.3893L314.839 82.8183L313.006 83.7932H311.213L310.784 84.1052L310.355 84.3392L309.809 84.5732L309.263 84.8072H308.834L308.639 84.6902L308.405 84.5732L308.21 84.3392L308.093 84.1052V83.3642L307.976 83.1692L307.859 82.8573L307.742 82.6233L307.547 82.5063L307.43 82.3893L307.313 82.2723V81.4923L307.43 80.4393L307.313 80.0103L307.118 79.6983L306.884 79.3864L306.572 78.9573L306.26 78.7624L305.831 78.5284L305.519 78.4114L305.285 78.2944H304.973L304.739 78.4114H304.544L304.31 78.5284L303.998 78.7624L303.686 79.0743L303.257 79.6203L303.14 79.9323L303.023 80.0493L302.594 80.3613L302.36 80.4783L302.048 80.5953L301.619 80.7123L301.19 80.5953H301.034L300.8 80.7123L300.605 80.9463L300.371 81.1413L300.059 81.5703L299.942 81.8043L299.084 82.2333L298.46 82.4673H297.914L297.797 82.5843L297.485 82.8963L297.173 83.4422L297.056 83.5592L296.939 83.6763L296.744 83.7932H296.51L296.198 83.6763L296.081 83.5592L295.964 83.3253L295.535 82.8963L293.819 80.9853L293.195 80.0103L293.078 79.6983L292.649 79.2693L292.454 78.9573L292.142 78.6454L291.83 78.5284L291.596 78.4114L291.479 78.2944H291.167L291.05 78.0994L290.933 77.8654V77.6704L291.05 77.3584L291.167 77.1244L289.685 73.6145V73.3805L289.802 73.2635H289.919L290.036 73.1465H290.348L290.66 73.2635L291.206 73.3805L291.752 73.4975H293.663L294.287 73.3805L294.833 73.1465L295.262 72.8345L295.691 72.5225L296.12 72.4055L296.549 72.2885L296.783 72.1715H297.329L297.446 72.2885L297.758 72.1715L298.382 71.6255L298.694 71.1965L298.928 70.7675L299.045 70.4555L299.162 70.1436L299.279 69.8316V69.0906L299.162 68.7786L299.045 68.4666L298.928 68.2326L298.811 68.1156L298.694 67.9986L298.382 67.8816L298.07 67.7646L297.758 67.8816H297.446L297.329 67.9986L297.017 68.1156L296.822 68.3106L296.588 68.5446L296.354 68.7006L296.12 69.1296L296.003 69.2466L295.886 69.4806L295.574 69.7926L295.145 70.1045L294.716 70.4166L294.17 70.6115L293.741 70.8455H293.234L293.039 70.5335L292.805 70.3385V68.7006L292.688 68.2716L292.493 67.4136L292.259 66.7896L292.142 66.4776L292.025 66.0486L291.713 65.0737L291.596 64.5277V63.4747L291.713 63.2407H291.83L291.947 63.1237L292.376 63.0067H292.805L293.234 63.1237L294.092 63.2407L294.404 63.3577H295.145L295.769 63.4747H296.51L297.368 63.3577L297.992 63.1627L298.226 63.0457L298.421 62.8117L298.655 62.6167V62.3047L298.889 61.3297V60.9008L298.772 60.5888L298.655 60.2768L298.421 60.0428L297.992 59.9258H297.563L294.911 60.5498L294.677 60.6668L294.482 60.5498H294.287L294.053 60.4328L293.741 60.3158L293.507 60.0038L293.39 59.8088V59.6918L293.234 59.3408L293.039 59.0288L292.727 58.7168L292.532 58.4048L292.298 58.2878H291.713L291.518 58.4828L291.284 58.7168V59.0288L291.167 59.4578L291.05 59.8868V60.3158L290.816 60.8618L290.504 61.4077L290.27 61.7197L290.036 61.9537L289.919 62.1877L289.802 62.3827L289.685 62.9287L289.568 63.1627L289.334 63.4747L289.022 63.7087L288.788 63.9037H288.671L288.554 64.0207L288.437 64.3327L288.32 64.6447V64.9567L288.437 65.6976V66.2436H288.554L288.359 66.3606H288.125L287.813 66.2436L287.579 66.1266L287.15 65.8146L286.721 65.5807L286.409 65.4637L286.097 65.2687L285.785 64.9567L285.59 64.6447L285.395 64.3327L285.278 64.0207V63.8257L283.991 63.3967H283.562L283.25 63.2797L282.821 63.1627L282.392 62.9287L282.275 62.8117L282.08 62.6167L281.963 62.3827V60.4718L281.846 60.3548L281.729 60.2378H281.534L281.417 60.1208L281.183 60.0038V59.8868L281.3 59.6528L281.417 59.5358L281.846 59.2238L282.08 59.1068L282.392 58.9898L283.25 58.6778L284.303 58.3658H284.537L285.083 58.2488L285.824 58.0148L286.253 57.7808L286.682 57.5858L287.228 57.2738L287.774 56.8449L288.32 56.2989L288.866 55.7529L289.412 55.0119L289.958 54.2709L290.504 53.2959L291.05 52.2429L294.95 43.7411L296.12 38.6323L297.095 34.5763L297.641 32.8604L297.953 31.6904L298.07 31.2614L298.382 30.2864L298.577 28.9995L298.811 28.2585L298.928 27.5175L299.045 25.3726V24.7876H299.006ZM317.764 65.1907V64.9567L317.881 64.7617L317.998 64.6447L318.115 64.4497L318.427 64.3327H318.856L319.402 64.4497L319.714 64.6447L319.831 64.7617L319.948 64.9567V65.7367L320.26 66.3606L320.689 66.9066L320.806 67.1406L320.923 67.2576L321.157 67.3746L321.391 67.5696L321.625 67.8036L321.742 68.1156L321.859 68.4276L321.976 68.8566V69.1686L321.859 69.5976L321.742 69.7926L321.625 70.0266L321.313 70.5725L321.001 71.0015L320.806 71.2355V71.6645L320.26 71.8985H320.143L319.909 72.0155L319.675 72.2495L319.558 72.3665L319.441 72.4835L319.324 72.7175L319.09 72.8345L318.778 72.9515H318.193L317.959 72.7175L317.764 72.4835L317.647 72.2885V72.0545L317.53 71.5085V68.9736L317.647 68.6616L317.764 66.8286V65.1907ZM321.274 60.3938L321.04 60.5108L320.728 60.9398L320.611 61.1348L320.494 61.4467V61.9927L320.611 62.2267L320.806 62.7727L321.118 63.2017L321.43 63.5137L321.625 63.6307L321.742 63.8257L322.171 64.3717L322.483 64.9957L322.6 65.1127L322.717 65.2297H322.951L323.146 65.3467L323.458 65.2297L323.77 65.1127L324.199 64.8007L325.252 64.1767L326.422 63.5527L327.592 63.0067L329.503 61.5247V61.4077L329.62 61.2907V61.0568L329.503 60.8618L329.386 60.6278L329.074 60.4328L328.762 60.3158L326.305 59.7698L325.681 59.8868L324.394 60.1988L322.561 60.5108L322.132 60.6278H321.703L321.391 60.5108L321.274 60.3938V60.3938ZM319.051 51.229L318.31 52.087L317.998 52.5159L317.803 52.8279V53.2959L317.92 53.4129L318.037 53.5299L318.154 53.9589L318.271 54.3879L318.466 54.6219L318.583 54.9339L318.7 55.0509L318.934 55.1679L319.363 55.2849H320.455L321.43 55.1679L321.742 55.0509L321.859 54.9339L322.093 54.7389L322.288 54.6219L322.6 54.5049H323.029L323.575 54.3879L324.199 54.2709L324.628 54.1539L324.823 54.0369L325.057 53.8419L325.174 53.6079L325.291 53.4129V52.9839L325.408 52.5549L325.291 51.931L325.174 51.697L325.057 51.385L324.823 51.151L324.628 50.956L324.004 50.527L323.692 50.41L323.38 50.293H322.873L322.561 50.41L322.249 50.527L321.937 50.839L321.703 51.034L321.508 51.151L321.079 51.385L320.65 51.502H320.221L319.675 51.385H319.363L319.051 51.229V51.229ZM318.193 42.2592L317.959 42.5712L317.842 42.6882H317.725L317.491 42.8052V43.0002L317.608 43.7411L317.725 44.1701L317.842 44.4041L317.959 44.6381L318.076 44.7551H318.271L318.7 44.6381L319.675 44.5211H320.65L321.079 44.6381L321.391 44.7551L321.82 44.9891L322.366 45.1061H322.678L323.107 44.9891L323.536 44.7551L323.77 44.5211L324.628 43.4681L324.823 43.3512L325.135 43.1172L325.33 42.8832L325.564 42.6882V42.1422L325.33 41.7132L325.135 41.2842L324.823 41.0502L324.628 40.8162L324.316 40.6992H323.848L323.653 40.8162L323.419 40.9332L323.107 41.0502L322.366 40.9332H321.703L321.391 41.0502L321.274 41.1672L321.04 41.4792L320.806 41.7132L320.494 41.9472H319.441L318.817 42.0642L318.193 42.2592V42.2592ZM304.778 51.541L304.544 51.424L304.31 51.19L304.193 51.073L304.076 50.956L303.959 50.761L303.842 50.644V49.981L303.959 49.669L304.271 49.123L304.583 49.006L305.441 48.811L305.987 48.694H306.533L307.079 48.811L307.508 49.006L307.937 49.123H308.249L308.366 49.006L308.483 48.811V48.265L308.366 47.8361L308.483 47.5241V47.2121L308.6 47.0171L308.795 46.4711L308.912 46.2371L309.146 46.0421L309.341 45.9251L309.458 45.7301L309.653 45.3011V44.9111L309.77 44.6771L310.004 44.4431L310.238 44.2481L310.433 44.1311H310.784L311.096 44.3651L311.525 44.9111L311.954 51.424L312.5 55.7919L312.694 62.0707L312.811 65.4637L313.045 67.9206V68.7786L313.162 69.3246L313.279 69.5586V69.8706L313.084 70.4166L312.85 70.9625L312.733 71.1965L312.343 72.9905L312.11 73.2245L311.876 73.8485L311.681 74.1605L311.564 74.5894V75.9934L311.447 76.1104L311.252 76.4224L311.174 76.5004L310.979 76.6174L310.667 76.8514H310.355L309.926 76.9684L309.614 76.8514L309.185 76.6174L308.756 76.4224L308.522 76.1104L308.405 75.6814L308.21 75.3694L307.976 75.2524H307.742L307.625 75.1354V74.9404L307.508 74.6285L307.625 74.3944V74.1605L307.742 74.0435L308.054 73.6145L308.249 73.4975L308.483 73.3025L308.912 72.9905L309.224 72.4445L309.458 72.2495L309.575 71.9375L309.692 71.3915L309.809 70.8455V70.2995L309.692 69.3246L309.575 68.3496L309.458 67.1796V65.8926L309.77 65.0347V64.4107L309.653 64.0987L309.458 63.8647L309.224 63.5527L309.107 63.4357L308.99 63.2017L308.873 62.7727L308.756 62.2267V61.6807L308.873 61.2517V60.7058L308.99 60.3938L309.107 60.0818L309.302 59.4578L309.419 59.0288L309.536 58.5998L309.653 57.7418V56.6889L309.77 55.2849V54.5439L309.653 53.9199L309.536 53.3739L309.419 53.1789L309.302 53.0619L309.107 52.8279L308.795 52.5939L308.171 52.2819L307.547 52.165H306.806L306.494 52.048L306.182 51.931L305.87 51.697L305.753 51.58H305.636L305.207 51.463H304.778V51.541ZM303.374 68.2716L303.257 68.5836V68.8176L303.374 69.0126L303.803 69.6756L303.998 70.1045L304.31 70.4166L304.544 70.6115L304.856 70.7285L305.402 70.9625H305.909L306.455 71.0795H306.767L307.196 71.1965H307.625L308.054 71.0795L308.483 70.9625L308.795 70.7285L308.912 70.6115V70.4166L309.029 70.2216V69.4416L307.43 67.5306L305.402 67.3356H304.856L304.427 67.4526L304.115 67.6476L303.92 67.7646L303.491 68.1936L303.374 68.2716V68.2716ZM303.92 60.3938L304.037 61.7977V62.0317L304.154 62.1487L304.271 62.3437L304.388 62.4607L304.7 62.5777L305.129 62.6947H305.753L306.377 62.5777L306.689 62.4607L306.923 62.3437L307.04 62.2267L307.157 62.1097L307.04 61.9927L307.274 61.5637L307.469 61.2517L307.703 61.0177L307.82 60.9008L308.054 60.7838V60.2378L307.937 59.9258L307.742 59.6138L307.508 59.3018L307.196 59.0678L306.884 58.9508L306.026 59.0678H305.714L305.285 59.3018L304.856 59.6138L304.544 59.9258L304.232 60.1208L303.998 60.2378L303.92 60.3938V60.3938ZM297.524 48.889V49.084L297.407 49.63L297.173 50.254L297.056 50.488L296.939 50.605H296.822L296.588 50.722L296.471 50.956V51.073L296.588 51.307L296.705 51.424L296.9 51.541L297.212 51.658H298.265L298.577 51.541L298.811 51.424L298.928 51.19L299.123 50.878L299.24 50.566V50.02L299.123 49.786L299.006 49.591L298.811 49.396L298.499 49.084L298.304 48.967H297.524V48.889ZM302.321 40.1142L302.009 40.7382L301.892 41.2842V41.7132L302.009 42.1422L302.126 42.4542L302.243 42.6882L302.477 42.8832H303.452L303.647 43.1172L303.881 43.2342L304.076 43.4681L304.31 43.5851L304.544 43.7021L304.856 43.8191H305.402L305.636 43.3902L306.494 41.9862L306.806 41.5572L306.923 41.1282V40.8942L306.806 40.5822L306.689 40.4652L306.572 40.3482L306.455 40.2312L304.622 38.7493L304.31 38.6323H304.076L303.881 38.5153L303.647 38.6323L303.452 38.7493L303.335 38.8663L303.023 39.1782L302.828 39.4902L302.594 39.8022L302.321 40.1142V40.1142ZM229.938 34.0304H231.303L232.044 33.9134L232.668 33.7184L232.98 33.4844L233.175 33.3674L233.409 33.1724L233.526 32.9384L233.409 32.7434L233.292 32.4314L232.122 31.4564L231.264 30.5984L230.952 30.1695L230.757 29.8575L230.445 29.6235L230.016 29.1945L229.821 28.8825L229.704 28.5705V28.1415L230.016 27.7125V27.4005L229.899 27.2835L229.782 26.9715L229.665 26.7375L229.431 26.5035L229.119 26.1915V25.9575L229.002 25.6456L228.768 25.3336L228.651 25.0216V24.7096L228.768 24.2806V24.2416L228.885 24.0076L229.119 23.8906L229.236 23.6956L229.431 23.5786H229.743L230.055 23.4616H234.54L234.969 23.3446L235.281 23.2276L235.515 23.1106L236.061 22.9936L236.685 22.8766H238.167L238.908 23.1106L239.337 23.2276L239.649 23.3446L239.961 23.5786L240.273 23.8126L240.468 23.9296L241.092 24.2416L241.833 24.4366H242.652L242.847 24.5536L242.964 24.6706V25.0996L242.847 25.4116L242.652 25.6456L242.34 25.8795L242.223 26.3085L241.677 27.1665L241.365 27.5955L241.053 28.0245L240.741 28.3365L240.429 28.5705L240.234 28.7655L239.688 29.3115L239.454 29.7405L239.259 30.2864L239.025 30.8324L238.908 31.3784L238.791 31.6904V32.0024L238.908 32.3144L239.103 32.6264L239.532 32.8604L239.844 32.9774H240.273L241.209 32.8604L241.755 33.0554L243.12 33.1724L244.095 33.2894L245.031 33.1724H245.46L246.006 33.0554L246.435 32.9384L246.981 32.8214L250.179 32.5874L253.923 32.3534H254.547L255.288 32.1584L255.6 32.0414L255.912 31.9244L256.224 31.6904L256.536 31.4954L256.653 31.3784L256.965 31.2614L257.706 31.1444H258.564L259.539 31.3394L260.514 31.6514L260.943 31.8854L261.372 32.1194L261.684 32.4314L261.801 32.6654L261.918 32.8604L262.035 33.2894L262.152 33.7184V36.6433L262.035 37.3843L261.801 38.0083L261.684 38.3203L261.489 38.5543L261.255 38.7493V39.0612L261.138 39.3732L261.021 39.6852L260.904 39.8802V41.7522L260.787 42.0642L260.592 42.3762L260.28 42.5712L259.968 42.8052H259.422L258.993 42.6882L258.369 42.4542L257.823 42.2592L257.277 42.1422L256.848 42.0252L256.419 41.9082L255.99 42.0252H255.678L255.483 42.1422L255.249 42.2592L255.132 42.3762L255.015 42.4932L254.586 42.6102L254.04 42.7272H252.792L252.168 42.6102L251.739 42.4932L251.544 42.3762L251.427 42.2592H251.193L250.998 42.1422L250.569 42.0252H249.321L248.151 42.2592H247.605L247.41 42.5712L247.176 42.8832L246.864 43.4292L246.669 43.9751L246.435 44.5991V46.0811L246.552 46.3931L246.786 46.5881L246.903 46.8221L247.137 47.0561H247.371L247.566 47.1731H247.995L248.424 47.0561L248.736 46.9391L249.048 46.8221L249.36 46.7051L249.672 46.5101L250.101 46.3931L250.725 46.2761L251.349 46.1591L251.973 46.2761H252.831L253.689 46.5101L254.118 46.7051L254.43 46.8221L254.742 47.0561L254.937 47.3681L255.249 47.797L255.483 48.343L255.6 48.772L255.483 49.201V49.825L255.6 50.683L255.795 51.853L255.912 52.399L256.107 52.9449L256.224 53.1789V53.3739L256.341 53.9199L256.224 54.5439L256.107 55.0899L255.912 56.1429L255.678 56.7668V56.8839L255.561 57.1958L255.444 57.8198V60.6668L255.639 63.2407L256.068 66.7506L256.302 68.9736L256.614 71.4305L256.731 72.2885V73.0295L256.848 74.6285V76.2274L256.731 77.6314L256.497 79.8543L256.38 80.8293L256.263 81.1413L256.146 81.6873L255.912 82.5453V82.9743L256.029 83.5202V84.2612L255.912 84.4952H255.795L255.249 84.6122H254.508L249.555 84.3002L249.126 84.1832H247.059L246.63 84.3002L246.318 84.4172H244.602L243.861 84.1832L243.432 84.0662L243.003 83.9492L242.262 83.5202L241.833 83.3253L241.521 83.0133L240.468 82.7013L239.61 82.4673L239.064 82.3503L239.181 82.2333L239.805 81.8043L240.234 81.4923L240.546 81.0633L240.858 80.7513L240.975 80.3223L241.092 80.0103V79.5813L240.975 79.0353L240.858 78.8014L240.741 78.6064L240.507 78.3724L240.312 78.2554L240.078 78.0214H239.766L239.337 77.9044H232.629L232.2 78.0214H231.225L230.679 77.8264L230.445 77.7094L230.25 77.5924L230.016 77.3974L229.899 77.1634L229.782 76.9684V76.6564L229.587 74.0825V73.8485L229.704 73.4195L229.821 73.2245L229.704 72.9905L229.587 72.8735L229.353 72.6785V72.4445L229.236 71.8985V71.2745L229.353 70.9625L229.587 70.7285V69.4416L229.158 68.7006L229.275 65.9317L229.392 64.9567L229.275 64.8397L229.158 64.6447L228.846 64.4107L228.534 64.1767L228.105 63.9817L227.481 63.8647L226.74 63.7477L226.428 63.8647H226.194L226.077 64.0987V64.3327L226.194 64.7617L226.311 64.9957V65.1907L226.194 65.4246V66.4776L226.311 67.2186L226.428 67.8426L226.857 78.0604V80.2053L226.74 80.7513L226.545 81.1803L226.311 81.3753H226.194L225.882 81.6093L225.648 81.7263L225.531 81.8433V81.9603L225.648 82.0773H225.765L225.882 82.1943H224.595L224.283 82.3113L224.049 82.5063L223.815 82.9353H223.698L223.581 83.0523L223.347 83.1692H222.724L222.295 83.0523L221.671 82.8573L219.214 82.2333H218.98L218.785 82.1163V81.9993L218.668 81.8823L218.551 81.6873L218.434 81.2583V79.5423L218.317 78.3724L218.2 77.3974L218.083 76.6564V75.9154L217.966 74.4335V63.7477L218.083 63.0067L217.576 51.97L217.459 51.229V49.396L217.576 49.084L217.81 48.772L217.927 48.577V47.6411L218.044 47.5241V47.4071L218.161 47.2901L218.278 47.1731L218.707 47.0561L219.331 46.9391H221.047L222.529 47.1731L223.269 47.2901L223.893 47.5241L224.439 47.6411L224.985 47.758L225.531 47.6411H226.077L226.818 47.4071L227.13 47.2901L227.247 47.1731H227.442L227.559 46.9391L227.676 46.8221V46.2761L227.559 45.9641L227.247 45.3401L226.935 44.9111L226.74 44.5991L226.623 44.2871L226.506 43.8581L226.272 43.6242L226.155 43.4292L225.921 43.1952L225.687 43.0782H225.258L224.829 43.1952L224.712 43.3122L224.088 43.6242L223.659 43.7411L223.036 43.8581L222.412 43.9751H221.554L219.643 44.1701L218.239 44.4041H216.835L215.977 44.5211L214.612 44.8331L214.183 44.9501H213.949L213.754 45.0671H213.52L213.286 44.9111L213.091 44.6771L212.974 44.4431L212.662 43.8191L212.428 43.5071L212.194 43.3122H212.116L211.882 43.0002L211.765 42.5712V41.5182L211.882 41.3232L211.765 41.0892L211.648 40.5432L211.531 40.2312L211.297 39.9192L211.063 39.6072L210.751 39.2952L210.517 38.9832L210.322 38.6713L210.088 38.2423V37.8913L209.971 37.5793L209.854 36.8383V35.9803L209.971 34.9273L210.088 33.9524V32.4314L210.205 32.2364L210.322 32.1194H210.439L210.634 32.0024L210.868 32.1194L211.063 32.2364L211.375 32.4314L211.492 32.6654L211.804 32.8604L212.233 33.0944L212.779 33.4064L213.403 33.6404L213.832 33.7574H214.261L214.807 33.8744H215.353L229.938 34.0304V34.0304ZM233.877 45.3401L234.189 45.7691L234.618 46.3151L234.813 46.7441L234.93 46.9781L235.164 47.2901L235.476 47.5241L236.022 47.758H237.192L237.933 47.6411L238.362 47.5241L238.791 47.2901L239.025 46.9781L239.142 46.7441L239.259 46.5491V46.2371L239.142 46.0031V45.2621L239.259 44.9501L239.571 44.0921L239.805 43.5461L239.922 43.1172V42.6882L239.805 42.3762L239.688 42.1422L239.571 42.0252H239.415L239.181 41.9082H238.986L238.557 42.0252H238.245L237.699 41.9082L236.841 41.6742L236.607 41.5572H236.373L235.827 41.7912L235.281 41.9862L234.735 42.2982L234.111 43.0392L233.799 43.3512L233.565 43.7411L233.448 43.9751V44.7161L233.565 45.0281L233.799 45.1451L233.877 45.3401V45.3401ZM242.496 55.9089L242.379 56.5329L242.496 57.0788L242.613 57.3908L242.73 57.7028L242.847 57.8978L243.042 58.0148H243.276L243.588 57.8978L243.783 58.0148L244.017 58.1318L244.251 58.3658L244.446 58.6778L244.68 58.9898L244.875 59.2238L245.187 59.3408H246.045L246.279 59.2238L246.825 58.4828L246.942 58.3658H247.176L247.293 58.2488L247.527 58.0148L247.722 57.7028L247.956 57.3908L248.151 56.7668L248.268 56.2209V55.6749L248.151 55.3629L248.034 55.0509L247.917 54.8169L247.683 54.6999L247.566 54.5829H247.371L246.747 54.6999H246.201L245.772 54.5829L245.031 54.3489H244.29L244.056 54.4659H243.198L243.081 54.5829L242.886 54.6999L242.769 54.8169V54.9339L242.535 55.1679V55.9089H242.496ZM235.476 57.3128L235.593 58.1708L235.788 58.7948L236.022 59.5358L236.139 59.8478L236.256 60.1598L236.139 60.3938V60.7058L235.827 61.1348L235.398 61.6807L235.281 61.9927L235.164 62.3047L235.281 62.4217V62.5387L235.398 62.6557L235.632 62.8507H236.334L236.88 62.7337H238.362L238.674 62.8507H238.908L239.103 62.9677H239.22L239.649 62.8507L240.195 62.7337L240.429 62.6167L240.546 62.3827L240.663 62.0707V61.8367L240.546 61.5247L240.429 61.2127L240.195 60.9008L239.961 60.5888L239.766 60.1598L239.649 59.6138L239.532 58.1318V56.1039L239.415 55.7919L239.298 55.4799L239.103 55.2459L238.791 55.0509L238.557 54.9339L238.245 54.8169L237.699 54.6999H237.075L236.646 54.8169L236.1 54.9339H235.905L235.671 55.0509L235.554 55.1679L235.437 55.3629L235.32 55.4799L235.203 55.7139V56.5719L235.32 57.0008L235.476 57.3128V57.3128ZM226.506 55.4799H226.194L225.882 55.7139L225.765 55.8309L225.57 56.0649V56.8449L225.687 57.4688V57.8588L225.57 57.9758L225.336 58.0928L225.102 58.2098L224.907 58.4438L224.79 58.6388L224.673 58.9508L224.595 59.3408V59.7698L224.712 60.1988L224.829 60.5108L224.946 60.7058L225.063 60.8228L225.375 61.0177H225.804L226.233 61.1348L226.545 61.0177H226.857L227.169 60.9008L229.743 59.4188L230.172 57.1958V56.6499L229.938 56.1039L229.743 55.5579L229.314 55.1289L228.885 54.6999L228.69 54.5829L228.573 54.4659H228.105L227.988 54.5829L227.871 54.7779L227.637 55.0899L227.442 55.2849L227.208 55.4019L226.896 55.5189L226.584 55.4019H226.506V55.4799ZM244.758 64.0207V64.3327L244.641 65.3857L244.524 66.5556L244.641 67.1796L244.758 67.7256L244.875 68.2716V70.9235L244.758 71.3525V76.9294L244.875 77.1634L244.992 77.3584L245.109 77.4754L245.226 77.5924L245.46 77.7094L245.694 77.8264H246.123L246.747 77.5924L247.059 77.4754L247.293 77.2414L247.41 77.1244L247.605 76.8904L247.722 76.5784L247.839 76.2664V75.7204L247.722 75.4084L247.605 75.0964L247.488 74.4724V73.0685L247.605 72.0935L247.722 71.6645L247.839 71.3525V70.8065L247.956 69.4026V65.1907L248.073 64.0207L247.956 63.7087L247.839 63.3967L247.605 62.9677L247.41 62.7337L247.293 62.6167L247.059 62.4997L246.864 62.3827H246.63L246.396 62.4997L246.201 62.3827H245.889L245.577 62.6167L245.46 62.7337L245.226 62.8507L245.109 63.0847L244.875 63.3967V63.7087L244.758 64.0207V64.0207ZM234.423 69.3636L234.306 71.7035V72.2495L234.423 72.6785L234.657 72.8735L234.774 73.1075L235.008 73.2245H235.32L235.632 73.1075H235.944L236.178 73.2245L236.373 73.3415L236.685 73.5365L236.802 73.6535L236.997 73.8485L237.309 73.9655L237.621 74.0825H237.933L238.479 73.9655H238.596L238.713 73.8485L238.83 73.6535L238.947 73.4195L239.376 72.9905L240 72.4445L240.234 72.3275L240.351 72.2105L240.585 71.7815V71.3525L240.468 68.3496V68.1156L240.351 67.9206L240.234 67.6866L240 67.5696L239.883 67.4526H239.649L239.22 67.3356H238.05L237.933 67.4526L237.816 67.5696L237.504 67.6866L237.192 67.8036H236.022L235.476 67.6866H235.047L234.735 67.8036L234.618 67.9206L234.501 68.1156L234.384 68.3496V69.3636H234.423ZM135.794 37.8913H136.769L139.109 38.0083H140.591L141.956 37.8913L143.438 37.7743L144.608 37.6573L145.037 37.4623L145.466 37.1503L145.895 36.8383L146.207 36.2923L146.324 35.9803L146.441 35.6683L146.558 35.3563V34.9273L146.441 34.4983L146.324 34.0694L146.012 32.7824L145.271 29.8965L144.647 26.6985L144.413 25.4116V24.5536L144.296 24.1246V23.6956L144.413 23.2666L144.647 22.8376L144.764 22.6036L144.998 22.4866L145.31 22.3696H145.622L145.934 22.4866L146.48 22.6036L147.026 22.9156L147.65 23.2276L148.508 23.6566L149.561 23.9686L150.731 24.2026L151.355 24.3196H153.227V36.2533L153.461 36.5653L153.578 36.8773L153.89 37.3063L154.436 37.5403L154.67 37.6573L155.099 37.7743H155.957L156.503 37.6573L157.049 37.4623L157.361 37.3453L157.985 36.9163L158.297 36.6043L158.609 36.2923L158.726 35.9803L158.843 35.7463V35.6293L158.726 34.8883L158.297 33.4064L158.063 32.4314L157.751 31.5734L157.439 30.9494L157.127 30.5204L157.01 29.9745L156.893 28.9215V28.3755L157.127 28.0635L157.244 27.8295H157.79L164.303 28.5705L168.983 29.1165L170.699 29.4285L171.557 29.6235H174.209L175.574 29.4285L176.315 29.3115L177.056 29.1945L177.797 28.9995L178.655 28.7655L179.512 28.4535L180.487 28.1415L181.54 28.0245L183.997 27.9075H187.819L188.248 28.0245H188.56L188.872 28.1415L189.067 28.2585L189.379 28.5705L189.496 28.8045L189.613 29.0385L189.73 29.2335V29.8575L189.613 30.2864L189.496 30.7154L189.262 31.2614L189.145 31.5734L188.911 32.1974L188.794 32.6264V33.0554L188.677 33.4844L188.794 33.9134L188.677 34.3424L188.365 35.3953L187.741 37.3063L187.312 38.3593L186.766 39.6462L186.22 41.5572L185.986 43.0392V43.7411L185.869 44.2871L185.323 46.3151L184.699 48.031L184.387 48.772L184.153 49.318L183.841 50.722L183.412 51.151L182.242 52.204L181.696 52.8279L181.15 53.4519L180.721 54.0759L180.526 54.5049H180.136L179.395 54.6219L178.966 54.7389L178.537 54.9729L178.421 55.0899L178.303 55.2849V55.7529L178.187 56.0649V56.3769L178.303 56.6889L178.498 57.1178L178.927 57.4298L179.551 57.7418L179.98 57.8588L180.526 57.9758H180.955L182.125 57.8588H182.749L183.49 57.6638L183.802 57.5468L184.114 57.4298L184.426 57.3128L184.66 57.1178L185.089 57.0008H186.181L186.415 57.1178L186.532 57.3128L186.727 57.4298V57.7418L186.844 58.0538L186.727 58.3658L186.61 58.9118L186.493 59.1068L186.259 59.8478L186.025 60.3938L185.908 60.9398L185.791 61.5637V62.3047L185.674 64.0207V70.2995L185.791 72.4445L185.908 74.1605L186.025 74.7844L186.142 75.3304V75.7594L186.376 76.7344L186.61 77.9044L186.805 78.4504L186.922 78.8793L187.039 79.1914V80.5953L186.922 81.0243L186.688 81.4533L186.805 81.8823V82.7403L186.688 83.2863L186.571 83.5202L186.454 83.6372L186.22 83.9492H185.791L184.933 84.4952L184.075 84.1832L183.451 83.8712L183.139 83.6372L183.022 83.4422L178.421 83.3253L177.992 83.4422L177.446 83.6372L176.705 83.7542L175.964 83.8712H174.443L174.014 83.7542L173.468 83.6372L172.844 83.4422L162.704 83.5592L161.651 83.7542L160.91 83.9882L160.598 84.1832L160.403 84.3002L160.286 84.4172L160.169 84.3002H159.935L159.818 84.1832L159.623 84.0662L159.428 83.9492L159.467 83.5202L159.233 82.9743L159.116 82.6623L158.921 82.5453L158.609 82.4283L158.492 79.8543L158.258 74.0045L158.141 70.8065V65.2687L158.258 64.2937V62.8507L158.024 62.3047L157.79 61.9927L157.595 61.6807L157.049 60.9398L156.737 60.5108L156.191 60.1988L155.645 59.7698L155.099 59.4578L154.787 59.3408L154.592 59.2238H154.28L154.007 59.3408L153.578 59.5358L153.461 59.7698L153.227 60.0038L153.11 60.3158L152.915 60.6278L152.798 61.7977L152.681 64.6837V67.7646L152.798 68.5056L152.915 69.1296V69.6756L153.11 69.9875L153.422 71.2745L153.656 72.4445L153.773 73.0685V75.9154L153.656 77.5144V78.1384L153.539 78.5674V78.9964L153.656 79.5423L153.773 79.7373L153.89 79.9713L153.773 81.2583L153.539 82.2333L153.422 82.5453L153.305 82.6623L153.188 82.7793V82.8963L153.071 83.0913L152.876 83.2083L152.642 83.3253L152.408 83.4422H152.213L151.901 83.3253L151.277 83.2083H149.795L148.079 83.3253L147.338 83.4422H147.026L146.714 83.5592L146.168 83.6763H144.998L144.257 83.5592L143.945 83.4422H143.633L143.321 83.2083L143.009 83.0913L142.814 82.8963L142.58 82.6623L140.357 80.7513L140.474 80.3223L140.591 80.1273L140.708 79.8933L140.825 79.6983L141.02 79.4643L141.644 78.9184L142.385 78.0604L143.36 77.0074L143.555 76.8904L143.984 76.7734L144.608 76.6564L144.92 76.5394L145.232 76.6564H145.349L145.544 76.5394L145.661 76.4224L145.778 76.2274L145.895 75.9154L146.012 75.3694L145.895 72.1715L145.661 69.5976V68.4276L145.544 67.6866L145.427 67.1406L145.31 66.7116L145.193 66.1656L145.076 65.8537L144.959 65.6196L144.725 65.3857L144.608 65.1517L144.413 65.0347L144.101 64.9177H143.906L143.477 65.0347L142.502 66.0876L142.307 66.3216L141.995 66.6336L141.683 66.9456L141.254 67.2576L140.942 67.4526L140.513 67.5696L140.396 67.4526H140.201L139.772 67.7646L138.602 68.6226L138.056 69.1686L137.627 69.8706L137.315 70.1045L137.198 70.4166L136.964 70.6115V70.8455L136.847 70.4166L136.535 69.1296L136.223 68.3886L135.911 67.6476L135.599 66.9066L135.17 66.2826L134.858 65.7367L134.001 64.2547L133.572 63.3967L133.26 62.4217L132.948 61.4467L132.831 61.0177L132.714 60.5888L132.597 60.2768V59.8478L132.48 59.3018L132.363 58.8728L132.48 58.4438L132.597 58.2488V58.1708L132.831 57.9368H134.234L135.209 57.7418L135.638 57.6248L135.95 57.3128L136.262 57.1958L137.12 57.0788L138.836 56.8839H139.889L141.176 57.0008L141.8 56.8058L142.424 56.4939L143.282 56.0649L144.257 55.4409L145.115 54.6999L145.544 54.2709L145.856 53.7249L146.168 53.1789L146.363 52.6329L146.48 51.892L146.363 51.151V50.722L146.246 50.176L146.129 49.747L146.012 49.318L145.778 48.889L145.544 48.577L145.232 48.265L144.92 47.953L144.491 47.8361L143.945 47.7191L143.711 47.6021H143.165L142.736 47.7191L142.424 47.9141L142.307 48.031L142.19 48.148L141.956 48.46H139.733L139.421 48.343L138.992 48.226L138.563 47.992L138.134 47.6801L138.017 47.4461L137.9 47.2121L137.783 47.0171L137.666 46.7051V45.2621L137.549 44.7161L137.432 44.1701L137.198 43.7411L137.003 43.1952L136.379 41.9082L136.067 41.0502L135.755 40.1922L135.56 39.4512L135.326 38.5933V37.7743L135.443 37.6573L135.638 37.7743L135.794 37.8913V37.8913ZM153.266 48.538L153.695 48.733L154.124 49.162L155.177 50.137L156.035 50.995L156.464 51.307L156.581 51.619L156.815 51.853L156.932 51.97L157.166 52.087L157.478 52.204H157.907L158.57 52.087L158.765 51.97L158.882 51.541L159.311 50.917L159.74 50.059V49.318L159.857 49.006L159.974 48.577L160.091 48.265L160.52 47.7191L160.715 47.2901L161.144 46.6661L162.197 44.8721L163.601 42.5322L163.796 41.6742V40.9332L163.679 40.3872L163.562 40.0752L163.367 39.8412L163.25 39.6462L163.133 39.4122L162.821 39.1003L162.587 38.8663L162.275 39.1003L161.963 39.2172H161.417L160.988 39.0222H160.871L160.559 38.7882L160.247 38.6713L159.818 38.5543L159.506 38.6713L159.272 38.8663L159.077 39.1003V39.2952L158.96 39.5292L158.843 39.7632L158.726 39.9582L158.531 40.5822L158.297 41.2062L158.18 41.9472L157.985 43.2342L157.868 43.8581L157.751 44.5991L157.439 45.3401L157.322 45.5741L157.088 45.7691L156.776 46.0811L156.347 46.2761L156.035 46.5101H155.489L155.255 46.3931H154.631L154.202 46.5101H154.007L153.695 46.7051L153.461 46.9391L153.227 47.0561L152.993 47.2511L152.876 47.5631V47.8751L152.993 48.109L153.11 48.343L153.266 48.538V48.538ZM171.518 41.2062V43.8581L171.401 44.4041L171.284 44.7161L171.167 45.0281L170.855 45.6911L170.543 46.2371L169.919 47.0951L169.607 47.4071L169.178 47.7191L168.983 48.148L168.866 48.46V49.201L168.983 49.435L169.1 49.63L169.295 49.942L169.412 50.137L169.646 50.254L170.075 50.566L170.387 50.683L171.011 50.917H171.323L171.752 50.8L172.181 50.683L172.61 50.449L172.922 50.215L173.663 49.591L174.209 48.967L174.638 48.343L175.067 47.797L175.301 47.2511V46.7051L175.535 46.0811L175.73 45.4571L175.964 44.8331L176.51 43.8581L176.705 43.4292L177.251 42.8052L177.563 42.2592L178.109 41.0892L178.421 40.3482L178.537 40.0362L178.421 39.7242L178.303 39.4122L178.07 39.1003L177.875 38.8663L177.68 38.6713L177.446 38.5543H177.017L176.9 38.6713L176.666 38.7882L176.549 39.0222L176.354 39.1393H176.12L175.808 39.2562L175.262 39.3732H174.716L173.663 39.1782H173.234L172.922 39.0612H172.727L172.415 39.1782L172.298 39.2952L171.986 39.6072L171.791 40.0362L171.674 40.4652L171.557 40.8942V41.2062H171.518ZM166.487 52.165L166.253 52.399L166.019 52.5939L165.59 53.2179L164.849 54.6999L164.225 56.1819L163.991 56.8058V57.1178L164.108 57.3518V57.5468L164.225 57.7418L164.537 57.9758L164.654 58.0928L164.771 58.2098H165.083L165.317 58.3268H165.629L171.479 58.0928H172.103L172.415 57.9758L172.649 57.8588L172.961 57.6638L173.195 57.3518L173.39 57.1178V56.8058L173.507 56.5719L173.39 56.3379L173.195 56.1429L172.961 55.8309L172.649 55.5189L172.22 55.2069L171.791 55.0119L171.245 54.7779L170.582 54.6609L170.27 54.5439L169.958 54.4269L169.724 54.3099L169.529 54.0759L169.1 53.6469L168.788 53.2179L168.554 52.7889L168.359 52.4769L168.242 52.165L167.93 51.619L167.813 51.502L167.657 51.541H167.345L167.111 51.658L166.799 51.775L166.565 52.009L166.487 52.165V52.165ZM166.292 68.3886V70.1045L166.409 71.5865L166.604 73.1855L166.721 73.6145L166.838 74.0435L167.072 74.2775L167.267 74.3944L167.462 74.5115H167.93L168.359 74.3944L168.905 74.2775L170.075 74.1605H172.532L174.56 74.3555L175.418 74.4724L175.964 74.5894L176.393 74.4724H176.705L176.939 74.3555L177.368 74.0435L177.485 73.9265L177.602 73.7315L177.719 73.4195V73.1075L177.602 72.7955L177.485 72.2495V70.0266L177.719 68.1936V67.8816L177.602 67.6476L177.485 67.2186L177.173 66.9066L176.978 66.7896L176.744 66.6726H172.571L168.008 66.7896H167.579L167.15 66.9846L166.916 67.2966L166.682 67.6086L166.487 68.1546L166.292 68.3886V68.3886Z" fill="#231916"/>
<path d="M144.102 99.3539C143.478 96.936 141.918 95.688 139.5 95.688C137.901 95.688 136.614 96.195 135.639 97.209C134.664 98.2229 134.157 99.7049 134.157 101.655C134.157 103.41 134.703 104.814 135.795 105.867C136.887 106.92 138.213 107.427 139.773 107.427C141.333 107.427 142.893 106.764 144.375 105.399L144.726 105.75C143.283 107.349 141.411 108.168 139.188 108.168C137.16 108.168 135.522 107.583 134.274 106.452C133.026 105.321 132.402 103.683 132.402 101.655C132.402 99.7049 133.065 98.145 134.391 96.936C135.717 95.727 137.355 95.103 139.344 95.103C139.968 95.103 140.553 95.181 141.138 95.298L142.932 95.727C143.439 95.727 143.751 95.532 143.868 95.103H144.297L144.453 99.3539H144.102V99.3539ZM146.169 107.505C147.105 107.505 147.69 107.349 148.002 107.076C148.275 106.803 148.431 106.296 148.431 105.555V97.482C148.431 96.819 148.275 96.39 147.963 96.156C147.651 95.922 147.066 95.805 146.169 95.727V95.454H152.526V95.727C151.629 95.805 151.005 95.961 150.693 96.156C150.342 96.39 150.186 96.819 150.186 97.482V101.226H157.673V97.482C157.673 96.819 157.517 96.39 157.205 96.156C156.893 95.922 156.308 95.805 155.411 95.727V95.454H161.768V95.727C160.871 95.805 160.247 95.922 159.935 96.156C159.623 96.39 159.467 96.819 159.467 97.482V105.75C159.467 106.92 160.247 107.466 161.768 107.466V107.778H155.411V107.466C156.347 107.466 156.932 107.31 157.244 107.037C157.517 106.764 157.673 106.257 157.673 105.516V101.772H150.186V105.75C150.186 106.374 150.342 106.842 150.693 107.076C151.044 107.31 151.629 107.466 152.526 107.466V107.778H146.169V107.505V107.505ZM163.952 107.505C164.888 107.505 165.551 107.388 165.902 107.154C166.253 106.92 166.409 106.491 166.409 105.828V97.365C166.409 96.663 166.253 96.234 165.902 96C165.551 95.766 164.927 95.688 163.952 95.688V95.454H170.504V95.688C169.49 95.688 168.827 95.805 168.476 96.078C168.125 96.351 167.969 96.78 167.969 97.365V105.828C167.969 106.452 168.125 106.881 168.476 107.115C168.827 107.349 169.49 107.505 170.465 107.505V107.817H163.913V107.505H163.952ZM187.547 95.766C186.533 95.844 185.909 96.078 185.675 96.468C185.441 96.858 185.324 97.443 185.324 98.223V108.168H185.09L175.301 97.599L175.262 105.165C175.262 106.14 175.418 106.764 175.73 107.115C176.042 107.466 176.627 107.622 177.485 107.622V107.934H172.337V107.622C173.195 107.622 173.78 107.466 174.092 107.115C174.404 106.764 174.599 106.14 174.599 105.126V96.78C173.936 96.078 173.195 95.727 172.337 95.727V95.415H175.613L184.622 105.204L184.661 98.223C184.661 97.326 184.505 96.702 184.232 96.312C183.92 95.922 183.335 95.766 182.399 95.766V95.454H187.547V95.766V95.766ZM203.146 107.817H197.219V107.505C198.31 107.505 199.246 107.232 199.246 106.647C199.246 106.452 199.129 106.023 198.856 105.477L197.998 103.605H192.227L191.252 105.945C191.135 106.218 191.096 106.452 191.096 106.686C191.096 107.232 191.993 107.544 193.124 107.544V107.856H187.937V107.544C188.288 107.544 189.341 107.388 189.692 107.076C190.043 106.803 190.511 105.945 191.174 104.502L195.503 95.103H195.776L200.767 105.789C201.313 106.92 202.366 107.505 203.224 107.505V107.817H203.146ZM197.726 103.098L194.957 97.287L192.266 103.098H197.726ZM227.131 95.727C226.273 95.727 225.688 95.883 225.376 96.156C225.064 96.429 224.908 96.897 224.908 97.521V105.789C224.908 106.959 225.649 107.505 227.092 107.505V107.817H221.008V107.505C221.866 107.505 222.451 107.388 222.763 107.115C223.075 106.842 223.231 106.335 223.231 105.594V96.663L217.459 107.817H217.108L211.57 96.663L211.531 105.087C211.531 106.023 211.687 106.686 211.999 107.037C212.311 107.388 212.896 107.544 213.715 107.544V107.856H208.606V107.544C209.464 107.544 210.049 107.388 210.361 107.076C210.673 106.764 210.829 106.101 210.829 105.126V97.56C210.829 96.858 210.673 96.351 210.361 96.117C210.049 95.883 209.464 95.766 208.606 95.766V95.493H212.74L217.771 105.75L223.036 95.493H227.053V95.727H227.131ZM241.444 107.817H229.276V107.505C230.602 107.505 231.265 106.92 231.265 105.789V97.521C231.265 96.936 231.148 96.507 230.914 96.273C230.68 96.039 230.134 95.844 229.315 95.805V95.493H240.586L240.664 98.1839H240.313C240.157 97.365 239.884 96.78 239.455 96.468C239.026 96.156 237.544 96.039 236.452 96.039H233.527C233.098 96.039 232.864 96.234 232.864 96.663V101.07H235.789C236.491 101.07 237.037 100.953 237.349 100.758C237.661 100.563 237.895 100.017 238.051 99.1979H238.441V103.527H238.051C237.895 102.708 237.661 102.162 237.349 101.967C237.037 101.772 236.491 101.655 235.789 101.616L232.864 101.577V106.491C232.864 106.803 232.981 106.998 233.215 107.115C233.449 107.232 234.385 107.271 236.062 107.271C237.271 107.271 239.299 107.076 239.962 106.686C240.625 106.296 240.781 105.633 241.249 104.658H241.678L241.444 107.817V107.817ZM257.238 107.817H254.079L249.009 102.084L247.41 102.123V105.789C247.41 106.413 247.566 106.881 247.878 107.115C248.19 107.388 248.736 107.505 249.594 107.505V107.817H243.822V107.505C244.641 107.505 245.187 107.349 245.46 107.076C245.733 106.803 245.85 106.296 245.85 105.555V97.482C245.85 96.819 245.694 96.39 245.421 96.156C245.148 95.961 244.602 95.805 243.822 95.727V95.415H249.594C253.143 95.415 254.898 96.507 254.898 98.691C254.898 100.329 253.572 101.382 250.959 101.811L255.21 106.608C255.678 107.154 256.38 107.427 257.238 107.427V107.817V107.817ZM247.098 101.265C251.193 101.265 253.26 100.329 253.26 98.4569C253.26 96.702 251.661 95.805 248.502 95.805C247.878 95.805 247.488 95.844 247.332 95.922C247.176 96 247.098 96.195 247.098 96.468V101.265V101.265ZM270.42 99.3539C269.796 96.936 268.236 95.688 265.818 95.688C264.219 95.688 262.932 96.195 261.957 97.209C260.982 98.2229 260.475 99.7049 260.475 101.655C260.475 103.41 261.021 104.814 262.113 105.867C263.205 106.92 264.531 107.427 266.091 107.427C267.651 107.427 269.211 106.764 270.693 105.399L271.044 105.75C269.601 107.349 267.729 108.168 265.506 108.168C263.478 108.168 261.84 107.583 260.592 106.452C259.344 105.321 258.72 103.683 258.72 101.655C258.72 99.7049 259.383 98.145 260.709 96.936C262.035 95.727 263.673 95.103 265.662 95.103C266.286 95.103 266.871 95.181 267.456 95.298L269.25 95.727C269.757 95.727 270.069 95.532 270.186 95.103H270.615L270.771 99.3539H270.42V99.3539ZM272.877 107.505C273.813 107.505 274.398 107.349 274.71 107.076C274.983 106.803 275.139 106.296 275.139 105.555V97.482C275.139 96.819 274.983 96.39 274.671 96.156C274.359 95.922 273.774 95.805 272.877 95.727V95.454H279.234V95.727C278.337 95.805 277.713 95.961 277.401 96.156C277.05 96.39 276.894 96.819 276.894 97.482V101.226H284.382V97.482C284.382 96.819 284.226 96.39 283.914 96.156C283.602 95.922 283.017 95.805 282.12 95.727V95.454H288.476V95.727C287.579 95.805 286.955 95.922 286.643 96.156C286.331 96.39 286.176 96.819 286.176 97.482V105.75C286.176 106.92 286.955 107.466 288.476 107.466V107.778H282.12V107.466C283.056 107.466 283.641 107.31 283.953 107.037C284.226 106.764 284.382 106.257 284.382 105.516V101.772H276.894V105.75C276.894 106.374 277.05 106.842 277.401 107.076C277.752 107.349 278.337 107.466 279.234 107.466V107.778H272.877V107.505V107.505ZM304.076 107.817H298.499V107.505C299.591 107.505 300.527 107.232 300.527 106.647C300.527 106.452 300.41 106.023 300.137 105.477L299.279 103.605H293.507L292.532 105.945C292.415 106.218 292.376 106.452 292.376 106.686C292.376 107.232 293.273 107.544 294.404 107.544V107.856H289.256V107.544C289.607 107.544 290.66 107.388 291.011 107.076C291.362 106.803 291.83 105.945 292.493 104.502L296.822 95.103H297.095L302.087 105.789C302.633 106.92 303.335 107.505 304.193 107.505V107.817H304.076ZM299.006 103.098L296.237 97.287L293.546 103.098H299.006ZM320.066 95.766C319.052 95.844 318.428 96.078 318.194 96.468C317.96 96.858 317.843 97.443 317.843 98.223V108.168H317.609L307.82 97.599L307.781 105.165C307.781 106.14 307.937 106.764 308.249 107.115C308.561 107.466 309.497 107.622 310.355 107.622V107.934H304.817V107.622C305.675 107.622 306.26 107.466 306.572 107.115C306.884 106.803 307.079 106.14 307.079 105.126V96.78C306.416 96.078 305.324 95.727 304.466 95.727V95.415H308.132L317.141 105.204L317.18 98.223C317.18 97.326 317.024 96.702 316.751 96.312C316.439 95.922 315.854 95.766 314.918 95.766V95.454H320.066V95.766V95.766ZM331.025 107.817H324.395V107.505C325.292 107.505 326.228 107.349 326.501 107.076C326.774 106.803 326.891 106.296 326.891 105.555V96H325.799C324.668 96 323.147 96.195 322.64 96.546C322.133 96.897 321.782 97.599 321.548 98.6129H321.119V95.454H334.183V98.6129H333.793C333.598 97.599 333.247 96.897 332.74 96.546C332.233 96.195 330.673 96 329.543 96H328.451V105.789C328.451 106.452 328.607 106.881 328.919 107.154C329.231 107.388 330.167 107.544 331.025 107.544V107.817V107.817ZM344.635 99.1199H344.128C343.894 98.184 343.387 97.365 342.646 96.663C341.866 95.961 341.008 95.61 339.994 95.61C339.331 95.61 338.746 95.805 338.239 96.195C337.732 96.585 337.498 97.053 337.498 97.638C337.498 98.418 338.161 99.1589 339.487 99.8999L343.114 101.928C344.44 102.786 345.103 103.722 345.103 104.697C345.103 105.672 344.674 106.491 343.855 107.154C343.036 107.817 341.905 108.129 340.501 108.129C339.877 108.129 339.175 108.012 338.434 107.817L338.161 107.739C337.576 107.583 337.264 107.505 337.108 107.505C336.64 107.505 336.055 107.7 336.055 108.129H335.587L335.275 103.761H335.704C336.679 106.101 338.2 107.622 340.267 107.622C341.086 107.622 341.788 107.388 342.373 106.92C342.958 106.452 343.231 105.906 343.231 105.282C343.231 104.658 342.958 104.151 342.412 103.683C341.866 103.215 340.891 102.63 339.526 101.928L339.097 101.694C337.771 101.031 336.952 100.446 336.562 100.017C336.172 99.5489 335.977 99.0029 335.977 98.301C335.977 97.326 336.367 96.546 337.108 95.961C337.849 95.376 338.785 95.103 339.916 95.103C340.345 95.103 341.359 95.337 342.919 95.766C343.309 95.766 343.933 95.532 344.05 95.103H344.518L344.635 99.1199V99.1199ZM352.708 95.766V95.454H358.363C361.912 95.454 363.667 96.507 363.667 98.6129C363.667 99.9779 362.77 100.875 360.976 101.304C363.199 101.772 364.33 102.864 364.33 104.541C364.33 105.516 363.901 106.335 363.004 106.92C362.107 107.505 360.937 107.817 359.455 107.817H352.708V107.505C353.566 107.505 354.151 107.388 354.424 107.154C354.736 106.92 354.853 106.452 354.853 105.75V97.482C354.853 96.819 354.697 96.351 354.385 96.117C354.151 95.883 353.566 95.766 352.708 95.766ZM356.335 106.647C356.335 107.154 356.959 107.427 358.207 107.427C361.093 107.427 362.536 106.452 362.536 104.502C362.536 103.644 362.107 102.942 361.21 102.396C360.352 101.85 358.714 101.577 356.335 101.577V106.647ZM356.335 100.914L358.441 100.875C360.664 100.875 361.756 100.095 361.756 98.5349C361.756 97.677 361.366 97.014 360.586 96.507C359.806 96.039 358.831 95.805 357.622 95.805C356.764 95.805 356.335 96 356.335 96.351V100.914ZM380.319 107.817H375.094V107.505C376.185 107.505 376.77 107.232 376.77 106.647C376.77 106.452 376.653 106.023 376.38 105.477L375.523 103.605H369.751L368.776 105.945C368.659 106.218 368.62 106.452 368.62 106.686C368.62 107.232 369.517 107.544 370.648 107.544V107.856H365.773V107.544C366.124 107.544 366.826 107.388 367.138 107.076C367.489 106.803 367.957 105.945 368.62 104.502L372.949 95.493H373.222L378.213 105.828C378.759 106.959 379.461 107.544 380.319 107.544V107.817V107.817ZM375.6 103.098L372.832 97.287L370.141 103.098H375.6ZM396.66 95.766C395.724 95.844 394.788 96.078 394.554 96.468C394.32 96.858 394.242 97.443 394.242 98.223V108.168H394.008L384.18 97.599L384.141 105.165C384.141 106.14 384.297 106.764 384.57 107.115C384.882 107.466 386.13 107.622 386.91 107.622V107.934H381.411V107.622C382.191 107.622 382.737 107.466 383.049 107.115C383.361 106.764 383.517 106.14 383.517 105.126V96.78C382.893 96.078 381.489 95.727 380.67 95.727V95.415H384.453L393.54 105.204L393.579 98.223C393.579 97.326 393.423 96.702 393.15 96.312C392.877 95.922 391.941 95.766 391.083 95.766V95.454H396.582V95.766H396.66ZM406.605 95.454H411.987V95.766C411.051 95.844 410.427 96 410.076 96.195C409.725 96.429 409.296 96.741 408.75 97.17L404.577 100.758L409.569 105.555C410.895 106.842 412.026 107.466 412.923 107.466V107.778H406.683V107.466C407.736 107.466 408.282 107.271 408.282 106.842C408.282 106.413 407.385 105.399 405.591 103.683L403.446 101.694L402.471 102.474V105.711C402.471 106.374 402.627 106.803 402.939 107.076C403.251 107.31 403.797 107.466 404.616 107.466V107.778H398.805V107.466C399.624 107.466 400.17 107.349 400.443 107.076C400.716 106.803 400.911 106.296 400.911 105.555V97.482C400.911 96.78 400.755 96.312 400.443 96.078C400.131 95.844 399.585 95.727 398.805 95.727V95.415H404.655V95.727C403.836 95.727 403.251 95.844 402.939 96.078C402.627 96.312 402.471 96.78 402.471 97.482V101.772L403.017 101.304C406.332 98.5739 408.009 96.936 408.009 96.351C408.009 95.922 407.541 95.727 406.605 95.727V95.454V95.454Z" fill="black"/>
</svg>
