<svg width="128" height="128" viewBox="0 0 128 128" fill="none" xmlns="http://www.w3.org/2000/svg">
<path d="M63.9005 42.2773L84.5265 51.5648L73.5515 56.6098C92.325 58.9823 106.3 66.7083 106.3 76.3908C106.3 87.9693 87.281 97.3818 63.8995 97.3818C40.5145 97.3818 21.5 87.9693 21.5 76.3918V76.0308H35.842V76.3918C35.842 84.9698 48.4285 91.9463 63.9005 91.9463C79.3755 91.9463 91.957 84.9698 91.957 76.3918C91.957 67.8148 79.376 60.8398 63.9005 60.8398L63.752 60.8038L43.269 51.5648L63.9005 42.2773ZM63.9015 47.7793L55.5065 51.5643L63.901 55.3478L72.2955 51.5648L63.9015 47.7793Z" fill="#006CA9"/>
<path d="M63.899 72.5305L72.2955 76.314L63.8975 80.096L55.5035 76.314L63.8975 72.5305H63.899ZM63.899 30.5C40.52 30.5 21.5 39.9125 21.5 51.491C21.5 61.1665 35.475 68.9 54.249 71.2755L43.2665 76.314L63.8975 85.5945L84.5225 76.314L64.046 67.0715L63.8975 67.0355C48.427 67.0355 35.8445 60.0605 35.8445 51.49C35.8445 42.915 48.427 35.93 63.8975 35.93C79.372 35.93 91.9525 42.915 91.9525 51.49V51.844H106.298V51.49C106.298 39.9125 87.2775 30.5 63.8975 30.5H63.899Z" fill="#00965A"/>
</svg>
