<svg width="128" height="128" viewBox="0 0 128 128" fill="none" xmlns="http://www.w3.org/2000/svg">
<path d="M49.25 45L48.2 45.05L47.15 45.1L46.15 45.25L45.15 45.45L44.15 45.65L43.2 45.9L42.25 46.2L41.35 46.55L40.5 46.9L39.65 47.35L38.8 47.85L37.95 48.35L37.15 48.9L36.35 49.5L35.6 50.1L34.9 50.75L34.25 51.4L33.6 52.15L32.95 52.85L32.35 53.65L31.8 54.45L31.3 55.25L30.8 56.1L30.35 57L29.95 57.9L29.6 58.8L29.3 59.75L29 60.7L28.75 61.65L28.55 62.65L28.4 63.65L28.3 64.7L27.6 65.35L26.95 66.05L26.3 66.8L25.7 67.6L25.15 68.4L24.65 69.25L24.2 70.1L23.7 71L23.3 71.9L23 72.85L22.7 73.8L22.45 74.8L22.3 75.8L22.15 76.8L22.05 77.8L22 78.95L22.05 79.8L22.1 80.6L22.2 81.45L22.3 82.25L22.45 83.05L22.65 83.85L22.9 84.65L23.15 85.4L23.4 86.15L23.7 86.85L24.05 87.6L24.4 88.3L24.8 89L25.25 89.65L25.7 90.3L26.15 90.9L26.65 91.5L27.15 92.1L27.7 92.65L28.3 93.2L28.85 93.7L29.5 94.2L30.15 94.65L30.8 95.1L31.5 95.5L32.2 95.9L32.9 96.25L33.6 96.55L34.35 96.85L35.1 97.1L35.85 97.35L36.65 97.55L37.15 98.05L37.65 98.55L38.2 99.05L38.7 99.5L39.25 99.95L39.8 100.4L40.4 100.85L41 101.3L41.6 101.7L42.2 102.1L42.8 102.5L43.45 102.9L44.1 103.25L44.75 103.55L45.4 103.85L46.05 104.15L46.75 104.45L47.4 104.7L48.1 104.95L48.8 105.2L49.5 105.4L50.2 105.6L50.9 105.75L51.6 105.95L52.3 106.1L53.05 106.2L53.8 106.3L54.55 106.4L55.3 106.5L56.05 106.55L56.85 106.6L57.6 106.65L58.75 106.6L59.9 106.5L61.05 106.4L62.15 106.25L63.3 106.05L64.4 105.8L65.45 105.5L66.55 105.2L67.6 104.8L68.65 104.4L69.65 103.95L70.65 103.45L71.65 102.95L72.6 102.4L73.5 101.8L74.4 101.2L73.85 101.25L73.3 101.3L72.75 101.35H71.5L70.8 101.3L70.1 101.25L69.4 101.2L68.7 101.15L68 101.05L67.35 100.95L66.65 100.85L66 100.75L65.35 100.6L64.7 100.4L64.05 100.2L63.4 100L62.75 99.8L62.1 99.55L61.45 99.3L60.85 99.05L60.2 98.8L59.6 98.55L59 98.25L58.45 97.95L57.85 97.65L57.3 97.35L56.7 97.05L56.15 96.7L55.6 96.3L55.05 95.95L54.5 95.6L53.45 94.8L52.45 93.95L52.3 93.8L52.1 93.65L52 93.6L51.95 93.5L51.75 93.35L51.55 93.15L51.5 93.1L51.4 93.05L51.2 92.85L51 92.65L50.95 92.6L50.9 92.55L50.65 92.3L50.45 92.1L50.4 92.05L50.35 92L50.15 91.75L49.9 91.5L49.85 91.45V91.4L49.6 91.15L49.4 90.9L49.35 90.85L49.1 90.55L48.85 90.3L48.6 90L48.35 89.7H48.3V89.65L48.05 89.35L47.8 89.05L47.55 88.75L47.35 88.45L47.15 88.2L46.95 87.9V87.85L46.75 87.6L46.55 87.3L46.5 87.25L46.45 87.2V87.15L46.4 87.1L46.25 86.85L46.1 86.6L46.05 86.55L45.85 86.25L45.65 85.95V85.9L45.6 85.85L45.45 85.55L45.3 85.25L45.25 85.2L45.2 85.15L45.05 84.9L44.9 84.65L44.85 84.55L44.8 84.45L44.7 84.2L44.6 83.95L44.55 83.85L45 84L44.9 83.75L44.8 83.55L44.75 83.4L44.7 83.3L44.6 83.1L44.5 82.9L44.45 82.75L44.4 82.6L44.3 82.4L44.2 82.2L44.15 82.05L44.1 81.9L44 81.75L43.95 81.55L43.85 81.35L43.8 81.15L43.75 81L43.7 80.85L43.65 80.65L43.55 80.45L43.5 80.3L43.45 80.15L43.35 79.9L43.3 79.65L43.25 79.55L43.2 79.45L43.1 79.2L43.05 78.95L43 78.85L42.95 78.75L42.85 78.5L42.8 78.25L42.75 78.15L42.7 78.05L42.65 77.75L42.6 77.5V77.45H42.55V77.3L42.5 77.25L42.45 76.95L42.4 76.65L42.35 76.6V76.5L42.3 76.2L42.25 75.9L42.2 75.85V75.75L42.15 75.45L42.1 75.15V75L42.05 74.65L42 74.35V74.2L41.95 73.85V73.4L41.9 73.05L41.85 72.7V72.6L41.8 72.2L41.75 71.85V71.8V72L41.7 71.6V69.95V70V69.25L41.75 69.2V68.7L41.8 68.5V68.2L41.85 68.1V67.95V68V67.9L41.9 67.8V67.6L41.95 67.5V67.1L42 67V66.8L42.05 66.75V66.45H42.1V66.3L42.15 66.2V66.1L42.2 66V65.85L42.25 65.75V65.65L42.3 65.55L42.35 65.45V65.35L42.4 65.25L42.45 65.15V65L42.5 64.85L42.55 64.7L42.6 64.65V64.6L42.65 64.4L42.7 64.2V64.1L42.95 63.05L43.25 62.05L43.55 61.05L43.9 60.05L44.3 59L44.75 57.95L45.25 56.9L45.75 55.9L46.3 54.9L46.9 53.9L47.55 52.95L48 52L48.7 51.1L49.45 50.25L50.2 49.4L51 48.6L51.85 47.8L52.7 47.05L53.6 46.3L54.5 45.6L53.8 45.5L53.15 45.4L52.5 45.25L51.85 45.15L51.2 45.05L50.55 45H49.25ZM42 67.75L41.9 71.25L42 67.75Z" fill="#009F40"/>
<path d="M72.75 57.5L87.5 72.25L72.75 87L58 72.25L72.75 57.5Z" fill="#1F2A8C"/>
<path d="M87.35 32L88 32.05L88.6 32.1L89.25 32.15L89.85 32.25L90.45 32.4L91.05 32.55L91.65 32.75L92.2 32.95L92.75 33.25L93.3 33.5L93.85 33.8L94.35 34.1L94.85 34.45L95.3 34.8L95.75 35.2L96.25 35.65L96.65 36.05L97.05 36.5L97.45 36.95L97.8 37.45L98.15 37.95L98.45 38.45L98.7 39L99 39.55L99.2 40.1L99.45 40.7L99.65 41.25L99.8 41.85L99.9 42.45L100 43.1L100.1 43.7V44.35L100.8 44.95L101.5 45.6L102.15 46.25L102.75 47L103.3 47.75L103.85 48.5L104.35 49.35L104.75 50.15L105.15 51.05L105.5 51.9L105.8 52.8L106.05 53.75L106.25 54.7L106.4 55.65L106.45 56.65L106.5 57.65L106.45 58.65L106.4 59.65L106.25 60.6L106.05 61.55L105.8 62.5L105.5 63.4L105.15 64.3L104.75 65.15L104.3 66L103.8 66.8L103.3 67.6L102.7 68.35L102.1 69.05L101.45 69.75L100.75 70.4L100.05 71L99.9 69.65L99.75 68.3L99.5 67L99.2 65.7L98.85 64.4L98.45 63.2L97.95 61.95L97.45 60.75L96.85 59.65L96.2 58.5L95.55 57.4L94.8 56.3L94 55.3L93.2 54.35L92.3 53.35L91.4 52.45L90.45 51.6L89.45 50.8L88.4 50L87.35 49.3L86.25 48.6L85.1 48L83.95 47.4L82.75 46.9L81.55 46.4L80.3 46L79 45.65L77.75 45.4L76.4 45.15L75.1 45L73.7 44.9L72.35 44.85H71.15L70 44.95L68.85 45.05L67.7 45.25L66.55 45.45L65.45 45.7L64.35 46.05L63.3 46.35L62.25 46.75L61.2 47.15L60.2 47.65L59.2 48.15L58.25 48.7L57.3 49.3L56.4 49.9L55.5 50.55L55.65 49.7L55.8 48.85L56.05 48L56.3 47.2L56.6 46.4L56.95 45.6L57.3 44.85L57.65 44.1L58.1 43.35L58.55 42.65L59.05 41.95L59.55 41.3L60.1 40.65L60.7 40.05L61.25 39.45L61.9 38.85L62.5 38.35L63.2 37.8L63.9 37.35L64.6 36.9L65.35 36.45L66.1 36.05L66.85 35.7L67.65 35.4L68.45 35.1L69.3 34.85L70.15 34.65L71 34.45L71.85 34.3L72.7 34.2L73.6 34.15H75.75L76.4 34.2L77 34.3L77.6 34.4L78.2 34.5L78.8 34.65L79.4 34.8L79.8 34.45L80.25 34.15L80.7 33.85L81.15 33.6L81.6 33.35L82.1 33.15L82.55 32.95L83.05 32.75L83.55 32.6L84.1 32.45L84.6 32.3L85.15 32.2L85.65 32.1L86.2 32.05H86.8L87.35 32Z" fill="#E4201F"/>
<path d="M49 21.5L48.45 21.55H47.8L47.2 21.65L46.55 21.75L45.95 21.9L45.35 22.1L44.75 22.3L44.2 22.5L43.65 22.75L43.1 23.05L42.55 23.35L42.05 23.65L41.55 24L41.05 24.4L40.6 24.8L40.2 25.25L39.75 25.65L39.35 26.1L38.95 26.6L38.6 27.1L38.3 27.6L38 28.15L37.75 28.7L37.45 29.25L37.25 29.8L37.05 30.4L36.85 31L36.7 31.6L36.6 32.25L36.55 32.9L36.5 33.5L36.45 34.15V34.4L35.95 34.65L35.45 34.9L34.95 35.15L34.45 35.45L34 35.8L33.5 36.1L33.1 36.45L32.65 36.8L32.2 37.15L31.8 37.55L31.4 37.95L31.05 38.4L30.65 38.8L30.3 39.25L29.95 39.7L29.65 40.15L29.35 40.65L29.05 41.1L28.8 41.6L28.55 42.15L28.3 42.65L28.05 43.2L27.85 43.7L27.7 44.25L27.55 44.85L27.4 45.35L27.3 45.95L27.15 46.55L27.1 47.1L27.05 47.7L27 48.3V48.95L27.05 49.7L27.1 50.5L27.15 51.3L27.3 52.05L27.5 52.8L27.7 53.55L27.9 54.25L28.2 55L29 53.7L29.8 52.5L30.65 51.25L31.55 50.1L32.5 48.95L33.45 47.8L34.45 46.7L35.45 45.65L36.5 44.6L37.6 43.6L38.75 42.65L39.9 41.75L41.1 40.85L42.3 40L43.55 39.2L44.8 38.4L46.1 37.65L47.45 37L48.75 36.3L50.15 35.7L51.55 35.15L52.95 34.65L54.4 34.15L55.85 33.75L57.3 33.35L58.8 33.05L60.3 32.75L61.85 32.5L63.35 32.3L64.95 32.2L66.5 32.1H69.1L70.1 32.15L71.1 32.2L72.1 32.25L73.05 32.35L74.05 32.5L75 32.6L76 32.75L75.85 32.3L75.7 31.8L75.5 31.3L75.3 30.85L75.05 30.4L74.8 29.95L74.55 29.5L74.25 29.1L74 28.7L73.65 28.3L73.35 27.9L73 27.55L72.65 27.15L72.3 26.8L71.9 26.5L71.5 26.2L71.1 25.9L70.7 25.6L70.25 25.35L69.85 25.1L69.35 24.85L68.9 24.65L68.45 24.45L67.95 24.25L67.45 24.1L67 24L66.5 23.85L65.95 23.75L65.45 23.65L64.95 23.6H63.05L62.25 23.65L61.5 23.8L60.7 24L60 24.2L59.25 24.45L58.55 24.75L57.9 25.1L57.45 24.7L57 24.3L56.55 23.95L56.05 23.6L55.5 23.25L55 22.95L54.45 22.7L53.9 22.45L53.35 22.25L52.8 22.05L52.2 21.85L51.55 21.75L50.95 21.65L50.35 21.55H49.75L49.15 21.5H49Z" fill="#F7C700"/>
</svg>
