<svg width="128" height="128" viewBox="0 0 128 128" fill="none" xmlns="http://www.w3.org/2000/svg">
<path d="M32.326 94.4697C32.326 100.836 37.1498 106 43.0998 106C48.204 106 52.4753 102.205 53.5888 97.1048H47.2435C47.2435 99.2892 45.4628 101.057 43.2655 101.057C41.0683 101.057 39.2875 99.2892 39.2875 97.1048V92.4935C39.2875 90.309 41.0683 88.5368 43.2655 88.5368C45.2375 88.5368 46.8738 89.9647 47.1883 91.8347H53.5888C52.4753 86.7347 48.204 82.9395 43.0998 82.9395C37.1498 82.9395 32.326 88.099 32.326 94.4697ZM56.194 83.5982V88.949H62.161V105.341H68.791V88.949H74.758V83.5982H56.194ZM91.0058 92.2895C89.667 92.0472 87.627 92.009 87.627 92.009C84.9155 92.009 83.8063 91.0018 83.8063 89.7692C83.8063 88.5665 84.584 87.7548 86.4413 87.7548C88.4005 87.7548 89.1953 88.286 89.5395 89.9605H95.5363C94.6948 84.1847 89.531 83.2667 86.6325 83.2667C81.3583 83.2667 77.682 86.2375 77.682 89.9775C77.682 93.2202 80.079 95.1752 82.6418 96.106L86.1735 97.0622C86.5135 97.109 89.769 97.3258 89.3738 99.4975C89.1613 100.683 88.596 101.512 86.7388 101.512C84.7795 101.512 83.989 100.981 83.6447 99.3105H77.6438C78.4853 105.082 83.6533 106 86.5518 106C91.8218 106 95.9953 103.76 95.9953 100.024C96.178 96.6585 95.379 95.086 94.2613 94.1042C92.8248 92.8462 91.4605 92.3745 91.0058 92.2895ZM61.2728 56.972L60.2272 58.0217C60.2272 58.0217 60.0573 58.8462 60.0785 58.9185C60.0998 58.9907 60.8265 59.369 60.8265 59.369L61.872 58.468V57.873L61.2728 56.972ZM67.3928 58.0217L66.1985 58.1705L65.7523 58.9185L65.6035 59.5177L66.0498 60.117L66.649 60.2658L67.6903 59.2203L67.839 58.621L67.3928 58.0217ZM64.218 26.423L58.2127 45.0635L36.746 45.1867L53.8225 56.7213L47.507 75.349L64.6642 63.755L81.2945 75.2682L75.0003 56.7723L91.979 45.1995L70.3805 45.225L64.218 26.423ZM59.152 46.0368L59.781 46.3428C59.781 46.3428 60.1805 46.2748 61.2728 47.3925L62.5265 49.1052L62.467 50.3845L61.5702 51.2855V52.1823L63.3638 52.331L63.215 52.7815L61.5702 53.5295L61.4215 54.1287L61.872 54.8768L61.719 55.7735L63.215 58.1705L63.266 59.8365L62.4755 61.052L61.209 61.3707L60.2272 60.7163L58.7313 60.6313L56.6445 61.613L56.1473 61.3707C56.1473 61.3707 55.6075 60.3125 56.0155 59.9427C57.0568 58.383 59.9298 56.6745 59.9298 56.6745C59.9298 56.6745 60.5502 55.3698 60.2272 54.4263C59.8363 54.1543 59.3305 54.2775 59.3305 54.2775C59.3305 54.2775 58.7058 55.1572 57.9875 55.1742C57.1758 55.476 57.095 54.2605 57.095 54.2605C57.095 54.2605 56.993 52.5945 58.1405 52.0335C58.7058 51.192 61.124 50.3845 61.124 50.3845V49.6365L59.9298 48.591L58.7355 46.4915L59.152 46.0368ZM66.3473 46.3428L67.0952 46.0453L68.7358 47.2438L68.587 47.843L67.244 49.0372L67.3928 49.6365L68.2895 49.7852L70.3805 48.591L70.678 49.339L69.1863 50.087C69.1863 50.087 69.0332 50.2825 69.0332 50.3845C69.0375 50.4907 69.7812 51.1325 69.7812 51.1325L69.4838 52.9303L67.6903 54.5792L66.1985 55.6248L66.496 57.1208L68.4383 56.6745L69.1863 55.1742L70.8268 53.6783L71.8722 53.079L72.1698 54.2775L70.678 55.0255L69.7812 56.972L70.2275 58.0217L72.3185 58.7697L72.616 58.621H73.364L73.925 59.1353L74.214 60.0872L73.6743 61.2857L72.055 61.3665L70.8268 60.2658L69.6325 59.369L68.7358 59.0672L66.1985 62.5098L64.3242 61.9445L65.0042 58.3193L65.3018 54.4263L67.244 53.6783L68.4383 52.4797L68.587 50.9837L67.6903 50.5375L65.4548 52.0335L64.7068 51.4343L65.0042 50.3845L66.0498 48.591L66.1985 46.4915L66.3473 46.3428ZM63.8185 21L56.5255 43.0745H31L51.0175 57.5373L43.9285 79.6415L64.4815 66.135L85.0345 79.973L77.9243 57.261L97.3 43.7333H72.106L63.8185 21ZM63.9205 23.839L71.1965 44.5748H93.9808L76.5515 57.125L83.139 77.7247L64.609 65.0385L46.079 77.3167L52.2543 57.5373L34.2725 44.1667H57.333L63.9205 23.839Z" fill="#D30A02"/>
</svg>
