<svg width="431" height="128" viewBox="0 0 431 128" fill="none" xmlns="http://www.w3.org/2000/svg">
<path d="M124.333 4.00002C126.081 3.99609 127.583 4.46299 129.023 5.34561C132.718 7.20179 134.02 10.0445 134 14.3179C133.826 48.1292 133.897 81.9396 133.893 115.749C133.605 117.132 133.798 118.626 132.975 119.893C131.666 121.889 129.861 123.205 127.58 123.872C100.169 123.886 72.7562 123.902 45.3453 123.912C38.5697 123.916 31.7847 123.75 25.0159 123.989C21.8196 124.105 19.3111 123.294 17.2364 120.921C16.6435 120.245 15.9806 119.628 15.3507 118.981C14.2287 117.627 13.998 116.075 14 114.337C14.0382 80.8885 14.0268 47.4446 14.0299 14.0006C14.0299 8.74698 18.6769 4.03427 23.9057 4.02994C57.3827 4.01813 90.8563 4.0386 124.333 4.00002ZM37.4407 70.612C34.5121 70.6081 34.0039 71.0529 34.087 74.0319C34.2354 79.367 33.972 84.6044 32.191 89.734C30.3061 95.1613 28.7121 100.696 27.0386 106.198C26.3902 108.327 26.8319 108.983 28.8239 108.991C34.6263 109.009 40.4291 108.957 46.2311 109.006C47.9892 109.017 48.7656 108.283 49.0837 106.538C49.6616 103.355 50.4627 100.214 51.1717 97.0572C51.9701 93.3511 52.7389 89.6376 53.5932 85.9394C53.7775 85.1418 54.04 84.5536 54.9057 84.0753C55.4974 83.7714 56.1486 83.799 56.6769 83.799C68.5974 83.8033 80.5211 83.8061 92.4439 83.8139C93.747 83.8139 94.819 84.1958 95.1355 85.6721C95.9504 87.0748 96.1441 88.6581 96.4441 90.2159C97.4614 95.4919 98.4703 100.771 99.5344 106.038C99.9431 108.048 100.786 109.336 103.307 109.273C109.447 109.121 115.598 108.953 121.739 109.354C122.055 109.354 122.214 109.218 122.214 108.946C122.385 105.355 120.678 102.19 119.775 98.8717C117.79 91.5816 115.263 84.4438 113.222 77.173C112.337 74.0177 110.977 71.6206 107.747 70.6262C84.3102 70.6222 60.8754 70.6191 37.4407 70.612V70.612ZM43.5482 19.114H43.4041C38.9583 19.1719 34.5109 19.1286 30.0644 19.14C27.5732 19.1467 27.2484 19.6939 28.1956 21.9619C29.8715 25.9735 31.4922 30.0074 33.1362 34.0344C33.9929 34.7324 34.4011 42.9952 34.4417 46.1478C34.4838 49.4212 33.7948 50.1971 30.5813 50.2412C28.8644 50.2625 28.0893 51.016 28.12 52.7112C28.1598 54.889 28.1739 57.068 28.1661 59.2501C28.1495 64.24 28.1409 64.3581 32.7748 64.3604H33.2181C59.7968 64.3431 86.3766 64.3431 112.954 64.3431C113.557 64.3431 114.165 64.3498 114.762 64.4199C117.035 64.6848 117.935 63.9199 117.952 61.6169C117.974 58.684 117.954 55.7523 117.973 52.8206C117.984 50.9467 117.138 50.1609 115.202 50.1672C95.6465 50.2487 76.0914 50.3034 56.5367 50.3034C54.5125 50.3034 53.5003 49.1622 53.5003 46.8792V36.0854C53.3948 32.6931 52.9385 30.2165 52.1315 28.656C50.4749 26.1542 48.8038 23.6618 47.1621 21.1525C46.2685 19.786 45.0973 19.0924 43.4041 19.114H43.5482ZM106.594 19.1247C103.772 18.9822 102.122 20.2325 100.825 22.541C99.6467 24.6428 98.2495 26.6183 97 28.6827C95.891 30.5141 94.2773 31.0503 92.2266 31.033C82.3021 30.9479 72.3775 30.9346 62.4521 30.9149C60.4081 30.9109 59.3968 31.903 59.4169 33.8911L59.3862 40.9182C59.3862 43.0787 60.4192 44.1573 62.4856 44.1542C69.7788 44.142 77.0729 44.1511 84.3653 44.1511V44.1133C91.6594 44.1133 98.953 44.1471 106.247 44.0948C108.704 44.0759 111.379 43.7349 112.482 41.2556C115.331 34.832 117.91 28.2863 120.479 21.7442C121.259 19.7542 120.665 19.1247 118.549 19.1306C114.561 19.1459 110.57 19.3247 106.594 19.1247V19.1247Z" fill="#E62119"/>
<path d="M237.999 78.2119C238.725 79.9047 238.481 81.5432 237.339 82.8569C236.014 84.3725 234.672 85.9126 232.991 87.0668C227.721 91.8599 222.453 96.6554 217.187 101.453C216.749 101.852 216.232 102.288 216.454 102.978C216.724 103.811 217.508 103.779 218.151 103.728C223.887 103.262 229.635 103.665 235.376 103.495C237.987 103.417 239.049 104.229 238.998 106.29C238.951 108.339 237.866 109.011 235.274 108.993C226.542 108.938 217.81 108.967 209.079 108.97C207.602 108.97 205.917 109.331 205.162 107.582C204.323 105.639 204.929 103.841 206.392 102.425C209.466 99.4503 212.602 96.5426 215.715 93.6085C218.5 90.9886 221.287 88.3734 224.074 85.7531C224.865 85.0158 226.338 84.4367 225.97 83.2521C225.55 81.9199 224.015 82.595 222.986 82.5805C218.22 82.5096 213.445 82.5651 208.674 82.5427C206.304 82.5368 205.289 81.6427 205.272 79.6507C205.258 77.7611 206.44 76.6765 208.667 76.6686C217.315 76.6466 225.962 76.6663 234.607 76.6576C235.985 76.6537 237.327 76.6466 237.999 78.2119V78.2119ZM198.524 77.3406C199.921 77.4934 200.677 78.3705 200.525 79.809C200.369 81.2774 199.441 81.8195 198.017 81.74C195.919 81.6234 193.817 81.6695 191.717 81.5798C189.392 81.5798 187.041 81.3617 184.745 81.627C180.44 82.1258 176.827 84.2741 177.177 90.0473C177.304 92.1267 177.153 94.2199 177.226 96.3068C177.388 100.892 179.769 103.525 184.407 103.925C188.596 104.286 192.808 104.184 197 103.784C198.546 103.634 200.212 103.339 200.525 105.441C200.813 107.374 199.383 108.114 197.78 108.289C191.809 108.938 185.808 109.578 179.874 108.103C172.687 106.315 169.595 102.269 169.687 94.9199C169.724 92.0248 169.348 89.1175 170.096 86.2405C171.321 81.5463 174.571 78.8472 179.047 77.7261C185.472 76.1167 192.016 76.6155 198.524 77.3406V77.3406ZM367.687 76.4946C369.294 76.8403 369.799 77.919 369.78 79.4822C369.74 83.7021 369.768 87.9187 369.77 92.135C369.77 96.5792 369.745 101.021 369.764 105.466C369.78 109.283 365.714 108.888 363.007 108.888C361.111 108.888 359.587 108.303 358.497 106.879C355.676 103.191 345.924 90.8441 344.377 87.9734C344.108 87.4774 343.597 87.253 343.027 87.4184C342.414 87.5916 342.29 88.1183 342.296 88.6699C342.362 93.8613 342.197 99.0527 342.491 104.241C342.745 108.708 340.258 108.855 337.449 108.855C334.64 108.855 334.215 108.111 334.203 106.083C334.136 97.1213 334.147 88.1616 334.195 79.1988C334.206 77.3076 335.838 76.4179 339.71 76.4179C343.583 76.4179 345.173 77.3812 346.753 80.0822C348.102 81.8919 356.443 92.9003 359.203 96.6347C359.662 97.2568 360.125 97.9339 361.012 97.5914C361.82 97.2827 361.632 96.4761 361.632 95.8257C361.632 91.2244 361.452 81.9844 361.439 81.6089C361.281 76.9107 363.011 75.4872 367.687 76.495V76.4946ZM308.429 77.2151C313.09 76.6895 315.627 78.4839 317.111 82.7651C317.693 84.4414 325.575 99.0074 328.517 104.698C329.03 105.694 329.883 106.599 329.234 107.777C328.628 108.881 327.04 108.649 326.037 108.708C325.034 108.768 320.992 107.587 319.742 104.232C319.144 102.623 318.923 101.212 317.157 99.5932C315.392 97.9736 307.134 98.6389 302.835 99.1523H302.828C300.888 99.8625 299.496 104.298 299.271 104.765C297.682 108.01 295.09 109.251 291.676 108.109C289.842 107.495 290.673 106.127 291.349 105.056C293.243 102.043 301.349 85.402 303.826 80.2558C304.807 78.2252 306.079 77.4804 308.429 77.2151ZM411.967 77.9945C412 78.7114 411.436 79.0189 410.938 79.337C407.496 81.5565 404.049 83.7745 400.597 85.9877C399.343 86.792 398.088 87.594 396.819 88.3695C395.03 89.4592 394.827 90.6918 396.338 92.1263C400.989 96.545 405.678 100.931 410.345 105.335C410.723 105.69 411.171 106.02 411.417 106.459C412.115 107.684 411.85 108.442 410.305 108.511C406.428 108.684 403.142 107.842 400.481 104.542C397.867 101.301 394.67 98.5393 391.776 95.5238C390.85 94.5549 389.862 93.5826 388.514 94.2585C387.142 94.947 385.736 95.8568 385.653 97.6902C385.587 99.1117 385.637 100.536 385.637 101.959H385.674C385.674 102.486 385.67 103.01 385.674 103.533C385.71 108.299 385.555 108.388 380.816 108.336C378.781 108.314 378.173 107.187 378.221 105.493C378.476 96.8843 378.504 88.277 378.228 79.6688C378.173 77.954 379.01 77.2485 380.653 77.1851C385.478 77.0033 385.733 77.2225 385.659 82.0187C385.637 83.5918 385.584 85.1642 385.551 86.7334C385.533 87.5247 385.686 88.2482 386.514 88.5848C387.24 88.8809 387.79 88.5041 388.335 88.0723C392.659 84.6445 397.267 81.616 401.782 78.4516C404.698 76.4096 407.99 77.5406 411.095 77.1312C411.502 77.0769 411.942 77.4713 411.967 77.9945V77.9945ZM254.087 79.7681C254.072 78.0886 254.653 77.0017 256.317 77.1371C262.019 77.6095 267.726 77.1773 273.427 77.3489C276.248 77.4371 278.915 77.993 281.512 79.0657C286.382 81.0822 287.57 86.396 283.952 90.1469C282.551 91.6035 282.614 92.7688 284.154 93.8735C287.83 96.5072 288.419 98.2319 287.125 102.595C286.42 103.991 285.229 104.903 283.958 105.733C278.672 107.75 273.163 108.093 267.576 107.989C263.973 107.919 260.365 107.97 256.761 108.062C254.808 108.109 253.94 107.127 254.003 105.35C254.309 96.8225 254.154 88.2955 254.087 79.7684V79.7681ZM276.714 95.7533C272.553 94.4002 268.225 94.5837 264.01 94.7612C260.877 94.8943 262.221 97.9496 262.025 99.8271C261.875 101.295 261.709 102.96 263.862 103.282C264.229 103.334 264.612 103.274 264.986 103.274C265.816 103.272 266.645 103.271 267.421 103.271H268.799C271.645 103.176 274.288 103.392 276.822 102.495C278.379 101.946 279.789 101.149 279.694 99.2346C279.603 97.3941 278.496 96.332 276.714 95.7533ZM311.017 86.3421C310.4 85.0732 309.569 85.0988 308.876 86.2063C308.217 87.2711 307.752 88.4565 307.19 89.584C305.179 93.6322 305.192 93.6597 309.92 93.6377C314.081 93.6081 314.081 93.0842 313.071 90.7678C312.421 89.2769 311.724 87.8046 311.017 86.3421V86.3421ZM264.13 82.1104C262.922 82.0411 262.203 82.8167 261.967 83.9918C261.089 88.3577 262.217 89.7017 266.642 89.5836C266.871 89.5769 267.095 89.5836 267.319 89.5836C269.949 89.6717 272.578 89.4034 275.136 88.786C276.906 88.362 278.482 87.5089 278.489 85.6862C278.496 83.6658 276.688 83.0178 274.904 82.6013C271.341 81.7671 267.719 82.3167 264.13 82.1104V82.1104Z" fill="#060101"/>
<path d="M379.256 31.6771C380.016 31.7728 380.744 32.0055 380.975 32.8751C381.18 33.6388 380.786 34.1624 380.213 34.6085C379.739 34.9785 379.279 35.3568 378.818 35.7446C376.861 37.3961 376.018 39.3688 376.098 42.0576C376.287 48.3919 376.172 54.7348 376.156 61.073C376.144 64.4062 375.164 65.381 371.881 65.4022C366.324 65.4357 366.299 65.4093 366.303 59.7309C366.303 55.8816 366.324 52.0318 366.292 48.1864C366.272 45.9432 365.952 45.7487 363.756 46.4231C362.335 47.2152 361.583 46.6144 361.149 45.1952C360.331 42.5143 361.304 40.7561 364.552 39.1515C366.701 37.9311 368.693 36.493 370.366 34.6455C371.711 32.4771 374.087 31.7327 375.717 31.5598C377.345 31.3866 378.211 31.548 379.256 31.6771ZM329.818 44.7905C331.867 44.8791 334.243 44.2492 335.491 46.7947C337.052 49.4961 337.732 49.5926 339.572 47.3651C340.926 45.7235 345.639 44.3972 347.623 45.1491C348.971 45.6531 348.732 46.6065 348.045 47.4695C346.701 49.1623 345.35 50.8563 343.691 52.2566C342.7 53.0947 342.183 53.973 343.486 54.9922C345.176 56.1953 347.201 56.7701 348.862 58.0562C350.39 59.2377 351.144 63.2032 350.028 64.7629C349.503 65.5003 348.793 65.5491 348.066 65.1857C344.189 63.2358 340.194 61.4942 336.856 58.5857C333.742 55.9654 331.151 52.8684 328.865 49.489C328.428 48.9627 328.131 48.3474 327.877 47.7214C327.138 45.8952 327.86 44.7019 329.818 44.7909V44.7905ZM320.87 20.7215C327.675 20.1365 334.5 20.5633 341.319 20.4715C342.81 20.4522 344.306 20.3471 345.797 20.692C348.397 21.3022 349.297 22.2754 349.121 24.9201C348.824 29.2686 349.096 33.6148 349.154 37.9559C349.195 41.2608 347.966 42.3863 344.556 42.6363C339.61 42.9993 334.684 42.5588 329.748 42.5552C325.689 42.5552 324.886 43.7055 325.217 47.8269C325.47 50.9626 325.261 54.1364 325.345 57.2897C325.375 58.3964 325.019 59.8482 326.812 60.0848C328.358 60.5943 329.938 60.164 331.5 60.2187C332.632 60.2608 333.45 60.6793 333.574 61.8336C333.701 62.9988 333.459 64.4806 332.196 64.5763C327.963 64.8995 318.612 65.8951 317.828 63.2307C317.045 60.5663 317.597 47.0179 317.389 38.9113C317.266 34.2538 317.352 29.5891 317.305 24.9303C317.275 22.2651 318.191 20.9499 320.87 20.7219V20.7215ZM179.5 21.8368C179.487 26.035 179.476 30.2316 179.462 34.4305C179.448 37.4217 180.039 38.0059 182.949 37.9945C192.878 37.9571 202.805 37.9468 212.729 37.9169C214.103 37.913 215.632 37.7335 215.559 39.7857C215.493 41.6135 214.51 42.7548 212.601 42.7473C208.053 42.7328 203.503 42.6599 198.951 42.6084C198.504 42.6044 198.057 42.5745 197.609 42.5493C196.753 42.4973 195.933 42.5788 195.467 43.426C194.952 44.3665 195.349 44.5224 195.982 45.8708C199.258 50.5488 202.954 52.8495 206.553 54.9237C208.276 55.9174 210.106 56.7976 212.039 57.4338C214.76 58.333 215.877 61.236 214.679 63.8539C214.27 64.7416 213.631 65.0904 212.692 64.7975C201.508 61.3422 191.86 55.8446 186.316 44.8547C185.206 42.6521 183.457 41.8887 181.161 42.5528C179.078 43.1544 179.162 44.8618 179.176 46.5652C179.206 49.9461 179.168 53.3227 179.176 56.7028C179.188 59.7971 179.943 60.436 183.034 60.5573C185.766 60.6675 188.551 59.9522 191.23 61.0092C192 63.4811 190.857 65.0499 188.045 64.9141C184.166 64.7235 180.298 64.8964 176.425 64.9365C171.478 64.9873 169.972 63.4634 170.02 58.5605C170.058 54.5159 170.025 50.4709 170.086 46.429C170.131 43.2579 169.258 42.3981 166.112 42.7111C163.005 43.0198 161.951 41.6135 162.967 38.5196C163.362 37.4087 165.812 37.9063 167.26 37.8295C169.335 37.7232 169.878 37.2453 169.889 35.1387C169.91 31.2335 169.881 27.331 169.901 23.43C169.914 20.9774 171.188 20.2582 173.253 20.0196C175.318 19.781 177.986 19.2704 179.5 21.8368ZM414.118 34.0329C415.391 34.0471 417.033 33.7558 417.121 35.8265C417.188 37.3921 415.651 39.2239 414.085 39.1397C410.91 38.9692 410.316 39.7507 410.444 43.1631C410.65 48.5092 410.527 53.8632 410.562 59.2164C410.586 62.9449 409.134 64.696 405.361 64.8578C401.546 65.0231 397.716 64.8838 393.892 64.8578C391.868 64.8428 391.381 63.4681 391.433 61.7993C391.484 60.1596 392.623 59.9561 393.969 60.0199C395.542 60.0939 397.118 60.038 398.696 60.0715C400.466 60.1081 401.361 59.2388 401.368 57.4842C401.391 52.0617 401.427 46.6325 401.373 41.21C401.353 39.4188 400.049 39.0983 398.531 39.1133C393.88 39.1613 389.229 39.205 384.578 39.157C382.311 39.1318 381.352 37.2563 382.378 35.2257C383.039 33.9073 384.237 34.0947 385.315 34.0876C390.115 34.0506 394.917 34.0093 399.714 34.0093C404.519 34.0093 409.319 33.977 414.118 34.0329ZM249.356 43.4C253.982 43.352 258.611 43.3882 263.242 43.3882C267.869 43.3882 272.496 43.5618 277.125 43.5953C280.063 43.6174 281.187 44.8039 281.187 47.7411C281.182 51.9731 281.19 56.2079 281.176 60.4372C281.168 63.5114 280.136 64.8117 277.06 64.8483C267.73 64.959 258.392 64.9625 249.063 64.8818C246.115 64.8558 245.072 63.5929 245.093 60.5927C245.126 56.1371 245.207 51.6783 245.323 47.2195C245.404 44.2303 246.232 43.4323 249.356 43.4V43.4ZM239.178 46.1873C241.742 46.1774 242.436 47.0931 241.251 49.4493C239.376 53.1727 237.142 56.6984 234.057 59.575C232.424 61.0907 230.649 62.4619 228.912 63.8689C228.393 64.2909 227.772 64.6869 227.067 64.3302C226.369 63.9779 226.334 63.2685 226.344 62.5811C226.359 61.3202 226.414 60.0545 226.378 58.7967C226.337 57.2771 226.892 56.1315 228.051 55.0962C229.802 53.5286 231.333 52.2633 232.695 50.6736C234.057 49.084 234.506 47.4278 235.381 46.2207C236.648 46.2109 237.912 46.192 239.178 46.1877V46.1873ZM294.291 34.6962C294.789 34.0093 295.62 33.6735 296.511 34.2349C299.267 35.1655 302.094 34.1758 304.895 34.5352C306.795 34.7762 308.763 34.6742 310.706 34.3691C312.003 34.1648 313.442 34.3392 313.522 36.0737C313.592 37.6055 312.682 38.6826 311.075 38.661C309.055 38.6318 308.364 39.8507 308.35 41.46C308.333 43.2107 308.898 44.6535 311.176 44.6724C312.347 44.6791 313.727 45.0031 313.561 46.6798C313.42 48.1202 312.512 48.9855 311.006 48.9418C309.095 48.884 308.527 49.9674 308.518 51.611C308.507 53.4707 308.551 55.3316 308.507 57.1909C308.46 59.2125 309.268 60.3254 311.433 60.1254C312.704 60.0053 314.02 59.7467 314.461 61.4887C314.901 63.2307 313.225 64.559 311.223 64.461C309.205 64.3665 307.198 64.3842 305.176 64.4027C301.746 64.435 300.3 62.7079 300.425 59.1802C300.509 56.8012 300.509 54.4151 300.496 52.0369C300.488 50.9937 300.444 49.9099 299.242 49.4005C298.04 48.891 297.252 49.0879 296.25 49.0839C294.646 49.0839 293.311 48.7013 293.376 46.8073C293.439 45.0244 294.677 44.487 296.321 44.5082C299.791 44.5594 300.604 43.9886 300.648 41.6033C300.685 39.668 299.772 38.7397 297.792 38.7334C297.419 38.7334 297.043 38.7629 296.672 38.7944C295.516 38.9046 294.366 38.9007 293.692 37.7626C293.003 36.6095 293.793 35.3836 294.291 34.6962V34.6962ZM263.063 49.1331H257.478C255.289 49.1359 254.697 49.7351 255.004 51.981C255.222 53.5628 255.244 55.084 254.997 56.6807C254.719 58.4578 255.537 59.5435 257.51 59.5254C261.232 59.4841 264.954 59.4664 268.676 59.5365C270.686 59.5699 271.331 58.5271 271.157 56.7205C270.982 54.9135 270.96 53.1077 271.157 51.3098C271.338 49.6764 270.543 49.1328 269.091 49.1446C267.081 49.1548 265.07 49.1446 263.063 49.1446V49.1328V49.1331ZM229.886 32.4932C232.253 33.2778 234.593 34.1372 237.035 34.6553C239.556 35.1919 240.645 36.6457 240.362 38.7173C240.406 41.46 239.679 41.9308 237.35 41.1793C235.057 40.4376 232.744 39.7542 230.424 39.096C227.822 38.3622 226.838 37.2244 226.812 34.7931C226.787 32.1877 227.358 31.6512 229.886 32.4932V32.4932ZM256.048 19.5247C257.358 19.7169 258.728 19.4858 260.068 19.5149C261.952 19.5495 262.349 20.2503 261.351 21.8663C260.142 23.8241 258.845 25.7283 257.584 27.6557C256.565 29.095 255.498 30.502 254.536 31.9767C253.644 33.3507 254.041 34.3333 255.73 34.3404C260.491 34.366 265.252 34.3439 270.01 34.1908C271.631 34.1412 272.228 33.094 271.434 31.5598C270.651 30.0481 269.831 28.5592 268.997 27.0758C268.126 25.5248 268.436 24.9512 270.239 24.8791C270.312 24.8791 270.388 24.887 270.462 24.8902C276.967 25.1846 276.239 23.3603 279.171 30.8386C280.008 32.9668 281.04 35.0258 282.053 37.0811C283.127 39.2562 282.635 40.0939 280.25 40.0939C278.166 40.0939 276.111 39.9585 274.144 39.1976V39.2015C272.097 38.6397 270.013 39.0019 267.951 39.0165C263.133 39.0495 258.302 38.744 253.487 39.1727C251.622 39.1905 249.757 39.1865 247.895 39.231C244.438 39.3038 242.616 36.5198 244.354 33.5794C246.729 29.5592 249.25 25.6188 251.756 21.6746C252.729 20.1444 254.025 19.2275 256.048 19.5247V19.5247ZM338.471 34.2175C334.958 34.1695 331.441 34.1719 327.925 34.2018C326.555 34.2136 325.88 35.0549 325.883 36.3749C325.891 37.724 326.804 38.1582 327.987 38.1689C329.708 38.1917 331.429 38.1767 333.15 38.1767V38.1027C334.945 38.1027 336.74 38.1468 338.531 38.089C339.729 38.0516 340.86 37.7205 340.773 36.1871C340.695 34.8053 339.717 34.2313 338.471 34.2175V34.2175ZM378.109 20.2889C378.65 21.6553 377.042 22.5659 376.221 23.5662C372.794 27.7427 368.502 30.8571 363.864 33.5381C362.217 34.4919 361.499 33.9573 361.365 32.0389C361.198 29.6584 361.94 27.9455 364.096 26.7141C365.894 25.6873 367.496 24.2642 368.611 22.5076C369.652 20.8711 370.834 19.7007 372.509 19.5043C373.012 19.4452 376.275 19.3448 378.109 20.2889V20.2889ZM212.201 24.0044C212.201 26.2668 211.446 27.4014 209.418 28.1018C202.22 30.5839 194.739 31.8464 187.344 33.4715C186.305 33.6983 185.694 33.2825 185.381 32.1779C184.504 29.0584 185.628 27.4498 188.774 26.7648C195.805 25.2323 202.933 24.0445 209.625 21.1746C211.487 20.3794 212.179 21.116 212.201 24.0044ZM299.888 21.314C300.602 19.8964 301.559 19.3547 303.038 19.4885C303.331 19.5145 303.629 19.5003 303.922 19.5003C307.911 19.4925 307.924 19.496 306.702 23.3288C306.413 24.2335 306.68 24.7288 307.565 24.9874C308.591 25.2854 309.617 25.1441 310.635 25.0083C311.786 24.8555 312.836 24.9689 313.667 25.8921C314.231 26.9912 314.07 27.9868 313.237 28.8883C311.433 30.3213 308.142 29.4344 305.83 29.6048C304.453 29.7107 303.494 29.2529 301.691 29.7977C299.888 30.3422 298.247 31.3685 297.216 31.9834C296.185 32.598 294.514 32.4991 293.998 31.1024C293.376 29.4159 295.126 26.7648 296.511 25.6767C297.897 24.5882 298.932 23.2162 299.888 21.314V21.314ZM229.759 20.6042C232.145 21.3577 233.162 21.9718 236.966 22.7009C240.769 23.43 241.786 26.5424 240.062 30.1194C238.429 30.7044 228.463 26.7141 227.053 23.9788C226.76 23.0962 226.683 22.2163 227.108 21.3475L227.101 21.3695C227.743 20.2995 228.626 20.2483 229.759 20.6042V20.6042ZM338.214 25.1842C334.852 25.1512 331.496 25.1736 328.134 25.1807C326.749 25.1846 325.74 25.787 325.744 27.2581C325.749 28.7498 326.777 29.2875 328.164 29.2761C329.806 29.2651 331.448 29.2722 333.09 29.2722V29.2651C334.809 29.2651 336.529 29.3131 338.239 29.2501C339.548 29.1989 340.937 29.0151 340.893 27.2357C340.849 25.563 339.575 25.1996 338.214 25.1846V25.1842ZM399.26 20.8794L403.725 20.8806C406.702 20.881 409.68 20.8814 412.658 20.8762C414.119 20.8739 415.628 20.7888 415.714 22.7903C415.788 24.4406 414.513 25.5472 412.463 25.561C410.453 25.5744 408.442 25.4976 406.433 25.4941C399.357 25.487 392.28 25.4767 385.204 25.5189C383.506 25.5259 382.451 24.985 382.437 23.2221C382.417 21.4317 383.486 20.9396 385.194 20.964C389.88 21.0243 394.57 20.8762 399.258 20.8762C399.258 20.8601 399.259 20.8699 399.26 20.8794V20.8794Z" fill="#060202"/>
</svg>
