<svg width="128" height="128" viewBox="0 0 128 128" fill="none" xmlns="http://www.w3.org/2000/svg">
<path d="M98.1315 57.625L70.235 29.8365C68.266 27.875 68.266 24.9325 70.235 22.9715C72.204 21.0095 75.158 21.0095 77.127 22.9715L105.022 50.7595C106.992 52.721 106.992 55.6635 105.022 57.625C103.382 59.5865 100.1 59.5865 98.131 57.625H98.1315ZM67.61 46.1825L51.857 30.4905C49.888 28.529 49.888 25.5865 51.857 23.625C53.8265 21.6635 56.78 21.6635 58.749 23.625L74.502 39.3175C76.471 41.279 76.471 44.221 74.502 46.1825C72.533 48.144 69.579 48.144 67.61 46.1825ZM58.0925 55.6635L42.34 39.971C40.3705 38.0095 40.3705 35.0675 42.34 33.106C44.309 31.144 47.2625 31.144 49.2315 33.106L64.9845 48.798C66.9535 50.7595 66.9535 53.702 64.9845 55.663C63.0155 57.298 60.062 57.298 58.0925 55.663V55.6635ZM48.5755 64.8175L32.8225 49.125C30.8535 47.1635 30.8535 44.221 32.8225 42.26C34.7915 40.298 37.745 40.298 39.7145 42.26L55.467 57.952C57.4365 59.9135 57.4365 62.856 55.467 64.817C53.8265 66.779 50.5445 66.779 48.5755 64.817V64.8175ZM23.305 58.606C21.336 56.644 21.336 53.702 23.305 51.7405C25.274 49.779 28.228 49.779 30.197 51.7405L45.95 67.4325C47.919 69.394 47.919 72.3365 45.95 74.298C44.309 76.2595 41.027 76.2595 39.058 74.298L23.305 58.606ZM98.1315 76.2595L82.3785 60.5675C80.4095 58.606 80.4095 55.6635 82.3785 53.702C84.3475 51.7405 87.301 51.7405 89.2705 53.702L105.023 69.394C106.993 71.356 106.993 74.298 105.023 76.2595C103.054 78.221 99.772 78.221 98.1315 76.2595ZM88.614 85.7405L72.861 70.048C70.892 68.0865 70.892 65.144 72.861 63.183C74.83 61.221 77.784 61.221 79.753 63.183L95.506 78.875C97.475 80.8365 97.475 83.779 95.506 85.74C93.5365 87.702 90.583 87.702 88.614 85.74V85.7405ZM79.0965 95.221L63.3435 79.529C61.3745 77.5675 61.3745 74.625 63.3435 72.6635C65.3125 70.702 68.2665 70.702 70.2355 72.6635L85.9885 88.356C87.9575 90.3175 87.9575 93.2595 85.9885 95.221C84.0195 97.1825 81.0655 97.1825 79.0965 95.221ZM69.579 104.702L53.8265 89.0095C51.857 87.048 51.857 84.106 53.8265 82.1445C55.7955 80.1825 58.749 80.1825 60.718 82.1445L76.471 97.8365C78.44 99.798 78.44 102.741 76.471 104.701C74.502 106.663 71.5485 106.663 69.579 104.701V104.702ZM50.8725 105.029L22.977 77.24C21.0075 75.2785 21.0075 72.336 22.977 70.3745C24.946 68.413 27.8995 68.413 29.8685 70.3745L57.7645 98.163C59.7335 100.125 59.7335 103.067 57.7645 105.028C55.7955 106.99 52.8415 106.99 50.8725 105.028V105.029Z" fill="#E60012"/>
</svg>
