<svg width="771" height="128" viewBox="0 0 771 128" fill="none" xmlns="http://www.w3.org/2000/svg">
<path d="M84.8617 82.1373H117.722C118.154 82.1373 118.504 82.4876 118.504 82.9193V89.0172C118.504 89.4489 118.154 89.7992 117.722 89.7992H72.1144C71.9071 89.799 71.7084 89.7165 71.5619 89.5699C71.4154 89.4232 71.3331 89.2245 71.3331 89.0172V87.3398C71.3331 87.1606 71.3945 86.9873 71.5071 86.848L104.344 46.2532H73.7377C73.5304 46.2532 73.3316 46.1709 73.185 46.0244C73.0383 45.8779 72.9558 45.6792 72.9556 45.4719V39.3733C72.9556 38.9416 73.3059 38.592 73.7377 38.592H117.09C117.521 38.592 117.871 38.9416 117.871 39.3733V41.0515C117.871 41.2307 117.809 41.404 117.697 41.5432L84.8602 82.1373H84.8617ZM126.085 88.6261V39.3741C126.085 38.9423 126.435 38.5928 126.867 38.5928H152.182C163.6 38.5928 169.581 43.6738 169.581 51.5786V52.708C169.581 58.3548 166.319 62.8715 160.339 64.0009C167.406 65.1302 170.668 70.212 170.668 74.7287V75.8581C170.124 83.7629 163.6 89.4089 152.182 89.4089H126.867C126.764 89.4089 126.662 89.3887 126.567 89.3494C126.472 89.3101 126.386 89.2525 126.314 89.1799C126.241 89.1073 126.183 89.0211 126.144 88.9262C126.105 88.8313 126.085 88.7296 126.085 88.6269V88.6261ZM152.703 46.0184H135.47C135.039 46.0184 134.688 46.3687 134.688 46.8005V59.7004C134.688 60.1321 135.039 60.4817 135.47 60.4817H151.611C157.616 60.4817 160.891 57.7009 160.891 53.807V52.6939C160.891 49.3562 158.708 46.0184 152.703 46.0184V46.0184ZM152.157 67.1275H135.47C135.039 67.1275 134.688 67.4771 134.688 67.9088V80.8087C134.688 81.2405 135.039 81.59 135.47 81.59H152.703C158.708 81.59 160.891 78.8092 160.891 74.9153V73.8023C160.891 69.9084 158.161 67.1275 152.157 67.1275V67.1275ZM218.362 88.9387L213.359 77.4562C213.298 77.3166 213.198 77.1979 213.07 77.1145C212.943 77.0311 212.794 76.9867 212.642 76.9867H189.312C189.001 76.9867 188.72 77.1711 188.596 77.4562L183.593 88.9387C183.532 89.0782 183.432 89.197 183.305 89.2804C183.177 89.3638 183.028 89.4082 182.876 89.4082H175.394C175.264 89.4082 175.135 89.3756 175.021 89.3133C174.906 89.251 174.809 89.161 174.738 89.0516C174.667 88.9421 174.625 88.8167 174.615 88.6866C174.605 88.5566 174.627 88.4261 174.68 88.307L196.711 39.0541C196.837 38.7727 197.117 38.592 197.425 38.592H203.993C204.299 38.592 204.577 38.7698 204.704 39.0482L227.26 88.3011C227.314 88.4202 227.338 88.5511 227.329 88.6817C227.319 88.8123 227.277 88.9385 227.207 89.0487C227.136 89.1589 227.038 89.2496 226.924 89.3124C226.809 89.3752 226.68 89.4081 226.549 89.4082H219.078C218.767 89.4082 218.486 89.2238 218.362 88.9387ZM200.586 48.7556L191.883 68.3732C191.83 68.4922 191.808 68.6226 191.818 68.7525C191.828 68.8824 191.871 69.0077 191.942 69.117C192.013 69.2263 192.11 69.316 192.225 69.3782C192.339 69.4404 192.467 69.4729 192.598 69.4729H208.575C208.705 69.4729 208.833 69.4403 208.947 69.3782C209.062 69.316 209.159 69.2263 209.23 69.1172C209.301 69.008 209.343 68.8829 209.354 68.7531C209.364 68.6233 209.342 68.4929 209.289 68.3739L200.586 48.7548V48.7556ZM273.343 89.1312L246.381 57.2247L243.117 52.7072V88.6261C243.117 89.0586 242.768 89.4082 242.336 89.4082H235.197C235.094 89.4082 234.993 89.388 234.898 89.3487C234.803 89.3094 234.717 89.2517 234.644 89.1791C234.572 89.1065 234.514 89.0203 234.475 88.9254C234.435 88.8305 234.415 88.7288 234.415 88.6261V39.3741C234.415 38.9423 234.765 38.5928 235.197 38.5928H242.206C242.439 38.5928 242.66 38.6965 242.808 38.8757L269.226 70.7763L273.033 75.2937V39.3741C273.033 38.9423 273.384 38.5928 273.815 38.5928H280.954C281.386 38.5928 281.736 38.9423 281.736 39.3741V88.6269C281.736 89.0594 281.386 89.4089 280.954 89.4089H273.941C273.71 89.4089 273.492 89.3075 273.343 89.132V89.1312ZM328.183 89.2223L308.069 67.2142L300.998 73.9896V89.0172C300.998 89.4489 300.648 89.7992 300.216 89.7992H293.077C292.87 89.7992 292.671 89.7168 292.524 89.5702C292.378 89.4235 292.295 89.2246 292.295 89.0172V39.7644C292.295 39.3326 292.646 38.9823 293.077 38.9823H300.216C300.648 38.9823 300.998 39.3326 300.998 39.7644V64.3911L327.424 39.1986C327.569 39.0601 327.763 38.9823 327.963 38.9823H337.077C337.234 38.9824 337.387 39.0298 337.517 39.1184C337.647 39.2071 337.747 39.3328 337.805 39.4792C337.862 39.6256 337.874 39.7859 337.839 39.9392C337.804 40.0924 337.723 40.2315 337.608 40.3383L314.052 62.1324C318.948 67.2142 339.617 89.7992 339.617 89.7992H329.032C328.801 89.7992 328.582 89.697 328.433 89.5193L328.205 89.2475C328.198 89.239 328.191 89.2305 328.183 89.2223Z" fill="black"/>
<path d="M42.999 91.7537C34.5188 91.7537 27.556 89.0647 22.1344 83.689C16.7134 78.3147 14 71.5163 14 63.3197C14 58.2394 15.259 53.5458 17.7739 49.2453C20.2904 44.9441 23.7732 41.5693 28.2174 39.1262C32.6585 36.6853 37.4552 35.4641 42.6014 35.4641C47.7401 35.4641 52.3494 36.452 56.4262 38.4301C60.5067 40.4103 63.9163 43.3082 66.6505 47.1191L66.8704 47.425L61.5043 51.5736L61.2636 51.2818C56.3277 45.2981 50.2484 42.3173 42.999 42.3173C37.0804 42.3173 31.9891 44.3968 27.7034 48.5662C23.4207 52.7326 21.2835 57.8233 21.2835 63.8618C21.2835 69.8996 23.3726 74.9295 27.5575 78.9752C31.7447 83.0217 37.173 85.0449 43.8655 85.0449C50.538 85.0449 56.3314 82.1819 61.2688 76.4359L61.5087 76.1559L66.9556 80.3046L66.7141 80.6156C60.9555 88.0375 53.0389 91.7537 42.999 91.7537V91.7537Z" fill="black"/>
<path d="M439.185 56.4078L406.247 23.76C403.922 21.4554 403.922 17.9984 406.247 15.6938C408.573 13.3892 412.06 13.3892 414.385 15.6938L447.322 48.3424C449.647 50.647 449.647 54.1039 447.322 56.4078C445.385 58.7125 441.509 58.7125 439.185 56.4078V56.4078ZM403.263 43.1095L384.74 24.5872C382.425 22.2715 382.425 18.799 384.74 16.4832C387.056 14.1682 390.529 14.1682 392.844 16.4832L411.366 35.0062C413.682 37.3212 413.682 40.7945 411.366 43.1095C409.052 45.4253 405.578 45.4253 403.263 43.1095ZM391.927 54.3491L373.405 35.8898C371.09 33.5822 371.09 30.1208 373.405 27.8139C375.72 25.5063 379.193 25.5063 381.508 27.8139L400.031 46.2732C402.346 48.5808 402.346 52.0422 400.031 54.3491C397.715 56.2716 394.243 56.2716 391.927 54.3491ZM380.981 64.9999L362.46 46.4776C360.144 44.1619 360.144 40.6894 362.46 38.3736C364.775 36.0586 368.248 36.0586 370.563 38.3736L389.085 56.8959C391.401 59.2116 391.401 62.6849 389.085 64.9999C387.156 67.3149 383.297 67.3149 380.982 64.9999H380.981ZM351.123 57.8134C348.808 55.4977 348.808 52.0252 351.123 49.7094C353.439 47.3944 356.912 47.3944 359.227 49.7094L377.75 68.2324C380.065 70.5475 380.065 74.0207 377.75 76.3357C375.82 78.6514 371.961 78.6514 369.646 76.3357L351.123 57.8134ZM439.225 78.2901L420.704 59.7685C418.388 57.4528 418.388 53.9795 420.704 51.6645C423.018 49.3488 426.491 49.3488 428.807 51.6645L447.329 70.1861C449.644 72.5018 449.644 75.9751 447.329 78.2901C445.014 80.6058 441.155 80.6058 439.225 78.2901ZM427.889 89.6266L409.367 71.1036C407.051 68.7886 407.051 65.3154 409.367 63.0004C411.682 60.6846 415.155 60.6846 417.47 63.0004L435.994 81.5226C438.309 83.8384 438.309 87.3109 435.994 89.6266C433.678 91.9416 430.205 91.9416 427.889 89.6266V89.6266ZM416.944 100.962L398.422 82.4394C396.107 80.1244 396.107 76.6512 398.422 74.3362C400.737 72.0212 404.211 72.0212 406.526 74.3362L425.048 92.8584C427.364 95.1742 427.364 98.6467 425.048 100.962C422.733 103.277 419.26 103.277 416.945 100.962H416.944ZM405.609 111.908L387.086 93.385C384.771 91.0692 384.771 87.5967 387.086 85.281C389.402 82.966 392.874 82.966 395.19 85.281L413.712 103.804C416.027 106.119 416.027 109.592 413.712 111.907C411.397 114.223 407.924 114.223 405.609 111.907V111.908ZM383.677 112.306L350.74 79.6579C348.414 77.3532 348.414 73.8963 350.74 71.5917C353.065 69.287 356.553 69.287 358.878 71.5917L391.814 104.24C394.14 106.545 394.14 110.002 391.814 112.306C389.489 114.611 386.002 114.611 383.677 112.306V112.306Z" fill="#E60012"/>
<path d="M522.555 36.1238C522.958 36.1238 523.29 36.4289 523.332 36.8206L523.336 36.9058V42.2675C523.336 42.6696 523.032 43.0014 522.64 43.0443L522.555 43.0488H504.93C504.33 43.0486 503.754 43.2776 503.318 43.689C502.883 44.1003 502.621 44.6627 502.587 45.2609L502.583 45.3941V50.9328C502.583 51.3357 502.889 51.6675 503.28 51.7104L503.365 51.7149H522.555C522.958 51.7149 523.29 52.0192 523.332 52.411L523.336 52.4962V57.3839C523.336 57.7875 523.032 58.1193 522.64 58.1615L522.555 58.1659H520.296C519.893 58.1659 519.561 58.4711 519.519 58.8628L519.514 58.948V93.3176C519.514 93.7205 519.209 94.0522 518.818 94.0944L518.732 94.0989H513.457C513.054 94.0989 512.723 93.7938 512.68 93.4027L512.676 93.3176V58.948C512.676 58.5451 512.371 58.2133 511.979 58.1704L511.894 58.1659H503.365C502.963 58.1659 502.631 58.4711 502.588 58.8628L502.583 58.948V93.3176C502.583 93.7205 502.279 94.0522 501.887 94.0944L501.802 94.0989H496.166C495.764 94.0989 495.433 93.7938 495.39 93.4027L495.385 93.3176V40.0332C495.385 39.0243 495.775 38.0545 496.474 37.3265C497.172 36.5986 498.125 36.1689 499.133 36.1275L499.295 36.1238H522.555ZM572.682 32.7283C573.01 32.7283 573.299 32.9327 573.413 33.2333L573.439 33.3178L574.772 38.5743C574.854 38.8927 575.122 39.1223 575.442 39.1593L575.531 39.1638H599.562C599.964 39.1638 600.296 39.4689 600.339 39.8607L600.343 39.9458V44.7973C600.343 45.2009 600.038 45.5326 599.647 45.5749L599.561 45.5793H589.575C589.345 45.5793 589.13 45.68 588.982 45.8511L588.923 45.9288L584.665 52.354C584.591 52.4657 584.547 52.5945 584.537 52.7281C584.527 52.8617 584.552 52.9956 584.609 53.1169C584.666 53.2382 584.753 53.3429 584.861 53.421C584.97 53.499 585.097 53.5478 585.23 53.5626L585.316 53.5678H595.434C596.236 53.5679 597.008 53.8764 597.589 54.4294C598.17 54.9824 598.517 55.7376 598.557 56.5389L598.561 56.6944V90.1902C598.561 91.1989 598.171 92.1687 597.472 92.8966C596.774 93.6245 595.821 94.0543 594.813 94.0959L594.652 94.0989H588.589C588.186 94.0989 587.854 93.7938 587.811 93.4027L587.808 93.3176V88.8557C587.808 88.4528 588.112 88.121 588.504 88.0781L588.589 88.0744H590.274C590.874 88.0744 591.45 87.8452 591.885 87.4337C592.321 87.0222 592.582 86.4597 592.616 85.8616L592.62 85.7283V61.4326C592.62 61.0373 592.47 60.6566 592.201 60.3672C591.932 60.0778 591.563 59.9012 591.168 59.8729L591.056 59.8692H584.1C583.962 59.8694 583.827 59.9058 583.709 59.9746C583.59 60.0435 583.491 60.1424 583.423 60.2614C583.354 60.3805 583.318 60.5155 583.319 60.6528C583.319 60.7901 583.355 60.925 583.424 61.0438L583.475 61.1201L588.724 68.1176C588.949 68.4176 588.927 68.8301 588.685 69.1041L588.619 69.17L585.372 72.0715C585.23 72.198 585.139 72.3718 585.116 72.5603L585.11 72.6544V86.9021C585.11 87.3049 584.806 87.6367 584.414 87.6797L584.329 87.6841H557.324C556.921 87.6841 556.589 87.379 556.546 86.9873L556.542 86.9021V72.7091C556.542 72.487 556.448 72.2774 556.285 72.13L556.211 72.0708L552.779 69.6462C552.464 69.424 552.362 69.0093 552.525 68.6701L552.571 68.5872L557.366 61.0712C557.437 60.9591 557.479 60.8306 557.487 60.698C557.495 60.5653 557.469 60.4328 557.412 60.313C557.354 60.1932 557.267 60.0899 557.159 60.0131C557.05 59.9362 556.924 59.8882 556.792 59.8737L556.707 59.8692H550.224C549.829 59.8691 549.448 60.0188 549.159 60.2882C548.869 60.5575 548.693 60.9264 548.664 61.3207L548.661 61.4318V93.3176C548.661 93.7205 548.356 94.0522 547.965 94.0944L547.879 94.0989H543.17C542.766 94.0989 542.435 93.7938 542.393 93.4027L542.388 93.3176V56.6944C542.388 55.8921 542.697 55.1206 543.25 54.5393C543.803 53.9581 544.558 53.6115 545.359 53.5715L545.515 53.5678H556.283C556.416 53.5678 556.547 53.5341 556.663 53.4697C556.779 53.4054 556.877 53.3125 556.947 53.1999C557.017 53.0873 557.058 52.9586 557.065 52.8261C557.071 52.6935 557.044 52.5614 556.986 52.4421L556.942 52.3629L552.814 45.9385C552.752 45.8425 552.67 45.7611 552.573 45.7002C552.477 45.6393 552.368 45.6003 552.255 45.586L552.156 45.5793H540.927C540.524 45.5793 540.192 45.2742 540.149 44.8832L540.145 44.7973V39.9466C540.145 39.543 540.45 39.2112 540.841 39.169L540.927 39.1638H566.53C566.933 39.1638 567.265 38.8594 567.307 38.4676L567.312 38.3825V33.5096C567.312 33.1074 567.617 32.7757 568.008 32.7327L568.094 32.7283H572.682V32.7283ZM627.133 33.9013C627.523 33.9013 627.853 34.1879 627.907 34.5738L628.553 39.1779C628.608 39.5637 628.939 39.851 629.328 39.851H638.944C639.375 39.851 639.725 40.2013 639.725 40.6331V44.6662C639.725 45.0979 639.375 45.4482 638.944 45.4482H628.3C628.002 45.4482 627.73 45.6185 627.598 45.8866L625.75 49.6635C625.692 49.7827 625.665 49.9148 625.672 50.0473C625.679 50.1798 625.719 50.3084 625.789 50.421C625.86 50.5336 625.957 50.6264 626.073 50.6909C626.189 50.7553 626.32 50.7891 626.453 50.7892H638.944C639.375 50.7892 639.725 51.1387 639.725 51.5705V56.3079C639.725 56.7396 639.375 57.0891 638.944 57.0891H631.642C631.209 57.0891 630.86 57.4394 630.86 57.8712V62.6286C630.86 63.0603 631.209 63.4099 631.641 63.4099H638.943C639.375 63.4099 639.725 63.7602 639.725 64.1919V68.465C639.725 68.8967 639.375 69.2462 638.944 69.2462H631.642C631.209 69.2462 630.86 69.5966 630.86 70.0283V84.8455C630.86 85.1535 630.92 85.4585 631.038 85.7431C631.156 86.0276 631.329 86.2861 631.547 86.5039C631.764 86.7217 632.023 86.8945 632.307 87.0123C632.592 87.1302 632.897 87.1909 633.205 87.1909H638.944C639.375 87.1909 639.725 87.5404 639.725 87.9722V93.3176C639.725 93.7493 639.375 94.0989 638.944 94.0989H628.718C628.205 94.099 627.696 93.9979 627.222 93.8015C626.748 93.6052 626.317 93.3173 625.954 92.9543C625.591 92.5913 625.303 92.1604 625.106 91.6862C624.91 91.2119 624.808 90.7035 624.808 90.1902V70.0283C624.808 69.5966 624.459 69.2462 624.027 69.2462H619.267C619.06 69.2462 618.861 69.164 618.714 69.0175C618.567 68.871 618.485 68.6722 618.485 68.465V64.1919C618.485 63.7602 618.835 63.4099 619.267 63.4099H624.027C624.459 63.4099 624.808 63.0603 624.808 62.6286V57.8712C624.808 57.4394 624.459 57.0891 624.027 57.0891H619.267C619.06 57.0891 618.861 57.0069 618.714 56.8604C618.567 56.7139 618.485 56.5151 618.485 56.3079V55.6887C618.485 55.533 618.423 55.3836 618.313 55.2735C618.203 55.1634 618.053 55.1015 617.898 55.1015H617.774C617.488 55.1015 617.226 54.9459 617.088 54.6949L616.213 53.0953C616.143 52.9676 616.11 52.8229 616.118 52.6776C616.126 52.5322 616.174 52.3919 616.257 52.2725C618.511 49.0377 620.005 46.2776 620.738 43.9923C621.455 41.7543 621.868 38.6439 621.977 34.6612C621.982 34.4578 622.067 34.2646 622.213 34.1227C622.359 33.9809 622.554 33.9014 622.758 33.9013H627.133V33.9013ZM673.258 36.8747C673.88 36.8747 674.477 37.1218 674.917 37.5616C675.357 38.0015 675.604 38.598 675.604 39.2201V64.286C675.604 64.7993 675.503 65.3077 675.306 65.782C675.11 66.2563 674.822 66.6873 674.459 67.0503C674.096 67.4133 673.665 67.7013 673.191 67.8978C672.717 68.0943 672.208 68.1954 671.695 68.1954H661.57C661.445 68.1954 661.321 68.2257 661.209 68.2836C661.098 68.3415 661.002 68.4254 660.93 68.5282C660.858 68.631 660.812 68.7496 660.795 68.8741C660.778 68.9986 660.792 69.1252 660.835 69.2433C661.492 71.0599 662.056 72.4277 662.526 73.3482C663.016 74.308 663.809 75.5625 664.903 77.1125C664.963 77.1972 665.039 77.2692 665.127 77.3242C665.215 77.3793 665.313 77.4163 665.415 77.4332C665.517 77.4501 665.622 77.4465 665.723 77.4226C665.823 77.3987 665.919 77.3549 666.002 77.294L672.542 72.5321C672.627 72.4702 672.724 72.4262 672.826 72.4026C672.929 72.3791 673.035 72.3765 673.139 72.395C673.243 72.4135 673.341 72.4528 673.43 72.5105C673.518 72.5682 673.593 72.643 673.652 72.7306L676.261 76.643C676.374 76.8121 676.416 77.0182 676.38 77.2179C676.343 77.4177 676.23 77.5953 676.064 77.7132L670.047 82.004C669.946 82.0756 669.864 82.17 669.807 82.2794C669.75 82.3887 669.72 82.5101 669.719 82.6334C669.717 82.7568 669.745 82.8786 669.8 82.989C669.855 83.0995 669.936 83.1954 670.035 83.2688C671.095 84.0536 672.15 84.8453 673.199 85.6439C674.286 86.4718 675.939 87.4805 678.157 88.6698C678.253 88.7211 678.337 88.7918 678.403 88.8773C678.47 88.9628 678.519 89.0613 678.545 89.1665C678.572 89.2716 678.576 89.3812 678.558 89.4882C678.54 89.5953 678.5 89.6974 678.441 89.7881L675.998 93.4997C675.775 93.8404 675.328 93.9515 674.97 93.756C669.022 90.5034 664.48 87.045 661.349 83.3814C658.201 79.7008 655.723 74.8249 653.913 68.7538C653.865 68.5924 653.766 68.4509 653.631 68.3503C653.496 68.2497 653.332 68.1954 653.164 68.1954H650.294C649.862 68.1954 649.511 68.545 649.511 68.9767V85.2306C649.511 85.8527 649.759 86.4492 650.198 86.889C650.638 87.3289 651.235 87.576 651.857 87.576H658.979C659.411 87.576 659.761 87.9263 659.761 88.358V93.3176C659.761 93.7493 659.411 94.0989 658.979 94.0989H647.693C646.656 94.0989 645.662 93.6871 644.929 92.954C644.196 92.221 643.784 91.2268 643.784 90.1902V37.656C643.784 37.2242 644.134 36.8739 644.566 36.8739H673.258V36.8747ZM710.213 55.1022L714.217 57.5476C714.584 57.7727 714.701 58.2518 714.478 58.6206C713.678 59.9403 713.016 60.9845 712.494 61.7518C711.887 62.6441 710.913 63.889 709.573 65.4871V93.3176C709.573 93.7493 709.223 94.0989 708.791 94.0989H704.062C703.855 94.0989 703.656 94.0166 703.509 93.8701C703.363 93.7236 703.28 93.5249 703.28 93.3176V93.3161L703.305 72.761C702.146 73.9422 701.157 74.8982 700.338 75.6292C699.627 76.2631 698.609 77.1155 697.283 78.1879C697.122 78.3182 696.915 78.379 696.709 78.3571C696.503 78.3351 696.314 78.2322 696.183 78.0708L696.17 78.0538L693.229 74.2006C693.109 74.043 693.053 73.8455 693.073 73.6482C693.093 73.4509 693.187 73.2685 693.336 73.1379C696.842 70.072 699.559 67.5215 701.488 65.4871C703.433 63.4358 705.989 60.0514 709.157 55.334C709.391 54.9859 709.856 54.8838 710.213 55.1022V55.1022ZM756.219 54.3202C756.622 54.3202 756.953 54.6253 756.996 55.0163L757 55.1015V60.7246C757 61.1275 756.695 61.4592 756.304 61.5022L756.219 61.5066H747.626V87.8448C747.626 89.471 746.992 91.0333 745.86 92.2003C744.727 93.3673 743.185 94.0472 741.559 94.0959L741.372 94.0989H727.791C727.388 94.0989 727.056 93.7938 727.013 93.4027L727.009 93.3176V88.2366C727.009 87.8329 727.314 87.5012 727.705 87.459L727.791 87.4545H737.808C738.611 87.4544 739.382 87.1459 739.963 86.5929C740.545 86.0399 740.891 85.2847 740.931 84.4834L740.935 84.3279V61.5066H719.176C718.772 61.5066 718.44 61.2015 718.398 60.8098L718.394 60.7246V55.1015C718.394 54.6986 718.699 54.3668 719.09 54.3246L719.176 54.3202H756.219V54.3202ZM468.23 74.3539L468.271 74.3688L472.548 76.0447C472.928 76.1928 473.129 76.6075 473.012 76.997L468.098 93.3672C467.976 93.7745 467.551 94.0093 467.141 93.896L462.276 92.557C462.174 92.5289 462.078 92.4804 461.996 92.4143C461.913 92.3482 461.844 92.266 461.794 92.1727C461.744 92.0793 461.714 91.9767 461.704 91.8712C461.695 91.7657 461.707 91.6594 461.741 91.5587L467.243 74.8516C467.378 74.4421 467.821 74.2192 468.23 74.3539V74.3539ZM487.131 34.6826C487.534 34.6826 487.865 34.9877 487.908 35.3788L487.913 35.4647V44.404C487.913 44.8069 488.217 45.1387 488.609 45.1816L488.694 45.186H491.744C492.147 45.186 492.478 45.4912 492.521 45.8822L492.526 45.9681V50.5966C492.526 51.0002 492.221 51.332 491.83 51.3742L491.744 51.3786H488.694C488.291 51.3786 487.96 51.6838 487.917 52.0748L487.913 52.1607V60.7342C487.913 60.8702 487.949 61.0038 488.016 61.1218C488.084 61.2398 488.181 61.3382 488.298 61.4072C488.415 61.4762 488.548 61.5135 488.684 61.5153C488.82 61.5172 488.954 61.4835 489.073 61.4177L489.15 61.3689L491.288 59.8322C491.399 59.7525 491.529 59.7032 491.665 59.6893C491.8 59.6754 491.938 59.6974 492.063 59.7531C492.187 59.8087 492.295 59.8961 492.376 60.0065C492.456 60.117 492.507 60.2466 492.521 60.3825L492.526 60.4676V65.6049C492.526 65.8226 492.435 66.0285 492.278 66.1751L492.207 66.2344L488.231 69.1581C488.144 69.2216 488.072 69.3021 488.019 69.3945C487.965 69.487 487.931 69.5896 487.918 69.6958L487.913 69.7884V89.7999C487.913 90.8088 487.523 91.7787 486.824 92.5066C486.126 93.2345 485.173 93.6642 484.165 93.7056L484.003 93.7086H476.528C476.125 93.7086 475.794 93.4042 475.751 93.0125L475.747 92.9273V88.4024C475.747 87.9996 476.051 87.6678 476.443 87.6256L476.528 87.6211H479.43C480.029 87.6212 480.606 87.3921 481.041 86.9807C481.476 86.5694 481.738 86.0071 481.772 85.4091L481.776 85.2758V74.3014C481.776 74.1596 481.737 74.0205 481.664 73.899C481.591 73.7775 481.486 73.6781 481.361 73.6114C481.236 73.5448 481.095 73.5135 480.954 73.5207C480.812 73.528 480.675 73.5735 480.558 73.6526L480.485 73.7082L478.157 75.7047C478.076 75.7737 477.983 75.8256 477.881 75.8572C477.78 75.8889 477.674 75.8997 477.568 75.889C477.463 75.8783 477.361 75.8462 477.268 75.7948C477.176 75.7434 477.094 75.6737 477.029 75.59L476.978 75.5144L474.637 71.6242C474.549 71.4766 474.511 71.3038 474.531 71.1326C474.55 70.9615 474.626 70.8016 474.746 70.6778L474.817 70.6126L481.485 65.2287C481.643 65.1013 481.744 64.9184 481.769 64.7199L481.776 64.62V52.1607C481.776 51.7578 481.471 51.4261 481.079 51.3831L480.994 51.3786H476.528C476.125 51.3786 475.794 51.0735 475.751 50.6825L475.747 50.5974V45.9681C475.747 45.5652 476.051 45.2335 476.443 45.1905L476.528 45.186H480.994C481.397 45.186 481.728 44.8809 481.771 44.4899L481.776 44.404V35.4647C481.776 35.0618 482.08 34.73 482.472 34.6871L482.557 34.6826H487.131V34.6826ZM578.509 73.7415H562.871C562.44 73.7415 562.089 74.0918 562.089 74.5235V81.8189C562.089 82.2506 562.44 82.6009 562.871 82.6009H578.508C578.94 82.6009 579.29 82.2506 579.29 81.8189V74.5235C579.29 74.0918 578.94 73.7415 578.508 73.7415H578.509ZM574.939 60.067H565.166C564.925 60.067 564.698 60.1781 564.552 60.3662L564.5 60.4402L560.473 67.0083C560.405 67.1206 560.366 67.2484 560.36 67.3799C560.354 67.5113 560.381 67.6422 560.439 67.7604C560.497 67.8785 560.584 67.9801 560.691 68.0558C560.799 68.1315 560.924 68.1787 561.055 68.1932L561.14 68.1984H579.71C579.847 68.1982 579.981 68.1624 580.099 68.0945C580.217 68.0266 580.315 67.929 580.384 67.8114C580.453 67.6937 580.49 67.5601 580.491 67.4238C580.493 67.2874 580.458 67.1531 580.392 67.0342L580.343 66.9572L575.571 60.3884C575.499 60.2887 575.403 60.2077 575.294 60.1518C575.184 60.096 575.062 60.0669 574.939 60.067V60.067ZM466.469 54.0869L466.527 54.158L472.765 62.8078C472.877 62.9623 472.928 63.1521 472.909 63.3417C472.89 63.5312 472.803 63.7074 472.664 63.8372L472.594 63.8957L468.532 66.875C468.378 66.9878 468.189 67.0406 467.999 67.0232C467.809 67.0059 467.632 66.9197 467.501 66.7809L467.442 66.7113L461.238 58.3666C461.128 58.2183 461.074 58.0359 461.086 57.8515C461.097 57.6672 461.174 57.4929 461.301 57.3595L461.372 57.2943L465.398 54.0091C465.553 53.883 465.75 53.8208 465.949 53.8352C466.148 53.8497 466.334 53.9397 466.469 54.0869V54.0869ZM668.406 55.0267H650.202C649.77 55.0267 649.42 55.3762 649.42 55.808V61.7962C649.42 62.2279 649.77 62.5775 650.202 62.5775H668.406C668.612 62.5776 668.815 62.5372 669.005 62.4587C669.194 62.3802 669.367 62.265 669.512 62.1198C669.657 61.9747 669.773 61.8023 669.851 61.6126C669.93 61.4229 669.97 61.2195 669.97 61.0142V56.59C669.97 56.3847 669.93 56.1813 669.851 55.9916C669.773 55.8019 669.657 55.6295 669.512 55.4843C669.367 55.3391 669.194 55.224 669.005 55.1455C668.815 55.067 668.612 55.0266 668.406 55.0267V55.0267ZM708.395 35.3617C708.406 35.3676 708.419 35.3743 708.431 35.3817L713.107 38.0544C713.478 38.2662 713.61 38.735 713.405 39.109C710.599 44.2292 708.323 47.9735 706.574 50.3396C704.826 52.7058 702.103 55.7324 698.402 59.4212C698.267 59.5562 698.087 59.6369 697.896 59.6482C697.705 59.6596 697.517 59.6007 697.367 59.4827L693.474 56.4219C693.387 56.3539 693.316 56.2684 693.265 56.171C693.213 56.0736 693.183 55.9666 693.176 55.8568C693.169 55.7469 693.186 55.6369 693.224 55.5338C693.263 55.4307 693.322 55.3369 693.4 55.2585C696.807 51.803 699.366 48.9044 701.077 46.5643C702.803 44.2019 704.892 40.5834 707.344 35.709C707.538 35.3232 708.009 35.1677 708.395 35.3617V35.3617ZM580.14 45.4541H561.529C561.397 45.4542 561.268 45.4873 561.153 45.5506C561.037 45.6138 560.94 45.7051 560.869 45.816C560.799 45.9268 560.757 46.0537 560.748 46.1849C560.74 46.3161 560.764 46.4473 560.82 46.5665L560.864 46.6472L564.87 53.1271C564.996 53.3315 565.209 53.4656 565.445 53.4922L565.534 53.4974H576.178C576.42 53.4974 576.647 53.3863 576.794 53.1975L576.846 53.1234L580.806 46.6435C580.879 46.525 580.918 46.3894 580.921 46.2507C580.923 46.1119 580.889 45.9749 580.821 45.8539C580.753 45.7328 580.654 45.632 580.535 45.5617C580.415 45.4915 580.279 45.4543 580.14 45.4541V45.4541ZM668.406 42.7881H650.202C649.77 42.7881 649.42 43.1384 649.42 43.5702V49.5576C649.42 49.9894 649.77 50.3396 650.202 50.3396H668.406C668.612 50.3397 668.815 50.2994 669.005 50.2209C669.194 50.1423 669.367 50.0272 669.512 49.882C669.657 49.7368 669.773 49.5645 669.851 49.3748C669.93 49.185 669.97 48.9817 669.97 48.7763V44.3522C669.97 44.1468 669.93 43.9433 669.851 43.7535C669.773 43.5637 669.658 43.3913 669.512 43.246C669.367 43.1007 669.195 42.9855 669.005 42.907C668.815 42.8284 668.612 42.788 668.406 42.7881V42.7881ZM466.47 36.7258L466.528 36.7969L472.766 45.4467C472.878 45.6013 472.929 45.7913 472.91 45.981C472.892 46.1707 472.804 46.347 472.665 46.4769L472.594 46.5346L468.533 49.5139C468.379 49.6268 468.189 49.6795 467.999 49.6622C467.809 49.6449 467.632 49.5587 467.501 49.4199L467.443 49.3503L461.239 41.0063C461.129 40.858 461.075 40.6753 461.086 40.4908C461.098 40.3063 461.174 40.1319 461.302 39.9984L461.373 39.934L465.399 36.6488C465.554 36.5226 465.751 36.4602 465.95 36.4745C466.149 36.4889 466.335 36.5788 466.47 36.7258V36.7258ZM754.356 38.5921C754.788 38.5921 755.137 38.9416 755.137 39.3734V44.8461C755.137 45.2779 754.788 45.6282 754.356 45.6282H719.176C718.968 45.6282 718.769 45.5458 718.623 45.3991C718.476 45.2525 718.394 45.0535 718.394 44.8461V39.3734C718.394 38.9416 718.744 38.5921 719.176 38.5921H754.356Z" fill="black"/>
</svg>
