<svg width="570" height="128" viewBox="0 0 570 128" fill="none" xmlns="http://www.w3.org/2000/svg">
<path d="M69.0457 99.254L78.1543 108.374C74.4485 111.862 69.4597 114 63.9854 114C58.518 114 53.5293 111.862 49.8166 108.374L58.93 99.254C62.2232 98.2241 65.7524 98.2241 69.0457 99.254ZM88.2075 69.977C91.5 68.9481 95.0278 68.9466 98.3211 69.9728L107.447 79.0904C103.726 82.5786 98.742 84.7161 93.2667 84.7161C87.7908 84.7161 82.8026 82.5786 79.0888 79.0835C82.5781 82.8073 84.7172 87.7882 84.7172 93.2646C84.7172 98.7394 82.5765 103.731 79.0878 107.445L69.9744 98.3248C68.9427 95.0287 68.9427 91.4961 69.9744 88.2001L79.0878 79.0825L79.0888 79.0835L88.2075 69.977ZM39.7835 70.0077L48.8741 79.0968L48.8879 79.0819L57.9965 88.1996C59.0241 91.4944 59.0281 95.0234 58.0082 98.3206L48.8879 107.438C45.4013 103.731 43.2532 98.7388 43.2532 93.2646C43.2532 87.9687 45.2599 83.1372 48.5427 79.4595C44.8766 82.7491 40.0255 84.7532 34.7233 84.7532C29.2617 84.7532 24.2724 82.6136 20.5639 79.128L29.6784 70.0077C32.9691 68.9847 36.4928 68.9847 39.7835 70.0077V70.0077ZM58.9538 40.7223C62.2456 39.6995 65.7703 39.6995 69.0621 40.7223L78.1485 49.8171L78.1601 49.8049L87.283 58.9231C88.3058 62.2165 88.3058 65.7427 87.283 69.0361L78.1601 78.1612C74.673 74.4469 72.5355 69.4576 72.5355 63.9812C72.5355 58.6562 74.5591 53.7824 77.8811 50.1078C74.2076 53.4377 69.3353 55.4725 64.0024 55.4725C58.535 55.4725 53.5457 53.3281 49.8335 49.8409L49.8404 49.8478C53.3207 53.5611 55.464 58.5498 55.464 64.0162C55.464 69.3109 53.4583 74.152 50.1766 77.8239C53.848 74.5369 58.6928 72.5275 63.9854 72.5275C69.4597 72.5275 74.4485 74.6719 78.1543 78.1596L69.0457 87.2772C65.7541 88.3025 62.2285 88.3025 58.9369 87.2772L49.8468 78.1834L49.8335 78.1988L40.7191 69.0737C39.6941 65.7828 39.6941 62.258 40.7191 58.967L49.8335 49.8404L58.9538 40.7223ZM19.6236 49.8399L28.7402 58.9607C29.765 62.2538 29.765 65.7806 28.7402 69.0737L19.6236 78.1993C16.137 74.4839 14 69.4926 14 64.0162C14 58.5466 16.137 53.5499 19.6231 49.8404L19.6236 49.8399ZM108.368 49.8049C111.853 53.5129 114 58.509 114 63.9812C114 69.4576 111.853 74.4469 108.368 78.1612L99.2572 69.0367C98.2321 65.7434 98.2321 62.2163 99.2572 58.9231L108.368 49.8055V49.8049ZM34.7238 43.2812C40.2028 43.2812 45.199 45.4256 48.9054 48.9133L39.7909 58.0315C36.4982 59.0567 32.9716 59.0567 29.6789 58.0315L20.5597 48.9138C24.2729 45.4262 29.2622 43.2818 34.7233 43.2818L34.7238 43.2812ZM79.1047 20.5602C82.594 24.2677 84.7347 29.2649 84.7347 34.7339C84.7347 40.0615 82.7062 44.9316 79.3811 48.6126C83.0583 45.2821 87.9311 43.2436 93.2672 43.2436C98.7425 43.2436 103.727 45.3901 107.447 48.8762L98.329 57.9939C95.0333 59.0192 91.5038 59.0192 88.208 57.9939L79.1174 48.8985L79.1052 48.9117L69.9913 39.7888C68.9596 36.4971 68.9596 32.9685 69.9913 29.6768L79.1052 20.5602H79.1047ZM48.9048 20.5602L58.014 29.6768C59.0433 32.9711 59.0433 36.5009 58.014 39.7951L48.9048 48.9117C45.4187 45.1979 43.2712 40.2071 43.2712 34.7339C43.2712 29.2649 45.4187 24.2677 48.9048 20.5602V20.5602ZM64.0024 14C69.4761 14 74.4702 16.1444 78.1781 19.6315L69.0621 28.7476C65.7688 29.7761 62.2402 29.7761 58.9469 28.7476L49.833 19.6315C53.5457 16.1439 58.535 14 64.0019 14H64.0024Z" fill="#A72226"/>
<path d="M149.697 86.2677V87.9758L141.662 97.9951L140.788 99.0106H149.936V100.721H138.608V98.9434L145.946 89.686C146.47 89.0284 146.964 88.4565 147.434 87.9758H139.437V86.2677H149.696H149.697ZM335.097 86.2677C336.381 86.2677 337.538 86.5732 338.563 87.1911C339.595 87.8085 340.377 88.6667 340.921 89.7717C341.463 90.872 341.732 92.1226 341.732 93.5247C341.732 94.9331 341.445 96.1975 340.874 97.3205C340.315 98.4388 339.503 99.2854 338.465 99.8562C337.433 100.428 336.272 100.726 335.092 100.721C333.785 100.721 332.619 100.402 331.591 99.7662C330.56 99.1329 329.779 98.2678 329.246 97.1696C328.721 96.063 328.451 94.9061 328.451 93.6819C328.451 91.366 329.07 89.5467 330.312 88.231C331.551 86.9258 333.149 86.2677 335.097 86.2677V86.2677ZM385.49 86.2677C386.77 86.2677 387.925 86.5732 388.958 87.1911C389.986 87.8085 390.773 88.6667 391.317 89.7717C391.855 90.872 392.123 92.1226 392.123 93.5247C392.123 94.9331 391.837 96.1975 391.271 97.3205C390.704 98.4388 389.899 99.2854 388.86 99.8562C387.825 100.429 386.661 100.726 385.479 100.721C384.176 100.721 383.003 100.402 381.977 99.7662C380.949 99.1329 380.162 98.2678 379.635 97.1696C379.11 96.0821 378.839 94.8896 378.841 93.6819C378.841 91.366 379.453 89.5467 380.697 88.231C381.935 86.9258 383.534 86.2677 385.49 86.2677V86.2677ZM187.045 86.2677V95.9539C187.045 97.1447 186.897 98.0655 186.592 98.7167C186.29 99.368 185.81 99.8657 185.161 100.211C184.504 100.554 183.734 100.721 182.85 100.721C181.547 100.721 180.544 100.362 179.847 99.6444C179.153 98.927 178.813 97.8691 178.844 96.4501L180.626 96.2171C180.676 97.2999 180.889 98.0406 181.271 98.4494C181.647 98.8423 182.175 99.0461 182.845 99.0461C183.339 99.0461 183.767 98.9386 184.124 98.7236C184.488 98.5018 184.73 98.2095 184.868 97.8373C185.001 97.4667 185.077 96.8752 185.077 96.0614V86.2677H187.045V86.2677ZM544.718 86.2677V93.4336L551.521 86.2677H553.978L548.232 92.1258L554.231 100.721H551.838L546.958 93.4087L544.718 95.7088V100.721H542.903V86.2677H544.718ZM370.704 86.2677C372.206 86.2677 373.462 86.6208 374.491 87.333C375.517 88.0456 376.228 89.0458 376.631 90.3383L374.673 90.7698C374.327 89.7516 373.821 89.0098 373.158 88.5449C372.495 88.0864 371.663 87.8524 370.658 87.8524C369.505 87.8524 368.543 88.1087 367.761 88.6212C367.004 89.1168 366.429 89.8472 366.127 90.7005C365.817 91.5606 365.657 92.4675 365.654 93.3817C365.654 94.5709 365.842 95.6071 366.214 96.4882C366.587 97.3782 367.174 98.0417 367.95 98.4843C368.732 98.9185 369.613 99.1437 370.508 99.1382C371.62 99.1382 372.557 98.8369 373.329 98.2434C374.105 97.6483 374.624 96.7603 374.902 95.5822L376.888 96.0482C376.466 97.5651 375.721 98.7247 374.643 99.5253C373.556 100.318 372.232 100.721 370.667 100.721C369.052 100.721 367.731 100.413 366.72 99.7969C365.705 99.1901 364.933 98.2953 364.403 97.1357C363.872 95.9709 363.607 94.724 363.607 93.3886C363.607 91.9299 363.903 90.6645 364.509 89.5811C365.104 88.4973 365.956 87.6681 367.055 87.1085C368.159 86.5509 369.372 86.2677 370.704 86.2677V86.2677ZM531.184 86.2677L538.734 97.6117V86.2677H540.56V100.721H538.603L531.057 89.363V100.721H529.232V86.2677H531.184ZM522.64 86.2677L528.451 100.721H526.311L524.659 96.341H518.724L517.161 100.721H515.169L520.619 86.2677H522.64ZM508.886 86.2677C509.914 86.2677 510.739 86.4143 511.362 86.7045C511.977 87.0042 512.47 87.4458 512.816 88.0547C513.16 88.6322 513.341 89.2922 513.34 89.9645C513.344 90.5769 513.184 91.1791 512.878 91.7097C512.567 92.2513 512.098 92.6971 511.463 93.0317C512.282 93.2875 512.906 93.7243 513.34 94.338C513.777 94.958 513.997 95.6903 513.997 96.529C513.997 97.2051 513.868 97.8304 513.602 98.416C513.336 98.999 513.006 99.4474 512.617 99.7588C512.222 100.075 511.729 100.312 511.141 100.477C510.547 100.635 509.823 100.721 508.97 100.721H503.841V86.2677H508.886V86.2677ZM311.817 86.2677V87.9758L303.774 97.9951L302.897 99.0106H312.045V100.721H300.717V98.9434L308.058 89.686C308.582 89.0284 309.077 88.4565 309.546 87.9758H301.554V86.2677H311.817V86.2677ZM481.235 86.2677L487.044 100.721H484.903L483.251 96.341H477.317L475.761 100.721H473.763L479.214 86.2677H481.235V86.2677ZM471.927 86.2677V100.721H469.74V86.2677H471.927ZM446.46 86.2677C447.803 86.2677 448.824 86.4027 449.521 86.6558C450.222 86.9184 450.781 87.3737 451.199 88.0314C451.613 88.6816 451.83 89.4377 451.824 90.2086C451.824 91.2379 451.482 92.0999 450.786 92.7993C450.096 93.5062 449.02 93.9568 447.581 94.1447C448.108 94.3888 448.507 94.6329 448.78 94.8627C449.368 95.3742 449.917 96.018 450.438 96.7847L453.06 100.721H450.554L448.551 97.7092C447.975 96.8451 447.493 96.1827 447.118 95.7204C446.739 95.2624 446.405 94.9421 446.107 94.7536C445.826 94.5775 445.518 94.4481 445.195 94.3703C444.966 94.3284 444.598 94.303 444.087 94.303H441.774V100.721H439.778V86.2677H446.46V86.2677ZM397.24 86.2677L400.535 96.4988C400.839 97.454 401.06 98.165 401.198 98.6389C401.359 98.1158 401.606 97.3444 401.939 96.3219L405.273 86.2677H407.747V100.721H405.975V88.6217L401.932 100.721H400.271L396.239 88.4216V100.721H394.467V86.2677H397.24V86.2677ZM153.018 86.2677V92.2047H160.523V86.2677H162.436V100.721H160.523V93.9012H153.017V100.721H151.108V86.2677H153.017H153.018ZM490.593 86.2677V99.0106H497.982V100.721H488.607V86.2677H490.593V86.2677ZM251.162 86.2677C252.665 86.2677 253.934 86.6208 254.962 87.333C255.982 88.0456 256.696 89.0458 257.099 90.3383L255.14 90.7698C254.795 89.7516 254.293 89.0098 253.625 88.5449C252.962 88.0864 252.132 87.8524 251.126 87.8524C249.97 87.8524 249.003 88.1087 248.226 88.6212C247.449 89.1337 246.906 89.8284 246.59 90.7005C246.279 91.5602 246.121 92.4676 246.122 93.3817C246.122 94.5709 246.305 95.6071 246.677 96.4882C247.051 97.3782 247.632 98.0417 248.414 98.4843C249.194 98.9179 250.073 99.1431 250.966 99.1382C252.086 99.1382 253.024 98.8369 253.796 98.2434C254.573 97.6483 255.101 96.7603 255.369 95.5822L257.358 96.0482C256.94 97.5651 256.19 98.7247 255.104 99.5253C254.023 100.318 252.699 100.721 251.13 100.721C249.514 100.721 248.194 100.413 247.184 99.7969C246.168 99.1901 245.398 98.2953 244.865 97.1357C244.337 95.9709 244.076 94.724 244.076 93.3886C244.076 91.9299 244.366 90.6645 244.966 89.5811C245.567 88.4973 246.419 87.6681 247.519 87.1085C248.624 86.5509 249.842 86.2677 251.162 86.2677V86.2677ZM229.393 86.2677C230.432 86.2677 231.368 86.4318 232.205 86.7558C233.051 87.0862 233.707 87.5379 234.185 88.1272C234.655 88.7096 235.024 89.4758 235.27 90.4108L233.557 90.8694C233.341 90.1572 233.074 89.5997 232.748 89.1973C232.431 88.7859 231.976 88.4618 231.377 88.2146C230.787 87.9694 230.125 87.8503 229.406 87.8503C228.538 87.8503 227.781 87.9784 227.155 88.2326C226.516 88.4909 226.009 88.833 225.615 89.2507C225.237 89.6567 224.931 90.1245 224.711 90.6337C224.349 91.4989 224.163 92.434 224.163 93.4485C224.163 94.689 224.384 95.7369 224.826 96.5798C225.269 97.4137 225.908 98.0321 226.751 98.4435C227.585 98.8498 228.502 99.0597 229.43 99.0572C230.25 99.0572 231.059 98.8978 231.845 98.5849C232.627 98.2794 233.219 97.9559 233.624 97.6028V95.0014H229.406V93.36L235.482 93.3537V98.5378C234.547 99.2616 233.588 99.8101 232.599 100.174C231.62 100.536 230.584 100.721 229.54 100.721C228.132 100.721 226.848 100.429 225.695 99.8398C224.543 99.2505 223.674 98.4028 223.089 97.2903C222.503 96.1774 222.201 94.9299 222.201 93.5586C222.201 92.2005 222.496 90.9281 223.082 89.7522C223.667 88.5698 224.506 87.693 225.606 87.1265C226.696 86.5509 227.964 86.2677 229.393 86.2677V86.2677ZM437.127 86.2677V87.9758H429.081V92.3974H436.607V94.096H429.081V99.0106H437.435V100.721H427.279V86.2677H437.127ZM201.943 86.2677L207.748 100.721H205.613L203.953 96.341H198.018L196.459 100.721H194.467L199.921 86.2677H201.943ZM345.593 86.2677V94.4693C345.593 95.7003 345.716 96.61 345.945 97.1971C346.174 97.7849 346.574 98.2323 347.143 98.55C347.707 98.8656 348.397 99.0276 349.22 99.0276C350.628 99.0276 351.616 98.7099 352.217 98.0814C352.811 97.4598 353.107 96.251 353.107 94.4688V86.2677H355.014V94.4756C355.014 95.9037 354.852 97.042 354.523 97.8781C354.197 98.7215 353.602 99.4046 352.749 99.9303C351.898 100.456 350.776 100.721 349.384 100.721C348.04 100.721 346.933 100.492 346.076 100.031C345.219 99.5714 344.601 98.9137 344.238 98.0401C343.867 97.1675 343.685 95.9815 343.685 94.4756V86.2677H345.593V86.2677ZM192.631 86.2677V100.721H190.444V86.2677H192.631V86.2677ZM412.473 86.2677L415.764 96.4988C416.07 97.454 416.291 98.165 416.432 98.6389C416.588 98.1158 416.836 97.3444 417.173 96.3219L420.502 86.2677H422.982V100.721H421.204V88.6217L417.162 100.721H415.496L411.472 88.4216V100.721H409.701V86.2677H412.473V86.2677ZM278.46 86.2677C279.745 86.2677 280.9 86.5732 281.929 87.1911C282.961 87.8085 283.745 88.6667 284.286 89.7717C284.824 90.872 285.092 92.1226 285.092 93.5247C285.092 94.9331 284.813 96.1975 284.246 97.3205C283.675 98.4388 282.868 99.2854 281.831 99.8562C280.797 100.429 279.634 100.727 278.453 100.721C277.146 100.721 275.973 100.402 274.945 99.7662C273.928 99.1488 273.116 98.2457 272.609 97.1696C272.081 96.0828 271.808 94.8901 271.81 93.6819C271.81 91.366 272.428 89.5467 273.664 88.231C274.904 86.9258 276.504 86.2677 278.46 86.2677V86.2677ZM315.911 86.2677V92.2047H323.415V86.2677H325.326V100.721H323.415V93.9012H315.911V100.721H313.998V86.2677H315.911ZM209.701 86.2677L217.257 97.6117V86.2677H219.076V100.721H217.13L209.574 89.363V100.721H207.748V86.2677H209.702H209.701ZM176.574 86.2677V87.9758H168.529V92.3974H176.058V94.096H168.529V99.0106H176.889V100.721H166.732V86.2677H176.573H176.574ZM290.122 86.2677V94.4693C290.122 95.7003 290.238 96.61 290.474 97.1971C290.71 97.7849 291.099 98.2323 291.674 98.55C292.241 98.8656 292.928 99.0276 293.744 99.0276C295.148 99.0276 296.147 98.7099 296.747 98.0814C297.341 97.4598 297.637 96.251 297.637 94.4688V86.2677H299.545V94.4756C299.545 95.9037 299.381 97.042 299.055 97.8781C298.721 98.7215 298.134 99.4046 297.281 99.9303C296.427 100.456 295.306 100.721 293.918 100.721C292.565 100.721 291.464 100.492 290.601 100.031C289.741 99.5714 289.13 98.9137 288.767 98.0401C288.397 97.1675 288.217 95.9815 288.217 94.4756V86.2677H290.123H290.122ZM260.052 86.2677V92.2047H267.561V86.2677H269.467V100.721H267.561V93.9012H260.052V100.721H258.139V86.2677H260.052ZM460.155 86.2677C461.657 86.2677 462.92 86.6208 463.95 87.333C464.971 88.0456 465.678 89.0458 466.081 90.3383L464.131 90.7698C463.786 89.7516 463.272 89.0098 462.616 88.5449C461.946 88.0864 461.122 87.8524 460.117 87.8524C458.962 87.8524 457.997 88.1087 457.221 88.6212C456.445 89.1337 455.903 89.8284 455.586 90.7005C455.273 91.5598 455.113 92.4671 455.111 93.3817C455.111 94.5709 455.302 95.6071 455.673 96.4882C456.04 97.3782 456.628 98.0417 457.405 98.4843C458.186 98.9173 459.066 99.1424 459.96 99.1382C461.071 99.1382 462.016 98.8369 462.787 98.2434C463.557 97.6483 464.082 96.7603 464.352 95.5822L466.341 96.0482C465.924 97.5651 465.172 98.7247 464.094 99.5253C463.007 100.318 461.683 100.721 460.123 100.721C458.501 100.721 457.19 100.413 456.179 99.7969C455.162 99.1901 454.393 98.2953 453.856 97.1357C453.326 95.9579 453.054 94.6802 453.06 93.3886C453.06 91.9299 453.364 90.6645 453.964 89.5811C454.562 88.4973 455.411 87.6681 456.515 87.1085C457.619 86.5509 458.829 86.2677 460.155 86.2677V86.2677ZM278.471 87.8624C277.173 87.8624 276.049 88.3141 275.114 89.2073C274.173 90.1085 273.706 91.6064 273.706 93.7111C273.706 95.3932 274.155 96.7206 275.054 97.6864C275.955 98.6569 277.088 99.1398 278.442 99.1398C279.825 99.1398 280.965 98.65 281.858 97.6753C282.752 96.6915 283.202 95.3032 283.202 93.5109C283.202 92.3699 283.008 91.3819 282.629 90.5353C282.243 89.6839 281.69 89.0262 280.954 88.5608C280.211 88.0959 279.388 87.8619 278.471 87.8619V87.8624ZM335.11 87.8624C333.809 87.8624 332.694 88.3141 331.754 89.2073C330.816 90.1085 330.343 91.6064 330.343 93.7111C330.343 95.3932 330.791 96.7206 331.696 97.6864C332.601 98.6569 333.726 99.1398 335.086 99.1398C336.463 99.1398 337.606 98.65 338.494 97.6753C339.392 96.6915 339.836 95.3032 339.836 93.5109C339.836 92.3699 339.644 91.3819 339.263 90.5353C338.879 89.6839 338.324 89.0262 337.589 88.5608C336.853 88.0959 336.027 87.8619 335.111 87.8619L335.11 87.8624ZM385.497 87.8624C384.201 87.8624 383.079 88.3141 382.14 89.2073C381.205 90.1085 380.732 91.6064 380.732 93.7111C380.732 95.3932 381.183 96.7206 382.08 97.6864C382.985 98.6569 384.114 99.1398 385.472 99.1398C386.857 99.1398 387.994 98.65 388.884 97.6753C389.783 96.6915 390.225 95.3032 390.225 93.5109C390.225 92.3699 390.04 91.3819 389.654 90.5353C389.275 89.6839 388.715 89.0262 387.979 88.5608C387.243 88.0959 386.413 87.8619 385.497 87.8619V87.8624ZM508.726 94.0404H505.621V99.0106H508.97C509.54 99.0106 509.948 98.9921 510.18 98.9434C510.593 98.864 510.932 98.7295 511.208 98.5553C511.487 98.3668 511.711 98.0973 511.889 97.7468C512.063 97.3936 512.159 96.9912 512.159 96.529C512.159 95.9942 512.022 95.5203 511.764 95.1232C511.51 94.7208 511.155 94.4492 510.7 94.2845C510.242 94.1262 509.586 94.0404 508.725 94.0404H508.726ZM200.887 87.7873C200.701 88.7233 200.445 89.6445 200.124 90.5432L198.561 94.7843H203.374L201.895 90.7804C201.444 89.5695 201.108 88.5656 200.888 87.7873H200.887ZM480.185 87.7873C479.998 88.7237 479.741 89.6449 479.417 90.5432L477.855 94.7843H482.666L481.187 90.7804C480.734 89.5695 480.401 88.5656 480.185 87.7873V87.7873ZM521.592 87.7873C521.404 88.7238 521.147 89.645 520.822 90.5432L519.266 94.7843H524.073L522.595 90.7804C522.141 89.5695 521.806 88.5656 521.592 87.7873ZM446.543 87.8667H441.774V92.6484H446.056C446.966 92.6484 447.682 92.5558 448.195 92.3742C448.708 92.1931 449.102 91.9071 449.368 91.51C449.629 91.1263 449.769 90.6727 449.767 90.2086C449.767 89.5277 449.506 88.968 448.993 88.5312C448.48 88.0869 447.658 87.8661 446.543 87.8661V87.8667ZM508.309 87.9758H505.621V92.344H508.523C509.32 92.344 509.882 92.2815 510.228 92.1745C510.683 92.0279 511.018 91.7912 511.249 91.4491C511.48 91.115 511.595 90.7015 511.595 90.1901C511.595 89.7162 511.487 89.2883 511.271 88.9193C511.067 88.5669 510.741 88.302 510.355 88.1754C509.953 88.043 509.274 87.9758 508.309 87.9758ZM186.056 32.3911V36.251C183.124 37.0616 180.252 37.4704 177.459 37.4704H170.752V45.4745H186.264V48.9278H181.654V78.065H176.83V48.9278H170.752V61.0131C171.305 69.5388 168.514 75.2212 162.36 78.0645V74.6112C165.012 72.3122 166.201 68.1833 165.921 62.2304V34.0166H176.408C179.623 34.0166 182.837 33.4792 186.056 32.3911V32.3911ZM375.238 31.5804V34.5778H395.248V38.1454H384.332C384.556 40.3645 383.459 43.5096 382.511 45.2479H392.215V71.8288C392.349 76.1149 390.198 78.1931 385.749 78.0586H381.306V74.6451H383.928C386.079 74.6451 387.089 73.8376 386.961 72.2269V49.1019H356.643V77.8193H351.59V45.2479H361.5C360.69 44.0423 359.596 41.0671 359.677 38.1454H348.764V34.5778H369.175V31.5804H375.238V31.5804ZM556.185 46.9237V50.5533H547.794V71.8049C547.794 76.1096 545.628 78.1889 541.293 78.0592H534.379V74.4296H538.989C541.092 74.5593 542.061 73.6894 541.929 71.8049V50.5533H525.986V46.9237H556.185V46.9237ZM499.139 33.1456V49.6484C499.277 53.9822 497.058 56.1414 492.487 56.1414H478.976V71.9733C480.773 71.4359 483.056 70.4855 485.832 69.13V72.992C481.811 75.1555 477.793 76.8472 473.771 78.0645V33.1456H499.138H499.139ZM310.112 31.5804V59.2282C310.659 67.5559 306.571 73.8313 297.852 78.0645V74.3782C302.893 70.288 305.281 65.5762 305.007 60.2491V31.5804H310.112ZM289.366 32.9481V71.9654C289.635 76.1445 287.548 78.1004 283.103 77.8352H279.662V74.3936H282.09C284.249 74.5312 285.255 73.6507 285.124 71.7647V36.8016H265.914V62.4919C266.321 69.7754 263.822 74.9659 258.434 78.065V74.4232C260.723 72.1322 261.799 68.6974 261.671 64.1058V32.9486H289.366L289.366 32.9481ZM524.316 44.0814C523.189 47.576 521.517 50.4659 519.278 52.749V77.9469H514.034V56.5777C512.224 57.383 510.121 58.128 507.747 58.7962V55.7729C513.201 53.7513 516.834 49.8596 518.651 44.0809H524.316V44.0814ZM259.446 32.7522V36.6015C257.822 37.1363 256.343 37.4089 254.994 37.4089V44.2424H260.051V47.684H254.994C255.794 51.8907 257.423 55.3456 259.847 59.2505V64.1058C257.957 61.9453 256.329 59.57 254.994 57.0288V77.8643H250.143V59.2505C249.06 62.0843 247.039 65.456 244.076 69.3677V64.7131C246.504 60.2655 248.957 54.661 250.143 47.684H244.68V44.2424H250.143V37.6096H245.087V33.9679H252.367C254.795 33.9679 257.153 33.5602 259.446 32.7522V32.7522ZM340.56 31.5804V77.8622H335.455V31.5804H340.56V31.5804ZM470.03 45.5174V48.7631H465.254V56.4829H471.076V59.9425H465.254V71.5672C467.271 70.7852 469.218 69.8355 471.076 68.7281V72.5833C467.466 74.7467 463.869 76.4384 460.266 77.6557V59.9425H454.444V56.4824H460.266V48.7626H455.69V45.5174H470.03H470.03ZM159.005 31.581V38.1036H163.615V41.5542H159.005V52.4223C159.779 52.2371 160.547 52.0338 161.311 51.8124C162.292 51.5482 163.061 51.3469 163.615 51.205V54.4571C161.938 55.2677 160.403 55.8756 159.005 56.2774V72.3826C159.005 75.8968 157.116 77.6562 153.347 77.6562H149.567V74.4105H151.663C153.347 74.4105 154.109 73.7312 153.966 72.3826V57.9035C152.216 58.2164 150.47 58.5553 148.73 58.9201V54.4571C150.495 54.3289 152.247 54.0562 153.967 53.6417V41.5542H148.938V38.1036H153.967V31.5804H159.005V31.581ZM487.707 58.1703C488.672 61.1492 489.779 63.5858 491.03 65.4761C493.944 63.8506 495.947 61.4224 497.058 58.1703H501.84C500.316 62.7752 497.33 66.0861 492.906 68.1192C495.114 70.4204 498.376 72.5182 502.669 74.411V77.6567C492.136 74.5466 485.488 68.0557 482.719 58.1703H487.707V58.1703ZM146.846 57.3618C146.138 65.6143 144.815 72.2471 142.858 77.2501H137.826C140.346 71.3009 141.952 64.6676 142.651 57.3618H146.846V57.3618ZM325.438 32.3985V76.4262H320.333V32.3985H325.438ZM202.832 56.1244C202.145 64.4807 200.34 70.118 197.783 75.7205H192.123C195.552 69.2831 197.136 65.0599 198.189 56.1244H202.832H202.832ZM421.627 30.4087V70.6798H429.386V30.4087H434.83V70.6798H449.935V74.5492H401.498V70.6798H416.169V30.4087H421.627V30.4087ZM236.585 33.6936V37.5879H224.461V69.3857H238.607V73.2663H204.453V69.3852H218.601V37.5879H206.875V33.6936H236.585V33.6936ZM370.186 50.073C368.569 53.9673 366.077 56.7074 362.71 58.3202H380.895C377.528 56.7074 375.035 53.9673 373.419 50.073H378.473C379.82 53.1599 382.376 55.5018 386.155 57.1124V60.3264C384.543 59.7125 382.926 59.1095 381.305 58.5171V65.7551C381.436 69.9073 379.485 71.9225 375.446 71.7859H362.506V58.5171C361.159 59.0562 359.472 59.6603 357.457 60.3269V57.1124C361.223 55.5018 363.785 53.1599 365.13 50.073H370.186H370.186ZM281.886 57.4296V65.3209C282.021 69.5028 280.131 71.5238 276.228 71.3888H268.948V57.4301H281.886V57.4296ZM377.056 61.5346H366.953V68.5714H374.229C376.252 68.5714 377.193 67.6369 377.056 65.7557V61.5346V61.5346ZM278.451 60.6705H272.589V68.1547H275.623C277.504 68.1547 278.451 67.2811 278.451 65.5259V60.6705H278.451ZM408.204 37.3639C408.901 45.2707 410.084 52.8861 412.041 59.5618H407.216C405.12 53.566 403.804 45.9505 402.96 37.3639H408.204ZM448.262 37.3639C447.277 45.9505 445.965 53.566 444.009 59.5618H439.191C441.283 52.0644 442.453 44.4494 443.017 37.3639H448.262ZM316.055 43.2306C317.414 48.5508 318.215 52.1348 318.901 56.2271H314.817C314.538 51.725 314.009 48.1452 312.786 43.2306H316.055ZM330.977 43.2306C332.466 47.872 333.342 51.456 334.023 56.2271H329.937C329.526 51.456 328.931 47.872 327.701 43.2306H330.977V43.2306ZM302.744 43.176C302.031 48.5693 301.466 52.0051 300.51 56.2277H296.42C298.056 51.0436 299.078 47.7624 299.475 43.176H302.744V43.176ZM277.645 38.8227V43.1305H282.672V46.5827H277.645V51.0012H283.708V54.7017H267.326V51.0012H273.393V46.5832H268.337V43.1305H273.393V38.8227H277.645ZM143.485 44.02C145.024 47.1185 146.137 51.3988 146.846 53.9234H142.229C141.388 50.9377 140.347 46.6648 139.084 44.02H143.484H143.485ZM494.356 46.1432H478.976V52.4874H491.03C493.388 52.623 494.49 51.5407 494.355 49.2396V46.1432H494.356ZM198.023 42.2579C200.042 46.086 200.769 48.0435 202.109 51.7234L197.049 51.7303C196.043 48.995 195.114 46.9025 192.97 42.2579H198.023V42.2579ZM524.316 31.5804C522.08 39.1086 516.552 44.0121 507.747 46.2957V43.0723C513.333 41.0576 516.974 37.2215 518.651 31.5804H524.316V31.5804ZM379.078 38.146H364.726C364.69 40.6329 365.742 43.9147 366.547 45.2479H377.462C378.403 43.239 379.453 39.879 379.078 38.1454V38.146ZM465.049 31.5804C464.903 33.342 464.492 34.8982 463.802 36.2505H471.281V39.6974H461.928C460.12 41.7321 457.564 43.2862 454.232 44.3679V41.5315C457.703 39.2256 459.709 35.9142 460.266 31.5804H465.049ZM494.355 36.601H478.976V42.69H494.356V36.601H494.355ZM143.065 32.3916C144.328 34.9162 145.376 38.7056 146.217 41.8047H141.603C141.044 39.0493 139.991 35.264 138.456 32.3911H143.066L143.065 32.3916ZM197.983 30.4087C199.734 33.1509 200.957 34.9892 202.033 39.0869H196.984C196.041 35.5394 194.815 33.6936 192.936 30.4087H197.983ZM553.667 34.2114V37.841H528.293V34.2114H553.667Z" fill="#595757"/>
</svg>
