<svg width="128" height="128" viewBox="0 0 128 128" fill="none" xmlns="http://www.w3.org/2000/svg">
<path d="M68.289 93.966L76.0315 101.718C72.8815 104.683 68.6405 106.5 63.9875 106.5C59.3405 106.5 55.1 104.683 51.944 101.718L59.6905 93.966C62.4898 93.0905 65.4897 93.0905 68.289 93.966ZM84.5765 69.081C87.375 68.2063 90.3736 68.2049 93.173 69.077L100.929 76.827C97.767 79.792 93.531 81.6085 88.877 81.6085C84.2225 81.6085 79.9825 79.792 76.826 76.821C79.7915 79.9865 81.61 84.22 81.61 88.875C81.61 93.5285 79.79 97.7715 76.825 100.928L69.078 93.1765C68.201 90.3747 68.201 87.3718 69.078 84.57L76.825 76.82L76.826 76.821L84.5765 69.081ZM43.416 69.1065L51.1425 76.832L51.1545 76.82L58.897 84.57C59.7705 87.3705 59.7739 90.37 58.907 93.1725L51.1545 100.923C48.1915 97.7715 46.3655 93.5285 46.3655 88.875C46.3655 84.3735 48.0715 80.266 50.862 77.14C47.746 79.9365 43.622 81.64 39.1145 81.64C34.4725 81.64 30.2315 79.8215 27.0795 76.859L34.8265 69.1065C37.6236 68.2369 40.6189 68.2369 43.416 69.1065ZM59.711 44.214C62.509 43.3447 65.505 43.3447 68.303 44.214L76.026 51.9455L76.036 51.9345L83.791 59.6845C84.6604 62.4841 84.6604 65.4814 83.791 68.281L76.036 76.037C73.072 72.88 71.2555 68.639 71.2555 63.984C71.2555 59.4585 72.9755 55.316 75.798 52.1925C72.6755 55.0225 68.5345 56.7515 64.002 56.7515C59.355 56.7515 55.114 54.929 51.9585 51.965L51.965 51.9705C54.923 55.1275 56.7445 59.3675 56.7445 64.0135C56.7445 68.5145 55.0395 72.6295 52.2495 75.751C55.371 72.9565 59.489 71.2485 63.9875 71.2485C68.6405 71.2485 72.8815 73.0715 76.0315 76.036L68.289 83.786C65.4911 84.6575 62.4944 84.6575 59.6965 83.786L51.97 76.0565L51.959 76.069L44.2115 68.313C43.3403 65.5158 43.3403 62.5197 44.2115 59.7225L51.959 51.9645L59.711 44.214ZM26.28 51.964L34.0295 59.7165C34.9007 62.5158 34.9007 65.5137 34.0295 68.313L26.2795 76.069C23.3165 72.9115 21.5 68.669 21.5 64.014C21.5 59.364 23.3165 55.1175 26.28 51.964ZM101.714 51.934C104.675 55.086 106.5 59.3325 106.5 63.984C106.5 68.639 104.675 72.88 101.714 76.037L93.9685 68.281C93.0972 65.4817 93.0972 62.4838 93.9685 59.6845L101.714 51.9345V51.934ZM39.1145 46.3895C43.772 46.3895 48.019 48.212 51.1695 51.177L43.422 58.927C40.6233 59.7985 37.6257 59.7985 34.827 58.927L27.0755 51.177C30.2315 48.212 34.4725 46.3895 39.1145 46.3895ZM76.8395 27.077C79.8045 30.228 81.6245 34.4755 81.6245 39.1245C81.6245 43.653 79.9 47.7925 77.0735 50.921C80.199 48.0905 84.341 46.3575 88.877 46.3575C93.531 46.3575 97.767 48.1825 100.929 51.145L93.179 58.895C90.3777 59.7665 87.3778 59.7665 84.5765 58.895L76.8495 51.165L76.8395 51.1755L69.0925 43.4205C68.2156 40.6226 68.2156 37.6234 69.0925 34.8255L76.839 27.077H76.8395ZM51.169 27.077L58.9115 34.826C59.7864 37.6261 59.7864 40.6264 58.9115 43.4265L51.169 51.1755C48.2055 48.019 46.38 43.777 46.38 39.1245C46.38 34.4755 48.2055 30.228 51.169 27.077ZM64.002 21.5C68.655 21.5 72.8995 23.3225 76.052 26.2865L68.303 34.0355C65.5037 34.9097 62.5043 34.9097 59.705 34.0355L51.9585 26.2865C55.114 23.3225 59.355 21.5 64.002 21.5Z" fill="#A72226"/>
<path d="M68.289 93.966L76.0315 101.718C72.8815 104.683 68.6405 106.5 63.9875 106.5C59.3405 106.5 55.1 104.683 51.944 101.718L59.6905 93.966C62.4898 93.0905 65.4897 93.0905 68.289 93.966ZM84.5765 69.081C87.375 68.2063 90.3736 68.2049 93.173 69.077L100.929 76.827C97.767 79.792 93.531 81.6085 88.877 81.6085C84.2225 81.6085 79.9825 79.792 76.826 76.821C79.7915 79.9865 81.61 84.22 81.61 88.875C81.61 93.5285 79.79 97.7715 76.825 100.928L69.078 93.1765C68.201 90.3747 68.201 87.3718 69.078 84.57L76.825 76.82L76.826 76.821L84.5765 69.081ZM43.416 69.1065L51.1425 76.832L51.1545 76.82L58.897 84.57C59.7705 87.3705 59.7739 90.37 58.907 93.1725L51.1545 100.923C48.1915 97.7715 46.3655 93.5285 46.3655 88.875C46.3655 84.3735 48.0715 80.266 50.862 77.14C47.746 79.9365 43.622 81.64 39.1145 81.64C34.4725 81.64 30.2315 79.8215 27.0795 76.859L34.8265 69.1065C37.6236 68.2369 40.6189 68.2369 43.416 69.1065ZM59.711 44.214C62.509 43.3447 65.505 43.3447 68.303 44.214L76.026 51.9455L76.036 51.9345L83.791 59.6845C84.6604 62.4841 84.6604 65.4814 83.791 68.281L76.036 76.037C73.072 72.88 71.2555 68.639 71.2555 63.984C71.2555 59.4585 72.9755 55.316 75.798 52.1925C72.6755 55.0225 68.5345 56.7515 64.002 56.7515C59.355 56.7515 55.114 54.929 51.9585 51.965L51.965 51.9705C54.923 55.1275 56.7445 59.3675 56.7445 64.0135C56.7445 68.5145 55.0395 72.6295 52.2495 75.751C55.371 72.9565 59.489 71.2485 63.9875 71.2485C68.6405 71.2485 72.8815 73.0715 76.0315 76.036L68.289 83.786C65.4911 84.6575 62.4944 84.6575 59.6965 83.786L51.97 76.0565L51.959 76.069L44.2115 68.313C43.3403 65.5158 43.3403 62.5197 44.2115 59.7225L51.959 51.9645L59.711 44.214ZM26.28 51.964L34.0295 59.7165C34.9007 62.5158 34.9007 65.5137 34.0295 68.313L26.2795 76.069C23.3165 72.9115 21.5 68.669 21.5 64.014C21.5 59.364 23.3165 55.1175 26.28 51.964ZM101.714 51.934C104.675 55.086 106.5 59.3325 106.5 63.984C106.5 68.639 104.675 72.88 101.714 76.037L93.9685 68.281C93.0972 65.4817 93.0972 62.4838 93.9685 59.6845L101.714 51.9345V51.934ZM39.1145 46.3895C43.772 46.3895 48.019 48.212 51.1695 51.177L43.422 58.927C40.6233 59.7985 37.6257 59.7985 34.827 58.927L27.0755 51.177C30.2315 48.212 34.4725 46.3895 39.1145 46.3895ZM76.8395 27.077C79.8045 30.228 81.6245 34.4755 81.6245 39.1245C81.6245 43.653 79.9 47.7925 77.0735 50.921C80.199 48.0905 84.341 46.3575 88.877 46.3575C93.531 46.3575 97.767 48.1825 100.929 51.145L93.179 58.895C90.3777 59.7665 87.3778 59.7665 84.5765 58.895L76.8495 51.165L76.8395 51.1755L69.0925 43.4205C68.2156 40.6226 68.2156 37.6234 69.0925 34.8255L76.839 27.077H76.8395ZM51.169 27.077L58.9115 34.826C59.7864 37.6261 59.7864 40.6264 58.9115 43.4265L51.169 51.1755C48.2055 48.019 46.38 43.777 46.38 39.1245C46.38 34.4755 48.2055 30.228 51.169 27.077ZM64.002 21.5C68.655 21.5 72.8995 23.3225 76.052 26.2865L68.303 34.0355C65.5037 34.9097 62.5043 34.9097 59.705 34.0355L51.9585 26.2865C55.114 23.3225 59.355 21.5 64.002 21.5Z" fill="#A72226"/>
</svg>
