<svg width="128" height="128" viewBox="0 0 128 128" fill="none" xmlns="http://www.w3.org/2000/svg">
<path d="M40.7034 62.3169C51.8034 57.0669 59.3534 49.1669 64.3534 37.5169C67.5034 42.2169 68.0034 46.4669 74.7534 53.2169C76.5534 55.0169 79.4534 57.3169 82.0534 59.0169C83.6534 60.0669 89.6534 62.8669 90.4534 63.5669C89.1534 64.4169 87.4534 64.9169 86.1034 65.6169C81.5034 68.0169 78.4534 70.5169 74.9034 74.0669C66.6034 82.3669 69.1034 82.2669 64.4534 89.5169C60.5034 83.1169 61.2034 81.0169 53.9534 73.8169C46.6034 66.5169 43.0534 66.7169 38.4534 63.5669L40.7034 62.3169ZM63.2034 21.2169C57.8034 22.9169 56.5034 28.8169 51.5534 31.1169C46.1534 33.6669 36.5534 29.1169 33.6034 34.4669C30.8534 39.4669 35.4534 46.1669 31.0034 52.3669C28.9034 55.2669 20.6034 59.6169 22.2034 65.1669C23.5034 69.5169 30.2034 71.9669 32.2034 76.5669C34.4534 81.6669 30.5534 91.4169 35.0034 94.2169C39.9534 97.3169 47.9034 93.0169 53.0034 96.7169C56.9034 99.5669 60.0534 106.967 65.6534 105.917C69.4534 105.217 73.3534 98.0169 77.1534 95.9669C82.2034 93.2669 91.2534 97.6169 94.8534 93.2169C98.3534 88.9669 93.5534 80.2169 97.8034 74.8169C101.153 70.5669 107.903 67.3669 106.853 62.4169C106.003 58.3669 99.0534 54.7669 96.9534 50.9169C94.0034 45.5669 98.7534 35.8669 93.7534 32.7669C88.8034 29.6669 80.8534 34.5669 75.4034 29.8169C71.5034 26.3669 68.0034 19.7169 63.2034 21.2169Z" fill="#735222"/>
</svg>
