<svg width="128" height="128" viewBox="0 0 128 128" fill="none" xmlns="http://www.w3.org/2000/svg">
<path d="M63.8265 21.5C40.5815 21.5 21.5 40.3115 21.5 64C21.5 87.6885 40.5815 106.5 63.8265 106.5C87.0715 106.5 106.5 87.6885 106.5 64C106.5 40.3115 87.4185 21.5 63.8265 21.5ZM85.3365 57.381C86.3775 58.078 85.3365 59.471 85.6835 60.516C85.6835 61.213 85.3365 61.91 84.643 62.258C83.949 62.6065 83.255 62.6065 82.561 62.6065C81.8675 63.6515 79.439 63.6515 80.1325 65.3935C80.1325 66.09 81.1735 67.135 81.8675 67.4835C82.908 67.832 84.296 67.4835 84.99 67.832C85.3365 69.922 85.3365 72.3605 84.296 74.102C82.908 74.799 82.2145 76.541 80.4795 76.1925C79.7855 76.541 78.7445 77.2375 78.398 77.9345C78.398 79.676 80.133 78.9795 81.173 80.0245C82.2145 80.0245 83.255 79.328 84.296 80.0245C86.031 81.7665 84.643 84.2045 84.643 86.295L83.255 88.037C82.2145 88.385 80.8265 88.7335 79.439 89.082V89.4305H77.704C77.704 88.7335 76.6635 89.082 76.3165 88.7335C75.2755 89.4305 74.2345 88.385 73.194 88.385C67.99 89.082 64.5205 85.9465 59.3165 86.6435C57.5815 85.25 54.8065 85.5985 52.3775 85.5985C49.949 87.34 47.1735 87.6885 44.3975 88.037C43.01 88.385 42.3165 86.295 41.2755 85.947C41.2755 84.5535 39.194 83.508 40.2345 81.7665C41.6225 80.373 41.2755 78.283 42.6635 76.541C42.6635 74.799 43.01 73.0575 41.6225 72.0125C41.9695 69.9225 41.9695 67.4835 42.6635 65.3935C43.357 64.6965 44.051 62.955 45.4385 64C46.8265 66.4385 51.3365 63.6515 51.6835 67.135C51.6835 69.922 51.3365 72.709 48.9085 74.1025C47.5205 76.1925 44.051 73.4055 43.704 76.541C43.357 77.9345 44.745 78.631 45.7855 79.328C47.1735 78.631 48.908 78.631 49.949 77.238C51.684 77.238 52.3775 75.148 54.112 75.148C55.5 75.8445 56.888 75.8445 57.9285 77.238C58.6225 77.586 58.9695 77.9345 59.6635 78.283C61.398 79.676 63.8265 77.238 65.561 79.676C66.602 80.0245 67.643 80.0245 68.6835 79.676C69.3775 79.328 70.0715 78.283 69.7245 77.586C69.7245 76.8895 69.7245 76.541 69.0305 76.1925C68.3365 75.8445 67.99 76.1925 67.2955 76.1925C64.8675 76.541 63.1325 75.1475 61.051 74.799C59.6635 73.754 57.5815 72.709 57.2345 70.619C56.541 69.922 56.888 68.877 56.194 68.1805C56.194 67.1355 56.888 66.787 57.5815 66.0905C59.3165 65.3935 60.704 67.1355 62.439 66.4385C63.4795 65.742 64.8675 66.09 65.561 64.6965C66.255 64 65.908 62.6065 65.2145 61.91C64.8675 61.5615 64.1735 61.5615 63.8265 61.91C62.7855 62.955 61.051 62.955 59.6635 62.6065C58.9695 62.258 57.9285 61.91 57.5815 61.213C57.9285 59.8195 57.5815 58.426 58.9695 57.381C58.9695 56.336 58.2755 55.6395 57.5815 55.291C55.8465 55.9875 54.459 51.8075 53.0715 54.5945C53.0715 56.6845 53.7655 58.078 53.4185 60.168C51.6835 61.213 49.602 60.168 47.8675 60.168C46.1325 59.123 43.704 58.078 42.6635 55.988C43.01 54.246 41.9695 52.8525 42.6635 51.1105C41.6225 49.0205 43.704 47.627 43.704 45.8855C44.745 44.8405 45.7855 43.7955 47.1735 44.492C48.2145 45.1885 49.255 45.1885 49.949 46.582C51.3365 46.9305 52.7245 47.9755 54.459 47.627C55.847 47.2785 56.194 45.537 57.5815 45.537C59.6635 45.537 62.7855 46.582 64.1735 44.1435C64.8675 43.795 65.9085 43.4465 66.255 42.75H70.0715C70.4185 43.795 71.459 44.492 72.153 44.84C75.9695 45.537 80.133 46.2335 84.296 45.885C84.99 46.2335 85.6835 46.2335 86.031 46.93C86.031 49.369 85.6835 52.1555 82.908 53.549C81.173 54.246 77.704 52.504 77.704 55.291C79.439 57.7295 83.255 55.9875 85.3365 57.381Z" fill="#C7000C"/>
</svg>
