<svg width="128" height="128" viewBox="0 0 128 128" fill="none" xmlns="http://www.w3.org/2000/svg">
<path d="M64 21.5C87.435 21.5 106.5 40.565 106.5 64C106.5 87.4345 87.435 106.5 64 106.5C40.565 106.5 21.5 87.4345 21.5 64C21.5 40.565 40.565 21.5 64 21.5ZM101.16 65.9925L92.2225 65.992V78.9135C92.2225 82.2245 89.531 84.918 86.2215 84.918L84.2535 84.9175V86.5885C84.2535 89.8785 81.5605 92.5545 78.2495 92.5545H65.66L65.6605 101.192C84.7505 100.349 100.15 85.048 101.16 65.9925H101.16ZM35.113 65.992L26.8405 65.9925C27.844 84.9375 43.071 100.172 62.0075 101.176V92.5545H49.086C45.776 92.5545 43.082 89.878 43.082 86.5885V84.9175H41.1145C37.8055 84.9175 35.1135 82.2245 35.1135 78.9135L35.113 65.992ZM62.0075 84.9175H46.249V86.5885C46.249 88.1435 47.522 89.4075 49.086 89.4075H62.0075V84.9175ZM81.0865 84.9175H65.66V89.4075H78.25C79.814 89.4075 81.0865 88.143 81.0865 86.5885V84.9175ZM43.082 65.992H38.2785V78.9135C38.2792 79.6656 38.5781 80.3867 39.1098 80.9187C39.6415 81.4506 40.3624 81.7499 41.1145 81.751L43.082 81.7505V65.992ZM81.0865 46.913H46.249V81.7505H81.0865V46.913ZM89.057 65.992H84.2535V81.7505H86.2215C86.9735 81.7494 87.6944 81.4502 88.226 80.9183C88.7577 80.3865 89.0567 79.6655 89.0575 78.9135L89.057 65.992ZM70.6885 52.047C73.5915 52.047 75.9535 54.4085 75.9535 57.3115V71.021C75.9535 73.9235 73.5915 76.285 70.6885 76.285H56.979C54.0765 76.285 51.715 73.9235 51.715 71.021V57.311C51.715 54.4085 54.0765 52.047 56.979 52.047H70.689H70.6885ZM70.6885 57.3115H56.979V71.021H70.681L70.6885 57.311V57.3115ZM86.2215 46.913H84.2535V62.3395H89.057V49.7505C89.0563 48.9986 88.7575 48.2776 88.2261 47.7457C87.6946 47.2138 86.9739 46.9143 86.222 46.913H86.2215ZM26.824 62.34H35.113V49.7505C35.113 46.4395 37.8055 43.746 41.1145 43.746H43.082V41.7435C43.082 38.4535 45.7755 35.7775 49.086 35.7775L62.0075 35.777V26.824C42.9605 27.834 27.6665 43.2405 26.824 62.339V62.34ZM65.6605 26.8085L65.66 35.7775H78.25C81.5605 35.7775 84.254 38.4545 84.254 41.744L84.2535 43.7465H86.2215C89.531 43.7465 92.2225 46.44 92.2225 49.751V62.34H101.175C100.328 43.13 84.8615 27.656 65.6605 26.8085ZM43.082 46.9135H41.1145C40.3624 46.9146 39.6415 47.2139 39.1098 47.7458C38.5781 48.2778 38.2792 48.9989 38.2785 49.751V62.34H43.082V46.913V46.9135ZM62.0075 38.9245H49.086C47.522 38.9245 46.249 40.1895 46.249 41.7445V43.7465H62.0075V38.9245ZM78.2495 38.9245H65.66V43.7465H81.0865V41.744C81.0865 40.1895 79.814 38.925 78.2495 38.925V38.9245Z" fill="#DB2B2D"/>
</svg>
