<svg width="386" height="128" viewBox="0 0 386 128" fill="none" xmlns="http://www.w3.org/2000/svg">
<path d="M64 14C91.556 14 114 36.444 114 64C114 91.556 91.556 114 64 114C36.444 114 14 91.556 14 64C14 36.444 36.444 14 64 14ZM107.697 66.3459H97.1933V81.542C97.1933 85.4286 94.042 88.6148 90.1204 88.6148H87.8095V90.5756C87.8095 94.4622 84.6583 97.5784 80.7367 97.5784H65.9258V107.733C88.4048 106.752 106.507 88.7549 107.697 66.3459V66.3459ZM30.0014 66.3459H20.2675C21.458 88.6149 39.3501 106.542 61.619 107.733V97.5784H46.423C42.5364 97.5784 39.3501 94.4272 39.3501 90.5756V88.6148H37.0392C33.1527 88.6148 29.9664 85.4636 29.9664 81.542L30.0014 66.3459V66.3459ZM61.6541 88.6148H43.0966V90.5756C43.0966 92.3964 44.6022 93.902 46.423 93.902H61.619V88.6148H61.6541ZM84.098 88.6148H65.9608V93.902H80.7717C82.6275 93.902 84.098 92.4314 84.098 90.5756V88.6148V88.6148ZM39.3852 66.3459H33.7479V81.542C33.7479 83.3978 35.2535 84.8684 37.0742 84.8684H39.3852V66.3459ZM84.098 43.902H43.1317V84.8684H84.098V43.902ZM93.4818 66.3459H87.8445V84.8684H90.1555C92.0112 84.8684 93.4818 83.3628 93.4818 81.542V66.3459ZM71.8782 49.9244C75.3095 49.9244 78.0756 52.6905 78.0756 56.1218V72.2633C78.0756 75.6947 75.3095 78.4608 71.8782 78.4608H55.7367C52.3053 78.4608 49.5392 75.6947 49.5392 72.2633V56.1218C49.5392 52.6905 52.3053 49.9244 55.7367 49.9244H71.8782V49.9244ZM71.8782 56.1218H55.7367V72.2633H71.8431L71.8782 56.1218V56.1218ZM90.1204 43.902H87.8095V62.0392H93.4818V47.2283C93.4818 45.4076 91.9762 43.902 90.1204 43.902ZM20.2675 62.0392H30.0014V47.2283C30.0014 43.3417 33.1527 40.1555 37.0742 40.1555H39.3852V37.8095C39.3852 33.923 42.5364 30.8067 46.458 30.8067H61.6541V20.2675C39.2451 21.458 21.2479 39.5602 20.2675 62.0392V62.0392ZM65.9608 20.2325V30.7717H80.7717C84.6583 30.7717 87.8445 33.923 87.8445 37.7745V40.1205H90.1555C94.042 40.1205 97.2283 43.2717 97.2283 47.1933V62.0042H107.768C106.717 39.4552 88.5448 21.2479 65.9608 20.2325V20.2325ZM39.3852 43.902H37.0742C35.2185 43.902 33.7479 45.4076 33.7479 47.2283V62.0392H39.3852V43.902ZM61.6541 34.4832H46.458C44.6022 34.4832 43.1317 35.9538 43.1317 37.8095V40.1555H61.6541V34.4832ZM80.7717 34.4832H65.9608V40.1555H84.098V37.8095C84.098 35.9888 82.5924 34.4832 80.7717 34.4832Z" fill="#DB2B2D"/>
<path d="M208.642 89.7697C214.035 89.7697 217.886 93.7613 217.886 99.3635C217.886 104.896 214 108.887 208.642 108.887C203.25 108.887 199.539 104.931 199.539 99.1535C199.504 93.6213 203.25 89.7697 208.642 89.7697V89.7697ZM253.53 90.1549C254.476 90.1549 255.421 90.2599 256.436 90.435C257.382 90.61 257.907 90.7151 259.203 91.1002V95.6871H257.242L256.717 92.8509L256.296 92.3607C255.456 92.0456 254.861 91.9406 254.021 91.9406C249.994 91.9406 247.543 94.7767 247.543 99.4686C247.543 104.336 250.064 107.137 254.371 107.137C254.791 107.137 255.071 107.102 255.736 107.032V101.534L255.316 101.149L253.285 101.009V99.6787H261.198V101.009L259.623 101.149L259.203 101.534V107.802C257.837 108.257 257.312 108.397 256.331 108.572C255.281 108.782 254.231 108.887 253.215 108.887C247.508 108.887 243.656 105.071 243.656 99.4336C243.656 93.8313 247.508 90.1549 253.53 90.1549V90.1549ZM142.326 90.1549C148.593 90.1549 152.27 93.5162 152.27 99.2935C152.27 102.585 151.114 105.106 148.838 106.787C147.193 108.012 145.337 108.537 142.326 108.537H134.308V107.172L135.953 107.032L136.408 106.576V92.0806L135.953 91.6255L134.308 91.4854V90.1199H142.326V90.1549ZM166.731 90.1549L172.928 106.892L174.539 107.172V108.502H167.221V107.172L168.936 106.997L169.112 106.646L167.466 102.06H161.584L159.938 106.611L160.218 106.962L161.934 107.137V108.467H156.156V107.137L157.802 106.892L163.894 90.1199H166.731V90.1549ZM194.847 90.1549V94.9868H192.991L192.536 92.0806L192.116 91.7305H188.859V106.576L189.315 107.032L191.065 107.172V108.537H182.977V107.172L184.763 107.032L185.183 106.576V91.7305H181.927L181.506 92.0806L181.086 94.9868H179.231V90.1549H194.847ZM227.55 90.1549V90.8901L235.743 103.88V92.1857L235.253 91.6605L233.642 91.4504V90.1549H239.735V91.4504L238.159 91.6605L237.704 92.1857V108.502H234.693L225.449 93.8313V106.506L225.869 106.962L227.515 107.172V108.537H221.422V107.172L222.998 106.962L223.488 106.506V92.0456L223.103 91.6605L221.387 91.5204V90.1549H227.55V90.1549ZM288.579 90.1549C292.431 90.1549 294.532 91.6605 294.532 94.4266C294.532 95.7221 294.077 96.7375 293.131 97.5428C292.501 98.068 291.976 98.3481 290.575 98.7683C293.866 98.8733 295.617 100.449 295.617 103.285C295.617 106.646 293.061 108.537 288.649 108.537H280.001V107.172L281.647 107.032L282.102 106.576V92.0106L281.647 91.6255L280.001 91.4854V90.1199H288.579V90.1549ZM312.249 90.1549L318.586 106.892L320.232 107.172V108.502H312.774V107.172L314.525 106.997L314.735 106.646L313.054 102.06H307.067L305.386 106.611L305.666 106.962L307.417 107.137V108.467H301.464V107.137L303.145 106.892L309.343 90.1199H312.249V90.1549ZM330.771 90.1549V90.8901L339.14 103.88V92.1857L338.649 91.6605L337.004 91.4504V90.1549H343.236V91.4504L341.626 91.6605L341.17 92.1857V108.502H338.124L328.635 93.8313V106.506L329.091 106.962L330.771 107.172V108.537H324.539V107.172L326.149 106.962L326.64 106.506V92.0456L326.254 91.6605L324.504 91.5204V90.1549H330.771V90.1549ZM356.086 90.1549V91.5204L354.476 91.6605L354.021 92.0456V99.1885H354.791L360.743 92.0106L360.568 91.6605L359.028 91.5204V90.1549H365.225V91.5204L363.299 91.7305L358.082 97.963L363.929 107.032L365.925 107.207V108.572H360.253V107.592L355.596 100.484H353.986V106.576L354.441 107.032L356.051 107.172V108.537H348.313V107.172L349.959 107.032L350.379 106.576V92.0106L349.959 91.6255L348.313 91.4854V90.1199H356.086V90.1549ZM141.38 92.1156H139.735V107.347H141.38C145.827 107.347 147.963 104.861 147.963 99.6436C147.963 94.6016 145.757 92.1156 141.38 92.1156ZM208.922 91.7305C205.806 91.7305 203.81 94.7767 203.81 99.4686C203.81 104.195 205.841 107.347 208.887 107.347C211.969 107.347 213.964 104.266 213.964 99.6086C213.964 94.8467 212.004 91.7305 208.922 91.7305ZM287.109 99.9238C286.619 99.9238 286.163 99.9588 285.428 99.9938V107.312L286.058 107.347C286.373 107.382 286.689 107.382 286.899 107.382C290.26 107.382 291.696 106.226 291.696 103.53C291.696 101.044 290.26 99.9238 287.109 99.9238V99.9238ZM164.315 94.0764L162.004 100.729H166.696L164.315 94.0764V94.0764ZM310.008 94.0764L307.697 100.729H312.389L310.008 94.0764ZM286.443 91.7305H286.303C286.058 91.7305 285.848 91.7305 285.463 91.8005V98.3481C285.743 98.3832 285.848 98.3832 286.058 98.3832C288.929 98.3832 290.155 97.3327 290.155 94.9168C290.12 92.7459 288.964 91.7305 286.443 91.7305V91.7305Z" fill="#AA7E5D"/>
<path d="M333.083 29.6513C333.503 29.5462 334.273 29.8964 334.483 30.1415L334.868 30.6317C335.253 31.2969 335.253 32.1723 335.463 32.4874C335.674 32.8375 335.498 32.5924 335.779 32.7675C335.744 33.0476 335.674 32.9076 335.849 33.0826C335.919 33.7129 335.849 33.2227 336.024 33.5378C336.479 34.2381 337.599 34.3782 338.335 35.1485C339.035 35.8838 339.42 37.5994 338.685 38.6849L335.639 42.2913C335.218 42.6765 334.763 42.9216 334.798 43.7269C335.358 44.077 336.899 44.3922 337.774 44.8473L338.09 45.0574C338.79 45.5126 338.825 45.5476 339.28 46.2129C339.7 46.8431 339.525 46.2829 340.26 47.4734C341.101 47.5084 341.136 47.1232 342.081 47.1232C343.027 47.0882 344.392 47.1933 345.127 46.7731L346.003 46.528C347.053 46.423 347.158 46.423 347.998 46.2129C348.874 46.0028 349.294 46.2129 350.029 46.2479C350.274 46.2829 350.87 46.2829 351.115 46.2479C352.305 46.0728 351.605 45.4776 353.496 45.1975C354.371 45.0924 354.581 44.9174 355.562 44.9174C356.297 44.9174 356.997 44.9524 357.557 44.7423C358.153 44.5322 358.643 44.3221 359.308 44.1471C361.514 43.6218 362.039 44.1821 365.05 43.0966L365.926 42.8515C366.276 42.8165 366.626 42.7465 367.081 42.7465C369.392 42.6765 369.182 43.5868 370.372 44.2521C370.442 44.4622 370.407 44.3922 370.583 44.4622C371.283 45.6176 372.718 46.2479 372.403 47.5084C372.228 48.2787 370.933 49.3641 369.637 49.4692C369.427 49.5042 369.252 49.4692 369.042 49.5392C368.517 49.6443 369.007 49.5392 368.622 49.7143L365.576 50.2395C363.545 50.5196 360.674 49.6442 360.919 50.8697C361.024 51.3949 361.094 51.0098 361.829 51.8151C363.16 53.2507 362.529 53.7059 362.494 55.5966C362.424 58.6078 362.914 60.2185 362.914 62.3893C362.914 63.3697 363.09 63.7199 363.125 64.4902V71.6681C363.125 72.9636 363.265 72.9636 364.07 74.2941C364.28 74.6442 364.35 74.5392 364.63 74.8543C364.875 75.0994 364.945 75.3795 364.98 75.7647C365.26 78.7759 360.954 78.1106 359.028 78.1106C357.802 78.1106 355.877 77.9005 354.896 77.4804C353.461 76.8851 353.531 77.0952 353.076 76.9201C350.625 75.9748 350.555 76.0098 347.333 75.5546C344.322 75.1344 345.512 74.6442 344.007 73.979C343.972 73.6989 343.657 73.2787 343.342 73.0686C343.167 72.4384 342.921 72.2633 342.466 71.9132C342.396 71.0728 342.396 70.8977 343.272 70.9327C343.902 70.9678 344.287 71.1428 344.882 71.2129C346.073 71.3179 347.228 71.1078 348.454 71.0728C350.66 71.0378 351.71 70.4776 353.146 70.1975C353.706 70.0924 354.091 69.9173 354.406 69.5322C355.106 69.5672 354.966 68.972 354.966 67.9566V61.0238V56.437C354.966 55.0014 355.281 53.4258 355.211 51.9902C354.301 51.5 353.706 51.7801 352.27 52.1653C351.815 52.2703 352.2 52.2003 351.745 52.3403L346.948 53.4608C346.633 53.6008 346.353 53.916 346.178 54.1611C345.688 54.7563 345.442 55.2465 344.287 55.1765C342.851 55.1064 341.906 53.3908 341.206 52.3753C341.031 52.1302 340.716 51.8151 340.54 51.57C340.33 51.2549 340.295 50.9398 340.225 50.4846C340.19 49.4692 340.225 49.4692 339.84 48.7689H339.035C338.965 48.979 338.965 48.944 338.93 49.014C338.79 49.3291 338.965 48.909 338.79 49.3291C338.23 50.7297 337.074 52.3753 336.234 53.8109C336.024 54.1611 335.954 54.091 335.779 54.4762C334.903 56.3319 336.199 56.8921 336.479 59.4832C336.514 59.8683 336.724 61.0938 336.759 61.1639C336.794 62.1442 336.724 62.9145 337.284 63.4748C339.175 65.2955 337.914 65.4706 337.704 67.2913C337.459 69.3571 337.459 70.0574 336.969 71.9132C336.549 73.5938 336.444 75.1344 336.549 76.9552C336.584 77.7955 336.689 77.4453 336.864 78.0056C337.144 78.8809 336.864 79.4762 336.164 80.0014C334.343 81.472 333.503 77.9356 332.487 77.5154L331.787 76.7101C329.721 75.2045 327.095 76.9902 327.375 73.3487C327.41 72.7185 328.566 70.4426 328.706 69.9524L328.951 65.4706C329.231 65.1204 329.091 65.4005 329.266 64.8053C329.511 63.9299 329.791 64.14 329.756 62.9496C328.916 62.9846 329.056 63.2997 328.601 63.7899C328.286 64.105 328.041 64.3151 327.9 65.0154C327.725 65.1204 327.165 65.7507 327.13 66.2059C326.85 66.3809 326.99 66.2759 326.745 66.486L322.928 70.6877C321.878 71.9132 320.513 72.3683 318.937 71.8781C317.851 71.528 318.447 71.9131 316.906 71.1778C316.556 71.0028 317.011 71.1778 316.591 71.0028C316.556 69.6372 316.731 70.3025 316.871 69.4622L317.466 68.6568C318.272 67.5014 318.692 67.2213 319.392 65.7857C319.917 64.7003 322.823 60.0784 323.384 59.2731C324.329 57.9075 325.87 55.6316 326.675 54.1611C327.165 53.2857 329.546 48.944 329.581 48.6288C329.966 48.4888 329.896 48.5588 330.071 48.2087C330.106 48.1387 330.281 47.7185 330.316 47.7185C330.702 46.2129 328.776 46.0028 327.76 45.9328C327.76 45.8277 327.97 45.7927 327.585 45.8627C327.2 45.2325 327.13 45.2675 326.71 44.8473C326.535 44.6723 326.395 44.5672 326.255 44.3221C325.94 43.7969 326.29 44.042 325.835 43.6919C325.975 42.8515 325.835 42.3964 326.22 41.6961L327.025 40.0504C327.2 39.6302 327.375 38.8249 327.655 38.2997C328.601 36.549 327.62 37.2843 328.671 35.7437C329.266 34.8684 329.441 34.063 329.966 33.3277L331.507 31.1569C331.752 30.8067 331.892 30.7367 331.892 30.3866C332.172 30.2465 331.962 30.3515 332.172 30.2115L333.083 29.6513V29.6513ZM288.335 33.5378L289.14 34.4132C289.56 34.8333 290.19 35.5336 291.101 35.3235C291.241 35.4986 291.101 35.3936 291.346 35.5336C291.521 35.6387 291.451 35.5686 291.626 35.6387C293.867 36.549 293.272 37.7745 293.202 40.0154C293.027 40.3305 292.956 47.5434 293.167 48.2437C293.132 48.2787 293.132 48.2787 293.097 48.3487L292.956 48.7689C292.921 49.049 293.026 49.7493 292.431 50.3095C291.906 50.7647 290.505 51.0448 289.595 50.8347C289.595 50.8347 289.35 50.7647 289.315 50.7297C289.28 50.7297 289.245 50.6947 289.245 50.6947C289.21 50.6947 289.105 50.6246 289.07 50.6246L288.16 50.0644C288.055 49.9594 287.704 49.3291 287.634 49.1891C287.389 48.5238 287.529 48.6989 287.179 48.1737C286.654 48.1387 286.409 48.2087 286.059 48.4188C286.024 48.4188 286.024 48.4538 285.989 48.4538C285.954 48.4538 285.954 48.4888 285.919 48.4888L285.779 48.5938C284.833 49.084 283.748 48.5238 283.398 50.1345C283.258 50.7297 283.433 50.8347 283.573 51.3249C283.958 52.9006 284.518 52.7255 285.779 53.8109C285.989 53.986 286.024 54.091 286.304 54.2661C287.389 55.0014 287.494 55.2815 288.37 55.2465C289.175 54.1611 289.315 54.4412 290.295 53.6008C290.786 53.1457 291.801 52.1653 292.851 52.7605C293.552 53.1457 294.287 54.3011 293.657 55.2465C293.517 55.4566 293.026 55.8417 292.746 56.0868C292.396 56.3669 291.976 56.577 291.626 56.8221C291.626 57.0672 291.591 57.3823 291.626 57.6274C291.801 58.6428 292.956 58.3977 293.517 57.7325L294.392 56.402C294.777 56.402 294.462 56.472 294.847 56.3319C295.442 56.0868 294.952 56.3319 295.127 56.1218C295.127 56.1218 295.407 55.6316 295.477 55.5266C296.563 54.021 297.123 53.951 297.473 53.5658C297.718 53.3207 297.963 52.1653 298.524 52.7255C299.189 53.3557 297.718 54.7913 297.368 55.3165C297.053 55.7717 296.948 56.1218 296.598 56.542C295.688 57.6274 296.458 57.1372 295.232 58.1527C294.322 58.8879 295.127 59.5532 295.758 60.0084C296.073 60.2185 298.104 61.3039 298.489 61.3739C298.944 61.8641 301.01 62.7045 301.85 62.9496C302.9 63.2647 304.301 64.07 305.351 64.5952L310.604 67.0112C311.304 67.3613 311.584 67.1863 312.319 67.6064L312.424 67.6765C312.564 68.2717 312.809 68.3067 312.844 68.937C312.879 69.6372 312.669 69.6723 312.599 70.1975C312.424 71.3179 312.984 71.9482 312.424 72.8585C311.234 72.9285 310.008 72.8585 308.783 72.8585C307.382 72.8585 307.522 72.4734 305.456 72.5084C303.391 72.5434 303.111 72.1933 302.13 72.1933C301.57 72.1933 300.87 72.2633 300.344 72.1232C299.854 71.9832 298.174 71.3529 297.823 71.0728C297.613 70.8977 297.473 70.8277 297.263 70.6526C296.563 70.0574 296.353 69.6022 296.038 69.112C295.512 68.3067 292.746 66.1709 291.521 64.7353C290.996 64.7003 290.576 64.5952 290.015 65.5756C289.735 66.1008 290.015 66.1709 289.28 67.2213C288.825 67.8865 288.79 68.3417 288.475 68.9019C288.125 69.4622 287.774 69.5322 287.564 70.4426L287.319 70.7227C287.214 70.8627 287.144 71.0028 287.039 71.1778C286.864 71.4229 286.654 71.7031 286.444 71.9482L284.133 75.0644C283.888 75.4146 283.048 76.2899 282.977 76.7101C282.697 76.8851 282.942 76.675 282.662 76.9552C282.452 77.1652 281.122 78.7759 280.702 79.056C280.351 79.2661 280.176 79.4061 279.616 79.4061C279.616 79.4061 279.476 79.3011 279.441 79.2311C278.846 78.6008 278.986 77.3403 277.97 76.64C278.005 76.2899 277.9 76.2549 277.62 75.8697C276.43 74.3291 274.924 74.9243 275.379 73.2787C275.449 73.0686 275.449 73.0336 275.8 72.7185C276.045 72.5434 276.15 72.5434 276.395 72.3333C276.465 72.2633 276.85 71.8431 276.92 71.7381C277.165 71.458 277.48 70.7577 277.655 70.3375C278.776 67.9216 277.76 67.3613 278.286 64.7703C278.321 64.5602 278.321 64.5602 278.391 64.3851C278.636 63.5798 278.496 64 278.636 63.0196C278.846 61.479 278.356 61.6891 278.916 60.2185C279.161 59.5882 279.336 55.7367 279.231 55.3865C278.846 54.056 277.69 53.951 277.13 52.9006C276.57 51.8851 277.27 51.0448 278.04 50.4146C278.846 49.7843 279.616 50.4846 279.931 49.4342C279.966 49.2941 280.001 48.909 280.036 48.7689L280.176 44.2871C280.176 43.3067 280.281 42.3964 280.316 41.3109C280.316 40.7507 280.421 40.5756 280.456 39.9454C280.456 39.5252 280.386 38.6849 280.456 38.3697C280.526 38.0546 280.772 37.7395 281.052 37.5294C282.557 36.2339 281.717 37.6695 284.273 36.1639L287.459 33.958C287.984 33.5028 287.459 33.5378 288.335 33.5378V33.5378ZM223.664 31.612C224.854 31.2269 224.539 30.6667 226.325 30.8417C226.535 30.9468 226.395 31.1219 227.095 31.6471C227.305 31.7871 227.375 31.8922 227.585 32.0322C229.756 33.6779 230.526 32.8725 232.207 35.4986C232.382 35.7787 232.207 35.3936 232.382 35.8487C232.662 36.549 232.592 37.5994 232.557 38.2997C232.417 42.1863 232.382 54.6513 232.837 58.6428C232.977 59.7983 232.872 60.7787 233.047 61.9342C233.468 64.7353 233.433 65.5756 233.503 68.3417C233.573 71.1779 234.693 76.7451 234.623 77.7255C233.573 78.4958 233.608 77.7605 231.402 78.6008C230.597 78.8809 227.55 79.161 226.535 78.4608C226.185 78.2157 225.975 78.1456 225.484 78.0406C225.484 78.0056 225.449 77.9706 225.449 78.0056C225.449 78.0406 225.414 77.9706 225.414 77.9706L225.239 77.8305C224.469 77.3403 222.823 76.5 221.983 76.535C221.843 76.3249 222.018 76.465 221.773 76.3249C221.353 76.0448 220.057 75.9748 219.707 75.8697L217.851 74.8893C217.711 74.8193 217.676 74.8193 217.501 74.7143L215.4 73.4538C214.875 73.1386 214.91 72.9286 214.105 72.7185C213.265 72.5084 212.669 72.1933 212.809 71.1078C212.984 69.6722 214.98 69.6022 215.926 70.3025C217.186 71.1778 216.591 70.4075 218.097 71.633C219.077 72.4033 220.337 72.1933 221.843 72.1582C225.519 72.1582 225.835 72.4033 225.765 68.3417C225.695 64.7703 225.905 65.9258 224.994 63.1947L224.784 62.5294C223.839 59.5532 224.504 59.3781 224.539 58.2577L224.399 54.5112C224.399 53.916 224.434 53.1106 224.399 52.5154C224.364 51.9552 224.189 51.3599 224.154 50.7647C224.119 49.8893 224.119 49.8543 223.979 49.119C223.664 47.2983 224.434 47.0182 224.469 45.6527C224.469 45.3725 224.504 44.9874 224.399 44.7073C224.259 44.2521 224.329 44.5322 223.909 44.2521C223.839 42.2213 224.364 42.1863 224.119 41.1359C224.014 40.6457 223.909 40.8908 223.909 40.2605C223.839 38.965 224.574 37.5294 224.084 35.8838C224.084 35.8838 224.539 36.1289 224.539 35.1485C224.539 34.5532 224.364 34.2031 223.839 34.1331H222.718C222.228 34.1681 221.773 34.1681 221.283 34.098C220.092 33.888 216.521 33.7129 215.33 33.993C214.35 34.2381 213.965 34.7283 213.265 35.0084C211.864 35.5686 208.783 34.4482 204.826 35.5336C203.776 35.8137 202.97 35.7437 203.005 34.5532C203.741 33.993 204.581 34.063 205.597 33.8179C206.157 33.6779 206.227 33.4678 206.717 33.3627C207.172 33.2577 207.767 33.1877 208.223 33.1177C210.674 32.8375 213.79 33.2227 215.996 32.4524C217.816 31.7871 218.202 31.8571 220.477 31.8571C221.528 31.8221 222.858 31.8571 223.664 31.612V31.612ZM152.9 29.5112C153.636 28.7059 154.651 29.8964 155.491 30.0364L156.332 30.4916C158.328 31.2619 159.413 31.3319 160.849 31.7871C162.599 32.3473 161.934 31.542 163.3 33.0126C163.44 33.1527 163.475 33.2227 163.65 33.3978C164.28 34.1681 164.175 34.3782 164.28 35.5336C164.385 36.6891 164.14 37.2843 164.035 38.2297C163.965 39.1401 164.14 40.1204 163.965 40.9608C163.86 41.3809 163.335 42.2563 163.615 43.1317C163.93 44.1821 165.295 43.1316 167.186 42.8866C169.147 42.6064 168.552 42.7815 170.863 42.3613C172.998 41.9412 172.858 42.1513 174.329 42.7115C175.66 43.2017 175.484 43.5168 175.87 44.2521C176.29 45.0224 176.99 45.0224 176.815 47.4734C176.745 48.6288 175.59 49.7143 174.609 50.3445C173.979 50.7647 171.178 51.8151 170.127 52.1302C169.672 52.2703 169.042 52.4454 168.517 52.5854C167.151 52.7255 167.466 53.2157 164.07 53.5308C163.125 54.6863 163.475 54.2311 163.16 55.8417C163.054 56.402 163.09 55.8067 162.984 56.507C162.879 57.2073 162.704 59.6232 162.459 59.9384L162.249 60.2185C162.214 60.2885 162.144 60.3935 162.109 60.4636C161.724 61.3039 161.759 60.8487 161.199 61.8641L159.343 64.8403C157.942 66.6611 155.842 67.7815 153.881 69.007C153.531 69.2171 153.216 69.3921 152.865 69.6022L151.29 70.4776C151.115 70.5826 151.01 70.6526 150.835 70.7577L148.804 71.9132C148.384 72.0882 147.998 72.1232 147.578 72.2983C146.913 72.5784 147.193 72.5434 146.283 72.5784C145.688 72.6134 143.622 73.0686 143.061 73.4538C141.941 74.2241 142.921 73.5588 141.521 74.2241C141.241 74.3641 141.171 74.3291 140.926 74.4692C139.735 75.0994 139.945 75.2045 138.405 75.9047C137.949 76.1148 136.514 76.7451 136.059 76.8151C135.393 76.8851 135.253 76.8501 134.693 77.0602C133.223 77.5504 131.472 78.0406 129.791 77.3053C129.441 77.1652 129.581 77.2003 129.336 77.0252C128.951 76.7101 128.811 76.675 128.601 76.1498C128.146 75.0994 128.671 74.5742 129.476 74.154C131.472 73.1736 133.643 74.2941 134.973 73.2087L136.549 72.2983C138.054 71.423 144.462 65.4356 145.302 64.2801L147.368 61.9342C148.104 60.9188 148.069 61.1288 148.489 60.5686C149.469 59.3431 149.609 59.9034 150.765 58.5378C150.94 58.3277 151.045 58.2577 151.185 58.1176C151.5 57.7675 151.36 58.0476 151.5 57.5574C152.06 57.4524 151.99 55.5266 150.94 55.4566C150.59 55.4566 149.679 55.9818 148.104 56.0518C141.416 56.402 143.061 60.3585 138.965 56.577C138.195 55.8767 136.724 53.8809 135.989 53.5308C135.568 53.3207 135.253 53.1106 134.763 53.0756C134.588 52.7955 134.693 52.9356 134.413 52.7605C133.853 52.4104 133.608 52.4804 133.223 51.7101C132.837 50.9398 132.312 50.5546 132.802 49.6442C132.977 49.3291 133.258 49.084 133.503 48.8389C134.623 47.7535 136.059 48.3137 137.144 48.3137C140.295 48.2787 144.112 47.3333 147.508 46.9132C148.629 46.7731 151.08 46.0728 152.095 45.7227C152.865 45.4426 153.251 44.8823 153.076 43.7619C152.83 42.2563 152.83 43.7619 152.83 41.0308V35.2535L152.795 30.8067C152.725 30.3165 152.69 29.7913 152.9 29.5112V29.5112ZM164.385 60.4636C165.47 59.7633 166.311 60.2185 167.746 60.2185C168.832 60.2185 170.477 60.1835 171.528 60.3585C172.648 60.5336 172.158 60.5686 172.788 60.9888C174.119 61.8992 175.8 61.514 178.986 65.6806C179.266 66.0308 179.091 65.7857 179.336 66.2759C180.036 67.7815 180.141 69.8473 179.896 71.598C179.826 72.0532 179.581 72.6134 179.336 72.9986C179.266 73.1386 179.056 73.4187 178.951 73.5588C178.671 73.9439 178.671 73.8389 178.461 74.3291C178.216 74.3991 177.83 75.0294 176.465 75.3445C175.905 75.4846 175.94 75.6246 175.239 75.6596C174.714 75.6946 174.189 75.6596 173.664 75.6596C172.788 75.6596 172.368 75.6947 171.878 75.2045L171.703 75.0294C171.353 74.7143 170.933 74.5742 170.583 74.084C170.372 73.8039 170.162 73.4538 169.952 73.2437C169.847 72.5434 169.567 72.0182 169.357 71.3529C169.112 70.5476 168.972 70.2325 168.657 69.6022C168.342 68.972 168.097 67.9566 168.517 67.0812C169.392 65.4005 167.991 64.9454 167.326 63.5098C166.766 62.2843 165.295 61.8291 164.7 61.3739C164.665 61.3739 164.665 61.3389 164.63 61.3389C164.595 61.3389 164.595 61.3039 164.56 61.2689C164.315 60.9888 164.385 60.7087 164.385 60.4636V60.4636ZM264.735 32.6625C264.875 32.2423 265.681 32.2423 266.486 32.9776C267.291 33.7129 267.991 33.4328 268.132 34.098C268.167 34.2731 268.167 34.2031 268.202 34.4482L267.991 36.1289C267.711 36.8992 267.361 37.1092 267.081 37.8095C266.976 38.0896 266.871 38.3698 267.011 38.7549C267.396 39.7353 268.867 39.7003 269.882 39.7703C273.384 40.0854 273.524 37.9146 276.01 40.4356L276.115 40.5406C276.605 40.9958 276.57 40.6106 277.62 41.381C277.69 43.6218 275.274 42.4314 273.244 43.0266C272.893 43.1316 272.648 43.3767 272.438 43.6919C272.228 44.007 272.368 43.7269 272.228 44.112C271.668 44.007 270.828 44.4272 270.548 44.7423L270.442 44.8473V44.9524C269.287 45.0924 268.902 45.3725 268.867 46.1779C270.162 46.8081 270.407 45.8978 271.738 46.1779C272.683 46.3879 272.928 47.3683 272.893 48.2087C272.578 48.4188 272.298 48.6639 271.948 48.8739L271.003 49.4342C270.092 50.0294 268.482 49.084 268.692 50.2045C268.447 50.3445 268.552 49.9244 268.482 50.6597C268.447 51.0798 268.727 51.6751 269.042 51.8852C269.567 52.2353 270.337 51.8851 271.143 51.9202C271.563 52.4104 272.018 53.3207 271.773 54.3361C271.563 55.3165 270.618 55.0714 269.567 55.1414C269.042 55.8417 269.147 56.2619 269.112 57.4174C269.077 58.8179 269.042 58.993 270.512 58.8529C270.407 58.3627 271.248 57.8375 271.773 57.2073C273.314 55.2465 274.504 56.9272 274.574 57.6625C274.679 59.2381 273.244 59.2381 272.368 59.4832L269.777 60.8487C269.742 61.1638 269.707 61.549 269.742 61.8641C269.847 62.6695 269.847 62.0742 269.987 62.6344C270.127 63.2297 269.987 64.035 270.793 64.1751C270.968 64.2101 270.933 64.2101 271.108 64.1751L272.438 63.6148C273.139 63.2997 273.209 62.9496 273.944 62.6695C274.574 62.4244 275.099 62.1793 275.555 61.7941C277.2 60.3235 278.461 62.0042 276.71 62.8095C276.08 63.1246 273.069 64.9454 272.718 65.8907C272.333 66.0308 272.333 66.1358 272.018 66.416L271.108 67.2213C269.357 68.9019 268.342 69.147 267.886 69.5672C267.571 69.8823 267.816 69.6372 267.641 69.8823C267.081 69.8823 264.91 71.3529 264.07 71.7031L262.984 72.4033C262.494 72.5084 262.284 72.6484 261.969 72.8235C261.409 73.1737 260.534 73.979 259.938 74.014C258.853 74.119 258.713 73.3837 258.012 72.6834C257.382 72.0182 257.662 71.4229 256.892 71.1078C256.892 70.7227 256.997 71.0728 256.752 70.6877C256.472 70.2675 256.577 70.4776 256.472 70.4426C256.332 69.8473 255.842 69.007 257.452 68.7969C259.028 68.5868 258.118 69.1471 259.763 68.2367C260.744 67.6765 260.954 67.9216 262.144 67.7115C262.949 67.5714 263.51 67.0812 264.21 66.9412C264.7 66.8361 264.98 66.9062 265.4 66.6611L265.821 66.3809L266.871 65.3305C267.361 64.6302 267.046 60.6737 266.836 60.4286C266.731 60.3235 266.486 60.2185 266.381 60.1835C266.276 60.1484 266.206 60.1134 266.101 60.0784C266.066 60.0784 266.031 60.0784 265.996 60.0434C265.996 60.0084 265.926 60.0084 265.891 60.0084C265.891 58.923 266.871 58.4678 266.766 57.2073C266.696 56.3669 266.276 55.1414 264.98 55.5266C264.42 55.7017 262.879 56.7171 262.144 56.2269C261.934 56.0868 261.829 55.8417 261.934 55.5266C262.109 54.9664 262.774 55.0714 263.23 54.5462L263.335 54.4412C263.335 54.4062 263.37 54.3711 263.405 54.3011L263.44 54.2311L263.65 54.1611C264.35 54.091 264.595 53.8459 265.225 53.5658C266.801 52.9356 266.171 51.9202 266.521 50.9048C266.731 50.3095 267.116 50.1695 266.766 49.4692C266.311 49.014 265.12 49.9594 263.545 49.9594C263.405 49.5042 263.405 49.5742 263.405 48.979C263.79 48.6288 264.105 48.1036 264.63 47.8585C264.945 47.7185 265.05 47.7885 265.33 47.5784L265.996 46.8781C266.976 46.9132 267.081 47.4734 267.991 46.8781C267.816 46.2479 267.466 46.458 267.116 45.8978C267.151 45.0224 267.571 45.1625 268.167 44.8473C268.587 44.6373 268.762 44.1821 269.322 43.902C269.812 43.6919 270.898 43.2717 271.388 42.8515C271.738 42.5364 271.668 42.6765 271.633 42.0812C271.108 41.6961 270.723 41.8011 269.882 41.7661C269.777 41.6611 269.462 41.626 269.182 41.521C268.132 41.1008 266.696 40.1905 266.136 41.7661C265.681 43.0966 265.225 43.0266 265.19 44.042L265.12 44.112L264.35 45.1625C264.14 45.4426 263.019 48.3837 262.494 48.8739C262.039 49.2941 261.969 49.3291 261.829 50.0644C261.654 50.9748 261.479 50.9048 261.234 51.3249C261.024 51.7101 260.919 52.3403 260.709 52.6905C260.393 53.2507 260.113 53.0056 259.973 53.916C259.938 53.916 259.938 53.916 259.938 53.951C259.938 53.986 259.903 53.986 259.903 53.986C259.483 54.4412 256.472 59.6933 254.966 61.479C253.706 62.9496 252.795 64.1751 251.29 65.6106C250.835 66.0308 250.484 66.416 250.064 66.8361C249.819 67.0812 249.714 67.1512 249.399 67.3963C249.224 67.5364 249.224 67.5364 249.049 67.7115C247.648 69.112 246.143 70.4076 244.497 71.563C244.392 71.633 244.252 71.7381 244.147 71.8081C243.132 72.5784 243.307 72.2283 242.606 72.8585L240.365 74.4692C240.015 74.7493 240.155 74.5042 240.085 74.8543C239.84 74.9594 239.875 74.9244 239.595 75.0644C239.42 75.1695 239.49 75.2045 239.21 75.2745C239.035 75.3445 238.895 75.3445 238.685 75.3095C238.335 75.2745 238.09 75.1694 238.265 74.6792L240.576 72.2633C241.206 71.633 242.676 70.0574 242.956 69.147L243.097 69.077C243.167 69.042 243.202 69.007 243.272 68.937L247.613 63.6148C248.419 62.2843 249.784 60.6386 250.835 59.4132L253.881 55.1765C254.091 54.8613 254.196 54.5812 254.406 54.2311C254.896 53.4958 255.772 52.4454 256.157 51.535C256.857 49.9594 258.012 48.4888 258.713 46.6681C258.853 46.3179 261.619 41.626 261.654 40.7857C261.829 40.6457 261.794 40.7507 261.969 40.4706C262.109 40.2255 262.109 39.9454 262.704 38.965L264.28 34.8684C264.385 34.4832 264.49 34.1331 264.595 33.8179C264.77 33.2927 264.665 33.2227 264.77 32.7675C264.7 32.6975 264.735 32.6625 264.735 32.6625V32.6625ZM197.858 37.4244C198.874 37.3193 199.084 39.4902 199.084 40.1905V42.1513C199.084 43.0616 199.259 43.3067 199.329 44.007C199.574 46.493 199.189 49.5042 199.434 52.0952C199.784 55.6667 199.854 56.1569 199.784 59.8683C199.749 62.1793 199.259 64.8053 199.504 66.7311C199.609 67.5014 199.819 67.4314 199.924 67.5014C199.854 67.9215 199.924 68.2017 199.784 68.6568C199.644 69.147 199.469 69.042 199.504 69.5322C198.804 69.9173 199.539 71.2129 199.224 72.5084C199.084 73.0686 198.804 73.0686 198.559 73.4538C198.209 74.049 198.419 74.3291 197.788 74.4692C197.753 74.4692 197.718 74.5042 197.683 74.5042C197.508 74.5392 197.158 74.6442 196.633 74.1891C196.073 73.6989 195.267 72.5084 193.902 72.0182C193.762 71.7031 193.202 71.2829 192.956 71.0378C190.54 68.7969 191.241 70.0924 192.256 65.5056C192.431 64.7353 192.711 64.6302 192.781 64.14C192.886 63.5098 193.097 60.6737 192.851 60.2885C192.956 60.2185 192.991 60.1484 193.026 60.1484C193.026 60.1484 193.026 60.1134 193.062 60.0434L193.097 60.0084L193.377 58.8879C193.587 57.9076 193.902 57.1022 194.007 56.0868C194.042 55.5616 194.007 54.8963 194.077 54.4062C194.287 52.7255 194.812 51.1499 195.092 48.5588C195.442 45.3025 194.742 42.6415 195.512 40.3305C195.723 39.7353 196.073 39.9454 196.528 39.6653C197.123 39.2101 196.878 37.7395 197.858 37.4244V37.4244ZM286.129 60.8837C285.498 60.8487 285.463 61.1288 285.183 61.444L283.853 61.479C283.328 62.2843 283.608 61.8291 283.468 62.9496C283.433 63.2997 283.328 63.3697 283.293 63.7199C283.118 65.0854 283.573 66.0658 282.872 68.3767C282.207 70.5826 283.678 69.8823 284.203 69.112L286.724 66.2759C286.759 66.2759 286.759 66.2409 286.794 66.2059L288.019 64.7703C288.615 63.965 289.84 63.2297 287.984 62.0742C287.739 61.8991 287.774 61.9342 287.564 61.7591C287.109 61.4089 286.724 60.8837 286.129 60.8837V60.8837ZM261.899 59.7633C262.354 59.4132 262.809 58.5028 263.545 59.098C263.895 60.0434 264.175 60.1835 265.12 60.4286C265.155 62.0042 264.945 61.3739 264.665 62.3193C264.07 62.4594 264.245 62.9496 263.125 64.105L262.879 64.3851C262.424 64.9454 262.179 64.8053 261.514 64.4202C261.339 63.6498 261.094 63.8949 260.498 63.3697C260.078 62.9846 259.903 62.7045 260.183 62.0392C260.604 61.1639 261.584 60.8137 261.899 59.7633V59.7633ZM218.237 38.2647C219.847 37.8445 220.793 40.4356 221.843 40.5056C222.193 41.1709 222.228 40.8557 222.508 41.1008C222.753 41.3109 222.718 41.6611 222.718 42.0812C221.738 42.6064 221.143 42.5364 219.287 43.6218C218.622 44.007 217.921 44.3922 217.431 44.8824C217.256 45.0574 217.361 45.0224 217.116 45.1274C216.836 45.2325 216.311 45.2675 215.926 45.2675H215.856C215.295 45.2675 214.35 45.3025 213.965 45.5826C213.475 45.8978 213.65 46.1078 213.37 46.493L212.634 47.1232C212.074 47.4384 211.409 47.5434 210.954 47.9286C210.674 48.1737 210.253 48.6989 210.218 49.084C209.903 51.1148 213.79 49.2941 213.825 49.2941C214.35 48.909 213.65 49.119 214.77 48.6288C215.295 48.3837 215.926 47.8235 216.381 47.5084C216.416 47.5084 216.416 47.4734 216.451 47.4734C216.486 47.4734 216.486 47.4384 216.521 47.4384H216.556L216.591 47.4034C217.501 46.9132 217.536 47.7185 218.797 48.1737C219.532 48.4188 220.057 48.6989 220.583 49.2241L220.653 49.2941L220.723 49.3641C221.528 50.2045 221.458 50.3445 221.178 51.6751C220.793 53.5658 218.797 53.951 219.182 54.9664C219.182 55.0014 219.497 55.4916 219.497 55.5266C220.863 55.6316 221.318 55.9118 222.368 56.9272C222.403 56.9622 222.648 57.3123 222.718 57.4174C223.384 58.3977 222.963 58.4328 222.368 59.7983C222.298 59.9734 221.843 60.8837 221.808 60.9538C221.003 61.8291 219.007 60.9538 219.007 60.9538C218.272 60.4986 216.871 60.6036 215.821 60.1835C214.84 59.7983 213.72 59.4132 212.529 59.3081C211.514 59.2381 211.479 59.4482 210.989 59.7983C210.709 59.9734 208.783 60.9888 208.118 60.6737C207.557 60.3935 207.277 59.8683 207.032 59.7633C206.787 58.8529 206.297 59.3081 206.227 58.2577C206.087 55.8417 206.262 52.2703 206.892 50.0294C207.067 49.3641 207.067 48.8039 207.312 48.2087C207.417 47.9986 207.522 47.6835 207.662 47.4384C207.837 47.0532 207.907 47.0882 208.188 46.8431C209.973 45.1274 208.398 45.0924 207.452 45.3725C206.227 45.7577 206.052 45.6176 204.476 45.6176C204.196 45.6176 203.916 45.6176 203.671 45.5476C203.146 45.3725 203.566 45.5476 203.181 45.1975C202.235 44.3922 202.41 44.4622 201.535 43.4818C200.8 42.6765 200.625 42.0812 201.29 41.1709C202.865 41.1359 201.85 41.3459 204.511 41.1359C205.667 41.0308 207.032 41.1008 208.012 41.2059C209.168 41.3109 210.183 41.0308 211.304 40.9258C213.125 40.7507 212.844 40.9258 214.035 40.1204C214.385 39.8053 215.505 39.2801 216.031 39C216.591 38.6499 217.396 38.4748 218.237 38.2647V38.2647ZM213.965 52.7605C213.93 51.7101 212.739 51.8852 211.549 51.8852C209.308 51.8852 210.288 53.4958 210.253 55.2465C210.218 56.4019 209.973 57.8025 210.709 57.7325C211.059 57.6975 211.234 57.4174 211.619 57.1022L213.615 55.9118C213.65 55.2115 213.37 54.6863 213.58 53.986C213.685 53.6359 213.79 53.4608 213.86 53.2157C213.965 53.0406 213.965 52.9706 213.965 52.7605V52.7605ZM287.774 43.6919C286.514 42.6765 286.584 43.902 284.588 44.2171C283.888 44.3221 283.678 44.2871 283.538 45.0224C283.433 45.5476 283.433 46.3529 283.608 46.7381C284.168 47.0182 285.288 46.598 285.884 46.3879C286.584 46.1429 287.144 45.6176 287.704 45.2325L287.774 43.6919V43.6919ZM359.273 33.5728C360.218 33.4678 360.253 33.0126 361.129 33.1527C361.794 33.2577 362.039 33.7129 362.669 33.923C362.809 34.2031 363.755 34.7633 364.07 34.7983C364.525 35.6387 367.221 37.0742 365.926 38.4398C364.805 39.6302 364.315 40.5056 362.739 41.2759C359.973 42.6765 360.008 41.591 357.662 42.2563C356.892 42.4664 354.616 43.0266 354.161 43.3067C353.741 43.5168 353.496 43.6569 353.356 43.972C352.935 43.937 352.69 44.007 352.41 44.1471C352.235 44.2521 352.34 44.1821 352.13 44.2521L352.025 44.2871C350.73 44.7073 351.71 44.8824 349.924 44.8473C349.994 43.937 350.169 43.937 350.835 43.5868C351.325 43.3417 351.605 43.0966 352.06 42.8515C352.515 42.6064 353.041 42.5364 353.286 42.1513C353.776 41.416 354.301 40.8907 352.97 40.8907C349.854 40.8907 350.905 40.4706 349.854 39.7003C349.434 39.3852 349.329 39 349.434 38.2997C349.644 37.0742 350.94 36.584 351.115 36.479C351.5 36.1989 352.445 35.4286 353.251 35.2185C355.632 34.063 354.651 34.8683 356.367 34.4832L359.273 33.5728V33.5728ZM285.744 38.2997C285.288 38.0896 283.468 38.2997 283.153 38.6148C282.907 38.8599 282.277 40.4706 283.258 40.8907C283.538 41.0308 285.604 40.9258 285.989 40.7507L286.234 40.2255C286.269 39.7703 286.269 38.5448 285.744 38.2997Z" fill="black"/>
</svg>
