<svg width="128" height="128" viewBox="0 0 128 128" fill="none" xmlns="http://www.w3.org/2000/svg">
<path d="M93.2 84.8C74.1 111.15 41.75 92.25 49.1 80C51.4 76.15 56.4 74.25 61.25 77.8C73.05 86.4 89.75 78.3 94.4 64.05C96.15 59.15 97.05 49.55 90.75 40.9L91.05 40.6C96 46.25 99.85 54.1 99.85 64.05C99.85 71 97.8 78.4 93.2 84.8ZM75.35 64L64.2 75.15L53.05 64L64.2 52.85L75.35 64ZM28.15 64C28.15 57 30.2 49.6 34.8 43.2C53.9 16.85 86.25 35.75 78.9 48C76.6 51.85 71.6 53.75 66.75 50.2C54.95 41.6 38.25 49.7 33.6 63.95C31.85 68.85 30.95 78.5 37.35 87.2L37.05 87.45C32.05 81.85 28.15 74 28.15 64ZM106.5 64C106.5 39.8 86.65 21.5 64 21.5C40.2 21.5 21.5 40.7 21.5 64C21.5 88.2 41.35 106.5 64 106.5C87.8 106.5 106.5 87.3 106.5 64Z" fill="#DE0112"/>
</svg>
