<svg width="383" height="128" viewBox="0 0 383 128" fill="none" xmlns="http://www.w3.org/2000/svg">
<path d="M317.723 35.8642L317.584 35.6563C317.238 35.2405 317.03 33.3001 317.03 32.711V32.5378C317.03 32.2259 317.03 32.018 317.896 31.1518C318.623 30.4588 319.973 30.1816 321.392 30.1816C322.154 30.1816 322.915 30.2509 323.607 30.3895L325.961 31.0132C326.931 31.2904 327.761 31.5676 328.592 31.5676L329.388 31.6022C330.219 31.6715 330.392 31.6715 330.6 31.8448C330.981 32.1566 331.569 32.3992 332.262 32.6417C332.331 32.6764 333.715 33.3347 333.715 33.3347C334.269 33.6812 334.269 33.7159 334.477 34.2703L334.581 34.6168C334.823 35.2058 335.031 35.483 335.273 35.7256L335.308 35.7949C335.342 35.8642 335.446 35.9335 335.515 36.0374C335.619 36.1414 335.723 36.28 335.723 36.28C336.069 36.7651 336.692 37.1809 337.281 37.1809C337.419 37.1809 337.592 37.1462 337.731 37.0769C338.008 36.9383 338.146 36.6265 338.146 36.2453V36.0721V35.9681C338.146 35.7602 338.354 35.3791 338.942 34.7554C339.531 34.1317 340.916 33.3694 341.781 33.2308L343.027 32.815C344.031 32.4338 345.346 31.9141 347.216 31.9141C349.189 31.9141 349.743 32.122 350.193 32.2952C350.297 32.3645 350.4 32.3645 350.574 32.4338L350.85 32.5031C351.266 32.6071 351.647 32.6417 352.062 32.6417C352.408 32.6417 352.754 32.6071 353.17 32.5724L355.593 32.4338L357.428 32.2952C357.635 32.2606 357.774 32.2606 357.947 32.2606C358.258 32.2606 358.708 32.3299 359.955 32.5724C361.789 32.9536 361.997 33.1961 362.551 33.6466L363.762 34.4782C364.662 35.0326 364.662 35.1019 364.87 35.6563L365.147 36.4186C365.355 36.9037 365.424 37.0769 365.424 37.2502C365.424 37.3888 365.355 37.562 365.216 37.8739L365.008 38.4283C364.697 39.1906 364.593 39.2252 364.316 39.2252C364.212 39.2252 364.074 39.2252 363.901 39.1906L363.866 39.2599V39.1906C363.762 39.1906 363.105 39.0173 363.105 39.0173C362.793 38.948 362.481 38.8441 362.066 38.8441C361.962 38.8441 361.858 38.8441 361.755 38.8787C361.443 38.948 360.439 38.9827 359.435 38.948C358.743 38.948 358.016 38.948 357.531 38.9134L355.074 38.948C354.97 38.948 352.893 39.052 352.893 39.052L351.439 38.9827L349.777 38.948H348.739C348.531 38.9827 348.393 38.9827 348.22 38.9827C347.977 38.9827 347.7 38.948 347.147 38.7748C346.939 38.7401 346.766 38.7055 346.558 38.7055C346.004 38.7055 345.52 38.8787 345.139 39.052L344.273 39.2945C343.373 39.2945 342.785 39.5717 342.3 39.8143C341.85 40.0568 341.469 40.2301 340.812 40.334C340.673 40.334 340.535 40.3687 340.431 40.3687C339.842 40.3687 339.669 40.1608 339.358 39.8143C339.323 39.7796 339.323 39.7796 339.289 39.7103C339.185 39.5717 338.977 39.3292 338.977 39.3292C338.492 38.9134 337.973 38.9134 337.627 38.9134H337.385C337.246 38.9134 337.212 38.9134 337.142 38.8441L337.004 38.7055C336.623 38.3243 336.45 38.255 335.931 38.1857H335.689C335.481 38.1511 335.308 38.1511 335.169 38.1511C334.754 38.1511 334.546 38.2897 334.373 38.3936C334.235 38.4629 334.131 38.4976 334.027 38.4976C333.888 38.4976 333.785 38.4629 333.681 38.359C333.438 38.1511 333.092 38.0818 332.746 38.0818C332.608 38.0818 332.504 38.0818 332.4 38.1164C332.262 38.1164 331.777 38.2204 331.673 38.2204C331.569 38.2204 331.465 38.1857 331.396 38.1857C330.496 38.1857 329.665 38.6708 328.765 39.0866L328.488 39.1906C327.934 39.4678 326.827 39.6064 325.892 39.6064C325.442 39.6064 324.992 39.5717 324.715 39.5024H324.681C324.577 39.5024 323.954 39.3292 323.954 39.3292C323.4 39.2252 322.673 39.0866 321.08 38.3936C318.934 37.5274 318.242 36.5572 317.723 35.8642V35.8642ZM368.92 45.7741H368.955H368.92V45.878C368.92 45.878 368.92 45.9127 368.885 45.9473C368.574 46.6057 368.47 47.7838 368.332 48.4075L368.297 48.754H368.47H368.297C368.262 49.2044 367.812 50.1746 367.189 50.6251L366.739 51.0409C366.116 51.526 365.458 52.0111 364.801 52.0111C363.866 52.0111 361.339 51.9764 360.716 51.5953L360.37 51.3181C359.504 50.7637 358.639 50.1746 357.878 50.1746C356.943 50.1746 356.077 50.6944 355.766 51.4567L355.662 51.6992C355.593 51.9071 355.42 52.219 355.42 52.5655C355.42 52.912 355.558 54.298 355.731 54.7831C355.87 55.2335 355.904 55.4414 355.904 55.7879V56.5502C355.904 56.8274 355.904 57.0353 355.87 57.2432C355.801 57.7283 355.766 58.3174 355.766 58.9411V60.2231C355.766 60.9508 355.801 61.6091 355.904 62.0249L355.974 62.9605C355.939 63.1684 355.904 63.4802 355.904 63.7574C355.904 64.2425 356.043 64.5544 356.216 65.0048C356.493 65.8018 356.527 66.2522 356.527 66.8413C356.527 66.9452 356.493 67.3957 356.493 67.4303V68.3312C356.458 68.5738 356.251 69.8558 356.251 69.8558C356.181 70.3409 355.904 70.826 355.731 71.2765V71.3111C355.697 71.3804 355.593 71.5537 355.593 71.5537L355.558 71.5883V71.623C355.558 71.6923 355.42 71.9695 355.42 71.9695C355.385 72.1081 355.108 72.4892 354.831 72.4546H354.693C354.52 72.4199 354.243 72.212 354.07 72.0041C353.897 71.8309 353.204 71.6576 353.17 71.623C353.135 71.5883 353.066 71.3111 353.031 71.1032L352.893 70.6181V70.5488C352.547 69.9944 352.443 69.2668 352.443 68.9203C352.443 68.158 352.131 67.5343 351.716 66.8759C351.439 66.4601 351.266 65.8018 351.266 65.1781C351.266 64.9702 351.3 64.7623 351.335 64.589C351.439 64.2772 351.474 63.8614 351.474 63.4802C351.474 62.8219 351.37 62.0942 351.197 61.5745C351.127 61.3319 350.816 60.0152 350.816 59.1143V58.8718L351.335 57.2779L351.3 56.377C351.3 56.377 351.266 53.6743 350.539 52.7734L350.435 52.808L350.504 52.7387L350.297 52.5308C349.95 51.9764 349.223 50.8676 347.181 50.8676C345.035 50.8676 344.1 51.0409 343.131 51.3527C342.577 51.526 341.608 51.6299 340.812 51.6299C340.396 51.6299 340.016 51.5953 339.808 51.526C339.289 51.3527 338.908 51.2488 338.492 51.2488C338.146 51.2488 337.766 51.2834 337.212 51.3874L336.796 51.4567C335.862 51.5953 334.927 51.7339 334.615 52.7734C334.442 53.3278 334.512 53.5357 334.477 54.4712V55.58C334.477 56.5502 334.408 57.659 334.235 57.9709L333.715 59.3569C333.577 59.9459 333.473 60.3271 333.127 60.9161C332.712 61.5745 332.538 62.1635 332.504 62.7179C332.435 63.0991 332.262 63.4456 332.088 63.6535C331.915 63.9307 331.812 64.1732 331.673 64.3118C331.085 65.0395 330.773 65.5246 328.108 66.8066C326.273 67.6382 325.961 67.9847 325.581 68.2619C325.165 68.5391 324.611 68.8163 324.196 68.8163L323.469 68.747C322.95 68.7817 322.257 68.851 321.634 68.851C320.977 68.851 320.388 68.747 320.146 68.5738C319.419 67.9847 318.519 67.1878 318.553 66.1136L318.45 65.0048V64.7623C318.45 64.2425 318.588 63.896 318.692 63.4456C318.865 62.3021 319.142 61.817 319.488 61.5745C319.8 61.2973 320.25 61.2626 320.734 61.0201C321.357 60.6736 322.534 60.3617 323.434 60.2231L323.884 60.1192L324.473 60.0499C325.304 59.9113 326.273 59.7727 327.173 59.0797C327.969 58.456 329.111 57.5204 329.735 56.5502C330.219 55.7533 330.773 54.8524 330.981 53.7089L331.015 53.501C331.085 53.1892 331.119 52.808 331.119 52.4615C331.119 52.0457 331.05 51.6299 330.738 51.2834C330.427 50.8676 329.908 50.6597 329.285 50.6251H329.008C327.45 50.6251 326.169 51.1448 325.442 51.6646C325.061 51.9418 324.542 52.115 323.988 52.115C323.884 52.115 323.746 52.115 323.642 52.0804L323.157 51.9764C322.984 51.9418 322.811 51.9071 322.673 51.9071C322.361 51.9071 322.084 51.9764 321.704 52.219C321.288 52.4615 320.63 52.6694 320.111 52.6694C319.973 52.6694 319.834 52.6694 319.73 52.6348C319.107 52.5308 318.45 51.9418 318.45 51.3874C318.45 50.3132 318.173 49.1351 317.723 48.2689C317.342 47.7145 317.203 47.2294 317.203 46.7789C317.203 46.571 317.238 46.3978 317.307 46.2245C317.515 45.7394 318 45.3236 318.865 45.0464C321.046 44.3188 321.323 44.2495 321.842 44.1802C321.877 44.1802 321.911 44.1802 322.015 44.1455C322.257 44.0762 322.811 44.0069 322.811 44.0069C323.157 43.9376 323.469 43.9376 323.781 43.9376C324.438 43.9376 325.027 44.0416 325.615 44.2148H325.65C325.754 44.2495 326.654 44.3881 326.654 44.3881C327.173 44.4574 327.761 44.492 328.385 44.492C329.25 44.492 330.185 44.4574 331.015 44.3881H331.604C331.846 44.3881 332.088 44.3534 332.296 44.3534C332.919 44.3534 333.404 44.4574 334.027 45.0118C335.135 46.0166 336.139 46.571 337.039 46.571C337.212 46.571 337.35 46.571 337.523 46.5017C338.354 46.2938 338.942 46.0166 339.427 45.4622C339.531 45.3583 340.292 45.185 340.777 45.1504L341.85 45.0464L342.785 44.8385C343.062 44.8039 344.723 44.5267 344.896 44.492H345.312C346.039 44.4574 346.662 44.4227 347.25 44.4227C347.7 44.4227 348.081 44.4574 348.462 44.492C348.843 44.5613 349.327 44.596 349.881 44.596C351.093 44.596 352.443 44.492 352.893 44.4227H353.1C353.827 44.4227 355.454 44.596 356.389 44.9425C357.497 45.3236 358.328 45.4276 359.054 45.4276C359.47 45.4276 359.851 45.3929 360.197 45.3583H361.893C362.308 45.3583 362.793 45.3929 363.278 45.3929C363.658 45.3929 364.039 45.3929 364.351 45.3583C364.974 45.2543 365.666 45.1504 366.393 45.1504C366.947 45.1504 367.535 45.185 368.089 45.3236C368.435 45.3583 368.851 45.6008 368.92 45.7741V45.7741ZM296.918 62.3714C297.853 62.3714 298.857 62.0596 299.411 61.4359C299.584 61.228 299.757 61.0894 299.722 60.6043V60.5003C299.722 60.0152 299.342 59.6341 299.134 59.4262L298.961 59.2529C298.857 59.045 298.788 58.9064 298.649 58.5253C298.441 57.8323 298.268 57.7283 297.853 57.4858C297.472 57.2086 297.057 57.07 296.676 57.07C296.399 57.07 296.122 57.1393 295.88 57.3125C295.395 57.5897 295.014 57.8323 295.014 58.5946V58.9064C295.014 59.0797 295.049 59.2183 295.049 59.3222C295.049 59.9459 294.911 60.1885 294.911 60.8122V60.8815C294.911 61.4705 295.291 61.921 295.845 62.1635C296.122 62.3368 296.503 62.3714 296.918 62.3714V62.3714ZM293.353 49.7935C294.114 49.7935 294.98 49.8628 295.499 49.9321C295.638 49.9321 295.776 49.9667 295.915 49.9667C296.745 49.9667 297.507 49.6202 298.026 48.9272C298.13 48.7886 298.545 48.5461 298.822 48.4075C299.341 48.0956 299.895 47.8531 300.138 47.3333V47.2987L300.207 46.9522V46.9175L300.068 46.4324V46.3978C299.826 46.0166 299.376 45.9127 298.822 45.9127C298.511 45.9127 298.199 45.9473 297.818 45.9473H297.749H297.784C297.645 45.9473 296.711 45.982 296.711 45.982L295.672 46.0166C295.361 46.0166 295.084 46.0513 294.807 46.0513C294.564 46.0513 294.357 46.0513 294.149 45.982C293.941 45.9127 293.734 45.9127 293.526 45.9127C293.041 45.9127 292.591 46.0166 292.107 46.1206L291.034 46.3285C290.168 46.4324 289.303 46.8829 288.853 47.5066C288.645 47.7838 288.576 48.1303 288.576 48.4421C288.576 48.5807 288.576 48.754 288.645 48.8926C288.922 49.7588 289.857 49.9667 290.757 49.9667C291.276 49.9667 291.795 49.8974 292.245 49.8628L292.487 49.8281V49.6549L292.522 49.8281C292.73 49.7935 293.041 49.7935 293.353 49.7935V49.7935ZM291.449 57.7283C291.553 57.2086 291.622 56.7928 291.622 56.4463C291.622 55.9265 291.518 55.5107 291.449 55.1296C291.172 53.7782 289.822 53.7436 289.441 53.7782C288.818 53.7782 287.607 54.0554 287.33 55.3375C287.26 55.6147 287.26 55.8226 287.26 56.0305C287.26 56.5502 287.364 56.9314 287.399 57.2086C287.399 57.763 287.364 58.0748 287.26 58.5253C287.191 58.9757 286.949 59.3915 286.949 60.1538C286.984 60.8815 287.33 61.3319 287.607 61.5398C287.987 61.817 288.403 61.921 288.784 61.921C289.13 61.921 289.441 61.8517 289.684 61.817C290.237 61.6438 290.653 61.3319 290.895 60.9161C291.207 60.431 291.241 60.0499 291.241 59.7034V59.1836C291.241 58.9411 291.311 58.5599 291.311 58.456C291.345 58.4213 291.345 58.3867 291.345 58.3174C291.38 58.0748 291.449 57.7283 291.449 57.7283ZM288.299 39.4678C288.264 39.5717 288.264 39.6757 288.264 39.7796C288.264 40.0915 288.368 40.4033 288.645 40.6459C289.06 41.0617 289.684 41.1656 290.272 41.1656C290.895 41.1656 291.449 41.0617 291.657 40.9924C291.761 40.9577 291.934 40.9577 292.141 40.9577C292.418 40.9577 292.799 40.9924 293.145 40.9924L295.014 41.027C295.257 41.027 295.499 40.9924 295.776 40.9924C296.884 40.9924 298.303 41.131 298.753 41.1656C298.926 41.2003 299.099 41.2003 299.307 41.2003C300.068 41.2003 300.865 40.9231 301.418 40.4726C301.695 40.2301 301.903 39.8489 301.903 39.4678C301.903 39.3292 301.868 39.1906 301.834 39.0866C301.592 38.1857 300.449 37.2848 299.238 37.0423H299.168L297.299 36.973C296.468 36.973 295.534 36.973 294.634 36.8344C294.426 36.7997 294.184 36.7997 293.907 36.7997C293.007 36.7997 291.691 36.9383 290.687 37.2848C289.407 37.7353 288.507 38.4976 288.299 39.4678ZM281.653 59.738C282.76 58.9757 283.418 48.1303 283.453 44.2495C283.453 44.0416 283.453 43.106 283.176 42.1358C282.899 41.2003 282.38 40.1954 281.272 39.9875C281.168 39.9529 280.095 39.641 280.06 39.641C279.541 39.4678 279.022 39.2945 278.537 39.2945C278.329 39.2945 278.156 39.3292 277.949 39.3985C277.741 39.4678 277.36 39.5717 276.841 39.5717C276.564 39.5717 276.218 39.5371 275.837 39.4678C275.214 39.3292 274.591 39.2599 274.037 39.2599C273.206 39.2599 272.445 39.3985 271.649 39.6757C270.541 40.0568 269.745 40.8191 269.745 41.6507C269.745 41.7547 269.745 41.8586 269.779 41.9626C269.848 42.4477 270.368 42.9674 271.233 42.9674H271.579C272.202 42.9328 273.137 42.8288 274.037 42.8288C274.487 42.8288 274.902 42.8635 275.249 42.8981C275.837 42.9674 276.079 43.1407 276.599 43.3832L278.018 44.0416C278.503 44.2148 278.745 44.2841 278.953 44.4227C279.195 44.5613 279.506 44.6306 279.576 44.9425C279.61 45.1504 279.645 45.4276 279.645 45.7048C279.645 46.0859 279.576 46.4671 279.506 46.7096C279.403 46.9522 279.368 47.2294 279.299 47.4373C279.229 47.6452 279.126 47.7491 279.056 47.7491H279.022C278.849 47.7491 278.641 47.7145 278.468 47.6452C278.295 47.6105 278.191 47.5412 278.191 47.5412L277.222 47.1947C277.049 47.1254 276.149 47.0215 275.145 47.0215C273.968 47.0215 272.652 47.1601 272.133 47.9917L271.995 48.3035C271.925 48.4075 271.579 49.447 271.579 49.447C271.51 49.5856 271.51 49.7588 271.51 49.9321C271.51 50.3479 271.649 50.6944 271.925 51.0062C272.341 51.526 273.033 51.6992 274.037 51.6992C275.145 51.6992 276.391 51.8032 278.226 52.0111C279.403 52.1497 279.714 52.4615 279.749 53.605C279.749 54.5405 279.022 54.7138 278.641 54.8177C278.226 54.9217 278.053 55.1296 277.949 55.3375C277.845 55.5107 277.845 55.6147 277.672 55.7186C277.36 55.9265 277.187 56.0998 276.806 56.1344C276.356 56.1344 275.283 56.0998 274.799 56.0651H274.764C274.66 56.0651 274.176 55.9958 274.176 55.9958C274.037 55.9958 273.899 55.9612 273.795 55.9612C273.137 55.9612 272.583 56.1691 272.168 56.5502C271.718 57.0007 271.51 57.5897 271.51 58.3867C271.475 60.0152 272.756 60.1885 273.241 60.1885C273.275 60.1885 273.345 60.1885 273.483 60.2231C273.656 60.2578 273.829 60.2578 273.968 60.2578C275.076 60.2578 275.768 59.8766 276.045 59.6687C276.287 59.4262 276.737 59.2876 276.841 59.2529H276.91C277.187 59.2529 277.256 59.3222 277.326 59.3915C277.395 59.4608 277.395 59.5648 277.429 59.7034C277.499 59.9113 277.499 60.3271 277.706 60.7082C277.81 60.8815 277.879 61.0201 278.122 61.124C278.329 61.2626 278.641 61.3666 279.195 61.5052C279.506 61.5745 279.783 61.6091 280.026 61.6091C280.787 61.6091 280.718 60.6389 281.168 60.3271L281.653 59.738V59.738ZM299.445 65.8711C299.307 65.8711 299.203 65.8711 299.065 65.9057C298.303 65.9404 297.784 66.3562 297.438 66.668C297.126 66.9106 296.849 67.0838 296.365 67.1531C296.053 67.1878 295.499 67.1878 294.841 67.1878C294.357 67.1878 293.838 67.1878 293.353 67.1531H291.761C290.272 67.1531 289.511 67.1878 288.991 67.4303C288.472 67.6729 288.057 68.1233 287.503 68.6431C286.949 69.1975 286.36 69.7865 285.876 69.9944C285.114 70.3409 284.664 70.7567 284.318 71.0686L283.66 71.4844C283.349 71.5883 282.83 71.623 282.31 71.623C281.583 71.623 280.822 71.519 280.683 71.3804L280.303 71.1032C279.576 70.5142 278.883 69.8212 278.572 68.1233C278.572 67.9847 278.537 67.8115 278.537 67.6382C278.537 67.0492 278.606 66.3215 278.676 65.2474V65.0741C278.71 64.3118 278.329 63.5842 277.291 63.4109C277.152 63.3763 277.049 63.3763 276.91 63.3763C275.629 63.3763 274.037 64.2772 273.102 64.9009C272.825 65.0741 272.514 65.2127 272.514 65.2127C271.129 66.0097 268.533 68.054 267.321 69.1628L266.975 69.44C266.11 70.3063 265.556 70.7221 265.245 70.7221C265.175 70.7221 265.141 70.7221 265.071 70.6874C264.275 70.4795 263.202 69.7172 263.237 68.9896C263.237 68.9896 263.237 68.9549 263.271 68.8856V68.8163C263.271 68.5391 263.375 67.9501 263.41 67.6729C263.444 67.5689 263.444 67.4303 263.444 67.2917C263.444 67.0145 263.41 66.7373 263.41 66.5987C263.375 66.3562 263.375 66.2176 263.341 66.0097C263.306 65.8364 263.306 65.2127 263.168 64.9355C263.098 64.7969 263.064 64.7276 263.064 64.589C263.064 64.4851 263.064 64.4158 263.098 64.2772C263.133 63.9653 263.271 63.8614 263.41 63.7228C263.514 63.6188 263.895 63.4109 263.895 63.4109C264.587 62.9951 265.21 62.5793 265.521 62.0249C265.798 61.5398 266.006 60.5696 266.006 59.6687C266.006 59.0797 265.937 58.3174 265.487 57.8669C265.175 57.4858 264.725 57.3818 264.171 57.3818C263.894 57.3818 263.618 57.4165 263.271 57.4165C262.925 57.4511 262.51 57.4511 262.094 57.4511C261.541 57.4511 261.021 57.3818 260.779 57.2432C259.775 56.6542 259.256 55.5454 259.256 53.9168V53.5357C259.291 52.808 259.36 52.4269 259.464 52.2883C259.567 52.1497 259.637 52.1497 259.879 52.115L261.056 52.1497C261.61 52.1843 262.129 52.1843 262.544 52.1843C263.237 52.1843 263.825 52.115 264.241 51.9071C265.002 51.4567 265.487 50.9023 265.487 50.2093V50.0707C265.487 49.6549 265.21 49.0312 264.345 48.6847C263.929 48.4768 263.479 48.4421 263.064 48.4421H262.544C262.198 48.4768 261.818 48.4075 261.748 48.3382H261.679C261.679 48.3382 261.471 48.2342 261.367 48.1649H261.333L261.298 48.1303C261.194 48.0956 261.125 47.9917 261.091 47.8531C261.021 47.7145 260.987 47.6105 260.987 47.4719V46.9868C260.987 46.675 260.883 46.2592 260.433 45.9473C260.225 45.7741 259.879 45.5662 259.394 45.5662C259.256 45.5662 259.117 45.5662 258.979 45.6008L258.079 45.9127C257.629 46.0513 257.248 46.1899 256.902 46.1899C256.764 46.1899 256.59 46.1552 256.452 46.1206C255.864 45.9473 254.86 45.2197 254.86 42.2744C254.86 39.8836 257.352 37.9432 258.875 37.2155V37.1809C259.014 37.1116 259.291 37.0076 260.017 36.6611C261.194 36.1414 263.098 35.1019 263.825 34.5128C264.483 33.9584 264.345 34.1663 265.106 33.5426C266.387 32.6071 267.529 31.7755 268.048 30.5281C268.568 29.35 268.602 29.3846 268.914 29.1421C269.052 29.0035 269.225 28.9342 269.364 28.9342C269.433 28.9342 269.502 28.9342 269.572 28.9688C269.814 29.0381 270.056 29.3153 270.402 29.6272C270.645 29.9044 271.06 30.6667 271.752 31.1864L272.652 31.7755C273.137 32.0527 273.518 32.3299 273.622 32.5031C274.037 33.0229 274.591 33.1268 275.041 33.1268C275.318 33.1268 275.526 33.0922 275.629 33.0922H275.906C276.149 33.0922 276.356 33.1268 276.703 33.2654C277.187 33.4733 278.122 33.9238 278.849 33.9584C279.714 33.9584 280.683 33.3001 280.856 33.1268C281.03 32.9882 281.099 32.8843 281.41 32.6764C281.964 32.1913 282.103 31.9487 282.276 31.6369L282.31 31.5676C282.345 31.5329 282.414 31.4636 282.483 31.3597C282.656 31.2211 282.968 31.0132 283.591 30.9439C284.11 30.9439 285.772 31.5329 286.672 31.5329C286.776 31.5329 286.88 31.5329 286.949 31.4983C287.157 31.429 287.503 31.3943 288.16 31.3943C288.887 31.3943 289.961 31.4636 291.553 31.6369L296.122 31.7755C296.122 31.7755 297.472 31.8448 298.061 31.8448C298.718 31.8101 300.034 31.6715 300.034 31.6715C300.588 31.5676 300.899 31.5329 301.176 31.5329C301.418 31.5329 301.73 31.6022 301.972 31.6715C302.18 31.8448 302.492 31.8448 303.011 31.9487C303.669 32.018 303.98 32.1913 304.257 32.4338C304.949 32.9882 305.572 33.1268 306.68 33.1268H306.819C307.407 33.1268 307.822 33.508 308.272 34.1663C308.549 34.5475 308.619 34.8247 308.619 35.0326C308.619 35.2058 308.515 35.4137 308.342 35.7602C308.03 36.3839 307.407 36.9037 306.576 37.5967L306.507 37.6313V37.666C306.507 37.7006 306.472 37.7006 306.472 37.7006C305.503 38.4976 305.088 39.3985 305.088 40.7845L305.157 42.7595L305.088 43.4179C305.088 43.4179 305.088 44.0762 305.019 44.5613C304.949 45.0464 304.776 45.6355 304.776 46.2592C304.776 46.3285 304.88 47.8531 304.88 47.8531V48.0263L305.019 49.2391C305.019 49.2391 305.088 49.8281 305.088 50.1746V50.3132C305.088 50.7637 304.984 50.9023 304.845 51.3181C304.707 51.8032 304.499 51.9071 304.153 52.0804C303.772 52.1843 303.115 52.2536 303.115 52.2536L302.007 52.4962C301.072 52.7387 300.415 53.5357 300.311 54.5059V54.7831C300.311 55.58 300.622 56.2037 301.245 56.5849C301.73 56.8621 302.595 57.9016 302.976 58.352L303.392 58.8025C304.465 60.0152 305.953 61.7477 307.303 62.3021C307.753 62.51 308.065 62.7872 308.411 63.0991C308.861 63.5149 309.38 64.0346 310.211 64.2079C310.696 64.3465 311.319 64.4158 311.838 64.4158C311.976 64.4158 312.15 64.4158 312.288 64.3811C312.565 64.3465 312.738 64.2772 312.807 64.2772C312.876 64.2772 312.842 64.2425 312.946 64.4851C313.015 64.6583 313.05 64.8316 313.05 65.0395C313.05 65.8711 312.496 66.8066 312.149 67.1185C311.734 67.5689 311.561 67.7422 311.076 68.2619C310.557 68.7817 309.588 70.133 308.515 70.6528C308.099 70.8607 307.788 70.9993 307.372 70.9993C306.992 70.9993 306.507 70.8607 305.745 70.4449C304.257 69.6826 303.738 69.2668 302.942 68.0887C302.145 66.7373 300.865 65.8711 299.445 65.8711V65.8711ZM231.459 63.3416C231.494 63.2723 231.113 62.9951 230.594 62.9951C230.074 62.9605 229.59 62.9605 229.071 62.9605C226.474 62.9258 223.67 63.0298 220.659 63.2723C220.209 63.3416 219.69 63.3763 219.066 63.3763C218.34 63.3763 217.543 63.307 216.643 63.203H216.401C214.082 63.1684 212.386 63.7574 211.278 64.9009C210.897 65.386 210.759 65.7671 210.759 66.0097C210.759 66.1483 210.793 66.2522 210.932 66.3908C211.278 66.8413 211.693 67.0492 212.109 67.0492C212.316 67.0492 212.524 67.0145 212.732 66.9452C214.289 66.2176 215.639 65.8364 216.816 65.8364H216.92C217.82 65.8711 218.72 65.8711 219.586 65.9057C223.013 65.9404 227.721 65.8711 230.767 65.6978C231.113 65.6978 231.321 65.7325 231.459 65.4553L231.632 65.3513C231.701 65.282 231.667 65.1088 231.736 65.0395C231.701 64.4504 231.459 63.9307 231.459 63.3416V63.3416ZM236.79 56.7928C237.482 56.7928 238.071 57.0353 238.452 57.5204C238.832 58.0055 239.005 58.6639 239.005 59.5648C239.005 59.738 239.005 59.9459 238.971 60.1538V60.1885L238.936 60.2231C237.69 61.8517 238.486 63.9653 238.486 66.6334C238.486 67.2571 238.521 67.8808 238.59 68.5391V68.6084C238.348 70.5488 236.686 71.5537 233.882 71.4844C233.398 71.4844 232.913 71.4497 232.394 71.3804H231.701C231.113 71.1725 230.524 71.1032 230.04 71.1032C229.728 71.1032 227.997 71.1379 227.721 71.2072H226.89C225.92 71.2072 225.332 71.1379 225.055 71.0686C225.02 71.0339 224.951 71.0339 224.882 70.9646C224.363 70.93 223.844 70.93 223.324 70.93C219.066 70.8953 213.77 71.1725 207.332 71.6576H207.262C204.77 71.2072 203.42 70.3063 203.42 68.9549C203.42 68.8163 203.42 68.6777 203.455 68.5045V68.4698L203.489 68.4352C204.008 67.6729 204.251 66.9106 204.251 66.1483C204.251 66.0097 204.251 65.8364 204.216 65.6632C204.147 65.4553 204.112 65.2127 204.112 64.9702C204.112 64.6237 204.182 64.2772 204.32 63.896C204.355 63.4109 204.355 63.0991 204.389 62.9258V62.8912L204.424 62.8565C204.528 62.7179 204.562 62.4754 204.562 62.1289C204.562 61.8863 204.528 61.6091 204.493 61.2626V61.1933C204.528 60.8815 204.528 60.6389 204.528 60.5003C204.424 60.1538 204.389 59.842 204.389 59.5648C204.389 59.045 204.562 58.6292 204.943 58.352C205.289 58.0748 205.808 57.9709 206.466 57.9709C207.124 57.9709 207.885 58.1095 208.82 58.352C209.512 58.456 210.274 58.5253 211.105 58.5253C212.039 58.5253 213.043 58.4906 214.151 58.352C214.947 58.2134 217.474 58.1441 221.767 58.0402C225.609 57.8323 228.378 57.6937 230.005 57.6937C230.421 57.6937 230.801 57.7283 231.078 57.7283C231.355 57.763 231.632 57.763 231.874 57.763C233.155 57.763 234.159 57.5551 234.886 57.1393H234.921C235.613 56.8967 236.236 56.7581 236.79 56.7928V56.7928ZM215.259 50.2093C213.286 50.3132 211.97 50.8676 211.243 51.8725C210.966 52.2883 210.862 52.6001 210.862 52.7387V52.7734C211.105 52.7734 211.624 52.7041 212.386 52.6001C215.709 51.9764 218.305 51.6299 220.209 51.6646C221.04 51.6646 221.767 51.7685 222.32 51.9071H224.19C224.64 51.7339 225.609 51.6646 227.167 51.6646C227.721 51.3527 227.997 50.9716 227.997 50.4518C227.997 50.2439 227.963 50.036 227.894 49.8281C224.847 49.5856 222.632 49.4123 221.178 49.4123C220.243 49.4123 219.62 49.447 219.413 49.5509C218.547 50.0014 217.266 50.2093 215.674 50.1746C215.501 50.2093 215.363 50.2093 215.259 50.2093V50.2093ZM205.393 51.9071L205.428 51.8725C205.808 51.3874 205.982 50.7983 205.982 50.0707C205.982 49.7242 205.947 49.343 205.843 48.9272C205.739 48.5461 205.705 48.1996 205.705 47.8877C205.705 47.3333 205.843 46.9175 206.189 46.6057C206.535 46.3285 206.985 46.1899 207.574 46.1899H207.816C208.509 46.2938 209.27 46.3285 210.066 46.3631C211.693 46.3631 213.528 46.2245 215.536 45.8434C216.747 45.4622 218.409 45.289 220.59 45.3236C221.732 45.3236 223.013 45.3929 224.432 45.4969C225.505 45.5315 226.474 45.5662 227.374 45.6008C229.14 45.6355 230.559 45.5662 231.632 45.4276C232.394 45.2197 233.051 45.0811 233.675 45.1157C234.505 45.1157 235.232 45.3583 235.821 45.8434C236.34 46.3631 236.617 46.9522 236.617 47.6105C236.617 48.1649 236.409 48.7886 236.028 49.4123C235.855 49.7588 235.509 50.2439 234.99 50.9023C233.986 52.3576 233.501 53.3278 233.501 53.7089V53.7782C233.19 55.3028 232.186 56.1344 230.663 56.1344C223.809 56.273 219.551 56.2384 217.855 56.3423H217.301C215.086 56.3077 212.974 56.4809 210.932 56.8274H210.897C207.297 56.6888 205.393 54.991 205.393 52.0111V51.9071V51.9071ZM223.67 38.3936C224.017 37.9778 224.19 37.562 224.19 37.2155C224.19 36.973 224.12 36.7304 223.947 36.4879C222.84 36.3493 221.767 36.28 220.728 36.28C219.24 36.28 217.855 36.3839 216.539 36.6265C216.089 36.973 215.882 37.3195 215.882 37.7006C215.882 38.0125 216.02 38.359 216.297 38.7748C216.782 39.1906 217.543 39.3985 218.547 39.3985C219.828 39.4331 221.559 39.0866 223.67 38.3936V38.3936ZM247.244 40.2994C247.763 40.6459 247.729 41.4775 247.729 42.1358C247.729 42.4823 247.659 42.8635 247.521 43.3139C247.313 43.7297 247.175 44.3881 247.175 45.2543C247.175 45.982 247.694 48.5807 247.867 49.5856V49.6549C247.521 51.8725 246.171 53.2238 243.921 53.5357C243.506 53.605 243.125 53.6396 242.813 53.6396C242.363 53.6396 242.017 53.5703 241.775 53.3971C241.532 53.2238 241.359 52.9813 241.359 52.6694C241.359 52.5308 241.394 52.3922 241.429 52.2536C241.394 51.8378 241.394 51.3874 241.394 50.9023C241.394 50.2786 241.429 49.5856 241.463 48.8579C241.429 48.1996 240.944 45.6355 240.909 45.3236V45.2543C240.944 45.1157 240.979 45.0118 240.979 44.9078C240.979 44.6653 240.875 44.5267 240.632 44.3881C240.355 44.2495 239.94 44.1455 239.352 44.1109H239.317C236.825 43.5565 234.228 43.6258 231.528 43.5911H230.178C229.901 43.5911 229.59 43.5565 229.244 43.5565C226.059 43.5218 220.07 43.7644 211.209 43.799H211.174C210.828 43.799 209.928 43.8683 207.055 44.1109C206.362 44.1109 205.185 44.0762 204.632 44.2148H204.597C203.039 44.2495 201.758 46.4671 201.101 48.1649C199.404 50.729 197.604 52.0457 195.77 52.0111C195.354 52.0111 194.939 51.9418 194.524 51.8032H194.489L194.454 51.7685C193.866 51.2141 193.554 50.5211 193.554 49.7935C193.554 48.9619 193.9 48.0956 194.593 47.1254C195.354 46.0513 195.701 44.9771 195.701 43.903C195.701 43.4872 195.666 43.106 195.562 42.6902V42.6556C195.562 41.8933 195.804 40.9577 196.324 40.5766C196.843 40.1954 197.57 40.0222 198.539 40.0222C198.954 40.0222 199.681 39.8489 200.201 39.9182C201.101 40.1608 201.447 39.8143 202.174 39.8143C202.831 39.8143 203.662 39.8143 204.182 39.745C205.635 39.5024 207.366 39.8489 209.478 39.4678C209.859 39.1213 210.032 38.4976 210.032 38.0471C210.032 37.7699 209.962 37.4234 209.789 37.0769C209.582 37.0423 209.339 37.0076 209.028 37.0076C208.301 37.0076 207.297 37.1116 206.016 37.3541C204.943 37.7699 203.316 37.9778 201.135 37.9432H200.893C200.685 37.9085 200.478 37.9085 200.27 37.9085C199.854 37.9085 199.439 37.9432 199.093 38.0125C198.02 38.4629 196.843 38.6708 195.631 38.6362C194.974 38.6362 194.316 38.5669 193.658 38.4283H193.589C192.793 38.0471 192.447 37.2155 192.447 36.1067C192.447 35.8988 192.447 35.6563 192.481 35.4484V34.9633C192.481 34.2356 192.585 33.2308 192.862 32.8496C193.104 32.4685 193.52 32.2606 194.039 32.2606C194.212 32.2606 194.385 32.1566 194.558 32.1913C194.835 32.2259 195.112 32.2606 195.424 32.2606C196.497 32.2606 197.57 32.2259 198.678 31.8101C199.958 31.2904 201.62 31.4983 203.697 31.5329C204.285 31.5329 204.874 31.5676 205.532 31.6022C205.843 31.6369 206.12 31.6369 206.397 31.6369C208.059 31.6715 208.889 31.2904 208.993 30.7013C209.755 29.1074 210.447 28.2065 211.243 28.0333C211.382 27.964 211.555 27.9293 211.728 27.9293C212.42 27.9293 213.112 28.4837 213.909 29.4193C215.432 31.0132 216.816 31.7755 217.959 31.8101C218.166 31.8101 218.34 31.7755 218.547 31.7408C219.724 31.6022 221.178 31.3943 222.874 31.0825C224.017 30.9439 224.778 30.8399 225.159 30.8399C226.128 30.5281 226.751 30.043 227.028 29.4539V29.4193L227.063 29.3846C227.928 28.7263 228.724 28.3798 229.451 28.3798C230.559 28.3798 231.39 29.2807 231.978 30.8746V30.9439C232.013 31.4636 232.255 31.6715 232.982 31.7062H233.121C234.921 31.8101 236.928 31.8794 239.179 31.9141H239.525C240.009 31.8794 240.425 31.8794 240.805 31.8448C241.705 31.8448 243.021 31.9141 243.159 31.8448C245.375 31.8448 246.829 32.4685 247.833 33.3694L248.317 34.5475L248.802 35.0326L249.044 35.7602V35.7949L248.594 36.4186L247.936 36.4532V36.5225C247.244 36.7997 246.102 36.9037 245.029 36.869C244.025 36.869 243.609 36.5918 242.329 36.5918C238.728 36.5918 234.99 36.5918 233.225 36.3146C233.017 36.28 232.844 36.2453 232.671 36.2453C231.771 36.2453 231.044 36.7304 230.351 37.8046C230.213 37.9778 230.178 38.1511 230.178 38.255C230.178 38.4976 230.351 38.7401 230.871 38.948C231.355 39.1559 232.151 39.3292 233.155 39.3985C233.571 39.3985 233.951 39.3638 234.332 39.3985C236.236 39.4331 238.209 39.1906 239.282 39.6757C239.836 39.8489 240.702 39.745 241.463 39.745C242.329 39.745 242.917 40.0568 244.094 39.7796C244.406 39.745 244.717 39.745 244.994 39.745C245.998 39.8143 246.725 39.9529 247.244 40.2994V40.2994ZM173.996 49.5856C172.854 49.447 171.4 49.3777 169.635 49.3777C167.696 49.3777 165.411 49.447 162.746 49.5856C160.807 50.2786 159.907 51.4913 159.873 53.501C159.907 53.9168 159.838 54.5405 159.873 55.3375C159.873 55.684 160.046 56.0998 160.046 56.5502C160.046 56.8274 160.046 57.1393 160.08 57.4511C160.115 58.352 159.907 59.3915 159.942 60.535C159.977 62.2328 160.219 64.2079 160.219 66.4255C160.254 66.668 160.08 67.9154 160.08 68.1233C160.08 69.8905 158.73 71.7269 157.934 71.623C157.207 71.519 156.619 70.4449 156.203 70.2716C156.203 70.2716 155.58 68.8856 155.269 68.5738C154.992 68.2619 155.13 67.8461 155.13 67.3264V67.2917C155.13 66.4601 154.784 65.9404 154.784 64.4504C154.715 63.2377 154.923 63.6188 154.923 62.6486C154.923 61.3666 154.369 61.228 154.853 59.4608C155.442 57.3125 155.165 55.1989 155.2 52.0804V52.0457C155.165 51.0062 154.784 50.5211 153.884 50.3479H153.607C150.838 50.3479 146.13 50.833 139.449 51.526C138.168 52.115 136.922 52.4962 135.676 52.5655H135.641C135.434 52.5655 135.261 52.5308 135.088 52.5308C134.638 52.5308 134.257 52.5655 133.876 52.6694H133.807C133.287 52.6348 132.941 52.6001 132.768 52.6001C132.041 52.5308 131.487 52.3922 131.107 52.115C130.691 51.8725 130.449 51.4567 130.484 50.9716C130.484 50.5211 130.691 50.0014 131.037 49.4123H131.003L131.037 49.3777C131.107 49.3084 131.211 49.2391 131.314 49.1698C131.661 48.7193 131.972 48.1649 132.18 47.5412V47.4719C132.837 46.2938 133.391 45.6008 134.049 45.4276C138.549 44.3188 141.215 43.106 142.011 42.1358C142.565 41.3389 143.084 40.8884 143.707 40.8538C144.503 40.438 145.334 39.6064 146.199 38.359C146.442 38.0471 146.546 37.8046 146.546 37.562C146.546 37.3888 146.476 37.2155 146.338 37.0076C146.095 37.0076 145.888 36.973 145.68 36.973C144.33 36.973 143.534 37.2848 143.153 37.8739L143.119 37.9432V37.9778C141.838 38.6015 138.515 38.9827 132.976 39.0173C132.041 38.9827 131.28 38.7055 130.795 38.1164C130.31 37.5274 130.068 36.7304 130.068 35.6909V35.483C130.137 34.201 130.276 33.2654 130.553 32.5724C130.795 31.9141 131.245 31.4636 131.834 31.4636C131.972 31.4636 132.111 31.4983 132.249 31.5329C132.976 31.7408 133.634 31.8448 134.222 31.8448C134.603 31.8448 134.949 31.8101 135.261 31.7062C135.745 31.4983 136.368 31.429 137.13 31.429C138.03 31.429 139.138 31.5676 140.488 31.8101C141.422 31.8448 142.322 31.8794 143.153 31.8794C147.238 31.8794 150.042 31.325 151.461 30.3895C152.292 29.1421 153.019 28.4144 153.78 28.2412L153.815 28.4837L153.78 28.2412H153.953C154.438 28.2412 154.853 28.4491 155.096 28.8649C155.338 29.2807 155.442 29.8004 155.442 30.4934V30.5281C155.546 31.0132 155.857 31.3597 156.411 31.6369C156.965 31.9141 157.796 32.0527 158.869 32.0527C159.215 32.0527 159.596 32.0527 160.011 32.018C162.261 31.9141 166.138 31.9834 171.608 31.9141C172.473 31.9141 173.269 31.8794 173.962 31.8794C176.385 31.8794 177.839 31.9487 178.462 32.1913C178.704 32.2259 178.946 32.2606 179.223 32.2606C179.673 32.2606 180.192 32.1913 180.746 32.0873H181.023C181.404 32.0873 181.681 32.122 181.923 32.2606C182.166 32.3992 182.339 32.6417 182.339 32.9189C182.373 33.3001 182.408 33.6812 182.408 33.9931C182.408 35.1712 182.166 35.9681 181.508 36.2107C180.192 36.869 178.773 37.2155 177.215 37.2155C176.558 37.2155 175.9 37.1462 175.242 37.0423C174.1 36.9383 171.296 36.8344 166.865 36.5225C163.715 36.4186 161.223 36.3493 159.423 36.3493C158.696 36.3493 158.107 36.3493 157.623 36.3839C155.546 36.7997 153.296 37.9778 150.803 39.9875C149.349 41.3042 148.346 42.6902 147.792 44.0416C148.484 44.4227 149.696 44.6306 151.288 44.6306C152.188 44.6306 153.261 44.5613 154.473 44.4227C155.407 43.9723 156.1 43.1753 156.584 41.9279C156.827 40.8884 157.103 40.0915 157.346 39.5371C157.623 38.9827 157.865 38.6362 158.315 38.6015H158.384C159.388 38.8441 159.977 39.9529 160.323 41.7547C160.392 42.2398 160.53 42.5516 160.669 42.7595C160.807 42.9674 160.946 43.0021 161.084 43.0367H161.154C161.811 43.21 163.404 43.4525 165.896 43.7297C166.588 43.7644 167.211 43.799 167.765 43.799C168.631 43.799 169.254 43.7297 169.6 43.6258H169.669C171.85 43.5565 173.477 43.4872 174.585 43.4872C175.277 43.4872 175.762 43.5218 176.039 43.5565C176.523 43.6258 177.042 43.6604 177.596 43.6604C177.977 43.6604 178.358 43.6604 178.739 43.6258C179.119 43.5218 179.431 43.4525 179.708 43.4525C179.881 43.4525 180.054 43.4872 180.192 43.5911C180.366 43.7297 180.435 43.9723 180.435 44.2148C180.435 44.3881 180.4 44.5613 180.331 44.8039V44.8732L180.296 44.9078C180.296 44.9078 180.262 44.9425 180.262 45.0811C180.262 45.289 180.331 45.6008 180.469 46.0513V46.1206C180.504 46.4324 180.504 46.675 180.539 46.8136V46.9175C179.95 48.7886 177.873 49.6895 174.481 49.6895C174.308 49.5856 174.169 49.5856 173.996 49.5856V49.5856ZM186.666 61.2626V61.2973C186.666 61.5745 186.493 61.8517 186.216 62.3368C184.519 64.7969 182.477 66.5641 180.019 67.6382C179.292 67.9501 178.496 68.0887 177.665 68.0887C176.627 68.0887 175.519 67.8461 174.308 67.4303H174.273L174.238 67.3957C171.261 65.3167 168.423 62.0942 165.723 57.659C165.377 56.8967 165.204 56.273 165.204 55.7533C165.204 55.1642 165.515 54.7138 166.034 54.6098C166.277 54.5059 166.519 54.4366 166.761 54.4366C167.35 54.4366 167.904 54.7138 168.527 55.1989C169.877 56.1344 171.746 57.07 174.135 57.8669C177.25 58.4906 179.777 59.3222 181.785 60.3964C182.893 60.8468 183.827 61.0894 184.623 61.0894C184.97 61.0894 185.246 61.0547 185.558 60.9854C185.696 60.9161 185.87 60.8468 186.043 60.8468C186.285 60.8468 186.493 60.9854 186.631 61.1587L186.666 61.228V61.2626V61.2626ZM149.038 54.9563C149.142 55.3375 149.176 55.7186 149.176 56.0998C149.176 56.966 148.899 57.763 148.38 58.4906C144.988 62.614 143.638 65.7325 138.688 67.5343C138.376 67.6729 137.268 68.3659 136.957 68.5045C135.364 69.1975 134.014 69.1282 132.387 69.3361H132.318C130.864 69.0935 130.172 68.2966 129.48 67.0492C128.441 63.4456 131.626 61.1933 131.695 61.2626C131.695 61.2973 132.491 61.2626 132.491 61.2626C140.003 60.6389 142.115 58.352 146.407 55.0256L146.546 55.1989L146.407 54.991C146.892 54.6445 147.411 54.4366 147.861 54.4366C148.242 54.4366 148.588 54.5752 148.934 54.8177L149.003 54.887L149.038 54.9563V54.9563ZM298.268 89.3984C299.515 89.3984 300.415 89.2599 301.003 88.9827C301.592 88.7055 302.042 88.3243 302.353 87.8045C302.665 87.3194 302.838 86.6611 302.838 85.8988C302.838 85.1365 302.665 84.4781 302.353 83.993C302.042 83.5079 301.592 83.1268 301.038 82.8496C300.449 82.607 299.549 82.4684 298.268 82.4684V89.3984ZM298.268 90.4033V96.7096C298.268 97.1601 298.407 97.5412 298.615 97.7491C298.857 97.9917 299.203 98.0956 299.688 98.0956C300.38 98.0956 301.038 97.957 301.626 97.6452C302.215 97.3333 302.665 96.8828 302.976 96.3284C303.288 95.7394 303.461 95.0811 303.461 94.3881C303.461 93.5565 303.253 92.8288 302.872 92.1704C302.492 91.5121 301.972 91.0616 301.28 90.7844C300.622 90.5072 299.618 90.4033 298.268 90.4033V90.4033ZM303.045 89.7449C304.742 90.1261 305.919 90.6112 306.611 91.1656C307.58 91.9626 308.065 92.9674 308.065 94.2148C308.065 95.5315 307.511 96.6403 306.438 97.5066C305.122 98.5461 303.184 99.0658 300.692 99.0658H291.657V98.5807C292.487 98.5807 293.041 98.5114 293.318 98.3382C293.595 98.1996 293.803 97.9917 293.941 97.7491C294.045 97.5066 294.114 96.9175 294.114 95.9473V84.5474C294.114 83.6119 294.045 82.9882 293.941 82.7457C293.838 82.5031 293.63 82.2952 293.318 82.1566C293.007 82.018 292.453 81.9487 291.657 81.9487V81.4636H300.172C302.215 81.4636 303.634 81.6368 304.499 82.018C305.33 82.3645 306.022 82.9189 306.507 83.6119C306.992 84.3396 307.234 85.0672 307.234 85.8988C307.234 86.7304 306.922 87.4927 306.299 88.151C305.711 88.8094 304.603 89.3638 303.045 89.7449V89.7449ZM319.661 93.0714L317.03 87.0076L314.33 93.0714H319.661ZM320.111 94.0416H313.88L313.153 95.7394C312.911 96.2938 312.773 96.7789 312.773 97.1601C312.773 97.6452 312.98 98.0263 313.361 98.2342C313.603 98.3728 314.157 98.4768 315.092 98.5461V99.0312H309.207V98.5461C309.83 98.4421 310.349 98.1996 310.765 97.7491C311.18 97.3333 311.665 96.4324 312.288 95.0811L318.588 81.0132H318.83L325.2 95.4622C325.823 96.8135 326.308 97.6798 326.688 98.0609C327 98.3381 327.415 98.4768 327.935 98.5461V99.0312H319.384V98.5461H319.73C320.423 98.5461 320.907 98.4421 321.184 98.2689C321.357 98.1303 321.461 97.9224 321.461 97.6798C321.461 97.5412 321.427 97.3679 321.392 97.1947C321.357 97.1254 321.254 96.7789 321.011 96.2245L320.111 94.0416V94.0416ZM334.65 81.4636L343.408 92.3784V84.8247C343.408 83.7852 343.269 83.0575 342.958 82.6763C342.543 82.1912 341.85 81.9487 340.846 81.9487V81.4636H346.696V81.9487C345.935 82.0526 345.45 82.1566 345.173 82.3298C344.931 82.4684 344.723 82.711 344.585 83.0575C344.446 83.404 344.377 83.9931 344.377 84.8247V99.4469H343.927L331.915 84.8247V95.9819C331.915 96.9868 332.158 97.6798 332.608 98.0263C333.058 98.3728 333.612 98.5461 334.2 98.5461H334.615V99.0312H328.315V98.5461C329.285 98.5461 329.977 98.3381 330.358 97.957C330.738 97.5758 330.946 96.9175 330.946 95.9819V83.5772L330.565 83.1268C330.185 82.6417 329.873 82.3645 329.561 82.1912C329.285 82.0526 328.869 81.9487 328.315 81.9487V81.4636H334.65V81.4636ZM358.328 88.2204L364.489 95.9473C365.355 97.0561 366.116 97.7838 366.739 98.1649C367.189 98.4421 367.674 98.5807 368.193 98.5807V99.0658H359.054V98.5807C359.643 98.5114 359.989 98.4421 360.162 98.3035C360.335 98.1649 360.405 98.0263 360.405 97.8184C360.405 97.4719 360.024 96.7789 359.228 95.7741L355.212 90.7152L354.554 91.2695V96.0512C354.554 96.9521 354.589 97.5412 354.693 97.7491C354.797 97.9917 355.004 98.1649 355.281 98.3382C355.593 98.5114 356.043 98.5807 356.701 98.5807V99.0658H347.873V98.5807H348.462C348.981 98.5807 349.397 98.4767 349.673 98.3035C349.916 98.1995 350.089 97.957 350.193 97.6798C350.297 97.4719 350.331 96.9175 350.331 96.0512V84.4782C350.331 83.5773 350.297 83.0228 350.193 82.7803C350.089 82.5377 349.916 82.3645 349.604 82.1912C349.327 82.018 348.912 81.9487 348.427 81.9487H347.839V81.4636H356.562V81.9487C355.974 81.9487 355.524 82.018 355.212 82.1912C355.004 82.3298 354.797 82.5031 354.693 82.8149C354.589 83.0228 354.554 83.5773 354.554 84.4782V89.9529L361.062 84.686C361.962 83.9584 362.412 83.3694 362.412 82.9189C362.412 82.6071 362.239 82.3298 361.858 82.1566C361.685 82.0526 361.201 82.018 360.439 81.9833V81.4982H367.293V81.9833C366.67 82.018 366.185 82.1219 365.839 82.2952C365.493 82.4684 364.697 83.0575 363.416 84.097L358.328 88.2204V88.2204ZM136.853 82.4684V96.1899C136.853 96.9175 136.888 97.3679 136.957 97.5412C137.026 97.7144 137.165 97.8184 137.303 97.9224C137.545 98.061 137.891 98.1302 138.341 98.1302C139.795 98.1302 140.938 97.6452 141.699 96.6403C142.738 95.3236 143.292 93.2446 143.292 90.4379C143.292 88.1857 142.945 86.3839 142.218 85.0325C141.665 83.993 140.903 83.2654 140.038 82.8842C139.345 82.607 138.307 82.4684 136.853 82.4684ZM130.068 99.0658V98.5807H130.657C131.176 98.5807 131.557 98.5114 131.834 98.3382C132.111 98.1649 132.318 97.957 132.457 97.6798C132.526 97.5066 132.561 96.9521 132.561 96.0512V84.4782C132.561 83.5773 132.526 83.0228 132.422 82.7803C132.318 82.5377 132.145 82.3645 131.834 82.1912C131.522 82.018 131.141 81.9487 130.657 81.9487H130.068V81.4636H138.065C140.176 81.4636 141.907 81.7408 143.188 82.3298C144.78 83.0228 145.992 84.097 146.788 85.5177C147.619 86.9383 148.034 88.5322 148.034 90.334C148.034 91.5814 147.826 92.7249 147.411 93.7644C146.996 94.8039 146.476 95.6701 145.853 96.3631C145.195 97.0561 144.469 97.5759 143.638 97.9917C142.807 98.4075 141.768 98.7193 140.557 98.9272C140.038 99.0311 139.172 99.0658 138.03 99.0658H130.068V99.0658ZM159.769 82.3298C158.142 82.3298 156.93 83.1615 156.1 84.8247C155.407 86.176 155.061 88.151 155.061 90.6805C155.061 93.695 155.58 95.9473 156.653 97.3679C157.38 98.3728 158.419 98.8926 159.734 98.8926C160.634 98.8926 161.361 98.6846 161.984 98.2342C162.746 97.6798 163.334 96.7789 163.784 95.5662C164.2 94.3534 164.407 92.7595 164.407 90.7844C164.407 88.4282 164.2 86.6958 163.75 85.5177C163.334 84.3396 162.781 83.5426 162.088 83.0575C161.396 82.5724 160.634 82.3298 159.769 82.3298V82.3298ZM159.596 81.4982C162.4 81.3943 164.684 82.2259 166.45 83.9584C168.215 85.7256 169.081 87.9085 169.081 90.5419C169.081 92.7942 168.423 94.7692 167.108 96.4671C165.377 98.7193 162.919 99.8627 159.734 99.8627C156.55 99.8627 154.092 98.7886 152.361 96.6403C150.976 94.9425 150.319 92.8981 150.319 90.5765C150.319 87.9431 151.219 85.7602 152.984 83.993C154.819 82.1912 157 81.3943 159.596 81.4982V81.4982ZM176.558 81.4636L185.316 92.3784V84.8247C185.316 83.7852 185.177 83.0575 184.866 82.6763C184.45 82.1912 183.758 81.9487 182.754 81.9487V81.4636H188.604V81.9487C187.843 82.0526 187.358 82.1566 187.081 82.3298C186.839 82.4684 186.631 82.711 186.493 83.0575C186.354 83.404 186.285 83.9931 186.285 84.8247V99.4469H185.835L173.823 84.8247V95.9819C173.823 96.9868 174.065 97.6798 174.515 98.0263C174.965 98.3728 175.519 98.5461 176.108 98.5461H176.523V99.0312H170.223V98.5461C171.192 98.5461 171.885 98.3381 172.265 97.957C172.646 97.5758 172.854 96.9175 172.854 95.9819V83.5772L172.473 83.1268C172.092 82.6417 171.781 82.3645 171.469 82.1912C171.192 82.0526 170.777 81.9487 170.223 81.9487V81.4636H176.558V81.4636ZM207.609 81.0824V87.2502H207.124C206.535 85.5523 205.67 84.2702 204.493 83.404C203.316 82.5377 202.035 82.0873 200.651 82.0873C199.335 82.0873 198.228 82.4684 197.327 83.1961C196.462 83.9237 195.804 84.9632 195.458 86.2799C195.077 87.5966 194.904 88.948 194.904 90.334C194.904 92.0318 195.112 93.4871 195.493 94.7692C195.908 96.0512 196.531 96.9522 197.431 97.5759C198.331 98.1649 199.404 98.4767 200.616 98.4767C201.031 98.4767 201.481 98.4421 201.931 98.3382C202.381 98.2342 202.831 98.1302 203.316 97.957V94.3187C203.316 93.6257 203.281 93.1753 203.178 92.9674C203.074 92.7595 202.866 92.5862 202.589 92.413C202.278 92.2397 201.931 92.1704 201.481 92.1704H201.031V91.6854H209.685V92.1704C209.028 92.2051 208.578 92.3091 208.301 92.4477C208.059 92.5863 207.851 92.7941 207.712 93.106C207.643 93.2792 207.609 93.6604 207.609 94.3187V97.957C206.466 98.4421 205.289 98.8232 204.078 99.1004C202.866 99.343 201.585 99.4816 200.27 99.4816C198.574 99.4816 197.189 99.2391 196.081 98.7886C194.974 98.3382 193.97 97.7491 193.139 97.0214C192.274 96.2938 191.616 95.4622 191.131 94.5267C190.508 93.3486 190.231 91.9972 190.231 90.5419C190.231 87.9085 191.166 85.6909 193.035 83.8544C194.904 82.0526 197.293 81.1171 200.131 81.1171C201.031 81.1171 201.793 81.1864 202.52 81.325C202.901 81.3943 203.524 81.6022 204.389 81.914C205.255 82.2259 205.774 82.3992 205.912 82.3992C206.155 82.3992 206.397 82.2952 206.605 82.1219C206.812 81.9487 207.02 81.6022 207.193 81.1171H207.609V81.0824ZM228.828 81.4636V81.9487C228.24 82.018 227.79 82.1912 227.478 82.4684C227.028 82.8149 226.371 83.8198 225.436 85.4483L221.593 91.8239V96.0859C221.593 96.9868 221.628 97.5758 221.732 97.7837C221.836 97.9916 222.009 98.1996 222.286 98.3728C222.563 98.5461 222.944 98.6154 223.394 98.6154H224.397V99.1004H214.463V98.6154H215.397C215.916 98.6154 216.332 98.5114 216.643 98.3382C216.886 98.2342 217.059 97.9916 217.163 97.7144C217.266 97.5065 217.301 96.9522 217.301 96.0859V92.5516L213.147 84.9979C212.316 83.508 211.728 82.6417 211.416 82.3645C211.07 82.0873 210.62 81.9487 210.066 81.9487V81.4636H218.547V81.9487H218.166C217.647 81.9487 217.301 82.018 217.093 82.1566C216.886 82.2952 216.782 82.4684 216.782 82.607C216.782 82.9189 217.128 83.7158 217.82 84.9632L221.005 90.7844L224.19 85.483C224.986 84.1663 225.367 83.3347 225.367 82.8842C225.367 82.6417 225.263 82.4684 225.02 82.2952C224.744 82.0873 224.19 81.9487 223.394 81.914V81.4289H228.828V81.4636ZM238.971 98.5807V99.0658H229.59V98.5807H230.178C230.698 98.5807 231.113 98.4767 231.424 98.3035C231.667 98.1995 231.84 97.957 231.944 97.6798C232.048 97.4719 232.082 96.9175 232.082 96.0512V84.4782C232.082 83.5773 232.048 83.0228 231.944 82.7803C231.84 82.5377 231.667 82.3645 231.355 82.1912C231.044 82.018 230.663 81.9487 230.178 81.9487H229.59V81.4636H238.971V81.9487H238.382C237.863 81.9487 237.448 82.0527 237.136 82.2259C236.894 82.3299 236.721 82.5377 236.582 82.8496C236.478 83.0575 236.444 83.6119 236.444 84.4782V96.0512C236.444 96.9521 236.478 97.5066 236.582 97.7491C236.686 97.9917 236.894 98.1649 237.171 98.3382C237.448 98.5114 237.863 98.5807 238.382 98.5807H238.971ZM246.033 81.4636L254.79 92.3784V84.8247C254.79 83.7852 254.652 83.0575 254.34 82.6763C253.925 82.1912 253.233 81.9487 252.229 81.9487V81.4636H258.079V81.9487C257.317 82.0526 256.833 82.1566 256.556 82.3298C256.314 82.4684 256.106 82.711 255.967 83.0575C255.829 83.404 255.76 83.9931 255.76 84.8247V99.4469H255.31L243.298 84.8247V95.9819C243.298 96.9868 243.54 97.6798 243.99 98.0263C244.44 98.3728 244.994 98.5461 245.583 98.5461H245.998V99.0312H239.698V98.5461C240.667 98.5461 241.359 98.3381 241.74 97.957C242.121 97.5758 242.329 96.9175 242.329 95.9819V83.5772L241.948 83.1268C241.567 82.6417 241.255 82.3645 240.944 82.1912C240.667 82.0526 240.252 81.9487 239.698 81.9487V81.4636H246.033V81.4636ZM277.083 81.0824V87.2502H276.599C276.01 85.5523 275.145 84.2702 273.968 83.404C272.791 82.5377 271.51 82.0873 270.125 82.0873C268.81 82.0873 267.702 82.4684 266.802 83.1961C265.937 83.9237 265.279 84.9632 264.933 86.2799C264.552 87.5966 264.379 88.948 264.379 90.334C264.379 92.0318 264.587 93.4871 264.968 94.7692C265.383 96.0512 266.006 96.9522 266.906 97.5759C267.806 98.1649 268.879 98.4767 270.091 98.4767C270.506 98.4767 270.956 98.4421 271.406 98.3382C271.856 98.2342 272.306 98.1302 272.791 97.957V94.3187C272.791 93.6257 272.756 93.1753 272.652 92.9674C272.549 92.7595 272.375 92.5862 272.064 92.413C271.752 92.2397 271.406 92.1704 270.956 92.1704H270.506V91.6854H279.16V92.1704C278.503 92.2051 278.053 92.3091 277.776 92.4477C277.499 92.5863 277.326 92.7941 277.187 93.106C277.118 93.2792 277.083 93.6604 277.083 94.3187V97.957C275.941 98.4421 274.764 98.8232 273.552 99.1004C272.306 99.343 271.06 99.4816 269.745 99.4816C268.048 99.4816 266.664 99.2391 265.556 98.7886C264.448 98.3382 263.444 97.7491 262.614 97.0214C261.748 96.2938 261.091 95.4622 260.606 94.5267C259.983 93.3486 259.671 91.9972 259.671 90.5419C259.671 87.9085 260.606 85.6909 262.475 83.8544C264.344 82.0526 266.733 81.1171 269.572 81.1171C270.437 81.1171 271.233 81.1864 271.96 81.325C272.341 81.3943 272.964 81.6022 273.829 81.914C274.695 82.2259 275.214 82.3992 275.352 82.3992C275.595 82.3992 275.837 82.2952 276.045 82.1219C276.252 81.9487 276.46 81.6022 276.633 81.1171H277.083V81.0824ZM98.2905 88.4975C75.8246 119.509 37.816 97.264 46.4354 82.8149C49.1355 78.2758 55.0202 76.0582 60.6973 80.2162C74.5784 90.3686 94.1712 80.8053 99.7098 64.0346C101.787 58.2827 102.825 46.9522 95.3827 36.7651L95.7289 36.4532C101.544 43.106 106.079 52.3576 106.079 64.0346C106.114 72.2467 103.725 80.9785 98.2905 88.4975V88.4975ZM77.3131 64.0346L64.1935 77.1323L51.074 64.0346L64.1935 50.9023L77.3131 64.0346V64.0346ZM21.8233 64.0346C21.8233 55.7879 24.2118 47.0561 29.6465 39.5717C52.1125 8.52529 90.1211 30.8053 81.5016 45.2197C78.8016 49.7588 72.9168 51.9764 67.2397 47.8184C53.324 37.7006 33.7312 47.264 28.2273 64.0346C26.1503 69.7865 25.1118 81.1864 32.6235 91.4082L32.2774 91.72C26.4272 85.0325 21.8233 75.7463 21.8233 64.0346V64.0346ZM113.937 64C113.937 35.5523 90.6057 14 63.9512 14C35.9813 14 14 36.5572 14 64C14 92.4476 37.3659 114 63.9858 114C91.9557 114.035 113.937 91.4774 113.937 64Z" fill="#DE0112"/>
</svg>
