<svg width="452" height="128" viewBox="0 0 452 128" fill="none" xmlns="http://www.w3.org/2000/svg">
<path d="M14 63.9939C14 63.9939 26.1148 58.5907 31.153 63.9939C36.1912 69.3966 65.22 102.533 65.22 102.533C65.22 102.533 77.8149 119.342 93.0488 112.258C108.283 105.175 156.024 59.6714 132.993 32.6578C132.993 32.6578 139.711 52.4677 114.28 72.5178C107.334 77.995 101.973 81.4099 97.7764 83.9831C86.5455 90.8699 83.6414 89.3936 80.9336 87.6456C77.2151 85.2444 52.145 69.7561 36.4311 58.1106C36.4311 58.1106 26.5953 50.0664 14 63.9939" fill="#E50113"/>
<path d="M43.8114 55.3313L21.2461 41.3657C21.2461 41.3657 103.826 -10.5254 129.273 28.6035C129.273 28.6035 101.066 5.72754 43.8114 55.3313V55.3313ZM85.1923 42.4307L110.288 58.7946L85.1923 76.4811L58.776 58.7946L85.1923 42.4307Z" fill="#E95506"/>
<path d="M161.877 30.0203C161.877 30.0203 170.337 28.6231 172.473 18.1425H179.481C179.481 18.1425 177.173 34.7363 161.877 36.9196V30.0203ZM172.644 33.3991H179.481C179.481 33.3991 178.928 38.9883 174.78 44.1889V77.2128H168.371V49.5978C166.526 50.6209 164.378 51.4763 161.877 52.0653V45.0658C161.877 45.0658 169.055 44.7195 172.644 33.3991V33.3991ZM374.294 30.0203C374.294 30.0203 382.754 28.6231 384.891 18.1425H391.898C391.898 18.1425 389.591 34.7363 374.294 36.9196V30.0203V30.0203ZM385.062 33.3991H391.898C391.898 33.3991 391.345 38.9883 387.198 44.1889V77.2128H380.79V49.5978C378.944 50.6209 376.797 51.4763 374.295 52.0653V45.0658C374.295 45.0658 381.473 44.7195 385.062 33.3991V33.3991ZM221.592 50.2208C225.038 50.2208 225.641 55.6968 225.641 55.6968H181.437V50.2208H221.592V50.2208ZM326.91 42.9462H316.677V51.3326H322.858C327.719 51.3326 326.91 57.3591 326.91 57.3591H316.677V68.0556C316.677 70.8379 318.699 70.642 318.699 70.642H323.693C327.715 71.2062 326.863 77.2128 326.863 77.2128H316.303C309.568 77.2128 310.504 68.9661 310.504 68.9661V57.3591H303.488V51.3326H310.504V42.9462H303.488V36.9192H322.858C327.719 36.9192 326.91 42.9458 326.91 42.9458V42.9462ZM434.04 18.9585C438.89 18.9585 438.082 24.9374 438.082 24.9374H398.258V18.9585H434.04ZM434.003 36.6011C438.893 36.6011 438.079 42.6223 438.079 42.6223H431.178C431.248 47.3983 431.099 61.1149 431.099 67.5772C431.099 76.7928 423.614 77.2286 423.614 77.2286H406.223C406.223 71.0339 410.994 70.5865 410.994 70.5865H420.165C425.009 70.5865 424.495 65.8167 424.495 65.8167V42.6223H397.495V36.6011H434.003H434.003ZM219.523 36.2569C219.523 35.5635 218.96 35.0018 218.266 35.0018H212.974V41.2806H218.266C218.599 41.2808 218.919 41.1487 219.155 40.9133C219.39 40.678 219.523 40.3586 219.523 40.0255V36.2569V36.2569ZM187.813 40.0251C187.813 40.7189 188.377 41.2806 189.07 41.2806H194.276V35.0018H189.07C188.737 35.0016 188.418 35.1337 188.182 35.369C187.946 35.6044 187.813 35.9237 187.813 36.2569V40.0251V40.0251ZM200.307 41.2806H206.942V35.0018H200.307V41.2806ZM225.641 26.4858H206.856V29.6686H223.127C223.793 29.6682 224.432 29.9324 224.904 30.4031C225.375 30.8739 225.64 31.5126 225.641 32.1788V44.1893C225.64 44.8555 225.375 45.4943 224.904 45.965C224.432 46.4357 223.793 46.6999 223.127 46.6995H183.952C182.563 46.6995 181.437 45.5757 181.437 44.1893V32.1793C181.437 30.7924 182.563 29.6686 183.952 29.6686H200.308V26.4858H181.437V20.8946H200.308V18.1425H206.857V20.8946H221.591C225.038 20.8946 225.641 26.4858 225.641 26.4858V26.4858ZM204.908 68.9975V58.8267H210.776V68.998H204.908V68.9975ZM183.115 68.02C183.468 65.7972 183.998 58.8267 183.998 58.8267H189.652L189.033 68.9337C189.033 68.9337 188.503 77.2128 181.436 77.2128V70.5898C181.436 70.5898 182.762 70.2415 183.115 68.02ZM212.266 71.1996C212.266 71.1996 217.426 71.8105 217.426 77.2128H198.935C198.935 77.2128 193.172 76.9511 193.172 71.1996V58.8267H199.623V68.9337C199.623 68.9337 199.193 71.1996 202.461 71.1996H212.266ZM223.981 68.02C223.981 68.02 224.418 70.3285 225.641 70.5024V77.2128C225.641 77.2128 219.087 77.0389 218.475 70.0667C217.863 63.0961 217.426 58.8267 217.426 58.8267H223.456L223.981 68.02V68.02ZM239.332 52.8287C239.332 52.8287 239.598 58.4357 232.683 58.4357V26.3573H239.332V52.8287ZM262.412 26.3573V52.8292C262.412 52.8292 262.678 58.4357 255.763 58.4357V26.3573H262.412H262.412ZM285.884 26.3573V52.8292C285.884 52.8292 286.149 58.4357 279.234 58.4357V26.3573H285.884ZM249.504 18.1425V60.3722C249.504 60.3722 249.675 77.2128 232.683 77.2128V71.1677C232.683 71.1677 243.067 70.3898 243.067 60.286V18.1425H249.504H249.504ZM266.717 77.2128V18.1425H273.367V77.2128H266.717ZM290.189 77.2128V18.1425H296.839V77.2128H290.189ZM313.039 28.1518C311.776 31.0513 309.317 33.5184 303.489 34.5726V28.1518C303.489 28.1518 306.214 27.5619 307.247 23.7796C308.279 19.9969 308.656 18.1425 308.656 18.1425H315.7C315.7 18.1425 315.192 20.0177 314.687 22.0838H322.842C327.723 22.0838 326.91 28.1518 326.91 28.1518H313.039V28.1518ZM337.481 43.8716H357.67C357.67 43.8716 360.236 44.2775 360.236 41.5602V37.874H337.481V43.8716V43.8716ZM340.221 25.0356C337.357 25.014 337.49 27.3573 337.49 27.3573L337.481 31.1275H360.236V27.0503C360.236 24.6599 358.23 25.0356 358.23 25.0356C358.23 25.0356 343.768 25.0621 340.221 25.0356V25.0356ZM363.176 55.2097C363.176 55.2097 366.862 54.9288 366.862 61.3013H356.736L358.79 65.2364C358.79 65.2364 361.496 70.5778 366.862 70.6723V77.2095C366.862 77.2095 358.23 77.6055 354.218 69.7345C350.871 63.1698 345.581 53.612 343.916 50.618H337.516V67.5793C337.516 67.5793 337.05 70.5782 340.221 70.5782H344.14C344.14 70.5782 349.063 70.5782 349.063 76.7626H336.863C336.863 76.7626 331.263 77.4187 331.263 70.6723V23.9118C331.263 23.9118 331.545 18.1437 337.422 18.1437H361.122C361.122 18.1437 366.815 17.9146 366.815 23.9118V43.9652C366.815 43.9652 367.748 50.6184 361.309 50.6184H351.161L353.557 55.2097H363.176H363.176ZM186.58 100.148C186.58 98.7678 186.37 97.6014 185.951 96.6474C185.546 95.7122 184.883 94.9115 184.04 94.3389C183.185 93.7541 182.113 93.329 180.823 93.0656C179.532 92.8034 178.016 92.6713 176.275 92.6713H172.06V107.608H175.79C182.984 107.608 186.58 105.122 186.58 100.148ZM190.05 99.9583C190.05 100.896 189.94 101.795 189.72 102.653C189.499 103.511 189.146 104.31 188.66 105.048C188.173 105.787 187.543 106.457 186.768 107.061C185.993 107.665 185.042 108.182 183.918 108.611C182.793 109.04 181.485 109.371 179.996 109.606C178.506 109.841 176.812 109.958 174.913 109.958H168.529V90.393H176.212C180.863 90.393 184.332 91.1801 186.619 92.7512C188.906 94.3228 190.05 96.7253 190.05 99.9583V99.9583ZM208.441 109.958H193.963V90.002H207.909V92.2922H197.525V98.4766H206.95V100.766H197.525V107.638H208.441V109.958V109.958ZM233.093 90.8056L218.029 107.424H232.545V109.958H212.354V109.004L228.147 92.4749H213.399V90.002H233.093V90.8056V90.8056ZM258.527 109.958H254.939V100.796H241.775V109.958H238.18V90.002H241.775V98.4447H254.939V90.002H258.527V109.958V109.958ZM284.8 100.244C284.8 99.0822 284.635 98.0193 284.307 97.0542C283.989 96.1062 283.444 95.2506 282.718 94.5622C281.987 93.8647 281.046 93.3253 279.892 92.9409C278.74 92.5569 277.346 92.3652 275.716 92.3652C274.141 92.3652 272.785 92.5698 271.652 92.9782C270.516 93.3883 269.584 93.9434 268.853 94.6451C268.13 95.3348 267.572 96.1794 267.222 97.1155C266.865 98.0595 266.687 99.0615 266.687 100.123C266.687 101.294 266.855 102.362 267.194 103.327C267.531 104.292 268.06 105.12 268.783 105.811C269.504 106.503 270.438 107.042 271.582 107.426C272.725 107.81 274.102 108.001 275.716 108.001C277.29 108.001 278.65 107.797 279.793 107.387C280.937 106.979 281.879 106.423 282.619 105.721C283.349 105.036 283.912 104.194 284.266 103.258C284.622 102.319 284.8 101.314 284.8 100.244V100.244ZM288.266 100.047C288.266 101.824 287.924 103.36 287.241 104.653C286.558 105.946 285.635 107.014 284.475 107.857C283.314 108.7 281.955 109.327 280.399 109.735C278.843 110.145 277.201 110.349 275.472 110.349C273.397 110.349 271.591 110.119 270.05 109.66C268.511 109.2 267.236 108.536 266.223 107.667C265.219 106.812 264.443 105.722 263.963 104.493C263.469 103.246 263.223 101.839 263.223 100.274C263.223 98.5164 263.56 96.9912 264.235 95.698C264.91 94.4048 265.827 93.3369 266.989 92.494C268.149 91.651 269.503 91.0243 271.051 90.6151C272.598 90.2066 274.237 90.002 275.966 90.002C278.04 90.002 279.847 90.234 281.387 90.6987C282.927 91.1627 284.206 91.8267 285.228 92.6911C286.238 93.5399 287.022 94.6248 287.512 95.8496C288.013 97.0927 288.266 98.4915 288.266 100.047V100.047ZM314.091 103.085C314.091 104.191 313.863 105.192 313.408 106.088C312.953 106.984 312.286 107.747 311.405 108.377C310.524 109.005 309.446 109.491 308.171 109.835C306.895 110.178 305.429 110.349 303.772 110.349C301.951 110.349 300.407 110.185 299.138 109.858C297.87 109.531 296.836 109.067 296.039 108.469C295.239 107.87 294.658 107.15 294.293 106.31C293.927 105.471 293.744 104.534 293.744 103.5V90.002H297.729V103.285C297.729 104.073 297.837 104.764 298.053 105.358C298.263 105.943 298.631 106.459 299.116 106.848C299.609 107.247 300.247 107.549 301.029 107.754C301.814 107.958 302.773 108.061 303.906 108.061C306.025 108.061 307.588 107.641 308.596 106.802C309.603 105.962 310.107 104.78 310.107 103.254V90.002H314.091V103.085V103.085ZM348.036 104.079C348.036 103.57 347.901 103.113 347.634 102.705C347.365 102.298 346.975 101.954 346.465 101.674C345.954 101.395 345.331 101.178 344.597 101.025C343.863 100.873 343.035 100.796 342.117 100.796H338.63V107.667H342.232C344.185 107.667 345.641 107.377 346.598 106.798C347.556 106.217 348.036 105.312 348.036 104.079H348.036ZM347.213 95.2233C347.215 94.8272 347.136 94.4349 346.982 94.0701C346.829 93.7093 346.561 93.3991 346.178 93.1393C345.794 92.8796 345.277 92.6742 344.626 92.5213C343.976 92.3685 343.151 92.2922 342.155 92.2922H338.63V98.5371H342.04C342.819 98.5371 343.524 98.4708 344.156 98.3383C344.789 98.2065 345.331 98.0028 345.785 97.7281C346.237 97.4522 346.589 97.1097 346.838 96.6967C347.087 96.2846 347.213 95.7937 347.213 95.2233V95.2233ZM351.656 103.988C351.656 104.944 351.422 105.792 350.957 106.53C350.49 107.268 349.826 107.892 348.965 108.4C348.102 108.909 347.062 109.296 345.842 109.56C344.623 109.826 343.266 109.958 341.772 109.958H335.221V90.002H342.385C347.965 90.002 350.756 91.6196 350.756 94.8567C350.756 95.9362 350.433 96.862 349.787 97.6361C349.143 98.4095 348.093 98.9853 346.637 99.361C347.314 99.4629 347.956 99.636 348.563 99.88C349.169 100.125 349.702 100.441 350.162 100.827C350.615 101.206 350.987 101.674 351.253 102.201C351.521 102.731 351.656 103.326 351.656 103.988V103.988ZM404.872 109.958H400.942L386.67 93.5142V109.958H382.959V90.002H387.527L401.163 106.355V90.002H404.872V109.958V109.958ZM431.089 109.958L426.339 109.776L415.327 100.078V109.776H411.915V90.002H415.327V99.1854L426.114 90.002H430.058L418.952 99.5789L431.088 109.958H431.089ZM366.525 92.9003L362.237 102.094H370.814L366.525 92.9003ZM368.624 90.002L378.264 109.958H374.596L371.786 104.468H360.906L358.358 109.958H354.786L364.562 90.002H368.624Z" fill="#231916"/>
</svg>
