<svg width="128" height="128" viewBox="0 0 128 128" fill="none" xmlns="http://www.w3.org/2000/svg">
<path d="M70.7246 67.5387H102.452L106.271 63.7071L102.452 59.8756H63.0864L70.7246 67.5387ZM82.1818 39.5386L74.8375 31.8755L67.1993 39.5386H82.1818ZM91.5821 78.4441H72.4872L65.1429 85.8128L65.4367 86.1071H83.9444L91.5821 78.4441ZM65.4367 41.3071L58.0929 48.9702H91.5826L83.9449 41.3071H65.4372H65.4367ZM72.4872 69.3073L77.1873 74.0229L74.2498 76.6755H93.3452L100.689 69.3073H72.4872ZM67.1993 87.8757L74.8375 95.5388L82.1818 87.8757H67.1993ZM56.3298 50.7388L54.861 51.9177L61.3238 58.107H100.689L93.3447 50.7388H56.3298Z" fill="#A88249"/>
<path d="M51.0421 53.3914L62.7932 41.602L53.3924 31.8755L21.6653 63.7071L53.3924 95.5388L73.075 75.4971L51.0421 53.3914Z" fill="#003D75"/>
</svg>
