<svg width="128" height="128" viewBox="0 0 128 128" fill="none" xmlns="http://www.w3.org/2000/svg">
<path d="M26.5 26.6501L26.65 101.3C40.6 101.75 48.7 98.3001 55.2 93.7001C60.4 90.0001 63.7 85.3001 66 80.8001C68.2 76.5001 68.65 73.2001 71.85 69.9001C73.65 68.0501 75.95 66.0501 80.65 64.2001V63.9501C76.6 62.4001 73.55 60.4501 71.7 58.0501C70.9 57.0501 71.05 56.9501 71.4 55.7501C73.7 47.0501 82.55 40.3501 91.05 38.8001L90.95 89.0501C87.1 88.8501 83.1 86.6501 80.25 84.5501C76.75 82.0001 74.2 78.6501 72.3 74.7501L71.95 74.7001C70.65 79.3501 68.65 83.3001 66.25 86.8501C73.3 96.9501 84.9 101.95 101.5 101.45V26.7001C94.8 26.2501 88.75 26.8501 83.6 28.6001C73.25 32.1001 66.15 39.2501 63.1 45.5501C59.4 53.2501 57.25 60.9501 47.45 63.6501C47.05 64.2001 47.2 64.0501 47.75 64.2501C51.65 65.8001 54.95 67.9001 57 71.0001C56.95 73.4501 53.35 79.2501 50.65 82.0001C47.05 85.6501 42.5 87.8001 37.4 89.1001L37.25 38.8501C46.65 40.5501 52.25 46.3501 56.15 53.9501C57.3 48.9501 59.3 44.6001 62.05 40.8001C53.5 30.7001 41.85 25.6001 26.5 26.6501Z" fill="#B41D22"/>
</svg>
