<svg width="406" height="128" viewBox="0 0 406 128" fill="none" xmlns="http://www.w3.org/2000/svg">
<path d="M14 14.1811L14.2216 113.77C32.8392 114.398 43.6625 109.781 52.2695 103.612C59.2141 98.662 63.573 92.4193 66.6759 86.3981C69.6311 80.6725 70.1852 76.2766 74.4702 71.8808C76.8713 69.4059 79.9742 66.7462 86.217 64.2712V63.9757C80.8238 61.9071 76.7605 59.2844 74.2855 56.1445C73.2512 54.8147 73.4359 54.7039 73.8422 53.0785C76.9082 41.4425 88.692 32.5401 100.032 30.4715L99.8847 97.48C94.7131 97.2214 89.4308 94.3032 85.5891 91.4958C80.9347 88.0973 77.5362 83.6276 74.9874 78.4191L74.581 78.2714C72.8449 84.4772 70.2222 89.7596 67.0084 94.4509C76.3911 107.897 91.8688 114.62 113.996 113.955L114.033 14.2919C105.056 13.6639 97.0773 14.5136 90.1326 16.8408C76.3541 21.4951 66.8976 31.0256 62.8342 39.4478C57.8843 49.6801 55.04 59.9863 41.9264 63.5694C41.4092 64.3082 41.557 64.0866 42.3327 64.3821C47.5412 66.4876 51.937 69.2212 54.6336 73.3584C54.5967 76.646 49.7576 84.4034 46.1375 88.0604C41.3353 92.9364 35.2772 95.8177 28.4803 97.5539L28.3695 30.5084C40.929 32.7987 48.3908 40.4821 53.5624 50.6775C55.0769 43.9914 57.7735 38.1919 61.3936 33.1681C49.9792 19.5743 34.4646 12.7774 14 14.1811Z" fill="#B41D22"/>
<path d="M163.2 18.6871C163.311 17.5419 162.867 17.3942 162.794 16.877C162.609 15.3625 163.015 14.6237 164.05 14.7345C165.786 15.1039 167.485 15.658 169.073 16.286C170.625 16.914 172.398 16.6554 173.875 17.5419C174.54 17.9483 174.688 17.4311 175.649 19.6106C175.39 21.1251 175.944 22.1594 178.604 21.9008C186.139 21.8269 193.01 22.5657 195.596 28.8824C196.372 32.6503 194.783 32.3917 193.934 33.1305C192.973 33.9801 191.643 34.054 189.981 33.4629C188.245 31.9853 182.815 32.0962 185.179 30.1014C187.137 28.513 188.651 27.7373 188.171 26.4444C187.876 25.6317 187.137 24.8929 184.773 24.9668C181.19 24.6713 179.047 25.484 176.424 25.1884C175.316 25.0776 174.393 25.9642 174.171 26.7399C171.955 30.5078 171.401 29.6951 170.181 29.8428C168.704 30.0275 167.411 29.0671 166.155 27.5526C165.638 26.5922 163.791 26.9615 161.501 27.7742C159.986 28.2914 158.287 29.2518 156.699 29.6581C154.076 29.6951 150.197 27.4048 151.453 26.4444L163.717 23.6739C165.269 23.0829 165.786 22.1963 165.269 21.0512C164.936 20.3863 163.754 19.5736 163.2 18.6871V18.6871ZM148.535 27.1093C149.052 28.9194 149.754 29.9167 150.012 31.2466C150.419 33.1305 150.788 35.3099 149.828 37.0461C149.311 38.0065 148.941 39.5949 148.239 40.74C146.503 42.4023 145.284 41.4788 144.213 40.9986C143.142 40.5184 142.329 39.521 141.775 37.9696C141.073 36.7506 141.442 34.7558 142.772 32.0592C143.363 30.8772 144.435 29.6581 145.063 28.1436C146.577 24.8929 147.648 25.1884 148.535 27.1093V27.1093ZM162.424 36.2334C166.34 33.9062 169.664 32.4656 171.918 32.7241C173.728 32.9458 174.836 33.4999 175.316 34.3864C175.796 35.273 176.424 36.9722 174.762 38.1543C171.474 40.777 177.089 41.1833 178.271 42.6978C181.817 48.756 175.39 47.2414 177.126 52.5238C177.717 55.2943 175.058 56.1439 170.92 56.1069C167.042 55.7745 166.672 56.698 165.97 56.7718C162.831 57.1043 160.54 56.8457 159.949 55.3681C158.509 52.7454 159.801 49.6425 156.218 46.6873C155.627 45.0989 155.923 44.471 156.92 44.5448C158.028 44.6556 159.506 45.8008 162.535 47.2414C163.902 47.7955 163.569 48.6451 164.197 49.0515C166.229 50.4182 162.794 53.4473 165.933 53.5212C168.335 52.9301 169.997 51.9697 170.92 50.529C172.915 48.5343 171.548 46.9828 169.517 47.1306C168.778 47.2045 167.965 47.3153 166.894 46.9459C165.601 46.5396 165.527 45.9116 166.155 45.0989C166.894 44.1754 168.999 43.2889 170.588 41.8852C171.474 40.3337 170.736 39.7796 169.332 39.8904C168.593 39.9643 167.485 40.5923 166.709 40.5553C162.129 38.6714 161.094 37.2677 162.424 36.2334V36.2334ZM172.287 65.5635C174.466 65.8959 175.205 65.7482 175.575 67.4474C176.055 69.4791 174.651 69.2944 172.767 70.6242C170.957 71.6955 170.329 72.7298 172.287 73.7272C175.87 73.0622 175.094 73.8749 175.722 73.9119C176.868 73.9857 177.828 73.801 177.865 72.9514C178.53 69.7377 181.19 66.1545 179.86 63.3471C178.715 61.3154 175.981 61.3154 172.398 62.4606C170.773 63.4949 170.255 64.8616 172.287 65.5635V65.5635ZM154.039 63.7534C155.775 65.4527 159.358 67.2997 159.284 68.8511C160.503 71.2891 159.173 76.3868 162.978 76.2021C165.305 75.8697 166.894 74.7245 167.226 73.7641C167.522 72.9884 168.076 71.2891 165.712 70.8089C164.973 70.6612 164.234 70.8828 163.569 70.4026C162.757 69.8116 163.458 68.7403 164.862 68.5556C165.49 68.4817 166.155 68.0015 166.931 67.669C169.147 66.6717 168.335 64.049 166.746 64.6031C165.786 64.5661 165.047 65.3788 164.234 65.5265C162.978 65.7482 161.907 65.6004 161.279 65.1202C159.358 64.2337 159.728 63.3471 161.685 62.4606C166.007 62.165 168.298 59.6901 170.92 59.9487C173.174 59.136 175.427 58.4711 177.68 58.6927C180.783 57.9909 183.406 59.6531 185.659 63.2732C186.804 65.5265 187.543 67.6321 185.511 68.5556C184.514 69.5899 183.812 71.6955 182.926 73.2839C181.485 75.9066 180.118 78.0122 178.715 80.6349C177.865 81.4106 177.459 81.1151 176.831 81.0781C175.87 81.0043 175.796 76.9778 173.58 76.904C169.258 76.6454 167.485 78.3077 165.49 78.3446C163.126 78.3816 162.498 77.0148 161.02 76.904C160.282 78.086 159.358 78.4924 158.287 78.1968C156.44 76.867 155.184 75.7219 154.334 74.7245C153.965 74.2813 154.261 72.3604 154.076 71.5477C153.669 69.8115 152.672 68.2601 151.564 66.3023C150.567 62.6083 151.712 62.2389 154.039 63.7534V63.7534ZM218.129 23.1568C220.604 23.9694 222.008 25.2623 222.525 27.0354C222.894 28.2544 222.673 29.732 221.712 31.579C221.565 32.835 220.124 33.1305 219.385 33.3521C217.538 33.9431 215.913 32.3178 214.472 29.0671C214.214 28.4761 214.103 27.5895 213.696 27.1093C213.031 25.0407 213.475 23.7478 213.77 23.009C214.066 22.3441 215.987 22.418 218.129 23.1568V23.1568ZM213.253 39.6318C214.361 40.149 214.952 40.9247 215.543 41.2572C216.467 41.7743 217.132 41.9221 217.871 42.2546C219.385 42.9195 219.533 45.2467 218.646 46.3179C217.649 47.5 216.799 48.3127 214.62 50.566C213.623 51.9328 212.477 51.7481 212.293 50.529C211.923 48.3127 210.667 45.2467 209.633 43.8799C208.894 42.7348 208.894 41.8852 209.116 41.1833C209.485 40.0751 210.039 37.8587 213.253 39.6318V39.6318ZM213.733 64.2337L221.121 48.0172C222.156 46.9459 222.673 46.872 222.71 47.8325C222.71 48.091 222.673 48.3127 222.636 48.7559C221.675 50.7876 220.9 53.004 220.235 54.6294C214.251 69.2944 218.72 68.8142 214.657 74.8723C213.696 76.0913 212.588 76.3129 211.96 75.7958C210.704 74.7615 209.448 72.8037 209.005 71.5477C208.599 70.3287 208.599 68.8511 208.82 67.1888C209.559 64.3445 210.298 62.4975 210.963 64.2337C211.923 66.7086 212.847 66.2653 213.733 64.2337V64.2337ZM234.309 60.7983C233.311 60.1703 232.868 60.7983 232.868 62.4236C232.831 64.4184 233.422 65.5266 234.937 65.3049C235.712 65.1941 236.008 64.9355 236.488 64.3445C237.633 62.8299 236.931 61.6479 234.309 60.7983V60.7983ZM236.156 19.943C234.715 18.7979 234.272 17.8744 234.863 17.2095C235.38 16.6554 235.971 15.9166 238.298 15.8797C239.665 15.8797 240.478 16.2121 241.844 16.8401C244.873 18.2069 246.647 20.7557 246.61 24.5605C246.868 25.2993 249.048 26.2228 249.38 27.1093C249.897 28.55 248.826 30.0275 245.723 31.6529C242.288 33.1305 241.807 34.5342 241.069 35.6793C240.478 36.6028 240.293 37.3416 241.069 37.8957C242.879 38.3759 243.211 34.4603 246.536 37.0461C248.494 38.1173 250.156 39.2255 250.821 40.4815C251.153 41.1464 250.895 41.5158 250.969 42.587L250.304 59.8748C249.971 62.7191 251.523 63.0516 254.404 61.6848C257.359 60.8722 259.502 61.3893 260.61 63.6057C261.164 64.7139 261.238 65.3419 260.794 66.45C260.499 67.2258 260.093 67.706 259.28 67.9276C258.098 68.2231 256.546 67.7429 254.589 66.2284C250.784 64.1229 248.53 65.231 247.866 69.4791C247.57 70.772 246.351 70.5134 245.834 70.3656C245.317 70.2179 244.947 69.5899 244.726 68.5187C244.504 66.3762 243.174 66.3762 242.214 66.3023C241.364 66.2284 240.404 66.7086 239.296 67.8168C237.559 69.7007 236.008 72.0279 234.493 73.801C232.905 75.648 231.427 77.1625 230.098 78.2338C228.288 79.2312 228.14 78.3446 227.881 78.086C227.623 77.8275 227.807 77.3472 228.472 76.6823C232.683 72.2126 235.343 67.2997 230.504 68.8142C227.697 69.5899 224.926 70.8459 222.082 71.1783C220.013 70.5134 219.163 68.8511 218.979 68.2231C218.868 67.8907 219.016 67.5952 219.422 67.4474C219.57 67.3735 219.755 67.2997 219.976 67.2627C221.712 67.1888 224.003 67.0411 225.259 66.9672C227.623 66.8564 229.765 66.6347 229.876 65.4527L230.43 44.8773C231.28 42.8456 232.203 42.5131 233.164 44.6926C233.385 46.0594 233.939 46.4657 234.641 46.3918C235.491 46.281 235.934 45.2467 237.596 44.6926C239.517 44.434 240.81 44.5818 241.327 45.2467C241.771 45.8377 242.768 46.8351 240.736 48.2757C239.776 49.0884 238.631 49.347 237.596 48.9776C235.565 48.2757 233.792 47.7216 233.459 51.1201C233.237 52.9301 233.274 55.2573 233.201 57.3259C233.053 59.0621 233.385 60.0964 234.937 59.5054C238.187 57.4737 240.81 55.5898 242.99 57.2521C244.209 58.3233 244.246 59.4315 241.549 60.5397C240.367 60.983 239.591 61.574 240.441 62.7191C240.699 63.0516 240.81 63.4949 241.66 63.9012C242.916 63.9751 243.839 63.6796 244.873 63.6057C246.166 63.4949 246.24 61.9803 245.945 59.6901C245.871 53.2626 245.982 46.3918 245.132 42.2546C244.135 40.3337 242.731 39.4102 240.478 40.6662C238.631 42.3285 237.264 41.8482 236.008 42.0699C234.678 42.3284 233.829 42.1438 234.124 40.8509C236.377 37.8957 237.818 35.3099 235.417 34.4603C233.274 33.7584 231.464 33.7954 230.763 33.2782C229.987 32.6872 230.282 31.9853 231.649 31.1357C233.792 29.5473 238.261 29.8798 238.114 26.4075C237.892 23.4153 237.559 20.571 236.156 19.943V19.943ZM236.525 52.3391C237.929 51.3787 240.256 50.566 241.253 51.4895C241.881 52.0805 242.066 52.8562 241.586 54.3708C241.364 55.0357 238.815 55.1096 236.931 54.851C234.087 54.7771 235.454 52.7454 236.525 52.3391V52.3391ZM243.544 74.9831C240.293 73.2469 241.18 72.4712 243.95 72.1757C248.272 71.991 251.56 73.21 252.52 77.5319C253.037 79.305 252.742 80.3394 251.818 80.8565C251.375 81.1151 250.193 81.3737 249.639 81.4845C248.937 81.6322 248.087 81.5584 247.385 81.0412C246.129 79.0095 245.428 75.9435 243.544 74.9831V74.9831ZM305.381 38.8931C304.162 38.0804 303.608 38.6714 303.349 39.9274C303.09 40.9617 303.201 42.8825 303.127 44.3232C303.718 45.7269 305.528 45.3575 308.188 43.7322C308.89 43.215 309.407 42.587 309.74 41.8113C309.998 41.2203 310.331 40.3706 310.146 39.8165C309.444 38.7822 306.526 39.2994 305.381 38.8931V38.8931ZM304.42 35.9379C305.75 35.6793 307.782 34.1648 309.444 33.2413C311.328 32.2809 310.885 31.3204 310.922 30.5816C310.922 29.769 311.069 28.8824 310.146 28.5869C307.302 28.6608 307.708 29.9167 306.895 30.0275C305.602 30.2122 304.827 29.8059 304.199 30.2861C302.536 30.9141 302.832 33.4629 302.943 34.4603C302.98 35.3099 303.46 35.8271 304.42 35.9379V35.9379ZM298.547 27.4048C298.325 26.5552 298.51 26.1489 298.953 25.8534C299.286 25.6687 299.655 24.856 301.317 26.3705C302.499 27.922 304.605 27.1462 307.375 24.819C308.299 23.2676 308.484 22.1225 309.85 21.8269C311.069 21.5684 312.399 22.5657 313.988 22.4919C316.721 23.5631 318.568 25.0407 319.233 27.0354C319.75 28.6977 319.972 31.0988 318.125 33.2413C316.647 34.2017 316.832 35.3099 316.389 36.2334C315.945 37.1938 315.576 38.0435 315.244 38.8192C314.763 39.8904 315.207 40.9247 316.019 41.6266C317.497 43.3997 317.349 44.9512 314.874 46.2071C313.138 46.872 313.064 47.7216 314.689 48.7929C316.389 50.3444 315.835 51.9697 315.133 53.632C314.874 54.2599 314.431 54.8141 314.209 55.442C313.655 57.0304 314.837 58.0278 316.204 58.8405C318.236 60.0964 320.563 62.2389 325.55 64.7139C328.099 66.0806 336.447 67.2258 334.12 68.8142C333.048 69.516 331.349 69.7377 330.13 69.9593C327.988 70.3656 325.55 70.6242 322.779 70.772C320.12 70.144 314.985 63.3471 311.254 60.6136C310.22 59.8378 310.294 59.8748 309.296 60.5397C308.225 61.2415 307.006 61.7956 305.676 62.2389C306.784 60.355 308.04 59.727 308.373 59.0991C308.853 58.1756 307.856 57.0304 306.156 55.5898C304.937 54.7402 304.457 54.1861 304.679 53.8536C304.9 53.5212 305.381 53.004 307.56 53.6689C308.336 53.9644 308.927 54.851 309.444 55.0357C310.959 55.6267 311.66 54.2969 311.55 50.7137C311.513 48.3127 310.515 47.5369 308.89 47.9063C307.634 48.4604 305.824 49.1992 304.346 49.2731C303.423 49.31 302.795 50.0488 302.721 50.8984C302.167 53.4473 302.425 56.07 302.241 58.6558C301.982 62.6822 301.724 66.7456 301.465 70.772C301.724 73.4686 303.977 70.6612 306.23 68.5925C307.08 67.7799 307.671 67.5213 307.929 67.8168C308.188 68.1123 308.336 68.9619 307.819 70.4395C304.827 76.239 301.871 79.8961 299.101 77.9013C297.919 77.2364 297.217 76.4607 296.589 75.4264C296.22 74.8353 296.183 74.0596 296.257 73.2469C296.33 72.4343 296.774 71.8432 297.032 70.5873C297.697 67.115 298.177 63.4579 298.51 59.6901C298.99 53.8167 299.47 47.2414 299.692 41.6635C299.84 36.7875 299.692 30.5078 298.547 27.4048V27.4048ZM347.64 23.2306C347.566 21.5684 347.935 21.0143 348.452 20.3863C349.302 19.3889 351.001 19.7583 352.331 21.0143C352.774 21.4575 353.402 21.6792 353.956 21.9747C357.133 25.8164 358.943 28.4761 357.355 31.2835C356.505 32.7611 355.397 34.4234 353.181 35.9379C350.816 37.1938 350.188 38.5975 351.334 39.7057C352.811 41.1094 355.803 43.215 355.249 46.281C354.732 49.0884 352.146 52.1913 348.083 55.442C345.571 57.3629 342.801 60.7244 340.067 63.421C338.663 64.6031 338.294 63.4949 338.072 63.2363C337.851 62.9777 338.072 62.4975 338.737 61.7587C339.919 59.8748 340.769 58.0278 342.357 55.9961C342.468 55.8484 342.505 55.6267 342.542 55.4051C343.133 53.2626 344.463 51.7111 345.497 50.2335C346.568 48.6821 347.418 46.6873 348.083 45.3206C349.117 43.1781 349.08 41.405 348.046 40.6662C347.233 39.8535 343.17 41.959 342.209 40.5553C341.618 39.7057 341.618 38.302 342.579 35.9748C343.465 34.4972 345.386 32.3547 346.568 30.5078C347.122 29.5843 347.64 28.6977 348.12 27.7742C348.859 26.3705 347.603 25.6687 347.64 23.2306V23.2306ZM347.898 61.1307C348.489 59.3576 349.265 58.9144 350.373 61.3154C350.558 61.7956 350.484 62.5714 350.558 63.1624C350.632 64.0859 350.706 65.0094 350.816 65.8959C351.075 68.0015 350.706 70.144 350.004 72.1757C348.231 75.9435 347.566 75.7588 346.901 76.0174C346.125 76.276 345.534 75.3894 345.054 73.8749C344.352 72.6559 344.13 71.363 344.315 70.0701C344.611 67.706 345.719 70.6242 347.898 61.1307V61.1307ZM367.144 26.9246C368.363 26.075 369.286 25.8903 370.764 24.3388C371.133 23.009 372.02 22.0486 374.606 22.1963C375.492 21.5314 377.302 21.6422 379.925 22.4919C383.028 23.4523 382.695 26.2966 382.363 27.7742C382.141 28.8085 381.218 29.6951 379.334 30.36C376.342 30.5447 376.342 31.4313 375.012 31.8006C373.054 32.3178 371.392 32.5025 370.136 32.1331C369.582 31.9853 369.545 31.0249 367.956 30.6186C367.55 30.4339 367.513 30.1753 367.181 29.9906C366.848 29.8059 366.442 29.769 366.22 29.5473C365.481 28.8455 365.481 28.0328 367.144 26.9246V26.9246ZM359.608 46.0224L367.181 43.9538C368.991 43.6952 370.801 43.1781 372.574 42.4762C373.645 42.0329 374.864 42.1068 376.009 41.8113C377.45 41.4419 379.297 40.8509 380.331 40.3706C380.664 40.1859 381.07 40.149 381.476 40.0751C381.993 39.9643 382.695 39.9643 383.286 39.3733C383.988 37.6741 386.5 37.8218 390.49 39.558C393.556 43.1042 391.93 43.9538 391.487 44.9512C391.191 45.6161 390.563 45.9485 389.529 45.8746C385.614 45.025 381.92 45.1728 379.112 45.4683C377.893 45.8747 377.893 46.5396 378.41 47.3153C380.331 48.2019 381.033 49.1992 380.848 50.2335C380.774 50.6399 380.331 50.529 380.294 51.4525L380.701 64.049C380.701 68.8142 380.442 73.5424 379.925 78.3077C379.962 80.6349 378.521 81.152 377.819 81.7431C376.859 82.5557 375.935 82.4449 375.012 81.8908C373.497 78.1599 371.244 75.2047 368.104 73.0992C367.181 72.3973 366.7 71.8802 366.7 71.5847C366.737 71.1783 367.181 70.3656 369.471 71.4738C370.838 72.1387 372.131 72.6559 373.054 72.8775C373.978 73.0992 374.716 72.3973 374.975 70.9567C375.529 63.5318 375.123 56.2547 374.199 49.0145C374.125 47.7216 373.091 46.8351 371.613 47.1306C370.21 47.4261 368.289 47.7586 366.22 48.128C364.447 48.4604 362.859 49.347 360.79 49.1992C358.537 48.9037 358.426 48.0541 358.278 47.4631C358.241 46.9828 358.611 46.5026 359.608 46.0224V46.0224ZM283.106 65.859C282.256 66.3762 281.924 67.115 281.813 67.9276C282.109 68.7403 282.737 68.6664 283.697 67.7799C284.251 67.2627 284.399 67.078 284.399 66.3023C284.362 65.3418 283.956 65.1941 283.106 65.859ZM291.565 59.3576C292.489 60.1703 292.969 61.2046 292.821 61.7587C292.636 62.3867 292.415 63.0885 289.718 62.9408C289.127 62.9038 288.573 62.3128 287.982 62.8669L286.726 64.4184L288.278 66.5239C290.937 65.6004 292.932 65.1202 293.892 65.3419C294.631 65.5265 295.185 66.6347 294.003 67.3735C290.863 69.0728 288.499 69.6638 286.394 70.8089C284.547 71.8063 282.884 72.7667 281.148 73.6163C280.188 74.0966 278.71 74.9462 278.045 74.9462C274.388 74.0596 273.428 72.9145 272.578 72.1388C271.544 71.2522 271.802 70.5873 272.948 70.1071C279.264 69.8854 283.697 69.1836 279.153 66.3023C277.824 65.0463 277.122 61.2046 277.196 60.0595C277.233 59.6162 277.417 59.3576 277.713 59.2837C278.045 59.2099 278.267 58.8405 279.117 59.6531C280.557 61.4632 282.146 61.8326 283.771 60.7613C285.212 59.0252 284.214 57.4368 281.518 57.1412C275.977 55.3681 276.937 54.0014 281.518 52.8193C285.581 50.4921 284.953 49.7533 284.03 48.5713C283.475 47.8694 282.441 47.9433 281.628 47.6847C280.003 47.1675 279.08 46.6134 283.143 44.434C285.507 43.1411 284.842 41.5897 284.768 40.6292C284.657 39.3733 283.66 37.4524 282.072 37.9326C281.481 37.8587 280.114 39.0408 278.341 40.8509C277.048 42.1807 276.9 41.2941 273.945 45.69C273.686 46.2071 272.8 45.8747 272.209 45.9855C271.618 46.0963 271.248 45.8377 271.692 44.3232C272.874 41.3311 276.014 37.6371 278.452 34.1278C281.924 29.141 284.842 24.5235 282.958 22.5657C282.552 21.9747 282.552 21.5314 282.958 21.162C283.475 20.6818 284.51 17.9483 286.763 20.4232C287.834 21.9008 288.869 23.3415 289.94 24.819C290.679 25.8164 289.829 26.7768 292.119 27.8112C294.594 27.8481 296.33 29.0671 296.848 32.2809C297.18 33.7215 296.257 34.5342 294.483 34.8666C294.41 34.8666 294.299 34.9405 294.225 34.9036C293.486 34.645 291.787 35.1252 290.235 35.0513C289.755 35.1622 290.088 34.017 290.125 33.3891C290.235 31.8745 290.531 30.2492 288.241 30.8772C285.766 32.9827 284.14 34.8297 285.359 35.7162C287.502 36.6028 289.09 37.7849 290.051 39.2625C291.196 41.0725 292.747 44.3601 290.605 46.2071C288.795 47.7586 288.906 49.2731 289.977 49.347C290.937 49.4209 291.898 49.7903 292.489 50.3813C293.264 51.194 293.412 53.1518 292.008 53.9275C289.386 54.8141 287.465 55.9222 287.391 56.9196C287.354 57.4737 287.465 58.2494 289.053 58.3603C290.161 58.5819 290.679 58.5819 291.565 59.3576V59.3576ZM385.687 112.44H377.967C376.822 110.704 375.751 109.226 374.827 108.044C373.904 106.862 372.685 105.384 371.244 103.611H370.542V109.633C370.542 109.965 370.616 110.224 370.727 110.445C370.838 110.667 371.096 110.852 371.429 110.999C371.576 111.073 371.835 111.147 372.168 111.221C372.5 111.295 372.796 111.332 373.128 111.369V112.44H362.785V111.369C363.043 111.369 363.376 111.332 363.819 111.295C364.262 111.258 364.595 111.221 364.78 111.147C365.112 111.036 365.334 110.852 365.481 110.63C365.592 110.408 365.666 110.113 365.666 109.78V96.2234C365.666 95.8909 365.592 95.6324 365.481 95.4107C365.371 95.1891 365.149 95.0044 364.78 94.8197C364.484 94.7089 364.152 94.5981 363.745 94.5242C363.339 94.4503 363.007 94.3764 362.785 94.3764V93.3421H373.46V94.3764C373.165 94.4133 372.832 94.4503 372.426 94.4872C372.02 94.5242 371.687 94.5981 371.392 94.7089C371.022 94.8197 370.801 95.0044 370.69 95.263C370.579 95.5215 370.505 95.7801 370.505 96.1126V102.577H371.096C371.798 101.949 372.648 101.173 373.571 100.287C374.532 99.4002 375.27 98.6614 375.788 98.0704C376.526 97.2577 377.044 96.6297 377.413 96.1865C377.745 95.7062 377.93 95.2999 377.93 94.9675C377.93 94.8197 377.745 94.7089 377.45 94.5981C377.117 94.5242 376.6 94.4503 375.935 94.4134V93.3791H384.395V94.4134C383.36 94.5242 382.511 94.7089 381.809 94.9675C381.107 95.226 380.405 95.6693 379.74 96.2603C378.78 97.11 377.967 97.8857 377.339 98.5137L374.901 100.952C375.788 102.023 376.822 103.279 378.078 104.83C379.297 106.345 380.553 107.822 381.772 109.3C382.067 109.669 382.437 110.039 382.843 110.371C383.249 110.704 383.693 110.962 384.173 111.184C384.395 111.295 384.653 111.369 384.949 111.406C385.244 111.479 385.503 111.479 385.687 111.479V112.44V112.44ZM360.199 94.3764C359.941 94.4133 359.571 94.4503 359.091 94.5242C358.611 94.5981 358.204 94.7828 357.798 95.0413C357.466 95.2999 357.207 95.7062 357.059 96.2973C356.911 96.8883 356.838 97.7379 356.838 98.8831V112.551H354.4L342.283 97.7749V106.751C342.283 107.859 342.357 108.709 342.505 109.3C342.653 109.891 342.911 110.297 343.244 110.593C343.502 110.778 343.872 110.962 344.426 111.11C344.98 111.258 345.386 111.369 345.719 111.406V112.477H337.37V111.406C337.74 111.369 338.146 111.332 338.589 111.221C339.033 111.11 339.439 110.962 339.735 110.741C340.104 110.482 340.326 110.076 340.473 109.559C340.621 109.041 340.658 108.155 340.658 106.899V97.8487C340.658 97.4055 340.584 96.9622 340.436 96.5559C340.289 96.1495 340.067 95.8171 339.771 95.5216C339.439 95.226 339.07 94.9675 338.663 94.7828C338.257 94.5981 337.777 94.4872 337.26 94.3764V93.3052H344.611L355.249 106.234V98.9939C355.249 97.8487 355.175 96.9991 355.028 96.4081C354.88 95.854 354.621 95.4477 354.289 95.1522C354.03 94.9305 353.624 94.7828 353.107 94.635C352.59 94.4872 352.183 94.3764 351.851 94.3395V93.3052H360.199V94.3764V94.3764ZM326.03 104.72L323.222 97.7749L320.452 104.72H326.03ZM336.262 112.44H325.661V111.369C326.141 111.332 326.732 111.258 327.397 111.11C328.062 110.962 328.394 110.815 328.394 110.593C328.394 110.519 328.394 110.445 328.357 110.334C328.357 110.26 328.32 110.113 328.246 109.965L326.584 106.012H319.861C319.713 106.382 319.529 106.825 319.344 107.305C319.159 107.786 318.974 108.229 318.864 108.635C318.679 109.152 318.605 109.485 318.568 109.743C318.531 109.965 318.531 110.113 318.531 110.224C318.531 110.519 318.753 110.741 319.196 110.962C319.639 111.147 320.378 111.295 321.412 111.406V112.477H313.433V111.406C313.729 111.406 314.061 111.332 314.468 111.258C314.837 111.184 315.133 111.073 315.354 110.925C315.724 110.704 316.056 110.445 316.315 110.113C316.573 109.817 316.795 109.411 316.98 109.005C318.051 106.493 319.085 103.944 320.156 101.395C321.228 98.8461 322.41 96.0757 323.666 93.0097H326.399C328.209 97.3316 329.576 100.767 330.61 103.279C331.608 105.791 332.494 107.896 333.196 109.522C333.307 109.78 333.455 110.039 333.639 110.26C333.824 110.482 334.083 110.704 334.415 110.888C334.674 111.036 334.969 111.147 335.302 111.221C335.634 111.295 335.93 111.332 336.225 111.369V112.44H336.262ZM306.193 107.084C306.193 105.754 305.787 104.72 304.974 104.018C304.162 103.316 303.016 102.946 301.502 102.946C301.317 102.946 301.096 102.946 300.8 102.983C300.505 102.983 300.283 103.02 300.172 103.02V110.039C300.246 110.371 300.505 110.667 300.948 110.888C301.391 111.11 301.908 111.221 302.499 111.221C303.571 111.221 304.457 110.852 305.159 110.15C305.824 109.411 306.193 108.413 306.193 107.084V107.084ZM305.233 97.9226C305.233 96.8514 304.937 96.0387 304.309 95.4477C303.718 94.8566 302.795 94.5611 301.576 94.5611C301.391 94.5611 301.17 94.5611 300.911 94.5981C300.652 94.5981 300.394 94.635 300.209 94.635V101.727H300.911C302.389 101.727 303.497 101.395 304.199 100.693C304.863 99.9913 305.233 99.0678 305.233 97.9226V97.9226ZM309.629 103.685C310.22 104.092 310.7 104.572 311.069 105.163C311.439 105.754 311.623 106.456 311.623 107.268C311.623 108.229 311.402 109.041 310.995 109.743C310.589 110.408 309.998 110.925 309.185 111.332C308.373 111.738 307.412 112.034 306.341 112.218C305.27 112.403 304.014 112.477 302.536 112.477H292.452V111.406C292.747 111.369 293.08 111.332 293.523 111.295C293.966 111.221 294.262 111.184 294.41 111.11C294.742 110.962 294.964 110.815 295.111 110.593C295.222 110.371 295.296 110.076 295.296 109.743V96.2603C295.296 95.9279 295.259 95.6693 295.148 95.4477C295.038 95.226 294.816 95.0413 294.41 94.8936C294.114 94.7828 293.782 94.6719 293.412 94.5981C293.043 94.5242 292.71 94.4503 292.415 94.4134V93.3791H302.98C305.639 93.3791 307.56 93.7484 308.742 94.4503C309.924 95.1521 310.515 96.2234 310.515 97.6271C310.515 98.2551 310.367 98.8461 310.109 99.3263C309.85 99.8065 309.481 100.25 308.964 100.619C308.521 100.952 307.966 101.247 307.375 101.469C306.747 101.727 306.082 101.912 305.381 102.06V102.318C306.082 102.392 306.821 102.54 307.597 102.799C308.41 102.983 309.075 103.316 309.629 103.685V103.685ZM277.011 94.3764C276.752 94.4133 276.383 94.4503 275.903 94.5242C275.423 94.5981 275.016 94.7828 274.61 95.0413C274.277 95.2999 274.019 95.7062 273.871 96.2973C273.723 96.8883 273.649 97.7379 273.649 98.8831V112.551H271.211L259.095 97.7749V106.751C259.095 107.859 259.169 108.709 259.317 109.3C259.465 109.891 259.723 110.297 260.056 110.593C260.314 110.778 260.684 110.962 261.238 111.11C261.792 111.258 262.198 111.369 262.531 111.406V112.477H254.182V111.406C254.552 111.369 254.958 111.332 255.401 111.221C255.845 111.11 256.251 110.962 256.546 110.741C256.916 110.482 257.137 110.076 257.285 109.559C257.433 109.041 257.47 108.155 257.47 106.899V97.8487C257.47 97.4055 257.396 96.9622 257.248 96.5559C257.101 96.1495 256.879 95.8171 256.583 95.5216C256.251 95.226 255.882 94.9675 255.475 94.7828C255.069 94.5981 254.589 94.4872 254.071 94.3764V93.3052H261.386L272.024 106.234V98.9939C272.024 97.8487 271.95 96.9991 271.802 96.4081C271.655 95.854 271.396 95.4477 271.064 95.1522C270.805 94.9305 270.399 94.7828 269.882 94.635C269.364 94.4872 268.958 94.3764 268.626 94.3395V93.3052H277.011V94.3764V94.3764ZM242.842 104.72L240.034 97.7749L237.264 104.72H242.842ZM253.037 112.44H242.435V111.369C242.916 111.332 243.507 111.258 244.172 111.11C244.837 110.962 245.169 110.815 245.169 110.593C245.169 110.519 245.169 110.445 245.132 110.334C245.132 110.26 245.095 110.113 245.021 109.965L243.359 106.012H236.636C236.488 106.382 236.303 106.825 236.119 107.305C235.934 107.786 235.786 108.229 235.639 108.635C235.454 109.152 235.38 109.485 235.343 109.743C235.306 109.965 235.306 110.113 235.306 110.224C235.306 110.519 235.528 110.741 235.971 110.962C236.414 111.147 237.153 111.295 238.187 111.406V112.477H230.208V111.406C230.504 111.406 230.836 111.332 231.243 111.258C231.612 111.184 231.908 111.073 232.129 110.925C232.499 110.704 232.831 110.445 233.09 110.113C233.348 109.817 233.57 109.411 233.755 109.005C234.826 106.493 235.86 103.944 236.931 101.395C238.003 98.8461 239.185 96.0757 240.441 93.0097H243.174C244.947 97.3316 246.351 100.767 247.385 103.279C248.383 105.791 249.269 107.896 249.971 109.522C250.082 109.78 250.23 110.039 250.414 110.26C250.599 110.482 250.858 110.704 251.19 110.888C251.449 111.036 251.744 111.147 252.077 111.221C252.409 111.295 252.705 111.332 253 111.369V112.44H253.037ZM228.694 112.44H217.908V111.369C218.166 111.369 218.499 111.332 218.979 111.295C219.459 111.258 219.791 111.221 219.976 111.147C220.309 110.999 220.53 110.852 220.678 110.63C220.789 110.408 220.863 110.113 220.863 109.78V96.2234C220.863 95.9279 220.789 95.6324 220.678 95.4107C220.567 95.1891 220.346 95.0044 219.976 94.8566C219.755 94.7458 219.422 94.6719 219.016 94.5981C218.572 94.4872 218.203 94.4503 217.908 94.4134V93.3791H228.694V94.4134C228.435 94.4503 228.066 94.4872 227.66 94.5242C227.253 94.5611 226.884 94.635 226.625 94.7458C226.256 94.8566 226.034 95.0413 225.923 95.2999C225.813 95.5585 225.739 95.8171 225.739 96.1495V109.706C225.739 110.039 225.813 110.297 225.923 110.519C226.034 110.741 226.293 110.925 226.625 111.073C226.81 111.147 227.142 111.221 227.586 111.295C228.029 111.369 228.398 111.406 228.694 111.443V112.44V112.44ZM207.897 109.005C208.34 108.303 208.673 107.416 208.857 106.419C209.079 105.421 209.153 104.276 209.153 102.983C209.153 101.727 209.005 100.582 208.747 99.511C208.488 98.4767 208.082 97.5902 207.527 96.8514C207.01 96.1126 206.345 95.5585 205.533 95.1522C204.757 94.7458 203.834 94.5611 202.836 94.5611C202.504 94.5611 202.171 94.5611 201.728 94.5981C201.322 94.5981 201.026 94.635 200.804 94.635V109.152C200.804 109.485 200.841 109.78 200.915 110.002C200.989 110.26 201.137 110.482 201.359 110.667C201.58 110.852 201.839 110.999 202.134 111.11C202.43 111.221 202.836 111.258 203.316 111.258C204.351 111.258 205.237 111.073 205.976 110.704C206.826 110.297 207.454 109.743 207.897 109.005V109.005ZM210.704 95.2999C211.886 96.0756 212.847 97.073 213.586 98.3659C214.324 99.6219 214.694 101.21 214.694 103.02C214.694 104.646 214.361 106.049 213.696 107.268C213.031 108.45 212.182 109.448 211.111 110.224C210.002 110.999 208.783 111.553 207.38 111.923C205.976 112.292 204.535 112.477 202.984 112.477H193.195V111.406C193.49 111.406 193.86 111.369 194.303 111.332C194.746 111.295 195.042 111.221 195.19 111.184C195.522 111.036 195.744 110.852 195.891 110.63C196.002 110.408 196.076 110.113 196.076 109.817V96.2603C196.076 95.9648 196.002 95.6693 195.891 95.4107C195.781 95.1522 195.559 94.9674 195.19 94.8197C194.857 94.6719 194.488 94.5611 194.081 94.5242C193.675 94.4872 193.38 94.4503 193.195 94.4134V93.3791H203.538C204.646 93.3791 205.828 93.5268 207.084 93.7854C208.303 94.007 209.522 94.5242 210.704 95.2999V95.2999ZM190.757 94.3764C190.498 94.4133 190.129 94.4503 189.612 94.5611C189.095 94.6719 188.688 94.8197 188.356 95.0413C188.023 95.263 187.765 95.6693 187.617 96.2603C187.469 96.8514 187.395 97.7379 187.395 98.8831V106.012C187.395 108.118 186.694 109.78 185.216 111.073C183.775 112.366 181.854 112.994 179.49 112.994C176.72 112.994 174.577 112.366 173.063 111.147C171.548 109.928 170.773 108.192 170.773 106.012V96.2234C170.773 95.8909 170.699 95.6324 170.588 95.4107C170.477 95.1891 170.218 94.9674 169.886 94.8197C169.664 94.7089 169.369 94.5981 168.999 94.5242C168.667 94.4503 168.371 94.4133 168.15 94.3764V93.3421H178.382V94.3764C178.087 94.4133 177.791 94.4134 177.496 94.4872C177.2 94.5242 176.905 94.5981 176.572 94.7089C176.24 94.8197 175.981 95.0044 175.87 95.263C175.759 95.5215 175.686 95.7801 175.686 96.1126V105.754C175.686 107.638 176.129 109.041 176.978 109.891C177.828 110.741 179.047 111.184 180.672 111.184C182.261 111.184 183.517 110.704 184.403 109.743C185.29 108.783 185.77 107.379 185.77 105.532V99.0308C185.77 97.8857 185.696 97.0361 185.548 96.445C185.401 95.8909 185.142 95.4477 184.81 95.226C184.588 95.0413 184.145 94.8566 183.554 94.6719C182.963 94.5242 182.556 94.4133 182.298 94.3764V93.3421H190.72V94.3764H190.757ZM165.564 98.4398H164.493C164.234 97.701 163.754 96.8883 163.089 96.0756C162.424 95.226 161.796 94.7828 161.168 94.7089C160.91 94.6719 160.54 94.635 160.06 94.5981C159.617 94.5611 159.173 94.5611 158.804 94.5611H155.775V102.06H157.696C158.25 102.06 158.73 101.986 159.137 101.875C159.543 101.764 159.912 101.543 160.208 101.21C160.429 100.989 160.651 100.619 160.873 100.065C161.094 99.548 161.205 99.1047 161.279 98.6984H162.313V106.751H161.279C161.242 106.345 161.094 105.865 160.873 105.274C160.614 104.683 160.429 104.313 160.245 104.128C159.986 103.833 159.654 103.611 159.247 103.501C158.841 103.353 158.361 103.279 157.77 103.279H155.849V109.633C155.849 109.965 155.923 110.224 156.034 110.445C156.144 110.667 156.403 110.852 156.735 110.999C156.92 111.073 157.216 111.147 157.548 111.221C157.881 111.295 158.25 111.332 158.582 111.369V112.44H148.092V111.369C148.35 111.332 148.72 111.295 149.163 111.258C149.606 111.221 149.902 111.147 150.086 111.073C150.419 110.962 150.64 110.778 150.788 110.556C150.899 110.334 150.973 110.039 150.973 109.706V96.2234C150.973 95.9279 150.899 95.6324 150.788 95.4107C150.677 95.1891 150.456 95.0044 150.086 94.8566C149.828 94.7458 149.495 94.635 149.089 94.5611C148.683 94.4872 148.35 94.4133 148.129 94.3764V93.3421H165.601V98.4398H165.564Z" fill="black"/>
</svg>
