<svg width="128" height="128" viewBox="0 0 128 128" fill="none" xmlns="http://www.w3.org/2000/svg">
<path d="M51.8001 70.75C45.7001 82.6 27.8001 94.55 25.5001 90.2C25.0501 89.05 24.6501 87.9 24.3501 86.55C20.6001 71.25 20.6001 56.6 24.3501 41.35C26.9001 31.75 31.7001 26.9 41.2501 24.35C56.5001 20.55 71.0501 20.55 86.3001 24.35C87.7501 24.75 89.1001 25.2 90.3501 25.65C92.0501 26.7 89.8501 32.2 88.3001 34.8C85.1001 40.25 71.7001 56 62.0001 51.05C51.6501 45.8 47.8501 44.55 42.4501 48.9C51.4001 51.55 55.7501 63.1 51.8001 70.75ZM103.7 41.45C107.45 56.7 107.45 71.35 103.7 86.65C101.2 96.25 96.3501 101.05 86.8001 103.65C71.6501 107.4 57.1001 107.4 41.9001 103.65C40.4001 103.25 39.0001 102.75 37.7001 102.2C36.2501 101.15 36.7001 99 37.8001 96.7C42.2501 87.85 55.7501 74.8 60.7001 74.3C69.2001 73.4 74.7001 85.1 88.5501 79.65C82.0001 78.3 73.9501 68.45 74.9001 60.05C75.4501 55.1 88.4001 41.5 97.1501 37C99.3001 35.9 101.35 35.55 102.25 36.95C102.75 38.35 103.25 39.85 103.7 41.45Z" fill="#047AC6"/>
<path d="M22.5 50.7002C25.15 56.5502 29.85 60.6502 36.5 62.9502C40.85 64.4502 46.75 65.2502 53.15 66.0502C53 67.7002 52.5 69.3002 51.75 70.8002C45.65 82.6502 27.75 94.6002 25.45 90.2502C25 89.1002 24.6 87.9502 24.3 86.6002C21.35 74.4002 20.7 62.6502 22.5 50.7002ZM102.5 90.4502C99.75 97.6002 95 101.5 86.8 103.7C71.65 107.45 57.1 107.45 41.9 103.7C40.4 103.3 39 102.8 37.7 102.25C36.25 101.2 36.7 99.0502 37.8 96.7502C42.25 87.9002 55.75 74.8502 60.7 74.3502C69.2 73.4502 74.7 85.1502 88.55 79.7002C84.55 78.8502 80 74.8502 77.25 69.9502C78.9 70.4002 80.55 70.9502 82.05 71.5502C89.95 74.6002 96.8 80.9002 102.5 90.4502Z" fill="#036AB8"/>
</svg>
