<svg width="128" height="128" viewBox="0 0 128 128" fill="none" xmlns="http://www.w3.org/2000/svg">
<path d="M82.7131 20.2251C82.7131 20.2251 87.4491 22.1451 85.3331 25.4801C82.5116 29.3201 75.9621 23.1551 64.9781 23.3576C56.2121 23.3576 43.8181 26.6926 42.7096 32.2506C42.0046 33.0591 37.4696 34.9791 36.3616 34.9791C35.2531 34.9791 29.3081 34.6756 28.6026 34.9791C26.5876 37.2021 28.6026 42.6591 30.5176 45.3876C32.4316 48.1161 40.5936 48.1161 45.7326 46.3986C50.8716 44.6806 56.5146 41.7501 58.3281 40.7391C60.1421 39.7291 65.2806 38.6171 70.8231 39.3241C76.3651 40.0316 85.0106 42.5581 85.8771 54.3821C85.3331 66.1046 77.8761 64.8921 77.1711 64.8921C76.4661 64.8921 73.5436 63.6791 76.6671 61.4556C79.7911 59.2326 82.0831 59.3336 82.0831 59.3336C82.0831 59.3336 75.5081 55.0891 76.0376 45.4636C76.0376 45.4636 68.2876 52.2851 56.8216 53.7251C56.8216 53.7251 60.7716 57.1351 61.6786 59.9401C61.6786 59.9401 58.3536 61.0301 54.9526 63.8581C54.1216 63.6536 54.1966 58.8791 47.9241 57.5906C41.6516 56.3016 29.8506 63.0726 27.7656 63.0726C25.6806 63.0726 24.0686 62.2641 23.5646 58.1211C23.5646 58.1211 19.4331 65.1946 22.8591 72.9761C26.2851 80.7576 38.5531 73.6586 45.2791 68.4286C41.0471 75.7051 27.7461 83.3596 29.7111 88.8926C30.7691 96.6991 39.8381 88.5136 40.2161 88.2866C40.5181 90.7871 38.9311 98.7456 41.1226 101.247C43.3141 103.748 52.6851 107.083 54.6501 107.386C54.6501 107.386 49.6626 100.716 48.9066 93.1371C48.5486 85.8621 48.7556 78.5851 49.2091 77.5236C49.6626 76.4626 52.6851 69.9446 62.3591 62.2136C62.3591 62.2136 63.1901 63.1236 63.4166 67.6706C63.4166 67.6706 67.4976 63.9131 69.4626 63.8971C71.4276 63.8811 72.6366 63.0471 73.5436 65.3211C74.4506 67.5951 72.1836 69.0351 69.7651 70.7026C67.3466 72.3696 58.7311 77.4476 59.2601 72.0666C59.2601 72.0666 52.6851 74.2896 52.3831 85.0016C52.0806 95.7136 58.7311 102.587 61.0486 104.001C62.2581 104.203 61.9556 101.98 61.9556 101.98C61.9556 101.98 60.5451 91.1661 63.5681 87.1246C66.5906 83.0821 71.5281 74.2901 91.7816 71.5616C96.4166 71.4606 98.6341 75.0986 97.9286 80.2521C97.2236 85.4061 92.8906 94.4006 82.1086 100.161C77.1711 101.98 73.1406 97.7356 73.3421 92.8846C73.5436 88.0341 81.7906 81.7216 88.1546 85.3056C88.1546 85.3056 88.1546 80.5556 79.0856 81.0606C70.0166 81.5661 64.8781 89.1456 64.8781 95.3101C64.8781 101.474 68.5056 106.224 71.4276 107.386C75.0551 108.043 80.7986 105.719 83.6201 104.102C86.4416 102.485 98.2306 97.1286 104.075 82.0716C105.687 78.0291 106.569 72.2186 104.982 70.6266C104.982 70.6266 106.342 68.2771 106.494 62.8201C106.645 57.3631 104.277 43.3666 92.9911 34.2716C92.9911 34.2716 98.6336 31.7451 98.0291 26.9956C97.4246 22.2456 93.2931 19.1131 82.7131 20.2246" fill="#D51719"/>
</svg>
