<svg width="404" height="128" viewBox="0 0 404 128" fill="none" xmlns="http://www.w3.org/2000/svg">
<path d="M84.0461 14.2569C84.0461 14.2569 89.4655 16.4508 87.044 20.2623C83.8156 24.6511 76.3207 17.606 63.7524 17.8368C53.7211 17.8368 39.5386 21.6483 38.2701 28.0006C37.4632 28.9245 32.2742 31.1185 31.006 31.1185C29.7378 31.1185 22.935 30.7721 22.1277 31.1185C19.8214 33.6593 22.1277 39.8963 24.318 43.0147C26.509 46.1326 35.8486 46.1326 41.7293 44.1695C47.61 42.2059 54.0668 38.8568 56.1426 37.7016C58.2181 36.5468 64.0984 35.2761 70.4404 36.0848C76.782 36.8932 86.6755 39.7807 87.6672 53.2937C87.044 66.6906 78.5114 65.305 77.7045 65.305C76.8972 65.305 73.5536 63.9187 77.128 61.3779C80.7024 58.8372 83.3257 58.9524 83.3257 58.9524C83.3257 58.9524 75.802 54.1017 76.4072 43.1012C76.4072 43.1012 67.5392 50.8968 54.4184 52.5427C54.4184 52.5427 58.9389 56.4403 59.9762 59.6456C59.9762 59.6456 56.1713 60.8916 52.2796 64.1234C51.3287 63.89 51.4145 58.433 44.2373 56.9605C37.0593 55.488 23.5553 63.2259 21.1695 63.2259C18.7841 63.2259 16.9391 62.3019 16.3622 57.5668C16.3622 57.5668 11.6348 65.651 15.5553 74.5444C19.4758 83.4374 33.514 75.3237 41.2103 69.347C36.3676 77.6628 21.1478 86.4111 23.3959 92.7343C24.6066 101.656 34.9843 92.3014 35.4164 92.0419C35.7625 94.8996 33.9462 103.995 36.4542 106.853C38.9621 109.712 49.6855 113.523 51.9339 113.87C51.9339 113.87 46.2262 106.247 45.3615 97.585C44.9514 89.2714 45.1885 80.9541 45.7076 79.7415C46.2262 78.5286 49.6855 71.0793 60.7548 62.2441C60.7548 62.2441 61.706 63.2837 61.9655 68.4808C61.9655 68.4808 66.6351 64.1859 68.8836 64.1679C71.1321 64.1498 72.5158 63.1968 73.5536 65.7953C74.5917 68.3943 71.9968 70.0397 69.2296 71.9455C66.4625 73.8512 56.6035 79.6547 57.2091 73.5049C57.2091 73.5049 49.6855 76.0453 49.3394 88.2878C48.9934 100.53 56.6039 108.384 59.2558 110.001C60.6396 110.231 60.2939 107.691 60.2939 107.691C60.2939 107.691 58.6793 95.3332 62.1382 90.7133C65.5974 86.0934 71.2473 76.0456 94.4237 72.9273C99.7276 72.8117 102.265 76.9696 101.457 82.8599C100.65 88.7498 95.6922 99.0291 83.3544 105.612C77.7045 107.691 73.0923 102.84 73.3231 97.2964C73.5536 91.7529 82.9903 84.5388 90.2728 88.6345C90.2728 88.6345 90.2728 83.2066 79.8955 83.7838C69.5179 84.3614 63.6375 93.0233 63.6375 100.068C63.6375 107.113 67.7884 112.542 71.1321 113.869C75.283 114.621 81.8554 111.964 85.0838 110.116C88.3126 108.269 101.803 102.147 108.491 84.9386C110.336 80.3187 111.345 73.6779 109.529 71.8594C109.529 71.8594 111.085 69.1739 111.258 62.9369C111.431 56.7006 108.722 40.7047 95.8075 30.3105C95.8075 30.3105 102.264 27.423 101.572 21.9947C100.881 16.5664 96.1528 12.9861 84.0461 14.2569" fill="#D51719"/>
<path d="M141.826 28.9241C146.675 29.2562 148.235 30.0782 146.504 31.3942C146.155 31.8878 145.984 32.2203 145.984 32.3819V44.4076C146.155 44.2456 147.761 43.1806 147.936 42.8482C149.146 41.6986 149.17 41.4715 149.685 41.1424C150.2 40.8133 150.65 41.2819 153.944 43.9135C154.289 44.2456 154.375 44.9642 154.204 45.2925C154.033 45.6165 150.806 45.7784 152.998 45.7858L145.984 45.7862V57.2825C146.155 57.2825 147.761 57.2015 148.456 57.0359C153.843 55.6183 146.155 61.3197 145.984 61.4816V73.8998C145.81 77.1955 146.377 83.0114 145.336 84.3315C144.122 85.8132 142.842 87.1671 139.552 87.6608C138.163 87.9884 137.566 86.4302 137.046 84.6205C136.526 82.8064 135.633 80.0131 134.423 79.6851L132.196 78.0989C132.021 77.9369 132.529 77.6693 133.918 77.6693C138.323 77.6693 138.443 76.4262 138.447 74.523V69.2074C138.272 69.373 136.432 70.8834 135.328 70.8834C133.383 70.6353 134.598 68.1748 133.383 65.5427C132.168 62.9107 131.35 59.8406 131.699 59.3469C132.045 59.0186 133.126 59.3469 134.423 59.3469C135.72 59.3469 136.712 59.0469 138.447 58.5529V45.7862H134.423C133.383 45.7862 132.689 45.234 132.343 44.9019C131.994 44.5736 132.343 44.4076 133.383 44.4076H138.447V31.6412C138.447 30.1592 138.617 29.3368 138.966 29.1711C139.137 28.8435 140.091 28.7621 141.826 28.9245V28.9241ZM239.36 48.9564C241.998 50.3192 243.604 50.3192 243.779 50.9781C243.779 51.3116 243.604 51.7225 243.259 52.2187C242.909 53.048 242.65 54.0409 242.479 55.196C242.13 64.9578 241.514 70.7247 240.649 73.3686C245.843 75.0498 250.194 76.7505 251.928 78.0724C253.662 79.3939 254.613 80.0573 255.308 81.5456C255.827 83.1977 255.653 84.5237 254.788 85.5158C252.534 87.8301 250.54 88.245 248.809 86.7563C248.46 86.2601 248.114 85.4304 247.769 84.2752C246.73 80.4681 244.194 77.5305 239.864 75.0498C237.09 80.8377 233.759 82.9109 226.301 85.0199C224.741 85.3494 223.872 85.4304 223.701 85.268C223.701 85.1013 224.392 84.7718 225.781 84.2756C232.23 79.8147 235.854 75.4308 236.672 65.9528C237.481 56.5695 236.688 49.5034 236.672 48.9704V48.9192C236.677 48.4974 236.799 47.6338 239.36 48.956V48.9564ZM381.421 43.6577C382.464 43.9909 386.634 45.3139 389.241 47.6297C390.109 48.4598 390.37 49.0378 390.024 49.3676C389.848 49.7015 389.066 50.6457 387.676 50.6457H382.199C379.937 50.3155 379.761 50.6943 380.112 53.34V77.9178C380.112 80.2333 379.59 83.7576 378.547 84.5881C377.504 85.5806 374.636 86.2402 371.507 86.5737C369.07 86.9036 367.766 86.2402 367.595 84.5877V84.0912C367.245 82.1048 362.078 76.872 359.125 76.2127C358.603 76.2127 358.342 76.1313 358.342 75.9645C358.342 75.8015 358.949 75.7165 360.168 75.7165C365.383 75.5534 371.507 76.2649 371.507 73.9458V50.3972H354.555C353.858 50.3972 353.251 49.453 352.729 49.1195C352.379 48.7896 352.554 48.6225 353.251 48.6225H376.987C377.159 48.6225 377.681 48.0446 378.553 46.885C380.117 44.7359 381.071 43.6577 381.421 43.6577V43.6577ZM274.78 27.2098C276.546 27.3195 277.601 29.0806 278.938 29.4424C281.665 30.1805 283.848 29.7774 283.616 30.4437C283.616 30.7769 283.356 31.1063 282.836 31.4358C282.142 31.932 281.103 31.1774 278.244 36.387C277.895 37.2171 277.635 37.7943 277.465 38.1238C281.874 38.1967 284.503 38.1967 285.35 38.1238C287.079 35.4799 287.424 34.4985 287.774 34.6612C288.813 34.6612 291.286 35.9018 292.326 38.3829V31.6839C292.326 30.8582 292.496 30.362 292.846 30.1952C293.016 30.0325 293.625 30.1135 294.665 30.4434C296.744 31.106 298.473 31.6839 299.862 32.1801H310.389C310.56 32.1801 310.909 31.7689 311.429 30.9396C312.469 29.618 313.158 28.8733 313.508 28.7069C317.836 30.1952 319.698 32.1801 321.432 34.6609C321.432 34.994 320.997 35.4052 320.132 35.9014C319.612 36.2346 319.352 36.4831 319.352 36.6458V54.0125C319.523 55.1714 318.833 56.0825 317.274 56.7414C319.352 61.9517 323.765 61.9517 321.432 64.4325C318.483 65.0951 315.714 66.1203 311.556 67.9381C314.155 71.2486 317.964 73.3642 324.03 75.8445C325.415 76.3411 326.109 76.7556 326.109 77.0851C326.109 77.2519 325.589 77.6667 324.55 78.3257C322.816 79.3185 321.432 80.7217 320.392 82.5436C320.043 83.3689 318.469 86.4445 318.123 86.6113C314.83 85.4524 311.037 80.0691 308.438 73.86C304.28 76.8374 300.552 80.2252 297.263 84.0319C295.704 85.5206 293.191 86.2237 292.846 86.2237C290.937 84.4015 288.639 81.0549 287.774 77.5813C287.774 77.4186 290.42 77.4186 290.94 77.0855C291.907 76.7409 292.326 75.9303 292.326 75.1006L292.343 61.9514V58.3504C292.343 58.2551 292.337 58.1645 292.326 58.0784V40.1193H276.599C275.638 41.6073 274.625 43.163 273.649 44.4079C272.403 45.9982 271.662 46.4941 270.103 47.8793L281.867 47.7836L282.124 47.5598C284.375 45.5819 285.096 44.6505 285.765 44.4897C286.805 44.3269 287.514 45.5241 288.813 48.3067C289.333 48.9693 289.159 49.2623 288.294 49.2623H282.842C281.802 49.4287 281.192 51.1209 281.022 52.7723V60.321H284.411C286.2 60.321 285.14 57.3823 286.458 57.3035C286.959 57.2733 287.351 57.2925 287.864 57.492L287.882 57.51C291.679 60.829 290.17 61.5958 289.268 61.9521H281.022V74.6047C282.837 74.6047 288.818 71.8486 288.294 73.1713C287.485 75.2095 279.954 80.0849 277.465 81.698C273.359 84.358 272.007 85.8791 271.662 85.8791C269.063 83.7278 267.251 76.0927 268.164 75.3487C269.078 74.6051 270.442 75.3487 271.662 75.3487C272.882 75.3487 274.006 75.186 274.006 75.1009V61.9517H268.164C267.125 61.6223 266.865 60.9022 267.384 60.5687H274.006V49.2623H269.15L269.038 49.2631C268.005 49.2737 266.965 49.4265 264.905 51.5461C264.386 52.0423 264.036 52.2087 263.865 52.0423C263.691 51.8793 263.776 51.3834 264.125 50.5537C269.535 41.8974 272.723 38.126 271.662 29.4421C271.662 27.4579 272.701 26.7136 274.78 27.2098H274.78ZM347.515 42.913C351.165 44.7363 354.817 44.7676 353.773 45.7604C352.73 46.7532 346.956 51.8101 346.059 54.8743C347.448 55.3705 347.795 55.9529 347.102 56.6118C346.58 56.9453 346.32 57.2755 346.32 57.605V83.4587C346.32 85.1112 345.904 85.9524 343.297 85.9524C341.035 86.1154 337.997 85.4466 338.173 84.6205V61.7408C334.299 64.7561 332.054 63.9996 332.536 63.334C333.017 62.6685 334.787 60.1365 335.643 58.4174C338.173 53.34 339.28 50.4804 342.569 42.913C343.437 40.7639 345.599 41.5907 347.515 42.913V42.913ZM180.299 30.4062C181.339 30.4062 183.503 31.9732 186.797 35.0993C187.317 35.5933 187.402 36.7061 187.057 36.8681C186.707 37.0345 186.017 37.0345 184.977 36.8681C179.562 36.8221 176.27 36.8221 175.101 36.8681C173.346 36.9377 170.72 37.2178 170.55 40.1819C170.55 45.7862 170.115 50.6181 169.769 53.2501H178.087C178.258 53.2501 178.867 52.5095 179.907 51.0271C181.117 49.0518 181.897 48.1484 182.246 48.3104C183.631 48.6424 185.71 50.2054 188.484 53.0035C189.004 53.4975 189.264 53.8296 189.264 53.9915C189.089 54.3236 188.744 54.4855 188.224 54.4855L178.607 54.8761C176.527 54.5478 175.573 55.1456 175.748 57.4493V74.5779C175.573 76.886 176.794 77.7886 179.907 77.7886C183.02 77.7886 185.016 76.9662 186.405 71.2004C187.618 70.5716 188.224 71.1275 188.224 72.8679C188.395 76.1637 188.941 77.4591 190.85 78.9412C191.54 79.4352 191.871 80.4317 191.871 80.9257C191.522 84.2178 187.01 85.5261 179.387 85.5261C174.708 85.5261 171.76 85.1134 170.55 84.291C169.161 83.4653 168.47 81.6549 168.47 78.8569V58.5529C165.696 67.9388 163.741 75.077 158.023 79.6851C155.769 81.6608 153.134 83.3222 150.19 84.6415C146.896 85.7915 146.462 85.3821 148.891 83.4068C157.409 75.3487 159.39 70.0864 161.841 54.8761H149.353C148.833 54.7142 148.574 54.0762 148.574 53.7445C148.574 53.5826 148.833 53.4975 149.353 53.4975H162.101C162.101 52.0155 163.391 46.5806 163.012 36.8681H151.567C151.048 36.7061 150.699 35.678 150.528 35.3463C150.353 35.184 150.528 35.0993 151.048 35.0993H176.4C176.745 35.0993 177.44 34.2769 178.48 32.6292C179.345 31.1472 179.949 30.4062 180.299 30.4062V30.4062ZM202.821 29.4965C206.21 31.7999 208.71 31.2341 208.291 33.2948C207.771 34.0388 207.29 36.3078 207.083 37.883L207.068 37.9957L207.083 37.929C207.425 36.4047 208.55 36.8703 209.988 37.2819C210.158 37.2819 210.507 37.3673 211.028 37.53C213.797 37.8631 213.857 38.0601 216.082 37.9618C218.232 37.8665 218.034 38.7411 218.048 39.5926L218.049 39.6817L218.02 39.7174C217.568 40.1794 214.949 40.207 214.782 40.691L215.562 74.5116C215.907 75.504 214.522 76.163 211.403 76.4969C210.014 76.826 209.409 76.082 209.584 74.2635C210.163 65.7268 210.453 54.3906 210.453 40.2552C210.453 39.8282 209.294 39.4582 206.975 39.1449C206.975 43.7777 206.623 42.3829 206.448 55.6183C206.273 68.8532 206.975 78.2152 198.294 83.4068C197.079 84.7287 196.474 85.3067 196.474 85.1436C196.299 85.1436 196.559 84.3993 197.254 82.9109C198.639 80.2627 200.373 76.9806 200.893 73.1738C201.405 69.2659 201.734 63.5766 201.744 55.9812L201.744 55.6183C201.744 52.6413 201.323 34.1993 201.153 32.0476C200.978 30.5589 201.261 29.3338 202.821 29.4965V29.4965ZM220.649 30.2368C223.939 30.7128 225.588 31.2712 225.588 31.9033C225.588 32.2232 225.328 32.6175 224.808 33.0938C224.288 33.5701 224.028 34.0465 224.028 34.5221V78.8079C224.548 80.393 223.074 81.4274 219.609 81.9038C218.395 82.3794 217.875 81.7436 218.05 79.9984V32.6178C217.701 30.5567 218.57 29.7609 220.649 30.2368H220.649ZM304.28 56.6048H301.686V75.3487L307.918 72.8679C305.665 67.9057 304.45 64.0478 304.28 56.6044V56.6048ZM252.22 31.3036C252.74 31.6368 253.085 31.8853 253.26 32.048C253.779 32.7106 253.95 33.5164 253.779 33.6795C253.779 34.0123 253.345 34.1753 252.48 34.1753H243.122C243.467 35.1678 240.555 40.3726 239.864 41.8617H245.078C245.249 41.8617 245.598 41.5318 246.118 40.8688C246.638 40.0435 247.069 39.5473 247.418 39.3805C250.017 39.7137 252.702 41.2024 255.476 43.8462C255.821 44.3428 255.386 44.924 254.176 45.5833C253.656 45.9165 253.396 46.165 253.396 46.3277V70.2572C253.047 71.7455 251.577 72.6566 248.977 72.9865C246.548 73.6491 245.509 72.9047 245.858 70.7535V43.6353H235.201C233.121 43.4725 234.035 44.465 234.035 46.6126V71.4974C234.205 73.1528 232.56 74.1453 229.096 74.4752C227.707 74.8083 227.102 73.8162 227.277 71.4974V40.6211C227.277 39.1324 229.182 39.2992 232.995 41.117C233.86 41.6135 234.38 41.8617 234.555 41.8617H235.981L237.707 34.1753H227.143C226.274 34.1753 225.669 33.6217 225.323 33.2885C225.149 32.7923 225.409 32.5442 226.103 32.5442H243.122C243.467 32.5442 243.987 31.9663 244.682 30.8074C245.547 29.156 246.327 28.2446 247.021 28.0782C247.887 27.9155 249.62 28.9893 252.22 31.3036V31.3036ZM311.556 56.6044H306.099C306.099 59.0116 308.085 62.3942 309.819 65.2044C311.265 64.4329 311.822 63.6583 312.54 62.783C313.67 61.4069 314.675 59.3226 314.675 57.7342C313.172 57.9565 312.133 57.58 311.556 56.6048V56.6044ZM310.384 45.7939H301.686V54.5831H310.385V45.7939H310.384ZM346.955 30.1592C350.615 31.5562 353.598 31.4111 353.251 31.741C353.077 31.9077 352.641 33.4785 351.948 33.4785C350.554 33.812 345.734 39.5212 344.345 40.6771C340.219 44.7219 338.139 45.3139 334.317 47.6297C330.144 50.1119 331.187 46.2217 334.317 42.913C337.446 39.604 339.703 29.8643 340.054 29.5308C340.746 28.041 343.297 28.7622 346.956 30.1592H346.955ZM301.686 37.6069V43.2392H310.384V35.3743H304.804C302.376 35.2112 301.337 35.9559 301.686 37.6069H301.686ZM377.769 29.5433C378.462 29.5433 381.678 30.5361 384.286 32.5225C384.632 32.856 384.893 33.1041 385.069 33.2672C385.937 33.9305 386.283 34.8177 386.112 35.1472C385.937 35.4811 385.24 35.6438 384.025 35.6438H357.946C357.249 35.6438 356.728 35.4811 356.382 35.1472C356.382 34.8177 356.728 34.26 357.424 34.26H373.857L374.64 33.0187C376.204 30.7029 377.247 29.5437 377.769 29.5437V29.5433Z" fill="#050909"/>
<path d="M230.451 90.9529C235.453 91.0328 238.043 92.9496 238.219 96.7055C238.043 100.344 235.453 102.201 230.451 102.281C225.331 102.201 222.712 100.344 222.595 96.7055C222.771 92.9496 225.389 91.0328 230.451 90.9529ZM288.588 91.3431V97.2507C288.53 98.5372 288.763 99.4148 289.287 99.8827C289.869 100.429 290.83 100.702 292.17 100.702C293.508 100.702 294.441 100.429 294.965 99.8827C295.489 99.4148 295.721 98.5372 295.663 97.2507V91.3435H299.157V98.1279C298.983 100.819 296.653 102.202 292.17 102.281C287.569 102.202 285.211 100.819 285.095 98.1283V91.3435H288.588V91.3431ZM311.886 90.9529C315.427 91.071 317.286 92.1982 317.463 94.3333H314.099C314.039 93.2271 313.154 92.6727 311.444 92.6727C309.731 92.7522 308.846 93.2271 308.788 94.0962C308.669 94.9267 309.673 95.4406 311.797 95.6383C311.856 95.6383 312.003 95.6585 312.24 95.6972C316.076 96.2118 317.964 97.2201 317.906 98.7224C317.846 101.016 315.515 102.201 310.912 102.281C306.663 102.281 304.567 101.075 304.627 98.6628H308.168C308.168 99.9287 309.082 100.601 310.912 100.679C313.037 100.641 314.128 100.166 314.187 99.2558C314.187 98.5052 313.154 97.9913 311.089 97.7141C310.793 97.6751 310.587 97.635 310.47 97.5956C306.869 97.0423 305.07 96.034 305.07 94.5704C305.246 92.3168 307.518 91.1112 311.886 90.9529V90.9529ZM346.792 91.3431V97.2507C346.733 98.5372 346.966 99.4148 347.49 99.8827C348.072 100.429 349.033 100.702 350.373 100.702C351.712 100.702 352.644 100.429 353.168 99.8827C353.692 99.4148 353.924 98.5372 353.867 97.2507V91.3435H357.36V98.1279C357.186 100.819 354.856 102.202 350.372 102.281C345.772 102.202 343.414 100.819 343.298 98.1283V91.3435H346.791L346.792 91.3431ZM143.271 90.9529C147.063 90.9529 149.049 91.8989 149.227 93.7903C149.167 94.9341 148.19 95.7222 146.293 96.1555V96.2144C148.663 96.609 149.879 97.5551 149.938 99.0526C149.76 100.826 147.538 101.772 143.271 101.89H137.048V90.9529H143.271H143.271ZM164.044 90.9529L169.86 101.89H166.281L165.029 99.5845H158.497L157.244 101.89H153.844L159.839 90.9529H164.044ZM179.792 90.9529L186.014 99.5845L186.103 99.5256V90.9529H189.391V101.89H184.325L177.925 92.7854L177.837 92.8447V101.89H174.547V90.9529H179.792V90.9529ZM198.802 90.9529V95.6825L204.306 90.9529H208.39L202.353 95.8599L208.923 101.89H204.572L198.802 96.3326V101.89H195.25V90.9529H198.802V90.9529ZM254.235 90.9529V92.7854H247.145V95.3869H253.792V97.2201H247.145V101.89H243.688V90.9529H254.235ZM279.626 90.9529V92.7854H272.536V95.3869H279.183V97.2201H272.536V101.89H269.079V90.9529H279.626ZM327.243 90.9529V95.2687H333.482V90.9529H337.048V101.89H333.572V97.1012H327.243V101.89H323.767V90.9529H327.243V90.9529ZM369.245 90.9529L375.468 99.5845L375.557 99.5256V90.9529H378.845V101.89H373.779L367.379 92.7854L367.29 92.8447V101.89H364.001V90.9529H369.246H369.245ZM230.451 92.6727C227.684 92.6727 226.303 94.0175 226.303 96.7055C226.303 99.3552 227.684 100.68 230.451 100.68C233.157 100.68 234.512 99.3552 234.512 96.7055C234.512 94.0175 233.157 92.6727 230.451 92.6727ZM143.36 97.1605H140.604V100.058H143.36C145.315 100.137 146.263 99.6637 146.204 98.6385C146.263 97.5742 145.315 97.0817 143.36 97.1605ZM161.897 93.081H161.808L159.392 97.7517H164.134L161.897 93.081ZM143.36 92.7854H140.604V95.328H143.36C144.9 95.328 145.671 94.9139 145.671 94.086C145.671 93.2194 144.9 92.7854 143.36 92.7854Z" fill="black"/>
</svg>
