<svg width="128" height="128" viewBox="0 0 128 128" fill="none" xmlns="http://www.w3.org/2000/svg">
<path d="M80.4999 94.25C73.2999 94.25 67.0999 98.45 64.3499 104.5H63.1499C60.3999 98.45 54.1999 94.25 46.9999 94.25V91.3C54.1999 91.3 60.3999 87.1 63.1499 81.05H64.3499C67.0999 87.1 73.2999 91.3 80.4999 91.3V94.25ZM64.2499 75.25C57.0999 75.25 50.9499 79.45 48.1999 85.5H46.9999C44.2499 79.45 38.0999 75.2 30.9499 75.2V72.25C38.0999 72.25 44.2499 68.05 46.9999 62H48.1999C50.9499 68.05 57.0999 72.25 64.1999 72.25C71.3499 72.25 77.4999 68.05 80.2499 62H81.4499C84.1999 68.05 90.3499 72.25 97.4999 72.25V75.2C90.3499 75.2 84.1999 79.4 81.4499 85.5H80.2499C77.5499 79.45 71.3999 75.25 64.2499 75.25ZM47.3499 55.75C40.1999 55.75 34.0499 59.95 31.2999 66H30.0999C27.3499 59.95 21.1999 55.7 14.0499 55.7V52.75C21.1999 52.75 27.3499 48.55 30.0999 42.5H31.2999C34.0499 48.55 40.1999 52.8 47.3499 52.8C54.4999 52.8 60.6499 48.6 63.3999 42.5H64.5999C67.3499 48.55 73.4999 52.75 80.6499 52.75C87.7999 52.75 93.9999 48.55 96.7499 42.5H97.9499C100.7 48.55 106.85 52.8 114 52.8V55.75C106.85 55.75 100.7 59.95 97.9499 66H96.7499C93.9999 59.95 87.8499 55.7 80.6999 55.7C73.5499 55.7 67.3999 59.9 64.6499 66H63.4499C60.6499 59.95 54.4999 55.75 47.3499 55.75ZM64.2499 36.75C57.0999 36.75 50.9499 40.95 48.1999 47H46.9999C44.2499 40.95 38.0999 36.7 30.9999 36.7V33.75C38.1499 33.75 44.2999 29.55 47.0499 23.5H48.2499C50.9999 29.55 57.1499 33.8 64.2999 33.8C71.4499 33.8 77.5999 29.6 80.2999 23.5H81.4999C84.2499 29.55 90.3999 33.75 97.5499 33.75V36.7C90.3999 36.7 84.2499 40.9 81.4999 47H80.2999C77.5499 40.95 71.3999 36.75 64.2499 36.75Z" fill="#B21E27"/>
</svg>
