<svg width="429" height="128" viewBox="0 0 429 128" fill="none" xmlns="http://www.w3.org/2000/svg">
<path d="M273.301 87.0532H279.252V81.8175H281.606V94.5348H279.252V89.003H273.301V94.5348H270.947V81.8179H273.301V87.0532H273.301ZM147.877 89.6781H144.995V87.7287H150.231V94.1455C149.989 94.2297 149.744 94.3023 149.496 94.3629C149.198 94.4412 148.867 94.5085 148.497 94.5665C148.129 94.6288 147.749 94.6777 147.36 94.7169C146.969 94.7521 146.583 94.7717 146.199 94.7717C145.044 94.7717 144.039 94.6194 143.176 94.3116C142.315 94.0022 141.6 93.5718 141.026 93.013C140.452 92.4547 140.012 91.7738 139.739 91.0213C139.453 90.253 139.312 89.4025 139.312 88.472C139.312 87.8122 139.388 87.1836 139.54 86.5837C139.683 86.0022 139.905 85.4431 140.201 84.9225C140.49 84.4145 140.847 83.9485 141.262 83.5374C141.686 83.1206 142.166 82.7655 142.689 82.4828C143.242 82.1829 143.833 81.9581 144.445 81.8144C145.081 81.6589 145.766 81.581 146.493 81.581C147.143 81.581 147.756 81.6268 148.339 81.7173C148.923 81.8112 149.397 81.9221 149.768 82.0548V84.0332C149.274 83.8761 148.769 83.7548 148.257 83.6702C147.748 83.5883 147.233 83.5469 146.717 83.5464C146.018 83.5464 145.366 83.6506 144.756 83.8546C144.151 84.063 143.623 84.3684 143.176 84.7706C142.732 85.1724 142.385 85.6681 142.125 86.2551C141.869 86.8461 141.741 87.5271 141.741 88.3001C141.748 89.8019 142.144 90.9273 142.932 91.6796C143.722 92.4295 144.839 92.8059 146.284 92.8059C146.553 92.8059 146.831 92.7902 147.12 92.7636C147.374 92.7397 147.627 92.7027 147.877 92.6528V89.6781V89.6781ZM158.43 94.7717C157.759 94.7717 157.152 94.7063 156.615 94.5771C156.076 94.4478 155.605 94.2622 155.195 94.0159C154.796 93.7821 154.442 93.4798 154.147 93.1231C153.854 92.7647 153.62 92.3621 153.454 91.9302C153.307 91.5511 153.205 91.1556 153.153 90.7523C153.091 90.3204 153.061 89.841 153.061 89.3073V81.8179H155.414V89.0978C155.414 89.9989 155.523 90.7006 155.739 91.2101C155.985 91.7713 156.34 92.1797 156.808 92.4295C157.273 92.679 157.823 92.8059 158.459 92.8059C159.092 92.8059 159.642 92.679 160.108 92.4295C160.577 92.1797 160.93 91.7713 161.176 91.2101C161.393 90.701 161.5 89.9989 161.5 89.0978V81.8179H163.854V89.3073C163.854 89.841 163.825 90.3204 163.762 90.7523C163.709 91.1557 163.608 91.5512 163.46 91.9302C163.294 92.3623 163.059 92.765 162.766 93.1231C162.465 93.4819 162.103 93.7842 161.697 94.0159C161.278 94.2622 160.797 94.4478 160.253 94.5771C159.708 94.7063 159.102 94.7717 158.43 94.7717V94.7717ZM174.234 91.2935H169.393L168.138 94.5348H165.63L170.73 81.8179H172.88L177.976 94.5348H175.492L174.234 91.2935ZM171.795 84.8767C171.346 86.2093 170.948 87.3203 170.596 88.2151L170.153 89.3441H173.473L173.035 88.2151C172.68 87.3133 172.281 86.2038 171.831 84.8767H171.795V84.8767ZM186.495 87.7287C187.415 89.0289 188.166 90.181 188.74 91.1905H188.799C188.72 89.5352 188.684 88.3318 188.684 87.576V81.8179H191.034V94.5348H188.568L184.38 88.6788C183.646 87.6669 182.882 86.4921 182.097 85.1528H182.037C182.116 86.7133 182.156 87.9198 182.156 88.7774V94.5348H179.802V81.8179H182.269L186.495 87.7287V87.7287ZM202.095 89.6781H199.214V87.7287H204.449V94.1455C204.255 94.2141 204.013 94.2885 203.715 94.3629C203.416 94.4412 203.085 94.5085 202.715 94.5665C202.348 94.6288 201.968 94.6777 201.577 94.7169C201.188 94.7521 200.801 94.7717 200.417 94.7717C199.264 94.7717 198.257 94.6194 197.395 94.3116C196.534 94.0022 195.818 93.5718 195.245 93.013C194.671 92.4551 194.23 91.7741 193.957 91.0213C193.672 90.253 193.532 89.4025 193.532 88.472C193.532 87.8122 193.607 87.1836 193.758 86.5837C193.901 86.0022 194.124 85.4432 194.419 84.9225C194.708 84.4145 195.066 83.9485 195.481 83.5374C195.905 83.1208 196.385 82.7658 196.907 82.4828C197.461 82.1829 198.052 81.9581 198.664 81.8144C199.299 81.6589 199.984 81.581 200.712 81.581C201.361 81.581 201.973 81.6268 202.557 81.7173C203.141 81.8112 203.616 81.9221 203.986 82.0548V84.0332C203.492 83.8761 202.987 83.7548 202.475 83.6702C201.966 83.5882 201.451 83.5468 200.935 83.5464C200.237 83.5464 199.584 83.6506 198.975 83.8546C198.369 84.063 197.841 84.3684 197.395 84.7706C196.95 85.1724 196.603 85.6681 196.343 86.2551C196.088 86.8461 195.959 87.5271 195.959 88.3001C195.966 89.8019 196.363 90.9273 197.15 91.6796C197.939 92.4295 199.057 92.8059 200.502 92.8059C200.771 92.8059 201.05 92.7902 201.338 92.7636C201.626 92.7338 201.878 92.6986 202.095 92.6528V89.6781ZM207.329 94.5348V81.8179H210.728C211.339 81.8179 211.949 81.8558 212.554 81.9315C212.845 81.9702 213.13 82.0161 213.405 82.0709C213.68 82.1226 213.933 82.1876 214.166 82.2655C214.851 82.4797 215.453 82.7714 215.978 83.138C216.506 83.5077 216.946 83.9392 217.299 84.442C217.661 84.9511 217.934 85.5181 218.105 86.1189C218.289 86.736 218.381 87.4073 218.381 88.127C218.381 88.8115 218.302 89.4538 218.151 90.0549C218.004 90.6342 217.768 91.1871 217.45 91.6933C217.131 92.1925 216.729 92.6344 216.263 93.0005C215.786 93.3764 215.222 93.6854 214.569 93.9247C214.025 94.1295 213.405 94.2818 212.714 94.3825C212.023 94.4831 211.246 94.5348 210.38 94.5348H207.329V94.5348ZM210.649 92.585C212.026 92.585 213.101 92.4009 213.877 92.0262C214.563 91.6898 215.081 91.203 215.43 90.5608C215.786 89.9225 215.962 89.1037 215.962 88.111C215.962 87.5889 215.904 87.1218 215.788 86.7039C215.673 86.2849 215.506 85.9117 215.286 85.5867C215.072 85.2632 214.806 84.9783 214.497 84.744C214.174 84.5044 213.82 84.3103 213.444 84.1671C213.051 84.019 212.643 83.9164 212.226 83.8617C211.776 83.7975 211.276 83.7677 210.718 83.7677H209.683V92.585H210.649V92.585ZM230.392 88.1763C230.392 87.4033 230.297 86.727 230.104 86.1486C229.913 85.5671 229.649 85.085 229.308 84.6981C228.977 84.3192 228.563 84.0225 228.098 83.8315C227.63 83.6436 227.119 83.5464 226.561 83.5464C226.004 83.5464 225.493 83.644 225.024 83.8315C224.559 84.0231 224.145 84.3197 223.815 84.6981C223.477 85.085 223.21 85.5675 223.018 86.1486C222.825 86.727 222.73 87.4033 222.73 88.1763C222.73 88.949 222.825 89.6268 223.018 90.2072C223.21 90.7852 223.477 91.2673 223.815 91.651C224.146 92.0272 224.56 92.322 225.024 92.5126C225.493 92.7084 226.004 92.8063 226.561 92.8063C227.119 92.8063 227.63 92.7084 228.098 92.5126C228.562 92.3227 228.976 92.0278 229.308 91.651C229.649 91.2673 229.913 90.7856 230.104 90.2072C230.297 89.6268 230.392 88.949 230.392 88.1763ZM232.821 88.1763C232.821 89.146 232.684 90.0357 232.405 90.8428C232.127 91.651 231.72 92.3446 231.185 92.9284C230.652 93.5123 229.993 93.9634 229.216 94.2885C228.439 94.6092 227.554 94.7717 226.561 94.7717C225.568 94.7717 224.684 94.6092 223.907 94.2885C223.13 93.9634 222.474 93.5123 221.937 92.9284C221.402 92.345 220.996 91.651 220.718 90.8428C220.44 90.0357 220.301 89.146 220.301 88.176C220.301 87.2068 220.439 86.317 220.718 85.5099C220.996 84.7017 221.402 84.0078 221.937 83.4227C222.474 82.8404 223.13 82.3889 223.907 82.0638C224.684 81.7435 225.568 81.581 226.561 81.581C227.554 81.581 228.439 81.7435 229.216 82.0638C229.993 82.3889 230.652 82.8404 231.185 83.4227C231.72 84.0078 232.127 84.7017 232.405 85.5099C232.683 86.317 232.821 87.2067 232.821 88.1763V88.1763ZM242.012 87.7287C242.932 89.0289 243.683 90.181 244.256 91.1905H244.315C244.236 89.5352 244.201 88.3318 244.201 87.576V81.8179H246.55V94.5348H244.085L239.897 88.6788C239.163 87.6669 238.399 86.4921 237.612 85.1528H237.554C237.632 86.7133 237.671 87.9198 237.671 88.7774V94.5348H235.319V81.8179H237.786L242.012 87.7287V87.7287ZM257.612 89.6781H254.731V87.7287H259.965V94.1455C259.771 94.2141 259.529 94.2885 259.23 94.3629C258.933 94.4412 258.601 94.5085 258.232 94.5665C257.864 94.6288 257.484 94.6777 257.094 94.7169C256.704 94.7521 256.318 94.7717 255.934 94.7717C254.779 94.7717 253.773 94.6194 252.912 94.3116C252.05 94.0022 251.335 93.5718 250.761 93.013C250.187 92.4547 249.747 91.7738 249.474 91.0213C249.188 90.253 249.047 89.4025 249.047 88.472C249.047 87.8122 249.124 87.1836 249.273 86.5837C249.417 86.0023 249.64 85.4433 249.936 84.9225C250.224 84.4143 250.581 83.9482 250.997 83.5374C251.421 83.1211 251.901 82.7661 252.423 82.4828C252.977 82.1832 253.567 81.9585 254.18 81.8144C254.816 81.6589 255.501 81.581 256.228 81.581C256.878 81.581 257.49 81.6268 258.074 81.7173C258.658 81.8112 259.132 81.9221 259.503 82.0548V84.0332C259.009 83.8761 258.504 83.7548 257.992 83.6702C257.483 83.5883 256.967 83.5469 256.451 83.5464C255.754 83.5464 255.101 83.6506 254.492 83.8546C253.886 84.063 253.358 84.3684 252.912 84.7706C252.465 85.1724 252.118 85.6681 251.86 86.2551C251.605 86.8461 251.476 87.5271 251.476 88.3001C251.482 89.8019 251.88 90.9273 252.666 91.6796C253.456 92.4295 254.573 92.8059 256.018 92.8059C256.287 92.8059 256.566 92.7902 256.855 92.7636C257.143 92.7338 257.395 92.6986 257.612 92.6528V89.6781V89.6781ZM289.996 94.7717C289.324 94.7717 288.718 94.7063 288.181 94.5771C287.642 94.4478 287.17 94.2622 286.761 94.0159C286.362 93.7815 286.007 93.4793 285.712 93.1231C285.42 92.7646 285.186 92.362 285.02 91.9302C284.879 91.5755 284.778 91.1839 284.719 90.7523C284.657 90.3204 284.628 89.841 284.628 89.3073V81.8179H286.98V89.0978C286.98 89.9989 287.089 90.7006 287.305 91.2101C287.551 91.7713 287.905 92.1797 288.373 92.4295C288.838 92.679 289.39 92.8059 290.026 92.8059C290.657 92.8059 291.209 92.679 291.674 92.4295C292.143 92.1797 292.497 91.7713 292.743 91.2101C292.959 90.701 293.067 89.9989 293.067 89.0978V81.8179H295.42V89.3073C295.42 89.841 295.39 90.3204 295.329 90.7523C295.276 91.1558 295.175 91.5513 295.027 91.9302C294.86 92.3622 294.625 92.7648 294.332 93.1231C294.031 93.4813 293.67 93.7836 293.264 94.0159C292.843 94.2622 292.363 94.4478 291.817 94.5771C291.273 94.7063 290.668 94.7717 289.996 94.7717H289.996ZM305.8 91.2935H300.958L299.704 94.5348H297.196L302.296 81.8179H304.446L309.544 94.5348H307.058L305.8 91.2935V91.2935ZM303.361 84.8767C302.912 86.2093 302.513 87.3203 302.161 88.2151L301.72 89.3441H305.039L304.6 88.2151C304.247 87.3133 303.846 86.2038 303.397 84.8767H303.361V84.8767ZM314.756 84.4326C315.376 85.3243 315.812 85.9634 316.061 86.3527H316.11C316.455 85.8177 316.888 85.1814 317.408 84.4416L319.241 81.8179H321.949L317.474 88.0718L322.141 94.5348H319.47L317.464 91.6933C317.003 91.0395 316.548 90.3808 316.1 89.7173H316.061C315.615 90.3816 315.161 91.0403 314.699 91.6933L312.693 94.5348H310.025L314.688 88.0722L310.215 81.8179H312.922L314.756 84.4326V84.4326ZM323.867 94.5348V81.8179H326.221V94.5348H323.868H323.867ZM335.985 87.7287C336.905 89.0289 337.656 90.181 338.23 91.1905H338.289C338.211 89.5352 338.174 88.3318 338.174 87.576V81.8179H340.524V94.5348H338.06L333.871 88.6788C333.136 87.6669 332.372 86.4921 331.587 85.1528H331.528C331.606 86.7133 331.645 87.9198 331.645 88.7774V94.5348H329.292V81.8179H331.76L335.985 87.7287H335.985ZM351.585 89.6781H348.704V87.7287H353.938V94.1455C353.745 94.2141 353.502 94.2885 353.205 94.3629C352.906 94.4412 352.575 94.5085 352.205 94.5665C351.837 94.6288 351.457 94.6777 351.069 94.7169C350.678 94.7521 350.291 94.7717 349.907 94.7717C348.754 94.7717 347.747 94.6194 346.885 94.3116C346.023 94.0022 345.309 93.5718 344.735 93.013C344.161 92.455 343.72 91.7741 343.447 91.0213C343.163 90.253 343.021 89.4025 343.021 88.472C343.021 87.8122 343.097 87.1836 343.248 86.5837C343.392 86.0023 343.615 85.4433 343.911 84.9225C344.199 84.414 344.556 83.9479 344.971 83.5374C345.395 83.1211 345.874 82.7662 346.396 82.4828C346.95 82.183 347.541 81.9583 348.154 81.8144C348.789 81.6589 349.474 81.581 350.202 81.581C350.851 81.581 351.463 81.6268 352.048 81.7173C352.631 81.8112 353.106 81.9221 353.476 82.0548V84.0332C352.982 83.876 352.477 83.7547 351.965 83.6702C351.456 83.5883 350.941 83.5469 350.425 83.5464C349.727 83.5464 349.074 83.6506 348.465 83.8546C347.859 84.063 347.331 84.3684 346.885 84.7706C346.44 85.1724 346.093 85.6681 345.833 86.2551C345.578 86.8461 345.45 87.5271 345.45 88.3001C345.456 89.8019 345.853 90.9273 346.639 91.6796C347.43 92.4295 348.546 92.8059 349.993 92.8059C350.261 92.8059 350.54 92.7902 350.829 92.7636C351.083 92.7397 351.335 92.7027 351.585 92.6528V89.6781H351.585ZM374.225 85.2009C374.225 85.7527 374.102 86.2587 373.849 86.7164C373.6 87.177 373.188 87.5604 372.61 87.8615V87.9007C372.931 88.0068 373.223 88.1466 373.492 88.3158C373.75 88.4765 373.98 88.678 374.174 88.9126C374.36 89.1424 374.507 89.406 374.612 89.6977C374.718 89.9899 374.774 90.3137 374.774 90.6779C374.774 90.9857 374.721 91.3201 374.623 91.6726C374.524 92.0297 374.351 92.3708 374.102 92.7052C373.849 93.0397 373.518 93.3439 373.101 93.6235C372.686 93.9016 372.162 94.1224 371.525 94.2885C371.146 94.3752 370.762 94.4366 370.375 94.4725C370.145 94.496 369.886 94.5117 369.604 94.5223C369.326 94.5313 369.009 94.5348 368.655 94.5348H364.92V81.8179H369.385C370.34 81.8179 371.106 81.9119 371.689 82.103C372.124 82.2428 372.501 82.4245 372.823 82.6477C373.144 82.8756 373.407 83.1255 373.616 83.4012C373.823 83.6772 373.978 83.9678 374.075 84.2736C374.174 84.5814 374.225 84.8904 374.225 85.2009V85.2009ZM367.274 89.003V92.585H368.808C369.218 92.585 369.572 92.5748 369.868 92.5529C370.16 92.529 370.414 92.4945 370.624 92.4421C370.953 92.3743 371.223 92.2795 371.441 92.164C371.656 92.0469 371.833 91.913 371.968 91.7642C372.103 91.6154 372.198 91.4493 372.256 91.2708C372.315 91.0899 372.342 90.8976 372.342 90.694C372.342 90.34 372.243 90.0286 372.046 89.7619C371.846 89.4976 371.536 89.2995 371.113 89.1655C370.9 89.1018 370.681 89.0607 370.46 89.043C370.141 89.0134 369.82 89.0001 369.499 89.003H367.275H367.274ZM369.396 87.0528C370.034 87.0528 370.513 86.9925 370.828 86.8653C371.178 86.7204 371.43 86.5187 371.578 86.2622C371.729 86.0057 371.804 85.714 371.804 85.3929C371.804 85.0553 371.719 84.7565 371.546 84.4933C371.375 84.2309 371.08 84.0367 370.663 83.9106C370.465 83.8541 370.262 83.8168 370.057 83.7994C369.773 83.7752 369.487 83.7646 369.202 83.7677H367.274V87.0532H369.396V87.0528ZM384.528 91.2939H379.687L378.431 94.5348H375.924L381.023 81.8179H383.173L388.27 94.5348H385.785L384.528 91.2935V91.2939ZM382.089 84.8767C381.64 86.2093 381.24 87.3203 380.89 88.2151L380.446 89.3441H383.766L383.328 88.2151C382.973 87.3133 382.573 86.2038 382.125 84.8767H382.089V84.8767ZM396.789 87.7287C397.709 89.0289 398.46 90.181 399.034 91.1905H399.092C399.013 89.5352 398.977 88.3318 398.977 87.576V81.8179H401.328V94.5348H398.863L394.674 88.6788C393.94 87.6669 393.176 86.4921 392.39 85.1528H392.33C392.409 86.7133 392.449 87.9198 392.449 88.7774V94.5348H390.096V81.8179H392.563L396.788 87.7287H396.789ZM404.401 94.5348V81.8179H406.755V87.605H406.79L411.642 81.8179H414.558L409.203 88.118L415 94.5348H411.985L406.79 88.7923H406.755V94.5348H404.401H404.401ZM366.477 35.0477L365.287 37.1052V54.0537L359.807 54.5331V52.7896H347.586V64.2088C349.536 63.711 351.453 63.0884 353.323 62.3447L355.335 65.2148C351.173 67.4039 346.705 68.9537 342.081 69.8122L340.064 65.4877C340.891 65.4149 341.712 65.3217 342.527 65.2066V32.724L347.586 33.1665V34.0088H360.748L361.491 32.7244L366.477 35.0477V35.0477ZM347.587 48.9978H359.807V45.0853H347.587V48.9978ZM347.587 41.7132H359.807V37.8011H347.587V41.7132ZM366.974 58.3488C365.032 59.6451 362.948 60.715 360.763 61.5376C362.655 63.0685 364.744 64.3378 366.974 65.3115L362.471 69.8122C356.868 66.3629 352.698 60.8116 351.064 54.2578L354.01 53.4691C355.058 55.377 356.332 57.1522 357.804 58.7565C359.941 57.5714 361.928 56.1357 363.725 54.4798L366.974 58.3488V58.3488ZM341.172 63.1377C337.763 66.0157 333.876 68.2746 329.687 69.8122L327.525 65.1772C328.484 64.9693 329.435 64.724 330.375 64.4418V55.8195H325.484L324.814 52.0276H330.375V47.3855H327.171L326.823 45.417L324.814 42.5504C327.007 39.2488 328.736 35.6612 329.952 31.8887L335.777 32.9151C335.374 33.9679 334.915 34.9983 334.401 36.0017H341.052L340.719 39.7936H332.115C331.17 41.1387 330.123 42.4087 328.982 43.5921H340.208L339.877 47.3851H335.857V52.0272H341.052L340.719 55.8191H335.857V62.3287C337.035 61.7654 338.184 61.142 339.299 60.4607L341.173 63.1377H341.172ZM385.931 34.877C382.582 38.5695 378.579 41.6107 374.123 43.847L372.035 40.8665C375.388 38.3434 378.329 35.3146 380.752 31.8887L385.931 34.877H385.931ZM189.483 48.6132H189.485H189.483L193.55 39.8946H186.358L185.689 36.1027H195.32L197.286 31.8887L203.543 32.4361L201.832 36.1027H227.848L227.516 39.8946H200.063L195.994 48.6132H206.078V41.3831L211.982 41.8988V48.6132H225.741L225.409 52.4051H211.982V62.8295C211.982 66.2208 209.231 68.9698 205.838 68.9698H198.641L197.972 65.1772H204.109C204.631 65.1771 205.132 64.9695 205.502 64.6001C205.871 64.2308 206.079 63.7298 206.079 63.2074V52.4047H190.153L189.483 48.6128L189.483 48.6132ZM218.049 55.9589C221.63 58.0137 224.836 60.663 227.528 63.7933L222.908 67.6662C220.806 64.3359 218.175 61.371 215.117 58.8884L218.049 55.9593V55.9589ZM199.793 57.3792C196.766 61.449 193.025 64.9346 188.751 67.6658L186.11 65.0245C189.37 62.081 192.145 58.6417 194.333 54.8334L199.793 57.3792ZM285.09 35.5862C288.416 38.2159 291.074 41.5937 292.848 45.4448L287.342 48.0109C285.852 44.3227 283.928 40.8255 281.609 37.5935L285.09 35.5862H285.09ZM295.928 31.8887C299.617 35.1018 302.361 39.2586 303.866 43.9132L298.272 46.5193C297.002 41.9149 295.08 37.5157 292.564 33.4551L295.928 31.8883L295.928 31.8887ZM317.353 34.5618C315.475 39.9071 312.473 44.7246 308.628 48.7291L304.939 47.0096C307.666 42.6283 309.711 37.8579 311.004 32.8618L317.353 34.5618ZM304.612 55.0985C310.72 57.3988 316.061 61.2326 320.177 66.1241L313.784 69.8122C310.747 64.8511 306.608 60.6558 301.689 57.5511L304.612 55.0985V55.0985ZM295.92 57.633C292.417 62.8636 287.538 67.0968 281.801 69.8122L278.861 66.874C283.512 63.8316 287.404 59.7656 290.242 54.9873L295.92 57.633V57.633ZM278.439 49.759H320.598L320.266 53.5509H279.109L278.439 49.759ZM272.263 39.1321C267.987 41.6626 263.403 43.6316 258.624 44.9905V48.1284C258.624 48.2822 258.654 48.4344 258.713 48.5764C258.772 48.7185 258.858 48.8475 258.967 48.9561C259.076 49.0647 259.205 49.1509 259.347 49.2095C259.489 49.2682 259.642 49.2983 259.795 49.2981H272.793L272.078 53.3551H259.286C255.894 53.3551 253.144 50.6061 253.144 47.2156V46.2632C251.076 46.6376 248.969 46.905 246.831 47.055L245.979 43.8799C248.405 43.4708 250.798 42.8936 253.144 42.1526V32.7306L258.624 33.2099V40.0802C261.723 38.7088 264.685 37.0455 267.47 35.1127L272.263 39.1321H272.263ZM232.063 57.5699H250.192V52.5077L256.095 53.0234V57.5699H274.224L273.892 61.3618H256.095V69.8126H250.192V61.3618H232.734L232.063 57.5699ZM243.603 54.62H237.7V43.4206C236.642 43.9111 235.562 44.3558 234.465 44.7532L232.063 42.6378C236.658 39.6036 240.785 35.9825 244.326 31.8891L249.587 34.9722C246.993 37.6703 243.987 40.0066 240.663 41.8957L243.603 42.153V54.62V54.62ZM144.159 54.2636V34.7078L150.483 35.2612V36.1031H161.452V31.8887L167.353 32.404V36.1027H181.473L181.104 40.3167H150.483V53.8427C150.483 60.7423 147.746 66.8262 141.914 69.8122L139.312 67.3212C142.257 63.9902 144.159 60.4611 144.159 54.2632V54.2636ZM386.767 44.7168C384.656 47.1072 382.27 49.2395 379.658 51.0693L383.256 51.3834V69.8126H377.354V52.568C376.235 53.2437 375.084 53.8643 373.904 54.4277L371.192 51.7159C375.089 48.8677 378.585 45.5089 381.587 41.7296L386.767 44.7168V44.7168ZM392.759 65.1764H400.161C400.683 65.1763 401.184 64.9688 401.554 64.5995C401.924 64.2302 402.132 63.7292 402.132 63.2066V48.6763H388.462L387.792 44.8832H413.351L413.02 48.6763H408.034V62.8288C408.034 66.2188 405.283 68.9683 401.891 68.9683H393.429L392.759 65.1764ZM388.764 33.9943H412.346L412.014 37.7874H389.434L388.764 33.9943H388.764Z" fill="#1B1918"/>
<path d="M83.4709 94.9173C76.0187 94.9173 69.6023 99.358 66.7276 105.737H65.4772C62.6036 99.3584 56.1888 94.9177 48.7354 94.9177V91.8092C56.1888 91.8092 62.606 87.3684 65.4795 80.99H66.7299C69.6023 87.3684 76.0187 91.8092 83.4709 91.8092V94.9177V94.9173ZM66.1034 75.0271C58.6512 75.0271 52.2352 79.4678 49.3604 85.8462H48.1101C45.2369 79.4678 38.8217 75.0259 31.3683 75.0259V71.9185C38.8217 71.9185 45.2388 67.4766 48.1124 61.0994H49.3628C52.2364 67.4766 58.6516 71.9185 66.1038 71.9185C73.5571 71.9185 79.9719 67.4766 82.8455 61.0994H84.0959C86.9695 67.4766 93.3855 71.9185 100.839 71.9185V75.0259C93.3855 75.0259 86.9706 79.4678 84.0971 85.8458H82.8467C79.9731 79.4678 73.5571 75.0271 66.1038 75.0271H66.1034ZM48.7354 55.1353C41.2833 55.1353 34.8669 59.5772 31.9921 65.9544H30.7417C27.8697 59.5772 21.4534 55.1341 14 55.1341V52.0267C21.4534 52.0267 27.8705 47.586 30.7441 41.2076H31.9945C34.8681 47.586 41.2833 52.0279 48.7354 52.0279C56.19 52.0279 62.6036 47.586 65.4772 41.2076H66.7276C69.6019 47.586 76.0183 52.0267 83.4709 52.0267C90.9231 52.0267 97.3403 47.586 100.215 41.2076H101.465C104.339 47.586 110.753 52.0279 118.207 52.0279V55.1353C110.753 55.1353 104.337 59.5772 101.463 65.9544H100.213C97.3391 59.5772 90.9231 55.1341 83.4709 55.1341C76.0187 55.1341 69.6023 59.5772 66.7299 65.9541H65.4795C62.606 59.5772 56.1888 55.1353 48.7354 55.1353V55.1353ZM66.1038 35.2435C58.6516 35.2435 52.234 39.6842 49.3593 46.0626H48.1089C45.2369 39.6842 38.8205 35.2423 31.3679 35.2423V32.1349C38.8205 32.1349 45.2377 27.693 48.1112 21.3158H49.3616C52.236 27.693 58.6504 32.1361 66.1038 32.1361C73.5571 32.1361 79.9719 27.693 82.8447 21.3158H84.0947C86.9683 27.693 93.3855 32.1349 100.839 32.1349V35.2423C93.3855 35.2423 86.9695 39.6842 84.0971 46.0623H82.8467C79.9731 39.6842 73.5571 35.2435 66.1038 35.2435V35.2435Z" fill="#B21E27"/>
</svg>
