<svg width="128" height="128" viewBox="0 0 128 128" fill="none" xmlns="http://www.w3.org/2000/svg">
<path d="M61.5999 104.95C53.0999 109.65 45.3999 104.1 38.1499 97.3C33.0499 92.6 25.7999 86.2 23.2499 79.8C16.4499 66.6 35.1999 49.95 48.3999 48.25V79.8H79.8999V80.25C79.9499 81.5 77.3999 95.95 61.5999 104.95Z" fill="#1984BF"/>
<path d="M48.4004 79.8499C48.4004 81.1499 50.9504 95.5999 66.7004 104.6C75.2004 109.3 82.9004 103.75 90.1504 96.9499C95.2504 92.2499 102.5 85.8499 105.05 79.4499C111.85 66.2499 92.4504 49.5999 79.2504 47.8999V79.4499H48.4004V79.8499Z" fill="#1984BF"/>
<path d="M79.9499 47.8498C79.9499 46.5498 77.3999 32.0498 61.6499 23.0998C53.1499 18.3998 45.4999 23.9498 38.2499 30.7498C33.1499 35.0498 25.4999 41.8498 22.8999 47.8498C16.0999 61.0998 35.1999 77.7498 48.3999 79.4498V47.8498H79.9499Z" fill="#AA2F82"/>
<path d="M47.75 48.4501C47.75 47.1501 50.95 32.0501 66.75 23.1001C75.25 18.4001 82.25 23.6001 89.5 30.4001C94.6 35.1001 101.85 41.5001 104.4 47.9001C111.2 61.1001 92.45 77.7501 79.25 79.4501V48.4501H47.75Z" fill="#AA2F82"/>
<path d="M25.0498 63.9998C30.0998 71.9998 40.3998 78.5998 48.4498 79.4498V48.5498C40.3998 49.3998 30.0998 55.9998 25.0498 63.9998Z" fill="#1B2C79"/>
<path d="M79.2496 48.5502C79.2496 47.2502 77.5496 34.1002 64.1996 24.7002C50.8496 33.7002 48.3496 47.3002 48.3496 48.5502H79.2496Z" fill="#86167B"/>
<path d="M79.25 48.5498V79.4498C87 78.5498 97.8 71.8998 102.95 63.1498C97.9 55.1498 87.3 49.3998 79.25 48.5498Z" fill="#1B2C79"/>
<path d="M79.2496 79.4502C79.2496 80.7502 77.7496 93.7502 64.3996 103.2C51.0496 93.7502 48.3496 80.7502 48.3496 79.5002L79.2496 79.4502Z" fill="#0D579F"/>
</svg>
