<svg width="128" height="128" viewBox="0 0 128 128" fill="none" xmlns="http://www.w3.org/2000/svg">
<path d="M63.8005 21.5C43.9505 21.5 29.0505 38.25 30.4505 56.85C31.4505 69.95 38.2505 76.15 48.9505 82.95C55.8005 87.3 61.8005 91.4 63.9505 92.7H64.1005C64.1005 92.7 73.6005 86.2 80.9005 81.55C90.7005 75.55 96.8005 67.85 97.1505 56.8C98.1505 37.85 83.7005 21.5 63.8005 21.5Z" fill="#0A7DB7"/>
<path d="M97.25 54.7496C97.25 63.7996 93.65 71.2496 87.75 76.5496V54.5496L75.7 63.3496V68.8996L73.7 70.3496V64.8496L65.4 70.9496V75.9496L63.95 76.9996L62.5 75.9496V70.9496L54.15 64.8496V70.3496L52.2 68.8996V63.3996L40.15 54.5496V76.4996C34.3 71.2496 30.65 63.7496 30.65 54.6996C30.65 38.9496 41.7 25.7496 56.5 22.3496C36.6 25.8996 21.5 43.1996 21.5 64.0996C21.5 87.4996 40.5 106.45 63.95 106.45C87.4 106.45 106.4 87.4996 106.4 64.0996C106.4 43.2496 91.3 25.8996 71.45 22.3996C86.2 25.7496 97.25 38.9496 97.25 54.7496ZM78.95 75.3496V71.3496L80.6 70.1496V81.6496L63.95 92.6996L47.3 81.6496V70.1496L48.95 71.3496V75.3496L57.05 81.2996V76.5996L58.7 77.7996V82.5496L63.9 86.3496L69.1 82.5496V77.7996L70.75 76.5996V81.2996L78.95 75.3496Z" fill="#FFC82F"/>
</svg>
