<svg width="403" height="128" viewBox="0 0 403 128" fill="none" xmlns="http://www.w3.org/2000/svg">
<path d="M14 64.0002C14 36.3859 36.3859 14 64.0002 14C91.6145 14 114 36.3859 114 64.0002C114 91.6145 91.6145 114 64.0002 114C36.3859 114 14 91.6145 14 64.0002ZM100.447 60.2296H74.6411L64.084 49.6728L50.4268 63.3296L64.084 76.9868L74.6407 66.43H91.3141C90.1413 80.4219 78.3272 91.3979 64.0002 91.3979C48.8351 91.3979 36.6021 79.1653 36.6021 64.0002C36.6021 48.8351 48.8351 36.6021 64.0002 36.6021C74.9758 36.6021 84.4439 43.0539 88.8005 52.4378L98.6871 52.3536C93.8278 37.8591 80.0868 27.3857 64.0002 27.3857C43.8078 27.3857 27.3857 43.8078 27.3857 64.0002C27.3857 84.1925 43.8078 100.614 64.0002 100.614C84.1925 100.614 100.614 84.1918 100.614 63.9998C100.614 62.659 100.531 61.4024 100.447 60.2292V60.2296Z" fill="#D82321"/>
<path d="M143.327 102.436H136.262V88.0109H142.994C146.236 88.0936 147.981 89.2543 148.147 91.4095C148.147 93.1508 147.233 94.2286 145.321 94.8088C147.316 95.2232 148.48 96.384 148.729 98.125C148.729 101.027 146.901 102.436 143.327 102.436V102.436ZM142.495 90.4144H139.503V93.8137H142.496C143.909 93.7307 144.657 93.1504 144.657 91.9897C144.574 90.9119 143.826 90.4144 142.495 90.4144ZM142.828 96.3006H139.503V100.197H142.745C144.407 100.197 145.238 99.5342 145.238 98.2073C145.072 96.9639 144.241 96.3006 142.828 96.3006H142.828ZM165.602 102.436H161.945L160.864 99.2854H155.379L154.298 102.436H150.724L156.127 88.0105H160.033L165.602 102.436ZM160.283 96.7981L158.454 91.8239C158.288 91.4094 158.205 90.995 158.121 90.5801H158.038C157.955 91.0777 157.872 91.4925 157.706 91.907L156.043 96.7981H160.283V96.7981ZM181.062 102.436H177.737L172.002 93.3996C171.753 92.9851 171.503 92.4876 171.254 92.0731C171.337 92.6533 171.337 93.4823 171.337 94.4773V102.436H168.262V88.0109H171.836L177.322 96.8815C177.405 96.9642 177.405 97.0473 177.488 97.213C177.82 97.7105 177.987 98.0423 178.07 98.2907V98.2081C177.987 97.7105 177.987 96.9642 177.987 96.0526V88.0109H181.062V102.436V102.436ZM198.6 102.436H194.444L190.205 96.3006L188.044 98.6222V102.436H184.719V88.0109H188.044V94.56L194.028 88.0109H198.101L192.283 94.1459L198.6 102.436V102.436ZM223.701 95.3059C223.452 99.9483 221.042 102.436 216.553 102.685C211.981 102.436 209.571 99.9483 209.322 95.3059C209.571 90.4974 211.981 88.0105 216.553 87.8444C221.042 88.0932 223.369 90.5805 223.701 95.3059ZM220.044 95.3059C219.961 92.3215 218.714 90.7462 216.387 90.5805C214.059 90.7462 212.73 92.3215 212.647 95.3059C212.73 98.2903 213.976 99.8656 216.304 99.9483C218.797 99.8656 220.044 98.3734 220.044 95.3059ZM237.332 90.6635H230.267V94.1451H236.418V96.7981H230.267V102.436H226.943V88.0109H237.332V90.6635ZM259.109 91.4095L256.117 92.4872C255.452 91.1607 254.205 90.4974 252.46 90.4974C250.298 90.7462 249.052 92.2388 248.886 95.1398C248.969 98.125 250.215 99.6999 252.709 99.9487C254.455 99.9487 255.618 99.4511 256.2 98.4561V96.7155H251.961V94.0625H259.275V99.4511C258.278 101.524 256.034 102.602 252.626 102.684C248.054 102.436 245.644 99.9487 245.478 95.2229C245.727 90.5805 248.054 88.0932 252.46 87.8444C255.701 87.7618 257.945 89.0052 259.109 91.4095V91.4095ZM263.265 96.3006V88.0109H266.59V96.301C266.673 98.7052 267.753 99.949 269.914 99.949C271.992 99.949 272.99 98.7052 272.99 96.301V88.0109H276.314V96.1353C276.314 100.529 274.07 102.685 269.665 102.685C265.509 102.685 263.348 100.529 263.265 96.301V96.3006ZM292.772 102.436H289.115L288.034 99.2854H282.549L281.468 102.436H277.894L283.297 88.0105H287.203L292.772 102.436H292.772ZM287.535 96.7981L285.706 91.8239C285.54 91.4094 285.457 90.995 285.374 90.5801H285.291C285.208 91.0777 285.125 91.4925 284.959 91.907L283.296 96.7981H287.535ZM308.314 102.436H304.99L299.255 93.3992C299.005 92.9847 298.756 92.4872 298.507 92.0727C298.59 92.6529 298.59 93.4819 298.59 94.4769V102.436H295.514V88.0109H299.089L304.574 96.8815C304.658 96.9642 304.658 97.0473 304.741 97.213C305.073 97.7105 305.239 98.0423 305.322 98.2907V98.2081C305.239 97.7105 305.239 96.9642 305.239 96.0526V88.0109H308.314V102.436V102.436ZM325.187 91.4095L322.195 92.4872C321.53 91.1607 320.284 90.4974 318.538 90.4974C316.377 90.7462 315.13 92.2388 314.964 95.1398C315.047 98.125 316.294 99.6999 318.787 99.9487C320.533 99.9487 321.696 99.4511 322.278 98.4561V96.7155H318.039V94.0625H325.354V99.4511C324.356 101.524 322.112 102.602 318.704 102.684C314.133 102.436 311.722 99.9487 311.556 95.2229C311.805 90.5805 314.133 88.0932 318.538 87.8444C321.779 87.7618 324.024 89.0052 325.187 91.4095V91.4095ZM340.232 102.436H327.265V99.9487L335.66 90.6632H327.93V88.0105H339.816V90.6632L331.172 99.9487H340.149V102.436H340.232ZM355.442 102.436H352.117V96.6324H345.801V102.436H342.476V88.0109H345.801V93.8141H352.117V88.0109H355.442V102.436V102.436ZM373.063 95.3059C372.814 99.9483 370.403 102.436 365.915 102.685C361.343 102.436 358.933 99.9483 358.684 95.3059C358.933 90.4974 361.343 88.0105 365.915 87.8444C370.32 88.0932 372.73 90.5805 373.063 95.3059ZM369.406 95.3059C369.323 92.3215 368.076 90.7462 365.749 90.5805C363.421 90.7462 362.091 92.3215 362.008 95.3059C362.091 98.2903 363.338 99.8656 365.666 99.9483C368.159 99.8656 369.406 98.3734 369.406 95.3059ZM375.556 96.301V88.0105H378.881V96.3006C378.964 98.7048 380.044 99.9487 382.206 99.9487C384.284 99.9487 385.281 98.7048 385.281 96.3006V88.0109H388.606V96.1353C388.606 100.529 386.362 102.685 381.956 102.685C377.717 102.685 375.556 100.529 375.556 96.301V96.301ZM207.242 40.1117V26.1465H214.913C214.913 26.1465 215.08 34.3678 214.913 50.5609C214.747 66.7536 205.323 74.9749 205.323 74.9749C205.323 74.9749 204.156 73.8123 199.153 70.5736C207.825 64.0136 207.241 49.9796 207.241 49.9796V40.5712L203.206 54.7248L197.217 53.058L201.875 38.8082L207.241 40.1117H207.242ZM225.338 53.0343V26.1465H233.01V73.7293H225.338V53.3236L218.675 54.7248L215.182 39.8914L221.503 38.8913L225.338 53.0343V53.0343ZM168.94 24.9747L171.435 31.3914L191.146 31.2246V38.3081L149.811 38.7248C149.811 38.7248 149.395 48.8082 148.729 55.3913C147.482 68.0582 141.577 74.9749 141.577 74.9749C141.577 74.9749 138.916 73.058 135.09 69.8083C139.997 66.3914 140.995 55.058 140.995 50.0582V31.4748H162.037L160.29 27.0581L168.94 24.9747H168.94ZM233.063 39.8914L239.384 38.8913L243.293 53.3083L236.556 54.7248L233.063 39.8914ZM243.434 26.1465H251.106V73.7293H243.434V26.1465H243.434ZM279.123 57.0642H279.04V65.0247L285.341 61.9565V68.6731C280.532 69.6682 273.485 74.9749 273.485 74.9749L267.93 70.1653L270.417 67.2632V57.5618H262.043V51.7575H270.417V46.119C270.417 46.119 268.51 46.2851 266.603 46.119C266.603 47.6946 265.111 49.1872 265.111 49.1872C265.111 49.1872 264.53 48.2748 262.043 41.5585C269.671 31.691 270.086 24.9747 270.086 24.9747L278.874 26.3016C278.625 28.3744 276.47 31.6083 276.47 31.6083H286.336V36.9151H273.982C273.153 39.1539 271.993 40.8953 271.993 40.8953H284.595V46.0363H279.289V51.6745H286.336V56.8985L279.123 57.0642H279.123ZM315.52 52.4208L320.246 57.5618L310.297 61.9565C315.769 65.6049 320.246 65.9367 320.246 65.9367C320.246 65.9367 318.091 69.5021 316.018 71.824C311.458 71.4092 303.83 65.1074 303.83 65.1074C303.83 65.1074 303.996 67.0144 303.83 68.507C301.343 68.507 289.487 73.0678 289.487 73.0678C289.487 73.0678 288.492 71.5752 286.419 68.507C288.492 66.6 287.911 64.1123 287.911 64.1123V27.2963H317.096L316.93 52.4208H315.52V52.4208ZM294.959 32.8521V36.8324H309.883V32.8521H294.959ZM294.959 64.6929C294.959 64.6929 299.933 62.2053 302.42 62.6197C300.265 60.8784 297.86 56.7328 296.866 52.5038H294.959V64.6929V64.6929ZM294.959 46.0363V45.9533H309.883V41.973H294.959V46.0363V46.0363ZM306.649 57.8105L313.862 52.3377H304.079C304.576 56.8155 306.649 57.8105 306.649 57.8105V57.8105ZM344.932 24.9747C344.932 24.9747 348.343 27.4704 351.67 29.4671C349.175 32.712 335.95 42.9447 335.95 42.9447C335.95 42.9447 333.704 39.5337 330.793 36.8719C343.186 28.6352 344.932 24.9747 344.932 24.9747V24.9747ZM355.246 28.6352H385.105V34.9582H355.246V28.6352H355.246ZM330.793 53.5106C335.368 50.682 345.931 38.7852 345.931 38.7852L351.67 42.0297V42.8616C350.339 45.4407 347.095 49.1012 347.095 49.1012V74.9749H339.277V55.8398C337.447 58.086 333.704 59.8328 333.704 59.8328C333.704 59.8328 332.124 56.7548 330.793 53.5102V53.5106ZM353.001 43.444H387.434V49.7667H378.784V66.9051C378.784 74.2261 370.3 74.9749 370.3 74.9749H359.072C358.906 72.6453 356.993 68.0695 356.993 68.0695H365.06C371.548 68.0695 370.217 63.6602 370.217 63.6602V49.767H353.001V43.4444V43.444Z" fill="black"/>
</svg>
