<svg width="128" height="128" viewBox="0 0 128 128" fill="none" xmlns="http://www.w3.org/2000/svg">
<path d="M94.6 20C85.36 25.28 65.12 29.24 65.12 29.24C53.68 31.44 47.52 36.28 47.52 36.28C38.28 42 35.2 49.04 34.32 50.36V60.48C34.32 60.92 34.76 61.36 35.2 61.36H35.64C37.84 60.04 41.8 57.4 47.52 56.52C47.96 56.52 47.96 56.52 47.96 56.96V57.84C38.72 70.16 33 85.56 33 102.28C33 104.04 33 106.24 33.44 108L35.64 107.56L39.16 107.12C40.04 106.68 40.92 106.24 40.92 104.92C40.92 99.2 42.24 93.92 44 89.96C48.4 94.8 56.32 99.64 64.24 100.52C78.76 102.28 91.08 94.36 93.28 82.92C93.72 80.28 93.72 76.76 92.84 74.12C91.08 68.84 86.68 66.64 86.68 66.64C75.24 60.04 63.36 69.72 61.6 71.04H72.6C73.48 71.04 74.36 71.92 74.36 72.8V83.8C74.36 84.68 73.48 85.56 72.6 85.56H62.04C61.16 85.56 60.28 84.68 60.28 83.8V72.8C60.28 64.44 85.36 56.96 85.36 56.96C87.12 56.52 89.76 55.64 91.52 54.76C94.16 53.88 94.6 52.12 94.6 50.8V45.52C80.52 51.24 69.52 53 69.52 53V49.48C69.52 49.04 69.96 48.6 70.4 48.6C78.32 46.84 87.12 44.2 91.52 42.44C93.72 41.56 94.6 40.68 94.6 38.48V32.76C84.92 37.6 69.52 40.68 69.52 40.68V37.16C69.52 36.72 69.96 36.28 70.4 36.28C77.88 34.96 86.68 31.88 91.08 30.12C92.84 29.68 94.16 28.8 94.16 26.16V20" fill="#CF000F"/>
</svg>
