<svg width="414" height="128" viewBox="0 0 414 128" fill="none" xmlns="http://www.w3.org/2000/svg">
<path d="M191.428 41.601C191.361 41.0207 192.052 40.7407 192.709 40.7407C194.262 40.7407 194.209 41.2521 195.702 41.601V47.5982L191.908 46.5675L191.428 41.601ZM191.853 53.1649C194.564 52.5311 193.519 51.962 195.702 51.451V53.1649C195.702 54.1689 194.993 54.8788 193.991 54.8788H193.138C191.845 54.8788 191.954 54.3757 191.853 53.1649ZM171.335 54.8788C172.321 54.8788 172.616 55.1765 172.616 56.1639C172.616 56.9715 171.041 57.4478 170.051 57.4478C169.129 57.4478 167.06 56.9978 167.06 56.1639C167.06 55.1366 170.08 54.8788 171.335 54.8788ZM172.192 62.5891C172.192 61.1616 175.409 60.0518 176.89 60.0201C176.89 62.6128 176.494 64.7319 173.899 64.7319H172.192V62.5895V62.5891ZM350.886 37.7447L355.159 33.8904C355.159 31.6142 355.688 28.3202 357.727 28.3202H359.008C361.648 28.3202 366.702 28.8809 366.702 31.318V32.1765C366.702 36.3124 360.292 38.463 360.292 39.4586C360.292 41.2355 363.285 41.9635 363.285 43.74V44.1704C363.285 48.8221 356.984 48.4996 356.871 53.5949C359.199 53.5403 360.822 50.8338 364.215 49.8163C367.017 48.9759 370.512 48.4879 373.546 48.0262C379.591 47.1067 385.478 42.4565 390.644 42.4565C393.155 42.4565 396.966 43.942 397.486 45.8843C397.737 48.8056 396.911 50.3789 395.348 51.0244C394.918 50.8191 392.566 50.0597 391.914 50.0944L388.504 50.5956L385.514 51.0241C385.158 52.5559 384.659 53.0357 384.659 54.8788V56.1639C384.659 58.0066 385.681 63.2181 386.366 64.3034V65.5869L385.103 77.1542C384.113 77.8077 381.489 80.5801 380.381 80.5801H379.528C378.086 80.5801 376.961 77.2733 374.948 75.7478C372.973 74.2506 371.223 73.3258 369.27 72.014L366.277 69.0147C366.908 68.1495 367.256 67.7312 368.841 67.7312L369.29 67.5639L377.817 68.5862V61.3041C377.817 59.1138 377.631 54.0219 375.683 54.0219H375.253C373.672 54.0219 373.177 54.2416 372.26 54.8788C369.604 55.4972 369.718 57.0208 365.42 57.0208H364.563C363.407 57.0208 361.611 55.0624 359.436 54.8788L359.965 64.7251L359.863 65.5869C359.863 70.6691 359.366 74.0441 354.307 74.1564C353.312 72.6709 352.593 72.5254 352.593 69.8717L352.499 67.7161L353.878 57.4478C352.123 58.3794 339.807 67.3008 339.772 67.3008C338.783 67.3008 338.489 67.0031 338.489 66.0173V64.7319C338.489 63.1683 340.507 62.7613 341.483 61.3041L347.467 52.3095L353.023 43.74C352.503 43.4472 352.566 43.3134 351.741 43.3134H350.886C348.007 43.3134 345.888 47.5733 341.483 45.4539C339.876 42.1022 343.147 43.2671 345.988 41.8343C347.52 41.0617 350.041 39.0106 350.886 37.7447V37.7447ZM307.281 51.0241C307.987 48.3688 309.526 49.0008 311.555 48.0266C311.507 50.1671 310.723 51.0241 308.562 51.0241H307.28H307.281ZM310.701 57.8763C310.767 54.7876 313.444 53.8282 316.257 53.5949C315.075 55.8349 314.079 57.802 310.701 57.8763ZM306.424 66.0173C306.424 64.5137 308.322 64.3034 309.844 64.3034H311.131C312.115 64.3034 312.408 64.5996 312.408 65.5869V66.0173C312.408 67.5823 309.453 69.4432 307.71 69.4432H306.424V66.0173ZM242.728 34.7454C242.965 37.5793 244.865 38.203 244.865 42.4565V48.4532C244.865 53.5271 241.444 57.7937 241.444 59.5902V68.1578C241.444 73.4005 253.718 73.4698 258.119 72.4444H260.682C261.89 72.34 262.392 72.4508 262.392 71.1571V67.3012C262.392 65.1558 255.516 63.8753 252.54 63.8968C247.627 63.9345 251.015 58.0572 251.278 54.8788H253.841C255.842 54.8788 256.263 53.5953 259.826 53.5953L260.682 48.4536L260.254 47.5982L256.796 45.5055L253.86 45.977L253.453 45.7588L255.981 39.459C256.202 38.4981 256.409 38.4732 256.409 37.3148V36.0312C256.409 33.4871 251.132 32.2646 250.421 29.6075L250.222 29.1527L242.681 32.5009L242.728 34.7458V34.7454ZM231.185 71.1571L233.99 72.6724L237.17 69.0147V60.876C237.997 59.6384 240.165 57.0065 240.165 55.3077C240.165 53.913 238.949 53.6563 237.944 53.1585L238.451 44.1707L238.334 40.5658L235.03 38.604L229.238 36.015L229.045 36.4597C228.185 40.1754 225.197 37.9701 224.345 41.1714C227.14 41.2325 230.33 43.8809 230.33 46.7397V48.8821C230.33 51.9179 223.769 49.7375 220.926 49.7375C219.362 49.7375 217.505 50.9201 217.505 52.3099V52.7383C217.505 53.9691 220.067 56.0154 220.926 56.5946L229.496 57.2466C229.474 61.5954 227.483 62.1116 224.774 63.4483C223.196 64.2227 219.471 66.8712 217.934 66.8712H215.796C215.796 69.8276 217.543 75.0122 220.069 75.0122H221.355C223.432 75.0122 224.11 71.1575 231.185 71.1575V71.1571ZM296.164 51.451L299.428 49.052L299.587 47.5982C299.587 44.081 293.917 45.6159 292.319 44.5985L293.237 42.4761C295.574 42.5092 295.552 43.3134 297.877 43.3134H300.439C301.745 43.3134 302.162 42.9015 303.003 42.4565C304.005 42.6878 304.267 42.8849 305.572 42.8849H306.853C309.348 42.8849 309.813 41.1228 313.695 42.028L312.79 46.2992L312.366 46.5407L311.286 44.3041L303.416 43.5018C302.704 43.8033 301.725 44.2446 301.725 45.4539V46.7393L302.216 52.3016L297.447 52.3095C296.227 52.3095 296.666 52.1738 296.164 51.451ZM379.104 32.603C377.053 34.3901 368.841 35.495 368.841 38.6036V39.0268C368.841 41.0105 372.828 42.028 374.826 42.028H377.817C383.487 42.028 387.33 39.2981 391.072 37.3148L391.905 36.8234C391.537 35.2236 389.777 30.888 388.079 30.888H384.659C382.709 30.888 381.762 32.3833 379.104 32.603V32.603ZM159.365 38.1732C160.704 38.059 160.884 37.7447 162.358 37.7447H162.786C164.757 37.7447 169.624 41.0369 169.624 42.028C169.624 44.1933 168.082 46.3142 165.779 46.3142H164.068C161.122 46.3142 160.323 44.7707 158.08 44.17L155.771 40.9461L159.365 38.1732ZM280.35 62.161C283.997 63.9164 286.207 60.9449 289.328 60.8756C289.696 62.4719 290.179 64.075 290.179 66.0173C290.179 66.7254 289.212 68.4227 288.898 69.0147H288.043C288.154 67.6747 288.469 67.4945 288.469 66.0173V65.1584C288.469 63.8433 288.075 62.5895 286.76 62.5895H286.333C285.679 62.5895 282.914 64.0155 282.914 65.1584V66.8708C282.914 68.3812 285.086 69.182 285.907 70.3001H281.201C279.593 72.8431 281.859 77.5808 284.195 77.5808H285.05C286.752 77.5808 290.825 74.944 292.32 74.1564L295.311 72.8695L295.74 72.014C298.169 70.3797 300.439 68.841 300.439 64.7319C297.452 64.7978 298.025 66.0169 296.59 66.0169H295.311V63.4479C300.183 63.0394 302.157 59.1617 300.013 59.1617C297.951 59.1617 295.74 60.5134 295.74 58.3063C295.74 56.1771 300.176 56.1955 302.153 55.7358C302.372 56.6967 302.578 56.7216 302.578 57.8763V66.8708C302.578 68.7023 299.158 69.9297 299.158 75.0119C299.623 77.0186 300.102 77.9614 302.153 78.4397C303.721 78.5569 305.418 78.307 307.281 77.1523C309.169 75.8869 312.024 69.0147 314.546 69.0147H314.976C316.485 69.0147 322.224 75.0119 329.084 75.0119C330.695 75.0119 335.648 72.5782 338.06 72.014C337.135 68.024 333.495 71.0595 329.782 69.1704C327.826 68.1744 323.932 66.6869 322.671 65.5869C320.475 64.4259 317.36 62.5876 317.116 59.5902H318.821C320.931 59.5902 323.954 57.2379 323.954 55.3073C323.954 55.0077 321.119 50.1671 319.679 50.1671C319.405 50.1671 318.444 51.1334 317.969 51.451C317.376 50.397 317.54 51.5618 317.54 50.5956C317.54 46.8305 320.532 47.4274 320.532 41.601C322.141 40.7475 323.954 39.7533 323.954 37.3148C323.954 35.4833 319.057 33.4868 317.116 33.0315C313.566 35.414 306.975 39.8773 301.725 40.3141C300.909 37.2616 297.877 38.0097 297.877 32.603C296.069 32.1829 294.783 31.318 292.744 31.318H292.319C287.079 31.318 288.043 32.3996 288.043 37.3148L283.767 43.74C283.396 44.0147 278.377 50.5526 277.282 51.8083C275.542 53.8033 271.621 57.4165 271.37 60.4471H273.51C276.377 60.4471 282.306 54.1922 285.05 52.738L289.305 54.0927L287.614 55.7358C285.824 56.1526 279.493 57.0457 279.493 58.7317C279.493 59.9855 280.066 60.9566 280.35 62.161V62.161ZM183.304 59.5902C184.046 58.4189 183.787 53.5949 182.023 53.5949H181.594C180.042 53.5949 180.097 54.101 178.604 54.4503V52.3095L183.224 50.7942L183.305 47.1678C183.305 46.0116 183.101 45.9883 182.875 45.0254L179.892 45.492C180.361 43.4061 180.001 41.7879 180.377 39.9516C180.67 38.4928 182.451 37.1806 182.451 36.0308V34.7458C182.451 31.7412 178.149 32.949 177.32 30.8876H172.616C171.535 31.6421 169.624 32.5405 169.624 34.3169C169.624 35.9698 172.192 38.2889 172.192 41.6014V48.4532C170.087 48.6303 170.623 49.3121 168.771 49.3121H166.633V54.0219C162.512 53.9292 165.617 50.1671 159.794 50.1671H158.51C157.12 50.1671 158.188 50.5361 156.373 51.0241C155.675 51.211 153.81 52.0465 153.81 52.738C153.81 55.6695 158.494 57.4478 161.931 57.4478C164.762 57.6845 162.482 60.5862 161.501 63.0176C160.592 65.2794 159.538 67.7527 157.656 69.0147C156.08 69.0147 154.66 68.6379 154.66 70.3001V72.014C154.66 74.863 158.064 77.1523 161.074 77.1523H161.931C162.568 77.1523 163.813 76.231 164.495 75.8703C164.495 71.9862 163.562 64.6968 166.387 63.9725L168.771 69.4432C169.611 69.8901 170.029 70.3001 171.335 70.3001C172.604 70.3001 173.466 69.1621 174.328 68.5862C175.167 69.0313 175.588 69.4432 176.891 69.4432C178.236 69.4432 178.535 67.7312 182.023 67.7312C181.827 68.4589 177.231 75.4403 176.039 75.4403H173.899C173.899 77.0401 174.373 79.2947 175.612 79.2947C177.009 79.2947 178.241 77.5808 181.594 77.5808L187.656 70.8247L188.008 71.1571C188.135 71.6353 191.645 76.959 192.202 77.6652C193.625 79.4752 195.654 81.3708 198.694 81.4386C199.696 77.6784 203.4 77.7346 203.4 74.5834V74.1564C203.4 71.4167 202.542 70.8959 202.542 68.1578V56.5942L203.845 37.7466C202.554 35.8409 200.584 33.46 197.412 33.46C195.908 33.46 192.717 37.3728 189.289 38.1732C187.838 39.1843 183.734 39.9783 183.734 41.601C183.734 42.9543 184.782 43.0602 185.869 43.3134V55.7358C185.869 59.2393 185.3 63.6021 182.023 63.8749V62.5895C182.023 61.5886 182.903 61.3173 183.305 59.5902H183.304ZM195.725 59.2197L195.702 71.1571L195.546 71.5988L188.409 69.0874L188.893 69.1289L190.664 61.1236L195.725 59.2197H195.725Z" fill="#292A28"/>
<path d="M394.45 92.8452V99.8493H395.759C396.319 99.8493 396.726 99.7988 396.978 99.691C397.224 99.5918 397.437 99.4258 397.594 99.2117C397.757 98.998 397.889 98.6615 397.995 98.1972C398.099 97.7375 398.154 97.1288 398.154 96.3733C398.154 95.5894 398.099 94.9703 397.99 94.5177C397.88 94.0681 397.713 93.7097 397.487 93.4508C397.272 93.198 396.982 93.0196 396.659 92.941C396.414 92.8754 395.942 92.8452 395.241 92.8452H394.45ZM392.714 91.0567H395.893C396.701 91.0567 397.308 91.1491 397.718 91.3258C398.125 91.5059 398.506 91.8119 398.849 92.2393C399.196 92.6651 399.461 93.2255 399.664 93.9068C399.86 94.5897 399.957 95.4361 399.957 96.4524C399.957 97.3678 399.855 98.1618 399.649 98.8378C399.443 99.5113 399.18 100.046 398.864 100.445C398.546 100.837 398.167 101.135 397.718 101.333C397.269 101.533 396.694 101.634 395.99 101.634H392.714V91.0567ZM384.007 101.634V91.0563H390.418V92.8452H385.745V95.1922H390.086V96.9721H385.745V99.8493H390.575V101.634H384.007ZM379.923 101.634H381.661V91.0563H379.923V101.634ZM373.874 101.634V92.8452H371.308V91.0567H378.173V92.8452H375.614V101.634H373.874ZM367.85 101.634H369.588V91.0563H367.85V101.634ZM357.153 101.634V91.0563H359.762L361.326 98.273L362.881 91.0563H365.496V101.634H363.88V93.3042L362.162 101.634H360.478L358.778 93.3042V101.634H357.153ZM353.097 101.634H354.835V91.0563H353.097V101.634ZM345.153 101.634V91.1423H346.89V99.8493H351.23V101.634H345.153ZM329.7 101.634V91.0563H331.396L334.932 98.1215V91.0567H336.558V101.634H334.802L331.326 94.7363V101.634H329.7ZM321.066 96.3397C321.066 97.5562 321.297 98.4682 321.756 99.0756C322.217 99.6827 322.785 99.9891 323.467 99.9891C324.153 99.9891 324.717 99.6842 325.168 99.0839C325.619 98.478 325.844 97.5543 325.844 96.3009C325.844 95.0743 325.626 94.1676 325.188 93.5801C324.749 92.9948 324.176 92.7005 323.467 92.7005C322.758 92.7005 322.18 92.9982 321.734 93.5872C321.288 94.1827 321.066 95.098 321.066 96.3397ZM319.27 96.4102C319.27 95.15 319.455 94.1103 319.827 93.2993C320.195 92.4816 320.682 91.8745 321.283 91.4773C321.88 91.0752 322.606 90.8766 323.46 90.8766C324.696 90.8766 325.7 91.3476 326.482 92.2984C327.26 93.2454 327.652 94.5964 327.652 96.3446C327.652 98.1162 327.238 99.4977 326.412 100.494C325.689 101.374 324.709 101.813 323.467 101.813C322.217 101.813 321.23 101.377 320.506 100.507C319.68 99.5113 319.27 98.1433 319.27 96.4102ZM315.538 101.634H317.278V91.0563H315.538V101.634ZM309.491 101.634V92.8452H306.922V91.0567H313.787V92.8452H311.231V101.634H309.491ZM303.624 97.4484L302.435 93.5232L301.262 97.4484H303.624ZM306.834 101.634H304.937L304.182 99.2301H300.731L300.018 101.634H298.166L301.53 91.0563H303.377L306.834 101.634ZM291.407 95.5287H292.7C293.494 95.5287 293.993 95.4933 294.21 95.4259C294.427 95.3569 294.602 95.2156 294.737 95.0019C294.868 94.7917 294.938 94.509 294.938 94.1593C294.938 93.8209 294.868 93.5518 294.738 93.3464C294.608 93.1475 294.415 92.9987 294.189 92.9244C294.025 92.8705 293.552 92.8452 292.773 92.8452H291.407V95.5287ZM289.666 101.634V91.0563H293.341C294.28 91.0563 294.95 91.1506 295.354 91.3409C295.757 91.5312 296.085 91.8609 296.346 92.3301C296.604 92.7996 296.732 93.3615 296.732 94.0146C296.732 94.8422 296.536 95.5103 296.14 96.0134C295.741 96.5195 295.183 96.836 294.454 96.9638C294.831 97.2329 295.14 97.5276 295.381 97.849C295.626 98.1701 295.959 98.7421 296.38 99.5682L297.426 101.634H295.354L294.087 99.3311C293.635 98.5017 293.325 97.9801 293.16 97.7699C292.998 97.5611 292.824 97.4164 292.643 97.3372C292.46 97.2581 292.169 97.2178 291.765 97.2178H291.408V101.634H289.666ZM281.05 96.3397C281.05 97.5562 281.278 98.4682 281.739 99.0756C282.198 99.6827 282.766 99.9891 283.451 99.9891C284.135 99.9891 284.702 99.6842 285.151 99.0839C285.603 98.478 285.824 97.5543 285.824 96.3009C285.824 95.0743 285.608 94.1676 285.168 93.5801C284.733 92.9948 284.157 92.7005 283.451 92.7005C282.739 92.7005 282.163 92.9982 281.717 93.5872C281.272 94.1827 281.05 95.098 281.05 96.3397ZM279.251 96.4102C279.251 95.15 279.436 94.1103 279.809 93.2993C280.178 92.4816 280.666 91.8745 281.264 91.4773C281.861 91.0752 282.587 90.8766 283.441 90.8766C284.68 90.8766 285.685 91.3476 286.463 92.2984C287.242 93.2454 287.633 94.5964 287.633 96.3446C287.633 98.1162 287.222 99.4977 286.395 100.494C285.674 101.374 284.69 101.813 283.451 101.813C282.198 101.813 281.212 101.377 280.49 100.507C279.664 99.5113 279.251 98.1433 279.251 96.4102ZM272.616 92.8452V95.8449H273.58C274.227 95.8449 274.666 95.8031 274.897 95.7119C275.132 95.6177 275.321 95.4564 275.469 95.2156C275.618 94.9782 275.691 94.6873 275.691 94.3409C275.691 93.9908 275.614 93.6913 275.462 93.4508C275.308 93.2119 275.12 93.0487 274.892 92.9681C274.669 92.8852 274.192 92.8452 273.464 92.8452H272.616ZM270.876 101.634V91.0563H273.68C274.723 91.0563 275.408 91.1091 275.728 91.2082C276.24 91.3729 276.664 91.7211 276.996 92.2528C277.332 92.7879 277.495 93.4742 277.495 94.3157C277.495 95.0811 277.354 95.724 277.066 96.2387C276.777 96.7569 276.416 97.1187 275.983 97.329C275.556 97.5392 274.813 97.6436 273.756 97.6436H272.616V101.634H270.876ZM263.242 95.5287H264.535C265.325 95.5287 265.829 95.4933 266.046 95.4259C266.261 95.3569 266.433 95.2156 266.568 95.0019C266.702 94.7917 266.767 94.509 266.767 94.1593C266.767 93.8209 266.702 93.5518 266.568 93.3464C266.44 93.1474 266.248 92.9984 266.023 92.9244C265.86 92.8705 265.388 92.8452 264.605 92.8452H263.242V95.5287ZM261.503 101.634V91.0563H265.173C266.113 91.0563 266.784 91.1506 267.186 91.3409C267.59 91.5312 267.92 91.8609 268.178 92.3301C268.436 92.7996 268.567 93.3615 268.567 94.0146C268.567 94.8422 268.371 95.5103 267.974 96.0134C267.578 96.5195 267.015 96.836 266.289 96.9638C266.663 97.2329 266.97 97.5276 267.213 97.849C267.459 98.1701 267.793 98.7421 268.215 99.5682L269.263 101.634H267.186L265.92 99.3311C265.47 98.5017 265.16 97.9801 264.993 97.7699C264.833 97.5611 264.66 97.4164 264.474 97.3372C264.297 97.2581 264.002 97.2178 263.599 97.2178H263.242V101.634H261.503ZM252.882 96.3397C252.882 97.5562 253.113 98.4682 253.569 99.0756C254.031 99.6827 254.601 99.9891 255.283 99.9891C255.967 99.9891 256.535 99.6842 256.986 99.0839C257.438 98.478 257.661 97.5543 257.661 96.3009C257.661 95.0743 257.443 94.1676 257.003 93.5801C256.565 92.9948 255.994 92.7005 255.283 92.7005C254.574 92.7005 253.994 92.9982 253.554 93.5872C253.104 94.1827 252.882 95.098 252.882 96.3397ZM251.085 96.4102C251.085 95.15 251.269 94.1103 251.643 93.2993C252.015 92.4816 252.499 91.8745 253.096 91.4773C253.697 91.0752 254.422 90.8766 255.275 90.8766C256.513 90.8766 257.519 91.3476 258.296 92.2984C259.078 93.2454 259.465 94.5964 259.465 96.3446C259.465 98.1162 259.052 99.4977 258.231 100.494C257.506 101.374 256.525 101.813 255.283 101.813C254.031 101.813 253.047 101.377 252.322 100.507C251.499 99.5113 251.085 98.1433 251.085 96.4102ZM247.58 97.7442L249.271 98.3988C249.006 99.5851 248.569 100.45 247.956 100.995C247.345 101.542 246.585 101.813 245.691 101.813C244.563 101.813 243.653 101.377 242.956 100.507C242.147 99.5026 241.745 98.1433 241.745 96.4407C241.745 94.6338 242.152 93.2255 242.961 92.2042C243.667 91.3209 244.611 90.8766 245.802 90.8766C246.766 90.8766 247.575 91.2082 248.227 91.8726C248.695 92.3437 249.034 93.0435 249.248 93.9724L247.527 94.4774C247.416 93.9034 247.195 93.4644 246.868 93.1599C246.538 92.8535 246.152 92.7001 245.706 92.7001C245.07 92.7001 244.548 92.9798 244.146 93.5382C243.744 94.0952 243.543 95.0155 243.543 96.3009C243.543 97.6349 243.739 98.5808 244.133 99.1423C244.527 99.708 245.035 99.9891 245.663 99.9891C246.124 99.9891 246.521 99.809 246.856 99.4521C247.192 99.0922 247.433 98.5232 247.58 97.7442ZM226.649 101.634V91.0563H228.387V95.7541L231.915 91.0567H234.268L231.012 95.1772L234.437 101.634H232.181L229.8 96.6695L228.387 98.4361V101.634H226.649ZM217.264 101.634V91.0563H218.963L222.496 98.1215V91.0567H224.121V101.634H222.365L218.887 94.7363V101.634H217.264ZM212.438 97.4484L211.253 93.5232L210.082 97.4484H212.438ZM215.649 101.634H213.754L212.998 99.2301H209.551L208.842 101.634H206.983L210.345 91.0563H212.193L215.649 101.634ZM200.217 97.0226V99.8493H201.836C202.543 99.8493 202.999 99.8139 203.2 99.7381C203.401 99.6677 203.569 99.5177 203.708 99.2991C203.842 99.0805 203.911 98.8028 203.911 98.4682C203.911 98.1215 203.841 97.8369 203.695 97.6101C203.549 97.3862 203.353 97.2332 203.113 97.1503C202.868 97.0648 202.375 97.0226 201.627 97.0226H200.217ZM200.217 92.8181V95.2627H201.369C202.059 95.2627 202.483 95.2514 202.647 95.2258C202.944 95.1806 203.175 95.0524 203.344 94.8489C203.509 94.6454 203.598 94.3643 203.598 94.0146C203.598 93.7033 203.529 93.4474 203.391 93.2507C203.254 93.0585 203.088 92.9395 202.897 92.889C202.703 92.8437 202.146 92.8181 201.224 92.8181H200.217ZM198.477 91.0567H201.938C202.88 91.0567 203.542 91.1423 203.928 91.319C204.31 91.489 204.632 91.7953 204.895 92.2344C205.16 92.6685 205.293 93.1663 205.293 93.7184C205.293 94.2283 205.178 94.6906 204.957 95.0976C204.727 95.5103 204.437 95.8163 204.08 96.0134C204.591 96.195 204.99 96.5078 205.282 96.9502C205.572 97.393 205.716 97.9311 205.716 98.5669C205.716 99.3326 205.531 99.9891 205.163 100.519C204.796 101.049 204.357 101.377 203.855 101.503C203.504 101.589 202.692 101.634 201.417 101.634H198.477V91.0567ZM188.359 101.634H190.097V91.0563H188.359V101.634ZM179.698 101.634V91.0563H186.11V92.8452H181.436V95.1922H185.778V96.9721H181.436V99.8493H186.268V101.634H179.698ZM172.047 97.0226V99.8493H173.666C174.375 99.8493 174.829 99.8139 175.03 99.7381C175.23 99.6677 175.401 99.5177 175.538 99.2991C175.672 99.0805 175.743 98.8028 175.743 98.4682C175.743 98.1215 175.669 97.8369 175.525 97.6101C175.377 97.3862 175.183 97.2332 174.943 97.1503C174.698 97.0648 174.204 97.0226 173.46 97.0226H172.047ZM172.047 92.8181V95.2627H173.199C173.887 95.2627 174.311 95.2514 174.479 95.2258C174.776 95.1806 175.005 95.0524 175.178 94.8489C175.342 94.6454 175.426 94.3643 175.426 94.0146C175.426 93.7033 175.357 93.4474 175.22 93.2507C175.084 93.0585 174.921 92.9395 174.725 92.889C174.529 92.8437 173.976 92.8181 173.056 92.8181H172.047ZM170.307 91.0567H173.767C174.71 91.0567 175.372 91.1423 175.76 91.319C176.138 91.489 176.465 91.7953 176.728 92.2344C176.991 92.6685 177.122 93.1663 177.122 93.7184C177.122 94.2283 177.008 94.6906 176.785 95.0976C176.557 95.5103 176.269 95.8163 175.91 96.0134C176.421 96.195 176.822 96.5078 177.112 96.9502C177.403 97.393 177.546 97.9311 177.546 98.5669C177.546 99.3326 177.362 99.9891 176.991 100.519C176.624 101.049 176.188 101.377 175.686 101.503C175.335 101.589 174.521 101.634 173.249 101.634H170.307V91.0567ZM160.912 91.0567H162.65V96.7837C162.65 97.6756 162.673 98.2545 162.715 98.5236C162.792 98.9897 162.978 99.3511 163.267 99.6089C163.553 99.8614 163.939 99.9891 164.411 99.9891C164.814 99.9891 165.144 99.8949 165.399 99.7163C165.65 99.5365 165.826 99.284 165.918 98.9679C166.008 98.6464 166.059 97.9617 166.059 96.9065V91.0567H167.804V96.6122C167.804 98.0306 167.728 99.0587 167.58 99.6876C167.428 100.321 167.088 100.832 166.558 101.224C166.029 101.621 165.33 101.813 164.463 101.813C163.563 101.813 162.856 101.649 162.353 101.325C161.847 101.004 161.483 100.546 161.254 99.9567C161.027 99.3666 160.912 98.2813 160.912 96.6996V91.0567ZM151.55 101.634V91.0563H153.288V95.2175H156.712V91.0567H158.458V101.634H156.712V97.0075H153.288V101.634H151.55Z" fill="#231F20"/>
<path fill-rule="evenodd" clip-rule="evenodd" d="M19 14H109C111.749 14 114 16.2495 114 19V109C114 111.749 111.749 114 109 114H19C16.2507 114 14 111.749 14 109V19C14 16.2495 16.2507 14 19 14V14ZM86.4765 33.8151L93.2733 94.9417C73.7566 85.1063 54.2411 84.4713 34.7244 94.9417L41.5212 33.8151C56.5059 33.8151 71.4918 33.8151 86.4765 33.8151V33.8151Z" fill="url(#paint0_linear_63_12741)"/>
<defs>
<linearGradient id="paint0_linear_63_12741" x1="20.8027" y1="27.6054" x2="20.8027" y2="114" gradientUnits="userSpaceOnUse">
<stop stop-color="#E72539"/>
<stop offset="1" stop-color="#513965"/>
</linearGradient>
</defs>
</svg>
