<svg width="535" height="128" viewBox="0 0 535 128" fill="none" xmlns="http://www.w3.org/2000/svg">
<path d="M84.5808 44.2149C79.0544 40.6767 68.8845 33.3393 68.8845 26.4455V25.5922C68.8845 18.8891 75.5107 17.2477 82.0312 16.9473C97.1247 16.2481 115.031 22.6468 127.531 31.0432C141.955 40.7361 150.183 58.6117 144.659 75.5127C141.94 83.8267 136.464 90.0288 128.355 97.0054C118.688 105.329 101.813 111.83 89.157 111.83C103.375 106.138 106.911 101.962 105.635 87.1124C121.746 83.3581 132.126 69.7298 132.126 53.7865C132.126 36.9399 103.821 23.0281 85.1203 23.0281C83.164 23.0281 82.0312 23.0281 81.7038 23.8835C81.9483 34.9267 109.166 48.8629 119.311 51.2264L95.2942 69.2817L84.3607 60.767L97.7799 52.6676L84.5803 44.2149H84.5808ZM50.4509 107.163C56.1534 109.498 62.3969 110.814 68.6614 111.47C77.4675 112.39 86.2925 111.849 93.7412 106.229C98.511 102.639 100.406 96.3382 100.406 90.6561C100.406 81.8041 90.6646 71.2913 83.9076 66.0893C80.6229 63.5592 64.5558 53.532 63.5712 52.193L76.1949 43.3026L66.9966 36.8111L40.8489 52.5573C49.624 55.2681 78.1282 74.3824 78.1282 84.6716C78.1282 88.6599 76.137 90.6561 72.1377 90.6561H69.5632C59.263 90.6561 44.7733 84.176 36.7243 76.6924C28.6693 69.1988 25.7863 55.9558 30.7757 46.0079C33.9511 39.6801 39.8333 34.9382 44.9934 31.948C49.7632 29.1908 54.0714 27.489 59.3513 25.9729C61.584 25.3312 63.426 24.6854 63.8741 23.867C65.2105 21.4332 67.4427 19.5124 70.4205 18.0073C60.6877 18.0073 45.6132 23.3734 39.4121 27.2345C19.0503 39.9191 4.49723 64.1316 21.4466 86.529C29.0595 96.5772 38.9201 102.436 50.4509 107.163V107.163Z" fill="#0276C3"/>
<path d="M205.133 89.9037C204.94 91.835 205.81 92.6075 207.741 92.2212C209.672 91.835 211.411 91.4487 212.956 91.0624C214.501 90.6762 215.177 88.938 214.984 85.8475V75.7075C217.881 76.48 219.62 78.315 220.199 81.2119C220.585 82.5643 221.648 83.0468 223.386 82.6606C230.146 80.9224 233.526 76.48 233.526 69.3337C233.333 61.6076 229.277 55.1375 221.358 49.9225C225.607 43.3552 228.794 38.0438 230.919 33.9881C231.305 33.2151 232.174 32.5394 233.526 31.96C234.878 31.5738 235.168 30.6076 234.395 29.0626C231.885 26.5519 228.794 24.5238 225.125 22.9788C223.965 23.1719 222.613 24.717 221.068 27.6139H217.012C217.012 27.2276 216.626 26.8414 215.853 26.4551C212.763 25.1032 209.962 24.0408 207.452 23.2683C205.713 22.6889 204.844 23.3651 204.844 25.2964C205.23 26.8414 205.423 31.477 205.423 39.2026C202.72 36.6919 200.498 35.2432 198.76 34.857C198.567 34.857 197.891 35.4364 196.732 36.5956V29.3525C196.925 28.0001 197.312 27.0345 197.891 26.4551C199.436 25.1032 199.339 24.0408 197.601 23.2683C193.931 22.1095 191.034 21.4333 188.91 21.2402C187.944 21.047 187.364 21.047 187.171 21.2402C186.785 21.6264 186.688 22.3026 186.882 23.2683C187.075 25.7794 187.171 28.6764 187.171 31.96V40.3619H179.349V28.7732C179.349 27.0345 179.735 25.9725 180.508 25.5863C181.667 24.2339 181.473 23.1719 179.928 22.3989C176.259 21.4333 173.361 20.7571 171.237 20.3713C169.498 20.1782 168.822 20.9502 169.209 22.6889C169.595 25.7794 169.788 29.2562 169.788 33.1188V40.3619C167.664 40.3619 165.442 40.1688 163.124 39.7825C162.738 39.7825 162.545 39.8788 162.545 40.072C162.352 40.072 162.352 40.2651 162.545 40.6513L164.284 42.39C164.477 42.9689 164.862 43.0657 165.442 42.6794C166.215 42.4863 167.663 42.39 169.788 42.39V50.454C169.782 67.9349 169.493 79.9258 168.919 86.4268C168.725 88.5518 169.595 89.4211 171.526 89.0343C171.913 89.0343 173.168 88.8412 175.293 88.4554C176.452 88.0687 177.224 87.8756 177.61 87.8756C178.769 87.4893 179.349 86.2337 179.349 84.1093V80.0531H187.171V85.5575C186.978 87.4893 187.75 88.3586 189.489 88.1655C191.613 87.7792 193.352 87.393 194.704 87.0062C196.635 86.62 197.408 85.2681 197.022 82.9506V77.7356C196.828 74.8381 196.732 72.81 196.732 71.6513V42.3905H205.423V70.9157C205.419 82.4385 205.323 88.7684 205.134 89.9042L205.133 89.9037ZM223.386 67.0157C223.772 71.265 220.972 73.2931 214.984 73.1V31.6701C214.984 30.8976 215.467 30.2214 216.433 29.642V29.3525H221.648L217.592 50.7914C221.261 56.0063 223.193 61.4144 223.386 67.0157ZM187.171 58.6143H179.349V42.3905H187.171V58.6143ZM187.171 78.0255H179.349V60.6424H187.171V78.0255ZM301.61 89.0348C301.224 91.546 302.286 92.7048 304.797 92.5117H305.376C307.694 92.1254 309.239 91.7391 310.012 91.3529C311.75 90.7735 312.523 89.1317 312.33 86.4274V73.1005C315.034 73.873 316.676 75.418 317.255 77.7361C317.448 79.4742 318.317 80.0536 319.862 79.4742C326.429 77.7361 329.809 73.6804 330.003 67.3061C329.616 59.1942 325.464 52.1442 317.544 46.1568C320.249 42.8731 323.436 38.2375 327.106 32.25C327.492 31.2843 328.264 30.7049 329.423 30.5118C330.968 30.1256 331.161 29.0631 330.002 27.325C326.912 24.6207 323.919 22.6894 321.021 21.5306C319.862 21.7237 318.414 23.2688 316.676 26.1662H314.358C314.164 25.5868 313.779 25.2 313.199 25.0069C310.495 23.4619 307.405 22.11 303.928 20.9512C302.962 20.5649 302.286 20.5649 301.9 20.9512C301.514 21.3375 301.417 22.11 301.611 23.2688C301.996 24.8138 302.189 29.3531 302.189 36.8856V69.6237C299.872 67.113 298.23 65.7611 297.264 65.5679C296.299 65.9542 294.367 67.9823 291.47 71.6517H285.386V62.3811H289.442C289.249 64.6986 290.214 65.6648 292.339 65.278C294.078 65.278 295.526 65.0849 296.685 64.6986H297.264C299.389 64.5055 300.161 63.1536 299.582 60.6424V53.9792C299.389 48.7643 299.293 45.5774 299.293 44.4181C299.293 43.6456 299.775 42.9699 300.741 42.3905C301.707 41.8106 301.996 41.0381 301.61 40.0725C298.906 37.1755 295.816 35.2437 292.339 34.2786C291.18 34.6643 289.925 35.8231 288.573 37.7549H285.676C288.186 35.4369 291.18 32.2505 294.657 28.1943C295.429 27.035 296.395 26.4556 297.554 26.4556C299.485 25.49 299.679 24.4275 298.133 23.2688C297.747 23.0756 297.071 22.8825 296.106 22.6894C291.856 21.1443 288.959 20.1787 287.414 19.7924C286.061 19.4057 285.483 19.6956 285.676 20.6613C285.869 24.9106 284.517 30.6081 281.619 37.7549H273.797C273.797 37.5618 273.701 37.4655 273.508 37.4655L273.218 37.1755C270.707 35.63 267.616 34.4712 263.946 33.6987C262.015 33.3124 261.243 34.085 261.629 36.0162C261.629 36.5961 261.726 37.3687 261.918 38.3343C262.112 40.6518 262.208 42.5836 262.208 44.1282V50.7923C262.208 56.3936 262.015 60.6424 261.629 63.5398C261.05 65.6643 262.112 66.7267 264.816 66.7267C265.202 66.7267 265.781 66.6299 266.554 66.4373C267.906 66.2436 268.968 66.0505 269.741 65.8574C271.479 65.4711 272.252 64.3124 272.059 62.3811H276.115V71.6517H266.844C263.56 71.6517 260.76 71.5554 258.442 71.3623C258.056 71.1692 257.766 71.1692 257.573 71.3623C257.573 71.5554 257.67 71.8449 257.862 72.2311C258.249 72.8105 258.731 73.3904 259.311 73.9698C259.504 74.3561 259.987 74.5487 260.76 74.5487C262.305 74.1629 263.946 73.9698 265.685 73.9698H276.115C276.115 74.9354 276.018 76.3842 275.825 78.3154C275.632 84.1098 275.439 87.7798 275.246 89.3243C275.246 91.2561 275.922 92.2217 277.274 92.2217C279.591 92.4148 281.619 92.1254 283.358 91.3529C285.289 90.9666 286.158 89.9042 285.965 88.166C285.579 84.8823 285.386 80.1504 285.386 73.9698H297.844C299.582 74.1629 300.934 74.2592 301.9 74.2592C301.9 77.1567 301.803 80.8266 301.611 85.2686V89.0348H301.61ZM271.19 32.25C271.769 35.7268 273.797 36.9824 277.274 36.0162C280.943 34.2781 282.103 31.5743 280.75 27.9043C278.626 24.0418 274.473 22.11 268.293 22.11C267.713 22.11 267.327 22.3031 267.133 22.6894C267.133 22.8825 267.327 23.2687 267.713 23.8481C269.451 26.1662 270.61 28.9668 271.19 32.25V32.25ZM320.442 63.5398C320.249 68.3686 317.544 70.5898 312.33 70.2031V30.5118C312.33 29.353 312.619 28.5805 313.199 28.1943H317.255L314.068 47.3155C318.124 53.1094 320.249 58.518 320.442 63.5393V63.5398ZM289.441 49.0537H285.386V42.6799C285.386 41.3275 285.579 40.4592 285.965 40.0725H289.442V49.0537H289.441ZM276.115 49.0537H272.059V41.8106C272.059 40.845 272.348 40.2656 272.928 40.0725H276.115V49.0537V49.0537ZM289.442 60.353H285.386V51.0818H289.442V60.353ZM276.115 60.353H272.059V51.0818H276.115V60.353ZM365.638 91.6428C366.99 92.9947 368.245 92.5112 369.404 90.1941C369.984 89.0348 370.853 87.8761 372.012 86.7173C373.75 84.9791 376.744 81.8886 380.993 77.4461C382.152 76.0942 383.021 75.1286 383.6 74.5492C384.953 73.3904 385.242 72.5211 384.47 71.9417C384.083 71.3623 383.214 71.3623 381.862 71.9417C379.544 73.1005 376.937 74.1624 374.04 75.1286V61.8012H385.629V77.4461C385.629 78.9916 384.952 80.0536 383.6 80.633C381.862 81.2124 381.38 82.2748 382.152 83.8199C383.504 86.5242 385.049 89.0348 386.788 91.3529C387.946 92.5117 389.105 92.3185 390.264 90.7735C390.65 90.1941 391.23 89.6142 392.002 89.0348C392.195 88.8417 392.389 88.7454 392.582 88.7454C397.603 84.6892 402.142 80.8261 406.198 77.1567C408.71 81.5991 412.283 85.6553 416.918 89.3248C418.077 90.0973 418.946 89.9042 419.526 88.7454C420.298 85.6549 422.133 83.1442 425.03 81.2124C426.189 80.6335 426.672 80.1504 426.479 79.7642C426.672 79.571 426.19 79.088 425.03 78.3154C418.463 75.418 413.538 71.9417 410.255 67.8855C413.561 66.7161 416.76 65.2622 419.815 63.5398C420.008 63.5398 420.298 63.443 420.685 63.2504C421.65 62.8637 422.326 62.6705 422.713 62.6705C423.485 62.8636 423.968 62.6705 424.161 62.0911C424.547 61.5117 424.451 60.9324 423.872 60.353C421.94 58.4217 419.912 56.7798 417.787 55.4274C418.946 54.8485 419.526 53.6893 419.526 51.9511C419.14 45.7705 418.946 41.8106 418.946 40.0725V30.8013C419.14 29.8356 419.526 29.1594 420.105 28.7737C421.457 27.4213 421.36 26.1662 419.816 25.0069C416.725 22.3031 413.828 20.8549 411.124 20.6613C410.544 20.6613 409.193 22.11 407.068 25.0069H397.797C394.9 23.8481 391.52 22.6894 387.656 21.5306C385.725 21.1443 384.856 21.9168 385.049 23.8481C385.435 25.973 385.629 28.6769 385.629 31.9605C382.732 29.2562 380.703 27.8075 379.544 27.6144C378.192 28.0006 376.454 29.9324 374.329 33.4088H369.984C370.721 31.2069 371.397 28.9849 372.012 26.7456C372.398 25.5868 372.977 24.8143 373.75 24.4275C374.523 24.0413 375.005 23.4619 375.199 22.6894C375.199 22.11 374.812 21.7237 374.04 21.5306C370.756 20.3718 367.087 19.5025 363.03 18.9231C361.485 18.5368 360.713 19.3094 360.713 21.2407C360.327 30.8981 358.105 41.9074 354.049 54.2687C353.663 55.4274 353.566 56.1036 353.76 56.2968C353.952 56.4899 354.435 56.1036 355.208 55.138C357.912 52.82 360.23 50.3093 362.161 47.605H363.61V59.7736H362.451C360.134 59.7736 357.429 59.5805 354.339 59.1942C353.952 59.1942 353.76 59.4836 353.76 60.063C353.952 60.2562 354.146 60.5461 354.339 60.9324L354.433 61.0272L355.452 62.0452L355.498 62.0911C355.884 62.4774 356.27 62.5742 356.657 62.3806C358.202 61.9948 359.65 61.8017 361.002 61.8017H363.61V73.9698C363.803 77.4461 362.644 79.9573 360.134 81.5023C358.202 82.6611 358.105 84.1098 359.844 85.848C360.616 86.8136 361.968 88.166 363.9 89.9042L365.638 91.6423V91.6428ZM408.227 37.465H396.348V28.7737C396.348 27.8075 396.928 27.325 398.087 27.325H408.227V37.4655L408.227 37.465ZM373.75 45.2874H363.9C366.014 42.217 367.764 38.9113 369.115 35.4369H385.629V44.9975C382.345 41.9074 379.931 40.3624 378.385 40.3624C377.613 40.1693 376.068 41.8106 373.75 45.2874V45.2874ZM408.227 50.213H396.348V39.783H408.227V50.213ZM374.04 59.4836V47.605H385.629V58.6143C382.732 55.9105 380.317 54.3655 378.385 53.9792C377.227 54.3655 375.778 56.2 374.04 59.4836V59.4836ZM396.348 76.5773V52.5305H400.404C400.404 61.4149 401.853 68.7543 404.75 74.5492C403.591 74.7423 401.949 75.1281 399.825 75.708L396.348 76.5773ZM407.937 64.6986C405.619 60.2562 404.074 56.2 403.301 52.5305H408.227V55.4274C408.033 57.1661 409.096 57.7455 411.413 57.1661L412.572 56.8767C411.22 59.7736 409.675 62.3811 407.937 64.6986ZM450.236 43.8387C450.429 44.0318 450.815 44.0318 451.395 43.8387C458.928 39.783 466.17 34.9543 473.124 29.3531C474.089 28.5805 475.151 28.1943 476.311 28.1943C477.276 28.1943 477.856 27.9043 478.049 27.325C478.242 26.5524 477.952 25.7799 477.18 25.0069C475.248 23.4619 472.641 21.5306 469.357 19.213C468.198 18.8263 467.329 19.1162 466.75 20.0819C463.273 28.0007 457.962 35.4374 450.815 42.3905C450.429 42.9694 450.236 43.4525 450.236 43.8387V43.8387ZM482.684 31.0912C484.229 30.705 486.064 30.5118 488.189 30.5118H501.226C503.738 30.5118 506.634 30.6081 509.918 30.8013H514.553C515.519 30.8013 516.099 30.6081 516.292 30.2224C516.485 29.8356 516.292 29.2562 515.712 28.4837C512.622 25.3937 510.208 23.5582 508.469 22.9793C507.504 22.9793 505.862 24.8138 503.544 28.4837H489.058C485.968 28.4837 483.167 28.2906 480.656 27.9043C480.27 27.7112 480.077 27.7112 480.077 27.9043C479.884 28.0975 479.884 28.3874 480.077 28.7737C480.27 29.3525 480.656 29.9324 481.236 30.5118C481.515 30.6985 481.683 30.8172 481.737 30.8686L481.74 30.8716L481.831 30.9001C482.211 31.0179 482.483 31.0812 482.646 31.0897L482.684 31.0912V31.0912ZM460.666 91.9323C461.052 92.3185 462.018 92.3185 463.563 91.9323C465.881 91.7392 467.812 91.3529 469.357 90.7735C471.482 90.001 472.351 88.2623 471.965 85.5585C471.965 84.013 471.868 81.9854 471.675 79.4742V54.5586C471.482 53.2062 471.965 52.3374 473.124 51.9511C474.283 50.7923 473.993 49.8262 472.255 49.0537L471.965 48.7642H471.385C472.738 47.2187 473.606 46.1568 473.993 45.5774C474.572 44.8044 475.055 44.225 475.441 43.8387C476.214 42.6799 477.276 42.0037 478.628 41.8106C479.594 41.4244 480.173 40.9418 480.366 40.3624C480.366 39.783 479.884 39.2031 478.918 38.6237C478.532 38.4306 478.049 38.1412 477.469 37.7549C473.993 35.8236 471.578 34.568 470.226 33.9886C469.068 33.6019 468.295 34.085 467.909 35.4369C463.853 46.2531 458.058 55.7174 450.526 63.8293C450.14 64.4087 450.043 64.7954 450.236 64.9886C450.429 65.3748 450.815 65.3748 451.395 64.9886C454.669 63.2561 457.773 61.219 460.666 58.9043V74.5492C460.666 78.4118 460.473 83.2405 460.086 89.0348C459.893 90.5804 460.086 91.546 460.665 91.9323H460.666ZM493.114 90.4836C493.501 92.2217 494.853 92.8011 497.17 92.2217C499.101 92.0286 501.613 91.4492 504.703 90.4836C504.896 90.2904 505.089 90.1941 505.282 90.1941C507.407 89.4211 508.373 87.2967 508.179 83.8199C507.793 79.3779 507.601 74.0661 507.601 67.8855V53.1099C507.601 52.1443 508.083 51.4681 509.049 51.0818C510.014 50.5024 510.304 49.923 509.918 49.3436C512.622 49.5368 515.809 49.6331 519.479 49.6331C520.251 49.8262 520.734 49.6331 520.927 49.0542C521.121 48.6674 520.927 48.0881 520.348 47.3155C517.451 44.0318 515.133 42.1006 513.394 41.5212C512.816 41.5212 511.077 43.4525 508.179 47.315H484.133C480.463 47.315 477.469 47.1224 475.151 46.7361H474.573C474.573 46.9293 474.669 47.2187 474.862 47.605C475.326 48.294 475.81 48.9703 476.311 49.6331C476.65 49.8596 476.824 49.9864 476.832 50.0138V50.0158C477.113 50.1008 477.415 50.0806 477.682 49.959L477.759 49.923C479.69 49.5368 481.526 49.3436 483.263 49.3436H496.301V77.1567C496.688 80.8261 494.176 82.2748 488.768 81.5023C486.644 81.5023 485.678 81.7918 485.871 82.3716C485.485 82.9505 486.161 83.6267 487.899 84.3998C491.183 85.5585 492.921 87.5866 493.114 90.4836V90.4836ZM173.138 109.604C177.262 109.558 179.347 108.249 179.395 105.679C179.395 103.809 178.292 102.665 176.086 102.244C178.1 101.636 179.084 100.561 179.036 99.0192C179.084 96.6357 177.238 95.4675 173.498 95.5139H167.528V96.7056C168.727 96.6123 169.278 97.1497 169.183 98.318V106.871C169.278 108.039 168.727 108.576 167.528 108.482V109.604H173.138V109.604ZM173.435 101.446L173.328 101.444H172.349V96.6253H173.398C175.216 96.6253 176.103 97.3943 176.056 98.9328C176.102 100.653 175.193 101.489 173.328 101.444L173.435 101.446ZM173.334 108.121H172.349V102.56H173.334C175.443 102.514 176.474 103.464 176.427 105.41C176.427 107.217 175.396 108.121 173.334 108.121ZM195.41 109.234V108.123C194.097 108.077 193.586 107.776 193.878 107.22L194.681 104.86H198.548L199.205 107.151C199.497 107.799 199.06 108.123 197.892 108.123V109.234H204.241V108.123C203.22 108.123 202.538 107.591 202.198 106.526L198.33 95.1416L196.797 95.2808L192.491 107.082C192.248 107.822 191.591 108.17 190.52 108.123V109.234H195.411L195.41 109.234ZM198.308 103.671H195.341L196.898 99.2213L198.308 103.671ZM219.912 109.605V108.483C218.493 108.623 217.833 107.782 217.93 105.959V98.8076L225.268 109.604H227.029V99.2283C226.883 97.3589 227.445 96.5175 228.717 96.7046V95.5124H223.801V96.7046C225.268 96.5175 225.929 97.3589 225.782 99.2283V105.328L219.105 95.5124H215.069V96.7046C216.243 96.5644 216.781 97.2421 216.683 98.7377V105.959C216.781 107.828 216.219 108.67 214.996 108.483V109.604H219.912L219.912 109.605ZM245.423 109.605V108.483C244.177 108.436 243.602 107.875 243.698 106.8V104.136L244.704 103.084L248.512 109.604H252.821V108.483C251.863 108.483 251.121 107.969 250.595 106.94L246.787 100.701L248.583 98.6673C249.732 97.265 250.953 96.6113 252.247 96.7046V95.5124H246.715V96.7046C247.577 96.7046 247.936 96.8683 247.793 97.1951C247.122 98.4103 245.757 100.117 243.698 102.313V98.5271C243.602 97.2186 244.153 96.6108 245.35 96.7046V95.5124H239.172V96.7046C240.322 96.6108 240.849 97.2186 240.753 98.5271V106.73C240.848 107.992 240.298 108.576 239.101 108.483V109.604H245.422L245.423 109.605ZM302.143 109.605C306.351 109.42 308.576 107.044 308.818 102.477C308.577 97.8639 306.351 95.4186 302.143 95.1416C297.935 95.4186 295.71 97.8863 295.468 102.546C295.661 107.021 297.887 109.374 302.143 109.604L302.143 109.605ZM302.23 108.492L302.141 108.491C299.917 108.445 298.805 106.44 298.805 102.478C298.805 98.3754 299.917 96.3009 302.141 96.2545C304.46 96.2545 305.571 98.329 305.475 102.478C305.427 106.533 304.315 108.538 302.141 108.491L302.23 108.492ZM326.282 109.605V108.483C325 108.529 324.407 107.922 324.502 106.66V102.874H325.926C327.066 102.78 327.683 103.412 327.778 104.767H328.918V99.8596H327.778C327.635 101.168 327.018 101.776 325.926 101.682H324.502V96.7046H326.994C328.277 96.5175 329.179 97.4991 329.701 99.649L330.698 99.4389L330.413 95.5124H320.015V96.7046C321.202 96.5175 321.724 97.1253 321.582 98.5271V106.66C321.676 107.968 321.131 108.576 319.943 108.483V109.604H326.282V109.605ZM379.858 109.605V108.483C378.798 108.483 378.292 107.899 378.341 106.73V102.804H383.182V106.66C383.279 108.015 382.773 108.623 381.665 108.483V109.604H387.807V108.483C386.603 108.576 386.049 107.969 386.146 106.66V98.5271C386.049 97.1717 386.579 96.5644 387.735 96.7046V95.5124H381.736V96.7046C382.749 96.6108 383.23 97.2186 383.182 98.5271V101.612H378.341V98.5271C378.244 97.1717 378.726 96.5644 379.786 96.7046V95.5124H373.787V96.7046C374.944 96.6108 375.474 97.2186 375.377 98.5271V106.73C375.426 107.945 374.872 108.529 373.715 108.483V109.604H379.858V109.605ZM403.452 109.234V108.123C402.138 108.077 401.627 107.776 401.919 107.22L402.722 104.86H406.59L407.247 107.151C407.539 107.799 407.101 108.123 405.933 108.123V109.234H412.283V108.123C411.261 108.123 410.58 107.591 410.239 106.526L406.371 95.1416L404.838 95.2808L400.532 107.082C400.289 107.822 399.632 108.17 398.561 108.123V109.234H403.452V109.234ZM405.978 103.671H403.012L404.569 99.2213L405.978 103.671V103.671ZM427.582 109.605V108.483C426.164 108.623 425.503 107.782 425.601 105.959V98.8076L432.939 109.604H434.7V99.2283C434.553 97.3589 435.115 96.5175 436.387 96.7046V95.5124H431.471V96.7046C432.939 96.5175 433.599 97.3589 433.453 99.2283V105.328L426.775 95.5124H422.74V96.7046C423.913 96.5644 424.451 97.2421 424.354 98.7377V105.959C424.452 107.828 423.889 108.67 422.666 108.483V109.604H427.582V109.605ZM453.398 109.604C458.422 109.651 460.91 107.29 460.862 102.523C460.91 97.8035 458.374 95.467 453.254 95.5134H447.584V96.7051C448.685 96.6118 449.211 97.2191 449.163 98.5276V106.659C449.211 107.968 448.661 108.576 447.513 108.482V109.604H453.398ZM453.001 108.122H451.963V96.6257H452.704C456.165 96.5798 457.896 98.5301 457.896 102.477C457.896 106.24 456.264 108.121 453.001 108.121L453.001 108.122ZM476.507 109.234V108.123C475.193 108.077 474.682 107.776 474.975 107.22L475.777 104.86H479.645L480.302 107.151C480.594 107.799 480.156 108.123 478.989 108.123V109.234H485.338V108.123C484.316 108.123 483.635 107.591 483.295 106.526L479.426 95.1416L477.894 95.2808L473.587 107.082C473.344 107.822 472.688 108.17 471.617 108.123V109.234H476.507ZM479.034 103.671H476.067L477.625 99.2213L479.034 103.671V103.671ZM500.637 109.605V108.483C499.219 108.623 498.559 107.782 498.656 105.959V98.8076L505.994 109.604H507.755V99.2283C507.609 97.3589 508.171 96.5175 509.443 96.7046V95.5124H504.526V96.7046C505.994 96.5175 506.654 97.3589 506.508 99.2283V105.328L499.831 95.5124H495.795V96.7046C496.969 96.5644 497.507 97.2421 497.409 98.7377V105.959C497.507 107.828 496.945 108.67 495.722 108.483V109.604H500.637V109.605Z" fill="#E91B2A"/>
</svg>
