<svg width="128" height="128" viewBox="0 0 128 128" fill="none" xmlns="http://www.w3.org/2000/svg">
<path d="M96.1001 65.3C94.8501 64.2 94.7501 63.35 95.9501 62.3C98.6001 59.65 101.3 57 103.95 54.35C105.65 52.6 106.6 50 105.5 47.2C99.0501 31.8 84.0001 20.9 66.4001 20.5V33.4C77.1501 33.75 86.3501 39.5 91.5001 48.2L85.3001 54.45L72.0001 40.95C68.3501 37.25 62.3501 37.25 58.7001 40.95L42.7501 57.1C39.0501 60.85 39.0501 66.85 42.7501 70.6L58.1501 86.2C61.8001 89.9 67.7501 89.9 71.4501 86.2L85.0501 72.8L92.1501 79.5L94.3001 81.75L101 88.55C102.75 86 104.25 83.3 105.5 80.4C106.3 78.35 105.9 75.35 104.45 73.75C101.65 71 98.9001 68.15 96.1001 65.3ZM74.5501 64.85L66.1001 73.5C65.8001 73.8 65.4501 74 65.0001 74C64.6001 74 64.2001 73.85 63.9501 73.55L55.5001 64.85C55.2001 64.55 55.0501 64.15 55.0501 63.75C55.0501 63.3 55.2001 62.95 55.5001 62.65L64.0001 53.95C64.3001 53.65 64.6501 53.5 65.0501 53.5C65.4501 53.5 65.8501 53.7 66.1501 53.95L74.6001 62.65C74.9001 62.95 75.0501 63.3 75.0501 63.75C75.0001 64.2 74.8501 64.6 74.5501 64.85Z" fill="#0086B2"/>
<path d="M65.3 94.55C48.55 94.55 34.85 80.8 34.85 63.95C34.85 48.3 46.65 35.3 61.75 33.5V20.5C39.55 22.35 22 41.15 22 63.95C22 87.95 41.45 107.5 65.3 107.5C78.35 107.5 90.05 101.65 98 92.45L88.95 83.2C83.35 90.1 74.8 94.55 65.3 94.55Z" fill="#0086B2"/>
</svg>
