<svg width="128" height="128" viewBox="0 0 128 128" fill="none" xmlns="http://www.w3.org/2000/svg">
<path d="M109 57.9999C105.15 57.6499 102.1 57.9499 99.85 58.9499C96.45 60.3999 93.2 63.2999 86.15 69.7499C79.1 76.2499 66.05 83.4999 53.1 83.4999C44.45 83.4999 37.25 82.9499 31.5 81.8999C34.8 82.4499 39.65 82.4499 46.05 81.8999C55.65 81.0499 66.55 76.1999 70.9 73.1999C75.25 70.1999 80.1 66.4999 83 63.9999C85.9 61.4999 92.4 56.7999 97.8 56.1499C101.35 55.6999 105.1 56.2999 109 57.9999Z" fill="#F2A100"/>
<path d="M15 78.4C20.15 80.75 25.8 81.5 32.05 80.75C41.4 79.6 53.2 75.9 61.9 69.4C70.6 62.9 79.1 54 87.05 52.15C95 50.3 104.2 52.65 109.1 56.55C114 60.5 113.9 59.85 110.5 56.55C107.1 53.25 97.5 45 87.1 45C76.7 45 69.4 48.15 63 49.05C56.6 49.95 40.6 49.25 35.5 47.5C30.4 45.75 26.85 48.5 25.1 50.3C23.35 52.1 19 53.8 17.5 53.8C16 53.8 17.3 55.55 21.8 55.55H57.6C58.55 55.55 44.4 68.65 35.5 74.15C29.55 77.8 22.75 79.25 15 78.4Z" fill="#AE1F33"/>
</svg>
