<svg width="457" height="128" viewBox="0 0 457 128" fill="none" xmlns="http://www.w3.org/2000/svg">
<path fill-rule="evenodd" clip-rule="evenodd" d="M170.974 96.7589V102.273H173.732C174.46 102.273 175.095 102.262 175.62 102.221C176.142 102.192 176.601 102.143 176.97 102.061C177.561 101.944 178.045 101.807 178.433 101.63C178.821 101.442 179.139 101.242 179.374 101.007C179.621 100.779 179.796 100.528 179.896 100.249C180.006 99.9671 180.052 99.6723 180.052 99.3633C180.052 98.8101 179.874 98.3354 179.521 97.9275C179.171 97.5222 178.605 97.2131 177.852 97.0092C177.521 96.9157 177.126 96.8462 176.683 96.8141C176.236 96.7776 175.664 96.7589 174.964 96.7589H170.974ZM174.77 93.7511C175.92 93.7511 176.776 93.6558 177.339 93.4571C177.968 93.2398 178.415 92.9263 178.683 92.5264C178.959 92.1336 179.089 91.6829 179.089 91.1886C179.089 90.6702 178.927 90.2124 178.617 89.8071C178.315 89.4001 177.786 89.0946 177.042 88.9031C176.733 88.8211 176.376 88.7615 175.958 88.7303C175.551 88.6991 175.041 88.6938 174.429 88.6938H170.974V93.7511H174.77ZM183.416 90.8946C183.416 91.7506 183.201 92.5193 182.748 93.2291C182.304 93.9354 181.559 94.5268 180.528 94.998V95.0524C181.112 95.2207 181.628 95.4336 182.1 95.691C182.572 95.9519 182.991 96.2592 183.326 96.6217C183.657 96.9709 183.922 97.3779 184.116 97.8215C184.307 98.2722 184.398 98.7718 184.398 99.3321C184.398 99.8104 184.313 100.323 184.135 100.869C183.953 101.417 183.642 101.944 183.201 102.461C182.748 102.975 182.153 103.45 181.41 103.874C180.659 104.3 179.727 104.646 178.586 104.901C178.299 104.956 177.996 105.018 177.652 105.058C177.311 105.113 176.938 105.149 176.529 105.191C176.12 105.222 175.658 105.243 175.15 105.259C174.644 105.277 174.081 105.281 173.45 105.281H166.77V85.6859H174.763C176.464 85.6859 177.839 85.8338 178.884 86.1215C179.659 86.337 180.334 86.6185 180.909 86.9685C181.488 87.3132 181.959 87.6989 182.328 88.122C182.7 88.5441 182.973 88.993 183.147 89.4678C183.326 89.9452 183.416 90.4128 183.416 90.8946Z" fill="#231916"/>
<path fill-rule="evenodd" clip-rule="evenodd" d="M197.49 90.4007C196.684 92.4484 195.968 94.1657 195.343 95.5346L194.558 97.2911H200.492L199.713 95.5346C199.088 94.1461 198.372 92.4395 197.559 90.4007H197.49ZM201.854 100.286H193.195L190.947 105.281H186.464L195.587 85.6864H199.441L208.557 105.281H204.109L201.854 100.286Z" fill="#231916"/>
<path fill-rule="evenodd" clip-rule="evenodd" d="M223.8 94.7898C225.45 96.7939 226.791 98.5717 227.823 100.125H227.923C227.786 97.5714 227.72 95.7188 227.72 94.5618V85.6862H231.927V105.281H227.511L220.024 96.2532C218.707 94.699 217.335 92.8864 215.928 90.8236H215.825C215.963 93.2204 216.034 95.0838 216.034 96.4029V105.281H211.82V85.6862H216.238L223.8 94.7898Z" fill="#231916"/>
<path fill-rule="evenodd" clip-rule="evenodd" d="M237.43 105.281V85.6864H241.635V94.6057H241.704L250.378 85.6864H255.612L246.021 95.3904L256.399 105.281H251.007L241.704 96.4333H241.635V105.281H237.43Z" fill="#231916"/>
<path fill-rule="evenodd" clip-rule="evenodd" d="M282.571 95.4769C282.571 94.2887 282.399 93.252 282.055 92.3506C281.708 91.4635 281.235 90.7135 280.625 90.1221C280.013 89.5254 279.3 89.0756 278.463 88.7932C277.625 88.494 276.709 88.3443 275.715 88.3443C274.717 88.3443 273.805 88.494 272.961 88.7932C272.123 89.0756 271.404 89.5254 270.8 90.1221C270.188 90.7135 269.715 91.4635 269.372 92.3506C269.035 93.252 268.853 94.2887 268.853 95.4769C268.853 96.6776 269.035 97.7161 269.372 98.6068C269.715 99.5037 270.188 100.248 270.8 100.839C271.404 101.423 272.123 101.867 272.961 102.171C273.805 102.465 274.717 102.618 275.715 102.618C276.709 102.618 277.625 102.465 278.463 102.171C279.3 101.867 280.013 101.423 280.625 100.839C281.235 100.248 281.708 99.5037 282.055 98.6068C282.399 97.7161 282.571 96.6776 282.571 95.4769ZM286.915 95.4769C286.915 96.9715 286.669 98.3405 286.165 99.5856C285.666 100.839 284.943 101.905 283.983 102.806C283.027 103.705 281.854 104.402 280.467 104.9C279.076 105.396 277.484 105.643 275.715 105.643C273.936 105.643 272.354 105.396 270.953 104.9C269.566 104.402 268.396 103.705 267.441 102.806C266.48 101.905 265.755 100.839 265.255 99.5856C264.758 98.3405 264.508 96.9715 264.508 95.4769C264.508 93.9823 264.758 92.6205 265.255 91.3762C265.755 90.1257 266.48 89.056 267.441 88.1617C268.396 87.2586 269.566 86.5576 270.953 86.066C272.354 85.5609 273.936 85.3178 275.715 85.3178C277.484 85.3178 279.076 85.5609 280.467 86.066C281.854 86.5576 283.027 87.2586 283.983 88.1617C284.943 89.056 285.666 90.1257 286.165 91.3762C286.669 92.6205 286.915 93.9823 286.915 95.4769Z" fill="#231916"/>
<path fill-rule="evenodd" clip-rule="evenodd" d="M295.597 105.281H291.38V85.6864H306.026V88.6942H295.597V93.7515H304.51V96.7593H295.597V105.281Z" fill="#231916"/>
<path fill-rule="evenodd" clip-rule="evenodd" d="M321.178 93.7511H331.839V85.6859H336.046V105.281H331.839V96.7589H321.178V105.281H316.977V85.6859H321.178V93.7511Z" fill="#231916"/>
<path fill-rule="evenodd" clip-rule="evenodd" d="M350.342 90.4007C349.538 92.4484 348.812 94.1657 348.197 95.5346L347.402 97.2911H353.352L352.561 95.5346C351.939 94.1461 351.22 92.4395 350.407 90.4007H350.342ZM354.703 100.286H346.047L343.805 105.281H339.316L348.429 85.6864H352.283L361.415 105.281H356.957L354.703 100.286Z" fill="#231916"/>
<path fill-rule="evenodd" clip-rule="evenodd" d="M364.672 105.282H368.883V85.6868H364.672V105.282Z" fill="#231916"/>
<path fill-rule="evenodd" clip-rule="evenodd" d="M386.361 94.7898C388.009 96.7939 389.347 98.5717 390.385 100.125H390.481C390.35 97.5714 390.278 95.7188 390.278 94.5618V85.6862H394.492V105.281H390.075L382.585 96.2532C381.262 94.699 379.899 92.8864 378.486 90.8236H378.387C378.524 93.2204 378.599 95.0838 378.599 96.4029V105.281H374.382V85.6862H378.799L386.361 94.7898Z" fill="#231916"/>
<path fill-rule="evenodd" clip-rule="evenodd" d="M408.785 90.4007C407.985 92.4484 407.263 94.1657 406.635 95.5346L405.847 97.2911H411.793L411.005 95.5346C410.386 94.1461 409.663 92.4395 408.857 90.4007H408.785ZM413.152 100.286H404.494L402.246 105.281H397.749L406.878 85.6864H410.727L419.849 105.281H415.4L413.152 100.286Z" fill="#231916"/>
<path fill-rule="evenodd" clip-rule="evenodd" d="M435.091 94.7898C436.748 96.7939 438.083 98.5717 439.115 100.125H439.218C439.081 97.5714 439.015 95.7188 439.015 94.5618V85.6862H443.222V105.281H438.802L431.318 96.2532C429.999 94.699 428.629 92.8864 427.223 90.8236H427.117C427.254 93.2204 427.329 95.0838 427.329 96.4029V105.281H423.115V85.6862H427.536L435.091 94.7898Z" fill="#231916"/>
<path fill-rule="evenodd" clip-rule="evenodd" d="M214.4 47.1725C214.69 47.1725 214.897 47.0941 215.021 46.9231C215.143 46.7601 215.324 46.191 215.571 45.2032C215.809 44.2306 215.659 43.4281 215.659 42.8117C215.659 42.1891 215.353 41.7892 214.743 41.6244C214.14 41.4641 213.539 41.3768 212.955 41.3768C212.371 41.3768 212.436 41.424 211.52 41.5238C210.588 41.6146 210.05 41.7206 209.907 41.8435C209.757 41.9647 209.626 42.1268 209.51 42.3459C209.385 42.5552 209.297 42.7966 209.244 43.0593C209.201 43.3212 209.176 43.64 209.176 44.0213V45.3902C209.176 46.0565 209.297 46.4724 209.548 46.6381C209.788 46.8037 210.319 46.916 211.154 46.9605L214.4 47.1725ZM213.784 54.6934C213.884 54.3594 213.746 53.9185 213.239 53.784C213.058 53.7377 212.327 53.6442 211.013 53.532C206.793 53.1561 207.131 54.9125 207.131 55.1949C207.131 55.4781 207.193 56.1479 207.319 57.1642C207.431 58.1956 207.701 58.7799 208.081 58.9268C208.472 59.0649 209.194 59.1833 210.238 59.2831C211.282 59.3766 211.855 59.4274 211.955 59.4274C212.489 59.4274 212.808 59.202 212.902 58.7799L213.784 54.6934ZM203.051 57.9016C203.511 55.6696 204.524 52.6439 198.553 53.9069C197.174 54.2 196.593 54.3068 196.305 54.4262C195.458 54.7691 195.677 59.2581 196.383 59.4826C196.972 59.6741 202.639 59.8959 203.051 57.9016ZM172.587 26.1861C176.32 27.6254 181.541 28.3406 184.017 29.5199C185.536 30.2449 187.117 31.2986 187.049 32.2106C186.956 33.3053 185.542 34.3643 182.516 35.3932C179.502 36.4255 176.914 36.935 174.776 36.935C173.507 36.935 172.516 36.5128 171.675 35.7878C169.614 34.0178 169.061 29.3729 170.811 27.2273C171.293 26.6465 172.037 25.9776 172.587 26.1861ZM218.548 59.7552C218.491 60.0464 218.516 60.5648 219.36 60.6708C228.17 61.8278 229.801 59.1023 228.601 62.1413C228.298 62.9099 227.057 66.0425 225.519 67.4293C224.384 68.458 222.424 67.855 221.254 67.6172L218.069 67.0516C217.779 67.0516 217.572 67.3678 217.41 67.9859C215.315 75.8391 213.265 77.0656 208.344 75.9923C207.63 75.8391 201.086 73.8199 196.136 72.532C195.458 72.3512 195.115 72.1062 195.115 71.7099C195.115 71.3037 195.268 71.0312 195.587 70.8842C195.914 70.7435 197.778 70.5155 201.219 70.202C204.643 69.8938 206.756 69.7905 207.531 69.7344C209.016 69.631 211.088 69.6488 211.292 65.5856C211.307 65.395 211.195 65.2418 210.972 65.1536C209.725 64.6824 197.159 64.0598 190.525 66.4264C188.8 67.0427 187.558 68.2246 186.479 68.8588C184.738 69.8778 182.397 68.0857 181.716 66.2233C180.034 61.6372 183.132 62.453 183.904 62.2215C185.267 61.834 187.384 61.2907 187.98 61.0368C190.931 59.7997 189.95 56.1604 189.95 55.9947C189.95 55.8192 189.819 55.7319 189.556 55.7319C189.284 55.7319 189.119 55.87 187.705 56.3447C186.289 56.8195 185.183 57.0608 184.383 57.0608C183.579 57.0608 183.016 56.9976 182.697 56.8818C182.379 56.7642 182.131 56.701 181.934 56.701C181.741 56.701 181.591 56.8702 181.503 57.2042C179.79 61.1713 178.149 64.7163 175.933 67.2957C173.712 69.868 171.681 70.8842 170.465 70.8842C169.783 70.8842 169.236 70.5805 168.78 70.0212C167.204 68.0643 166.241 65.9668 167.07 63.5655C167.585 62.087 168.523 61.663 169.261 61.2435C170.596 60.49 175.982 59.0649 176.933 58.6391C177.883 58.208 178.696 57.6327 179.374 56.9201C180.059 56.1951 180.481 55.707 180.402 55.4781C179.778 53.6379 178.674 48.6822 183.238 49.5738C186.154 50.1491 187.286 49.4802 189.672 48.9013C191.876 48.3607 191.272 41.6672 190.357 40.8014C190.182 40.6322 189.265 40.471 188.777 40.4078C184.1 39.8074 184.642 36.4941 185.657 36.2937C186.999 36.0309 188.168 35.8118 189.09 35.1492C190.015 34.4738 191.814 33.0176 194.01 30.5825C196.193 28.1527 197.309 26.284 197.821 25.1894C198.337 24.0921 198.987 23.7108 199.719 23.5461C200.691 23.3145 201.242 24.0012 202.017 24.9427C202.802 25.8716 203.21 26.8648 203.261 27.9095C203.314 28.4849 203.649 28.7726 204.287 28.7726C204.912 28.7726 206.068 28.598 207.76 28.2649C209.435 27.9345 211.689 27.7661 214.508 27.7661C217.334 27.7661 219.929 28.0217 222.431 28.2061C225.475 28.4341 227.02 26.5343 227.604 27.6405C227.958 28.297 226.313 31.5604 224.169 32.9401C221.411 34.7054 217.773 31.5239 202.523 33.6491C198.103 34.2619 195.989 35.4369 195.825 38.369C195.649 41.587 195.49 47.4878 198.529 47.429C199.629 47.4041 202.351 47.2384 203.449 46.9231C204.54 46.6131 205.036 46.313 205.087 46.0351C205.236 45.2504 204.992 43.7719 203.955 43.127C203.608 42.9088 203.186 42.7084 202.608 42.6638C200.126 42.5204 199.163 41.6084 198.881 39.7326C198.803 39.208 199.235 38.2728 199.484 37.8942C200.135 36.9127 201.123 36.6411 205.493 36.0309C207.272 35.7878 209.548 35.6471 212.321 35.6471C215.093 35.6471 218.513 35.9312 218.807 35.9463C221.111 36.0568 221.686 36.3062 222.327 37.7758C223.124 39.5981 221.323 40.1949 221.173 43.6124C221.015 47.2135 221.277 47.9857 222.962 48.0667C229.423 48.3607 232.747 47.6009 232.9 47.6009C233.427 47.6009 233.697 47.8173 233.697 48.2484C233.697 48.6795 231.58 53.238 230.068 54.5634C229.446 55.1094 228.777 55.6135 227.07 55.5476C226.022 55.5066 222.533 54.9499 221.111 54.7566C220.473 54.6756 219.092 54.5064 218.98 56.1007L218.548 59.7552ZM182.959 42.8117C182.959 43.2838 182.51 44.268 181.61 45.7465C180.703 47.217 179.603 48.9075 177.696 49.7145C174.854 50.924 171.124 53.0127 169.045 53.0501C168.73 53.0617 168.411 52.5745 168.098 51.6179C167.776 50.6613 167.364 49.3645 167.364 47.6445C167.364 45.9291 167.617 44.5539 167.945 43.7024C168.699 41.7269 170.555 41.7393 171.056 41.6583C173.15 41.3421 177.996 41.6583 180.474 42.0894C181.769 42.3147 182.536 42.2203 182.697 42.3459C182.866 42.4554 182.959 42.6211 182.959 42.8117Z" fill="#231916"/>
<path fill-rule="evenodd" clip-rule="evenodd" d="M289.014 50.7083C289.43 50.7083 289.696 50.5676 289.817 50.2861C289.933 50.0109 289.989 49.3642 289.989 48.3604C289.989 47.3566 289.861 46.7038 289.608 46.4036C289.349 46.0972 288.786 45.8656 287.929 45.7071C287.066 45.5405 285.784 45.341 284.071 45.1032C282.371 44.8752 281.242 44.7532 280.68 44.7532C280.12 44.7532 279.752 45.0596 279.561 45.6724C279.329 46.5541 278.866 47.6541 278.163 48.9545C278.066 49.1923 278.022 49.3794 278.022 49.5174C278.022 49.6608 278.394 49.7553 279.141 49.7989C281.477 49.8924 283.689 50.067 285.791 50.3182C287.888 50.58 288.96 50.7083 289.014 50.7083ZM289.989 58.8954C289.989 56.8451 289.696 55.77 289.11 55.6756C288.529 55.5821 286.703 55.4013 283.621 55.1252C280.535 54.8384 278.191 54.6941 275.524 54.6941C274.04 54.6941 273.336 54.7253 272.839 54.801C272.348 54.8696 272.105 55.1635 272.105 55.6756C272.105 56.1913 272.211 56.8041 272.317 57.5327C272.395 58.0671 272.346 58.7707 272.555 59.0673C272.768 59.3764 273.29 59.5216 274.131 59.5216C277.022 59.5216 279.329 59.5964 282.087 59.7398L288.942 60.0898C289.355 60.0898 289.642 60.015 289.782 59.8805C289.918 59.7398 289.989 59.4147 289.989 58.8954ZM267.031 50.3609C267.081 50.3609 267.918 50.2808 269.557 50.1178C271.182 49.9512 272.143 49.7864 272.417 49.6234C272.699 49.4613 272.949 48.9857 273.152 48.1885C273.365 47.3941 273.474 46.6014 273.474 45.8095C273.474 45.0124 273.193 44.6214 272.63 44.6214C272.536 44.6214 271.516 44.6775 269.557 44.7968C267.59 44.9091 266.428 45.2564 266.053 45.8443C265.678 46.4286 265.49 47.1162 265.49 47.9071C265.49 48.7043 265.596 49.3081 265.808 49.7294C266.022 50.1489 266.428 50.3609 267.031 50.3609ZM259.956 50.7804C259.956 50.7297 259.55 48.8726 259.209 46.9291C259.144 46.5631 259.053 46.3876 258.722 46.3724C257.444 46.3039 252.529 47.5918 251.729 47.8011C251.423 47.8821 251.235 48.0915 251.144 48.323C251.047 48.5635 250.941 49.1701 250.828 50.1489C250.713 51.1207 250.647 51.8653 250.647 52.3498C250.647 52.8406 250.838 53.0873 251.216 53.0873C251.586 53.0873 252.341 52.9555 253.485 52.6998C254.633 52.4433 255.996 52.1931 257.591 51.9303C259.169 51.6747 259.956 51.2926 259.956 50.7804ZM251.472 61.7902C251.617 61.7902 251.778 61.775 251.966 61.7278C256.065 60.7962 259.759 60.0311 264.427 59.6623C265.176 59.5608 265.662 59.3141 265.902 58.9275C266.134 58.5267 266.396 58.0448 266.396 57.1764C266.396 56.3205 266.143 55.632 265.934 55.4262C265.727 55.2187 265.327 55.1038 264.743 55.1038C264.165 55.1038 263.111 55.4325 260.726 55.7816C258.349 56.1325 256.214 56.5102 254.33 56.9012C252.441 57.2958 251.603 57.5389 251.297 57.7046C250.991 57.8703 250.785 58.117 250.669 58.4394C250.55 58.7645 250.497 59.4085 250.497 60.3615C250.497 61.3252 250.822 61.7902 251.472 61.7902ZM300.064 33.0149C297.464 38.9014 286.991 34.1746 274.856 33.6303C273.636 33.5805 272.239 33.1868 272.192 35.0367L272.12 38.1764C272.12 38.6004 272.215 38.8791 272.405 39.0199C272.586 39.157 273.102 39.255 273.943 39.2256C280.92 39.0261 289.667 39.6318 293.769 39.2951C295.607 39.1419 296.344 41.2956 296.176 43.0867C296.113 43.7182 295.513 46.1542 295.476 46.8035C295.07 53.5816 297.57 63.3471 297.408 67.8922C297.313 70.5251 293.513 74.0201 292.718 74.0201C291.834 74.0201 290.745 73.6318 290.699 72.7037C290.561 70.5117 290.461 64.7597 290.411 63.9411C290.396 63.6846 290.202 63.5849 290.058 63.5849C289.918 63.5849 289.639 63.6009 289.43 63.8663C288.239 65.417 286.547 65.4108 285.546 65.4108C284.541 65.4108 278.045 64.9164 274.127 64.9164C273.518 64.9164 273.102 65.091 272.864 65.4419C272.627 65.7893 272.53 66.6675 272.511 68.0704C272.468 71.7533 272.493 72.1817 272.346 73.1357C271.842 76.3359 267.441 76.5461 267.034 76.2833C266.128 75.6892 266.284 73.4447 266.221 71.772C266.149 70.0904 266.109 68.7179 266.109 67.6366C266.109 66.5615 266.031 65.8989 265.871 65.6424C265.699 65.3912 265.362 65.2602 264.852 65.2602C263.596 65.2602 261.213 65.6539 257.409 66.1456C253.607 66.6328 251.447 66.9739 250.928 67.1619C250.415 67.3427 250.172 67.7987 250.103 68.562C249.771 72.2904 248.002 72.9566 244.626 73.1009C243.97 73.1259 243.688 72.7571 243.785 72.0571C245.414 61.4588 244.97 46.8481 244.288 44.4913C243.82 42.8587 246.315 41.7739 247.508 41.7266C252.876 41.5049 258.493 40.3924 263.952 39.9328C264.511 39.8829 264.902 39.7671 265.108 39.5828C265.321 39.3948 265.424 38.9727 265.424 38.3162L265.562 35.1338C265.562 34.4248 265.015 33.34 260.456 34.749C257.933 35.5284 247.218 39.1944 243.056 39.2256C242.147 39.2318 241.566 38.6698 241.062 37.6544C239.789 35.0902 239.374 29.9287 240.668 30.4951C246.567 33.0674 258.894 30.2921 263.47 29.9634C264.165 29.8726 265.527 29.8352 265.534 27.897C265.537 26.2876 264.777 25.4405 265.339 24.9996C267.228 23.5149 272.18 22.1014 272.974 23.9014C273.255 24.5329 272.217 26.6652 272.261 27.653C272.307 28.6657 273.102 29.1226 274.362 29.1226L280.193 28.9356C286.123 28.9356 296.667 29.6223 300.227 28.5472C302.203 27.9531 300.89 31.148 300.064 33.0149Z" fill="#231916"/>
<path fill-rule="evenodd" clip-rule="evenodd" d="M355.953 62.1124C356.647 62.0714 356.991 61.8318 356.985 61.4221C356.985 60.5929 356.694 59.8964 355.978 58.6049C354.997 56.8387 354.202 55.1446 353.109 55.3477C352.89 55.3913 352.686 56.1324 352.377 56.9108C352.164 57.4515 350.999 61.5121 350.999 61.8318C350.999 62.1658 351.192 62.3279 351.586 62.3279L355.953 62.1124ZM358.623 38.1067C359.752 38.1067 360.317 37.363 360.317 35.8685C360.317 35.0749 359.967 34.5496 359.248 34.2993C358.533 34.0402 356.81 33.9092 354.065 33.9092C351.33 33.9092 348.866 34.0811 346.7 34.4347C344.521 34.7839 343.298 35.1132 343.036 35.4187C342.764 35.7126 342.623 36.263 342.623 37.0593C342.623 38.2822 343.242 38.8077 344.48 38.6705C347.888 38.1602 350.573 37.9001 352.546 37.9001C354.522 37.9001 355.903 37.9259 356.694 37.9696L358.623 38.1067ZM342.545 48.2605C342.545 49.1423 343.023 49.4923 343.958 49.308C347.61 48.6079 350.973 48.2605 354.027 48.2605L356.475 48.3238C357.353 48.3238 357.879 47.8802 358.029 46.9975C358.176 46.1095 358.251 45.5003 358.251 45.1779C358.251 44.8528 358.135 44.606 357.916 44.4439C357.694 44.2783 357.044 44.1625 355.953 44.0912C354.868 44.0209 353.522 43.9897 351.921 43.9897C350.313 43.9897 348.519 44.1536 346.553 44.484C344.575 44.8091 343.421 45.0995 343.068 45.3507C342.729 45.6098 342.545 46.0659 342.545 46.7196V48.2605ZM342.261 63.0966C342.743 63.0966 343.865 63.0164 344.687 62.8499C345.5 62.694 346.255 62.287 346.572 61.4907C347.172 59.9525 347.4 56.9981 347.663 55.9792C348.569 52.4904 343.586 54.1942 342.664 54.8382C342.364 55.0386 342.211 55.541 342.114 56.2384C341.867 58.8017 341.674 60.3898 341.554 60.9964C341.429 61.6065 341.366 62.0999 341.366 62.5025C341.366 62.9033 341.66 63.0966 342.261 63.0966ZM376.17 69.2566C376.217 69.5808 375.066 70.5249 372.865 72.088C370.671 73.6574 368.842 74.4386 367.351 74.4386C365.876 74.4386 364.444 73.9638 363.065 73.0046C361.684 72.0444 360.173 69.4489 358.548 65.2048C358.347 64.6384 358.123 64.3596 357.879 64.3596C357.632 64.3596 355.972 66.1793 354.612 66.8054C352.114 67.949 343.384 66.955 337.885 69.6119C336.662 70.1998 335.152 71.1751 334.645 71.4378C331.523 73.0767 327.903 67.1955 329.631 66.6549C331.357 66.1169 332.702 65.6288 334.245 64.4754C335.583 63.4662 335.136 63.0343 335.465 60.3685C335.659 58.808 336.899 34.2432 336.649 31.5266C336.49 29.7578 335.796 29.4229 337.018 28.1323C337.656 27.4598 338.318 26.1941 340.811 27.8499C341.292 28.1732 341.864 28.403 342.474 28.3104C348.364 27.4161 354.394 27.2469 361.237 28.0628C362.49 28.216 363.903 28.2819 366.02 27.5435C366.842 27.2532 367.932 27.9221 368.239 29.2225C368.589 30.6858 367.188 31.3922 366.62 32.3176C365.307 34.4499 363.843 38.3918 364.244 50.0419C364.3 51.8028 364.719 52.0308 358.91 53.4407C358.51 53.5405 358.329 53.7836 358.329 54.0695C358.329 54.7189 359.411 56.3764 361.58 59.0395C363.753 61.6965 366.144 64.0069 368.765 65.9664C371.377 67.933 373.376 68.9056 374.766 68.9056C375.692 68.9056 376.086 68.6901 376.17 69.2566ZM335.339 28.11C335.483 28.2071 335.565 28.403 335.565 28.7041C335.565 29.0042 334.896 31.0172 334.334 32.2303C333.764 33.4434 332.845 34.1684 331.594 34.4C330.331 34.6316 329.128 34.7491 326.708 34.7491C324.286 34.7491 322.353 34.9184 320.898 35.2744C319.443 35.6253 318.267 36.3129 317.383 37.3381C317.089 37.6632 316.74 38.0159 316.339 38.3918C315.952 38.7632 315.751 39.0197 315.751 39.1577C315.751 39.4392 316.07 39.5692 316.717 39.5692C316.967 39.5692 317.258 39.514 317.601 39.3697C320.119 38.4318 323.326 37.9696 327.23 37.9696C328.568 37.9696 329.934 38.0319 331.335 38.145C332.748 38.2573 333.667 38.382 334.114 38.4942C334.558 38.61 334.771 38.8318 334.771 39.1577C334.771 39.9513 334.233 40.9338 333.148 42.0952C332.067 43.2718 330.366 43.9683 328.044 44.1999C326.218 44.3406 325.111 44.5152 324.711 44.7192C324.316 44.9311 324.12 45.4469 324.12 46.26C324.12 47.0795 324.614 47.4447 325.599 47.3547C327.975 47.116 330.309 46.9975 332.632 46.9975C333.567 46.9975 334.042 47.2915 334.042 47.8802C334.042 48.4574 333.88 49.4514 332.523 50.7366C331.173 52.0219 329.166 52.7006 327.562 52.9125C325.955 53.1245 325.24 53.2938 324.77 53.4309C323.498 53.8068 323.785 58.9336 323.76 60.4807C323.751 61.2342 323.629 61.6475 324.271 61.6475C324.614 61.6475 324.973 61.4907 325.377 61.2217C327.965 59.533 330.256 58.3484 331.651 57.1762C332.17 56.7389 332.477 56.4762 332.645 56.4762C332.817 56.4762 332.901 57.1077 332.901 57.3446C332.901 57.8639 332.88 58.743 331.498 60.1556C324.876 66.9176 320.659 74.5143 317.44 73.2887C315.095 72.3944 313.607 71.1528 313.482 69.7491C313.219 66.8767 316.089 66.2167 317.289 62.9969C318.215 60.5145 318.153 57.6643 318.103 56.2758C318.078 55.5071 318.027 54.7474 317.002 55.0627C311.381 56.7728 310.221 56.4014 310.349 53.4407C310.421 51.7992 310.486 50.4213 311.547 49.5395C313.21 48.1608 313.275 49.1361 317.658 48.379C318.772 48.1857 318.615 47.5667 318.615 46.7544C318.615 45.9349 318.389 45.5288 317.942 45.5288C317.501 45.5288 316.221 46.0196 315.83 46.0196C314.251 46.0196 313.453 44.9 313.453 42.6644L313.532 40.6986C313.532 40.0458 313.256 39.7198 312.719 39.7198C311.627 39.7198 310.568 39.4632 309.537 38.9449C308.492 38.4318 307.98 37.9037 307.98 37.3693C307.98 35.4374 309.886 34.3902 311.049 33.6028C312.737 32.4521 317.13 28.4502 317.971 26.0588C318.434 24.753 319.574 24.1839 320.491 24.1839C322.031 24.1839 322.12 24.7156 322.12 25.7871L321.898 28.0975C321.898 28.754 322.516 29.1102 323.748 29.0817C335.451 28.8101 334.12 27.2594 335.339 28.11Z" fill="#231916"/>
<path fill-rule="evenodd" clip-rule="evenodd" d="M436.017 32.4548C432.524 36.0406 414.346 33.3562 409.304 34.8935C406.881 35.6308 405.509 34.6504 405.853 31.5553C406.25 27.9507 406.766 25.8968 410.317 26.587C415.477 27.5971 428.623 27.3967 430.8 27.4537C435.219 27.5695 436.579 24.9838 437.583 25.2091C439.44 25.634 437.727 30.6984 436.017 32.4548ZM443.222 39.8393C443.222 41.2555 442.91 44.0407 442.281 46.0037C441.653 47.9632 440.872 49.2645 439.933 49.9174C439.002 50.5747 437.976 50.8962 436.857 50.8962C435.739 50.8962 434.625 50.7653 433.344 50.4892C432.059 50.2086 431.074 50.067 430.399 50.067C429.727 50.067 429.264 50.3609 429.033 50.9363C428.798 51.5179 428.623 52.6847 428.511 54.4438C428.395 56.2038 428.333 58.3174 428.333 60.781L428.398 68.9994C428.398 70.8564 428.248 72.245 427.948 73.1419C427.648 74.0513 427.066 74.8324 426.391 75.4889C425.713 76.1364 425.028 76.4704 424.328 76.4704C423.628 76.4704 422.543 76.0366 422.055 75.1834C421.567 74.3301 421.324 73.3637 421.324 72.2815C421.324 71.2002 421.383 68.7277 421.496 64.8479C421.614 60.9841 421.671 57.7883 421.671 55.2757C421.671 52.7622 421.639 51.5028 421.474 50.8553C421.314 50.1926 420.968 49.6956 420.43 49.3456C419.892 48.9946 419.133 48.8103 418.15 48.8103C415.587 48.8103 412.708 49.3456 408.551 50.3966C406.687 50.9025 405.221 51.1554 404.149 51.1554C402.33 51.1554 401.42 50.3966 401.42 48.8922C401.42 48.0389 401.732 46.6602 402.501 44.8191C403.532 42.3341 405.127 40.3336 406.853 40.7398C415.299 42.7581 426.929 41.3651 435.138 41.8122C438.864 42.0144 440.38 40.3702 441.547 39.614C442.11 39.2105 442.528 39.0074 442.804 39.0074C443.09 39.0074 443.222 39.2889 443.222 39.8393ZM398.6 30.8392C396.586 33.6305 389.653 39.4082 386.349 39.3949C384.976 39.3886 383.535 38.7322 382.601 37.275C381.669 35.8188 381.487 33.9841 381.487 32.8744C381.487 31.7681 382.016 30.7243 383.088 30.9238C383.597 31.0235 385.99 31.9365 388.418 31.2489C389.396 30.9736 390.575 30.3983 391.957 29.5227C393.326 28.6445 394.274 27.7538 394.968 27.0725C395.846 26.2094 395.962 25.7159 396.568 25.6625C398.119 25.528 400.626 28.0282 398.6 30.8392ZM397.438 36.5759C399.378 36.8564 402.195 39.4296 399.726 42.6833C398.603 44.1591 396.224 44.8343 396.121 47.5108C396.121 47.5108 396.774 59.3586 396.609 67.4896C396.509 72.2815 394.48 73.6576 390.232 73.5792C385.814 73.508 385.054 71.9252 384.961 71.3258C384.826 70.4592 384.783 69.5436 386.137 68.1746C390.079 64.195 390.734 62.647 390.535 57.0954C390.434 54.3815 390.416 53.4124 390.316 51.9054C390.228 50.6237 389.994 49.8363 389.41 49.9806C387.902 50.3494 385.627 53.2378 384.085 54.3948C378.762 58.3993 378.199 51.4217 378.374 48.2954C378.63 43.7841 382.148 48.6081 390.759 42.7207C394.352 40.2642 395.858 38.3884 396.325 37.7418C396.843 37.0194 396.633 36.4565 397.438 36.5759Z" fill="#231916"/>
<path fill-rule="evenodd" clip-rule="evenodd" d="M111.844 14.9681C96.7205 4.47674 76.7852 5.59276 65.0336 17.2625C58.732 23.5213 56.0742 30.5639 58.088 39.045C63.5987 26.7278 73.4746 18.6315 86.4883 19.0376C94.6541 19.6629 100.737 24.0049 102.807 30.4072C80.8369 25.4924 66.7063 36.7755 60.6452 46.9854C60.6194 47.054 61.7327 48.5201 62.2484 49.1792C69.6794 41.318 82.759 34.4562 98.8715 40.4826C105.458 43.0459 108.634 48.5112 109.334 50.3923C110.894 54.6106 110.291 58.5901 109.565 61.1589C95.9981 49.0955 77.9351 49.2139 68.5883 54.5224C68.3478 54.6569 121.241 77.4459 101.932 123.935C101.959 123.96 101.994 123.982 102.019 124C146.459 103.624 153.209 43.6623 111.844 14.9681Z" fill="#0075C2"/>
<path fill-rule="evenodd" clip-rule="evenodd" d="M61.2168 60.1275C53.5579 65.7299 51.2136 75.9576 53.2924 87.6033C45.6771 85.0791 41.5978 80.9597 41.2754 72.0689C41.3128 64.9951 45.9425 56.7447 55.0524 53.2408C54.396 52.2806 53.7983 51.284 53.2515 50.2552C44.749 49.3672 35.624 54.0753 31.5785 59.6154C31.0183 56.6699 29.9183 51.2893 31.9811 46.2917C35.2232 38.4448 46.8181 39.2045 49.9693 40.2546C49.2407 35.5287 41.0349 31.9863 35.2143 32.4699C36.3454 29.6847 38.0404 26.2093 41.5158 25.7622C45.2264 25.421 47.9439 26.8533 50.2009 30.1577C52.7892 16.1366 64.8366 5.43591 79.4794 4.91397C79.0421 3.32856 69.1884 4.26645 68.7885 4.36353L68.7698 4.36086C37.8899 8.22464 14 34.5746 14 66.5048C14 108.016 49.7689 124.006 60.979 122.519V122.544C74.1593 122.544 84.9687 112.416 86.066 99.5162C88.4575 80.7789 65.2374 63.0436 61.2168 60.1275Z" fill="#00A162"/>
<path fill-rule="evenodd" clip-rule="evenodd" d="M111.844 14.9681C96.7205 4.47674 76.7852 5.59276 65.0336 17.2625C58.732 23.5213 56.0742 30.5639 58.088 39.045C63.5987 26.7278 73.4746 18.6315 86.4883 19.0376C94.6541 19.6629 100.737 24.0049 102.807 30.4072C80.8369 25.4924 66.7063 36.7755 60.6452 46.9854C60.6194 47.054 61.7327 48.5201 62.2484 49.1792C69.6794 41.318 82.759 34.4562 98.8715 40.4826C105.458 43.0459 108.634 48.5112 109.334 50.3923C110.894 54.6106 110.291 58.5901 109.565 61.1589C95.9981 49.0955 77.9351 49.2139 68.5883 54.5224C68.3478 54.6569 121.241 77.4459 101.932 123.935C101.959 123.96 101.994 123.982 102.019 124C146.459 103.624 153.209 43.6623 111.844 14.9681Z" fill="#0075C2"/>
</svg>
