<svg width="128" height="128" viewBox="0 0 128 128" fill="none" xmlns="http://www.w3.org/2000/svg">
<path d="M104 72.327C103.834 71.9709 103.661 71.6175 103.483 71.267C103.435 71.1735 103.386 71.0795 103.334 70.982C103.187 70.6982 103.035 70.4175 102.877 70.14C102.847 70.0815 102.812 70.02 102.779 69.9615C102.596 69.6431 102.408 69.3277 102.214 69.0155C102.162 68.9338 102.109 68.8527 102.054 68.7725C101.903 68.5275 101.745 68.2866 101.58 68.05C101.532 67.975 101.48 67.901 101.431 67.8265C101.229 67.5405 101.024 67.2575 100.814 66.9775C100.766 66.916 100.72 66.8605 100.674 66.799C100.499 66.5755 100.32 66.349 100.142 66.1315L99.963 65.9145C99.7413 65.6546 99.5163 65.3976 99.288 65.1435C99.268 65.121 99.2485 65.1015 99.229 65.0785C99.018 64.8485 98.7975 64.625 98.583 64.408C98.521 64.3465 98.4595 64.288 98.401 64.2265C98.1366 63.9608 97.8648 63.7025 97.586 63.452C97.5535 63.423 97.5175 63.3935 97.4855 63.3645C97.2249 63.1324 96.9595 62.9057 96.6895 62.6845C96.6375 62.645 96.5955 62.6065 96.5465 62.5675C96.264 62.3375 95.975 62.1175 95.683 61.9L95.504 61.77C95.202 61.5565 94.9 61.3425 94.595 61.142C94.582 61.132 94.5655 61.122 94.5525 61.1125C94.2539 60.9181 93.9518 60.7291 93.6465 60.5455C93.5891 60.5141 93.5327 60.4807 93.4775 60.4455C93.1687 60.2664 92.857 60.0924 92.5425 59.9235C92.4875 59.891 92.4255 59.862 92.367 59.8325C92.0466 59.664 91.7229 59.502 91.396 59.3465C91.3925 59.3435 91.386 59.3435 91.383 59.337C91.0515 59.1814 90.7169 59.0324 90.3795 58.89L90.1945 58.812C89.8654 58.6747 89.534 58.5431 89.2005 58.417C89.1485 58.4005 89.0965 58.378 89.0415 58.355C88.7162 58.2368 88.3892 58.1235 88.0605 58.015C88.0345 58.005 88.0085 57.9955 87.9795 57.986C87.6354 57.8751 87.29 57.7681 86.9435 57.665C86.8785 57.649 86.8135 57.626 86.7485 57.61C86.4023 57.5122 86.0548 57.4194 85.706 57.3315C85.664 57.3215 85.625 57.3115 85.5795 57.302C85.2457 57.2163 84.91 57.1386 84.5725 57.069C84.5275 57.059 84.488 57.046 84.446 57.0365C84.0955 56.965 83.738 56.894 83.381 56.829C83.316 56.819 83.251 56.8065 83.186 56.7935C82.8255 56.732 82.468 56.6735 82.1045 56.6185L82.0365 56.6085C81.6851 56.5588 81.3333 56.5124 80.981 56.4695C80.929 56.463 80.8735 56.4565 80.825 56.4495C80.4664 56.4048 80.1068 56.3681 79.7465 56.3395C79.6842 56.3301 79.6214 56.3238 79.5585 56.3205C78.8904 56.2633 78.2213 56.2189 77.5515 56.1875C77.3985 59.4765 77.009 62.995 76.382 66.799C75.609 71.504 71.7705 75.2075 66.6035 76.2345C62.914 76.9735 59.368 77.437 56 77.6345V77.7185L56.01 77.8645C56.026 78.1915 56.042 78.516 56.0615 78.8395C56.068 78.908 56.0715 78.9725 56.078 79.0405C56.1005 79.3875 56.13 79.734 56.1655 80.0875C56.172 80.162 56.1785 80.2395 56.1885 80.324C56.224 80.677 56.2635 81.0365 56.3085 81.39C56.312 81.425 56.3185 81.461 56.3215 81.497C56.367 81.8335 56.4155 82.1675 56.4675 82.5045C56.5318 82.9237 56.6033 83.3418 56.682 83.7585C56.698 83.836 56.711 83.9105 56.727 83.985C56.799 84.345 56.8735 84.7015 56.955 85.061C56.9615 85.0805 56.965 85.1 56.971 85.1195C57.049 85.463 57.1335 85.8095 57.2275 86.153C57.2475 86.224 57.2635 86.2925 57.2795 86.3635C57.377 86.7035 57.4775 87.047 57.5845 87.3935C57.601 87.462 57.627 87.5335 57.6465 87.6015C57.76 87.9545 57.874 88.3045 57.9975 88.6515C58.0005 88.6575 58.0005 88.664 58.004 88.6675C58.127 89.0205 58.264 89.3705 58.4 89.7175C58.426 89.785 58.4585 89.8535 58.4845 89.9245C58.621 90.2585 58.767 90.592 58.9165 90.926C58.9425 90.9875 58.975 91.049 59.004 91.1105C59.1535 91.4375 59.3125 91.765 59.4815 92.092C59.4888 92.11 59.4975 92.1273 59.5075 92.144C59.6795 92.481 59.8645 92.8085 60.05 93.1355C60.089 93.2035 60.1245 93.2685 60.1635 93.333C60.3492 93.6563 60.5443 93.9741 60.7485 94.286C60.7805 94.3375 60.813 94.393 60.8485 94.4445C61.047 94.7495 61.2515 95.0505 61.469 95.3485C61.4915 95.3745 61.5045 95.4035 61.5275 95.433C61.7515 95.744 61.9885 96.0455 62.229 96.353C62.2775 96.4115 62.3265 96.473 62.375 96.5315C62.6185 96.8295 62.8655 97.1245 63.1285 97.419C63.1645 97.4615 63.2065 97.5035 63.2455 97.5455C63.4955 97.824 63.7555 98.093 64.0215 98.362C64.0575 98.3945 64.09 98.427 64.1225 98.4655C64.366 98.7055 64.616 98.942 64.8695 99.1755C64.931 99.2305 64.9895 99.2855 65.051 99.3405C65.262 99.5285 65.47 99.71 65.6845 99.8915C65.756 99.9495 65.8275 100.008 65.899 100.07C66.175 100.293 66.454 100.52 66.743 100.737C66.7595 100.747 66.7725 100.757 66.7855 100.77C67.0615 100.974 67.344 101.174 67.633 101.372C67.7175 101.434 67.7985 101.489 67.883 101.547C68.133 101.715 68.3895 101.884 68.6495 102.043C68.7145 102.088 68.776 102.131 68.8445 102.166C69.1625 102.37 69.4905 102.561 69.825 102.749C69.9 102.788 69.978 102.834 70.056 102.876C70.3255 103.025 70.601 103.171 70.884 103.313C70.9815 103.365 71.079 103.417 71.176 103.465C71.5335 103.644 71.897 103.815 72.2675 103.984L103.987 104L103.974 72.356L104 72.327ZM71.8635 48.317C71.86 48.2685 71.857 48.22 71.8505 48.1715C71.8145 47.8025 71.779 47.434 71.7335 47.065C71.7306 47.0282 71.7262 46.9915 71.7205 46.955C71.6715 46.58 71.6255 46.208 71.5705 45.8325C71.5675 45.8295 71.5675 45.8225 71.5675 45.8225C71.5119 45.4498 71.4511 45.078 71.385 44.707C71.3755 44.6585 71.3655 44.607 71.356 44.552C71.291 44.1895 71.216 43.8235 71.141 43.458C71.1343 43.4334 71.1279 43.4088 71.122 43.384C71.0457 43.0246 70.9632 42.6666 70.8745 42.31C70.868 42.284 70.8585 42.258 70.855 42.232C70.7635 41.8748 70.6669 41.519 70.5655 41.1645C70.5525 41.113 70.533 41.058 70.52 41.0095C70.416 40.6505 70.305 40.2945 70.188 39.9385C70.185 39.9285 70.1815 39.919 70.175 39.9095C70.0605 39.5613 69.9402 39.2151 69.814 38.871C69.7945 38.832 69.7815 38.79 69.7655 38.748C69.6165 38.3566 69.4593 37.9683 69.294 37.5835C69.0003 36.9006 68.6801 36.2294 68.334 35.5715C68.305 35.5165 68.279 35.468 68.256 35.4195C68.0805 35.0995 67.9015 34.782 67.7195 34.4715C67.687 34.423 67.661 34.3745 67.6315 34.326C67.4407 34.0092 67.2434 33.6965 67.0395 33.388L67.0295 33.368C66.8231 33.0574 66.6085 32.7523 66.386 32.453C66.348 32.3965 66.3078 32.3414 66.2655 32.288C66.0477 31.9929 65.8231 31.7028 65.592 31.418L65.485 31.288C65.26 31.013 65.0295 30.748 64.789 30.483C64.763 30.4535 64.7365 30.4215 64.7075 30.389C64.457 30.114 64.197 29.8425 63.9335 29.577C63.8685 29.5155 63.8095 29.451 63.748 29.3925C63.5286 29.1761 63.3052 28.9637 63.078 28.7555C63.0534 28.7337 63.0295 28.711 63.0065 28.6875C62.759 28.461 62.499 28.2375 62.2385 28.021C62.1635 27.9595 62.086 27.898 62.011 27.8335C61.796 27.662 61.5785 27.4875 61.354 27.316C61.292 27.2675 61.227 27.222 61.1655 27.17C60.8871 26.9601 60.604 26.7564 60.3165 26.559C60.2415 26.507 60.16 26.459 60.082 26.404C59.8491 26.2433 59.6128 26.0877 59.373 25.9375C59.288 25.8795 59.204 25.8275 59.1195 25.776C58.8082 25.5831 58.4936 25.3954 58.176 25.213C58.1145 25.181 58.049 25.145 57.991 25.116C57.7135 24.9576 57.4324 24.8056 57.148 24.66C57.0505 24.608 56.9565 24.563 56.8585 24.5145C56.5093 24.3346 56.1559 24.163 55.7985 24L55.769 24.026L24 24.0095L24.0165 55.6055C24.1855 55.9775 24.3615 56.3365 24.5365 56.689C24.5885 56.789 24.641 56.8865 24.693 56.9835C24.8741 57.3397 25.0638 57.6915 25.262 58.0385C25.447 58.3715 25.6425 58.6985 25.841 59.0185C25.88 59.083 25.9225 59.1445 25.9645 59.209C26.1266 59.4667 26.2936 59.7212 26.4655 59.9725C26.524 60.0565 26.5795 60.1375 26.638 60.2185C26.8365 60.5095 27.038 60.791 27.246 61.063C27.259 61.0755 27.269 61.095 27.2785 61.108C27.4949 61.3928 27.7183 61.6722 27.9485 61.946C28.0075 62.0205 28.069 62.0915 28.1275 62.1625C28.31 62.3795 28.495 62.5865 28.6805 62.7935C28.7355 62.8515 28.788 62.9135 28.8435 62.9745C29.076 63.228 29.3144 63.4761 29.5585 63.7185C29.5915 63.751 29.627 63.7835 29.663 63.8185C29.9291 64.0839 30.2026 64.3418 30.483 64.592C30.528 64.631 30.5705 64.6695 30.6095 64.7085C30.9003 64.9658 31.1972 65.216 31.5 65.459C31.559 65.5075 31.6175 65.556 31.679 65.6045C31.985 65.844 32.2905 66.08 32.603 66.3065C32.632 66.323 32.658 66.3455 32.6905 66.365C32.9865 66.575 33.289 66.782 33.595 66.9795C33.647 67.012 33.699 67.0505 33.751 67.083C34.0665 67.2835 34.3885 67.4745 34.711 67.662C34.776 67.701 34.841 67.7365 34.9025 67.7755C35.2323 67.9631 35.5664 68.1431 35.9045 68.3155C35.9205 68.3285 35.94 68.3315 35.9565 68.3415C36.285 68.5095 36.61 68.668 36.9415 68.8165L37.1275 68.9045C37.4625 69.053 37.7975 69.1985 38.1325 69.338C38.204 69.3635 38.269 69.3895 38.3375 69.4155C38.6855 69.5545 39.04 69.687 39.391 69.8165H39.4075C39.7554 69.9432 40.1069 70.0597 40.4615 70.166C40.533 70.192 40.6045 70.2145 40.6695 70.234C41.0175 70.3375 41.3625 70.4375 41.707 70.5315C41.7785 70.554 41.8505 70.567 41.9185 70.5865C42.2665 70.677 42.6085 70.7645 42.956 70.842C42.9738 70.8491 42.9925 70.8534 43.0115 70.855C43.4466 70.9553 43.8837 71.047 44.3225 71.13C44.6705 71.195 45.0215 71.256 45.3695 71.311C45.4415 71.321 45.5095 71.337 45.581 71.3435C45.916 71.395 46.251 71.4435 46.5895 71.486C46.625 71.4955 46.661 71.4985 46.697 71.502C47.0539 71.5492 47.4116 71.5902 47.77 71.625C47.848 71.6315 47.93 71.638 48.011 71.6475C48.3587 71.6797 48.7067 71.7089 49.055 71.735C49.1235 71.738 49.1915 71.7415 49.2565 71.748C49.5815 71.767 49.9105 71.783 50.2355 71.7995L50.382 71.8095C50.4115 71.8095 50.4405 71.8095 50.467 71.8125C50.6685 68.4515 51.1335 64.9255 51.872 61.244C52.903 56.1005 56.624 52.28 61.3435 51.5035C65.1625 50.8825 68.695 50.4975 71.9995 50.342C71.9718 49.6659 71.9263 48.9907 71.863 48.317" fill="#EA5C03"/>
<path d="M71.124 56.2165C71.0915 56.2165 71.056 56.2195 71.0205 56.223C70.6715 56.242 70.3225 56.271 69.9765 56.2905C69.9055 56.297 69.838 56.3035 69.77 56.3065L68.7425 56.3935C68.7005 56.397 68.655 56.4065 68.61 56.4095C68.29 56.4385 67.97 56.4675 67.6565 56.4995C67.6045 56.5095 67.553 56.5125 67.498 56.5195C67.165 56.5545 66.8355 56.593 66.506 56.632C66.438 56.6415 66.367 56.648 66.296 56.6575C65.966 56.696 65.6365 56.738 65.3135 56.78C65.281 56.783 65.2555 56.79 65.2295 56.793C64.916 56.8315 64.606 56.8765 64.299 56.918L64.118 56.9475C63.801 56.9925 63.491 57.0375 63.1805 57.089C63.116 57.0955 63.048 57.105 62.987 57.115C62.67 57.163 62.3535 57.218 62.04 57.266C59.461 57.688 57.787 59.932 57.2735 62.485C57.2215 62.749 57.17 63.02 57.1215 63.29C57.1085 63.3415 57.102 63.393 57.089 63.448C57.0264 63.7704 56.9672 64.0934 56.9115 64.417C56.8665 64.6905 56.8175 64.9675 56.7725 65.2475C56.7659 65.2663 56.7616 65.2857 56.7595 65.3055C56.7145 65.5955 56.669 65.8885 56.6205 66.188C56.6105 66.249 56.6045 66.313 56.5945 66.3745C56.5495 66.6675 56.5075 66.967 56.4655 67.2695C56.4555 67.321 56.449 67.3795 56.4425 67.434C56.404 67.724 56.3685 68.0165 56.3295 68.3125C56.3265 68.348 56.323 68.3805 56.3165 68.416C56.278 68.725 56.2455 69.0435 56.2135 69.359C56.2035 69.43 56.197 69.501 56.1905 69.5715C56.1585 69.8905 56.1295 70.206 56.1005 70.5245C56.0935 70.586 56.0905 70.644 56.084 70.7045C56.058 71.0045 56.0355 71.307 56.013 71.613C56.0095 71.658 56.0095 71.7065 56.003 71.758C56.003 71.774 56.003 71.793 56 71.8125C56.0225 71.8125 56.039 71.8095 56.058 71.8095L56.2035 71.7995C56.5105 71.777 56.8175 71.7545 57.1215 71.729C57.1765 71.7255 57.2345 71.719 57.2925 71.716C57.6115 71.6878 57.9303 71.6577 58.249 71.626C58.3205 71.6195 58.3915 71.6095 58.4655 71.603C58.7855 71.571 59.099 71.5355 59.4125 71.5C59.448 71.494 59.4805 71.4905 59.519 71.484C59.8135 71.449 60.104 71.4135 60.395 71.3745C60.453 71.368 60.508 71.3585 60.5665 71.349C60.87 71.307 61.164 71.265 61.458 71.2265C61.523 71.2135 61.584 71.204 61.649 71.1945C61.9644 71.1506 62.2789 71.1011 62.5925 71.046C62.8735 71.001 63.1515 70.953 63.4265 70.9045C63.478 70.898 63.5295 70.8885 63.5845 70.879C63.8595 70.8305 64.131 70.779 64.399 70.7305C64.4512 70.7177 64.5041 70.708 64.5575 70.7015C64.832 70.647 65.1 70.5985 65.362 70.5405C67.928 70.0355 70.1805 68.361 70.6005 65.795C70.652 65.486 70.704 65.167 70.7525 64.8515C70.7625 64.7905 70.775 64.7265 70.7845 64.6615C70.8295 64.3525 70.8785 64.04 70.9235 63.7245C70.9335 63.667 70.94 63.6055 70.9495 63.5475C70.9915 63.242 71.0365 62.9295 71.0785 62.6175L71.0885 62.54C71.1305 62.2115 71.1755 61.883 71.2145 61.5515C71.2245 61.484 71.2305 61.4165 71.2405 61.3485C71.2858 60.9678 71.3288 60.5868 71.3695 60.2055C71.402 59.887 71.4375 59.5615 71.4635 59.2335C71.47 59.198 71.473 59.1625 71.476 59.127C71.5085 58.7825 71.5345 58.435 71.5635 58.0905C71.57 58.0255 71.5765 57.965 71.5795 57.897C71.6025 57.5495 71.628 57.1955 71.6505 56.841C71.654 56.8155 71.654 56.7895 71.657 56.767C71.6635 56.574 71.6735 56.3805 71.6865 56.1875C71.499 56.2005 71.308 56.2035 71.124 56.2165ZM50.565 80.469C50.467 79.4569 50.3996 78.4421 50.363 77.426C49.3428 77.3901 48.3239 77.3221 47.308 77.222C38.3115 76.349 30.975 73.137 25.488 67.6745C25.413 67.5965 25.338 67.5155 25.26 67.4375L24 68.693V104H59.1285L60.392 102.432C60.3085 102.36 60.2281 102.284 60.151 102.205C54.6675 96.745 51.444 89.433 50.5645 80.469H50.565ZM68.9 24L67.608 25.29L67.7445 25.4165C73.0315 30.6865 76.2335 37.7255 77.2645 46.3465C77.4175 47.6295 77.5215 48.952 77.5805 50.3165C78.9505 50.375 80.2805 50.4785 81.5695 50.6275C90.221 51.658 97.2875 54.8475 102.575 60.114C102.62 60.156 102.663 60.2045 102.709 60.25L104 58.9665V24H68.9Z" fill="#D10F22"/>
</svg>
