<svg width="128" height="128" viewBox="0 0 128 128" fill="none" xmlns="http://www.w3.org/2000/svg">
<path d="M82.25 88H42C41.15 88 40 87.35 40 85.9V81.95C40 81 40.85 80 42 80H76.1C77.55 80 78.7 78.75 78.7 77.35V64.55C78.7 62.85 77.4 61.8 76 61.8C74.95 61.8 59.7 61.85 56.2 61.85C54.7 61.85 54.1 60.7 54.1 59.85V55C54.1 53.65 55.3 53 56.05 53H82.5C84.85 53 87.1 55 87.1 57.6V83.15C87 86.55 84.35 88 82.25 88ZM44.75 40.5H85C85.85 40.5 87 41.15 87 42.6V46.55C87 47.5 86.15 48.5 85 48.5H50.9C49.45 48.5 48.3 49.75 48.3 51.15V63.95C48.3 65.65 49.6 66.7 51 66.7C52.05 66.7 67.3 66.65 70.8 66.65C72.3 66.65 72.9 67.8 72.9 68.65V73.45C72.9 74.8 71.75 75.45 70.95 75.45H44.6C42.25 75.45 40 73.45 40 70.85V45.35C40 41.95 42.65 40.5 44.75 40.5ZM64 21.5C87.45 21.5 106.5 40.55 106.5 64C106.5 87.45 87.45 106.5 64 106.5C40.55 106.5 21.5 87.45 21.5 64C21.5 40.55 40.55 21.5 64 21.5ZM64 98.5C83.05 98.5 98.45 83.05 98.45 64C98.45 44.95 83 29.55 64 29.55C44.95 29.55 29.55 45 29.55 64C29.55 83.05 44.95 98.5 64 98.5Z" fill="#C00415"/>
</svg>
