<svg width="524" height="128" viewBox="0 0 524 128" fill="none" xmlns="http://www.w3.org/2000/svg">
<path d="M77.0663 88.3828H35.2806C34.3596 88.3828 33.1962 87.7527 33.1962 86.2015V82.1295C33.1962 81.1115 34.0688 80.142 35.2806 80.142H70.6676C72.1703 80.142 73.3337 78.8817 73.3337 77.379V64.1937C73.3337 62.4486 71.9764 61.3821 70.5222 61.3821C69.4072 61.3821 53.6043 61.4306 49.9686 61.4306C48.369 61.4306 47.7873 60.2187 47.7873 59.3462V54.4017C47.7873 52.9959 48.9991 52.3172 49.8232 52.3172H77.2602C79.684 52.3172 82.0108 54.4017 82.0108 57.0678V83.3899C82.0108 86.8801 79.2477 88.3828 77.0663 88.3828V88.3828ZM38.1892 39.2774H79.9748C80.8474 39.2774 82.0108 39.9076 82.0108 41.4588V45.5307C82.0108 46.5487 81.1382 47.5182 79.9748 47.5182H44.5879C43.0852 47.5182 41.9218 48.7785 41.9218 50.2813V63.4666C41.9218 65.2117 43.2306 66.2781 44.7333 66.2781C45.8483 66.2781 61.6512 66.2296 65.2868 66.2296C66.8865 66.2296 67.4682 67.393 67.4682 68.3141V73.2586C67.4682 74.6159 66.2563 75.343 65.4323 75.343H37.9953C35.5715 75.343 33.2447 73.2586 33.2447 70.5924V44.2703C33.2447 40.7801 36.0078 39.2774 38.1892 39.2774V39.2774ZM57.9671 20.0327C82.2532 20.0327 101.934 39.6652 101.934 63.8059C101.934 87.995 82.2532 107.628 57.9671 107.628C33.681 107.628 14 87.995 14 63.8059C14 39.6652 33.681 20.0327 57.9671 20.0327ZM57.9671 99.3867C77.648 99.3867 93.6449 83.4869 93.6449 63.8544C93.6449 44.2219 77.6965 28.322 57.9671 28.322C38.2861 28.322 22.2893 44.2219 22.2893 63.8544C22.2893 83.4384 38.2861 99.3867 57.9671 99.3867V99.3867Z" fill="#C00415"/>
<path d="M142.073 99.7251V100.307H133.251V99.7251C134.22 99.6281 134.802 99.4827 135.093 99.2888C135.432 99.0464 135.577 98.6101 135.577 97.98V92.4053H129.324V97.98C129.324 98.6101 129.469 98.9979 129.809 99.2888C130.1 99.5312 130.681 99.6766 131.651 99.7251V100.307H122.877V99.7251C123.798 99.6281 124.38 99.4827 124.622 99.2403C124.961 98.998 125.107 98.5617 125.107 97.98V86.2005C125.107 85.5703 124.913 85.134 124.622 84.8916C124.38 84.6493 123.798 84.5039 122.925 84.4554V83.8252H131.699V84.4554C130.778 84.4554 130.197 84.6008 129.906 84.8916C129.566 85.134 129.373 85.5703 129.373 86.2005V91.2419H135.626V86.2005C135.626 85.5703 135.432 85.134 135.093 84.8916C134.802 84.6493 134.172 84.5039 133.299 84.4554V83.8252H142.17V84.4554C140.57 84.4069 139.843 84.9886 139.892 86.2005V97.98C139.892 98.6101 140.037 98.998 140.376 99.2403C140.522 99.4827 141.104 99.6281 142.073 99.7251V99.7251ZM159.96 83.8252V84.4554C159.136 84.5523 158.603 84.7462 158.361 84.9886C158.07 85.2795 157.924 85.7642 157.973 86.4913V94.2474C157.924 96.3803 157.44 97.98 156.567 98.901C155.452 99.9675 153.756 100.598 151.526 100.646C149.296 100.646 147.551 100.161 146.339 99.1434C145.66 98.6102 145.175 98.0285 144.982 97.4467C144.691 96.8166 144.594 95.8955 144.594 94.7806V86.6852C144.594 85.8127 144.448 85.231 144.157 84.9401C143.964 84.6978 143.382 84.5039 142.461 84.4554V83.8252H151.089V84.4554C150.023 84.4554 149.344 84.6008 149.102 84.8916C148.763 85.1825 148.569 85.7642 148.617 86.6852V94.7806C148.52 97.9315 149.781 99.5312 152.301 99.5312C155.404 99.5312 156.906 97.7861 156.858 94.2474V86.8307C156.858 85.9581 156.713 85.3279 156.373 85.0371C156.034 84.6977 155.355 84.5039 154.386 84.4554V83.8252H159.96ZM163.887 94.5867H168.928L166.311 88.6727L163.887 94.5867ZM176.781 99.7251V100.307H168.395V99.7251C169.365 99.6766 169.946 99.5797 170.092 99.4827C170.334 99.3858 170.48 99.1434 170.48 98.7556C170.48 98.3193 170.092 97.3498 169.413 95.7016C169.365 95.6047 169.316 95.5562 169.316 95.5077H163.499C162.723 97.3983 162.336 98.4647 162.384 98.6586C162.336 99.3373 163.063 99.6766 164.469 99.7251V100.307H159.233V99.7251C160.251 99.7736 161.075 98.804 161.754 96.865L167.474 83.4859H168.201L173.921 96.3318C174.6 97.883 175.133 98.804 175.424 99.0949C175.763 99.5312 176.248 99.7251 176.781 99.7251V99.7251ZM183.956 85.6673V91.8721C185.846 91.8721 187.107 91.6297 187.688 91.145C188.367 90.6117 188.706 89.6422 188.706 88.188C188.755 85.8127 187.688 84.6493 185.555 84.6493C184.925 84.6493 184.489 84.6978 184.295 84.8432C184.101 84.9401 184.004 85.231 183.956 85.6673ZM195.347 99.7251V100.307H190.015L184.634 92.6962H183.956V97.4952C183.956 98.3678 184.101 98.9495 184.392 99.1918C184.586 99.4342 185.216 99.6281 186.234 99.7251V100.307H177.46V99.7251C178.478 99.6281 179.108 99.4827 179.302 99.2403C179.593 98.998 179.738 98.4162 179.738 97.4952V86.6852C179.738 85.8127 179.593 85.1825 179.254 84.9401C179.011 84.6493 178.429 84.5039 177.46 84.4554V83.8252H185.798C190.645 83.8737 193.069 85.2795 193.117 88.091C193.166 90.1755 191.809 91.5812 189.046 92.3084L194.232 99.2403C194.523 99.5797 194.863 99.7251 195.347 99.7251V99.7251ZM204.606 84.2615C201.601 84.3584 200.049 86.9276 199.953 92.066C199.953 97.2528 201.504 99.8705 204.606 99.919C207.709 99.8705 209.211 97.2528 209.211 92.066C209.163 86.9761 207.612 84.3584 204.606 84.2615ZM204.606 83.4859C210.423 83.8737 213.477 86.7822 213.865 92.066C213.477 97.4467 210.423 100.307 204.606 100.646C198.789 100.307 195.687 97.4467 195.299 92.066C195.687 86.7337 198.789 83.8737 204.606 83.4859ZM214.931 100.258V99.6766C215.852 99.5796 216.483 99.4342 216.725 99.1918C217.064 98.9495 217.21 98.4647 217.21 97.7376V86.2005C216.143 84.9401 215.416 84.3584 215.028 84.4554V83.8252H220.458L229.329 94.1989H229.377V86.8307C229.377 85.9581 229.232 85.3764 228.892 85.0371C228.553 84.6977 227.923 84.4554 227.002 84.4069V83.7767H232.479V84.4069C231.655 84.5038 231.122 84.6493 230.831 84.9401C230.54 85.1825 230.443 85.6673 230.443 86.3459V100.598H229.716L218.325 87.4608H218.276V97.2044C218.276 98.0769 218.422 98.6586 218.761 98.998C219.052 99.3373 219.73 99.5312 220.7 99.6281V100.21H214.931V100.258ZM252.015 93.2779V93.8596C250.997 93.908 250.415 94.1019 250.221 94.3443C249.93 94.5867 249.785 95.1684 249.785 96.0894V99.1434C248.137 100.016 245.762 100.501 242.659 100.598C236.697 100.355 233.546 97.5437 233.11 92.1629C233.546 86.6852 236.648 83.7767 242.417 83.4374C244.017 83.5343 245.277 83.8252 246.295 84.2615C246.925 84.5039 247.313 84.6008 247.507 84.6008C247.991 84.6493 248.428 84.2615 248.719 83.4859H249.397V89.1575H248.767C247.167 85.9581 245.131 84.31 242.611 84.213C239.363 84.213 237.763 86.8307 237.763 92.066C237.812 97.2044 239.557 99.7735 242.902 99.822C244.841 99.8705 245.762 99.2403 245.665 98.0285V95.5077C245.665 94.8291 245.471 94.3928 245.131 94.1504C244.889 93.9565 244.162 93.8111 242.999 93.7626V93.1809H252.015V93.2779ZM281.294 83.8252V84.4554C279.937 83.8252 277.658 85.9096 274.411 90.7087L279.064 97.6406C279.646 98.4647 280.082 99.0464 280.421 99.3373C280.712 99.6281 281.1 99.7251 281.536 99.7251V100.307H272.811V99.7251C273.683 99.6766 274.217 99.6281 274.459 99.5312C274.75 99.4342 274.895 99.2403 274.895 98.9495C274.847 98.6101 274.701 98.1739 274.362 97.6891L271.744 93.7141L270.775 94.9745C268.981 97.2044 268.206 98.4647 268.351 98.7071C268.303 99.3373 269.03 99.6766 270.436 99.7251V100.307H264.037V99.7251C265.2 99.6281 266.073 99.1918 266.703 98.3678L271.211 92.9386L266.121 85.8612C265.491 84.8916 264.812 84.4069 264.085 84.4554V83.8252H272.956V84.4554C271.987 84.5039 271.454 84.5523 271.308 84.6493C271.066 84.7462 270.92 84.9401 270.92 85.2794C270.872 85.5218 271.017 85.8127 271.308 86.2005L273.78 89.8361C276.253 86.7337 277.222 85.231 276.689 85.3279C276.689 85.0371 276.543 84.7947 276.301 84.6978C276.107 84.6008 275.622 84.5523 274.847 84.5039V83.8737H281.294V83.8252ZM291.522 99.7251V100.307H282.264V99.7251C283.233 99.6766 283.912 99.5312 284.203 99.2888C284.542 99.0464 284.736 98.6101 284.736 97.98V86.2005C284.736 85.5703 284.542 85.134 284.154 84.8916C283.863 84.6493 283.233 84.5039 282.264 84.4554V83.8252H291.522V84.4554C290.553 84.4554 289.923 84.6008 289.583 84.8432C289.195 85.0856 289.002 85.5703 289.002 86.2005V97.98C289.002 98.6101 289.195 99.0464 289.535 99.2888C289.826 99.5312 290.504 99.6766 291.522 99.7251V99.7251ZM297.194 94.5867H302.235L299.618 88.6727L297.194 94.5867ZM310.088 99.7251V100.307H301.751V99.7251C302.72 99.6766 303.253 99.5797 303.447 99.4827C303.69 99.3858 303.835 99.1434 303.835 98.7556C303.835 98.3193 303.447 97.3498 302.72 95.7016C302.672 95.6047 302.672 95.5562 302.623 95.5077H296.806C295.982 97.3983 295.643 98.4647 295.691 98.6586C295.691 99.3373 296.37 99.6766 297.824 99.7251V100.307H292.589V99.7251C293.607 99.7736 294.431 98.804 295.109 96.865L300.83 83.4859H301.557L307.277 96.3318C307.955 97.883 308.44 98.804 308.731 99.0949C309.07 99.5312 309.507 99.7251 310.088 99.7251V99.7251ZM310.428 100.258V99.6766C311.349 99.5796 311.979 99.4342 312.221 99.1918C312.561 98.9495 312.706 98.4647 312.706 97.7376V86.2005C311.64 84.9401 310.912 84.3584 310.525 84.4554V83.8252H315.905L324.728 94.1989H324.776V86.8307C324.776 85.9581 324.631 85.3764 324.292 85.0371C323.952 84.6977 323.322 84.4554 322.401 84.4069V83.7767H327.879V84.4069C327.055 84.5038 326.521 84.6493 326.231 84.9401C325.94 85.1825 325.843 85.6673 325.843 86.3459V100.598H325.213L313.821 87.4608H313.772V97.2044C313.772 98.0769 313.918 98.6586 314.257 98.998C314.548 99.3373 315.227 99.5312 316.196 99.6281V100.21H310.428V100.258ZM347.172 93.2779V93.8596C346.154 93.908 345.572 94.1019 345.33 94.3443C345.039 94.5867 344.894 95.1684 344.894 96.0894V99.1434C343.245 100.016 340.87 100.501 337.768 100.598C331.805 100.355 328.654 97.5437 328.267 92.1629C328.703 86.6852 331.805 83.7767 337.574 83.4374C339.125 83.5343 340.434 83.8252 341.452 84.2615C342.082 84.5039 342.47 84.6008 342.615 84.6008C343.1 84.6493 343.536 84.2615 343.827 83.4859H344.506V89.1575H343.876C342.276 85.9581 340.24 84.31 337.719 84.213C334.52 84.213 332.872 86.8307 332.872 92.066C332.92 97.2044 334.617 99.7735 337.962 99.822C339.901 99.8705 340.822 99.2403 340.725 98.0285V95.5077C340.725 94.8291 340.531 94.3928 340.191 94.1504C339.949 93.9565 339.222 93.8111 338.059 93.7626V93.1809H347.172V93.2779ZM359.533 83.8252V84.4554C358.515 84.4554 357.933 84.6493 357.691 84.9401C357.352 85.231 357.206 85.8127 357.206 86.7337V97.4467C357.206 100.985 355.316 102.731 351.535 102.779C348.965 102.731 347.511 101.713 347.123 99.7251C347.172 98.5617 347.802 97.9315 348.917 97.8345C350.129 97.98 350.759 98.6101 350.808 99.6766C350.808 100.016 350.662 100.307 350.42 100.549C350.226 100.792 350.08 100.985 350.08 101.179C350.129 101.664 350.517 101.906 351.244 101.955C352.407 101.955 352.989 101.276 352.94 99.8705V86.2489C352.94 85.5703 352.747 85.134 352.359 84.8432C352.068 84.6008 351.389 84.5039 350.323 84.5039V83.8737H359.533V83.8252ZM370.198 99.7251V100.307H360.939V99.7251C361.957 99.6766 362.587 99.5312 362.878 99.2888C363.217 99.0464 363.411 98.6101 363.411 97.98V86.2005C363.411 85.5703 363.217 85.134 362.829 84.8916C362.539 84.6493 361.908 84.5039 360.939 84.4554V83.8252H370.198V84.4554C369.228 84.4554 368.598 84.6008 368.259 84.8432C367.871 85.0856 367.677 85.5703 367.677 86.2005V97.98C367.677 98.6101 367.871 99.0464 368.21 99.2888C368.501 99.5312 369.18 99.6766 370.198 99.7251V99.7251ZM375.142 94.5867H380.184L377.566 88.6727L375.142 94.5867ZM388.037 99.7251V100.307H379.699V99.7251C380.668 99.6766 381.25 99.5797 381.395 99.4827C381.638 99.3858 381.783 99.1434 381.735 98.7556C381.735 98.3193 381.395 97.3498 380.62 95.7016C380.571 95.6047 380.571 95.5562 380.523 95.5077H374.754C373.93 97.3983 373.591 98.4647 373.591 98.6586C373.591 99.3373 374.27 99.6766 375.724 99.7251V100.307H370.489V99.7251C371.507 99.7736 372.331 98.804 373.009 96.865L378.729 83.4859H379.456L385.225 96.3318C385.904 97.883 386.388 98.804 386.728 99.0949C387.019 99.5312 387.503 99.7251 388.037 99.7251V99.7251ZM388.715 100.258V99.6766C389.636 99.5796 390.266 99.4342 390.509 99.1918C390.8 98.9495 390.994 98.4647 390.994 97.7376V86.2005C389.927 84.9401 389.2 84.3584 388.812 84.4554V83.8252H394.193L403.064 94.1989H403.112V86.8307C403.112 85.9581 402.967 85.3764 402.628 85.0371C402.288 84.6977 401.658 84.4554 400.737 84.4069V83.7767H406.263V84.4069C405.439 84.5038 404.906 84.6493 404.615 84.9401C404.324 85.1825 404.227 85.6673 404.227 86.3459V100.598H403.549L392.157 87.4608H392.108V97.2044C392.108 98.0769 392.254 98.6586 392.593 98.998C392.884 99.3373 393.563 99.5312 394.532 99.6281V100.21H388.715V100.258ZM426.526 93.2779V93.8596C425.508 93.908 424.878 94.1019 424.684 94.3443C424.393 94.5867 424.248 95.1684 424.248 96.0894V99.1434C422.599 100.016 420.224 100.501 417.122 100.598C411.159 100.355 408.008 97.5437 407.621 92.1629C408.057 86.6852 411.159 83.7767 416.928 83.4374C418.479 83.5343 419.836 83.8252 420.854 84.2615C421.484 84.5039 421.872 84.6008 422.018 84.6008C422.502 84.6493 422.89 84.2615 423.23 83.4859H423.908V89.1575H423.278C421.727 85.9581 419.642 84.31 417.17 84.213C413.922 84.213 412.323 86.8307 412.323 92.066C412.371 97.2044 414.068 99.7735 417.413 99.822C419.352 99.8705 420.273 99.2403 420.176 98.0285V95.5077C420.176 94.8291 419.982 94.3928 419.642 94.1504C419.4 93.9565 418.673 93.8111 417.51 93.7626V93.1809H426.526V93.2779ZM442.523 91.9206V98.0285C442.474 99.0464 443.008 99.5797 444.074 99.5312C446.207 99.5312 447.225 98.3193 447.225 95.8471C447.225 93.2779 445.965 91.9206 443.347 91.9206H442.523V91.9206ZM442.523 85.7642V91.2419C444.122 91.2419 445.189 90.9995 445.722 90.4663C446.255 90.03 446.546 89.109 446.498 87.7032C446.498 85.6188 445.625 84.5523 443.832 84.5523C442.911 84.5523 442.426 84.9401 442.523 85.7642V85.7642ZM436.124 100.307V99.7251C437.045 99.6281 437.675 99.4827 437.918 99.2888C438.257 99.0464 438.402 98.6101 438.402 97.98V86.2005C438.402 85.5703 438.208 85.134 437.869 84.8432C437.578 84.6008 436.997 84.4554 436.124 84.4554V83.8252H444.025C448.437 83.8737 450.667 85.1825 450.715 87.7517C450.715 89.4968 449.503 90.7087 446.983 91.3388C446.837 91.3873 446.789 91.4358 446.692 91.4358V91.4843C449.843 92.066 451.442 93.5202 451.539 95.7986C451.297 98.6586 448.922 100.161 444.365 100.307H436.124V100.307ZM456.241 94.5867H461.283L458.665 88.6727L456.241 94.5867ZM469.136 99.7251V100.307H460.749V99.7251C461.719 99.6766 462.301 99.5797 462.446 99.4827C462.688 99.3858 462.785 99.1434 462.785 98.7556C462.785 98.3193 462.446 97.3498 461.671 95.7016C461.622 95.6047 461.622 95.5562 461.574 95.5077H455.805C454.981 97.3983 454.593 98.4647 454.69 98.6586C454.642 99.3373 455.369 99.6766 456.823 99.7251V100.307H451.588V99.7251C452.606 99.7736 453.43 98.804 454.108 96.865L459.828 83.4859H460.556L466.276 96.3318C466.954 97.883 467.439 98.804 467.778 99.0949C468.118 99.5312 468.554 99.7251 469.136 99.7251V99.7251ZM470.154 100.258V99.6766C471.075 99.5796 471.705 99.4342 471.947 99.1918C472.238 98.9495 472.432 98.4647 472.432 97.7376V86.2005C471.366 84.9401 470.638 84.3584 470.251 84.4554V83.8252H475.68L484.551 94.1989H484.599V86.8307C484.599 85.9581 484.454 85.3764 484.115 85.0371C483.775 84.6977 483.145 84.4554 482.224 84.4069V83.7767H487.702V84.4069C486.878 84.5038 486.344 84.6493 486.102 84.9401C485.86 85.1825 485.714 85.6673 485.714 86.3459V100.598H484.987L473.595 87.4608H473.547V97.2044C473.547 98.0769 473.692 98.6586 474.032 98.998C474.323 99.3373 474.953 99.5312 475.971 99.6281V100.21H470.154V100.258ZM507.916 99.7251V100.307H499.19V99.7251C500.063 99.6766 500.596 99.6766 500.839 99.5796C501.129 99.5312 501.275 99.3857 501.226 99.1918C501.275 98.9495 501.032 98.6101 500.596 98.1254L495.846 92.5992L495.118 93.1809V97.98C495.118 98.6101 495.264 98.998 495.603 99.2403C495.846 99.4827 496.427 99.6281 497.397 99.7251V100.307H488.623V99.7251C489.592 99.6281 490.174 99.4827 490.416 99.2888C490.756 99.0464 490.901 98.6101 490.901 97.98V86.2005C490.901 85.5703 490.756 85.134 490.368 84.8432C490.125 84.6008 489.544 84.4554 488.623 84.4554V83.8252H497.397V84.4554C496.427 84.4554 495.797 84.6493 495.603 84.9401C495.264 85.231 495.118 85.8127 495.118 86.6852V91.9206L500.742 86.5883C501.178 86.2005 501.42 85.9096 501.517 85.8127C501.614 85.6673 501.711 85.4733 501.711 85.2794C501.711 84.9886 501.614 84.7947 501.323 84.6978C501.081 84.6008 500.451 84.5039 499.53 84.4554V83.8252H507.043V84.4554C505.347 84.0676 502.584 85.9096 498.657 89.9815L506.607 99.1918C506.946 99.5312 507.383 99.7251 507.916 99.7251V99.7251ZM210.617 67.9738C209.793 69.4765 208.63 70.9308 207.66 71.2216L207.466 71.2701L207.321 71.2216C206.4 70.9308 205.624 70.2521 205.236 69.3796C204.994 68.7979 204.752 67.8284 205.188 66.6165C205.188 66.471 205.236 66.3256 205.382 66.0833C205.527 65.8409 205.624 65.7924 205.915 65.6955C206.109 65.5985 206.594 65.4046 206.691 65.3077C206.739 65.2107 206.788 65.1622 206.836 65.0653C206.594 65.2107 206.303 65.3076 206.012 65.4046C205.527 65.55 202.328 65.7439 202.328 65.7439C202.182 65.7439 201.843 65.8409 201.601 65.9378C201.649 66.2772 201.649 66.3256 201.649 66.4226V67.5375C201.407 70.9308 200.486 72.5789 198.498 73.4515L198.401 73.5H198.304C196.705 73.5 196.414 70.9308 196.365 68.7009V68.0223C196.365 67.9253 196.317 67.6829 196.317 67.0528C196.268 66.4711 196.268 66.0833 196.22 65.7924C195.687 65.8894 193.311 66.0348 192.439 66.2772C192.1 66.3256 191.906 66.3256 191.663 66.3256C190.645 66.3256 189.87 65.9863 189.336 65.4046V66.0833C189.433 67.489 189.191 68.507 188.609 69.1857C187.979 69.8159 187.107 70.1552 185.846 70.1552C185.071 70.1067 184.198 69.7189 183.762 68.2646C183.471 67.2467 183.665 65.9378 183.81 64.5805C183.907 63.5626 184.004 62.5446 184.004 61.4781C184.004 60.2178 184.101 59.6361 184.198 59.1513C184.343 58.3757 184.489 57.7455 184.053 54.8855C183.471 53.5766 183.568 52.1224 184.247 50.7651V50.7166L184.295 50.6197C184.489 50.3288 184.78 50.1834 185.022 50.0379C185.071 50.0379 185.168 49.9895 185.168 49.941L185.313 49.6986L185.604 49.7471H186.816C186.961 49.7471 187.107 49.7956 187.203 49.7956C187.349 49.7956 187.446 49.7471 187.64 49.7471C188.125 49.7471 188.803 49.8441 189.385 49.941L189.724 50.0379C190.064 50.0864 190.451 50.1349 190.548 50.1349C192.924 49.7956 195.541 49.5532 197.529 49.5047C197.917 49.5047 198.11 49.4563 198.304 49.4563C198.692 49.4078 199.177 49.3108 200.777 49.3108C201.067 49.3108 201.552 49.2623 202.134 49.2623C203.346 49.2139 204.994 49.1169 206.448 49.1169C207.951 49.1169 208.63 49.2139 208.969 49.3108C209.454 49.1654 209.793 49.0684 210.181 49.0684C210.714 49.0684 211.15 49.2623 211.393 49.6017C212.023 50.3288 211.926 51.4922 211.78 52.7526C211.732 53.4797 211.635 54.2068 211.684 54.837C211.877 56.5821 212.314 59.8784 212.265 61.1873C212.265 62.2052 212.023 62.9808 211.78 63.9019C211.78 63.9503 211.732 64.0473 211.732 64.0958C212.265 63.0778 212.798 62.2537 213.283 61.8659L213.429 61.769H213.574C216.531 61.4781 218.712 60.8479 219.391 55.4672C219.343 55.3702 219.343 55.2248 219.294 55.0309C219.246 54.7885 219.197 54.1584 219.052 53.819H217.501C216.531 53.819 215.707 53.9644 214.689 54.7401C214.301 55.0309 213.913 55.1763 213.526 55.1763C212.847 55.1763 212.314 54.7401 212.023 53.9644C211.877 53.3827 212.023 52.7041 212.217 51.9285C212.362 51.2498 212.556 50.5227 212.605 49.7471C212.653 48.6806 212.798 47.7111 212.944 46.7416C213.235 44.4633 213.574 42.6697 212.411 41.6517C211.247 40.8761 211.102 40.1005 211.296 39.131C211.199 39.3734 211.102 39.5673 210.859 39.7127C209.745 40.7792 210.132 42.1365 210.472 43.5423C210.762 44.6572 211.053 45.7236 210.569 46.5962C210.181 47.5172 209.551 48.1959 208.678 48.4868C208.581 48.5352 208.29 48.5837 207.902 48.5837C206.788 48.5837 204.703 48.2928 203.055 48.0989C202.328 48.002 201.649 47.905 201.31 47.905C200.583 47.8566 199.856 47.8566 199.128 47.8566C195.881 47.8566 192.487 48.3413 189.094 49.3593C188.706 49.5047 188.318 49.5532 187.931 49.5532C187.058 49.5532 186.234 49.2623 185.458 48.6322C184.78 48.002 184.198 47.0325 185.022 45.5298C186.331 43.0575 186.282 41.2155 184.78 39.9551C184.053 39.228 183.907 38.3554 184.247 37.3859C184.537 36.7073 185.071 36.5618 185.41 36.4649C185.652 36.4164 185.798 36.3679 185.943 36.2225C187.01 35.3984 187.882 35.35 188.706 35.35H189.433C189.87 35.35 190.354 35.35 190.888 35.1561C191.712 34.8652 192.924 34.8167 194.523 34.8167C195.444 34.7682 196.365 34.7682 197.48 34.7198C198.45 34.6713 199.371 34.6713 200.195 34.6713C200.68 34.6713 201.164 34.6713 201.601 34.7198C203.297 34.7682 203.831 34.9137 204.073 35.0591C204.945 35.35 205.818 35.35 206.448 35.35H208.775C209.357 35.35 209.793 35.5438 210.375 36.174C211.005 36.9496 211.393 37.9191 211.247 38.7917C211.344 38.5008 211.441 38.2585 211.538 37.9676C212.653 34.7198 215.416 34.5744 218.131 34.4289C218.955 34.3805 219.827 34.332 220.603 34.235H220.7C222.009 34.235 222.687 33.5079 223.269 31.6174C223.318 31.3265 223.366 31.1811 223.463 30.9872C223.56 30.8418 223.608 30.6479 223.754 29.7753L223.899 28.3695L224.045 27.3515C224.287 26.1881 224.966 25.7519 225.547 25.6064H225.887C226.759 25.6064 227.39 25.9458 227.777 26.6729C228.117 27.497 228.407 28.7088 228.747 30.454C228.892 31.0841 228.941 31.3265 228.989 31.4235C229.038 31.6658 229.038 31.7628 228.989 32.0052C228.989 32.393 229.038 32.7808 229.232 33.217C230.153 33.2655 231.122 33.5079 232.092 33.7987H232.14L232.189 33.8472C232.722 34.0896 237.085 34.3805 238.054 34.3805C239.072 34.4774 239.169 35.5923 239.314 36.9012C239.363 37.2405 239.363 37.6768 239.411 38.0646C239.508 39.4219 239.169 40.5368 238.345 41.3609C236.745 43.0575 236.212 45.4328 237.182 46.8871L237.472 47.3233C238.345 48.5837 239.314 50.0864 238.975 51.4437C238.781 52.1709 238.199 52.7526 237.278 53.2373C237.182 53.2858 237.036 53.3343 236.551 53.3343C235.776 53.3343 234.37 53.1888 233.207 52.7041C233.255 53.0919 233.352 53.6251 233.4 53.916L233.449 54.1583C233.691 55.3218 233.74 56.3397 233.837 57.1638C233.982 59.2483 234.031 60.0238 236.697 60.654C237.424 60.3147 238.006 60.1208 238.49 60.1208C239.024 60.1208 239.46 60.3147 239.751 60.7025C240.575 61.7205 240.235 63.8049 239.896 65.8409C239.702 66.9558 239.508 68.0707 239.605 68.6524C239.654 69.3311 239.46 69.9128 239.072 70.3491C238.636 70.8338 237.909 71.0762 236.891 71.0762C235.824 71.0762 234.661 70.7854 233.885 70.543C232.576 70.0582 231.316 69.8643 229.91 69.8159C229.813 69.8643 229.522 69.8643 229.183 69.8643C228.456 69.8643 227.535 69.8158 226.565 69.7674H226.275C225.111 69.6704 224.045 69.6219 223.027 69.6219C221.912 69.6219 221.088 69.7189 220.603 69.8643C220.118 70.2036 219.44 70.446 218.615 70.446C218.373 70.446 218.131 70.446 217.84 70.3976H217.791C216.773 70.446 215.658 70.446 214.447 71.1247C213.623 71.561 212.992 71.7549 212.411 71.7549C211.49 71.7549 210.762 71.2701 210.278 70.3006C210.52 69.4765 210.52 68.7494 210.617 67.9738V67.9738ZM268.351 34.9137C268.351 35.4954 268.4 36.0771 268.593 36.0771C268.787 36.0771 268.981 35.9316 269.224 35.6893C269.369 35.5438 269.466 35.4469 269.563 35.3984C269.805 35.253 270.145 35.0106 270.581 34.6713C271.211 34.0896 271.841 33.7987 272.423 33.8472C272.617 33.8472 272.859 33.8957 273.15 33.9926C273.489 34.0896 273.732 34.1381 273.926 34.1381C275.429 34.2835 275.671 33.0716 275.816 30.5509C275.816 30.3085 275.865 30.0661 275.865 29.9207C276.107 29.0966 276.253 28.3695 276.253 27.6909C276.64 26.9637 277.61 26.5759 278.095 26.479C278.337 26.479 279.258 26.479 279.258 26.5759C280.567 27.9817 280.567 29.8722 280.761 32.3445V33.0231C280.664 33.0716 280.615 33.1686 280.615 33.2655C280.615 33.5564 280.858 33.7987 281.391 34.0411H282.845C283.378 34.1865 284.542 34.6228 286.384 35.3015C286.481 35.35 286.578 35.35 286.626 35.3984C286.966 35.5439 287.16 35.9316 287.16 36.4164C287.16 36.9981 287.063 37.8707 286.917 39.0341C286.772 40.0036 286.675 40.6822 286.675 41.167C286.432 42.1365 285.172 42.6697 282.894 42.8151C281.149 42.9121 280.228 43.2999 280.131 43.8816C280.131 43.9301 280.131 44.1724 280.082 44.5118C280.082 44.7057 280.034 44.8511 280.034 44.8511C280.034 47.6142 281.633 49.5532 284.784 50.6681C285.027 50.7651 285.414 50.8136 285.899 50.8136C286.578 50.7651 287.063 50.9105 287.353 51.2014H287.547C287.644 50.4742 287.644 49.4562 287.45 48.0989C287.256 46.2569 287.353 44.8511 287.79 43.8816C287.887 43.2999 287.935 42.4758 287.935 41.3609V40.6822C287.935 40.246 287.887 39.5673 287.741 38.6947C287.596 37.7737 287.547 37.0951 287.547 36.6103C287.644 36.3679 287.79 35.9317 287.935 35.3984C288.517 33.7503 288.178 32.4899 288.565 31.6174C288.614 31.4719 288.662 31.2296 288.759 30.8902C288.953 29.7753 290.262 29.2421 291.086 29.339C291.425 29.339 291.862 29.5329 292.346 29.9692L292.395 30.0177L293.413 30.1631C293.655 30.1146 293.995 30.1146 294.382 30.0177C295.546 29.6299 296.806 29.6299 297.533 29.6783C297.921 29.6783 298.26 29.6299 298.648 29.6299C299.181 29.5329 299.86 29.4844 300.636 29.436C301.993 29.2905 303.253 29.1936 304.562 29.4844C305.532 29.5814 306.21 29.4844 306.647 29.6783C307.374 29.9692 308.052 29.8238 308.586 29.5329C309.41 29.1451 309.943 29.4844 310.282 30.5994C310.476 32.296 310.137 34.6228 309.216 37.1435C308.925 38.0161 308.683 39.0825 308.44 40.2944C308.489 41.7972 308.489 43.7362 308.392 46.063C308.343 48.1474 308.295 49.6986 308.343 50.7166C308.392 51.977 308.44 52.9949 308.44 53.6736V55.855C308.44 56.3882 308.392 56.9214 308.343 57.4547C308.44 60.2178 308.44 62.1568 308.392 63.2232C308.295 64.8229 308.392 65.8894 308.683 66.4711C308.973 67.3921 308.198 68.507 306.404 69.7189C305.241 70.2037 303.883 70.4945 302.332 70.543C301.46 70.446 300.684 70.3975 299.909 70.3491C299.666 70.3975 299.472 70.446 299.278 70.4945C298.697 70.446 297.776 70.446 296.612 70.4945C295.982 70.543 295.4 70.543 294.867 70.543C294.14 70.6399 293.51 70.7853 292.88 70.9792C291.862 71.3186 290.747 71.5125 289.632 71.6094C288.42 71.7064 287.499 71.6579 286.82 71.5125C286.578 71.464 286.045 71.4155 285.317 71.3671C284.687 71.3671 284.154 71.3671 283.815 71.2701C283.378 71.1732 283.039 70.7854 282.845 70.1067C282.651 69.3311 282.7 68.6525 282.942 68.2162C283.039 68.0708 283.572 67.489 284.542 66.4711C285.56 65.4531 286.093 64.8229 286.19 64.6775C286.578 64.1927 286.917 63.5141 287.208 62.6415C287.063 61.1388 286.966 59.2482 287.014 57.1153C286.869 57.1153 286.481 57.3092 285.899 57.794C285.075 58.4242 284.493 58.715 284.154 58.715C283.718 58.715 283.088 58.4727 282.36 57.9394C281.633 57.4062 281.052 57.1638 280.518 57.1638C279.985 56.9699 279.646 57.5031 279.549 58.812C279.5 59.1998 279.452 59.4906 279.452 59.6361C280.421 61.8659 280.082 65.3077 279.597 69.9613C279.452 71.0762 279.307 71.9972 279.21 72.3366C278.531 73.403 278.385 73.6939 277.901 73.6939C277.61 73.6939 276.01 73.1122 275.865 72.579C275.816 72.3851 275.768 72.2881 275.768 72.1911C275.235 70.4945 274.75 67.2951 274.75 63.708V62.69C274.75 62.2052 274.75 61.4781 274.798 60.5571C274.847 59.6361 274.895 58.9089 274.895 58.4726C274.944 57.697 274.798 57.3577 274.411 57.5031H274.265C273.538 57.4547 273.635 57.6001 273.538 58.0364C271.696 58.8604 271.405 59.9754 269.757 59.9754H268.448C267.236 58.6665 263.697 58.715 263.94 53.7705C263.94 53.1404 265.83 53.8675 266.751 53.5282C267.091 53.4312 267.285 53.2858 267.382 53.2373C267.963 52.7526 269.175 52.4617 270.484 51.977C272.084 51.3468 272.471 49.6986 273.15 48.8745C274.507 47.6627 274.75 46.063 274.895 44.027C274.944 42.9121 274.653 42.2819 273.926 42.2334C271.308 42.2819 269.854 41.8941 268.497 40.9731C267.624 40.149 267.236 38.9856 267.285 37.5313L266.364 36.2225C265.83 36.4164 265.152 36.5134 264.279 36.5618C262.631 36.6103 260.74 38.0646 257.88 38.6947C255.602 39.131 253.857 39.131 252.791 38.7432C251.918 38.4039 251.191 37.4829 250.561 35.9801C249.931 34.3804 249.737 33.0231 249.979 31.8597C250.173 30.9872 250.803 30.4055 251.773 29.7753C252.936 29.0966 253.857 28.9512 254.536 29.2421C255.166 29.7268 256.135 29.8238 257.493 29.436C258.511 29.1451 260.983 29.2421 262.292 29.339C263.552 29.436 264.619 29.5814 265.443 30.0177C266.509 30.5509 267.672 31.0841 268.981 31.6658C269.66 31.9567 270.096 32.393 270.145 32.9747C270.193 33.6048 269.902 34.0896 269.321 34.332C269.03 34.235 268.739 34.5744 268.351 34.9137V34.9137ZM319.008 51.5892C319.008 49.4078 320.123 47.6142 322.353 46.1599C322.401 46.1115 322.643 46.063 323.128 45.966C325.843 42.9121 327.249 40.9246 327.442 40.052C327.442 39.6642 326.861 39.4704 325.794 39.4704C323.71 39.4219 322.207 38.8886 321.335 37.9676C320.607 36.3195 320.22 35.4469 320.171 35.3984V33.4594C320.123 32.1506 320.171 31.278 320.462 30.9387C320.995 30.2601 321.771 29.8723 322.74 29.8238C323.904 29.6299 325.649 29.4844 327.927 29.436H328.897C328.945 29.436 328.994 29.4845 329.091 29.5329L329.285 29.6299C329.624 29.6783 330.06 29.7753 330.642 29.8722C333.89 30.0177 335.441 31.5204 335.344 34.3805V35.35C335.102 36.5618 334.374 37.5798 333.114 38.4039C332.92 38.5493 332.775 38.6947 332.629 38.7432C332.532 38.7917 332.435 38.9856 332.242 39.228C332.048 39.5673 331.854 39.8097 331.805 39.8581C331.563 40.149 331.224 40.6338 330.884 41.3609C330.448 42.185 330.109 42.7182 329.818 43.009C329.672 43.1545 329.478 43.3484 329.188 43.5907C328.509 44.1725 328.024 44.8026 327.733 45.4328C327.733 45.5782 327.879 45.6752 328.121 45.7721C328.218 45.7721 328.267 45.7721 328.267 45.8206C328.557 45.966 328.848 46.1599 329.139 46.3538C329.285 46.4023 329.866 46.6447 330.884 46.984C331.854 47.3718 332.435 47.6142 332.629 47.6627C332.726 47.7596 332.92 47.905 333.211 48.0989C333.987 48.5837 335.877 49.3108 335.877 50.0864C335.877 51.6861 333.599 53.0434 332.096 54.4977C331.611 54.4977 330.933 54.6431 329.963 54.934C329.042 55.2733 328.315 55.4672 327.83 55.4672C327.539 55.4672 327.103 55.4187 326.521 55.2733C326.134 55.1763 325.843 55.1278 325.649 55.0794H323.177C320.559 54.6916 319.202 53.4312 319.008 51.5892V51.5892ZM368.937 68.2646C368.84 68.0223 365.641 68.0707 365.641 68.0707C364.72 68.0223 363.75 68.1677 362.732 68.507C361.763 68.8463 360.842 69.0402 360.066 69.0402H356.867C356.818 69.0402 356.285 68.9433 355.267 68.7494C354.249 68.5555 353.716 68.4586 353.668 68.4586C352.407 68.3131 350.953 68.2162 349.305 68.2646H351.971C351.777 68.3131 351.098 68.4101 349.983 68.604C347.754 69.0403 346.445 69.2341 346.057 69.2341H345.233L341.209 68.7494C339.61 68.2162 338.64 66.6165 338.349 63.9988C338.349 63.2717 338.592 62.4961 339.077 61.672C339.27 61.3327 339.416 61.0903 339.513 60.8964C339.949 60.0723 340.337 59.6845 340.628 59.4906C340.967 59.1998 341.403 59.0543 341.888 59.0543C342.13 59.0543 342.373 59.1028 342.712 59.1998C343.1 59.2967 343.342 59.3452 343.536 59.3452C343.876 59.3452 344.312 59.2482 344.894 59.0059C345.524 58.7635 347.511 59.0544 348.772 58.9089C350.032 58.7635 348.869 58.7635 349.256 58.812C349.644 58.8604 349.935 58.9089 350.177 58.9089C351.583 59.0544 352.892 58.3272 353.425 57.7455C354.007 57.2123 354.492 55.9035 354.589 54.1583C354.589 54.1099 354.879 53.7221 354.928 53.0919C354.976 52.1709 354.686 51.6861 354.686 51.5892C354.686 50.7651 354.976 49.6017 354.976 48.1959C354.976 46.8871 354.686 45.8691 354.686 45.2389C354.589 44.0755 354.686 43.009 354.201 40.246C354.104 39.8582 353.861 39.5188 353.716 39.3734C353.522 39.3734 353.086 38.9371 352.892 38.9371C352.698 38.9371 352.31 38.5978 352.019 38.6463C351.729 38.6947 351.486 38.7432 351.341 38.7432C350.517 38.7432 349.305 38.8402 347.608 38.9856C346.154 39.131 345.136 39.1795 344.506 39.1795H343.876C342.567 39.2764 341.597 39.131 341.064 38.7432C340.725 38.5978 340.434 38.4039 340.24 38.1615C340.095 38.0161 339.852 37.8707 339.561 37.6768C338.107 36.9012 337.428 35.8347 337.477 34.4774C337.477 33.7987 337.671 32.9747 338.01 32.0052C339.077 30.7933 344.748 28.8058 345.766 29.1451C346.833 29.4844 347.657 29.6299 348.238 29.6299C348.238 29.6299 348.432 29.5329 348.675 29.436C350.08 29.436 352.359 29.7268 353.765 29.7268C354.298 29.7268 359.194 30.0662 360.745 30.5024C362.005 30.8418 363.12 29.8722 363.557 29.8722C366.077 29.7268 369.277 29.6784 373.155 29.8238C374.367 29.8723 375.385 29.8722 376.112 29.8722C376.548 30.0177 377.033 30.454 377.566 31.1811C377.76 31.375 377.857 31.5204 377.954 31.6658C378.002 32.2475 378.002 32.6838 378.099 32.8777C378.196 33.1201 378.245 33.4109 378.39 33.6533C378.39 33.7018 378.342 33.8957 378.245 34.235C378.196 34.7198 378.002 35.156 377.663 35.4954C377.566 35.6408 377.469 35.7378 377.372 35.8347C377.033 36.3679 376.839 36.6103 376.742 36.6103C376.354 37.0466 375.627 37.289 374.609 37.3374C374.221 37.3859 373.93 37.3859 373.688 37.4344C372.524 37.8222 370.779 38.0161 368.404 37.9676C367.241 37.9676 366.368 37.9676 365.786 38.0161C364.381 38.0161 362.393 39.131 361.908 41.5063C361.472 46.3054 361.521 50.959 362.054 55.4672C362.199 56.7275 363.557 58.4242 363.847 58.4242C363.993 58.4242 364.284 58.3757 364.575 58.2787C364.865 58.2303 365.156 58.1818 365.302 58.1818C365.399 58.1818 365.592 58.2303 365.835 58.2787C366.077 58.3757 366.223 58.4242 366.368 58.4242C366.61 58.4242 367.047 58.3757 367.58 58.3272C368.162 58.2303 368.549 58.1818 368.889 58.1818C369.083 58.1818 369.471 58.2303 369.955 58.2787C370.44 58.3757 370.779 58.4242 371.022 58.4242C371.555 58.4242 372.379 58.4726 373.446 58.5211C374.367 58.5696 375.045 58.6181 375.433 58.6181C376.063 58.6665 380.523 57.8909 380.959 57.9394C381.008 57.9394 381.444 58.2303 381.541 58.2787C382.947 59.3937 381.202 58.7635 381.347 61.4781C381.492 63.8534 380.426 65.1137 378.729 67.1982C378.39 67.3921 378.196 67.5375 378.099 67.6829C377.954 67.8768 377.808 68.0708 377.663 68.2162C376.693 69.0403 375.966 69.525 375.53 69.6704C375.045 69.9128 374.318 70.0097 373.349 70.0097C372.767 70.0097 372.088 69.7189 371.216 69.1857C370.44 68.6525 369.616 68.3616 368.937 68.2646V68.2646ZM335.295 59.4906C335.974 59.4906 336.847 59.9269 336.847 60.5086V60.7025L336.653 61.6235C336.507 62.0113 335.635 63.9988 335.635 64.629C335.586 65.5016 334.568 65.9863 333.55 66.8589C332.193 67.9738 326.715 69.8643 323.904 69.7189C321.092 69.525 319.493 69.9128 317.893 65.1622C317.505 64.0473 317.311 63.1747 317.311 62.4961L317.408 61.9144C317.554 61.3327 317.99 61.1388 318.426 60.8964L318.911 60.654C319.008 60.6055 320.801 60.3147 321.528 60.0723C322.256 59.83 324.195 59.733 324.922 59.9269C325.649 60.1208 326.182 60.2662 326.715 60.0239C327.055 59.8784 327.346 59.7815 327.588 59.6845C327.685 59.636 327.782 59.6361 327.879 59.5876H327.927C328.073 59.4906 332.726 58.715 333.599 59.4421C334.617 59.2482 334.52 59.4906 335.295 59.4906V59.4906ZM255.166 44.027C255.99 44.4148 258.074 44.6572 259.189 44.027C259.819 43.6392 260.789 43.3968 261.952 43.3484C263.31 43.2999 264.522 43.3968 265.54 43.6392C266.848 44.027 266.17 44.6087 266.654 45.6752C267.527 47.6627 263.504 48.5352 262.97 49.4563C260.353 51.6861 257.638 52.8495 254.875 52.9465C253.13 52.7041 251.966 51.7346 251.385 49.941C251.191 48.5352 251.433 46.984 252.063 45.3359C252.984 43.8816 254.002 43.4453 255.166 44.027V44.027ZM293.122 52.3163C293.122 52.4617 293.17 52.5587 293.219 52.7041C293.364 52.7526 293.51 52.7526 293.607 52.801C294.867 52.7526 296.661 52.801 298.842 52.898H299.133C300.296 52.7041 301.46 52.5102 302.672 52.3648C303.108 52.0739 303.399 51.2014 303.496 49.7471C303.544 48.6806 303.35 48.0989 302.866 47.9535C298.794 47.5657 295.74 47.8566 293.752 48.3413C293.219 48.9715 292.928 51.2014 293.122 52.3163V52.3163ZM303.156 62.8354C303.302 62.5446 303.399 62.1568 303.496 61.5751V61.4781C303.35 60.0723 302.914 58.4242 302.284 58.4726C301.896 58.5211 301.266 59.9269 300.878 59.4421C300.345 58.812 299.763 59.3452 299.521 59.2482C297.727 59.1513 295.352 57.2123 292.734 59.1513C293.025 62.3022 290.844 65.5985 298.212 64.1927C298.551 64.1442 298.794 64.1927 298.939 64.1927H301.217C302.284 63.9019 302.865 63.4171 303.156 62.8354V62.8354ZM293.316 39.0825C293.219 39.4219 293.122 39.8581 293.122 40.3429V40.4883C293.122 40.6822 293.17 40.8276 293.17 41.0216L293.219 41.07C297.436 40.9731 300.733 40.8761 303.011 40.8761C303.059 40.8761 303.059 40.8761 303.108 40.8277C303.738 40.4399 303.932 39.5673 303.787 38.2585C303.544 37.2405 303.059 36.8042 302.284 36.9496C301.217 37.2405 300.005 37.289 298.697 37.0951C296.806 37.0466 295.206 36.4164 293.849 37.0951C293.704 37.2405 293.51 38.4524 293.413 38.6947C293.364 38.8886 293.316 38.9856 293.316 39.0825V39.0825ZM268.206 59.7815C268.933 59.733 269.805 59.9754 269.902 60.4116V60.5571L268.884 63.9503C268.739 64.2897 268.545 64.6775 268.593 65.2107C268.69 65.8894 268.739 66.4711 267.769 67.2951C266.509 68.3616 260.353 71.2701 257.444 71.4155C254.584 71.561 253.615 70.9308 251.482 67.3436C250.997 66.471 250.706 65.8409 250.658 65.3077V64.8229C250.755 64.3382 250.9 63.5141 251.336 63.3202C251.385 63.3202 251.773 63.0778 251.773 63.0778C251.87 63.0293 252.015 62.9324 252.257 62.8354C252.451 62.7869 252.645 62.69 252.839 62.593H252.984C253.421 62.6415 253.663 62.593 254.342 62.3022C255.02 62.0598 257.008 61.769 257.783 61.8174C258.559 61.9144 259.335 62.5446 259.916 62.3022C260.207 62.1568 260.547 62.0113 260.74 61.9144C260.837 61.8659 260.983 61.8174 261.031 61.8174H261.08C261.274 61.7205 261.419 61.6235 261.565 61.5266C261.807 61.3812 262.728 60.751 263.988 61.1873C264.085 61.2842 264.764 60.4116 265.733 60.8964C266.315 61.1873 267.382 59.8784 268.206 59.7815V59.7815ZM435.348 37.6768C435.542 37.4829 435.688 37.192 435.591 36.8527C435.445 36.1256 434.524 35.3015 433.506 35.0591C433.119 35.0591 431.567 35.0106 431.567 35.0106C430.695 35.0106 429.725 35.0106 428.707 34.8652C428.513 34.8167 428.32 34.8167 428.077 34.8167C427.253 34.8167 425.944 34.9622 424.975 35.35C423.763 35.7862 423.036 36.4649 422.939 37.2405C422.89 37.4829 422.939 37.7252 423.084 37.8707C423.375 38.1615 423.86 38.21 424.248 38.21C424.732 38.21 425.314 38.113 425.508 38.0646C425.702 38.0161 425.944 38.0161 426.187 38.0161C426.477 38.0161 426.768 38.0161 427.059 38.0646H427.253L429.144 38.113C429.338 38.113 429.628 38.0646 429.968 38.0646C431.131 38.0646 432.585 38.2585 433.167 38.3069C433.312 38.3069 433.458 38.3554 433.603 38.3554C434.282 38.3069 434.912 38.0646 435.348 37.6768ZM433.846 45.7237L433.894 45.5782L433.797 45.3359C433.749 45.2874 433.603 45.2389 433.167 45.2389H432.149V45.1904C431.907 45.2389 431.567 45.2389 430.986 45.2389L429.919 45.2874C429.725 45.3359 429.628 45.3359 429.483 45.3359C429.337 45.3843 429.192 45.3843 429.047 45.3843C428.707 45.3843 428.416 45.3359 428.174 45.2389C428.029 45.1904 427.883 45.1904 427.689 45.1904C427.302 45.1904 426.914 45.2874 426.526 45.3843L426.429 45.4328L425.314 45.6752C424.587 45.8206 423.811 46.2084 423.472 46.6932C423.375 46.8871 423.327 47.1779 423.327 47.3233C423.327 47.3718 423.327 47.5172 423.375 47.5657C423.472 47.8081 423.569 48.2928 424.878 48.2928C425.363 48.2928 425.847 48.2444 426.332 48.1474H426.526C426.768 48.0989 427.108 48.0989 427.495 48.0989C428.271 48.0989 429.241 48.1959 429.822 48.2444H430.162C430.84 48.2444 431.325 47.9535 431.713 47.3718C431.907 47.1294 432.294 46.8386 432.828 46.5477L432.973 46.4508C433.312 46.2569 433.652 46.0145 433.846 45.7237V45.7237ZM433.312 61.4781C433.312 61.4781 433.361 61.4296 433.361 61.1873C433.361 61.0418 433.312 60.8479 432.925 60.4116L432.634 60.1208L432.585 60.0723V60.0239C432.44 59.733 432.343 59.4906 432.198 59.0543C432.004 58.5211 432.004 58.5211 431.713 58.3272L431.664 58.2787C431.373 58.0364 431.083 57.9394 430.84 57.9394C430.695 57.9394 430.598 57.9879 430.452 58.0848L430.307 58.1333C429.871 58.4242 429.822 58.4242 429.871 59.1998C429.919 59.9754 429.871 60.3632 429.822 60.751C429.725 60.9934 429.725 61.2357 429.725 61.5266C429.725 61.9144 429.871 62.1083 430.307 62.3507C430.501 62.4476 430.792 62.4961 431.18 62.4961C431.955 62.4961 432.828 62.1568 433.167 61.7205L433.216 61.6235C433.312 61.5266 433.312 61.5266 433.312 61.4781V61.4781ZM424.684 57.7455C424.975 56.4852 424.829 55.758 424.684 55.0794C424.538 54.2553 423.957 54.1099 423.327 54.1099C423.133 54.1099 422.115 54.1584 421.872 55.2733C421.775 55.855 421.824 56.3397 421.921 56.7275V57.2123C421.921 57.8909 421.921 58.3272 421.775 58.9574C421.775 59.1513 421.727 59.2967 421.678 59.4906C421.581 59.8299 421.484 60.1208 421.484 60.6056C421.533 61.1873 421.775 61.4781 421.921 61.6235C422.115 61.769 422.357 61.9144 422.648 61.9144C422.89 61.9144 423.181 61.8174 423.424 61.769C423.763 61.672 424.054 61.4296 424.248 61.1388C424.538 60.6055 424.538 60.2662 424.49 59.83V59.4906C424.49 59.1513 424.538 58.5696 424.538 58.5696V58.5211L424.587 58.4726C424.635 58.3272 424.684 57.7455 424.684 57.7455V57.7455ZM416.637 55.9035C416.734 55.4187 416.879 54.1583 416.879 52.7041C416.879 51.3953 416.782 50.2803 416.637 49.8441C416.395 49.02 416.346 45.4328 416.346 42.5728C416.346 41.2639 415.958 38.7432 414.649 38.4524C414.456 38.4039 413.341 38.0161 413.341 38.0161L413.244 37.9676C412.759 37.7737 412.323 37.6283 411.935 37.6283C411.838 37.6283 411.741 37.6283 411.596 37.6768C411.353 37.7737 410.868 37.9676 410.238 37.9676C409.85 37.9676 409.414 37.9191 409.026 37.8222C408.396 37.6768 407.863 37.5798 407.281 37.5798C406.506 37.5798 405.779 37.7252 405.051 38.0161C404.033 38.3554 403.403 39.0825 403.549 39.7127C403.597 40.0036 403.791 40.2944 404.373 40.2944H404.567L404.906 40.246C405.536 40.1975 406.409 40.1005 407.233 40.1005C407.766 40.1005 408.251 40.149 408.639 40.1975C409.317 40.2944 409.705 40.5368 410.19 40.8277L410.287 40.8761L411.741 41.5548C411.886 41.6517 411.983 41.7002 412.129 41.7487C412.371 41.8456 412.614 41.8941 412.807 42.088C412.856 42.1365 412.904 42.1365 412.953 42.185C413.195 42.3304 413.632 42.5728 413.777 43.1545C413.922 43.8331 413.922 44.8996 413.632 45.5782C413.632 45.6752 413.583 45.8206 413.535 45.966C413.438 46.4508 413.244 47.1779 412.565 47.2749H412.468C411.886 47.2749 411.305 47.0325 411.256 46.984L410.287 46.6447C410.19 46.5962 409.317 46.4993 408.396 46.4993C407.039 46.4993 406.166 46.7416 405.875 47.1779L405.779 47.4688C405.682 47.6142 405.342 48.7291 405.342 48.7291C405.294 48.8261 405.294 48.923 405.294 49.02C405.294 49.3108 405.342 49.5532 405.585 49.7471C405.73 49.9895 406.069 50.2318 407.184 50.2318C408.348 50.2318 409.608 50.3288 411.644 50.5712C413.195 50.7166 413.874 51.4922 413.874 53.1404C413.874 54.2553 413.292 55.0309 412.129 55.2733C411.983 55.3218 411.983 55.3218 411.886 55.5157C411.789 55.7096 411.692 55.9519 411.305 56.1943C411.256 56.2428 411.208 56.2913 411.159 56.2913C410.917 56.4852 410.578 56.7275 410.044 56.7275C409.463 56.7275 408.348 56.6791 407.814 56.6306L407.136 56.5336H406.845C406.36 56.5336 405.972 56.6791 405.682 57.0184C405.342 57.3092 405.197 57.8425 405.197 58.5211C405.197 59.7815 405.827 59.7815 406.36 59.83C406.457 59.83 406.554 59.83 406.748 59.8784H407.136C408.105 59.8784 408.736 59.4422 408.832 59.3452C409.172 59.0059 409.754 58.7635 409.996 58.7635L410.044 58.715H410.141C411.256 58.715 411.402 59.5391 411.45 59.83C411.45 59.9269 411.499 60.1208 411.547 60.3147C411.596 60.5086 411.596 60.751 411.693 60.8479C411.789 61.0418 411.789 61.0903 412.759 61.3327C413.001 61.4296 413.244 61.4781 413.389 61.4781C413.922 61.4781 414.262 61.2357 414.698 60.8479L415.377 60.3632C416.201 59.733 416.395 58.1333 416.492 56.9214L416.637 55.9035V55.9035ZM448.728 65.5985C449.261 66.9558 448.243 68.7009 447.758 69.2826L447.176 70.0097L446.692 70.5914C446.546 70.7369 446.401 70.8823 446.255 71.1247C445.674 71.8518 444.801 72.9667 443.783 73.5C443.395 73.7423 442.862 73.9847 442.28 73.9847C441.65 73.9847 441.02 73.7423 440.147 73.2576C438.499 72.3366 437.821 71.8033 436.948 70.3006C436.124 68.7979 435.058 68.0223 433.846 68.0223H433.555C432.973 68.0707 432.585 68.3616 432.246 68.7009C431.858 68.9918 431.47 69.3311 430.792 69.4765C430.355 69.525 429.677 69.525 429.144 69.525H425.993C424.587 69.525 423.714 69.525 423.327 69.7674C423.036 69.9128 422.696 70.2521 422.26 70.6884L421.969 70.9792C421.388 71.6094 420.709 72.3366 420.079 72.6759C419.449 72.9667 419.061 73.3545 418.721 73.6454L418.576 73.7908L417.8 74.324L417.752 74.3725L417.655 74.421C417.073 74.6149 416.395 74.6634 416.007 74.6634C415.377 74.6634 414.31 74.6149 413.825 74.1786L413.438 73.8393C412.614 73.1122 411.692 72.1427 411.402 69.9613C411.353 69.3311 411.353 68.6525 411.45 67.7314C411.45 67.3921 411.499 66.9558 411.499 66.5195C411.547 65.5985 411.208 65.3561 410.675 65.2107H410.384C409.366 65.2107 407.863 66.0833 406.845 66.8104C406.506 67.0528 406.118 67.2467 406.118 67.2467C404.809 68.0708 402.143 70.3491 400.883 71.6579L400.495 71.9972C399.574 72.9667 398.895 73.6454 398.216 73.6454C398.022 73.6454 397.877 73.5969 397.683 73.5485C396.811 73.3061 395.308 72.2881 395.308 70.8823C395.308 70.8338 395.308 70.7369 395.356 70.5914C395.356 70.2036 395.405 69.5735 395.502 69.2341C395.55 69.0887 395.502 68.7009 395.502 68.4586V68.1192L395.453 67.9253V67.586C395.453 67.489 395.453 67.3436 395.405 67.1982C395.405 67.0528 395.405 66.6165 395.356 66.568C395.162 66.2287 395.162 65.7924 395.211 65.4531C395.259 64.9199 395.55 64.629 395.696 64.4351C395.938 64.1927 396.277 63.9988 396.374 63.9019C396.956 63.5141 397.538 63.0778 397.829 62.593C397.974 62.2052 398.216 61.2357 398.216 60.2662C398.216 59.5391 398.071 58.9574 397.877 58.7635C397.732 58.5211 397.586 58.4242 397.053 58.4242C396.859 58.4242 396.568 58.4726 396.277 58.4726C395.793 58.4726 395.356 58.5696 394.92 58.5696C394.096 58.5696 393.563 58.4726 393.175 58.2303C391.866 57.4062 391.236 55.9035 391.236 53.7705V53.3343C391.284 51.5892 391.575 51.0559 392.545 50.9105L393.854 50.959C394.435 51.0075 394.969 51.0075 395.356 51.0075C396.035 51.0075 396.52 50.9105 396.762 50.8136C397.198 50.5227 397.732 50.0864 397.683 49.4563C397.635 49.1169 397.538 48.7776 396.956 48.4868C396.665 48.3413 396.374 48.2928 395.89 48.2928C395.744 48.2928 395.55 48.3413 395.405 48.3413H395.259C394.823 48.3413 394.387 48.2928 394.048 48.0989C393.951 48.0505 393.805 47.9535 393.66 47.8081C393.369 47.6142 393.272 47.3718 393.175 47.1779C392.981 46.8386 392.981 46.4508 393.03 46.1115C393.03 45.7236 393.078 45.5782 392.69 45.2874C392.496 45.142 392.302 45.045 392.108 45.045C392.012 45.045 391.963 45.045 391.866 45.0935L391.042 45.4328C390.46 45.6267 390.024 45.8206 389.491 45.8206C389.297 45.8206 389.055 45.7721 388.812 45.6752C387.94 45.4328 386.631 44.3663 386.631 40.5853C386.631 37.3859 389.636 34.9622 391.187 34.1381C391.187 34.1381 391.236 34.0411 391.43 33.9926C391.624 33.8957 391.963 33.7503 392.399 33.5079C393.708 32.8777 395.599 31.7628 396.229 31.1326C396.617 30.7933 396.762 30.6963 396.908 30.5509C397.053 30.454 397.15 30.3085 397.538 30.0177C398.75 29.0482 399.913 28.1271 400.398 26.9153C400.883 25.6549 401.076 25.364 401.464 25.0732C401.755 24.7339 402.094 24.5884 402.482 24.5884C402.676 24.5884 402.822 24.6369 403.015 24.6854C403.306 24.7824 403.597 25.0732 403.888 25.3641L404.082 25.6064C404.179 25.7519 404.324 25.9458 404.47 26.1397C404.712 26.5275 405.003 27.0122 405.439 27.3515L406.312 27.9817C406.942 28.3695 407.33 28.6604 407.572 28.9997C407.766 29.2905 408.008 29.3875 408.396 29.3875H409.317C409.705 29.3875 410.044 29.436 410.432 29.6299L410.675 29.7268C411.159 29.9692 411.935 30.357 412.468 30.357C413.001 30.357 413.874 29.7753 414.019 29.6299L414.116 29.5329C414.262 29.3875 414.407 29.2421 414.698 29.0482C415.134 28.6119 415.183 28.4665 415.377 28.1271C415.425 28.0787 415.522 27.8848 415.716 27.6424C416.007 27.3515 416.492 27.0607 417.316 26.9637H417.461C417.8 26.9637 418.237 27.0607 418.915 27.2546L419.109 27.3031C419.497 27.4485 420.273 27.6424 420.66 27.6424C420.709 27.6424 420.757 27.6424 420.757 27.5939C421.097 27.5454 421.581 27.4485 422.26 27.4485C423.133 27.4485 424.345 27.5454 425.847 27.7393L430.549 27.8848C430.549 27.8848 431.907 27.9332 432.537 27.9332C433.167 27.9332 434.524 27.7878 434.524 27.7878C435.155 27.6424 435.445 27.6424 435.785 27.6424C436.221 27.6909 436.609 27.7393 436.948 27.8848L437.045 27.9332L437.142 28.0302H437.19C437.239 28.0302 437.53 28.0787 437.821 28.1271C438.645 28.2726 439.13 28.5149 439.566 28.9027C440.051 29.3875 440.438 29.4844 441.553 29.4844H441.699C442.765 29.4844 443.492 30.4055 443.832 31.0357C444.171 31.5204 444.316 32.0052 444.316 32.4414C444.316 32.8292 444.122 33.217 443.977 33.6048C443.589 34.4289 442.911 35.0591 442.038 35.8347C441.941 35.9317 441.893 36.0286 441.796 36.0771C440.972 36.8527 440.632 37.6283 440.632 38.9856L440.729 41.2155L440.632 42.0395C440.632 42.0395 440.632 42.7667 440.535 43.3968C440.535 43.5908 440.487 43.7362 440.438 43.9785C440.341 44.3663 440.293 44.8026 440.293 45.2389C440.293 45.3359 440.341 46.984 440.341 46.984V47.2264L440.487 48.5352C440.487 48.6322 440.584 49.4563 440.535 49.8925C440.535 50.3773 440.438 50.6196 440.341 50.959L440.244 51.2014C440.002 52.0254 439.517 52.3163 439.178 52.5102L439.081 52.5587H439.033C438.548 52.7041 437.869 52.7526 437.821 52.801L436.754 53.0434C436.076 53.2373 435.639 53.8675 435.542 54.6916V54.934C435.542 55.6126 435.736 56.0974 436.124 56.3397C436.754 56.7275 437.433 57.6486 438.112 58.4726L438.548 59.0543L438.596 59.1513C439.614 60.3632 441.117 62.3022 442.329 62.8354C442.862 63.0778 443.25 63.4171 443.541 63.7565L443.686 63.9019H443.735L443.783 63.9988C444.219 64.4351 444.607 64.8714 445.237 65.0168C445.722 65.1622 446.304 65.2592 446.74 65.2592H447.128C447.225 65.2107 447.322 65.2107 447.37 65.2107C447.516 65.2107 447.613 65.1622 447.758 65.1622C448.34 64.8229 448.582 65.0653 448.728 65.5985V65.5985ZM509.952 43.1545C510 43.2514 510 43.4453 510 43.5423V43.7846L509.952 43.8816C509.709 44.4148 509.613 45.4813 509.516 46.1599L509.467 46.5477L509.37 46.9355C509.322 47.7111 508.74 48.9715 508.013 49.6502L507.577 50.0864L507.334 50.2803C506.704 50.862 505.977 51.4437 505.056 51.4437C503.165 51.4437 501.129 51.3953 500.354 50.862L499.966 50.4742C499.433 50.0864 498.366 49.3108 497.833 49.3108C497.154 49.3108 496.524 49.7471 496.33 50.3288L496.233 50.6197C496.185 50.6681 496.136 50.7651 496.136 50.9105C496.039 51.1044 495.991 51.2498 495.991 51.3953C495.991 51.7346 496.136 53.3343 496.282 53.7705C496.524 54.5462 496.524 54.837 496.476 55.5157V56.0489C496.476 56.3882 496.476 56.7275 496.379 57.0184C496.33 57.6486 496.33 58.5696 496.33 59.5391V60.3147C496.33 61.5266 496.379 62.0598 496.476 62.2052V62.3507L496.573 63.4656C496.524 63.6595 496.524 63.7565 496.524 63.8534C496.524 64.0473 496.476 64.2412 496.476 64.4351C496.476 64.8714 496.573 65.1622 496.767 65.647C497.106 66.7134 497.106 67.3436 497.106 68.0223C497.106 68.2162 497.057 68.7494 497.057 68.8464V69.8643C497.057 70.0097 496.767 71.6579 496.767 71.6579C496.718 72.1911 496.476 72.7244 496.33 73.1606L496.233 73.403L496.039 73.7908C495.991 73.8878 495.991 74.0332 495.894 74.2271C495.749 74.6149 495.264 75.2936 494.585 75.2936H494.343L494.246 75.2451C493.616 75.0997 492.986 74.1786 492.743 73.9363C492.695 73.8393 492.646 73.8393 492.355 72.579C491.968 71.8518 491.822 70.9308 491.822 70.3976C491.822 69.622 491.531 69.0402 491.192 68.4101C490.707 67.586 490.465 66.2287 490.707 65.2107C490.95 64.2897 490.853 62.9324 490.562 62.0598C490.465 61.672 490.077 59.8299 490.125 58.715V56.873L490.077 55.855C490.029 54.6431 489.835 52.7526 489.447 52.1224C489.35 52.0254 489.253 51.9285 489.156 51.7831C488.72 51.1044 488.186 50.1349 486.538 50.1349C484.26 50.1349 483.387 50.3773 482.563 50.6681C481.836 50.9105 480.77 51.0559 479.897 51.0559C479.315 51.0559 478.879 51.0075 478.588 50.862C478.055 50.6681 477.813 50.6197 477.473 50.6197C477.183 50.6197 476.795 50.6681 476.262 50.8136L475.825 50.862C474.807 51.0075 474.371 51.1529 474.177 51.8315C474.08 52.2193 474.08 52.4132 474.08 52.9465L474.032 53.5767C474.032 53.7706 474.08 53.9644 474.08 54.1583V54.837C474.08 57.0184 473.886 57.6486 473.741 57.9879L473.208 59.4906C473.111 60.0238 472.965 60.6055 472.577 61.3812C472.19 62.0113 471.996 62.593 471.996 63.1263C471.947 63.8049 471.656 64.3381 471.414 64.629C471.414 64.629 471.414 64.6775 471.317 64.7744C471.22 65.0168 471.123 65.3077 470.881 65.4531C470.299 66.2772 469.814 66.9558 467.003 68.4586C465.452 69.2342 465.064 69.622 464.724 69.9128C464.627 69.9613 464.579 70.0097 464.482 70.1067C463.949 70.4945 463.222 70.8823 462.592 70.8823L461.961 70.9308L461.574 70.9792C461.04 71.0277 460.507 71.0762 459.974 71.0762C458.956 71.0762 458.326 70.8823 457.938 70.543C457.065 69.7674 455.999 68.6525 455.999 67.1497L455.853 65.9378C455.805 65.2592 455.95 64.7744 455.999 64.3382C455.999 64.2412 456.047 64.0473 456.096 63.9019C456.435 61.5751 457.162 61.1388 458.132 60.751C458.277 60.7025 458.471 60.654 458.617 60.5571C459.344 60.1208 460.701 59.733 461.671 59.5391L462.107 59.4421L462.785 59.2967C463.658 59.1513 464.482 59.0059 465.258 58.3757C466.47 57.3092 467.294 56.4367 467.73 55.6126C468.215 54.74 468.796 53.7705 468.99 52.5587V52.3648C469.087 51.6861 469.233 50.8136 468.893 50.3288C468.699 50.038 468.36 49.8925 467.924 49.8441H467.681C466.179 49.8441 465.064 50.3773 464.434 50.9105C463.9 51.3468 463.222 51.5892 462.398 51.5892C462.252 51.5892 462.107 51.5407 461.961 51.5407L461.38 51.3953C461.283 51.3953 461.137 51.3468 460.992 51.3468C460.895 51.3468 460.701 51.3953 460.41 51.5892C459.925 51.88 459.15 52.2193 458.326 52.2193C458.132 52.2193 457.889 52.1709 457.696 52.1224C456.823 51.977 455.805 51.0559 455.805 49.941C455.805 48.7776 455.563 47.5657 455.126 46.6447C454.496 45.5298 454.351 44.5602 454.69 43.6877C454.981 42.8636 455.708 42.2334 456.775 41.8456C459.101 40.9731 459.441 40.9246 460.022 40.7792C460.071 40.7792 460.943 40.5853 460.943 40.5853C461.38 40.5368 461.719 40.4883 462.107 40.4883C462.882 40.4883 463.561 40.6822 464.191 40.8277C464.288 40.8761 464.579 40.9246 465.258 41.0216C465.694 41.1185 466.227 41.1185 466.857 41.1185C467.633 41.1185 468.409 41.07 469.136 41.0216H470.251C470.541 40.9731 470.735 40.9731 471.026 40.9731C471.656 40.9731 472.432 41.07 473.305 41.9426C474.613 43.2514 475.437 43.5423 475.922 43.5423C476.019 43.5423 476.116 43.5423 476.213 43.4938C477.037 43.2514 477.425 43.009 477.813 42.5728C477.958 42.4273 478.249 42.1365 479.703 41.9426L480.818 41.7972L481.739 41.5548C481.982 41.5063 484.018 41.167 484.018 41.167H484.551C485.326 41.1185 485.957 41.07 486.538 41.07C487.12 41.07 487.556 41.07 487.944 41.167C488.186 41.2155 488.574 41.2639 489.35 41.2639C490.513 41.2639 491.919 41.167 492.404 41.07C492.501 41.07 492.598 41.0216 492.695 41.0216C493.567 41.0216 495.361 41.2639 496.427 41.7002C497.3 42.0395 498.075 42.185 498.9 42.185C499.336 42.185 499.675 42.1365 500.014 42.088H500.257L501.905 42.1365H502.244C502.584 42.1365 502.971 42.185 503.359 42.185C503.796 42.185 504.135 42.1365 504.377 42.1365C505.104 41.9911 505.88 41.9426 506.559 41.9426C507.286 41.9426 507.916 42.0395 508.546 42.185C508.692 42.2334 509.661 42.4758 509.952 43.1545V43.1545ZM454.884 32.0052L454.739 31.7143C454.108 30.8418 454.011 27.9817 454.011 27.9332C454.011 27.2546 454.108 26.8183 455.126 25.6549C456.193 24.54 457.938 24.3461 459.295 24.3461C460.119 24.3461 460.943 24.443 461.767 24.5884L464.288 25.3156L464.627 25.4125C465.5 25.7034 466.227 25.8973 466.857 25.9458L467.681 25.9942H467.827C468.651 26.0427 468.99 26.0912 469.427 26.4305C469.717 26.7214 470.348 26.9637 470.929 27.2546H470.881C471.075 27.3031 471.463 27.497 472.529 28.0302C473.305 28.5634 473.45 28.8058 473.692 29.4844L473.838 29.9207C474.032 30.4055 474.226 30.6479 474.371 30.8902C474.516 31.0357 474.662 31.2296 474.904 31.5689C475.195 32.0536 475.68 32.296 475.922 32.296H476.019C476.019 32.296 476.116 32.1991 476.068 31.8113C475.971 31.278 476.31 30.6963 477.086 29.7753C477.813 28.9027 479.412 27.9332 480.479 27.7393L481.642 27.3031C482.757 26.8668 484.212 26.2366 486.247 26.2366C488.38 26.2366 489.059 26.479 489.689 26.7698C489.835 26.8668 490.222 26.9153 490.222 26.9153C490.562 27.0122 490.901 27.0607 491.24 27.0607C491.58 27.0607 491.919 27.0122 492.355 26.9637L494.876 26.8183L496.767 26.6729C496.961 26.6244 497.203 26.6244 497.397 26.6244C497.833 26.6244 498.269 26.7214 499.627 27.0122C501.517 27.4485 501.953 27.7878 502.584 28.321L502.632 28.3695L503.892 29.2906C504.862 29.9207 505.007 30.2116 505.298 30.9872L505.589 31.9082C506.025 32.9262 506.025 33.0716 505.686 34.0411L505.492 34.6228C505.201 35.35 504.862 36.0771 504.038 36.0771C503.892 36.0771 503.747 36.0286 503.505 36.0286C503.505 36.0286 503.456 36.0286 502.632 35.7862L502.487 35.7378C502.244 35.6893 502.002 35.6408 501.76 35.6408H501.517C501.032 35.7378 499.724 35.7378 498.948 35.7378C498.221 35.7378 497.445 35.7377 496.912 35.6893L494.44 35.7378C494.246 35.7378 492.161 35.8832 492.161 35.8832L490.562 35.8347L488.865 35.7862H487.75L487.702 35.8347H487.217C486.829 35.8347 486.393 35.7862 485.86 35.5439C485.714 35.5439 485.617 35.4954 485.52 35.4954C485.084 35.4954 484.648 35.6893 484.308 35.8347L483.29 36.1256L483.194 36.174H483.097C482.321 36.174 481.788 36.4164 481.351 36.6588C480.915 36.9496 480.382 37.2405 479.558 37.3374C479.364 37.3374 479.219 37.3859 479.122 37.3859C478.152 37.3859 477.764 36.9012 477.425 36.5134H477.377L477.328 36.4164C477.231 36.3195 476.94 35.9801 476.94 35.9801C476.746 35.8347 476.504 35.7862 476.116 35.7862C476.019 35.8347 475.922 35.8347 475.825 35.8347C475.534 35.8347 475.292 35.7378 475.195 35.6408L475.098 35.5923L475.05 35.5439L474.904 35.35C474.662 35.0591 474.662 35.0591 474.226 35.0106H473.935C473.789 34.9621 473.644 34.9621 473.547 34.9621C473.353 34.9621 473.305 35.0106 473.159 35.1076C472.868 35.3015 472.626 35.35 472.384 35.35C472.044 35.35 471.753 35.2045 471.511 34.9621C471.414 34.9137 471.269 34.8652 471.075 34.8652H470.832C470.687 34.8652 470.057 35.0106 470.057 35.0106H469.669C468.99 35.0106 468.215 35.4469 467.391 35.9316H467.342L467.245 35.9801L466.954 36.0771C466.227 36.4649 464.87 36.6588 463.949 36.6588C463.561 36.6588 463.028 36.6588 462.592 36.5134C462.495 36.5134 462.301 36.4164 461.767 36.3195C461.186 36.174 460.362 35.9801 458.665 35.2045C456.241 34.1381 455.417 32.8777 454.884 32.0052V32.0052ZM173.63 56.1943C173.921 56.1943 174.164 56.2913 174.309 56.4852C174.697 56.9214 174.745 57.6486 174.697 58.9089C174.697 59.1998 174.648 60.1208 174.503 60.654C174.455 60.8479 174.309 61.1388 174.212 61.4296C174.067 61.7205 173.97 61.9629 173.921 62.1083V63.3686C173.582 66.3741 171.837 66.6165 170.043 66.6165H168.153C167.523 66.6165 167.038 66.6165 166.553 66.665H166.117C165.341 66.7134 164.856 66.7134 164.662 66.7134C164.469 66.7134 164.323 66.7619 164.178 66.7619C163.935 66.8104 163.693 66.8589 163.354 66.8589C163.063 66.8589 162.723 66.8104 162.336 66.7619C160.978 66.5195 159.96 66.4226 159.282 66.4226C158.603 66.4226 157.634 66.471 156.373 66.6165C155.646 66.6649 154.967 66.7134 154.289 66.7134C153.513 66.7134 152.883 66.6649 152.35 66.6165C152.253 66.7619 152.204 66.8589 152.204 67.1497V67.2467H152.107C152.059 67.4406 152.01 67.7799 152.01 67.9738L151.865 68.7009V68.8464C151.817 68.8948 151.865 69.0403 151.817 69.1857C151.817 69.525 151.817 70.0098 151.768 70.3006L151.623 70.8338C151.429 71.8033 151.235 72.482 151.041 72.8213C149.975 74.2271 149.15 74.8573 148.229 74.8573C147.357 74.8573 146.581 74.1786 145.806 72.8213L145.757 72.7244L145.709 72.6274C145.66 72.4335 145.612 72.1427 145.563 71.8033C145.369 70.8823 145.127 69.6704 145.078 68.604C144.982 67.4406 144.836 67.2951 144.739 67.1497C144.691 67.0528 144.594 66.9558 144.497 66.7619C143.818 66.665 141.588 66.5195 138.728 66.5195C136.547 66.5195 134.462 66.6165 132.669 66.7619C131.699 66.8589 130.584 67.0528 129.76 67.2467C129.373 67.2952 129.033 67.3921 128.839 67.4406C128.597 67.489 128.403 67.4891 128.209 67.4891C127.288 67.4891 126.416 67.1012 125.737 66.3741C124.622 65.1622 124.04 62.8839 124.234 60.3147C124.331 58.7635 125.591 58.4727 126.658 58.1818L126.9 58.1333C127.143 58.0848 127.24 58.0848 127.288 58.0848H127.433C127.53 58.0848 127.579 58.0848 127.627 58.1333C127.724 58.1333 128.015 58.2303 129.033 58.3272C130.827 58.5696 132.426 58.6666 133.784 58.6666C134.85 58.6666 135.771 58.6181 136.595 58.4726C137.032 58.3757 137.565 58.3272 138.195 58.3272C138.68 58.3272 139.261 58.3757 139.94 58.4242C140.716 58.5211 141.491 58.5211 142.17 58.5211C142.946 58.5211 143.624 58.5211 144.303 58.3757C144.885 58.1818 145.466 57.0669 145.66 56.2913C146.048 54.5461 146.824 53.4312 147.939 53.0919C146.436 52.2678 144.933 50.5227 144.982 47.7596C145.03 46.6447 144.788 46.4023 144.788 46.4023C144.545 46.5477 144.254 46.6932 143.867 46.984C143.333 47.3233 142.606 47.8081 141.394 48.3413L141.152 48.4383C140.958 48.5352 140.861 48.5352 140.764 48.5837H140.716L140.667 48.6322C140.425 48.6322 140.182 48.6806 139.989 48.6806C139.504 48.6806 139.116 48.5837 138.728 48.4383C137.904 48.2444 137.468 47.5657 137.662 46.7901C137.71 46.4023 137.565 45.9176 137.468 45.4328C137.225 44.5602 136.838 43.2029 138.437 42.4758C138.631 42.3789 138.728 42.3304 138.874 42.2819C139.649 41.9426 140.619 41.7487 141.54 41.5063C142.558 41.2639 143.721 40.9731 144.061 40.6822C144.545 40.2944 144.836 39.6158 144.982 38.7432C144.982 36.7073 145.272 34.4289 145.903 32.0536C146.048 31.3265 146.242 30.454 146.533 29.5329C146.678 29.1451 146.775 28.8058 146.872 28.4665C147.26 27.3031 147.599 26.2366 148.326 26.0427L148.472 25.9942L148.617 26.0427L151.526 26.9153L151.671 26.9637L151.768 27.0607C152.01 27.4 152.204 27.6424 152.35 27.8363C152.592 28.1756 152.883 28.9997 152.689 31.9082V32.6353C152.592 34.0411 152.883 34.6228 153.125 34.8652C153.222 34.9622 153.368 35.0591 153.659 35.1076C158.555 33.6533 159.621 32.7323 162.045 30.6963C162.045 30.6963 162.239 30.454 162.578 29.7753C163.16 28.4665 164.081 27.2061 166.602 27.2061C167.086 27.2061 167.62 27.2546 168.25 27.3515C170.576 27.6909 171.837 28.3695 172.322 29.436C172.855 30.7933 171.788 32.2475 170.867 33.5564C170.722 33.7987 170.528 34.0411 170.334 34.235C169.171 35.9801 167.474 36.7557 165.05 37.8222C163.838 38.4039 162.384 39.0341 160.688 39.9551C159.573 40.5368 158.409 40.8277 156.955 41.1185C156.082 41.3124 155.064 41.5063 153.901 41.8456C152.641 42.185 152.107 42.9606 152.107 44.3664C152.156 44.6087 152.156 44.7057 152.204 44.7057L152.253 44.7542C152.592 45.2389 153.319 45.4328 154.967 45.4328C155.501 45.4328 156.131 45.4328 156.761 45.3843H158.894C160.639 45.3843 161.899 45.2874 162.675 45.1419C163.79 44.948 165.244 44.2694 165.874 43.2999C166.02 43.0575 166.262 43.009 166.359 43.009C166.65 42.9606 166.698 42.9121 166.698 42.9121C166.795 42.8151 166.989 42.5243 167.377 41.7487C167.426 41.5548 167.474 41.2639 167.668 41.1185C168.25 39.4703 169.025 39.0341 169.413 38.8886V39.0341C169.752 38.5008 170.189 38.4039 170.431 38.4039C171.013 38.4039 171.546 38.8886 171.594 39.3249C171.643 39.7612 171.643 40.1975 171.691 40.5853C171.837 42.088 171.934 43.3484 172.515 45.1419V45.4328C172.564 45.6752 172.612 45.9176 172.612 46.1115C173 48.8745 172.079 50.7166 169.655 51.88C169.122 52.2193 168.541 52.5587 168.153 52.801C167.91 52.9465 167.426 53.1404 165.971 53.2373C165.68 53.2858 165.39 53.2858 165.147 53.2858L164.711 53.2373H164.42C164.275 53.2373 164.178 53.2858 164.178 53.2858L164.032 53.3827H163.645C163.402 53.3827 163.063 53.3827 162.772 53.3343C162.384 53.3343 162.045 53.2858 161.706 53.2858H161.463C160.542 53.3827 159.524 53.3827 158.506 53.3827H156.858C156.761 53.3827 156.713 53.3343 156.616 53.3343C156.373 53.3343 156.034 53.3827 155.598 53.4312C155.016 53.5282 154.337 53.5767 153.61 53.5767H153.271C152.156 53.5767 151.186 53.5282 150.411 53.4312C150.799 53.819 151.089 54.3522 151.235 55.1278C151.332 56.1943 151.477 57.0184 151.623 57.2608C152.35 57.5031 153.319 57.6486 154.58 57.6486H154.774C155.501 57.5516 156.131 57.4547 156.567 57.3577C157.246 57.3092 157.924 57.3092 158.603 57.3092C159.766 57.3092 161.172 57.3577 162.675 57.4547C162.917 57.5031 163.111 57.5031 163.354 57.5031C164.469 57.5031 165.826 57.1638 167.28 56.873C168.395 56.6306 169.607 56.3397 170.77 56.1943C171.013 56.1943 171.594 56.0974 172.128 56.0489C173.049 56.2428 173.485 56.1943 173.63 56.1943V56.1943ZM124.477 41.1185L124.283 40.9731C124.137 40.8761 124.04 40.7792 123.943 40.6822L123.895 40.6338V40.5853C123.798 40.3914 123.701 40.3914 123.701 40.3914L123.362 40.3429L123.216 40.052C123.119 39.8581 122.877 39.4704 122.344 38.7917C121.471 37.7252 121.035 36.1256 121.083 35.1561V34.7198L121.132 34.6228C121.713 33.4109 122.247 32.7323 122.828 32.4414C123.459 32.0052 124.234 31.7628 125.058 31.7628H125.252C125.494 31.6174 125.979 31.5204 126.803 31.5204C127.24 31.5204 127.676 31.5204 127.87 31.5689C127.967 31.5689 128.5 31.4235 128.791 31.2296C128.888 31.1811 130.294 30.1631 131.215 30.1631C131.602 30.1631 131.796 30.3085 131.99 30.454C132.281 30.4055 132.863 30.1631 133.057 30.0177L133.396 29.8722C133.784 29.6783 133.978 29.5814 134.172 29.5329C134.317 29.4845 134.511 29.2906 134.753 29.0967C134.996 28.9028 135.238 28.6604 135.577 28.418C136.789 27.4485 137.468 27.0607 138.05 27.0607C138.243 27.0607 138.389 27.1092 138.534 27.1576L141.346 28.4665L141.491 28.5149L141.588 28.6604C141.588 28.6604 143.043 31.5204 142.17 33.9926C142.315 34.2835 142.461 34.7198 142.17 35.2045C142.121 35.253 142.025 35.4954 142.025 35.5923L141.928 35.7862C141.879 35.8832 141.782 35.9801 141.685 36.0286C141.588 36.1256 141.394 36.271 141.346 36.4649L141.2 36.9496C141.104 37.192 141.055 37.3859 141.055 37.4344C140.91 37.6283 140.91 37.6283 140.376 37.9676C140.134 38.113 139.892 38.2585 139.746 38.3554L139.649 38.4524L139.601 38.5008L139.455 38.5978L136.595 40.0036C135.917 40.1975 135.917 40.1975 135.917 41.5063C135.917 41.9426 135.917 42.4758 135.868 43.1545C135.868 44.0755 136.062 45.1419 136.401 46.3538C136.644 47.3718 136.838 50.959 136.789 52.9465V53.2858C136.741 53.4312 136.644 54.1099 136.595 54.5946C136.547 54.9824 136.45 55.3218 136.45 55.5157C136.208 56.776 135.383 56.9699 134.85 56.9699C134.511 56.9699 134.075 56.873 133.784 56.8245C133.493 56.7275 133.202 56.6791 133.057 56.6791H132.911C132.766 56.6791 132.523 56.6306 131.796 56.2913C131.069 55.9519 130.681 55.0794 130.39 54.3522C130.294 54.1583 130.148 53.819 130.1 53.6736C129.566 53.6251 129.179 53.3827 128.936 52.898C128.694 52.7526 128.5 52.5587 128.403 52.2193C128.161 50.9105 128.161 50.1834 128.161 49.4078V49.02C128.161 49.02 128.161 48.8746 128.209 48.4868C128.355 46.6447 128.403 45.3843 128.403 44.6087V44.027C128.355 43.5907 128.355 43.1545 128.355 42.7182C128.355 42.2334 128.355 41.7487 128.258 41.3124C128.112 41.3124 127.87 41.3609 127.676 41.4094L127.482 41.4578C127.046 41.5548 126.609 41.6517 126.125 41.6517C125.591 41.6517 125.107 41.5548 124.719 41.2639L124.477 41.1185V41.1185ZM232.673 42.8151C232.916 42.1365 233.061 41.6033 232.867 41.4578C232.867 41.4578 232.625 41.3609 232.092 41.3609C231.655 41.3609 231.171 41.4094 230.734 41.4578C230.492 41.4578 230.298 41.5063 230.104 41.5063C228.989 41.6033 228.601 41.7972 228.456 41.9426C228.311 43.009 228.262 44.2209 228.262 45.4813C228.359 45.5782 228.795 45.8691 230.104 45.966H230.201C231.025 45.966 231.607 45.8206 231.704 45.5782L231.849 45.1904L232.092 44.5603C232.286 44.0755 232.382 43.6392 232.528 43.3968C232.576 43.106 232.625 42.9606 232.673 42.8151ZM227.293 60.5086C227.923 60.5086 228.601 60.4601 229.135 60.2178C229.135 60.1693 229.135 60.1208 229.086 60.0239C229.086 57.6486 228.311 55.4187 227.05 53.6736C226.856 53.4312 226.323 53.2373 225.838 53.2373C225.596 53.2373 225.257 53.2858 225.063 53.5282C225.257 56.873 224.675 58.1333 224.142 59.2482C223.899 59.7815 223.657 60.2662 223.511 60.9449C223.705 60.9449 223.948 60.8479 224.142 60.7995C224.578 60.7025 225.063 60.5571 225.596 60.5086C225.838 60.5086 226.081 60.4601 226.372 60.4601H226.759L227.293 60.5086V60.5086ZM222.348 45.4328C222.639 44.124 222.833 42.9606 222.978 42.1365C222.978 42.0395 222.93 41.9911 222.93 41.9426C222.881 41.9426 222.736 41.8456 222.494 41.8456C222.445 41.8456 222.397 41.8456 222.3 41.8941H221.088C220.748 41.8456 220.458 41.8456 220.118 41.8456C219.44 41.8456 219.003 41.8941 218.809 42.0395C218.712 42.2819 218.809 43.009 218.858 43.4938C219.003 44.3179 219.1 45.2874 218.906 46.2084C218.858 46.4993 218.955 46.7416 219.052 46.8871C219.1 46.9355 219.149 46.984 219.391 47.0325C221.039 46.7901 222.009 46.2569 222.348 45.4328V45.4328ZM205.915 40.9246V40.8761C205.818 40.7792 204.994 40.6337 204.655 40.5368C204.412 40.4883 204.121 40.3914 204.024 40.3914C202.958 40.246 201.843 40.149 200.68 40.149C199.371 40.149 198.062 40.246 196.414 40.4883C195.444 40.5853 194.523 40.5853 193.699 40.5853H193.651C192.681 40.5853 191.76 40.5853 191.372 40.8761C190.791 41.3124 190.888 42.8636 191.082 43.2514H191.178C191.469 43.2514 191.954 42.9606 192.487 42.7667C193.263 42.4273 194.087 42.3789 195.25 42.3304C195.832 42.2819 196.511 42.2819 197.189 42.185C198.062 42.1365 198.789 42.088 199.419 42.088C200.486 42.088 201.261 42.185 201.94 42.3789C203.006 42.7182 203.831 42.8636 204.461 42.8636C205.576 42.8636 205.576 42.4273 205.624 41.7487C205.721 41.4578 205.721 41.167 205.915 40.9246V40.9246ZM184.489 33.5564C184.489 33.2655 184.343 32.5869 184.247 32.0052C184.004 30.7933 183.956 30.3085 184.004 30.0177C184.198 29.339 186.137 28.2241 186.282 28.1756L186.379 28.1271H187.203C188.9 28.1271 190.112 28.1271 190.403 28.0787L197.189 27.7878H197.383C197.723 27.7393 198.547 27.7393 199.468 27.6909C200.195 27.6424 201.213 27.6424 201.358 27.5939H201.552C202.182 27.5939 205.576 28.0787 205.915 28.1271C206.594 28.1271 207.902 28.0787 208.242 28.0302C208.775 27.8848 209.308 27.7878 209.793 27.7878C210.132 27.7878 210.52 27.8363 210.859 27.9332C211.005 27.9332 211.684 28.1271 211.974 28.6604C212.023 28.7573 212.071 28.8543 212.071 28.9512V29.1936L212.023 29.2906C211.926 29.6299 211.974 30.357 211.974 30.8417V31.375C212.023 31.8597 211.78 32.8292 211.296 33.3625L211.053 33.7018L210.908 33.8472C210.52 34.235 210.084 34.7682 209.405 34.7682C209.163 34.7682 208.727 34.6713 207.709 34.5259C206.351 34.332 204.412 33.9926 203.443 33.9926C203.103 33.9926 203.006 34.0411 203.006 34.0411L202.958 34.0896H195.638C194.087 34.0896 189.724 34.2835 189.191 34.4774C188.464 34.8167 186.282 35.0591 185.895 35.0591C185.749 35.0591 185.652 35.0106 185.507 35.0106C184.974 34.8167 184.489 34.1865 184.489 33.5564V33.5564ZM207.902 60.1208V59.9754C207.951 57.697 207.709 56.5821 207.466 56.0004H207.321C207.078 56.0004 206.836 55.9035 206.594 55.8065C206.448 55.758 205.77 55.7096 205.285 55.6126C205.333 56.0489 205.333 56.5336 205.236 57.0669C205.188 57.2608 205.188 57.3577 205.139 57.4547V57.5516C205.139 57.794 205.091 58.0848 204.994 58.3272C204.897 58.6181 204.849 58.7635 204.849 59.0059C204.849 59.2967 204.849 59.4421 205.576 59.4906C205.576 59.4906 205.673 59.4421 205.77 59.4421C206.012 59.2967 206.351 59.1513 206.642 59.1513H206.836C207.272 59.3452 207.563 59.733 207.902 60.1208V60.1208ZM200.437 58.2303C200.631 57.4547 200.728 57.1153 200.728 56.6791C200.728 56.0974 200.68 55.855 200.631 55.758H198.304C197.626 55.758 197.238 55.8065 196.996 55.855C196.899 56.0489 196.753 56.4852 196.753 57.1638C196.85 58.6665 197.141 58.9574 197.48 59.1998C197.965 59.3452 198.304 59.4421 198.547 59.4906H199.08C200.049 59.4906 200.195 59.1513 200.292 58.7635C200.292 58.6181 200.34 58.5696 200.34 58.5211C200.34 58.4726 200.389 58.4726 200.389 58.3757L200.437 58.2303ZM191.566 59.8784H192.73C192.681 59.733 192.681 59.5876 192.633 59.4421C192.439 58.5211 192.196 57.1153 192.148 56.2428L192.1 56.1943H191.857C191.566 56.1458 190.888 55.9519 190.403 55.9519C189.967 55.9519 189.821 56.0489 189.821 56.0489C189.821 56.0489 189.773 56.1458 189.87 56.3882L189.967 56.5821L189.87 56.776C189.239 58.2787 189.239 59.733 189.239 61.3812V62.0598C189.773 60.7995 190.548 60.0723 191.566 59.8784V59.8784Z" fill="black"/>
</svg>
