<svg width="46" height="46" viewBox="0 0 46 46" fill="none" xmlns="http://www.w3.org/2000/svg">
<g clip-path="url(#clip0_334_23)">
<path d="M24.0562 14.7386C25.7842 15.1748 27.4534 14.4044 27.7757 12.9944C28.0979 11.5994 26.9704 10.1024 25.2424 9.6662C23.5145 9.23 21.8452 10.0004 21.523 11.4104C21.2007 12.8054 22.3283 14.288 24.0562 14.7386Z" fill="#1777FF"/>
<path d="M26.2533 17.2093C23.0459 16.5841 20.8059 15.3637 19.1947 14.9569C18.2576 14.7097 17.0417 14.8261 16.4855 15.7417C15.812 16.8319 16.5 18.0817 17.5985 18.5899C27.2491 23.1097 28.2745 27.4843 26.2678 31.1317C22.8706 37.3375 10.8622 32.8609 10.8476 23.9521C10.8476 19.7521 13.4692 17.4703 13.5278 15.7117C13.5865 14.3023 12.283 12.9943 10.76 13.1539C7.31802 13.5181 6 19.7527 6 22.9789C6 32.8471 13.893 40.9999 23.5 40.9999C33.107 40.9999 41 32.8471 41 22.9789C41 14.6515 35.8162 7.66091 27.9516 5.17571C26.4873 4.71071 25.6378 5.23391 25.3301 5.96051C24.9492 6.83231 25.286 7.79171 26.5018 8.32931C28.1421 9.05591 29.24 9.85511 30.0605 10.5967C33.4728 13.7503 30.5 18.0373 26.2527 17.2093" fill="#1777FF"/>
</g>
<defs>
<clipPath id="clip0_334_23">
<rect width="35" height="36" fill="white" transform="translate(6 5)"/>
</clipPath>
</defs>
</svg>
