<svg width="128" height="128" viewBox="0 0 128 128" fill="none" xmlns="http://www.w3.org/2000/svg">
<path d="M73.1705 23.5318C73.339 23.7008 74.351 26.9088 75.5315 27.5843C76.7115 28.0908 81.4335 26.7398 83.6255 29.7793C84.6375 31.8053 83.1195 32.6493 84.4685 33.8318C93.0685 38.8968 94.5865 32.6498 97.9585 38.3903C99.4765 43.2873 92.057 42.2743 90.202 47.6773C89.696 46.6643 87.6725 45.6508 86.998 45.1443C80.9275 41.4298 73.845 39.9103 66.4255 41.9363C52.2605 45.8198 43.8295 60.0033 47.539 74.1863C51.4175 88.3698 65.751 96.6433 79.9155 92.7598C84.1315 91.5778 89.1905 88.8763 92.2255 86.1748C94.755 84.3173 96.947 81.1098 99.139 80.0963L98.939 80.3513C98.516 80.9063 97.5455 82.2573 97.284 83.3043L97.3255 83.3103C97.4905 83.3253 98.1515 83.3043 99.308 82.2913C100.657 80.9403 101.5 78.5763 101.5 78.5763C101.331 79.4213 102.006 81.6163 99.4765 84.6553L99.1925 85.0288C97.7755 86.8653 96.4515 88.2008 96.61 88.2008C97.1155 88.0323 97.959 87.3568 99.139 86.6813C100.151 86.0063 101.5 83.3043 101.5 83.3043C101.5 84.4863 99.8135 89.2143 97.79 91.7468L97.5325 92.0948C94.3825 96.2878 90.7075 99.0073 90.7075 99.0073L90.252 99.3463C88.3705 100.729 86.37 101.966 82.782 103.06C61.0295 108.97 38.939 96.1368 33.206 74.6933C31.857 69.6278 31.857 63.8868 32.194 58.4833L31.9935 58.5993C31.1415 59.0738 27.6845 60.8473 23.594 60.8473C18.704 60.8473 15.5 56.9638 15.5 52.4048C15.5 48.1838 20.39 42.6118 20.39 42.7808L20.385 43.0058C20.378 43.9553 20.585 47.5283 24.606 47.6773C33.712 46.8328 38.096 39.7413 45.1785 33.8318L46.19 32.9873C50.316 29.5173 55.25 26.6933 61.465 24.9923L61.8725 24.8823C65.5825 23.8693 69.461 23.3628 73.1705 23.5318ZM84.9755 57.4998C87.1555 57.4998 89 59.3633 89 61.5658V73.9338C89 76.1363 87.1555 77.9998 84.9755 77.9998H65.525C63.345 77.9998 61.5005 76.1363 61.5005 73.9338V61.5658C61.5005 59.3633 63.345 57.4998 65.525 57.4998H84.976H84.9755Z" fill="#D80C18"/>
</svg>
