<svg width="128" height="128" viewBox="0 0 128 128" fill="none" xmlns="http://www.w3.org/2000/svg">
<path fill-rule="evenodd" clip-rule="evenodd" d="M32.6136 100.402H30.1796V85.113H32.6136V90.3733H32.6622C33.3993 89.5277 34.5179 89.0339 35.9729 89.0339C38.3696 89.0339 39.8881 90.3175 39.8881 92.7972V100.402H37.4513V93.4422C37.4026 91.7106 36.7192 90.9575 35.2916 90.9575C33.6645 90.9575 32.6136 92.2405 32.6136 93.871V100.402ZM47.7529 91.2607H41.7662V89.3349H51.0452V91.0466L44.9098 98.4785H51.3654V100.402H41.6365V98.6905L47.7529 91.2607ZM62.2364 94.879C62.2364 97.17 61.1905 99.5904 58.6217 99.5904C55.7596 99.5904 54.7553 97.17 54.7553 94.879C54.7553 92.5873 55.7596 90.1684 58.6217 90.1684C61.1905 90.1684 62.2364 92.5873 62.2364 94.879ZM54.6504 100.402H53.4069V85.113H54.7555V91.4514H54.7971C55.3761 89.8654 56.98 89.0339 58.622 89.0339C61.9827 89.0339 63.5852 91.7495 63.5852 94.8791C63.5852 98.0066 61.9827 100.726 58.622 100.726C56.8474 100.726 55.3091 99.8066 54.6906 98.304H54.6504V100.402ZM68.9086 99.4987C71.2756 99.4987 72.7377 97.8922 72.7377 96.1225L72.682 93.5588H72.6397C72.5332 93.7305 71.4752 94.0993 70.7311 94.2271C70.5895 94.2526 70.449 94.2772 70.3099 94.3016L70.3081 94.3019L70.308 94.3019C68.1973 94.6715 66.4259 94.9817 66.4259 97.4055C66.4259 98.7053 67.644 99.4987 68.9086 99.4987ZM65.7772 91.002C65.7772 91.002 67.6188 90.2454 69.82 90.2454C71.4056 90.2454 72.5616 90.7272 72.5616 91.7869C72.5616 92.5576 71.7497 92.8621 69.1528 93.2415C66.74 93.5919 64.9753 94.6042 64.9753 97.1446C64.9753 99.3735 66.7491 100.726 68.7811 100.726C70.897 100.726 72.0178 99.7896 72.7964 98.4784V100.517H74.0843L74.0822 92.5873C74.0822 89.628 71.9663 89.0338 70.0182 89.0338C67.4467 89.0338 65.8047 89.8279 65.8047 89.8279L65.7772 91.002ZM76.7482 100.402H78.0897V93.9522C78.1384 91.7939 79.4171 90.1684 81.5535 90.1684C83.7364 90.1684 84.3578 91.5983 84.3578 93.5029V100.402H85.7007V93.2909C85.7007 90.6601 84.764 89.0338 81.6607 89.0338C80.1006 89.0338 78.6293 89.9324 78.1384 91.2606H78.0897V89.3468H76.7482V100.402ZM89.5925 100.402H88.2419V85.113H89.5925V94.7095L95.7005 89.3468H97.5039L92.7918 93.4422L97.8206 100.402H96.1321L91.7733 94.3825L89.5925 96.2108V100.402Z" fill="#636463"/>
<path fill-rule="evenodd" clip-rule="evenodd" d="M65.3999 28.8991C65.1851 29.0079 65.076 29.0079 64.9696 29.0079C64.3239 29.1148 63.8909 28.8991 63.8909 28.5758C63.8909 28.3595 64.4329 28.2479 64.9696 28.3595C65.076 28.3595 65.2935 28.3595 65.3999 28.4663C65.3999 28.4663 65.5029 28.4663 65.5087 28.5668C65.5059 28.5176 65.4798 28.4918 65.4539 28.4661C65.4268 28.4393 65.3999 28.4125 65.3999 28.3595C64.9696 28.0295 64.7521 27.4899 65.2935 27.2742H65.3999C65.7245 27.2742 66.1554 27.709 66.0504 28.4663C66.1554 27.709 66.8032 27.381 67.2362 27.4899C67.7749 27.8138 67.2362 28.3595 66.3723 28.5758C66.9116 28.4663 67.5574 28.4663 67.884 28.6827C67.9904 28.6827 67.9904 28.7922 67.9904 28.8991C67.9904 29.0079 67.9904 29.1148 67.884 29.2263C67.6685 29.4427 67.018 29.3359 66.3723 29.0079C67.1291 29.5475 67.2362 30.1987 66.8032 30.3055C66.2659 30.4164 65.8329 29.9823 65.8329 29.1148C65.8329 29.5475 65.6181 29.7659 65.3999 29.9823C65.2935 30.0939 65.076 30.0939 64.9696 30.0939H64.7521C64.3239 29.8775 64.2127 29.5475 64.9696 29.1148C65.0361 29.1148 65.1036 29.0731 65.1972 29.0153C65.2535 28.9805 65.3192 28.9399 65.3999 28.8991ZM56.229 41.7927C56.1226 42.4432 57.2007 42.7691 58.9279 42.2255C56.7684 43.0944 56.5549 44.0688 57.4162 44.394C58.0619 44.6124 59.1434 44.0688 59.5736 42.5534C59.4693 43.3088 59.4693 43.8504 59.68 44.2831C59.8975 44.7173 60.3285 44.8268 60.7588 44.7173C61.6247 44.394 61.5204 43.1992 60.3285 42.3364C61.3029 42.878 62.0577 42.9835 62.488 42.7691C62.8099 42.6576 63.0254 42.4432 63.0254 42.1187C63.1338 41.7927 62.9203 41.575 62.488 41.4682C62.0875 41.3656 61.4059 41.3585 60.7031 41.6208C62.0177 41.071 62.8877 40.1474 62.0577 39.6289C61.4066 39.2989 60.3285 39.9474 59.8975 41.3579C60.1123 40.4911 60.0059 39.8426 59.68 39.5173C59.4693 39.2989 59.1434 39.2989 58.8215 39.2989C57.7407 39.6289 58.2794 41.0354 59.1434 41.575C57.7407 40.9238 56.3374 41.0354 56.229 41.7927ZM60.546 41.6839C60.599 41.6634 60.6514 41.6424 60.7031 41.6208C60.6508 41.6403 60.5984 41.6613 60.546 41.6839ZM99.4973 52.1932C100.039 52.3047 100.039 53.599 99.7121 54.1433C99.9235 53.933 101.477 53.3109 101.742 54.1041C101.74 54.1501 101.748 54.1967 101.762 54.244C101.718 55.019 100.039 55.1177 100.039 55.1177C101.117 55.4477 101.654 56.4207 101.439 56.7439C101.006 57.2883 99.7121 56.2043 99.4973 55.6627C99.6057 56.5275 99.6057 56.961 99.1727 57.3951C98.6313 57.5019 98.4185 57.2883 98.3094 56.961C98.2703 56.961 98.2318 56.9749 98.1887 56.9977C98.1732 56.711 98.1682 56.252 98.4184 55.7233H97.8763C97.8481 55.7336 97.8191 55.7438 97.7897 55.7542L97.7894 55.7543C97.483 55.8625 97.1335 55.986 97.2305 56.2949C97.3396 56.5214 97.5544 56.6343 97.8763 56.7507L97.8821 56.7568C97.9595 56.8384 98.0365 56.9196 98.1123 57.0426L98.0887 57.0574C98.0306 57.0938 97.9623 57.1365 97.8765 57.1787C97.3398 57.5019 96.6913 57.5019 96.4738 57.3951C95.5062 57.2883 95.1803 57.5019 95.0732 58.262C94.967 59.4284 96.4144 59.0346 97.5922 58.7142L97.6637 58.6947C97.7727 58.588 97.7728 58.5879 97.8762 58.478L97.8765 58.4777C98.094 58.1531 98.094 57.9388 98.094 57.9394L98.6313 58.4777C98.8488 58.4777 99.0643 58.5879 99.1727 58.6947C99.4468 58.6947 99.7353 58.6089 100.033 58.5203C100.555 58.3649 101.104 58.2012 101.654 58.4777C101.654 58.4777 101.763 58.8083 102.303 59.4521C102.346 59.4974 102.389 59.5772 102.441 59.6706C102.515 59.8073 102.606 59.9731 102.735 60.1032C102.679 60.1032 102.597 60.076 102.515 60.0491C102.435 60.0226 102.355 59.9964 102.303 59.9964C99.9276 59.3473 98.9579 59.9964 98.6313 60.6462C98.3187 61.0691 98.9213 61.6904 98.9563 61.7265L98.9579 61.7281L97.8765 61.6206L96.9068 61.5097C96.6443 61.775 96.3831 61.9674 96.0619 62.204L96.0617 62.2041L96.0617 62.2041C95.9867 62.2594 95.9084 62.3171 95.826 62.3786L82.9875 71.4835L70.687 80.2544L67.8838 82.2066L65.3997 84.0479L64.9694 84.3751L63.7843 85.1331L62.488 84.2676L59.6801 82.3134L55.3678 79.2807L48.2448 74.2965L42.5272 70.2867L36.916 66.3891L35.9443 65.7393L33.8973 64.3288L29.5803 61.2974C28.0672 60.4285 28.0672 59.018 29.5803 59.4521C29.6549 59.4714 29.7359 59.4937 29.82 59.517L29.8201 59.517C30.222 59.6279 30.6943 59.7584 30.8725 59.6678C31.5646 59.2643 31.6408 58.5195 31.3809 58.0949L31.4746 58.0596C32.1486 57.805 32.9478 57.5032 33.6775 57.8888C33.7866 57.8888 33.897 58.001 33.897 58.1132C34.1104 58.4569 34.002 58.9113 33.897 59.2535C33.897 59.3657 33.7866 59.4849 33.7866 59.4849H33.897H34.9757C34.8673 59.3657 34.2168 58.2261 34.7589 58.001C34.8673 57.8888 35.2976 57.8888 35.944 58.1132C36.2679 58.2261 36.5945 58.3425 36.9157 58.5726C37.0374 58.6349 37.1611 58.7363 37.3046 58.8539L37.3046 58.8539L37.3047 58.8539C37.4128 58.9426 37.5322 59.0404 37.6706 59.1377L37.6666 59.1253C37.557 58.7806 37.3435 58.1091 36.9157 57.7738C36.7009 57.4323 36.3763 57.2051 36.1615 57.2051C36.0551 57.2051 35.944 57.0901 35.944 57.0901C35.4667 57.0901 35.0548 57.1952 34.7642 57.2694L34.7642 57.2694C34.5305 57.329 34.3754 57.3686 34.3279 57.3173C34.2715 57.3173 34.2162 57.2006 34.1474 57.0554C34.081 56.915 34.0019 56.7481 33.897 56.6343H33.7866C33.6775 56.6343 33.6775 57.4323 33.6775 57.4323C33.5578 57.4323 33.2727 57.2576 32.9869 57.0825C32.7581 56.9423 32.5288 56.8019 32.3839 56.7507C31.9228 56.7507 31.5847 57.1086 31.2376 57.4758C31.1391 57.5801 31.0398 57.6851 30.9368 57.7829C30.7063 57.7485 30.4236 57.8476 30.1197 58.1531C29.2564 59.018 28.0672 59.018 28.0672 58.4777C27.9982 58.0674 28.363 57.9608 28.9135 57.8C29.233 57.7066 29.6151 57.595 30.0113 57.3951C30.4665 57.1673 30.655 56.8295 30.8401 56.498C30.9176 56.3592 30.9944 56.2215 31.09 56.0934C30.9836 55.8791 30.8725 55.5545 30.8725 55.2259C30.657 56.0934 30.1197 56.6371 29.5803 56.4207C28.9325 56.2043 29.148 55.2259 29.7978 54.4679C29.148 54.7978 27.8538 54.4679 28.0672 53.818C28.1804 53.1709 29.0389 53.2778 29.9049 53.7126C29.2564 53.1709 29.0389 52.0856 29.4719 51.8693C30.1197 51.4372 30.657 52.4116 30.657 53.4921C30.8725 52.7368 31.4139 51.8693 32.0597 52.1932C32.599 52.4116 32.0597 53.599 31.5223 53.818C31.9533 53.7126 32.599 53.7126 32.8165 53.818C32.8165 53.388 33.3586 53.1709 33.8973 53.1709C34.6501 53.1709 35.2979 53.4921 34.8676 54.0365C34.8676 54.0365 34.3283 54.6849 34.6501 55.1177C34.976 55.4477 35.5134 55.2259 35.9443 54.7978C36.0555 55.1177 36.2682 55.3374 36.5948 55.3374C36.6488 55.2808 36.7034 55.2529 36.7579 55.225C36.8108 55.198 36.8636 55.171 36.916 55.1177C37.0821 54.9509 37.0558 54.6502 37.0359 54.4234L37.0359 54.4234C37.0303 54.3587 37.0251 54.3 37.0251 54.2522C37.1295 54.9033 37.6709 55.4477 38.2102 55.2259C38.6432 54.9033 38.1032 53.9289 37.5625 53.9289C38.1938 53.7538 38.4858 53.8234 38.6558 53.864C38.6701 53.8674 38.6836 53.8706 38.6964 53.8735C38.4074 53.5638 37.425 53.2724 36.916 53.171C36.7012 53.171 36.5948 53.0601 36.5948 53.0601C36.8096 53.599 36.3766 54.361 35.9443 54.7979L35.8352 54.6843C35.8352 54.6401 35.8538 54.5955 35.8757 54.5432C35.9067 54.4688 35.9443 54.3788 35.9443 54.2522C35.9443 54.2071 35.9634 54.1624 35.9857 54.11C36.0173 54.0358 36.0554 53.9461 36.0554 53.8181C36.0554 53.929 35.9443 53.929 35.9443 53.929C35.0831 53.929 34.4346 52.9532 35.1915 52.9532L35.8352 53.0601C34.976 51.9788 35.5134 51.5447 35.9443 51.7604V51.8693C36.3716 52.0831 36.4812 52.404 36.5909 52.7255L36.5948 52.7368C36.6351 52.6548 36.6602 52.5259 36.6875 52.3857C36.7321 52.1561 36.7827 51.896 36.916 51.7604L37.0251 51.6536C37.3893 51.6536 37.5217 51.9623 37.6194 52.1901L37.6195 52.1902C37.6374 52.2319 37.6541 52.2709 37.6708 52.3048C37.6708 52.5205 37.6708 52.7368 37.5624 53.171C37.6708 53.0601 38.8607 53.0601 38.9651 53.7126C38.8742 53.8951 38.817 53.9006 38.6965 53.8735C38.703 53.8806 38.7103 53.8875 38.7176 53.8944C38.7299 53.906 38.742 53.9175 38.7496 53.9289C39.4001 54.7978 40.8027 54.4679 40.4761 53.1709C41.3401 53.4921 41.662 53.06 41.662 52.8437C41.662 52.6273 41.3401 52.3047 41.0182 52.5204C40.2613 52.7368 39.6129 52.4116 39.5065 51.7604C39.4001 52.3047 39.0755 53.06 38.5368 52.7368C37.9948 52.5204 38.4277 51.7604 38.7496 51.4372C36.4837 52.0856 36.8096 49.7034 38.7496 50.4614C36.916 49.4843 39.1806 47.8601 39.6129 49.8123C39.5065 47.8601 41.8795 48.8338 40.3698 50.0287C41.662 49.1618 42.0943 50.0287 41.8795 50.4614C41.4485 50.8982 42.0943 51.4372 42.5272 51.2167C42.74 51.1099 42.8538 50.8982 42.9575 50.5703L42.9186 50.5299C42.8059 50.4134 42.6217 50.2232 42.5272 50.0287C42.4208 49.5939 42.4208 49.0502 42.5272 48.4017C42.6336 48.0758 42.8538 47.7506 43.173 47.4274C43.173 47.4274 44.0383 47.971 44.1454 49.2707C44.2533 48.732 45.0997 47.7709 46.3734 48.8005C46.3869 48.8119 46.4004 48.823 46.4139 48.8338C46.4004 48.8225 46.3869 48.8114 46.3734 48.8005C45.851 48.3586 45.4369 47.526 45.3332 47.1021C45.6571 47.1021 46.3028 47.3185 46.8463 48.1874C46.7338 47.971 46.3028 47.1021 46.4139 46.5605C46.4139 46.5605 47.1661 46.7748 47.2732 46.9926C47.488 46.4509 47.8146 46.1264 48.2448 45.91C48.8906 45.5841 49.7566 45.6956 49.9714 46.2346C50.2959 46.6693 50.2959 46.6693 50.2959 47.2089C50.4023 46.8884 50.7282 46.3421 51.3767 46.0195C51.4811 46.5605 51.2683 47.3185 51.0501 47.7506L51.0864 47.7146L51.0864 47.7146C51.4079 47.3959 51.8188 46.9887 52.2353 46.8884C52.3443 47.6437 51.9141 48.4017 51.2683 49.0502C51.2683 49.0502 53.4251 48.7263 53.2103 47.5369C53.137 47.3901 52.9666 47.2442 52.7975 47.0994L52.7975 47.0994L52.7975 47.0994C52.7151 47.0288 52.6329 46.9585 52.5625 46.8884C52.1289 46.1264 52.1289 45.4792 52.3443 44.7172C52.4528 44.7172 52.5625 45.0424 52.5625 45.2615C52.6689 44.8267 52.7773 44.5008 52.8837 44.394C52.8837 44.394 53.1012 44.613 53.2103 45.0424C53.2197 45.0045 53.2291 44.9648 53.2388 44.9238C53.3392 44.5006 53.4726 43.9382 53.9625 43.7428C54.0689 43.8503 54.0689 44.1776 54.0689 44.394C54.18 44.0687 54.3954 43.7428 54.6109 43.7428C54.7193 43.8503 54.6109 44.1776 54.5018 44.2831C54.7193 44.0687 54.9348 44.0687 54.9348 44.0687C54.9348 44.2831 54.9348 44.394 54.8284 44.5008C54.8722 44.5008 54.9342 44.4827 55.0073 44.4615C55.112 44.431 55.2393 44.394 55.3678 44.394H55.5806L55.5805 44.394C55.4764 44.5006 55.4762 44.5008 55.3683 44.6125L55.3678 44.613C55.2567 44.8267 55.2567 44.9329 55.3678 45.0424L55.3717 45.0464C55.4788 45.1546 55.5845 45.2615 55.9065 45.2615C55.6917 45.4792 55.5806 45.5841 55.3678 45.6956C55.2567 45.8025 55.0432 45.91 54.8284 45.91C54.9534 45.91 55.0779 45.947 55.182 45.9781C55.2569 46.0004 55.3213 46.0195 55.3678 46.0195C55.6821 46.1232 55.7897 46.2281 55.8967 46.3325L55.9065 46.3421C55.9065 46.5605 55.6917 46.7748 55.3678 46.8884C55.3116 46.8884 55.2565 46.915 55.202 46.9413C55.1486 46.9671 55.0958 46.9926 55.0432 46.9926C55.0958 46.9926 55.1486 47.0194 55.202 47.0464C55.2565 47.0741 55.3116 47.1021 55.3678 47.1021C55.7961 47.2089 56.3374 46.8884 56.4465 46.3421C56.9474 46.6436 57.0765 47.108 57.1998 47.552C57.3425 48.0658 57.4776 48.5522 58.1731 48.7263C57.8742 47.8899 57.9049 47.4171 57.9379 46.9066C57.9649 46.4911 57.9934 46.0505 57.8471 45.3684C57.8801 45.3853 57.9156 45.4022 57.9525 45.4197C58.1567 45.5166 58.4043 45.634 58.4949 45.91C58.4949 45.8655 58.5131 45.8212 58.5345 45.7692C58.5647 45.6954 58.6013 45.6062 58.6013 45.4792C59.2518 46.2346 59.7912 46.9926 59.5737 48.6181C59.5737 48.7263 59.6801 48.8338 59.6801 48.8338C59.7912 48.8338 59.8976 48.7263 59.8976 48.5086C59.7912 47.2089 60.3285 46.0195 61.3029 45.4792C61.4066 45.6956 61.4066 46.8884 61.0874 47.7506C60.9763 48.0758 61.5204 48.4017 61.6248 47.4274C61.6248 46.5324 62.0795 46.5498 62.3193 46.5589C62.3411 46.5597 62.3612 46.5605 62.3789 46.5605L62.488 46.4509C62.7055 46.1264 63.0254 46.0195 63.4577 46.1264C63.0254 45.8025 63.1338 45.2615 63.2449 45.152C63.6732 44.613 64.2125 44.613 64.9694 44.613H65.3997H65.6179C65.5633 44.613 65.5361 44.585 65.5088 44.5569C65.4815 44.5289 65.4542 44.5008 65.3997 44.5008L65.373 44.4738C65.1757 44.2739 65.0713 44.1683 64.9694 43.9571C64.5391 43.3087 64.5391 42.5534 64.8583 42.3363H64.9694H65.3997C65.9391 42.5534 66.4784 43.1991 66.6986 44.1776C66.803 43.0943 67.3424 42.2254 67.8838 42.1186H68.0992C68.745 42.3363 68.3141 43.5264 67.8838 44.2831C67.8421 44.3255 67.8163 44.3673 67.7945 44.4027C67.7591 44.46 67.734 44.5008 67.6683 44.5008H67.8838C69.2844 44.1776 70.1497 44.5008 70.2561 44.9329C70.3651 44.7172 70.4742 44.613 70.687 44.5008C70.7954 44.394 70.9018 44.394 71.0129 44.394C72.2008 44.1776 73.062 45.0424 73.7078 46.0195C72.9529 46.3421 73.3859 47.4274 73.9232 47.7506C72.9529 47.3185 71.8769 47.4274 71.7678 47.971C71.6614 48.4017 72.5206 48.7263 73.8169 48.2942C72.0923 48.9427 71.9806 49.7034 72.7361 49.9191C73.1684 50.1355 74.0317 49.7034 74.2471 48.5086C74.1407 49.8123 74.5737 50.3519 75.3279 50.1355C75.9764 49.9191 75.8673 49.0502 74.8956 48.4017C76.0801 49.0502 77.0551 48.8338 77.1615 48.1874C77.1615 47.5369 76.0801 47.5369 75.002 47.8601C76.0801 47.4274 77.0551 46.6693 76.2982 46.2346C75.8673 46.1264 75.3279 46.3421 75.002 46.7748C75.002 46.7748 74.8956 45.4792 76.0801 44.1776C76.4066 44.394 76.6221 44.613 77.0551 45.5841C77.0551 44.8267 77.1615 44.1776 77.4854 43.8503C77.5046 43.87 77.5265 43.8914 77.5506 43.915C77.7946 44.1535 78.2694 44.618 78.5641 45.8025C78.6732 46.3421 78.9971 46.3421 79.1062 45.8025C79.2126 45.152 79.752 43.8503 80.5068 43.5264C80.5068 44.2831 80.5068 45.152 79.8584 46.3421C80.1917 46.3421 80.5259 45.9404 80.9066 45.4829C81.388 44.9044 81.9437 44.2365 82.6663 44.1776C82.1243 44.2831 81.9094 44.9329 82.8791 45.0424C82.3397 46.2346 81.0435 46.9926 81.0435 46.9926C81.4982 47.0694 81.8466 46.8795 82.2745 46.6464C82.4568 46.547 82.6536 46.4398 82.8791 46.3421H82.9875C83.3101 46.3421 83.7424 46.7748 83.2037 47.2089C83.0654 47.302 83.202 47.3356 83.4043 47.3855C83.677 47.4527 84.069 47.5492 84.069 47.8601C84.069 48.0758 83.7424 48.1874 83.636 48.1874C83.636 48.2942 83.8508 48.4017 84.1754 48.4017C84.069 48.5086 83.8508 48.7263 83.5269 48.7263C83.8521 48.7908 83.9422 48.9739 84.0092 49.11C84.0539 49.2007 84.0883 49.2707 84.1754 49.2707C83.9957 49.4496 83.7498 49.4631 83.5113 49.4763C83.319 49.4869 83.1315 49.4973 82.9875 49.5939C82.9331 49.5939 82.906 49.6215 82.879 49.649C82.8523 49.6763 82.8257 49.7034 82.7727 49.7034C82.6663 50.0287 82.6663 50.3519 82.9875 50.5703C83.636 51.0044 85.2541 50.8982 86.0089 50.0287C86.5503 49.3775 87.5207 48.8338 88.4903 49.1618C89.6692 49.4325 90.1636 50.3913 90.3538 50.7602L90.3539 50.7604L90.354 50.7605C90.3904 50.831 90.4156 50.8799 90.4323 50.8982C90.5434 51.1099 90.5434 51.2167 90.5434 51.3256C90.5942 51.317 90.6464 51.3084 90.6995 51.2997C91.3191 51.1978 92.0609 51.0759 92.1589 50.6792C92.2152 50.537 91.9545 50.4248 91.5425 50.2474C90.3787 49.7462 88.0078 48.7251 88.1684 45.0424C89.4299 46.9142 90.4578 47.3727 91.3449 47.7685C92.0499 48.0829 92.6659 48.3577 93.2396 49.2707C93.5186 48.2286 92.7338 46.7767 92.3873 46.1358C92.3365 46.0418 92.2952 45.9652 92.2679 45.91C95.0732 48.0758 95.3978 48.5086 94.3163 50.1355C94.0097 50.6989 94.3809 50.7289 94.9713 50.7766C95.6281 50.8297 96.5562 50.9047 97.1243 51.7604C96.4705 51.5435 96.1096 51.716 95.617 51.9515C95.3754 52.0669 95.1022 52.1975 94.7473 52.3047C93.5868 52.6218 92.8133 52.447 92.1617 52.2998C91.4822 52.1463 90.9353 52.0227 90.2202 52.5184H90.2162L90.1105 51.8693C89.9809 51.888 89.842 51.9003 89.7018 51.9128C89.0228 51.9731 88.3134 52.036 88.4903 52.8437C88.6852 53.6254 88.7233 53.5851 89.0051 53.2872L89.0051 53.2872C89.1918 53.0899 89.4853 52.7796 90.002 52.5204C90.0167 52.5204 90.0363 52.5201 90.0597 52.5197L90.0598 52.5197C90.1019 52.5189 90.1561 52.518 90.2162 52.5184L90.2169 52.5204L90.2177 52.5197L90.2191 52.519C90.2195 52.5188 90.2199 52.5187 90.2202 52.5184C90.6182 52.5204 91.3798 52.6016 91.7286 53.388C91.835 53.7126 91.835 55.0122 91.2956 55.8791C91.0808 56.3139 90.9717 56.8535 90.9717 57.3951C90.8633 55.9859 89.895 55.7702 89.4627 56.2043C88.5967 56.8535 89.5691 57.8292 90.4323 57.8292C89.0297 57.9394 87.951 58.5879 88.0621 59.1288C88.1684 59.7773 89.2472 59.5636 90.5434 58.4777C88.9206 60.1032 89.1401 60.8626 90.002 60.8626C90.5434 60.8626 91.402 59.8842 91.1872 58.5879C91.5131 59.8842 92.3743 60.3189 93.0228 59.7773C93.6686 59.2364 93.1292 58.3708 91.7286 58.0436C93.346 58.1531 94.3163 57.5019 94.1009 56.8535C94.0008 56.1384 92.7549 56.4804 91.7969 57.2459C92.7676 56.3859 93.2858 55.2198 92.2679 55.1177C92.2679 55.1177 92.1589 55.2259 92.0525 55.2259C92.1359 55.1432 92.1385 54.9949 92.1414 54.8254C92.1461 54.557 92.1518 54.2354 92.4807 54.0365C92.8073 53.818 93.2396 54.1433 93.346 55.0122C93.7797 53.7126 94.8584 53.4921 95.2887 53.9289C95.7217 54.4679 95.3978 55.3374 94.6429 55.8791C95.4161 55.938 95.8601 55.6354 96.3561 55.2974C96.7598 55.0223 97.1981 54.7237 97.8765 54.5774H98.094C97.9855 54.5774 97.8765 54.4679 97.8765 54.4679C97.2307 54.1433 96.4738 53.2778 96.9068 52.8437C97.0132 52.5204 97.4462 52.6273 97.8765 52.8437C98.199 53.06 98.6313 53.4921 98.8488 54.0365C98.6313 53.388 98.7404 52.0856 99.4973 52.1932ZM91.6202 57.3951C91.6805 57.3466 91.7395 57.2968 91.7969 57.2459C91.7368 57.294 91.6777 57.3438 91.6202 57.3951ZM44.1453 56.8658C43.7587 56.7833 43.5945 56.6421 43.4123 56.4853C43.3403 56.4234 43.2654 56.3591 43.173 56.2949C43.2821 56.5214 43.4996 57.0901 43.2821 57.4323C43.0666 57.6617 42.74 57.3173 42.6336 57.2051L42.5272 57.0901C42.5272 57.0199 42.4855 56.9046 42.4276 56.7445L42.4276 56.7444L42.4276 56.7444L42.4276 56.7443L42.4275 56.7443L42.4275 56.7443L42.4275 56.7442L42.4275 56.7442L42.4275 56.7442L42.4275 56.7441L42.4274 56.744L42.4274 56.7438L42.4273 56.7437L42.4273 56.7437C42.3928 56.6481 42.3524 56.5366 42.3117 56.4092C42.2033 56.5214 41.3401 57.2051 40.9071 56.6343C40.9071 56.3384 41.2302 56.1875 41.5145 56.0547C41.6648 55.9845 41.8042 55.9193 41.8794 55.8405C41.5549 55.9563 40.8027 55.499 40.6943 55.3847C40.5437 55.2264 40.6527 55.1774 40.7689 55.1251C40.8211 55.1016 40.8748 55.0774 40.9071 55.0425C41.3401 54.9275 41.773 55.0425 42.2033 55.3847C42.2033 55.3158 42.1545 55.2267 42.0979 55.1233C41.966 54.8824 41.7917 54.5641 42.0942 54.2452H42.3117H42.5272C42.68 54.2452 42.7231 54.3052 42.7774 54.3808C42.7987 54.4105 42.8217 54.4427 42.8538 54.4745C43.0666 54.701 43.0666 54.9275 43.0666 55.1554C43.173 55.0425 43.7124 54.8153 43.7124 54.8153C44.1453 54.5867 44.4692 55.0425 44.1453 55.2739L43.606 55.7234C44.9022 56.182 44.5756 56.7507 44.1453 56.8658ZM48.7315 52.141C48.7579 52.0844 48.7842 52.0281 48.7842 51.9724C48.7842 51.9724 48.6778 51.8581 48.6778 51.7452L49.5363 51.5137C49.5843 51.5137 49.6309 51.534 49.6848 51.5575C49.759 51.5897 49.847 51.628 49.9713 51.628C50.0784 51.628 50.1875 51.5137 50.1875 51.2908C50.0784 51.1793 49.8649 51.1793 49.7565 51.1793C49.7216 51.2159 49.6981 51.2524 49.6746 51.289C49.6266 51.3637 49.5787 51.4384 49.4326 51.5137L48.6778 51.7452C48.5725 51.5162 48.4626 51.4039 48.3553 51.2943L48.3519 51.2908L48.7842 50.6056C48.8374 50.5509 48.919 50.5509 49.0006 50.5509C49.0823 50.5509 49.1639 50.5509 49.2171 50.4963C49.3235 50.3784 49.3235 50.2662 49.2171 50.1512C48.9996 50.039 48.8905 50.039 48.7842 50.2662C48.7128 50.3414 48.7371 50.4192 48.7609 50.4952C48.7726 50.5326 48.7842 50.5696 48.7842 50.6056L48.2448 51.1793C48.0293 51.0593 47.8145 51.0593 47.599 51.0593V50.2662C47.599 50.2184 47.6363 50.1904 47.6799 50.1578C47.741 50.112 47.8145 50.057 47.8145 49.9247C47.8145 49.8097 47.7054 49.6947 47.599 49.6947C47.3835 49.6947 47.2731 49.8097 47.3835 49.9247C47.3835 49.9818 47.4096 50.0383 47.4356 50.0949C47.4617 50.1517 47.4879 50.2086 47.4879 50.2662V51.0593C47.2731 51.0593 47.0576 51.0593 46.9512 51.1793L46.4139 50.4963C46.3495 50.4963 46.3597 50.4567 46.3797 50.3793C46.3942 50.323 46.4139 50.2468 46.4139 50.1512C46.3028 50.039 46.0853 50.039 45.9809 50.039C45.8725 50.1512 45.8725 50.3784 45.9809 50.3784C46.035 50.4395 46.0914 50.4689 46.1477 50.4983C46.2001 50.5256 46.2525 50.5529 46.3028 50.6056L46.8462 51.1793C46.788 51.2369 46.7315 51.3244 46.6754 51.4113L46.6753 51.4113L46.6753 51.4113C46.6229 51.4923 46.5709 51.5728 46.5183 51.628L45.657 51.4015C45.5479 51.4015 45.5208 51.3456 45.4938 51.2899C45.467 51.2345 45.4402 51.1793 45.3331 51.1793C45.224 51.0593 45.0065 51.1793 45.0065 51.2908C44.9022 51.4015 45.0065 51.5137 45.224 51.5137C45.2753 51.5674 45.3259 51.5459 45.3878 51.5196C45.4576 51.4899 45.5417 51.4542 45.657 51.5137L46.5183 51.7452C46.4139 51.8581 46.4139 51.9724 46.4139 51.9724V52.3139L45.5479 52.5389C45.503 52.5389 45.4583 52.5195 45.4061 52.4968L45.4061 52.4968L45.4061 52.4968C45.3324 52.4647 45.2437 52.4261 45.1176 52.4261C45.0065 52.4261 44.9022 52.5389 45.0065 52.7683C45.0065 52.8826 45.224 52.8826 45.3331 52.8826C45.3681 52.845 45.3916 52.8076 45.4151 52.7702C45.463 52.694 45.511 52.6176 45.657 52.5389L46.5183 52.3139C46.5183 52.5389 46.6273 52.6561 46.8462 52.7683L46.3028 53.4492C46.2506 53.5074 46.1962 53.5074 46.1283 53.5074C46.0604 53.5074 45.9789 53.5074 45.8725 53.5656C45.7654 53.6778 45.7654 53.7935 45.8725 53.9029C46.0853 54.015 46.1984 54.015 46.3028 53.7935C46.3583 53.7357 46.3583 53.6787 46.3583 53.6216C46.3583 53.5645 46.3583 53.5074 46.4139 53.4492L46.9512 52.8826C47.0576 52.9948 47.2731 52.9948 47.4879 52.9948V53.7935C47.4879 53.8381 47.4523 53.8645 47.41 53.8957C47.3486 53.9413 47.2731 53.9971 47.2731 54.1343C47.2731 54.2451 47.3835 54.3615 47.4879 54.3615C47.7054 54.3615 47.8145 54.2451 47.8145 54.1343L47.8029 54.1217C47.698 54.0071 47.599 53.899 47.599 53.7935V52.9948C47.8145 52.9948 48.0293 52.9948 48.1357 52.8826H48.2448L48.6778 53.5656C48.731 53.5656 48.731 53.5937 48.731 53.6498C48.731 53.706 48.731 53.7903 48.7842 53.9029C48.7842 54.015 48.9996 54.015 49.1107 54.015C49.2171 53.9029 49.2171 53.6778 49.1107 53.6778C49.0568 53.6233 49.0034 53.5953 48.9505 53.5676C48.8944 53.5382 48.8389 53.5091 48.7842 53.4492L48.2448 52.8826C48.3959 52.8024 48.4956 52.6658 48.5784 52.5523L48.5785 52.5523C48.6138 52.5039 48.646 52.4598 48.6778 52.4261L49.4326 52.6561C49.541 52.6561 49.5671 52.7124 49.5933 52.7688C49.6196 52.8256 49.6461 52.8826 49.7565 52.8826C49.8649 52.9948 50.0784 52.8826 50.0784 52.7683C50.1875 52.6561 50.0784 52.5389 49.8649 52.5389C49.8113 52.4831 49.7581 52.5112 49.7043 52.5397C49.6494 52.5687 49.5938 52.5981 49.5363 52.5389L48.6778 52.3139C48.6778 52.256 48.7047 52.1983 48.7315 52.141ZM57.4159 51.6281C56.9791 51.4754 56.7397 51.3246 56.4976 51.172C56.3807 51.0983 56.2631 51.0243 56.1224 50.9494C56.1477 51.0309 56.1917 51.1252 56.2395 51.2278C56.392 51.5553 56.5838 51.9669 56.3372 52.314C56.0153 52.5391 55.5803 52.199 55.3675 51.9725C55.283 51.8855 55.2008 51.6004 55.1194 51.3183C55.0939 51.2296 55.0684 51.1413 55.0429 51.0594C54.9345 51.1794 53.7494 51.9725 53.3164 51.4016C53.2388 50.9052 53.7332 50.7096 54.1316 50.552C54.2796 50.4934 54.4143 50.4401 54.5016 50.3785C54.0686 50.4964 53.1009 49.9248 52.9945 49.6948C52.777 49.4704 52.9945 49.3561 53.21 49.3561C53.7494 49.0118 54.3952 49.239 54.9345 49.6948C54.9076 49.609 54.8527 49.5083 54.7928 49.3984C54.6163 49.0745 54.3963 48.6707 54.7191 48.333L55.0429 48.2159H55.3675C55.5803 48.333 55.6914 48.4452 55.6914 48.4452C56.0153 48.7853 56.0153 49.1261 56.0153 49.4704C56.1224 49.239 56.7681 48.8989 56.7681 48.8989C57.4159 48.6703 57.8469 49.239 57.4159 49.5826L56.6611 50.0391C58.2792 50.7207 57.9553 51.5138 57.4159 51.6281ZM69.8236 45.7167C69.1778 45.7167 68.5293 45.5995 67.8836 45.373H67.7745L67.8836 45.4895C68.3139 45.9418 68.9623 46.6248 68.7448 47.1935C69.0687 46.8498 69.6101 46.0568 69.8236 45.7167ZM66.9112 46.2825C67.1287 46.9691 67.4505 47.3056 67.8835 47.535H67.9899L67.8835 47.65C67.2357 47.8743 66.5873 47.65 66.2654 47.1934C66.6929 46.9719 66.8 46.6335 66.907 46.2956L66.9112 46.2825ZM65.4957 45.9332C65.4721 45.9417 65.4455 45.9417 65.3995 45.9417L65.3995 45.9417C65.3379 46.0083 65.312 46.0363 65.2801 46.0481C65.2568 46.0567 65.2304 46.0567 65.1847 46.0567L65.2931 46.1689H65.3995C65.4542 46.1127 65.4814 46.0558 65.5087 45.9989C65.536 45.9421 65.5632 45.8852 65.6177 45.8288C65.5546 45.8941 65.528 45.9216 65.4957 45.9332ZM64.9692 48.8988V48.7852C65.0756 48.7852 65.2931 48.7852 65.2931 48.8988C65.2931 49.126 65.2931 49.2389 65.1847 49.2389H64.9692C64.9041 49.1728 64.8772 49.1454 64.8446 49.134C64.8216 49.126 64.7958 49.126 64.7517 49.126C64.7914 49.0834 64.8163 49.0409 64.8376 49.0044L64.8377 49.0044C64.8736 48.9432 64.8996 48.8988 64.9692 48.8988ZM62.9202 51.7451C62.9202 51.9723 63.0253 52.0845 63.1337 52.0845C63.2448 52.0845 63.3512 51.858 63.3512 51.7451C63.3512 51.6961 63.3131 51.6676 63.2688 51.6345C63.2073 51.5884 63.1337 51.5332 63.1337 51.4015C63.1337 51.5332 63.0615 51.5884 63.001 51.6345C62.9576 51.6676 62.9202 51.6961 62.9202 51.7451ZM64.4317 51.628C64.3233 51.628 64.2122 51.628 64.1058 51.5137C64.1058 51.4763 64.1177 51.4389 64.1296 51.4017C64.1532 51.3275 64.1767 51.2536 64.1058 51.1793L63.6729 50.4963C63.5658 50.6056 63.351 50.6056 63.1335 50.6056C62.92 50.6056 62.7052 50.6056 62.5961 50.4963L62.4877 50.6056L62.1658 51.0593C62.0986 51.1338 62.1148 51.205 62.1368 51.3015C62.1502 51.3606 62.1658 51.4291 62.1658 51.5137C62.1118 51.5707 62.0847 51.5992 62.0574 51.5995C62.0299 51.5997 62.0021 51.5711 61.9463 51.5137C61.8393 51.5137 61.7329 51.2908 61.8393 51.1793C61.8928 51.1193 61.9473 51.1193 61.9885 51.1193C62.0297 51.1193 62.0574 51.1193 62.0574 51.0593L62.4877 50.4963L62.5961 50.3784H62.4877C62.3786 50.2663 62.2722 50.1512 62.2722 49.9247C62.2722 49.8097 62.1658 49.6947 62.1658 49.6947C62.1658 49.6389 62.1922 49.5831 62.2187 49.527C62.2454 49.4703 62.2722 49.4135 62.2722 49.356L61.6245 49.126C61.5721 49.0687 61.5174 49.0972 61.4628 49.1257C61.4085 49.154 61.3543 49.1823 61.3026 49.126C61.1915 49.126 61.0871 49.0117 61.0871 48.8988C61.1915 48.7852 61.3026 48.6702 61.4063 48.7852C61.5352 48.7852 61.5515 48.8643 61.5648 48.9291C61.574 48.9738 61.5818 49.0117 61.6245 49.0117L62.2722 49.2389C62.2722 49.126 62.3786 49.0117 62.4877 48.8988H62.5961L62.4877 48.6702L62.1658 48.2158L62.4877 48.558L62.5961 48.7852C62.8096 48.6702 62.92 48.6702 63.1335 48.6702V47.8743C63.1335 47.7679 63.0361 47.6616 62.9365 47.5529L62.92 47.5349C62.92 47.4206 63.0251 47.3056 63.1335 47.3056C63.351 47.3056 63.4574 47.4206 63.351 47.5349C63.351 47.6683 63.3143 47.7234 63.284 47.7688C63.2627 47.8008 63.2446 47.828 63.2446 47.8743V48.6702C63.351 48.6702 63.5658 48.6702 63.6729 48.7852L64.1058 48.2158C64.159 48.1608 64.159 48.1041 64.159 48.0469C64.159 47.9896 64.159 47.9318 64.2122 47.8743C64.2122 47.6499 64.4317 47.6499 64.5388 47.7621C64.6472 47.8743 64.6472 47.9893 64.5388 48.1057C64.4853 48.1608 64.4314 48.1608 64.377 48.1608C64.3227 48.1608 64.2678 48.1608 64.2122 48.2158L63.784 48.8988L63.7878 48.9029C63.893 49.0145 64.0007 49.1288 64.1058 49.356V49.6947V49.9247L64.7516 50.1512C64.8171 50.222 64.8422 50.2057 64.8778 50.1827C64.9 50.1683 64.9263 50.1512 64.9691 50.1512H65.0755C65.293 50.1512 65.293 50.2663 65.293 50.3784C65.293 50.6056 65.0755 50.6056 64.9691 50.4963C64.9129 50.4963 64.8852 50.4375 64.8577 50.3794C64.8308 50.3225 64.8042 50.2663 64.7516 50.2663L64.1058 50.0391C64.0067 50.2507 63.9052 50.3626 63.8058 50.4722L63.784 50.4963L64.1058 51.0593C64.1612 51.1218 64.2178 51.1517 64.2747 51.1818C64.3271 51.2095 64.3797 51.2373 64.4317 51.2908C64.5388 51.4016 64.5388 51.5137 64.4317 51.628ZM62.1658 48.2158C62.1039 48.1529 62.0774 48.126 62.0453 48.1144C62.0212 48.1057 61.994 48.1057 61.9463 48.1057C61.8393 47.9893 61.8393 47.7621 61.9463 47.6499C61.9938 47.6499 62.0209 47.6499 62.0449 47.6586C62.0772 47.6703 62.1037 47.6978 62.1658 47.7621C62.2403 47.9212 62.2105 48.026 62.1859 48.1123C62.1754 48.1492 62.1658 48.1828 62.1658 48.2158ZM62.2722 49.9247L61.6245 50.2663C61.5609 50.2663 61.5361 50.3078 61.5007 50.3669C61.478 50.4049 61.4508 50.4501 61.4063 50.4963C61.3026 50.6056 61.0871 50.4963 61.0871 50.3784C61.0871 50.2663 61.0871 50.0391 61.3026 50.0391C61.3543 50.0391 61.4086 50.067 61.463 50.095C61.5175 50.1231 61.5722 50.1512 61.6245 50.1512L62.2722 49.9247ZM68.853 53.337C68.6362 52.7683 69.5008 51.858 70.6866 51.4015C70.8624 51.3418 71.0371 51.3143 71.2287 51.2841C71.3923 51.2583 71.5682 51.2306 71.7674 51.1793C71.5924 51.1144 71.3861 51.0525 71.182 50.9912L71.182 50.9912L71.1818 50.9912C71.0083 50.9391 70.8364 50.8874 70.6866 50.8349C70.543 50.8349 70.3992 50.8222 70.2554 50.8095L70.2553 50.8095C69.9678 50.7841 69.6804 50.7587 69.3944 50.8349C68.9538 50.9492 68.7376 51.3889 68.5462 51.7781C68.3617 52.1533 68.2003 52.4814 67.8834 52.426L67.2356 52.0845C67.2356 52.0845 67.342 52.426 67.342 52.8826C67.342 53.073 66.9353 53.085 66.4635 53.0991C66.0942 53.11 65.6849 53.1222 65.3993 53.222C65.3373 53.289 65.2746 53.3551 65.2115 53.4216L65.2115 53.4216L65.2114 53.4216L65.2114 53.4217L65.2114 53.4217L65.1519 53.4844C65.1264 53.5113 65.1009 53.5383 65.0754 53.5656C65.0754 53.6212 65.0492 53.6493 65.0228 53.6775C64.996 53.7063 64.969 53.7352 64.969 53.7935C64.8579 54.015 64.7515 54.3615 64.5387 55.4989C64.5387 55.4989 64.7515 55.3846 64.969 55.1553C65.0009 55.1214 65.0331 55.0772 65.0683 55.0289C65.1504 54.9162 65.249 54.7809 65.3993 54.7009C66.0498 54.1343 66.911 53.6778 67.6679 53.7935L67.8834 54.015C68.0989 54.2451 68.0989 55.0424 68.0989 55.0424L69.6099 54.015C69.6099 54.015 68.9621 53.6778 68.853 53.337ZM85.039 55.2739C84.1751 55.7233 83.5266 55.7233 82.9872 55.6097C82.557 55.6097 82.124 55.7233 81.6917 56.0684L81.3718 55.3846C81.3718 55.3846 82.8788 54.9274 82.8788 54.4744C82.9083 54.3494 82.6822 54.3092 82.3266 54.246C81.375 54.0768 79.4964 53.7427 79.1053 51.1793C80.299 52.2138 81.1268 52.3822 81.8567 52.5307C82.2479 52.6102 82.611 52.6841 82.9872 52.8826C83.197 52.9914 83.3034 53.103 83.5077 53.3171L83.5266 53.337C83.5266 52.8826 83.3098 52.3139 82.9872 51.8581C82.7838 51.64 82.6228 51.4259 82.5039 51.2677C82.435 51.1761 82.3802 51.1033 82.3395 51.0593C82.557 51.1793 82.7724 51.2908 82.9872 51.4015C84.8229 52.3139 85.039 52.6561 84.499 53.7935C84.3437 54.2286 84.6348 54.194 85.0872 54.1404C85.5783 54.0821 86.2594 54.0014 86.7655 54.4744C86.265 54.4744 86.0489 54.6235 85.7103 54.8571C85.5369 54.9767 85.3313 55.1185 85.039 55.2739ZM72.0924 37.5645C72.4163 37.7856 72.3072 38.5409 72.3072 38.5409L73.6014 37.9993C73.6014 37.9993 73.1685 37.674 73.1685 37.3535C73.0621 36.7023 74.3556 36.3744 75.7609 36.1587C75.0021 36.0512 74.0317 35.5116 74.0317 35.5116C73.5466 35.5116 73.1952 35.9136 72.9195 36.2291C72.7666 36.4041 72.6369 36.5524 72.5207 36.5908L72.0924 36.1587C72.0924 36.1587 71.9806 36.5908 71.9806 36.8092C71.9248 36.8092 71.8464 36.8018 71.7513 36.7929C71.4845 36.7678 71.0863 36.7304 70.6871 36.8092C70.4743 36.8092 70.2561 36.8092 70.0433 37.0249C70.0433 37.0249 69.9639 37.2575 69.8103 37.5807C70.1403 37.6105 70.4514 37.6903 70.6871 37.8924C71.3355 37.674 71.9806 37.4577 72.0924 37.5645ZM65.3997 37.4577C65.2933 37.4577 65.0758 37.3536 64.9694 37.244C64.1062 36.8092 63.1338 36.4833 62.4881 36.2696C62.1662 36.1587 61.9467 36.1587 61.9467 36.1587C62.0086 36.0988 62.1027 36.0723 62.2112 36.0417C62.2974 36.0174 62.3926 35.9906 62.4881 35.9424C63.5661 35.6191 64.3237 35.1823 64.3237 35.1823C64.5392 35.1823 64.7519 35.2892 64.9694 35.4007C65.0241 35.4577 65.108 35.5137 65.1911 35.5692C65.2699 35.6219 65.348 35.674 65.3997 35.726C65.7444 36.0141 66.0573 36.3616 66.3235 36.6572L66.3236 36.6573L66.3236 36.6573C66.5598 36.9196 66.7592 37.141 66.9114 37.244C67.0178 36.9181 67.6683 36.4833 67.6683 36.4833L67.7747 37.4577C67.7747 37.5645 67.8838 37.5645 67.8838 37.5645C68.0884 37.6484 68.4318 37.6244 68.8207 37.5972C69.1372 37.575 69.4838 37.5507 69.8103 37.5808C69.7066 37.8012 69.5686 38.0622 69.3948 38.3273C69.3948 38.3273 70.0433 38.1089 70.687 37.8925H70.7955C70.7955 37.8925 71.4439 39.299 71.9806 40.7102C71.5503 40.3843 71.12 40.061 70.687 39.8426C69.6103 39.1921 68.5296 38.7594 67.8838 38.9778C67.6683 38.9778 67.5572 39.0853 67.4508 39.1921C67.236 39.629 67.236 40.4911 67.236 40.4911L65.3997 39.629L65.0758 39.5174C65.0758 39.5174 65.1849 39.4078 65.3997 39.299C65.7243 39.0853 66.1552 38.6505 66.0502 38.2157C65.9425 38.006 65.7374 37.7988 65.4294 37.4876L65.4293 37.4876L65.3997 37.4577ZM81.1529 34.5338C80.398 35.0774 80.291 35.619 80.7239 35.9423C81.1529 36.1586 81.5859 35.619 81.5859 34.7501C81.8007 35.7259 82.34 36.0511 82.6666 35.8348C83.0989 35.5115 82.6666 34.859 82.0182 34.5338C82.34 34.6426 82.6666 34.7501 82.9878 34.7501C83.3104 34.7501 83.5272 34.6426 83.4208 34.3153C83.4208 34.099 83.204 33.9921 82.9878 33.9921C82.6666 33.8826 82.34 33.9921 81.9098 34.2078C82.773 33.7737 82.773 33.1253 82.34 32.9082C81.9098 32.6925 81.4768 33.4505 81.4768 33.9921C81.2633 33.2341 80.7239 32.6925 80.398 32.9082C80.0741 33.1253 80.291 33.7737 81.1529 34.2078C79.9698 33.6649 79.5341 33.9921 79.6432 34.5338C79.7523 34.7501 80.398 34.9686 81.1529 34.5338ZM99.9276 45.8024C100.252 45.6956 100.791 46.1263 100.47 47.1021C100.791 46.2345 101.439 45.6956 101.763 46.0195C102.28 46.3283 101.707 46.9377 100.996 47.2751C100.963 47.2884 100.931 47.3029 100.9 47.3184C100.932 47.3046 100.964 47.2901 100.996 47.2751C101.42 47.1032 102 47.1176 102.303 47.3184C102.409 47.4273 102.409 47.5369 102.409 47.6437C102.409 47.8601 102.303 47.971 102.303 47.971C101.977 48.2942 101.439 48.1874 100.791 47.7505C101.439 48.401 101.546 49.1617 101.006 49.3775C100.47 49.5938 100.143 49.0495 100.252 47.971C100.039 48.9427 99.3909 49.3775 99.0644 49.1617C98.525 48.9427 98.6314 48.2942 99.9276 47.7505C98.958 48.0758 98.3095 47.8601 98.3095 47.4273C98.4186 46.9925 99.2778 46.8884 100.039 47.3184C99.6057 46.9925 99.2778 46.0195 99.9276 45.8024ZM97.8768 42.4431C97.9194 42.4862 97.962 42.5124 97.998 42.5346C98.0541 42.5692 98.0943 42.594 98.0943 42.6574C98.0943 42.769 97.9858 42.8779 97.8768 42.9834C97.4465 43.1991 96.5832 43.3086 96.5832 43.3086L96.9071 44.0687C97.231 43.7427 97.5549 43.7427 97.8768 43.7427C97.9449 43.7563 98.013 43.7715 98.0822 43.787C98.563 43.8948 99.0941 44.0139 100.039 43.6332C100.269 43.534 100.449 43.4347 100.606 43.3479C100.963 43.1506 101.205 43.0173 101.654 43.0943C101.198 42.5222 100.531 42.5238 100.068 42.5248C99.6538 42.5258 99.4018 42.5264 99.606 42.1185C100.143 40.9237 99.9279 40.6025 97.8768 39.2988H97.7731L97.8768 39.4077L97.9131 39.4621C98.1673 39.8425 98.8437 40.8546 98.7407 41.5749C98.5654 41.4 98.3894 41.2556 98.2302 41.125L98.2301 41.1249C98.097 41.0158 97.9758 40.9163 97.8768 40.8169C97.6933 40.7476 97.5098 40.6981 97.3222 40.6475C96.6272 40.4599 95.8757 40.2571 94.8587 38.9776C95.063 41.6553 96.9289 42.1775 97.7578 42.4095L97.7581 42.4095C97.8005 42.4214 97.8402 42.4325 97.8768 42.4431ZM51.8032 35.4006C51.8032 35.4006 52.6692 35.0774 52.5628 34.6426C52.453 33.9921 50.8356 32.7993 49.4329 32.6924C50.8356 31.9351 51.4813 32.2576 51.4813 32.2576C51.9904 32.3721 52.3218 32.872 52.5996 33.2909C52.852 33.6717 53.0602 33.9855 53.3169 33.8825C53.6408 33.7737 54.0691 33.4504 54.0691 33.4504L53.8563 34.2078C53.9353 34.5305 54.3727 34.4945 54.8581 34.4544C55.0266 34.4405 55.2009 34.4262 55.368 34.4262C55.4436 34.4513 55.5193 34.4705 55.5935 34.4894C55.8374 34.5514 56.0662 34.6096 56.2293 34.8589C56.2293 34.8589 56.9855 35.4006 57.0946 37.1343C56.6616 36.4832 56.0165 35.9422 55.368 35.619C54.6112 35.1822 53.8563 35.0774 53.5338 35.4006C53.2106 35.619 53.4254 36.3743 53.4254 36.3743C52.9951 35.9422 52.3446 35.619 51.8032 35.4006ZM81.4765 41.0354C80.6132 42.4433 80.7237 43.4156 81.5856 43.5265C82.3398 43.6334 82.7727 42.5535 82.2327 41.1443C82.4509 41.575 82.6663 41.9023 82.9875 42.1187C83.636 42.6576 84.3909 42.7692 84.7168 42.2255C85.1477 41.4682 84.1754 40.817 82.9875 40.6027C84.2838 40.7102 85.5753 40.1679 85.0393 39.4078C84.7168 38.8682 83.8508 38.9778 82.9875 39.5174C82.8394 39.5945 82.6939 39.7209 82.5815 39.8622C82.7485 39.6066 82.9013 39.3639 82.9875 39.1921C83.2037 38.6505 83.0986 38.3273 82.9875 37.9993C82.8791 37.8925 82.6663 37.7857 82.4509 37.7857C81.4765 37.5645 81.263 39.1921 81.5856 39.9474C80.8307 38.7594 79.6429 38.3273 79.2126 38.9778C78.7796 39.5174 79.5338 40.2774 81.1526 40.4911C78.886 40.3843 78.3467 41.2538 78.886 41.9023C79.2126 42.3364 80.5068 42.3364 81.4765 41.0354ZM90.0022 41.575C89.6777 41.3579 89.6777 40.9238 90.7544 40.491C90.0022 40.7101 89.4629 40.491 89.4629 40.1678C89.5693 39.8426 90.217 39.7357 90.7544 40.061C90.4325 39.8426 90.217 39.0852 90.65 38.9777C90.9719 38.8682 91.4022 39.1921 91.1874 39.9474C91.4022 39.2989 91.8352 38.8682 92.159 39.0852C92.594 39.2989 92.0527 39.8426 91.4022 40.1678C92.0527 39.9474 92.7011 39.9474 92.7011 40.3842C92.594 40.817 92.0527 40.9238 91.4022 40.491C91.9442 40.9238 91.9442 41.575 91.6203 41.6838C91.1874 41.9022 90.8635 41.4681 90.9719 40.6026C90.8635 41.3579 90.3281 41.6838 90.0022 41.575ZM24.8332 52.0856C24.4281 52.3183 24.3632 52.9537 24.3081 53.4941C24.2602 53.9634 24.2197 54.361 23.9699 54.361L23.106 54.0364C23.106 54.0364 23.4278 54.5774 23.5369 54.7978C23.5904 55.064 23.1709 55.3039 22.7063 55.5698C22.2289 55.8429 21.7038 56.1434 21.5949 56.5275C21.5949 56.5275 21.2751 56.9609 21.8097 58.4776C22.1363 57.0718 23.5369 55.6627 24.1874 55.6627C24.6157 55.6627 24.8332 56.637 24.8332 56.637C25.048 55.9859 25.4809 55.4476 26.0203 55.1176C26.0203 55.1176 25.2641 55.2258 25.048 54.9033C24.6157 54.0364 25.6944 52.1931 27.0991 51.6535C25.4809 51.4371 24.8332 52.0856 24.8332 52.0856ZM39.8619 44.4973C39.1454 44.4882 37.9334 44.4727 36.9163 43.5264L36.8851 43.4947C36.5676 43.1715 36.1551 42.7517 35.9446 42.2254C35.8894 42.1713 35.8621 42.0892 35.8348 42.007C35.8082 41.9269 35.7816 41.8467 35.7291 41.7926L35.9446 41.9022C36.2685 42.1186 36.5951 42.3363 36.9163 42.4431C37.736 42.7343 38.3406 42.7437 38.8743 42.7521C39.5344 42.7624 40.0863 42.771 40.803 43.3087C40.5855 42.3363 39.2892 41.3579 38.9653 41.1442C41.7733 41.9022 42.0945 42.1186 41.8797 43.6332C41.7807 44.0384 42.0518 43.97 42.4387 43.8725L42.439 43.8724C42.4679 43.8652 42.4974 43.8577 42.5275 43.8503C43.0669 43.6332 43.7126 43.4155 44.3584 43.8503C43.8475 43.9229 43.6346 44.1477 43.3125 44.4876L43.3125 44.4876C43.1604 44.6482 42.9839 44.8344 42.7403 45.0424C42.7403 45.1102 42.6995 45.1361 42.6432 45.1717C42.6085 45.1937 42.568 45.2194 42.5275 45.2608C41.9151 45.7209 41.3756 45.795 40.9084 45.8591C40.3867 45.9308 39.9552 45.9901 39.6131 46.5605L39.0758 45.9093C39.0758 45.9093 40.4764 45.152 40.4764 44.6124C40.4416 44.5046 40.2103 44.5017 39.8619 44.4973ZM104.676 53.7125C105.754 53.818 106.835 53.4921 106.402 52.8436C106.081 52.4154 105.125 52.5185 104.478 53.2575C105.212 52.4014 104.886 51.7595 104.352 51.6535C103.597 51.5446 103.489 52.6272 103.815 53.1709C103.382 52.5204 102.625 52.1931 102.303 52.3047C102.085 52.3047 101.977 52.3047 101.977 52.4115C101.763 52.6272 101.871 52.8436 102.303 53.1709C102.518 53.2777 102.951 53.4921 103.489 53.5989C103.097 53.5211 102.761 53.5566 102.524 53.5817C102.436 53.591 102.361 53.5989 102.303 53.5989C101.901 53.7348 101.749 53.912 101.742 54.104C101.744 54.1111 101.748 54.1164 101.752 54.1217C101.755 54.1261 101.759 54.1304 101.761 54.1358L101.762 54.1377C101.762 54.1394 101.763 54.1412 101.763 54.1432C101.767 54.1702 101.766 54.1955 101.764 54.2208C101.764 54.2285 101.763 54.2362 101.763 54.244C101.784 54.3184 101.821 54.3927 101.871 54.4678C101.977 54.5773 102.085 54.6842 102.303 54.6842C102.625 54.7978 103.275 54.5773 103.815 54.0364C103.166 54.9033 103.275 55.6626 103.921 55.7695C104.569 55.879 104.891 55.0121 104.352 54.0364C105.108 55.1176 105.969 55.3374 106.296 54.7978C106.618 54.361 105.647 53.818 104.676 53.7125ZM31.9536 44.8268C31.6317 44.6125 31.6317 44.1777 32.5993 43.6334C31.8472 43.9573 31.3058 43.7429 31.3058 43.3088C31.3058 42.9835 31.9536 42.8781 32.5993 43.3088C32.2781 42.9835 31.9536 42.2255 32.3845 42.0119C32.7105 41.9023 33.0323 42.3364 32.9259 43.1993C33.0323 42.4433 33.5717 42.0119 33.8976 42.2255V42.3364C34.1062 42.4408 34.0074 42.648 33.9047 42.8631L33.8976 42.8781C33.8339 43.0028 33.6991 43.0905 33.5556 43.1838C33.4501 43.2524 33.3399 43.324 33.2498 43.4156L33.2537 43.4137C33.4652 43.3075 33.6794 43.1999 33.8976 43.3088C34.2175 43.3088 34.435 43.4156 34.435 43.7429C34.435 43.9573 34.2175 44.1777 33.8976 44.0688C33.6781 44.0688 33.4626 43.9573 33.1407 43.7429C33.7872 44.2832 33.8976 44.933 33.4626 45.0425C33.1407 45.261 32.8168 44.7173 32.8168 43.8504C32.7105 44.7173 32.2781 45.0425 31.9536 44.8268ZM25.8028 45.0424C26.5577 44.7172 26.9906 44.0687 26.3402 43.8503C26.0203 43.6333 25.4809 44.0687 25.4809 44.9329C25.4809 43.9572 24.9395 43.6333 24.6156 43.7428C24.0763 44.0687 24.6156 44.8267 25.048 45.0424C24.2911 44.8267 23.5369 44.9329 23.5369 45.3684C23.5369 45.6956 24.1874 45.9093 25.048 45.4793C23.9699 46.1264 24.0763 46.6694 24.6156 46.8884C24.9395 46.9926 25.4809 46.5605 25.4809 45.6956C25.588 46.6694 26.0203 47.1021 26.4533 46.8884C26.8815 46.6694 26.6667 46.0195 25.8028 45.4793C26.7731 45.9093 27.4209 45.6956 27.4209 45.2609C27.3145 44.7172 26.4533 44.8267 25.8028 45.0424ZM32.2779 48.5087C30.2262 49.0496 30.0114 49.9192 30.7662 50.352C31.3056 50.6792 32.3843 50.352 32.8166 48.9428C32.4927 50.352 33.0321 51.2168 33.787 51.11H33.8974C34.4348 50.8983 34.5459 50.1356 33.8974 49.2707C33.8407 49.2148 33.7843 49.1297 33.7284 49.0455L33.7284 49.0455C33.6756 48.9658 33.6232 48.8868 33.5715 48.8339C33.6287 48.8924 33.6866 48.9504 33.7452 49.0089C33.7955 49.0592 33.8463 49.1099 33.8974 49.1619C34.7593 49.7035 35.6219 49.7035 35.9445 49.3776C36.0556 49.2707 36.0556 49.1619 36.0556 49.0496C36.1437 48.8709 36.0858 48.7664 36.0001 48.612L36.0001 48.612L36.0001 48.6119L36 48.6118C35.9823 48.5799 35.9635 48.5459 35.9445 48.5087C35.5135 48.1875 34.7593 48.0759 33.8974 48.1875C35.0832 47.8602 36.0556 47.1022 35.298 46.5606C34.8677 46.2346 34.3284 46.3421 33.8974 46.7749C33.6951 46.9756 33.4081 47.3607 33.279 47.7586C33.6465 46.4148 33.0164 45.6983 32.3843 45.8025C31.414 46.0196 31.847 47.4274 32.4927 47.9711C31.3056 47.209 30.1198 47.1022 29.905 47.7507C29.7979 48.2943 30.7662 48.8339 32.2779 48.5087ZM33.2496 47.8602C33.26 47.826 33.2698 47.7921 33.279 47.7586C33.268 47.7924 33.2582 47.8263 33.2496 47.8602ZM36.8098 34.3154C36.8098 34.3154 36.8098 34.2078 36.9162 33.9921C37.0253 33.7737 37.4562 33.5594 38.2104 33.2341C38.2104 33.2341 37.2407 33.2341 36.9162 32.7993C36.9162 32.7465 36.8902 32.7198 36.8638 32.6928C36.837 32.6652 36.8098 32.6373 36.8098 32.5809L36.9162 32.4761C37.1296 32.3672 37.5626 32.1509 38.4279 32.7993C38.4279 32.7993 37.7794 31.7188 38.7498 30.8492C38.7498 30.8492 39.4003 31.5024 38.8609 32.6925L38.8807 32.671C39.0226 32.5153 39.557 31.9295 40.4763 31.8256C40.4763 31.8256 40.2615 32.6925 39.1807 33.0137C39.1807 33.0137 40.1551 33.0137 40.3699 33.7737C40.3699 33.7737 39.7221 34.4262 38.8609 33.4505C38.8609 33.4505 39.4003 34.4262 38.3215 34.9686C38.3215 34.9686 37.671 34.6426 38.4279 33.5594C38.4279 33.5594 37.5626 34.4262 36.9162 34.4262C36.9162 34.3154 36.8098 34.3154 36.8098 34.3154ZM48.4606 39.9474C48.6465 40.136 48.5852 40.3206 48.3637 40.5073C48.6175 40.7588 49.0444 40.9238 49.3239 40.9238C49.0343 40.9238 48.7508 40.9786 48.5273 41.0766C48.6727 41.1895 48.7475 41.3282 48.6781 41.4681C48.5717 41.6838 48.3522 41.6838 48.2451 41.6838C48.1212 41.6838 47.9792 41.6419 47.8344 41.5777C47.7011 41.7447 47.6438 41.93 47.7058 42.1186C47.8149 42.2255 48.0297 42.3364 48.2451 42.3364C48.5717 42.3364 49.1111 42.1186 49.5367 41.4681C48.7845 42.878 49.1111 43.5265 49.8653 43.4156C50.2962 43.4156 50.6174 42.6576 50.0787 41.4681C50.8356 42.6576 51.5925 42.9835 51.9144 42.4432C52.3446 42.0118 51.5925 41.2538 50.4026 41.0354C51.8032 41.1442 52.3446 40.491 52.0228 39.9474C51.6962 39.2989 50.7285 39.7357 50.1878 40.491C50.7285 39.7357 50.8356 38.6504 50.0787 38.6504C49.5367 38.6504 49.2175 39.4078 49.6505 40.491C49.2175 39.5173 48.5717 39.1921 48.2451 39.4078C48.1361 39.4078 48.0297 39.5173 48.0297 39.5173C47.9691 39.61 47.9401 39.7012 47.9287 39.7912C48.0324 39.756 48.1388 39.7357 48.2451 39.7357C48.3522 39.7357 48.4606 39.8426 48.4606 39.9474ZM46.5183 40.7101C46.4874 40.7139 46.457 40.7182 46.427 40.7228C46.4585 40.7201 46.489 40.7159 46.5183 40.7101ZM45.4395 41.5749C45.1292 41.2652 45.6195 40.8481 46.427 40.7228C45.8788 40.7698 45.0243 40.3604 45.3331 39.9473C45.5479 39.7357 46.1984 39.7357 46.7337 40.491C46.3028 39.8425 46.4139 39.2989 46.8462 39.192C47.4879 39.192 47.4879 39.8425 47.166 40.3842C47.3297 40.1414 47.6138 39.8973 47.9283 39.7911C47.8993 40.0177 48.0145 40.2293 48.2448 40.3842C48.2661 40.416 48.2961 40.4439 48.3261 40.4718C48.3387 40.4835 48.3513 40.4952 48.3633 40.5072C48.3542 40.5149 48.3454 40.5226 48.3365 40.5302C48.3088 40.5543 48.281 40.5785 48.2448 40.6026C48.1478 40.6026 48.0289 40.6243 47.8981 40.6483C47.7382 40.6776 47.5606 40.7101 47.3835 40.7101C47.7054 40.7101 48.0293 40.8169 48.2448 40.9238C48.3586 40.9623 48.4495 41.0171 48.5269 41.0766C48.4165 41.1253 48.3162 41.1814 48.2448 41.2537C48.0636 41.3437 47.931 41.4566 47.834 41.5776C47.6274 41.4857 47.4143 41.3369 47.2299 41.1163C47.2099 41.0895 47.1886 41.0625 47.166 41.0353C47.1869 41.0633 47.2082 41.0903 47.2299 41.1163C47.687 41.7284 47.4744 42.2301 47.166 42.3363C46.6273 42.4432 46.1984 42.0118 46.7337 41.0353C46.3028 41.6838 45.657 41.9022 45.4395 41.5749Z" fill="url(#paint0_linear_63_12031)"/>
<mask id="mask0_63_12031" style="mask-type:luminance" maskUnits="userSpaceOnUse" x="21" y="27" width="86" height="59">
<path fill-rule="evenodd" clip-rule="evenodd" d="M65.3999 28.8991C65.1851 29.0079 65.076 29.0079 64.9696 29.0079C64.3239 29.1148 63.8909 28.8991 63.8909 28.5758C63.8909 28.3595 64.4329 28.2479 64.9696 28.3595C65.076 28.3595 65.2935 28.3595 65.3999 28.4663C65.3999 28.4663 65.5029 28.4663 65.5087 28.5668C65.5059 28.5176 65.4798 28.4918 65.4539 28.4661C65.4268 28.4393 65.3999 28.4125 65.3999 28.3595C64.9696 28.0295 64.7521 27.4899 65.2935 27.2742H65.3999C65.7245 27.2742 66.1554 27.709 66.0504 28.4663C66.1554 27.709 66.8032 27.381 67.2362 27.4899C67.7749 27.8138 67.2362 28.3595 66.3723 28.5758C66.9116 28.4663 67.5574 28.4663 67.884 28.6827C67.9904 28.6827 67.9904 28.7922 67.9904 28.8991C67.9904 29.0079 67.9904 29.1148 67.884 29.2263C67.6685 29.4427 67.018 29.3359 66.3723 29.0079C67.1291 29.5475 67.2362 30.1987 66.8032 30.3055C66.2659 30.4164 65.8329 29.9823 65.8329 29.1148C65.8329 29.5475 65.6181 29.7659 65.3999 29.9823C65.2935 30.0939 65.076 30.0939 64.9696 30.0939H64.7521C64.3239 29.8775 64.2127 29.5475 64.9696 29.1148C65.0361 29.1148 65.1036 29.0731 65.1972 29.0153C65.2535 28.9805 65.3192 28.9399 65.3999 28.8991ZM56.229 41.7927C56.1226 42.4432 57.2007 42.7691 58.9279 42.2255C56.7684 43.0944 56.5549 44.0688 57.4162 44.394C58.0619 44.6124 59.1434 44.0688 59.5736 42.5534C59.4693 43.3088 59.4693 43.8504 59.68 44.2831C59.8975 44.7173 60.3285 44.8268 60.7588 44.7173C61.6247 44.394 61.5204 43.1992 60.3285 42.3364C61.3029 42.878 62.0577 42.9835 62.488 42.7691C62.8099 42.6576 63.0254 42.4432 63.0254 42.1187C63.1338 41.7927 62.9203 41.575 62.488 41.4682C62.0875 41.3656 61.4059 41.3585 60.7031 41.6208C62.0177 41.071 62.8877 40.1474 62.0577 39.6289C61.4066 39.2989 60.3285 39.9474 59.8975 41.3579C60.1123 40.4911 60.0059 39.8426 59.68 39.5173C59.4693 39.2989 59.1434 39.2989 58.8215 39.2989C57.7407 39.6289 58.2794 41.0354 59.1434 41.575C57.7407 40.9238 56.3374 41.0354 56.229 41.7927ZM60.546 41.6839C60.599 41.6634 60.6514 41.6424 60.7031 41.6208C60.6508 41.6403 60.5984 41.6613 60.546 41.6839ZM99.4973 52.1932C100.039 52.3047 100.039 53.599 99.7121 54.1433C99.9235 53.933 101.477 53.3109 101.742 54.1041C101.74 54.1501 101.748 54.1967 101.762 54.244C101.718 55.019 100.039 55.1177 100.039 55.1177C101.117 55.4477 101.654 56.4207 101.439 56.7439C101.006 57.2883 99.7121 56.2043 99.4973 55.6627C99.6057 56.5275 99.6057 56.961 99.1727 57.3951C98.6313 57.5019 98.4185 57.2883 98.3094 56.961C98.2703 56.961 98.2318 56.9749 98.1887 56.9977C98.1732 56.711 98.1682 56.252 98.4184 55.7233H97.8763C97.8481 55.7336 97.8191 55.7438 97.7897 55.7542L97.7894 55.7543C97.483 55.8625 97.1335 55.986 97.2305 56.2949C97.3396 56.5214 97.5544 56.6343 97.8763 56.7507L97.8821 56.7568C97.9595 56.8384 98.0365 56.9196 98.1123 57.0426L98.0887 57.0574C98.0306 57.0938 97.9623 57.1365 97.8765 57.1787C97.3398 57.5019 96.6913 57.5019 96.4738 57.3951C95.5062 57.2883 95.1803 57.5019 95.0732 58.262C94.967 59.4284 96.4144 59.0346 97.5922 58.7142L97.6637 58.6947C97.7727 58.588 97.7728 58.5879 97.8762 58.478L97.8765 58.4777C98.094 58.1531 98.094 57.9388 98.094 57.9394L98.6313 58.4777C98.8488 58.4777 99.0643 58.5879 99.1727 58.6947C99.4468 58.6947 99.7353 58.6089 100.033 58.5203C100.555 58.3649 101.104 58.2012 101.654 58.4777C101.654 58.4777 101.763 58.8083 102.303 59.4521C102.346 59.4974 102.389 59.5772 102.441 59.6706C102.515 59.8073 102.606 59.9731 102.735 60.1032C102.679 60.1032 102.597 60.076 102.515 60.0491C102.435 60.0226 102.355 59.9964 102.303 59.9964C99.9276 59.3473 98.9579 59.9964 98.6313 60.6462C98.3187 61.0691 98.9213 61.6904 98.9563 61.7265L98.9579 61.7281L97.8765 61.6206L96.9068 61.5097C96.6443 61.775 96.3831 61.9674 96.0619 62.204L96.0617 62.2041L96.0617 62.2041C95.9867 62.2594 95.9084 62.3171 95.826 62.3786L82.9875 71.4835L70.687 80.2544L67.8838 82.2066L65.3997 84.0479L64.9694 84.3751L63.7843 85.1331L62.488 84.2676L59.6801 82.3134L55.3678 79.2807L48.2448 74.2965L42.5272 70.2867L36.916 66.3891L35.9443 65.7393L33.8973 64.3288L29.5803 61.2974C28.0672 60.4285 28.0672 59.018 29.5803 59.4521C29.6549 59.4714 29.7359 59.4937 29.82 59.517L29.8201 59.517C30.222 59.6279 30.6943 59.7584 30.8725 59.6678C31.5646 59.2643 31.6408 58.5195 31.3809 58.0949L31.4746 58.0596C32.1486 57.805 32.9478 57.5032 33.6775 57.8888C33.7866 57.8888 33.897 58.001 33.897 58.1132C34.1104 58.4569 34.002 58.9113 33.897 59.2535C33.897 59.3657 33.7866 59.4849 33.7866 59.4849H33.897H34.9757C34.8673 59.3657 34.2168 58.2261 34.7589 58.001C34.8673 57.8888 35.2976 57.8888 35.944 58.1132C36.2679 58.2261 36.5945 58.3425 36.9157 58.5726C37.0374 58.6349 37.1611 58.7363 37.3046 58.8539L37.3046 58.8539L37.3047 58.8539C37.4128 58.9426 37.5322 59.0404 37.6706 59.1377L37.6666 59.1253C37.557 58.7806 37.3435 58.1091 36.9157 57.7738C36.7009 57.4323 36.3763 57.2051 36.1615 57.2051C36.0551 57.2051 35.944 57.0901 35.944 57.0901C35.4667 57.0901 35.0548 57.1952 34.7642 57.2694L34.7642 57.2694C34.5305 57.329 34.3754 57.3686 34.3279 57.3173C34.2715 57.3173 34.2162 57.2006 34.1474 57.0554C34.081 56.915 34.0019 56.7481 33.897 56.6343H33.7866C33.6775 56.6343 33.6775 57.4323 33.6775 57.4323C33.5578 57.4323 33.2727 57.2576 32.9869 57.0825C32.7581 56.9423 32.5288 56.8019 32.3839 56.7507C31.9228 56.7507 31.5847 57.1086 31.2376 57.4758C31.1391 57.5801 31.0398 57.6851 30.9368 57.7829C30.7063 57.7485 30.4236 57.8476 30.1197 58.1531C29.2564 59.018 28.0672 59.018 28.0672 58.4777C27.9982 58.0674 28.363 57.9608 28.9135 57.8C29.233 57.7066 29.6151 57.595 30.0113 57.3951C30.4665 57.1673 30.655 56.8295 30.8401 56.498C30.9176 56.3592 30.9944 56.2215 31.09 56.0934C30.9836 55.8791 30.8725 55.5545 30.8725 55.2259C30.657 56.0934 30.1197 56.6371 29.5803 56.4207C28.9325 56.2043 29.148 55.2259 29.7978 54.4679C29.148 54.7978 27.8538 54.4679 28.0672 53.818C28.1804 53.1709 29.0389 53.2778 29.9049 53.7126C29.2564 53.1709 29.0389 52.0856 29.4719 51.8693C30.1197 51.4372 30.657 52.4116 30.657 53.4921C30.8725 52.7368 31.4139 51.8693 32.0597 52.1932C32.599 52.4116 32.0597 53.599 31.5223 53.818C31.9533 53.7126 32.599 53.7126 32.8165 53.818C32.8165 53.388 33.3586 53.1709 33.8973 53.1709C34.6501 53.1709 35.2979 53.4921 34.8676 54.0365C34.8676 54.0365 34.3283 54.6849 34.6501 55.1177C34.976 55.4477 35.5134 55.2259 35.9443 54.7978C36.0555 55.1177 36.2682 55.3374 36.5948 55.3374C36.6488 55.2808 36.7034 55.2529 36.7579 55.225C36.8108 55.198 36.8636 55.171 36.916 55.1177C37.0821 54.9509 37.0558 54.6502 37.0359 54.4234L37.0359 54.4234C37.0303 54.3587 37.0251 54.3 37.0251 54.2522C37.1295 54.9033 37.6709 55.4477 38.2102 55.2259C38.6432 54.9033 38.1032 53.9289 37.5625 53.9289C38.1938 53.7538 38.4858 53.8234 38.6558 53.864C38.6701 53.8674 38.6836 53.8706 38.6964 53.8735C38.4074 53.5638 37.425 53.2724 36.916 53.171C36.7012 53.171 36.5948 53.0601 36.5948 53.0601C36.8096 53.599 36.3766 54.361 35.9443 54.7979L35.8352 54.6843C35.8352 54.6401 35.8538 54.5955 35.8757 54.5432C35.9067 54.4688 35.9443 54.3788 35.9443 54.2522C35.9443 54.2071 35.9634 54.1624 35.9857 54.11C36.0173 54.0358 36.0554 53.9461 36.0554 53.8181C36.0554 53.929 35.9443 53.929 35.9443 53.929C35.0831 53.929 34.4346 52.9532 35.1915 52.9532L35.8352 53.0601C34.976 51.9788 35.5134 51.5447 35.9443 51.7604V51.8693C36.3716 52.0831 36.4812 52.404 36.5909 52.7255L36.5948 52.7368C36.6351 52.6548 36.6602 52.5259 36.6875 52.3857C36.7321 52.1561 36.7827 51.896 36.916 51.7604L37.0251 51.6536C37.3893 51.6536 37.5217 51.9623 37.6194 52.1901L37.6195 52.1902C37.6374 52.2319 37.6541 52.2709 37.6708 52.3048C37.6708 52.5205 37.6708 52.7368 37.5624 53.171C37.6708 53.0601 38.8607 53.0601 38.9651 53.7126C38.8742 53.8951 38.817 53.9006 38.6965 53.8735C38.703 53.8806 38.7103 53.8875 38.7176 53.8944C38.7299 53.906 38.742 53.9175 38.7496 53.9289C39.4001 54.7978 40.8027 54.4679 40.4761 53.1709C41.3401 53.4921 41.662 53.06 41.662 52.8437C41.662 52.6273 41.3401 52.3047 41.0182 52.5204C40.2613 52.7368 39.6129 52.4116 39.5065 51.7604C39.4001 52.3047 39.0755 53.06 38.5368 52.7368C37.9948 52.5204 38.4277 51.7604 38.7496 51.4372C36.4837 52.0856 36.8096 49.7034 38.7496 50.4614C36.916 49.4843 39.1806 47.8601 39.6129 49.8123C39.5065 47.8601 41.8795 48.8338 40.3698 50.0287C41.662 49.1618 42.0943 50.0287 41.8795 50.4614C41.4485 50.8982 42.0943 51.4372 42.5272 51.2167C42.74 51.1099 42.8538 50.8982 42.9575 50.5703L42.9186 50.5299C42.8059 50.4134 42.6217 50.2232 42.5272 50.0287C42.4208 49.5939 42.4208 49.0502 42.5272 48.4017C42.6336 48.0758 42.8538 47.7506 43.173 47.4274C43.173 47.4274 44.0383 47.971 44.1454 49.2707C44.2533 48.732 45.0997 47.7709 46.3734 48.8005C46.3869 48.8119 46.4004 48.823 46.4139 48.8338C46.4004 48.8225 46.3869 48.8114 46.3734 48.8005C45.851 48.3586 45.4369 47.526 45.3332 47.1021C45.6571 47.1021 46.3028 47.3185 46.8463 48.1874C46.7338 47.971 46.3028 47.1021 46.4139 46.5605C46.4139 46.5605 47.1661 46.7748 47.2732 46.9926C47.488 46.4509 47.8146 46.1264 48.2448 45.91C48.8906 45.5841 49.7566 45.6956 49.9714 46.2346C50.2959 46.6693 50.2959 46.6693 50.2959 47.2089C50.4023 46.8884 50.7282 46.3421 51.3767 46.0195C51.4811 46.5605 51.2683 47.3185 51.0501 47.7506L51.0864 47.7146L51.0864 47.7146C51.4079 47.3959 51.8188 46.9887 52.2353 46.8884C52.3443 47.6437 51.9141 48.4017 51.2683 49.0502C51.2683 49.0502 53.4251 48.7263 53.2103 47.5369C53.137 47.3901 52.9666 47.2442 52.7975 47.0994L52.7975 47.0994L52.7975 47.0994C52.7151 47.0288 52.6329 46.9585 52.5625 46.8884C52.1289 46.1264 52.1289 45.4792 52.3443 44.7172C52.4528 44.7172 52.5625 45.0424 52.5625 45.2615C52.6689 44.8267 52.7773 44.5008 52.8837 44.394C52.8837 44.394 53.1012 44.613 53.2103 45.0424C53.2197 45.0045 53.2291 44.9648 53.2388 44.9238C53.3392 44.5006 53.4726 43.9382 53.9625 43.7428C54.0689 43.8503 54.0689 44.1776 54.0689 44.394C54.18 44.0687 54.3954 43.7428 54.6109 43.7428C54.7193 43.8503 54.6109 44.1776 54.5018 44.2831C54.7193 44.0687 54.9348 44.0687 54.9348 44.0687C54.9348 44.2831 54.9348 44.394 54.8284 44.5008C54.8722 44.5008 54.9342 44.4827 55.0073 44.4615C55.112 44.431 55.2393 44.394 55.3678 44.394H55.5806L55.5805 44.394C55.4764 44.5006 55.4762 44.5008 55.3683 44.6125L55.3678 44.613C55.2567 44.8267 55.2567 44.9329 55.3678 45.0424L55.3717 45.0464C55.4788 45.1546 55.5845 45.2615 55.9065 45.2615C55.6917 45.4792 55.5806 45.5841 55.3678 45.6956C55.2567 45.8025 55.0432 45.91 54.8284 45.91C54.9534 45.91 55.0779 45.947 55.182 45.9781C55.2569 46.0004 55.3213 46.0195 55.3678 46.0195C55.6821 46.1232 55.7897 46.2281 55.8967 46.3325L55.9065 46.3421C55.9065 46.5605 55.6917 46.7748 55.3678 46.8884C55.3116 46.8884 55.2565 46.915 55.202 46.9413C55.1486 46.9671 55.0958 46.9926 55.0432 46.9926C55.0958 46.9926 55.1486 47.0194 55.202 47.0464C55.2565 47.0741 55.3116 47.1021 55.3678 47.1021C55.7961 47.2089 56.3374 46.8884 56.4465 46.3421C56.9474 46.6436 57.0765 47.108 57.1998 47.552C57.3425 48.0658 57.4776 48.5522 58.1731 48.7263C57.8742 47.8899 57.9049 47.4171 57.9379 46.9066C57.9649 46.4911 57.9934 46.0505 57.8471 45.3684C57.8801 45.3853 57.9156 45.4022 57.9525 45.4197C58.1567 45.5166 58.4043 45.634 58.4949 45.91C58.4949 45.8655 58.5131 45.8212 58.5345 45.7692C58.5647 45.6954 58.6013 45.6062 58.6013 45.4792C59.2518 46.2346 59.7912 46.9926 59.5737 48.6181C59.5737 48.7263 59.6801 48.8338 59.6801 48.8338C59.7912 48.8338 59.8976 48.7263 59.8976 48.5086C59.7912 47.2089 60.3285 46.0195 61.3029 45.4792C61.4066 45.6956 61.4066 46.8884 61.0874 47.7506C60.9763 48.0758 61.5204 48.4017 61.6248 47.4274C61.6248 46.5324 62.0795 46.5498 62.3193 46.5589C62.3411 46.5597 62.3612 46.5605 62.3789 46.5605L62.488 46.4509C62.7055 46.1264 63.0254 46.0195 63.4577 46.1264C63.0254 45.8025 63.1338 45.2615 63.2449 45.152C63.6732 44.613 64.2125 44.613 64.9694 44.613H65.3997H65.6179C65.5633 44.613 65.5361 44.585 65.5088 44.5569C65.4815 44.5289 65.4542 44.5008 65.3997 44.5008L65.373 44.4738C65.1757 44.2739 65.0713 44.1683 64.9694 43.9571C64.5391 43.3087 64.5391 42.5534 64.8583 42.3363H64.9694H65.3997C65.9391 42.5534 66.4784 43.1991 66.6986 44.1776C66.803 43.0943 67.3424 42.2254 67.8838 42.1186H68.0992C68.745 42.3363 68.3141 43.5264 67.8838 44.2831C67.8421 44.3255 67.8163 44.3673 67.7945 44.4027C67.7591 44.46 67.734 44.5008 67.6683 44.5008H67.8838C69.2844 44.1776 70.1497 44.5008 70.2561 44.9329C70.3651 44.7172 70.4742 44.613 70.687 44.5008C70.7954 44.394 70.9018 44.394 71.0129 44.394C72.2008 44.1776 73.062 45.0424 73.7078 46.0195C72.9529 46.3421 73.3859 47.4274 73.9232 47.7506C72.9529 47.3185 71.8769 47.4274 71.7678 47.971C71.6614 48.4017 72.5206 48.7263 73.8169 48.2942C72.0923 48.9427 71.9806 49.7034 72.7361 49.9191C73.1684 50.1355 74.0317 49.7034 74.2471 48.5086C74.1407 49.8123 74.5737 50.3519 75.3279 50.1355C75.9764 49.9191 75.8673 49.0502 74.8956 48.4017C76.0801 49.0502 77.0551 48.8338 77.1615 48.1874C77.1615 47.5369 76.0801 47.5369 75.002 47.8601C76.0801 47.4274 77.0551 46.6693 76.2982 46.2346C75.8673 46.1264 75.3279 46.3421 75.002 46.7748C75.002 46.7748 74.8956 45.4792 76.0801 44.1776C76.4066 44.394 76.6221 44.613 77.0551 45.5841C77.0551 44.8267 77.1615 44.1776 77.4854 43.8503C77.5046 43.87 77.5265 43.8914 77.5506 43.915C77.7946 44.1535 78.2694 44.618 78.5641 45.8025C78.6732 46.3421 78.9971 46.3421 79.1062 45.8025C79.2126 45.152 79.752 43.8503 80.5068 43.5264C80.5068 44.2831 80.5068 45.152 79.8584 46.3421C80.1917 46.3421 80.5259 45.9404 80.9066 45.4829C81.388 44.9044 81.9437 44.2365 82.6663 44.1776C82.1243 44.2831 81.9094 44.9329 82.8791 45.0424C82.3397 46.2346 81.0435 46.9926 81.0435 46.9926C81.4982 47.0694 81.8466 46.8795 82.2745 46.6464C82.4568 46.547 82.6536 46.4398 82.8791 46.3421H82.9875C83.3101 46.3421 83.7424 46.7748 83.2037 47.2089C83.0654 47.302 83.202 47.3356 83.4043 47.3855C83.677 47.4527 84.069 47.5492 84.069 47.8601C84.069 48.0758 83.7424 48.1874 83.636 48.1874C83.636 48.2942 83.8508 48.4017 84.1754 48.4017C84.069 48.5086 83.8508 48.7263 83.5269 48.7263C83.8521 48.7908 83.9422 48.9739 84.0092 49.11C84.0539 49.2007 84.0883 49.2707 84.1754 49.2707C83.9957 49.4496 83.7498 49.4631 83.5113 49.4763C83.319 49.4869 83.1315 49.4973 82.9875 49.5939C82.9331 49.5939 82.906 49.6215 82.879 49.649C82.8523 49.6763 82.8257 49.7034 82.7727 49.7034C82.6663 50.0287 82.6663 50.3519 82.9875 50.5703C83.636 51.0044 85.2541 50.8982 86.0089 50.0287C86.5503 49.3775 87.5207 48.8338 88.4903 49.1618C89.6692 49.4325 90.1636 50.3913 90.3538 50.7602L90.3539 50.7604L90.354 50.7605C90.3904 50.831 90.4156 50.8799 90.4323 50.8982C90.5434 51.1099 90.5434 51.2167 90.5434 51.3256C90.5942 51.317 90.6464 51.3084 90.6995 51.2997C91.3191 51.1978 92.0609 51.0759 92.1589 50.6792C92.2152 50.537 91.9545 50.4248 91.5425 50.2474C90.3787 49.7462 88.0078 48.7251 88.1684 45.0424C89.4299 46.9142 90.4578 47.3727 91.3449 47.7685C92.0499 48.0829 92.6659 48.3577 93.2396 49.2707C93.5186 48.2286 92.7338 46.7767 92.3873 46.1358C92.3365 46.0418 92.2952 45.9652 92.2679 45.91C95.0732 48.0758 95.3978 48.5086 94.3163 50.1355C94.0097 50.6989 94.3809 50.7289 94.9713 50.7766C95.6281 50.8297 96.5562 50.9047 97.1243 51.7604C96.4705 51.5435 96.1096 51.716 95.617 51.9515C95.3754 52.0669 95.1022 52.1975 94.7473 52.3047C93.5868 52.6218 92.8133 52.447 92.1617 52.2998C91.4822 52.1463 90.9353 52.0227 90.2202 52.5184H90.2162L90.1105 51.8693C89.9809 51.888 89.842 51.9003 89.7018 51.9128C89.0228 51.9731 88.3134 52.036 88.4903 52.8437C88.6852 53.6254 88.7233 53.5851 89.0051 53.2872L89.0051 53.2872C89.1918 53.0899 89.4853 52.7796 90.002 52.5204C90.0167 52.5204 90.0363 52.5201 90.0597 52.5197L90.0598 52.5197C90.1019 52.5189 90.1561 52.518 90.2162 52.5184L90.2169 52.5204L90.2177 52.5197L90.2191 52.519C90.2195 52.5188 90.2199 52.5187 90.2202 52.5184C90.6182 52.5204 91.3798 52.6016 91.7286 53.388C91.835 53.7126 91.835 55.0122 91.2956 55.8791C91.0808 56.3139 90.9717 56.8535 90.9717 57.3951C90.8633 55.9859 89.895 55.7702 89.4627 56.2043C88.5967 56.8535 89.5691 57.8292 90.4323 57.8292C89.0297 57.9394 87.951 58.5879 88.0621 59.1288C88.1684 59.7773 89.2472 59.5636 90.5434 58.4777C88.9206 60.1032 89.1401 60.8626 90.002 60.8626C90.5434 60.8626 91.402 59.8842 91.1872 58.5879C91.5131 59.8842 92.3743 60.3189 93.0228 59.7773C93.6686 59.2364 93.1292 58.3708 91.7286 58.0436C93.346 58.1531 94.3163 57.5019 94.1009 56.8535C94.0008 56.1384 92.7549 56.4804 91.7969 57.2459C92.7676 56.3859 93.2858 55.2198 92.2679 55.1177C92.2679 55.1177 92.1589 55.2259 92.0525 55.2259C92.1359 55.1432 92.1385 54.9949 92.1414 54.8254C92.1461 54.557 92.1518 54.2354 92.4807 54.0365C92.8073 53.818 93.2396 54.1433 93.346 55.0122C93.7797 53.7126 94.8584 53.4921 95.2887 53.9289C95.7217 54.4679 95.3978 55.3374 94.6429 55.8791C95.4161 55.938 95.8601 55.6354 96.3561 55.2974C96.7598 55.0223 97.1981 54.7237 97.8765 54.5774H98.094C97.9855 54.5774 97.8765 54.4679 97.8765 54.4679C97.2307 54.1433 96.4738 53.2778 96.9068 52.8437C97.0132 52.5204 97.4462 52.6273 97.8765 52.8437C98.199 53.06 98.6313 53.4921 98.8488 54.0365C98.6313 53.388 98.7404 52.0856 99.4973 52.1932ZM91.6202 57.3951C91.6805 57.3466 91.7395 57.2968 91.7969 57.2459C91.7368 57.294 91.6777 57.3438 91.6202 57.3951ZM44.1453 56.8658C43.7587 56.7833 43.5945 56.6421 43.4123 56.4853C43.3403 56.4234 43.2654 56.3591 43.173 56.2949C43.2821 56.5214 43.4996 57.0901 43.2821 57.4323C43.0666 57.6617 42.74 57.3173 42.6336 57.2051L42.5272 57.0901C42.5272 57.0199 42.4855 56.9046 42.4276 56.7445L42.4276 56.7444L42.4276 56.7444L42.4276 56.7443L42.4275 56.7443L42.4275 56.7443L42.4275 56.7442L42.4275 56.7442L42.4275 56.7442L42.4275 56.7441L42.4274 56.744L42.4274 56.7438L42.4273 56.7437L42.4273 56.7437C42.3928 56.6481 42.3524 56.5366 42.3117 56.4092C42.2033 56.5214 41.3401 57.2051 40.9071 56.6343C40.9071 56.3384 41.2302 56.1875 41.5145 56.0547C41.6648 55.9845 41.8042 55.9193 41.8794 55.8405C41.5549 55.9563 40.8027 55.499 40.6943 55.3847C40.5437 55.2264 40.6527 55.1774 40.7689 55.1251C40.8211 55.1016 40.8748 55.0774 40.9071 55.0425C41.3401 54.9275 41.773 55.0425 42.2033 55.3847C42.2033 55.3158 42.1545 55.2267 42.0979 55.1233C41.966 54.8824 41.7917 54.5641 42.0942 54.2452H42.3117H42.5272C42.68 54.2452 42.7231 54.3052 42.7774 54.3808C42.7987 54.4105 42.8217 54.4427 42.8538 54.4745C43.0666 54.701 43.0666 54.9275 43.0666 55.1554C43.173 55.0425 43.7124 54.8153 43.7124 54.8153C44.1453 54.5867 44.4692 55.0425 44.1453 55.2739L43.606 55.7234C44.9022 56.182 44.5756 56.7507 44.1453 56.8658ZM48.7315 52.141C48.7579 52.0844 48.7842 52.0281 48.7842 51.9724C48.7842 51.9724 48.6778 51.8581 48.6778 51.7452L49.5363 51.5137C49.5843 51.5137 49.6309 51.534 49.6848 51.5575C49.759 51.5897 49.847 51.628 49.9713 51.628C50.0784 51.628 50.1875 51.5137 50.1875 51.2908C50.0784 51.1793 49.8649 51.1793 49.7565 51.1793C49.7216 51.2159 49.6981 51.2524 49.6746 51.289C49.6266 51.3637 49.5787 51.4384 49.4326 51.5137L48.6778 51.7452C48.5725 51.5162 48.4626 51.4039 48.3553 51.2943L48.3519 51.2908L48.7842 50.6056C48.8374 50.5509 48.919 50.5509 49.0006 50.5509C49.0823 50.5509 49.1639 50.5509 49.2171 50.4963C49.3235 50.3784 49.3235 50.2662 49.2171 50.1512C48.9996 50.039 48.8905 50.039 48.7842 50.2662C48.7128 50.3414 48.7371 50.4192 48.7609 50.4952C48.7726 50.5326 48.7842 50.5696 48.7842 50.6056L48.2448 51.1793C48.0293 51.0593 47.8145 51.0593 47.599 51.0593V50.2662C47.599 50.2184 47.6363 50.1904 47.6799 50.1578C47.741 50.112 47.8145 50.057 47.8145 49.9247C47.8145 49.8097 47.7054 49.6947 47.599 49.6947C47.3835 49.6947 47.2731 49.8097 47.3835 49.9247C47.3835 49.9818 47.4096 50.0383 47.4356 50.0949C47.4617 50.1517 47.4879 50.2086 47.4879 50.2662V51.0593C47.2731 51.0593 47.0576 51.0593 46.9512 51.1793L46.4139 50.4963C46.3495 50.4963 46.3597 50.4567 46.3797 50.3793C46.3942 50.323 46.4139 50.2468 46.4139 50.1512C46.3028 50.039 46.0853 50.039 45.9809 50.039C45.8725 50.1512 45.8725 50.3784 45.9809 50.3784C46.035 50.4395 46.0914 50.4689 46.1477 50.4983C46.2001 50.5256 46.2525 50.5529 46.3028 50.6056L46.8462 51.1793C46.788 51.2369 46.7315 51.3244 46.6754 51.4113L46.6753 51.4113L46.6753 51.4113C46.6229 51.4923 46.5709 51.5728 46.5183 51.628L45.657 51.4015C45.5479 51.4015 45.5208 51.3456 45.4938 51.2899C45.467 51.2345 45.4402 51.1793 45.3331 51.1793C45.224 51.0593 45.0065 51.1793 45.0065 51.2908C44.9022 51.4015 45.0065 51.5137 45.224 51.5137C45.2753 51.5674 45.3259 51.5459 45.3878 51.5196C45.4576 51.4899 45.5417 51.4542 45.657 51.5137L46.5183 51.7452C46.4139 51.8581 46.4139 51.9724 46.4139 51.9724V52.3139L45.5479 52.5389C45.503 52.5389 45.4583 52.5195 45.4061 52.4968L45.4061 52.4968L45.4061 52.4968C45.3324 52.4647 45.2437 52.4261 45.1176 52.4261C45.0065 52.4261 44.9022 52.5389 45.0065 52.7683C45.0065 52.8826 45.224 52.8826 45.3331 52.8826C45.3681 52.845 45.3916 52.8076 45.4151 52.7702C45.463 52.694 45.511 52.6176 45.657 52.5389L46.5183 52.3139C46.5183 52.5389 46.6273 52.6561 46.8462 52.7683L46.3028 53.4492C46.2506 53.5074 46.1962 53.5074 46.1283 53.5074C46.0604 53.5074 45.9789 53.5074 45.8725 53.5656C45.7654 53.6778 45.7654 53.7935 45.8725 53.9029C46.0853 54.015 46.1984 54.015 46.3028 53.7935C46.3583 53.7357 46.3583 53.6787 46.3583 53.6216C46.3583 53.5645 46.3583 53.5074 46.4139 53.4492L46.9512 52.8826C47.0576 52.9948 47.2731 52.9948 47.4879 52.9948V53.7935C47.4879 53.8381 47.4523 53.8645 47.41 53.8957C47.3486 53.9413 47.2731 53.9971 47.2731 54.1343C47.2731 54.2451 47.3835 54.3615 47.4879 54.3615C47.7054 54.3615 47.8145 54.2451 47.8145 54.1343L47.8029 54.1217C47.698 54.0071 47.599 53.899 47.599 53.7935V52.9948C47.8145 52.9948 48.0293 52.9948 48.1357 52.8826H48.2448L48.6778 53.5656C48.731 53.5656 48.731 53.5937 48.731 53.6498C48.731 53.706 48.731 53.7903 48.7842 53.9029C48.7842 54.015 48.9996 54.015 49.1107 54.015C49.2171 53.9029 49.2171 53.6778 49.1107 53.6778C49.0568 53.6233 49.0034 53.5953 48.9505 53.5676C48.8944 53.5382 48.8389 53.5091 48.7842 53.4492L48.2448 52.8826C48.3959 52.8024 48.4956 52.6658 48.5784 52.5523L48.5785 52.5523C48.6138 52.5039 48.646 52.4598 48.6778 52.4261L49.4326 52.6561C49.541 52.6561 49.5671 52.7124 49.5933 52.7688C49.6196 52.8256 49.6461 52.8826 49.7565 52.8826C49.8649 52.9948 50.0784 52.8826 50.0784 52.7683C50.1875 52.6561 50.0784 52.5389 49.8649 52.5389C49.8113 52.4831 49.7581 52.5112 49.7043 52.5397C49.6494 52.5687 49.5938 52.5981 49.5363 52.5389L48.6778 52.3139C48.6778 52.256 48.7047 52.1983 48.7315 52.141ZM57.4159 51.6281C56.9791 51.4754 56.7397 51.3246 56.4976 51.172C56.3807 51.0983 56.2631 51.0243 56.1224 50.9494C56.1477 51.0309 56.1917 51.1252 56.2395 51.2278C56.392 51.5553 56.5838 51.9669 56.3372 52.314C56.0153 52.5391 55.5803 52.199 55.3675 51.9725C55.283 51.8855 55.2008 51.6004 55.1194 51.3183C55.0939 51.2296 55.0684 51.1413 55.0429 51.0594C54.9345 51.1794 53.7494 51.9725 53.3164 51.4016C53.2388 50.9052 53.7332 50.7096 54.1316 50.552C54.2796 50.4934 54.4143 50.4401 54.5016 50.3785C54.0686 50.4964 53.1009 49.9248 52.9945 49.6948C52.777 49.4704 52.9945 49.3561 53.21 49.3561C53.7494 49.0118 54.3952 49.239 54.9345 49.6948C54.9076 49.609 54.8527 49.5083 54.7928 49.3984C54.6163 49.0745 54.3963 48.6707 54.7191 48.333L55.0429 48.2159H55.3675C55.5803 48.333 55.6914 48.4452 55.6914 48.4452C56.0153 48.7853 56.0153 49.1261 56.0153 49.4704C56.1224 49.239 56.7681 48.8989 56.7681 48.8989C57.4159 48.6703 57.8469 49.239 57.4159 49.5826L56.6611 50.0391C58.2792 50.7207 57.9553 51.5138 57.4159 51.6281ZM69.8236 45.7167C69.1778 45.7167 68.5293 45.5995 67.8836 45.373H67.7745L67.8836 45.4895C68.3139 45.9418 68.9623 46.6248 68.7448 47.1935C69.0687 46.8498 69.6101 46.0568 69.8236 45.7167ZM66.9112 46.2825C67.1287 46.9691 67.4505 47.3056 67.8835 47.535H67.9899L67.8835 47.65C67.2357 47.8743 66.5873 47.65 66.2654 47.1934C66.6929 46.9719 66.8 46.6335 66.907 46.2956L66.9112 46.2825ZM65.4957 45.9332C65.4721 45.9417 65.4455 45.9417 65.3995 45.9417L65.3995 45.9417C65.3379 46.0083 65.312 46.0363 65.2801 46.0481C65.2568 46.0567 65.2304 46.0567 65.1847 46.0567L65.2931 46.1689H65.3995C65.4542 46.1127 65.4814 46.0558 65.5087 45.9989C65.536 45.9421 65.5632 45.8852 65.6177 45.8288C65.5546 45.8941 65.528 45.9216 65.4957 45.9332ZM64.9692 48.8988V48.7852C65.0756 48.7852 65.2931 48.7852 65.2931 48.8988C65.2931 49.126 65.2931 49.2389 65.1847 49.2389H64.9692C64.9041 49.1728 64.8772 49.1454 64.8446 49.134C64.8216 49.126 64.7958 49.126 64.7517 49.126C64.7914 49.0834 64.8163 49.0409 64.8376 49.0044L64.8377 49.0044C64.8736 48.9432 64.8996 48.8988 64.9692 48.8988ZM62.9202 51.7451C62.9202 51.9723 63.0253 52.0845 63.1337 52.0845C63.2448 52.0845 63.3512 51.858 63.3512 51.7451C63.3512 51.6961 63.3131 51.6676 63.2688 51.6345C63.2073 51.5884 63.1337 51.5332 63.1337 51.4015C63.1337 51.5332 63.0615 51.5884 63.001 51.6345C62.9576 51.6676 62.9202 51.6961 62.9202 51.7451ZM64.4317 51.628C64.3233 51.628 64.2122 51.628 64.1058 51.5137C64.1058 51.4763 64.1177 51.4389 64.1296 51.4017C64.1532 51.3275 64.1767 51.2536 64.1058 51.1793L63.6729 50.4963C63.5658 50.6056 63.351 50.6056 63.1335 50.6056C62.92 50.6056 62.7052 50.6056 62.5961 50.4963L62.4877 50.6056L62.1658 51.0593C62.0986 51.1338 62.1148 51.205 62.1368 51.3015C62.1502 51.3606 62.1658 51.4291 62.1658 51.5137C62.1118 51.5707 62.0847 51.5992 62.0574 51.5995C62.0299 51.5997 62.0021 51.5711 61.9463 51.5137C61.8393 51.5137 61.7329 51.2908 61.8393 51.1793C61.8928 51.1193 61.9473 51.1193 61.9885 51.1193C62.0297 51.1193 62.0574 51.1193 62.0574 51.0593L62.4877 50.4963L62.5961 50.3784H62.4877C62.3786 50.2663 62.2722 50.1512 62.2722 49.9247C62.2722 49.8097 62.1658 49.6947 62.1658 49.6947C62.1658 49.6389 62.1922 49.5831 62.2187 49.527C62.2454 49.4703 62.2722 49.4135 62.2722 49.356L61.6245 49.126C61.5721 49.0687 61.5174 49.0972 61.4628 49.1257C61.4085 49.154 61.3543 49.1823 61.3026 49.126C61.1915 49.126 61.0871 49.0117 61.0871 48.8988C61.1915 48.7852 61.3026 48.6702 61.4063 48.7852C61.5352 48.7852 61.5515 48.8643 61.5648 48.9291C61.574 48.9738 61.5818 49.0117 61.6245 49.0117L62.2722 49.2389C62.2722 49.126 62.3786 49.0117 62.4877 48.8988H62.5961L62.4877 48.6702L62.1658 48.2158L62.4877 48.558L62.5961 48.7852C62.8096 48.6702 62.92 48.6702 63.1335 48.6702V47.8743C63.1335 47.7679 63.0361 47.6616 62.9365 47.5529L62.92 47.5349C62.92 47.4206 63.0251 47.3056 63.1335 47.3056C63.351 47.3056 63.4574 47.4206 63.351 47.5349C63.351 47.6683 63.3143 47.7234 63.284 47.7688C63.2627 47.8008 63.2446 47.828 63.2446 47.8743V48.6702C63.351 48.6702 63.5658 48.6702 63.6729 48.7852L64.1058 48.2158C64.159 48.1608 64.159 48.1041 64.159 48.0469C64.159 47.9896 64.159 47.9318 64.2122 47.8743C64.2122 47.6499 64.4317 47.6499 64.5388 47.7621C64.6472 47.8743 64.6472 47.9893 64.5388 48.1057C64.4853 48.1608 64.4314 48.1608 64.377 48.1608C64.3227 48.1608 64.2678 48.1608 64.2122 48.2158L63.784 48.8988L63.7878 48.9029C63.893 49.0145 64.0007 49.1288 64.1058 49.356V49.6947V49.9247L64.7516 50.1512C64.8171 50.222 64.8422 50.2057 64.8778 50.1827C64.9 50.1683 64.9263 50.1512 64.9691 50.1512H65.0755C65.293 50.1512 65.293 50.2663 65.293 50.3784C65.293 50.6056 65.0755 50.6056 64.9691 50.4963C64.9129 50.4963 64.8852 50.4375 64.8577 50.3794C64.8308 50.3225 64.8042 50.2663 64.7516 50.2663L64.1058 50.0391C64.0067 50.2507 63.9052 50.3626 63.8058 50.4722L63.784 50.4963L64.1058 51.0593C64.1612 51.1218 64.2178 51.1517 64.2747 51.1818C64.3271 51.2095 64.3797 51.2373 64.4317 51.2908C64.5388 51.4016 64.5388 51.5137 64.4317 51.628ZM62.1658 48.2158C62.1039 48.1529 62.0774 48.126 62.0453 48.1144C62.0212 48.1057 61.994 48.1057 61.9463 48.1057C61.8393 47.9893 61.8393 47.7621 61.9463 47.6499C61.9938 47.6499 62.0209 47.6499 62.0449 47.6586C62.0772 47.6703 62.1037 47.6978 62.1658 47.7621C62.2403 47.9212 62.2105 48.026 62.1859 48.1123C62.1754 48.1492 62.1658 48.1828 62.1658 48.2158ZM62.2722 49.9247L61.6245 50.2663C61.5609 50.2663 61.5361 50.3078 61.5007 50.3669C61.478 50.4049 61.4508 50.4501 61.4063 50.4963C61.3026 50.6056 61.0871 50.4963 61.0871 50.3784C61.0871 50.2663 61.0871 50.0391 61.3026 50.0391C61.3543 50.0391 61.4086 50.067 61.463 50.095C61.5175 50.1231 61.5722 50.1512 61.6245 50.1512L62.2722 49.9247ZM68.853 53.337C68.6362 52.7683 69.5008 51.858 70.6866 51.4015C70.8624 51.3418 71.0371 51.3143 71.2287 51.2841C71.3923 51.2583 71.5682 51.2306 71.7674 51.1793C71.5924 51.1144 71.3861 51.0525 71.182 50.9912L71.182 50.9912L71.1818 50.9912C71.0083 50.9391 70.8364 50.8874 70.6866 50.8349C70.543 50.8349 70.3992 50.8222 70.2554 50.8095L70.2553 50.8095C69.9678 50.7841 69.6804 50.7587 69.3944 50.8349C68.9538 50.9492 68.7376 51.3889 68.5462 51.7781C68.3617 52.1533 68.2003 52.4814 67.8834 52.426L67.2356 52.0845C67.2356 52.0845 67.342 52.426 67.342 52.8826C67.342 53.073 66.9353 53.085 66.4635 53.0991C66.0942 53.11 65.6849 53.1222 65.3993 53.222C65.3373 53.289 65.2746 53.3551 65.2115 53.4216L65.2115 53.4216L65.2114 53.4216L65.2114 53.4217L65.2114 53.4217L65.1519 53.4844C65.1264 53.5113 65.1009 53.5383 65.0754 53.5656C65.0754 53.6212 65.0492 53.6493 65.0228 53.6775C64.996 53.7063 64.969 53.7352 64.969 53.7935C64.8579 54.015 64.7515 54.3615 64.5387 55.4989C64.5387 55.4989 64.7515 55.3846 64.969 55.1553C65.0009 55.1214 65.0331 55.0772 65.0683 55.0289C65.1504 54.9162 65.249 54.7809 65.3993 54.7009C66.0498 54.1343 66.911 53.6778 67.6679 53.7935L67.8834 54.015C68.0989 54.2451 68.0989 55.0424 68.0989 55.0424L69.6099 54.015C69.6099 54.015 68.9621 53.6778 68.853 53.337ZM85.039 55.2739C84.1751 55.7233 83.5266 55.7233 82.9872 55.6097C82.557 55.6097 82.124 55.7233 81.6917 56.0684L81.3718 55.3846C81.3718 55.3846 82.8788 54.9274 82.8788 54.4744C82.9083 54.3494 82.6822 54.3092 82.3266 54.246C81.375 54.0768 79.4964 53.7427 79.1053 51.1793C80.299 52.2138 81.1268 52.3822 81.8567 52.5307C82.2479 52.6102 82.611 52.6841 82.9872 52.8826C83.197 52.9914 83.3034 53.103 83.5077 53.3171L83.5266 53.337C83.5266 52.8826 83.3098 52.3139 82.9872 51.8581C82.7838 51.64 82.6228 51.4259 82.5039 51.2677C82.435 51.1761 82.3802 51.1033 82.3395 51.0593C82.557 51.1793 82.7724 51.2908 82.9872 51.4015C84.8229 52.3139 85.039 52.6561 84.499 53.7935C84.3437 54.2286 84.6348 54.194 85.0872 54.1404C85.5783 54.0821 86.2594 54.0014 86.7655 54.4744C86.265 54.4744 86.0489 54.6235 85.7103 54.8571C85.5369 54.9767 85.3313 55.1185 85.039 55.2739ZM72.0924 37.5645C72.4163 37.7856 72.3072 38.5409 72.3072 38.5409L73.6014 37.9993C73.6014 37.9993 73.1685 37.674 73.1685 37.3535C73.0621 36.7023 74.3556 36.3744 75.7609 36.1587C75.0021 36.0512 74.0317 35.5116 74.0317 35.5116C73.5466 35.5116 73.1952 35.9136 72.9195 36.2291C72.7666 36.4041 72.6369 36.5524 72.5207 36.5908L72.0924 36.1587C72.0924 36.1587 71.9806 36.5908 71.9806 36.8092C71.9248 36.8092 71.8464 36.8018 71.7513 36.7929C71.4845 36.7678 71.0863 36.7304 70.6871 36.8092C70.4743 36.8092 70.2561 36.8092 70.0433 37.0249C70.0433 37.0249 69.9639 37.2575 69.8103 37.5807C70.1403 37.6105 70.4514 37.6903 70.6871 37.8924C71.3355 37.674 71.9806 37.4577 72.0924 37.5645ZM65.3997 37.4577C65.2933 37.4577 65.0758 37.3536 64.9694 37.244C64.1062 36.8092 63.1338 36.4833 62.4881 36.2696C62.1662 36.1587 61.9467 36.1587 61.9467 36.1587C62.0086 36.0988 62.1027 36.0723 62.2112 36.0417C62.2974 36.0174 62.3926 35.9906 62.4881 35.9424C63.5661 35.6191 64.3237 35.1823 64.3237 35.1823C64.5392 35.1823 64.7519 35.2892 64.9694 35.4007C65.0241 35.4577 65.108 35.5137 65.1911 35.5692C65.2699 35.6219 65.348 35.674 65.3997 35.726C65.7444 36.0141 66.0573 36.3616 66.3235 36.6572L66.3236 36.6573L66.3236 36.6573C66.5598 36.9196 66.7592 37.141 66.9114 37.244C67.0178 36.9181 67.6683 36.4833 67.6683 36.4833L67.7747 37.4577C67.7747 37.5645 67.8838 37.5645 67.8838 37.5645C68.0884 37.6484 68.4318 37.6244 68.8207 37.5972C69.1372 37.575 69.4838 37.5507 69.8103 37.5808C69.7066 37.8012 69.5686 38.0622 69.3948 38.3273C69.3948 38.3273 70.0433 38.1089 70.687 37.8925H70.7955C70.7955 37.8925 71.4439 39.299 71.9806 40.7102C71.5503 40.3843 71.12 40.061 70.687 39.8426C69.6103 39.1921 68.5296 38.7594 67.8838 38.9778C67.6683 38.9778 67.5572 39.0853 67.4508 39.1921C67.236 39.629 67.236 40.4911 67.236 40.4911L65.3997 39.629L65.0758 39.5174C65.0758 39.5174 65.1849 39.4078 65.3997 39.299C65.7243 39.0853 66.1552 38.6505 66.0502 38.2157C65.9425 38.006 65.7374 37.7988 65.4294 37.4876L65.4293 37.4876L65.3997 37.4577ZM81.1529 34.5338C80.398 35.0774 80.291 35.619 80.7239 35.9423C81.1529 36.1586 81.5859 35.619 81.5859 34.7501C81.8007 35.7259 82.34 36.0511 82.6666 35.8348C83.0989 35.5115 82.6666 34.859 82.0182 34.5338C82.34 34.6426 82.6666 34.7501 82.9878 34.7501C83.3104 34.7501 83.5272 34.6426 83.4208 34.3153C83.4208 34.099 83.204 33.9921 82.9878 33.9921C82.6666 33.8826 82.34 33.9921 81.9098 34.2078C82.773 33.7737 82.773 33.1253 82.34 32.9082C81.9098 32.6925 81.4768 33.4505 81.4768 33.9921C81.2633 33.2341 80.7239 32.6925 80.398 32.9082C80.0741 33.1253 80.291 33.7737 81.1529 34.2078C79.9698 33.6649 79.5341 33.9921 79.6432 34.5338C79.7523 34.7501 80.398 34.9686 81.1529 34.5338ZM99.9276 45.8024C100.252 45.6956 100.791 46.1263 100.47 47.1021C100.791 46.2345 101.439 45.6956 101.763 46.0195C102.28 46.3283 101.707 46.9377 100.996 47.2751C100.963 47.2884 100.931 47.3029 100.9 47.3184C100.932 47.3046 100.964 47.2901 100.996 47.2751C101.42 47.1032 102 47.1176 102.303 47.3184C102.409 47.4273 102.409 47.5369 102.409 47.6437C102.409 47.8601 102.303 47.971 102.303 47.971C101.977 48.2942 101.439 48.1874 100.791 47.7505C101.439 48.401 101.546 49.1617 101.006 49.3775C100.47 49.5938 100.143 49.0495 100.252 47.971C100.039 48.9427 99.3909 49.3775 99.0644 49.1617C98.525 48.9427 98.6314 48.2942 99.9276 47.7505C98.958 48.0758 98.3095 47.8601 98.3095 47.4273C98.4186 46.9925 99.2778 46.8884 100.039 47.3184C99.6057 46.9925 99.2778 46.0195 99.9276 45.8024ZM97.8768 42.4431C97.9194 42.4862 97.962 42.5124 97.998 42.5346C98.0541 42.5692 98.0943 42.594 98.0943 42.6574C98.0943 42.769 97.9858 42.8779 97.8768 42.9834C97.4465 43.1991 96.5832 43.3086 96.5832 43.3086L96.9071 44.0687C97.231 43.7427 97.5549 43.7427 97.8768 43.7427C97.9449 43.7563 98.013 43.7715 98.0822 43.787C98.563 43.8948 99.0941 44.0139 100.039 43.6332C100.269 43.534 100.449 43.4347 100.606 43.3479C100.963 43.1506 101.205 43.0173 101.654 43.0943C101.198 42.5222 100.531 42.5238 100.068 42.5248C99.6538 42.5258 99.4018 42.5264 99.606 42.1185C100.143 40.9237 99.9279 40.6025 97.8768 39.2988H97.7731L97.8768 39.4077L97.9131 39.4621C98.1673 39.8425 98.8437 40.8546 98.7407 41.5749C98.5654 41.4 98.3894 41.2556 98.2302 41.125L98.2301 41.1249C98.097 41.0158 97.9758 40.9163 97.8768 40.8169C97.6933 40.7476 97.5098 40.6981 97.3222 40.6475C96.6272 40.4599 95.8757 40.2571 94.8587 38.9776C95.063 41.6553 96.9289 42.1775 97.7578 42.4095L97.7581 42.4095C97.8005 42.4214 97.8402 42.4325 97.8768 42.4431ZM51.8032 35.4006C51.8032 35.4006 52.6692 35.0774 52.5628 34.6426C52.453 33.9921 50.8356 32.7993 49.4329 32.6924C50.8356 31.9351 51.4813 32.2576 51.4813 32.2576C51.9904 32.3721 52.3218 32.872 52.5996 33.2909C52.852 33.6717 53.0602 33.9855 53.3169 33.8825C53.6408 33.7737 54.0691 33.4504 54.0691 33.4504L53.8563 34.2078C53.9353 34.5305 54.3727 34.4945 54.8581 34.4544C55.0266 34.4405 55.2009 34.4262 55.368 34.4262C55.4436 34.4513 55.5193 34.4705 55.5935 34.4894C55.8374 34.5514 56.0662 34.6096 56.2293 34.8589C56.2293 34.8589 56.9855 35.4006 57.0946 37.1343C56.6616 36.4832 56.0165 35.9422 55.368 35.619C54.6112 35.1822 53.8563 35.0774 53.5338 35.4006C53.2106 35.619 53.4254 36.3743 53.4254 36.3743C52.9951 35.9422 52.3446 35.619 51.8032 35.4006ZM81.4765 41.0354C80.6132 42.4433 80.7237 43.4156 81.5856 43.5265C82.3398 43.6334 82.7727 42.5535 82.2327 41.1443C82.4509 41.575 82.6663 41.9023 82.9875 42.1187C83.636 42.6576 84.3909 42.7692 84.7168 42.2255C85.1477 41.4682 84.1754 40.817 82.9875 40.6027C84.2838 40.7102 85.5753 40.1679 85.0393 39.4078C84.7168 38.8682 83.8508 38.9778 82.9875 39.5174C82.8394 39.5945 82.6939 39.7209 82.5815 39.8622C82.7485 39.6066 82.9013 39.3639 82.9875 39.1921C83.2037 38.6505 83.0986 38.3273 82.9875 37.9993C82.8791 37.8925 82.6663 37.7857 82.4509 37.7857C81.4765 37.5645 81.263 39.1921 81.5856 39.9474C80.8307 38.7594 79.6429 38.3273 79.2126 38.9778C78.7796 39.5174 79.5338 40.2774 81.1526 40.4911C78.886 40.3843 78.3467 41.2538 78.886 41.9023C79.2126 42.3364 80.5068 42.3364 81.4765 41.0354ZM90.0022 41.575C89.6777 41.3579 89.6777 40.9238 90.7544 40.491C90.0022 40.7101 89.4629 40.491 89.4629 40.1678C89.5693 39.8426 90.217 39.7357 90.7544 40.061C90.4325 39.8426 90.217 39.0852 90.65 38.9777C90.9719 38.8682 91.4022 39.1921 91.1874 39.9474C91.4022 39.2989 91.8352 38.8682 92.159 39.0852C92.594 39.2989 92.0527 39.8426 91.4022 40.1678C92.0527 39.9474 92.7011 39.9474 92.7011 40.3842C92.594 40.817 92.0527 40.9238 91.4022 40.491C91.9442 40.9238 91.9442 41.575 91.6203 41.6838C91.1874 41.9022 90.8635 41.4681 90.9719 40.6026C90.8635 41.3579 90.3281 41.6838 90.0022 41.575ZM24.8332 52.0856C24.4281 52.3183 24.3632 52.9537 24.3081 53.4941C24.2602 53.9634 24.2197 54.361 23.9699 54.361L23.106 54.0364C23.106 54.0364 23.4278 54.5774 23.5369 54.7978C23.5904 55.064 23.1709 55.3039 22.7063 55.5698C22.2289 55.8429 21.7038 56.1434 21.5949 56.5275C21.5949 56.5275 21.2751 56.9609 21.8097 58.4776C22.1363 57.0718 23.5369 55.6627 24.1874 55.6627C24.6157 55.6627 24.8332 56.637 24.8332 56.637C25.048 55.9859 25.4809 55.4476 26.0203 55.1176C26.0203 55.1176 25.2641 55.2258 25.048 54.9033C24.6157 54.0364 25.6944 52.1931 27.0991 51.6535C25.4809 51.4371 24.8332 52.0856 24.8332 52.0856ZM39.8619 44.4973C39.1454 44.4882 37.9334 44.4727 36.9163 43.5264L36.8851 43.4947C36.5676 43.1715 36.1551 42.7517 35.9446 42.2254C35.8894 42.1713 35.8621 42.0892 35.8348 42.007C35.8082 41.9269 35.7816 41.8467 35.7291 41.7926L35.9446 41.9022C36.2685 42.1186 36.5951 42.3363 36.9163 42.4431C37.736 42.7343 38.3406 42.7437 38.8743 42.7521C39.5344 42.7624 40.0863 42.771 40.803 43.3087C40.5855 42.3363 39.2892 41.3579 38.9653 41.1442C41.7733 41.9022 42.0945 42.1186 41.8797 43.6332C41.7807 44.0384 42.0518 43.97 42.4387 43.8725L42.439 43.8724C42.4679 43.8652 42.4974 43.8577 42.5275 43.8503C43.0669 43.6332 43.7126 43.4155 44.3584 43.8503C43.8475 43.9229 43.6346 44.1477 43.3125 44.4876L43.3125 44.4876C43.1604 44.6482 42.9839 44.8344 42.7403 45.0424C42.7403 45.1102 42.6995 45.1361 42.6432 45.1717C42.6085 45.1937 42.568 45.2194 42.5275 45.2608C41.9151 45.7209 41.3756 45.795 40.9084 45.8591C40.3867 45.9308 39.9552 45.9901 39.6131 46.5605L39.0758 45.9093C39.0758 45.9093 40.4764 45.152 40.4764 44.6124C40.4416 44.5046 40.2103 44.5017 39.8619 44.4973ZM104.676 53.7125C105.754 53.818 106.835 53.4921 106.402 52.8436C106.081 52.4154 105.125 52.5185 104.478 53.2575C105.212 52.4014 104.886 51.7595 104.352 51.6535C103.597 51.5446 103.489 52.6272 103.815 53.1709C103.382 52.5204 102.625 52.1931 102.303 52.3047C102.085 52.3047 101.977 52.3047 101.977 52.4115C101.763 52.6272 101.871 52.8436 102.303 53.1709C102.518 53.2777 102.951 53.4921 103.489 53.5989C103.097 53.5211 102.761 53.5566 102.524 53.5817C102.436 53.591 102.361 53.5989 102.303 53.5989C101.901 53.7348 101.749 53.912 101.742 54.104C101.744 54.1111 101.748 54.1164 101.752 54.1217C101.755 54.1261 101.759 54.1304 101.761 54.1358L101.762 54.1377C101.762 54.1394 101.763 54.1412 101.763 54.1432C101.767 54.1702 101.766 54.1955 101.764 54.2208C101.764 54.2285 101.763 54.2362 101.763 54.244C101.784 54.3184 101.821 54.3927 101.871 54.4678C101.977 54.5773 102.085 54.6842 102.303 54.6842C102.625 54.7978 103.275 54.5773 103.815 54.0364C103.166 54.9033 103.275 55.6626 103.921 55.7695C104.569 55.879 104.891 55.0121 104.352 54.0364C105.108 55.1176 105.969 55.3374 106.296 54.7978C106.618 54.361 105.647 53.818 104.676 53.7125ZM31.9536 44.8268C31.6317 44.6125 31.6317 44.1777 32.5993 43.6334C31.8472 43.9573 31.3058 43.7429 31.3058 43.3088C31.3058 42.9835 31.9536 42.8781 32.5993 43.3088C32.2781 42.9835 31.9536 42.2255 32.3845 42.0119C32.7105 41.9023 33.0323 42.3364 32.9259 43.1993C33.0323 42.4433 33.5717 42.0119 33.8976 42.2255V42.3364C34.1062 42.4408 34.0074 42.648 33.9047 42.8631L33.8976 42.8781C33.8339 43.0028 33.6991 43.0905 33.5556 43.1838C33.4501 43.2524 33.3399 43.324 33.2498 43.4156L33.2537 43.4137C33.4652 43.3075 33.6794 43.1999 33.8976 43.3088C34.2175 43.3088 34.435 43.4156 34.435 43.7429C34.435 43.9573 34.2175 44.1777 33.8976 44.0688C33.6781 44.0688 33.4626 43.9573 33.1407 43.7429C33.7872 44.2832 33.8976 44.933 33.4626 45.0425C33.1407 45.261 32.8168 44.7173 32.8168 43.8504C32.7105 44.7173 32.2781 45.0425 31.9536 44.8268ZM25.8028 45.0424C26.5577 44.7172 26.9906 44.0687 26.3402 43.8503C26.0203 43.6333 25.4809 44.0687 25.4809 44.9329C25.4809 43.9572 24.9395 43.6333 24.6156 43.7428C24.0763 44.0687 24.6156 44.8267 25.048 45.0424C24.2911 44.8267 23.5369 44.9329 23.5369 45.3684C23.5369 45.6956 24.1874 45.9093 25.048 45.4793C23.9699 46.1264 24.0763 46.6694 24.6156 46.8884C24.9395 46.9926 25.4809 46.5605 25.4809 45.6956C25.588 46.6694 26.0203 47.1021 26.4533 46.8884C26.8815 46.6694 26.6667 46.0195 25.8028 45.4793C26.7731 45.9093 27.4209 45.6956 27.4209 45.2609C27.3145 44.7172 26.4533 44.8267 25.8028 45.0424ZM32.2779 48.5087C30.2262 49.0496 30.0114 49.9192 30.7662 50.352C31.3056 50.6792 32.3843 50.352 32.8166 48.9428C32.4927 50.352 33.0321 51.2168 33.787 51.11H33.8974C34.4348 50.8983 34.5459 50.1356 33.8974 49.2707C33.8407 49.2148 33.7843 49.1297 33.7284 49.0455L33.7284 49.0455C33.6756 48.9658 33.6232 48.8868 33.5715 48.8339C33.6287 48.8924 33.6866 48.9504 33.7452 49.0089C33.7955 49.0592 33.8463 49.1099 33.8974 49.1619C34.7593 49.7035 35.6219 49.7035 35.9445 49.3776C36.0556 49.2707 36.0556 49.1619 36.0556 49.0496C36.1437 48.8709 36.0858 48.7664 36.0001 48.612L36.0001 48.612L36.0001 48.6119L36 48.6118C35.9823 48.5799 35.9635 48.5459 35.9445 48.5087C35.5135 48.1875 34.7593 48.0759 33.8974 48.1875C35.0832 47.8602 36.0556 47.1022 35.298 46.5606C34.8677 46.2346 34.3284 46.3421 33.8974 46.7749C33.6951 46.9756 33.4081 47.3607 33.279 47.7586C33.6465 46.4148 33.0164 45.6983 32.3843 45.8025C31.414 46.0196 31.847 47.4274 32.4927 47.9711C31.3056 47.209 30.1198 47.1022 29.905 47.7507C29.7979 48.2943 30.7662 48.8339 32.2779 48.5087ZM33.2496 47.8602C33.26 47.826 33.2698 47.7921 33.279 47.7586C33.268 47.7924 33.2582 47.8263 33.2496 47.8602ZM36.8098 34.3154C36.8098 34.3154 36.8098 34.2078 36.9162 33.9921C37.0253 33.7737 37.4562 33.5594 38.2104 33.2341C38.2104 33.2341 37.2407 33.2341 36.9162 32.7993C36.9162 32.7465 36.8902 32.7198 36.8638 32.6928C36.837 32.6652 36.8098 32.6373 36.8098 32.5809L36.9162 32.4761C37.1296 32.3672 37.5626 32.1509 38.4279 32.7993C38.4279 32.7993 37.7794 31.7188 38.7498 30.8492C38.7498 30.8492 39.4003 31.5024 38.8609 32.6925L38.8807 32.671C39.0226 32.5153 39.557 31.9295 40.4763 31.8256C40.4763 31.8256 40.2615 32.6925 39.1807 33.0137C39.1807 33.0137 40.1551 33.0137 40.3699 33.7737C40.3699 33.7737 39.7221 34.4262 38.8609 33.4505C38.8609 33.4505 39.4003 34.4262 38.3215 34.9686C38.3215 34.9686 37.671 34.6426 38.4279 33.5594C38.4279 33.5594 37.5626 34.4262 36.9162 34.4262C36.9162 34.3154 36.8098 34.3154 36.8098 34.3154ZM48.4606 39.9474C48.6465 40.136 48.5852 40.3206 48.3637 40.5073C48.6175 40.7588 49.0444 40.9238 49.3239 40.9238C49.0343 40.9238 48.7508 40.9786 48.5273 41.0766C48.6727 41.1895 48.7475 41.3282 48.6781 41.4681C48.5717 41.6838 48.3522 41.6838 48.2451 41.6838C48.1212 41.6838 47.9792 41.6419 47.8344 41.5777C47.7011 41.7447 47.6438 41.93 47.7058 42.1186C47.8149 42.2255 48.0297 42.3364 48.2451 42.3364C48.5717 42.3364 49.1111 42.1186 49.5367 41.4681C48.7845 42.878 49.1111 43.5265 49.8653 43.4156C50.2962 43.4156 50.6174 42.6576 50.0787 41.4681C50.8356 42.6576 51.5925 42.9835 51.9144 42.4432C52.3446 42.0118 51.5925 41.2538 50.4026 41.0354C51.8032 41.1442 52.3446 40.491 52.0228 39.9474C51.6962 39.2989 50.7285 39.7357 50.1878 40.491C50.7285 39.7357 50.8356 38.6504 50.0787 38.6504C49.5367 38.6504 49.2175 39.4078 49.6505 40.491C49.2175 39.5173 48.5717 39.1921 48.2451 39.4078C48.1361 39.4078 48.0297 39.5173 48.0297 39.5173C47.9691 39.61 47.9401 39.7012 47.9287 39.7912C48.0324 39.756 48.1388 39.7357 48.2451 39.7357C48.3522 39.7357 48.4606 39.8426 48.4606 39.9474ZM46.5183 40.7101C46.4874 40.7139 46.457 40.7182 46.427 40.7228C46.4585 40.7201 46.489 40.7159 46.5183 40.7101ZM45.4395 41.5749C45.1292 41.2652 45.6195 40.8481 46.427 40.7228C45.8788 40.7698 45.0243 40.3604 45.3331 39.9473C45.5479 39.7357 46.1984 39.7357 46.7337 40.491C46.3028 39.8425 46.4139 39.2989 46.8462 39.192C47.4879 39.192 47.4879 39.8425 47.166 40.3842C47.3297 40.1414 47.6138 39.8973 47.9283 39.7911C47.8993 40.0177 48.0145 40.2293 48.2448 40.3842C48.2661 40.416 48.2961 40.4439 48.3261 40.4718C48.3387 40.4835 48.3513 40.4952 48.3633 40.5072C48.3542 40.5149 48.3454 40.5226 48.3365 40.5302C48.3088 40.5543 48.281 40.5785 48.2448 40.6026C48.1478 40.6026 48.0289 40.6243 47.8981 40.6483C47.7382 40.6776 47.5606 40.7101 47.3835 40.7101C47.7054 40.7101 48.0293 40.8169 48.2448 40.9238C48.3586 40.9623 48.4495 41.0171 48.5269 41.0766C48.4165 41.1253 48.3162 41.1814 48.2448 41.2537C48.0636 41.3437 47.931 41.4566 47.834 41.5776C47.6274 41.4857 47.4143 41.3369 47.2299 41.1163C47.2099 41.0895 47.1886 41.0625 47.166 41.0353C47.1869 41.0633 47.2082 41.0903 47.2299 41.1163C47.687 41.7284 47.4744 42.2301 47.166 42.3363C46.6273 42.4432 46.1984 42.0118 46.7337 41.0353C46.3028 41.6838 45.657 41.9022 45.4395 41.5749Z" fill="white"/>
</mask>
<g mask="url(#mask0_63_12031)">
</g>
<defs>
<linearGradient id="paint0_linear_63_12031" x1="21.5" y1="27.2742" x2="21.5" y2="85.1331" gradientUnits="userSpaceOnUse">
<stop stop-color="#5CB531"/>
<stop offset="0.284299" stop-color="#5CB531"/>
<stop offset="0.599729" stop-color="#00A4EA"/>
<stop offset="1" stop-color="#004EA2"/>
</linearGradient>
</defs>
</svg>
