<svg width="364" height="128" viewBox="0 0 364 128" fill="none" xmlns="http://www.w3.org/2000/svg">
<path d="M195.639 52.8234C197.931 54.3452 200.224 55.4864 202.516 57.0079L205.191 52.4431C198.696 49.3997 193.729 45.5954 189.143 41.0305L189.908 40.2693V39.5087H182.648C176.535 45.2148 170.422 49.78 163.926 53.5843L166.983 58.1495L173.861 53.5843V56.6276H181.884V60.8122H168.13V65.3774H181.884V74.8878H179.21L175.007 66.899L170.04 68.8011L173.097 74.5072H165.072V79.0724H205.191V74.5075H197.167L200.224 68.8011L195.257 66.899L190.672 74.8878H187.615V65.3774H201.37V60.8122H187.615V56.6276H195.639V52.8234V52.8234ZM184.941 52.0628H175.389C178.827 49.78 181.884 47.1173 184.941 44.0739V44.4545C187.997 47.1173 191.054 49.78 194.875 52.0628H184.941V52.0628ZM325.929 41.7911H348.089V46.7366H325.929V41.7911ZM217.8 62.7144H223.531V45.976C224.295 44.8345 225.059 44.0739 225.823 42.9327C226.205 42.5521 226.587 41.7911 226.97 41.4108L225.823 40.6499L222.385 38.7478C222.385 38.7478 216.271 47.1173 211.304 51.3018L213.979 55.4864C215.125 54.3452 216.653 53.204 217.799 51.6821V62.7144H217.8ZM323.254 42.1718L318.287 39.1284C318.287 39.1284 317.523 40.2696 315.612 42.1718C313.702 44.0739 311.027 46.7366 307.971 48.6391L311.409 52.8234C312.938 51.3018 314.466 50.5409 315.612 49.78C318.287 47.8779 320.579 45.5954 323.254 42.1718H323.254ZM324.4 53.5843V58.5298H337.391V72.6054C337.391 74.5075 337.009 75.2681 334.334 75.2681H327.457L329.367 79.8333H335.098C340.066 79.8333 342.74 77.5509 342.74 72.2247V58.5298H350V53.5843H324.4V53.5843ZM307.207 62.3341L309.117 67.2792C310.645 66.5187 312.173 65.3774 313.32 64.2362V79.8333H319.051V58.9101C320.579 57.0079 322.108 55.1061 324.018 52.8234L319.051 50.1606C318.669 50.1606 317.523 51.6821 315.612 54.3452C313.32 57.0079 310.263 60.4319 307.207 62.3341V62.3341ZM235.375 61.5728H229.644V66.138H211.686V70.3226H229.644V80.2136H235.375V70.3226H252.951V66.138H235.375V61.5731V61.5728ZM300.711 66.5187L298.037 62.7144L291.159 67.2792C290.013 65.7577 289.249 64.2362 288.485 62.3341H299.565V41.0305H276.64V74.1269L275.493 76.4093L277.404 80.5942L285.045 77.5509L289.63 75.6487L288.102 72.2247C290.395 75.2681 293.833 77.9312 298.801 79.8333L301.475 76.029C298.418 74.5075 296.126 72.9857 294.216 71.0835L300.711 66.5187H300.711ZM281.989 45.2151H294.598V49.0194H281.989V45.2151V45.2151ZM281.989 73.7466V61.9538H282.753C282.753 62.3341 283.517 64.2362 284.664 66.899C285.428 68.4208 286.192 69.9423 287.72 71.4641L285.046 72.6054L281.989 73.7466V73.7466ZM281.989 57.3886V53.204H294.598V57.3886H281.989ZM264.413 39.509L269.381 40.6499C268.999 41.7911 268.617 42.5521 268.234 43.6933H274.348V47.8779H266.706C266.324 49.0194 265.942 50.1606 265.177 51.3018H273.583V55.8667H269.763V60.8122H274.348V65.3774H269.763V71.4641L272.819 70.3226L275.494 74.1269L265.56 80.2136L262.885 76.4093L263.649 74.8878V65.3774H259.446V60.8122H263.649V55.8667H262.121C261.357 56.6276 260.975 57.3886 260.593 58.1495L257.154 55.1061C260.593 49.78 264.413 39.5087 264.413 39.5087V39.509ZM238.823 38.7478V45.2666L249.577 39.5146L251.882 43.3494L238.823 50.2512V53.435C238.825 54.5696 238.887 56.0029 240.743 56.0029H245.79C246.444 56.0029 247.071 55.7436 247.533 55.282C247.995 54.8205 248.255 54.1944 248.255 53.5416V50.1455L253.448 50.2512V56.0649C253.448 58.7837 251.241 60.9878 248.519 60.9878H236.903C234.214 60.9878 233.061 58.6873 233.061 56.7701V53.7021L227.3 56.7701L226.532 55.2361L225.38 52.552L226.532 51.7852L233.061 48.3339V38.7478H238.823V38.7478ZM234.982 111.581H238.823V106.603H234.598V103.923H238.823V102.775C238.823 101.243 238.055 100.478 236.518 100.478H234.598V97.7975H236.903C241.127 97.7975 241.895 100.478 241.895 103.541V114.261H234.982V111.581V111.581ZM261.868 114.261H258.795V104.306C258.795 100.109 255.723 99.698 250.346 101.229V114.261H246.888V98.5492C248.809 97.4008 251.881 96.6484 254.186 96.6484C256.875 96.6484 259.179 97.0313 261.099 99.3285C261.868 100.477 261.868 101.626 261.868 102.774V114.261H261.868ZM278 113.878L271.854 106.603L269.934 108.518V114.261H266.093V92.054H269.934V104.306L276.847 97.4142H281.072L274.159 104.306L282.224 113.878H278V113.878ZM234.982 100.477H229.221L229.605 97.7972H234.982V100.477V100.477ZM234.982 106.603H234.598C231.141 106.603 229.989 109.283 231.525 110.815C231.91 111.581 233.446 111.581 234.982 111.581V114.261H234.598C230.757 114.643 228.068 113.112 227.684 109.283C227.684 105.455 231.525 103.923 233.446 103.923H234.982V106.603V106.603ZM215.772 111.962C217.309 111.962 218.269 111.839 219.229 111.195C220.189 110.551 220.765 109.662 220.765 108.128C220.765 106.594 220.381 105.828 219.229 105.061C218.077 104.294 217.309 104.294 215.772 104.294V101.61H216.156C217.309 101.61 218.269 101.37 219.229 100.843C220.189 100.317 220.381 99.3102 220.381 98.1598C220.381 97.0097 219.997 96.2842 219.229 95.5177C218.461 94.7509 217.693 94.7509 216.156 94.7509H215.772V92.4323H216.156C218.845 92.4323 220.765 92.5688 221.917 93.5594C223.07 94.5497 223.838 95.8596 223.838 97.3933C223.838 100.077 222.302 101.61 219.997 102.377C221.149 102.76 221.878 102.974 223.07 103.911C224.262 104.847 224.606 105.828 224.606 107.361C224.606 110.045 223.838 111.578 222.302 112.729C220.381 113.879 218.461 114.645 215.772 114.645V111.962V111.962ZM176.217 91.6711V108.901C176.217 112.729 173.528 114.261 169.687 114.261H163.926L164.694 109.666H168.151C168.919 109.666 169.687 109.283 169.687 108.135V91.6711H176.217ZM215.778 92.054V94.7341H211.553V101.626H215.778V104.306H211.553V111.963H215.778V114.643H208.096V92.4369H215.778V92.054H215.778ZM188.508 92.054V100.477H195.805V92.054H201.951V114.261H195.805V105.455H188.508V114.261H182.362V92.054H188.508Z" fill="#003D73"/>
<path d="M89.9901 80.8429L89.3058 72.1716L73.9022 67.6625L81.0903 53.4415L73.9022 46.8515L60.2102 54.482L55.076 39.5674H46.1759L42.4103 55.5228L27.6917 48.2388L21.5301 55.1757L29.403 69.0501L14 74.5997L14.6846 83.6179L30.0879 88.4738L23.2421 102.348L29.7456 108.938L43.7802 100.613L48.5721 115.875H51.6527L57.8142 115.528L62.2641 100.267L75.9561 107.204L82.8019 99.9198L74.5868 86.3925L89.9901 80.8429V80.8429ZM76.5261 100.475C76.8691 100.821 76.5261 101.167 76.1828 100.821L54.9114 82.8258C54.5684 82.4796 53.1958 82.4796 53.1958 83.5181L53.5391 111.203C53.5391 112.242 52.8528 112.242 52.8528 111.203L51.4806 96.6684L50.4513 84.2101C50.108 83.1719 49.765 82.8258 49.0787 83.1719L30.2088 101.859C29.8658 102.205 29.1796 101.859 29.8658 101.513L45.6482 81.0956C46.3342 80.0574 45.9912 79.365 44.9616 79.365L18.5438 79.0189C18.2009 79.0189 18.2009 78.673 18.5438 78.673L45.3049 75.9043C46.3342 75.9043 46.6772 74.8661 45.9912 74.1741L27.4643 54.1024C27.121 53.41 27.4643 53.41 27.8073 53.7562L48.3928 71.7516C49.422 72.4439 50.4513 72.0977 50.4513 71.0592L51.4806 43.7202C51.4806 43.3743 51.8236 43.3743 51.8236 43.7202L52.1665 48.2191L53.8821 71.0595C53.8821 72.0977 54.9114 72.4439 55.5977 71.7519L74.1242 53.0642C74.4675 52.718 74.8105 53.0642 74.4676 53.41L57.9992 74.1741C57.6562 74.5203 57.6562 75.9043 58.6855 75.9043L85.4462 76.5967C85.7892 76.5967 85.7892 76.9425 85.4462 76.9425L57.9992 79.365C57.3129 79.365 56.9699 80.4032 57.3129 81.0956L76.5261 100.475V100.475Z" fill="#F08300"/>
<path d="M131.477 38.909L130.429 32.3426L118.204 30.2688L122.745 19.2094L116.808 15.0619L106.679 21.9742L101.789 11.2602L94.8032 11.9516L93.4063 24.0479L81.531 19.2094L77.34 24.7389L84.3251 34.416L73.1487 39.6004L74.1967 46.1668L86.4208 48.9316L82.2295 59.6455L87.8177 64.1386L97.9465 56.8804L102.487 66.5578V68.2857L109.473 67.2489L111.568 55.4984L122.745 59.6459L127.285 53.7701L120.3 44.0931L131.476 38.909H131.477ZM122.79 54.9497C123.141 55.2959 122.79 55.6421 122.44 55.2959L104.938 43.1806C104.588 42.8344 103.538 43.1805 103.888 43.8729L105.988 64.6419C105.988 65.3342 105.638 65.3342 105.288 64.6419L101.788 46.6419L101.438 44.9114C101.088 43.8729 100.738 43.8729 100.387 44.2191L87.436 59.4496C87.0861 59.7958 86.7362 59.4496 87.0861 59.1035L97.9373 42.4882C98.2872 41.7959 97.9373 41.1035 97.2372 41.1035L76.9346 42.8344C76.5847 42.8344 76.5847 42.4882 76.9346 42.4882L97.2372 38.3341C98.2872 37.9883 98.2872 37.296 97.5871 36.9498L81.4854 23.7959C81.1352 23.4497 81.4854 23.1036 81.8352 23.4497L98.6374 35.2189C99.6874 35.9113 100.387 35.5651 100.038 34.5266L98.6374 13.7576C98.6374 13.7576 98.9873 13.4114 98.9873 13.7576L101.788 30.0267L102.488 34.1807C102.488 34.8731 103.538 35.2189 103.888 34.5266L116.84 19.296C116.84 18.9498 117.19 19.296 117.19 19.6422L106.338 36.2574C105.988 36.6036 106.338 37.6421 107.038 37.296L127.691 35.9113C128.041 35.9113 128.041 36.2574 127.691 36.2574L107.038 40.065C106.338 40.065 106.338 41.1035 106.688 41.4497L122.79 54.9497Z" fill="#FDD000"/>
</svg>
