<svg width="152" height="60" viewBox="0 0 152 60" fill="none" xmlns="http://www.w3.org/2000/svg">
<g clip-path="url(#clip0_479_38059)">
<path d="M35.3444 43.0001C36.7716 41.7469 37.7836 40.0872 38.2454 38.2424C38.7072 36.3977 38.5968 34.4557 37.9289 32.6755C37.2611 30.8953 36.0676 29.3615 34.5076 28.2789C32.9477 27.1963 31.0955 26.6163 29.1982 26.6163C27.3008 26.6163 25.4486 27.1963 23.8887 28.2789C22.3287 29.3615 21.1352 30.8953 20.4674 32.6755C19.7995 34.4557 19.6892 36.3977 20.1509 38.2424C20.6127 40.0872 21.6247 41.7469 23.0519 43.0001C15.4936 41.7149 8.53496 38.0647 3.17297 32.5722C1.80013 31.1669 0.823016 29.4222 0.340986 27.5156C-0.141043 25.609 -0.110797 23.6084 0.428648 21.7173C2.22452 15.4588 6.00259 9.95566 11.1926 6.03861C16.3826 2.12157 22.7028 0.00317383 29.1994 0.00317383C35.6959 0.00317383 42.0162 2.12157 47.2062 6.03861C52.3962 9.95566 56.1743 15.4588 57.9701 21.7173C58.5094 23.6067 58.5402 25.6055 58.0595 27.5106C57.5788 29.4158 56.6037 31.1596 55.2333 32.5648C49.8695 38.0617 42.9071 41.7147 35.3444 43.0001Z" fill="#1677FF"/>
<path d="M32.9539 44.532C31.7155 44.4997 30.4548 44.4799 29.1966 44.4799C27.9384 44.4799 26.6876 44.4997 25.4393 44.532C18.354 44.7156 11.2925 45.4327 4.31445 46.6772C7.04926 50.7812 10.7517 54.1456 15.0936 56.4724C19.4356 58.7992 24.283 60.0166 29.2065 60.0166C34.13 60.0166 38.9774 58.7992 43.3194 56.4724C47.6613 54.1456 51.3637 50.7812 54.0985 46.6772C47.1139 45.4322 40.0458 44.7151 32.9539 44.532Z" fill="#1677FF"/>
<path d="M81.1777 11.1901H75.4215L68.6499 26.5389H73.2048V49.5075H77.9231V22.256H76.3751L81.1777 11.1901Z" fill="#3E3A39"/>
<path d="M83.0601 49.5076H104.608C105.265 49.5076 105.895 49.246 106.36 48.7804C106.824 48.3148 107.085 47.6833 107.085 47.0248V30.9485H83.0601V49.5076ZM87.766 33.3072H102.364V39.0971H87.7759L87.766 33.3072ZM87.766 41.4533H102.364V47.2507H87.7759L87.766 41.4533Z" fill="#3E3A39"/>
<path d="M103.152 16.908H107.881V16.5132V14.5493H103.15V10.7953H98.434V14.5493H91.3256V10.7953H86.6072V14.5493H81.8765V16.5132V16.908H86.6047V24.2299H81.0889V26.5886H108.671V24.2299H103.152V16.908ZM91.3256 24.2299V16.908H98.434V24.2299H91.3256Z" fill="#3E3A39"/>
<path d="M141.674 32.0036V19.0929H136.968V32.1675C136.721 39.7177 133.501 44.1943 126.11 47.561V50.0711C132.78 47.7993 136.76 45.324 139.017 42.0441L139.329 41.5898L139.663 42.0268C142.068 45.1725 145.88 47.6529 152.022 50.0711V47.5585C145.075 44.1943 141.828 39.395 141.674 32.0036Z" fill="#3E3A39"/>
<path d="M132.99 13.7996H145.622V38.2877H150.343V12.7146C150.346 12.5452 150.315 12.3771 150.252 12.2199C150.189 12.0627 150.095 11.9198 149.976 11.7993C149.857 11.6789 149.716 11.5834 149.56 11.5184C149.404 11.4535 149.236 11.4203 149.068 11.421H128.262V38.2877H132.981L132.99 13.7996Z" fill="#3E3A39"/>
<path d="M111.172 15.2247V43.6679H122.872C123.529 43.6679 124.159 43.4063 124.624 42.9407C125.088 42.4751 125.349 41.8436 125.349 41.1851V12.8585H111.172V15.2247ZM115.878 14.8224H120.621V41.7115H115.89L115.878 14.8224Z" fill="#3E3A39"/>
</g>
<defs>
<clipPath id="clip0_479_38059">
<rect width="152" height="60" fill="white"/>
</clipPath>
</defs>
</svg>
