<svg width="389" height="128" viewBox="0 0 389 128" fill="none" xmlns="http://www.w3.org/2000/svg">
<path d="M111.821 71.0309C112.353 71.0309 112.754 71.4263 112.828 71.9325V110.092C112.717 112.203 111.031 113.883 108.907 114H70.8226C70.2794 113.957 69.8592 113.518 69.8592 112.963C69.8592 112.734 69.9706 112.518 70.1 112.345L70.2671 112.185L111.019 71.4327L111.185 71.2723C111.365 71.1303 111.568 71.0316 111.821 71.0316V71.0309ZM89.1341 42.5154C89.6107 42.5154 90.0446 42.6818 90.3932 42.9585L90.7538 43.3152L110.88 63.5721L111.033 63.7201C111.162 63.8921 111.266 64.1135 111.266 64.3595C111.266 64.6115 111.162 64.8206 111.033 64.9989L110.881 65.1526L63.6778 112.647L63.3842 112.942C62.6856 113.58 61.7865 113.954 60.8418 114H19.6287C19.1092 113.963 18.6876 113.526 18.6876 112.973C18.6876 112.739 18.7792 112.53 18.9259 112.352L19.0845 112.192L87.5021 43.3335L87.9054 42.9398C88.248 42.6818 88.6696 42.5154 89.1341 42.5154V42.5154ZM29.7906 92.5154C30.3395 92.5278 30.797 92.973 30.797 93.5397C30.797 93.7653 30.7053 93.9606 30.5774 94.1372L30.3638 94.3445L15.8117 108.886L15.5985 109.093C15.4335 109.227 15.2323 109.312 15.0067 109.312C14.4762 109.312 14.0673 108.91 14.0004 108.404V93.4238C14.0553 92.918 14.4579 92.5214 14.9824 92.5154H29.7906ZM36.2071 40.1718C36.6855 40.1782 37.113 40.3505 37.4655 40.6279L37.7926 40.9543L59.7357 62.4318L59.956 62.6599C60.2704 63.0233 60.4844 63.4794 60.4844 64.0028C60.4844 64.5206 60.2704 64.9887 59.9433 65.3525L59.7544 65.5618L37.8303 87.0147L37.4214 87.4151C37.088 87.6555 36.6918 87.8099 36.2512 87.8282H15.0003C14.7456 87.8189 14.5031 87.7165 14.3188 87.5405C14.1345 87.3645 14.021 87.127 14 86.873V41.1143C14.0441 40.6092 14.4343 40.2212 14.9563 40.1718H36.2071ZM61.1481 14C62.1548 14.0441 63.0582 14.4547 63.7476 15.1057L63.9979 15.3648L84.6055 36.7077L85.106 37.2131C85.3316 37.5607 85.4842 37.978 85.4842 38.4327C85.4842 38.9001 85.3316 39.3234 85.0937 39.6773L84.6238 40.1574L65.3525 60.1041L65.1022 60.3695C64.7423 60.6853 64.2845 60.8749 63.7903 60.8749C63.2898 60.8749 62.8322 60.6853 62.472 60.3695L62.2158 60.1041L19.499 15.8829L19.2917 15.6552C19.1529 15.4789 19.0776 15.2608 19.0781 15.0363C19.0781 14.5055 19.4687 14.0694 19.9692 14H61.1481ZM108.757 14C110.957 14.0864 112.707 15.7846 112.828 17.9153V56.0114C112.777 56.5366 112.333 56.9688 111.782 56.9688C111.528 56.9688 111.3 56.8701 111.135 56.734L110.957 56.5673L69.1183 15.8156L68.935 15.6366C68.7824 15.4638 68.6876 15.2538 68.6876 15.0067C68.6876 14.4942 69.093 14.074 69.6132 14H108.757ZM15.0345 19.8592C15.2601 19.8592 15.4487 19.9569 15.6313 20.0788L15.8322 20.2921L30.3641 34.8332L30.565 35.0528C30.699 35.2174 30.7966 35.4187 30.7966 35.6442C30.7966 36.1747 30.3884 36.5952 29.871 36.6562H14.9009C14.4142 36.5952 14.0247 36.1867 14 35.6686V20.8652C14.0247 20.3167 14.4688 19.8592 15.0349 19.8592H15.0345Z" fill="#C41829"/>
<path d="M280.35 33.9221C280.549 33.9221 280.724 33.9873 280.874 34.0832L280.929 34.1202L281.153 34.3493L284.108 37.3834L284.384 37.6591C284.411 37.7282 284.428 37.8001 284.428 37.8797C284.428 38.124 284.259 38.3274 284.018 38.4141L283.966 38.431H277.873V44.624H278.308L280.552 42.3365L280.779 42.1074C280.945 41.9823 281.147 41.9138 281.355 41.9117C281.56 41.9117 281.74 41.9773 281.891 42.0788L281.946 42.1186L282.14 42.3114L285.253 45.5141L285.529 45.7953C285.557 45.8612 285.576 45.9328 285.576 46.0128C285.576 46.2599 285.402 46.4636 285.164 46.5479L285.111 46.5641H277.873V55.4638L284.436 52.7793L284.755 52.6552C284.783 52.6524 284.813 52.6411 284.848 52.6411C285.204 52.6411 285.488 52.903 285.488 53.2256C285.488 53.2795 285.478 53.3285 285.462 53.3789L285.444 53.4296L285.185 53.7053L275.763 64.0212L275.637 64.1619C275.46 64.3106 275.236 64.3917 275.005 64.3906C274.674 64.3906 274.392 64.2274 274.218 63.9994L274.183 63.9497L274.103 63.8009L271.526 59.0851L271.441 58.9364C271.408 58.8455 271.378 58.7517 271.378 58.6438C271.378 58.3583 271.545 58.1116 271.783 57.9565L271.835 57.9248L272.081 57.8201L272.329 57.7235V46.5641H264.411V44.624H272.329V38.431H267.136V36.4797H277.455L279.563 34.3296L279.759 34.1287C279.926 34.0046 280.126 33.9218 280.35 33.9218V33.9221ZM292.687 22.2033C293.059 22.2738 293.347 22.5149 293.438 22.8406L293.453 22.9023V23.1448H305.318V22.8857C305.396 22.5554 305.66 22.3041 306.016 22.2174L306.083 22.2033H310.752C311.127 22.2738 311.413 22.5248 311.501 22.8536L311.515 22.9164V41.432C311.455 41.7704 311.197 42.0295 310.849 42.1215L310.783 42.1366H306.05C305.699 42.0661 305.432 41.837 305.334 41.5226L305.318 41.4627V41.1983H299.622C299.622 41.1983 300.495 45.4161 304.064 50.1061L304.174 50.2482L308.28 43.7524L308.352 43.6438C308.441 43.5024 308.564 43.386 308.71 43.3055C308.857 43.2251 309.021 43.1833 309.188 43.1842C309.281 43.1842 309.369 43.2018 309.455 43.2275L309.519 43.2483L309.931 43.5127L312.932 45.4513L313.285 45.6801C313.444 45.8415 313.544 46.0421 313.544 46.2676C313.544 46.5274 313.416 46.7516 313.221 46.9116L313.171 46.9504L312.907 47.0921L305.064 51.3458C307.456 54.1399 310.836 56.9837 315.588 59.1063C315.696 59.1567 315.819 59.1955 315.927 59.2459C316.064 59.3488 316.147 59.5074 316.147 59.6801C316.147 59.9113 315.999 60.0982 315.793 60.2011C315.688 60.2208 315.585 60.2459 315.485 60.2681C313.552 60.7414 311.384 61.8197 310.688 63.7333C310.674 63.7752 310.663 63.8224 310.646 63.8725C310.493 64.1791 310.159 64.3906 309.758 64.3906C309.644 64.3906 309.53 64.3628 309.421 64.3293C309.285 64.2345 309.134 64.1372 308.998 64.0339C305.043 61.1105 302.553 57.4271 300.994 53.8745L300.908 53.6771L290.758 64.0008L290.599 64.1566C290.424 64.2971 290.206 64.3746 289.981 64.3769C289.834 64.3779 289.689 64.346 289.556 64.2834C289.423 64.2208 289.306 64.1291 289.213 64.0152L289.174 63.9645L289.049 63.722L286.941 59.5522L286.802 59.2846C286.782 59.2124 286.752 59.137 286.752 59.0647C286.752 58.7683 286.921 58.5205 287.166 58.3597L287.22 58.3266L287.428 58.2314L287.695 58.112V22.8719C287.774 22.5498 288.038 22.3037 288.389 22.2177L288.456 22.2036H292.687V22.2033ZM336.473 30.4062C336.576 30.4071 336.678 30.4225 336.776 30.452L336.848 30.4745L337.229 30.7082L341.366 33.2274L341.726 33.4494C341.9 33.6116 342.015 33.8308 342.015 34.073C342.015 34.1981 341.986 34.3176 341.933 34.4258C341.826 34.5397 341.726 34.6535 341.622 34.7733C340.265 36.2692 338.825 37.6885 337.31 39.0249L336.972 39.3196V63.6846C336.889 64.0424 336.589 64.3085 336.188 64.3801L336.116 64.3906H330.97C330.565 64.3423 330.248 64.1009 330.132 63.7625L330.113 63.7019V44.4637C327.4 46.2225 324.985 47.5126 323.24 48.3635C323.092 48.4319 322.959 48.4946 322.826 48.5573C322.788 48.5598 322.752 48.5771 322.717 48.5771C322.333 48.5771 322.026 48.3039 322.026 47.968C322.026 47.9024 322.044 47.8482 322.068 47.7882C322.162 47.6776 322.26 47.5693 322.36 47.4611C328.298 40.7997 333.654 33.5806 335.502 31.0325C335.602 30.8901 335.694 30.765 335.777 30.6511C335.973 30.4911 336.22 30.4045 336.473 30.4062V30.4062ZM369.693 33.9218C369.868 33.9234 370.04 33.9737 370.189 34.067L370.25 34.1065L370.518 34.393L374.602 38.6326L374.892 38.9329C374.919 38.9964 374.938 39.0679 374.938 39.1423C374.938 39.4031 374.749 39.6182 374.491 39.6894L374.438 39.7017H365.387V58.3492C365.387 58.3492 364.925 64.3906 358.655 64.3906C354.584 64.3906 357.185 61.4897 352.207 59.4732C352.117 59.4344 352.032 59.3988 351.939 59.3657C351.784 59.2557 351.682 59.0957 351.682 58.9057C351.682 58.6562 351.847 58.45 352.08 58.3654L352.13 58.3492H356.344C358.616 58.3492 358.654 56.4937 358.655 56.4306V39.7017H343.191V37.8864H365.387L368.922 34.3021L369.097 34.1311C369.266 33.9965 369.476 33.9228 369.693 33.9218V33.9218ZM240.068 19.8593C240.458 19.9295 240.751 20.2037 240.822 20.5671C240.822 20.6651 240.822 20.7574 240.825 20.8554C240.84 23.7694 240.952 26.5183 241.132 29.0911L241.169 29.6032H247.747L249.992 27.2952L250.178 27.1024C250.342 26.979 250.544 26.8923 250.771 26.8923C250.982 26.8923 251.169 26.9632 251.327 27.0714L251.385 27.1137L251.538 27.273L254.699 30.5627L254.953 30.8312C254.985 30.9014 255.004 30.9796 255.004 31.0551C255.004 31.3032 254.843 31.5073 254.619 31.5951L254.57 31.612H241.333C241.816 36.8628 242.589 41.3333 243.493 44.9896C245.466 40.1529 246.547 36.0599 246.998 34.1773C247.036 34.0293 247.066 33.8946 247.094 33.7688C247.252 33.4724 247.577 33.2623 247.957 33.2623C247.996 33.2623 248.029 33.2718 248.06 33.2799L248.091 33.2877L248.388 33.3631L251.658 34.2249L252.024 34.3144C252.33 34.4681 252.546 34.7564 252.546 35.1005C252.546 35.1452 252.521 35.1843 252.519 35.2291C252.491 35.313 252.467 35.3941 252.445 35.4779C250.587 42.0971 248.088 47.2782 245.438 51.2901C246.941 55.142 248.448 57.1141 249.391 57.1141C251.063 57.1141 250.891 55.4412 253.032 52.1346C253.09 52.0479 253.15 51.9528 253.212 51.8604C253.325 51.7652 253.475 51.7039 253.639 51.7039C253.969 51.7039 254.237 51.9443 254.264 52.2492C254.229 52.3669 254.202 52.4871 254.172 52.6045C252.358 59.8 256.425 64.3906 249.722 64.3906C246.818 64.3906 243.903 61.6265 241.467 56.4401C238.74 59.4559 236.129 61.4083 234.154 62.6311C234.047 62.6952 233.941 62.7625 233.837 62.8267C233.78 62.8408 233.725 62.8577 233.662 62.8577C233.307 62.8577 233.017 62.5919 233.017 62.2673C233.017 62.1891 233.037 62.1133 233.067 62.0491C233.162 61.954 233.252 61.856 233.337 61.7608C235.938 58.9128 238.101 55.7158 239.885 52.5206C238.063 47.2704 236.656 40.3746 235.953 32.0304L235.919 31.612H226.462C226.502 33.4614 226.486 35.3115 226.415 37.16L226.399 37.5593H230.018C230.021 37.5146 230.021 37.4726 230.021 37.4279C230.077 37.0764 230.344 36.8001 230.714 36.7116L230.78 36.6975H234.514C234.877 36.7638 235.155 37.0105 235.247 37.3376L235.263 37.4V37.7275C235.154 49.1495 233.378 54.2721 233.378 54.2721C233.353 54.37 232.268 58.5663 228.136 58.5663C225.467 58.5663 226.937 56.7673 225.385 55.388C225.372 55.3739 225.366 55.363 225.352 55.3545C225.284 55.295 225.212 55.2381 225.139 55.1839C225.12 55.167 225.096 55.1557 225.071 55.1448C225.016 55.0524 224.973 54.9488 224.973 54.8371C224.973 54.5773 225.152 54.3648 225.403 54.2858L225.453 54.2717H226.489C227.876 54.2717 228.136 52.9094 228.136 52.9094C228.136 52.9094 229.635 47.9906 229.962 39.8304L229.972 39.5822H226.292C225.863 45.8669 224.75 50.5658 223.363 54.0877L223.29 54.2721L223.252 54.3753C220.987 59.9508 218.045 63.0787 216.147 64.1894C216.032 64.2479 215.928 64.3092 215.822 64.36C215.772 64.3741 215.723 64.3906 215.672 64.3906C215.311 64.3906 215.026 64.1277 215.026 63.7921C215.026 63.7357 215.046 63.6857 215.068 63.63C215.114 63.5401 215.169 63.4618 215.224 63.3751C217.497 59.3336 218.92 54.1367 219.782 49.6091L219.843 49.2866L219.853 49.2419C221.441 40.6981 221.058 32.6416 220.834 29.7403C220.83 29.6011 220.82 29.4621 220.804 29.3237C220.869 28.967 221.14 28.6899 221.506 28.606L221.572 28.5934H225.634C226 28.655 226.281 28.8898 226.379 29.2088C226.379 29.2966 226.383 29.3854 226.388 29.4731L226.396 29.6036H235.774C235.587 26.7191 235.487 23.8298 235.473 20.9393C235.471 20.7913 235.471 20.6538 235.471 20.5086C235.55 20.1963 235.805 19.958 236.138 19.8741L236.205 19.8593H240.068V19.8593ZM155.512 43.297C155.915 43.3604 156.225 43.6237 156.315 43.9758L156.328 44.0351V45.244H179.657V44.0157C179.732 43.6632 180.019 43.39 180.404 43.3093L180.473 43.297H186.008C186.399 43.3548 186.701 43.6089 186.793 43.9469L186.807 44.0072V63.6776C186.74 64.0311 186.447 64.305 186.05 64.3801L185.983 64.3906H180.49C180.087 64.3378 179.771 64.0801 179.672 63.7287L179.657 63.6691V62.4351H156.328V63.6497C156.264 64.0163 155.963 64.3032 155.563 64.3797L155.495 64.3906H149.999C149.612 64.3406 149.302 64.0945 149.197 63.7643L149.181 63.7054V43.9794C149.261 43.6438 149.539 43.3872 149.907 43.3097L149.976 43.297H155.512H155.512ZM179.657 54.8103H156.324V60.4905H179.657V54.8103H179.657ZM213.658 22.2033C214.001 22.2727 214.266 22.517 214.359 22.8349L214.374 22.8952V34.208L215.628 32.6017L215.79 32.3938C215.967 32.2348 216.196 32.1458 216.434 32.1435C216.645 32.1435 216.833 32.2175 216.986 32.3279L217.041 32.3712L217.252 32.6102L219.446 35.1907L219.687 35.4727C219.708 35.5382 219.73 35.6094 219.73 35.6806C219.73 35.9531 219.545 36.1653 219.286 36.2471L219.233 36.2615H214.374V50.5932L216.484 50.2175L216.863 50.1548C217.171 50.189 217.419 50.4339 217.419 50.7445C217.419 50.8689 217.374 50.9849 217.305 51.0807L217.274 51.1206L216.998 51.3056L207.008 58.2438L206.775 58.4031C206.638 58.4771 206.484 58.5314 206.322 58.5314C206.16 58.5326 206.001 58.4926 205.86 58.4152C205.718 58.3378 205.599 58.2255 205.512 58.089L205.481 58.0358L205.433 57.9276L203.409 53.7208L203.325 53.5527C203.29 53.4646 203.271 53.3711 203.268 53.2763C203.268 52.9228 203.476 52.6242 203.78 52.4716L203.838 52.4448L204.249 52.3764L209.059 51.5248V36.2615H203.609V34.208H209.059V22.9072C209.127 22.5692 209.376 22.3122 209.716 22.2192L209.78 22.2036H213.658L213.658 22.2033ZM298.391 41.1983H293.453V55.4768L300.365 52.3179C298.16 46.379 298.391 41.198 298.391 41.198V41.1983ZM179.657 47.1887H156.324V52.866H179.657V47.1887H179.657ZM187.254 21.0313C187.453 21.0313 187.64 21.0944 187.795 21.1913L187.852 21.229L188.062 21.4462L191.817 25.2603L191.972 25.4172C192.03 25.5049 192.075 25.6093 192.075 25.7193C192.075 25.9766 191.892 26.181 191.639 26.26L191.587 26.2741H175.984V40.2082H186.534L189.394 37.3249L189.597 37.1187C189.765 37.0007 189.965 36.921 190.195 36.921C190.416 36.921 190.609 36.988 190.77 37.1015L190.829 37.1462L190.953 37.2643L194.72 41.0651L194.988 41.3397C195.018 41.4084 195.038 41.4852 195.038 41.5593C195.038 41.8271 194.84 42.0418 194.574 42.1126L194.52 42.125H142.126V40.2082H159.519V26.2737H143.07V24.3679H183.585L186.448 21.4458L186.658 21.229C186.831 21.1025 187.04 21.0334 187.254 21.0317V21.0313ZM169.925 26.2737H165.697V40.2082H169.925V26.2737H169.925ZM305.318 33.6743H293.452V39.2258H305.318V33.6743H305.318ZM184.692 26.8902C184.768 26.8902 184.839 26.9092 184.91 26.9318L184.964 26.9494L185.133 27.0231L189.719 29.0266L189.819 29.0678C189.974 29.147 190.105 29.2677 190.196 29.4164C190.287 29.5652 190.335 29.7362 190.334 29.9106C190.334 30.0198 190.313 30.1288 190.277 30.2289C190.197 30.3498 190.129 30.4735 190.049 30.5912C187.203 34.8315 183.061 37.3154 180.804 38.4324C180.693 38.4825 180.587 38.5413 180.487 38.5854C180.45 38.5942 180.413 38.609 180.373 38.609C180.291 38.6086 180.21 38.592 180.134 38.5601C180.058 38.5281 179.989 38.4815 179.932 38.4229C179.874 38.3643 179.828 38.2949 179.798 38.2186C179.767 38.1423 179.751 38.0607 179.752 37.9784C179.752 37.9284 179.768 37.8843 179.781 37.8371C179.816 37.7631 179.842 37.6897 179.874 37.6189C181.949 32.9722 183.214 29.4069 183.783 27.7005C183.828 27.5828 183.857 27.4767 183.894 27.3798C184.055 27.0936 184.34 26.8902 184.692 26.8902V26.8902ZM271.673 21.031C271.697 21.031 271.719 21.0373 271.74 21.0429L271.769 21.0507L272.132 21.1427L275.869 22.1205L276.161 22.1959C276.481 22.3439 276.711 22.6347 276.711 22.9809C276.711 23.0425 276.682 23.0982 276.671 23.1571C276.603 23.2854 276.541 23.4169 276.47 23.5424C275.508 25.3601 274.455 27.0157 273.376 28.5162L273.16 28.8144H278.088L280.453 26.4422L280.601 26.297C280.773 26.1658 280.997 26.0735 281.238 26.0735C281.427 26.0735 281.598 26.1334 281.746 26.2198L281.808 26.2582L282.111 26.5543L285.293 29.753L285.499 29.968C285.548 30.0463 285.576 30.1358 285.576 30.2278C285.576 30.4848 285.399 30.692 285.146 30.7724L285.094 30.7865H271.625C267.355 35.9633 263.235 38.609 263.235 38.609C267.599 30.5658 269.879 24.2967 270.678 21.9111C270.732 21.7546 270.781 21.615 270.82 21.4916C270.912 21.349 271.038 21.2319 271.187 21.1514C271.336 21.0708 271.504 21.0294 271.673 21.031H271.673ZM148.657 26.8902C148.755 26.9078 148.856 26.9304 148.965 26.9501C153.132 27.6646 157.412 30.4107 157.412 34.3599C157.412 37.7719 155.503 38.609 153.807 38.609C148.749 38.609 152.233 32.2538 148.249 27.9649C148.203 27.9106 148.158 27.8592 148.108 27.8077C148.045 27.7132 148.005 27.6131 148.005 27.4989C148.005 27.1648 148.295 26.9018 148.657 26.8902V26.8902ZM335.625 21.031C335.729 21.031 335.834 21.0465 335.931 21.0747L336.001 21.0983L336.313 21.2925L340.255 23.75L340.566 23.9466C340.736 24.1031 340.84 24.3136 340.84 24.5511C340.84 24.7239 340.774 24.8775 340.673 25.0094C340.588 25.0904 340.501 25.1687 340.408 25.2498C335.092 30.0886 328.795 32.6701 325.4 33.7949C325.263 33.8435 325.14 33.8784 325.017 33.9218C324.662 33.9161 324.378 33.6599 324.378 33.3472C324.378 33.2471 324.411 33.1639 324.452 33.0882C324.528 33.0099 324.602 32.9398 324.678 32.8668C330.238 27.4802 333.483 23.3048 334.734 21.5734C334.813 21.4733 334.892 21.3655 334.952 21.2791C335.122 21.1226 335.362 21.031 335.625 21.031V21.031ZM305.318 25.1081H293.452V31.7015H305.318V25.1081H305.318ZM242.576 21.031C242.675 21.031 242.776 21.031 242.871 21.0334C246.461 21.1956 248.813 22.9777 249.081 24.7133C249.42 26.9117 247.771 28.0622 246.33 28.0622C243.153 28.0622 244.881 24.7545 242.328 21.9784C242.259 21.9016 242.197 21.8297 242.112 21.7578C242.087 21.6919 242.073 21.6225 242.071 21.5523C242.071 21.2904 242.287 21.0824 242.576 21.031V21.031ZM366.25 21.031C366.463 21.031 366.655 21.099 366.817 21.2118L366.877 21.2558L367.059 21.4483L371.086 25.7534L371.359 26.0523C371.394 26.1235 371.411 26.2036 371.411 26.2892C371.411 26.5677 371.211 26.7993 370.943 26.8779L370.892 26.8902H343.191V24.9364H362.108L365.477 21.4011L365.6 21.2678C365.782 21.1148 366.012 21.031 366.25 21.031V21.031ZM162.048 80.0156V80.7946C160.406 80.8859 159.345 81.176 158.853 81.6546C158.367 82.1375 158.116 83.1019 158.116 84.5425V99.876C158.116 102.682 157.435 104.754 156.074 106.101C154.707 107.46 153.018 108.14 151.006 108.14C149.688 108.14 148.654 107.844 147.92 107.244C147.18 106.645 146.814 105.98 146.814 105.247C146.814 104.497 147.022 103.959 147.441 103.64C147.86 103.321 148.313 103.164 148.796 103.164C149.748 103.164 150.448 103.738 150.907 104.898C151.363 106.052 151.842 106.632 152.354 106.632C152.903 106.632 153.289 106.394 153.497 105.921C153.712 105.442 153.828 104.614 153.828 103.428V84.5425C153.828 82.9944 153.567 82.0036 153.055 81.5669C152.546 81.1301 151.492 80.8725 149.889 80.7946V80.0156H162.048V80.0156ZM200.919 78.8436L201.331 88.3817H200.31C199.722 86.4868 198.951 84.9595 197.995 83.8002C196.179 81.6134 193.733 80.5235 190.653 80.5235C187.55 80.5235 185.017 81.6994 183.045 84.0483C181.077 86.3972 180.09 89.6309 180.09 93.7488C180.09 97.539 181.128 100.56 183.197 102.82C185.263 105.079 187.896 106.209 191.072 106.209C193.366 106.209 195.48 105.685 197.414 104.635C198.525 104.039 199.743 103.141 201.072 101.939L201.891 102.727C200.912 103.913 199.698 104.957 198.234 105.858C195.75 107.375 193.062 108.14 190.162 108.14C185.394 108.14 181.613 106.676 178.814 103.761C176.225 101.064 174.938 97.7012 174.938 93.666C174.938 89.535 176.302 86.0631 179.028 83.2598C181.9 80.3149 185.64 78.8436 190.242 78.8436C191.844 78.8436 193.497 79.0692 195.183 79.5264C196.875 79.9835 197.823 80.2119 198.013 80.2119C198.435 80.2119 198.836 80.0991 199.207 79.8771C199.58 79.6585 199.843 79.3142 199.988 78.8436H200.919V78.8436ZM227.162 80.0156C230.591 80.0156 233.308 80.5595 235.324 81.6543C237.329 82.7487 238.338 84.6295 238.338 87.3063C238.338 89.3164 237.633 90.8356 236.229 91.8807C235.437 92.4711 234.244 92.9685 232.653 93.3534C234.618 93.8243 236.303 94.6107 237.693 95.7051C239.087 96.8062 239.782 98.342 239.782 100.323C239.782 103.643 238.238 105.922 235.146 107.166C233.515 107.816 231.51 108.14 229.127 108.14H215.172V107.348C216.884 107.252 218.003 106.993 218.508 106.558C219.017 106.124 219.267 105.116 219.267 103.533V84.6229C219.267 83.0575 219.017 82.0522 218.508 81.6011C218.003 81.1499 216.884 80.8848 215.173 80.8052V80.0156H227.162V80.0156ZM271.118 80.0156L281.679 103.692C282.38 105.266 282.939 106.234 283.362 106.609C283.789 106.98 284.493 107.228 285.485 107.362V108.14H274.709V107.362C275.949 107.261 276.742 107.124 277.106 106.97C277.46 106.814 277.642 106.433 277.642 105.82C277.642 105.621 277.572 105.266 277.433 104.744C277.281 104.19 277.088 103.647 276.855 103.121L275.158 99.1058H263.992C262.891 101.834 262.233 103.503 262.018 104.109C261.803 104.708 261.7 105.187 261.7 105.543C261.7 106.244 261.988 106.729 262.567 107C262.924 107.163 263.602 107.283 264.59 107.362V108.14H256.188V107.362C257.283 107.248 258.1 106.843 258.642 106.153C259.191 105.468 260.127 103.587 261.442 100.514L270.278 80.0156H271.118V80.0156ZM304.388 80.0156L320.64 99.9986V86.117C320.64 83.8358 320.295 82.3462 319.608 81.6582C319.162 81.2119 318.157 80.9215 316.609 80.7911V80.0156H326.501V80.7911C324.898 80.9511 323.827 81.3423 323.291 81.9518C322.759 82.5612 322.49 83.9658 322.49 86.1533V108.141H321.773L303.147 85.2337V101.498C303.147 103.78 303.479 105.263 304.152 105.96C304.589 106.407 305.571 106.713 307.092 106.876V107.648H297.204V106.876C298.942 106.7 300.065 106.306 300.558 105.703C301.048 105.1 301.29 103.695 301.29 101.498V83.0927L300.719 82.4213C300.105 81.7012 299.582 81.2546 299.149 81.0854C298.715 80.9187 298.068 80.8147 297.204 80.7918V80.016H304.388V80.0156ZM351.872 80.0156V80.8052C350.212 80.888 349.139 81.1633 348.659 81.6342C348.171 82.1051 347.933 83.097 347.933 84.619V93.3318C350.547 91.0996 352.691 89.2026 354.348 87.6341C357.323 84.8047 358.807 82.9941 358.807 82.1915C358.807 81.6275 358.555 81.2528 358.052 81.0737C357.542 80.8947 356.829 80.8048 355.902 80.8048V80.0156H367.028V80.8052C365.673 80.9409 364.599 81.1999 363.82 81.5877C363.039 81.9789 361.952 82.8284 360.57 84.1449L352.28 91.8324L362.392 102.774C364.234 104.734 365.491 105.965 366.153 106.449C366.819 106.94 367.793 107.258 369.079 107.414V108.14H356.09V107.414C357.267 107.371 358.065 107.278 358.479 107.129C358.893 106.986 359.102 106.698 359.102 106.267C359.102 106.031 358.966 105.666 358.695 105.189C358.426 104.705 358.002 104.137 357.416 103.504L349.245 94.6586L347.933 95.8725V103.564C347.933 105.146 348.168 106.151 348.648 106.568C349.122 106.99 350.163 107.275 351.766 107.414V108.14H339.782V107.414C341.508 107.275 342.582 106.97 342.996 106.489C343.413 106.008 343.619 104.871 343.619 103.07V84.6292C343.619 83.0935 343.384 82.0949 342.923 81.6472C342.463 81.1961 341.412 80.9144 339.782 80.8048V80.0156H351.872V80.0156ZM223.376 94.078V105.148C223.376 105.914 223.596 106.414 224.027 106.639C224.466 106.858 225.472 106.969 227.06 106.969C229.34 106.969 231.251 106.532 232.79 105.651C234.329 104.766 235.095 103.07 235.095 100.569C235.095 98.0811 234.2 96.378 232.397 95.4658C230.593 94.5567 228.303 94.0989 225.51 94.0989H224.215C224.031 94.0989 223.756 94.0883 223.376 94.078V94.078ZM269.765 85.5009L264.591 97.5937H274.939L269.765 85.5009ZM225.377 81.1876C224.467 81.1876 223.91 81.2683 223.702 81.4294C223.481 81.5873 223.376 82.0325 223.376 82.7477V92.9061L227.525 92.8394C228.982 92.8148 230.196 92.5694 231.161 92.1137C233.002 91.2371 233.923 89.659 233.923 87.387C233.923 84.7046 232.859 82.895 230.736 81.9553C229.557 81.447 227.77 81.1876 225.378 81.1876H225.377Z" fill="#3F3A3A"/>
</svg>
