<svg width="479" height="128" viewBox="0 0 479 128" fill="none" xmlns="http://www.w3.org/2000/svg">
<path d="M64.0097 14C87.0539 14 106.573 29.4625 112.521 50.4758L83.573 50.3436V44.6167H44.4465V73.2951L14 57.7004C17.1284 33.1189 38.41 14 64.0097 14ZM114.019 70.4317C110.803 94.9251 89.6094 114 64.0097 114C41.0537 114 21.5786 98.6256 15.5422 77.7445L44.4465 77.8767V83.3833H83.573V54.8811L114.019 70.4317V70.4317Z" fill="#E30016"/>
<path d="M404.033 18.9337C404.209 18.5812 405.135 17.1716 407.734 16.0702C410.334 14.9689 413.727 20.5196 413.638 24.5724C413.55 28.6253 407.514 31.8852 405.223 32.7222C402.931 33.5592 396.983 36.9953 394.384 36.5989C391.784 36.1583 391.96 31.709 394.868 28.6253C397.82 25.4975 403.857 19.2861 404.033 18.9337C404.209 18.5812 405.135 17.1716 407.734 16.0702C410.334 14.9689 413.682 20.5196 413.638 24.5724C413.55 28.6253 407.514 31.8852 405.223 32.7222C402.931 33.5592 396.983 36.9953 394.384 36.5989C391.784 36.1583 391.96 31.709 394.868 28.6253C397.82 25.4975 403.857 19.2861 404.033 18.9337V18.9337ZM240.213 32.1495C241.402 34.2641 242.151 36.6429 242.151 36.6429C242.151 36.6429 243.693 35.6737 245.059 34.4403C245.544 33.9997 246.029 33.4711 246.381 32.7663C246.029 33.4711 245.544 33.9997 245.059 34.4403C243.649 35.6737 242.151 36.6429 242.151 36.6429C242.151 36.6429 241.402 34.22 240.213 32.1495ZM244.707 25.2773L240.257 32.1495C239.64 31.0482 238.847 30.035 238.009 29.5064C235.498 28.0086 231.048 26.2024 233.559 23.339C235.762 20.6958 241.711 21.5768 244.707 25.2773V25.2773ZM145.26 80.1671C145.48 75.894 158.434 53.6033 159.36 51.2244C160.329 48.8456 151.957 52.6781 152.398 46.7751C152.839 40.872 161.739 39.2861 165.572 37.8764C169.406 36.4667 171.521 27.2156 173.459 24.1319C175.354 21.0482 177.425 23.0306 180.818 26.2905C184.21 29.5504 178.791 34.22 182.36 32.3257C185.929 30.4315 192.582 28.6253 196.636 31.4006C200.689 34.176 195.622 39.8588 191.569 46.0262C187.515 52.1936 186.546 54.5724 184.431 65.057C182.272 75.5416 191.084 73.8676 198.486 73.6033C205.889 73.383 206.902 70.7398 208.136 67.4359C209.37 64.0878 211.132 60.3434 211.132 63.1627C211.132 65.9821 212.63 66.687 213.776 71.2685C214.921 75.85 212.586 78.1848 207.563 80.2993C202.54 82.4579 192.362 84.0878 185.224 81.2685C178.086 78.405 176.72 70.2552 176.94 60.4755C177.161 50.7398 184.21 41.753 183.726 39.3742C183.241 36.9953 175.134 43.6473 172.754 45.8059C170.375 47.9645 163.942 62.4579 161.783 65.3213C159.624 68.1848 156.055 70.2993 153.676 73.1627C151.297 75.9821 145.04 84.4843 145.26 80.1671V80.1671ZM229.329 44.5724C234.088 43.1627 238.186 44.9689 239.728 46.5107C241.27 48.0526 241.534 51.9292 239.728 53.3389C237.921 54.7486 236.379 52.9425 233.956 50.4315C231.532 47.9204 224.527 45.9821 229.329 44.5724V44.5724ZM271.54 42.6341C270.571 42.1936 270.703 44.176 272.377 44.8808C274.052 45.5856 280.22 47.4359 277.841 53.2068C275.462 58.9777 272.245 65.7618 272.113 66.4667C271.981 67.1715 272.554 67.6121 274.757 67.6121H287.226C287.226 67.6121 294.1 69.0218 294.1 73.1187C294.1 77.2156 293.527 77.7883 288.504 77.6561C283.437 77.524 270.439 77.524 267.751 77.9204C265.107 78.361 256.119 80.1671 252.902 76.7751C249.686 73.383 252.638 68.8456 257.088 67.1715C261.582 65.4975 264.094 60.9601 264.667 57.3037C265.239 53.6473 266.077 51.2244 266.077 48.6693C266.077 46.1143 266.077 43.0306 265.812 42.4579C265.548 41.8852 258.939 43.7354 257.132 37.0834C255.326 30.4315 261.054 30.6077 264.138 30.2993C267.222 30.035 272.113 28.7575 274.492 27.4799C276.872 26.2024 283.04 26.9072 285.728 28.7575C288.372 30.6077 289.253 32.4138 289.253 34.3962C289.253 36.3786 286.433 37.524 283.789 37.9204C281.146 38.361 278.458 39.198 276.519 40.872C274.448 42.6341 272.51 43.0746 271.54 42.6341V42.6341ZM306.613 59.7707C307.186 56.1143 318.554 29.9028 322.519 23.6914C326.441 17.4799 329.569 21.8412 329.569 24.5284C329.569 27.2156 322.96 35.6738 322.696 36.7751C322.431 37.9205 322.431 38.7574 322.431 39.4623C322.431 40.1671 324.546 39.4623 326.925 38.0526C329.305 36.6429 334.504 35.9381 335.782 35.9381C337.06 35.9381 336.355 37.3478 336.222 39.7266C336.09 42.1055 333.006 44.0879 331.993 44.9249C331.023 45.7619 331.023 50.4315 331.023 50.4315C331.023 50.4315 330.759 51.1363 332.433 50.4315C334.107 49.7266 336.355 50.5636 336.222 53.2508C336.09 55.9381 331.596 58.7574 330.45 58.7574C329.305 58.7574 330.186 68.6253 329.878 69.3301C329.569 70.035 336.046 67.0834 337.456 66.9513C338.866 66.8191 335.606 72.9865 332.389 74.3962C329.173 75.8059 322.255 78.4931 320.14 79.7707C318.025 81.0482 314.809 81.753 313.09 77.6561C311.416 73.5592 314.941 73.5592 317.893 72.59C320.845 71.6209 322.828 69.0658 323.401 67.6561C323.973 66.2464 324.546 61.6209 322.96 62.2817C321.418 62.9865 319.038 64.3962 316.791 63.2508C314.544 62.1055 315.117 58.1848 316.659 57.0394C318.201 55.894 324.546 52.8103 324.546 52.8103C324.546 52.8103 324.987 46.5989 324.106 46.7751C323.268 46.9072 322.255 46.6429 321.153 45.9381C320.008 45.2332 318.642 43.9557 318.642 43.9557C318.642 43.9557 317.805 46.6429 316.527 49.0218C315.205 51.4887 306.04 63.427 306.613 59.7707V59.7707ZM330.406 27.7883C331.111 26.5108 330.979 26.3786 334.196 24.9689C337.412 23.5592 340.1 25.2332 341.069 27.2156C342.039 29.198 343.889 26.2464 344.858 23.8235C345.828 21.4006 350.498 24.9689 352.613 22.8544C354.728 20.7398 360.632 18.7575 364.157 21.709C367.682 24.6605 366.272 23.8235 366.272 30.5636C366.272 37.3037 365.303 41.0041 363.893 42.8103C362.483 44.6605 358.694 49.5504 356.138 50.1231C353.627 50.6958 352.04 51.7971 351.644 53.383C351.203 54.9248 356.27 58.5812 357.152 58.4491C358.033 58.3169 364.201 48.1848 365.039 46.4667C365.876 44.7927 370.678 44.0878 371.516 45.7619C372.353 47.4359 371.383 51.1363 370.37 51.7971C369.401 52.5019 361.205 59.6826 359.839 59.9469C358.429 60.2112 364.201 64.6165 368.828 67.9645C373.454 71.3566 380.328 76.3345 380.46 78.4491C380.548 79.5063 378.345 78.3169 376.23 78.2729C374.115 78.2288 374.115 80.2552 371.692 79.4623C369.092 78.6253 358.429 71.6209 358.429 71.6209C358.429 71.6209 358.429 72.8984 357.857 75.4094C357.284 77.9645 347.326 80.916 345.211 81.8852C343.096 82.8543 334.945 86.6869 334.107 81.4447C333.27 76.2464 339.747 76.6429 340.717 75.6737C341.686 74.7046 340.849 32.9865 340.849 32.9865C340.849 32.9865 340.012 32.7222 338.029 32.546C336.002 32.5901 329.701 29.0658 330.406 27.7883V27.7883ZM347.678 47.2597C347.678 47.2597 353.583 44.5724 355.698 44.3081C357.813 44.0438 357.945 43.8676 358.077 43.3389C358.209 42.7663 359.046 26.0262 358.518 25.1892C357.989 24.3522 352.173 29.4182 350.058 29.9909C347.943 30.5636 347.943 33.9557 349.926 33.7795C351.908 33.6473 356.094 31.7971 355.698 35.894C355.257 39.9909 351.908 40.3874 350.19 41.5328C348.516 42.6782 347.502 42.3698 347.502 42.3698L347.678 47.2597V47.2597ZM357.416 69.7706C357.416 69.7706 353.627 66.9513 352.085 64.5724C350.542 62.1936 347.855 61.753 347.017 62.1936C346.18 62.6341 346.577 73.6033 347.017 74.7486C347.414 75.85 357.416 69.7706 357.416 69.7706V69.7706ZM408.351 77.6121C408.087 78.9337 401.83 82.3257 400.728 82.8544C399.627 83.383 399.186 64.3962 399.583 62.59C400.023 60.7398 393.679 69.0218 390.462 69.3301C387.246 69.5944 385.131 70.1671 386.1 65.2332C387.069 60.2993 400.993 39.9469 403.108 38.2729C405.223 36.5989 407.734 34.0438 410.686 35.7178C413.638 37.3918 413.771 41.2244 412.933 42.5019C412.096 43.7795 410.951 45.1892 410.951 45.1892C410.951 45.1892 410.686 47.6121 413.462 46.5989C416.282 45.6297 430.338 41.3566 431.175 40.8279C432.012 40.2552 432.717 37.4359 435.933 38.7134C439.15 39.9909 435.669 40.6958 438.181 40.3874C440.692 40.1231 442.675 39.1099 445.759 38.9777C448.844 38.8456 448.976 38.2729 450.386 37.8323C451.796 37.3918 455.849 39.6826 457.127 41.7971C458.405 43.9116 457.568 47.568 454.616 48.5812C451.663 49.5504 444.658 47.8764 442.543 49.0218C440.428 50.1671 440.163 49.1539 440.296 50.2993C440.428 51.4447 442.102 58.6253 442.102 64.1319C442.102 69.6385 441.661 74.8808 440.428 78.0967C439.15 81.3566 432.585 87.8323 428.928 86.0262C425.271 84.1759 418.529 79.5504 421.922 78.5372C425.315 77.568 429.104 78.9777 430.646 76.687C432.188 74.4403 432.188 62.9865 432.056 60.035C431.924 57.0834 433.202 51.0041 430.778 51.1363C428.399 51.2685 423.332 53.6914 420.82 55.3654C418.309 57.0394 412.801 56.3345 411.259 53.5152C409.717 50.6958 409.849 50.2552 409.981 49.1539C410.113 48.0085 408.439 47.8764 407.47 49.0218C406.5 50.1671 403.328 52.3698 406.985 53.3389C410.642 54.3081 410.995 54.6605 409.849 57.9204C408.748 61.1804 406.589 65.3654 406.941 69.3301C407.117 71.0041 408.615 76.2905 408.351 77.6121V77.6121ZM424.83 38.8015C425.932 37.3037 429.324 33.2508 427.474 33.383C425.667 33.5152 423.112 31.9733 422.451 29.1099C421.746 26.2464 422.715 23.2949 424.125 22.4138C425.535 21.5768 433.069 20.5636 435.493 19.5504C437.872 18.5372 441.089 17.2597 443.204 22.2376C445.319 27.2156 440.736 30.5196 434.92 31.753C429.104 33.0746 423.728 40.2993 424.83 38.8015V38.8015ZM237.172 60.4755C237.172 60.4755 237.304 62.8544 237.304 66.4226C237.304 70.035 238.803 72.2376 239.64 74.7486C240.477 77.2597 243.605 83.0746 238.406 83.4711C233.207 83.8676 230.739 76.2464 230.034 72.1055C229.373 67.9645 237.172 60.4755 237.172 60.4755V60.4755ZM145.26 100.255C146.274 100.343 147.155 100.431 147.86 100.52C148.565 100.608 149.27 100.784 149.975 100.96C150.68 101.18 151.297 101.401 151.737 101.709C152.178 102.017 152.53 102.326 152.795 102.722C153.015 103.075 153.191 103.383 153.279 103.647C153.367 103.912 153.411 104.22 153.411 104.616C153.367 104.925 153.367 105.277 153.279 105.586C153.235 105.894 153.103 106.246 152.839 106.643C152.618 107.039 152.31 107.392 151.869 107.7C151.473 108.009 150.856 108.317 150.107 108.537C149.358 108.801 148.609 108.934 147.904 109.022C147.199 109.11 146.45 109.154 145.701 109.154H132.35V108.317L132.835 108.361C133.231 108.405 133.672 108.361 134.113 108.273C134.553 108.185 134.862 108.097 135.038 107.964C135.214 107.832 135.302 107.656 135.346 107.392C135.39 107.172 135.434 106.863 135.434 106.467V94.9248C135.434 94.4843 135.39 94.1759 135.302 93.9997C135.214 93.8235 135.082 93.6473 134.95 93.5592C134.773 93.427 134.597 93.339 134.333 93.2508C134.113 93.1627 133.804 93.1627 133.408 93.1627H132.614V92.3257H145.304C146.053 92.3257 146.758 92.3698 147.507 92.4138C148.256 92.5019 148.873 92.59 149.446 92.7222C150.019 92.8544 150.503 93.0306 150.944 93.2949C151.385 93.5592 151.737 93.8235 152.002 94.1759C152.266 94.5284 152.486 94.8367 152.574 95.1892C152.706 95.4975 152.751 95.85 152.751 96.1583C152.751 96.4667 152.751 96.7751 152.662 97.0394C152.53 97.4799 152.266 97.8764 151.913 98.1847C151.561 98.5372 151.076 98.8015 150.503 99.0658C149.887 99.3301 149.358 99.5064 148.785 99.6385C148.212 99.7707 147.639 99.8588 146.978 99.9469L145.26 100.255ZM140.281 100.828V107.26C140.281 107.656 140.325 107.92 140.369 108.053C140.413 108.141 140.546 108.229 140.678 108.273C140.854 108.317 141.206 108.361 141.823 108.361H143.894C144.555 108.361 145.172 108.317 145.701 108.229C146.229 108.141 146.714 107.964 147.067 107.656C147.419 107.392 147.683 107.083 147.86 106.731C148.036 106.379 148.124 106.026 148.168 105.718C148.212 105.365 148.256 105.101 148.256 104.793C148.256 104.528 148.256 104.22 148.212 103.912C148.124 103.383 147.948 102.898 147.683 102.546C147.419 102.194 147.067 101.885 146.67 101.665C146.274 101.445 145.701 101.268 145.04 101.092C144.379 100.96 143.586 100.872 142.66 100.872H140.281V100.828ZM140.281 99.8588H142.132C142.793 99.8588 143.233 99.8588 143.498 99.8147C143.762 99.7707 144.07 99.7266 144.467 99.6826C144.819 99.5944 145.304 99.4623 145.877 99.2861C146.45 99.0658 146.89 98.8015 147.199 98.4491C147.507 98.0967 147.728 97.7442 147.772 97.4359C147.86 97.1275 147.904 96.7751 147.904 96.4226C147.86 95.894 147.772 95.4094 147.551 94.8808C147.331 94.3521 147.023 93.9997 146.626 93.7795C146.229 93.5592 145.745 93.383 145.172 93.2949C144.643 93.2068 144.159 93.1187 143.718 93.1187H142C141.779 93.1187 141.515 93.1627 141.251 93.2068C140.986 93.2508 140.766 93.3389 140.634 93.383C140.501 93.4711 140.413 93.6033 140.369 93.7354C140.281 93.9116 140.281 94.1319 140.281 94.3962V99.8588V99.8588ZM180.553 108.273V109.11H170.551V108.273H171.521C171.829 108.273 172.094 108.229 172.314 108.185C172.534 108.097 172.666 108.009 172.754 107.876C172.843 107.744 172.931 107.568 172.931 107.348C172.931 107.083 172.931 106.907 172.843 106.687L171.873 104.176H163.369L162.092 107.172C162.003 107.348 161.959 107.524 162.003 107.656C162.048 107.832 162.136 107.964 162.268 108.009C162.4 108.097 162.62 108.141 162.841 108.185C163.105 108.229 163.369 108.229 163.634 108.229H164.691V109.066H157.157V108.273H157.906C158.17 108.273 158.434 108.229 158.743 108.141C159.051 108.053 159.316 107.964 159.58 107.788C159.844 107.612 160.109 107.436 160.285 107.216C160.461 106.995 160.638 106.731 160.77 106.467L167.467 92.3257H171.829L177.337 105.85C177.381 106.026 177.557 106.335 177.733 106.775C177.954 107.216 178.174 107.524 178.394 107.744C178.615 107.964 178.923 108.097 179.231 108.185C179.54 108.273 179.892 108.317 180.201 108.317H180.553V108.273ZM163.722 103.295H171.477L167.864 94.4403L163.722 103.295V103.295ZM197.12 92.1936H205.272V92.9865H204.082C203.642 92.9865 203.245 93.0306 202.981 93.0746C202.716 93.1187 202.496 93.2068 202.364 93.2949C202.232 93.383 202.143 93.5592 202.099 93.7795C202.055 93.9997 202.011 94.22 202.011 94.3962V109.198H200.028L187.03 95.4975V106.819C187.03 107.039 187.074 107.26 187.118 107.48C187.163 107.744 187.251 107.92 187.383 108.009C187.515 108.097 187.735 108.185 188 108.273C188.308 108.317 188.661 108.361 189.057 108.361H190.643V109.198H182.404V108.361H183.726C184.078 108.361 184.387 108.317 184.651 108.273C184.915 108.229 185.136 108.141 185.268 108.009C185.4 107.876 185.532 107.744 185.576 107.568C185.664 107.392 185.664 107.127 185.664 106.775V95.101C185.664 94.5724 185.62 94.176 185.576 93.9116C185.532 93.6473 185.356 93.383 185.092 93.2508C184.827 93.0746 184.387 92.9865 183.726 92.9865H182.404V92.1936H189.366L200.645 104.088V94.3962C200.645 94.1319 200.601 93.9116 200.557 93.6914C200.513 93.4711 200.425 93.339 200.249 93.2508C200.117 93.1627 199.94 93.1187 199.676 93.0746C199.412 93.0306 199.191 92.9865 198.971 92.9865H197.12V92.1936V92.1936ZM207.255 108.273H208.092C208.444 108.273 208.753 108.273 209.061 108.229C209.37 108.185 209.59 108.141 209.722 108.009C209.898 107.876 209.986 107.7 210.03 107.392C210.074 107.083 210.119 106.863 210.119 106.643V94.6605C210.119 94.4403 210.074 94.1759 210.03 93.9557C209.986 93.7354 209.854 93.5592 209.766 93.4711C209.634 93.383 209.414 93.2949 209.149 93.2508C208.885 93.2068 208.576 93.1627 208.268 93.1627H207.255V92.3257H217.785V93.1627H217.212C216.904 93.1627 216.596 93.2068 216.287 93.2508C215.979 93.2949 215.758 93.383 215.582 93.4711C215.406 93.5592 215.274 93.6914 215.186 93.9116C215.097 94.0878 215.053 94.3521 215.053 94.6605V100.167L220.781 95.8499C221.222 95.4975 221.575 95.2332 221.795 95.013C222.015 94.7927 222.191 94.5724 222.368 94.3962C222.5 94.22 222.588 94.0438 222.632 93.9116C222.676 93.7795 222.588 93.6033 222.456 93.4711C222.324 93.383 222.103 93.2949 221.751 93.2068C221.442 93.1627 221.134 93.1187 220.958 93.1187H220.385V92.2817H229.858V93.1187H229.329C228.801 93.1187 228.36 93.1627 227.963 93.2508C227.567 93.339 227.126 93.4711 226.686 93.6473C226.245 93.8235 225.76 94.0438 225.276 94.2641C224.791 94.5284 224.262 94.8367 223.645 95.2332C223.029 95.6297 222.412 96.0702 221.839 96.5548L220.385 97.7442L226.113 105.277C226.333 105.586 226.553 105.894 226.73 106.114C226.906 106.335 227.126 106.599 227.391 106.863C227.655 107.127 227.963 107.348 228.316 107.568C228.624 107.744 228.977 107.92 229.285 108.009C229.638 108.097 229.902 108.185 230.078 108.185L230.519 108.273L230.96 108.361V109.242H220.561V108.361H221.046C221.751 108.361 222.191 108.317 222.368 108.229C222.544 108.141 222.632 108.053 222.632 107.92C222.632 107.788 222.544 107.612 222.368 107.348L216.992 100.299L215.097 101.709V106.731C215.097 107.039 215.142 107.348 215.186 107.568C215.23 107.788 215.362 107.964 215.494 108.053C215.626 108.141 215.847 108.229 216.111 108.317C216.375 108.361 216.684 108.405 217.036 108.405H217.477V109.286H207.343V108.273H207.255ZM245.324 101.092C245.324 100.828 245.324 100.52 245.368 100.167C245.368 99.8147 245.456 99.4182 245.544 98.8896C245.632 98.361 245.764 97.9204 245.941 97.4799C246.117 97.0394 246.425 96.5989 246.778 96.1143C247.174 95.6297 247.571 95.1891 248.011 94.8808C248.452 94.5284 248.893 94.264 249.333 93.9997C249.818 93.7354 250.347 93.4711 250.964 93.2508C251.58 93.0306 252.153 92.8544 252.726 92.7222C253.255 92.59 253.828 92.5019 254.356 92.4579C254.885 92.4138 255.458 92.3698 256.031 92.3698C256.868 92.3698 257.661 92.4579 258.41 92.5901C259.159 92.7222 259.864 92.8984 260.525 93.1187C261.186 93.3389 261.759 93.6033 262.287 93.9116C262.816 94.22 263.345 94.5284 263.829 94.9248C264.314 95.3213 264.799 95.7619 265.151 96.2464C265.548 96.7751 265.812 97.3037 265.988 97.9204C266.165 98.5372 266.297 99.1099 266.385 99.6826C266.473 100.255 266.473 100.696 266.473 100.96C266.473 101.224 266.429 101.533 266.385 101.885C266.341 102.238 266.253 102.59 266.209 103.031C266.121 103.427 265.988 103.824 265.856 104.22C265.68 104.616 265.416 105.101 264.975 105.674C264.534 106.246 264.094 106.731 263.565 107.083C263.036 107.48 262.508 107.788 261.847 108.053C261.23 108.317 260.613 108.537 260.04 108.669C259.467 108.846 258.983 108.934 258.542 109.022C258.101 109.11 257.661 109.154 257.088 109.198C256.559 109.242 256.119 109.286 255.854 109.286C255.502 109.286 255.017 109.286 254.4 109.198C253.783 109.154 253.211 109.022 252.682 108.934C252.153 108.801 251.492 108.625 250.743 108.317C249.994 108.053 249.333 107.744 248.849 107.436C248.364 107.127 247.835 106.687 247.306 106.158C246.778 105.63 246.425 105.145 246.161 104.705C245.896 104.264 245.72 103.824 245.588 103.383C245.456 102.942 245.368 102.546 245.368 102.238C245.324 101.797 245.324 101.445 245.324 101.092V101.092ZM250.391 102.061C250.391 102.458 250.435 102.942 250.479 103.427C250.523 103.912 250.655 104.44 250.787 104.969C250.919 105.498 251.096 105.894 251.316 106.158C251.492 106.423 251.713 106.643 251.933 106.907C252.153 107.127 252.462 107.392 252.858 107.612C253.255 107.832 253.739 108.053 254.356 108.185C254.973 108.317 255.546 108.405 256.119 108.361C256.383 108.361 256.736 108.361 257.176 108.317C257.617 108.273 258.057 108.185 258.41 108.053C258.762 107.92 259.159 107.656 259.6 107.26C259.996 106.863 260.349 106.379 260.569 105.85C260.789 105.321 260.965 104.837 261.054 104.396C261.142 103.956 261.186 103.339 261.23 102.59C261.274 101.841 261.274 101.224 261.274 100.828C261.23 100.343 261.23 99.8147 261.186 99.2861C261.142 98.7134 261.098 98.1847 261.054 97.6121C261.01 97.0394 260.921 96.5548 260.833 96.2024C260.745 95.8059 260.613 95.4535 260.393 95.101C260.216 94.7486 259.996 94.4843 259.776 94.2641C259.555 94.0438 259.291 93.8676 258.895 93.6473C258.498 93.4711 258.057 93.2949 257.573 93.2068C257.088 93.1187 256.559 93.0746 255.942 93.0746C255.37 93.0746 254.885 93.1187 254.533 93.2068C254.18 93.2949 253.739 93.427 253.255 93.6473C252.77 93.8676 252.329 94.22 251.889 94.7486C251.448 95.2773 251.14 95.8499 250.964 96.5107C250.787 97.1715 250.655 97.7883 250.611 98.361C250.523 98.9337 250.479 99.6826 250.435 100.564C250.347 101.489 250.347 101.973 250.391 102.061V102.061ZM269.513 108.273H270.747C271.011 108.273 271.32 108.273 271.628 108.229C271.937 108.185 272.157 108.097 272.333 108.009C272.465 107.876 272.554 107.744 272.598 107.48C272.642 107.26 272.642 106.995 272.642 106.775V94.3962C272.642 94.1759 272.598 93.9557 272.51 93.7795C272.421 93.6032 272.333 93.4711 272.201 93.383C272.069 93.2949 271.893 93.2068 271.628 93.1187C271.364 93.0306 271.1 92.9865 270.879 92.9865H269.866V92.1055H289.297V96.9513H288.107L287.931 96.0262C287.887 95.8059 287.799 95.5856 287.711 95.3654C287.623 95.1011 287.49 94.8808 287.314 94.6165C287.138 94.3522 286.918 94.1319 286.653 93.9116C286.389 93.6914 286.036 93.5152 285.64 93.383C285.199 93.2508 284.759 93.1187 284.23 93.0746C283.701 93.0306 283.217 92.9865 282.732 92.9865H277.533V99.7266H280.044C280.573 99.7266 281.013 99.6826 281.322 99.6385C281.674 99.5504 281.939 99.4623 282.159 99.2861C282.379 99.1099 282.556 98.8896 282.644 98.5812C282.776 98.2729 282.82 97.9645 282.864 97.7002L282.908 97.0834H284.098V103.471H282.864L282.82 102.854C282.776 102.766 282.776 102.59 282.732 102.326C282.688 102.061 282.644 101.841 282.6 101.621C282.556 101.401 282.423 101.224 282.247 101.092C282.027 100.96 281.762 100.828 281.41 100.74C281.057 100.652 280.573 100.608 280.044 100.608H277.533V106.643C277.533 107.083 277.577 107.392 277.665 107.612C277.753 107.788 277.929 107.964 278.193 108.053C278.458 108.141 278.81 108.185 279.339 108.185H280.308V109.066H269.469V108.273H269.513ZM307.582 92.9865L307.538 92.1936H318.245V92.9865H317.32C317.1 92.9865 316.835 93.0306 316.571 93.0746C316.307 93.1187 316.086 93.2068 315.91 93.2949C315.778 93.383 315.646 93.5152 315.602 93.7354C315.558 93.9557 315.514 94.176 315.514 94.3522V105.321C315.514 105.762 315.469 106.07 315.425 106.335C315.381 106.599 315.293 106.819 315.161 107.039C315.029 107.26 314.809 107.524 314.456 107.832C314.104 108.141 313.531 108.405 312.782 108.669C312.033 108.934 311.416 109.066 310.931 109.154C310.446 109.198 310.006 109.242 309.653 109.286C309.257 109.286 308.948 109.33 308.772 109.286C308.508 109.286 308.243 109.286 307.891 109.242C307.538 109.198 307.23 109.154 306.878 109.11C306.525 109.066 306.128 108.934 305.688 108.801C305.203 108.625 304.807 108.405 304.366 108.141C303.969 107.876 303.705 107.568 303.617 107.304C303.485 107.039 303.441 106.775 303.441 106.467C303.441 106.158 303.529 105.894 303.661 105.63C303.793 105.365 304.058 105.145 304.498 104.881C304.895 104.616 305.468 104.484 306.217 104.484C306.657 104.484 307.01 104.572 307.318 104.705C307.627 104.837 307.891 105.013 308.111 105.233C308.332 105.453 308.464 105.762 308.464 106.07C308.464 106.423 308.332 106.687 308.023 106.951L307.494 107.304C307.23 107.48 307.098 107.656 307.098 107.832C307.098 108.009 307.186 108.141 307.406 108.317C307.538 108.405 307.715 108.493 307.979 108.537C308.199 108.581 308.508 108.625 308.904 108.625C309.213 108.625 309.477 108.625 309.653 108.581C309.83 108.537 310.05 108.405 310.27 108.273C310.491 108.097 310.667 107.876 310.711 107.524C310.799 107.216 310.799 106.775 310.799 106.29V94.4403C310.799 94.1759 310.755 93.9116 310.667 93.7354C310.579 93.5592 310.491 93.427 310.314 93.3389C310.138 93.2508 309.918 93.1627 309.653 93.1187C309.345 93.0746 308.992 93.0306 308.64 93.0306H307.582V92.9865ZM321.242 108.361H322.035C322.475 108.361 322.872 108.361 323.136 108.317C323.401 108.273 323.665 108.229 323.841 108.097C324.017 107.964 324.106 107.832 324.194 107.612C324.238 107.392 324.282 107.127 324.282 106.819V94.1759C324.282 93.8676 324.238 93.6473 324.15 93.5152C324.061 93.3389 323.973 93.2508 323.841 93.2068C323.753 93.1627 323.577 93.0746 323.312 93.0306C323.048 92.9865 322.784 92.9425 322.475 92.9425H321.374V92.1055H332.257V92.9425H331.067C330.583 92.9425 330.274 92.9865 330.098 93.0306C329.922 93.0746 329.789 93.1627 329.657 93.2508C329.525 93.339 329.393 93.4711 329.349 93.6033C329.261 93.7354 329.217 93.9557 329.217 94.22V106.819C329.217 107.172 329.261 107.436 329.349 107.656C329.437 107.876 329.613 108.009 329.834 108.141C330.054 108.273 330.318 108.317 330.583 108.361C330.891 108.405 331.155 108.405 331.42 108.405H332.257V109.242H321.197V108.361H321.242ZM334.592 92.1936H345.652V93.0306H344.682C344.33 93.0306 344.021 93.0746 343.757 93.1627C343.537 93.2508 343.272 93.3389 343.096 93.5152C342.876 93.6473 342.744 93.8676 342.611 94.0878C342.479 94.3081 342.435 94.5724 342.435 94.8808V104.22C342.435 105.057 342.523 105.674 342.655 106.07C342.788 106.467 343.14 106.819 343.669 107.172C344.198 107.524 344.77 107.744 345.387 107.92C346.004 108.097 346.621 108.141 347.238 108.141C347.59 108.141 347.899 108.141 348.207 108.097C348.516 108.053 349 108.009 349.617 107.876C350.234 107.744 350.851 107.568 351.38 107.348C351.952 107.127 352.393 106.819 352.745 106.423C353.098 106.026 353.274 105.762 353.362 105.498C353.45 105.277 353.494 104.969 353.539 104.661C353.583 104.352 353.627 104.044 353.627 103.735V94.6165C353.627 94.3081 353.583 94.0438 353.495 93.8676C353.406 93.6914 353.274 93.5151 353.186 93.427C353.054 93.3389 352.922 93.2508 352.701 93.1627C352.481 93.1187 352.217 93.0746 351.952 93.0746H350.498V92.2376H357.768V93.0746H356.799C356.535 93.0746 356.27 93.1187 356.094 93.1627C355.918 93.2068 355.742 93.339 355.565 93.4711C355.433 93.6033 355.301 93.7795 355.169 93.9997C355.081 94.22 355.037 94.4403 355.037 94.6605V104.925C355.037 105.145 354.949 105.409 354.816 105.806C354.684 106.202 354.376 106.599 353.979 107.039C353.583 107.48 353.01 107.832 352.349 108.185C351.688 108.537 350.939 108.757 350.234 108.89C349.485 109.022 348.78 109.11 348.031 109.154C347.326 109.198 346.753 109.242 346.357 109.242C345.916 109.242 345.343 109.242 344.638 109.154C343.933 109.11 343.096 108.978 342.215 108.801C341.289 108.625 340.496 108.317 339.835 107.832C339.175 107.348 338.778 106.995 338.602 106.731C338.425 106.467 338.293 106.202 338.205 105.982C338.117 105.718 338.073 105.498 338.029 105.277C337.985 105.057 337.985 104.793 337.985 104.44V94.8808C337.985 94.6165 337.941 94.3522 337.853 94.0878C337.765 93.8676 337.632 93.6473 337.456 93.5152C337.324 93.383 337.06 93.2508 336.751 93.1627C336.443 93.0746 336.046 93.0306 335.65 93.0306H334.636V92.1936H334.592ZM363.981 92.9865L363.937 92.1936H374.644V92.9865H373.719C373.498 92.9865 373.234 93.0306 372.97 93.0746C372.705 93.1187 372.485 93.2068 372.309 93.2949C372.177 93.383 372.044 93.5152 372 93.7354C371.956 93.9557 371.912 94.176 371.912 94.3522V105.321C371.912 105.762 371.868 106.07 371.824 106.335C371.78 106.599 371.692 106.819 371.56 107.039C371.428 107.26 371.207 107.524 370.855 107.832C370.502 108.141 369.929 108.405 369.18 108.669C368.431 108.934 367.815 109.066 367.33 109.154C366.845 109.198 366.405 109.242 366.052 109.286C365.655 109.286 365.347 109.33 365.171 109.286C364.906 109.286 364.642 109.286 364.29 109.242C363.937 109.198 363.629 109.154 363.276 109.11C362.924 109.066 362.527 108.934 362.087 108.801C361.602 108.625 361.205 108.405 360.765 108.141C360.368 107.876 360.104 107.568 360.016 107.304C359.883 107.039 359.839 106.775 359.839 106.467C359.839 106.158 359.928 105.894 360.06 105.63C360.192 105.365 360.456 105.145 360.897 104.881C361.293 104.616 361.866 104.484 362.615 104.484C363.056 104.484 363.408 104.572 363.717 104.705C364.025 104.837 364.29 105.013 364.51 105.233C364.73 105.453 364.862 105.762 364.862 106.07C364.862 106.423 364.73 106.687 364.422 106.951L363.893 107.304C363.629 107.48 363.496 107.656 363.496 107.832C363.496 108.009 363.585 108.141 363.805 108.317C363.937 108.405 364.113 108.493 364.378 108.537C364.598 108.581 364.906 108.625 365.303 108.625C365.611 108.625 365.876 108.625 366.052 108.581C366.228 108.537 366.449 108.405 366.669 108.273C366.889 108.097 367.065 107.876 367.11 107.524C367.198 107.216 367.198 106.775 367.198 106.29V94.4403C367.198 94.1759 367.154 93.9116 367.065 93.7354C366.977 93.5592 366.889 93.427 366.713 93.3389C366.537 93.2508 366.316 93.1627 366.052 93.1187C365.744 93.0746 365.391 93.0306 365.039 93.0306H363.981V92.9865ZM377.64 108.361H378.433C378.874 108.361 379.27 108.361 379.535 108.317C379.799 108.273 380.064 108.229 380.24 108.097C380.416 107.964 380.504 107.832 380.592 107.612C380.636 107.392 380.68 107.127 380.68 106.819V94.1759C380.68 93.8676 380.636 93.6473 380.548 93.5152C380.46 93.3389 380.372 93.2508 380.24 93.2068C380.152 93.1627 379.975 93.0746 379.711 93.0306C379.447 92.9865 379.182 92.9425 378.874 92.9425H377.772V92.1055H388.656V92.9425H387.466C386.981 92.9425 386.673 92.9865 386.497 93.0306C386.32 93.0746 386.188 93.1627 386.056 93.2508C385.924 93.339 385.792 93.4711 385.747 93.6033C385.659 93.7354 385.615 93.9557 385.615 94.22V106.819C385.615 107.172 385.659 107.436 385.747 107.656C385.836 107.876 386.012 108.009 386.232 108.141C386.452 108.273 386.717 108.317 386.981 108.361C387.29 108.405 387.554 108.405 387.818 108.405H388.656V109.242H377.596V108.361H377.64ZM415.445 108.273V109.11H405.443V108.273H406.412C406.721 108.273 406.985 108.229 407.205 108.185C407.426 108.097 407.558 108.009 407.646 107.876C407.734 107.744 407.822 107.568 407.822 107.348C407.822 107.083 407.822 106.907 407.734 106.687L406.765 104.176H398.261L396.983 107.172C396.895 107.348 396.851 107.524 396.895 107.656C396.939 107.832 397.027 107.964 397.159 108.009C397.292 108.097 397.512 108.141 397.732 108.185C397.997 108.229 398.261 108.229 398.525 108.229H399.583V109.066H392.048V108.273H392.797C393.062 108.273 393.326 108.229 393.634 108.141C393.943 108.053 394.207 107.964 394.472 107.788C394.736 107.612 395 107.436 395.177 107.216C395.353 106.995 395.529 106.731 395.661 106.467L402.359 92.3257H406.721L412.228 105.85C412.272 106.026 412.449 106.335 412.625 106.775C412.845 107.216 413.066 107.524 413.286 107.744C413.506 107.964 413.815 108.097 414.123 108.185C414.431 108.273 414.784 108.317 415.092 108.317H415.445V108.273ZM398.658 103.295H406.412L402.799 94.4403L398.658 103.295ZM432.056 92.1936H440.207V92.9865H439.018C438.577 92.9865 438.181 93.0306 437.916 93.0746C437.652 93.1187 437.432 93.2068 437.299 93.2949C437.167 93.383 437.079 93.5592 437.035 93.7795C436.991 93.9997 436.947 94.22 436.947 94.3962V109.198H434.964L421.966 95.4975V106.819C421.966 107.039 422.01 107.26 422.054 107.48C422.098 107.744 422.186 107.92 422.318 108.009C422.451 108.097 422.671 108.185 422.935 108.273C423.244 108.317 423.596 108.361 423.993 108.361H425.579V109.198H417.34V108.361H418.661C419.014 108.361 419.322 108.317 419.587 108.273C419.851 108.229 420.071 108.141 420.204 108.009C420.336 107.876 420.468 107.744 420.512 107.568C420.6 107.392 420.6 107.127 420.6 106.775V95.101C420.6 94.5724 420.556 94.176 420.512 93.9116C420.468 93.6473 420.292 93.383 420.027 93.2508C419.763 93.0746 419.322 92.9865 418.661 92.9865H417.34V92.1936H424.345L435.625 104.088V94.3962C435.625 94.1319 435.581 93.9116 435.537 93.6914C435.493 93.4711 435.405 93.339 435.229 93.2508C435.096 93.1627 434.92 93.1187 434.656 93.0746C434.391 93.0306 434.171 92.9865 433.951 92.9865H432.1V92.1936H432.056ZM460.079 92.1495H461.225V97.7442H460.079L459.991 97.4359C459.903 97.0394 459.771 96.687 459.683 96.3786C459.55 96.0262 459.33 95.6737 458.978 95.3213C458.625 94.9689 458.185 94.6605 457.7 94.4403C457.215 94.22 456.686 93.9997 456.158 93.8676C455.629 93.6914 455.188 93.6032 454.792 93.5592C454.395 93.5151 453.999 93.4711 453.646 93.4711C453.338 93.4711 452.985 93.5151 452.677 93.5592C452.324 93.6032 452.016 93.6914 451.663 93.8235C451.311 93.9557 450.958 94.1759 450.606 94.4403C450.253 94.7046 449.857 95.101 449.504 95.6297C449.152 96.1583 448.888 96.6429 448.667 97.1275C448.491 97.6121 448.359 98.1407 448.227 98.6693C448.139 99.198 448.05 99.6385 448.006 100.035C447.962 100.431 447.962 100.784 447.918 101.136C447.918 101.489 447.918 101.885 448.006 102.37C448.05 102.722 448.094 103.119 448.138 103.603C448.227 104.044 448.315 104.484 448.403 104.881C448.491 105.277 448.667 105.674 448.932 106.114C449.196 106.555 449.548 106.907 449.945 107.216C450.342 107.524 450.87 107.744 451.443 107.92C452.016 108.053 452.633 108.141 453.25 108.141C453.69 108.141 454.131 108.141 454.616 108.053C455.1 107.964 455.585 107.832 456.025 107.656C456.466 107.48 456.907 107.216 457.303 106.907C457.744 106.599 457.964 106.29 458.008 106.026L458.14 105.233C458.185 104.969 458.185 104.837 458.185 104.749V103.251C458.185 102.987 458.14 102.766 458.008 102.634C457.876 102.502 457.7 102.414 457.48 102.37C457.215 102.326 456.907 102.282 456.466 102.282H455.453V101.445H465.102V102.282H464.265C464.001 102.282 463.736 102.282 463.56 102.326C463.384 102.37 463.208 102.414 463.075 102.458C462.943 102.546 462.899 102.634 462.855 102.766C462.855 102.898 462.811 103.163 462.811 103.559L462.503 109.022H461.004C460.96 108.757 460.916 108.581 460.916 108.493C460.872 108.405 460.828 108.229 460.784 107.964C460.696 107.7 460.564 107.48 460.388 107.348C460.211 107.172 459.947 107.083 459.639 107.083C459.418 107.083 459.11 107.172 458.801 107.348L457.391 108.009C456.819 108.273 456.29 108.449 455.761 108.625C455.232 108.801 454.792 108.89 454.439 108.934C454.087 108.978 453.734 109.022 453.426 109.022C453.117 109.022 452.765 109.066 452.368 109.066H451.135C450.87 109.022 450.562 109.022 450.121 108.934C449.681 108.89 449.24 108.802 448.711 108.669C448.183 108.537 447.61 108.317 447.037 108.053C446.42 107.744 445.935 107.48 445.583 107.172C445.186 106.863 444.834 106.511 444.437 106.026C444.041 105.542 443.776 105.101 443.6 104.749C443.424 104.396 443.292 103.912 443.16 103.383C443.027 102.854 442.939 102.458 442.895 102.194C442.851 101.929 442.851 101.489 442.851 100.96C442.851 100.696 442.851 100.431 442.895 100.255C442.939 100.035 442.983 99.6826 443.116 99.242C443.248 98.8015 443.38 98.3169 443.556 97.7883C443.732 97.2596 444.085 96.731 444.525 96.1583C445.01 95.5856 445.495 95.101 446.024 94.6605C446.552 94.22 447.125 93.8235 447.786 93.4711C448.447 93.1187 449.108 92.8543 449.813 92.6781C450.518 92.5019 451.047 92.4138 451.531 92.3698C451.972 92.3257 452.412 92.2817 452.809 92.2817C453.073 92.2817 453.426 92.3257 453.866 92.3698C454.307 92.4138 454.748 92.5019 455.188 92.5901C455.629 92.6782 456.07 92.8103 456.466 92.8984L458.361 93.5592C458.669 93.6473 458.934 93.6914 459.154 93.6473C459.286 93.6473 459.418 93.6033 459.594 93.5152C459.727 93.427 459.859 93.2949 459.903 93.1187L459.991 92.5901L460.079 92.1495Z" fill="#002978"/>
</svg>
