<svg width="128" height="128" viewBox="0 0 128 128" fill="none" xmlns="http://www.w3.org/2000/svg">
<path d="M21.5 52.7446H27.8835V59.1281H21.5V52.7446Z" fill="#E74225"/>
<path d="M21.5 60.8082H27.8835V67.1912H21.5V60.8082Z" fill="#E096A5"/>
<path d="M21.5 68.5359H27.8835V74.9194H21.5V68.5359Z" fill="#E74225"/>
<path d="M29.563 52.7446H35.9465V59.1281H29.563V52.7446Z" fill="#E73E23"/>
<path d="M29.563 60.8082H35.9465V67.1912H29.563V60.8082Z" fill="#E73C22"/>
<path d="M29.563 68.5359H35.9465V74.9194H29.563V68.5359Z" fill="#E73E23"/>
<path d="M37.2905 52.7446H43.674V59.1281H37.29L37.2905 52.7446Z" fill="#F9C053"/>
<path d="M37.2905 60.8082H43.674V67.1912H37.29L37.2905 60.8082Z" fill="#E73E23"/>
<path d="M37.2905 68.5359H43.674V74.9194H37.29L37.2905 68.5359Z" fill="#B50080"/>
<path d="M45.0181 52.7446H51.4011V59.1281H45.0181V52.7446Z" fill="#E73E23"/>
<path d="M45.0181 60.8082H51.4011V67.1912H45.0181V60.8082Z" fill="#E096A5"/>
<path d="M45.0181 68.5359H51.4011V74.9194H45.0181V68.5359Z" fill="#E84426"/>
<path d="M76.9351 52.7446H83.3181V59.1281H76.9351V52.7446Z" fill="#E73C22"/>
<path d="M76.9351 60.8082H83.3181V67.3092H76.9351V60.8082ZM76.9351 68.7532H83.3181V75.2547H76.9351V68.7537V68.7532Z" fill="#E74225"/>
<path d="M84.6621 52.7446H91.0456V59.1281H84.6621V52.7446Z" fill="#E84A2A"/>
<path d="M84.6621 60.8082H91.0456V67.1912H84.6621V60.8082Z" fill="#E74225"/>
<path d="M84.6621 68.5359H91.0456V74.9194H84.6621V68.5359Z" fill="#B50080"/>
<path d="M92.3892 52.7446H98.7722V59.1281H92.3897L92.3892 52.7446Z" fill="#F9C053"/>
<path d="M92.3892 60.8082H98.7722V67.1912H92.3897L92.3892 60.8082Z" fill="#E73820"/>
<path d="M92.3892 68.5359H98.7722V74.9194H92.3897L92.3892 68.5359Z" fill="#B50080"/>
<path d="M100.117 52.7446H106.5V59.1281H100.117V52.7446Z" fill="#900000"/>
<path d="M100.117 60.8082H106.5V67.1912H100.117V60.8082Z" fill="#E096A5"/>
<path d="M100.117 68.5359H106.5V74.9194H100.117V68.5359Z" fill="#E7351F"/>
<path d="M53.0811 100.117H59.5821V106.5H53.0811V100.117ZM61.0266 100.117H67.5275V106.5H61.0266V100.117Z" fill="#E73E23"/>
<path d="M68.8711 100.117H75.2546V106.5H68.8711V100.117Z" fill="#009F46"/>
<path d="M53.0811 92.0536H59.4646V98.4371H53.0811V92.0536Z" fill="#E73E23"/>
<path d="M60.8086 92.0536H67.1916V98.4371H60.8086V92.0536Z" fill="#E096A5"/>
<path d="M68.7201 92.2597H75.2551V98.7722H68.7201V92.2597ZM52.7451 84.6617H59.2801V91.1742H52.7451V84.6617Z" fill="#E73E23"/>
<path d="M60.8086 84.6617H67.1916V91.0452H60.8086V84.6617Z" fill="#E7351F"/>
<path d="M68.8711 84.6617H75.2546V91.0452H68.8711V84.6617Z" fill="#B50080"/>
<path d="M53.0811 76.5986H59.4646V82.9816H53.0811V76.5986Z" fill="#E84D2C"/>
<path d="M60.8086 76.5986H67.1916V82.9816H60.8086V76.5986Z" fill="#900000"/>
<path d="M68.8711 76.5986H75.2546V82.9816H68.8711V76.5986Z" fill="#E84A2A"/>
<path d="M76.9351 92.0536H83.4361V98.4371H76.9351V92.0536ZM84.8801 92.0536H91.3816V98.4371H84.8801V92.0536Z" fill="#E84426"/>
<path d="M76.9351 84.6617H83.3181V91.0452H76.9351V84.6617Z" fill="#E096A5"/>
<path d="M84.6621 84.6617H91.0456V91.0452H84.6621V84.6617Z" fill="#E84A2A"/>
<path d="M92.3892 84.6617H98.7722V91.0452H92.3897L92.3892 84.6617Z" fill="#F29600"/>
<path d="M76.9351 76.5986H83.3181V82.9816H76.9351V76.5986Z" fill="#E74225"/>
<path d="M84.6621 76.5986H91.0456V82.9816H84.6621V76.5986Z" fill="#E73C22"/>
<path d="M92.3892 76.5986H98.7722V82.9816H92.3897L92.3892 76.5986Z" fill="#E73E23"/>
<path d="M53.0811 44.6824H59.4646V51.0654H53.0811V44.6824Z" fill="#900000"/>
<path d="M60.8086 44.6824H67.1916V51.0654H60.8086V44.6824Z" fill="#E096A5"/>
<path d="M68.8711 44.6824H75.2546V51.0654H68.8711V44.6824Z" fill="#E73E23"/>
<path d="M53.0811 36.9547H59.4646V43.3377H53.0811V36.9547Z" fill="#E84A2A"/>
<path d="M60.8086 36.9547H67.1916V43.3377H60.8086V36.9547Z" fill="#900000"/>
<path d="M68.8711 36.9547H75.2546V43.3377H68.8711V36.9547Z" fill="#E84426"/>
<path d="M53.0811 29.2273H59.4646V35.6098H53.0811V29.2273Z" fill="#E096A5"/>
<path d="M60.8086 29.2273H67.1916V35.6098H60.8086V29.2273Z" fill="#E73E23"/>
<path d="M68.8711 29.2273H75.2546V35.6098H68.8711V29.2273Z" fill="#B50080"/>
<path d="M29.563 44.6824H35.9465V51.0654H29.563V44.6824Z" fill="#E84426"/>
<path d="M37.2905 44.6824H43.674V51.0654H37.29L37.2905 44.6824Z" fill="#E74225"/>
<path d="M45.0181 44.6824H51.4011V51.0654H45.0181V44.6824Z" fill="#E73820"/>
<path d="M29.563 36.9547H35.9465V43.3377H29.563V36.9547Z" fill="#E74225"/>
<path d="M37.2905 36.9547H43.674V43.3377H37.29L37.2905 36.9547Z" fill="#E73E23"/>
<path d="M45.0181 36.9547H51.4011V43.3377H45.0181V36.9547Z" fill="#B50080"/>
<path d="M37.2905 29.2273H43.674V35.6098H37.29L37.2905 29.2273Z" fill="#E84426"/>
<path d="M45.0181 29.2273H51.5116V35.7698H45.0181V29.2273ZM92.2791 44.8578H98.7726V51.4008H92.2791V44.8578Z" fill="#E73C22"/>
<path d="M92.3892 36.9547H98.7722V43.3377H92.3897L92.3892 36.9547Z" fill="#E84A2A"/>
<path d="M84.6621 44.6824H91.0456V51.0654H84.6621V44.6824Z" fill="#E73E23"/>
<path d="M84.6621 36.9547H91.0456V43.3377H84.6621V36.9547Z" fill="#B50080"/>
<path d="M84.6621 29.2273H91.0456V35.6098H84.6621V29.2273Z" fill="#E73C22"/>
<path d="M76.9351 44.6824H83.3181V51.0654H76.9351V44.6824Z" fill="#E096A5"/>
<path d="M76.9351 36.9547H83.3181V43.3377H76.9351V36.9547Z" fill="#E73E23"/>
<path d="M76.9351 29.2273H83.3181V35.6098H76.9351V29.2273Z" fill="#E84426"/>
<path d="M45.0181 92.0536H51.4011V98.4371H45.0181V92.0536Z" fill="#E84A2A"/>
<path d="M45.0181 84.6617H51.4011V91.0452H45.0181V84.6617Z" fill="#F29600"/>
<path d="M45.0181 76.5986H51.4011V82.9816H45.0181V76.5986Z" fill="#E74225"/>
<path d="M37.2905 92.0536H43.674V98.4371H37.29L37.2905 92.0536Z" fill="#E84A2A"/>
<path d="M37.2905 84.6617H43.674V91.0452H37.29L37.2905 84.6617Z" fill="#900000"/>
<path d="M37.2905 76.5986H43.674V82.9816H37.29L37.2905 76.5986Z" fill="#E7351F"/>
<path d="M29.563 84.6617H35.9465V91.0452H29.563V84.6617Z" fill="#E84729"/>
<path d="M29.563 76.5986H35.9465V82.9816H29.563V76.5986Z" fill="#E73C22"/>
<path d="M53.0811 21.5H59.4646V27.8835H53.0811V21.5Z" fill="#E84426"/>
<path d="M60.8086 21.5H67.1916V27.8835H60.8086V21.5Z" fill="#E84A2A"/>
<path d="M68.8711 21.5H75.2546V27.8835H68.8711V21.5Z" fill="#E73820"/>
</svg>
