<svg width="380" height="128" viewBox="0 0 380 128" fill="none" xmlns="http://www.w3.org/2000/svg">
<path d="M80.8054 47.9866C75.6109 47.9866 70.4165 48.7778 66.0133 50.3602C72.7901 51.5298 78.3973 57.481 78.3973 64.6018C78.3973 77.6394 62.8141 88.3035 44.0317 88.3035C38.0461 88.3035 32.4388 87.1339 27.6572 85.5515C37.6333 97.4195 50.0173 107.292 64.0181 114C85.587 103.715 103.165 86.3427 113.967 64.6018C113.554 64.2234 113.554 63.4322 113.176 63.0194C107.569 54.2818 95.1846 47.9866 80.8054 47.9866V47.9866Z" fill="#E8B921"/>
<path d="M46.7489 80.0138C51.9433 80.0138 56.7249 79.2226 61.1281 78.0186C54.7297 76.8146 49.5353 71.2073 49.5353 64.4305V64.0177C49.5353 50.8081 65.1185 40.0065 83.901 40.0065C89.8866 40.0065 95.4938 41.2105 100.275 42.7929C90.2994 30.7872 77.9154 20.7768 63.9145 14C41.9673 24.3888 24.3888 42.0017 14 63.6049C18.4032 73.2026 31.5784 80.0138 46.7489 80.0138Z" fill="#0268B8"/>
<path d="M335.639 39.7316C335.227 40.5228 334.435 40.1444 334.023 41.7268C334.435 42.1396 335.227 42.518 335.639 42.9308C337.256 43.722 338.839 44.5132 338.839 46.9212C338.839 47.7124 338.839 48.9164 338.288 49.7076C338.288 49.7076 333.919 55.1084 332.062 57.2756C331.683 59.7524 333.713 58.2732 333.713 65.4628C333.713 67.9397 333.231 72.4461 330.823 72.8589C330.239 72.2397 328.863 72.0677 328.863 71.6549C326.867 67.6645 330.479 64.4653 329.654 60.4748V60.0964C327.246 60.5092 324.459 64.4997 323.255 64.8781H322.464C320.469 63.2957 320.847 61.6788 320.847 59.3052C323.255 58.1012 324.838 55.7276 326.455 53.7324C327.246 52.5284 328.45 52.5284 328.863 50.946C329.654 49.742 330.479 49.742 330.479 47.7468L330.067 47.334C328.863 47.334 327.28 48.1252 325.663 48.1252C324.047 47.334 322.051 45.3388 323.255 42.9308C323.668 41.7268 324.872 40.9356 325.663 40.1444C327.28 38.1492 328.45 36.5668 329.654 34.5716C330.067 33.7804 331.649 32.9892 332.062 32.1636C332.475 31.3724 332.475 30.1684 332.853 29.3772H333.266C334.057 29.3772 334.883 29.79 335.674 30.1684C337.291 30.9596 338.46 32.5764 339.286 33.746C338.873 37.3236 337.291 37.3236 335.674 39.3188V39.7316H335.639ZM350.053 30.9596C350.466 31.3724 350.844 31.3724 350.844 31.7508C352.839 35.3284 348.849 38.9404 348.436 41.314H348.849C350.466 40.5228 352.461 37.3236 353.252 35.7412C354.456 35.7412 355.247 36.5324 356.451 36.154C357.655 35.3628 357.655 33.3676 356.864 32.1636C355.247 30.1684 352.874 27.7604 349.262 28.1732C349.262 28.1732 348.849 28.1732 348.849 28.586C348.849 28.9988 348.436 29.3772 348.436 30.1684C348.849 29.7556 349.227 29.7556 349.64 30.1684C350.053 30.5812 350.053 30.5812 350.053 30.9596V30.9596ZM346.063 72.4461C348.058 71.6549 350.466 72.0333 351.67 70.0381C352.874 68.4557 352.874 58.4796 352.461 55.6932C352.461 54.902 351.67 54.902 351.257 54.1108V53.698C353.665 53.698 354.456 55.2804 355.247 56.8972C355.247 56.8972 354.835 59.6836 354.835 60.4748C356.039 64.4653 356.039 72.4461 354.835 76.4365C354.043 76.8493 352.839 77.2277 351.635 77.2277C351.223 76.4365 342.416 74.8197 342.038 73.2373C343.655 72.8589 344.446 72.8589 346.063 72.4461ZM344.067 55.6932L345.684 54.1108C349.675 52.1156 353.699 50.9116 357.69 48.9164H358.894C359.307 48.5036 359.685 48.5036 360.511 48.1252C360.923 48.1252 363.297 47.7124 363.297 47.7124C364.088 47.7124 364.914 48.5036 366.083 48.5036C366.496 47.2996 366.083 46.0956 366.083 44.926C364.467 44.1348 362.093 43.3436 360.476 42.9308C359.272 43.722 358.068 44.926 356.486 45.7172C354.078 46.5084 351.67 47.2996 349.296 48.5036C346.888 49.7076 344.893 51.7028 342.107 52.0812C341.694 52.494 341.694 52.494 341.694 53.2852C342.107 52.8724 342.107 53.2852 342.107 53.2852C342.451 54.1108 342.863 54.902 344.067 55.6932V55.6932ZM261.989 70.4509C261.989 70.4509 261.576 70.4509 261.576 70.0381C261.163 68.8341 260.372 66.0477 260.785 64.8436C261.198 64.0524 262.402 63.6396 262.78 62.8484C263.193 62.0572 263.571 61.6444 263.984 60.8532C264.397 60.062 264.775 59.6492 265.188 58.858C265.188 58.0668 264.397 57.654 264.775 56.45L265.188 56.8628C265.188 57.2756 265.601 57.654 265.601 58.0668H266.014C266.426 57.2756 267.218 56.8628 267.218 55.6588V55.246C266.426 55.246 265.601 55.246 264.81 55.6588L264.397 55.246C263.984 54.8332 263.193 54.4548 263.193 53.6636C263.606 53.2508 263.984 52.8724 264.397 52.8724L265.188 52.0812C265.979 51.6684 267.596 51.6684 267.974 50.8772C268.353 50.086 267.974 48.0908 267.974 47.2996H263.571V46.8868C263.984 46.474 264.362 46.474 264.362 46.0956C265.566 44.8916 266.77 44.1004 268.353 43.3092C269.144 43.3092 269.97 43.3092 270.761 43.722C270.761 45.7172 270.761 47.7124 271.174 49.2948C271.586 50.8772 271.965 52.0812 272.79 53.698C272.79 54.902 271.586 55.2804 271.586 56.8972L275.577 52.9068H275.99V53.3196C277.194 52.5284 278.398 49.742 279.98 48.9164V49.3292C278.363 55.7276 272.79 62.5045 268.387 66.0821C266.77 66.8733 265.601 68.8685 263.984 69.6597C263.193 70.0725 262.78 70.0725 261.989 70.4509V70.4509ZM288.408 50.9116C289.199 51.3244 290.025 50.9116 290.816 50.4988C291.607 49.2948 291.607 48.0908 291.607 46.5084V44.1004C292.398 40.11 293.224 34.5372 292.398 30.134C291.986 30.134 291.607 29.7212 291.194 29.7212C289.99 29.3084 288.786 29.3084 287.582 29.3084H287.17C287.582 30.5124 288.786 30.8908 289.165 32.0948C289.956 34.8812 288.752 37.2892 288.752 39.6628H288.339C288.339 39.6628 287.548 39.6628 286.344 39.25H285.931C284.727 38.4588 285.931 36.4636 282.732 35.6724C282.732 35.6724 282.319 35.6724 282.319 36.0852C282.732 37.2892 283.523 38.4932 283.523 40.4884C283.11 40.9012 282.732 40.9012 282.319 41.6924C283.523 43.6876 282.319 46.474 281.906 49.2604C280.702 54.042 281.115 58.4452 280.29 63.6053C280.29 64.8093 279.877 66.0132 279.877 67.1829V71.5861C279.877 72.3773 280.29 72.7901 280.29 73.5813C280.702 74.3725 281.906 75.9893 282.698 76.3677H283.902C285.106 75.5765 285.518 73.5813 286.688 72.7901L287.101 72.3773C289.096 70.7949 290.713 69.1781 291.917 67.5957C293.121 66.3917 293.912 64.8093 295.116 63.1924C298.315 64.7749 301.514 65.9789 304.714 67.5957C305.505 68.0085 306.709 69.5909 307.913 69.1781C308.326 68.7653 308.326 67.5957 308.704 67.1829C306.296 63.9836 301.102 60.7844 297.111 59.6148C297.111 58.8236 297.524 57.6196 297.902 56.8284H297.49C297.077 57.2412 296.698 58.0324 296.286 58.4108L295.873 58.8236C295.873 58.4108 296.286 58.0324 296.286 58.0324C295.873 58.0324 295.494 58.4452 295.082 58.8236C294.29 58.8236 293.878 58.4108 293.086 58.4108C292.674 58.4108 293.086 58.4108 292.674 57.998C295.46 54.7988 304.679 52.8036 305.092 48.4348C304.679 48.022 303.888 47.2308 303.097 46.8524C301.48 47.2652 294.703 53.2508 291.882 56.0372C291.47 56.45 291.091 56.45 291.091 56.8284L289.887 58.0324C289.474 58.4452 287.892 57.6196 287.892 58.4452C287.892 58.858 288.305 59.2364 288.305 59.6492H288.718C289.509 60.4404 290.713 61.2316 291.504 61.6444V62.4356C290.3 64.018 288.305 65.6349 286.688 67.2173C285.484 68.4213 284.28 69.2125 283.076 70.0037H282.663C282.25 68.0085 283.867 55.6588 284.658 54.8332C285.071 54.8332 285.45 54.8332 285.45 54.4204C285.862 53.2164 285.862 52.838 286.241 52.4252C287.204 52.1156 287.617 51.3244 288.408 50.9116V50.9116ZM286.413 42.5524H286.826C286.826 42.9652 286.413 43.3436 286.413 44.1348V44.5476H286C286 43.722 286.413 42.9308 286.413 42.5524ZM288.408 42.1396C290.025 43.722 287.617 46.9212 286.413 48.538L285.622 49.3292C286.034 47.7468 286.034 46.5428 286.413 45.7516C286.826 44.5476 287.617 43.3436 288.408 42.1396V42.1396ZM263.984 34.95C261.989 38.5276 260.372 42.1396 258.377 45.3044L253.561 50.086C253.148 50.086 253.148 50.086 252.77 49.6732C251.978 50.4644 251.566 52.0812 251.153 53.6636V54.4548C251.153 55.6588 251.566 56.45 252.77 56.8628C257.964 53.2852 260.372 50.4644 263.193 44.1004C263.606 43.6876 263.606 42.8964 263.984 42.1052C264.775 39.6972 265.601 37.3236 267.183 36.9108C267.974 35.3284 267.183 32.9204 265.566 32.5076C264.775 33.3676 264.397 34.1588 263.984 34.95V34.95ZM275.611 35.3628C276.402 33.3676 273.616 32.1636 271.999 32.1636L271.586 32.5764V32.9892L272.378 33.7804C271.965 36.1884 270.761 37.7708 269.591 39.766H271.208C271.999 38.562 272.825 37.7708 273.203 36.9796C273.994 36.154 275.198 36.5668 275.611 35.3628V35.3628ZM167.113 59.3052L166.701 58.8924C168.317 54.902 181.905 45.7172 169.9 43.3436C169.109 43.7564 168.283 43.3436 167.113 43.7564C163.914 44.5476 159.098 44.9604 154.316 44.9604L153.904 45.3732C154.316 45.786 155.108 45.786 155.899 45.786V46.1988C154.695 46.1988 153.904 46.6116 152.7 46.99C153.112 48.194 154.695 47.4028 156.312 47.7812C159.098 48.194 161.919 49.3636 164.705 48.5724V51.3588C163.501 52.9412 156.69 57.7572 157.894 60.1308C158.685 62.126 157.103 64.5341 161.093 66.1165C166.288 67.3205 170.313 65.7037 175.094 65.3253C176.711 63.3301 176.298 60.1308 173.099 59.3396H167.113V59.3052ZM135.878 51.7028L135.465 51.29C134.261 53.2852 135.878 55.2804 135.465 58.4796C135.052 61.266 134.261 63.674 134.261 66.4605V66.8733C134.261 68.0773 134.261 69.6597 134.674 70.8637C135.465 74.4413 136.291 76.0581 139.868 77.6405C141.864 77.6405 145.476 64.0869 146.267 54.4892C144.272 56.8972 142.276 64.8436 138.252 64.8436C137.082 60.8876 140.281 53.698 135.878 51.7028V51.7028ZM142.276 30.1684C141.072 30.9596 140.66 30.9596 139.868 32.5764C142.276 34.5716 143.48 37.358 141.485 40.1444C141.072 40.5572 140.694 40.5572 140.281 41.3484C145.476 38.9404 149.879 37.7708 149.879 33.3676C149.5 30.1684 145.476 29.7556 142.276 30.1684V30.1684ZM193.12 68.0773C192.707 69.6597 193.12 70.8637 192.707 72.4805L193.12 72.8933H194.737C195.149 72.1021 195.528 71.3109 196.732 71.3109C197.523 70.1069 197.936 69.3157 198.727 68.1117C199.14 67.6989 199.518 66.9077 199.518 66.5293C199.931 66.1165 199.931 64.9469 200.309 64.5341C199.518 62.9517 197.901 61.7476 195.906 62.9516C195.149 64.4652 193.533 66.0821 193.12 68.0773V68.0773ZM203.543 40.5572C206.329 39.766 208.737 39.766 206.742 40.97C205.125 41.7612 203.13 42.9652 201.548 44.9604H201.135C201.135 44.9604 201.135 45.3732 200.722 45.3732C200.309 45.786 200.309 46.5772 199.518 46.9556H199.105C198.314 46.1644 197.901 44.9604 197.11 44.1692C196.697 42.9652 197.523 41.3828 197.523 40.1788V36.5668C197.523 35.3628 197.936 34.1588 198.314 32.9892H198.727C200.344 35.3972 200.722 38.562 201.135 41.3828C201.548 41.3484 202.339 40.9356 203.543 40.5572V40.5572ZM233.574 67.6645C231.957 66.8733 230.788 66.0821 229.962 64.4653C230.375 64.0525 230.753 64.0524 230.753 63.674C231.545 63.674 232.749 64.0869 233.54 64.4653C234.744 64.8781 235.535 65.2565 236.326 65.2565C239.526 66.4605 243.516 67.2517 243.516 70.8293V72.8245C242.725 72.8245 242.725 73.2373 242.312 73.6157C239.113 73.6157 239.113 71.6205 237.117 70.4165C235.982 69.2469 234.778 68.4557 233.574 67.6645ZM222.36 30.9596C221.156 32.542 219.573 34.1588 218.369 35.7412H216.753C216.753 36.154 216.753 36.5324 217.165 36.9452C215.961 38.5276 214.757 40.9356 213.175 42.518L212.762 42.9308V39.7316C213.175 36.154 212.762 32.1636 212.349 28.9644C212.349 27.7604 212.762 27.382 212.349 26.1779C211.937 24.5955 210.354 23.7699 208.737 23.3915C207.946 22.9787 207.946 22.6003 206.329 22.6003C206.742 25.3867 207.946 27.7948 207.946 30.994C208.359 36.5668 207.155 42.5524 208.359 46.9556C206.364 50.946 202.339 52.9412 204.369 58.9268C205.16 59.3396 206.364 59.3396 207.568 59.3396L207.981 59.7524C206.364 63.33 200.791 71.7237 201.582 75.3013C201.582 75.7141 201.995 76.5053 202.373 76.5053C202.373 77.2965 201.961 77.2965 202.373 78.0877C202.373 78.0877 202.373 78.5005 202.786 78.5005H203.199L205.607 74.9229H206.02C206.433 76.1269 207.224 75.7141 207.224 76.9181C208.428 77.3309 209.632 76.9181 210.423 76.9181C211.627 76.9181 212.418 76.9181 213.622 76.5053C214.413 76.5053 215.617 76.0925 216.409 75.7141C220.021 73.7189 222.807 66.9421 224.011 62.1604C224.424 59.7524 224.802 56.5876 224.424 53.7668C224.011 50.5676 221.225 49.7764 217.613 49.7764V49.3636L218.817 48.1596C218.404 47.3684 218.025 46.5772 217.2 46.1644C215.583 46.5772 214.792 47.3684 213.588 47.7468C212.384 48.538 211.593 50.1548 209.976 51.3244H209.563C209.563 51.3244 209.563 50.9116 209.15 50.9116C209.563 48.9164 211.937 47.334 213.141 46.13L213.553 45.7172C215.549 42.9308 217.957 40.1444 219.952 37.3236C221.156 36.5324 224.768 36.5324 226.35 36.1196C227.141 35.7068 227.967 35.7068 228.758 35.3284C229.962 35.3284 231.166 35.3284 232.37 35.7412C232.783 35.7412 233.161 36.154 233.574 36.154C234.778 36.5668 235.569 36.9452 236.773 36.5668L237.186 36.154C236.773 33.3676 235.191 34.1588 233.574 32.9548C233.161 32.542 233.161 32.1636 232.783 31.7508C231.579 30.1684 230.375 28.9644 228.793 27.7604C228.001 26.9692 226.797 27.3476 226.006 27.7604C224.768 28.9644 223.564 29.7556 222.36 30.9596V30.9596ZM213.141 70.0725C212.728 70.4853 211.937 70.8637 211.524 71.2765C210.32 70.4853 209.116 69.6941 207.533 69.2813C207.121 67.2861 210.733 62.0917 213.141 58.1012C213.932 56.8972 214.345 55.6932 214.757 54.902C215.17 54.902 215.961 54.4892 216.374 54.4892H217.165C220.743 58.8924 217.165 66.8733 213.141 70.0725V70.0725ZM225.972 34.1588C224.355 34.5716 222.773 34.5716 222.36 34.95H221.947C222.36 34.1588 224.355 32.542 225.937 31.3724C226.729 30.9596 227.141 30.5812 227.554 30.1684H227.967C228.758 30.9596 229.171 32.1636 229.962 33.3676C229.549 33.3676 227.554 33.746 225.972 34.1588V34.1588Z" fill="#231815"/>
<path d="M135.465 99.4142V98.8638C136.085 98.623 136.738 98.451 137.392 98.4166V87.0302C137.082 86.9958 136.773 86.927 136.429 86.8238C136.085 86.755 135.775 86.6518 135.465 86.5486V85.9982H137.942C138.252 85.9982 138.527 85.9982 138.802 85.9638L139.662 85.9294C139.972 85.9294 140.281 85.895 140.625 85.895H141.795C142.414 85.895 143.068 85.9294 143.721 86.0326C144.375 86.1014 144.96 86.2734 145.476 86.5142C145.992 86.755 146.439 87.0646 146.749 87.4774C147.093 87.8902 147.23 88.4406 147.23 89.0942C147.23 89.4382 147.161 89.7478 147.058 90.0918C146.921 90.4358 146.749 90.7454 146.473 91.0206C146.233 91.2958 145.889 91.571 145.51 91.7774C145.132 91.9838 144.65 92.1558 144.134 92.259V92.3278C144.616 92.3966 145.063 92.4998 145.545 92.6374C146.026 92.775 146.405 93.0158 146.783 93.2566C147.127 93.5318 147.437 93.8414 147.677 94.2198C147.918 94.5982 148.021 95.0798 148.021 95.5958C148.021 96.2838 147.849 96.8686 147.471 97.3846C147.093 97.9006 146.611 98.279 145.992 98.623C145.407 98.9326 144.719 99.1734 143.928 99.311C143.171 99.4486 142.38 99.5174 141.623 99.5174C141.176 99.5174 140.66 99.5174 140.109 99.483L139.765 99.4486C139.077 99.4142 138.424 99.3798 137.77 99.3798H135.465V99.4142ZM141.589 98.7606C142.139 98.7606 142.689 98.6918 143.171 98.5542C143.653 98.4166 144.1 98.2102 144.444 97.9694C144.788 97.7286 145.063 97.419 145.269 97.075C145.476 96.731 145.579 96.3526 145.579 95.9398C145.579 95.4238 145.441 95.011 145.201 94.667C144.96 94.323 144.616 94.0478 144.203 93.8414C143.79 93.635 143.309 93.4974 142.758 93.4286C142.208 93.3598 141.657 93.3254 141.073 93.3254H139.318V98.623C139.525 98.6574 139.8 98.7262 140.109 98.7262H140.316C140.66 98.7262 141.073 98.7606 141.589 98.7606ZM139.353 92.1214H140.866C141.038 92.1214 141.245 92.1214 141.485 92.087L141.829 92.0526C142.036 92.0526 142.242 92.0182 142.38 92.0182C143.102 91.8118 143.687 91.5022 144.134 91.055C144.581 90.6078 144.822 90.0918 144.822 89.507C144.822 88.6814 144.513 88.0622 143.893 87.6494C143.274 87.2366 142.449 87.0302 141.417 87.0302H140.178C139.834 87.0302 139.559 87.0646 139.353 87.099V92.1214V92.1214ZM156.277 99.5174H151.083V98.967C151.633 98.7606 152.218 98.623 152.769 98.5198L158.685 85.8606H159.373L165.29 98.5198C165.6 98.5542 165.909 98.623 166.219 98.6918C166.529 98.7606 166.804 98.8638 167.079 98.967V99.5174H161.093V98.967C161.403 98.8638 161.713 98.7606 162.057 98.6918C162.401 98.623 162.71 98.5542 163.02 98.4854L161.437 94.9766H155.83L154.282 98.4854C154.936 98.5542 155.624 98.7262 156.312 98.9326V99.5174H156.277ZM156.14 94.0478H160.818L158.995 89.8854L158.548 88.1998H158.513L157.929 89.9198L156.14 94.0478ZM180.048 86.239H185.07V86.7894C184.417 87.1334 183.797 87.4086 183.178 87.5462V99.8958H181.871L173.409 89.335L172.514 87.8214H172.445L172.652 89.335V98.451C173.271 98.5886 173.89 98.8294 174.441 99.139V99.6894H169.418V99.139C169.693 99.0014 170.003 98.8638 170.313 98.7606C170.622 98.6574 170.966 98.5542 171.31 98.451V87.443L170.381 87.1334C170.072 87.0302 169.797 86.8926 169.521 86.7894V86.239H173.443L180.736 95.355L181.802 97.0062H181.905L181.802 95.355V87.5462C181.493 87.443 181.149 87.3054 180.873 87.1678C180.564 87.0302 180.289 86.8926 180.013 86.755V86.239H180.048ZM195.665 85.8606H200.825V86.411L199.897 86.7206C199.587 86.7894 199.312 86.8582 199.037 86.927L194.324 92.1214L194.668 92.4998C194.977 92.8438 195.287 93.1878 195.665 93.5662C196.181 94.1166 196.698 94.667 197.248 95.2174L198.968 96.9374C199.553 97.5222 200.138 98.0726 200.688 98.5886L201.823 99.0702V99.5518H198.899L198.108 99.0702C197.179 98.1758 196.285 97.2126 195.356 96.1462C194.427 95.0798 193.567 94.0478 192.707 92.9814H191.572V98.4854C192.294 98.5886 192.879 98.7606 193.326 98.967V99.5174H187.409V98.967C188.029 98.7606 188.682 98.5886 189.336 98.4854V86.927C188.648 86.8582 187.994 86.6862 187.409 86.4454V85.895H193.326V86.4454C193.085 86.5486 192.81 86.6174 192.501 86.7206C192.191 86.7894 191.881 86.8926 191.572 86.9614V92.3622L192.982 92.087L197.351 86.927C197.041 86.8582 196.732 86.7894 196.457 86.7206C196.182 86.6518 195.906 86.5486 195.665 86.4454V85.8606V85.8606ZM217.854 92.8782C217.854 91.8806 218.026 90.9174 218.37 90.0574C218.714 89.1974 219.195 88.4406 219.814 87.8214C220.434 87.2022 221.225 86.7206 222.154 86.3422C223.082 85.9982 224.114 85.8262 225.284 85.8262C226.454 85.8262 227.486 85.9982 228.414 86.3422C229.343 86.6862 230.1 87.1678 230.754 87.8214C231.373 88.4406 231.854 89.1974 232.198 90.0574C232.542 90.9174 232.714 91.8462 232.714 92.8782C232.714 93.8758 232.542 94.839 232.198 95.699C231.854 96.559 231.373 97.3158 230.754 97.935C230.134 98.5542 229.343 99.0358 228.414 99.4142C227.486 99.7582 226.454 99.9302 225.284 99.9302C224.114 99.9302 223.082 99.7582 222.154 99.4142C221.225 99.0702 220.468 98.5886 219.814 97.935C219.195 97.3158 218.714 96.559 218.37 95.699C218.026 94.839 217.854 93.9102 217.854 92.8782ZM220.193 92.7062C220.193 93.5318 220.296 94.323 220.502 95.0454C220.709 95.7678 221.018 96.4214 221.431 96.9718C221.844 97.5222 222.36 97.935 223.014 98.279C223.633 98.5886 224.39 98.7606 225.284 98.7606C226.075 98.7606 226.763 98.5886 227.348 98.279C227.933 97.9694 228.414 97.5222 228.793 96.9718C229.171 96.4214 229.446 95.7678 229.653 95.0454C229.859 94.323 229.928 93.5318 229.928 92.7062C229.928 91.8806 229.825 91.0894 229.618 90.367C229.412 89.6446 229.102 88.991 228.69 88.4406C228.277 87.8902 227.761 87.4774 227.107 87.1334C226.488 86.8238 225.731 86.6518 224.837 86.6518C223.977 86.6518 223.254 86.8238 222.67 87.1334C222.085 87.443 221.603 87.8902 221.225 88.4406C220.846 88.991 220.571 89.6446 220.399 90.367C220.227 91.0894 220.193 91.8462 220.193 92.7062ZM239.732 98.4854C240.42 98.5542 241.074 98.7262 241.727 98.967V99.5174H235.81V98.967C236.086 98.8638 236.361 98.7606 236.636 98.6918C236.911 98.623 237.186 98.5542 237.496 98.4854V86.927C237.152 86.8582 236.842 86.7894 236.567 86.6862C236.292 86.6174 236.051 86.5142 235.81 86.411V85.8606H246.75C246.75 86.3766 246.715 86.8926 246.681 87.4086C246.646 87.959 246.578 88.475 246.509 89.0254H245.89L244.926 86.8926H239.732V92.431H243.894L244.72 91.1926H245.27C245.339 91.7774 245.374 92.3622 245.374 92.947C245.374 93.5318 245.339 94.151 245.27 94.7358H244.72L243.894 93.4286H239.732V98.4854V98.4854ZM264.328 86.239H270.176V86.7894C269.901 86.8926 269.626 86.9958 269.316 87.0646C269.041 87.1334 268.731 87.2022 268.422 87.271V97.935C268.422 98.8294 268.284 99.5518 268.043 100.137C267.802 100.721 267.493 101.169 267.149 101.513C266.77 101.857 266.392 102.132 265.979 102.269C265.566 102.441 265.188 102.545 264.844 102.613L264.603 102.338C264.844 102.166 265.05 101.994 265.222 101.788C265.429 101.581 265.601 101.306 265.738 100.997C265.876 100.687 265.979 100.274 266.082 99.827C266.151 99.3798 266.186 98.795 266.186 98.1414V87.271C265.842 87.2022 265.532 87.1334 265.188 87.0646C264.844 86.9958 264.569 86.8926 264.294 86.7894V86.239H264.328ZM279.155 99.5174H273.307V98.967C273.891 98.7262 274.51 98.5886 275.13 98.4854V86.927L274.201 86.7206C273.891 86.6518 273.582 86.5486 273.272 86.4454V85.895H279.12V86.4454C278.845 86.5486 278.535 86.6518 278.226 86.7206L277.297 86.927V98.5198C277.607 98.5886 277.951 98.623 278.26 98.7262C278.57 98.8294 278.879 98.8982 279.12 99.0014V99.5174H279.155ZM286.723 99.5174H281.528V98.967C282.079 98.7606 282.663 98.623 283.214 98.5198L289.131 85.8606H289.819L295.735 98.5198C296.045 98.5542 296.355 98.623 296.664 98.6918C296.974 98.7606 297.249 98.8638 297.524 98.967V99.5174H291.539V98.967C291.848 98.8638 292.158 98.7606 292.502 98.6918C292.846 98.623 293.155 98.5542 293.465 98.4854L291.883 94.9766H286.275L284.727 98.4854C285.381 98.5542 286.069 98.7262 286.757 98.9326V99.5174H286.723ZM286.585 94.0478H291.263L289.44 89.8854L288.993 88.1998H288.959L288.374 89.9198L286.585 94.0478ZM310.493 86.239H315.515V86.7894C314.862 87.1334 314.243 87.4086 313.623 87.5462V99.8958H312.316L303.854 89.335L302.959 87.8214H302.891L303.097 89.335V98.451C303.716 98.5886 304.335 98.8294 304.886 99.139V99.6894H299.863V99.139C300.139 99.0014 300.448 98.8638 300.758 98.7606C301.067 98.6574 301.411 98.5542 301.755 98.451V87.443L300.827 87.1334C300.517 87.0302 300.242 86.8926 299.967 86.7894V86.239H303.888L311.181 95.355L312.247 97.0062H312.351L312.247 95.355V87.5462C311.938 87.443 311.594 87.3054 311.319 87.1678C311.009 87.0302 310.734 86.8926 310.459 86.755V86.239H310.493ZM331.615 98.7606C331.305 98.8982 330.961 99.0358 330.583 99.1734C330.17 99.311 329.757 99.4486 329.31 99.5518C328.863 99.655 328.415 99.7582 327.968 99.827C327.521 99.8958 327.108 99.9302 326.73 99.9302C325.491 99.9302 324.356 99.7926 323.359 99.5174C322.361 99.2422 321.501 98.795 320.813 98.2446C320.125 97.6942 319.575 96.9374 319.196 96.043C318.818 95.1486 318.611 94.1166 318.611 92.9126C318.611 91.6398 318.818 90.5734 319.265 89.679C319.712 88.7846 320.297 88.0622 321.054 87.4774C321.811 86.927 322.636 86.5142 323.565 86.239C324.494 85.9982 325.457 85.8606 326.455 85.8606C327.487 85.8606 328.347 85.9294 329.069 86.0326C329.791 86.1358 330.411 86.3078 330.927 86.5142V86.755C330.927 86.8926 330.927 87.0646 330.892 87.2022C330.892 87.4774 330.858 87.787 330.823 88.0966L330.72 89.0254L330.651 89.3694C330.617 89.5414 330.583 89.679 330.583 89.8166H329.963L328.759 87.0302C328.587 86.9614 328.312 86.8926 327.899 86.8582C327.487 86.8238 327.108 86.8238 326.695 86.8238C325.904 86.8238 325.182 86.927 324.459 87.1678C323.771 87.4086 323.152 87.787 322.636 88.2686C322.12 88.7502 321.707 89.4038 321.398 90.1606C321.088 90.9174 320.916 91.8118 320.916 92.8438C320.916 93.7726 321.054 94.5982 321.363 95.3206C321.673 96.043 322.086 96.6966 322.636 97.2126C323.187 97.7286 323.806 98.1414 324.528 98.4166C325.251 98.6918 326.042 98.8294 326.867 98.8294C327.177 98.8294 327.487 98.795 327.796 98.7606C328.106 98.6918 328.381 98.6574 328.622 98.5886C328.863 98.5198 329.069 98.451 329.241 98.3822C329.413 98.3134 329.516 98.2446 329.585 98.1758V94.2542C329.172 94.2198 328.794 94.1854 328.415 94.0822C328.037 93.979 327.693 93.9102 327.315 93.807V93.2566H333.059V93.807C332.887 93.9102 332.715 93.979 332.509 94.0478C332.303 94.1166 331.993 94.1854 331.615 94.2542V98.7606V98.7606ZM338.288 98.3478C338.46 98.5198 338.701 98.623 339.011 98.7606C339.286 98.8638 339.733 98.9326 340.318 98.9326C340.799 98.9326 341.281 98.8638 341.694 98.7606C342.107 98.6574 342.485 98.4854 342.795 98.279C343.104 98.0726 343.345 97.7974 343.552 97.4878C343.724 97.1782 343.827 96.8342 343.827 96.4558C343.827 95.9398 343.655 95.4926 343.276 95.1486C342.898 94.8046 342.451 94.495 341.866 94.2198C341.315 93.9446 340.696 93.6694 340.043 93.4286C339.389 93.1534 338.77 92.8782 338.219 92.4998C337.669 92.1558 337.187 91.7086 336.809 91.227C336.431 90.7454 336.259 90.0918 336.259 89.3694C336.259 88.819 336.362 88.3374 336.603 87.9246C336.843 87.5118 337.153 87.1334 337.566 86.8238C337.979 86.5142 338.495 86.3078 339.079 86.1358C339.664 85.9638 340.318 85.895 341.04 85.895C341.969 85.895 342.829 85.9638 343.586 86.067C344.343 86.1702 344.962 86.3422 345.409 86.5142C345.409 86.7206 345.375 86.9958 345.34 87.271C345.306 87.5462 345.271 87.8558 345.203 88.1654C345.134 88.475 345.099 88.7846 345.031 89.0598C344.962 89.335 344.893 89.6102 344.859 89.8166H344.24L343.311 87.1678C343.035 87.0646 342.691 86.9958 342.279 86.927C341.866 86.8582 341.419 86.8582 340.937 86.8582C340.146 86.8582 339.527 87.0302 339.045 87.4086C338.564 87.787 338.323 88.303 338.323 88.9566C338.323 89.4726 338.495 89.9198 338.873 90.2982C339.252 90.6766 339.733 90.9862 340.283 91.2614C340.834 91.5366 341.453 91.8118 342.107 92.087C342.76 92.3622 343.379 92.6718 343.93 93.0158C344.48 93.3598 344.962 93.7726 345.34 94.2542C345.719 94.7358 345.891 95.3206 345.891 96.043C345.891 96.6278 345.753 97.1438 345.512 97.6254C345.271 98.107 344.893 98.5198 344.412 98.8638C343.93 99.2078 343.345 99.4486 342.657 99.655C341.969 99.827 341.178 99.9302 340.318 99.9302C339.355 99.9302 338.495 99.827 337.738 99.655C336.981 99.483 336.431 99.2422 336.121 99.0358C336.121 98.8294 336.155 98.5542 336.19 98.2446C336.224 97.935 336.259 97.6254 336.327 97.2814C336.362 97.075 336.396 96.8342 336.431 96.6278L336.499 96.3182C336.568 96.0086 336.637 95.7334 336.671 95.527H337.256L338.288 98.3478V98.3478ZM349.056 86.239H354.972V86.7894C354.663 86.8926 354.388 86.9958 354.078 87.0646C353.768 87.1334 353.493 87.2022 353.184 87.271V95.183C353.184 95.871 353.287 96.4214 353.459 96.903C353.631 97.3846 353.906 97.7286 354.25 98.0038C354.594 98.279 355.007 98.4854 355.523 98.5886C356.039 98.6918 356.589 98.7606 357.243 98.7606C358.481 98.7606 359.444 98.4854 360.132 97.935C360.82 97.3846 361.164 96.4558 361.164 95.183V87.4774C360.82 87.3742 360.476 87.271 360.167 87.1678C359.857 87.0646 359.582 86.9614 359.341 86.8238V86.239H364.329V86.7894C364.02 86.927 363.744 87.0646 363.435 87.1678C363.125 87.271 362.816 87.3742 362.506 87.443V95.183C362.506 96.0086 362.368 96.6966 362.093 97.3158C361.818 97.935 361.474 98.3822 360.992 98.795C360.511 99.1734 359.926 99.483 359.272 99.655C358.584 99.827 357.828 99.9302 357.002 99.9302C355.041 99.9302 353.562 99.5518 352.53 98.8294C351.498 98.107 350.982 96.9718 350.982 95.4926V87.271C350.328 87.2022 349.709 87.0302 349.056 86.7894V86.239V86.239Z" fill="black"/>
</svg>
