<svg width="128" height="128" viewBox="0 0 128 128" fill="none" xmlns="http://www.w3.org/2000/svg">
<path d="M78.9165 60.731C71.9685 60.731 66.452 66.043 66.452 66.043C71.0285 55.724 80.5505 56.44 80.5505 56.44H105.83C105.532 54.7833 105.135 53.1459 104.642 51.5365H78.9165C71.9685 51.5365 66.452 56.8485 66.452 56.8485C71.105 46.491 80.5505 47.245 80.5505 47.245H103.067C96.566 32.105 81.5225 21.5 64 21.5C40.528 21.5 21.5 40.5275 21.5 64C21.5 87.4725 40.528 106.5 64 106.5C87.472 106.5 106.5 87.4725 106.5 64C106.5 62.9 106.459 61.81 106.377 60.731H78.9165ZM64.0245 29C75.1665 29 85.093 34.2005 91.5085 42.304H78.771C73.32 42.304 68.2475 46.4415 66.2995 48.2395H48.0485V79.9645H79.796V65.842H99C98.0415 84.3155 82.749 99 64.0245 99C44.681 99 29 83.33 29 64C29 44.67 44.681 29 64.0245 29ZM75.5 66V75.5H66.5C68.687 69.305 72.5135 66.9025 75.5 66ZM62 52.5V75.5H52.5V52.5H62Z" fill="#E50113"/>
</svg>
