<svg width="368" height="128" viewBox="0 0 368 128" fill="none" xmlns="http://www.w3.org/2000/svg">
<path d="M67.2295 55.5142H84.5869V72.8715H67.2295V55.5142Z" fill="#0095DA"/>
<path d="M14 72.1001V46.6426C21.3287 47.0284 32.9002 47.4141 37.1431 40.8568C57.2005 9.22789 79.5722 8.07073 101.173 24.2709V64C100.401 47.0284 86.9009 39.6997 77.2579 38.9283C66.0721 38.1568 56.4291 45.8712 52.5719 54.357C45.2433 70.5572 33.286 70.9429 14 72.1001V72.1001Z" fill="#0095DA"/>
<path d="M353.047 46.257L348.032 42.3998L344.561 46.6427H326.432V47.7998H339.932V64.7715C339.932 66.3144 339.161 67.0858 336.847 67.0858L330.289 66.7001V67.8572C334.532 68.6287 337.232 69.7858 336.847 72.4859C342.632 71.7144 345.332 70.1715 345.332 67.4715C344.947 63.6143 344.947 58.9857 344.947 53.5856V47.7998H351.89C352.661 47.7998 353.047 47.4141 353.047 47.0284C353.433 46.6427 353.433 46.6427 353.047 46.257ZM185.645 40.0855H169.83V40.8569H205.316C206.088 40.8569 206.474 40.4712 206.474 40.0855C206.474 39.6997 206.474 39.6997 206.088 39.6997L201.459 36.2283H207.631C208.402 36.2283 208.788 35.8425 208.788 35.4568C208.788 35.0711 208.788 35.0711 208.402 34.6854L203.002 30.8282L199.916 35.0711H190.273V33.1425C191.431 32.7568 192.202 32.3711 192.202 31.5996C192.202 31.2139 192.202 30.8282 191.816 30.8282L185.645 30.0568V34.6854H167.516V35.8425H185.645V40.0855ZM190.273 36.2283H201.459L199.145 39.6997H190.659V36.2283H190.273ZM223.445 48.5713C223.831 49.3427 224.217 49.7284 225.374 49.7284C227.688 49.7284 229.231 48.1856 229.231 45.4855C229.231 43.1712 227.302 40.8569 223.831 37.7711C222.288 36.614 220.745 35.4568 218.431 34.2997L218.045 35.0711C220.745 38.9283 222.288 43.1712 223.445 47.4141C223.059 48.1856 223.059 48.5713 223.445 48.5713ZM316.789 41.2426C318.332 40.0855 319.489 38.5426 321.032 36.9997C321.804 36.2283 322.575 35.4568 322.961 34.6854C324.504 34.6854 324.889 34.2997 324.889 33.5282C324.889 33.1425 324.504 32.7568 324.118 32.7568L321.032 31.5996L318.718 30.8282C318.332 31.9854 317.561 33.5282 316.789 34.6854C314.861 38.1569 312.161 42.0141 308.689 45.4855L309.461 46.257C312.161 44.7141 314.475 43.1712 316.789 41.2426ZM351.118 35.0711C351.118 34.6854 351.118 34.2997 350.733 34.2997L346.104 30.8282L343.018 34.2997H327.589V35.4568H349.961C350.733 35.8425 351.118 35.4568 351.118 35.0711ZM199.145 50.8856C199.916 50.8856 200.688 50.8856 201.459 50.4999C202.231 50.4999 202.616 49.7284 202.231 49.3427V46.257C203.388 45.4855 203.774 44.7141 203.774 44.3284C203.774 43.9427 203.388 43.5569 203.002 43.5569L199.145 41.6283L198.759 41.2426L197.216 43.9427H179.859L173.687 42.7855V47.0284C173.687 48.957 173.687 50.4999 173.302 51.657C174.845 51.657 176.002 51.2713 177.159 50.8856C177.93 50.8856 178.316 50.1142 177.93 49.7284V49.3427H197.988V50.4999C198.373 50.8856 198.759 50.8856 199.145 50.8856ZM178.316 48.5713V44.7141H198.373V48.5713H178.316ZM234.245 47.0284C234.631 47.4141 235.017 47.4141 235.402 47.4141C236.174 47.4141 236.56 47.4141 236.945 47.0284C238.488 46.257 239.26 45.0998 239.26 42.7855C239.26 40.8569 238.488 38.9283 236.945 36.9997C236.174 36.2283 235.403 35.0711 234.631 34.2997C233.474 33.1425 231.931 31.9854 230.388 30.8282L230.002 31.2139C232.317 35.4568 233.474 40.4712 233.86 45.0998C233.474 46.257 233.86 47.0284 234.245 47.0284ZM237.331 55.8999L236.945 56.6714C241.96 60.5286 245.817 64.3858 248.517 69.0144C249.288 70.5573 250.446 70.943 251.217 70.943C253.146 70.943 254.303 69.4001 254.303 66.7001C253.917 63.2286 248.517 59.3714 237.331 55.8999ZM326.432 43.5569C326.432 43.1712 326.046 42.7855 325.661 42.7855L321.032 40.8569L319.875 40.4712C319.104 42.3998 317.946 44.7141 316.789 46.6427C314.861 50.1142 311.775 53.9713 308.303 57.8285L309.075 58.6C311.389 57.4428 313.318 55.8999 315.246 54.3571V58.2143C315.246 62.0714 315.246 67.0858 314.861 72.8716H316.403C317.175 72.8716 318.332 72.4859 319.104 72.4859C319.875 72.4859 319.875 71.7144 319.875 70.943V52.4285C319.875 52.4285 320.261 52.4285 320.646 52.0428C321.418 51.657 321.804 51.2713 321.804 50.8856C321.804 50.4999 321.418 50.1142 321.032 50.1142H319.104C319.489 49.7284 319.875 49.3427 320.261 48.5713C321.418 47.4141 322.189 45.8712 323.732 44.3284C325.661 44.7141 326.432 44.3284 326.432 43.5569Z" fill="black"/>
<path d="M251.989 48.5716L248.903 52.8145H241.575C245.818 47.8001 249.289 42.0143 251.603 35.8428C253.532 35.8428 254.303 35.4571 254.303 34.6857C254.303 34.3 253.918 33.9142 253.532 33.5285L245.818 30.8285C245.046 37.3857 242.732 44.7144 239.646 52.4288H214.574V53.5859H256.618C257.389 53.2002 257.775 53.2002 257.775 52.8145V52.043L251.989 48.5716ZM296.347 59.7574C299.818 58.6003 302.133 57.0574 303.675 55.9002C305.218 55.9002 305.99 55.5145 305.99 54.7431C305.99 54.3573 305.99 53.9716 305.218 53.5859L301.361 51.2716C301.361 50.8859 301.747 50.5002 301.747 50.1144V35.8428C302.904 35.0714 303.29 34.3 303.29 33.9142C303.29 33.5285 302.904 33.1428 302.518 33.1428L297.504 31.2142L295.961 33.9142H287.475L280.532 32.3714V64.0003C280.532 64.7718 280.147 65.5432 279.375 65.9289L278.989 66.3146H278.604L278.218 66.7004L278.989 68.2432L279.375 68.6289L281.304 72.1004C281.304 72.4861 281.69 72.8719 282.075 72.8719C282.847 72.8719 283.232 72.1004 282.847 70.5575C285.932 69.0147 288.632 67.4718 290.947 65.9289C291.718 65.1575 292.49 64.7718 292.875 64.386C294.418 67.0861 297.118 69.7861 300.975 72.1004C301.747 69.7861 303.29 68.2432 305.604 67.8575L305.99 67.0861C302.133 64.7718 298.661 62.8432 296.347 59.7574ZM285.932 34.6857H296.733V41.6286H285.932V34.6857ZM285.932 42.7858H296.733V49.7287H285.932V42.7858ZM291.332 63.2289L285.932 64.7718V50.8859H289.79C290.175 53.9716 290.561 56.6717 291.718 59.3717C292.104 60.5289 292.49 61.686 293.261 62.8432L291.332 63.2289ZM291.332 51.6573C290.947 51.2716 290.947 50.8859 290.947 50.8859H296.733V52.4288C297.89 52.4288 298.661 52.4288 299.433 52.043H299.818C298.661 53.9716 297.118 56.2859 295.19 58.6003C293.647 57.0574 292.49 54.3573 291.332 51.6573Z" fill="black"/>
<path d="M279.76 63.2289C280.146 62.8432 280.146 62.8432 280.146 62.4574L279.374 61.686H278.989L272.432 64.386V55.9002H280.146C280.532 55.9002 280.532 55.5145 280.532 55.5145C280.532 55.1288 280.532 54.7431 280.146 54.7431L279.374 53.9716L275.903 51.6573L273.589 54.7431H272.432V47.0287H277.832C278.603 47.0287 278.989 47.0287 278.989 46.643C278.989 46.2572 278.989 45.8715 278.603 45.8715L275.132 43.1715L273.203 46.2572H266.26C267.417 44.3286 268.189 42.0143 268.96 39.7H279.76C279.76 39.7 280.146 39.7 280.146 39.3143C280.532 39.3143 280.532 38.9286 280.532 38.9286C280.532 38.5429 280.532 38.1571 280.146 38.1571L279.76 37.7714L276.289 35.4571L273.974 38.5429H270.117C270.889 36.6143 271.274 35.0714 271.66 33.5285C272.817 33.5285 273.203 32.7571 273.203 32.3714C273.203 31.9856 273.203 31.5999 272.817 31.5999L266.646 30.8285C266.26 38.1571 264.717 45.1001 262.017 52.043L262.789 52.4288C264.331 50.8859 265.489 49.343 266.646 47.8001H268.96V55.5145H262.789V56.6717H268.96V65.1575C268.96 66.3146 268.574 67.0861 267.417 67.4718L270.503 72.1004C270.889 72.4861 270.889 72.4861 271.274 72.4861C272.046 72.4861 272.432 71.7147 272.046 70.5575C273.974 67.8575 277.06 65.5432 279.76 63.2289ZM207.245 58.986L202.616 57.0574L200.688 59.7574H196.445L194.131 58.986L190.659 58.2145C190.659 58.986 191.045 60.5289 191.045 62.4574V64.386C191.045 67.8575 191.045 70.1718 190.659 71.7147C191.816 71.7147 192.973 71.7147 194.131 71.329H194.516C195.288 71.329 195.288 70.5576 195.288 70.1718V68.2432H201.459V70.9433C202.616 70.9433 203.774 70.9433 205.316 70.5575C206.088 70.5575 206.088 70.1718 206.088 69.4004C206.088 68.2432 205.702 66.7004 205.702 64.386V61.3003C206.859 60.9146 207.631 60.1431 207.631 59.3717C208.016 59.3717 207.631 59.3717 207.245 58.986ZM201.845 67.8575H195.288V60.5289H201.459V67.8575H201.845Z" fill="black"/>
<path d="M205.318 50.8856L202.232 54.7428H193.361L193.746 54.3571C194.518 53.9713 195.289 53.5856 195.675 53.1999C196.061 52.8142 196.446 52.8142 196.446 52.4285C197.604 52.4285 197.989 52.0427 197.989 51.2713C197.989 50.8856 197.604 50.4999 197.218 50.4999L193.361 49.7284L191.818 49.3427C191.818 50.4999 191.432 52.4285 190.661 54.3571H182.175C183.332 53.9713 184.103 53.1999 184.103 52.0427C184.103 50.1142 182.175 49.3427 178.318 49.7284L177.932 50.1141C178.703 51.2713 179.475 52.0427 179.475 53.1999C179.475 53.5856 179.86 53.9713 180.246 54.3571H165.975V55.5142H174.075C174.075 57.0571 174.075 58.2142 173.689 59.7571H167.132V60.9143H173.303C172.532 64.7715 170.217 68.6287 165.203 71.7144L165.589 72.4859C172.532 70.1715 176.775 66.3143 177.932 60.9143H182.56V62.8429C182.56 64.7715 182.175 65.9286 182.175 66.7001C182.175 67.4715 181.403 68.2429 179.475 68.2429L176.003 67.8572V68.2429C179.089 69.0144 180.632 70.1715 180.632 72.1001C184.489 71.7144 186.803 70.1715 187.189 67.0858C187.189 65.5429 187.189 64.3858 187.575 62.8429V62.0714C188.346 61.6857 188.732 61.3 189.118 61.3C189.503 60.9143 189.503 60.5286 189.503 60.1428C189.503 59.7571 189.503 59.7571 189.118 59.3714H188.732L184.489 57.4428L182.56 60.1428H179.089C179.089 59.3714 179.475 58.6 179.475 57.4428V55.8999H209.175C209.947 55.8999 210.332 55.5142 210.332 55.1285C210.332 54.7428 210.332 54.3571 209.947 54.3571L205.318 50.8856ZM233.475 58.9857C233.475 58.6 233.475 58.6 233.475 58.9857L226.918 55.8999C226.147 57.8285 224.604 60.1428 223.061 62.4572C220.747 65.5429 217.661 68.6287 213.804 72.1001L214.575 72.8716C217.661 71.7144 220.747 70.1715 223.447 68.6287C226.532 66.7001 229.618 64.3858 231.933 61.6857C233.475 61.6857 234.247 61.6857 234.633 60.9143V60.1428C234.247 58.9857 233.861 58.9857 233.475 58.9857Z" fill="black"/>
<path d="M223.447 94.8579L218.432 88.6864L222.675 85.215C223.832 84.4435 224.604 84.0578 224.604 83.6721C224.99 83.2864 225.375 83.2864 225.761 83.2864V82.9006H220.361V83.2864C221.132 83.2864 221.132 83.2864 221.518 83.6721C221.904 83.6721 221.904 84.0578 221.904 84.4435C221.904 84.8292 221.518 85.215 220.747 85.9864L215.347 90.2293V84.4435C215.347 84.0578 215.732 84.0578 215.732 84.0578C216.118 84.0578 216.504 83.6721 216.889 83.6721V83.2864H209.947H210.332C210.718 83.2864 211.104 83.2864 211.104 83.6721C211.489 83.6721 211.489 84.0578 211.489 84.0578V96.0151C211.489 96.4008 211.104 96.4008 211.104 96.7865C210.718 96.7865 210.332 97.1722 209.947 97.1722H209.561V97.558H216.889V97.1722C216.118 97.1722 216.118 97.1722 215.732 96.7865C215.347 96.7865 215.347 96.4008 215.347 96.4008V91.0007L215.732 90.615L218.818 94.8579C219.59 95.6294 219.59 96.4008 219.59 96.4008V96.7865C219.204 96.7865 219.204 96.7865 218.818 97.1722V97.558H226.147V97.1722C225.761 97.1722 225.375 97.1722 224.99 96.7865C224.604 96.4008 224.218 95.6294 223.447 94.8579ZM192.203 94.4722L187.189 82.9006H186.803L185.646 85.9864L182.175 94.4722C181.403 95.6294 181.403 96.4008 181.018 96.4008C180.632 96.7865 180.246 97.1722 179.86 97.1722V97.558H184.489V97.1722C183.718 97.1722 183.718 96.7865 183.332 96.7865C182.946 96.7865 182.946 96.4008 182.946 96.0151C182.946 95.6294 182.946 95.2437 183.332 94.8579L184.103 93.3151H189.118L189.889 95.2437C190.275 95.6294 190.275 96.0151 190.275 96.0151V96.4008C190.275 96.7865 190.275 96.7865 189.889 97.1722C189.503 97.1722 189.118 97.558 188.732 97.558H187.575V97.9437H194.518V97.558C194.132 97.558 193.746 97.1722 193.361 97.1722C192.975 96.4008 192.589 95.6294 192.203 94.4722ZM183.718 92.5436L185.646 87.5293L187.961 92.5436H183.718ZM174.846 89.8436C176.003 89.4579 176.775 89.0722 177.546 88.6864C177.932 88.3007 178.318 87.5293 178.318 86.7578C178.318 85.9864 178.318 85.6007 177.546 84.8292C177.16 84.0578 176.775 83.6721 176.003 83.6721C175.232 83.2864 174.46 83.2864 172.917 83.2864H165.203C165.975 83.2864 166.36 83.2864 166.746 83.6721C167.132 83.6721 167.132 84.0578 167.132 84.0578V96.4008C167.132 96.7865 166.746 96.7865 166.746 96.7865C166.36 96.7865 165.975 97.1722 165.203 97.1722V97.558H172.917C174.846 97.558 176.389 97.1722 177.16 96.4008C177.932 95.6294 178.318 94.8579 178.318 93.7008C178.318 92.9293 177.932 91.7722 177.16 91.3865C177.16 90.2293 176.003 90.2293 174.846 89.8436ZM170.989 84.0578C171.76 84.0578 172.532 84.0578 172.917 84.4435C173.303 84.8292 173.689 85.215 174.075 85.215C174.46 85.6007 174.46 85.9864 174.46 86.7578C174.46 87.5293 174.46 87.915 174.075 88.3007C173.689 88.6864 173.303 89.0722 172.917 89.0722C172.146 89.4579 171.76 89.4579 170.989 89.4579V84.0578ZM174.846 95.2437L173.689 96.4008C173.303 96.4008 173.303 96.7865 172.917 96.7865H171.76C171.375 96.7865 170.989 96.7865 170.989 96.4008C170.603 96.0151 170.603 96.0151 170.603 95.6294V90.2293H172.917C173.689 90.615 174.075 91.0007 174.075 91.3865C174.46 91.7722 174.46 92.5436 174.46 93.3151C175.232 94.0865 174.846 94.4722 174.846 95.2437ZM204.546 83.2864C205.318 83.2864 206.089 83.6721 206.089 84.0578C206.475 84.4435 206.475 84.8292 206.475 85.9864V92.1579L199.532 83.2864H194.518C194.904 83.2864 195.289 83.2864 195.675 83.6721C196.061 83.6721 196.061 84.0578 196.446 84.4435L196.832 84.8292V94.8579C196.832 95.6294 196.832 96.0151 196.446 96.4008C196.061 96.7865 195.675 97.1722 194.903 97.1722V97.558H199.918V97.1722H199.146C198.761 97.1722 198.375 96.7865 197.989 96.7865C197.604 96.4008 197.604 96.0151 197.604 95.2437V85.9864L207.247 97.9437H207.632V85.9864C207.632 85.215 208.018 84.8292 208.018 84.4435C208.018 84.0578 208.018 84.0578 208.404 83.6721C208.789 83.6721 209.175 83.2864 209.561 83.2864V82.9006L204.546 83.2864ZM238.104 82.9006C235.79 82.9006 234.247 83.6721 232.704 84.8292C231.161 86.3721 230.39 87.915 230.39 90.2293C230.39 92.1579 231.161 93.7008 232.318 95.2437C233.475 97.1722 235.404 97.9437 238.104 97.9437C240.804 97.9437 242.733 97.1722 243.89 95.2437C245.047 93.7008 245.433 92.1579 245.433 90.615C245.433 88.6864 244.661 86.7578 243.504 85.215C242.347 83.6721 240.418 82.9006 238.104 82.9006ZM241.575 94.0865C241.19 94.8579 240.804 95.6294 240.033 96.0151C239.647 96.4008 238.875 96.7865 238.104 96.7865C236.947 96.7865 236.175 96.4008 235.79 95.6294C235.018 94.4722 234.633 92.5436 234.633 90.2293C234.633 88.3007 235.018 86.7578 235.404 85.6007C236.175 84.0578 236.947 83.6721 238.49 83.6721C239.261 83.6721 240.033 83.6721 240.418 84.4435C241.19 84.8292 241.576 85.215 241.961 86.3721C242.347 87.1436 242.347 88.6864 242.347 90.615C241.961 91.7722 241.961 92.9293 241.575 94.0865ZM314.091 83.2864H314.476C314.862 83.2864 315.248 83.2864 315.248 83.6721C315.634 83.6721 315.634 84.0578 315.634 84.0578V96.0151C315.634 96.4008 315.248 96.4008 315.248 96.7865C314.862 96.7865 314.862 97.1722 314.476 97.1722H314.091V97.558H321.419V97.1722H321.034C320.648 97.1722 320.262 97.1722 319.876 96.7865C319.491 96.7865 319.491 96.4008 319.491 96.4008V84.4435C319.491 84.0578 319.876 84.0578 319.876 83.6721C320.262 83.6721 320.648 83.2864 321.034 83.2864H321.419V82.9006L314.091 83.2864ZM311.391 94.8579L307.533 89.0722L310.233 85.9864C311.005 85.215 311.391 84.4435 311.776 84.4435C312.162 84.0578 312.548 84.0578 312.548 84.0578C312.934 84.0578 313.319 83.6721 313.319 83.6721V83.2864H308.305C308.691 83.2864 309.076 83.2864 309.076 83.6721C309.076 83.6721 309.462 83.6721 309.462 84.0578V84.4435C309.462 84.8292 309.076 85.6007 308.305 86.3721L306.762 88.3007L304.833 85.6007L304.062 84.4435V84.0578C304.062 84.0578 304.062 83.6721 304.448 83.6721C304.833 83.6721 304.833 83.2864 305.605 83.2864H305.991V82.9006H299.048V83.2864C299.433 83.2864 299.819 83.2864 299.819 83.6721L300.205 84.0578C300.205 84.0578 300.591 84.8292 301.362 85.6007L304.833 91.0007L302.133 94.4722C301.362 95.6294 300.591 96.4008 300.205 96.4008C299.819 96.7865 299.433 96.7865 298.662 97.1722V97.558H304.062V97.1722H303.291C302.905 97.1722 302.519 96.7865 302.519 96.7865C302.519 96.4008 302.133 96.4008 302.133 96.0151C302.133 95.6294 302.519 95.2437 303.291 94.4722L305.219 91.7722L307.148 94.8579C307.533 95.6294 307.919 95.6294 307.919 96.0151V96.4008L307.533 96.7865C307.148 96.7865 306.762 96.7865 306.376 97.1722V97.558H313.319V97.1722C312.934 97.1722 312.548 96.7865 312.548 96.7865C312.548 96.4008 311.776 95.6294 311.391 94.8579ZM331.834 83.2864C332.605 83.2864 332.991 83.6721 333.377 84.0578C333.762 84.4435 333.762 84.8292 333.762 85.9864V92.1579L326.819 83.2864H321.805C322.191 83.2864 322.577 83.2864 322.577 83.6721C322.962 83.6721 323.348 84.0578 323.348 84.4435L323.734 84.8292V94.8579C323.734 95.6294 323.348 96.0151 323.348 96.4008C322.962 96.7865 322.577 96.7865 321.805 96.7865V97.1722H326.819V96.7865H326.434C326.048 96.7865 325.662 96.4008 325.277 96.4008C324.891 96.0151 324.505 95.6294 324.505 94.8579V85.6007L334.148 97.558H334.534V84.0578C334.534 83.6721 334.92 83.6721 334.92 83.2864C335.305 83.2864 335.691 82.9006 336.077 82.9006V82.5149L331.834 83.2864ZM246.59 83.2864H246.976C247.361 83.2864 247.747 83.2864 247.747 83.6721C248.133 83.6721 248.133 84.0578 248.133 84.0578V96.0151C248.133 96.4008 247.747 96.4008 247.747 96.4008C247.361 96.7865 246.976 96.7865 246.59 96.7865H246.204V97.1722H253.533V96.7865H253.147C252.761 96.7865 252.376 96.7865 252.376 96.4008C251.99 96.4008 251.99 96.0151 251.99 96.0151V90.615H252.376C253.147 90.615 253.919 91.0007 254.304 91.3865C255.076 91.7722 255.076 92.5436 255.461 94.0865H255.847V86.7578H255.461C255.461 87.5293 255.076 88.3007 254.69 88.6864C254.304 89.0722 253.919 89.4579 253.533 89.4579C253.147 89.8436 252.761 89.8436 251.99 89.8436H251.604V84.0578H255.076C255.847 84.4435 256.233 84.4435 257.004 84.8292C257.39 85.215 257.776 85.9864 257.776 87.1435H258.161V82.9006L246.59 83.2864ZM346.491 91.3865C347.263 91.7722 347.263 91.7722 347.648 92.1579C348.034 92.1579 348.034 92.5436 348.034 92.5436C348.034 92.5436 348.42 92.9293 348.42 93.7008V96.7865C348.034 97.1722 347.648 97.1722 347.263 97.1722H346.105C344.948 97.1722 344.177 96.7865 343.405 96.4008C342.634 96.0151 342.248 95.2437 341.862 94.0865C341.477 93.3151 341.477 91.7722 341.477 90.615C341.477 89.4579 341.477 88.3007 341.862 87.1435C342.248 85.9864 342.634 85.215 343.405 84.8292C344.177 84.0578 344.948 84.0578 346.105 84.0578C347.263 84.0578 348.034 84.4435 349.191 85.215C349.963 85.9864 350.734 87.1436 351.12 88.3007H351.505V83.2864H351.12C351.12 83.6721 350.734 84.0578 350.734 84.0578L350.348 84.4435C350.348 84.4435 349.577 84.4435 349.191 84.0578C348.42 83.6721 348.034 83.6721 347.648 83.6721C347.263 83.6721 346.491 83.2864 345.72 83.2864C343.405 83.2864 341.477 84.0578 339.934 85.6007C338.391 87.1436 337.62 88.6864 337.62 91.0007C337.62 92.1579 338.005 93.3151 338.391 94.0865C339.162 94.8579 339.548 95.6294 340.32 96.0151C341.091 96.7865 341.862 97.1722 342.634 97.558C343.405 97.9437 344.562 98.3294 346.105 98.3294C347.263 98.3294 348.034 98.3294 349.191 97.9437C350.348 97.558 351.12 97.558 352.277 97.1722V93.3151C352.277 92.9293 352.663 92.9293 352.663 92.5436C352.663 92.5436 353.434 92.1579 353.82 92.1579V91.7722H346.491V91.3865Z" fill="black"/>
<path d="M295.961 94.4718L290.947 82.9003H290.561L289.404 85.6003L285.547 94.0861C284.775 95.2433 284.775 96.0147 284.39 96.0147C284.004 96.4004 283.618 96.7861 283.232 96.7861V97.1719H287.861V96.7861C287.09 96.7861 286.704 96.7861 286.318 96.4004C285.932 96.0147 285.932 95.629 285.932 95.629C285.932 95.2433 285.932 94.8576 286.318 94.4718L287.09 92.929H292.49L293.261 94.8576C293.647 95.2433 293.647 95.629 293.647 95.629V96.0147C293.647 96.0147 293.647 96.4004 293.261 96.4004C292.875 96.4004 292.875 96.7861 292.104 96.7861H291.718V97.1719L298.662 97.1722L298.661 96.7861C298.275 96.7861 297.89 96.4004 297.504 96.4004C297.118 96.4004 296.733 95.629 295.961 94.4718ZM287.475 92.5432L289.404 87.5289L291.333 92.5432H287.475ZM267.418 83.286H268.189C268.575 83.286 268.961 83.286 269.347 83.6717C269.732 83.6717 269.732 84.0574 269.732 84.0574V96.0147C269.732 96.4004 269.347 96.7861 269.347 96.7861C268.961 96.7861 268.961 97.1719 268.575 97.1719C268.189 97.1719 267.804 97.1719 267.418 96.7861C267.032 96.7861 267.032 96.4004 267.032 96.4004C267.032 96.4004 267.032 96.0147 267.418 95.629C267.804 95.2433 267.804 95.2433 267.804 94.8576V94.4718C267.804 94.0861 267.804 93.7004 267.418 93.3147C267.032 92.929 266.646 92.929 266.261 92.929C265.875 92.929 265.489 92.929 265.104 93.3147C264.718 93.7004 264.718 94.0861 264.718 94.4718C264.718 95.2433 265.104 96.0147 265.875 96.4004C266.646 97.1719 267.418 97.1719 268.575 97.1719C269.732 97.1719 270.504 96.7861 271.275 96.4004C272.047 96.0147 272.432 95.629 272.818 94.8576C273.204 94.0861 273.204 93.3147 273.204 91.7718V83.6717C273.204 83.286 273.589 83.286 273.589 82.9003C273.975 82.9003 274.361 82.5145 274.361 82.5145H274.747V82.1288L267.418 83.286ZM275.518 83.286H275.904C276.289 83.286 276.675 83.286 277.061 83.6717C277.447 83.6717 277.447 84.0574 277.447 84.0574V96.0147C277.447 96.4004 277.061 96.4004 277.061 96.7861C276.675 96.7861 276.289 97.1719 275.904 97.1719H275.518V97.5576H282.847V97.1719H282.461C282.075 97.1719 281.69 97.1719 281.69 96.7861C281.304 96.7861 281.304 96.4004 280.918 96.4004V84.4431C280.918 84.0574 281.304 84.0574 281.69 83.6717L282.461 83.286H282.847V82.9003L275.518 83.286Z" fill="black"/>
<path d="M137.431 55.9V81.3575C130.488 80.9718 118.531 80.586 114.288 87.1433C94.2303 118.772 71.8586 119.929 50.2583 103.729V64.3858C51.0297 81.3575 64.5299 88.6862 74.1729 89.4576C85.3587 90.229 95.0017 82.5146 98.8589 74.0288C106.188 57.4429 118.145 57.0572 137.431 55.9V55.9Z" fill="#51A283"/>
</svg>
