<svg width="128" height="128" viewBox="0 0 128 128" fill="none" xmlns="http://www.w3.org/2000/svg">
<path d="M57.6445 58.4242H69.6566V70.4395H57.6445V58.4242Z" fill="#0095DA"/>
<path d="M21 69.8378V52.418C26.1069 52.7188 33.9144 53.0196 36.9191 48.5143C50.7359 26.5859 66.0534 25.9876 81.0701 37.1005V64.4334C80.4717 52.7188 71.1603 47.6119 64.5527 47.0103C56.7419 46.4087 50.1343 51.8165 47.4304 57.525C42.3268 68.6379 34.2152 68.9354 21 69.8378H21Z" fill="#0095DA"/>
<path d="M106 58.7249V76.1446C101.194 75.8438 93.0858 75.5463 90.0812 80.0516C76.2676 101.977 60.9501 102.578 45.9302 91.4621V64.4334C46.5318 76.1446 55.8432 81.2515 62.4508 81.8531C70.2583 82.4547 76.8692 77.047 79.5698 71.3385C84.3759 59.6272 92.785 59.3264 106 58.7249Z" fill="#51A283"/>
</svg>
