<svg width="128" height="128" viewBox="0 0 128 128" fill="none" xmlns="http://www.w3.org/2000/svg">
<path d="M102.948 82.1855C103.144 81.8823 104.372 79.4398 104.457 78.807C104.385 79.3047 103.573 80.9267 103.17 81.7323C103.048 81.9757 102.963 82.1448 102.948 82.1855Z" fill="#C23033"/>
<path d="M46.5521 96.7539C46.4008 96.7645 45.9508 96.7962 46.171 96.5817L46.1667 96.5773C46.1667 96.3119 46.6117 96.5773 46.5948 96.7514C46.5877 96.7514 46.5726 96.7524 46.5521 96.7539Z" fill="#C23033"/>
<path fill-rule="evenodd" clip-rule="evenodd" d="M105.357 75.9783C105.357 75.7633 105.429 75.5482 105.502 75.3331C105.546 75.2006 105.591 75.0679 105.619 74.9353C105.911 74.2576 106.11 73.5436 106.21 72.8124H106.392C106.145 72.3913 106.227 72.097 106.316 71.7765C106.384 71.5338 106.455 71.2761 106.392 70.9369L106.561 70.8165C106.518 70.9059 106.496 71.0036 106.496 71.1025C106.496 71.2015 106.518 71.2992 106.561 71.3886C106.561 71.1181 106.592 70.8509 106.622 70.5853C106.652 70.323 106.682 70.0621 106.682 69.8013C106.733 69.7717 106.775 69.7297 106.805 69.6792C106.834 69.6287 106.85 69.5715 106.851 69.5131C106.706 69.6576 106.693 69.5709 106.687 69.5305C106.686 69.5203 106.685 69.5131 106.682 69.5131C106.795 69.2744 106.887 69.0269 106.96 68.7732C106.971 68.3709 106.981 67.9686 106.987 67.5662C107.005 67.5074 107.001 67.4269 106.994 67.3623C106.993 67.371 106.992 67.3797 106.99 67.3883C107.038 64.1308 106.912 60.8728 106.613 57.6279C106.482 55.3775 105.71 53.2457 104.947 51.1384C104.576 50.1119 104.206 49.0913 103.914 48.0656C103.823 47.7109 103.708 47.3631 103.567 47.0246C103.54 46.9492 103.508 46.8234 103.474 46.6926C103.432 46.5322 103.389 46.3642 103.351 46.2719C103.216 45.9805 103.04 45.8287 102.876 45.6874C102.776 45.6013 102.68 45.5191 102.601 45.4115C102.154 44.647 101.772 43.8471 101.458 43.0199C101.333 42.7902 101.194 42.5837 101.056 42.3785C100.915 42.1686 100.774 41.96 100.652 41.7294C100.497 41.3097 100.295 40.9086 100.05 40.5336C99.6368 39.9321 99.2621 39.3058 98.9276 38.6581C98.5683 38.0566 98.1658 37.4816 97.7232 36.9375C97.6645 36.8811 97.5629 36.8329 97.455 36.7819C97.3161 36.716 97.1669 36.6454 97.0864 36.5461C96.8945 36.3112 96.7404 36.0294 96.5853 35.7456C96.4393 35.4785 96.2923 35.2096 96.1116 34.976C95.7851 34.6712 95.4424 34.3841 95.0849 34.1157C94.9225 33.9448 94.7127 33.7443 94.4885 33.5301C94.1145 33.1727 93.7003 32.7769 93.3997 32.4166C93.0732 31.9778 92.6983 31.5767 92.282 31.2207C91.9006 30.9547 91.5346 30.6675 91.1859 30.3604C91.1145 30.3051 91.038 30.2441 90.9574 30.18L90.9556 30.1785C90.4105 29.7446 89.6821 29.1646 89.1281 29.1646C88.9539 29.0677 88.8419 28.8509 88.7215 28.6175C88.6173 28.4157 88.5067 28.2015 88.344 28.0419C88.117 27.8193 87.881 27.7245 87.6125 27.6167C87.4658 27.5577 87.3095 27.4949 87.1396 27.4053C86.942 27.301 86.7261 27.1452 86.4992 26.9813C86.1738 26.7464 85.8257 26.4951 85.476 26.3557C85.1795 26.2375 84.9543 26.1923 84.7509 26.1515C84.5471 26.1106 84.365 26.074 84.1547 25.9729C83.9419 25.8705 83.7835 25.7372 83.6289 25.6071C83.4783 25.4803 83.3312 25.3566 83.141 25.2674C82.327 24.8111 81.4518 24.4722 80.5416 24.2608C80.0791 23.9982 79.5797 23.8054 79.06 23.6887C78.4304 23.5264 77.8035 23.2999 77.1779 23.0738C76.6928 22.8986 76.2085 22.7236 75.7242 22.5789C74.931 22.374 74.1042 22.1961 73.2685 22.0164C72.5433 21.8604 71.8113 21.7029 71.0887 21.5251C70.7063 21.5251 70.3449 21.4517 69.9866 21.3791C69.6345 21.3077 69.2855 21.2369 68.9226 21.2369C68.2816 21.2369 67.5964 21.1796 66.9088 21.1221C66.3046 21.0716 65.6985 21.0209 65.1189 21.0089C64.3416 20.9927 63.6496 21.0019 62.9647 21.011C62.5579 21.0164 62.1536 21.0218 61.7354 21.0218C59.2275 21.1313 56.7355 21.4756 54.2927 22.0498C52.5625 22.4578 50.8607 22.9765 49.198 23.6027C48.2702 23.9328 47.3579 24.3776 46.4462 24.8222C45.3144 25.3741 44.1834 25.9256 43.0246 26.2568C42.2087 26.6896 41.4685 27.2503 40.8325 27.9172C40.6929 28.1075 40.5483 28.2779 40.4088 28.4423C40.2582 28.6198 40.1136 28.7902 39.9877 28.971C39.9054 29.0915 39.3508 29.8916 39.2425 29.8916C39.1424 30.1282 38.9518 30.3063 38.7588 30.4867C38.6009 30.6341 38.4414 30.7831 38.3284 30.967C38.1087 31.4232 37.9625 31.9109 37.8952 32.4123C37.8303 32.6482 37.7326 32.8741 37.6049 33.0833C37.5588 33.1875 37.5126 33.216 37.4679 33.2436C37.4204 33.2729 37.3745 33.3013 37.332 33.4188C37.2762 33.5733 37.2961 33.633 37.3146 33.6889C37.3235 33.7155 37.332 33.7412 37.332 33.7759C37.0019 34.6791 36.7441 35.6068 36.5609 36.5504C36.4331 37.5388 36.4682 38.5412 36.6649 39.5184C36.8277 40.8059 37.2986 42.036 38.0382 43.1059C38.7047 44.1662 39.5153 45.1302 40.4469 45.9707C41.1358 46.4751 41.8946 46.8778 42.6996 47.1666C43.0791 47.3726 43.4819 47.5329 43.8997 47.644C44.3746 47.7679 44.8583 47.8556 45.3466 47.9064C45.5191 47.9064 45.7902 47.9417 46.0996 47.982C46.8708 48.0822 47.8794 48.2134 48.1886 47.9064C48.2409 47.9085 48.2931 47.8987 48.3411 47.8779C48.3892 47.857 48.4318 47.8256 48.4658 47.786C48.8991 47.9064 49.042 47.786 49.042 47.3558C49.2591 47.4443 49.3799 47.5737 49.4893 47.6909C49.6724 47.8871 49.8237 48.0491 50.3417 47.9279C50.4779 47.8969 50.6084 47.8121 50.7409 47.726C50.8653 47.6452 50.9915 47.5632 51.1258 47.5236C51.2859 47.4764 51.3694 47.5353 51.4414 47.5861C51.4942 47.6233 51.5408 47.6561 51.6067 47.6397C52.0793 47.5229 52.5308 47.3343 52.9454 47.0805C53.9167 46.4508 54.7921 45.6859 55.5447 44.8093C55.5972 44.7555 55.6604 44.6858 55.7311 44.6079C56.022 44.287 56.439 43.8272 56.749 43.7684C56.9611 43.7281 57.232 43.8258 57.4986 43.9219C57.7167 44.0005 57.9319 44.0781 58.1094 44.0781C58.6483 44.0781 59.0941 43.8539 59.5348 43.6322C59.8947 43.4512 60.2512 43.2719 60.6524 43.2178C60.9929 43.1653 61.3736 43.1927 61.7598 43.2206C62.1648 43.2498 62.5758 43.2794 62.9528 43.2178C63.7513 43.1021 64.5553 43.0275 65.3615 42.9941C67.5069 42.8746 69.6541 43.1953 71.6692 43.9361C72.3633 44.3851 73.1172 44.7355 73.909 44.9771C75.1888 45.3787 76.3696 46.0425 77.3748 46.9257C77.8101 47.2293 78.1764 47.6014 78.547 47.9778C78.8328 48.2681 79.1211 48.561 79.4456 48.827C79.6439 48.984 79.8653 49.0976 80.0903 49.2131C80.2782 49.3095 80.4686 49.4071 80.6499 49.5324C80.9005 49.7055 81.0364 49.9161 81.1867 50.149C81.2755 50.2865 81.3693 50.4319 81.4947 50.582C81.7306 50.862 81.9868 51.1132 82.2453 51.3665C82.6181 51.732 82.9954 52.1019 83.3229 52.5693C83.7429 53.2676 84.0857 54.0089 84.3453 54.7803C84.5714 55.2473 84.9062 55.6405 85.241 56.0339C85.5477 56.3941 85.8545 56.7546 86.0782 57.172C86.6626 58.2772 87.1189 59.4447 87.4385 60.6519C87.885 62.9651 88.1271 65.3127 88.162 67.6678C88.2836 69.5612 88.035 71.4601 87.4299 73.2598C86.8682 75.0504 86.125 76.7799 85.2118 78.4216C84.4825 79.5207 83.6777 80.5685 82.803 81.5574C82.2404 82.2926 81.5652 82.842 80.8994 83.3839C80.3963 83.7933 79.8986 84.1985 79.4586 84.6761C78.2319 86.0066 76.7914 87.1259 75.1957 87.9883C73.5863 88.7193 71.9238 89.329 70.2223 89.8121C70.1327 89.8121 70.0389 89.8787 69.9498 89.942C69.8837 89.989 69.8202 90.034 69.763 90.0487C69.4723 90.0696 69.1831 90.107 68.8966 90.1605C68.6301 90.2268 68.3681 90.3101 68.1125 90.41C67.2522 90.8232 66.3125 91.0476 65.3572 91.0682C64.8761 91.033 64.3981 91.0535 63.9259 91.0738C63.416 91.0957 62.9125 91.1173 62.4199 91.0682C61.9467 90.9779 61.4674 90.9218 60.986 90.9004C60.5065 91.0199 60.0205 91.1118 59.5303 91.1757C57.8766 91.069 56.2379 90.7966 54.6393 90.3627C54.2236 90.2532 53.8331 90.0947 53.4436 89.9367C52.9765 89.7472 52.5108 89.5583 52.0053 89.4551C51.1665 89.2385 50.3575 88.9207 49.5965 88.5087C49.2825 88.3681 48.9934 88.1527 48.7045 87.9375C48.26 87.6063 47.8161 87.2756 47.2831 87.2183C46.668 87.1107 45.299 86.8957 45.299 87.756C45.4192 87.756 45.6437 87.6234 45.8359 87.5098C45.9898 87.4189 46.123 87.3401 46.1654 87.3516C46.2318 87.3762 46.2911 87.4166 46.3381 87.4692C46.3851 87.5218 46.4184 87.585 46.435 87.6534C46.4517 87.7217 46.4512 87.7931 46.4337 87.8612C46.4162 87.9293 46.382 87.9922 46.3344 88.0442C45.9376 88.1301 45.5268 88.1301 45.13 88.0442C44.9475 87.9525 44.9621 87.8426 44.9779 87.723C44.9955 87.5899 45.0148 87.445 44.7661 87.3C44.7661 87.5538 44.034 87.7087 43.878 87.6613C43.7716 87.6291 43.764 87.4847 43.7589 87.388C43.7565 87.3429 43.7547 87.3082 43.7437 87.3C44.1017 87.4456 43.0211 86.7939 43.1869 87.0471C43.1268 86.9575 43.0643 86.9139 43.0168 86.8808C42.9141 86.8093 42.8815 86.7865 43.0939 86.4526C43.0027 86.6008 43.7923 86.1935 43.7654 86.1771C43.8473 86.1726 43.9164 86.106 43.9906 86.0345C44.0768 85.9513 44.1699 85.8615 44.2982 85.8547C44.456 85.8463 44.5607 85.9562 44.6348 86.034C44.6747 86.0759 44.7057 86.1085 44.7315 86.1085C44.7528 86.1085 44.7782 86.1447 44.8093 86.1891C44.8854 86.2977 44.9956 86.455 45.1647 86.2504C45.7062 85.5923 44.6795 85.2439 44.2982 85.1492C43.5403 84.9335 43.5308 85.0469 43.5094 85.3044C43.4941 85.4884 43.4727 85.746 43.1675 86.0095C42.1176 86.938 42.9663 85.0368 43.1443 84.638L43.1675 84.5857C43.2957 84.0341 43.1945 83.9481 42.9754 83.7621C42.9057 83.7029 42.8242 83.6337 42.7343 83.5362C42.7067 83.5003 42.6166 83.4707 42.5192 83.4386C42.4179 83.4053 42.3086 83.3693 42.2534 83.3211C42.2097 83.2829 42.2013 83.1957 42.1917 83.0965C42.1775 82.9498 42.1608 82.7769 42.0238 82.6974C41.8168 82.5408 41.6564 82.5392 41.5101 82.5377C41.3348 82.536 41.1796 82.5344 40.9884 82.2672C40.9402 82.199 40.9314 82.0788 40.922 81.9495C40.9034 81.6957 40.8824 81.4069 40.5552 81.4069C40.3941 81.7626 40.3001 82.1446 40.2779 82.5339C40.4327 83.0442 40.6597 83.019 40.9443 82.9874C41.106 82.9695 41.2862 82.9495 41.4823 83.0243C41.772 83.2243 42.0181 83.4803 42.2058 83.777C42.2058 84.3331 41.3049 84.3137 40.8511 84.3039C40.7994 84.3028 40.7536 84.3018 40.7155 84.3018C40.5706 84.2186 40.653 84.0862 40.7468 83.9354C40.8663 83.7435 41.0042 83.5219 40.7155 83.334C40.4827 83.2047 40.0629 83.7178 39.9638 83.8916C39.9565 83.8995 39.95 83.9127 39.9443 83.9319C39.9474 83.9223 39.9541 83.9086 39.9638 83.8916C40.0739 83.7707 40.3494 84.8705 40.287 84.7751L40.2779 84.7578C40.2815 84.7655 40.2845 84.7713 40.287 84.7751C40.482 85.1406 40.7205 85.3222 40.9806 85.5203C41.1413 85.6427 41.3102 85.7714 41.4823 85.9536C41.6026 86.0646 41.6836 86.2179 41.7657 86.3737C41.8492 86.5319 41.934 86.6926 42.0628 86.8139C42.341 87.016 42.6303 87.2027 42.9292 87.3731C43.1801 87.5607 43.4431 87.7458 43.7061 87.9309C44.2152 88.2892 44.7246 88.6477 45.1473 89.0249C45.4105 89.2598 45.5102 89.4105 45.5836 89.5216C45.689 89.681 45.7402 89.7585 46.1438 89.8852C46.2607 89.9197 46.3669 89.906 46.4739 89.8921C46.6207 89.8731 46.7692 89.8539 46.9496 89.9584C47.0891 90.0392 47.2199 90.2241 47.3607 90.4231C47.5347 90.669 47.7239 90.9364 47.9633 91.0553C48.3272 91.2144 48.6868 91.3908 49.0334 91.5844C49.3533 91.7979 49.708 91.9551 50.0818 92.0489C50.6265 92.2199 51.1509 92.4492 51.6457 92.7329C51.8826 92.8447 52.1291 92.9354 52.3822 93.0039C52.5932 92.9349 52.8209 92.9349 53.032 93.0039C53.2483 93.1235 53.4337 93.2913 53.5735 93.4942C54.295 93.7506 55.0296 93.9689 55.7743 94.1481C56.5907 94.383 57.4232 94.5584 58.2653 94.6729C59.0329 94.7853 59.8171 94.8201 60.5974 94.8548C61.31 94.8865 62.0196 94.918 62.7102 95.0084C64.4697 95.0644 66.231 95.004 67.9825 94.8277V95.0084C66.9862 95.0084 65.9565 95.1969 64.9283 95.3851C64.1055 95.5357 63.2836 95.6861 62.4806 95.7396C62.1725 95.7396 61.8688 95.7083 61.5652 95.6769C61.1942 95.6386 60.8232 95.6003 60.4444 95.6192C60.0987 95.705 59.7437 95.7483 59.3874 95.7483C59.2679 95.7483 59.139 95.6516 59.0154 95.5588C58.9015 95.4733 58.792 95.3912 58.6985 95.3912C58.4954 95.3912 58.2571 95.4846 58.0254 95.5753C57.5162 95.7747 57.0393 95.9615 57.0393 95.1159C56.9678 95.2179 56.9374 95.3769 56.9097 95.5219C56.872 95.7193 56.8393 95.8905 56.7144 95.8558C56.4588 95.7923 56.4022 95.6156 56.3448 95.4364C56.2854 95.2512 56.2252 95.0633 55.9433 94.9955C55.7719 94.9482 55.6136 95.0827 55.4504 95.2214C55.3166 95.3351 55.1795 95.4516 55.0292 95.473C54.6723 95.473 54.5802 95.381 54.449 95.25C54.3796 95.1807 54.2992 95.1004 54.1627 95.017C54.093 94.9747 54.0856 94.8937 54.0782 94.8128C54.0691 94.7128 54.06 94.613 53.9331 94.5868C53.7665 94.5525 53.7276 94.6993 53.7056 94.7825C53.6973 94.814 53.6913 94.8363 53.6818 94.8363C53.1491 94.8363 52.7796 94.5441 52.3875 94.2338C52.1067 94.0118 51.8144 93.7805 51.4421 93.6405C51.272 93.5842 51.0426 93.6092 50.8142 93.6341C50.6061 93.6568 50.3988 93.6795 50.2377 93.6405C49.8225 93.5901 49.8224 93.5361 49.8222 93.4258C49.8221 93.3289 49.8218 93.1887 49.5402 92.9695L48.7344 92.6124C48.7344 92.6124 48.5655 92.2769 48.4095 92.2167C48.184 92.1412 48.0326 92.2232 47.8685 92.312C47.7522 92.375 47.6294 92.4415 47.4694 92.4576C47.235 92.4811 46.9556 92.317 46.7026 92.1682C46.5395 92.0724 46.3873 91.9829 46.2651 91.9543C46.1708 91.9322 46.0401 91.9376 45.9079 91.9431C45.6028 91.9557 45.2898 91.9687 45.3986 91.6446C45.4874 91.3802 45.6504 91.4167 45.7945 91.4489C45.9036 91.4733 46.0018 91.4953 46.0485 91.3822C46.2789 90.8699 45.8485 90.8837 45.3946 90.8981C45.2769 90.9019 45.1575 90.9057 45.0477 90.9004C44.5092 90.7956 43.951 90.8681 43.4578 91.1069C43.3554 91.1831 43.2968 91.3083 43.2394 91.431C43.1706 91.5783 43.1033 91.722 42.9639 91.7736C42.7952 91.8361 42.7039 91.7805 42.6015 91.7181C42.5487 91.686 42.4931 91.6521 42.4224 91.6317C42.3141 91.5155 42.1971 91.4037 42.0758 91.2962H41.6902C41.3897 91.1754 41.1342 90.992 40.8811 90.8104C40.6563 90.649 40.4333 90.489 40.1826 90.3756C39.9015 90.2074 39.5693 90.1441 39.2455 90.1969C38.9216 90.2497 38.6272 90.4152 38.4151 90.6638C38.0555 91.1542 38.3414 91.5844 38.8483 91.0596C38.8483 91.3057 39.0112 91.5494 39.1554 91.7651C39.2834 91.9565 39.3967 92.1259 39.3682 92.2554C39.2381 92.4425 39.0387 92.5708 38.8136 92.6124C38.7751 92.6874 38.7676 92.7743 38.7927 92.8546C38.8178 92.935 38.8735 93.0024 38.9479 93.0426C38.9479 92.7286 39.2339 93.7953 39.1126 93.6018C38.9913 93.4082 39.4028 94.1051 39.4028 93.89C39.4028 94.2857 39.2729 94.8449 38.6577 94.3459C38.4211 94.1541 38.3665 93.8923 38.3204 93.6712C38.2466 93.3175 38.1946 93.0683 37.4533 93.3781C36.9649 93.5794 36.9652 93.5797 37.0374 93.6657C37.0934 93.7323 37.1924 93.8502 37.1414 94.1524C37.1414 94.2214 37.13 94.319 37.1169 94.431C37.0713 94.8214 37.0054 95.3856 37.332 95.516C37.5969 95.6217 37.6811 95.5189 37.7798 95.3983C37.8377 95.3276 37.9006 95.2508 38.0078 95.2063C38.1138 95.1623 38.1568 95.1075 38.1944 95.0595C38.2599 94.9761 38.309 94.9135 38.6447 94.9654C38.6829 94.9654 38.7228 95.0115 38.7754 95.0723C38.8716 95.1837 39.0105 95.3444 39.2599 95.3611C39.481 95.3759 39.5397 95.2322 39.5945 95.0981C39.6352 94.9983 39.6738 94.9038 39.7754 94.8836C40.3754 94.9314 40.9332 95.2091 41.3307 95.6579C41.3307 95.6061 41.3265 95.5451 41.3221 95.4798C41.3062 95.2467 41.2867 94.9592 41.439 94.8449C41.5291 94.7773 41.6154 95.056 41.7169 95.3835C41.8351 95.7647 41.9737 96.2119 42.1624 96.2558C42.3669 96.3034 42.4434 96.17 42.5145 96.0461C42.5654 95.9573 42.6135 95.8734 42.704 95.8644C42.8343 95.8515 42.9113 95.879 42.9784 95.903C43.0228 95.9189 43.0629 95.9332 43.1112 95.9332C43.2325 95.9332 44.1726 96.329 43.9776 96.7118C43.5791 97.6065 41.3307 96.3763 40.8844 96.1268C40.83 96.0952 40.7527 96.0113 40.6599 95.9108C40.3614 95.5871 39.903 95.09 39.5328 95.602C39.4018 95.7999 39.5519 95.9895 39.7044 96.1821C39.8999 96.4291 40.0993 96.6809 39.7147 96.9613V97.0817C39.7147 97.5186 38.8955 97.1143 38.607 96.9719C38.5547 96.9461 38.5197 96.9289 38.5104 96.9269C38.3425 96.9269 38.303 97.0629 38.2681 97.1834C38.2283 97.3209 38.1943 97.4381 37.9818 97.3097C37.7407 97.164 37.7422 96.9757 37.7436 96.7993C37.7445 96.6841 37.7453 96.5739 37.6786 96.4838C37.4084 96.1268 37.1141 96.1059 36.8389 96.0864C36.5538 96.0662 36.2892 96.0475 36.093 95.6579C36.0841 95.6385 36.0728 95.6155 36.0603 95.59C35.951 95.3673 35.7474 94.9523 36.21 95.0256C36.502 95.0719 36.5146 95.2686 36.525 95.4305C36.5329 95.5544 36.5396 95.6579 36.6692 95.6579C37.1873 94.7638 36.7859 94.6804 36.1966 94.5578C36.0714 94.5318 35.9378 94.5041 35.8027 94.4664C35.032 94.0533 34.1309 93.9501 33.2857 94.1782C33.4901 94.1782 33.7591 94.4773 34.0098 94.756C34.1895 94.9558 34.3598 95.1452 34.4901 95.2063C34.661 95.2864 34.8071 95.2426 34.9279 95.2064C35.0276 95.1765 35.1099 95.1518 35.1746 95.2063C35.252 95.2715 35.2456 95.43 35.2392 95.5869C35.2338 95.7198 35.2285 95.8516 35.2742 95.9246C35.6543 96.4591 36.1521 96.9004 36.7298 97.2151C36.8722 97.2495 37.0207 97.2495 37.1631 97.2151C37.2707 97.3434 37.3556 97.4888 37.4143 97.6452C37.5748 97.7784 37.7153 97.9304 37.8554 98.0822C37.9914 98.2294 38.1272 98.3763 38.2808 98.5055C38.5292 98.5055 38.6352 98.7022 38.7278 98.874C38.7966 99.0017 38.8581 99.1158 38.9653 99.125C39.2165 99.1465 39.953 98.6948 40.1696 98.5055C40.3862 98.3163 41.4346 97.3097 40.5682 97.3097C40.5682 97.037 40.5682 96.7516 40.7914 96.6752C40.755 96.7179 41.5856 97.3889 41.4877 97.2113C41.6122 97.4224 41.6091 97.4307 41.5942 97.4702C41.5872 97.4889 41.5776 97.5146 41.5776 97.5721C41.5776 97.653 41.5003 97.6899 41.4172 97.7296C41.3148 97.7785 41.2037 97.8315 41.218 97.9764C41.2362 98.16 41.3646 98.2172 41.4772 98.2675C41.5256 98.2891 41.571 98.3093 41.6036 98.3378C41.9155 98.6131 42.8079 98.9357 43.0939 98.6217V98.8798C43.0617 98.9332 43.0434 98.9938 43.0408 99.056C43.0381 99.1183 43.0512 99.1802 43.0787 99.2361C43.1062 99.2921 43.1474 99.3404 43.1985 99.3765C43.2495 99.4127 43.3089 99.4356 43.3711 99.4433C43.3711 99.4433 43.6614 99.5723 43.6267 99.6713C43.4845 99.9883 43.02 100.04 42.5923 100.087C42.3293 100.116 42.0802 100.144 41.9285 100.23C41.7367 100.34 41.7456 100.386 41.7504 100.411C41.7555 100.438 41.756 100.44 41.4953 100.471C41.5242 100.471 41.6945 100.563 41.8782 100.662C42.08 100.77 42.2983 100.888 42.3617 100.901C42.5361 100.966 42.6735 101 42.7976 101.03C43.0436 101.09 43.2379 101.137 43.5661 101.392C43.7901 101.566 43.9 101.683 43.9937 101.782C44.1065 101.902 44.1958 101.997 44.4325 102.136C45.167 102.566 45.9887 102.933 46.7819 103.288L46.7843 103.289L46.7857 103.289C47.0954 103.428 47.4006 103.564 47.6947 103.702C48.4693 104.11 49.2855 104.434 50.1294 104.67C50.5406 104.798 50.9429 104.953 51.3338 105.134L52.2002 105.422C52.7042 105.401 53.2084 105.457 53.6948 105.59H54.1974C54.4177 105.627 54.5361 105.738 54.5992 105.797C54.6602 105.854 54.6696 105.863 54.6696 105.711C54.9338 105.711 55.692 105.435 55.666 105.074C55.64 104.713 54.7995 104.73 54.8385 104.911C54.8775 105.091 53.0667 103.822 54.271 103.547C54.5786 103.42 54.8377 103.505 55.1084 103.594C55.2952 103.655 55.4874 103.718 55.705 103.715C56.0242 103.653 56.3385 103.569 56.6451 103.461C57.139 103.34 57.9664 103.272 57.1389 103.715C57.3656 103.868 57.9917 103.901 58.6901 103.938C59.9542 104.005 61.4555 104.085 61.2546 104.911C61.4697 104.911 61.6659 104.722 61.8693 104.526C62.1 104.304 62.3401 104.072 62.6279 104.098C62.7271 104.098 62.9045 104.263 63.0967 104.442C63.3242 104.654 63.5726 104.885 63.7369 104.885C63.8862 104.885 64.0984 104.769 64.3272 104.644C64.5631 104.516 64.8166 104.378 65.0366 104.347C65.1338 104.408 65.2464 104.441 65.3615 104.441C65.4766 104.441 65.5893 104.408 65.6864 104.347C65.8881 104.307 66.0778 104.222 66.2409 104.098C66.3681 104.098 66.5019 104.229 66.6233 104.348C66.7418 104.464 66.8484 104.568 66.9254 104.528C66.9799 104.499 67.0259 104.427 67.0796 104.342C67.1795 104.184 67.3058 103.985 67.5623 103.951C67.9565 103.9 67.7702 104.334 67.6619 104.489C67.3586 104.918 66.7291 104.888 66.2699 104.867C66.1257 104.86 65.9983 104.854 65.903 104.863C65.4978 104.906 65.1203 105.003 64.7579 105.096C64.3222 105.208 63.9082 105.315 63.4943 105.315C62.9012 105.247 62.3007 105.288 61.7224 105.435C61.6267 105.478 61.5158 105.577 61.3942 105.685C61.1363 105.915 60.8302 106.188 60.5181 106.059C60.2314 105.941 60.3027 105.756 60.3566 105.615C60.3891 105.531 60.4153 105.463 60.3535 105.435C59.9978 105.223 59.5898 105.29 59.1565 105.36C58.93 105.397 58.6967 105.435 58.4603 105.435C58.2744 105.435 58.0308 105.353 57.7695 105.265C57.3183 105.113 56.8143 104.943 56.4631 105.147C55.9086 105.47 55.9562 105.973 56.4631 106.046C56.4631 106.046 56.4631 106.356 56.5368 106.369C56.6893 106.369 56.7333 106.331 56.7722 106.297C56.8061 106.268 56.836 106.242 56.931 106.248C57.2097 106.198 57.4925 106.174 57.7758 106.175C57.9272 106.206 57.9997 106.307 58.0715 106.407C58.1415 106.505 58.2109 106.601 58.352 106.631C58.4957 106.661 58.6712 106.61 58.8564 106.556C59.0396 106.503 59.2324 106.446 59.4134 106.463C59.6122 106.482 59.7231 106.549 59.8301 106.613C59.919 106.666 60.0052 106.717 60.1368 106.739C60.3156 106.768 60.3744 106.675 60.4185 106.605C60.446 106.561 60.4678 106.527 60.5094 106.537C60.5514 106.547 60.6259 106.597 60.7168 106.659C60.8605 106.757 61.0451 106.882 61.2069 106.919C62.1221 107.027 63.047 107.027 63.9622 106.919C64.2833 106.954 64.6072 106.954 64.9283 106.919C65.0818 106.873 65.1879 106.741 65.2867 106.619C65.3719 106.513 65.4518 106.414 65.5521 106.382C65.6664 106.345 65.8085 106.39 65.9503 106.436C66.0772 106.476 66.2039 106.516 66.3103 106.498C66.6791 106.384 67.0536 106.289 67.4323 106.214C67.4773 106.214 67.5762 106.283 67.6859 106.359C67.8088 106.445 67.9452 106.54 68.0345 106.558C68.297 106.601 68.5648 106.601 68.8273 106.558C70.268 106.286 71.7231 106.095 73.1855 105.986C73.5312 105.986 73.8466 105.712 74.1073 105.486C74.1734 105.428 74.2359 105.374 74.2946 105.328C74.4861 105.177 74.5248 105.053 74.5639 104.928C74.584 104.863 74.6042 104.799 74.6455 104.73C74.8543 104.777 75.0587 104.842 75.2563 104.923H76.8852C78.3864 104.665 79.8443 104.202 81.2175 103.547C81.617 103.373 82.0114 103.164 82.4026 102.956C82.8131 102.739 83.2203 102.523 83.6262 102.351C84.2866 102.056 84.8271 101.664 85.3635 101.276C85.8054 100.955 86.2444 100.637 86.7454 100.377C88.2144 99.6734 89.5765 98.7684 90.7917 97.6882C95.7174 93.12 99.9543 88.8185 102.723 82.564L105.357 75.9783ZM54.271 103.547C54.128 103.547 54.1021 103.439 54.1974 103.332C54.267 103.253 54.2673 103.397 54.2674 103.486C54.2675 103.507 54.2675 103.524 54.2684 103.535L54.269 103.541C54.2695 103.544 54.2702 103.546 54.271 103.547ZM106.99 67.3883C106.974 67.4818 106.939 67.5711 106.886 67.6505L106.899 67.6462C106.947 67.6462 106.974 67.6132 106.987 67.5662L106.99 67.3883ZM48.2362 89.1669C47.6124 89.1669 48.6954 88.4012 48.6954 89.0593C48.6954 89.1798 48.2362 89.3217 48.2362 89.1669ZM50.9829 90.4832C50.859 90.4184 50.7578 90.3179 50.6926 90.195C50.7396 90.195 50.7865 90.1927 50.832 90.1905C51.0679 90.1792 51.2688 90.1695 51.2688 90.4832H50.9829ZM40.3862 92.7544C40.3862 93.3523 38.9176 92.7544 39.5804 92.3242C39.81 92.2081 40.3862 92.5522 40.3862 92.7544ZM41.9892 94.1739C41.9892 94.7632 40.4945 93.6749 40.4945 93.3136C40.8673 93.2293 41.1552 93.372 41.4528 93.5195C41.7017 93.6428 41.9574 93.7695 42.2751 93.7695C42.2618 93.8525 42.229 93.9313 42.1794 93.9993C42.1297 94.0673 42.0645 94.1227 41.9892 94.161V94.1739ZM43.722 94.7245C43.722 95.5031 42.6736 95.1288 43.1459 94.7245C43.3841 94.5223 44.1076 94.475 43.722 94.7245ZM43.722 92.4533H43.6007C43.5054 92.4533 42.9509 92.0833 43.1459 91.8898C43.2152 91.8898 44.3502 92.178 43.9733 92.4275H43.709L43.722 92.4533ZM40.096 97.499C40.0183 97.5482 39.9142 97.685 39.7997 97.8355C39.614 98.0795 39.401 98.3593 39.2295 98.3593C39.2097 98.3408 39.1939 98.3185 39.1832 98.2937C39.1724 98.2689 39.1668 98.2422 39.1668 98.2152C39.1668 98.1882 39.1724 98.1615 39.1832 98.1367L39.1856 98.1313L39.1887 98.1251C39.2063 98.1101 39.2202 98.0921 39.2295 98.0711C39.2129 98.0866 39.1991 98.1049 39.1887 98.1251C39.0265 98.2636 38.5562 98.1521 38.5797 97.9076C38.5943 97.7553 38.9006 97.6641 39.2068 97.573C39.4452 97.502 39.6835 97.431 39.7841 97.3312C39.8128 97.3227 39.8429 97.32 39.8727 97.3232C39.9025 97.3264 39.9314 97.3355 39.9576 97.3499C39.9839 97.3643 40.0069 97.3838 40.0255 97.4072C40.044 97.4305 40.0577 97.4574 40.0656 97.4861C40.0677 97.4946 40.0677 97.5034 40.0656 97.5119L40.096 97.499ZM46.6073 93.9502C47.1358 93.6018 47.712 94.1653 47.1835 94.5223C46.7129 94.8402 46.6304 94.1386 46.6119 93.9808C46.6096 93.9614 46.6083 93.9502 46.6073 93.9502ZM45.0044 92.9221C45.2482 92.9606 45.474 93.073 45.6508 93.244C45.8277 93.415 45.9469 93.6361 45.9921 93.8771C45.9921 93.9846 44.3762 93.8771 45.0044 92.9221ZM44.2592 100.321C43.7955 100.545 44.2051 101.042 44.5851 101.06C44.8857 100.909 45.2248 100.851 45.5589 100.893C45.5399 100.876 45.5194 100.857 45.4975 100.837C45.2142 100.579 44.6975 100.109 44.2592 100.321ZM44.6925 97.9894C44.3805 97.3441 45.7885 97.4732 45.1517 98.1571C45.0956 98.0929 45.0241 98.0439 44.9438 98.0146C44.8635 97.9852 44.777 97.9766 44.6925 97.9894ZM44.9827 99.7487C44.9077 99.7487 44.8798 99.7099 44.8508 99.6696C44.8195 99.6262 44.7869 99.5809 44.6925 99.5809C44.8961 99.5809 45.0174 99.5809 44.9827 99.7487ZM46.8716 101.349L46.7633 101.121C46.7633 101.551 45.8968 102.149 45.4636 102.149C45.4578 102.014 45.4789 101.88 45.5257 101.753C45.5725 101.626 45.644 101.51 45.7362 101.411C45.8284 101.312 45.9394 101.232 46.0629 101.175C46.1864 101.119 46.3199 101.087 46.4557 101.082C46.5668 101.078 46.6779 101.091 46.7849 101.121L47.1835 101.013C47.2441 101.013 47.1228 101.443 46.8932 101.302L46.8716 101.349ZM46.0268 98.3937H46.317C46.317 98.464 46.317 98.4957 46.3014 98.5092C46.2885 98.5202 46.2651 98.519 46.2223 98.5168C46.1994 98.5156 46.1705 98.5141 46.1351 98.5141L46.0268 98.3937ZM47.0492 98.8497C46.9539 98.8497 46.9062 98.8497 46.8802 98.6819H47.1705C47.1705 98.7894 47.0492 98.9572 47.0492 98.8497ZM47.725 101.861C47.7754 101.783 47.8011 101.691 47.7987 101.598C47.7987 101.719 47.3135 101.469 47.3135 101.121C47.4608 100.979 48.2536 101.861 47.7467 101.861H47.725ZM47.7467 97.6538C47.5907 97.8947 47.2181 97.8474 47.0102 97.7872C46.8744 97.7478 46.8236 97.6315 46.7878 97.5494C46.7688 97.5059 46.754 97.472 46.7329 97.4646C46.4642 97.3279 46.2038 97.1757 45.9531 97.0086C45.6333 96.7123 45.2559 96.484 44.8441 96.3376C44.7677 96.3064 44.6055 96.1892 44.4406 96.07C44.2407 95.9256 44.037 95.7784 43.9776 95.7784C44.03 95.7382 44.2023 95.724 44.3536 95.7115C44.478 95.7013 44.5882 95.6922 44.6058 95.6708C44.8255 95.3645 44.8145 95.3639 44.7533 95.3605C44.707 95.3579 44.6319 95.3537 44.6058 95.2149C44.6058 95.2149 43.6311 94.7503 44.7141 94.7503C45.0216 94.9346 45.3116 95.1463 45.5806 95.3826C45.7496 95.4775 45.9242 95.5449 46.0981 95.6119C46.2317 95.6635 46.3648 95.7148 46.4947 95.7784C46.7936 95.9246 48.1582 96.7806 47.1792 96.9742C47.1792 97.1693 47.4122 97.2673 47.6062 97.3488C47.8141 97.4362 47.9771 97.5047 47.7597 97.6538H47.7467ZM49.8175 95.3826C49.8175 95.1073 50.1554 94.7632 50.385 95.0127C51.1085 95.8257 49.1806 95.7999 49.8175 95.3826ZM48.951 94.7503C48.951 94.0792 49.4796 95.0729 49.2283 94.9267C49.1099 94.8577 49.0415 94.9417 49.0023 94.9898C48.9583 95.0438 48.951 95.0527 48.951 94.7503ZM49.6355 102.437C49.6355 102.781 48.8904 102.915 48.951 102.437C49.0117 101.96 49.9388 102.149 49.6355 102.437ZM50.372 98.8497C50.1922 98.8497 50.0335 98.7677 49.873 98.6848C49.7087 98.6 49.5424 98.5141 49.3496 98.5141C49.9475 99.0992 49.081 100.119 48.951 98.8497C48.951 98.665 49.0349 98.6319 49.1129 98.6011C49.1602 98.5824 49.2054 98.5645 49.2283 98.5141C49.2625 98.439 49.2045 98.3612 49.1474 98.2844C49.1031 98.2249 49.0593 98.1661 49.0593 98.1098C49.3825 98.1227 49.7021 98.1821 50.0081 98.2862C50.0529 98.2862 50.1129 98.271 50.1782 98.2546C50.3275 98.217 50.5042 98.1724 50.5886 98.2862C50.7099 98.4496 50.7186 98.8153 50.372 98.8153V98.8497ZM53.4046 100.536L53.1143 100.704C52.9382 100.446 53.0323 100.351 53.1619 100.219C53.2013 100.18 53.2439 100.136 53.2833 100.084C53.3611 100.214 53.403 100.363 53.4046 100.514V100.536ZM55.4624 100.084C55.1505 100.394 54.1367 100.261 54.7172 99.796C54.8125 99.7229 55.51 99.568 55.6313 99.6756C55.8683 99.919 55.7355 100.002 55.6075 100.083C55.5341 100.129 55.4624 100.174 55.4624 100.248V100.084ZM56.9397 102.321C56.8725 102.281 56.8231 102.217 56.8014 102.142C56.7797 102.067 56.7873 101.986 56.8227 101.917C57.1086 101.917 57.2299 101.917 57.2299 102.321H56.9397ZM70.5255 104.928C70.5255 105.62 69.0526 103.805 70.3436 103.913C70.7031 103.913 70.9674 104.807 70.5255 104.928ZM72.6916 104.364C72.5524 104.364 72.4714 104.383 72.4147 104.396C72.295 104.424 72.284 104.426 72.0635 104.175C72.0635 104.16 72.0354 104.113 71.9968 104.047C71.8754 103.839 71.6495 103.453 71.8598 103.362C72.1371 103.242 72.6916 104.175 72.6916 104.364ZM73.727 104.08C73.602 103.956 73.3748 104.023 73.1723 104.083C72.8489 104.178 72.5885 104.255 72.9082 103.504C73.039 103.279 73.24 103.103 73.4809 103.002C73.7217 102.901 73.9892 102.881 74.2426 102.945C74.7754 103.267 74.0866 104.033 73.701 104.033L73.727 104.08ZM75.4339 103.577L75.2043 103.913C74.9054 104.27 74.8448 102.906 74.8794 102.846C75.3863 101.749 76.1791 103.087 75.4339 103.577Z" fill="#C23033"/>
<path d="M104.997 77.2731C105.006 77.3331 104.994 77.3943 104.964 77.4467C104.933 77.4991 104.885 77.5395 104.828 77.5613C104.849 77.4488 104.909 77.3471 104.997 77.2731Z" fill="#C23033"/>
<path d="M41.1779 99.8925C41.1779 99.5594 40.3606 99.8103 40.5607 100.325C40.5607 100.325 41.3908 100.844 41.4589 100.857C41.3867 100.525 41.2928 100.199 41.1779 99.8796V99.8925Z" fill="#C23033"/>
<path d="M27.1664 75.0114L27.1685 75.0069C27.1685 75.0153 27.1677 75.0163 27.1664 75.0114Z" fill="#C23033"/>
<path fill-rule="evenodd" clip-rule="evenodd" d="M27.441 66.3166C27.3688 68.0304 27.5599 69.7452 28.0071 71.3992C28.1136 71.702 28.552 74.2499 27.8071 73.3847C27.6857 73.2416 27.6681 72.9142 27.651 72.5943C27.6381 72.3533 27.6254 72.1165 27.5687 71.9659C27.5099 71.8099 27.4242 71.7071 27.3471 71.6147C27.2533 71.5022 27.1724 71.4051 27.1687 71.2463C27.1681 71.3149 27.1423 71.3811 27.0963 71.4317C27.0477 71.4851 26.9804 71.517 26.9089 71.5204H26.8833C26.9301 71.9964 26.9301 72.4761 26.8833 72.9522C26.8833 73.242 26.4576 74.8382 26.364 73.8173C26.364 73.7593 26.4173 73.6908 26.4748 73.617C26.5502 73.5202 26.6326 73.4143 26.6109 73.3112C26.5674 73.082 26.5643 73.0836 26.5333 73.0993C26.4976 73.1174 26.4249 73.1542 26.2107 72.8786C25.9419 72.5622 25.644 72.2725 25.321 72.0135C25.3701 72.3243 25.4014 72.6377 25.4147 72.9522C25.3982 73.0904 25.3208 73.2104 25.2464 73.3258C25.1671 73.4489 25.091 73.5668 25.0954 73.6962C25.1004 73.8421 25.2436 74.1519 25.3768 74.4401C25.4726 74.6474 25.5632 74.8435 25.5935 74.9593C25.6957 75.9789 25.9633 76.9742 26.3853 77.9051C26.7033 78.4458 26.912 79.0203 27.1198 79.5923C27.3459 80.2147 27.571 80.8343 27.9348 81.4045C28.0504 81.5831 28.198 81.7727 28.3516 81.9701C28.7973 82.5428 29.2941 83.1812 29.2118 83.8053C29.5131 83.6437 29.5059 83.3818 29.4975 83.0771L29.497 83.0613C29.497 82.5745 29.2322 82.3784 28.9149 82.1435C28.7613 82.0298 28.5954 81.9069 28.4413 81.7376C28.1715 81.4579 27.9906 81.1022 27.922 80.7168C27.9044 80.4287 27.9044 80.1397 27.922 79.8516C27.8762 79.6244 27.7341 79.3852 27.5872 79.1378C27.3928 78.8104 27.1898 78.4687 27.1898 78.1213C27.5739 78.1213 27.6859 77.9453 27.7682 77.816C27.8684 77.6586 27.9246 77.5704 28.3732 77.9526C28.7912 78.472 29.0972 79.0747 29.2714 79.7219C29.3381 79.6197 29.3915 79.5059 29.445 79.3921C29.5998 79.0625 29.7546 78.733 30.2292 78.688C30.8136 78.6338 30.8732 79.0902 30.9417 79.6146C30.9769 79.8846 31.0145 80.1727 31.1274 80.4183C31.169 80.5087 31.2222 80.633 31.2854 80.7807C31.7273 81.8126 32.6565 83.9825 33.4943 83.6799C33.7445 83.5916 33.5237 83.1169 33.4133 82.8797C33.3885 82.8264 33.3693 82.785 33.3623 82.7628C33.2921 82.527 33.3755 82.5072 33.4457 82.4906C33.5286 82.4709 33.593 82.4557 33.3623 82.0923C33.1198 81.7105 33.0155 81.7439 32.8919 81.7836C32.7985 81.8135 32.6941 81.847 32.5109 81.7073C31.7986 81.1345 31.9099 80.8422 32.0519 80.4692C32.1459 80.2224 32.2533 79.9404 32.1448 79.5185C32.055 79.1863 31.7894 79.0786 31.5594 78.9853C31.3972 78.9195 31.2526 78.8608 31.1998 78.7356C31.1276 78.5645 31.224 78.3838 31.323 78.198C31.3992 78.055 31.477 77.9091 31.4807 77.7623C31.4807 77.3244 31.2348 76.9455 30.9946 76.5754C30.8338 76.3276 30.6755 76.0837 30.5953 75.8287C30.485 75.4782 30.4135 75.1263 30.3416 74.7724C30.2831 74.4844 30.2243 74.195 30.1441 73.9038C30.0537 73.5758 29.9253 73.2412 29.7945 72.9005C29.6665 72.5672 29.5364 72.2281 29.4374 71.8837C29.3612 71.6069 29.2988 71.316 29.2393 71.038C29.2058 70.8816 29.1732 70.7293 29.1395 70.586C29.1004 70.4201 29.0717 70.2166 29.0429 70.0122C29.0026 69.7262 28.9621 69.4385 28.8926 69.2494C28.6961 69.0515 28.55 68.808 28.4669 68.54C28.5246 68.3217 28.6244 68.1173 28.7606 67.9387C28.832 67.8373 28.8734 67.7172 28.8798 67.5926C28.6907 67.5185 28.5174 67.4084 28.369 67.2682C28.2319 66.9569 28.1525 66.6225 28.1348 66.282C28.1602 66.206 28.2038 66.1377 28.2618 66.0833C28.3198 66.0289 28.3903 65.9901 28.4669 65.9705C28.6286 65.7629 28.5946 65.5379 28.3604 65.3433C28.3604 64.742 27.8028 63.1545 27.5431 64.5733C27.5431 64.72 27.5897 64.8533 27.6348 64.9823C27.6748 65.0968 27.7137 65.2078 27.7177 65.3217C27.7215 65.4303 27.6654 65.5667 27.6023 65.7201C27.5248 65.9087 27.4367 66.123 27.4367 66.3425L27.441 66.3166ZM27.441 74.4315C28.0152 74.4315 27.0901 75.1891 27.1664 75.0114C27.1513 74.9528 27.068 74.0445 27.441 74.4315ZM28.6244 74.3234C28.8875 74.5026 28.968 74.8376 29.0406 75.1398C29.0748 75.2824 29.1073 75.4177 29.1565 75.5259C29.1565 75.6208 29.2577 75.7244 29.357 75.8261C29.4432 75.9144 29.528 76.0012 29.5439 76.0796C29.5631 76.1748 29.4861 76.2686 29.4192 76.3502C29.3674 76.4132 29.3217 76.4688 29.331 76.5122C29.3785 76.7209 29.5193 76.9852 29.6624 77.2536C29.9166 77.7307 30.1779 78.2212 29.9355 78.4371C29.3872 78.9299 29.1717 78.1627 28.9399 77.3373C28.7362 76.612 28.5198 75.8417 28.054 75.8417C28.054 76.1946 27.9614 76.2055 27.7778 76.2272C27.7094 76.2353 27.6283 76.2449 27.5346 76.2743C27.3368 76.3363 27.265 76.2332 27.1972 76.1356C27.1469 76.0631 27.0987 75.9937 27.0025 75.9974C26.8871 76.0019 26.8307 76.0844 26.7764 76.164C26.7245 76.24 26.6745 76.3132 26.5768 76.3132C26.5618 76.2041 26.5332 76.0879 26.5042 75.9699C26.4183 75.62 26.3285 75.2549 26.5768 75.0155C26.5768 75.7725 28.0071 75.3875 28.1391 75.1236C28.2014 74.999 28.1204 74.9005 28.03 74.7906C27.9291 74.6678 27.8165 74.5309 27.8794 74.3277C27.9986 73.9427 28.5903 73.9211 28.5903 74.2931L28.6244 74.3234Z" fill="#C23033"/>
<path d="M25.2738 66.8261C25.1711 66.7709 25.0783 66.7209 25.0783 66.6239C24.6637 66.6239 24.897 66.3476 25.0238 66.1975C25.0471 66.1698 25.0669 66.1464 25.0783 66.1298C25.1228 66.065 25.2455 66.1437 25.357 66.2153C25.4288 66.2614 25.496 66.3045 25.5348 66.3045C25.6295 65.9509 25.5692 65.4525 25.0783 65.5718C25.5894 65.4147 25.5922 65.1346 25.5953 64.8233C25.598 64.5523 25.6009 64.2577 25.9396 64C26.2131 64 26.1526 65.3554 26.1207 66.0706C26.1134 66.2338 26.1076 66.3637 26.1076 66.4365C25.9742 67.2919 26.0405 68.1661 26.3014 68.9923C26.3713 69.188 26.4135 69.2527 26.4391 69.2918C26.4469 69.3038 26.4531 69.3133 26.4581 69.3235C26.478 69.3641 26.478 69.4144 26.478 69.6653C26.4002 69.9454 26.267 70.2075 26.086 70.4363C25.9525 70.6024 25.1041 71.2116 25.0438 71.0966C25.0148 71.0412 25.1556 70.88 25.3094 70.704C25.4749 70.5147 25.6554 70.3082 25.6554 70.1978C25.6781 69.854 25.6372 69.509 25.5348 69.1797C25.5214 69.118 25.5542 69.0573 25.589 68.9931C25.6213 68.9333 25.6554 68.8704 25.6554 68.8006C25.6132 68.6354 25.5485 68.5191 25.4841 68.4036C25.3776 68.2122 25.2721 68.0228 25.2721 67.6164C25.2818 67.5112 25.348 67.4454 25.4125 67.3814C25.4915 67.303 25.568 67.2271 25.5348 67.084C25.5037 66.9499 25.3832 66.885 25.2738 66.8261Z" fill="#C23033"/>
<path fill-rule="evenodd" clip-rule="evenodd" d="M32.4254 67.3502C32.5688 66.8207 32.7445 66.1724 32.3093 66.1724C31.7666 66.0319 31.9604 65.6527 32.2274 65.5377C32.2302 65.535 32.2385 65.5584 32.252 65.5967C32.3009 65.7355 32.419 66.0702 32.5978 66.0702C32.6359 65.782 32.6964 65.4972 32.7787 65.2183C32.8902 64.8645 32.8532 64.7443 32.8348 64.7143C32.8581 64.7313 32.9406 64.767 33.1706 64.7454C33.6823 64.6976 33.675 64.8556 33.6522 65.3431C33.6466 65.4627 33.64 65.6023 33.64 65.7635C33.6461 65.9928 33.681 66.2088 33.7162 66.4263C33.7555 66.6694 33.7951 66.9144 33.7951 67.182C33.7951 67.182 33.8769 69.1968 34.2257 68.6047C34.3485 68.3895 34.2472 67.9903 34.1606 67.6489C34.1135 67.4632 34.0707 67.2945 34.0707 67.182C34.0497 66.9078 34.0829 66.5115 34.1179 66.0949C34.1475 65.7412 34.1784 65.3729 34.1784 65.0521C34.5503 66.1579 34.7987 67.3006 34.9191 68.4598C34.9569 68.7278 34.9752 68.9867 34.9935 69.2459C35.0107 69.4893 35.0279 69.7331 35.0612 69.9848C35.1034 70.3388 35.2278 70.6745 35.3536 71.0138C35.4851 71.3685 35.6181 71.7271 35.6599 72.1146C35.7159 72.5559 35.7159 73.0023 35.6599 73.4436C35.6323 73.9314 35.7824 74.1357 35.9509 74.3651C36.0722 74.5303 36.2032 74.7087 36.2844 75.0154C36.4473 75.6249 36.2745 75.6626 36.0268 75.7166C35.8556 75.7539 35.6486 75.799 35.4919 76.0462C35.4478 76.3244 35.4829 76.6092 35.5932 76.8687C35.7035 77.1283 35.8846 77.3524 36.1164 77.5158C36.5453 77.6592 36.5729 77.3592 36.597 77.0972C36.6266 76.7752 36.6509 76.5106 37.4084 77.1964C37.8255 77.6396 38.1219 78.1805 38.2698 78.7682C38.3818 79.0858 38.54 79.3857 38.7392 79.6584C38.7809 79.7179 38.8926 79.8042 39.0137 79.8978C39.2049 80.0457 39.4196 80.2118 39.4196 80.3187C39.5074 80.6485 38.9286 80.7406 38.5483 80.6665C38.5578 81.0615 38.1008 81.6308 37.6701 81.6308L37.6681 81.6287C37.2174 81.1615 36.4887 80.406 36.8984 79.7713C37.0773 80.0507 37.4444 80.1181 37.7886 80.1813C37.8808 80.1983 37.9714 80.2149 38.0562 80.2353C37.8592 79.9678 37.6747 79.6914 37.5032 79.4071C37.453 79.3507 37.3968 79.2388 37.3317 79.1091C37.1508 78.749 36.9012 78.252 36.5212 78.4274C36.2973 78.5211 36.7969 78.9939 36.7969 78.9939C36.4049 79.2538 35.7202 79.6584 35.3756 79.3262C35.3067 79.2609 35.077 78.6734 34.9162 78.2621C34.846 78.0825 34.7889 77.9365 34.7641 77.8822C34.575 77.541 34.4151 77.1848 34.286 76.8172C34.2089 76.4576 34.1038 76.1044 33.9716 75.7609C33.92 75.671 33.8357 75.6184 33.7539 75.5672C33.6651 75.5117 33.5791 75.458 33.541 75.3605C33.4646 75.1624 33.4273 74.9376 33.39 74.7129C33.3158 74.266 33.2417 73.8194 32.8605 73.5842C33.7975 73.5842 33.0927 71.889 32.6468 70.8162C32.4962 70.4541 32.3751 70.1628 32.3566 70.0316C32.3395 69.8663 32.4013 69.6567 32.4634 69.4457C32.5262 69.2328 32.5893 69.0187 32.572 68.8475C32.5567 68.6964 32.5033 68.5746 32.4486 68.4498C32.38 68.2932 32.3093 68.1318 32.3093 67.9018C32.3093 67.7786 32.3644 67.5751 32.4254 67.3502ZM35.2163 73.0517C35.1472 72.9648 35.0907 72.8687 35.0483 72.7663C35.0483 72.9301 34.847 73.0574 34.6468 73.184C34.4721 73.2944 34.2983 73.4043 34.2602 73.5373C34.2227 73.8196 34.2793 74.1064 34.4216 74.3539C34.5638 74.6015 34.7839 74.7963 35.0483 74.9089C35.2766 74.9089 35.2163 74.1465 35.156 73.8781C35.1304 73.764 35.0681 73.7277 35.005 73.6909C34.9198 73.6411 34.833 73.5905 34.833 73.3456C34.9866 73.286 35.1196 73.184 35.2163 73.0517ZM33.3317 69.3356C33.1907 69.6012 33.3169 69.7256 33.4471 69.8539C33.4991 69.9052 33.5518 69.9571 33.5883 70.0189C33.7075 70.0189 33.8236 69.9816 33.92 69.9124C33.977 69.9563 34.0209 70.0149 34.0467 70.0817C34.0725 70.1486 34.0793 70.2211 34.0664 70.2915C34.0874 70.3498 34.1077 70.5207 34.134 70.7424C34.2153 71.4279 34.3541 72.5983 34.7512 72.4213C35.1914 72.225 34.8456 70.8656 34.699 70.2895C34.6707 70.1781 34.6498 70.0959 34.6435 70.0572C34.631 69.9801 34.64 69.8625 34.65 69.7327C34.671 69.4607 34.6961 69.1347 34.5358 69.0136C34.2469 68.8033 34.1219 69.0298 34.0144 69.2245C33.9521 69.3374 33.8957 69.4396 33.8166 69.4396C33.9288 69.4149 33.59 69.3702 33.417 69.3473C33.3775 69.3421 33.3466 69.338 33.3317 69.3356ZM33.1619 67.2867C33.1411 67.2376 33.1104 67.1932 33.0715 67.1564V67.1905C33.0172 67.1748 32.9589 67.1796 32.908 67.204C32.8571 67.2284 32.8171 67.2706 32.7959 67.3225C32.8469 67.3225 32.9084 67.3492 32.9733 67.3774C33.0455 67.4087 33.1218 67.4418 33.1921 67.4418C33.1929 67.3886 33.1826 67.3358 33.1619 67.2867Z" fill="#C23033"/>
<path d="M32.8348 64.7143C32.832 64.7122 32.83 64.7104 32.8288 64.709C32.8273 64.7073 32.8269 64.7062 32.8272 64.706C32.8277 64.7055 32.8308 64.7078 32.8348 64.7143Z" fill="#C23033"/>
<path d="M22.6511 76.575C22.6432 76.6565 22.6364 76.7272 22.6364 76.7704C22.7234 77.0696 22.7234 77.387 22.6364 77.6862C22.3963 77.218 22.2044 76.7271 22.0636 76.2209C21.7758 75.5841 21.5815 74.91 21.4865 74.2189C21.4535 73.9063 21.3722 73.5235 21.2852 73.1145C21.0653 72.08 20.8096 70.8772 21.2108 70.2148C21.2718 71.0955 21.4829 71.9596 21.8353 72.7706C21.8685 72.8671 21.9005 73.0394 21.9371 73.2363C22.0573 73.8826 22.2268 74.7946 22.6493 74.1678C22.8813 73.8236 22.6488 72.6533 22.4005 71.4037C22.0588 69.684 21.6872 67.814 22.4555 67.74C22.6692 68.047 22.5898 68.5534 22.513 69.0428C22.4598 69.3817 22.4079 69.7125 22.4555 69.9635C22.6358 70.638 22.8623 70.6724 23.1481 70.7158C23.2991 70.7387 23.4667 70.7641 23.6528 70.8878C23.6528 71.1089 23.473 71.2925 23.2923 71.4771C23.0168 71.7584 22.7392 72.042 23.0929 72.4639C23.2185 72.6245 23.3321 72.5138 23.443 72.4057C23.5528 72.2987 23.6599 72.1943 23.7733 72.3574C23.9097 72.5533 23.8539 72.6839 23.8044 72.8C23.771 72.8782 23.7404 72.9498 23.7733 73.0304C24.1623 74.271 24.4659 75.5361 24.6821 76.8172C24.716 76.9432 24.58 76.9771 24.4489 77.0098C24.2474 77.0601 24.0575 77.1075 24.5141 77.4817C24.6265 77.5703 24.7314 77.5755 24.8361 77.5807C24.968 77.5872 25.0998 77.5938 25.2462 77.7671C25.5187 78.0785 25.4743 78.234 25.4195 78.426C25.3851 78.5467 25.3465 78.6817 25.3797 78.8789C25.4019 79.0122 25.4917 79.1372 25.5811 79.2617C25.6831 79.4035 25.7846 79.5447 25.7846 79.6968C25.7846 80.0823 25.4976 79.804 25.2851 79.5227C25.3905 79.6941 25.3716 79.7296 25.3134 79.8387C25.298 79.8676 25.2799 79.9016 25.2605 79.9448C25.217 79.8412 25.1615 79.7434 25.0952 79.6533C25.1171 79.6539 25.1389 79.6499 25.1592 79.6416C25.1795 79.6333 25.1979 79.6208 25.2134 79.6049C25.2289 79.5891 25.241 79.5701 25.2491 79.5493C25.2565 79.5303 25.2604 79.5101 25.2606 79.4897C25.1332 79.3162 25.0397 79.1515 25.0654 79.1515C24.7562 79.0373 24.664 79.1301 24.5835 79.211C24.4958 79.2993 24.4219 79.3736 24.0963 79.1515C23.7728 78.8013 23.4736 78.4298 23.2005 78.0398C23.1651 77.9407 23.2286 77.8128 23.2938 77.6815C23.3632 77.5416 23.4345 77.398 23.39 77.2815C23.2684 77.1455 23.1224 77.0329 22.9594 76.9493C22.9489 76.7773 22.9883 76.7253 23.0316 76.6682C23.0773 76.6079 23.1273 76.5419 23.1273 76.3231C23.0396 75.7033 22.8836 75.0948 22.6622 74.5085C22.2918 74.3424 22.2918 75.2412 22.2918 75.3605C22.3747 75.5928 22.4907 75.8123 22.6364 76.0122C22.6982 76.0886 22.6712 76.3672 22.6511 76.575Z" fill="#C23033"/>
<path d="M25.1169 81.3773C24.8537 81.097 24.5918 80.8183 24.3978 81.1024V81.1152C24.3864 81.1234 24.4456 81.2182 24.5301 81.3535C24.7966 81.7803 25.3145 82.6098 24.6605 82.3931C24.1904 81.5417 23.8012 80.6491 23.4977 79.7266C23.3898 79.4965 23.3126 79.215 23.2408 78.9532C23.1837 78.7449 23.13 78.5491 23.067 78.4018C23.0094 78.2671 22.9277 78.2185 22.8509 78.1729C22.7383 78.106 22.6364 78.0453 22.6364 77.7288C22.7806 77.9652 22.9475 78.1931 23.1144 78.421C23.2813 78.6489 23.4482 78.8768 23.5925 79.1132C23.6963 79.2833 23.7627 79.4826 23.8293 79.6824C23.9479 80.0379 24.0669 80.3949 24.3978 80.5913H24.4926C24.6549 80.5913 24.74 80.543 24.8088 80.5039C24.9134 80.4445 24.9805 80.4063 25.2247 80.5913C25.5158 80.9172 25.6699 81.3408 25.6554 81.7755C25.491 81.7755 25.3036 81.576 25.1169 81.3773Z" fill="#C23033"/>
<path d="M33.1203 92.5457H33.0044V92.0874C32.9299 92.1781 32.8263 92.242 32.71 92.269C32.71 92.3219 32.71 92.3574 32.7292 92.3741C32.2558 92.3434 31.741 92.0763 31.9294 91.5122C31.4833 91.9057 30.6938 91.8106 30.8053 91.0408C30.8053 90.9284 30.9417 90.8306 31.0802 90.7312C31.1922 90.6509 31.3056 90.5695 31.3495 90.4787C31.3492 90.1457 31.3942 89.8142 31.4833 89.4927C31.0331 88.6945 30.9408 89.1087 30.85 89.5165C30.804 89.7229 30.7585 89.9277 30.667 89.9727C30.0372 90.2716 30.1263 90.0069 30.2175 89.7358C30.2503 89.6383 30.2834 89.54 30.2834 89.4667C29.873 89.5748 29.3021 89.4667 29.3913 88.9046C29.4439 88.5729 29.7807 88.5859 30.0983 88.5982C30.3191 88.6067 30.5307 88.6149 30.6313 88.5067C31.7376 89.2159 30.783 87.365 30.5109 88.3251C30.5109 87.8998 30.0445 88.1212 29.6968 88.2862C29.5636 88.3494 29.4478 88.4044 29.3824 88.4116C29.2676 88.4242 29.1759 88.4837 29.0951 88.5361C29.0096 88.5917 28.9362 88.6393 28.8605 88.6148C28.6223 88.5502 28.5253 88.2636 28.4303 87.9829C28.3473 87.7379 28.2658 87.4973 28.0933 87.4126C27.4168 87.1952 27.9464 87.818 28.1959 88.1114C28.2491 88.174 28.2896 88.2216 28.3029 88.2429C28.5835 88.797 28.9244 89.3203 29.3199 89.804C29.5838 90.1281 29.8449 90.4989 30.1024 90.8646C30.3018 91.1478 30.4991 91.4279 30.6938 91.6809C31.0912 92.0713 31.5112 92.4394 31.9517 92.7836C32.2365 93.0749 32.332 93.2908 32.3877 93.4168C32.4179 93.4852 32.4364 93.527 32.4672 93.54C32.5157 93.5606 32.5946 93.5092 32.7982 93.3768C32.8381 93.3509 32.8828 93.3218 32.933 93.2896C32.9824 93.2566 33.033 93.2257 33.0821 93.1958C33.3878 93.0092 33.6328 92.8596 33.1293 92.4982L33.1203 92.5457Z" fill="#C23033"/>
<path d="M38.9503 89.35C39.1109 89.1943 38.7139 88.6754 38.6024 88.5932C38.5511 88.5554 38.4368 88.577 38.3148 88.6001C38.1712 88.6272 38.017 88.6563 37.9422 88.5932C37.6686 88.3571 37.6669 88.3472 37.6601 88.3079C37.6559 88.2832 37.6496 88.2468 37.572 88.1348C37.5034 88.0359 37.4599 87.9344 37.4164 87.8332C37.3326 87.638 37.2491 87.4436 36.9877 87.2699C36.7918 87.1398 36.7024 87.138 36.6218 87.1365C36.5391 87.1348 36.4658 87.1334 36.2963 86.9931C36.1278 86.8112 35.9714 86.6191 35.8279 86.418C35.7768 86.3566 35.7388 86.2751 35.7006 86.1933C35.6555 86.0965 35.6101 85.9992 35.5424 85.9336C35.2287 85.7362 34.9306 85.5165 34.6503 85.2763C34.477 84.9847 34.7039 84.7071 34.8234 84.5608C34.867 84.5075 34.8963 84.4717 34.8867 84.459C34.7484 84.2168 33.6467 84.0741 33.5084 84.1563C33.0147 84.4435 33.133 84.5815 33.3989 84.8915C33.4332 84.9316 33.4701 84.9746 33.5084 85.0212C33.5734 85.109 33.6916 85.1417 33.8114 85.1749C33.9218 85.2054 34.0334 85.2363 34.1061 85.3109C34.1918 85.3989 34.2234 85.5103 34.2548 85.6211C34.2789 85.7063 34.303 85.7911 34.3515 85.8645C34.4039 85.9438 34.407 86.0499 34.41 86.1513C34.4133 86.2655 34.4165 86.3737 34.4897 86.431C34.596 86.514 34.7206 86.4695 34.7909 86.4444C34.8121 86.4368 34.8284 86.431 34.8377 86.431C34.9763 86.5845 35.1253 86.729 35.2837 86.8634C35.335 86.9037 35.3969 86.9503 35.4654 87.0017C35.8083 87.2592 36.3141 87.6389 36.4479 87.9705C36.5336 88.1828 36.4008 88.2572 36.2902 88.3191C36.1935 88.3733 36.1137 88.418 36.2115 88.537C36.3259 88.6762 36.5453 88.6635 36.7674 88.6506C36.9522 88.6398 37.139 88.629 37.2687 88.7056C37.3972 88.7816 37.4652 88.9347 37.5381 89.0991C37.6271 89.2997 37.7236 89.517 37.9467 89.6311C38.3526 89.8386 38.9548 89.8084 38.9548 89.3543L38.9503 89.35Z" fill="#C23033"/>
<path d="M29.4091 65.466C29.6186 65.7718 29.5872 66.2739 29.5546 66.793C29.5255 67.2577 29.4955 67.736 29.6366 68.0996C29.6759 68.1997 29.7477 68.2813 29.8205 68.3641C29.905 68.4601 29.9908 68.5577 30.0292 68.6877C30.0684 68.8209 29.9903 68.8664 29.9121 68.9121C29.848 68.9495 29.7838 68.9869 29.7838 69.0726C29.7838 69.206 29.9 69.3181 29.9695 69.3852C29.9991 69.4138 30.0202 69.4342 30.0202 69.4445C30.0202 69.2629 30.1674 70.5516 30.0202 70.0715C30.0202 70.2142 30.0202 71.0056 30.5287 70.4434C30.5644 70.068 30.5644 69.6902 30.5287 69.3148C30.5287 69.2249 30.5244 69.1301 30.5201 69.0341C30.4956 68.4968 30.4693 67.918 31.1844 67.918C30.6601 67.5587 30.3003 67.016 30.1808 66.4044C30.1211 66.1752 30.1095 65.9059 30.0977 65.631C30.0681 64.9414 30.037 64.2164 29.2396 64C29.2374 64.0672 29.2319 64.1487 29.2259 64.2385C29.1964 64.6808 29.1533 65.3258 29.4091 65.466Z" fill="#C23033"/>
<path d="M31.0239 72.93C30.551 72.4976 30.0827 74.0025 30.3146 74.383C30.4359 74.582 30.6071 74.6911 30.778 74.8C30.934 74.8994 31.0897 74.9986 31.2067 75.1658C31.1042 75.023 31.2067 75.9355 31.2067 75.9355C31.2067 75.9355 31.5478 76.0182 31.6335 75.9666L31.6216 76.0073C31.5839 76.1374 31.5205 76.3564 31.4788 76.2123C31.4164 75.996 31.4788 76.8609 31.4788 76.7874C31.4497 76.9704 31.4613 77.1573 31.5128 77.3356C31.5644 77.5138 31.6547 77.6793 31.7777 77.821C32.0632 77.7388 32.2238 77.821 32.2461 78.0977C32.3243 78.2991 32.4747 78.4665 32.6698 78.5691C32.6997 78.5808 32.7295 78.5938 32.7592 78.6067C32.9377 78.6845 33.1152 78.7619 33.3255 78.5691C33.7755 78.184 33.323 77.9789 32.985 77.8257C32.8371 77.7587 32.7111 77.7016 32.6921 77.6437C32.662 77.5518 32.6963 77.4137 32.7353 77.2564C32.7771 77.0878 32.8244 76.8972 32.8036 76.7182C32.7466 76.2533 32.4215 75.9622 32.1066 75.6803C31.8796 75.477 31.6579 75.2785 31.5458 75.023C31.332 74.3353 31.1577 73.6365 31.0239 72.93Z" fill="#C23033"/>
<path d="M39.2536 88.0267C39.2536 87.6159 39.9495 87.9532 40.0253 88.0267C40.0493 88.0499 40.038 88.1451 40.0232 88.2696C39.9913 88.5386 39.9431 88.9449 40.1993 89.0602C41.0379 89.4927 41.4348 88.2559 40.8059 87.7629C40.5307 87.5472 40.358 87.5037 40.2074 87.4658C40.0139 87.417 39.8569 87.3775 39.5659 86.9931C39.4787 86.9993 39.3925 86.9726 39.3252 86.9186C39.2579 86.8646 39.2147 86.7875 39.2046 86.7034C39.0707 86.5218 39.1287 86.4266 39.3785 86.4137C39.3785 86.3889 39.3813 86.3631 39.384 86.3377C39.3956 86.2301 39.4066 86.1283 39.2046 86.1283C38.9896 86.1644 38.7922 86.1091 38.6376 86.0658C38.3302 85.9796 38.1925 85.941 38.424 86.7639L38.4516 86.8365C38.6175 87.2733 38.9037 88.0267 39.2536 88.0267Z" fill="#C23033"/>
<path d="M33.0044 89.9251C33.2968 90.0924 33.416 90.2634 33.5174 90.409C33.6572 90.6099 33.7635 90.7624 34.2444 90.79C34.8287 90.79 35.1365 90.6732 35.1365 90.1067L35.1148 90.1278C34.999 90.2406 34.8035 90.4311 34.6905 90.4311L33.7983 89.7824C33.6437 89.6658 33.5119 89.5052 33.3779 89.3419C33.2335 89.166 33.0867 88.9871 32.9062 88.857C32.9062 88.857 31.5681 87.6548 31.5681 88.1608C32.1256 88.1608 32.536 89.0256 32.5092 89.4581C32.4964 89.6656 32.4188 89.7128 32.3456 89.7574C32.2662 89.8057 32.1918 89.8509 32.2104 90.0938C32.2104 90.2112 32.2888 90.3025 32.3654 90.3916C32.4382 90.4763 32.5092 90.5591 32.5092 90.6603C32.5192 90.6286 32.524 90.5563 32.53 90.4658C32.5536 90.1109 32.5958 89.4772 33.04 89.9251H33.0044Z" fill="#C23033"/>
<path d="M27.1655 85.4061C26.6475 85.2766 26.6489 84.7428 26.6503 84.2238C26.6512 83.8757 26.6522 83.5343 26.4964 83.326C26.2109 83.109 25.8876 82.9435 25.5418 82.8373C25.2643 82.9378 25.3797 83.2525 25.4831 83.5346C25.5043 83.5925 25.5251 83.6491 25.5418 83.7022C25.6317 84.1459 25.8375 84.5599 26.1395 84.9044C26.0013 85.1423 26.0503 85.2763 26.2734 85.298C26.3238 85.3001 26.3726 85.3158 26.4143 85.3433C26.4561 85.3708 26.4891 85.409 26.5098 85.4536C26.5668 85.5462 26.616 85.6431 26.657 85.7434C26.6984 85.8468 26.7124 85.9955 26.7257 86.1379C26.7525 86.4242 26.777 86.685 27.0183 86.5002C27.1583 86.3586 27.2481 86.1774 27.2746 85.983C27.3011 85.7885 27.2629 85.591 27.1655 85.419V85.4061Z" fill="#C23033"/>
<path d="M24.1546 67.8704C24.1546 67.985 24.148 68.1489 24.1401 68.3443C24.0974 69.4025 24.0174 71.3857 24.7478 71.477C24.7478 71.1994 24.8264 70.9402 24.9013 70.693C24.9758 70.4474 25.0467 70.2135 25.0333 69.9851C25.0196 69.751 24.9141 69.6432 24.8206 69.5477C24.731 69.4562 24.6525 69.376 24.6765 69.2067C24.6983 69.0529 24.8081 69.0213 24.9235 68.9881C25.0678 68.9466 25.2207 68.9026 25.2207 68.6142C25.2207 68.5809 25.0629 68.4104 24.9105 68.2456C24.7857 68.1107 24.6644 67.9796 24.6363 67.9309C24.5829 67.8023 24.5769 67.6268 24.5707 67.4472C24.563 67.2222 24.5551 66.9907 24.4534 66.8368C23.961 66.1499 24.0623 67.018 24.1248 67.5538C24.141 67.6925 24.1546 67.809 24.1546 67.8704Z" fill="#C23033"/>
<path d="M36.8984 92.9522C37.1422 93.3215 37.1973 93.0602 37.2305 92.9032C37.2353 92.8805 37.2396 92.8599 37.244 92.8438C37.2456 92.8426 37.2464 92.8399 37.2464 92.8355L37.244 92.8438C37.2042 92.8736 36.6877 91.9105 36.8961 92.064C36.8063 91.9966 36.7951 91.9472 36.7885 91.918C36.78 91.8802 36.7791 91.8761 36.6263 91.91C36.4299 91.9538 36.5171 92.2522 36.5808 92.4701C36.6053 92.554 36.6263 92.626 36.6263 92.6668C36.6263 92.7409 36.4722 92.7953 36.2925 92.8586C36.1156 92.921 35.914 92.992 35.8101 93.0993C35.6374 93.262 35.548 93.3092 35.5089 93.3299C35.493 93.3383 35.4854 93.3423 35.4839 93.3479C35.4825 93.353 35.4863 93.3595 35.4934 93.3718C35.5133 93.4063 35.5598 93.487 35.596 93.7133C35.596 94.0031 35.9706 94.5782 36.3676 94.5782C36.6457 94.5569 36.5765 94.1536 36.5074 93.7508C36.4224 93.2556 36.3376 92.7612 36.8984 92.9782V92.9522Z" fill="#C23033"/>
<path d="M35.5335 92.0874C35.6992 92.1039 35.8657 92.0658 36.0063 91.9792C36.0063 91.0798 34.7663 91.776 34.4808 91.9792C34.4049 92.0333 34.3299 92.0586 34.2677 92.0796C34.0963 92.1374 34.0229 92.1622 34.2979 92.6668C34.662 93.3349 34.6807 93.3171 35.0334 92.9824L35.0651 92.9522C35.0217 92.9906 35.0509 92.8676 35.0817 92.7375C35.1206 92.5741 35.162 92.3994 35.0651 92.5198C35.1526 92.4067 35.2119 92.3647 35.2787 92.3174C35.3447 92.2706 35.4182 92.2185 35.5335 92.0874Z" fill="#C23033"/>
<path d="M42.4429 90.1889C42.5901 90.323 43.1611 90.6689 43.4064 90.5262C43.7533 90.3327 43.2575 89.9251 42.8772 89.6123C42.7391 89.4988 42.6162 89.3977 42.5544 89.324C41.1404 87.884 42.3314 90.1889 42.4429 90.1889Z" fill="#C23033"/>
<path d="M34.6548 82.366C34.8912 82.6038 36.2561 81.0903 34.6548 81.6092C34.568 81.6368 34.4741 81.6307 34.3863 81.6251C34.2122 81.6139 34.0614 81.6043 34.0348 81.86C33.9946 82.2449 34.3068 82.366 34.6548 82.366Z" fill="#C23033"/>
<path d="M37.9511 93.216C38.3615 93.216 38.7094 92.5674 38.6247 92.269C38.5399 91.9706 38.2634 91.75 38.0894 91.776C37.8139 91.776 37.9349 91.9179 38.0562 92.0601C38.1312 92.148 38.2063 92.236 38.1875 92.2906C38.1753 92.3261 38.0848 92.395 37.9731 92.4799C37.6363 92.7358 37.107 93.1381 37.9511 93.216Z" fill="#C23033"/>
<path d="M34.0437 87.7499C34.0437 87.7499 32.371 88.0397 33.3344 88.4937C33.3344 88.4937 34.5745 88.3251 34.3381 88.4937C34.6012 88.3164 34.7618 87.7759 34.0437 87.7759V87.7499Z" fill="#C23033"/>
<path d="M31.7509 86.1412C32.4049 86.6804 33.4405 85.5934 32.3262 85.5748C32.6098 85.5832 31.6145 86.006 31.8 85.8861C31.9874 85.765 31.4387 85.5747 31.3539 85.5747C31.3093 85.8991 31.4209 86.1412 31.7688 86.1412H31.7509Z" fill="#C23033"/>
<path d="M39.2358 81.5141C38.8299 80.9346 38.6559 81.7043 38.8299 82.0892C39.2046 82.9325 39.7755 82.366 39.2536 81.5141H39.2358Z" fill="#C23033"/>
<path d="M39.5971 96.7145C39.9539 96.7145 39.3741 96.174 39.2358 96.1394C38.4596 95.9577 38.6113 96.9913 39.6149 96.7145H39.5971Z" fill="#C23033"/>
<path d="M35.9663 89.925C36.2112 89.687 35.4799 88.9997 35.0205 89.1813C35.0495 89.2244 35.0773 89.2669 35.1044 89.3085C35.3245 89.6457 35.5024 89.9183 35.9663 89.925Z" fill="#C23033"/>
<path d="M34.2197 88.707C33.8552 88.707 33.8552 89.5771 34.3511 89.2769C34.635 89.1421 34.7029 88.8027 34.2197 88.707Z" fill="#C23033"/>
<path d="M33.9231 94.0017C34.4147 94.0017 34.4655 93.2056 34.0502 93.2186C33.6349 93.2317 33.5755 94.0017 33.9231 94.0017Z" fill="#C23033"/>
<path d="M29.5155 81.3066C29.2443 80.654 29.7274 80.654 30.058 80.654H30.0749C30.0749 80.6888 29.685 81.672 29.5155 81.3066Z" fill="#C23033"/>
<path d="M30.5326 81.5719C30.2148 81.5719 30.3292 82.2506 30.5326 82.3942C30.7361 82.5378 31.0751 81.5719 30.5326 81.5719Z" fill="#C23033"/>
<path d="M39.4961 83.5819C39.352 84.0518 38.8137 83.3731 38.8816 83.012H38.8731C39.1697 82.8075 39.5808 83.2774 39.4961 83.5819Z" fill="#C23033"/>
<path d="M43.5858 90.0253C43.4798 89.9774 44.6707 89.9643 44.1409 90.3167C43.8018 90.6116 43.7182 90.3546 43.6582 90.1703C43.635 90.099 43.6153 90.0386 43.5858 90.0253Z" fill="#C23033"/>
<path d="M35.7666 83.4862C35.9997 83.4862 36.0845 82.9511 35.9531 82.7814C35.8217 82.6117 35.4954 83.2774 35.7666 83.4862Z" fill="#C23033"/>
<path d="M30.2402 83.1931C30.2458 83.1936 30.2514 83.1942 30.2572 83.1947L30.2402 83.1817C30.2402 83.1855 30.2402 83.1893 30.2402 83.1931Z" fill="#C23033"/>
<path d="M29.7983 83.6599C29.7777 83.3498 29.7643 83.1495 30.2402 83.1931C30.2396 83.5163 30.21 83.8692 29.8079 83.8821C29.8079 83.8036 29.803 83.729 29.7983 83.6599Z" fill="#C23033"/>
<path d="M30.8729 71.5807C30.849 71.6777 30.8208 71.7924 30.8208 71.9266L30.8039 71.9135C30.6767 71.8134 30.0834 71.0869 30.6004 71.1739C30.9581 71.2341 30.9264 71.363 30.8729 71.5807Z" fill="#C23033"/>
<path d="M27.672 84.6217C27.6965 84.7213 27.732 84.8176 27.7779 84.9089C27.8839 85.0177 28.1805 85.6137 27.744 85.6137C27.5194 85.6137 27.672 84.6217 27.672 84.6217Z" fill="#C23033"/>
<path d="M28.5789 84.5956C28.5916 84.6435 27.8627 84.0388 28.5069 84.0388L28.7103 83.93C28.9476 83.995 28.7502 84.3073 28.6403 84.4813C28.6029 84.5404 28.5757 84.5835 28.5789 84.5956Z" fill="#C23033"/>
<path d="M32.3807 74.0547C32.3602 73.9749 32.3572 73.8915 32.3719 73.8104V73.5189C32.3758 73.5245 32.3801 73.5305 32.3846 73.5369C32.5175 73.7263 32.9005 74.2716 32.4906 74.2716C32.4388 74.2085 32.4013 74.1344 32.3807 74.0547Z" fill="#C23033"/>
<path d="M31.9227 91.1782C31.643 91.213 31.4311 91.1434 31.643 90.7779V90.7736C31.6733 90.794 31.702 90.8106 31.7288 90.826C31.8444 90.8928 31.9227 90.9379 31.9227 91.1782Z" fill="#C23033"/>
<path d="M27.494 84.6261C27.2143 84.6 27.2143 84.4434 27.2143 84.1649V84.1606C27.2143 84.3141 27.2818 84.3367 27.3507 84.3596C27.4282 84.3855 27.5074 84.4119 27.494 84.6261Z" fill="#C23033"/>
<path d="M66.0315 75.1988V71.6797C66.0315 71.1987 66.29 69.3337 65.9571 69.0847C65.6241 68.8358 62.9167 69.0847 62.3078 69.0847C61.6989 69.0847 59.0046 68.6628 58.4001 69.0847C58.0102 69.3463 58.2292 70.8358 58.2292 71.3632V73.8148C58.2292 74.0342 58.3738 74.9836 58.2292 75.1397C58.0846 75.2958 56.0125 75.2199 55.4868 75.2199H51.7148C52.1266 71.7008 52.1529 68.0214 52.9327 64.6711C53.1036 63.9411 52.8101 64.2492 53.4541 64.0382C54.098 63.8272 55.4517 64.3631 56.2315 64.0382C56.6214 63.861 56.5207 64.0382 56.5338 63.4728C56.5338 62.6289 55.9249 62.6626 55.1976 62.2998C54.1821 61.788 53.2469 61.1402 52.4202 60.3757H56.5338L53.7607 57.5402C55.8153 58.0085 58.0452 58.6414 60.0648 57.7638C60.7701 57.4473 61.6594 56.7216 62.3297 56.8482C63.0938 57.1251 63.8275 57.4742 64.5201 57.8904C66.198 58.6204 68.5856 57.9874 70.3993 57.8229L67.9635 60.3883H71.788C70.7278 61.2829 69.5099 61.8441 68.3928 62.6415C67.6744 63.1479 67.7839 63.169 67.7839 64.0719C68.4279 64.0719 70.741 63.7091 71.1572 64.0719C71.5733 64.4348 71.3981 66.7809 71.4463 67.2956L72.191 75.2621L66.0315 75.1988Z" fill="#7F8082"/>
</svg>
