<svg width="498" height="128" viewBox="0 0 498 128" fill="none" xmlns="http://www.w3.org/2000/svg">
<path d="M55.6628 93.7427H25.5296C25.5296 93.7427 14 82.4887 14 53.5498C14 26.8617 25.5296 14 25.5296 14H57.9136C57.9136 14 37.0593 27.8264 37.0593 53.2283C37.0593 78.9518 55.6628 93.7427 55.6628 93.7427V93.7427ZM44.6385 34.2572H74.7717C74.7717 34.2572 86.3013 45.5112 86.3013 74.4501C86.3013 101.138 74.7717 114 74.7717 114H42.3877C42.3877 114 63.2421 100.174 63.2421 74.7717C63.1961 49.0482 44.6385 34.2572 44.6385 34.2572V34.2572Z" fill="#E50113"/>
<path d="M483.454 40.4128C483.867 40.4128 484.097 40.7803 484.097 41.3774C484.097 42.9392 483.683 44.6388 482.811 46.7977C481.938 48.9107 480.881 50.2888 479.825 51.0237C478.539 51.8046 477.252 52.1721 475.737 52.1721C474.45 52.1721 472.751 51.9883 471.235 51.5749C469.535 51.3912 468.203 51.2075 467.376 51.2075C466.504 51.2075 465.861 51.5749 465.677 52.1721C465.263 52.7692 465.034 54.1014 465.034 55.8469C464.804 57.7761 464.62 60.1188 464.62 62.783L464.85 71.6484C464.85 73.5777 464.62 75.1395 464.207 76.1041C463.794 77.0687 463.15 77.8496 462.278 78.6305C461.405 79.4114 460.578 79.5951 459.705 79.5951C458.833 79.5951 458.006 79.2277 457.363 78.263C456.72 77.2984 456.49 76.3338 456.49 75.1854V74.772C456.49 73.4399 456.49 70.9135 456.72 67.2387C456.72 62.9668 456.949 59.5217 456.949 56.8115C456.949 54.1014 456.72 52.3558 456.536 51.5749C456.306 50.9778 455.893 50.4266 455.25 50.0132C454.607 49.5997 453.55 49.416 452.264 49.416C449.048 49.416 444.731 50.0132 439.356 51.1615C436.784 51.7127 435.038 51.9424 433.568 51.9424C431.18 51.9424 430.123 51.1615 430.123 49.6457C430.123 48.6811 430.537 47.1193 431.41 45.19C432.466 43.077 433.982 42.1124 436.37 42.1124C437.427 42.1124 438.529 42.2961 440.045 42.4799C441.331 42.6636 442.618 42.8473 444.133 42.8473C445.649 42.8473 447.119 42.6636 448.635 42.4799C450.151 42.1124 454.882 41.8827 462.829 41.8827C466.504 41.8827 469.076 42.0665 470.546 42.0665C471.832 42.2502 473.348 42.2502 474.634 42.2502C478.079 42.2502 480.422 41.8827 482.167 41.1018C482.581 40.6425 482.994 40.4128 483.454 40.4128V40.4128ZM356.214 63.0127V68.7086H354.882C353.137 68.8923 350.932 68.6627 348.773 69.0761C348.13 69.0761 347.487 69.2598 346.844 69.2598C343.858 69.811 341.699 70.4082 340.183 71.1431C338.667 71.8781 337.611 72.2915 336.968 72.4752C336.325 72.4752 335.268 72.659 333.982 72.659C333.201 72.659 332.42 72.659 331.455 72.7968L331.226 72.8427C330.858 72.8427 330.537 72.659 330.307 72.613H330.261C328.883 72.7968 328.056 73.1183 327.643 73.3021C327.229 73.6695 326.862 73.8074 326.449 73.8074C326.035 73.8074 325.851 73.4399 325.851 72.9346C325.851 72.2456 326.035 71.5566 326.632 70.5001C327.046 69.4436 328.24 68.5708 330.215 68.0655C330.629 67.8818 330.812 67.8818 331.226 67.698C332.925 67.1468 334.257 66.3659 335.498 65.2176C337.014 63.8854 337.84 62.3696 338.3 60.67C338.713 58.7867 339.356 55.5253 339.999 50.7941C340.642 45.8331 341.056 41.8368 341.056 38.6213C341.056 35.4059 340.642 32.9254 339.999 31.5933C339.999 30.8124 339.77 29.71 339.77 27.597C339.77 25.484 339.999 24.1519 340.183 23.7844C340.596 23.2332 341.056 22.8198 341.699 22.8198C342.572 22.8198 343.215 23.0035 343.858 23.371C344.271 23.7385 345.144 23.9222 345.787 23.9222C346.66 23.9222 347.303 23.7385 347.716 23.7385L348.773 23.5547C351.391 23.371 353.78 23.0035 356.214 22.7739H356.306C357.225 22.7279 359.246 22.0848 360.027 22.0848C362.553 22.0848 364.528 22.4523 365.769 22.8657C366.182 23.0495 366.458 23.0495 366.733 23.0495C367.009 23.0495 367.285 22.8657 367.698 22.682C368.111 22.4982 368.525 22.3145 369.122 22.3145C369.535 22.3145 369.949 22.4982 370.224 22.9117C370.638 23.0954 370.776 23.6925 370.776 24.2897C370.776 25.2543 370.5 26.4027 369.949 27.3673C369.398 28.332 368.846 29.8937 368.249 32.0067C367.698 34.1197 367.009 37.0596 366.274 40.3209C365.585 43.812 365.309 45.925 365.172 46.7059C365.034 47.303 365.034 48.4514 365.034 49.5997C365.034 50.9319 364.483 51.9424 363.334 52.4936C363.059 52.6774 362.921 52.8611 362.921 53.2745C362.921 54.0554 363.748 55.9847 365.447 59.0623C367.285 62.1399 369.122 64.6664 371.189 67.009C373.302 69.3517 374.818 70.5001 375.966 70.5001C376.793 70.5001 377.069 70.6838 377.069 70.8675C377.069 71.235 376.242 72.4293 374.542 74.1748C372.705 75.9204 371.327 76.885 370.041 76.885C368.938 76.885 367.79 76.2878 366.687 75.3232C365.585 74.1748 364.299 71.0513 363.059 66.2281C362.921 65.4472 362.783 65.2635 362.507 65.2635C362.37 65.2635 361.956 65.4472 361.543 66.0444C360.991 66.8253 360.44 67.1927 359.843 67.7899C359.292 67.9736 357.409 68.6167 356.26 68.6627H356.168V63.0127H356.214V63.0127ZM273.853 20.5231C274.496 20.5231 275.093 20.7068 275.737 20.8905C276.38 21.258 276.563 22.2226 276.793 24.106C276.793 25.9893 277.023 27.1377 277.023 27.3214C277.023 28.8372 276.609 30.3071 275.966 31.823C275.323 33.1551 274.726 34.625 274.496 36.1409C274.267 37.6567 274.083 40.6425 273.853 45.0063C273.44 49.3241 273.21 52.907 273.21 55.755C273.21 58.3733 273.44 61.0375 273.853 63.472C274.267 65.9066 274.496 67.7899 274.496 69.122C274.496 70.4541 274.267 71.97 273.853 73.8533C273.44 75.5529 273.026 76.4716 272.613 76.4716C272.383 76.4716 271.557 75.5529 270.316 73.6696C269.076 71.6025 268.249 65.2176 267.606 54.1013C267.606 52.953 267.193 52.4018 266.55 52.4018C265.723 52.4018 264.253 52.7692 261.956 53.5501C259.659 54.2851 257.96 55.066 256.949 55.8009C255.893 56.3522 255.066 56.7656 254.653 56.7656C254.239 56.7656 254.009 56.5818 254.009 55.8009C254.009 55.2497 254.239 53.7339 254.836 51.2993C255.479 49.0485 256.077 45.8331 256.49 42.0665C256.903 38.1161 257.133 35.4978 256.903 34.1657V30.399C256.903 29.2507 257.133 28.1482 257.546 27.1836C258.19 26.0352 258.787 25.6677 259.659 25.6677C260.532 25.6677 261.313 26.0352 262.186 26.9998C263.013 27.7348 263.426 29.2506 263.426 31.134C263.426 33.201 262.783 35.4518 261.359 38.1161C261.129 38.4835 260.946 39.4482 260.532 40.964C260.302 42.4799 260.119 43.5823 260.119 44.3632C260.119 45.0981 260.302 45.6953 260.302 45.879C260.532 46.2465 260.946 46.2465 261.543 46.2465C262.186 46.2465 263.196 46.0628 264.666 45.5116C266.136 45.1441 267.147 44.5469 267.606 43.9957C268.249 43.6282 268.433 43.0311 268.663 42.2961C268.892 41.7449 268.892 40.4128 269.076 38.5295V29.9397C269.076 26.3568 269.489 23.7385 270.316 22.4064C270.913 21.1202 272.154 20.5231 273.853 20.5231V20.5231ZM155.204 19.88C155.847 19.88 156.674 20.0637 157.317 20.6149C157.96 21.3499 158.373 22.0389 158.787 23.1873C159.016 23.9222 159.2 24.3356 159.613 24.5194C159.843 24.7031 160.44 24.8869 161.543 25.2543C162.37 25.4381 163.472 25.6218 164.069 25.6218C164.896 25.4381 165.952 25.4381 167.055 25.4381C168.341 25.4381 169.811 25.8055 172.154 26.3568H173.21C173.853 26.3568 174.267 26.173 175.139 25.8056C175.783 25.6218 176.426 25.4381 177.069 25.4381C177.482 25.4381 177.941 25.6218 178.355 25.9893C178.768 26.3568 178.998 26.7242 178.998 27.3214C178.998 28.2401 178.585 29.2047 177.712 30.1234C176.012 32.0067 174.542 34.4413 173.256 37.473C171.97 40.5047 171.557 42.1583 171.557 42.7555C171.557 43.3067 171.557 43.9038 171.786 44.2713C172.016 44.6388 172.2 45.0063 172.2 45.19C172.2 45.925 171.786 46.8896 170.913 47.8083C170.041 48.727 168.8 49.3241 166.687 49.3241L159.889 48.7729C159.476 48.7729 159.062 48.9567 158.833 49.5079C158.603 49.8753 158.419 50.6562 158.419 51.5749V51.7127C158.419 52.0343 158.465 52.3558 158.649 52.3558C158.833 52.5396 159.2 52.5396 159.613 52.5396H159.843C160.394 52.5396 161.818 52.5396 163.977 52.3558C166.55 52.1721 168.02 52.1721 168.249 52.1721C168.663 52.1721 169.076 51.9883 169.535 51.6209C170.178 51.4371 171.005 50.8859 172.291 50.105C172.521 50.105 172.705 49.9213 173.118 49.9213C173.348 49.9213 173.532 50.105 173.991 50.4725C174.221 50.6562 174.404 51.0237 174.404 51.3912C174.404 51.7587 174.175 52.3099 173.991 52.7233C172.935 54.9741 172.291 57.5924 172.291 60.6241L172.705 69.811C172.705 70.7297 172.062 71.6944 170.776 72.4293C169.719 73.348 168.846 73.7614 168.433 73.7614C168.203 73.7614 167.79 73.3939 167.79 72.8427C167.606 72.4752 167.376 71.3269 167.376 69.6273C167.193 68.1574 167.147 66.6415 167.147 64.896V59.292C167.147 58.3273 166.09 57.9599 163.564 57.9599H162.967C160.762 57.9599 159.476 58.0058 159.108 58.3273C158.465 58.6948 158.235 59.0623 158.235 59.6594L158.006 68.4789C158.006 70.7297 157.776 72.4293 157.363 73.7614V73.8074C157.133 74.1748 156.949 74.3586 156.72 74.5423C156.077 75.8744 155.25 76.4256 154.607 76.4256C153.964 76.4256 153.366 76.0582 152.953 75.0935C152.54 74.1748 152.31 72.8427 152.31 71.3269V67.9277C152.723 65.3094 152.953 62.6452 152.953 60.2107C152.953 59.292 152.54 58.6948 151.483 58.6948C151.253 58.6948 150.243 58.8786 148.543 59.0623C147.073 59.246 145.833 59.4298 145.19 59.7973C144.547 59.981 144.133 60.5322 143.95 61.1294C142.709 66.2281 141.01 69.3976 139.356 70.7297C137.473 72.0618 135.819 72.7968 134.12 72.7968C133.063 72.7968 132.007 72.613 130.996 72.2456C130.583 72.2456 129.572 71.5106 129.388 71.3728C127.918 70.7297 127.321 70.4082 127.321 70.0866C127.321 69.9029 127.551 69.7651 127.964 69.4436C129.021 69.122 130.215 68.8005 131.042 68.3411L131.41 68.1114C133.155 67.0549 134.717 65.7688 136.095 64.3907C138.392 62.1399 139.448 59.5217 139.448 56.1225C139.448 54.7904 140.091 54.0554 141.331 53.3205C142.572 52.7692 143.444 52.4018 144.042 52.4018C144.455 52.4018 145.098 52.5855 145.282 53.1367C145.695 53.5042 146.109 53.8717 146.522 53.6879C147.992 53.5042 149.646 53.3205 151.116 53.1367C152.769 52.953 153.412 51.9884 153.412 50.5184C153.412 49.5997 152.999 49.0026 152.172 49.0026C151.345 49.0026 149.646 49.1863 146.935 49.5538C144.225 50.105 141.929 50.4725 140.045 50.8859C138.162 51.4371 136.922 51.6209 136.692 51.6209C136.462 51.6209 136.279 51.4371 136.279 51.2534C136.279 50.8859 136.508 50.3347 136.922 49.5538C137.335 48.8189 137.565 47.6705 137.978 46.3384C138.392 44.9144 138.392 43.812 138.392 42.8933V40.8721C138.392 39.1726 138.621 37.8404 138.805 36.9218C139.218 35.8193 139.218 35.0384 139.218 34.3035C139.218 33.5685 138.989 32.7876 138.575 31.8689C137.932 30.9502 137.335 30.3531 136.692 30.1694C136.049 29.9856 135.636 29.6181 135.636 29.2507C135.636 28.8832 136.049 28.332 137.105 27.9185C137.932 27.3673 138.759 27.1836 139.402 27.1836C140.045 27.1836 140.459 27.1836 140.872 27.3673H141.699C142.755 27.3673 143.996 26.9999 145.879 26.4027C147.762 25.6677 149.232 25.0706 150.289 24.8869C151.116 24.7031 151.529 23.9682 151.942 23.0035C152.356 21.8552 152.769 21.1202 153.183 20.569C153.55 20.0637 154.377 19.88 155.204 19.88V19.88ZM318.318 19.4666C319.696 19.4666 320.339 20.0637 320.339 21.2121L319.926 23.9222C319.926 24.7031 320.753 25.0706 322.131 25.0706H322.223C322.636 25.0706 323.417 25.0247 324.749 24.7031C326.127 24.5194 327.551 24.3356 329.159 24.3356C329.572 24.3356 329.94 24.3356 330.537 24.5194V31.4555C329.159 31.6393 327.551 31.6393 325.53 31.6393C322.728 31.6393 320.523 31.823 318.915 32.2364C317.124 32.8336 315.929 33.5685 314.919 34.7628C314.506 35.1303 314.138 35.5437 313.725 35.9112C313.311 36.2787 312.944 36.6921 312.944 36.8758C312.944 37.2433 313.265 37.2433 313.954 37.2433H314.138C314.322 37.2433 314.735 37.2433 315.149 37.0596C317.951 36.0949 321.763 35.4978 326.127 35.4978C327.551 35.4978 328.929 35.4978 330.537 35.6815V41.8827C329.526 42.2502 328.332 42.4799 326.954 42.6636C324.933 42.8473 323.738 43.0311 323.141 43.2608C322.728 43.6282 322.544 44.2254 322.544 45.19C322.544 46.1546 323.141 46.5221 324.336 46.3384C326.357 46.1546 328.332 45.9709 330.537 45.9709H332.099C332.971 45.9709 333.477 46.3384 333.477 46.8437C333.477 47.5327 332.788 48.4054 331.41 49.8294C331.042 50.1969 330.72 50.84 330.537 51.1615C329.159 52.1262 327.918 52.7233 326.54 52.9071C324.749 53.0908 323.555 53.2745 322.958 53.5042C322.544 53.8717 322.177 54.4688 321.947 55.2497C321.763 56.2143 321.35 57.179 320.936 58.1436C320.339 59.292 320.155 60.0729 320.155 60.4403C320.155 61.405 320.569 61.7725 321.35 61.7725C321.763 61.7725 322.131 61.5887 322.544 61.1753C325.346 59.246 327.321 57.9139 328.745 57.5005C329.342 57.3168 329.94 56.9034 330.537 56.7196V60.5781C329.526 62.1399 327.918 63.2883 326.357 64.4367C325.162 65.0338 323.371 66.3659 320.936 68.4789C318.318 70.5919 315.93 72.7509 313.725 74.8639C312.714 75.8285 311.933 76.2419 310.923 76.2419C310.142 76.2419 309.728 75.8744 309.728 75.0935C309.728 74.1289 310.142 73.1643 310.739 72.0159C312.944 68.3411 314.551 65.0797 315.332 62.1399C316.343 59.246 316.94 57.3168 316.94 56.3522C316.94 55.5713 316.527 55.02 315.929 55.02C315.746 55.02 315.149 55.2038 314.138 55.3875C313.127 55.5713 312.53 55.755 311.933 55.9847C311.52 56.1684 310.923 56.3522 310.142 56.3522C309.545 56.3522 308.718 55.9847 307.937 55.5713C307.34 55.1578 306.926 54.4229 306.926 53.4583C306.926 52.4936 307.34 51.529 307.937 50.5644C308.718 49.5997 309.545 49.2323 310.325 49.2323H311.336C311.933 49.2323 312.76 49.0485 313.357 48.6351C313.771 48.2676 314.735 48.038 315.975 47.6705C317.17 47.303 317.997 46.5221 317.997 45.7412C317.997 44.7766 317.583 44.1795 317.17 44.1795C316.573 44.1795 315.975 44.3632 315.195 44.5469C314.184 44.7307 313.587 44.7307 313.173 44.7307C311.382 44.7307 310.371 43.3986 310.371 40.8721L310.555 38.5754C310.555 37.7945 310.142 37.427 309.545 37.427C308.35 37.427 307.156 37.2433 305.962 36.6461C304.767 36.049 304.17 35.314 304.17 34.7169C304.17 34.1197 305.181 32.7876 306.972 30.8584C308.764 28.9291 310.188 27.597 310.969 26.8161C313.357 24.8869 315.149 23.1413 315.975 21.5796C316.71 20.0637 317.537 19.4666 318.318 19.4666V19.4666ZM423.784 37.0596C424.427 37.0596 425.3 37.2433 425.943 37.8404C426.816 38.4376 427.229 39.1726 427.229 40.1372C427.229 40.9181 427 41.8827 426.586 42.4339C425.943 43.2148 425.484 43.766 424.841 44.1795C424.198 44.5469 423.555 45.1441 422.866 46.2924C422.223 47.4408 421.993 48.2217 421.993 48.8188L422.452 59.0164C422.682 63.2424 422.682 67.1009 422.682 70.1785C422.682 74.2208 419.834 76.3338 414.414 76.3338C412.255 76.3338 410.739 76.15 409.866 75.7366C408.764 75.1395 408.35 74.4964 408.35 73.8992C408.35 73.3021 408.764 72.8887 409.636 72.659C410.739 72.659 411.612 72.2456 412.255 71.4647C413.127 70.6378 413.771 70.2704 414.23 69.0301C414.322 68.8464 414.276 68.9842 414.46 68.6167C414.689 67.6521 414.919 66.6875 414.919 65.7228C415.103 64.6663 415.149 63.3802 415.149 62.0021V61.6806C415.149 60.1647 415.149 58.4192 415.378 56.8574C415.608 55.3416 415.608 53.7798 415.608 52.4477C415.608 51.1156 415.149 50.9778 414.506 50.9778C413.862 50.9778 412.852 51.7587 411.566 52.953C410.325 54.1473 408.626 55.2957 406.559 56.49C404.446 57.4546 403.022 58.0517 402.149 58.0517C400.909 58.0517 400.266 57.2708 400.266 55.7091C400.266 54.1473 400.679 52.3558 401.322 50.6103C401.965 48.8648 402.792 47.8542 404.032 47.8542C404.262 47.8542 404.446 48.038 404.675 48.038C404.905 48.2217 405.089 48.2217 405.319 48.2217C407.432 48.2217 410.325 46.5221 414.506 43.9957L415.149 43.6282C419.742 40.9181 422.131 39.0347 422.36 38.2539C422.452 37.427 423.095 37.0596 423.784 37.0596V37.0596ZM130.904 35.36H131.547C132.788 35.36 133.201 35.6356 133.201 36.4165C133.201 37.3811 132.558 38.5295 131.318 40.0912C131.088 40.275 131.088 40.4587 130.904 40.6884C129.618 42.0205 127.964 42.7555 125.851 42.9392C125.438 42.9392 124.565 43.1229 123.095 43.3067C121.809 43.4904 120.982 43.6742 120.753 43.8579C120.385 44.1794 120.339 44.501 120.339 44.8685V45.0063C120.339 45.5575 120.339 45.925 120.523 45.925C120.753 46.1087 121.35 46.1087 122.406 45.925C123.463 45.925 124.933 45.7412 126.862 45.7412C128.562 45.7412 129.848 45.925 130.445 46.1087H130.858C131.272 46.2924 131.501 46.7059 131.501 47.2111C131.501 48.0839 131.318 49.0026 130.858 49.6916L130.766 49.7835C130.629 49.9213 130.629 50.0591 130.491 50.1969L130.399 50.2888C129.756 51.2534 128.699 51.9884 127.459 52.3558C125.989 52.7233 123.876 53.3205 121.12 53.6879C120.477 53.8717 120.064 54.2391 119.834 55.02L119.421 59.1542C119.191 60.67 119.604 61.405 120.477 61.405C121.12 61.405 122.59 60.67 124.933 59.3379C127.459 58.0058 128.929 57.0871 129.572 56.3062C130.215 55.755 130.445 55.5713 130.858 55.5713C131.088 55.5713 131.088 55.755 131.088 56.0765C131.088 56.1225 131.088 56.6737 130.904 57.179L130.858 57.2709C130.445 57.8221 130.215 58.603 129.802 59.5217C128.745 61.405 127.918 62.7371 127.275 63.2883C126.632 64.0232 125.576 64.8041 124.106 65.5391C117.767 69.6732 113.311 72.7049 111.014 74.5883C110.371 74.9557 109.958 75.1394 109.545 75.1394C108.901 75.1394 108.488 74.5883 108.488 73.4399C108.488 72.2915 108.718 71.0053 109.131 69.857C109.774 68.5248 111.014 66.2741 112.944 62.8749C113.357 62.1399 113.771 60.9916 114.184 59.1082C114.597 57.4087 114.827 56.2603 114.827 55.8928C114.827 55.5253 114.597 55.3416 114.184 55.3416C114.184 55.3416 113.357 55.5253 112.071 55.8928C110.785 56.2603 109.728 56.6278 108.901 56.8115C108.075 57.179 107.432 57.3627 106.559 57.3627C104.675 57.3627 103.803 56.0306 103.803 53.4123C103.803 50.794 105.273 49.4619 108.442 49.0945C109.728 49.0945 110.785 48.9107 111.841 48.5433C112.898 48.1758 113.725 47.8083 114.781 47.5786C115.608 47.2111 116.021 46.6599 116.021 45.879C116.021 45.1441 115.378 44.7307 114.322 44.7307C113.908 44.7307 113.265 44.7307 112.438 45.0981C111.841 45.4197 111.106 45.4656 110.05 45.4656H109.728C108.672 45.4656 107.845 45.2819 106.972 44.5469C106.145 43.9957 105.686 43.2148 105.686 42.2961C105.686 41.3315 105.916 40.5965 106.099 40.0453C106.329 39.4941 106.743 39.0807 107.156 38.897C107.569 38.7132 108.442 38.7132 109.499 38.7132C110.555 38.7132 111.612 38.5295 112.668 38.162C116.986 36.2787 123.095 35.36 130.904 35.36V35.36ZM225.897 21.2121C226.724 21.2121 227.597 21.3958 228.653 21.947C229.71 22.4982 230.353 23.8304 230.353 25.7137C230.353 27.597 229.94 29.8478 229.113 32.0986C228.286 34.3494 227.827 36.8299 227.827 39.4482V44.1795C227.827 47.3949 227.184 51.8965 225.943 57.7302C224.657 63.5639 222.131 67.3305 218.777 69.0301C215.378 70.7297 211.382 71.6943 207.156 71.6943C202.7 71.6943 200.633 70.9594 200.633 69.6273C200.633 68.6627 201.276 68.1114 202.746 67.744C208.856 66.0444 213.311 64.3448 216.021 62.6452C218.548 60.9456 220.247 59.0623 221.074 57.179C221.901 55.2957 222.36 53.7798 222.36 52.8611C222.36 52.1262 221.947 51.529 220.89 51.529C219.604 51.529 217.951 52.4936 215.838 54.1473C213.725 55.8469 211.198 57.3627 208.672 58.4651C206.145 59.6135 204.032 60.1647 202.562 60.1647C201.736 60.1647 201.276 59.7973 201.276 58.8326C201.276 57.3168 201.69 55.9847 202.562 54.8822C203.435 53.7339 204.446 52.8152 206.145 51.6668C207.615 50.7022 208.901 49.0485 209.958 46.7518C211.014 44.501 211.428 42.2502 211.428 39.9534C211.428 37.5189 211.014 35.8193 209.958 34.3035C209.131 32.7876 208.672 31.2718 208.672 29.2047C208.672 27.3214 209.085 25.8055 209.958 24.4734C210.785 22.9576 211.658 22.4064 212.898 22.4064C213.311 22.4064 213.725 22.5901 214.184 22.7739C214.414 23.1413 214.597 23.5088 214.827 24.2897L215.47 29.9397C215.884 32.9714 216.113 35.5896 216.113 38.0242C216.113 40.275 215.47 42.7095 214.643 45.3737C214.23 46.5221 214 47.4408 214 48.2217C214 49.1863 214.23 49.5538 215.057 49.5538C215.47 49.5538 216.756 48.8189 218.869 47.303C220.982 45.9709 222.223 44.6388 222.682 43.7201C223.095 42.7555 223.325 40.6884 223.325 37.5189C223.325 35.8193 223.325 34.1197 222.912 32.2364C222.498 30.5368 222.269 28.6535 222.269 26.7702C222.269 25.0706 222.682 23.5547 223.325 22.636C224.014 21.5795 224.841 21.2121 225.897 21.2121V21.2121ZM250.105 22.5442C251.805 22.5442 252.631 23.8304 252.631 26.0812C252.631 27.9645 251.988 30.7665 250.978 34.4872C250.564 35.7734 250.151 40.4587 249.508 48.3136C248.681 56.1225 248.268 60.9916 248.268 62.8749C248.268 64.7582 248.038 66.4119 247.625 67.744L246.568 70.546C246.568 70.9135 246.338 71.0972 245.925 71.0972C245.511 71.0972 244.868 70.3623 244.271 68.8464C243.628 67.3306 243.215 65.4932 243.215 63.2424C243.215 61.1753 243.628 59.3379 244.042 57.6383C244.455 56.1225 244.639 54.8363 244.639 54.1013C244.639 52.8152 244.225 52.0343 243.398 52.0343C242.755 52.0343 241.331 52.4018 239.402 53.1367C237.519 53.8717 236.049 54.8363 235.222 55.755C234.166 56.8574 233.339 57.2249 232.925 57.2249C232.512 57.2249 232.282 56.8574 232.282 56.3062C232.282 55.5713 232.282 54.6066 232.512 53.8717C234.395 46.4302 235.452 40.8262 235.452 37.1055C235.452 36.0031 235.222 34.8547 235.038 33.7523C234.809 32.6498 234.625 31.6852 234.625 30.9502C234.625 30.2153 235.038 29.1129 236.095 27.4133C236.922 25.7137 237.794 24.795 238.208 24.795C238.851 24.795 239.264 25.1625 239.678 25.7137C240.091 26.2649 240.321 27.597 240.321 29.2507C240.321 32.2364 239.907 35.7734 239.494 39.6778C238.851 43.5823 238.667 45.8331 238.667 46.3843C238.667 46.7518 238.897 46.9355 239.494 46.9355C239.907 46.9355 240.734 46.9355 242.02 46.568C243.49 46.3843 244.317 45.8331 244.731 45.2819C245.144 44.7307 245.374 43.2148 245.374 40.8262C245.374 34.8547 246.017 30.399 247.027 27.2295C248.038 24.2438 249.094 22.5442 250.105 22.5442ZM352.953 52.8152C352.31 52.8152 350.886 53.0908 349.003 53.2745H348.819C346.89 53.642 345.603 54.0554 345.374 54.2392C344.96 54.6066 344.731 55.02 344.501 55.9387C344.271 58.7867 344.088 60.7159 343.858 61.2672C343.858 62.0481 343.628 62.5993 343.628 62.9668C343.628 63.518 344.042 63.7476 344.685 63.7476C345.328 63.7476 346.201 63.5639 347.027 63.3802C347.67 63.3802 348.314 63.1964 348.727 62.8289C349.003 62.5533 349.14 62.4615 349.37 62.0481L351.988 57.7302C353.32 55.755 353.734 54.377 353.734 53.5961C353.826 52.9989 353.596 52.8152 352.953 52.8152V52.8152ZM356.214 61.2672C355.755 61.8643 355.571 62.2318 355.571 62.4615C355.571 62.8289 355.755 63.0127 356.168 63.0586H356.26L361.083 62.6452C361.635 62.6452 361.91 62.2777 361.91 61.8643C361.91 61.6806 361.635 60.716 361.083 59.3379C360.532 57.7761 360.119 56.9952 359.843 56.9952C359.43 56.9952 359.154 57.3627 359.016 57.9599C358.741 58.557 358.465 59.3379 357.868 60.3025C357.684 60.4863 356.352 60.9916 356.214 61.2672V46.5221L359.476 46.568H361.451C362.14 46.568 362.599 45.9709 362.737 45.0063C362.875 44.1335 362.875 43.4445 362.875 43.0311V42.8933C362.875 42.5258 362.875 42.2961 362.599 42.1124C362.461 41.9286 361.91 41.7449 361.037 41.7449C360.211 41.5612 357.776 41.5152 356.49 41.5152L356.214 41.653C354.239 41.653 352.264 41.8368 350.059 42.2502C349.646 42.2502 349.186 42.6177 348.773 42.6177C347.073 42.8014 346.201 43.1689 345.787 43.3986C345.374 43.766 345.144 44.1794 345.144 44.9144V46.7977C345.144 47.7624 345.787 48.1298 346.844 47.9461C347.487 47.7624 348.13 47.7624 348.773 47.5786C351.207 47.2111 353.458 46.7977 355.709 46.568L356.214 46.5221V61.2672V61.2672ZM332.236 55.2038C332.42 55.2038 332.42 55.3875 332.42 55.6172C332.42 56.2144 332.053 57.5465 331.042 59.4757C330.858 59.8432 330.675 60.2566 330.537 60.6241V56.7656C330.858 56.5818 331.042 56.3981 331.18 56.0765L331.226 55.9847C331.731 55.3875 332.099 55.2038 332.236 55.2038ZM162.829 39.9075C161.083 39.9075 159.338 40.0453 157.73 40.0912H157.317L155.663 40.1831C153.366 40.3669 151.07 40.5506 148.773 40.9181C146.246 41.2856 145.006 41.4693 144.593 41.653C144.179 41.653 143.766 42.0205 143.536 42.2042C143.123 42.5717 142.893 42.9392 142.48 43.5364C142.066 44.0876 141.837 44.6847 141.837 44.8685C141.837 45.236 142.066 45.4197 142.664 45.4197H143.904C148.497 44.0876 152.494 43.5364 155.847 43.5364H157.317C157.684 43.6282 158.098 43.6282 158.649 43.6282H162.691C165.034 43.6282 166.274 43.6282 166.641 43.4445C167.055 43.4445 167.285 42.8933 167.285 42.1124C167.468 41.4234 167.514 40.8721 167.514 40.6425V40.5965C167.514 40.2291 167.514 40.0453 167.101 40.0453C166.641 40.0913 165.126 39.9075 162.829 39.9075V39.9075ZM330.72 35.6815C332.282 35.6815 333.247 35.8653 333.798 36.049C334.395 36.2327 334.579 36.4165 334.579 36.8299C334.579 37.7945 333.982 38.9429 332.65 40.275C332.053 40.8262 331.318 41.5152 330.537 41.8827V35.6815H330.72ZM422.82 25.5759C423.692 25.5759 424.381 25.7596 425.025 26.3568C425.668 26.7242 425.897 27.5051 425.897 28.286C425.897 28.8832 425.668 29.8478 425.025 30.8124C424.381 31.9608 422.82 33.1551 420.615 34.5332C418.41 36.0949 416.389 37.2433 414.643 38.2079L414.414 38.3917C412.668 39.2185 410.923 40.4128 409.223 40.4128C407.478 40.4128 405.962 39.6319 404.675 37.7945C403.573 36.1868 402.93 34.7628 402.93 33.5685C402.93 32.3742 403.573 31.7771 405.089 31.9608C405.732 32.1445 406.605 32.1445 408.121 32.1445C409.407 32.1445 410.739 31.9608 412.025 31.7311C412.668 31.5474 413.541 30.9962 414.414 30.5828L414.597 30.4909C415.195 30.1234 415.838 29.8019 416.619 29.4344C418.41 28.4698 419.696 27.6889 420.615 26.7243C421.258 25.9434 422.131 25.5759 422.82 25.5759V25.5759ZM116.343 20.5231C117.216 20.5231 117.629 20.8905 118.043 21.258C118.272 21.8092 118.456 22.5442 118.456 23.4629C118.686 24.3816 119.099 25.1165 119.512 25.484C120.156 25.8515 120.799 25.8515 121.396 25.8515C123.922 25.484 125.622 25.3003 126.678 25.3003C127.505 25.3003 128.562 25.3003 129.848 25.6677C130.077 25.6677 130.491 25.8515 130.904 25.8515C131.547 26.0352 132.144 26.1271 132.788 26.3108C133.844 26.3108 134.257 26.6783 134.257 27.0458C134.257 27.4133 133.614 28.286 132.788 29.3885C132.144 30.3072 131.547 30.9962 130.904 31.3636C130.491 31.5474 130.261 31.7311 130.077 31.7311C129.021 32.0986 127.551 32.2823 125.438 32.2823C123.325 32.4661 120.799 32.8336 118.272 33.3848C115.516 34.1197 113.403 34.671 112.347 35.4059C111.06 35.9571 109.82 36.5083 108.764 36.6921C107.523 36.8758 106.88 37.0596 106.421 37.2433C106.008 37.427 105.594 37.427 105.594 37.427C104.308 37.427 103.895 36.6921 103.895 34.8547C103.895 33.3848 104.721 31.7311 106.421 29.8937C108.121 27.8726 109.361 26.5864 110.647 25.6677C111.933 24.749 112.76 23.8304 113.403 22.9117C113.817 21.993 114.46 21.258 114.689 21.0743C115.057 20.7068 115.47 20.5231 116.343 20.5231ZM158.787 30.8584H157.317C155.663 30.8584 153.964 31.134 152.494 31.3177C150.381 31.5015 148.727 31.8689 147.257 32.4661C145.787 33.0173 144.96 33.3848 144.731 33.7982C144.501 34.1657 144.317 34.5332 144.317 35.1303C144.317 35.6815 144.547 36.049 144.96 36.049C145.603 36.049 146.017 36.049 146.201 35.8653C149.967 35.314 153.55 34.7169 157.317 34.5332C158.787 34.5332 160.073 34.2575 161.543 34.2575C163.013 34.2575 164.299 34.4413 165.355 34.4413L168.111 34.625C168.754 34.625 169.168 34.2575 169.581 33.7063C169.995 33.1551 170.224 32.7876 170.224 32.558C170.224 32.1905 169.995 32.0067 169.811 31.823C169.398 31.823 168.111 31.4555 165.769 31.2718C163.426 31.0421 161.129 30.8584 158.787 30.8584V30.8584ZM356.766 29.1128H356.674C354.469 29.1128 353.045 30.6746 351.299 30.9043C350.656 31.134 349.232 31.0421 348.819 31.2258H348.635C347.027 31.4096 346.017 31.7771 345.787 31.9608C345.374 32.3283 345.144 32.9254 345.144 33.8441C345.144 35.36 346.017 35.9571 347.487 35.7274L348.773 35.5437C351.621 35.1303 354.239 34.4872 356.214 34.3035H358.924C360.211 34.3035 361.129 34.3494 361.635 34.4872L363.196 34.671C364.161 34.671 364.62 33.7063 364.62 31.9608C364.62 30.9962 364.345 30.399 363.794 30.2153C363.242 29.8478 361.818 29.6181 359.705 29.6181C358.833 29.71 357.5 29.021 356.766 29.1128ZM440.964 26.219C442.066 26.219 443.353 26.4027 444.409 26.6324C446.338 27.0458 449.14 27.4592 452.815 27.4592L460.165 27.2295H460.808C462.829 27.2295 465.172 27.2295 467.698 27.4592H468.111C470.684 27.4592 472.246 27.4592 472.843 27.6429C473.486 27.6429 473.945 28.0564 474.588 28.4698C475.002 29.0669 475.231 29.71 475.231 30.4909C475.231 31.3177 475.002 31.9149 474.359 32.558C473.715 32.9714 472.2 33.3848 469.398 33.7982C466.596 34.2116 463.15 34.3953 458.833 34.3953H457.592C453.963 34.3953 450.472 34.3953 447.395 34.5791L439.402 34.9925C438.346 34.9925 437.243 34.5791 436.6 33.9819C435.727 33.1551 435.314 32.3283 435.314 31.5474C435.314 30.5368 435.957 29.4803 437.243 28.286C438.621 26.8621 439.678 26.219 440.964 26.219V26.219ZM330.491 24.5194C331.18 24.5194 332.053 24.7031 332.971 24.8869C334.212 25.0706 334.901 25.2543 334.901 25.4381C335.084 25.4381 335.268 25.8056 335.268 25.9893C335.268 26.3568 334.901 27.3214 334.395 28.6076C333.844 29.9397 332.834 30.8584 331.593 31.0421C331.226 31.2259 330.904 31.4096 330.537 31.4096V24.5194H330.491Z" fill="#231F20"/>
<path d="M109.362 109.36H116.896C122.729 109.36 126.818 107.477 126.818 103.618C126.818 100.954 124.613 99.3925 121.489 98.9331V98.7953C123.97 98.1981 125.348 96.4985 125.348 94.5234C125.348 91.1242 121.765 89.7462 116.574 89.7462H109.362V109.36V109.36ZM112.624 97.8307V91.7213H116.62C120.662 91.7213 122.775 92.5482 122.775 94.753C122.775 96.6363 120.984 97.8307 116.482 97.8307H112.624V97.8307ZM112.624 106.65V100.541H117.125C121.627 100.541 124.153 101.46 124.153 103.435C124.153 105.64 121.581 106.604 117.125 106.604H112.624V106.65ZM136.28 101.23L137.612 98.0603C138.577 95.7177 139.45 93.4669 140.276 91.0782H140.414C141.287 93.4669 142.114 95.7177 143.124 98.0603L144.411 101.23H136.28ZM148.223 109.36H151.852L142.619 89.7002H138.806L129.574 109.36H133.065L135.683 103.343H145.651L148.223 109.36V109.36ZM155.251 109.36H158.467V99.025C158.467 96.9579 158.191 94.8908 158.053 92.8697H158.191L161.039 96.912L170.731 109.314H174.176V89.6543H170.961V99.8977C170.961 101.919 171.236 104.124 171.374 106.099H171.191L168.343 102.057L158.65 89.6543H155.159V109.36H155.251ZM181.618 109.36H185.109V103.113L189.84 99.0709L198.062 109.314H201.967L192.045 97.1416L200.635 89.6543H196.73L185.292 99.5303H185.201V89.6543H181.71V109.36H181.618ZM253 109.36C259.569 109.36 264.162 105.41 264.162 99.1628C264.162 92.9156 259.569 89.0571 253 89.0571C246.432 89.0571 241.838 92.8697 241.838 99.1628C241.838 105.456 246.432 109.36 253 109.36ZM253.322 107.293C248.82 107.293 245.88 104.078 245.88 99.1168C245.88 94.1099 248.82 91.0323 253.322 91.0323C257.778 91.0323 260.763 94.1099 260.763 99.1168C260.763 104.124 257.823 107.293 253.322 107.293ZM270.226 109.36H273.625V100.541H283.914V98.4278H273.625V91.7673H285.752V89.6543H270.18V109.36H270.226ZM333.846 109.36C339.128 109.36 341.287 106.696 341.287 103.343V89.7002H337.888V103.113C337.888 106.053 336.464 107.201 333.524 107.201C331.549 107.201 330.033 106.558 328.839 105.042L326.404 106.283C327.966 108.304 330.446 109.36 333.846 109.36V109.36ZM348.728 109.36H352.128V89.7002H348.728V109.36ZM359.569 109.36H362.784V99.025C362.784 96.9579 362.509 94.8908 362.371 92.8697H362.509L365.357 96.912L375.049 109.314H378.494V89.6543H375.279V99.8977C375.279 101.919 375.554 104.124 375.692 106.099H375.508L372.66 102.057L362.968 89.6543H359.477V109.36H359.569ZM384.557 109.36H402.84V107.247H388.692L402.702 91.1701V89.7002H385.844V91.8132H398.568L384.557 107.89V109.36V109.36ZM408.949 109.36H411.797V100.081H422.316V109.36H425.164V89.7002H422.316V97.9225H411.797V89.7002H408.949V109.36ZM443.767 109.36C449.923 109.36 454.241 105.41 454.241 99.1628C454.241 92.9156 449.923 89.0571 443.767 89.0571C437.612 89.0571 433.294 92.8697 433.294 99.1628C433.294 105.456 437.612 109.36 443.767 109.36ZM443.767 107.293C439.45 107.293 436.648 104.078 436.648 99.1168C436.648 94.1099 439.45 91.0323 443.767 91.0323C448.039 91.0323 450.887 94.1099 450.887 99.1168C450.887 104.124 448.039 107.293 443.767 107.293ZM470.134 109.36C465.357 109.36 461.682 107.247 461.682 101.046V89.7462H464.668V101.138C464.668 105.777 467.056 107.247 470.134 107.247C473.258 107.247 475.738 105.777 475.738 101.138V89.7462H478.586V101.046C478.632 107.247 474.957 109.36 470.134 109.36V109.36Z" fill="#969696"/>
</svg>
