<svg width="128" height="128" viewBox="0 0 128 128" fill="none" xmlns="http://www.w3.org/2000/svg">
<path d="M69.345 92.838H40.172C40.172 92.838 29 81.9225 29 53.859C29 27.966 40.1725 15.5 40.1725 15.5H71.5235C71.5235 15.5 51.345 28.9085 51.345 53.5425C51.345 78.4925 69.3505 92.8375 69.3505 92.8375H69.3445L69.345 92.838ZM58.655 35.162H87.8275C87.8275 35.162 99 46.0775 99 74.141C99 100.028 87.8275 112.5 87.8275 112.5H56.4765C56.4765 112.5 76.655 99.0915 76.655 74.4575C76.655 49.5075 58.655 35.1625 58.655 35.1625V35.162Z" fill="#E50113"/>
</svg>
