<svg width="128" height="128" viewBox="0 0 128 128" fill="none" xmlns="http://www.w3.org/2000/svg">
<path fill-rule="evenodd" clip-rule="evenodd" d="M64.1931 65.917L27.7363 76.3241C28.7821 80.4315 27.1522 85.9215 29.5198 89.2429C31.9864 92.728 37.9986 92.7596 41.3924 95.3009C44.8009 97.8502 46.6717 103.682 50.778 105.039C54.7676 106.376 59.7097 102.855 64.1425 102.841C68.4305 102.837 73.2161 106.409 77.0911 105.145C81.1633 103.821 83.0342 98.0159 86.4339 95.5248C89.8511 93.0239 95.8642 93.0505 98.3697 89.6038C100.872 86.1552 99.1113 80.3338 100.436 76.1673L64.1931 65.917Z" fill="#C00415"/>
<path fill-rule="evenodd" clip-rule="evenodd" d="M61.7251 55.4734C62.2207 55.2643 62.5337 54.8048 62.5891 54.3117L63.6951 25.1368C61.942 25.076 60.1124 24.4568 58.3003 23.8435C55.7636 22.985 53.2612 22.1381 51.0508 22.8509C48.6906 23.6301 47.0666 25.9114 45.456 28.1737C44.3049 29.7906 43.1607 31.398 41.7594 32.4404L60.1768 55.1815C60.5792 55.5789 61.1847 55.713 61.7251 55.4734ZM57.7974 56.931C58.0044 57.3206 58.0394 57.7969 57.8421 58.2308C57.605 58.7742 57.0792 59.0829 56.5252 59.0829L27.7241 51.7803C28.2628 50.0421 28.2754 48.0242 28.2879 46.0136C28.3055 43.2034 28.3229 40.4074 29.7767 38.4097C31.2216 36.4145 33.8345 35.5779 36.4427 34.7429C38.1557 34.1945 39.8666 33.6467 41.2431 32.7718L57.7974 56.931ZM55.3531 61.8371C55.8341 62.0777 56.1656 62.5777 56.1656 63.1536C56.1656 63.7453 55.8176 64.2571 55.2967 64.481L27.5821 75.7943C27.0488 74.1756 25.9157 72.6268 24.7704 71.0613C23.1505 68.8471 21.5063 66.5995 21.5 64.0737C21.4923 61.4277 23.1793 59.0758 24.8388 56.7621C25.889 55.2981 26.9282 53.8493 27.5199 52.3511L55.3531 61.8371ZM72.649 61.8371C72.1689 62.0777 71.8385 62.5777 71.8385 63.1536C71.8385 63.7453 72.1922 64.2571 72.7034 64.481L100.418 75.7943C100.953 74.1778 102.085 72.631 103.229 71.0676C104.851 68.8513 106.497 66.6019 106.5 64.0737C106.507 61.4268 104.821 59.0742 103.163 56.7599C102.114 55.2965 101.077 53.8485 100.485 52.3511L72.649 61.8371ZM70.1551 58.2308C69.9597 57.7969 69.9957 57.3206 70.2027 56.931L86.756 32.7718C88.1339 33.6465 89.845 34.1943 91.558 34.7426C94.1671 35.5777 96.7805 36.4143 98.2273 38.4097C99.6746 40.4048 99.6943 43.1961 99.7142 46.0027C99.7284 48.0169 99.7427 50.039 100.285 51.7803L71.4749 59.0829C70.9267 59.0829 70.398 58.7742 70.1551 58.2308ZM65.4119 54.3117C65.4712 54.8048 65.7841 55.2643 66.2817 55.4734C66.8163 55.713 67.4276 55.5789 67.8241 55.1815L86.2522 32.4404C84.8424 31.3955 83.6942 29.7831 82.54 28.1623C80.9316 25.9037 79.3117 23.6288 76.9561 22.8509C74.7489 22.1385 72.2481 22.9843 69.7108 23.8424C67.8964 24.456 66.0634 25.0759 64.3059 25.1368L65.4119 54.3117Z" fill="url(#paint0_radial_63_13048)"/>
<defs>
<radialGradient id="paint0_radial_63_13048" cx="0" cy="0" r="1" gradientUnits="userSpaceOnUse" gradientTransform="translate(64.0001 62.3428) rotate(90) scale(41.4051 66.1419)">
<stop stop-color="#FFE500"/>
<stop offset="0.414009" stop-color="#FFE500"/>
<stop offset="1" stop-color="#F18200"/>
</radialGradient>
</defs>
</svg>
