<svg width="356" height="128" viewBox="0 0 356 128" fill="none" xmlns="http://www.w3.org/2000/svg">
<path d="M185.088 86.7813C189.103 86.7813 191.126 88.6215 191.126 92.3548V100.351C191.126 100.567 190.951 100.741 190.736 100.741H187.968C187.917 100.741 187.866 100.731 187.819 100.712C187.771 100.692 187.728 100.663 187.692 100.627C187.656 100.591 187.627 100.548 187.608 100.5C187.588 100.453 187.578 100.402 187.578 100.351V92.6178C187.578 90.3833 186.364 89.2792 183.936 89.2792C183.065 89.2792 182.287 89.5419 181.633 90.0678C180.887 90.6461 180.451 91.4874 180.326 92.5653V100.351C180.326 100.567 180.152 100.742 179.936 100.742H177.168C177.117 100.742 177.066 100.732 177.019 100.712C176.972 100.692 176.929 100.664 176.892 100.627C176.856 100.591 176.827 100.548 176.808 100.501C176.788 100.453 176.778 100.403 176.778 100.351V87.5398C176.778 87.3244 176.953 87.1493 177.169 87.1493H179.936C180.152 87.1493 180.326 87.3244 180.326 87.5398V88.7271C180.949 88.096 181.665 87.5964 182.443 87.2812C183.252 86.9394 184.123 86.7816 185.088 86.7816V86.7813ZM194.412 81.9922C194.412 81.7768 194.587 81.6021 194.803 81.6021H197.473C197.688 81.6021 197.863 81.7768 197.863 81.9922V91.7016C197.863 91.7758 197.884 91.8485 197.924 91.9112C197.964 91.9738 198.021 92.0237 198.088 92.0551C198.156 92.0864 198.231 92.0979 198.304 92.0882C198.378 92.0785 198.447 92.0479 198.504 92.0002L204.171 87.2405C204.241 87.1816 204.33 87.1493 204.422 87.1493H207.629C207.71 87.1494 207.788 87.1744 207.854 87.2209C207.92 87.2674 207.97 87.3331 207.997 87.409C208.024 87.4849 208.026 87.5673 208.005 87.6449C207.983 87.7225 207.938 87.7914 207.875 87.8422L202.125 92.51C202.083 92.5438 202.049 92.5859 202.024 92.6336C201.999 92.6814 201.985 92.7336 201.981 92.7872C201.978 92.8408 201.985 92.8946 202.003 92.9451C202.022 92.9956 202.05 93.0419 202.087 93.0809L208.712 100.083C208.764 100.138 208.799 100.208 208.812 100.283C208.825 100.358 208.816 100.435 208.786 100.505C208.756 100.575 208.706 100.635 208.642 100.677C208.579 100.719 208.504 100.741 208.428 100.741H205.088C204.978 100.741 204.873 100.695 204.799 100.613L199.686 94.9695C199.619 94.8953 199.526 94.8497 199.426 94.8423C199.326 94.8348 199.227 94.866 199.15 94.9295L198.006 95.8656C197.961 95.9022 197.925 95.9482 197.901 96.0004C197.876 96.0526 197.863 96.1096 197.863 96.1674V100.351C197.863 100.567 197.688 100.741 197.473 100.741H194.802C194.751 100.741 194.7 100.731 194.653 100.712C194.606 100.692 194.563 100.663 194.526 100.627C194.49 100.591 194.462 100.548 194.442 100.5C194.422 100.453 194.412 100.402 194.412 100.351V81.9925V81.9922ZM221.58 86.7813C223.731 86.7813 225.47 87.4383 226.794 88.8055C228.091 90.1465 228.754 91.8552 228.754 93.9581C228.754 96.0352 228.091 97.7442 226.822 99.0586C225.497 100.426 223.731 101.109 221.58 101.109C219.4 101.109 217.661 100.426 216.337 99.0586C215.04 97.7442 214.406 96.0352 214.406 93.9585C214.406 91.8552 215.04 90.1462 216.364 88.8055L216.505 88.6615C217.786 87.3922 219.478 86.7813 221.58 86.7813V86.7813ZM221.567 89.2264C220.319 89.2264 219.383 89.6994 218.707 90.6985C218.135 91.5396 217.849 92.6438 217.849 93.9585C217.849 95.2729 218.135 96.3508 218.707 97.1922C219.383 98.1648 220.319 98.6643 221.566 98.6643C222.788 98.6643 223.75 98.1648 224.426 97.1922C224.998 96.3245 225.31 95.2463 225.31 93.9585C225.31 92.6438 224.998 91.5396 224.426 90.6985C223.75 89.6994 222.788 89.2264 221.566 89.2264H221.567ZM236.133 81.9701H238.647C238.862 81.9701 239.037 82.1449 239.037 82.3606V84.1038C239.037 84.3192 238.862 84.4943 238.647 84.4943H236.555C236.16 84.4943 235.869 84.5992 235.658 84.8095C235.447 85.0198 235.367 85.3353 235.367 85.7824V86.7592C235.367 86.9746 235.542 87.1493 235.758 87.1493H238.462C238.678 87.1493 238.853 87.3241 238.853 87.5394V89.204C238.853 89.4197 238.678 89.5944 238.462 89.5944H235.758C235.542 89.5944 235.367 89.7688 235.367 89.9842V100.351C235.367 100.567 235.193 100.741 234.977 100.741H232.748C232.697 100.741 232.646 100.731 232.599 100.712C232.551 100.692 232.508 100.663 232.472 100.627C232.436 100.591 232.407 100.548 232.387 100.5C232.368 100.453 232.358 100.402 232.358 100.351V89.9842C232.358 89.7688 232.183 89.5941 231.968 89.5941H229.712C229.609 89.5941 229.509 89.553 229.436 89.4798C229.363 89.4067 229.322 89.3074 229.322 89.204V87.5394C229.322 87.3241 229.497 87.149 229.712 87.149H231.968C232.183 87.149 232.358 86.9746 232.358 86.7592V85.7031C232.358 84.5464 232.675 83.6263 233.335 82.9693L233.437 82.8643C234.069 82.253 234.983 81.9701 236.133 81.9701H236.133ZM260.377 82.0796C260.45 82.0092 260.547 81.9701 260.648 81.9701H263.585C263.663 81.9701 263.74 81.9937 263.805 82.0379C263.87 82.0821 263.92 82.1447 263.948 82.2177C263.977 82.2908 263.983 82.3707 263.965 82.4472C263.948 82.5236 263.908 82.593 263.85 82.6464L256.191 89.7493H256.191C256.153 89.7842 256.123 89.8262 256.102 89.8728C256.08 89.9194 256.068 89.9698 256.066 90.021C256.065 90.0723 256.073 90.1234 256.091 90.1714C256.109 90.2195 256.136 90.2635 256.171 90.3011L265.268 100.085C265.32 100.141 265.354 100.211 265.367 100.285C265.38 100.36 265.37 100.437 265.34 100.507C265.31 100.577 265.26 100.636 265.196 100.677C265.133 100.719 265.058 100.741 264.982 100.741H261.687C261.576 100.741 261.471 100.694 261.397 100.611L253.988 92.3352C253.953 92.2966 253.911 92.2653 253.864 92.243C253.818 92.2208 253.767 92.2081 253.715 92.2057C253.663 92.2033 253.611 92.2113 253.563 92.2291C253.514 92.247 253.469 92.2743 253.431 92.3096L251.443 94.1582C251.364 94.2318 251.319 94.3355 251.319 94.444V100.351C251.319 100.567 251.144 100.741 250.929 100.741H248.477C248.425 100.741 248.375 100.731 248.327 100.712C248.28 100.692 248.237 100.663 248.2 100.627C248.164 100.591 248.135 100.548 248.116 100.5C248.096 100.453 248.086 100.402 248.086 100.351V82.3606C248.086 82.1452 248.261 81.9704 248.477 81.9704H250.929C251.144 81.9704 251.319 82.1452 251.319 82.3609V89.9106C251.319 89.9872 251.341 90.0622 251.384 90.1261C251.426 90.1901 251.486 90.2401 251.556 90.2701C251.627 90.3001 251.705 90.3086 251.78 90.2946C251.855 90.2807 251.925 90.2448 251.98 90.1916L260.377 82.0799V82.0796ZM266.098 87.5394C266.098 87.3241 266.273 87.149 266.489 87.149H269.248C269.464 87.149 269.639 87.3241 269.639 87.5394V95.4307C269.639 96.5348 269.887 97.3234 270.446 97.8492C271.005 98.3488 271.875 98.6118 273.117 98.6118C273.894 98.6118 274.639 98.3225 275.353 97.7701C276.067 97.1922 276.595 96.4295 276.906 95.4569V87.5391C276.906 87.3241 277.08 87.1493 277.296 87.1493H280.056C280.272 87.1493 280.446 87.3241 280.446 87.5394V100.351C280.446 100.567 280.272 100.741 280.056 100.741H277.297C277.245 100.741 277.194 100.731 277.147 100.712C277.1 100.692 277.057 100.663 277.02 100.627C276.984 100.591 276.955 100.548 276.936 100.5C276.916 100.453 276.906 100.402 276.906 100.351V98.9802C275.539 100.4 273.862 101.109 271.875 101.109C268.024 101.109 266.099 99.2692 266.099 95.615V87.5398L266.098 87.5394ZM291.495 86.781C295.51 86.781 297.533 88.6215 297.533 92.3548V100.351C297.533 100.567 297.358 100.741 297.143 100.741H294.375C294.324 100.741 294.273 100.731 294.226 100.712C294.178 100.692 294.135 100.663 294.099 100.627C294.063 100.591 294.034 100.548 294.014 100.5C293.995 100.453 293.985 100.402 293.985 100.351V92.6178C293.985 90.3833 292.771 89.2792 290.344 89.2792C289.472 89.2792 288.694 89.5419 288.04 90.0678C287.293 90.6461 286.858 91.4874 286.733 92.5653V100.351C286.733 100.567 286.558 100.742 286.343 100.742H283.575C283.524 100.742 283.473 100.732 283.426 100.712C283.378 100.692 283.335 100.664 283.299 100.627C283.263 100.591 283.234 100.548 283.215 100.501C283.195 100.453 283.185 100.403 283.185 100.351V87.5398C283.185 87.3244 283.36 87.1493 283.575 87.1493H286.343C286.558 87.1493 286.733 87.3244 286.733 87.5398V88.7271C287.356 88.096 288.072 87.5964 288.85 87.2812C289.659 86.9394 290.53 86.7816 291.495 86.7816V86.781ZM300.509 81.9922C300.509 81.7768 300.684 81.6021 300.9 81.6021H303.562C303.778 81.6021 303.953 81.7768 303.953 81.9922V100.351C303.953 100.567 303.778 100.741 303.562 100.741H300.9C300.848 100.741 300.798 100.731 300.75 100.712C300.703 100.692 300.66 100.663 300.624 100.627C300.587 100.591 300.559 100.548 300.539 100.5C300.519 100.453 300.509 100.402 300.509 100.351V81.9925V81.9922ZM306.951 87.5394C306.951 87.3241 307.126 87.149 307.341 87.149H310.101C310.317 87.149 310.492 87.3241 310.492 87.5394V95.4307C310.492 96.5348 310.74 97.3234 311.299 97.8492C311.858 98.3488 312.727 98.6118 313.97 98.6118C314.746 98.6118 315.492 98.3225 316.206 97.7701C316.92 97.1922 317.448 96.4295 317.758 95.4569V87.5391C317.758 87.3241 317.933 87.1493 318.149 87.1493H320.909C321.124 87.1493 321.299 87.3241 321.299 87.5394V100.351C321.299 100.567 321.124 100.741 320.909 100.741H318.149C318.097 100.741 318.047 100.731 317.999 100.712C317.952 100.692 317.909 100.663 317.873 100.627C317.836 100.591 317.808 100.548 317.788 100.5C317.768 100.453 317.758 100.402 317.758 100.351V98.9802C316.392 100.4 314.715 101.109 312.727 101.109C308.876 101.109 306.951 99.2692 306.951 95.615V87.5398L306.951 87.5394ZM333.04 86.781C337.055 86.781 339.078 88.6215 339.078 92.3548V100.351C339.078 100.455 339.037 100.554 338.964 100.627C338.89 100.7 338.791 100.741 338.687 100.741H335.92C335.816 100.741 335.717 100.7 335.644 100.627C335.571 100.554 335.53 100.454 335.53 100.351V92.6178C335.53 90.3833 334.316 89.2792 331.888 89.2792C331.017 89.2792 330.239 89.5419 329.585 90.0678C328.838 90.6461 328.402 91.4874 328.278 92.5653V100.351C328.278 100.567 328.103 100.742 327.888 100.742H325.12C325.069 100.742 325.018 100.732 324.971 100.712C324.923 100.692 324.88 100.664 324.844 100.627C324.808 100.591 324.779 100.548 324.759 100.501C324.74 100.453 324.73 100.403 324.73 100.351V87.5398C324.73 87.3244 324.905 87.1493 325.12 87.1493H327.888C328.103 87.1493 328.278 87.3244 328.278 87.5398V88.7271C328.9 88.096 329.616 87.5964 330.394 87.2812C331.204 86.9394 332.075 86.7816 333.04 86.7816V86.781ZM143.993 81.8366L150.674 81.6021C151.446 81.6021 152.217 81.6846 152.989 81.8501C153.76 82.0152 154.45 82.2908 155.057 82.6768C155.661 83.0589 156.167 83.5781 156.532 84.1922C156.908 84.8166 157.097 85.5971 157.097 86.5339C157.097 87.6178 156.769 88.5271 156.113 89.2616C155.457 89.9964 154.59 90.5014 153.509 90.777V90.832C154.165 90.9056 154.773 91.0663 155.332 91.3143C155.891 91.5623 156.373 91.8885 156.779 92.2924C157.183 92.6966 157.497 93.1741 157.719 93.7252C157.94 94.2763 158.051 94.8917 158.051 95.5712C158.051 96.5079 157.849 97.3253 157.444 98.0233C157.039 98.7213 156.489 99.2955 155.795 99.7451C155.1 100.195 154.286 100.535 153.35 100.765C152.415 100.995 151.417 101.109 150.356 101.109H144.006C143.903 101.109 143.803 101.068 143.73 100.995C143.657 100.922 143.616 100.822 143.616 100.719V82.2268C143.616 82.0165 143.782 81.8443 143.992 81.8366H143.993ZM146.893 89.6344H150.116C150.639 89.6344 151.139 89.5768 151.615 89.4616C152.091 89.3464 152.506 89.1697 152.861 88.9303C153.208 88.6996 153.496 88.3903 153.701 88.0275C153.907 87.6643 154.009 87.2261 154.009 86.7125C154.009 85.7034 153.617 84.9817 152.833 84.5477C152.049 84.1141 150.994 83.8971 149.668 83.8971L146.864 84.1089C146.766 84.1164 146.674 84.1605 146.607 84.2326C146.54 84.3047 146.503 84.3994 146.503 84.4978V89.2443C146.503 89.4597 146.678 89.6344 146.893 89.6344V89.6344ZM146.893 98.8144H150.083C150.68 98.8144 151.281 98.7664 151.887 98.6704C152.494 98.5744 153.042 98.4042 153.533 98.1596C154.024 97.9151 154.418 97.5877 154.717 97.1774C155.015 96.7671 155.164 96.248 155.164 95.6195C155.164 94.5195 154.75 93.7252 153.923 93.2365C153.095 92.7475 151.902 92.5033 150.343 92.5033H146.893C146.678 92.5033 146.503 92.6777 146.503 92.8934V98.424C146.503 98.6397 146.678 98.8144 146.893 98.8144V98.8144ZM171.034 91.6318C171.034 90.5821 170.703 89.8044 170.04 89.2993C169.377 88.7943 168.497 88.5418 167.399 88.5418C166.57 88.5418 165.789 88.6954 165.054 89.0023C164.319 89.3096 163.702 89.7003 163.205 90.1759L161.652 88.3933C162.377 87.7395 163.262 87.2245 164.308 86.8482C165.354 86.4721 166.478 86.2839 167.679 86.2839C168.735 86.2839 169.652 86.4273 170.428 86.7147C171.205 87.0018 171.842 87.3932 172.339 87.8883C172.836 88.3834 173.217 88.9818 173.457 89.6411C173.705 90.3145 173.83 91.0375 173.83 91.81V97.9599C173.83 98.4352 173.845 98.9354 173.876 99.4603C173.907 99.9851 173.964 100.416 174.047 100.753H171.407C171.242 100.092 171.159 99.4134 171.158 98.7325H171.065C170.54 99.4739 169.841 100.076 169.03 100.485C168.212 100.901 167.244 101.109 166.126 101.109C165.546 101.109 164.94 101.035 164.308 100.886C163.676 100.738 163.102 100.495 162.584 100.159C162.066 99.8219 161.637 99.3761 161.295 98.8215C160.953 98.2669 160.782 97.5836 160.782 96.7716C160.782 95.702 161.082 94.8552 161.683 94.2311C162.284 93.6074 163.071 93.1321 164.044 92.8051C165.018 92.4786 166.115 92.2655 167.337 92.1666C168.567 92.0671 169.8 92.0175 171.034 92.0178V91.6318V91.6318ZM170.427 94.2667C169.679 94.2667 168.905 94.2945 168.103 94.3499C167.302 94.4059 166.576 94.5169 165.925 94.684C165.273 94.8507 164.734 95.1013 164.307 95.4348C163.88 95.7686 163.666 96.2138 163.666 96.77C163.666 97.1595 163.757 97.4837 163.938 97.7436C164.12 98.0031 164.36 98.2166 164.659 98.3837C164.969 98.554 165.304 98.6714 165.653 98.7309C166.023 98.7965 166.398 98.8292 166.774 98.8285C168.184 98.8285 169.268 98.4621 170.026 97.7298C170.784 96.9973 171.163 96.0746 171.163 94.9621V94.6568C171.163 94.4414 170.989 94.2667 170.773 94.2667H170.427V94.2667ZM167.458 57.9278V61.084C167.458 62.1536 167.898 62.7373 168.877 62.7373H175.725C176.312 62.7373 176.801 62.4455 177.095 61.9593C177.412 61.4639 177.669 61.3848 177.78 59.0553L177.804 58.4786L182.475 58.6523C182.084 62.9319 181.448 65.5092 180.519 66.2872C179.687 67.0652 178.415 67.4544 176.655 67.4544H167.361C164.034 67.4544 162.371 65.7038 162.371 62.2026V49.3206H167.458V53.1C171.032 52.3799 174.822 51.3391 177.78 49.3203L180.943 53.1C177.78 54.4649 172.595 57.1498 167.458 57.9278V57.9278ZM144.564 29.2369H175.171C175.585 29.2369 175.982 29.4013 176.274 29.6939C176.567 29.9866 176.731 30.3835 176.731 30.7974V46.4515H144.564V29.2366L144.564 29.2369ZM172.136 42.4347V39.5655H149.734V42.4347H172.136ZM149.734 36.1228H172.136V33.2537H149.734V36.1228ZM148.986 55.8437V61.1682C152.876 60.4497 156.232 59.6829 159.149 58.8204L160.073 63.4206C157.161 64.1234 151.46 65.6801 142.969 68.0903L141.056 63.1147C142.514 62.5396 143.929 63.1147 143.929 58.7724V49.3206H148.986V51.3391H159.295V55.8434H148.986V55.8437ZM210.167 28.6627H213.852C219.864 36.0921 226.694 40.2994 234.597 44.593L231.93 49.3206C224.076 44.7377 217.585 41.9725 212.058 34.6884C208.81 39.1264 205.258 41.3241 200.701 44.9905H206.363V50.7528C211.697 49.8023 215.814 48.4949 220.629 45.3038L224.506 49.497C219.82 52.4244 213.587 54.2032 206.363 55.8434V58.8693C206.363 61.6674 207.43 63.1147 209.66 63.1147H220.058C221.027 63.1147 223.647 63.3208 223.647 62.2026V56.7798H228.992C228.992 62.2019 229.591 64.672 227.638 66.4424C226.232 67.407 223.742 67.601 221.367 67.697H206.363C201.709 67.697 200.444 65.0659 200.444 59.7594V45.5903C199.88 45.9887 196.643 47.8942 194.133 48.8495L189.822 44.2967C198.161 39.569 204.64 35.8025 210.167 28.6627V28.6627ZM250.544 28.6627L255.355 29.6795C255.019 31.0349 254.788 32.0436 254.451 33.2537H261.091V36.9834H252.402C251.902 37.8443 251.201 39.216 250.544 40.1393L261.091 40.1947V44.7447H256.617V49.3206H261.091V53.9673H255.956L255.897 58.8933C257.437 58.3611 258.976 57.6836 260.516 56.8604L261.334 61.1682C258.351 62.6205 251.81 65.7659 247.912 66.7337L245.864 61.9446C247.211 61.5574 251.241 60.5591 251.183 58.7484L251.241 53.967H244.52V49.3206H251.241V44.7447H249.352V42.4347C248.871 43.3058 246.994 45.3355 246.067 45.6491L242.702 41.8573C246.893 38.0223 248.693 33.5404 250.544 28.663V28.6627ZM269.787 41.287V45.3038H280.619V41.2873H269.787V41.287ZM280.619 37.2705V33.2537H269.787V37.2702H280.619V37.2705ZM284.887 50.042L288.093 52.8593C286.15 55.0263 283.915 56.7603 281.486 57.9736C283.332 60.2276 285.664 62.1347 288.482 63.7819L285.81 67.6829C278.522 63.0449 274.149 56.76 272.691 48.8281H269.542V60.2977C271.874 59.6909 274.207 58.9106 276.49 58.0004L277.656 61.9446C274.158 63.2017 268.519 65.5034 263.271 66.6738L262.047 62.3629C262.921 62.1027 264.78 61.1643 264.78 60.5579V29.2369H284.404C284.818 29.2369 285.215 29.4013 285.508 29.6939C285.8 29.9866 285.965 30.3835 285.965 30.7974V48.8284H277.161C277.598 50.9087 278.279 52.8593 279.202 54.593C281.145 53.5093 283.04 51.9923 284.887 50.042V50.042ZM315.741 29.8107H339.866V34.9752H315.741V29.8107ZM314.592 41.8608H341.589V46.1436H334.152V63.1111C334.152 65.8555 332.365 67.2278 328.791 67.2278H321.214V63.1111C323.593 63.1111 329.032 63.3989 329.032 62.5671V46.1436H314.592V41.8608H314.592ZM307.643 27.5154L312.294 29.7051C309.699 35.0085 305.243 39.8257 298.926 44.1562L297.359 39.0471C301.962 35.7871 305.39 31.9431 307.642 27.5154H307.643ZM309.452 36.6964L314.018 38.6726C312.755 41.0076 311.152 43.253 309.21 45.4085V67.6829H304.207V50.034C302.556 51.2918 300.759 52.5489 298.914 53.7615L297.359 49.136C302.799 45.6331 306.83 41.4566 309.452 36.6964V36.6964Z" fill="black"/>
<path fill-rule="evenodd" clip-rule="evenodd" d="M65.5422 66.3147L21.5293 78.8788C22.7918 83.8375 20.8241 90.4654 23.6824 94.4752C26.6603 98.6827 33.9185 98.7208 38.0158 101.789C42.1307 104.866 44.3893 111.907 49.3467 113.546C54.1632 115.159 60.1296 110.909 65.4811 110.892C70.6579 110.887 76.4354 115.199 81.1135 113.673C86.0297 112.075 88.2884 105.066 92.3927 102.059C96.5181 99.0398 103.778 99.072 106.802 94.9109C109.824 90.7475 107.698 83.7196 109.297 78.6895L65.5422 66.3147" fill="#C00415"/>
<path fill-rule="evenodd" clip-rule="evenodd" d="M67.0121 52.3037C67.0837 52.899 67.4615 53.4538 68.0623 53.7062C68.7076 53.9955 69.4456 53.8336 69.9244 53.3538L92.1719 25.8993C90.4699 24.6378 89.0837 22.6912 87.6903 20.7345C85.7486 18.0078 83.7928 15.2614 80.949 14.3222C78.2844 13.4621 75.2652 14.4832 72.2021 15.5192C70.0116 16.26 67.7987 17.0085 65.6769 17.0819L67.0121 52.3037ZM62.561 53.7062C63.1594 53.4538 63.5372 52.899 63.6041 52.3037L64.9393 17.0819C62.8228 17.0085 60.614 16.261 58.4264 15.5206C55.3639 14.4842 52.3428 13.4617 49.6743 14.3222C46.825 15.263 44.8644 18.017 42.92 20.7483C41.5303 22.7003 40.1489 24.6408 38.4572 25.8993L60.6919 53.3538C61.1776 53.8336 61.9086 53.9955 62.561 53.7062ZM57.8211 55.4655C58.0711 55.9358 58.1133 56.5108 57.8751 57.0347C57.5888 57.6907 56.954 58.0633 56.2852 58.0633L21.5147 49.2472C22.1651 47.1488 22.1803 44.7126 22.1954 42.2853C22.2166 38.8926 22.2377 35.5172 23.9928 33.1055C25.7371 30.6967 28.8916 29.6867 32.0404 28.6786C34.1084 28.0165 36.1739 27.3552 37.8358 26.299L57.8211 55.4655ZM54.8695 61.3889C55.4503 61.6794 55.8504 62.283 55.8504 62.9783C55.8504 63.6927 55.4304 64.3106 54.8015 64.5808L21.3427 78.239C20.6988 76.2848 19.3309 74.415 17.9482 72.525C15.9926 69.8518 14.0076 67.1384 14 64.0891C13.9907 60.8947 16.0274 58.0553 18.0309 55.2622L18.0309 55.2621C19.2987 53.4946 20.5533 51.7456 21.2677 49.9369L54.8695 61.3889ZM75.7505 61.3889C75.1709 61.6794 74.772 62.283 74.772 62.9783C74.772 63.6927 75.1991 64.3106 75.8162 64.5808L109.275 78.239C109.92 76.2875 111.287 74.42 112.668 72.5326C114.627 69.857 116.614 67.1413 116.618 64.0891C116.626 60.8937 114.591 58.0534 112.589 55.2594C111.323 53.4928 110.07 51.7447 109.356 49.9369L75.7505 61.3889ZM72.7391 57.0347C72.5033 56.5108 72.5467 55.9358 72.7966 55.4655L92.7808 26.299C94.4443 27.355 96.5101 28.0163 98.5781 28.6782C101.728 29.6865 104.883 30.6964 106.63 33.1055C108.377 35.5141 108.401 38.8839 108.425 42.2721C108.442 44.7038 108.459 47.145 109.114 49.2472L74.3325 58.0633C73.6708 58.0633 73.0325 57.6907 72.7391 57.0347Z" fill="url(#paint0_radial_63_13037)"/>
<defs>
<radialGradient id="paint0_radial_63_13037" cx="0" cy="0" r="1" gradientUnits="userSpaceOnUse" gradientTransform="translate(65.3089 61.9995) rotate(90) scale(49.9869 79.8509)">
<stop stop-color="#FFE500"/>
<stop offset="0.414009" stop-color="#FFE500"/>
<stop offset="1" stop-color="#F18200"/>
</radialGradient>
</defs>
</svg>
