<svg width="435" height="128" viewBox="0 0 435 128" fill="none" xmlns="http://www.w3.org/2000/svg">
<path d="M245.563 87.7864V100.879L245.529 101.864L245.435 102.787L245.278 103.645L245.061 104.448L244.776 105.184L244.435 105.854L244.027 106.463L243.558 107.012L243.027 107.5L242.435 107.918L241.781 108.274L241.07 108.565L240.297 108.795L239.463 108.954L238.572 109.053L237.62 109.085H234.965V104.574H236.225L236.743 104.56L237.216 104.517L237.653 104.442L238.051 104.345L238.411 104.218L238.729 104.059L239.013 103.87L239.254 103.66L239.463 103.411L239.648 103.121L239.8 102.792L239.927 102.426L240.027 102.019L240.098 101.568L240.14 101.085L240.155 100.555V92.0297H235.307V87.7864H245.563V87.7864ZM172.334 87.1059C178.468 87.1059 183.443 92.009 183.443 98.056C183.443 104.101 178.468 109.006 172.334 109.006C166.201 109.006 161.227 104.101 161.227 98.056C161.227 92.009 166.201 87.1059 172.334 87.1059ZM213.241 90.7387C222.106 82.7358 229.902 91.0543 229.902 91.0543L226.379 94.3182C222.639 89.6854 217.3 92.0018 215.911 95.5814C215.164 99.056 216.124 104.11 221.145 104.425C226.165 104.742 227.339 100.53 227.339 100.53H221.572V96.8449H232.573C233.32 102.32 229.796 108.638 221.572 108.848C213.348 109.058 206.405 99.5826 213.241 90.7387H213.241ZM307.474 90.7387C314.956 82.5502 324.135 91.0543 324.135 91.0543L320.61 94.3182C316.872 89.6854 311.532 92.0018 310.144 95.5814C309.396 99.056 310.357 104.11 315.377 104.425C320.397 104.742 321.572 100.53 321.572 100.53H315.805V96.8449H326.806C327.553 102.32 324.029 108.638 315.805 108.848C307.581 109.058 301.287 98.017 307.474 90.7387V90.7387ZM271.879 87.7864L279.315 108.698H273.557L272.674 105.664H264.341L263.465 108.698H257.73L265.166 87.7864H271.879H271.879ZM408.69 87.7864V97.2837L414.034 87.7864H419.972L413.832 97.5889L420.215 108.698H414.363L408.691 98.7638V108.698H403.339V87.7864H408.69H408.69ZM369.22 87.7864L376.65 108.698H370.89L369.998 105.664H361.664L360.797 108.698H355.064L362.494 87.7864H369.22V87.7864ZM287.265 87.7864L294.178 98.331L295.592 100.631V87.7864H300.902V108.698H295.592L288.243 98.017L287.003 96.2189V108.698H281.67V87.7864H287.265V87.7864ZM254.982 87.7864V108.698H249.487V87.7864H254.982ZM153.699 87.7864V104.458H159.217V108.698H148.228V87.7864H153.699ZM384.598 87.7864L391.514 98.331L392.928 100.631V87.7864H398.236V108.698H392.928L385.581 98.017L384.342 96.2189V108.698H379.005V87.7864H384.598H384.598ZM193.07 87.7864L199.983 98.331L201.397 100.631V87.7864H206.707V108.698H201.397L194.048 98.017L192.814 96.2189V108.698H187.476V87.7864H193.07ZM339.166 87.6846C344.413 87.7522 347.247 87.7871 347.669 87.7899H347.71C348.052 87.7899 353.264 88.6326 353.264 92.7387C353.264 96.8453 350.38 97.6871 350.38 97.6871C350.38 97.6871 353.691 98.3191 353.691 102.53C353.691 108.006 348.992 108.321 347.817 108.321H339.166V87.6846ZM345.617 99.2118H343.866V104.265L345.788 104.371C345.788 104.371 348.565 104.793 348.565 102.37C348.565 99.9491 347.069 99.2754 345.617 99.2118ZM172.334 91.9128C168.893 91.9128 166.102 94.664 166.102 98.0563C166.102 101.449 168.893 104.199 172.334 104.199C175.776 104.199 178.567 101.449 178.567 98.0563C178.567 94.664 175.776 91.9128 172.334 91.9128ZM365.833 92.036L362.91 101.721H368.761L365.833 92.0356V92.036ZM268.503 92.036L265.581 101.721H271.421L268.503 92.0356L268.503 92.036ZM345.489 91.1588H343.866V96.2129L345.788 96.3186C345.788 96.3186 348.245 96.74 348.245 94.3178C348.245 91.8965 347.454 91.5384 345.489 91.1588ZM278.592 29.9161V36.3748H264.327V71.2162H279.771V77.6869H239.531V71.2162H254.919V36.3748H239.531V29.9161H278.591H278.592ZM235.809 71.217V77.6861H219.055V71.217H235.808H235.809ZM175.697 27.2511L174.592 38.0922H209.026V44.5605H190.017V56.0511C198.165 53.774 208.386 48.1345 208.386 48.1345V57.7308C208.386 57.7308 201.671 61.2058 190.017 65.1466V70.6129H208.785V77.0835H180.61V67.8386L170.896 69.7687V61.1835C170.896 61.1835 177.98 60.2157 180.61 59.077V44.5605H173.32C173.32 44.5605 169.082 70.6816 148.228 77.6857V68.0055C148.228 68.0055 160.248 64.1752 164.191 44.5605H148.311V38.0922H165.529C165.529 38.0922 166.58 34.6065 166.93 27.2511H175.697H175.697ZM421 40.9973V47.4759H414.545V77.6583H405.176L391.33 77.6765L391.321 71.1979L405.148 71.1797V47.4755H385.526V40.9969H421V40.9973ZM347.442 27.5114V27.5297H347.59V54.7431H336.123C336.123 54.7431 337.262 59.4013 339.715 61.2399L341.293 58.2622H349.004C349.004 58.2622 347.338 62.9037 344.71 65.8803L344.724 65.9089C344.86 66.1649 346.014 68.0958 350.669 69.6459V77.6149C350.669 77.6149 335.957 75.4086 327.895 54.7431H326.083V70.3816H331.171V76.8506H316.86V27.5202H318.364V27.511H347.442L347.442 27.5114ZM384.755 37.3219C382.346 43.603 377.181 48.5582 376.976 48.7541L376.969 48.7601V77.4957H367.99V56.3452C364.891 58.5881 361.364 59.9768 361.364 59.9768V51.3241C372.053 44.915 376.698 37.3219 376.698 37.3219H384.755ZM313.918 42.8626V49.332H305.216V53.1834H313.918V59.662H305.216V70.7806H314.011V76.8514L296.071 76.8411V59.662H289.819V53.1834H295.809V49.332H289.819V42.8626H313.917H313.918ZM235.808 49.2847V55.7542H219.055V49.2843H235.808V49.2847ZM338.455 44.2084H325.907V48.2831H338.455V44.2084ZM378.253 27.2892C378.253 27.2892 374.831 37.4376 361.364 45.9838V36.7973C361.364 36.7973 369.487 31.0282 369.594 27.2892H378.253V27.2892ZM296.166 27.6152L304.658 27.6601C304.658 27.6601 303.271 31.1712 302.569 32.3088H313.918V38.4273H296.487C296.487 38.4273 292.009 41.5048 289.819 42.2052V34.5564C289.819 34.5564 295.115 32.081 296.166 27.6148V27.6152ZM338.455 33.9908H326.17V37.7309H338.455V33.9908H338.455ZM235.808 29.9157V36.3748H219.055V29.9161H235.808V29.9157ZM418.056 27.5309V34.0091H387.996V27.5305H418.056L418.056 27.5309ZM209.045 27.0571V33.5266H187.751V27.0571H209.045Z" fill="#024388"/>
<path d="M62.4442 14.106L90.0442 14.1823L79.0044 23.2583H91.3384C94.0364 23.2583 112.12 26.0834 112.12 45.1791C111.22 62.9762 100.93 64.076 99.8305 65.9754C98.7316 67.8757 99.5305 70.7744 100.93 71.074C102.329 71.3741 111.919 76.373 111.919 92.7699C111.519 111.767 93.1452 114.581 93.1452 114.581H14.6089C14.6089 114.581 11.0119 97.07 21.3026 95.1697L93.52 95.2452V87.8596H70.5627V49.6827H93.6194V42.5256H14.2298C14.2298 42.5256 16.8061 30.1022 17.446 27.3831C18.0847 24.6629 19.8435 24.3358 21.0422 24.3358H31.5618L40.1379 18.1056H54.8515C56.3702 18.1056 58.4485 17.3039 62.4442 14.106ZM62.8027 49.7832V88.0599H15.1535V71.394H45.8975V64.1077H15.1535V49.7832H62.8027V49.7832Z" fill="#FBBE02"/>
</svg>
