<svg width="128" height="128" viewBox="0 0 128 128" fill="none" xmlns="http://www.w3.org/2000/svg">
<path d="M63.467 20.5L87.3765 20.566L77.8125 28.425H88.4975C90.8345 28.425 106.5 30.871 106.5 47.406C105.721 62.816 96.806 63.7685 95.854 65.4135C94.902 67.0585 95.594 69.5685 96.806 69.828C98.018 70.088 106.326 74.4165 106.326 88.6145C105.98 105.064 90.0625 107.5 90.0625 107.5H22.0275C22.0275 107.5 18.9115 92.3375 27.826 90.6925L90.3875 90.7575V84.3625H70.4995V51.3055H90.4735V45.108H21.699C21.699 45.108 23.931 34.351 24.485 31.9965C25.0265 29.6915 26.498 29.3715 27.5335 29.3585H36.7135L44.143 23.9635H56.889C58.205 23.9635 60.0055 23.269 63.467 20.5ZM63.777 51.3925V84.536H22.499V70.105H49.1325V63.796H22.499V51.3925H63.777Z" fill="#FBBE02"/>
</svg>
