<svg width="128" height="128" viewBox="0 0 128 128" fill="none" xmlns="http://www.w3.org/2000/svg">
<path d="M61.9502 63.8504C61.9002 63.9004 61.9002 63.9504 61.8502 64.0004C61.8002 63.9504 61.8002 63.9004 61.7502 63.9004C61.4502 64.0004 61.2002 64.3504 61.1002 64.8504C61.0002 65.3504 60.8002 65.8504 60.7002 66.3504C60.6002 66.8004 60.6002 67.3004 60.4502 67.9504C59.9002 67.3504 59.2502 66.8004 58.8002 66.1504C57.9002 64.8504 57.2502 63.5004 57.0502 61.8504C56.8502 60.4004 55.8002 59.5504 54.5002 58.9504C53.7502 58.6004 53.7502 58.5504 54.2002 57.8504C55.7502 55.7004 57.7502 54.2504 60.3002 53.5504C62.6002 52.9504 64.9002 53.0504 67.0502 54.3504C68.5002 55.2504 69.6002 56.4504 70.7002 57.7004C71.5002 58.6504 72.3502 59.6004 73.3502 60.4004C73.9502 60.9004 74.7502 61.1504 75.5002 61.3004C77.1002 61.6504 78.7002 61.7004 80.2502 62.1004C81.3502 62.4004 82.1502 63.2504 82.6002 64.4004C82.8002 64.9504 82.6502 65.3504 82.3002 65.7504C81.5502 66.5004 80.7502 67.2004 80.0002 67.9504C79.2002 68.7504 78.4502 69.6004 77.7002 70.4004C77.0502 71.1004 76.4002 71.8004 75.7002 72.4504C75.5002 72.6504 75.0502 72.7504 74.8002 72.6004C73.3002 71.8504 71.7002 71.1504 70.3502 70.1504C69.0002 69.1504 68.1502 67.7504 68.7002 65.8504C68.8502 65.4004 68.8502 64.9004 68.7002 64.4504C68.6502 64.3004 68.5002 64.1004 68.3002 64.0004C68.2002 63.9504 68.1002 63.9004 68.0002 63.9004C67.7502 63.9004 67.3002 64.2004 67.2502 64.4504C67.0002 65.6504 66.8502 66.9004 66.7002 68.1504C66.6002 68.9004 66.9502 69.5004 67.4002 70.0504L67.7002 70.5004C66.7002 70.6004 65.3502 69.4504 65.3002 68.4004C65.2502 67.6504 65.3502 66.8504 65.4002 66.0504C65.4502 65.6004 65.6002 65.1004 65.6002 64.6504C65.6002 64.4004 65.3002 63.9504 65.1502 63.9504C64.8502 63.9504 64.4002 64.2004 64.3502 64.4504C64.0502 65.5004 63.8002 66.5504 63.7002 67.6004C63.6502 68.3504 63.9502 69.1504 64.0502 69.9004C63.1002 69.8504 61.9502 68.2504 62.2002 67.4004C62.4002 66.6504 62.5502 65.9004 62.7002 65.1504C62.8002 64.6504 62.8002 64.1504 62.1502 63.9504C62.0502 63.8504 62.0002 63.8504 61.9502 63.8504ZM68.5002 61.9504C68.3502 61.7504 68.2002 61.6004 68.0002 61.5504C67.8002 61.5004 67.5502 61.6004 67.4002 61.7504C67.2502 61.9004 67.2002 62.1504 67.2002 62.3504C67.2002 62.5004 67.3002 62.6504 67.4502 62.8004C67.4002 62.5504 67.5002 62.3004 67.6502 62.1004C67.8002 61.9004 68.0502 61.8004 68.2502 61.8504C68.4002 61.8504 68.4502 61.9004 68.5002 61.9504ZM62.6002 62.3504C62.6502 61.9004 62.3002 61.6004 61.8502 61.6004C61.6502 61.6004 61.4502 61.6504 61.3002 61.8004C61.1502 61.9504 61.1002 62.1504 61.1502 62.3504V62.4004L61.3002 62.1004C61.4502 61.9004 61.6502 61.8004 61.8502 61.8504C62.2002 61.8504 62.4502 62.0504 62.6002 62.3504ZM65.6502 62.3504C65.6002 62.0504 65.2502 61.6504 64.9502 61.6004C64.7002 61.5504 64.3502 61.9504 64.0502 62.1504V62.4504C64.1002 62.5004 64.1502 62.5004 64.2002 62.5504C64.5002 62.3004 64.8502 61.8504 65.1002 61.9004C65.3002 61.9504 65.5002 62.1504 65.6502 62.3504ZM96.6502 61.0004H89.9002C89.4502 61.0004 89.1002 60.9004 88.9502 60.4504C88.8502 60.3004 88.7502 60.1504 88.6502 60.0504C87.2502 58.7004 85.8502 57.4004 84.4502 56.0504C83.5502 55.2004 82.7502 54.2504 81.8502 53.3504C80.6002 52.1004 79.3002 50.9004 78.0002 49.6504C76.9502 48.6504 75.9002 47.6504 74.9002 46.6004C74.0002 45.7004 73.1502 44.7004 72.2002 43.8004C71.0002 42.6004 69.6502 41.5004 68.5502 40.2504C67.7002 39.2504 66.7002 38.5504 65.4502 38.2504C63.4002 37.8004 61.7502 38.4004 60.3502 39.9504C59.6002 40.8004 58.7002 41.5504 57.9002 42.3504C56.5502 43.7504 55.2002 45.1504 53.8002 46.5004C53.0002 47.3004 52.1502 48.0504 51.3502 48.8504C50.0502 50.1504 48.8002 51.5004 47.5002 52.8004C46.6502 53.6504 45.7502 54.4004 44.9502 55.2504C43.7002 56.5004 42.5002 57.8004 41.2502 59.0504C40.7002 59.6504 40.1502 60.2504 39.5502 60.7504C38.1502 62.0004 37.9502 64.3004 38.5002 65.7504C38.9502 66.9504 39.9002 67.8004 40.8002 68.7004C41.7502 69.6504 42.7002 70.5504 43.6502 71.5004L49.1502 76.8504C50.0502 77.7504 50.9002 78.6504 51.8002 79.5004C53.9002 81.5504 55.9502 83.6504 58.0502 85.7004C58.9502 86.6004 59.8502 87.5504 60.8002 88.4004C62.1002 89.6504 63.7002 89.8504 65.4002 89.5504C66.5502 89.3504 67.4002 88.7004 68.2002 87.9004C74.9002 81.2004 81.6502 74.5504 88.3002 67.8004C89.2002 66.9004 90.0502 66.6004 91.2502 66.6504C95.3002 66.7004 99.4002 66.6504 103.45 66.6504C106.1 66.6504 106.8 67.5504 106.5 70.0504C106.3 71.9004 105.9 73.7004 105.35 75.4504C104.65 77.7004 103.8 79.9004 102.85 82.0504C102.2 83.5504 101.3 84.9504 100.4 86.3004C99.2502 88.0504 98.0002 89.7004 96.7502 91.3504C95.9502 92.3504 94.9502 93.2504 94.0002 94.2004C93.1002 95.0504 92.2502 95.9004 91.3002 96.7004C89.5002 98.1504 87.6002 99.5504 85.5502 100.65C83.6002 101.65 81.6502 102.65 79.6002 103.5C78.0002 104.2 76.4002 104.7 74.7002 105.1C71.3502 105.8 68.0002 106.4 64.5502 106.4C61.7002 106.4 58.9002 106.1 56.1002 105.6C53.8502 105.2 51.6502 104.65 49.5502 103.8C48.0502 103.2 46.5502 102.6 45.0502 101.95C44.5502 101.7 44.0502 101.45 43.6002 101.15C41.7502 99.9504 39.9002 98.8004 38.1502 97.5004C36.6502 96.4004 35.2502 95.2504 33.9502 93.9504C32.6502 92.6004 31.5002 91.1004 30.3002 89.6504C29.4002 88.5504 28.6002 87.3504 27.8002 86.2004C27.3002 85.4504 26.9502 84.7004 26.5002 83.9004C24.7002 80.6504 23.3502 77.1504 22.6002 73.5004C21.4502 68.0504 21.2002 62.6004 22.2002 57.1004C22.7002 54.3004 23.4502 51.5504 24.5002 48.9004C25.2002 47.0504 26.1502 45.2504 27.1502 43.5504C28.1002 41.9004 29.1502 40.3004 30.3002 38.8004C31.4002 37.3004 32.5502 35.8504 33.8502 34.5004C35.1502 33.1504 36.6002 32.0504 38.0002 30.9004C39.1502 29.9504 40.3502 29.0004 41.6502 28.2004C43.0002 27.3504 44.4502 26.7004 45.8502 25.9004C48.0502 24.7504 50.3502 23.8004 52.7002 23.2004C58.6002 21.6004 64.6002 20.9504 70.6502 22.0004C73.8002 22.5504 76.9002 23.2504 79.9002 24.4504C82.1502 25.3504 84.3002 26.3004 86.3502 27.6004C87.8502 28.6004 89.4002 29.6004 90.8502 30.7004C92.3002 31.8504 93.7502 33.0504 95.1002 34.3004C95.9002 35.0504 96.5502 35.9504 97.2002 36.8004C98.1002 37.9004 99.0502 39.0004 99.8502 40.2004C101 42.0504 102.2 43.9004 103.1 45.8504C104.45 48.7504 105.5 51.7504 106.2 54.9004C106.4 55.8504 106.55 56.8004 106.6 57.8004C106.7 59.6504 105.5 60.9504 103.6 61.0004H96.6502ZM49.4002 61.8504C50.6002 62.0004 51.6502 62.5004 52.5002 63.3504C53.4002 64.2004 54.3002 65.0504 55.1002 66.0004C55.8502 66.8504 56.5002 67.8004 57.1502 68.7004C57.5502 69.2504 58.0002 69.8504 58.4002 70.4504C59.2502 71.8504 60.4002 73.0004 61.9502 73.5004C62.8502 73.8004 63.8502 74.0004 64.8002 74.0504C66.1002 74.1004 67.3502 74.0004 68.6502 73.9504C69.9502 73.9004 71.1502 73.9504 72.3002 74.6504C72.7002 74.9004 72.7502 75.1004 72.4002 75.4504C71.5002 76.3504 70.7002 77.3004 69.8502 78.2504C68.9502 79.2004 68.0502 80.1504 67.2002 81.1004C66.8002 81.5504 66.3502 81.9504 65.9002 82.3504C65.1502 82.9504 64.2002 82.9504 63.5002 82.3504C62.4002 81.4504 61.3502 80.4504 60.3002 79.5004C59.4502 78.7504 58.6002 77.9504 57.8002 77.1504C57.1002 76.4504 56.4002 75.6504 55.7002 74.9504L53.1502 72.4004C52.4002 71.6504 51.7002 70.9004 51.0002 70.1504C50.1502 69.2504 49.3002 68.4004 48.5002 67.5004C47.7502 66.7004 47.0502 65.9004 46.3002 65.1004C46.1002 64.8504 45.8502 64.5504 45.6002 64.3504C45.2502 64.0504 45.3002 63.8004 45.6002 63.4504C46.2502 62.4504 48.3002 61.8504 49.4002 61.8504Z" fill="#DA251C"/>
</svg>
