<svg width="128" height="128" viewBox="0 0 128 128" fill="none" xmlns="http://www.w3.org/2000/svg">
<path d="M44.4 101.7C49.15 95.5 52.2 88 52.95 79.8H75.8C76.55 87.9 79.5 95.3 84.15 101.45C78.15 104.65 71.3 106.5 64.05 106.5C56.95 106.5 50.25 104.75 44.4 101.7ZM40.5 99.4C29.05 91.8 21.5 78.75 21.5 64C21.5 56.25 23.55 49 27.2 42.75C36.6 51.3 42.8 65.9 42.8 82.45C42.8 88.45 42 94.15 40.5 99.4ZM100.9 42.85C104.45 49.05 106.5 56.3 106.5 64C106.5 78.7 99.05 91.65 87.65 99.3C86.2 94.05 85.4 88.4 85.4 82.45C85.45 66 91.55 51.45 100.9 42.85ZM67.95 48.1C68 45.3 68.1 42.95 68.25 41.05H70.1C71.15 41.05 72.4 41.15 73.85 41.4V35.9C72.5 36.15 71.25 36.25 70.1 36.25C69.8 36.25 69.45 36.25 69.05 36.2C69.65 34.2 70.65 32.3 72.05 30.4H56.75C58.2 32.6 59.2 34.9 59.7 37.4C60.15 39.65 60.4 43.25 60.45 48.05C48.8 47.35 38.3 43.55 30.5 37.8C38.25 27.9 50.4 21.5 64 21.5C77.75 21.5 90 28.05 97.75 38.2C89.95 43.8 79.5 47.45 67.95 48.1ZM56.9 55.2H71.75C72.3 55.2 72.75 55.65 72.75 56.2V71.05C72.75 71.6 72.3 72.05 71.75 72.05H56.9C56.35 72.05 55.9 71.6 55.9 71.05V56.2C55.9 55.65 56.35 55.2 56.9 55.2Z" fill="#A62626"/>
</svg>
