<svg width="422" height="128" viewBox="0 0 422 128" fill="none" xmlns="http://www.w3.org/2000/svg">
<path d="M147.534 89.3829H150.174V96.454L150.212 97.2464C150.237 97.7072 150.262 98.0338 150.287 98.2265C150.374 98.805 150.649 99.1977 151.111 99.4051C151.573 99.6128 152.384 99.7166 153.546 99.7166H156.093V101.96H153.265L152.715 101.956C151.66 101.937 150.876 101.863 150.362 101.734C148.989 101.332 148.114 100.452 147.74 99.0939C147.613 98.6065 147.545 97.8195 147.535 96.7321L147.534 89.3829V89.3829ZM172.908 89.3829V96.9252C172.908 97.5287 172.958 97.9968 173.058 98.3299C173.158 98.6631 173.327 98.9493 173.564 99.1877C174.088 99.7032 174.819 99.9609 175.755 99.9609C176.354 99.9609 176.876 99.857 177.319 99.6501C177.762 99.4424 178.072 99.1627 178.246 98.8108C178.421 98.4588 178.509 97.8299 178.509 96.9252V89.3821H181.168V96.7933C181.168 97.7737 181.065 98.5815 180.859 99.2166C180.653 99.8513 180.338 100.363 179.913 100.753C178.927 101.62 177.528 102.054 175.718 102.054C173.782 102.054 172.371 101.627 171.485 100.772C171.023 100.332 170.704 99.8386 170.53 99.2916C170.355 98.745 170.268 97.9749 170.268 96.9817V89.3825H172.908V89.3829ZM203.64 91.627H195.773V89.3829H206.618V91.7023L199.013 99.7162H206.618V101.96H195.773V99.7917L203.639 91.627H203.64ZM231.505 89.3829V101.96H228.865V96.7559H224.032V101.96H221.373V89.3829H224.032V94.5119H228.865V89.3829H231.505ZM252.31 89.3075C253.559 89.3075 254.657 89.521 255.607 89.9487C256.717 90.4641 257.498 91.325 257.948 92.532C258.297 93.4744 258.472 94.5811 258.472 95.8508C258.472 97.1329 258.26 98.2453 257.835 99.1885C257.298 100.307 256.474 101.093 255.363 101.545C254.539 101.872 253.589 102.036 252.516 102.036C251.105 102.036 249.881 101.772 248.845 101.244C247.971 100.804 247.303 100.112 246.841 99.1697C246.379 98.2265 246.148 97.0825 246.148 95.7374C246.148 93.3364 246.741 91.627 247.927 90.6084C248.926 89.7537 250.387 89.3198 252.31 89.3075V89.3075ZM252.329 91.4192C251.105 91.4192 250.231 91.8216 249.707 92.6263C249.282 93.2548 249.07 94.2668 249.07 95.662C249.07 97.1329 249.332 98.2142 249.856 98.9054C250.381 99.5843 251.211 99.9236 252.347 99.9236C253.446 99.9236 254.254 99.5782 254.773 98.8866C255.291 98.1953 255.55 97.1268 255.55 95.6808C255.55 94.3611 255.338 93.3552 254.913 92.664C254.426 91.8466 253.565 91.4319 252.329 91.4192V91.4192ZM275.606 89.3829V96.9252C275.606 97.5287 275.656 97.9968 275.756 98.3299C275.856 98.6631 276.024 98.9493 276.261 99.1877C276.786 99.7032 277.516 99.9609 278.452 99.9609C279.052 99.9609 279.573 99.857 280.016 99.6501C280.46 99.4424 280.769 99.1627 280.943 98.8108C281.118 98.4588 281.206 97.8299 281.206 96.9252V89.3821H283.865V96.7933C283.865 97.7737 283.762 98.5815 283.556 99.2166C283.35 99.8513 283.035 100.363 282.611 100.753C281.624 101.62 280.226 102.054 278.415 102.054C276.479 102.054 275.069 101.627 274.182 100.772C273.72 100.332 273.401 99.8386 273.227 99.2916C273.052 98.745 272.965 97.9749 272.965 96.9817V89.3825H275.606V89.3829ZM310.118 101.96V89.3829H317.179C318.291 89.3829 319.096 89.5148 319.595 89.7791C320.182 90.0679 320.626 90.5522 320.925 91.2308C321.135 91.686 321.244 92.1815 321.243 92.6828C321.243 93.3368 321.072 93.946 320.728 94.5119C320.385 95.0773 319.951 95.4673 319.427 95.6812C320.638 96.234 321.243 97.221 321.243 98.6415C321.243 99.4585 321.05 100.144 320.663 100.697C320.326 101.174 319.895 101.505 319.37 101.687C318.846 101.869 318.066 101.96 317.029 101.96H310.118V101.96ZM312.778 94.5496H316.392L316.698 94.545C316.929 94.5373 317.106 94.5199 317.226 94.493C317.394 94.4553 317.56 94.3738 317.722 94.248C318.11 93.946 318.303 93.5314 318.303 93.0033C318.303 92.5005 318.122 92.1297 317.76 91.8908C317.498 91.7147 317.061 91.627 316.449 91.627H312.778V94.5496ZM312.778 99.7162H316.392L316.698 99.7116C316.932 99.704 317.111 99.6866 317.236 99.6597C317.416 99.6194 317.583 99.5352 317.723 99.4147C318.11 99.1127 318.303 98.6981 318.303 98.1699C318.303 97.6672 318.122 97.2964 317.76 97.0575C317.498 96.8813 317.061 96.7937 316.449 96.7937H312.778V99.7162ZM334.744 101.96L339.913 89.3829H342.966L348.135 101.96H345.026L343.809 99.0562H339.07L337.853 101.96H334.744V101.96ZM341.449 92.4186L339.669 96.8125H343.228L341.449 92.4186H341.449ZM364.801 92.7394V101.96H362.254V89.3829H365.662L370.625 98.7546V89.3829H373.154V101.96H369.895L364.801 92.7394ZM391.131 89.3829V101.96H388.471V89.3829H391.131ZM391.224 95.6054L396 89.3829H399.503L394.277 95.6054L399.259 101.96H395.757L391.224 95.6054ZM184.593 28.2758H200.382V34.8322H184.593V37.0402H200.382V52.7625C200.382 53.833 200.001 54.7474 199.24 55.5059C198.478 56.2641 197.56 56.6433 196.485 56.6433H172.231C171.97 60.7226 171.586 63.8737 171.08 66.0962C170.575 68.3188 169.55 70.9571 168.007 74.0113H159.937C161.87 70.4401 163.08 66.8363 163.565 63.1998C164.049 59.5636 164.208 50.8435 164.04 37.0402H175.927V26.4691H184.593V28.2754V28.2758ZM192.293 43.5124H172.52V49.7915H190.725C191.179 49.7915 191.554 49.6515 191.85 49.371C192.145 49.0902 192.293 48.7344 192.293 48.3029V43.512V43.5124ZM148.983 55.1736H158.139C156.893 60.7272 155.877 64.713 155.091 67.1325C154.305 69.5512 152.981 71.8441 151.118 74.0113H142.86C143.764 73.2612 144.84 70.9687 146.087 67.1321C147.334 63.296 148.299 59.3098 148.983 55.1736ZM240.827 26.4691H248.017V74.0113H240.827V26.4687V26.4691ZM212.772 36.9901H218.357C218.114 43.522 217.877 48.4121 217.648 51.6601C217.416 54.9321 217.1 58.1975 216.699 61.4531H211.167C211.562 58.1982 211.861 54.9323 212.062 51.6597C212.262 48.4121 212.499 43.522 212.772 36.9901ZM237.232 61.4531H231.535C231.875 57.9831 232.065 54.6639 232.105 51.4951C232.145 48.3263 232.056 43.5724 231.839 37.2332H237.536C237.784 43.6001 237.888 48.354 237.849 51.4951C237.809 54.6362 237.604 57.9554 237.232 61.4531H237.232ZM257.904 61.4531H252.207C252.171 58.3118 252.054 55.172 251.858 52.0367C251.657 48.7737 251.275 43.8393 250.714 37.2332H256.41C256.908 43.5981 257.254 48.3552 257.447 51.5047C257.642 54.6547 257.794 57.9708 257.904 61.4531H257.904ZM269.588 26.4691V74.0113H261.499V26.4687H269.588L269.588 26.4691ZM221.882 26.4691H230.042C230.14 40.6613 230.034 50.4685 229.724 55.8906C229.414 61.3131 228.345 67.3533 226.517 74.0113H218.358C220.047 68.3922 221.116 62.352 221.565 55.8906C222.013 49.4295 222.12 39.6223 221.882 26.4691V26.4691ZM305.539 25.5717H336.997V42.1757C336.997 43.2477 336.795 44.2082 336.391 45.0568C336.031 45.9499 335.493 46.7538 334.774 47.4685C334.19 48.0494 333.404 48.5852 332.416 49.0764C331.428 49.4341 330.485 49.6126 329.587 49.6126H314.072V66.172C314.072 66.7082 314.274 67.1994 314.678 67.646C315.172 68.048 315.666 68.2492 316.16 68.2492H318.383L321.28 74.0109H313.017C311.984 74.0109 311.018 73.832 310.12 73.4747C309.222 73.1173 308.414 72.5815 307.695 71.8668C307.111 71.286 306.572 70.5271 306.078 69.5889C305.723 68.67 305.54 67.6932 305.54 66.7078V25.5717H305.539ZM287.499 53.2876H281.272V47.6255H287.499V42.9615H281.272V37.2329H301.944V42.9615H294.142V47.6251H301.944V53.2876H294.142V66.2586C294.142 66.8771 294.345 67.3629 294.751 67.7164C295.203 68.1138 295.699 68.3126 296.24 68.3126H299.643V74.0109H295.282C294.244 74.0109 293.252 73.834 292.304 73.4809C291.808 73.3039 291.368 73.0831 290.984 72.8181C290.573 72.5311 290.177 72.2215 289.8 71.8907C289.078 71.2279 288.536 70.4771 288.176 69.6378C287.724 68.7546 287.499 67.8049 287.499 66.7886V53.2876H287.499ZM335.904 60.6141H331.126L339.693 73.1139H330.071L316.325 53.3791H325.554L328.835 57.5565L330.091 53.3791H338.011L335.904 60.6141V60.6141ZM301.944 34.5422H279.475L283.671 25.5717H292.537L291.454 27.8477H301.944V34.5418L301.944 34.5422ZM328.908 30.9538H313.628V35.4388H328.908V30.9538ZM328.908 39.9239H313.628V45.306H326.83C327.411 45.306 327.881 45.026 328.238 44.4652C328.685 44.0728 328.908 43.4843 328.908 42.6992V39.9239V39.9239ZM350.479 53.1561L355.723 41.6291H350.479L357.739 25.5717H367.555L362.378 37.0317H367.555L362.849 47.4258H365.135V74.0109H356.126V53.1561H350.479ZM369.353 39.0269H408V45.6907H397.454V66.6809C397.454 67.7025 397.254 68.658 396.853 69.5462C396.675 70.0347 396.453 70.4571 396.186 70.8125C395.89 71.2028 395.578 71.5808 395.251 71.9453C394.628 72.5669 393.827 73.1 392.848 73.5443C392.048 73.8555 391.091 74.0109 389.979 74.0109H378.297L381.368 68.0137H385.573C386.152 68.0137 386.641 67.7914 387.041 67.3471C387.486 66.9917 387.709 66.5032 387.709 65.8816V45.6907H369.353V39.0269H369.353ZM146.943 40.1628H155.077L159.098 50.9639H151.058L146.943 40.1628ZM145.556 26.4687H153.691L157.36 36.4451H149.32L145.556 26.4687ZM404.405 25.5717V31.8508H373.847V25.5717H404.405Z" fill="black"/>
<path d="M43.3088 112.077C49.3614 104.156 53.2868 94.523 54.2319 84.0307H83.4426C84.3746 94.3737 88.2023 103.882 94.1083 111.737C86.4502 115.856 77.692 118.192 68.3879 118.192C59.3428 118.192 50.813 115.984 43.3088 112.077V112.077ZM38.3214 109.133C23.6625 99.3892 14 82.7252 14 63.804C14 53.8972 16.6487 44.609 21.2765 36.6089C33.3132 47.5773 41.2363 66.245 41.2363 87.4295C41.2363 95.0726 40.2054 102.388 38.3214 109.133V109.133ZM115.591 36.7693C120.162 44.7332 122.775 53.9634 122.775 63.804C122.775 82.6279 113.213 99.2184 98.6799 108.982C96.8224 102.279 95.8065 95.0157 95.8065 87.4295C95.8065 66.3481 103.654 47.7589 115.591 36.7693V36.7693ZM73.4204 43.4527C73.4581 39.8931 73.5812 36.8866 73.7897 34.4333H76.1672C77.4981 34.4333 79.1002 34.5875 80.9735 34.8968V27.8449C79.2725 28.1349 77.6704 28.2796 76.1672 28.2796C75.7134 28.277 75.2597 28.2625 74.8067 28.2361C75.5579 25.6993 76.8338 23.2344 78.634 20.8419H59.0754C60.9352 23.6337 62.1911 26.6102 62.8435 29.7713C63.4424 32.6754 63.7663 37.2274 63.8152 43.4277C48.8875 42.5353 35.4765 37.699 25.512 30.3382C35.4661 17.6031 50.9711 9.41608 68.3879 9.41608C85.9951 9.41608 101.648 17.7827 111.588 30.7571C101.586 37.9536 88.2385 42.6449 73.4204 43.4527V43.4527ZM58.8996 52.5667H78.7752C79.2444 52.5667 79.6253 52.9475 79.6253 53.4168V73.2923C79.6253 73.7616 79.2444 74.1424 78.7752 74.1424H58.8996C58.6742 74.1424 58.458 74.0528 58.2985 73.8934C58.1391 73.734 58.0496 73.5178 58.0496 73.2923V53.4164C58.0496 52.9471 58.4304 52.5667 58.8996 52.5667Z" fill="#A62626"/>
</svg>
