<svg width="128" height="128" viewBox="0 0 128 128" fill="none" xmlns="http://www.w3.org/2000/svg">
<path d="M51.5 64.15C51.5 63.85 63.65 51.55 64 51.5C64.3 51.45 75.8 62.7 76.5 63.95L64 76.5L51.5 64.15ZM106.5 60.25C106.5 56.65 106.05 53.1 105.1 49.6C104.45 47.3 103.55 44.95 102.5 42.95C100.25 38.65 97.95 35.45 94.65 32.25C91.45 29.15 87.9 26.7 83.65 24.65C81.5 23.65 79.25 22.9 76.75 22.2C70.05 20.45 62.7 20.65 55.95 22.1C53.25 22.7 50.75 23.45 48.4 24.4C43.55 26.4 39.9 28.65 36.2 31.9C30.35 37.05 23.2 47.55 23.2 58.3V62.8C23.2 80.2 38.4 97 56 97H59.2C63.75 97 68.85 95.1 72.15 93.75C73.8 93.05 81.35 88.25 81.45 86.95C82.65 86.85 86.85 79.95 87.6 78.45C90.35 72.75 91.8 65.45 89.85 59.25C89.65 58.65 88.25 54.65 88.25 54.6C90.5 56.25 92.7 63.5 92.7 67.8C92.7 85.8 77.35 100.75 59.3 100.75H58.1C47.45 100.75 38.85 96.1 33.5 90.8C30.25 87.6 28.5 84.95 26.15 80.85C25.1 79 24.25 77 23.45 74.9C23.05 73.9 21.7 68.7 21.5 68.35C21.5 79.5 27.25 90.35 32.9 96C40.7 103.8 51.75 106.9 62.55 106.9C85.2 106.9 105.05 90.65 105.05 68.35V66.3C105.05 56.75 100.35 46.9 95.65 41.9C90.2 36.05 83 32.1 72.3 31.5C54.25 30.45 37.55 45.05 37.55 63.4C37.55 66.55 38.35 70 38.9 73.35L39.1 73.3C36.85 72.5 35.3 64.4 35.3 60.5C35.3 41.75 50.9 27.55 70 27.55C100.5 27.65 106.45 60.25 106.5 60.25Z" fill="#00509E"/>
</svg>
