<svg width="60" height="60" viewBox="0 0 60 60" fill="none" xmlns="http://www.w3.org/2000/svg">
<path d="M7.55483 54.6698C6.08299 54.6706 4.67104 54.086 3.6294 53.0445C2.58776 52.0029 2.00168 50.5897 2 49.1155L2 11.5638C2 10.0882 2.58524 8.67302 3.62697 7.62961C4.66871 6.58619 6.0816 6.00001 7.55483 6.00001H15.0341C16.4656 5.99773 17.8625 6.44084 19.0317 7.26811L30.4262 16.6299L20.7788 24.7996C20.3594 25.1654 19.822 25.3668 19.2659 25.3668C18.7098 25.3668 18.1724 25.1654 17.7529 24.7996L14.9043 22.2951C14.6019 22.0744 14.2505 21.9307 13.8803 21.8766C13.51 21.8224 13.1322 21.8593 12.7795 21.9842C12.4267 22.109 12.1096 22.3181 11.8555 22.5932C11.6015 22.8683 11.4181 23.2012 11.3214 23.5632C11.2664 23.7614 11.2387 23.9662 11.2391 24.1719C11.2371 24.7678 11.4393 25.3464 11.812 25.8109L22.6178 40.1246C23.6534 41.4922 24.2096 43.1637 24.2003 44.88V51.9021C24.2003 52.2673 24.1285 52.6288 23.989 52.9661C23.8495 53.3035 23.6451 53.61 23.3873 53.8681C23.1296 54.1263 22.8236 54.3311 22.4868 54.4708C22.15 54.6105 21.789 54.6825 21.4245 54.6825H7.55483" fill="#1677FF"/>
<path d="M33.9173 34.136C33.2843 34.675 32.5247 35.2012 31.458 35.2012C30.5127 35.1666 29.6124 34.7879 28.9259 34.136L20.1553 26.7176C20.8906 26.5696 21.5747 26.2319 22.1398 25.738L23.4059 24.5904L43.7419 7.78804C45.0171 6.63361 46.6758 5.99618 48.3947 6.00002H51.9808C53.4541 6.00002 54.8669 6.5862 55.9087 7.62962C56.9504 8.67303 57.5357 10.0882 57.5357 11.5638V49.1155H57.5135C57.5135 50.5903 56.9286 52.0046 55.8875 53.0475C54.8463 54.0903 53.4342 54.6761 51.9618 54.6761H38.0985C37.7337 54.6765 37.3724 54.6049 37.0353 54.4654C36.6981 54.3259 36.3917 54.1211 36.1336 53.8629C35.8755 53.6047 35.6708 53.2981 35.5311 52.9605C35.3914 52.623 35.3195 52.2612 35.3195 51.8958V44.3411C35.3167 42.6803 35.841 41.0617 36.8166 39.7189L45.315 30.3888C45.7187 29.967 45.948 29.4077 45.9566 28.8235C45.9652 28.2393 45.7525 27.6734 45.3614 27.2399C44.9703 26.8064 44.4298 26.5373 43.8486 26.4869C43.2674 26.4365 42.6887 26.6084 42.229 26.9681H42.2448L33.9173 34.136Z" fill="#00B6FF"/>
</svg>
