<svg width="128" height="128" viewBox="0 0 128 128" fill="none" xmlns="http://www.w3.org/2000/svg">
<path d="M64.5 55.5L55 65L64.5 74.5L74 65L64.5 55.5Z" fill="#E60012"/>
<path d="M94.4 48.55C94.4 48.55 86.85 34.25 65.7 43.15C65.7 43.15 77.75 40.25 84.9 47.2L102 67.5L67.55 102.5H75.7L110.5 66.9L94.4 48.55ZM85.1 51.6C85.1 51.6 77.15 41.55 60.25 49.3C60.25 49.3 75.9 49 79.25 61.1C81.4 68.85 75 74.45 75 74.45L47.85 102.5H63.95L98.3 66.9L85.1 51.6ZM62.8 84.9C62.8 84.9 50.75 87.8 43.6 80.85L26.5 60.5L60.95 25.5H52.8L18 61.1L34.1 79.5C34.1 79.45 41.65 93.8 62.8 84.9ZM43.4 76.4C43.4 76.4 51.35 86.45 68.2 78.7C68.2 78.7 52.55 79 49.2 66.9C47.1 59.15 53.5 53.55 53.5 53.55L80.65 25.5H64.55L30.2 61.1L43.4 76.4Z" fill="#005BAC"/>
</svg>
