<svg width="363" height="128" viewBox="0 0 363 128" fill="none" xmlns="http://www.w3.org/2000/svg">
<path d="M135.57 83.6038H127.125V101.374H135.031C136.75 101.374 139.65 100.539 140.417 98.5759C141.432 95.9864 140.354 93.0006 137.206 92.1023C141.763 89.9935 141.079 83.6038 135.57 83.6038V83.6038ZM135.031 85.2533L136.108 85.5249C138.884 86.9238 138.035 90.0144 135.57 91.2672L134.492 91.5388H129.3V85.253H135.031V85.2533ZM134.782 99.7241H129.3V93.1257H134.513C137.475 93.1257 138.511 94.7336 138.511 96.7383C138.532 98.2207 136.605 99.7241 134.783 99.7241H134.782ZM175.265 98.6384L164.97 83.6038H161.988V101.374H164.142V86.6106L174.457 101.374H177.44V83.6038H175.264V98.6384H175.265ZM289.548 98.6384L279.253 83.6038H276.271V101.374H278.445V86.6106L288.74 101.374H291.723V83.6038H289.548V98.6384ZM309.385 93.1674V99.1813C304.269 100.476 297.723 100.079 297.723 92.6245C297.827 83.6663 305.864 85.1697 311.001 86.0677L310.731 84.1466C302.508 81.9333 295.114 84.6059 295.279 92.6245C295.507 102.919 304.745 102 311.808 100.831V91.5388H305.594V93.1674H309.385V93.1674ZM269.441 83.6038H271.616V101.374H269.441V83.6038ZM324.112 92.1652C328.669 90.056 327.985 83.6663 322.476 83.6663H315.164V101.437H321.937C323.656 101.437 326.556 100.601 327.323 98.6388C328.337 96.0284 327.26 93.0628 324.112 92.1652ZM321.937 85.2952L323.014 85.5665C325.79 86.9657 324.94 90.056 322.476 91.3092L321.398 91.5804H317.339V85.2955H321.937V85.2952ZM321.668 99.787H317.339V93.1883H321.419C324.381 93.1883 325.417 94.7962 325.417 96.8009C325.437 98.2627 323.511 99.787 321.668 99.787ZM339.434 83.3738C334.318 83.3738 330.154 87.4876 330.154 92.541C330.154 97.5944 334.318 101.708 339.434 101.708C344.529 101.708 348.693 97.5944 348.693 92.541C348.693 87.4876 344.529 83.3741 339.434 83.3741L339.434 83.3738ZM339.434 99.8706C335.353 99.8706 332.018 96.5712 332.018 92.541C332.018 88.511 335.353 85.2117 339.434 85.2117C343.514 85.2117 346.849 88.5107 346.849 92.541C346.828 96.5712 343.514 99.8706 339.434 99.8706H339.434ZM214.922 83.3741C209.805 83.3741 205.642 87.4876 205.642 92.541C205.642 97.5944 209.805 101.708 214.922 101.708C220.017 101.708 224.18 97.5944 224.18 92.541C224.18 87.4876 220.017 83.3741 214.922 83.3741ZM214.922 99.8706C210.841 99.8706 207.506 96.5712 207.506 92.541C207.506 88.511 210.841 85.2117 214.922 85.2117C219.002 85.2117 222.337 88.5107 222.337 92.541C222.316 96.5712 219.002 99.8706 214.922 99.8706ZM181.535 83.6038V101.374H183.979V83.6038H181.535V83.6038ZM193.465 83.6038H190.752L183.979 92.0816L191.85 101.374H194.833L186.692 91.8101L193.465 83.6038V83.6038ZM226.749 101.374H229.172V93.1674H236.774V91.5388H229.172V85.5249H237.582V83.6038H226.749V101.374ZM141.591 101.374H144.305L146.529 96.0841H155.137L157.312 101.374H159.756L152.714 83.6038H150.001L141.591 101.374ZM147.068 94.4342L151.078 85.5249L154.599 94.4342H147.068ZM263.745 98.6384L253.451 83.6038H250.468V101.374H252.643V86.6106L262.937 101.374H265.92V83.6038H263.745V98.6384Z" fill="black"/>
<path d="M177.593 46.1181V50.7678H155.696V73.6206C155.696 75.775 153.949 77.5214 151.795 77.5214H137.724V73.0322H148.22C148.841 73.0322 149.436 72.7856 149.875 72.3467C150.314 71.9078 150.561 71.3125 150.561 70.6918V50.7678H126.344V46.1181H177.593ZM315.298 42.7185L347.912 42.7211C348.751 42.7211 349.434 43.3825 349.471 44.2117L349.472 44.2815V47.0885H339.368V72.0504C339.368 74.6011 337.328 76.6756 334.791 76.7303L334.687 76.7313H323.46V72.0992H331.175C331.782 72.0992 332.365 71.8633 332.802 71.4414C333.238 71.0194 333.493 70.4444 333.514 69.8377L333.515 69.7587V47.0881H315.298V42.7185V42.7185ZM217.68 26.4205V33.9936H229.605C229.904 33.9936 230.192 34.1085 230.41 34.3146C230.627 34.5207 230.757 34.8024 230.773 35.1015L230.775 35.1638V43.2843H225.798V38.5752C225.798 38.4786 225.763 38.3855 225.698 38.3139C225.633 38.2422 225.544 38.1971 225.448 38.1873L225.408 38.1853H217.68V47.1143H225.591C226.044 47.1144 226.491 47.2131 226.903 47.4036C227.314 47.5941 227.678 47.8719 227.971 48.2176C228.264 48.5632 228.478 48.9685 228.599 49.4053C228.719 49.8421 228.743 50.2999 228.669 50.7469C228.44 52.131 228.072 53.4887 227.572 54.7994C226.651 57.2096 223.998 60.9562 219.613 66.039C223.737 69.3069 226.979 71.1032 229.341 71.4269C232.883 71.9128 233.19 72.3934 232.669 72.9398C232.148 73.4866 230.403 76.5222 229.861 76.5222C229.333 76.5222 225.982 74.7446 222.849 73.0751L222.595 72.9398C219.392 71.2323 216.592 68.6517 215.941 69.0272C215.289 69.4023 204.235 76.1062 202.259 76.1062C200.968 76.1062 199.932 75.0932 199.149 73.0679L199.101 72.9401L213.344 65.4045C212.016 64.3935 210.512 62.701 208.83 60.3272C207.186 58.007 205.918 54.9111 205.025 51.0394L204.964 50.7675H202.259C202.131 56.9341 201.951 60.8356 201.718 62.4727C201.486 64.1094 199.181 68.5332 194.803 75.7438C192.923 76.2942 191.608 75.5414 190.855 73.484C194.894 69.2883 198.157 61.3706 198.222 59.1972L198.223 59.133V33.9939H211.913V26.4209H217.68V26.4205ZM250.335 27.1344C250.335 27.6029 249.422 29.7861 247.595 33.6827L247.514 33.8556H256.669V38.108H244.916C243.436 40.4295 242.267 42.1999 241.41 43.4196H256.669V47.3699H248.514V54.0534H256.669V59.1969H248.514V69.3934C249.793 69.5654 250.641 69.5654 251.059 69.3934C251.477 69.2214 253.347 68.0332 256.669 65.829V70.0434L247.401 76.5222H244.325V59.1969H237.167V54.0534H244.325V47.3695H240.662V44.4483C240.156 45.1123 239.838 45.4442 239.707 45.4442C239.177 45.4442 236.763 42.1576 237.225 41.676C237.655 41.2292 242.416 34.2121 243.211 32.1367C243.612 31.0883 244.181 29.2747 244.916 26.6954C248.529 26.5119 250.335 26.6581 250.335 27.1341V27.1344ZM283.717 28.6532C284.529 28.6532 285.309 28.9699 285.892 29.536C286.474 30.1021 286.813 30.873 286.836 31.6849L286.838 31.7737V54.1494C281.542 54.0911 277.084 54.0911 273.465 54.1494C273.465 56.52 274.732 59.2621 277.267 62.3751L277.406 62.5454L285.651 56.6091C286.12 55.9592 286.874 56.0945 287.916 57.0144C289.479 58.3946 289.818 59.9707 288.983 59.9707C288.146 59.9707 282.157 63.1702 279.933 64.7447C283.043 67.778 286.842 70.1184 291.331 71.766L291.625 71.8725L287.916 76.5222C282.061 72.6394 278.31 69.9137 276.663 68.3451C276.231 67.9359 275.816 67.5104 275.417 67.0694C273.09 64.4845 270.586 60.2725 267.906 54.4335L267.776 54.1494H263.42C263.236 64.9651 263.398 70.5479 263.902 70.8968C264.659 71.421 270.716 68.4932 271.756 67.0694C272.434 66.1413 272.994 66.1206 273.435 67.0075L273.465 67.0697V70.373C273.465 70.7933 262.844 76.2955 262.419 76.5157L262.406 76.5222H258.239V28.6532H283.717V28.6532ZM309.953 40.4478C311.46 40.4478 313.395 41.9745 313.795 43.4192C312.784 44.6216 311.126 46.9335 308.82 50.3551V76.5222H304.254V56.2845C300.83 59.4669 298.938 61.1606 298.58 61.3657C298.042 61.6733 295.903 57.9563 295.408 57.9563C294.915 57.9563 298.584 55.8694 301.075 53.1122C303.566 50.3551 309.648 41.7435 309.953 40.4478ZM188.456 55.5555L193.067 58.4673L187.391 76.5219L181.857 74.9405L188.455 55.5559L188.456 55.5555ZM223.121 50.7678H209.681C209.619 50.7678 209.557 50.7828 209.502 50.8115C209.446 50.8402 209.399 50.8818 209.363 50.9328C209.327 50.9838 209.303 51.0428 209.295 51.1047C209.286 51.1665 209.293 51.2296 209.314 51.2884C210.176 53.719 211.026 55.6276 211.862 57.0144C212.757 58.4985 214.334 60.5395 216.593 63.1364C218.775 60.6332 220.327 58.5715 221.249 56.9521C222.109 55.4405 222.859 53.5443 223.497 51.2629C223.513 51.2049 223.516 51.1439 223.505 51.0848C223.493 51.0257 223.468 50.9699 223.432 50.922C223.396 50.874 223.349 50.8352 223.295 50.8084C223.241 50.7817 223.181 50.7678 223.121 50.7678H223.121ZM184.413 41.0529L193.067 47.6569L190.258 51.1836L181.27 44.6193L184.413 41.0529V41.0529ZM281.912 42.7185H263.448C263.352 42.7184 263.259 42.7541 263.187 42.8189C263.115 42.8836 263.07 42.9726 263.06 43.0687L263.058 43.1083V50.2754C263.058 50.372 263.094 50.4651 263.159 50.5368C263.223 50.6084 263.312 50.6535 263.408 50.6633L263.448 50.6653H281.912C282.008 50.6654 282.102 50.6296 282.173 50.5649C282.245 50.5002 282.29 50.4112 282.3 50.3151L282.302 50.2754V43.108C282.302 43.0046 282.261 42.9054 282.188 42.8323C282.115 42.7592 282.015 42.7181 281.912 42.7181L281.912 42.7185ZM211.862 38.4454H202.178V46.959H211.862V38.4454H211.862ZM153.345 26.4205C154.704 28.4235 155.383 30.1867 155.383 31.7095V34.5892H172.576C174.135 34.5892 175.61 35.3623 175.61 38.1853V44.6612H171.105V40.2909C171.098 38.8871 170.207 38.1853 168.432 38.1853H134.758C133.582 38.1398 132.994 38.643 132.994 39.6946V44.6612L128.028 44.6193V34.5892H149.896C150.314 32.5472 150.314 31.0392 149.896 30.0649C149.478 29.0909 148.926 28.2381 148.24 27.5062L153.344 26.4205H153.345ZM310.253 26.6957C312.858 28.1647 314.161 29.2111 314.161 29.8349C314.161 30.7702 301.503 42.7453 300.786 43.4196C300.069 44.0934 299.401 44.9544 297.8 43.4196C296.199 41.8844 296.787 41.1453 297.418 40.4481C297.706 40.1294 300.464 37.9491 304.375 33.7626C305.572 32.4803 307.532 30.1248 310.254 26.6961L310.253 26.6957ZM281.912 32.501H263.448C263.352 32.5009 263.259 32.5366 263.187 32.6013C263.115 32.6661 263.07 32.7551 263.06 32.8512L263.058 32.8908V38.9225C263.058 39.0191 263.094 39.1122 263.159 39.184C263.223 39.2557 263.312 39.3009 263.408 39.3107L263.448 39.3126H281.912C282.008 39.3127 282.102 39.2769 282.173 39.2121C282.245 39.1474 282.29 39.0583 282.3 38.9621L282.302 38.9228V32.8908C282.302 32.7874 282.261 32.6883 282.188 32.6152C282.115 32.542 282.015 32.501 281.912 32.501H281.912ZM185.967 27.5066L194.803 34.5892L191.73 38.1853L182.958 30.8275L185.967 27.5066V27.5066ZM345.214 29.8349C347.539 29.8349 348.167 31.3311 347.098 34.3231L347.056 34.4391H318.495V29.8349H345.214H345.214Z" fill="#191113"/>
<path fill-rule="evenodd" clip-rule="evenodd" d="M14.8118 64.2496C14.8118 36.9437 36.95 14.8068 64.2584 14.8068C91.5669 14.8068 113.705 36.9437 113.705 64.2496C113.705 91.5568 91.5669 113.695 64.2584 113.695C36.95 113.695 14.8118 91.5568 14.8118 64.2496" fill="url(#paint0_radial_63_12119)"/>
<path fill-rule="evenodd" clip-rule="evenodd" d="M67.0985 67.956C63.3315 71.4668 58.9054 74.281 54.0288 76.1967C52.3873 80.6498 51.49 85.466 51.49 90.4895C51.49 99.0597 54.097 107.017 58.5617 113.615C60.498 113.849 62.46 114 64.4606 114C65.6128 114 66.7406 113.907 67.8735 113.826C62.1536 107.714 58.6261 99.5245 58.6261 90.4895C58.6261 81.8587 61.8227 73.9746 67.0985 67.956M64.6657 60.2285C63.731 61.0988 62.8376 62.0116 61.9866 62.9642C62.929 62.103 63.825 61.1889 64.6657 60.2285M92.8314 49.1504C87.5016 49.1504 82.4086 50.1584 77.7302 51.9956C75.9162 56.9186 73.1933 61.3988 69.7624 65.2378C75.8454 59.6788 83.9419 56.2878 92.8314 56.2878C100.767 56.2878 108.052 59.0132 113.856 63.5487C113.794 60.3933 113.462 57.3035 112.833 54.3193C106.904 51.0313 100.09 49.1504 92.8314 49.1504" fill="#FFFFFE" fill-opacity="0.54"/>
<path fill-rule="evenodd" clip-rule="evenodd" d="M69.761 65.2377C68.8237 66.0926 67.9341 67.0015 67.0973 67.9554C68.0256 67.0916 68.9151 66.1827 69.761 65.2377M61.9854 62.9641C55.9037 68.5193 47.8111 71.9052 38.9267 71.9052C38.0551 71.9052 37.19 71.873 36.3351 71.8086C35.5073 74.0706 34.8083 76.3969 34.2496 78.776C35.7841 78.9511 37.3445 79.04 38.9267 79.04C44.2566 79.04 49.3495 78.0319 54.028 76.1961C55.8393 71.2769 58.5596 66.8006 61.9854 62.9641M14.1133 61.1987C14.0798 61.9441 14 62.6818 14 63.4388C14 66.0574 14.2626 68.6077 14.6553 71.1143C18.2253 73.7136 22.2201 75.7631 26.5174 77.1265C27.0594 74.795 27.7186 72.5099 28.491 70.2762C22.9488 68.4932 18.027 65.33 14.1133 61.1987M80.0446 33.4076C77.6565 33.9444 75.3276 34.6203 73.0553 35.4288C73.1042 36.1794 73.13 36.9364 73.13 37.6998C73.13 46.328 69.9359 54.2108 64.664 60.2281C68.431 56.7212 72.8558 53.9082 77.7286 51.9952C79.3688 47.5407 80.2661 42.7245 80.2661 37.6998C80.2661 36.2502 80.1914 34.8186 80.0446 33.4076M63.5551 14C67.2074 17.794 69.9972 22.4222 71.5988 27.5744C73.8427 26.8226 76.1369 26.184 78.4774 25.6639C77.3136 21.8506 75.6129 18.2716 73.4655 15.0132C70.265 14.3527 66.9499 14.009 63.5551 14" fill="#FFFFFE" fill-opacity="0.51"/>
<path fill-rule="evenodd" clip-rule="evenodd" d="M71.5978 27.5734C73.8418 26.8215 76.1359 26.183 78.4764 25.6628C79.2373 28.1527 79.7677 30.7417 80.0445 33.4066C77.6563 33.9434 75.3274 34.6193 73.0552 35.4278C72.8762 32.7101 72.378 30.0786 71.5978 27.5734ZM64.6647 60.227C68.4316 56.7201 72.8564 53.9071 77.7292 51.9941C75.9153 56.9171 73.1924 61.3973 69.7615 65.2363C68.8243 66.0911 67.9347 67.0001 67.0979 67.954C63.3309 71.4648 58.9048 74.279 54.0281 76.1947C55.8395 71.2755 58.5598 66.7992 61.9856 62.9628C62.9279 62.1015 63.824 61.1874 64.6647 60.227ZM28.4907 70.2755C27.7182 72.5091 27.0591 74.7943 26.5171 77.1258C29.0018 77.9137 31.5856 78.4724 34.2492 78.7749C34.808 76.3958 35.507 74.0695 36.3348 71.8075C33.6184 71.6028 30.9908 71.0788 28.4907 70.2755ZM47.9099 41.2779C50.5053 38.9799 53.2796 36.8724 56.2033 34.9837C56.2523 35.5193 56.2767 36.0626 56.2767 36.6097C56.2767 41.1298 54.5954 45.256 51.8262 48.3985C51.1902 48.9946 50.5684 49.6035 49.9594 50.2279C46.8516 52.8581 42.8324 54.4442 38.4436 54.4442C37.7728 54.4442 37.1098 54.4068 36.4584 54.3347C38.4062 51.4484 40.5691 48.7178 42.9212 46.1674C45.0879 45.1517 46.8516 43.4201 47.9099 41.2779Z" fill="#FFFFFE" fill-opacity="0.8"/>
<path fill-rule="evenodd" clip-rule="evenodd" d="M92.5261 101.093C86.698 101.093 81.9733 96.3732 81.9733 90.5399C81.9733 84.7067 86.698 79.9884 92.5261 79.9884C98.3555 79.9884 103.08 84.7067 103.08 90.5399C103.08 96.3732 98.3555 101.093 92.5261 101.093M92.5266 72.7068C82.6792 72.7068 74.6921 80.6861 74.6921 90.5399C74.6921 98.8823 80.4301 105.865 88.1661 107.814C97.5101 102.611 104.973 94.4665 109.34 84.6346C106.903 77.689 100.304 72.7068 92.5266 72.7068" fill="#FFFFFE" fill-opacity="0.44"/>
<path fill-rule="evenodd" clip-rule="evenodd" d="M51.826 48.3998C51.19 48.9959 50.5682 49.6048 49.9593 50.2292C50.6248 49.6653 51.2492 49.0538 51.826 48.3998M43.2161 19.4384C33.8038 23.8606 26.0009 31.1254 20.9658 40.1694C22.4875 47.6815 28.7289 53.4799 36.4585 54.3361C38.4063 51.4497 40.5691 48.7191 42.9212 46.1688C41.5617 46.806 40.0439 47.1626 38.4436 47.1626C32.613 47.1626 27.8895 42.443 27.8895 36.6111C27.8895 30.7778 32.613 26.053 38.4436 26.053C44.2717 26.053 48.9965 30.7778 48.9965 36.6111C48.9965 38.2885 48.6051 39.8721 47.9099 41.2792C50.5053 38.9812 53.2797 36.8737 56.2034 34.9851C55.5275 27.5168 50.2401 21.3901 43.2161 19.4384" fill="#FFFFFE" fill-opacity="0.62"/>
<path fill-rule="evenodd" clip-rule="evenodd" d="M56.2048 34.9836C60.9643 31.9079 66.1281 29.4065 71.5996 27.5732C72.3798 30.0785 72.878 32.71 73.0569 35.4277C65.0828 38.2639 57.872 42.7209 51.8276 48.3983C54.5968 45.2558 56.2782 41.1296 56.2782 36.6095C56.2782 36.0624 56.2537 35.5191 56.2048 34.9836ZM78.477 25.6626C83.2031 24.6133 88.1133 24.0507 93.1509 24.0302C96.5303 26.4968 99.6149 29.3433 102.268 32.5721C99.3858 32.1511 96.4389 31.9271 93.4367 31.9271C88.8368 31.9271 84.3528 32.4382 80.0451 33.4063C79.7683 30.7414 79.2379 28.1524 78.477 25.6626ZM24.74 92.7215C24.74 87.3582 25.3554 82.1352 26.5179 77.1259C29.0026 77.9138 31.5864 78.4725 34.2501 78.7751C33.1995 83.2539 32.6434 87.9221 32.6434 92.7215C32.6434 96.1435 32.9395 99.4907 33.4828 102.757C30.214 100.182 27.2968 97.1965 24.7696 93.8853C24.7666 93.7335 24.7614 93.582 24.7562 93.4304C24.7481 93.1951 24.74 92.9595 24.74 92.7215ZM49.9599 50.2279C46.8521 52.8581 42.8328 54.4442 38.4441 54.4442C37.7733 54.4442 37.1103 54.4068 36.4589 54.3347C33.149 59.2359 30.457 64.5851 28.4911 70.2754C30.9913 71.0787 33.6189 71.6027 36.3353 71.8074C39.3234 63.653 44.0069 56.3173 49.9599 50.2279M47.911 41.2776C46.1666 42.8225 44.502 44.4549 42.9223 46.1672C45.089 45.1514 46.8528 43.4199 47.911 41.2776" fill="#FFFFFE" fill-opacity="0.58"/>
<defs>
<radialGradient id="paint0_radial_63_12119" cx="0" cy="0" r="1" gradientUnits="userSpaceOnUse" gradientTransform="translate(64.2584 64.2509) rotate(90) scale(79.3647 79.3689)">
<stop stop-color="#F3C700"/>
<stop offset="1" stop-color="#D6342E"/>
</radialGradient>
</defs>
</svg>
