<svg width="128" height="128" viewBox="0 0 128 128" fill="none" xmlns="http://www.w3.org/2000/svg">
<path fill-rule="evenodd" clip-rule="evenodd" d="M22.2505 64.2126C22.2505 41.0025 41.0681 22.1859 64.2805 22.1859C87.4928 22.1859 106.31 41.0025 106.31 64.2126C106.31 87.4239 87.4928 106.242 64.2805 106.242C41.0681 106.242 22.2505 87.4239 22.2505 64.2126Z" fill="url(#paint0_radial_63_12154)"/>
<path fill-rule="evenodd" clip-rule="evenodd" d="M66.6946 67.3624C63.4926 70.3465 59.7304 72.7387 55.5852 74.367C54.19 78.1522 53.4272 82.246 53.4272 86.516C53.4272 93.8007 55.6432 100.565 59.4383 106.173C61.0841 106.372 62.7518 106.5 64.4524 106.5C65.4318 106.5 66.3904 106.421 67.3533 106.352C62.4914 101.157 59.493 94.1958 59.493 86.516C59.493 79.1797 62.2101 72.4782 66.6946 67.3624ZM64.6264 60.7943C63.8319 61.534 63.0725 62.3099 62.3492 63.1197C63.1502 62.3876 63.9118 61.6106 64.6264 60.7943ZM88.5676 51.3778C84.0372 51.3778 79.7082 52.2346 75.7315 53.7962C74.1896 57.9808 71.8751 61.789 68.9588 65.0522C74.1294 60.327 81.0115 57.4446 88.5676 57.4446C95.3129 57.4446 101.506 59.7613 106.439 63.6165C106.386 60.9344 106.104 58.308 105.569 55.7714C100.529 52.9766 94.7373 51.3778 88.5676 51.3778Z" fill="#FFFFFE" fill-opacity="0.54"/>
<path fill-rule="evenodd" clip-rule="evenodd" d="M68.9585 65.052C68.1618 65.7787 67.4056 66.5512 66.6943 67.3621C67.4833 66.6278 68.2395 65.8553 68.9585 65.052ZM62.349 63.1196C57.1795 67.8415 50.3007 70.7195 42.7489 70.7195C42.0081 70.7195 41.2727 70.6921 40.5461 70.6374C39.8424 72.5601 39.2482 74.5375 38.7733 76.5598C40.0777 76.7086 41.404 76.7841 42.7489 76.7841C47.2793 76.7841 51.6084 75.9273 55.5851 74.3668C57.1248 70.1855 59.437 66.3806 62.349 63.1196ZM21.6573 61.6193C21.6289 62.2529 21.561 62.8799 21.561 63.5233C21.561 65.7492 21.7843 67.917 22.118 70.0476C25.1525 72.257 28.5482 73.9991 32.2009 75.158C32.6616 73.1762 33.2219 71.2338 33.8785 69.3352C29.1675 67.8196 24.984 65.1309 21.6573 61.6193ZM77.6997 37.9965C75.6698 38.4528 73.6902 39.0273 71.7587 39.7145C71.8003 40.3525 71.8222 40.9959 71.8222 41.6449C71.8222 48.9789 69.1072 55.6793 64.6261 60.7941C67.828 57.8132 71.5891 55.4221 75.7311 53.796C77.1252 50.0097 77.8879 45.9159 77.8879 41.6449C77.8879 40.4127 77.8245 39.1958 77.6997 37.9965ZM63.6831 21.4999C66.7876 24.7248 69.159 28.6588 70.5203 33.0382C72.4276 32.3991 74.3777 31.8564 76.3671 31.4143C75.3779 28.1729 73.9323 25.1308 72.107 22.3611C69.3866 21.7997 66.5687 21.5075 63.6831 21.4999Z" fill="#FFFFFE" fill-opacity="0.51"/>
<path fill-rule="evenodd" clip-rule="evenodd" d="M70.5203 33.0381C72.4277 32.3991 74.3778 31.8563 76.3672 31.4142C77.0139 33.5306 77.4648 35.7312 77.7001 37.9964C75.6701 38.4527 73.6905 39.0273 71.7591 39.7145C71.607 37.4044 71.1835 35.1676 70.5203 33.0381ZM64.6265 60.794C67.8284 57.8131 71.5895 55.422 75.7315 53.7959C74.1896 57.9805 71.8751 61.7887 68.9588 65.0519C68.1622 65.7785 67.406 66.5511 66.6947 67.362C63.4928 70.3461 59.7306 72.7383 55.5853 74.3666C57.125 70.1853 59.4373 66.3804 62.3492 63.1194C63.1503 62.3873 63.9119 61.6103 64.6265 60.794ZM33.8787 69.3351C33.2222 71.2337 32.6619 73.1761 32.2012 75.1579C34.3132 75.8276 36.5094 76.3025 38.7736 76.5597C39.2485 74.5374 39.8427 72.56 40.5463 70.6373C38.2373 70.4633 36.0039 70.0179 33.8787 69.3351ZM50.3854 44.687C52.5915 42.7336 54.9497 40.9423 57.4349 39.3369C57.4765 39.7922 57.4973 40.254 57.4973 40.719C57.4973 44.5611 56.0681 48.0684 53.7143 50.7396C53.1737 51.2462 52.6451 51.7638 52.1275 52.2946C49.4859 54.5302 46.0695 55.8784 42.339 55.8784C41.7689 55.8784 41.2053 55.8467 40.6516 55.7854C42.3073 53.332 44.1457 51.011 46.145 48.8431C47.9867 47.9797 49.4859 46.5079 50.3854 44.687Z" fill="#FFFFFE" fill-opacity="0.8"/>
<path fill-rule="evenodd" clip-rule="evenodd" d="M88.3087 95.5296C83.3547 95.5296 79.3386 91.5179 79.3386 86.5596C79.3386 81.6013 83.3547 77.5907 88.3087 77.5907C93.2637 77.5907 97.2797 81.6013 97.2797 86.5596C97.2797 91.5179 93.2637 95.5296 88.3087 95.5296ZM88.309 71.4012C79.9387 71.4012 73.1497 78.1837 73.1497 86.5595C73.1497 93.6506 78.027 99.5861 84.6026 101.243C92.5451 96.8197 98.8888 89.8972 102.601 81.54C100.529 75.6362 94.9197 71.4012 88.309 71.4012Z" fill="#FFFFFE" fill-opacity="0.44"/>
<path fill-rule="evenodd" clip-rule="evenodd" d="M53.7139 50.7394C53.1733 51.2461 52.6448 51.7637 52.1272 52.2944C52.6929 51.8151 53.2237 51.2953 53.7139 50.7394ZM46.3953 26.1221C38.3948 29.881 31.7622 36.0562 27.4824 43.7436C28.7759 50.1289 34.0811 55.0576 40.6513 55.7853C42.3069 53.3319 44.1454 51.0109 46.1447 48.8431C44.9891 49.3848 43.6989 49.6879 42.3387 49.6879C37.3826 49.6879 33.3676 45.6762 33.3676 40.719C33.3676 35.7607 37.3826 31.7446 42.3387 31.7446C47.2926 31.7446 51.3087 35.7607 51.3087 40.719C51.3087 42.1449 50.976 43.4908 50.3851 44.6869C52.5912 42.7336 54.9494 40.9422 57.4346 39.3369C56.8601 32.9888 52.3658 27.781 46.3953 26.1221Z" fill="#FFFFFE" fill-opacity="0.62"/>
<path fill-rule="evenodd" clip-rule="evenodd" d="M57.4349 39.3371C61.4806 36.7229 65.8698 34.5966 70.5206 33.0383C71.1838 35.1678 71.6073 37.4046 71.7594 39.7147C64.9812 42.1254 58.8521 45.9139 53.7143 50.7398C56.0681 48.0686 57.4973 44.5613 57.4973 40.7192C57.4973 40.2542 57.4765 39.7924 57.4349 39.3371ZM76.3674 31.4144C80.3845 30.5226 84.5582 30.0444 88.8402 30.0269C91.7128 32.1235 94.3347 34.543 96.5901 37.2876C94.1399 36.9297 91.6351 36.7393 89.0832 36.7393C85.1732 36.7393 81.3618 37.1737 77.7002 37.9967C77.4649 35.7315 77.0141 33.5308 76.3674 31.4144ZM30.6899 88.4144C30.6899 83.8555 31.213 79.4159 32.2012 75.158C34.3132 75.8277 36.5094 76.3026 38.7736 76.5598C37.8806 80.3669 37.4079 84.3348 37.4079 88.4144C37.4079 91.323 37.6596 94.1682 38.1214 96.9445C35.3429 94.7559 32.8632 92.2182 30.7151 89.4036C30.7125 89.2745 30.7081 89.1458 30.7037 89.0169C30.6968 88.8169 30.6899 88.6167 30.6899 88.4144ZM52.1271 52.2947C49.4855 54.5303 46.0691 55.8785 42.3386 55.8785C41.7685 55.8785 41.2049 55.8468 40.6512 55.7855C37.8377 59.9515 35.5495 64.4984 33.8785 69.3352C36.0037 70.018 38.2372 70.4634 40.5461 70.6374C43.086 63.7061 47.0671 57.4707 52.1271 52.2947ZM50.3854 44.6871C48.9026 46.0003 47.4877 47.3878 46.145 48.8433C47.9867 47.9799 49.4859 46.508 50.3854 44.6871Z" fill="#FFFFFE" fill-opacity="0.58"/>
<defs>
<radialGradient id="paint0_radial_63_12154" cx="0" cy="0" r="1" gradientUnits="userSpaceOnUse" gradientTransform="translate(64.2805 64.2137) rotate(90) scale(67.4605 67.464)">
<stop stop-color="#F3C700"/>
<stop offset="1" stop-color="#D6342E"/>
</radialGradient>
</defs>
</svg>
