<svg width="128" height="128" viewBox="0 0 128 128" fill="none" xmlns="http://www.w3.org/2000/svg">
<path d="M94.6914 94.3517C96.436 92.5161 98.0144 90.5293 99.4079 88.4147C99.9819 87.5394 100.524 86.6435 101.032 85.7287C104.438 79.6132 106.376 72.5687 106.376 65.0697C106.376 59.3232 105.236 53.8402 103.17 48.8412C101.464 49.9057 99.7869 51.0151 98.1399 52.1682C99.2549 53.7132 103.598 61.1312 100.07 79.0867C91.6249 33.8517 49.8249 28.7252 49.8249 28.7252C41.5959 30.1982 36.1539 33.9152 36.1539 33.9152C87.4889 46.2567 93.8939 85.2872 94.6914 94.3517ZM78.7049 104.92C82.2971 103.583 85.6915 101.766 88.7954 99.5172C75.2734 54.0187 29.3549 40.9267 29.3549 40.9267L28.6339 41.5497C26.9386 44.0966 25.5249 46.82 24.4179 49.6722C22.5599 54.4472 21.5464 59.6412 21.5464 65.0692C21.5464 71.8292 23.1199 78.2162 25.9234 83.8902C26.1759 84.4152 26.7919 85.6532 27.0769 86.1462L27.2849 84.7732C24.0104 72.2922 26.5554 59.9427 29.0154 52.5837C53.9899 69.0877 72.7839 92.8577 78.7054 104.919L78.7049 104.92Z" fill="#0E70BB"/>
<path d="M38.5251 99.072C41.3485 101.194 44.4264 102.955 47.6871 104.313C71.6771 70.583 94.1316 54.461 103.17 48.842C101.925 45.8256 100.335 42.9633 98.4326 40.312C57.8151 52.602 42.0926 89.2005 38.5251 99.072ZM80.9661 26.142C75.7611 23.8545 70.0101 22.5895 63.9616 22.5895C52.7726 22.5895 43.1271 26.9015 35.5516 33.993L36.1541 33.9165C51.0591 25.361 70.6206 26.7655 76.8476 27.835C30.3731 40.558 29.2366 74.496 27.2976 86.4465C28.8595 89.1249 30.7086 91.6251 32.8121 93.903C38.7626 48.532 78.4421 38.695 91.9431 33.144C88.779 30.357 85.2164 28.0583 81.3731 26.324C81.2956 26.285 81.1601 26.224 80.9661 26.1415V26.142Z" fill="#81C927"/>
<path d="M91.8286 56.8494C89.5252 53.0315 86.7866 49.4939 83.6676 46.3074C80.1162 48.1535 76.698 50.2451 73.4376 52.5669C77.1776 55.9528 80.5175 59.7559 83.3921 63.9019C86.1304 61.4638 88.9439 59.1117 91.8286 56.8489V56.8494ZM75.7151 39.5209C71.4181 36.4654 67.1256 34.2499 63.3001 32.6499C59.0076 34.5899 55.2451 36.7539 51.9541 39.0669C56.5051 40.9979 60.5686 43.1704 64.2036 45.5089C68.1186 43.1114 72.0286 41.1549 75.7151 39.5209ZM47.9161 29.1154C46.1533 29.5251 44.4191 30.0495 42.7246 30.6854C44.4283 30.0772 46.1609 29.5532 47.9161 29.1154ZM74.6206 72.1859C71.1681 67.8064 67.4441 63.9744 63.6646 60.6429C59.6646 64.4494 56.2081 68.4219 53.2476 72.3219C56.9594 75.9587 60.5102 79.7563 63.8896 83.7039C67.335 79.744 70.9141 75.9024 74.6206 72.1859ZM53.8836 53.0804C50.4332 50.7389 46.8439 48.6088 43.1356 46.7019C40.1793 49.8569 37.6236 53.3647 35.5266 57.1459C38.4541 59.3165 41.3074 61.5855 44.0816 63.9489C47.0381 59.7689 50.3676 56.1784 53.8836 53.0804Z" fill="#256F3E"/>
</svg>
