<svg width="128" height="128" viewBox="0 0 128 128" fill="none" xmlns="http://www.w3.org/2000/svg">
<path d="M30.437 81.975C30.781 80.9525 31.469 80.6115 32.157 80.9525C35.2535 81.634 38.35 82.316 41.446 82.657C42.4785 82.9975 42.4785 82.9975 43.166 83.6795C44.5425 85.384 46.2625 86.7475 47.983 88.111C53.488 92.202 60.368 93.906 66.905 93.2245C68.2815 92.8835 68.2815 93.2245 67.9375 94.588C67.593 95.611 66.905 96.293 66.2175 97.3155C60.0245 105.838 47.639 107.542 38.694 101.065C32.157 96.2925 28.7165 88.793 30.437 81.9755V81.975ZM90.644 71.407C90.988 70.3845 91.332 70.3845 92.364 71.0665C93.052 71.748 93.7405 72.43 94.4285 73.4525C100.621 81.975 98.557 94.2475 89.612 100.725C83.419 105.156 75.162 106.178 68.9695 102.429C67.9375 102.088 67.9375 101.406 68.2815 100.724C70.0015 97.656 71.7215 94.929 72.754 92.202C73.098 91.179 73.098 91.179 74.13 90.8385C76.194 90.1565 78.2585 89.1335 79.9785 87.7705C85.8275 83.6795 89.268 77.8845 90.6435 71.407H90.644ZM83.3465 59.123C84.3395 61.8665 85.0015 64.6105 85.0015 67.6975C85.3325 79.7015 75.4015 89.3045 63.8165 89.3045C60.5065 89.3045 57.527 88.6185 54.879 87.247C54.548 87.247 54.217 86.904 54.217 86.561V70.098C54.217 68.726 55.21 68.383 55.872 69.412L62.8235 76.6145C63.1545 76.9575 63.1545 76.9575 63.8165 76.6145C69.7745 70.7845 75.733 64.6105 81.6915 58.7795C82.0225 58.437 83.0155 58.437 83.3465 59.123ZM38.35 39.363C39.382 39.363 39.726 39.704 39.726 40.7265C40.07 44.1355 40.414 47.2035 41.102 50.2715C41.446 51.2945 41.446 50.9535 40.758 51.9765C39.726 53.6805 38.694 55.7265 38.006 57.7715C35.5975 64.2485 36.6295 71.0665 39.038 77.2025C39.726 78.225 39.382 78.566 38.006 78.566C36.9735 78.566 35.9415 78.225 34.9095 77.8845C24.588 74.4755 19.0835 63.5665 22.524 52.999C24.932 45.499 31.125 40.045 38.35 39.363ZM64.153 44.4765C67.593 44.4765 70.6895 45.158 73.442 46.5215C73.786 46.5215 74.13 46.8625 74.13 47.2035V63.5665C74.13 64.93 73.098 65.2715 72.41 64.2485L65.185 57.0895C64.841 56.7485 64.841 56.7485 64.153 57.0895C57.96 63.2255 51.7675 69.021 45.5745 74.816C45.2305 75.157 44.1985 75.157 43.8545 74.4755C42.8225 71.748 42.1345 69.021 42.1345 65.953C41.446 54.0215 51.7675 44.4765 64.153 44.4765ZM80.667 39.363C90.988 35.954 101.997 41.7495 105.437 52.317C107.846 59.817 106.126 67.657 100.621 72.43C99.933 73.4525 99.245 73.1115 98.213 72.43C96.1485 70.0435 94.0845 67.6575 91.676 65.612C90.988 64.93 90.988 64.93 90.988 63.9075C90.644 61.5215 90.3 59.476 89.612 57.4305C87.5475 50.9535 82.731 45.8405 77.2265 42.431C76.194 41.7495 76.5385 41.4085 77.5705 40.7265C78.6025 40.045 79.6345 39.704 80.667 39.363ZM63.809 23C71.7215 23 78.9465 27.091 81.699 33.568C82.043 34.5905 81.699 35.2725 81.011 35.2725C77.9145 36.295 75.162 37.6585 72.41 39.363C71.7215 40.045 71.7215 40.045 70.69 39.704C68.625 39.363 66.217 39.022 64.153 39.022C57.272 39.022 50.7355 41.7495 45.9185 46.181C44.8865 46.8625 44.5425 46.8625 44.1985 45.499C43.8545 44.4765 43.8545 43.113 43.8545 42.09C43.8545 31.5225 52.7995 23 63.809 23Z" fill="#E30016"/>
</svg>
