<svg width="128" height="128" viewBox="0 0 128 128" fill="none" xmlns="http://www.w3.org/2000/svg">
<path d="M105.5 49.4493V42.4493C105.5 41.8493 105.15 41.4993 104.55 41.4993H78.5C75.8 41.4993 75.7 42.4493 75.7 43.9493V60.5993C75.7 62.2993 75.45 61.9993 74.95 61.4493C71.9 57.7493 60.05 43.4993 59.45 42.7993C58.3 41.4493 57.55 41.4993 55.3 41.4993H26.6C23 41.4993 23 43.2493 23 45.1993V84.0493C23 85.5993 23.9 86.4993 25.95 86.4993H46.2C47.55 86.4993 48.35 85.8993 48.35 84.7493V67.4993C48.35 67.0493 48.5 66.9993 48.8 67.2993C49.05 67.5493 59.25 79.7993 63.2 84.5993C64.85 86.2993 65.15 86.4993 68 86.4993H98.3C100.9 86.4993 101.05 85.2993 101.05 84.0493V51.1493C101.05 51.1493 103.25 50.9493 104.2 50.8493C105.2 50.7493 105.5 50.4493 105.5 49.4493Z" fill="#EC1D24"/>
</svg>
