<svg width="572" height="128" viewBox="0 0 572 128" fill="none" xmlns="http://www.w3.org/2000/svg">
<path d="M167.514 37.3018V24.284C167.514 23.2053 166.864 22.5012 165.708 22.5012H117.257C112.191 22.5012 112.082 24.2999 112.082 27.0552V57.9678C112.082 61.1683 111.598 60.5822 110.731 59.5683C105.022 52.6976 83.0181 26.2682 81.8714 24.9116C79.6943 22.4279 78.3111 22.5012 74.1227 22.5012H20.6662C14.0133 22.5012 14 25.7464 14 29.4039V101.55C14 104.411 15.6776 106.094 19.453 106.094H57.1621C59.6341 106.094 61.1453 104.968 61.1453 102.801V70.7242C61.1453 69.8538 61.4243 69.8027 62.0226 70.3979C62.503 70.8708 81.4298 93.6432 88.8458 102.565C91.9384 105.736 92.4767 106.095 97.773 106.095H154.14C158.987 106.095 159.234 103.89 159.234 101.551V40.4061C159.234 40.4061 163.32 40.0448 165.097 39.8492C166.912 39.6441 167.514 39.0841 167.514 37.3018" fill="#EC1D24"/>
<path d="M209.306 39.3168C208.145 39.3168 207.504 38.6244 207.504 37.6206V23.1973C207.504 21.8248 208.501 20.9878 210.027 20.9878H237.375V18.1248C237.375 18.1248 236.465 16.1108 239.777 15.6235C243.104 15.1426 250.31 14.0103 250.31 14.0103C250.31 14.0103 252.223 13.7765 252.223 15.5401V20.9878H278.13C280.13 20.9878 280.941 22.0432 280.941 23.4189V37.6206C280.941 38.4932 280.065 39.3168 279.2 39.3168H268.959C268.02 39.3168 267.414 38.3359 267.414 37.6206V30.3614H221.034V37.6212C221.034 39.0065 220.072 39.3174 219.31 39.3174H209.306V39.3168ZM205.828 49.479V44.1976C205.828 43.0206 206.405 42.1836 208.078 42.1836H280.223C282.162 42.1836 282.389 43.5982 282.389 44.0467V49.8866C282.389 50.5242 281.822 51.5663 280.482 51.5663H252.695V71.8098C252.695 79.2651 249.178 81.5835 242.764 81.9683H230.195C228.599 81.9683 228.048 80.8779 228.048 80.8779L226.522 74.0671C226.522 74.0671 226.477 72.4411 227.743 72.4411C229.032 72.4411 235.206 72.262 236.116 72.262C237.687 72.262 238.558 70.7837 238.558 69.4462L238.61 51.5663H207.642C206.267 51.5663 205.828 50.5566 205.828 49.479V49.479ZM332.204 63.6935C331.671 63.6935 331.542 64.0208 331.854 64.278C332.541 64.8731 335.525 66.6118 338.072 67.309C339.376 67.0263 343.838 64.4549 344.146 64.278C344.445 64.1175 344.403 63.6935 344.008 63.6935H332.204V63.6935ZM319.941 48.3642H353.014V46.3263H319.941V48.3642ZM319.941 41.1097H353.014V39.1776H319.941V41.1097ZM319.941 33.4822H353.014V31.4991H319.941V33.4822ZM298.261 16.4498C298.261 15.6942 298.671 14.7813 300.056 14.7813H371.146C372.392 14.7813 372.945 15.4854 372.945 16.0577V21.5958C372.945 22.1069 372.518 22.8976 371.146 22.8976H341.001L340.468 24.9419H365.312C367.104 24.9419 367.416 26.2081 367.416 26.9861V52.8899C367.416 54.1275 366.401 55.0915 364.699 55.0915H333.601L331.876 57.0363H364.422C365.032 57.0363 365.277 57.4125 365.277 57.4125L366.263 59.8872C366.44 60.2889 366.292 60.7618 366.077 60.993C364.329 63.2657 358.786 67.91 354.257 70.9543C353.99 71.1403 354.032 71.5904 354.347 71.6547C358.454 72.4262 365.119 72.9661 374.344 73.2297C374.838 73.2589 375.157 74.0336 374.838 74.4189C374.232 75.1453 369.581 82.0756 369.581 82.0756C368.954 82.879 368.2 82.7568 367.769 82.7218C360.892 82.2972 355.952 81.812 352.969 81.2976C349.798 80.7291 345.225 79.6679 339.231 78.1348C332.091 79.6424 327.793 80.5681 323.647 81.1436C320.358 81.5936 314.821 82.1043 306.199 82.5517C305.756 82.6155 304.87 82.1851 304.623 81.7153C303.328 79.3884 301.148 74.7053 301.06 74.4354C300.997 74.1846 300.916 73.4034 301.893 73.3391C302.817 73.294 312.794 72.6324 322.388 71.3204C322.831 71.2593 323.036 70.7741 322.651 70.5169C321.244 69.6556 319.628 68.4823 319.628 68.4823L317.766 67.2064C313.198 69.0578 307.311 71.2821 303.511 71.9283C303.132 71.9889 302.474 71.9538 301.864 71.1408C300.155 68.5115 297.682 63.7897 297.682 63.7897C297.682 63.7897 297.376 62.9607 298.16 62.7418C307.658 60.1284 314.065 57.3674 316.15 56.0012C316.439 55.8083 316.519 55.0915 315.765 55.0915H307.045C305.3 55.0915 305.191 53.4814 305.191 53.4814V26.764C305.191 25.562 305.952 24.9413 307.328 24.9413H327.604L327.989 22.8976H299.869C298.423 22.8976 298.26 22.1069 298.26 21.5958V16.4498H298.261ZM451.905 53.9654C454.126 52.1933 456.982 49.166 456.982 49.166H450.407C449.623 49.3297 449.741 50.2862 449.812 50.4854C449.812 50.4854 450.366 52.9829 450.625 53.5924C450.887 54.2088 451.569 54.2636 451.906 53.9649L451.905 53.9654ZM438.174 70.4298C440.533 69.8644 442.589 69.1582 445.192 68.3914C443.52 65.717 441.782 61.2231 440.982 57.9907C440.117 54.5399 439.477 49.3042 439.477 49.3042H438.174V70.4298ZM438.174 41.513H450.106V36.4346H438.174V41.513ZM438.174 28.6376H450.106V23.6522H438.174V28.6376ZM428.096 15.7521H460.516C462.328 15.7521 463.253 17.197 463.253 18.4999V47.2238C463.253 49.2882 461.265 49.166 461.265 49.166H458.406C459.076 49.8786 461.272 51.8654 462.603 52.9123C463.34 53.4968 463.977 53.9777 464.505 54.3858C464.931 54.7354 465.113 55.5219 464.473 56.2058C461.528 59.2453 458.65 61.3708 455.548 63.2519C456.479 64.6 458.65 67.3382 462.187 69.9835C463.756 71.1743 466.371 72.7307 468.052 73.6431C468.872 74.0698 468.872 74.8079 468.382 75.2479C466.647 76.7984 462.703 79.8385 460.996 81.7095C460.577 82.1622 459.76 82.5507 458.947 82.1622C452.487 78.9654 447.641 72.1308 447.641 72.1308V76.3521C447.641 76.3521 447.577 77.1545 446.721 77.4563C443.645 78.535 433.123 81.1993 428.532 82.7079C428.253 82.8015 427.639 82.7786 427.35 82.1978C426.4 80.1818 425.007 77.8707 423.967 76.0826C423.724 75.6714 423.993 75.2218 424.156 75.0778C424.575 74.6957 424.889 74.3711 425.059 74.0698C425.292 73.6553 425.337 72.9273 425.337 71.8645V18.2656C425.337 17.3346 425.635 15.7521 428.096 15.7521V15.7521ZM386.156 37.1249C387.005 36.0563 390.801 31.3854 393.43 26.5413C395.231 23.2027 396.275 20.7344 396.768 19.2258C396.768 19.2258 397.783 16.1023 398.058 15.4121C398.337 14.7218 399.349 14.7829 399.349 14.7829C399.349 14.7829 408.991 16.6252 409.401 16.7474C410.111 16.9812 409.932 17.9032 409.932 17.9032L409.02 19.9766H421.911C423.029 19.9766 423.519 20.4905 423.519 21.354V27.5302C423.519 28.0372 423.246 29.0032 421.774 29.0032H405.402L402.416 34.0338H419.875C421.127 34.0338 421.463 34.833 421.463 35.645V41.7314C421.463 42.2453 420.987 43.1088 419.875 43.1088H412.25V48.4502H420.986C422.379 48.4502 422.788 49.0438 422.788 50.241V56.3147C422.788 57.1915 422.068 57.6405 420.987 57.6405H412.25V68.2788C415.236 67.5471 417.09 66.8632 420.285 65.9481C420.644 65.8525 421.774 65.8036 421.774 67.0816V74.455C421.774 75.1262 420.993 75.649 420.609 75.7776C410.195 79.0967 403.519 81.1866 400.729 82.1622C400.351 82.2972 399.87 82.1622 399.634 81.6967C399.432 81.27 395.382 73.7297 395.382 73.7297C395.286 73.4247 395.286 72.972 395.843 72.6829C397.767 72.0601 398.82 71.0813 398.82 70.0217V57.6405H389.725C388.567 57.6405 388.24 57.0273 388.24 56.5363V49.6283C388.24 48.9253 388.864 48.4502 389.725 48.4502H398.952V43.1088H391.061C390.036 43.1088 390.058 42.2772 390.058 42.2772V40.2738C389.156 39.6803 386.156 38.3513 386.156 38.3513C385.746 37.9528 385.903 37.4522 386.156 37.1249V37.1249ZM484.855 36.6626C483.42 34.8139 480.826 31.6846 479.234 30.0123C478.881 29.6632 478.835 29.0032 479.539 28.5579C486.005 24.4131 493.989 17.6003 497.309 14.4354C498.002 13.8041 498.902 13.9869 499.242 14.1952C501.653 15.6591 504.703 16.8824 507.952 18.0966C508.328 18.2565 508.742 19.1599 508.215 19.7109C505.162 23.0549 500.715 26.8926 497.061 29.7944C493.213 32.8409 489.048 35.6402 486.74 37.0372C486.06 37.4469 485.183 37.0818 484.856 36.662L484.855 36.6626ZM556.303 34.4265C557.379 34.4265 558.168 34.9101 558.168 35.7975V42.6714C558.168 43.4845 557.183 43.9717 556.303 43.9717H546.405V72.9959C546.405 80.44 542.886 82.9736 536.462 83.1399H523.498C522.171 83.1399 521.863 82.5863 521.728 82.0416C521.622 81.5193 520.2 75.0746 520.104 74.7765C520.008 74.4821 520.155 73.5241 521.44 73.5241H529.793C531.379 73.5241 532.281 72.5761 532.281 71.2115V43.9717H511.455C510.674 43.9717 509.83 43.485 509.83 42.4892V36.2327C508.064 38.7541 506.041 41.3292 503.707 43.5589V81.1797C503.707 82.4067 502.703 82.929 501.949 82.929H492.037C491.1 82.929 490.287 82.3105 490.287 81.1797V54.1323C490.287 53.7896 489.989 53.8374 489.857 53.9724C488.069 55.4517 486.714 56.1824 486.265 56.4831C485.725 56.836 484.875 56.7106 484.554 56.2626C484.255 55.8492 482.483 53.8374 479.202 49.9264C478.64 49.2664 478.858 48.4688 479.394 48.0719C485.696 43.4946 488.862 40.7845 492.554 37.4214C495.418 34.8139 497.402 32.7224 500.169 29.7015C501.165 28.6095 502.176 29.5383 502.436 29.7015C502.703 29.8651 509.294 33.7952 509.561 33.8372L510.87 34.4265H556.303ZM516.139 26.2677C515.022 26.2677 514.37 26.0498 514.37 24.7979V17.8309C514.37 16.3122 515.358 16.2389 516.139 16.2389H551.558C552.675 16.2389 553.378 16.8377 553.378 17.6965V24.9929C553.378 25.5886 552.742 26.2682 551.558 26.2682H516.139V26.2677ZM214.001 104.327V109.989H219.189C221.216 109.989 222.179 109.973 222.746 109.87C223.562 109.749 224.247 109.468 224.763 109.02C225.292 108.579 225.557 107.973 225.557 107.219C225.557 106.592 225.356 106.036 224.951 105.598C224.531 105.167 223.954 104.838 223.195 104.627C222.424 104.426 221.073 104.327 218.511 104.327H214.001V104.327ZM214.001 95.7449V100.71H217.666C219.859 100.71 220.913 100.687 221.445 100.643C222.392 100.553 223.157 100.295 223.699 99.8668C224.25 99.4284 224.521 98.8822 224.521 98.2015C224.521 97.5213 224.295 96.9872 223.823 96.5627C223.352 96.1535 222.641 95.8985 221.71 95.8119C221.143 95.7672 219.859 95.7444 217.214 95.7444H214.001V95.7449ZM207.391 112.58V93.2081C207.391 93.2081 207.296 92.1251 208.587 92.1251H219.492C221.675 92.1251 223.313 92.1953 224.39 92.3361C225.471 92.4891 226.427 92.7798 227.291 93.224C228.135 93.6842 228.842 94.2852 229.413 95.0424C229.977 95.7863 230.261 96.627 230.261 97.5537C230.261 98.5729 229.916 99.506 229.222 100.353C228.524 101.199 227.574 101.835 226.366 102.254C228.059 102.637 229.356 103.279 230.261 104.2C231.169 105.116 231.609 106.181 231.609 107.411C231.609 108.398 231.325 109.324 230.732 110.254C230.153 111.187 229.356 111.9 228.339 112.456C227.323 113.012 226.073 113.354 224.582 113.462C223.654 113.545 221.395 113.609 217.826 113.609H208.587C207.338 113.609 207.391 112.58 207.391 112.58V112.58ZM251.442 105.14L247.559 97.1467L243.84 105.14H251.442ZM251.225 92.8977C251.225 92.8977 261.569 112.791 261.649 112.966C261.741 113.139 261.7 113.609 261.114 113.609H256.391C255.741 113.609 255.512 113.283 255.512 113.283L253.276 108.756H242.187C242.187 108.756 240.289 112.855 240.171 113.085C240.047 113.321 239.77 113.609 239.388 113.609H233.626C233.285 113.609 233.043 113.305 233.244 112.925C233.445 112.555 243.126 92.9105 243.126 92.9105C243.126 92.9105 243.514 92.1241 244.381 92.1241H250.072C250.849 92.1241 251.225 92.8977 251.225 92.8977ZM546.35 105.14L542.482 97.1467L538.781 105.14H546.35ZM546.137 92.8977C546.137 92.8977 556.489 112.791 556.579 112.966C556.652 113.139 556.611 113.609 556.037 113.609H551.309C550.65 113.609 550.423 113.283 550.423 113.283L548.191 108.756H537.097C537.097 108.756 535.215 112.855 535.094 113.085C534.973 113.321 534.695 113.609 534.304 113.609H528.525C528.197 113.609 527.961 113.305 528.168 112.925C528.359 112.555 538.033 92.9105 538.033 92.9105C538.033 92.9105 538.428 92.1241 539.291 92.1241H545.001C545.762 92.1241 546.137 92.8977 546.137 92.8977ZM264.319 113.609C263.717 113.609 263.64 112.973 263.64 112.973V92.945C263.64 92.945 263.592 92.1246 264.453 92.1246H269.396C270.158 92.1246 270.586 92.6995 270.586 92.6995L281.6 106.539V92.987C281.6 92.987 281.549 92.1246 282.404 92.1246H287.071C287.826 92.1246 287.858 92.987 287.858 92.987V112.925C287.858 112.925 287.871 113.609 287.141 113.609H281.719C281.163 113.609 280.745 113.062 280.745 113.062L269.875 99.5209V112.878C269.875 112.878 269.924 113.609 269.22 113.609H264.319V113.609ZM396.342 113.609C395.751 113.609 395.67 112.973 395.67 112.973V92.945C395.67 92.945 395.622 92.1246 396.493 92.1246H401.43C402.185 92.1246 402.609 92.6995 402.609 92.6995L413.627 106.539V92.987C413.627 92.987 413.569 92.1246 414.437 92.1246H419.107C419.863 92.1246 419.888 92.987 419.888 92.987V112.925C419.888 112.925 419.901 113.609 419.178 113.609H413.775C413.19 113.609 412.769 113.062 412.769 113.062L401.909 99.5204V112.877C401.909 112.877 401.944 113.609 401.256 113.609H396.342V113.609ZM435.788 113.609C435.197 113.609 435.123 112.973 435.123 112.973V92.945C435.123 92.945 435.081 92.1246 435.936 92.1246H440.886C441.624 92.1246 442.069 92.6995 442.069 92.6995L453.102 106.539V92.987C453.102 92.987 453.016 92.1246 453.896 92.1246H458.55C459.309 92.1246 459.341 92.987 459.341 92.987V112.925C459.341 112.925 459.344 113.609 458.631 113.609H453.205C452.639 113.609 452.222 113.062 452.222 113.062L441.361 99.5204V112.877C441.361 112.877 441.393 113.609 440.702 113.609H435.788V113.609ZM292.688 113.609C291.914 113.609 291.765 112.854 291.765 112.854V92.9966C291.765 92.9966 291.704 92.1246 292.584 92.1246H297.575C298.433 92.1246 298.465 92.9966 298.465 92.9966V101.297L309.383 92.5492C309.383 92.5492 309.951 92.1241 310.696 92.1241H316.235C317.037 92.1241 316.847 92.6708 316.715 92.8175C316.583 92.945 306.961 100.475 306.961 100.475C306.961 100.475 317.335 112.666 317.482 112.877C317.631 113.084 317.557 113.609 316.805 113.609H311.316C310.699 113.609 310.216 112.966 310.216 112.966L302.981 103.606L298.465 107.133V112.813C298.465 112.813 298.394 113.609 297.575 113.609H292.688V113.609ZM336.254 102.717C336.254 105.19 336.992 107.051 338.465 108.333C339.934 109.592 341.804 110.233 344.068 110.233C346.343 110.233 348.21 109.601 349.656 108.333C351.103 107.084 351.834 105.19 351.834 102.652C351.834 100.17 351.142 98.2961 349.712 97.0627C348.304 95.8554 346.424 95.2406 344.068 95.2406C341.732 95.2406 339.84 95.8554 338.407 97.1052C336.976 98.3412 336.254 100.228 336.254 102.717V102.717ZM330.088 102.866C330.088 100.646 330.521 98.7881 331.389 97.2795C332.026 96.1636 332.893 95.1699 334.013 94.2894C335.088 93.4156 336.32 92.7553 337.643 92.344C339.39 91.7516 341.72 91.454 344.007 91.454C348.152 91.454 351.769 92.4604 354.258 94.451C356.749 96.4447 357.994 99.2122 357.994 102.766C357.994 106.284 356.768 109.032 354.296 111.022C351.824 113.006 348.223 114 344.085 114C339.908 114 336.261 113.019 333.796 111.035C331.33 109.064 330.088 106.349 330.088 102.866V102.866ZM361.952 113.609C361.362 113.609 361.295 113.107 361.295 112.791V93.054C361.295 93.054 361.362 92.1241 362.224 92.1241H380.313C381.112 92.1241 381.216 92.5364 381.216 92.8627V95.1434C381.216 95.4053 381.027 95.747 380.313 95.747H367.878V100.868H378.566C378.963 100.868 379.391 101.162 379.391 101.648V103.798C379.391 104.328 378.995 104.488 378.488 104.488H367.878V112.877C367.878 113.35 367.589 113.609 367.148 113.609H361.952V113.609ZM424.95 113.609C424.395 113.609 424.185 113.046 424.185 112.791V92.9105C424.185 92.9105 424.164 92.1241 424.895 92.1241H429.732C430.45 92.1241 430.435 92.9105 430.435 92.9105V112.791C430.435 113.037 430.333 113.609 429.663 113.609H424.95V113.609ZM520.244 113.609C519.692 113.609 519.497 113.046 519.497 112.791V92.9105C519.497 92.9105 519.454 92.1241 520.195 92.1241H525.065C525.777 92.1241 525.746 92.9105 525.746 92.9105V112.791C525.746 113.037 525.65 113.609 524.993 113.609H520.244V113.609ZM477.827 105.345C477.065 105.345 477.065 104.731 477.065 104.731V102.273C477.065 102.273 477.065 101.713 477.767 101.713H488.75C489.182 101.713 489.419 102.103 489.419 102.321V109.894C489.419 110.236 489.074 110.524 488.875 110.636C487.675 111.374 485.924 112.026 484.023 112.608C481.773 113.27 479.514 113.609 477.232 113.609C474.31 113.609 470.755 113.148 468.594 112.195C466.425 111.253 464.802 109.894 463.724 108.142C462.629 106.387 462.075 104.472 462.075 102.404C462.075 100.167 462.69 98.1685 463.906 96.4357C465.116 94.6933 466.888 93.3414 469.225 92.4237C471.01 91.7074 474.259 91.3435 476.925 91.3435C480.362 91.3435 483.364 91.8993 485.31 93.0279C487.076 94.0572 488.363 95.5823 488.856 97.0558C488.916 97.2126 488.749 97.6855 488.404 97.7498L483.697 98.389C483.303 98.4592 483.044 98.1845 482.996 98.05C482.564 97.203 481.888 96.5122 480.967 95.9946C479.888 95.3873 478.538 95.0833 476.925 95.0833C474.473 95.0833 472.525 95.6811 471.071 96.8767C469.628 98.0851 468.905 99.869 468.905 102.231C468.905 104.786 469.635 106.7 471.103 107.973C472.575 109.258 474.508 109.888 476.893 109.888C478.07 109.888 479.255 109.702 480.451 109.351C481.463 109.05 482.359 108.686 483.127 108.276C483.255 108.197 483.495 108.046 483.495 107.861V105.345H477.827ZM491.698 113.609C490.966 113.609 490.83 112.989 491.13 112.647C491.437 112.325 500.013 102.395 500.013 102.395C500.013 102.395 492.175 93.1916 492.062 93.054C491.949 92.9105 491.75 92.1241 492.679 92.1241H498.2C498.961 92.1241 499.561 92.8015 499.561 92.8015L503.925 97.9071L508.211 92.8627C508.211 92.8627 508.737 92.1241 509.679 92.1241H515.355C515.878 92.1241 516.026 92.6836 515.768 93.0093C515.507 93.3351 507.737 102.408 507.737 102.408C507.737 102.408 516.407 112.433 516.668 112.759C516.926 113.075 516.617 113.609 516.191 113.609H510.401C509.418 113.609 508.802 112.695 508.802 112.695L503.825 106.833L498.571 112.957C498.571 112.957 498.049 113.609 497.232 113.609H491.698Z" fill="#231F20"/>
</svg>
