<svg width="128" height="128" viewBox="0 0 128 128" fill="none" xmlns="http://www.w3.org/2000/svg">
<path d="M62.3295 20.0463C56.1728 20.4629 50.8493 21.8979 47.5626 24.9995C47.0071 23.1478 45.1091 23.657 43.6278 24.0274C36.6378 26.2956 27.935 35.2762 24.9261 42.1736C24.2317 43.7938 22.9818 46.7101 25.1112 47.636C22.2875 50.9227 20.5284 55.6444 20.0655 61.3845C20.0192 62.2641 19.9729 63.1436 20.0192 64.0231C20.0192 64.8564 20.0192 65.7822 20.0655 66.6618C20.5284 72.4019 22.2875 77.1236 25.1112 80.4103C22.9818 81.3361 24.2317 84.2525 24.8798 85.8264C27.935 92.7701 36.6841 101.704 43.6278 104.019C45.1091 104.389 47.0071 104.898 47.5626 103.047C50.8956 106.102 56.1728 107.583 62.2833 107.954C62.885 108 63.4405 108 63.996 108C64.5515 108 65.107 108 65.7088 107.954C71.8656 107.537 77.1428 106.148 80.4758 103.001C80.985 104.898 82.8829 104.389 84.3643 104.019C91.4006 101.704 100.103 92.7238 103.112 85.8264C103.807 84.2062 105.01 81.3361 102.927 80.364C105.705 77.1236 107.464 72.4019 107.927 66.6618C107.973 65.7822 108.019 64.9027 107.973 64.0231C108.019 63.1436 107.973 62.2641 107.927 61.3845C107.464 55.6444 105.705 50.9227 102.927 47.6823C105.057 46.6639 103.76 43.7938 103.112 42.2199C100.103 35.3225 91.4006 26.3419 84.3643 24.0274C82.8829 23.657 80.985 23.1478 80.4758 25.0458C77.1428 21.8979 71.8656 20.5092 65.7088 20.0926C65.107 20.0463 64.5515 20.0463 64.0423 20C63.4405 20.0463 62.885 20.0463 62.3295 20.0463ZM71.449 22.6849C70.5694 23.4719 70.0602 24.5366 70.1528 26.1105C70.3843 28.8417 72.0045 30.7396 73.1617 32.4524C70.7083 31.2951 67.6531 30.4619 64.0423 30.3693L63.996 30.323C60.3853 30.4156 57.3301 31.2488 54.8303 32.4524C55.9876 30.7396 57.6541 28.7954 57.8393 26.1105C57.9319 24.5366 57.4226 23.4719 56.5431 22.6849C58.7651 22.9627 61.4037 23.1015 64.0423 23.0552C66.6347 23.0552 69.227 22.9627 71.449 22.6849ZM90.1044 30.323C90.4747 30.2304 90.9377 30.0452 90.9377 29.5823C90.9377 29.3046 90.7988 29.0731 90.6136 28.888C93.1133 30.8322 96.3537 34.1652 98.8535 37.4056C97.5573 36.5723 97.511 38.4703 97.5573 39.535C97.5573 40.0905 97.6962 40.6923 97.7888 41.1552C95.5205 36.4797 91.4469 32.6838 86.9566 30.323C87.3732 30.3693 88.1139 30.4619 88.762 30.4619C89.2712 30.4156 89.7341 30.4156 90.1044 30.323ZM37.4248 28.8417C37.2396 29.0268 37.0544 29.3046 37.0544 29.5823C37.1007 30.0915 37.5173 30.2304 37.8877 30.323C38.8135 30.5082 40.3411 30.4619 41.0355 30.323C36.5452 32.6838 32.4716 36.4797 30.2496 41.1089C30.2959 40.6923 30.4347 40.0905 30.4347 39.535C30.481 38.4703 30.481 36.526 29.1386 37.4056C31.6846 34.1189 34.8787 30.8322 37.4248 28.8417ZM72.3748 41.8496C77.2817 40.0905 81.6794 37.8222 83.1607 32.6376C85.2901 35.7854 89.6878 40.646 93.53 43.5623C93.8077 43.8401 94.4095 44.3493 95.2428 44.9048C92.6041 45.5992 90.8914 47.3119 89.5026 49.2562C88.0676 51.1541 87.0492 53.4687 86.3085 56.061C83.7162 49.3025 79.0408 44.5345 72.3748 41.8496ZM38.5357 49.2099C37.1007 47.3119 35.3879 45.5992 32.7493 44.9048C33.5826 44.3493 34.2306 43.7938 34.4621 43.5623C38.3043 40.646 42.702 35.7854 44.8314 32.6376C46.3127 37.8222 50.7104 40.0905 55.6173 41.8496C48.9513 44.5345 44.3685 49.3025 41.6836 56.061C40.9892 53.515 39.9245 51.1541 38.5357 49.2099ZM62.9776 76.1515C60.2464 70.3651 55.6173 66.1988 49.1828 64.0231C55.6173 61.8474 60.2464 57.6812 62.9776 51.8948C63.348 51.0615 63.6257 50.1357 64.0423 49.2562C64.3664 50.1357 64.6904 51.0153 65.107 51.8948C67.7919 57.7275 72.4211 61.8012 78.8093 64.0231C72.4211 66.1525 67.7919 70.3188 65.107 76.1515C64.6441 76.9847 64.3664 77.9106 64.0423 78.7901C63.6257 77.9106 63.348 76.9847 62.9776 76.1515ZM97.6036 64.0231C97.6036 60.505 96.7241 57.4035 95.6594 54.95C97.511 56.4314 99.9645 57.7738 102.048 57.8201C103.297 57.8664 104.362 57.2646 105.01 56.5239C104.732 58.6533 104.594 61.292 104.64 64.0231C104.594 66.7543 104.732 69.393 105.01 71.5224C104.362 70.7817 103.297 70.1799 102.048 70.2262C99.9645 70.2725 97.4648 71.5686 95.6594 73.0963C96.7241 70.6428 97.6036 67.5413 97.6036 64.0231ZM32.4253 54.95C31.268 57.4035 30.4347 60.4587 30.3885 64.0231C30.4347 67.5876 31.268 70.6428 32.379 73.05C30.5273 71.5686 28.0276 70.2725 25.9908 70.1799C24.6946 70.1799 23.6299 70.7817 23.0281 71.4761C23.2596 69.3929 23.3984 66.7543 23.4447 64.0231C23.3984 61.292 23.2596 58.6533 23.0281 56.4776C23.6299 57.2646 24.6946 57.8664 25.9908 57.7738C28.0739 57.7275 30.5736 56.4314 32.4253 54.95ZM72.3285 86.1504C79.0408 83.5118 83.6699 78.6975 86.3085 71.9853C87.0029 74.5313 88.0676 76.8922 89.5026 78.7901C90.8914 80.7344 92.6041 82.4471 95.2428 83.1415C94.4095 83.697 93.8077 84.2062 93.53 84.484C89.6878 87.4003 85.2901 92.2609 83.1607 95.4087C81.6794 90.2241 77.2817 87.9558 72.3285 86.1504ZM34.5084 84.4377C34.1844 84.2062 33.5826 83.697 32.7493 83.1415C35.3879 82.4471 37.1007 80.7344 38.4895 78.7901C39.9245 76.8922 40.9892 74.5313 41.6836 71.9853C44.3685 78.7438 48.9513 83.5118 55.6636 86.1505C50.7104 87.9558 46.3127 90.2241 44.8314 95.4087C42.702 92.2609 38.3043 87.4003 34.5084 84.4377ZM97.7888 86.8911C97.6962 87.354 97.6036 87.9095 97.5573 88.5113C97.511 89.576 97.5573 91.474 98.8535 90.6407C96.3538 93.8811 93.1134 97.2141 90.6136 99.1583C90.7988 98.9732 90.9839 98.6954 90.9377 98.464C90.9377 98.0011 90.521 97.7696 90.1044 97.7233C89.2249 97.4919 87.651 97.5844 86.9566 97.7233C91.4469 95.3624 95.5668 91.5203 97.7888 86.8911ZM30.4347 88.5113C30.4347 87.9558 30.2959 87.354 30.2033 86.8911C32.4716 91.5666 36.5452 95.3624 41.0355 97.7233C40.3411 97.5844 38.8598 97.4918 37.934 97.677C37.5173 97.8159 37.1007 97.9548 37.0544 98.464C37.0544 98.7417 37.1933 98.9732 37.3785 99.1583C34.8787 97.2141 31.6846 93.8348 29.1386 90.6407C29.37 90.7796 29.5552 90.8722 29.7404 90.8722C30.481 90.8722 30.481 89.3908 30.4347 88.5113ZM63.9497 97.677H64.0423C67.6531 97.5844 70.7083 96.7512 73.1617 95.5939C72.0045 97.3067 70.3843 99.2046 70.1528 101.936C70.0602 103.51 70.5694 104.574 71.449 105.361C69.227 105.084 66.5884 104.945 63.996 104.945C61.4037 104.945 58.7651 105.084 56.5431 105.361C57.4227 104.574 57.9782 103.463 57.8393 101.936C57.7004 99.2046 55.9876 97.3067 54.8303 95.5939C57.3301 96.7975 60.3853 97.6307 63.9497 97.677Z" fill="url(#paint0_radial_63_12778)"/>
<defs>
<radialGradient id="paint0_radial_63_12778" cx="0" cy="0" r="1" gradientUnits="userSpaceOnUse" gradientTransform="translate(81.6042 41.1373) rotate(45) scale(65.466 65.466)">
<stop stop-color="#D80D19"/>
<stop offset="0.1" stop-color="#D80D19"/>
<stop offset="0.43" stop-color="#B9020D"/>
<stop offset="0.81" stop-color="#910000"/>
<stop offset="0.97" stop-color="#B9020D"/>
<stop offset="1" stop-color="#D80D19"/>
</radialGradient>
</defs>
</svg>
