<svg width="128" height="128" viewBox="0 0 128 128" fill="none" xmlns="http://www.w3.org/2000/svg">
<path d="M64 21.5C87.469 21.5 106.5 40.531 106.5 64C106.5 87.469 87.469 106.5 64 106.5C40.53 106.5 21.5 87.469 21.5 64C21.5 40.531 40.53 21.5 64 21.5ZM53.7475 62.453V74.292C53.7459 74.7822 53.5505 75.2518 53.2039 75.5984C52.8573 75.945 52.3877 76.1404 51.8975 76.142H37.443C36.9527 76.1407 36.4828 75.9454 36.136 75.5988C35.7891 75.2521 35.5936 74.7823 35.592 74.292V61.69C35.5934 61.1995 35.7889 60.7295 36.1357 60.3826C36.4825 60.0357 36.9525 59.8401 37.443 59.8385H45.855V68.7845H43.7295V63.6H40.025V71.6685H45.854V71.6765H48.949V60.7715C48.949 59.6525 48.652 59.063 47.611 58.3665C45.6574 57.0559 43.3575 56.3571 41.005 56.3595C35.986 56.3595 31.686 59.4835 29.8875 63.9165C29.8855 64.0585 29.8815 64.2 29.8815 64.3415C29.8815 79.6755 40.0015 92.648 53.9255 96.9465C51.642 94.4025 50.2545 91.0605 50.2545 87.3985C50.2545 83.1085 52.1575 79.257 55.176 76.617C57.091 74.941 59.462 74.536 61.867 74.656H73.7055C74.1959 74.6576 74.6658 74.8531 75.0126 75.1999C75.3594 75.5467 75.5549 76.0166 75.5565 76.507V90.9595C75.5552 91.45 75.3597 91.92 75.0129 92.2667C74.666 92.6135 74.196 92.8088 73.7055 92.81H61.104C60.6135 92.8088 60.1435 92.6136 59.7965 92.267C59.4495 91.9203 59.2537 91.4505 59.252 90.96V82.55H68.1975V84.6745H63.015V88.3785H71.083V82.55H71.0915V79.455H60.1865C59.0675 79.455 58.4775 79.7525 57.781 80.793C56.4704 82.7467 55.7717 85.0465 55.774 87.399C55.774 92.356 58.8215 96.613 63.169 98.45C63.4455 98.4565 63.722 98.46 64.0005 98.46C79.092 98.46 91.8955 88.657 96.3935 75.0725C93.887 77.2115 90.6535 78.501 87.122 78.501C82.8335 78.501 78.9815 76.598 76.3405 73.5795C74.6645 71.664 74.2605 69.293 74.3795 66.8895V55.05C74.3808 54.5597 74.5762 54.0898 74.923 53.7431C75.2698 53.3965 75.7397 53.2012 76.23 53.2H90.6845C91.1747 53.2013 91.6445 53.3967 91.9912 53.7433C92.3378 54.09 92.5332 54.5598 92.5345 55.05V67.652C92.5332 68.1424 92.3379 68.6123 91.9913 68.9592C91.6447 69.3061 91.1749 69.5018 90.6845 69.5035H82.2735V60.558H84.3985V65.7415H88.1025V57.673H82.273V57.6645H79.1775V68.57C79.1775 69.6895 79.4745 70.2785 80.5165 70.975C82.47 72.2851 84.7694 72.9838 87.1215 72.982C92.0015 72.982 96.203 70.0285 98.085 65.7895C98.105 65.3095 98.1175 64.8275 98.1175 64.3425C98.1175 48.9525 87.9225 35.9415 73.919 31.6915C76.394 34.2745 77.9145 37.7585 77.9145 41.5915C77.9145 45.8805 76.012 49.7325 72.9935 52.3735C71.0785 54.0495 68.7075 54.4545 66.3025 54.3345H54.4635C53.973 54.333 53.503 54.1375 53.1562 53.7905C52.8095 53.4436 52.6142 52.9735 52.613 52.483V38.0295C52.6146 37.5393 52.81 37.0697 53.1566 36.7231C53.5032 36.3765 53.9728 36.1811 54.463 36.1795H67.0655C67.5559 36.1807 68.0259 36.3759 68.3729 36.7226C68.7198 37.0692 68.9154 37.5391 68.917 38.0295V46.4415H59.971V44.315H65.155V40.611H57.0865V46.441H57.0785V49.5355H67.9835C69.1025 49.5355 69.6925 49.2385 70.389 48.197C71.6991 46.243 72.3976 43.9431 72.3955 41.5905C72.3955 36.327 68.959 31.851 64.1785 30.227C64.1185 30.2265 64.059 30.2245 64 30.2245C48.5165 30.2245 35.4415 40.5425 31.2735 54.677C33.8385 52.295 37.2545 50.8405 41.005 50.8405C45.2935 50.8405 49.1455 52.744 51.7865 55.762C53.4635 57.677 53.8675 60.0485 53.7475 62.452" fill="#E50113"/>
</svg>
