<svg width="128" height="128" viewBox="0 0 128 128" fill="none" xmlns="http://www.w3.org/2000/svg">
<path d="M49.0169 62.5665L49.7539 39.2025C49.8109 37.161 50.5479 35.8 53.0994 35.8H56.3319V28C56.3319 27.6022 56.4899 27.2206 56.7712 26.9393C57.0525 26.658 57.4341 26.5 57.8319 26.5H69.9149C70.3127 26.5 70.6942 26.658 70.9755 26.9393C71.2568 27.2206 71.4149 27.6022 71.4149 28V35.8H74.6469C77.2549 35.8 77.9354 37.161 77.9919 39.2025L78.7294 62.4535L67.9559 68.691V54.684C67.9559 52.756 66.3679 51.225 64.4969 51.225H63.3629C61.4349 51.225 59.9039 52.813 59.9039 54.684V68.8045L49.0169 62.5665ZM79.6189 64.1795L99.5704 76.497C101.318 77.567 102.133 78.883 100.857 81.0835L99.2409 83.8705L106.024 87.7705C106.356 87.9609 106.602 88.2705 106.712 88.6361C106.823 89.0017 106.79 89.3958 106.62 89.738L106.574 89.823L100.537 100.234C100.338 100.578 100.011 100.828 99.6281 100.931C99.2448 101.034 98.8364 100.98 98.4924 100.783L91.6994 96.8775L90.0834 99.6645C88.7794 101.914 87.2554 101.821 85.4514 100.849L64.8614 89.8585L64.8229 77.449L77.0054 84.4525C78.6819 85.417 80.8074 84.813 81.7434 83.1995L82.3104 82.2215C83.2744 80.559 82.6589 78.445 81.0309 77.509L68.7504 70.449L79.6189 64.1795ZM48.3809 64.1795L28.4294 76.497C26.6819 77.567 25.8669 78.883 27.1429 81.0835L28.7589 83.8705L21.9754 87.7705C21.6442 87.9609 21.3981 88.2705 21.2873 88.6361C21.1766 89.0017 21.2095 89.3958 21.3794 89.738L21.4254 89.823L27.4624 100.234C27.6614 100.578 27.9884 100.828 28.3717 100.931C28.755 101.034 29.1633 100.98 29.5074 100.783L36.3004 96.8775L37.9164 99.6645C39.2204 101.914 40.7444 101.821 42.5484 100.849L63.1384 89.8585L63.1769 77.449L50.9944 84.4525C49.3179 85.417 47.1924 84.813 46.2564 83.1995L45.6894 82.2215C44.7254 80.559 45.3409 78.445 46.9689 77.509L59.2494 70.449L48.3809 64.1795Z" fill="#E50619"/>
</svg>
