<svg width="551" height="128" viewBox="0 0 551 128" fill="none" xmlns="http://www.w3.org/2000/svg">
<path d="M422.58 88.0149C423.388 88.0149 424.246 88.1664 425.004 88.4695C425.812 88.7725 426.468 89.1765 427.024 89.6816C427.984 90.5907 428.691 91.7017 429.196 92.9138C429.701 94.1259 429.953 95.4391 429.953 96.8027C429.953 98.0653 429.751 99.2774 429.297 100.388C428.893 101.5 428.287 102.51 427.479 103.419L427.428 103.469C426.771 104.227 426.014 104.782 425.206 105.186C424.347 105.59 423.438 105.742 422.428 105.742C421.418 105.742 420.56 105.59 419.751 105.287C418.943 104.984 418.236 104.479 417.58 103.823C416.721 103.015 416.115 102.005 415.661 100.793C415.206 99.5804 415.004 98.2673 415.004 96.9037C415.004 95.4896 415.257 94.2269 415.711 93.0653C416.166 91.9542 416.873 90.8937 417.832 89.9341C418.438 89.2775 419.196 88.823 420.004 88.4695C420.863 88.1664 421.721 88.0149 422.58 88.0149V88.0149ZM163.594 88.0149C164.402 88.0149 165.21 88.1665 166.018 88.419C166.877 88.722 167.685 89.126 168.594 89.6816L167.836 92.6108L167.382 92.5098C167.079 91.3482 166.574 90.4391 165.917 89.7826L165.867 89.7321C165.16 89.0755 164.301 88.722 163.392 88.722C162.432 88.722 161.675 88.9745 161.119 89.4796C160.564 89.9846 160.261 90.6412 160.261 91.4997C160.261 92.2573 160.513 92.8633 160.968 93.3684C161.422 93.8734 162.331 94.3785 163.695 94.934L163.947 95.035C164.099 95.0855 164.25 95.1865 164.452 95.2371L164.654 95.338C166.422 96.0956 167.634 96.7017 168.19 97.2572L168.24 97.3077C168.644 97.7117 168.947 98.1663 169.149 98.6713V98.7218C169.351 99.2774 169.452 99.8834 169.452 100.54C169.452 102.005 168.947 103.267 167.887 104.227C166.826 105.186 165.463 105.691 163.846 105.691C162.786 105.691 161.725 105.489 160.766 105.136L160.665 105.085C159.655 104.732 158.746 104.176 157.937 103.469L158.847 100.186L159.352 100.287C159.655 101.803 160.261 102.964 161.069 103.772C161.877 104.58 162.887 104.984 164.099 104.984C165.16 104.984 166.018 104.681 166.675 104.075C167.331 103.469 167.634 102.661 167.634 101.702C167.634 100.793 167.382 100.035 166.826 99.4794C166.321 98.9238 165.261 98.3178 163.695 97.6612L163.493 97.5602L162.786 97.3077C161.321 96.7017 160.311 96.1461 159.756 95.5906C159.352 95.136 159.049 94.6815 158.847 94.1764C158.644 93.6714 158.543 93.1158 158.543 92.5603C158.543 91.2472 158.998 90.1361 159.958 89.2775C160.968 88.419 162.129 88.0149 163.594 88.0149V88.0149ZM319.147 88.0149C319.955 88.0149 320.763 88.1665 321.571 88.419C322.43 88.722 323.238 89.126 324.096 89.6816L323.339 92.6108L322.884 92.5098C322.581 91.3482 322.076 90.4391 321.42 89.7826L321.369 89.7321C320.662 89.0755 319.804 88.722 318.894 88.722C317.985 88.722 317.177 88.9745 316.622 89.4796C316.066 89.9846 315.763 90.6412 315.763 91.4997C315.763 92.2573 316.016 92.8633 316.47 93.3684C316.925 93.8734 317.884 94.429 319.248 94.9845L319.854 95.2371C319.905 95.2371 319.955 95.2875 320.006 95.2875L320.208 95.3886C322.026 96.1461 323.187 96.8027 323.743 97.3077C324.147 97.7117 324.5 98.2168 324.702 98.7218C324.904 99.2774 325.005 99.8834 325.005 100.54C325.005 102.005 324.5 103.267 323.44 104.227C322.379 105.186 321.066 105.691 319.399 105.691C318.288 105.691 317.228 105.489 316.218 105.136C315.208 104.782 314.299 104.227 313.49 103.52L314.4 100.237L314.905 100.338C315.208 101.853 315.814 103.015 316.622 103.823C317.43 104.631 318.44 105.035 319.652 105.035C320.713 105.035 321.571 104.732 322.228 104.126C322.884 103.52 323.187 102.712 323.187 101.752C323.187 100.843 322.935 100.085 322.43 99.5299C321.925 98.9744 320.864 98.3683 319.298 97.7117L319.096 97.6107L318.541 97.4087C316.975 96.8027 315.965 96.1966 315.41 95.5906C315.006 95.136 314.703 94.6815 314.501 94.1764C314.299 93.6714 314.198 93.1158 314.198 92.5603C314.198 91.2472 314.652 90.1361 315.612 89.2775C316.521 88.419 317.733 88.0149 319.147 88.0149V88.0149ZM303.895 88.0149C304.804 88.0149 305.713 88.1664 306.672 88.52C307.632 88.8735 308.592 89.328 309.602 89.9846L308.945 92.8128H308.541C307.986 91.5502 307.228 90.5401 306.319 89.8331C305.359 89.126 304.299 88.7725 303.137 88.7725C301.42 88.7725 300.056 89.4796 299.147 90.8432C298.238 92.2068 297.784 94.2269 297.784 96.8532C297.784 99.5299 298.238 101.601 299.198 102.964C300.157 104.378 301.521 105.085 303.39 105.085C304.602 105.085 305.561 104.833 306.268 104.328C306.975 103.823 307.329 103.166 307.329 102.308V97.1562C307.329 96.6512 307.228 96.2471 307.026 95.9441C306.824 95.6411 306.571 95.4896 306.218 95.439V95.035H310.511V95.439C310.258 95.439 310.006 95.5906 309.854 95.8431C309.652 96.0956 309.602 96.3986 309.602 96.8027V101.853C309.602 102.308 309.703 102.661 309.854 102.914C310.006 103.166 310.258 103.318 310.561 103.318V103.621C309.147 104.328 307.784 104.883 306.521 105.237C305.258 105.59 304.046 105.792 302.935 105.792C301.723 105.792 300.662 105.54 299.703 105.085C298.743 104.631 297.885 103.924 297.077 102.964C296.471 102.257 296.016 101.399 295.663 100.388C295.309 99.3784 295.157 98.3178 295.157 97.2067C295.157 95.8431 295.41 94.5805 295.865 93.4189L295.915 93.3179C296.42 92.1058 297.127 91.0957 298.087 90.1866C298.794 89.4796 299.652 88.9745 300.662 88.5705C301.723 88.1664 302.784 88.0149 303.895 88.0149V88.0149ZM258.845 88.3685V88.823C258.592 88.8735 258.39 88.9745 258.239 89.126C258.087 89.2775 258.037 89.4796 258.037 89.7321C258.037 89.8331 258.037 89.9341 258.087 90.0351V90.1361C258.087 90.2371 258.138 90.3381 258.188 90.4896L258.239 90.5907L262.279 102.863L265.713 91.5502C265.764 91.3987 265.814 91.1967 265.814 91.0452C265.814 90.8937 265.865 90.6916 265.865 90.5401C265.865 90.1361 265.764 89.7826 265.562 89.4291C265.36 89.0755 265.107 88.924 264.804 88.8735H264.754V88.419H268.643V88.8735C268.138 89.0755 267.683 89.4796 267.33 89.9846C266.976 90.4896 266.673 91.1967 266.37 92.1058V92.1563L262.229 105.792H260.815L255.916 91.1462C255.714 90.4896 255.461 89.9846 255.209 89.5806C255.007 89.227 254.704 89.025 254.451 88.8735H254.401V88.419H258.845V88.3685ZM466.417 88.0149C467.326 88.0149 468.235 88.1664 469.145 88.52C470.104 88.8735 471.064 89.3785 472.074 90.0351L471.215 92.8633L470.71 92.7623C470.306 91.4492 469.7 90.4391 468.892 89.7321C468.084 89.025 467.124 88.6715 465.963 88.6715C464.498 88.6715 463.286 89.328 462.377 90.6411C461.468 91.9543 461.013 93.7219 461.013 95.8936C461.013 98.3683 461.569 100.388 462.731 101.954C463.892 103.52 465.357 104.328 467.124 104.328C468.134 104.328 469.094 104.075 469.953 103.57C470.811 103.065 471.619 102.257 472.377 101.197L472.781 101.5C471.922 102.964 470.963 104.025 469.852 104.681C468.791 105.388 467.528 105.691 466.064 105.691C463.842 105.691 462.023 104.934 460.66 103.419C459.296 101.904 458.64 99.8834 458.64 97.3582C458.64 95.7926 458.892 94.3785 459.397 93.1159L459.448 93.0149C459.953 91.7522 460.71 90.6412 461.67 89.7321L461.72 89.6816C462.276 89.126 462.983 88.722 463.791 88.4695C464.65 88.1159 465.508 88.0149 466.417 88.0149V88.0149ZM147.635 88.0149C148.493 88.0149 149.301 88.1664 150.059 88.4695C150.867 88.7725 151.523 89.1765 152.079 89.6816C153.039 90.5907 153.746 91.7017 154.251 92.9138C154.756 94.1259 155.008 95.4391 155.008 96.8027C155.008 98.0653 154.806 99.2774 154.352 100.388C153.948 101.55 153.291 102.56 152.483 103.469C151.826 104.227 151.069 104.782 150.21 105.186C149.352 105.59 148.443 105.742 147.433 105.742C146.422 105.742 145.564 105.59 144.756 105.287C143.948 104.984 143.241 104.479 142.584 103.823C141.776 103.015 141.12 102.005 140.665 100.793C140.21 99.5804 140.008 98.2673 140.008 96.9037C140.008 95.4896 140.261 94.2269 140.715 93.0653C141.17 91.9542 141.877 90.8937 142.837 89.9341C143.443 89.2775 144.2 88.823 145.008 88.4695C145.867 88.1664 146.726 88.0149 147.635 88.0149V88.0149ZM232.734 88.0149C233.542 88.0149 234.35 88.1665 235.158 88.419C235.966 88.722 236.825 89.126 237.684 89.6816L236.926 92.6108L236.472 92.5098C236.169 91.2977 235.663 90.3886 234.956 89.7321C234.249 89.0755 233.391 88.722 232.482 88.722C231.522 88.722 230.815 88.9745 230.209 89.4796L230.159 89.53C229.603 90.0351 229.3 90.6916 229.3 91.5502C229.3 92.3078 229.552 92.9138 230.007 93.4189C230.462 93.9239 231.371 94.429 232.633 94.9845L232.936 95.136C233.088 95.1865 233.239 95.2875 233.441 95.338L233.643 95.439C235.461 96.1966 236.623 96.8027 237.179 97.3582L237.229 97.4087C237.633 97.8128 237.936 98.2673 238.138 98.7723V98.8228C238.34 99.3784 238.441 99.9844 238.441 100.641C238.441 102.106 237.886 103.368 236.876 104.328C235.815 105.287 234.502 105.792 232.835 105.792C231.724 105.792 230.664 105.59 229.653 105.237C228.643 104.883 227.734 104.328 226.926 103.621L227.835 100.338L228.34 100.439C228.643 101.954 229.249 103.116 230.057 103.924C230.866 104.732 231.876 105.136 233.088 105.136C234.148 105.136 235.007 104.833 235.663 104.227C236.32 103.621 236.674 102.813 236.674 101.853C236.674 100.944 236.421 100.186 235.865 99.6309C235.36 99.0753 234.3 98.4693 232.633 97.7623L232.482 97.7117C232.33 97.6612 232.179 97.6108 231.926 97.5097L231.775 97.4592C230.31 96.8532 229.3 96.2976 228.744 95.7421C228.34 95.2876 228.037 94.833 227.835 94.3279C227.633 93.8229 227.532 93.2674 227.532 92.7118C227.532 91.3987 227.987 90.2876 228.946 89.4291C230.108 88.419 231.32 88.0149 232.734 88.0149V88.0149ZM373.54 88.3685L382.833 101.702V93.3179C382.833 91.7522 382.681 90.6412 382.429 89.9846C382.176 89.328 381.722 88.924 381.116 88.823V88.3685H384.802V88.823C384.348 89.0755 384.045 89.4795 383.843 90.0351C383.691 90.5401 383.59 91.6007 383.59 93.1159V105.54H382.631L372.126 90.5401V101.702C372.126 102.661 372.277 103.368 372.53 103.924C372.782 104.479 373.186 104.782 373.742 104.883V105.338H369.752V104.883C370.308 104.681 370.712 104.328 370.964 103.873C371.217 103.368 371.318 102.712 371.318 101.904V91.0957C371.318 90.3381 371.217 89.7826 370.964 89.4291C370.762 89.0755 370.409 88.8735 369.904 88.823V88.3685H373.54ZM503.538 88.3685L512.831 101.702V93.3179C512.831 91.7522 512.679 90.6412 512.427 89.9846C512.174 89.328 511.72 88.924 511.114 88.823V88.3685H514.8V88.823C514.346 89.0755 514.043 89.4795 513.841 90.0351C513.689 90.5401 513.588 91.6007 513.588 93.1159V105.54H512.629L502.124 90.5401V101.702C502.124 102.661 502.275 103.368 502.528 103.924C502.78 104.479 503.184 104.782 503.74 104.883V105.338H499.851V104.883C500.407 104.681 500.811 104.328 501.063 103.873C501.316 103.368 501.417 102.712 501.417 101.904V91.0957C501.417 90.3381 501.316 89.7826 501.063 89.4291C500.861 89.0755 500.508 88.8735 500.003 88.823V88.3685H503.538V88.3685ZM281.269 88.3685L290.562 101.702V93.3179C290.562 91.7522 290.461 90.6412 290.208 89.9846V89.9341C289.956 89.2775 289.501 88.8735 288.895 88.7725V88.318H292.582V88.7725C292.127 89.025 291.824 89.429 291.673 89.9846C291.521 90.4896 291.42 91.5502 291.42 93.0653V105.489H290.461L279.956 90.4896V101.651C279.956 102.611 280.107 103.318 280.36 103.873C280.612 104.429 281.016 104.732 281.572 104.833V105.287H277.582V104.883C278.138 104.681 278.542 104.328 278.794 103.873C279.047 103.368 279.148 102.712 279.148 101.904V91.0957C279.148 90.3381 279.047 89.7826 278.794 89.4291C278.592 89.0755 278.239 88.8735 277.733 88.823V88.3685H281.269V88.3685ZM191.27 88.0149H192.735L197.381 102.611C197.634 103.368 197.886 103.974 198.139 104.328C198.391 104.681 198.644 104.883 198.896 104.934V105.388H194.402V104.883C194.654 104.833 194.856 104.732 194.957 104.58C195.109 104.429 195.159 104.227 195.159 104.025C195.159 103.873 195.109 103.57 194.957 103.166C194.957 103.065 194.907 103.015 194.907 102.964L194.856 102.863L193.947 99.8329H188.24L187.533 102.106C187.482 102.358 187.432 102.56 187.381 102.762C187.331 102.964 187.331 103.166 187.331 103.318C187.331 103.772 187.432 104.126 187.634 104.378C187.836 104.631 188.088 104.833 188.442 104.883H188.493V105.338H184.452V104.883C185.008 104.681 185.513 104.328 185.866 103.772C186.27 103.217 186.624 102.358 187.028 101.096V101.045L191.27 88.0149V88.0149ZM248.34 88.0149L252.936 102.459C253.188 103.267 253.441 103.873 253.693 104.277V104.328C253.946 104.732 254.199 104.883 254.502 104.934V105.388H250.007V104.883C250.259 104.833 250.461 104.732 250.562 104.58C250.714 104.429 250.764 104.227 250.764 104.025C250.764 103.873 250.714 103.57 250.562 103.166C250.512 103.065 250.512 102.964 250.461 102.863L249.552 99.8329H243.896L243.189 102.106C243.138 102.358 243.088 102.56 243.037 102.762C242.987 102.964 242.987 103.166 242.987 103.318C242.987 103.722 243.088 104.075 243.239 104.328V104.378C243.441 104.631 243.694 104.833 244.098 104.883V105.338H240.057V104.883C240.613 104.681 241.118 104.328 241.471 103.772C241.825 103.267 242.229 102.409 242.583 101.197L246.825 87.9644H248.34V88.0149ZM129.958 88.1159C132.433 88.1159 134.352 88.5705 135.716 89.4291C137.079 90.2876 137.786 91.4997 137.786 93.0149C137.786 94.53 137.18 95.7421 135.918 96.5501C134.655 97.4087 132.887 97.8128 130.564 97.8128C130.16 97.8128 129.756 97.8128 129.302 97.7623L128.089 97.6107V102.914C128.089 103.621 128.19 104.126 128.342 104.378C128.493 104.681 128.796 104.833 129.15 104.883V105.338H124.655V104.883C125.009 104.883 125.312 104.732 125.463 104.378C125.615 104.075 125.716 103.57 125.716 102.863V90.8937C125.716 90.1361 125.615 89.5806 125.463 89.2775C125.312 88.9745 125.009 88.7725 124.655 88.7725V88.318L127.483 88.1665H127.685C128.14 88.116 128.544 88.1159 128.948 88.1159H129.958ZM522.982 88.0149H524.447L529.093 102.611C529.346 103.368 529.598 103.974 529.851 104.328C530.103 104.732 530.356 104.883 530.659 104.934V105.388H526.164V104.883C526.416 104.833 526.618 104.732 526.719 104.58C526.871 104.429 526.921 104.227 526.921 104.025C526.921 103.873 526.871 103.57 526.719 103.166L526.669 102.914L525.76 99.8329H520.053L519.346 102.106L519.194 102.712V102.762C519.144 102.964 519.144 103.166 519.144 103.318C519.144 103.722 519.245 104.075 519.396 104.328V104.378C519.598 104.631 519.851 104.833 520.255 104.883V105.338H516.215V104.883C516.77 104.681 517.275 104.328 517.679 103.772C518.083 103.217 518.437 102.308 518.891 100.995L522.982 88.0149V88.0149ZM497.477 88.3685V88.823C497.124 88.823 496.821 88.9745 496.669 89.328C496.518 89.6311 496.417 90.1361 496.417 90.8937V102.863C496.417 103.621 496.518 104.126 496.669 104.429C496.821 104.732 497.124 104.883 497.477 104.934V105.388H492.983V104.883C493.387 104.833 493.639 104.681 493.791 104.378C493.942 104.075 494.043 103.52 494.043 102.813V90.7927C494.043 90.0856 493.942 89.5806 493.791 89.2775C493.639 88.9745 493.336 88.7725 492.983 88.7725V88.318H497.477V88.3685ZM392.075 88.3685V88.823C391.722 88.823 391.419 88.9745 391.267 89.328C391.116 89.6311 391.015 90.1866 391.015 90.9442V98.3178L394.247 94.6815L394.499 94.429C395.863 92.8633 396.772 91.8027 397.176 91.2472V91.1967C397.58 90.6412 397.782 90.1866 397.782 89.8331C397.782 89.5301 397.681 89.2775 397.58 89.126C397.429 88.9745 397.227 88.8735 396.923 88.823V88.3685H401.57V88.823C401.166 88.924 400.711 89.126 400.206 89.53L400.156 89.5806C399.651 89.9846 398.792 90.8937 397.53 92.2573L395.004 95.0855L398.944 101.752L398.994 101.853C399.095 102.005 399.196 102.207 399.297 102.409L399.348 102.51C400.257 104.075 400.964 104.883 401.519 104.934V105.388H396.671V104.883C396.873 104.883 397.024 104.833 397.176 104.681C397.328 104.53 397.378 104.378 397.378 104.126C397.378 103.924 397.328 103.671 397.176 103.368L397.126 103.318C396.974 103.015 396.721 102.51 396.317 101.853L393.338 96.7522L390.964 99.3784V102.914C390.964 103.621 391.065 104.126 391.217 104.378C391.368 104.681 391.671 104.833 392.025 104.883V105.338H387.53V104.883C387.883 104.883 388.186 104.732 388.338 104.378C388.489 104.075 388.59 103.52 388.59 102.813V90.8937C388.59 90.1361 388.489 89.5806 388.338 89.2775C388.186 88.9745 387.883 88.7725 387.53 88.7725V88.318H392.075V88.3685ZM345.005 88.2169C346.975 88.2169 348.641 88.621 349.904 89.4291C351.167 90.2371 351.773 91.2472 351.773 92.4593C351.773 93.3684 351.419 94.126 350.763 94.732L350.712 94.7825C350.005 95.4391 348.944 95.8936 347.581 96.2471C349.096 96.5502 350.258 97.1057 351.116 97.9138C351.975 98.7723 352.429 99.7319 352.429 100.894C352.429 102.358 351.823 103.419 350.662 104.227C349.5 104.984 347.783 105.338 345.561 105.388H339.349V104.883C339.702 104.883 340.005 104.732 340.157 104.378C340.308 104.075 340.409 103.57 340.409 102.863V90.9442C340.409 90.1866 340.359 89.6816 340.157 89.328C340.005 89.025 339.702 88.823 339.349 88.823V88.3685L342.985 88.2674H344.803C344.904 88.2169 344.955 88.2169 345.005 88.2169V88.2169ZM275.208 88.3685V88.823C274.855 88.823 274.552 88.9745 274.4 89.328C274.249 89.6311 274.148 90.1866 274.148 90.9442V102.964C274.148 103.671 274.249 104.126 274.4 104.429C274.552 104.732 274.855 104.883 275.208 104.934V105.388H270.713V104.883C271.117 104.833 271.37 104.681 271.521 104.378C271.673 104.075 271.774 103.52 271.774 102.813V90.7927C271.774 90.0856 271.673 89.5806 271.521 89.2775C271.37 88.9745 271.067 88.7725 270.713 88.7725V88.318H275.208V88.3685ZM205.765 88.3685V88.823C205.411 88.823 205.108 88.9745 204.957 89.328C204.805 89.6311 204.704 90.1361 204.704 90.8937V102.914C204.704 103.671 204.805 104.126 205.058 104.277C205.26 104.429 205.765 104.53 206.573 104.53H206.775C207.937 104.53 208.745 104.479 209.3 104.378C209.856 104.277 210.361 104.075 210.815 103.823C211.118 103.671 211.421 103.419 211.724 103.065L211.775 103.015C212.128 102.661 212.482 102.207 212.886 101.651L213.391 101.803L212.533 105.338H201.321V104.883C201.674 104.833 201.977 104.681 202.129 104.378C202.28 104.075 202.381 103.57 202.381 102.863V90.8937C202.381 90.1361 202.28 89.6311 202.129 89.2775C201.977 88.9745 201.674 88.7725 201.321 88.7725V88.318H205.765V88.3685ZM444.397 88.3685L444.7 91.6512L444.296 91.7522C443.943 90.7927 443.387 90.1361 442.731 89.7826C442.074 89.429 440.913 89.227 439.246 89.227H439.044C438.337 89.227 437.781 89.227 437.377 89.328C436.923 89.3786 436.62 89.4796 436.519 89.5806C436.468 89.6311 436.468 89.6816 436.418 89.7826C436.367 89.8836 436.367 89.9846 436.367 90.1361V95.439H438.842C440.105 95.439 441.014 95.2875 441.519 95.035C442.024 94.7825 442.377 94.328 442.529 93.6714H442.933V97.7623H442.529C442.327 97.2067 442.024 96.8027 441.62 96.5501C441.216 96.3481 440.408 96.1966 439.145 96.1966H436.317V102.863C436.317 103.621 436.418 104.126 436.569 104.429C436.721 104.732 437.024 104.883 437.377 104.934V105.388H432.933V104.883C433.287 104.883 433.59 104.732 433.741 104.378C433.893 104.075 433.994 103.57 433.994 102.863V90.8937C433.994 90.1361 433.893 89.5806 433.741 89.2775C433.59 88.9745 433.287 88.7725 432.933 88.7725V88.318H444.397V88.3685ZM479.952 88.3685V88.823C479.599 88.823 479.296 88.9745 479.144 89.2775V89.328C478.993 89.6311 478.892 90.1361 478.892 90.8937V95.5906H486.468V90.9442C486.468 90.1866 486.367 89.6816 486.215 89.328C486.063 89.025 485.76 88.823 485.356 88.823V88.3685H489.851V88.823C489.447 88.823 489.195 89.025 488.993 89.328C488.841 89.6311 488.74 90.1361 488.74 90.8937V102.964C488.74 103.368 488.791 103.671 488.841 103.873C488.892 104.126 488.993 104.328 489.094 104.53C489.195 104.681 489.296 104.732 489.397 104.833C489.498 104.883 489.649 104.934 489.851 104.934V105.388H485.356V104.934C485.71 104.934 486.013 104.732 486.165 104.429C486.316 104.126 486.417 103.57 486.417 102.863V96.4491H478.841V102.863C478.841 103.57 478.942 104.126 479.094 104.429C479.245 104.732 479.548 104.883 479.902 104.934V105.388H475.407V104.883C475.761 104.883 476.064 104.732 476.215 104.378C476.367 104.075 476.468 103.57 476.468 102.863V90.8937C476.468 90.1361 476.417 89.6311 476.215 89.2775C476.064 88.9745 475.761 88.7725 475.407 88.7725V88.318H479.952V88.3685ZM184.907 88.3685L185.816 91.8027L185.311 92.0048C184.755 90.9442 184.099 90.2371 183.442 89.7826C182.786 89.3785 181.775 89.1765 180.513 89.1765C180.26 89.1765 180.058 89.227 179.957 89.328C179.856 89.4291 179.856 89.5806 179.856 89.8836V102.813C179.856 103.57 179.957 104.075 180.109 104.378C180.26 104.681 180.563 104.883 180.917 104.883V105.338H176.371V104.883C176.725 104.883 177.028 104.681 177.18 104.378C177.331 104.075 177.432 103.57 177.432 102.863V89.8836C177.432 89.5806 177.382 89.4291 177.331 89.328C177.23 89.227 177.079 89.1765 176.826 89.1765C175.513 89.1765 174.553 89.3785 173.897 89.7826C173.24 90.1866 172.584 90.9442 172.028 91.9543L171.523 91.7522L172.382 88.318H184.907V88.3685ZM362.177 88.0149L366.772 102.459L366.823 102.56C367.075 103.318 367.328 103.924 367.581 104.277C367.833 104.681 368.086 104.833 368.389 104.883V105.338H363.894V104.883C364.146 104.833 364.348 104.732 364.5 104.58C364.651 104.429 364.702 104.227 364.702 104.025C364.702 103.873 364.651 103.57 364.5 103.217L364.449 102.964V102.863L363.54 99.8329H357.833L357.126 102.106C357.076 102.358 357.025 102.56 356.975 102.762C356.924 102.964 356.924 103.166 356.924 103.318C356.924 103.722 357.025 104.075 357.177 104.328V104.378C357.379 104.631 357.631 104.833 358.035 104.883V105.338H353.995V104.883C354.55 104.681 355.055 104.328 355.46 103.772C355.864 103.217 356.217 102.308 356.672 100.995L360.813 87.9644H362.177V88.0149ZM147.534 88.621C145.968 88.621 144.806 89.328 143.948 90.7927C143.089 92.2573 142.685 94.2775 142.685 96.9542C142.685 99.6814 143.089 101.752 143.897 103.065C144.705 104.429 145.917 105.085 147.534 105.085C149.2 105.085 150.412 104.378 151.17 103.015C151.927 101.651 152.331 99.4794 152.331 96.5501C152.331 93.9239 151.927 91.9543 151.119 90.5907C150.362 89.2775 149.15 88.621 147.534 88.621V88.621ZM422.479 88.621C420.963 88.621 419.751 89.328 418.893 90.7927C418.034 92.2573 417.63 94.2775 417.63 96.9542V97.1057C417.63 99.7824 418.034 101.752 418.842 103.065C419.65 104.429 420.862 105.085 422.479 105.085C424.145 105.085 425.357 104.378 426.115 103.015C426.873 101.651 427.277 99.5299 427.277 96.6512V96.5501C427.277 93.9239 426.873 91.9543 426.064 90.5907C425.307 89.2775 424.095 88.621 422.479 88.621V88.621ZM345.359 96.6006H342.732V102.863C342.732 103.671 342.884 104.176 343.136 104.378C343.389 104.58 344.096 104.681 345.157 104.681C346.823 104.681 348.035 104.378 348.843 103.722C349.652 103.065 350.056 102.055 350.056 100.692C350.056 99.3279 349.652 98.3178 348.894 97.6612C348.086 96.9542 346.924 96.6006 345.359 96.6006V96.6006ZM360.762 90.5907L358.086 98.9743H363.237L360.762 90.5907V90.5907ZM522.982 90.5907L520.305 98.9743H525.457L522.982 90.5907V90.5907ZM191.321 90.5907L188.644 98.9743H193.795L191.321 90.5907V90.5907ZM246.875 90.5907L244.199 98.9743H249.35L246.875 90.5907V90.5907ZM130.665 88.7725C129.706 88.7725 128.999 88.8735 128.645 89.126C128.291 89.3785 128.089 89.8331 128.089 90.4896V96.9542C128.342 97.0047 128.645 97.0552 128.999 97.0552C129.302 97.1057 129.655 97.1057 130.009 97.1057C131.827 97.1057 133.14 96.7522 134.049 96.0956C134.958 95.3885 135.362 94.3785 135.362 92.9644C135.362 91.6512 134.958 90.5907 134.15 89.8331C133.342 89.126 132.18 88.7725 130.665 88.7725ZM345.207 88.924C344.197 88.924 343.49 89.025 343.187 89.2775C342.884 89.53 342.682 90.0351 342.682 90.8937V95.8936H344.147C346.066 95.8936 347.429 95.6411 348.187 95.0855C348.995 94.53 349.399 93.6714 349.399 92.4593C349.399 91.2977 349.045 90.4391 348.288 89.8331C347.631 89.227 346.571 88.924 345.207 88.924V88.924ZM140.766 23.5715L140.918 23.622L141.069 23.6725C143.14 24.1776 144.2 24.7836 144.352 25.4402C144.352 25.6927 144.15 26.0462 143.796 26.4503L143.746 26.5008C143.342 26.9048 143.089 27.3088 142.938 27.7129V27.9149L142.887 28.1674C142.534 30.8946 142.584 32.3592 142.938 32.6118C151.927 31.2482 157.23 33.0158 158.796 37.9147C156.321 39.5309 154.453 41.5005 153.14 43.8237C152.887 44.4803 152.685 45.5409 152.533 46.9045V47.056C152.533 47.6115 152.483 47.9146 152.331 47.9146H151.624C149.503 47.9146 147.887 47.9651 146.827 48.1166C145.261 48.1166 143.897 48.2681 142.736 48.5206C142.483 48.6721 142.231 50.8438 141.928 55.0357V55.5407C141.574 59.7831 141.473 63.2679 141.574 65.9951C141.726 66.3991 141.827 67.2072 141.978 68.4193L142.079 68.9243L142.13 69.2779C142.281 69.9849 142.332 70.3384 142.332 70.4394C141.17 71.9546 139.907 72.0051 138.594 70.6415V70.2879C138.594 69.2274 138.695 67.7627 138.796 65.9951L138.847 65.4395V64.985C138.948 63.2173 138.998 61.8032 138.998 60.7426V60.4901C138.998 58.975 138.796 56.6013 138.392 53.3185L138.342 52.9145L138.291 52.2579C138.089 50.5408 138.039 49.4297 138.039 48.8741C136.978 48.6216 134.857 49.2277 131.574 50.6923C131.069 50.9448 130.463 50.3893 129.807 49.0762C128.746 47.157 127.736 45.5409 126.675 44.1772C125.766 42.9651 125.11 41.45 124.706 39.6824V39.4803C124.605 37.6117 124.857 36.6016 125.514 36.4501H125.817C126.12 36.4501 126.675 36.3996 127.433 36.3491L128.695 36.2481C130.867 36.0966 133.645 35.339 137.18 33.9249L137.483 33.7734C137.887 33.6219 137.938 31.6522 137.685 27.8644V23.9755C137.887 23.319 138.948 23.1675 140.766 23.5715ZM412.277 55.6922C413.438 55.6922 415.156 56.4498 417.378 57.9144C417.529 58.0659 417.681 58.1164 417.984 58.1164C418.741 58.5205 419.145 59.0255 419.145 59.5305L419.044 59.581L418.994 59.6315C418.438 59.8841 418.186 60.0356 418.186 60.1871L418.135 60.3386L418.085 60.5406C417.832 61.2477 417.479 62.2578 417.024 63.6719L416.923 63.9749L416.873 64.1769C415.762 67.5607 414.802 70.0354 413.943 71.601C413.943 71.8536 413.438 71.6011 412.378 70.793L412.277 70.692L412.176 70.6415C411.974 70.49 411.873 70.4899 411.974 70.591C411.065 70.0354 410.358 69.4294 409.802 68.7728C409.196 68.9243 408.388 68.9748 407.428 68.9748H406.873C405.913 68.9748 405.105 69.0253 404.55 69.1768H404.095L403.843 69.2274H403.691C401.923 69.4799 400.711 69.8334 399.954 70.1869C399.449 69.9344 398.085 68.1668 395.863 64.884L395.812 64.7325C395.055 63.1668 394.701 62.0052 394.701 61.1972C394.853 60.7931 394.903 60.1871 394.903 59.278V57.9144C401.519 56.5508 407.327 55.8437 412.277 55.6922V55.6922ZM259.855 30.0866C261.673 30.0866 262.986 30.2886 263.744 30.6926C264.804 31.0966 264.956 31.7532 264.35 32.7128L263.744 33.9249L263.643 34.1269C262.633 36.0461 261.926 37.7127 261.421 39.0258C261.168 39.6824 261.219 40.4399 261.623 41.248C264.501 45.8439 265.41 50.1873 264.35 54.2276C264.097 55.9952 261.37 55.4902 256.168 52.8135C255.663 52.4094 255.259 52.2579 255.007 52.4094C254.754 52.561 254.552 53.0155 254.401 53.8236C253.997 56.8033 253.744 59.8336 253.643 62.9648C253.643 65.1365 253.845 67.7122 254.249 70.692C254.401 71.3485 253.643 71.5 252.128 71.096L252.027 71.0455C250.916 70.6415 250.461 70.1869 250.764 69.6314L250.815 69.3789L250.865 69.1264C251.118 66.8032 251.269 64.2274 251.421 61.3487V60.4396C251.522 57.3589 251.522 55.0357 251.37 53.47C251.269 53.167 251.168 52.2579 251.168 50.6923V39.0763C251.017 37.3087 250.663 35.9451 250.007 35.036C249.35 34.2279 249.552 33.6219 250.562 33.2178L250.865 33.1168C255.057 31.3492 258.087 30.3391 259.855 30.0866V30.0866ZM358.288 24.026C359.853 24.026 360.964 24.3291 361.621 24.8846C362.025 25.1876 361.773 25.7432 360.813 26.6018C360.409 26.7533 360.106 29.4805 359.853 34.834C360.51 34.834 361.419 34.5309 362.581 33.9754C363.389 33.6724 363.894 33.6724 364.146 33.9754C364.247 34.1269 364.348 34.834 364.348 36.1976V36.3491C364.348 36.9551 364.55 37.1572 364.904 37.0056C365.712 36.2986 366.217 35.339 366.469 34.1774C367.379 33.7229 368.338 34.2279 369.399 35.6925C369.5 35.9956 369.399 36.2986 368.995 36.5511L368.894 36.6521L368.793 36.7531L368.742 36.8036C367.934 37.4097 367.025 38.4703 366.015 40.0864L365.964 40.1874L365.914 40.2884C365.106 41.5005 364.803 42.3086 365.055 42.7126C365.712 42.4096 366.52 42.2581 367.429 42.2581C368.843 41.7025 369.904 41.6015 370.56 42.0561C371.318 42.6116 371.722 43.8237 371.722 45.6924V45.8439C371.722 46.652 371.57 47.056 371.318 47.056C370.661 47.056 369.55 46.7025 367.985 45.9954L367.934 45.9449L367.884 45.8944C367.581 45.6419 367.328 45.5409 367.227 45.5409C365.914 45.0863 364.601 45.1873 363.338 45.7429C362.177 46.3489 360.51 47.763 358.439 50.0862L358.843 49.9852L359.399 49.8337C360.964 49.4802 362.48 49.1267 363.894 48.7731C365.863 48.4701 366.974 48.9751 367.227 50.2883C366.722 52.965 366.469 55.6922 366.419 58.3689V66.1466C366.166 68.0152 365.762 69.0253 365.257 69.1768C363.843 68.7223 361.722 67.1567 358.995 64.3789L358.49 64.7325L358.136 64.985C357.581 65.389 357.227 65.5911 357.025 65.6921C356.621 65.8436 356.167 65.8941 355.662 65.8941C355.257 65.49 354.954 64.7325 354.702 63.6214L354.651 63.5204L354.449 54.3791L354.399 54.4296L354.298 54.5811C353.894 55.1367 353.288 55.9447 352.48 57.0053L352.379 57.1568L352.278 57.3083C351.116 59.1265 350.056 60.4396 349.197 61.2982L349.146 61.3487C348.086 62.3588 346.217 63.3184 343.49 64.1769C343.238 64.0254 343.187 63.8234 343.288 63.5204L343.338 63.4699L343.439 63.3689C344.248 62.3588 345.561 60.9952 347.429 59.177L348.136 58.3689C348.187 58.3184 348.187 58.3184 348.187 58.2679L348.389 58.0659C351.066 55.3387 353.944 51.9044 357.025 47.8136C357.429 47.2075 357.48 46.8035 357.227 46.5004C354.752 46.6519 352.783 47.2075 351.369 48.2681L351.318 48.3186C350.46 48.9751 349.904 49.1267 349.601 48.6721C349.197 48.2681 348.742 47.662 348.237 46.955C346.672 48.8236 345.712 51.2478 345.308 54.1266C345.561 54.4296 345.813 54.4801 346.066 54.3286C347.126 54.0256 348.237 52.7125 349.399 50.4398V50.3388C349.652 49.8842 349.753 50.0357 349.753 50.8438C349.753 53.3185 348.136 56.1467 344.854 59.3285C343.692 58.7225 343.035 57.5609 342.884 55.8437C343.288 54.2276 343.49 52.864 343.49 51.7024V51.5004C343.339 50.0357 342.884 49.2277 342.126 49.0762C341.621 49.0762 341.015 49.3792 340.359 49.9347C340.106 50.0862 339.904 50.6923 339.753 51.8539V52.965C339.753 54.2781 339.601 56.1973 339.349 58.672V59.3285C339.349 62.1568 339.197 64.2779 338.945 65.6415C338.945 65.7931 338.44 65.8436 337.379 65.8436H337.328C336.318 65.8436 335.914 65.5405 336.015 64.985C336.672 63.2679 336.924 61.6517 336.823 60.1871V59.9346C336.823 57.2073 336.621 54.0256 336.217 50.3893C336.217 49.9347 335.914 49.7327 335.258 49.7327C334.753 49.8842 333.945 50.4398 332.884 51.4499L332.834 51.5004L332.783 51.5509C332.48 51.8034 332.278 51.9549 332.127 52.1064C331.622 52.5609 331.015 52.9145 330.359 53.2175C329.854 53.369 329.601 53.2175 329.601 52.763C329.854 51.9044 330.914 49.9347 332.733 46.9045L333.288 45.9954C333.541 45.5914 333.743 45.2378 333.894 44.9853C335.46 42.1066 337.227 37.4602 339.197 31.0966L339.248 30.9451L339.298 30.7936C339.803 29.3795 340.157 28.925 340.359 29.329C341.52 29.632 342.53 30.3896 343.439 31.6522L343.49 31.7027V31.9047C343.743 32.2077 343.743 32.4603 343.49 32.7633C342.429 33.6219 341.217 35.44 339.753 38.2177C339.652 38.3693 339.551 38.5208 339.551 38.6723C339.147 39.3793 338.692 40.5409 338.187 42.1571L338.137 42.3591L338.036 42.6621C337.834 43.1166 337.733 43.4702 337.632 43.7227C337.48 45.4904 338.086 46.2479 339.399 46.0964C341.621 45.3893 343.743 44.4298 345.864 43.2682C346.773 42.7126 347.429 42.6116 347.833 43.0662C348.237 43.3692 348.641 44.1267 348.995 45.4398C350.965 45.4398 353.288 44.9853 356.066 44.1267C356.47 44.1267 356.621 43.3187 356.621 41.753C356.369 41.1975 355.914 40.945 355.258 41.0965C353.843 41.551 352.985 41.551 352.732 41.0965C352.732 40.7935 352.631 40.3894 352.328 39.7834L352.278 39.5814L352.227 39.3793C352.076 38.7733 351.975 38.4198 351.975 38.2683C351.823 37.2582 351.975 36.7531 352.379 36.7531H352.48C352.934 36.7531 354.096 36.6016 355.914 36.2986C356.419 36.0461 356.672 35.7935 356.672 35.642V35.137C356.924 29.8845 357.177 26.4502 357.429 24.7836C357.379 24.3291 357.631 24.026 358.288 24.026V24.026ZM411.469 57.7124C411.216 57.8639 410.711 57.8639 409.903 57.7124C408.843 57.7124 408.236 57.9144 407.933 58.3184C407.782 58.571 407.731 59.1265 407.731 59.9346C407.58 60.3386 407.782 60.5406 408.287 60.5406H408.388C408.641 60.5406 409.449 60.4396 410.863 60.3386C411.115 60.4901 411.166 60.7426 411.065 61.1467V61.8032C411.317 62.3588 411.317 62.8133 411.065 63.2173L409.752 63.3184L408.59 63.3689C408.135 63.4194 407.883 63.4194 407.782 63.4194C407.378 63.4194 407.176 63.6214 407.176 64.0254C406.923 64.2779 406.772 64.783 406.772 65.4395C406.772 65.8436 407.024 66.0456 407.529 66.0456H407.63C407.832 66.0456 408.388 65.9446 409.348 65.8436C409.6 65.9951 409.802 66.6516 409.954 67.8637L410.156 67.8132L410.358 67.7627C411.368 67.5102 411.822 67.3587 411.721 67.2577C412.883 64.8335 413.489 62.4598 413.489 60.1366C413.186 58.8235 412.529 58.0154 411.469 57.7124V57.7124ZM200.664 27.5613C204.048 27.5613 207.028 28.1674 209.654 29.3795C210.411 29.7835 210.664 30.3896 210.462 31.1977V31.6522C209.805 33.3188 209.502 34.9855 209.502 36.7531V37.0056C209.603 38.2683 209.654 40.3894 209.654 43.2682C209.654 49.5307 209.502 55.8942 209.25 62.2578C209.25 62.9648 209.401 63.9749 209.654 65.3385V65.4395C209.755 65.7426 209.805 65.9951 209.805 66.0961C209.805 67.2072 209.199 67.6112 208.038 67.3082C203.593 65.692 200.563 63.5709 198.846 60.9952L198.795 60.9447H198.846C198.543 60.4901 198.391 60.1366 198.543 60.0356C198.795 59.8841 199.199 59.9851 199.704 60.2376C200.361 60.5406 201.018 60.7932 201.674 61.0457L201.775 61.0962L201.876 61.1467C202.331 61.3487 202.634 61.4497 202.886 61.4497C204.704 62.1063 205.462 61.4497 205.209 59.4295V57.4599C205.058 47.157 204.805 39.3288 204.452 34.0764C204.199 31.5007 202.684 30.1876 199.957 30.1876C192.179 30.0361 187.23 31.7532 185.109 35.2885C183.442 39.9349 182.432 46.1974 182.179 54.0761C182.179 55.6922 182.584 56.6013 183.341 56.7528H183.442C184.149 56.7528 185.513 56.4498 187.634 55.9447L188.391 55.7932C189.553 55.5912 190.412 55.4397 190.917 55.3387L191.068 55.2882H191.169C192.735 55.0357 194.907 54.8336 197.735 54.7326L197.987 54.6821H198.189C198.997 54.5811 199.654 54.5306 200.058 54.5306C201.22 54.1266 201.927 54.2781 202.179 54.9347L202.28 55.2377C202.735 56.9548 202.987 58.0154 202.987 58.4194C202.987 59.2275 202.684 59.5305 202.028 59.2275C199.805 58.2679 195.715 58.2174 189.705 59.0255C186.22 59.4295 183.846 60.1366 182.685 61.0457L182.584 61.0962L182.483 61.1467C181.523 61.8537 180.866 62.1568 180.513 62.0558C180.109 61.9042 179.806 61.3992 179.553 60.4396C179.149 58.3689 179.099 53.571 179.351 45.9449V44.9348C179.604 38.5713 180.008 34.5309 180.462 32.8643C180.715 31.7532 181.422 31.1472 182.634 30.9956H182.836C183.897 30.8441 185.816 30.3391 188.493 29.5815L188.846 29.4805L189.2 29.3795C194.907 28.0159 198.694 27.4098 200.664 27.5613V27.5613ZM303.592 22.3594L303.693 22.4099C305.309 22.8645 305.965 23.3695 305.763 23.9755V24.026C305.359 24.7836 305.006 26.4503 304.602 28.9755L304.551 29.2785C303.895 32.7633 303.238 35.6925 302.481 38.0662C302.481 38.6723 302.784 38.9753 303.44 38.9753L303.693 38.8238L304.097 38.5713C306.672 37.0562 308.844 35.6925 310.662 34.4299C311.571 34.2784 312.581 35.339 313.794 37.6117C314.45 38.9753 314.248 39.7329 313.187 39.8844C310.208 40.3389 308.491 41.551 308.137 43.5207C307.986 46.854 307.379 50.0357 306.218 53.0155C307.379 55.5912 310.46 58.3184 315.359 61.1972L315.612 61.3487L315.915 61.5507C318.086 62.9143 319.652 63.9749 320.612 64.8335C321.521 65.288 321.925 65.7426 321.773 66.1971C321.369 66.6516 320.511 66.9042 319.248 66.9042H318.844C316.016 66.7021 312.531 66.2981 308.289 65.5405C309.046 62.2073 307.682 59.6315 304.198 57.8134C303.945 58.4194 303.44 59.177 302.632 60.0861C301.723 61.2982 301.218 62.2073 301.066 62.8133C300.309 64.3284 297.632 65.2375 293.087 65.5405C292.178 65.389 291.319 65.086 290.562 64.6315L290.511 64.581L290.461 64.5304C289.754 63.8234 289.703 63.4194 290.158 63.2679C295.612 62.0558 299.501 59.7326 301.824 56.2478C301.42 54.8842 299.955 53.369 297.329 51.7024C297.178 51.2478 297.178 50.5408 297.329 49.6317C297.329 49.0257 297.127 48.7226 296.723 48.7226C295.915 49.3287 295.359 49.4802 294.955 49.1772C298.39 43.8237 300.864 35.1875 302.43 23.2685C302.683 22.5109 303.087 22.2079 303.592 22.3594V22.3594ZM403.085 58.7225C402.024 58.7225 400.61 58.975 398.792 59.5305C398.287 59.6821 397.934 60.0861 397.833 60.7426L397.934 60.9952C398.287 62.1568 398.641 63.4194 399.045 64.8335L399.095 64.9345L399.146 65.0355C399.6 66.0961 400.055 66.6516 400.408 66.7022L403.944 66.2981C404.196 66.2981 404.348 65.9446 404.348 65.288C404.449 64.4799 404.398 63.9749 404.146 63.8739H404.095C403.792 63.8739 402.832 64.0759 401.216 64.48C400.964 64.48 400.61 64.2779 400.257 63.8739V63.7729L400.206 63.6214C400.004 62.5608 399.954 61.9042 400.055 61.6517H400.358C402.176 61.6517 403.439 61.4497 404.146 61.0457C404.045 59.48 403.742 58.7225 403.085 58.7225V58.7225ZM528.538 37.8137C529.194 37.8137 529.851 38.9248 530.507 41.046V41.248C531.164 42.3591 531.164 43.0662 530.507 43.5207H530.305C528.083 42.8641 526.012 42.8641 524.043 43.5207C522.982 43.9247 522.477 44.7833 522.477 46.1469V48.0156C522.477 52.1569 522.578 55.3892 522.679 57.7629L522.73 58.1669L522.78 58.571C523.033 61.3992 523.336 63.9749 523.689 66.3486C523.79 66.6011 523.689 66.7021 523.285 66.5506C517.023 65.8941 511.821 63.4194 507.679 59.2275C507.528 58.9245 507.477 58.7225 507.477 58.6215C507.629 58.4699 507.831 58.4699 508.083 58.6215H508.184C508.689 58.773 509.497 59.1265 510.609 59.6315L510.811 59.6821C513.588 60.7426 515.81 61.2477 517.477 61.2477C518.639 61.2477 519.245 60.6921 519.245 59.6315C519.245 55.2882 519.043 50.9953 518.639 46.8035C518.487 44.8843 517.73 43.9752 516.316 43.9752H516.164C515.709 44.0762 515.002 44.2278 514.144 44.3288L513.942 44.3793C510.811 44.7833 508.689 45.4904 507.477 46.3994C507.326 46.551 507.023 46.0459 506.518 44.9853V44.9348C506.417 44.4803 506.215 43.5207 505.962 41.9045V41.8035C505.962 41.5005 506.114 41.45 506.366 41.7025C506.619 41.9551 507.427 41.9551 508.689 41.7025L508.841 41.652L508.992 41.6015C510.71 41.2985 513.285 40.6925 516.669 39.8339L517.023 39.7329L517.376 39.6319C522.78 38.1672 526.517 37.5107 528.538 37.8137ZM466.013 32.1067C468.084 32.1067 469.549 32.3593 470.306 32.9148H470.357C471.114 33.2178 471.165 33.7229 470.508 34.5309L470.407 34.7835L470.306 35.036C468.488 39.3793 467.528 42.5106 467.427 44.4803C467.68 45.4398 467.377 45.9954 466.468 46.0964C465.811 46.2479 464.498 46.753 462.579 47.7125L462.326 47.8136L461.922 48.0156C461.316 48.2681 460.761 48.5206 460.256 48.7226C459.751 48.9751 459.498 49.2782 459.498 49.5307C459.498 49.6822 459.801 49.8842 460.458 50.1367C461.114 50.4398 461.973 50.3388 462.983 49.9347C466.771 48.7226 469.599 46.955 471.569 44.6318C472.225 44.0762 473.084 44.3793 474.094 45.4398C474.751 45.9954 474.548 46.4499 473.488 46.854C472.579 47.258 471.72 47.763 470.963 48.2681C469.65 49.3287 467.781 50.4398 465.306 51.5004H465.205C464.751 51.6519 464.549 51.7529 464.549 51.8539C464.549 52.0054 464.751 52.2074 465.155 52.4599L465.407 52.6115L465.66 52.763C467.68 53.8741 469.397 54.9347 470.811 55.9447C471.316 56.3488 472.528 56.8538 474.347 57.3589C476.973 57.9144 478.942 58.571 480.407 59.379C481.165 59.6315 481.569 59.9851 481.569 60.3891C481.569 60.6416 481.266 60.9952 480.609 61.3992C479.7 61.9547 478.589 62.2578 477.276 62.4093H477.175C476.114 62.5103 474.397 62.5103 472.023 62.4093C470.71 62.5608 469.953 62.0558 469.7 60.9952L469.65 60.8436L469.599 60.6921C468.993 58.8235 468.286 57.5609 467.528 56.9043L467.478 56.8538C466.367 55.6922 465.71 55.6417 465.609 56.7023L465.508 56.8538L465.407 57.0053C464.801 58.0659 464.296 58.9245 463.842 59.5305C463.084 60.4901 462.63 61.1972 462.478 61.7527C462.326 62.7123 460.761 64.0254 457.781 65.8436C456.872 66.2476 456.215 66.0456 455.811 65.2375C454.751 63.4699 454.549 59.3285 455.205 52.8135L455.256 52.2579L455.306 51.7024C455.508 48.6216 455.71 45.8439 455.811 43.2682V42.5611C455.912 39.9349 455.912 38.0157 455.761 36.7531V36.7026C455.508 35.541 455.862 34.935 456.771 34.935L456.973 34.834L457.074 34.7835C457.327 34.6319 457.68 34.4299 458.135 34.1269C460.104 32.8643 462.731 32.1067 466.013 32.1067V32.1067ZM295.208 34.1269L295.258 34.2279C295.764 35.238 295.865 35.945 295.612 36.3996V36.4501L295.561 36.5006C295.107 37.1067 293.996 38.2177 292.127 39.8339C291.875 40.2884 291.673 41.7025 291.521 44.1267C291.673 43.9752 292.279 43.8742 293.491 43.8742C294.147 43.7227 294.753 43.6722 295.258 43.6722C295.764 45.0358 295.511 46.3994 294.501 47.763C294.248 48.0661 293.743 48.4701 292.935 48.8741L292.632 49.1772L292.38 49.3792C291.572 50.0862 291.067 50.4903 290.865 50.6418H290.814V52.9145C291.067 53.9751 291.42 54.4296 291.774 54.2781C292.178 54.1266 292.632 53.8741 293.137 53.571L293.39 53.4195L293.541 53.3185C294.854 52.6115 295.46 52.3589 295.46 52.662C295.612 53.8741 295.056 55.3892 293.895 57.2073C293.39 57.8134 292.279 58.672 290.562 59.6821L290.107 59.9851L289.754 60.2376C288.541 61.0457 287.531 61.8032 286.673 62.4093L286.622 62.4598C286.218 62.7628 285.511 63.1163 284.501 63.5709L284.148 63.7224L283.794 63.8739C282.329 64.6315 281.319 65.187 280.764 65.5911C279.451 64.682 278.744 63.5709 278.643 62.2073L278.744 62.1568L278.845 62.1062C280.511 61.2477 281.521 60.4396 281.925 59.7326V59.6821C281.824 58.773 281.723 56.8033 281.723 53.8236V53.6215L281.673 52.3589C281.572 49.8842 281.521 48.2176 281.521 47.258C281.521 46.6519 281.824 46.3489 282.481 46.3489C284.804 46.3489 286.067 46.9045 286.168 47.9146C285.915 49.3792 285.713 50.7428 285.612 52.0559V52.2074C285.461 53.571 285.41 55.4397 285.41 57.8639C286.572 57.5609 287.279 57.1063 287.531 56.5003C287.784 54.8336 287.986 52.8135 288.137 50.3893C288.137 48.1166 288.087 45.9954 287.935 44.0257C287.683 42.9651 287.178 42.3591 286.37 42.2076C284.804 43.4197 283.845 43.4197 283.44 42.2076L283.339 41.9045L283.188 41.3995C282.127 38.3187 281.673 36.8036 281.925 36.8036L282.077 36.7531L282.279 36.7026C284.4 36.1976 287.935 35.1875 292.885 33.6219C293.289 33.4703 293.592 33.3188 293.844 33.1673C294.4 33.0663 294.854 33.3693 295.208 34.1269V34.1269ZM452.731 29.4805C453.539 30.1371 453.438 30.6926 452.529 31.0966C451.771 31.3997 450.711 32.4098 449.397 34.1774C449.145 34.4299 449.094 34.6319 449.195 34.7835C449.195 34.935 449.397 35.036 449.801 35.1875C450.963 35.44 452.125 35.5915 453.286 35.5915C454.347 35.9955 454.145 37.2077 452.68 39.2783C451.923 39.8339 451.115 39.7329 450.357 39.0763C448.387 37.7127 447.024 37.3592 446.266 38.0662L446.216 38.1167L446.165 38.1672C445.66 38.7228 444.903 39.7329 443.892 41.147C443.387 41.7025 442.983 42.1571 442.731 42.5611C442.478 42.8136 442.428 43.1167 442.529 43.3692C442.68 43.6217 442.832 43.7227 443.135 43.5712L443.488 43.4702L443.791 43.2682C446.468 42.4601 448.539 41.9551 449.953 41.8541C451.115 41.45 451.721 41.9046 451.721 43.2682C451.973 44.4803 451.67 45.0863 450.761 45.0863C448.791 45.6419 447.63 46.652 447.226 48.1166C447.074 48.9246 447.478 49.2277 448.387 48.9247H448.488C448.943 48.7731 449.751 48.3691 450.913 47.763C451.317 47.5105 451.822 47.763 452.478 48.5711C453.135 49.2277 453.135 49.8337 452.478 50.3893L451.973 50.7428L451.367 51.1973C449.448 52.561 447.882 53.571 446.822 54.2781C446.317 54.5306 446.064 56.0458 446.064 58.773C446.216 59.7326 446.771 59.9346 447.832 59.379C449.145 58.8235 450.357 57.1568 451.519 54.2781L451.569 54.2276L451.62 54.1771C451.872 53.571 452.024 53.3185 452.175 53.3185C452.276 53.3185 452.377 53.7225 452.377 54.5306C452.226 58.874 450.609 62.3083 447.478 64.884L447.428 64.9345C446.67 65.6921 446.014 65.5911 445.509 64.682C445.004 64.1264 444.65 63.3184 444.549 62.2578V62.1062C444.448 61.0962 444.397 59.278 444.397 56.5508C444.549 55.7427 444.246 55.3892 443.64 55.5407C442.882 55.6922 442.074 55.9952 441.317 56.5508C440.812 57.1063 440.357 56.8033 439.953 55.7427C438.64 53.167 438.59 51.9044 439.751 51.9044C441.064 51.9044 442.377 51.7024 443.64 51.2983C444.296 51.2983 444.549 50.8943 444.397 50.0862V49.9852C444.397 49.1267 444.195 48.8236 443.791 49.1267C442.882 49.3792 442.377 48.5206 442.226 46.5004C442.226 45.8439 442.125 45.4904 441.822 45.4904C441.67 45.3388 441.418 45.5409 441.064 46.0964C440.155 47.3085 438.337 48.2176 435.61 48.7226H435.509C435.054 48.8236 434.852 48.8236 434.852 48.6721C434.701 48.5206 434.802 48.1671 435.054 47.662C435.711 46.4499 437.276 44.8338 439.751 42.7631C441.165 41.551 442.63 39.7329 444.044 37.2582L444.599 36.4501L445.155 35.642C446.923 33.0663 448.488 30.8441 449.902 28.925C450.205 28.1674 451.165 28.3694 452.731 29.4805V29.4805ZM357.934 54.2276C357.783 54.5306 358.136 54.8336 358.894 55.0862C360.055 54.6316 360.712 55.0357 360.863 56.1468C360.863 56.7528 360.358 57.3589 359.298 58.1164C357.48 59.581 356.975 60.6416 357.732 61.3992L357.833 61.3487C359.449 60.9447 360.459 60.9447 360.863 61.3992C361.015 61.8537 360.863 62.2578 360.459 62.7123L360.56 62.7628L360.611 62.8133C361.823 63.8234 362.48 64.0254 362.631 63.3689V57.9144C362.631 56.6013 362.48 55.2882 362.227 54.0256C361.166 51.7024 359.752 51.7529 357.934 54.2276V54.2276ZM502.578 38.6218C504.296 39.1773 505.154 39.9854 505.306 41.046C505.306 41.1975 504.902 41.652 504.144 42.4601L504.043 42.5611L503.942 42.6621C503.538 43.0661 503.336 43.3692 503.336 43.4702V43.6217C503.235 44.2783 503.083 45.3388 502.982 46.7025C502.225 53.773 502.073 59.0255 502.578 62.5608C502.578 62.8133 502.124 63.0153 501.215 63.1668C500.457 63.1668 499.851 63.1163 499.447 62.9648C499.296 62.7123 499.245 62.4093 499.245 62.1568V62.0558C499.245 61.2477 499.397 59.7831 499.649 57.6619L499.7 57.3083V57.0558C499.902 54.6316 499.952 52.9145 499.851 51.7529V51.6014C499.851 48.9751 499.599 47.7631 499.094 47.9146C497.679 48.8741 496.821 50.4903 496.568 52.8135C496.568 53.773 496.063 54.5306 495.003 55.0357C494.094 55.5912 493.134 55.9952 492.073 56.2478H491.972C490.861 56.3488 490.104 56.2983 489.75 56.0457L489.801 55.9952C490.205 55.3387 490.962 54.3286 492.124 53.0155L492.528 52.6115C492.983 52.1569 493.286 51.8034 493.538 51.6014C495.861 48.4701 498.033 45.4398 500.003 42.4601L500.609 41.551C501.619 39.8339 502.326 38.8238 502.578 38.6218V38.6218ZM457.428 54.4801C456.013 58.8235 456.114 61.0962 457.832 61.3992C459.801 61.1467 461.922 59.581 464.296 56.7023C464.801 56.0457 465.003 55.5407 464.902 55.2882C464.902 55.1367 464.599 55.0357 463.943 54.8841C461.973 54.6316 460.508 54.2276 459.448 53.672L459.397 53.6215C458.438 53.1165 457.781 53.4195 457.428 54.4801V54.4801ZM406.216 33.7229C406.873 33.7229 407.479 34.2784 407.984 35.339C408.64 35.9955 408.944 36.7531 408.944 37.5107V37.5612C408.944 37.9652 409.146 38.1672 409.55 38.1672C412.681 37.8642 415.358 37.8642 417.529 38.1672H417.731C418.64 38.1672 420.004 38.0157 421.873 37.7632L422.378 37.7127L422.832 37.6622C423.893 37.5612 424.6 37.5107 425.004 37.5107C425.155 37.5107 425.256 37.9652 425.408 38.9248V39.3288C425.559 40.5914 425.711 41.45 425.963 41.8035C425.963 42.7631 425.66 43.2177 425.004 43.2177C423.186 42.1066 421.115 41.45 418.741 41.1975C416.772 40.945 414.852 40.945 412.883 41.1975C413.034 41.349 413.186 41.6015 413.489 42.0056C413.994 42.6621 414.297 43.2177 414.297 43.6217C414.448 43.8742 414.347 44.0762 414.095 44.2277L412.529 44.6318C410.762 45.6924 408.539 47.662 405.863 50.5408L405.711 50.7428C405.459 50.9953 405.459 51.1973 405.711 51.3488C406.62 51.5004 407.782 50.8943 409.247 49.5307L409.348 49.4297C410.61 48.4196 411.62 47.9146 412.378 47.9146C414.701 47.662 416.216 49.6317 416.873 53.8236C417.024 54.4801 416.822 55.0357 416.267 55.4397C414.954 55.6922 413.388 54.8841 411.57 53.0155C411.822 52.864 412.277 52.662 412.933 52.4094L413.236 52.2579L413.539 52.1064C413.741 52.0054 413.943 51.9044 414.095 51.8034C414.751 51.3993 414.954 50.9953 414.701 50.5913C414.044 49.6317 413.337 49.1772 412.529 49.1772C411.469 49.3287 410.711 49.9852 410.206 51.1973C410.206 51.3489 410.156 51.5509 410.004 51.8034L409.954 52.0559L409.903 52.3589C409.701 53.47 409.55 54.0256 409.398 54.0256H409.297C408.893 54.0256 408.287 54.0761 407.479 54.2276C405.408 54.2276 403.742 54.4296 402.58 54.8336H402.378C400.964 55.5407 399.6 55.9447 398.287 56.0457C397.53 56.1973 397.126 55.8942 397.126 55.2377L397.025 55.0357L396.974 54.8841C396.418 53.2175 396.267 52.4094 396.519 52.4094C397.934 52.662 399.297 52.3589 400.61 51.3994C401.772 50.5913 402.883 49.6317 403.944 48.5711H404.045C404.499 48.3186 404.449 48.2176 403.944 48.2176C402.378 48.2176 400.863 48.4701 399.449 49.0256C399.297 49.0256 399.146 49.1772 398.843 49.4297L398.742 49.4802L398.641 49.5307C397.58 50.1367 396.923 50.2883 396.671 50.0357C396.418 49.7832 395.964 48.4196 395.307 45.9449H395.408C395.913 45.8439 396.721 45.6924 397.833 45.5914H397.984C399.095 45.4399 399.903 45.3388 400.408 45.1873L401.57 42.5611C401.822 42.3086 401.671 42.1571 401.166 42.1571L401.014 42.2076L400.863 42.2581C400.61 42.3591 400.509 42.3591 400.61 42.3591L400.358 42.4096L400.105 42.4601C398.54 42.7631 395.863 43.1672 392.025 43.7732H391.924C391.166 43.9247 390.156 44.1772 388.893 44.5813L388.792 44.6318L388.691 44.6823C388.439 44.7833 388.237 44.8338 388.136 44.8338H387.934C387.53 45.0863 387.277 44.8843 387.176 44.2277L387.075 44.1267L387.025 44.0762C386.772 43.5207 386.621 43.0661 386.621 42.6621C386.469 42.4096 386.469 42.1571 386.621 42.0561H387.429C389.247 41.8035 390.964 41.6015 392.53 41.45C393.843 41.2985 395.661 40.8945 397.984 40.2379L398.287 40.1369L398.59 40.0359C399.752 39.7329 400.61 39.4803 401.317 39.3793L401.721 39.2783L402.176 39.1773C404.398 38.6218 405.812 38.3692 406.418 38.3692C405.509 37.2582 405.055 36.2481 405.055 35.339C405.004 34.4804 405.408 33.9754 406.216 33.7229V33.7229ZM240.764 27.2583C241.522 27.4098 241.724 27.9654 241.32 28.8745C240.815 30.6421 240.562 32.7128 240.562 35.137V35.1875C240.461 36.0966 240.714 36.5006 241.37 36.3491H241.572C244.35 36.3491 246.522 36.6521 248.189 37.1572C249.098 37.1572 249.3 37.9652 248.795 39.5814L248.694 40.0359L248.593 40.5409C247.986 43.2177 247.229 46.8035 246.37 51.2983L246.269 51.7529V51.6014C246.37 50.9953 246.219 51.5509 245.865 53.167C245.461 54.1266 244.805 54.3286 243.946 53.773L243.795 53.672L243.643 53.571C241.471 51.9549 240.007 51.1973 239.249 51.3488L239.098 51.3994L238.946 51.4499C236.421 52.2074 234.956 52.864 234.603 53.369C233.542 54.3286 232.785 54.1266 232.28 52.763V52.662C231.876 51.9044 231.017 49.6822 229.805 46.0459L229.653 45.5914L229.552 45.2378C229.148 43.7227 228.744 42.5106 228.441 41.6015C227.785 40.3894 227.987 39.5814 229.047 39.1773H229.098C230.158 38.7733 232.128 38.1672 235.057 37.3592C235.815 37.2077 236.219 36.9046 236.219 36.3491C236.371 35.44 236.421 34.2279 236.421 32.7633V27.4098C235.865 26.2482 237.381 26.1472 240.764 27.2583V27.2583ZM201.068 33.6724V35.9451C201.22 36.5006 200.816 36.8541 199.906 36.9551C199.755 37.1066 199.048 37.3087 197.735 37.5612L197.482 37.6117L197.28 37.6622C196.775 37.7632 196.472 37.7632 196.371 37.7632C195.866 37.9147 195.513 38.3188 195.412 38.9753C195.412 39.6319 195.715 39.9854 196.371 39.9854H200.715C201.119 39.9854 201.27 40.2379 201.321 40.7935V42.1066C201.321 43.0157 201.068 43.4197 200.563 43.2682H200.462C200.058 43.2682 199.805 43.3692 199.805 43.4702C199.805 43.6217 199.906 43.8237 200.209 44.0762C200.311 44.3288 200.614 44.6823 200.967 45.0863L201.169 45.3894L201.321 45.5914C201.523 45.8439 201.674 46.0459 201.775 46.1469C202.028 46.7025 201.977 47.157 201.573 47.561C201.674 47.561 201.725 47.6115 201.573 47.763H203.139C203.896 47.763 204.3 47.9651 204.3 48.3691V50.4398C204.452 50.8438 204.351 51.0963 204.098 51.2478C203.997 51.3993 203.694 51.3993 203.341 51.2478C196.775 50.5913 191.018 51.2478 186.119 53.2175L185.967 53.268C185.311 53.5205 184.806 53.47 184.402 53.066C183.745 51.9549 183.543 51.0458 183.796 50.1873C185.109 50.1873 187.028 49.7832 189.654 48.9751C190.563 48.5711 191.018 47.359 191.018 45.2883C190.614 45.4399 189.957 45.4904 189.048 45.4904H188.947L188.695 45.5409C187.836 45.6419 187.23 45.7934 186.876 45.8944C185.967 46.0459 185.513 45.8439 185.513 45.2883C185.614 44.8843 185.715 44.4298 185.715 43.9247V43.8742C185.715 43.4702 185.765 43.0661 185.917 42.6621C186.018 42.2581 186.27 42.0561 186.674 42.0561H186.775C187.078 42.0561 187.533 42.0056 188.29 41.8541L189.25 41.652C189.957 41.5005 190.563 41.349 191.018 41.248C191.422 41.3995 191.523 41.147 191.422 40.6419C191.422 39.1268 190.715 38.7228 189.301 39.4298C189.149 39.4298 188.998 39.5814 188.695 39.8339C188.543 39.9854 188.442 40.0359 188.29 40.0359C188.139 40.1874 188.038 40.2379 187.886 40.2379C187.735 40.2379 187.634 40.0359 187.482 39.6319C187.331 39.4803 187.179 38.5208 186.876 36.7531C186.624 36.3491 186.674 36.0966 187.078 35.9451C189.806 34.834 193.896 33.9754 199.351 33.2683H199.452C200.513 33.0158 201.068 33.1168 201.068 33.6724V33.6724ZM301.066 43.8742L301.016 43.9752C300.864 44.2782 300.713 44.8843 300.46 45.6924C300.359 45.9954 300.258 46.1974 300.258 46.3489C300.258 46.955 301.218 48.3186 303.188 50.4398C303.44 50.5913 303.642 50.7428 303.794 50.8943C304.551 48.3186 304.501 45.8439 303.592 43.4197C302.582 43.2682 301.723 43.4197 301.066 43.8742V43.8742ZM236.472 46.1469C235.31 46.3994 234.401 46.753 233.744 47.157C233.593 48.2176 233.795 49.1267 234.35 49.7832C234.603 49.6317 234.956 49.5307 235.31 49.3792C235.815 49.1267 236.27 48.9246 236.674 48.7731C236.775 48.6216 236.876 48.1166 236.876 47.157V47.0055C236.724 46.3994 236.573 46.1469 236.472 46.1469V46.1469ZM240.36 40.0359V40.2379C240.36 41.349 240.562 41.8035 240.916 41.7025C241.572 41.45 241.976 41.9046 242.078 43.1167C242.33 44.1773 242.027 44.7328 241.118 44.7328H240.865C240.36 44.7328 240.108 45.2883 240.108 46.3489V46.5509C240.108 47.5105 240.31 48.0156 240.714 48.0156C240.966 47.8641 241.219 48.2176 241.471 49.0256C241.572 49.4297 241.724 49.6317 241.875 49.6317C241.976 49.4802 242.128 49.2277 242.28 48.8236C243.037 45.8439 243.441 43.2177 243.441 40.8945C243.593 39.8339 243.138 39.2783 242.078 39.2783H241.976C240.916 39.1268 240.36 39.3793 240.36 40.0359V40.0359ZM257.532 33.3188L257.431 33.3693L257.33 33.4198C255.916 34.1774 255.108 34.8845 255.007 35.541L254.956 36.1471L254.906 36.6521C254.704 38.9753 254.603 40.7935 254.603 42.0561C254.451 43.8237 254.401 45.8439 254.401 48.1166C257.885 49.7327 259.855 49.8337 260.259 48.3186C260.259 46.8035 260.108 45.6924 259.855 44.8843C259.703 44.0762 259.249 42.9146 258.491 41.45C257.986 40.8945 258.188 38.9248 259.097 35.541C259.35 33.6724 258.845 32.9148 257.532 33.3188V33.3188ZM197.179 44.1267H197.078C195.967 44.2783 195.361 44.5813 195.21 45.1368V47.4095C195.21 47.8136 195.412 48.0156 195.765 48.0156H195.866C196.119 48.0156 196.927 47.9146 198.341 47.8136C198.341 47.5105 198.139 47.2075 197.735 46.8035C197.634 46.5509 197.482 46.3489 197.331 46.1974C196.977 45.4903 196.927 44.7833 197.179 44.1267ZM132.534 38.6723C131.372 39.2278 130.766 40.4904 130.766 42.5611C130.918 44.8843 131.473 46.0964 132.534 46.2479H132.837C135.413 45.8439 137.13 45.3388 137.988 44.6823C138.14 44.5308 138.039 43.1672 137.786 40.5914L137.736 40.2884L137.685 39.9349C137.584 38.7733 137.534 37.9147 137.534 37.3087C137.382 36.9551 135.665 37.4602 132.534 38.6723V38.6723ZM461.518 35.137C459.801 35.7935 459.044 36.7026 459.195 37.7632C459.195 38.3188 459.246 38.6218 459.397 38.7733C459.549 38.9248 459.852 38.8238 460.357 38.5713C461.518 37.9147 462.175 38.2177 462.326 39.5814C462.832 40.945 462.377 41.8035 460.963 42.2076C459.65 42.6116 458.892 43.4197 458.64 44.6318V44.8338C458.539 45.4399 458.539 45.7429 458.69 45.8944C458.842 46.0459 459.195 45.9449 459.852 45.6924L460.003 45.6419C462.731 44.5813 464.145 43.5207 464.145 42.4601L464.195 42.0561L464.246 41.652C464.347 40.5409 464.448 39.3288 464.549 38.0157V37.7127C464.65 37.0056 464.7 36.4501 464.7 35.9956C464.397 34.733 463.337 34.4804 461.518 35.137V35.137ZM411.267 41.248L410.661 41.2985L410.206 41.349C408.539 41.45 407.378 41.6015 406.721 41.7025L406.671 41.753C406.519 41.9046 406.216 42.3086 405.711 42.9146L405.358 43.3692L405.105 43.6722C404.802 44.0762 404.55 44.3288 404.348 44.5308C404.247 44.7833 404.297 44.9348 404.55 44.9348C404.651 44.9348 405.307 44.8843 406.519 44.7328H406.822C407.832 44.7328 408.388 44.6318 408.489 44.5308L408.842 44.1267C410.307 42.4601 411.115 41.652 411.216 41.652L411.267 41.6015L411.368 41.5005L411.418 41.45C411.772 41.2985 411.671 41.248 411.267 41.248V41.248ZM146.069 35.3895C144.503 35.3895 143.443 35.5915 142.938 35.9956C142.685 36.3996 142.483 37.8137 142.332 40.2884V40.844C142.332 42.9146 142.483 43.9752 142.736 43.9752C143.392 43.7227 144.705 43.4197 146.624 43.1672H146.877C148.291 43.0156 149.099 42.8136 149.352 42.5611C149.907 42.1571 150.21 41.248 150.362 39.9349C150.614 38.1672 150.614 36.8541 150.362 36.0461C149.705 35.5915 148.241 35.3895 146.069 35.3895ZM236.068 40.0359L235.916 40.0864L235.764 40.1369C234.249 40.5409 233.088 40.9955 232.381 41.5005C232.229 42.7126 232.532 43.5207 233.138 43.9247C233.896 43.5207 234.906 43.1167 236.068 42.7126C236.724 41.6015 236.724 40.6925 236.068 40.0359V40.0359ZM364.146 38.1672C363.389 38.3187 362.581 38.6723 361.773 39.2278C360.459 40.0864 359.904 41.1975 360.005 42.5106C360.51 42.6621 361.166 42.2581 361.975 41.45L362.025 41.349C362.126 41.248 362.126 41.1975 362.126 41.1975C362.985 40.3389 363.641 39.3288 364.146 38.1672ZM347.328 33.8239C347.581 34.9855 348.389 36.3491 349.652 37.9652C350.561 39.6824 350.106 40.6925 348.288 40.9955C345.662 40.9955 344.298 39.9854 344.197 37.9652C344.197 36.5006 344.5 35.2885 345.157 34.2784C345.965 33.2178 346.722 33.1168 347.328 33.8239V33.8239ZM505.306 30.0866C506.568 31.4502 506.871 32.3087 506.114 32.7128C505.609 32.9653 505.003 33.5714 504.346 34.5309L504.194 34.6824L504.094 34.7835C503.841 35.0865 503.588 35.339 503.386 35.541L503.336 35.5915L503.235 35.6925C502.528 36.3996 501.215 37.5612 499.296 39.2278L499.144 39.3793L499.043 39.4803C498.387 40.1369 497.881 40.5914 497.528 40.844C497.124 40.9955 496.77 40.7935 496.366 40.2379L496.417 40.1369L496.467 40.0864C496.77 39.3288 497.528 37.6622 498.74 35.137L498.892 34.8845L499.094 34.4804C499.296 34.0764 499.498 33.6219 499.75 33.1168L499.801 33.0158L499.902 32.8643C500.407 32.0057 501.164 30.6926 502.073 28.8239C502.477 27.9149 503.588 28.3189 505.306 30.0866ZM522.275 29.026C522.679 29.026 523.033 29.5815 523.437 30.6421L523.487 30.7936L523.538 30.8946C523.992 32.0057 524.093 32.6118 523.841 32.7128C521.618 34.0764 519.295 35.238 516.821 36.1471H516.77C516.012 36.3996 514.75 36.6521 512.982 36.9046L512.73 36.9551H511.922C511.568 37.0561 511.366 37.0561 511.366 36.9551C511.265 36.9551 511.164 36.7531 511.164 36.3491C511.013 35.238 510.76 34.2279 510.407 33.3188C510.154 32.7633 510.356 32.4603 510.962 32.3087H511.215C512.932 32.0562 514.649 31.5512 516.467 30.8946C517.78 30.3391 519.043 29.7835 520.356 29.2785H520.507C521.214 29.127 521.82 29.026 522.275 29.026V29.026ZM415.004 23.3695C415.206 23.3695 415.509 23.4705 415.964 23.5715C417.277 23.9755 418.186 24.4806 418.691 24.9856C418.842 25.1371 418.691 25.4907 418.287 25.9957L418.085 26.2482C417.933 26.3997 417.832 26.5513 417.731 26.6523C417.479 26.9048 417.075 27.4603 416.57 28.2684L415.964 29.0765C415.863 29.228 415.762 29.329 415.762 29.329C415.509 29.733 415.711 29.935 416.317 29.935H416.519C416.974 29.935 418.287 29.834 420.458 29.733C421.519 29.9856 421.772 30.8946 421.216 32.3592C421.064 32.7633 420.509 33.0158 419.448 33.1673C419.196 33.3188 418.994 33.3693 418.842 33.3693H418.741C418.337 33.3693 417.58 33.4703 416.519 33.5713H415.913C414.6 33.5713 413.842 33.6724 413.59 33.7734C413.438 33.7734 413.186 34.1269 412.832 34.7835L412.731 34.9855L412.63 35.1875C412.226 35.7935 411.923 36.1976 411.721 36.4501C411.216 36.8541 410.61 36.9046 409.954 36.6521C409.449 35.9956 409.55 35.036 410.358 33.8239C410.509 33.5713 410.509 33.3693 410.358 33.2178H409.752C407.277 33.0663 405.206 33.2683 403.489 33.8239C403.338 33.8239 403.287 34.1774 403.287 34.7835V34.834C403.287 36.3491 403.034 37.0562 402.529 37.0562C402.277 37.2077 401.671 36.5006 400.762 35.036C400.509 34.4804 400.257 34.3289 400.004 34.6319L399.853 34.6824L399.701 34.733C399.196 34.8845 398.59 35.036 397.883 35.238C397.782 35.238 397.58 35.44 397.328 35.7935V35.844C397.075 36.2481 396.772 36.4501 396.368 36.4501C395.964 36.2986 395.61 36.0461 395.206 35.642L395.055 35.44L394.954 35.2885C394.196 34.0259 393.742 33.1168 393.641 32.6118C393.742 32.2077 394.045 32.0057 394.398 32.0057C396.216 31.7532 397.934 31.5007 399.499 31.3997C400.004 31.5512 400.206 31.2482 400.105 30.5916C400.105 30.1876 399.903 29.43 399.499 28.3694L399.449 28.2179L399.398 27.9654C399.196 27.1068 399.095 26.5008 399.095 26.1977C399.247 26.0462 399.752 25.9957 400.661 25.9957C401.418 26.1472 402.226 26.3492 402.984 26.6018C403.388 26.6018 403.59 26.8543 403.59 27.4098C403.742 27.8139 403.641 28.3189 403.439 28.9755V29.026C403.186 29.733 403.034 30.2381 403.034 30.6421C403.034 31.0461 403.287 31.2482 403.792 31.2482H403.843C404.802 31.1472 407.277 31.0461 411.216 31.0461C411.873 31.0461 412.327 30.7936 412.58 30.2381L412.63 30.1371C412.883 29.531 413.539 27.9149 414.549 25.2887L414.6 25.1877L414.65 25.1371C414.852 24.7331 414.954 24.4301 414.954 24.3291C414.802 23.7735 414.853 23.4705 415.004 23.3695V23.3695Z" fill="black"/>
<path d="M66.2719 59.2778L62.282 81.1967H39.6561L38.7471 86.5501H66.2719L71.4738 59.2273H99.8067L98.1906 67.51H74.2515L69.0496 95.2369H37.1309L36.2724 99.7822H73.09L77.8879 72.914H97.433L95.8169 82.0047H81.0696L76.5747 108.469H29.9593L35.0098 81.1462H14L17.9898 59.2273H39.0501L43.949 32.7631H66.6759L69.1001 19.531H107.433L105.817 28.2177H72.2819L69.9082 41.0458H47.1813L46.2722 45.9952H73.898L76.2717 32.7631H105.009L103.392 41.4498H79.0495L76.6758 54.682H44.6561L43.747 59.2273H66.2719V59.2778ZM59.1003 72.914L59.9083 67.51H42.2824L41.2723 72.914H59.1003ZM37.535 67.51H20.7676L19.5555 72.914H36.4744L37.535 67.51Z" fill="#118A3F"/>
</svg>
