<svg width="699" height="128" viewBox="0 0 699 128" fill="none" xmlns="http://www.w3.org/2000/svg">
<path d="M240.278 42.4725L269.163 14H309.003L338.883 41.9728V79.4357C338.883 79.4357 328.922 84.4312 319.958 81.9341C310.497 79.4357 306.513 75.4402 306.513 75.4402V41.9728H272.649V81.9341C272.649 81.9341 289.083 73.9412 299.043 77.9373C309.501 81.9334 320.457 90.925 332.409 87.9276C344.859 84.9308 344.859 79.9353 344.859 79.9353V107.908C344.859 107.908 332.907 114.901 320.955 113.902C309.003 112.904 305.019 107.409 296.055 105.41C287.091 103.412 284.601 103.912 279.123 105.41C273.645 106.909 267.171 110.406 267.171 110.406L239.78 83.4324L240.279 42.4719L240.278 42.4725Z" fill="#D80313"/>
<path d="M387.926 101.549V65.9428C387.926 65.7271 388.101 65.552 388.317 65.552H437.454C437.669 65.552 437.844 65.7271 437.844 65.9428V99.5958C437.844 100.89 436.795 101.939 435.5 101.939H421.11C421.006 101.939 420.907 101.898 420.833 101.825C420.76 101.752 420.719 101.652 420.719 101.549V94.1668C420.719 93.9511 420.894 93.7767 421.11 93.7767H427.461C427.876 93.7765 428.273 93.6118 428.566 93.3188C428.859 93.0257 429.023 92.6283 429.023 92.214V88.7504C429.023 88.6468 428.982 88.5475 428.909 88.4743C428.836 88.401 428.737 88.3597 428.633 88.3595L396.338 88.3582C396.286 88.3581 396.235 88.3682 396.188 88.3878C396.14 88.4074 396.097 88.4362 396.061 88.4725C396.024 88.5088 395.996 88.5519 395.976 88.5993C395.956 88.6468 395.946 88.6977 395.946 88.7491V101.549C395.946 101.653 395.905 101.752 395.832 101.825C395.759 101.898 395.659 101.939 395.556 101.939H388.317C388.213 101.939 388.114 101.898 388.041 101.825C387.967 101.751 387.926 101.652 387.926 101.549ZM508.422 94.0534H512.582C512.996 94.0534 513.394 93.8888 513.687 93.5959C513.98 93.303 514.144 92.9057 514.144 92.4914V72.0019C514.144 71.9506 514.134 71.8998 514.115 71.8524C514.095 71.8049 514.066 71.7619 514.03 71.7256C513.994 71.6893 513.951 71.6605 513.903 71.6408C513.856 71.6212 513.805 71.6111 513.754 71.6111H469.077C468.663 71.6111 468.265 71.4464 467.972 71.1534C467.679 70.8603 467.514 70.4629 467.514 70.0485V32.5961C467.514 32.3797 467.689 32.2053 467.905 32.2053H481.65C481.701 32.2053 481.752 32.1952 481.799 32.1755C481.847 32.1559 481.89 32.1271 481.926 32.0908C481.962 32.0545 481.991 32.0114 482.011 31.964C482.03 31.9166 482.04 31.8658 482.04 31.8145V27.2819C482.04 27.0655 482.215 26.8911 482.431 26.8911H491.3C491.462 26.8911 491.606 26.9901 491.665 27.1403L493.526 31.9554C493.585 32.1063 493.729 32.2046 493.89 32.2046H512.63C512.845 32.2046 513.021 32.3804 513.021 32.5961V58.8765C513.021 60.1709 511.971 61.2201 510.676 61.2201H497.946C497.842 61.2201 497.743 61.1789 497.669 61.1057C497.596 61.0324 497.555 60.9329 497.555 60.8293V53.7997C497.555 53.5833 497.73 53.4082 497.946 53.4082H502.403C502.817 53.408 503.214 53.2434 503.507 52.9505C503.8 52.6576 503.964 52.2604 503.965 51.8462V40.0788C503.965 39.9753 503.924 39.876 503.85 39.8027C503.777 39.7294 503.678 39.6882 503.574 39.688H477.99C477.939 39.688 477.888 39.6981 477.84 39.7178C477.793 39.7374 477.75 39.7662 477.714 39.8025C477.677 39.8388 477.648 39.8819 477.629 39.9293C477.609 39.9767 477.599 40.0275 477.599 40.0788V62.352C477.599 62.7834 477.949 63.1329 478.381 63.1329H522.533C522.749 63.1329 522.924 63.308 522.924 63.5238V99.6889C522.924 100.983 521.875 102.033 520.581 102.033H508.422C508.318 102.033 508.219 101.992 508.146 101.918C508.073 101.845 508.032 101.746 508.032 101.642V94.4435C508.032 94.2278 508.206 94.0534 508.422 94.0534ZM579.066 66.9927H578.21C578.106 66.9927 578.007 67.0338 577.933 67.1071C577.86 67.1804 577.819 67.2798 577.819 67.3835V88.0422C577.819 88.1024 577.833 88.1619 577.86 88.2159C577.886 88.2698 577.925 88.3169 577.973 88.3533C578.021 88.3898 578.077 88.4146 578.136 88.4259C578.195 88.4373 578.256 88.4347 578.315 88.4185L584.557 86.6776C584.615 86.6614 584.676 86.6588 584.735 86.6701C584.794 86.6814 584.85 86.7062 584.898 86.7426C584.946 86.7789 584.985 86.8259 585.012 86.8798C585.039 86.9337 585.053 86.9931 585.053 87.0533V94.6685C585.053 94.8239 584.961 94.9642 584.819 95.0265L569.91 101.544C569.753 101.613 569.583 101.646 569.411 101.642C569.24 101.637 569.071 101.595 568.917 101.519C568.764 101.442 568.629 101.333 568.522 101.198C568.416 101.063 568.34 100.907 568.301 100.74L566.476 93.0317C566.455 92.9425 566.466 92.8486 566.507 92.7666C566.548 92.6846 566.617 92.6197 566.701 92.5832L569.602 91.3275C569.671 91.2972 569.731 91.2472 569.773 91.1836C569.815 91.12 569.837 91.0455 569.837 90.9694V32.2702C569.837 32.0544 570.011 31.8794 570.227 31.8794H601.874C602.09 31.8794 602.264 32.0544 602.264 32.2702V66.6025C602.264 66.7059 602.223 66.805 602.15 66.8782C602.077 66.9513 601.978 66.9925 601.874 66.9927H589.693C589.632 66.9927 589.573 67.0068 589.518 67.034C589.464 67.0611 589.417 67.1005 589.38 67.1491C589.344 67.1976 589.319 67.254 589.309 67.3137C589.298 67.3734 589.301 67.4347 589.318 67.493C589.511 68.1573 589.748 69.1475 590.027 70.4629C590.368 72.0721 591.062 74.6007 592.106 78.0473C592.125 78.1104 592.16 78.1676 592.208 78.2137C592.255 78.2597 592.313 78.293 592.377 78.3105C592.44 78.328 592.507 78.3291 592.571 78.3137C592.636 78.2982 592.695 78.2668 592.744 78.2223L600.924 70.7461C600.964 70.7099 601.01 70.6822 601.061 70.6648C601.112 70.6474 601.166 70.6406 601.219 70.6449C601.273 70.6492 601.325 70.6645 601.372 70.6898C601.42 70.7151 601.461 70.7499 601.495 70.7921L605.726 76.1482C605.787 76.2253 605.817 76.3225 605.809 76.4204C605.801 76.5184 605.757 76.6099 605.685 76.6767L596.503 85.2014C596.437 85.2625 596.395 85.3443 596.382 85.4332C596.369 85.522 596.388 85.6125 596.434 85.6893C597.264 87.071 598.585 88.9156 600.397 91.2258C602.331 93.6914 605.022 95.9092 608.469 97.8797L600.818 102.094C600.516 102.26 600.168 102.322 599.828 102.27C599.488 102.218 599.174 102.055 598.936 101.806C593.51 96.1393 589.677 91.2507 587.435 87.1398C585.185 83.0139 582.917 76.6984 580.633 68.194C580.54 67.8493 580.336 67.5447 580.053 67.3275C579.77 67.1103 579.423 66.9926 579.066 66.9927V66.9927ZM628.461 101.812V70.4635C628.461 70.3903 628.441 70.3185 628.402 70.2565C628.363 70.1944 628.307 70.1445 628.241 70.1125C628.175 70.0805 628.102 70.0677 628.029 70.0755C627.956 70.0833 627.887 70.1114 627.829 70.1566L619.846 76.4354C619.796 76.475 619.736 76.5015 619.673 76.5128C619.61 76.524 619.545 76.5195 619.484 76.4998C619.423 76.48 619.368 76.4456 619.324 76.3995C619.279 76.3534 619.247 76.297 619.229 76.2354L616.76 67.5664C616.738 67.4906 616.74 67.41 616.765 67.3352C616.79 67.2604 616.837 67.195 616.9 67.1474L639.878 49.7675C639.929 49.7289 639.989 49.7034 640.052 49.6934C640.115 49.6833 640.18 49.6889 640.241 49.7096C640.301 49.7304 640.356 49.7658 640.399 49.8126C640.443 49.8594 640.475 49.9162 640.491 49.978L642.662 58.0745C642.683 58.15 642.68 58.2299 642.654 58.3038C642.628 58.3776 642.581 58.4421 642.519 58.4889L636.45 63.0169C636.402 63.0532 636.362 63.1004 636.335 63.1547C636.307 63.209 636.293 63.2689 636.293 63.3297V101.812C636.293 101.915 636.252 102.014 636.178 102.087C636.105 102.161 636.006 102.202 635.902 102.202H628.852C628.749 102.202 628.649 102.161 628.576 102.087C628.503 102.014 628.462 101.915 628.461 101.812V101.812ZM564.766 92.4842C564.766 92.5537 564.748 92.6219 564.712 92.6818C564.677 92.7418 564.627 92.7913 564.566 92.8252L549.172 101.419C549.022 101.503 548.856 101.553 548.684 101.565C548.513 101.577 548.341 101.552 548.18 101.49C548.02 101.428 547.875 101.332 547.756 101.208C547.637 101.084 547.546 100.935 547.491 100.772L544.869 93.0265C544.84 92.9389 544.842 92.8437 544.876 92.7577C544.91 92.6718 544.974 92.6007 545.055 92.557L549.826 90.0055C549.888 89.9721 549.94 89.9224 549.976 89.8618C550.012 89.8011 550.032 89.7318 550.032 89.6612V74.3397C550.031 74.2362 549.99 74.1371 549.917 74.0639C549.844 73.9908 549.745 73.9497 549.641 73.9495H542.032C541.928 73.9495 541.829 73.9083 541.756 73.835C541.682 73.7617 541.641 73.6623 541.641 73.5586V66.8595C541.641 66.6431 541.816 66.4687 542.032 66.4687H549.641C549.745 66.4682 549.844 66.4266 549.917 66.3531C549.99 66.2796 550.031 66.1801 550.03 66.0766L550.005 59.9237C550.004 59.8204 549.963 59.7214 549.89 59.6484C549.817 59.5754 549.718 59.5344 549.614 59.5342H546.193C546.089 59.5342 545.99 59.4931 545.917 59.42C545.843 59.3468 545.802 59.2476 545.802 59.144V56.5473C545.802 56.4714 545.779 56.3973 545.738 56.334C545.696 56.2706 545.637 56.2207 545.567 56.1904C545.498 56.1601 545.421 56.1507 545.346 56.1633C545.271 56.1759 545.202 56.21 545.146 56.2614L541.885 59.2817C541.812 59.3499 541.715 59.3872 541.615 59.3859C541.514 59.3847 541.419 59.3451 541.347 59.2752L535.839 53.8922C535.772 53.827 535.731 53.7403 535.723 53.6476C535.715 53.5549 535.74 53.4624 535.794 53.3866C539.204 48.6042 541.622 44.7924 543.047 41.9503C544.468 39.1195 546.059 34.9457 547.822 29.4289L547.824 29.4242C547.84 29.3755 547.866 29.3305 547.899 29.2918C547.933 29.253 547.974 29.2212 548.02 29.1982C548.066 29.1753 548.116 29.1616 548.167 29.158C548.218 29.1543 548.269 29.1608 548.318 29.177L555.359 31.5246C555.645 31.6201 555.884 31.8226 556.025 32.0898C556.166 32.357 556.198 32.6683 556.115 32.9587L555.045 36.703C555.028 36.7612 555.025 36.8224 555.036 36.8818C555.047 36.9412 555.072 36.9973 555.108 37.0456C555.145 37.0939 555.192 37.1331 555.246 37.1602C555.3 37.1872 555.359 37.2013 555.42 37.2014H565.985C566.038 37.2014 566.091 37.2123 566.14 37.2336C566.189 37.2548 566.233 37.2858 566.27 37.3248C566.306 37.3638 566.334 37.4098 566.352 37.4601C566.371 37.5104 566.378 37.5638 566.375 37.6172L565.973 43.85C565.954 44.1471 565.822 44.4258 565.605 44.6294C565.388 44.833 565.101 44.9464 564.804 44.9465H551.683C551.608 44.9464 551.536 44.9675 551.473 45.0074C551.41 45.0472 551.36 45.1041 551.329 45.1714L548.204 51.8285C548.176 51.888 548.164 51.9537 548.168 52.0193C548.172 52.0849 548.193 52.1484 548.228 52.2039C548.263 52.2594 548.312 52.3051 548.369 52.3368C548.427 52.3685 548.492 52.3852 548.557 52.3852H563.017C563.234 52.3852 563.408 52.5603 563.408 52.7761V57.9722C563.408 58.3865 563.243 58.7838 562.95 59.0767C562.657 59.3696 562.26 59.5342 561.845 59.5342H557.874H557.873C557.822 59.5344 557.771 59.5447 557.723 59.5645C557.676 59.5843 557.633 59.6134 557.597 59.6498C557.561 59.6863 557.532 59.7296 557.512 59.7771C557.493 59.8247 557.483 59.8756 557.483 59.927L557.509 66.0799C557.51 66.1832 557.551 66.2821 557.624 66.355C557.697 66.4278 557.796 66.4687 557.9 66.4687H564.375C564.592 66.4687 564.766 66.6438 564.766 66.8595V72.3868C564.766 72.592 564.726 72.7952 564.647 72.9848C564.569 73.1744 564.454 73.3467 564.308 73.4918C564.163 73.6369 563.991 73.752 563.801 73.8305C563.612 73.9091 563.409 73.9495 563.203 73.9495H557.901C557.798 73.9495 557.698 73.9906 557.625 74.0637C557.552 74.1369 557.51 74.2361 557.51 74.3397V85.8959C557.51 85.963 557.528 86.0289 557.561 86.0873C557.593 86.1458 557.641 86.1948 557.698 86.2296C557.755 86.2645 557.821 86.284 557.888 86.2863C557.955 86.2886 558.021 86.2736 558.081 86.2428L564.196 83.0663C564.255 83.0355 564.322 83.0206 564.389 83.0228C564.456 83.0251 564.521 83.0445 564.578 83.0793C564.635 83.1141 564.683 83.163 564.716 83.2214C564.749 83.2797 564.766 83.3456 564.766 83.4126V92.4842V92.4842ZM655.081 93.1229H663.223C663.638 93.1229 664.035 92.9583 664.328 92.6654C664.621 92.3725 664.786 91.9752 664.786 91.5609V64.0235C664.786 63.9198 664.745 63.8204 664.671 63.7471C664.598 63.6738 664.499 63.6326 664.395 63.6326H646.115C646.011 63.6325 645.912 63.5912 645.839 63.5179C645.766 63.4446 645.725 63.3453 645.725 63.2418V55.5977C645.725 55.3827 645.899 55.2076 646.114 55.2069L685.093 55.1322C685.309 55.1322 685.484 55.3066 685.484 55.5223V63.2418C685.484 63.3454 685.443 63.4448 685.37 63.5181C685.297 63.5914 685.197 63.6326 685.094 63.6326H673.224C673.12 63.6326 673.021 63.6738 672.948 63.7471C672.874 63.8204 672.833 63.9198 672.833 64.0235V99.8581C672.833 101.153 671.784 102.202 670.49 102.202H655.081C654.977 102.202 654.878 102.161 654.805 102.087C654.731 102.014 654.69 101.915 654.69 101.812V93.5137C654.69 93.298 654.865 93.1229 655.081 93.1229V93.1229ZM470.813 101.643C470.813 101.747 470.772 101.846 470.699 101.919C470.626 101.993 470.526 102.034 470.423 102.034H461.784C461.68 102.034 461.581 101.993 461.507 101.919C461.434 101.846 461.393 101.747 461.393 101.643V76.5377C461.393 76.3213 461.568 76.1469 461.784 76.1469H470.423C470.638 76.1469 470.813 76.322 470.813 76.5377V88.7864C470.813 89.0022 470.988 89.1766 471.204 89.1766H478.554C478.658 89.1766 478.757 89.1355 478.831 89.0624C478.904 88.9892 478.945 88.89 478.945 88.7864V76.5371C478.945 76.322 479.12 76.1469 479.336 76.1469H487.322C487.538 76.1469 487.712 76.322 487.712 76.5377V88.7864C487.712 89.0022 487.887 89.1766 488.103 89.1766H497.164C497.267 89.1766 497.367 89.1355 497.44 89.0624C497.513 88.9892 497.555 88.89 497.555 88.7864V76.5371C497.555 76.322 497.73 76.1469 497.946 76.1469H505.146C505.362 76.1469 505.537 76.322 505.537 76.5377V96.2908C505.537 96.3944 505.496 96.4939 505.423 96.5672C505.349 96.6404 505.25 96.6816 505.146 96.6816H471.204C471.1 96.6818 471.001 96.723 470.928 96.7961C470.855 96.8692 470.814 96.9684 470.813 97.0718V101.643V101.643ZM396.336 82.7536L428.632 82.8172C428.735 82.8173 428.835 82.7764 428.908 82.7034C428.982 82.6303 429.023 82.5312 429.023 82.4276V79.8381C429.023 79.7348 428.982 79.6357 428.909 79.5626C428.836 79.4895 428.737 79.4483 428.634 79.4479L396.338 79.3836C396.287 79.3835 396.236 79.3935 396.188 79.413C396.141 79.4325 396.098 79.4612 396.061 79.4974C396.025 79.5337 395.996 79.5768 395.976 79.6242C395.956 79.6716 395.946 79.7225 395.946 79.7738V82.3621C395.946 82.5778 396.121 82.7522 396.336 82.7529V82.7536ZM429.023 73.6583V71.059C429.023 70.9555 428.982 70.8563 428.909 70.783C428.836 70.7098 428.737 70.6685 428.634 70.6681L396.338 70.6157C396.287 70.6155 396.236 70.6254 396.189 70.6449C396.141 70.6644 396.098 70.693 396.062 70.7292C396.025 70.7654 395.996 70.8084 395.976 70.8557C395.957 70.9031 395.946 70.9539 395.946 71.0052V73.6052C395.946 73.821 396.121 73.9954 396.336 73.9961L428.632 74.0485C428.683 74.0486 428.734 74.0386 428.781 74.019C428.829 73.9994 428.872 73.9707 428.908 73.9345C428.945 73.8983 428.974 73.8552 428.993 73.8078C429.013 73.7605 429.023 73.7097 429.023 73.6583ZM379.234 54.8469H407.856C407.96 54.8467 408.059 54.8055 408.132 54.7322C408.206 54.6589 408.247 54.5596 408.247 54.4561V50.599C408.246 50.4956 408.205 50.3964 408.132 50.3233C408.059 50.2502 407.96 50.209 407.856 50.2088H386.414C386.31 50.2088 386.211 50.1676 386.137 50.0944C386.064 50.0211 386.023 49.9216 386.023 49.818V45.4953C386.023 45.2796 386.198 45.1051 386.414 45.1051H407.856C407.96 45.105 408.059 45.0637 408.132 44.9904C408.206 44.9172 408.247 44.8179 408.247 44.7143V41.0828C408.247 40.9793 408.206 40.8799 408.132 40.8067C408.059 40.7334 407.96 40.6921 407.856 40.692H382.197C382.146 40.692 382.095 40.682 382.047 40.6624C382 40.6428 381.957 40.614 381.92 40.5777C381.884 40.5414 381.855 40.4983 381.835 40.4508C381.816 40.4034 381.806 40.3525 381.806 40.3011V35.0984C381.806 34.882 381.981 34.7076 382.196 34.7076H407.856C407.907 34.7076 407.958 34.6975 408.005 34.6779C408.053 34.6582 408.096 34.6294 408.132 34.5931C408.168 34.5568 408.197 34.5138 408.217 34.4663C408.237 34.4189 408.247 34.3681 408.247 34.3168V30.4551C408.247 30.2394 408.422 30.0649 408.637 30.0649H416.836C417.052 30.0649 417.227 30.2394 417.227 30.4551V34.3174C417.227 34.5325 417.402 34.7076 417.617 34.7076H443.776C443.992 34.7076 444.167 34.8827 444.167 35.0984V39.1293C444.167 39.5438 444.002 39.9412 443.709 40.2343C443.416 40.5273 443.019 40.692 442.604 40.692H417.617C417.514 40.6921 417.414 40.7334 417.341 40.8067C417.268 40.8799 417.227 40.9793 417.227 41.0828V44.7143C417.227 44.9301 417.402 45.1051 417.617 45.1051H439.399C439.615 45.1051 439.789 45.2796 439.789 45.4953V49.818C439.789 49.9215 439.748 50.0208 439.675 50.0941C439.602 50.1674 439.503 50.2086 439.399 50.2088H417.119C417.015 50.2088 416.916 50.2499 416.843 50.323C416.769 50.3962 416.728 50.4955 416.728 50.599V54.4561C416.728 54.6725 416.903 54.8469 417.119 54.8469H446.813C447.029 54.8469 447.203 55.022 447.203 55.2378V59.2404C447.203 59.6548 447.039 60.0521 446.746 60.3451C446.453 60.6382 446.056 60.8029 445.641 60.8031H379.234C379.131 60.8031 379.031 60.7619 378.958 60.6886C378.885 60.6153 378.844 60.5159 378.844 60.4122V55.2378C378.844 55.0214 379.019 54.8469 379.234 54.8469V54.8469ZM578.21 60.6857H593.963C594.067 60.6857 594.166 60.6446 594.239 60.5715C594.313 60.4983 594.354 60.3991 594.354 60.2955V54.0489C594.354 53.9453 594.313 53.8461 594.239 53.7729C594.166 53.6998 594.067 53.6587 593.963 53.6587H578.21C578.106 53.6587 578.007 53.6998 577.933 53.7729C577.86 53.8461 577.819 53.9453 577.819 54.0489V60.2955C577.819 60.5113 577.994 60.6857 578.21 60.6857ZM494.993 53.1033C495.054 53.1852 495.08 53.2874 495.066 53.3882C495.052 53.4889 494.999 53.5803 494.919 53.643L489.062 58.2083C488.98 58.2719 488.876 58.3004 488.773 58.2876C488.67 58.2748 488.577 58.2218 488.513 58.1401L480.446 47.7983L480.445 47.797C480.382 47.7152 480.353 47.6116 480.366 47.509C480.379 47.4063 480.432 47.313 480.514 47.2494L486.665 42.4776C486.707 42.4455 486.754 42.422 486.804 42.4085C486.854 42.395 486.907 42.3918 486.959 42.3989C487.01 42.4061 487.06 42.4235 487.105 42.4502C487.15 42.4769 487.189 42.5123 487.22 42.5543L494.993 53.104L494.993 53.1033ZM641 39.8388C641.03 39.9159 641.034 40.0005 641.013 40.0803C640.992 40.1602 640.946 40.2313 640.882 40.2834L621.14 56.3079C621.091 56.3481 621.032 56.3756 620.97 56.3879C620.907 56.4003 620.842 56.3972 620.781 56.3789C620.72 56.3606 620.665 56.3277 620.619 56.2829C620.574 56.2382 620.54 56.1831 620.521 56.1224L617.684 47.1386C617.66 47.0638 617.66 46.9836 617.682 46.9085C617.705 46.8335 617.75 46.7669 617.811 46.7176L637.067 31.1285C637.115 31.0899 637.172 31.0631 637.232 31.0503C637.292 31.0375 637.354 31.0391 637.414 31.055C637.473 31.0708 637.528 31.1005 637.574 31.1415C637.62 31.1826 637.655 31.2338 637.677 31.2912L641 39.8388ZM578.21 46.1117H593.963C594.067 46.1117 594.166 46.0705 594.24 45.9972C594.313 45.9239 594.354 45.8245 594.354 45.7209V39.751C594.354 39.6473 594.313 39.5479 594.24 39.4746C594.166 39.4013 594.067 39.3601 593.963 39.3601H578.21C578.106 39.3601 578.007 39.4013 577.933 39.4746C577.86 39.5479 577.819 39.6473 577.819 39.751V45.7209C577.819 45.9366 577.994 46.1117 578.21 46.1117ZM647.359 42.4441V34.3247C647.359 34.1083 647.534 33.9338 647.75 33.9338H682.043C682.259 33.9338 682.433 34.1089 682.433 34.3247V41.2723C682.433 41.6865 682.269 42.0837 681.976 42.3766C681.683 42.6695 681.286 42.8341 680.871 42.8343H647.75C647.646 42.8343 647.547 42.7932 647.473 42.72C647.4 42.6469 647.359 42.5477 647.359 42.4441V42.4441ZM51.289 65.0287C59.4911 67.0976 65.5627 74.5239 65.5627 83.3693C65.5627 93.8147 57.095 102.282 46.649 102.282H14V32.3607H43.7853C53.2812 32.3607 60.979 40.0585 60.979 49.5544C60.979 56.3604 57.0248 62.2424 51.289 65.0287V65.0287ZM20.8755 40.3844V62.1631H42.0692C48.0824 62.1631 52.9586 57.2876 52.9586 51.2737C52.9586 45.2599 48.0831 40.3844 42.0686 40.3844H20.8748H20.8755ZM20.8755 70.1868V94.2586H44.3604C51.0071 94.2586 56.396 88.8697 56.396 82.223C56.396 75.5757 51.0071 70.1868 44.3604 70.1868H20.8748H20.8755ZM129.583 91.8481C129.918 92.7744 130.53 93.575 131.336 94.1408C132.142 94.7067 133.103 95.0102 134.088 95.0101H139.781V102.282H130.051C126.541 102.282 123.467 100.415 121.768 97.62C117.481 99.8712 112.656 101.136 107.555 101.136C89.7564 101.136 75.328 85.7405 75.328 66.7487C75.328 47.7563 89.7564 32.3607 107.555 32.3607C125.353 32.3607 139.781 47.7563 139.781 66.7481C139.781 76.6498 135.86 85.5739 129.583 91.8481V91.8481ZM107.555 94.2586C121.539 94.2586 132.876 81.9417 132.876 66.7481C132.876 51.5544 121.539 39.2382 107.555 39.2382C93.5703 39.2382 82.2337 51.5551 82.2337 66.7481C82.2337 81.9417 93.5703 94.2586 107.555 94.2586ZM154.625 32.3607H181.969C197.501 32.3607 210.094 44.9523 210.094 60.4857V74.158C210.094 89.6907 197.501 102.283 181.969 102.283H154.625C154.522 102.283 154.421 102.263 154.326 102.223C154.231 102.184 154.145 102.127 154.072 102.054C154 101.981 153.942 101.895 153.903 101.8C153.864 101.706 153.844 101.604 153.844 101.501V33.1417C153.844 32.7102 154.193 32.3607 154.625 32.3607ZM162.661 40.3844C162.23 40.3844 161.879 40.7339 161.879 41.1654V93.4776C161.879 93.9091 162.23 94.258 162.661 94.258H180.821C191.282 94.258 199.762 85.7785 199.762 75.3174V59.3257C199.762 48.8645 191.282 40.3844 180.821 40.3844H162.661V40.3844Z" fill="#231815"/>
</svg>
