<svg width="128" height="128" viewBox="0 0 128 128" fill="none" xmlns="http://www.w3.org/2000/svg">
<path d="M21.9 46.55L45.25 23.5H77.5L101.65 46.15V76.5C101.65 76.5 93.6 80.55 86.35 78.5C78.7 76.5 75.45 73.25 75.45 73.25V46.15H48.1V78.5C48.1 78.5 61.4 72.05 69.45 75.25C77.9 78.5 86.75 85.75 96.45 83.35C106.5 80.9 106.5 76.9 106.5 76.9V99.55C106.5 99.55 96.85 105.2 87.15 104.4C77.5 103.6 74.25 99.15 67 97.5C59.75 95.9 57.75 96.3 53.3 97.5C48.85 98.7 43.65 101.55 43.65 101.55L21.5 79.75L21.9 46.55Z" fill="#D80313"/>
</svg>
