<svg width="128" height="128" viewBox="0 0 128 128" fill="none" xmlns="http://www.w3.org/2000/svg">
<path d="M69.7815 46.4588C71.3275 59.6158 68.0705 69.6443 64 76.2158C59.93 82.7868 49.587 88.1433 44.047 94.7073L45.515 94.5453C47.747 94.3138 50.727 94.1368 56.822 94.7073C63.5305 95.3348 73.5295 102.324 80.962 102.972C75.7665 105.236 70.03 106.492 64 106.492C40.528 106.492 21.5 87.4643 21.5 63.9923C21.5 43.1673 36.478 25.8403 56.249 22.1973C64.2715 29.8623 68.782 37.9493 69.7815 46.4588Z" fill="#015CAA"/>
<path d="M63.9998 21.4919C87.4718 21.4919 106.5 40.5199 106.5 63.9919C106.5 75.7249 101.745 86.3479 94.0578 94.0384C88.3398 92.9959 83.4083 91.6069 79.2638 89.8714L78.8648 89.7024C71.1028 86.3694 63.1218 84.7624 56.8218 86.3694C63.1803 82.2609 72.3663 83.0184 81.4128 72.5069C90.4598 61.9954 90.4598 42.3964 81.4128 33.1909C74.7768 26.4379 65.5463 23.0169 60.0628 21.6729C61.3716 21.552 62.6854 21.4916 63.9998 21.4919Z" fill="#138B39"/>
</svg>
