<svg width="128" height="128" viewBox="0 0 128 128" fill="none" xmlns="http://www.w3.org/2000/svg">
<path d="M62.3 21.6005C62.3 21.6005 68.55 20.6505 74.05 25.6505L104.3 54.9005C104.3 54.9005 90.15 49.6505 73.8 48.8505C57.5 48.0505 54.75 48.5005 54.75 48.5005L62.3 21.6005Z" fill="#FFAD19"/>
<path d="M24.6499 53.7498C42.4999 36.2998 52.1499 26.8498 53.6499 25.5498C55.8999 23.5498 59.3999 21.5498 62.2999 21.5998L54.7499 48.4998C54.7499 48.4998 33.7499 48.9998 24.6499 53.7498Z" fill="#FF962D"/>
<path d="M54.7503 48.5L47.3503 72.95C47.3503 72.95 29.9503 68.6 23.6003 61.4C17.3003 54.2 30.4002 51.45 32.1002 51.1C33.8002 50.8 42.4503 48.85 54.7503 48.5Z" fill="#E16421"/>
<path d="M104.3 72.9493L74.2501 102.349C74.2501 102.349 68.5001 106.299 65.6001 106.299L73.1501 79.3493C73.2001 79.3493 95.2001 77.6993 104.3 72.9493Z" fill="#187DC0"/>
<path d="M73.2002 79.3493L79.5502 56.1993C79.5502 56.1993 98.1502 58.8493 104.65 66.1493C111.15 73.4494 97.1502 75.6994 94.5002 76.2994C91.9002 76.9494 84.5002 78.4993 73.2002 79.3493Z" fill="#0B5AA4"/>
<path d="M53.8501 102.199C50.1501 98.8493 40.1001 89.0993 23.6001 72.9493C23.6001 72.9493 37.7501 78.1993 54.1001 78.9993C70.4001 79.7993 73.1501 79.3493 73.1501 79.3493L65.6001 106.299C65.6501 106.299 59.4001 107.199 53.8501 102.199Z" fill="#1F8FCE"/>
</svg>
