<svg width="128" height="128" viewBox="0 0 128 128" fill="none" xmlns="http://www.w3.org/2000/svg">
<path d="M64 106.5C40.55 106.5 21.5 87.45 21.5 64C21.5 40.55 40.55 21.5 64 21.5C87.45 21.5 106.5 40.55 106.5 64C106.5 87.45 87.45 106.5 64 106.5ZM64 101.45C84.75 101.45 101.6 84.7 101.6 64C101.6 43.3 84.75 26.55 64 26.55C43.25 26.55 26.4 43.35 26.4 64C26.4 84.65 43.25 101.45 64 101.45ZM80.3 64.75C82.55 64.7 84.4 64.6 84.4 61.8C81.4 54.55 76.05 60.1 78.75 63.9C79.25 64.2 79.75 64.45 80.3 64.75ZM70 79.4C70.65 77.65 70.8 76.85 70.1 75.4C68.9 75.3 68.05 75.65 67 75.85C66.25 75.85 58.85 75.35 58.1 76.1C56.85 79.4 60.65 80.7 63.2 81.25C65.15 81.05 68.45 81.05 70 79.4ZM48.5 66.5C49.85 66.05 51 65.65 51.7 64.3C51.7 62.5 50.8 61.05 49.8 60C48.05 59.85 45.65 61.5 45.65 63.3C46.3 64.2 47.2 66 48.5 66.5ZM81.65 52C85.7 54.3 91.1 59.1 93 63.7C93 65.4 92.45 68.2 90.15 68.2C87.65 67.1 87.55 67.9 85.95 69.8C84.3 73.15 84.6 75.5 85.15 79.3C85.3 81.95 86.05 84.75 86.05 87.5C84.65 89.05 82.25 91.1 80.3 91.5C79.7 90.9 79.85 90.5 79.7 90L79.55 73.75C79.15 72.55 77.75 69.25 76.2 70C76.05 70.25 75.95 70.55 75.85 70.8C75.8 74.95 76.1 79.8 73.7 83.55C69.8 86.7 64.1 87.2 59.45 86.1C54.25 83.7 54.05 82.6 53.05 77.15L52.9 71.5C52.65 71.25 52.4 71.05 52.15 70.85C49.4 71.55 49.7 76.55 49.25 78.9C47.85 83.35 44.8 87.7 40.65 90.1H39.75C38.25 89.1 38.7 83.1 39.1 82C41.8 79.55 41.8 79.55 42.35 78.9C45.2 73.85 46 70 41.5 66C38.45 64.5 37.8 68.35 35.25 67.4C33.75 65.45 33.4 65.2 34.35 63.25C38.1 58.95 44.4 52.2 50.5 52.2C50.85 52.4 51.2 52.55 51.55 52.75C52.55 54.4 53.65 55.85 57.35 62C57.85 64.6 56.85 67.15 58 69.75C61.2 71.35 66.15 71.05 69.65 70.05C71.85 68.25 71.2 66.35 71.1 63.9C72.05 59.85 74.55 55.25 77.35 52.35C79.35 51.2 79.55 51.35 81.65 52ZM65.6 52.75C67.8 51.45 68.75 49 68.15 46.7C66.95 45.5 61.8 46.15 60.3 46.6C59.6 48.75 61.1 52.05 63.45 53.05C64.6 53 64.6 53 65.6 52.75ZM90.95 42.8C92.3 43.35 92.3 43.35 92.65 43.6V44.2C90.65 45.45 88.7 46.25 86.65 47.1C83.05 47.3 78.85 45.4 76 47.55C73.6 50.9 71.45 54.6 69.05 58.1C66.95 59.5 66.1 59.6 63.7 59.95C57.35 58.5 56.9 53.65 53.9 48.4C53.65 48.15 53.45 47.9 53.2 47.65C49.7 46.6 44.85 47.7 41.45 48.25C40.45 48.25 39.55 48.3 38.75 48C37 45.65 37.85 43.8 39.4 41.8C39.9 41.65 39.9 41.65 48 41.4C51.15 41 54.5 40.9 57.85 40.4C59.75 39.5 59.45 37.6 60.1 36C62.55 34.25 67.5 34.75 69.05 37.8C69.4 39.6 69.1 40 71 40.55C77.85 40.7 84.05 41.3 90.95 42.8Z" fill="#E50113"/>
</svg>
