<svg width="128" height="128" viewBox="0 0 128 128" fill="none" xmlns="http://www.w3.org/2000/svg">
<path d="M65 104H47.5L56.25 89L65 104ZM100 104H82.5L91.25 89L100 104ZM24 24H104V68.95L94.4 52.3C93.8 51.2 92.65 50.6 91.5 50.6C90.35 50.6 89.25 51.2 88.6 52.3L76.1 73.95C75.2 75.55 75.75 77.6 77.3 78.5C78.9 79.4 80.95 78.9 81.85 77.25L91.45 60.6L101.05 77.25C101.65 78.3 102.8 78.95 103.95 78.95V97.3L94.35 80.65C93.75 79.55 92.6 79 91.45 79C90.3 79 89.2 79.6 88.55 80.65L76.05 102.3C75.75 102.85 75.6 103.4 75.6 103.95H72.25C72.25 103.4 72.1 102.8 71.8 102.3L59.3 80.65C58.7 79.55 57.55 79 56.4 79C55.25 79 54.15 79.6 53.5 80.65L41 102.3C40.7 102.85 40.55 103.4 40.55 103.95H24V24ZM56.25 60.6L65.8 77.35C66.7 78.95 68.75 79.5 70.35 78.6C71.95 77.65 72.5 75.6 71.55 74L59.1 52.2C58.5 51.1 57.35 50.5 56.2 50.5C55.05 50.5 53.95 51.1 53.35 52.2L40.9 74C40 75.6 40.5 77.65 42.1 78.6C43.7 79.55 45.7 79 46.65 77.35L56.25 60.6Z" fill="#F4A21C"/>
</svg>
