<svg width="128" height="128" viewBox="0 0 128 128" fill="none" xmlns="http://www.w3.org/2000/svg">
<path fill-rule="evenodd" clip-rule="evenodd" d="M76.0893 63.876C76.0893 70.6609 70.6112 76.161 63.8538 76.161C57.0959 76.161 51.6182 70.6609 51.6182 63.876C51.6182 57.0903 57.0959 51.5906 63.8538 51.5906C70.6112 51.5906 76.0893 57.0903 76.0893 63.876Z" fill="url(#paint0_radial_63_12618)"/>
<path fill-rule="evenodd" clip-rule="evenodd" d="M100.218 52.866C99.2182 33.7619 79.3281 16.0066 53.5215 23.1547L53.5216 23.1547C53.5677 23.151 67.9365 22.0124 79.1056 31.81C90.9482 42.197 97.0586 62.7479 80.9698 81.4837C80.9698 81.4837 101.381 75.1033 100.218 52.866ZM65.4226 26.5475C47.2261 20.8769 23.7513 33.4692 21.5 60.2534C21.5 60.2534 25.4003 46.2896 38.4411 39.1477C52.2456 31.5874 73.5629 32.9434 85.5018 54.5831C85.5018 54.5831 86.6044 33.1478 65.4226 26.5475ZM100.395 42.769C114.221 65.8827 102.663 90.0669 84.6945 96.2682C63.7776 103.486 52.1489 85.4032 52.1489 85.4032C74.4022 95.904 92.366 84.3416 99.0711 69.9935C105.406 56.4392 100.395 42.769 100.395 42.769ZM40.8713 93.4685C52.153 108.924 78.555 112.858 96.3094 92.674C96.3094 92.674 84.8571 101.564 70.1026 99.496C54.4841 97.3075 38.1207 83.4516 41.3834 58.9046C41.3834 58.9046 27.7379 75.4774 40.8713 93.4685ZM46.9741 103.497C22.2894 93.0945 17.5901 66.7918 28.5683 51.1572C41.3471 32.9572 61.3184 40.6138 61.3184 40.6138C37.136 45.3513 29.2845 65.297 32.1956 80.8119C34.9452 95.4692 46.9741 103.497 46.9741 103.497Z" fill="url(#paint1_radial_63_12618)"/>
<defs>
<radialGradient id="paint0_radial_63_12618" cx="0" cy="0" r="1" gradientUnits="userSpaceOnUse" gradientTransform="translate(63.8538 63.8758) rotate(90) scale(32.9882 32.8551)">
<stop stop-color="#FFF100"/>
<stop offset="0.214824" stop-color="#FDDE01"/>
<stop offset="1" stop-color="#E60012"/>
</radialGradient>
<radialGradient id="paint1_radial_63_12618" cx="0" cy="0" r="1" gradientUnits="userSpaceOnUse" gradientTransform="translate(64.0002 64) rotate(90) scale(42.462 42.5002)">
<stop stop-color="#FFF100"/>
<stop offset="0.429548" stop-color="#FFF100"/>
<stop offset="1" stop-color="#E60012"/>
</radialGradient>
</defs>
</svg>
