<svg width="413" height="128" viewBox="0 0 413 128" fill="none" xmlns="http://www.w3.org/2000/svg">
<path d="M151.877 64.2266H167.389V50.5971H151.877V64.2266ZM151.877 45.6649H167.389V32.7508H151.877V45.6649ZM138.699 32.4873C138.662 30.7177 138.549 29.1364 138.436 27.7057C138.323 26.2749 138.285 25.296 138.36 24.7313C138.436 24.1665 138.624 23.8276 138.925 23.6394C139.226 23.4511 140.055 23.6017 141.485 24.0912L151.99 27.8186H167.201C168.669 25.409 169.761 24.1289 170.552 23.903C171.606 23.677 174.015 24.3924 177.743 26.049C181.47 27.7057 183.428 28.8728 183.692 29.4376C183.918 30.2282 182.901 31.5836 180.642 33.4662V66.6739L181.018 71.832C180.04 73.8651 177.517 74.9946 173.451 75.1452C169.384 75.2958 167.201 74.8064 166.975 73.6015L167.125 71.3425L167.351 69.0459H152.141C152.141 69.6859 152.178 70.2507 152.291 70.7778C152.404 71.3049 152.404 71.6814 152.366 71.9449C152.178 72.6603 151.312 73.3756 149.806 74.091C148.3 74.8064 146.192 75.2205 143.519 75.2958C140.808 75.3711 139.302 75.2205 139.001 74.844C138.699 74.4675 138.473 74.091 138.398 73.6769L138.85 66.9374V32.4873H138.699ZM242.991 66.1091L241.749 64.7161C241.372 64.3395 241.146 64.0383 241.071 63.7748C240.996 63.5112 241.184 63.1724 241.636 62.7206C242.125 62.2688 242.803 62.1935 243.706 62.4947L246.041 63.2853C251.726 65.2055 254.851 67.3139 255.416 69.6483C255.98 71.9826 256.018 73.6015 255.529 74.5805C255.039 75.4841 254.136 76.2747 252.893 76.8771C251.651 77.4795 250.371 77.6678 249.015 77.4042C247.773 77.216 246.907 76.7642 246.38 76.1241C245.853 75.4464 245.551 74.6558 245.476 73.6769L245.137 69.8365C244.949 69.2717 244.61 68.6317 244.158 67.8787C243.706 67.1633 243.292 66.5609 242.991 66.1091V66.1091ZM233.691 54.2492H242.502V50.183H233.691V54.2492ZM227.743 66.9751L226.801 65.6573C226.575 65.4314 226.425 65.1302 226.387 64.7537C226.35 64.3772 226.538 64.0007 226.952 63.6242C227.366 63.21 228.044 63.1724 228.985 63.4359L231.357 64.2266C233.39 64.9043 235.009 65.8832 236.214 67.1633C237.381 68.4434 238.097 69.6483 238.322 70.7778C238.548 71.9073 238.36 72.9615 237.758 73.9404C237.155 74.9193 236.214 75.6347 234.972 76.0865C233.729 76.5383 232.449 76.5006 231.169 76.0112C230.265 75.7476 229.588 75.2958 229.136 74.6558C228.684 74.0533 228.458 73.3756 228.533 72.6603L228.797 70.7401C228.797 70.213 228.684 69.573 228.496 68.7823C228.27 68.0293 228.044 67.3892 227.743 66.9751ZM215.469 62.5323L217.502 63.4736C219.045 64.2266 220.664 65.5067 222.359 67.3139C224.053 69.1211 224.542 70.7778 223.902 72.2838C223.225 73.7898 222.396 74.844 221.342 75.4088C220.288 75.9735 219.121 76.1241 217.803 75.9359C216.485 75.71 215.506 75.2582 214.942 74.5428C214.339 73.8275 214.113 72.9615 214.188 71.8696L214.527 69.8741C214.565 69.347 214.565 68.6317 214.49 67.7281C214.414 66.8245 214.226 66.1091 213.925 65.6196L213.021 64.3019C212.795 64.0007 212.682 63.6618 212.72 63.3606C212.758 63.0594 212.984 62.7206 213.398 62.4194C213.812 62.0805 214.49 62.1182 215.469 62.5323V62.5323ZM209.106 52.2161H211.515V44.1212H209.106V52.2161ZM209.106 39.3773H211.515V31.4707H209.106V39.3773ZM227.893 30.3035L225.107 30.5294L222.773 25.8608L226.312 26.162H242.84C243.481 25.296 244.045 24.4677 244.572 23.7147C245.1 22.9617 245.589 22.5475 246.041 22.4722C246.831 22.3593 248.526 23.037 251.199 24.5807C253.872 26.0867 255.19 27.2538 255.19 28.0068C255.152 28.4587 254.399 29.2117 253.006 30.3035C252.441 33.7297 251.801 36.2899 251.048 37.9842C250.295 39.6785 249.392 40.7704 248.3 41.2975C247.208 41.8246 246.003 42.2011 244.723 42.3517C243.443 42.5023 242.464 42.5399 241.824 42.4646C241.033 42.427 240.619 42.2387 240.506 41.9375C240.393 41.6363 240.356 41.1845 240.356 40.5821C240.393 40.0173 240.356 39.5655 240.318 39.302C240.092 38.436 239.565 37.796 238.737 37.3818L237.306 36.7794C237.042 36.7041 236.816 36.5535 236.666 36.4029C236.515 36.2147 236.44 35.8758 236.478 35.311C236.515 34.7839 236.929 34.5204 237.72 34.558L239.565 34.671C240.28 34.7463 240.958 34.7463 241.598 34.671C242.238 34.5957 242.652 34.2192 242.84 33.5791C243.029 32.9391 243.142 32.3366 243.179 31.7342L243.255 30.3035H238.548C238.511 30.3788 238.473 30.4541 238.473 30.4918L237.795 32.412C237.08 34.2568 235.988 36.0264 234.52 37.796C233.051 39.5279 230.529 41.3728 226.952 43.3306L232.75 45.552H242.313C243.405 43.7447 244.196 42.8035 244.685 42.6905C245.551 42.5399 247.396 43.18 250.182 44.686C252.968 46.1544 254.437 47.1709 254.587 47.698C254.625 48.2251 253.91 49.1288 252.479 50.4465V52.9691L252.893 59.5203C252.102 60.8757 250.371 61.6287 247.584 61.817C244.836 61.9676 243.368 61.8923 243.217 61.5911C243.066 61.2899 242.991 60.6874 242.991 59.7838V59.0685H233.691V60.085C233.691 60.2733 233.503 60.4992 233.127 60.7627C232.524 61.2522 231.884 61.5534 231.207 61.6664L228.759 62.2688C228.157 62.3817 227.404 62.4194 226.5 62.3817C225.258 62.3817 224.542 62.2688 224.316 62.0052C224.091 61.7417 223.94 61.3651 223.827 60.9133L224.166 53.7598V48.564L223.902 44.4978C222.81 44.9496 222.02 45.1378 221.493 45.1002V51.2748L221.907 58.3531C221.191 59.7838 219.384 60.6121 216.523 60.8004C213.661 60.9886 212.118 60.8757 211.929 60.4615C211.741 60.0474 211.666 59.445 211.666 58.6543V57.1107H209.068V57.4872C209.068 58.7673 208.993 59.5579 208.842 59.8968C208.692 60.2356 207.901 60.6121 206.508 61.064C205.115 61.5158 203.496 61.7417 201.689 61.704C200.408 61.704 199.655 61.5911 199.392 61.3275C199.128 61.1016 198.978 60.7251 198.865 60.198L199.279 52.2914V30.4918L198.94 23.6394C199.015 22.9617 199.731 22.8864 201.048 23.4511L208.014 26.6891H210.951C212.457 24.5054 213.511 23.3382 214.076 23.2629C214.942 23.1499 216.711 23.79 219.384 25.2207C222.057 26.6514 223.488 27.7056 223.639 28.421C223.714 28.9105 222.999 29.9647 221.455 31.6589V41.8999C222.697 40.8833 223.714 39.942 224.505 39.0384C225.295 38.1348 226.011 36.8171 226.613 35.1228C227.216 33.4285 227.705 31.8848 227.893 30.3035V30.3035ZM204.926 65.1678L205.454 63.8501C205.755 63.0971 206.395 62.7959 207.298 62.9465C207.788 63.0594 208.089 63.21 208.164 63.4359C208.24 63.6242 208.277 63.8877 208.353 64.2266L208.503 65.9585C208.579 67.4645 208.503 68.9329 208.202 70.3636C207.901 71.7943 207.073 73.4133 205.679 75.2205C204.286 77.0277 202.178 77.6678 199.279 77.103C196.832 76.6512 195.439 75.6347 195.137 73.9781C194.836 72.3214 195.024 71.1543 195.702 70.4389C196.003 70.1 196.38 69.8742 196.832 69.7236C197.246 69.573 198.262 69.2718 199.844 68.7823C201.425 68.3305 202.592 67.6904 203.42 66.9374C204.249 66.1468 204.776 65.582 204.926 65.1678V65.1678ZM307.599 64.3772C307.26 63.6618 306.846 62.3064 306.357 60.2356C305.867 58.2025 305.491 55.9811 305.303 53.6092C305.114 51.2372 304.964 49.8818 304.851 49.5429C304.775 49.2041 304.738 48.9781 304.775 48.8652V48.564H302.215V65.582C305.039 64.7913 306.809 64.3772 307.599 64.3772V64.3772ZM302.215 44.1965H311.477V39.2267H302.215V44.1965ZM302.215 35.0475H311.477V30.1906H302.215V35.0475ZM291.372 61.5911V55.7176H283.691V63.5865C284.52 63.2477 285.122 62.9465 285.536 62.7582L287.607 61.7417L289.113 61.1016C290.242 60.6874 290.958 60.838 291.372 61.5911V61.5911ZM291.372 52.1408V37.6454L290.958 37.7207H276.425C275.182 39.4149 274.09 40.808 273.111 41.8622H281.244C283.654 40.0927 285.047 39.189 285.461 39.189C285.875 39.1514 286.364 39.3396 286.892 39.6785C288.322 40.6951 289.414 41.8246 290.167 43.0294C290.92 44.2342 291.221 45.1002 291.108 45.552C290.958 46.0038 290.657 46.2297 290.129 46.2297H283.729V51.1242C285.122 49.43 286.251 48.564 287.155 48.564C288.059 48.5263 289.452 49.7312 291.372 52.1408V52.1408ZM316.635 61.7417C319.158 64.4901 322.509 66.6362 326.65 68.1422L328.495 68.8576C329.06 69.0835 329.324 69.5353 329.361 70.1754C329.399 70.8154 328.909 71.3049 327.931 71.6061L326.199 72.2085C325.747 72.3591 324.994 72.8109 323.94 73.5262C322.885 74.2416 322.132 75.1076 321.643 76.0865C321.153 77.103 320.777 77.6678 320.513 77.8184C320.25 77.969 319.798 77.969 319.196 77.856C317.614 77.6301 315.769 76.2747 313.623 73.8651C311.477 71.4555 309.821 69.0458 308.653 66.6739C308.503 66.8621 308.39 67.0504 308.277 67.1633C308.164 67.3139 307.788 67.6528 307.11 68.1799C306.432 68.707 305.491 69.6106 304.211 70.8531C302.931 72.1332 301.839 73.1874 300.935 74.0534C300.032 74.9193 299.429 75.5217 299.128 75.8229L297.885 77.1407C297.471 77.5925 297.132 77.8937 296.869 78.0443C296.605 78.2325 296.229 78.1949 295.664 78.0067C295.288 77.9314 294.911 77.4795 294.497 76.6889L291.824 73.1874C291.598 72.9615 291.184 72.3214 290.581 71.3425C289.979 70.3636 289.715 69.6483 289.828 69.2717C289.828 69.2341 289.979 68.9705 290.28 68.4434C290.581 67.9163 290.845 67.201 291.033 66.2974C291.221 65.3561 291.334 64.6784 291.334 64.2642V63.0218L291.184 63.21L289.527 64.9796C289.151 65.3561 288.021 66.6739 286.063 68.8576C284.143 71.0413 282.298 72.9992 280.604 74.6934L279.098 76.2371C278.721 76.6136 278.42 76.8018 278.119 76.7642C277.441 76.7642 276.575 76.0112 275.559 74.4675L273.337 71.2296C272.245 69.573 271.756 68.4811 271.944 67.9916C272.509 67.1633 272.81 66.2221 272.848 65.2055L273.036 55.7176H269.798L266.485 56.0188L263.925 51.0489L267.803 51.3878H273.036V46.2673L270.212 46.4932L269.723 45.552C269.572 45.6649 269.497 45.7402 269.459 45.7779L268.066 47.1333L265.996 48.9782C265.807 49.1664 265.393 49.317 264.753 49.3547C264.113 49.43 263.736 49.2041 263.661 48.7523C263.586 48.3004 263.586 47.9239 263.661 47.6604L264.753 45.552C265.092 44.8743 265.657 43.4059 266.523 41.1845C267.389 38.9255 268.104 36.93 268.669 35.1981C269.233 33.4285 269.685 31.9225 269.949 30.6424C270.212 29.3623 270.627 27.4797 271.116 24.9572L271.53 22.7734V22.171C271.605 21.8698 271.982 21.7192 272.584 21.7569C274.467 21.9075 277.065 22.3969 280.416 23.1876C283.767 23.9783 285.423 24.8066 285.423 25.6349C285.386 26.162 284.444 26.802 282.675 27.5927C281.47 29.6635 280.378 31.5836 279.437 33.2779H282.261C284.331 31.0942 285.649 30.04 286.251 30.04C286.854 30.0776 287.569 30.3788 288.435 30.9812C289.301 31.5836 290.28 32.6379 291.447 34.0686V29.7388C291.447 24.9948 291.523 22.5852 291.711 22.4346C291.899 22.284 292.765 22.5099 294.346 23.1123L301.462 25.8231H311.214C312.908 23.7524 314 22.6228 314.452 22.5099C315.431 22.284 317.275 22.8864 320.062 24.3548C322.81 25.8231 324.241 26.915 324.354 27.5927C324.354 28.1198 323.676 28.9858 322.358 30.1906L322.434 42.1258L322.697 48.4511C321.906 49.4676 320.212 50.1453 317.577 50.4465C315.92 50.5971 314.678 50.6348 313.849 50.5218C312.381 50.3712 311.628 49.8818 311.628 49.0911V48.564H309.557C309.708 48.9405 310.159 50.2206 310.912 52.329C311.666 54.4375 312.569 56.207 313.623 57.6754C314.791 56.5459 315.581 55.6423 315.995 55.0022C316.447 54.3622 316.899 53.6092 317.351 52.7432L318.028 51.4254L318.254 50.823C318.631 50.183 319.459 50.2583 320.815 51.0113C323.902 52.7808 325.822 54.1739 326.575 55.1905C327.328 56.207 327.554 56.96 327.253 57.3742C326.952 57.826 325.973 57.939 324.316 57.7884C320.965 59.8215 318.443 61.1392 316.635 61.7417V61.7417ZM366.522 31.8095L362.945 32.1107L359.933 26.7267L364.828 27.1409H381.319C382.185 26.3126 383.164 25.3713 384.18 24.3171C385.197 23.2629 386.176 22.6981 387.042 22.6605C387.494 22.6605 388.096 22.8864 388.736 23.3005C389.414 23.7523 390.619 24.9195 392.35 26.802C394.082 28.7222 394.873 30.04 394.722 30.7177C394.572 31.433 394.045 31.7719 393.103 31.7719H366.522V31.8095ZM356.545 29.5505C349.73 34.8592 344.421 38.3984 340.543 40.2056L338.247 41.2598C336.854 41.8999 335.912 41.9375 335.385 41.3728C334.858 40.808 334.971 40.2056 335.649 39.4902L337.381 37.7583C338.699 36.5158 340.393 34.4451 342.501 31.6213C344.61 28.7975 346.153 26.5385 347.132 24.8819L348.186 23.1123L348.827 21.7945C349.052 21.418 349.354 21.1545 349.692 21.0792C350.031 21.0039 350.634 21.1921 351.462 21.6816C353.646 22.9993 355.378 24.0912 356.62 25.0325C357.863 25.9737 358.729 26.7267 359.218 27.2915C359.67 27.8562 359.82 28.3457 359.632 28.7222C359.331 29.4376 358.277 29.7011 356.545 29.5505V29.5505ZM360.724 40.3186L364 40.5445H386.063C386.929 39.7538 387.908 38.8125 389 37.7207C390.054 36.6288 390.92 36.1017 391.522 36.064C392.125 36.0264 392.765 36.2523 393.48 36.6665C394.233 37.1936 395.438 38.3984 397.094 40.3186C398.789 42.2387 399.542 43.5188 399.391 44.2342C399.24 44.9119 398.751 45.2508 397.847 45.2508H390.016C389.64 45.9285 389.075 46.4556 388.284 46.8321V71.719C388.284 72.7732 388.058 73.7145 387.606 74.4675C387.155 75.2205 385.875 75.8982 383.729 76.463C381.582 77.0277 379.512 77.3666 377.479 77.5172C375.445 77.6678 374.203 77.5925 373.676 77.2913C373.337 77.1407 373.111 76.9524 372.998 76.7265C372.885 76.5006 372.81 76.0112 372.772 75.2205C372.735 74.4299 372.509 73.6769 372.057 72.9238C371.605 72.1708 370.589 71.4931 369.007 70.9284L366.974 70.213C366.56 70.1001 366.221 69.9118 365.995 69.6483C365.769 69.3847 365.769 69.0082 365.957 68.4811C366.183 67.954 366.673 67.7281 367.464 67.7281L369.195 67.841C370.137 67.9163 370.814 67.954 371.229 67.954L372.96 68.0293C375.182 68.1799 376.311 67.7657 376.311 66.7115L376.236 45.2508H365.543L361.967 45.552L359.82 41.6363C359.557 41.8246 358.842 42.0505 357.712 42.2764C357.336 42.8035 357.072 43.1423 356.959 43.3306L355.415 44.9119L354.022 46.3803C355.415 47.0203 356.281 47.4721 356.658 47.698C356.997 47.9616 357.223 48.2628 357.336 48.6769C357.411 49.0534 356.884 49.6559 355.717 50.4089V70.1001L356.055 75.2958C355.867 75.7853 355.604 76.1618 355.302 76.463C354.964 76.7642 354.06 77.0654 352.592 77.2913C351.086 77.5172 349.768 77.6302 348.601 77.6302C346.229 77.7055 344.873 77.5925 344.497 77.2913C344.158 76.9901 343.932 76.5759 343.819 76.0865L344.158 69.7612L344.233 53.9104C342.388 55.2658 340.619 56.3953 338.924 57.3365L336.891 58.5037C336.327 58.8049 335.724 58.9555 335.122 58.9179C334.482 58.8802 334.068 58.579 333.917 58.0519C333.729 57.5248 333.691 57.1483 333.729 56.96C333.804 56.7718 333.992 56.5082 334.331 56.207L335.95 54.6257C338.284 52.2914 340.468 49.6559 342.539 46.7191C344.61 43.7824 346.153 41.2222 347.17 39.0761L348.074 37.0806L348.714 35.6122C348.939 35.3863 349.278 35.1981 349.692 35.0851C350.709 34.8969 352.667 35.5369 355.566 36.9677C358.616 38.5113 360.272 39.6032 360.724 40.3186V40.3186ZM293.443 98.3002C293.254 98.2626 293.104 98.225 292.991 98.225H292.087V103.684C292.087 104.061 292.125 104.4 292.2 104.663C292.276 104.964 292.351 105.153 292.464 105.303C292.577 105.454 292.727 105.604 292.878 105.717C293.066 105.83 293.179 105.906 293.292 105.906L293.744 105.981C293.857 106.019 293.97 106.056 294.083 106.132C294.196 106.207 294.271 106.32 294.309 106.508C294.346 106.696 294.271 106.847 294.158 106.922C294.045 106.997 293.894 107.035 293.782 107.035H285.724C285.574 107.035 285.461 106.998 285.348 106.885C285.235 106.809 285.197 106.621 285.273 106.357C285.31 106.244 285.385 106.132 285.461 106.132L285.687 106.056L286.026 105.943C286.176 105.906 286.327 105.83 286.44 105.717C286.553 105.604 286.703 105.491 286.816 105.266C286.929 105.077 287.042 104.851 287.117 104.55C287.193 104.287 287.23 103.985 287.23 103.647V92.1256C287.23 91.6361 287.193 91.2973 287.155 91.0714C287.117 90.8455 287.004 90.6572 286.892 90.4689C286.779 90.2807 286.628 90.1301 286.515 90.0171C286.402 89.9042 286.214 89.8289 286.026 89.7912L285.649 89.7159C285.574 89.7159 285.461 89.6783 285.385 89.603C285.31 89.5277 285.235 89.4147 285.235 89.2265C285.235 89.0382 285.31 88.8876 285.423 88.8123C285.536 88.737 285.687 88.6994 285.837 88.6994H296.944C297.396 88.6994 297.848 88.737 298.3 88.8123C298.751 88.85 299.241 89.0006 299.73 89.1888C300.22 89.4147 300.634 89.6407 300.935 89.9419C301.236 90.2431 301.538 90.6195 301.763 91.1466C301.989 91.6361 302.14 92.2762 302.215 92.9539C302.253 93.6692 302.102 94.347 301.726 94.9494C301.462 95.4012 301.086 95.7777 300.672 96.0789C300.22 96.3801 299.768 96.606 299.241 96.7942C298.714 96.9825 298.262 97.1331 297.848 97.2084L296.53 97.5096L296.492 97.5849C297.509 97.7731 299.09 98.2249 299.655 99.3921C300.521 101.199 301.312 104.964 301.763 105.68C301.952 105.981 302.78 105.981 303.081 106.244C303.458 106.546 303.006 107.073 303.006 107.073H297.885C297.885 107.073 296.342 106.885 295.928 104.851C295.551 102.969 295.212 99.505 293.443 98.3002V98.3002ZM147.999 98.4132V104.061C147.999 104.4 148.037 104.626 148.074 104.738C148.112 104.889 148.225 104.964 148.375 105.04C148.526 105.115 148.865 105.115 149.392 105.115H149.994C150.409 105.115 150.823 105.077 151.237 104.964C151.651 104.851 151.99 104.663 152.329 104.362C152.63 104.061 152.894 103.684 153.007 103.232C153.157 102.781 153.232 102.329 153.232 101.839C153.232 101.35 153.119 100.86 152.969 100.409C152.818 99.9569 152.517 99.5427 152.141 99.2792C151.764 98.978 151.312 98.752 150.785 98.6391C150.258 98.4885 149.656 98.4132 149.016 98.4132H147.999V98.4132ZM147.999 96.7566H149.241C149.467 96.7566 149.882 96.6813 150.371 96.5307C150.898 96.3801 151.35 96.1918 151.764 95.9659C152.178 95.74 152.479 95.4012 152.705 94.987C152.931 94.5728 153.082 94.121 153.082 93.6316C153.119 93.1421 153.082 92.6903 152.969 92.3138C152.781 91.7867 152.517 91.3726 152.178 91.109C151.839 90.8455 151.463 90.6572 151.086 90.5443C150.71 90.4313 150.333 90.356 149.957 90.356H149.354C149.204 90.356 149.016 90.3937 148.79 90.4313C148.564 90.469 148.413 90.5442 148.3 90.6572C148.187 90.7325 148.112 90.8831 148.074 91.0337C148.037 91.1843 147.999 91.4479 147.999 91.7491V96.7566V96.7566ZM154.211 97.7355C154.776 97.8484 155.378 97.9991 155.943 98.225C156.508 98.4509 156.997 98.7144 157.374 99.0532C157.75 99.3544 158.089 99.8063 158.353 100.333C158.616 100.86 158.767 101.501 158.767 102.216C158.767 102.931 158.616 103.609 158.315 104.249C158.089 104.663 157.788 105.04 157.449 105.416C157.073 105.755 156.583 106.094 155.981 106.357C155.378 106.621 154.776 106.809 154.211 106.885C153.647 106.96 153.006 106.998 152.329 106.998H141.824C141.674 106.998 141.523 106.998 141.41 106.885C141.297 106.809 141.222 106.621 141.26 106.357C141.26 106.207 141.373 106.056 141.523 105.981L142.201 105.717C142.389 105.642 142.54 105.529 142.728 105.416C142.879 105.266 142.991 105.115 143.067 104.927C143.142 104.738 143.18 104.4 143.18 103.948V91.7867C143.142 91.4479 143.104 91.1467 143.029 90.9208C142.954 90.6949 142.841 90.5066 142.69 90.3184C142.54 90.1301 142.351 90.0171 142.088 89.8665C141.824 89.7536 141.636 89.6407 141.561 89.5653C141.485 89.49 141.41 89.3771 141.448 89.1888C141.448 89.0006 141.523 88.8876 141.674 88.8123C141.787 88.737 141.937 88.6617 142.05 88.6617H151.915C152.705 88.6617 153.345 88.6994 153.872 88.7747C154.4 88.8123 154.889 88.9253 155.378 89.0759C155.868 89.2265 156.32 89.4524 156.696 89.7159C157.073 89.9795 157.412 90.3184 157.638 90.6949C157.863 91.0714 158.052 91.5232 158.165 92.0879C158.278 92.615 158.278 93.1798 158.165 93.7822C158.052 94.3093 157.863 94.7235 157.6 95.0247C157.374 95.3259 157.035 95.6271 156.696 95.9283C156.32 96.1918 155.868 96.4554 155.303 96.6813C154.738 96.9072 154.249 97.0578 153.835 97.0954L152.103 97.3966C152.931 97.5472 153.647 97.6602 154.211 97.7355V97.7355ZM168.217 100.446H171.342L169.912 96.4177L168.217 100.446ZM172.284 102.517H167.427L166.862 103.948C166.749 104.211 166.674 104.475 166.598 104.738C166.523 105.002 166.523 105.228 166.561 105.341C166.598 105.491 166.674 105.604 166.824 105.755C166.937 105.868 167.088 105.943 167.238 105.943L167.502 105.981C167.577 105.981 167.69 106.056 167.803 106.169C167.916 106.282 167.991 106.395 167.991 106.546C167.954 106.772 167.841 106.922 167.69 106.96C167.54 107.035 167.314 107.035 167.05 107.035H161.892C161.553 107.035 161.29 106.997 161.177 106.96C161.064 106.885 160.988 106.734 160.988 106.47C160.988 106.244 161.101 106.056 161.29 106.019L161.666 105.943L162.005 105.793C162.193 105.717 162.344 105.642 162.381 105.604C162.419 105.567 162.494 105.491 162.645 105.379C162.758 105.266 162.909 105.04 163.059 104.776C163.21 104.513 163.36 104.211 163.511 103.873L169.271 89.8289C169.535 89.1888 169.723 88.8123 169.874 88.6617C170.025 88.5111 170.288 88.4358 170.627 88.4735C170.928 88.5111 171.116 88.5864 171.267 88.7747C171.38 88.9253 171.531 89.2265 171.719 89.603L178.157 103.76C178.195 103.873 178.345 104.136 178.571 104.475C178.797 104.814 178.985 105.077 179.136 105.266C179.249 105.416 179.437 105.567 179.663 105.717C179.889 105.868 180.077 105.943 180.228 105.943L180.491 105.981C180.604 106.019 180.755 106.056 180.868 106.094C180.981 106.132 181.056 106.244 181.094 106.433C181.131 106.621 181.094 106.772 180.981 106.885C180.868 106.998 180.717 107.073 180.604 107.073H172.585C172.321 107.073 172.133 107.035 171.982 106.96C171.832 106.885 171.794 106.696 171.832 106.395C171.832 106.282 171.907 106.169 171.982 106.132L172.321 106.019L172.698 105.906C172.848 105.868 172.999 105.755 173.074 105.642C173.149 105.529 173.225 105.416 173.225 105.303C173.225 105.19 173.225 105.002 173.149 104.738C173.074 104.475 173.037 104.287 173.037 104.174L172.284 102.517V102.517ZM199.806 105.604C199.806 106.056 199.731 106.395 199.618 106.659C199.505 106.922 199.317 107.073 199.091 107.186C198.865 107.261 198.564 107.261 198.262 107.11C197.999 107.035 197.811 106.922 197.66 106.772C197.509 106.621 197.321 106.395 197.095 106.094L187.57 93.481V104.098C187.57 104.437 187.607 104.701 187.72 104.927C187.833 105.153 187.984 105.341 188.21 105.491C188.436 105.642 188.661 105.755 188.887 105.83C189.113 105.906 189.302 105.943 189.49 105.981L189.866 106.019L190.13 106.056C190.318 106.094 190.431 106.244 190.469 106.508C190.506 106.734 190.431 106.885 190.318 106.922C190.205 106.96 190.017 106.998 189.829 106.998H183.616C183.503 106.998 183.353 106.922 183.202 106.772C183.052 106.621 183.052 106.47 183.127 106.244C183.165 106.169 183.202 106.094 183.277 106.056C183.353 106.019 183.466 105.981 183.579 105.943L183.955 105.906C184.143 105.906 184.369 105.83 184.558 105.717C184.746 105.604 184.934 105.491 185.085 105.341C185.235 105.19 185.386 105.04 185.461 104.776C185.574 104.55 185.612 104.324 185.612 104.061V92.5021C185.612 92.2009 185.574 91.8997 185.536 91.5985C185.499 91.2973 185.424 91.0337 185.273 90.7701C185.16 90.5442 185.009 90.3183 184.859 90.1677C184.708 90.0171 184.52 89.8665 184.294 89.7912C184.068 89.7159 183.88 89.6783 183.729 89.6406L183.353 89.603C183.315 89.603 183.202 89.5653 183.089 89.49C182.976 89.4147 182.901 89.2641 182.901 89.0382C182.901 88.8123 182.976 88.6994 183.127 88.6241C183.277 88.5488 183.466 88.5488 183.729 88.5111L189.791 88.4735L197.735 98.752V92.2385C197.735 91.7491 197.698 91.3726 197.66 91.109C197.622 90.8455 197.509 90.5819 197.396 90.3936C197.283 90.2054 197.095 90.0548 196.907 89.9419C196.719 89.8289 196.455 89.7536 196.192 89.7159L195.514 89.6783C195.439 89.6783 195.326 89.6406 195.213 89.5277C195.1 89.4524 195.024 89.3018 195.062 89.1512C195.062 88.9253 195.137 88.8123 195.288 88.7747C195.439 88.737 195.589 88.6994 195.74 88.6994H201.877C201.99 88.6994 202.103 88.737 202.216 88.8123C202.329 88.8876 202.366 89.0006 202.404 89.1512C202.442 89.3018 202.404 89.4524 202.291 89.5277C202.178 89.603 202.065 89.6783 201.914 89.6783L201.425 89.7159C201.274 89.7536 201.048 89.8289 200.823 89.9042C200.597 90.0171 200.408 90.1301 200.258 90.2807C200.107 90.4313 199.994 90.6196 199.919 90.9208C199.844 91.222 199.768 91.4479 199.768 91.5985V105.604H199.806ZM211.515 96.2671L215.996 91.7114C216.071 91.5985 216.222 91.4479 216.335 91.222C216.485 90.9961 216.56 90.8078 216.636 90.6949C216.711 90.5443 216.711 90.3936 216.711 90.2054C216.673 90.0171 216.598 89.9042 216.485 89.8289C216.372 89.7536 216.222 89.7159 215.996 89.6783L215.582 89.6406C215.393 89.6406 215.28 89.603 215.205 89.5653C215.13 89.5277 215.092 89.4147 215.054 89.1888C215.017 88.9629 215.092 88.8123 215.243 88.737C215.393 88.6617 215.544 88.6241 215.732 88.6241H222.848C222.961 88.6241 223.074 88.6617 223.187 88.737C223.3 88.8123 223.375 88.9629 223.338 89.1888C223.338 89.3771 223.262 89.49 223.187 89.49C223.112 89.5277 222.999 89.5653 222.81 89.603L222.283 89.7159C222.057 89.7536 221.832 89.8289 221.53 89.9042C221.267 89.9795 220.966 90.1301 220.664 90.3184C220.363 90.5066 220.1 90.6949 219.874 90.8831C219.648 91.0714 219.347 91.3349 219.008 91.7114L216.372 94.4975L220.853 102.705C221.003 102.969 221.191 103.308 221.38 103.647C221.693 104.213 222.1 104.723 222.585 105.153C222.886 105.454 223.112 105.642 223.262 105.717C223.413 105.793 223.563 105.868 223.752 105.906L224.015 106.019L224.204 106.056C224.354 106.094 224.467 106.244 224.58 106.47C224.655 106.696 224.618 106.847 224.429 106.922C224.241 106.997 224.015 107.035 223.752 107.035H215.807C215.695 107.035 215.544 106.998 215.393 106.885C215.243 106.809 215.205 106.621 215.243 106.395C215.243 106.244 215.356 106.132 215.506 106.094L215.77 106.056L215.996 106.019C216.109 106.019 216.222 105.981 216.335 105.906C216.448 105.868 216.523 105.755 216.56 105.68C216.598 105.567 216.598 105.454 216.56 105.303C216.523 105.153 216.41 104.927 216.259 104.588L212.758 97.8861L211.515 99.0909V103.496C211.515 104.023 211.515 104.4 211.553 104.626C211.591 104.851 211.666 105.04 211.779 105.228C211.892 105.416 212.042 105.567 212.193 105.68C212.344 105.793 212.57 105.906 212.795 105.906L213.059 105.943C213.172 105.981 213.247 106.019 213.323 106.094C213.398 106.132 213.435 106.282 213.473 106.508C213.473 106.734 213.435 106.847 213.323 106.922C213.21 106.96 213.021 106.998 212.833 106.998H204.964C204.814 106.998 204.701 106.96 204.588 106.885C204.475 106.809 204.437 106.659 204.437 106.47C204.437 106.32 204.475 106.207 204.588 106.132C204.701 106.056 204.814 106.019 204.889 105.981L205.228 105.868C205.416 105.83 205.567 105.755 205.717 105.68C205.83 105.604 205.981 105.454 206.094 105.303C206.207 105.115 206.32 104.927 206.357 104.663C206.432 104.437 206.47 104.098 206.47 103.684V92.1256C206.47 92.0126 206.432 91.7867 206.395 91.3349C206.357 90.9207 206.282 90.6195 206.169 90.4689C206.094 90.3183 205.981 90.1677 205.792 89.9795C205.642 89.8289 205.491 89.7159 205.303 89.7159L204.701 89.6406C204.588 89.6406 204.475 89.603 204.399 89.49C204.324 89.4147 204.286 89.2265 204.362 88.9629C204.362 88.85 204.437 88.7747 204.512 88.6994C204.588 88.6241 204.701 88.6241 204.851 88.6241H213.021C213.134 88.6241 213.247 88.6617 213.36 88.737C213.435 88.8123 213.511 88.9253 213.511 89.1135C213.511 89.3018 213.473 89.4147 213.36 89.49C213.247 89.5653 213.134 89.5653 213.021 89.603L212.532 89.7159C212.344 89.7536 212.155 89.8289 212.005 89.9042C211.854 89.9795 211.704 90.1301 211.628 90.2807C211.553 90.4313 211.478 90.6572 211.44 90.9208C211.402 91.1843 211.402 91.4102 211.402 91.6361V96.2671H211.515ZM240.883 98.9027C240.883 99.3545 240.92 99.8439 240.958 100.409C240.996 100.973 241.071 101.501 241.222 102.028C241.334 102.555 241.485 102.969 241.636 103.308C241.786 103.647 241.975 103.91 242.125 104.136C242.276 104.362 242.539 104.626 242.916 104.927C243.292 105.228 243.744 105.379 244.309 105.416C244.874 105.454 245.401 105.228 245.928 104.776C246.38 104.4 246.718 103.835 246.944 103.157C247.17 102.479 247.283 101.952 247.359 101.613C247.396 101.275 247.471 100.597 247.509 99.6557C247.547 98.6768 247.584 98.0744 247.622 97.8484C247.622 97.5849 247.622 97.1707 247.584 96.5307C247.509 95.3635 247.396 94.4599 247.246 93.7445C247.133 93.0292 246.944 92.4644 246.718 92.0126C246.493 91.5608 246.191 91.222 245.853 90.9208C245.514 90.6196 245.137 90.4689 244.723 90.3936C244.346 90.356 244.045 90.356 243.744 90.4689C243.481 90.5819 243.179 90.7701 242.878 91.0337C242.577 91.2973 242.276 91.7114 241.975 92.2385C241.673 92.7656 241.485 93.3304 241.334 93.8575C241.222 94.3846 241.109 95.0247 241.033 95.8153C240.958 96.5683 240.92 97.2084 240.883 97.7355V98.9027V98.9027ZM235.536 98.2626V97.2084C235.536 96.7942 235.574 96.3801 235.649 95.8906C235.725 95.4012 235.875 94.874 236.063 94.3469C236.252 93.8198 236.478 93.2551 236.779 92.7656C237.08 92.2385 237.381 91.8244 237.72 91.4479C238.059 91.109 238.435 90.7702 238.85 90.4313C239.264 90.1301 239.678 89.8665 240.054 89.6406C240.431 89.4147 240.92 89.2265 241.485 89.0382C242.05 88.85 242.539 88.737 242.953 88.6617C243.368 88.5864 243.819 88.5488 244.346 88.5111C245.024 88.5111 245.702 88.5864 246.342 88.6994C246.982 88.8123 247.584 89.0382 248.187 89.2641C248.789 89.5277 249.279 89.7913 249.731 90.1301C250.182 90.469 250.596 90.8455 251.011 91.2973C251.387 91.7491 251.726 92.2762 252.027 92.8409C252.328 93.4057 252.554 94.0457 252.705 94.7234C252.856 95.4012 252.968 96.0412 253.006 96.6436C253.044 97.2837 253.081 97.7731 253.081 98.1496C253.044 98.7144 253.006 99.2792 252.931 99.9192C252.855 100.522 252.743 101.086 252.554 101.576C252.404 102.065 252.14 102.592 251.801 103.157C251.462 103.722 251.086 104.249 250.634 104.738C250.182 105.19 249.731 105.567 249.241 105.83C248.752 106.094 248.187 106.357 247.471 106.621C246.756 106.885 246.041 107.035 245.363 107.11C244.685 107.186 244.008 107.186 243.33 107.11C242.69 107.035 242.087 106.922 241.636 106.772C241.146 106.621 240.619 106.395 240.017 106.132C239.414 105.83 238.887 105.491 238.435 105.115C237.984 104.738 237.569 104.287 237.155 103.722C236.741 103.157 236.44 102.63 236.214 102.178C236.026 101.726 235.838 101.199 235.725 100.672C235.612 100.145 235.536 99.6933 235.499 99.3921C235.536 99.0909 235.536 98.7144 235.536 98.2626V98.2626ZM271.605 88.6994L271.568 93.6692C271.568 93.8575 271.53 93.9705 271.455 94.0834C271.417 94.1964 271.304 94.2716 271.116 94.3093C270.928 94.3846 270.777 94.3093 270.627 94.1587C270.514 94.0081 270.438 93.8951 270.401 93.8575L270.137 93.1798C270.024 92.9539 269.836 92.6903 269.497 92.3515C269.196 92.0126 268.819 91.7114 268.33 91.4102C267.84 91.109 267.426 90.9208 267.012 90.8078C266.598 90.6949 266.259 90.6572 265.996 90.6572L263.285 90.6949C263.134 90.6949 262.983 90.7325 262.871 90.7701C262.758 90.8078 262.645 90.8454 262.569 90.9584C262.494 91.0337 262.419 91.1467 262.419 91.222V96.6813H264C264.226 96.6813 264.452 96.6436 264.715 96.5307C264.979 96.4177 265.243 96.1918 265.581 95.8153C265.92 95.4388 266.108 95.0999 266.221 94.7234C266.297 94.3846 266.41 94.1587 266.485 94.0081C266.598 93.8951 266.786 93.8198 267.012 93.8198C267.2 93.8198 267.351 93.8951 267.426 94.0081C267.502 94.121 267.539 94.2716 267.539 94.4975V100.333C267.539 100.71 267.502 100.973 267.389 101.124C267.313 101.275 267.125 101.35 266.861 101.312C266.636 101.312 266.447 101.162 266.297 100.86L266.033 100.22C265.92 99.9192 265.694 99.6557 265.393 99.3545C265.092 99.0533 264.828 98.865 264.565 98.7897C264.301 98.6768 264.075 98.6391 263.925 98.6391H262.343V103.684C262.343 103.948 262.343 104.211 262.419 104.513C262.494 104.814 262.607 105.04 262.758 105.228C262.908 105.416 263.096 105.567 263.322 105.642C263.548 105.755 263.736 105.793 263.849 105.83L264.151 105.868C264.226 105.868 264.301 105.906 264.377 105.981C264.452 106.019 264.489 106.132 264.565 106.32C264.602 106.508 264.602 106.659 264.489 106.809C264.377 106.96 264.301 107.035 264.188 106.998L255.642 106.96C255.491 106.96 255.34 106.922 255.265 106.885C255.19 106.809 255.152 106.696 255.152 106.433C255.152 106.244 255.19 106.132 255.265 106.056C255.34 105.981 255.416 105.943 255.491 105.906L255.905 105.868C256.056 105.868 256.244 105.793 256.432 105.717C256.658 105.642 256.846 105.491 256.997 105.228C257.148 105.002 257.298 104.738 257.374 104.437C257.449 104.136 257.524 103.835 257.524 103.496V92.1256C257.524 92.0126 257.486 91.7867 257.449 91.4479C257.411 91.109 257.298 90.8454 257.185 90.5819C257.072 90.3183 256.922 90.1301 256.734 90.0171C256.545 89.9042 256.319 89.8289 256.056 89.7536L255.717 89.6783C255.604 89.6783 255.491 89.6407 255.378 89.5653C255.265 89.5277 255.227 89.3771 255.265 89.1512C255.303 88.9253 255.378 88.8123 255.491 88.6994C255.604 88.6241 255.755 88.5864 255.868 88.5864H271.605V88.6994ZM292.087 96.6813L292.953 96.7189C293.33 96.7189 293.706 96.6813 294.12 96.606C294.535 96.5307 294.911 96.3424 295.325 96.1165C295.739 95.8906 296.041 95.5894 296.304 95.2129C296.53 94.8364 296.681 94.4222 296.794 93.9704C296.869 93.5186 296.944 93.1045 296.944 92.6903C296.907 92.0879 296.794 91.6738 296.568 91.3349C296.342 91.0337 296.116 90.7701 295.815 90.5819C295.551 90.3936 295.25 90.2431 294.949 90.1301C294.648 90.0172 294.346 89.9795 294.083 89.9795H293.593C293.141 89.9795 292.803 90.0548 292.577 90.1677C292.388 90.2807 292.238 90.4313 292.2 90.6196C292.125 90.8078 292.125 91.0713 292.125 91.5232V96.6813H292.087ZM314.113 103.91C314.113 104.249 314.113 104.513 314.15 104.738C314.188 104.964 314.263 105.153 314.376 105.379C314.489 105.567 314.64 105.717 314.866 105.83C315.092 105.943 315.28 105.981 315.431 106.019L315.958 106.094C316.033 106.094 316.184 106.132 316.297 106.207C316.447 106.244 316.522 106.395 316.522 106.659C316.522 106.847 316.447 106.96 316.334 106.998C316.221 107.073 316.108 107.073 315.958 107.073H307.411C307.26 107.073 307.11 107.035 307.035 106.998C306.959 106.922 306.922 106.809 306.922 106.621C306.922 106.395 306.959 106.244 307.035 106.207C307.11 106.169 307.223 106.132 307.373 106.094L307.675 105.981C307.9 105.906 308.089 105.83 308.239 105.755C308.39 105.642 308.503 105.529 308.616 105.379C308.729 105.228 308.842 105.002 308.917 104.701C308.992 104.4 309.03 104.023 309.03 103.647V92.2762C309.03 92.1256 308.992 91.862 308.992 91.4855C308.992 91.109 308.917 90.8455 308.842 90.6949C308.766 90.5443 308.616 90.356 308.428 90.1677C308.239 89.9795 308.089 89.8665 307.938 89.8289L307.449 89.7536C307.373 89.7536 307.26 89.7159 307.147 89.6406C307.035 89.5653 306.997 89.4524 306.997 89.2641C306.997 89.1135 307.072 88.9629 307.223 88.8876C307.336 88.8123 307.486 88.737 307.599 88.737L315.807 88.7747C315.882 88.7747 315.995 88.85 316.108 88.8876C316.221 88.9629 316.297 89.0759 316.297 89.2265C316.297 89.3771 316.259 89.5277 316.146 89.6406C316.033 89.7536 315.92 89.7912 315.845 89.7912L315.506 89.8289C315.318 89.8289 315.129 89.9042 314.903 90.0548C314.678 90.1678 314.527 90.356 314.414 90.5066C314.301 90.6949 314.188 90.9208 314.15 91.1843C314.075 91.4479 314.038 91.7867 314.038 92.2009V103.91H314.113ZM327.705 90.2431H325.596C324.994 90.2431 324.429 90.3184 323.902 90.4313C323.375 90.5819 322.923 90.7702 322.546 90.9961C322.17 91.222 321.869 91.4855 321.681 91.7491C321.492 92.0126 321.078 92.6527 320.438 93.7069L320.212 94.0834C320.175 94.1211 320.099 94.1964 319.986 94.2717C319.873 94.347 319.76 94.3846 319.572 94.3846C319.384 94.3846 319.271 94.234 319.196 94.0081L319.233 93.3304L319.572 88.6994H334.218L325.182 105.416L327.328 105.379C327.705 105.379 328.081 105.341 328.495 105.266C328.909 105.19 329.286 105.04 329.662 104.851C330.039 104.663 330.378 104.4 330.717 104.061C331.056 103.722 331.357 103.345 331.658 102.969C331.959 102.555 332.147 102.254 332.26 102.028L332.486 101.501C332.599 101.237 332.674 101.049 332.75 100.936C332.825 100.823 332.976 100.785 333.164 100.823C333.352 100.86 333.503 100.936 333.54 101.086C333.578 101.237 333.616 101.576 333.578 102.065L333.126 107.035H318.141L327.705 90.2431V90.2431ZM350.521 96.0036V91.975C350.521 91.6738 350.483 91.4479 350.445 91.2596C350.408 91.0714 350.333 90.8455 350.22 90.6572C350.107 90.4313 349.956 90.2807 349.805 90.1301C349.655 89.9795 349.429 89.8665 349.203 89.8289L348.977 89.7912C348.864 89.7912 348.789 89.7536 348.714 89.7159C348.638 89.6783 348.601 89.5653 348.638 89.3394C348.638 89.1135 348.676 88.9253 348.789 88.85C348.902 88.7747 349.015 88.737 349.165 88.737H357.11C357.223 88.737 357.336 88.7747 357.448 88.85C357.524 88.9253 357.599 89.0759 357.599 89.2265C357.599 89.3771 357.524 89.49 357.486 89.5653C357.411 89.6407 357.336 89.6406 357.26 89.6783L356.921 89.7536C356.771 89.7913 356.583 89.9042 356.357 90.0171C356.131 90.1301 355.98 90.3184 355.867 90.5066C355.754 90.6949 355.679 90.8831 355.641 91.0714C355.604 91.2596 355.604 91.6361 355.604 92.1256V103.948C355.604 103.985 355.604 104.174 355.641 104.588C355.679 104.964 355.717 105.266 355.754 105.416C355.792 105.567 355.942 105.717 356.168 105.83C356.394 105.943 356.62 106.019 356.884 106.094L357.11 106.132C357.223 106.169 357.336 106.207 357.411 106.244C357.486 106.282 357.524 106.395 357.524 106.583C357.524 106.772 357.486 106.922 357.411 106.96C357.336 107.035 357.185 107.073 356.959 107.073H349.09C348.977 107.073 348.827 107.035 348.714 106.96C348.601 106.885 348.525 106.734 348.563 106.583C348.563 106.433 348.601 106.32 348.714 106.282C348.789 106.244 348.939 106.207 349.165 106.132L349.429 106.056C349.542 106.056 349.692 105.981 349.881 105.868C350.069 105.755 350.22 105.642 350.295 105.491C350.408 105.341 350.483 105.115 350.558 104.814C350.634 104.513 350.671 104.249 350.671 104.023V98.112H345.024V103.985C345.024 104.324 345.061 104.588 345.099 104.776C345.137 104.964 345.25 105.115 345.363 105.303C345.476 105.454 345.626 105.604 345.814 105.755C346.003 105.906 346.191 105.981 346.342 105.981L346.605 106.019C346.68 106.019 346.756 106.094 346.869 106.169C346.982 106.244 347.019 106.395 347.057 106.546C347.095 106.734 347.057 106.847 346.944 106.922C346.831 106.997 346.718 107.035 346.605 107.035H338.623C338.473 107.035 338.36 106.998 338.247 106.885C338.134 106.809 338.096 106.621 338.171 106.357C338.171 106.244 338.247 106.207 338.322 106.132L338.548 106.019L338.887 105.83C339 105.793 339.15 105.68 339.301 105.491C339.452 105.303 339.565 105.19 339.64 105.077C339.677 104.964 339.79 104.814 339.866 104.513C339.979 104.249 340.016 104.023 340.016 103.873V92.2009C339.979 91.1843 339.903 90.6196 339.79 90.4313C339.715 90.2431 339.602 90.0924 339.452 89.9795C339.301 89.8665 339.113 89.7536 338.924 89.7159L338.586 89.6406C338.473 89.6406 338.36 89.5653 338.284 89.5277C338.209 89.4524 338.171 89.3394 338.171 89.1512C338.171 89.0006 338.247 88.85 338.36 88.7747C338.473 88.6994 338.623 88.6241 338.736 88.6241H346.68C346.756 88.6241 346.869 88.6617 346.982 88.737C347.095 88.8123 347.17 88.9253 347.17 89.0759C347.17 89.2641 347.132 89.3771 347.019 89.4524C346.906 89.5277 346.793 89.603 346.643 89.6406L346.379 89.7159C346.229 89.7536 346.078 89.8665 345.89 89.9795C345.739 90.0924 345.551 90.2807 345.4 90.5443C345.25 90.7702 345.137 90.9961 345.061 91.222C345.024 91.4479 344.986 91.6738 344.986 91.9373V96.0036H350.521V96.0036ZM367.049 100.446H370.174L368.744 96.4177L367.049 100.446ZM371.116 102.517H366.259L365.694 103.948C365.581 104.211 365.506 104.475 365.43 104.738C365.355 105.002 365.355 105.228 365.393 105.341C365.43 105.491 365.506 105.604 365.656 105.755C365.769 105.868 365.92 105.943 366.07 105.943L366.334 105.981C366.409 105.981 366.522 106.056 366.635 106.169C366.748 106.282 366.823 106.395 366.823 106.546C366.786 106.772 366.673 106.922 366.522 106.96C366.372 107.035 366.146 107.035 365.882 107.035H360.724C360.385 107.035 360.122 106.997 360.009 106.96C359.896 106.885 359.82 106.734 359.82 106.47C359.82 106.244 359.933 106.056 360.122 106.019L360.498 105.943L360.837 105.793C361.025 105.717 361.176 105.642 361.214 105.604C361.251 105.567 361.326 105.491 361.477 105.379C361.59 105.266 361.741 105.04 361.891 104.776C362.042 104.513 362.192 104.211 362.343 103.873L368.104 89.8289C368.367 89.1888 368.555 88.8123 368.706 88.6617C368.857 88.5111 369.12 88.4358 369.459 88.4735C369.76 88.5111 369.948 88.5864 370.099 88.7747C370.212 88.9253 370.363 89.2265 370.551 89.603L376.989 103.76C377.027 103.873 377.177 104.136 377.403 104.475C377.629 104.814 377.817 105.077 377.968 105.266C378.081 105.416 378.269 105.567 378.495 105.717C378.721 105.868 378.909 105.943 379.06 105.943L379.323 105.981C379.436 106.019 379.587 106.056 379.7 106.094C379.813 106.132 379.888 106.244 379.926 106.433C379.963 106.621 379.926 106.772 379.813 106.885C379.7 106.998 379.549 107.073 379.436 107.073H371.417C371.153 107.073 370.965 107.035 370.814 106.96C370.664 106.885 370.626 106.696 370.664 106.395C370.664 106.282 370.739 106.169 370.814 106.132L371.153 106.019L371.53 105.906C371.68 105.868 371.831 105.755 371.906 105.642C371.982 105.529 372.057 105.416 372.057 105.303C372.057 105.19 372.019 105.002 371.982 104.738C371.906 104.475 371.869 104.287 371.869 104.174L371.116 102.517V102.517ZM384.783 98.9027C384.783 99.3545 384.82 99.8439 384.858 100.409C384.896 100.973 384.971 101.501 385.122 102.028C385.235 102.555 385.385 102.969 385.536 103.308C385.686 103.647 385.875 103.91 386.025 104.136C386.176 104.362 386.439 104.626 386.816 104.927C387.192 105.228 387.644 105.379 388.209 105.416C388.774 105.454 389.301 105.228 389.828 104.776C390.28 104.4 390.619 103.835 390.844 103.157C391.07 102.479 391.183 101.952 391.259 101.613C391.296 101.275 391.372 100.597 391.409 99.6557C391.447 98.6768 391.485 98.0744 391.522 97.8484C391.522 97.5849 391.522 97.1707 391.484 96.5307C391.409 95.3635 391.296 94.4599 391.146 93.7445C391.033 93.0292 390.844 92.4644 390.619 92.0126C390.393 91.5608 390.091 91.222 389.753 90.9208C389.414 90.6196 389.037 90.4689 388.623 90.3936C388.247 90.356 387.945 90.356 387.644 90.4689C387.381 90.5819 387.079 90.7701 386.778 91.0337C386.477 91.2973 386.176 91.7114 385.875 92.2385C385.573 92.7656 385.385 93.3304 385.235 93.8575C385.122 94.3846 385.009 95.0247 384.933 95.8153C384.858 96.5683 384.82 97.2084 384.783 97.7355C384.745 98.1496 384.745 98.6015 384.783 98.9027V98.9027ZM379.399 98.2626V97.2084C379.399 96.7942 379.436 96.3801 379.512 95.8906C379.587 95.4012 379.738 94.874 379.926 94.3469C380.114 93.8198 380.34 93.2551 380.641 92.7656C380.942 92.2385 381.244 91.8244 381.582 91.4479C381.921 91.109 382.298 90.7702 382.712 90.4313C383.126 90.1301 383.54 89.8665 383.917 89.6406C384.293 89.4147 384.783 89.2265 385.347 89.0382C385.912 88.85 386.402 88.737 386.816 88.6617C387.23 88.5864 387.682 88.5488 388.209 88.5111C388.887 88.5111 389.564 88.5864 390.204 88.6994C390.844 88.8123 391.447 89.0382 392.049 89.2641C392.652 89.5277 393.141 89.7913 393.593 90.1301C394.045 90.469 394.459 90.8455 394.873 91.2973C395.25 91.7491 395.588 92.2762 395.89 92.8409C396.191 93.4057 396.417 94.0457 396.567 94.7234C396.718 95.4012 396.831 96.0412 396.869 96.6436C396.906 97.2837 396.944 97.7731 396.944 98.1496C396.906 98.7144 396.869 99.2792 396.793 99.9192C396.718 100.522 396.605 101.086 396.417 101.576C396.266 102.065 396.003 102.592 395.664 103.157C395.325 103.722 394.948 104.249 394.497 104.738C394.045 105.19 393.593 105.567 393.103 105.83C392.614 106.094 392.049 106.357 391.334 106.621C390.619 106.885 389.903 107.035 389.225 107.11C388.548 107.186 387.87 107.186 387.192 107.11C386.552 107.035 385.95 106.922 385.498 106.772C385.009 106.621 384.482 106.395 383.879 106.132C383.277 105.83 382.75 105.491 382.298 105.115C381.846 104.738 381.432 104.287 381.018 103.722C380.604 103.157 380.302 102.63 380.076 102.178C379.888 101.726 379.7 101.199 379.587 100.672C379.474 100.145 379.399 99.6933 379.361 99.3921C379.399 99.0909 379.399 98.7144 379.399 98.2626V98.2626Z" fill="#231916"/>
<path fill-rule="evenodd" clip-rule="evenodd" d="M78.2798 64C78.2798 71.9895 71.8292 78.4659 63.8721 78.4659C55.9146 78.4659 49.4644 71.9895 49.4644 64C49.4644 56.0098 55.9146 49.5338 63.8721 49.5338C71.8292 49.5338 78.2798 56.0098 78.2798 64" fill="url(#paint0_radial_63_12607)"/>
<path fill-rule="evenodd" clip-rule="evenodd" d="M106.691 50.8895C105.514 28.3939 82.0933 7.48659 51.7055 15.9037L51.7056 15.9037C51.7599 15.8994 68.6795 14.5587 81.8314 26.0956C95.7764 38.3265 102.972 62.5257 84.0265 84.5875C84.0265 84.5875 108.061 77.0745 106.691 50.8895ZM65.7199 19.8988C44.2932 13.2215 16.651 28.0492 14 59.5883C14 59.5883 18.5927 43.1455 33.9486 34.7358C50.2037 25.8333 75.3054 27.4301 89.3637 52.9114C89.3637 52.9114 90.6621 27.6707 65.7199 19.8988ZM106.901 39.0001C123.182 66.217 109.573 94.6945 88.414 101.997C63.7838 110.496 50.0908 89.2028 50.0908 89.2028C76.2945 101.568 97.4474 87.9529 105.343 71.0575C112.803 55.0971 106.901 39.0001 106.901 39.0001ZM36.8105 98.6994C50.095 116.899 81.1839 121.532 102.09 97.7639C102.09 97.7639 88.6048 108.232 71.2311 105.797C52.8398 103.22 33.5715 86.9043 37.4135 57.9996C37.4135 57.9996 21.3456 77.5145 36.8105 98.6994ZM43.9961 110.509C14.9293 98.2594 9.39565 67.2874 22.3228 48.8772C37.3702 27.4463 60.8868 36.4622 60.8868 36.4622C32.4115 42.0407 23.1661 65.5273 26.594 83.7964C29.8317 101.056 43.9961 110.509 43.9961 110.509Z" fill="url(#paint1_radial_63_12607)"/>
<defs>
<radialGradient id="paint0_radial_63_12607" cx="0" cy="0" r="1" gradientUnits="userSpaceOnUse" gradientTransform="translate(63.8721 63.9998) rotate(90) scale(38.8444 38.6877)">
<stop stop-color="#FFF100"/>
<stop offset="0.214824" stop-color="#FDDE01"/>
<stop offset="1" stop-color="#E60012"/>
</radialGradient>
<radialGradient id="paint1_radial_63_12607" cx="0" cy="0" r="1" gradientUnits="userSpaceOnUse" gradientTransform="translate(64.0454 63.9998) rotate(90) scale(49.9998 50.0454)">
<stop stop-color="#FFF100"/>
<stop offset="0.429548" stop-color="#FFF100"/>
<stop offset="1" stop-color="#E60012"/>
</radialGradient>
</defs>
</svg>
