<svg width="128" height="128" viewBox="0 0 128 128" fill="none" xmlns="http://www.w3.org/2000/svg">
<path fill-rule="evenodd" clip-rule="evenodd" d="M46.1235 54.4859C40.2256 51.4638 36.1876 45.3232 36.1876 38.2412C36.1876 28.1687 44.3564 20 54.4288 20C59.4835 20 64.058 22.0577 67.3624 25.3802V25.3795L85.0515 42.7031C86.7843 43.8971 88.3007 45.3823 89.5292 47.0889L89.5339 47.0929L89.5332 47.094C91.6884 50.0891 92.9586 53.7635 92.9586 57.7343C92.9586 64.6394 89.1197 70.6488 83.4605 73.7463C89.1197 76.8435 92.9593 82.8533 92.9593 89.7584C92.9593 99.8311 84.7906 108 74.7182 108C70.1974 108 66.0612 106.354 62.8739 103.629L62.8732 103.63L62.8571 103.616C62.496 103.306 62.1463 102.983 61.8108 102.647L42.5926 84.8601C42.0929 84.4449 41.6162 84.0031 41.1636 83.5374L41.1468 83.5222L41.1475 83.5211C37.9622 80.2368 36 75.7593 36 70.824C36 63.6677 40.1241 57.4736 46.1235 54.4859ZM72.0035 74.272L72.0029 74.2783C71.98 74.4012 71.9565 74.524 71.9316 74.6462L71.9228 74.6898C71.8993 74.8036 71.8751 74.917 71.8502 75.0299L71.8347 75.0956C71.8099 75.2037 71.7843 75.3116 71.7574 75.4191L71.7406 75.4869C71.7171 75.5798 71.6929 75.6724 71.668 75.7647C69.7973 82.7098 63.9289 88.0166 56.6828 89.0629C56.98 82.474 60.7739 76.7951 66.2522 73.8371C60.5943 70.7396 56.7567 64.7317 56.7567 57.8277C56.7567 56.4559 56.9087 55.1199 57.1965 53.8346L57.1985 53.8249C57.2261 53.7046 57.2537 53.5849 57.2832 53.4656L57.2886 53.4437C57.3176 53.3262 57.3478 53.2092 57.3787 53.0926L57.3821 53.0815L57.3841 53.0741C59.2495 46.1474 65.0916 40.8501 72.3108 39.7844C71.711 46.3302 67.6515 51.8763 61.9775 54.5782C68.0826 57.5273 72.2954 63.7777 72.2954 71.011C72.2954 72.1242 72.1952 73.2139 72.0035 74.272Z" fill="#2FBCE6"/>
<mask id="mask0_63_12241" style="mask-type:alpha" maskUnits="userSpaceOnUse" x="56" y="71" width="37" height="37">
<path d="M90.5528 80.6994C92.084 83.3689 92.9602 86.4615 92.9602 89.7587C92.9602 99.8314 84.7914 108 74.719 108C70.1982 108 66.0621 106.354 62.8747 103.63L62.8741 103.631L62.8579 103.616C62.4968 103.306 62.1472 102.984 61.8116 102.647L61.2676 102.144C59.1535 99.7956 57.8389 97.4804 57.1624 94.1725C56.88 92.7898 56.6944 91.3166 56.6594 89.9063C56.6554 89.7679 56.6776 89.064 56.6836 89.0632C63.9298 88.0169 69.7981 82.7101 71.6688 75.765C71.6937 75.6727 71.7179 75.5801 71.7415 75.4872L71.7583 75.4194C71.7852 75.3119 71.8107 75.204 71.8356 75.0959L71.8511 75.0302C71.876 74.9173 71.9002 74.8039 71.9237 74.6901L71.9324 74.6465C71.9573 74.5243 71.9809 74.4015 72.0037 74.2786L72.0044 74.2723C72.1456 73.4914 72.2377 72.6931 72.2761 71.8811C73.1099 71.764 73.9605 71.7026 74.8266 71.7026C81.5254 71.7026 87.381 75.3163 90.5528 80.6994Z" fill="white"/>
</mask>
<g mask="url(#mask0_63_12241)">
<path fill-rule="evenodd" clip-rule="evenodd" d="M90.5528 80.6994C92.084 83.3689 92.9602 86.4615 92.9602 89.7587C92.9602 99.8314 84.7914 108 74.719 108C70.1982 108 66.0621 106.354 62.8747 103.63L62.8741 103.631L62.8579 103.616C62.4968 103.306 62.1472 102.984 61.8116 102.647L61.2676 102.144C59.1535 99.7956 57.8389 97.4804 57.1624 94.1725C56.88 92.7898 56.6944 91.3166 56.6594 89.9063C56.6554 89.7679 56.6776 89.064 56.6836 89.0632C63.9298 88.0169 69.7981 82.7101 71.6688 75.765C71.6937 75.6727 71.7179 75.5801 71.7415 75.4872L71.7583 75.4194C71.7852 75.3119 71.8107 75.204 71.8356 75.0959L71.8511 75.0302C71.876 74.9173 71.9002 74.8039 71.9237 74.6901L71.9324 74.6465C71.9573 74.5243 71.9809 74.4015 72.0037 74.2786L72.0044 74.2723C72.1456 73.4914 72.2377 72.6931 72.2761 71.8811C73.1099 71.764 73.9605 71.7026 74.8266 71.7026C81.5254 71.7026 87.381 75.3163 90.5528 80.6994Z" fill="url(#paint0_linear_63_12241)"/>
</g>
<mask id="mask1_63_12241" style="mask-type:alpha" maskUnits="userSpaceOnUse" x="36" y="20" width="37" height="37">
<path d="M44.1581 53.3169C39.3461 50.0323 36.187 44.5052 36.187 38.2412C36.187 28.1687 44.3558 20 54.4282 20C58.1239 20 61.562 21.1001 64.4353 22.9896C69.2628 26.2718 72.4346 31.8086 72.4346 38.0845C72.4346 38.6641 72.362 39.2269 72.3102 39.7844C65.177 40.7554 59.2462 46.1577 57.3835 53.0741L57.3815 53.0815L57.3781 53.0926C57.3472 53.2092 57.3169 53.3262 57.288 53.4437L57.2826 53.4656C57.2531 53.5849 57.2255 53.7046 57.1979 53.8249L57.1959 53.8346C57.0278 54.585 56.9061 55.3528 56.8341 56.1349C55.9714 56.26 55.0905 56.3259 54.1935 56.3259C50.4857 56.3259 47.0368 55.2181 44.1581 53.3169Z" fill="white"/>
</mask>
<g mask="url(#mask1_63_12241)">
<path fill-rule="evenodd" clip-rule="evenodd" d="M44.1581 53.3169C39.3461 50.0323 36.187 44.5052 36.187 38.2412C36.187 28.1687 44.3558 20 54.4282 20C58.1239 20 61.562 21.1001 64.4353 22.9896C69.2628 26.2718 72.4346 31.8086 72.4346 38.0845C72.4346 38.6641 72.362 39.2269 72.3102 39.7844C65.177 40.7554 59.2462 46.1577 57.3835 53.0741L57.3815 53.0815L57.3781 53.0926C57.3472 53.2092 57.3169 53.3262 57.288 53.4437L57.2826 53.4656C57.2531 53.5849 57.2255 53.7046 57.1979 53.8249L57.1959 53.8346C57.0278 54.585 56.9061 55.3528 56.8341 56.1349C55.9714 56.26 55.0905 56.3259 54.1935 56.3259C50.4857 56.3259 47.0368 55.2181 44.1581 53.3169Z" fill="url(#paint1_linear_63_12241)"/>
</g>
<defs>
<linearGradient id="paint0_linear_63_12241" x1="59.91" y1="104.201" x2="83.8464" y2="83.6333" gradientUnits="userSpaceOnUse">
<stop stop-color="#0A4DA0"/>
<stop offset="1" stop-color="#39BCE7"/>
</linearGradient>
<linearGradient id="paint1_linear_63_12241" x1="66.1245" y1="30.0549" x2="48.9463" y2="51.2609" gradientUnits="userSpaceOnUse">
<stop stop-color="#0A4DA0"/>
<stop offset="1" stop-color="#39BCE7"/>
</linearGradient>
</defs>
</svg>
