<svg width="472" height="128" viewBox="0 0 472 128" fill="none" xmlns="http://www.w3.org/2000/svg">
<path fill-rule="evenodd" clip-rule="evenodd" d="M372.861 43.7426H399.874V61.4623C399.874 66.3573 400.012 68.8522 395.108 68.8522H379.13V86.1L384.129 86.1461L384.295 90.7572L376.516 90.8808C374.563 90.9118 372.888 89.4675 372.886 87.1722L372.861 43.7426ZM379.598 54.0255H392.671V47.9636H379.598V54.0255ZM379.598 64.4763H392.671V58.4145H379.598V64.4763Z" fill="#231916"/>
<path fill-rule="evenodd" clip-rule="evenodd" d="M238.669 89.5807L238.51 44.2114H288.039L288.357 85.5137C288.397 90.6966 283.677 89.5807 278.052 89.5807H238.669ZM270.85 74.9564C269.849 74.9471 268.961 74.896 268.326 74.5962C266.67 73.8125 266.395 72.6097 266.394 69.6637L266.389 49.6051H259.744V58.0316C259.744 62.1406 260.155 67.1881 258.516 70.2019C256.473 73.9563 249.643 77.2312 248.067 77.68L248.047 73.0091C253.997 68.5497 252.906 64.0939 252.906 58.0316V49.6051H245.584V85.2568L281.072 85.3643L281.178 75.0526L270.85 74.9564ZM272.603 70.5109H280.8V49.6051H272.658C272.64 56.5736 272.622 63.5422 272.603 70.5109Z" fill="#231916"/>
<path fill-rule="evenodd" clip-rule="evenodd" d="M334.188 90.9074H341.102V43.8881H334.188V90.9074Z" fill="#231916"/>
<path fill-rule="evenodd" clip-rule="evenodd" d="M316.895 87.2815H323.809V45.3173H316.895V87.2815Z" fill="#231916"/>
<path fill-rule="evenodd" clip-rule="evenodd" d="M293.951 91.1195V86.5836C297.841 83.8453 299.574 79.6707 299.574 74.0544V43.7508H306.701V72.7545C306.701 81.2744 303.032 87.3764 293.951 91.1195Z" fill="#231916"/>
<path fill-rule="evenodd" clip-rule="evenodd" d="M350.312 57.1576V52.5667C353.622 50.2618 355.362 47.0099 355.795 42.5385H362.34L361.918 46.4095L370.254 46.4489L370.174 50.8258H359.468C357.862 53.5653 353.908 56.1528 350.312 57.1576Z" fill="#231916"/>
<path fill-rule="evenodd" clip-rule="evenodd" d="M401.378 90.9756C390.532 87.7233 383.767 80.9482 381.084 70.64H387.748C388.614 73.3781 389.488 75.0984 390.641 77.1082C393.093 75.3842 393.706 73.664 394.858 70.64H401.615C399.882 75.6829 397.441 79.0342 393.126 80.9059C395.301 83.0815 397.659 84.5815 401.378 86.24V90.9756Z" fill="#231916"/>
<path fill-rule="evenodd" clip-rule="evenodd" d="M351.038 62.0377V57.7139H370.11V62.0377H363.801V68.4128H370.388V72.7366H363.801L363.828 86.2257L370.421 86.1488L370.209 90.7377L361.483 90.8688C358.406 90.9149 357.32 89.9658 357.32 87.155V72.7366H350.388V68.4128H357.32V62.0377H351.038Z" fill="#231916"/>
<path fill-rule="evenodd" clip-rule="evenodd" d="M408.165 58.1738V54.0618C413.493 52.0519 416.761 48.351 418.494 42.4412H425.409C422.957 51.0891 417.384 56.1546 408.165 58.1738Z" fill="#231916"/>
<path fill-rule="evenodd" clip-rule="evenodd" d="M430.26 50.0813H455.565V45.324H430.26V50.0813Z" fill="#231916"/>
<path fill-rule="evenodd" clip-rule="evenodd" d="M414.284 90.9079V69.8524C412.551 70.7191 410.54 71.4382 408.236 72.0098V67.9073C413.417 66.0357 416.874 62.0713 418.607 56.0233H425.734C424.444 59.914 422.784 62.938 420.765 65.0954V90.9079H414.284Z" fill="#231916"/>
<path fill-rule="evenodd" clip-rule="evenodd" d="M427.261 63.2937V58.5364H457.943V63.2937H449.951V84.0372C449.951 88.7834 449.355 91.0322 444.747 91.0322H435.255V86.628L442.734 86.6L442.823 63.2937H427.261Z" fill="#231916"/>
<path fill-rule="evenodd" clip-rule="evenodd" d="M167.195 53.1885C160.493 49.7543 155.904 42.7764 155.904 34.7286C155.904 23.2827 165.187 14 176.633 14C182.377 14 187.575 16.3382 191.33 20.1138V20.113L211.431 39.799C213.401 41.1558 215.124 42.8436 216.52 44.7828L216.525 44.7874L216.524 44.7887C218.973 48.1922 220.417 52.3676 220.417 56.8799C220.417 64.7266 216.054 71.5555 209.624 75.0753C216.054 78.5949 220.418 85.4242 220.418 93.2709C220.418 104.717 211.135 114 199.689 114C194.552 114 189.852 112.129 186.23 109.033L186.229 109.035L186.211 109.018C185.8 108.666 185.403 108.299 185.022 107.917L163.183 87.7046C162.615 87.2329 162.073 86.7308 161.559 86.2016L161.54 86.1843L161.541 86.183C157.921 82.4509 155.691 77.3629 155.691 71.7546C155.691 63.6224 160.378 56.5836 167.195 53.1885ZM196.604 75.6727L196.604 75.6799C196.578 75.8196 196.551 75.9591 196.523 76.0979L196.513 76.1475C196.486 76.2768 196.458 76.4057 196.43 76.534L196.412 76.6087C196.384 76.7315 196.355 76.8541 196.325 76.9762L196.305 77.0533C196.279 77.1589 196.251 77.2641 196.223 77.3689C194.097 85.2611 187.429 91.2916 179.194 92.4805C179.532 84.9932 183.843 78.5399 190.069 75.1785C183.639 71.6586 179.278 64.8314 179.278 56.986C179.278 55.4272 179.451 53.909 179.778 52.4484L179.78 52.4374C179.812 52.3007 179.843 52.1647 179.877 52.0291L179.883 52.0042C179.916 51.8707 179.95 51.7378 179.985 51.6052L179.989 51.5926L179.991 51.5842C182.111 43.713 188.75 37.6933 196.953 36.4823C196.272 43.9207 191.659 50.223 185.211 53.2934C192.149 56.6447 196.936 63.7474 196.936 71.9671C196.936 73.232 196.822 74.4703 196.604 75.6727Z" fill="#2FBCE6"/>
<mask id="mask0_63_12203" style="mask-type:alpha" maskUnits="userSpaceOnUse" x="179" y="72" width="42" height="42">
<path d="M217.683 82.9767C219.423 86.0102 220.419 89.5246 220.419 93.2715C220.419 104.718 211.136 114 199.69 114C194.553 114 189.853 112.13 186.231 109.034L186.23 109.035L186.212 109.018C185.801 108.667 185.404 108.3 185.023 107.918L184.404 107.346C182.002 104.677 180.508 102.046 179.739 98.2871C179.418 96.7159 179.208 95.0417 179.168 93.4391C179.163 93.2819 179.188 92.482 179.195 92.481C187.43 91.2921 194.098 85.2616 196.224 77.3694C196.252 77.2646 196.28 77.1594 196.306 77.0539L196.326 76.9768C196.356 76.8546 196.385 76.732 196.413 76.6092L196.431 76.5345C196.459 76.4063 196.487 76.2773 196.514 76.1481L196.523 76.0985C196.552 75.9596 196.579 75.8201 196.604 75.6804L196.605 75.6732C196.766 74.7858 196.87 73.8787 196.914 72.956C197.861 72.8229 198.828 72.7532 199.812 72.7532C207.425 72.7532 214.079 76.8596 217.683 82.9767Z" fill="white"/>
</mask>
<g mask="url(#mask0_63_12203)">
<path fill-rule="evenodd" clip-rule="evenodd" d="M217.683 82.9767C219.423 86.0102 220.419 89.5246 220.419 93.2715C220.419 104.718 211.136 114 199.69 114C194.553 114 189.853 112.13 186.231 109.034L186.23 109.035L186.212 109.018C185.801 108.667 185.404 108.3 185.023 107.918L184.404 107.346C182.002 104.677 180.508 102.046 179.739 98.2871C179.418 96.7159 179.208 95.0417 179.168 93.4391C179.163 93.2819 179.188 92.482 179.195 92.481C187.43 91.2921 194.098 85.2616 196.224 77.3694C196.252 77.2646 196.28 77.1594 196.306 77.0539L196.326 76.9768C196.356 76.8546 196.385 76.732 196.413 76.6092L196.431 76.5345C196.459 76.4063 196.487 76.2773 196.514 76.1481L196.523 76.0985C196.552 75.9596 196.579 75.8201 196.604 75.6804L196.605 75.6732C196.766 74.7858 196.87 73.8787 196.914 72.956C197.861 72.8229 198.828 72.7532 199.812 72.7532C207.425 72.7532 214.079 76.8596 217.683 82.9767Z" fill="url(#paint0_linear_63_12203)"/>
</g>
<mask id="mask1_63_12203" style="mask-type:alpha" maskUnits="userSpaceOnUse" x="155" y="14" width="43" height="42">
<path d="M164.962 51.8602C159.493 48.1276 155.904 41.8468 155.904 34.7286C155.904 23.2827 165.186 14 176.632 14C180.832 14 184.739 15.2501 188.004 17.3973C193.49 21.1271 197.094 27.4189 197.094 34.5505C197.094 35.2092 197.012 35.8488 196.953 36.4823C188.847 37.5857 182.107 43.7247 179.99 51.5842L179.988 51.5926L179.984 51.6052C179.949 51.7378 179.915 51.8707 179.882 52.0042L179.876 52.0291C179.842 52.1647 179.811 52.3007 179.78 52.4374L179.777 52.4484C179.586 53.3012 179.448 54.1737 179.366 55.0624C178.386 55.2045 177.385 55.2794 176.365 55.2794C172.152 55.2794 168.233 54.0205 164.962 51.8602Z" fill="white"/>
</mask>
<g mask="url(#mask1_63_12203)">
<path fill-rule="evenodd" clip-rule="evenodd" d="M164.962 51.8602C159.493 48.1276 155.904 41.8468 155.904 34.7286C155.904 23.2827 165.186 14 176.632 14C180.832 14 184.739 15.2501 188.004 17.3973C193.49 21.1271 197.094 27.4189 197.094 34.5505C197.094 35.2092 197.012 35.8488 196.953 36.4823C188.847 37.5857 182.107 43.7247 179.99 51.5842L179.988 51.5926L179.984 51.6052C179.949 51.7378 179.915 51.8707 179.882 52.0042L179.876 52.0291C179.842 52.1647 179.811 52.3007 179.78 52.4374L179.777 52.4484C179.586 53.3012 179.448 54.1737 179.366 55.0624C178.386 55.2045 177.385 55.2794 176.365 55.2794C172.152 55.2794 168.233 54.0205 164.962 51.8602Z" fill="url(#paint1_linear_63_12203)"/>
</g>
<path fill-rule="evenodd" clip-rule="evenodd" d="M35.0087 90.1656C37.7775 90.1557 40.2448 89.7963 42.4211 89.0876C44.5867 88.3789 46.4289 87.4105 47.9482 86.1726C49.4564 84.9347 50.6094 83.5172 51.3959 81.8999C52.9987 78.6687 53.1031 73.6448 51.4381 70.4192C47.9625 63.6863 38.5062 63.4564 31.9671 61.6169C30.5589 61.2209 29.3391 60.6365 28.218 60.1493C27.0877 59.6585 26.1788 59.0739 25.5028 58.3924C24.8324 57.7164 24.4739 56.8452 24.4685 55.8069C24.4633 54.8287 24.7652 53.9846 25.3306 53.2912C25.8961 52.597 26.688 52.0631 27.7223 51.694C31.5305 50.3343 37.9703 51.3673 41.527 52.7198C43.176 53.3469 44.7485 54.2473 46.2567 55.4254L50.9992 50.2782C49.6955 49.0603 48.2443 48.0158 46.6247 47.1736C39.1824 43.3034 27.6723 42.2923 20.8068 47.6981C19.333 48.8584 18.2988 49.7926 17.4975 51.3377C16.6937 52.887 16.2692 54.572 16.2692 56.3988C16.2692 58.0162 16.5538 59.4564 17.0988 60.7315C17.6418 62.0021 18.378 63.1203 19.2967 64.0859C20.2205 65.0567 21.2518 65.893 22.4106 66.5816C32.151 72.369 43.9447 70.1358 43.9447 76.1873C43.9447 83.6231 31.0019 82.4678 26.7881 80.1629C25.4529 79.4325 20.6474 76.9838 19.4949 75.9957L14 82.1052C15.5622 83.4825 17.2861 84.6609 19.1715 85.6191C21.0567 86.5774 26.594 88.9081 28.6737 89.4071C30.7528 89.9062 32.8647 90.1656 35.0087 90.1656Z" fill="#231916"/>
<path fill-rule="evenodd" clip-rule="evenodd" d="M79.7495 90.1548C82.8523 90.1491 88.243 89.1149 90.7953 87.9924C93.3391 86.8738 95.6002 85.2363 97.5724 83.0759L92.5299 77.5031C91.668 78.3814 90.7281 79.1452 89.718 79.805C88.7031 80.4676 87.6174 80.9877 86.4428 81.3596C85.2581 81.7345 81.4301 82.4012 80.0727 82.4012C60.7706 82.4012 61.2465 51.0428 80.4245 51.3283C82.0745 51.3538 84.2745 51.7752 86.0509 52.5352C88.4085 53.5439 90.2797 55.0981 91.8697 56.5683L96.9122 50.8745C91.2095 45.1967 80.7954 42.3015 73.1127 44.6538C70.9151 45.3303 68.8787 46.3197 67.0257 47.6321C65.1727 48.9343 63.5564 50.5396 62.1775 52.4375C60.8092 54.3356 59.7426 56.5164 58.9884 58.9592C58.2342 61.4124 57.8463 64.1181 57.8357 67.0763C57.8463 70.0745 58.2234 72.7803 58.9561 75.2233C59.6887 77.6565 60.723 79.8067 62.0696 81.6643C63.4057 83.5219 64.9895 85.0767 66.8102 86.3386C68.6418 87.6006 70.6456 88.5495 72.8329 89.1857C75.0197 89.8315 77.3254 90.1591 79.7495 90.1548Z" fill="#231916"/>
<path fill-rule="evenodd" clip-rule="evenodd" d="M103.909 89.3386H120.975C123.625 89.3386 126.07 89.0737 128.322 88.5447C136.48 86.6288 143.238 80.1095 138.353 71.0284C137.584 69.5982 136.524 68.432 135.174 67.5413C133.83 66.6534 133.328 66.4056 131.582 66.0235V65.722C137.347 64.0124 139.292 55.1232 135.746 50.467C134.743 49.1499 133.655 47.9245 132.093 47.0802C130.532 46.2361 128.7 45.633 126.599 45.2614C124.498 44.8895 122.214 44.7086 119.747 44.7181H103.909V89.3386ZM111.46 62.8682V51.5323H121.712C124.588 51.5323 126.739 51.9403 128.165 52.8085C129.594 53.6788 130.302 55.0798 130.309 57.0193C130.313 58.2151 130.004 59.2378 129.394 60.1145C128.786 60.9864 127.833 61.6685 126.549 62.1446C125.258 62.623 123.608 62.8682 121.582 62.8682H111.46ZM111.46 82.0698V69.6326H122.257C125.565 69.6326 128.063 69.9646 129.777 70.948C131.478 71.924 132.341 73.4905 132.341 75.6512C132.341 77.9625 131.467 79.6789 129.745 80.7966C128.03 81.9092 125.531 82.0698 122.257 82.0698H111.46Z" fill="#231916"/>
<defs>
<linearGradient id="paint0_linear_63_12203" x1="182.862" y1="109.683" x2="210.062" y2="86.3107" gradientUnits="userSpaceOnUse">
<stop stop-color="#0A4DA0"/>
<stop offset="1" stop-color="#39BCE7"/>
</linearGradient>
<linearGradient id="paint1_linear_63_12203" x1="189.923" y1="25.4261" x2="170.403" y2="49.5238" gradientUnits="userSpaceOnUse">
<stop stop-color="#0A4DA0"/>
<stop offset="1" stop-color="#39BCE7"/>
</linearGradient>
</defs>
</svg>
