<svg width="128" height="128" viewBox="0 0 128 128" fill="none" xmlns="http://www.w3.org/2000/svg">
<path d="M48.821 66.5295V76.1785C48.821 76.9741 49.1371 77.7372 49.6997 78.2998C50.2623 78.8624 51.0254 79.1785 51.821 79.1785H61.976V106.5H32.5C26.425 106.5 21.5 101.575 21.5 95.5V66.5295H48.821ZM106.5 66.5295V95.5C106.5 101.575 101.575 106.5 95.5 106.5H66.0235V79.1785H76.1785C76.9547 79.1785 77.7007 78.8777 78.2597 78.3393C78.8188 77.8008 79.1474 77.0666 79.1765 76.291L79.1785 76.1785V66.53H106.5V66.5295ZM61.976 21.5V48.821H51.821C51.0448 48.8211 50.2989 49.122 49.7399 49.6606C49.181 50.1991 48.8525 50.9334 48.8235 51.709L48.8215 51.8215L48.821 62.482H21.5V32.5C21.5 26.425 26.425 21.5 32.5 21.5H61.976ZM95.5 21.5C101.575 21.5 106.5 26.425 106.5 32.5V62.482H79.1785V51.8215C79.1785 51.0453 78.8777 50.2993 78.3393 49.7403C77.8008 49.1812 77.0666 48.8526 76.291 48.8235L76.1785 48.8215L66.0235 48.821V21.5H95.5Z" fill="#E60019"/>
</svg>
