<svg width="414" height="128" viewBox="0 0 414 128" fill="none" xmlns="http://www.w3.org/2000/svg">
<path d="M345.532 29.8456L347.08 26.222H356.81L352.385 35.1861C351.348 37.4628 348.993 38.5257 345.315 38.3794H338.461V32.1998H342.651C344.13 32.1998 345.089 31.4077 345.531 29.8456H345.532ZM345.532 42.8651L347.08 39.246H356.81L352.385 48.2015C352.068 48.894 351.626 49.484 351.062 49.9487V74.8742H342.439V51.3993H338.461V45.2149H342.651C344.13 45.2149 345.089 44.4361 345.532 42.8651V42.8651ZM357.78 39.2467H393.075V45.6459H384.439V69.1123C384.439 72.9552 381.858 74.8746 376.701 74.8746H362.374V68.2606H374.267C375.291 68.4024 375.816 67.6921 375.816 66.1301V45.6455H357.78V39.2463V39.2467ZM361.035 33.4811V27.2841H389.747V33.4811H361.035ZM152.152 65.1558C152.152 67.8195 153.935 69.1108 156.798 69.1108H193.495V75.0879H156.577C153.822 75.0879 151.632 74.2402 150.166 72.9537C149.428 74.098 148.396 74.662 147.069 74.662H142.874V69.1108H143.755C144.778 69.1108 145.303 68.5513 145.303 67.411V42.4422H143.312V36.4604H152.152V65.1558V65.1558ZM144.424 34.1181V26.2213H152.375V34.1181H144.424ZM193.496 36.4326H171.392L170.281 38.6149H179.793V43.9595L185.532 38.6149H193.496L185.983 45.186L189.519 59.6412C189.662 60.7 190.252 61.2292 191.288 61.2292H193.496V66.7892H187.302C184.652 67.0433 183.181 65.7868 182.882 63.0153L179.793 49.9243V61.2292C180.084 65.3391 177.946 67.2544 173.378 66.9874H167.631V61.2292H170.502C171.682 61.3625 172.19 60.7733 172.051 59.439V46.5502L164.976 54.2923C164.429 54.7829 163.883 55.1659 163.341 55.454H171.829L164.091 64.8484C162.616 66.5571 161.002 67.3358 159.224 67.1981H154.366V60.373H157.242C157.975 60.5108 158.79 60.1619 159.671 59.3057L162.469 55.8284C161.827 56.048 161.194 56.1254 160.56 56.0695H154.366V50.5142H158.79C159.523 50.5142 160.187 50.1913 160.773 49.5243L163.653 46.1507H172.051V43.7665H167.188C166.004 45.3589 164.386 46.0859 162.33 45.9481H154.587V40.3969H158.123C159.888 40.5343 161.142 39.9407 161.884 38.6153L162.769 36.4333H154.587V30.4815H159.719L158.773 26.2209H167.149L168.099 30.4811H179.759L180.709 26.2209H189.085L188.139 30.4811H193.496V36.433V36.4326ZM210.342 52.4051V45.5756H259.862V52.4051H240.32V69.7478C240.32 74.4516 239.075 75.0886 235.237 75.0886H219.274V68.9042H230.808C231.693 68.9042 232.144 68.4053 232.144 67.411V52.4055H210.343L210.342 52.4051ZM239.22 29.7782H259.863V42.3704H251.678V36.397H218.525V42.3704H210.344V29.7786H228.371L227.343 26.2238H238.192L239.22 29.7786L239.22 29.7782ZM284.876 26.6494L283.991 29.4209H293.278V35.8245H282.221C281.479 38.0965 280.152 39.2456 278.247 39.2456H272.492V33.4833H273.602C274.63 33.4833 275.216 32.9756 275.372 31.9813L277.137 26.6494H284.876V26.6494ZM272.932 47.3516V41.3742H293.276V47.3513H285.095V53.1054H293.276V59.0913H285.095V68.5287C285.095 69.5959 285.459 69.9703 286.366 69.9703H291.506V74.8764H281.335C278.979 74.8764 277.799 73.2411 277.799 69.9703V59.0909H272.932V53.105H277.799V47.3513H272.932V47.3516ZM303.008 68.6883C303.008 69.5534 303.368 69.9707 304.114 69.9707H307.936V74.8768H299.69C296.883 74.8768 295.486 73.5899 295.486 71.4642V27.2848H322.02V48.2037C322.163 50.7553 320.688 52.0466 317.596 52.0466H303.008V68.6879V68.6883ZM303.008 33.0475V36.8859H314.498V33.0475H303.008ZM303.008 42.2308V46.2847H313.401C314.277 46.2847 314.65 45.8589 314.498 45.0023V42.2308H303.008V42.2308ZM318.302 68.5472C319.009 70.0663 319.755 69.8555 321.36 69.8555H324.24V74.8775H317.152C314.394 74.8775 312.299 74.2191 310.923 70.9443C309.075 66.5634 303.727 53.3431 303.727 53.3431H311.34C311.34 53.3431 312.038 54.8666 313.006 56.9968H314.186C314.589 57.1004 315.036 56.842 315.526 56.1965L317.222 53.3431H324.908L321.048 60.3404C320.241 61.6058 319.348 62.1909 318.38 62.0835H315.335C316.489 64.614 317.621 67.0925 318.302 68.5472V68.5472ZM142.874 96.4278H145.454C145.467 97.8043 146.076 98.8079 147.278 99.4382C148.233 99.9485 149.486 100.206 151.046 100.206C152.459 100.206 153.596 99.9571 154.452 99.4553C155.312 98.9535 155.74 98.2591 155.74 97.3666C155.74 96.0546 154.664 95.2269 152.507 94.8751L148.566 94.2407C145.126 93.696 143.41 92.2291 143.41 89.849C143.41 88.3011 144.019 87.0616 145.247 86.1395C146.47 85.2137 148.172 84.75 150.363 84.75C152.373 84.75 154.016 85.1233 155.278 85.8566C156.82 86.7616 157.646 88.1551 157.758 90.0164H155.182C154.845 87.9492 153.125 86.9157 150.026 86.9157C148.933 86.9157 148.03 87.1305 147.299 87.5504C146.427 88.0522 145.985 88.7554 145.985 89.6605C145.985 90.8185 146.932 91.5558 148.83 91.8691L153.086 92.5765C156.578 93.1557 158.32 94.5881 158.32 96.8737C158.32 98.8335 157.516 100.283 155.913 101.222C154.599 101.986 152.909 102.372 150.852 102.372C148.583 102.372 146.764 101.956 145.402 101.128C143.712 100.124 142.874 98.5591 142.874 96.4278V96.4278ZM165.665 95.6046V85.1751H168.245V95.909C168.245 98.7739 170.004 100.206 173.526 100.206C177.044 100.206 178.798 98.7739 178.798 95.909V85.1751H181.383V95.6046C181.383 100.116 178.764 102.372 173.526 102.372C168.283 102.372 165.665 100.116 165.665 95.6046ZM190.433 101.951V85.1789H193.013V101.951H190.433ZM215.987 101.947L204.785 88.6058V101.948H202.205V85.1751H205.208L216.414 98.5165V85.1751H218.99V101.947H215.987V101.947ZM228.187 101.951V85.1789H230.763V101.951H228.187ZM253.747 101.947L242.545 88.6058V101.948H239.965V85.1751H242.964L254.17 98.5165V85.1751H256.751V101.947H253.747H253.747ZM271.342 94.6981V92.5409H279.32V101.581H277.47L277.029 99.1883C275.366 101.062 273.14 102.006 270.37 102.006C267.202 102.006 264.803 101.041 263.17 99.1194C261.856 97.5844 261.194 95.7016 261.194 93.4801C261.194 90.4567 262.154 88.1326 264.064 86.5031C265.706 85.0959 267.781 84.3886 270.292 84.3886C275.21 84.3886 278.119 86.2928 279.03 90.0968H276.303C275.495 87.7337 273.533 86.5502 270.417 86.5502C268.243 86.5502 266.566 87.2234 265.382 88.5699C264.315 89.7794 263.774 91.3444 263.774 93.2657C263.774 95.5087 264.449 97.1985 265.793 98.3432C266.973 99.3427 268.559 99.8445 270.538 99.8445C272.392 99.8445 273.909 99.3597 275.115 98.3861C276.264 97.4514 276.904 96.2205 277.029 94.6981H271.342V94.6981ZM300.721 101.644V84.8756H310.38C313.95 84.8756 315.734 86.278 315.734 89.0828C315.734 90.8456 314.887 92.0291 313.202 92.625V92.6724C315.388 93.1568 316.486 94.5377 316.486 96.8063C316.486 98.1228 316.037 99.2294 315.147 100.121C314.139 101.138 312.756 101.644 310.989 101.644H300.721L300.721 101.644ZM303.301 91.8058H310.332C311.24 91.8058 311.948 91.5788 312.45 91.1244C312.921 90.7122 313.154 90.1594 313.154 89.4557C313.154 87.8433 312.16 87.0331 310.185 87.0331H303.301V91.8054L303.301 91.8058ZM303.301 99.4864H310.28C312.701 99.4864 313.902 98.5391 313.902 96.6434C313.902 94.8551 312.769 93.963 310.5 93.963H303.301V99.4867V99.4864ZM337.491 101.669L335.279 96.7845H326.769L324.552 101.669H321.778L329.639 84.897H332.578L340.439 101.669H337.491V101.669ZM334.332 94.6232L330.999 87.1997L327.741 94.6232H334.332ZM360.534 101.998L349.328 88.6603V101.998H346.752V85.2255H349.752L360.958 98.5668V85.2248H363.538V101.997H360.534V101.998ZM384.441 102.046L377.34 93.8763L374.177 96.5738V102.046H371.601V85.2777H374.177V93.7093L383.883 85.2781H387.531L379.285 92.2298L387.993 102.046H384.441V102.046Z" fill="#1B1918"/>
<path d="M14.001 63.9975C13.9661 69.2289 14.8493 74.7152 16.5145 79.7593C16.5145 79.7593 20.0713 80.4831 24.0939 80.4791C31.8381 80.4864 44.0041 78.458 54.0207 73.7233C55.4946 73.0447 56.9686 72.3661 58.5428 71.6824C65.5553 67.2014 76.9282 59.481 83.6673 57.5282C90.2109 55.6859 92.1066 55.3881 97.3379 55.423C97.3379 55.423 83.8148 54.5036 67.5452 60.8646C58.6709 64.3343 41.0522 75.7926 33.7146 66.0093C45.738 76.9616 61.4318 51.4211 94.2141 51.3584C106.182 51.3515 114.215 55.0652 116.077 56.0765C115.941 55.3795 115.91 54.7776 115.91 54.7776C111.413 31.6748 90.5005 14.0354 65.5575 14C37.4999 14.0229 13.973 35.8395 14.001 63.9975Z" fill="url(#paint0_linear_63_12910)"/>
<path d="M83.6696 57.5162C76.9576 59.4331 65.5944 67.2044 58.5442 71.7152C58.5442 71.7152 67.069 67.9071 77.4696 67.9085C86.8933 67.8714 96.4794 73.7864 96.4591 84.0827C96.4539 92.9752 82.4875 99.7632 65.1911 99.772C47.8425 99.7902 33.7419 92.7533 33.7423 84.1312C33.7804 83.747 33.9566 82.6373 33.9566 82.6373C33.9566 82.6373 30.3089 83.6217 25.7844 83.6332C21.2599 83.6448 17.8076 83.031 17.8076 83.031L18.1581 83.7758C26.3237 102.073 44.8605 113.964 65.1827 114C78.6519 113.984 91.0947 109.197 101.102 99.8927C110.982 90.7736 116.733 77.6066 116.778 65.3659C116.778 65.3659 116.258 63.0891 113.338 60.6544C109.844 57.7308 103.543 55.37 97.3439 55.3616C92.1744 55.3823 90.2251 55.6278 83.6696 57.5162Z" fill="url(#paint1_linear_63_12910)"/>
<path d="M25.7679 83.6683C21.207 83.6683 17.8257 83.0392 17.8257 83.0392L18.1402 83.747C21.5216 91.296 26.9474 98.216 33.5528 103.327L34.4178 103.878C42.9105 107.259 50.145 108.124 57.9299 108.124C76.7239 108.124 96.4615 98.216 96.4615 84.1401C96.4615 93.1046 82.1497 99.7887 65.1644 99.7887C47.8645 99.7887 33.7101 92.7115 33.7101 84.1401C33.7101 83.747 33.946 82.6461 33.946 82.6461C33.946 82.6461 30.2501 83.6683 25.7679 83.6683Z" fill="url(#paint2_linear_63_12910)"/>
<defs>
<linearGradient id="paint0_linear_63_12910" x1="13.8313" y1="48.8417" x2="114.14" y2="43.7263" gradientUnits="userSpaceOnUse">
<stop stop-color="#00418F"/>
<stop offset="0.07" stop-color="#00418F"/>
<stop offset="0.6" stop-color="#39A6C1"/>
<stop offset="0.97" stop-color="#84CABF"/>
<stop offset="1" stop-color="#84CABF"/>
</linearGradient>
<linearGradient id="paint1_linear_63_12910" x1="64.8585" y1="60.763" x2="74.3131" y2="112.938" gradientUnits="userSpaceOnUse">
<stop stop-color="#0A6FAC"/>
<stop offset="0.1" stop-color="#0A6FAC"/>
<stop offset="0.31" stop-color="#0A6FAC"/>
<stop offset="0.8" stop-color="#004097"/>
<stop offset="1" stop-color="#004097"/>
</linearGradient>
<linearGradient id="paint2_linear_63_12910" x1="17.8257" y1="95.3849" x2="96.4615" y2="95.3849" gradientUnits="userSpaceOnUse">
<stop stop-color="#00418F"/>
<stop offset="0.07" stop-color="#00418F"/>
<stop offset="0.6" stop-color="#39A6C1"/>
<stop offset="0.97" stop-color="#84CABF"/>
<stop offset="1" stop-color="#84CABF"/>
</linearGradient>
</defs>
</svg>
