<svg width="529" height="128" viewBox="0 0 529 128" fill="none" xmlns="http://www.w3.org/2000/svg">
<path d="M193.503 12.3254L194.885 12.4242L196.267 12.6709L197.501 13.0164L198.735 13.4606L199.87 14.0529L201.005 14.7438L202.042 15.5335L202.93 16.4219L203.819 17.3103L204.608 18.3467L205.299 19.4819L205.892 20.617L206.336 21.8509L206.681 23.0848L206.78 24.5654L206.879 25.9474V102.151L206.78 103.533L206.533 104.915L206.188 106.149L205.743 107.383L205.151 108.518L204.46 109.653L203.671 110.69L202.782 111.578L201.894 112.466L200.857 113.256L199.722 113.947L198.587 114.539L197.353 114.983L196.119 115.329L194.737 115.576L193.355 115.674H27.5232L26.1413 115.576L24.7594 115.329L23.5255 114.983L22.2916 114.539L21.1564 113.947L20.0213 113.256L18.9848 112.466L18.0965 111.578L17.2081 110.69L16.4184 109.653L15.7274 108.518L15.1352 107.383L14.691 106.149L14.3455 104.915L14.0987 103.434L14 102.052V25.8487L14.0987 24.4667L14.3455 23.0848L14.691 21.8509L15.1352 20.617L15.7274 19.4819L16.4184 18.3467L17.2081 17.3103L18.0965 16.4219L18.9848 15.5335L20.0213 14.7438L21.1564 14.0529L22.2916 13.4606L23.5255 13.0164L24.7594 12.6709L26.1413 12.4242L27.5232 12.3254H193.503V12.3254ZM193.503 14.497H27.77C21.4526 14.497 16.369 19.4819 16.2703 25.75V102.052C16.2703 108.37 21.3045 113.404 27.5726 113.503H193.503C199.821 113.503 204.904 108.518 205.003 102.201V25.9474C204.904 19.5806 199.772 14.497 193.503 14.497V14.497ZM193.257 18.3961C197.452 18.3961 200.857 21.8016 200.857 25.9967V77.8193C200.857 82.0145 197.452 85.4199 193.257 85.4199H27.6713C23.4761 85.4199 20.0706 82.0145 20.0706 77.8193V25.9967C20.0706 21.8016 23.4761 18.3961 27.6713 18.3961H193.257ZM145.629 38.6809H115.819C115.474 38.6809 115.227 38.9277 115.227 39.2238V41.8396C115.227 42.1851 115.474 42.3825 115.819 42.3825H128.108V55.659H114.783C114.437 55.659 114.19 55.9057 114.19 56.2019V58.9164C114.19 59.2619 114.437 59.4593 114.783 59.4593H128.108V64.6416C128.108 64.987 128.355 65.1844 128.701 65.1844H132.797C133.143 65.1844 133.389 64.9377 133.389 64.6416V59.558H146.715C147.061 59.558 147.307 59.3112 147.307 59.0151V56.2512C147.307 55.9057 147.061 55.7083 146.715 55.7083H133.389V42.4319H145.679C146.024 42.4319 146.271 42.1851 146.271 41.889V39.2732C146.172 38.8783 145.975 38.6809 145.629 38.6809V38.6809ZM57.1361 37.2003H52.7929C52.4474 37.2003 52.2006 37.447 52.2006 37.7432V40.9512H41.54C39.6152 40.9512 38.0358 42.5306 38.0358 44.4554V56.0045C38.0358 57.9293 39.6152 59.5087 41.54 59.5087H52.25V64.4935C52.25 64.839 52.4968 65.0364 52.8422 65.0364H57.1855C57.531 65.0364 57.7777 64.7896 57.7777 64.4935V59.558H68.4877C70.4126 59.558 71.9919 57.9787 71.9919 56.0538V44.4554C71.9919 42.5306 70.4126 40.9512 68.4877 40.9512H57.679V37.7925C57.679 37.447 57.4816 37.2003 57.1361 37.2003V37.2003ZM106.738 38.0887H80.3329C78.408 38.0887 76.8287 39.668 76.8287 41.5928V60.8906C76.8287 62.8154 78.408 64.3948 80.3329 64.3948H106.738C108.663 64.3948 110.242 62.8154 110.242 60.8906V41.6422C110.242 39.7174 108.663 38.0887 106.738 38.0887ZM160.534 44.8009H157.03C156.685 44.8009 156.438 45.0477 156.438 45.3438V47.6141H150.861C150.515 47.6141 150.269 47.8609 150.269 48.157V50.8222C150.269 51.1677 150.515 51.3651 150.861 51.3651H156.093V52.9445C156.093 54.8693 156.981 56.6954 159.301 57.8306C160.189 58.2748 161.324 58.719 162.509 59.3112C160.485 60.1009 158.511 60.5451 156.586 60.5451H151.601C151.256 60.5451 150.91 60.7919 150.91 61.088V63.7038C150.91 64.0493 151.157 64.2467 151.601 64.2467H156.487C158.412 64.2467 160.831 63.8025 162.854 63.1115C163.644 62.7661 165.223 62.0751 166.951 61.2854C168.777 62.0751 170.257 62.7661 171.146 63.1115C173.169 63.9012 175.588 64.2467 177.513 64.2467H182.399C182.744 64.2467 182.991 63.9999 182.991 63.7038V61.088C182.991 60.7425 182.744 60.5451 182.399 60.5451H177.364C175.44 60.5451 173.613 60.1996 171.442 59.3112C172.577 58.7683 173.712 58.1761 174.65 57.8306C177.019 56.6954 177.858 54.8693 177.858 52.9445V51.4638H183.09C183.435 51.4638 183.682 51.217 183.682 50.9209V48.3051C183.929 47.9596 183.682 47.6141 183.336 47.6141H178.105V45.3438C178.105 44.9983 177.858 44.8009 177.513 44.8009H174.008C173.663 44.8009 173.317 45.0477 173.317 45.3438V47.6141H161.077V45.3438C161.077 45.0477 160.88 44.8009 160.534 44.8009V44.8009ZM105.454 41.6422V60.7919H81.468V41.6422H105.454ZM103.085 43.7645H83.9851V46.9232H91.1416V49.0948H85.0216V52.0561H91.1416V55.2148H83.9851V58.3735H103.085V53.8328H99.4332V55.2148H95.929V52.0561H102.049V49.2428H95.929V46.9725H103.085V43.7645V43.7645ZM173.021 51.4638L173.12 52.599C173.12 53.6354 172.873 54.5238 171.541 55.2148C170.405 55.7577 168.579 56.5967 167 57.3864C165.421 56.5967 163.594 55.807 162.459 55.2148C161.077 54.5238 160.88 53.7341 160.88 52.599V51.4638H173.021V51.4638ZM52.1513 45.0477V55.9551H42.9219V45.0477H52.1513V45.0477ZM66.9084 45.0477V55.9551H57.679V45.0477H66.9084V45.0477ZM144.149 44.5541H140.052C139.608 44.5541 139.164 44.8009 139.016 45.097L134.919 53.0925C134.821 53.438 134.919 53.6354 135.265 53.6354H139.361C139.805 53.6354 140.25 53.3887 140.398 53.0925L144.494 45.1464C144.593 44.8009 144.494 44.5541 144.149 44.5541ZM121.149 44.5541H117.053C116.707 44.5541 116.461 44.8009 116.707 45.097L120.804 53.0432C120.903 53.2899 121.248 53.5861 121.84 53.5861H125.937C126.282 53.5861 126.529 53.3393 126.282 53.0432L122.186 45.097C122.087 44.8009 121.643 44.5541 121.149 44.5541ZM168.925 37.1016H164.828C164.483 37.1016 164.236 37.3483 164.236 37.6445V39.1251H153.427C151.7 39.1251 150.219 40.507 150.219 42.2838V44.3074C150.466 44.6528 150.664 44.8503 151.009 44.8503H153.872C154.217 44.8503 154.464 44.6035 154.464 44.3074V42.4812H179.487V44.3074C179.487 44.6528 179.733 44.8503 180.079 44.8503H182.942C183.287 44.8503 183.534 44.6035 183.534 44.3074V42.2838C183.534 40.6058 182.152 39.1251 180.326 39.1251H169.517V37.6445C169.517 37.299 169.27 37.1016 168.925 37.1016V37.1016Z" fill="#EC681B"/>
<path d="M71.4986 97.3118C71.6466 97.6573 71.9427 97.756 72.3869 97.6079C75.2002 96.3247 76.9769 95.2883 77.7666 94.4986C78.2602 94.1531 78.5563 93.9557 78.655 93.9557C78.8031 94.005 79.0992 94.2024 79.5434 94.5479C81.3202 95.7818 83.245 96.7689 85.2192 97.4599C85.6634 97.6079 85.9595 97.5092 86.1076 97.1637C86.2063 96.7689 86.0089 96.4728 85.5647 96.2753C83.5411 95.535 81.6657 94.5973 79.9382 93.3634C79.2473 92.8205 78.8031 92.5737 78.6056 92.5737C78.3589 92.5737 77.9147 92.8205 77.2731 93.3634C75.595 94.696 73.7689 95.6831 71.7453 96.3741C71.4986 96.5715 71.3505 96.8676 71.4986 97.3118V97.3118ZM85.7127 106.245C86.0089 106.196 86.1569 105.998 86.2063 105.653C86.1569 105.357 86.0089 105.159 85.7127 105.159H82.3073C82.406 105.159 82.4553 105.11 82.554 105.061C83.0476 104.468 83.5905 103.481 84.2815 102.05C84.3802 101.704 84.2815 101.408 83.9853 101.211C83.6892 101.112 83.4424 101.211 83.245 101.556C82.8502 102.494 82.3073 103.382 81.5669 104.32C81.3202 104.715 81.3695 105.011 81.6657 105.159H79.4447V100.767H84.8737C85.1698 100.767 85.3673 100.569 85.4166 100.224C85.3673 99.9276 85.2192 99.7302 84.8737 99.6808H79.4447V97.8054H82.8502C83.1463 97.8054 83.3437 97.6079 83.3931 97.2624C83.3437 96.9663 83.1956 96.7689 82.8502 96.7195H74.8053C74.4598 96.7689 74.2624 96.9169 74.2624 97.2624C74.2624 97.6079 74.4598 97.8054 74.8053 97.8054H78.1615V99.6808H72.8311C72.4856 99.7302 72.2882 99.8782 72.2882 100.224C72.2882 100.569 72.4856 100.767 72.8311 100.767H78.1615V105.159H72.2389C71.8934 105.159 71.696 105.307 71.696 105.653C71.696 105.998 71.8934 106.196 72.2389 106.245H85.7127ZM75.0027 104.518C75.2002 104.912 75.4963 105.06 75.8418 104.863C76.1379 104.715 76.1873 104.419 76.0392 103.975C75.6444 103.136 75.2002 102.346 74.7066 101.655C74.4105 101.359 74.1144 101.31 73.8182 101.458C73.5221 101.704 73.5221 102 73.7195 102.297C74.1637 102.988 74.6079 103.728 75.0027 104.518V104.518ZM100.766 106.739C100.865 107.035 101.062 107.133 101.408 107.035C101.704 106.936 101.852 106.739 101.802 106.442C101.654 105.603 101.26 104.468 100.717 103.086C100.569 102.79 100.322 102.691 99.9763 102.79C99.6802 102.938 99.5815 103.185 99.6802 103.53C99.6802 103.629 99.8282 104.073 100.174 104.962L98.8905 105.11V101.803H100.371C100.914 101.852 101.161 101.556 101.161 100.915V95.3376C101.161 94.7947 100.865 94.5479 100.272 94.5479H98.8905V93.2647C98.8411 92.9686 98.6437 92.7712 98.2982 92.7218C97.9527 92.7712 97.7553 92.9192 97.7553 93.2647V94.5973H96.4227C95.7318 94.5973 95.4356 94.8934 95.485 95.4857V101.063C95.3863 101.655 95.7811 101.902 96.5708 101.852H97.7553V105.209C96.4227 105.307 95.7811 105.357 95.7318 105.406C95.3369 105.455 95.1395 105.653 95.1395 105.998C95.2382 106.344 95.4356 106.541 95.8798 106.541C95.9785 106.492 97.5085 106.294 100.569 105.949C100.667 106.344 100.717 106.64 100.766 106.739V106.739ZM94.3005 93.9063C94.646 93.9063 94.8434 93.7583 94.8434 93.4128C94.8434 93.0673 94.646 92.9192 94.3005 92.8699H88.3286C87.9337 92.9192 87.6869 93.0673 87.6869 93.4128C87.7363 93.7089 87.9337 93.9063 88.3286 93.9063H94.3005ZM93.116 97.6573C93.8069 97.756 94.1031 97.4105 94.0537 96.6208V95.5844C94.1031 94.8934 93.8069 94.5973 93.1653 94.6466H89.2663C88.5753 94.6466 88.2792 94.9428 88.3286 95.5844V96.6208C88.2792 97.3118 88.6247 97.6573 89.2663 97.6573H93.116ZM96.9163 100.717C96.6202 100.767 96.5215 100.668 96.5708 100.421V96.0286C96.5215 95.7818 96.6695 95.6337 96.9656 95.6337H97.7553V100.717H96.9163ZM100.124 100.421C100.124 100.668 100.026 100.767 99.7789 100.717H98.8905V95.6337H99.6802C99.9763 95.6337 100.075 95.7818 100.075 96.1273V100.421H100.124ZM92.7211 96.6702H89.6611C89.4144 96.6702 89.3156 96.5715 89.3156 96.3247V95.9792C89.2663 95.8312 89.365 95.7324 89.6118 95.7324H92.7211C92.9185 95.7324 93.0173 95.8312 93.0173 95.9792V96.3741C93.0173 96.5715 92.9185 96.6702 92.7211 96.6702V96.6702ZM88.1311 106.689C88.4273 106.64 88.6247 106.492 88.674 106.196V99.9769C88.6247 99.6808 88.7727 99.5821 89.0689 99.5821H93.5602C93.7082 99.5821 93.8069 99.7302 93.8563 99.9769V105.209C93.8563 105.554 93.5108 105.603 92.7705 105.406C92.4744 105.307 92.2276 105.357 92.1289 105.653C92.0302 105.949 92.1782 106.196 92.4744 106.294C94.0044 106.788 94.794 106.442 94.8927 105.357V99.7302C94.8927 98.9898 94.4979 98.6444 93.6589 98.6444H88.7234C87.9831 98.6937 87.6376 98.9899 87.6376 99.5821V106.245C87.6376 106.442 87.7856 106.64 88.1311 106.689V106.689ZM91.1911 105.998C91.4873 105.949 91.6847 105.801 91.734 105.505V103.185H93.116C93.6589 102.889 93.6589 102.543 93.116 102.149H92.4744C92.6718 101.852 92.8692 101.408 93.116 100.816C93.1653 100.717 93.2147 100.569 93.3134 100.47C93.4121 100.125 93.3134 99.8289 93.0173 99.6808C92.6718 99.5821 92.425 99.7302 92.3756 100.026C92.1782 100.52 91.9314 101.063 91.586 101.655C91.4873 101.852 91.4379 102 91.5366 102.149H89.5131C89.1676 102.198 88.9702 102.346 88.9702 102.691C88.9702 102.988 89.1676 103.185 89.5131 103.185H90.7469V105.603C90.6976 105.85 90.8456 105.998 91.1911 105.998V105.998ZM89.8585 101.704C90.0066 102.05 90.2534 102.198 90.5989 102.099C90.895 101.951 90.9937 101.704 90.895 101.31C90.7963 101.063 90.5989 100.767 90.4015 100.421C90.3027 100.273 90.3027 100.125 90.3027 100.076C90.1547 99.7795 89.9079 99.6808 89.5624 99.7795C89.2663 99.9276 89.1676 100.174 89.3156 100.52C89.4144 100.816 89.5624 101.112 89.6611 101.408C89.7598 101.556 89.8092 101.655 89.8585 101.704V101.704ZM110.341 100.915C111.13 100.915 111.575 100.52 111.673 99.6808C111.575 98.8912 111.13 98.447 110.341 98.3482C109.551 98.447 109.107 98.8912 109.107 99.6808C109.156 100.471 109.551 100.865 110.341 100.915ZM122.531 106.788C122.877 106.739 123.074 106.59 123.124 106.245V99.8783C123.716 100.471 124.21 101.112 124.555 101.852C124.703 102.198 124.95 102.247 125.345 102.05C125.641 101.803 125.69 101.507 125.542 101.161C124.802 100.174 124.012 99.2366 123.124 98.3482V98.0521H125.098C125.74 97.6573 125.74 97.2131 125.098 96.8183H123.124V94.3505C123.222 94.3505 123.42 94.3505 123.667 94.3011C124.259 94.2024 124.703 94.1037 124.999 94.005C125.295 93.9063 125.443 93.6595 125.345 93.2647C125.246 92.9686 124.999 92.8205 124.703 92.8699C123.469 93.166 121.89 93.4128 119.916 93.5115C119.62 93.5608 119.471 93.7583 119.521 94.1037C119.57 94.4492 119.718 94.6466 120.064 94.6466C120.804 94.6466 121.495 94.5973 122.038 94.5479V96.8183H119.768C119.126 97.2131 119.126 97.6573 119.718 98.0521H121.89C121.199 99.8289 120.31 101.161 119.175 102.05C118.929 102.346 118.929 102.691 119.126 102.988C119.373 103.185 119.669 103.136 120.014 102.79C120.853 102 121.544 101.063 122.038 99.9769V106.196C121.989 106.541 122.186 106.739 122.531 106.788V106.788ZM131.119 106.985C131.465 106.936 131.662 106.788 131.711 106.442V102.889C131.909 102.84 132.452 102.79 133.291 102.642C133.587 102.593 133.686 102.395 133.686 102.05C133.587 101.655 133.439 101.458 133.143 101.458C133.044 101.507 132.748 101.556 132.353 101.556C132.106 101.606 131.909 101.606 131.711 101.606V93.6595C131.662 93.3634 131.465 93.166 131.119 93.1167C130.724 93.166 130.527 93.3141 130.527 93.6595V101.803C129.836 101.902 128.948 102.099 127.763 102.297C126.776 102.445 125.838 102.593 124.95 102.691C124.604 102.79 124.407 102.988 124.456 103.432C124.555 103.777 124.802 103.975 125.197 103.925C125.591 103.876 126.184 103.827 126.973 103.679C128.355 103.432 129.49 103.234 130.527 103.086V106.492C130.527 106.788 130.724 106.936 131.119 106.985V106.985ZM128.997 97.2131C129.194 97.5092 129.441 97.5586 129.787 97.3118C130.033 97.065 130.083 96.7689 129.885 96.4234C129.194 95.4363 128.405 94.5479 127.467 93.7089C127.171 93.5115 126.825 93.5115 126.579 93.7583C126.332 94.0544 126.381 94.3505 126.677 94.5973C127.467 95.2883 128.257 96.1766 128.997 97.2131V97.2131ZM128.109 100.47C128.355 100.767 128.651 100.816 128.948 100.52C129.194 100.273 129.194 99.977 128.997 99.6315C128.355 98.6937 127.615 97.8547 126.776 97.2131C126.48 97.0157 126.184 97.065 125.937 97.3118C125.69 97.6079 125.74 97.904 125.986 98.1015C126.776 98.7924 127.467 99.5821 128.109 100.47V100.47ZM148.788 106.788C149.232 106.887 149.529 106.788 149.677 106.393C149.775 106.048 149.677 105.751 149.282 105.603C148.147 105.258 146.863 104.567 145.432 103.58C146.715 102.494 147.702 101.063 148.443 99.286C148.739 98.2989 148.443 97.756 147.653 97.6573H144.79V95.4857H148.689C148.986 95.4857 149.183 95.2882 149.232 94.8934C149.183 94.5479 149.035 94.3505 148.689 94.3011H144.79V93.4128C144.741 93.1166 144.544 92.9192 144.198 92.8699C143.803 92.8699 143.606 93.0179 143.606 93.3634V94.3011H140.151C139.855 94.3505 139.658 94.5479 139.608 94.8934C139.658 95.2882 139.806 95.4857 140.151 95.4857H143.606V97.6573H140.842C140.497 97.7066 140.299 97.904 140.25 98.2495C140.299 98.6444 140.447 98.8418 140.793 98.8418H146.863C147.11 98.9405 147.159 99.0886 147.11 99.3847C146.469 100.717 145.58 101.803 144.494 102.691C143.902 102.346 143.014 101.31 141.78 99.6315C141.484 99.3354 141.188 99.2366 140.891 99.4341C140.595 99.6808 140.595 99.9769 140.842 100.322C141.879 101.902 142.718 102.988 143.409 103.481C142.57 104.123 141.237 104.715 139.411 105.357C138.967 105.455 138.769 105.751 138.868 106.146C139.016 106.492 139.312 106.64 139.756 106.492C141.336 105.949 142.915 105.258 144.445 104.419C145.778 105.406 147.258 106.196 148.788 106.788ZM135.857 106.541C137.338 106.837 138.128 106.541 138.276 105.603V101.112C139.016 100.816 139.509 100.52 139.904 100.224C140.102 100.076 140.151 99.8289 140.003 99.5821C139.806 99.286 139.608 99.2366 139.361 99.3353C138.868 99.6315 138.522 99.8782 138.276 99.9276V96.8676H139.46C139.756 96.8676 139.954 96.6702 140.003 96.3247C139.954 96.0286 139.806 95.8311 139.46 95.7818H138.276V93.5115C138.226 93.2154 138.029 93.0673 137.683 93.0179C137.338 93.0673 137.14 93.2154 137.14 93.5115V95.7818H135.709C135.413 95.8311 135.216 95.9792 135.166 96.3247C135.216 96.6702 135.364 96.8676 135.709 96.8676H137.14V100.322C136.351 100.668 135.709 100.915 135.265 100.964C134.919 101.112 134.771 101.359 134.87 101.754C134.969 102.05 135.265 102.149 135.66 102.05C136.153 101.951 136.647 101.803 137.14 101.507V105.209C137.19 105.554 136.844 105.653 136.104 105.455C135.709 105.357 135.462 105.455 135.314 105.801C135.265 106.146 135.462 106.393 135.857 106.541V106.541Z" fill="#EC681B"/>
<path d="M475.122 24.861C474.332 24.861 473.74 24.3181 473.74 23.5285V18.0994C473.74 17.3098 474.283 16.7668 475.122 16.7668H511.151C511.94 16.7668 512.533 17.4578 512.533 18.0994V23.4791C512.533 24.2688 511.842 24.8117 511.151 24.8117H475.122V24.861ZM471.765 40.9013V35.4723C471.765 34.7814 472.358 34.0904 473.147 34.0904H513.618C514.408 34.0904 515 34.7814 515 35.4723V40.9013C515 41.691 514.408 42.2833 513.618 42.2833H506.462V65.3813C506.462 68.1946 504.192 70.4649 501.329 70.4649H481.784C480.995 70.4649 480.403 69.922 480.403 69.083V64.3449C480.403 63.5552 480.995 62.963 481.784 62.963H496.69V42.2339H473.147C472.308 42.2833 471.765 41.691 471.765 40.9013ZM446.348 48.6501C446.348 48.5514 446.348 48.4033 446.594 48.2059L457.453 34.5839C458.242 33.5475 458.489 33.3501 459.279 33.3501H467.768C468.212 33.3501 468.557 33.5968 468.557 34.041C468.557 34.2878 468.459 34.3865 468.311 34.6333L459.476 45.8368H463.573V69.083C463.573 69.7739 462.882 70.4649 462.191 70.4649H455.182C454.393 70.4649 453.702 69.8726 453.702 69.083V49.193H447.335C446.792 49.193 446.348 48.9462 446.348 48.6501V48.6501ZM447.335 31.5733C446.644 31.5733 446.298 31.4746 446.298 31.1291L446.397 30.7836L457.403 17.211C458.193 16.1746 458.44 15.9772 459.229 15.9772H467.718C468.163 15.9772 468.508 16.2239 468.508 16.5201C468.508 16.8162 468.409 17.063 468.261 17.211L457.156 31.0304C456.811 31.4746 456.465 31.5733 455.676 31.5733H447.335V31.672V31.5733V31.5733ZM431.837 48.6501H438.303C439.093 48.6501 439.537 48.7488 439.537 49.2423C439.537 49.4891 439.29 49.8346 438.846 50.2788L430.455 60.1004L430.998 61.1368C432.035 62.8642 432.134 62.963 432.479 63.4072C433.022 63.9994 433.269 63.9994 434.947 63.9994H438.451C439.142 63.9994 439.833 64.6904 439.833 65.3813V69.1323C439.833 69.8233 439.142 70.5143 438.451 70.5143H433.219C428.679 70.5143 426.31 69.3791 424.484 66.4178L415.106 50.2294C414.859 49.8839 414.761 49.6372 414.761 49.4397C414.761 49.0943 415.007 48.8475 415.55 48.8475H422.46C423.496 48.8475 423.694 49.0942 424.385 50.2294L426.655 53.9804L429.962 49.8839C430.801 48.8968 431.146 48.6501 431.837 48.6501ZM410.417 34.9294V39.7662H430.209V34.9294H410.417ZM430.604 23.2323H410.812V28.0691H430.604V23.2323ZM417.376 63.9501C418.166 63.9501 418.857 64.5423 418.857 65.332V69.083C418.857 69.7739 418.166 70.4649 417.376 70.4649H407.456C404.594 70.4649 402.323 68.1946 402.323 65.332V21.5049C402.323 18.7904 404.594 16.372 407.456 16.372H433.91C436.773 16.372 439.043 18.6423 439.043 21.5049V40.8026C439.043 43.6652 436.773 45.9355 433.91 45.9355H410.615V63.9501H417.376V63.9501ZM389.096 46.4785H397.19C397.98 46.4785 398.671 47.0707 398.671 47.8604V52.401C398.671 53.1907 397.98 53.783 397.19 53.783H389.096V63.9994H395.512C396.203 63.9994 396.894 64.5917 396.894 65.3813V69.1323C396.894 69.8233 396.203 70.5143 395.512 70.5143H385.493C382.779 70.5143 380.36 68.2439 380.36 65.3813V53.783H373.845C373.056 53.783 372.464 53.1907 372.464 52.401V47.8604C372.464 47.0707 373.056 46.4785 373.845 46.4785H380.36V40.5559H373.845C373.056 40.5559 372.464 39.9636 372.464 39.1739V34.6333C372.464 33.8436 373.056 33.2514 373.845 33.2514H397.141C397.931 33.2514 398.622 33.8436 398.622 34.6333V39.1739C398.622 39.9636 397.931 40.5559 397.141 40.5559H389.047V46.4785H389.096V46.4785ZM398.72 21.9491V26.4897C398.72 27.1807 398.029 27.8717 397.24 27.8717H382.285L381.249 29.6978C380.706 30.833 380.459 30.9317 379.324 30.9317H372.414C371.526 30.9317 371.279 30.833 371.279 30.3888C371.279 30.2901 371.378 30.0433 371.625 29.5991L378.435 17.2604C378.978 16.2239 379.225 16.0265 380.015 16.0265H387.517C388.306 16.0265 388.553 16.1252 388.553 16.4707C388.553 16.7175 388.455 16.9149 388.306 17.2604L386.382 20.5178H397.289C398.029 20.4685 398.72 21.1594 398.72 21.9491V21.9491ZM318.766 45.1952C318.766 48.7981 319.012 49.1436 323.158 51.1178L331.055 54.7207L338.952 51.1178C343.246 49.0943 343.344 48.8968 343.344 45.1952V42.6288H318.716V45.1952H318.766ZM327.057 13.9536H334.806C335.595 13.9536 336.188 14.4965 336.188 15.4343V18.1488H357.756C361.161 18.1488 364.024 20.962 364.024 24.5156V28.3652C364.024 29.1549 363.432 29.7472 362.642 29.7472H357.509C356.719 29.7472 356.127 29.2043 356.127 28.3652V24.9597H305.637V28.3652C305.637 29.1549 305.045 29.7472 304.255 29.7472H299.27C298.481 29.7472 297.79 29.2043 297.79 28.3652V24.5156C297.79 21.0114 300.751 18.1488 304.255 18.1488H325.725V15.4343C325.725 14.5952 326.267 13.9536 327.057 13.9536V13.9536ZM296.951 41.3455V36.5581C296.951 35.7685 297.543 35.1762 298.431 35.1762H308.944V30.6356C308.944 29.8459 309.536 29.2536 310.326 29.2536H317.038C317.828 29.2536 318.519 29.8459 318.519 30.6356V35.1762H343.394V30.7343C343.394 29.9446 343.986 29.2536 344.874 29.2536H351.586C352.376 29.2536 352.968 29.8459 352.968 30.7343V35.1762H362.987C363.777 35.1762 364.369 35.7685 364.369 36.5581V41.3455C364.369 42.1352 363.777 42.7275 362.987 42.7275H352.968V45.442C352.968 51.7101 351.142 53.8817 343.147 57.3859L339.84 58.8665L340.432 59.1133C344.529 60.9394 347.638 61.6304 351.142 61.6304H361.754C362.543 61.6304 363.136 62.3213 363.136 63.111V67.8984C363.136 68.6881 362.543 69.2804 361.754 69.2804H351.142C345.664 69.1817 342.801 68.4907 336.533 65.6281L330.956 63.111L325.379 65.6281C318.766 68.5894 316.594 69.0336 310.77 69.2804H300.159C299.369 69.2804 298.777 68.6881 298.777 67.8984V63.111C298.777 62.3213 299.369 61.6304 300.159 61.6304H310.77C314.175 61.6304 317.976 60.742 321.48 59.1133L322.072 58.8665L318.766 57.3859C310.671 53.6349 309.191 51.8088 308.944 45.442V42.7275H298.431C297.642 42.7275 296.951 42.1352 296.951 41.3455V41.3455ZM277.209 28.8588H284.76C285.451 28.8588 285.648 29.1055 285.648 29.5497C285.648 29.6484 285.55 29.9939 285.303 30.5862L277.604 45.7875C277.061 46.8239 276.715 47.0213 275.136 47.0213H267.585C267.042 47.0213 266.696 46.7746 266.696 46.3304C266.696 46.2317 266.696 45.9849 267.042 45.2939L274.84 30.0926C275.185 29.2043 275.728 28.8588 277.209 28.8588V28.8588ZM248.978 45.3433C249.323 45.9355 249.323 46.133 249.323 46.3797C249.323 46.8239 248.978 47.0707 248.386 47.0707H240.686C239.057 47.0707 238.761 46.8239 238.169 45.8368L230.272 30.6356C230.174 30.2901 229.927 29.8459 229.927 29.5991C229.927 29.1549 230.272 28.9081 230.865 28.9081H238.564C240.045 28.9081 240.489 29.1549 241.081 30.142L248.978 45.3433V45.3433ZM226.176 59.1626C225.386 59.1626 224.695 58.6197 224.695 57.682V52.7959C224.695 52.0062 225.238 51.3152 226.176 51.3152H252.63V24.4168H228.249C227.459 24.4168 226.867 23.7259 226.867 22.9362V18.4943C226.867 17.7046 227.41 17.1123 228.249 17.1123H287.475C288.264 17.1123 288.856 17.6552 288.856 18.4943V23.183C288.856 23.9726 288.314 24.6636 287.475 24.6636H263.192V51.4633H289.844C290.633 51.4633 291.324 52.1542 291.324 52.9439V57.8301C291.324 58.6197 290.781 59.3107 289.844 59.3107H263.192V69.5272C263.192 70.3168 262.501 70.9091 261.711 70.9091H254.111C253.321 70.9091 252.729 70.3662 252.729 69.5272V59.2613H226.275V59.1626H226.176V59.1626ZM439.685 88.2326C440.919 88.2326 441.856 88.9236 442.301 90.0588L451.727 111.035C451.925 111.429 451.974 111.726 451.974 111.923C451.974 113.058 451.086 114.095 449.803 114.095C448.766 114.095 447.976 113.552 447.631 112.515L445.607 107.777H433.219L431.048 112.663C430.702 113.552 429.913 114.045 429.024 114.045C427.889 114.045 427.001 113.157 427.001 112.022C427.05 111.726 427.198 111.38 427.346 111.133L436.773 90.1575C437.217 89.0223 438.155 88.3313 439.487 88.3313H439.685V88.2326ZM459.575 88.2326C460.71 88.2326 461.302 88.8249 461.845 89.6145L474.579 106.099V90.503C474.579 89.2691 475.615 88.3313 476.75 88.3313C477.984 88.3313 479.021 89.3678 479.021 90.503V111.775C479.021 113.009 478.132 114.045 476.849 114.045H476.602C475.566 114.045 474.875 113.453 474.332 112.663L461.253 95.7346V111.775C461.253 113.009 460.216 113.946 459.081 113.946C457.847 113.946 456.811 112.91 456.811 111.775V90.503C456.811 89.2691 457.847 88.2326 459.081 88.2326H459.575V88.2326ZM487.46 88.2326C488.694 88.2326 489.731 89.2197 489.731 90.4536V101.213L501.823 89.0717C502.267 88.5288 502.859 88.282 503.649 88.282C504.883 88.282 505.722 89.3184 505.722 90.3055C505.722 90.9965 505.376 91.5394 504.932 91.9836L496.936 99.6829L505.475 110.344C505.82 110.788 506.067 111.232 506.067 111.923C506.067 113.157 505.031 114.095 503.797 114.095C502.908 114.095 502.316 113.65 501.872 113.058L493.679 102.644L489.583 106.593V111.824C489.583 113.058 488.546 114.095 487.411 114.095C486.177 114.095 485.141 113.058 485.141 111.824V90.503C485.091 89.2197 486.226 88.2326 487.46 88.2326V88.2326ZM316.939 87.7884C321.727 87.7884 325.725 91.1939 325.626 95.6358V96.2281C325.626 96.5736 325.379 96.8204 325.034 96.8204H320.69C320.345 96.8204 320.098 96.5736 320.098 96.2281V93.2668C320.098 92.9213 319.851 92.6746 319.506 92.6746H305.341C304.996 92.6746 304.749 92.9213 304.749 93.2668V108.567C304.749 108.912 304.996 109.159 305.341 109.159H319.506C319.851 109.159 320.098 108.912 320.098 108.567V103.681H312.695C312.349 103.681 312.103 103.434 312.103 103.088V99.4362H325.576V106.297C325.576 110.64 321.677 114.045 316.89 114.045H308.006C303.219 114.045 299.32 110.64 299.32 106.297V95.5865C299.32 91.2433 303.219 87.8378 308.006 87.8378H316.939V87.7884ZM413.872 88.2326C416.834 88.2326 419.153 89.0223 420.634 90.503C421.769 91.6381 422.361 93.0201 422.361 94.6981V94.7968C422.361 97.8568 420.634 99.4362 418.709 100.473C421.67 101.509 423.743 103.187 423.743 106.593V106.691C423.743 111.232 419.992 113.601 414.267 113.601H404.643C403.409 113.601 402.373 112.565 402.373 111.331V90.4536C402.373 89.2197 403.409 88.1833 404.643 88.1833H413.872V88.2326ZM349.217 88.2326C349.662 88.2326 350.155 88.4794 350.353 88.9236L362.247 112.416C362.593 113.206 362.247 113.65 361.556 113.65H357.805C357.213 113.65 357.015 113.552 356.769 112.959L347.293 94.0071L337.767 112.959C337.52 113.552 337.323 113.65 336.731 113.65H332.98C332.19 113.65 331.845 113.206 332.289 112.416L344.282 88.9236C344.529 88.4794 344.973 88.2326 345.417 88.2326H349.217V88.2326ZM273.853 87.7884C274.198 87.7884 274.642 87.8871 274.988 88.2326C275.235 88.5781 288.56 103.681 290.633 105.951V88.4794C290.633 88.1339 290.88 87.8871 291.226 87.8871H295.125C295.371 87.8871 295.717 88.1339 295.816 88.4794V112.663C295.816 113.009 295.569 113.256 295.223 113.256H291.571C291.226 113.256 290.781 113.157 290.436 112.811C290.09 112.466 276.074 96.5736 274.593 94.9942V112.713C274.593 113.058 274.346 113.305 274.001 113.305H270.102C269.756 113.305 269.509 113.058 269.509 112.713V88.4301C269.509 88.0846 269.756 87.8378 270.102 87.8378H273.853V87.7884ZM369.502 87.7884C369.848 87.7884 370.292 87.8871 370.637 88.2326C370.884 88.5781 384.21 103.681 386.283 105.951V88.4794C386.283 88.1339 386.53 87.8871 386.875 87.8871H390.774C391.218 87.8871 391.366 88.1339 391.465 88.4794V112.663C391.465 113.009 391.218 113.256 390.873 113.256H387.221C386.875 113.256 386.431 113.157 386.085 112.811C385.74 112.466 371.723 96.5736 370.243 94.9942V112.713C370.243 113.058 369.996 113.305 369.65 113.305H365.751C365.406 113.305 365.159 113.058 365.159 112.713V88.4301C365.159 88.0846 365.406 87.8378 365.751 87.8378H369.502V87.7884ZM246.707 87.7884C251.347 87.7884 255.196 91.1446 255.394 95.3891V98.2516C255.394 102.546 251.495 105.359 246.757 105.457H235.849V112.663C235.849 112.959 235.652 113.206 235.356 113.206H230.963C230.667 113.206 230.42 113.009 230.371 112.713V88.3807C230.371 88.0845 230.568 87.8378 230.865 87.8378H246.707V87.7884ZM263.636 87.7884C264.08 87.7884 264.327 88.0352 264.228 88.3807V112.663C264.228 113.009 263.982 113.256 263.636 113.256H259.194C258.849 113.256 258.602 113.009 258.602 112.663V88.3807C258.602 88.0352 258.849 87.7884 259.194 87.7884H263.636ZM414.02 102.743H406.765V109.801H414.366C417.475 109.801 419.301 108.764 419.301 106.445V106.198C419.301 104.026 417.574 102.743 414.02 102.743V102.743ZM439.487 93.4642L435.045 103.533H443.929L439.487 93.4642ZM248.78 92.2304H235.603V101.114H248.731C249.076 101.114 249.274 100.917 249.323 100.621V92.8226C249.323 92.4771 249.126 92.2304 248.78 92.2304V92.2304ZM413.231 92.2304H406.765V99.0907H412.885C415.748 99.0907 417.673 97.9062 417.673 95.5865V95.4878C417.673 93.4149 416.093 92.2304 413.231 92.2304V92.2304Z" fill="#EC681B"/>
<path d="M350.599 106H344.331C343.986 106 343.789 106.198 343.789 106.543V112.713C343.789 113.058 343.986 113.255 344.331 113.255H350.501C350.846 113.255 351.044 113.058 351.044 112.713V106.543C351.142 106.198 350.846 106 350.599 106Z" fill="#005C3B"/>
</svg>
