<svg width="128" height="128" viewBox="0 0 128 128" fill="none" xmlns="http://www.w3.org/2000/svg">
<path fill-rule="evenodd" clip-rule="evenodd" d="M115.436 59.7213C102.267 46.0796 83.5243 38.2616 64.0025 38.2616C44.4808 38.2614 25.7382 46.0796 12.5752 59.7213L12.25 60.0475L12.6075 60.3378L46.329 87.9416V87.4499V87.9416C51.564 84.812 57.7843 82.9388 64.0025 82.9388C70.2205 82.9385 76.461 84.7024 81.6969 87.8289L115.395 60.3378L115.75 60.0475L115.436 59.7213Z" fill="#C1C2C2"/>
<path fill-rule="evenodd" clip-rule="evenodd" d="M114.769 59.8429L114.457 59.5246C114.405 59.4717 114.354 59.4181 114.301 59.3653C114.248 59.3119 114.195 59.2594 114.142 59.2061L113.982 59.0468C113.929 58.9938 113.876 58.9407 113.822 58.8878C113.769 58.8349 113.715 58.7815 113.662 58.7285C113.607 58.6752 113.552 58.6225 113.498 58.5691L113.334 58.4104C113.279 58.3572 113.225 58.3039 113.17 58.251L113.005 58.0921L112.837 57.9327L112.669 57.7735C112.613 57.7207 112.557 57.6673 112.501 57.6146C112.444 57.5612 112.387 57.5085 112.329 57.4553C112.272 57.402 112.215 57.3492 112.157 57.2961L111.985 57.1367C111.927 57.0838 111.87 57.0304 111.811 56.9774C111.753 56.9241 111.694 56.8716 111.635 56.8186L111.458 56.6593C111.399 56.6063 111.341 56.5527 111.281 56.4999L111.103 56.341C111.043 56.2877 110.982 56.2349 110.921 56.1816L110.74 56.0224C110.68 55.9696 110.62 55.9161 110.559 55.8635C110.498 55.8101 110.435 55.7576 110.373 55.7043L110.187 55.545C110.125 55.492 110.064 55.4387 110.002 55.386L109.813 55.2267C109.75 55.1733 109.686 55.1206 109.623 55.0675L109.432 54.9086C109.368 54.8556 109.305 54.8021 109.241 54.7492C109.176 54.6957 109.11 54.6431 109.045 54.5899L108.85 54.4305C108.785 54.3777 108.72 54.3243 108.654 54.2717C108.588 54.2184 108.522 54.1655 108.455 54.1124C108.389 54.0592 108.321 54.0062 108.255 53.9532C108.188 53.9002 108.121 53.847 108.054 53.7941C107.987 53.7412 107.92 53.6878 107.852 53.6349C107.784 53.5815 107.715 53.5288 107.646 53.4756L107.441 53.3168C107.372 53.2637 107.304 53.2102 107.235 53.1575C107.164 53.1039 107.094 53.0514 107.023 52.9981L106.812 52.8392C106.742 52.7862 106.672 52.7327 106.601 52.6798L106.385 52.5206C106.313 52.4673 106.241 52.4144 106.168 52.3613C106.096 52.3083 106.024 52.2548 105.951 52.2021L105.732 52.043C105.658 51.9898 105.583 51.9369 105.509 51.8838C105.435 51.8307 105.361 51.7773 105.286 51.7245L105.062 51.5657C104.986 51.5122 104.909 51.4595 104.833 51.4064C104.757 51.3532 104.681 51.3001 104.605 51.2474C104.528 51.1943 104.451 51.1409 104.374 51.0881C104.296 51.0347 104.217 50.982 104.139 50.9289C104.037 50.8596 103.935 50.7903 103.833 50.7215C103.729 50.6517 103.625 50.5827 103.521 50.5134C103.416 50.4441 103.312 50.3749 103.207 50.306C103.101 50.2367 102.995 50.1672 102.889 50.0984C102.782 50.0288 102.674 49.96 102.566 49.8909C102.458 49.8216 102.35 49.7518 102.241 49.6829C102.131 49.6133 102.02 49.5447 101.909 49.4756C101.799 49.4064 101.688 49.3366 101.577 49.268C101.464 49.1981 101.35 49.1295 101.236 49.0602C101.122 48.991 101.009 48.9215 100.895 48.8529C100.779 48.7832 100.662 48.7143 100.546 48.6452C100.429 48.5757 100.312 48.5062 100.194 48.4375C100.075 48.3678 99.9561 48.2986 99.8368 48.2297C99.7165 48.1603 99.5961 48.0911 99.4754 48.0224C99.3534 47.9528 99.231 47.8835 99.1083 47.8146C98.9844 47.7451 98.8604 47.6759 98.736 47.6069C98.6103 47.5373 98.4846 47.4682 98.3585 47.3993C98.2312 47.3297 98.1032 47.2607 97.9753 47.1919C97.8459 47.1224 97.7164 47.0531 97.5865 46.9842C97.4551 46.9146 97.3234 46.8453 97.1914 46.7766C97.0578 46.7069 96.9242 46.6377 96.7901 46.5688C96.6547 46.4994 96.5191 46.4301 96.3832 46.3615C96.2451 46.2918 96.1068 46.2226 95.9682 46.1537C95.8284 46.0842 95.6885 46.0147 95.548 45.9461C95.4049 45.8761 95.2614 45.8074 95.1178 45.7384C94.9735 45.6691 94.8297 45.5993 94.6847 45.531C94.5363 45.461 94.387 45.3923 94.2381 45.3233C94.0883 45.254 93.9388 45.184 93.7885 45.1156C93.6347 45.0455 93.4799 44.9769 93.3255 44.9079C93.1697 44.8385 93.0137 44.769 92.8573 44.7006C92.698 44.6308 92.5386 44.5615 92.3785 44.4929C92.2152 44.4228 92.0516 44.3539 91.8877 44.2852C91.7223 44.2156 91.5571 44.1458 91.391 44.0774C91.2202 44.0073 91.0485 43.9386 90.8769 43.8697C90.7036 43.8 90.5299 43.7308 90.3557 43.6625C90.1782 43.5928 90.0007 43.5229 89.8225 43.4546C89.6395 43.3845 89.4556 43.3157 89.2717 43.247C89.085 43.1771 88.8978 43.1077 88.7103 43.0394C88.5192 42.9696 88.328 42.8999 88.1361 42.8319C87.9377 42.7616 87.7385 42.6929 87.5395 42.6243C87.3362 42.5541 87.132 42.485 86.9278 42.4165C86.7189 42.3465 86.5098 42.2769 86.2999 42.2088C86.084 42.1388 85.8677 42.0695 85.6509 42.0014C85.4262 41.931 85.2007 41.8621 84.9753 41.7938C84.7429 41.7233 84.5099 41.6542 84.2765 41.5861C84.0354 41.5158 83.7938 41.4464 83.5516 41.3784C83.301 41.308 83.0501 41.2387 82.7983 41.1711C82.536 41.1004 82.273 41.031 82.0093 40.9633C81.7338 40.8925 81.4575 40.8232 81.1805 40.7556C80.8897 40.6846 80.5981 40.6153 80.306 40.5478C79.9979 40.4767 79.6891 40.4079 79.3795 40.3406C79.0495 40.269 78.7186 40.2 78.3868 40.1329C78.031 40.0608 77.674 39.9919 77.3162 39.9251C76.93 39.8531 76.5426 39.7838 76.1541 39.7178C75.7249 39.6449 75.2946 39.5753 74.8628 39.5099C74.3729 39.4358 73.8809 39.3667 73.3876 39.3024C72.803 39.2262 72.2163 39.157 71.627 39.0947C70.8641 39.0139 70.0975 38.9445 69.3272 38.8875C67.5211 38.7536 65.6959 38.6846 63.8533 38.6846C62.0106 38.6846 60.1847 38.7536 58.3783 38.8875C57.608 38.9445 56.8413 39.0139 56.0782 39.0947C55.4891 39.1569 54.9022 39.2262 54.3176 39.3024C53.8242 39.3667 53.3322 39.4358 52.8422 39.5099C52.4105 39.5753 51.9802 39.6449 51.5512 39.7178C51.1626 39.7838 50.7752 39.8531 50.3889 39.9251C50.0311 39.9919 49.6744 40.0608 49.3185 40.1329C48.9868 40.2 48.6556 40.269 48.3256 40.3406C48.0159 40.4079 47.707 40.4767 47.3991 40.5478C47.1068 40.6153 46.8152 40.6846 46.5245 40.7556C46.2475 40.8232 45.9712 40.8925 45.6955 40.9633C45.4318 41.031 45.1688 41.1004 44.9064 41.1711C44.6546 41.2387 44.4037 41.308 44.1531 41.3784C43.9109 41.4464 43.6692 41.5156 43.4282 41.5861C43.1948 41.6542 42.9618 41.7233 42.7293 41.7938C42.5037 41.8621 42.2785 41.931 42.054 42.0014C41.8371 42.0695 41.6205 42.1388 41.4048 42.2088C41.1949 42.2769 40.9857 42.3465 40.7768 42.4165C40.5725 42.485 40.3684 42.5541 40.1651 42.6243C39.9659 42.6929 39.7668 42.7616 39.5685 42.8319C39.3767 42.8999 39.1855 42.9696 38.9943 43.0394C38.8067 43.1077 38.6196 43.1771 38.4328 43.247C38.2491 43.3157 38.0651 43.3845 37.8819 43.4546C37.7038 43.5229 37.5264 43.5926 37.349 43.6625C37.1747 43.7308 37.0011 43.8 36.8276 43.8697C36.6562 43.9386 36.4845 44.0073 36.3137 44.0774C36.1476 44.1458 35.9825 44.2156 35.8171 44.2852C35.6531 44.3539 35.4895 44.4228 35.3263 44.4929C35.1664 44.5615 35.0067 44.6308 34.8474 44.7006C34.691 44.769 34.535 44.8385 34.3792 44.9079C34.2247 44.9769 34.0701 45.0455 33.9162 45.1156C33.7659 45.184 33.6164 45.254 33.4666 45.3233C33.3177 45.3923 33.1686 45.461 33.0202 45.531C32.8753 45.5993 32.7314 45.6691 32.5871 45.7384C32.4437 45.8074 32.2999 45.8761 32.157 45.9461C32.0165 46.0147 31.8766 46.0842 31.7367 46.1537C31.5981 46.2226 31.4596 46.2918 31.3216 46.3615C31.1858 46.4301 31.0502 46.4994 30.9148 46.5688C30.7808 46.6377 30.6471 46.7069 30.5136 46.7766C30.3816 46.8453 30.2499 46.9146 30.1183 46.9842C29.9885 47.0531 29.859 47.1224 29.7297 47.1919C29.6017 47.2607 29.4739 47.3297 29.3466 47.3993C29.2205 47.4682 29.0946 47.5373 28.9692 47.6069C28.8446 47.6759 28.7205 47.7451 28.5966 47.8146C28.4741 47.8837 28.3517 47.9528 28.2296 48.0224C28.109 48.0911 27.9885 48.1603 27.8683 48.2297C27.7491 48.2986 27.6298 48.3678 27.511 48.4375C27.3934 48.5062 27.2762 48.5757 27.1591 48.6452C27.0428 48.7143 26.9263 48.7832 26.8104 48.8529C26.6963 48.9215 26.5829 48.9909 26.4691 49.0602C26.3555 49.1295 26.2416 49.1981 26.1285 49.268C26.0173 49.3366 25.907 49.4064 25.7961 49.4756C25.6855 49.5447 25.5746 49.6133 25.4643 49.6829C25.3557 49.7518 25.2478 49.8216 25.1395 49.8909C25.0318 49.96 24.9239 50.0288 24.8167 50.0984C24.7105 50.1672 24.6046 50.2367 24.4989 50.306C24.3939 50.3749 24.2892 50.4441 24.1847 50.5134C24.0804 50.5827 23.9762 50.6517 23.8725 50.7215C23.7702 50.7903 23.6685 50.8597 23.5666 50.9289C23.4883 50.982 23.4097 51.0346 23.3318 51.0881C23.2547 51.1409 23.1781 51.1943 23.1013 51.2474C23.0252 51.3001 22.9492 51.3532 22.8732 51.4064C22.7969 51.4595 22.7203 51.5122 22.6444 51.5657L22.4195 51.7249C22.3452 51.7776 22.2712 51.8308 22.1972 51.8838C22.1228 51.9369 22.0485 51.9898 21.9744 52.043L21.7544 52.2024C21.682 52.2551 21.61 52.3083 21.5378 52.3613C21.4655 52.4144 21.3931 52.4673 21.321 52.5206C21.2491 52.5738 21.1769 52.6266 21.1055 52.6798C21.0347 52.7327 20.9646 52.7862 20.8941 52.8392L20.683 52.9981C20.6128 53.0514 20.5418 53.1039 20.4717 53.1575C20.4027 53.2102 20.3346 53.2637 20.2658 53.3168L20.0605 53.4756C19.9919 53.5288 19.9228 53.5815 19.8544 53.6349C19.7868 53.6878 19.7197 53.7412 19.6522 53.7941C19.5853 53.847 19.5188 53.9002 19.4519 53.9532L19.2512 54.1124C19.1848 54.1655 19.1184 54.2184 19.0522 54.2717C18.9869 54.3243 18.9223 54.3777 18.8571 54.4305L18.6615 54.5899C18.5964 54.6431 18.5307 54.6957 18.4658 54.7492C18.4019 54.8021 18.3386 54.8556 18.2748 54.9086L18.0844 55.0675C18.0209 55.1206 17.9571 55.1733 17.8937 55.2267L17.7053 55.386C17.6433 55.4387 17.5818 55.492 17.5199 55.545L17.334 55.7043C17.2723 55.7576 17.2097 55.8101 17.1481 55.8635C17.0875 55.9161 17.0276 55.9696 16.9673 56.0224L16.786 56.1816C16.7256 56.2349 16.665 56.2877 16.6047 56.341L16.4259 56.4999C16.3668 56.5527 16.3082 56.6063 16.2493 56.6593L16.0725 56.8186C16.0139 56.8716 15.9547 56.9241 15.8963 56.9774C15.8383 57.0304 15.7808 57.0838 15.7232 57.1367L15.3786 57.4553C15.3215 57.5085 15.2639 57.5612 15.2071 57.6146C15.1509 57.6673 15.0955 57.7207 15.0395 57.7735L14.8715 57.9327C14.8155 57.986 14.7591 58.0388 14.7034 58.0921L14.5379 58.251C14.4831 58.3039 14.4288 58.3572 14.3741 58.4104L14.2103 58.5696C14.1559 58.6227 14.1012 58.6752 14.0469 58.7285C13.993 58.7815 13.9397 58.8349 13.8862 58.8878L13.7269 59.0468L13.5671 59.2061C13.514 59.2594 13.4602 59.3119 13.4073 59.3653C13.3552 59.4181 13.3037 59.4717 13.2515 59.5246L12.9406 59.8429C12.8969 59.8877 12.8527 59.9321 12.8093 59.9771V59.9779L12.8388 60.0021L14.7849 61.5939L14.9793 61.7528L15.3686 62.0714L15.5636 62.2307L15.9524 62.549L16.1473 62.7083L19.4556 65.4144L19.65 65.5733L20.4285 66.21L20.6229 66.369L21.0122 66.6876L22.9584 68.2793L23.1532 68.4387L23.3474 68.5976L23.5422 68.7568L23.9317 69.0754L24.1261 69.2344L24.5155 69.553L25.0993 70.0305L25.2937 70.1894L25.4882 70.3486L28.0182 72.418L28.213 72.5773L28.602 72.8954L28.7968 73.0548L29.7699 73.8508L29.9643 74.0097L30.7429 74.6465L30.9376 74.8059L31.9104 75.6015L32.1052 75.7608L32.2999 75.9202L32.6889 76.2383L32.8838 76.3976L33.2728 76.7159L33.4676 76.8753L33.6617 77.034L35.6083 78.6262L35.8028 78.7852L36.1917 79.1034L36.3865 79.2628L36.5812 79.422L36.7756 79.5809L37.554 80.2177L37.7487 80.3771L46.169 87.2642V87.2668C51.2867 84.2085 57.3475 82.4366 63.8533 82.4366C70.3534 82.4363 76.3905 84.2027 81.4969 87.2582L87.7785 82.128L87.9735 81.9688L88.1684 81.8095L88.3631 81.6505L88.558 81.4912L88.7531 81.332L88.9477 81.1731L89.1428 81.0139L89.3379 80.8544L89.5324 80.6956L90.5072 79.8994L91.4819 79.1034L91.6763 78.9445L93.2359 77.6709L93.4309 77.5117L93.6256 77.3526L93.8205 77.1934L94.99 76.2383L95.1851 76.0791L96.1593 75.2834L96.3542 75.1242L98.6934 73.2137L98.8879 73.0548L99.8627 72.2588L100.057 72.0997L100.447 71.7813L100.642 71.6222L100.837 71.4629L101.032 71.3037L101.227 71.1447L101.422 70.9855L101.617 70.8262L101.812 70.6669L102.006 70.5079L102.201 70.3486L102.396 70.1894L102.591 70.0305L102.786 69.8711L104.15 68.7568L104.345 68.5976L104.54 68.4387L107.269 66.21L107.464 66.0508L107.659 65.8914L108.048 65.5733L108.438 65.255L108.633 65.0958L108.828 64.9369L109.023 64.7776L109.607 64.3001L109.803 64.1407L109.997 63.9815L110.193 63.8222L110.387 63.6633L111.752 62.549L111.947 62.3896L112.141 62.2307L112.336 62.0714L112.531 61.9122L113.311 61.2753L114.9 59.9774C114.857 59.9323 114.812 59.8879 114.769 59.8429Z" fill="url(#paint0_linear_63_12303)"/>
<path fill-rule="evenodd" clip-rule="evenodd" d="M62.2404 64.5007C62.1622 64.5343 62.0569 64.5874 61.9238 64.6528L61.9025 64.6633C61.809 64.7087 61.7144 64.756 61.6194 64.8047C61.5237 64.8536 61.4271 64.9047 61.3299 64.957C61.2388 65.0062 61.1469 65.0568 61.0545 65.109C60.9669 65.1584 60.8788 65.2088 60.7901 65.2609C60.7055 65.3105 60.6204 65.3611 60.5348 65.4131C60.4533 65.4625 60.3713 65.5136 60.2892 65.565C60.2099 65.6147 60.1304 65.6657 60.0503 65.7173C59.9732 65.767 59.8959 65.8177 59.8181 65.8692C59.7428 65.9191 59.6674 65.9696 59.5915 66.021C59.5176 66.0713 59.4434 66.1216 59.3689 66.1733C59.2973 66.2233 59.225 66.274 59.153 66.3253C59.0827 66.3751 59.0121 66.4259 58.9415 66.4772C58.8721 66.5274 58.8024 66.5779 58.7327 66.6294C58.6647 66.6796 58.5966 66.7301 58.5283 66.7812C58.4619 66.8312 58.395 66.8822 58.3284 66.9333C58.2626 66.9836 58.1966 67.0341 58.1305 67.0854C58.0657 67.1358 58.001 67.1862 57.9361 67.2374C57.8727 67.2875 57.809 67.3384 57.7454 67.3893C57.6824 67.4398 57.6194 67.4901 57.5563 67.5416C57.4946 67.5916 57.4328 67.6425 57.3711 67.6934L57.1876 67.8457C57.1274 67.8961 57.067 67.9464 57.0066 67.9976C56.9475 68.0477 56.8881 68.0986 56.8288 68.1495C56.7696 68.2001 56.7108 68.2505 56.6516 68.3018C56.5939 68.352 56.5361 68.403 56.4783 68.4536C56.4208 68.5041 56.3633 68.5548 56.3058 68.6059L56.136 68.7578L55.9681 68.9097L55.8015 69.062L55.6376 69.2138L55.4747 69.3659C55.4209 69.4162 55.3673 69.4672 55.3138 69.5181C55.2605 69.5686 55.2073 69.619 55.1542 69.67L54.9971 69.8219C54.9448 69.8726 54.8925 69.923 54.8402 69.9742C54.7889 70.0244 54.7377 70.0754 54.6865 70.126C54.6353 70.1767 54.5838 70.2272 54.5326 70.2783C54.4822 70.3285 54.4321 70.3794 54.3818 70.4302L54.2313 70.5821C54.1819 70.6326 54.1323 70.6836 54.083 70.7344C54.0337 70.785 53.9845 70.8353 53.9353 70.8862C53.8867 70.9367 53.8385 70.9875 53.79 71.0381L53.6449 71.1904L53.5021 71.3423L53.3596 71.4947L53.2194 71.6466L53.0802 71.7984L52.9422 71.9503L52.8052 72.1026L52.6693 72.2545L52.535 72.4068L52.4012 72.5586C52.3572 72.6091 52.3137 72.66 52.2699 72.7105L52.138 72.8628C52.0949 72.9132 52.0519 72.9641 52.0091 73.0147L51.8798 73.167L51.7526 73.3188L51.6263 73.4707L51.5006 73.6231L51.3768 73.775C51.3356 73.8256 51.2943 73.876 51.2532 73.9269C51.2125 73.9775 51.1723 74.0284 51.1318 74.0792L51.0106 74.231C50.9705 74.2815 50.9308 74.3326 50.891 74.3832L50.7723 74.5351L50.6544 74.6871L50.5383 74.8391C50.4995 74.8897 50.4604 74.9403 50.4221 74.9912C50.3839 75.0417 50.3462 75.0926 50.3083 75.1431L50.1944 75.2954L50.0824 75.4473L49.9711 75.5993L49.8603 75.7516C49.8238 75.8021 49.7878 75.8528 49.7516 75.9035C49.7154 75.9542 49.6785 76.0047 49.6427 76.0557C49.6068 76.1061 49.5716 76.157 49.536 76.2076L49.4299 76.3595L49.3248 76.5116L49.221 76.6636C49.1866 76.7143 49.1517 76.7648 49.1175 76.8155C49.0834 76.8663 49.05 76.917 49.0162 76.9678C48.9824 77.0184 48.9484 77.0689 48.915 77.1197L48.8153 77.2716L48.7165 77.4238L48.6183 77.5757C48.586 77.6263 48.5544 77.6771 48.5224 77.7277C48.4902 77.7785 48.4577 77.8291 48.426 77.88L48.3318 78.0319L48.2382 78.184C48.2071 78.2348 48.176 78.2853 48.1453 78.3361C48.1148 78.3865 48.0847 78.4373 48.0544 78.4879L47.9634 78.6401C47.9335 78.6907 47.9042 78.7415 47.8745 78.7921L47.7862 78.9444L47.6989 79.0962C47.67 79.1469 47.6418 79.1975 47.6133 79.2481C47.5847 79.2989 47.5558 79.3496 47.5276 79.4004C47.4994 79.451 47.4719 79.5017 47.4442 79.5523L47.3614 79.7044L47.2794 79.8566C47.2523 79.9071 47.2259 79.9578 47.1993 80.0085C47.1726 80.0591 47.1457 80.1096 47.1192 80.1603C47.0929 80.2111 47.0672 80.2619 47.0413 80.3126L46.9641 80.4645C46.9385 80.5151 46.9128 80.5656 46.8877 80.6164C46.8624 80.6671 46.8379 80.7179 46.8131 80.7686C46.7883 80.8193 46.763 80.8699 46.7386 80.9205C46.7143 80.9713 46.6906 81.022 46.6665 81.0728L46.595 81.2247L46.5245 81.3766C46.5012 81.4273 46.4787 81.4781 46.4558 81.5288C46.4331 81.5795 46.4097 81.6301 46.3872 81.6807C46.3646 81.7315 46.3431 81.7821 46.3211 81.833L46.2555 81.985C46.2339 82.0356 46.2122 82.0863 46.191 82.1369C46.1698 82.1877 46.1493 82.2384 46.1284 82.2892C46.1076 82.3398 46.0864 82.3904 46.0662 82.4411C46.0456 82.4918 46.026 82.5424 46.0061 82.5932L45.9469 82.7451C45.9273 82.7958 45.9078 82.8463 45.8887 82.8971C45.8696 82.9477 45.8512 82.9985 45.8326 83.049C45.8138 83.0997 45.7945 83.1506 45.7763 83.2012C45.7581 83.2519 45.741 83.3025 45.7232 83.3531L45.6705 83.505L45.6189 83.6573C45.6021 83.7079 45.586 83.7585 45.5696 83.8092C45.5532 83.8599 45.5361 83.9108 45.52 83.9614C45.5042 84.0122 45.4894 84.0627 45.4739 84.1135L45.428 84.2653C45.4202 84.2916 45.4118 84.318 45.4041 84.3444L45.3829 84.4172C45.208 85.0334 45.1712 85.5463 45.244 85.9686L46.2099 86.7585C47.7599 85.8514 49.378 85.0696 51.0488 84.4172C51.1805 84.3657 51.3123 84.3151 51.4447 84.2653C51.5816 84.2137 51.7187 84.1632 51.8561 84.1135C51.9987 84.0619 52.1414 84.0111 52.2846 83.9614C52.4337 83.9097 52.5831 83.8589 52.7329 83.8092C52.8887 83.7576 53.0449 83.7068 53.2015 83.6573C53.3656 83.6053 53.5303 83.5546 53.6954 83.505C53.8685 83.4531 54.042 83.4024 54.216 83.3531C54.3998 83.3011 54.5842 83.2503 54.7691 83.2012C54.9665 83.1488 55.1646 83.0979 55.3629 83.049C55.5238 83.0094 55.6851 82.9704 55.8466 82.9329L55.8655 82.8971L55.9455 82.7451L56.0245 82.5932L56.102 82.4411L56.1777 82.2892L56.2523 82.1369L56.3248 81.985C56.3489 81.9343 56.3732 81.8836 56.3967 81.833C56.4204 81.7822 56.4434 81.7315 56.4665 81.6807C56.4897 81.6301 56.5131 81.5795 56.5357 81.5288C56.5584 81.4781 56.5803 81.4273 56.6026 81.3766C56.6249 81.3259 56.6473 81.2753 56.669 81.2247L56.7334 81.0728L56.7973 80.9205L56.8595 80.7686L56.9208 80.6164L56.9808 80.4645L57.0393 80.3126L57.0973 80.1603L57.1537 80.0085L57.2094 79.8566L57.2636 79.7043L57.3177 79.5523C57.3352 79.5017 57.3523 79.451 57.3697 79.4004L57.4216 79.2481L57.472 79.0962L57.5219 78.9444L57.5708 78.7921L57.619 78.6401L57.6665 78.4879L57.7128 78.3361L57.7586 78.184L57.8037 78.0319L57.8482 77.88L57.8917 77.7277L57.9348 77.5757L57.9771 77.4238L58.0192 77.2716L58.0604 77.1197L58.1012 76.9678L58.1414 76.8155L58.1813 76.6636L58.2206 76.5116L58.2596 76.3595L58.2982 76.2076L58.3362 76.0557L58.3742 75.9035L58.4115 75.7516L58.4489 75.5993L58.5226 75.2954L58.5955 74.9912L58.7041 74.5351L58.7761 74.231L58.8121 74.0792L58.8841 73.775L58.9203 73.6231L58.9567 73.4707L59.0297 73.167L59.0666 73.0147L59.1036 72.8628L59.1411 72.7105L59.1786 72.5586L59.2167 72.4068L59.2552 72.2545L59.2939 72.1026L59.3332 71.9503L59.3728 71.7984L59.413 71.6466L59.4534 71.4947L59.4949 71.3423L59.5366 71.1904L59.5792 71.0381L59.6223 70.8862L59.6659 70.7344L59.7106 70.5821L59.7555 70.4302L59.8019 70.2783L59.8488 70.126L59.8967 69.9742L59.9454 69.8219L59.9948 69.67L60.0455 69.5181C60.0628 69.4674 60.0795 69.4166 60.0968 69.3659C60.1142 69.3151 60.1322 69.2646 60.1498 69.2138L60.2034 69.062L60.2584 68.9097L60.3142 68.7578L60.3715 68.6059C60.3908 68.5552 60.4104 68.5044 60.4302 68.4536C60.4498 68.403 60.4692 68.3524 60.4892 68.3018C60.5095 68.251 60.5304 68.2002 60.551 68.1495C60.5715 68.0989 60.5922 68.0481 60.6131 67.9976C60.6341 67.947 60.6557 67.8962 60.677 67.8457L60.7423 67.6934C60.7644 67.6428 60.7864 67.5921 60.809 67.5416C60.8316 67.4907 60.8546 67.4401 60.8776 67.3893C60.9007 67.3387 60.9233 67.2879 60.9469 67.2374C60.9704 67.1867 60.9948 67.1362 61.0189 67.0854C61.043 67.0346 61.0674 66.9839 61.092 66.9333C61.1166 66.8825 61.1416 66.8319 61.1668 66.7812C61.1921 66.7306 61.2178 66.68 61.2436 66.6294C61.2694 66.5786 61.2952 66.5278 61.3216 66.4772C61.348 66.4265 61.3754 66.376 61.4024 66.3253C61.4295 66.2746 61.4566 66.224 61.4842 66.1733C61.512 66.1226 61.5404 66.0718 61.5687 66.021C61.5972 65.9704 61.6259 65.9197 61.655 65.8692C61.6841 65.8185 61.7129 65.7678 61.7426 65.7173C61.7724 65.6664 61.8032 65.6158 61.8338 65.565C61.8568 65.5268 61.8792 65.4885 61.9026 65.4505L61.9241 65.4131L62.1006 65.109L62.1883 64.957C62.2205 64.9009 62.2491 64.8503 62.2742 64.8047C62.3068 64.7459 62.3336 64.6955 62.3544 64.6528C62.3893 64.5813 62.4079 64.5315 62.4096 64.5007C62.4126 64.4427 62.3566 64.4503 62.2404 64.5007Z" fill="#0065BF"/>
<path fill-rule="evenodd" clip-rule="evenodd" d="M61.744 58.2672C61.7372 58.2613 61.7301 58.2553 61.722 58.2498C61.6556 58.2054 61.59 58.1601 61.5239 58.1153C61.4498 58.0648 61.3756 58.0144 61.3018 57.9633C61.2293 57.913 61.1568 57.8624 61.0847 57.8114C61.0128 57.761 60.9412 57.7102 60.8699 57.6592C60.7992 57.6087 60.7283 57.5582 60.6581 57.5073C60.5887 57.4568 60.5197 57.4059 60.4508 57.355C60.3821 57.3045 60.3134 57.254 60.2453 57.2031C60.178 57.1528 60.111 57.102 60.0441 57.0513C59.9773 57.0006 59.9106 56.95 59.8442 56.899L59.648 56.7471C59.5831 56.6966 59.5182 56.6457 59.4539 56.5948C59.3898 56.5443 59.3257 56.4937 59.2622 56.4428C59.1992 56.3924 59.1367 56.3417 59.0741 56.2909C59.0114 56.2403 58.9486 56.1898 58.8864 56.1388C58.8249 56.0883 58.764 56.0375 58.7028 55.9869C58.6416 55.9361 58.5803 55.8856 58.5196 55.8346C58.4595 55.7843 58.4001 55.7334 58.3403 55.6827C58.2807 55.632 58.2212 55.5816 58.162 55.5307C58.1032 55.4802 58.0449 55.4296 57.9864 55.3789L57.812 55.2266L57.64 55.0747L57.4699 54.9228C57.4133 54.8722 57.3566 54.8216 57.3006 54.7705C57.2448 54.72 57.1895 54.6693 57.134 54.6187L56.9682 54.4664L56.805 54.3145L56.6428 54.1625C56.5891 54.112 56.5359 54.0611 56.4825 54.0103L56.3234 53.8585L56.1658 53.7062C56.1135 53.6555 56.0611 53.6051 56.0092 53.5543C55.9575 53.5037 55.9064 53.4529 55.8551 53.4023C55.8036 53.3515 55.752 53.3009 55.7009 53.25C55.6501 53.1995 55.6 53.1488 55.5495 53.0981C55.4991 53.0474 55.4482 52.9967 55.3979 52.9458C55.348 52.8954 55.2988 52.8446 55.2493 52.794L55.1007 52.6421L54.9541 52.4901L54.8581 52.3904L54.7626 52.2905L54.6681 52.1908L54.5734 52.091L54.4794 51.9913L54.2931 51.7917L54.2006 51.6918L54.1088 51.592L54.0171 51.4923L53.9259 51.3925L53.7448 51.1929L53.6549 51.0932L53.5657 50.9933L53.4763 50.8935L53.3878 50.7937L53.2997 50.694L53.2118 50.5942L53.1242 50.4944L52.9509 50.2948L52.8645 50.1951L52.7788 50.0952L52.6931 49.9955L52.6078 49.8956L52.4392 49.6965L52.3548 49.5966L52.1878 49.3972L52.1046 49.2973L51.9397 49.0977L51.8576 48.998L51.776 48.8981L51.6944 48.7984L51.6131 48.6986L51.5324 48.5989L51.4518 48.4991L51.3714 48.3992L51.2918 48.2995L51.2119 48.1996L51.1329 48.1003L50.9752 47.9007L50.8966 47.8008L50.8186 47.7011L50.7404 47.6014L50.663 47.5015L50.5855 47.4018L50.5081 47.3019L50.4314 47.2022L50.3549 47.1023L50.2784 47.0026L50.2025 46.9029L50.1267 46.803L50.0509 46.7033L49.9757 46.6034L49.9003 46.5037L49.8252 46.4038L49.7508 46.3041L49.6761 46.2042L49.5279 46.0048L49.4539 45.9049L49.3806 45.8052L49.3072 45.7053L49.2338 45.6056L49.088 45.4058L49.0154 45.3061L48.8709 45.1069L48.7991 45.0072L48.7271 44.9075L48.6552 44.8076L48.5841 44.7079L48.5125 44.608L48.4411 44.5082L48.3701 44.4084L48.2992 44.3087L48.2282 44.209L48.1575 44.1091L48.0164 43.9095L47.9462 43.8097L47.806 43.6101L47.7361 43.5103L47.6661 43.4106L47.5964 43.3109L47.4569 43.1113L47.3872 43.0114L47.3177 42.9116L47.2483 42.8118L47.109 42.6124L46.9701 42.4128L46.9007 42.3133L46.7612 42.1137L46.6915 42.0139L46.5514 41.8143L46.4812 41.7146L46.4107 41.6148L46.3398 41.515L46.2689 41.4152L46.1974 41.3154L46.1881 41.3024L46.1367 41.3154C46.007 41.3483 45.8769 41.3816 45.7474 41.4152C45.6202 41.4482 45.493 41.4814 45.3662 41.515C45.2418 41.5477 45.1175 41.5811 44.9935 41.6148C44.8715 41.6477 44.7496 41.6809 44.6278 41.7146C44.5085 41.7476 44.3892 41.7808 44.27 41.8143C44.153 41.8473 44.0359 41.8807 43.9192 41.9141C43.8043 41.9471 43.6897 41.9803 43.5751 42.0139C43.4623 42.0468 43.3498 42.0803 43.2374 42.1137L42.9057 42.2135C42.7968 42.2464 42.6881 42.2797 42.5795 42.3133C42.4728 42.3461 42.3663 42.3793 42.2596 42.4128C42.1543 42.4458 42.0489 42.4789 41.9438 42.5125L41.6327 42.6124C41.5306 42.6454 41.4286 42.6785 41.3267 42.7121L41.0253 42.8118L40.7282 42.9116L40.6329 42.9438C40.6308 42.9666 40.6298 42.9886 40.6276 43.0114C40.6244 43.045 40.6226 43.0778 40.6196 43.1113C40.6167 43.1446 40.6144 43.1778 40.6117 43.211L40.6037 43.3109C40.6013 43.3439 40.598 43.3777 40.5958 43.4106C40.5936 43.4435 40.59 43.4776 40.5881 43.5103C40.5861 43.5441 40.5857 43.5765 40.584 43.6101C40.5822 43.6438 40.5814 43.6766 40.5798 43.7099L40.5757 43.8097C40.5744 43.843 40.5725 43.8765 40.5716 43.9095C40.5705 43.9426 40.5681 43.9765 40.5673 44.0094C40.5665 44.0427 40.5664 44.0758 40.5658 44.1091C40.5653 44.1427 40.5658 44.1755 40.5657 44.209L40.5654 44.3087C40.5653 44.3419 40.565 44.3754 40.5653 44.4084C40.5654 44.4415 40.5646 44.4754 40.5651 44.5082C40.5655 44.5415 40.5657 44.575 40.5665 44.608C40.5672 44.6418 40.5694 44.6744 40.5705 44.7079C40.5714 44.7414 40.5731 44.7743 40.5744 44.8076L40.5784 44.9075C40.5799 44.9405 40.5806 44.9743 40.5822 45.0072C40.5842 45.0403 40.5854 45.074 40.5874 45.1069C40.5895 45.1407 40.5932 45.1733 40.5955 45.2067C40.598 45.2401 40.6011 45.2729 40.6037 45.3061L40.612 45.4058C40.615 45.439 40.6169 45.4729 40.6202 45.5057C40.6235 45.5389 40.6261 45.5727 40.6298 45.6056C40.6333 45.6393 40.6384 45.6718 40.6423 45.7053C40.6462 45.7388 40.6508 45.7718 40.6551 45.8052C40.6592 45.8384 40.6632 45.8718 40.6677 45.9049C40.6722 45.938 40.6756 45.9718 40.6804 46.0048L40.6952 46.1045C40.7004 46.1381 40.707 46.1709 40.7124 46.2042L40.7298 46.3041C40.7356 46.3374 40.7408 46.3709 40.7471 46.4038C40.7531 46.4369 40.758 46.4709 40.7643 46.5037C40.7709 46.5373 40.7787 46.5701 40.7854 46.6034C40.7924 46.637 40.8003 46.6699 40.8075 46.7033L40.8296 46.803C40.8372 46.8362 40.8439 46.8699 40.8517 46.9029C40.8595 46.9359 40.8669 46.9697 40.8752 47.0026C40.8836 47.0362 40.8933 47.0688 40.9022 47.1023C40.911 47.1359 40.9201 47.169 40.9292 47.2022C40.9382 47.2354 40.9468 47.269 40.9561 47.3019C40.9656 47.3348 40.9734 47.3691 40.9831 47.4018C40.9931 47.4355 41.0046 47.468 41.0149 47.5015C41.0253 47.5351 41.0364 47.568 41.047 47.6014C41.0577 47.6347 41.0683 47.668 41.0792 47.7011C41.0902 47.7342 41.1002 47.768 41.1115 47.8008C41.1232 47.8344 41.1352 47.8674 41.1473 47.9007C41.1593 47.9343 41.1724 47.9671 41.1848 48.0004L41.2223 48.1003C41.235 48.1332 41.2466 48.167 41.2596 48.1996C41.2731 48.2332 41.2868 48.2663 41.3004 48.2995C41.3143 48.3331 41.3293 48.3659 41.3436 48.3992L41.3868 48.4991C41.4013 48.5322 41.415 48.5661 41.43 48.5989C41.4452 48.6323 41.4609 48.6653 41.4766 48.6986C41.4924 48.7323 41.5092 48.765 41.5254 48.7984C41.5417 48.8317 41.5577 48.8652 41.5743 48.8981C41.5908 48.9312 41.6063 48.9652 41.6233 48.998C41.6405 49.0316 41.659 49.0644 41.6767 49.0977C41.6946 49.1313 41.7135 49.1642 41.7317 49.1976C41.7499 49.2308 41.768 49.2644 41.7866 49.2973C41.8054 49.3303 41.823 49.3644 41.842 49.3972C41.8619 49.4309 41.8831 49.4635 41.9032 49.4969C41.9234 49.5304 41.9439 49.5635 41.9643 49.5966C41.9848 49.6298 42.0045 49.6637 42.0255 49.6965L42.0896 49.7959C42.1116 49.8295 42.1349 49.8625 42.1573 49.8956C42.1799 49.929 42.2022 49.9625 42.2251 49.9955C42.2481 50.0284 42.2697 50.0625 42.293 50.0952C42.3171 50.1291 42.3428 50.1616 42.3673 50.1951C42.3919 50.2286 42.4168 50.2618 42.4415 50.2948C42.4666 50.328 42.4907 50.3619 42.516 50.3947C42.5419 50.4283 42.5686 50.4611 42.595 50.4944C42.6219 50.528 42.6494 50.561 42.6766 50.5942C42.7037 50.6275 42.7304 50.6611 42.7579 50.694C42.786 50.7274 42.8141 50.7607 42.8427 50.7937C42.8717 50.8274 42.9017 50.8603 42.9313 50.8935C42.9607 50.9268 42.99 50.9604 43.02 50.9933C43.0502 51.0267 43.0803 51.0601 43.1111 51.0932C43.1426 51.127 43.1754 51.1596 43.2074 51.1929C43.2393 51.2263 43.2712 51.2597 43.3036 51.2928C43.3365 51.3261 43.3692 51.3596 43.4025 51.3925C43.4366 51.4261 43.472 51.4591 43.5065 51.4923C43.541 51.5256 43.5753 51.5592 43.6104 51.592C43.6462 51.6255 43.682 51.6589 43.7182 51.6918C43.755 51.7256 43.7928 51.7584 43.8303 51.7917C43.8677 51.8249 43.9046 51.8585 43.9424 51.8914C43.9813 51.9251 44.0206 51.9581 44.0599 51.9913C44.0999 52.0248 44.1401 52.0578 44.1805 52.091C44.2208 52.1242 44.2601 52.1581 44.3009 52.1908C44.3432 52.2246 44.3871 52.2573 44.4297 52.2905C44.4727 52.324 44.5157 52.3574 44.5592 52.3904C44.6031 52.4237 44.6471 52.4573 44.6914 52.4901C44.7609 52.5414 44.8312 52.592 44.9019 52.6421C44.974 52.6933 45.047 52.7439 45.1204 52.794C45.1951 52.8449 45.2692 52.8962 45.345 52.9458C45.4239 52.9976 45.5044 53.0476 45.5846 53.0981C45.6661 53.1493 45.7481 53.2001 45.8308 53.25C45.9155 53.3012 46 53.3524 46.0861 53.4023C46.1749 53.4539 46.2653 53.504 46.3555 53.5543C46.4478 53.6056 46.5408 53.6561 46.6344 53.7062C46.7304 53.7575 46.8267 53.8085 46.9241 53.8585C47.0243 53.9096 47.1249 53.9604 47.2262 54.0103C47.3314 54.0619 47.4375 54.1123 47.544 54.1625C47.653 54.2139 47.7628 54.2646 47.873 54.3145C47.9866 54.3657 48.1005 54.4166 48.2152 54.4664C48.3337 54.5178 48.4526 54.5687 48.5726 54.6187C48.6956 54.67 48.8193 54.7209 48.9436 54.7705C49.0727 54.8221 49.2026 54.8729 49.3328 54.9228C49.4671 54.9743 49.6019 55.0248 49.7373 55.0747C49.8773 55.1261 50.0179 55.1768 50.1589 55.2266C50.3047 55.2782 50.4512 55.3288 50.5981 55.3789C50.7495 55.4303 50.9013 55.4809 51.0538 55.5307C51.2108 55.5822 51.3683 55.6329 51.5263 55.6827C51.6895 55.7342 51.8531 55.7848 52.0169 55.8346C52.1866 55.8862 52.3563 55.9368 52.5264 55.9869C52.7013 56.0382 52.8763 56.0887 53.0513 56.1388C53.2317 56.1902 53.412 56.2408 53.5923 56.2909C53.7769 56.3422 53.9611 56.3929 54.1453 56.4428C54.3341 56.4941 54.5227 56.5446 54.7107 56.5948C54.9032 56.6461 55.095 56.6969 55.2864 56.7471L55.8664 56.899L56.4509 57.0513L57.0319 57.2031C57.2252 57.2538 57.4173 57.3045 57.6079 57.355C57.7988 57.4058 57.9889 57.4564 58.1766 57.5073C58.3623 57.5576 58.5458 57.6084 58.7279 57.6592C58.9091 57.7096 59.0881 57.7604 59.2654 57.8114C59.4396 57.8618 59.6126 57.9124 59.783 57.9633C59.9496 58.0135 60.1133 58.0642 60.2759 58.1153C60.4347 58.1653 60.5907 58.216 60.7452 58.2672C60.8963 58.3174 61.045 58.3682 61.1919 58.4194C61.2278 58.4321 61.2646 58.4444 61.3003 58.4571C61.6129 58.566 61.7661 58.508 61.7977 58.4194C61.8152 58.3703 61.7951 58.3116 61.744 58.2672Z" fill="#1C2380"/>
<path fill-rule="evenodd" clip-rule="evenodd" d="M61.7244 61.6119C61.7152 61.5692 61.6833 61.5187 61.6171 61.4601C61.599 61.4439 61.5785 61.4269 61.5548 61.4095C61.5066 61.3745 61.4379 61.3404 61.3472 61.3082C61.1728 61.2461 60.9165 61.1916 60.5629 61.1559C60.0369 61.1029 59.2965 61.0912 58.2938 61.1559C57.8082 61.1873 57.2612 61.2368 56.6471 61.3082C56.2813 61.3508 55.8918 61.401 55.4773 61.4601C55.1584 61.5054 54.8251 61.5561 54.4761 61.6119C54.1845 61.6588 53.8825 61.7095 53.5691 61.7642C53.2978 61.8117 53.0172 61.8623 52.7291 61.9161C52.4703 61.9644 52.2054 62.0149 51.933 62.0684C51.6868 62.1168 51.4345 62.1676 51.1768 62.2203C50.9394 62.2691 50.697 62.3197 50.45 62.3723C50.2232 62.4206 49.9926 62.4701 49.7571 62.5218L49.7448 62.5244L49.0444 62.6763L48.3385 62.8286L47.6336 62.9805L46.9325 63.1325C46.7025 63.1825 46.4707 63.2333 46.2376 63.2848C46.0114 63.3347 45.7836 63.3853 45.5547 63.4366C45.3324 63.4866 45.1088 63.5371 44.8841 63.5885C44.6655 63.6386 44.4458 63.6892 44.2256 63.7408C44.0123 63.7907 43.7984 63.8412 43.584 63.8927C43.3759 63.9426 43.1672 63.9932 42.9582 64.0447C42.755 64.0946 42.5517 64.1452 42.3478 64.1968C42.1508 64.2468 41.9536 64.2974 41.7563 64.3488C41.5646 64.3986 41.3731 64.4493 41.1814 64.5007C40.995 64.5507 40.8085 64.6014 40.622 64.6529C40.4413 64.7029 40.2607 64.7533 40.0804 64.8047C39.9052 64.8547 39.7301 64.9057 39.5555 64.957C39.3858 65.007 39.2166 65.0577 39.0475 65.109C38.8832 65.159 38.7189 65.2096 38.5553 65.2609C38.3957 65.311 38.2367 65.3617 38.0781 65.4132C37.9235 65.4633 37.7692 65.5136 37.6153 65.5651C37.4658 65.6151 37.317 65.666 37.1683 65.7174C37.0235 65.7673 36.8792 65.8181 36.7353 65.8692C36.5951 65.9192 36.4555 65.9698 36.3162 66.0211C36.1803 66.0712 36.0448 66.1221 35.9098 66.1734C35.7782 66.2236 35.6468 66.2741 35.5163 66.3253C35.3887 66.3755 35.2621 66.426 35.1358 66.4773C35.0122 66.5274 34.8893 66.5783 34.7669 66.6294C34.6474 66.6795 34.5284 66.7303 34.4101 66.7813C34.2942 66.8315 34.1787 66.882 34.0637 66.9333C33.9513 66.9834 33.8394 67.0342 33.7281 67.0855C33.6194 67.1355 33.5115 67.1863 33.4037 67.2375C33.2983 67.2875 33.1937 67.3383 33.0895 67.3894C32.9871 67.4397 32.8854 67.4903 32.7842 67.5416C32.6852 67.5917 32.5868 67.6425 32.4891 67.6935C32.3928 67.7437 32.2973 67.7946 32.2022 67.8458C32.1092 67.896 32.0167 67.9466 31.9249 67.9977C31.8348 68.0479 31.7451 68.0985 31.6561 68.1495C31.5685 68.1999 31.4816 68.2507 31.3951 68.3018C31.3106 68.352 31.2264 68.4027 31.1429 68.4538C31.0605 68.5042 30.979 68.555 30.8977 68.606L30.8255 68.6512L30.66 68.7579C30.5824 68.8082 30.5053 68.8588 30.4288 68.9097C30.3527 68.9602 30.2771 69.011 30.2018 69.062C30.1276 69.1124 30.0539 69.163 29.9804 69.2139C29.9079 69.2643 29.8354 69.315 29.7637 69.3659C29.6924 69.4165 29.6213 69.4672 29.5508 69.5182C29.4811 69.5687 29.4119 69.6192 29.3429 69.6701C29.2744 69.7206 29.2064 69.771 29.1387 69.8219C29.0715 69.8724 29.0044 69.9233 28.938 69.9742C28.872 70.0247 28.8066 70.0753 28.7414 70.1261C28.6765 70.1766 28.6119 70.2274 28.548 70.2783C28.4842 70.3287 28.4211 70.3795 28.3581 70.4303C28.2957 70.4808 28.2334 70.5315 28.1718 70.5821C28.1102 70.6329 28.049 70.6835 27.988 70.7344C27.9275 70.7851 27.8674 70.8357 27.8077 70.8863C27.7491 70.936 27.6914 70.9858 27.6336 71.0356L27.6306 71.0382C27.5723 71.0888 27.5157 71.1397 27.4606 71.1905C27.415 71.2322 27.3707 71.2739 27.3267 71.3156L27.9173 71.7985L28.1028 71.9504L29.5905 73.167L29.7763 73.3189L29.9621 73.4708L30.1484 73.6232L31.2636 74.5353L31.4494 74.6871L32.3789 75.4473L32.4261 75.4861L32.4762 75.4473L32.6722 75.2955L32.8713 75.1432L33.0713 74.9913L33.2744 74.839L33.479 74.6871C33.5475 74.6365 33.6157 74.586 33.6849 74.5353L33.8937 74.3833L34.1045 74.2311L34.3166 74.0792C34.3878 74.0285 34.4601 73.9777 34.5321 73.927L34.7483 73.7751L34.9664 73.6232L35.1879 73.4708L35.4099 73.3189L35.6345 73.167L35.8613 73.0147C35.9371 72.9641 36.0126 72.9135 36.0891 72.8629L36.3206 72.7106L36.5527 72.5587L36.7871 72.4068L37.0243 72.2545L37.2622 72.1027L37.5036 71.9504L37.7463 71.7985L37.9904 71.6466C38.0723 71.596 38.155 71.5454 38.2377 71.4948L38.4871 71.3423L38.7379 71.1905L38.992 71.0382C39.0768 70.9876 39.1614 70.9369 39.2468 70.8863L39.5046 70.7344L39.7649 70.5821C39.8519 70.5315 39.9387 70.4809 40.0264 70.4303C40.1142 70.3795 40.2031 70.3287 40.2917 70.2781L40.5585 70.1261L40.8274 69.9742L41.0996 69.8219L41.3725 69.6701C41.4643 69.6193 41.5568 69.5688 41.6492 69.5182L41.9288 69.3659C42.022 69.3153 42.1154 69.2645 42.2093 69.2139C42.3036 69.1631 42.3991 69.1127 42.4939 69.062L42.7807 68.9097L43.0695 68.7579C43.1665 68.7071 43.264 68.6566 43.3618 68.606C43.4599 68.5552 43.5578 68.5045 43.6565 68.4538L43.954 68.3018L44.2556 68.1495C44.3562 68.0988 44.457 68.0482 44.5583 67.9977C44.66 67.9469 44.7624 67.8963 44.8648 67.8458C44.9681 67.7949 45.0716 67.7441 45.1752 67.6935C45.2791 67.6427 45.3829 67.5921 45.4872 67.5416C45.5926 67.4907 45.6985 67.44 45.8044 67.3894C45.9107 67.3386 46.017 67.288 46.1238 67.2375C46.2312 67.1867 46.3384 67.136 46.4462 67.0855C46.5549 67.0346 46.6642 66.9839 46.7736 66.9333C46.8834 66.8824 46.9934 66.8318 47.1038 66.7813C47.2147 66.7307 47.3256 66.6799 47.437 66.6294C47.5495 66.5785 47.6626 66.5278 47.7757 66.4773C47.8895 66.4264 48.0034 66.3758 48.1177 66.3253C48.2326 66.2745 48.3474 66.2239 48.4628 66.1734C48.5795 66.1225 48.6964 66.0716 48.8136 66.0211C48.9316 65.9701 49.0502 65.9197 49.1687 65.8692C49.2882 65.8183 49.4078 65.7677 49.5278 65.7174C49.649 65.6665 49.77 65.6156 49.8917 65.5651C50.0145 65.5142 50.1379 65.4637 50.2614 65.4132C50.3861 65.3622 50.5113 65.3115 50.6366 65.2609C50.7628 65.2102 50.8892 65.1594 51.0158 65.109C51.1438 65.0581 51.2718 65.0074 51.4003 64.957C51.5309 64.906 51.662 64.8554 51.7932 64.8047C51.9253 64.7538 52.058 64.7034 52.1906 64.6529C52.3252 64.6018 52.46 64.5511 52.595 64.5007C52.7315 64.4497 52.868 64.3989 53.0051 64.3488C53.1442 64.2978 53.2834 64.2472 53.423 64.1968C53.5653 64.1457 53.7078 64.0952 53.8503 64.0447C53.9947 63.9936 54.1396 63.9429 54.2846 63.8927C54.4316 63.8416 54.5791 63.791 54.7266 63.7408C54.8771 63.6896 55.0278 63.6389 55.1788 63.5885C55.3322 63.5375 55.4858 63.4867 55.6398 63.4366C55.7966 63.3856 55.9534 63.3347 56.1107 63.2848C56.2723 63.2334 56.434 63.1828 56.5959 63.1325C56.761 63.0813 56.9266 63.0307 57.0921 62.9805C57.2617 62.9293 57.4315 62.8787 57.6015 62.8286C57.7763 62.7773 57.9514 62.7265 58.1267 62.6763C58.3064 62.625 58.4863 62.5744 58.6665 62.5244C58.8525 62.473 59.039 62.4221 59.2256 62.3723C59.418 62.3207 59.6104 62.2701 59.8032 62.2203C60.0028 62.1688 60.2026 62.1181 60.4026 62.0684C60.6118 62.0165 60.8212 61.9658 61.031 61.9161C61.1963 61.8768 61.362 61.8381 61.5277 61.8002C61.5608 61.7931 61.5976 61.7814 61.6307 61.7642C61.6917 61.7326 61.7395 61.6826 61.7244 61.6119Z" fill="#005DB0"/>
<path fill-rule="evenodd" clip-rule="evenodd" d="M101.707 67.9977C101.702 67.9487 101.694 67.898 101.682 67.8458C101.671 67.7966 101.657 67.7456 101.64 67.6935C101.624 67.644 101.605 67.5934 101.584 67.5417C101.564 67.4919 101.541 67.4413 101.516 67.3894C101.492 67.3397 101.465 67.289 101.437 67.2375C101.409 67.1874 101.38 67.137 101.348 67.0855C101.317 67.0354 101.284 66.9847 101.25 66.9334C101.216 66.8833 101.181 66.8327 101.144 66.7813C101.107 66.7313 101.069 66.6806 101.029 66.6295C100.99 66.5791 100.95 66.5285 100.908 66.4773C100.867 66.4271 100.824 66.3763 100.78 66.3253C100.736 66.2751 100.691 66.2245 100.645 66.1734C100.598 66.1229 100.551 66.0722 100.503 66.0211C100.455 65.9708 100.405 65.92 100.354 65.8693C100.304 65.8189 100.252 65.7682 100.199 65.7174C100.147 65.6668 100.094 65.616 100.039 65.5651C99.984 65.5146 99.928 65.4639 99.871 65.4132C99.8142 65.3625 99.756 65.3117 99.6969 65.2609C99.638 65.2103 99.5783 65.1597 99.517 65.1091C99.4558 65.0585 99.3935 65.0077 99.3301 64.9571C99.2665 64.9063 99.2014 64.8555 99.1357 64.8048C99.0699 64.754 99.0032 64.7035 98.9353 64.6529C98.8667 64.602 98.7973 64.5512 98.7269 64.5008C98.6561 64.4499 98.5841 64.3992 98.5113 64.3489C98.4379 64.298 98.364 64.2474 98.2886 64.1969C98.2122 64.1458 98.1348 64.0952 98.0565 64.0447C97.9772 63.9937 97.8967 63.9431 97.8156 63.8927C97.7334 63.8418 97.6504 63.791 97.5662 63.7408C97.4801 63.6895 97.3931 63.6389 97.305 63.5885C97.2158 63.5374 97.1257 63.4867 97.0342 63.4367C96.9409 63.3855 96.8463 63.3347 96.7508 63.2848C96.6525 63.2335 96.5536 63.1826 96.4534 63.1325C96.3503 63.0809 96.2457 63.0304 96.1405 62.9805C96.0318 62.929 95.9224 62.8783 95.8115 62.8286C95.6957 62.7768 95.5784 62.7261 95.4604 62.6763C95.3369 62.6245 95.2122 62.5738 95.0865 62.5245C94.9531 62.4722 94.8186 62.4214 94.6828 62.3723C94.5376 62.3196 94.3912 62.269 94.2434 62.2203C94.0822 62.1673 93.9194 62.1166 93.7552 62.0684C93.5738 62.0153 93.3912 61.9648 93.2065 61.9182L93.1982 61.9161C92.9884 61.8634 92.7757 61.8131 92.561 61.7643C92.328 61.7114 92.0928 61.6605 91.8547 61.612C91.5941 61.5589 91.3306 61.5081 91.0646 61.4601C90.767 61.4064 90.4664 61.356 90.1633 61.3082C89.8169 61.2537 89.4675 61.203 89.1157 61.1559C88.6996 61.1005 88.2804 61.0499 87.8593 61.0041C87.3271 60.9463 86.7925 60.8958 86.2578 60.8521C85.4698 60.7877 84.6823 60.7378 83.9045 60.7002C80.4418 60.5327 77.1762 60.6053 74.952 60.7002C73.9903 60.7411 73.2229 60.7862 72.719 60.8179C72.6332 60.8233 72.5622 60.8357 72.5072 60.8521C72.3863 60.8884 72.3415 60.9464 72.383 61.0041C72.4155 61.0493 72.5009 61.094 72.6434 61.1283C72.7186 61.1382 72.7955 61.1474 72.8742 61.1559C73.4724 61.2211 74.1774 61.2518 75.0198 61.3082C75.5481 61.3436 76.1305 61.3894 76.7742 61.4601C77.1494 61.5013 77.5452 61.5508 77.9635 61.612C78.2664 61.6564 78.5811 61.7069 78.9079 61.7643C79.1688 61.8101 79.4376 61.8607 79.7144 61.9161C79.9492 61.9633 80.1896 62.0137 80.4363 62.0684C80.6499 62.1159 80.8682 62.1666 81.091 62.2203C81.2901 62.2684 81.4927 62.3189 81.6993 62.3723C81.8867 62.4207 82.0773 62.4715 82.2708 62.5245C82.4477 62.573 82.6279 62.6239 82.8101 62.6763C82.9804 62.7256 83.1525 62.7758 83.3276 62.8286C83.489 62.8775 83.6533 62.9285 83.8188 62.9805C83.9752 63.0297 84.1334 63.0802 84.2935 63.1325C84.4453 63.182 84.5984 63.2324 84.7537 63.2848C84.8997 63.334 85.0475 63.3849 85.1966 63.4367C85.3387 63.4861 85.4824 63.5368 85.6272 63.5885C85.766 63.6382 85.9063 63.689 86.0476 63.7408C86.1828 63.7904 86.319 63.8411 86.4566 63.8927C86.5887 63.9424 86.7217 63.9931 86.8561 64.0447C86.9856 64.0945 87.1162 64.1453 87.2479 64.1969C87.3746 64.2468 87.5022 64.2971 87.6309 64.3489C87.7554 64.3987 87.8806 64.4492 88.007 64.5008C88.1294 64.5507 88.2525 64.6013 88.3767 64.6529C88.4963 64.7027 88.6172 64.7536 88.7385 64.8048C88.8566 64.8547 88.9759 64.9057 89.0955 64.9571C89.2118 65.0071 89.3291 65.0579 89.4467 65.1091C89.5423 65.1507 89.6374 65.1919 89.7339 65.2345L89.794 65.2609C89.9108 65.3124 90.0272 65.3633 90.1435 65.4132C90.2633 65.4647 90.3831 65.5152 90.5026 65.5651C90.626 65.6166 90.7491 65.6673 90.8722 65.7174C90.9988 65.7689 91.1253 65.8195 91.2515 65.8693C91.382 65.9207 91.5122 65.9713 91.6422 66.0211C91.7776 66.0729 91.9128 66.1236 92.0473 66.1734C92.1873 66.2252 92.3265 66.2758 92.4656 66.3253C92.6107 66.3772 92.7556 66.4277 92.8999 66.4773C93.051 66.529 93.2017 66.5801 93.352 66.6295C93.51 66.6815 93.6675 66.7321 93.8245 66.7813C93.99 66.8335 94.155 66.8842 94.3194 66.9334C94.4951 66.9858 94.6699 67.0364 94.8442 67.0855C95.0304 67.1381 95.2157 67.1887 95.4003 67.2375C95.6002 67.2903 95.7989 67.3408 95.9968 67.3894C96.2145 67.4428 96.4308 67.4935 96.6456 67.5417C96.8865 67.5956 97.1258 67.6462 97.3631 67.6935C97.6396 67.7487 97.9133 67.7994 98.1844 67.8458C98.5188 67.903 98.8493 67.9536 99.1749 67.9977C99.6532 68.0624 100.121 68.1129 100.579 68.1496C100.959 68.1801 101.331 68.201 101.695 68.2128H101.703C101.706 68.1922 101.708 68.171 101.71 68.1496C101.713 68.101 101.712 68.0505 101.707 67.9977Z" fill="#0045AC"/>
<path fill-rule="evenodd" clip-rule="evenodd" d="M89.2192 48.7983C89.2175 48.7647 89.2152 48.7314 89.2119 48.6986C89.2085 48.6648 89.2043 48.6318 89.1991 48.5989C89.1936 48.5651 89.1874 48.5319 89.1804 48.499C89.173 48.4654 89.165 48.432 89.1559 48.3991C89.1468 48.3655 89.1368 48.3323 89.1257 48.2994C89.1143 48.2658 89.1025 48.2323 89.0894 48.1995C89.0758 48.1661 89.0612 48.133 89.0457 48.1002C89.0298 48.0663 89.013 48.0333 88.9952 48.0004C88.977 47.9667 88.958 47.9334 88.9378 47.9006C88.917 47.8669 88.8953 47.8335 88.8725 47.8008C88.849 47.767 88.8245 47.7338 88.7992 47.701C88.7729 47.6671 88.7459 47.6338 88.7177 47.6013C88.6883 47.5673 88.6575 47.5342 88.626 47.5014C88.5934 47.4676 88.5598 47.4342 88.5252 47.4017C88.4891 47.3677 88.452 47.3345 88.4139 47.3019C88.3738 47.2678 88.3326 47.2346 88.2906 47.2021C88.2463 47.168 88.201 47.1348 88.1549 47.1023C88.1057 47.0681 88.0556 47.0348 88.0046 47.0025C87.9502 46.9681 87.8946 46.9349 87.8382 46.9028C87.7774 46.8681 87.7156 46.8349 87.6528 46.8029C87.5847 46.7682 87.5155 46.7349 87.4454 46.7032C87.3675 46.6679 87.2885 46.6349 87.2089 46.6033C87.1184 46.5677 87.0271 46.5343 86.9355 46.5036C86.8259 46.4667 86.7156 46.4336 86.6059 46.4038C86.4608 46.3643 86.3165 46.331 86.175 46.304C85.6796 46.2096 85.2192 46.1909 84.8816 46.2486C84.8809 46.267 84.8789 46.2856 84.8777 46.304C84.8753 46.3371 84.8723 46.3703 84.8683 46.4038C84.8644 46.4368 84.8603 46.47 84.8547 46.5036C84.8492 46.5365 84.8425 46.5699 84.8354 46.6033C84.8284 46.6364 84.8204 46.6697 84.8118 46.7032C84.8036 46.7363 84.7944 46.7695 84.7847 46.8029C84.7748 46.836 84.7648 46.8692 84.7536 46.9028C84.7425 46.9357 84.7309 46.9691 84.7184 47.0025C84.7061 47.0356 84.6927 47.0689 84.679 47.1023C84.6655 47.1355 84.6515 47.1687 84.6366 47.2021C84.6219 47.2353 84.6073 47.2684 84.5914 47.3019C84.5755 47.3349 84.5587 47.3682 84.5416 47.4017C84.5247 47.4348 84.5071 47.4681 84.489 47.5014C84.4712 47.5346 84.4531 47.5678 84.4339 47.6013C84.4151 47.6344 84.3955 47.6677 84.3755 47.701C84.3555 47.7342 84.3348 47.7674 84.3137 47.8008C84.2929 47.834 84.2718 47.8672 84.2499 47.9006C84.2282 47.9338 84.2061 47.967 84.1833 48.0004C84.1605 48.0336 84.137 48.0669 84.1133 48.1002C84.0899 48.1333 84.0662 48.1663 84.0417 48.1995C84.0175 48.2327 83.9928 48.2661 83.9674 48.2994C83.9422 48.3326 83.9162 48.3657 83.89 48.3991C83.864 48.4325 83.8379 48.4655 83.8108 48.499C83.7841 48.5322 83.7567 48.5655 83.729 48.5989C83.7014 48.6319 83.673 48.6653 83.6446 48.6986C83.6162 48.7318 83.588 48.765 83.5587 48.7983L83.47 48.898C83.4403 48.9312 83.4099 48.9646 83.3792 48.9979C83.3487 49.0311 83.3186 49.0643 83.2872 49.0976C83.256 49.1307 83.2237 49.1643 83.1918 49.1975L83.0952 49.2972C83.0626 49.3306 83.0298 49.3636 82.9964 49.3971C82.9632 49.4303 82.9291 49.4635 82.8951 49.4968C82.8613 49.5302 82.8276 49.5634 82.7929 49.5965L82.688 49.6964L82.582 49.7959C82.5463 49.8289 82.5106 49.8624 82.474 49.8956C82.4377 49.9288 82.4005 49.9621 82.3635 49.9955L82.252 50.0952L82.1378 50.195L82.0225 50.2948L81.9055 50.3946L81.7865 50.4944C81.7466 50.5276 81.7071 50.5609 81.6666 50.5941L81.5437 50.694L81.42 50.7937L81.2946 50.8934L81.1671 50.9933L81.0388 51.0931L80.9082 51.1929L80.7767 51.2927L80.6429 51.3925L80.5079 51.4922L80.3714 51.5919L80.2332 51.6918L80.0938 51.7917L79.9524 51.8914L79.8101 51.9912L79.6656 52.091L79.5197 52.1907L79.3727 52.2904L79.2238 52.3903L79.0741 52.49C78.9976 52.5406 78.9201 52.5914 78.8423 52.642C78.7647 52.6927 78.6864 52.7433 78.6076 52.7939C78.5288 52.8445 78.4494 52.8953 78.3693 52.9458C78.2892 52.9965 78.2086 53.0473 78.1273 53.0981C78.0462 53.1487 77.9648 53.1993 77.8825 53.2499C77.8001 53.3007 77.7174 53.3515 77.6339 53.4022C77.5505 53.4529 77.4662 53.5036 77.3816 53.5542C77.2971 53.6047 77.2118 53.6555 77.1262 53.7061C77.0403 53.7569 76.9537 53.8076 76.8668 53.8584C76.7799 53.909 76.6927 53.9595 76.6046 54.0103L76.3386 54.1624C76.2496 54.2132 76.1601 54.2638 76.07 54.3144L75.7979 54.4663C75.7061 54.5171 75.6137 54.5678 75.5209 54.6186C75.4285 54.6692 75.3351 54.7198 75.2415 54.7705L74.9578 54.9228C74.8631 54.9734 74.7675 55.0241 74.6714 55.0746C74.5753 55.1253 74.4786 55.176 74.3816 55.2265C74.284 55.2774 74.1858 55.328 74.0872 55.3788C73.9887 55.4294 73.8897 55.48 73.7901 55.5307C73.6901 55.5814 73.5893 55.6319 73.4884 55.6827L73.1834 55.8345C73.0807 55.8853 72.9773 55.9361 72.8737 55.9868C72.7699 56.0375 72.6656 56.0881 72.561 56.1387C72.4557 56.1895 72.3499 56.2402 72.2437 56.2909C72.1373 56.3418 72.0306 56.3924 71.9235 56.4427C71.8157 56.4935 71.7077 56.5443 71.5991 56.5947C71.4896 56.6456 71.3795 56.6964 71.2692 56.747L71.2365 56.7621C71.1712 56.8073 71.1193 56.8541 71.0819 56.8989C71.0356 56.9544 71.0113 57.0072 71.0096 57.0512C71.0062 57.1419 71.0996 57.1959 71.2988 57.1613C71.5177 57.1251 71.7337 57.0884 71.9478 57.0512C72.2334 57.0014 72.5143 56.9504 72.7921 56.8989C73.0609 56.849 73.3265 56.7985 73.5877 56.747C73.8429 56.6968 74.0954 56.6462 74.3432 56.5947C74.583 56.5448 74.8182 56.4939 75.0513 56.4427C75.2793 56.3927 75.5038 56.342 75.7252 56.2909C75.943 56.2407 76.1578 56.19 76.3693 56.1387C76.5764 56.0885 76.781 56.0379 76.9821 55.9868C77.1803 55.9363 77.3761 55.8857 77.5684 55.8345C77.7572 55.7843 77.9426 55.7336 78.1261 55.6827C78.3072 55.6322 78.4854 55.5816 78.6612 55.5307C78.8348 55.4803 79.0055 55.4297 79.1739 55.3788C79.341 55.3283 79.5055 55.2775 79.6677 55.2265C79.8279 55.176 79.9859 55.1255 80.1412 55.0746C80.2953 55.0243 80.4471 54.9737 80.5966 54.9228C80.7452 54.8721 80.8918 54.8215 81.0358 54.7705C81.1785 54.72 81.3191 54.6694 81.4574 54.6186C81.5951 54.568 81.7312 54.5172 81.8647 54.4663C81.997 54.4158 82.1276 54.3651 82.2559 54.3144C82.3837 54.2638 82.5095 54.2132 82.6331 54.1624C82.7563 54.1118 82.8776 54.061 82.9969 54.0103C83.1157 53.9596 83.2322 53.9092 83.3471 53.8584C83.4618 53.8076 83.5746 53.7569 83.6855 53.7061C83.796 53.6555 83.9043 53.6049 84.0109 53.5542C84.1176 53.5036 84.2223 53.4529 84.3251 53.4022C84.4283 53.3513 84.5292 53.3007 84.6286 53.2499C84.7277 53.1993 84.8249 53.1487 84.9205 53.0981C85.0163 53.0473 85.1104 52.9965 85.2025 52.9458C85.2947 52.8952 85.385 52.8445 85.4735 52.7939C85.5622 52.7431 85.6492 52.6927 85.7345 52.642C85.8201 52.5913 85.904 52.5406 85.986 52.49C86.0401 52.4567 86.0942 52.4235 86.1465 52.3903C86.1993 52.357 86.2507 52.3238 86.3019 52.2904C86.3532 52.2572 86.4036 52.2239 86.4533 52.1907C86.5033 52.1574 86.5531 52.1242 86.6016 52.091C86.6503 52.0576 86.6983 52.0244 86.7454 51.9912C86.7928 51.9578 86.839 51.9246 86.885 51.8914C86.931 51.858 86.9767 51.8248 87.0212 51.7917C87.0661 51.7583 87.1107 51.725 87.1541 51.6918C87.1978 51.6585 87.2397 51.6253 87.2818 51.5919C87.3241 51.5586 87.3656 51.5254 87.4063 51.4922C87.4474 51.459 87.4883 51.4255 87.5279 51.3925C87.5677 51.359 87.6066 51.3258 87.6448 51.2927C87.6834 51.2593 87.7208 51.2261 87.7579 51.1929C87.7951 51.1594 87.8316 51.1262 87.8674 51.0931C87.9035 51.0598 87.9394 51.0263 87.9739 50.9933C88.0088 50.9598 88.0425 50.9266 88.0757 50.8934C88.1093 50.8601 88.1416 50.8267 88.1736 50.7937C88.2059 50.7604 88.2376 50.727 88.2682 50.694C88.2992 50.6606 88.33 50.6272 88.3593 50.5941C88.389 50.5606 88.418 50.5274 88.4461 50.4944C88.4746 50.4608 88.5017 50.4277 88.5286 50.3946C88.5557 50.361 88.582 50.3278 88.6075 50.2948C88.6332 50.2613 88.6584 50.228 88.6824 50.195C88.7069 50.1616 88.7307 50.1281 88.7534 50.0952C88.7764 50.0617 88.7992 50.0284 88.8204 49.9955C88.842 49.9618 88.8624 49.9286 88.8823 49.8956C88.9025 49.8621 88.9214 49.8288 88.9398 49.7959C88.9584 49.7623 88.976 49.7292 88.9926 49.6964C89.0098 49.6628 89.0259 49.6295 89.0411 49.5965C89.0565 49.5629 89.0709 49.5297 89.0843 49.4968C89.0982 49.4632 89.1109 49.4299 89.1225 49.3971C89.1344 49.3632 89.1452 49.33 89.155 49.2972C89.165 49.2635 89.174 49.2301 89.1815 49.1975C89.1896 49.1636 89.1963 49.1304 89.2018 49.0976C89.2074 49.0637 89.2119 49.0304 89.2151 48.9979C89.2182 48.9639 89.2204 48.9305 89.2208 48.898L89.2214 48.8841C89.2214 48.8552 89.2205 48.8268 89.2192 48.7983Z" fill="#21148A"/>
<path fill-rule="evenodd" clip-rule="evenodd" d="M79.9411 78.9443C79.9393 78.8944 79.9368 78.8437 79.9338 78.7921C79.9307 78.7421 79.927 78.6915 79.9229 78.64C79.9188 78.59 79.9141 78.5392 79.909 78.4879C79.904 78.4378 79.8984 78.3872 79.8923 78.336C79.8864 78.286 79.8797 78.2353 79.8729 78.184C79.8662 78.1338 79.8589 78.083 79.8514 78.0319C79.8439 77.9818 79.8361 77.931 79.8276 77.88C79.8195 77.8296 79.8109 77.7789 79.8018 77.7277C79.7931 77.6774 79.7835 77.6269 79.7739 77.5757C79.7646 77.5255 79.7547 77.4749 79.7446 77.4238C79.7345 77.3735 79.7241 77.3226 79.7133 77.2715L79.6808 77.1197L79.6466 76.9678L79.6111 76.8155L79.5743 76.6636L79.5364 76.5116L79.4972 76.3595L79.4567 76.2076L79.4152 76.0557L79.3725 75.9034L79.329 75.7516L79.2845 75.5993L79.2389 75.4473L79.1926 75.2954L79.1451 75.1431L79.0969 74.9912L79.0478 74.8391L78.9978 74.6871L78.9473 74.535L78.8955 74.3832L78.8431 74.231L78.79 74.0792L78.736 73.9269L78.6814 73.775L78.626 73.6231L78.5698 73.4707L78.513 73.3188L78.4554 73.1669L78.3971 73.0147L78.3379 72.8628L78.2781 72.7105L78.2177 72.5586L78.1565 72.4067L78.0946 72.2545L78.0319 72.1026L77.9685 71.9503L77.9043 71.7984L77.8394 71.6466L77.7737 71.4947L77.7072 71.3423L77.6398 71.1904L77.5714 71.0381L77.5025 70.8862L77.4326 70.7343L77.3618 70.5821L77.29 70.4302L77.2174 70.2783L77.1433 70.126L77.0684 69.9742L76.9921 69.8219L76.9149 69.67L76.8363 69.5181L76.7561 69.3658L76.7238 69.305C76.707 69.2743 76.6892 69.2442 76.6719 69.2138C76.6426 69.1629 76.6131 69.1122 76.5828 69.0619C76.5517 69.0108 76.5204 68.9599 76.4883 68.9097C76.4556 68.8586 76.4225 68.8079 76.3884 68.7578C76.3539 68.7067 76.319 68.656 76.283 68.6059C76.2463 68.5546 76.2088 68.5038 76.1709 68.4536C76.132 68.4024 76.0925 68.3518 76.0524 68.3017C76.0111 68.2503 75.9692 68.1997 75.9266 68.1495C75.8831 68.0981 75.839 68.0475 75.7942 67.9976C75.748 67.9461 75.701 67.8956 75.6535 67.8457C75.6045 67.7941 75.5546 67.7435 75.5041 67.6934C75.4522 67.642 75.3997 67.5915 75.3465 67.5416C75.2915 67.49 75.2357 67.4392 75.1791 67.3893C75.1209 67.3378 75.0618 67.2872 75.0021 67.2374C74.9401 67.1858 74.8776 67.135 74.8141 67.0854C74.748 67.0338 74.6813 66.9827 74.6137 66.9332C74.5431 66.8814 74.4713 66.8309 74.3992 66.7812C74.3237 66.7295 74.248 66.6787 74.1714 66.6293C74.09 66.5772 74.0079 66.5266 73.9252 66.4772C73.8381 66.4252 73.7505 66.3743 73.6618 66.3253C73.5672 66.2729 73.4716 66.2224 73.3754 66.1733C73.2723 66.1208 73.1683 66.0698 73.0634 66.021C72.9503 65.9683 72.8364 65.9177 72.7218 65.8692C72.596 65.8159 72.4694 65.7654 72.3419 65.7173C72.1995 65.6635 72.0563 65.6126 71.9124 65.565C71.747 65.5104 71.5807 65.4599 71.4141 65.4131C71.2124 65.3567 71.0105 65.3059 70.8086 65.2608C70.5364 65.2001 70.2646 65.1496 69.9948 65.109C68.8147 64.9312 67.677 64.9423 66.7336 65.109C66.6113 65.1305 66.4917 65.1543 66.3763 65.1812C66.2555 65.2088 66.1505 65.2352 66.0671 65.2608C65.9011 65.3119 65.8199 65.3607 65.8652 65.4131C65.9019 65.4556 66.0214 65.5001 66.2459 65.5509L66.2783 65.565C66.3916 65.6128 66.5013 65.6636 66.6075 65.7173C66.7029 65.7655 66.7956 65.8162 66.8856 65.8692C66.9681 65.9177 67.0481 65.9686 67.1262 66.021C67.1998 66.0703 67.2718 66.1208 67.3415 66.1733C67.4065 66.2224 67.4697 66.2735 67.5316 66.3253C67.5905 66.3746 67.6478 66.4253 67.7041 66.4772C67.7581 66.5269 67.811 66.5775 67.8625 66.6293C67.9115 66.679 67.9593 66.7298 68.0061 66.7812C68.0514 66.8309 68.0957 66.8816 68.1389 66.9332C68.1811 66.983 68.2223 67.0338 68.2628 67.0854C68.302 67.1353 68.3404 67.1859 68.3782 67.2374C68.4146 67.2873 68.4507 67.3379 68.486 67.3893C68.5203 67.4393 68.554 67.4901 68.5873 67.5416C68.6195 67.5916 68.6511 67.6422 68.6823 67.6934C68.7127 67.7436 68.7429 67.7943 68.7724 67.8457C68.8013 67.8956 68.8295 67.9464 68.8574 67.9976C68.8849 68.0477 68.9119 68.0983 68.9384 68.1495C68.9646 68.1998 68.9903 68.2506 69.0158 68.3017C69.0407 68.352 69.0654 68.4026 69.0895 68.4536C69.1134 68.504 69.1371 68.5547 69.1602 68.6059C69.1831 68.6561 69.2057 68.7067 69.228 68.7578C69.2499 68.8081 69.2718 68.8586 69.2932 68.9097C69.3144 68.96 69.3355 69.0109 69.3563 69.0619C69.3767 69.1123 69.3971 69.1628 69.4171 69.2138C69.4368 69.2642 69.4564 69.3149 69.4757 69.3658L69.5329 69.5181C69.5515 69.5683 69.57 69.619 69.5883 69.67C69.6065 69.7203 69.6247 69.7708 69.6425 69.8219L69.6958 69.9742L69.7471 70.126L69.7978 70.2783L69.8475 70.4302L69.8965 70.5821L69.945 70.7343L69.9925 70.8862L70.0396 71.0381L70.0865 71.1904L70.1329 71.3423L70.1792 71.4947L70.2252 71.6466L70.2709 71.7984L70.3168 71.9503L70.3627 72.1026L70.4084 72.2545L70.4547 72.4067L70.5009 72.5586L70.5472 72.7105L70.5942 72.8628L70.6413 73.0147L70.6888 73.1669L70.737 73.3188L70.7854 73.4707L70.8344 73.6231L70.8839 73.775L70.9342 73.9269L70.985 74.0792L71.0368 74.231L71.0894 74.3832L71.1421 74.535L71.1963 74.6871L71.2512 74.8391C71.2695 74.8897 71.2879 74.9405 71.3068 74.9912L71.3639 75.1431L71.4218 75.2954C71.4412 75.346 71.4604 75.3966 71.4802 75.4473L71.5402 75.5993L71.6011 75.7516L71.6631 75.9034L71.7266 76.0557L71.7909 76.2076L71.8567 76.3595L71.9238 76.5116L71.992 76.6636C72.015 76.7142 72.0385 76.7649 72.0619 76.8155L72.1327 76.9678C72.1567 77.0184 72.181 77.069 72.2055 77.1197L72.2357 77.1827L72.2799 77.2715C72.3053 77.3227 72.3309 77.3737 72.3567 77.4238C72.3831 77.4749 72.4095 77.5258 72.4364 77.5757C72.4637 77.627 72.4915 77.6775 72.5195 77.7277C72.5481 77.7792 72.577 77.8298 72.606 77.88C72.6356 77.9312 72.6653 77.9818 72.6953 78.0319C72.7261 78.0832 72.7569 78.1339 72.7881 78.184C72.82 78.2353 72.8519 78.2861 72.8842 78.336C72.9172 78.3872 72.9504 78.4381 72.984 78.4879C73.0186 78.5394 73.0537 78.59 73.0887 78.64C73.1247 78.6915 73.1609 78.7421 73.197 78.7921C73.2345 78.8437 73.272 78.8944 73.3101 78.9443C73.349 78.9958 73.3881 79.0464 73.4274 79.0962C73.4679 79.1477 73.5086 79.1983 73.5497 79.2481C73.5921 79.2997 73.6346 79.3506 73.6773 79.4004C73.7214 79.4518 73.7658 79.5025 73.8105 79.5523C73.8567 79.604 73.9033 79.6545 73.95 79.7044C73.9984 79.7561 74.047 79.8066 74.0959 79.8566C74.1464 79.9081 74.1972 79.9589 74.248 80.0084C74.3009 80.06 74.3539 80.1109 74.4071 80.1603C74.463 80.2122 74.519 80.2629 74.5751 80.3126C74.6337 80.3645 74.6923 80.4149 74.751 80.4645C74.8125 80.5163 74.8742 80.5671 74.9358 80.6163C75.0011 80.6686 75.0666 80.7191 75.1319 80.7686C75.2009 80.8208 75.2696 80.8714 75.3383 80.9205C75.4114 80.9728 75.4844 81.0237 75.5571 81.0728C75.6346 81.1252 75.7118 81.1758 75.7885 81.2247C75.8712 81.2774 75.9536 81.3277 76.0353 81.3765C76.1238 81.4295 76.2114 81.4801 76.2983 81.5288C76.3928 81.5818 76.4861 81.6324 76.5783 81.6807C76.6797 81.7339 76.7797 81.7847 76.8777 81.833C76.9864 81.8864 77.0928 81.937 77.1965 81.985C77.3126 82.0387 77.4252 82.089 77.5341 82.1369C77.6568 82.1907 77.7747 82.2413 77.8868 82.2892C78.0125 82.3427 78.1309 82.3929 78.2414 82.441C78.3632 82.494 78.475 82.5445 78.5753 82.5932C78.6811 82.6449 78.7738 82.695 78.8523 82.745C78.8762 82.7605 78.8994 82.7759 78.9206 82.7912C78.9429 82.777 78.9643 82.7615 78.9852 82.745C79.0402 82.7015 79.0908 82.6507 79.1368 82.5932C79.174 82.5467 79.2085 82.4958 79.2407 82.441C79.2686 82.3933 79.2947 82.3424 79.3192 82.2892C79.3416 82.2405 79.3625 82.1897 79.3824 82.1369C79.4007 82.0879 79.4181 82.0371 79.4345 81.985C79.4503 81.9356 79.4652 81.885 79.4793 81.833C79.4928 81.7835 79.5059 81.7324 79.5184 81.6807C79.5304 81.631 79.542 81.5803 79.5532 81.5288C79.5642 81.4787 79.5747 81.4281 79.585 81.3765C79.595 81.3266 79.605 81.2758 79.6146 81.2247L79.6426 81.0728L79.67 80.9205L79.697 80.7686L79.7238 80.6163L79.751 80.4645L79.7795 80.3126C79.7892 80.2618 79.799 80.2111 79.8092 80.1603C79.8194 80.1097 79.83 80.0591 79.8409 80.0084C79.8511 79.9608 79.8618 79.9131 79.8726 79.8657L79.8745 79.8566C79.8856 79.8076 79.8951 79.7567 79.9036 79.7041C79.9115 79.6549 79.9185 79.6047 79.9241 79.5523C79.929 79.5032 79.933 79.4521 79.9361 79.4004C79.9392 79.3507 79.9413 79.3 79.9426 79.2481C79.9438 79.1984 79.9444 79.148 79.9441 79.0962C79.9437 79.0464 79.943 78.9959 79.9411 78.9443Z" fill="#005FB1"/>
<path fill-rule="evenodd" clip-rule="evenodd" d="M68.9454 56.9096L68.9394 56.899C68.9109 56.8483 68.8832 56.7979 68.8562 56.7471C68.8291 56.6965 68.8025 56.6456 68.7768 56.5948C68.7513 56.5443 68.7264 56.4936 68.702 56.4428C68.6778 56.3923 68.654 56.3418 68.6308 56.2909C68.6078 56.2403 68.5855 56.1895 68.5635 56.1388C68.5417 56.0883 68.5204 56.0375 68.4995 55.9869C68.4786 55.9361 68.4581 55.8854 68.4381 55.8346C68.4184 55.784 68.3986 55.7335 68.3796 55.6827C68.3606 55.6321 68.3421 55.5816 68.3238 55.5307C68.3054 55.4802 68.2876 55.4296 68.27 55.3789C68.2524 55.3281 68.235 55.2775 68.2181 55.2266C68.2011 55.1761 68.1841 55.1255 68.1677 55.0747C68.1511 55.0242 68.1351 54.9736 68.1188 54.9228L68.071 54.7705L68.0242 54.6187L67.9778 54.4664L67.9319 54.3145L67.8865 54.1625L67.8408 54.0103L67.795 53.8585L67.7485 53.7062L67.7017 53.5543L67.6542 53.4023L67.6054 53.25L67.556 53.0981L67.5048 52.9458C67.4877 52.8955 67.4703 52.8447 67.4525 52.794C67.4348 52.7435 67.4165 52.693 67.3981 52.6421C67.3799 52.5916 67.3615 52.541 67.3424 52.4901L67.3049 52.3904L67.2663 52.2905L67.227 52.1909L67.1868 52.091L67.1457 51.9913L67.1034 51.8914L67.0604 51.7917L67.0163 51.6919C67.0014 51.6587 66.9861 51.6253 66.9707 51.592L66.9245 51.4923L66.8772 51.3925L66.8284 51.2928L66.7788 51.1929L66.7281 51.0932L66.6758 50.9933L66.6226 50.8935L66.5684 50.7938L66.5124 50.694L66.4556 50.5943L66.3972 50.4944C66.3777 50.4612 66.3575 50.428 66.3374 50.3947L66.2766 50.2948L66.2142 50.1951L66.1505 50.0953L66.0858 49.9954C66.064 49.9623 66.0414 49.929 66.0191 49.8958L65.9516 49.7959L65.8828 49.6965C65.8596 49.6634 65.8358 49.6301 65.812 49.5966L65.7405 49.4969L65.667 49.3972L65.5922 49.2973C65.567 49.2641 65.5421 49.2309 65.5164 49.1976C65.4909 49.1644 65.4645 49.131 65.4382 49.0977L65.3594 48.998L65.2787 48.8981L65.1969 48.7984L65.1136 48.6987L65.0285 48.5989L64.9426 48.4991C64.9136 48.4659 64.8838 48.4325 64.8542 48.3992L64.7649 48.2995L64.6743 48.1997L64.5822 48.1003L64.4888 48.0004C64.4574 47.9674 64.4253 47.934 64.3934 47.9007C64.3653 47.8715 64.3378 47.8425 64.3093 47.8133L64.2537 47.8008C64.0777 47.7624 63.8705 47.7274 63.6431 47.7011C63.1588 47.6449 62.5823 47.6285 62.0168 47.7011C61.8345 47.7245 61.6534 47.7574 61.4766 47.8008C61.3615 47.8293 61.2481 47.8624 61.1379 47.9007C61.0514 47.9307 60.9666 47.9639 60.8841 48.0004C60.8147 48.0311 60.747 48.0646 60.6812 48.1003C60.6234 48.1315 60.5673 48.1645 60.5127 48.1997C60.4635 48.2313 60.4157 48.2645 60.3693 48.2995C60.3274 48.3313 60.2866 48.3646 60.2472 48.3992C60.2105 48.4313 60.1752 48.4646 60.141 48.4991C60.1089 48.5313 60.0777 48.5645 60.0477 48.5989C60.0201 48.631 59.9937 48.6645 59.9678 48.6987C59.9433 48.7312 59.9195 48.7642 59.8969 48.7984C59.8755 48.8307 59.855 48.8642 59.8354 48.8981C59.8168 48.9308 59.799 48.9639 59.782 48.998C59.7656 49.0306 59.7501 49.0638 59.7353 49.0977C59.7214 49.1303 59.7077 49.1637 59.6951 49.1976C59.683 49.2302 59.6712 49.2634 59.6606 49.2973C59.6503 49.3299 59.6409 49.3633 59.632 49.3972C59.6241 49.4269 59.6168 49.4571 59.61 49.4878L59.6083 49.4969C59.601 49.5304 59.5949 49.5636 59.5888 49.5966C59.5829 49.6301 59.5779 49.6634 59.5732 49.6965C59.5686 49.7297 59.564 49.7629 59.5606 49.7959C59.5573 49.8293 59.5549 49.8626 59.5528 49.8958C59.5508 49.929 59.5497 49.9623 59.549 49.9954C59.5482 50.0287 59.5478 50.0621 59.5484 50.0953C59.549 50.1286 59.5499 50.1619 59.5519 50.1951C59.5538 50.2285 59.5569 50.2616 59.5601 50.2948C59.5634 50.3282 59.5671 50.3615 59.5717 50.3947C59.5762 50.428 59.5808 50.4612 59.5865 50.4944C59.5924 50.5279 59.5996 50.561 59.6069 50.5943C59.614 50.6276 59.6221 50.661 59.6306 50.694C59.6392 50.7274 59.6478 50.7607 59.6578 50.7938C59.6677 50.8271 59.6778 50.8604 59.6889 50.8935C59.7001 50.9268 59.7125 50.9602 59.7249 50.9933C59.7375 51.0267 59.7508 51.06 59.7646 51.0932C59.7786 51.1265 59.7925 51.1597 59.8077 51.1929C59.8229 51.2263 59.8388 51.2596 59.8552 51.2928C59.8719 51.3261 59.8893 51.3592 59.9071 51.3925C59.9251 51.4259 59.9435 51.4592 59.9627 51.4923C59.9819 51.5256 60.0013 51.5589 60.0217 51.592C60.0424 51.6255 60.0638 51.6587 60.0855 51.6919C60.1074 51.7252 60.1301 51.7585 60.1534 51.7917C60.1766 51.8251 60.2004 51.8584 60.2249 51.8914C60.2494 51.9248 60.2743 51.9581 60.3 51.9913C60.3259 52.0246 60.3521 52.0578 60.3792 52.091C60.4064 52.1244 60.4349 52.1576 60.4635 52.1909C60.4921 52.2242 60.5216 52.2574 60.5511 52.2905C60.5811 52.324 60.6114 52.3573 60.6426 52.3904C60.6738 52.4237 60.7051 52.457 60.7376 52.4901C60.7874 52.5411 60.8389 52.5916 60.8913 52.6421C60.9442 52.693 60.9983 52.7435 61.0537 52.794C61.1096 52.8449 61.1664 52.8955 61.2248 52.9458C61.284 52.9969 61.3441 53.0476 61.4057 53.0981C61.4678 53.149 61.5314 53.1997 61.5959 53.25C61.661 53.301 61.7274 53.3517 61.7952 53.4023C61.8632 53.4532 61.9325 53.504 62.0029 53.5543C62.0741 53.6052 62.1465 53.6557 62.2199 53.7062C62.2942 53.7571 62.3695 53.808 62.4459 53.8585C62.523 53.9092 62.6009 53.9599 62.68 54.0103C62.7602 54.0614 62.8414 54.112 62.9237 54.1625C63.0067 54.2135 63.0907 54.264 63.1756 54.3145C63.2613 54.3653 63.3478 54.416 63.4353 54.4664C63.5243 54.5174 63.6144 54.5682 63.7051 54.6187C63.7965 54.6696 63.8886 54.7203 63.9816 54.7705C64.0759 54.8216 64.1709 54.8723 64.2667 54.9228C64.3637 54.9737 64.4614 55.0244 64.5598 55.0747C64.6591 55.1256 64.759 55.1762 64.8598 55.2266C64.9621 55.2776 65.0652 55.3284 65.1687 55.3789C65.273 55.4298 65.3777 55.4804 65.4833 55.5307C65.5902 55.5818 65.6977 55.6323 65.8057 55.6827C65.9148 55.7336 66.0242 55.7843 66.1341 55.8346C66.2458 55.8857 66.3578 55.9364 66.4702 55.9869C66.5837 56.0378 66.6973 56.0884 66.8112 56.1388C66.9272 56.1898 67.0432 56.2404 67.1594 56.2909C67.2767 56.342 67.394 56.3927 67.5114 56.4428C67.6305 56.494 67.7496 56.5445 67.8686 56.5948L68.2312 56.7471C68.3532 56.7981 68.475 56.8488 68.5966 56.899L68.7599 56.9663C69.0091 57.0638 69.0003 57.0076 68.9454 56.9096Z" fill="#1F178D"/>
<path fill-rule="evenodd" clip-rule="evenodd" d="M62.3684 64.4266C53.0343 75.9547 46.0039 93.9054 46.0039 93.9054C46.0043 93.9051 44.4577 89.4619 44.0831 85.0393C43.6405 79.7885 45.9488 77.3245 48.5276 74.1504C52.7681 68.9171 62.3682 64.4268 62.3684 64.4266Z" fill="url(#paint1_linear_63_12303)"/>
<path fill-rule="evenodd" clip-rule="evenodd" d="M46.7088 34.105L46.7198 34.0948C46.9008 34.5331 53.156 49.588 61.9296 58.3415C61.9291 58.3416 55.1101 57.12 47.9106 50.6445C46.1557 49.0736 44.0722 44.3642 44.6075 41.8348C45.3383 38.3965 46.6077 34.4195 46.7088 34.105Z" fill="url(#paint2_linear_63_12303)"/>
<path fill-rule="evenodd" clip-rule="evenodd" d="M61.0071 60.8946C62.3307 60.9123 61.7246 61.1818 61.0452 61.3032C39.6153 65.1782 15.7876 76.538 15.7876 76.538C15.7879 76.5377 18.1524 70.8728 30.105 66.113C42.5117 61.1729 55.9566 60.8237 61.0071 60.8946Z" fill="url(#paint3_linear_63_12303)"/>
<path fill-rule="evenodd" clip-rule="evenodd" d="M79.1058 82.6756C82.1179 78.1291 83.0437 72.0292 79.7928 68.0652C76.221 63.7049 68.4028 63.5186 65.8501 65.3469C75.0505 65.113 72.8188 75.7687 79.1058 82.6756Z" fill="url(#paint4_linear_63_12303)"/>
<path fill-rule="evenodd" clip-rule="evenodd" d="M82.5011 41.8683C82.6128 41.9614 82.7238 42.0556 82.834 42.1511C84.3815 43.642 85.7946 47.4204 85.1514 49.1213C83.7287 52.8956 77.1929 55.6885 71.7183 57.0342C70.8514 57.25 70.739 56.9486 71.3691 56.5049C77.3804 51.3921 81.2895 44.0625 81.4854 42.8792C81.659 41.8288 81.3359 41.4826 81.7544 41.5361C81.9977 41.5662 82.2493 41.6838 82.5011 41.8683Z" fill="url(#paint5_linear_63_12303)"/>
<path fill-rule="evenodd" clip-rule="evenodd" d="M71.9957 61.1137C70.5405 61.273 70.6314 60.7647 72.0871 60.4157C77.5742 59.111 91.997 56.6968 99.0703 60.3031C104.954 63.2909 101.659 68.3228 101.659 68.3228C101.659 68.3228 100.94 66.0359 96.2422 63.7939C89.2539 60.4625 76.953 60.5635 71.9957 61.1137Z" fill="url(#paint6_linear_63_12303)"/>
<path fill-rule="evenodd" clip-rule="evenodd" d="M70.0282 42.66C68.5906 42.9856 65.8291 43.9057 64.1164 46.3198C62.137 49.1148 64.6781 54.7033 68.8537 56.9129C68.1222 53.106 72.6048 48.3108 70.0282 42.66Z" fill="url(#paint7_linear_63_12303)"/>
<defs>
<linearGradient id="paint0_linear_63_12303" x1="12.8093" y1="38.6846" x2="12.8093" y2="87.2668" gradientUnits="userSpaceOnUse">
<stop stop-color="#12288B"/>
<stop offset="1" stop-color="#0097E4"/>
</linearGradient>
<linearGradient id="paint1_linear_63_12303" x1="44.0283" y1="64.4266" x2="44.0283" y2="93.9054" gradientUnits="userSpaceOnUse">
<stop stop-color="#F4F900"/>
<stop offset="1" stop-color="#FFC800"/>
</linearGradient>
<linearGradient id="paint2_linear_63_12303" x1="44.522" y1="34.0948" x2="44.522" y2="58.3415" gradientUnits="userSpaceOnUse">
<stop stop-color="#FCDA00"/>
<stop offset="1" stop-color="#EBF95B"/>
</linearGradient>
<linearGradient id="paint3_linear_63_12303" x1="38.7897" y1="53.0619" x2="29.2455" y2="81.1164" gradientUnits="userSpaceOnUse">
<stop stop-color="#FAFB19"/>
<stop offset="1" stop-color="#F1D000"/>
</linearGradient>
<linearGradient id="paint4_linear_63_12303" x1="65.8501" y1="64.2538" x2="65.8501" y2="82.6756" gradientUnits="userSpaceOnUse">
<stop stop-color="#E9F648"/>
<stop offset="1" stop-color="#FACA00"/>
</linearGradient>
<linearGradient id="paint5_linear_63_12303" x1="70.969" y1="41.5308" x2="70.969" y2="57.1056" gradientUnits="userSpaceOnUse">
<stop stop-color="#FFDF00"/>
<stop offset="1" stop-color="#F3FE2D"/>
</linearGradient>
<linearGradient id="paint6_linear_63_12303" x1="70.9487" y1="66.8339" x2="102.579" y2="66.8339" gradientUnits="userSpaceOnUse">
<stop stop-color="#F5FF3E"/>
<stop offset="1" stop-color="#EEC700"/>
</linearGradient>
<linearGradient id="paint7_linear_63_12303" x1="63.4324" y1="42.66" x2="63.4324" y2="56.9129" gradientUnits="userSpaceOnUse">
<stop stop-color="#F7E900"/>
<stop offset="1" stop-color="#F9FD00"/>
</linearGradient>
</defs>
</svg>
