<svg width="517" height="128" viewBox="0 0 517 128" fill="none" xmlns="http://www.w3.org/2000/svg">
<path d="M226.514 89.4024H233.81C234.776 89.4024 235.662 89.5171 236.467 89.7455C237.274 89.9749 237.966 90.2983 238.544 90.7174C239.122 91.1364 239.571 91.6381 239.89 92.2225C240.209 92.8069 240.368 93.45 240.368 94.1515C240.368 94.6866 240.318 95.1644 240.218 95.5835C240.118 96.0016 239.937 96.3961 239.685 96.7446C239.43 97.1005 239.091 97.4365 238.667 97.7533C238.244 98.0701 237.708 98.3935 237.062 98.7251V98.7834C237.708 98.8904 238.291 99.0759 238.811 99.3387C239.312 99.5883 239.764 99.9275 240.143 100.34C240.517 100.752 240.807 101.234 240.997 101.757C241.198 102.298 241.297 102.889 241.297 103.532C241.297 104.264 241.149 104.947 240.853 105.586C240.555 106.226 240.122 106.795 239.582 107.251C239.032 107.724 238.366 108.097 237.588 108.369C236.809 108.642 235.937 108.778 234.972 108.778H226.514V89.4024V89.4024ZM229.926 98.5206H233.361C233.901 98.5206 234.381 98.4351 234.801 98.265C235.22 98.0949 235.575 97.8598 235.866 97.5597C236.16 97.2529 236.385 96.8862 236.525 96.4846C236.677 96.051 236.753 95.5943 236.749 95.1348C236.749 94.6149 236.66 94.1429 236.482 93.7171C236.302 93.2885 236.018 92.912 235.654 92.6224C235.279 92.3176 234.803 92.0849 234.226 91.9234C233.649 91.7624 232.958 91.6816 232.151 91.6816H229.925V98.5206H229.926ZM229.926 106.499H233.025C233.856 106.499 234.579 106.435 235.192 106.307C235.805 106.18 236.31 106 236.709 105.768C237.108 105.537 237.404 105.259 237.597 104.934C237.789 104.609 237.886 104.254 237.886 103.867C237.889 103.449 237.802 103.035 237.629 102.655C237.457 102.282 237.176 101.959 236.786 101.686C236.396 101.413 235.886 101.197 235.256 101.038C234.626 100.88 233.852 100.8 232.935 100.8H229.926V106.499V106.499ZM252.083 89.4024L261.767 108.778H257.375L254.672 103.711H247.209L244.569 108.778H241.297L251.214 89.4024H252.083V89.4024ZM247.797 101.981H254.199L251.208 95.4138L247.797 101.981ZM264.041 89.4024H265.847L278.401 103.252H278.546V89.4024H281.099V108.778H279.21L265.616 93.386H265.5V108.336H264.041V89.4024ZM285.648 89.4024H288.909V97.9945L297.588 89.4024H300.616L292.032 97.9945L301.547 108.778H297.394L288.91 98.944V108.778H285.648V89.4024V89.4024ZM319.187 109.918C317.67 109.918 316.255 109.647 314.941 109.104C313.627 108.562 312.485 107.82 311.515 106.878C310.545 105.937 309.768 104.817 309.225 103.579C308.669 102.323 308.391 100.979 308.391 99.5489C308.387 97.7367 308.888 95.9594 309.838 94.4162C310.304 93.6624 310.868 92.9735 311.515 92.3673C312.171 91.7499 312.903 91.2181 313.693 90.7847C314.511 90.3378 315.382 89.995 316.285 89.7641C317.233 89.5204 318.208 89.3987 319.187 89.402C320.201 89.402 321.171 89.5224 322.096 89.7641C322.999 89.9967 323.869 90.3395 324.688 90.7847C325.48 91.2157 326.212 91.7476 326.866 92.3673C327.51 92.9761 328.073 93.6647 328.543 94.4162C329.013 95.1709 329.375 95.9874 329.621 96.842C329.873 97.722 330 98.6333 329.998 99.5489C330.005 101.39 329.501 103.198 328.543 104.77C327.599 106.322 326.271 107.606 324.688 108.497C323.872 108.956 323.001 109.309 322.096 109.548C321.147 109.797 320.168 109.922 319.186 109.918H319.187ZM319.163 108.838C320.267 108.838 321.242 108.608 322.088 108.148C322.935 107.688 323.649 107.047 324.23 106.224C324.81 105.401 325.249 104.428 325.544 103.305C325.839 102.183 325.986 100.954 325.986 99.6177C325.986 98.2917 325.839 97.0767 325.543 95.9734C325.249 94.8696 324.81 93.9188 324.229 93.1203C323.649 92.3219 322.935 91.7022 322.089 91.2616C321.242 90.8216 320.266 90.6013 319.163 90.6013C318.04 90.6013 317.056 90.8211 316.209 91.2616C315.362 91.7022 314.651 92.3219 314.075 93.1203C313.499 93.9188 313.066 94.8696 312.776 95.9729C312.485 97.0767 312.34 98.2917 312.34 99.6177C312.34 100.954 312.485 102.183 312.776 103.305C313.066 104.428 313.499 105.401 314.075 106.224C314.651 107.047 315.362 107.688 316.209 108.148C317.056 108.608 318.041 108.838 319.163 108.838V108.838ZM345.918 89.983V92.3797H336.615V98.7246H343.344V101.121H336.615V108.778H333.409V89.9834H345.918V89.983ZM360.882 108.675C361.353 108.675 361.821 108.608 362.283 108.475C362.727 108.351 363.148 108.151 363.525 107.884C363.884 107.63 364.184 107.302 364.405 106.923C364.627 106.543 364.737 106.101 364.737 105.599C364.737 104.997 364.586 104.462 364.282 103.994C363.98 103.525 363.582 103.096 363.091 102.707C362.563 102.293 362 101.924 361.409 101.605C360.769 101.255 360.127 100.91 359.481 100.57C358.828 100.225 358.186 99.8627 357.553 99.482C356.948 99.1211 356.384 98.6946 355.871 98.21C355.391 97.7561 354.989 97.2265 354.68 96.6423C354.376 96.0651 354.225 95.4024 354.225 94.6527C354.225 93.9035 354.362 93.2083 354.636 92.567C354.909 91.9291 355.321 91.3605 355.842 90.9033C356.372 90.435 357.024 90.0671 357.799 89.8009C358.574 89.5348 359.462 89.402 360.463 89.402C361.368 89.402 362.177 89.5004 362.889 89.6977C363.601 89.8946 364.227 90.1856 364.766 90.5702C365.306 90.9559 365.771 91.4372 366.138 91.9903C366.514 92.5522 366.817 93.203 367.048 93.9426L365.402 94.7119C365.221 94.1356 364.973 93.5821 364.665 93.0625C364.381 92.5812 364.02 92.1492 363.597 91.7834C363.173 91.4226 362.686 91.1441 362.16 90.962C361.616 90.7699 361.002 90.6739 360.319 90.6739C359.712 90.6739 359.183 90.7599 358.73 90.9329C358.278 91.1049 357.9 91.3319 357.597 91.6133C357.306 91.8769 357.075 92.1994 356.918 92.5594C356.771 92.8979 356.695 93.263 356.694 93.6321C356.694 94.1448 356.848 94.6159 357.156 95.0445C357.464 95.4736 357.873 95.8778 358.384 96.2577C358.938 96.6649 359.519 97.0331 360.124 97.3595L362.109 98.4394C362.781 98.8027 363.443 99.1825 364.095 99.5785C364.716 99.9515 365.299 100.385 365.835 100.872C366.345 101.341 366.754 101.854 367.063 102.411C367.371 102.968 367.524 103.592 367.524 104.282C367.524 105.061 367.38 105.793 367.092 106.479C366.801 107.167 366.356 107.779 365.792 108.269C365.214 108.776 364.497 109.178 363.64 109.474C362.783 109.77 361.787 109.918 360.651 109.918C359.726 109.918 358.904 109.814 358.182 109.607C357.46 109.4 356.822 109.099 356.268 108.705C355.714 108.31 355.233 107.822 354.846 107.263C354.451 106.696 354.129 106.047 353.878 105.318L355.597 104.593C355.799 105.233 356.071 105.805 356.413 106.308C356.74 106.795 357.142 107.227 357.604 107.588C358.056 107.938 358.56 108.207 359.113 108.394C359.683 108.584 360.281 108.679 360.882 108.675V108.675ZM374.357 100.217V108.778H370.936V89.402H374.357V98.2272H384.573V89.402H387.994V108.777H384.573V100.218H374.357L374.357 100.217ZM399.917 89.402L409.601 108.777H406.078L402.944 102.463H395.351L392.414 108.779H390.535L399.048 89.4029H399.917L399.917 89.402ZM395.954 100.799H402.777L399.414 92.8212L395.954 100.799ZM421.534 109.918C420.017 109.918 418.602 109.647 417.287 109.104C415.973 108.562 414.831 107.82 413.861 106.878C412.892 105.937 412.115 104.817 411.572 103.579C411.016 102.323 410.738 100.979 410.738 99.5489C410.738 98.6124 410.863 97.7093 411.114 96.842C411.359 95.9885 411.719 95.1723 412.185 94.4162C412.651 93.6624 413.215 92.9735 413.861 92.3673C414.518 91.7499 415.25 91.2181 416.04 90.7847C416.858 90.3378 417.728 89.995 418.631 89.7641C419.579 89.5204 420.555 89.3987 421.534 89.402C422.548 89.402 423.518 89.5224 424.443 89.7641C425.346 89.9967 426.216 90.3395 427.035 90.7847C427.827 91.2156 428.559 91.7476 429.214 92.3673C429.857 92.9762 430.42 93.6647 430.889 94.4162C431.359 95.1709 431.722 95.9873 431.968 96.842C432.22 97.722 432.347 98.6334 432.344 99.5489C432.352 101.39 431.848 103.198 430.889 104.77C429.945 106.322 428.618 107.606 427.035 108.497C426.219 108.956 425.348 109.309 424.443 109.548C423.493 109.797 422.515 109.922 421.533 109.918H421.534ZM421.673 108.735C422.776 108.735 423.752 108.506 424.598 108.045C425.445 107.586 426.159 106.945 426.739 106.122C427.32 105.299 427.758 104.326 428.053 103.203C428.349 102.08 428.496 100.851 428.496 99.5154C428.496 98.1895 428.348 96.9744 428.053 95.8711C427.758 94.7674 427.32 93.8165 426.739 93.0181C426.159 92.2196 425.445 91.5999 424.598 91.1594C423.752 90.7193 422.776 90.499 421.673 90.499C420.55 90.499 419.566 90.7188 418.719 91.1594C417.872 91.5999 417.161 92.2196 416.585 93.0181C416.009 93.8165 415.576 94.7674 415.285 95.8707C414.995 96.9744 414.85 98.1895 414.85 99.5154C414.85 100.851 414.995 102.08 415.285 103.203C415.576 104.326 416.009 105.299 416.585 106.122C417.161 106.945 417.872 107.586 418.719 108.045C419.566 108.506 420.55 108.735 421.673 108.735V108.735ZM432.923 108.778H431.207L439.406 99.2216L431.926 89.402H435.813L441.46 96.8396L447.826 89.402H449.556L442.252 97.9061L450.539 108.778H446.623L440.198 100.288L432.923 108.778V108.778ZM452.813 89.402H456.225V108.777H452.813V89.402ZM461.911 89.402H463.717L476.271 103.252H476.416V89.402H477.832V108.777H477.08L463.486 93.3855H463.37V108.335H461.911V89.402ZM493.411 90.8067C492.326 90.8067 491.324 91.0165 490.406 91.4355C489.49 91.8529 488.679 92.4695 488.031 93.2403C487.367 94.0239 486.849 94.9709 486.478 96.0799C486.107 97.1894 485.921 98.4294 485.921 99.8002C485.921 101.181 486.123 102.426 486.525 103.535C486.928 104.644 487.48 105.589 488.181 106.368C488.868 107.137 489.712 107.749 490.657 108.164C491.607 108.584 492.624 108.794 493.71 108.794C494.497 108.794 495.207 108.678 495.84 108.446C496.465 108.219 497.045 107.88 497.55 107.447V100.57H494.144V99.4008H500.575V108.024C500.061 108.324 499.532 108.596 498.988 108.838C498.429 109.083 497.85 109.281 497.258 109.43C496.638 109.587 495.958 109.708 495.216 109.792C494.474 109.876 493.633 109.918 492.692 109.918C491.697 109.918 490.752 109.797 489.856 109.555C488.985 109.324 488.148 108.978 487.367 108.527C486.611 108.09 485.915 107.555 485.297 106.937C484.687 106.327 484.16 105.638 483.73 104.888C483.296 104.128 482.961 103.316 482.733 102.47C482.497 101.6 482.378 100.702 482.38 99.8002C482.38 98.8828 482.491 97.9883 482.713 97.1154C482.929 96.2559 483.25 95.4262 483.669 94.6451C484.085 93.871 484.592 93.1638 485.189 92.5226C486.403 91.2181 487.952 90.2716 489.667 89.7861C490.553 89.53 491.494 89.402 492.489 89.402C493.439 89.402 494.318 89.5424 495.128 89.8234C495.913 90.092 496.657 90.4678 497.339 90.94C498.004 91.4035 498.594 91.9387 499.11 92.545C499.613 93.1342 500.059 93.7708 500.44 94.4458L499.137 95.3923C498.377 93.8046 497.534 92.6435 496.606 91.9091C495.679 91.1742 494.614 90.8067 493.411 90.8067V90.8067Z" fill="#149EDC"/>
<path d="M494.367 39.7093C496.568 39.7093 500.353 39.4087 500.353 40.3319C500.353 40.9473 501.33 41.945 503.286 43.3254H489.917V68.7343C489.854 70.6671 489.508 72.5942 488.88 74.516C487.938 77.3977 483.943 78.1803 482.075 78.1803C480.207 78.1803 481.158 76.1496 480.069 74.5155C479.344 73.426 477.028 72.1875 473.122 70.7999V67.9397C476.401 69.2193 478.717 70.1726 480.069 70.7999C482.099 71.7412 482.823 69.1873 482.823 67.2608V43.3254H465.59C463.987 43.3254 463.335 42.1204 463.631 39.7093H494.367ZM281.972 49.9771V75.9723L278.348 77.6958H275.461V73.9344H259.976V75.2327L254.886 77.6958H253.445V49.9771H281.971H281.972ZM376.699 17.7937C378.09 17.7937 378.891 19.6591 381.059 19.6591C383.227 19.6591 382.623 22.4175 380.182 26.0284C378.554 28.4356 378.124 29.6909 378.892 29.7946H389.793C391.87 29.7946 392.909 30.6584 392.909 32.3867H377.509C377.207 32.8296 376.857 33.4307 376.458 34.1895C376.06 34.9483 375.115 36.6727 373.623 39.3633H389.792C390.282 39.3633 390.815 40.2506 391.392 42.0248H382.256V49.204H390.656C391.232 49.204 391.983 50.41 392.909 52.8211H382.255C382.213 59.566 382.213 63.9031 382.255 65.8335C383.451 65.8335 384.98 64.1167 387.994 63.1176C391.009 62.118 392.909 61.4318 392.909 62.4314C392.909 63.4306 390.177 64.5587 386.686 66.986C383.195 69.4133 377.667 77.2687 376.7 77.2687C375.732 77.2687 371.96 72.0151 372.452 72.0151C372.78 72.0151 373.947 71.5277 375.954 70.5515V51.4641H367.63V49.3746H375.954V42.0253H370.902C370.274 42.7721 369.183 43.9341 367.63 45.5119C365.3 47.8781 363.557 47.2851 365.282 45.5119C367.008 43.7382 374.374 29.0248 375.18 24.1534C375.986 19.2816 375.31 17.7937 376.7 17.7937H376.699ZM456.843 31.3685C458.475 31.3685 458.236 32.403 459.833 33.7404C461.43 35.0783 462.355 35.9039 461.43 36.7243C460.504 37.5448 455.562 44.4989 454.475 46.2363C454.396 47.9201 454.396 57.4048 454.475 74.6908C454.126 76.1276 453.013 76.8458 451.137 76.8458H449.19V51.4335C443.619 55.9393 440.164 58.1927 438.825 58.1927C436.814 58.1927 435.493 57.3231 437.613 56.1214C439.733 54.9192 446.559 48.8633 450.517 42.4152C454.475 35.967 455.21 31.3685 456.843 31.3685H456.843ZM328.874 54.9522C330.147 54.1317 336.191 57.2299 344.88 62.1424C353.569 67.0548 352.207 68.7711 352.207 71.3155C352.207 73.8604 348.688 77.6958 348.688 76.6786C348.688 75.6608 337.555 63.1176 334.672 60.3329C331.789 57.5486 327.602 55.773 328.874 54.9526V54.9522ZM423.176 21.7791V48.5384C423.176 48.9637 422 49.6422 420.837 50.0803C420.104 50.3555 419.065 50.6742 417.72 51.036L417.48 51.1005V49.3125H409.894C409.896 49.56 409.896 49.8538 409.894 50.1936C409.894 52.7145 414.064 59.5297 414.786 59.5297C415.507 59.5297 422.152 53.4614 423.229 52.7843C424.307 52.1072 425.281 52.1072 426.306 52.7843C427.332 53.4609 429.387 56.8615 428.37 56.5939C427.354 56.3264 425.344 57.6719 423.563 58.5124C421.781 59.3533 417.48 61.4319 417.48 62.5022C417.48 63.5725 421.135 66.9172 424.051 68.7343C426.968 70.5515 432.207 71.391 429.841 72.7982C427.475 74.2058 421.929 75.6508 421.224 75.2642C420.518 74.8777 415.277 68.9346 411.705 63.8362C409.373 60.5087 407.572 55.7974 406.301 49.7033L406.22 49.3125H401.054V66.727C401.054 69.4143 402.598 68.4328 405.329 66.727C407.149 65.5898 409.552 65.0379 412.535 65.0723C408.437 67.8843 405.298 70.0856 403.118 71.6758C399.847 74.0601 398.915 76.8458 397.876 76.8458H397.685C396.694 76.8429 395.626 76.7956 395.626 76.0139C395.626 75.1816 392.121 73.083 392.731 73.083C393.124 73.083 394.037 72.6458 395.47 71.7709L395.625 71.6753V21.7796H423.176L423.176 21.7791ZM250.781 63.1176C250.781 63.1176 251.368 64.725 250.124 64.725C248.88 64.725 228.513 76.6786 227.981 76.6786C227.45 76.6786 226.647 75.484 225.702 73.9344C224.757 72.3853 223.805 71.5243 224.357 70.3379C224.911 69.1515 250.781 63.1176 250.781 63.1176V63.1176ZM316.085 53.7141C317.106 54.1552 318.724 54.8953 320.148 55.6531C321.572 56.4109 324.689 57.4425 322.228 58.7384C319.767 60.0342 304.006 76.6786 298.627 76.6786C293.247 76.6786 298.262 75.259 301.059 72.7987C303.855 70.3379 315.312 56.8954 316.085 53.7146V53.7141ZM275.612 53.7141H259.716V70.5701H275.612V53.7146V53.7141ZM237.811 19.0102C241.608 20.8531 243.506 22.1647 243.506 22.945C243.506 24.1157 233.483 36.1452 231.599 37.8998C229.716 39.6543 230.222 40.2363 230.388 40.458C230.555 40.6802 238.861 41.4003 240.059 40.458C241.256 39.5167 245.683 32.994 245.683 31.4822C245.683 29.9704 252.876 34.2999 251.709 35.0778C250.932 35.5967 244.661 41.9359 232.898 54.0954C243.277 52.9711 248.742 52.4092 249.294 52.4092C249.846 52.4092 249.846 52.9711 249.294 54.0959C242.097 55.8629 237.348 57.5271 235.049 59.0891C232.749 60.6511 231.196 61.4318 230.388 61.4318C228.581 58.3499 227.221 56.809 226.309 56.809C224.94 56.809 237.811 45.3695 237.811 44.5639C237.811 43.7583 230.323 44.0598 227.981 45.5119C226.42 46.48 225.049 44.9681 223.867 40.9774C227.226 37.0368 229.804 33.5512 231.599 30.5203C233.396 27.4891 235.466 23.6527 237.811 19.0097V19.0102ZM344.224 20.888C347.695 22.417 350.916 22.6392 350.916 23.9938C350.916 25.2013 338.786 44.3011 334.602 48.4237L345.822 48.4233C350.286 48.4233 351.745 46.4785 352.523 47.6731C353.041 48.4691 354.241 49.7325 356.123 51.4641H296.908C295.25 51.4641 295.164 49.9771 294.411 49.9771C293.909 49.9771 293.521 49.4592 293.247 48.4233H332.748C332.72 46.6873 335.171 42.269 337.274 37.3551C339.988 31.0178 340.754 19.358 344.224 20.8875V20.888ZM283.588 23.171C283.588 23.171 282.185 39.1015 281.603 41.7687C281.02 44.4363 278.235 46.4102 277.001 47.4643C275.767 48.5179 272.747 48.3396 272.747 47.4643C272.747 46.5889 271.037 42.3014 267.698 42.3014C265.472 42.3014 264.484 41.9402 264.734 41.2177C267.758 40.8259 270.429 40.8259 272.747 41.2177C276.225 41.805 277.001 39.5229 277.001 37.6656V26.544C270.799 26.2592 267.698 26.2592 267.698 26.544C267.698 26.9706 265.449 34.0954 262.349 39.101C259.248 44.1076 254.164 47.1819 251.709 48.3396C250.073 49.1113 248.104 49.657 245.803 49.9771C244.91 48.8853 244.91 48.3396 245.803 48.3396C247.144 48.3396 252.924 42.8987 256.576 37.6656C260.229 32.4326 261.354 27.0007 260.72 26.544C260.087 26.0872 249.86 26.5497 249.86 25.9018V23.171H283.588ZM301.689 22.4686C303.849 23.171 318.033 37.2667 316.932 40.221C315.831 43.1754 312.824 45.5119 311.082 45.5119C309.341 45.5119 310.561 39.6338 306.943 33.9903C303.324 28.3472 299.529 21.7672 301.689 22.4691V22.4686ZM417.546 37.5448H401.001V44.411H417.546V37.5448ZM320.44 19.0102C322.741 20.5406 331.271 32.9271 331.271 36.5743C331.271 40.221 327.234 43.1453 324.813 43.1453C322.392 43.1453 324.355 36.8514 323.373 33.9645C322.392 31.0775 318.139 17.4788 320.439 19.0102H320.44ZM455.722 18.529C456.563 19.2319 457.359 20.3304 458.667 21.0548C459.975 21.7791 460.45 23.872 458.667 25.3733C456.884 26.8746 443.735 37.5448 440.644 37.5448C437.554 37.5448 435.174 36.5762 438.244 35.6144C441.313 34.6525 446.975 28.9679 450.089 25.3733C453.202 21.7791 454.881 17.8257 455.722 18.529V18.529ZM417.546 26.8746H401.001V33.7408H417.546V26.8746ZM465.593 23.6856C483.854 23.2723 493.397 23.2723 494.224 23.6856C495.05 24.099 496.496 25.5358 498.559 27.9956H470.313C468.061 27.9956 468.061 27.2277 467.216 26.544C466.652 26.0876 466.111 25.1349 465.593 23.6856V23.6856Z" fill="#149EDC"/>
<path fill-rule="evenodd" clip-rule="evenodd" d="M186.521 56.8462C164.503 34.038 133.167 20.9667 100.528 20.9667C67.8882 20.9664 36.5516 34.038 14.5436 56.8462L14 57.3916L14.5978 57.877L70.9783 104.029V103.207V104.029C79.7309 98.7966 90.1309 95.6646 100.528 95.6646C110.924 95.6642 121.357 98.6133 130.112 103.841L186.452 57.877L187.047 57.3916L186.521 56.8462V56.8462Z" fill="#C1C2C2"/>
<path fill-rule="evenodd" clip-rule="evenodd" d="M185.406 57.0497L184.885 56.5176C184.798 56.429 184.712 56.3395 184.625 56.2512C184.536 56.1619 184.446 56.074 184.357 55.985L184.09 55.7186C184.002 55.63 183.913 55.5412 183.824 55.4529C183.734 55.3643 183.645 55.275 183.555 55.1865C183.464 55.0974 183.372 55.0093 183.281 54.92L183.008 54.6546C182.916 54.5658 182.825 54.4765 182.733 54.3881L182.457 54.1224L182.176 53.856L181.895 53.5898C181.801 53.5015 181.709 53.4122 181.615 53.3241C181.52 53.2349 181.423 53.1467 181.328 53.0577C181.232 52.9687 181.136 52.8803 181.039 52.7915L180.751 52.5251C180.655 52.4365 180.559 52.3473 180.462 52.2587C180.364 52.1697 180.265 52.0818 180.167 51.9932L179.871 51.7268C179.773 51.6382 179.675 51.5487 179.576 51.4604L179.277 51.1947C179.176 51.1056 179.074 51.0173 178.974 50.9283L178.67 50.6621C178.569 50.5737 178.469 50.4842 178.368 50.3964C178.265 50.3071 178.161 50.2192 178.057 50.1302L177.746 49.8638C177.643 49.7752 177.54 49.6862 177.436 49.5981L177.121 49.3316C177.015 49.2424 176.908 49.1543 176.802 49.0655L176.484 48.7997C176.377 48.7112 176.271 48.6217 176.164 48.5333C176.056 48.4438 175.946 48.356 175.837 48.2669L175.51 48.0005C175.401 47.9122 175.292 47.8229 175.183 47.735C175.073 47.6458 174.961 47.5574 174.85 47.4686C174.739 47.3796 174.627 47.291 174.515 47.2024C174.403 47.1139 174.292 47.0248 174.18 46.9365C174.067 46.8479 173.955 46.7586 173.841 46.6703C173.727 46.581 173.612 46.4929 173.497 46.4039L173.154 46.1384C173.039 46.0496 172.925 45.9601 172.809 45.872C172.692 45.7825 172.574 45.6946 172.456 45.6056L172.103 45.3399C171.985 45.2513 171.868 45.1618 171.75 45.0734L171.389 44.8073C171.269 44.718 171.147 44.6297 171.026 44.5409C170.905 44.4523 170.785 44.3628 170.664 44.2747L170.297 44.0087C170.173 43.9197 170.048 43.8313 169.924 43.7425C169.8 43.6537 169.676 43.5645 169.551 43.4761L169.176 43.2106C169.049 43.1211 168.921 43.033 168.794 42.9442C168.667 42.8554 168.54 42.7666 168.412 42.6785C168.284 42.5897 168.156 42.5004 168.027 42.4121C167.897 42.3228 167.765 42.2347 167.634 42.1459C167.464 42.0301 167.293 41.9142 167.122 41.7993C166.949 41.6825 166.775 41.5671 166.6 41.4512C166.425 41.3354 166.25 41.2197 166.075 41.1046C165.898 40.9887 165.721 40.8724 165.543 40.7574C165.364 40.6411 165.184 40.5259 165.004 40.4105C164.822 40.2947 164.642 40.1779 164.46 40.0627C164.276 39.9464 164.09 39.8317 163.905 39.7161C163.721 39.6004 163.536 39.4836 163.35 39.3689C163.161 39.2522 162.97 39.1375 162.78 39.0216C162.59 38.906 162.4 38.7896 162.209 38.6749C162.015 38.5584 161.821 38.4432 161.626 38.3278C161.43 38.2115 161.235 38.0954 161.038 37.9805C160.839 37.8639 160.64 37.7483 160.441 37.6331C160.239 37.517 160.038 37.4014 159.836 37.2864C159.632 37.1701 159.428 37.0543 159.223 36.9391C159.016 36.8228 158.808 36.7071 158.6 36.5917C158.39 36.4754 158.18 36.3598 157.969 36.2446C157.756 36.1283 157.542 36.0129 157.328 35.898C157.112 35.7816 156.896 35.6658 156.678 35.5506C156.459 35.4343 156.238 35.3184 156.018 35.2035C155.794 35.0869 155.571 34.9713 155.347 34.8561C155.12 34.74 154.894 34.6242 154.666 34.5095C154.436 34.3929 154.204 34.2773 153.972 34.1621C153.739 34.0458 153.505 33.9297 153.27 33.815C153.031 33.698 152.791 33.583 152.551 33.4676C152.31 33.3518 152.069 33.2352 151.827 33.121C151.578 33.004 151.329 32.889 151.08 32.7736C150.829 32.6578 150.58 32.5408 150.328 32.4265C150.071 32.3093 149.812 32.1946 149.554 32.0792C149.294 31.9631 149.033 31.847 148.771 31.7325C148.505 31.6159 148.238 31.5001 147.971 31.3854C147.698 31.2681 147.424 31.153 147.15 31.038C146.874 30.9217 146.597 30.8049 146.32 30.6907C146.034 30.5734 145.747 30.4585 145.46 30.3433C145.17 30.2268 144.88 30.1111 144.589 29.9969C144.292 29.8803 143.995 29.7635 143.697 29.6493C143.391 29.5321 143.084 29.4171 142.776 29.3022C142.464 29.1854 142.151 29.0693 141.838 28.9551C141.518 28.8385 141.199 28.7219 140.878 28.6082C140.546 28.4907 140.213 28.3758 139.88 28.261C139.54 28.1438 139.199 28.0282 138.857 27.9137C138.508 27.7967 138.159 27.6804 137.808 27.5663C137.447 27.4493 137.085 27.3335 136.723 27.2197C136.347 27.102 135.97 26.9868 135.593 26.8726C135.204 26.7546 134.815 26.6392 134.425 26.5252C134.022 26.4077 133.618 26.2916 133.213 26.1781C132.794 26.0604 132.374 25.9445 131.953 25.8314C131.515 25.7133 131.075 25.5972 130.634 25.4841C130.173 25.3657 129.711 25.2498 129.248 25.1367C128.762 25.0181 128.275 24.9022 127.786 24.7894C127.271 24.6705 126.755 24.5553 126.237 24.4429C125.685 24.3231 125.132 24.2077 124.577 24.0956C123.983 23.9751 123.386 23.8599 122.787 23.7482C122.142 23.6277 121.494 23.5119 120.844 23.4016C120.127 23.2797 119.407 23.1634 118.685 23.054C117.866 22.93 117.044 22.8146 116.219 22.7071C115.242 22.5797 114.261 22.464 113.275 22.3597C112 22.2247 110.718 22.1086 109.43 22.0133C106.411 21.7895 103.359 21.6741 100.278 21.6741C97.1972 21.6741 94.1444 21.7895 91.1243 22.0133C89.8363 22.1086 88.5545 22.2247 87.2786 22.3597C86.2937 22.4638 85.3124 22.5797 84.335 22.7071C83.51 22.8146 82.6874 22.93 81.8682 23.054C81.1464 23.1634 80.427 23.2797 79.7097 23.4016C79.06 23.5119 78.4123 23.6277 77.7663 23.7482C77.1682 23.8599 76.5717 23.9751 75.9768 24.0956C75.4222 24.2077 74.8685 24.3231 74.3166 24.4429C73.7988 24.5553 73.2824 24.6705 72.7676 24.7894C72.2789 24.9022 71.7914 25.0181 71.3052 25.1367C70.8422 25.2498 70.3802 25.3657 69.9192 25.4841C69.4784 25.5972 69.0387 25.7133 68.5999 25.8314C68.1789 25.9445 67.7594 26.0604 67.3405 26.1781C66.9356 26.2916 66.5313 26.4075 66.1285 26.5252C65.7382 26.6392 65.3486 26.7546 64.9599 26.8726C64.5827 26.9868 64.2062 27.102 63.8308 27.2197C63.4682 27.3335 63.1061 27.4493 62.7454 27.5663C62.3945 27.6804 62.0447 27.7967 61.6954 27.9137C61.3539 28.0282 61.0126 28.1438 60.6727 28.261C60.3396 28.3758 60.0068 28.4907 59.6752 28.6082C59.3545 28.7219 59.0349 28.8385 58.7152 28.9551C58.4016 29.0693 58.0887 29.1854 57.7765 29.3022C57.4693 29.4171 57.1616 29.5321 56.8554 29.6493C56.5576 29.7635 56.2609 29.8801 55.9643 29.9969C55.6729 30.1111 55.3826 30.2268 55.0926 30.3433C54.8061 30.4585 54.519 30.5734 54.2334 30.6907C53.9557 30.8049 53.6796 30.9217 53.4031 31.038C53.1289 31.153 52.8554 31.2681 52.5825 31.3854C52.3152 31.5001 52.0481 31.6159 51.7819 31.7325C51.5202 31.847 51.2595 31.9631 50.999 32.0792C50.7406 32.1946 50.4822 32.3093 50.2249 32.4265C49.9736 32.5408 49.7236 32.6578 49.4732 32.7736C49.2242 32.889 48.9749 33.004 48.7268 33.121C48.4846 33.2352 48.244 33.3518 48.0028 33.4676C47.7629 33.583 47.5225 33.698 47.2836 33.815C47.0487 33.9297 46.8148 34.0458 46.5808 34.1621C46.3492 34.2773 46.1176 34.3929 45.8868 34.5095C45.6598 34.6242 45.4332 34.74 45.2068 34.8561C44.9827 34.9713 44.7591 35.0869 44.5359 35.2035C44.3152 35.3184 44.095 35.4343 43.875 35.5506C43.6581 35.6658 43.4415 35.7816 43.2252 35.898C43.0112 36.0129 42.7976 36.1283 42.5848 36.2446C42.3739 36.3598 42.1634 36.4754 41.9537 36.5917C41.7454 36.7071 41.538 36.8228 41.3309 36.9391C41.126 37.0545 40.9214 37.1701 40.7172 37.2864C40.5155 37.4014 40.3141 37.517 40.1131 37.6331C39.9137 37.7483 39.7144 37.8639 39.5157 37.9805C39.3191 38.0954 39.1231 38.2115 38.9274 38.3278C38.7329 38.4432 38.5381 38.5584 38.3444 38.6749C38.1535 38.7896 37.964 38.9057 37.7738 39.0216C37.5838 39.1375 37.3934 39.2522 37.2043 39.3689C37.0184 39.4836 36.8339 39.6004 36.6485 39.7161C36.4636 39.8317 36.2782 39.9464 36.0937 40.0627C35.9122 40.1779 35.7318 40.2947 35.5507 40.4105C35.3706 40.5259 35.1902 40.6411 35.011 40.7574C34.8334 40.8724 34.6564 40.9887 34.4797 41.1046C34.3042 41.2197 34.129 41.3354 33.9544 41.4512C33.78 41.5671 33.6058 41.6825 33.4323 41.7993C33.2613 41.9142 33.0912 42.0303 32.9209 42.1459C32.79 42.2347 32.6586 42.3226 32.5284 42.4121C32.3995 42.5004 32.2713 42.5897 32.1429 42.6785C32.0156 42.7666 31.8886 42.8554 31.7616 42.9442C31.6341 43.033 31.5059 43.1211 31.3791 43.2106L31.003 43.4768C30.8787 43.5649 30.7551 43.654 30.6313 43.7425C30.507 43.8313 30.3827 43.9197 30.2588 44.0087L29.891 44.2751C29.7699 44.3632 29.6495 44.4523 29.5289 44.5409C29.408 44.6297 29.287 44.718 29.1663 44.8073C29.0461 44.8961 28.9255 44.9844 28.806 45.0734C28.6877 45.1618 28.5705 45.2513 28.4526 45.3399L28.0997 45.6056C27.9822 45.6946 27.8637 45.7825 27.7465 45.872C27.6311 45.9601 27.5171 46.0496 27.4022 46.1384L27.0589 46.4039C26.9442 46.4929 26.8286 46.581 26.7144 46.6703C26.6013 46.7586 26.4891 46.8479 26.3763 46.9365C26.2644 47.0248 26.1531 47.1139 26.0414 47.2024L25.7058 47.4686C25.5948 47.5574 25.4838 47.6458 25.373 47.735C25.2638 47.8229 25.1558 47.9122 25.0469 48.0005L24.7198 48.2669C24.611 48.356 24.5012 48.4438 24.3927 48.5333C24.2858 48.6217 24.18 48.7112 24.0734 48.7997L23.755 49.0655C23.6487 49.1543 23.5421 49.2424 23.4361 49.3316L23.1211 49.5981C23.0174 49.6862 22.9147 49.7752 22.8112 49.8638L22.5004 50.1302C22.3971 50.2192 22.2925 50.3071 22.1895 50.3964C22.0881 50.4842 21.9881 50.5737 21.8872 50.6621L21.5841 50.9283C21.4831 51.0173 21.3817 51.1056 21.281 51.1947L20.9821 51.4604C20.8832 51.5487 20.7852 51.6382 20.6868 51.7268L20.3911 51.9932C20.2931 52.0818 20.1942 52.1697 20.0965 52.2587C19.9997 52.3473 19.9035 52.4365 19.8072 52.5251L19.231 53.0577C19.1356 53.1467 19.0392 53.2349 18.9442 53.3241C18.8504 53.4122 18.7577 53.5015 18.664 53.5898L18.3832 53.856C18.2896 53.9451 18.1953 54.0334 18.1021 54.1224L17.8254 54.3881C17.7338 54.4765 17.6429 54.5658 17.5516 54.6546L17.2776 54.9207C17.1867 55.0095 17.0952 55.0974 17.0045 55.1865C16.9144 55.275 16.8253 55.3643 16.7358 55.4529L16.4694 55.7186L16.2023 55.985C16.1134 56.074 16.0235 56.1619 15.9351 56.2512C15.8479 56.3395 15.7619 56.429 15.6746 56.5176L15.1548 57.0497C15.0818 57.1247 15.0079 57.1989 14.9353 57.274V57.2754L14.9845 57.3159L18.2383 59.9772L18.5633 60.243L19.2143 60.7756L19.5403 61.042L20.1903 61.5741L20.5163 61.8405L26.0476 66.3649L26.3726 66.6306L27.6741 67.6951L27.9992 67.9611L28.6502 68.4936L31.9039 71.155L32.2297 71.4214L32.5545 71.6871L32.8802 71.9533L33.5314 72.4859L33.8564 72.7518L34.5074 73.2844L35.4834 74.0827L35.8085 74.3485L36.1337 74.6146L40.3638 78.0745L40.6895 78.3409L41.3398 78.8728L41.6655 79.1393L43.2925 80.4702L43.6175 80.7359L44.9193 81.8006L45.2448 82.067L46.8713 83.3972L47.197 83.6636L47.5225 83.93L48.1728 84.4619L48.4988 84.7284L49.1491 85.2605L49.4748 85.5269L49.7994 85.7924L53.0541 88.4544L53.3791 88.7201L54.0294 89.2523L54.3551 89.5187L54.6806 89.7849L55.0057 90.0506L56.3072 91.1153L56.6327 91.3817L70.711 102.897V102.901C79.2674 97.7876 89.4007 94.8252 100.278 94.8252C111.146 94.8247 121.24 97.7779 129.777 102.887L140.28 94.3092L140.606 94.0431L140.932 93.7766L141.257 93.5109L141.583 93.2445L141.909 92.9783L142.235 92.7126L142.561 92.4464L142.887 92.1798L143.212 91.9143L144.842 90.5832L146.472 89.2523L146.797 88.9865L149.404 86.8571L149.73 86.5909L150.056 86.325L150.382 86.0588L152.337 84.4619L152.663 84.1958L154.292 82.8653L154.618 82.5991L158.529 79.405L158.854 79.1393L160.484 77.8083L160.809 77.5424L161.462 77.01L161.787 76.7441L162.113 76.4777L162.439 76.2115L162.764 75.9458L163.09 75.6796L163.417 75.4132L163.743 75.1468L164.068 74.8811L164.394 74.6146L164.72 74.3485L165.046 74.0827L165.372 73.8163L167.653 71.9533L167.979 71.6871L168.304 71.4214L172.867 67.6951L173.193 67.4289L173.519 67.1625L174.17 66.6306L174.822 66.0985L175.148 65.8323L175.473 65.5666L175.799 65.3002L176.777 64.5019L177.103 64.2354L177.429 63.9693L177.755 63.7029L178.08 63.4371L180.362 61.5741L180.688 61.3077L181.013 61.042L181.339 60.7756L181.665 60.5094L182.969 59.4447L185.626 57.2745C185.553 57.1991 185.479 57.1249 185.406 57.0497" fill="url(#paint0_linear_63_12282)"/>
<path fill-rule="evenodd" clip-rule="evenodd" d="M97.5814 64.8371C97.4507 64.8933 97.2747 64.9821 97.0522 65.0915L97.0165 65.1091C96.8602 65.1849 96.702 65.264 96.5432 65.3454C96.3832 65.4273 96.2218 65.5126 96.0593 65.6C95.9068 65.6824 95.7532 65.767 95.5987 65.8542C95.4522 65.9367 95.3051 66.0212 95.1567 66.1081C95.0153 66.1911 94.8729 66.2758 94.7298 66.3627C94.5936 66.4453 94.4565 66.5306 94.3192 66.6167C94.1867 66.6997 94.0537 66.785 93.9198 66.8713C93.7909 66.9543 93.6616 67.0392 93.5316 67.1252C93.4057 67.2087 93.2795 67.2931 93.1527 67.3791C93.0291 67.4631 92.9051 67.5472 92.7805 67.6337C92.6608 67.7172 92.54 67.8021 92.4196 67.8879C92.3019 67.9711 92.184 68.056 92.0659 68.1418C91.9499 68.2258 91.8334 68.3102 91.7169 68.3962C91.6031 68.4802 91.4893 68.5646 91.3751 68.6501C91.2641 68.7336 91.1522 68.8189 91.0409 68.9043C90.9308 68.9885 90.8205 69.0729 90.7099 69.1587C90.6017 69.2428 90.4934 69.3273 90.3849 69.4128C90.2789 69.4965 90.1725 69.5816 90.066 69.6667C89.9608 69.7512 89.8555 69.8353 89.7499 69.9214C89.6467 70.0051 89.5435 70.0902 89.4402 70.1753L89.1335 70.4299C89.0328 70.5141 88.9319 70.5983 88.8309 70.6838C88.732 70.7675 88.6327 70.8527 88.5336 70.9378C88.4347 71.0224 88.3363 71.1066 88.2374 71.1924C88.1408 71.2763 88.0442 71.3617 87.9476 71.4463C87.8515 71.5307 87.7553 71.6153 87.6592 71.7009L87.3754 71.9548L87.0945 72.2088L86.8159 72.4634L86.5419 72.7173L86.2696 72.9715C86.1796 73.0556 86.0901 73.141 86.0006 73.2261C85.9116 73.3105 85.8225 73.3947 85.7337 73.48L85.4712 73.7339C85.3837 73.8188 85.2963 73.903 85.2088 73.9885C85.123 74.0725 85.0374 74.1578 84.9518 74.2425C84.8662 74.3271 84.7801 74.4115 84.6945 74.4971C84.6103 74.581 84.5265 74.6661 84.4423 74.751L84.1907 75.0049C84.1081 75.0893 84.0252 75.1747 83.9428 75.2595C83.8604 75.3442 83.778 75.4284 83.6958 75.5135C83.6146 75.5979 83.534 75.6828 83.453 75.7674L83.2103 76.022L82.9716 76.2759L82.7333 76.5308L82.4989 76.7847L82.2661 77.0386L82.0354 77.2926L81.8063 77.5472L81.5792 77.8011L81.3547 78.0557L81.1308 78.3096C81.0573 78.3941 80.9845 78.4792 80.9113 78.5636L80.6909 78.8182C80.6188 78.9024 80.5469 78.9875 80.4752 79.0721L80.2592 79.3267L80.0465 79.5806L79.8352 79.8346L79.6251 80.0894L79.4182 80.3433C79.3493 80.428 79.2802 80.5122 79.2115 80.5973C79.1435 80.6819 79.0762 80.767 79.0085 80.8519L78.8059 81.1058C78.7388 81.1902 78.6724 81.2756 78.6058 81.3602L78.4074 81.6141L78.2103 81.8683L78.0162 82.1224C77.9514 82.2071 77.8859 82.2917 77.8219 82.3768C77.758 82.4612 77.695 82.5463 77.6316 82.6307L77.4412 82.8854L77.254 83.1393L77.0679 83.3934L76.8827 83.6481C76.8216 83.7325 76.7614 83.8173 76.7009 83.902C76.6403 83.9869 76.5787 84.0713 76.5187 84.1566C76.4588 84.2408 76.3999 84.3259 76.3404 84.4105L76.163 84.6644L75.9872 84.9188L75.8137 85.173C75.7563 85.2576 75.6979 85.342 75.6407 85.4269C75.5837 85.5118 75.5278 85.5967 75.4713 85.6815C75.4148 85.7662 75.358 85.8506 75.3022 85.9355L75.1355 86.1894L74.9703 86.444L74.8061 86.6979C74.7521 86.7826 74.6992 86.8674 74.6457 86.9521C74.5919 87.0369 74.5376 87.1216 74.4845 87.2067L74.3271 87.4606L74.1705 87.715C74.1185 87.7999 74.0666 87.8843 74.0153 87.9692C73.9642 88.0536 73.9139 88.1384 73.8633 88.2231L73.7111 88.4775C73.6612 88.5621 73.6122 88.647 73.5625 88.7316L73.4149 88.9862L73.2689 89.2402C73.2206 89.3248 73.1734 89.4094 73.1258 89.4941C73.078 89.579 73.0297 89.6638 72.9825 89.7487C72.9354 89.8333 72.8893 89.918 72.8431 90.0026L72.7046 90.257L72.5675 90.5114C72.5222 90.5958 72.478 90.6807 72.4336 90.7653C72.389 90.85 72.3439 90.9344 72.2997 91.0192C72.2558 91.1041 72.2127 91.189 72.1695 91.2739L72.0404 91.5278C71.9976 91.6124 71.9545 91.6968 71.9126 91.7817C71.8703 91.8666 71.8293 91.9515 71.7879 92.0363C71.7465 92.121 71.7041 92.2056 71.6634 92.2903C71.6226 92.3751 71.583 92.46 71.5427 92.5449L71.4233 92.7988L71.3054 93.0527C71.2665 93.1376 71.2287 93.2225 71.1905 93.3073C71.1525 93.392 71.1133 93.4766 71.0758 93.5613C71.038 93.6461 71.0021 93.7308 70.9652 93.8159L70.8556 94.07C70.8194 94.1547 70.7833 94.2393 70.7478 94.324C70.7123 94.4088 70.678 94.4937 70.6432 94.5786C70.6084 94.6632 70.5729 94.7479 70.539 94.8325C70.5047 94.9174 70.472 95.002 70.4385 95.0869L70.3397 95.3408C70.3069 95.4257 70.2742 95.5101 70.2424 95.595C70.2103 95.6796 70.1797 95.7645 70.1485 95.8489C70.1172 95.9338 70.0849 96.0189 70.0544 96.1035C70.024 96.1881 69.9954 96.2728 69.9656 96.3574L69.8775 96.6114L69.7912 96.866C69.7631 96.9506 69.7363 97.0353 69.7088 97.1199C69.6813 97.2048 69.6527 97.2899 69.626 97.3745C69.5994 97.4594 69.5747 97.5438 69.5488 97.6287L69.4721 97.8826C69.4591 97.9265 69.4449 97.9707 69.4321 98.0149L69.3966 98.1365C69.1043 99.1668 69.0427 100.024 69.1645 100.73L70.7794 102.051C73.3709 100.534 76.0763 99.2274 78.8698 98.1365C79.09 98.0505 79.3104 97.9658 79.5317 97.8826C79.7606 97.7963 79.9897 97.7119 80.2196 97.6287C80.4578 97.5424 80.6966 97.4575 80.936 97.3745C81.1853 97.288 81.435 97.2031 81.6854 97.1199C81.9459 97.0336 82.2071 96.9488 82.4689 96.866C82.7434 96.779 83.0187 96.6944 83.2948 96.6114C83.5841 96.5246 83.8741 96.4398 84.1651 96.3574C84.4725 96.2705 84.7808 96.1856 85.0898 96.1035C85.4199 96.0159 85.7511 95.9308 86.0828 95.8489C86.3517 95.7827 86.6214 95.7175 86.8915 95.6549L86.9231 95.595L87.0567 95.3408L87.1888 95.0869L87.3184 94.8325L87.4449 94.5786L87.5697 94.324L87.691 94.07C87.7313 93.9852 87.7718 93.9005 87.8112 93.8159C87.8508 93.731 87.8892 93.6461 87.9279 93.5613C87.9666 93.4766 88.0057 93.392 88.0435 93.3073C88.0815 93.2225 88.1181 93.1376 88.1554 93.0527C88.1927 92.9681 88.2301 92.8834 88.2665 92.7988L88.374 92.5449L88.4809 92.2903L88.5849 92.0363L88.6874 91.7817L88.7877 91.5278L88.8856 91.2739L88.9824 91.0192L89.0768 90.7653L89.1699 90.5114L89.2606 90.2568L89.351 90.0026C89.3803 89.918 89.4089 89.8333 89.438 89.7487L89.5247 89.4941L89.6089 89.2402L89.6925 88.9862L89.7742 88.7316L89.8548 88.4775L89.9342 88.2231L90.0116 87.9692L90.0882 87.715L90.1636 87.4606L90.2379 87.2067L90.3107 86.9521L90.3828 86.6979L90.4536 86.444L90.5238 86.1894L90.5927 85.9355L90.661 85.6815L90.7282 85.4269L90.7949 85.173L90.8606 84.9188L90.9258 84.6644L90.9903 84.4105L91.054 84.1566L91.1174 83.902L91.1799 83.6481L91.2424 83.3934L91.3655 82.8854L91.4875 82.3768L91.669 81.6141L91.7894 81.1058L91.8496 80.8519L91.97 80.3433L92.0304 80.0894L92.0913 79.8346L92.2133 79.3267L92.2751 79.0721L92.3369 78.8182L92.3997 78.5636L92.4624 78.3096L92.526 78.0557L92.5903 77.8011L92.6551 77.5472L92.7208 77.2926L92.787 77.0386L92.8542 76.7847L92.9218 76.5308L92.9911 76.2759L93.0609 76.022L93.1321 75.7674L93.2042 75.5135L93.277 75.2595L93.3519 75.0049L93.4269 74.751L93.5045 74.4971L93.5828 74.2425L93.6629 73.9885L93.7444 73.7339L93.8271 73.48L93.9118 73.2261C93.9406 73.1412 93.9685 73.0563 93.9976 72.9715C94.0267 72.8866 94.0566 72.8022 94.0862 72.7173L94.1757 72.4634L94.2677 72.2088L94.3611 71.9548L94.4568 71.7009C94.489 71.616 94.5218 71.5312 94.555 71.4463C94.5877 71.3617 94.6202 71.277 94.6536 71.1924C94.6875 71.1075 94.7225 71.0226 94.7568 70.9378C94.7912 70.8531 94.8257 70.7682 94.8608 70.6838C94.8958 70.5992 94.932 70.5143 94.9677 70.4299L95.0768 70.1753C95.1137 70.0906 95.1505 70.0058 95.1883 69.9214C95.2261 69.8363 95.2645 69.7516 95.303 69.6667C95.3417 69.5821 95.3794 69.4972 95.4188 69.4128C95.4582 69.328 95.4989 69.2435 95.5392 69.1587C95.5795 69.0738 95.6202 68.9889 95.6614 68.9043C95.7026 68.8194 95.7443 68.7348 95.7864 68.6501C95.8288 68.5655 95.8718 68.4808 95.9148 68.3962C95.9581 68.3113 96.0011 68.2265 96.0453 68.1418C96.0895 68.0569 96.1353 67.9725 96.1804 67.8879C96.2257 67.803 96.271 67.7184 96.3172 67.6337C96.3637 67.5489 96.4111 67.464 96.4585 67.3791C96.5061 67.2945 96.5541 67.2096 96.6027 67.1252C96.6514 67.0406 96.6995 66.9557 96.7492 66.8713C96.7991 66.7862 96.8506 66.7015 96.9016 66.6167C96.9401 66.5528 96.9776 66.4888 97.0168 66.4252L97.0527 66.3627L97.3477 65.8542L97.4945 65.6C97.5483 65.5064 97.5961 65.4217 97.638 65.3454C97.6925 65.2471 97.7373 65.163 97.7721 65.0915C97.8305 64.9719 97.8616 64.8887 97.8644 64.8371C97.8694 64.7402 97.7758 64.7529 97.5814 64.8371" fill="#0065BF"/>
<path fill-rule="evenodd" clip-rule="evenodd" d="M96.7514 54.4152C96.7399 54.4053 96.728 54.3954 96.7145 54.3861C96.6035 54.3119 96.4939 54.2363 96.3833 54.1613C96.2595 54.0769 96.1354 53.9925 96.012 53.9072C95.8907 53.823 95.7696 53.7384 95.649 53.6532C95.5288 53.5688 95.4091 53.484 95.2899 53.3986C95.1718 53.3142 95.0532 53.2298 94.9358 53.1447C94.8197 53.0603 94.7043 52.9752 94.5892 52.8901C94.4743 52.8057 94.3594 52.7213 94.2456 52.6362C94.133 52.552 94.0211 52.4671 93.9092 52.3822C93.7975 52.2976 93.686 52.213 93.575 52.1276L93.247 51.8737C93.1385 51.7893 93.03 51.7042 92.9224 51.6191C92.8153 51.5347 92.7081 51.45 92.6019 51.3649C92.4966 51.2807 92.392 51.1959 92.2874 51.111C92.1826 51.0264 92.0775 50.9419 91.9736 50.8566C91.8708 50.7722 91.769 50.6873 91.6666 50.6027C91.5643 50.5178 91.4618 50.4334 91.3604 50.3481C91.2599 50.2639 91.1606 50.1788 91.0605 50.0941C90.961 50.0093 90.8614 49.9251 90.7625 49.84C90.6641 49.7556 90.5666 49.6709 90.4688 49.5861L90.1772 49.3315L89.8897 49.0775L89.6052 48.8236C89.5107 48.739 89.4159 48.6543 89.3223 48.569C89.2289 48.4846 89.1364 48.3997 89.0437 48.3151L88.7665 48.0604L88.4937 47.8065L88.2224 47.5524C88.1327 47.468 88.0437 47.3829 87.9544 47.298L87.6884 47.0441L87.4249 46.7894C87.3375 46.7048 87.2498 46.6204 87.1631 46.5355C87.0766 46.4509 86.9912 46.366 86.9053 46.2814C86.8193 46.1965 86.733 46.1118 86.6476 46.0267C86.5627 45.9423 86.4789 45.8575 86.3945 45.7728C86.3102 45.6879 86.2251 45.6033 86.1411 45.5182C86.0575 45.4338 85.9753 45.3489 85.8925 45.2643L85.6441 45.0104L85.399 44.7562L85.2385 44.5895L85.0787 44.4225L84.9208 44.2558L84.7624 44.089L84.6054 43.9223L84.2939 43.5886L84.1391 43.4216L83.9858 43.2546L83.8324 43.0879L83.68 42.9211L83.3771 42.5874L83.2267 42.4207L83.0777 42.2537L82.9283 42.0868L82.7802 41.92L82.633 41.7533L82.486 41.5863L82.3395 41.4196L82.0497 41.0859L81.9053 40.9191L81.762 40.7522L81.6187 40.5854L81.4761 40.4184L81.1941 40.0854L81.0531 39.9185L80.7739 39.585L80.6347 39.418L80.3591 39.0843L80.2218 38.9176L80.0853 38.7506L79.9489 38.5839L79.813 38.4171L79.6781 38.2504L79.5433 38.0834L79.409 37.9164L79.2757 37.7497L79.1423 37.5827L79.0102 37.4167L78.7465 37.083L78.6151 36.916L78.4847 36.7493L78.354 36.5825L78.2244 36.4156L78.0949 36.2488L77.9655 36.0819L77.8373 35.9151L77.7094 35.7481L77.5814 35.5814L77.4546 35.4147L77.3278 35.2477L77.201 35.081L77.0753 34.914L76.9492 34.7472L76.8238 34.5803L76.6993 34.4135L76.5745 34.2466L76.3266 33.9131L76.203 33.7461L76.0803 33.5794L75.9576 33.4124L75.8349 33.2457L75.5912 32.9117L75.4699 32.745L75.2281 32.412L75.1082 32.2452L74.9878 32.0785L74.8676 31.9115L74.7486 31.7448L74.6289 31.5778L74.5096 31.4109L74.3908 31.2441L74.2723 31.0774L74.1537 30.9106L74.0354 30.7437L73.7996 30.41L73.6822 30.243L73.4478 29.9093L73.3308 29.7425L73.2138 29.5758L73.0973 29.4091L72.8641 29.0754L72.7476 28.9084L72.6313 28.7414L72.5152 28.5747L72.2825 28.2412L72.0501 27.9075L71.9341 27.7412L71.7008 27.4075L71.5843 27.2405L71.3502 26.9068L71.2327 26.7401L71.1149 26.5734L70.9963 26.4064L70.8777 26.2396L70.7582 26.0727L70.7427 26.0509L70.6568 26.0727C70.4398 26.1277 70.2224 26.1834 70.0058 26.2396C69.7932 26.2947 69.5806 26.3502 69.3686 26.4064C69.1605 26.4612 68.9527 26.5169 68.7453 26.5734C68.5414 26.6284 68.3376 26.6839 68.1339 26.7401C67.9345 26.7954 67.7349 26.8509 67.5358 26.9068C67.3401 26.9621 67.1444 27.0178 66.9491 27.0738C66.7571 27.1288 66.5655 27.1843 66.3739 27.2405C66.1853 27.2956 65.9972 27.3515 65.8092 27.4075L65.2546 27.5742C65.0726 27.6293 64.8909 27.685 64.7094 27.7412C64.5308 27.796 64.3528 27.8515 64.1744 27.9075C63.9984 27.9628 63.8222 28.018 63.6464 28.0742L63.1263 28.2412C62.9556 28.2965 62.785 28.3517 62.6147 28.4079L62.1107 28.5747L61.614 28.7414L61.4547 28.7953C61.4513 28.8335 61.4494 28.8702 61.4458 28.9084C61.4405 28.9646 61.4375 29.0194 61.4325 29.0754C61.4277 29.1311 61.4238 29.1866 61.4192 29.2421L61.4059 29.4091C61.4018 29.4643 61.3963 29.5208 61.3927 29.5758C61.389 29.6308 61.383 29.6877 61.3798 29.7425C61.3764 29.799 61.3757 29.8531 61.373 29.9093C61.37 29.9657 61.3686 30.0205 61.3659 30.0763L61.359 30.243C61.3569 30.2987 61.3537 30.3547 61.3521 30.41C61.3503 30.4652 61.3464 30.5219 61.345 30.5769C61.3437 30.6327 61.3434 30.6879 61.3425 30.7437C61.3416 30.7999 61.3425 30.8547 61.3423 30.9106L61.3418 31.0774C61.3416 31.1329 61.3412 31.1888 61.3416 31.2441C61.3418 31.2994 61.3405 31.356 61.3414 31.4109C61.3421 31.4666 61.3423 31.5226 61.3437 31.5778C61.3448 31.6343 61.3485 31.6888 61.3503 31.7448C61.3519 31.8008 61.3547 31.8558 61.3569 31.9115L61.3636 32.0785C61.3661 32.1338 61.3672 32.1902 61.37 32.2452C61.3732 32.3005 61.3753 32.3569 61.3787 32.412C61.3821 32.4684 61.3883 32.523 61.3922 32.5787C61.3963 32.6347 61.4016 32.6895 61.4059 32.745L61.4197 32.9117C61.4247 32.9672 61.4279 33.0239 61.4334 33.0787C61.4389 33.1342 61.4432 33.1906 61.4494 33.2457C61.4554 33.3021 61.4638 33.3564 61.4705 33.4124C61.4769 33.4684 61.4847 33.5236 61.4918 33.5794C61.4986 33.6349 61.5053 33.6909 61.5128 33.7461C61.5204 33.8014 61.5261 33.8581 61.5341 33.9131L61.5588 34.0798C61.5675 34.136 61.5785 34.1908 61.5877 34.2466L61.6167 34.4135C61.6264 34.4693 61.6351 34.5252 61.6456 34.5803C61.6557 34.6355 61.6639 34.6924 61.6744 34.7472C61.6854 34.8034 61.6985 34.8583 61.7097 34.914C61.7214 34.9702 61.7346 35.0252 61.7465 35.081L61.7836 35.2477C61.7962 35.3032 61.8074 35.3596 61.8205 35.4147C61.8335 35.4699 61.8459 35.5264 61.8598 35.5814C61.8738 35.6376 61.8901 35.6922 61.9049 35.7481C61.9196 35.8043 61.9349 35.8596 61.95 35.9151C61.9651 35.9706 61.9795 36.0268 61.9951 36.0819C62.0109 36.1369 62.024 36.1942 62.0402 36.2488C62.0569 36.3052 62.0761 36.3596 62.0933 36.4156C62.1107 36.4718 62.1292 36.5268 62.1471 36.5825C62.165 36.6383 62.1826 36.694 62.2009 36.7493C62.2192 36.8045 62.2359 36.8612 62.2549 36.916C62.2744 36.9722 62.2945 37.0272 62.3147 37.083C62.3348 37.1392 62.3568 37.194 62.3774 37.2497L62.4401 37.4167C62.4614 37.4717 62.4808 37.5282 62.5026 37.5827C62.525 37.6389 62.5479 37.6942 62.5708 37.7497C62.5939 37.8059 62.6191 37.8607 62.6429 37.9164L62.7152 38.0834C62.7395 38.1389 62.7624 38.1956 62.7873 38.2504C62.8127 38.3061 62.8391 38.3614 62.8654 38.4171C62.8917 38.4733 62.9199 38.5281 62.9469 38.5839C62.9741 38.6396 63.0009 38.6956 63.0286 38.7506C63.0563 38.8059 63.0821 38.8628 63.1105 38.9176C63.1394 38.9738 63.1703 39.0286 63.1998 39.0843C63.2298 39.1405 63.2614 39.1955 63.2918 39.2513C63.3223 39.3068 63.3525 39.363 63.3836 39.418C63.415 39.4733 63.4445 39.5302 63.4763 39.585C63.5095 39.6414 63.545 39.696 63.5786 39.7517C63.6123 39.8077 63.6466 39.8632 63.6807 39.9185C63.7151 39.974 63.748 40.0306 63.783 40.0854L63.8902 40.2517C63.927 40.3079 63.9659 40.3629 64.0035 40.4184C64.0412 40.4742 64.0785 40.5301 64.1168 40.5854C64.1552 40.6405 64.1914 40.6973 64.2303 40.7522C64.2706 40.8088 64.3136 40.8632 64.3546 40.9191C64.3956 40.9751 64.4372 41.0306 64.4787 41.0859C64.5205 41.1414 64.5608 41.198 64.6032 41.2528C64.6464 41.309 64.6911 41.3638 64.7352 41.4196C64.7801 41.4758 64.8261 41.5308 64.8717 41.5863C64.917 41.642 64.9616 41.6982 65.0076 41.7533C65.0546 41.809 65.1015 41.8647 65.1493 41.92C65.1978 41.9762 65.248 42.0313 65.2974 42.0868C65.3466 42.1425 65.3956 42.1987 65.4457 42.2537C65.4963 42.3095 65.5467 42.3654 65.5982 42.4207C65.6508 42.4771 65.7055 42.5317 65.7591 42.5874C65.8124 42.6432 65.8658 42.6991 65.92 42.7544C65.975 42.8101 66.0297 42.8661 66.0853 42.9211C66.1423 42.9773 66.2016 43.0324 66.2592 43.0879C66.3169 43.1436 66.3742 43.1998 66.433 43.2546C66.4927 43.3106 66.5527 43.3666 66.6131 43.4216C66.6747 43.478 66.7379 43.5328 66.8006 43.5886C66.8631 43.6441 66.9249 43.7003 66.9881 43.7553C67.0531 43.8115 67.1188 43.8668 67.1845 43.9223C67.2513 43.9782 67.3186 44.0335 67.3861 44.089C67.4534 44.1445 67.5191 44.2012 67.5873 44.2558C67.658 44.3124 67.7315 44.367 67.8027 44.4225C67.8746 44.4785 67.9465 44.5344 68.0192 44.5895C68.0927 44.6452 68.1662 44.7014 68.2404 44.7562C68.3564 44.842 68.4741 44.9266 68.5922 45.0104C68.7128 45.0959 68.8348 45.1806 68.9575 45.2643C69.0825 45.3494 69.2063 45.4352 69.3331 45.5182C69.465 45.6047 69.5995 45.6884 69.7337 45.7728C69.8699 45.8584 70.007 45.9433 70.1452 46.0267C70.2869 46.1123 70.4282 46.1979 70.5721 46.2814C70.7207 46.3676 70.8718 46.4513 71.0226 46.5355C71.1769 46.6213 71.3323 46.7057 71.4889 46.7894C71.6493 46.8752 71.8105 46.9606 71.9732 47.0441C72.1408 47.1296 72.309 47.2145 72.4784 47.298C72.6542 47.3842 72.8316 47.4684 73.0097 47.5524C73.1919 47.6384 73.3754 47.723 73.5597 47.8065C73.7497 47.8921 73.9401 47.9772 74.1319 48.0604C74.3299 48.1465 74.5289 48.2316 74.7294 48.3151C74.9352 48.4009 75.1418 48.486 75.3497 48.569C75.5655 48.6552 75.7828 48.7401 76.0004 48.8236C76.225 48.9096 76.4505 48.994 76.6768 49.0775C76.9108 49.1636 77.1458 49.2482 77.3816 49.3315C77.6254 49.4177 77.8703 49.5024 78.1159 49.5861C78.3691 49.6721 78.6229 49.7567 78.8779 49.84C79.1405 49.926 79.4037 50.0109 79.6678 50.0941C79.9407 50.1802 80.2142 50.2648 80.4882 50.3481C80.7718 50.4343 81.0556 50.519 81.3399 50.6027C81.6325 50.6885 81.925 50.7729 82.2175 50.8566C82.5192 50.9426 82.8207 51.0273 83.1221 51.111C83.4307 51.1968 83.7388 51.2814 84.0466 51.3649C84.3623 51.4507 84.6777 51.5351 84.992 51.6191C85.3138 51.7049 85.6345 51.7898 85.9545 51.8737L86.9243 52.1276L87.9015 52.3822L88.873 52.6362C89.1962 52.7208 89.5173 52.8057 89.8359 52.8901C90.1552 52.975 90.4729 53.0596 90.7868 53.1447C91.0974 53.2289 91.4041 53.3138 91.7085 53.3986C92.0116 53.483 92.3108 53.5679 92.6072 53.6532C92.8986 53.7374 93.1877 53.8221 93.4727 53.9072C93.7512 53.9911 94.025 54.0758 94.2967 54.1613C94.5622 54.2448 94.8231 54.3297 95.0813 54.4152C95.334 54.4992 95.5826 54.5841 95.8282 54.6696C95.8882 54.6909 95.9498 54.7115 96.0095 54.7328C96.5321 54.9148 96.7882 54.8179 96.8411 54.6696C96.8704 54.5875 96.8368 54.4895 96.7514 54.4152" fill="#1C2380"/>
<path fill-rule="evenodd" clip-rule="evenodd" d="M96.7185 60.007C96.7031 59.9356 96.6498 59.8512 96.539 59.7531C96.5088 59.726 96.4745 59.6976 96.4349 59.6685C96.3543 59.61 96.2394 59.5531 96.0879 59.4992C95.7962 59.3953 95.3677 59.3042 94.7765 59.2446C93.8971 59.156 92.6592 59.1363 90.9828 59.2446C90.1709 59.2971 89.2562 59.3798 88.2296 59.4992C87.618 59.5704 86.9667 59.6544 86.2736 59.7531C85.7405 59.829 85.1832 59.9136 84.5997 60.007C84.1122 60.0854 83.6072 60.1701 83.0833 60.2616C82.6296 60.341 82.1606 60.4256 81.6788 60.5156C81.2461 60.5963 80.8032 60.6807 80.3477 60.7702C79.9362 60.8511 79.5143 60.936 79.0835 61.0241C78.6866 61.1057 78.2812 61.1904 77.8683 61.2783C77.489 61.359 77.1036 61.4418 76.7098 61.5283L76.6892 61.5327L75.5182 61.7866L74.338 62.0412L73.1594 62.2951L71.9872 62.5493C71.6027 62.633 71.2152 62.7179 70.8254 62.8039C70.4472 62.8874 70.0663 62.972 69.6836 63.0578C69.3119 63.1413 68.9381 63.2257 68.5625 63.3117C68.1969 63.3955 67.8295 63.4801 67.4615 63.5664C67.1048 63.6498 66.7471 63.7343 66.3886 63.8203C66.0407 63.9038 65.6919 63.9884 65.3423 64.0744C65.0027 64.1579 64.6627 64.2426 64.3219 64.3288C63.9925 64.4123 63.6627 64.4969 63.3328 64.583C63.0124 64.6662 62.6922 64.7509 62.3717 64.8369C62.0599 64.9204 61.7482 65.0053 61.4364 65.0913C61.1343 65.175 60.8324 65.2592 60.5309 65.3452C60.2379 65.4287 59.9452 65.514 59.6533 65.5998C59.3695 65.6833 59.0866 65.7682 58.8039 65.854C58.5292 65.9375 58.2545 66.0221 57.981 66.1079C57.7141 66.1916 57.4483 66.2765 57.1831 66.3625C56.9246 66.4462 56.6667 66.5304 56.4094 66.6164C56.1594 66.7002 55.9106 66.7853 55.662 66.8711C55.4199 66.9546 55.1786 67.0394 54.938 67.125C54.7036 67.2085 54.4702 67.2931 54.2374 67.3789C54.0101 67.4626 53.7835 67.5477 53.5578 67.6335C53.3378 67.7175 53.1181 67.8019 52.8999 67.8875C52.6866 67.9714 52.4749 68.0558 52.2638 68.1416C52.0571 68.2253 51.8516 68.3104 51.6469 68.396C51.4471 68.4797 51.2482 68.5646 51.0504 68.6499C50.8566 68.7339 50.6636 68.8183 50.4713 68.9041C50.2834 68.9878 50.0962 69.0727 49.9101 69.1585C49.7283 69.2422 49.548 69.3271 49.3678 69.4126C49.1916 69.4963 49.0167 69.5812 48.8425 69.6665C48.6713 69.7507 48.5012 69.8354 48.332 69.9212C48.1666 70.0049 48.002 70.0897 47.8385 70.1751C47.6776 70.259 47.5179 70.3441 47.359 70.4297C47.2034 70.5136 47.0488 70.5983 46.8953 70.6836C46.7446 70.7676 46.5947 70.8522 46.4459 70.9375C46.2994 71.0217 46.1541 71.1066 46.0094 71.1922C45.8682 71.2761 45.7274 71.3608 45.5878 71.4463C45.45 71.5305 45.3138 71.6154 45.1778 71.7007L45.0572 71.7763L44.7805 71.9546C44.6507 72.0388 44.5218 72.1235 44.3939 72.2086C44.2666 72.293 44.1402 72.3778 44.0144 72.4632C43.8903 72.5474 43.7671 72.632 43.6442 72.7171C43.5229 72.8013 43.4018 72.8861 43.2819 72.9713C43.1626 73.0559 43.0438 73.1405 42.9259 73.2259C42.8094 73.3103 42.6936 73.3947 42.5782 73.4798C42.4638 73.5642 42.35 73.6486 42.237 73.7337C42.1246 73.8181 42.0124 73.9032 41.9014 73.9883C41.7911 74.0727 41.6817 74.1574 41.5727 74.2423C41.4642 74.3267 41.3562 74.4115 41.2493 74.4966C41.1426 74.5811 41.0371 74.6659 40.9318 74.7508C40.8274 74.8352 40.7233 74.9201 40.6203 75.0047C40.5173 75.0896 40.4149 75.1742 40.3131 75.2593C40.2119 75.344 40.1114 75.4286 40.0116 75.5133C39.9137 75.5963 39.8171 75.6795 39.7205 75.7628L39.7154 75.7672C39.6179 75.8518 39.5234 75.9369 39.4311 76.0218C39.3549 76.0916 39.281 76.1613 39.2073 76.2311L40.1947 77.0384L40.5049 77.2924L42.9923 79.3265L43.3029 79.5804L43.6136 79.8344L43.9251 80.0892L45.7897 81.6141L46.1003 81.8681L47.6543 83.1391L47.7333 83.2038L47.817 83.1391L48.1448 82.8852L48.4776 82.6305L48.812 82.3766L49.1515 82.122L49.4937 81.8681C49.6082 81.7834 49.7221 81.699 49.838 81.6141L50.187 81.36L50.5395 81.1056L50.8941 80.8517C51.0131 80.7668 51.134 80.6819 51.2544 80.5971L51.6158 80.3431L51.9804 80.0892L52.3508 79.8344L52.7221 79.5804L53.0975 79.3265L53.4767 79.0719C53.6036 78.9873 53.7297 78.9026 53.8576 78.818L54.2447 78.5634L54.6327 78.3094L55.0246 78.0555L55.4212 77.8009L55.8191 77.547L56.2226 77.2924L56.6284 77.0384L57.0366 76.7845C57.1734 76.6999 57.3117 76.6152 57.45 76.5306L57.867 76.2757L58.2863 76.0218L58.7112 75.7672C58.8529 75.6825 58.9943 75.5979 59.1372 75.5133L59.5682 75.2593L60.0033 75.0047C60.1489 74.9201 60.294 74.8354 60.4405 74.7508C60.5874 74.6659 60.736 74.5811 60.8841 74.4964L61.3302 74.2423L61.7798 73.9883L62.2348 73.7337L62.6912 73.4798C62.8446 73.3949 62.9993 73.3105 63.1538 73.2259L63.6213 72.9713C63.7771 72.8866 63.9332 72.8017 64.0903 72.7171C64.248 72.6322 64.4075 72.5478 64.5661 72.4632L65.0457 72.2086L65.5284 71.9546C65.6907 71.8698 65.8537 71.7853 66.0171 71.7007C66.1812 71.6158 66.3449 71.531 66.5099 71.4463L67.0073 71.1922L67.5116 70.9375C67.6798 70.8527 67.8483 70.768 68.0177 70.6836C68.1878 70.5988 68.359 70.5141 68.5302 70.4297C68.7028 70.3446 68.8758 70.2597 69.0491 70.1751C69.2228 70.0902 69.3963 70.0056 69.5708 69.9212C69.747 69.8361 69.924 69.7512 70.1011 69.6665C70.2787 69.5817 70.4566 69.497 70.6351 69.4126C70.8146 69.3277 70.9938 69.2429 71.1742 69.1585C71.3559 69.0734 71.5386 68.9887 71.7215 68.9041C71.9051 68.819 72.0891 68.7343 72.2736 68.6499C72.459 68.5653 72.6444 68.4804 72.8307 68.396C73.0189 68.3109 73.2079 68.226 73.397 68.1416C73.5872 68.0565 73.7777 67.9719 73.9688 67.8875C74.1608 67.8026 74.3529 67.7179 74.5459 67.6335C74.7409 67.5484 74.9363 67.4633 75.1323 67.3789C75.3296 67.2936 75.5278 67.2094 75.726 67.125C75.9259 67.0399 76.1257 66.9552 76.3264 66.8711C76.529 66.786 76.7314 66.7009 76.9349 66.6164C77.1402 66.5313 77.3464 66.4469 77.5529 66.3625C77.7614 66.2772 77.9708 66.1925 78.1803 66.1079C78.3913 66.023 78.6026 65.9382 78.8143 65.854C79.0284 65.7689 79.2424 65.684 79.4571 65.5998C79.6754 65.5145 79.8947 65.4299 80.114 65.3452C80.3349 65.2601 80.5567 65.1757 80.7785 65.0913C81.0035 65.006 81.229 64.9211 81.4547 64.8369C81.6829 64.7516 81.9111 64.6667 82.1402 64.583C82.3728 64.4976 82.6056 64.413 82.839 64.3288C83.0769 64.2433 83.3151 64.1588 83.5534 64.0744C83.7949 63.9891 84.0371 63.9042 84.2795 63.8203C84.5253 63.7349 84.7719 63.6503 85.0186 63.5664C85.2702 63.4808 85.5222 63.3959 85.7747 63.3117C86.031 63.2264 86.2878 63.1415 86.5453 63.0578C86.8074 62.9725 87.0698 62.8874 87.3328 62.8039C87.6029 62.7181 87.8732 62.6335 88.144 62.5493C88.42 62.4637 88.6968 62.3791 88.9735 62.2951C89.2571 62.2096 89.5409 62.1249 89.8252 62.0412C90.1175 61.9554 90.4103 61.8705 90.7033 61.7866C91.0038 61.7008 91.3046 61.6161 91.6058 61.5327C91.9169 61.4466 92.2286 61.3615 92.5406 61.2783C92.8622 61.192 93.1841 61.1074 93.5064 61.0241C93.8401 60.9381 94.174 60.8532 94.5085 60.7702C94.8582 60.6835 95.2084 60.5986 95.5591 60.5156C95.8356 60.4499 96.1126 60.3851 96.3895 60.3218C96.4449 60.31 96.5065 60.2903 96.5619 60.2616C96.6638 60.2087 96.7436 60.1252 96.7185 60.007" fill="#005DB0"/>
<path fill-rule="evenodd" clip-rule="evenodd" d="M163.567 70.6835C163.558 70.6016 163.545 70.5167 163.525 70.4295C163.507 70.3472 163.484 70.2619 163.455 70.1749C163.429 70.0921 163.397 70.0075 163.362 69.921C163.328 69.8377 163.29 69.7531 163.248 69.6664C163.208 69.5834 163.163 69.4985 163.115 69.4125C163.069 69.3287 163.02 69.2443 162.967 69.1583C162.915 69.0746 162.86 68.9897 162.802 68.9039C162.746 68.8202 162.688 68.7356 162.625 68.6498C162.565 68.566 162.501 68.4814 162.434 68.3958C162.369 68.3117 162.302 68.227 162.232 68.1415C162.162 68.0575 162.09 67.9726 162.017 67.8873C161.944 67.8034 161.868 67.7187 161.791 67.6334C161.714 67.549 161.635 67.4641 161.553 67.3788C161.473 67.2946 161.39 67.2097 161.305 67.1248C161.221 67.0407 161.135 66.9558 161.047 66.8709C160.959 66.7863 160.869 66.7014 160.778 66.6163C160.686 66.5319 160.593 66.447 160.497 66.3624C160.402 66.2775 160.305 66.1926 160.206 66.1077C160.108 66.0231 160.008 65.9385 159.906 65.8538C159.803 65.7692 159.699 65.6843 159.593 65.5997C159.487 65.5148 159.378 65.4299 159.268 65.3451C159.158 65.2602 159.046 65.1758 158.933 65.0911C158.818 65.006 158.702 64.9212 158.585 64.8367C158.466 64.7516 158.346 64.667 158.224 64.5828C158.101 64.4977 157.978 64.4131 157.852 64.3287C157.724 64.2433 157.595 64.1587 157.464 64.0743C157.331 63.9889 157.197 63.9043 157.061 63.8201C156.923 63.735 156.785 63.6501 156.644 63.5662C156.5 63.4804 156.354 63.3958 156.207 63.3116C156.058 63.226 155.907 63.1414 155.754 63.0577C155.598 62.9721 155.44 62.8872 155.281 62.8037C155.116 62.7179 154.951 62.6328 154.783 62.5491C154.611 62.4629 154.436 62.3784 154.26 62.295C154.078 62.2089 153.896 62.1241 153.71 62.041C153.517 61.9543 153.32 61.8697 153.123 61.7864C152.917 61.6997 152.708 61.6151 152.498 61.5325C152.275 61.4451 152.05 61.3602 151.823 61.2781C151.58 61.19 151.335 61.1054 151.088 61.024C150.819 60.9354 150.547 60.8505 150.272 60.77C149.969 60.6812 149.663 60.5968 149.355 60.5189L149.341 60.5154C148.99 60.4273 148.634 60.3431 148.275 60.2615C147.886 60.1731 147.493 60.088 147.095 60.0069C146.659 59.9181 146.218 59.8332 145.774 59.7529C145.276 59.6632 144.773 59.5788 144.267 59.499C143.687 59.4079 143.103 59.323 142.515 59.2444C141.819 59.1517 141.119 59.067 140.414 58.9905C139.525 58.8938 138.631 58.8094 137.737 58.7363C136.419 58.6288 135.103 58.5453 133.802 58.4824C128.013 58.2023 122.553 58.3238 118.834 58.4824C117.226 58.5509 115.943 58.6262 115.101 58.6792C114.957 58.6882 114.839 58.709 114.747 58.7363C114.544 58.7971 114.47 58.894 114.539 58.9905C114.593 59.0661 114.736 59.1408 114.974 59.1982C115.1 59.2148 115.229 59.2301 115.36 59.2444C116.36 59.3533 117.539 59.4047 118.947 59.499C119.831 59.5582 120.805 59.6348 121.881 59.7529C122.508 59.8219 123.17 59.9047 123.869 60.0069C124.376 60.0811 124.902 60.1655 125.448 60.2615C125.884 60.338 126.334 60.4227 126.797 60.5154C127.189 60.5943 127.591 60.6784 128.004 60.77C128.361 60.8494 128.726 60.9342 129.098 61.024C129.431 61.1044 129.77 61.1888 130.115 61.2781C130.429 61.359 130.747 61.4439 131.071 61.5325C131.367 61.6137 131.668 61.6988 131.972 61.7864C132.257 61.8687 132.545 61.9527 132.838 62.041C133.108 62.1227 133.382 62.208 133.659 62.295C133.92 62.3773 134.185 62.4617 134.453 62.5491C134.706 62.6319 134.962 62.7161 135.222 62.8037C135.466 62.8861 135.713 62.9712 135.963 63.0577C136.2 63.1402 136.44 63.2251 136.682 63.3116C136.915 63.3946 137.149 63.4795 137.385 63.5662C137.611 63.649 137.839 63.7339 138.069 63.8201C138.29 63.9031 138.513 63.988 138.737 64.0743C138.954 64.1575 139.172 64.2424 139.392 64.3287C139.604 64.4121 139.817 64.4963 140.033 64.5828C140.241 64.6661 140.45 64.7505 140.661 64.8367C140.866 64.9202 141.072 65.0049 141.279 65.0911C141.479 65.1744 141.682 65.2595 141.884 65.3451C142.082 65.4285 142.281 65.5139 142.481 65.5997C142.676 65.6834 142.872 65.7683 143.068 65.8538C143.228 65.9234 143.387 65.9923 143.549 66.0636L143.649 66.1077C143.844 66.1938 144.039 66.2789 144.234 66.3624C144.434 66.4484 144.634 66.5328 144.834 66.6163C145.04 66.7023 145.246 66.7872 145.452 66.8709C145.664 66.9569 145.875 67.0416 146.086 67.1248C146.304 67.2109 146.522 67.2955 146.739 67.3788C146.966 67.4652 147.192 67.5501 147.417 67.6334C147.651 67.7199 147.883 67.8045 148.116 67.8873C148.359 67.974 148.601 68.0584 148.842 68.1415C149.095 68.2279 149.347 68.3133 149.598 68.3958C149.862 68.4828 150.125 68.5674 150.388 68.6498C150.665 68.7369 150.941 68.8218 151.215 68.9039C151.509 68.9916 151.801 69.0762 152.093 69.1583C152.404 69.2462 152.714 69.3308 153.023 69.4125C153.357 69.5008 153.689 69.5852 154.02 69.6664C154.384 69.7557 154.745 69.8405 155.105 69.921C155.507 70.0112 155.908 70.0958 156.304 70.1749C156.767 70.2672 157.224 70.3518 157.677 70.4295C158.237 70.5251 158.789 70.6097 159.333 70.6835C160.133 70.7917 160.916 70.8761 161.68 70.9374C162.316 70.9885 162.939 71.0234 163.547 71.0431H163.561C163.566 71.0086 163.569 70.9732 163.571 70.9374C163.576 70.8562 163.575 70.7718 163.567 70.6835" fill="#0045AC"/>
<path fill-rule="evenodd" clip-rule="evenodd" d="M142.687 38.5839C142.685 38.5277 142.681 38.472 142.675 38.4172C142.669 38.3608 142.662 38.3055 142.654 38.2505C142.644 38.194 142.634 38.1385 142.623 38.0835C142.61 38.0273 142.597 37.9716 142.582 37.9165C142.566 37.8603 142.549 37.8048 142.531 37.7498C142.512 37.6936 142.492 37.6376 142.47 37.5828C142.448 37.5268 142.423 37.4716 142.397 37.4168C142.371 37.3601 142.343 37.3048 142.313 37.2498C142.282 37.1936 142.251 37.1379 142.217 37.0831C142.182 37.0266 142.146 36.9709 142.108 36.9161C142.068 36.8597 142.027 36.8042 141.985 36.7493C141.941 36.6927 141.896 36.637 141.849 36.5826C141.8 36.5257 141.748 36.4704 141.695 36.4156C141.641 36.359 141.585 36.3032 141.527 36.2489C141.467 36.192 141.405 36.1365 141.341 36.0819C141.274 36.025 141.205 35.9695 141.135 35.9152C141.061 35.8581 140.985 35.8026 140.908 35.7482C140.826 35.6911 140.742 35.6354 140.657 35.5815C140.566 35.5239 140.473 35.4684 140.378 35.4147C140.277 35.3567 140.173 35.3012 140.068 35.2478C139.954 35.1897 139.839 35.134 139.722 35.081C139.591 35.0221 139.459 34.9668 139.326 34.9141C139.175 34.8544 139.022 34.7987 138.869 34.7473C138.686 34.6856 138.501 34.6303 138.318 34.5804C138.075 34.5144 137.834 34.4587 137.598 34.4136C136.769 34.2557 136 34.2244 135.435 34.3209C135.434 34.3516 135.431 34.3829 135.428 34.4136C135.425 34.4689 135.42 34.5244 135.413 34.5804C135.406 34.6356 135.399 34.6911 135.39 34.7473C135.381 34.8024 135.37 34.8581 135.358 34.9141C135.346 34.9693 135.333 35.0251 135.318 35.081C135.305 35.1363 135.289 35.1918 135.273 35.2478C135.257 35.303 135.24 35.3585 135.221 35.4147C135.203 35.4698 135.183 35.5255 135.162 35.5815C135.142 35.6367 135.119 35.6925 135.096 35.7482C135.074 35.8037 135.05 35.8592 135.025 35.9152C135.001 35.9707 134.976 36.026 134.95 36.0819C134.923 36.1372 134.895 36.1929 134.867 36.2489C134.838 36.3042 134.809 36.3599 134.779 36.4156C134.749 36.4711 134.719 36.5266 134.687 36.5826C134.655 36.6379 134.622 36.6936 134.589 36.7493C134.555 36.8048 134.521 36.8603 134.486 36.9161C134.451 36.9716 134.416 37.0271 134.379 37.0831C134.343 37.1386 134.306 37.1941 134.268 37.2498C134.23 37.3053 134.19 37.361 134.151 37.4168C134.111 37.472 134.072 37.5273 134.031 37.5828C133.99 37.6383 133.949 37.694 133.907 37.7498C133.864 37.8053 133.821 37.8605 133.777 37.9165C133.734 37.9722 133.69 38.0275 133.645 38.0835C133.6 38.139 133.554 38.1947 133.508 38.2505C133.462 38.3057 133.414 38.3615 133.367 38.4172C133.319 38.4727 133.272 38.5282 133.223 38.5839L133.075 38.7507C133.025 38.8062 132.974 38.8619 132.923 38.9176C132.872 38.9731 132.822 39.0286 132.769 39.0844C132.717 39.1396 132.663 39.1958 132.61 39.2513L132.448 39.4181C132.394 39.4738 132.339 39.5291 132.283 39.5851C132.228 39.6406 132.171 39.6961 132.114 39.7518C132.057 39.8075 132.001 39.863 131.943 39.9185L131.767 40.0855L131.59 40.2518C131.531 40.3071 131.471 40.363 131.41 40.4185C131.349 40.474 131.287 40.5298 131.225 40.5855L131.038 40.7522L130.848 40.9192L130.655 41.0859L130.459 41.2529L130.26 41.4196C130.194 41.4751 130.127 41.5309 130.06 41.5864L129.854 41.7534L129.647 41.9201L129.438 42.0868L129.225 42.2538L129.01 42.4208L128.792 42.5875L128.572 42.7545L128.348 42.9212L128.123 43.088L127.894 43.2547L127.663 43.4217L127.43 43.5886L127.194 43.7554L126.956 43.9223L126.714 44.0891L126.47 44.2558L126.225 44.4226L125.975 44.5895L125.725 44.7563C125.597 44.8409 125.468 44.9258 125.338 45.0104C125.208 45.0951 125.077 45.1797 124.945 45.2643C124.814 45.349 124.681 45.4339 124.547 45.5183C124.413 45.6031 124.278 45.688 124.142 45.7729C124.007 45.8575 123.871 45.9422 123.733 46.0268C123.595 46.1117 123.457 46.1966 123.317 46.2814C123.178 46.3661 123.037 46.4509 122.895 46.5356C122.754 46.62 122.612 46.7049 122.469 46.7895C122.325 46.8744 122.18 46.9593 122.035 47.0441C121.889 47.1288 121.744 47.2132 121.596 47.2981L121.152 47.5524C121.003 47.6373 120.853 47.722 120.703 47.8066L120.248 48.0605C120.094 48.1454 119.94 48.2303 119.784 48.3151C119.63 48.3998 119.474 48.4844 119.317 48.5691L118.843 48.8237C118.685 48.9083 118.525 48.9932 118.364 49.0776C118.203 49.1622 118.042 49.2471 117.88 49.3315C117.716 49.4166 117.552 49.5013 117.387 49.5861C117.223 49.6708 117.057 49.7554 116.891 49.8401C116.723 49.9249 116.555 50.0093 116.386 50.0942L115.876 50.3481C115.705 50.433 115.532 50.5179 115.359 50.6028C115.185 50.6874 115.011 50.772 114.836 50.8567C114.66 50.9416 114.483 51.0264 114.305 51.1111C114.127 51.1962 113.949 51.2808 113.77 51.365C113.59 51.4499 113.409 51.5347 113.227 51.6192C113.044 51.7043 112.86 51.7891 112.676 51.8738L112.621 51.899C112.512 51.9746 112.425 52.0528 112.363 52.1277C112.285 52.2204 112.245 52.3088 112.242 52.3823C112.236 52.534 112.392 52.6242 112.725 52.5664C113.091 52.5058 113.452 52.4445 113.81 52.3823C114.288 52.2991 114.758 52.2137 115.222 52.1277C115.671 52.0442 116.115 51.9598 116.552 51.8738C116.979 51.7898 117.401 51.7052 117.816 51.6192C118.216 51.5357 118.61 51.4506 118.999 51.365C119.38 51.2813 119.756 51.1966 120.126 51.1111C120.49 51.0271 120.849 50.9425 121.203 50.8567C121.549 50.7727 121.891 50.6881 122.228 50.6028C122.559 50.5184 122.886 50.4337 123.208 50.3481C123.524 50.2642 123.833 50.1793 124.14 50.0942C124.443 50.0098 124.741 49.9252 125.035 49.8401C125.325 49.7559 125.611 49.6712 125.892 49.5861C126.171 49.5017 126.447 49.4169 126.718 49.3315C126.986 49.2471 127.25 49.1627 127.509 49.0776C127.767 48.9934 128.021 48.9088 128.271 48.8237C128.519 48.739 128.764 48.6544 129.005 48.5691C129.244 48.4847 129.479 48.4 129.71 48.3151C129.94 48.2305 130.168 48.1456 130.391 48.0605C130.612 47.9761 130.831 47.8912 131.045 47.8066C131.259 47.722 131.469 47.6373 131.676 47.5524C131.882 47.4678 132.085 47.3829 132.284 47.2981C132.483 47.2134 132.677 47.129 132.869 47.0441C133.061 46.9593 133.25 46.8744 133.435 46.7895C133.62 46.7049 133.801 46.6202 133.979 46.5356C134.158 46.4509 134.333 46.3661 134.505 46.2814C134.677 46.1963 134.846 46.1117 135.012 46.0268C135.178 45.9422 135.34 45.8575 135.5 45.7729C135.66 45.688 135.818 45.6031 135.972 45.5183C136.126 45.4336 136.277 45.349 136.425 45.2643C136.573 45.1795 136.719 45.0951 136.861 45.0104C137.004 44.9256 137.145 44.8409 137.282 44.7563C137.372 44.7005 137.462 44.645 137.55 44.5895C137.638 44.5338 137.724 44.4783 137.81 44.4226C137.896 44.3671 137.98 44.3113 138.063 44.2558C138.146 44.2001 138.23 44.1446 138.311 44.0891C138.392 44.0334 138.473 43.9778 138.551 43.9223C138.631 43.8664 138.708 43.8109 138.785 43.7554C138.861 43.6996 138.938 43.6441 139.012 43.5886C139.087 43.5329 139.162 43.4772 139.235 43.4217C139.308 43.3659 139.378 43.3104 139.448 43.2547C139.519 43.199 139.588 43.1435 139.656 43.088C139.725 43.0325 139.793 42.9765 139.859 42.9212C139.926 42.8653 139.991 42.8098 140.055 42.7545C140.12 42.6985 140.182 42.643 140.244 42.5875C140.306 42.5315 140.367 42.476 140.427 42.4208C140.488 42.365 140.548 42.3091 140.605 42.2538C140.664 42.1978 140.72 42.1423 140.776 42.0868C140.832 42.0311 140.886 41.9754 140.939 41.9201C140.993 41.8644 141.046 41.8086 141.097 41.7534C141.149 41.6976 141.201 41.6417 141.25 41.5864C141.299 41.5304 141.348 41.4749 141.395 41.4196C141.442 41.3634 141.488 41.3082 141.533 41.2529C141.578 41.1967 141.622 41.1412 141.665 41.0859C141.708 41.03 141.75 40.9742 141.79 40.9192C141.831 40.8632 141.871 40.8073 141.909 40.7522C141.947 40.6963 141.985 40.6405 142.021 40.5855C142.057 40.5293 142.091 40.4738 142.124 40.4185C142.158 40.3626 142.189 40.3068 142.22 40.2518C142.251 40.1956 142.281 40.1403 142.308 40.0855C142.337 40.0293 142.364 39.9736 142.389 39.9185C142.415 39.8623 142.439 39.8068 142.462 39.7518C142.485 39.6956 142.506 39.6399 142.526 39.5851C142.546 39.5284 142.564 39.4729 142.58 39.4181C142.597 39.3617 142.612 39.3059 142.624 39.2513C142.638 39.1947 142.649 39.1392 142.658 39.0844C142.668 39.0277 142.675 38.972 142.68 38.9176C142.686 38.8607 142.689 38.805 142.69 38.7507L142.691 38.7273C142.691 38.679 142.69 38.6316 142.687 38.5839" fill="#21148A"/>
<path fill-rule="evenodd" clip-rule="evenodd" d="M127.175 88.986C127.173 88.9025 127.168 88.8176 127.163 88.7314C127.158 88.6479 127.152 88.5632 127.145 88.4772C127.138 88.3935 127.13 88.3086 127.122 88.2228C127.113 88.1391 127.104 88.0545 127.094 87.9689C127.084 87.8852 127.073 87.8005 127.061 87.7147C127.05 87.6308 127.038 87.5459 127.026 87.4603C127.013 87.3766 127 87.2918 126.986 87.2064C126.972 87.1222 126.958 87.0374 126.943 86.9518C126.928 86.8676 126.912 86.7832 126.896 86.6976C126.88 86.6137 126.864 86.5291 126.847 86.4437C126.83 86.3595 126.813 86.2744 126.795 86.1891L126.74 85.9352L126.683 85.6813L126.624 85.4266L126.562 85.1727L126.499 84.9186L126.433 84.6642L126.366 84.4102L126.296 84.1563L126.225 83.9017L126.152 83.6478L126.078 83.3932L126.001 83.139L125.924 82.8851L125.845 82.6305L125.764 82.3765L125.682 82.1222L125.598 81.868L125.514 81.6139L125.427 81.3599L125.34 81.1055L125.251 80.8516L125.161 80.597L125.069 80.3431L124.977 80.0892L124.883 79.8343L124.788 79.5804L124.691 79.3265L124.594 79.0718L124.495 78.8179L124.395 78.5633L124.294 78.3094L124.192 78.0554L124.088 77.8008L123.984 77.5469L123.878 77.2923L123.77 77.0384L123.662 76.7844L123.552 76.5305L123.441 76.2757L123.328 76.0217L123.213 75.7671L123.098 75.5132L122.981 75.2593L122.863 75.0047L122.743 74.7507L122.622 74.4968L122.498 74.2422L122.373 73.9883L122.245 73.7337L122.116 73.4797L121.985 73.2258L121.85 72.9712L121.796 72.8694C121.768 72.8181 121.738 72.7679 121.71 72.717C121.661 72.6319 121.611 72.5471 121.561 72.4631C121.509 72.3775 121.456 72.2924 121.403 72.2085C121.348 72.1232 121.293 72.0383 121.236 71.9546C121.178 71.8692 121.12 71.7844 121.059 71.7006C120.998 71.6148 120.935 71.53 120.872 71.446C120.807 71.3605 120.741 71.2758 120.674 71.1921C120.605 71.1061 120.535 71.0214 120.464 70.9375C120.391 70.8517 120.317 70.767 120.242 70.6836C120.165 70.5975 120.086 70.5131 120.007 70.4296C119.925 70.3434 119.842 70.2587 119.757 70.175C119.67 70.089 119.582 70.0046 119.494 69.9211C119.402 69.8348 119.308 69.75 119.214 69.6665C119.116 69.5804 119.018 69.4958 118.918 69.4126C118.814 69.3263 118.71 69.2414 118.603 69.1584C118.493 69.0721 118.381 68.9868 118.268 68.904C118.15 68.8173 118.03 68.7329 117.91 68.6499C117.784 68.5634 117.657 68.4785 117.529 68.3959C117.393 68.3087 117.256 68.2241 117.117 68.1415C116.972 68.0546 116.825 67.9695 116.677 67.8876C116.519 67.8 116.359 67.7156 116.198 67.6335C116.026 67.5456 115.852 67.4605 115.676 67.3789C115.487 67.2907 115.297 67.2061 115.105 67.1249C114.895 67.0359 114.683 66.9515 114.47 66.871C114.232 66.781 113.993 66.6959 113.752 66.6164C113.476 66.525 113.197 66.4406 112.919 66.3625C112.582 66.2681 112.244 66.1832 111.906 66.1078C111.451 66.0063 110.997 65.9219 110.546 65.8539C108.573 65.5567 106.671 65.5753 105.093 65.8539C104.889 65.89 104.689 65.9298 104.496 65.9746C104.294 66.0209 104.118 66.0651 103.979 66.1078C103.701 66.1932 103.566 66.2748 103.641 66.3625C103.703 66.4335 103.903 66.5079 104.278 66.5928L104.332 66.6164C104.521 66.6964 104.705 66.7813 104.882 66.871C105.042 66.9517 105.197 67.0364 105.347 67.1249C105.485 67.2061 105.619 67.2912 105.75 67.3789C105.873 67.4612 105.993 67.5456 106.11 67.6335C106.218 67.7156 106.324 67.8009 106.428 67.8876C106.526 67.97 106.622 68.0548 106.716 68.1415C106.806 68.2246 106.895 68.3092 106.981 68.3959C107.063 68.479 107.143 68.5638 107.221 68.6499C107.297 68.7329 107.371 68.8178 107.443 68.904C107.513 68.9873 107.582 69.0721 107.65 69.1584C107.716 69.2419 107.78 69.3265 107.843 69.4126C107.904 69.496 107.964 69.5807 108.023 69.6665C108.081 69.7502 108.137 69.8351 108.193 69.9211C108.246 70.0048 108.299 70.0895 108.351 70.175C108.402 70.259 108.453 70.3436 108.502 70.4296C108.55 70.5131 108.597 70.598 108.644 70.6836C108.69 70.7673 108.735 70.8519 108.78 70.9375C108.823 71.0217 108.866 71.1065 108.909 71.1921C108.951 71.276 108.992 71.3607 109.032 71.446C109.072 71.5302 109.112 71.6151 109.15 71.7006C109.189 71.7846 109.226 71.8692 109.264 71.9546C109.3 72.0387 109.337 72.1232 109.373 72.2085C109.408 72.2927 109.443 72.3778 109.478 72.4631C109.512 72.5473 109.546 72.6317 109.58 72.717C109.613 72.8012 109.646 72.8861 109.678 72.9712L109.774 73.2258C109.805 73.3098 109.836 73.3944 109.866 73.4797C109.897 73.5639 109.927 73.6483 109.957 73.7337L110.046 73.9883L110.132 74.2422L110.216 74.4968L110.3 74.7507L110.381 75.0047L110.463 75.2593L110.542 75.5132L110.621 75.7671L110.699 76.0217L110.777 76.2757L110.854 76.5305L110.931 76.7844L111.008 77.0384L111.084 77.2923L111.161 77.5469L111.237 77.8008L111.315 78.0554L111.392 78.3094L111.469 78.5633L111.548 78.8179L111.627 79.0718L111.706 79.3265L111.787 79.5804L111.868 79.8343L111.95 80.0892L112.032 80.3431L112.117 80.597L112.201 80.8516L112.288 81.1055L112.376 81.3599L112.464 81.6139L112.555 81.868L112.646 82.1222C112.677 82.2068 112.708 82.2917 112.739 82.3765L112.835 82.6305L112.932 82.8851C112.964 82.9697 112.996 83.0544 113.029 83.139L113.13 83.3932L113.232 83.6478L113.335 83.9017L113.441 84.1563L113.549 84.4102L113.659 84.6642L113.771 84.9186L113.885 85.1727C113.923 85.2574 113.963 85.342 114.002 85.4266L114.12 85.6813C114.16 85.7659 114.201 85.8505 114.242 85.9352L114.292 86.0406L114.366 86.1891C114.409 86.2747 114.452 86.36 114.495 86.4437C114.539 86.5291 114.583 86.6142 114.628 86.6976C114.674 86.7834 114.72 86.8679 114.767 86.9518C114.815 87.0378 114.863 87.1225 114.912 87.2064C114.961 87.292 115.011 87.3766 115.061 87.4603C115.112 87.5461 115.164 87.631 115.216 87.7147C115.269 87.8005 115.323 87.8854 115.377 87.9689C115.432 88.0545 115.488 88.1396 115.544 88.2228C115.602 88.3088 115.66 88.3935 115.719 88.4772C115.779 88.5632 115.839 88.6479 115.9 88.7314C115.962 88.8176 116.025 88.9025 116.089 88.986C116.154 89.072 116.219 89.1566 116.285 89.2399C116.353 89.3259 116.421 89.4106 116.489 89.4938C116.56 89.5801 116.631 89.6652 116.703 89.7484C116.776 89.8345 116.851 89.9191 116.925 90.0024C117.003 90.0888 117.081 90.1733 117.159 90.2567C117.24 90.3432 117.321 90.4276 117.403 90.5111C117.487 90.5974 117.572 90.6823 117.657 90.7651C117.745 90.8513 117.834 90.9364 117.923 91.019C118.016 91.1057 118.11 91.1906 118.204 91.2736C118.302 91.3603 118.4 91.4447 118.498 91.5275C118.601 91.6142 118.704 91.6991 118.807 91.7814C118.916 91.8689 119.026 91.9533 119.135 92.0361C119.25 92.1232 119.365 92.2079 119.48 92.29C119.602 92.3774 119.724 92.4625 119.846 92.5446C119.975 92.6322 120.104 92.7169 120.233 92.7985C120.371 92.8866 120.509 92.9708 120.645 93.0524C120.793 93.141 120.94 93.2257 121.085 93.3071C121.243 93.3956 121.399 93.4803 121.553 93.561C121.723 93.65 121.89 93.7349 122.054 93.8156C122.235 93.9049 122.413 93.9895 122.587 94.0698C122.781 94.1595 122.969 94.2437 123.151 94.3237C123.356 94.4136 123.553 94.4983 123.741 94.5783C123.951 94.6678 124.149 94.7518 124.334 94.8322C124.537 94.9208 124.724 95.0052 124.892 95.0866C125.069 95.1731 125.224 95.2568 125.355 95.3405C125.395 95.3664 125.434 95.3921 125.469 95.4178C125.507 95.394 125.542 95.3681 125.577 95.3405C125.669 95.2677 125.754 95.1828 125.831 95.0866C125.893 95.0089 125.951 94.9238 126.004 94.8322C126.051 94.7524 126.095 94.6673 126.136 94.5783C126.173 94.4969 126.208 94.412 126.241 94.3237C126.272 94.2418 126.301 94.157 126.329 94.0698C126.355 93.9872 126.38 93.9026 126.403 93.8156C126.426 93.7328 126.448 93.6475 126.469 93.561C126.489 93.478 126.508 93.3931 126.527 93.3071C126.545 93.2234 126.563 93.1387 126.58 93.0524C126.597 92.969 126.614 92.8841 126.63 92.7985L126.676 92.5446L126.722 92.29L126.767 92.0361L126.812 91.7814L126.858 91.5275L126.905 91.2736C126.922 91.1887 126.938 91.1038 126.955 91.019C126.972 90.9343 126.99 90.8497 127.008 90.7651C127.025 90.6855 127.043 90.6057 127.061 90.5264L127.064 90.5111C127.083 90.4293 127.099 90.3442 127.113 90.2563C127.126 90.174 127.138 90.09 127.147 90.0024C127.155 89.9203 127.162 89.8349 127.167 89.7484C127.172 89.6654 127.176 89.5805 127.178 89.4938C127.18 89.4108 127.181 89.3264 127.181 89.2399C127.18 89.1566 127.179 89.0722 127.175 88.986" fill="#005FB1"/>
<path fill-rule="evenodd" clip-rule="evenodd" d="M108.793 52.1456L108.783 52.1278C108.735 52.0431 108.689 51.9587 108.644 51.8738C108.599 51.7892 108.554 51.7041 108.511 51.6192C108.469 51.5348 108.427 51.4499 108.386 51.3651C108.346 51.2807 108.306 51.1963 108.267 51.1111C108.229 51.0265 108.191 50.9416 108.155 50.8568C108.118 50.7724 108.082 50.6875 108.048 50.6028C108.013 50.518 107.978 50.4331 107.945 50.3482C107.912 50.2636 107.879 50.1792 107.847 50.0943C107.815 50.0097 107.784 49.9252 107.754 49.8401C107.723 49.7557 107.693 49.6711 107.664 49.5862C107.634 49.5013 107.605 49.4167 107.577 49.3316C107.549 49.2472 107.52 49.1625 107.493 49.0777C107.465 48.9933 107.438 48.9086 107.411 48.8238L107.331 48.5691L107.253 48.3152L107.175 48.0606L107.099 47.8067L107.023 47.5525L106.946 47.2981L106.87 47.0442L106.792 46.7896L106.714 46.5357L106.634 46.2815L106.553 46.0269L106.47 45.773L106.384 45.5183C106.356 45.4342 106.327 45.3493 106.297 45.2644C106.268 45.18 106.237 45.0956 106.206 45.0105C106.176 44.9261 106.145 44.8414 106.113 44.7563L106.05 44.5896L105.986 44.4226L105.92 44.2561L105.853 44.0892L105.784 43.9224L105.713 43.7554L105.641 43.5887L105.568 43.4217C105.543 43.3662 105.517 43.3105 105.492 43.2548L105.414 43.088L105.335 42.9213L105.254 42.7546L105.171 42.5876L105.086 42.4208L104.999 42.2539L104.909 42.0869L104.819 41.9202L104.725 41.7534L104.63 41.5867L104.533 41.4197C104.5 41.3642 104.466 41.3087 104.433 41.253L104.331 41.086L104.227 40.9193L104.12 40.7523L104.012 40.5853C103.976 40.5301 103.938 40.4743 103.9 40.4188L103.788 40.2519L103.673 40.0856C103.634 40.0303 103.594 39.9746 103.554 39.9186L103.435 39.7519L103.312 39.5851L103.187 39.4182C103.145 39.3627 103.103 39.3072 103.06 39.2514C103.017 39.1959 102.973 39.1402 102.929 39.0845L102.797 38.9177L102.663 38.7507L102.526 38.584L102.387 38.4173L102.244 38.2505L102.101 38.0836C102.052 38.0281 102.002 37.9723 101.953 37.9166L101.804 37.7498L101.652 37.5831L101.498 37.4168L101.342 37.2499C101.289 37.1946 101.236 37.1389 101.182 37.0831C101.135 37.0343 101.089 36.9858 101.042 36.937L100.949 36.9162C100.654 36.8519 100.308 36.7934 99.928 36.7494C99.1181 36.6555 98.1542 36.628 97.2089 36.7494C96.904 36.7885 96.6012 36.8435 96.3057 36.9162C96.1132 36.9638 95.9236 37.0191 95.7394 37.0831C95.5947 37.1333 95.453 37.1888 95.315 37.2499C95.199 37.3012 95.0859 37.3572 94.9758 37.4168C94.8792 37.4691 94.7853 37.5241 94.694 37.5831C94.6118 37.6358 94.5319 37.6913 94.4543 37.7498C94.3843 37.803 94.3161 37.8588 94.2502 37.9166C94.1888 37.9702 94.1298 38.026 94.0725 38.0836C94.019 38.1374 93.9668 38.1929 93.9167 38.2505C93.8704 38.3042 93.8263 38.3601 93.783 38.4173C93.742 38.4716 93.7022 38.5269 93.6644 38.584C93.6287 38.6381 93.5944 38.6941 93.5616 38.7507C93.5305 38.8053 93.5008 38.8608 93.4724 38.9177C93.4449 38.9723 93.419 39.0278 93.3943 39.0845C93.371 39.139 93.3481 39.1948 93.327 39.2514C93.3069 39.306 93.2872 39.3615 93.2693 39.4182C93.2522 39.4727 93.2364 39.5285 93.2215 39.5851C93.2085 39.6349 93.1961 39.6853 93.1849 39.7366L93.1819 39.7519C93.1698 39.8078 93.1595 39.8633 93.1494 39.9186C93.1396 39.9746 93.1311 40.0303 93.1233 40.0856C93.1155 40.1411 93.108 40.1966 93.1022 40.2519C93.0968 40.3076 93.0926 40.3633 93.0892 40.4188C93.0858 40.4743 93.0839 40.5301 93.0828 40.5853C93.0814 40.6411 93.0807 40.6968 93.0819 40.7523C93.0828 40.808 93.0844 40.8638 93.0876 40.9193C93.0908 40.975 93.0961 41.0305 93.1013 41.086C93.1068 41.1417 93.113 41.1975 93.1208 41.253C93.1283 41.3087 93.1359 41.3642 93.1455 41.4197C93.1554 41.4757 93.1675 41.531 93.1796 41.5867C93.1915 41.6424 93.205 41.6982 93.2192 41.7534C93.2336 41.8092 93.2481 41.8649 93.2648 41.9202C93.2812 41.9759 93.2982 42.0316 93.3167 42.0869C93.3355 42.1426 93.3561 42.1984 93.3769 42.2539C93.398 42.3096 93.4202 42.3653 93.4433 42.4208C93.4667 42.4766 93.49 42.5321 93.5154 42.5876C93.5408 42.6433 93.5674 42.6991 93.5948 42.7546C93.6228 42.8103 93.6518 42.8656 93.6816 42.9213C93.7116 42.977 93.7425 43.0328 93.7745 43.088C93.8066 43.1438 93.8391 43.1995 93.8732 43.2548C93.9077 43.3107 93.9434 43.3662 93.9798 43.4217C94.0165 43.4775 94.0545 43.5332 94.0934 43.5887C94.1321 43.6444 94.1719 43.7002 94.2129 43.7554C94.2538 43.8112 94.2955 43.8669 94.3385 43.9224C94.3818 43.9782 94.4255 44.0337 94.4708 44.0892C94.5164 44.1449 94.564 44.2004 94.6118 44.2561C94.6597 44.3119 94.7089 44.3674 94.7583 44.4226C94.8085 44.4786 94.859 44.5343 94.9112 44.5896C94.9634 44.6453 95.0158 44.7011 95.0701 44.7563C95.1534 44.8417 95.2395 44.9261 95.3271 45.0105C95.4155 45.0956 95.5059 45.18 95.5986 45.2644C95.692 45.3495 95.787 45.4342 95.8847 45.5183C95.9836 45.6037 96.0841 45.6886 96.1871 45.773C96.291 45.8581 96.3972 45.9427 96.505 46.0269C96.614 46.1122 96.725 46.1969 96.8383 46.2815C96.9521 46.3666 97.0679 46.4515 97.1856 46.5357C97.3046 46.6208 97.4257 46.7052 97.5484 46.7896C97.6726 46.8747 97.7985 46.9598 97.9263 47.0442C98.0551 47.1291 98.1854 47.2137 98.3177 47.2981C98.4518 47.3835 98.5875 47.4681 98.7251 47.5525C98.8638 47.6378 99.0044 47.7223 99.1463 47.8067C99.2896 47.8915 99.4342 47.9764 99.5805 48.0606C99.7293 48.1459 99.8799 48.2308 100.032 48.3152C100.184 48.4003 100.338 48.4852 100.494 48.5691C100.652 48.6545 100.81 48.7393 100.971 48.8238C101.133 48.9089 101.296 48.9935 101.461 49.0777C101.627 49.1628 101.794 49.2474 101.962 49.3316C102.133 49.4169 102.306 49.5018 102.479 49.5862C102.653 49.6713 102.828 49.756 103.005 49.8401C103.183 49.9255 103.363 50.0099 103.544 50.0943C103.726 50.1794 103.909 50.264 104.093 50.3482C104.28 50.4336 104.467 50.5184 104.655 50.6028C104.844 50.6879 105.034 50.7726 105.225 50.8568C105.419 50.9421 105.613 51.0267 105.807 51.1111C106.003 51.1965 106.199 51.2814 106.395 51.3651C106.595 51.4506 106.794 51.535 106.993 51.6192L107.599 51.8738C107.803 51.9592 108.007 52.0438 108.21 52.1278L108.483 52.2404C108.9 52.4034 108.885 52.3093 108.793 52.1456" fill="#1F178D"/>
<path fill-rule="evenodd" clip-rule="evenodd" d="M97.7945 64.7131C82.1885 83.9875 70.4339 114 70.4339 114C70.4346 114 67.8487 106.571 67.2224 99.1765C66.4824 90.3974 70.3419 86.2777 74.6534 80.9707C81.7432 72.221 97.7942 64.7134 97.7945 64.7131" fill="url(#paint1_linear_63_12282)"/>
<path fill-rule="evenodd" clip-rule="evenodd" d="M71.6138 14.0171L71.6322 14C71.9348 14.7329 82.3931 39.9039 97.0622 54.5392C97.0613 54.5395 85.6604 52.497 73.6231 41.6703C70.6891 39.0439 67.2055 31.1699 68.1005 26.9409C69.3224 21.1922 71.4447 14.543 71.6138 14.0171" fill="url(#paint2_linear_63_12282)"/>
<path fill-rule="evenodd" clip-rule="evenodd" d="M95.5199 58.8077C97.7329 58.8373 96.7196 59.2878 95.5835 59.4909C59.754 65.9696 19.9153 84.9626 19.9153 84.9626C19.9157 84.9621 23.869 75.4906 43.8532 67.5325C64.5965 59.273 87.0757 58.6891 95.5199 58.8077" fill="url(#paint3_linear_63_12282)"/>
<path fill-rule="evenodd" clip-rule="evenodd" d="M125.78 95.2242C130.816 87.6226 132.364 77.4238 126.929 70.7964C120.957 63.5061 107.885 63.1946 103.617 66.2514C119 65.8603 115.269 83.6762 125.78 95.2242" fill="url(#paint4_linear_63_12282)"/>
<path fill-rule="evenodd" clip-rule="evenodd" d="M131.456 26.9969C131.643 27.1526 131.828 27.3101 132.013 27.4696C134.6 29.9624 136.962 36.2797 135.887 39.1235C133.508 45.4339 122.581 50.1035 113.428 52.3535C111.978 52.7142 111.79 52.2103 112.844 51.4684C122.894 42.9201 129.43 30.6654 129.758 28.687C130.048 26.9308 129.508 26.3519 130.207 26.4414C130.614 26.4919 131.035 26.6884 131.456 26.9969" fill="url(#paint5_linear_63_12282)"/>
<path fill-rule="evenodd" clip-rule="evenodd" d="M113.892 59.1739C111.459 59.4403 111.611 58.5904 114.045 58.0069C123.219 55.8254 147.333 51.789 159.159 57.8187C168.996 62.8141 163.488 71.2272 163.488 71.2272C163.488 71.2272 162.285 67.4035 154.431 63.655C142.747 58.0851 122.18 58.2539 113.892 59.1739" fill="url(#paint6_linear_63_12282)"/>
<path fill-rule="evenodd" clip-rule="evenodd" d="M110.603 28.3206C108.199 28.865 103.582 30.4033 100.718 34.4395C97.409 39.1126 101.658 48.4562 108.639 52.1506C107.416 45.7856 114.91 37.7683 110.603 28.3206" fill="url(#paint7_linear_63_12282)"/>
<defs>
<linearGradient id="paint0_linear_63_12282" x1="14.9353" y1="21.6741" x2="14.9353" y2="102.901" gradientUnits="userSpaceOnUse">
<stop stop-color="#12288B"/>
<stop offset="1" stop-color="#0097E4"/>
</linearGradient>
<linearGradient id="paint1_linear_63_12282" x1="67.1309" y1="64.7131" x2="67.1309" y2="114" gradientUnits="userSpaceOnUse">
<stop stop-color="#F4F900"/>
<stop offset="1" stop-color="#FFC800"/>
</linearGradient>
<linearGradient id="paint2_linear_63_12282" x1="67.9575" y1="14" x2="67.9575" y2="54.5392" gradientUnits="userSpaceOnUse">
<stop stop-color="#FCDA00"/>
<stop offset="1" stop-color="#EBF95B"/>
</linearGradient>
<linearGradient id="paint3_linear_63_12282" x1="58.3736" y1="45.7118" x2="42.4162" y2="92.6174" gradientUnits="userSpaceOnUse">
<stop stop-color="#FAFB19"/>
<stop offset="1" stop-color="#F1D000"/>
</linearGradient>
<linearGradient id="paint4_linear_63_12282" x1="103.617" y1="64.4238" x2="103.617" y2="95.2242" gradientUnits="userSpaceOnUse">
<stop stop-color="#E9F648"/>
<stop offset="1" stop-color="#FACA00"/>
</linearGradient>
<linearGradient id="paint5_linear_63_12282" x1="112.175" y1="26.4326" x2="112.175" y2="52.4728" gradientUnits="userSpaceOnUse">
<stop stop-color="#FFDF00"/>
<stop offset="1" stop-color="#F3FE2D"/>
</linearGradient>
<linearGradient id="paint6_linear_63_12282" x1="112.141" y1="68.7378" x2="165.025" y2="68.7378" gradientUnits="userSpaceOnUse">
<stop stop-color="#F5FF3E"/>
<stop offset="1" stop-color="#EEC700"/>
</linearGradient>
<linearGradient id="paint7_linear_63_12282" x1="99.5747" y1="28.3206" x2="99.5747" y2="52.1506" gradientUnits="userSpaceOnUse">
<stop stop-color="#F7E900"/>
<stop offset="1" stop-color="#F9FD00"/>
</linearGradient>
</defs>
</svg>
