<svg width="404" height="128" viewBox="0 0 404 128" fill="none" xmlns="http://www.w3.org/2000/svg">
<path d="M105.288 95.0939C104.96 95.4985 104.518 95.7003 103.963 95.7003H97.2377V91.9017H103.673C104.169 91.9017 104.617 92.0312 105.017 92.2893C105.417 92.5469 105.65 93.0142 105.717 93.6908C105.759 94.2229 105.616 94.6903 105.288 95.0939ZM97.2377 85.3426H103.584C104.097 85.3426 104.48 85.4599 104.733 85.6941C104.985 85.9278 105.157 86.171 105.25 86.4243C105.325 86.6543 105.355 86.9618 105.338 87.3452C105.322 87.7286 105.123 88.1073 104.745 88.4785C104.367 88.8513 103.963 89.0366 103.534 89.0366H97.2377V85.3426ZM108.165 91.207C107.854 90.9229 107.462 90.6154 106.992 90.2851L107.723 89.6516C108.068 89.3749 108.367 88.9495 108.619 88.3738C108.838 87.8672 108.945 87.2522 108.94 86.5311C108.936 85.8099 108.797 85.1965 108.524 84.6941C108.251 84.1918 107.885 83.7653 107.427 83.4159C106.968 83.0664 106.476 82.8153 105.95 82.6613C105.425 82.5083 104.8 82.4313 104.077 82.4313H94.0078V98.6111H102.978C104.224 98.6111 105.294 98.4884 106.19 98.243C107.086 97.9977 107.817 97.5139 108.385 96.7917C108.953 96.071 109.258 95.1948 109.3 94.1666C109.317 93.4593 109.21 92.8608 108.979 92.3695C108.747 91.8783 108.476 91.4906 108.165 91.207Z" fill="black"/>
<path d="M117.653 92.3003L120.353 85.5681L122.838 92.3003H117.653ZM118.069 82.3573L111.924 98.6177H115.28L116.757 95.1659H123.659L124.933 98.6177H128.441L122.637 82.3573H118.069Z" fill="black"/>
<path d="M142.637 92.6221L135.23 82.3573H131.912V98.6177H135.104V88.0077L142.637 98.5715H146.006V82.3573H142.637V92.6221Z" fill="black"/>
<path d="M163.865 82.4313H159.941L153.316 89.992V82.4313H150.124V98.635H153.316V94.0668L155.979 91.4885L161.089 98.6461H164.963L158.061 89.2443L163.865 82.4313Z" fill="black"/>
<path d="M189.935 92.5151C189.757 93.3032 189.399 93.9532 188.863 94.4641C188.328 94.976 187.734 95.3281 187.082 95.5203C186.43 95.7131 185.788 95.7917 185.157 95.754C184.409 95.7158 183.718 95.5395 183.083 95.2256C182.447 94.9112 181.947 94.489 181.582 93.9585C181.216 93.429 180.971 92.8581 180.847 92.2485C180.722 91.6394 180.655 91.0159 180.647 90.3797C180.639 89.9177 180.67 89.4137 180.741 88.8678C180.812 88.3229 181.009 87.7876 181.333 87.2602C181.656 86.7334 182.036 86.3102 182.472 85.9878C182.908 85.666 183.383 85.4175 183.899 85.2438C184.413 85.0691 184.982 84.9932 185.606 85.0171C186.303 85.0468 186.916 85.1966 187.443 85.4658C187.97 85.7335 188.425 86.0755 188.808 86.4876C189.189 86.9007 189.509 87.4153 189.766 88.0329C190.023 88.6506 190.165 89.4179 190.19 90.334C190.198 91 190.113 91.7275 189.935 92.5151ZM192.339 86.0282C191.828 85.2167 191.232 84.5449 190.552 84.0102C189.87 83.477 189.083 83.0659 188.191 82.7776C187.297 82.4908 186.366 82.3506 185.394 82.3575C184.314 82.3803 183.351 82.5561 182.504 82.8859C181.656 83.2157 180.902 83.64 180.243 84.1583C179.582 84.6777 179.061 85.2279 178.679 85.8115C178.296 86.3952 177.987 87.0675 177.751 87.8285C177.514 88.5895 177.387 89.4971 177.37 90.5496C177.354 91.3452 177.416 92.0929 177.558 92.7933C177.699 93.4949 177.967 94.1778 178.361 94.8448C178.755 95.5118 179.303 96.1581 180.005 96.7874C180.707 97.4167 181.509 97.8804 182.411 98.1793C183.311 98.4783 184.335 98.6249 185.481 98.6175C186.444 98.6175 187.339 98.4996 188.165 98.2643C188.991 98.0301 189.723 97.6929 190.358 97.2532C190.994 96.8145 191.525 96.3244 191.953 95.7821C192.381 95.2405 192.749 94.5177 193.055 93.6117C193.363 92.7068 193.529 91.6856 193.553 90.5496C193.562 89.8077 193.49 89.0706 193.336 88.3399C193.182 87.6092 192.85 86.8391 192.339 86.0282Z" fill="black"/>
<path d="M197.652 98.4746H200.842V91.6234H210.684V88.7939H200.842V85.2603H212.403V82.4313H197.652V98.4746Z" fill="black"/>
<path d="M237.421 90.4869C236.841 90.0982 236.2 89.8019 235.5 89.5969C234.799 89.393 234.069 89.2304 233.306 89.1094L231.354 88.8263C230.932 88.7583 230.449 88.6633 229.906 88.5427C229.363 88.4222 228.969 88.2968 228.725 88.1683C228.48 88.0403 228.296 87.847 228.172 87.59C228.056 87.3866 228.015 87.1391 228.048 86.8471C228.081 86.5571 228.226 86.2804 228.482 86.0207C228.739 85.7594 229.172 85.5608 229.782 85.4243C230.391 85.2889 231.047 85.2284 231.752 85.2433C232.216 85.2587 232.689 85.3017 233.17 85.3744C233.65 85.4456 234.023 85.5476 234.288 85.6798C234.554 85.812 234.755 85.9804 234.891 86.1843C235.028 86.3877 235.158 86.6798 235.283 87.0579H238.702L238.54 86.0144C238.499 85.6214 238.266 85.1753 237.844 84.6771C237.421 84.1769 236.951 83.7658 236.433 83.4403C235.915 83.1153 235.275 82.8678 234.512 82.6979C233.749 82.528 232.867 82.4398 231.865 82.4313C230.919 82.4313 230.099 82.494 229.403 82.6188C228.706 82.7436 228.037 82.9512 227.395 83.2422C226.753 83.5327 226.166 83.9884 225.636 84.6086C225.105 85.2284 224.811 86.0866 224.753 87.1822C224.736 87.598 224.763 87.983 224.834 88.3388C224.904 88.6941 225.041 89.0494 225.244 89.4046C225.447 89.7599 225.749 90.0775 226.145 90.3574C226.544 90.6367 227.053 90.8555 227.675 91.0143C228.296 91.1736 228.982 91.3223 229.732 91.4625C230.482 91.6021 231.264 91.7439 232.076 91.8879C232.888 92.0312 233.505 92.1576 233.928 92.2676C234.35 92.377 234.686 92.5018 234.935 92.6414C235.183 92.7811 235.37 92.9457 235.495 93.1343C235.619 93.3244 235.688 93.5655 235.705 93.8613C235.722 94.2601 235.633 94.6069 235.438 94.8974C235.243 95.1889 234.893 95.404 234.388 95.5437C233.882 95.6833 233.29 95.7646 232.61 95.7874C231.673 95.8257 230.899 95.7688 230.285 95.6175C229.671 95.4667 229.229 95.2357 228.955 94.9255C228.681 94.6164 228.511 94.3095 228.446 94.0073C228.379 93.7062 228.329 93.4109 228.296 93.1231H224.815L225.002 94.1778C225.101 94.8804 225.371 95.5421 225.81 96.1623C226.249 96.7821 226.753 97.2542 227.32 97.5792C227.888 97.9042 228.449 98.1273 229.005 98.2483C229.56 98.3689 230.204 98.4464 230.938 98.4804C231.671 98.5144 232.387 98.5202 233.082 98.4979C233.853 98.4751 234.587 98.4029 235.283 98.2823C235.979 98.1613 236.596 97.9419 237.135 97.6244C237.674 97.3068 238.127 96.8363 238.497 96.2128C238.865 95.5893 239.074 94.8464 239.124 93.985C239.166 93.1157 239.037 92.4131 238.739 91.8756C238.44 91.3393 238.001 90.8762 237.421 90.4869Z" fill="black"/>
<path d="M254.456 88.531H246.4V82.4313H243.256V98.4523H246.4V91.4333H254.456V98.4523H257.639V82.4313H254.456V88.531Z" fill="black"/>
<path d="M265.097 82.3573H261.616V98.3783H265.097V82.3573Z" fill="black"/>
<path d="M283.849 85.3224V82.4313H269.167V85.3452H279.398L269.167 95.6674V98.4406H283.887V95.6626H273.531L283.849 85.3224Z" fill="black"/>
<path d="M299.085 92.4205C299.085 93.0934 298.958 93.6749 298.706 94.1666C298.453 94.6579 298.103 95.0222 297.656 95.2606C297.208 95.4991 296.804 95.6446 296.443 95.6971C296.083 95.7503 295.633 95.7763 295.094 95.7763C294.481 95.7848 293.937 95.7518 293.459 95.6807C292.983 95.6085 292.567 95.4284 292.21 95.1417C291.854 94.8544 291.603 94.5086 291.458 94.1045C291.313 93.6998 291.241 93.139 291.241 92.4205V82.4313H287.971V92.4205C287.971 93.5618 288.097 94.5283 288.35 95.3169C288.603 96.1066 289.073 96.7497 289.761 97.2452C290.449 97.7407 291.244 98.1007 292.148 98.3269C293.051 98.5548 294.145 98.6604 295.43 98.6456C296.83 98.6296 298.003 98.4507 298.948 98.1071C299.893 97.7624 300.616 97.2919 301.117 96.695C301.619 96.0986 301.965 95.4157 302.155 94.6483C302.346 93.8815 302.442 93.0551 302.442 92.1709V82.4313H299.085V92.4205Z" fill="black"/>
<path d="M309.959 82.3573H306.479V98.3783H309.959V82.3573Z" fill="black"/>
<path d="M326.704 90.4869C326.122 90.0982 325.483 89.8019 324.782 89.5969C324.082 89.393 323.351 89.2304 322.589 89.1094L320.636 88.8263C320.214 88.7583 319.731 88.6633 319.189 88.5427C318.645 88.4222 318.252 88.2968 318.006 88.1683C317.763 88.0403 317.578 87.847 317.454 87.59C317.337 87.3866 317.296 87.1391 317.329 86.8471C317.362 86.5571 317.508 86.2804 317.765 86.0207C318.021 85.7594 318.455 85.5608 319.064 85.4243C319.673 85.2889 320.33 85.2284 321.034 85.2433C321.499 85.2587 321.971 85.3017 322.451 85.3744C322.932 85.4456 323.305 85.5476 323.571 85.6798C323.836 85.812 324.037 85.9804 324.173 86.1843C324.31 86.3877 324.44 86.6798 324.566 87.0579H327.984L327.822 86.0144C327.78 85.6214 327.549 85.1753 327.126 84.6771C326.704 84.1769 326.233 83.7658 325.715 83.4403C325.196 83.1153 324.556 82.8678 323.795 82.6979C323.032 82.528 322.149 82.4398 321.146 82.4313C320.202 82.4313 319.381 82.494 318.684 82.6188C317.989 82.7436 317.32 82.9512 316.677 83.2422C316.035 83.5327 315.449 83.9884 314.918 84.6086C314.388 85.2284 314.094 86.0866 314.035 87.1822C314.019 87.598 314.046 87.983 314.116 88.3388C314.187 88.6941 314.324 89.0494 314.526 89.4046C314.729 89.7599 315.03 90.0775 315.428 90.3574C315.825 90.6367 316.335 90.8555 316.957 91.0143C317.578 91.1736 318.264 91.3223 319.014 91.4625C319.764 91.6021 320.545 91.7439 321.358 91.8879C322.17 92.0312 322.787 92.1576 323.209 92.2676C323.633 92.377 323.968 92.5018 324.216 92.6414C324.466 92.7811 324.652 92.9457 324.776 93.1343C324.9 93.3244 324.971 93.5655 324.988 93.8613C325.004 94.2601 324.915 94.6069 324.721 94.8974C324.525 95.1889 324.175 95.404 323.67 95.5437C323.165 95.6833 322.571 95.7646 321.892 95.7874C320.955 95.8257 320.181 95.7688 319.567 95.6175C318.954 95.4667 318.51 95.2357 318.238 94.9255C317.963 94.6164 317.794 94.3095 317.727 94.0073C317.662 93.7062 317.611 93.4109 317.578 93.1231H314.097L314.283 94.1778C314.384 94.8804 314.652 95.5421 315.092 96.1623C315.531 96.7821 316.035 97.2542 316.602 97.5792C317.17 97.9042 317.731 98.1273 318.287 98.2483C318.842 98.3689 319.486 98.4464 320.219 98.4804C320.953 98.5144 321.669 98.5202 322.365 98.4979C323.135 98.4751 323.869 98.4029 324.565 98.2823C325.261 98.1613 325.879 97.9419 326.417 97.6244C326.956 97.3068 327.409 96.8363 327.779 96.2128C328.148 95.5893 328.357 94.8464 328.407 93.985C328.448 93.1157 328.32 92.4131 328.021 91.8756C327.723 91.3393 327.284 90.8762 326.704 90.4869Z" fill="black"/>
<path d="M343.739 88.531H335.684V82.4313H332.539V98.4523H335.684V91.4333H343.739V98.4523H346.922V82.4313H343.739V88.531Z" fill="black"/>
<path d="M356.543 92.2277L359.203 85.5948L361.652 92.2277H356.543ZM356.953 82.4313L350.898 98.4523H354.205L355.66 95.0503H362.46L363.716 98.4523H367.172L361.453 82.4313H356.953Z" fill="black"/>
<path d="M381.898 92.5448L374.6 82.4313H371.331V98.4523H374.476V87.9979L381.898 98.4066H385.217V82.4313H381.898V92.5448Z" fill="black"/>
<path d="M158.048 63.3719C158.048 63.3894 158.041 63.5312 158.023 63.7978C158.006 64.0644 157.95 64.297 157.856 64.4945C157.76 64.6921 157.541 64.7919 157.197 64.7919H155.079V31.955H158.048V63.3719ZM162.53 69.9241C163.157 69.1673 163.57 68.3814 163.769 67.5635C163.966 66.7462 164.067 65.9178 164.067 65.075V25.945H149.088V71.059H158.694C160.623 71.059 161.9 70.6803 162.53 69.9241Z" fill="black"/>
<path d="M262.83 70.3128C263.713 69.4238 264.298 68.4206 264.59 67.3054C264.88 66.1897 265.026 65.0755 265.026 63.9608V25.945H257.381V62.6385C257.381 63.6029 257.16 64.3145 256.719 64.7717C256.277 65.23 255.045 65.4584 253.018 65.4584H242.123V25.945H234.506V65.4584H219.008V25.945H211.422V71.6495H257.381C260.131 71.6495 261.948 71.2034 262.83 70.3128Z" fill="black"/>
<path d="M389.957 26.3892H352.379V32.0561H389.957V26.3892Z" fill="black"/>
<path d="M291.05 44.5845V41.1215H272.129V44.5845H276.775V52.2345H272.129V55.6975H276.775V66.7175C276.775 66.7175 276.604 69.2798 277.432 70.4731C278.333 71.7737 280.557 71.8411 280.557 71.8411H288.96V66.7175H286.081V55.6975H291.05V52.2345H286.081V44.5845H291.05Z" fill="black"/>
<path d="M189.451 60.305H196.287V62.4728H189.451V60.305ZM176.425 50.2579L178.835 46.0646H193.435L191.645 50.2579H176.425ZM183.293 56.843H175.83V53.7199H183.293V56.843ZM183.293 62.4728H175.83V60.305H183.293V62.4728ZM196.286 56.843H189.45V53.7199H196.286V56.843ZM193.936 67.1955V71.3797H200.796C200.796 71.3797 202.612 71.3239 203.348 70.2618C203.617 69.8731 203.756 69.3064 203.828 68.7658H203.883V68.1333C203.911 67.5991 203.883 67.1955 203.883 67.1955V50.2579H199.408L202.675 42.6021H170.368L165.967 50.2579H168.232V71.3786H175.83V65.9358H183.293V70.5576H189.451V65.9358H196.286V67.1955H193.936Z" fill="black"/>
<path d="M290.963 34.9751V30.7909H281.486L283.893 25.945H274.095L269.611 34.9751H290.963Z" fill="black"/>
<path d="M321.687 54.6579L320.1 57.951L317.771 52.7445H308.7L317.268 71.8966H326.34L322.753 63.8792L327.197 54.6579H321.687Z" fill="black"/>
<path d="M302.607 40.4922H316.54V45.9308H302.607V40.4922ZM302.607 30.8216H316.54V36.5045H302.607V30.8216ZM294.076 70.4736C295.115 71.7742 297.681 71.8417 297.681 71.8417H307.371V66.718H302.607V49.9185H325.844V26.8334H293.302V66.718H293.318C293.318 66.718 293.121 69.2804 294.076 70.4736Z" fill="black"/>
<path d="M332.094 49.8883H336.134V71.5338H345.439V46.745H342.983L347.643 37.4939H338.337L332.094 49.8883Z" fill="black"/>
<path d="M346.16 25.2787H336.856L332.693 34.5064H341.998L346.16 25.2787Z" fill="black"/>
<path d="M204.583 36.5215H200.01V31.9799H204.583V27.7957H200.01V25.945H192.412V36.5215H184.55V31.9799H188.801V27.7957H184.55V25.945H176.953V36.5215H172.689V25.945H168.157V36.5215H166.707V39.9846H204.583V36.5215Z" fill="black"/>
<path d="M101.963 65.7575V47.3786H133.567V64.355C133.567 64.7867 133.418 65.1277 133.125 65.3805C132.829 65.6311 132.454 65.7575 131.997 65.7575H101.963ZM93.976 52.5788V71.0208H134.823C136.496 71.0208 137.836 70.7797 138.844 70.2981C139.852 69.8164 140.572 69.1398 140.998 68.2705C141.427 67.3996 141.64 66.5339 141.64 65.672V42.1371L102.117 42.6039L107.866 32.1702H142.837V26.9074H87.0488V32.1702H99.423L87.4482 52.4195L93.976 52.5788Z" fill="black"/>
<path d="M352.379 39.7889V45.4559H374.739V62.9404C374.739 64.1736 374.62 64.9372 374.383 65.2304C374.142 65.523 373.715 65.6695 373.098 65.6695H366.293L366.271 71.3349L379.476 71.2897C381.08 71.2897 382.255 71.0885 383.004 70.6881C383.751 70.2871 384.302 69.6196 384.656 68.6881C385.012 67.7545 385.19 66.4332 385.19 64.7216V45.4559H389.957L389.862 39.7889H352.379Z" fill="black"/>
<path fill-rule="evenodd" clip-rule="evenodd" d="M14 114H34.7791V78.6278L66.1942 57.8479C66.1942 57.8479 72.95 53.9276 72.95 46.6905C72.95 40.1433 66.1942 34.8432 66.1942 34.8432L34.284 14.8066L34.5313 37.0693L53.0839 48.6959L14 74.1745V114Z" fill="#5B2F28"/>
<path fill-rule="evenodd" clip-rule="evenodd" d="M43.3567 55.0472L34.7791 49.3734V37.2345L34.5313 37.0794L34.2844 14.8167L34.7791 15.1274V14H14V53.8255L29.6154 64.0053L43.3567 55.0472Z" fill="#D7AA25"/>
<path fill-rule="evenodd" clip-rule="evenodd" d="M66.1881 70.1499L56.8947 64.0031L43.3514 72.9615L53.0778 79.3019L34.7729 90.7733V112.881L66.1881 93.1537C66.1881 93.1537 72.9438 87.8553 72.9438 81.3077C72.9438 74.0689 66.1881 70.1499 66.1881 70.1499Z" fill="#D7AA25"/>
</svg>
