<svg width="128" height="128" viewBox="0 0 128 128" fill="none" xmlns="http://www.w3.org/2000/svg">
<path fill-rule="evenodd" clip-rule="evenodd" d="M39 106H56.6622V75.9339L83.3651 58.2709C83.3651 58.2709 89.1075 54.9387 89.1075 48.7871C89.1075 43.222 83.3651 38.7169 83.3651 38.7169L56.2414 21.6858L56.4516 40.6091L72.2213 50.4917L39 72.1485V106Z" fill="#5B2F28"/>
<path fill-rule="evenodd" clip-rule="evenodd" d="M63.9532 55.8901L56.6622 51.0674V40.7494L56.4516 40.6175L56.2417 21.6942L56.6622 21.9583V21H39V54.8517L52.2731 63.5045L63.9532 55.8901Z" fill="#D7AA25"/>
<path fill-rule="evenodd" clip-rule="evenodd" d="M83.3601 68.7276L75.4607 63.5028L63.9489 71.1175L72.2163 76.5068L56.6572 86.2576V105.049L83.3601 88.2809C83.3601 88.2809 89.1025 83.7772 89.1025 78.2117C89.1025 72.0588 83.3601 68.7276 83.3601 68.7276Z" fill="#D7AA25"/>
</svg>
