<svg width="128" height="128" viewBox="0 0 128 128" fill="none" xmlns="http://www.w3.org/2000/svg">
<path d="M106.45 36.5V63L101 57.55C97.9 54.5 92.95 54.45 89.8 57.45L85 62.1L69.7 46.4C66.6 43.25 61.55 43.15 58.4 46.25L58.25 46.4L41.3 63.95L37.9 60.55C34.75 57.45 29.7 57.45 26.6 60.6L21.6 65.6L21.5 36.5C21.5 28.2 28.2 21.5 36.5 21.5H91.45C99.7 21.5 106.45 28.2 106.45 36.5ZM96.45 85.65C99.8 88.95 103.15 92.2 106.5 95.5C106.45 101.6 101.5 106.5 95.4 106.5H83.6L47.1 70C52.7 64.35 58.35 58.7 63.95 53C74.75 63.9 85.6 74.75 96.45 85.65ZM106.5 75.15C106.45 77.95 106.55 80.75 106.5 83.55C101.45 78.45 96.3 73.35 91.25 68.3C92.65 66.85 94.05 65.4 95.4 64C99.1 67.7 102.8 71.4 106.5 75.15ZM71.8 106.45L36.5 106.5C28.2 106.5 21.5 99.8 21.5 91.5V77.8C25.05 74.3 28.6 70.8 32.15 67.25C45.3 80.3 58.65 93.45 71.8 106.45Z" fill="#E30016"/>
</svg>
