<svg width="128" height="128" viewBox="0 0 128 128" fill="none" xmlns="http://www.w3.org/2000/svg">
<path d="M37.1783 81.4955C37.0578 81.4955 36.9973 81.376 36.9373 81.256C32.7188 60.097 43.0833 38.9375 61.2213 28.9875C59.4738 27.0695 57.8468 23.9525 59.2328 19.7565C59.2928 19.6365 59.4138 19.5765 59.5943 19.5165C59.7753 19.4565 59.8958 19.5765 60.0163 19.6365C61.3418 21.0155 64.8973 24.192 69.3563 25.451C79.2388 22.634 90.2663 23.473 92.1338 27.489C94.2428 31.9245 86.9518 39.597 77.7923 44.872C76.4063 47.2095 75.1413 50.806 75.3823 55.6615C75.3823 55.8415 75.2618 56.021 75.0808 56.081C74.9603 56.141 74.7793 56.141 74.5988 56.081C73.0923 55.1815 70.3203 53.084 70.0793 48.5285C69.8383 48.5885 69.6573 48.7085 69.4163 48.7685C57.7263 52.904 41.1553 62.7345 37.4793 80.9565C37.5998 81.0165 37.5393 81.556 37.1783 81.496V81.4955Z" fill="#F45D3D"/>
<path d="M42.4324 72.747C42.4924 72.562 42.6109 72.5 42.7899 72.5C42.9684 72.5 42.9684 72.747 42.9684 72.809C42.8494 79.914 46.8984 90.1695 59.5234 92.394C59.5234 92.394 59.9999 92.4555 59.9999 92.7645C59.9999 92.888 59.8809 92.9495 59.7619 93.0735C59.4044 93.3205 57.4989 93.8765 56.9034 94.1235C55.4144 94.7415 53.2704 95.9155 52.6749 97.8925C52.1989 99.3135 52.3774 101.043 53.3299 102.835C54.3404 104.473 55.5398 105.987 56.9034 107.345C57.0224 107.469 57.1414 107.654 57.0224 107.84C56.9034 108.025 56.7244 108.024 56.6054 107.963C48.1494 105.924 34.3929 91.4055 42.4324 72.747Z" fill="#FFC200"/>
</svg>
