<svg width="666" height="128" viewBox="0 0 666 128" fill="none" xmlns="http://www.w3.org/2000/svg">
<path d="M329.659 88.3695C329.497 88.3695 329.4 88.2671 329.333 88.0429C323.629 59.2476 337.645 30.4518 362.174 16.9105C359.811 14.3005 357.61 10.0584 359.485 4.34829C359.566 4.18533 359.729 4.10353 359.974 4.02236C360.218 3.94056 360.381 4.10352 360.544 4.18469C362.337 6.06162 367.145 10.3849 373.175 12.0977C386.539 8.26387 401.452 9.40652 403.978 14.8712C406.83 20.9079 396.97 31.349 384.584 38.5277C382.709 41.709 380.998 46.6036 381.324 53.211C381.323 53.3365 381.283 53.4586 381.21 53.5608C381.137 53.6629 381.035 53.7403 380.917 53.7823C380.754 53.8635 380.509 53.8635 380.265 53.7823C378.227 52.5585 374.479 49.7031 374.153 43.5035C373.827 43.5853 373.582 43.7483 373.256 43.8301C357.447 49.459 335.037 62.8367 330.067 87.6352C330.002 87.9149 330.067 88.3301 329.659 88.3695V88.3695Z" fill="#F45D3D"/>
<path d="M336.997 76.5199C337.078 76.2701 337.24 76.1871 337.483 76.1871C337.726 76.1871 337.726 76.5199 337.726 76.6029C337.563 86.1724 343.069 99.9853 360.23 102.981C360.23 102.981 360.878 103.064 360.878 103.481C360.878 103.647 360.716 103.73 360.554 103.897C360.068 104.229 357.478 104.978 356.669 105.311C354.644 106.143 351.73 107.724 350.921 110.387C350.273 112.301 350.516 114.631 351.811 117.043C353.186 119.252 354.817 121.291 356.669 123.119C356.83 123.285 356.992 123.534 356.83 123.784C356.668 124.033 356.426 124.033 356.263 123.95C344.768 121.204 326.068 101.65 336.997 76.5199V76.5199Z" fill="#FFC200"/>
<path d="M483.482 67.7493C483.563 67.7493 484.214 67.9928 483.97 68.6409C483.557 69.3732 483.095 70.077 482.587 70.7476H501.7C502.107 70.8288 502.839 71.0723 502.839 72.2874V74.8811C499.586 78.6899 495.519 81.7701 491.534 83.7963C493.812 84.5256 498.691 85.7413 505.279 86.7953C505.605 86.8764 505.768 87.1193 505.849 87.281V89.7124C505.849 89.9559 505.686 90.3612 505.035 90.1994C496.658 89.3072 490.07 88.0109 485.353 86.39C480.636 88.0109 474.129 89.3072 465.914 90.1988C465.02 90.3612 465.02 89.5507 464.938 89.5507V87.3622C465.019 87.1187 465.182 86.8758 465.589 86.7141C465.996 86.6329 466.484 86.6329 467.134 86.5517C472.746 85.6601 476.894 84.5255 478.846 83.7151C476.325 82.3377 473.641 80.4732 471.445 78.5282C469.91 78.9453 468.256 79.2432 466.431 79.5242C465.834 84.3058 464.577 88.2601 462.561 91.4826C465.708 94.6813 467.282 98.5201 467.282 103.079C467.288 103.375 467.288 103.666 467.282 103.951C468.753 102.114 469.604 99.6378 469.9 96.5208H475.431C475.431 96.5208 476.244 96.602 476.244 97.493L475.919 99.438H482.1V95.2233H472.176C471.852 95.2233 471.526 94.8999 471.526 94.4947V92.3062C471.526 91.9815 471.769 91.658 472.176 91.658H499.423C499.829 91.658 500.155 91.9009 500.155 92.3062V94.4947C500.155 94.8999 499.829 95.224 499.423 95.224H489.663V99.4386H502.432C502.757 99.4386 503.083 99.6815 503.083 100.087V102.437C503.083 102.762 502.839 103.085 502.432 103.085H489.663V107.867H501.456C501.781 107.867 502.107 108.11 502.107 108.515V110.704C502.107 111.109 501.863 111.352 501.456 111.352H489.663V116.296H505.929C506.336 116.296 506.662 116.54 506.662 116.944V119.133C506.662 119.457 506.417 119.781 506.01 119.781H463.718C463.393 119.781 463.067 119.537 463.067 119.133V116.944C463.067 116.539 463.311 116.215 463.718 116.215H482.099V111.271H470.631C470.224 111.271 469.899 111.027 469.899 110.623V108.434C469.899 108.11 470.224 107.786 470.631 107.786H482.099V103.005H473.966C472.58 105.458 469.957 107.84 466.028 109.393C464.316 112.586 460.861 114.141 455.687 114.036V108.837C459.496 108.918 461.319 106.838 461.153 102.439C461.153 98.6001 459.497 95.081 456.184 91.7224C458.669 87.7231 459.993 82.7648 459.993 76.6869H454.776V121.154C454.694 121.714 454.445 122.434 453.286 122.513V122.593H448.151C446.992 122.513 446.743 121.794 446.661 121.234V73.3276C446.743 72.7676 446.992 72.0476 448.151 71.9677H465.542C465.873 71.9677 466.618 72.288 466.701 73.4076L466.702 75.8602C471.118 74.2518 474.286 71.5481 476.08 67.7493H483.482ZM579.444 101.413C579.85 101.413 580.175 101.653 580.175 102.054V104.215C580.175 104.615 579.85 104.936 579.444 104.936H570.185C569.453 104.855 568.803 105.736 569.372 106.537C572.703 111.1 576.926 116.624 580.257 121.187H570.429L557.513 103.815C556.864 103.094 557.27 101.413 558.813 101.413H579.444ZM406.974 95.4057C408.035 95.4893 408.361 96.4903 408.525 96.9904V113.589C408.688 118.844 405.587 121.346 399.304 121.179H393.102C392.531 121.096 392.286 120.679 392.286 120.262V117.176C392.286 116.675 392.612 116.342 393.102 116.258H396.039C398.569 116.425 399.711 115.507 399.548 113.422V96.9067C399.548 96.3229 399.793 95.4057 401.181 95.4057H406.974ZM540.943 85.562C541.267 85.562 541.593 85.8818 541.674 86.1222V88.2838C541.674 88.684 541.43 89.0043 541.025 89.0043H534.445V98.6912H541.024C541.349 98.6912 541.674 98.931 541.674 99.3319V101.493C541.674 101.813 541.43 102.134 541.025 102.134H534.445V115.903C534.364 116.704 535.176 117.424 535.907 117.424H541.106C541.349 117.504 541.512 117.665 541.593 117.905V120.466C541.512 120.787 541.268 121.027 540.943 121.027H530.14C527.46 121.107 525.023 118.786 525.023 115.983V102.213H519.58C519.175 102.213 518.85 101.974 518.85 101.573V99.4118C518.85 99.0915 519.175 98.7712 519.58 98.7712H525.023V89.0849H519.58C519.256 89.0849 518.931 88.7646 518.931 88.3644V86.2027C518.931 85.8824 519.175 85.5627 519.58 85.5627L540.943 85.562ZM575.228 69.1554C579.534 69.4639 580.214 73.2777 580.255 73.5993L580.257 73.6199V90.9194C580.257 93.7098 577.701 96.0219 574.98 95.942H553.054V114.676C553.054 115.474 553.878 116.191 554.621 116.191H559.154C559.484 116.191 559.814 116.51 559.814 116.909V119.062C559.814 119.46 559.567 119.779 559.155 119.779H548.851C546.13 119.859 543.492 117.547 543.575 114.756V71.8659C543.575 69.2659 546.381 69.1598 546.61 69.1561L575.228 69.1554ZM651.703 80.8341C652.115 80.8341 652.445 81.0795 652.445 81.6521V83.8606C652.445 84.2689 652.115 84.5961 651.703 84.5961H646.02V112.566C645.773 120.499 635.23 119.763 635.23 119.763H624.192C623.698 119.682 623.533 119.108 623.533 119.108V115.919C623.615 115.346 624.027 115.265 624.274 115.265C624.356 115.265 630.04 115.101 631.77 114.856C635.888 114.284 636.547 111.584 636.63 110.113V84.4325H613.484C613.155 84.4325 612.825 84.1053 612.825 83.697V81.4885C612.825 81.1613 613.072 80.8341 613.484 80.8341H651.703ZM606.978 82.0611C608.625 82.2247 608.625 83.8606 608.378 84.3507L605.412 87.9491V118.291C605.248 119.599 603.93 119.681 603.93 119.681H597.424C596.271 119.681 596.023 118.863 595.941 118.373V94.2462H590.999C589.928 94.0832 589.269 92.8562 589.846 91.8747L596.518 83.8606C597.589 82.7154 598.906 82.0611 600.554 82.0611H606.978ZM411.707 106.082L430.72 112.755C431.781 113.172 431.7 114.089 431.617 114.172V118.427C431.617 118.677 431.454 119.344 430.475 119.178L411.707 112.338C411.136 112.088 410.891 111.671 410.809 111.42V106.833C410.972 106.165 411.381 106.082 411.707 106.082V106.082ZM395.24 105.413C395.564 105.333 396.209 105.495 396.209 106.139V110.41C396.128 110.652 395.967 111.055 395.402 111.378L375.456 117.422C374.481 117.571 374.411 116.609 374.407 116.471L374.406 112.666C374.406 112.666 374.325 111.861 375.294 111.458L395.24 105.413ZM406.061 66.8115C406.545 66.8115 406.949 67.1343 406.949 67.6169V70.7607H429.721C430.125 70.7607 430.529 71.0829 430.529 71.5662V74.2262C430.529 74.6289 430.206 75.0316 429.721 75.0316H406.949V78.6581H427.541C428.025 78.6581 428.349 78.9803 428.349 79.4636V82.0424C428.349 82.4457 428.025 82.8491 427.541 82.8491H406.949V86.7172H432.387C432.871 86.7172 433.274 87.1199 432.952 87.4421V90.102C432.952 90.5048 432.628 90.9075 432.144 90.9075H416.237L416.074 90.9887C419.385 94.0507 424.635 96.6295 431.903 98.7249C432.791 99.0471 432.71 99.8532 432.71 99.8532V102.355C432.708 102.428 432.668 103.471 431.499 103.237C429.479 102.835 427.946 102.432 424.635 101.465C423.342 101.062 422.535 100.82 421.97 100.578C421.405 101.787 420.597 103.076 419.385 104.446C419.063 104.769 418.659 104.93 417.851 104.93H412.357C412.306 104.929 411.728 104.899 412.038 104.205C413.652 101.868 414.783 99.611 415.268 97.4356C412.279 95.8234 409.373 93.6474 406.707 91.0686H398.632C396.452 93.2446 393.464 95.179 389.508 97.0322C389.992 99.1277 391.284 101.787 392.818 104.285C393.06 104.689 392.899 105.011 392.415 105.011H387.165C386.277 105.011 385.954 104.769 385.712 104.608C384.339 103.157 383.37 101.545 382.886 99.7727C381.27 100.337 378.687 101.304 375.133 102.513L372.711 103.318C371.903 103.48 371.662 102.835 371.662 102.593V99.7727C371.742 99.4499 371.903 99.0471 372.63 98.8049C379.656 96.3878 384.986 93.8091 388.619 91.0686L388.296 90.9881H372.55C372.146 90.9881 371.742 90.6659 371.742 90.1826V87.5227C371.742 87.1199 372.065 86.7172 372.55 86.7172H397.744V82.8491H377.153C376.749 82.8491 376.345 82.4457 376.345 82.043V79.4642C376.345 78.9803 376.749 78.6587 377.153 78.6587H397.744V75.0316H374.972C374.568 75.0316 374.165 74.7094 374.165 74.2262V71.5662C374.165 71.1635 374.488 70.7607 374.972 70.7607H397.825V67.6175C397.825 67.1342 398.148 66.8121 398.632 66.8121L406.061 66.8115ZM570.86 84.3819H553.054V92.4341H569.293C570.035 92.4341 570.86 91.7167 570.86 90.9993V84.3826V84.3819ZM527.665 69.2353C527.995 69.2353 528.737 69.4745 528.901 70.4311L528.324 73.7791H539.782C540.194 73.7791 540.524 74.0182 540.524 74.4172V76.5695C540.524 76.888 540.195 77.207 539.782 77.207H527.583C527.335 79.2001 526.016 81.2731 523.296 81.7514C523.296 81.8313 517.938 81.7514 517.443 81.9106V78.3234H517.938C518.598 78.3234 519.175 77.8452 519.339 77.207L520.576 69.2353H527.665ZM493.404 74.3135H479.334C478.358 75.124 476.894 76.2592 475.837 76.6644H479.09C480.473 78.0418 482.587 79.5011 485.272 81.0408C488.362 79.3387 491.046 76.7449 493.405 74.3135H493.404ZM570.86 72.6633H553.054V80.7948H570.86V72.6633ZM606.978 67.7493C608.625 67.9129 608.625 69.5482 608.295 70.039L601.953 77.5629C601.048 79.0353 599.235 79.935 597.423 79.8532H590.998C589.927 79.7714 589.269 78.5445 589.845 77.5629L596.517 69.5482C597.588 68.4037 598.906 67.7493 600.553 67.7493H606.978ZM651.703 67.7493C652.115 67.7493 652.445 68.0765 652.445 68.4854V70.6933C652.445 71.0205 652.115 71.3477 651.703 71.3477H617.933C617.521 71.3477 617.192 71.0205 617.274 70.6933V68.4854C617.274 68.0765 617.521 67.7487 617.933 67.7487L651.703 67.7493Z" fill="#4B086A"/>
<path d="M291.744 69.1566C298.977 69.1566 305.46 72.4734 309.838 77.712L303.629 83.0918C300.689 79.1269 296.354 76.4907 291.743 76.4907C283.456 76.4907 276.398 85.0112 276.398 94.4496C276.398 103.889 284.137 111.539 292.425 111.539C296.774 111.539 300.691 109.433 303.432 106.066V99.2912H293.448V92.4553H303.432V92.444H310.253V109.286H310.235L310.253 109.31C305.876 114.842 299.21 118.376 291.743 118.376C278.558 118.376 269.234 107.358 269.234 93.7659C269.234 80.1747 278.558 69.1566 291.743 69.1566H291.744ZM186.7 69.8403C199.131 69.8403 209.209 80.5524 209.209 93.7659C209.209 106.98 199.131 117.693 186.7 117.693C174.268 117.693 164.19 106.98 164.19 93.7659C164.19 80.5524 174.268 69.8403 186.7 69.8403ZM54.991 70.0457V75.7926H37.7146V117.459H31.7222V75.7926H14V70.0457H54.991ZM76.5201 70.0457L95.3725 117.459H87.7955L82.2515 103.709H63.1924L58.2784 117.459H50.3292L69.131 70.0457H76.5207H76.5201ZM108.594 70.0457V117.459H101.759V70.0457H108.595H108.594ZM137.941 70.0457V110.616H162.057V117.459H130.917V70.0457H137.941ZM226.243 70.0457L251.951 106.061V70.0457H259.013V117.459H251.951L226.243 81.4247V117.459H220.001V70.0457H226.243V70.0457ZM186.7 77.3599C178.789 77.3599 172.376 84.7053 172.376 93.7659C172.376 102.827 178.789 110.173 186.7 110.173C194.611 110.173 201.023 102.827 201.023 93.7659C201.023 84.7053 194.611 77.3599 186.7 77.3599ZM72.8506 78.869L65.4284 97.7046H80.2977L72.8506 78.869Z" fill="#4B086A"/>
</svg>
