<svg width="128" height="128" viewBox="0 0 128 128" fill="none" xmlns="http://www.w3.org/2000/svg">
<path d="M74.019 40.8705V49.735C74.019 51.0065 74.553 52.158 75.41 52.9935L81.5965 58.966C82.0065 59.361 82.0065 60.0085 81.5965 60.4035L75.4205 66.369C74.5555 67.2065 74.019 68.3615 74.019 69.6375V78.4995C84.778 78.4995 93.5 70.076 93.5 59.6845C93.5 49.295 84.778 40.871 74.019 40.871V40.8705ZM80.9415 39.46C81.8065 40.2965 83.0025 40.814 84.3255 40.814H93.5C93.5 30.423 84.778 22 74.019 22C63.2605 22 54.54 30.423 54.54 40.814H63.7155C64.9725 40.8193 66.1827 40.3374 67.092 39.4695L73.275 33.495C73.685 33.1 74.355 33.1 74.765 33.495L80.941 39.46H80.9415ZM61.409 61.03L55.223 67.0035C54.8155 67.3985 54.1455 67.3985 53.7355 67.0035L47.56 61.0395C46.6496 60.1658 45.4353 59.6801 44.1735 59.685H35C35 70.0755 43.72 78.5 54.4795 78.5C65.238 78.5 73.9585 70.0755 73.9585 59.685H64.783C63.5266 59.6797 62.3172 60.1619 61.409 61.03ZM54.479 59.6285V50.7655C54.479 49.494 53.948 48.341 53.088 47.506L46.902 41.534C46.8048 41.4411 46.7275 41.3295 46.6746 41.2059C46.6218 41.0822 46.5945 40.9492 46.5945 40.8148C46.5945 40.6803 46.6218 40.5473 46.6746 40.4236C46.7275 40.3 46.8048 40.1884 46.902 40.0955L53.078 34.1305C53.9455 33.2945 54.4795 32.138 54.4795 30.8625V22C43.723 22 35 30.4235 35 40.815C35 51.205 43.723 59.6285 54.4795 59.6285H54.479Z" fill="#4ABDD2"/>
<path d="M66.027 56C67.663 56 69 54.6635 69 53.0275V48.472C69 46.837 67.663 45.5 66.027 45.5H61.473C59.837 45.5 58.5 46.837 58.5 48.472V53.027C58.5 54.6635 59.837 56 61.473 56H66.027Z" fill="#FBCF00"/>
<path d="M53.5 86.5H35V88.638H41.7775V104.968C41.7775 105.538 42.2645 106 42.866 106H45.634C46.233 106 46.72 105.538 46.72 104.967V88.638H53.5V86.5ZM71.615 89.661C71.8655 89.3258 72.0006 88.9184 72 88.5C72 87.3955 71.075 86.5 69.9345 86.5H56.22V88.6385H66.852L54.7985 103.419C54.597 103.689 54.5 104.02 54.5 104.38C54.5 105.285 55.2335 105.997 56.1655 106H71.918V103.861H60.046L71.6145 89.661H71.615ZM87.333 100.717C87.333 102.846 85.3915 104.261 83.533 104.261H79.645C78.946 104.241 78.3875 103.694 78.38 103.02V97.0515H83.47C85.2965 97.0515 87.333 98.296 87.333 100.717ZM79.6375 88.237H83.032C84.928 88.237 86.647 89.4945 86.647 91.4C86.647 93.763 84.768 94.873 82.964 94.873H78.38V89.466C78.3925 88.7985 78.946 88.261 79.6375 88.237ZM88.614 95.7575C90.4495 94.905 91.312 93.107 91.312 91.2105C91.312 89.3195 89.76 86.5 85.249 86.5H75.1435C74.234 86.5 73.5 87.142 73.5 87.9345V104.403C73.5 105.303 74.234 106 75.1435 106H85.9375C90.4475 106 92 102.798 92 100.683C92 98.2745 90.9265 96.619 88.614 95.7575Z" fill="#4ABDD2"/>
</svg>
