<svg width="342" height="128" viewBox="0 0 342 128" fill="none" xmlns="http://www.w3.org/2000/svg">
<path d="M203.958 93.5786V95.6703C203.919 95.6703 203.826 95.6583 203.678 95.6365C203.306 95.5246 202.105 95.4461 200.078 95.4013H197.42V97.259H200.264C201.453 97.259 202.287 97.1989 202.77 97.0802C202.676 97.639 202.629 98.4101 202.629 99.3943V103.399C202.637 104.287 202.684 104.968 202.77 105.446C202.507 105.359 201.789 105.315 200.619 105.312H197.327C197.008 106.729 196.534 107.881 195.905 108.768C198.103 109.73 200.882 110.304 204.238 110.491C203.686 110.96 203.197 111.74 202.77 112.829C199.374 112.127 196.709 111.21 194.774 110.077C193.516 111.046 191.841 111.964 189.751 112.828C189.232 112.173 188.624 111.594 187.944 111.106C189.856 110.889 191.608 110.215 193.201 109.081C192.338 108.462 191.488 107.735 190.649 106.9L192.443 105.993C193.057 106.718 193.706 107.336 194.39 107.851C194.864 107.277 195.229 106.43 195.486 105.312H192.735C191.507 105.312 190.687 105.372 190.275 105.49C190.399 104.975 190.462 104.22 190.462 103.22V99.4508C190.462 98.3408 190.399 97.5489 190.275 97.0802C190.99 97.2363 191.888 97.3139 192.968 97.3139H195.672V95.4013H193.26C191.51 95.4243 190.473 95.4721 190.147 95.5473C189.992 95.5688 189.891 95.5798 189.844 95.5798V93.623C189.884 93.623 189.985 93.6335 190.147 93.6562C190.582 93.7528 191.619 93.8199 193.26 93.8574H200.171C202.338 93.8138 203.526 93.7316 203.737 93.6114C203.853 93.5884 203.927 93.5786 203.958 93.5786V93.5786ZM250.29 91.2528C250.267 91.3853 250.197 91.5337 250.086 91.6981C249.853 92.0426 249.695 92.4803 249.617 93.0139C249.489 93.8264 249.42 94.8437 249.411 96.0647C250.776 96.0647 251.643 96.034 252.013 95.9718V97.7789C251.507 97.7166 250.639 97.686 249.411 97.686V101.794C249.444 101.779 249.548 101.728 249.725 101.641C250.447 101.313 251.094 100.981 251.663 100.643C251.574 101.381 251.607 102.095 251.76 102.791C251.045 102.948 250.262 103.234 249.411 103.65V110.633C249.027 111.846 247.737 112.578 245.546 112.829C245.426 111.905 245.101 111.079 244.571 110.351C245.286 110.555 245.98 110.585 246.654 110.446C247.28 110.297 247.597 110.035 247.605 109.659V104.224C246.015 104.905 244.856 105.445 244.125 105.844C244.125 105.155 243.98 104.407 243.691 103.602C244.968 103.344 246.272 102.944 247.605 102.404V97.7332H246.727C245.499 97.7243 244.647 97.7559 244.174 97.8264V96.019C244.537 96.0791 245.343 96.1107 246.591 96.1126H247.654C247.645 93.7641 247.597 92.0462 247.509 90.9587C249.259 90.928 250.187 91.0255 250.29 91.2528V91.2528ZM108.622 97.9476C108.67 97.9476 108.767 97.9586 108.916 97.9816C109.197 98.0595 110.229 98.1135 112.012 98.1448H117.912C119.109 98.1448 119.954 98.0948 120.446 97.9939C120.579 97.9626 120.657 98.0126 120.68 98.1448C120.555 98.5763 120.492 99.3891 120.492 100.584V110.378C120.54 111.303 120.302 111.888 119.778 112.134C119.293 112.451 118.115 112.682 116.247 112.828C116.138 111.902 115.867 111.086 115.437 110.378C116.548 110.655 117.326 110.715 117.771 110.562C118.225 110.431 118.448 110.049 118.44 109.417V99.7397H112.059C110.308 99.7716 109.257 99.824 108.904 99.9016C108.756 99.9176 108.662 99.9249 108.623 99.9249V97.9476H108.622ZM223.349 91.3856C223.357 91.4169 223.334 91.4828 223.278 91.5844C222.94 92.161 222.77 92.9949 222.77 94.0871V109.532C222.762 111.261 222.826 112.36 222.965 112.828H220.563C220.747 112.253 220.811 111.152 220.756 109.532V94.2861C220.756 92.7336 220.69 91.6856 220.563 91.1396C222.372 91.1396 223.302 91.2224 223.349 91.3856H223.349ZM140.169 92.1248C141.918 92.3563 142.792 92.6293 142.792 92.9437C142.769 93.0492 142.642 93.1728 142.41 93.3157C141.963 93.4273 141.166 94.3104 140.019 95.9653H142.179C143.218 95.9653 144.036 95.9022 144.629 95.7749C144.575 95.9994 144.537 96.28 144.514 96.6171C144.492 96.9397 144.481 97.4078 144.479 98.0236V102.989C144.486 103.976 144.537 104.677 144.629 105.088C144.236 105.028 143.327 104.999 141.902 104.999H137.674V106.964H142.365C145.13 106.927 146.651 106.859 146.928 106.761C147.075 106.747 147.166 106.739 147.205 106.739V108.884C147.175 108.884 147.082 108.873 146.928 108.851C146.512 108.71 145.041 108.611 142.514 108.559H137.674V110.154C137.689 111.525 137.727 112.334 137.789 112.581C137.805 112.707 137.812 112.79 137.812 112.828H135.652C135.652 112.761 135.666 112.66 135.698 112.525C135.797 112.375 135.863 111.6 135.895 110.2V108.559H130.915C128.373 108.604 126.979 108.686 126.732 108.806C126.609 108.829 126.532 108.84 126.502 108.84V106.829C126.525 106.829 126.574 106.833 126.652 106.841C126.728 106.9 128.133 106.941 130.868 106.964H135.895V104.999H131.389C130.195 104.999 129.429 105.059 129.089 105.177C129.213 104.624 129.274 103.714 129.274 102.448V98.2021C129.274 97.3253 129.243 96.5312 129.181 95.82C129.814 95.9172 130.657 95.9656 131.712 95.9656H133.734C133.164 94.9394 132.398 93.9484 131.434 92.9903L133.167 92.2143C133.969 92.8277 134.781 93.7571 135.605 95.0007L133.872 95.9656H138.24C138.933 94.9394 139.577 93.6592 140.17 92.1251L140.169 92.1248ZM180.409 94.8845V97.1603C180.36 97.1603 180.245 97.152 180.063 97.1373C179.609 97.083 178.219 97.0428 175.895 97.0207H168.433C168.369 98.1718 168.302 99.229 168.23 100.194H174.057L177.161 100.007C177.01 100.759 176.899 101.518 176.827 102.282C176.341 107.205 175.935 110.029 175.609 110.753C175.243 111.848 173.69 112.447 170.953 112.549C170.825 111.46 170.451 110.534 169.83 109.772C171.238 110.021 172.138 110.117 172.528 110.063C172.998 110.032 173.328 109.825 173.519 109.445C173.886 108.652 174.26 106.201 174.641 102.095H168.039C167.529 106.53 165.137 110.106 160.862 112.828C160.385 112.23 159.609 111.693 158.534 111.218C163.899 109.499 166.47 104.767 166.248 97.0207H162.988C161.038 97.0428 159.78 97.0934 159.215 97.171C158.96 97.1952 158.797 97.2066 158.725 97.2066V94.9308C158.756 94.9308 158.857 94.9428 159.024 94.9655C159.485 95.0667 160.791 95.1372 162.94 95.1762H175.705C178.053 95.1287 179.509 95.0434 180.074 94.9198C180.266 94.8959 180.377 94.8845 180.409 94.8845H180.409ZM187.233 92.1248C188.958 92.5419 189.798 92.8477 189.751 93.0418C189.751 93.0872 189.711 93.1492 189.634 93.231C189.401 93.47 189.187 93.7978 188.993 94.2156C188.753 94.7075 188.442 95.3857 188.061 96.2512C187.931 96.543 187.799 96.834 187.665 97.1241V108.812C187.696 111.019 187.75 112.276 187.828 112.582C187.844 112.695 187.852 112.761 187.852 112.784H185.532C185.532 112.731 185.544 112.612 185.566 112.426C185.644 112.038 185.695 110.849 185.718 108.858V101.128C185.163 102.244 184.532 103.32 183.831 104.35L182.362 102.762C184.615 100.129 186.239 96.5834 187.233 92.1251V92.1248ZM229.878 90.9532C231.687 90.9682 232.638 91.0614 232.725 91.2335C232.725 91.2733 232.678 91.3629 232.581 91.5034C232.348 91.8622 232.231 92.1524 232.231 92.379C232.199 93.0569 232.167 93.977 232.135 95.1379H235.079C235.948 95.1379 236.846 95.0722 237.771 94.9394C237.442 97.2887 237.244 99.6545 237.179 102.026C238.273 102.026 239.093 101.964 239.641 101.838V103.966C239.069 103.84 238.2 103.779 237.034 103.779H233.306C234.23 107.349 236.39 109.606 239.784 110.549C238.877 111.149 238.157 111.878 237.627 112.735C234.206 110.585 232.195 107.537 231.592 103.593C230.795 107.66 228.703 110.724 225.317 112.782C224.713 112.01 223.929 111.472 222.965 111.168C226.374 110.232 228.563 107.77 229.528 103.779H228.117C226.837 103.779 225.755 103.84 224.87 103.966V101.838C225.755 101.971 226.837 102.034 228.117 102.026H229.782C229.959 100.528 230.071 98.8021 230.119 96.8465H229.336C227.92 96.8465 226.939 96.9085 226.391 97.0339V95.0912C227.163 95.217 228.144 95.2802 229.336 95.2802H230.118C230.159 93.4077 230.078 91.9668 229.878 90.9528V90.9532ZM257.587 90.9584C258.96 90.9666 259.807 91.0495 260.129 91.2053C260.145 91.2215 260.12 91.2758 260.056 91.3697C259.887 91.6356 259.783 91.8671 259.743 92.0613C259.63 92.618 259.577 93.0433 259.586 93.3412H263.403C264.655 93.3507 265.587 93.3178 266.196 93.247V94.9738C265.964 94.9336 265.622 94.9066 265.173 94.8916C264.783 94.8762 264.239 94.8683 263.544 94.8673H259.586V96.5935H262.729C263.179 96.5935 263.527 96.5855 263.777 96.5695C264.058 96.5619 264.311 96.5389 264.535 96.4999C264.471 96.9299 264.44 97.4544 264.44 98.0733V99.6452C265.667 99.6452 266.433 99.6151 266.738 99.5517V101.36C266.402 101.296 265.636 101.266 264.44 101.266V102.791C264.44 103.52 264.471 104.059 264.535 104.412C264.351 104.372 264.106 104.349 263.801 104.342C263.628 104.332 263.456 104.324 263.283 104.318H259.586V106.278H262.428C263.206 106.27 264.054 106.204 264.969 106.078V107.898C264.464 107.836 263.616 107.804 262.428 107.804H259.586V110.351C260.348 110.469 261.454 110.512 262.897 110.48C264.302 110.441 265.498 110.343 266.485 110.188C265.955 110.704 265.551 111.49 265.269 112.546C261.473 112.617 258.78 112.316 257.189 111.642C255.728 111 254.668 110.038 254.011 108.755C253.409 110.015 252.61 111.326 251.615 112.688C251.061 112.218 250.396 111.917 249.616 111.783C251.39 110.257 252.678 108.102 253.482 105.315C254.717 105.667 255.464 105.937 255.721 106.125C255.721 106.164 255.645 106.243 255.493 106.36C255.371 106.446 255.287 106.513 255.238 106.56C255.089 106.727 254.975 106.923 254.902 107.135C254.896 107.15 254.891 107.166 254.889 107.182C255.388 108.497 256.352 109.466 257.78 110.093V104.318H255.48C254.702 104.318 254.115 104.325 253.722 104.342C253.28 104.349 252.919 104.372 252.639 104.412V102.651C253.482 102.745 254.444 102.791 255.527 102.791H257.78V101.267H254.938C253.766 101.273 252.854 101.32 252.205 101.406V99.6452C252.478 99.6848 252.828 99.7096 253.251 99.7161C253.461 99.7249 253.69 99.7326 253.939 99.7397H257.78V98.1187H255.877C255.106 98.1187 254.512 98.1279 254.095 98.1433C253.637 98.1592 253.251 98.1819 252.94 98.2138V96.4999C253.245 96.5389 253.618 96.5619 254.059 96.5695C254.276 96.5781 254.52 96.5855 254.793 96.5935H257.78V94.8673H255.144C253.922 94.8753 252.959 94.9256 252.253 95.0195V93.247C252.565 93.2863 252.947 93.3093 253.398 93.3179C253.621 93.3258 253.869 93.3344 254.144 93.3412H257.78C257.74 91.9561 257.676 91.162 257.587 90.9584V90.9584ZM102.617 100.26C104.134 100.299 104.958 100.453 105.092 100.724C105.092 100.785 105.061 100.884 104.998 101.023C104.779 101.502 104.67 102.075 104.67 102.747V108.898C104.701 111.102 104.756 112.278 104.834 112.424C104.849 112.509 104.858 112.562 104.858 112.586H102.569C102.688 112.038 102.749 110.855 102.758 109.036V102.654C102.734 101.382 102.688 100.584 102.617 100.26V100.26ZM107.191 101.335C107.66 101.459 108.485 101.52 109.666 101.52H113.384C114.706 101.52 115.504 101.475 115.777 101.382C115.676 102.075 115.625 102.843 115.625 103.682V106.932C115.625 108.396 115.676 109.272 115.777 109.556C115.757 109.555 115.737 109.551 115.718 109.545C115.031 109.429 114.237 109.372 113.338 109.372H109.478C108.368 109.372 107.606 109.433 107.191 109.556C107.308 109.07 107.371 108.319 107.379 107.301V103.822C107.379 102.604 107.317 101.775 107.191 101.335V101.335ZM113.772 106.03H109.197V108.008H113.772V106.03H113.772ZM113.772 102.931H109.15V104.816H113.772V102.931H113.772ZM195.672 101.766H192.209V103.858H195.672V101.766ZM200.881 101.811H197.42V103.858H200.881V101.811ZM135.895 101.123H131.099V103.493H135.895V101.123V101.123ZM142.607 101.123H137.674V103.493H142.607V101.123V101.123ZM217.618 96.0396C217.714 96.0469 217.956 96.0696 218.342 96.1095C219.379 96.1963 219.923 96.2493 219.971 96.2739C219.971 96.296 219.956 96.3864 219.923 96.5416C219.76 96.9008 219.484 99.0756 219.09 103.066C218.477 102.944 217.695 102.878 216.737 102.878C217.308 101.289 217.602 99.0091 217.618 96.0396V96.0396ZM262.62 101.267H259.586V102.791H262.62V101.267V101.267ZM235.368 96.8925H232.086C232.078 96.9943 232.07 97.1422 232.062 97.3372C231.95 99.1919 231.825 100.756 231.687 102.026H235.127C235.2 100.934 235.257 99.8197 235.297 98.6834C235.32 97.9648 235.344 97.3685 235.368 96.8925V96.8925ZM106.241 97.5317C106.812 98.2948 107.414 99.2971 108.048 100.537L106.195 101.243C105.779 100.189 105.209 99.1854 104.482 98.2365L106.241 97.5317ZM195.672 98.6236H192.209V100.581H195.672V98.6233V98.6236ZM200.881 98.6236H197.42V100.581H200.881V98.6233V98.6236ZM224.822 95.6528C225.562 96.7524 226.25 98.0697 226.886 99.6056L224.726 100.506C224.411 99.1039 223.84 97.7534 223.012 96.461L224.822 95.6528V95.6528ZM135.895 97.3823H131.099V99.7964H135.895V97.3823ZM142.607 97.3823H137.674V99.7964H142.607V97.3823V97.3823ZM262.668 98.119H259.586V99.74H262.668V98.119ZM105.092 91.0909C106.539 91.4773 107.301 91.7739 107.38 91.9815C107.38 92.0662 107.281 92.1735 107.086 92.3057C106.632 92.621 106.222 93.0145 105.855 93.4841H108.576C110.382 93.4525 111.371 93.3991 111.543 93.3228C111.637 93.3068 111.696 93.2992 111.719 93.2992V95.1835C111.696 95.1835 111.641 95.1768 111.555 95.1609C111.414 95.0759 110.468 95.0188 108.717 94.9873H108.389C108.834 96.0822 109.104 96.802 109.197 97.1501L107.286 97.2995C107.153 96.3757 106.898 95.6034 106.523 94.987H104.905C104.803 95.1259 104.709 95.2495 104.623 95.3575C104.12 96.0588 103.563 96.7199 102.958 97.3348C102.785 97.5203 102.562 97.759 102.289 98.0525L100.33 97.1038C102.527 95.5234 104.115 93.5191 105.092 91.0909V91.0909ZM114.347 90.9532C115.824 91.2844 116.618 91.55 116.727 91.7506C116.727 91.8205 116.654 91.9079 116.505 92.0162C116.059 92.3474 115.656 92.8219 115.296 93.4375H118.874C120.743 93.4077 121.778 93.3531 121.982 93.2771C122.092 93.2614 122.166 93.2525 122.205 93.2525V95.1372C122.182 95.1372 122.119 95.1296 122.017 95.1145C121.791 95.0302 120.727 94.9716 118.827 94.9416H117.971C118.193 95.4428 118.396 95.9519 118.581 96.468C118.705 96.7996 118.803 97.0425 118.874 97.1962L116.868 97.4854C116.603 96.1589 116.348 95.3108 116.106 94.9416H114.581C113.721 96.2524 113.053 97.1612 112.575 97.6712L110.675 97.1038C112.247 95.916 113.47 93.8656 114.347 90.9532V90.9532ZM169.937 90.9532C170.463 92.0499 170.88 93.1237 171.191 94.173L168.862 94.8385C168.599 93.6558 168.198 92.5827 167.656 91.6181L169.937 90.9532V90.9532ZM170.71 24.5461C171.575 24.5461 172.279 25.227 172.315 26.0521L172.316 26.1177V57.5762C172.268 71.401 166.304 73.3369 160.396 73.3746L160.217 73.3749H155.409V69.4172C160.965 69.4172 162.82 66.5532 162.857 57.6872L162.857 57.4167H162.86V50.1867H160.337C159.474 50.1867 158.768 49.5295 158.732 48.6949L158.731 48.6287L158.732 42.3268C158.732 41.4938 159.416 40.7933 160.27 40.758L160.338 40.7568H162.86V26.1177C162.86 25.2862 163.542 24.5829 164.397 24.5474L164.465 24.5461H170.71V24.5461ZM293.507 23.3745C293.935 23.3785 294.28 23.7321 294.28 24.1664C294.28 24.2913 294.239 24.4305 294.165 24.551L294.131 24.6016L286.692 34.7757L286.687 34.7834L286.692 34.7763H294.088C294.518 34.78 294.864 35.1336 294.864 35.5685C294.864 35.7121 294.821 35.8433 294.746 35.9587L294.712 36.0071L285.054 49.2369H288.763C289.616 49.2369 290.313 49.8923 290.348 50.7311L290.349 50.7977L290.349 71.8092C290.349 72.6511 289.675 73.3387 288.829 73.3734L288.762 73.3749H283.401C282.548 73.3749 281.85 72.7088 281.815 71.8751L281.814 71.8092L281.815 52.9545H274.935C274.833 52.9546 274.733 52.9346 274.638 52.8957C274.544 52.8567 274.459 52.7995 274.387 52.7274C274.315 52.6552 274.257 52.5696 274.219 52.4753C274.18 52.3811 274.16 52.2801 274.16 52.1782C274.16 52.0334 274.202 51.8979 274.274 51.7825L274.307 51.7344L284.349 37.997H277.027C276.925 37.9968 276.823 37.9764 276.729 37.9369C276.634 37.8975 276.548 37.8397 276.476 37.767C276.404 37.6943 276.347 37.608 276.308 37.5132C276.269 37.4184 276.249 37.3168 276.25 37.2143C276.25 37.0683 276.29 36.9383 276.361 36.8285L276.393 36.7828L285.019 24.9786C285.703 24.0539 286.797 23.423 288.039 23.377L288.153 23.3742H293.507V23.3745ZM328.067 40.171V44.985H321.191V64.8135C321.184 69.4908 317.309 73.2881 312.498 73.3731L312.351 73.3746H300.818V69.8003H305.18C308.691 69.7926 311.542 67.0657 311.599 63.679L311.601 63.5741V44.9847H295.645V40.171H328.067V40.171ZM265.977 54.6245V58.669H257.423L268.522 72.1162C268.627 72.2487 268.691 72.4146 268.691 72.5956C268.691 73.0112 268.358 73.347 267.939 73.3731L267.889 73.3746H260.499C259.222 73.3737 258.084 72.7965 257.348 71.8954L257.282 71.8126L245.02 55.87C244.921 55.7381 244.863 55.5728 244.863 55.3986C244.863 54.9937 245.187 54.6594 245.6 54.6269L245.652 54.6245H265.977V54.6245ZM233.319 40.3381V44.3372H229.67V51.6445H233.319V55.6394H229.67V68.0861C229.675 68.9743 230.4 69.6963 231.306 69.7307L231.374 69.7322H233.165V73.3746H224.645L224.555 73.3734C222.763 73.3283 221.315 71.9398 221.242 70.2033L221.239 70.1162V55.6394H217.59V51.6445H221.239V44.3372H217.59V40.3378H233.319V40.3381ZM232.431 23.3742C232.535 23.374 232.639 23.3944 232.735 23.4341C232.831 23.4739 232.919 23.5322 232.992 23.6058C233.066 23.6794 233.125 23.7669 233.164 23.8631C233.204 23.9594 233.225 24.0626 233.225 24.1667C233.225 24.2765 233.19 24.4029 233.128 24.5158L233.095 24.571L229.084 30.368H235.778V27.7463C235.785 25.9607 237.257 24.4943 239.092 24.4468L239.182 24.4455H254.827C262.477 24.4455 267.91 27.8954 267.91 37.3367C267.91 46.6842 262.585 50.1582 255.056 50.2269L254.827 50.2278L244.129 50.2272V68.0861C244.135 68.9731 244.856 69.6938 245.761 69.7307L245.829 69.7322H253.143V73.3746H239.184L239.093 73.3734C237.287 73.3274 235.83 71.9159 235.779 70.1597L235.778 70.0717V34.3856H226.317L224.891 36.439C224.197 37.4266 223.039 38.086 221.721 38.1243L221.608 38.1261H215.576C215.138 38.1243 214.785 37.7909 214.785 37.3542C214.785 37.2128 214.821 37.083 214.887 36.9754L214.917 36.9309L223.119 25.081C223.476 24.5729 223.946 24.1545 224.493 23.8587C225.039 23.563 225.647 23.3978 226.268 23.3764L226.38 23.3742H232.431V23.3742ZM204.586 24.5458C205.449 24.5458 206.154 25.2267 206.189 26.0518L206.191 26.1174L206.19 71.7981C206.19 72.6364 205.684 73.3176 204.84 73.3547L204.768 73.3562H198.432C197.567 73.3562 196.863 72.6947 196.827 71.8641L196.826 71.7981V50.1864H194.118C193.254 50.1864 192.55 49.5292 192.515 48.6946L192.513 48.6284V42.3265C192.513 41.4935 193.196 40.793 194.051 40.7577L194.118 40.7565H196.826V26.1174C196.826 25.2859 197.508 24.5826 198.364 24.5471L198.432 24.5458H204.586V24.5458ZM137.167 48.3747C143.794 48.3999 149.159 53.7286 149.159 60.2927C149.159 66.8031 143.878 72.0963 137.323 72.2015L137.124 72.203L137.122 72.2024H106.616C104.258 72.2024 102.338 70.4094 102.284 68.1824L102.283 68.0895V52.4953C102.283 50.2551 104.171 48.4263 106.516 48.3756L106.614 48.3747H137.167V48.3747ZM187.576 26.3373C188.441 26.3373 189.145 26.9881 189.18 27.8408L189.182 27.9086L189.181 70.0251C189.181 70.863 188.5 71.5494 187.644 71.5838L187.576 71.5853H181.422C180.559 71.5853 179.854 70.9207 179.819 70.0907L179.817 70.0251V50.1867H177.11C176.247 50.1867 175.541 49.5295 175.506 48.6949L175.504 48.6287L175.505 42.3268C175.505 41.4938 176.188 40.7933 177.043 40.758L177.111 40.7568H179.817V27.9089C179.817 27.0455 180.501 26.3726 181.355 26.3385L181.422 26.3373H187.576V26.3373ZM130.305 52.4962H116.086C114.658 52.4968 113.495 53.5764 113.449 54.9214L113.448 54.998V65.5775C113.448 66.9387 114.587 68.045 116.008 68.0849L116.087 68.0858V68.0867H130.286C134.632 68.0858 138.156 64.5955 138.156 60.2927C138.156 55.9967 134.642 52.5067 130.305 52.4962V52.4962ZM245.83 28.0953C244.914 28.0963 244.167 28.8106 244.13 29.6982L244.129 29.7653V46.579L253.002 46.5765C257.296 46.5765 260.017 42.0106 260.017 37.3367C260.017 32.7094 257.35 28.1886 253.131 28.0987L253.003 28.0972L245.83 28.0953V28.0953ZM124.037 22.202C124.246 22.2041 124.445 22.2885 124.592 22.4369C124.739 22.5852 124.821 22.7856 124.821 22.9942C124.821 23.1476 124.778 23.2659 124.703 23.3807L124.669 23.4297L111.912 40.2256H136.412L127.932 28.9992C127.84 28.8906 127.784 28.74 127.784 28.5661C127.784 28.1459 128.108 27.8141 128.52 27.788L128.572 27.7865H137.955C138.546 27.786 139.13 27.9166 139.664 28.1689C140.198 28.4212 140.67 28.7889 141.045 29.2455L141.112 29.3292L150.884 42.2498C151.028 42.4449 151.112 42.6749 151.112 42.9227C151.112 43.5521 150.616 44.0456 149.993 44.0759L149.932 44.0775H98.3854C97.7321 44.0775 97.2046 43.5723 97.2046 42.9227C97.2046 42.6958 97.2782 42.482 97.404 42.297L97.4478 42.236L111.491 23.7576C112.195 22.8559 113.293 22.2428 114.519 22.2041L114.634 22.202H124.037V22.202ZM253.284 32.749C254.22 32.749 254.983 33.4851 255.018 34.411L255.019 34.4773V39.2012C255.019 40.1366 254.277 40.9153 253.349 40.9509L253.283 40.9524H248.551C247.616 40.9524 246.852 40.1955 246.818 39.2677L246.816 39.2012V34.4779C246.816 33.5437 247.558 32.7858 248.485 32.7511L248.551 32.7496H253.284V32.749ZM326.895 26.4989V31.5771H295.645V26.4989H326.896H326.895Z" fill="#231916"/>
<path d="M60.3776 36.4404V46.981C60.3776 48.4931 61.0119 49.8625 62.0307 50.8562L69.3837 57.9583C69.4992 58.0687 69.5911 58.2014 69.6539 58.3483C69.7167 58.4952 69.749 58.6533 69.749 58.8131C69.749 58.9729 69.7167 59.131 69.6539 59.2779C69.5911 59.4248 69.4992 59.5575 69.3837 59.6679L62.043 66.762C61.0149 67.7579 60.3776 69.1313 60.3776 70.6486V81.1876C73.1654 81.1876 83.532 71.1706 83.532 58.8134C83.532 46.4581 73.1654 36.4404 60.3776 36.4404V36.4404ZM68.6053 34.7628C69.6334 35.7577 71.0553 36.3733 72.6274 36.3733H83.532C83.532 24.0161 73.1654 14 60.3776 14C47.5898 14 37.225 24.0161 37.225 36.3733H48.1308C49.6972 36.3733 51.116 35.7623 52.1441 34.7744L59.494 27.6696C59.9807 27.1994 60.7775 27.1994 61.2643 27.6696L68.6053 34.7631V34.7628ZM45.3895 60.4132L38.0365 67.5171C37.5526 67.9873 36.756 67.9873 36.269 67.5171L28.9283 60.4251C27.8971 59.4305 26.4753 58.8146 24.9031 58.8146H14C14 71.1709 24.3648 81.1888 37.1526 81.1888C49.9407 81.1888 60.3055 71.1709 60.3055 58.8146H49.3994C47.8333 58.8146 46.4176 59.4253 45.3895 60.4135V60.4132ZM37.1526 58.7471V48.2075C37.1526 46.6948 36.5214 45.3245 35.4995 44.3314L28.1465 37.2293C28.0311 37.1187 27.9392 36.986 27.8765 36.839C27.8137 36.692 27.7814 36.5339 27.7814 36.374C27.7814 36.2142 27.8137 36.0561 27.8765 35.9091C27.9392 35.7621 28.0311 35.6293 28.1465 35.5188L35.4875 28.4253C36.5183 27.431 37.1529 26.0557 37.1529 24.5387V14C24.3676 14 14 24.017 14 36.3742C14 48.7301 24.3679 58.7471 37.1526 58.7471V58.7471Z" fill="#4ABDD2"/>
<path d="M50.6952 54.6269C52.6428 54.6269 54.2346 53.0357 54.2346 51.0881V45.6646C54.2346 43.7186 52.6428 42.1265 50.6952 42.1265H45.2733C43.3257 42.1265 41.7339 43.7183 41.7339 45.6646V51.0881C41.7339 53.0357 43.3257 54.6269 45.2733 54.6269H50.6952V54.6269Z" fill="#FBCF00"/>
<path d="M35.8752 90.9526H14V93.4799H22.0139V112.78C22.0139 113.454 22.5899 114 23.3009 114H26.5743C27.2825 114 27.8585 113.454 27.8585 112.78V93.4799H35.8752V90.9526V90.9526ZM57.2946 94.6889C57.5911 94.2929 57.7512 93.8114 57.7507 93.3167C57.7507 92.011 56.6566 90.9526 55.3068 90.9526H39.0821V93.4799H51.6601L37.4001 110.949C37.1618 111.268 37.0474 111.659 37.0474 112.084C37.0474 113.154 37.9148 113.996 39.0177 114H57.6534V111.472H43.6082L57.2949 94.6889H57.2946ZM76.0607 107.756C76.0607 110.273 73.765 111.944 71.5671 111.944H66.9696C66.1434 111.921 65.4827 111.275 65.4738 110.477V103.424H71.4929C73.6521 103.424 76.0607 104.895 76.0607 107.756V107.756ZM66.9607 93.0057H70.9746C73.2169 93.0057 75.2488 94.492 75.2488 96.7444C75.2488 99.537 73.0274 100.849 70.8945 100.849H65.4738V94.4583C65.4889 93.6691 66.1434 93.0339 66.961 93.0057H66.9607ZM77.5755 101.894C79.7458 100.887 80.7656 98.7613 80.7656 96.5202C80.7656 94.285 78.9305 90.9526 73.596 90.9526H61.6467C60.5717 90.9526 59.7038 91.7114 59.7038 92.6478V112.112C59.7038 113.176 60.5717 114 61.6467 114H74.4106C79.7433 114 81.5789 110.215 81.5789 107.715C81.5789 104.869 80.3092 102.912 77.5755 101.894Z" fill="#4ABDD2"/>
</svg>
