<svg width="706" height="128" viewBox="0 0 706 128" fill="none" xmlns="http://www.w3.org/2000/svg">
<path d="M190.811 99.5153H194.997V108.485C194.797 112.073 192.007 113.867 186.691 114C181.242 113.867 178.452 112.073 178.319 108.485V99.5153H182.505V107.356C182.239 110.545 183.634 112.073 186.757 111.941C189.747 112.073 191.143 110.545 190.943 107.356L190.811 99.5153V99.5153ZM204.1 101.907V105.695H207.555C209.415 105.695 210.412 105.03 210.478 103.701C210.412 102.505 209.415 101.907 207.555 101.907H204.1ZM204.1 108.02V113.801H199.98V99.5153H208.086C212.472 99.6482 214.664 100.844 214.731 103.236C214.664 105.097 213.335 106.293 210.811 106.758V106.824C212.671 106.957 213.801 108.02 214.266 110.014C214.266 110.147 214.332 110.346 214.399 110.479C214.531 112.273 214.864 113.402 215.462 113.867H211.01C210.611 112.605 210.345 111.343 210.279 110.014C210.08 108.751 209.482 108.153 208.485 108.153H204.033L204.1 108.02V108.02ZM231.874 99.5153H236.06V108.485C235.86 112.073 233.07 113.867 227.754 114C222.306 113.867 219.515 112.073 219.382 108.485V99.4488H223.568V107.289C223.302 110.479 224.698 112.007 227.82 111.874C230.811 112.007 232.206 110.479 232.007 107.289L231.874 99.5153V99.5153ZM258.784 101.509L253.402 113.801H249.947L244.83 101.509L244.698 101.575V113.801H240.844V99.5153H247.621L251.674 109.947H251.807L256.193 99.5153H262.638V113.801H258.784V101.509ZM276.126 111.874C279.316 111.874 280.91 110.147 280.91 106.691C280.91 103.17 279.316 101.376 276.126 101.376C272.804 101.376 271.209 103.103 271.276 106.691C271.276 110.147 272.87 111.874 276.126 111.874ZM286.226 111.542V113.801H278.186C277.854 113.801 277.588 113.801 277.256 113.867H276.658C276.525 113.934 276.392 113.934 276.259 113.934C270.213 113.801 267.222 111.409 267.09 106.625C267.222 101.774 270.279 99.2495 276.259 99.0502C282.173 99.1831 285.163 101.708 285.428 106.625C285.229 108.618 284.232 110.412 282.638 111.675C283.036 111.675 283.369 111.675 283.767 111.608C284.166 111.608 284.631 111.608 285.03 111.542H286.226ZM289.548 113.801V99.5153H293.734V113.801H289.548ZM319.515 104.1H315.129C314.997 102.372 313.734 101.509 311.409 101.376C309.149 101.509 307.887 103.236 307.754 106.691C307.887 110.08 309.083 111.874 311.409 111.874C313.734 111.874 314.997 110.944 315.129 109.15H319.515C319.249 112.339 316.525 113.934 311.409 113.934C306.226 113.801 303.568 111.409 303.435 106.625C303.568 101.774 306.226 99.2495 311.409 99.0502C316.591 99.2495 319.249 100.911 319.515 104.1ZM323.302 113.801V99.5153H327.488V113.801H323.302ZM330.744 101.907V99.5153H346.226V101.907H340.512V113.801H336.392V101.907H330.744V101.907ZM354.864 113.801V109.15L348.352 99.5153H353.203L357.123 106.093L361.176 99.5153H365.296L358.917 109.216V113.867L354.864 113.801ZM389.947 104.166H385.561C385.429 102.439 384.166 101.575 381.84 101.442C379.581 101.575 378.319 103.303 378.186 106.758C378.319 110.147 379.515 111.941 381.84 111.941C384.166 111.941 385.429 111.01 385.561 109.216H389.947C389.681 112.406 386.957 114 381.84 114C376.658 113.867 374 111.475 373.867 106.691C374 101.841 376.658 99.3159 381.84 99.1166C386.957 99.2495 389.615 100.911 389.947 104.166ZM402.306 113.934C396.259 113.801 393.203 111.409 393.136 106.625C393.269 101.774 396.326 99.2495 402.306 99.0502C408.219 99.1831 411.143 101.708 411.409 106.625C411.276 111.409 408.219 113.867 402.306 113.934ZM402.306 101.442C398.983 101.442 397.389 103.17 397.455 106.758C397.389 110.279 398.983 112.007 402.306 111.941C405.495 111.941 407.09 110.213 407.09 106.758C407.09 103.17 405.495 101.442 402.306 101.442ZM433.335 101.509L427.953 113.801H424.631L419.515 101.509L419.382 101.575V113.801H415.528V99.5153H422.306L426.359 109.947H426.492L430.877 99.5153H437.256V113.801H433.402V101.575L433.335 101.509V101.509ZM459.781 101.509L454.399 113.801H450.943L445.894 101.509L445.761 101.575V113.801H441.907V99.5153H448.684L452.737 109.947H452.87L457.256 99.5153H463.701V113.801H459.847L459.781 101.509ZM468.419 113.801V99.5153H481.242V101.907H472.605V105.23H480.711V107.622H472.538V111.409H481.508V113.801H468.419V113.801ZM490.08 101.907V105.695H493.535C495.395 105.695 496.392 105.03 496.458 103.701C496.392 102.505 495.395 101.907 493.535 101.907H490.08ZM490.08 108.087V113.867H485.96V99.5817H494.066C498.452 99.7146 500.644 100.911 500.711 103.303C500.644 105.163 499.316 106.359 496.791 106.824V106.891C498.651 107.024 499.781 108.087 500.246 110.08C500.246 110.213 500.312 110.412 500.379 110.545C500.512 112.339 500.844 113.469 501.442 113.934H497.056C496.658 112.671 496.392 111.409 496.326 110.08C496.126 108.818 495.528 108.22 494.531 108.22L490.08 108.087V108.087ZM520.445 104.166H516.06C515.927 102.439 514.664 101.575 512.339 101.442C510.08 101.575 508.817 103.303 508.684 106.758C508.817 110.147 510.013 111.941 512.339 111.941C514.664 111.941 515.927 111.01 516.06 109.216H520.445C520.179 112.406 517.455 114 512.339 114C507.156 113.867 504.498 111.475 504.365 106.691C504.498 101.841 507.156 99.3159 512.339 99.1166C517.455 99.2495 520.113 100.911 520.445 104.166ZM524.166 113.801V99.5153H528.352V113.801H524.166ZM535.528 113.801H531.608L538.585 99.5153H543.435L550.213 113.801H546.093L544.631 110.745H537.056L535.528 113.801V113.801ZM538.053 108.419H543.568L540.977 102.306H540.844L538.053 108.419V108.419ZM565.96 113.801H553.668V99.5153H557.721V111.409H566.026L565.96 113.801ZM579.714 111.409H582.904C585.163 111.542 586.292 110.877 586.226 109.549C586.292 108.22 585.163 107.555 582.904 107.622H579.714V111.409V111.409ZM579.714 105.23H582.904C584.631 105.23 585.561 104.698 585.628 103.568C585.561 102.439 584.631 101.841 582.904 101.841H579.714V105.23ZM582.837 113.801H575.661V99.5153H582.837C587.289 99.5153 589.615 100.778 589.814 103.236C589.747 104.764 588.618 105.761 586.359 106.359V106.426C589.083 107.024 590.478 108.22 590.611 110.147C590.345 112.472 587.688 113.668 582.837 113.801V113.801ZM597.056 113.801H593.136L600.113 99.5153H604.963L611.741 113.801H607.621L606.159 110.745H598.585L597.056 113.801ZM599.581 108.419H605.096L602.505 102.306H602.372L599.581 108.419V108.419ZM632.405 113.801H626.492L619.05 101.907L618.917 101.974V113.801H615.063V99.5153H621.176L628.419 110.811L628.551 110.745V99.5153H632.405V113.801V113.801ZM641.309 99.5153V105.761L647.754 99.5153H652.538L645.495 105.96L653.203 113.867H648.086L641.309 106.558V113.867H637.123V99.5153H641.309V99.5153Z" fill="#1B1918"/>
<path d="M57.5887 19.5803C66.9575 17.2547 76.8578 18.4507 85.4293 22.9025C78.4684 21.3068 71.2292 21.375 64.2997 23.1019C42.8379 28.2846 29.9475 48.4175 35.5289 68.0188C36.5921 71.6069 38.2532 74.9291 40.4459 77.9192C36.1269 73.7331 33.004 68.5504 31.4093 62.7697C25.8279 43.8328 37.5887 24.4308 57.5887 19.5803V19.5803ZM80.9774 88.351C77.3894 90.4773 73.4691 92.0055 69.416 92.9358C48.22 97.7198 26.2266 85.4275 20.4459 65.4274C14.9974 47.3544 24.8977 28.8826 42.5721 22.1716C29.7482 30.4773 23.3695 46.3577 27.8877 62.1052C33.8014 82.1717 55.2631 94.7298 75.5954 89.9457C77.3894 89.5471 79.2499 89.0155 80.9774 88.351V88.351ZM14.9309 54.5305C18.3196 107.421 89.0173 110.212 98.0538 67.5537C103.768 41.4407 71.8744 18.7829 44.8313 39.4474C61.0439 17.7862 96.5256 20.9092 108.353 45.1617C109.416 47.2879 110.28 49.5471 111.011 51.8062C112.007 55.5271 112.605 59.3145 112.738 63.1019V63.6999C112.738 65.0288 112.605 66.3577 112.406 67.6866C110.878 84.3643 99.3163 99.2481 82.1734 105.693C81.7748 105.826 81.4426 105.959 81.1103 106.158H80.9774C80.6452 106.358 80.313 106.491 79.9143 106.623H79.7814C46.0937 117.52 7.48906 91.6069 14.9309 54.5305Z" fill="#005DA9"/>
<path d="M66.2261 38.1189C79.9139 38.1189 91.2095 48.6837 91.2095 61.6405C91.2095 74.5973 79.9803 85.0292 66.2261 85.0292C52.3391 85.0292 41.1099 74.5973 41.1099 61.6405C41.1099 48.6837 52.4055 38.1189 66.2261 38.1189V38.1189ZM66.2261 72.2053L78.3856 61.6405L66.2261 50.8099L54.0667 61.574L66.2261 72.2053Z" fill="#F8A600"/>
<path d="M571.809 29.5482C571.277 29.4817 568.686 29.7475 567.822 29.5482C567.29 33.6013 562.241 38.5847 556.925 34.8638C561.443 34.5316 564.699 33.1362 566.56 30.7442L566.161 30.0133C559.716 32.6046 563.968 17.0565 567.955 26.1595C570.015 26.2259 569.682 26.093 573.005 26.093V26.1595C574.334 26.093 576.061 26.2259 577.39 26.0266C577.058 25.2957 576.659 24.4983 576.327 23.701C576.659 22.9036 577.124 22.1063 577.722 21.4418H577.988C580.38 24.1661 578.918 30.7442 571.809 29.5482V29.5482ZM565.297 25.495C564.633 24.4983 562.307 26.8239 565.364 26.4917C565.364 26.2259 565.297 25.8937 565.297 25.495ZM527.822 26.6246H529.084C532.074 16.4585 541.576 32.0731 526.094 30.0133V29.5482C523.503 29.1495 523.569 30.6777 520.712 28.5515C520.712 28.485 520.646 28.485 520.646 28.4186C519.583 30.3455 512.141 29.6146 510.148 29.7475V29.8139C508.885 29.9468 504.898 29.5482 503.636 30.0133C517.523 32.206 486.493 45.3621 498.387 26.3588H498.653C493.47 32.6046 498.852 37.1894 505.962 32.9369C499.849 33.8007 503.038 25.1628 509.284 26.6246V26.5581H519.583C519.649 26.4917 519.716 26.4917 519.782 26.4252C518.187 26.0266 514.932 21.8405 513.071 24.897C514.732 18.9834 520.712 24.299 524.433 26.4917C525.563 26.4252 526.626 26.3588 527.756 26.4252L527.822 26.6246ZM473.204 30.0133C470.613 29.4153 468.819 31.4751 467.158 28.6844C461.975 29.2824 461.31 26.3588 466.759 21.7076C466.892 20.7774 467.091 20.3123 468.287 18.9169H468.619C466.626 28.0864 473.603 29.1495 477.39 24.6977C477.656 25.0299 477.191 25.2292 478.32 26.691H480.114C480.579 26.093 480.978 25.495 481.244 24.7641C481.443 25.0963 480.978 25.2292 482.041 26.6246H484.367C485.364 25.6944 481.775 25.6943 484.633 21.3754H484.832C486.36 23.2359 485.43 34.1329 480.181 28.6844C479.915 29.1495 479.649 29.5482 479.317 29.9468C478.852 29.4817 477.722 31.4751 476.393 28.3521C476.194 28.8837 475.463 30.2791 473.204 30.0133V30.0133ZM448.154 26.6246V26.2924H450.48L452.739 22.505C452.274 21.9734 452.805 21.5747 453.669 20.1794C464.898 23.9003 459.184 31.4086 448.885 29.5482V29.9468C446.294 29.3488 444.5 31.4086 442.839 28.6179C437.656 29.2159 436.991 26.2924 442.44 21.6412C442.573 20.711 442.772 20.2458 443.968 18.8505H444.3C444.766 23.5017 442.307 27.5548 448.154 26.6246V26.6246ZM415.663 29.6146V30.0133C413.337 29.5482 411.078 31.2757 409.417 28.5515C408.952 29.7475 407.158 30.2791 405.364 30.0133V29.5482C403.37 29.3488 403.437 30.2126 400.912 29.0166C400.845 29.083 400.845 29.1495 400.38 29.5482C395.729 29.0166 379.915 32.9369 387.158 22.0399C387.224 22.7043 386.427 23.5681 386.493 25.1628C407.689 30.6113 394.932 20.7109 401.31 14.0664V26.0266C401.377 26.093 401.31 26.0266 401.51 26.093C401.51 26.0266 401.51 26.0266 401.443 26.0266C403.171 26.6246 404.168 26.2259 407.556 26.2924V26.6246C409.483 26.691 409.084 27.0897 410.48 24.2326C410.679 25.7608 412.805 27.1561 415.065 26.5581V26.2924C423.702 28.0864 419.251 20.8439 420.314 16.99L422.041 14C421.51 18.9834 424.766 31.608 415.663 29.5482V29.6146V29.6146ZM360.247 29.5482C360.048 29.4817 358.453 29.7475 357.457 29.5482C356.792 33.4684 351.742 37.9203 346.626 34.3987C351.144 34.0664 354.4 32.6711 356.261 30.3455L355.862 29.6146C349.018 32.206 354.068 16.392 357.722 26.1595C359.782 26.2259 359.45 26.093 362.839 26.093V26.4917C363.769 26.2924 363.902 27.289 365.231 24.4983C365.496 24.8306 365.031 25.0299 366.161 26.4917H367.955C368.42 25.8937 368.819 25.2292 369.084 24.5648C369.284 24.897 368.819 25.0299 369.882 26.4252H372.141C372.207 25.4286 372.274 26.7575 371.144 23.4352C371.476 22.9036 370.812 23.6345 372.407 21.1761H372.606C374.134 23.0365 373.204 33.9335 367.955 28.485C367.689 28.9502 367.423 29.3488 367.091 29.7475C366.56 29.2824 365.496 31.2757 364.168 28.0864C363.968 29.083 362.241 30.0797 360.181 29.7475L360.247 29.5482ZM354.998 26.2259C354.998 25.9601 354.932 25.5615 354.932 25.1628C354.267 24.2326 352.008 26.5581 354.998 26.2259ZM316.261 26.2259C317.922 26.093 318.121 26.5581 320.579 25.8937C320.513 25.1628 320.513 26.2259 319.583 23.103C319.915 22.5714 319.45 23.103 321.244 20.5781C326.958 33.6013 300.845 34.2658 311.543 14.7973C312.141 18.9169 308.952 28.4186 316.261 26.2259ZM300.247 26.2924C302.374 26.1595 300.712 26.5581 304.168 26.0266C304.101 25.2957 304.101 26.3588 303.171 23.2359C303.702 22.3721 304.234 21.5083 304.832 20.7109C306.892 23.6345 305.031 31.2093 298.985 29.6146V29.4817C296.46 28.9502 295.065 31.01 292.872 27.7541C291.809 30.6777 282.972 29.8804 280.513 29.9468V29.8804C278.653 29.4153 279.051 31.0764 276.726 28.3521C276.194 29.681 273.736 30.8106 272.673 28.1528C272.473 29.2159 270.812 31.2093 268.952 28.6844C268.287 29.681 267.423 30.1462 265.696 29.9468V29.8139C264.433 29.9468 261.377 29.5482 260.048 30.0133C273.935 32.206 242.905 45.3621 254.799 26.3588H255.065C249.882 32.6046 255.264 37.1894 262.374 32.9369C255.596 33.5349 260.247 24.8306 266.56 26.6246V26.4917C267.556 26.2259 268.42 27.4219 270.148 24.6977C270.148 25.8937 272.872 28.0199 273.935 24.7641C274.068 25.8272 277.058 28.2193 277.855 24.6977C278.121 25.3621 279.716 27.0233 281.842 26.5581V26.691C285.164 26.5581 289.084 26.9568 292.673 26.4917C292.673 26.2259 292.606 25.8937 292.606 25.495C280.513 25.8272 278.254 22.8372 292.54 18.0531L292.805 18.1196C292.54 18.5847 292.141 19.382 291.543 20.3787C291.543 20.2458 291.476 20.1794 291.41 20.1129C274.732 26.4917 294.932 20.4452 294.267 26.1595H294.4C294.4 26.1595 294.4 26.093 294.334 26.093C294.799 26.3588 295.795 26.4252 297.058 26.4252C297.257 26.2923 297.988 26.1595 300.247 26.2924V26.2924ZM305.629 17.0565L304.035 18.8505L302.174 16.9236L303.702 15.1296L305.629 17.0565ZM320.048 33.5349L318.387 35.3289L316.526 33.4684L318.121 31.6744L320.048 33.5349V33.5349ZM333.536 26.2259V17.3223L335.197 14.7309C334.865 18.3854 336.261 26.9568 333.536 29.9468C333.47 28.2857 333.669 28.8837 333.536 26.2259ZM345.829 24.5648C345.895 25.1628 345.031 27.0233 344.168 28.2857C342.241 30.1462 334.134 31.3422 337.589 24.0997C336.925 26.4917 341.975 26.8904 344.234 25.8272C343.37 24.9634 341.31 21.0432 339.118 23.5681C339.184 20.3123 344.5 18.6512 345.829 24.5648V24.5648ZM396.991 22.3056C397.457 23.5681 392.141 24.1661 389.417 23.9668L389.284 23.8339C389.284 23.7674 389.417 23.6345 389.682 23.3688C391.942 23.2359 391.742 23.4352 394.533 23.1694C395.065 23.4352 385.829 21.1761 396.659 19.7143C396.261 20.0465 396.261 20.1129 393.47 20.7109C393.736 21.5083 394.533 19.7807 396.991 22.3056ZM433.736 29.2159C433.47 33.402 428.221 37.9867 423.038 34.5316C427.357 34.1993 430.48 32.8704 432.606 30.4784L431.211 25.8272C431.211 25.6279 431.875 24.0997 432.407 23.0365C432.872 24.1661 433.47 25.0299 433.736 29.2159V29.2159ZM442.573 24.6977C442.573 24.3654 442.639 24.4319 442.44 22.7708C441.643 22.9701 439.317 25.3621 442.573 24.6977ZM454.998 26.3588C455.862 23.4352 447.756 24.897 454.998 26.4252V26.3588ZM458.387 26.0266C458.121 25.8272 458.918 25.6944 456.859 24.6312C456.593 25.1628 456.393 25.6943 456.261 26.2259H458.387L458.453 26.1595C458.387 26.1595 458.387 26.093 458.387 26.0266V26.0266ZM466.892 24.6977C466.892 24.3654 466.958 24.4319 466.759 22.7708C465.962 22.9701 463.636 25.3621 466.892 24.6977ZM480.181 19.5149L478.852 21.4418L476.593 19.7143L477.988 17.7874L480.181 19.5149ZM481.51 16.392L480.114 18.3854L477.855 16.6578L479.317 14.7309L481.51 16.392ZM484.167 19.2492L482.772 21.2425L480.447 19.5149L481.908 17.588L484.167 19.2492ZM515.795 32.5382L514.134 34.2658L512.274 32.4053L513.869 30.6113L515.795 32.5382ZM517.988 35.6611L516.327 37.3887L514.4 35.5282L515.995 33.7342L517.988 35.6611ZM519.583 32.7375L517.922 34.4651L516.061 32.6047L517.656 30.8106L519.583 32.7375ZM532.805 26.2924C532.805 25.7608 529.948 23.8339 530.28 26.4917C530.347 26.3588 532.274 26.7575 532.805 26.2924ZM544.168 29.9468C540.114 32.1395 539.184 22.3721 544.433 23.5681C549.616 28.0864 542.241 40.1129 534.932 34.6644C539.45 34.3322 542.706 32.9369 544.566 30.5448L544.168 29.9468ZM543.902 26.4917C543.902 26.3588 542.44 23.9668 541.51 26.0266C541.776 26.691 542.706 26.4252 543.902 26.4917ZM544.433 17.6545C544.433 18.186 543.968 19.5149 543.104 21.5083C541.975 21.3754 541.377 13.3355 544.433 17.6545ZM556.593 29.1495C556.327 33.3355 551.078 37.9203 545.895 34.4651C550.214 34.1329 553.403 32.804 555.53 30.4119L554.134 25.7608C554.134 25.5614 554.799 24.0332 555.33 22.9701C555.729 24.0997 556.261 25.0299 556.593 29.1495V29.1495ZM566.56 17.6545C566.56 18.186 566.094 19.5149 565.231 21.5083C564.167 21.309 563.503 13.3355 566.56 17.6545ZM582.041 17.0565C581.709 19.2492 575.795 21.6412 572.606 21.5083C573.47 21.2425 574.334 20.8439 575.131 20.3123C574.732 20.0465 575.197 20.5781 573.403 19.382C572.207 17.2558 583.237 12.804 578.32 17.6545C577.257 17.7209 577.589 16.9236 575.264 17.8538V17.9867C577.058 18.8505 578.719 18.9169 582.041 17.0565V17.0565ZM216.925 85.2292H218.918V85.8937H216.925V85.2292ZM189.616 68.3522L189.483 68.2193C188.885 68.0864 188.354 68.0864 187.756 68.0864C187.29 68.1528 186.825 68.3521 186.493 68.7508C185.895 68.7508 185.231 68.7508 184.633 68.6179C183.968 68.4851 183.503 68.4186 183.038 68.2857C182.573 68.1528 182.573 68.0864 182.44 68.0864V68.0199C181.975 67.8206 181.443 67.6212 180.912 67.4219C180.447 67.289 179.981 67.2226 179.516 67.0897C178.52 67.1561 177.523 67.0232 176.593 66.7575C175.928 66.691 175.33 66.4917 174.732 66.2924H174.599C173.138 65.9601 171.676 65.8937 170.148 66.093C168.952 66.093 166.427 66.6246 164.5 66.093H164.367C163.104 65.8272 161.842 65.7608 160.58 65.9601H160.447C158.52 66.2259 156.659 66.6246 154.799 67.2226C153.669 67.289 153.005 67.6877 151.543 67.2226C151.41 66.9568 151.211 67.0897 151.477 65.6943C151.942 64.9634 152.207 64.1661 152.407 63.3023C152.739 62.3721 152.938 61.4419 153.005 60.4452H152.872C152.739 59.5814 152.872 58.7176 153.204 57.9203C153.47 57.1894 154.068 56.5249 154.799 56.1927C156.061 55.6611 157.39 55.2624 158.719 54.9302C159.45 54.7309 160.048 54.7309 160.513 54.598L160.712 54.6644C160.912 54.598 161.045 54.6644 161.178 54.7973C162.241 54.7309 163.968 54.9967 165.031 54.598C166.094 54.598 167.224 54.6644 168.287 54.7973C169.417 54.9302 170.48 55.196 171.742 55.3953C172.008 55.7276 172.075 56.1262 171.875 56.5249C171.211 57.1894 170.413 57.6545 169.55 57.9867H166.626C166.094 58.2525 165.496 58.4518 164.898 58.4518C164.101 58.6512 161.643 58.4518 160.048 58.9169C159.649 58.9169 159.317 58.9834 158.985 59.1163C158.653 59.2492 158.32 59.3156 158.055 59.4485C157.789 59.5814 157.457 59.6478 157.124 59.7807C156.792 59.7807 156.526 59.9801 156.327 60.2458C155.928 60.7774 155.928 61.4418 156.327 61.9734C156.593 62.2392 156.925 62.4385 157.257 62.5714C158.32 63.1694 159.516 63.5016 160.712 63.5681C161.51 63.701 162.573 63.7674 163.702 63.9003C165.563 63.9668 167.158 64.0996 168.553 64.0996C169.749 64.0332 170.945 63.8339 172.141 63.6345H172.274C172.739 63.3023 173.071 62.9701 173.536 62.6379C174.001 62.3056 174.267 61.9734 174.599 61.6412V61.5083C174.932 61.1761 175.131 60.711 175.397 60.5116C175.663 60.3123 175.862 60.113 176.061 59.8472L175.928 59.515C175.995 59.6478 176.128 59.6478 176.128 59.515C176.261 59.3821 176.393 59.1163 176.593 58.9169C176.659 58.7176 176.792 58.5183 176.925 58.3189C176.991 58.2525 177.058 58.1196 177.058 57.9867C177.855 56.7907 178.719 55.9269 179.383 54.9967C180.048 54.1993 180.712 53.4684 181.443 52.804C181.842 52.2724 182.108 51.608 182.108 50.9435C181.908 50.4119 181.576 49.9468 181.045 49.6811V49.6146C180.646 49.5482 180.181 49.5482 179.782 49.6146C179.317 49.6146 178.852 49.6811 178.387 49.8139C177.789 49.8804 177.257 49.9468 176.659 50.0133C175.995 49.8804 175.33 49.7475 174.666 49.5482C174.068 49.5482 173.403 49.4817 172.805 49.3488C171.942 49.3488 171.011 49.2824 170.148 49.1495C169.616 49.2159 169.084 49.2159 168.619 49.0166C168.154 48.8837 167.756 48.6179 167.357 48.3521C166.825 47.9535 166.36 47.4884 165.962 46.9568C165.496 46.5581 165.098 46.093 164.898 45.495L164.832 45.4286C163.902 44.6312 163.171 44.299 162.573 44.3654C161.975 44.4319 161.31 44.8306 160.978 45.7608C160.845 45.8937 161.111 45.7608 160.58 46.2923C159.782 47.289 158.719 48.0864 157.589 48.6844C156.261 49.2824 154.799 49.6811 153.337 49.8139C151.277 49.3488 148.752 49.6811 145.962 50.4784C145.762 50.4784 145.563 50.5448 145.364 50.6777C145.098 50.7442 144.898 51.01 144.898 51.2757C144.898 51.3422 144.965 51.4751 145.031 51.5415C145.164 51.8073 145.43 51.8737 145.629 52.0066C145.829 52.1395 146.227 52.206 146.56 52.3389C147.158 52.9369 147.689 53.6013 148.154 54.2658C148.619 55.1296 148.952 56.0598 149.084 56.99C149.084 57.7209 149.018 58.5183 148.885 59.2492C148.752 60.1794 148.486 61.1761 148.287 62.4385C147.822 62.9037 147.49 63.5017 147.357 64.1661C147.091 64.8306 146.892 65.6279 146.892 66.3588C146.493 67.6213 146.427 68.8173 145.231 70.2791C144.965 70.7442 144.898 71.3422 145.098 71.8737C145.297 72.4053 145.696 72.804 146.161 73.0033C146.227 73.0698 146.36 73.1362 146.493 73.1362L146.626 73.2691C148.686 73.3356 151.344 72.9369 154.533 72.5382H154.666C155.463 72.2724 156.327 72.0731 157.191 71.9402C157.988 71.8073 158.918 71.7409 159.716 71.608C160.048 71.7409 159.716 71.6744 160.845 71.7408C161.111 71.8737 161.51 71.8737 161.776 71.7408C162.374 71.7408 162.972 71.6079 163.503 71.4086C164.633 71.3422 165.563 71.2093 166.36 71.2093C167.025 71.0764 167.689 71.0764 168.354 71.2093C168.686 71.3422 169.151 71.4086 169.616 71.5415C170.214 71.6744 170.879 71.6744 171.477 71.6744C172.274 71.8073 173.005 71.8073 173.802 71.8073C174.732 72.0066 176.393 71.8073 178.187 72.2724C179.051 72.5382 179.915 72.804 180.712 73.2026C181.111 73.9335 181.51 74.4651 180.579 76.1927H180.712C178.719 79.0498 176.925 81.1096 174.932 82.2392C173.271 83.3688 171.277 83.9003 169.284 83.701H169.151C168.287 83.5681 167.49 83.5681 166.626 83.5681C165.829 83.701 164.898 83.701 164.101 83.9003H163.968L163.37 84.4983C163.437 84.6977 163.104 85.0963 163.968 85.495C165.629 86.5581 168.287 87.1562 171.078 87.5548C171.809 87.6877 172.54 87.6877 173.271 87.5548C173.935 87.4884 174.533 87.3555 175.131 87.0897H175.33V86.8904C175.663 86.8239 175.928 86.7575 176.261 86.691C176.526 86.5581 176.792 86.5581 177.058 86.5581L177.191 86.4253C178.453 85.8937 179.649 85.0963 180.513 84.0332C181.842 82.5714 183.038 80.9103 183.968 79.1163C184.168 78.5847 184.5 78.0531 184.898 77.6545C185.563 76.7907 186.294 75.9934 187.091 75.2625V75.1296C187.623 74.6645 188.088 74.1329 188.486 73.5349C188.952 73.0698 189.284 72.5382 189.55 71.9402C189.483 71.608 189.616 71.2757 189.882 71.01C190.015 70.8106 190.148 70.6777 190.347 70.5448L190.48 70.4119C190.679 69.5481 190.347 68.7508 189.616 68.3522V68.3522ZM691.609 60.113C691.609 59.9136 691.476 59.6478 691.543 59.515C691.41 59.5814 691.41 59.1163 690.613 59.4485C690.546 59.5814 690.48 59.7143 690.413 59.7807C689.948 60.113 689.417 60.3787 688.819 60.5781C688.088 60.8438 687.29 60.9767 686.493 61.0432C680.247 60.5781 673.935 60.5781 667.689 61.0432H667.556C666.958 61.2425 666.36 61.3754 665.696 61.3754C664.699 61.5747 663.702 61.5747 662.706 61.3754C662.506 61.309 662.573 61.4419 661.975 61.0432C660.247 61.1761 657.988 60.2458 656.393 62.0399C655.729 62.7708 654.932 65.0963 654.732 66.7575C654.732 67.4883 654.865 67.9535 655.197 68.1528C656.194 68.8173 657.457 68.6844 659.583 68.1528C663.104 67.5548 666.759 66.7575 670.48 66.9568C671.011 67.0233 671.543 67.2226 672.008 67.5548C672.274 67.7541 672.473 68.1528 672.473 68.4851C672.739 72.4718 672.739 76.5249 672.473 80.5116C672.473 80.9767 672.34 81.7076 672.34 82.3721C672.207 83.1694 672.207 83.9003 672.207 84.6977C672.34 84.897 672.34 85.1628 672.473 85.3621V85.8272C672.739 86.3588 673.138 86.8239 673.536 87.289C674.001 87.6213 674.334 87.9535 674.799 87.9535L674.998 88.0864L675.131 87.9535C675.131 87.8206 675.131 87.8206 675.264 87.8206C675.33 87.6212 675.596 87.6877 676.194 87.6877C677.191 87.1561 677.922 86.1594 678.187 85.0299C678.653 83.5681 678.852 81.9734 678.653 80.4452C678.653 78.9169 678.52 77.7209 678.52 76.6578C678.187 74 678.653 72.206 679.051 68.8173C679.184 68.3522 679.516 68.0199 679.981 67.887C680.779 67.8206 681.643 67.887 682.44 68.0864C683.702 68.7508 685.164 68.8837 686.493 68.3522C686.759 68.3522 687.025 68.2857 687.29 68.1528C687.623 68.1528 687.888 68.0199 688.088 68.0199C688.619 67.887 689.084 67.5548 689.35 67.0897C689.882 66.2923 690.28 65.4286 690.613 64.5648C690.812 63.7674 691.078 62.9701 691.277 62.3056C691.476 61.6412 691.676 60.9767 691.742 60.2458L691.609 60.113V60.113ZM204.433 55.794C206.759 56.1262 209.417 55.794 212.473 54.8638C215.131 53.7342 216.925 53.0033 217.988 52.6711H218.055C218.055 52.5382 218.121 52.5382 218.254 52.5382C220.314 51.9402 222.307 51.1428 224.234 50.2791C224.699 49.8139 226.094 49.8804 228.42 50.4784C228.752 50.6777 228.952 50.412 230.48 50.8771C230.48 51.01 230.214 51.2093 230.015 51.3422C225.031 53.4684 222.374 54.3987 221.709 54.0664C220.447 54.1993 219.251 54.3987 217.988 54.6644V54.7309C216.593 54.9967 215.131 55.3289 213.403 55.6611C212.141 56.1262 210.812 56.5249 209.483 56.7907C208.486 56.8571 207.49 57.2558 206.692 57.9203C206.692 58.3854 207.158 59.0498 208.088 59.9801C208.686 61.0432 209.018 62.8372 209.018 65.495C208.42 67.5548 209.018 68.7508 211.742 68.4851C212.805 68.0864 213.869 67.7541 214.998 67.5548C216.061 67.6877 216.659 67.6877 216.859 67.3555C217.257 67.2226 217.589 67.1561 217.988 67.1561V67.0897C219.981 66.5581 222.041 66.3588 224.168 66.4252H227.888C229.682 66.2923 231.543 66.2924 233.403 66.2924L233.47 66.4252C234.201 66.4252 234.865 66.4917 235.596 66.4917L236.061 66.691C236.859 66.691 237.589 66.6246 238.387 66.4917C239.782 65.8937 240.912 64.5648 241.842 62.3721C242.041 61.0432 242.639 59.7807 243.437 58.7176L243.902 58.0531C244.367 57.4551 244.566 56.99 244.832 56.6578C245.297 55.5947 244.832 54.9302 243.437 54.7973C243.104 54.7973 242.307 54.7309 240.912 54.598L239.516 54.3987C237.722 54.0664 235.729 53.9335 233.536 53.7342L233.47 53.6678H232.34C232.34 53.3355 232.54 53.1362 233.005 53.0033C233.138 53.1362 233.271 53.1362 233.47 53.0033C234.001 52.8704 234.467 52.6711 234.865 52.3389C235.463 51.8737 236.194 51.7409 236.925 51.8738C237.988 51.4751 238.785 50.6777 239.251 49.6146C238.32 47.6212 235.928 48.6179 233.47 48.3521C232.938 48.3521 232.34 48.1528 231.875 47.887C231.344 47.2226 227.29 47.8206 226.56 46.7575C225.696 46.2924 224.699 46.093 223.769 46.2923C223.304 46.6246 222.506 46.691 221.709 47.289C221.377 47.6212 221.178 47.7541 221.045 47.7541C220.114 48.2857 219.118 48.6179 218.055 48.8837L217.988 48.9502H217.589C216.792 49.1495 215.995 49.4817 215.264 49.8804C214.068 50.412 212.805 50.6777 211.543 50.8106C210.746 50.7442 210.015 50.8106 209.217 51.01C206.759 51.4086 205.164 51.3422 204.566 50.412C204.234 49.8139 203.968 49.6811 203.636 49.8139C202.772 50.0797 203.171 50.6777 202.706 52.3389C202.374 53.1362 202.374 53.6013 202.506 53.7342C202.241 54.9967 202.905 55.6611 204.433 55.794V55.794ZM222.573 63.4352C220.712 63.7674 219.184 64.0332 217.922 64.2325V64.299C215.53 64.4983 213.603 65.7608 211.742 65.2957C211.875 64.4319 212.673 63.8339 214.068 63.5017C214.134 63.5017 214.732 63.4352 215.663 63.3023C216.46 63.1694 217.324 63.103 217.988 62.9701V62.9036C218.985 62.7707 219.981 62.5714 220.978 62.3056C221.842 62.1727 222.639 62.1727 223.503 62.3056C223.702 63.103 223.503 63.4352 222.573 63.4352V63.4352ZM223.104 58.6512C221.377 58.8505 219.716 59.1827 217.988 59.5814V59.6478C216.526 60.0465 215.065 60.5116 213.603 61.0432C212.938 61.1761 212.606 61.1761 212.473 61.0432C212.141 60.9103 212.141 60.5781 212.473 60.113C214.201 59.1827 216.061 58.5183 217.988 58.186V58.1196C219.849 57.7874 221.709 57.588 223.57 57.5216C223.702 57.7874 223.769 58.1196 223.769 58.4518C223.57 58.784 223.37 58.784 223.104 58.6512V58.6512ZM237.789 63.5681H233.403L233.337 63.4352H226.892C226.56 63.3688 226.56 62.9036 226.892 62.3056C227.091 61.7741 227.822 61.5083 228.952 61.6412C230.015 61.907 231.078 62.1063 232.207 62.1063H233.337L233.403 62.1728C233.935 62.2392 234.467 62.1727 234.998 61.9734C236.128 61.8405 237.257 61.9734 238.254 62.4385C238.453 62.9701 238.387 63.4352 237.789 63.5681V63.5681ZM233.403 56.8571L233.47 56.9236C236.659 56.9236 238.852 57.2558 239.915 57.8538C239.915 58.3189 239.45 58.6512 238.52 58.9834H233.403L233.337 58.9169H232.673C231.078 58.784 230.28 58.5847 230.148 58.4518H227.623C227.025 58.6512 226.493 57.6545 227.623 57.0565H229.948C231.078 56.8571 232.274 56.7907 233.403 56.8571V56.8571Z" fill="#1B1918"/>
<path d="M237.787 73.5339C236.857 73.7333 235.528 73.6004 233.402 73.3346C232.738 73.2017 232.272 72.9359 232.272 73.0024C231.608 72.803 230.877 72.8695 230.213 73.2017H226.027C223.302 73.1352 220.645 73.3346 217.987 73.7997V73.6668C217.721 73.6668 217.522 73.7333 217.256 73.7997C215.927 74.3313 214.532 74.5971 213.07 74.4642C211.674 74.5971 210.545 75.0622 210.744 76.3246C211.01 76.9226 211.342 77.2549 211.674 77.2549C212.272 79.9127 212.206 82.6369 211.475 85.2283C210.678 86.0921 210.478 86.8894 210.811 87.4874C211.076 88.4176 212.007 88.7499 213.601 88.4176C214.997 87.8196 216.458 87.4209 217.987 87.0223V86.9558C218.651 86.8894 219.316 86.7565 219.98 86.7565C221.708 86.6901 228.618 86.2914 229.282 86.5572C230.678 86.4907 232.073 86.4907 233.468 86.69C233.934 86.8229 234.399 86.8894 234.93 87.0887C235.993 87.6203 237.189 87.8861 238.385 87.7532C238.983 87.0887 239.249 86.1585 239.05 85.2283C238.585 84.6303 238.385 83.0356 238.585 80.6435C238.585 78.4509 238.85 77.122 239.515 76.5239C239.847 76.0588 240.047 75.5273 240.179 74.9293C239.781 73.9991 238.784 73.401 237.787 73.5339V73.5339ZM234.797 83.1685L233.402 83.3678C232.538 83.4342 231.674 83.3678 230.811 83.1685C230.013 83.1685 229.282 83.2349 228.485 83.3678H227.355C225.096 83.6336 222.173 83.3678 217.92 84.2316V84.298C217.322 84.3645 216.99 84.4974 216.857 84.4974C216.392 84.7631 215.794 84.8296 215.262 84.6967C214.997 84.6967 215.13 84.4973 215.462 84.0322C216.392 83.102 217.123 82.5705 217.787 82.4376H217.987V82.504C218.784 82.4376 219.581 82.3047 220.312 82.0389C223.568 81.7067 226.093 81.5738 227.953 81.5738C229.748 81.7067 231.475 81.7067 233.269 81.5738C233.336 81.5074 233.402 81.4409 233.468 81.4409V81.5073C233.601 81.3744 233.734 81.3744 233.934 81.3744C234.399 81.2415 234.731 81.4409 235.063 82.0389C235.395 82.6369 235.262 83.0356 234.797 83.1685V83.1685ZM235.462 77.4542C235.462 77.7864 235.262 77.9193 234.797 77.9193C234.332 78.0522 233.867 78.1186 233.402 78.0522V77.9857C231.276 78.1851 229.083 78.1851 226.957 77.9193C223.9 77.9193 220.91 78.3844 217.987 79.1817V79.1153C217.721 79.1153 217.654 79.1153 217.522 79.2482C216.791 79.5804 216.392 79.5804 216.126 79.4475C215.86 79.3147 215.794 78.9824 216.126 78.5173C216.658 78.1186 217.322 77.7864 217.987 77.5206V77.6535C219.249 77.1884 220.777 77.4542 223.037 76.8562C224.1 76.5904 225.163 76.4575 226.292 76.391L229.282 76.5904C230.944 76.6569 232.339 76.6569 233.468 76.7897H235.063C235.462 76.8562 235.595 77.122 235.462 77.4542V77.4542ZM171.276 79.4475C173.203 78.7831 174.797 77.5206 175.927 75.7931C176.06 75.6602 176.126 75.4608 176.259 75.3279V74.8628C176.193 74.597 176.193 74.5306 176.06 74.3977C175.86 74.2648 175.595 74.1984 175.329 74.1984C173.734 74.597 172.073 74.597 170.478 74.1984C167.223 73.7333 163.967 73.6004 160.645 73.7332C159.98 73.7332 159.382 73.7997 158.718 73.9326C154.066 74.1984 149.415 74.8628 144.831 75.8595H144.698C143.635 76.1917 142.837 76.3911 142.239 76.5239C141.841 76.5904 141.442 76.5239 141.11 76.391V76.2582C140.578 75.926 139.98 75.926 139.382 76.1253C138.85 76.4575 138.385 76.9226 138.12 77.5206V77.5871C137.854 78.318 137.854 79.0489 137.987 79.7798C138.186 80.4442 138.585 81.0422 139.116 81.5073C139.847 82.0389 141.375 82.4376 143.502 82.1718C144.565 82.1053 145.561 82.0389 146.625 81.8396C147.621 81.6402 148.551 81.3744 149.548 81.0422C153.203 80.5106 156.924 80.3113 160.578 80.2449H164.299C166.691 80.4442 169.017 80.1784 171.276 79.4475V79.4475ZM548.219 68.019C547.555 68.617 546.757 69.0157 545.894 69.2815C545.694 69.3479 545.429 69.4808 545.229 69.6137C545.229 69.9459 544.764 69.9459 545.229 71.009C545.429 71.0755 545.694 71.1419 545.894 71.2083C547.621 71.5406 549.017 71.4741 550.146 70.8761C551.01 70.5439 551.807 69.9459 552.339 69.1486L552.937 68.1519C554 66.0921 554.664 64.431 555.262 63.4343C555.595 62.9027 555.661 62.0389 556.06 62.0389L556.193 61.906C556.99 60.8429 557.654 59.8462 558.252 58.916C558.718 58.0522 559.116 57.1884 559.382 56.2582C559.781 54.5971 559.98 52.2715 557.189 52.7366C556.392 52.8695 555.661 53.2017 554.997 53.6668C554.266 54.132 553.668 54.73 553.136 55.3944H553.003C552.738 56.1253 552.538 56.8562 552.339 57.5871C552.14 58.3844 552.007 59.1818 551.874 60.112C551.94 60.4442 551.874 60.7765 551.741 61.1087C551.674 61.4409 551.674 61.8396 551.409 62.0389C551.342 62.1718 550.877 63.0356 550.279 64.0987V64.2316C550.213 64.6303 550.08 65.029 549.947 65.3612C549.88 65.5605 549.747 65.7599 549.615 65.9592V66.0921C549.282 66.823 548.817 67.4874 548.219 68.019ZM659.581 55.3944C660.046 55.7266 660.578 55.9924 661.176 56.0589C662.704 56.1918 664.299 56.1253 665.827 55.8595C669.947 55.6602 674.332 55.9924 678.718 55.6602C679.183 55.6602 680.445 55.4609 681.508 55.5273C682.571 55.4609 683.635 55.1951 684.631 54.73C685.296 54.3977 685.761 53.7333 685.894 53.0024V52.8695C685.827 52.338 685.628 51.8728 685.296 51.4742C685.03 51.0755 684.698 50.7433 684.233 50.5439H683.967C683.701 50.6768 683.435 50.7433 683.169 50.7433C682.771 50.6104 682.239 50.4775 681.641 50.2781C678.85 50.1452 675.462 50.1452 671.741 50.2781C670.811 50.411 669.814 50.411 668.884 50.411C667.887 50.2781 666.957 50.2117 665.894 50.0788H665.429L665.163 49.813C663.302 49.4808 661.841 49.6137 660.91 50.2117C659.781 50.7433 659.05 51.8064 658.917 53.0688C658.784 53.4011 658.784 53.7997 658.917 54.132C658.917 54.6635 659.183 55.1286 659.581 55.3944V55.3944ZM638.651 57.0555C639.382 58.3844 640.711 59.3147 642.239 59.4476C643.369 59.4476 644.498 59.1818 645.495 58.6502C646.027 58.2516 646.492 57.9193 647.023 57.5871H647.156C647.422 57.3878 647.754 57.122 648.219 56.7898C648.551 56.4575 648.95 56.0589 649.349 55.7931C649.681 55.6602 650.013 55.5273 650.279 55.328C651.409 54.4642 652.339 53.3346 652.937 52.0057C653.269 51.1419 653.203 50.1453 652.738 49.3479L652.605 49.215C651.94 48.8828 651.209 48.8164 650.545 49.0157C649.88 49.3479 649.282 49.813 648.817 50.411C647.754 51.0755 646.625 51.6071 645.495 52.1386C644.963 52.4044 644.365 52.6702 643.767 52.8695C642.239 53.3346 641.11 53.534 640.179 53.3346C639.648 53.2682 639.448 52.7366 638.452 53.2017C638.252 53.2017 638.12 53.4011 637.987 53.534V53.9991C637.721 54.4642 637.721 55.0622 637.854 55.5937C638.053 56.1253 638.319 56.6569 638.651 57.0555V57.0555ZM519.316 63.0356C520.113 63.9658 520.777 64.6303 521.375 65.4276C522.173 66.6236 522.306 66.9559 523.103 69.0157C523.236 69.4143 523.435 69.813 523.767 70.0788C524.299 71.2083 524.963 72.205 525.827 73.1353C525.96 73.2682 526.027 73.4675 526.159 73.6004C526.292 73.6004 526.292 73.7332 526.425 73.7332C526.691 73.8661 526.757 73.8661 526.89 73.7332C527.156 73.7332 527.289 73.4675 527.488 73.2682C527.621 73.0024 527.688 72.6701 527.688 72.3379C528.086 67.5539 528.352 62.7034 525.628 59.1818L525.495 59.0489C525.03 58.8496 524.631 58.4509 524.432 57.9858C523.9 57.3213 524.166 55.9924 523.701 54.6635C523.435 54.3313 523.302 54.0655 523.103 53.8662C522.97 53.8662 522.837 53.7997 522.837 53.7333C522.306 53.6668 522.439 53.2682 521.043 53.7333H520.91C519.581 54.7964 518.718 56.3246 518.385 57.9858C518.053 59.4476 518.385 61.1751 519.183 63.1021L519.316 63.0356V63.0356ZM332.272 57.3878C339.382 56.1253 346.027 54.73 351.409 54.5306V54.6635H351.542C357.588 54.5971 364.698 56.2582 371.209 56.4575C372.073 56.4575 372.87 56.0589 373.402 55.4609V55.328C373.535 55.1286 373.668 54.9293 373.734 54.73C373.867 54.4642 373.734 54.2649 373.734 54.132C373.601 53.8662 373.601 53.7333 373.402 53.534C373.136 53.3346 372.87 53.2017 372.605 53.0688C370.545 52.4708 368.419 52.0057 366.226 51.6735C363.635 51.3413 360.644 50.8762 357.256 50.5439C356.724 50.411 356.193 50.2117 355.661 49.9459C355.13 49.6801 354.598 49.2815 354.266 48.8164C353.468 47.8861 352.538 47.2217 351.409 46.7566C351.209 46.6237 350.811 46.4908 350.744 46.5572C349.615 46.2915 348.817 46.8894 348.219 48.019V48.1519C348.153 49.0157 347.821 49.813 347.156 50.411C346.691 51.009 345.827 51.2084 344.698 51.2084C343.9 51.0755 343.103 51.0755 341.243 51.6735C340.777 51.7399 340.312 51.8728 339.847 52.0057C339.382 52.0057 338.983 52.1386 338.784 52.1386C337.654 51.8728 336.458 52.1386 335.462 52.8031C334.598 53.0688 334.066 53.2682 333.468 53.4011C332.937 53.4011 332.472 53.4011 331.94 53.2682C331.542 52.9359 331.076 52.8031 330.545 52.8031C330.013 52.936 329.482 53.1353 329.017 53.4675L328.884 53.6004C328.817 54.73 329.083 55.7931 329.681 56.7898C330.279 57.5207 331.143 57.5871 332.272 57.3878V57.3878ZM653.269 57.4542C653.07 57.4542 652.937 57.3878 652.804 57.2549C652.405 57.0555 651.874 56.9891 651.409 57.0555C650.944 57.0555 650.545 57.3213 650.346 57.72C650.346 57.7864 650.279 57.8529 650.213 57.8529V57.9858C650.08 58.3844 649.88 58.7167 649.548 59.0489C649.216 59.4476 648.751 59.8462 648.286 60.0456C647.09 60.7765 646.226 61.308 645.429 61.8396C645.296 61.8396 645.163 61.9725 645.163 61.8396C644.233 62.4376 643.635 62.9027 643.169 63.2349C642.306 63.8329 641.375 64.2316 640.379 64.4974C639.847 64.6967 639.249 64.6303 638.784 64.3645C637.322 64.3645 636.458 65.8928 635.86 67.9526V68.0854C635.661 69.215 635.661 70.411 635.86 71.5406C636.259 72.4708 636.724 72.6701 637.389 72.4708C638.718 71.8728 640.046 71.2083 641.309 70.411C642.439 69.7465 643.568 68.9492 644.631 68.1519C644.831 67.9525 645.03 67.8196 645.229 67.6868C645.296 67.5539 645.296 67.5539 645.362 67.5539V67.6203H645.694C645.96 71.4741 645.694 74.5971 645.628 78.916C645.561 79.1153 645.495 79.3811 645.429 79.5804C645.362 79.6469 645.296 79.7798 645.296 79.9127C644.963 80.4442 644.764 80.9093 644.498 81.3744C644.299 81.6402 644.1 81.9725 643.9 82.3047C643.701 82.5705 643.302 82.6369 643.103 82.7698C642.771 82.7698 642.439 82.7698 642.173 82.6369L642.04 82.504C641.508 83.0356 641.11 83.7 641.841 85.0954L641.973 85.2283C642.837 85.5605 643.701 85.7598 644.631 85.8927C645.628 85.8927 646.625 85.8263 647.621 85.5605H647.754C647.953 85.4276 648.219 85.3611 648.419 85.3611C648.751 85.2947 649.017 85.2283 649.349 85.1618C650.811 84.3645 651.475 82.5705 651.276 80.112C650.877 77.5871 650.811 75.0622 651.01 72.4708C651.276 70.6768 651.209 68.8828 650.811 67.0887V66.9559C650.678 66.7565 650.678 66.4908 650.678 66.2914C650.811 66.0921 650.944 65.6934 651.276 65.4941C651.542 65.1619 651.741 64.8296 651.874 64.4974C652.007 64.2316 652.007 63.8994 652.007 63.5672L652.206 63.2349V63.1021C652.272 63.0356 652.339 62.9691 652.339 62.9027C652.538 62.7034 652.738 62.5705 652.937 62.4376V62.3047C653.535 61.6403 653.934 60.8429 654 59.9127C654.066 59.0489 653.867 58.2516 653.402 57.5207L653.269 57.4542V57.4542Z" fill="#1B1918"/>
<path d="M565.827 77.1216V76.9887C565.295 76.9887 565.494 76.5236 564.365 76.9887C564.033 77.3209 563.567 77.5202 563.102 77.5867C562.704 77.5867 562.239 77.5867 561.84 77.4538C560.245 77.2545 558.651 77.2545 557.056 77.4538C555.926 77.5867 554.73 77.5867 553.601 77.4538C553.136 77.3209 552.67 77.2545 552.205 77.1216V77.0551C551.74 76.9887 551.275 76.8558 550.943 76.5235C549.68 76.1913 548.75 75.8591 547.82 75.5269C546.89 75.1946 546.159 75.0618 545.494 74.9289H545.361C545.096 75.0618 544.896 75.0618 544.896 74.9289C544.631 74.4638 544.83 73.9322 544.631 72.5368C544.431 71.8059 544.431 71.0086 544.631 70.2113C544.763 70.0119 544.83 69.6132 544.963 69.4139V69.281C545.229 67.8857 545.494 66.4903 545.627 65.0285C546.026 62.5701 545.494 61.1083 546.491 58.0518C547.089 56.3242 547.754 54.5966 548.551 52.9355V53.002C549.082 51.7395 549.348 50.4106 549.215 49.0153C549.082 48.0186 548.219 47.2213 547.156 47.1548H547.023C545.494 47.2877 543.235 48.5501 541.308 50.4106C541.109 50.5435 540.976 50.6099 540.976 50.7428C540.843 50.8757 540.71 51.0751 540.843 51.208C540.843 51.4737 540.843 51.5402 540.976 51.6731C541.109 51.9388 541.375 52.0717 541.574 52.2711C542.903 53.0684 542.969 54.796 542.371 56.9887C542.106 57.786 541.973 58.5834 541.906 59.3807C541.84 60.178 541.707 61.1747 541.707 62.2378C541.242 66.3574 540.312 70.477 539.049 74.3973C537.92 74.796 536.724 75.1282 535.528 73.7993V72.0717C535.793 71.4737 535.793 70.6099 535.528 69.2146C535.328 66.5568 536.657 64.0319 535.528 60.5767V60.4438C535.262 59.9123 535.195 59.3143 535.395 58.7163C535.461 58.384 535.594 57.9189 535.727 57.4538C535.793 55.992 535.793 54.5967 535.594 53.1349C535.528 51.806 535.262 50.4106 534.797 49.1482L534.664 49.0153C533.999 48.2179 533.003 47.8192 532.006 47.9521C530.876 48.1515 529.88 48.683 529.082 49.5468C528.551 52.0717 528.817 54.6631 529.813 56.9887C530.744 59.3143 531.275 61.7727 531.408 64.2977C531.142 65.2279 531.142 66.2246 531.408 67.1548C531.541 68.0186 531.541 68.9488 531.541 69.8126C531.408 70.7428 531.408 71.806 531.209 72.8026C531.009 73.6 530.611 74.3309 530.146 74.9953C529.813 75.394 529.415 75.6598 528.883 75.7927C527.488 75.992 526.092 76.3907 524.697 76.59C524.099 76.6565 523.435 76.7229 522.837 76.7893C522.039 76.9222 521.375 76.9887 520.71 77.0551C519.78 77.1215 518.783 77.1215 517.853 77.0551C517.388 77.1215 516.923 77.0551 516.458 76.8558C516.192 76.8558 515.926 76.7893 515.66 76.6564C514.996 76.5236 514.265 76.59 513.601 76.8558C513.136 77.1215 512.737 77.5867 512.538 78.1182C512.604 78.384 512.338 83.899 512.67 84.1647C512.737 84.6298 512.936 84.9621 513.335 85.2279C513.8 85.4272 514.265 85.4936 514.73 85.3607C514.93 85.3607 515.195 85.3608 515.395 85.2279C516.192 85.095 516.989 84.8957 518.85 84.5634C520.179 84.4305 521.574 84.2312 522.903 83.9654V83.8325C525.096 83.4338 528.883 82.3707 532.338 81.6398C532.803 81.5069 533.268 81.5069 533.734 81.5069C534.464 81.6398 535.262 81.7063 536.192 81.8392C537.056 81.972 537.986 81.9721 538.85 81.9721C540.976 81.9056 543.169 82.0385 545.295 82.4372C547.155 82.8358 548.95 83.5003 550.611 84.497H550.744C551.209 84.6298 551.674 84.7627 552.139 84.9621V85.0285C553.069 85.2278 553.933 85.4936 554.797 85.8259C555.594 86.0252 556.458 86.0916 557.322 86.0252C559.049 85.4936 560.71 84.6298 562.039 83.3674C563.567 81.972 564.83 80.3774 565.827 78.5834V78.4505C566.159 78.0518 566.092 77.5202 565.827 77.1216V77.1216ZM501.973 51.1415C501.574 51.4073 501.175 51.6066 500.71 51.806C500.378 51.806 500.179 51.806 500.046 51.6731H495.129C494.93 51.5402 494.863 51.7395 493.933 51.4073C492.139 51.0086 490.345 50.6764 488.484 50.4771C487.687 50.4771 486.956 50.3442 486.292 50.3442V50.4106C485.361 50.4106 484.431 50.4771 483.567 50.5435C482.903 50.5435 482.239 50.4771 481.574 50.3442C481.175 50.1448 480.777 49.8126 480.511 49.4139H480.644C480.312 48.8824 479.847 48.4173 479.381 48.0186C478.584 47.4206 477.787 46.9555 476.856 46.6232V46.4904H476.591C475.993 46.291 475.262 46.291 474.664 46.5568C474.066 46.7561 473.601 47.3541 473.601 48.0186C473.534 48.8159 473.069 49.4804 472.471 49.9455C471.674 50.5435 470.744 50.8757 469.813 51.0751L468.418 51.2744H466.624L466.491 51.208C465.959 51.3409 465.361 51.3408 464.83 51.4737C464.232 51.4737 463.7 51.5402 463.102 51.6731C462.903 51.6731 462.704 51.6731 462.504 51.806C462.239 51.806 461.973 51.806 461.707 51.9388C461.375 52.0717 461.707 52.0053 460.843 52.0717L460.71 51.9388H460.577C459.448 52.0053 458.385 52.0053 457.587 52.1382C456.856 52.1382 456.126 52.2046 455.395 52.3375H455.262C454.73 52.404 454.332 52.8691 453.268 52.5369H453.136C452.803 52.2711 452.405 52.2711 452.006 52.404C451.674 52.6033 451.474 52.9355 451.342 53.3342V53.4671C451.474 55.5269 450.81 58.8491 453.866 58.384C454.332 58.1847 454.863 57.9853 455.395 57.9189C455.993 57.786 456.591 57.5867 457.255 57.4538C458.518 57.3874 459.78 57.188 460.976 56.7893C462.039 56.3907 463.036 55.9256 463.966 55.394C464.763 55.1947 465.627 55.1282 466.491 55.1947L466.624 55.2611C466.757 55.2611 466.89 55.3276 466.956 55.394C467.355 55.6598 467.687 55.992 467.886 56.3907C468.086 56.6565 468.152 56.9222 468.219 57.188C467.82 57.7196 467.222 58.0518 466.624 58.3176L466.491 58.2511C466.159 58.4505 465.76 58.6498 465.361 58.8492C463.9 59.0485 462.438 58.982 460.976 58.6498C460.312 58.5169 459.647 58.5169 458.983 58.6498L458.651 58.982L458.451 59.58C458.584 59.8458 458.717 60.1116 458.916 60.3109C459.116 60.6432 459.182 61.0418 459.249 61.4405C459.381 61.7063 459.381 61.9721 459.249 62.2378C458.983 62.9687 458.983 63.7661 459.249 64.497C459.448 66.3575 459.315 68.1515 458.983 70.0119C458.651 71.9388 458.119 73.8657 457.455 75.7262C456.192 78.8491 454.066 81.5734 451.275 83.5668C451.076 83.5668 450.81 83.6332 450.677 83.7661C450.744 83.899 450.212 84.0983 450.677 84.6963C450.943 84.8292 450.744 84.6963 452.139 85.095C452.338 85.3608 452.737 85.4936 452.936 85.693H453.069C454.132 86.0252 455.262 86.0252 456.325 85.8259C457.455 85.4936 458.518 84.8956 459.448 84.0983H459.581C460.445 82.7694 461.109 81.374 461.641 79.8458C462.239 78.2511 462.571 76.5236 462.704 74.796C462.77 73.4671 462.504 71.3408 462.903 70.0784V69.879H463.368C463.567 70.2113 464.298 70.3441 465.428 70.2113C465.76 70.2113 466.159 70.2777 466.491 70.4106L466.624 70.6099C466.823 70.6764 466.956 70.6764 467.089 70.8093C467.488 71.0751 467.82 71.4073 468.019 71.8724C467.953 72.8026 467.886 73.6664 467.687 74.5967C467.421 75.6598 467.089 76.9222 466.624 78.384L466.491 78.1847C466.491 78.4505 466.425 78.6498 466.292 78.8491L466.092 79.8458V79.9123C466.026 80.3109 466.092 80.6431 466.159 81.0418C466.292 81.1747 466.358 81.374 466.491 81.5069L466.624 81.7063C466.956 81.9056 467.355 81.972 467.687 81.8392C468.551 81.4405 469.415 81.1083 470.345 80.8425C471.142 80.6431 472.006 80.5102 472.87 80.3774H473.202C473.534 80.4438 473.8 80.5103 474.132 80.5767C475.195 80.5103 475.395 80.776 476.657 80.4438V80.2445C477.654 80.178 478.717 80.2445 479.714 80.3774C481.308 80.5767 482.969 80.5767 484.564 80.3774H484.697L484.83 80.2445C485.029 79.7129 485.229 79.1149 485.295 78.5169C485.428 77.6531 485.361 76.7893 485.096 75.992C484.963 75.7262 485.029 76.0584 484.963 75.394L485.096 75.1946V72.2046C484.896 71.9388 484.83 71.5402 484.963 71.2079C485.096 70.9422 485.295 70.8757 485.76 70.7428H486.358V70.6764C487.488 70.477 488.551 70.0119 489.415 69.281H489.614L489.813 69.0817C489.946 69.0152 490.079 69.0152 490.079 68.8824C490.146 68.8824 490.278 68.8824 490.278 69.0153C490.345 69.0153 490.345 69.0817 490.478 69.2146C490.478 69.4139 490.544 69.5468 490.677 69.6797C490.478 71.2079 490.611 73.1349 490.345 75.5933C490.278 78.7827 490.478 82.7694 490.212 86.0252C490.278 86.4239 490.013 86.4239 490.544 86.9554C491.408 87.1548 492.338 87.0883 493.202 86.7561H493.335C493.8 86.4903 494.199 86.0252 494.464 85.4936V85.4272C494.73 84.8292 494.863 84.0983 494.797 83.4339L494.664 83.2345H494.464V82.2378C494.597 82.105 494.597 81.9056 494.664 81.6398C494.797 81.5069 494.797 80.8425 494.664 79.58C494.664 78.6498 494.597 77.786 494.464 76.8558C494.398 76.4571 494.265 72.404 494.332 71.6066C494.464 69.8126 494.464 68.0186 494.332 66.2245C494.132 65.3608 494.132 64.4305 494.332 63.5667C494.332 63.3674 494.464 63.1016 494.464 62.9023C494.73 62.4372 494.93 62.105 495.129 61.7727V61.6398C495.328 60.9089 495.594 59.6465 494.464 59.0485V58.982C493.933 58.7163 493.335 58.5169 492.67 58.5169C490.544 58.5169 488.418 58.384 486.292 57.9854C485.627 57.786 485.029 57.5202 484.431 57.2545V56.9222C484.431 56.1249 484.165 55.1947 485.893 54.796H486.292V54.7295C486.956 54.9953 487.621 55.1947 488.352 55.3275C489.082 55.5269 489.747 55.7927 490.345 55.992C491.474 56.6565 492.803 57.188 494.132 57.3874C494.199 57.4538 494.332 57.5202 494.464 57.5202C495.461 57.7196 496.524 57.786 497.587 57.7196C498.451 57.6531 499.249 57.2545 499.78 56.59C500.644 55.6598 501.308 54.5967 501.84 53.4006C501.973 53.0684 502.106 52.7362 502.305 52.4704L502.637 52.1382H502.77C502.969 51.806 502.969 51.4073 502.77 51.0751C502.438 51.0086 502.172 50.8093 501.973 51.1415V51.1415ZM468.75 64.8292C468.152 65.2279 467.554 65.8259 466.757 66.291H466.624C466.292 66.6897 465.827 66.9554 465.361 67.2212C464.83 67.487 464.165 68.085 463.302 67.0883C463.102 66.4903 463.036 65.8259 463.102 65.1614C463.235 64.6299 463.501 64.2312 463.9 63.899H464.365C464.896 63.6332 465.494 63.5003 465.959 63.301C466.159 63.301 466.425 63.1681 466.624 63.1681L466.757 63.2345C467.886 63.0352 468.95 62.7694 470.013 62.4372C470.212 62.5701 470.345 62.6365 470.345 62.7694C470.411 62.8359 470.478 62.9687 470.478 63.1016C470.013 63.7661 469.415 64.2977 468.75 64.8292V64.8292ZM479.249 64.8956C479.381 65.5601 479.78 66.1581 480.378 66.4903C480.378 66.6232 480.511 66.8226 480.511 66.9555C479.249 66.7561 477.92 66.7561 476.657 66.9555V67.0883C475.528 67.0883 474.332 67.1548 473.202 67.2877C473.136 67.2877 473.003 67.4206 472.87 67.4206V67.2877C473.003 67.2877 473.003 67.0884 473.136 66.9555L473.335 66.291C473.401 65.9588 473.534 65.693 473.667 65.3608C473.734 65.095 473.866 64.8292 473.999 64.5634V64.4305C474.199 63.6996 474.199 62.5036 476.059 61.7727H476.657V61.7063H479.116V62.0385C479.049 62.9687 479.116 63.9654 479.249 64.8956V64.8956ZM473.268 54.2644C474.398 54.1315 475.594 54.1315 476.724 54.1315V54.0651H477.322C478.518 54.198 479.647 54.2644 480.577 54.3973C480.577 54.5967 480.511 54.796 480.378 54.9953C479.979 55.5933 479.514 56.1249 478.983 56.59C478.318 56.8558 477.654 56.9887 476.923 57.0551H476.724V57.1216C475.793 57.2545 474.797 57.2545 473.866 57.2545C473.335 57.0551 472.936 56.6565 472.803 56.1249C472.803 55.4604 472.936 54.796 473.268 54.2644V54.2644ZM481.375 74.6631C481.308 75.1282 481.308 75.3275 481.175 75.4604H476.657V75.6598C475.262 75.6598 473.866 75.7262 472.471 75.8591C472.006 75.4604 471.541 74.0651 472.205 72.5368C472.405 72.2711 472.67 72.0053 473.003 71.8724C473.667 71.6066 474.332 71.4073 475.062 71.2744C475.594 71.4073 476.126 71.4737 476.657 71.4737V71.3408C477.654 71.6066 478.518 71.4737 480.445 71.3408C480.71 71.4737 480.91 71.6731 481.043 71.9389C481.175 72.0053 481.242 72.404 481.375 72.6033C481.308 72.8026 481.242 73.0684 481.175 73.2678V74.3309L481.375 74.6631V74.6631ZM486.026 62.2378C486.159 62.2378 486.292 62.3707 486.491 62.3707V62.3043C487.753 62.4372 489.082 62.703 490.544 62.9023C490.943 63.8325 491.009 64.8292 490.744 65.7594C490.345 66.291 490.278 66.4239 489.016 65.6266C488.551 65.2943 488.019 65.0286 487.421 64.8292C487.089 64.6299 486.757 64.497 486.358 64.3641V64.4305L485.029 64.1648C484.564 64.0319 484.099 63.7661 483.435 63.5667C483.102 63.3674 482.77 63.2345 482.371 63.1016C482.305 63.0352 482.172 63.0352 482.172 62.9023C482.305 62.8358 481.308 62.3707 482.305 61.9056C483.368 62.0385 484.631 62.1049 486.026 62.2378V62.2378ZM628.817 82.9687C626.89 83.5003 624.564 81.5069 622.837 79.9787C622.504 79.7129 622.371 79.6465 622.371 79.5136C619.847 77.5202 617.72 75.1282 615.993 72.4039C615.129 71.2744 614.996 70.5435 615.793 70.3442C616.524 69.879 616.989 69.1482 617.189 68.2844C618.252 61.6399 619.182 57.8525 619.979 56.4571C620.577 55.4604 621.109 54.3973 621.574 53.2677C621.707 52.6033 621.906 52.0053 622.239 51.4073C622.305 51.2744 622.371 51.0751 622.438 50.9422C622.903 50.3442 622.837 49.4139 622.239 48.8824C621.308 48.2844 620.378 48.085 619.714 48.4173C618.916 48.8824 617.787 48.8824 616.259 48.4173C614.664 48.2179 613.069 48.2179 611.408 48.2844V48.2179H608.95C607.488 48.3508 605.959 48.5501 604.431 48.7495V48.8159C603.435 49.0817 602.371 49.0817 601.375 48.8159C599.979 48.3508 598.983 48.4173 598.385 49.0153C597.986 51.7395 598.119 53.6664 598.584 54.9289C598.717 56.1913 598.717 57.5202 598.584 58.7827C598.252 59.9787 598.252 61.2412 598.584 62.4372C598.916 63.899 598.717 65.8923 598.119 68.1515C597.787 68.7495 597.787 69.9455 597.92 71.806C597.853 73.5335 597.587 75.3275 597.255 77.0551C596.458 78.982 594.93 80.5102 593.003 81.374V81.2412C592.471 81.507 591.873 81.7063 591.275 81.8392C589.88 82.1049 589.082 83.2345 588.75 85.2943C588.617 86.0252 589.082 86.3574 590.146 86.2246H590.345C591.209 85.8259 592.072 85.4937 593.003 85.2279V85.3607C594.398 85.1614 597.122 85.2279 598.916 84.2976C600.644 83.3674 602.504 82.7694 604.498 82.5701V82.5036C605.959 82.3043 607.421 82.1714 608.95 82.1714C609.813 82.1049 610.611 81.972 611.408 81.7063C612.405 81.3076 613.268 80.6432 613.866 79.7794C614.332 79.3143 614.664 79.3142 614.996 79.9787C615.395 81.7727 616.126 83.4338 617.056 85.0285C617.255 86.0916 618.651 86.889 620.976 87.5535C622.504 87.6199 623.966 87.2877 625.361 86.6232C626.491 85.693 627.754 84.8956 629.082 84.3641C629.282 84.1647 629.548 83.8989 629.548 83.6996C629.348 83.3009 629.082 83.1016 628.817 82.9687V82.9687ZM607.687 71.4073C606.89 73.5335 605.827 75.5269 604.431 77.3209V77.4538C604.165 77.6531 603.9 77.8524 603.567 78.0518C602.106 78.5169 601.043 78.6498 601.242 77.3873C602.039 74.7295 600.777 72.9355 603.302 71.2079C603.9 71.1415 604.564 71.0751 605.162 70.9422C605.694 70.7428 606.225 70.6099 606.757 70.4771C607.488 70.6099 607.82 70.9421 607.687 71.4073ZM611.873 77.5202H611.408C610.876 77.5202 609.016 78.1847 609.082 77.0551C609.813 75.7926 610.478 74.7295 610.943 74.0651C610.943 73.8657 611.209 73.7328 611.408 73.7328V73.7993C611.74 73.8658 612.072 73.9322 612.338 74.1315C612.67 75.2611 613.136 76.3242 613.734 77.3209C613.069 77.4538 612.471 77.5202 611.873 77.5202V77.5202ZM614.199 65.693C613.268 65.6265 612.338 65.6265 611.408 65.693H608.95C607.355 65.9588 605.694 66.1581 604.498 66.4239H604.431C603.966 66.5568 603.501 66.6897 603.036 66.889C601.773 66.4239 601.707 65.2943 602.837 63.4339C603.302 63.301 603.833 63.2345 604.431 63.1016C605.893 62.7694 607.421 62.5701 608.95 62.5036C610.876 62.4372 612.737 62.5036 614.664 62.703C614.863 63.6996 614.73 64.7628 614.199 65.693V65.693ZM614.664 57.0551C613.667 56.9222 610.411 56.9222 608.95 56.9222C607.421 57.0551 605.959 57.2545 604.431 57.5867C604.298 57.5867 604.099 57.7196 603.966 57.7196C603.302 57.8525 602.571 57.4538 602.371 56.7893C601.641 55.7927 601.906 54.9953 603.036 54.5302L604.431 54.3309V54.2644C606.092 54.1315 607.554 54.0651 608.95 53.9322C609.813 53.9322 610.611 53.7993 611.408 53.7993V53.8658C612.87 53.7993 614.332 53.9986 615.793 54.3309C616.192 55.7927 615.793 56.7229 614.664 57.0551V57.0551Z" fill="#1B1918"/>
<path d="M512.538 79.0534C512.472 79.8507 512.472 80.6481 512.538 81.4455C512.538 82.3092 512.605 83.1066 512.738 83.9704H512.804V78.2561C512.804 78.389 512.738 78.5219 512.671 78.5883C512.671 78.7212 512.605 78.9205 512.538 79.0534V79.0534ZM251.542 69.0202C250.678 69.1531 249.814 69.0867 249.017 68.8209C246.957 68.4887 245.894 68.8209 243.236 69.0202C242.306 68.9538 241.376 68.8209 240.445 68.5551C239.914 68.5551 239.382 68.4886 238.851 68.3558C237.854 68.1564 236.857 67.9571 235.861 67.8906C234.997 68.09 234.133 68.0235 233.336 67.6913C232.073 67.7578 230.811 67.8906 229.415 67.8906C228.219 68.0235 227.688 67.8906 227.555 67.6913C226.891 67.4255 225.097 67.5584 222.239 67.8906C220.512 68.0235 219.116 68.2229 217.854 68.3558C216.525 68.5551 215.263 68.8209 213.934 69.2195C210.545 69.5518 207.223 70.2827 204.033 71.2794C203.236 71.7445 202.771 71.678 202.439 71.08C201.708 71.0135 200.977 71.3458 200.578 72.0102C200.445 72.9405 200.379 73.8042 200.379 74.7345C201.11 77.0601 202.505 75.5318 205.229 75.6647C206.093 75.5983 206.957 75.3989 207.754 75.0003C210.744 73.8043 213.801 72.874 216.924 72.276C217.19 72.1431 217.522 72.1431 217.854 72.1431C220.246 71.7445 223.435 71.2793 225.894 71.5451C226.359 72.0102 227.289 72.1431 228.884 72.0102C231.209 71.6116 234.798 72.1431 238.253 72.6083C239.781 73.0734 241.243 73.7378 242.638 74.4687C244.432 75.6647 246.824 75.5318 248.419 74.0036C248.95 73.4056 249.615 72.874 250.279 72.4089C250.877 72.0767 251.276 71.4787 251.409 70.8142C251.409 70.4156 251.542 69.9504 251.874 69.6847C252.007 69.6847 252.007 69.5518 251.874 69.2195C251.741 69.0866 251.675 69.0202 251.542 69.0202V69.0202ZM592.605 76.0634L592.937 75.7312H593.07C593.336 75.4654 593.402 75.2661 593.601 75.1332C593.801 75.0003 593.801 74.6681 593.934 74.4687C594.067 74.2694 594.133 73.8707 594.266 73.5385C594.465 73.4056 594.133 73.2062 594.93 72.7411V72.6083C595.13 72.276 595.13 71.8109 594.93 71.4787C594.598 71.4122 594.798 70.9471 593.668 71.2794L593.07 71.8773H592.937C592.738 72.0102 592.472 72.0767 592.273 72.2096C591.675 72.5418 591.077 72.8076 590.412 73.0069H590.279C589.615 73.472 588.884 73.9371 588.219 74.4022C587.688 74.8674 587.156 75.2661 586.691 75.7976C586.492 75.6647 586.359 75.6647 586.359 75.4654C586.093 74.8674 586.027 74.2029 586.226 73.5385C586.558 72.6082 586.957 71.9438 587.156 71.3458C587.289 71.08 587.489 70.8142 587.754 70.5484C588.419 70.482 589.083 70.3491 589.748 70.2162C590.08 70.1498 590.412 70.0169 590.545 70.0169C591.409 69.9504 592.206 69.6182 592.871 69.0866H593.004L593.07 68.9538C593.934 68.2229 594.731 67.2927 595.329 66.296C595.595 65.9638 595.595 65.5651 595.462 65.1664C595.396 64.8342 595.13 64.5684 594.798 64.5019V64.3691C594.199 64.3691 593.668 64.2362 593.07 64.2362L593.004 64.3691H591.874C590.744 64.5019 589.482 64.7677 587.954 64.9671C587.821 65.1 587.754 65.1 587.621 64.9671C587.555 64.9671 587.422 64.9671 587.422 64.8342C587.289 64.7013 587.289 64.5684 587.289 64.3691C587.422 64.0368 587.555 63.7046 587.754 63.2395C589.548 63.173 591.342 62.8408 593.07 62.2428V62.1099C593.734 61.8441 594.399 61.379 594.93 60.9139C595.396 60.3823 595.794 59.7179 595.994 58.987C596.126 58.4554 595.994 57.9239 595.661 57.5252H595.528C594.731 57.3259 593.934 57.1265 593.07 57.0601V57.193C591.741 56.9937 590.412 56.9272 589.017 56.9936C586.824 56.6614 583.502 58.4554 580.844 58.1897C581.575 57.5252 582.239 56.9272 582.705 56.4621C583.303 55.997 583.768 55.6647 583.967 55.5319H585.827C587.09 55.2661 588.219 55.0667 589.283 54.9338C590.346 54.8009 591.475 54.9338 593.136 54.6681C593.601 54.6016 594.067 54.4023 594.532 54.203C595.13 54.0701 595.661 53.6714 595.927 53.0734C595.927 52.9405 595.861 53.0069 596.06 52.7412C596.06 52.6083 596.126 52.4754 596.193 52.4089C596.326 52.1431 596.459 51.9438 596.658 51.7445C596.724 51.5451 596.857 51.3458 596.99 51.1465C597.057 51.1465 597.057 51.0136 597.19 51.0136C597.123 50.8807 597.655 50.7478 597.19 49.9505C597.19 49.8176 597.057 49.7511 597.057 49.6182H594.864L594.2 49.4189C592.671 49.286 591.077 49.2196 589.548 49.3524C589.083 49.4853 588.618 49.5518 588.153 49.5518C587.489 49.6182 586.824 49.6182 586.16 49.5518C585.894 49.4854 585.695 49.3525 585.562 49.0867C585.495 48.688 585.495 48.2229 585.695 47.8242L585.562 47.6249C585.296 46.894 584.831 46.296 584.166 45.8973C583.568 45.5651 582.837 45.698 582.439 46.2295C581.974 47.0269 581.508 47.7578 580.91 48.4222C580.246 49.2196 579.582 49.9505 578.851 50.6814C578.386 50.9471 577.987 51.2794 577.588 51.6116C577.123 52.0102 576.724 52.4754 576.326 53.0069H576.193C575.794 53.6714 575.329 54.2694 574.798 54.8674C574.332 55.3325 573.867 55.7976 573.269 56.1299L573.136 56.2627V56.3956C573.336 57.3923 573.934 58.1896 574.864 58.5883C575.794 59.0534 576.924 59.3192 577.987 59.2528C578.053 60.3159 577.788 61.7112 578.12 62.9073C578.518 63.5053 578.784 64.3026 580.645 64.1697C581.309 64.1697 582.04 64.0368 582.638 63.7046C582.904 63.7046 582.97 63.7046 583.103 63.8375C583.17 63.8375 583.17 64.1033 583.302 64.3026V65.0999C582.572 65.4322 581.708 65.7644 580.18 66.4288V66.5617C579.914 66.6946 579.648 66.8275 579.382 66.894C578.917 67.0268 578.452 67.0268 577.987 66.894H577.854C577.123 67.0933 576.459 67.5584 575.994 68.1564C575.728 68.688 575.13 69.7511 575.528 70.8807C575.794 72.276 576.99 72.5418 578.984 72.6083C579.714 72.4754 580.512 72.3425 581.442 72.1431C581.575 72.276 581.774 71.8109 582.173 72.1431C582.239 72.2096 582.306 72.0103 582.572 72.276C582.705 72.276 582.705 72.4754 582.705 72.6083C581.974 76.595 580.445 80.3159 578.186 83.6381C577.92 84.1033 577.721 84.5684 577.588 85.0999C577.522 85.4322 577.588 85.7644 577.721 86.0966L577.854 86.2295C578.585 86.4288 579.449 86.4288 580.18 86.2295C580.977 85.7644 581.841 85.2993 582.505 84.8341C583.236 84.3026 583.901 83.6381 584.565 82.9737C586.625 80.8474 588.95 78.987 591.475 77.3923C591.741 76.9936 592.14 76.5285 592.605 76.0634V76.0634ZM379.183 68.5551C378.718 68.09 378.253 68.09 377.655 68.5551C376.99 68.5551 376.459 69.0202 374.864 68.4222C374.266 68.4222 373.601 68.3558 373.003 68.2229C372.206 68.2229 371.475 68.1564 370.678 68.0235C370.08 68.0235 369.415 67.8906 368.817 67.6913C368.219 67.4255 367.688 67.0268 367.223 66.5617C365.362 65.6979 363.568 64.7677 361.575 63.8375C359.714 62.9073 357.92 61.977 355.927 61.1797C355.794 61.0468 355.794 61.1797 355.794 61.0468L356.392 60.4488C356.924 60.2495 357.389 59.9837 357.987 59.7843C358.518 59.585 359.05 59.3192 359.515 58.987C359.914 58.9205 360.312 58.7877 360.645 58.5219C361.043 58.1897 361.376 57.7245 361.575 57.2594L361.708 57.0601L361.575 56.9272C360.91 56.1298 359.98 55.5983 358.917 55.5319C357.588 55.5319 356.259 55.7976 354.997 56.3292L354.864 56.3956C354 57.193 353.003 57.8574 351.874 58.2561C351.608 58.2561 351.475 58.389 351.276 58.389C350.678 58.5219 350.013 58.389 349.482 58.1232H349.349C348.618 57.9903 347.887 57.791 347.156 57.5252C346.293 57.2594 345.495 56.9272 344.698 56.3956L344.565 56.2627C343.502 55.9305 342.306 55.9305 341.243 56.2627C340.312 56.5285 339.449 57.1265 338.917 57.9903V58.1897C339.05 58.987 339.582 59.7179 340.312 60.1166C341.309 60.6481 342.439 60.9804 343.568 61.1132C343.834 61.1132 344.1 61.1797 344.366 61.3126L344.499 61.4455V61.5783C344.299 61.7112 344.1 61.7777 343.834 61.7777L343.701 61.9106C343.435 61.977 343.236 62.0435 343.037 62.2428C342.837 62.3092 342.572 62.3757 342.372 62.4421C341.708 62.7744 340.778 63.1066 339.714 63.5717C338.518 63.9704 337.123 64.3691 335.528 64.9671C333.734 65.8309 331.874 66.4289 329.881 66.8275C328.685 67.0933 328.02 66.9604 327.887 66.4953L327.754 66.3624C327.555 66.296 327.356 66.1631 327.156 66.0302C326.957 66.0302 326.824 66.0302 326.691 66.1631C326.558 66.2295 326.359 66.0966 326.093 66.7611V66.894C325.761 68.688 325.761 70.5484 326.093 72.4089V72.5418C326.293 73.8707 327.688 74.4687 330.346 74.0036V73.8707C333.934 72.3425 337.854 70.482 341.641 68.4887C341.641 68.6215 342.306 68.09 342.638 68.4887C342.704 68.6215 342.771 68.8209 342.837 68.9538C342.837 71.3458 342.505 73.7378 341.708 76.0634C340.977 77.6581 340.047 78.7212 338.917 79.0534H338.784C337.655 79.585 336.592 80.1166 335.528 80.781C334.465 81.379 333.469 81.977 332.405 82.6415L332.273 82.7744C332.206 82.9072 332.073 82.9737 332.073 83.1066C331.94 83.4388 331.94 83.7046 332.206 83.9039C332.405 84.1033 332.605 84.2361 332.804 84.369C333.336 84.6348 333.934 84.7677 334.532 84.8341C335.728 84.967 336.857 85.1664 337.987 85.4986C339.249 85.6979 340.578 85.4986 341.774 84.9006C343.236 84.1033 344.499 83.0401 345.562 81.7112C346.027 81.3125 346.425 80.7146 346.625 80.1166C346.824 79.5185 347.023 78.9206 347.09 78.2561V78.1232C346.824 76.7279 347.289 74.8009 347.555 72.2096V71.7444C347.621 71.6116 347.688 71.4123 347.754 71.2794V71.1465C347.489 70.2162 347.356 69.286 347.156 68.4887C347.023 67.6913 346.824 66.9604 346.558 66.2295C346.625 66.0302 346.758 65.8309 346.891 65.6315C347.023 65.3657 347.223 65.2993 347.489 65.1664L347.954 64.9671H348.087C348.485 64.7677 348.817 64.502 349.15 64.3026L349.814 63.6382C350.412 63.6382 350.877 63.771 351.209 63.771C352.007 63.8375 352.738 64.0368 353.402 64.4355C354.133 64.7677 354.665 65.4986 354.798 66.3624C354.532 66.8275 354.332 67.2926 354.2 67.7577C354.067 68.2893 354 69.0202 353.867 69.6847C353.601 72.0767 354 74.9338 353.734 78.3225C353.668 79.585 353.601 80.9139 353.402 82.1763V84.8341C353.469 85.3657 353.668 85.8308 353.867 86.2959C354.133 86.6282 354.532 86.8939 354.93 86.9604C355.861 86.8275 356.724 86.6282 357.588 86.3624C360.711 84.1697 359.249 77.2594 359.05 73.2727C358.917 72.1431 358.917 71.08 359.05 69.9505C359.116 69.3525 359.316 68.7544 359.714 68.2229C362.04 69.6182 364.166 71.4787 365.827 73.6714H365.96C367.489 75.1332 369.283 76.1963 372.14 75.5318C374.598 75.0003 376.924 72.874 378.917 70.0169C379.249 69.6847 379.316 69.1531 379.116 68.688L379.183 68.5551V68.5551ZM314.864 73.9372C314.266 74.2694 313.535 74.4023 312.871 74.2694C312.14 74.0701 311.475 73.8043 310.877 73.3391C310.146 72.874 309.349 72.5418 308.552 72.2096C307.754 71.9438 306.891 71.7444 306.027 71.7444C303.236 70.8807 300.645 69.4853 298.386 67.6249C295.595 65.2993 293.003 62.6415 290.744 59.7179V59.585C290.412 59.3192 290.146 58.987 289.947 58.5883C289.881 58.2561 289.548 58.2561 290.279 58.0568C290.744 57.9239 291.209 57.8574 291.675 57.9239C294.93 58.1232 298.984 58.389 302.306 58.8541C303.701 59.3192 305.163 59.1863 306.492 58.5219C307.688 57.8574 308.352 56.595 308.817 54.8674L308.95 54.7345C309.017 54.0701 308.817 53.3392 308.352 52.8076C308.02 52.3425 307.422 52.276 306.625 52.4754H306.492C305.96 52.7412 305.562 52.6083 304.1 52.276C301.575 51.9438 299.249 51.5451 297.389 51.3458C295.396 51.2794 293.801 51.1465 292.538 51.1465C291.874 51.08 291.209 50.8807 290.678 50.482C290.08 50.1498 289.615 49.6847 289.283 49.0867C289.283 48.5551 289.083 48.09 288.685 47.6913C288.286 47.2926 287.356 46.7611 286.16 47.8907C285.695 48.2229 285.362 48.7544 285.229 49.3524C284.764 50.0169 284.1 50.6149 283.369 51.08C282.638 51.5451 281.907 51.8109 281.043 51.8774C278.518 51.8774 275.794 51.8774 273.203 52.6083C272.339 52.9405 271.342 53.0069 270.412 52.8076H270.479C268.751 52.3425 267.555 52.5418 266.891 53.4721C266.16 54.2694 266.093 55.6647 266.425 57.5916C266.691 62.9073 275.794 59.9837 280.312 58.4554C281.176 58.3225 282.239 57.8574 283.435 58.3225C283.834 58.9205 284.233 59.3192 283.236 60.5817C279.781 65.0999 274.465 68.688 268.751 71.7444H268.618C266.824 72.8076 265.429 73.472 264.366 73.6049C264.033 73.6714 263.635 73.6714 263.303 73.6049C263.037 73.5385 262.837 73.4056 262.704 73.1398L262.505 72.3425C262.306 72.0767 262.106 71.7444 261.907 71.4122C261.708 71.1464 261.376 71.1465 261.11 71.2794C260.844 71.3458 260.645 71.6116 260.645 71.9438C260.512 72.276 260.379 72.6747 260.379 73.0733C260.246 74.6016 260.312 76.1298 260.711 77.6581C260.977 78.7212 261.708 79.6514 262.704 80.0501C263.9 80.5816 265.296 80.5152 266.425 79.9172C268.153 79.3192 269.681 78.389 271.077 77.2594C273.668 75.399 276.525 72.874 279.781 70.2162C280.512 69.6847 280.844 69.286 281.176 69.0866C281.774 68.6215 282.505 68.0235 283.502 67.1598C283.768 67.0933 283.701 66.8275 284.366 67.0933C284.499 67.1597 284.499 67.4255 284.499 67.7577C284.166 71.08 283.768 73.9371 283.568 76.1963C283.369 78.4554 283.236 80.183 283.103 81.4455C283.17 83.1066 282.904 84.6348 283.435 86.2959L283.568 86.4288C284.366 87.0268 285.362 87.2262 286.359 87.0268C287.356 86.761 288.219 86.1631 288.817 85.2993L288.95 85.0999V67.6913H288.817V66.5617C288.95 66.3624 289.017 66.2295 289.15 66.2295L289.283 66.0966C289.283 65.9637 289.415 65.9637 289.615 66.0966C289.814 66.0966 290.08 66.3624 290.412 66.5617C293.867 69.1531 296.791 73.2727 300.18 77.9903C305.097 84.2361 310.479 81.8441 316.06 75.9305C316.259 75.6647 316.392 75.399 316.525 75.1332C316.658 74.8674 316.658 74.6016 316.525 74.3358C316.392 73.7378 315.794 73.6049 314.864 73.9372V73.9372ZM426.425 59.7843H426.293C425.761 59.9837 425.229 59.9837 424.698 59.7843C424.1 59.5186 423.502 59.3857 422.837 59.3192C422.239 59.1863 421.708 59.1863 421.11 59.3192C420.512 59.3192 419.98 59.1863 419.382 59.1863C418.718 59.0534 417.987 58.987 417.322 58.8541C416.924 58.8541 416.459 58.7877 416.126 58.5219C415.794 58.3226 415.661 57.9903 415.661 57.5916C415.196 57.0601 414.798 55.7976 412.804 55.8641C412.206 56.0634 411.675 56.3956 411.276 56.8608C410.811 57.3923 410.479 58.0568 410.213 58.7212C409.814 58.8541 409.482 59.0534 409.15 59.1863C408.087 59.7843 406.957 60.183 405.761 60.3823C404.233 60.7146 402.638 60.7146 401.11 60.5152C399.98 60.5817 398.984 61.1132 398.319 61.977C397.788 63.173 397.588 64.5684 397.721 65.8973C398.452 68.8873 398.518 71.4122 397.854 73.6714C397.322 75.9305 396.06 77.9903 394.266 79.5185C393.402 80.183 392.538 80.9139 391.807 81.7112C391.077 82.4421 390.346 83.2395 389.748 84.1033C389.482 84.5684 389.415 84.9006 389.615 85.2328C389.947 85.6315 389.881 85.4986 391.342 85.8308C391.741 85.9637 392.073 86.0966 392.405 86.2959L392.538 86.4288C393.336 86.4953 394.133 86.4288 394.93 86.2295C395.661 86.0302 396.326 85.698 396.924 85.2328C398.518 83.7046 399.914 81.977 401.176 80.1166C402.04 78.5883 402.439 77.3259 402.239 76.3292C402.306 75.4654 402.505 74.5352 402.704 73.6714C402.771 73.1398 402.97 72.6082 403.369 72.2096C403.568 71.8773 403.635 71.5451 403.701 71.1465C403.901 70.5485 403.635 69.5518 404.166 68.3558C404.299 67.9571 404.565 67.8906 404.764 67.7577H405.229C405.827 67.6248 406.359 67.492 406.957 67.2927L408.552 66.4953C408.751 66.4953 408.95 66.4953 409.15 66.3624V66.4288C409.415 66.4288 409.615 66.4953 409.881 66.5617C410.279 66.7611 410.346 67.1598 410.479 67.8242C410.412 69.0202 410.279 70.1498 410.279 71.2794C410.213 72.0767 410.08 73.0069 410.08 73.9372C409.947 78.9206 408.751 83.7046 409.681 88.2229C409.947 88.5551 410.346 88.7544 410.744 88.8209C411.276 88.8873 411.807 88.8208 412.339 88.688C412.804 88.4886 413.136 88.1564 413.402 87.7577C413.535 87.4255 413.734 87.0933 414 86.8275C414.2 86.5617 414.465 86.3624 414.798 86.2295H414.93C415.329 85.8308 415.595 85.2993 415.728 84.7677C415.994 84.0368 416.126 83.3059 416.193 82.5086V82.3757C416.06 81.1132 415.994 79.3192 415.861 77.2594C415.861 75.0667 415.861 72.5418 415.994 69.6847C415.396 65.4322 418.718 65.3657 422.173 66.0966C422.638 66.3624 423.635 66.296 423.302 67.5584V67.6913C423.568 69.5518 423.701 71.4123 423.768 73.2727C423.901 74.2694 423.901 75.3325 423.768 76.3292C423.701 77.2594 423.701 78.2561 423.768 79.1863C423.768 79.7179 423.834 80.2494 424.033 80.781C424.1 81.1132 424.1 81.5783 424.233 82.1763V84.5684C424.631 85.3657 425.097 85.8308 425.761 85.6979C426.093 85.6979 427.09 85.2993 428.087 84.3026C428.286 83.9039 428.352 83.5052 428.419 83.0401C428.419 82.3757 428.419 81.7777 428.286 81.1132C428.286 79.9837 428.219 78.9205 428.02 77.791C427.954 76.1963 427.688 74.2694 427.356 71.8773C427.09 70.8142 427.09 69.7511 427.356 68.688C427.688 67.0933 428.153 65.565 428.751 64.1033C428.95 62.575 428.95 61.4455 428.618 60.781C428.153 59.9837 427.289 59.585 426.425 59.7843V59.7843Z" fill="#1B1918"/>
<path d="M440.646 52.4737C440.513 52.2079 440.314 52.0085 440.048 51.8757C439.782 51.7428 439.383 51.7428 439.118 51.8757C438.719 52.075 438.32 52.1414 437.855 52.2079C437.523 52.2743 437.124 52.2079 436.792 52.075C436.46 51.9421 435.995 51.9421 435.663 52.075C435.064 52.1414 434.467 52.3408 433.935 52.5401H433.802C433.005 52.673 433.403 53.271 431.809 52.5401H431.676C429.882 52.0085 428.088 51.6099 426.227 51.2776C424.566 50.9454 422.905 50.8125 421.244 50.7461C420.447 50.9454 419.583 50.879 418.785 50.5467C418.187 50.281 417.789 49.7494 417.656 49.1514C417.324 48.3541 416.792 47.6231 416.061 47.0916C415.064 46.4271 414.001 45.962 412.805 45.6298C411.742 45.2976 410.945 45.2976 410.347 45.7627C409.749 46.2278 409.284 46.8922 409.084 47.6231C409.084 47.756 409.018 47.8225 409.018 47.9554C408.619 49.2178 407.623 50.281 406.36 50.8125C404.234 52.0085 398.918 51.6763 395.995 52.2743C394.932 52.4736 393.869 52.7394 392.872 53.2046C392.34 53.6032 391.742 54.1348 390.679 53.4703H390.546C389.749 53.2046 388.885 53.4039 388.221 53.9354C387.822 54.3341 387.556 54.7992 387.423 55.3308V56.261C386.56 66.2278 402.573 55.9288 406.294 56.261C407.357 56.0617 408.287 55.7959 409.084 55.5966C410.613 55.2643 412.207 55.1979 413.736 55.3308C416.593 55.1979 419.45 55.4637 422.241 56.0617C424.766 56.7261 427.224 57.7893 429.417 59.2511C431.344 60.1813 433.204 60.9122 435.862 59.9155L435.995 59.7826C437.39 58.9853 438.586 57.7893 439.317 56.3275V56.1281C439.251 55.7959 439.317 55.4637 439.45 55.1979C439.649 54.8657 439.915 54.5999 440.247 54.4006H440.38C440.579 54.2012 440.712 53.9354 440.712 53.6032C440.779 53.271 440.779 52.9388 440.712 52.6065L440.646 52.4737V52.4737Z" fill="#1B1918"/>
</svg>
