<svg width="128" height="128" viewBox="0 0 128 128" fill="none" xmlns="http://www.w3.org/2000/svg">
<path d="M58.9498 25.9998C67.2998 23.8998 75.7498 25.1998 82.8998 28.8998C77.1998 27.5998 70.9498 27.4498 64.7498 28.9998C46.3498 33.4998 35.2498 50.8498 39.9998 67.6498C40.8998 70.7998 42.3998 73.5498 44.2498 76.1998C40.5498 72.6498 37.8998 68.1998 36.4498 63.1998C31.6498 46.8998 41.7498 30.1998 58.9498 25.9998ZM78.9998 85.0998C76.0998 86.7998 72.7498 88.2498 69.0498 89.0498C50.8998 93.1498 31.8998 82.5998 26.9998 65.3998C22.3498 49.8998 30.8498 33.9498 45.9498 28.1998C34.9498 35.2998 29.4998 48.9498 33.3498 62.4998C38.3998 79.7498 56.7998 90.4998 74.3498 86.4498C76.0498 86.1498 77.5498 85.6498 78.9998 85.0998ZM22.2998 56.0498C25.1998 101.5 85.8998 103.85 93.6998 67.2498C98.5998 44.8498 71.1998 25.3498 47.9998 43.1498C61.8998 24.5498 92.3498 27.1998 102.55 47.9998C103.5 49.8498 104.15 51.6998 104.8 53.6498C105.75 56.7998 106.15 60.0998 106.25 63.3998V63.9498C106.25 64.9998 106.1 66.1998 106 67.3998C104.7 81.7498 94.7498 94.5498 80.0498 100.05C79.6498 100.2 79.3998 100.3 79.0998 100.45H78.9998C78.7498 100.6 78.4498 100.7 78.0498 100.85H77.8998C49.0498 110.2 15.9498 87.9498 22.2998 56.0498Z" fill="#005DA9"/>
<path d="M66.35 41.9493C78.15 41.9493 87.8 51.0493 87.8 62.1493C87.8 73.2493 78.15 82.1993 66.35 82.1993C54.45 82.1993 44.75 73.2493 44.75 62.1493C44.8 51.0493 54.45 41.9493 66.35 41.9493ZM66.35 71.2493L76.8 62.1493L66.35 52.8993L55.9 62.1493L66.35 71.2493Z" fill="#F8A600"/>
</svg>
