<svg width="46" height="46" viewBox="0 0 46 46" fill="none" xmlns="http://www.w3.org/2000/svg">
<g clip-path="url(#clip0_338_13280)">
<path d="M38.5389 0H7.46107C3.34039 0 0 3.34039 0 7.46107V38.5385C0 42.6596 3.34039 46 7.46107 46H38.5385C42.6592 46 45.9996 42.6596 45.9996 38.5389V7.46107C46 3.34039 42.6596 0 38.5389 0ZM23.0018 35.04C21.3711 35.0422 19.7477 34.8234 18.1763 34.3886C17.7262 34.4699 17.2873 34.6042 16.8691 34.7884L13.8957 36.6405C13.0242 37.2191 12.7358 37.0039 13.0606 35.9878L13.712 33.6658C13.7479 33.2031 13.7115 32.7373 13.6041 32.2858C10.0562 30.0689 7.851 26.2254 7.72746 22.0436C7.72746 14.8912 14.5834 9.04592 23.0022 9.04592C27.7532 8.96281 32.3015 10.9659 35.4479 14.5264L21.222 21.2799C20.3375 21.9686 19.0788 21.8913 18.285 21.0994L15.9967 19.0653C14.946 18.736 14.5825 19.1017 14.9109 20.0437L17.3771 26.0363C17.922 26.9441 18.7571 27.2361 20.1362 26.2169L36.6423 16.1562C37.7011 17.9234 38.2645 19.9426 38.273 22.0027C38.2766 29.1947 31.417 35.04 23.0018 35.04Z" fill="#2AAC38"/>
</g>
<defs>
<clipPath id="clip0_338_13280">
<rect width="46" height="46" fill="white"/>
</clipPath>
</defs>
</svg>
