<svg width="128" height="128" viewBox="0 0 128 128" fill="none" xmlns="http://www.w3.org/2000/svg">
<path d="M74.3805 36.1504C72.5294 35.8502 70.6283 35.6501 68.7272 35.5C66.6259 37.6012 64.1745 40.0026 61.673 42.4541C48.115 55.862 47.6648 56.3623 47.5147 56.5624C44.4629 60.2145 44.4629 65.0174 45.9638 67.819C47.3646 70.4205 49.666 72.1215 52.3175 72.6218C55.5194 73.2222 59.0215 72.1716 61.9232 69.7201C62.3234 69.4199 63.2239 68.4194 65.4753 65.9679C67.1262 64.2169 69.5777 61.5653 70.0279 61.1651C71.1286 60.2646 72.2793 59.6642 73.3299 59.4141C75.7313 58.8137 77.7825 59.8643 78.8831 62.2157C80.1839 64.8673 78.583 67.5188 77.0321 69.2198C76.2316 70.1204 64.3746 81.7772 54.6189 91.3829C56.47 91.683 58.3711 91.8832 60.3222 91.9832C67.9767 84.4288 79.3834 73.2222 80.284 72.2216C83.786 68.3693 84.7366 64.1168 82.8855 60.2646C80.8843 56.0621 76.7319 54.0109 72.3293 55.1115C70.6783 55.5118 68.9773 56.4123 67.3264 57.7131C66.776 58.1633 65.3752 59.6142 62.3234 62.9161C61.0226 64.2669 59.4717 65.9679 59.1215 66.2681C57.2204 67.819 55.0191 68.5694 53.168 68.2192C51.7672 67.9691 50.6165 67.0686 49.816 65.6177C49.1156 64.367 49.0156 61.6154 50.8667 59.364C51.8172 58.3634 66.8761 43.5047 74.3805 36.1504Z" fill="#B4B4B3"/>
<path d="M78.9838 37.1009C95.0433 41.1033 106.5 51.5094 106.5 63.6666C106.5 78.9756 88.4394 91.4329 65.8261 91.9832C73.3305 84.6289 82.3358 75.7737 83.1863 74.8231C87.789 69.7702 88.9897 63.8167 86.4382 58.5135C83.6366 52.6601 77.583 49.7584 71.4294 51.2092C69.1781 51.7596 66.9768 52.8602 64.8755 54.5612C64.1251 55.1616 62.9744 56.3623 59.4223 60.1645C58.3717 61.2652 55.57 64.2169 55.47 64.317C55.2198 64.5171 54.8696 64.6672 54.5194 64.6672C53.719 64.6672 53.0686 64.0168 53.0686 63.1663C53.0686 62.766 53.2187 62.4158 53.4688 62.1657C53.5689 62.1157 71.8296 44.1051 78.9838 37.1009ZM75.1315 65.6677C75.1315 65.6677 59.4223 81.0268 49.7666 90.4323C33.3069 86.48 21.5 76.0739 21.5 63.7666C21.5 48.3576 40.0609 35.8502 63.1745 35.5C61.7737 36.8508 60.2728 38.3016 58.822 39.7525C44.9138 53.2604 44.5135 53.7107 44.2134 54.1109C39.8108 59.364 40.1109 65.9179 42.2622 69.7702C44.2634 73.3723 47.5153 75.7737 51.4176 76.5241C55.8202 77.3246 60.523 75.9738 64.3752 72.7719C64.9255 72.3217 65.626 71.6212 68.3276 68.7195C69.7284 67.2687 73.1804 63.7166 73.2304 63.6666C73.4806 63.3164 73.8808 63.0662 74.3811 63.0662C75.1315 63.0662 75.7819 63.6666 75.7819 64.467C75.7319 64.9673 75.4818 65.4176 75.1315 65.6677Z" fill="#0068B6"/>
</svg>
