<svg width="452" height="128" viewBox="0 0 452 128" fill="none" xmlns="http://www.w3.org/2000/svg">
<path d="M333.191 90.561L346.21 103.505V91.0407H350.068V111.655H349.585L336.084 98.711V111.175H332.708V90.5614H333.191V90.561ZM406.773 90.9517C412.49 90.9517 417.125 95.5865 417.125 101.303C417.125 107.02 412.49 111.655 406.773 111.655C401.056 111.655 396.422 107.02 396.422 101.303C396.422 95.5865 401.056 90.9517 406.773 90.9517ZM296.544 90.5614L301.848 103.026L306.188 91.0407H309.563L301.848 111.655H301.366L296.544 99.1907L291.722 111.655H291.24L283.525 91.0407H286.9L291.722 103.026L296.544 90.5614H296.544ZM424.326 91.0407V102.546C424.326 104.464 424.808 105.902 425.773 106.861C426.737 107.82 427.701 108.299 429.63 108.299C431.077 108.299 432.041 107.82 433.006 106.861C433.97 105.902 434.452 104.464 434.452 102.546V91.0411H437.828V102.547C437.828 105.423 436.863 107.341 435.417 109.258C434.452 110.696 432.041 111.655 429.63 111.655C427.219 111.655 424.809 110.696 423.362 109.258C421.433 107.341 420.951 105.423 420.951 102.547V91.0411H424.326V91.0407ZM151.601 91.9997C153.894 92.0001 155.3 92.0261 156.707 92.9582C158.153 93.9172 158.635 94.8758 158.635 96.7934C158.635 97.6117 158.533 98.463 157.95 99.1907C157.367 99.9183 156.707 100.149 155.742 100.629C156.707 100.629 159.117 102.305 159.117 105.902C159.117 107.82 158.635 109.258 157.189 110.217C155.742 111.175 153.813 111.655 151.402 111.655H143.688V91.9993L151.601 91.9997ZM183.71 90.5614L197.211 103.505V91.0407H201.069V111.655H200.587L187.085 98.711V111.175H183.71V90.5614V90.5614ZM243.101 90.9517C248.818 90.9517 253.453 95.5865 253.453 101.303C253.453 107.02 248.818 111.655 243.101 111.655C237.384 111.655 232.75 107.02 232.75 101.303C232.75 95.5865 237.384 90.9517 243.101 90.9517ZM378.517 91.0407V99.1902H388.643V91.0407H392.019V111.175H388.643V102.067H378.517V111.176H375.142V91.0411H378.517V91.0407ZM170.69 90.5614L181.298 111.175H177.441L175.994 107.82H166.351L164.422 111.175H160.564L170.69 90.5614V90.5614ZM210.231 91.0407V100.149L218.91 91.0407H223.25L213.606 100.629L224.214 111.175H219.392L210.231 101.588V111.175H206.373V91.0411H210.231V91.0407ZM371.285 91.0407L359.712 107.82H370.802V111.175H353.925L365.498 93.9172H354.408V91.0407H371.285V91.0407ZM327.887 91.0407V94.3965H315.832V99.1907H326.923V102.067H315.832V107.82H327.887V111.175H312.457V91.0411H327.887L327.887 91.0407ZM272.916 91.0407V94.3965H261.826V99.1907H272.916V102.067H261.826V111.175H257.968V91.0411H272.916V91.0407ZM151.885 102.067H147.545V108.299H151.885C153.331 108.299 154.296 107.82 154.778 107.34C155.26 106.861 155.742 106.382 155.742 105.423C155.742 104.464 155.26 103.505 154.778 103.026C154.296 102.546 152.849 102.067 151.885 102.067V102.067ZM406.773 94.858C403.214 94.858 400.328 97.7437 400.328 101.304C400.328 104.863 403.213 107.749 406.773 107.749C410.333 107.749 413.218 104.863 413.218 101.304C413.218 97.7441 410.333 94.858 406.773 94.858ZM243.101 94.858C239.542 94.858 236.656 97.7437 236.656 101.304C236.656 104.863 239.542 107.749 243.101 107.749C246.661 107.749 249.547 104.863 249.547 101.304C249.547 97.7441 246.661 94.858 243.101 94.858ZM170.69 97.2727L167.315 104.464H174.066L170.69 97.2727V97.2727ZM151.885 93.9172H147.545V99.6699H151.885C152.849 99.6699 153.581 99.3583 154.296 98.711C155.01 98.0636 155.26 97.2727 155.26 96.3141C155.26 95.3551 154.778 94.8758 154.296 94.3965C153.813 93.9172 152.849 93.9172 151.885 93.9172V93.9172ZM242.056 23.3735V52.8122C242.056 63.7328 237.716 74.6534 234.341 78.4521H225.179C226.143 76.078 227.59 74.1786 228.554 71.8045C230.965 66.1069 232.894 59.934 232.894 52.3374V23.3735H242.056ZM311.01 23.9472L310.045 27.8022H322.1V34.0673H308.599L306.67 39.8502H322.1V46.1149H312.457V54.3076H322.1V60.5723H312.457V72.6199H322.1V78.4032H303.777V60.5727H296.544V54.3076H303.777V47.0789H295.58C297.933 40.4926 300.746 32.5289 302.673 24.532L302.812 23.9472H311.01ZM393.466 38.4045C392.533 41.1995 390.7 44.4449 388.836 47.2701L388.643 47.5607V78.4032H379.964V58.1626H370.802C376.481 52.4868 380.767 46.3467 384.571 38.8312L384.786 38.4045H393.466V38.4045ZM263.754 22.9828V38.4045H271.469L276.291 55.2711V22.9832H284.971V78.4032H276.292V56.2351H268.094L263.754 40.332V78.4032H254.593V56.2351H246.878L242.056 38.4045H250.253L254.593 55.2711V22.9832H263.754V22.9828ZM360.676 23.465V52.3796H345.246C346.692 56.7172 349.104 60.5723 351.032 64.4277C353.867 63.0109 357.629 60.2055 361.409 56.4652L361.64 56.2351V64.9095C359.23 66.3552 357.301 68.2827 354.408 69.7284C356.284 73.0106 358.617 75.8367 361.851 78.2066L362.123 78.4032H351.996C347.657 73.5839 343.799 67.8009 339.942 60.0901C338.592 57.3915 337.661 55.1122 336.367 52.4695L336.084 51.8975H333.673V71.6559C336.041 71.6559 341.199 70.2611 342.754 69.7549L342.835 69.728L346.21 75.0292C345.246 75.5113 340.754 76.4886 338.977 76.9571C334.721 77.902 330.928 78.3838 324.87 78.402L324.511 78.4028V23.4646H360.676V23.465ZM437.828 41.4168V47.5892H431.559V75.6028C431.559 77.5026 430.595 77.9769 429.148 77.9769H411.307V71.8045H422.879V47.1145H397.323V41.4168H437.828V41.4168ZM158.153 52.3374L152.849 77.9769H144.17L148.992 52.3374H158.153V52.3374ZM208.302 52.3374V72.2793H211.195V77.9769H158.153V72.2793H162.011V52.3378H208.302V52.3374ZM199.622 58.5098H194.318V72.2793H199.622V58.5098H199.622ZM186.603 58.5098H181.781V72.2793H186.603V58.5098ZM174.548 58.5098H169.726V72.2793H174.548V58.5098ZM231.929 38.4045L228.554 56.2351H220.839L223.732 38.4045H231.929ZM153.331 37.1434L158.153 49.0139H148.992L143.688 37.1434H153.331V37.1434ZM206.855 23.3739V49.0134H162.493V23.3739H206.855H206.855ZM352.479 40.8138H333.191V46.1149H352.478V40.8138H352.479ZM198.175 39.0423H171.173V42.841H198.175V39.0427V39.0423ZM391.537 23.3739C388.644 30.0211 383.339 38.568 379.964 41.8916H370.802C374.659 37.1434 379 31.4457 382.375 23.3739H391.537ZM153.331 23.3739L158.153 35.2444H148.992L144.17 23.3739H153.331V23.3739ZM352.479 30.2115H333.191V35.0309H352.478V30.2119L352.479 30.2115ZM198.175 29.5463H171.173V33.3446H198.175V29.5463ZM435.417 24.7982V30.971H399.252V24.7982H435.417Z" fill="black"/>
<path d="M84.9356 14L78.238 23.1471L45.7067 65.5141L65.3212 80.92L79.1949 63.1069H119.859L103.115 85.2531L94.0256 96.8078C93.5471 97.2891 90.1983 101.141 89.2414 102.104C87.806 103.066 86.371 104.511 84.9356 105.473C82.5433 107.399 80.1518 108.362 77.7595 109.807C60.5374 117.991 38.5306 114.14 25.1354 98.7336C10.7832 81.8832 10.3047 58.7738 23.7 41.4424L44.2714 14H84.9356V14ZM126.5 26.4996L99.1562 62.0469L87.4372 52.7947L107.457 26.5H126.5V26.4996ZM101.109 26.4996L83.5888 49.5469L71.4216 40.4242L82.6153 26.4996H101.109Z" fill="#F9B71F"/>
</svg>
