<svg width="128" height="128" viewBox="0 0 128 128" fill="none" xmlns="http://www.w3.org/2000/svg">
<path d="M21.5 64C21.5 69.5812 22.5993 75.1077 24.7351 80.264C26.8709 85.4204 30.0015 90.1056 33.948 94.052C37.8945 97.9985 42.5796 101.129 47.736 103.265C52.8923 105.401 58.4188 106.5 64 106.5C69.5812 106.5 75.1077 105.401 80.264 103.265C85.4204 101.129 90.1056 97.9985 94.052 94.052C97.9985 90.1056 101.129 85.4204 103.265 80.264C105.401 75.1077 106.5 69.5812 106.5 64C106.5 58.4188 105.401 52.8923 103.265 47.736C101.129 42.5796 97.9985 37.8945 94.052 33.948C90.1056 30.0015 85.4204 26.8709 80.264 24.7351C75.1077 22.5993 69.5812 21.5 64 21.5C58.4188 21.5 52.8923 22.5993 47.736 24.7351C42.5796 26.8709 37.8945 30.0015 33.948 33.948C30.0015 37.8945 26.8709 42.5796 24.7351 47.736C22.5993 52.8923 21.5 58.4188 21.5 64Z" fill="#00487A"/>
<path d="M31.938 57.8502C31.938 57.8502 33.8419 58.4027 34.1522 59.5502C34.1522 59.5502 40.8077 70.1539 44.8749 71.7095C44.8749 71.7095 47.6757 72.6615 49.1505 70.5237C49.1505 70.5237 47.595 70.8595 46.0777 69.2359C46.0777 69.2359 40.8247 61.96 37.752 58.6917C37.4332 58.356 36.8085 57.9098 35.6652 57.8502H31.938ZM49.941 57.8502C49.941 57.8502 50.9779 58.4453 50.8037 59.2654V68.1692C50.8037 68.1692 51.2627 70.3282 48.5469 72.2747C48.5469 72.2747 53.0434 73.044 54.1909 68.301V57.8501H49.9411L49.941 57.8502ZM79.8737 60.3961H79.028C79.7801 60.6256 79.8737 61.8114 79.8737 61.8114V71.7095H82.6956V62.9418C82.7807 62.555 81.8669 62.3765 81.8669 62.3765C82.1219 62.2278 84.6719 62.3765 84.6719 62.3765C86.0319 62.7039 86.0829 63.7918 86.0829 63.7918V69.7291C86.5802 72.2026 89.1854 71.7095 89.1854 71.7095V63.2266C88.0804 60.2218 85.7981 60.3961 85.7981 60.3961H79.8737ZM89.4701 56.1545C89.4701 56.1545 90.2734 56.231 90.3159 57.0046V71.7095H93.1378V66.0528L96.7078 70.4431C96.7078 70.4431 97.7662 71.9433 100.758 71.429C100.758 71.429 97.5112 67.145 95.6794 65.7723C95.6794 65.7723 98.6884 64.1616 100.473 60.7743C100.473 60.7743 98.3569 61.1951 97.4729 60.8465C97.4729 60.8465 95.7219 63.9958 93.1379 65.207V56.1545H89.47H89.4701ZM56.1672 57.8503C56.1672 57.8503 56.979 58.0713 57.0129 58.985V71.7095H64.3485C64.3485 71.7095 68.5305 71.8073 67.9354 66.9496C67.9354 66.9496 67.5615 64.4293 64.9136 64.0723C64.9136 64.0723 65.3514 64.1319 66.1717 63.6388C67.3999 62.9036 67.4085 58.2626 62.9374 57.8503H56.1672ZM58.9297 59.5503H62.0917C63.9022 59.5503 64.3867 61.28 64.3867 61.28L64.3697 62.2831C64.1445 63.5623 62.3424 64.0511 62.3424 64.0511L59.5544 64.0723V60.3961C59.5672 59.8224 58.9297 59.5503 58.9297 59.5503ZM59.5545 65.2071H62.5167C64.629 65.2071 64.9136 67.2641 64.9136 67.2641L64.8924 68.4541C64.6332 69.9713 62.8099 70.5536 62.8099 70.5536L59.5545 70.5791V66.2143C59.5672 65.5301 59.5545 65.207 59.5545 65.207V65.2071ZM75.6407 66.0528C75.6407 66.0528 75.6279 66.329 75.6407 66.9028V70.5791L73.2394 70.5578C73.2394 70.5578 71.8965 70.0691 71.7052 68.7898L71.6882 67.7868C71.6882 67.7868 71.8964 66.0528 73.4562 66.0528H75.6407ZM69.4314 61.7859L69.4187 63.7408C71.6839 61.9899 74.5102 62.096 74.5102 62.096C75.4027 62.2788 75.3559 63.2266 75.3559 63.2266V64.6418H72.2536C69.5547 64.9818 68.8662 67.1833 68.8662 67.1833V70.0138C69.5761 71.6628 70.8893 71.8456 70.8893 71.8456C73.1375 72.2068 78.3736 71.684 78.3736 71.684V63.3031C78.0378 61.025 75.9213 60.3961 75.9213 60.3961C71.412 59.7586 69.4315 61.7859 69.4315 61.7859H69.4314Z" fill="white"/>
<path d="M26.8083 72.0113C26.8083 72.0113 31.1051 71.7946 44.3439 56.5625C46.5453 54.0338 52.6059 51.947 57.6888 51.947C64.1956 52.4953 70.4728 53.9488 75.6408 53.8936C77.5533 53.8723 82.3685 52.9246 81.9563 51.335C81.4718 49.4608 80.2818 49.7328 80.2818 49.7328C80.2818 49.7328 82.6193 48.5258 84.8803 48.9551C87.205 49.397 89.194 50.3363 90.7878 49.2185C92.1053 48.2964 92.8533 46.8215 92.8533 46.8215C92.8533 46.8215 93.1763 48.1179 92.5643 49.8476C91.6973 52.2998 87.341 55.6616 80.8301 57.4126C74.7908 58.7386 67.9824 56.3883 63.9916 55.0241C59.801 53.5961 54.6373 51.5773 49.2568 57.1066C43.6978 62.8186 42.4611 65.9678 37.9263 68.9471C32.7541 72.3513 26.8083 72.0113 26.8083 72.0113Z" fill="#993300"/>
<path d="M55.7764 53.6131C59.1212 52.7928 61.2632 54.0933 63.9917 55.0241C67.9824 56.3883 74.7909 58.7385 80.8302 57.4126C87.3411 55.6616 91.6974 52.2998 92.5644 49.8476C93.1764 48.1179 92.8534 46.8215 92.8534 46.8215C92.8534 46.8215 92.1053 48.2964 90.7879 49.2185C89.1941 50.3363 87.2051 49.397 84.8804 48.9551C82.6194 48.5257 80.2819 49.7328 80.2819 49.7328C80.2819 49.7328 81.4719 49.4609 81.9563 51.335C82.3687 52.9246 77.5534 53.8723 75.6409 53.8936C70.4729 53.9488 64.1957 52.4953 57.6889 51.947C54.9732 51.947 51.9812 52.5421 49.4482 53.4813C51.1227 53.3836 53.32 52.7588 55.7764 53.6131Z" fill="#FF3300"/>
</svg>
