<svg width="128" height="128" viewBox="0 0 128 128" fill="none" xmlns="http://www.w3.org/2000/svg">
<path d="M21.75 68.5C21.6 67 21.5 65.5 21.5 63.95C21.5 62.45 21.6 60.95 21.75 59.5H51V68.5H21.75ZM64.45 21.5C85.4 21.5 102.85 36.5 106.5 56.3H65.7V72.05H106.45C102.65 91.65 85.3 106.5 64.5 106.5C43.65 106.5 26.3 91.65 22.55 72.05H51.3V81H36.8C42.55 90.25 52.85 96.45 64.6 96.45C76.35 96.45 86.65 90.3 92.4 81H56.15V47.3H92.5C86.8 37.85 76.4 31.55 64.5 31.55C52.6 31.55 42.25 37.85 36.5 47.3H51.2V55.95H22.5C26.3 36.35 43.65 21.5 64.45 21.5Z" fill="#E50113"/>
</svg>
