<svg width="487" height="128" viewBox="0 0 487 128" fill="none" xmlns="http://www.w3.org/2000/svg">
<path d="M14.2692 69.3163C14.0897 67.5666 14 65.7721 14 63.9776C14 62.2279 14.0897 60.4782 14.2692 58.7734H48.8138V69.3163H14.2692ZM64.4262 14C89.1458 14 109.693 31.6312 114 54.9152H65.8618V73.4437H113.955C109.514 96.5482 89.0112 114 64.4262 114C39.8412 114 19.3836 96.5482 14.8973 73.4885H48.769V84.0314H31.6761C38.4504 94.9331 50.6083 102.201 64.4262 102.201C78.2441 102.201 90.402 94.9331 97.1763 84.0314H54.4666V44.3724H97.4455C90.716 33.2912 78.4684 25.8439 64.4262 25.8439C50.384 25.8439 38.1812 33.2463 31.4518 44.3724H48.8138V54.5563H14.8973C19.3836 31.4518 39.8412 14 64.4262 14Z" fill="#E50113"/>
<path d="M161.69 62.8994C162.722 58.9065 163.26 56.2148 163.26 54.824C163.26 53.837 162.587 52.4014 161.241 50.562C159.537 48.1843 158.684 46.0757 158.684 44.1914C158.684 43.3839 158.953 42.5315 159.537 41.6791C160.12 40.8267 161.017 39.9743 162.318 39.1668C166.356 36.7442 168.375 34.9496 168.375 33.7383C168.375 33.4691 168.285 33.2 168.061 32.9756C166.984 31.8092 166.221 30.6876 165.772 29.7006C165.324 28.7136 164.875 27.9958 164.471 27.5472C164.023 27.0986 163.799 26.7845 163.799 26.6051C163.799 26.4256 163.933 26.3359 164.202 26.3808C164.471 26.3808 164.965 26.5602 165.772 26.9191C166.535 27.278 167.432 27.5921 168.419 27.8164C171.739 28.6239 174.072 29.6109 175.508 30.7773C176.899 31.9438 177.616 33.6486 177.616 35.8469C177.616 36.475 177.527 36.8787 177.302 37.1031C177.078 37.3274 176.629 37.5068 175.912 37.6863C175.194 37.8657 174.611 37.9555 174.117 37.9555L172.951 37.8657C172.412 37.8657 171.919 38.0452 171.425 38.4041C170.932 38.763 170.483 38.9424 170.034 38.9424C169.586 38.9424 169.182 38.8079 168.733 38.5387C168.33 38.2695 167.657 38.1349 166.715 38.1349C165.772 38.1349 164.741 38.4489 163.619 39.0322C162.497 39.6602 161.914 40.1986 161.914 40.6921C161.914 41.1856 162.049 41.724 162.363 42.3072C162.677 42.8904 163.395 43.6979 164.561 44.7298C165.683 45.7616 166.759 47.0627 167.746 48.588C168.733 50.1582 169.227 51.5041 169.227 52.5808C169.227 53.6576 168.823 54.4651 167.971 54.9586C167.163 55.4072 166.356 56.5288 165.548 58.2785C164.696 60.073 163.44 61.5983 161.69 62.8994V62.8994ZM185.602 65.4566C187.172 65.4566 189.281 65.322 191.928 64.9631C194.575 64.6042 196.638 64.2004 197.984 63.7069C199.375 63.2134 200.9 62.9891 202.56 62.9891C204.265 62.9891 206.104 63.6172 208.213 64.7836C210.277 65.9949 211.309 67.4306 211.309 69.1354C211.309 70.8402 210.501 71.6925 208.886 71.6925C208.572 71.6925 208.213 71.6477 207.809 71.5579C205.432 71.0645 202.56 70.8401 199.24 70.7953C197.85 70.7953 196.01 70.885 193.767 71.1542C191.524 71.3785 189.954 71.6477 189.056 71.872C188.159 72.0963 187.352 72.4552 186.589 72.9487C185.826 73.4422 185.198 73.6665 184.615 73.6665C183.314 73.6665 182.058 72.6795 180.891 70.7953C179.725 68.911 179.097 66.7576 179.097 64.3798C179.097 64.0658 179.142 63.7069 179.187 63.3929C179.77 59.8038 180.039 56.125 180.039 52.3117C180.039 48.4983 179.949 46.2103 179.77 45.3579C179.59 44.5503 179.501 43.8774 179.501 43.339C179.501 41.6342 179.949 40.0192 180.847 38.5387C181.744 37.0133 183.045 35.8469 184.75 35.0393C183.269 34.1421 182.506 33.3794 182.506 32.8411C182.506 32.2578 183.269 31.9438 184.839 31.8989C186.41 31.8541 188.249 31.4952 190.492 30.8671C192.69 30.239 194.216 29.6558 195.068 29.0726C195.921 28.4893 196.952 28.2202 198.119 28.2202C200.138 28.2202 201.753 28.7585 202.919 29.8352C204.13 30.9119 204.714 31.7643 204.714 32.4373C204.714 33.2897 203.816 33.828 202.067 34.1421C201.125 34.2767 200.183 34.5458 199.196 34.9945C198.209 35.3982 196.773 36.2506 194.934 37.462C193.857 38.1798 192.601 38.4938 191.255 38.4938C189.864 38.4938 188.025 37.5517 185.692 35.7123C184.615 35.7572 184.077 36.2058 184.077 37.0582C184.077 37.3722 184.166 38.1349 184.346 39.3462C184.525 40.5575 184.75 41.5445 185.019 42.3072C185.288 43.0699 185.647 43.6979 186.096 44.2363C186.544 44.7746 186.813 45.986 186.813 47.8702C186.813 49.7993 186.679 51.4593 186.41 52.9397C185.781 56.125 185.512 60.3422 185.602 65.4566V65.4566ZM161.51 63.2583C161.51 64.2453 162.004 65.1874 162.991 66.0846C163.978 66.9819 164.651 67.4305 164.965 67.4305C165.279 67.4305 165.638 67.2062 165.952 66.8025C166.266 66.3987 166.759 65.3668 167.522 63.7518C168.24 62.1367 168.733 60.8805 169.003 59.9833C169.272 59.086 169.496 58.5925 169.676 58.5925C169.855 58.5925 169.99 59.086 170.124 60.0281C170.259 60.9703 170.304 62.047 170.304 63.2583C170.304 64.4696 170.124 65.9052 169.765 67.5203C169.406 69.1802 169.227 70.4364 169.227 71.2888L169.541 75.6854C169.541 76.1789 169.362 76.5378 169.048 76.8518C168.689 77.1658 168.33 77.3004 167.836 77.3004C166.894 77.3004 165.728 76.448 164.337 74.7432C162.946 73.0384 162.049 71.3336 161.6 69.6737C161.196 68.0138 160.972 66.6679 160.972 65.7257C160.972 64.7387 161.152 63.9312 161.51 63.2583V63.2583ZM235.131 40.2435C236.028 38.0003 244.283 33.3345 259.94 26.291C261.062 25.7975 261.645 25.2592 261.645 24.676C261.645 24.0927 261.51 23.5992 261.196 23.1506C260.882 22.702 260.748 22.3431 260.748 22.1188C260.748 21.8944 261.017 21.7598 261.555 21.7598C262.094 21.7598 263.081 22.0739 264.561 22.702C265.997 23.3301 267.298 24.3171 268.464 25.7527C269.631 27.1434 270.214 28.0407 270.214 28.4445C270.214 28.8482 269.9 29.2071 269.317 29.4763C268.733 29.7455 267.612 30.1941 265.997 30.7325C264.382 31.2708 263.081 31.5849 262.139 31.54L260.838 31.4503C259.088 31.4503 255.454 32.3027 249.936 34.0075C244.418 35.7572 239.483 37.8209 235.131 40.2435ZM274.79 49.8891C277.571 47.0627 280.308 45.313 282.955 44.6401C283.763 44.4157 284.66 44.1017 285.602 43.6979C286.544 43.2942 287.082 42.9801 287.307 42.6661C287.845 42.0829 288.922 41.8137 290.627 41.8137C291.434 41.8137 292.287 42.038 293.094 42.4418C293.902 42.8455 294.889 43.5634 296.055 44.5503C297.222 45.5373 297.939 46.3 298.209 46.7935C298.478 47.287 298.657 47.9599 298.657 48.8123C298.657 49.6647 298.478 50.2928 298.164 50.6966C297.805 51.1004 297.491 51.6387 297.132 52.2668C296.773 52.9397 296.549 53.4781 296.414 53.9716C296.279 54.4651 296.055 54.9586 295.696 55.4969C295.337 56.0353 294.978 56.4391 294.664 56.6634C293.588 57.4261 293.004 58.2785 292.96 59.2654C293.543 59.4449 293.991 59.8487 294.305 60.387C294.619 60.9702 294.799 61.5535 294.799 62.2264C294.799 62.8994 294.485 63.348 293.767 63.662C293.094 63.9761 292.466 64.1107 291.883 64.1107C291.3 64.1107 290.492 64.0209 289.46 63.9312C288.428 63.7966 287.441 63.7518 286.41 63.7518C283.538 63.7518 281.295 64.335 279.635 65.5463C279.276 66.8473 278.693 67.5203 277.93 67.5203C276.899 67.5203 275.732 66.7576 274.431 65.2323C273.13 63.7069 272.367 62.047 272.098 60.2524C271.425 55.3175 270.663 52.0425 269.855 50.3825C266.535 55.4072 262.722 59.5346 258.37 62.7648C258.28 65.2323 258.46 67.7894 258.953 70.5261C259.447 73.2628 259.671 75.4162 259.671 77.0761C259.671 77.7939 259.492 78.1528 259.133 78.1528C258.55 78.1528 257.563 77.1658 256.172 75.2367C254.781 73.3076 254.063 71.8271 254.063 70.8401C254.063 70.5261 254.153 70.2121 254.287 69.9429C254.422 69.6737 254.512 69.2251 254.512 68.5521C254.512 67.8792 254.467 66.937 254.377 65.7257C250.609 68.3727 248.59 69.8083 248.41 69.9877C248.186 70.1672 248.007 70.2569 247.872 70.2569C247.334 70.2569 246.885 69.8083 246.526 68.8662C246.122 67.924 245.943 66.7127 245.943 65.1425C245.943 62.7199 246.392 61.4189 247.244 61.2394C248.859 60.9254 250.16 60.4319 251.192 59.7589C252.224 59.086 253.256 58.1439 254.243 56.9774C254.332 54.3754 254.467 51.9976 254.646 49.7545C252.672 51.549 250.743 52.8949 248.904 53.837C247.02 54.7791 245.584 55.2278 244.462 55.2278C243.386 55.2278 242.488 55.0483 241.86 54.6445C241.232 54.2856 240.38 53.7473 239.348 53.0295C238.316 52.3565 237.374 51.3247 236.477 50.0236C235.58 48.7226 234.996 47.6459 234.593 46.7935C234.234 45.9411 234.054 45.2233 234.054 44.6849C234.054 44.1466 234.099 43.6979 234.144 43.2942C234.189 44.012 234.907 44.999 236.342 46.3449C237.733 47.6908 238.855 48.3637 239.662 48.3637C240.47 48.3637 241.995 47.8253 244.193 46.7935C246.392 45.7616 250.295 43.6979 255.903 40.6024C256.217 36.789 256.755 34.501 257.518 33.6935C258.28 32.9308 258.864 32.527 259.267 32.527C259.671 32.527 260.299 33.1551 261.241 34.3664C262.183 35.5777 262.677 36.789 262.811 37.9106C263.17 37.8209 263.619 37.776 264.113 37.776C264.651 37.776 265.144 38.0452 265.593 38.5387C266.042 39.0322 266.311 39.7051 266.311 40.5575C266.311 41.4099 265.862 41.9931 265.01 42.2623C263.26 42.8007 262.049 43.4288 261.376 44.1017C260.838 44.9541 260.568 45.8514 260.523 46.8384C262.318 47.7805 263.26 48.8123 263.26 49.8442C263.26 50.9209 262.946 52.1771 262.318 53.7024C265.01 51.9079 267.118 50.1134 268.689 48.274C268.375 47.6908 268.24 47.1973 268.24 46.7935C268.24 46.3897 268.375 46.0308 268.689 45.7168C269.003 45.4476 269.317 45.313 269.631 45.313C270.259 45.4925 271.964 46.9729 274.79 49.8891V49.8891ZM279.142 58.4131C282.596 58.2336 285.109 57.112 286.634 55.0034C288.159 52.8949 288.922 51.0555 288.922 49.4853C288.922 48.9469 288.742 48.7226 288.428 48.7226C288.114 48.7226 287.755 48.8123 287.397 48.9918C285.692 49.8891 284.032 50.562 282.417 51.0106C280.353 51.5939 278.648 52.536 277.347 53.7922C277.168 55.9904 277.796 57.5158 279.142 58.4131V58.4131ZM367.657 62.1367C374.431 63.8864 378.648 65.0977 380.263 65.7706C381.878 66.4436 383.224 67.5651 384.301 69.0905C385.378 70.6158 385.916 71.872 385.916 72.7244C385.916 73.5768 385.467 74.0703 384.615 74.0703C384.032 74.0703 383.404 73.846 382.686 73.3525C377.213 69.9429 372.637 67.7446 369.003 66.7576C367.029 68.911 364.92 71.4234 362.722 74.2497C360.479 77.0761 359.133 79.0052 358.639 79.9474C358.146 80.8895 357.518 81.3381 356.755 81.3381C355.768 81.3381 354.422 80.3063 352.672 78.2874C350.923 76.2686 350.07 72.6795 350.07 67.5651C350.07 62.4059 350.519 57.3363 351.461 52.3565C352.269 47.8702 352.717 44.2363 352.717 41.4548C352.717 40.7818 352.628 40.3781 352.493 40.1537C352.358 39.9294 352.044 39.7948 351.685 39.75C351.282 39.7051 350.968 39.4359 350.698 38.8976C350.429 38.3592 350.34 37.6863 350.384 36.8339C349.263 37.462 347.917 38.1798 346.392 39.1219C344.866 40.0192 344.014 40.6024 343.834 40.7818C343.655 40.9613 343.565 41.1856 343.565 41.4548C343.565 41.724 343.924 41.9931 344.642 42.2623C345.36 42.5315 346.033 43.025 346.571 43.6531C347.154 44.2812 347.423 44.9092 347.423 45.5373C347.423 46.1205 347.02 46.5692 346.257 46.9281C345.494 47.287 344.462 48.0497 343.251 49.2161C342.04 50.3825 341.412 51.1004 341.412 51.4144C341.412 51.6387 341.86 51.9079 342.803 52.1322C343.745 52.3565 344.507 52.8052 345.135 53.3884C345.763 53.9716 346.078 54.5997 346.078 55.1829C346.078 55.811 345.853 56.2148 345.36 56.3942C343.251 57.2466 341.636 57.9644 340.559 58.5476C339.931 61.374 339.438 63.2583 339.034 64.2453C338.63 65.2323 338.451 65.7706 338.451 65.9949C338.451 66.1744 338.541 66.2641 338.675 66.2641C338.899 66.2641 339.842 65.5911 341.591 64.2901C343.341 62.9891 344.328 62.0918 344.642 61.5983C344.956 61.1048 345.27 60.8805 345.539 60.8805C345.808 60.8805 345.988 61.1497 345.988 61.6432C345.988 62.7648 345.405 64.6042 344.238 67.1165C343.072 69.6288 341.771 71.5131 340.38 72.8141C339.662 73.4871 339.213 74.5638 339.079 76.134C338.989 77.0761 338.541 77.5696 337.823 77.5247C336.791 77.5247 335.759 76.9415 334.727 75.8648C333.695 74.7432 333.157 73.0384 333.157 70.7056C333.157 69.8532 333.247 69.0008 333.471 68.1484C334.009 65.4117 334.234 63.2583 334.234 61.6432C332.753 62.5853 331.183 63.3031 329.658 63.7966C328.087 64.2901 326.876 64.5144 325.979 64.5144C325.082 64.5144 324.498 64.3798 324.274 64.1555C324.05 63.9312 323.915 63.4826 323.915 62.8545C323.915 62.2264 324.05 61.3292 324.319 60.2076C324.588 59.086 324.992 58.4579 325.575 58.3682C326.966 58.0093 328.715 57.0223 330.869 55.4521C332.977 53.8819 334.054 52.7154 334.054 51.9528C334.054 51.6387 333.92 51.4144 333.606 51.3695C331.856 50.876 330.555 50.1134 329.747 49.1264C328.94 48.1394 328.536 47.4664 328.536 47.1524C328.536 46.8832 328.85 46.6589 329.568 46.5243C331.273 46.1654 333.381 45.0887 335.938 43.3839C338.496 41.6342 339.752 40.6024 339.752 40.1986C339.752 39.7948 338.182 39.3911 334.996 38.9424C331.991 43.025 328.85 46.5692 325.53 49.6199C322.21 52.6257 319.922 54.1511 318.621 54.1511C318.038 54.1511 317.679 53.837 317.455 53.1641C317.231 52.4911 317.141 51.9528 317.141 51.549C317.141 51.1452 317.275 50.6517 317.589 50.1134C317.859 49.575 318.218 49.261 318.621 49.2161C319.025 49.1264 319.429 48.9469 319.877 48.6777C320.326 48.3637 321.851 46.5243 324.453 43.1596C327.056 39.7948 329.523 36.5198 331.811 33.3346C334.099 30.1493 335.49 27.951 336.028 26.7397C336.567 25.5284 336.836 24.5862 336.836 23.8236C336.836 23.1057 336.791 22.5674 336.701 22.2085C336.611 21.8496 336.567 21.6253 336.567 21.4907C336.567 21.3561 336.656 21.3112 336.791 21.3112C337.15 21.3112 338.406 22.029 340.604 23.4198C342.803 24.8105 343.879 26.5154 343.879 28.4445C343.879 29.252 343.7 29.925 343.341 30.4633C342.982 31.0017 341.681 32.1681 339.438 34.0075C341.905 33.514 343.924 32.8859 345.405 32.1232C346.078 31.8092 346.75 31.6297 347.423 31.6297C349.218 31.6297 350.698 32.7962 351.865 35.1291C353.076 34.6356 354.063 34.4561 354.826 34.5907C355.947 33.4243 357.563 32.1681 359.626 30.9119C361.69 29.6109 363.35 28.7136 364.561 28.1304C365.772 27.5472 366.939 27.278 368.105 27.278C369.227 27.278 369.99 27.5472 370.304 28.0407C370.618 28.5342 371.246 29.1623 372.188 29.8801C373.13 30.5979 374.252 31.2708 375.463 31.8989C376.674 32.4821 377.302 33.514 377.302 34.9048C377.302 35.5777 377.033 36.3852 376.45 37.3722C372.457 44.4606 370.483 48.6777 370.483 50.0236C371.38 50.3377 371.784 50.8312 371.784 51.3695C371.784 52.3117 370.842 52.8949 369.003 53.0743C365.772 53.3884 363.036 54.3754 360.748 55.9904C359.671 56.798 357.966 57.7401 355.633 58.8617C354.871 61.5535 354.467 64.5593 354.467 67.9689C354.467 71.3336 354.736 73.0384 355.23 73.0384C355.947 73.0384 359.357 70.6607 365.414 65.9501C364.113 65.5911 362.811 65.4117 361.51 65.3668C360.209 65.322 359.222 65.0528 358.684 64.649C358.101 64.2004 357.832 63.662 357.832 63.034C357.832 62.4507 358.056 61.7329 358.549 60.7908C359.043 59.8935 359.806 59.4 360.838 59.4449C362.183 59.4449 364.068 58.772 366.49 57.3812C368.913 55.9904 370.304 54.6894 370.707 53.4781C371.021 52.6257 371.56 52.2219 372.322 52.2219C373.085 52.2219 374.027 52.5808 375.194 53.2089C376.36 53.8819 376.943 54.7343 376.943 55.7661C376.943 56.5737 376.584 57.1569 375.912 57.5158C375.149 57.6055 372.412 59.2654 367.657 62.1367V62.1367ZM367.791 38.0003C368.33 35.9815 368.554 34.5459 368.554 33.7383C368.554 32.9308 368.419 32.527 368.15 32.527C367.881 32.527 367.567 32.7065 367.118 33.0654C366.715 33.4243 365.414 34.0075 363.215 34.8599C361.017 35.7123 359.761 36.0712 359.312 36.0263C358.908 35.9366 358.549 35.9366 358.235 35.8917C357.921 35.8917 357.518 36.1161 357.069 36.6096C357.159 36.8339 357.204 37.2825 357.204 37.8657C357.204 38.449 357.069 39.4808 356.8 40.8267C359.492 39.2116 361.062 38.1798 361.555 37.776C362.004 37.3722 362.677 37.1928 363.574 37.1928C364.561 37.1928 365.952 37.462 367.791 38.0003V38.0003ZM366.401 43.025C363.44 45.986 360.523 48.6778 357.607 51.1004C357.338 51.3247 357.204 51.5041 357.204 51.5938C357.204 51.6836 357.293 51.7284 357.428 51.7284C357.563 51.7284 357.832 51.6387 358.146 51.4593C360.479 50.0236 362.273 49.3058 363.574 49.3058C364.741 47.2421 365.683 45.1336 366.401 43.025ZM357.293 46.5243C357.293 47.3319 357.248 47.9599 357.204 48.3637C358.101 47.5562 358.505 47.0627 358.505 46.7935C358.505 46.5243 358.37 46.4346 358.101 46.4346C357.921 46.4346 357.607 46.4795 357.293 46.5243ZM423.736 37.9106C422.479 38.1349 421.358 38.4938 420.371 38.9424C419.339 39.3911 418.576 39.6603 417.948 39.6154C417.365 39.6154 416.961 39.1219 416.827 38.1349C416.692 37.1479 416.602 36.1609 416.602 35.1739C416.602 34.187 416.827 33.3345 417.275 32.5719C417.724 31.8092 418.262 31.4054 418.89 31.3606C420.236 31.2708 421.717 30.6876 423.332 29.6109C424.947 28.5342 425.755 27.1434 425.755 25.4386C425.755 24.6311 426.113 24.2273 426.831 24.2273C428.581 24.2273 430.331 24.99 431.99 26.4705C433.695 27.951 434.503 29.5212 434.503 31.1811C434.503 32.841 433.83 33.6935 432.484 33.7383C430.241 33.8729 428.491 34.501 427.1 35.6226C429.837 38.3592 431.228 40.7818 431.228 42.8904C431.228 43.8325 430.824 44.5503 430.061 44.9541C429.299 45.4027 428.626 45.8962 428.043 46.3897C427.459 46.8832 426.338 48.0945 424.723 49.9788C424.768 51.7733 424.812 53.2089 424.812 54.2408C424.812 55.2726 424.723 56.1699 424.498 56.8428C423.601 59.9833 423.197 62.4507 423.197 64.2004C423.197 64.5593 423.287 64.9182 423.466 65.2323C423.646 65.5463 423.825 65.6809 424.005 65.6809C424.184 65.6809 424.319 65.4566 424.364 64.9631C425.485 58.8617 426.383 55.8558 427.011 55.8558C427.145 55.8558 427.235 55.9904 427.235 56.2596C427.235 56.5288 427.056 57.3363 426.742 58.6822C426.383 60.0281 426.248 61.1497 426.248 62.047L426.383 63.662C426.383 65.3668 426.203 67.1165 425.799 68.911C425.396 70.7056 425.261 71.8271 425.306 72.2758C425.351 72.7244 425.396 73.1282 425.396 73.5319C425.396 74.7432 425.037 75.3713 424.319 75.3713C423.601 75.3713 422.659 74.3843 421.537 72.3655C420.416 70.3915 419.833 68.2829 419.833 66.0398C419.833 65.4566 419.877 64.9182 419.967 64.4247C420.416 61.8675 420.73 58.4579 420.909 54.1511C416.558 58.3233 413.507 60.7459 411.712 61.4189C409.918 62.0918 408.796 62.4059 408.392 62.4059C407.944 62.4059 407.72 62.1367 407.72 61.5535C407.72 60.9703 407.854 60.1179 408.123 58.9514C408.392 57.785 408.751 56.798 409.245 56.0802C409.738 55.3624 410.142 55.0034 410.546 55.0034C410.681 55.0034 410.77 55.2278 410.77 55.5867C410.77 55.9904 410.815 56.1699 410.905 56.1699C411.264 56.1699 412.43 55.1829 414.449 53.1641C416.423 51.1452 418.038 49.4404 419.249 48.0497C420.461 46.6589 421.717 45.0887 423.018 43.339C424.319 41.5894 424.992 40.3332 424.992 39.5705C424.812 38.9424 424.453 38.3144 423.736 37.9106V37.9106ZM444.014 44.4157C452.583 41.6342 458.37 40.2435 461.51 40.2883C463.709 40.2883 465.369 40.9164 466.58 42.1726C467.791 43.4288 468.419 44.4606 468.419 45.2682C468.419 46.3897 467.253 46.9729 464.92 46.9281L457.159 46.6589C456.261 46.6589 455.274 46.6589 454.198 46.7038C454.871 47.0178 455.319 47.3319 455.544 47.6459C455.768 47.9151 455.903 48.4086 455.903 49.1264L455.768 52.536C455.678 53.837 455.633 55.8558 455.633 58.5476C455.633 61.2394 455.678 63.9761 455.813 66.7127C455.947 69.4942 455.992 71.0645 455.992 71.4234C455.992 73.5768 455.678 75.1919 455.05 76.1788C454.422 77.1658 453.839 77.9734 453.345 78.6015C452.807 79.2296 452.358 79.5436 451.91 79.5436C451.461 79.5436 450.654 79.1398 449.487 78.3323C448.321 77.5248 446.347 75.9994 443.565 73.7114C440.784 71.4234 438.944 69.8532 438.002 68.9559C437.06 68.0586 436.611 67.5651 436.611 67.4754C436.611 67.3408 436.656 67.2959 436.746 67.2959C436.881 67.2959 437.239 67.4754 437.778 67.7895C439.483 68.7316 441.232 69.4943 442.982 70.0326C444.732 70.571 446.167 70.885 447.244 70.885C449.487 70.885 450.564 69.898 450.564 67.8792C450.564 67.4754 450.429 65.1425 450.16 60.8805C449.891 56.6634 449.756 53.6576 449.756 51.9079C449.756 51.1452 449.442 50.6069 448.859 50.2928C448.276 49.9788 446.84 49.6199 444.552 49.1712C439.976 51.9079 436.836 53.2987 435.131 53.2987C433.426 53.2987 432.574 51.9528 432.574 49.261C432.574 47.1973 433.471 45.9411 435.31 45.5822C436.252 45.4027 437.733 44.5055 439.752 42.8904C441.771 41.2753 444.104 39.0322 446.75 36.1161C445.539 34.7702 444.642 33.828 443.969 33.2448C443.296 32.6616 442.668 32.3924 442.085 32.3924C441.501 32.3924 440.739 32.7513 439.797 33.4243C438.855 34.1421 438.271 34.4561 438.137 34.4561C438.002 34.4561 437.912 34.4113 437.912 34.3215C437.912 34.0524 438.585 33.1551 439.931 31.7195C441.277 30.2839 442.13 29.4315 442.488 29.252C442.847 29.0725 443.296 28.9828 443.834 29.0277C444.373 29.0725 445.001 29.1174 445.674 29.1174C446.347 29.1174 447.199 28.8482 448.276 28.3547C449.353 27.8612 450.429 27.5921 451.596 27.5921C452.717 27.5921 453.839 28.0407 454.916 28.8931C455.992 29.7455 456.531 30.553 456.531 31.3606C456.531 32.1232 455.903 33.0654 454.646 34.1421C447.872 40.2435 444.283 43.6531 444.014 44.4157V44.4157ZM148.68 52.7154C148.5 52.536 148.366 52.3565 148.186 52.2668C147.782 52.2668 147.334 52.3117 146.93 52.4463C146.526 52.5808 146.302 52.6257 146.257 52.6706C146.212 52.7154 146.167 52.7603 146.167 52.85C146.93 52.7603 147.782 52.7154 148.68 52.7154V52.7154ZM145.898 51.4144V51.2349C145.674 51.2798 145.449 51.2798 145.27 51.2798C145.091 51.2798 144.956 51.235 144.821 51.1004C144.777 51.1901 144.777 51.2798 144.777 51.3695C144.777 51.4593 144.821 51.5938 144.956 51.8182C145.36 51.7733 145.674 51.6387 145.898 51.4144V51.4144ZM147.872 50.6069C147.648 50.6966 147.513 50.7863 147.423 50.9209C147.334 51.0555 147.154 51.1901 146.975 51.2798V51.4593C147.154 51.3695 147.289 51.3247 147.379 51.3247C147.468 51.3247 147.558 51.3247 147.648 51.3695C147.782 51.1901 147.872 50.9209 147.872 50.6069ZM142.354 49.9788C141.995 50.6517 141.636 51.1901 141.277 51.7284C140.918 52.2219 140.649 52.6257 140.47 52.9397C140.559 52.9846 140.649 53.0295 140.829 53.0295C140.963 53.0295 141.143 52.9846 141.322 52.9397C141.502 52.8949 141.636 52.7603 141.726 52.5808C141.816 52.4014 141.905 52.1322 142.04 51.7284C142.13 51.2798 142.264 50.6966 142.354 49.9788ZM145.898 50.2031C145.898 50.0685 145.898 49.9788 145.853 49.9339C145.315 50.0685 144.911 50.2031 144.687 50.3825V50.4723C144.687 50.6517 144.732 50.7863 144.866 50.9209C145.36 50.4723 145.719 50.248 145.898 50.2031V50.2031ZM147.962 50.4274C148.052 50.2031 148.141 49.9788 148.141 49.7993C148.141 49.6199 148.141 49.5301 148.096 49.4853C148.052 49.4404 148.007 49.3956 147.917 49.3956C147.827 49.3507 147.737 49.3507 147.603 49.3507C147.244 49.3507 146.975 49.3956 146.795 49.5302C146.795 49.6199 146.84 49.7096 146.84 49.7545C147.02 49.7096 147.154 49.7096 147.244 49.7096C147.334 49.7096 147.423 49.7545 147.468 49.8442C147.513 49.9339 147.558 50.0685 147.558 50.248C147.782 50.2928 147.917 50.3826 147.962 50.4274V50.4274ZM145.584 49.1264C145.539 49.1264 145.494 49.0815 145.405 49.0367C145.001 49.2161 144.642 49.4404 144.418 49.6199C144.418 49.8442 144.418 49.9339 144.462 49.9788C144.821 49.7096 145.091 49.5301 145.36 49.3956C145.36 49.3058 145.449 49.2161 145.584 49.1264V49.1264ZM142.309 49.3058C142.309 49.0815 142.264 48.9021 142.174 48.6777C142.085 48.4983 141.995 48.4086 141.86 48.4086C141.726 48.4086 141.457 48.5432 141.008 48.7675C141.187 48.9918 141.277 49.2161 141.277 49.3956C141.502 49.5301 141.591 49.6647 141.591 49.7545C141.591 49.8442 141.546 49.9788 141.412 50.1582C141.277 50.2928 141.187 50.562 141.098 50.9209C141.726 50.248 142.085 49.7096 142.309 49.3058V49.3058ZM148.366 48.3188H148.141C147.648 48.3188 146.93 48.4534 146.078 48.7675V48.9021H146.347L148.366 48.3188ZM147.289 47.7805C147.244 47.7805 147.199 47.7356 147.109 47.7356C146.885 47.7356 146.526 47.8254 146.078 47.9599C145.629 48.0945 145.27 48.2291 145.001 48.3637V48.4983L147.289 47.7805V47.7805ZM145.719 47.3318V47.1075C145.27 47.1075 144.956 47.1075 144.732 47.0178V47.2421C144.732 47.3319 144.777 47.4664 144.866 47.601L145.719 47.3318ZM147.558 46.3449C147.154 46.3449 146.84 46.4346 146.571 46.614C146.571 46.7486 146.571 46.8832 146.526 47.0627C146.706 47.0178 146.885 47.0178 147.02 47.0178H147.334C147.468 46.8384 147.558 46.614 147.558 46.3449ZM145.629 46.1205C145.629 45.986 145.584 45.8514 145.494 45.8065H145.001C144.866 45.8065 144.732 45.8514 144.687 45.8962C144.597 45.9411 144.552 46.0757 144.552 46.3L144.597 46.3897L145.629 46.1205V46.1205ZM147.782 45.9411C147.827 45.8065 147.872 45.7168 147.872 45.5373C147.872 45.4027 147.827 45.2681 147.738 45.1784C147.648 45.0887 147.513 45.0438 147.379 45.0438C147.199 45.0438 146.975 45.1336 146.706 45.3579V45.5822H146.885C147.244 45.5373 147.558 45.6719 147.782 45.9411V45.9411ZM148.231 52.0873C148.5 52.2668 148.68 52.3565 148.769 52.4463C148.859 52.536 149.039 52.5808 149.308 52.6706C149.577 52.7154 149.846 52.8949 150.07 53.1192C150.34 53.3435 150.429 53.523 150.429 53.6127C150.429 53.7024 150.34 53.7473 150.115 53.7473C149.891 53.7473 149.711 53.7473 149.532 53.7024C149.397 53.6576 149.218 53.6127 149.083 53.523C148.769 53.2987 148.231 53.2089 147.468 53.2089C146.795 53.2089 146.122 53.3435 145.494 53.5678C144.866 53.837 144.328 54.0613 143.834 54.2856C143.745 54.3754 143.655 54.3754 143.52 54.3754C143.386 54.3754 143.296 54.2856 143.117 54.1511C142.982 54.0165 142.892 53.8819 142.892 53.7922C142.892 53.7024 142.937 53.6127 143.027 53.5678C143.117 53.523 143.251 53.4781 143.386 53.4781C143.52 53.4781 143.79 53.4332 144.193 53.2987C144.597 53.1641 145.001 53.0295 145.539 52.8052V52.6706C145.225 52.6706 145.001 52.6706 144.866 52.5808C144.732 52.4911 144.642 52.3565 144.552 52.1322C144.328 52.0425 144.193 51.863 144.104 51.549C144.014 51.2798 143.924 50.7415 143.834 49.9339C143.79 49.9339 143.745 49.8891 143.655 49.8891C143.565 49.8891 143.52 49.8891 143.431 49.9339C143.341 50.6069 143.251 51.1452 143.117 51.5938C142.982 52.0425 142.847 52.4463 142.668 52.8949C142.489 53.3435 142.354 53.6127 142.219 53.7024C142.13 53.837 141.995 53.8819 141.905 53.8819C141.816 53.8819 141.726 53.8819 141.636 53.837C141.546 53.7921 141.412 53.7921 141.232 53.7473C141.008 53.7024 140.829 53.6576 140.649 53.5678C140.47 53.4781 140.29 53.3435 140.156 53.2089C140.066 53.2089 139.931 53.2538 139.886 53.2987C139.797 53.3435 139.752 53.3884 139.617 53.3884C139.528 53.3884 139.438 53.2986 139.348 53.1641C139.258 53.0295 139.214 52.85 139.214 52.6257C139.214 52.2219 139.393 51.9976 139.707 51.9079C139.842 51.863 139.976 51.8182 140.066 51.7284C140.156 51.6387 140.245 51.5041 140.335 51.3247C140.156 51.3247 139.931 51.3695 139.707 51.3695C139.483 51.3695 139.258 51.2798 139.034 51.1004C138.81 50.9209 138.675 50.7863 138.675 50.6966C138.675 50.5171 138.81 50.4274 139.124 50.3377C139.438 50.2928 139.752 50.1582 140.066 49.9339C140.156 49.7993 140.245 49.6647 140.2 49.5302C140.066 49.5302 139.931 49.6199 139.752 49.7545C139.617 49.7993 139.483 49.8891 139.303 49.8891C138.989 49.8891 138.81 49.7096 138.81 49.3058C138.81 49.0367 138.899 48.8123 139.034 48.6329C139.169 48.4534 139.393 48.3188 139.662 48.274C139.931 48.2291 140.111 48.1394 140.29 48.0048C140.425 47.8702 140.604 47.6459 140.829 47.3767C141.053 47.1075 141.143 46.9281 141.143 46.8832C141.143 46.8384 141.143 46.8384 141.098 46.8384C141.053 46.8384 140.963 46.8832 140.829 46.9729L140.29 47.4664C140.021 47.7356 139.842 47.8253 139.662 47.8253C139.483 47.8253 139.303 47.7356 139.169 47.601C139.034 47.4664 138.989 47.287 138.989 47.1075C138.989 46.9281 139.034 46.7038 139.124 46.4346C139.213 46.1654 139.348 46.0308 139.483 46.0308H139.662C139.797 46.0308 139.931 45.9411 140.111 45.8065C140.29 45.6719 140.559 45.313 140.963 44.8195C140.649 44.5055 140.38 44.2363 140.245 43.9671C140.066 43.7428 140.021 43.5633 140.021 43.5185C140.021 43.4736 140.066 43.4288 140.156 43.3839C140.245 43.339 140.335 43.339 140.47 43.339H140.873C141.143 43.339 141.322 43.2942 141.457 43.1596C141.591 43.025 141.771 42.9801 141.995 42.9801C142.309 42.9801 142.623 43.1147 142.937 43.339C143.251 43.5633 143.386 43.7877 143.386 44.0568C143.386 44.1914 143.341 44.326 143.206 44.4157C142.892 44.6401 142.489 45.0438 141.995 45.5822C142.354 45.6719 142.578 45.7616 142.713 45.8514C142.847 45.9411 142.892 46.0308 142.892 46.1654C142.892 46.3 142.847 46.4346 142.758 46.5692C142.668 46.7038 142.444 47.0178 142.085 47.4664C142.309 47.4664 142.668 47.601 143.161 47.8702L143.7 46.7935C143.655 47.1524 143.52 47.601 143.341 48.0945C143.431 48.1843 143.52 48.3188 143.61 48.4983C143.7 48.6777 143.745 48.7675 143.745 48.8123C143.834 48.8123 143.969 48.8123 144.059 48.7675C144.148 48.7226 144.418 48.6329 144.777 48.4983C144.373 48.1842 144.148 47.8702 144.104 47.5113C144.059 47.1524 143.969 46.8384 143.79 46.5692C143.61 46.3 143.52 46.0757 143.52 45.8065C143.52 45.5373 143.61 45.3579 143.745 45.1784C143.924 44.999 144.373 44.6401 145.135 44.1466C145.135 43.9671 145.091 43.8325 144.956 43.6979C144.821 43.5634 144.687 43.5185 144.507 43.5185L144.238 43.6082C144.148 43.6082 144.059 43.6082 143.924 43.5633C143.834 43.5185 143.745 43.4736 143.745 43.4288C143.745 43.3839 143.879 43.2942 144.104 43.2044C144.373 43.1147 144.597 43.0699 144.777 43.025C145.001 43.025 145.315 42.9353 145.808 42.8007C146.302 42.6661 146.661 42.4866 146.975 42.352C147.065 42.3072 147.199 42.2623 147.423 42.2623C147.648 42.2623 147.827 42.3072 148.052 42.3969C148.276 42.4866 148.366 42.6212 148.366 42.7558C148.366 42.8904 148.321 43.025 148.231 43.1147C148.141 43.2044 148.007 43.2493 147.872 43.2942C147.379 43.3839 147.02 43.5633 146.751 43.7428C146.706 43.7877 146.571 43.8774 146.392 43.9223C146.212 44.012 146.033 44.0568 145.853 44.1017C145.674 44.1466 145.315 44.326 144.777 44.6849C144.238 44.999 143.969 45.1784 143.924 45.2233C143.879 45.2681 143.879 45.313 143.879 45.3579C143.879 45.4027 143.879 45.4476 143.924 45.4476C144.059 45.5373 144.193 45.7168 144.328 45.9411C144.328 45.6719 144.418 45.4476 144.507 45.3579C144.597 45.2681 144.821 45.1336 145.135 44.999C145.18 44.7747 145.405 44.6849 145.764 44.6401C146.302 44.4606 146.616 44.326 146.795 44.2812C146.93 44.2363 147.02 44.1466 147.109 44.012C147.154 43.9222 147.289 43.8774 147.423 43.8774C147.558 43.8774 147.872 43.9671 148.186 44.1017C148.545 44.2363 148.769 44.4606 148.949 44.6849C149.128 44.9092 149.218 45.1336 149.218 45.313C149.218 45.4925 149.128 45.6719 148.949 45.8514C148.769 46.0308 148.5 46.614 148.186 47.6459C148.59 47.601 148.949 47.5562 149.263 47.5562C149.577 47.5562 149.846 47.6459 150.026 47.8253C150.205 48.0048 150.295 48.1394 150.295 48.2291C150.295 48.3188 150.205 48.3637 150.026 48.3637H149.667C149.263 48.3637 148.724 48.4983 148.141 48.7226C148.5 48.7675 148.769 48.9021 149.039 49.2161C149.308 49.4853 149.442 49.7096 149.442 49.8442C149.442 49.9788 149.397 50.0685 149.308 50.1582C149.128 50.3377 148.949 50.6069 148.814 50.9658C148.59 51.549 148.41 51.863 148.231 51.8182C148.276 51.9528 148.231 51.9976 148.231 52.0873V52.0873ZM143.386 36.7442C143.251 36.7442 143.161 36.8787 143.117 37.1031C143.206 37.1928 143.251 37.2376 143.386 37.1928C143.431 37.1031 143.431 37.0133 143.431 36.9236C143.386 36.8787 143.386 36.8339 143.386 36.7442ZM143.386 35.3534C142.847 35.6226 142.489 35.802 142.264 35.9815C142.264 36.1161 142.309 36.2507 142.399 36.3852C142.578 36.3404 142.758 36.2507 142.937 36.1609C143.117 36.0712 143.251 35.9815 143.296 35.8917C143.341 35.802 143.386 35.7123 143.386 35.6226V35.3534V35.3534ZM145.494 34.6356C145.091 34.6804 144.687 34.815 144.328 34.9496V35.3085C144.328 35.488 144.328 35.6674 144.373 35.802C144.462 35.8469 144.552 35.8469 144.687 35.8469C145.091 35.488 145.36 35.0842 145.494 34.6356V34.6356ZM145.853 33.8729C145.943 33.6486 146.033 33.3346 146.033 32.8859C146.033 32.4373 146.033 32.1681 145.988 32.0335C145.943 31.8989 145.898 31.8092 145.764 31.7195C145.674 31.9438 145.494 32.1232 145.27 32.1681C145.046 32.213 144.956 32.3027 144.956 32.4373C145.225 32.4373 145.36 32.4821 145.405 32.5719C145.449 32.6167 145.494 32.7513 145.494 32.8859C145.494 33.0205 145.449 33.1551 145.405 33.2C145.36 33.2448 145.225 33.3345 144.956 33.4243C144.687 33.514 144.552 33.6486 144.552 33.7832C144.911 33.6935 145.18 33.6935 145.36 33.6935C145.539 33.6935 145.674 33.7832 145.853 33.8729V33.8729ZM142.578 31.0017C142.399 31.0465 142.219 31.1811 142.13 31.3157C142.174 31.3606 142.219 31.3606 142.264 31.3606C142.309 31.3606 142.399 31.3157 142.489 31.2708C142.578 31.226 142.578 31.1363 142.578 31.0914V31.0017V31.0017ZM149.622 31.7195C149.846 31.6297 150.07 31.54 150.25 31.54C150.429 31.54 150.654 31.6298 150.878 31.8092C151.102 31.9887 151.237 32.1232 151.237 32.213C151.237 32.3027 151.237 32.3924 151.192 32.4822C151.147 32.5719 151.102 32.6167 151.057 32.6616C151.013 32.7065 150.968 32.7065 150.878 32.7065H150.698C150.609 32.7065 150.474 32.7513 150.25 32.7962C150.026 32.8411 149.801 32.9308 149.577 33.0654C149.577 33.6935 149.577 34.4561 149.622 35.3534L149.711 37.5517C149.711 38.0003 149.667 38.5835 149.577 39.2565C149.487 39.9294 149.442 40.3332 149.397 40.5127C149.353 40.6472 149.308 40.737 149.263 40.737C149.173 40.737 149.128 40.5575 149.039 40.2435C148.994 39.8846 148.859 39.0322 148.769 37.5966C148.635 36.1609 148.545 34.815 148.545 33.514C148.052 33.7832 147.513 34.1421 146.93 34.6356C146.84 36.3404 146.661 37.1479 146.436 37.1479C146.392 37.1479 146.347 37.103 146.302 37.0133C146.167 36.6993 146.078 36.475 145.943 36.2507C145.808 36.0263 145.764 35.8469 145.808 35.6226C145.808 35.4431 145.853 35.1291 145.853 34.6804C145.719 35.1739 145.539 35.7123 145.27 36.3404V36.5198C145.27 36.789 145.135 36.9236 144.866 36.9236C144.687 36.9236 144.507 36.8787 144.238 36.7442V37.4171C144.238 37.7311 144.238 38.0452 144.193 38.3592C144.148 38.6733 144.104 38.8078 144.014 38.8078C143.924 38.8078 143.834 38.6733 143.7 38.4041C143.476 37.9106 143.206 37.5517 142.892 37.2825C142.578 37.6414 142.354 37.8209 142.174 37.8209C141.995 37.8209 141.86 37.7311 141.771 37.5068C141.636 37.3274 141.546 37.0133 141.412 36.6096C141.187 36.7441 141.008 36.8787 140.784 37.0582C140.559 37.2376 140.425 37.3722 140.335 37.462C140.245 37.5517 140.156 37.5966 140.066 37.5966C139.976 37.5966 139.797 37.5517 139.528 37.462C139.258 37.3722 139.079 37.3274 138.989 37.2825C138.899 37.2376 138.855 37.1479 138.855 37.1031C138.855 37.0133 138.855 36.9236 138.899 36.8339C138.944 36.7441 138.944 36.6544 138.989 36.6544C139.034 36.6096 139.079 36.6096 139.169 36.6096C139.393 36.5647 139.707 36.4301 140.111 36.1161C140.515 35.802 141.277 35.3534 142.354 34.6356C142.219 34.501 141.905 34.4113 141.412 34.3664C141.232 34.3664 141.098 34.3215 141.053 34.2767C140.963 34.2318 140.963 34.1421 140.963 34.0524C140.963 33.9626 140.963 33.8729 141.008 33.828C141.053 33.7832 141.098 33.7383 141.232 33.7383C141.457 33.6935 142.13 33.4243 143.251 32.9308C143.251 32.7962 143.251 32.6616 143.296 32.6167C143.341 32.5719 143.431 32.527 143.61 32.4822C143.79 32.4373 143.924 32.3027 144.148 32.1232C144.328 31.8989 144.418 31.7643 144.418 31.6746C143.655 32.0335 143.117 32.4373 142.803 32.8859C142.668 33.0654 142.533 33.1102 142.399 33.1102C142.264 33.1102 142.13 33.0205 142.04 32.8411C141.95 32.6616 141.905 32.4822 141.905 32.2578C141.905 32.0784 141.995 31.8092 142.174 31.54C142.04 31.5849 141.905 31.5849 141.771 31.5849C141.457 31.5849 141.143 31.4054 140.873 31.0914C140.604 30.7774 140.47 30.553 140.47 30.4633C140.47 30.3736 140.515 30.3287 140.604 30.3287C140.694 30.3287 140.739 30.3287 140.829 30.3736C140.918 30.3736 140.963 30.4184 141.008 30.4184C141.232 30.4184 141.86 30.1941 142.803 29.7904C142.623 29.7006 142.578 29.6109 142.578 29.566C142.578 29.5212 142.623 29.4763 142.758 29.4315C142.892 29.3866 143.027 29.3417 143.206 29.252C143.386 29.1623 143.52 29.0725 143.61 28.9828C143.431 28.5342 143.251 28.2201 143.117 28.1304C143.072 28.0856 143.027 28.0407 142.982 27.951C142.758 27.7267 142.758 27.6369 142.758 27.5472C142.758 27.4575 142.803 27.4126 142.892 27.4126C142.982 27.4126 143.027 27.4126 143.117 27.4575C143.296 27.5472 143.565 27.5921 143.879 27.6369C144.597 27.7267 145.001 28.1753 145.18 28.9828C145.629 28.938 145.898 29.1174 145.898 29.4763C145.898 29.566 145.853 29.6558 145.808 29.7006C145.764 29.7455 145.629 29.8352 145.405 29.9698C144.866 30.239 144.507 30.553 144.283 30.8222C144.462 30.7773 144.597 30.7773 144.732 30.7773C144.866 30.7773 145.001 30.8222 145.18 30.8671C145.36 30.7325 145.584 30.6428 145.808 30.5979C146.93 29.6109 147.603 28.938 147.782 28.5791C147.468 28.7585 147.334 28.8034 147.244 28.8034C147.154 28.8034 147.109 28.8034 147.109 28.7585C147.109 28.7136 147.199 28.5791 147.423 28.4445C147.603 28.3099 147.827 28.2202 148.007 28.2202C148.186 28.2202 148.41 28.3547 148.68 28.5791C148.904 28.8034 149.039 28.9828 149.039 29.1623C149.039 29.3417 148.814 29.6109 148.41 29.9698C148.007 30.3287 147.423 30.7325 146.661 31.0914C146.661 31.1811 146.661 31.2708 146.706 31.3606C146.751 31.4503 146.795 31.4952 146.84 31.54C147.02 31.5849 147.154 31.7643 147.154 31.9887C147.154 32.1232 147.109 32.2578 147.02 32.3924C146.93 32.527 146.885 32.7513 146.93 33.1102L148.5 32.1681C148.5 32.0335 148.455 31.8989 148.366 31.8092C148.321 31.7643 148.321 31.7195 148.321 31.6297C148.321 31.54 148.41 31.4503 148.545 31.3157C148.68 31.1811 148.814 31.1363 148.949 31.1363C149.083 31.1363 149.218 31.1811 149.353 31.3157C149.487 31.4054 149.577 31.54 149.622 31.7195V31.7195ZM152.717 100.54H147.558L142.982 94.8868L138.406 100.54H133.336L140.021 92.8679L133.785 85.1066H138.675L142.982 90.8491L147.109 85.1066H152L145.764 92.8679L152.717 100.54ZM155.723 100.54H159.851V85.1066H155.723V100.54ZM181.026 100.54H177.078L168.419 90.1313V100.54H164.292V85.0169H168.419L176.943 95.8738V85.0169H181.071V100.54H181.026ZM185.019 99.1039V96.8608C186.993 98.2067 188.922 98.8348 190.716 98.7899C193.677 98.8796 195.113 97.3991 195.023 94.3484V85.1066H199.24V94.7074C199.24 98.8348 196.863 100.898 192.152 100.898C189.056 100.943 186.679 100.36 185.019 99.1039V99.1039ZM203.637 100.54H207.764V85.1066H203.637V100.54ZM229.972 100.54H225.575L224.005 97.0402H216.647L215.077 100.54H210.681L217.769 85.1066H222.838L229.972 100.54ZM220.326 88.247L217.5 94.7971H223.063L220.326 88.247V88.247ZM249.891 100.54H245.943L237.284 90.1313V100.54H233.157V85.0169H237.284L245.808 95.8738V85.0169H249.936V100.54H249.891ZM271.784 89.4135H267.388C266.759 87.8433 265.369 87.0357 263.26 87.0357C259.985 87.2601 258.28 89.234 258.101 92.8679C258.28 96.5467 260.12 98.5207 263.619 98.745C265.862 98.7899 267.253 97.9823 267.926 96.3673V93.7652H262.318V91.6118H271.874V97.3543C270.707 99.6423 267.926 100.809 263.529 100.809C257.338 100.629 254.108 97.9375 253.884 92.7782C254.108 87.7535 257.248 85.1066 263.26 84.8823C267.657 84.8823 270.483 86.4076 271.784 89.4135V89.4135ZM293.004 100.54H288.787V85.1066H293.004V91.4323H301.528V85.1066H305.656V100.54H301.528V93.6306H293.004V100.54ZM310.052 93.9895V85.1066H314.27V94.7971C314.27 97.444 315.705 98.745 318.576 98.745C321.537 98.8348 322.973 97.5337 322.883 94.7971V85.1066H327.1V93.8549C327.37 98.745 324.543 101.078 318.487 100.809C312.699 100.988 309.873 98.7002 310.052 93.9895ZM331.318 100.54H335.445V85.1066H331.318V100.54ZM344.059 100.54H339.842V85.1066H344.059V91.4323H352.583V85.1066H356.71V100.54H352.583V93.6306H344.059V100.54ZM375.912 100.54H361.107V85.1066H375.912V87.2601H365.279V91.5669H375.194V93.8101H365.279V98.5656H375.912V100.54V100.54ZM401.977 100.54H392.69V85.1066H402.156C406.194 85.1515 408.258 86.4077 408.303 88.92C408.348 90.6697 407.316 91.881 405.252 92.509C407.72 93.0923 408.976 94.2587 409.11 96.0981C409.245 99.1488 406.867 100.629 401.977 100.54V100.54ZM401.618 93.9447H396.863V98.5207H401.618C403.772 98.5207 404.848 97.758 404.759 96.2776C404.803 94.7074 403.727 93.9447 401.618 93.9447V93.9447ZM400.99 87.2601H396.863V91.3426H401.169C403.099 91.3426 404.041 90.6248 403.996 89.2789C403.996 87.933 403.009 87.2601 400.99 87.2601V87.2601ZM430.689 100.54H426.293L424.723 97.0402H417.365L415.795 100.54H411.398L418.487 85.1066H423.601L430.689 100.54ZM421.044 88.247L418.218 94.7971H423.736L421.044 88.247ZM450.609 100.54H446.661L438.002 90.1313V100.54H433.875V85.0169H438.002L446.526 95.8738V85.0169H450.654V100.54H450.609ZM459.357 100.54H455.14V85.1066H459.357V92.4193L467.253 85.1066H472.681L465.055 91.6566L473.22 100.54H468.33L462.363 93.9895L459.402 96.5916V100.54H459.357Z" fill="#231916"/>
</svg>
