<svg width="128" height="128" viewBox="0 0 128 128" fill="none" xmlns="http://www.w3.org/2000/svg">
<path fill-rule="evenodd" clip-rule="evenodd" d="M26.5 26.488H101.488V101.481H26.5V26.488Z" fill="#005C9C"/>
<path fill-rule="evenodd" clip-rule="evenodd" d="M45.1345 27.3374C44.7705 34.2865 50.4993 44.3703 61.8829 50.4214C63.8703 45.7914 65.65 44.7546 67.8814 43.6989C77.0242 48.3936 82.1328 56.091 82.1908 57.2073C83.0173 52.9805 83.6227 39.53 71.7807 27.3374H45.1345Z" fill="#10417C"/>
<path fill-rule="evenodd" clip-rule="evenodd" d="M101.489 69.3664C99.2091 66.3354 96.3399 63.7063 92.833 62.4321C90.8807 61.7769 86.3572 58.6488 83.9343 59.2111C88.23 60.9733 93.5544 70.4881 93.4829 74.7069C87.297 76.7684 74.7727 74.959 70.7751 68.1623C68.8686 65.3997 69.4146 63.6415 72.5615 62.0182C66.536 63.3139 68.6165 67.5408 70.9625 72.1128C75.6923 81.2852 89.3774 89.5192 101.489 86.3089V69.3664Z" fill="#10417C"/>
<path fill-rule="evenodd" clip-rule="evenodd" d="M72.391 57.6213C55.8664 53.629 38.8834 67.3613 31.1631 97.5845C46.4837 103.921 60.7593 96.0043 65.6657 89.2062C63.1067 92.4205 62.3692 85.2422 56.0133 81.285C58.0884 67.2615 66.6122 58.9695 75.9558 60.0778C78.0133 59.7596 81.2883 60.3839 80.8623 61.1861C77.6992 57.7102 84.4811 60.547 72.391 57.6213Z" fill="#10417C"/>
<path fill-rule="evenodd" clip-rule="evenodd" d="M71.7807 54.2343C55.2602 50.2366 30.5097 59.9429 29.21 91.8258C54.4094 103.302 71.0244 90.9724 72.5614 77.1497C69.4846 79.5389 58.2237 81.7272 51.8814 77.7605C53.2512 63.799 64.887 58.6108 71.5151 59.2741C78.8444 60.009 81.3118 63.8516 78.8444 67.3908C84.4803 63.4673 83.8762 57.1546 71.7807 54.2343Z" fill="url(#paint0_linear_63_12401)"/>
<path fill-rule="evenodd" clip-rule="evenodd" d="M69.5118 71.1985C78.4307 83.6445 99.4734 84.9766 111.5 72.9526C109.27 66.5846 102.229 58.8643 93.6933 57.6819C91.6426 57.45 85.9973 58.2185 83.7349 59.2742C89.759 59.4009 94.8502 63.8125 95.6605 67.9491C90.0422 71.2618 78.6492 73.7022 73.3234 67.8938C70.8763 65.5977 71.0435 63.764 73.7805 61.5178C65.8593 62.2162 66.7155 67.2979 69.5118 71.1985Z" fill="url(#paint1_linear_63_12401)"/>
<path fill-rule="evenodd" clip-rule="evenodd" d="M59.1281 16.5188C50.4991 22.5389 44.7918 41.0064 61.8827 50.4215C61.2031 44.6805 64.5199 40.5062 66.2228 38.779C75.2509 42.8926 79.5304 48.3936 81.4369 53.8367C81.8306 55.0245 82.6705 58.2536 82.7757 59.3727C83.6845 53.571 92.0155 27.5923 59.1281 16.5188Z" fill="url(#paint2_linear_63_12401)"/>
<defs>
<linearGradient id="paint0_linear_63_12401" x1="29.21" y1="95.3101" x2="79.6934" y2="95.3101" gradientUnits="userSpaceOnUse">
<stop stop-color="#FFD300"/>
<stop offset="1" stop-color="#FFB500"/>
</linearGradient>
<linearGradient id="paint1_linear_63_12401" x1="89.5108" y1="45.8165" x2="69.7833" y2="82.5044" gradientUnits="userSpaceOnUse">
<stop stop-color="#FFD500"/>
<stop offset="1" stop-color="#E9B000"/>
</linearGradient>
<linearGradient id="paint2_linear_63_12401" x1="67.381" y1="6.11848" x2="36.1253" y2="24.82" gradientUnits="userSpaceOnUse">
<stop stop-color="#FED800"/>
<stop offset="1" stop-color="#FAB000"/>
</linearGradient>
</defs>
</svg>
