<svg width="128" height="128" viewBox="0 0 128 128" fill="none" xmlns="http://www.w3.org/2000/svg">
<path d="M50.9498 93.25C51.3998 93.15 51.6998 92.9 51.9498 92.65C52.1998 92.3 52.3998 91.95 52.3998 91.5C52.3998 90.9 52.1498 90.35 51.6998 90C51.2498 89.75 50.7498 89.55 50.0998 89.5H47.5998V97.5H50.0998C50.8498 97.4 51.3998 97.25 51.8998 96.9C52.3498 96.45 52.5998 95.95 52.5998 95.25C52.5998 94.75 52.4998 94.3 52.1498 93.95C51.8998 93.65 51.4498 93.4 50.9498 93.25ZM48.7498 90.35H50.0998C50.3498 90.45 50.5998 90.5 50.8498 90.7C51.0998 90.85 51.2998 91.2 51.2998 91.55C51.2998 92 51.1498 92.35 50.7998 92.5C50.6498 92.65 50.3498 92.75 50.0998 92.85H48.7498V90.35ZM50.9498 96.2C50.7998 96.35 50.4498 96.45 50.0998 96.55H48.7498V93.75H50.1498C50.4998 93.85 50.8498 93.9 51.0998 94.1C51.3498 94.35 51.5498 94.7 51.5498 95.15C51.5498 95.6 51.2998 95.95 50.9498 96.2ZM44.0498 89.5H45.1498V97.5H44.0498V89.5ZM60.2998 93.95H62.0498V96.3C61.7998 96.4 61.5998 96.45 61.4498 96.45C61.1998 96.55 60.9998 96.55 60.7498 96.55C59.7998 96.55 58.9998 96.3 58.3998 95.7C57.8998 95.2 57.5498 94.45 57.5498 93.5C57.5498 92.55 57.8998 91.8 58.3998 91.3C58.9998 90.7 59.7998 90.45 60.7498 90.45C61.0998 90.45 61.4498 90.45 61.7998 90.55C62.1498 90.65 62.3998 90.7 62.7498 90.9L62.8998 89.95C62.4498 89.85 62.0998 89.7 61.7998 89.7C61.4498 89.6 61.0998 89.6 60.6998 89.6C59.3998 89.6 58.3498 89.95 57.5998 90.6C56.7998 91.35 56.4998 92.3 56.4998 93.45C56.4998 94.65 56.8498 95.55 57.5998 96.3C58.3998 96.95 59.3998 97.3 60.6998 97.3C61.1498 97.3 61.5498 97.3 61.9998 97.2C62.3498 97.1 62.7998 97.05 63.0998 96.85V93H60.3498V93.95H60.2998Z" fill="#0062AB"/>
<path d="M94.45 23H33.65C29.55 23 26 26.35 26 30.6V97.4C25.9 101.45 29.6 105 33.65 105H94.45C98.6 105 102 101.45 102 97.4V30.6C102 26.35 98.75 23 94.45 23ZM99.15 97.4C99.15 99.9 96.75 102.15 94.4 102.15H33.65C31.35 102.15 28.85 99.65 28.85 97.4L28.95 30.6C28.95 28.2 31.25 25.85 33.7 25.85H94.45C96.75 25.85 99.2 28.1 99.2 30.6L99.15 97.4Z" fill="#0062AB"/>
<path d="M42.15 89.5H40.95L39 92.65L37.05 89.5H35.75L38.3 93.35L35.5 97.5H36.7L38.9 93.95L41.15 97.5H42.4L39.6 93.35L42.15 89.5ZM90.1 89.65H87.65V97.4H88.75V94.2H90.05C90.75 94.1 91.25 93.95 91.7 93.6C92.2 93.2 92.5 92.65 92.5 91.9C92.5 91.15 92.25 90.55 91.8 90.2C91.4 89.9 90.75 89.75 90.1 89.65ZM90.85 93.05C90.7 93.2 90.4 93.3 90.05 93.4H88.8V90.5H90.1C90.45 90.6 90.7 90.65 90.95 90.85C91.2 91.1 91.4 91.45 91.4 91.95C91.4 92.35 91.2 92.8 90.85 93.05ZM84.65 94.15C84.65 95 84.5 95.6 84.15 96C83.9 96.4 83.35 96.65 82.75 96.65C82.05 96.65 81.65 96.4 81.3 96.05C81.05 95.65 80.85 95.05 80.85 94.2V89.65H79.75V94.2C79.75 95.3 80 96.15 80.55 96.75C81.05 97.25 81.75 97.5 82.7 97.5C83.75 97.5 84.45 97.25 84.95 96.65C85.45 96.15 85.75 95.3 85.75 94.1V89.65H84.7V94.15H84.65ZM78.05 54.6C83.4 52.8 88.3 50 92.5 46.4C89.85 39.45 84.6 33.75 78.05 30.3C77.1 29.85 76.05 29.35 75.05 29C69.8 35.1 66.2 42.6 64.9 50.9H63.15C61.95 42.6 58.35 35.05 53 29C51.95 29.35 51 29.85 50.05 30.3C49.2 30.8 48.35 31.25 47.45 31.85C42.4 35.1 38.45 39.7 36 45.2C35.85 45.65 35.65 45.95 35.5 46.4C39.7 50 44.65 52.8 50.05 54.6C52.45 55.45 55.05 56.05 57.65 56.5V58.2C55.05 58.55 52.5 59.15 50.05 60C44.65 61.8 39.7 64.6 35.5 68.2C38.25 75.05 43.4 80.8 50.05 84.2C51 84.7 51.95 85.15 53 85.5C58.35 79.4 61.95 71.9 63.15 63.65H64.85C66.15 71.85 69.75 79.4 75 85.5C76.05 85.15 77.05 84.75 78 84.2C78.85 83.75 79.7 83.25 80.5 82.75C85.9 79.25 90.15 74.1 92.45 68.2C88.25 64.6 83.3 61.8 78 60C75.5 59.15 73 58.55 70.4 58.2C70.4 57.85 70.3 57.6 70.3 57.35C70.3 57 70.4 56.75 70.4 56.5C73.05 56.05 75.55 55.45 78.05 54.6ZM76.85 36.45C77.3 36.7 77.6 36.95 78.05 37.3C80.8 39.2 83.2 41.65 84.95 44.6C82.8 46.05 80.45 47.25 78.05 48.3C75.8 49.15 73.5 49.85 71.1 50.35C72 45.25 74 40.55 76.85 36.45ZM50.05 48.25C47.55 47.2 45.25 46 43.1 44.55C44.9 41.65 47.25 39.15 50.05 37.25C50.4 36.9 50.8 36.65 51.25 36.4C54 40.5 56 45.2 56.95 50.25C54.55 49.8 52.2 49.1 50.05 48.25ZM51.25 78.05C50.8 77.8 50.4 77.55 50.05 77.3C47.2 75.35 44.9 72.85 43.1 69.95C45.25 68.5 47.6 67.3 50.05 66.35C52.2 65.5 54.55 64.8 56.95 64.4C56 69.25 54 73.95 51.25 78.05ZM78.05 66.3C80.45 67.25 82.8 68.45 84.95 69.9C83.25 72.8 80.8 75.3 78.05 77.25C77.6 77.5 77.3 77.75 76.85 78C74 73.9 72.05 69.2 71.1 64.3C73.45 64.8 75.8 65.45 78.05 66.3ZM68.6 93.9C68.5 93.75 68.25 93.65 68.1 93.55C68.6 93.4 69.05 93.2 69.3 92.9C69.65 92.55 69.8 92.15 69.8 91.65C69.8 91.05 69.55 90.55 69.1 90.2C68.65 89.85 68.05 89.7 67.3 89.7H64.9V97.45H66V94H66.7C66.95 94 67.15 94 67.3 94.1C67.4 94.2 67.45 94.2 67.55 94.2C67.7 94.35 67.9 94.6 68.05 94.95L69.1 97.5H70.3L69.1 94.7C68.95 94.2 68.75 93.95 68.6 93.9ZM67.3 93.1H66V90.5H67.3C67.75 90.6 68 90.65 68.15 90.85C68.5 91 68.65 91.35 68.65 91.8C68.65 92.25 68.5 92.55 68.15 92.8C68 92.95 67.65 93.05 67.3 93.1ZM74.65 89.5C73.55 89.5 72.65 89.9 72.05 90.6C71.35 91.25 71 92.3 71 93.55C71 94.8 71.35 95.75 72.05 96.5C72.65 97.15 73.5 97.5 74.65 97.5C75.75 97.5 76.65 97.15 77.25 96.5C77.95 95.75 78.3 94.8 78.3 93.55C78.3 92.3 77.95 91.3 77.25 90.6C76.6 89.9 75.75 89.5 74.65 89.5ZM76.45 95.8C75.95 96.3 75.4 96.65 74.65 96.65C73.9 96.65 73.35 96.3 72.85 95.8C72.4 95.2 72.25 94.45 72.25 93.55C72.25 92.55 72.4 91.8 72.85 91.3C73.35 90.7 73.9 90.35 74.65 90.35C75.4 90.35 75.95 90.7 76.45 91.3C76.9 91.8 77.05 92.55 77.05 93.55C77.05 94.45 76.9 95.25 76.45 95.8Z" fill="#0062AB"/>
</svg>
