<svg width="128" height="128" viewBox="0 0 128 128" fill="none" xmlns="http://www.w3.org/2000/svg">
<path d="M48.7002 59.6005L63.9502 45.0005L84.0502 64.4005L78.8002 70.2505C78.8002 70.2505 96.2502 76.2505 104.4 52.2005L104.55 51.7505C99.3502 34.2505 83.1502 21.5505 63.9502 21.5505C41.7002 21.5505 23.5002 38.6505 21.7002 60.4505C23.1002 59.6005 34.0502 53.4005 48.7002 59.6005ZM63.9502 85.6005L53.4002 74.1505C53.4002 74.1505 45.6502 80.5005 49.3002 89.3005C52.9502 98.1005 59.8502 103.851 62.3002 106.351C62.8502 106.351 63.4002 106.401 63.9502 106.401C82.4502 106.401 98.2002 94.5505 104 78.0005C102.65 78.9005 95.8502 82.5005 74.5502 75.1005L63.9502 85.6005Z" fill="#1D2088"/>
<path d="M82.9 75.5C82.9 75.5 98.55 80.4 105 74.75C105.9 71.3 106.4 67.7 106.4 63.95C106.4 61.6 106.2 59.25 105.8 57C102.65 63.6 93.95 75.6 73.75 70.95C73.75 70.95 58.95 65.65 50.25 61.55C50.25 61.55 35.1 55.15 21.5 64.05C21.5 68.65 22.25 73.1 23.6 77.25C36.45 63.75 50.3 65.65 56.2 67.4C62.2 69.15 75.6 72.65 75.6 72.65C62.6 70.3 63.85 69.55 52.9 68.75C41.95 67.95 26.95 77.75 24.9 80.75C30.75 94.25 43.4 104.15 58.55 106.05C53.45 101.2 36.05 84.15 52.45 72.45C52.6 72.4 60.55 68.5 82.9 75.5Z" fill="#F9C500"/>
</svg>
