<svg width="128" height="128" viewBox="0 0 128 128" fill="none" xmlns="http://www.w3.org/2000/svg">
<path d="M66.977 21.5C68.6705 21.7608 70.3712 21.9842 72.0576 22.2888C89.1587 25.381 103.157 39.6075 105.879 56.7948C108.05 70.5114 104.558 82.6728 95.1467 92.9107C87.3383 101.404 77.5189 105.941 65.9602 106.452C53.4833 107.003 42.7398 102.796 33.905 94.0299C26.7676 86.9472 22.732 78.2824 21.7159 68.2415C19.8279 49.5866 30.4709 31.8101 47.8018 24.7068C51.7852 23.0744 55.9174 22.0428 60.215 21.6932C60.4906 21.6706 60.7604 21.5663 61.0328 21.5H66.977ZM56.9064 51.2312C57.0726 52.3079 57.182 53.2487 57.3881 54.1682C57.4345 54.3749 57.8067 54.6267 58.0501 54.6525C60.0167 54.8572 61.9865 55.1206 63.9588 55.165C73.1491 55.3685 81.8951 53.4489 90.1845 49.4771C91.406 48.8924 92.5754 48.1996 93.8659 47.5041L91.625 44.8672C80.8017 50.9988 69.2546 52.984 56.9064 51.2312ZM34.1561 80.4641C34.3635 80.7744 34.426 80.8871 34.5058 80.9844C34.9334 81.5014 35.3964 81.9915 35.7879 82.5337C36.191 83.0932 36.5677 83.0945 37.1575 82.77C47.127 77.2888 57.7873 75.3183 69.0691 76.5508C69.6925 76.6185 70.3164 76.6822 71.0621 76.7614C70.9443 75.8721 70.8168 75.1258 70.7537 74.3737C70.6964 73.6847 70.3647 73.3659 69.6796 73.3151C68.1515 73.2011 66.628 72.9937 65.098 72.9306C56.1395 72.5623 47.5584 74.2159 39.3733 77.869C37.6334 78.6462 35.9572 79.5651 34.1561 80.4641ZM47.76 33.8443C46.9802 34.4992 46.3942 35.0323 45.765 35.5063C45.2196 35.9178 45.1153 36.2739 45.4746 36.9307C50.8959 46.8383 52.9488 57.4143 51.6835 68.6362C51.6036 69.3439 51.5592 70.0567 51.4929 70.8372C52.0731 70.7535 52.5154 70.7007 52.9533 70.6253C54.8581 70.2956 54.8523 70.2931 55.0468 68.3548C56.0358 58.529 54.6205 49.0599 50.7472 39.9778C49.8759 37.9352 48.8064 35.9776 47.76 33.8443ZM76.5092 57.2083C75.911 57.2939 75.4093 57.3551 74.9116 57.4388C73.1491 57.7356 73.1478 57.7376 72.9682 59.5316C71.9707 69.4141 73.3468 78.9476 77.2645 88.0844C78.1377 90.1225 79.2002 92.08 80.2363 94.1999C81.0734 93.507 81.7167 92.9436 82.3948 92.4258C82.8288 92.0936 82.8964 91.7883 82.6195 91.297C82.0572 90.2953 81.531 89.2738 81.0419 88.2344C77.1022 79.8929 75.4299 71.1231 76.117 61.9148C76.2317 60.37 76.3733 58.8252 76.5092 57.2083ZM45.5081 72.2777C46.3787 72.0555 47.0767 71.8115 47.7954 71.711C48.6441 71.5932 48.8688 71.0967 48.9113 70.3459C48.9776 69.1675 49.1097 67.9929 49.1863 66.8145C49.7388 58.2669 48.5018 50.0116 45.0921 42.1247C44.4797 40.7074 43.7495 39.3409 43.0302 37.8605C42.4571 38.3299 42.0373 38.6687 41.6226 39.0132C40.119 40.263 40.3141 39.8522 41.0894 41.4479C45.237 49.9878 46.7393 59.0016 45.9479 68.4276C45.8442 69.6581 45.6691 70.8829 45.5081 72.2777ZM84.8681 90.2873C85.6724 89.6273 86.2262 89.1031 86.8495 88.6813C87.507 88.2351 87.5521 87.8378 87.1908 87.1114C82.3935 77.4768 80.8867 67.3155 82.4147 56.6822C82.4521 56.4227 82.4192 56.1528 82.4192 55.7967C81.6034 56.0118 80.9079 56.2681 80.1906 56.3641C79.4294 56.4658 79.1873 56.8811 79.1101 57.5624C78.1577 66.083 78.714 74.4626 81.6188 82.5833C82.5377 85.1487 83.7322 87.6163 84.8681 90.2873ZM55.5046 45.3798C55.7332 46.2748 55.9631 47.0701 56.1331 47.8795C56.2541 48.4514 56.5858 48.6542 57.1344 48.689C59.0765 48.8152 61.0161 49.0348 62.9601 49.0921C72.133 49.3632 80.859 47.5885 89.0145 43.278C89.281 43.1363 89.5322 42.9669 89.8567 42.7705C89.2662 42.0622 88.7279 41.4724 88.2572 40.8336C87.8837 40.3255 87.5508 40.2998 86.9706 40.5548C84.6647 41.5664 82.3709 42.6398 79.9877 43.4377C74.071 45.4275 67.8274 46.2636 61.5956 45.9007C59.5994 45.7887 57.6096 45.5633 55.5046 45.3798ZM38.2052 85.1139C38.305 85.3779 38.3192 85.4823 38.3759 85.5512C38.8395 86.1198 39.3482 86.6555 39.7713 87.2518C40.1493 87.785 40.4815 87.7644 41.0392 87.4868C50.1071 82.9593 59.6908 81.3037 69.7581 82.4004C70.6532 82.4983 71.5444 82.629 72.4711 82.7494C71.8967 79.4589 71.8967 79.4589 68.8335 79.1891L68.6422 79.1723C60.1216 78.4666 51.8103 79.3475 43.8281 82.5498C41.9175 83.3167 40.0771 84.2549 38.2052 85.1139ZM35.7293 43.9786C40.5144 53.7168 41.2285 63.8646 39.4506 74.4439C40.2529 74.1348 40.9117 73.8167 41.6059 73.6299C42.4455 73.4039 42.8222 72.9403 42.989 72.069C44.4714 64.3096 43.9395 56.6841 41.4442 49.2125C40.609 46.714 39.5143 44.3031 38.4679 41.6765L35.7293 43.9786ZM92.2915 84.0662C89.9037 79.3346 88.5418 74.3866 87.97 69.199C87.3982 64.0102 87.6313 58.8554 88.5901 53.5848C87.7472 53.9139 87.0871 54.2545 86.3853 54.4252C85.4651 54.6493 85.1605 55.2095 84.9963 56.0859C83.3356 64.9258 84.3105 73.4915 87.6242 81.8137C88.2173 83.3032 88.9365 84.7404 89.6429 86.3046C90.6249 85.4752 91.4453 84.7804 92.2915 84.0662ZM53.3307 39.2624C53.7009 40.2431 53.963 41.0989 54.3519 41.8922C54.5194 42.2316 54.9212 42.6186 55.2683 42.6785C57.184 43.0094 59.1081 43.3604 61.0431 43.4937C68.7349 44.0275 76.099 42.6327 83.1405 39.5109C84.0632 39.1014 84.9634 38.6397 85.9738 38.1548L83.794 35.5436C74.1034 40.3081 63.9576 41.0332 53.3307 39.2624ZM74.5574 88.4766C74.2998 87.7972 74.041 86.944 73.6482 86.1558C73.4807 85.8184 73.0667 85.4591 72.7093 85.3876C71.1471 85.0772 69.5733 84.7836 67.9893 84.6368C59.8988 83.8834 52.1664 85.3078 44.7573 88.5886C43.8661 88.9827 42.9955 89.4244 42.0218 89.8874C42.6445 90.6395 43.1899 91.2577 43.6871 91.9126C44.0618 92.4065 44.4205 92.4651 44.9827 92.1805C51.1419 89.06 57.7352 87.7084 64.5848 87.7341C67.8824 87.7457 71.1774 88.2113 74.5574 88.4766ZM45.9602 94.5289C46.6395 95.3409 47.2261 96.001 47.7625 96.6996C48.0839 97.1169 48.3814 97.0957 48.8276 96.9057C56.3752 93.6989 64.2518 93.1348 72.2972 94.0659C74.1099 94.2759 75.902 94.6609 77.7829 94.979C77.2787 94.028 76.8595 93.0936 76.3044 92.2494C76.041 91.8495 75.5613 91.4541 75.108 91.3402C71.5303 90.4386 67.8849 90.1894 64.2016 90.2732C59.1164 90.391 54.1845 91.2783 49.4226 93.0678C48.2996 93.4896 47.21 93.999 45.9602 94.5289ZM50.2288 33.096C50.6364 33.8552 51.1155 34.579 51.4265 35.3691C51.8155 36.3569 52.5148 36.7117 53.5058 36.901C63.1855 38.7491 72.5007 37.4761 81.5364 33.7103C81.6691 33.655 81.7779 33.541 81.9556 33.4128C81.3812 32.729 80.8255 32.116 80.329 31.4572C79.9858 31.0032 79.6928 30.9182 79.1326 31.1591C71.8033 34.3002 64.1314 34.8733 56.3024 34.0587C54.2843 33.8494 52.2868 33.4283 50.2288 33.096ZM94.6985 50.5461C93.7648 51.0355 92.8143 51.474 91.9334 52.0258C91.5793 52.248 91.1877 52.6904 91.1369 53.0748C90.728 56.1361 90.1549 59.2012 90.0982 62.2735C90.0093 67.0734 90.7247 71.8192 92.1562 76.4221C92.7654 78.3803 93.504 80.2979 94.1975 82.2716C94.4808 82.1306 94.5755 82.1035 94.645 82.0456C95.2368 81.5587 95.8061 81.0442 96.4178 80.5858C96.8647 80.2496 96.8634 79.9244 96.658 79.4395C93.5767 72.1746 92.9225 64.5858 93.7403 56.8219C93.9592 54.7413 94.3669 52.6807 94.6985 50.5461ZM33.7794 45.6586C32.9204 46.3759 32.308 46.9297 31.6512 47.4236C31.1902 47.7707 31.12 48.0914 31.3505 48.6355C34.643 56.4091 35.1588 64.5073 34.0808 72.7754C33.8805 74.3125 33.5586 75.8335 33.2624 77.5367C34.1433 77.066 34.8632 76.5953 35.6475 76.2843C36.531 75.9352 36.8787 75.3261 37.0539 74.4374C38.5871 66.6645 38.0307 59.0068 35.7982 51.4489C35.2405 49.5621 34.5058 47.7269 33.7794 45.6586Z" fill="#D71718"/>
<path d="M56.8994 51.1996C69.2475 52.9517 80.7953 50.9665 91.6186 44.8355L93.8588 47.4725C92.569 48.1673 91.399 48.8602 90.1781 49.4455C81.8887 53.4167 73.1421 55.3362 63.9518 55.1327C61.9788 55.0883 60.0102 54.8249 58.043 54.6215C57.799 54.5957 57.4268 54.3439 57.3804 54.1372C57.1737 53.217 57.0655 52.2756 56.8994 51.1996ZM34.1484 80.4318C35.9495 79.5322 37.627 78.6146 39.3669 77.838C47.552 74.1843 56.1331 72.5313 65.0916 72.8996C66.6209 72.9627 68.1445 73.1701 69.6725 73.2841C70.357 73.3349 70.6887 73.6537 70.7466 74.3427C70.8104 75.0935 70.9372 75.8405 71.0544 76.7298C70.3087 76.6506 69.6848 76.5868 69.0614 76.5186C57.7803 75.2861 47.1199 77.2565 37.1505 82.7383C36.56 83.0622 36.1839 83.061 35.7802 82.502C35.3893 81.9592 34.9257 81.4685 34.4981 80.9521C34.4189 80.8548 34.3564 80.7428 34.1484 80.4318ZM47.7529 33.8113C48.7987 35.9447 49.8689 37.9029 50.7401 39.9442C54.6141 49.0269 56.0294 58.4954 55.0403 68.3212C54.8459 70.2595 54.8517 70.2621 52.9469 70.5918C52.509 70.6677 52.0666 70.7205 51.4865 70.8043C51.5528 70.0244 51.5979 69.3116 51.6771 68.6033C52.9417 57.3807 50.8895 46.8047 45.4676 36.8977C45.1083 36.2403 45.2126 35.8842 45.758 35.4733C46.3878 35 46.9731 34.4669 47.7529 33.8113ZM76.5015 57.176C76.3663 58.7935 76.2246 60.3371 76.1093 61.8831C75.4229 71.0921 77.0952 79.8612 81.0342 88.2034C81.5238 89.2426 82.05 90.2641 82.6118 91.266C82.8887 91.7567 82.8211 92.0626 82.3871 92.3942C81.709 92.9126 81.0657 93.476 80.2286 94.1682C79.1925 92.0477 78.13 90.0908 77.2562 88.0528C73.3385 78.9159 71.963 69.3831 72.9598 59.4993C73.1401 57.7059 73.1408 57.7027 74.9039 57.4058C75.4023 57.3234 75.9033 57.2622 76.5015 57.176Z" fill="#F3DF27"/>
<path d="M45.5018 72.2454C45.6628 70.85 45.8379 69.6259 45.9409 68.3953C46.733 58.9694 45.2307 49.9549 41.0824 41.4156C40.3071 39.8193 40.112 40.2295 41.6156 38.9809C42.031 38.6357 42.4502 38.297 43.0233 37.8282C43.7432 39.3087 44.4728 40.6744 45.0852 42.0918C48.4954 49.9793 49.7324 58.2346 49.1799 66.7822C49.104 67.96 48.9713 69.1352 48.9043 70.313C48.8618 71.0644 48.6371 71.5603 47.7884 71.6781C47.0704 71.7786 46.3717 72.0233 45.5018 72.2454ZM84.8618 90.2551C83.7259 87.5834 82.5308 85.1164 81.6119 82.5503C78.7064 74.4309 78.1507 66.0514 79.1031 57.5308C79.1791 56.8489 79.4218 56.4342 80.183 56.3318C80.8997 56.2352 81.5958 55.9796 82.4116 55.7645C82.4116 56.1206 82.4438 56.3904 82.4065 56.6499C80.8784 67.2839 82.3859 77.4452 87.1826 87.0798C87.5444 87.8062 87.4987 88.2035 86.8419 88.6491C86.2192 89.0715 85.6661 89.5957 84.8618 90.2551ZM55.4983 45.3475C57.6026 45.5317 59.5924 45.757 61.5893 45.8697C67.8211 46.2321 74.0646 45.3958 79.9814 43.406C82.364 42.6082 84.6577 41.5348 86.9643 40.5225C87.5438 40.2688 87.8767 40.2939 88.2509 40.8019C88.7222 41.4407 89.2599 42.0306 89.8497 42.7389C89.5258 42.9353 89.2747 43.1047 89.0088 43.2463C80.8533 47.5581 72.1267 49.3315 62.9544 49.0604C61.0097 49.0038 59.0708 48.7836 57.1287 48.6573C56.5807 48.6219 56.2491 48.4197 56.1274 47.8473C55.9567 47.0378 55.7262 46.2426 55.4983 45.3475ZM38.1982 85.081C40.0702 84.2233 41.9112 83.2838 43.8217 82.5175C51.804 79.3146 60.1153 78.4343 68.6359 79.14L68.8265 79.1568C71.8897 79.4266 71.8897 79.4266 72.4647 82.7165C71.5375 82.5967 70.6462 82.4653 69.7512 82.3675C59.6845 81.2708 50.1001 82.9264 41.0335 87.4546C40.4765 87.7321 40.1429 87.7521 39.7656 87.2195C39.3419 86.6226 38.8332 86.0862 38.3695 85.5182C38.3129 85.45 38.2993 85.3463 38.1982 85.081Z" fill="#F3DF27"/>
<path d="M35.7227 43.9464L38.4613 41.6444C39.5071 44.271 40.6024 46.6825 41.4376 49.1804C43.9335 56.6526 44.4654 64.2781 42.9824 72.0376C42.8163 72.9088 42.4389 73.3724 41.5992 73.5985C40.9051 73.7846 40.2463 74.1027 39.4446 74.4124C41.2212 63.8319 40.5071 53.6847 35.7227 43.9464ZM92.2842 84.0341L89.6363 86.2731C88.9293 84.7103 88.2093 83.2723 87.6169 81.7836C84.3039 73.46 83.3289 64.895 84.989 56.055C85.1539 55.178 85.4584 54.6178 86.378 54.3943C87.0799 54.2237 87.7399 53.883 88.5828 53.5533C87.624 58.824 87.3903 63.978 87.9627 69.1675C88.5345 74.3545 89.8971 79.3025 92.2842 84.0341ZM53.324 39.2296C63.9503 41.0004 74.0968 40.276 83.7874 35.5109L85.9678 38.1227C84.9581 38.6082 84.0579 39.0693 83.1345 39.4795C76.093 42.6013 68.729 43.996 61.0371 43.4628C59.1014 43.3283 57.178 42.978 55.2623 42.647C54.9146 42.5871 54.5127 42.2007 54.346 41.8607C53.9564 41.0674 53.6943 40.211 53.324 39.2296ZM74.5501 88.4451C71.1701 88.1785 67.8751 87.7142 64.5788 87.7007C57.7286 87.6749 51.1359 89.0279 44.976 92.1477C44.4139 92.433 44.0546 92.3744 43.6804 91.8805C43.1833 91.2256 42.6373 90.6068 42.0152 89.8547C42.9888 89.391 43.8594 88.9499 44.7507 88.5558C52.1598 85.275 59.8916 83.8506 67.9826 84.6046C69.5661 84.7521 71.1405 85.0451 72.7027 85.3555C73.0601 85.4263 73.4735 85.7863 73.6416 86.1231C74.0337 86.9119 74.2932 87.7657 74.5501 88.4451ZM45.9529 94.4968C47.2028 93.9669 48.2923 93.4569 49.4153 93.0351C54.1773 91.2449 59.1092 90.3569 64.1943 90.2404C67.8777 90.156 71.5224 90.4059 75.1001 91.3067C75.5534 91.4214 76.0338 91.8161 76.2965 92.216C76.8522 93.0615 77.2714 93.9945 77.775 94.9463C75.894 94.6275 74.1026 94.2431 72.2899 94.0332C64.2452 93.1027 56.3679 93.6668 48.821 96.8729C48.3747 97.0629 48.0772 97.0841 47.7559 96.6669C47.2189 95.9682 46.6322 95.3088 45.9529 94.4968Z" fill="#F3DF27"/>
<path d="M50.2215 33.0639C52.2795 33.3961 54.277 33.8166 56.2958 34.0272C64.1248 34.8418 71.7966 34.2687 79.1259 31.1275C79.6862 30.8874 79.9785 30.9724 80.3217 31.4263C80.8189 32.0838 81.3746 32.6975 81.949 33.3813C81.7706 33.5101 81.6624 33.6241 81.5298 33.6795C72.4947 37.4439 63.1795 38.717 53.4998 36.8695C52.5081 36.6809 51.8095 36.326 51.4199 35.3382C51.1082 34.5468 50.6291 33.8231 50.2215 33.0639ZM94.6918 50.5133C94.3602 52.6492 93.9526 54.7092 93.733 56.7897C92.9152 64.5537 93.5695 72.1431 96.6507 79.408C96.8561 79.8923 96.8574 80.2181 96.4105 80.5536C95.7988 81.0127 95.2302 81.5279 94.6377 82.014C94.5676 82.0714 94.4729 82.0984 94.1902 82.2407C93.4967 80.267 92.7574 78.3494 92.1483 76.3912C90.7175 71.7883 90.0027 67.0419 90.0903 62.2419C90.1476 59.1697 90.7207 56.1039 91.1296 53.0439C91.1811 52.6589 91.572 52.2158 91.9261 51.9943C92.807 51.4418 93.7575 51.0027 94.6918 50.5133ZM33.7721 45.6264C34.4991 47.6954 35.2339 49.5306 35.7909 51.4174C38.0234 58.9746 38.5798 66.6323 37.0459 74.4059C36.8701 75.2946 36.523 75.9037 35.6396 76.2521C34.8552 76.5625 34.1353 77.0338 33.2544 77.5039C33.55 75.8013 33.8726 74.2797 34.0722 72.7433C35.1508 64.4745 34.635 56.377 31.3432 48.6027C31.112 48.0586 31.1822 47.7385 31.6426 47.3915C32.3014 46.8969 32.9138 46.3438 33.7721 45.6264Z" fill="#F3DF27"/>
</svg>
