<svg width="617" height="128" viewBox="0 0 617 128" fill="none" xmlns="http://www.w3.org/2000/svg">
<path d="M189.356 71.4529V30.5212C189.356 28.276 188.838 26.4914 187.686 25.2249C186.477 23.9583 184.693 23.2099 182.044 23.2099H166.673C165.061 23.2099 163.392 23.9583 162.183 25.1673C161.147 26.2611 160.398 27.7003 160.398 29.3698V71.2226C160.398 73.4102 161.204 75.0797 162.356 76.116C163.565 77.2674 165.234 77.8431 166.846 77.8431H182.562C184.462 77.8431 186.304 77.1522 187.513 75.9432C188.665 74.8494 189.356 73.2951 189.356 71.4529V71.4529ZM158.096 28.679C158.671 27.2398 158.441 25.8581 157.635 24.8219C156.829 23.7856 155.62 23.1524 154.123 23.1524H143.012C141.17 23.1524 139.558 23.7856 138.407 24.8794C137.371 25.9157 136.737 27.2974 136.737 29.0244V77.8431H142.494V29.5425C142.494 28.5063 143.531 27.5852 144.509 27.5852H151.475C152.051 27.5852 152.281 28.0457 152.108 28.5639C150.784 32.5937 148.482 37.6022 146.179 42.438C149.691 47.5041 152.684 53.4913 152.224 59.4209C152.166 60.6874 151.072 61.8388 149.691 61.8388H142.494V66.3292H150.899C153.375 66.3292 155.39 65.293 156.599 63.5659C157.808 61.8388 158.326 59.4785 158.096 56.6576C157.693 52.6278 155.793 47.4465 152.224 42.438C154.238 38.2355 156.541 32.8816 158.096 28.679V28.679ZM183.541 47.6768H166.328V30.1758C166.328 28.9093 167.537 27.6428 168.746 27.6428H181.123C182.332 27.6428 183.541 28.7942 183.541 29.888V47.6768ZM183.541 71.0499C183.541 72.1437 182.505 73.3526 181.526 73.3526H168.516C167.537 73.3526 166.328 72.3164 166.328 71.0499V52.3399H183.541V71.0499V71.0499ZM259.763 75.1373C254.869 71.6256 249.918 67.9987 245.37 63.7962C249.688 59.7663 253.718 55.2184 256.942 50.4977H249.573C247.328 53.9519 244.622 57.406 241.571 60.2845C239.095 57.9241 236.274 55.0457 234.144 52.1097V47.8495L249.746 47.792C251.876 47.792 253.257 46.986 254.178 45.8346C254.984 44.7984 255.387 43.4167 255.387 42.0926V31.615C255.387 29.9455 254.812 28.6214 253.775 27.6428C252.797 26.7217 251.358 26.2035 249.573 26.2035H233.338C233.914 25.2249 234.72 23.4978 235.123 22.2888H228.157C227.754 23.4402 227.063 25.1097 226.545 26.2035H212.671C211.117 26.2035 209.85 26.7217 208.987 27.4701C207.778 28.5639 207.202 30.1758 207.202 31.7877V41.9199C207.202 43.7621 207.778 45.2013 208.756 46.1224C209.85 47.2163 211.462 47.792 213.247 47.792H228.388V72.0286C228.388 72.9497 227.754 73.6405 226.891 73.6405H217.68V77.9582H229.136C230.69 77.9582 232.072 77.2673 233.051 76.0584C233.799 75.0797 234.26 73.8132 234.26 72.4891V60.1693C238.002 64.487 244.795 70.8196 250.436 75.0797H259.763V75.1373ZM225.854 54.6427C225.164 53.6064 223.897 52.9732 222.343 52.9732H204.439V57.1182H219.464C219.867 57.1182 219.982 57.406 219.752 57.6938L219.695 57.7514C215.722 63.2205 209.505 69.5531 202.942 75.1373H210.944C216.298 70.3015 222.17 63.7962 225.624 58.8452C226.718 57.3484 226.603 55.7941 225.854 54.6427V54.6427ZM249.458 34.6662H213.074V31.9605C213.074 31.2121 213.765 30.3485 214.571 30.3485H247.903C248.825 30.3485 249.515 30.9818 249.515 31.7877V34.6662H249.458ZM249.458 41.9775C249.458 42.7834 248.882 43.4167 247.903 43.4167H214.686C213.765 43.4167 213.017 42.6683 213.017 41.8623V38.7536H249.458V41.9775ZM328.961 34.2057V29.6577H304.379C303.343 28.0458 301.788 24.534 301.097 22.2313H294.765C295.34 24.3613 296.78 27.9306 297.643 29.6577H273.464V34.2057H298.104V41.4594H281.927C280.603 41.4594 279.221 42.0351 278.242 42.841C277.091 43.8773 276.343 45.2013 276.343 46.6981V72.374H282.215V47.389C282.215 46.583 282.963 46.0073 283.711 46.0073H298.161V78.1309H304.091V46.0073H318.656C319.347 46.0073 319.98 46.6406 319.98 47.2738V65.6959C319.98 66.7898 319.232 67.5382 318.31 67.5382H309.157V72.3164H321.016C322.398 72.3164 323.722 71.7983 324.586 70.8772C325.507 69.9561 325.967 68.7471 325.967 67.3655V47.7344C325.967 46.1225 325.449 44.6832 324.643 43.5894C323.607 42.3229 322.11 41.4594 320.21 41.4594H303.976V34.2057H328.961V34.2057ZM384.573 52.9732C382.097 50.2674 380.312 46.0649 378.758 42.5532H372.828C373.634 45.3165 375.707 50.1523 377.261 52.9732H384.573V52.9732ZM395.396 31.4999V27.2398H372.31C371.562 26.0884 370.411 23.7281 369.835 22.404H363.272C363.79 23.6129 364.941 26.0308 365.575 27.2398H341.396V31.4999H352.91L354.118 33.63C355.04 35.1843 356.076 36.969 356.882 38.1203H349.858C348.246 38.1203 346.75 38.5809 345.598 39.3869C344.389 40.308 343.641 41.5745 343.641 43.4167V78.0158H349.455V44.05C349.455 43.0137 350.377 42.4956 351.298 42.4956H385.897C386.875 42.4956 387.509 43.1289 387.509 44.1075V72.4315C387.509 73.2375 386.99 73.6405 386.3 73.6405H378.931V77.9582H387.393C389.811 77.9582 391.308 77.2674 392.172 76.1735C392.92 75.1373 393.265 73.8132 393.265 72.2588V44.4529C393.265 42.4956 392.747 40.9412 391.654 39.8474C390.56 38.696 388.775 38.1203 386.357 38.1203H380.14L380.658 37.2568C381.752 35.4146 383.133 33.0543 383.939 31.4999H395.396ZM364.366 42.4956H358.436C356.652 46.1225 355.097 50.3826 352.391 53.1459H360.048C361.487 50.8431 364.02 45.2589 364.366 42.4956ZM381.521 68.0563V58.0968C381.521 56.7727 381.061 55.6789 380.312 54.8154C379.564 54.0094 378.47 53.4913 377.146 53.4913H359.933C358.551 53.4913 357.458 53.8943 356.652 54.5275C355.615 55.3335 355.155 56.6576 355.155 58.0968V68.0563C355.155 69.2077 355.615 70.2439 356.306 71.0499C357.112 71.971 358.263 72.4891 359.703 72.4891H376.686C378.47 72.4891 379.852 71.9134 380.715 70.8196C381.176 70.1288 381.521 69.2077 381.521 68.0563V68.0563ZM377.319 31.4999C376.225 33.8027 374.786 36.2206 373.347 38.1203H363.56C362.178 36.566 360.163 33.2845 359.3 31.4999H377.319ZM376.052 67.02C376.052 67.7109 375.534 68.229 374.843 68.229H362.121C361.315 68.229 360.739 67.6533 360.739 66.9049V59.1906C360.739 58.4998 361.315 57.8666 361.948 57.8666H374.786C375.419 57.8666 376.052 58.4998 376.052 59.1906V67.02V67.02ZM463.212 31.7877H457.743C456.592 42.4956 454.864 53.1459 451.353 63.0478H457.052C460.276 53.1459 462.003 42.4956 463.212 31.7877ZM465.284 78.0733V73.6981H447.783V22.2888H442.027V73.6405H433.103V22.2888H427.174V73.6405H409.73V78.1309L465.284 78.0733V78.0733ZM424.123 63.0478C420.841 53.0308 418.826 42.5532 417.445 31.7877H412.033L412.378 34.0329C413.818 43.8197 415.545 54.2973 418.653 63.0478H424.123V63.0478ZM532.41 44.1075V29.1396C532.41 27.5276 531.892 26.146 531.028 25.0522C529.935 23.7856 528.323 22.9221 526.365 22.9221H508.346C506.446 22.9221 504.95 23.6129 503.913 24.7067C502.762 25.9157 502.244 27.6428 502.244 29.6001V71.971C502.244 73.5829 502.935 75.1373 504.029 76.2311C505.065 77.2098 506.389 77.8431 507.886 77.8431H518.593V73.6405H509.785C508.864 73.6405 507.886 72.7194 507.886 71.7407V50.325H526.193C528.438 50.325 530.05 49.6342 531.086 48.3677C531.95 47.3314 532.41 45.8922 532.41 44.1075V44.1075ZM500.747 33.7451V29.485H488.255C489.003 27.1246 489.809 24.534 490.154 22.2313H484.916C483.304 28.3336 481.289 34.3208 477.95 39.7898H483.822C484.916 38.0052 485.952 35.76 486.758 33.8027H500.747V33.7451ZM535.576 77.9006C530.856 73.1224 529.359 72.0861 527.286 68.5744C532.64 62.0691 535.749 57.6939 536.613 55.5062H530.395C529.071 58.3271 526.308 61.2056 523.947 63.6235C521.76 60.745 519.918 55.4487 518.996 52.9732H512.837C516.118 62.0115 519.975 70.6469 527.229 77.9006H535.576ZM500.862 59.3633V55.1608H492.284V45.9497H499.538V41.6321H480.425V45.9497H486.7V55.1608H478.698V59.3633H486.7V72.1437C486.7 73.9859 487.218 75.4251 488.024 76.3462C489.003 77.4401 490.442 77.9582 492.169 77.9582H500.114V73.6981H494.069C493.263 73.6981 492.284 72.8921 492.284 71.8559V59.3633H500.862V59.3633ZM526.653 34.6662H507.886V29.3698C507.886 28.3336 508.864 27.3549 510.016 27.3549H524.753C525.79 27.3549 526.653 28.3912 526.653 29.2547V34.6662ZM526.653 43.9924C526.653 45.2014 525.674 46.18 524.638 46.18H507.886V38.8112H526.653V43.9924ZM600.342 28.4487V23.7856H566.146V28.4487H600.342ZM564.361 22.404H557.395C554.632 27.4701 551.12 32.824 546.63 37.1417H554.747C558.719 32.5361 561.598 27.5276 564.361 22.404ZM602.702 43.7621V39.1566H564.361V43.7621H587.907V71.5105C587.907 72.6043 587.101 73.3526 586.295 73.3526H578.235V78.0733H588.828C590.094 78.0733 591.303 77.5552 592.224 76.7492C593.261 75.8281 593.894 74.504 593.894 73.1224V43.7621H602.702V43.7621ZM563.382 37.7174C561.252 43.0137 558.949 48.3677 555.783 53.261H558.892V78.0733H552.962V56.3122H546.515C551.35 50.6704 554.286 44.2227 556.935 37.7174H563.382ZM145.891 99.2587V106.685H142.379V99.1436L136.334 89.472H140.422L144.164 96.2076L148.136 89.472H152.281L145.891 99.2587ZM166.213 106.628L164.601 102.655H158.153L156.541 106.628H152.339L159.305 89.4144H163.45L170.415 106.628H166.213ZM161.492 93.7321L159.362 100.18H163.622L161.492 93.7321ZM182.965 106.628L176.057 94.02V106.628H172.603V89.4144H177.266L184.059 102.252V89.4144H187.513V106.628H182.965V106.628ZM196.437 106.628C195.17 106.628 194.134 106.397 193.213 105.994C192.349 105.534 191.601 104.958 191.083 104.21C190.507 103.461 190.162 102.54 189.874 101.504C189.643 100.468 189.528 99.3163 189.528 98.1649C189.528 97.5317 189.586 96.8984 189.643 96.2076C189.701 95.5168 189.874 94.8835 190.046 94.2503C190.219 93.617 190.507 93.0413 190.852 92.4656C191.198 91.8899 191.601 91.4293 192.119 91.0264C192.867 90.4507 193.673 90.0477 194.594 89.8174C195.516 89.6447 196.437 89.5296 197.3 89.5296H204.439V92.5807H197.703C196.84 92.5807 196.149 92.6959 195.573 92.9261C194.997 93.1564 194.594 93.5019 194.249 93.9624C193.904 94.423 193.731 94.9411 193.558 95.6319C193.443 96.2652 193.385 97.0136 193.385 97.8771C193.385 98.1649 193.385 98.5104 193.443 98.8558C193.443 99.2588 193.501 99.6042 193.558 100.007C193.616 100.41 193.673 100.756 193.788 101.101C193.904 101.446 194.019 101.734 194.134 102.022C194.307 102.368 194.594 102.655 194.825 102.886C195.113 103.116 195.4 103.231 195.746 103.404C196.091 103.519 196.379 103.576 196.724 103.634C197.07 103.692 197.415 103.692 197.818 103.692H200.985V99.6042H196.437V96.553H204.439V106.743H196.437V106.628ZM215.319 106.628C214.283 106.628 213.247 106.512 212.211 106.34C211.174 106.109 210.196 105.707 209.39 105.073C208.872 104.67 208.411 104.21 208.066 103.692C207.72 103.173 207.432 102.598 207.202 101.964C206.972 101.331 206.857 100.756 206.742 100.065C206.626 99.4315 206.626 98.7982 206.626 98.1649C206.626 95.2865 207.317 93.0989 208.699 91.6596C210.081 90.1628 212.211 89.472 215.204 89.472C215.895 89.472 216.586 89.5296 217.334 89.6447C218.025 89.7599 218.716 89.9326 219.407 90.2204C220.04 90.4507 220.673 90.7961 221.191 91.2567C221.709 91.7172 222.17 92.2353 222.573 92.8686C222.976 93.5594 223.264 94.4229 223.494 95.344C223.724 96.2652 223.782 97.1863 223.782 97.9922C223.782 99.0285 223.609 100.065 223.321 100.986C223.034 101.907 222.515 102.828 221.825 103.634H224.761V106.685H215.319V106.628ZM219.349 97.4166C219.349 96.6682 219.292 95.9197 219.119 95.2289C219.004 94.5381 218.773 93.9048 218.428 93.3867C218.083 92.8686 217.68 92.408 217.104 92.1202C216.528 91.7748 215.895 91.6596 215.089 91.6596C214.225 91.6596 213.477 91.8323 212.959 92.1202C212.383 92.408 211.98 92.8686 211.635 93.3867C211.347 93.9048 211.117 94.5381 211.002 95.2289C210.887 95.9197 210.829 96.7257 210.829 97.4741C210.829 98.2801 210.887 99.0285 211.002 99.7769C211.117 100.525 211.347 101.159 211.692 101.677C212.038 102.195 212.441 102.655 213.017 103.001C213.592 103.346 214.283 103.461 215.147 103.461C216.01 103.461 216.759 103.289 217.277 102.943C217.852 102.598 218.255 102.137 218.543 101.619C218.831 101.043 219.061 100.41 219.176 99.7193C219.292 98.9709 219.349 98.165 219.349 97.4166ZM242.78 99.489C242.78 99.8344 242.78 100.18 242.722 100.525C242.665 100.871 242.665 101.274 242.607 101.619C242.55 101.965 242.492 102.367 242.377 102.713C242.262 103.058 242.147 103.404 241.974 103.692C241.686 104.267 241.283 104.728 240.765 105.131C240.247 105.534 239.729 105.822 239.095 106.052C238.462 106.282 237.886 106.455 237.196 106.512C236.505 106.57 235.929 106.628 235.296 106.628C234.663 106.628 234.087 106.57 233.511 106.512C232.878 106.455 232.302 106.34 231.784 106.167C231.208 105.994 230.69 105.764 230.23 105.419C229.769 105.073 229.309 104.67 228.963 104.152C228.733 103.807 228.56 103.461 228.388 103.116C228.272 102.77 228.157 102.368 228.1 102.022C228.042 101.677 227.985 101.274 227.985 100.871V89.4144H231.611V99.6617C231.611 100.065 231.611 100.468 231.669 100.871C231.727 101.274 231.842 101.677 232.014 102.022C232.187 102.31 232.36 102.598 232.648 102.828C232.935 103.058 233.223 103.231 233.511 103.346C233.799 103.519 234.144 103.576 234.49 103.634C234.835 103.692 235.181 103.749 235.469 103.749C235.872 103.749 236.39 103.692 236.908 103.576C237.426 103.461 237.886 103.231 238.232 103.001C238.462 102.77 238.692 102.54 238.808 102.31C238.923 102.08 239.038 101.792 239.095 101.504C239.153 101.216 239.211 100.928 239.211 100.583V89.4144H242.837V99.489H242.78ZM257.69 106.628L256.078 102.655H249.631L248.019 106.628H243.816L250.782 89.4144H254.927L261.893 106.628H257.69ZM252.797 93.7321L250.667 100.18H254.927L252.797 93.7321ZM274.443 106.628L267.535 94.02V106.628H264.08V89.4144H268.743L275.537 102.252V89.4144H278.991V106.628H274.443V106.628ZM296.434 106.628C295.801 106.628 295.168 106.628 294.592 106.57C294.016 106.512 293.441 106.397 292.807 106.167C291.944 105.879 291.253 105.419 290.735 104.843C290.217 104.267 289.756 103.634 289.411 102.886C289.065 102.137 288.835 101.389 288.72 100.525C288.605 99.7193 288.547 98.8558 288.547 98.0498C288.547 97.4741 288.605 96.8408 288.662 96.2076C288.72 95.5743 288.893 94.9411 289.065 94.3654C289.238 93.7897 289.468 93.214 289.756 92.6383C290.044 92.1202 290.389 91.6021 290.85 91.1415C291.195 90.7385 291.656 90.4507 292.117 90.2204C292.577 89.9901 293.038 89.8174 293.556 89.7023C294.074 89.5871 294.592 89.472 295.11 89.4144C295.628 89.3569 296.146 89.3569 296.664 89.3569H302.421V92.408H297.067C296.146 92.408 295.456 92.5232 294.822 92.7534C294.189 92.9837 293.786 93.3291 293.441 93.7897C293.095 94.2502 292.865 94.7684 292.75 95.4592C292.635 96.0925 292.52 96.8408 292.52 97.6468C292.52 97.9347 292.52 98.2801 292.577 98.683C292.577 99.086 292.635 99.4314 292.692 99.8344C292.75 100.237 292.807 100.583 292.923 100.928C293.038 101.274 293.153 101.562 293.325 101.849C293.556 102.195 293.786 102.483 294.074 102.713C294.362 102.943 294.65 103.116 294.995 103.231C295.34 103.346 295.686 103.404 296.031 103.461C296.377 103.519 296.78 103.519 297.125 103.519H302.364V106.57H296.434V106.628ZM305.53 106.628V89.4144H308.696V106.628H305.53ZM321.131 92.5232V106.628H317.505V92.5232H311.978V89.472H326.888V92.5232H321.131ZM337.481 99.2587V106.685H333.969V99.1436L327.925 89.472H332.012L335.754 96.2076L339.726 89.472H343.871L337.481 99.2587ZM360.278 106.628C359.645 106.628 359.012 106.628 358.436 106.57C357.86 106.512 357.285 106.397 356.652 106.167C355.788 105.879 355.097 105.419 354.579 104.843C354.061 104.267 353.6 103.634 353.255 102.886C352.91 102.137 352.679 101.389 352.564 100.525C352.449 99.7193 352.391 98.8558 352.391 98.0498C352.391 97.4741 352.449 96.8408 352.507 96.2076C352.564 95.5743 352.737 94.9411 352.91 94.3654C353.082 93.7897 353.313 93.214 353.6 92.6383C353.888 92.0626 354.234 91.6021 354.694 91.1415C355.04 90.7385 355.5 90.4507 355.961 90.2204C356.421 89.9901 356.882 89.8174 357.4 89.7023C357.918 89.5871 358.436 89.472 358.954 89.4144C359.472 89.3569 359.991 89.3569 360.509 89.3569H366.266V92.408H360.912C359.991 92.408 359.3 92.5232 358.666 92.7534C358.091 92.9837 357.63 93.3291 357.285 93.7897C356.939 94.2502 356.709 94.7684 356.594 95.4592C356.479 96.0925 356.364 96.8408 356.364 97.6468C356.364 97.9347 356.364 98.2801 356.421 98.683C356.421 99.086 356.479 99.4314 356.536 99.8344C356.594 100.237 356.652 100.583 356.767 100.928C356.882 101.274 356.997 101.562 357.17 101.849C357.4 102.195 357.63 102.483 357.918 102.713C358.206 102.943 358.494 103.116 358.839 103.231C359.185 103.346 359.53 103.404 359.875 103.461C360.221 103.519 360.624 103.519 360.969 103.519H366.208V106.57H360.278V106.628ZM385.379 98.2801C385.379 100.986 384.688 103.058 383.364 104.498C381.982 105.937 379.909 106.685 377.146 106.685C376.628 106.685 376.11 106.628 375.592 106.57C375.074 106.512 374.498 106.397 373.98 106.282C373.462 106.167 372.944 105.994 372.425 105.764C371.907 105.534 371.504 105.303 371.101 105.016C370.583 104.613 370.123 104.152 369.777 103.634C369.432 103.116 369.144 102.54 368.914 101.964C368.683 101.389 368.568 100.756 368.453 100.122C368.338 99.489 368.338 98.8558 368.338 98.2225C368.338 95.4016 369.029 93.214 370.411 91.7748C371.792 90.3355 373.922 89.5296 376.858 89.5296C379.852 89.5296 381.982 90.278 383.364 91.7748C384.688 93.214 385.379 95.4016 385.379 98.2801V98.2801ZM381.118 97.4166C381.118 96.6106 381.061 95.8622 380.946 95.1713C380.831 94.4805 380.6 93.8473 380.312 93.3291C379.967 92.811 379.564 92.3504 378.988 92.0626C378.413 91.7748 377.722 91.6021 376.858 91.6021C375.995 91.6021 375.246 91.7748 374.671 92.0626C374.095 92.3504 373.692 92.811 373.347 93.3291C373.059 93.8473 372.828 94.4805 372.713 95.2289C372.598 95.9773 372.541 96.7257 372.541 97.5317C372.541 98.3376 372.598 99.086 372.713 99.8344C372.828 100.583 373.059 101.159 373.347 101.734C373.692 102.252 374.095 102.713 374.671 103.058C375.246 103.404 375.937 103.519 376.858 103.519C377.722 103.519 378.47 103.346 378.988 103.058C379.506 102.77 379.967 102.31 380.255 101.734C380.543 101.159 380.773 100.525 380.888 99.8344C381.061 98.9709 381.118 98.2225 381.118 97.4166V97.4166ZM404.261 106.628V93.7321L399.828 106.628H396.144L391.941 93.7321V106.628H388.545V89.4144H393.841L398.044 102.828L402.477 89.4144H407.773V106.628H404.261V106.628ZM426.598 106.628V93.7321L422.165 106.628H418.481L414.278 93.7321V106.628H410.882V89.4144H416.178L420.381 102.828L424.813 89.4144H430.11V106.628H426.598V106.628ZM442.314 106.628C441.566 106.628 440.702 106.57 439.896 106.512C439.033 106.455 438.285 106.282 437.536 105.994C436.73 105.706 436.039 105.246 435.521 104.67C435.003 104.095 434.543 103.404 434.197 102.655C433.852 101.907 433.621 101.101 433.506 100.295C433.391 99.489 433.276 98.6831 433.276 97.8771C433.276 97.1287 433.334 96.4379 433.506 95.6895C433.679 94.9411 433.852 94.2502 434.14 93.5594C434.427 92.8686 434.83 92.2353 435.291 91.7172C435.752 91.1415 436.327 90.681 436.96 90.278C437.536 89.9326 438.227 89.7023 438.86 89.5871C439.551 89.472 440.184 89.472 440.875 89.472H447.093V92.5232H441.163C440.76 92.5232 440.415 92.5807 440.012 92.6383C439.609 92.6959 439.321 92.8686 438.975 92.9837C438.63 93.0989 438.342 93.3867 438.112 93.7321C437.824 94.1351 437.594 94.5956 437.536 95.0562C437.479 95.5743 437.363 96.0349 437.363 96.4954H447.035V99.5466H437.363C437.421 100.353 437.594 101.043 437.824 101.562C438.054 102.08 438.4 102.483 438.86 102.77C439.263 103.058 439.781 103.231 440.415 103.346C441.048 103.461 441.681 103.519 442.43 103.519H447.035V106.57H442.314V106.628ZM461.312 106.628C461.197 106.225 461.082 105.822 461.082 105.419C461.024 105.016 461.024 104.613 460.967 104.152C460.852 103.346 460.737 102.713 460.564 102.195C460.391 101.677 460.103 101.274 459.758 100.928C459.412 100.64 459.009 100.41 458.491 100.295C457.973 100.18 457.34 100.122 456.592 100.122H453.828V106.628H450.374V89.4144H458.319C458.894 89.4144 459.528 89.4144 460.161 89.472C460.794 89.5296 461.37 89.6447 461.945 89.8174C462.924 90.1053 463.673 90.681 464.191 91.4294C464.709 92.2353 464.997 93.1564 464.997 94.1927C464.997 95.344 464.766 96.3803 464.248 97.3014C463.788 98.2225 462.982 98.8558 461.888 99.2012C462.233 99.3163 462.521 99.489 462.751 99.6042C462.982 99.7193 463.212 99.892 463.442 100.065C463.615 100.237 463.788 100.468 463.96 100.698C464.133 100.928 464.248 101.274 464.421 101.619C464.594 102.022 464.651 102.425 464.709 102.828C464.766 103.231 464.824 103.634 464.824 104.095C464.881 104.498 464.881 104.958 464.939 105.361C464.997 105.764 465.054 106.167 465.169 106.57H461.312V106.628ZM460.909 94.7108C460.909 93.9048 460.679 93.3291 460.218 93.0413C459.758 92.7534 459.125 92.6383 458.376 92.6383H453.483V96.956H458.376C459.182 96.956 459.815 96.7833 460.276 96.4954C460.679 96.15 460.909 95.5743 460.909 94.7108V94.7108ZM475.186 106.628C474.553 106.628 473.92 106.628 473.344 106.57C472.768 106.512 472.193 106.397 471.559 106.167C470.696 105.879 470.005 105.419 469.487 104.843C468.969 104.267 468.508 103.634 468.163 102.886C467.818 102.137 467.587 101.389 467.472 100.525C467.357 99.7193 467.299 98.8558 467.299 98.0498C467.299 97.4741 467.357 96.8408 467.415 96.2076C467.472 95.5743 467.645 94.9411 467.818 94.3654C467.99 93.7897 468.22 93.214 468.508 92.6383C468.796 92.1202 469.142 91.6021 469.602 91.1415C469.948 90.7385 470.408 90.4507 470.869 90.2204C471.329 89.9901 471.79 89.8174 472.308 89.7023C472.826 89.5871 473.344 89.472 473.862 89.4144C474.38 89.3569 474.899 89.3569 475.417 89.3569H481.174V92.408H475.82C474.899 92.408 474.208 92.5232 473.574 92.7534C472.999 92.9837 472.538 93.3291 472.193 93.7897C471.847 94.2502 471.617 94.7684 471.502 95.4592C471.387 96.0925 471.272 96.8408 471.272 97.6468C471.272 97.9347 471.272 98.2801 471.329 98.683C471.329 99.086 471.387 99.4314 471.444 99.8344C471.502 100.237 471.56 100.583 471.675 100.928C471.79 101.274 471.905 101.562 472.078 101.849C472.308 102.195 472.538 102.483 472.826 102.713C473.114 102.943 473.402 103.116 473.747 103.231C474.093 103.346 474.438 103.404 474.783 103.461C475.129 103.519 475.532 103.519 475.877 103.519H481.116V106.57H475.186V106.628ZM484.34 106.628V89.4144H487.506V106.628H484.34V106.628ZM504.604 106.628L502.992 102.655H496.545L494.933 106.628H490.73L497.696 89.4144H501.841L508.807 106.628H504.604V106.628ZM499.711 93.7321L497.581 100.18H501.841L499.711 93.7321V93.7321ZM517.5 106.628C516.463 106.628 515.542 106.512 514.564 106.225C513.643 105.994 512.837 105.419 512.146 104.613C511.628 103.922 511.282 103.173 511.109 102.252C510.937 101.389 510.879 100.525 510.879 99.6617V89.3569H514.506V99.5466C514.506 99.7193 514.506 99.892 514.564 100.065C514.564 100.583 514.621 101.043 514.679 101.504C514.736 101.965 514.967 102.367 515.37 102.77C515.6 103.001 515.888 103.116 516.176 103.231C516.463 103.346 516.809 103.404 517.154 103.461C517.5 103.519 517.845 103.519 518.19 103.519H522.623V106.57H517.5V106.628ZM547.09 93.9624C547.09 94.3654 547.033 94.7683 546.918 95.2289C546.802 95.6895 546.63 96.0349 546.457 96.4379C546.227 96.7833 545.996 97.1287 545.709 97.4166C545.421 97.7044 545.075 97.9347 544.672 98.1074C545.536 98.5103 546.112 99.0285 546.515 99.7193C546.917 100.41 547.09 101.216 547.09 102.137C547.09 102.77 546.975 103.346 546.802 103.979C546.63 104.613 546.284 105.131 545.824 105.534C545.248 106.052 544.615 106.34 543.924 106.512C543.176 106.628 542.485 106.685 541.736 106.685H532.18V89.472H542.657C543.003 89.472 543.348 89.5296 543.694 89.5871C544.212 89.7023 544.672 89.875 545.133 90.1053C545.536 90.3355 545.939 90.681 546.227 91.084C546.515 91.4869 546.745 91.8899 546.918 92.408C547.09 92.9262 547.09 93.4443 547.09 93.9624V93.9624ZM542.83 94.7108C542.83 94.3078 542.773 93.9624 542.6 93.6746C542.485 93.3867 542.254 93.214 542.024 93.0413C541.794 92.8686 541.506 92.811 541.218 92.7534C540.93 92.6959 540.585 92.6959 540.297 92.6959H535.346V97.0136H540.527C541.161 97.0136 541.679 96.8409 542.139 96.4379C542.657 96.0349 542.83 95.4592 542.83 94.7108ZM542.83 101.159C542.83 100.756 542.773 100.41 542.6 100.122C542.485 99.8344 542.254 99.6617 542.024 99.489C541.794 99.3163 541.506 99.2588 541.218 99.2012C540.93 99.1436 540.585 99.1436 540.297 99.1436H535.346V103.461H540.527C541.161 103.461 541.679 103.289 542.139 102.886C542.657 102.483 542.83 101.907 542.83 101.159ZM562.058 106.628L560.446 102.655H553.998L552.387 106.628H548.184L555.15 89.4144H559.295L566.261 106.628H562.058V106.628ZM557.107 93.7321L554.977 100.18H559.237L557.107 93.7321V93.7321ZM579.847 106.628L572.939 94.02V106.628H569.485V89.4144H574.148L580.941 102.252V89.4144H584.395V106.628H579.847ZM596.024 97.9347L602.414 106.628H597.924L592.109 97.9347L598.269 89.4144H602.76L596.024 97.9347ZM588.598 106.628V89.4144H591.764V106.628H588.598Z" fill="#433F3F"/>
<path d="M58.2131 114V94.1964C58.2131 81.8766 54.7589 72.1474 38.985 64.4332C28.3923 59.2519 20.1023 53.3223 14 46.4716V79.8617C14 93.2753 19.7569 104.156 36.1065 108.589C46.9871 111.582 54.356 113.367 58.2131 114Z" fill="#AA894C"/>
<path d="M58.2131 14V33.8038C58.2131 46.1236 54.7589 55.8528 38.985 63.567C28.3923 68.6907 20.1023 74.6779 14 81.471V48.0809C14 34.7249 19.7569 23.8443 36.1065 19.4115C46.9871 16.4179 54.356 14.6333 58.2131 14V14Z" fill="#B8985C"/>
<path d="M62.7593 14V33.8038C62.7593 46.1236 66.2134 55.8528 81.9874 63.567C92.5225 68.6907 100.812 74.6779 106.915 81.5286V48.1385C106.915 34.7249 101.158 23.8443 84.8083 19.4115C73.9853 16.4179 66.6164 14.6333 62.7593 14V14Z" fill="#2D538A"/>
<path d="M62.7593 114V94.1964C62.7593 81.8766 66.2134 72.1474 81.9874 64.4332C92.5225 59.3095 100.812 53.3223 106.915 46.4716V79.8617C106.915 93.2753 101.158 104.156 84.8083 108.589C73.9853 111.582 66.6164 113.367 62.7593 114V114Z" fill="#1E4277"/>
</svg>
