<svg width="128" height="128" viewBox="0 0 128 128" fill="none" xmlns="http://www.w3.org/2000/svg">
<path d="M61.8785 109.409V91.3245C61.8785 80.0515 58.7185 71.146 44.286 64.0945C34.665 59.3925 27.07 53.926 21.5 47.694V78.227C21.5 90.4845 26.7525 100.423 41.6895 104.487C51.6475 107.196 58.377 108.837 61.8785 109.409V109.409Z" fill="#AA894C"/>
<path d="M61.8785 18V36.085C61.8785 47.358 58.7185 56.2635 44.286 63.315C34.665 68.017 27.07 73.4835 21.5 79.715V49.182C21.5 36.9245 26.7525 26.9855 41.6895 22.922C51.6475 20.213 58.377 18.572 61.8785 18Z" fill="#B8985C"/>
<path d="M66.0669 18V36.085C66.0669 47.358 69.2269 56.2635 83.6594 63.315C93.2809 68.0165 100.876 73.483 106.446 79.715V49.182C106.446 36.9245 101.193 26.9855 86.2559 22.922C76.2984 20.213 69.5684 18.572 66.0669 18Z" fill="#2D538A"/>
<path d="M66.0669 109.409V91.3245C66.0669 80.0515 69.2269 71.146 83.6594 64.0945C93.2809 59.393 100.876 53.9265 106.446 47.6945V78.2275C106.446 90.485 101.193 100.424 86.2559 104.487C76.2984 107.196 69.5684 108.837 66.0669 109.409Z" fill="#1E4277"/>
</svg>
