<svg width="128" height="128" viewBox="0 0 128 128" fill="none" xmlns="http://www.w3.org/2000/svg">
<path d="M106.3 42.25L85.7499 63L64.6499 42.25H106.3Z" fill="#FBC400"/>
<path d="M106.3 82.6501L85.7499 105.4L64.6499 82.6501H106.3Z" fill="#F39800"/>
<path d="M64.6498 82.6501L43.2498 105.4L21.5498 82.6501H64.6498Z" fill="#C30E19"/>
<path d="M106.3 42.2505L85.4499 22.0505L64.6499 42.2505H106.3Z" fill="#F39800"/>
<path d="M106.3 82.6495L85.4499 63.6995L64.6499 82.6495H106.3Z" fill="#FCC902"/>
<path d="M21.5498 82.65L42.9498 62.45L21.5498 42.25V82.65Z" fill="#8D202E"/>
<path d="M85.4502 22.0505L64.6502 42.2505L42.9502 22.0505H85.4502Z" fill="#ED6D00"/>
<path d="M42.9498 22.0505L21.5498 42.2505H64.6498L42.9498 22.0505Z" fill="#DA4206"/>
<path d="M64.6501 82.6501L43.1001 105.4H86.2001L64.6501 82.6501Z" fill="#ED6D00"/>
<path d="M42.9498 62.4495L21.5498 82.6495H64.6498L42.9498 62.4495Z" fill="#DA4206"/>
<path d="M64.6498 42.25L42.9498 62.45L21.5498 42.25" fill="#C30E19"/>
</svg>
