<svg width="60" height="60" viewBox="0 0 60 60" fill="none" xmlns="http://www.w3.org/2000/svg">
<path d="M48.3677 13.6055H33.1372V6.42162C33.1376 6.36602 33.1269 6.31092 33.1059 6.2595C33.0849 6.20809 33.0539 6.1614 33.0148 6.12215C32.9757 6.0829 32.9292 6.05188 32.878 6.03089C32.8268 6.0099 32.7721 5.99937 32.7168 5.9999C26.5339 5.9999 25.1816 7.53378 25.1816 9.53595V13.6055H10.7245C9.86254 13.6055 9.48445 15.6183 9.48445 17.0378C9.4834 17.0934 9.49329 17.1486 9.51355 17.2004C9.53381 17.2521 9.56404 17.2993 9.60249 17.3392C9.64095 17.3792 9.68688 17.4111 9.73764 17.4331C9.78839 17.4551 9.84297 17.4668 9.89823 17.4675H25.1802V22.5573H15.0526C14.1867 22.5573 13.8099 24.6313 13.8126 26.0029C13.8126 26.0575 13.8233 26.1116 13.8441 26.1621C13.8649 26.2125 13.8954 26.2583 13.9339 26.2969C13.9723 26.3355 14.0179 26.366 14.0681 26.3868C14.1183 26.4076 14.1721 26.4182 14.2264 26.418H34.5663C34.205 29.7881 33.2614 33.0688 31.7782 36.1122C34.2754 37.2975 36.7753 38.5693 39.406 39.7414C42.4769 34.7712 44.3555 29.076 44.3912 23.3994C44.392 23.2892 44.3712 23.1798 44.3299 23.0777C44.2885 22.9756 44.2275 22.8827 44.1504 22.8044C44.0732 22.7261 43.9814 22.664 43.8802 22.6216C43.779 22.5792 43.6705 22.5573 43.561 22.5573H33.1372V17.4675H47.5467C48.41 17.4675 48.788 15.5371 48.788 14.0352C48.7891 13.979 48.779 13.9232 48.7583 13.871C48.7377 13.8188 48.7068 13.7713 48.6677 13.7313C48.6285 13.6913 48.5818 13.6595 48.5303 13.6379C48.4788 13.6163 48.4235 13.6053 48.3677 13.6055Z" fill="#1677FF"/>
<path d="M5.38038 42.7919C5.36716 51.1012 22.3915 54.4524 30.3128 49.2999C31.8763 48.2438 33.337 47.0411 34.6753 45.708C34.4109 45.5271 33.0546 44.5373 31.5026 43.5223C30.3657 42.7799 29.09 42.0416 28.2056 41.5161C18.727 52.53 5.38038 49.6112 5.38038 42.7919Z" fill="url(#paint0_linear_479_38270)"/>
<path d="M13.9824 36.6711C18.9041 36.6711 23.6235 38.7757 28.2094 41.5175C30.3947 42.8239 32.5482 44.274 34.6871 45.7108C40.7682 49.8042 46.6536 53.7859 52.5338 53.9908C43.0896 53.6449 39.6458 42.9037 31.7788 36.1123C26.5477 33.6299 21.3206 31.5293 14.8985 31.5293C7.32359 31.5293 2 36.4901 2 42.792C2 49.0153 7.44653 53.9988 14.8985 53.9988C20.3838 54.0162 25.7489 52.3817 30.3035 49.3053C22.3716 54.4378 5.38161 51.0933 5.38029 42.7867C5.38029 39.2346 9.27085 36.6711 13.9824 36.6711Z" fill="url(#paint1_radial_479_38270)"/>
<path d="M53.0029 54.0001C56.8221 54.0001 57.8228 49.2029 57.9986 45.4287C58.0068 45.2539 57.9803 45.0791 57.9207 44.9147C57.8611 44.7502 57.7695 44.5993 57.6514 44.4708C57.5333 44.3423 57.391 44.2387 57.2327 44.1661C57.0744 44.0935 56.9034 44.0533 56.7295 44.0478C46.278 43.7179 39.0243 39.5499 31.7812 36.1136C39.7726 43.0141 43.2005 54.0001 53.0029 54.0001Z" fill="url(#paint2_linear_479_38270)"/>
<defs>
<linearGradient id="paint0_linear_479_38270" x1="15.36" y1="52.3917" x2="23.3258" y2="38.6795" gradientUnits="userSpaceOnUse">
<stop stop-color="#1677FF" stop-opacity="0.8"/>
<stop offset="0.16" stop-color="#0C6BFC" stop-opacity="0.89"/>
<stop offset="0.36" stop-color="#0562FA" stop-opacity="0.95"/>
<stop offset="0.6" stop-color="#015DF8" stop-opacity="0.99"/>
<stop offset="1" stop-color="#005BF8"/>
</linearGradient>
<radialGradient id="paint1_radial_479_38270" cx="0" cy="0" r="1" gradientUnits="userSpaceOnUse" gradientTransform="translate(22.8 52.0001) rotate(-61.5044) scale(15.9299 18.7717)">
<stop stop-color="#1677FF" stop-opacity="0.7"/>
<stop offset="1" stop-color="#1677FF"/>
</radialGradient>
<linearGradient id="paint2_linear_479_38270" x1="31.7786" y1="45.0562" x2="58" y2="45.0562" gradientUnits="userSpaceOnUse">
<stop offset="0.12" stop-color="#1677FF"/>
<stop offset="0.29" stop-color="#1677FF" stop-opacity="0.85"/>
<stop offset="0.51" stop-color="#1677FF" stop-opacity="0.7"/>
<stop offset="0.7" stop-color="#1677FF" stop-opacity="0.59"/>
<stop offset="0.87" stop-color="#1677FF" stop-opacity="0.52"/>
<stop offset="1" stop-color="#1677FF" stop-opacity="0.5"/>
</linearGradient>
</defs>
</svg>
