<svg width="210" height="60" viewBox="0 0 210 60" fill="none" xmlns="http://www.w3.org/2000/svg">
<g clip-path="url(#clip0_479_38191)">
<path d="M134.391 17.2397H120.302V14.7173H115.643V17.2397H100.86V36.0021C100.826 41.7195 100.132 45.5147 98.0591 47.8259V50.8224C102.933 47.6687 104.77 42.9639 104.902 35.2137V20.0791H134.391V17.2397Z" fill="#3E3A39"/>
<path d="M92.4858 27.9091V30.9185L72.0185 45.2158C72.4316 46.6999 74.2978 46.9214 78.0304 46.8184H95.795V50.1499H77.0882C72.6277 50.2564 69.8279 49.3039 68.6887 47.2925C66.5694 48.4468 63.606 50.204 60.2891 50.3096V46.9601C62.8988 46.3108 64.796 45.0483 66.51 43.9404L84.8373 30.9185H62.3025V27.9091H76.6133L75.4594 24.3767H79.3469L80.5007 27.9091H92.4858ZM60.2891 20.6123V17.7395H68.9984V14.5626H73.0511V17.7395H83.0072V14.5626H87.0418V17.7395H95.7847V20.6123H87.0418V24.4256H82.9994V20.6123H73.0511V24.4256H68.9984V20.6123H60.2891Z" fill="#3E3A39"/>
<path d="M118.756 39.5164C116.469 36.4246 114.959 32.7144 114.546 29.8157H117.811V27.1774H114.236V22.0526H110.501V27.1774H105.991V29.8157H110.036C109.091 34.4285 107.466 38.8759 105.214 43.0128V46.5839C107.539 43.8906 109.333 40.7828 110.501 37.4243V50.307H114.236V36.6513C114.85 37.9808 115.785 39.3515 117.607 41.4901C118.056 40.8728 118.441 40.2115 118.756 39.5164Z" fill="#3E3A39"/>
<path d="M140.847 50.4256V26.827C139.704 27.5536 138.356 28.3266 136.802 29.1459V26.5179C140.534 23.7215 142.815 19.7879 143.645 14.7173H147.69C146.962 18.0342 145.977 20.6743 144.734 22.6376V50.4256H140.847ZM147.535 20.6124V17.9792H158.118V14.8745H162.473V17.9792H173.851V20.6124H147.535ZM149.244 27.6232V24.9925H171.822V27.6309L149.244 27.6232ZM149.244 33.8353V31.3489H171.822V33.8353H149.244ZM149.401 50.1345V37.7207H171.657V45.4838C171.759 48.689 170.203 50.241 166.99 50.1396L149.401 50.1345ZM153.289 47.4961H165.756C167.305 47.4961 168.036 46.8751 167.935 45.6332V40.3591H153.289V47.4961Z" fill="#3E3A39"/>
<path d="M175.73 50.4281V47.4599C178.234 45.2725 179.171 42.2089 179.171 37.1538V16.4899H210V45.2364C210 48.5687 208.279 50.2349 204.837 50.2349H202.772V47.2667H203.575C205.243 47.3698 206.026 46.7445 205.924 45.391V38.2076H196.696V50.2426H192.473V38.2076H183.242C183.209 43.9687 180.95 47.6171 175.73 50.4281ZM183.242 19.4632V26.0231H192.473V19.4632H183.242ZM183.242 28.6795V35.5563H192.473V28.6795H183.242ZM205.932 19.4632H196.696V26.0231H205.929L205.932 19.4632ZM196.696 28.6795V35.5563H205.929V28.6795H196.696Z" fill="#3E3A39"/>
<path d="M128.325 29.7772H133.302V27.1388H127.703V22.014H123.97V27.1388H119.773V29.7772H123.351C121.683 38.4627 117.285 43.9069 117.285 43.9069V46.6999C120.601 43.8039 122.83 40.5403 123.973 36.909V50.2607H127.705V36.7648C128.843 40.3874 131.176 43.6991 134.703 46.6999V43.9069C131.488 39.7667 129.302 34.9242 128.325 29.7772Z" fill="#3E3A39"/>
<path d="M37.1399 4.71253C27.4316 -3.30568 17.6071 -0.118494 14.3443 7.01338C13.8281 8.19344 10.7537 16.173 19.0501 25.3429L19.1094 25.4073C19.2437 25.5542 19.3676 25.7011 19.5199 25.8505C23.6758 30.2306 29.6386 33.2632 29.6386 39.5474C29.6386 47.4703 21.3474 53.8292 12.9143 48.7792C12.0568 48.2266 11.286 47.5502 10.6273 46.772C9.4889 45.3395 2.79556 36.9348 16.3061 26.9326C14.6515 25.2965 9.64378 19.6075 10.2349 11.2157C2.51936 18.4507 0 26.3246 0 33.4951C0 49.8794 11.5901 60.4329 25.1136 59.9949C40.826 59.4796 50.8854 47.3105 50.8854 31.5807C50.8854 22.4005 46.2597 12.2438 37.1399 4.71253Z" fill="#1677FF"/>
</g>
<defs>
<clipPath id="clip0_479_38191">
<rect width="210" height="60" fill="white"/>
</clipPath>
</defs>
</svg>
