<svg width="60" height="60" viewBox="0 0 60 60" fill="none" xmlns="http://www.w3.org/2000/svg">
<path d="M40.8132 7.58084C32.2059 0.47196 23.4956 3.2977 20.6028 9.62076C20.1451 10.667 17.4194 17.7416 24.7749 25.8716L24.8275 25.9287C24.9466 26.0589 25.0564 26.1891 25.1914 26.3216C28.876 30.205 34.1626 32.8937 34.1626 38.4652C34.1626 45.4896 26.8117 51.1273 19.335 46.65C18.5747 46.1601 17.8914 45.5604 17.3073 44.8705C16.298 43.6004 10.3638 36.1489 22.3422 27.281C20.8752 25.8305 16.4354 20.7866 16.9594 13.3465C10.1189 19.761 7.88525 26.7419 7.88525 33.0993C7.88525 47.6254 18.1609 56.9821 30.1508 56.5938C44.0813 56.1369 52.9999 45.3479 52.9999 31.402C52.9999 23.2629 48.8987 14.258 40.8132 7.58084Z" fill="#1677FF"/>
</svg>
