<svg width="456" height="128" viewBox="0 0 456 128" fill="none" xmlns="http://www.w3.org/2000/svg">
<path d="M365.813 52.1914C366.621 52.9734 366.833 53.9753 366.673 55.398C365.919 55.727 364.659 55.9339 363.561 55.8014C363.575 54.5575 364.649 52.6102 365.813 52.1914ZM361.732 50.2758C361.797 51.5769 359.216 57.7825 357.275 57.7616C356.779 55.5686 357.291 52.9391 357.887 50.9354C358.938 50.5412 360.308 50.1521 361.732 50.2758V50.2758ZM368.834 42.7749C368.884 45.7546 367.186 44.8334 364.482 45.1281C362.647 45.3283 360.039 46.227 358.618 45.7091C356.895 41.3091 367.259 42.1961 368.833 42.7749H368.834ZM362.461 34.7708C373.575 33.8221 370.077 37.3961 368.846 37.59C368.186 37.6945 366.062 37.514 365.131 37.5541C363.142 37.6394 360.106 38.561 358.322 37.9553C357.887 35.2979 360.085 34.9731 362.461 34.7704V34.7708ZM342.118 40.3273C341.114 40.3817 341.652 40.3248 340.693 39.99L341.429 38.6358C342.821 37.0308 344.396 37.4467 347.112 37.4467C352.254 37.4463 350.243 36.4084 352.453 35.9144C353.519 37.794 353.965 54.9245 351.055 58.1604C349.571 59.8097 347.58 60.1545 346.717 62.2406C347.073 65.036 352.551 68.4232 355.746 66.2167C358.33 64.4328 356.909 63.1731 364.887 60.9645C370.791 59.3307 368.375 62.6631 373.2 65.5538C374.829 66.5294 377.575 66.7488 379.013 65.4226C380.05 64.4667 381.399 62.628 381.183 60.5624C377.305 59.4277 375.907 59.0502 373.484 56.5667C372.383 55.439 369.022 51.8403 369.124 49.5569C374.54 49.2288 373.749 50.7122 374.227 42.1986C374.586 35.7982 378.321 32.2701 374.142 30.4879C372.176 29.6507 352.905 30.3918 351.917 30.9326C350.16 31.8923 350.758 32.4524 345.413 32.1698C342.162 31.9985 343.621 29.8806 340.762 29.1755C339.559 29.7899 337.714 31.8798 336.762 32.8056C333.483 35.9921 329.665 37.3414 329.675 40.4845C329.686 43.8395 330.921 43.4583 333.668 43.9076C335.692 47.4901 335.712 45.0249 338.566 46.0213C339.057 49.2643 335.281 47.7153 332.439 49.1126C332.252 51.3379 333 54.9132 336.448 53.8921C339.067 53.1155 338.475 53.8164 338.656 54.03C339.483 55.1192 338.592 57.4615 338.065 58.5307C337.26 60.1654 336.38 60.5792 335.133 61.5371C335.004 63.4652 335.38 63.6466 336.274 64.7342C338.9 67.9237 338.015 67.1133 345.177 61.3093C348.884 58.3058 350.26 57.3207 349.687 53.8912C347.527 53.5987 347.017 55.2455 344.875 55.1142C344.468 53.6208 344.469 53.4223 344.827 51.923C346.658 51.1928 347.604 51.5168 349.098 50.178C349.99 49.3776 351.238 47.8403 350.449 46.4272C348.186 45.5256 346.856 47.0976 344.738 46.5596C344.326 42.5522 348.076 45.7801 350.582 42.2813C353.66 37.9854 345.301 39.8446 343.534 39.7777C343.062 40.0903 343.123 40.2709 342.119 40.3273H342.118ZM254.165 37.486L246.215 37.5085C241.659 37.5018 228.077 37.6791 223.581 38.8598C221.263 48.0271 229.682 42.5789 231.738 43.6172C230.843 45.4061 219.624 48.9989 217.098 49.7914C217.185 52.1968 219.13 52.4321 221.505 52.226C223.402 52.0614 224.671 51.1828 226.183 50.5333C227.761 49.8558 229.136 49.317 230.579 48.5826C231.789 47.967 233.48 46.5296 234.905 47.1833C234.584 48.4204 234.311 48.1851 232.91 48.9074C232.181 49.284 231.6 49.597 230.688 50.0426C228.979 50.8773 227.621 51.5188 225.891 52.2536C220.915 54.3644 216.883 53.956 216.891 56.9098C221.743 61.6583 233.237 51.5627 236.785 51.2756C236.775 53.0854 234.459 53.7332 233.179 54.5408L223.981 59.3754C222.36 60.1206 220.308 60.2481 219.024 61.3996C218.12 63.2588 223.614 66.6769 229.018 62.4078L235.372 57.3813C237.749 55.5794 237.351 56.6093 237.428 56.6837C238.743 58.3171 235.489 60.8968 234.5 61.5505C231.333 63.6445 229.893 62.7054 229.219 64.9164C230.36 66.8612 237.7 68.3663 240.402 65.7883C245.898 60.5428 242.459 58.3681 244.211 55.3094C246.409 55.9134 250.179 62.0048 252.74 63.7273C257.1 66.6593 263.475 62.0475 263.604 59.2287C261.947 58.3008 256.305 57.3988 253.678 56.0981C252.433 55.482 250.724 54.2745 249.605 53.4854C247.645 52.1032 246.526 51.6835 246.554 50.1947C248.472 48.7536 251.774 49.4808 253.336 47.6196C254.08 45.7212 253.03 44.265 251.893 43.1754C249.614 43.2581 245.717 45.9824 243.652 46.6612C241.325 47.4274 237.359 42.7992 237.251 42.2617C246.743 41.106 255.501 44.0627 254.165 37.486V37.486ZM288.239 42.6011C289.281 38.5886 307.873 36.8415 308.951 40.9647C308.962 41.0065 308.539 53.1636 308.463 53.4942C306.884 54.099 300.19 54.0421 297.754 54.1721C294.676 54.336 290.048 55.541 287.834 55.4774C287.718 54.7661 288.085 43.1946 288.239 42.6011V42.6011ZM280.521 43.73C282.446 49.6351 279.707 60.3192 279.74 61.2358C279.852 64.3237 284.256 62.5006 286.48 61.958C294.458 60.0145 304.82 59.8657 312.988 61.8042C320.269 63.5325 315.983 55.164 315.884 53.8841C315.62 50.4129 315.347 43.2916 317.264 40.9125C318.895 38.8924 320.638 37.7008 318.13 34.8519C316.087 32.5309 313.754 34.0043 310.485 33.9324C302.513 33.756 302.028 32.4302 292.102 34.105C288.332 34.7416 287.263 34.9389 283.103 34.6676C280.785 34.5163 276.097 35.2005 276.801 37.8149C277.134 39.05 279.794 41.4976 280.521 43.73V43.73ZM187.796 56.152C187.263 55.2592 187.445 52.8944 187.581 51.5744C187.767 49.7625 188.543 49.447 190.435 49.6208C191.161 50.509 192.433 53.8549 192.358 55.1359C191.641 55.5263 189.442 56.5341 188.452 56.4212L187.796 56.152V56.152ZM201.755 38.1167C203.545 36.7424 203.165 34.3048 203.152 34.1945L202.975 33.6026C200.16 33.0638 195.086 34.4565 191.413 34.2714C187.987 34.0992 186.37 29.6511 183.418 30.0194C181.223 30.2936 182.637 32.4921 182.753 34.4599C183.613 49.0992 182.72 43.4311 176.831 45.9038C176.308 48.0819 177.498 50.5308 178.376 51.9498L182.039 51.5807C182.176 53.6425 181.87 55.253 180.958 56.7568C179.804 58.6586 179.443 58.2247 177.111 58.9273C174.804 59.6237 174.004 66.1164 178.125 66.5787C180.787 66.878 184.868 64.5106 186.943 63.4213C191.381 61.0916 192.707 58.9462 194.142 58.5972C196.207 61.3708 196.188 64.9436 199.805 66.2539C202.657 67.2875 207.085 65.1659 208.484 63.9242C209.413 63.0999 208.781 64.0178 209.224 62.9089C208.414 61.8009 209.539 62.7363 207.984 62.0663C207.509 61.8615 207.132 61.7745 206.754 61.6341C202.232 59.9497 198.314 55.2588 195.956 51.3354C192.252 45.1758 204.644 53.6622 205.153 44.1388C200.842 43.5469 190.111 44.8961 189.067 43.5093C188.214 41.8374 189.434 40.1614 190.962 39.7167C194.753 38.6132 199.703 39.6916 201.755 38.1163V38.1167ZM162.459 54.6369C163.512 54.2591 164.639 53.9255 165.827 53.6317L168.374 53.2104C169.189 53.2522 168.901 53.2685 169.208 53.4014C171.649 61.4155 160.218 59.8126 158.151 60.3326C157.785 62.3313 158.642 63.3616 159.748 64.2029C163.579 67.1149 166.291 68.7061 171.512 65.0289C174.448 62.9612 174.274 61.7281 175.017 57.5062C175.418 55.2367 175.906 49.1093 175.39 46.8978C172.264 46.693 169.575 48.5287 166.169 48.0397C164.534 42.851 172.354 43.7701 175.815 43.4867C176.789 41.1942 176.91 38.3792 177.884 35.947C178.864 33.5002 181.336 31.6035 177.394 29.8062C174.668 28.5632 171.517 29.8079 168.708 30.0056C166.231 30.1799 161.029 29.914 159.266 30.3487C158.638 31.9842 159.013 32.8423 159.811 34.3805C161.998 38.5978 166 33.5479 171.954 35.2143C172.188 38.8473 170.857 38.831 167.649 39.3723C165.729 39.697 161.315 39.7234 159.997 40.4352C158.274 42.3444 161.145 43.478 160.679 47.1636C160.323 49.9728 158.643 50.8844 158.014 52.8647C156.878 56.4388 160.934 55.1832 162.459 54.6369V54.6369ZM437.678 48.764C439.192 48.2729 441.428 45.3964 441.571 43.0061C424.063 41.9704 431.745 41.9637 416.39 42.8498C413.36 43.0245 410.101 43.0964 409.963 46.173C409.527 55.9719 425.445 42.3373 423.941 51.424C423.067 56.71 423.597 54.3468 423.701 59.5505C423.777 63.3708 423.282 67.4865 426.752 68.6142C432.511 65.6378 427.246 53.082 428.886 48.3414C431.791 47.9903 434.615 49.7584 437.678 48.7636V48.764ZM233.292 31.5704C231.508 32.0356 226.328 32.4382 224.124 32.7558C214.985 34.0724 214.671 29.9863 216.299 38.3252C216.428 38.9881 216.857 42.7758 216.869 42.8084C217.492 44.5179 219.319 43.2811 219.996 42.3361C221.978 39.5725 219.43 38.9313 223.534 37.9089C233.169 35.5094 243.336 35.2912 253.265 36.0891C260.304 36.655 253.028 42.9267 256.973 43.5039C258.338 43.7045 259.194 41.9883 260.191 40.4443C261.929 37.7518 263.241 37.3994 263.38 36.4766C262.956 33.4793 261.031 32.7909 257.981 32.3679C255.304 31.9959 252.178 31.7828 249.4 31.5771C244.353 31.2039 243.092 32.1865 241.146 30.5159C238.437 28.192 237.065 29.1429 233.432 29.486L233.291 31.5704H233.292ZM401.422 49.5231C405.305 49.1327 402.068 54.4588 401.395 55.5782C399.118 59.3666 393.221 57.9522 392.964 62.2406C392.849 64.1612 393.205 65.102 394.523 65.739C398.041 67.4389 399.704 65.5655 401.856 64.0658C409.048 59.0552 407.03 58.2473 407.482 49.5515C407.675 45.8441 409.891 44.5358 409.9 42.4991C408.079 41.2335 403.462 42.0535 401.359 42.4907C398.514 43.0821 395.378 43.3262 393.444 44.5475C393.092 46.4067 392.646 49.7722 393.716 51.1489C395.976 53.0616 399.209 49.7454 401.422 49.5231V49.5231ZM433.784 30.773C423.89 29.8501 426.085 30.2681 418.106 31.4969C415.646 31.8756 412.506 31.7376 412.162 33.8827C411.803 36.1163 414.096 38.4281 416.074 38.5196C417.401 38.581 421.374 37.5959 423.392 37.4149C425.746 37.2026 428.718 36.9363 431.097 36.5769C432.931 36.3002 435.994 35.771 437.553 34.5468C440.116 32.5326 435.229 30.9071 433.784 30.773V30.773ZM393.25 31.1232C392.837 32.118 392.284 36.8849 392.766 38.0594C393.747 40.4456 408.644 36.7691 409.808 33.7999C408.801 31.8145 404.961 31.4563 402.41 31.0288L393.25 31.1232Z" fill="#1B1918"/>
<path d="M162.703 95.6947H155.23V79.3781H162.301C165.783 79.4842 167.631 80.7841 167.846 83.2777C167.792 85.3475 166.667 86.621 164.471 87.0988V87.1782C166.988 87.6028 168.354 88.9027 168.569 91.0783C168.569 94.1562 166.613 95.6947 162.703 95.6947V95.6947ZM162.239 88.443H158.089V93.882H162.39C164.604 93.882 165.711 92.9236 165.711 91.0068C165.61 89.3495 164.453 88.4948 162.239 88.443ZM161.746 81.1912H158.089V85.7232H161.746C163.706 85.6756 164.71 84.884 164.758 83.3492C164.71 81.9105 163.706 81.1908 161.746 81.1908V81.1912ZM180.063 79.3781L186.671 95.6947H183.931L181.87 91.0348H175.085L173.214 95.6951H170.474L177.081 79.3776H180.063V79.3781ZM178.514 81.1908H178.438L177.981 82.5229L175.618 88.443H181.334L178.972 82.5229C178.972 82.4735 178.946 82.3749 178.895 82.2269L178.728 81.829C178.585 81.4779 178.514 81.2648 178.514 81.1908ZM188.576 79.3781H191.65L200.291 92.7497H200.374V79.3781H202.867V95.6947H199.875L191.069 82.2432V95.6947H188.576V79.3781V79.3781ZM221.921 95.6947H218.506L212.675 87.8946L209.26 91.1581V95.6947H206.677V79.3781H209.26V88.0538L218.006 79.3781H221.421L214.258 86.3026L221.921 95.6947ZM236.729 79.3781C241.725 79.6874 244.41 82.4455 244.786 87.6522C244.518 92.7564 241.805 95.4368 236.648 95.6947C231.491 95.4368 228.805 92.7564 228.59 87.6522C228.859 82.3941 231.572 79.6355 236.728 79.3781H236.729ZM236.649 93.8816C240.011 93.7223 241.771 91.6204 241.928 87.5761C241.771 83.5853 240.037 81.457 236.728 81.1908C233.418 81.457 231.658 83.5858 231.448 87.5761C231.606 91.5138 233.339 93.6157 236.649 93.882L236.649 93.8816ZM260.03 81.447H251.156V86.5416H258.911V88.5312H251.156V95.6951H248.597V79.3776H260.03V81.4474V81.447ZM281.942 95.6947H268.604V94.0233L278.225 81.4474H268.56V79.3781H281.612V81.2882L271.826 93.7846H281.942V95.6947V95.6947ZM299.092 95.6947H296.433V88.4513H287.376V95.6947H284.8V79.3781H287.376V86.3026H296.433V79.3781H299.091V95.6947H299.092ZM310.586 79.3781L317.193 95.6947H314.453L312.606 90.9959H305.274L303.737 95.6947H300.997L307.604 79.3781H310.586V79.3781ZM308.985 81.1908H308.908L308.451 82.5229L306.088 88.443H311.805L309.442 82.5229C309.442 82.4735 309.417 82.3749 309.366 82.2269L309.199 81.829C309.056 81.4779 308.985 81.2648 308.985 81.1908ZM320.051 79.3781H323.125L331.766 92.7497H331.85V79.3781H334.342V95.6947H331.351L322.544 82.2432V95.6947H320.051V79.3781V79.3781ZM352.444 88.4242V93.3361C351.332 95.4586 348.95 96.547 345.298 96.6013C340.164 96.3292 337.465 93.4724 337.2 88.0304C337.465 82.5341 340.058 79.6502 344.981 79.3781C348.738 79.4324 351.2 80.9287 352.364 83.867L349.983 84.7657C349.189 82.6428 347.521 81.582 344.981 81.582C341.805 81.908 340.085 84.0581 339.82 88.0304C340.032 92.1119 341.858 94.2887 345.298 94.5608C347.574 94.5064 349.189 93.826 350.141 92.5198V88.4242H352.444ZM361.451 79.3781H363.875V90.5558C363.926 94.5537 362.304 96.5687 359.01 96.6009L358.792 96.6C355.56 96.6552 353.762 94.8889 353.396 91.301L355.742 90.6385C355.843 93.2053 356.776 94.5027 358.541 94.5311L358.714 94.5303C360.591 94.5854 361.503 93.2329 361.451 90.473V79.3781V79.3781ZM367.687 95.6947V79.3781H370.546V95.6947H367.687ZM382.992 79.3781L389.6 95.6947H386.86L385.152 90.9959H377.819L376.143 95.6947H373.404L380.011 79.3781H382.992V79.3781ZM381.462 81.1908H381.386L380.929 82.5229L380.384 83.8679C379.99 84.853 379.384 86.3782 378.566 88.443H384.282L381.92 82.5229C381.92 82.4735 381.895 82.3749 381.844 82.2269L381.676 81.829C381.534 81.4779 381.462 81.2648 381.462 81.1908ZM407.701 95.6947H404.286L398.455 87.8946L395.04 91.1581V95.6947H392.458V79.3781H395.04V88.0538L403.787 79.3781H407.201L400.038 86.3026L407.701 95.6947V95.6947ZM415.84 79.3781C420.836 79.6874 423.522 82.4455 423.898 87.6522C423.629 92.7564 420.916 95.4368 415.759 95.6947C410.602 95.4368 407.917 92.7564 407.701 87.6522C407.97 82.3941 410.683 79.6355 415.84 79.3781ZM415.761 93.8816C419.122 93.7223 420.882 91.6204 421.04 87.5761C420.882 83.5853 419.149 81.457 415.839 81.1908C412.53 81.457 410.77 83.5858 410.56 87.5761C410.717 91.5138 412.451 93.6157 415.76 93.882L415.761 93.8816ZM427.709 89.2317V79.3781H430.337V89.2317C430.337 92.7363 431.773 94.5031 434.646 94.5319L434.854 94.5311C437.866 94.5311 439.371 92.7372 439.371 89.1489V79.3781H441.999V89.1489C441.999 94.1173 439.59 96.6013 434.772 96.6013C430.063 96.6013 427.708 94.1449 427.708 89.2317H427.709Z" fill="#1B1918"/>
<path d="M78.4571 46.4082C78.9261 52.0729 36.8094 82.3335 37.1421 89.9857C39.4004 101.639 94.054 102.266 118.985 87.1602C108.365 110.693 82.0876 123.19 56.9881 117.715C31.8891 112.24 13.9854 89.8853 14 64.039C14 61.346 14.196 58.6564 14.5839 55.9922C36.7221 42.6318 78.1846 43.082 78.4571 46.4082ZM69.3078 8.76257C99.6389 8.7655 124.226 33.3011 124.229 63.5679V63.9023C106.224 79.3534 64.535 77.9281 63.9858 74.8644C63.6505 69.8822 100.512 46.9712 99.9353 39.3249C99.0893 28.0506 45.5245 30.8894 18.7364 42.1533C27.3516 21.9048 47.2637 8.75756 69.3082 8.76257H69.3078Z" fill="#EB0018"/>
</svg>
