<svg width="128" height="128" viewBox="0 0 128 128" fill="none" xmlns="http://www.w3.org/2000/svg">
<path d="M91.9451 22C90.8697 22 89.871 22.7682 89.6406 23.9204C85.262 39.8985 83.7256 56.4143 84.4938 73.0069L43.2428 73.0069C42.9355 78.7682 42.2441 84.4527 41.3223 89.9836L55.6104 89.9836C55.764 95.0536 55.3031 102.198 54.3813 105.578C54.3045 106.038 54.6118 106.499 55.0727 106.499L72.9712 106.499C73.5089 106.499 73.8162 106.038 73.6625 105.578C72.7407 102.198 72.2798 95.0536 72.4335 89.9836L104.466 89.9836C100.779 67.8601 101.931 44.8917 107.923 23.3059C108 23.2291 108 23.0754 108 22.9986C108 22.4609 107.539 22 107.001 22L91.9451 22Z" fill="url(#paint0_linear_63_12678)"/>
<path d="M55.0378 22.0503C54.4988 22.0503 54.1908 22.5894 54.3448 23.0514C55.2689 26.4397 55.7309 33.8323 55.4999 38.9147H23.4653C27.2386 61.0155 26.0835 83.9634 20 105.602C20 105.679 20 105.756 20 105.91C20 106.449 20.462 106.834 21.0011 106.834H36.0173C37.0954 106.834 38.0965 106.064 38.3275 104.986C42.7168 88.9688 44.257 72.4124 43.4869 55.8561H84.3772C84.6853 50.0806 85.3783 44.4592 86.3024 38.9147H72.3643C72.2102 33.8323 72.6723 26.4397 73.5964 23.0514C73.6734 22.5894 73.3653 22.0503 72.9033 22.0503H55.0378Z" fill="url(#paint1_linear_63_12678)"/>
<path fill-rule="evenodd" clip-rule="evenodd" d="M38.3277 23.8988C38.0888 22.8048 37.1205 22 36.0076 22H21.006C20.4495 22.0094 20 22.4527 20 23.0028C20 23.1034 20.0283 23.2009 20.0503 23.2983C21.4838 28.4005 22.6281 33.5813 23.5052 38.8124H41.594C40.7577 33.8045 39.6763 28.8281 38.3277 23.8988Z" fill="#00A1E9"/>
<path fill-rule="evenodd" clip-rule="evenodd" d="M89.4184 104.661C89.6511 105.755 90.6413 106.547 91.7322 106.547H106.753C107.3 106.547 107.721 106.091 107.721 105.551C107.721 105.44 107.721 105.349 107.696 105.258V105.252C106.272 100.15 105.112 94.9689 104.253 89.741H86.1584C86.9884 94.7457 88.0635 99.7253 89.4184 104.661Z" fill="#004098"/>
<defs>
<linearGradient id="paint0_linear_63_12678" x1="102.469" y1="64.2507" x2="25.6515" y2="64.2507" gradientUnits="userSpaceOnUse">
<stop stop-color="#0097E0"/>
<stop offset="0.4" stop-color="#0075C2"/>
<stop offset="0.88" stop-color="#003786"/>
<stop offset="1" stop-color="#003786"/>
</linearGradient>
<linearGradient id="paint1_linear_63_12678" x1="25.6215" y1="64.4786" x2="102.628" y2="64.4786" gradientUnits="userSpaceOnUse">
<stop stop-color="#0081CC"/>
<stop offset="0.6" stop-color="#093190"/>
<stop offset="1" stop-color="#0E3776"/>
</linearGradient>
</defs>
</svg>
