<svg width="465" height="128" viewBox="0 0 465 128" fill="none" xmlns="http://www.w3.org/2000/svg">
<path fill-rule="evenodd" clip-rule="evenodd" d="M174.438 54.7935V34.316H159.523V51.2287C159.712 55.4161 162.273 54.7935 166.29 54.7935H174.438ZM201.66 34.316H186.741V54.7935H195.375C199.618 54.8009 201.623 55.1196 201.66 50.8878V34.316ZM243.282 79.4436H255.018V60.8227H243.282V79.4436ZM279.531 79.4436H291.289V60.8227H279.531V79.4436ZM281.28 46.9672H252.735V48.0455C252.721 51.1435 255.885 51.1138 258.683 51.1286H275.766C278.653 51.0879 281.265 50.8841 281.28 47.5712V46.9672ZM252.773 41.1826H281.28V36.9804H252.773V41.1826ZM261.151 31.1996V24.8258H243.494C239.551 24.8406 238.15 24.9147 238.072 28.7205V79.5103H225.762V24.8036L225.784 24.1588C226.288 17.3255 232.095 17.1328 238.109 17.1143H292.179V24.8258H272.876V31.1996H281.28V29.0688H291.789V50.3208C291.789 56.7168 286.457 57.243 281.165 57.243H273.176V79.4436H260.869V57.243H252.261C246.706 57.243 242.393 56.3351 242.256 50.3208V29.0688H252.773V31.1996H261.151ZM344.855 19.9529V16.9846H333.156V79.9068H344.855V49.5056H363.342C368.864 49.3721 372.692 48.2345 372.836 42.3351V17.1995H362.312V19.9529H344.855ZM362.312 37.6845H344.855V43.1318L357.154 43.1244C359.633 43.0947 362.197 43.0392 362.271 40.0709L362.312 37.6845ZM344.855 31.5294H362.312V26.0931H344.855V31.5294ZM360.389 79.9068C354.56 79.9068 349.776 78.8396 349.776 72.5252V54.4119H371.969V61.4156H359.607L359.622 69.3976C359.622 73.1699 361.941 73.3441 365.514 73.3441H371.969V79.9068H360.389ZM384.227 17.4478H404.405V25.4706H384.227V17.4478ZM388.989 80.144V45.0032H384.227V36.9915H401.296V80.144H388.989ZM409.133 17.4478H450.763V25.4706H409.133V17.4478ZM433.568 79.829H413.721V71.9397H427.313C431.563 71.9397 433.609 72.2658 433.609 68.0376V45.0032H406.272V36.9915H450.763V45.0032H445.901V72.1398C445.901 79.4696 440.09 79.7994 433.568 79.829ZM315.654 29.1021C311.085 29.1021 305.048 30.2027 305.048 23.8105V16.9846H317.585V19.208C317.585 21.7279 318.381 21.8279 320.897 21.8279H329.528V29.1021H315.654ZM159.523 26.2895H174.438V17.5034H186.741V26.2895H201.66V23.3324H213.963V55.9386C213.815 63.2573 208.145 63.5945 201.623 63.6241H186.741V79.4436H174.438V63.6241H158.856C152.96 63.5352 147.361 63.0683 147.209 55.9386V23.3324H159.523V26.2895ZM328.902 73.3441V79.9068H319.019C313.364 79.9068 309.006 78.5395 309.006 72.5252V56.7242H305.048V49.487H309.006V42.7872H305.048V35.5352H329.672V42.7872H320.768V49.487H329.672V56.7242H320.768V69.3976C320.768 72.2065 321.928 73.0402 324.792 73.2811L328.902 73.3441Z" fill="#004098"/>
<path d="M450.281 110.21H444.578L438.171 102.08C438.012 101.869 437.834 101.55 437.611 101.109H437.548V110.21H433.031V91.6117H437.548V100.402H437.611C437.819 100.009 438.012 99.6827 438.208 99.4085L444.267 91.6117H449.658L442.084 100.476L450.281 110.21Z" fill="#004098"/>
<path d="M368.873 102.143V107.253H371.545C373.223 107.253 375.187 106.623 375.187 104.622C375.187 102.636 373.112 102.143 371.522 102.143H368.873ZM368.873 94.5652V99.1602H371.015C372.586 99.1602 374.339 98.545 374.339 96.6996C374.339 95.2729 373.149 94.5652 370.803 94.5652H368.873ZM364.374 110.21V91.6117H371.889C373.32 91.6117 375.187 91.797 376.662 92.4789C380.612 94.3058 379.186 100.068 374.924 100.194C377.388 100.465 379.916 101.939 379.916 104.678C379.916 106.371 379.245 107.717 377.874 108.713C376.503 109.699 374.643 110.21 372.275 110.21H364.374Z" fill="#004098"/>
<path d="M303.694 102.214C303.694 107.75 300.77 110.529 294.901 110.529C289.227 110.529 286.389 107.835 286.389 102.425V91.6117H290.91V102.447C290.91 105.541 292.318 107.09 295.09 107.09C297.81 107.09 299.192 105.604 299.192 102.614V91.6117H303.694V102.214Z" fill="#004098"/>
<path d="M282.703 91.6117L275.674 103.57V110.21H271.075V103.633L264.001 91.6117H268.929L273.424 99.2565L277.834 91.6117H282.703Z" fill="#004098"/>
<path d="M260.895 108.849C258.812 109.898 256.277 110.42 253.268 110.42C247.454 110.42 242.359 107.104 242.359 100.767C242.359 94.208 248.08 90.8655 254.039 90.8655C256.3 90.8655 258.616 91.1397 260.294 91.703V95.4605C258.664 94.6193 256.314 94.2006 253.95 94.2006C250.159 94.2006 247.091 96.6167 247.091 100.574C247.091 104.443 249.689 107.082 253.498 107.082C254.654 107.082 255.618 106.922 256.381 106.607V102.794H252.086V99.6072H260.895V108.849Z" fill="#004098"/>
<path d="M187.252 110.21H182.757V102.536H173.734V110.21H169.224V91.6117H173.734V99.1157H182.757V91.6117H187.252V110.21Z" fill="#004098"/>
<path d="M164.495 93.7536L153.682 106.964H164.495V110.207H147.582V107.998L158.603 94.8505H148.398V91.6117H164.495V93.7536Z" fill="#004098"/>
<path fill-rule="evenodd" clip-rule="evenodd" d="M202.875 94.4415C199.57 94.4415 196.898 97.2763 196.898 100.76C196.898 104.247 199.57 107.093 202.875 107.093C206.166 107.093 208.838 104.247 208.838 100.76C208.838 97.2763 206.166 94.4415 202.875 94.4415ZM202.875 90.8655C208.66 90.8655 213.359 95.2901 213.359 100.76C213.359 106.233 208.66 110.669 202.875 110.669C197.072 110.669 192.359 106.233 192.359 100.76C192.359 95.2901 197.072 90.8655 202.875 90.8655Z" fill="#004098"/>
<path fill-rule="evenodd" clip-rule="evenodd" d="M218.478 110.233H222.74V96.518L232.738 110.233H237.433V91.6117H233.156V104.985L223.414 91.6117H218.478V110.233Z" fill="#004098"/>
<path fill-rule="evenodd" clip-rule="evenodd" d="M331.911 110.233H336.177V96.518L346.163 110.233H350.858V91.6117H346.589V104.978L336.862 91.6117H331.911V110.233Z" fill="#004098"/>
<path fill-rule="evenodd" clip-rule="evenodd" d="M407.658 110.233H411.905V96.518L421.888 110.233H426.598V91.6117H422.325V104.978L412.59 91.6117H407.658V110.233Z" fill="#004098"/>
<path fill-rule="evenodd" clip-rule="evenodd" d="M395.817 102.895L393.204 96.6144L390.592 102.895H395.817ZM403.747 110.262H398.892L397.088 105.967H389.302L387.523 110.262H382.658L390.425 91.6117H395.976L403.747 110.262Z" fill="#004098"/>
<path fill-rule="evenodd" clip-rule="evenodd" d="M320.066 102.888L317.454 96.607L314.841 102.888H320.066ZM327.985 110.262H323.12L321.349 105.967H313.559L311.788 110.262H306.911L314.689 91.6117H320.229L327.985 110.262Z" fill="#004098"/>
<path d="M98.806 14C97.5383 14 96.3611 14.9055 96.0895 16.2638C90.9281 35.0982 89.1171 54.5665 90.0226 74.1253L41.3972 74.1253C41.035 80.9166 40.2201 87.6173 39.1335 94.1369L55.9758 94.1369C56.1569 100.113 55.6136 108.534 54.527 112.519C54.4364 113.062 54.7986 113.605 55.3419 113.605L76.4401 113.605C77.074 113.605 77.4362 113.062 77.2551 112.519C76.1685 108.534 75.6252 100.113 75.8063 94.1369L113.566 94.1369C109.219 68.0584 110.577 40.9839 117.64 15.5394C117.731 15.4488 117.731 15.2677 117.731 15.1772C117.731 14.5433 117.188 14 116.554 14L98.806 14Z" fill="url(#paint0_linear_63_12670)"/>
<path d="M55.3015 14.0595C54.6661 14.0595 54.303 14.6949 54.4845 15.2395C55.5738 19.2335 56.1184 27.9477 55.8461 33.9387H18.0848C22.5326 59.9904 21.171 87.0406 14 112.548C14 112.638 14 112.729 14 112.911C14 113.546 14.5446 114 15.18 114H32.8807C34.1515 114 35.3315 113.092 35.6039 111.821C40.7779 92.9408 42.5933 73.4247 41.6856 53.9086H89.8858C90.2489 47.1007 91.0659 40.4743 92.1551 33.9387H75.7253C75.5438 27.9477 76.0884 19.2335 77.1777 15.2395C77.2684 14.6949 76.9053 14.0595 76.3607 14.0595H55.3015Z" fill="url(#paint1_linear_63_12670)"/>
<path fill-rule="evenodd" clip-rule="evenodd" d="M35.6041 16.2382C35.3224 14.9487 34.1811 14 32.8693 14H15.1858C14.5299 14.0111 14 14.5336 14 15.1821C14 15.3007 14.0334 15.4156 14.0593 15.5304C15.7491 21.5447 17.0979 27.6517 18.1318 33.8179H39.4543C38.4686 27.9148 37.1938 22.0487 35.6041 16.2382Z" fill="#00A1E9"/>
<path fill-rule="evenodd" clip-rule="evenodd" d="M95.8286 111.438C96.1028 112.727 97.2701 113.661 98.556 113.661H116.262C116.906 113.661 117.403 113.124 117.403 112.487C117.403 112.357 117.403 112.249 117.373 112.142V112.135C115.695 106.12 114.327 100.013 113.316 93.8508H91.9858C92.9641 99.7502 94.2315 105.62 95.8286 111.438Z" fill="#004098"/>
<defs>
<linearGradient id="paint0_linear_63_12670" x1="111.211" y1="63.8038" x2="20.6612" y2="63.8038" gradientUnits="userSpaceOnUse">
<stop stop-color="#0097E0"/>
<stop offset="0.4" stop-color="#0075C2"/>
<stop offset="0.88" stop-color="#003786"/>
<stop offset="1" stop-color="#003786"/>
</linearGradient>
<linearGradient id="paint1_linear_63_12670" x1="20.6264" y1="64.0726" x2="111.399" y2="64.0726" gradientUnits="userSpaceOnUse">
<stop stop-color="#0081CC"/>
<stop offset="0.6" stop-color="#093190"/>
<stop offset="1" stop-color="#0E3776"/>
</linearGradient>
</defs>
</svg>
