<svg width="128" height="128" viewBox="0 0 128 128" fill="none" xmlns="http://www.w3.org/2000/svg">
<path fill-rule="evenodd" clip-rule="evenodd" d="M73.3456 39.2068C66.6468 38.7738 59.9241 38.0075 53.1713 37.7214C45.984 37.4164 39.2126 37.6097 31.6902 37.503C31.6902 37.503 42.0189 24.5383 56.4285 22.2046C56.4285 22.2046 68.6185 29.2434 73.3456 39.2068Z" fill="url(#paint0_linear_63_12695)"/>
<path fill-rule="evenodd" clip-rule="evenodd" d="M73.2474 86.8131C91.474 55.308 73.188 35.3172 56.3433 22.2093C98.8059 14.8877 135.574 79.7778 73.2474 86.8131Z" fill="url(#paint1_linear_63_12695)"/>
<path fill-rule="evenodd" clip-rule="evenodd" d="M52.9429 74.9114H74.1956V53.6587H52.9429V74.9114Z" fill="url(#paint2_linear_63_12695)"/>
<path fill-rule="evenodd" clip-rule="evenodd" d="M54.6431 88.5132C61.3421 88.9464 68.0645 89.7124 75.0457 90.2134C82.0045 90.3036 88.7761 90.1103 96.2985 90.2134C96.2985 90.217 85.9698 103.182 71.6453 105.515C71.5603 105.515 59.3702 98.4766 54.6431 88.5132Z" fill="url(#paint3_linear_63_12695)"/>
<path fill-rule="evenodd" clip-rule="evenodd" d="M54.7414 40.907C36.5148 72.4119 54.8343 92.4245 71.679 105.532C29.2161 112.854 -7.58475 47.9423 54.7414 40.907Z" fill="url(#paint4_linear_63_12695)"/>
<defs>
<linearGradient id="paint0_linear_63_12695" x1="70.1109" y1="27.4168" x2="48.2816" y2="27.4168" gradientUnits="userSpaceOnUse">
<stop stop-color="#F4D400"/>
<stop offset="1" stop-color="#FF4A00"/>
</linearGradient>
<linearGradient id="paint1_linear_63_12695" x1="56.3433" y1="21.6343" x2="56.3433" y2="87.0928" gradientUnits="userSpaceOnUse">
<stop stop-color="#F3405F"/>
<stop offset="0.495965" stop-color="#CD0000"/>
<stop offset="1" stop-color="#CE0000"/>
</linearGradient>
<linearGradient id="paint2_linear_63_12695" x1="52.9429" y1="53.6587" x2="52.9429" y2="74.9114" gradientUnits="userSpaceOnUse">
<stop stop-color="#FEFF00"/>
<stop offset="1" stop-color="#FF5000"/>
</linearGradient>
<linearGradient id="paint3_linear_63_12695" x1="56.63" y1="102.238" x2="82.2278" y2="102.238" gradientUnits="userSpaceOnUse">
<stop stop-color="#FADC00"/>
<stop offset="1" stop-color="#F94900"/>
</linearGradient>
<linearGradient id="paint4_linear_63_12695" x1="21.5" y1="40.907" x2="21.5" y2="106.365" gradientUnits="userSpaceOnUse">
<stop stop-color="#CE0000"/>
<stop offset="0.474196" stop-color="#CE0000"/>
<stop offset="1" stop-color="#F74061"/>
</linearGradient>
</defs>
</svg>
