<svg width="48" height="48" viewBox="0 0 48 48" fill="none" xmlns="http://www.w3.org/2000/svg">
<rect x="6" y="6" width="36" height="36" rx="8" fill="#E80D22"/>
<path d="M17.5 16.5V12L20 11.7812V13H23.5V15H20V16L26 15.5V20.5L23.75 21L23.5 18.5L20 19V20.4062L22.5 20V22.25L20 23V24L22.7188 23.3125V26L17.5 27.5V23.5L15 24L13.5 34.5L10.5 34L12.5 21H11.5L11 17L17.5 16.5Z" fill="white"/>
<path d="M16 29L15.5 35L18 35.3125L18.5 31L20.3125 30.2812L21 35.3125L27 32L26.8125 35H30.3438V30.2812L32 29L31.5 26.5L30.5 27.1562V24.5L32.2188 23.7812L32 21.2188L30.5 21.5V17H28.5L28 22.25L24 23.3125V26L27.7188 25L27.5 28.5L23.5 30.5L23 27L16 29Z" fill="white"/>
<path d="M32.5 34.5L33.5 17H35.6562L35.5 23.7812L39 27L37 29L35.6562 27.1562L35.5 34.5H32.5Z" fill="white"/>
<path d="M15.5 21.5V20L17.5 19.5V21L15.5 21.5Z" fill="#E80D22"/>
</svg>
