<svg width="50" height="50" viewBox="0 0 50 50" fill="none" xmlns="http://www.w3.org/2000/svg">
<path d="M35.5148 30.6564C35.1049 30.6564 34.7534 30.3954 34.6152 30.0316L31.146 21.245C31.7155 21.1468 32.2497 20.9165 32.7317 20.5481C33.1677 20.215 33.5699 19.7745 33.8247 19.1789C34.0964 18.5418 34.3036 17.716 34.3036 16.6921C34.3036 16.0673 34.1946 15.527 34.0611 15.0788C33.4256 12.9435 31.4914 12.6503 29.829 12.6503H28.9294C28.9479 12.7286 28.9648 12.81 28.9832 12.8913C28.9832 12.8913 29.502 12.8745 30.0838 12.9973C30.8529 13.1584 31.3609 13.5668 31.6956 13.9382C32.0302 14.3082 32.2359 14.718 32.3495 15.2139C32.4662 15.7097 32.4877 16.2746 32.4877 16.9085C32.4907 19.1528 31.2105 20.2442 30.2266 20.7323C29.6171 21.0332 29.1198 21.0838 29.04 21.1053L29.0906 21.2266L32.8898 30.8482H36.2547V30.6564H35.5178H35.5148Z" fill="#C07958"/>
<path d="M19.9478 6.96301L17.808 6.96148H13.7432V7.15336H14.6719C15.2076 7.15336 15.6405 7.58624 15.6405 8.12043V28.1159C15.6405 28.6485 15.2076 29.0845 14.6719 29.0845H13.7432V29.2764H19.5364V29.2717C20.4927 29.2717 21.3754 29.2134 22.189 29.0829V28.3814C21.3186 28.8281 20.3653 29.0829 19.323 29.0829H18.7735C18.2439 29.0829 17.8141 28.6547 17.8064 28.1281V8.10662C17.8126 7.57856 18.2439 7.15182 18.7735 7.15182H19.7329C21.8451 7.15182 23.4968 8.13578 24.6895 9.7138C25.8807 11.2964 26.4794 14.0303 26.4794 17.9125C26.4794 21.1115 26.1018 23.5322 25.3542 25.1824V27.8749C25.7794 27.574 26.1678 27.2179 26.5239 26.7896C28.1173 24.8478 28.9186 21.7992 28.9186 17.6423C28.9186 13.8492 28.0881 11.0493 26.4364 9.24101C24.8108 7.46957 22.6433 6.9799 19.9463 6.96148" fill="#C07958"/>
<path d="M24.857 29.7016V13.797C24.8646 13.3426 25.1839 12.9696 25.6045 12.8683C25.5907 12.7962 25.5754 12.7209 25.5615 12.6488H20.7937V12.8407H21.7224C22.2551 12.8407 22.6895 13.2736 22.6895 13.8078V29.6847C22.6895 30.2189 22.2551 30.6548 21.7224 30.6548H20.7937V30.8467H26.3152V30.6548H25.8256C25.296 30.6548 24.8631 30.2265 24.857 29.7" fill="#C07958"/>
<path d="M42.0542 43.0395C41.9053 43.0395 41.7594 43.015 41.6213 42.9658C41.4432 42.9029 41.282 42.8001 41.1408 42.6634C41.0809 42.6051 40.9643 42.4562 40.929 42.3979C40.9075 42.3626 40.8875 42.3227 40.8691 42.2843C40.8691 42.2843 40.8691 42.2827 40.8691 42.2812C40.8691 42.2781 40.866 42.2751 40.866 42.272C40.866 42.2689 40.863 42.2659 40.8614 42.2628L40.8584 42.2567C40.8538 42.2474 40.8507 42.2382 40.8461 42.2275C40.8384 42.2075 40.8323 42.1891 40.8261 42.1707C40.82 42.1523 40.8154 42.1338 40.8092 42.1108C40.8062 42.1016 40.8046 42.0924 40.8031 42.0832C40.8016 42.074 40.8 42.0663 40.7985 42.0571C40.7924 42.031 40.7878 42.0049 40.7847 41.9803C40.7847 41.9803 40.7847 41.9803 40.7847 41.9788C40.7801 41.9404 40.777 41.899 40.7755 41.8575C40.7755 41.856 40.7755 41.8529 40.7755 41.8499C40.7755 41.8314 40.7755 41.8146 40.7755 41.7992C40.7785 41.6979 40.8 41.5997 40.8415 41.506C40.8445 41.4983 40.8507 41.4953 40.8584 41.4953C40.863 41.4953 40.866 41.4953 40.8691 41.4999C40.8706 41.5029 40.8722 41.5076 40.8691 41.5152C40.8691 41.5152 40.8691 41.5152 40.8691 41.5168C40.8384 41.5966 40.8215 41.681 40.82 41.767C40.8169 41.9113 40.8553 42.051 40.9336 42.1722C40.9336 42.1753 40.9336 42.1784 40.9367 42.1814C40.9781 42.249 41.0288 42.3088 41.0856 42.3626C41.2483 42.5115 41.4632 42.5898 41.7057 42.5898C42.0833 42.5898 42.487 42.3979 42.7864 42.0755C42.9951 41.8575 43.1333 41.5874 43.2822 41.2834L43.9423 39.6747C43.9469 39.664 43.9423 39.6532 43.9346 39.6471C43.9315 39.644 43.9269 39.6425 43.9223 39.6425C43.9162 39.6425 43.91 39.6455 43.907 39.6486C43.4035 40.1398 42.7941 40.433 42.2767 40.433C42.0127 40.433 41.7779 40.3563 41.5967 40.2104C41.4371 40.08 41.3235 39.9034 41.259 39.6839C41.2559 39.6763 41.2498 39.6701 41.2421 39.6686C41.2421 39.6686 41.2391 39.6686 41.2375 39.6686C41.2314 39.6686 41.2252 39.6716 41.2206 39.6762C41.15 39.7545 41.0733 39.8298 40.9919 39.9004C40.6143 40.2304 40.1829 40.4361 39.8637 40.4361C39.8575 40.4361 39.8529 40.4361 39.8468 40.4361H39.833C39.8238 40.4361 39.8161 40.4361 39.8084 40.4361H39.8053H39.8007C39.7531 40.4361 39.704 40.43 39.658 40.4146C39.3187 40.3087 39.1606 39.8405 39.3064 39.3723C39.3233 39.3201 39.3417 39.2695 39.3648 39.2203C39.3678 39.2173 39.3709 39.2142 39.3709 39.2096C39.3709 39.2065 39.3724 39.2035 39.374 39.2004L40.14 37.3445C40.14 37.3445 40.14 37.3399 40.14 37.3368C40.1891 37.2263 40.1937 37.1112 40.1522 37.013C40.0939 36.8763 39.9389 36.7812 39.7501 36.7658C39.724 36.7643 39.6963 36.7627 39.6687 36.7627C39.3126 36.7627 38.9043 36.9439 38.5788 37.2478C38.3854 37.429 38.2319 37.6423 38.1337 37.8649L37.1528 40.3087C37.139 40.344 37.1067 40.3655 37.0699 40.3655H36.416C36.3868 40.3655 36.3592 40.3501 36.3423 40.3256C36.3254 40.301 36.3223 40.2703 36.3346 40.2427L36.6831 39.3907C36.6877 39.3815 36.6831 39.3692 36.6738 39.3631C36.6692 39.36 36.6662 39.36 36.6616 39.36C36.6554 39.36 36.6493 39.3631 36.6447 39.3692C36.4927 39.558 36.3269 39.7254 36.1535 39.8681C35.7851 40.1767 35.3813 40.3593 35.0759 40.3593H35.0114C34.9623 40.3593 34.9147 40.3517 34.8686 40.3379C34.5294 40.2319 34.3698 39.7637 34.5171 39.294C34.5325 39.2418 34.5524 39.1912 34.5754 39.1421C34.5785 39.139 34.5801 39.1359 34.5816 39.1328C34.5816 39.1298 34.5831 39.1252 34.5847 39.1221L35.6254 36.6C35.6392 36.5663 35.6715 36.5448 35.7068 36.5448H36.33C36.3607 36.5448 36.3868 36.5601 36.4037 36.5847C36.4206 36.6092 36.4236 36.6399 36.4129 36.6676L35.9063 37.9278L35.2631 39.532C35.1618 39.7576 35.1726 39.9694 35.2938 40.0723C35.3276 40.1015 35.3691 40.1214 35.4166 40.1306C35.4166 40.1306 35.4197 40.1306 35.4213 40.1306H35.4228C35.4397 40.1352 35.4566 40.1368 35.4765 40.1368C35.5655 40.1368 35.6807 40.0968 35.8096 40.0216C35.8112 40.0216 35.8127 40.0186 35.8142 40.0186C35.825 40.0124 35.8357 40.0063 35.8449 40.0001H35.8465C35.8465 40.0001 35.8557 39.9925 35.8603 39.9909C36.0215 39.8927 36.178 39.7684 36.3285 39.621H36.33C36.3438 39.6056 36.3561 39.5934 36.3684 39.5811L36.3776 39.5719C36.3883 39.5611 36.3991 39.5504 36.4098 39.5381L36.4252 39.5212C36.4344 39.512 36.4421 39.5028 36.4513 39.4936C36.4574 39.4874 36.462 39.4813 36.4682 39.4752L36.4804 39.4613C36.4804 39.4613 36.4881 39.4521 36.4927 39.4475C36.5065 39.4322 36.5203 39.4153 36.5326 39.3999C36.5495 39.38 36.5649 39.36 36.5802 39.3401L36.5863 39.3309C36.6355 39.2695 36.6815 39.205 36.7245 39.1405C36.7245 39.1405 36.7245 39.1405 36.726 39.139C36.8289 38.9855 36.9133 38.8304 36.9762 38.6754L37.8251 36.6016C37.8389 36.5678 37.8712 36.5463 37.908 36.5463H38.5312C38.5619 36.5463 38.588 36.5601 38.6049 36.5847C38.6218 36.6092 38.6249 36.6399 38.6141 36.6676L38.367 37.2831C38.3624 37.2939 38.367 37.3046 38.3762 37.3108C38.3808 37.3123 38.3839 37.3138 38.3885 37.3138C38.3946 37.3138 38.4008 37.3108 38.4054 37.3077C38.5589 37.1496 38.7477 37.0022 38.9503 36.884C39.331 36.6614 39.7347 36.5386 40.0862 36.5386C40.4378 36.5386 40.7095 36.663 40.843 36.8902C40.9643 37.0974 40.9612 37.3706 40.8323 37.6607L40.7755 37.8035L40.0555 39.6102C39.9527 39.8359 39.965 40.0477 40.0847 40.1506C40.1185 40.1797 40.1599 40.1997 40.2075 40.2089C40.209 40.2089 40.2106 40.2089 40.2121 40.2089H40.2136C40.2305 40.2135 40.2474 40.215 40.2674 40.215C40.361 40.215 40.4807 40.1721 40.6174 40.0892C40.8139 39.971 41.0288 39.7791 41.2237 39.5504C41.2283 39.5458 41.2298 39.5381 41.2283 39.532C41.127 38.9225 41.391 38.1412 41.916 37.4919C42.464 36.8149 43.1993 36.3928 43.8317 36.3928C43.8793 36.3928 43.9254 36.3943 43.9714 36.3989C43.9714 36.3989 43.9714 36.3989 43.973 36.3989C43.976 36.3989 43.9776 36.3989 43.9791 36.3989C44.0159 36.4035 44.0559 36.4097 44.1004 36.4204L44.1157 36.425C44.303 36.468 44.478 36.5524 44.6207 36.6691C44.6207 36.6706 44.6238 36.6722 44.6254 36.6737C44.7804 36.7996 44.8817 37.0037 44.9017 37.234C44.9017 37.2447 44.9109 37.2524 44.9201 37.254C44.9201 37.254 44.9216 37.254 44.9232 37.254C44.9324 37.254 44.94 37.2478 44.9431 37.2401L45.2056 36.6016C45.2194 36.5678 45.2516 36.5463 45.2885 36.5463H45.9117C45.9409 36.5463 45.9685 36.5617 45.9854 36.5862C46.0008 36.6108 46.0054 36.6415 45.9931 36.6691L45.3422 38.2824C45.3422 38.2824 45.3422 38.2886 45.3422 38.2916L44.1418 41.2666C43.9331 41.7869 43.6214 42.2321 43.2407 42.5529C42.8647 42.8707 42.4563 43.038 42.0618 43.038L42.0542 43.0395ZM42.1846 39.8267C42.1846 39.8267 42.1969 39.8482 42.2031 39.8574C42.2107 39.8697 42.2199 39.885 42.2292 39.8973C42.355 40.0846 42.5684 40.1966 42.8017 40.1966C42.9199 40.1966 43.0304 40.169 43.1456 40.1076C43.3037 40.0247 43.5616 39.8205 43.6767 39.7254C43.6767 39.7254 43.6767 39.7238 43.6798 39.7238C43.7749 39.6456 43.8701 39.5565 43.9622 39.4583C44.0405 39.3738 44.1004 39.2817 44.1434 39.1804L44.3736 38.6186C44.3736 38.6186 44.3751 38.614 44.3751 38.6109L44.8111 37.5471C44.8234 37.5072 44.831 37.4627 44.8341 37.4136C44.8449 37.2601 44.7881 37.1112 44.6729 36.9961C44.5593 36.8794 44.4028 36.8088 44.2309 36.798C44.2201 36.798 44.2094 36.798 44.1986 36.798C44.1602 36.798 44.1234 36.8011 44.0881 36.8042C44.062 36.8073 44.0344 36.8119 44.0021 36.8165C43.9914 36.8195 43.9791 36.8211 43.9684 36.8241H43.9668C43.9315 36.8318 43.9039 36.8395 43.8778 36.8456C43.8655 36.8487 43.8517 36.8533 43.8394 36.8579L43.8271 36.8625L43.821 36.8656C43.821 36.8656 43.8087 36.8702 43.8026 36.8717C43.3804 37.0222 42.9414 37.3936 42.6006 37.8925C42.1171 38.5971 41.9482 39.3938 42.1877 39.8313L42.1846 39.8267Z" fill="#C07958"/>
<path d="M4.88605 40.367C4.85689 40.367 4.82926 40.3532 4.81237 40.3286C4.79549 40.3041 4.79242 40.2734 4.80316 40.2457L6.82634 34.9621C6.84016 34.9284 6.8724 34.9069 6.90924 34.9069H7.58312C7.61228 34.9069 7.63991 34.9222 7.6568 34.9453C7.67369 34.9698 7.67675 35.0005 7.66601 35.0281L5.74107 40.212C5.74107 40.212 5.74107 40.2258 5.7426 40.2319C5.74567 40.2381 5.75182 40.2411 5.75949 40.2427C5.92988 40.258 6.10334 40.2672 6.27526 40.2672C6.32285 40.2672 6.37197 40.2672 6.41956 40.2657C7.81184 40.2289 9.08132 39.6624 9.65542 38.8197C10.0085 38.3331 10.228 37.739 10.2894 37.102C10.3554 36.3989 10.2157 35.6974 9.89796 35.1264C9.89028 35.1141 9.88261 35.1018 9.87647 35.0895C9.87186 35.0819 9.86879 35.0742 9.86419 35.0681C9.86112 35.0635 9.85498 35.0527 9.85498 35.0527C9.85037 35.045 9.8473 35.0389 9.8427 35.0327C9.7552 34.8869 9.65082 34.7472 9.53569 34.6198C9.53262 34.6168 9.52494 34.6075 9.52494 34.6075C9.49731 34.5768 9.47275 34.5523 9.45126 34.5293C9.44512 34.5231 9.43745 34.517 9.43131 34.5093C9.4267 34.5047 9.4221 34.5001 9.41749 34.4955C9.41135 34.4893 9.40521 34.4832 9.39907 34.4786C9.38833 34.4679 9.37605 34.4571 9.3653 34.4464C9.36376 34.4448 9.36069 34.4433 9.35916 34.4418C9.35762 34.4418 9.35302 34.4372 9.35302 34.4372C8.8572 33.992 8.19406 33.7479 7.48641 33.7479C6.56999 33.7479 5.66432 34.1455 4.99811 34.8409C4.56369 35.2937 4.26283 35.8433 4.12621 36.425C4.12621 36.4281 4.12621 36.4296 4.12621 36.4327C4.07862 36.7182 4.19682 36.9884 4.40098 37.059C4.40098 37.059 4.40098 37.059 4.40252 37.059C4.52992 37.0912 4.63584 37.2125 4.67268 37.3691C4.72027 37.5794 4.6251 37.7805 4.45931 37.8189C4.44089 37.8235 4.42247 37.825 4.40405 37.825C4.2659 37.825 4.13235 37.7083 4.08016 37.541C4.08016 37.5379 4.07709 37.5349 4.07402 37.5318C4.03411 37.3522 4.01108 37.1711 4.00801 36.9961C3.98652 36.1641 4.33804 35.352 4.99811 34.7135C5.65357 34.0795 6.56232 33.6589 7.55702 33.5299C7.71513 33.5069 7.87631 33.4931 8.03595 33.49C8.04363 33.49 8.04977 33.49 8.05745 33.49C8.06666 33.49 8.07433 33.49 8.08354 33.49C8.08661 33.49 8.08815 33.49 8.09122 33.49H8.12345C8.91553 33.49 9.68919 33.7356 10.2986 34.1808C10.928 34.6398 11.347 35.2691 11.5128 35.9998C11.7799 37.191 11.3025 38.439 10.2664 39.2603C9.52034 39.8988 8.06051 40.321 6.45947 40.3624C6.395 40.3639 6.32592 40.3655 6.24763 40.3655H6.24456L5.64436 40.3686H5.64129C5.64129 40.3686 5.63208 40.3686 5.62748 40.3686H4.89219L4.88605 40.367Z" fill="#C07958"/>
<path d="M36.3467 35.722C36.2499 35.722 36.1732 35.6913 36.1164 35.6314C36.0565 35.57 36.0304 35.4902 36.0396 35.392C36.0489 35.2615 36.1026 35.1494 36.2024 35.0604C36.3006 34.9698 36.4142 34.9238 36.5401 34.9238C36.6383 34.9238 36.7181 34.9529 36.7765 35.0128C36.8348 35.0727 36.8609 35.1494 36.8548 35.2415C36.844 35.3689 36.7872 35.4825 36.6828 35.5792C36.58 35.6759 36.4664 35.7251 36.3467 35.7251" fill="#C07958"/>
<path d="M22.9796 43.0395C22.8307 43.0395 22.6849 43.015 22.5467 42.9658C22.3671 42.9029 22.2075 42.8001 22.0663 42.6634C22.0064 42.6051 21.8897 42.4562 21.856 42.3979C21.8345 42.3626 21.8145 42.3242 21.7961 42.2843V42.2812C21.7961 42.2812 21.793 42.2751 21.7915 42.272C21.7915 42.272 21.7884 42.2659 21.7869 42.2628L21.7838 42.2567C21.7792 42.2474 21.7746 42.2382 21.7715 42.2275C21.7639 42.206 21.7577 42.1891 21.7516 42.1707C21.7454 42.1523 21.7393 42.1338 21.7332 42.1108C21.7301 42.1016 21.7286 42.0924 21.727 42.0832C21.7255 42.074 21.7239 42.0663 21.7224 42.0571C21.7163 42.031 21.7117 42.0064 21.7086 41.9803C21.7086 41.9803 21.7086 41.9803 21.7086 41.9773C21.7025 41.9389 21.6994 41.8974 21.6994 41.856C21.6994 41.8545 21.6994 41.8514 21.6994 41.8499C21.6994 41.8314 21.6994 41.8146 21.6994 41.7992C21.7025 41.6979 21.7239 41.5997 21.7654 41.506C21.7685 41.4999 21.7746 41.4953 21.7823 41.4953C21.7869 41.4953 21.79 41.4953 21.793 41.5014C21.7946 41.5029 21.7961 41.5091 21.793 41.5168V41.5198C21.7608 41.5997 21.7439 41.6841 21.7424 41.77C21.7393 41.9143 21.7792 42.054 21.8544 42.1753C21.8544 42.1784 21.856 42.183 21.8575 42.1845C21.8989 42.252 21.9496 42.3134 22.0064 42.3656C22.1706 42.5145 22.384 42.5928 22.6266 42.5928C23.0042 42.5928 23.4079 42.4009 23.7072 42.0786C23.916 41.8606 24.0587 41.5843 24.2092 41.2727L24.9352 39.4997C24.9352 39.4997 24.9352 39.4997 24.9352 39.4982L25.2054 38.8397C25.21 38.8289 25.2054 38.8166 25.1947 38.812C25.1916 38.8105 25.187 38.8089 25.1839 38.8089C25.1763 38.8089 25.1701 38.812 25.1655 38.8182C25.1548 38.832 25.1455 38.8443 25.1363 38.8581C24.7495 39.3861 24.3182 39.8313 23.9191 40.1122L23.8914 40.1306C23.6734 40.2841 23.4232 40.367 23.1853 40.367C22.9612 40.367 22.7616 40.2933 22.6097 40.1552C22.338 39.908 22.2643 39.4982 22.4162 39.0837L22.427 39.053C22.427 39.053 22.427 39.05 22.4285 39.05L23.1715 37.2202C23.1715 37.2202 23.1715 37.2186 23.173 37.2171C23.2252 37.1051 23.2145 36.9899 23.1485 36.9562C23.1362 36.95 23.1208 36.9469 23.1055 36.9469C23.0456 36.9469 22.975 36.9976 22.9259 37.0759C22.9259 37.0759 22.9243 37.0774 22.9243 37.079C22.8906 37.1327 22.8522 37.1879 22.8108 37.2386C22.6542 37.4289 22.4608 37.561 22.2965 37.5947C22.272 37.6009 22.2489 37.6039 22.2259 37.6039C22.1875 37.6039 22.1507 37.5963 22.1154 37.5794C22.054 37.5487 22.0049 37.4934 21.9803 37.4213C21.945 37.3215 21.9557 37.2018 22.0079 37.0943C22.0739 36.9577 22.1967 36.8625 22.3226 36.8533C22.3641 36.8487 22.3948 36.8226 22.3948 36.7919C22.3948 36.7766 22.3871 36.7612 22.3717 36.7489C22.2981 36.6891 22.2044 36.6584 22.0908 36.6584C21.8498 36.6584 21.5551 36.8011 21.3003 37.0375C21.1637 37.1665 21.0516 37.3154 20.9779 37.4689L19.8374 40.3133C19.8236 40.3471 19.7913 40.3685 19.7545 40.3685H19.1006C19.0699 40.3685 19.0438 40.3547 19.0269 40.3286C19.01 40.3041 19.0069 40.2734 19.0177 40.2457L20.1536 37.4689C20.1582 37.4597 20.1536 37.4489 20.1459 37.4428C20.1429 37.4397 20.1382 37.4382 20.1336 37.4382C20.129 37.4382 20.1229 37.4397 20.1198 37.4428C19.9694 37.5656 19.7944 37.6346 19.6302 37.6346C19.5503 37.6346 19.4766 37.6178 19.4122 37.5855C19.4122 37.5855 19.4122 37.5855 19.4106 37.5855C19.406 37.584 19.4014 37.5809 19.3953 37.5794C19.3339 37.5487 19.2848 37.4934 19.2602 37.4213C19.2264 37.3215 19.2356 37.2018 19.2878 37.0943C19.3538 36.9577 19.4766 36.8625 19.6025 36.8533C19.644 36.8487 19.6747 36.8226 19.6747 36.7919C19.6747 36.7766 19.667 36.7612 19.6532 36.7489C19.5795 36.6891 19.4843 36.6584 19.3723 36.6584C19.1313 36.6584 18.8365 36.8011 18.5817 37.0375C18.4451 37.1665 18.333 37.3154 18.2594 37.4689L17.1188 40.3133C17.105 40.3471 17.0712 40.3685 17.0359 40.3685H16.382C16.3528 40.3685 16.3252 40.3547 16.3083 40.3286C16.2914 40.3041 16.2884 40.2734 16.3006 40.2457L16.5938 39.5289C16.5984 39.5181 16.5938 39.5074 16.5846 39.5013C16.5816 39.5013 16.577 39.4982 16.5739 39.4982C16.5677 39.4982 16.5601 39.5013 16.557 39.5059C16.4649 39.6179 16.3605 39.7254 16.2454 39.8267C15.8678 40.1567 15.4349 40.3609 15.1171 40.3609H15.0527C15.0035 40.3609 14.956 40.3532 14.9099 40.3394C14.5691 40.2335 14.411 39.7653 14.5584 39.2956C14.5645 39.2771 14.5707 39.2572 14.5783 39.2372C14.5814 39.2265 14.5783 39.2157 14.5676 39.2111C14.563 39.2096 14.5599 39.2081 14.5568 39.2081C14.5507 39.2081 14.543 39.2111 14.5384 39.2173C14.5261 39.2342 14.5123 39.251 14.4985 39.2679C13.9505 39.9464 13.2152 40.367 12.5812 40.367C12.3172 40.367 12.0824 40.2903 11.9012 40.1444C11.2719 39.6348 11.4131 38.4129 12.2174 37.4213C12.7655 36.7428 13.5007 36.3222 14.1347 36.3222C14.1808 36.3222 14.2283 36.3237 14.2744 36.3283H14.2759C14.2759 36.3283 14.2805 36.3283 14.2821 36.3283C14.3189 36.3329 14.3573 36.3391 14.4033 36.3498C14.4064 36.3498 14.4187 36.3529 14.4187 36.3529C14.9053 36.4649 15.2538 36.8272 15.3059 37.2754C15.309 37.3 15.3105 37.3261 15.3121 37.3507C15.3121 37.3614 15.3213 37.3706 15.3305 37.3722H15.3336C15.3428 37.3722 15.3505 37.366 15.3535 37.3583L15.6651 36.6031C15.679 36.5693 15.7112 36.5478 15.7465 36.5478H16.3713C16.4004 36.5478 16.4281 36.5632 16.4449 36.5877C16.4618 36.6123 16.4649 36.643 16.4542 36.6706L15.9445 37.9355L15.3044 39.5335C15.2016 39.7591 15.2138 39.971 15.3336 40.0738C15.3673 40.103 15.4088 40.1229 15.4564 40.1322C15.4579 40.1322 15.4594 40.1322 15.461 40.1322C15.4763 40.1352 15.4948 40.1383 15.5147 40.1383C15.6083 40.1383 15.7296 40.0953 15.8647 40.0124C16.0658 39.8896 16.2868 39.6931 16.4833 39.4567C16.5601 39.3646 16.6322 39.2695 16.6967 39.1728L16.7934 39.0162C16.8087 38.9901 16.8226 38.9625 16.8379 38.9333C16.8379 38.9333 16.8379 38.9333 16.8379 38.9318L17.7912 36.6016C17.805 36.5678 17.8372 36.5463 17.8725 36.5463H18.4958C18.5265 36.5463 18.5541 36.5617 18.5694 36.5847C18.5863 36.6092 18.5894 36.6399 18.5786 36.6676L18.4697 36.9362C18.4666 36.9454 18.4697 36.9577 18.4773 36.9623C18.4804 36.9654 18.485 36.9654 18.4896 36.9654C18.4958 36.9654 18.5019 36.9638 18.505 36.9592C18.5111 36.9531 18.5172 36.9469 18.5249 36.9408C18.792 36.6921 19.1159 36.5432 19.3938 36.5432C19.5565 36.5432 19.6916 36.5954 19.7837 36.6937C19.9049 36.8241 19.9387 37.0222 19.8788 37.254C19.8696 37.2893 19.8589 37.323 19.842 37.3553C19.8282 37.3829 19.8128 37.4105 19.7929 37.4351C19.7744 37.4597 19.7729 37.4888 19.7883 37.5042C19.7959 37.5134 19.8067 37.5164 19.8205 37.5164C19.8282 37.5164 19.8358 37.5164 19.8435 37.5118C19.8435 37.5118 19.8451 37.5118 19.8466 37.5118C19.9587 37.4704 20.0676 37.3982 20.1567 37.3046C20.2135 37.2447 20.2611 37.1787 20.2979 37.1066V37.1051L20.5051 36.5985C20.5189 36.5647 20.5512 36.5432 20.588 36.5432H21.2112C21.2404 36.5432 21.268 36.5586 21.2849 36.5816C21.3018 36.6062 21.3049 36.6369 21.2941 36.6645L21.1867 36.9331C21.1836 36.9423 21.1867 36.9546 21.1944 36.9592C21.199 36.9623 21.202 36.9623 21.2066 36.9623C21.2128 36.9623 21.2174 36.9608 21.222 36.9562C21.2281 36.95 21.2343 36.9439 21.2404 36.9377C21.5075 36.6891 21.8314 36.5402 22.1092 36.5402C22.272 36.5402 22.407 36.5924 22.4991 36.6906C22.6204 36.8211 22.6542 37.0191 22.5943 37.2509C22.5897 37.2693 22.5851 37.2877 22.5774 37.3046C22.5744 37.3138 22.5774 37.3246 22.5851 37.3307C22.5897 37.3338 22.5943 37.3338 22.5974 37.3338C22.602 37.3338 22.6081 37.3322 22.6112 37.3292C22.6818 37.2678 22.7432 37.2002 22.7908 37.1311C22.8123 37.1004 22.8599 37.0145 22.8798 36.9776L22.889 36.9623C23.0349 36.7044 23.2789 36.5356 23.5077 36.5356C23.5675 36.5356 23.6259 36.5478 23.6796 36.5709C23.9574 36.6906 24.0541 37.0912 23.9006 37.4827V37.4857L23.8914 37.5072C23.8914 37.5072 23.8914 37.5103 23.8899 37.5118C23.8899 37.5149 23.8884 37.5164 23.8868 37.518V37.5195L23.853 37.6024L23.3204 38.9041C23.3204 38.9041 23.3189 38.9103 23.3189 38.9133C23.0825 39.5274 23.0625 39.9771 23.2667 40.1122C23.3096 40.1414 23.3634 40.1567 23.4248 40.1567C23.5859 40.1567 23.8009 40.0554 24.0511 39.8666C24.1739 39.7883 24.312 39.6655 24.4732 39.489C24.6068 39.3524 24.7418 39.2004 24.8754 39.0361C25.2607 38.5603 25.494 38.0844 25.5769 37.9017L26.1096 36.6016C26.1234 36.5678 26.1556 36.5463 26.1924 36.5463H26.8157C26.8448 36.5463 26.8725 36.5617 26.8894 36.5862C26.9062 36.6108 26.9093 36.6415 26.8986 36.6691L25.0381 41.285V41.2865C24.8263 41.7992 24.5162 42.2367 24.1386 42.5529C23.7655 42.8661 23.3603 43.0303 22.9689 43.0303M14.5246 36.7213C14.4816 36.7213 14.4402 36.7228 14.3957 36.7274C14.3696 36.7305 14.3404 36.7351 14.3097 36.7397C14.2974 36.7413 14.2851 36.7443 14.2729 36.7474C14.2391 36.7551 14.2099 36.7612 14.1838 36.7689C14.1715 36.772 14.1593 36.7766 14.1485 36.7812L14.1347 36.7858H14.1301C14.1301 36.7858 14.1163 36.7919 14.1101 36.795C13.688 36.9454 13.249 37.3169 12.9082 37.8158C12.4247 38.5188 12.2543 39.3155 12.4953 39.753C12.4953 39.753 12.5076 39.7745 12.5137 39.7837C12.5214 39.796 12.5291 39.8098 12.5398 39.8236C12.6657 40.0109 12.8806 40.1245 13.1124 40.1245C13.2306 40.1245 13.3396 40.0968 13.4562 40.0354C13.6159 39.9526 13.8738 39.7484 13.9873 39.6532C13.9873 39.6532 13.9873 39.6532 13.9889 39.6517C14.2115 39.4706 14.4218 39.2372 14.5998 38.9778C14.7349 38.7813 14.847 38.5756 14.9345 38.3684C14.9728 38.2763 15.0757 38.023 15.1325 37.8803L15.1356 37.8726C15.1356 37.8726 15.1371 37.8618 15.1356 37.8572C15.1954 37.739 15.2261 37.6024 15.2261 37.4627C15.2261 37.1081 15.025 36.7996 14.7564 36.7459C14.7564 36.7459 14.7549 36.7459 14.7533 36.7459C14.7518 36.7459 14.7472 36.7459 14.7472 36.7459C14.738 36.7443 14.7288 36.7428 14.7196 36.7412C14.6566 36.7305 14.5921 36.7244 14.5261 36.7244" fill="#C07958"/>
<path d="M33.5069 40.6341C33.2306 40.6295 32.8361 40.5942 32.6027 40.3286C32.4339 40.1352 32.3709 39.8451 32.4155 39.4644C32.4354 39.2864 32.4646 39.116 32.4937 38.9517C32.6073 38.2809 32.6964 37.7528 32.1867 37.3783C31.9795 37.2279 31.5021 37.1434 31.1552 37.1173C30.9817 37.1081 30.842 37.0989 30.7377 37.0912C30.7377 37.0912 30.7377 37.0912 30.7346 37.0912C30.7254 37.0912 30.7177 37.0974 30.7131 37.1066L29.4897 40.4407C29.4774 40.4745 29.4436 40.4975 29.4068 40.4975H28.6715C28.6423 40.4975 28.6147 40.4821 28.5978 40.4576C28.5809 40.433 28.5779 40.4023 28.5886 40.3747L30.6363 34.9591C30.6502 34.9253 30.6824 34.9038 30.7192 34.9038H31.3931C31.4223 34.9038 31.4499 34.9176 31.4668 34.9422C31.4837 34.9667 31.4868 34.9974 31.476 35.0251L30.7638 36.9654C30.7638 36.9654 30.7638 36.9792 30.7653 36.9853C30.7699 36.9915 30.776 36.9945 30.7822 36.9961C30.8159 36.9991 30.8528 37.0037 30.8912 37.0068C30.9004 37.0068 30.9096 37.0068 30.9173 37.0084C30.9633 37.013 31.0017 37.0145 31.0385 37.0176C31.08 37.0206 31.123 37.0222 31.1644 37.0237C31.2304 37.0252 31.2995 37.0283 31.3747 37.0283H31.4115H31.4146C31.4315 37.0283 31.4484 37.0283 31.4653 37.0283H31.499C31.5098 37.0283 31.519 37.0283 31.5297 37.0283C31.7999 37.0237 32.0517 36.9961 32.262 36.9454L32.2788 36.9423C32.2927 36.9393 32.3065 36.9347 32.3203 36.9316H32.3234C32.3495 36.9239 32.374 36.9178 32.397 36.9101H32.3986C32.4093 36.907 32.4185 36.904 32.4293 36.9009C32.4477 36.8948 32.4661 36.8902 32.4845 36.8825C32.7071 36.8103 32.899 36.7121 33.0586 36.5908C33.0755 36.5785 33.0893 36.5678 33.1032 36.5555C33.1093 36.5509 33.1154 36.5448 33.1216 36.5402L33.1323 36.531C33.1323 36.531 33.1385 36.5248 33.1415 36.5217C33.2029 36.4696 33.2567 36.4112 33.3027 36.3529C33.4301 36.2009 33.5238 36.0275 33.5821 35.8371C33.731 35.3551 33.6297 34.8332 33.3135 34.4418C33.3135 34.4372 33.3104 34.4326 33.3073 34.4295C33.2935 34.4126 33.2766 34.3957 33.2567 34.3742L33.2505 34.3681C33.2505 34.3681 33.2459 34.3635 33.2444 34.3619C33.1139 34.233 32.9466 34.1209 32.7486 34.0273L32.7378 34.0227C32.7255 34.0166 32.7133 34.012 32.701 34.0058C32.6902 34.0012 32.6795 33.9966 32.6703 33.992C32.3679 33.8677 32.0117 33.8032 31.6418 33.8032C31.2964 33.8032 30.9602 33.86 30.6717 33.969C30.6624 33.972 30.6532 33.9766 30.6456 33.9797L30.6317 33.9859C30.5995 33.9981 30.5719 34.0104 30.5427 34.0227C30.5427 34.0227 30.5396 34.0227 30.5396 34.0242C30.1006 34.2146 29.7076 34.4878 29.3715 34.8378C29.0706 35.151 28.8357 35.5071 28.6715 35.8939C28.6393 35.9783 28.3722 36.7106 28.6991 36.838C28.8189 36.8779 28.9156 36.9961 28.9493 37.1419C28.9969 37.3507 28.9018 37.5533 28.736 37.5917C28.7175 37.5963 28.6991 37.5978 28.6807 37.5978C28.5303 37.5978 28.3906 37.4643 28.3491 37.2801C28.343 37.2524 28.3384 37.2233 28.3369 37.1956V37.1941C28.3031 36.9807 28.3138 36.5924 28.5533 35.9461C28.5533 35.9461 28.5533 35.9446 28.5533 35.943C28.5917 35.8417 28.6301 35.7619 28.6546 35.7082C28.6654 35.6867 28.673 35.6698 28.6776 35.656C29.0046 34.9192 29.6708 34.2714 30.5074 33.8815C31.0247 33.6405 31.5804 33.5085 32.1161 33.5008H32.1253C32.1407 33.5008 32.156 33.5008 32.1714 33.5008C32.1837 33.5008 32.1959 33.5008 32.2067 33.5008H32.2205C32.2466 33.5008 32.2727 33.5008 32.2988 33.5023H32.3019C32.9005 33.5422 33.4593 33.7203 33.8737 34.0012C34.2943 34.2867 34.5507 34.6674 34.5983 35.0757C34.6213 35.2369 34.6167 35.3996 34.586 35.5562C34.5031 35.9845 34.2253 36.3606 33.7832 36.643C33.3411 36.9255 32.7639 37.0974 32.1131 37.1388C32.1023 37.1388 32.0931 37.148 32.0916 37.1588C32.0916 37.1711 32.0977 37.1803 32.11 37.1818C32.2205 37.2033 32.328 37.2294 32.4308 37.257C32.7608 37.3507 33.0141 37.5057 33.186 37.7145C33.3365 37.9002 33.4132 38.1197 33.4056 38.3515C33.3994 38.5296 33.3687 38.7015 33.3349 38.8826C33.2889 39.1344 33.2413 39.3953 33.2505 39.7177C33.2659 40.2012 33.424 40.4622 33.7218 40.4944C33.7371 40.496 33.754 40.4975 33.7694 40.4975C33.8845 40.4975 34.0012 40.4545 34.1147 40.367C34.1992 40.3041 34.2329 40.2795 34.2483 40.2795C34.2498 40.2795 34.2544 40.2795 34.2575 40.2872C34.2636 40.3072 34.2544 40.3394 34.1347 40.4238C33.9536 40.5528 33.708 40.6356 33.5115 40.6356H33.5007L33.5069 40.6341Z" fill="#C07958"/>
</svg>
