<svg width="50" height="50" viewBox="0 0 50 50" fill="none" xmlns="http://www.w3.org/2000/svg">
<path d="M32.3801 27.6005V34.1919C32.3801 35.6248 33.2398 36.198 34.3861 36.198H34.9593V27.6005H34.3861V36.0269C33.5264 36.0269 32.9532 35.6263 32.9532 34.1934V27.602C32.9532 26.1691 33.5264 25.7685 34.3861 25.7685H34.9593V25.5959H34.3861C33.2398 25.5959 32.3801 26.1691 32.3801 27.602M8.57923 25.5945H8.00607C6.85974 25.5945 6 26.1676 6 27.6005V36.198H6.57316V27.6005C6.57316 26.1676 7.14632 25.767 8.00607 25.767V36.1994H8.57923V25.767C9.43897 25.767 10.0121 26.1676 10.0121 27.6005V36.198H10.5853V27.6005C10.5853 26.1676 9.72555 25.5945 8.57923 25.5945ZM23.8309 25.5945H23.2577V36.198H23.8309V25.7655C24.6906 25.7655 25.2638 26.1662 25.2638 27.5991V36.1965H25.837V27.5991C25.837 26.1662 24.9772 25.593 23.8309 25.593M44.0816 34.1919V31.4401C44.0816 30.3187 43.5538 29.725 42.7745 29.5203C43.5538 29.3142 44.0816 28.722 44.0816 27.6005C44.0816 26.1676 43.2219 25.5945 42.0756 25.5945H41.5024V36.198H42.0756V29.6066C42.9353 29.6066 43.5085 30.0072 43.5085 31.4401V34.1919C43.5085 35.6248 44.3682 36.198 45.5145 36.198V36.0254C44.6548 36.0254 44.0816 35.6248 44.0816 34.1919ZM42.0756 25.767C42.9353 25.767 43.5085 26.1676 43.5085 27.6005C43.5085 29.0334 42.9353 29.4341 42.0756 29.4341V25.7655V25.767ZM16.6357 36.198H17.2088V25.5945H16.6357V36.198ZM16.6357 24.7347H17.2088V23.875H16.6357V24.7347Z" fill="#231815"/>
<path d="M10.847 4.28658H10.2768V16.2601C10.2768 18.5411 9.70654 19.3964 8.68012 20.2518L8.85119 20.4477C9.99166 19.6815 10.847 18.5411 10.847 16.2601V11.9263H12.5577V11.6412H10.847V8.50488H12.5577V8.21976H10.847V4.45619H13.4131V20.2503H13.9833V4.28512H10.847V4.28658ZM19.6857 6.56753C19.6857 8.71689 19.1783 9.60002 18.2601 10.4115V4.41379H17.6899V16.2601C17.6899 18.5411 17.1196 19.3964 16.0932 20.2518L16.2643 20.4477C17.4048 19.6815 18.2601 18.5411 18.2601 16.2601V11.8693C19.1155 11.8693 19.6857 12.2684 19.6857 13.694V20.2518H20.2559V13.4089H20.2428C20.1346 12.1924 19.3216 11.6982 18.2601 11.6982V10.7288H18.2967C19.4167 9.9641 20.2516 8.82655 20.2545 6.57777V4.41379H19.6842V6.56753H19.6857ZM23.961 4.00146H23.3908V4.85682H20.8247V8.56336C20.8247 9.84128 21.5134 10.4305 22.4784 10.5387C22.3103 12.0126 21.7766 12.7115 20.9388 13.4104V13.6955H23.3908V20.2532H23.961V13.6955H25.3866V13.4104H23.961V11.6997H23.3908V13.4104H21.3833C22.1845 12.7977 22.8074 11.9497 23.0238 10.5592H23.3908C24.5313 10.5592 25.3866 9.98896 25.3866 8.56336V4.85682H23.961V4.00146ZM22.5354 9.41726C22.5354 9.76378 22.5223 10.0781 22.4959 10.3633C21.8248 10.2624 21.395 9.79742 21.395 8.5619V8.50488H22.5354V9.41726ZM22.5354 8.21976H21.395V5.14048H22.5354V8.21976ZM24.8164 5.14194V8.56336C24.8164 9.98896 24.2461 10.3881 23.3908 10.3881H23.0457C23.0837 10.0884 23.1057 9.76817 23.1057 9.41872V8.50634H23.961V8.22122H23.1057V5.14194H24.8164ZM9.70654 15.4048V7.99166C9.70654 6.56607 8.85119 5.99583 7.71071 5.99583H6V17.4006H7.71071C8.85119 17.4006 9.70654 16.8303 9.70654 15.4048ZM7.71071 17.2295H6.57024V10.2156H8.28095V9.93047H6.57024V6.1669H7.71071C8.56607 6.1669 9.13631 6.56607 9.13631 7.99166V15.4048C9.13631 16.8303 8.56607 17.2295 7.71071 17.2295ZM42.2086 10.2726H43.9193V9.98749H42.2086V8.5619H43.9193V8.27678H39.9277V8.5619H41.6384V9.98749H39.9277V10.2726H41.6384V19.9667H38.7872V20.2518H45.0598V19.9667H42.2086V10.2726ZM39.0723 5.14194H44.7747V6.56753H45.3449V4.85682H42.2086V4.00146H41.6384V4.85682H38.5021V6.56753H39.0723V5.14194ZM36.2211 9.98749H34.2253V6.28095H35.936V5.99583H34.2253V4H33.6551V5.99583H32.5146V4.85536H31.9443V7.42143C31.9443 8.84702 31.3741 9.24618 30.5188 9.24618V9.41726C31.6592 9.41726 32.5146 8.84702 32.5146 7.42143V6.28095H33.6551V9.98749H31.6592V10.2726H33.6551V20.2518H34.2253V10.2726H36.2211V9.98749ZM31.3741 15.4048H30.8039C30.8039 16.8303 30.2336 17.2295 29.3783 17.2295V10.2726H30.5188V9.98749H29.3783V6.28095H30.5188V5.99583H27.6676V6.28095H28.808V9.98749H27.6676V10.2726H28.808V17.2295H27.6676V17.4006H29.3783C30.5187 17.4006 31.3741 16.8303 31.3741 15.4048ZM35.6509 16.2601V11.6982H35.0806V16.2601C35.0806 18.5411 35.936 19.6815 37.0765 20.4477L37.2476 20.2518C36.2211 19.3964 35.6509 18.5411 35.6509 16.2601ZM43.9193 15.1196V13.4089H43.3491V15.1196C43.3491 17.4006 44.2045 18.5411 45.3449 19.3072L45.516 19.1113C44.4896 18.2559 43.9193 17.4006 43.9193 15.1196ZM32.2295 16.2601C32.2295 18.5411 31.6592 19.3964 30.6328 20.2518L30.8039 20.4477C31.9443 19.6815 32.7997 18.5411 32.7997 16.2601V11.6982H32.2295V16.2601Z" fill="#231815"/>
<path d="M7.14633 45.6858H6.00146V42.8536H7.10392C7.62883 42.8536 7.95928 43.1519 7.95928 43.63C7.95928 43.9356 7.76774 44.155 7.57766 44.231C7.79698 44.3187 8.00314 44.5293 8.00314 44.8875C8.00314 45.408 7.6493 45.6873 7.14779 45.6873M7.06591 43.2396H6.42987V44.0511H7.06591C7.34079 44.0511 7.52795 43.9079 7.52795 43.6461C7.52795 43.3844 7.34079 43.2396 7.06591 43.2396ZM7.10539 44.4371H6.42987V45.2998H7.10539C7.40366 45.2998 7.57035 45.1171 7.57035 44.8656C7.57035 44.6141 7.40366 44.4357 7.10539 44.4357" fill="#231815"/>
<path d="M9.70084 44.1433C9.60872 44.0511 9.53707 44.0087 9.39817 44.0087C9.17885 44.0087 8.99608 44.1842 8.99608 44.462V45.6873H8.59106V43.671H8.98877V43.8903C9.09258 43.747 9.29874 43.6476 9.52538 43.6476C9.71984 43.6476 9.86752 43.6988 10.0064 43.8391L9.70084 44.1447V44.1433Z" fill="#231815"/>
<path d="M10.54 43.2747C10.3968 43.2747 10.2769 43.1548 10.2769 43.0116C10.2769 42.8683 10.3968 42.7498 10.54 42.7498C10.6833 42.7498 10.8032 42.8697 10.8032 43.0116C10.8032 43.1534 10.6833 43.2747 10.54 43.2747ZM10.3368 43.6695H10.7418V45.6858H10.3368V43.6695Z" fill="#231815"/>
<path d="M12.0638 46.5251C11.7582 46.5251 11.5622 46.4535 11.3517 46.259L11.6105 46.0002C11.7377 46.1201 11.8488 46.1786 12.0477 46.1786C12.3898 46.1786 12.5214 45.9359 12.5214 45.6654V45.4066C12.3737 45.582 12.2071 45.6376 12.0009 45.6376C11.7947 45.6376 11.631 45.5703 11.5198 45.4592C11.3254 45.2647 11.2932 44.9825 11.2932 44.6404C11.2932 44.2983 11.3254 44.0161 11.5198 43.8216C11.631 43.7105 11.802 43.6461 12.0053 43.6461C12.2202 43.6461 12.3825 43.7017 12.5346 43.8845V43.6695H12.9279V45.6741C12.9279 46.1669 12.6018 46.5251 12.0652 46.5251M12.112 44.0073C11.7465 44.0073 11.6982 44.3216 11.6982 44.6404C11.6982 44.9591 11.7465 45.2735 12.112 45.2735C12.4776 45.2735 12.5214 44.9591 12.5214 44.6404C12.5214 44.3216 12.4776 44.0073 12.112 44.0073Z" fill="#231815"/>
<path d="M14.7934 45.6858V44.4488C14.7934 44.1433 14.615 44.0073 14.3884 44.0073C14.1618 44.0073 13.979 44.1462 13.979 44.4488V45.6858H13.574V42.8536H13.979V43.8713C14.1179 43.7207 14.3007 43.6447 14.4995 43.6447C14.9484 43.6447 15.1999 43.9473 15.1999 44.3845V45.6858H14.7949H14.7934Z" fill="#231815"/>
<path d="M16.4238 45.6858C16.0466 45.6858 15.8712 45.4153 15.8712 45.1244V44.0146H15.6401V43.7046H15.8712V43.092H16.2762V43.7046H16.6666V44.0146H16.2762V45.1039C16.2762 45.2516 16.3478 45.3393 16.4984 45.3393H16.6651V45.6858H16.4224H16.4238Z" fill="#231815"/>
<path d="M19.3598 45.6858V44.4488C19.3598 44.1433 19.1814 44.0073 18.9548 44.0073C18.7282 44.0073 18.5454 44.1462 18.5454 44.4488V45.6858H18.1404V42.8536H18.5454V43.8713C18.6843 43.7207 18.8671 43.6447 19.0659 43.6447C19.5148 43.6447 19.7663 43.9473 19.7663 44.3845V45.6858H19.3613H19.3598Z" fill="#231815"/>
<path d="M20.6887 44.7954C20.6887 45.1419 20.8715 45.3598 21.2019 45.3598C21.4286 45.3598 21.5485 45.2969 21.6917 45.1536L21.9505 45.3963C21.7444 45.6025 21.5485 45.7107 21.1946 45.7107C20.6902 45.7107 20.2881 45.4446 20.2881 44.677C20.2881 44.0248 20.6258 43.6461 21.1434 43.6461C21.661 43.6461 21.9988 44.0438 21.9988 44.617V44.7954H20.6902H20.6887ZM21.5397 44.2383C21.4768 44.0877 21.3335 43.9839 21.142 43.9839C20.9504 43.9839 20.8042 44.0877 20.7399 44.2383C20.7004 44.3304 20.6916 44.3889 20.6887 44.5132H21.5952C21.5909 44.3904 21.5792 44.3304 21.5397 44.2383Z" fill="#231815"/>
<path d="M23.622 45.6858V45.5031C23.4743 45.6507 23.3354 45.7092 23.0854 45.7092C22.8354 45.7092 22.6672 45.6493 22.5444 45.5265C22.4406 45.4197 22.385 45.2633 22.385 45.0922C22.385 44.7544 22.619 44.5117 23.081 44.5117H23.6147V44.3684C23.6147 44.114 23.4875 43.9912 23.1731 43.9912C22.9509 43.9912 22.8427 44.0424 22.7315 44.1857L22.4654 43.9356C22.657 43.7134 22.8558 43.6447 23.1892 43.6447C23.7419 43.6447 24.0212 43.8786 24.0212 44.3363V45.6844H23.6234L23.622 45.6858ZM23.6132 44.7954H23.1395C22.9011 44.7954 22.7769 44.9021 22.7769 45.0863C22.7769 45.2706 22.8924 45.3729 23.1468 45.3729C23.3018 45.3729 23.4173 45.3612 23.524 45.2574C23.584 45.1975 23.6118 45.1024 23.6118 44.9591V44.7968L23.6132 44.7954Z" fill="#231815"/>
<path d="M25.7538 44.1433C25.6617 44.0511 25.5901 44.0087 25.4511 44.0087C25.2318 44.0087 25.0491 44.1842 25.0491 44.462V45.6873H24.644V43.671H25.0417V43.8903C25.1456 43.747 25.3517 43.6476 25.5784 43.6476C25.7728 43.6476 25.9205 43.6988 26.0594 43.8391L25.7538 44.1447V44.1433Z" fill="#231815"/>
<path d="M26.9907 45.6858C26.6135 45.6858 26.4381 45.4153 26.4381 45.1244V44.0146H26.207V43.7046H26.4381V43.092H26.8431V43.7046H27.2335V44.0146H26.8431V45.1039C26.8431 45.2516 26.9147 45.3393 27.0653 45.3393H27.232V45.6858H26.9893H26.9907Z" fill="#231815"/>
<path d="M28.1836 46.3029V45.2253H28.6456V45.9242L28.1836 46.3029Z" fill="#231815"/>
<path d="M30.6708 45.7092C30.3404 45.7092 30.0625 45.6537 29.8242 45.4183L30.0903 45.1521C30.2541 45.3188 30.4719 45.3627 30.6708 45.3627C30.9179 45.3627 31.1124 45.275 31.1124 45.0849C31.1124 44.9489 31.0363 44.8626 30.8419 44.8466L30.5202 44.8188C30.1415 44.7866 29.9236 44.6155 29.9236 44.2617C29.9236 43.8684 30.2614 43.6447 30.684 43.6447C30.9866 43.6447 31.2454 43.7075 31.4311 43.8713L31.1767 44.1301C31.0495 44.0234 30.8711 43.9824 30.6796 43.9824C30.4369 43.9824 30.314 44.0892 30.314 44.2412C30.314 44.3611 30.3784 44.4518 30.5918 44.4722L30.9106 44.5C31.2878 44.5322 31.5115 44.7106 31.5115 45.0688C31.5115 45.4899 31.1533 45.7092 30.6723 45.7092" fill="#231815"/>
<path d="M33.225 45.6858V44.4488C33.225 44.1433 33.0467 44.0073 32.82 44.0073C32.5934 44.0073 32.4106 44.1462 32.4106 44.4488V45.6858H32.0056V42.8536H32.4106V43.8713C32.5495 43.7207 32.7323 43.6447 32.9312 43.6447C33.38 43.6447 33.6315 43.9473 33.6315 44.3845V45.6858H33.2265H33.225Z" fill="#231815"/>
<path d="M34.4592 43.2747C34.3159 43.2747 34.196 43.1548 34.196 43.0116C34.196 42.8683 34.3159 42.7498 34.4592 42.7498C34.6025 42.7498 34.7224 42.8697 34.7224 43.0116C34.7224 43.1534 34.6025 43.2747 34.4592 43.2747ZM34.256 43.6695H34.661V45.6858H34.256V43.6695Z" fill="#231815"/>
<path d="M36.5356 45.6858V44.4562C36.5356 44.1418 36.3572 44.0073 36.1306 44.0073C35.9039 44.0073 35.7124 44.1462 35.7124 44.4562V45.6858H35.3074V43.6695H35.7051V43.8728C35.844 43.7222 36.0399 43.6461 36.2417 43.6461C36.4435 43.6461 36.6189 43.7134 36.7388 43.8289C36.8938 43.9795 36.9421 44.171 36.9421 44.3977V45.6858H36.537H36.5356Z" fill="#231815"/>
<path d="M38.1997 46.0879C38.1602 46.199 38.112 46.2795 38.052 46.3379C37.9409 46.4491 37.7932 46.4856 37.6383 46.4856H37.4745V46.1201H37.5783C37.7494 46.1201 37.8093 46.0689 37.8693 45.9051L37.9804 45.5908L37.2771 43.6695H37.707L38.188 45.0893L38.6574 43.6695H39.0916L38.2012 46.0879H38.1997Z" fill="#231815"/>
<path d="M40.925 45.6858C40.5434 45.6858 40.3723 45.427 40.3723 45.1287V42.8536H40.7773V45.1054C40.7773 45.2603 40.8329 45.3408 40.9967 45.3408H41.175V45.6873H40.925V45.6858Z" fill="#231815"/>
<path d="M41.8242 43.2747C41.6809 43.2747 41.561 43.1548 41.561 43.0116C41.561 42.8683 41.6809 42.7498 41.8242 42.7498C41.9675 42.7498 42.0874 42.8697 42.0874 43.0116C42.0874 43.1534 41.9675 43.2747 41.8242 43.2747ZM41.621 43.6695H42.026V45.6858H41.621V43.6695Z" fill="#231815"/>
<path d="M43.1402 44.0161V45.6873H42.7352V44.0161H42.5042V43.7061H42.7352V43.3961C42.7352 43.1051 42.9106 42.8346 43.2879 42.8346H43.5423V43.1812H43.3639C43.2133 43.1812 43.1416 43.2689 43.1416 43.4151V43.7061H43.5437V44.0161H43.1416H43.1402Z" fill="#231815"/>
<path d="M44.206 44.7954C44.206 45.1419 44.3888 45.3598 44.7193 45.3598C44.9459 45.3598 45.0658 45.2969 45.2091 45.1536L45.4679 45.3963C45.2617 45.6025 45.0658 45.7107 44.7119 45.7107C44.2075 45.7107 43.8054 45.4446 43.8054 44.677C43.8054 44.0248 44.1432 43.6461 44.6608 43.6461C45.1784 43.6461 45.5161 44.0438 45.5161 44.617V44.7954H44.2075H44.206ZM45.0585 44.2383C44.9956 44.0877 44.8523 43.9839 44.6608 43.9839C44.4692 43.9839 44.323 44.0877 44.2587 44.2383C44.2192 44.3304 44.2104 44.3889 44.2075 44.5132H45.114C45.1097 44.3904 45.098 44.3304 45.0585 44.2383Z" fill="#231815"/>
</svg>
