<svg width="174" height="50" viewBox="0 0 174 50" fill="none" xmlns="http://www.w3.org/2000/svg">
<path d="M164.713 17.4596C164.713 17.4596 164.709 17.4596 164.704 17.4596H164.695C164.695 17.4596 164.691 17.4596 164.687 17.4596H164.678C164.634 17.4596 164.59 17.464 164.55 17.4684C164.506 17.4684 164.462 17.4772 164.418 17.4817C164.4 17.4817 164.383 17.4861 164.369 17.4861C164.352 17.4861 164.339 17.4861 164.325 17.4905C164.312 17.4905 164.295 17.4949 164.281 17.4949C164.264 17.4949 164.25 17.4949 164.237 17.4949C164.211 17.4949 164.18 17.4993 164.154 17.5037C164.127 17.5037 164.101 17.5125 164.074 17.5169C164.048 17.5169 164.026 17.5213 164.008 17.5257C163.991 17.5301 163.969 17.5301 163.951 17.5345H163.779C163.779 17.5345 163.783 17.5213 163.783 17.5169C163.783 17.5081 163.783 17.5037 163.788 17.4993C163.788 17.4949 163.788 17.4861 163.788 17.4817C163.788 17.4772 163.788 17.4684 163.792 17.4596V17.4156C163.792 17.4156 163.792 17.4068 163.792 17.4024V17.3847C163.792 17.3847 163.792 17.3583 163.792 17.3451C163.792 17.3319 163.792 17.3186 163.788 17.3098C163.788 17.2966 163.783 17.2834 163.783 17.2702C163.783 17.257 163.779 17.2437 163.775 17.2349L166.022 17.2261H166.193C166.193 17.2261 166.189 17.2481 166.189 17.2526C166.189 17.2614 166.189 17.2658 166.185 17.2702C166.185 17.2746 166.18 17.2834 166.18 17.2878V17.3054C166.18 17.3054 166.176 17.3231 166.176 17.3275C166.176 17.3319 166.176 17.3407 166.176 17.3451V17.42C166.176 17.42 166.176 17.4464 166.176 17.4596C166.176 17.4728 166.18 17.4817 166.185 17.4949C166.185 17.5081 166.193 17.5213 166.193 17.5345H166.022C165.92 17.5169 165.823 17.5037 165.731 17.4905C165.638 17.4773 165.546 17.4684 165.462 17.4596C165.422 17.4552 165.387 17.4508 165.352 17.4508C165.317 17.4508 165.286 17.4508 165.255 17.4464V20.1824H165.066C165.066 20.1824 165.052 20.1824 165.048 20.1824C165.039 20.1824 165.03 20.1824 165.026 20.1824C165.017 20.1824 165.013 20.1824 165.008 20.1824H164.991C164.991 20.1824 164.955 20.1868 164.938 20.1868C164.92 20.1868 164.903 20.1868 164.885 20.1868H164.713V17.4464V17.4596Z" fill="#231815"/>
<path d="M166.837 17.2481H167.141L168.234 19.3365L169.357 17.2481H169.665L170 20.2044H169.828C169.828 20.2044 169.793 20.2044 169.776 20.2044C169.758 20.2044 169.745 20.2044 169.727 20.2H169.71C169.71 20.2 169.696 20.2 169.692 20.2C169.692 20.2 169.688 20.2 169.683 20.2H169.674C169.674 20.2 169.639 20.2044 169.621 20.2044C169.604 20.2044 169.582 20.2044 169.56 20.2044H169.388L169.212 18.2703L168.247 20.1383H168.009L167.079 18.3099L166.903 20.2088H166.731C166.731 20.2088 166.714 20.2088 166.705 20.2088C166.696 20.2088 166.683 20.2088 166.674 20.2044H166.661C166.661 20.2044 166.656 20.2044 166.652 20.2044C166.643 20.2044 166.634 20.2044 166.626 20.2044H166.427L166.833 17.2481H166.837Z" fill="#231815"/>
<path d="M106.862 7.04881L106.02 12.3622H107.756L106.862 7.04881Z" fill="#231815"/>
<path d="M101.707 7.52023L103.258 12.6221L104.993 12.4415L101.707 7.52023Z" fill="#231815"/>
<path d="M111.989 7.52023L110.439 12.6221L108.703 12.4415L111.989 7.52023Z" fill="#231815"/>
<path d="M107.597 13.7279C107.597 14.1333 107.266 14.4637 106.861 14.4637C106.456 14.4637 106.125 14.1333 106.125 13.7279C106.125 13.3226 106.456 12.9922 106.861 12.9922C107.266 12.9922 107.597 13.3226 107.597 13.7279Z" fill="#231815"/>
<path d="M109.91 13.9394C109.91 14.3448 109.58 14.6752 109.175 14.6752C108.769 14.6752 108.439 14.3448 108.439 13.9394C108.439 13.5341 108.769 13.2037 109.175 13.2037C109.58 13.2037 109.91 13.5341 109.91 13.9394Z" fill="#231815"/>
<path d="M105.253 13.9394C105.253 14.3448 104.923 14.6752 104.517 14.6752C104.112 14.6752 103.781 14.3448 103.781 13.9394C103.781 13.5341 104.112 13.2037 104.517 13.2037C104.923 13.2037 105.253 13.5341 105.253 13.9394Z" fill="#231815"/>
<path d="M104.103 15.3625L104.39 16.3582C104.39 16.3582 106.967 16.041 109.205 16.4111L109.575 15.3581C109.575 15.3581 106.579 14.8602 104.108 15.3581L104.103 15.3625Z" fill="#231815"/>
<path d="M12.8949 18.1073C13.8729 18.1469 14.7277 18.2747 15.4634 18.4906C16.1948 18.7021 16.7984 19.0149 17.2698 19.4202C17.7412 19.8255 18.0893 20.3322 18.3272 20.9314C18.5607 21.5306 18.6796 22.2179 18.6796 22.9933V23.0858L18.7105 23.2092V23.4515C18.7105 24.3899 18.5651 25.1918 18.2699 25.8614C17.9747 26.5311 17.5474 27.1039 16.979 27.5709C16.4107 28.0203 15.8159 28.3948 15.1903 28.6988C14.5647 29.0028 13.9082 29.2363 13.2253 29.3993C12.9698 29.461 12.723 29.505 12.4763 29.5359C12.2296 29.5667 11.9917 29.6019 11.7582 29.6416C11.5247 29.6636 11.2956 29.6768 11.0709 29.6857C10.8462 29.6945 10.6259 29.6989 10.41 29.6989L9.23808 29.668C9.06185 29.6901 8.89443 29.6989 8.74023 29.6989C8.58603 29.6989 8.42742 29.6901 8.26881 29.668V39.255H7.09688C6.97792 39.255 6.86778 39.2506 6.75763 39.2418C6.6519 39.233 6.54616 39.2153 6.44923 39.1977H6.30384C6.18489 39.2197 6.06593 39.233 5.93816 39.2418C5.81039 39.2506 5.66941 39.255 5.5108 39.255H4.33887V18.0985H12.9037L12.8949 18.1073ZM9.87251 28.2141C10.5774 28.2538 11.2031 28.1569 11.7494 27.9233C12.2957 27.6898 12.7671 27.3506 13.1592 26.9012C13.5513 26.4342 13.8597 25.9452 14.0844 25.4341C14.3091 24.9274 14.4501 24.3855 14.5118 23.8172V23.7555C14.5118 23.7555 14.5206 23.7158 14.5426 23.6938V23.3281C14.5426 22.7994 14.4633 22.306 14.3091 21.8478C14.1505 21.3896 13.917 20.9578 13.6042 20.5481C13.2914 20.1428 12.8993 19.8344 12.4323 19.6317C11.9608 19.429 11.4145 19.3277 10.7889 19.3277L11.9608 19.2969H11.7538L11.6348 19.3277H10.3439L8.26 19.2969V28.2097H9.87251V28.2141Z" fill="#231815"/>
<path d="M28.0866 17.865H29.9635L39.1319 39.2682H36.9158C36.8673 39.2682 36.8233 39.2594 36.7836 39.2373H36.5149C36.4752 39.2594 36.4312 39.2682 36.3827 39.2682H34.6424L31.3689 30.84H25.2978L22.2622 39.2682H20.8039L20.6541 39.2373C20.6541 39.2373 20.6056 39.2682 20.566 39.2682H18.72L28.0954 17.865H28.0866ZM30.8843 29.4037L28.4435 23.4206L26.0027 29.4037H30.8843Z" fill="#231815"/>
<path d="M44.3262 18.1073H46.9344L59.9711 32.8842V18.1073H61.1562C61.1959 18.169 61.2443 18.2086 61.306 18.2307C61.3633 18.2527 61.425 18.2703 61.4822 18.2923C61.5615 18.2703 61.632 18.2527 61.6893 18.2307C61.7466 18.2086 61.7994 18.191 61.8391 18.169L63.0243 18.1381V39.2638H60.6848L47.3838 24.0286V39.2638H46.0797C46.04 39.2638 46.0092 39.2594 45.9916 39.2506C45.9695 39.2418 45.9519 39.2373 45.9343 39.2373H45.8285C45.7977 39.2373 45.7625 39.2462 45.7228 39.2682H44.3306V18.1117L44.3262 18.1073Z" fill="#231815"/>
<path d="M81.2063 18.1073C82.9334 18.1469 84.3917 18.4157 85.5857 18.918C86.7796 19.4158 87.7181 20.156 88.401 21.1296C89.0838 22.1077 89.5949 23.1695 89.9342 24.3194C90.2734 25.4693 90.4452 26.7074 90.4452 28.0291C90.4452 28.3551 90.432 28.6899 90.4012 29.038C90.3703 29.3861 90.3263 29.7517 90.2646 30.135C90.2029 30.5227 90.128 30.9016 90.0399 31.2805C89.9474 31.6594 89.8328 32.0383 89.6918 32.426C89.3923 33.2411 88.9825 34.0297 88.4714 34.7919C87.9604 35.5541 87.3436 36.2943 86.621 37.0036C85.8985 37.6953 85.0041 38.2372 83.9423 38.6205C82.8805 39.0083 81.6557 39.2197 80.2723 39.2638H70.28V18.1073H81.2063ZM74.3466 19.5744V37.8319C74.5889 37.8716 74.8224 37.9024 75.0559 37.9244C75.285 37.9465 75.5141 37.9641 75.7344 37.9861H76.034C76.0956 38.0081 76.1485 38.017 76.2014 38.017H76.338C77.9637 37.9773 79.3779 37.7746 80.5807 37.4046C81.7835 37.0389 82.7572 36.5102 83.5017 35.8185C84.286 35.0871 84.9028 34.087 85.3522 32.827C85.8016 31.5669 86.0791 30.0469 86.1804 28.2758V28.1524C86.1804 28.1128 86.1893 28.0731 86.2113 28.0291V27.3286C86.2113 25.9452 86.0351 24.7732 85.6826 23.8172C85.3301 22.8611 84.8058 22.1077 84.1009 21.557C83.4004 21.0063 82.6602 20.5613 81.8892 20.2132C81.1182 19.8652 80.3076 19.6317 79.4661 19.5127C79.3647 19.4907 79.2634 19.4775 79.1665 19.4687C79.0651 19.4599 78.9638 19.4555 78.8669 19.4555C78.7479 19.4334 78.6378 19.4202 78.5364 19.4114C78.4351 19.4026 78.3338 19.3982 78.2368 19.3982C78.1752 19.3982 78.1179 19.3938 78.0562 19.385C77.9945 19.3762 77.9461 19.3718 77.9064 19.3718H77.1839C77.1046 19.3718 77.0341 19.3762 76.9724 19.385C76.9107 19.3938 76.8534 19.3982 76.7918 19.3982C76.5715 19.4202 76.36 19.4334 76.1617 19.4422C75.9591 19.4511 75.7696 19.4687 75.589 19.4863C75.448 19.5083 75.3202 19.5215 75.1969 19.5304C75.0779 19.5392 74.9678 19.5436 74.8664 19.5436C74.7651 19.5656 74.6726 19.5788 74.5801 19.5876C74.4919 19.5964 74.4126 19.6008 74.3554 19.6008V19.57L74.3466 19.5744Z" fill="#231815"/>
<path d="M94.957 27.9542V27.6943C94.957 27.5929 94.9614 27.4916 94.9702 27.3903C94.9791 27.2889 94.9967 27.1876 95.0143 27.0863C95.1333 25.8659 95.4549 24.6895 95.9836 23.5617C96.5123 22.4338 97.248 21.35 98.1865 20.3102C99.1073 19.2704 100.244 18.495 101.597 17.9751C102.949 17.4553 104.518 17.1953 106.297 17.1953L107.474 17.1645C109.276 17.2438 110.818 17.4993 112.104 17.9267C113.386 18.354 114.422 18.9841 115.206 19.8212C115.99 20.6362 116.633 21.4909 117.131 22.3853C117.629 23.2797 117.99 24.2181 118.206 25.1918C118.246 25.3151 118.272 25.4341 118.294 25.5575C118.312 25.6808 118.334 25.791 118.352 25.8923C118.369 26.0157 118.391 26.1346 118.409 26.258C118.427 26.3813 118.449 26.5003 118.466 26.6237C118.506 26.866 118.528 27.1083 118.541 27.3418C118.55 27.5753 118.568 27.8044 118.585 28.0291V28.3948C118.585 30.1042 118.308 31.6242 117.748 32.9592C117.189 34.2941 116.343 35.4352 115.206 36.3957C114.069 37.3737 112.858 38.0963 111.576 38.5633C110.294 39.0303 108.937 39.2638 107.505 39.2638H105.83C105.575 39.2638 105.324 39.2594 105.081 39.2506C104.835 39.2418 104.588 39.2153 104.333 39.1757C104.077 39.1537 103.821 39.114 103.57 39.0523C103.315 38.9907 103.059 38.929 102.808 38.8673C101.83 38.6426 100.887 38.2549 99.9884 37.7086C99.0852 37.1578 98.2261 36.4661 97.4022 35.6335C96.5784 34.8008 95.966 33.7654 95.565 32.5362C95.1641 31.307 94.9614 29.8839 94.9614 28.2758V27.9542H94.957ZM99.1601 28.245C99.1601 29.8311 99.3496 31.2321 99.7329 32.4437C100.116 33.6553 100.698 34.6862 101.482 35.5409C102.187 36.3163 102.984 36.9155 103.879 37.3429C104.769 37.7703 105.756 38.0126 106.831 38.0743C107.831 38.0126 108.747 37.7703 109.58 37.3429C110.412 36.9155 111.161 36.3163 111.827 35.5409C112.571 34.6862 113.157 33.6465 113.589 32.4261C114.021 31.2057 114.294 29.8222 114.413 28.2758V27.7868C114.413 26.4651 114.223 25.2447 113.84 24.1212C113.457 23.0021 112.884 21.9932 112.122 21.0988C111.395 20.2838 110.58 19.6537 109.668 19.2043C108.756 18.755 107.751 18.5038 106.654 18.4422C105.694 18.5038 104.83 18.7109 104.068 19.0678C103.302 19.4246 102.658 19.9269 102.13 20.5789C101.544 21.3103 101.046 22.0769 100.645 22.8699C100.244 23.663 99.9267 24.4869 99.6888 25.3416C99.6315 25.6059 99.5699 25.8615 99.5126 26.1038C99.4553 26.3461 99.4069 26.5928 99.3672 26.8351C99.3276 27.0775 99.2923 27.3242 99.2659 27.5665C99.235 27.8088 99.2042 28.0467 99.1645 28.267V28.2362L99.1601 28.245Z" fill="#231815"/>
<path d="M124.145 18.1073H133.058C134.102 18.1469 135.019 18.2923 135.803 18.5347C136.587 18.777 137.23 19.1338 137.733 19.6053C138.235 20.0943 138.609 20.6406 138.861 21.2398C139.112 21.839 139.235 22.4954 139.235 23.2092C139.235 23.9229 139.134 24.5265 138.935 25.086C138.737 25.6456 138.429 26.1302 138.01 26.5355C137.614 26.9409 137.191 27.2977 136.741 27.6061C136.292 27.9101 135.825 28.1568 135.345 28.3375C135.116 28.4168 134.891 28.5005 134.671 28.5798C134.45 28.6635 134.226 28.7208 133.997 28.7648C133.785 28.8265 133.578 28.8706 133.371 28.9014C133.159 28.9323 132.974 28.9587 132.807 28.9763L141.218 39.2638H139.728C139.654 39.2638 139.574 39.255 139.495 39.233C139.411 39.233 139.332 39.2285 139.261 39.2197C139.187 39.2109 139.12 39.1933 139.059 39.1757H138.587C138.587 39.1757 138.543 39.2065 138.526 39.2065H138.433C138.288 39.2286 138.134 39.2418 137.979 39.2506C137.821 39.2594 137.662 39.2638 137.495 39.2638H136.239L128.362 29.4654V39.2638H126.916C126.855 39.2638 126.789 39.255 126.727 39.233H126.648C126.617 39.233 126.59 39.2241 126.568 39.2021C126.524 39.2021 126.494 39.1977 126.476 39.1889C126.454 39.1801 126.423 39.1757 126.383 39.1757H126.291C126.291 39.1757 126.247 39.2065 126.229 39.2065H126.168C126.04 39.2286 125.916 39.2418 125.789 39.2506C125.665 39.2594 125.537 39.2638 125.414 39.2638H124.158V18.1073H124.145ZM128.507 28.0467C128.569 28.0555 128.635 28.0599 128.696 28.0599C129.489 28.0379 130.203 27.9674 130.829 27.844C131.454 27.7207 131.979 27.54 132.397 27.2933C132.877 27.029 133.283 26.747 133.604 26.4518C133.93 26.1566 134.186 25.8482 134.375 25.5222C134.521 25.2975 134.644 25.0684 134.737 24.8349C134.829 24.6014 134.887 24.3811 134.909 24.1784C134.948 23.9537 134.975 23.7599 134.988 23.5969C134.997 23.4339 135.005 23.3017 135.005 23.2004C135.005 23.099 134.997 22.9889 134.975 22.8655C134.953 22.7422 134.922 22.6012 134.882 22.4382C134.86 22.2751 134.807 22.1121 134.724 21.9491C134.64 21.7861 134.547 21.6143 134.442 21.4292C134.296 21.1649 134.085 20.9094 133.816 20.667C133.543 20.4247 133.23 20.2 132.873 19.9974C132.516 19.7727 132.089 19.6097 131.587 19.5083C131.084 19.407 130.498 19.3541 129.829 19.3541L128.353 19.2924V27.963C128.392 28.0027 128.445 28.0291 128.511 28.0379L128.507 28.0467Z" fill="#231815"/>
<path d="M152.866 17.865H154.761L164.026 39.2682H161.784C161.735 39.2682 161.687 39.2594 161.647 39.2373H161.378C161.339 39.2594 161.295 39.2682 161.242 39.2682H159.48L156.171 30.84H150.034L146.963 39.2682H145.487L145.337 39.2373C145.337 39.2373 145.289 39.2682 145.245 39.2682H143.381L152.858 17.865H152.866ZM155.695 29.4037L153.228 23.4206L150.761 29.4037H155.695Z" fill="#231815"/>
</svg>
