<svg width="94" height="50" viewBox="0 0 94 50" fill="none" xmlns="http://www.w3.org/2000/svg">
<path d="M58.9058 42.9327C57.8724 42.2549 57.2277 41.3637 56.9196 40.1359H58.5834C58.6948 40.1359 58.7043 40.0672 58.6237 39.9866L58.0573 39.4154C57.9459 39.3087 57.8985 39.3253 57.8155 39.4154L57.4197 39.8302H56.7323V37.9175H58.3559C58.4673 37.9175 58.4839 37.8487 58.4033 37.7752L57.8108 37.2206C57.6994 37.1211 57.652 37.1685 57.5737 37.2585L57.2514 37.6188H56.7323V36.6162L56.8698 36.4148C56.9243 36.3342 56.9338 36.2986 56.8343 36.2654L56.0094 36.0355C55.9407 36.0189 55.9099 36.0403 55.9099 36.1185V37.6212H55.3505C55.3884 37.4529 55.4287 37.2728 55.4643 37.076C55.4761 37.0097 55.5283 36.9599 55.5757 36.9149C55.7345 36.7584 55.7179 36.7537 55.5212 36.6992L54.8006 36.5214C54.7058 36.5001 54.6703 36.5001 54.6703 36.5996C54.6703 36.9244 54.6324 38.2825 54.4096 39.6145C54.3882 39.714 54.4262 39.6951 54.502 39.6216C54.5921 39.5315 54.95 39.1594 55.2747 37.9222H55.9075V39.8349H54.2057C54.1702 39.8349 54.1583 39.8539 54.1797 39.8894L54.265 40.0696C54.2958 40.1336 54.3219 40.1383 54.3977 40.1383H55.4145C55.0495 41.5083 54.4688 42.7313 53.5871 43.8287C53.4425 44.0159 53.5231 44.0207 53.6938 43.9211C54.0422 43.7196 55.2012 42.7218 55.9075 41.1148V44.6535C55.9075 44.7388 55.9288 44.7436 56.0023 44.727L56.5783 44.5942C56.7157 44.5682 56.7323 44.5089 56.7323 44.362V40.7569C57.0381 42.7242 58.2184 43.9401 58.2184 43.9401C58.446 43.4708 58.6474 43.2622 58.8655 43.0821C58.9769 42.992 58.9769 42.9825 58.9034 42.9351L58.9058 42.9327Z" fill="#08287E"/>
<path d="M54.0729 41.7808C53.8217 41.9396 53.5799 42.0866 53.3382 42.2312V39.6406H54.2033C54.3147 39.6406 54.336 39.5979 54.2673 39.5078L53.8596 39.0054C53.7648 38.8845 53.7032 38.9106 53.6155 39.0006L53.3571 39.2732H53.3382V37.2325H54.3005C54.4118 37.2325 54.4427 37.1685 54.3692 37.0903L53.8525 36.5191C53.7458 36.4077 53.715 36.4219 53.6297 36.5191L53.3334 36.8675H51.6198C51.5819 36.8675 51.5653 36.8841 51.5819 36.922L51.6672 37.159C51.6885 37.2277 51.7241 37.2348 51.7999 37.2348H52.5157V39.2756H51.6056C51.5676 39.2756 51.5605 39.2922 51.5676 39.3301L51.653 39.5695C51.6767 39.6358 51.7146 39.6429 51.7833 39.6429H52.5133V42.6934C52.2716 42.8214 52.0251 42.9446 51.7667 43.0607C51.6814 43.1058 51.6767 43.12 51.7075 43.2101L52.0037 43.9709C52.0417 44.0704 52.0725 44.0823 52.1365 44.0041C52.2645 43.85 52.3356 43.7742 52.473 43.6675C52.9969 43.2575 53.8264 42.5156 54.1748 41.8591C54.2436 41.7382 54.2175 41.6955 54.0753 41.7856L54.0729 41.7808Z" fill="#08287E"/>
<path d="M36.7112 36.7513C36.7372 36.7987 36.7586 36.8082 36.806 36.8082H41.3117V37.7492H36.9979C36.9411 37.7492 36.9292 37.7705 36.9553 37.8203L37.0833 38.0691C37.1165 38.1213 37.1354 38.1284 37.1828 38.1284H41.314V39.0788H36.6827C36.6211 39.0788 36.6092 39.1002 36.6353 39.1476L36.768 39.3964C36.7941 39.4486 36.8226 39.4557 36.8628 39.4557H41.3164V39.778C41.3164 39.8468 41.3472 39.8681 41.4041 39.8468L42.0014 39.688C42.1389 39.6501 42.1555 39.5979 42.1555 39.4486V36.986L42.3569 36.8367C42.4636 36.7584 42.4873 36.711 42.3782 36.621L41.7454 36.1185C41.698 36.0806 41.6601 36.0711 41.6127 36.1185L41.3259 36.4314H36.6235C36.5666 36.4314 36.5547 36.4574 36.5808 36.5048L36.7135 36.7537L36.7112 36.7513Z" fill="#08287E"/>
<path d="M42.8736 43.8713C42.229 43.703 41.2169 43.3617 40.5722 42.5843C40.4347 42.4184 40.3233 42.2478 40.2285 42.0771C40.9538 41.8164 41.3283 41.5936 41.8876 41.2523C42.0725 41.1361 42.1507 41.1314 42.2313 41.1101C42.3593 41.0769 42.3806 41.0105 42.2598 40.8968L41.5985 40.3066C41.5155 40.226 41.4824 40.2331 41.4302 40.3279C41.2761 40.6242 40.7831 41.3447 40.11 41.8425C39.8043 41.1717 39.7806 40.5555 39.7853 40.3327C39.7877 40.2971 39.79 40.2639 39.7924 40.2284L39.9607 40.0601C40.0389 39.9866 40.0294 39.9487 39.9512 39.9274L39.0008 39.6311C38.9368 39.6074 38.906 39.6216 38.906 39.7164C38.8989 42.2383 38.3039 43.6414 36.294 44.5871C36.1495 44.6559 36.121 44.7744 36.3343 44.7246C38.3419 44.279 39.2496 43.2053 39.6075 41.622C39.7308 42.2691 39.9346 42.8687 40.2688 43.357C40.6646 43.9258 41.1647 44.279 42.0299 44.6487C42.2692 44.3477 42.5229 44.0989 42.8381 44.0301C42.9803 43.9969 43.0159 43.9187 42.8689 43.8761L42.8736 43.8713Z" fill="#08287E"/>
<path d="M37.5762 40.4488C37.5383 40.7166 37.3842 41.0082 37.0832 41.2475C36.9197 41.3755 36.7443 41.468 36.6447 41.7002C36.5334 41.9491 36.6637 42.2715 36.9932 42.3212C37.3368 42.3734 37.6639 42.1198 37.8085 41.6315C37.9412 41.1954 37.8441 40.7545 37.7919 40.5223C37.7445 40.3232 37.607 40.2213 37.5762 40.4488Z" fill="#08287E"/>
<path d="M67.6493 38.7992C67.8602 38.747 68.0617 38.5503 68.1304 38.2611C68.1802 38.0549 68.1873 37.8677 68.1683 37.6923H72.219C72.2877 37.6923 72.3019 37.7184 72.2806 37.8132L72.0531 38.6238C72.0175 38.7494 72.1076 38.766 72.1953 38.683C72.6977 38.2114 72.9205 38.1379 73.3946 38.0099C73.6055 37.9577 73.5937 37.7776 73.442 37.6188L72.8281 36.9789C72.7214 36.8675 72.6527 36.9054 72.565 36.9907L72.1953 37.351H70.3679C70.3679 37.351 70.3868 37.3462 70.3963 37.3391C70.6878 37.2017 70.868 36.7253 70.529 36.4148C70.1972 36.1043 69.7895 35.981 69.4198 35.9194C69.2823 35.8981 69.2231 35.9549 69.3368 36.0426C69.4909 36.1659 69.6971 36.4266 69.7658 36.8177C69.7872 36.9362 69.8204 37.2325 69.9957 37.351H68.0949C68.0522 37.2277 68.0001 37.1116 67.9432 37.0049C67.8413 36.8106 67.7251 36.7679 67.7204 36.9599C67.7085 37.2182 67.609 37.5359 67.372 37.8274C67.2558 37.9696 67.0709 38.1639 67.0804 38.4341C67.0923 38.7186 67.3601 38.8679 67.6516 38.7992H67.6493Z" fill="#08287E"/>
<path d="M73.5531 44.2435L72.8326 43.5253C72.7283 43.421 72.6738 43.4115 72.5956 43.5063L72.1334 44.0681H70.6852V41.5012H72.9606C73.072 41.5012 73.1028 41.4182 73.0293 41.3376L72.4557 40.7522C72.3514 40.6408 72.3206 40.6621 72.2353 40.7522L71.8347 41.1622H70.6828V39.624H73.072C73.1834 39.624 73.2189 39.5339 73.1383 39.4533L72.5505 38.8869C72.4415 38.7826 72.4083 38.7897 72.3254 38.8869L71.9604 39.2827H67.5163C67.4262 39.2827 67.431 39.2922 67.4641 39.3728L67.5305 39.5576C67.5566 39.6193 67.5898 39.624 67.6632 39.624H69.7656V41.1622H67.5945C67.5566 41.1622 67.5518 41.1765 67.5684 41.2144L67.6514 41.4324C67.6822 41.4941 67.7154 41.4988 67.7841 41.4988H69.7656V44.0657H67.1892C67.1513 44.0657 67.1465 44.0823 67.1631 44.1202L67.2461 44.3359C67.2745 44.3999 67.303 44.4046 67.3788 44.4046H73.4844C73.5958 44.4046 73.6313 44.3193 73.5508 44.2411L73.5531 44.2435Z" fill="#08287E"/>
<path d="M71.271 41.9183C71.1501 41.8709 71.0861 41.916 71.1809 42.025C71.3065 42.179 71.4606 42.5061 71.4985 42.928C71.5246 43.2598 71.4938 43.5134 71.6905 43.632C71.8611 43.7315 72.1029 43.6106 72.2333 43.4613C72.4347 43.2338 72.4561 42.9328 72.2664 42.6626C72.0223 42.2975 71.572 42.0345 71.271 41.916V41.9183Z" fill="#08287E"/>
<path d="M22.8669 36.6636C22.8977 36.7158 22.9238 36.7205 22.9664 36.7205H25.685L25.6708 36.7466C25.5001 37.0097 25.2584 37.2941 25.0071 37.5216C24.974 37.4766 24.9313 37.4292 24.8768 37.3913C24.5544 37.1542 24.116 37.0642 23.7936 37.0476C23.6609 37.0357 23.6016 37.095 23.7201 37.1637C23.8884 37.2538 24.1373 37.5098 24.3056 37.8274C24.4004 38.0028 24.4573 38.1213 24.5355 38.19H23.5684L22.9569 37.9743C22.8147 37.9198 22.7863 37.9625 22.7863 38.1094V43.0465C22.7863 43.1295 22.8076 43.1366 22.8811 43.1129L23.4381 42.9636C23.5661 42.9256 23.5803 42.8877 23.5803 42.7408V41.4324H24.4739V43.0015C24.4739 43.0868 24.4928 43.0892 24.5687 43.0702L25.1351 42.9422C25.2679 42.9162 25.2845 42.8522 25.2845 42.7052V42.5203C25.6589 42.6175 25.8367 42.8142 25.8865 43.101C25.9149 43.2764 25.9813 43.2906 26.1401 43.2551C26.8061 43.0868 26.9815 42.9683 26.9815 42.3449V38.6972L27.183 38.555C27.2872 38.4744 27.3157 38.4341 27.2043 38.3441L26.6023 37.8795C26.5525 37.844 26.5122 37.8321 26.4743 37.8795L26.2017 38.19H24.91C24.9716 38.145 25.019 38.0857 25.0498 38.0265C25.0877 37.953 25.1067 37.8677 25.1043 37.7823C25.8723 37.4126 26.2989 37.0381 26.9673 36.8888C27.1308 36.8509 27.1853 36.7513 27.036 36.6233L26.4648 36.1351C26.3273 36.0189 26.2894 36.0142 26.1567 36.1303L25.9102 36.3389H22.746C22.682 36.3389 22.6773 36.3602 22.7033 36.4053L22.8669 36.6589V36.6636ZM23.5779 38.5716H24.4715V39.6121H23.5779V38.5716ZM23.5779 41.0532V39.9937H24.4715V41.0532H23.5779ZM25.2821 39.9937H26.197V41.0532H25.2821V39.9937ZM25.621 42.4469L25.2821 42.4208V41.4324H26.197V42.1079C26.197 42.4729 25.8841 42.4611 25.6186 42.4469H25.621ZM26.197 39.6121H25.2821V38.5716H26.197V39.6121Z" fill="#08287E"/>
<path d="M21.184 37.1969C21.2693 37.5145 21.2788 37.7681 21.4898 37.8487C21.6699 37.9103 21.8856 37.7515 21.9875 37.588C22.1463 37.3344 22.1131 37.0381 21.8856 36.8058C21.5846 36.4953 21.1153 36.301 20.7977 36.237C20.6697 36.2109 20.6104 36.282 20.7218 36.3721C20.8759 36.5001 21.0773 36.7892 21.1816 37.1969H21.184Z" fill="#08287E"/>
<path d="M27.5506 43.6177C27.361 43.6343 27.1524 43.6485 26.8182 43.6699C25.6545 43.7504 24.3627 43.7599 23.4123 43.6343C22.3457 43.4945 22.0684 42.7905 22.0684 42.5464V39.432L22.2485 39.3158C22.3528 39.2519 22.3528 39.1879 22.2651 39.1144L21.7318 38.6688C21.6417 38.5953 21.5991 38.5953 21.5114 38.6854L21.3289 38.8868H20.4638C20.3998 38.8868 20.395 38.9082 20.4282 38.9627L20.587 39.2116C20.6178 39.2661 20.6463 39.2708 20.6913 39.2708H21.2483L21.253 42.5843C21.253 42.8996 21.2246 43.0299 20.9852 43.2029L20.6605 43.4305C20.5396 43.5158 20.5183 43.5111 20.5775 43.6201L21.0539 44.5208C21.08 44.58 21.1085 44.5895 21.1606 44.5089C21.3028 44.2861 21.4403 44.0586 21.5943 43.8121C21.7247 43.6059 21.8195 43.3641 21.8859 43.1105C22.4263 44.362 23.4336 44.4544 24.5926 44.5042C25.5028 44.5468 26.2778 44.5208 27.15 44.5136C27.2283 44.0467 27.3586 43.8998 27.5956 43.7196C27.6596 43.6675 27.6264 43.6082 27.5553 43.6154L27.5506 43.6177Z" fill="#08287E"/>
<path d="M55.1964 9.9565V6.83024L52.4873 5.26355L49.783 6.83024V9.9565L52.4873 11.5208L55.1964 9.9565ZM55.1325 9.92095C55.1135 9.95176 55.0803 9.96361 55.0495 9.95176L53.2742 9.54172C53.26 9.53698 53.2482 9.53224 53.2339 9.52513C53.2031 9.50854 53.1842 9.48009 53.1747 9.44928H53.1771L53.0064 8.80696C52.9946 8.77141 52.9993 8.73586 53.0159 8.70031C53.0348 8.67186 53.0609 8.65053 53.0917 8.64105H53.0941H53.0965L53.7412 8.46566C53.772 8.45855 53.8052 8.46092 53.8383 8.47514C53.8478 8.48225 53.8573 8.49173 53.8668 8.50121L55.1206 9.83325C55.1443 9.85458 55.149 9.89251 55.1325 9.92332V9.92095ZM53.2292 7.27109C53.2292 7.27109 53.2529 7.25924 53.2647 7.25687L55.0448 6.83735C55.0756 6.82787 55.1111 6.84209 55.1277 6.87053C55.1443 6.90134 55.1396 6.9369 55.1135 6.9606L53.8668 8.29027C53.8668 8.29027 53.8478 8.30923 53.836 8.31634C53.8052 8.3353 53.7696 8.33767 53.7412 8.33056L53.1012 8.15754C53.068 8.15043 53.0348 8.12909 53.0135 8.09354C52.9969 8.06273 52.9922 8.02955 52.9993 7.99874H53.0017V7.98925L53.1699 7.34456C53.1794 7.31375 53.1984 7.28531 53.2292 7.26872V7.27109ZM51.89 7.15495L52.4186 5.40576C52.4257 5.37495 52.4565 5.35125 52.4897 5.35125C52.5253 5.35125 52.5537 5.37495 52.5608 5.40813L53.0894 7.15258C53.0917 7.1668 53.0965 7.17865 53.0965 7.19525C53.0965 7.2308 53.0799 7.26161 53.0585 7.28294L52.5869 7.74987C52.5632 7.77594 52.53 7.79253 52.4897 7.79253C52.4565 7.79253 52.4257 7.78068 52.402 7.75698C52.402 7.75698 52.3996 7.75224 52.3973 7.75224L51.9232 7.28057C51.9019 7.25924 51.8877 7.22843 51.8877 7.19287C51.8877 7.17865 51.8877 7.16917 51.8948 7.15495H51.89ZM49.847 6.8729C49.8659 6.84446 49.8991 6.83024 49.9299 6.83972L51.7052 7.25213C51.7194 7.25687 51.7312 7.26161 51.7431 7.26635C51.7739 7.28294 51.7929 7.31138 51.8024 7.3422L51.973 7.98214C51.9872 8.0177 51.9801 8.05562 51.9659 8.0888C51.9469 8.11724 51.9209 8.13858 51.8924 8.15043H51.8829L51.2406 8.32819C51.2098 8.3353 51.1743 8.33293 51.1434 8.31397C51.1363 8.30923 51.1245 8.29975 51.1174 8.29027L49.8659 6.95823C49.8422 6.93453 49.8351 6.89897 49.8517 6.86816L49.847 6.8729ZM51.7502 9.52987C51.7502 9.52987 51.7265 9.53935 51.717 9.54409L49.937 9.96124C49.9038 9.97072 49.8707 9.95887 49.8541 9.92806C49.8375 9.89725 49.8422 9.86169 49.8683 9.84036L51.1126 8.50832C51.1126 8.50832 51.134 8.48936 51.1458 8.48225C51.1766 8.46329 51.2098 8.46092 51.243 8.46803L51.8829 8.64342C51.9185 8.65053 51.9493 8.67186 51.9706 8.70505C51.9872 8.73586 51.9896 8.76904 51.9849 8.79985V8.80696L51.8166 9.45402C51.8071 9.48484 51.7881 9.51091 51.7573 9.53224L51.7502 9.52987ZM52.4186 11.3928L51.8924 9.64601C51.8877 9.63179 51.8853 9.61994 51.8853 9.60572C51.8853 9.57016 51.8995 9.53935 51.9209 9.51565L52.3925 9.04872C52.4162 9.02028 52.4494 9.00606 52.4873 9.00606C52.5253 9.00606 52.5537 9.01791 52.5774 9.03687V9.04161C52.5774 9.04161 52.5821 9.04161 52.5845 9.04635L53.0585 9.51565C53.0799 9.53935 53.0965 9.56779 53.0965 9.60572C53.0965 9.61757 53.0941 9.62942 53.0894 9.64127L52.5584 11.3928C52.5513 11.4236 52.5229 11.4473 52.485 11.4473C52.4518 11.4473 52.4233 11.4236 52.4162 11.3928H52.4186Z" fill="#08287E"/>
<path d="M6.83045 13.9739C5.61218 13.9739 4.34413 13.9479 3.00024 13.9479V19.4728H3.35577C3.58331 17.2163 4.72573 14.7348 7.00821 14.7348H8.78821V29.3706C8.78821 31.2952 7.52017 31.7289 5.84446 31.7289V32.0323H14.6046V31.7289C12.9052 31.7289 11.713 31.3213 11.713 29.3967V14.7348H13.448C15.7328 14.7348 16.9227 17.2163 17.1763 19.4728H17.5318V13.9479C16.1381 13.9479 14.844 13.9739 13.5499 13.9739H6.83045Z" fill="#08287E"/>
<path d="M81.2941 13.7298H81.2681C76.5182 13.7298 73.9893 17.8397 73.9893 22.8835C73.9893 27.9272 76.7908 32.0324 81.2681 32.0324H81.2941C85.9373 32.0324 88.599 27.9248 88.599 22.8835C88.599 17.8421 85.9373 13.7298 81.2941 13.7298ZM81.2941 31.3782H81.2681C78.6538 31.3782 76.9686 27.4982 76.9686 22.8835C76.9686 18.2687 78.4144 14.3627 81.2681 14.3627H81.2941C84.1431 14.3627 85.5723 18.4157 85.5723 23.0257C85.5723 27.6357 83.9416 31.3782 81.2941 31.3782Z" fill="#08287E"/>
<path d="M44.2722 22.9024C43.08 22.0918 41.4564 21.2788 40.1125 20.518C38.9203 19.8591 37.8537 19.2737 37.4745 17.9061C37.2446 17.0196 37.5622 16.0028 38.1571 15.4055C39.283 14.2821 41.3355 14.0877 43.2862 15.6852C44.5045 16.676 45.1634 18.2972 45.417 19.3116H45.6706L45.4928 14.3082C44.3978 14.3532 43.6749 14.2536 41.4137 13.8981C39.3707 13.5781 37.1806 13.7986 35.7775 15.7184C35.0759 16.6783 34.8815 18.1858 35.1849 19.4538C35.6684 21.4068 37.2138 22.3454 38.9156 23.2603C40.2595 23.9951 41.6792 24.68 42.8453 25.4646C44.4973 26.5809 44.8126 28.9867 43.4308 30.5391C42.6723 31.3948 41.409 31.8024 39.7902 31.4208C38.0813 31.0179 36.0927 29.3114 35.2371 27.2446H34.9692L35.3153 31.7527C37.1925 31.601 38.4178 32.1982 40.5249 32.3002C42.5799 32.4021 44.5637 31.9186 45.7464 30.3069C47.5738 27.8111 46.8865 24.6777 44.2769 22.9L44.2722 22.9024Z" fill="#08287E"/>
<path d="M71.5551 28.9393C70.2088 27.2256 69.1801 25.2607 68.3221 23.7557C73.6645 21.9164 73.2687 14.1683 65.9259 13.8318H65.1674C62.6551 13.9337 61.5055 13.9503 59.7563 13.9503H57.7654V14.2797C59.415 14.2797 60.4532 14.685 60.4532 16.6143V29.373C60.4532 31.0464 59.5146 31.7313 57.9692 31.7313V32.0347H65.7576V31.7313C64.2597 31.7313 63.2192 31.172 63.2192 29.3991V24.1231C64.1601 24.2795 65.0015 24.3174 65.7458 24.3056C66.7839 26.0524 67.6561 28.1002 69.0024 29.9181C69.5357 30.6505 70.2207 31.5441 70.8037 32.0276H75.7621L75.7669 31.7313C74.1409 31.6673 72.7757 30.4372 71.5551 28.9416V28.9393ZM66.7294 23.2058C66.554 23.284 66.3762 23.3599 66.1748 23.3836C65.1603 23.6111 63.7264 23.4594 63.2192 23.028V14.7609C64.1814 14.5807 65.312 14.557 66.1748 14.7348C67.8457 15.1164 69.064 16.3844 69.0142 19.3258C68.9384 21.4566 68.0496 22.6488 66.7294 23.2058Z" fill="#08287E"/>
<path d="M48.3391 14.2797C49.9888 14.2797 51.0293 14.685 51.0293 16.6143V23.1702C51.0293 25.0972 49.9888 25.5309 48.3391 25.5309V25.8319H56.6371V25.5309C54.9377 25.5309 53.9493 25.1232 53.9493 23.1939V16.5882C53.9493 14.6613 54.9377 14.2797 56.6371 14.2797V13.9502H48.3391V14.2797Z" fill="#08287E"/>
<path d="M33.161 27.2398H32.9974C31.8313 30.103 29.902 31.2454 26.8587 31.2454H25.6712C25.2422 31.2454 24.8085 31.2193 24.1496 31.0914V22.9261H26.7591C28.6363 22.9261 29.7005 23.841 29.9043 25.7158H30.158V19.3756H29.9043C29.7029 21.2006 28.6126 22.1392 26.7354 22.1392H24.1519V14.7585C25.1261 14.7205 26.3562 14.7087 27.3801 14.7158C29.7147 14.7348 31.362 15.5525 31.6678 17.989H31.9261V13.955L25.1498 13.9668H18.5488V14.2749C20.5279 14.2749 21.2627 14.858 21.2627 16.8371V29.4654C21.2627 31.5204 20.0183 31.7242 18.5488 31.7242V32.0276H32.2413L33.3316 27.2422H33.1681V27.2374L33.161 27.2398Z" fill="#08287E"/>
<path d="M89.9218 13.4549C89.8839 13.4051 89.827 13.3624 89.7606 13.3245C89.8957 13.3056 89.9953 13.2558 90.0593 13.1823C90.1256 13.1112 90.1612 13.0164 90.1612 12.9003C90.1612 12.8102 90.1375 12.7296 90.0948 12.6585C90.0474 12.5874 89.9881 12.54 89.9218 12.5139C89.8459 12.4831 89.7274 12.4713 89.5663 12.4713H88.9192V13.9929H89.2297V13.3577H89.2889C89.3577 13.3577 89.4074 13.3624 89.4477 13.3743C89.4762 13.3885 89.5094 13.4075 89.5378 13.4383C89.5686 13.4667 89.6184 13.5449 89.7014 13.6611L89.9241 13.9929H90.2868L90.1019 13.6966C90.0284 13.5781 89.9739 13.4975 89.9241 13.4525L89.9218 13.4549ZM89.4549 13.1183H89.2273V12.7343H89.4643C89.5876 12.7343 89.6611 12.7343 89.6895 12.7391C89.7369 12.7462 89.7725 12.7675 89.8056 12.796C89.8293 12.8315 89.8459 12.8694 89.8459 12.9192C89.8459 12.9642 89.8317 13.0022 89.8128 13.0354C89.789 13.0638 89.763 13.0851 89.7274 13.1017C89.6942 13.1136 89.5994 13.1159 89.4549 13.1159V13.1183Z" fill="#08287E"/>
<path d="M89.5095 11.746C88.6918 11.746 88.0234 12.4144 88.0234 13.2345C88.0234 14.0545 88.6918 14.7229 89.5095 14.7229C90.3273 14.7229 91.0004 14.0522 91.0004 13.2345C91.0004 12.4167 90.3344 11.746 89.5095 11.746ZM89.5095 14.493C88.8222 14.493 88.2581 13.9289 88.2581 13.2345C88.2581 12.54 88.8222 11.9735 89.5095 11.9735C90.1969 11.9735 90.7705 12.54 90.7705 13.2345C90.7705 13.9289 90.2064 14.493 89.5095 14.493Z" fill="#08287E"/>
</svg>
