<svg width="182" height="50" viewBox="0 0 182 50" fill="none" xmlns="http://www.w3.org/2000/svg">
<path d="M12.6025 19.8442V30.5566C12.6025 31.4342 12.5178 32.0501 12.3407 32.4081C12.1752 32.7545 11.8711 33.0432 11.44 33.2742L10.7703 33.6245H18.3609L17.6026 33.2665C17.1908 33.0702 16.8751 32.743 16.6519 32.2849C16.4248 31.8115 16.3016 31.2302 16.3016 30.5566V19.8442H17.3832C18.819 19.8442 20.0315 19.9443 20.9861 20.1252C21.9215 20.3099 22.7683 20.5986 23.4804 20.999L23.9038 21.2338L23.261 19.3014C22.9993 18.5701 22.9531 18.3353 22.9531 18.2583L23.1802 17.2498L22.9608 17.1959L5.72005 17.1767L5.78549 17.4577L5.97025 18.2237C5.97025 18.3045 5.92406 18.5547 5.64692 19.2783L5.00024 21.2376L5.42366 20.9913C6.13192 20.5909 6.9826 20.3022 7.94876 20.1175C8.91877 19.9404 10.1428 19.8365 11.5747 19.8365H12.5948L12.6025 19.8442Z" fill="#1C0B33"/>
<path d="M37.0069 33.6245L37.3495 33.5821L39.7707 33.79C41.064 33.9286 42.1918 34.0017 43.1349 34.0017C45.7485 34.0017 47.8348 33.5206 49.3245 32.589C50.8526 31.6344 51.6186 30.2987 51.6186 28.6243C51.6186 27.7352 51.3607 26.9268 50.8526 26.2301C50.3561 25.5334 49.6093 24.9522 48.6432 24.5056C47.7578 24.0976 46.2066 23.7319 44.0395 23.424L42.75 23.2315C41.7607 23.0737 40.9716 22.812 40.4135 22.4463C39.8861 22.1076 39.6282 21.7303 39.6282 21.2954C39.6282 20.7796 39.9362 20.387 40.5675 20.0636C41.2411 19.7364 42.1726 19.5632 43.3582 19.5632C44.5437 19.5632 45.7062 19.6748 46.7416 19.8981C47.7732 20.106 48.7548 20.4332 49.6594 20.8566L49.8595 20.9566L50.9142 17.0689L50.2175 17.2306L49.975 17.2575L47.2112 17.0304C45.8178 16.8765 44.6361 16.7995 43.7046 16.7995C41.3373 16.7995 39.4127 17.246 37.9769 18.139C36.5258 19.0359 35.7867 20.2176 35.7867 21.6341C35.7867 22.939 36.3756 24.0014 37.542 24.802C38.6698 25.5873 40.4135 26.1454 42.7192 26.4764C44.6284 26.7459 45.9564 27.0846 46.68 27.4811C47.3652 27.866 47.6924 28.3703 47.6924 29.0439C47.6924 29.7175 47.3229 30.2102 46.5761 30.6105C45.8024 31.0301 44.7362 31.2418 43.4043 31.2418C42.0725 31.2418 40.8138 31.0955 39.5282 30.8184C38.2387 30.5451 36.9299 30.1178 35.6443 29.5674L35.2979 29.4173L36.4026 33.8362L37.0108 33.6245H37.0069Z" fill="#1C0B33"/>
<path d="M64.2588 32.3273C64.0664 32.7353 63.7469 33.0548 63.3081 33.2742L62.5959 33.6245H79.19L79.063 32.9201L79.0245 32.5005C79.0245 32.3658 79.1015 32.0425 79.4595 31.2418L80.3563 29.0747L79.8251 29.4442C79.0822 29.9677 78.1584 30.3604 77.0883 30.6183C76.0105 30.8723 74.7287 31.007 73.2891 31.007H68.262V20.1945C68.262 19.494 68.3698 18.9166 68.5738 18.4893C68.774 18.062 69.0858 17.758 69.5169 17.5347L70.2367 17.1844H62.619L63.3042 17.5347C63.743 17.7618 64.051 18.0774 64.2473 18.4932C64.459 18.9166 64.5629 19.4901 64.5629 20.1945V30.6298C64.5629 31.3381 64.459 31.9193 64.255 32.3312L64.2588 32.3273Z" fill="#1C0B33"/>
<path d="M117.726 32.3927V21.6456H116.313C116.001 21.6456 115.605 21.7034 115.139 21.8419L114.646 20.9605H117.726V17.5731L117.549 14.6439C119.142 15.1173 119.943 15.4522 119.943 15.6485C119.943 15.7293 119.851 15.8641 119.67 16.0411C119.496 16.2182 119.408 16.3337 119.408 16.376V20.9566H119.647L120.301 20.0867C120.328 20.0443 120.378 20.0212 120.455 20.0212C120.486 20.0212 120.524 20.0289 120.566 20.0443L121.779 21.2992C121.779 21.5263 121.717 21.6379 121.602 21.6379H119.408V33.2434C119.408 33.9362 118.634 34.6022 117.087 35.2257C117.025 34.6099 116.89 34.1479 116.679 33.8208C116.475 33.4974 115.874 33.1356 114.881 32.7699L114.904 32.3657C115.124 32.3888 115.547 32.4466 116.159 32.5582C116.783 32.6467 117.206 32.6891 117.437 32.6891C117.483 32.6891 117.537 32.6544 117.61 32.5775C117.691 32.4889 117.726 32.4312 117.726 32.3888V32.3927ZM108.896 18.9165L108.938 18.8703L108.784 16.8302C109.315 17.0342 109.943 17.3037 110.662 17.6347C110.943 16.7148 111.144 15.7486 111.259 14.7555C111.594 14.8479 111.936 14.9826 112.291 15.152C112.633 15.3059 112.906 15.4214 113.099 15.4945C113.284 15.5638 113.376 15.6562 113.376 15.7794C113.376 15.8063 113.372 15.8333 113.361 15.8602L113.28 15.9488L112.699 16.1989L111.336 17.7194H112.726L113.284 16.8456C113.33 16.7763 113.384 16.7455 113.457 16.7455C113.488 16.7455 113.792 16.9226 114.361 17.2806C114.935 17.6309 115.224 17.8888 115.224 18.0389C115.224 18.1313 115.108 18.2583 114.877 18.4238C114.662 18.5932 114.554 18.7433 114.554 18.8819V30.2294L114.577 32.054C114.592 32.9354 114.45 33.586 114.142 33.9978C113.834 34.4174 113.222 34.7831 112.298 35.1102C112.16 34.5098 111.975 34.0633 111.756 33.7592C111.528 33.4512 110.951 33.1471 110.039 32.8315C110.039 32.7853 110.054 32.7122 110.073 32.6198C110.097 32.5274 110.112 32.4543 110.112 32.4081C111.213 32.6429 112.052 32.7661 112.625 32.7661C112.849 32.7661 112.964 32.666 112.964 32.4697V28.0392C112.964 27.9892 112.953 27.9622 112.922 27.9622C112.906 27.9622 112.891 27.9622 112.88 27.9776C111.024 30.6798 108.822 32.7584 106.24 34.1941C106.159 34.1556 106.036 34.0517 105.882 33.8785C108.28 32.0886 110.181 29.806 111.578 27.0384H109.408C109.277 27.0384 108.888 27.1115 108.249 27.2617L107.772 26.3725H108.934V19.0589H108.911C108.88 19.1629 108.742 19.2129 108.499 19.2129H103.126C102.537 19.2129 102.013 19.2668 101.567 19.3784L101.005 18.5508H106.166L106.971 17.4577C107.013 17.4038 107.09 17.373 107.213 17.3691C107.275 17.3691 107.56 17.5962 108.064 18.0543C108.568 18.5085 108.834 18.7548 108.849 18.801L108.892 18.9127L108.896 18.9165ZM110.535 20.5409H112.883V18.316H110.535V20.5409ZM110.535 23.3778H112.883V21.2184H110.535V23.3778ZM110.535 26.3802H112.883V24.0552H110.535V26.3802ZM103.715 14.9556L104.03 14.7593C105.454 15.6177 106.159 16.3722 106.159 17.0304C106.159 17.4153 106.047 17.7309 105.835 17.9696C105.616 18.2083 105.393 18.3276 105.162 18.3276C104.889 18.3276 104.704 18.0427 104.611 17.4769C104.384 16.249 104.084 15.406 103.718 14.9595L103.715 14.9556ZM102.194 21.3723H105.566L106.267 20.3292C106.313 20.256 106.378 20.2176 106.474 20.2176C106.578 20.2176 106.879 20.4562 107.379 20.9451C107.883 21.4262 108.141 21.7034 108.141 21.7996C108.141 21.9651 108.068 22.0421 107.914 22.0421H103.799C103.568 22.0421 103.168 22.1114 102.598 22.2422C102.421 21.8419 102.286 21.5494 102.194 21.3723ZM102.263 24.0091H105.551L106.374 22.9082C106.421 22.8658 106.482 22.8312 106.563 22.8312C106.644 22.8312 106.886 23.066 107.306 23.5433C107.725 24.0129 107.937 24.3054 107.937 24.4286C107.937 24.4902 107.922 24.5518 107.899 24.6095L107.768 24.675H104.011C103.726 24.675 103.295 24.7443 102.737 24.8828L102.271 24.0091H102.263ZM114.974 23.5664L115.289 23.4009C116.155 24.3863 116.679 25.0791 116.86 25.4987C117.06 25.9067 117.141 26.2801 117.141 26.6111C117.141 27.073 117.029 27.4464 116.783 27.7159C116.548 27.993 116.336 28.1316 116.14 28.1316C115.832 28.1316 115.67 27.9083 115.659 27.4618C115.643 27.023 115.586 26.3879 115.485 25.568C115.389 24.7366 115.216 24.0706 114.974 23.5664ZM105.909 31.8422H104.176V33.3781C104.176 33.5282 103.949 33.6668 103.484 33.7977C103.025 33.9401 102.775 34.0094 102.729 34.0094C102.575 34.0094 102.498 33.917 102.498 33.7245L102.567 32.7815C102.587 32.4812 102.598 31.7268 102.598 30.5412V28.3702L102.49 25.8913L104.407 26.8536H105.655L106.201 26.0414C106.232 25.9991 106.305 25.976 106.417 25.976C106.497 25.976 106.775 26.1646 107.256 26.5534C107.737 26.9306 107.976 27.1654 107.976 27.254C107.976 27.3386 107.891 27.4503 107.729 27.5773C107.568 27.712 107.483 27.8159 107.483 27.8968V31.9847C107.483 32.2079 107.252 32.3927 106.79 32.5274L106.089 32.7314C106.07 32.7391 106.047 32.7391 106.036 32.7391C105.947 32.7391 105.912 32.6506 105.912 32.4774V31.8384L105.909 31.8422ZM104.176 31.1648H105.909V27.5196H104.176V31.1648Z" fill="#1C0B33"/>
<path d="M144.536 21.7033V20.9874H137.95C137.903 21.0413 137.811 21.1799 137.669 21.4031C137.542 21.6225 137.422 21.7303 137.311 21.7303C137.249 21.7303 136.96 21.5802 136.444 21.2607C135.925 20.945 135.663 20.7449 135.663 20.6718C135.663 20.6294 135.694 20.5871 135.748 20.5486C135.817 20.5139 135.902 20.4177 135.998 20.2714C136.087 20.1136 136.133 20.0366 136.14 20.0289V17.5115C136.14 17.0727 136.083 16.5338 136.002 15.8948C136.479 16.0026 136.976 16.1412 137.48 16.3221C137.988 16.4876 138.238 16.6147 138.238 16.7032C138.238 16.8187 138.165 16.9303 138.011 17.0304C137.857 17.1343 137.78 17.2228 137.78 17.3075V20.3292H140.224V16.0103L140.101 14.4244L142.43 15.0711C142.569 15.1135 142.638 15.1712 142.638 15.2559C142.638 15.4021 142.522 15.5176 142.303 15.6062C142.072 15.7024 141.96 15.7986 141.96 15.9141V20.3292H144.539V17.1689L144.493 15.737C145.991 16.1758 146.745 16.4722 146.745 16.6262C146.745 16.6916 146.649 16.7725 146.456 16.8687C146.279 16.9572 146.179 17.0689 146.179 17.1959V19.363L146.26 21.1799C146.272 21.3223 146.052 21.4916 145.61 21.6687C145.163 21.8496 144.886 21.9304 144.767 21.9304C144.609 21.9304 144.536 21.8612 144.536 21.711V21.7033ZM132.761 24.0745V29.3056L135.193 28.4972L135.428 28.9014C135.159 29.0246 133.985 29.6905 131.918 30.8992L128.977 32.6159C128.904 32.6506 128.865 32.6698 128.865 32.6698C128.761 32.6698 128.657 32.5466 128.557 32.308L127.834 30.6875C128.519 30.5219 129.577 30.2025 131.009 29.7329V24.0706H130.005C129.689 24.0706 129.262 24.1284 128.727 24.2477L128.307 23.3932H131.009V17.8811H129.985C129.67 17.8811 129.196 17.9426 128.577 18.0581L128.196 17.2074H133.173L134.019 15.9526C134.054 15.9025 134.12 15.8794 134.212 15.8794C134.304 15.8794 134.474 16.0026 134.708 16.2567L135.521 17.0881C135.809 17.3883 135.959 17.5924 135.959 17.6963C135.959 17.8195 135.921 17.8811 135.859 17.8811H132.761V23.3932H133.003L133.831 22.2384C133.881 22.1691 133.931 22.1268 133.973 22.1268C134.031 22.1268 134.085 22.1576 134.15 22.223L135.532 23.7396C135.578 23.7819 135.598 23.8474 135.598 23.9359C135.598 24.0244 135.555 24.0706 135.474 24.0706H132.761V24.0745ZM139.959 26.1492H144.493L145.117 25.3563C145.151 25.3101 145.198 25.287 145.24 25.287C145.352 25.287 145.725 25.4794 146.345 25.8759C146.988 26.2493 147.295 26.4648 147.295 26.5226C147.295 26.6111 147.168 26.7112 146.907 26.8344C146.649 26.9422 146.526 27.0653 146.526 27.2193V33.1086C146.526 33.9247 145.748 34.5752 144.197 35.0487C143.866 34.0671 142.988 33.4666 141.556 33.2549L141.695 32.7584C142.538 32.8854 143.227 32.947 143.766 32.947C144.212 32.947 144.497 32.9046 144.609 32.8469C144.72 32.7738 144.782 32.5774 144.782 32.2541V26.8344H143.088V28.9938L143.104 31.4342C143.104 31.6382 142.907 31.8307 142.507 32.0116C142.111 32.1964 141.86 32.2887 141.753 32.2887C141.645 32.2887 141.602 32.2233 141.61 32.1001L141.679 28.836V26.8305H140.244V30.7721L140.317 32.2503C140.328 32.3465 140.136 32.4812 139.747 32.6429C139.37 32.8084 139.1 32.8854 138.943 32.8854C138.873 32.8854 138.843 32.843 138.843 32.7545V26.8344H137.357V30.5874L137.48 33.9324C137.488 34.0786 137.264 34.2749 136.826 34.5098C136.383 34.7523 136.033 34.8754 135.759 34.8754C135.632 34.8754 135.571 34.8177 135.582 34.6984L135.621 30.8992V27.0884L135.559 25.056C136.125 25.3293 136.799 25.695 137.565 26.1492H138.97C139.285 25.5333 139.535 24.725 139.716 23.7434H137.672C137.449 23.7434 136.883 23.8358 135.971 24.0398C135.725 23.5163 135.551 23.1892 135.459 23.0737H144.959L145.725 22.1268C145.933 21.865 146.064 21.7341 146.121 21.7341C146.179 21.7341 146.553 22.019 147.226 22.5887C147.904 23.1545 148.239 23.4894 148.239 23.5818C148.239 23.6973 148.192 23.7473 148.1 23.7473H141.695C140.833 25.0483 140.244 25.8528 139.963 26.1531L139.959 26.1492Z" fill="#1C0B33"/>
<path d="M165.849 21.2876V23.7011C166.115 23.551 166.592 23.039 167.277 22.1576C167.962 21.2761 168.405 20.5139 168.597 19.8788H167.185C167.089 19.8788 166.765 19.9519 166.219 20.0982L165.657 19.3014H169.883V15.3406L169.845 14.5515C171.373 14.9364 172.143 15.2251 172.143 15.4175C172.143 15.4714 172.008 15.6062 171.742 15.7986C171.469 15.9949 171.334 16.1451 171.334 16.2567V19.3014H174.021L174.741 18.2852C174.787 18.2198 174.849 18.1851 174.926 18.1851C175.03 18.1851 175.322 18.4315 175.799 18.9204C176.277 19.4015 176.519 19.671 176.519 19.7441C176.519 19.8326 176.477 19.875 176.388 19.875H172.462C173.586 21.3839 175.103 22.3077 177 22.6272L176.954 23.0121C176.15 23.0121 175.461 23.3123 174.899 23.8974C173.29 23.0275 172.223 21.6764 171.7 19.875H171.334V21.9035L171.411 24.2515C171.427 24.4286 171.18 24.5749 170.68 24.6981L170.052 24.8828C170.029 24.8905 170.006 24.8944 169.987 24.8944C169.895 24.8944 169.848 24.8135 169.848 24.6403L169.887 20.8873C168.925 21.9766 168.005 22.8812 167.115 23.6087L168.663 24.4209C168.709 24.444 168.732 24.5056 168.732 24.6057C168.732 24.6519 168.655 24.7096 168.513 24.7827C168.366 24.8443 168.228 24.9906 168.109 25.1985C167.978 25.4025 167.851 25.6026 167.701 25.8066C167.774 25.8374 167.885 25.8528 168.039 25.8528C168.143 25.8528 168.286 25.8451 168.459 25.8297L168.967 25.1561C168.967 25.1561 168.99 25.133 169.036 25.133C169.152 25.133 169.363 25.2408 169.668 25.4525L170.418 25.9606C170.453 25.9837 170.472 26.0299 170.472 26.103C170.472 26.1839 170.395 26.2647 170.241 26.3455C170.091 26.411 169.983 26.5187 169.914 26.665C169.856 26.8036 169.783 27.0884 169.71 27.5349C169.429 29.0169 168.859 30.3102 167.989 31.4034C167.131 32.5005 166.126 33.3357 164.995 33.8939L163.362 34.7022C163.289 34.6868 163.224 34.6291 163.151 34.5213C163.081 34.4405 163.039 34.3635 163.012 34.3365C164.583 33.3819 165.818 32.3003 166.715 31.0878C167.612 29.8676 168.132 28.6897 168.286 27.5426L168.417 26.4726L167.296 26.4264L166.388 27.7043C167.204 28.1008 167.616 28.5511 167.616 29.0477C167.616 29.2555 167.504 29.4673 167.289 29.6751C167.081 29.883 166.888 29.9831 166.738 29.9831C166.623 29.9831 166.538 29.7713 166.457 29.3287C166.4 28.8937 166.257 28.5127 166.049 28.2163H166.003C165.472 28.836 165.056 29.2863 164.752 29.5596L164.467 29.3518C164.737 28.9284 165.018 28.4511 165.279 27.9237H163.547V31.2957C163.832 31.1763 164.248 30.9531 164.814 30.6182C165.383 30.2756 165.784 30.0485 166.03 29.9292L166.199 30.2256L163.493 32.8584C163.332 33.0047 163.17 33.1818 163.012 33.3588C162.851 33.5398 162.727 33.6244 162.65 33.6283C162.543 33.6283 162.327 33.4628 161.992 33.1394C161.665 32.8084 161.503 32.6121 161.503 32.5351C161.503 32.4851 161.626 32.3542 161.869 32.1579C162.119 31.95 162.246 31.7729 162.246 31.6344V26.3417L162.196 24.8405C162.493 24.9059 163.085 25.1022 163.99 25.4448C164.017 25.4795 164.032 25.5179 164.032 25.568C164.032 25.5949 164.025 25.6296 164.009 25.6835C163.697 25.8913 163.543 26.0222 163.543 26.0645V27.3194H163.855L164.344 26.5572C164.367 26.5226 164.425 26.5033 164.521 26.5033C164.617 26.5033 164.956 26.8074 165.53 27.4079C166.196 26.1723 166.696 24.9521 167.023 23.7473H166.915C166.684 23.9475 166.338 24.1784 165.872 24.444C165.872 24.6673 165.691 24.8597 165.333 25.0175C164.975 25.1831 164.775 25.2639 164.725 25.2639C164.575 25.2639 164.486 25.2331 164.475 25.1638C164.463 25.0907 164.463 24.879 164.463 24.5133H158.944L158.69 27.2232C158.586 28.4087 158.374 29.4557 158.074 30.3641C157.781 31.2649 157.377 32.154 156.83 33.024L156.13 34.1864C156.064 34.1864 155.995 34.1518 155.914 34.0902C155.818 34.0363 155.76 33.994 155.726 33.9786C156.807 31.4766 157.354 28.505 157.354 25.0599V18.0004L157.269 16.7263L159.167 17.7078H161.607C161.184 16.4915 160.656 15.5215 160.017 14.7824L160.168 14.5091C162.192 15.0365 163.197 15.6062 163.197 16.2143C163.197 16.5146 162.893 17.0111 162.277 17.7078H163.874L164.71 16.707C164.74 16.6532 164.817 16.6262 164.921 16.6262C165.025 16.6262 165.306 16.8687 165.768 17.3306C166.226 17.8079 166.453 18.0851 166.453 18.1544C166.453 18.3083 166.376 18.3815 166.226 18.3815H158.967V20.4139H159.987V19.3861L159.944 18.4046C161.111 18.6932 161.692 18.9242 161.692 19.082C161.692 19.1321 161.688 19.1821 161.673 19.2206C161.342 19.4823 161.184 19.6594 161.184 19.7441V20.41H162.254V19.4015C162.254 18.8665 162.235 18.5431 162.204 18.42C162.824 18.5778 163.428 18.7895 163.998 19.0435C164.025 19.0936 164.04 19.1436 164.04 19.1936C164.04 19.2321 163.871 19.3977 163.547 19.6863V20.3869L164.321 20.41L164.887 19.6902C164.914 19.6594 164.983 19.6402 165.083 19.6402C165.129 19.6402 165.349 19.7749 165.753 20.0636C166.149 20.3484 166.365 20.5255 166.365 20.6102C166.365 20.6949 166.272 20.8142 166.095 20.9643C165.926 21.1221 165.849 21.2299 165.849 21.2876ZM161.176 23.9244H162.246V20.9874H161.176V23.9244ZM158.959 23.9244H159.979V20.9874H158.959V23.9244ZM163.54 23.9244H164.46V20.9874H163.54V23.9244ZM172.1 19.1975L171.831 18.9357C172.797 17.4076 173.444 16.1989 173.775 15.3136C174.879 16.1374 175.438 16.6455 175.438 16.8187C175.438 16.9418 175.272 17.0034 174.933 17.0034C174.845 17.0034 174.448 17.3114 173.755 17.9118C173.074 18.5162 172.516 18.9434 172.1 19.1975ZM166.446 15.941L166.684 15.6754C168.351 16.326 169.179 16.9957 169.179 17.6963C169.179 17.9465 169.082 18.2198 168.878 18.5316C168.674 18.8357 168.494 18.9896 168.332 18.9896C168.201 18.9896 168.105 18.9204 168.043 18.7856C167.693 17.6078 167.162 16.6609 166.446 15.9449V15.941ZM173.979 30.495V32.4851L173.998 34.3558C173.998 34.5559 173.771 34.7215 173.32 34.86L172.658 35.0794C172.624 35.0871 172.604 35.0871 172.593 35.0871C172.504 35.0871 172.462 35.0179 172.462 34.8716V30.4912H171.03C170.972 30.4912 170.888 30.5566 170.772 30.6875C170.638 30.8106 170.557 30.8761 170.499 30.8761C170.445 30.8761 170.28 30.7337 170.002 30.445C169.737 30.164 169.591 30.0061 169.591 29.9638C169.591 29.9215 169.656 29.8676 169.779 29.806C169.91 29.7367 170.002 29.6674 170.052 29.6212C170.106 29.5673 170.203 29.2517 170.337 28.6705C170.48 28.0815 170.591 27.5503 170.664 27.0653C171.708 27.4887 172.235 27.7505 172.235 27.8544C172.235 27.943 172.15 28.0315 171.966 28.1277C171.781 28.2201 171.681 28.2932 171.669 28.3394L171.242 29.9022H172.458V26.4879L171.758 26.4687C171.696 26.4687 171.45 26.5226 171.026 26.6458L170.603 25.8875C170.768 25.8721 171.38 25.8721 172.458 25.8721V24.7404C172.458 24.3362 172.435 23.959 172.389 23.6318L174.468 24.2054C174.518 24.2169 174.545 24.2631 174.545 24.3362C174.545 24.3901 174.448 24.4979 174.26 24.6519C174.067 24.8058 173.979 24.9136 173.979 24.9867V25.8682H174.506L175.045 25.1407C175.08 25.0945 175.137 25.0714 175.222 25.0714C175.299 25.0714 175.361 25.0984 175.403 25.1407L176.431 26.1877C176.454 26.2031 176.461 26.2493 176.461 26.307C176.461 26.411 176.423 26.4649 176.342 26.4649H173.975V29.8984H174.571L175.21 28.9168C175.241 28.8591 175.314 28.8283 175.414 28.8283C175.48 28.8283 175.726 29.0554 176.119 29.5135C176.527 29.9715 176.727 30.2256 176.727 30.2948C176.727 30.4219 176.673 30.4873 176.569 30.4873H173.975L173.979 30.495ZM160.68 31.1186H160.814L161.796 30.5835L161.911 30.8645C161.026 31.8692 160.337 32.7353 159.852 33.4628C159.833 33.6167 159.74 33.6937 159.583 33.6937C159.405 33.6937 159.047 33.305 158.512 32.5236C158.555 32.4466 158.701 32.3118 158.97 32.1271C159.248 31.9269 159.386 31.619 159.386 31.2071V26.2955L159.321 24.8135L161.103 25.3755C161.18 25.4025 161.222 25.4641 161.222 25.5526C161.222 25.6103 161.134 25.7066 160.949 25.8336C160.772 25.9683 160.68 26.0684 160.68 26.1492V27.2309H160.795L161.099 26.5765C161.13 26.5149 161.188 26.4879 161.28 26.4879C161.342 26.4879 161.38 26.511 161.419 26.5495L162.065 27.5349C162.092 27.5696 162.104 27.6081 162.104 27.6658C162.104 27.7736 162.034 27.8236 161.911 27.8236H160.68V31.1109V31.1186Z" fill="#1C0B33"/>
<path d="M91.87 12.1803H90.1147V38.5207H91.87V12.1803Z" fill="#1C0B33"/>
</svg>
