<svg width="50" height="50" viewBox="0 0 50 50" fill="none" xmlns="http://www.w3.org/2000/svg">
<path d="M15.7735 27.1529H13.2177C13.1836 27.1529 13.156 27.1805 13.156 27.2146V27.3721C13.156 27.4061 13.1836 27.4338 13.2177 27.4338H15.7735C15.8076 27.4338 15.8352 27.4061 15.8352 27.3721V27.2146C15.8352 27.1805 15.8076 27.1529 15.7735 27.1529Z" fill="#231815"/>
<path d="M22.2812 27.1529H17.509C17.4749 27.1529 17.4473 27.1805 17.4473 27.2146V27.3721C17.4473 27.4061 17.4749 27.4338 17.509 27.4338H22.2812C22.3153 27.4338 22.3429 27.4061 22.3429 27.3721V27.2146C22.3429 27.1805 22.3153 27.1529 22.2812 27.1529Z" fill="#231815"/>
<path fill-rule="evenodd" clip-rule="evenodd" d="M12.7501 33.091L12.729 32.953C12.7257 32.9319 12.7338 32.9091 12.7533 32.8945C14.559 31.5533 15.3351 29.7671 15.5186 29.3417C15.5397 29.2946 15.5527 29.2638 15.5608 29.2492C15.6582 29.0738 15.7784 29.1371 15.7963 29.1485L16.0073 29.2621C16.0073 29.2621 16.0187 29.2686 16.022 29.2735C16.1096 29.3661 16.0479 29.4943 16.0479 29.4943C15.1971 31.5565 12.9238 33.078 12.8443 33.13C12.8361 33.1348 12.828 33.1397 12.8167 33.1413C12.7826 33.1462 12.7517 33.1235 12.7468 33.0894L12.7501 33.091Z" fill="#231815"/>
<path d="M16.0091 29.1306H12.9824C12.9483 29.1306 12.9207 29.1582 12.9207 29.1923V29.3498C12.9207 29.3839 12.9483 29.4115 12.9824 29.4115H16.0091C16.0431 29.4115 16.0708 29.3839 16.0708 29.3498V29.1923C16.0708 29.1582 16.0431 29.1306 16.0091 29.1306Z" fill="#231815"/>
<path fill-rule="evenodd" clip-rule="evenodd" d="M14.848 31.123V39.0989C14.848 39.146 14.8285 39.1898 14.7977 39.2223C14.7668 39.2548 14.723 39.2743 14.6759 39.2743H14.343C14.2959 39.2743 14.2521 39.2548 14.2212 39.2223C14.1904 39.1898 14.1709 39.1476 14.1709 39.0989V31.6945C14.1709 31.6767 14.179 31.6604 14.192 31.6491L14.7441 31.0791C14.7668 31.0548 14.8058 31.0548 14.8301 31.0791C14.8431 31.0905 14.848 31.1067 14.848 31.123Z" fill="#231815"/>
<path fill-rule="evenodd" clip-rule="evenodd" d="M21.1353 29.1176H18.4496C18.3928 29.1176 18.3619 29.1371 18.3457 29.1712C18.3246 29.2151 18.3197 29.2849 18.3197 29.3644V31.2155C18.3246 31.3 18.4122 32.5454 19.6333 32.5454H20.161C21.3918 32.5454 21.4714 31.2805 21.4747 31.2155V29.3644C21.4747 29.2849 21.4698 29.2167 21.4487 29.1712C21.4324 29.1371 21.4016 29.1176 21.3448 29.1176H21.1369H21.1353ZM19.1592 32.8312C18.7484 32.8312 18.3814 32.6315 18.1135 32.3359C17.8244 32.0177 17.6474 31.5874 17.6474 31.1749V29.1745C17.6458 29.1387 17.6345 28.8367 17.9251 28.8367H21.8692C22.1599 28.8367 22.1501 29.1387 22.1469 29.1745V31.1749C22.1469 31.5874 21.9699 32.0193 21.6809 32.3359C21.4113 32.6315 21.046 32.8312 20.6352 32.8312H19.1608H19.1592Z" fill="#231815"/>
<path fill-rule="evenodd" clip-rule="evenodd" d="M5.94311 26.6609H6.27599C6.32308 26.6609 6.36692 26.6803 6.39777 26.7128C6.42862 26.7453 6.44811 26.7875 6.44811 26.8362V39.0973C6.44811 39.1444 6.42862 39.1882 6.39777 39.2207C6.36692 39.2532 6.32308 39.2726 6.27599 39.2726H5.94311C5.89603 39.2726 5.85218 39.2532 5.82133 39.2207C5.79048 39.1882 5.771 39.146 5.771 39.0973V26.8362C5.771 26.7875 5.79048 26.7453 5.82133 26.7128C5.85218 26.6803 5.89603 26.6609 5.94311 26.6609Z" fill="#231815"/>
<path fill-rule="evenodd" clip-rule="evenodd" d="M8.20838 29.4115H3.80473C3.7479 29.4115 3.71704 29.431 3.70081 29.4651C3.6797 29.5089 3.67483 29.5788 3.67483 29.6583V34.4549C3.67807 34.5215 3.75764 35.7848 4.98845 35.7848H7.23412C8.45519 35.7848 8.54287 34.5394 8.54774 34.4565V29.6583C8.54774 29.5788 8.54287 29.5089 8.52177 29.4651C8.50553 29.431 8.47468 29.4115 8.41784 29.4115H8.21H8.20838ZM4.51269 36.0706C4.10188 36.0706 3.73491 35.8708 3.46698 35.5753C3.17795 35.2571 3.00096 34.8268 3.00096 34.4143V29.4683C2.99934 29.4326 2.98797 29.1306 3.27863 29.1306H8.94232C9.23297 29.1306 9.22323 29.4326 9.21998 29.4683V34.4143C9.21998 34.8268 9.04299 35.2587 8.75396 35.5753C8.48442 35.8708 8.11907 36.0706 7.70826 36.0706H4.51431H4.51269Z" fill="#231815"/>
<path fill-rule="evenodd" clip-rule="evenodd" d="M15.0136 31.1798C15.124 31.6848 15.275 32.094 15.5299 32.396C15.7832 32.6964 16.1421 32.8977 16.6714 32.9903C16.7136 32.9984 16.7591 33.0195 16.7883 33.0488C16.8029 33.0634 16.8143 33.0796 16.8224 33.0975C16.8305 33.1186 16.8338 33.1413 16.8289 33.164C16.8241 33.19 16.8111 33.2176 16.7851 33.2436C16.7705 33.2582 16.7526 33.2712 16.7299 33.2826C16.7104 33.2923 16.6877 33.3004 16.6617 33.3069C16.6617 33.3069 16.6584 33.3069 16.6568 33.3069C16.522 33.3378 15.9781 33.2355 15.4861 32.8799C15.1889 32.6655 14.9064 32.3586 14.7391 31.9348C14.731 31.9137 14.7164 31.8796 14.7018 31.8407C14.6368 31.6832 14.541 31.4461 14.5086 31.2886C14.4972 31.2366 14.4923 31.1928 14.5053 31.1522C14.5183 31.1067 14.5492 31.071 14.6076 31.0385C14.6482 31.0158 14.6823 30.9996 14.7213 30.9914C14.7619 30.9817 14.8025 30.9817 14.8544 30.9914C14.9778 31.0142 14.9892 31.0678 15.0103 31.1652L15.0136 31.1782V31.1798Z" fill="#231815"/>
<path d="M28.7244 28.2911H26.1362C26.1021 28.2911 26.0745 28.3187 26.0745 28.3528V28.5103C26.0745 28.5444 26.1021 28.572 26.1362 28.572H28.7244C28.7585 28.572 28.7862 28.5444 28.7862 28.5103V28.3528C28.7862 28.3187 28.7585 28.2911 28.7244 28.2911Z" fill="#231815"/>
<path d="M28.7244 32.8279H26.1362C26.1021 32.8279 26.0745 32.8556 26.0745 32.8896V33.0472C26.0745 33.0812 26.1021 33.1089 26.1362 33.1089H28.7244C28.7585 33.1089 28.7862 33.0812 28.7862 33.0472V32.8896C28.7862 32.8556 28.7585 32.8279 28.7244 32.8279Z" fill="#231815"/>
<path fill-rule="evenodd" clip-rule="evenodd" d="M27.8866 28.4746V38.0889C27.8866 38.136 27.8671 38.1799 27.8362 38.2123C27.8054 38.2448 27.7616 38.2643 27.7145 38.2643H27.3816C27.3345 38.2643 27.2907 38.2448 27.2598 38.2123C27.229 38.1799 27.2095 38.1376 27.2095 38.0889V28.4746C27.2095 28.4405 27.2371 28.4129 27.2712 28.4129H27.8265C27.8606 28.4129 27.8882 28.4405 27.8882 28.4746H27.8866Z" fill="#231815"/>
<path d="M28.7244 38.0418H26.1362C26.1021 38.0418 26.0745 38.0695 26.0745 38.1035V38.261C26.0745 38.2951 26.1021 38.3227 26.1362 38.3227H28.7244C28.7585 38.3227 28.7862 38.2951 28.7862 38.261V38.1035C28.7862 38.0695 28.7585 38.0418 28.7244 38.0418Z" fill="#231815"/>
<path fill-rule="evenodd" clip-rule="evenodd" d="M28.7131 31.1896L28.6335 31.0808C28.6189 31.0629 28.6141 31.0369 28.6254 31.0142C29.5867 29.0235 29.4097 27.5393 29.3626 27.1318C29.3561 27.0782 29.3529 27.0441 29.3529 27.0213C29.3577 26.8249 29.4893 26.8216 29.512 26.8216L29.7491 26.8249C29.7491 26.8249 29.7653 26.8249 29.7734 26.8281C29.8887 26.8671 29.8985 27.0002 29.8985 27.0116C30.1063 29.2719 28.817 31.1814 28.8138 31.1863C28.8138 31.1863 28.8057 31.1977 28.7992 31.2025C28.7716 31.222 28.7342 31.2172 28.7131 31.1896Z" fill="#231815"/>
<path d="M34.9029 28.4324H29.5981C29.564 28.4324 29.5364 28.46 29.5364 28.4941V28.6516C29.5364 28.6857 29.564 28.7133 29.5981 28.7133H34.9029C34.937 28.7133 34.9646 28.6857 34.9646 28.6516V28.4941C34.9646 28.46 34.937 28.4324 34.9029 28.4324Z" fill="#231815"/>
<path d="M35.0718 31.058H29.2783C29.2442 31.058 29.2166 31.0856 29.2166 31.1197V31.2772C29.2166 31.3113 29.2442 31.3389 29.2783 31.3389H35.0718C35.1059 31.3389 35.1336 31.3113 35.1336 31.2772V31.1197C35.1336 31.0856 35.1059 31.058 35.0718 31.058Z" fill="#231815"/>
<path fill-rule="evenodd" clip-rule="evenodd" d="M31.9478 26.4157H32.2806C32.3277 26.4157 32.3716 26.4352 32.4024 26.4676C32.4333 26.5001 32.4527 26.5423 32.4527 26.591V39.0973C32.4527 39.1444 32.4333 39.1882 32.4024 39.2207C32.3716 39.2532 32.3277 39.2727 32.2806 39.2727H31.9478C31.9007 39.2727 31.8568 39.2532 31.826 39.2207C31.7951 39.1882 31.7756 39.146 31.7756 39.0973V26.591C31.7756 26.544 31.7951 26.5001 31.826 26.4676C31.8568 26.4352 31.9007 26.4157 31.9478 26.4157Z" fill="#231815"/>
<path fill-rule="evenodd" clip-rule="evenodd" d="M42.6972 26.7843H43.0301C43.0771 26.7843 43.121 26.8038 43.1518 26.8362C43.1827 26.8687 43.2022 26.9109 43.2022 26.9596V28.6143C43.2022 28.6484 43.1746 28.676 43.1405 28.676H42.5851C42.551 28.676 42.5234 28.6484 42.5234 28.6143V26.9596C42.5234 26.9126 42.5429 26.8687 42.5738 26.8362C42.6046 26.8038 42.6485 26.7843 42.6956 26.7843H42.6972Z" fill="#231815"/>
<path fill-rule="evenodd" clip-rule="evenodd" d="M45.9805 28.7912H39.5407C39.4838 28.7912 39.453 28.8107 39.4367 28.8448C39.4254 28.8676 39.4189 28.8952 39.4156 28.9293V30.4361C39.4156 30.4832 39.3961 30.527 39.3653 30.5595C39.3344 30.592 39.2906 30.6115 39.2435 30.6115H38.9106C38.8635 30.6115 38.8197 30.592 38.7889 30.5595C38.758 30.527 38.7385 30.4848 38.7385 30.4361V28.9049C38.7385 28.9049 38.7385 28.8984 38.7385 28.8952V28.8481C38.7369 28.8124 38.7255 28.5103 39.0162 28.5103H46.7144C47.0051 28.5103 46.9954 28.8124 46.9921 28.8481V28.8952C46.9921 28.8952 46.9921 28.9017 46.9921 28.9049V30.4361C46.9921 30.4832 46.9726 30.527 46.9418 30.5595C46.9109 30.592 46.8671 30.6115 46.82 30.6115H46.4871C46.44 30.6115 46.3962 30.592 46.3653 30.5595C46.3345 30.527 46.315 30.4848 46.315 30.4361V28.9293C46.3118 28.8968 46.3053 28.8676 46.2939 28.8448C46.2777 28.8107 46.2468 28.7912 46.19 28.7912H45.9821H45.9805Z" fill="#231815"/>
<path d="M46.2498 33.7811H39.4787C39.4446 33.7811 39.417 33.8087 39.417 33.8428V34.0003C39.417 34.0344 39.4446 34.062 39.4787 34.062H46.2498C46.2839 34.062 46.3115 34.0344 46.3115 34.0003V33.8428C46.3115 33.8087 46.2839 33.7811 46.2498 33.7811Z" fill="#231815"/>
<path d="M46.3344 31.058H39.3928C39.3587 31.058 39.3311 31.0856 39.3311 31.1197V31.2772C39.3311 31.3113 39.3587 31.3389 39.3928 31.3389H46.3344C46.3684 31.3389 46.3961 31.3113 46.3961 31.2772V31.1197C46.3961 31.0856 46.3684 31.058 46.3344 31.058Z" fill="#231815"/>
<path d="M46.938 38.6751H38.79C38.7559 38.6751 38.7283 38.7027 38.7283 38.7368V38.8943C38.7283 38.9284 38.7559 38.956 38.79 38.956H46.938C46.9721 38.956 46.9997 38.9284 46.9997 38.8943V38.7368C46.9997 38.7027 46.9721 38.6751 46.938 38.6751Z" fill="#231815"/>
<path fill-rule="evenodd" clip-rule="evenodd" d="M43.2037 31.1863V38.7806C43.2037 38.8277 43.1842 38.8716 43.1534 38.904C43.1225 38.9365 43.0787 38.956 43.0316 38.956H42.6987C42.6516 38.956 42.6078 38.9365 42.5769 38.904C42.5461 38.8716 42.5266 38.8294 42.5266 38.7806V31.1863C42.5266 31.1522 42.5542 31.1246 42.5883 31.1246H43.1436C43.1777 31.1246 43.2053 31.1522 43.2053 31.1863H43.2037Z" fill="#231815"/>
<path fill-rule="evenodd" clip-rule="evenodd" d="M46.3395 38.8001L46.26 38.9089C46.2405 38.9365 46.2015 38.9414 46.1739 38.9219C46.1674 38.917 46.1625 38.9122 46.1593 38.9057C46.1593 38.9057 44.8668 36.9913 45.0746 34.731C45.0746 34.7196 45.086 34.5881 45.1997 34.5475C45.2078 34.5442 45.2159 34.5442 45.224 34.5442L45.4611 34.541C45.4854 34.541 45.6153 34.5442 45.6202 34.7407C45.6202 34.7618 45.617 34.7976 45.6105 34.8511C45.5618 35.2587 45.3864 36.7428 46.3477 38.7336C46.359 38.7563 46.3542 38.7823 46.3395 38.8001Z" fill="#231815"/>
<path fill-rule="evenodd" clip-rule="evenodd" d="M19.729 33.4677H20.0619C20.109 33.4677 20.1528 33.4872 20.1837 33.5196C20.2145 33.5521 20.234 33.5943 20.234 33.6431V39.0681C20.234 39.1151 20.2145 39.159 20.1837 39.1915C20.1528 39.2239 20.109 39.2434 20.0619 39.2434H19.729C19.6819 39.2434 19.6381 39.2239 19.6072 39.1915C19.5764 39.159 19.5569 39.1168 19.5569 39.0681V33.6431C19.5569 33.596 19.5764 33.5521 19.6072 33.5196C19.6381 33.4872 19.6819 33.4677 19.729 33.4677Z" fill="#231815"/>
<path fill-rule="evenodd" clip-rule="evenodd" d="M21.3801 33.7194H18.2024C18.1455 33.7194 18.1147 33.7389 18.0984 33.773C18.0773 33.8184 18.0725 33.8866 18.0725 33.9662V37.6586C18.0773 37.7431 18.165 38.9885 19.3861 38.9885H20.4042C21.635 38.9885 21.7146 37.7236 21.7178 37.6586V33.9662C21.7178 33.8866 21.7129 33.8184 21.6918 33.773C21.6756 33.7389 21.6447 33.7194 21.5879 33.7194H21.3801ZM18.9136 39.2743C18.5028 39.2743 18.1358 39.0745 17.8679 38.779C17.5788 38.4608 17.4018 38.0305 17.4018 37.618V33.7762C17.4002 33.7405 17.3889 33.4385 17.6795 33.4385H22.1156C22.4063 33.4385 22.3965 33.7405 22.3933 33.7762V37.618C22.3933 38.0305 22.2163 38.4624 21.9273 38.779C21.6577 39.0745 21.2924 39.2743 20.8816 39.2743H18.9152H18.9136Z" fill="#231815"/>
<path d="M21.9875 36.2151H17.8063C17.7723 36.2151 17.7446 36.2427 17.7446 36.2768V36.4343C17.7446 36.4684 17.7723 36.496 17.8063 36.496H21.9875C22.0216 36.496 22.0492 36.4684 22.0492 36.4343V36.2768C22.0492 36.2427 22.0216 36.2151 21.9875 36.2151Z" fill="#231815"/>
<path fill-rule="evenodd" clip-rule="evenodd" d="M30.2025 32.0989H30.5354C30.5825 32.0989 30.6263 32.1183 30.6572 32.1508C30.688 32.1833 30.7075 32.2255 30.7075 32.2742V33.5603C30.7075 33.9613 30.7302 34.3608 30.6702 34.7586C30.2788 37.3404 28.8597 39.2434 28.8548 39.2499C28.8548 39.2499 28.8451 39.2613 28.8386 39.2645C28.811 39.2824 28.772 39.2759 28.7541 39.2467L28.6437 39.0778C28.6291 39.0583 28.6258 39.0323 28.6372 39.0096C30.0077 36.483 30.0694 34.4663 30.0336 33.5781C30.032 33.5716 30.0304 33.5667 30.0304 33.5603V32.2742C30.0304 32.2255 30.0499 32.1833 30.0807 32.1508C30.1116 32.1183 30.1554 32.0989 30.2025 32.0989Z" fill="#231815"/>
<path fill-rule="evenodd" clip-rule="evenodd" d="M34.0263 32.0989H33.6934C33.6463 32.0989 33.6025 32.1183 33.5716 32.1508C33.5408 32.1833 33.5213 32.2255 33.5213 32.2742V33.5603C33.5213 33.9613 33.4986 34.3608 33.5587 34.7586C33.95 37.3404 35.3692 39.2434 35.374 39.2499C35.374 39.2499 35.3838 39.2613 35.3903 39.2645C35.4179 39.2824 35.4568 39.2759 35.4747 39.2467L35.5851 39.0778C35.5997 39.0583 35.603 39.0323 35.5916 39.0096C34.2212 36.483 34.1594 34.4663 34.1952 33.5781C34.1968 33.5716 34.1984 33.5667 34.1984 33.5603V32.2742C34.1984 32.2255 34.1789 32.1833 34.1481 32.1508C34.1172 32.1183 34.0734 32.0989 34.0263 32.0989Z" fill="#231815"/>
<path d="M18.2595 41.895L17.8049 43.8419C17.7984 43.8695 17.8195 43.8939 17.8471 43.8939H18.0144C18.0355 43.8939 18.0517 43.8793 18.0566 43.8598L18.1394 43.449C18.1426 43.4295 18.1605 43.4149 18.1816 43.4149H18.5827C18.6038 43.4149 18.62 43.4295 18.6249 43.449L18.7077 43.8598C18.711 43.8793 18.7288 43.8939 18.7499 43.8939H18.9204C18.948 43.8939 18.9691 43.8679 18.9626 43.8419L18.5112 41.895C18.5064 41.8756 18.4901 41.8609 18.469 41.8609H18.3001C18.2807 41.8609 18.2628 41.8739 18.2579 41.8934L18.2595 41.895ZM18.2027 43.1453L18.3407 42.4682C18.3505 42.4228 18.4154 42.4228 18.4252 42.4682L18.5616 43.1453C18.5664 43.1713 18.547 43.1973 18.5193 43.1973H18.2449C18.2173 43.1973 18.1978 43.1729 18.2027 43.1453Z" fill="#231815"/>
<path d="M19.7843 43.8955H19.9434C19.9678 43.8955 19.9857 43.876 19.9857 43.8533V43.0284C19.9857 43.0041 20.0052 42.9862 20.0279 42.9862H20.4078C20.4322 42.9862 20.4501 42.9667 20.4501 42.944V42.8092C20.4501 42.7849 20.4306 42.767 20.4078 42.767H20.0279C20.0035 42.767 19.9857 42.7475 19.9857 42.7248V42.1289C19.9857 42.1045 20.0052 42.0867 20.0279 42.0867H20.4825C20.5069 42.0867 20.5248 42.0672 20.5248 42.0444V41.9097C20.5248 41.8853 20.5053 41.8674 20.4825 41.8674H19.7827C19.7583 41.8674 19.7405 41.8869 19.7405 41.9097V43.8566C19.7405 43.8809 19.76 43.8988 19.7827 43.8988L19.7843 43.8955Z" fill="#231815"/>
<path d="M13.6253 42.7508H13.2599C13.2355 42.7508 13.2177 42.7313 13.2177 42.7086V41.9064C13.2177 41.8821 13.1982 41.8642 13.1755 41.8642H13.0163C12.992 41.8642 12.9741 41.8837 12.9741 41.9064V43.8533C12.9741 43.8777 12.9936 43.8955 13.0163 43.8955H13.1755C13.1998 43.8955 13.2177 43.876 13.2177 43.8533V43.0171C13.2177 42.9927 13.2372 42.9749 13.2599 42.9749H13.6253C13.6496 42.9749 13.6675 42.9943 13.6675 43.0171V43.8533C13.6675 43.8777 13.687 43.8955 13.7097 43.8955H13.8688C13.8932 43.8955 13.911 43.876 13.911 43.8533V41.9064C13.911 41.8821 13.8915 41.8642 13.8688 41.8642H13.7097C13.6853 41.8642 13.6675 41.8837 13.6675 41.9064V42.7086C13.6675 42.7329 13.648 42.7508 13.6253 42.7508Z" fill="#231815"/>
<path d="M16.6976 43.0301L16.269 41.8902C16.2625 41.8739 16.2462 41.8626 16.2284 41.8626H16.0725C16.0481 41.8626 16.0303 41.8821 16.0303 41.9048V43.8517C16.0303 43.876 16.0498 43.8939 16.0725 43.8939H16.2316C16.256 43.8939 16.2738 43.8744 16.2738 43.8517V42.7394C16.2738 42.6923 16.3404 42.6793 16.3567 42.7248L16.7886 43.8679C16.7951 43.8842 16.8113 43.8955 16.8292 43.8955H16.9786C17.0029 43.8955 17.0208 43.876 17.0208 43.8533V41.9064C17.0208 41.8821 17.0013 41.8642 16.9786 41.8642H16.8194C16.7951 41.8642 16.7756 41.8837 16.7756 41.908V43.0187C16.7772 43.0658 16.7123 43.0788 16.6944 43.0333L16.6976 43.0301Z" fill="#231815"/>
<path d="M22.3058 42.5462C22.3041 42.452 22.2976 42.3692 22.2879 42.2994C22.2782 42.2295 22.2652 42.1695 22.2441 42.1191C22.2246 42.0688 22.197 42.0233 22.1629 41.986C22.1255 41.9421 22.0768 41.908 22.02 41.8804C21.9615 41.8544 21.8933 41.8398 21.8121 41.8398C21.731 41.8398 21.6628 41.8544 21.6059 41.8804C21.5491 41.9064 21.502 41.9421 21.4647 41.986C21.4306 42.0233 21.403 42.0688 21.3818 42.1191C21.3624 42.1695 21.3477 42.2295 21.338 42.2994C21.3283 42.3692 21.3218 42.452 21.3201 42.5462C21.3185 42.642 21.3169 42.7524 21.3169 42.879C21.3169 43.0057 21.3169 43.1161 21.3201 43.2119C21.3234 43.3077 21.3299 43.3889 21.338 43.4587C21.3477 43.5285 21.3624 43.5886 21.3818 43.639C21.403 43.6893 21.4289 43.7348 21.4647 43.7721C21.502 43.8159 21.5507 43.8501 21.6059 43.876C21.6628 43.902 21.731 43.9166 21.8121 43.9166C21.8933 43.9166 21.9632 43.902 22.02 43.876C22.0768 43.8501 22.1255 43.8143 22.1629 43.7721C22.197 43.7348 22.2246 43.6893 22.2441 43.639C22.2635 43.5886 22.2782 43.5285 22.2879 43.4587C22.2976 43.3889 22.3025 43.3061 22.3058 43.2119C22.3074 43.1177 22.309 43.0057 22.309 42.879C22.309 42.7524 22.309 42.642 22.3058 42.5462ZM22.059 43.1859C22.0573 43.2704 22.0525 43.3402 22.046 43.3954C22.0395 43.4506 22.0313 43.4977 22.02 43.5334C22.0086 43.5691 21.994 43.5984 21.9761 43.6227C21.9599 43.6455 21.9372 43.6649 21.9112 43.6779C21.8852 43.6925 21.8511 43.699 21.8105 43.699C21.7715 43.699 21.7374 43.6909 21.7098 43.6779C21.6839 43.6649 21.6611 43.6455 21.6449 43.6227C21.627 43.5984 21.6124 43.5691 21.6011 43.5334C21.5897 43.4977 21.5816 43.4522 21.5751 43.3954C21.5686 43.3386 21.5653 43.2687 21.5621 43.1859C21.5605 43.1015 21.5588 42.9992 21.5588 42.8807C21.5588 42.7621 21.5588 42.6582 21.5621 42.5754C21.5637 42.491 21.5686 42.4211 21.5751 42.3659C21.5816 42.3107 21.5897 42.2636 21.6011 42.2279C21.6124 42.1922 21.627 42.163 21.6449 42.1386C21.6611 42.1159 21.6839 42.0964 21.7098 42.0834C21.7374 42.0704 21.7699 42.0623 21.8105 42.0623C21.8511 42.0623 21.8836 42.0704 21.9112 42.0834C21.9388 42.098 21.9599 42.1159 21.9761 42.1386C21.994 42.1613 22.0086 42.1922 22.02 42.2279C22.0313 42.2636 22.0395 42.3091 22.046 42.3659C22.0525 42.4228 22.0557 42.4926 22.059 42.5754C22.0606 42.6598 22.0622 42.7621 22.0622 42.8807C22.0622 42.9992 22.0622 43.1031 22.059 43.1859Z" fill="#231815"/>
<path d="M11.8521 43.5207C11.8423 43.5613 11.8245 43.5954 11.8018 43.6246C11.7855 43.6457 11.7644 43.6636 11.7384 43.6782C11.7124 43.6912 11.68 43.6993 11.6426 43.6993C11.6037 43.6993 11.5696 43.6912 11.542 43.6782C11.516 43.6652 11.4932 43.6457 11.477 43.623C11.4591 43.5986 11.4445 43.5694 11.4332 43.5337C11.4218 43.4979 11.4137 43.4525 11.4072 43.3956C11.4007 43.3388 11.3974 43.269 11.3942 43.1862C11.3926 43.1017 11.3909 42.9994 11.3909 42.8809C11.3909 42.7624 11.3909 42.6584 11.3942 42.5756C11.3958 42.4912 11.4007 42.4214 11.4072 42.3662C11.4137 42.311 11.4218 42.2639 11.4332 42.2281C11.4445 42.1924 11.4591 42.1632 11.477 42.1388C11.4932 42.1161 11.516 42.0966 11.542 42.0836C11.5696 42.0706 11.602 42.0625 11.6426 42.0625C11.68 42.0625 11.7124 42.069 11.7384 42.082C11.7644 42.095 11.7855 42.1112 11.8018 42.134C11.8245 42.1632 11.8407 42.1989 11.8505 42.2395C11.857 42.2687 11.8618 42.298 11.8635 42.3288C11.8635 42.3516 11.8829 42.3678 11.9057 42.3678H12.0648C12.0892 42.3678 12.1103 42.3467 12.1086 42.3223C12.1038 42.2541 12.0924 42.1924 12.0713 42.1356C12.0469 42.0658 12.0112 42.0073 11.9641 41.9618C11.9252 41.9229 11.8781 41.8937 11.8245 41.8725C11.7709 41.8514 11.7108 41.8417 11.641 41.8417C11.5598 41.8417 11.4916 41.8563 11.4348 41.8823C11.378 41.9083 11.3309 41.944 11.2935 41.9878C11.2594 42.0252 11.2318 42.0706 11.2107 42.121C11.1912 42.1713 11.1766 42.2314 11.1669 42.3012C11.1571 42.371 11.1506 42.4539 11.149 42.548C11.1474 42.6438 11.1458 42.7542 11.1458 42.8809C11.1458 43.0076 11.1458 43.118 11.149 43.2138C11.1522 43.3096 11.1587 43.3908 11.1669 43.4606C11.1766 43.5304 11.1912 43.5905 11.2107 43.6408C11.2318 43.6912 11.2578 43.7366 11.2935 43.774C11.3309 43.8178 11.3796 43.8519 11.4348 43.8779C11.4916 43.9039 11.5598 43.9185 11.641 43.9185C11.7092 43.9185 11.7693 43.9087 11.8196 43.8909C11.87 43.873 11.9154 43.8454 11.956 43.8081C11.9901 43.7772 12.0177 43.7415 12.0404 43.6977C12.0632 43.6554 12.081 43.6083 12.0924 43.5564C12.1021 43.519 12.107 43.4801 12.1103 43.4395C12.1119 43.4135 12.0924 43.3924 12.0681 43.3924H11.9089C11.8862 43.3924 11.8683 43.4086 11.8667 43.4314C11.8651 43.4622 11.8602 43.4914 11.8521 43.519V43.5207Z" fill="#231815"/>
<path d="M14.8904 41.8626H15.0495C15.0738 41.8626 15.0917 41.8821 15.0917 41.9048V43.8517C15.0917 43.876 15.0722 43.8939 15.0495 43.8939H14.8904C14.866 43.8939 14.8481 43.8744 14.8481 43.8517V41.9048C14.8481 41.8804 14.8676 41.8626 14.8904 41.8626Z" fill="#231815"/>
<path d="M31.6719 43.2298L31.4203 41.8967C31.417 41.8772 31.3991 41.8609 31.378 41.8609H31.1751C31.154 41.8609 31.1361 41.8756 31.1328 41.8967L30.886 43.2265C30.8779 43.2752 30.8081 43.272 30.8016 43.2249L30.6327 41.8983C30.6295 41.8772 30.6116 41.8609 30.5905 41.8609H30.4086C30.3827 41.8609 30.3616 41.8853 30.3664 41.9113L30.7025 43.8582C30.7058 43.8793 30.7237 43.8939 30.7448 43.8939H30.9266C30.9477 43.8939 30.9656 43.8793 30.9688 43.8598L31.2351 42.4764C31.2433 42.4293 31.3098 42.4293 31.3196 42.4764L31.5875 43.8598C31.5907 43.8793 31.6086 43.8939 31.6297 43.8939H31.8116C31.8327 43.8939 31.8505 43.8793 31.8538 43.8582L32.1883 41.9113C32.1932 41.8853 32.1721 41.8609 32.1461 41.8609H31.9658C31.9447 41.8609 31.9252 41.8772 31.9236 41.8983L31.7564 43.2249C31.7499 43.2736 31.6801 43.2752 31.6719 43.2282V43.2298Z" fill="#231815"/>
<path d="M33.0017 43.8955H33.7015C33.7259 43.8955 33.7438 43.876 33.7438 43.8533V43.7202C33.7438 43.6958 33.7243 43.678 33.7015 43.678H33.2469C33.2225 43.678 33.2047 43.6585 33.2047 43.6357V43.0301C33.2047 43.0057 33.2241 42.9879 33.2469 42.9879H33.6268C33.6512 42.9879 33.6691 42.9684 33.6691 42.9456V42.8109C33.6691 42.7865 33.6496 42.7686 33.6268 42.7686H33.2469C33.2225 42.7686 33.2047 42.7492 33.2047 42.7264V42.1305C33.2047 42.1061 33.2241 42.0883 33.2469 42.0883H33.7015C33.7259 42.0883 33.7438 42.0688 33.7438 42.0461V41.9113C33.7438 41.8869 33.7243 41.8691 33.7015 41.8691H33.0017C32.9773 41.8691 32.9595 41.8886 32.9595 41.9113V43.8582C32.9595 43.8825 32.979 43.9004 33.0017 43.9004V43.8955Z" fill="#231815"/>
<path d="M24.1378 42.5462C24.1362 42.452 24.1297 42.3692 24.1199 42.2994C24.1102 42.2295 24.0972 42.1695 24.0761 42.1191C24.0566 42.0688 24.029 42.0233 23.9949 41.986C23.9576 41.9421 23.9088 41.908 23.852 41.8804C23.7952 41.8544 23.7254 41.8398 23.6442 41.8398C23.563 41.8398 23.4948 41.8544 23.438 41.8804C23.3811 41.9064 23.334 41.9421 23.2967 41.986C23.2626 42.0233 23.235 42.0688 23.2139 42.1191C23.1944 42.1695 23.1798 42.2295 23.17 42.2994C23.1603 42.3692 23.1538 42.452 23.1522 42.5462C23.1505 42.642 23.1489 42.7524 23.1489 42.879C23.1489 43.0057 23.1489 43.1161 23.1522 43.2119C23.1554 43.3077 23.1619 43.3889 23.17 43.4587C23.1798 43.5285 23.1944 43.5886 23.2139 43.639C23.235 43.6893 23.261 43.7348 23.2967 43.7721C23.334 43.8159 23.3811 43.8501 23.438 43.876C23.4948 43.902 23.563 43.9166 23.6442 43.9166C23.7254 43.9166 23.7952 43.902 23.852 43.876C23.9088 43.8501 23.9576 43.8143 23.9949 43.7721C24.029 43.7348 24.0566 43.6893 24.0761 43.639C24.0956 43.5886 24.1102 43.5285 24.1199 43.4587C24.1297 43.3889 24.1346 43.3061 24.1378 43.2119C24.1394 43.1177 24.141 43.0057 24.141 42.879C24.141 42.7524 24.141 42.642 24.1378 42.5462ZM23.891 43.1859C23.8894 43.2704 23.8845 43.3402 23.878 43.3954C23.8715 43.4506 23.8634 43.4977 23.852 43.5334C23.8406 43.5691 23.826 43.5984 23.8082 43.6227C23.7919 43.6455 23.7692 43.6649 23.7432 43.6779C23.7172 43.6925 23.6831 43.699 23.6425 43.699C23.6036 43.699 23.5695 43.6909 23.5419 43.6779C23.5159 43.6649 23.4932 43.6455 23.4769 43.6227C23.4591 43.5984 23.4445 43.5691 23.4331 43.5334C23.4217 43.4977 23.4136 43.4522 23.4071 43.3954C23.4006 43.3386 23.3974 43.2687 23.3941 43.1859C23.3925 43.1015 23.3909 42.9992 23.3909 42.8807C23.3909 42.7621 23.3909 42.6582 23.3941 42.5754C23.3957 42.491 23.4006 42.4211 23.4071 42.3659C23.4136 42.3107 23.4217 42.2636 23.4331 42.2279C23.4445 42.1922 23.4591 42.163 23.4769 42.1386C23.4932 42.1159 23.5159 42.0964 23.5419 42.0834C23.5695 42.0704 23.602 42.0623 23.6425 42.0623C23.6831 42.0623 23.7156 42.0704 23.7432 42.0834C23.7708 42.098 23.7919 42.1159 23.8082 42.1386C23.826 42.1613 23.8406 42.1922 23.852 42.2279C23.8634 42.2636 23.8715 42.3091 23.878 42.3659C23.8845 42.4228 23.8877 42.4926 23.891 42.5754C23.8926 42.6598 23.8942 42.7621 23.8942 42.8807C23.8942 42.9992 23.8942 43.1031 23.891 43.1859Z" fill="#231815"/>
<path d="M34.8151 41.8626H34.656C34.6316 41.8626 34.6138 41.8821 34.6138 41.9048V43.8517C34.6138 43.876 34.6333 43.8939 34.656 43.8939H35.3558C35.3802 43.8939 35.3981 43.8744 35.3981 43.8517V43.7185C35.3981 43.6942 35.3786 43.6763 35.3558 43.6763H34.9012C34.8768 43.6763 34.859 43.6568 34.859 43.6341V41.9064C34.859 41.8821 34.8395 41.8642 34.8167 41.8642L34.8151 41.8626Z" fill="#231815"/>
<path d="M38.589 41.8951L38.4104 42.5738C38.399 42.616 38.3389 42.616 38.3275 42.5738L38.1489 41.8951C38.1441 41.8756 38.1262 41.8626 38.1067 41.8626H37.9297C37.9005 41.8626 37.8794 41.8902 37.8891 41.9178L38.2447 43.0674C38.2447 43.0674 38.2463 43.0755 38.2463 43.0804V43.8533C38.2463 43.8777 38.2658 43.8955 38.2886 43.8955H38.4477C38.4721 43.8955 38.4899 43.876 38.4899 43.8533V43.0804C38.4899 43.0804 38.4899 43.0723 38.4915 43.0674L38.8488 41.9178C38.8569 41.8902 38.8374 41.8626 38.8082 41.8626H38.6279C38.6085 41.8626 38.5906 41.8756 38.5857 41.8951H38.589Z" fill="#231815"/>
<path d="M37.0497 42.8612C37.0854 42.8141 37.1114 42.7556 37.1293 42.6874C37.1455 42.6176 37.1536 42.5364 37.1536 42.4423C37.1536 42.3318 37.1439 42.2393 37.1228 42.1646C37.1017 42.0899 37.0708 42.0298 37.0302 41.986C36.9896 41.9421 36.9393 41.9097 36.8792 41.8918C36.8191 41.8723 36.7509 41.8626 36.6746 41.8642H36.2573C36.2329 41.8642 36.2151 41.8837 36.2151 41.9064V43.8533C36.2151 43.8777 36.2346 43.8955 36.2573 43.8955H36.4164C36.4408 43.8955 36.4587 43.876 36.4587 43.8533V43.0658C36.4587 43.0414 36.4781 43.0236 36.5009 43.0236H36.6486C36.6681 43.0236 36.6844 43.0349 36.6892 43.0528L36.9507 43.8663C36.9571 43.8842 36.9734 43.8955 36.9912 43.8955H37.1569C37.1861 43.8955 37.2072 43.8663 37.1975 43.8387L36.9166 43.0073C36.9101 42.9878 36.9166 42.9667 36.9344 42.957C36.9799 42.931 37.0172 42.9002 37.0465 42.8612H37.0497ZM36.8191 42.7589C36.785 42.7881 36.7379 42.8043 36.6746 42.8043H36.5009C36.4765 42.8043 36.4587 42.7849 36.4587 42.7621V42.1256C36.4587 42.1013 36.4781 42.0834 36.5009 42.0834H36.6746C36.7363 42.0834 36.785 42.0996 36.8191 42.1289C36.8532 42.1581 36.876 42.2003 36.8889 42.2539C36.9019 42.3075 36.9068 42.3708 36.9068 42.4423C36.9068 42.5153 36.9019 42.5786 36.8889 42.6322C36.876 42.6858 36.8532 42.728 36.8191 42.7589Z" fill="#231815"/>
<path d="M25.945 41.8626H25.7891C25.7729 41.8626 25.7583 41.8723 25.7502 41.8869L25.3523 42.7216C25.3329 42.7621 25.2712 42.7492 25.2712 42.7037V41.9064C25.2712 41.8821 25.2517 41.8642 25.2289 41.8642H25.0698C25.0454 41.8642 25.0276 41.8837 25.0276 41.9064V43.8533C25.0276 43.8777 25.0471 43.8955 25.0698 43.8955H25.2289C25.2533 43.8955 25.2712 43.876 25.2712 43.8533V43.3386C25.2712 43.3386 25.2712 43.3256 25.276 43.3191L25.4059 43.0625C25.4222 43.0301 25.4709 43.0317 25.4839 43.0658L25.7973 43.8679C25.8037 43.8842 25.82 43.8955 25.8378 43.8955H26.0116C26.0424 43.8955 26.0619 43.8647 26.0522 43.8371L25.6105 42.7199C25.6056 42.7086 25.6073 42.6956 25.6105 42.6858L25.9824 41.9259C25.997 41.8967 25.9759 41.8642 25.9434 41.8642L25.945 41.8626Z" fill="#231815"/>
<path d="M27.7115 43.41C27.7115 43.4734 27.7001 43.5253 27.679 43.5692C27.6579 43.6114 27.6287 43.6438 27.5929 43.6666C27.5572 43.6893 27.515 43.6991 27.4695 43.6991C27.4306 43.6991 27.3948 43.6893 27.3607 43.6714C27.3412 43.6601 27.3234 43.6471 27.3071 43.6325C27.2909 43.6162 27.2649 43.6162 27.2487 43.6325L27.1383 43.7348C27.1188 43.7526 27.1204 43.7819 27.1383 43.7997C27.1756 43.8322 27.2162 43.8598 27.2617 43.8793C27.3218 43.9069 27.39 43.9199 27.4663 43.9199C27.6173 43.9199 27.7374 43.8744 27.8268 43.7835C27.869 43.738 27.9014 43.6861 27.9242 43.6227C27.9453 43.5594 27.9567 43.4896 27.9567 43.4116V41.9064C27.9567 41.8821 27.9372 41.8642 27.9144 41.8642H27.7553C27.731 41.8642 27.7131 41.8837 27.7131 41.9064V43.4116L27.7115 43.41Z" fill="#231815"/>
<path d="M28.9177 43.8955H29.6176C29.6419 43.8955 29.6598 43.876 29.6598 43.8533V43.7202C29.6598 43.6958 29.6403 43.678 29.6176 43.678H29.1629C29.1385 43.678 29.1207 43.6585 29.1207 43.6357V43.0301C29.1207 43.0057 29.1402 42.9879 29.1629 42.9879H29.5429C29.5672 42.9879 29.5851 42.9684 29.5851 42.9456V42.8109C29.5851 42.7865 29.5656 42.7686 29.5429 42.7686H29.1629C29.1385 42.7686 29.1207 42.7492 29.1207 42.7264V42.1305C29.1207 42.1061 29.1402 42.0883 29.1629 42.0883H29.6176C29.6419 42.0883 29.6598 42.0688 29.6598 42.0461V41.9113C29.6598 41.8869 29.6403 41.8691 29.6176 41.8691H28.9177C28.8934 41.8691 28.8755 41.8886 28.8755 41.9113V43.8582C28.8755 43.8825 28.895 43.9004 28.9177 43.9004V43.8955Z" fill="#231815"/>
<path fill-rule="evenodd" clip-rule="evenodd" d="M31.6248 18.4722L29.082 21.0151C26.8364 23.2607 23.1618 23.2607 20.9177 21.0151L18.3749 18.4722C16.1293 16.2266 16.1293 12.552 18.3749 10.308L20.9177 7.76514C23.1634 5.51947 26.838 5.51947 29.082 7.76514L31.6248 10.308C33.8705 12.5536 33.8705 16.2282 31.6248 18.4722ZM22.8987 17.774C22.207 18.5339 20.9827 18.6346 19.9613 18.5226C20.4468 18.8652 20.8479 19.2906 21.1305 19.8427C21.3221 20.2162 21.5656 20.5604 21.8514 20.8624C22.6682 21.7246 23.8097 22.2215 24.9983 22.2215C26.2339 22.2215 27.3527 21.6987 28.1451 20.8624C28.4309 20.5604 28.6761 20.2162 28.8661 19.8427C29.2412 19.1104 29.8241 18.5973 30.5402 18.2108C30.9964 17.964 31.4056 17.6376 31.7466 17.2495C32.4205 16.4848 32.8297 15.4813 32.8297 14.3869C32.8297 13.2924 32.4205 12.2906 31.7466 11.5242C31.5161 11.2627 31.2562 11.0289 30.9705 10.8292C30.2739 10.4379 29.5627 10.3437 28.9343 10.5077C28.0834 10.7285 27.7424 11.3455 27.2309 12.0015L25.8848 13.7276C25.6218 14.3446 25.7046 14.8058 26.1333 15.5219C25.6218 15.2166 25.2402 15.0867 24.8391 15.1338L23.0903 17.524L23.2982 17.7318L23.342 17.7756L23.4508 17.8844L23.722 18.1556C24.6686 19.1023 25.703 18.2043 25.7712 18.1442C26.8282 17.0855 27.6953 16.2185 28.7524 15.1614C28.8141 15.0916 29.7104 14.0588 28.7638 13.1122L28.7069 13.0554L28.4926 12.841L28.34 12.6884C28.314 12.6624 28.314 12.6186 28.34 12.5926L28.465 12.4676C28.491 12.4416 28.5348 12.4416 28.5608 12.4676L28.7134 12.6202L29.3532 13.26C29.6715 13.5782 29.8014 14.0166 29.7802 14.455C29.7575 14.9259 29.561 15.3968 29.2412 15.7167C28.2052 16.7527 27.3608 17.597 26.3249 18.633C26.005 18.9529 25.5341 19.1494 25.0632 19.1721C24.6248 19.1932 24.188 19.0633 23.8681 18.745L23.4443 18.3212L23.1212 17.9981L23.0773 17.9543L22.8955 17.7724L22.8987 17.774ZM26.8006 11.1491L26.6983 11.0468L26.5782 10.9266L26.5473 10.8958L26.2762 10.6246C25.3214 9.66981 24.2806 10.5889 24.227 10.6376C23.1699 11.6946 22.3028 12.5617 21.2457 13.6188C21.197 13.6724 20.278 14.7149 21.2328 15.668L21.5039 15.9392L21.6566 16.0918C21.6825 16.1178 21.6825 16.1616 21.6566 16.1876L21.5315 16.3126C21.5055 16.3386 21.4617 16.3386 21.4357 16.3126L21.0687 15.9457L20.6449 15.5219C20.3267 15.2036 20.1968 14.7652 20.2179 14.3268C20.2406 13.8559 20.4355 13.385 20.757 13.0651C21.7929 12.0291 22.6373 11.1848 23.6733 10.1488C23.9932 9.82894 24.464 9.63247 24.9349 9.60973C25.3734 9.58863 25.8101 9.71853 26.13 10.0368L26.7698 10.6765L26.8006 10.7074L26.9208 10.8276L26.9955 10.9039C27.6775 10.1553 28.8774 10.0465 29.889 10.1504C29.4701 9.82732 29.1226 9.43437 28.8693 8.93912C28.6777 8.56565 28.4342 8.22141 28.1484 7.91939C27.356 7.08316 26.2372 6.5603 25.0015 6.5603C23.8113 6.5603 22.6714 7.05718 21.8547 7.91939C21.5689 8.22141 21.3237 8.56565 21.1337 8.93912C20.7586 9.67144 20.1757 10.1845 19.4596 10.571C19.0033 10.8178 18.5941 11.1442 18.2531 11.5323C17.5793 12.2971 17.1701 13.3006 17.1701 14.395C17.1701 15.4894 17.5793 16.4913 18.2531 17.2577C18.4106 17.4379 18.5844 17.6035 18.7695 17.7545C19.5164 18.2222 20.2845 18.344 20.9616 18.1686C21.8124 17.9478 22.1534 17.3307 22.6649 16.6747L24.2416 14.6531C24.3228 14.2147 24.1994 13.8153 23.8681 13.26C24.2984 13.5165 24.6378 13.6497 24.9723 13.6578L26.8055 11.1539L26.8006 11.1491Z" fill="#231815"/>
</svg>
