<svg width="50" height="50" viewBox="0 0 50 50" fill="none" xmlns="http://www.w3.org/2000/svg">
<path d="M31.504 8.9669L31.475 8.94406H19.7757L15.0591 12.1956L25.6223 21.3028L36.1855 12.2306L31.504 8.96538V8.9669ZM15.6195 12.226L19.8853 9.28673H31.3684L35.6296 12.2611L25.6238 20.8521L15.6211 12.226H15.6195Z" fill="#AD7B41"/>
<path d="M17.3819 20.9282C17.2646 20.814 17.2875 20.6008 17.4352 20.45C17.5814 20.2977 17.7946 20.2672 17.9119 20.3784C18.0307 20.4911 18.0048 20.7074 17.8601 20.8581C17.7124 21.0104 17.4992 21.0394 17.3834 20.9267L17.3819 20.9282Z" fill="#AD7B41"/>
<path d="M17.3604 19.2514C17.3452 19.6687 17.1853 20.0236 16.8777 20.316C16.6157 20.5657 16.3355 20.6662 16.0568 20.7028C15.9456 20.718 15.8451 20.6906 15.8299 20.6327C15.8146 20.5749 15.8557 20.5231 15.9304 20.5124C15.9913 20.5048 16.0964 20.5261 16.1588 20.5185C16.2548 20.5063 16.4269 20.4393 16.6721 20.1956C16.9203 19.9505 16.9782 19.6215 17.0025 19.3626C17.0269 19.1128 16.9721 18.8874 16.7939 18.7214C16.6157 18.5539 16.3873 18.4854 16.1299 18.493C15.8116 18.5021 15.5177 18.6438 15.2511 18.9133C14.9542 19.2133 14.7714 19.5484 14.7547 19.9794C14.7409 20.3358 14.8491 20.7987 15.0775 21.3668C15.3136 21.9288 15.4248 22.3643 15.4126 22.675C15.3836 23.3634 15.111 23.933 14.5095 24.4051C13.9109 24.8772 13.2774 25.0904 12.5951 25.1392C12.0164 25.1803 11.4133 25.0386 11.0737 24.7234C10.7325 24.4051 10.5528 23.9985 10.5711 23.5096C10.5955 22.9141 10.8254 22.3613 11.3387 21.845C11.8565 21.3272 12.4123 21.0333 13.0611 21.0165C13.3368 21.0089 13.5561 21.0805 13.713 21.2282C13.8774 21.3683 13.9779 21.6227 13.9673 21.8861C13.9521 22.2958 13.748 22.6567 13.5058 22.908C13.2926 23.1289 13.0794 23.237 12.9408 23.2416C12.9225 23.2416 12.8677 23.2355 12.8525 23.2233C12.8494 23.2233 12.8281 23.2096 12.8753 23.1822C13.0337 23.0923 13.1129 23.0207 13.2256 22.9126C13.4084 22.7375 13.553 22.4907 13.5683 22.1328C13.5789 21.8679 13.5363 21.6683 13.3718 21.5054C13.2089 21.347 12.9972 21.2693 12.7352 21.2754C12.3636 21.2861 11.9905 21.4825 11.6189 21.8633C11.2016 22.2821 11.0128 22.7634 10.964 23.205C10.9077 23.7045 11.0798 24.1325 11.3691 24.4797C11.6661 24.8224 12.1839 24.9853 12.6667 24.9153C13.1342 24.8468 13.8317 24.5498 14.2018 24.1492C14.5475 23.7731 14.7303 23.505 14.7531 22.9766C14.7729 22.5288 14.6511 22.1801 14.3541 21.3881C14.211 21.0028 14.1439 20.6404 14.1577 20.3023C14.1775 19.7677 14.4242 19.2925 14.8628 18.9027C15.3029 18.5082 15.7964 18.3163 16.3294 18.3026C16.6492 18.295 16.9035 18.3788 17.0954 18.5585C17.2858 18.7382 17.3772 18.9712 17.3635 19.2545L17.3604 19.2514Z" fill="#AD7B41"/>
<path fill-rule="evenodd" clip-rule="evenodd" d="M35.6738 18.7108C35.6814 18.6027 35.6159 18.528 35.5291 18.49C35.4103 18.4245 35.089 18.4153 35.0661 18.4169C34.792 18.429 34.5026 18.4793 34.0899 18.6072C33.6087 18.758 33.135 18.9575 32.669 19.2073C32.1116 19.5103 31.5755 19.7997 31.1689 20.1865C31.3227 20.2063 31.5755 20.217 31.7826 20.217C32.6477 20.217 33.4548 20.0951 34.3199 19.754C35.1895 19.4083 35.6403 19.0595 35.6723 18.7093L35.6738 18.7108ZM35.2961 19.5103C34.9245 19.7723 34.3534 20.051 33.6939 20.2185C32.9888 20.3982 31.9623 20.6069 30.8704 20.482C30.68 20.6861 30.5871 20.8292 30.4775 21.0333C30.3708 21.2374 30.3313 21.376 30.316 21.5343C30.2932 21.7628 30.3967 21.9501 30.4851 22.0369C30.5749 22.1237 30.6587 22.1679 30.8186 22.1679C31.1049 22.1679 31.5572 21.9927 32.139 21.6501C32.5213 21.4262 33.2401 20.9815 33.5416 20.8094C33.9239 20.5932 34.4965 20.2566 34.5925 20.2185C34.2742 20.5642 33.7031 21.3135 32.8365 22.4649C32.1527 23.3771 31.6288 23.9025 31.1597 24.3031C30.5749 24.8026 29.8119 25.191 29.0763 25.1803C28.3758 25.1696 27.9326 24.9336 27.6783 24.6762C27.4178 24.4112 27.2701 23.9558 27.4041 23.5203C27.5046 23.1959 27.6889 22.8228 28.0956 22.5456C28.4352 22.3126 28.8372 22.2029 29.1647 22.2197C29.4342 22.2334 29.681 22.3293 29.8256 22.471C29.9734 22.608 30.0906 22.8471 29.9992 23.1411C29.9261 23.3756 29.7282 23.6315 29.4784 23.8005C29.3368 23.8964 29.2073 23.9604 29.1677 23.9726C29.1053 23.9924 29.0489 23.8964 29.1418 23.8523C29.1906 23.8294 29.2667 23.7914 29.3962 23.6908C29.5911 23.5401 29.8028 23.2873 29.8348 23.0238C29.8683 22.7344 29.7358 22.4222 29.2195 22.4177C28.8844 22.4131 28.4687 22.6202 28.2296 22.8456C28.0422 23.0207 27.8214 23.3238 27.7179 23.6893C27.6189 24.0381 27.7072 24.4264 27.9585 24.6427C28.1885 24.8498 28.5083 24.9442 28.9515 24.9351C29.422 24.9275 30.0526 24.5483 30.4455 24.1873C30.8064 23.8553 31.2267 23.4974 31.8314 22.774C32.3827 22.1146 32.7893 21.5694 32.7984 21.5739C32.6994 21.6592 32.468 21.7856 32.2837 21.8968C31.7095 22.2379 31.2207 22.4085 30.8095 22.4085C30.4729 22.4085 30.2109 22.3034 30.0251 22.0948C29.8393 21.8846 29.7601 21.612 29.7906 21.2739C29.8211 21.0835 29.8728 20.9054 29.9475 20.7409C30.019 20.5749 30.1226 20.4195 30.2566 20.2779C30.0632 20.1271 29.9901 19.8728 29.9901 19.7692C29.9901 19.7159 30.016 19.6977 30.0495 19.7601C30.1607 19.9687 30.4165 20.0556 30.4455 20.0281C30.9328 19.5773 31.478 19.2073 32.0735 18.9164C32.5578 18.6773 33.0756 18.5006 33.6269 18.3833C34.0305 18.295 34.5118 18.2082 34.795 18.2082C35.293 18.2082 35.5519 18.2737 35.7058 18.3833C35.8185 18.461 35.9007 18.627 35.8489 18.8235C35.7971 19.0169 35.5946 19.2956 35.293 19.5134L35.2961 19.5103Z" fill="#AD7B41"/>
<path fill-rule="evenodd" clip-rule="evenodd" d="M34.9779 21.7247C34.8637 21.7217 34.6886 21.8161 34.3626 22.1131C34.0961 22.3583 33.9042 22.5684 33.787 22.7436C33.7641 22.7771 34.3017 22.6293 34.5911 22.4192C34.9185 22.1846 34.9871 22.0232 34.9871 22.0232C34.9871 22.0232 35.182 21.7308 34.9779 21.7247ZM34.9048 23.1395C34.7053 23.3329 34.5119 23.5005 34.3246 23.6406C33.9042 23.9497 33.5585 24.1051 33.2813 24.1051C33.1306 24.1051 33.0087 24.0609 32.925 23.9741C32.8473 23.8827 32.8138 23.7548 32.829 23.5918C32.8671 23.141 33.158 22.672 33.7017 22.1877C34.2195 21.7262 34.6535 21.4947 35.0023 21.4947C35.2201 21.4947 35.3175 21.6166 35.2947 21.8602C35.2658 22.2044 34.9794 22.5045 34.4342 22.7679C34.2515 22.8471 33.9819 22.9431 33.6194 23.0527C33.4809 23.1898 33.3925 23.3466 33.3286 23.4822C33.2737 23.6193 33.2585 23.6116 33.2509 23.7106C33.2463 23.7639 33.26 23.8051 33.2966 23.8325C33.3392 23.8538 33.3895 23.866 33.4489 23.866C33.6392 23.866 34.0672 23.6314 34.4875 23.2994C34.9079 22.9674 35.4576 22.3537 35.4576 22.3537L35.9876 21.6013L36.5207 21.5861L36.1887 22.1085C36.3882 21.9379 37.0034 21.548 37.2654 21.513C37.3994 21.4963 37.5761 21.5953 37.5578 21.8039C37.5456 21.9379 37.4969 22.0323 37.4619 22.1085C37.6263 21.9714 37.7543 21.8709 37.8487 21.8054C38.138 21.5998 38.3071 21.5526 38.4381 21.5526C38.6528 21.5526 38.7503 21.6455 38.732 21.8298C38.7183 21.9821 38.4883 22.3339 38.0375 22.8837C37.5928 23.4258 37.3705 23.7198 37.372 23.8279C37.372 23.8812 37.4131 23.9254 37.4756 23.9254C37.5806 23.9254 37.7923 23.7426 38.1122 23.4152C38.3208 23.205 38.5858 22.9492 38.9315 22.5471C39.0716 22.3841 39.2193 22.2105 39.2696 22.145C39.3199 22.0795 39.3701 22.0582 39.4128 22.0826C39.4417 22.1009 39.4432 22.1572 39.4006 22.2242C39.3488 22.3034 39.0762 22.704 38.5949 23.2111C38.0954 23.738 37.8837 23.9391 37.637 24.035C37.4025 24.1264 37.1923 24.0335 37.1268 23.9558C37.0644 23.8797 37.0354 23.7761 37.0491 23.6467C37.0644 23.4731 37.1969 23.2157 37.4497 22.8715C37.7101 22.5243 38.0223 22.1664 38.2355 21.8206C37.9964 21.9014 37.6964 22.1298 37.337 22.5045C37.0857 22.7664 36.8055 23.0969 36.5009 23.4989L36.1308 24.0061H35.5673L36.938 22.0278C36.938 22.0278 36.9943 21.9455 36.9745 21.9029C36.9578 21.8679 36.8953 21.8694 36.8953 21.8694C36.7537 21.8694 36.507 22.0537 36.1552 22.4237C35.9084 22.6842 35.6221 23.0284 35.2901 23.4517L34.8667 24.0061H34.2972L34.9109 23.138L34.9048 23.1395Z" fill="#AD7B41"/>
<path d="M19.4225 18.6377L11.7468 12.0174L19.1469 6.91548H25.6225V7.93434H19.4621L13.4099 12.1057L20.2038 17.966L19.4225 18.6377Z" fill="#AD7B41"/>
<path d="M26.1873 19.3154L33.1853 13.2753H26.1873V19.3154ZM20.9072 12.2595H35.9266L26.1888 20.6602V24.4706L22.6906 21.4536L23.4704 20.7805L25.0588 22.1526V20.6632L15.251 12.2062L19.8138 9.06133H31.4385L34.6504 11.2772H32.8563L31.1217 10.0802H20.132L16.914 12.2976L25.0603 19.32V13.2769H20.9088V12.2595H20.9072Z" fill="#AD7B41"/>
<path d="M21.6279 21.6394C21.4223 21.6394 21.0964 21.9242 20.6425 22.5273C20.1872 23.1289 20.0044 23.4426 19.9846 23.6619C19.9755 23.7594 20.0151 23.8142 20.1003 23.8264C20.2252 23.8264 20.3973 23.735 20.6136 23.5568C20.8375 23.3695 21.0507 23.1456 21.1314 23.0344C21.072 23.0116 20.9547 22.8898 20.9258 22.7877C20.8969 22.6872 20.8999 22.5745 20.906 22.5136C20.9167 22.3918 20.9837 22.174 21.1908 22.1648C21.3081 22.1587 21.3812 22.2669 21.3735 22.3567C21.3629 22.4649 21.2898 22.5517 21.2075 22.5639C21.1253 22.5776 21.0933 22.5669 21.0933 22.5669C21.0705 22.7588 21.235 22.8045 21.2776 22.8045C21.3903 22.6415 21.471 22.5136 21.5228 22.4207C21.6949 22.1329 21.7726 21.9806 21.7878 21.8511C21.8045 21.711 21.7467 21.6394 21.6264 21.6394H21.6279ZM16.8184 23.5644C16.4376 23.9223 16.2122 24.0685 15.9914 24.0685C15.8863 24.0685 15.8041 24.0289 15.7401 23.9543C15.6762 23.8736 15.6396 23.7563 15.6503 23.5949C15.6655 23.4258 15.7477 23.2507 15.865 23.0832L16.9631 21.5496H17.5083L16.2168 23.3467C16.1711 23.4121 16.1574 23.4274 16.1163 23.505C16.0767 23.5766 16.0569 23.6391 16.0523 23.6939C16.0462 23.7533 16.0676 23.7837 16.1163 23.7837C16.2975 23.7837 16.7118 23.4426 17.1641 22.9705L17.7824 22.2714L18.2911 21.5511H18.8135C18.7739 21.6318 18.4571 22.0902 18.4723 22.0994C18.4647 22.0994 18.7769 21.7826 19.0099 21.647C19.246 21.5054 19.5963 21.3775 19.779 21.5191C19.8323 21.5602 19.8582 21.6227 19.8521 21.714C19.8338 21.9212 19.5993 22.2821 19.1531 22.8014C18.7053 23.3162 18.5439 23.5264 18.5317 23.6787C18.5256 23.7487 18.5576 23.7853 18.6277 23.7853C18.7449 23.7853 18.9977 23.6284 19.3373 23.2964C19.4912 23.1471 19.7988 22.8258 19.8612 22.739C19.9694 22.5791 20.1141 22.3979 20.3471 22.1725C20.8283 21.711 21.2487 21.481 21.6081 21.481C21.7223 21.481 21.8122 21.5222 21.8822 21.6029C21.9507 21.6851 21.9782 21.7963 21.9675 21.9364C21.9386 22.2745 21.7619 22.5654 21.6111 22.8014C21.6111 22.8014 21.9005 22.7268 22.1381 22.5639C22.3421 22.4222 22.5675 22.2516 22.8341 21.9882C22.8341 21.9882 22.7412 22.2395 22.4076 22.5456C22.1274 22.8045 21.8122 23.0101 21.4162 23.0695C21.4162 23.0695 21.0644 23.4578 20.8542 23.6299C20.5725 23.8599 20.2755 24.0335 20.0196 24.032C19.8902 24.032 19.7775 23.9802 19.6846 23.8782C19.5963 23.7685 19.5582 23.633 19.5719 23.47C19.581 23.3756 19.6008 23.2812 19.6343 23.1822C19.5186 23.3101 19.4105 23.4213 19.3084 23.5187C18.9414 23.866 18.6596 24.0411 18.4647 24.0411C18.3566 24.0411 18.2728 23.9954 18.2149 23.9101C18.1571 23.8233 18.1342 23.7137 18.1464 23.5842C18.1692 23.3238 18.3794 22.9659 18.7784 22.5136C19.182 22.0598 19.3571 21.842 19.3632 21.7552C19.3632 21.7552 19.3724 21.7201 19.3556 21.7019C19.348 21.6897 19.3206 21.6882 19.3206 21.6882C19.0891 21.6882 18.7343 22.0065 18.1723 22.6522C17.6712 23.2324 17.292 23.7578 17.1748 23.9726H16.5778L17.0027 23.3741L16.8184 23.5675V23.5644Z" fill="#AD7B41"/>
<path d="M31.8573 7.70894H19.3889L19.3356 7.74853L13.0427 12.0859L25.6239 22.9339L38.2035 12.1225L31.8573 7.70894ZM13.6001 12.1179L19.4985 8.05008H31.7538L37.6461 12.1529L25.6239 22.4847L13.6016 12.1179H13.6001Z" fill="#AD7B41"/>
<path fill-rule="evenodd" clip-rule="evenodd" d="M7.2934 33.9708C7.2934 33.9708 7.31624 33.8885 7.34823 33.8444C7.38173 33.8002 7.43199 33.7865 7.4594 33.7667C7.48681 33.7469 7.58581 33.7332 7.62997 33.6936C7.67414 33.6555 7.72896 33.6403 7.76704 33.6068C7.80511 33.5733 7.97264 33.4804 7.97873 33.5185C7.9833 33.5581 7.98787 33.5961 7.99244 33.6494C7.99853 33.7027 8.00614 33.7545 8.00614 33.7941C8.00614 33.8444 7.75485 34.0424 7.68784 34.085C7.62083 34.1277 7.55078 34.1475 7.50661 34.1855C7.46245 34.2236 7.38478 34.2388 7.3467 34.248C7.30863 34.2571 7.28578 34.219 7.29797 34.1901C7.30863 34.1612 7.29187 33.9693 7.29187 33.9693L7.2934 33.9708ZM5.17801 36.7075C5.17801 36.7075 5.12014 36.7426 5.15212 36.805C5.18258 36.8675 5.23284 36.9558 5.21456 36.9817C5.19629 37.0091 5.17954 37.0319 5.15669 37.0091C5.13385 36.9878 5.10796 36.9116 5.01049 36.8857C4.91302 36.8598 4.90084 36.8202 4.88713 36.7532C4.87342 36.6862 4.82012 36.4928 4.85667 36.3512C4.8917 36.2095 5.0912 35.8623 5.10796 35.7572C5.12623 35.6506 5.25873 35.4709 5.29528 35.4039C5.33031 35.3369 5.51306 35.0765 5.56941 34.979C5.62728 34.883 5.77349 34.7719 5.80852 34.7277C5.84354 34.6835 5.86487 34.6713 5.90294 34.682C5.95015 34.6972 5.95777 34.7399 5.94863 34.7856C5.93949 34.8297 5.94558 34.8937 5.93949 34.9485C5.9334 35.0018 5.94711 35.0308 5.94711 35.0856C5.94711 35.1404 5.93492 35.2364 5.94711 35.2958C5.95929 35.3567 5.95929 35.5014 5.9532 35.5608C5.94711 35.6202 5.91817 35.6384 5.8938 35.7115C5.86944 35.7846 5.83898 35.8684 5.79176 35.9171C5.74303 35.9643 5.64099 36.0679 5.60444 36.1212C5.56941 36.176 5.58007 36.1578 5.51915 36.205C5.45976 36.2522 5.45976 36.2476 5.40493 36.2476C5.35011 36.2476 5.28462 36.2476 5.27244 36.2887C5.26025 36.3314 5.21761 36.4334 5.2237 36.4867C5.22979 36.5415 5.24198 36.5827 5.21152 36.6131C5.18106 36.6436 5.17954 36.7075 5.17954 36.7075H5.17801ZM3.00171 34.8511C3.00171 34.8511 3.05044 34.7703 3.12964 34.7703C3.20883 34.7703 3.253 34.8008 3.31696 34.8602C3.38092 34.9196 3.71141 35.2196 3.74796 35.2409C3.78299 35.2623 3.81192 35.3536 3.81192 35.3536C3.81192 35.3536 3.83933 35.41 3.88198 35.3643C3.90787 35.3354 4.22921 34.8709 4.61452 34.3165C4.85362 33.9723 5.17801 33.6525 5.47956 33.4271C5.75064 33.2245 5.83745 33.2382 5.83745 33.2855C5.83745 33.2855 5.93188 33.2733 5.96234 33.2185C5.9867 33.1758 5.94863 33.0098 5.93035 32.7646C5.91055 32.5088 5.8801 32.096 5.90142 31.9361C5.91512 31.8204 5.94558 31.8615 5.96081 31.7473C5.9867 31.5569 6.00498 31.3422 6.00498 31.1853C6.00498 31.1015 6.00193 31.0361 5.99736 30.9797C5.99279 30.931 5.97604 30.7756 5.94406 30.5868C5.91208 30.3934 5.95624 30.1238 5.93949 29.9715C5.93188 29.906 5.90903 29.7476 5.89532 29.6806C5.87705 29.5923 5.86639 29.5984 5.84354 29.5451C5.80395 29.4491 5.81918 29.3243 6.01259 29.3151C6.07199 29.3121 6.19992 29.2877 6.30957 29.2923C6.55781 29.2999 6.76798 29.2649 7.02993 29.5497C7.10455 29.6288 7.29035 29.7354 7.33604 29.7903C7.52337 30.0157 7.499 30.1208 7.58885 30.2365C7.665 30.334 7.69851 30.4543 7.7244 30.5655C7.7381 30.6203 7.75942 30.6614 7.76551 30.7193C7.78227 30.8959 7.71373 31.0132 7.64977 31.1015C7.60408 31.164 7.56753 31.3726 7.53403 31.5264C7.52032 31.5889 7.48377 31.5508 7.48072 31.6102C7.47311 31.7001 7.4792 31.8128 7.48224 31.8706C7.4929 32.0427 7.53859 32.0915 7.55687 32.1174C7.55687 32.1174 7.89344 31.8798 8.46151 31.5554C8.46151 31.5554 8.76001 31.4671 8.96865 31.4869C9.03718 31.4929 9.10115 31.5082 9.16359 31.5127C9.21994 31.5143 9.29761 31.5051 9.34025 31.5234C9.37985 31.5386 9.39203 31.5615 9.41488 31.6026C9.42401 31.6178 9.43163 31.6483 9.46209 31.6605C9.46209 31.6605 9.48645 31.6757 9.54128 31.665C9.60524 31.6513 9.69053 31.6407 9.78648 31.6483C9.88242 31.6574 9.99055 31.6833 10.1017 31.7473C10.2205 31.8158 10.35 31.9346 10.4337 32.0184C10.5693 32.1585 10.6881 32.294 10.8129 32.4996C10.8129 32.4996 10.8251 32.6412 10.8647 32.6748C10.9028 32.7052 10.8647 32.8864 10.8008 32.9839C10.7353 33.0814 10.548 33.1849 10.3347 33.1728C10.1215 33.1591 9.87633 33.3083 9.72708 33.4697C9.57935 33.6312 9.11333 34.0637 9.11333 34.0637C9.11333 34.0637 9.08439 34.117 9.02652 34.2023C8.97017 34.2891 8.91382 34.3378 8.81026 34.4536C8.76305 34.5053 8.66863 34.5693 8.61989 34.6226C8.59096 34.6546 8.6138 34.6957 8.58486 34.7262C8.42191 34.9074 8.22697 35.0597 8.18737 35.1054C8.08381 35.2287 7.95588 35.3917 7.95588 35.3917C7.95588 35.3917 7.94522 35.4465 7.96198 35.4679C7.997 35.5135 8.06249 35.5958 8.10361 35.6004C8.13102 35.6049 8.19956 35.7466 8.19956 35.8334C8.19956 35.9202 8.28789 36.074 8.35337 36.1075C8.41734 36.1395 8.44171 36.2674 8.39297 36.3481C8.37622 36.3755 8.36708 36.4075 8.34728 36.4334C8.31378 36.4761 8.30312 36.5552 8.25134 36.604C8.23306 36.6192 8.13559 36.6314 8.07315 36.6588C7.85841 36.7441 7.50204 36.8614 7.46549 36.9238C7.41676 37.0045 7.41067 37.0852 7.3863 37.2223C7.37259 37.2984 7.33452 37.4431 7.30101 37.5756C7.2736 37.6822 7.24771 37.7797 7.23705 37.8284C7.22334 37.8878 7.21573 37.9472 7.22791 37.9883C7.23857 38.0279 7.26751 38.0569 7.30101 38.0904C7.37411 38.1635 7.35127 38.1741 7.35127 38.2412C7.35127 38.3082 7.3467 38.663 7.33452 38.6965C7.3269 38.7209 7.31777 38.7666 7.29797 38.7894C7.2736 38.8199 7.24009 38.829 7.24009 38.8854C7.24009 38.9265 7.27208 38.9554 7.28122 39.0498C7.29035 39.1504 7.27665 39.3225 7.26903 39.4352C7.26599 39.4808 7.27512 39.5555 7.26598 39.5966C7.21573 39.8433 7.19136 39.7535 7.18679 39.8205C7.18222 39.886 7.13806 40.0413 7.16242 40.1921C7.18527 40.3413 7.16852 40.4753 7.19136 40.5119C7.21573 40.55 7.2005 40.9505 7.18222 41.0358C7.16395 41.1195 7.12587 41.1607 7.1213 41.2231C7.11674 41.284 7.1213 41.4988 7.08475 41.5079C7.04668 41.5155 6.95378 41.5186 6.94921 41.5612C6.94464 41.6023 6.90961 41.6526 6.90352 41.75C6.89743 41.846 6.87915 42.3227 6.88525 42.3714C6.89134 42.4186 6.9218 42.4186 6.92789 42.4628C6.93398 42.5039 6.9218 42.6197 6.98271 42.6501C7.04211 42.6806 7.01927 42.7978 6.98271 42.8283C6.94616 42.8588 6.87458 42.8313 6.84413 42.8725C6.81367 42.9151 6.70554 42.9821 6.65071 43.0171C6.59589 43.0537 6.51821 43.0232 6.49994 43.0537C6.48166 43.0842 6.46339 43.0948 6.43445 43.0842C6.40399 43.072 6.31871 42.9806 6.28216 42.8846C6.2456 42.7872 6.18621 42.7293 6.18621 42.5846C6.18621 42.4399 6.1588 42.2328 6.1527 42.1308C6.14661 42.0287 6.10854 42.0912 6.11463 41.9892C6.12072 41.8856 6.07808 41.6602 6.12072 41.5962C6.16337 41.5323 6.13595 41.5764 6.14509 41.5155C6.15423 41.4546 6.18164 41.4348 6.16489 41.3495C6.14814 41.2657 6.14966 41.3084 6.13748 41.2201C6.12681 41.1302 6.15118 40.7632 6.15575 40.6946C6.1588 40.6261 6.19535 40.5972 6.22428 40.5774C6.25322 40.5561 6.2517 40.5408 6.25017 40.4312C6.24865 40.3642 6.21362 40.3961 6.1923 40.2911C6.1786 40.2225 6.17403 40.0261 6.16946 39.953C6.16184 39.7687 6.14204 38.6478 6.14966 38.3371C6.1588 38.0295 6.12986 37.9198 6.12986 37.8223C6.12986 37.7249 6.09026 37.6503 6.05371 37.5939C6.01716 37.5376 6.03239 37.466 5.97756 37.4782C5.92122 37.4903 5.8009 37.5025 5.8009 37.5025C5.8009 37.5025 5.72019 37.536 5.64404 37.5132C5.56789 37.4919 5.43844 37.3502 5.41102 37.2802C5.38361 37.2101 5.30746 37.1675 5.30746 37.1675C5.30746 37.1675 5.23589 37.1401 5.23589 37.1888C5.23589 37.2375 5.17649 37.2421 5.2039 37.3502C5.23132 37.4584 5.20695 37.5726 5.18106 37.5741C5.13689 37.5756 5.10948 37.5909 5.03942 37.5909C4.96937 37.5909 4.93586 37.5817 4.91911 37.6244C4.90388 37.6685 4.93129 37.7051 4.82773 37.6914C4.7257 37.6777 4.56883 37.6716 4.45461 37.6244C4.34039 37.5741 4.11194 37.536 4.01447 37.5528C3.91701 37.5695 3.9566 37.5101 3.8637 37.4172L3.21797 36.7685C3.12507 36.6756 3.14182 36.5385 3.05501 36.505C2.9682 36.473 3.01085 36.4075 3.0276 36.2781C3.04435 36.1471 3.02303 35.611 3.02303 35.4755C3.02303 35.3399 3.00476 34.8572 3.00476 34.8572L3.00171 34.8511Z" fill="#AD7B41"/>
<path fill-rule="evenodd" clip-rule="evenodd" d="M17.3771 36.6816C17.3771 36.6816 17.272 36.8827 17.2644 36.9268C17.2461 37.0228 17.2202 37.2451 17.1959 37.3167C17.1715 37.3868 17.1212 37.4751 17.1593 37.4888C17.1974 37.504 17.4319 37.303 17.4989 37.3076C17.5644 37.3137 17.6573 37.2817 17.6619 37.2132C17.668 37.1446 17.9634 36.9223 17.9375 36.8126C17.9116 36.703 17.9101 36.5735 17.9055 36.4958C17.8995 36.4182 17.6588 35.6201 17.3756 36.6816H17.3771ZM17.3268 38.6265C17.3268 38.6265 17.4761 38.599 17.5294 38.5777C17.5827 38.5564 17.802 38.5046 17.8934 38.4985C17.9832 38.494 18.1309 38.4087 18.2436 38.4726C18.3563 38.5396 18.5711 38.6539 18.5924 38.7163C18.6137 38.7787 18.83 38.893 18.8681 38.9539C18.9077 39.0148 19.0797 39.1595 19.1209 39.2387C19.13 39.2585 19.1193 39.3011 19.13 39.3087C19.1407 39.3163 19.1361 39.4351 19.1452 39.4351C19.1605 39.4351 19.1772 39.4351 19.1909 39.4351C19.2168 39.4428 19.194 39.2966 19.2001 39.292C19.2122 39.2844 19.2305 39.257 19.229 39.2387C19.226 39.1839 19.3615 38.5427 19.3265 38.2351C19.2914 37.9289 19.2823 37.1324 19.2747 36.9878C19.2655 36.8431 19.2473 36.8065 19.2336 36.7349C19.2199 36.6634 19.0112 36.7441 18.9473 36.7669C18.8848 36.7882 18.9153 36.5111 18.8315 36.5095C18.7538 36.5095 18.7021 36.4669 18.6625 36.3968C18.6213 36.3253 18.5711 36.307 18.5071 36.3116L18.169 36.1562C18.169 36.1562 18.3411 36.441 18.3975 36.4928C18.4538 36.5446 18.4949 36.6085 18.4812 36.6725C18.4675 36.7365 18.667 36.8476 18.664 36.9649C18.6625 37.0822 18.7675 37.2741 18.7721 37.3654C18.7767 37.4568 18.7889 37.5177 18.8087 37.5863C18.8285 37.6533 18.862 37.9152 18.7538 37.9122C18.6762 37.9091 18.2969 38.0477 18.1827 38.0614C18.0685 38.0751 17.869 38.0493 17.7624 38.0538C17.6558 38.0599 17.5187 38.0767 17.4395 38.1482C17.3603 38.2229 17.3283 38.3538 17.2781 38.4026C17.2278 38.4513 17.1654 38.5061 17.1898 38.5351C17.2141 38.564 17.2111 38.5518 17.2126 38.5975C17.2156 38.6432 17.3253 38.6447 17.3253 38.6188L17.3268 38.6265ZM17.0055 32.4326C16.9796 32.4524 16.9842 32.4524 16.9994 32.4691C17.0161 32.4874 17.0344 32.5057 17.0557 32.4935C17.0786 32.4813 17.1151 32.4676 17.1319 32.4966C17.1471 32.5255 17.2431 32.6062 17.2629 32.6808C17.2811 32.7555 17.3283 32.7829 17.3695 32.8468C17.4106 32.9123 17.5933 32.9641 17.6619 32.9946C17.7304 33.0235 17.7837 33.0205 17.8157 33.0677C17.8492 33.1134 17.9253 33.1469 17.9741 33.2017C18.0213 33.255 18.0807 33.2519 18.0913 33.3555C18.1005 33.4606 18.1157 33.5946 18.0974 33.6586C18.0792 33.7225 18.003 33.7774 17.9984 33.8291C17.9939 33.8824 17.968 33.9403 17.9467 34.0347C17.9269 34.1276 17.8964 34.152 17.8918 34.2266C17.8888 34.3013 17.8538 34.3363 17.8324 34.4231C17.8111 34.5099 17.7776 34.5754 17.77 34.6363C17.7624 34.6957 17.7609 34.7277 17.7487 34.8023C17.738 34.8769 17.7365 34.8556 17.7243 34.9013C17.7121 34.947 17.7335 35.0049 17.7091 35.0399C17.6847 35.0749 17.6771 35.1252 17.6969 35.1526C17.7182 35.1815 17.6147 35.5607 17.6619 35.5851C17.7076 35.6095 17.9741 35.5013 18.0106 35.4618C18.0457 35.4222 18.1675 35.4176 18.1995 35.3856C18.2315 35.3536 18.3731 35.413 18.4112 35.4282C18.4492 35.445 18.469 35.4282 18.5239 35.4145C18.5787 35.3993 18.6366 35.442 18.763 35.4282C18.9077 35.4115 18.961 35.3125 19.028 35.2485C19.095 35.183 18.9579 34.7749 18.961 34.6881C18.964 34.6013 18.9335 34.3454 18.9305 34.2891L18.9122 33.9616C18.9077 33.887 18.8772 33.8809 18.8467 33.8718C18.8163 33.8626 18.7965 33.7667 18.7873 33.6647C18.7782 33.5657 18.7477 33.4987 18.7554 33.4454C18.763 33.3921 18.7447 33.2002 18.7401 33.1849C18.7356 33.1712 18.7051 33.1545 18.6838 33.0463C18.6625 32.9397 18.6564 32.8423 18.6198 32.8301C18.5817 32.8164 18.5574 32.8621 18.5543 32.7539C18.5543 32.6443 18.5117 32.3184 18.5193 32.2544C18.5269 32.1904 18.5117 32.0564 18.5025 32.0123C18.4919 31.9681 18.4949 31.9544 18.431 31.9422C18.367 31.9315 18.2985 31.9209 18.2558 31.9529C18.2132 31.9848 17.8781 32.1463 17.8568 32.1585C17.834 32.1722 17.6116 32.3366 17.5142 32.3473C17.4182 32.3564 17.2903 32.3595 17.2492 32.3656C17.208 32.3717 17.1608 32.3717 17.1243 32.3945C17.0877 32.4189 17.007 32.4356 17.007 32.4356L17.0055 32.4326ZM16.0415 34.9516C16.0415 34.9516 15.9638 35.0079 15.9729 35.0688C15.9821 35.1297 16.014 35.2957 16.0491 35.3963C16.0841 35.4937 16.1267 35.4572 16.1587 35.3993C16.1907 35.3414 16.3019 35.2957 16.4009 35.2607C16.4999 35.2257 16.4999 35.2379 16.576 35.1709C16.6537 35.1039 16.7862 35.0795 16.7877 34.9988C16.7877 34.9196 16.7755 34.7079 16.8014 34.6211C16.8258 34.5358 16.9567 34.3759 16.9202 34.3561C16.8836 34.3363 16.9172 34.3104 16.8486 34.3378C16.7801 34.3652 16.7816 34.4033 16.71 34.4536C16.6369 34.5038 16.5775 34.4871 16.5242 34.519C16.4709 34.548 16.3948 34.6272 16.2836 34.7125C16.1739 34.7993 16.0765 34.9561 16.0415 34.9485V34.9516ZM16.0597 36.9238C16.0597 36.9238 15.6668 36.8172 15.6135 36.7639C15.6135 36.7639 15.5952 36.7106 15.5678 36.6908C15.5495 36.6755 15.516 36.7075 15.5069 36.7212C15.4886 36.7608 15.2708 37.204 15.2632 37.2878C15.2556 37.3715 15.1718 37.5223 15.1444 37.6441C15.1155 37.7721 15.0987 37.9168 15.0683 38.0097C15.0424 38.0873 15.0317 38.2153 15.0348 38.2884C15.0393 38.363 15.0713 38.7909 15.0835 38.8686C15.0972 38.9463 15.1322 38.928 15.1368 39.0026C15.1414 39.0772 15.1581 39.1671 15.1993 39.1732C15.2419 39.1793 15.2419 39.1869 15.2815 39.1564C15.3211 39.1245 15.382 39.1016 15.449 39.1092C15.516 39.1168 15.583 39.1123 15.6409 39.1168C15.6973 39.1245 15.7567 39.094 15.7825 39.1092C15.8084 39.1245 15.8359 39.1199 15.915 39.0864C15.9684 39.0635 16.0201 39.0681 16.1267 39.0559C16.2349 39.0437 16.3004 38.992 16.3735 38.9874C16.445 38.9843 16.7405 38.8945 16.8715 38.8442C17.0009 38.794 16.9933 38.7589 17.0085 38.7331C17.0192 38.7194 16.9644 38.5869 16.9446 38.5838C16.8836 38.5777 16.6659 38.6325 16.5714 38.6493C16.477 38.6676 16.4801 38.6371 16.3872 38.5823C16.2927 38.5275 16.1663 38.2944 16.0932 38.2868C16.0217 38.2792 15.9927 38.2092 15.9851 38.1787C15.9775 38.1498 15.9653 38.0295 15.9592 37.9396C15.9546 37.8497 15.9379 37.6639 15.9668 37.5528C15.9973 37.4431 16.1922 37.102 16.2014 37.0365C16.2105 36.971 16.2394 36.9101 16.1618 36.9177C16.0841 36.9268 16.0612 36.9253 16.0612 36.9253L16.0597 36.9238ZM15.5236 33.0996C15.5236 33.0996 15.6044 32.9565 15.6211 32.8179C15.6379 32.6793 15.7079 32.6351 15.7582 32.527C15.8084 32.4189 15.9272 32.0869 16.3064 31.7488C16.6841 31.4122 17.4715 30.8411 17.6923 30.7391C17.9132 30.6386 18.2634 30.666 18.4279 30.6979C18.5924 30.7315 19.1955 30.931 19.3584 31.1C19.5229 31.2691 19.6707 31.3087 19.7529 31.3284C19.8351 31.3498 20.027 31.4686 20.0986 31.5691C20.1687 31.6711 20.4291 31.9803 20.5128 32.1539C20.5966 32.3275 20.688 32.5087 20.6362 32.6169C20.586 32.725 20.4793 32.9824 20.4763 33.0951C20.4763 33.2093 20.4763 33.7774 20.4885 34.0028C20.5007 34.2282 20.5296 34.6089 20.5296 34.7383C20.5296 34.8678 20.6027 35.9019 20.5966 36.0572C20.589 36.211 20.5692 36.2857 20.5738 36.3816C20.5799 36.4776 20.5905 36.6557 20.6164 36.703C20.6438 36.7502 20.6651 36.9999 20.6865 37.2345C20.7078 37.469 20.7946 38.7361 20.7976 38.8991C20.7976 39.0605 20.758 39.0559 20.7626 39.1427C20.7672 39.2326 20.7809 39.4671 20.7124 39.5433C20.6438 39.6209 20.6514 39.7336 20.6545 39.8144C20.6591 39.8951 20.5707 40.0458 20.5479 40.2012C20.5235 40.3581 20.4793 40.7083 20.3941 40.9246C20.3088 41.1393 20.123 41.5718 20.0697 41.648C20.0179 41.7226 20.0225 41.8049 20.0179 41.8703C20.0133 41.9343 19.9813 41.9526 19.8854 41.9739C19.791 41.9952 19.497 41.9876 19.4498 42.015C19.4026 42.0409 19.3219 41.8841 19.2381 41.8475C19.1559 41.811 19.0066 41.7637 18.9594 41.7988C18.9137 41.8338 18.8376 41.7805 18.8071 41.6861C18.7767 41.5901 18.7615 41.3312 18.6731 41.1744C18.5833 41.0175 18.3183 40.6352 18.265 40.5667C18.2132 40.4951 18.1218 40.4433 18.1309 40.3474C18.1416 40.2499 18.1507 40.2728 18.204 40.221C18.2574 40.1707 18.2482 40.1464 18.2376 40.0976C18.2269 40.0504 18.1812 39.9545 18.1005 39.9484C18.0213 39.9408 18.0259 39.9286 18.0122 39.959C17.9984 39.9895 17.8111 40.0489 17.7456 40.0078C17.7152 39.9895 17.6619 39.9377 17.5142 39.9667C17.4228 39.9834 17.4045 40.02 17.3162 40.0458C17.2126 40.0763 17.0314 40.1464 16.905 40.1768C16.7786 40.2073 16.5273 40.2393 16.4633 40.2514C16.3978 40.2636 16.2044 40.3185 16.014 40.32C15.8206 40.3215 15.8206 40.3063 15.7734 40.3291C15.7262 40.3535 15.5998 40.2697 15.6196 40.1768C15.6409 40.0839 15.6135 40.125 15.6135 40.125C15.6135 40.125 15.2663 40.0184 15.1475 39.9194C15.1475 39.9194 15.1368 39.8859 15.0987 39.9103C15.0607 39.9347 15.0256 39.9392 15.0135 39.9849C15.0013 40.0321 14.9678 40.0398 14.9114 40.0824C14.8535 40.125 14.8475 40.1281 14.7667 40.1479C14.686 40.1677 14.7013 40.1479 14.584 40.122C14.4682 40.0961 14.3312 40.0337 14.2565 39.9895C14.1819 39.9453 14.0266 39.8357 14.0037 39.8402C13.9794 39.8448 13.9626 39.7671 13.9626 39.7291C13.9596 39.688 13.9763 39.6194 13.9261 39.5219C13.8758 39.426 13.9215 39.3986 13.9002 39.2813C13.8789 39.1641 13.8499 39.1564 13.8453 39.0605C13.8393 38.963 13.7951 38.5975 13.7722 38.1772C13.7479 37.7568 13.7403 37.4401 13.7753 37.3137C13.8225 37.1461 13.7981 37.0243 13.8164 36.9131C13.8347 36.805 13.9535 36.5126 13.9916 36.3862C14.0509 36.1897 14.0388 36.1791 14.0586 36.0938C14.0768 36.0085 14.1225 35.8653 14.1743 35.7359C14.2276 35.6064 14.3129 35.4816 14.4088 35.2607C14.5048 35.0384 14.6388 34.8632 14.6967 34.8114C14.7546 34.7612 14.7424 34.6713 14.7454 34.5921C14.7454 34.5145 14.7287 34.4932 14.75 34.4505C14.7698 34.4079 14.9967 34.1931 15.0439 34.1444C15.0911 34.0972 15.0972 34.1185 15.1109 34.1048C15.1246 34.0926 15.184 34.0713 15.2297 34.1139C15.2754 34.1566 15.3637 34.1703 15.3972 34.2007C15.4292 34.2282 15.4901 34.248 15.5434 34.2556C15.5967 34.2632 15.6074 34.2556 15.6089 34.2114C15.6089 34.1688 15.6318 34.1215 15.6668 34.0271C15.7018 33.9342 15.8115 33.8276 15.8572 33.7682C15.9013 33.7104 15.9318 33.6723 15.9897 33.6906C16.046 33.7073 16.0354 33.7119 16.0658 33.6449C16.0993 33.5794 16.2014 33.3357 16.2882 33.1667C16.375 32.9976 16.407 32.8575 16.4648 32.8194C16.5227 32.7798 16.5425 32.7631 16.5486 32.7311C16.5547 32.6976 16.5501 32.626 16.541 32.6062C16.5318 32.5864 16.4953 32.5834 16.4618 32.6138C16.4268 32.6443 16.3049 32.6839 16.2227 32.7235C16.1404 32.7646 16.1024 32.7859 16.0338 32.8697C15.9668 32.955 15.9105 33.0448 15.8709 33.0951C15.8282 33.1469 15.711 33.3342 15.6592 33.3357C15.6074 33.3387 15.5511 33.354 15.5495 33.3129C15.5465 33.2733 15.5008 33.2261 15.5115 33.1986C15.5221 33.1697 15.5313 33.1027 15.5313 33.1027L15.5236 33.0996Z" fill="#AD7B41"/>
<path d="M46.9998 37.571C46.9998 37.4584 46.8582 37.1827 46.7242 37.0197C46.5901 36.8568 46.2292 36.6314 46.1515 36.604C46.0739 36.575 45.6779 36.4898 45.5728 36.476C45.4662 36.4623 45.2743 36.5263 45.1906 36.5552C45.1053 36.5827 45.1418 36.7593 45.1418 36.7593C45.1418 36.7593 45.1418 37.0213 45.1768 37.2192C45.2119 37.4172 45.2667 37.5299 45.2819 37.6015C45.2972 37.6716 45.288 37.6777 45.253 37.6777C45.218 37.6777 45.0839 37.664 45.0839 37.664C45.0839 37.664 44.9286 37.7066 44.787 37.7629C44.6453 37.8208 44.2357 37.9122 44.1443 37.9396C44.1382 37.9396 44.1367 37.9427 44.1321 37.9427H44.0453V37.9472C44.0453 37.9472 44.0453 37.9472 44.0422 37.9427C44.0331 37.9259 44.0057 37.8909 43.9828 37.8909C43.9539 37.8909 43.9752 37.6853 43.9752 37.6015C43.9752 37.5177 43.9265 37.5101 43.9128 37.4812C43.8976 37.4523 43.9326 37.2543 43.9326 37.2071C43.9326 37.1568 44.0818 36.4212 44.0818 36.1669C44.0818 35.9126 44.1093 35.4039 44.0681 35.0856C44.0255 34.7673 43.9844 34.9104 43.9783 34.8602C43.9707 34.8099 43.9707 34.7612 44.0103 34.7414C44.0499 34.7231 44.4352 34.3317 44.4778 34.3211C44.522 34.3104 44.5144 34.2936 44.5601 34.3058C44.6042 34.318 44.6788 34.3226 44.7093 34.3272C44.7398 34.3317 44.7961 34.3332 44.8418 34.2525C44.8723 34.1992 45.2697 33.8535 45.3642 33.7941C45.4586 33.7362 45.6749 33.5428 45.8119 33.485C45.949 33.4256 46.2856 33.1773 46.3221 33.0753C46.3556 32.9732 46.4272 32.7616 46.4272 32.7616L46.4226 32.3458C46.4226 32.3458 46.3602 32.2316 46.3556 32.1493C46.3526 32.0656 46.2932 31.9955 46.214 31.9529L45.7632 31.7062C45.7632 31.7062 45.5987 31.6041 45.5439 31.5965C45.4891 31.5874 45.3794 31.6087 45.3383 31.633C45.2987 31.6559 45.2134 31.6132 45.1738 31.6407C45.1342 31.6681 44.8372 31.7671 44.8372 31.7671L44.7382 31.7975C44.7382 31.7975 44.6804 31.7945 44.6606 31.7701C44.6408 31.7457 44.5083 31.4168 44.4367 31.3071C44.3666 31.1975 44.2478 31.0924 44.2052 31.0086C44.1626 30.9264 44.0879 30.8411 44.0529 30.7071C44.0164 30.5746 43.692 30.3385 43.692 30.3385C43.692 30.3385 43.3539 30.1268 43.3143 30.104C43.2762 30.0796 43.2092 30.0339 43.1498 30.0614C43.0919 30.0888 43.0691 30.0659 43.0051 30.0614C42.9427 30.0583 42.7432 30.0812 42.7432 30.0812C42.7432 30.0812 42.6503 30.1055 42.6015 30.1482C42.5558 30.1908 42.4843 30.235 42.4645 30.2578C42.4462 30.2822 42.4553 30.3157 42.4553 30.3995C42.4553 30.4832 42.4553 30.5883 42.4812 30.6705C42.5086 30.7513 42.5833 30.8 42.5833 30.9005C42.5833 31.001 42.5909 31.1213 42.6274 31.1914C42.6624 31.263 42.6899 31.2782 42.7325 31.3604C42.7767 31.4427 42.8224 31.4899 42.8376 31.5264C42.8543 31.5615 42.8071 31.6544 42.8894 31.6833C42.9716 31.7107 42.9366 31.7351 42.9518 31.7732C42.967 31.8128 42.9594 31.8249 42.9472 31.8447C42.9351 31.8645 42.83 31.9848 42.83 31.9848L42.4888 32.3504L42.1233 32.7022C42.1233 32.7022 41.9543 32.7829 41.9192 32.8255C41.8842 32.8682 41.7076 32.99 41.7076 32.99C41.7076 32.99 41.6055 33.0448 41.5583 33.0601C41.5111 33.0753 41.473 33.1118 41.473 33.1118C41.473 33.1118 41.508 33.1773 41.54 33.2017C41.5705 33.2245 41.5903 33.2413 41.6603 33.2596C41.7319 33.2794 41.837 33.2322 41.837 33.2322C41.837 33.2322 42.0335 33.1225 42.0776 33.0829C42.1203 33.0433 42.1477 33.0235 42.1477 33.0235C42.1477 33.0235 42.2939 33.0326 42.4173 33.0403C42.5421 33.0494 42.7889 33.0159 42.7889 33.0159L42.9153 33.0128L42.9579 33.0905C42.9579 33.0905 43.0051 33.1149 42.9929 33.1804C42.9929 33.1804 42.9747 33.2291 42.9549 33.2428C42.9351 33.2596 42.7127 33.4073 42.7127 33.4073C42.7127 33.4073 42.1431 33.7149 42.0563 33.721C41.968 33.7271 41.6908 33.8794 41.5857 33.922C41.4791 33.9632 41.1425 34.1216 41.0664 34.1627C40.9902 34.2038 40.378 34.6394 40.2775 34.6927C40.2775 34.6927 40.2638 34.6957 40.244 34.6896V34.3637C40.244 34.3637 40.2486 34.2464 40.2684 34.149C40.2882 34.05 40.2699 33.9921 40.2699 33.9921L40.2181 33.922L40.0826 33.8687C40.0826 33.8687 39.9988 33.8474 39.9881 33.8931C39.9881 33.8931 39.7902 34.1916 39.7597 34.2937C39.7231 34.414 39.2708 35.1663 39.184 35.279C39.0972 35.3902 38.8505 36.144 38.8246 36.2324C38.8002 36.3192 38.8002 36.7152 38.8368 36.7639C38.8733 36.8141 39.1246 37.0974 39.2038 37.1477C39.283 37.1964 39.5602 37.3015 39.6394 37.3243C39.7201 37.3487 39.7825 37.3 39.8054 37.2695C39.8313 37.239 40.0156 37.0532 40.0643 37.0411C40.113 37.0289 40.1511 36.9603 40.1511 36.802C40.1511 36.6436 40.1572 36.4623 40.1572 36.2963C40.1572 36.1303 40.0887 36.2171 40.1024 36.1242C40.113 36.0329 40.2181 35.8425 40.3841 35.7009C40.5501 35.5592 41.2446 35.1115 41.4547 35.0125C41.6634 34.9135 41.6314 34.8648 41.8111 34.7795C41.9893 34.6927 42.1172 34.6546 42.4431 34.5937C42.7691 34.5328 42.8482 34.4657 43.0021 34.4597C43.1559 34.452 43.4331 34.3789 43.5184 34.3058C43.6036 34.2312 44.1626 33.8505 44.2555 33.7454C44.3484 33.6418 44.4458 33.6114 44.4458 33.6114C44.4458 33.6114 44.5007 33.59 44.5159 33.6373C44.5311 33.686 44.5418 33.6921 44.5113 33.7408C44.4809 33.7911 44.059 34.318 43.9859 34.3972C43.9113 34.4764 43.8747 34.4657 43.826 34.5206C43.7757 34.5754 43.7026 34.6257 43.6767 34.6622C43.6524 34.6988 43.6219 34.6561 43.5671 34.6622C43.5123 34.6683 43.3036 34.6257 43.2305 34.65C43.1559 34.6744 43.0828 34.7231 43.0143 34.7917C42.9457 34.8587 42.7812 34.8952 42.7127 34.982C42.6442 35.0688 42.1477 35.5181 42.0243 35.6902C41.901 35.8623 41.8766 35.8867 41.8766 35.8867C41.8766 35.8867 41.8766 35.9293 41.8279 35.9293C41.7791 35.9293 41.6101 35.8136 41.5872 35.8623C41.5629 35.911 41.5476 36.1989 41.5674 36.3527C41.5857 36.5065 41.6938 36.7167 41.7502 36.907C41.8065 37.0974 42.0396 37.2086 42.1188 37.239C42.1995 37.2695 42.303 37.3061 42.3822 37.2634C42.4629 37.2208 42.5421 37.1279 42.5863 37.067C42.6289 37.006 42.6091 36.9984 42.6168 36.9314C42.6229 36.8644 42.6289 36.6847 42.7036 36.5431C42.7767 36.4014 42.8391 36.304 42.8696 36.243C42.9 36.1821 42.9 36.1928 42.9122 36.1334C42.9244 36.0709 42.9488 36.0527 42.9868 36.0709C43.0234 36.0907 43.0478 36.0786 43.0417 36.1577C43.0371 36.2385 43.0112 36.5141 43.0036 36.6816C42.999 36.8476 42.9427 37.1918 42.9427 37.2406C42.9427 37.2893 42.9366 37.3259 42.8878 37.338C42.8376 37.3502 42.5558 37.5223 42.5558 37.5223C42.5558 37.5223 41.9969 37.7431 41.9345 37.7629C41.8736 37.7812 41.6207 37.8863 41.6207 37.8863C41.6207 37.8863 41.3877 37.9289 41.3314 37.9335C41.3314 37.9335 41.3314 37.9381 41.3253 37.9472C41.3207 37.9594 41.3101 37.9792 41.2994 38.002C41.2811 38.0386 41.2324 38.2092 41.2187 38.2594C41.2065 38.3097 41.1821 38.3767 41.2126 38.5107C41.2431 38.6463 41.336 38.7818 41.3908 38.9173C41.4456 39.0529 41.5202 39.0209 41.5431 39.0102C41.569 38.9981 41.6664 39.0285 41.7167 39.0346C41.7654 39.0407 41.8142 39.0651 41.8263 39.0971C41.8385 39.1275 41.8583 39.1458 41.8385 39.1945C41.8203 39.2433 41.6177 39.4717 41.5812 39.5814C41.5431 39.691 41.4334 40.0306 41.403 40.154C41.371 40.2773 41.3908 40.4555 41.3908 40.6154C41.3908 40.7754 41.4395 40.9048 41.4334 41.0205C41.4273 41.1378 41.5141 41.383 41.5141 41.5003C41.5141 41.6175 41.6741 41.6724 41.7243 41.6967C41.773 41.7211 42.0076 41.7912 42.0563 41.8201C42.105 41.8475 42.2117 41.8688 42.2467 41.8049C42.2802 41.7424 42.5223 41.5932 42.5376 41.5734C42.5513 41.5505 42.6076 41.5368 42.6427 41.5368C42.6777 41.5368 43.7818 41.5795 43.7818 41.5795C43.7818 41.5795 43.8458 41.6084 43.8823 41.6297C43.9158 41.6511 44.193 41.651 44.2265 41.6373C44.2616 41.6236 44.4885 41.5384 44.5448 41.4668C44.6012 41.3967 44.8631 41.0282 44.956 40.8454C45.0489 40.6611 45.1251 40.5408 45.1616 40.4845C45.1966 40.4281 45.2164 40.2499 45.2164 40.0672C45.2164 39.8844 45.1616 39.1412 45.0398 38.7453C45.0398 38.7453 44.9834 38.6615 45.0535 38.5625C45.1251 38.462 45.2241 38.497 45.2956 38.497C45.3672 38.497 45.4144 38.5884 45.4144 38.5884C45.4144 38.5884 45.4312 38.7498 45.4891 38.7711C45.5469 38.7925 45.9596 38.9904 46.0312 39.0331C46.0998 39.0742 46.1927 39.1458 46.2566 39.0971C46.3206 39.0483 46.5886 38.829 46.6389 38.7087C46.6876 38.5869 46.6907 38.4589 46.7226 38.3188C46.7622 38.1452 46.8216 38.1498 46.878 38.0584C46.8932 38.034 46.91 37.9944 46.9252 37.9487C46.9663 37.8284 46.9983 37.6594 46.9983 37.5771L46.9998 37.571ZM44.6179 38.7529C44.5905 38.7864 44.3682 39.0148 44.3682 39.0148C44.3682 39.0148 44.2874 39.1564 44.2478 39.2158C44.2098 39.2752 44.0087 39.4671 43.9752 39.5174C43.9433 39.5661 43.8184 39.6316 43.8062 39.659C43.7955 39.6864 43.7133 39.7291 43.7133 39.7291C43.7133 39.7291 43.6706 39.7078 43.6371 39.7017C43.6052 39.6971 43.6204 39.5707 43.6265 39.5387C43.631 39.5052 43.6265 39.2493 43.6265 39.2341C43.6265 39.2174 43.6798 38.928 43.6798 38.8671C43.6798 38.8062 43.692 38.7635 43.7833 38.7194C43.8762 38.6767 43.9311 38.4742 43.9311 38.4742C43.9311 38.4742 43.9646 38.4528 43.992 38.4254C44.0194 38.398 44.0788 38.3919 44.0788 38.3919C44.0788 38.3919 44.1884 38.4315 44.2539 38.4467C44.3194 38.4635 44.4276 38.4742 44.4276 38.4742L44.5981 38.4955C44.5981 38.4955 44.6255 38.5229 44.6408 38.5457C44.659 38.5671 44.6636 38.6539 44.6636 38.6539C44.6636 38.6539 44.6469 38.7194 44.6194 38.7513L44.6179 38.7529Z" fill="#AD7B41"/>
<path d="M28.0574 38.6676C28.0696 38.628 28.2158 38.5686 28.2295 38.5473C28.2417 38.526 28.592 38.0569 28.6148 38.0203C28.6392 37.9838 28.6666 37.929 28.6666 37.8817C28.6666 37.833 28.6879 37.766 28.7123 37.7249C28.7367 37.6822 28.9179 37.4614 28.9712 37.3457C29.023 37.2314 29.1387 37.0167 29.1936 36.8979C29.2484 36.7791 29.2453 36.7822 29.2438 36.7273C29.2438 36.674 29.2103 36.6223 29.1996 36.575C29.1905 36.5263 29.2529 36.5157 29.2925 36.3786C29.3321 36.2385 29.3458 36.2339 29.3733 36.1258C29.4007 36.0176 29.4662 35.9506 29.4905 35.8075C29.5149 35.6643 29.5042 35.6049 29.4601 35.5973C29.4144 35.5897 29.3854 35.5684 29.3535 35.5166C29.323 35.4618 29.2956 35.4222 29.2788 35.3795C29.2606 35.3384 29.1768 35.413 29.1768 35.413C29.1768 35.413 29.1189 35.4968 29.09 35.5882C29.061 35.6795 29.0748 35.7329 29.0108 35.7999C28.9453 35.8669 28.6453 36.1791 28.6209 36.2278C28.6026 36.2674 28.557 36.3192 28.5174 36.3344C28.5082 36.3375 28.493 36.3268 28.4869 36.3253C28.4762 36.3253 28.4595 36.3177 28.4549 36.3085C28.4443 36.2857 28.4549 36.2476 28.4641 36.1913C28.4732 36.1273 28.4625 36.0481 28.4671 35.9293C28.4671 35.9019 28.4595 35.8928 28.4625 35.8623C28.4641 35.8395 28.4823 35.7801 28.496 35.7268C28.5813 35.3765 28.8661 34.4673 28.9027 34.3439C28.9468 34.2008 28.9133 34.2099 28.959 34.0835C29.0793 33.7484 29.3108 33.2885 29.3337 33.1651C29.3672 32.9961 29.3915 32.9778 29.3017 32.8377C29.2316 32.7311 29.0093 32.4311 28.8844 32.3077C28.7595 32.1844 28.4503 31.9833 28.3239 31.8889C28.196 31.793 28.1716 31.8843 28.0742 31.9133C27.9767 31.9437 27.9249 31.9788 27.8975 32.0077C27.8701 32.0366 27.7955 31.9331 27.7528 31.927C27.7117 31.9194 27.6843 31.8051 27.5594 32.0991C27.4345 32.3915 26.804 33.0951 26.705 33.1682C26.606 33.2413 26.1872 33.3586 26.1872 33.3586C26.1872 33.3586 26.1476 33.5413 26.1537 33.6601C26.1598 33.7819 26.1781 33.9449 26.3426 34.1063C26.5055 34.2678 26.705 34.3881 26.9487 34.4566C27.1954 34.5236 27.3858 34.615 27.4422 34.6272C27.468 34.6318 27.4726 34.7475 27.468 34.7841C27.465 34.8206 27.4452 34.8815 27.3797 35.0064C27.3142 35.1313 27.3234 35.2029 27.3097 35.3323C27.2959 35.4602 27.0492 35.7618 26.9898 35.8197C26.9304 35.8775 26.6944 36.0527 26.5071 36.1852C26.3213 36.3177 25.8705 36.703 25.808 36.7395C25.7441 36.7761 25.6237 36.7989 25.6222 36.8126C25.6176 36.8248 25.5857 36.8492 25.6207 36.9923C25.6557 37.1355 25.6009 37.2528 25.6481 37.3441C25.6938 37.4355 25.6512 37.5238 25.7045 37.5756C25.7578 37.6274 25.7958 37.6853 25.8035 37.6579C25.8111 37.6289 25.8781 37.6442 25.9542 37.5954C26.0304 37.5452 26.0334 37.5695 26.0608 37.5284C26.0882 37.4888 26.3563 37.4127 26.434 37.3609C26.5131 37.3122 26.5467 37.3045 26.5847 37.2741C26.6365 37.233 26.6685 37.2406 26.6883 37.2253C26.7066 37.2086 26.705 37.233 26.7142 37.3411C26.7233 37.4492 26.705 37.7096 26.705 37.766C26.705 37.8223 26.6944 37.8025 26.6396 37.9442C26.5862 38.0843 26.4385 38.3523 26.3898 38.5092C26.3395 38.6676 26.2268 39.0087 26.2086 39.0773C26.1903 39.1458 26.1248 39.292 26.1096 39.3483C26.0943 39.4047 26.0684 39.4412 26.137 39.4793C26.204 39.5189 26.4218 39.7352 26.4857 39.7991C26.5512 39.8616 26.6 39.9088 26.6761 39.9362C26.7523 39.9621 26.7949 39.9621 26.8421 39.9256C26.8908 39.8875 26.9472 39.8479 27.0264 39.7976C27.0736 39.7672 27.2594 39.6514 27.2959 39.6042C27.331 39.5555 27.4178 39.49 27.465 39.4215C27.5122 39.3514 27.5031 39.3681 27.5594 39.3301C27.6142 39.292 27.6813 39.2159 27.6889 39.1717C27.6965 39.1275 27.7467 39.094 27.7681 39.0666C27.7879 39.0377 28.0026 38.8016 28.0346 38.7681C28.065 38.7361 28.0498 38.7118 28.0605 38.6706L28.0574 38.6676Z" fill="#AD7B41"/>
<path d="M35.756 38.4985C35.7149 38.4985 35.6905 38.494 35.6068 38.4894C35.5215 38.4848 35.4316 38.4559 35.3661 38.4528C35.2991 38.4468 35.2154 38.4422 35.1499 38.4437C35.0829 38.4437 35.0646 38.3676 35.0631 38.3188C35.0631 38.2716 35.0676 38.2366 35.0707 38.1955C35.0753 38.1559 35.0417 38.1361 34.9854 38.1178C34.9291 38.0995 34.8255 38.1178 34.7478 38.0934C34.6717 38.0721 34.326 38.0493 34.198 38.0523C34.0701 38.0538 33.7701 38.0889 33.6056 38.0356C33.4396 37.9823 33.1502 37.9518 33.0741 37.9487C32.9979 37.9457 33.0101 37.9015 32.8365 37.8741C32.6629 37.8467 32.6385 37.801 32.5563 37.7492C32.4756 37.699 32.1786 37.4675 32.0644 37.3807C31.9502 37.2954 31.7385 37.0944 31.7232 37.0746C31.708 37.0548 31.7095 36.9999 31.7324 36.971C31.7552 36.9421 31.7872 36.8781 31.8161 36.7883C31.8466 36.6999 32.1573 36.1593 32.1999 36.0755C32.2426 35.9902 32.4512 35.7922 32.4893 35.7389C32.5304 35.6856 32.6507 35.6765 32.6857 35.6506C32.7208 35.6262 32.7741 35.6491 32.7741 35.6125C32.7741 35.576 32.8685 35.5196 32.8959 35.4572C32.9233 35.3978 32.966 35.3719 32.937 35.2988C32.9066 35.2272 32.9233 35.1587 32.905 35.1039C32.8883 35.0475 32.8715 35.0201 32.8152 34.9775C32.7573 34.9348 32.6553 34.7917 32.6096 34.7414C32.5654 34.6911 32.4253 34.5724 32.3857 34.5617C32.3446 34.551 32.0354 34.2967 32.0111 34.2799C31.9867 34.2632 31.9684 34.2632 31.9593 34.216C31.9502 34.1672 31.9425 34.1825 31.9547 34.149C31.9654 34.1155 31.9806 34.0896 32.0172 34.0698C32.0537 34.0515 32.1024 33.9814 32.1451 33.954C32.1862 33.9266 32.3233 33.8885 32.4162 33.8078C32.5076 33.7286 32.6751 33.686 32.7314 33.6373C32.7893 33.5885 32.7984 33.6053 32.8365 33.5855C32.8715 33.5672 32.8533 33.5383 32.8685 33.5063C32.8837 33.4743 32.8776 33.3936 32.8441 33.3311C32.8106 33.2687 32.838 33.2367 32.7893 33.1987C32.7406 33.1606 32.6994 33.1027 32.6568 32.9961C32.6111 32.888 32.3553 32.5986 32.3294 32.5575C32.305 32.5148 32.2334 32.5103 32.1969 32.5286C32.1618 32.5468 32.1116 32.5285 32.0933 32.4463C32.0735 32.3625 32.0232 32.2849 31.9989 32.2377C31.9745 32.1905 31.9791 32.1417 32.0019 32.1113C32.0263 32.0808 32.0385 32.0503 32.0415 31.9849C32.0461 31.9194 32.0628 31.8463 32.0507 31.7732C32.0385 31.7016 32.0598 31.5569 32.0735 31.3589C32.0872 31.1594 32.0842 30.736 32.0826 30.6614C32.0811 30.5853 32.0613 30.3736 32.0552 30.2929C32.0507 30.2121 32.0491 30.1695 31.9715 30.0781C31.8938 29.9867 31.74 29.8649 31.7065 29.7979C31.673 29.7294 31.5801 29.6959 31.4917 29.6974C31.4034 29.6974 31.1399 29.7065 31.0318 29.6852C30.9222 29.6639 30.8567 29.7522 30.7775 29.8299C30.6983 29.9075 30.7409 30.0355 30.7424 30.0903C30.7424 30.1466 30.7577 30.2548 30.8186 30.2776C30.878 30.3005 31.111 30.532 31.1354 30.5411C31.1597 30.5472 31.1597 30.532 31.1597 30.5974C31.1597 30.6614 31.1871 30.998 31.1948 31.2021C31.2024 31.4061 31.1476 31.7229 31.1354 32.0519C31.1232 32.3793 31.1278 32.5925 31.1293 32.6991C31.1293 32.8073 31.1354 32.821 31.114 32.859C31.0927 32.8956 30.9907 32.9733 30.9511 33.0113C30.9115 33.0479 30.9069 33.0464 30.8551 33.0403C30.8034 33.0326 30.8216 32.9885 30.8201 32.9367C30.8201 32.8849 30.8323 32.7859 30.8277 32.7128C30.8232 32.6382 30.8338 32.5377 30.8384 32.4844C30.846 32.4326 30.8887 32.4098 30.7546 32.294C30.6191 32.1783 30.5338 32.0168 30.4455 31.9376C30.3541 31.8569 30.2338 31.7549 30.1729 31.7046C30.1119 31.6544 30.0084 31.6193 30.0084 31.6193C29.9657 31.627 29.9703 31.7884 29.9216 31.8067C29.8744 31.8249 29.8271 31.9102 29.8287 31.9833C29.8287 32.0549 29.8241 32.0793 29.8211 32.1691C29.8165 32.259 29.7936 32.3519 29.7891 32.4463C29.7845 32.5423 29.7906 32.6352 29.7525 32.7357C29.719 32.8225 29.6764 33.057 29.6703 33.2017C29.6627 33.3525 29.6459 33.418 29.6368 33.6114C29.6276 33.8033 29.6231 34.2419 29.6307 34.3561C29.6398 34.4703 29.6809 34.481 29.7312 34.5297C29.7799 34.5769 29.8485 34.7262 29.8744 34.7978C29.8987 34.8693 29.9003 34.8998 29.984 34.8739C30.0678 34.8495 30.0921 34.9028 30.1881 34.8952C30.284 34.8876 30.2505 34.9957 30.2323 35.0506C30.2155 35.1054 30.0434 35.3506 29.9977 35.4237C29.9505 35.4968 29.9261 35.5501 29.8667 35.6719C29.7921 35.8273 29.7784 35.806 29.6901 35.975C29.5911 36.1623 29.5256 36.3999 29.4723 36.575C29.4266 36.7319 29.3931 36.9954 29.3962 37.1401C29.3992 37.2847 29.5363 37.4401 29.5987 37.5513C29.6596 37.6655 29.6368 37.7005 29.6855 37.7477C29.7342 37.7949 29.8195 37.7934 29.8972 37.8163C29.9764 37.8391 30.0251 37.8437 30.0251 37.8437C30.0327 37.9152 30.0663 37.8833 30.0251 37.9609C29.9855 38.0401 29.7601 38.2153 29.6063 38.3447C29.4525 38.4742 29.253 38.7788 29.0748 38.8899C28.8966 39.0011 28.5829 39.2417 28.5585 39.2661C28.5342 39.2905 28.4809 39.3346 28.4336 39.3362C28.3849 39.3362 28.3545 39.3316 28.2829 39.3194C28.2098 39.3103 27.9463 39.3255 27.8976 39.327C27.8504 39.327 27.8473 39.4824 27.9128 39.5098C27.9798 39.5402 28.1291 39.7732 28.2128 39.8509C28.2996 39.9271 28.4382 39.9788 28.554 39.9941C28.6667 40.0108 28.7169 40.0382 28.8129 40.0489C28.9179 40.0611 29.0093 40.0778 29.0535 40.052C29.0961 40.0261 29.1982 39.988 29.2058 39.9758C29.2134 39.9621 29.253 39.9758 29.253 39.9941C29.253 40.0124 29.2621 39.9575 29.2637 40.0367C29.2637 40.0794 29.288 40.1311 29.3139 40.1875C29.3368 40.2378 29.3626 40.2911 29.3748 40.3459C29.4022 40.4601 29.687 40.9612 29.7784 41.083C29.8698 41.2063 30.3175 41.4196 30.3967 41.4272C30.4775 41.4348 30.5962 41.6008 30.6846 41.6526C30.7759 41.7044 30.8323 41.9511 30.8079 42.012C30.782 42.076 30.7836 42.1369 30.8186 42.111C30.8536 42.0851 31.0074 42.1323 31.0958 42.1399C31.1856 42.1475 31.2618 42.1125 31.3151 42.0836C31.3684 42.0562 31.606 41.9617 31.6593 41.945C31.711 41.9252 31.711 41.8825 31.711 41.8825C31.711 41.8825 31.7476 41.916 31.711 41.8551C31.673 41.7957 31.644 41.6267 31.6425 41.5292C31.641 41.4317 31.6288 41.2368 31.6349 40.9886C31.6379 40.7403 31.644 40.6444 31.6501 40.4205C31.6532 40.3337 31.6501 40.256 31.6456 40.1875C31.6395 40.0839 31.6303 39.9986 31.6227 39.9255C31.6121 39.8022 31.606 39.4656 31.6227 39.3575C31.6379 39.2509 31.6212 38.7635 31.6379 38.6904C31.6547 38.6204 31.6303 38.2929 31.6303 38.2396C31.6303 38.1863 31.7293 38.2731 31.7293 38.2731C31.9532 38.4909 32.2106 38.8762 32.3355 38.9189C32.4603 38.96 32.5944 39.0651 32.6736 39.0544C32.7543 39.0438 32.7984 39.062 32.9675 39.0849C33.1365 39.1077 33.4594 39.2707 33.6543 39.2859C33.8493 39.2996 34.0107 39.3499 34.1523 39.3468C34.294 39.3453 34.4356 39.3605 34.5072 39.3316C34.5772 39.3042 34.7828 39.3544 34.9062 39.2905C35.028 39.225 35.0829 39.225 35.1697 39.1534C35.258 39.0803 35.2839 39.1153 35.3448 39.0529C35.4057 38.9889 35.4956 39.0316 35.5474 38.9767C35.6007 38.9219 35.7088 38.8519 35.7195 38.8153C35.7316 38.7788 35.8245 38.6402 35.8535 38.5549C35.8824 38.4696 35.8048 38.5062 35.7621 38.5077L35.756 38.4985ZM30.4363 35.5562C30.4455 35.4907 30.5003 35.4465 30.5247 35.3673C30.5475 35.2927 30.5871 35.2013 30.6115 35.1617C30.6374 35.1221 30.7714 34.9607 30.7942 34.95L30.8551 34.9577C30.8551 34.9577 30.8719 34.9653 30.8734 34.9973C30.8734 35.0262 30.8795 35.1191 30.8795 35.1191C30.8795 35.1191 30.8734 35.2668 30.8795 35.2958C30.8841 35.3262 30.878 35.4146 30.878 35.4146C30.878 35.4146 30.8475 35.445 30.8277 35.4846C30.8064 35.5242 30.7181 35.6171 30.6998 35.643C30.683 35.6689 30.549 35.7587 30.5338 35.8044C30.5338 35.8044 30.5079 35.8105 30.4775 35.8014C30.447 35.7938 30.4637 35.7938 30.4637 35.7938C30.4637 35.7938 30.4074 35.7694 30.4196 35.7252C30.4318 35.6826 30.4318 35.6217 30.4379 35.5562H30.4363ZM30.7287 40.4022C30.7287 40.4632 30.7226 40.5926 30.7226 40.6185C30.7226 40.6429 30.7516 40.7418 30.6724 40.7327C30.5947 40.7236 30.5643 40.7144 30.4455 40.716C30.3252 40.719 30.2277 40.6992 30.0647 40.6261C29.9033 40.5515 29.8515 40.5317 29.7815 40.3565C29.754 40.2911 29.7251 40.2332 29.6977 40.1784C29.652 40.0855 29.6078 39.9971 29.588 39.8844C29.553 39.7047 29.518 39.7306 29.5515 39.6636C29.588 39.5966 29.6368 39.4961 29.6459 39.4565C29.6459 39.4565 29.9505 39.1351 30.0723 39.0102C30.1942 38.8838 30.3267 38.8305 30.3678 38.7879C30.4074 38.7468 30.5353 38.6569 30.581 38.6188C30.6282 38.5808 30.6648 38.5655 30.6648 38.5655C30.6648 38.5655 30.6937 38.5077 30.7105 38.5275C30.7257 38.5473 30.7516 38.5945 30.7516 38.5945V38.7194C30.7546 38.7711 30.7242 38.8336 30.7333 38.9371C30.7394 39.0407 30.7196 39.0712 30.7257 39.1184C30.7318 39.1641 30.7257 39.4077 30.7272 39.4854C30.7272 39.5631 30.747 39.6712 30.744 39.79C30.7394 39.9088 30.7226 40.0169 30.7379 40.0992C30.744 40.1235 30.744 40.1509 30.744 40.1829C30.7424 40.2636 30.7272 40.3596 30.7287 40.4053V40.4022Z" fill="#AD7B41"/>
</svg>
