<svg width="50" height="50" viewBox="0 0 50 50" fill="none" xmlns="http://www.w3.org/2000/svg">
<path d="M6.50696 34.2291L5.88694 34.6708V42.6087L6.50696 43.2307V36.8834H7.53962V42.6087L8.17207 43.2307V36.2592H6.50696V34.2312V34.2291ZM9.56555 43.1851L10.1897 42.5775V36.8834H11.2161V42.5775L11.8382 43.1851V36.2572H9.56555V43.1851ZM10.1731 42.5962L9.56762 43.1872H11.8403L11.2348 42.5962H10.1731ZM16.1493 36.8668V42.5775H15.3074V36.2572L14.6832 36.8647V42.5755H13.8683V36.2551L13.2441 36.8626V43.181H16.7714V36.253L16.1493 36.8606V36.8668ZM2.00098 38.6439C2.00098 40.732 3.10829 42.5755 4.22597 43.1727V42.3888C3.43178 41.7709 2.69979 40.3816 2.69979 38.6563C2.69979 36.9311 3.43178 35.5915 4.22597 34.9736V34.1151C3.10622 34.7144 2.00098 36.5537 2.00098 38.6439Z" fill="#595757"/>
<path d="M30.281 36.2592V43.1872H31.9316V44.4231H30.8451L30.2396 45.0493H32.5558V36.2613H30.281V36.2592ZM31.9316 42.561H30.9052V36.8855H31.9316V42.561ZM26.5941 42.6087L27.2162 43.2307V36.8855H28.2427V42.5796L28.8648 43.1872V36.2592H26.5941V42.6087ZM22.8056 36.8855H24.562V38.14H22.9114V43.1872H25.1841V36.2592H23.4111L22.8056 36.8855ZM24.562 42.561H23.5356V38.7642H24.562V42.561ZM20.28 36.2157C20.1929 35.548 20.3546 34.9736 20.9705 34.6771V33.9326C19.7284 34.4013 19.4319 35.6517 19.6351 36.4687C19.7595 36.9684 19.9586 37.2836 20.3049 37.8041C20.8067 38.5547 21.2484 39.5127 21.0887 40.4873C20.9394 41.3935 20.4396 42.1296 19.7346 42.5983V43.2618C19.745 43.266 19.7533 43.2743 19.7595 43.2681C20.759 42.7206 21.5117 41.7709 21.7066 40.5807C21.8974 39.4132 21.4412 38.3619 20.8025 37.4039C20.5122 36.9663 20.336 36.6076 20.28 36.2136V36.2157Z" fill="#595757"/>
<path d="M45.7271 36.2592V43.1872H47.3777V44.4231H46.2911L45.6856 45.0493H47.9998V36.2613H45.7292L45.7271 36.2592ZM47.3756 42.561H46.3492V36.8855H47.3756V42.561ZM42.0381 42.6087L42.6602 43.2307V36.8855H43.6866V42.5796L44.3066 43.1872V36.2592H42.036V42.6087H42.0381ZM38.2517 36.8855H40.006V38.14H38.3554V43.1872H40.6301V36.2592H38.8551L38.2496 36.8855H38.2517ZM40.006 42.5775H38.9795V38.7642H40.006V42.5775ZM35.7073 36.2157C35.6203 35.548 35.782 34.9736 36.3958 34.6771V33.9326C35.1537 34.4013 34.8737 35.6517 35.079 36.4687C35.2035 36.9684 35.4004 37.2836 35.7488 37.8041C36.2506 38.5547 36.6944 39.5127 36.5347 40.4873C36.3854 41.3935 35.8857 42.1296 35.1806 42.5983V43.2618C35.191 43.266 35.2014 43.2743 35.2055 43.2681C36.205 42.7206 36.9391 41.7709 37.1319 40.5807C37.3248 39.4132 36.8686 38.3619 36.2278 37.4039C35.9354 36.9663 35.7613 36.6076 35.7073 36.2136V36.2157Z" fill="#595757"/>
<path d="M14.7681 6.71014V29.719H12.9641L11.6909 31.4733H16.5245V4.95171L14.7681 6.70806V6.71014ZM7.10611 15.0502L7.78004 16.5723H12.8542L13.6463 15.0502H11.2471V12.9289H13.2502L13.9864 11.297H11.2471V7.58728L9.57787 8.54736V11.297H6.77018L7.50425 12.9289H9.57994V15.0502H7.11026H7.10611ZM12.9351 17.9575H7.75101V27.0192H12.9351V17.9575ZM11.3446 25.3852H9.41198V19.6205H11.3446V25.3852ZM4.20511 4.95378L4.23207 4.98074H4.20511V18.8387C4.20511 21.8994 4.15742 27.2473 2.00293 30.2105L3.26162 31.4153C5.96147 28.7154 5.92622 21.5967 5.94903 18.8387V6.69562L5.96354 6.71221H14.7702L16.5203 4.95585H4.20719L4.20511 4.95378Z" fill="#595757"/>
<path d="M31.2368 29.6983H27.4359V21.0451H30.4074L31.1062 19.2949H27.4338V14.2477H30.8781L31.6619 12.4955H27.4359V4.95171L25.5842 5.76456V12.4955H23.2182C23.5313 10.3721 23.3923 7.79464 23.1518 6.06524L21.4556 6.78479C21.7272 9.354 21.6754 12.9289 20.8791 14.2498L25.5842 14.2477V19.2949H21.9138L22.7163 21.0451H25.5842V29.6983H21.6671L20.51 31.5169H32.5101L31.2389 29.6983H31.2368Z" fill="#595757"/>
<path d="M46.7248 29.6983H42.872V21.0451H45.8435L46.5423 19.2949H42.8699V14.2477H46.3308L47.1146 12.4955H42.8699V4.95171L41.0182 5.76456V12.4955H38.6687C38.9839 10.3721 38.8429 7.79464 38.6024 6.06524L36.9082 6.78479C37.1799 9.354 37.126 12.9289 36.3297 14.2498L41.0182 14.2477V19.2949H37.3478L38.1503 21.0451H41.0182V29.6983H37.155L35.9958 31.5169H47.9959L46.7227 29.6983H46.7248Z" fill="#595757"/>
</svg>
